<svg xmlns="http://www.w3.org/2000/svg" xmlns:xlink="http://www.w3.org/1999/xlink" viewBox="0 0 209 171.74"><defs><style>.cls-1{fill:none;}.cls-2{isolation:isolate;}.cls-3{fill:url(#linear-gradient);}.cls-4{fill:url(#linear-gradient-2);}.cls-5{fill:url(#linear-gradient-3);}.cls-6{fill:url(#linear-gradient-4);}.cls-7{fill:url(#linear-gradient-5);}.cls-8{fill:url(#linear-gradient-6);}.cls-9{fill:url(#linear-gradient-7);}.cls-10{fill:url(#linear-gradient-8);}.cls-11{fill:url(#linear-gradient-9);}.cls-12{fill:url(#linear-gradient-10);}.cls-13{fill:url(#linear-gradient-11);}.cls-14{fill:url(#linear-gradient-12);}.cls-15,.cls-16,.cls-17,.cls-18,.cls-19,.cls-20,.cls-21,.cls-22,.cls-23,.cls-24,.cls-25,.cls-26{fill:#630000;}.cls-15,.cls-37,.cls-49{opacity:0;}.cls-16{opacity:0.01;}.cls-17{opacity:0.01;}.cls-18{opacity:0.02;}.cls-19{opacity:0.03;}.cls-20{opacity:0.04;}.cls-21{opacity:0.04;}.cls-22{opacity:0.05;}.cls-23{opacity:0.06;}.cls-24{opacity:0.07;}.cls-25{opacity:0.07;}.cls-26{opacity:0.08;}.cls-27{fill:#248000;}.cls-28{fill:#73e846;}.cls-29{fill:#288f00;}.cls-30{fill:#35bf00;}.cls-31{fill:url(#linear-gradient-13);}.cls-32{fill:#31ad00;}.cls-33{fill:url(#linear-gradient-14);}.cls-34{clip-path:url(#clip-path);}.cls-35,.cls-36{opacity:0.25;mix-blend-mode:screen;}.cls-35{fill:url(#radial-gradient);}.cls-36{fill:url(#radial-gradient-2);}.cls-37{fill:url(#linear-gradient-16);}.cls-38,.cls-50{opacity:0.09;}.cls-38{fill:url(#linear-gradient-17);}.cls-39,.cls-51{opacity:0.18;}.cls-39{fill:url(#linear-gradient-18);}.cls-40,.cls-52{opacity:0.27;}.cls-40{fill:url(#linear-gradient-19);}.cls-41,.cls-53{opacity:0.36;}.cls-41{fill:url(#linear-gradient-20);}.cls-42,.cls-54{opacity:0.45;}.cls-42{fill:url(#linear-gradient-21);}.cls-43,.cls-55{opacity:0.55;}.cls-43{fill:url(#linear-gradient-22);}.cls-44,.cls-56{opacity:0.64;}.cls-44{fill:url(#linear-gradient-23);}.cls-45,.cls-57{opacity:0.73;}.cls-45{fill:url(#linear-gradient-24);}.cls-46,.cls-58{opacity:0.82;}.cls-46{fill:url(#linear-gradient-25);}.cls-47,.cls-59{opacity:0.91;}.cls-47{fill:url(#linear-gradient-26);}.cls-48{fill:url(#linear-gradient-27);}.cls-49{fill:url(#linear-gradient-28);}.cls-50{fill:url(#linear-gradient-29);}.cls-51{fill:url(#linear-gradient-30);}.cls-52{fill:url(#linear-gradient-31);}.cls-53{fill:url(#linear-gradient-32);}.cls-54{fill:url(#linear-gradient-33);}.cls-55{fill:url(#linear-gradient-34);}.cls-56{fill:url(#linear-gradient-35);}.cls-57{fill:url(#linear-gradient-36);}.cls-58{fill:url(#linear-gradient-37);}.cls-59{fill:url(#linear-gradient-38);}.cls-60{fill:#227800;}.cls-61{fill:#2ea300;}.cls-62{fill:url(#linear-gradient-39);}.cls-63{fill:url(#linear-gradient-40);}.cls-64{fill:url(#linear-gradient-41);}.cls-65{fill:url(#linear-gradient-42);}.cls-66{fill:url(#linear-gradient-43);}.cls-67{fill:url(#linear-gradient-44);}.cls-68{fill:#ffdbba;opacity:0.2;}</style><linearGradient id="linear-gradient" x1="7.43" y1="107.81" x2="204.26" y2="107.81" gradientUnits="userSpaceOnUse"><stop offset="0" stop-color="#387502"/><stop offset="0.06" stop-color="#4e8e1b"/><stop offset="0.12" stop-color="#60a330"/><stop offset="0.19" stop-color="#6db23f"/><stop offset="0.28" stop-color="#75ba48"/><stop offset="0.4" stop-color="#77bd4b"/><stop offset="0.64" stop-color="#75bb49"/><stop offset="0.76" stop-color="#6fb441"/><stop offset="0.84" stop-color="#64a735"/><stop offset="0.92" stop-color="#549522"/><stop offset="0.98" stop-color="#407e0b"/><stop offset="1" stop-color="#387502"/></linearGradient><linearGradient id="linear-gradient-2" x1="7.43" y1="107.73" x2="204.26" y2="107.73" xlink:href="#linear-gradient"/><linearGradient id="linear-gradient-3" x1="7.43" y1="107.65" x2="204.26" y2="107.65" xlink:href="#linear-gradient"/><linearGradient id="linear-gradient-4" x1="7.43" y1="107.57" x2="204.26" y2="107.57" xlink:href="#linear-gradient"/><linearGradient id="linear-gradient-5" x1="7.43" y1="107.49" x2="204.26" y2="107.49" xlink:href="#linear-gradient"/><linearGradient id="linear-gradient-6" x1="7.43" y1="107.41" x2="204.26" y2="107.41" xlink:href="#linear-gradient"/><linearGradient id="linear-gradient-7" x1="7.43" y1="107.33" x2="204.26" y2="107.33" xlink:href="#linear-gradient"/><linearGradient id="linear-gradient-8" x1="7.43" y1="107.25" x2="204.26" y2="107.25" xlink:href="#linear-gradient"/><linearGradient id="linear-gradient-9" x1="7.43" y1="107.16" x2="204.26" y2="107.16" xlink:href="#linear-gradient"/><linearGradient id="linear-gradient-10" x1="7.43" y1="107.08" x2="204.26" y2="107.08" xlink:href="#linear-gradient"/><linearGradient id="linear-gradient-11" x1="7.43" y1="107" x2="204.26" y2="107" xlink:href="#linear-gradient"/><linearGradient id="linear-gradient-12" x1="7.43" y1="106.92" x2="204.26" y2="106.92" xlink:href="#linear-gradient"/><linearGradient id="linear-gradient-13" x1="6.41" y1="43.61" x2="204.94" y2="43.61" xlink:href="#linear-gradient"/><linearGradient id="linear-gradient-14" x1="9.43" y1="41.82" x2="206.29" y2="41.82" gradientUnits="userSpaceOnUse"><stop offset="0" stop-color="#387502"/><stop offset="0.08" stop-color="#3e7b08"/><stop offset="0.18" stop-color="#4d8d1b"/><stop offset="0.3" stop-color="#67aa38"/><stop offset="0.37" stop-color="#77bd4b"/><stop offset="0.47" stop-color="#74b947"/><stop offset="0.57" stop-color="#69ae3b"/><stop offset="0.67" stop-color="#589a28"/><stop offset="0.77" stop-color="#417f0c"/><stop offset="0.8" stop-color="#387502"/><stop offset="1" stop-color="#5d9f2d"/></linearGradient><clipPath id="clip-path" transform="translate(0 32.5)"><path class="cls-1" d="M25,81c-6.26,0-11.72-2.22-15-6.1A11.87,11.87,0,0,1,7.32,65L16,15.34c1.22-7,10.22-12.71,20-12.71H175.33c9.83,0,18.83,5.7,20,12.71L204,65a11.87,11.87,0,0,1-2.72,9.95c-3.26,3.88-8.72,6.1-15,6.1Z"/></clipPath><radialGradient id="radial-gradient" cx="1128.28" cy="86.3" r="34.89" gradientTransform="matrix(0.22, 0, 0, 1.11, -227.06, -90.31)" gradientUnits="userSpaceOnUse"><stop offset="0" stop-color="#ffdbba"/><stop offset="1" stop-color="#1c0000"/></radialGradient><radialGradient id="radial-gradient-2" cx="-3170.28" cy="-96.46" r="34.89" gradientTransform="matrix(0, -0.22, -1.11, 0, 89.82, -688.33)" gradientUnits="userSpaceOnUse"><stop offset="0" stop-color="#ffdbba"/><stop offset="1" stop-color="#400000"/></radialGradient><linearGradient id="linear-gradient-16" x1="105.68" y1="120.12" x2="105.68" y2="33.24" gradientUnits="userSpaceOnUse"><stop offset="0.05" stop-color="#eb8766"/><stop offset="0.34" stop-color="#ffbd9c"/><stop offset="1" stop-color="#ffcead"/></linearGradient><linearGradient id="linear-gradient-17" x1="105.68" y1="119.95" x2="105.68" y2="33.4" gradientUnits="userSpaceOnUse"><stop offset="0" stop-color="#db855d"/><stop offset="0.05" stop-color="#db865d"/><stop offset="0.34" stop-color="#f2bc94"/><stop offset="0.37" stop-color="#f3be96"/><stop offset="0.72" stop-color="#efc098"/><stop offset="0.8" stop-color="#edc199"/><stop offset="1" stop-color="#f0caa1"/></linearGradient><linearGradient id="linear-gradient-18" x1="105.68" y1="119.79" x2="105.68" y2="33.57" gradientUnits="userSpaceOnUse"><stop offset="0" stop-color="#ca8454"/><stop offset="0.05" stop-color="#cb8455"/><stop offset="0.34" stop-color="#e5bc8c"/><stop offset="0.37" stop-color="#e6be8e"/><stop offset="0.63" stop-color="#e2bd8d"/><stop offset="0.8" stop-color="#dbba8a"/><stop offset="1" stop-color="#e2c596"/></linearGradient><linearGradient id="linear-gradient-19" x1="105.68" y1="119.62" x2="105.68" y2="33.73" gradientUnits="userSpaceOnUse"><stop offset="0" stop-color="#ba824b"/><stop offset="0.05" stop-color="#bb834c"/><stop offset="0.34" stop-color="#d8bb84"/><stop offset="0.37" stop-color="#dabe87"/><stop offset="0.58" stop-color="#d6bb84"/><stop offset="0.78" stop-color="#cab37c"/><stop offset="0.8" stop-color="#c9b27b"/><stop offset="1" stop-color="#d3c18a"/></linearGradient><linearGradient id="linear-gradient-20" x1="105.68" y1="119.46" x2="105.68" y2="33.9" gradientUnits="userSpaceOnUse"><stop offset="0" stop-color="#aa8042"/><stop offset="0.05" stop-color="#ab8243"/><stop offset="0.34" stop-color="#cbba7c"/><stop offset="0.37" stop-color="#cebe7f"/><stop offset="0.55" stop-color="#cabb7c"/><stop offset="0.72" stop-color="#beb072"/><stop offset="0.8" stop-color="#b7aa6c"/><stop offset="1" stop-color="#c4bd7e"/></linearGradient><linearGradient id="linear-gradient-21" x1="105.68" y1="119.3" x2="105.68" y2="34.06" gradientUnits="userSpaceOnUse"><stop offset="0" stop-color="#9a7f39"/><stop offset="0.05" stop-color="#9b813a"/><stop offset="0.34" stop-color="#beba74"/><stop offset="0.37" stop-color="#c1be78"/><stop offset="0.53" stop-color="#bdba74"/><stop offset="0.69" stop-color="#b1af69"/><stop offset="0.8" stop-color="#a5a35d"/><stop offset="1" stop-color="#b5b973"/></linearGradient><linearGradient id="linear-gradient-22" x1="105.68" y1="119.13" x2="105.68" y2="34.22" gradientUnits="userSpaceOnUse"><stop offset="0" stop-color="#897d2f"/><stop offset="0.05" stop-color="#8b7f32"/><stop offset="0.34" stop-color="#b2b96c"/><stop offset="0.37" stop-color="#b5bd70"/><stop offset="0.52" stop-color="#b1b96c"/><stop offset="0.66" stop-color="#a5ae60"/><stop offset="0.8" stop-color="#929b4d"/><stop offset="1" stop-color="#a7b467"/></linearGradient><linearGradient id="linear-gradient-23" x1="105.68" y1="118.97" x2="105.68" y2="34.39" gradientUnits="userSpaceOnUse"><stop offset="0" stop-color="#797c26"/><stop offset="0.05" stop-color="#7b7e29"/><stop offset="0.34" stop-color="#a5b964"/><stop offset="0.37" stop-color="#a8bd69"/><stop offset="0.5" stop-color="#a4b965"/><stop offset="0.63" stop-color="#99ae59"/><stop offset="0.76" stop-color="#879b46"/><stop offset="0.8" stop-color="#80943e"/><stop offset="1" stop-color="#98b05c"/></linearGradient><linearGradient id="linear-gradient-24" x1="105.68" y1="118.8" x2="105.68" y2="34.55" gradientUnits="userSpaceOnUse"><stop offset="0" stop-color="#697a1d"/><stop offset="0.05" stop-color="#6b7d20"/><stop offset="0.34" stop-color="#98b85c"/><stop offset="0.37" stop-color="#9cbd61"/><stop offset="0.49" stop-color="#98b95d"/><stop offset="0.61" stop-color="#8eae51"/><stop offset="0.73" stop-color="#7c9a3e"/><stop offset="0.8" stop-color="#6e8c2f"/><stop offset="1" stop-color="#89ac50"/></linearGradient><linearGradient id="linear-gradient-25" x1="105.68" y1="118.64" x2="105.68" y2="34.72" gradientUnits="userSpaceOnUse"><stop offset="0" stop-color="#597814"/><stop offset="0.05" stop-color="#5b7c17"/><stop offset="0.34" stop-color="#8bb754"/><stop offset="0.37" stop-color="#90bd5a"/><stop offset="0.48" stop-color="#8cb956"/><stop offset="0.59" stop-color="#82ae4a"/><stop offset="0.7" stop-color="#709a37"/><stop offset="0.8" stop-color="#5c8420"/><stop offset="1" stop-color="#7aa844"/></linearGradient><linearGradient id="linear-gradient-26" x1="105.68" y1="118.47" x2="105.68" y2="34.88" gradientUnits="userSpaceOnUse"><stop offset="0" stop-color="#48770b"/><stop offset="0.05" stop-color="#4b7a0f"/><stop offset="0.34" stop-color="#7eb74c"/><stop offset="0.37" stop-color="#83bd52"/><stop offset="0.48" stop-color="#80b94e"/><stop offset="0.58" stop-color="#75ae42"/><stop offset="0.69" stop-color="#649a2f"/><stop offset="0.79" stop-color="#4c7f13"/><stop offset="0.8" stop-color="#4a7d11"/><stop offset="1" stop-color="#6ca339"/></linearGradient><linearGradient id="linear-gradient-27" x1="105.68" y1="118.31" x2="105.68" y2="35.05" xlink:href="#linear-gradient-14"/><linearGradient id="linear-gradient-28" x1="104.85" y1="101.77" x2="104.85" y2="49.77" gradientUnits="userSpaceOnUse"><stop offset="0" stop-color="#ff9b7a"/><stop offset="0.17" stop-color="#ffb796"/><stop offset="0.91" stop-color="#ffba99"/><stop offset="0.97" stop-color="#ffcead"/></linearGradient><linearGradient id="linear-gradient-29" x1="104.85" y1="101.73" x2="104.85" y2="49.82" gradientUnits="userSpaceOnUse"><stop offset="0" stop-color="#eb986f"/><stop offset="0.17" stop-color="#ebb188"/><stop offset="0.91" stop-color="#ebb48b"/><stop offset="0.97" stop-color="#ebc69d"/></linearGradient><linearGradient id="linear-gradient-30" x1="104.85" y1="101.68" x2="104.85" y2="49.87" gradientUnits="userSpaceOnUse"><stop offset="0" stop-color="#d79564"/><stop offset="0.17" stop-color="#d7ac7b"/><stop offset="0.91" stop-color="#d7ae7d"/><stop offset="0.97" stop-color="#d7be8e"/></linearGradient><linearGradient id="linear-gradient-31" x1="104.85" y1="101.63" x2="104.85" y2="49.92" gradientUnits="userSpaceOnUse"><stop offset="0" stop-color="#c39159"/><stop offset="0.17" stop-color="#c3a66d"/><stop offset="0.91" stop-color="#c3a86f"/><stop offset="0.97" stop-color="#c3b77e"/></linearGradient><linearGradient id="linear-gradient-32" x1="104.85" y1="101.58" x2="104.85" y2="49.96" gradientUnits="userSpaceOnUse"><stop offset="0" stop-color="#af8e4e"/><stop offset="0.17" stop-color="#afa05f"/><stop offset="0.91" stop-color="#afa261"/><stop offset="0.97" stop-color="#afaf6e"/></linearGradient><linearGradient id="linear-gradient-33" x1="104.85" y1="101.53" x2="104.85" y2="50.01" gradientUnits="userSpaceOnUse"><stop offset="0" stop-color="#9b8b43"/><stop offset="0.17" stop-color="#9b9a52"/><stop offset="0.91" stop-color="#9b9c53"/><stop offset="0.97" stop-color="#9ba75e"/></linearGradient><linearGradient id="linear-gradient-34" x1="104.85" y1="101.48" x2="104.85" y2="50.06" gradientUnits="userSpaceOnUse"><stop offset="0" stop-color="#868837"/><stop offset="0.17" stop-color="#869544"/><stop offset="0.91" stop-color="#869646"/><stop offset="0.97" stop-color="#869f4f"/></linearGradient><linearGradient id="linear-gradient-35" x1="104.85" y1="101.44" x2="104.85" y2="50.11" gradientUnits="userSpaceOnUse"><stop offset="0" stop-color="#72852c"/><stop offset="0.17" stop-color="#728f37"/><stop offset="0.91" stop-color="#729038"/><stop offset="0.97" stop-color="#72973f"/></linearGradient><linearGradient id="linear-gradient-36" x1="104.85" y1="101.39" x2="104.85" y2="50.16" gradientUnits="userSpaceOnUse"><stop offset="0" stop-color="#5e8221"/><stop offset="0.17" stop-color="#5e8929"/><stop offset="0.91" stop-color="#5e8a2a"/><stop offset="0.97" stop-color="#5e8f2f"/></linearGradient><linearGradient id="linear-gradient-37" x1="104.85" y1="101.34" x2="104.85" y2="50.21" gradientUnits="userSpaceOnUse"><stop offset="0" stop-color="#4a7e16"/><stop offset="0.17" stop-color="#4a831b"/><stop offset="0.91" stop-color="#4a841c"/><stop offset="0.97" stop-color="#4a881f"/></linearGradient><linearGradient id="linear-gradient-38" x1="104.85" y1="101.29" x2="104.85" y2="50.25" gradientUnits="userSpaceOnUse"><stop offset="0" stop-color="#367b0b"/><stop offset="0.17" stop-color="#367e0e"/><stop offset="0.91" stop-color="#367e0e"/><stop offset="0.97" stop-color="#368010"/></linearGradient><linearGradient id="linear-gradient-39" x1="104.83" y1="128.12" x2="104.83" y2="47.54" gradientUnits="userSpaceOnUse"><stop offset="0" stop-color="#2b8b00"/><stop offset="0.23" stop-color="#309106"/><stop offset="0.37" stop-color="#35970d"/><stop offset="0.61" stop-color="#329309"/><stop offset="0.8" stop-color="#2b8b00"/><stop offset="1" stop-color="#319208"/></linearGradient><linearGradient id="linear-gradient-40" x1="104.81" y1="127.98" x2="104.81" y2="47.64" gradientUnits="userSpaceOnUse"><stop offset="0" stop-color="#2d8601"/><stop offset="0.16" stop-color="#338c07"/><stop offset="0.37" stop-color="#429e19"/><stop offset="0.54" stop-color="#3f9a15"/><stop offset="0.72" stop-color="#348e09"/><stop offset="0.8" stop-color="#2d8601"/><stop offset="1" stop-color="#3a940f"/></linearGradient><linearGradient id="linear-gradient-41" x1="104.79" y1="127.85" x2="104.79" y2="47.73" gradientUnits="userSpaceOnUse"><stop offset="0" stop-color="#308201"/><stop offset="0.12" stop-color="#368807"/><stop offset="0.28" stop-color="#459a19"/><stop offset="0.37" stop-color="#50a626"/><stop offset="0.51" stop-color="#4da222"/><stop offset="0.65" stop-color="#429716"/><stop offset="0.79" stop-color="#318403"/><stop offset="0.8" stop-color="#308201"/><stop offset="1" stop-color="#429717"/></linearGradient><linearGradient id="linear-gradient-42" x1="104.77" y1="127.72" x2="104.77" y2="47.83" gradientUnits="userSpaceOnUse"><stop offset="0" stop-color="#337e01"/><stop offset="0.1" stop-color="#398407"/><stop offset="0.23" stop-color="#489619"/><stop offset="0.37" stop-color="#5dae32"/><stop offset="0.49" stop-color="#5aaa2e"/><stop offset="0.61" stop-color="#509f22"/><stop offset="0.73" stop-color="#3f8b0f"/><stop offset="0.8" stop-color="#337e01"/><stop offset="1" stop-color="#4b9a1e"/></linearGradient><linearGradient id="linear-gradient-43" x1="104.76" y1="127.59" x2="104.76" y2="47.93" gradientUnits="userSpaceOnUse"><stop offset="0" stop-color="#357902"/><stop offset="0.09" stop-color="#3b7f08"/><stop offset="0.21" stop-color="#4b921b"/><stop offset="0.34" stop-color="#65af38"/><stop offset="0.37" stop-color="#6ab53e"/><stop offset="0.48" stop-color="#67b13a"/><stop offset="0.59" stop-color="#5ca52e"/><stop offset="0.7" stop-color="#4b921b"/><stop offset="0.8" stop-color="#357902"/><stop offset="1" stop-color="#549c25"/></linearGradient><linearGradient id="linear-gradient-44" x1="104.74" y1="127.45" x2="104.74" y2="48.03" xlink:href="#linear-gradient-14"/></defs><title>big-tub</title><g class="cls-2"><g id="Layer_1" data-name="Layer 1"><path class="cls-3" d="M7.43,76.39l7,50.79h0a16.87,16.87,0,0,0,16.38,12.07H180.54a16.87,16.87,0,0,0,16.38-12.07h0l7-50.79Z" transform="translate(0 32.5)"/><path class="cls-4" d="M7.43,76.39l7,50.68h0a16.86,16.86,0,0,0,16.38,12H180.54a16.86,16.86,0,0,0,16.38-12h0l7-50.68Z" transform="translate(0 32.5)"/><path class="cls-5" d="M7.43,76.39l7,50.57h0a16.85,16.85,0,0,0,16.38,12H180.54a16.85,16.85,0,0,0,16.38-12h0l7-50.57Z" transform="translate(0 32.5)"/><path class="cls-6" d="M7.43,76.39l7,50.47h0a16.84,16.84,0,0,0,16.38,11.89H180.54a16.84,16.84,0,0,0,16.38-11.89h0l7-50.47Z" transform="translate(0 32.5)"/><path class="cls-7" d="M7.43,76.39l7,50.36h0a16.83,16.83,0,0,0,16.38,11.84H180.54a16.83,16.83,0,0,0,16.38-11.84h0l7-50.36Z" transform="translate(0 32.5)"/><path class="cls-8" d="M7.43,76.39l7,50.26h0a16.82,16.82,0,0,0,16.38,11.78H180.54a16.82,16.82,0,0,0,16.38-11.78h0l7-50.26Z" transform="translate(0 32.5)"/><path class="cls-9" d="M7.43,76.39l7,50.15h0a16.81,16.81,0,0,0,16.38,11.72H180.54a16.81,16.81,0,0,0,16.38-11.72h0l7-50.15Z" transform="translate(0 32.5)"/><path class="cls-10" d="M7.43,76.39l7,50h0A16.81,16.81,0,0,0,30.81,138.1H180.54a16.81,16.81,0,0,0,16.38-11.67h0l7-50Z" transform="translate(0 32.5)"/><path class="cls-11" d="M7.43,76.39l7,49.94h0a16.8,16.8,0,0,0,16.38,11.61H180.54a16.8,16.8,0,0,0,16.38-11.61h0l7-49.94Z" transform="translate(0 32.5)"/><path class="cls-12" d="M7.43,76.39l7,49.84h0a16.79,16.79,0,0,0,16.38,11.55H180.54a16.79,16.79,0,0,0,16.38-11.55h0l7-49.84Z" transform="translate(0 32.5)"/><path class="cls-13" d="M7.43,76.39l7,49.73h0a16.79,16.79,0,0,0,16.38,11.5H180.54a16.79,16.79,0,0,0,16.38-11.5h0l7-49.73Z" transform="translate(0 32.5)"/><path class="cls-14" d="M7.43,76.39l7,49.63h0a16.78,16.78,0,0,0,16.38,11.44H180.54A16.78,16.78,0,0,0,196.92,126h0l7-49.63Z" transform="translate(0 32.5)"/><path class="cls-15" d="M7.43,81.65,12,88.78c2.22,2.26,8.42,3.86,16.38,3.86H180.54c8,0,14.16-1.6,16.38-3.86l7-7.13Z" transform="translate(0 32.5)"/><path class="cls-16" d="M7.43,81.65l4.61,7c2.22,2.23,8.42,3.8,16.38,3.8H180.54c8,0,14.16-1.57,16.38-3.8l7-7Z" transform="translate(0 32.5)"/><path class="cls-17" d="M7.43,81.65,12,88.55c2.22,2.19,8.42,3.74,16.38,3.74H180.54c8,0,14.16-1.55,16.38-3.74l7-6.91Z" transform="translate(0 32.5)"/><path class="cls-18" d="M7.43,81.65,12,88.44c2.22,2.15,8.42,3.67,16.38,3.67H180.54c8,0,14.16-1.52,16.38-3.67l7-6.79Z" transform="translate(0 32.5)"/><path class="cls-19" d="M7.43,81.65,12,88.32c2.22,2.12,8.42,3.61,16.38,3.61H180.54c8,0,14.16-1.5,16.38-3.61l7-6.68Z" transform="translate(0 32.5)"/><path class="cls-20" d="M7.43,81.65,12,88.21c2.22,2.08,8.42,3.55,16.38,3.55H180.54c8,0,14.16-1.47,16.38-3.55l7-6.56Z" transform="translate(0 32.5)"/><path class="cls-21" d="M7.43,81.65,12,88.1c2.22,2,8.42,3.49,16.38,3.49H180.54c8,0,14.16-1.44,16.38-3.49l7-6.45Z" transform="translate(0 32.5)"/><path class="cls-22" d="M7.43,81.65,12,88c2.22,2,8.42,3.43,16.38,3.43H180.54c8,0,14.16-1.42,16.38-3.43l7-6.34Z" transform="translate(0 32.5)"/><path class="cls-23" d="M7.43,81.65,12,87.87c2.22,2,8.42,3.37,16.38,3.37H180.54c8,0,14.16-1.39,16.38-3.37l7-6.22Z" transform="translate(0 32.5)"/><path class="cls-24" d="M7.43,81.65,12,87.76c2.22,1.94,8.42,3.31,16.38,3.31H180.54c8,0,14.16-1.37,16.38-3.31l7-6.11Z" transform="translate(0 32.5)"/><path class="cls-25" d="M7.43,81.65l4.61,6c2.22,1.9,8.42,3.24,16.38,3.24H180.54c8,0,14.16-1.34,16.38-3.24l7-6Z" transform="translate(0 32.5)"/><path class="cls-26" d="M7.43,81.65,12,87.53c2.22,1.86,8.42,3.18,16.38,3.18H180.54c8,0,14.16-1.32,16.38-3.18l7-5.88Z" transform="translate(0 32.5)"/><path class="cls-27" d="M208.75,65.57l-8.66-49.09C198.46,7.24,187.58,0,175.33,0H36C23.77,0,12.9,7.24,11.27,16.49L.2,79.92a6.74,6.74,0,0,0-.05,2h0l.39,3h0a5.75,5.75,0,0,0,6,5H186c7.65,0,14.42-2.8,18.57-7.69a16.53,16.53,0,0,0,3.87-8.64h0l.39-3h0A16.63,16.63,0,0,0,208.75,65.57Z" transform="translate(0 32.5)"/><path class="cls-28" d="M.11,79.92,11.17,16.49C12.8,7.24,23.68,0,35.93,0H175.24C187.49,0,198.36,7.24,200,16.49l8.66,49.09a16.42,16.42,0,0,1-3.77,13.69c-4.17,4.9-11,7.72-18.64,7.72H6A5.82,5.82,0,0,1,.11,79.92Z" transform="translate(0 32.5)"/><path class="cls-29" d="M6.14,86.27A5.3,5.3,0,0,1,2,84.45,5.3,5.3,0,0,1,.91,80L12,16.61C13.55,7.7,24.11.72,36,.72H175.33c11.91,0,22.48,7,24.05,15.9L208,65.7a15.71,15.71,0,0,1-3.61,13.1c-4,4.74-10.63,7.46-18.09,7.46Z" transform="translate(0 32.5)"/><path class="cls-30" d="M1.78,82.59l11-64.32c1.56-9,12-16.12,23.85-16.12H174.73c11.81,0,22.29,7.08,23.85,16.12L207.17,68a16.29,16.29,0,0,1-.27,6.9A15.6,15.6,0,0,0,208,65.7l-8.66-49.09C197.81,7.7,187.25.72,175.33.72H36C24.11.72,13.55,7.7,12,16.61L.91,80a5.38,5.38,0,0,0,.79,4A6.39,6.39,0,0,1,1.78,82.59Z" transform="translate(0 32.5)"/><path class="cls-31" d="M204.94,67.12h0a13.27,13.27,0,0,0-.2-2.28l-8.66-49.62c-1.3-7.43-10.57-13.31-20.76-13.31H36c-10.18,0-19.46,5.87-20.76,13.31L6.61,64.84a13.26,13.26,0,0,0-.2,2.28h0v3.58h0c0,8.16,7.8,14.6,18.6,14.6H186.34c10.8,0,18.6-6.45,18.6-14.6h0Z" transform="translate(0 32.5)"/><path class="cls-32" d="M204.74,64.84c1.6,9.2-6.61,16.88-18.4,16.88H25C13.23,81.73,5,74,6.61,64.84l8.66-49.62C16.57,7.78,25.84,1.91,36,1.91H175.33c10.18,0,19.46,5.87,20.76,13.31Z" transform="translate(0 32.5)"/><path class="cls-33" d="M36,2.63c-9.83,0-18.83,5.7-20,12.71L7.32,65A11.87,11.87,0,0,0,10,74.91c3.26,3.88,8.72,6.1,15,6.1h80.66V2.63Z" transform="translate(0 32.5)"/><path class="cls-33" d="M204,65l-8.66-49.62c-1.22-7-10.22-12.71-20-12.71H105.68V81h80.66c6.26,0,11.72-2.22,15-6.1A11.87,11.87,0,0,0,204,65Z" transform="translate(0 32.5)"/><g class="cls-34"><ellipse class="cls-35" cx="19.82" cy="5.36" rx="7.63" ry="38.69" transform="translate(-0.68 36.79) rotate(-12.15)"/><ellipse class="cls-36" cx="196.65" cy="5.36" rx="38.69" ry="7.63" transform="translate(150.02 228.98) rotate(-77.85)"/><path class="cls-37" d="M197.76,101.74c1.48,10-6.59,18.38-17.49,18.38H31.09c-10.9,0-19-8.36-17.49-18.38l8.48-54c1.2-8.09,9.78-14.48,19.19-14.48H170.09c9.42,0,18,6.39,19.19,14.48Z" transform="translate(0 32.5)"/><path class="cls-38" d="M197.44,101.64c1.48,10-6.52,18.31-17.39,18.31H31.31c-10.87,0-18.87-8.33-17.39-18.31l8.41-53.81c1.2-8.06,9.75-14.43,19.13-14.43H169.89c9.39,0,17.94,6.37,19.14,14.43Z" transform="translate(0 32.5)"/><path class="cls-39" d="M197.12,101.55c1.48,9.94-6.46,18.24-17.3,18.24H31.54c-10.84,0-18.78-8.3-17.3-18.24l8.34-53.61c1.19-8,9.72-14.37,19.08-14.37h128c9.36,0,17.88,6.34,19.08,14.37Z" transform="translate(0 32.5)"/><path class="cls-40" d="M196.8,101.45c1.47,9.9-6.4,18.17-17.21,18.17H31.77c-10.8,0-18.68-8.27-17.21-18.17L22.84,48c1.19-8,9.69-14.32,19-14.32H169.5c9.33,0,17.83,6.32,19,14.32Z" transform="translate(0 32.5)"/><path class="cls-41" d="M196.47,101.36c1.47,9.86-6.34,18.1-17.11,18.1H32c-10.77,0-18.58-8.24-17.11-18.1l8.21-53.2c1.18-8,9.66-14.26,19-14.26H169.31c9.3,0,17.78,6.29,19,14.26Z" transform="translate(0 32.5)"/><path class="cls-42" d="M196.15,101.26c1.46,9.83-6.28,18-17,18H32.22c-10.74,0-18.48-8.2-17-18l8.14-53c1.18-7.94,9.63-14.21,18.9-14.21H169.11c9.27,0,17.72,6.27,18.9,14.21Z" transform="translate(0 32.5)"/><path class="cls-43" d="M195.83,101.17c1.46,9.79-6.22,18-16.92,18H32.45c-10.7,0-18.38-8.17-16.92-18L23.6,48.38c1.18-7.91,9.6-14.15,18.84-14.15H168.92c9.24,0,17.67,6.25,18.84,14.15Z" transform="translate(0 32.5)"/><path class="cls-44" d="M195.51,101.08C197,110.83,189.36,119,178.69,119h-146c-10.67,0-18.28-8.14-16.83-17.89l8-52.59c1.17-7.88,9.57-14.1,18.79-14.1H168.72c9.22,0,17.61,6.22,18.79,14.1Z" transform="translate(0 32.5)"/><path class="cls-45" d="M195.19,101c1.45,9.71-6.09,17.82-16.73,17.82H32.9c-10.64,0-18.18-8.11-16.73-17.82L24.1,48.6c1.17-7.85,9.54-14,18.73-14H168.53c9.19,0,17.56,6.2,18.73,14Z" transform="translate(0 32.5)"/><path class="cls-46" d="M194.87,100.89c1.44,9.68-6,17.75-16.64,17.75H33.12c-10.61,0-18.08-8.08-16.64-17.75l7.87-52.18c1.17-7.82,9.51-14,18.67-14h125.3c9.16,0,17.5,6.17,18.67,14Z" transform="translate(0 32.5)"/><path class="cls-47" d="M194.55,100.79c1.44,9.64-6,17.68-16.54,17.68H33.35c-10.57,0-18-8-16.54-17.68l7.8-52C25.77,41,34.09,34.88,43.22,34.88H168.13c9.13,0,17.45,6.15,18.61,13.93Z" transform="translate(0 32.5)"/><path class="cls-48" d="M194.23,100.7c1.43,9.6-5.91,17.61-16.45,17.61H33.58c-10.54,0-17.88-8-16.45-17.61l7.74-51.77C26,41.17,34.32,35,43.42,35H167.94c9.1,0,17.39,6.13,18.55,13.88Z" transform="translate(0 32.5)"/><path class="cls-49" d="M173.88,96.36c.27,3-3.45,5.41-6.84,5.41H42.67c-3.4,0-7.12-2.43-6.84-5.41l5-41.84c.24-2.63,3-4.75,6.16-4.75H162.69c3.16,0,5.92,2.12,6.16,4.75Z" transform="translate(0 32.5)"/><path class="cls-50" d="M173.74,96.32c.27,3-3.38,5.4-6.77,5.4H42.74c-3.39,0-7-2.43-6.77-5.4l5-41.76c.24-2.63,3-4.74,6.13-4.74H162.63c3.16,0,5.89,2.12,6.13,4.74Z" transform="translate(0 32.5)"/><path class="cls-51" d="M173.6,96.28c.27,3-3.31,5.39-6.7,5.39H42.81c-3.39,0-7-2.42-6.7-5.39L41,54.6c.24-2.62,2.95-4.73,6.1-4.73H162.57c3.15,0,5.86,2.11,6.1,4.73Z" transform="translate(0 32.5)"/><path class="cls-52" d="M173.46,96.24c.27,3-3.24,5.38-6.63,5.38H42.88c-3.39,0-6.9-2.42-6.63-5.38l4.88-41.6c.24-2.62,2.92-4.73,6.08-4.73H162.5c3.15,0,5.83,2.11,6.08,4.73Z" transform="translate(0 32.5)"/><path class="cls-53" d="M173.32,96.21c.27,3-3.18,5.37-6.56,5.37H42.95c-3.38,0-6.83-2.42-6.56-5.37l4.83-41.53c.24-2.61,2.9-4.72,6-4.72H162.44c3.15,0,5.81,2.1,6,4.72Z" transform="translate(0 32.5)"/><path class="cls-54" d="M173.18,96.17c.27,3-3.11,5.36-6.49,5.36H43c-3.38,0-6.76-2.41-6.49-5.36l4.79-41.45c.24-2.61,2.88-4.71,6-4.71h115c3.14,0,5.78,2.1,6,4.71Z" transform="translate(0 32.5)"/><path class="cls-55" d="M173,96.13c.27,2.95-3,5.35-6.42,5.35H43.08c-3.38,0-6.69-2.41-6.42-5.35L41.4,54.76c.24-2.6,2.85-4.7,6-4.7H162.31c3.14,0,5.75,2.1,6,4.7Z" transform="translate(0 32.5)"/><path class="cls-56" d="M172.9,96.09c.27,2.94-3,5.34-6.35,5.34H43.15c-3.37,0-6.62-2.4-6.35-5.34L41.49,54.8c.24-2.6,2.83-4.69,6-4.69H162.25c3.14,0,5.72,2.09,6,4.69Z" transform="translate(0 32.5)"/><path class="cls-57" d="M172.76,96.05c.27,2.94-2.91,5.33-6.27,5.33H43.22c-3.37,0-6.55-2.4-6.27-5.33l4.64-41.21c.24-2.59,2.8-4.68,5.93-4.68H162.19c3.13,0,5.7,2.09,5.93,4.68Z" transform="translate(0 32.5)"/><path class="cls-58" d="M172.62,96c.27,2.93-2.84,5.32-6.2,5.32H43.29c-3.37,0-6.47-2.39-6.2-5.32l4.59-41.14c.24-2.59,2.78-4.67,5.91-4.67H162.12c3.13,0,5.67,2.08,5.91,4.67Z" transform="translate(0 32.5)"/><path class="cls-59" d="M172.48,96c.27,2.92-2.77,5.31-6.13,5.31h-123C40,101.29,37,98.9,37.22,96l4.55-41.06c.24-2.58,2.75-4.66,5.88-4.66H162.06c3.13,0,5.64,2.08,5.88,4.66Z" transform="translate(0 32.5)"/><path class="cls-60" d="M172.34,95.94c.27,2.92-2.7,5.3-6.06,5.3H43.42c-3.36,0-6.33-2.38-6.06-5.3l4.5-41c.24-2.58,2.73-4.65,5.85-4.65H162c3.12,0,5.61,2.08,5.85,4.65Z" transform="translate(0 32.5)"/><path class="cls-61" d="M43.42,98.4a3.41,3.41,0,0,1-2.64-1.06,1.47,1.47,0,0,1-.37-1.11l3.79-41c.08-.86,1.48-2.1,3.51-2.1H162c2,0,3.43,1.24,3.51,2.1l3.79,41a1.47,1.47,0,0,1-.37,1.11,3.41,3.41,0,0,1-2.64,1.06Z" transform="translate(0 32.5)"/><path class="cls-29" d="M41.83,96.29l4-41.35a2.1,2.1,0,0,1,1.88-.84H162a2.1,2.1,0,0,1,1.88.84l4,41.35h0C167.65,96.57,41.83,96.29,41.83,96.29Z" transform="translate(0 32.5)"/><path class="cls-62" d="M45.93,55a2,2,0,0,1,1.84-.8H161.94a2.1,2.1,0,0,1,1.87.8l3.92,41.29h0c-.19.23-125.81,0-125.81,0Z" transform="translate(0 32.5)"/><path class="cls-63" d="M46,55a1.92,1.92,0,0,1,1.79-.76H161.88a2.11,2.11,0,0,1,1.87.76l3.84,41.24h0c-.15.19-125.56,0-125.56,0Z" transform="translate(0 32.5)"/><path class="cls-64" d="M46.13,55c.18-.26.56-.71,1.75-.71H161.82a2.12,2.12,0,0,1,1.87.71l3.76,41.18h0c-.11.14-125.32,0-125.32,0Z" transform="translate(0 32.5)"/><path class="cls-65" d="M46.23,55.08c.18-.26.52-.67,1.71-.67H161.76c1.2,0,1.69.41,1.87.67l3.68,41.12h0c-.08.09-125.07,0-125.07,0Z" transform="translate(0 32.5)"/><path class="cls-66" d="M46.33,55.11c.18-.26.47-.62,1.67-.62H161.71c1.19,0,1.69.36,1.87.62l3.6,41.07h0s-124.83,0-124.83,0Z" transform="translate(0 32.5)"/><path class="cls-67" d="M42.44,96.16l4-41c.18-.26.43-.58,1.63-.58H161.65c1.19,0,1.69.32,1.86.58l3.51,41Z" transform="translate(0 32.5)"/><path class="cls-68" d="M203.8,73.91,195.15,23c-1.2-7.08-10.09-12.85-19.81-12.85H36c-9.72,0-18.61,5.76-19.81,12.85L7.56,73.91a12.17,12.17,0,0,0,2.66,10c3.21,3.92,8.61,6.17,14.8,6.17H186.34c6.19,0,11.58-2.25,14.8-6.17A12.17,12.17,0,0,0,203.8,73.91Zm-3,9.7c-3.12,3.81-8.38,6-14.43,6H25c-6,0-11.31-2.19-14.43-6A11.7,11.7,0,0,1,8,74L16.68,23C17.85,16.18,26.53,10.6,36,10.6H175.33c9.5,0,18.18,5.58,19.34,12.44L203.33,74A11.7,11.7,0,0,1,200.77,83.61Z" transform="translate(0 32.5)"/></g></g></g></svg>