<svg id="Layer_1" data-name="Layer 1" xmlns="http://www.w3.org/2000/svg" xmlns:xlink="http://www.w3.org/1999/xlink" viewBox="0 0 116.91 148.28"><defs><style>.cls-1{fill:url(#linear-gradient);}.cls-2{fill:url(#linear-gradient-2);}.cls-3{fill:url(#linear-gradient-3);}.cls-4{fill:url(#linear-gradient-4);}</style><linearGradient id="linear-gradient" x1="1274.55" y1="188.92" x2="1391.25" y2="188.92" gradientTransform="translate(-1274.55 -110.38)" gradientUnits="userSpaceOnUse"><stop offset="0" stop-color="#77bd4b"/><stop offset="0.15" stop-color="#71b644"/><stop offset="0.36" stop-color="#60a330"/><stop offset="0.61" stop-color="#448310"/><stop offset="0.71" stop-color="#387502"/><stop offset="0.79" stop-color="#3d7a08"/><stop offset="0.9" stop-color="#4b8a18"/><stop offset="1" stop-color="#5d9f2d"/></linearGradient><linearGradient id="linear-gradient-2" x1="1283.51" y1="189.39" x2="1322.01" y2="189.39" gradientTransform="translate(-1274.55 -110.38)" gradientUnits="userSpaceOnUse"><stop offset="0" stop-color="#f2f9ee"/><stop offset="0.09" stop-color="#e1f1d7"/><stop offset="0.31" stop-color="#bbdea5"/><stop offset="0.52" stop-color="#9ed07e"/><stop offset="0.71" stop-color="#88c662"/><stop offset="0.88" stop-color="#7cbf51"/><stop offset="1" stop-color="#77bd4b"/></linearGradient><linearGradient id="linear-gradient-3" x1="-2349.67" y1="632.19" x2="-2232.37" y2="632.19" gradientTransform="matrix(-0.99, 0, 0, -1.02, -2219.4, 653)" gradientUnits="userSpaceOnUse"><stop offset="0.01" stop-color="#458411"/><stop offset="1" stop-color="#a2d284"/></linearGradient><linearGradient id="linear-gradient-4" x1="1276.43" y1="118.76" x2="1390.03" y2="118.76" gradientTransform="translate(-1274.55 -110.38)" gradientUnits="userSpaceOnUse"><stop offset="0.01" stop-color="#387502"/><stop offset="1" stop-color="#77bd4b"/></linearGradient></defs><title>big-glass</title><path class="cls-1" d="M0,8.8C12.53,11,52.22,11.86,58.35,12c6.13-.12,45.82-1,58.35-3.18,0,0-3.2,100.71-22.38,131.89,0,0-11.48,7.26-35.17,7.58v0h-1.6v0c-23.69-.32-35.17-7.58-35.17-7.58C3.2,109.51,0,8.8,0,8.8Z"/><path class="cls-2" d="M38.83,16.11S27.21,116,47.45,145.19c0,0-6.3,1-18.91-4.31,0,0-17.92-41.48-19.58-128.09C8.95,12.22,34.84,18.76,38.83,16.11Z"/><ellipse class="cls-3" cx="58.6" cy="8.77" rx="58.32" ry="8.76" transform="translate(-0.06 0.41) rotate(-0.4)"/><ellipse class="cls-4" cx="58.68" cy="8.39" rx="56.8" ry="7.06"/></svg>