<svg id="Layer_1" data-name="Layer 1" xmlns="http://www.w3.org/2000/svg" xmlns:xlink="http://www.w3.org/1999/xlink" viewBox="0 0 207.91 158.36"><defs><style>.cls-1{fill:url(#linear-gradient);}.cls-2{fill:url(#linear-gradient-2);}.cls-3{fill:url(#linear-gradient-3);}.cls-4{fill:url(#linear-gradient-4);}.cls-5{fill:url(#linear-gradient-5);}.cls-6{fill:url(#linear-gradient-6);}.cls-7{fill:url(#linear-gradient-7);}.cls-8{fill:url(#linear-gradient-8);}.cls-9{fill:url(#linear-gradient-9);}.cls-10{fill:url(#linear-gradient-10);}</style><linearGradient id="linear-gradient" x1="-465.16" y1="-639.25" x2="-464.01" y2="-544.92" gradientTransform="translate(645.23 655.04)" gradientUnits="userSpaceOnUse"><stop offset="0" stop-color="#77bd4b"/><stop offset="0.2" stop-color="#74b947"/><stop offset="0.4" stop-color="#69ae3b"/><stop offset="0.6" stop-color="#589a28"/><stop offset="0.79" stop-color="#417f0c"/><stop offset="0.81" stop-color="#3e7c09"/></linearGradient><linearGradient id="linear-gradient-2" x1="-436.67" y1="-574.98" x2="-470.7" y2="-590.81" gradientTransform="translate(645.23 655.04)" gradientUnits="userSpaceOnUse"><stop offset="0" stop-color="#f2f9ee"/><stop offset="0.09" stop-color="#e1f1d7"/><stop offset="0.31" stop-color="#bbdea5"/><stop offset="0.52" stop-color="#9ed07e"/><stop offset="0.71" stop-color="#88c662"/><stop offset="0.88" stop-color="#7cbf51"/><stop offset="1" stop-color="#77bd4b"/></linearGradient><linearGradient id="linear-gradient-3" x1="-645.23" y1="-639.01" x2="-594.64" y2="-639.01" xlink:href="#linear-gradient"/><linearGradient id="linear-gradient-4" x1="-645.23" y1="-639.01" x2="-594.64" y2="-639.01" xlink:href="#linear-gradient-2"/><linearGradient id="linear-gradient-5" x1="689.24" y1="-87.61" x2="723.67" y2="-87.61" gradientTransform="matrix(-0.71, -0.71, -0.71, 0.71, 465.7, 580.68)" gradientUnits="userSpaceOnUse"><stop offset="0.19" stop-color="#3e7c09"/><stop offset="0.21" stop-color="#417f0c"/><stop offset="0.4" stop-color="#589a28"/><stop offset="0.6" stop-color="#69ae3b"/><stop offset="0.8" stop-color="#74b947"/><stop offset="1" stop-color="#77bd4b"/></linearGradient><linearGradient id="linear-gradient-6" x1="-590.47" y1="-568.7" x2="-486.91" y2="-567.65" gradientTransform="translate(645.23 655.04)" gradientUnits="userSpaceOnUse"><stop offset="0" stop-color="#77bd4b"/><stop offset="0.15" stop-color="#71b644"/><stop offset="0.36" stop-color="#60a330"/><stop offset="0.61" stop-color="#448310"/><stop offset="0.71" stop-color="#387502"/><stop offset="0.79" stop-color="#3d7a08"/><stop offset="0.9" stop-color="#4b8a18"/><stop offset="1" stop-color="#5d9f2d"/></linearGradient><linearGradient id="linear-gradient-7" x1="-579.52" y1="-567.44" x2="-562.9" y2="-567.44" xlink:href="#linear-gradient-2"/><linearGradient id="linear-gradient-8" x1="-645.76" y1="-597.84" x2="-595.85" y2="-597.84" xlink:href="#linear-gradient-6"/><linearGradient id="linear-gradient-9" x1="-469.7" y1="-639.01" x2="-604.3" y2="-639.01" gradientTransform="translate(645.23 655.04)" gradientUnits="userSpaceOnUse"><stop offset="0.01" stop-color="#458411"/><stop offset="1" stop-color="#a2d284"/></linearGradient><linearGradient id="linear-gradient-10" x1="-591.01" y1="-653.24" x2="-489.25" y2="-626.44" gradientTransform="translate(645.23 655.04)" xlink:href="#linear-gradient-5"/></defs><title>big-mug</title><path class="cls-1" d="M175.34,16l-4,16S214,23.22,188.93,58.58c0,0-28.23,35.42-32.59,37.8l-2.75,14.08S237.11,34.24,197,18.8C197,18.8,185.11,14.84,175.34,16Z"/><path class="cls-2" d="M175.34,16l-4,16S214,23.22,188.93,58.58c0,0-28.23,35.42-32.59,37.8l-2.75,14.08S237.11,34.24,197,18.8C197,18.8,185.11,14.84,175.34,16Z"/><path class="cls-3" d="M49.1,8.31,0,23l47.89.79S53.06,18,49.1,8.31Z"/><path class="cls-4" d="M49.1,8.31,0,23l47.89.79S53.06,18,49.1,8.31Z"/><path class="cls-5" d="M49.1,8.31,0,23l47.89.79S53.06,18,49.1,8.31Z"/><path class="cls-6" d="M175.74,16,145.26,148s-1.45,6.46-11.87,7c0,0-34,7.92-57.26-.66,0,0-7.92-1.19-9.1-12.53L41,17.5Z"/><path class="cls-7" d="M86.18,108.47C82,78.5,80.71,48.14,80,17.91c0-.32,0-.64,0-1l-18.61.2c0,2.29-.09,4.58-.11,6.87-.08,9.13.56,18.21,1.34,27.31,2.63,30.91,7.72,61.68,16.72,91.41q2.14,7.06,4.67,13.89a9.11,9.11,0,0,1,1,.24,10.66,10.66,0,0,1,1.83.22,64.23,64.23,0,0,0,9,1.17l1.27,0A313.48,313.48,0,0,1,86.18,108.47Z"/><path class="cls-8" d="M0,23,56.29,91.44S63.86,45.39,47.5,23Z"/><ellipse class="cls-9" cx="108.25" cy="16.03" rx="67.49" ry="16.03"/><path class="cls-10" d="M108.25,30.48c-17.91,0-34.72-1.65-47.35-4.65C47.22,22.58,42.35,18.64,42.35,16S47.22,9.48,60.9,6.24c12.63-3,29.45-4.65,47.35-4.65S143,3.24,155.61,6.24c13.68,3.25,18.55,7.19,18.55,9.79s-4.87,6.55-18.55,9.79C143,28.83,126.16,30.48,108.25,30.48Z"/></svg>