<svg id="Layer_1" data-name="Layer 1" xmlns="http://www.w3.org/2000/svg" xmlns:xlink="http://www.w3.org/1999/xlink" viewBox="0 0 101.71 163.17"><defs><style>.cls-1{fill:url(#linear-gradient);}.cls-2{fill:url(#radial-gradient);}.cls-3{fill:url(#linear-gradient-2);}.cls-4{fill:url(#linear-gradient-3);}.cls-5{fill:url(#linear-gradient-4);}.cls-6{fill:url(#linear-gradient-5);}.cls-7{fill:#fff;opacity:0.3;}.cls-8{fill:url(#linear-gradient-6);}</style><linearGradient id="linear-gradient" y1="81.58" x2="101.71" y2="81.58" gradientUnits="userSpaceOnUse"><stop offset="0" stop-color="#77bd4b"/><stop offset="0.15" stop-color="#71b644"/><stop offset="0.36" stop-color="#60a330"/><stop offset="0.61" stop-color="#448310"/><stop offset="0.71" stop-color="#387502"/><stop offset="0.79" stop-color="#3d7a08"/><stop offset="0.9" stop-color="#4b8a18"/><stop offset="1" stop-color="#5d9f2d"/></linearGradient><radialGradient id="radial-gradient" cx="58.56" cy="74.06" r="82.63" gradientUnits="userSpaceOnUse"><stop offset="0" stop-color="#77bd4b"/><stop offset="0.21" stop-color="#71b644"/><stop offset="0.51" stop-color="#60a330"/><stop offset="0.87" stop-color="#448310"/><stop offset="1" stop-color="#387502"/></radialGradient><linearGradient id="linear-gradient-2" x1="1.65" y1="54.56" x2="70.75" y2="71.83" gradientUnits="userSpaceOnUse"><stop offset="0" stop-color="#f2f9ee"/><stop offset="0.09" stop-color="#e1f1d7"/><stop offset="0.31" stop-color="#bbdea5"/><stop offset="0.52" stop-color="#9ed07e"/><stop offset="0.71" stop-color="#88c662"/><stop offset="0.88" stop-color="#7cbf51"/><stop offset="1" stop-color="#77bd4b"/></linearGradient><linearGradient id="linear-gradient-3" x1="130.35" y1="129.63" x2="52.23" y2="129.9" xlink:href="#linear-gradient-2"/><linearGradient id="linear-gradient-4" x1="2.34" y1="51.8" x2="71.44" y2="69.07" xlink:href="#linear-gradient-2"/><linearGradient id="linear-gradient-5" x1="0.98" y1="57.26" x2="70.07" y2="74.53" xlink:href="#linear-gradient-2"/><linearGradient id="linear-gradient-6" x1="37.84" y1="7.14" x2="49.08" y2="7.14" xlink:href="#linear-gradient-2"/></defs><title>big-container</title><path class="cls-1" d="M99,70.58h0l0-.15q-.24-1-.5-1.94l-.06-.2q-.83-3-1.85-5.95l-.07-.21q-.33-.93-.68-1.84l-.1-.25q-1.08-2.8-2.33-5.44l-.11-.23q-.39-.81-.79-1.6l-.22-.43Q91,49.93,89.6,47.66l-.23-.38c-.27-.43-.54-.86-.82-1.28l-.41-.61c-.27-.4-.54-.8-.82-1.19l-.43-.59q-.73-1-1.48-2l-.55-.7L84.11,40l-.66-.77-.75-.85-.78-.84-.67-.72q-.69-.71-1.39-1.38l-.65-.6L78.26,34l-.68-.58-1.05-.86L76,32.09q-.79-.61-1.6-1.19l-.49-.34q-.61-.42-1.24-.82L72,29.36l-1.24-.74-.53-.3c-.59-.32-1.18-.64-1.77-.93l-.28-.13q-.77-.37-1.55-.71l-.58-.24-1.35-.52-.56-.21c-.63-.22-1.26-.43-1.89-.61v-9.7c1.14-1.14,5.66-5.93,5.12-9.91C66.8,1,62.06,0,61.8,0h-22c-.2,0-4.93.95-5.52,5.36-.53,4,4,8.77,5.12,9.91V25c-.63.18-1.26.39-1.89.61l-.57.21-1.34.52-.59.25q-.77.33-1.52.69l-.31.14c-.59.29-1.18.6-1.76.92l-.56.32-1.21.72-.64.4c-.4.26-.8.52-1.19.79l-.53.37q-.8.57-1.58,1.17l-.62.5-1,.81-.72.62-.88.79-.71.66c-.39.38-.78.76-1.17,1.16s-.64.66-.95,1l-.69.74-.81.92-.58.68-.84,1-.37.47q-.89,1.13-1.75,2.33l-.29.4c-.3.43-.59.86-.88,1.29l-.32.48c-.3.46-.6.92-.89,1.39l-.1.16q-1.49,2.4-2.82,5l-.12.23A90.14,90.14,0,0,0,0,93.36c0,38.49,22.16,69.81,49.39,69.81.5,0,1,0,1.46-.07s1,.07,1.46.07c27.24,0,49.39-31.32,49.39-69.81A95.83,95.83,0,0,0,99,70.58ZM52.27,160.67c-.49,0-1,0-1.42-.06s-.93.06-1.42.06c-26.56,0-48.17-30.54-48.17-68.08a87.39,87.39,0,0,1,3.27-23.8c6-3.84,24.44-6.64,46.33-6.64s40.36,2.8,46.32,6.64a87.38,87.38,0,0,1,3.27,23.8C100.45,130.13,78.84,160.67,52.27,160.67Z"/><path class="cls-2" d="M99.21,71.49h0q-.11-1-.22-1.9a9.53,9.53,0,0,0-.87-2.28C92.32,47,80,31.48,64.77,25.87a5.13,5.13,0,0,1-2.19.48,5.08,5.08,0,0,1-2.93-.9c-5.15-1.47-12.06-1-17.26-.09a5.12,5.12,0,0,1-1.5.49,5.18,5.18,0,0,1-3.79,0C21.84,31.38,9.4,46.95,3.58,67.31a9.53,9.53,0,0,0-.87,2.28q-.11,1-.22,1.9h0A96.16,96.16,0,0,0,0,93.36c0,38.49,22.16,69.81,49.39,69.81.5,0,1,0,1.46-.07s1,.07,1.46.07c27.24,0,49.39-31.32,49.39-69.81A96,96,0,0,0,99.21,71.49Z"/><path class="cls-3" d="M40.95,29.57C19.38,36.25,5.11,60.21,4,90,8.87,61.33,24.94,38.75,40.95,29.57Z"/><path class="cls-4" d="M56.05,157.31c21.92-3.67,37.78-25.53,41-55C90.17,130.13,72.61,150.39,56.05,157.31Z"/><ellipse class="cls-5" cx="29.48" cy="58.58" rx="4.27" ry="6.03"/><ellipse class="cls-6" cx="34.32" cy="65.59" rx="1.87" ry="2.65"/><path class="cls-7" d="M66.62,6.67c0,4.92-4.65,8.42-16.37,8.42-10.54,0-15.3-4-15.3-8.9C35,0,41.68.86,50.55.86S66.62-.65,66.62,6.67Z"/><path class="cls-8" d="M49.08,7c0,1.45-2.52,2.09-5.62,2s-5.62-1.1-5.62-3c0-.92,2.35-.87,5.62-.68C47.16,5.57,49.08,6.13,49.08,7Z"/></svg>