<svg id="Layer_1" data-name="Layer 1" xmlns="http://www.w3.org/2000/svg" viewBox="0 0 224.88 124.01"><defs><style>.cls-1{fill:#0072ab;}.cls-1,.cls-10,.cls-11,.cls-12,.cls-2,.cls-3,.cls-6,.cls-7,.cls-8,.cls-9{fill-rule:evenodd;}.cls-2{fill:#007fc7;}.cls-3{fill:#009add;}.cls-12,.cls-4{fill:#0f80b8;}.cls-5{fill:#008cd1;}.cls-6{fill:#4ab1e5;}.cls-7{fill:#0089cf;}.cls-8{fill:#00a6e3;}.cls-9{fill:#44b7e9;}.cls-10{fill:#6acff6;}.cls-11,.cls-13{fill:#fff;}.cls-14{fill:#a2d3f2;}</style></defs><title>big-bowl</title><path class="cls-1" d="M170,107.06c0-7.83-25.75-14.18-57.51-14.18s-57.52,6.35-57.52,14.18,25.75,17,57.52,17S170,114.89,170,107.06Z"/><path class="cls-2" d="M161,106.77c0-7.67-23.41-13.89-52.28-13.89s-52.29,6.22-52.29,13.89,23.41,16.61,52.29,16.61S161,114.44,161,106.77Z"/><path class="cls-3" d="M142.12,106.6C142.12,99.66,124,94,101.56,94S61,99.66,61,106.6s18.17,15,40.58,15S142.12,113.54,142.12,106.6Z"/><ellipse class="cls-4" cx="112.44" cy="19.38" rx="111.03" ry="19.38"/><ellipse class="cls-5" cx="127.29" cy="21.38" rx="92.4" ry="16.72"/><path class="cls-6" d="M173.69,44.29c9.5-3.69,14.07-24.78,14.07-35.43,0,0,0-.08,0-.12-13.17-2.07-36.06-3.63-54.18-4.08,0,.54,0,1.08,0,1.63,0,12,0,30.48-8.5,41C117.4,56.82,162.26,48.73,173.69,44.29Z"/><path class="cls-7" d="M223.46,19.33s0,0,0,0c0,10.7-49.71,19.37-111,19.37s-111-8.67-111-19.37c0,0,0,0,0,0H.2c0,47.48,30,98.93,112.25,98.93S224.68,66.81,224.68,19.33Z"/><path class="cls-8" d="M112.44,38.75c-51.4,0-94.62-6.1-107.27-14.37,2,46,31.23,93.88,102.95,93.88,68,0,87.53-43,90.4-86.64C178.16,36,147.16,38.75,112.44,38.75Z"/><path class="cls-9" d="M76.06,45c.25-3.26.69-2.65,1.25-4.4-24.83-1.44-47.5-4.4-61.74-8.79a31.44,31.44,0,0,0,.51,4C29.64,40,50.81,43.33,76.06,45Z"/><path class="cls-9" d="M75.86,55.46c-24.69-1.76-45.49-5.24-59-9.7,5.83,35.68,31.65,66.59,86.6,69.4C81.69,101.36,75.87,74.16,75.86,55.46Z"/><path class="cls-10" d="M112.44,47.76c-58.38,0-106.36-8.59-111.89-19A5,5,0,0,0,0,30.93C0,43.38,50.34,53.88,112.44,53.88s112.43-10.5,112.43-22.95a5,5,0,0,0-.54-2.21C218.79,39.18,170.82,47.76,112.44,47.76Z"/><path class="cls-11" d="M112.44,50.3C53.39,50.3,5,40.79.39,29.16a5.57,5.57,0,0,0-.26.75C2.77,41.91,52,51.85,112.44,51.85s109.66-9.94,112.3-21.94a5.29,5.29,0,0,0-.26-.75C219.89,40.79,171.49,50.3,112.44,50.3Z"/><path class="cls-12" d="M112.44,52.55c-61,0-110.6-10.13-112.36-22.28a4.18,4.18,0,0,0-.09.67C0,43.38,50.34,53.88,112.44,53.88s112.43-10.5,112.43-22.95a4.19,4.19,0,0,0-.08-.67C223,42.42,173.43,52.55,112.44,52.55Z"/><path class="cls-13" d="M30.16,66.49c3.95,19.94,38.06,40.32,44.13,39.07,2.29-1-18.57-7.64-25.31-35.43C48,66.08,29.45,62.91,30.16,66.49Z"/><path class="cls-13" d="M26.46,51.84c7.29,2,23.59,8.3,20.1,9.33-1.29.38-12.65-.91-18-1.59C26,59.25,25.05,51.44,26.46,51.84Z"/><path class="cls-14" d="M112.44,40C58,40,.2,32.75.2,19.38.2,7.84,58,0,112.44,0S224.68,7.85,224.68,19.38C224.68,32.75,166.85,40,112.44,40Zm0-38.09C50.91,1.88,8,11,8,19.15S50.91,36.41,112.44,36.41s104.41-9.1,104.41-17.27S174,1.88,112.44,1.88Z"/><path class="cls-13" d="M27.24,35.77c4,1.07,14.1,2.25,13.53,4.18-.33.75-7.44-.3-12.33-1.62C25.59,37.56,26.41,35.54,27.24,35.77Z"/><path class="cls-13" d="M24.53,35.84c0,2.33-3.83.78-3.13-.38a2.28,2.28,0,0,1,1.86-1C24.21,34.34,24.53,35.22,24.53,35.84Z"/></svg>