<svg id="Layer_1" data-name="Layer 1" xmlns="http://www.w3.org/2000/svg" viewBox="0 0 107.43 155.58"><defs><style>.cls-1{fill:#55c58f;}.cls-2{fill:#40946b;}.cls-3{fill:#2b6348;}.cls-4{fill:#58595b;}.cls-5{fill:#414042;}.cls-6{fill:#b3b3b3;}.cls-7{fill:#917054;}.cls-8{fill:#754c29;}.cls-9{fill:#ac947f;}.cls-10{fill:#58391f;}.cls-11{fill:#b3d4c4;}.cls-12{fill:#4db181;}.cls-13{fill:#95b1a3;}.cls-14{fill:#357b59;}.cls-15{fill:#85baa0;}.cls-16{fill:#48a578;}.cls-17{fill:#69ab8b;}.cls-18{fill:#367e5b;}.cls-19{fill:#e1f5eb;}.cls-20{fill:#5ba983;}.cls-21{fill:#99dcbc;}.cls-22{fill:#d6f1e4;}.cls-23{fill:#64b18b;}.cls-24{fill:#70cea1;}.cls-25{fill:#96c2ad;}.cls-26{fill:#5da281;}.cls-27{fill:#5ea482;}.cls-28{fill:#8d8c8e;}.cls-29{fill:#306f50;}.cls-30{fill:#77d1a5;}.cls-31{fill:#bbe8d2;}.cls-32{fill:#313032;}</style></defs><title>bucket</title><path class="cls-1" d="M104.22,44.87c0-3.55-1-6.42-2.23-6.42s-2.24,2.88-2.24,6.42,1,6.42,2.24,6.42,2.23-2.88,2.23-6.42"/><polyline class="cls-1" points="101.98 38.45 101 38.45 101 51.29 101.98 51.29 101.98 38.45"/><path class="cls-2" d="M103.24,44.87c0-3.55-1-6.42-2.24-6.42s-2.23,2.88-2.23,6.42,1,6.42,2.23,6.42,2.24-2.88,2.24-6.42"/><path class="cls-3" d="M102.06,44.87c0-1.6-.48-2.9-1.06-2.9s-1.06,1.3-1.06,2.9.47,2.9,1.06,2.9,1.06-1.3,1.06-2.9"/><path class="cls-4" d="M101,46h-.1a1.09,1.09,0,0,1-1-1.18C102.15,21,101.51,9.39,91.87,7.38c-12-2.51-28-1.45-28.21-1.43A1.09,1.09,0,1,1,63.4,3.8c.75-.09,16.51-1.13,28.91,1.46s11.8,18.08,9.77,39.72A1.09,1.09,0,0,1,101,46Z"/><path class="cls-5" d="M101.45,45.07h-.1a1.09,1.09,0,0,1-1-1.18C102.59,20.16,102,8.51,92.31,6.5c-12-2.51-28-1.45-28.21-1.43a1.09,1.09,0,0,1-1.21-1,.9.9,0,0,1,0-.12,1.08,1.08,0,0,0,.77,2c.18,0,16.16-1.09,28.21,1.43,9.64,2,10.28,13.66,8.05,37.39a1.09,1.09,0,0,0,1,1.18h.1a1.09,1.09,0,0,0,1.08-1v-.13A1.07,1.07,0,0,1,101.45,45.07Z"/><path class="cls-6" d="M92.31,5.26C79.92,2.67,64.16,3.71,63.4,3.8a1.08,1.08,0,0,0-.83.57A1.08,1.08,0,0,1,63,4.24c.75-.09,16.51-1.13,28.91,1.46s11.8,18.08,9.77,39.72a1.07,1.07,0,0,1-.11.39,1.07,1.07,0,0,0,.55-.83C104.11,23.33,104.6,7.82,92.31,5.26Z"/><rect class="cls-7" x="37.21" y="2.11" width="26.35" height="8.42" transform="translate(-0.35 8.34) rotate(-9.43)"/><path class="cls-8" d="M62.69,0,61.45.21c-4.07,4-10.74,7.22-18.61,8.53a44.07,44.07,0,0,1-5.32.56l.55,3.33,26-4.32c.89-.15,1.29-2.13.91-4.42S63.57-.14,62.69,0Z"/><ellipse class="cls-9" cx="37.39" cy="8.48" rx="1.62" ry="4.21" transform="translate(-0.88 6.25) rotate(-9.44)"/><ellipse class="cls-7" cx="37.39" cy="8.48" rx="0.72" ry="1.86" transform="translate(-0.88 6.23) rotate(-9.41)"/><ellipse class="cls-8" cx="37.39" cy="8.48" rx="0.46" ry="1.18" transform="translate(-0.88 6.24) rotate(-9.43)"/><path class="cls-10" d="M64.24,1.45h0A3.86,3.86,0,0,0,63.5.35l0,0L63.31.19l-.05,0L63.12.08l-.06,0-.13,0h-.24L61.45.21q-.38.38-.8.74A22.6,22.6,0,0,1,63,1.2a8.54,8.54,0,0,1,1,2.86,10.44,10.44,0,0,1,.12,1.13C61.2,6.84,55.6,8.56,49,9.65a71.47,71.47,0,0,1-9.95,1c-.11,1.12-.47,1.9-1,2l26-4.32a.66.66,0,0,0,.26-.11l0,0A1.05,1.05,0,0,0,64.57,8l0,0a1.86,1.86,0,0,0,.18-.32l0,0a3.27,3.27,0,0,0,.14-.42v0a6.64,6.64,0,0,0,.17-1.83h0c0-.23,0-.48,0-.72s0-.45-.09-.68A9.21,9.21,0,0,0,64.24,1.45Z"/><path class="cls-2" d="M5.24,57.7c7.57,5.93,26.25,10.13,48.11,10.13,21.66,0,40.19-4.12,47.9-10C93.68,51.94,75,47.74,53.14,47.74,31.49,47.74,13,51.86,5.24,57.7Z"/><path class="cls-2" d="M5.6,59c7.68-5.87,26.26-10,48-10,22,0,40.8,4.26,48.28,10.25,2.43-1.85,3.78-3.88,3.78-6,0-8.84-23.17-16-51.75-16s-51.75,7.17-51.75,16c0,2,1.24,4,3.47,5.76"/><path class="cls-1" d="M53.78,69.12C26.55,69.12,4.24,62.6,2.2,54.34l11.9,87.37c0,7.67,18.19,13.88,40.64,13.88s40.63-6.21,40.63-13.88l10-87.57c-1.72,8.36-24.17,15-51.63,15"/><path class="cls-11" d="M102.16,63.72C100.46,72,77.94,78.41,50.88,78.41c-3.08,0-6.22-.09-9.31-.26l-.06.72c5.07.5,10.33.75,15.64.75,18.47,0,35.16-2.94,44.64-7.87l.17-.09.9-7.83-.71-.11"/><path class="cls-11" d="M27.09,132.67,22.38,80.9,22,72.22c-3.8-2-10.29-2.76-10.9-5.24l-.71.14,10.55,76a5.66,5.66,0,0,0,.7,2.66l.05.1.1.05c2.78,1.38,11.05,4.82,13.79,4.91l.95,0-.69-.65c-1.48-1.41-8.8-16-8.8-17.59"/><path class="cls-11" d="M54.69,155.58h0m0,0h0m0,0h0m0,0h0m0,0h0m0,0h0m-.09,0h0m0,0h0m0,0h0m0,0h0m0,0h0m0,0h0m0,0h0m-.08,0h0m0,0h0m0,0h0m0,0h0m0,0h0"/><path class="cls-12" d="M104.61,59.2c-3.9,4.59-12.63,8-23.36,10.15q1.11,2.71,2,5.56c10.81-2.67,18-6.66,19-11.19l.71.11-.9,7.83-.17.09C97.27,74.1,91.09,76,83.87,77.35a59.93,59.93,0,0,1,1.79,14.58c0,28.71-20.19,52.62-46.87,57.75a119.38,119.38,0,0,0,14.82.9c23.11,0,41.85-6.21,41.85-13.88l9.15-77.5m.26-.31-.17.21-9.47,82.58c0,7.66-18.19,13.88-40.63,13.88A103.23,103.23,0,0,1,32,153.22a102.25,102.25,0,0,0,22,2.36h.74c22.44,0,40.63-6.21,40.63-13.88l9.5-82.82"/><path class="cls-13" d="M5.68,59h0m0,0h0m0,0h0m0,0h0m0,0h0m0,0h0m0,0h0m0,0,0,0,0,0m-3.71-5.6h0m0,0h0m0,0h0m0,0h0m0,0h0m0,0h0m0,0h0m0,0h0m0,0h0m0,0h0M23.43,52C15.7,53.74,9.57,56.1,5.84,58.85c3.73-2.75,9.87-5.11,17.6-6.83h0"/><path class="cls-14" d="M21.64,40.75C9.88,43.65,2.3,48.1,2.13,53.15c0,0,0,0,0,.12a5.44,5.44,0,0,0,.61,2.45A8.56,8.56,0,0,0,5.8,58.88l0,0,0,0c1.55-1.62,3.62-2.71,5.52-1.35L16.31,61a9.07,9.07,0,0,0,2.93,1.59,6.89,6.89,0,0,0,1.81.17A2.68,2.68,0,0,0,23.28,62a2.77,2.77,0,0,0,.37-1.39,29,29,0,0,0,0-4.68c-.08-1-.84-3.22-.24-3.92C21.68,49.91,22,47.17,22,44.66c0-1.46-1-2.54-.35-3.91"/><path class="cls-2" d="M2.74,55.72A10.32,10.32,0,0,0,5.6,59l.06,0a10.66,10.66,0,0,1-2.92-3.27"/><path class="cls-13" d="M101.58,59.06h0l.12.09h0l-.12-.09"/><path class="cls-2" d="M101.69,59.15h0l.16.12-.15-.12"/><path class="cls-15" d="M102.16,63.72c-.93,4.53-8.15,8.52-19,11.19q.36,1.21.67,2.44c7.23-1.34,13.41-3.24,17.94-5.6l.17-.09.9-7.83-.71-.11"/><path class="cls-11" d="M13.87,141.06l.08.61c0,4.74,7,8.93,17.59,11.43C21,150.6,14.1,146.43,14.1,141.71l-.07-.49-.16-.16"/><path class="cls-12" d="M35.07,149.15a8.29,8.29,0,0,0,.73,1c1-.14,2-.3,3-.49q-1.9-.24-3.71-.54m-21-7.93.07.49c0,4.72,6.9,8.89,17.45,11.4l.49.11a55,55,0,0,1-8.76-2.73c1.57.13,3.16.22,4.76.22q2.69,0,5.32-.25A81.25,81.25,0,0,1,21.84,146l-.1-.05-.05-.1-.09-.18A23.27,23.27,0,0,1,14,141.22"/><path class="cls-15" d="M21.58,145.63l.09.18.05.1.1.05a81.25,81.25,0,0,0,11.52,4.49c.82-.08,1.64-.17,2.45-.28a8.29,8.29,0,0,1-.73-1,67,67,0,0,1-13.49-3.51"/><path class="cls-16" d="M104.69,59.1l-.08.1-9.15,77.5c0,7.66-18.74,13.88-41.85,13.88a119.38,119.38,0,0,1-14.82-.9c-1,.19-2,.35-3,.49l.08.08.69.65-.95,0a10.9,10.9,0,0,1-2.27-.42q-2.63.24-5.32.25c-1.6,0-3.19-.08-4.76-.22A55,55,0,0,0,32,153.22a103.23,103.23,0,0,0,22.55,2.33c22.44,0,40.63-6.21,40.63-13.88l9.47-82.58"/><path class="cls-17" d="M35.81,150.17c-.81.11-1.63.21-2.45.28a10.9,10.9,0,0,0,2.27.42l.95,0-.69-.65-.08-.08"/><path class="cls-18" d="M105.27,54.1c0,.11-.06.22-.09.33l-.56,4.77.08-.1.57-5"/><path class="cls-19" d="M67.71,49.64c4.2.37,8.19.89,11.88,1.56h0C75.94,50.54,72,50,67.87,49.64h-.17"/><path class="cls-20" d="M68.13,37.88a4.5,4.5,0,0,0,.37.54,23.43,23.43,0,0,1,.72,5.79,9.5,9.5,0,0,1-.8,4.85c-1,1.75-1.95,3.51-1.61,5.59a15.63,15.63,0,0,0,.7,2.32,14.09,14.09,0,0,1,.39,7.24c1-1.5,1.36-3.39,2.43-4.86a11.68,11.68,0,0,1,3.24-2.74l3-1.94a7.59,7.59,0,0,0,2.13-1.76c1.64-2.23-.13-7-.13-9.53a31.13,31.13,0,0,1,.27-4.12c-3.36-.57-7-1-10.71-1.36"/><path class="cls-19" d="M57.85,49.08h0c2.34.06,4.63.17,6.88.32h0q-3.36-.23-6.88-.32"/><path class="cls-20" d="M57.9,37.31a23.4,23.4,0,0,1,.72,5.79,30.23,30.23,0,0,1-.7,5.19A28,28,0,0,0,58,53.63a39,39,0,0,1-1.13,11.72c.25-2.2,1.77-4.05,2.3-6.2.36-1.48.25-3.07.83-4.47.78-1.87,2.56-3,3.82-4.48,1.57-1.89,1.67-4.27,1.67-6.66a23.43,23.43,0,0,0-.72-5.79c1.07,0,2.13.07,3.18.11-3.23-.28-6.58-.47-10-.55"/><path class="cls-21" d="M85.57,40v-.09A142.63,142.63,0,0,0,68,38.09a4.53,4.53,0,0,0,.38.55h0A151.4,151.4,0,0,1,85.57,40Z"/><path class="cls-22" d="M90.85,53.94h0a36.22,36.22,0,0,1,10.72,5.12,36.19,36.19,0,0,0-10.72-5.12m14.77-.68h0m0,0h0m0,0h0m0,0h0m0,0h0m0,0h0m0,0h0m0,0h0m0,0h0"/><path class="cls-23" d="M92.78,42.72a15.64,15.64,0,0,1,.32,3.14c0,6-3,12.5-7.05,16.84.47-.51,3.11-.77,3.88-1,1.45-.52,2.85-1.16,4.29-1.7a19.89,19.89,0,0,1,4.31-1.22c1.11-.15,2.84.44,3.64.05a9.62,9.62,0,0,0,2.92-3.6l.09-.75c0-.11.07-.22.09-.33l-.1.87a5.76,5.76,0,0,0,.24-.84l-.11.92a5.4,5.4,0,0,0,.32-1.9c-.09-4-4.92-7.65-12.84-10.44"/><path class="cls-24" d="M105.08,55.18a9.62,9.62,0,0,1-2.92,3.6l.67-.33c-.31.28-.63.55-1,.82A10.67,10.67,0,0,0,105,55.72l.06-.54m.33-1a5.76,5.76,0,0,1-.24.84l-.06.58c.07-.16.14-.33.2-.49l.11-.92"/><path class="cls-25" d="M101.58,59.06h0l.12.09-.12-.09"/><path class="cls-26" d="M102.17,58.78l-.59.28.12.09.47-.37"/><path class="cls-23" d="M102.83,58.45l-.67.33-.47.37.15.12c.35-.27.68-.55,1-.82"/><path class="cls-27" d="M105.27,54.1c0,.11-.06.22-.09.33l-.09.75-.06.54.08-.16.06-.58.1-.87"/><path class="cls-28" d="M9.69,60.7c-.46-3.52-1.82-6.24-3-6.08l-1,.13c-1.22.16-1.84,3.14-1.38,6.66s1.82,6.24,3,6.08l1-.13C9.53,67.2,10.15,64.22,9.69,60.7Z"/><path class="cls-2" d="M53.88,71.09c-26,0-53.56-6.25-53.56-17.82S27.91,35.45,53.88,35.45s53.56,6.25,53.56,17.82S79.84,71.09,53.88,71.09m0-32c-29.43,0-49.93,7.48-49.93,14.2s20.51,14.2,49.93,14.2,49.94-7.48,49.94-14.2-20.51-14.2-49.94-14.2"/><path class="cls-29" d="M54.07,71.85C28.1,71.85.51,65.6.51,54S28.1,36.2,54.07,36.2s52.74,5.94,52.74,17.51S80,71.85,54.07,71.85m0-32C24.64,39.82,4.13,47.31,4.13,54s20.51,14.2,49.93,14.2S104,60.74,104,54,83.5,39.82,54.07,39.82"/><path class="cls-30" d="M53.88,70.73c-14,0-27.11-1.69-37-4.75C6.28,62.7.68,58.31.68,53.27s5.59-9.43,16.18-12.71c9.91-3.07,23.06-4.76,37-4.76S81,37.5,90.9,40.56c10.58,3.27,16.18,7.67,16.18,12.71S101.48,62.7,90.9,66C81,69,67.84,70.73,53.88,70.73Zm0-32c-29.64,0-50.3,7.68-50.3,14.56s20.66,14.56,50.3,14.56,50.3-7.68,50.3-14.56S83.52,38.71,53.88,38.71Z"/><path class="cls-31" d="M53.88,70C24.46,70,1.41,62.65,1.41,53.27s23-16.74,52.47-16.74,52.47,7.35,52.47,16.74S83.3,70,53.88,70Zm0-32c-27.66,0-51,7-51,15.29s23.37,15.29,51,15.29,51-7,51-15.29S81.53,38,53.88,38Z"/><path class="cls-2" d="M6.79,53.09l-1,.13.09.65a11,11,0,0,0-.5,5.88,11,11,0,0,0,2,5.55l.09.65,1-.13c1.22-.16,1.84-3.14,1.38-6.66S8,52.93,6.79,53.09Z"/><ellipse class="cls-1" cx="6.65" cy="59.59" rx="2.23" ry="6.42" transform="translate(-7.67 1.36) rotate(-7.45)"/><ellipse class="cls-3" cx="6.65" cy="59.59" rx="1.06" ry="2.9" transform="translate(-7.68 1.37) rotate(-7.46)"/><path class="cls-4" d="M6.33,20.65c8.26-8.88,29.55-11,31.33-11.08a2.07,2.07,0,0,0,0-1,1.91,1.91,0,0,0-.34-1c-.92.06-23.39,1.74-32.58,11.62-6.58,7.08-6.31,19.77.88,41.14a1.09,1.09,0,0,0,2.06-.69C.77,39.1.35,27.08,6.33,20.65Z"/><path class="cls-28" d="M36.48,9.06c-1.78.13-23,2-31.24,10.87-6,6.43-5.56,18.44,1.35,39a1.09,1.09,0,0,1-.68,1.38,1,1,0,0,1-.29,0,1.09,1.09,0,0,0,2.06-.7C.77,39.1.35,27.08,6.33,20.65c8.26-8.88,29.55-11,31.33-11.08a1.59,1.59,0,0,0,0-.69"/><path class="cls-32" d="M4.73,19.49C13.92,9.61,36.39,7.93,37.32,7.87a1.91,1.91,0,0,1,.34,1,4,4,0,0,1,.05.44,3.18,3.18,0,0,0-.05-.76,1.91,1.91,0,0,0-.34-1c-.92.06-23.39,1.74-32.58,11.62C1.6,22.54,0,27.18,0,33.41.08,27.34,1.66,22.8,4.73,19.49Z"/><path class="cls-32" d="M2.15,33.81c0,6.56,1.82,15.12,5.53,26.13l0,.18a1.06,1.06,0,0,0,0-.5C4,48.79,2.19,40.33,2.15,33.81Z"/></svg>