<svg id="Layer_1" data-name="Layer 1" xmlns="http://www.w3.org/2000/svg" xmlns:xlink="http://www.w3.org/1999/xlink" viewBox="0 0 113.59 102.99"><defs><style>.cls-1{fill:url(#linear-gradient);}.cls-2{fill:url(#linear-gradient-2);}.cls-3{fill:url(#linear-gradient-3);}.cls-4{fill:url(#linear-gradient-4);}.cls-5{fill:url(#linear-gradient-5);}</style><linearGradient id="linear-gradient" y1="54.55" x2="81.06" y2="54.55" gradientUnits="userSpaceOnUse"><stop offset="0" stop-color="#77bd4b"/><stop offset="0.15" stop-color="#71b644"/><stop offset="0.36" stop-color="#60a330"/><stop offset="0.61" stop-color="#448310"/><stop offset="0.71" stop-color="#387502"/><stop offset="0.79" stop-color="#3d7a08"/><stop offset="0.9" stop-color="#4b8a18"/><stop offset="1" stop-color="#5d9f2d"/></linearGradient><linearGradient id="linear-gradient-2" x1="6.22" y1="54.88" x2="32.96" y2="54.88" gradientUnits="userSpaceOnUse"><stop offset="0" stop-color="#f2f9ee"/><stop offset="0.09" stop-color="#e1f1d7"/><stop offset="0.31" stop-color="#bbdea5"/><stop offset="0.52" stop-color="#9ed07e"/><stop offset="0.71" stop-color="#88c662"/><stop offset="0.88" stop-color="#7cbf51"/><stop offset="1" stop-color="#77bd4b"/></linearGradient><linearGradient id="linear-gradient-3" x1="93.8" y1="9.58" x2="94.49" y2="66.28" gradientUnits="userSpaceOnUse"><stop offset="0" stop-color="#77bd4b"/><stop offset="0.2" stop-color="#74b947"/><stop offset="0.4" stop-color="#69ae3b"/><stop offset="0.6" stop-color="#589a28"/><stop offset="0.79" stop-color="#417f0c"/><stop offset="0.81" stop-color="#3e7c09"/></linearGradient><linearGradient id="linear-gradient-4" x1="-788.24" y1="708.74" x2="-706.76" y2="708.74" gradientTransform="matrix(-0.99, 0, 0, -1.02, -702.53, 728.32)" gradientUnits="userSpaceOnUse"><stop offset="0.01" stop-color="#458411"/><stop offset="1" stop-color="#a2d284"/></linearGradient><linearGradient id="linear-gradient-5" x1="1.31" y1="5.83" x2="80.21" y2="5.83" gradientUnits="userSpaceOnUse"><stop offset="0.01" stop-color="#387502"/><stop offset="1" stop-color="#77bd4b"/></linearGradient></defs><title>centre-cup</title><path class="cls-1" d="M0,6.11C8.7,7.65,36.27,8.24,40.53,8.32c4.26-.08,31.83-.67,40.53-2.21,0,0-2.22,70-15.55,91.61,0,0-8,5-24.43,5.26H40c-16.46-.22-24.43-5.26-24.43-5.26C2.22,76.07,0,6.11,0,6.11Z"/><path class="cls-2" d="M27,11.19s-8.07,69.38,6,89.66c0,0-4.38.69-13.14-3,0,0-12.45-28.81-13.6-89C6.22,8.49,24.2,13,27,11.19Z"/><path class="cls-3" d="M75,64.41c3.33-8.05,11.94-5.83,25.54-10.55S118,28.6,108,18.88s-27.2-1.94-27.2-1.94Zm7.77-13s0-24.83,3.84-29.26c0,0,9.06-4.63,14.82-.59s8.78,10.94,2.2,20.4S82.72,51.36,82.72,51.36Z"/><ellipse class="cls-4" cx="40.7" cy="6.09" rx="40.51" ry="6.08" transform="matrix(1, -0.01, 0.01, 1, -0.04, 0.29)"/><ellipse class="cls-5" cx="40.76" cy="5.83" rx="39.45" ry="4.9"/></svg>