<svg xmlns="http://www.w3.org/2000/svg" xmlns:xlink="http://www.w3.org/1999/xlink" viewBox="0 0 84.66 69.57"><defs><style>.cls-1{fill:none;}.cls-2{isolation:isolate;}.cls-3{fill:url(#linear-gradient);}.cls-4{fill:url(#linear-gradient-2);}.cls-5{fill:url(#linear-gradient-3);}.cls-6{fill:url(#linear-gradient-4);}.cls-7{fill:url(#linear-gradient-5);}.cls-8{fill:url(#linear-gradient-6);}.cls-9{fill:url(#linear-gradient-7);}.cls-10{fill:url(#linear-gradient-8);}.cls-11{fill:url(#linear-gradient-9);}.cls-12{fill:url(#linear-gradient-10);}.cls-13{fill:url(#linear-gradient-11);}.cls-14{fill:url(#linear-gradient-12);}.cls-15,.cls-16,.cls-17,.cls-18,.cls-19,.cls-20,.cls-21,.cls-22,.cls-23,.cls-24,.cls-25,.cls-26{fill:#630000;}.cls-15,.cls-37,.cls-49{opacity:0;}.cls-16{opacity:0.01;}.cls-17{opacity:0.01;}.cls-18{opacity:0.02;}.cls-19{opacity:0.03;}.cls-20{opacity:0.04;}.cls-21{opacity:0.04;}.cls-22{opacity:0.05;}.cls-23{opacity:0.06;}.cls-24{opacity:0.07;}.cls-25{opacity:0.07;}.cls-26{opacity:0.08;}.cls-27{fill:#248000;}.cls-28{fill:#73e846;}.cls-29{fill:#288f00;}.cls-30{fill:#35bf00;}.cls-31{fill:url(#linear-gradient-13);}.cls-32{fill:#31ad00;}.cls-33{fill:url(#linear-gradient-14);}.cls-34{clip-path:url(#clip-path);}.cls-35,.cls-36{opacity:0.25;mix-blend-mode:screen;}.cls-35{fill:url(#radial-gradient);}.cls-36{fill:url(#radial-gradient-2);}.cls-37{fill:url(#linear-gradient-16);}.cls-38,.cls-50{opacity:0.09;}.cls-38{fill:url(#linear-gradient-17);}.cls-39,.cls-51{opacity:0.18;}.cls-39{fill:url(#linear-gradient-18);}.cls-40,.cls-52{opacity:0.27;}.cls-40{fill:url(#linear-gradient-19);}.cls-41,.cls-53{opacity:0.36;}.cls-41{fill:url(#linear-gradient-20);}.cls-42,.cls-54{opacity:0.45;}.cls-42{fill:url(#linear-gradient-21);}.cls-43,.cls-55{opacity:0.55;}.cls-43{fill:url(#linear-gradient-22);}.cls-44,.cls-56{opacity:0.64;}.cls-44{fill:url(#linear-gradient-23);}.cls-45,.cls-57{opacity:0.73;}.cls-45{fill:url(#linear-gradient-24);}.cls-46,.cls-58{opacity:0.82;}.cls-46{fill:url(#linear-gradient-25);}.cls-47,.cls-59{opacity:0.91;}.cls-47{fill:url(#linear-gradient-26);}.cls-48{fill:url(#linear-gradient-27);}.cls-49{fill:url(#linear-gradient-28);}.cls-50{fill:url(#linear-gradient-29);}.cls-51{fill:url(#linear-gradient-30);}.cls-52{fill:url(#linear-gradient-31);}.cls-53{fill:url(#linear-gradient-32);}.cls-54{fill:url(#linear-gradient-33);}.cls-55{fill:url(#linear-gradient-34);}.cls-56{fill:url(#linear-gradient-35);}.cls-57{fill:url(#linear-gradient-36);}.cls-58{fill:url(#linear-gradient-37);}.cls-59{fill:url(#linear-gradient-38);}.cls-60{fill:#227800;}.cls-61{fill:#2ea300;}.cls-62{fill:url(#linear-gradient-39);}.cls-63{fill:url(#linear-gradient-40);}.cls-64{fill:url(#linear-gradient-41);}.cls-65{fill:url(#linear-gradient-42);}.cls-66{fill:url(#linear-gradient-43);}.cls-67{fill:url(#linear-gradient-44);}.cls-68{fill:#ffdbba;opacity:0.2;}</style><linearGradient id="linear-gradient" x1="3.01" y1="43.67" x2="82.74" y2="43.67" gradientUnits="userSpaceOnUse"><stop offset="0" stop-color="#387502"/><stop offset="0.06" stop-color="#4e8e1b"/><stop offset="0.12" stop-color="#60a330"/><stop offset="0.19" stop-color="#6db23f"/><stop offset="0.28" stop-color="#75ba48"/><stop offset="0.4" stop-color="#77bd4b"/><stop offset="0.64" stop-color="#75bb49"/><stop offset="0.76" stop-color="#6fb441"/><stop offset="0.84" stop-color="#64a735"/><stop offset="0.92" stop-color="#549522"/><stop offset="0.98" stop-color="#407e0b"/><stop offset="1" stop-color="#387502"/></linearGradient><linearGradient id="linear-gradient-2" x1="3.01" y1="43.64" x2="82.74" y2="43.64" xlink:href="#linear-gradient"/><linearGradient id="linear-gradient-3" x1="3.01" y1="43.61" x2="82.74" y2="43.61" xlink:href="#linear-gradient"/><linearGradient id="linear-gradient-4" x1="3.01" y1="43.58" x2="82.74" y2="43.58" xlink:href="#linear-gradient"/><linearGradient id="linear-gradient-5" x1="3.01" y1="43.54" x2="82.74" y2="43.54" xlink:href="#linear-gradient"/><linearGradient id="linear-gradient-6" x1="3.01" y1="43.51" x2="82.74" y2="43.51" xlink:href="#linear-gradient"/><linearGradient id="linear-gradient-7" x1="3.01" y1="43.48" x2="82.74" y2="43.48" xlink:href="#linear-gradient"/><linearGradient id="linear-gradient-8" x1="3.01" y1="43.44" x2="82.74" y2="43.44" xlink:href="#linear-gradient"/><linearGradient id="linear-gradient-9" x1="3.01" y1="43.41" x2="82.74" y2="43.41" xlink:href="#linear-gradient"/><linearGradient id="linear-gradient-10" x1="3.01" y1="43.38" x2="82.74" y2="43.38" xlink:href="#linear-gradient"/><linearGradient id="linear-gradient-11" x1="3.01" y1="43.35" x2="82.74" y2="43.35" xlink:href="#linear-gradient"/><linearGradient id="linear-gradient-12" x1="3.01" y1="43.31" x2="82.74" y2="43.31" xlink:href="#linear-gradient"/><linearGradient id="linear-gradient-13" x1="2.6" y1="17.67" x2="83.02" y2="17.67" xlink:href="#linear-gradient"/><linearGradient id="linear-gradient-14" x1="3.82" y1="16.94" x2="83.57" y2="16.94" gradientUnits="userSpaceOnUse"><stop offset="0" stop-color="#387502"/><stop offset="0.08" stop-color="#3e7b08"/><stop offset="0.18" stop-color="#4d8d1b"/><stop offset="0.3" stop-color="#67aa38"/><stop offset="0.37" stop-color="#77bd4b"/><stop offset="0.47" stop-color="#74b947"/><stop offset="0.57" stop-color="#69ae3b"/><stop offset="0.67" stop-color="#589a28"/><stop offset="0.77" stop-color="#417f0c"/><stop offset="0.8" stop-color="#387502"/><stop offset="1" stop-color="#5d9f2d"/></linearGradient><clipPath id="clip-path" transform="translate(0 13.17)"><path class="cls-1" d="M10.13,32.82a7.81,7.81,0,0,1-6.07-2.47,4.81,4.81,0,0,1-1.1-4L6.47,6.21c.5-2.84,4.14-5.15,8.12-5.15H71c4,0,7.63,2.31,8.12,5.15l3.51,20.1a4.81,4.81,0,0,1-1.1,4,7.81,7.81,0,0,1-6.07,2.47Z"/></clipPath><radialGradient id="radial-gradient" cx="316.16" cy="34.81" r="14.13" gradientTransform="matrix(0.22, 0, 0, 1.11, -61.15, -36.42)" gradientUnits="userSpaceOnUse"><stop offset="0" stop-color="#ffdbba"/><stop offset="1" stop-color="#1c0000"/></radialGradient><radialGradient id="radial-gradient-2" cx="-1617.85" cy="-47.42" r="14.13" gradientTransform="matrix(0, -0.22, -1.11, 0, 27.15, -351.83)" gradientUnits="userSpaceOnUse"><stop offset="0" stop-color="#ffdbba"/><stop offset="1" stop-color="#400000"/></radialGradient><linearGradient id="linear-gradient-16" x1="42.81" y1="48.66" x2="42.81" y2="13.46" gradientUnits="userSpaceOnUse"><stop offset="0.05" stop-color="#eb8766"/><stop offset="0.34" stop-color="#ffbd9c"/><stop offset="1" stop-color="#ffcead"/></linearGradient><linearGradient id="linear-gradient-17" x1="42.81" y1="48.59" x2="42.81" y2="13.53" gradientUnits="userSpaceOnUse"><stop offset="0" stop-color="#db855d"/><stop offset="0.05" stop-color="#db865d"/><stop offset="0.34" stop-color="#f2bc94"/><stop offset="0.37" stop-color="#f3be96"/><stop offset="0.72" stop-color="#efc098"/><stop offset="0.8" stop-color="#edc199"/><stop offset="1" stop-color="#f0caa1"/></linearGradient><linearGradient id="linear-gradient-18" x1="42.81" y1="48.53" x2="42.81" y2="13.6" gradientUnits="userSpaceOnUse"><stop offset="0" stop-color="#ca8454"/><stop offset="0.05" stop-color="#cb8455"/><stop offset="0.34" stop-color="#e5bc8c"/><stop offset="0.37" stop-color="#e6be8e"/><stop offset="0.63" stop-color="#e2bd8d"/><stop offset="0.8" stop-color="#dbba8a"/><stop offset="1" stop-color="#e2c596"/></linearGradient><linearGradient id="linear-gradient-19" x1="42.81" y1="48.46" x2="42.81" y2="13.66" gradientUnits="userSpaceOnUse"><stop offset="0" stop-color="#ba824b"/><stop offset="0.05" stop-color="#bb834c"/><stop offset="0.34" stop-color="#d8bb84"/><stop offset="0.37" stop-color="#dabe87"/><stop offset="0.58" stop-color="#d6bb84"/><stop offset="0.78" stop-color="#cab37c"/><stop offset="0.8" stop-color="#c9b27b"/><stop offset="1" stop-color="#d3c18a"/></linearGradient><linearGradient id="linear-gradient-20" x1="42.81" y1="48.39" x2="42.81" y2="13.73" gradientUnits="userSpaceOnUse"><stop offset="0" stop-color="#aa8042"/><stop offset="0.05" stop-color="#ab8243"/><stop offset="0.34" stop-color="#cbba7c"/><stop offset="0.37" stop-color="#cebe7f"/><stop offset="0.55" stop-color="#cabb7c"/><stop offset="0.72" stop-color="#beb072"/><stop offset="0.8" stop-color="#b7aa6c"/><stop offset="1" stop-color="#c4bd7e"/></linearGradient><linearGradient id="linear-gradient-21" x1="42.81" y1="48.33" x2="42.81" y2="13.8" gradientUnits="userSpaceOnUse"><stop offset="0" stop-color="#9a7f39"/><stop offset="0.05" stop-color="#9b813a"/><stop offset="0.34" stop-color="#beba74"/><stop offset="0.37" stop-color="#c1be78"/><stop offset="0.53" stop-color="#bdba74"/><stop offset="0.69" stop-color="#b1af69"/><stop offset="0.8" stop-color="#a5a35d"/><stop offset="1" stop-color="#b5b973"/></linearGradient><linearGradient id="linear-gradient-22" x1="42.81" y1="48.26" x2="42.81" y2="13.86" gradientUnits="userSpaceOnUse"><stop offset="0" stop-color="#897d2f"/><stop offset="0.05" stop-color="#8b7f32"/><stop offset="0.34" stop-color="#b2b96c"/><stop offset="0.37" stop-color="#b5bd70"/><stop offset="0.52" stop-color="#b1b96c"/><stop offset="0.66" stop-color="#a5ae60"/><stop offset="0.8" stop-color="#929b4d"/><stop offset="1" stop-color="#a7b467"/></linearGradient><linearGradient id="linear-gradient-23" x1="42.81" y1="48.19" x2="42.81" y2="13.93" gradientUnits="userSpaceOnUse"><stop offset="0" stop-color="#797c26"/><stop offset="0.05" stop-color="#7b7e29"/><stop offset="0.34" stop-color="#a5b964"/><stop offset="0.37" stop-color="#a8bd69"/><stop offset="0.5" stop-color="#a4b965"/><stop offset="0.63" stop-color="#99ae59"/><stop offset="0.76" stop-color="#879b46"/><stop offset="0.8" stop-color="#80943e"/><stop offset="1" stop-color="#98b05c"/></linearGradient><linearGradient id="linear-gradient-24" x1="42.81" y1="48.13" x2="42.81" y2="14" gradientUnits="userSpaceOnUse"><stop offset="0" stop-color="#697a1d"/><stop offset="0.05" stop-color="#6b7d20"/><stop offset="0.34" stop-color="#98b85c"/><stop offset="0.37" stop-color="#9cbd61"/><stop offset="0.49" stop-color="#98b95d"/><stop offset="0.61" stop-color="#8eae51"/><stop offset="0.73" stop-color="#7c9a3e"/><stop offset="0.8" stop-color="#6e8c2f"/><stop offset="1" stop-color="#89ac50"/></linearGradient><linearGradient id="linear-gradient-25" x1="42.81" y1="48.06" x2="42.81" y2="14.06" gradientUnits="userSpaceOnUse"><stop offset="0" stop-color="#597814"/><stop offset="0.05" stop-color="#5b7c17"/><stop offset="0.34" stop-color="#8bb754"/><stop offset="0.37" stop-color="#90bd5a"/><stop offset="0.48" stop-color="#8cb956"/><stop offset="0.59" stop-color="#82ae4a"/><stop offset="0.7" stop-color="#709a37"/><stop offset="0.8" stop-color="#5c8420"/><stop offset="1" stop-color="#7aa844"/></linearGradient><linearGradient id="linear-gradient-26" x1="42.81" y1="47.99" x2="42.81" y2="14.13" gradientUnits="userSpaceOnUse"><stop offset="0" stop-color="#48770b"/><stop offset="0.05" stop-color="#4b7a0f"/><stop offset="0.34" stop-color="#7eb74c"/><stop offset="0.37" stop-color="#83bd52"/><stop offset="0.48" stop-color="#80b94e"/><stop offset="0.58" stop-color="#75ae42"/><stop offset="0.69" stop-color="#649a2f"/><stop offset="0.79" stop-color="#4c7f13"/><stop offset="0.8" stop-color="#4a7d11"/><stop offset="1" stop-color="#6ca339"/></linearGradient><linearGradient id="linear-gradient-27" x1="42.81" y1="47.93" x2="42.81" y2="14.2" xlink:href="#linear-gradient-14"/><linearGradient id="linear-gradient-28" x1="42.47" y1="41.23" x2="42.47" y2="20.16" gradientUnits="userSpaceOnUse"><stop offset="0" stop-color="#ff9b7a"/><stop offset="0.17" stop-color="#ffb796"/><stop offset="0.91" stop-color="#ffba99"/><stop offset="0.97" stop-color="#ffcead"/></linearGradient><linearGradient id="linear-gradient-29" x1="42.47" y1="41.21" x2="42.47" y2="20.18" gradientUnits="userSpaceOnUse"><stop offset="0" stop-color="#eb986f"/><stop offset="0.17" stop-color="#ebb188"/><stop offset="0.91" stop-color="#ebb48b"/><stop offset="0.97" stop-color="#ebc69d"/></linearGradient><linearGradient id="linear-gradient-30" x1="42.47" y1="41.19" x2="42.47" y2="20.2" gradientUnits="userSpaceOnUse"><stop offset="0" stop-color="#d79564"/><stop offset="0.17" stop-color="#d7ac7b"/><stop offset="0.91" stop-color="#d7ae7d"/><stop offset="0.97" stop-color="#d7be8e"/></linearGradient><linearGradient id="linear-gradient-31" x1="42.47" y1="41.17" x2="42.47" y2="20.22" gradientUnits="userSpaceOnUse"><stop offset="0" stop-color="#c39159"/><stop offset="0.17" stop-color="#c3a66d"/><stop offset="0.91" stop-color="#c3a86f"/><stop offset="0.97" stop-color="#c3b77e"/></linearGradient><linearGradient id="linear-gradient-32" x1="42.47" y1="41.15" x2="42.47" y2="20.24" gradientUnits="userSpaceOnUse"><stop offset="0" stop-color="#af8e4e"/><stop offset="0.17" stop-color="#afa05f"/><stop offset="0.91" stop-color="#afa261"/><stop offset="0.97" stop-color="#afaf6e"/></linearGradient><linearGradient id="linear-gradient-33" x1="42.47" y1="41.13" x2="42.47" y2="20.26" gradientUnits="userSpaceOnUse"><stop offset="0" stop-color="#9b8b43"/><stop offset="0.17" stop-color="#9b9a52"/><stop offset="0.91" stop-color="#9b9c53"/><stop offset="0.97" stop-color="#9ba75e"/></linearGradient><linearGradient id="linear-gradient-34" x1="42.47" y1="41.11" x2="42.47" y2="20.28" gradientUnits="userSpaceOnUse"><stop offset="0" stop-color="#868837"/><stop offset="0.17" stop-color="#869544"/><stop offset="0.91" stop-color="#869646"/><stop offset="0.97" stop-color="#869f4f"/></linearGradient><linearGradient id="linear-gradient-35" x1="42.47" y1="41.09" x2="42.47" y2="20.3" gradientUnits="userSpaceOnUse"><stop offset="0" stop-color="#72852c"/><stop offset="0.17" stop-color="#728f37"/><stop offset="0.91" stop-color="#729038"/><stop offset="0.97" stop-color="#72973f"/></linearGradient><linearGradient id="linear-gradient-36" x1="42.47" y1="41.07" x2="42.47" y2="20.32" gradientUnits="userSpaceOnUse"><stop offset="0" stop-color="#5e8221"/><stop offset="0.17" stop-color="#5e8929"/><stop offset="0.91" stop-color="#5e8a2a"/><stop offset="0.97" stop-color="#5e8f2f"/></linearGradient><linearGradient id="linear-gradient-37" x1="42.47" y1="41.05" x2="42.47" y2="20.34" gradientUnits="userSpaceOnUse"><stop offset="0" stop-color="#4a7e16"/><stop offset="0.17" stop-color="#4a831b"/><stop offset="0.91" stop-color="#4a841c"/><stop offset="0.97" stop-color="#4a881f"/></linearGradient><linearGradient id="linear-gradient-38" x1="42.47" y1="41.03" x2="42.47" y2="20.36" gradientUnits="userSpaceOnUse"><stop offset="0" stop-color="#367b0b"/><stop offset="0.17" stop-color="#367e0e"/><stop offset="0.91" stop-color="#367e0e"/><stop offset="0.97" stop-color="#368010"/></linearGradient><linearGradient id="linear-gradient-39" x1="42.47" y1="51.9" x2="42.47" y2="19.26" gradientUnits="userSpaceOnUse"><stop offset="0" stop-color="#2b8b00"/><stop offset="0.23" stop-color="#309106"/><stop offset="0.37" stop-color="#35970d"/><stop offset="0.61" stop-color="#329309"/><stop offset="0.8" stop-color="#2b8b00"/><stop offset="1" stop-color="#319208"/></linearGradient><linearGradient id="linear-gradient-40" x1="42.46" y1="51.84" x2="42.46" y2="19.3" gradientUnits="userSpaceOnUse"><stop offset="0" stop-color="#2d8601"/><stop offset="0.16" stop-color="#338c07"/><stop offset="0.37" stop-color="#429e19"/><stop offset="0.54" stop-color="#3f9a15"/><stop offset="0.72" stop-color="#348e09"/><stop offset="0.8" stop-color="#2d8601"/><stop offset="1" stop-color="#3a940f"/></linearGradient><linearGradient id="linear-gradient-41" x1="42.45" y1="51.79" x2="42.45" y2="19.34" gradientUnits="userSpaceOnUse"><stop offset="0" stop-color="#308201"/><stop offset="0.12" stop-color="#368807"/><stop offset="0.28" stop-color="#459a19"/><stop offset="0.37" stop-color="#50a626"/><stop offset="0.51" stop-color="#4da222"/><stop offset="0.65" stop-color="#429716"/><stop offset="0.79" stop-color="#318403"/><stop offset="0.8" stop-color="#308201"/><stop offset="1" stop-color="#429717"/></linearGradient><linearGradient id="linear-gradient-42" x1="42.44" y1="51.74" x2="42.44" y2="19.38" gradientUnits="userSpaceOnUse"><stop offset="0" stop-color="#337e01"/><stop offset="0.1" stop-color="#398407"/><stop offset="0.23" stop-color="#489619"/><stop offset="0.37" stop-color="#5dae32"/><stop offset="0.49" stop-color="#5aaa2e"/><stop offset="0.61" stop-color="#509f22"/><stop offset="0.73" stop-color="#3f8b0f"/><stop offset="0.8" stop-color="#337e01"/><stop offset="1" stop-color="#4b9a1e"/></linearGradient><linearGradient id="linear-gradient-43" x1="42.44" y1="51.68" x2="42.44" y2="19.42" gradientUnits="userSpaceOnUse"><stop offset="0" stop-color="#357902"/><stop offset="0.09" stop-color="#3b7f08"/><stop offset="0.21" stop-color="#4b921b"/><stop offset="0.34" stop-color="#65af38"/><stop offset="0.37" stop-color="#6ab53e"/><stop offset="0.48" stop-color="#67b13a"/><stop offset="0.59" stop-color="#5ca52e"/><stop offset="0.7" stop-color="#4b921b"/><stop offset="0.8" stop-color="#357902"/><stop offset="1" stop-color="#549c25"/></linearGradient><linearGradient id="linear-gradient-44" x1="42.43" y1="51.63" x2="42.43" y2="19.46" xlink:href="#linear-gradient-14"/></defs><title>left-small-tub</title><g class="cls-2"><g id="Layer_1" data-name="Layer 1"><path class="cls-3" d="M3,30.94,5.84,51.52h0a6.83,6.83,0,0,0,6.63,4.89H73.14a6.83,6.83,0,0,0,6.63-4.89h0l2.83-20.57Z" transform="translate(0 13.17)"/><path class="cls-4" d="M3,30.94,5.84,51.47h0a6.83,6.83,0,0,0,6.63,4.86H73.14a6.83,6.83,0,0,0,6.63-4.86h0l2.83-20.53Z" transform="translate(0 13.17)"/><path class="cls-5" d="M3,30.94,5.84,51.43h0a6.82,6.82,0,0,0,6.63,4.84H73.14a6.82,6.82,0,0,0,6.63-4.84h0l2.83-20.49Z" transform="translate(0 13.17)"/><path class="cls-6" d="M3,30.94,5.84,51.39h0a6.82,6.82,0,0,0,6.63,4.82H73.14a6.82,6.82,0,0,0,6.63-4.82h0l2.83-20.44Z" transform="translate(0 13.17)"/><path class="cls-7" d="M3,30.94l2.83,20.4h0a6.82,6.82,0,0,0,6.63,4.8H73.14a6.82,6.82,0,0,0,6.63-4.8h0l2.83-20.4Z" transform="translate(0 13.17)"/><path class="cls-8" d="M3,30.94,5.84,51.3h0a6.81,6.81,0,0,0,6.63,4.77H73.14a6.81,6.81,0,0,0,6.63-4.77h0l2.83-20.36Z" transform="translate(0 13.17)"/><path class="cls-9" d="M3,30.94,5.84,51.26h0A6.81,6.81,0,0,0,12.48,56H73.14a6.81,6.81,0,0,0,6.63-4.75h0l2.83-20.32Z" transform="translate(0 13.17)"/><path class="cls-10" d="M3,30.94,5.84,51.22h0a6.81,6.81,0,0,0,6.63,4.73H73.14a6.81,6.81,0,0,0,6.63-4.73h0l2.83-20.27Z" transform="translate(0 13.17)"/><path class="cls-11" d="M3,30.94,5.84,51.17h0a6.81,6.81,0,0,0,6.63,4.7H73.14a6.8,6.8,0,0,0,6.63-4.7h0l2.83-20.23Z" transform="translate(0 13.17)"/><path class="cls-12" d="M3,30.94,5.84,51.13h0a6.8,6.8,0,0,0,6.63,4.68H73.14a6.8,6.8,0,0,0,6.63-4.68h0l2.83-20.19Z" transform="translate(0 13.17)"/><path class="cls-13" d="M3,30.94,5.84,51.09h0a6.8,6.8,0,0,0,6.63,4.66H73.14a6.8,6.8,0,0,0,6.63-4.66h0l2.83-20.15Z" transform="translate(0 13.17)"/><path class="cls-14" d="M3,30.94,5.84,51h0a6.8,6.8,0,0,0,6.63,4.63H73.14A6.8,6.8,0,0,0,79.77,51h0l2.83-20.1Z" transform="translate(0 13.17)"/><path class="cls-15" d="M3,33.07,4.88,36c.9.92,3.41,1.56,6.63,1.56H73.14c3.22,0,5.74-.65,6.63-1.56l2.84-2.89Z" transform="translate(0 13.17)"/><path class="cls-16" d="M3,33.07l1.87,2.84c.9.9,3.41,1.54,6.63,1.54H73.14c3.22,0,5.74-.64,6.63-1.54l2.84-2.84Z" transform="translate(0 13.17)"/><path class="cls-17" d="M3,33.07l1.87,2.8c.9.89,3.41,1.51,6.63,1.51H73.14c3.22,0,5.74-.63,6.63-1.51l2.84-2.8Z" transform="translate(0 13.17)"/><path class="cls-18" d="M3,33.07l1.87,2.75c.9.87,3.41,1.49,6.63,1.49H73.14c3.22,0,5.74-.62,6.63-1.49l2.84-2.75Z" transform="translate(0 13.17)"/><path class="cls-19" d="M3,33.07l1.87,2.71c.9.86,3.41,1.46,6.63,1.46H73.14c3.22,0,5.74-.61,6.63-1.46l2.84-2.71Z" transform="translate(0 13.17)"/><path class="cls-20" d="M3,33.07l1.87,2.66c.9.84,3.41,1.44,6.63,1.44H73.14c3.22,0,5.74-.6,6.63-1.44l2.84-2.66Z" transform="translate(0 13.17)"/><path class="cls-21" d="M3,33.07l1.87,2.61c.9.83,3.41,1.41,6.63,1.41H73.14c3.22,0,5.74-.59,6.63-1.41l2.84-2.61Z" transform="translate(0 13.17)"/><path class="cls-22" d="M3,33.07l1.87,2.57c.9.81,3.41,1.39,6.63,1.39H73.14c3.22,0,5.74-.57,6.63-1.39l2.84-2.57Z" transform="translate(0 13.17)"/><path class="cls-23" d="M3,33.07l1.87,2.52c.9.8,3.41,1.36,6.63,1.36H73.14c3.22,0,5.74-.56,6.63-1.36l2.84-2.52Z" transform="translate(0 13.17)"/><path class="cls-24" d="M3,33.07l1.87,2.47c.9.78,3.41,1.34,6.63,1.34H73.14c3.22,0,5.74-.55,6.63-1.34l2.84-2.47Z" transform="translate(0 13.17)"/><path class="cls-25" d="M3,33.07,4.88,35.5c.9.77,3.41,1.31,6.63,1.31H73.14c3.22,0,5.74-.54,6.63-1.31l2.84-2.43Z" transform="translate(0 13.17)"/><path class="cls-26" d="M3,33.07l1.87,2.38c.9.76,3.41,1.29,6.63,1.29H73.14c3.22,0,5.74-.53,6.63-1.29l2.84-2.38Z" transform="translate(0 13.17)"/><path class="cls-27" d="M84.56,26.56,81.05,6.68C80.39,2.93,76,0,71,0H14.59c-5,0-9.37,2.93-10,6.68L.08,32.37a2.73,2.73,0,0,0,0,.82h0l.16,1.2h0a2.33,2.33,0,0,0,2.42,2H75.36a9.74,9.74,0,0,0,7.52-3.11,6.7,6.7,0,0,0,1.57-3.5h0l.16-1.22h0A6.74,6.74,0,0,0,84.56,26.56Z" transform="translate(0 13.17)"/><path class="cls-28" d="M0,32.37,4.53,6.68C5.19,2.93,9.59,0,14.55,0H71c5,0,9.37,2.93,10,6.68l3.51,19.88A6.65,6.65,0,0,1,83,32.11a9.78,9.78,0,0,1-7.55,3.13h-73A2.36,2.36,0,0,1,0,32.37Z" transform="translate(0 13.17)"/><path class="cls-29" d="M2.49,34.95A2.15,2.15,0,0,1,.8,34.21a2.15,2.15,0,0,1-.43-1.79L4.85,6.73C5.49,3.12,9.77.29,14.59.29H71c4.83,0,9.11,2.83,9.74,6.44l3.51,19.88a6.37,6.37,0,0,1-1.46,5.31,9.49,9.49,0,0,1-7.33,3Z" transform="translate(0 13.17)"/><path class="cls-30" d="M.72,33.45,5.17,7.4C5.8,3.74,10,.87,14.83.87h56c4.79,0,9,2.87,9.66,6.53l3.48,20.16a6.6,6.6,0,0,1-.11,2.79,6.32,6.32,0,0,0,.46-3.74L80.77,6.73C80.13,3.12,75.85.29,71,.29H14.59C9.77.29,5.49,3.12,4.85,6.73L.37,32.42a2.18,2.18,0,0,0,.32,1.64A2.59,2.59,0,0,1,.72,33.45Z" transform="translate(0 13.17)"/><path class="cls-31" d="M83,27.19h0a5.38,5.38,0,0,0-.08-.92L79.43,6.16C78.91,3.15,75.15.77,71,.77H14.59c-4.12,0-7.88,2.38-8.41,5.39L2.68,26.27a5.37,5.37,0,0,0-.08.92h0v1.45h0c0,3.3,3.16,5.92,7.54,5.92H75.48c4.38,0,7.54-2.61,7.54-5.92h0Z" transform="translate(0 13.17)"/><path class="cls-32" d="M82.94,26.27c.65,3.73-2.68,6.84-7.45,6.84H10.13C5.36,33.11,2,30,2.68,26.27L6.19,6.16c.53-3,4.28-5.39,8.41-5.39H71c4.12,0,7.88,2.38,8.41,5.39Z" transform="translate(0 13.17)"/><path class="cls-33" d="M14.59,1.06c-4,0-7.63,2.31-8.12,5.15L3,26.32a4.81,4.81,0,0,0,1.1,4,7.81,7.81,0,0,0,6.07,2.47H42.81V1.06Z" transform="translate(0 13.17)"/><path class="cls-33" d="M82.65,26.32,79.15,6.21C78.65,3.37,75,1.06,71,1.06H42.81V32.82H75.48a7.81,7.81,0,0,0,6.07-2.47A4.81,4.81,0,0,0,82.65,26.32Z" transform="translate(0 13.17)"/><g class="cls-34"><ellipse class="cls-35" cx="8.03" cy="2.17" rx="3.09" ry="15.67" transform="translate(-0.28 14.9) rotate(-12.15)"/><ellipse class="cls-36" cx="79.66" cy="2.17" rx="15.67" ry="3.09" transform="translate(60.77 92.76) rotate(-77.85)"/><path class="cls-37" d="M80.11,41.21c.6,4.06-2.67,7.44-7.08,7.44H12.59c-4.42,0-7.69-3.39-7.08-7.44L8.94,19.33c.49-3.28,4-5.87,7.77-5.87H68.9c3.81,0,7.29,2.59,7.78,5.87Z" transform="translate(0 13.17)"/><path class="cls-38" d="M80,41.18c.6,4-2.64,7.42-7,7.42H12.69c-4.4,0-7.65-3.37-7-7.42L9,19.38c.48-3.27,3.95-5.84,7.75-5.84h52c3.8,0,7.27,2.58,7.75,5.84Z" transform="translate(0 13.17)"/><path class="cls-39" d="M79.85,41.14c.6,4-2.62,7.39-7,7.39H12.78c-4.39,0-7.61-3.36-7-7.39L9.15,19.42c.48-3.25,3.94-5.82,7.73-5.82H68.74c3.79,0,7.24,2.57,7.73,5.82Z" transform="translate(0 13.17)"/><path class="cls-40" d="M79.72,41.1c.6,4-2.59,7.36-7,7.36H12.87c-4.38,0-7.57-3.35-7-7.36L9.25,19.46c.48-3.24,3.92-5.8,7.7-5.8H68.66c3.78,0,7.22,2.56,7.7,5.8Z" transform="translate(0 13.17)"/><path class="cls-41" d="M79.59,41.06c.59,4-2.57,7.33-6.93,7.33H13c-4.36,0-7.53-3.34-6.93-7.33L9.35,19.51c.48-3.23,3.91-5.78,7.68-5.78H68.58c3.77,0,7.2,2.55,7.68,5.78Z" transform="translate(0 13.17)"/><path class="cls-42" d="M79.46,41c.59,4-2.54,7.3-6.89,7.3H13.05C8.7,48.33,5.57,45,6.16,41l3.3-21.47c.48-3.22,3.9-5.76,7.66-5.76H68.51c3.76,0,7.18,2.54,7.66,5.76Z" transform="translate(0 13.17)"/><path class="cls-43" d="M79.33,41c.59,4-2.52,7.28-6.85,7.28H13.14c-4.34,0-7.45-3.31-6.85-7.28L9.56,19.6c.48-3.2,3.89-5.73,7.63-5.73H68.43c3.74,0,7.16,2.53,7.63,5.73Z" transform="translate(0 13.17)"/><path class="cls-44" d="M79.2,40.94c.59,4-2.49,7.25-6.82,7.25H13.24c-4.32,0-7.41-3.3-6.82-7.25l3.24-21.3c.48-3.19,3.88-5.71,7.61-5.71H68.35c3.73,0,7.13,2.52,7.61,5.71Z" transform="translate(0 13.17)"/><path class="cls-45" d="M79.07,40.91c.59,3.93-2.47,7.22-6.78,7.22h-59C9,48.13,6,44.84,6.55,40.91L9.76,19.69c.47-3.18,3.86-5.69,7.59-5.69H68.27c3.72,0,7.11,2.51,7.59,5.69Z" transform="translate(0 13.17)"/><path class="cls-46" d="M78.94,40.87c.58,3.92-2.44,7.19-6.74,7.19H13.42c-4.3,0-7.33-3.27-6.74-7.19L9.87,19.73c.47-3.17,3.85-5.67,7.56-5.67H68.19c3.71,0,7.09,2.5,7.56,5.67Z" transform="translate(0 13.17)"/><path class="cls-47" d="M78.81,40.83c.58,3.9-2.42,7.16-6.7,7.16H13.51c-4.28,0-7.28-3.26-6.7-7.16L10,19.78c.47-3.15,3.84-5.64,7.54-5.64h50.6c3.7,0,7.07,2.49,7.54,5.64Z" transform="translate(0 13.17)"/><path class="cls-48" d="M78.68,40.79c.58,3.89-2.39,7.13-6.66,7.13H13.6c-4.27,0-7.24-3.25-6.66-7.13l3.13-21c.47-3.14,3.83-5.62,7.52-5.62H68c3.69,0,7,2.48,7.52,5.62Z" transform="translate(0 13.17)"/><path class="cls-49" d="M70.44,39c.11,1.21-1.4,2.19-2.77,2.19H17.29c-1.38,0-2.88-1-2.77-2.19l2-16.95A2.4,2.4,0,0,1,19,20.16H65.9a2.4,2.4,0,0,1,2.5,1.92Z" transform="translate(0 13.17)"/><path class="cls-50" d="M70.38,39c.11,1.21-1.37,2.19-2.74,2.19H17.31c-1.38,0-2.85-1-2.74-2.19l2-16.92a2.39,2.39,0,0,1,2.48-1.92H65.88a2.39,2.39,0,0,1,2.48,1.92Z" transform="translate(0 13.17)"/><path class="cls-51" d="M70.32,39c.11,1.2-1.34,2.19-2.71,2.19H17.34c-1.37,0-2.83-1-2.71-2.19l2-16.88A2.37,2.37,0,0,1,19.1,20.2H65.85a2.37,2.37,0,0,1,2.47,1.92Z" transform="translate(0 13.17)"/><path class="cls-52" d="M70.27,39c.11,1.2-1.31,2.18-2.69,2.18H17.37c-1.37,0-2.8-1-2.69-2.18l2-16.85a2.36,2.36,0,0,1,2.46-1.91H65.83a2.36,2.36,0,0,1,2.46,1.91Z" transform="translate(0 13.17)"/><path class="cls-53" d="M70.21,39c.11,1.2-1.29,2.18-2.66,2.18H17.4c-1.37,0-2.77-1-2.66-2.18l2-16.82a2.35,2.35,0,0,1,2.45-1.91H65.8a2.35,2.35,0,0,1,2.45,1.91Z" transform="translate(0 13.17)"/><path class="cls-54" d="M70.15,39c.11,1.2-1.26,2.17-2.63,2.17H17.42c-1.37,0-2.74-1-2.63-2.17l1.94-16.79a2.34,2.34,0,0,1,2.44-1.91h46.6a2.34,2.34,0,0,1,2.44,1.91Z" transform="translate(0 13.17)"/><path class="cls-55" d="M70.1,38.94c.11,1.19-1.23,2.17-2.6,2.17h-50c-1.37,0-2.71-1-2.6-2.17l1.92-16.76a2.32,2.32,0,0,1,2.43-1.9H65.75a2.32,2.32,0,0,1,2.43,1.9Z" transform="translate(0 13.17)"/><path class="cls-56" d="M70,38.93c.11,1.19-1.2,2.16-2.57,2.16h-50c-1.37,0-2.68-1-2.57-2.16l1.9-16.73a2.31,2.31,0,0,1,2.42-1.9h46.5a2.31,2.31,0,0,1,2.42,1.9Z" transform="translate(0 13.17)"/><path class="cls-57" d="M70,38.91c.11,1.19-1.18,2.16-2.54,2.16H17.51c-1.36,0-2.65-1-2.54-2.16l1.88-16.7a2.3,2.3,0,0,1,2.4-1.9H65.7a2.3,2.3,0,0,1,2.4,1.9Z" transform="translate(0 13.17)"/><path class="cls-58" d="M69.93,38.89c.11,1.19-1.15,2.16-2.51,2.16H17.53c-1.36,0-2.62-1-2.51-2.16l1.86-16.66a2.29,2.29,0,0,1,2.39-1.89h46.4a2.29,2.29,0,0,1,2.39,1.89Z" transform="translate(0 13.17)"/><path class="cls-59" d="M69.87,38.88C70,40.06,68.75,41,67.39,41H17.56c-1.36,0-2.59-1-2.48-2.15l1.84-16.63a2.27,2.27,0,0,1,2.38-1.89H65.65A2.27,2.27,0,0,1,68,22.25Z" transform="translate(0 13.17)"/><path class="cls-60" d="M69.81,38.86A2.25,2.25,0,0,1,67.36,41H17.59a2.25,2.25,0,0,1-2.45-2.15L17,22.26a2.26,2.26,0,0,1,2.37-1.89h46.3A2.26,2.26,0,0,1,68,22.26Z" transform="translate(0 13.17)"/><path class="cls-61" d="M17.59,39.86a1.38,1.38,0,0,1-1.07-.43.6.6,0,0,1-.15-.45l1.54-16.6c0-.35.6-.85,1.42-.85h46.3c.82,0,1.39.5,1.42.85L68.58,39a.6.6,0,0,1-.15.45,1.38,1.38,0,0,1-1.07.43Z" transform="translate(0 13.17)"/><path class="cls-29" d="M16.94,39l1.62-16.75a.85.85,0,0,1,.76-.34h46.3a.85.85,0,0,1,.76.34L68,39h0C67.91,39.12,16.94,39,16.94,39Z" transform="translate(0 13.17)"/><path class="cls-62" d="M18.61,22.27a.81.81,0,0,1,.74-.32H65.6a.85.85,0,0,1,.76.32L67.95,39h0c-.08.09-51,0-51,0Z" transform="translate(0 13.17)"/><path class="cls-63" d="M18.65,22.28a.78.78,0,0,1,.73-.31h46.2a.85.85,0,0,1,.76.31L67.89,39h0C67.83,39.06,17,39,17,39Z" transform="translate(0 13.17)"/><path class="cls-64" d="M18.69,22.3c.07-.11.22-.29.71-.29H65.55a.86.86,0,0,1,.76.29L67.83,39h0c0,.06-50.76,0-50.76,0Z" transform="translate(0 13.17)"/><path class="cls-65" d="M18.73,22.31c.07-.11.21-.27.69-.27H65.53c.48,0,.68.17.76.27L67.78,39h0s-50.67,0-50.67,0Z" transform="translate(0 13.17)"/><path class="cls-66" d="M18.77,22.33c.07-.11.19-.25.68-.25H65.51c.48,0,.68.15.76.25L67.72,39h0s-50.57,0-50.57,0Z" transform="translate(0 13.17)"/><path class="cls-67" d="M17.19,39l1.61-16.61c.07-.11.18-.23.66-.23h46c.48,0,.68.13.76.23L67.66,39Z" transform="translate(0 13.17)"/><path class="cls-68" d="M82.56,29.94,79.05,9.3C78.56,6.43,75,4.1,71,4.1H14.59c-3.94,0-7.54,2.33-8,5.2L3.06,29.94A4.93,4.93,0,0,0,4.14,34a7.62,7.62,0,0,0,6,2.5H75.48a7.62,7.62,0,0,0,6-2.5A4.93,4.93,0,0,0,82.56,29.94Zm-1.23,3.93a7.43,7.43,0,0,1-5.84,2.43H10.13a7.43,7.43,0,0,1-5.84-2.43,4.74,4.74,0,0,1-1-3.9L6.76,9.34c.47-2.78,4-5,7.84-5H71c3.85,0,7.36,2.26,7.84,5L82.37,30A4.74,4.74,0,0,1,81.33,33.87Z" transform="translate(0 13.17)"/></g></g></g></svg>