<svg id="Layer_1" data-name="Layer 1" xmlns="http://www.w3.org/2000/svg" xmlns:xlink="http://www.w3.org/1999/xlink" viewBox="0 0 137.3 161.75"><defs><style>.cls-1{fill:url(#linear-gradient);}.cls-2{fill:url(#radial-gradient);}.cls-3{fill:url(#linear-gradient-2);}.cls-4{fill:url(#linear-gradient-3);}.cls-5{fill:url(#linear-gradient-4);}.cls-6{fill:url(#linear-gradient-5);}.cls-7{fill:#fff;opacity:0.3;}.cls-8{fill:url(#linear-gradient-6);}</style><linearGradient id="linear-gradient" y1="80.87" x2="137.3" y2="80.87" gradientUnits="userSpaceOnUse"><stop offset="0" stop-color="#77bd4b"/><stop offset="0.15" stop-color="#71b644"/><stop offset="0.36" stop-color="#60a330"/><stop offset="0.61" stop-color="#448310"/><stop offset="0.71" stop-color="#387502"/><stop offset="0.79" stop-color="#3d7a08"/><stop offset="0.9" stop-color="#4b8a18"/><stop offset="1" stop-color="#5d9f2d"/></linearGradient><radialGradient id="radial-gradient" cx="79.06" cy="-720.67" r="111.54" gradientTransform="translate(0 602.62) scale(1 0.73)" gradientUnits="userSpaceOnUse"><stop offset="0" stop-color="#77bd4b"/><stop offset="0.21" stop-color="#71b644"/><stop offset="0.51" stop-color="#60a330"/><stop offset="0.87" stop-color="#448310"/><stop offset="1" stop-color="#387502"/></radialGradient><linearGradient id="linear-gradient-2" x1="-0.37" y1="51.57" x2="104.35" y2="77.75" gradientUnits="userSpaceOnUse"><stop offset="0" stop-color="#f2f9ee"/><stop offset="0.09" stop-color="#e1f1d7"/><stop offset="0.31" stop-color="#bbdea5"/><stop offset="0.52" stop-color="#9ed07e"/><stop offset="0.71" stop-color="#88c662"/><stop offset="0.88" stop-color="#7cbf51"/><stop offset="1" stop-color="#77bd4b"/></linearGradient><linearGradient id="linear-gradient-3" x1="175.89" y1="128.44" x2="70.54" y2="128.8" xlink:href="#linear-gradient-2"/><linearGradient id="linear-gradient-4" x1="4.11" y1="49.15" x2="94.97" y2="71.87" xlink:href="#linear-gradient-2"/><linearGradient id="linear-gradient-5" x1="2.49" y1="54.06" x2="93.34" y2="76.78" xlink:href="#linear-gradient-2"/><linearGradient id="linear-gradient-6" x1="51.08" y1="7.08" x2="66.26" y2="7.08" xlink:href="#linear-gradient-2"/></defs><title>right-container</title><path class="cls-1" d="M133.64,70h0l-.05-.15q-.33-1-.68-1.92l-.07-.2q-1.12-3-2.5-5.89l-.1-.2q-.45-.92-.92-1.83l-.13-.25q-1.46-2.78-3.15-5.4l-.14-.23q-.52-.8-1.06-1.58l-.3-.42q-1.69-2.41-3.57-4.66l-.32-.38c-.36-.43-.73-.85-1.11-1.27L119,45c-.36-.4-.73-.79-1.1-1.18l-.58-.59q-1-1-2-2l-.74-.69-1-.92-.88-.76-1-.85-1.05-.83-.91-.71q-.93-.7-1.88-1.36l-.88-.6-1.27-.84-.91-.58-1.42-.85-.77-.45q-1.07-.61-2.16-1.18l-.66-.33q-.83-.42-1.67-.82l-.82-.38-1.68-.73-.72-.3c-.79-.32-1.59-.63-2.39-.92L92.06,27q-1-.37-2.09-.7l-.79-.24-1.82-.52-.76-.2c-.85-.22-1.69-.42-2.55-.6V15.14C85.59,14,91.69,9.26,91,5.32,90.17.94,83.78,0,83.44,0H53.79c-.27,0-6.66.94-7.46,5.31-.72,3.94,5.38,8.7,6.92,9.82v9.62c-.86.18-1.71.39-2.55.6l-.76.2-1.81.52-.8.24q-1,.33-2.06.69l-.42.14c-.8.29-1.59.6-2.38.91l-.75.32-1.64.71-.86.39-1.61.79-.72.36q-1.08.56-2.13,1.16l-.84.49-1.34.8-1,.61-1.18.78-1,.65q-.8.56-1.58,1.15c-.43.32-.86.65-1.28,1l-.93.74-1.09.91-.78.67-1.13,1-.5.47Q21,42.19,19.83,43.37l-.39.4c-.4.42-.8.85-1.19,1.28l-.43.48c-.41.45-.81.91-1.2,1.38l-.13.16q-2,2.38-3.8,5l-.16.23A70.58,70.58,0,0,0,0,92.55c0,38.16,29.91,69.2,66.68,69.2.68,0,1.32,0,2-.06s1.29.06,2,.06c36.77,0,66.68-31,66.68-69.2A71.23,71.23,0,0,0,133.64,70ZM70.57,159.27c-.66,0-1.28,0-1.92-.06s-1.26.06-1.92.06c-35.86,0-65-30.28-65-67.49A65.39,65.39,0,0,1,6.11,68.19c8.05-3.81,33-6.59,62.54-6.59s54.48,2.78,62.54,6.58a65.39,65.39,0,0,1,4.42,23.59C135.6,129,106.43,159.27,70.57,159.27Z"/><path class="cls-2" d="M133.94,70.87h0c-.1-.63-.19-1.26-.29-1.89a8.11,8.11,0,0,0-1.18-2.26c-7.83-20.11-24.52-35.53-45-41.08a9.08,9.08,0,0,1-3,.47,8.68,8.68,0,0,1-4-.89c-6.95-1.46-16.28-1-23.3-.09a8.78,8.78,0,0,1-2,.48,9.37,9.37,0,0,1-5.11,0C29.48,31.1,12.7,46.54,4.84,66.73A8.11,8.11,0,0,0,3.66,69q-.15.94-.29,1.89h0A71.35,71.35,0,0,0,0,92.55c0,38.16,29.91,69.2,66.68,69.2.68,0,1.31,0,2-.06s1.29.06,2,.06c36.77,0,66.68-31,66.68-69.2A71.27,71.27,0,0,0,133.94,70.87Z"/><path class="cls-3" d="M55.28,29.31C26.16,35.93,6.9,59.68,5.39,89.17,12,60.8,33.67,38.41,55.28,29.31Z"/><path class="cls-4" d="M75.67,155.94c29.59-3.63,51-25.31,55.29-54.51C121.73,129,98,149.08,75.67,155.94Z"/><ellipse class="cls-5" cx="39.8" cy="58.08" rx="5.76" ry="5.98"/><ellipse class="cls-6" cx="46.33" cy="65.02" rx="2.53" ry="2.62"/><path class="cls-7" d="M89.94,6.62C90,11.5,83.67,15,67.85,15c-14.22,0-20.66-4-20.66-8.82C47.19,0,56.26.86,68.25.86S89.93-.64,89.94,6.62Z"/><path class="cls-8" d="M66.26,7c0,1.44-3.4,2.07-7.59,2s-7.59-1.09-7.59-3c0-.91,3.17-.86,7.59-.68C63.66,5.52,66.26,6.08,66.26,7Z"/></svg>