<svg xmlns="http://www.w3.org/2000/svg" xmlns:xlink="http://www.w3.org/1999/xlink" viewBox="0 0 79.19 75.51"><defs><style>.cls-1{isolation:isolate;}.cls-2{fill:url(#linear-gradient);}.cls-12,.cls-3{opacity:0.5;}.cls-3{mix-blend-mode:multiply;}.cls-4{fill:#bee2f3;opacity:0;}.cls-5{fill:#b6dbef;opacity:0.06;}.cls-6{fill:#aad6ef;opacity:0.13;}.cls-7{fill:#9ed2ec;opacity:0.19;}.cls-8{fill:#95cdea;opacity:0.25;}.cls-9{fill:#8ac9e8;opacity:0.31;}.cls-10{fill:#80c3e7;opacity:0.38;}.cls-11{fill:#78bfe5;opacity:0.44;}.cls-12{fill:#6eb9e3;}.cls-13{fill:#65b4df;opacity:0.56;}.cls-14,.cls-28{fill:#5cb0de;}.cls-14{opacity:0.63;}.cls-15{fill:#53acdc;opacity:0.69;}.cls-16{fill:#4aa9db;opacity:0.75;}.cls-17{fill:#42a3d9;opacity:0.81;}.cls-18{fill:#37a0d7;opacity:0.88;}.cls-19{fill:#309cd6;opacity:0.94;}.cls-20{fill:#2998d2;}.cls-21{opacity:0.55;fill:url(#linear-gradient-2);}.cls-21,.cls-39,.cls-40{mix-blend-mode:screen;}.cls-22{fill:#89c8e8;}.cls-23{fill:#7fc3e6;}.cls-24{fill:#7abee4;}.cls-25{fill:#73bbe2;}.cls-26{fill:#69b8e1;}.cls-27{fill:#63b4e0;}.cls-29{fill:#55acdd;}.cls-30{fill:#4ca9dc;}.cls-31{fill:#45a6da;}.cls-32{fill:#3da2da;}.cls-33{fill:#38a0d7;}.cls-34{fill:#319dd6;}.cls-35{fill:#2999d6;}.cls-36{fill:#2995d0;}.cls-37{fill:#2891c8;}.cls-38{fill:#288bc0;}.cls-39,.cls-40{opacity:0.7;}.cls-39{fill:url(#linear-gradient-3);}.cls-40{fill:url(#linear-gradient-4);}.cls-41{fill:url(#linear-gradient-5);}.cls-42{fill:url(#radial-gradient);}.cls-43{fill:#fbfbfb;opacity:0.8;}.cls-44{fill:url(#linear-gradient-6);}.cls-45{fill:url(#linear-gradient-7);}.cls-46{fill:url(#linear-gradient-8);}.cls-47{fill:url(#linear-gradient-9);}.cls-48{fill:url(#linear-gradient-10);}.cls-49{fill:url(#linear-gradient-11);}.cls-50{fill:url(#linear-gradient-12);}.cls-51{fill:url(#linear-gradient-13);}.cls-52{fill:url(#linear-gradient-14);}.cls-53{fill:url(#linear-gradient-15);}.cls-54{fill:url(#linear-gradient-16);}.cls-55{fill:url(#linear-gradient-17);}.cls-56{fill:url(#linear-gradient-18);}.cls-57{fill:url(#linear-gradient-19);}.cls-58{fill:url(#linear-gradient-20);}.cls-59{fill:url(#linear-gradient-21);}.cls-60{fill:url(#linear-gradient-22);}.cls-61{fill:url(#radial-gradient-2);}.cls-62{fill:url(#radial-gradient-3);}.cls-63{fill:url(#linear-gradient-23);}.cls-64{fill:url(#linear-gradient-24);}.cls-65{fill:url(#linear-gradient-25);}.cls-66{fill:url(#linear-gradient-26);}.cls-67{fill:url(#linear-gradient-27);}.cls-68{fill:url(#linear-gradient-28);}.cls-69{fill:#221f1f;}.cls-70{fill:#fff;}</style><linearGradient id="linear-gradient" x1="-617.99" y1="37.75" x2="-563.4" y2="37.75" gradientTransform="matrix(-1, 0, 0, 1, -538.81, 0)" gradientUnits="userSpaceOnUse"><stop offset="0" stop-color="#8fc8e9"/><stop offset="0.01" stop-color="#80c1e6"/><stop offset="0.03" stop-color="#64b5e1"/><stop offset="0.05" stop-color="#53addd"/><stop offset="0.06" stop-color="#4daadc"/><stop offset="0.19" stop-color="#7fc2e6"/><stop offset="0.43" stop-color="#7dc1e5"/><stop offset="0.7" stop-color="#2d9cd6"/><stop offset="0.74" stop-color="#288bc0"/><stop offset="0.85" stop-color="#288cc2"/><stop offset="0.88" stop-color="#2891c9"/><stop offset="0.88" stop-color="#2891c9"/><stop offset="0.91" stop-color="#359ed6"/><stop offset="1" stop-color="#7abfe4"/></linearGradient><linearGradient id="linear-gradient-2" x1="-607.07" y1="32.3" x2="-594.76" y2="32.3" gradientTransform="matrix(-1, 0, 0, 1, -538.81, 0)" gradientUnits="userSpaceOnUse"><stop offset="0"/><stop offset="0.15" stop-color="#99cdea"/><stop offset="0.85" stop-color="#99cdea"/><stop offset="1"/></linearGradient><linearGradient id="linear-gradient-3" x1="-564.01" y1="42.77" x2="-542.19" y2="42.77" gradientTransform="matrix(-1, 0, 0, 1, -538.81, 0)" gradientUnits="userSpaceOnUse"><stop offset="0" stop-color="#8d8d8d"/><stop offset="0.54" stop-color="#8d8d8d"/><stop offset="0.66" stop-color="#8a8a8a"/><stop offset="0.73" stop-color="#828282"/><stop offset="0.8" stop-color="#737373"/><stop offset="0.86" stop-color="#5e5e5e"/><stop offset="0.91" stop-color="#424242"/><stop offset="0.96" stop-color="#222"/><stop offset="1"/></linearGradient><linearGradient id="linear-gradient-4" x1="-564.08" y1="21.23" x2="-539.82" y2="21.23" xlink:href="#linear-gradient-3"/><linearGradient id="linear-gradient-5" x1="-590.7" y1="6.25" x2="-590.7" gradientTransform="matrix(-1, 0, 0, 1, -538.81, 0)" gradientUnits="userSpaceOnUse"><stop offset="0.04" stop-color="#fff"/><stop offset="0.11" stop-color="#f5f4f6"/><stop offset="0.3" stop-color="#dedde1"/><stop offset="0.5" stop-color="#ceccd2"/><stop offset="0.72" stop-color="#c5c2ca"/><stop offset="1" stop-color="#c2bfc7"/></linearGradient><radialGradient id="radial-gradient" cx="-104.5" cy="20662.4" r="90.8" gradientTransform="matrix(-0.39, 0, 0, 0.04, 10.85, -905.25)" gradientUnits="userSpaceOnUse"><stop offset="0" stop-color="#e1e1e7"/><stop offset="0.19" stop-color="#dcdce2"/><stop offset="0.43" stop-color="#cdcdd4"/><stop offset="0.69" stop-color="#b5b5bc"/><stop offset="0.96" stop-color="#92939b"/><stop offset="1" stop-color="#8d8e96"/></radialGradient><linearGradient id="linear-gradient-6" x1="-570.39" y1="34.28" x2="-569.5" y2="38.64" gradientTransform="matrix(-1, 0, 0, 1, -502.83, 0)" gradientUnits="userSpaceOnUse"><stop offset="0" stop-color="#84c241"/><stop offset="0.02" stop-color="#89c441"/><stop offset="0.17" stop-color="#a3cd43"/><stop offset="0.3" stop-color="#b3d345"/><stop offset="0.4" stop-color="#b9d545"/><stop offset="1" stop-color="#456f34"/></linearGradient><linearGradient id="linear-gradient-7" x1="-571.25" y1="48.36" x2="-567.28" y2="49.35" gradientTransform="matrix(-1, 0, 0, 1, -502.83, 0)" gradientUnits="userSpaceOnUse"><stop offset="0" stop-color="#456f34"/><stop offset="0.6" stop-color="#b9d545"/><stop offset="0.7" stop-color="#b3d345"/><stop offset="0.83" stop-color="#a3cd43"/><stop offset="0.98" stop-color="#89c441"/><stop offset="1" stop-color="#84c241"/></linearGradient><linearGradient id="linear-gradient-8" x1="-570.74" y1="49.5" x2="-572.11" y2="55.6" gradientTransform="matrix(-1, 0, 0, 1, -502.83, 0)" gradientUnits="userSpaceOnUse"><stop offset="0" stop-color="#b9d545"/><stop offset="0.24" stop-color="#d5b136"/><stop offset="0.47" stop-color="#ec922a"/><stop offset="0.61" stop-color="#f58725"/><stop offset="1" stop-color="#965624"/></linearGradient><linearGradient id="linear-gradient-9" x1="-545.54" y1="40.89" x2="-542.53" y2="40.89" gradientTransform="matrix(-1, 0, 0, 1, -502.83, 0)" gradientUnits="userSpaceOnUse"><stop offset="0" stop-color="#264b9b"/><stop offset="1" stop-color="#10bef0"/></linearGradient><linearGradient id="linear-gradient-10" x1="-541.62" y1="42.28" x2="-538.38" y2="42.28" xlink:href="#linear-gradient-9"/><linearGradient id="linear-gradient-11" x1="-544.71" y1="41.53" x2="-536.97" y2="40.74" xlink:href="#linear-gradient-7"/><linearGradient id="linear-gradient-12" x1="-572.04" y1="45.01" x2="-571.21" y2="42.07" xlink:href="#linear-gradient-7"/><linearGradient id="linear-gradient-13" x1="-571.81" y1="43.93" x2="-569.45" y2="35.62" xlink:href="#linear-gradient-7"/><linearGradient id="linear-gradient-14" x1="-557.24" y1="52.1" x2="-553.31" y2="38.2" xlink:href="#linear-gradient-7"/><linearGradient id="linear-gradient-15" x1="-552.99" y1="52.87" x2="-552.25" y2="46.18" xlink:href="#linear-gradient-9"/><linearGradient id="linear-gradient-16" x1="-8942.23" y1="51.67" x2="-8932.8" y2="51.67" gradientTransform="translate(8977.99)" xlink:href="#linear-gradient-9"/><linearGradient id="linear-gradient-17" x1="-545.23" y1="61.19" x2="-550.35" y2="63.33" xlink:href="#linear-gradient-8"/><linearGradient id="linear-gradient-18" x1="-545.66" y1="61.14" x2="-549.88" y2="58.22" xlink:href="#linear-gradient-8"/><linearGradient id="linear-gradient-19" x1="-547.29" y1="50.44" x2="-542.78" y2="53.19" xlink:href="#linear-gradient-7"/><linearGradient id="linear-gradient-20" x1="-539.12" y1="56.6" x2="-536.45" y2="61.02" xlink:href="#linear-gradient-7"/><linearGradient id="linear-gradient-21" x1="-540.55" y1="52.62" x2="-538.96" y2="56.71" xlink:href="#linear-gradient-7"/><linearGradient id="linear-gradient-22" x1="-8913.78" y1="39.57" x2="-8906.8" y2="39.57" gradientTransform="translate(8977.99)" xlink:href="#linear-gradient-6"/><radialGradient id="radial-gradient-2" cx="-8948.07" cy="40.22" r="2.94" gradientTransform="translate(11033.55 -0.92) scale(1.23 0.99)" gradientUnits="userSpaceOnUse"><stop offset="0" stop-color="#3066af"/><stop offset="0.71" stop-color="#2b60ab"/><stop offset="1" stop-color="#285ca8"/></radialGradient><radialGradient id="radial-gradient-3" cx="-8948" cy="40.37" r="2.74" gradientTransform="translate(11033.55 -0.92) scale(1.23 0.99)" gradientUnits="userSpaceOnUse"><stop offset="0" stop-color="#ed4523"/><stop offset="0.13" stop-color="#e74322"/><stop offset="0.3" stop-color="#d73e20"/><stop offset="0.49" stop-color="#bb351d"/><stop offset="0.69" stop-color="#952918"/><stop offset="0.91" stop-color="#651912"/><stop offset="1" stop-color="#4e120f"/></radialGradient><linearGradient id="linear-gradient-23" x1="-554.04" y1="45.8" x2="-555.18" y2="50.98" gradientTransform="matrix(-1, 0, 0, 1, -502.83, 0)" gradientUnits="userSpaceOnUse"><stop offset="0" stop-color="#fbed34"/><stop offset="0.17" stop-color="#e9e739"/><stop offset="0.49" stop-color="#cfdd3f"/><stop offset="0.78" stop-color="#bfd744"/><stop offset="1" stop-color="#b9d545"/></linearGradient><linearGradient id="linear-gradient-24" x1="-8939.51" y1="50.89" x2="-8930.09" y2="50.89" gradientTransform="translate(8977.99)" xlink:href="#linear-gradient-9"/><linearGradient id="linear-gradient-25" x1="-560.34" y1="60.71" x2="-566.81" y2="65.1" xlink:href="#linear-gradient-8"/><linearGradient id="linear-gradient-26" x1="-564.31" y1="50.2" x2="-556.29" y2="47.92" xlink:href="#linear-gradient-7"/><linearGradient id="linear-gradient-27" x1="-561" y1="56.17" x2="-556.43" y2="58.11" xlink:href="#linear-gradient-7"/><linearGradient id="linear-gradient-28" x1="-560.86" y1="51.19" x2="-557.07" y2="47.49" xlink:href="#linear-gradient-9"/></defs><title>right-mug</title><g class="cls-1"><g id="Layer_1" data-name="Layer 1"><path class="cls-2" d="M24.59,67.87a3.11,3.11,0,0,0,.78,2.06c6.24,7.09,46.82,7.82,53.14-.08a3.1,3.1,0,0,0,.68-1.94V3.78A1.76,1.76,0,0,0,78,2.13C74.21.71,63.05,0,51.89,0c-3.35,0-21,.16-26.16,2.13a1.76,1.76,0,0,0-1.13,1.64Z"/><g class="cls-3"><path class="cls-4" d="M78.51,67.38a3.1,3.1,0,0,0,.68-1.94V67.9a3.1,3.1,0,0,1-.68,1.94c-6.31,7.91-46.9,7.17-53.14.08a3.11,3.11,0,0,1-.78-2.06V65.4a3.11,3.11,0,0,0,.78,2.06C31.61,74.54,72.19,75.28,78.51,67.38Z"/><path class="cls-5" d="M78.51,67.52a3.1,3.1,0,0,0,.68-1.94V67.9a3.1,3.1,0,0,1-.68,1.94c-6.31,7.91-46.9,7.17-53.14.08a3.11,3.11,0,0,1-.78-2.06V65.54a3.11,3.11,0,0,0,.78,2.06C31.61,74.68,72.19,75.42,78.51,67.52Z"/><path class="cls-6" d="M78.51,67.66a3.1,3.1,0,0,0,.68-1.94V67.9a3.1,3.1,0,0,1-.68,1.94c-6.31,7.91-46.9,7.17-53.14.08a3.11,3.11,0,0,1-.78-2.06V65.68a3.11,3.11,0,0,0,.78,2.06C31.61,74.82,72.19,75.56,78.51,67.66Z"/><path class="cls-7" d="M78.51,67.8a3.1,3.1,0,0,0,.68-1.94v2a3.1,3.1,0,0,1-.68,1.94c-6.31,7.91-46.9,7.17-53.14.08a3.11,3.11,0,0,1-.78-2.06v-2a3.11,3.11,0,0,0,.78,2.06C31.61,75,72.19,75.7,78.51,67.8Z"/><path class="cls-8" d="M78.51,67.94A3.1,3.1,0,0,0,79.19,66V67.9a3.1,3.1,0,0,1-.68,1.94c-6.31,7.91-46.9,7.17-53.14.08a3.11,3.11,0,0,1-.78-2.06V66A3.11,3.11,0,0,0,25.37,68C31.61,75.1,72.19,75.84,78.51,67.94Z"/><path class="cls-9" d="M78.51,68.08a3.1,3.1,0,0,0,.68-1.94V67.9a3.1,3.1,0,0,1-.68,1.94c-6.31,7.91-46.9,7.17-53.14.08a3.11,3.11,0,0,1-.78-2.06V66.1a3.11,3.11,0,0,0,.78,2.06C31.61,75.24,72.19,76,78.51,68.08Z"/><path class="cls-10" d="M78.51,68.22a3.1,3.1,0,0,0,.68-1.94V67.9a3.1,3.1,0,0,1-.68,1.94c-6.31,7.91-46.9,7.17-53.14.08a3.11,3.11,0,0,1-.78-2.06V66.24a3.11,3.11,0,0,0,.78,2.06C31.61,75.39,72.19,76.12,78.51,68.22Z"/><path class="cls-11" d="M78.51,68.36a3.1,3.1,0,0,0,.68-1.94V67.9a3.1,3.1,0,0,1-.68,1.94c-6.31,7.91-46.9,7.17-53.14.08a3.11,3.11,0,0,1-.78-2.06V66.38a3.11,3.11,0,0,0,.78,2.06C31.61,75.53,72.19,76.26,78.51,68.36Z"/><path class="cls-12" d="M78.51,68.5a3.1,3.1,0,0,0,.68-1.94V67.9a3.1,3.1,0,0,1-.68,1.94c-6.31,7.91-46.9,7.17-53.14.08a3.11,3.11,0,0,1-.78-2.06V66.52a3.11,3.11,0,0,0,.78,2.06C31.61,75.67,72.19,76.4,78.51,68.5Z"/><path class="cls-13" d="M78.51,68.64a3.1,3.1,0,0,0,.68-1.94v1.2a3.1,3.1,0,0,1-.68,1.94c-6.31,7.91-46.9,7.17-53.14.08a3.11,3.11,0,0,1-.78-2.06v-1.2a3.11,3.11,0,0,0,.78,2.06C31.61,75.81,72.19,76.54,78.51,68.64Z"/><path class="cls-14" d="M78.51,68.78a3.1,3.1,0,0,0,.68-1.94V67.9a3.1,3.1,0,0,1-.68,1.94c-6.31,7.91-46.9,7.17-53.14.08a3.11,3.11,0,0,1-.78-2.06V66.8a3.11,3.11,0,0,0,.78,2.06C31.61,75.95,72.19,76.68,78.51,68.78Z"/><path class="cls-15" d="M78.51,68.92A3.1,3.1,0,0,0,79.19,67v.92a3.1,3.1,0,0,1-.68,1.94c-6.31,7.91-46.9,7.17-53.14.08a3.11,3.11,0,0,1-.78-2.06v-.92A3.11,3.11,0,0,0,25.37,69C31.61,76.09,72.19,76.82,78.51,68.92Z"/><path class="cls-16" d="M78.51,69.06a3.1,3.1,0,0,0,.68-1.94v.78a3.1,3.1,0,0,1-.68,1.94c-6.31,7.91-46.9,7.17-53.14.08a3.11,3.11,0,0,1-.78-2.06v-.78a3.11,3.11,0,0,0,.78,2.06C31.61,76.23,72.19,77,78.51,69.06Z"/><path class="cls-17" d="M78.51,69.2a3.1,3.1,0,0,0,.68-1.94v.64a3.1,3.1,0,0,1-.68,1.94c-6.31,7.91-46.9,7.17-53.14.08a3.11,3.11,0,0,1-.78-2.06v-.64a3.11,3.11,0,0,0,.78,2.06C31.61,76.37,72.19,77.1,78.51,69.2Z"/><path class="cls-18" d="M78.51,69.34a3.1,3.1,0,0,0,.68-1.94v.5a3.1,3.1,0,0,1-.68,1.94c-6.31,7.91-46.9,7.17-53.14.08a3.11,3.11,0,0,1-.78-2.06v-.5a3.11,3.11,0,0,0,.78,2.06C31.61,76.51,72.19,77.24,78.51,69.34Z"/><path class="cls-19" d="M78.51,69.48a3.1,3.1,0,0,0,.68-1.94v.36a3.1,3.1,0,0,1-.68,1.94c-6.31,7.91-46.9,7.17-53.14.08a3.11,3.11,0,0,1-.78-2.06V67.5a3.11,3.11,0,0,0,.78,2.06C31.61,76.65,72.19,77.38,78.51,69.48Z"/><path class="cls-20" d="M78.51,69.62a3.1,3.1,0,0,0,.68-1.94v.22a3.1,3.1,0,0,1-.68,1.94c-6.31,7.91-46.9,7.17-53.14.08a3.11,3.11,0,0,1-.78-2.06v-.22a3.11,3.11,0,0,0,.78,2.06C31.61,76.79,72.19,77.52,78.51,69.62Z"/></g><path class="cls-21" d="M68.26,5.42V45.73A13.54,13.54,0,0,1,56,59.17V6C60.45,5.89,64.69,5.7,68.26,5.42Z"/><path class="cls-22" d="M16.25,10.28c1.94.07,6.77.68,8.81,1,.77.91.72,5.73-.12,8.91-1.64-1-2.06-4.31-10.16-4.31-5.82,0-10.2,5.6-10.2,17s4.38,17,10.2,17c8.1,0,8.52-3.35,10.16-4.31.84,3.18.9,8,.12,8.91-2,.29-6.86.9-8.81,1C8.31,55.7,0,51.65,0,32.85S8.31,10,16.25,10.28Z"/><path class="cls-23" d="M16.21,10.42c2,.07,6.78.67,8.87,1,.73.92.67,5.53-.13,8.6-1.62-1-2.14-4.29-10.17-4.29C9,15.71,4.45,21.27,4.45,32.85S9,50,14.78,50c8,0,8.56-3.3,10.17-4.29.8,3.07.86,7.68.13,8.6-2.09.31-6.89.9-8.87,1C8.1,55.58.13,51.18.13,32.85S8.1,10.13,16.21,10.42Z"/><path class="cls-24" d="M16.16,10.57c2,.08,6.79.67,8.94,1,.69.94.63,5.34-.13,8.29-1.6-1-2.22-4.28-10.19-4.28-5.84,0-10.47,5.53-10.47,17.29S8.94,50.14,14.78,50.14c8,0,8.59-3.25,10.19-4.28.76,3,.81,7.35.13,8.29-2.14.32-6.92.91-8.94,1C7.9,55.45.27,50.71.27,32.85S7.9,10.25,16.16,10.57Z"/><path class="cls-25" d="M16.12,10.71c2.05.08,6.8.66,9,1,.64,1,.58,5.14-.13,8-1.58-1.06-2.29-4.26-10.21-4.26-5.84,0-10.6,5.5-10.6,17.43s4.75,17.43,10.6,17.43c7.91,0,8.63-3.2,10.21-4.26.72,2.84.77,7,.13,8-2.2.33-6.95.91-9,1C7.7,55.33.4,50.24.4,32.85S7.7,10.38,16.12,10.71Z"/><path class="cls-26" d="M16.07,10.85c2.09.08,6.81.66,9.06,1,.6,1,.54,4.94-.13,7.67-1.56-1.09-2.37-4.24-10.22-4.24C8.93,15.28,4,20.74,4,32.85S8.93,50.43,14.78,50.43c7.85,0,8.66-3.15,10.22-4.24.67,2.73.73,6.7.13,7.67-2.25.34-7,.91-9.06,1C7.5,55.2.53,49.77.53,32.85S7.5,10.5,16.07,10.85Z"/><path class="cls-27" d="M16,11c2.13.09,6.82.66,9.13,1,.55,1,.49,4.74-.14,7.36-1.54-1.13-2.45-4.22-10.24-4.22-5.86,0-10.86,5.43-10.86,17.72s5,17.72,10.86,17.72c7.79,0,8.7-3.1,10.24-4.22.63,2.62.69,6.38.14,7.36-2.31.35-7,.92-9.13,1C7.3,55.08.66,49.3.66,32.85S7.3,10.63,16,11Z"/><path class="cls-28" d="M16,11.13c2.16.09,6.83.65,9.19,1,.51,1,.45,4.55-.14,7.05C23.51,18,22.51,15,14.78,15c-5.87,0-11,5.4-11,17.86s5.13,17.86,11,17.86c7.73,0,8.73-3,10.25-4.21.59,2.5.65,6.05.14,7.05-2.36.36-7,.92-9.19,1C7.1,55,.8,48.84.8,32.85S7.1,10.75,16,11.13Z"/><path class="cls-29" d="M15.93,11.28c2.2.1,6.84.65,9.26,1,.46,1,.4,4.35-.14,6.74-1.5-1.19-2.6-4.19-10.27-4.19-5.88,0-11.13,5.36-11.13,18s5.25,18,11.13,18c7.67,0,8.77-3,10.27-4.19.55,2.39.6,5.72.14,6.74-2.42.38-7.06.92-9.26,1-9,.4-15-6.06-15-21.58S6.9,10.87,15.93,11.28Z"/><path class="cls-30" d="M15.89,11.42c2.24.1,6.85.64,9.32,1,.42,1,.36,4.15-.15,6.43-1.48-1.23-2.68-4.17-10.28-4.17C8.89,14.71,3.52,20,3.52,32.85S8.89,51,14.78,51c7.61,0,8.81-2.94,10.28-4.17.51,2.28.56,5.4.15,6.43-2.47.39-7.09.93-9.32,1C6.69,54.71,1.06,47.9,1.06,32.85S6.69,11,15.89,11.42Z"/><path class="cls-31" d="M15.84,11.56c2.27.11,6.86.64,9.39,1a15.32,15.32,0,0,1-.15,6.12c-1.46-1.26-2.76-4.15-10.3-4.15-5.9,0-11.4,5.3-11.4,18.29s5.5,18.29,11.4,18.29c7.54,0,8.84-2.89,10.3-4.15a15.32,15.32,0,0,1,.15,6.12c-2.52.4-7.11.93-9.39,1C6.49,54.58,1.2,47.43,1.2,32.85S6.49,11.12,15.84,11.56Z"/><path class="cls-32" d="M15.79,11.7c2.31.11,6.87.63,9.45,1a15.46,15.46,0,0,1-.15,5.81c-1.44-1.3-2.83-4.14-10.32-4.14-5.91,0-11.53,5.27-11.53,18.43S8.87,51.28,14.78,51.28c7.48,0,8.88-2.84,10.32-4.14A15.45,15.45,0,0,1,25.25,53c-2.58.41-7.14.93-9.45,1-9.5.45-14.47-7-14.47-21.15S6.29,11.25,15.79,11.7Z"/><path class="cls-33" d="M15.75,11.84c2.35.11,6.88.63,9.52,1.05a15.72,15.72,0,0,1-.15,5.5c-1.42-1.33-2.91-4.12-10.33-4.12-5.91,0-11.66,5.23-11.66,18.57S8.86,51.43,14.78,51.43c7.42,0,8.91-2.79,10.33-4.12a15.72,15.72,0,0,1,.15,5.5c-2.63.42-7.17.94-9.52,1.05-9.66.47-14.29-7.37-14.29-21S6.09,11.37,15.75,11.84Z"/><path class="cls-34" d="M15.7,12c2.38.12,6.89.63,9.58,1.06a16.17,16.17,0,0,1-.16,5.19c-1.4-1.36-3-4.1-10.35-4.1C8.86,14.14,3,19.34,3,32.85S8.86,51.57,14.78,51.57c7.36,0,8.95-2.74,10.35-4.1a16.17,16.17,0,0,1,.16,5.19c-2.69.43-7.2.94-9.58,1.06C5.89,54.21,1.6,46,1.6,32.85S5.89,11.49,15.7,12Z"/><path class="cls-35" d="M15.66,12.13c2.42.12,6.9.62,9.65,1.07a16.89,16.89,0,0,1-.16,4.88C23.76,16.68,22.08,14,14.78,14,8.85,14,2.85,19.16,2.85,32.85s6,18.86,11.93,18.86c7.3,0,9-2.69,10.36-4.08a16.89,16.89,0,0,1,.16,4.88c-2.74.45-7.23.94-9.65,1.07-10,.51-13.93-8-13.93-20.73S5.69,11.62,15.66,12.13Z"/><path class="cls-36" d="M15.61,12.27c2.46.13,6.91.62,9.71,1.08a18.07,18.07,0,0,1-.16,4.57C23.8,16.49,22,13.85,14.78,13.85c-5.94,0-12.06,5.13-12.06,19s6.12,19,12.06,19c7.24,0,9-2.64,10.38-4.07a18.07,18.07,0,0,1,.16,4.57c-2.8.46-7.25.95-9.71,1.08C5.48,54,1.86,45.08,1.86,32.85S5.48,11.74,15.61,12.27Z"/><path class="cls-37" d="M15.57,12.41c2.49.13,6.92.61,9.78,1.08a20.06,20.06,0,0,1-.17,4.26c-1.34-1.46-3.22-4-10.4-4-5.95,0-12.19,5.1-12.19,19.14S8.83,52,14.78,52c7.18,0,9.06-2.58,10.4-4a20.06,20.06,0,0,1,.17,4.26c-2.85.47-7.28,1-9.78,1.08C5.28,53.84,2,44.61,2,32.85S5.28,11.87,15.57,12.41Z"/><path class="cls-38" d="M15.52,12.55c2.53.14,6.93.61,9.84,1.09a23.76,23.76,0,0,1-.17,4c-1.32-1.5-3.3-4-10.41-4-6,0-12.33,5.07-12.33,19.29S8.82,52.14,14.78,52.14c7.11,0,9.09-2.53,10.41-4a23.76,23.76,0,0,1,.17,4c-2.91.48-7.31,1-9.84,1.09-10.44.56-13.39-9-13.39-20.3S5.08,12,15.52,12.55Z"/><path class="cls-39" d="M25.2,48.76a.36.36,0,0,1-.1.29c-1.41,1.46-4.26,3.16-10.42,3.16s-11.3-5-11.3-18.89h0c0,5.58,1.05,10,3.12,13.12A9.54,9.54,0,0,0,14.69,51c7.23,0,8.93-2.84,10.21-3.93a.06.06,0,0,1,.06,0,.06.06,0,0,1,0,.05C25.08,47.64,25.16,48.24,25.2,48.76Z"/><path class="cls-40" d="M1,31.16C1.13,20.23,4.48,11.3,15.52,11.3h.7c1.91.06,6.49.72,8.79,1.06a.17.17,0,0,1,.14.14A11.76,11.76,0,0,1,25.28,14a.17.17,0,0,1-.07.14.17.17,0,0,1-.16,0,34.47,34.47,0,0,0-8.86-1.7h-.66C5.13,12.44,1.11,20.82,1,31.16Z"/><path class="cls-41" d="M25.21,2.44a1.77,1.77,0,0,1,.52-.31C30.87.16,48.54,0,51.89,0,63.05,0,74.21.71,78,2.13a1.77,1.77,0,0,1,.9.75l0,.06c-.27.6-1.34,1.16-3.14,1.58C70.95,5.68,61.42,6.25,51.89,6.25S32.83,5.68,27.95,4.53c-1.8-.42-2.87-1-3.14-1.58A1.65,1.65,0,0,1,25.21,2.44Z"/><path class="cls-42" d="M75.85,2.73a.2.2,0,0,1,0,.33C72,6,31.75,6,27.94,3.06a.2.2,0,0,1,0-.33c1.9-1.46,12.93-2.18,24-2.18S73.94,1.27,75.85,2.73Z"/><path class="cls-43" d="M29.47,2.39C36.05.84,54.24.91,61,1,52.62.36,36.22.35,29.47,2.39Z"/><path class="cls-44" d="M70.23,37.93a3.87,3.87,0,0,1-4.63,1.38c-1.75-.65-2.52-2.33-1.71-3.75a3.87,3.87,0,0,1,4.63-1.38C70.27,34.83,71,36.51,70.23,37.93Z"/><path class="cls-45" d="M66.83,50a2.41,2.41,0,0,0-1.81.42,2,2,0,0,0-.28-.69,5.23,5.23,0,0,1-.28-.76c-.13-.35-.26-.69-.38-1l0-.07,2.54-1.43.05.15c.29.82.59,1.64.89,2.46a4.08,4.08,0,0,0,.53,1,2.39,2.39,0,0,0,.67.52l.24.14C68.13,50.87,67.48,50.27,66.83,50Z"/><path class="cls-46" d="M61.32,51.76a1.25,1.25,0,0,1,1.5-.4,1.28,1.28,0,0,1,.33.18c.7-.17,1.53-.24,1.81-.8a.63.63,0,0,0,.06-.37A2.41,2.41,0,0,1,66.83,50c.65.32,1.3.91,2.16.7,1,.56,2.3.8,3.3,1.36a7.36,7.36,0,0,1,1.77,1.33c.32.34.85.75,1,1.19a1.66,1.66,0,0,1,.71.1c.64.24.94.81.68,1.27a1.36,1.36,0,0,1-1.64.41c-.62-.23-.93-.78-.69-1.24a8.1,8.1,0,0,1-1-1.1,7.27,7.27,0,0,0-1.9-1.63c-.25-.14-1.71-.81-1.72-.07,0,.21.35.47.48.65a8.23,8.23,0,0,1,.6,1,5.06,5.06,0,0,1,.64,2,1.56,1.56,0,0,1,.34.08,1,1,0,0,1,.65,1.39,1.44,1.44,0,0,1-1.73.51,1,1,0,0,1-.65-1.39,1,1,0,0,1,.17-.22,6.17,6.17,0,0,1-.67-2.12,4.55,4.55,0,0,0-.73-1.43c-.26-.39-.41-.7-.92-.87a3.09,3.09,0,0,0-.44,1.78,5,5,0,0,1-.15,1c.5.3.72.77.5,1.16a1.47,1.47,0,0,1-1.75.35c-.71-.26-1.07-.85-.81-1.3a1.17,1.17,0,0,1,1-.47c0-.12,0-.25,0-.39,0-.53.34-1.81-.22-2.19-.29-.19-.68,0-1,.06a12.16,12.16,0,0,1-1.19.38l-.21.06a.7.7,0,0,1-.09.29,1.25,1.25,0,0,1-1.5.4C61.34,52.73,61.08,52.2,61.32,51.76Z"/><path class="cls-47" d="M42.71,40.67s-1.49.58-3,1.29A18.91,18.91,0,0,0,41,39.82,6.68,6.68,0,0,1,42.71,40.67Z"/><path class="cls-48" d="M35.54,44.5s.85-3.17,3.24-4.45A11.91,11.91,0,0,0,38,42.83c-.31.18-.59.35-.83.52Z"/><path class="cls-49" d="M39.48,39.75a2.55,2.55,0,0,1,1.53.07A18.91,18.91,0,0,1,39.7,42c-.59.28-1.18.57-1.69.86a11.91,11.91,0,0,1,.78-2.77A4.39,4.39,0,0,1,39.48,39.75Z"/><path class="cls-50" d="M70.56,44.56a8.68,8.68,0,0,0-1.17.47H69.3c-2.47-.47-4.93.12-7.4-.7a7.34,7.34,0,0,1-.79-.2c5.17,0,10.41-.37,15.09-2.12C74.94,43.16,70.72,44.58,70.56,44.56Z"/><path class="cls-51" d="M60.31,43.49c-.26-2.59,1.75-4.91,3.52-7.11a34.26,34.26,0,0,1,3.91.51,25.09,25.09,0,0,1,5.1.77c2.89.73,4.25,2.77,3.67,4a1.33,1.33,0,0,1-.3.37c-4.69,1.75-9.92,2.1-15.09,2.12C60.68,44,60.31,43.78,60.31,43.49Z"/><path class="cls-52" d="M35.62,45.63a1.49,1.49,0,0,1-.08-1.12h0l1.63-1.16c1.63-1.16,8-3.67,8-3.67a19.37,19.37,0,0,1,6.16-1,10.52,10.52,0,0,0,7-1.62c1.23-.75,3.48-.8,5.47-.67-1.77,2.2-3.77,4.52-3.52,7.11,0,.47,1,.71,1.6.82,2.46.82,4.93.23,7.4.7h.09c-.75.34-1.78.82-2.79,1.34l-2.54,1.43a6.83,6.83,0,0,0-.87.65A29.34,29.34,0,0,1,59.38,51a27.56,27.56,0,0,0,2.79-4.71,8.81,8.81,0,0,0-1.47.06c.25-.27.06-.49.22-.81-7.94,0-15.07,1.62-22.59,3.67l-.68-.45A4.77,4.77,0,0,1,35.62,45.63Z"/><path class="cls-53" d="M60.7,46.37c-3.95.49-6.44,3.63-8.78,6.18,0-.15,0-.23,0-.23-.72.78-6.05-.24-6.6-.35a22.39,22.39,0,0,1-7-2.73c7.52-2.05,14.49-3.67,22.43-3.67C60.61,45.88,61,46.1,60.7,46.37Z"/><path class="cls-54" d="M35.76,48.25c.38-.89.83-1.47,1.74-.7a28.84,28.84,0,0,1,7.69,8.6c-1.57-.91-3.39-1.42-5-2.3l.61.24S36.25,50.45,35.76,48.25Z"/><path class="cls-55" d="M45.79,60.16a16.78,16.78,0,0,1,2.45.34A1.78,1.78,0,0,1,49.82,60c.85.11,1.45.63,1.34,1.17s-.88.88-1.73.77a1.56,1.56,0,0,1-1.32-.83c-.84.15-2.17.25-2.8.44-1,.31-1.77.82-1.18,1.69a1.89,1.89,0,0,1,.26.58h0c.81.1,1.36.69,1.24,1.32a1.45,1.45,0,0,1-1.68.94c-.81-.1-1.36-.69-1.24-1.32a1,1,0,0,1,.18-.39c-.13-.12-.26-.26-.38-.4a5.78,5.78,0,0,1,2.78-3.07C45.34,60.79,45.65,60.49,45.79,60.16Z"/><path class="cls-56" d="M45.83,59.7c-.64-.54-1.43-.35-2.19-.31.28-.14.66-.33,1.06-.48A21.18,21.18,0,0,0,47,57.78c.49.15.8.52.73.92a1.1,1.1,0,0,1-1.28.67H46.4a2.37,2.37,0,0,1-.57.68A.53.53,0,0,0,45.83,59.7Z"/><path class="cls-57" d="M45.13,56a29,29,0,0,0-7.63-8.49c-.91-.76-1.36-.19-1.74.7a1.4,1.4,0,0,1,0-.64,2.43,2.43,0,0,1,2.73-1.73c2.76,3.37,7.34,6.39,9.42,10a1.34,1.34,0,0,1-.31,1.43c-.19.17-.38.31-.57.45l-.64.34A2.73,2.73,0,0,0,45.13,56Z"/><path class="cls-58" d="M38.26,59.77c1.32-.12,4.94-.16,4.94-.16l.43-.23c.76,0,1.55-.23,2.19.31a.53.53,0,0,1,0,.34l-.14.11h.1c-.14.33-.45.63-.48.78A5.78,5.78,0,0,0,42.53,64c-.73-.82-1.43-1.88-2.08-2-.92-.12-3.54.52-6.34-2.05s-7.62-5.58-7.34-6.93a10.22,10.22,0,0,1,3.57,1.23C30.94,54.8,37,59.88,38.26,59.77Z"/><path class="cls-59" d="M32.16,51.05c2.75.76,6.53,2.21,8,2.79,1.64.88,3.46,1.39,5,2.3L45.13,56a2.73,2.73,0,0,1,1.25,2.08,12.74,12.74,0,0,1-1.68.79,7.23,7.23,0,0,1-4-.52c-2.76-1-10.44-4.14-10.44-4.14l.05,0a10.22,10.22,0,0,0-3.57-1.23.63.63,0,0,1,0-.06C27.21,51.68,28.69,50.09,32.16,51.05Z"/><path class="cls-60" d="M70.87,40.76a3.87,3.87,0,0,1-4.63,1.38c-1.75-.65-2.52-2.33-1.71-3.75A3.87,3.87,0,0,1,69.17,37C70.92,37.66,71.68,39.34,70.87,40.76Z"/><path class="cls-61" d="M70.71,40.8a3.52,3.52,0,0,1-4.21,1.26c-1.59-.59-2.29-2.12-1.55-3.41a3.52,3.52,0,0,1,4.21-1.26C70.75,38,71.45,39.51,70.71,40.8Z"/><path class="cls-62" d="M70.63,40.83A3.28,3.28,0,0,1,66.7,42a2.23,2.23,0,0,1-1.45-3.18,3.28,3.28,0,0,1,3.93-1.17A2.23,2.23,0,0,1,70.63,40.83Z"/><path class="cls-63" d="M42.32,48A27,27,0,0,0,45,47.49c.56-.14,1.13-.25,1.67-.43.27-.09.55-.11.83-.17s.61-.18.92-.24c.83-.16,1.63-.29,2.47-.4.52-.07,1-.12,1.56-.2s1-.27,1.47-.4a8,8,0,0,1,1.88-.2c.46,0,.88.12,1.36.07.33,0,.64-.17,1-.21a16,16,0,0,1,1.85,0,2.59,2.59,0,0,1,1.33.34c.27.16.39.3.27.55a.77.77,0,0,1-.53.39c-.27.09-.37.06-.43-.08s.21-.55,0-.55a4.6,4.6,0,0,0-1.8-.12h0a1.29,1.29,0,0,0-.4.15c-.11.07-.12.17-.17.27s-.16.44-.27.64-.38.66-.63.57,0-.69,0-.84c.05-.31.17-.53-.34-.53s-.89,0-1.06.51-.17,1-.32,1.47a4.82,4.82,0,0,1-.47,1.14c-.13.2-.46.68-.83.64s0-.49,0-.61a9,9,0,0,0,.41-1,3,3,0,0,0,.1-1,1,1,0,0,0-.5-1,1.34,1.34,0,0,0-1.74.42,3.22,3.22,0,0,0-.21,2.52,2.79,2.79,0,0,1-.1,2,.67.67,0,0,1-.68.29c-.28,0-.25-.17-.28-.4-.07-.63,0-1.28-.06-1.92a5.45,5.45,0,0,0-.41-1.75c-.18-.4-.48-.83-1.07-.62-1,.37-.94,1.44-.87,2.21,0,.32.64,2.65.08,2.7-.29,0-.58-.43-.67-.6-.19-.35-.4-.71-.57-1.07-.31-.65-.48-1.34-.81-2-.14-.27-.45-.51-.76-.23a1.18,1.18,0,0,0-.28.78c0,.49,0,1,0,1.48,0,.2,0,.68-.21.83s-.38-.1-.49-.27a9.88,9.88,0,0,1-.6-.92,6.47,6.47,0,0,0-.28-.65c-.44-.63-1.46-.35-2.17-.32-.25,0-.65,0-.71-.28S42.08,48.08,42.32,48Z"/><path class="cls-64" d="M38.48,45.88a3.41,3.41,0,0,1,2.08.9s6.6,6,7.35,9.11C45.82,52.27,41.24,49.25,38.48,45.88Z"/><path class="cls-65" d="M59.87,61.58c.5-.31-.19-1.05-.29-1.78l.34.19a17.1,17.1,0,0,1,1.19-1.41.65.65,0,0,1,0-.71,1.12,1.12,0,0,1,1.34-.37.76.76,0,0,1,.52,1.07,1.07,1.07,0,0,1-1.11.43,16.65,16.65,0,0,1-1.45,1.92s3.88-.67,5.15-.16l.26.13a1.53,1.53,0,0,1,1,0c.61.23.9.79.64,1.24a1.32,1.32,0,0,1-1.58.41,1,1,0,0,1-.73-1c-1.41-.76-4.57.42-4.57.42a5.4,5.4,0,0,1,4.29,3.06l0,0a1.14,1.14,0,0,1,.38.07.73.73,0,0,1,.47,1,1.08,1.08,0,0,1-1.29.39.73.73,0,0,1-.47-1,.8.8,0,0,1,.2-.23,4.49,4.49,0,0,0-.83-1.43c-1-1.35-3.79-1.1-3.79-1.1a8.2,8.2,0,0,1,0,2.85,1.9,1.9,0,0,1-.26.54.77.77,0,0,1,.25,1,1.29,1.29,0,0,1-1.55.4c-.6-.22-.88-.77-.63-1.21a1.25,1.25,0,0,1,1.39-.44v0c.85-1.49-.38-3.76-.38-3.76l-.7-.55A3.94,3.94,0,0,0,59.87,61.58Z"/><path class="cls-66" d="M53.63,52l.3-.25c2.52-1.93,5.76-3.08,7.63-5.41h.62A27.56,27.56,0,0,1,59.38,51c-1.43.86-2.68,1.55-2.68,1.55l.09.38A4.92,4.92,0,0,0,53.63,52Z"/><path class="cls-67" d="M56.8,53c.32,1.29,1.33,5.41,1.45,5.78s.87.8,1.33,1.06c.1.73.79,1.47.29,1.78a3.94,3.94,0,0,1-2.17,0C57,61,55.76,60,54.42,58.8s-2-3.55-2.31-5.05A7.93,7.93,0,0,1,53.63,52,4.92,4.92,0,0,1,56.8,53Z"/><path class="cls-68" d="M61.55,46.3c-1.87,2.33-5.11,3.48-7.63,5.41a8.12,8.12,0,0,0-1.81,2c-.1-.53-.16-1-.19-1.2C54.43,49.82,57.11,46.42,61.55,46.3Z"/><path class="cls-69" d="M68.77,41.1l-.72-3A3.87,3.87,0,0,1,68.77,41.1Z"/><ellipse class="cls-70" cx="67.07" cy="38.81" rx="0.33" ry="0.26"/><path class="cls-70" d="M64.06,37.15h-.3l-.85,0c-.37,0-.81.05-1.32.11a14.66,14.66,0,0,0-1.7.29,7.58,7.58,0,0,0-1.9.68l-.23.13-.22.13-.22.1-.24.09A6.09,6.09,0,0,1,56,39c-.75.12-1.55.14-2.37.19s-1.67.08-2.51.16a17.3,17.3,0,0,0-2.49.43,11.07,11.07,0,0,0-1.17.36l-1.09.4-2.05.77L42.5,42l-.81.32-.73.3-1.18.49L39,43.4l-.27.11.28-.09.79-.26,1.22-.41.75-.25.84-.28,1.87-.63,2.09-.72,1.1-.38c.36-.12.74-.24,1.12-.33a16.79,16.79,0,0,1,2.4-.4c.82-.09,1.65-.13,2.47-.17a21.5,21.5,0,0,0,2.44-.23,6.06,6.06,0,0,0,1.15-.3l.27-.11.26-.14.22-.14.21-.13A7.6,7.6,0,0,1,60,37.83c.58-.16,1.14-.28,1.63-.37s.93-.15,1.29-.19l.84-.09Z"/></g></g></svg>