<svg xmlns="http://www.w3.org/2000/svg" xmlns:xlink="http://www.w3.org/1999/xlink" viewBox="0 0 69 71.83"><defs><style>.cls-1{fill:none;}.cls-2{isolation:isolate;}.cls-3{fill:url(#linear-gradient);}.cls-4{fill:url(#linear-gradient-2);}.cls-5{fill:url(#linear-gradient-3);}.cls-6{fill:url(#linear-gradient-4);}.cls-7{fill:url(#linear-gradient-5);}.cls-8{fill:url(#linear-gradient-6);}.cls-9{fill:url(#linear-gradient-7);}.cls-10{fill:url(#linear-gradient-8);}.cls-11{fill:url(#linear-gradient-9);}.cls-12{fill:url(#linear-gradient-10);}.cls-13{fill:url(#linear-gradient-11);}.cls-14{fill:url(#linear-gradient-12);}.cls-15,.cls-16,.cls-17,.cls-18,.cls-19,.cls-20,.cls-21,.cls-22,.cls-23,.cls-24,.cls-25,.cls-26{fill:#630000;}.cls-15,.cls-38,.cls-50{opacity:0;}.cls-16{opacity:0.01;}.cls-17{opacity:0.01;}.cls-18{opacity:0.02;}.cls-19{opacity:0.03;}.cls-20{opacity:0.04;}.cls-21{opacity:0.04;}.cls-22{opacity:0.05;}.cls-23{opacity:0.06;}.cls-24{opacity:0.07;}.cls-25{opacity:0.07;}.cls-26{opacity:0.08;}.cls-27{fill:#248000;}.cls-28{fill:#73e846;}.cls-29{fill:#288f00;}.cls-30{fill:#35bf00;}.cls-31{fill:url(#linear-gradient-13);}.cls-32{fill:#31ad00;}.cls-33{fill:url(#linear-gradient-14);}.cls-34{fill:url(#linear-gradient-15);}.cls-35{clip-path:url(#clip-path);}.cls-36,.cls-37{opacity:0.25;mix-blend-mode:screen;}.cls-36{fill:url(#radial-gradient);}.cls-37{fill:url(#radial-gradient-2);}.cls-38{fill:url(#linear-gradient-16);}.cls-39,.cls-51{opacity:0.09;}.cls-39{fill:url(#linear-gradient-17);}.cls-40,.cls-52{opacity:0.18;}.cls-40{fill:url(#linear-gradient-18);}.cls-41,.cls-53{opacity:0.27;}.cls-41{fill:url(#linear-gradient-19);}.cls-42,.cls-54{opacity:0.36;}.cls-42{fill:url(#linear-gradient-20);}.cls-43,.cls-55{opacity:0.45;}.cls-43{fill:url(#linear-gradient-21);}.cls-44,.cls-56{opacity:0.55;}.cls-44{fill:url(#linear-gradient-22);}.cls-45,.cls-57{opacity:0.64;}.cls-45{fill:url(#linear-gradient-23);}.cls-46,.cls-58{opacity:0.73;}.cls-46{fill:url(#linear-gradient-24);}.cls-47,.cls-59{opacity:0.82;}.cls-47{fill:url(#linear-gradient-25);}.cls-48,.cls-60{opacity:0.91;}.cls-48{fill:url(#linear-gradient-26);}.cls-49{fill:url(#linear-gradient-27);}.cls-50{fill:url(#linear-gradient-28);}.cls-51{fill:url(#linear-gradient-29);}.cls-52{fill:url(#linear-gradient-30);}.cls-53{fill:url(#linear-gradient-31);}.cls-54{fill:url(#linear-gradient-32);}.cls-55{fill:url(#linear-gradient-33);}.cls-56{fill:url(#linear-gradient-34);}.cls-57{fill:url(#linear-gradient-35);}.cls-58{fill:url(#linear-gradient-36);}.cls-59{fill:url(#linear-gradient-37);}.cls-60{fill:url(#linear-gradient-38);}.cls-61{fill:#227800;}.cls-62{fill:#2ea300;}.cls-63{fill:url(#linear-gradient-39);}.cls-64{fill:url(#linear-gradient-40);}.cls-65{fill:url(#linear-gradient-41);}.cls-66{fill:url(#linear-gradient-42);}.cls-67{fill:url(#linear-gradient-43);}.cls-68{fill:url(#linear-gradient-44);}.cls-69{fill:#ffdbba;opacity:0.2;}</style><linearGradient id="linear-gradient" x1="2.74" y1="48.22" x2="67.23" y2="48.22" gradientUnits="userSpaceOnUse"><stop offset="0" stop-color="#387502"/><stop offset="0.06" stop-color="#4e8e1b"/><stop offset="0.12" stop-color="#60a330"/><stop offset="0.19" stop-color="#6db23f"/><stop offset="0.28" stop-color="#75ba48"/><stop offset="0.4" stop-color="#77bd4b"/><stop offset="0.64" stop-color="#75bb49"/><stop offset="0.76" stop-color="#6fb441"/><stop offset="0.84" stop-color="#64a735"/><stop offset="0.92" stop-color="#549522"/><stop offset="0.98" stop-color="#407e0b"/><stop offset="1" stop-color="#387502"/></linearGradient><linearGradient id="linear-gradient-2" x1="2.74" y1="48.19" x2="67.23" y2="48.19" xlink:href="#linear-gradient"/><linearGradient id="linear-gradient-3" x1="2.74" y1="48.16" x2="67.23" y2="48.16" xlink:href="#linear-gradient"/><linearGradient id="linear-gradient-4" x1="2.74" y1="48.13" x2="67.23" y2="48.13" xlink:href="#linear-gradient"/><linearGradient id="linear-gradient-5" x1="2.74" y1="48.1" x2="67.23" y2="48.1" xlink:href="#linear-gradient"/><linearGradient id="linear-gradient-6" x1="2.74" y1="48.07" x2="67.23" y2="48.07" xlink:href="#linear-gradient"/><linearGradient id="linear-gradient-7" x1="2.74" y1="48.04" x2="67.23" y2="48.04" xlink:href="#linear-gradient"/><linearGradient id="linear-gradient-8" x1="2.74" y1="48.01" x2="67.23" y2="48.01" xlink:href="#linear-gradient"/><linearGradient id="linear-gradient-9" x1="2.74" y1="47.98" x2="67.23" y2="47.98" xlink:href="#linear-gradient"/><linearGradient id="linear-gradient-10" x1="2.74" y1="47.95" x2="67.23" y2="47.95" xlink:href="#linear-gradient"/><linearGradient id="linear-gradient-11" x1="2.74" y1="47.92" x2="67.23" y2="47.92" xlink:href="#linear-gradient"/><linearGradient id="linear-gradient-12" x1="2.74" y1="47.89" x2="67.23" y2="47.89" xlink:href="#linear-gradient"/><linearGradient id="linear-gradient-13" x1="2.37" y1="20.31" x2="67.5" y2="20.31" xlink:href="#linear-gradient"/><linearGradient id="linear-gradient-14" x1="3.48" y1="19.65" x2="76.17" y2="19.65" gradientUnits="userSpaceOnUse"><stop offset="0" stop-color="#387502"/><stop offset="0.08" stop-color="#3e7b08"/><stop offset="0.18" stop-color="#4d8d1b"/><stop offset="0.3" stop-color="#67aa38"/><stop offset="0.37" stop-color="#77bd4b"/><stop offset="0.47" stop-color="#74b947"/><stop offset="0.57" stop-color="#69ae3b"/><stop offset="0.67" stop-color="#589a28"/><stop offset="0.77" stop-color="#417f0c"/><stop offset="0.8" stop-color="#387502"/><stop offset="1" stop-color="#5d9f2d"/></linearGradient><linearGradient id="linear-gradient-15" x1="11.46" y1="19.65" x2="67.83" y2="19.65" xlink:href="#linear-gradient-14"/><clipPath id="clip-path" transform="translate(0 12)"><path class="cls-1" d="M9.24,38.33a7.12,7.12,0,0,1-5.53-2.25,4.38,4.38,0,0,1-1-3.67L5.9,5.66C6.35,3.08,9.67,1,13.3,1H56.57c3.63,0,7,2.11,7.4,4.69l3.2,26.74a4.38,4.38,0,0,1-1,3.67,7.12,7.12,0,0,1-5.53,2.25Z"/></clipPath><radialGradient id="radial-gradient" cx="1278.46" cy="87.41" r="12.88" gradientTransform="matrix(0.22, 0, 0, 1.11, -272.42, -94.91)" gradientUnits="userSpaceOnUse"><stop offset="0" stop-color="#ffdbba"/><stop offset="1" stop-color="#1c0000"/></radialGradient><radialGradient id="radial-gradient-2" cx="-3070.58" cy="-97.49" r="12.88" gradientTransform="matrix(0, -0.22, -1.11, 0, -43.54, -669.89)" gradientUnits="userSpaceOnUse"><stop offset="0" stop-color="#ffdbba"/><stop offset="1" stop-color="#400000"/></radialGradient><linearGradient id="linear-gradient-16" x1="34.94" y1="52.77" x2="34.94" y2="12.27" gradientUnits="userSpaceOnUse"><stop offset="0.05" stop-color="#eb8766"/><stop offset="0.34" stop-color="#ffbd9c"/><stop offset="1" stop-color="#ffcead"/></linearGradient><linearGradient id="linear-gradient-17" x1="34.94" y1="52.7" x2="34.94" y2="12.33" gradientUnits="userSpaceOnUse"><stop offset="0" stop-color="#db855d"/><stop offset="0.05" stop-color="#db865d"/><stop offset="0.34" stop-color="#f2bc94"/><stop offset="0.37" stop-color="#f3be96"/><stop offset="0.72" stop-color="#efc098"/><stop offset="0.8" stop-color="#edc199"/><stop offset="1" stop-color="#f0caa1"/></linearGradient><linearGradient id="linear-gradient-18" x1="34.94" y1="52.64" x2="34.94" y2="12.39" gradientUnits="userSpaceOnUse"><stop offset="0" stop-color="#ca8454"/><stop offset="0.05" stop-color="#cb8455"/><stop offset="0.34" stop-color="#e5bc8c"/><stop offset="0.37" stop-color="#e6be8e"/><stop offset="0.63" stop-color="#e2bd8d"/><stop offset="0.8" stop-color="#dbba8a"/><stop offset="1" stop-color="#e2c596"/></linearGradient><linearGradient id="linear-gradient-19" x1="34.94" y1="52.58" x2="34.94" y2="12.45" gradientUnits="userSpaceOnUse"><stop offset="0" stop-color="#ba824b"/><stop offset="0.05" stop-color="#bb834c"/><stop offset="0.34" stop-color="#d8bb84"/><stop offset="0.37" stop-color="#dabe87"/><stop offset="0.58" stop-color="#d6bb84"/><stop offset="0.78" stop-color="#cab37c"/><stop offset="0.8" stop-color="#c9b27b"/><stop offset="1" stop-color="#d3c18a"/></linearGradient><linearGradient id="linear-gradient-20" x1="34.94" y1="52.52" x2="34.94" y2="12.51" gradientUnits="userSpaceOnUse"><stop offset="0" stop-color="#aa8042"/><stop offset="0.05" stop-color="#ab8243"/><stop offset="0.34" stop-color="#cbba7c"/><stop offset="0.37" stop-color="#cebe7f"/><stop offset="0.55" stop-color="#cabb7c"/><stop offset="0.72" stop-color="#beb072"/><stop offset="0.8" stop-color="#b7aa6c"/><stop offset="1" stop-color="#c4bd7e"/></linearGradient><linearGradient id="linear-gradient-21" x1="34.94" y1="52.46" x2="34.94" y2="12.58" gradientUnits="userSpaceOnUse"><stop offset="0" stop-color="#9a7f39"/><stop offset="0.05" stop-color="#9b813a"/><stop offset="0.34" stop-color="#beba74"/><stop offset="0.37" stop-color="#c1be78"/><stop offset="0.53" stop-color="#bdba74"/><stop offset="0.69" stop-color="#b1af69"/><stop offset="0.8" stop-color="#a5a35d"/><stop offset="1" stop-color="#b5b973"/></linearGradient><linearGradient id="linear-gradient-22" x1="34.94" y1="52.4" x2="34.94" y2="12.64" gradientUnits="userSpaceOnUse"><stop offset="0" stop-color="#897d2f"/><stop offset="0.05" stop-color="#8b7f32"/><stop offset="0.34" stop-color="#b2b96c"/><stop offset="0.37" stop-color="#b5bd70"/><stop offset="0.52" stop-color="#b1b96c"/><stop offset="0.66" stop-color="#a5ae60"/><stop offset="0.8" stop-color="#929b4d"/><stop offset="1" stop-color="#a7b467"/></linearGradient><linearGradient id="linear-gradient-23" x1="34.94" y1="52.34" x2="34.94" y2="12.7" gradientUnits="userSpaceOnUse"><stop offset="0" stop-color="#797c26"/><stop offset="0.05" stop-color="#7b7e29"/><stop offset="0.34" stop-color="#a5b964"/><stop offset="0.37" stop-color="#a8bd69"/><stop offset="0.5" stop-color="#a4b965"/><stop offset="0.63" stop-color="#99ae59"/><stop offset="0.76" stop-color="#879b46"/><stop offset="0.8" stop-color="#80943e"/><stop offset="1" stop-color="#98b05c"/></linearGradient><linearGradient id="linear-gradient-24" x1="34.94" y1="52.28" x2="34.94" y2="12.76" gradientUnits="userSpaceOnUse"><stop offset="0" stop-color="#697a1d"/><stop offset="0.05" stop-color="#6b7d20"/><stop offset="0.34" stop-color="#98b85c"/><stop offset="0.37" stop-color="#9cbd61"/><stop offset="0.49" stop-color="#98b95d"/><stop offset="0.61" stop-color="#8eae51"/><stop offset="0.73" stop-color="#7c9a3e"/><stop offset="0.8" stop-color="#6e8c2f"/><stop offset="1" stop-color="#89ac50"/></linearGradient><linearGradient id="linear-gradient-25" x1="34.94" y1="52.22" x2="34.94" y2="12.82" gradientUnits="userSpaceOnUse"><stop offset="0" stop-color="#597814"/><stop offset="0.05" stop-color="#5b7c17"/><stop offset="0.34" stop-color="#8bb754"/><stop offset="0.37" stop-color="#90bd5a"/><stop offset="0.48" stop-color="#8cb956"/><stop offset="0.59" stop-color="#82ae4a"/><stop offset="0.7" stop-color="#709a37"/><stop offset="0.8" stop-color="#5c8420"/><stop offset="1" stop-color="#7aa844"/></linearGradient><linearGradient id="linear-gradient-26" x1="34.94" y1="52.16" x2="34.94" y2="12.88" gradientUnits="userSpaceOnUse"><stop offset="0" stop-color="#48770b"/><stop offset="0.05" stop-color="#4b7a0f"/><stop offset="0.34" stop-color="#7eb74c"/><stop offset="0.37" stop-color="#83bd52"/><stop offset="0.48" stop-color="#80b94e"/><stop offset="0.58" stop-color="#75ae42"/><stop offset="0.69" stop-color="#649a2f"/><stop offset="0.79" stop-color="#4c7f13"/><stop offset="0.8" stop-color="#4a7d11"/><stop offset="1" stop-color="#6ca339"/></linearGradient><linearGradient id="linear-gradient-27" x1="34.94" y1="52.1" x2="34.94" y2="12.94" xlink:href="#linear-gradient-14"/><linearGradient id="linear-gradient-28" x1="34.63" y1="45.99" x2="34.63" y2="18.38" gradientUnits="userSpaceOnUse"><stop offset="0" stop-color="#ff9b7a"/><stop offset="0.17" stop-color="#ffb796"/><stop offset="0.91" stop-color="#ffba99"/><stop offset="0.97" stop-color="#ffcead"/></linearGradient><linearGradient id="linear-gradient-29" x1="34.63" y1="45.97" x2="34.63" y2="18.39" gradientUnits="userSpaceOnUse"><stop offset="0" stop-color="#eb986f"/><stop offset="0.17" stop-color="#ebb188"/><stop offset="0.91" stop-color="#ebb48b"/><stop offset="0.97" stop-color="#ebc69d"/></linearGradient><linearGradient id="linear-gradient-30" x1="34.63" y1="45.96" x2="34.63" y2="18.41" gradientUnits="userSpaceOnUse"><stop offset="0" stop-color="#d79564"/><stop offset="0.17" stop-color="#d7ac7b"/><stop offset="0.91" stop-color="#d7ae7d"/><stop offset="0.97" stop-color="#d7be8e"/></linearGradient><linearGradient id="linear-gradient-31" x1="34.63" y1="45.94" x2="34.63" y2="18.43" gradientUnits="userSpaceOnUse"><stop offset="0" stop-color="#c39159"/><stop offset="0.17" stop-color="#c3a66d"/><stop offset="0.91" stop-color="#c3a86f"/><stop offset="0.97" stop-color="#c3b77e"/></linearGradient><linearGradient id="linear-gradient-32" x1="34.63" y1="45.92" x2="34.63" y2="18.45" gradientUnits="userSpaceOnUse"><stop offset="0" stop-color="#af8e4e"/><stop offset="0.17" stop-color="#afa05f"/><stop offset="0.91" stop-color="#afa261"/><stop offset="0.97" stop-color="#afaf6e"/></linearGradient><linearGradient id="linear-gradient-33" x1="34.63" y1="45.9" x2="34.63" y2="18.47" gradientUnits="userSpaceOnUse"><stop offset="0" stop-color="#9b8b43"/><stop offset="0.17" stop-color="#9b9a52"/><stop offset="0.91" stop-color="#9b9c53"/><stop offset="0.97" stop-color="#9ba75e"/></linearGradient><linearGradient id="linear-gradient-34" x1="34.63" y1="45.89" x2="34.63" y2="18.48" gradientUnits="userSpaceOnUse"><stop offset="0" stop-color="#868837"/><stop offset="0.17" stop-color="#869544"/><stop offset="0.91" stop-color="#869646"/><stop offset="0.97" stop-color="#869f4f"/></linearGradient><linearGradient id="linear-gradient-35" x1="34.63" y1="45.87" x2="34.63" y2="18.5" gradientUnits="userSpaceOnUse"><stop offset="0" stop-color="#72852c"/><stop offset="0.17" stop-color="#728f37"/><stop offset="0.91" stop-color="#729038"/><stop offset="0.97" stop-color="#72973f"/></linearGradient><linearGradient id="linear-gradient-36" x1="34.63" y1="45.85" x2="34.63" y2="18.52" gradientUnits="userSpaceOnUse"><stop offset="0" stop-color="#5e8221"/><stop offset="0.17" stop-color="#5e8929"/><stop offset="0.91" stop-color="#5e8a2a"/><stop offset="0.97" stop-color="#5e8f2f"/></linearGradient><linearGradient id="linear-gradient-37" x1="34.63" y1="45.83" x2="34.63" y2="18.54" gradientUnits="userSpaceOnUse"><stop offset="0" stop-color="#4a7e16"/><stop offset="0.17" stop-color="#4a831b"/><stop offset="0.91" stop-color="#4a841c"/><stop offset="0.97" stop-color="#4a881f"/></linearGradient><linearGradient id="linear-gradient-38" x1="34.63" y1="45.81" x2="34.63" y2="18.56" gradientUnits="userSpaceOnUse"><stop offset="0" stop-color="#367b0b"/><stop offset="0.17" stop-color="#367e0e"/><stop offset="0.91" stop-color="#367e0e"/><stop offset="0.97" stop-color="#368010"/></linearGradient><linearGradient id="linear-gradient-39" x1="34.62" y1="62.05" x2="34.62" y2="16.23" gradientUnits="userSpaceOnUse"><stop offset="0" stop-color="#2b8b00"/><stop offset="0.23" stop-color="#309106"/><stop offset="0.37" stop-color="#35970d"/><stop offset="0.61" stop-color="#329309"/><stop offset="0.8" stop-color="#2b8b00"/><stop offset="1" stop-color="#319208"/></linearGradient><linearGradient id="linear-gradient-40" x1="34.62" y1="62" x2="34.62" y2="16.26" gradientUnits="userSpaceOnUse"><stop offset="0" stop-color="#2d8601"/><stop offset="0.16" stop-color="#338c07"/><stop offset="0.37" stop-color="#429e19"/><stop offset="0.54" stop-color="#3f9a15"/><stop offset="0.72" stop-color="#348e09"/><stop offset="0.8" stop-color="#2d8601"/><stop offset="1" stop-color="#3a940f"/></linearGradient><linearGradient id="linear-gradient-41" x1="34.61" y1="61.95" x2="34.61" y2="16.3" gradientUnits="userSpaceOnUse"><stop offset="0" stop-color="#308201"/><stop offset="0.12" stop-color="#368807"/><stop offset="0.28" stop-color="#459a19"/><stop offset="0.37" stop-color="#50a626"/><stop offset="0.51" stop-color="#4da222"/><stop offset="0.65" stop-color="#429716"/><stop offset="0.79" stop-color="#318403"/><stop offset="0.8" stop-color="#308201"/><stop offset="1" stop-color="#429717"/></linearGradient><linearGradient id="linear-gradient-42" x1="34.6" y1="61.9" x2="34.6" y2="16.34" gradientUnits="userSpaceOnUse"><stop offset="0" stop-color="#337e01"/><stop offset="0.1" stop-color="#398407"/><stop offset="0.23" stop-color="#489619"/><stop offset="0.37" stop-color="#5dae32"/><stop offset="0.49" stop-color="#5aaa2e"/><stop offset="0.61" stop-color="#509f22"/><stop offset="0.73" stop-color="#3f8b0f"/><stop offset="0.8" stop-color="#337e01"/><stop offset="1" stop-color="#4b9a1e"/></linearGradient><linearGradient id="linear-gradient-43" x1="34.59" y1="61.85" x2="34.59" y2="16.37" gradientUnits="userSpaceOnUse"><stop offset="0" stop-color="#357902"/><stop offset="0.09" stop-color="#3b7f08"/><stop offset="0.21" stop-color="#4b921b"/><stop offset="0.34" stop-color="#65af38"/><stop offset="0.37" stop-color="#6ab53e"/><stop offset="0.48" stop-color="#67b13a"/><stop offset="0.59" stop-color="#5ca52e"/><stop offset="0.7" stop-color="#4b921b"/><stop offset="0.8" stop-color="#357902"/><stop offset="1" stop-color="#549c25"/></linearGradient><linearGradient id="linear-gradient-44" x1="34.59" y1="61.8" x2="34.59" y2="16.41" xlink:href="#linear-gradient-14"/></defs><title>small-tub</title><g class="cls-2"><g id="Layer_1" data-name="Layer 1"><path class="cls-3" d="M2.74,36.62,5.33,55.37h0a6.23,6.23,0,0,0,6,4.45H58.49a6.23,6.23,0,0,0,6-4.45h0l2.58-18.75Z" transform="translate(0 12)"/><path class="cls-4" d="M2.74,36.62,5.33,55.33h0a6.22,6.22,0,0,0,6,4.43H58.49a6.22,6.22,0,0,0,6-4.43h0l2.58-18.71Z" transform="translate(0 12)"/><path class="cls-5" d="M2.74,36.62,5.33,55.29h0a6.22,6.22,0,0,0,6,4.41H58.49a6.22,6.22,0,0,0,6-4.41h0l2.58-18.67Z" transform="translate(0 12)"/><path class="cls-6" d="M2.74,36.62,5.33,55.25h0a6.22,6.22,0,0,0,6,4.39H58.49a6.22,6.22,0,0,0,6-4.39h0l2.58-18.63Z" transform="translate(0 12)"/><path class="cls-7" d="M2.74,36.62l2.58,18.6h0a6.21,6.21,0,0,0,6,4.37H58.49a6.21,6.21,0,0,0,6-4.37h0l2.58-18.6Z" transform="translate(0 12)"/><path class="cls-8" d="M2.74,36.62,5.33,55.18h0a6.21,6.21,0,0,0,6,4.35H58.49a6.21,6.21,0,0,0,6-4.35h0l2.58-18.56Z" transform="translate(0 12)"/><path class="cls-9" d="M2.74,36.62,5.33,55.14h0a6.21,6.21,0,0,0,6,4.33H58.49a6.21,6.21,0,0,0,6-4.33h0l2.58-18.52Z" transform="translate(0 12)"/><path class="cls-10" d="M2.74,36.62,5.33,55.1h0a6.21,6.21,0,0,0,6,4.31H58.49a6.21,6.21,0,0,0,6-4.31h0l2.58-18.48Z" transform="translate(0 12)"/><path class="cls-11" d="M2.74,36.62,5.33,55.06h0a6.2,6.2,0,0,0,6,4.29H58.49a6.2,6.2,0,0,0,6-4.29h0l2.58-18.44Z" transform="translate(0 12)"/><path class="cls-12" d="M2.74,36.62,5.33,55h0a6.2,6.2,0,0,0,6,4.27H58.49a6.2,6.2,0,0,0,6-4.27h0l2.58-18.4Z" transform="translate(0 12)"/><path class="cls-13" d="M2.74,36.62,5.33,55h0a6.2,6.2,0,0,0,6,4.24H58.49a6.2,6.2,0,0,0,6-4.24h0l2.58-18.36Z" transform="translate(0 12)"/><path class="cls-14" d="M2.74,36.62,5.33,54.94h0a6.2,6.2,0,0,0,6,4.22H58.49a6.2,6.2,0,0,0,6-4.22h0l2.58-18.32Z" transform="translate(0 12)"/><path class="cls-15" d="M2.74,38.56l1.7,2.63c.82.84,3.11,1.42,6,1.42h48c2.94,0,5.23-.59,6-1.42l2.58-2.63Z" transform="translate(0 12)"/><path class="cls-16" d="M2.74,38.56l1.7,2.59c.82.82,3.11,1.4,6,1.4h48c2.94,0,5.23-.58,6-1.4l2.58-2.59Z" transform="translate(0 12)"/><path class="cls-17" d="M2.74,38.56l1.7,2.55c.82.81,3.11,1.38,6,1.38h48c2.94,0,5.23-.57,6-1.38l2.58-2.55Z" transform="translate(0 12)"/><path class="cls-18" d="M2.74,38.56l1.7,2.51c.82.8,3.11,1.36,6,1.36h48c2.94,0,5.23-.56,6-1.36l2.58-2.51Z" transform="translate(0 12)"/><path class="cls-19" d="M2.74,38.56,4.45,41c.82.78,3.11,1.33,6,1.33h48c2.94,0,5.23-.55,6-1.33l2.58-2.47Z" transform="translate(0 12)"/><path class="cls-20" d="M2.74,38.56,4.45,41c.82.77,3.11,1.31,6,1.31h48c2.94,0,5.23-.54,6-1.31l2.58-2.42Z" transform="translate(0 12)"/><path class="cls-21" d="M2.74,38.56l1.7,2.38c.82.76,3.11,1.29,6,1.29h48c2.94,0,5.23-.53,6-1.29l2.58-2.38Z" transform="translate(0 12)"/><path class="cls-22" d="M2.74,38.56l1.7,2.34c.82.74,3.11,1.27,6,1.27h48c2.94,0,5.23-.52,6-1.27l2.58-2.34Z" transform="translate(0 12)"/><path class="cls-23" d="M2.74,38.56l1.7,2.3c.82.73,3.11,1.24,6,1.24h48c2.94,0,5.23-.51,6-1.24l2.58-2.3Z" transform="translate(0 12)"/><path class="cls-24" d="M2.74,38.56l1.7,2.26c.82.72,3.11,1.22,6,1.22h48c2.94,0,5.23-.51,6-1.22l2.58-2.26Z" transform="translate(0 12)"/><path class="cls-25" d="M2.74,38.56l1.7,2.21c.82.7,3.11,1.2,6,1.2h48c2.94,0,5.23-.5,6-1.2l2.58-2.21Z" transform="translate(0 12)"/><path class="cls-26" d="M2.74,38.56l1.7,2.17c.82.69,3.11,1.17,6,1.17h48c2.94,0,5.23-.49,6-1.17l2.58-2.17Z" transform="translate(0 12)"/><path class="cls-27" d="M68.91,32.63,65.71,6.09C65.11,2.67,61.09,0,56.57,0H13.3C8.78,0,4.76,2.67,4.16,6.09L.07,37.92a2.49,2.49,0,0,0,0,.75h0L.2,39.77h0a2.12,2.12,0,0,0,2.2,1.85H60.52a8.88,8.88,0,0,0,6.86-2.84,6.1,6.1,0,0,0,1.43-3.19h0L69,34.48h0A6.14,6.14,0,0,0,68.91,32.63Z" transform="translate(0 12)"/><path class="cls-28" d="M0,37.92,4.13,6.09C4.73,2.67,8.74,0,13.27,0H56.53c4.52,0,8.54,2.67,9.14,6.09l3.2,26.54a6.06,6.06,0,0,1-1.39,5.06,8.91,8.91,0,0,1-6.88,2.85H2.23A2.15,2.15,0,0,1,0,37.92Z" transform="translate(0 12)"/><path class="cls-29" d="M2.27,40.27A2,2,0,0,1,.73,39.6,2,2,0,0,1,.34,38L4.42,6.13C5,2.84,8.9.26,13.3.26H56.57c4.4,0,8.3,2.58,8.88,5.87l3.2,26.54a5.8,5.8,0,0,1-1.33,4.84,8.65,8.65,0,0,1-6.68,2.76Z" transform="translate(0 12)"/><path class="cls-30" d="M.66,38.91,4.71,6.74c.58-3.34,4.44-6,8.81-6H56.35c4.36,0,8.23,2.61,8.81,6l3.17,26.79a6,6,0,0,1-.1,2.55,5.76,5.76,0,0,0,.42-3.41L65.45,6.13C64.87,2.84,61,.26,56.57.26H13.3C8.9.26,5,2.84,4.42,6.13L.34,38a2,2,0,0,0,.29,1.49A2.36,2.36,0,0,1,.66,38.91Z" transform="translate(0 12)"/><path class="cls-31" d="M67.5,33.2h0a4.9,4.9,0,0,0-.07-.84L64.23,5.62C63.75,2.87,60.33.71,56.57.71H13.3C9.54.71,6.12,2.87,5.64,5.62L2.44,32.36a4.9,4.9,0,0,0-.07.84h0v1.32h0c0,3,2.88,5.39,6.87,5.39h51.4c4,0,6.87-2.38,6.87-5.39h0Z" transform="translate(0 12)"/><path class="cls-32" d="M67.43,32.36c.59,3.4-2.44,6.23-6.79,6.23H9.24c-4.35,0-7.39-2.84-6.79-6.23L5.64,5.62C6.12,2.87,9.54.71,13.3.71H56.57c3.76,0,7.18,2.17,7.66,4.91Z" transform="translate(0 12)"/><path class="cls-33" d="M13.3,1c-3.63,0-7,2.11-7.4,4.69L2.7,32.4a4.38,4.38,0,0,0,1,3.67,7.12,7.12,0,0,0,5.53,2.25H39V1Z" transform="translate(0 12)"/><path class="cls-34" d="M67.17,32.4,64,5.66C63.52,3.08,60.2,1,56.57,1H39V38.33H60.63a7.12,7.12,0,0,0,5.53-2.25A4.38,4.38,0,0,0,67.17,32.4Z" transform="translate(0 12)"/><g class="cls-35"><ellipse class="cls-36" cx="7.32" cy="1.98" rx="2.82" ry="14.29" transform="translate(-0.25 13.59) rotate(-12.15)"/><ellipse class="cls-37" cx="64.44" cy="1.98" rx="14.29" ry="2.82" transform="translate(48.94 76.56) rotate(-77.85)"/><path class="cls-38" d="M64.85,46c.55,3.7-2.43,6.79-6.46,6.79H11.48c-4,0-7-3.09-6.46-6.79L8.15,17.62c.44-3,3.61-5.35,7.09-5.35h39.4c3.48,0,6.64,2.36,7.09,5.35Z" transform="translate(0 12)"/><path class="cls-39" d="M64.73,45.94c.55,3.68-2.41,6.76-6.42,6.76H11.56c-4,0-7-3.08-6.42-6.76l3.1-28.28c.44-3,3.6-5.33,7.06-5.33H54.56c3.47,0,6.62,2.35,7.07,5.33Z" transform="translate(0 12)"/><path class="cls-40" d="M64.61,45.91c.54,3.67-2.39,6.73-6.39,6.73H11.65c-4,0-6.93-3.06-6.39-6.73L8.34,17.7c.44-3,3.59-5.31,7-5.31H54.49c3.46,0,6.6,2.34,7,5.31Z" transform="translate(0 12)"/><path class="cls-41" d="M64.49,45.87c.54,3.66-2.36,6.71-6.35,6.71H11.73c-4,0-6.9-3.05-6.35-6.71L8.43,17.74c.44-3,3.58-5.29,7-5.29h39c3.44,0,6.58,2.33,7,5.29Z" transform="translate(0 12)"/><path class="cls-42" d="M64.38,45.84c.54,3.64-2.34,6.68-6.32,6.68H11.81c-4,0-6.86-3-6.32-6.68l3-28.06c.44-2.94,3.57-5.27,7-5.27H54.34c3.43,0,6.56,2.32,7,5.27Z" transform="translate(0 12)"/><path class="cls-43" d="M64.26,45.8c.54,3.63-2.32,6.66-6.28,6.66H11.9c-4,0-6.82-3-6.28-6.66l3-28c.44-2.93,3.56-5.25,7-5.25H54.27c3.42,0,6.54,2.32,7,5.25Z" transform="translate(0 12)"/><path class="cls-44" d="M64.14,45.77c.54,3.61-2.3,6.63-6.25,6.63H12c-4,0-6.79-3-6.25-6.63l3-27.91c.43-2.92,3.54-5.23,7-5.23H54.2c3.41,0,6.52,2.31,7,5.23Z" transform="translate(0 12)"/><path class="cls-45" d="M64,45.73c.54,3.6-2.27,6.61-6.21,6.61H12.06c-3.94,0-6.75-3-6.21-6.61l3-27.83c.43-2.91,3.53-5.21,6.94-5.21H54.13c3.4,0,6.5,2.3,6.94,5.21Z" transform="translate(0 12)"/><path class="cls-46" d="M63.9,45.7c.53,3.59-2.25,6.58-6.18,6.58H12.15c-3.93,0-6.71-3-6.18-6.58L8.9,17.94c.43-2.9,3.52-5.19,6.91-5.19H54.06c3.39,0,6.48,2.29,6.91,5.19Z" transform="translate(0 12)"/><path class="cls-47" d="M63.78,45.66c.53,3.57-2.23,6.55-6.14,6.55H12.23c-3.92,0-6.68-3-6.14-6.55L9,18c.43-2.89,3.51-5.17,6.89-5.17H54c3.38,0,6.46,2.28,6.89,5.17Z" transform="translate(0 12)"/><path class="cls-48" d="M63.66,45.63c.53,3.56-2.21,6.53-6.11,6.53H12.31c-3.9,0-6.64-3-6.11-6.53L9.09,18c.43-2.87,3.5-5.15,6.87-5.15h38c3.37,0,6.44,2.27,6.87,5.15Z" transform="translate(0 12)"/><path class="cls-49" d="M63.55,45.59c.53,3.54-2.18,6.5-6.07,6.5H12.4c-3.89,0-6.6-3-6.07-6.5L9.18,18.07c.43-2.86,3.49-5.12,6.85-5.12H53.84c3.36,0,6.42,2.26,6.85,5.12Z" transform="translate(0 12)"/><path class="cls-50" d="M56,44c.1,1.1-1.27,2-2.53,2H15.76c-1.25,0-2.63-.9-2.53-2l1.86-23.86a2.19,2.19,0,0,1,2.27-1.75H51.9a2.19,2.19,0,0,1,2.27,1.75Z" transform="translate(0 12)"/><path class="cls-51" d="M56,44c.1,1.1-1.25,2-2.5,2H15.78c-1.25,0-2.6-.9-2.5-2l1.84-23.83a2.18,2.18,0,0,1,2.26-1.75h34.5a2.18,2.18,0,0,1,2.26,1.75Z" transform="translate(0 12)"/><path class="cls-52" d="M55.93,44c.1,1.1-1.22,2-2.47,2H15.81c-1.25,0-2.58-.9-2.47-2l1.82-23.8a2.16,2.16,0,0,1,2.25-1.75H51.86a2.16,2.16,0,0,1,2.25,1.75Z" transform="translate(0 12)"/><path class="cls-53" d="M55.88,44c.1,1.09-1.2,2-2.45,2H15.83c-1.25,0-2.55-.89-2.45-2l1.8-23.78a2.15,2.15,0,0,1,2.24-1.74h34.4a2.15,2.15,0,0,1,2.24,1.74Z" transform="translate(0 12)"/><path class="cls-54" d="M55.83,43.94c.1,1.09-1.17,2-2.42,2H15.86c-1.25,0-2.52-.89-2.42-2l1.78-23.75a2.14,2.14,0,0,1,2.23-1.74H51.81A2.14,2.14,0,0,1,54,20.19Z" transform="translate(0 12)"/><path class="cls-55" d="M55.77,43.92c.1,1.09-1.15,2-2.4,2H15.88c-1.25,0-2.5-.89-2.4-2L15.25,20.2a2.13,2.13,0,0,1,2.22-1.74H51.78A2.13,2.13,0,0,1,54,20.2Z" transform="translate(0 12)"/><path class="cls-56" d="M55.72,43.91c.1,1.09-1.12,2-2.37,2H15.91c-1.25,0-2.47-.89-2.37-2l1.75-23.69a2.12,2.12,0,0,1,2.21-1.73H51.76A2.12,2.12,0,0,1,54,20.22Z" transform="translate(0 12)"/><path class="cls-57" d="M55.67,43.89c.1,1.09-1.1,2-2.34,2H15.93c-1.25,0-2.44-.89-2.34-2l1.73-23.66a2.11,2.11,0,0,1,2.2-1.73H51.74a2.11,2.11,0,0,1,2.2,1.73Z" transform="translate(0 12)"/><path class="cls-58" d="M55.62,43.88c.1,1.08-1.07,2-2.32,2H16c-1.24,0-2.42-.89-2.32-2l1.71-23.63a2.1,2.1,0,0,1,2.19-1.73H51.71a2.1,2.1,0,0,1,2.19,1.73Z" transform="translate(0 12)"/><path class="cls-59" d="M55.57,43.87c.1,1.08-1,2-2.29,2H16c-1.24,0-2.39-.88-2.29-2l1.7-23.6a2.08,2.08,0,0,1,2.18-1.73H51.69a2.08,2.08,0,0,1,2.18,1.73Z" transform="translate(0 12)"/><path class="cls-60" d="M55.52,43.85c.1,1.08-1,2-2.26,2H16c-1.24,0-2.36-.88-2.26-2l1.68-23.57a2.07,2.07,0,0,1,2.17-1.72H51.67a2.07,2.07,0,0,1,2.17,1.72Z" transform="translate(0 12)"/><path class="cls-61" d="M55.47,43.84a2.05,2.05,0,0,1-2.24,2H16a2.05,2.05,0,0,1-2.24-2l1.66-23.55a2.06,2.06,0,0,1,2.16-1.72h34a2.06,2.06,0,0,1,2.16,1.72Z" transform="translate(0 12)"/><path class="cls-62" d="M16,44.75a1.26,1.26,0,0,1-1-.39.54.54,0,0,1-.14-.41l1.4-23.55c0-.32.55-.77,1.29-.77h34c.75,0,1.27.46,1.29.77l1.4,23.55a.54.54,0,0,1-.14.41,1.26,1.26,0,0,1-1,.39Z" transform="translate(0 12)"/><path class="cls-29" d="M15.44,44l1.48-23.68a.78.78,0,0,1,.69-.31h34a.78.78,0,0,1,.69.31L53.82,44h0C53.73,44.07,15.44,44,15.44,44Z" transform="translate(0 12)"/><path class="cls-63" d="M17,20.3a.74.74,0,0,1,.68-.3h34a.78.78,0,0,1,.69.3L53.76,44h0c-.07.09-38.28,0-38.28,0Z" transform="translate(0 12)"/><path class="cls-64" d="M17,20.31a.71.71,0,0,1,.66-.28H51.6a.78.78,0,0,1,.69.28L53.71,44h0c-.06.07-38.19,0-38.19,0Z" transform="translate(0 12)"/><path class="cls-65" d="M17,20.32c.07-.1.21-.26.65-.26h33.9a.78.78,0,0,1,.69.26l1.39,23.62h0c0,.05-38.1,0-38.1,0Z" transform="translate(0 12)"/><path class="cls-66" d="M17.07,20.34c.07-.1.19-.25.63-.25H51.56c.44,0,.62.15.69.25l1.36,23.6h0s-38,0-38,0Z" transform="translate(0 12)"/><path class="cls-67" d="M17.11,20.35c.07-.1.18-.23.62-.23H51.54c.44,0,.62.13.69.23l1.33,23.58h0s-37.92,0-37.92,0Z" transform="translate(0 12)"/><path class="cls-68" d="M15.67,43.92l1.47-23.56c.07-.1.16-.21.6-.21H51.52c.44,0,.62.12.69.21l1.3,23.56Z" transform="translate(0 12)"/><path class="cls-69" d="M67.08,35.7,63.88,8.48c-.44-2.62-3.73-4.74-7.32-4.74H13.3C9.71,3.74,6.43,5.86,6,8.48L2.79,35.7a4.49,4.49,0,0,0,1,3.7,7,7,0,0,0,5.46,2.28h51.4A6.94,6.94,0,0,0,66.1,39.4,4.49,4.49,0,0,0,67.08,35.7ZM66,39.28a6.77,6.77,0,0,1-5.33,2.21H9.24a6.77,6.77,0,0,1-5.33-2.21A4.32,4.32,0,0,1,3,35.73L6.16,8.51C6.59,6,9.79,3.91,13.3,3.91H56.57c3.51,0,6.71,2.06,7.14,4.59l3.2,27.22A4.32,4.32,0,0,1,66,39.28Z" transform="translate(0 12)"/></g></g></g></svg>