<svg id="Layer_1" data-name="Layer 1" xmlns="http://www.w3.org/2000/svg" xmlns:xlink="http://www.w3.org/1999/xlink" viewBox="0 0 92.54 68.29"><defs><style>.cls-1{fill:url(#linear-gradient);}.cls-2{fill:url(#linear-gradient-2);}.cls-3{fill:url(#linear-gradient-3);}.cls-4{fill:url(#linear-gradient-4);}.cls-5{fill:url(#linear-gradient-5);}.cls-6{fill:url(#linear-gradient-6);}.cls-7{fill:url(#linear-gradient-7);}.cls-8{fill:url(#linear-gradient-8);}.cls-9{fill:#387502;}.cls-10{fill:#fff;}</style><linearGradient id="linear-gradient" x1="4214.67" y1="-272.77" x2="4225.18" y2="-247.94" gradientTransform="matrix(-1, 0.08, 0.08, 1, 4245.79, -26.5)" gradientUnits="userSpaceOnUse"><stop offset="0.19" stop-color="#77bd4b"/><stop offset="0.33" stop-color="#74b947"/><stop offset="0.47" stop-color="#69ae3b"/><stop offset="0.61" stop-color="#589a28"/><stop offset="0.75" stop-color="#417f0c"/><stop offset="0.8" stop-color="#387502"/><stop offset="1" stop-color="#5d9f2d"/></linearGradient><linearGradient id="linear-gradient-2" x1="4216.44" y1="18.19" x2="4219.73" y2="25.96" gradientTransform="matrix(-1, 0, 0, 1, 4231.02, 0)" gradientUnits="userSpaceOnUse"><stop offset="0" stop-color="#f2f9ee"/><stop offset="0.14" stop-color="#eef7e9"/><stop offset="0.3" stop-color="#e4f2db"/><stop offset="0.47" stop-color="#d2eac4"/><stop offset="0.64" stop-color="#badea4"/><stop offset="0.82" stop-color="#9bcf7b"/><stop offset="1" stop-color="#77bd4b"/></linearGradient><linearGradient id="linear-gradient-3" x1="4144.18" y1="-0.43" x2="4209.58" y2="57.93" gradientTransform="matrix(-1, 0, 0, 1, 4231.02, 0)" xlink:href="#linear-gradient"/><linearGradient id="linear-gradient-4" x1="4138.9" y1="38.47" x2="4158.7" y2="38.47" gradientTransform="matrix(-1, 0, 0, 1, 4231.02, 0)" gradientUnits="userSpaceOnUse"><stop offset="0" stop-color="#fff"/><stop offset="0.61" stop-color="#77bd4b"/><stop offset="0.75" stop-color="#74b947"/><stop offset="0.89" stop-color="#69ad3b"/><stop offset="1" stop-color="#5d9f2d"/></linearGradient><linearGradient id="linear-gradient-5" x1="4142.72" y1="40.16" x2="4166.12" y2="40.16" gradientTransform="matrix(-1, 0, 0, 1, 4231.02, 0)" gradientUnits="userSpaceOnUse"><stop offset="0" stop-color="#fff"/><stop offset="1" stop-color="#77bd4b"/></linearGradient><linearGradient id="linear-gradient-6" x1="4175.62" y1="28.06" x2="4175.62" y2="0" gradientTransform="matrix(-1, 0, 0, 1, 4231.02, 0)" xlink:href="#linear-gradient"/><linearGradient id="linear-gradient-7" x1="4175.62" y1="27.04" x2="4175.62" y2="1.06" gradientTransform="matrix(-1, 0, 0, 1, 4231.02, 0)" xlink:href="#linear-gradient"/><linearGradient id="linear-gradient-8" x1="4175.63" y1="27" x2="4175.63" y2="2.14" gradientTransform="matrix(-1, 0, 0, 1, 4231.02, 0)" gradientUnits="userSpaceOnUse"><stop offset="0.01" stop-color="#d5c6b8"/><stop offset="0.01" stop-color="#a6ae81"/><stop offset="0.02" stop-color="#7e9954"/><stop offset="0.02" stop-color="#608a30"/><stop offset="0.03" stop-color="#4a7e17"/><stop offset="0.04" stop-color="#3d7707"/><stop offset="0.04" stop-color="#387502"/><stop offset="1" stop-color="#77bd4b"/></linearGradient></defs><title>small-cup</title><path class="cls-1" d="M22.39,33S18.1,22.16,10.27,22.1-1.29,31.51,7.54,36.36c10.19,5.6,17.69,5.12,17.69,5.12s2.39-1.71,4.25,3.1c1.34,3.45,2.67,8.83,2.9,9.09.42.48-5.67-3.77-8.85-5.16s-10.95-4-15-6.22S.84,36.95.17,30.72s.58-10.9,6.44-13.08S20.4,20.87,20.4,20.87a10.85,10.85,0,0,1,2.22,5A50.76,50.76,0,0,1,22.39,33Z"/><path class="cls-2" d="M22,26.5S10.84,15.73,1.85,22.56c0,0,.71-3.19,5.85-4.71s11.84,3,11.84,3A9,9,0,0,1,22,26.5Z"/><path class="cls-3" d="M18.92,10.24H91.76s1.8,8.17-1.94,22.2S77.34,58.42,70,64.49a35.28,35.28,0,0,1-14.14,2.29,35.29,35.29,0,0,1-14.15-2.29c-7.31-6.07-16-18-19.79-32.06S18.92,10.24,18.92,10.24Z"/><path class="cls-4" d="M89.82,32.43c-3.74,14-12.48,26-19.79,32.06A33.74,33.74,0,0,1,59.86,66.7C79,53.57,76.74,14.21,76.74,14.21c8.51-.17,12.82-2.22,15-4v0S93.56,18.39,89.82,32.43Z"/><path class="cls-5" d="M88.3,16.64l-6,1.21s2.28,31.27-17.4,45.84C64.9,63.69,85.73,53.67,88.3,16.64Z"/><path class="cls-6" d="M18.25,13.07c0,8.28,16.63,15,37.14,15s37.14-6.72,37.14-15S72.57.1,55.9,0,18.25,4.79,18.25,13.07Z"/><path class="cls-7" d="M18.67,12.79c0,7.44,16.45,13.47,36.73,13.47s36.73-6,36.73-13.47S72.38,1.14,55.9,1.06,18.67,5.35,18.67,12.79Z"/><path class="cls-8" d="M56.12,2.14c21.5,0,32.76,3.93,35.94,10.57-1.17,7.56-17.22,13.56-36.87,13.56-18.38,0-33.61-5.25-36.46-12.12C19.91,6.6,34.61,2.11,56.12,2.14Z"/><path class="cls-9" d="M54.39,62.35c18.61-.49,25.9-8.89,33.45-25,0,0-.17,1.07-.63,2.81C82.82,50.77,76,59.56,70,64.49c0,0-4.48,3.7-14.14,3.81s-14.15-3.81-14.15-3.81C35.42,59.24,28,49.61,23.74,38,27.93,45.26,39.62,62.74,54.39,62.35Z"/><path class="cls-9" d="M74.89,41.38S71,63.69,55.2,63.46,39.58,48.21,37,40c0,0,7.49,19.81,18.19,19.12S72.11,48.66,74.89,41.38Z"/><path class="cls-10" d="M37.36,4S15.87,9.92,20.85,14C20.85,14,26.41,7.59,37.36,4Z"/><path class="cls-10" d="M75.64,6.37s15.64,3.76,12.18,6.29A31.15,31.15,0,0,0,75.64,6.37Z"/></svg>