<svg id="Layer_1" data-name="Layer 1" xmlns="http://www.w3.org/2000/svg" xmlns:xlink="http://www.w3.org/1999/xlink" viewBox="0 0 56.91 72.18"><defs><style>.cls-1{fill:url(#linear-gradient);}.cls-2{fill:url(#linear-gradient-2);}.cls-3{fill:url(#linear-gradient-3);}.cls-4{fill:url(#linear-gradient-4);}</style><linearGradient id="linear-gradient" x1="1274.55" y1="148.61" x2="1331.36" y2="148.61" gradientTransform="translate(-1274.55 -110.38)" gradientUnits="userSpaceOnUse"><stop offset="0" stop-color="#77bd4b"/><stop offset="0.15" stop-color="#71b644"/><stop offset="0.36" stop-color="#60a330"/><stop offset="0.61" stop-color="#448310"/><stop offset="0.71" stop-color="#387502"/><stop offset="0.79" stop-color="#3d7a08"/><stop offset="0.9" stop-color="#4b8a18"/><stop offset="1" stop-color="#5d9f2d"/></linearGradient><linearGradient id="linear-gradient-2" x1="1278.92" y1="148.84" x2="1297.65" y2="148.84" gradientTransform="translate(-1274.55 -110.38)" gradientUnits="userSpaceOnUse"><stop offset="0" stop-color="#f2f9ee"/><stop offset="0.09" stop-color="#e1f1d7"/><stop offset="0.31" stop-color="#bbdea5"/><stop offset="0.52" stop-color="#9ed07e"/><stop offset="0.71" stop-color="#88c662"/><stop offset="0.88" stop-color="#7cbf51"/><stop offset="1" stop-color="#77bd4b"/></linearGradient><linearGradient id="linear-gradient-3" x1="-2489.65" y1="511.09" x2="-2432.55" y2="511.09" gradientTransform="matrix(-0.99, 0, 0, -1.02, -2418.59, 525.09)" gradientUnits="userSpaceOnUse"><stop offset="0.01" stop-color="#458411"/><stop offset="1" stop-color="#a2d284"/></linearGradient><linearGradient id="linear-gradient-4" x1="1275.47" y1="114.46" x2="1330.77" y2="114.46" gradientTransform="translate(-1274.55 -110.38)" gradientUnits="userSpaceOnUse"><stop offset="0.01" stop-color="#387502"/><stop offset="1" stop-color="#77bd4b"/></linearGradient></defs><title>small-glass</title><path class="cls-1" d="M0,4.28C6.1,5.36,25.42,5.77,28.41,5.83s22.31-.47,28.41-1.55c0,0-1.56,49-10.9,64.2,0,0-5.59,3.53-17.12,3.69H28C16.48,72,10.9,68.49,10.9,68.49,1.56,53.31,0,4.28,0,4.28Z"/><path class="cls-2" d="M18.9,7.84s-5.65,48.62,4.2,62.84c0,0-3.07.48-9.21-2.1,0,0-8.72-20.19-9.53-62.35C4.36,6,17,9.13,18.9,7.84Z"/><ellipse class="cls-3" cx="28.53" cy="4.27" rx="28.39" ry="4.26" transform="translate(-0.03 0.2) rotate(-0.4)"/><ellipse class="cls-4" cx="28.57" cy="4.08" rx="27.65" ry="3.44"/></svg>