<svg xmlns="http://www.w3.org/2000/svg" xmlns:xlink="http://www.w3.org/1999/xlink" viewBox="0 0 62.71 63.82"><defs><style>.cls-1{isolation:isolate;}.cls-2{fill:url(#linear-gradient);}.cls-12,.cls-3{opacity:0.5;}.cls-3{mix-blend-mode:multiply;}.cls-4{fill:#7ce280;opacity:0;}.cls-5{fill:#74db7c;opacity:0.06;}.cls-6{fill:#68d67c;opacity:0.13;}.cls-7{fill:#5cd279;opacity:0.19;}.cls-8{fill:#53cd77;opacity:0.25;}.cls-9{fill:#48c975;opacity:0.31;}.cls-10{fill:#3ec374;opacity:0.38;}.cls-11{fill:#36bf72;opacity:0.44;}.cls-12{fill:#2cb970;}.cls-13{fill:#23b46c;opacity:0.56;}.cls-14{fill:#1ab06b;opacity:0.63;}.cls-15{fill:#11ac69;opacity:0.69;}.cls-16{fill:#08a968;opacity:0.75;}.cls-17{fill:#00a366;opacity:0.81;}.cls-18{fill:#00a064;opacity:0.88;}.cls-19{fill:#009c63;opacity:0.94;}.cls-20{fill:#00985f;}.cls-21{opacity:0.55;mix-blend-mode:screen;fill:url(#linear-gradient-2);}.cls-22{fill:url(#linear-gradient-3);}.cls-23{fill:url(#radial-gradient);}.cls-24{fill:#fbfbfb;opacity:0.8;}</style><linearGradient id="linear-gradient" x1="-541.58" y1="31.91" x2="-478.87" y2="31.91" gradientTransform="matrix(-1, 0, 0, 1, -478.87, 0)" gradientUnits="userSpaceOnUse"><stop offset="0" stop-color="#4dc876"/><stop offset="0.01" stop-color="#3ec173"/><stop offset="0.03" stop-color="#22b56e"/><stop offset="0.05" stop-color="#11ad6a"/><stop offset="0.06" stop-color="#0baa69"/><stop offset="0.19" stop-color="#3dc273"/><stop offset="0.43" stop-color="#3bc172"/><stop offset="0.7" stop-color="#009c63"/><stop offset="0.74" stop-color="#008b4d"/><stop offset="0.85" stop-color="#008c4f"/><stop offset="0.88" stop-color="#009156"/><stop offset="0.88" stop-color="#009156"/><stop offset="0.91" stop-color="#009e63"/><stop offset="1" stop-color="#38bf71"/></linearGradient><linearGradient id="linear-gradient-2" x1="-529.03" y1="27.3" x2="-514.89" y2="27.3" gradientTransform="matrix(-1, 0, 0, 1, -478.87, 0)" gradientUnits="userSpaceOnUse"><stop offset="0"/><stop offset="0.15" stop-color="#57cd77"/><stop offset="0.85" stop-color="#57cd77"/><stop offset="1"/></linearGradient><linearGradient id="linear-gradient-3" x1="-510.22" y1="5.28" x2="-510.22" gradientTransform="matrix(-1, 0, 0, 1, -478.87, 0)" gradientUnits="userSpaceOnUse"><stop offset="0.04" stop-color="#fff"/><stop offset="0.11" stop-color="#f5f4f6"/><stop offset="0.3" stop-color="#dedde1"/><stop offset="0.5" stop-color="#ceccd2"/><stop offset="0.72" stop-color="#c5c2ca"/><stop offset="1" stop-color="#c2bfc7"/></linearGradient><radialGradient id="radial-gradient" cx="957.96" cy="20762.19" r="76.74" gradientTransform="matrix(-0.53, 0, 0, 0.04, 543.75, -909.82)" gradientUnits="userSpaceOnUse"><stop offset="0" stop-color="#e1e1e7"/><stop offset="0.19" stop-color="#dcdce2"/><stop offset="0.43" stop-color="#cdcdd4"/><stop offset="0.69" stop-color="#b5b5bc"/><stop offset="0.96" stop-color="#92939b"/><stop offset="1" stop-color="#8d8e96"/></radialGradient></defs><title>small-jar</title><g class="cls-1"><g id="Layer_1" data-name="Layer 1"><path class="cls-2" d="M0,57.36A2.28,2.28,0,0,0,.89,59.1c7.17,6,53.78,6.61,61-.07a2.24,2.24,0,0,0,.78-1.64V3.19A1.59,1.59,0,0,0,61.39,1.8C57,.6,44.18,0,31.36,0,27.51,0,7.22.13,1.3,1.8A1.58,1.58,0,0,0,0,3.19Z"/><g class="cls-3"><path class="cls-4" d="M61.93,56.95a2.24,2.24,0,0,0,.78-1.64v2.08A2.24,2.24,0,0,1,61.93,59c-7.25,6.68-53.87,6.06-61,.07A2.28,2.28,0,0,1,0,57.36V55.28A2.28,2.28,0,0,0,.89,57C8.06,63,54.68,63.63,61.93,56.95Z"/><path class="cls-5" d="M61.93,57.06a2.24,2.24,0,0,0,.78-1.64v2A2.24,2.24,0,0,1,61.93,59c-7.25,6.68-53.87,6.06-61,.07A2.28,2.28,0,0,1,0,57.36v-2a2.28,2.28,0,0,0,.89,1.74C8.06,63.12,54.68,63.75,61.93,57.06Z"/><path class="cls-6" d="M61.93,57.18a2.24,2.24,0,0,0,.78-1.64v1.85A2.24,2.24,0,0,1,61.93,59c-7.25,6.68-53.87,6.06-61,.07A2.28,2.28,0,0,1,0,57.36V55.51a2.28,2.28,0,0,0,.89,1.74C8.06,63.24,54.68,63.86,61.93,57.18Z"/><path class="cls-7" d="M61.93,57.3a2.24,2.24,0,0,0,.78-1.64v1.73A2.24,2.24,0,0,1,61.93,59c-7.25,6.68-53.87,6.06-61,.07A2.28,2.28,0,0,1,0,57.36V55.63a2.28,2.28,0,0,0,.89,1.74C8.06,63.36,54.68,64,61.93,57.3Z"/><path class="cls-8" d="M61.93,57.42a2.24,2.24,0,0,0,.78-1.64v1.61A2.24,2.24,0,0,1,61.93,59c-7.25,6.68-53.87,6.06-61,.07A2.28,2.28,0,0,1,0,57.36V55.75a2.28,2.28,0,0,0,.89,1.74C8.06,63.48,54.68,64.1,61.93,57.42Z"/><path class="cls-9" d="M61.93,57.54a2.24,2.24,0,0,0,.78-1.64v1.49A2.24,2.24,0,0,1,61.93,59c-7.25,6.68-53.87,6.06-61,.07A2.28,2.28,0,0,1,0,57.36V55.87a2.28,2.28,0,0,0,.89,1.74C8.06,63.6,54.68,64.22,61.93,57.54Z"/><path class="cls-10" d="M61.93,57.66A2.24,2.24,0,0,0,62.71,56v1.37A2.24,2.24,0,0,1,61.93,59c-7.25,6.68-53.87,6.06-61,.07A2.28,2.28,0,0,1,0,57.36V56a2.28,2.28,0,0,0,.89,1.74C8.06,63.71,54.68,64.34,61.93,57.66Z"/><path class="cls-11" d="M61.93,57.77a2.24,2.24,0,0,0,.78-1.64v1.25A2.24,2.24,0,0,1,61.93,59c-7.25,6.68-53.87,6.06-61,.07A2.28,2.28,0,0,1,0,57.36V56.11a2.28,2.28,0,0,0,.89,1.74C8.06,63.83,54.68,64.46,61.93,57.77Z"/><path class="cls-12" d="M61.93,57.89a2.24,2.24,0,0,0,.78-1.64v1.14A2.24,2.24,0,0,1,61.93,59c-7.25,6.68-53.87,6.06-61,.07A2.28,2.28,0,0,1,0,57.36V56.22A2.28,2.28,0,0,0,.89,58C8.06,64,54.68,64.58,61.93,57.89Z"/><path class="cls-13" d="M61.93,58a2.24,2.24,0,0,0,.78-1.64v1A2.24,2.24,0,0,1,61.93,59c-7.25,6.68-53.87,6.06-61,.07A2.28,2.28,0,0,1,0,57.36v-1a2.28,2.28,0,0,0,.89,1.74C8.06,64.07,54.68,64.69,61.93,58Z"/><path class="cls-14" d="M61.93,58.13a2.24,2.24,0,0,0,.78-1.64v.9A2.24,2.24,0,0,1,61.93,59c-7.25,6.68-53.87,6.06-61,.07A2.28,2.28,0,0,1,0,57.36v-.9A2.28,2.28,0,0,0,.89,58.2C8.06,64.19,54.68,64.81,61.93,58.13Z"/><path class="cls-15" d="M61.93,58.25a2.24,2.24,0,0,0,.78-1.64v.78A2.24,2.24,0,0,1,61.93,59c-7.25,6.68-53.87,6.06-61,.07A2.28,2.28,0,0,1,0,57.36v-.78a2.28,2.28,0,0,0,.89,1.74C8.06,64.31,54.68,64.93,61.93,58.25Z"/><path class="cls-16" d="M61.93,58.37a2.24,2.24,0,0,0,.78-1.64v.66A2.24,2.24,0,0,1,61.93,59c-7.25,6.68-53.87,6.06-61,.07A2.28,2.28,0,0,1,0,57.36V56.7a2.28,2.28,0,0,0,.89,1.74C8.06,64.42,54.68,65,61.93,58.37Z"/><path class="cls-17" d="M61.93,58.49a2.24,2.24,0,0,0,.78-1.64v.54A2.24,2.24,0,0,1,61.93,59c-7.25,6.68-53.87,6.06-61,.07A2.28,2.28,0,0,1,0,57.36v-.54a2.28,2.28,0,0,0,.89,1.74C8.06,64.54,54.68,65.17,61.93,58.49Z"/><path class="cls-18" d="M61.93,58.6A2.24,2.24,0,0,0,62.71,57v.43A2.24,2.24,0,0,1,61.93,59c-7.25,6.68-53.87,6.06-61,.07A2.28,2.28,0,0,1,0,57.36v-.43a2.28,2.28,0,0,0,.89,1.74C8.06,64.66,54.68,65.29,61.93,58.6Z"/><path class="cls-19" d="M61.93,58.72a2.24,2.24,0,0,0,.78-1.64v.31A2.24,2.24,0,0,1,61.93,59c-7.25,6.68-53.87,6.06-61,.07A2.28,2.28,0,0,1,0,57.36v-.31a2.28,2.28,0,0,0,.89,1.74C8.06,64.78,54.68,65.4,61.93,58.72Z"/><path class="cls-20" d="M61.93,58.84a2.24,2.24,0,0,0,.78-1.64v.19A2.24,2.24,0,0,1,61.93,59c-7.25,6.68-53.87,6.06-61,.07A2.28,2.28,0,0,1,0,57.36v-.19a2.28,2.28,0,0,0,.89,1.74C8.06,64.9,54.68,65.52,61.93,58.84Z"/></g><path class="cls-21" d="M50.16,4.58V38.65C50.16,44.53,44,49.45,36,50V5C41.19,5,46.06,4.82,50.16,4.58Z"/><path class="cls-22" d="M.71,2.06a2.27,2.27,0,0,1,.6-.26C7.22.13,27.51,0,31.36,0c12.82,0,25.64.6,30,1.8a2,2,0,0,1,1,.64l0,.05c-.31.51-1.54,1-3.6,1.34-5.61,1-16.56,1.45-27.5,1.45S9.47,4.8,3.86,3.83C1.79,3.47.56,3,.25,2.49A1.55,1.55,0,0,1,.71,2.06Z"/><path class="cls-23" d="M58.87,2.31a.15.15,0,0,1,0,.28C54.5,5,8.22,5,3.85,2.58a.15.15,0,0,1,0-.28C6,1.07,18.7.46,31.36.46S56.69,1.07,58.87,2.31Z"/><path class="cls-24" d="M5.6,2C13.17.71,34.05.77,41.83.81,32.2.31,13.35.29,5.6,2Z"/></g></g></svg>