<svg id="Layer_1" data-name="Layer 1" xmlns="http://www.w3.org/2000/svg" viewBox="0 0 122.66 128.93"><title>23</title><path d="M18,79.27,48.81,51.86c3.41-6.82,2.13-15-.46-14.08L12,75.8S18.93,79.41,18,79.27Z" fill="#212225" fill-rule="evenodd"/><path d="M50.75,45.29c.52-4.51-.63-8.1-2.4-7.5l-33,34.55c1.94,1,4.37,2.39,3.8,2.3L49.92,47.22A18.9,18.9,0,0,0,50.75,45.29Z" fill="#0a0b0c" fill-rule="evenodd"/><path d="M20.88,72.88l29.3-29c3-7,1.33-15-1.21-14L14.69,69.74S21.82,73,20.88,72.88Z" fill="#212225" fill-rule="evenodd"/><path d="M51.8,36.48c.1-4.17-1.19-7.29-2.83-6.64L16.59,67.53c2,.95,5.23,2.47,4.59,2.4l29.3-29A19.61,19.61,0,0,0,51.8,36.48Z" fill="#0a0b0c" fill-rule="evenodd"/><path d="M26.84,69.66l24-33.5c1.83-7.4-1.2-15.06-3.54-13.64L20.21,67.59S27.78,69.6,26.84,69.66Z" fill="#212225" fill-rule="evenodd"/><path d="M29.21,66.36l5.2-7.24L51.33,31.47q.06-.35.11-.7c-.17-5.24-2.33-9.33-4.09-8.26l-17.4,28.9L23,65.07S27.48,65.9,29.21,66.36Z" fill="#0a0b0c" fill-rule="evenodd"/><path d="M35.37,63.86l15.29-38.3c0-7.62-4.79-14.32-6.71-12.39L28.44,63.44S36.27,63.57,35.37,63.86Z" fill="#212225" fill-rule="evenodd"/><path d="M36.82,60.24l2.56-6.41L50.06,21.18c0-.17,0-.35,0-.52-1.37-5.29-4.58-9-6.07-7.48L33.5,47.05l-3.2,13.34S35.23,60.16,36.82,60.24Z" fill="#0a0b0c" fill-rule="evenodd"/><path d="M40.48,54.43l7.31-40.58c-.59-8-7.53-7.28-9-5L33.61,55.42S41.3,54,40.48,54.43Z" fill="#212225" fill-rule="evenodd"/><path d="M46.52,9.63c-2.22-3.37-6.61-2.53-7.76-.77L34.64,46.1l-.37,5.77s7.62-1.79,6.82-1.3L46.53,9.7Z" fill="#0a0b0c" fill-rule="evenodd"/><path d="M40.9,46.58,44.47,5.5C42.14,1.44,35.27,2.58,34,5l.16,43.2S41.68,46,40.9,46.58Z" fill="#212225" fill-rule="evenodd"/><path d="M42.63,3.67C39.64,1.94,35,3.05,34,5l.15,40.33c1.55-.49,6.93-2.16,6.29-1.69Z" fill="#0a0b0c" fill-rule="evenodd"/><path d="M39.33,43.56,40,2.33c-2.61-3.88-9.39-2.27-10.5.22L32.7,45.63S40.06,43,39.33,43.56Z" fill="#212225" fill-rule="evenodd"/><path d="M37.23.31c-3-.94-6.89.42-7.71,2.25l2.72,36.82.6,4.23s7.16-3.15,6.47-2.52Z" fill="#0a0b0c" fill-rule="evenodd"/><path d="M40.07,44.28,33.73,3.43C30.16.34,23.87,4.62,23.23,7.27L33.92,47.5S40.69,43.58,40.07,44.28Z" fill="#212225" fill-rule="evenodd"/><path d="M39.66,41.65l-.21-1.36-11-37.53c-2.55.87-4.83,3-5.2,4.51l8.85,33.29,2.1,5.1S38.61,42.23,39.66,41.65Z" fill="#0a0b0c" fill-rule="evenodd"/><path d="M43.17,47.31l-17-39.62c-4.29-2-8.73,3.65-8.61,6.38L39.07,49.73S43.57,46.46,43.17,47.31Z" fill="#212225" fill-rule="evenodd"/><path d="M21.1,8.42c-2.1,1.48-3.59,4.06-3.52,5.65L38,47.91c1.08-.93,3.63-3.08,3.38-2.39Z" fill="#0a0b0c" fill-rule="evenodd"/><path d="M42.71,48.83,17.62,14.1C13,13,10.11,21,10.75,23.69l28,30.82S42.94,47.92,42.71,48.83Z" fill="#212225" fill-rule="evenodd"/><path d="M12.21,17.51c-1.22,2.2-1.78,4.86-1.46,6.18L37.41,53.05c1-2,2.66-5.14,2.57-4.5Z" fill="#0a0b0c" fill-rule="evenodd"/><path d="M42.55,51.16,10.81,23.64c-4.71.18-6.82,8.65-5.48,11L40.25,55.55S42.52,50.22,42.55,51.16Z" fill="#212225" fill-rule="evenodd"/><path d="M6.2,27.4C4.91,30,4.57,33.33,5.33,34.67l32.94,19.7c.48-1.52,1.44-4.46,1.54-3.76Z" fill="#0a0b0c" fill-rule="evenodd"/><path d="M43.23,53.12l-37-18C1.69,36.53,1.14,44.67,3,46.63L42.12,58S43,52.22,43.23,53.12Z" fill="#212225" fill-rule="evenodd"/><path d="M2.63,39.11c-1,2.85-.74,6.33.41,7.52L39.55,57.21c.14-1.65.38-4.1.61-3.51Z" fill="#0a0b0c" fill-rule="evenodd"/><path d="M48.91,58.95,3.33,46.51C-1.47,49-.37,58.32,2.19,60.13l46.49,4.5S48.42,58,48.91,58.95Z" fill="#212225" fill-rule="evenodd"/><path d="M.14,51.7C-.39,55.13.63,59,2.19,60.13l43.24,4.18c-.12-1.73-.19-3.59.11-3.07Z" fill="#0a0b0c" fill-rule="evenodd"/><path d="M49.49,63.81l-47.08-4c-4.27,3.33-1.5,12.28,1.34,13.6l46.54-4S48.84,63,49.49,63.81Z" fill="#212225" fill-rule="evenodd"/><path d="M.22,65.64c.14,3.43,1.83,7,3.54,7.78l41.11-3.52c-.48-1.77-1-3.91-.57-3.42Z" fill="#0a0b0c" fill-rule="evenodd"/><path d="M50.34,69.21,3.22,72.7c-3.69,4,.46,12.36,3.48,13.22L52,74.64S49.55,68.47,50.34,69.21Z" fill="#212225" fill-rule="evenodd"/><path d="M2.23,79.83c.88,3,2.83,5.63,4.46,6.09L49.22,75.34c-.75-1.6-1.53-3.39-1-3Z" fill="#0a0b0c" fill-rule="evenodd"/><path d="M47.35,53.11c0-.5,1.1-2.88.24-4.77.4-1,.86-4-.32-4.76.42-1.71-.34-3.23-.73-3.39,0-4-1.57-5.25-2.11-5.12-.05-1.9-.79-3.75-2.08-3.58a1.88,1.88,0,0,0-2.25-2.3c-2-1.94-5.42-1.2-5.6.77-2.07-.52-2.94,1.81-2.9,2.69-2.06.72-2.67,2.36-2.35,3.57-2.76,0-3.79,3.45-2.86,5.1-3.64.56-3.14,4.95-2.1,6.1-2.56,2.59-1.86,5.12-.77,5.86C21.19,56.7,22,58.88,24,60c-1.55,3-1,5.08,1.23,6.4-1.2,3.93.28,6,3,6.09C32.39,72.3,47.35,53,47.35,53.11Z" fill="#fff" fill-rule="evenodd"/><path d="M33.43,68.44,47,53.24c1.29-3.54.2-7.46-1-6.89L30.28,67.08S33.89,68.46,33.43,68.44Z" fill="#44474f" fill-rule="evenodd"/><path d="M47.57,49.9c0-2.24-.77-3.94-1.6-3.55L31.71,65.19c1,.4,2.28.92,2,.91L47.27,50.89A9.37,9.37,0,0,0,47.57,49.9Z" fill="#2b2f38" fill-rule="evenodd"/><path d="M34.48,65.15,47.22,49.24c1.1-3.6-.2-7.46-1.39-6.82L31.26,64S34.94,65.14,34.48,65.15Z" fill="#44474f" fill-rule="evenodd"/><path d="M47.59,45.51c-.19-2.05-1-3.51-1.77-3.1L32.07,62.76a10.68,10.68,0,0,1,2.39.92L47.19,47.77A9.69,9.69,0,0,0,47.59,45.51Z" fill="#2b2f38" fill-rule="evenodd"/><path d="M37.22,63.22l9.9-17.81c.48-3.74-1.45-7.32-2.51-6.49L33.85,62.59S37.67,63.14,37.22,63.22Z" fill="#44474f" fill-rule="evenodd"/><path d="M38.19,61.47l2.14-3.85,6.74-14.53q0-.17,0-.35c-.38-2.56-1.67-4.45-2.48-3.82L37.71,54.1l-2.62,7.09S37.32,61.34,38.19,61.47Z" fill="#2b2f38" fill-rule="evenodd"/><path d="M41.08,59.89l5.33-19.67c-.43-3.74-3.16-6.76-4-5.7L37.65,60.08S41.5,59.7,41.08,59.89Z" fill="#44474f" fill-rule="evenodd"/><path d="M41.58,58l.89-3.29L45.87,38.1l0-.25c-1-2.52-2.76-4.15-3.41-3.33L39.2,51.75l-.82,6.73S40.8,58.09,41.58,58Z" fill="#2b2f38" fill-rule="evenodd"/><path d="M43.05,55l1.28-20.34c-.74-3.9-4.11-3.14-4.72-1.94l.12,23.15S43.43,54.7,43.05,55Z" fill="#44474f" fill-rule="evenodd"/><path d="M43.47,32.63a2.44,2.44,0,0,0-3.85.06l.09,18.52.15,2.86s3.64-1.31,3.27-1l.35-20.38Z" fill="#2b2f38" fill-rule="evenodd"/><path d="M42.81,51.09l-.58-20.37c-1.38-1.86-4.69-.91-5.18.35l2.53,21.2S43.16,50.79,42.81,51.09Z" fill="#44474f" fill-rule="evenodd"/><path d="M41.22,29.93c-1.57-.68-3.77.13-4.17,1.14l2.36,19.8a18,18,0,0,1,3-1.19Z" fill="#2b2f38" fill-rule="evenodd"/><path d="M41.87,49.7l-2-20.28c-1.5-1.76-4.74-.58-5.14.71l4,21S42.19,49.37,41.87,49.7Z" fill="#44474f" fill-rule="evenodd"/><path d="M38.38,28.58c-1.54-.29-3.36.6-3.66,1.54L38.15,48l.54,2s3.34-2,3-1.6Z" fill="#2b2f38" fill-rule="evenodd"/><path d="M42.27,50l-5.43-19.7C34.91,29,32.07,31.46,31.9,32.8l7.54,19.15S42.54,49.63,42.27,50Z" fill="#44474f" fill-rule="evenodd"/><path d="M41.92,48.75l-.18-.66L34.2,30.29a4.17,4.17,0,0,0-2.3,2.51l6.24,15.84L39.46,51S41.44,49.09,41.92,48.75Z" fill="#2b2f38" fill-rule="evenodd"/><path d="M44,51.32,33.38,32.84c-2.22-.72-4.08,2.29-3.87,3.62L42.09,52.75S44.11,50.88,44,51.32Z" fill="#44474f" fill-rule="evenodd"/><path d="M30.92,33.49a4,4,0,0,0-1.41,3L41.45,51.92c.48-.52,1.61-1.72,1.52-1.36Z" fill="#2b2f38" fill-rule="evenodd"/><path d="M43.83,52.09,29.54,36.47c-2.31-.28-3.3,3.83-2.83,5.1L42.2,55.11S43.89,51.64,43.83,52.09Z" fill="#44474f" fill-rule="evenodd"/><path d="M27.07,38.45a5.16,5.16,0,0,0-.37,3.12l14.76,12.9a10.68,10.68,0,0,1,1-2.35Z" fill="#2b2f38" fill-rule="evenodd"/><path d="M43.88,53.25,26.73,41.54c-2.3.36-2.86,4.64-2.06,5.73L43,55.54S43.81,52.79,43.88,53.25Z" fill="#44474f" fill-rule="evenodd"/><path d="M24.69,43.65a4.78,4.78,0,0,0,0,3.62L42,55.07c.15-.77.45-2.27.54-1.93Z" fill="#2b2f38" fill-rule="evenodd"/><path d="M44.33,54.18l-19.2-6.72c-2.14.93-1.94,5-.9,5.81l19.83,3.34S44.14,53.75,44.33,54.18Z" fill="#44474f" fill-rule="evenodd"/><path d="M23.6,49.6c-.33,1.46,0,3.15.63,3.67l18.53,3.12c0-.82,0-2,.1-1.76Z" fill="#2b2f38" fill-rule="evenodd"/><path d="M47.45,56.71,24.36,53.2c-2.22,1.5-1.14,6,.22,6.75l23.08-.43S47.15,56.27,47.45,56.71Z" fill="#44474f" fill-rule="evenodd"/><path d="M23.09,55.92c-.07,1.72.66,3.57,1.49,4L46,59.54c-.16-.84-.3-1.75-.12-1.51Z" fill="#2b2f38" fill-rule="evenodd"/><path d="M48,59.07l-23.34.72c-1.91,1.88,0,6.11,1.43,6.6l22.62-4.6S47.64,58.69,48,59.07Z" fill="#44474f" fill-rule="evenodd"/><path d="M23.92,62.77c.26,1.68,1.29,3.33,2.18,3.62l20-4.06c-.33-.84-.71-1.86-.47-1.65Z" fill="#2b2f38" fill-rule="evenodd"/><path d="M48.73,61.67,25.79,66.06c-1.59,2.16.93,6,2.46,6.29l21.61-8.11S48.3,61.35,48.73,61.67Z" fill="#44474f" fill-rule="evenodd"/><path d="M25.71,69.62c.6,1.41,1.71,2.6,2.54,2.74l20.28-7.61c-.46-.74-.95-1.58-.69-1.41Z" fill="#2b2f38" fill-rule="evenodd"/><path d="M58.62,123.17c.32.45,1.47-.93,1.44-1.57s-8.5-4.53-6.67,4.18C54.21,120.11,57.88,122.14,58.62,123.17Z" fill="#737277" fill-rule="evenodd"/><path d="M73.85,123.6c-.28.34-1-1.27-1-1.78s7-3.06,5,3.73C77.61,121,74.5,122.83,73.85,123.6Z" fill="#737277" fill-rule="evenodd"/><path d="M77.47,119.18c-.32.24-.66-1.36-.5-1.81s7-1.26,3.74,4.43C81.4,117.64,78.21,118.62,77.47,119.18Z" fill="#737277" fill-rule="evenodd"/><path d="M63.81,117.7s.9,2.16.53,2.73-.76.46-1.65.58-2.37,0-2.91,0-.35.23-.51.52,0,.3-.42.67c-.63.52-1.14.22-1.41,1s.54.84,1.13.91.79-.11,1.63,0,.89-.28,1.82-.24a9.19,9.19,0,0,0,2.19-.05c1.34-.15,1.55-.6,2.63-.51s.49.5,1.62.64,2.06.49,3.14.68a3.76,3.76,0,0,0,2.55-.15c.61-.37.87-.67.92-.91s-.22-1-.68-.63-.8-.11-.89-.41-.35-.72-.29-1,.05-.1-.69,0a8.3,8.3,0,0,1-2.65,0,4.42,4.42,0,0,0,2.89-.64c1.84-1.2,2-1,5.09-1.55.34-.06.83-1,.79-1.25a1.67,1.67,0,0,0-.56-.91c-.29-.21-.1-.14-.1-.14-2-.26-2.25-.28-3.33.16a9.5,9.5,0,0,0-3.49,1.44,2.24,2.24,0,0,1-1.16.35c-.55.08-.95.31-1.33,0a5.61,5.61,0,0,1-1.55-2A56.17,56.17,0,0,1,64.3,108c-.26-1.3.88-4.74.84-4.86s-1.61-1.18-1.88-1-2.37-2.53-2.47-2.32-.9,6.87-.6,8.39A36.17,36.17,0,0,0,63.81,117.7Z" fill="#3a302c" fill-rule="evenodd"/><path d="M66.23,116.66a.49.49,0,0,1-.56-.26.45.45,0,0,0,.47.15.53.53,0,0,0,.25-.7.72.72,0,0,0-.07-.14.7.7,0,0,1,.15.26A.53.53,0,0,1,66.23,116.66Z" fill="#463d31" fill-rule="evenodd"/><path d="M65.82,117.48a.49.49,0,0,1-.56-.26.45.45,0,0,0,.47.15.53.53,0,0,0,.25-.7.73.73,0,0,0-.07-.14.7.7,0,0,1,.15.26A.53.53,0,0,1,65.82,117.48Z" fill="#463d31" fill-rule="evenodd"/><path d="M65.37,118.3a.49.49,0,0,1-.56-.26.45.45,0,0,0,.47.15.53.53,0,0,0,.25-.7.73.73,0,0,0-.07-.14.7.7,0,0,1,.15.26A.53.53,0,0,1,65.37,118.3Z" fill="#463d31" fill-rule="evenodd"/><path d="M64.55,118.32a.49.49,0,0,1-.56-.26.45.45,0,0,0,.47.15.53.53,0,0,0,.25-.7.73.73,0,0,0-.07-.14.7.7,0,0,1,.15.26A.53.53,0,0,1,64.55,118.32Z" fill="#463d31" fill-rule="evenodd"/><path d="M65.21,119.12a.49.49,0,0,1-.56-.26.45.45,0,0,0,.47.15.53.53,0,0,0,.25-.7.73.73,0,0,0-.07-.14.7.7,0,0,1,.15.26A.53.53,0,0,1,65.21,119.12Z" fill="#463d31" fill-rule="evenodd"/><path d="M66,118.28a.49.49,0,0,1-.56-.26.45.45,0,0,0,.47.15.53.53,0,0,0,.25-.7.74.74,0,0,0-.07-.14.7.7,0,0,1,.15.26A.53.53,0,0,1,66,118.28Z" fill="#463d31" fill-rule="evenodd"/><path d="M66.47,117.36a.49.49,0,0,1-.56-.26.45.45,0,0,0,.47.15.53.53,0,0,0,.25-.7.74.74,0,0,0-.07-.14.7.7,0,0,1,.15.26A.53.53,0,0,1,66.47,117.36Z" fill="#463d31" fill-rule="evenodd"/><path d="M66.81,118.08a.49.49,0,0,1-.56-.26.45.45,0,0,0,.47.15.53.53,0,0,0,.25-.7.72.72,0,0,0-.07-.14.7.7,0,0,1,.15.26A.53.53,0,0,1,66.81,118.08Z" fill="#463d31" fill-rule="evenodd"/><path d="M65.9,119.12a.49.49,0,0,1-.56-.26.45.45,0,0,0,.47.15.53.53,0,0,0,.25-.7.73.73,0,0,0-.07-.14.7.7,0,0,1,.15.26A.53.53,0,0,1,65.9,119.12Z" fill="#463d31" fill-rule="evenodd"/><path d="M66.7,118.93a.49.49,0,0,1-.56-.26.45.45,0,0,0,.47.15.53.53,0,0,0,.25-.7.73.73,0,0,0-.07-.14.7.7,0,0,1,.15.26A.53.53,0,0,1,66.7,118.93Z" fill="#463d31" fill-rule="evenodd"/><path d="M67.41,119a.49.49,0,0,1-.56-.26.45.45,0,0,0,.47.15.53.53,0,0,0,.25-.7.73.73,0,0,0-.07-.14.7.7,0,0,1,.15.26A.53.53,0,0,1,67.41,119Z" fill="#463d31" fill-rule="evenodd"/><path d="M66.69,119.7a.49.49,0,0,1-.56-.26.45.45,0,0,0,.47.15.53.53,0,0,0,.25-.7.73.73,0,0,0-.07-.14.7.7,0,0,1,.15.26A.53.53,0,0,1,66.69,119.7Z" fill="#463d31" fill-rule="evenodd"/><path d="M65.87,120a.49.49,0,0,1-.56-.26.45.45,0,0,0,.47.15.53.53,0,0,0,.25-.7.73.73,0,0,0-.07-.14.7.7,0,0,1,.15.26A.53.53,0,0,1,65.87,120Z" fill="#463d31" fill-rule="evenodd"/><path d="M65.05,119.93a.49.49,0,0,1-.56-.26.45.45,0,0,0,.47.15.53.53,0,0,0,.25-.7.73.73,0,0,0-.07-.14.7.7,0,0,1,.15.26A.53.53,0,0,1,65.05,119.93Z" fill="#463d31" fill-rule="evenodd"/><path d="M66.57,120.58a.49.49,0,0,1-.56-.26.45.45,0,0,0,.47.15.53.53,0,0,0,.25-.7.73.73,0,0,0-.07-.14.7.7,0,0,1,.15.26A.53.53,0,0,1,66.57,120.58Z" fill="#463d31" fill-rule="evenodd"/><path d="M67.24,119.86a.49.49,0,0,1-.56-.26.45.45,0,0,0,.47.15.53.53,0,0,0,.25-.7.73.73,0,0,0-.07-.14.7.7,0,0,1,.15.26A.53.53,0,0,1,67.24,119.86Z" fill="#463d31" fill-rule="evenodd"/><path d="M67.19,120.63a.49.49,0,0,1-.56-.26.45.45,0,0,0,.47.15.53.53,0,0,0,.25-.7.73.73,0,0,0-.07-.14.7.7,0,0,1,.15.26A.53.53,0,0,1,67.19,120.63Z" fill="#463d31" fill-rule="evenodd"/><path d="M65.7,120.82a.49.49,0,0,1-.56-.26.45.45,0,0,0,.47.15.53.53,0,0,0,.25-.7.71.71,0,0,0-.07-.14.7.7,0,0,1,.15.26A.53.53,0,0,1,65.7,120.82Z" fill="#463d31" fill-rule="evenodd"/><path d="M64.87,120.81a.49.49,0,0,1-.56-.26.45.45,0,0,0,.47.15A.53.53,0,0,0,65,120a.72.72,0,0,0-.07-.14.7.7,0,0,1,.15.26A.53.53,0,0,1,64.87,120.81Z" fill="#463d31" fill-rule="evenodd"/><path d="M65.38,121.66a.49.49,0,0,1-.45-.42.45.45,0,0,0,.4.29.53.53,0,0,0,.45-.59.73.73,0,0,0,0-.16.7.7,0,0,1,.07.29A.53.53,0,0,1,65.38,121.66Z" fill="#463d31" fill-rule="evenodd"/><path d="M66.29,121.24a.49.49,0,0,1-.45-.42.45.45,0,0,0,.4.29.53.53,0,0,0,.45-.59.74.74,0,0,0,0-.16.7.7,0,0,1,.07.29A.53.53,0,0,1,66.29,121.24Z" fill="#463d31" fill-rule="evenodd"/><path d="M66,122a.49.49,0,0,1-.45-.42.45.45,0,0,0,.4.29.53.53,0,0,0,.45-.59.73.73,0,0,0,0-.16.7.7,0,0,1,.07.29A.53.53,0,0,1,66,122Z" fill="#463d31" fill-rule="evenodd"/><path d="M66.92,121.39a.49.49,0,0,1-.45-.42.45.45,0,0,0,.4.29.53.53,0,0,0,.45-.59.73.73,0,0,0,0-.16.7.7,0,0,1,.07.29A.53.53,0,0,1,66.92,121.39Z" fill="#463d31" fill-rule="evenodd"/><path d="M67.82,120a.49.49,0,0,1-.45-.42.45.45,0,0,0,.4.29.53.53,0,0,0,.45-.59.72.72,0,0,0,0-.16.7.7,0,0,1,.07.29A.53.53,0,0,1,67.82,120Z" fill="#463d31" fill-rule="evenodd"/><path d="M68,120.82a.49.49,0,0,1-.57-.22.45.45,0,0,0,.48.11.53.53,0,0,0,.19-.72.72.72,0,0,0-.08-.14.7.7,0,0,1,.17.24A.53.53,0,0,1,68,120.82Z" fill="#463d31" fill-rule="evenodd"/><path d="M68.79,120.45a.49.49,0,0,1-.61-.09.45.45,0,0,0,.49,0,.53.53,0,0,0,0-.74l-.11-.12a.7.7,0,0,1,.22.2A.53.53,0,0,1,68.79,120.45Z" fill="#463d31" fill-rule="evenodd"/><path d="M72.61,121.63a1.49,1.49,0,0,0-.4,2.15.59.59,0,0,0,1.1-.13.62.62,0,0,1-.52.29c-.66,0-.85-.89-.71-1.54C72.15,122,72.45,121.86,72.61,121.63Z" fill="#463d31" fill-rule="evenodd"/><path d="M71.55,121.81a1.33,1.33,0,0,0-.4,2c.69.8,1.21-.17,1.1-.12a.63.63,0,0,1-.52.27c-.66,0-.85-.83-.72-1.43C71.1,122.2,71.4,122,71.55,121.81Z" fill="#463d31" fill-rule="evenodd"/><path d="M70.4,121.76a1.21,1.21,0,0,0-.36,1.83c.63.73,1.11-.16,1-.11a.58.58,0,0,1-.48.25c-.6,0-.78-.76-.66-1.31C70,122.12,70.26,122,70.4,121.76Z" fill="#463d31" fill-rule="evenodd"/><path d="M69.32,121.84a1,1,0,0,0-.31,1.55c.53.62.94-.13.86-.09a.49.49,0,0,1-.4.21c-.51,0-.66-.65-.56-1.11C69,122.14,69.2,122,69.32,121.84Z" fill="#463d31" fill-rule="evenodd"/><path d="M68.35,121.71a1,1,0,0,0-.29,1.44c.49.57.87-.12.79-.08a.45.45,0,0,1-.37.2c-.47,0-.61-.6-.51-1C68,122,68.23,121.86,68.35,121.71Z" fill="#463d31" fill-rule="evenodd"/><path d="M59.73,121.17a1.2,1.2,0,0,1,.22,1.83c-.68.67-1.08-.24-1-.18a.57.57,0,0,0,.45.28c.59.06.83-.69.75-1.24C60.11,121.55,59.86,121.37,59.73,121.17Z" fill="#463d31" fill-rule="evenodd"/><path d="M60.72,121.21a1.2,1.2,0,0,1,.22,1.83c-.68.67-1.08-.24-1-.18a.57.57,0,0,0,.45.28c.59.06.83-.69.75-1.24C61.11,121.59,60.85,121.41,60.72,121.21Z" fill="#463d31" fill-rule="evenodd"/><path d="M61.69,121.33a1.07,1.07,0,0,1,.19,1.63c-.6.6-1-.22-.88-.16a.51.51,0,0,0,.4.25c.53.05.74-.62.67-1.11C62,121.67,61.8,121.51,61.69,121.33Z" fill="#463d31" fill-rule="evenodd"/><path d="M62.69,121.26a1.07,1.07,0,0,1,.19,1.63c-.6.6-1-.22-.88-.16a.51.51,0,0,0,.4.25c.53.05.74-.62.67-1.11C63,121.6,62.8,121.44,62.69,121.26Z" fill="#463d31" fill-rule="evenodd"/><path d="M63.48,121.12c.77.56.74,1.3.45,1.64-.5.6-1-.22-.9-.16a.61.61,0,0,0,.44.25c.53.05.64-.62.49-1.11C63.87,121.46,63.62,121.3,63.48,121.12Z" fill="#463d31" fill-rule="evenodd"/><path d="M64.27,121c.83.56.87,1.3.61,1.65-.44.6-1-.22-.91-.16a.68.68,0,0,0,.46.25c.54.05.57-.62.38-1.12C64.69,121.32,64.42,121.16,64.27,121Z" fill="#463d31" fill-rule="evenodd"/><path d="M77.62,117a1.07,1.07,0,0,0-.32,1.61c.55.64,1-.14.89-.09a.51.51,0,0,1-.42.22c-.53,0-.69-.67-.58-1.16C77.25,117.32,77.49,117.18,77.62,117Z" fill="#463d31" fill-rule="evenodd"/><path d="M76.68,116.89a1.07,1.07,0,0,0-.32,1.61c.55.64,1-.14.89-.09a.51.51,0,0,1-.42.22c-.53,0-.69-.67-.58-1.16C76.32,117.2,76.56,117.06,76.68,116.89Z" fill="#463d31" fill-rule="evenodd"/><path d="M75.72,116.91a1.07,1.07,0,0,0-.32,1.61c.55.64,1-.14.89-.09a.51.51,0,0,1-.42.22c-.53,0-.69-.67-.58-1.16C75.35,117.22,75.59,117.08,75.72,116.91Z" fill="#463d31" fill-rule="evenodd"/><path d="M75,117.08a1.07,1.07,0,0,0-.32,1.61c.55.64,1-.14.89-.09a.51.51,0,0,1-.42.22c-.53,0-.69-.67-.58-1.16C74.61,117.39,74.85,117.25,75,117.08Z" fill="#463d31" fill-rule="evenodd"/><path d="M74.05,117.47a.92.92,0,0,0-.09,1.42c.56.56.84-.12.77-.08a.38.38,0,0,1-.34.19c-.46,0-.68-.59-.64-1C73.77,117.74,74,117.62,74.05,117.47Z" fill="#463d31" fill-rule="evenodd"/><path d="M73,117.68a1,1,0,0,0,.17,1.43c.66.57.81-.12.74-.08a.31.31,0,0,1-.3.19c-.46,0-.78-.6-.82-1C72.82,118,73,117.84,73,117.68Z" fill="#463d31" fill-rule="evenodd"/><path d="M72.13,118a.87.87,0,0,0,.17,1.38c.66.41.82-.31.75-.26a.41.41,0,0,1-.31.26c-.46.12-.79-.41-.83-.82C71.89,118.38,72.06,118.21,72.13,118Z" fill="#463d31" fill-rule="evenodd"/><path d="M71.34,118.58a.87.87,0,0,0,.17,1.38c.66.41.82-.31.75-.26A.41.41,0,0,1,72,120c-.46.12-.79-.41-.83-.82C71.1,118.91,71.28,118.75,71.34,118.58Z" fill="#463d31" fill-rule="evenodd"/><path d="M70.55,119a.87.87,0,0,0,.17,1.38c.66.41.82-.31.75-.26a.41.41,0,0,1-.31.26c-.46.12-.79-.41-.83-.82C70.32,119.34,70.49,119.17,70.55,119Z" fill="#463d31" fill-rule="evenodd"/><path d="M69.41,119.16a.87.87,0,0,0,.17,1.38c.66.41.82-.31.75-.26a.41.41,0,0,1-.31.26c-.46.12-.79-.41-.83-.82C69.18,119.49,69.35,119.33,69.41,119.16Z" fill="#463d31" fill-rule="evenodd"/><path d="M66.48,126.34c.32.45,1.46-.92,1.43-1.56s-8.45-4.5-6.63,4.15C62.1,123.3,65.75,125.32,66.48,126.34Z" fill="#44444a" fill-rule="evenodd"/><path d="M81.62,126.77c-.28.33-1-1.26-1-1.77s7-3,5,3.71C85.35,124.19,82.27,126,81.62,126.77Z" fill="#44444a" fill-rule="evenodd"/><path d="M85.21,122.38c-.32.24-.66-1.36-.5-1.8s6.94-1.25,3.71,4.4C89.12,120.85,86,121.82,85.21,122.38Z" fill="#44444a" fill-rule="evenodd"/><path d="M71.64,120.91s.9,2.14.53,2.72-.75.46-1.64.57-2.35,0-2.89,0-.35.23-.51.52,0,.3-.42.67c-.63.52-1.13.21-1.4,1s.54.84,1.12.91.79-.11,1.62,0,.88-.28,1.81-.24A9.14,9.14,0,0,0,72,127c1.33-.14,1.54-.6,2.62-.5s.49.5,1.61.64,2,.49,3.12.68a3.73,3.73,0,0,0,2.53-.15c.6-.37.87-.66.92-.91s-.22-.95-.67-.62-.8-.11-.88-.41-.35-.72-.29-1,.05-.1-.69,0a8.26,8.26,0,0,1-2.64,0,4.4,4.4,0,0,0,2.87-.64c1.83-1.2,2-1,5.06-1.55.34-.06.82-1,.78-1.24a1.66,1.66,0,0,0-.55-.9c-.29-.21-.1-.14-.1-.14-2-.26-2.24-.28-3.31.16A9.44,9.44,0,0,0,79,121.93a2.23,2.23,0,0,1-1.15.35c-.54.08-.94.31-1.33,0a5.57,5.57,0,0,1-1.54-2,55.87,55.87,0,0,1-2.82-9.11c-.26-1.3.87-4.71.83-4.83s-1.6-1.17-1.87-1-2.18-2.24-2.27-2-1.36,6.05-1.06,7.56A39,39,0,0,0,71.64,120.91Z" fill="#2d2a27" fill-rule="evenodd"/><path d="M74,119.88a.49.49,0,0,1-.55-.26.45.45,0,0,0,.47.15.53.53,0,0,0,.25-.7.72.72,0,0,0-.07-.14.7.7,0,0,1,.15.25A.53.53,0,0,1,74,119.88Z" fill="#463d31" fill-rule="evenodd"/><path d="M73.64,120.69a.49.49,0,0,1-.55-.26.45.45,0,0,0,.47.15.53.53,0,0,0,.25-.7.72.72,0,0,0-.07-.14.7.7,0,0,1,.15.25A.53.53,0,0,1,73.64,120.69Z" fill="#463d31" fill-rule="evenodd"/><path d="M73.19,121.5a.49.49,0,0,1-.55-.26.45.45,0,0,0,.47.15.53.53,0,0,0,.24-.7.72.72,0,0,0-.07-.14.7.7,0,0,1,.15.25A.53.53,0,0,1,73.19,121.5Z" fill="#463d31" fill-rule="evenodd"/><path d="M72.37,121.52a.49.49,0,0,1-.55-.26.45.45,0,0,0,.47.15.53.53,0,0,0,.24-.7.73.73,0,0,0-.07-.14.7.7,0,0,1,.15.25A.53.53,0,0,1,72.37,121.52Z" fill="#463d31" fill-rule="evenodd"/><path d="M73,122.32a.49.49,0,0,1-.55-.26.45.45,0,0,0,.47.15.53.53,0,0,0,.25-.7.71.71,0,0,0-.07-.14.7.7,0,0,1,.15.25A.53.53,0,0,1,73,122.32Z" fill="#463d31" fill-rule="evenodd"/><path d="M73.86,121.48a.49.49,0,0,1-.55-.26.45.45,0,0,0,.47.15.53.53,0,0,0,.24-.7.73.73,0,0,0-.07-.14.7.7,0,0,1,.15.25A.53.53,0,0,1,73.86,121.48Z" fill="#463d31" fill-rule="evenodd"/><path d="M74.29,120.57a.49.49,0,0,1-.55-.26.45.45,0,0,0,.47.15.53.53,0,0,0,.24-.7.73.73,0,0,0-.07-.14.7.7,0,0,1,.15.25A.53.53,0,0,1,74.29,120.57Z" fill="#463d31" fill-rule="evenodd"/><path d="M74.62,121.28a.49.49,0,0,1-.55-.26.45.45,0,0,0,.47.15.53.53,0,0,0,.24-.7.72.72,0,0,0-.07-.14.7.7,0,0,1,.15.25A.53.53,0,0,1,74.62,121.28Z" fill="#463d31" fill-rule="evenodd"/><path d="M73.72,122.31a.49.49,0,0,1-.55-.26.45.45,0,0,0,.47.15.53.53,0,0,0,.24-.7.72.72,0,0,0-.07-.14.7.7,0,0,1,.15.25A.53.53,0,0,1,73.72,122.31Z" fill="#463d31" fill-rule="evenodd"/><path d="M74.51,122.13a.49.49,0,0,1-.55-.26.45.45,0,0,0,.47.15.53.53,0,0,0,.24-.7.73.73,0,0,0-.07-.14.7.7,0,0,1,.15.25A.53.53,0,0,1,74.51,122.13Z" fill="#463d31" fill-rule="evenodd"/><path d="M75.22,122.2a.49.49,0,0,1-.55-.26.45.45,0,0,0,.47.15.53.53,0,0,0,.24-.7.74.74,0,0,0-.07-.14.7.7,0,0,1,.15.25A.53.53,0,0,1,75.22,122.2Z" fill="#463d31" fill-rule="evenodd"/><path d="M74.5,122.89a.49.49,0,0,1-.55-.26.45.45,0,0,0,.47.15.53.53,0,0,0,.24-.7.72.72,0,0,0-.07-.14.7.7,0,0,1,.15.25A.53.53,0,0,1,74.5,122.89Z" fill="#463d31" fill-rule="evenodd"/><path d="M73.69,123.24a.49.49,0,0,1-.55-.26.45.45,0,0,0,.47.15.53.53,0,0,0,.24-.7.73.73,0,0,0-.07-.14.7.7,0,0,1,.15.25A.53.53,0,0,1,73.69,123.24Z" fill="#463d31" fill-rule="evenodd"/><path d="M72.87,123.12a.49.49,0,0,1-.55-.26.45.45,0,0,0,.47.15.53.53,0,0,0,.24-.7.72.72,0,0,0-.07-.14.7.7,0,0,1,.15.25A.53.53,0,0,1,72.87,123.12Z" fill="#463d31" fill-rule="evenodd"/><path d="M74.39,123.77a.49.49,0,0,1-.55-.26.45.45,0,0,0,.47.15.53.53,0,0,0,.24-.7.73.73,0,0,0-.07-.14.7.7,0,0,1,.15.25A.53.53,0,0,1,74.39,123.77Z" fill="#463d31" fill-rule="evenodd"/><path d="M75,123a.49.49,0,0,1-.55-.26.45.45,0,0,0,.47.15.53.53,0,0,0,.24-.7.72.72,0,0,0-.07-.14.7.7,0,0,1,.15.25A.53.53,0,0,1,75,123Z" fill="#463d31" fill-rule="evenodd"/><path d="M75,123.82a.49.49,0,0,1-.55-.26.45.45,0,0,0,.47.15.53.53,0,0,0,.24-.7.72.72,0,0,0-.07-.14.7.7,0,0,1,.15.25A.53.53,0,0,1,75,123.82Z" fill="#463d31" fill-rule="evenodd"/><path d="M73.52,124a.49.49,0,0,1-.55-.26.45.45,0,0,0,.47.15.53.53,0,0,0,.24-.7.73.73,0,0,0-.07-.14.7.7,0,0,1,.15.25A.53.53,0,0,1,73.52,124Z" fill="#463d31" fill-rule="evenodd"/><path d="M72.7,124a.49.49,0,0,1-.55-.26.45.45,0,0,0,.47.15.53.53,0,0,0,.24-.7.72.72,0,0,0-.07-.14.7.7,0,0,1,.15.25A.53.53,0,0,1,72.7,124Z" fill="#463d31" fill-rule="evenodd"/><path d="M73.2,124.85a.49.49,0,0,1-.45-.42.45.45,0,0,0,.4.28.53.53,0,0,0,.45-.59.72.72,0,0,0,0-.16.7.7,0,0,1,.07.29A.53.53,0,0,1,73.2,124.85Z" fill="#463d31" fill-rule="evenodd"/><path d="M74.11,124.42a.49.49,0,0,1-.45-.42.45.45,0,0,0,.4.28.53.53,0,0,0,.45-.59.72.72,0,0,0,0-.16.7.7,0,0,1,.07.29A.53.53,0,0,1,74.11,124.42Z" fill="#463d31" fill-rule="evenodd"/><path d="M73.82,125.17a.49.49,0,0,1-.45-.42.45.45,0,0,0,.4.28.53.53,0,0,0,.45-.59.72.72,0,0,0,0-.15.7.7,0,0,1,.07.29A.53.53,0,0,1,73.82,125.17Z" fill="#463d31" fill-rule="evenodd"/><path d="M74.73,124.57a.49.49,0,0,1-.45-.42.45.45,0,0,0,.4.28.53.53,0,0,0,.45-.59.72.72,0,0,0,0-.16.7.7,0,0,1,.07.29A.53.53,0,0,1,74.73,124.57Z" fill="#463d31" fill-rule="evenodd"/><path d="M75.63,123.17a.49.49,0,0,1-.45-.42.45.45,0,0,0,.4.28.53.53,0,0,0,.45-.59.72.72,0,0,0,0-.16.69.69,0,0,1,.07.29A.53.53,0,0,1,75.63,123.17Z" fill="#463d31" fill-rule="evenodd"/><path d="M75.76,124a.49.49,0,0,1-.57-.22.45.45,0,0,0,.48.11.53.53,0,0,0,.19-.71.73.73,0,0,0-.08-.14.7.7,0,0,1,.17.24A.53.53,0,0,1,75.76,124Z" fill="#463d31" fill-rule="evenodd"/><path d="M76.59,123.64a.49.49,0,0,1-.6-.09.45.45,0,0,0,.49,0,.53.53,0,0,0,0-.74l-.1-.12a.7.7,0,0,1,.22.2A.53.53,0,0,1,76.59,123.64Z" fill="#463d31" fill-rule="evenodd"/><path d="M80.38,124.81a1.48,1.48,0,0,0-.4,2.13.59.59,0,0,0,1.1-.13.62.62,0,0,1-.52.29c-.65,0-.85-.89-.71-1.53C79.93,125.22,80.23,125,80.38,124.81Z" fill="#463d31" fill-rule="evenodd"/><path d="M79.34,125a1.32,1.32,0,0,0-.4,2c.68.79,1.21-.17,1.1-.12a.63.63,0,0,1-.52.27c-.65,0-.85-.83-.71-1.43C78.88,125.37,79.18,125.2,79.34,125Z" fill="#463d31" fill-rule="evenodd"/><path d="M78.19,124.94a1.21,1.21,0,0,0-.36,1.82c.62.72,1.1-.16,1-.11a.57.57,0,0,1-.47.25c-.6,0-.78-.76-.65-1.3C77.78,125.3,78.05,125.14,78.19,124.94Z" fill="#463d31" fill-rule="evenodd"/><path d="M77.11,125a1,1,0,0,0-.31,1.54c.53.61.94-.13.85-.09a.49.49,0,0,1-.4.21c-.51,0-.66-.64-.55-1.11C76.76,125.32,77,125.19,77.11,125Z" fill="#463d31" fill-rule="evenodd"/><path d="M76.15,124.89a1,1,0,0,0-.28,1.43c.49.57.87-.12.79-.08a.45.45,0,0,1-.37.19c-.47,0-.61-.59-.51-1C75.83,125.17,76,125,76.15,124.89Z" fill="#463d31" fill-rule="evenodd"/><path d="M67.59,124.35a1.19,1.19,0,0,1,.22,1.82c-.67.66-1.08-.24-1-.18a.57.57,0,0,0,.45.28c.59.06.82-.69.74-1.24C68,124.73,67.71,124.55,67.59,124.35Z" fill="#463d31" fill-rule="evenodd"/><path d="M68.57,124.39a1.19,1.19,0,0,1,.22,1.82c-.67.66-1.08-.24-1-.18a.57.57,0,0,0,.45.28c.59.06.82-.69.74-1.24C69,124.77,68.7,124.59,68.57,124.39Z" fill="#463d31" fill-rule="evenodd"/><path d="M69.54,124.51a1.06,1.06,0,0,1,.19,1.62c-.6.59-1-.21-.87-.16a.5.5,0,0,0,.4.25c.52.05.73-.61.66-1.1C69.87,124.85,69.65,124.69,69.54,124.51Z" fill="#463d31" fill-rule="evenodd"/><path d="M70.53,124.44a1.06,1.06,0,0,1,.19,1.62c-.6.59-1-.21-.87-.16a.5.5,0,0,0,.4.25c.52.05.73-.61.66-1.1C70.87,124.78,70.64,124.62,70.53,124.44Z" fill="#463d31" fill-rule="evenodd"/><path d="M71.31,124.3c.77.56.74,1.29.45,1.63-.5.6-1-.21-.89-.16a.6.6,0,0,0,.44.25c.53.05.63-.62.48-1.11C71.7,124.64,71.45,124.48,71.31,124.3Z" fill="#463d31" fill-rule="evenodd"/><path d="M72.09,124.16c.82.56.86,1.29.61,1.64-.44.6-1-.22-.91-.16a.68.68,0,0,0,.46.25c.53.05.57-.62.37-1.11C72.52,124.51,72.25,124.35,72.09,124.16Z" fill="#463d31" fill-rule="evenodd"/><path d="M85.36,120.22a1.06,1.06,0,0,0-.32,1.6c.55.64,1-.14.88-.09a.51.51,0,0,1-.42.22c-.53,0-.68-.67-.57-1.15C85,120.53,85.24,120.39,85.36,120.22Z" fill="#463d31" fill-rule="evenodd"/><path d="M84.44,120.1a1.06,1.06,0,0,0-.32,1.6c.55.64,1-.14.88-.09a.5.5,0,0,1-.42.22c-.53,0-.68-.67-.57-1.15C84.07,120.41,84.31,120.27,84.44,120.1Z" fill="#463d31" fill-rule="evenodd"/><path d="M83.48,120.12a1.06,1.06,0,0,0-.32,1.6c.55.64,1-.14.88-.09a.5.5,0,0,1-.42.22c-.53,0-.68-.67-.57-1.15C83.11,120.43,83.35,120.29,83.48,120.12Z" fill="#463d31" fill-rule="evenodd"/><path d="M82.74,120.29a1.06,1.06,0,0,0-.32,1.6c.55.64,1-.14.88-.09a.5.5,0,0,1-.42.22c-.53,0-.68-.67-.57-1.15C82.37,120.6,82.61,120.46,82.74,120.29Z" fill="#463d31" fill-rule="evenodd"/><path d="M81.82,120.68a.91.91,0,0,0-.09,1.41c.55.56.83-.12.76-.08a.38.38,0,0,1-.34.19c-.46,0-.67-.59-.63-1C81.54,120.95,81.73,120.83,81.82,120.68Z" fill="#463d31" fill-rule="evenodd"/><path d="M80.82,120.89a.94.94,0,0,0,.17,1.42c.65.56.8-.12.74-.08a.3.3,0,0,1-.3.19c-.45,0-.78-.59-.81-1C80.59,121.17,80.76,121,80.82,120.89Z" fill="#463d31" fill-rule="evenodd"/><path d="M79.91,121.25a.86.86,0,0,0,.17,1.37c.66.41.81-.31.75-.26a.41.41,0,0,1-.3.26c-.46.12-.78-.41-.82-.82C79.67,121.58,79.85,121.41,79.91,121.25Z" fill="#463d31" fill-rule="evenodd"/><path d="M79.12,121.78a.86.86,0,0,0,.17,1.37c.66.41.81-.31.75-.26a.41.41,0,0,1-.3.26c-.46.12-.78-.41-.82-.82C78.89,122.11,79.06,121.95,79.12,121.78Z" fill="#463d31" fill-rule="evenodd"/><path d="M78.35,122.2a.86.86,0,0,0,.17,1.37c.66.41.81-.31.75-.26a.41.41,0,0,1-.3.26c-.46.12-.78-.41-.82-.82C78.11,122.53,78.28,122.37,78.35,122.2Z" fill="#463d31" fill-rule="evenodd"/><path d="M77.21,122.36a.86.86,0,0,0,.17,1.37c.66.41.81-.31.75-.26a.41.41,0,0,1-.3.26c-.46.12-.78-.41-.82-.82C77,122.69,77.15,122.52,77.21,122.36Z" fill="#463d31" fill-rule="evenodd"/><path d="M112.84,53.09c-3.49,9.23,1.06,19-2.85,29.13.64-3.25.63-4.8.42-5.55,0,3.53-2.69,9.18-2.64,11.56-.7-1.1.18-3.8.34-5.53-.54,1.11-1.58,8.24-4.81,11.18,1.25-2.72,1-3.53.63-4.37-.2,2.52-2.58,6.93-4.7,8.92a5.23,5.23,0,0,0,.53-4.21c.12,1.85-2.72,6-4.1,6.89.47-1.89.88-3.08.18-3.46.19,2-3.58,5.49-4.1,6,.65-1.74.89-2.11.54-2.67-.86,1.79-1.93,2.12-3.51,2.74a3,3,0,0,0-.05-2.27,3.17,3.17,0,0,1-.92,2.58c.09-.68,0-1.72-.4-1.76a2.87,2.87,0,0,1-1.77,2.68c.35-.55-.43-1.47-.87-1.48.07.63-.2,1.64-2.08,2.27.38-.61.73-1.31.3-1.82-.18,1.3-1.62,1.75-2.47,2.24.14-.44.07-1.25-.44-1.32-.1,1.07-1.2,1.54-2.17,1.65.28-.41.37-1.1-.6-1.17,0,1.16-.6,1.47-2,2,.05-.42.63-1.47,0-2.06-.15.61-.63,1.7-2.79,2.8.36-.57.64-1,.08-1.63-.81,1.47-1.41,2.09-2.63,2.4.61-.76.62-2,.29-2.25-.69,0-.45,1.62-2.95,1.87,1.38-.75,1.6-2,1.29-2.33-.5.64-.75,1.48-2,1.51.07-.52.16-1-.14-1.28-.14,0-.21,1.1-1.61,1.23.46-.6-.06-1.49-.31-1.81a1.74,1.74,0,0,1-2.21,1c.66-2.91-.63.84-1.32-2.37A3.62,3.62,0,0,0,58.09,106a6.92,6.92,0,0,1,.45-2.54c-.07-.14-1,.33-1.72,2.05-.55-2.64.61-3.52.57-3.61l-.09-.19,0-.06,0-.06c-.46-1.54.6-2.39,1.83-4C61.73,94.28,74.87,75,84.77,71.72c3.58-1.18.19-7,1.07-7C94,64.7,107.32,58.88,112.84,53.09Z" fill="#0b1615" fill-rule="evenodd"/><path d="M112.65,53.36C111,57.64,111.43,62.76,111.6,67q-.09.33-.19.65c0,1.22-.42,7.61-2.61,10a17.39,17.39,0,0,0,.53-5.6c-.15,2.94-2.69,9.15-6.41,11.87,1.06-2.69,2.74-5.77,2.31-7.9-.61,2.56-3.82,6.13-5.51,7,.32-1.46.93-2.68.41-3.89-.65,2.89-3.84,6.87-6,8.5.42-1.63,1.65-5.68,1-6.31.07,2.09-3.28,5.79-4.1,6.06.14-1.09.2-4.73-.51-4.53,0,2.35-1.93,5-2.91,5.18-3.13.73-6.11-3.27-8.22-3.27A8,8,0,0,1,72.45,81c1.51-1.6,3.06-3.12,4.62-4.47a33.43,33.43,0,0,0,10.35-2.36,14.67,14.67,0,0,1-5.74-.83,22.45,22.45,0,0,0,12.71-5.9s-4.24,2.15-6.57,1.72a11.89,11.89,0,0,0,4.09-5.15C95.22,63.43,111.22,56.28,112.65,53.36Z" fill="#122822" fill-rule="evenodd"/><path d="M53.25,86.07A49.84,49.84,0,0,1,24.07,82c-2.57-1.22.68-2.75,1.88-2.45-1.63-1.89-.1-2.93,1.4-2.89-.23-1,1.85-2.28,3.24-1.72-.43-1.55,2.58-2.07,3.72-1.34-.3-1.18,2.74-1.7,3.92-.83-.51-1.32,2.24-2.19,3.52-1.3-.41-1.26,2.33-1.86,3.43-1-.52-1.47,2.57-1.66,3.39-.68-.37-1.22,1.81-1.48,2.71-.25-.17-1.22,1.65-1.45,2.72-.58,0-.9,1.24-1.13,1.83-.69-.23-.86.9-1.22,1.63-.64.21-.56,1.23-.26,1.59.27.62.46,1.55,4.09,1.51,5.13s-.81,2.24-1,3.62A12.71,12.71,0,0,0,60.92,82c.37.42-.08,1-.61,1.27S53.34,86.14,53.25,86.07Z" fill="#1c1a19" fill-rule="evenodd"/><path d="M23.29,81.29c-.45-.32,0-1.06.4-.66,5.72,4.23,19.68,6.8,23.84,5.12,1-.17-12.73.67-21.61-6.21h0a2,2,0,0,1-.66-1.79C31.42,83,41.64,84.24,44.08,84c-9.69-1.7-15.28-5.59-16.75-7.33h0A.92.92,0,0,1,27.5,76c2.34.91,11.71,6.86,19.94,6.69-10.12-1.33-15.31-5.29-16.91-7.74l.05,0a1,1,0,0,1,.08-.76C33.07,75.3,39.11,80,49.2,81.44,38.86,78,35.38,75.17,34.25,73.57l0,0a.65.65,0,0,1,.19-.63c2.88,1.33,11.9,7.38,16.06,7.45C46.6,78.27,40,74.71,38.19,72.74l0,0a.82.82,0,0,1,0-.67c2.6.94,11,6,13.58,7.12-2.7-1.58-8.44-5.08-10.11-7.77l0,0a.73.73,0,0,1,.07-.63c2.92.82,10.3,7.17,11.27,7.45-.66-.85-6.38-5.82-7.94-7.79l0,0a.76.76,0,0,1,.07-.72c1.92.88,8.4,7.39,9.77,8.35-.91-1.14-5.61-6.55-6.5-8.55a.71.71,0,0,1,.45-.67c1.69.71,4.26,6,6.21,7.5-.19-.93-3.29-5.1-3.92-6.91a.84.84,0,0,1,.4-.81c1.67.44,3.58,5.76,4.19,6.42-.1-.87-1.67-4.5-1.92-6.16L54,69a.83.83,0,0,1,.43-.73c.77.75,1.78,4.33,2.38,5.57a43,43,0,0,1-1-5.56l.05,0a.69.69,0,0,1,.55-.89c.46.83.8,3.42,1.38,4.58-.05-1.15-.31-3.39-.24-4.42a.57.57,0,0,1,.55-.2,20.31,20.31,0,0,1,1.64,4.49c.38-.61-.18-2.18-.11-3a14.86,14.86,0,0,1,1,4.21c0,1-.81,2.24-1,3.62A12.71,12.71,0,0,0,60.92,82c.37.42,1.31,2.12.79,2.37C53.8,89.64,30.41,87,23.29,81.29Z" fill="#151517" fill-rule="evenodd"/><path d="M111.2,7.91s5.75-6.13,10.27-2.13c-2.35-.08-5.44,2.31-7.21,6,2.19-2.34,5.23-4.54,8.4-3.51-3.38,2.09-7.4,5.52-7.68,11.25-2.68-2.74-4.85-1.8-4-3.33,0,0,.37-.65,1-1.59C110.38,12.13,110.49,9.2,111.2,7.91Z" fill="#604f3d" fill-rule="evenodd"/><path d="M111.75,8.14s4.46-4.87,8.83-2.67c-2.76-.09-7.13,4-7.91,9.29A5.56,5.56,0,0,1,111.75,8.14Z" fill="#fcf6d4" fill-rule="evenodd"/><path d="M111.7,15.86s5.38-8.46,10.21-7.4c-2.53,1.75-6.53,4.46-7.31,9.75C112.25,15.81,111,17.19,111.7,15.86Z" fill="#fcf6d4" fill-rule="evenodd"/><ellipse cx="116.24" cy="6.55" rx="0.67" ry="0.26" transform="translate(11.39 57.16) rotate(-28.99)"/><path d="M70.64,58.66c3.31-2.21,14.73-6.78,17.1-11.49,6.49-12.9,2.11-17.1,5.33-22.53S99.28,10.53,103.92,9c3.14-1.06,4.79.23,7.45-1.25,1.87-1,3.13-.89,2.57-.08-2,2.9-2.21,5.93-1.33,6.76s2.53-2.44,5.47-2a16.3,16.3,0,0,0-.78,1.87l.22.48a5,5,0,0,1,2.34.48,3.4,3.4,0,0,0-1.42.64A2.32,2.32,0,0,1,120.5,17a4.11,4.11,0,0,0-2.2.09,4.83,4.83,0,0,1,2.17.76,4.06,4.06,0,0,0-2.63.79,4.74,4.74,0,0,1,3.77.79,5.76,5.76,0,0,0-3.55.32,4.39,4.39,0,0,1,2.17,1.6,2.18,2.18,0,0,0-1.86-.05A4.7,4.7,0,0,1,121,23.63a6.69,6.69,0,0,0-3.2-1.49,8.58,8.58,0,0,1,2.11,3.4A9.27,9.27,0,0,0,117,23.28a7.9,7.9,0,0,1,1.82,3.14c-.3-.35-2.07-1.74-2.79-1.45a4.7,4.7,0,0,1,1.72,2.8,3.42,3.42,0,0,0-2.29-1.24,4.22,4.22,0,0,1,1.32,2.59,3.13,3.13,0,0,0-2.29-1.41,5,5,0,0,1,1.47,3.4,10.31,10.31,0,0,0-2-2.21c.52.9,1.3,2.33,1.12,3.44-.49-1.08-1.07-2-2.18-2.24a4.09,4.09,0,0,1,1,3.26,2.91,2.91,0,0,0-1-1.39c-.23.72,0,.76.06,1.31.49,3.33,2.06,14.53-.67,23.17,0,1.22-.42,7.61-2.61,10a17.39,17.39,0,0,0,.53-5.6c-.15,2.94-2.69,9.15-6.41,11.87,1.06-2.69,2.74-5.77,2.31-7.9-.61,2.56-3.82,6.13-5.51,7,.32-1.46.93-2.68.41-3.89-.65,2.89-3.84,6.87-6,8.5.42-1.63,1.65-5.68,1-6.31.07,2.09-3.28,5.79-4.1,6.06.14-1.09.2-4.73-.51-4.53,0,2.35-1.93,5-2.91,5.18-3.13.73-6.11-3.27-8.22-3.27C72.11,73.55,70.46,64,70.64,58.66Z" fill="#283b5b" fill-rule="evenodd"/><path d="M112.13,13.05a2,2,0,0,0,.48,1.34c.87.83,2.53-2.44,5.47-2a16.3,16.3,0,0,0-.78,1.87l.22.48a5,5,0,0,1,2.34.48,3.4,3.4,0,0,0-1.42.64A2.32,2.32,0,0,1,120.5,17a4.11,4.11,0,0,0-2.2.09,4.83,4.83,0,0,1,2.17.76,4.06,4.06,0,0,0-2.63.79,4.74,4.74,0,0,1,3.77.79,5.76,5.76,0,0,0-3.55.32,4.39,4.39,0,0,1,2.17,1.6,2.18,2.18,0,0,0-1.86-.05A4.7,4.7,0,0,1,121,23.63a6.69,6.69,0,0,0-3.2-1.49,8.58,8.58,0,0,1,2.11,3.4A9.27,9.27,0,0,0,117,23.28a7.9,7.9,0,0,1,1.82,3.14c-.3-.35-2.07-1.74-2.79-1.45a4.7,4.7,0,0,1,1.72,2.8,3.42,3.42,0,0,0-2.29-1.24,4.22,4.22,0,0,1,1.32,2.59,3.13,3.13,0,0,0-2.29-1.41,5,5,0,0,1,1.47,3.4,10.31,10.31,0,0,0-2-2.21c.52.9,1.3,2.33,1.12,3.44-.49-1.08-1.07-2-2.18-2.24a4.09,4.09,0,0,1,1,3.26,2.91,2.91,0,0,0-1-1.39c-.23.72,0,.76.06,1.31.49,3.33,2.06,14.53-.67,23.17,0,1.22-.42,7.61-2.61,10a17.39,17.39,0,0,0,.53-5.6c-.15,2.94-2.69,9.15-6.41,11.87,1.06-2.69,2.74-5.77,2.31-7.9-.61,2.56-3.82,6.13-5.51,7,.32-1.46.93-2.68.41-3.89-.65,2.89-3.84,6.87-6,8.5.42-1.63,1.65-5.68,1-6.31.07,2.09-3.28,5.79-4.1,6.06.14-1.09.2-4.73-.51-4.53,0,2.35-1.93,5-2.91,5.18-3.13.73-6.11-3.27-8.22-3.27-4.32,0-6.81-2.73-8.16-6.08l.42-1.7c4.94-.42,9.44-.16,15.81-2.73a14.67,14.67,0,0,1-5.74-.83,22.45,22.45,0,0,0,12.71-5.9s-4.73,1-7.06.54c4.73-3.25,4.79-6.92,9.21-12.57-2.44,1.37-3.46,4-4.91,6.51C93.89,45.14,93.59,40,99.82,33c-1.29.21-2.18,1.57-2.92,1.69,1.83-2.93,1.08-4.66,3.84-8.2-2.24,1.07-3.07,2.27-4.82,4.64,2-9.43,10.4-13.06,12.9-12.63a7.9,7.9,0,0,0,2.95-5.36Z" fill="#1f3049" fill-rule="evenodd"/><path d="M112.13,13.05a2,2,0,0,0,.48,1.34c.87.83,2.53-2.44,5.47-2a16.3,16.3,0,0,0-.78,1.87l.22.48a5,5,0,0,1,2.34.48,3.4,3.4,0,0,0-1.42.64A2.32,2.32,0,0,1,120.5,17a4.11,4.11,0,0,0-2.2.09,4.83,4.83,0,0,1,2.17.76,4.06,4.06,0,0,0-2.63.79,4.74,4.74,0,0,1,3.77.79,5.76,5.76,0,0,0-3.55.32,4.39,4.39,0,0,1,2.17,1.6,2.18,2.18,0,0,0-1.86-.05A4.7,4.7,0,0,1,121,23.63a6.69,6.69,0,0,0-3.2-1.49,8.58,8.58,0,0,1,2.11,3.4A9.27,9.27,0,0,0,117,23.28a7.9,7.9,0,0,1,1.82,3.14c-.3-.35-2.07-1.74-2.79-1.45a4.7,4.7,0,0,1,1.72,2.8,3.42,3.42,0,0,0-2.29-1.24,4.22,4.22,0,0,1,1.32,2.59,3.13,3.13,0,0,0-2.29-1.41,5,5,0,0,1,1.47,3.4,10.31,10.31,0,0,0-2-2.21c.52.9,1.3,2.33,1.12,3.44-.49-1.08-1.07-2-2.18-2.24a4.09,4.09,0,0,1,1,3.26,2.91,2.91,0,0,0-1-1.39c-.23.72,0,.76.06,1.31.49,3.33,2.06,14.53-.67,23.17,0,1.22-.42,7.61-2.61,10a17.39,17.39,0,0,0,.53-5.6c-.15,2.94-2.69,9.15-6.41,11.87,1.06-2.69,2.74-5.77,2.31-7.9-.61,2.56-3.82,6.13-5.51,7,.32-1.46.93-2.68.41-3.89-.65,2.89-3.84,6.87-6,8.5.42-1.63,1.65-5.68,1-6.31.07,2.09-3.28,5.79-4.1,6.06.14-1.09.2-4.73-.51-4.53,0,2.35-1.93,5-2.91,5.18-3.13.73-6.11-3.27-8.22-3.27h-.1L77,65.47c1.14-.08,2.3-.18,3.5-.35,4.47.44,9.28,2.34,13,.15-1.27-.24-2.2-.24-3.13-1.17,2.82-.89,7.92-3.78,8.29-8.54-1.49,2.65-2.44,3.46-4.36,4.15,2.95-2.63,3.68-5.91,4.24-8.2-1.13,1.16-1.61,1.85-3.13,2,3-6.55,3-12.95,9-19.65-.24.06,1.35-3.72,1.13-3.59-3,1.7-6.28,7.82-7.3,10.22.69-5.64,2.14-8.32,3.62-10.14-2.12.44-2.79,1.88-3.73,2.88,2.8-7.92,4.35-8.14,6.56-9.8a10.92,10.92,0,0,0-3.84,2.12c1-3.19,4.47-6,7.43-7.1a2.73,2.73,0,0,1,.52,0,4.32,4.32,0,0,0,.45-.35,6.1,6.1,0,0,1,1.54-.22c0-.06-.11-.52-.29-1.28a7.72,7.72,0,0,0,1.24-3.5Z" fill="#0c151e" fill-rule="evenodd"/><path d="M113.32,36.22l.05.46a1.65,1.65,0,0,1-2-.41,89.47,89.47,0,0,0-.55,12.41A46.8,46.8,0,0,1,110,36.45a27.65,27.65,0,0,0-3.22,8.37c-.18-2.53-.82-4.31.37-9a5.88,5.88,0,0,0-1.2,2.94,4.38,4.38,0,0,1-.74-2.85A25.26,25.26,0,0,0,102.32,41a27.89,27.89,0,0,1,2.85-7.26c-2.5,1.73-4.49,5-6,7.81A40.52,40.52,0,0,1,105,30.66c-2.65,1.58-6.31,6.1-9.19,11.77,1.61-5.76,5.84-10.65,9.1-14.53-2.25,1-3.85,2.2-4.51,3.59.17-1.44,1.6-3.25,4.23-5.42-2.31.11-2.86.87-3.31,1.65.1-1.58,2.12-3.3,3.42-4.25a13.84,13.84,0,0,0-7.1,4c2.55-3.46,5.06-4.31,8.11-5.4a1.69,1.69,0,0,0,.53,1.91,2.86,2.86,0,0,1,1.65-1.47,4.58,4.58,0,0,0,.11,2.16c1.17-.53,1.26-1,1.4-2.18,1.22,1.54.28,3.49.87,5.54,0,0-1.65-1.38-1.2-.64s.46,3.4.28,2.67-2-.83-1.47.09S111.63,36.07,113.32,36.22Z" fill="#0b0a0f" fill-rule="evenodd"/><path d="M113.73,8a10.28,10.28,0,0,0-1.46,3.42C108.08,14,101,14.8,96.72,21.71c1.1-4.6,4.37-5.73,5.06-9.06a5,5,0,0,1,4.82-3.44C109.12,9.16,110.81,10.65,113.73,8Z" fill="#0b0a0f" fill-rule="evenodd"/><path d="M88,71.92c.18-2.94,1.2-6.25-2.3-7.17s-3-1.2-6.71-2.48S70.95,72.75,79,74.4,88.41,72.29,88,71.92Z" fill="#fff" fill-rule="evenodd"/><path d="M46.3,50.51c0-1.47-.51-2.9-1.42-3.13.23-1.61-.46-3-1.29-2.94a2.38,2.38,0,0,0-2.9-2.21c-1.52-1-3.68.37-3.72,1.47a3.84,3.84,0,0,0-2.07,2.94c-1,.46-2.07,2-1.7,3.08a2.48,2.48,0,0,0-.95,2.66A3.15,3.15,0,0,0,31.32,55,2.5,2.5,0,0,0,31,57.85c-.74.55-.77,1.93-.73,2.61a3.1,3.1,0,0,0-.37,2.66c-.8,1.06-.8,2.87,0,3.33A3.52,3.52,0,0,0,31,68.88a1.68,1.68,0,0,0,1.7,1.82c.23,1.2,1.2,2.51,2.76,2C37.39,72.3,64,60.26,64,60.26S49.8,57.13,46.3,50.51Z" fill="#8c8999" fill-rule="evenodd"/><path d="M46.23,50.54a2.77,2.77,0,0,0-1.68-2.87c.23-1.61-.32-3-1.15-3a2.16,2.16,0,0,0-2.76-2A2.32,2.32,0,0,0,37.16,44a3.79,3.79,0,0,0-2,2.94c-1,.46-2,1.77-1.61,2.87a2.54,2.54,0,0,0-1,2.68,3.13,3.13,0,0,0-1,2.56,2.48,2.48,0,0,0-.23,2.87,3.34,3.34,0,0,0-.82,2.61,3,3,0,0,0-.42,2.61c-.8,1.06-.78,2.71,0,3.17a3.63,3.63,0,0,0,1.13,2.46c0,.9.49,1.84,1.56,1.75.23,1.2,1.06,2.69,2.62,2.16C37.39,72.3,64,60.26,64,60.26S49.73,57.16,46.23,50.54Z" fill="#191c27" fill-rule="evenodd"/><path d="M112.4,10.82c-.47,1.67-.34,3,.21,3.56.87.83,2.53-2.44,5.47-2a16.3,16.3,0,0,0-.78,1.87l.22.48a5,5,0,0,1,2.34.48,3.4,3.4,0,0,0-1.42.64A2.32,2.32,0,0,1,120.5,17a4.11,4.11,0,0,0-2.2.09,4.83,4.83,0,0,1,2.17.76,4.06,4.06,0,0,0-2.63.79,4.74,4.74,0,0,1,3.77.79,5.76,5.76,0,0,0-3.55.32,4.39,4.39,0,0,1,2.17,1.6,2.18,2.18,0,0,0-1.86-.05A4.7,4.7,0,0,1,121,23.63a6.69,6.69,0,0,0-3.2-1.49,8.58,8.58,0,0,1,2.11,3.4A9.27,9.27,0,0,0,117,23.28a7.9,7.9,0,0,1,1.82,3.14c-.3-.35-2.07-1.74-2.79-1.45a4.7,4.7,0,0,1,1.72,2.8,3.42,3.42,0,0,0-2.29-1.24,4.22,4.22,0,0,1,1.32,2.59,3.13,3.13,0,0,0-2.29-1.41,5,5,0,0,1,1.47,3.4,10.31,10.31,0,0,0-2-2.21c.52.9,1.3,2.33,1.12,3.44-.49-1.08-1.07-2-2.18-2.24a4.09,4.09,0,0,1,1,3.26,2.91,2.91,0,0,0-1-1.39c-.23.72,0,.76.06,1.31s.17,1.2.28,2c-2.58-.85-4.58-4.16-4.36-4.55a5.83,5.83,0,0,0,2.62,1.52,5.52,5.52,0,0,1-1.56-3.72A7.54,7.54,0,0,0,112,30.81a12,12,0,0,1-1.2-6,5.16,5.16,0,0,1,2.44,1.7,6,6,0,0,0-2.21-3.31c.54-.32,1.07,0,1.61.32.14-.4,0-1.08-.69-2.16a5.57,5.57,0,0,1,3,2.57,3.92,3.92,0,0,0-1.88-3,4.4,4.4,0,0,1,2.8,1.56,5.79,5.79,0,0,0-1.39-3.4,2.49,2.49,0,0,1,2-.09c-.37-.61-1.76-1.22-1.93-.92a2.16,2.16,0,0,1,2-.6,2.13,2.13,0,0,0-1.75-.87,3.28,3.28,0,0,1,1.2-1.79c-2.68,1.09-5.48,2.86-6.44,5.42a3,3,0,0,1,1.79-.78c-1.11.84-1,2.08-.92,3.54a2.56,2.56,0,0,1-.92-1.75,4.52,4.52,0,0,0-.64,2.11c-.44-.47-.28-1.69.14-3.26a6.68,6.68,0,0,0-2.62,2.44A7.5,7.5,0,0,1,108,20a17.24,17.24,0,0,0-3.49,2.14,6.27,6.27,0,0,1,4.14-3.56c-.9-.67-2.6.25-3.91-.37,7.36-1.15,6.85-6.53,6.94-7A2.63,2.63,0,0,1,112.4,10.82Z" fill="#0b0a0f" fill-rule="evenodd"/><path d="M109,12.73a1.56,1.56,0,0,1-1.18-.06,1.6,1.6,0,0,0-2.7.91,2.91,2.91,0,0,1-.4,1.5c.35-.09.79-.15,1,0a1.55,1.55,0,0,0,1.67.2,1.68,1.68,0,0,0,.83-.88C108.41,14,108.17,13.48,109,12.73Z" fill="#46342f" fill-rule="evenodd"/><circle cx="106.75" cy="13.82" r="1.22" transform="translate(3.81 45.3) rotate(-24.38)" fill="#04080b"/><path d="M107.09,14.08c0-.15.43-.14.41-.42s.06-.51.14-.36.25.55.07.75S107.14,14.23,107.09,14.08Z" fill="#fefefe" fill-rule="evenodd"/><path d="M106.46,14.61l-.06,0c-.2.09-.47-.08-.61-.38s-.09-.62.11-.71l.07,0a.7.7,0,0,0,.49,1.07Z" fill="#fefefe" fill-rule="evenodd"/><path d="M109.52,11.64c.52-1.44-2.91-3.09-5.16-1.39s-2.85,5.67-2.27,5.86a2.54,2.54,0,0,0,2.81-1.92c0-.82.52-2.95,2.94-1.81A1.14,1.14,0,0,0,109.52,11.64Z" fill="#c42021" fill-rule="evenodd"/><path d="M115.87,25.81c-1.13-.87-1.3-2.54-2.64-3.23a5.44,5.44,0,0,1,.6,2.24,1.93,1.93,0,0,0-1.23-.83c.77.89.89,2.61,1.85,3.24-.23-.67-.11-1.24-.34-1.87A2.15,2.15,0,0,0,115.87,25.81Z" fill="#0f121a" fill-rule="evenodd"/><path d="M71.88,96.27a73.45,73.45,0,0,1-42.49,9c-4.17-.4-.45-4.16,1.37-4.34-3.21-1.8-1.6-4,.49-4.71-.84-1.3,1.42-4.1,3.62-4-1.38-1.93,2.54-4.16,4.48-3.72-1-1.48,2.94-3.73,5-3.11-1.36-1.57,2-4.17,4.23-3.56-1.2-1.53,2.3-3.75,4.27-3-1.46-1.78,2.72-3.59,4.35-2.64-1.13-1.5,1.76-3,3.63-1.7-.85-1.6,1.56-2.84,3.48-2.16-.44-1.25,1.15-2.19,2.19-1.87-.75-1.08.63-2.14,1.94-1.7,0-.88,1.57-1,2.34-.42,1.09.33,4.2,4.89,4.66,6.36s0,3.51.44,5.51,3.83,6.22,4.54,6.62.4,1.46-.2,2.06S72,96.33,71.88,96.27Z" fill="#302826" fill-rule="evenodd"/><path d="M28,104.68c-.79-.22-.48-1.49.22-1.11,10,3,30.68-.45,35.61-4.86,1.29-.74-17.31,7.31-33.06,2.23h0c-1.23-.69-1.75-1.44-1.81-2.15,11.14,4.21,25.93.78,29.17-.81-14.28,2.51-24-.08-26.88-1.75h0a1.35,1.35,0,0,1-.13-1c3.7.09,19.66,3.63,31-.73-14.7,3.24-23.87.35-27.31-2.24h.08a1.4,1.4,0,0,1-.26-1.1c3.9.36,14.63,3.83,29.33.78-16.06.42-22.3-1.76-24.66-3.41h.07a1,1,0,0,1-.06-1c4.66.39,20.2,4.26,26,2.27-6.54-1-17.43-2.62-21-4.42l.06,0a1.21,1.21,0,0,1-.31-.93c4.07,0,18.29,2.79,22.39,3.06-4.54-.83-14.25-2.81-17.91-5.7h.06a1.07,1.07,0,0,1-.22-.91c4.46-.33,17.87,4.77,19.36,4.67C66.4,84.71,56,80.7,52.83,78.75l0,0a1.12,1.12,0,0,1-.26-1c3.1.25,15.35,6,17.73,6.68-1.84-1.12-11.07-6.26-13.3-8.6a1,1,0,0,1,.28-1.15c2.7.14,8.9,6.14,12.37,7.28-.73-1.19-7.12-5.41-8.89-7.61A1.24,1.24,0,0,1,61,73c2.54-.23,7.85,6.18,9,6.8-.57-1.16-4.58-5.4-5.75-7.57l.11,0A1.22,1.22,0,0,1,64.57,71c1.45.66,4.64,5.1,6.1,6.53a63.37,63.37,0,0,1-4.23-7.19l.09,0a1,1,0,0,1,.32-1.51c1.05.92,2.83,4.34,4.2,5.65-.65-1.56-2.13-4.55-2.55-6a.84.84,0,0,1,.66-.55,29.94,29.94,0,0,1,4.53,5.4c.23-1-1.35-2.93-1.66-4.1a21.9,21.9,0,0,1,3.46,5.35c.46,1.46,0,3.51.44,5.51s3.83,6.22,4.54,6.62,2.88,2.29,2.28,2.89C74.44,100.95,40.7,109,28,104.68Z" fill="#19191b" fill-rule="evenodd"/><path d="M56.26,90.53c-.35-1.63-2.77-1.48-5.42-1.46-3.2,0-6.65.17-6,1.25C46.4,91.46,50,92.42,53,92.61s3.61-.69,3.61-.69Z" fill="#93644a" fill-rule="evenodd"/><path d="M56.88,90.49c-.35-1.63-2.6-1.23-5.25-1.22-3.2,0-6.82-.07-6.19,1,1.58,1.15,5.21,2.11,8.13,2.3s3.61-.69,3.61-.69Z" fill="#7f4833" fill-rule="evenodd"/><path d="M55.39,88.76C55,87.13,52.62,87.29,50,87.3c-3.2,0-6.65.17-6,1.25,1.58,1.15,5.21,2.11,8.13,2.3s3.61-.69,3.61-.69Z" fill="#93644a" fill-rule="evenodd"/><path d="M56,88.73c-.35-1.63-2.6-1.23-5.25-1.22-3.2,0-6.82-.07-6.19,1,1.58,1.15,5.21,2.11,8.13,2.3s3.61-.69,3.61-.69Z" fill="#7f4833" fill-rule="evenodd"/><path d="M54.56,87c-.34-1.56-2.65-1.41-5.19-1.4-3.07,0-6.37.17-5.76,1.2,1.51,1.1,5,2,7.79,2.2s3.45-.66,3.45-.66Z" fill="#93644a" fill-rule="evenodd"/><path d="M55.16,86.93c-.34-1.56-2.49-1.18-5-1.17-3.07,0-6.54-.07-5.93,1,1.51,1.1,5,2,7.79,2.2s3.45-.66,3.45-.66Z" fill="#7f4833" fill-rule="evenodd"/><path d="M53.66,85.32c-.28-1.58-2.6-1.56-5.14-1.68-3.06-.15-6.37-.18-5.8.88,1.47,1.18,4.91,2.29,7.7,2.63s3.47-.47,3.47-.47Z" fill="#93644a" fill-rule="evenodd"/><path d="M54.27,85.31c-.28-1.58-2.44-1.32-5-1.44-3.06-.15-6.53-.43-6,.64,1.47,1.18,4.91,2.29,7.7,2.63s3.47-.47,3.47-.47Z" fill="#7f4833" fill-rule="evenodd"/><path d="M52,83.19c-.28-1.58-2.6-1.56-5.14-1.68-3.06-.15-6.37-.18-5.8.88,1.47,1.18,4.91,2.29,7.7,2.63s3.47-.47,3.47-.47Z" fill="#93644a" fill-rule="evenodd"/><path d="M52.58,83.19c-.28-1.58-2.44-1.32-5-1.44-3.06-.15-6.53-.43-6,.64,1.47,1.18,4.91,2.29,7.7,2.63s3.47-.47,3.47-.47Z" fill="#7f4833" fill-rule="evenodd"/><path d="M50.52,81c-.28-1.58-2.6-1.56-5.14-1.68-3.06-.15-6.37-.18-5.8.88,1.47,1.18,4.91,2.29,7.7,2.63s3.47-.47,3.47-.47Z" fill="#93644a" fill-rule="evenodd"/><path d="M51.12,81c-.28-1.58-2.44-1.32-5-1.44-3.06-.15-6.53-.43-6,.64,1.47,1.18,4.91,2.29,7.7,2.63s3.79-.56,3.79-.56Z" fill="#7f4833" fill-rule="evenodd"/><path d="M48,79.08c-.35-1.59-3-1.64-6-1.84-3.54-.24-7.35-.37-6.67.72C37,79.19,41,80.41,44.26,80.82s4-.37,4-.37Z" fill="#93644a" fill-rule="evenodd"/><path d="M48.66,79.1c-.35-1.59-2.84-1.39-5.77-1.59-3.54-.24-7.54-.61-6.86.47,1.72,1.23,5.71,2.44,8.94,2.85a8.19,8.19,0,0,0,4.83-.51Z" fill="#7f4833" fill-rule="evenodd"/><path d="M46.06,77.29c-.35-1.59-3-1.64-6-1.84-3.54-.24-7.35-.37-6.67.72,1.72,1.23,5.71,2.44,8.94,2.85s4-.37,4-.37Z" fill="#93644a" fill-rule="evenodd"/><path d="M46.76,77.31c-.35-1.59-2.84-1.39-5.77-1.59-3.54-.24-7.54-.61-6.86.47,1.72,1.23,5.71,2.44,8.94,2.85s4-.37,4-.37Z" fill="#7f4833" fill-rule="evenodd"/><path d="M44.67,75.64c-.4-1.6-3.29-1.69-6.46-1.93-3.83-.29-8-.48-7.21.62,1.87,1.25,6.2,2.53,9.69,3S45,77,45,77Z" fill="#93644a" fill-rule="evenodd"/><path d="M45.42,75.67c-.4-1.6-3.09-1.44-6.26-1.68-3.83-.29-8.16-.73-7.41.37,1.87,1.25,6.2,2.53,9.69,3S45.76,77,45.76,77Z" fill="#7f4833" fill-rule="evenodd"/><path d="M43.06,73.51c-.45-1.58-3.35-1.51-6.53-1.57-3.83-.08-8,0-7.18,1,1.91,1.15,6.28,2.19,9.79,2.46s4.31-.55,4.31-.55Z" fill="#93644a" fill-rule="evenodd"/><path d="M43.81,73.49c-.45-1.58-3.14-1.27-6.31-1.34-3.83-.08-8.18-.28-7.39.77,1.91,1.15,6.28,2.19,9.79,2.46s4.31-.55,4.31-.55Z" fill="#7f4833" fill-rule="evenodd"/><path d="M41.78,71.65c-.52-1.54-3.41-1.27-6.59-1.11-3.83.19-8,.52-7.12,1.52,2,1,6.37,1.74,9.89,1.77S42.23,73,42.23,73Z" fill="#93644a" fill-rule="evenodd"/><path d="M42.53,71.58c-.52-1.54-3.19-1-6.36-.89C32.33,70.87,28,71,28.82,72c2,1,6.37,1.74,9.89,1.77S43,72.9,43,72.9Z" fill="#7f4833" fill-rule="evenodd"/><path d="M42.86,69.64c-.61-1.5-3.48-1-6.63-.57-3.81.5-7.91,1.17-7,2.1,2,.85,6.45,1.22,10,1s4.22-1.2,4.22-1.2Z" fill="#93644a" fill-rule="evenodd"/><path d="M43.6,69.51c-.61-1.5-3.24-.78-6.4-.37-3.81.5-8.14,1-7.26,1.89,2,.85,6.45,1.22,10,1s4.22-1.2,4.22-1.2Z" fill="#7f4833" fill-rule="evenodd"/><path d="M44.92,67.53c-.66-1.46-3.51-.79-6.65-.21-3.79.71-7.86,1.6-6.94,2.48,2,.74,6.49.87,10,.41s4.17-1.42,4.17-1.42Z" fill="#93644a" fill-rule="evenodd"/><path d="M45.66,67.36c-.66-1.46-3.26-.6-6.41,0-3.79.71-8.1,1.41-7.18,2.28,2,.74,6.49.87,10,.41s4.17-1.42,4.17-1.42Z" fill="#7f4833" fill-rule="evenodd"/><path d="M48.49,64.88c-.75-1.39-3.55-.45-6.64.43-3.74,1.07-7.73,2.35-6.76,3.14,2.08.54,6.52.24,10-.56s4.07-1.82,4.07-1.82Z" fill="#93644a" fill-rule="evenodd"/><path d="M49.22,64.64c-.75-1.39-3.29-.29-6.39.6-3.73,1.07-8,2.19-7,3,2.08.54,6.52.24,10-.55s4.07-1.82,4.07-1.82Z" fill="#7f4833" fill-rule="evenodd"/><path d="M65.47,91.41c-.37-1.54-2.79-1.3-5.45-1.19-3.2.14-6.65.42-6,1.43,1.59,1,5.24,1.81,8.17,1.88s3.6-.8,3.6-.8Z" fill="#93644a" fill-rule="evenodd"/><path d="M66.1,91.35c-.37-1.54-2.62-1.08-5.27-1-3.2.14-6.83.2-6.18,1.2,1.59,1,5.24,1.81,8.17,1.88s3.6-.8,3.6-.8Z" fill="#5f3328" fill-rule="evenodd"/><path d="M66.11,89.57c-.37-1.54-2.79-1.3-5.45-1.19-3.2.14-6.65.42-6,1.43,1.59,1,5.24,1.81,8.17,1.88s3.6-.8,3.6-.8Z" fill="#93644a" fill-rule="evenodd"/><path d="M66.73,89.51c-.37-1.54-2.62-1.08-5.27-1-3.2.14-6.83.2-6.18,1.2,1.59,1,5.24,1.81,8.17,1.88s3.6-.8,3.6-.8Z" fill="#5f3328" fill-rule="evenodd"/><path d="M65.53,87.77c-.37-1.54-2.79-1.3-5.45-1.19-3.2.14-6.65.42-6,1.43,1.59,1,5.24,1.81,8.17,1.88s3.6-.8,3.6-.8Z" fill="#93644a" fill-rule="evenodd"/><path d="M66.16,87.71c-.37-1.54-2.62-1.08-5.27-1-3.2.14-6.83.2-6.18,1.2,1.59,1,5.24,1.81,8.17,1.88s3.6-.8,3.6-.8Z" fill="#5f3328" fill-rule="evenodd"/><path d="M64.76,86.23c-.37-1.54-2.91-1.89-5.56-1.78-3.2.14-6.54,1-5.89,2,1.59,1,5.24,1.81,8.17,1.88s3.6-.8,3.6-.8Z" fill="#93644a" fill-rule="evenodd"/><path d="M65.39,86.17c-.37-1.54-2.62-1.08-5.27-1-3.2.14-6.83.2-6.18,1.2,1.59,1,5.24,1.81,8.17,1.88s3.6-.8,3.6-.8Z" fill="#5f3328" fill-rule="evenodd"/><path d="M63.07,84c-.37-1.54-2.79-1.3-5.45-1.19-3.2.14-6.65.42-6,1.43,1.59,1,5.24,1.81,8.17,1.88s3.6-.8,3.6-.8Z" fill="#93644a" fill-rule="evenodd"/><path d="M63.7,84c-.37-1.54-2.62-1.08-5.27-1-3.2.14-6.83.2-6.18,1.2,1.59,1,5.24,1.81,8.17,1.88s3.6-.8,3.6-.8Z" fill="#5f3328" fill-rule="evenodd"/><path d="M61.7,82.27c-.37-1.54-2.79-1.3-5.45-1.19-3.2.14-6.65.42-6,1.43,1.59,1,5.24,1.81,8.17,1.88s3.6-.8,3.6-.8Z" fill="#93644a" fill-rule="evenodd"/><path d="M62.33,82.21c-.37-1.54-2.62-1.08-5.27-1-3.2.14-6.83.2-6.18,1.2,1.59,1,5.24,1.81,8.17,1.88s3.6-.8,3.6-.8Z" fill="#5f3328" fill-rule="evenodd"/><path d="M59.91,80.19c-.37-1.54-2.79-1.3-5.45-1.19-3.2.14-6.65.42-6,1.43,1.59,1,5.24,1.81,8.17,1.88s3.6-.8,3.6-.8Z" fill="#93644a" fill-rule="evenodd"/><path d="M60.54,80.13c-.37-1.54-2.62-1.08-5.27-1-3.2.14-6.83.2-6.18,1.2,1.59,1,5.24,1.81,8.17,1.88s3.6-.8,3.6-.8Z" fill="#5f3328" fill-rule="evenodd"/><path d="M58.49,78.49c-.37-1.54-2.79-1.3-5.45-1.19-3.2.14-6.65.42-6,1.43,1.59,1,5.24,1.81,8.17,1.88s3.6-.8,3.6-.8Z" fill="#93644a" fill-rule="evenodd"/><path d="M59.12,78.43c-.37-1.54-2.62-1.08-5.27-1-3.2.14-6.83.2-6.18,1.2,1.59,1,5.24,1.81,8.17,1.88s3.6-.8,3.6-.8Z" fill="#5f3328" fill-rule="evenodd"/><path d="M56.26,76.89c-.37-1.54-2.79-1.3-5.45-1.19-3.2.14-6.65.42-6,1.43,1.59,1,5.24,1.81,8.17,1.88s3.6-.8,3.6-.8Z" fill="#93644a" fill-rule="evenodd"/><path d="M56.89,76.83c-.37-1.54-2.62-1.08-5.27-1-3.2.14-6.83.2-6.18,1.2,1.59,1,5.24,1.81,8.17,1.88s3.6-.8,3.6-.8Z" fill="#5f3328" fill-rule="evenodd"/><path d="M54.6,75.06c-.37-1.54-2.79-1.3-5.45-1.19-3.2.14-6.65.42-6,1.43,1.59,1,5.24,1.81,8.17,1.88s3.6-.8,3.6-.8Z" fill="#93644a" fill-rule="evenodd"/><path d="M55.23,75c-.37-1.54-2.62-1.08-5.27-1-3.2.14-6.83.2-6.18,1.2,1.59,1,5.24,1.81,8.17,1.88s3.6-.8,3.6-.8Z" fill="#5f3328" fill-rule="evenodd"/><path d="M53.66,73.48c-.37-1.54-2.79-1.3-5.45-1.19-3.2.14-6.65.42-6,1.43,1.59,1,5.24,1.81,8.17,1.88s3.6-.8,3.6-.8Z" fill="#93644a" fill-rule="evenodd"/><path d="M54.29,73.42c-.37-1.54-2.62-1.08-5.27-1-3.2.14-6.83.2-6.18,1.2,1.59,1,5.24,1.81,8.17,1.88s3.6-.8,3.6-.8Z" fill="#5f3328" fill-rule="evenodd"/><path d="M52.49,72c-.37-1.54-2.79-1.3-5.45-1.19-3.2.14-6.65.42-6,1.43,1.59,1,5.24,1.81,8.17,1.88s3.6-.8,3.6-.8Z" fill="#93644a" fill-rule="evenodd"/><path d="M53.12,71.94c-.37-1.54-2.62-1.08-5.27-1-3.2.14-6.83.2-6.18,1.2,1.59,1,5.24,1.81,8.17,1.88s3.6-.8,3.6-.8Z" fill="#5f3328" fill-rule="evenodd"/><path d="M53.1,70.52c-.37-1.54-2.79-1.3-5.45-1.19-3.2.14-6.65.42-6,1.43,1.59,1,5.24,1.81,8.17,1.88s3.6-.8,3.6-.8Z" fill="#93644a" fill-rule="evenodd"/><path d="M53.73,70.46c-.37-1.54-2.62-1.08-5.27-1-3.2.14-6.83.2-6.18,1.2,1.59,1,5.24,1.81,8.17,1.88s3.6-.8,3.6-.8Z" fill="#5f3328" fill-rule="evenodd"/><path d="M51.17,67.58c-.4-1.49-2.41-.93-4.62-.47-2.67.56-5.54,1.29-4.93,2.21,1.39.82,4.49,1.11,6.94.8s3-1.26,3-1.26Z" fill="#93644a" fill-rule="evenodd"/><path d="M51.69,67.43c-.4-1.49-2.25-.73-4.46-.27-2.67.56-5.7,1.09-5.09,2,1.39.82,4.49,1.11,6.94.8s3-1.26,3-1.26Z" fill="#5f3328" fill-rule="evenodd"/><path d="M50.23,66c-.34-1.51-2.37-1.08-4.6-.76-2.69.39-5.58.94-5,1.89,1.36.91,4.43,1.4,6.9,1.24s3-1.07,3-1.07Z" fill="#93644a" fill-rule="evenodd"/><path d="M50.76,65.91c-.34-1.51-2.22-.87-4.45-.55-2.69.39-5.74.73-5.17,1.68,1.36.91,4.43,1.4,6.9,1.24s3-1.07,3-1.07Z" fill="#5f3328" fill-rule="evenodd"/><path d="M51.38,63.65c-.44-1.47-2.44-.84-4.63-.29-2.65.66-5.5,1.5-4.87,2.39,1.41.77,4.51.94,7,.53s2.93-1.38,2.93-1.38Z" fill="#93644a" fill-rule="evenodd"/><path d="M51.9,63.49c-.44-1.47-2.27-.64-4.47-.09-2.65.66-5.67,1.31-5,2.2,1.41.77,4.51.94,7,.53s2.93-1.38,2.93-1.38Z" fill="#5f3328" fill-rule="evenodd"/><path d="M72,91c-.38-2-2.42-1-4.66-.07-2.71,1.1-5.62,2.47-5,3.66,1.39,1,4.51,1,7,.24s3-2.11,3-2.11Z" fill="#93644a" fill-rule="evenodd"/><path d="M72.56,90.76c-.38-2-2.26-.73-4.5.19-2.71,1.1-5.78,2.22-5.19,3.4,1.39,1,4.51,1,7,.24s3-2.11,3-2.11Z" fill="#5f3328" fill-rule="evenodd"/><path d="M73.09,88.19c-.38-2-2.42-1-4.66-.07-2.71,1.1-5.62,2.47-5,3.66,1.39,1,4.51,1,7,.24s3-2.11,3-2.11Z" fill="#93644a" fill-rule="evenodd"/><path d="M73.62,87.93c-.38-2-2.26-.73-4.5.19-2.71,1.1-5.78,2.22-5.19,3.4,1.39,1,4.51,1,7,.24s3-2.11,3-2.11Z" fill="#5f3328" fill-rule="evenodd"/><path d="M73,86c-.38-2-2.42-1-4.66-.07-2.71,1.1-5.62,2.47-5,3.66,1.39,1,4.51,1,7,.24s3-2.11,3-2.11Z" fill="#93644a" fill-rule="evenodd"/><path d="M73.55,85.72c-.38-2-2.26-.73-4.5.19-2.71,1.1-5.78,2.22-5.19,3.4,1.39,1,4.51,1,7,.24s3-2.11,3-2.11Z" fill="#5f3328" fill-rule="evenodd"/><path d="M72,83.42c-.38-2-2.42-1-4.66-.07-2.71,1.1-5.62,2.47-5,3.66,1.39,1,4.51,1,7,.24s3-2.11,3-2.11Z" fill="#93644a" fill-rule="evenodd"/><path d="M72.52,83.16c-.38-2-2.26-.73-4.5.19-2.71,1.1-5.78,2.22-5.19,3.4,1.39,1,4.51,1,7,.24s3-2.11,3-2.11Z" fill="#5f3328" fill-rule="evenodd"/><path d="M70.51,81c-.38-2-2.42-1-4.66-.07-2.71,1.1-5.62,2.47-5,3.66,1.39,1,4.51,1,7,.24s3-2.11,3-2.11Z" fill="#93644a" fill-rule="evenodd"/><path d="M71,80.69c-.38-2-2.26-.73-4.5.19-2.71,1.1-5.78,2.22-5.19,3.4,1.39,1,4.51,1,7,.24s3-2.11,3-2.11Z" fill="#5f3328" fill-rule="evenodd"/><path d="M68.72,78.72c-.38-2-2.42-1-4.66-.07-2.71,1.1-5.62,2.47-5,3.66,1.39,1,4.51,1,7,.24s3-2.11,3-2.11Z" fill="#93644a" fill-rule="evenodd"/><path d="M69.25,78.46c-.38-2-2.26-.73-4.5.19C62,79.75,59,80.86,59.57,82c1.39,1,4.51,1,7,.24s3-2.11,3-2.11Z" fill="#5f3328" fill-rule="evenodd"/><path d="M66.56,76.36c-.38-2-2.42-1-4.66-.07-2.71,1.1-5.62,2.47-5,3.66,1.39,1,4.51,1,7,.24s3-2.11,3-2.11Z" fill="#93644a" fill-rule="evenodd"/><path d="M67.1,76.1c-.38-2-2.26-.73-4.5.19-2.71,1.1-5.78,2.22-5.19,3.4,1.39,1,4.51,1,7,.24s3-2.11,3-2.11Z" fill="#5f3328" fill-rule="evenodd"/><path d="M64.48,73.78c-.38-2-2.42-1-4.66-.07-2.71,1.1-5.62,2.47-5,3.66,1.39,1,4.51,1,7,.24s3-2.11,3-2.11Z" fill="#93644a" fill-rule="evenodd"/><path d="M65,73.52c-.38-2-2.26-.73-4.5.19-2.71,1.1-5.78,2.22-5.19,3.4,1.39,1,4.51,1,7,.24s3-2.11,3-2.11Z" fill="#5f3328" fill-rule="evenodd"/><path d="M62.06,71.62c-.38-2-2.42-1-4.66-.07-2.71,1.1-5.62,2.47-5,3.66,1.39,1,4.51,1,7,.24s3-2.11,3-2.11Z" fill="#93644a" fill-rule="evenodd"/><path d="M62.59,71.35c-.38-2-2.26-.73-4.5.19-2.71,1.1-5.78,2.22-5.19,3.4,1.39,1,4.51,1,7,.24s3-2.11,3-2.11Z" fill="#5f3328" fill-rule="evenodd"/><path d="M59.63,69.15c-.27-2-2-.9-3.87.08C53.49,70.41,51,71.86,51.51,73c1.13.91,3.72.84,5.8,0a4.21,4.21,0,0,0,2.55-2.2Z" fill="#93644a" fill-rule="evenodd"/><path d="M60.08,68.87c-.27-2-1.86-.65-3.74.33-2.27,1.18-4.85,2.39-4.38,3.55,1.13.91,3.72.84,5.8,0a4.21,4.21,0,0,0,2.55-2.2Z" fill="#5f3328" fill-rule="evenodd"/><path d="M58.91,67.32c-.11-2-1.9-1.15-3.86-.4-2.36.9-4.91,2-4.54,3.26,1.05,1,3.64,1.3,5.77.74A4,4,0,0,0,59,69Z" fill="#93644a" fill-rule="evenodd"/><path d="M59.38,67.1c-.11-2-1.8-.88-3.75-.14-2.36.9-5,1.77-4.65,3,1.05,1,3.64,1.3,5.77.74a4,4,0,0,0,2.72-1.87Z" fill="#5f3328" fill-rule="evenodd"/><path d="M57.93,64.71c-.13-2-2-1.16-4.09-.44-2.49.88-5.18,2-4.78,3.22,1.13,1.06,3.87,1.33,6.12.79A4.07,4.07,0,0,0,58,66.44Z" fill="#93644a" fill-rule="evenodd"/><path d="M58.43,64.5c-.13-2-1.91-.9-4-.17-2.49.88-5.3,1.74-4.89,3,1.13,1.06,3.87,1.33,6.12.79a4.07,4.07,0,0,0,2.86-1.85Z" fill="#5f3328" fill-rule="evenodd"/><path d="M56.61,62.11c-.09-2-2.12-1.27-4.32-.65-2.65.75-5.53,1.73-5.13,3,1.17,1.12,4.06,1.53,6.46,1.11s3.07-1.7,3.07-1.7Z" fill="#93644a" fill-rule="evenodd"/><path d="M57.14,61.92c-.09-2-2-1-4.2-.38-2.65.75-5.65,1.46-5.25,2.7,1.17,1.12,4.06,1.53,6.46,1.11s3.07-1.7,3.07-1.7Z" fill="#5f3328" fill-rule="evenodd"/><path d="M77,89.94c0-2-1.45-1.14-3-.41-1.89.89-4,2-3.72,3.23.78,1,2.8,1.3,4.51.75a3.58,3.58,0,0,0,2.22-1.86Z" fill="#93644a" fill-rule="evenodd"/><path d="M77.33,89.72c0-2-1.37-.88-2.94-.15-1.89.89-4,1.76-3.79,3,.78,1,2.8,1.3,4.51.75a3.58,3.58,0,0,0,2.22-1.86Z" fill="#4d2b21" fill-rule="evenodd"/><path d="M77,86.56c0-2-1.45-1.14-3-.41-1.89.89-4,2-3.72,3.23.78,1,2.8,1.3,4.51.75A3.57,3.57,0,0,0,77,88.27Z" fill="#93644a" fill-rule="evenodd"/><path d="M77.41,86.34c0-2-1.37-.88-2.94-.15-1.89.89-4,1.76-3.79,3,.78,1,2.8,1.3,4.51.75a3.58,3.58,0,0,0,2.22-1.86Z" fill="#4d2b21" fill-rule="evenodd"/><path d="M76.79,83.39c0-2-1.45-1.14-3-.41-1.89.89-4,2-3.72,3.23.78,1,2.8,1.3,4.51.75a3.58,3.58,0,0,0,2.22-1.86Z" fill="#93644a" fill-rule="evenodd"/><path d="M77.17,83.17c0-2-1.37-.88-2.94-.15-1.89.89-4,1.76-3.79,3,.78,1,2.8,1.3,4.51.75a3.58,3.58,0,0,0,2.22-1.86Z" fill="#4d2b21" fill-rule="evenodd"/><path d="M75.88,80.24c0-2-1.45-1.15-3-.41-1.89.89-4,2-3.72,3.23.78,1,2.8,1.3,4.51.75A3.58,3.58,0,0,0,75.88,82Z" fill="#93644a" fill-rule="evenodd"/><path d="M76.26,80c0-2-1.37-.88-2.94-.15-1.89.89-4,1.76-3.79,3,.78,1,2.8,1.3,4.51.75a3.58,3.58,0,0,0,2.22-1.86Z" fill="#4d2b21" fill-rule="evenodd"/><path d="M73.91,78c0-2-1.45-1.14-3-.41-1.89.89-4,2-3.72,3.23.78,1,2.8,1.3,4.51.75a3.58,3.58,0,0,0,2.22-1.86Z" fill="#93644a" fill-rule="evenodd"/><path d="M74.28,77.78c0-2-1.37-.88-2.94-.15-1.89.89-4,1.76-3.79,3,.78,1,2.8,1.3,4.51.75a3.58,3.58,0,0,0,2.22-1.86Z" fill="#4d2b21" fill-rule="evenodd"/><path d="M72,75.28c0-2-1.45-1.15-3-.41-1.89.89-4,2-3.72,3.23.78,1,2.8,1.3,4.51.75A3.58,3.58,0,0,0,72,77Z" fill="#93644a" fill-rule="evenodd"/><path d="M72.36,75.06c0-2-1.37-.88-2.94-.15-1.89.89-4,1.76-3.79,3,.78,1,2.8,1.3,4.51.75a3.58,3.58,0,0,0,2.22-1.86Z" fill="#4d2b21" fill-rule="evenodd"/><path d="M69.65,72.77c0-2-1.45-1.14-3-.41-1.89.89-4,2-3.72,3.23.78,1,2.8,1.3,4.51.75a3.58,3.58,0,0,0,2.22-1.86Z" fill="#93644a" fill-rule="evenodd"/><path d="M70,72.55c0-2-1.37-.88-2.94-.15-1.89.89-4,1.76-3.79,3,.78,1,2.8,1.3,4.51.75A3.58,3.58,0,0,0,70,74.26Z" fill="#4d2b21" fill-rule="evenodd"/><path d="M67.36,70.33c0-2-1.45-1.14-3-.41-1.89.89-4,2-3.72,3.23.78,1,2.8,1.3,4.51.75A3.58,3.58,0,0,0,67.36,72Z" fill="#93644a" fill-rule="evenodd"/><path d="M67.74,70.11c0-2-1.37-.88-2.94-.15-1.89.89-4,1.76-3.79,3,.78,1,2.8,1.3,4.51.75a3.57,3.57,0,0,0,2.22-1.86Z" fill="#4d2b21" fill-rule="evenodd"/><path d="M65.18,67.92c0-2-1.45-1.14-3-.41-1.89.89-4,2-3.72,3.23.78,1,2.8,1.3,4.51.75a3.58,3.58,0,0,0,2.22-1.86Z" fill="#93644a" fill-rule="evenodd"/><path d="M65.56,67.7c0-2-1.37-.88-2.94-.15-1.89.89-4,1.76-3.79,3,.78,1,2.8,1.3,4.51.75a3.58,3.58,0,0,0,2.22-1.86Z" fill="#4d2b21" fill-rule="evenodd"/><path d="M64.1,65.22c0-2-1.45-1.14-3-.41-1.89.89-4,2-3.72,3.23.78,1,2.8,1.3,4.51.75a3.58,3.58,0,0,0,2.22-1.86Z" fill="#93644a" fill-rule="evenodd"/><path d="M64.48,65c0-2-1.37-.88-2.94-.15-1.89.89-4,1.76-3.79,3,.78,1,2.8,1.3,4.51.75a3.58,3.58,0,0,0,2.22-1.86Z" fill="#4d2b21" fill-rule="evenodd"/><path d="M63.34,62.72c0-2-1.45-1.14-3-.41-1.89.89-4,2-3.72,3.23.78,1,2.8,1.3,4.51.75a3.58,3.58,0,0,0,2.22-1.86Z" fill="#93644a" fill-rule="evenodd"/><path d="M63.72,62.5c0-2-1.37-.88-2.94-.15-1.89.89-4,1.76-3.79,3,.78,1,2.8,1.3,4.51.75a3.58,3.58,0,0,0,2.22-1.86Z" fill="#4d2b21" fill-rule="evenodd"/><path d="M61.71,60.27c.13-2-1.37-1.28-3-.69-1.94.71-4.07,1.65-3.91,2.88.72,1.12,2.71,1.56,4.45,1.17A3.42,3.42,0,0,0,61.6,62Z" fill="#93644a" fill-rule="evenodd"/><path d="M62.1,60.09c.13-2-1.32-1-2.93-.42-1.94.71-4.12,1.38-4,2.61.72,1.12,2.71,1.56,4.45,1.17A3.42,3.42,0,0,0,62,61.79Z" fill="#4d2b21" fill-rule="evenodd"/><path d="M80.68,89c.14-2-1.25-1.25-2.73-.64-1.79.74-3.75,1.71-3.62,2.93.65,1.1,2.48,1.51,4.07,1.1a3.32,3.32,0,0,0,2.16-1.68Z" fill="#93644a" fill-rule="evenodd"/><path d="M81,88.85c.14-2-1.2-1-2.68-.38-1.79.74-3.8,1.44-3.66,2.66.65,1.1,2.48,1.51,4.07,1.1a3.32,3.32,0,0,0,2.16-1.68Z" fill="#4d2b21" fill-rule="evenodd"/><path d="M81.3,85.82c.14-2-1.25-1.25-2.73-.64-1.79.74-3.75,1.71-3.62,2.93.65,1.1,2.48,1.51,4.07,1.1a3.32,3.32,0,0,0,2.16-1.68Z" fill="#93644a" fill-rule="evenodd"/><path d="M81.66,85.63c.14-2-1.2-1-2.68-.38-1.79.74-3.8,1.44-3.66,2.66C76,89,77.79,89.43,79.38,89a3.32,3.32,0,0,0,2.15-1.68Z" fill="#4d2b21" fill-rule="evenodd"/><path d="M80.47,82.89c.14-2-1.25-1.25-2.73-.64C75.95,83,74,84,74.12,85.18c.65,1.1,2.48,1.51,4.07,1.1a3.32,3.32,0,0,0,2.15-1.68Z" fill="#93644a" fill-rule="evenodd"/><path d="M80.83,82.7c.14-2-1.2-1-2.68-.38-1.79.74-3.8,1.44-3.66,2.66.65,1.1,2.48,1.51,4.07,1.1a3.32,3.32,0,0,0,2.15-1.68Z" fill="#4d2b21" fill-rule="evenodd"/><path d="M80.26,79.52c.14-2-1.25-1.25-2.73-.64-1.79.74-3.75,1.71-3.62,2.93.65,1.1,2.48,1.51,4.07,1.1a3.32,3.32,0,0,0,2.15-1.68Z" fill="#93644a" fill-rule="evenodd"/><path d="M80.62,79.33c.14-2-1.2-1-2.68-.38-1.79.74-3.8,1.44-3.66,2.66.65,1.1,2.48,1.51,4.07,1.1A3.32,3.32,0,0,0,80.5,81Z" fill="#4d2b21" fill-rule="evenodd"/><path d="M78.71,76.31c0-2-1.34-1.09-2.77-.29-1.72,1-3.59,2.17-3.35,3.38.73,1,2.59,1.19,4.14.57a3.53,3.53,0,0,0,2-1.94Z" fill="#93644a" fill-rule="evenodd"/><path d="M79.06,76.08c0-2-1.27-.83-2.7,0-1.72,1-3.66,1.91-3.42,3.11.73,1,2.59,1.19,4.14.57a3.53,3.53,0,0,0,2-1.94Z" fill="#4d2b21" fill-rule="evenodd"/><path d="M76.86,74.12c0-2-1.34-1.1-2.77-.32-1.73.94-3.6,2.14-3.37,3.34.73,1,2.58,1.21,4.14.61a3.52,3.52,0,0,0,2-1.92Z" fill="#93644a" fill-rule="evenodd"/><path d="M77.2,73.89c0-2-1.27-.84-2.7-.06-1.73.94-3.67,1.88-3.44,3.08.73,1,2.58,1.21,4.14.61a3.52,3.52,0,0,0,2-1.92Z" fill="#4d2b21" fill-rule="evenodd"/><path d="M74.54,71.89c0-2-1.34-1.1-2.77-.32-1.73.94-3.6,2.14-3.37,3.34.73,1,2.58,1.21,4.14.61a3.52,3.52,0,0,0,2-1.92Z" fill="#93644a" fill-rule="evenodd"/><path d="M74.88,71.66c0-2-1.27-.84-2.7-.06-1.73.94-3.67,1.88-3.44,3.08.73,1,2.58,1.21,4.14.61a3.52,3.52,0,0,0,2-1.92Z" fill="#4d2b21" fill-rule="evenodd"/><path d="M72,69.76c0-2-1.34-1.1-2.77-.32-1.73.94-3.6,2.14-3.37,3.34.73,1,2.58,1.21,4.14.61a3.52,3.52,0,0,0,2-1.92Z" fill="#93644a" fill-rule="evenodd"/><path d="M72.39,69.53c0-2-1.27-.84-2.7-.06-1.73.94-3.67,1.88-3.44,3.08.73,1,2.58,1.21,4.14.61a3.52,3.52,0,0,0,2-1.92Z" fill="#4d2b21" fill-rule="evenodd"/><path d="M69.57,67.5c0-2-1.34-1.1-2.77-.32-1.73.94-3.6,2.14-3.37,3.34.73,1,2.58,1.21,4.14.61a3.52,3.52,0,0,0,2-1.92Z" fill="#93644a" fill-rule="evenodd"/><path d="M69.91,67.27c0-2-1.27-.84-2.7-.06-1.73.94-3.67,1.88-3.44,3.08.73,1,2.58,1.21,4.14.61a3.52,3.52,0,0,0,2-1.92Z" fill="#4d2b21" fill-rule="evenodd"/><path d="M68.47,64.94c0-2-1.34-1.1-2.77-.32-1.73.94-3.6,2.14-3.37,3.34.73,1,2.58,1.21,4.14.61a3.52,3.52,0,0,0,2-1.92Z" fill="#93644a" fill-rule="evenodd"/><path d="M68.81,64.71c0-2-1.27-.84-2.7-.06-1.73.94-3.67,1.88-3.44,3.08.73,1,2.58,1.21,4.14.61a3.52,3.52,0,0,0,2-1.92Z" fill="#4d2b21" fill-rule="evenodd"/><path d="M67.45,63.28c.14-2-1.24-1.26-2.73-.65-1.79.73-3.76,1.69-3.62,2.92.64,1.11,2.47,1.52,4.07,1.11A3.32,3.32,0,0,0,67.33,65Z" fill="#93644a" fill-rule="evenodd"/><path d="M67.81,63.09c.14-2-1.2-1-2.68-.39-1.79.73-3.8,1.42-3.67,2.65.64,1.11,2.47,1.52,4.07,1.11a3.32,3.32,0,0,0,2.16-1.67Z" fill="#4d2b21" fill-rule="evenodd"/><path d="M67.11,61.11c.17-2-1.23-1.28-2.72-.7-1.8.7-3.77,1.63-3.66,2.86.63,1.12,2.46,1.56,4.06,1.18A3.29,3.29,0,0,0,67,62.81Z" fill="#93644a" fill-rule="evenodd"/><path d="M67.47,60.93c.17-2-1.19-1-2.68-.43-1.8.7-3.82,1.36-3.7,2.59.63,1.12,2.46,1.56,4.06,1.18a3.29,3.29,0,0,0,2.18-1.63Z" fill="#4d2b21" fill-rule="evenodd"/><path d="M66.61,58.92c.28-2-1.15-1.39-2.67-.94-1.84.53-3.86,1.28-3.81,2.52.56,1.17,2.36,1.78,4,1.55a3.15,3.15,0,0,0,2.27-1.43Z" fill="#93644a" fill-rule="evenodd"/><path d="M67,58.77c.28-2-1.12-1.11-2.64-.67-1.84.53-3.89,1-3.84,2.25.56,1.17,2.36,1.78,4,1.55a3.15,3.15,0,0,0,2.27-1.43Z" fill="#4d2b21" fill-rule="evenodd"/><path d="M84.47,86.62c-.23-2-1.44-.87-2.78.13-1.61,1.22-3.34,2.71-3,3.86.83.89,2.69.78,4.17-.07a3.8,3.8,0,0,0,1.79-2.23Z" fill="#93644a" fill-rule="evenodd"/><path d="M84.79,86.34c-.23-2-1.35-.63-2.68.38-1.61,1.22-3.44,2.46-3.08,3.62.83.89,2.69.78,4.17-.07A3.8,3.8,0,0,0,85,88Z" fill="#5b3c35" fill-rule="evenodd"/><path d="M84.47,83.22c-.23-2-1.44-.87-2.78.13-1.61,1.22-3.34,2.71-3,3.86.83.89,2.69.78,4.17-.07a3.8,3.8,0,0,0,1.79-2.23Z" fill="#93644a" fill-rule="evenodd"/><path d="M84.78,82.94c-.23-2-1.35-.63-2.68.38-1.61,1.22-3.44,2.46-3.08,3.62.83.89,2.69.78,4.17-.07A3.8,3.8,0,0,0,85,84.64Z" fill="#5b3c35" fill-rule="evenodd"/><path d="M83.78,80c-.23-2-1.44-.87-2.78.13-1.61,1.22-3.34,2.71-3,3.86.83.89,2.69.78,4.17-.07A3.8,3.8,0,0,0,84,81.65Z" fill="#93644a" fill-rule="evenodd"/><path d="M84.1,79.67c-.23-2-1.35-.63-2.68.38-1.61,1.22-3.44,2.46-3.08,3.62.83.89,2.69.78,4.17-.07a3.8,3.8,0,0,0,1.79-2.23Z" fill="#5b3c35" fill-rule="evenodd"/><path d="M83,76.52c-.23-2-1.44-.87-2.78.13-1.61,1.22-3.34,2.71-3,3.86.83.89,2.69.78,4.17-.07a3.8,3.8,0,0,0,1.79-2.23Z" fill="#93644a" fill-rule="evenodd"/><path d="M83.3,76.23c-.23-2-1.35-.63-2.68.38-1.61,1.22-3.44,2.46-3.08,3.62.83.89,2.69.78,4.17-.07a3.8,3.8,0,0,0,1.79-2.23Z" fill="#5b3c35" fill-rule="evenodd"/><path d="M81.21,74c-.23-2-1.44-.87-2.78.13-1.61,1.22-3.34,2.71-3,3.86.83.89,2.69.78,4.17-.07a3.8,3.8,0,0,0,1.79-2.23Z" fill="#93644a" fill-rule="evenodd"/><path d="M81.53,73.69c-.23-2-1.35-.63-2.68.38-1.61,1.22-3.44,2.46-3.08,3.62.83.89,2.69.78,4.17-.07a3.8,3.8,0,0,0,1.79-2.23Z" fill="#5b3c35" fill-rule="evenodd"/><path d="M79.72,71.18c-.23-2-1.44-.87-2.78.13-1.61,1.22-3.34,2.71-3,3.86.83.89,2.69.78,4.17-.07a3.8,3.8,0,0,0,1.79-2.23Z" fill="#93644a" fill-rule="evenodd"/><path d="M80,70.89c-.23-2-1.35-.63-2.68.38-1.61,1.22-3.44,2.46-3.08,3.62.83.89,2.69.78,4.17-.07a3.8,3.8,0,0,0,1.79-2.23Z" fill="#5b3c35" fill-rule="evenodd"/><path d="M76.78,69.25c-.23-2-1.44-.87-2.78.13-1.61,1.22-3.34,2.71-3,3.86.83.89,2.69.78,4.17-.07A3.8,3.8,0,0,0,77,70.94Z" fill="#93644a" fill-rule="evenodd"/><path d="M77.1,69c-.23-2-1.35-.63-2.68.38C72.81,70.56,71,71.8,71.33,73c.83.89,2.69.78,4.17-.07a3.8,3.8,0,0,0,1.79-2.23Z" fill="#5b3c35" fill-rule="evenodd"/><path d="M75.36,66.56c-.23-2-1.44-.87-2.78.13-1.61,1.22-3.34,2.71-3,3.86.83.89,2.69.78,4.17-.07a3.8,3.8,0,0,0,1.79-2.23Z" fill="#93644a" fill-rule="evenodd"/><path d="M75.67,66.28c-.23-2-1.35-.63-2.68.38-1.61,1.22-3.44,2.46-3.08,3.62.83.89,2.69.78,4.17-.07A3.8,3.8,0,0,0,75.87,68Z" fill="#5b3c35" fill-rule="evenodd"/><path d="M72.85,65.23c-.23-2-1.44-.87-2.78.13-1.61,1.22-3.34,2.71-3,3.86.83.89,2.69.78,4.17-.07a3.8,3.8,0,0,0,1.79-2.23Z" fill="#93644a" fill-rule="evenodd"/><path d="M73.6,65.06c.31-2.12-1.78-.75-3.11.26-1.61,1.22-3.44,2.46-3.08,3.62.83.89,2.69.78,4.17-.07a3.8,3.8,0,0,0,1.79-2.23Z" fill="#5b3c35" fill-rule="evenodd"/><path d="M72.4,63.56c.1-2-1.27-1.22-2.74-.57-1.78.79-3.72,1.81-3.56,3,.67,1.08,2.5,1.44,4.09,1a3.37,3.37,0,0,0,2.12-1.74Z" fill="#93644a" fill-rule="evenodd"/><path d="M73.16,63.57c.66-2-1.63-1.16-3.1-.51-1.78.79-3.77,1.54-3.61,2.76.67,1.08,2.5,1.44,4.09,1a3.37,3.37,0,0,0,2.12-1.74Z" fill="#5b3c35" fill-rule="evenodd"/><path d="M71.56,61.32c.34-2-1.11-1.44-2.65-1.06-1.85.46-3.89,1.12-3.88,2.36.53,1.19,2.31,1.88,3.93,1.71A3.09,3.09,0,0,0,71.27,63Z" fill="#93644a" fill-rule="evenodd"/><path d="M72.63,61.84c1.42-1.49-1.79-1.81-3.32-1.43-1.85.46-3.91.84-3.9,2.08.53,1.19,2.31,1.88,3.93,1.71a3.09,3.09,0,0,0,2.31-1.33Z" fill="#5b3c35" fill-rule="evenodd"/><path d="M72.66,59c.69-1.83-1.09-1.7-2.95-1.72-2.24,0-4.74.09-4.92,1.31.44,1.31,2.42,2.44,4.36,2.7a3.55,3.55,0,0,0,2.91-.71Z" fill="#93644a" fill-rule="evenodd"/><path d="M73.12,58.94c.69-1.83-1.1-1.42-3-1.45-2.24,0-4.72-.18-4.9,1,.44,1.31,2.42,2.44,4.36,2.7a3.55,3.55,0,0,0,2.91-.71Z" fill="#5b3c35" fill-rule="evenodd"/><path d="M86.89,84.8c-.49-1.61-1.34-.4-2.31.74-1.17,1.39-2.4,3-1.93,3.92.83.56,2.37,0,3.48-1a3.65,3.65,0,0,0,1.17-2.28Z" fill="#93644a" fill-rule="evenodd"/><path d="M87.12,84.49c-.49-1.61-1.22-.22-2.19.93-1.17,1.39-2.52,2.84-2,3.73.83.56,2.37,0,3.48-1a3.66,3.66,0,0,0,1.17-2.28Z" fill="#5b3c35" fill-rule="evenodd"/><path d="M86.77,81.71c-.49-1.61-1.34-.4-2.31.74-1.17,1.39-2.4,3-1.93,3.92.83.56,2.37,0,3.48-1a3.66,3.66,0,0,0,1.17-2.28Z" fill="#93644a" fill-rule="evenodd"/><path d="M87,81.4c-.49-1.61-1.22-.22-2.19.93-1.17,1.39-2.52,2.84-2,3.73.83.56,2.37,0,3.48-1a3.66,3.66,0,0,0,1.17-2.28Z" fill="#5b3c35" fill-rule="evenodd"/><path d="M86,78.71c-.49-1.61-1.34-.4-2.31.74-1.17,1.39-2.4,3-1.93,3.92.83.56,2.37,0,3.48-1a3.65,3.65,0,0,0,1.17-2.28Z" fill="#93644a" fill-rule="evenodd"/><path d="M86.23,78.4c-.49-1.61-1.22-.22-2.19.93-1.17,1.39-2.52,2.84-2,3.73.83.56,2.37,0,3.48-1a3.66,3.66,0,0,0,1.17-2.28Z" fill="#5b3c35" fill-rule="evenodd"/><path d="M85.25,75.42c-.49-1.61-1.34-.4-2.31.74-1.17,1.39-2.4,3-1.93,3.92.83.56,2.37,0,3.48-1a3.65,3.65,0,0,0,1.17-2.28Z" fill="#93644a" fill-rule="evenodd"/><path d="M85.47,75.11c-.49-1.61-1.22-.22-2.19.93-1.17,1.39-2.52,2.84-2,3.73.83.56,2.37,0,3.48-1a3.66,3.66,0,0,0,1.17-2.28Z" fill="#5b3c35" fill-rule="evenodd"/><path d="M84,73.05c-.49-1.61-1.34-.4-2.31.74-1.17,1.39-2.4,3-1.93,3.92.83.56,2.37,0,3.48-1a3.66,3.66,0,0,0,1.17-2.28Z" fill="#93644a" fill-rule="evenodd"/><path d="M84.27,72.74c-.49-1.61-1.22-.22-2.19.93-1.17,1.39-2.52,2.84-2,3.73.83.56,2.37,0,3.48-1a3.66,3.66,0,0,0,1.17-2.28Z" fill="#6a4e4b" fill-rule="evenodd"/><path d="M82.91,70.57c-.49-1.61-1.34-.4-2.31.74-1.17,1.39-2.4,3-1.93,3.92.83.56,2.37,0,3.48-1a3.66,3.66,0,0,0,1.17-2.28Z" fill="#93644a" fill-rule="evenodd"/><path d="M83.13,70.26c-.49-1.61-1.22-.22-2.19.93-1.17,1.39-2.52,2.84-2,3.73.83.56,2.37,0,3.48-1a3.66,3.66,0,0,0,1.17-2.28Z" fill="#6a4e4b" fill-rule="evenodd"/><path d="M81,69.74c-.36-1.18-1-.3-1.7.55-.86,1-1.76,2.23-1.42,2.88.61.41,1.74,0,2.56-.74a2.69,2.69,0,0,0,.86-1.68Z" fill="#93644a" fill-rule="evenodd"/><path d="M81.21,69.51c-.36-1.18-.9-.16-1.61.68-.86,1-1.85,2.09-1.5,2.74.61.41,1.74,0,2.56-.74a2.69,2.69,0,0,0,.86-1.68Z" fill="#6a4e4b" fill-rule="evenodd"/><path d="M79.77,69c-.18-1.24-.93-.51-1.75.16C77,70,76,71,76.2,71.72c.54.54,1.71.42,2.63-.15a2.45,2.45,0,0,0,1.09-1.46Z" fill="#93644a" fill-rule="evenodd"/><path d="M80,68.86c-.18-1.24-.86-.36-1.69.31-1,.81-2.13,1.64-1.88,2.36.54.54,1.71.42,2.63-.15a2.45,2.45,0,0,0,1.09-1.46Z" fill="#6a4e4b" fill-rule="evenodd"/><path d="M78.94,67.7c0-1.26-.85-.68-1.75-.17-1.08.62-2.26,1.39-2.1,2.15a2.31,2.31,0,0,0,2.62.34A2.24,2.24,0,0,0,79,68.78Z" fill="#93644a" fill-rule="evenodd"/><path d="M79.16,67.55c0-1.26-.81-.51-1.7,0-1.08.62-2.3,1.23-2.15,2a2.31,2.31,0,0,0,2.62.34,2.24,2.24,0,0,0,1.26-1.24Z" fill="#6a4e4b" fill-rule="evenodd"/><path d="M78,66.71c.17-1.24-.73-.87-1.69-.57-1.16.35-2.43.84-2.39,1.62a2.44,2.44,0,0,0,2.52.94,2,2,0,0,0,1.42-.92Z" fill="#93644a" fill-rule="evenodd"/><path d="M78.25,66.61c.17-1.24-.71-.69-1.67-.4-1.16.35-2.45.67-2.41,1.45a2.44,2.44,0,0,0,2.52.94,2,2,0,0,0,1.42-.92Z" fill="#6a4e4b" fill-rule="evenodd"/><path d="M77.2,65.21c.17-1.24-.73-.87-1.69-.57-1.16.35-2.43.84-2.39,1.62a2.44,2.44,0,0,0,2.52.94,2,2,0,0,0,1.42-.92Z" fill="#93644a" fill-rule="evenodd"/><path d="M77.43,65.11c.17-1.24-.71-.69-1.67-.4-1.16.35-2.45.67-2.41,1.45a2.44,2.44,0,0,0,2.52.94A4.6,4.6,0,0,0,78,65.72Z" fill="#6a4e4b" fill-rule="evenodd"/><path d="M89,83.18c-.51-1.09-1-.09-1.6.9-.71,1.18-1.39,2.43-1.1,3.23a2.94,2.94,0,0,0,2.53-1.36,2.87,2.87,0,0,0,.62-1.83Z" fill="#93644a" fill-rule="evenodd"/><path d="M89.14,82.92c-.51-1.09-.91,0-1.49,1-.71,1.18-1.39,2.17-1.11,3A2.49,2.49,0,0,0,89,85.69a2.87,2.87,0,0,0,.62-1.83Z" fill="#5b3c35" fill-rule="evenodd"/><path d="M88.72,80.93c-.51-1.09-1-.09-1.6.9-.71,1.18-1.39,2.43-1.1,3.23a2.94,2.94,0,0,0,2.53-1.36,2.87,2.87,0,0,0,.62-1.83Z" fill="#93644a" fill-rule="evenodd"/><path d="M88.85,80.67c-.51-1.09-.91,0-1.49,1-.71,1.19-1.39,2.17-1.11,3a2.49,2.49,0,0,0,2.42-1.26,2.87,2.87,0,0,0,.62-1.83Z" fill="#5b3c35" fill-rule="evenodd"/><path d="M88.14,78.52c-.52-1.09-1-.09-1.6.89-.71,1.18-1.39,2.43-1.1,3.23A2.94,2.94,0,0,0,88,81.29a2.87,2.87,0,0,0,.62-1.83Z" fill="#93644a" fill-rule="evenodd"/><path d="M88.27,78.26c-.51-1.09-.91,0-1.49,1-.71,1.19-1.39,2.17-1.11,3A2.49,2.49,0,0,0,88.1,81a2.87,2.87,0,0,0,.62-1.83Z" fill="#5b3c35" fill-rule="evenodd"/><path d="M87.54,76.19c-.52-1.09-1-.09-1.6.89-.71,1.18-1.39,2.43-1.1,3.23A2.94,2.94,0,0,0,87.37,79,2.87,2.87,0,0,0,88,77.13Z" fill="#93644a" fill-rule="evenodd"/><path d="M87.67,75.93c-.51-1.09-.91,0-1.49,1-.71,1.18-1.39,2.17-1.11,3a2.49,2.49,0,0,0,2.42-1.26,2.88,2.88,0,0,0,.62-1.83Z" fill="#5b3c35" fill-rule="evenodd"/><path d="M86.32,74.65c-.51-1.09-1-.09-1.6.89-.71,1.18-1.39,2.43-1.1,3.23a2.94,2.94,0,0,0,2.53-1.36,2.87,2.87,0,0,0,.62-1.83Z" fill="#93644a" fill-rule="evenodd"/><path d="M86.45,74.39c-.51-1.09-.91,0-1.49,1-.71,1.18-1.39,2.17-1.11,3a2.49,2.49,0,0,0,2.42-1.26,2.87,2.87,0,0,0,.62-1.83Z" fill="#6a4e4b" fill-rule="evenodd"/><path d="M85.48,72.8c-.52-1.09-1-.09-1.6.89-.71,1.18-1.39,2.43-1.1,3.23a2.94,2.94,0,0,0,2.53-1.36,2.87,2.87,0,0,0,.62-1.83Z" fill="#93644a" fill-rule="evenodd"/><path d="M86.35,72.38c-.51-1.09-1.65.2-2.24,1.18-.71,1.19-1.39,2.17-1.11,3a2.49,2.49,0,0,0,2.42-1.26A2.87,2.87,0,0,0,86,73.48Z" fill="#6a4e4b" fill-rule="evenodd"/><path d="M89.85,80.89c-.78-.82-1,.33-1.27,1.49-.35,1.41-.67,2.86-.18,3.5a3.55,3.55,0,0,0,2-2.31,3,3,0,0,0,.1-2Z" fill="#93644a" fill-rule="evenodd"/><path d="M89.9,80.59c-.78-.82-.85.4-1.14,1.56-.35,1.41-.74,2.61-.24,3.3a3,3,0,0,0,2-2.18,3,3,0,0,0,.1-2Z" fill="#5b3c35" fill-rule="evenodd"/><path d="M89.08,77.71c-.78-.82-1,.33-1.27,1.49-.35,1.41-.67,2.86-.18,3.5a3.55,3.55,0,0,0,2-2.31,3,3,0,0,0,.1-2Z" fill="#93644a" fill-rule="evenodd"/><path d="M89.13,77.42c-.78-.82-.85.4-1.14,1.56-.35,1.41-.74,2.61-.24,3.3a3,3,0,0,0,2-2.18,3,3,0,0,0,.1-2Z" fill="#6a4e4b" fill-rule="evenodd"/><path d="M88.35,75.3c-.78-.82-1,.33-1.27,1.49-.35,1.41-.67,2.86-.18,3.5a3.55,3.55,0,0,0,2-2.31,3,3,0,0,0,.1-2Z" fill="#93644a" fill-rule="evenodd"/><path d="M88.59,74.61c-.78-.82-1,.79-1.33,2-.35,1.41-.74,2.61-.24,3.3a3,3,0,0,0,2-2.18,3,3,0,0,0,.1-2Z" fill="#6a4e4b" fill-rule="evenodd"/><path d="M87.4,73.58c-.78-.82-1,.33-1.27,1.49-.35,1.41-.67,2.86-.18,3.5a3.55,3.55,0,0,0,2-2.31,3,3,0,0,0,.1-2Z" fill="#93644a" fill-rule="evenodd"/><path d="M87.45,73.28c-.78-.82-.85.4-1.14,1.56-.35,1.41-.74,2.61-.24,3.3A3,3,0,0,0,88,76a3,3,0,0,0,.1-2Z" fill="#6a4e4b" fill-rule="evenodd"/><path d="M90,78.27c-.9-.6-.9.58-1,1.79-.1,1.47-.17,3,.42,3.47A4,4,0,0,0,91,80.75a3,3,0,0,0-.24-2Z" fill="#93644a" fill-rule="evenodd"/><path d="M90,78c-.9-.6-.76.61-.85,1.83-.1,1.47-.27,2.74.33,3.29A3.37,3.37,0,0,0,91,80.44a3,3,0,0,0-.24-2Z" fill="#6a4e4b" fill-rule="evenodd"/><path d="M89.75,76.25c-1-.42-.82.74-.75,2,.08,1.47.2,3,.84,3.35a4.31,4.31,0,0,0,1.22-3,2.85,2.85,0,0,0-.48-1.89Z" fill="#93644a" fill-rule="evenodd"/><path d="M89.71,75.95c-1-.42-.68.75-.61,2,.08,1.47.07,2.76.73,3.19A3.63,3.63,0,0,0,91,78.2a2.85,2.85,0,0,0-.48-1.89Z" fill="#6a4e4b" fill-rule="evenodd"/><path d="M76.48,64.82c.44-1.14-.51-1.08-1.5-1.13-1.19-.05-2.41-.05-2.78.69a3.22,3.22,0,0,0,2.33,1.81,1.75,1.75,0,0,0,1.57-.4Z" fill="#93644a" fill-rule="evenodd"/><path d="M76.72,64.8c.44-1.14-.53-.91-1.52-1-1.19-.05-2.23-.2-2.64.57a2.74,2.74,0,0,0,2.21,1.76,1.75,1.75,0,0,0,1.57-.4Z" fill="#6a4e4b" fill-rule="evenodd"/><path d="M75.86,63c.44-1.14-.51-1.08-1.5-1.13-1.19-.05-2.41-.05-2.78.69a3.22,3.22,0,0,0,2.33,1.81,1.75,1.75,0,0,0,1.57-.4Z" fill="#93644a" fill-rule="evenodd"/><path d="M76.1,63c.44-1.14-.53-.91-1.52-1-1.19-.05-2.23-.2-2.64.57a2.74,2.74,0,0,0,2.21,1.76,1.75,1.75,0,0,0,1.57-.4Z" fill="#6a4e4b" fill-rule="evenodd"/><path d="M75,61.28c.44-1.14-.51-1.08-1.5-1.13-1.19-.05-2.41-.05-2.78.69A3.22,3.22,0,0,0,73,62.66a1.75,1.75,0,0,0,1.57-.4Z" fill="#93644a" fill-rule="evenodd"/><path d="M75.24,61.27c.44-1.14-.53-.91-1.52-1-1.19-.05-2.23-.2-2.64.57a2.74,2.74,0,0,0,2.21,1.76,5.11,5.11,0,0,0,2.63-.77Z" fill="#6a4e4b" fill-rule="evenodd"/><path d="M74.57,59.67c.44-1.14-.51-1.08-1.5-1.13-1.19-.05-2.41-.05-2.78.69a3.22,3.22,0,0,0,2.33,1.81,1.75,1.75,0,0,0,1.57-.4Z" fill="#93644a" fill-rule="evenodd"/><path d="M74.82,59.66c.44-1.14-.53-.91-1.52-1-1.19-.05-2.23-.2-2.64.57A2.74,2.74,0,0,0,72.87,61a5.35,5.35,0,0,0,2.61-.63Z" fill="#6a4e4b" fill-rule="evenodd"/><path d="M75.06,58.45c.44-1.14-.51-1.08-1.5-1.13-1.19-.05-2.41-.05-2.78.69a3.22,3.22,0,0,0,2.33,1.81,1.75,1.75,0,0,0,1.57-.4Z" fill="#93644a" fill-rule="evenodd"/><path d="M75.3,58.43c.44-1.14-.53-.91-1.52-1-1.19-.05-2.23-.2-2.64.57a2.74,2.74,0,0,0,2.21,1.76,5.37,5.37,0,0,0,2.42-.38Z" fill="#6a4e4b" fill-rule="evenodd"/><path d="M90.44,75.9c-.75.08-.37,2.93-.1,3.47a2.77,2.77,0,0,0,1.08-2.06,1.48,1.48,0,0,0-.32-1.24Z" fill="#93644a" fill-rule="evenodd"/><path d="M90.53,75.48c-.75.08-.37,2.93-.1,3.47a2.77,2.77,0,0,0,1.08-2.06,10,10,0,0,0-.32-2.5c-.24-1.78-2.72-4.13-4.3-5-6.25-3.43-4.78-11.18-8-12L78.19,59l0,3.4,1.07,2.48.86,2.87,2.74,1.71Z" fill="#6a4e4b" fill-rule="evenodd"/><path d="M90.33,74.85c-.73-.23-1.12,2.62-1,3.24.58,0,1.25-.73,1.56-1.51a1.59,1.59,0,0,0,0-1.3Z" fill="#93644a" fill-rule="evenodd"/><path d="M90.53,74.49c-.73-.23-1.12,2.62-1,3.24.58,0,1.25-.73,1.56-1.51a1.59,1.59,0,0,0,0-1.3Z" fill="#6a4e4b" fill-rule="evenodd"/><path d="M89.86,73.38c-.72-.28-1.25,2.53-1.17,3.16.58,0,1.28-.64,1.63-1.39a1.59,1.59,0,0,0,.09-1.29Z" fill="#93644a" fill-rule="evenodd"/><path d="M90.07,73c-.72-.28-1.25,2.53-1.17,3.16.58,0,1.28-.64,1.63-1.39a1.59,1.59,0,0,0,.09-1.3Z" fill="#6a4e4b" fill-rule="evenodd"/><path d="M89.2,72.58c-.7-.36-1.43,2.38-1.4,3a2.11,2.11,0,0,0,1.73-1.2,1.58,1.58,0,0,0,.18-1.28Z" fill="#93644a" fill-rule="evenodd"/><path d="M89.44,72.26c-.7-.36-1.43,2.38-1.4,3a2.11,2.11,0,0,0,1.73-1.2,1.58,1.58,0,0,0,.18-1.28Z" fill="#6a4e4b" fill-rule="evenodd"/><path d="M87.9,72c-.73-.24-1.15,2.6-1.05,3.22.58,0,1.26-.71,1.58-1.48a1.59,1.59,0,0,0,0-1.3Z" fill="#93644a" fill-rule="evenodd"/><path d="M88.1,71.63c-.73-.24-1.15,2.6-1.05,3.22.58,0,1.26-.71,1.58-1.48a1.59,1.59,0,0,0,0-1.3Z" fill="#6a4e4b" fill-rule="evenodd"/><path d="M87,71.26c-.73-.24-1.15,2.6-1.05,3.22.58,0,1.26-.71,1.58-1.48a1.59,1.59,0,0,0,0-1.3Z" fill="#93644a" fill-rule="evenodd"/><path d="M87.24,70.9c-.73-.24-1.15,2.6-1.05,3.22.58,0,1.26-.71,1.58-1.48a1.59,1.59,0,0,0,0-1.3Z" fill="#6a4e4b" fill-rule="evenodd"/><path d="M86,70.16c-.81-.27-1.28,2.88-1.16,3.57.64,0,1.39-.79,1.75-1.64a1.76,1.76,0,0,0,0-1.44Z" fill="#93644a" fill-rule="evenodd"/><path d="M86.2,69.76c-.81-.27-1.28,2.88-1.16,3.57.64,0,1.39-.79,1.75-1.64a1.76,1.76,0,0,0,0-1.44Z" fill="#6a4e4b" fill-rule="evenodd"/><path d="M84.93,69.54c-.81-.27-1.28,2.88-1.16,3.57.64,0,1.39-.79,1.75-1.64a1.76,1.76,0,0,0,0-1.44Z" fill="#93644a" fill-rule="evenodd"/><path d="M85.15,69.14c-.81-.27-1.28,2.88-1.16,3.57.64,0,1.39-.79,1.75-1.64a1.76,1.76,0,0,0,0-1.44Z" fill="#6a4e4b" fill-rule="evenodd"/><path d="M83.95,69.33c-.81-.27-1.28,2.88-1.16,3.57.64,0,1.39-.79,1.75-1.64a1.76,1.76,0,0,0,0-1.44Z" fill="#93644a" fill-rule="evenodd"/><path d="M84.17,68.93c-.81-.27-1.28,2.88-1.16,3.57.64,0,1.39-.79,1.75-1.64a1.76,1.76,0,0,0,0-1.44Z" fill="#6a4e4b" fill-rule="evenodd"/><path d="M82.83,68.87c-.81-.27-1.28,2.88-1.16,3.57.64,0,1.39-.79,1.75-1.64a1.76,1.76,0,0,0,0-1.44Z" fill="#93644a" fill-rule="evenodd"/><path d="M83,68.47c-.81-.27-1.28,2.88-1.16,3.57.64,0,1.39-.79,1.75-1.64a1.76,1.76,0,0,0,0-1.44Z" fill="#6a4e4b" fill-rule="evenodd"/><path d="M81.69,68.27c-.81-.27-1.28,2.88-1.16,3.57.64,0,1.39-.79,1.75-1.64a1.76,1.76,0,0,0,0-1.44Z" fill="#93644a" fill-rule="evenodd"/><path d="M81.91,67.87c-.81-.27-1.28,2.88-1.16,3.57.64,0,1.39-.79,1.75-1.64a1.76,1.76,0,0,0,0-1.44Z" fill="#6a4e4b" fill-rule="evenodd"/><path d="M80.41,67.89c-.81-.27-1.28,2.88-1.16,3.57.64,0,1.39-.79,1.75-1.64a1.76,1.76,0,0,0,0-1.44Z" fill="#93644a" fill-rule="evenodd"/><path d="M80.64,67.49c-.81-.27-1.28,2.88-1.16,3.57.64,0,1.39-.79,1.75-1.64a1.76,1.76,0,0,0,0-1.44Z" fill="#6a4e4b" fill-rule="evenodd"/><path d="M79.95,67c-.75-.46-1.7,2.52-1.7,3.22a2.26,2.26,0,0,0,2-1.19,1.74,1.74,0,0,0,.27-1.4Z" fill="#93644a" fill-rule="evenodd"/><path d="M80.23,66.7c-.75-.46-1.7,2.52-1.7,3.22a2.26,2.26,0,0,0,2-1.19,1.74,1.74,0,0,0,.27-1.4Z" fill="#6a4e4b" fill-rule="evenodd"/><path d="M80.21,66.89c-.46-.86-2.5,1.11-2.79,1.71a2,2,0,0,0,2.19.21,1.42,1.42,0,0,0,.81-1Z" fill="#93644a" fill-rule="evenodd"/><path d="M80.59,66.77c-.46-.86-2.5,1.11-2.79,1.71a2,2,0,0,0,2.19.21,1.42,1.42,0,0,0,.81-1Z" fill="#6a4e4b" fill-rule="evenodd"/><path d="M80.41,66.83c-.1-1-2.64-.39-3.11,0a2.39,2.39,0,0,0,1.89,1.39,1.1,1.1,0,0,0,1.1-.49Z" fill="#93644a" fill-rule="evenodd"/><path d="M80.8,66.94c-.1-1-2.64-.39-3.11,0a2.39,2.39,0,0,0,1.89,1.39,1.1,1.1,0,0,0,1.1-.49Z" fill="#6a4e4b" fill-rule="evenodd"/><path d="M80.66,66.21c.07-1-2.52-1-3-.79a2.7,2.7,0,0,0,1.61,1.84,1,1,0,0,0,1.15-.2Z" fill="#93644a" fill-rule="evenodd"/><path d="M81,66.41c.07-1-2.52-1.05-3-.79a2.7,2.7,0,0,0,1.61,1.84,1,1,0,0,0,1.15-.2Z" fill="#6a4e4b" fill-rule="evenodd"/><path d="M79.68,65c.62-1-.33-1.19-1.28-1.48-1.16-.35-2.35-.65-2.84,0a3.62,3.62,0,0,0,2,2.35,1.68,1.68,0,0,0,1.61,0Z" fill="#93644a" fill-rule="evenodd"/><path d="M79.93,65.05c.61-1-.37-1-1.33-1.31-1.16-.35-2.15-.75-2.68-.1a3.08,3.08,0,0,0,1.88,2.27,1.68,1.68,0,0,0,1.61,0Z" fill="#6a4e4b" fill-rule="evenodd"/><path d="M79.88,62.8c.38-1.17-.57-1-1.55-1-1.19,0-2.41.14-2.74.91A3.1,3.1,0,0,0,78,64.34a1.8,1.8,0,0,0,1.55-.53Z" fill="#93644a" fill-rule="evenodd"/><path d="M80.12,62.77c.38-1.17-.58-.87-1.57-.83-1.19,0-2.24,0-2.61.78a2.65,2.65,0,0,0,2.3,1.58,1.8,1.8,0,0,0,1.55-.53Z" fill="#6a4e4b" fill-rule="evenodd"/><path d="M78.84,61.16c.38-1.17-.57-1-1.55-1-1.19,0-2.41.14-2.74.91A3.1,3.1,0,0,0,77,62.69a1.8,1.8,0,0,0,1.55-.53Z" fill="#93644a" fill-rule="evenodd"/><path d="M79.09,61.12c.38-1.17-.58-.87-1.57-.83-1.19,0-2.24,0-2.61.78a2.65,2.65,0,0,0,2.3,1.58,1.8,1.8,0,0,0,1.55-.53Z" fill="#6a4e4b" fill-rule="evenodd"/><path d="M78.74,59.68c.38-1.17-.57-1-1.55-1-1.19,0-2.41.14-2.74.91a3.1,3.1,0,0,0,2.42,1.62,1.8,1.8,0,0,0,1.55-.53Z" fill="#93644a" fill-rule="evenodd"/><path d="M79,59.65c.38-1.17-.58-.87-1.57-.83-1.19,0-2.24,0-2.61.78a2.65,2.65,0,0,0,2.3,1.58,1.8,1.8,0,0,0,1.55-.53Z" fill="#6a4e4b" fill-rule="evenodd"/><path d="M79.08,58.28c.38-1.17-.57-1-1.55-1-1.19,0-2.41.14-2.74.91a3.1,3.1,0,0,0,2.42,1.62,1.8,1.8,0,0,0,1.55-.53Z" fill="#93644a" fill-rule="evenodd"/><path d="M79.32,58.25c.38-1.17-.58-.87-1.57-.83-1.19,0-2.24,0-2.61.78a2.65,2.65,0,0,0,2.3,1.58A1.8,1.8,0,0,0,79,59.26Z" fill="#6a4e4b" fill-rule="evenodd"/></svg>