<svg xmlns="http://www.w3.org/2000/svg" viewBox="0 0 110 72"><defs><style>.cls-1{isolation:isolate;}.cls-2{fill:#fff;}.cls-3{fill:#00a4c5;}.cls-4{fill:#f90;}.cls-5{mix-blend-mode:multiply;}</style></defs><title>01</title><g class="cls-1"><g id="Layer_1" data-name="Layer 1"><path class="cls-2" d="M56,2.65a34.11,34.11,0,0,1,23.44,9.3A34.22,34.22,0,1,0,31,60.32,34.22,34.22,0,0,1,56,2.65Z"/><path class="cls-3" d="M88.26,35.12A34.1,34.1,0,0,0,79,11.68,34.22,34.22,0,1,1,30.59,60.06,34.22,34.22,0,0,0,88.26,35.12Z"/><circle class="cls-4" cx="55" cy="36" r="36"/><path class="cls-2" d="M55.78,2.72A34.11,34.11,0,0,1,79.22,12,34.22,34.22,0,1,0,30.84,60.39,34.22,34.22,0,0,1,55.78,2.72Z"/><g class="cls-5"><path class="cls-4" d="M88.07,35.19a34.1,34.1,0,0,0-9.3-23.44A34.22,34.22,0,1,1,30.4,60.13,34.22,34.22,0,0,0,88.07,35.19Z"/></g></g></g></svg>