<svg id="Layer_1" data-name="Layer 1" xmlns="http://www.w3.org/2000/svg" xmlns:xlink="http://www.w3.org/1999/xlink" viewBox="0 0 216.62 177.34"><defs><style>.cls-1{fill:#31331c;}.cls-2{fill:#525731;}.cls-3{fill:url(#radial-gradient);}.cls-4{fill:url(#radial-gradient-2);}.cls-5{fill:#871f06;}.cls-6{fill:#af0704;}.cls-7{fill:#fff;}.cls-8{fill:url(#radial-gradient-3);}.cls-9{fill:url(#radial-gradient-4);}.cls-10{fill:url(#radial-gradient-5);}.cls-11{fill:url(#radial-gradient-6);}</style><radialGradient id="radial-gradient" cx="-4959.7" cy="125.7" r="42.24" gradientTransform="translate(4992.42)" gradientUnits="userSpaceOnUse"><stop offset="0" stop-color="#8cb300"/><stop offset="0.32" stop-color="#bd7400"/><stop offset="0.6" stop-color="#e63f00"/><stop offset="1" stop-color="#ad1100"/></radialGradient><radialGradient id="radial-gradient-2" cx="-4961.13" cy="124.96" r="38.1" gradientTransform="translate(4992.42)" gradientUnits="userSpaceOnUse"><stop offset="0" stop-color="#b2d62f"/><stop offset="0.09" stop-color="#c6bd30"/><stop offset="0.22" stop-color="#de9c31"/><stop offset="0.34" stop-color="#f08532"/><stop offset="0.46" stop-color="#fb7733"/><stop offset="0.56" stop-color="#ff7233"/><stop offset="1" stop-color="#e04433"/></radialGradient><radialGradient id="radial-gradient-3" cx="1338.15" cy="59.97" r="42.24" gradientTransform="translate(-1192.08)" xlink:href="#radial-gradient"/><radialGradient id="radial-gradient-4" cx="1336.73" cy="59.23" r="38.1" gradientTransform="translate(-1192.08)" xlink:href="#radial-gradient-2"/><radialGradient id="radial-gradient-5" cx="1333.01" cy="125.7" r="42.24" gradientTransform="translate(-1192.08)" xlink:href="#radial-gradient"/><radialGradient id="radial-gradient-6" cx="1331.58" cy="124.96" r="38.1" gradientTransform="translate(-1192.08)" xlink:href="#radial-gradient-2"/></defs><title>butterfly-mango-one-1</title><path class="cls-1" d="M216.62,10.25c0-.28,0-.55,0-.79v0a8,8,0,0,0-.73-3.88l0-.06c-.11-.24-.21-.47-.34-.7l0,0c-2-3.68-6-5.34-11.41-4.67a58.91,58.91,0,0,0-19.54,6.46c-4.7,2.62-14,8.49-17.42,11-4.29,3.12-35.37,33.65-39.27,38.59a106,106,0,0,0-14.77,26.43,3.51,3.51,0,0,0-.61-.56,8,8,0,0,0,2.46-6,8.66,8.66,0,0,0-1-4.07,1.8,1.8,0,0,0,.53-1.27,1.85,1.85,0,0,0-1.87-1.83,1.87,1.87,0,0,0-1.19.45l-.09,0a38.13,38.13,0,0,0,1.79-3.63c2-4.54,4.09-9,6.18-13.5a55.87,55.87,0,0,0,2.15-6.06c3.41-1.4,5.2-5.54,6.7-8.57,1-2.76,1.39-6.64-2-2.67-3.3,3.36-4.55,8-5.89,12.42s-3.58,8.61-5.46,12.87c-1.37,3-2.54,6-3.84,9a4.71,4.71,0,0,0-1.81-.4,4.65,4.65,0,0,0-.78.07,4.65,4.65,0,0,0-.78-.07,4.71,4.71,0,0,0-1.81.4c-1.29-3-2.47-6-3.84-9C100,55.9,97.68,51.81,96.42,47.3s-2.59-9.06-5.89-12.42c-3.41-4-3.06-.1-2,2.67,1.49,3,3.29,7.17,6.7,8.57a55.9,55.9,0,0,0,2.15,6.06c2.09,4.48,4.21,9,6.18,13.5a38.13,38.13,0,0,0,1.79,3.63l-.09,0a1.87,1.87,0,0,0-1.19-.45,1.85,1.85,0,0,0-1.87,1.83A1.8,1.8,0,0,0,102.7,72a8.66,8.66,0,0,0-1,4.07,8,8,0,0,0,2.46,6,3.5,3.5,0,0,0-.61.56A106,106,0,0,0,88.79,56.15c-3.9-4.93-35-35.47-39.27-38.59-3.39-2.46-12.72-8.33-17.42-11A58.91,58.91,0,0,0,12.55.15c-5.39-.67-9.36,1-11.41,4.67l0,0C1,5,.87,5.25.77,5.48l0,.06A8,8,0,0,0,0,9.42v0c0,.24,0,.51,0,.79,0,0,0,.06,0,.09H0c0,.18,0,.34,0,.54A22.51,22.51,0,0,0,1.1,18l.08.25q.17.53.38,1.1l.1.28h0c.6,1.65,1.41,3.57,2.48,6l.45,1C5.15,27.9,5.65,29,6.11,30.09h0c.35.81.68,1.58,1,2.32h0l.26.64h0l.07.18c.76,1.87,1.41,3.62,2,5.48h0c.27.79.54,1.62.82,2.5h0l.18.57h0L10.89,43h0l.41,1.33.07.21c.27.9.54,1.84.81,2.81l.19.72c.37,1.38.74,2.83,1.1,4.34h0c.44,1.85.88,3.79,1.3,5.84.28,1.36.56,2.77.83,4.21h0l.05.26q.53,2.81,1,5.83c.08.51.17,1,.26,1.52q.34,2.1.67,4.29l.06.36h0c0,.15,0,.3.07.44h0a17,17,0,0,0,1.94,6A19.64,19.64,0,0,0,22.12,85l.16.19q.3.35.63.68l.29.3q.36.34.74.67l.16.14h0c2.32,1.91,5.37,3.26,9.73,4.49,4.15,1.16,4.46,1.2,11.44,1.37,6.28.15,7.28.11,7.95-.37s3.28-.76,3.28-.28a36.92,36.92,0,0,1-5,2.74,80.75,80.75,0,0,0-9.7,5.74c-5.18,3.61-6.53,4.37-10.08,5.64l-1.53.57L30,107l-.6.25-.24.1-.44.21-.26.14-.32.18-.3.19-.2.14q-.23.17-.45.36h0a11.46,11.46,0,0,0-1,1c-.11.12-.21.28-.32.42s-.42.51-.61.8-.26.41-.38.62-.34.56-.5.87-.21.42-.31.64-.32.7-.47,1.07c-.08.2-.16.39-.23.6-.16.43-.3.87-.43,1.31,0,.12-.08.23-.11.34h0a21.84,21.84,0,0,0-.75,4.52h0c0,.36,0,.71,0,1.06s0,1,.06,1.48c0,.12,0,.24,0,.37q.06.74.16,1.55v.1a44.64,44.64,0,0,0,1.53,7.27l0,.07a49.79,49.79,0,0,0,2.09,5l0,.07.41.85.09.18.26.53h0l.12.25a60.78,60.78,0,0,1,2.68,5.81h0c.14.36.26.7.37,1l0,.1c.1.31.19.62.27.91l0,.19c.07.27.13.54.18.8,0,.08,0,.15,0,.23a9.91,9.91,0,0,1,.12,1.1c0,.17,0,.35,0,.52s0,.25,0,.37,0,.39,0,.58,0,.23-.06.35-.07.4-.12.59-.06.22-.09.33c-.56,1.9-1.81,3.81-3.78,6.32-4.73,6-10.41,14.73-10.41,16,0,2.05,2.2.8,7.78-4.42C27.32,167,29,165.62,30.49,165a5.35,5.35,0,0,1,.59-.19l.16,0a9.92,9.92,0,0,1,2.29-.2,10.45,10.45,0,0,1,2.46.21H36a5,5,0,0,1,.59.19l.11,0a5.35,5.35,0,0,1,.55.27l.12.07c.19.11.37.23.57.37l.1.08c.21.16.43.32.66.52h0c.25.21.52.45.81.71h0l.74.69a19.48,19.48,0,0,0,1.57,1.34h0l.16.11q.56.42,1.14.79l.39.25q.62.37,1.28.7l.2.11a19.9,19.9,0,0,1,2,1.16,18.75,18.75,0,0,1,2.4,1.78c3.7,3.38,4.92,3.91,6.61,2.86,1.08-.67,2.66-2.87,4-5.65a10.21,10.21,0,0,1,1.93-2.75,7.92,7.92,0,0,1,1-.87l.07,0a8.9,8.9,0,0,1,1.13-.65l.32-.15a12.16,12.16,0,0,1,1.16-.45l.29-.1c.53-.16,1.09-.31,1.7-.44l.49-.12.62-.16.5-.15.65-.22.38-.15q.42-.17.8-.37l.14-.07a9.5,9.5,0,0,0,.9-.54h0a6.93,6.93,0,0,0,1.62-1.5,44.45,44.45,0,0,0,4-8.32,51.2,51.2,0,0,0,1.2-6c1.11-7.32,2.16-10.31,5.63-16,.73-1.2,2.7-4.82,4.36-8a77.59,77.59,0,0,1,8.53-13.65,41.35,41.35,0,0,0,3.81-6.21,9.88,9.88,0,0,0,.43,1.06l.38.82-.48.49a4.48,4.48,0,0,0-1.17,2.23A11.72,11.72,0,0,0,100,113a5.31,5.31,0,0,0,.25,2.34,1.49,1.49,0,0,0,.34.6c.16,0,.1.29-.14.71a2.09,2.09,0,0,0-.24,1.29,3.46,3.46,0,0,0,1.1,2.63l.54.64-.28.37a5.11,5.11,0,0,0,.28,6l.31.26-.37.48c-.83,1.09-.69,2,.48,3,.48.41.48.21,0,1.75a3,3,0,0,0-.1,1.21,4,4,0,0,0,.77,2,1.94,1.94,0,0,1,.23,2.06,3.12,3.12,0,0,0-.18,2.09c.76,1.95,1.09,3.24,3.11,3.72l1.4-.14.73-.23.73.23,1.4.14c2-.48,2.35-1.77,3.11-3.72a3.12,3.12,0,0,0-.18-2.09,1.94,1.94,0,0,1,.23-2.06,4,4,0,0,0,.77-2,3,3,0,0,0-.1-1.21c-.44-1.54-.44-1.34,0-1.75,1.17-1,1.31-1.95.48-3l-.37-.48.31-.26a5.11,5.11,0,0,0,.28-6l-.28-.37.54-.64a3.46,3.46,0,0,0,1.1-2.63,2.09,2.09,0,0,0-.24-1.29c-.25-.42-.31-.71-.14-.71a1.49,1.49,0,0,0,.34-.6,5.31,5.31,0,0,0,.25-2.34,11.72,11.72,0,0,0-.54-4.1,4.48,4.48,0,0,0-1.17-2.23l-.48-.49.38-.82a9.88,9.88,0,0,0,.43-1.06,41.35,41.35,0,0,0,3.81,6.21,77.6,77.6,0,0,1,8.53,13.65c1.67,3.22,3.63,6.84,4.36,8,3.47,5.67,4.52,8.66,5.63,16a51.2,51.2,0,0,0,1.2,6,44.45,44.45,0,0,0,4,8.32,6.91,6.91,0,0,0,1.62,1.49h0a9.51,9.51,0,0,0,.9.54l.14.07q.39.2.81.37l.38.15.65.22.5.15.62.16.49.12c.61.13,1.17.27,1.7.44l.29.1a12.1,12.1,0,0,1,1.16.45l.32.15a8.9,8.9,0,0,1,1.13.65l.07,0a7.94,7.94,0,0,1,1,.87,10.21,10.21,0,0,1,1.93,2.75c1.38,2.77,3,5,4,5.65,1.7,1,2.91.53,6.61-2.86a18.72,18.72,0,0,1,2.39-1.77,19.93,19.93,0,0,1,2.06-1.17l.2-.11q.66-.32,1.28-.7l.39-.25q.58-.37,1.14-.79l.16-.11h0a19.46,19.46,0,0,0,1.57-1.34l.74-.69h0c.29-.26.55-.5.8-.71h0c.23-.19.45-.36.66-.52l.1-.08c.19-.14.38-.26.57-.37l.12-.07a5.36,5.36,0,0,1,.55-.27l.11,0a5.06,5.06,0,0,1,.59-.19h.05a10.45,10.45,0,0,1,2.46-.21,9.92,9.92,0,0,1,2.29.2l.16,0a5.33,5.33,0,0,1,.59.19c1.54.61,3.17,2,6.66,5.29,5.58,5.22,7.78,6.47,7.78,4.42,0-1.23-5.68-9.93-10.41-16-2-2.51-3.22-4.42-3.78-6.32l-.09-.33c-.05-.2-.09-.4-.12-.6s0-.23-.06-.35,0-.39,0-.58,0-.25,0-.37,0-.34,0-.51a9.9,9.9,0,0,1,.12-1.12c0-.08,0-.15,0-.23,0-.26.11-.53.18-.81l0-.19q.12-.45.27-.91l0-.1c.11-.34.23-.68.37-1h0a60.55,60.55,0,0,1,2.68-5.81l.12-.25h0l.26-.53.09-.18.4-.82,0-.1a49.81,49.81,0,0,0,2.09-5l0-.07a44.62,44.62,0,0,0,1.53-7.27v-.11q.1-.8.16-1.54c0-.12,0-.25,0-.37,0-.53.06-1,.06-1.48s0-.71,0-1.06h0a21.84,21.84,0,0,0-.75-4.52h0c0-.12-.08-.23-.11-.34-.13-.45-.27-.89-.43-1.32-.07-.2-.15-.4-.23-.6-.15-.37-.3-.72-.47-1.07s-.21-.43-.31-.64-.33-.58-.5-.86-.25-.43-.38-.62-.41-.54-.61-.8-.21-.29-.32-.42a11.46,11.46,0,0,0-1-1h0c-.15-.13-.3-.25-.45-.36l-.2-.14-.3-.19-.32-.18-.26-.14-.44-.21-.24-.1-.6-.25-.18-.07-.84-.32h0l-.69-.25c-3.55-1.27-4.9-2-10.08-5.64a80.75,80.75,0,0,0-9.7-5.74,36.92,36.92,0,0,1-5-2.74c0-.48,2.5-.26,3.28.28s1.67.52,7.95.37c7-.17,7.29-.21,11.44-1.37,4.36-1.22,7.41-2.58,9.73-4.49h0l.16-.14q.38-.32.74-.67l.29-.3q.32-.33.63-.69l.16-.19A19.64,19.64,0,0,0,197,81.16a17,17,0,0,0,1.94-6h0c0-.14,0-.29.07-.44h0l.06-.36q.33-2.19.67-4.29c.08-.52.17-1,.26-1.52q.5-3,1-5.83l0-.25h0c.27-1.44.55-2.85.83-4.21.42-2,.86-4,1.3-5.84h0c.36-1.51.73-3,1.1-4.35l.19-.7c.27-1,.54-1.91.81-2.81l.07-.24.41-1.31h0l.39-1.25h0l.18-.57h0c.28-.87.55-1.7.82-2.5h0c.64-1.87,1.29-3.61,2-5.48l.07-.18h0l.26-.64h0c.31-.74.64-1.51,1-2.32h0c.46-1.07,1-2.19,1.53-3.45l.44-1c1.08-2.42,1.89-4.36,2.49-6h0l.1-.28q.2-.57.37-1.1l.08-.26a22.51,22.51,0,0,0,1.09-7.11c0-.2,0-.36,0-.54h0S216.62,10.29,216.62,10.25Z"/><path class="cls-2" d="M162,176.54a2,2,0,0,1-1-.37c-.79-.49-2.25-2.32-3.75-5.32a11,11,0,0,0-2.08-3,8.62,8.62,0,0,0-1.14-1l-.09-.06a9.58,9.58,0,0,0-1.21-.7l-.27-.13-.07,0a12.88,12.88,0,0,0-1.24-.48l-.31-.1c-.59-.18-1.17-.33-1.77-.45l-.26-.06-.2-.05-.59-.15-.44-.14-.64-.22-.35-.14q-.39-.16-.75-.34l-.09,0a8.61,8.61,0,0,1-.82-.48l-.07,0a6.13,6.13,0,0,1-1.44-1.32,43.71,43.71,0,0,1-3.86-8.09,51.29,51.29,0,0,1-1.17-5.83c-1.13-7.45-2.2-10.49-5.74-16.27-.72-1.18-2.67-4.76-4.34-8a78.45,78.45,0,0,0-8.6-13.76,40.17,40.17,0,0,1-3.74-6.09l-.87-1.74-.61,1.84a9.11,9.11,0,0,1-.4,1l-.61,1.32.87.89a3.73,3.73,0,0,1,1,1.9,11,11,0,0,1,.51,3.87c0,1.53,0,1.65-.19,2,0,.11-.09.2-.12.27a.87.87,0,0,0-.25.28,1.48,1.48,0,0,0,.23,1.47c.09.15.13.21.12.88a2.7,2.7,0,0,1-.92,2.12l-.95,1.13.66.88A4,4,0,0,1,115,125a4.2,4.2,0,0,1-.78,2l-.89.75.83,1.09c.5.65.58,1.13-.37,1.94l-.11.09c-.73.59-.59,1.07-.28,2.13l.11.36a2.19,2.19,0,0,1,.08.9,3.21,3.21,0,0,1-.66,1.68,2.71,2.71,0,0,0-.31,2.73,2.37,2.37,0,0,1,.18,1.58l-.16.41c-.62,1.62-.91,2.38-2.24,2.74l-1.18-.12-.89-.28-.89.28-1.18.12c-1.34-.36-1.63-1.12-2.24-2.74l-.16-.41a2.37,2.37,0,0,1,.18-1.58,2.71,2.71,0,0,0-.31-2.73,3.22,3.22,0,0,1-.66-1.68,2.18,2.18,0,0,1,.08-.9l.1-.36c.31-1.05.45-1.53-.28-2.13l-.11-.09c-.94-.81-.86-1.29-.36-1.94l.83-1.09-.9-.75a4.22,4.22,0,0,1-.78-2,4,4,0,0,1,.63-2.91l.66-.88-1-1.13A2.69,2.69,0,0,1,101,118c0-.67,0-.72.12-.88a1.48,1.48,0,0,0,.23-1.47.88.88,0,0,0-.25-.28c0-.06-.07-.15-.12-.26-.16-.39-.19-.52-.19-2a11,11,0,0,1,.51-3.87,3.72,3.72,0,0,1,1-1.9l.86-.88-.61-1.32a9.18,9.18,0,0,1-.4-1l-.61-1.84-.87,1.74A40.24,40.24,0,0,1,97,110a78.38,78.38,0,0,0-8.6,13.76c-1.67,3.23-3.61,6.81-4.34,8-3.54,5.78-4.61,8.82-5.74,16.27a51.3,51.3,0,0,1-1.17,5.83A43.64,43.64,0,0,1,73.26,162a6.13,6.13,0,0,1-1.44,1.32l-.09.06c-.26.17-.5.31-.75.44l-.14.07c-.23.12-.48.23-.74.34l-.32.13-.64.22-.47.15-.53.13-.28.07-.25.06c-.6.13-1.18.27-1.77.45l-.31.1a13,13,0,0,0-1.24.48l-.08,0-.27.12a9.52,9.52,0,0,0-1.23.71l-.07,0a8.65,8.65,0,0,0-1.15,1,11,11,0,0,0-2.08,3c-1.5,3-3,4.84-3.75,5.32a2,2,0,0,1-1,.37c-.86,0-2.11-.85-4.61-3.13a19.42,19.42,0,0,0-2.51-1.86,20.26,20.26,0,0,0-2.14-1.21l-.2-.11c-.41-.2-.82-.42-1.21-.66l-.37-.24c-.37-.24-.74-.49-1.09-.76l-.15-.11a18.53,18.53,0,0,1-1.51-1.29l-.75-.7-1-.91v0l-.55-.42-.12-.09q-.32-.23-.63-.41l-.14-.08a6.23,6.23,0,0,0-.63-.31l-.09,0a6.15,6.15,0,0,0-.71-.23l-.08,0a11,11,0,0,0-2.63-.23,10.87,10.87,0,0,0-2.47.22l-.19,0a6.13,6.13,0,0,0-.67.22c-1.71.68-3.42,2.18-6.92,5.46-4.26,4-5.84,5-6.43,5.12,0,0,0-.07,0-.11.17-1.1,5.19-9,10.24-15.46A20.78,20.78,0,0,0,31,152.68c0-.12.07-.24.1-.37s.1-.43.14-.65v-.08c0-.1,0-.2,0-.3s0-.43.05-.64v-.12c0-.1,0-.19,0-.29s0-.28,0-.43v-.14a10.68,10.68,0,0,0-.13-1.19l0-.24c-.05-.28-.12-.57-.19-.85l-.05-.2c-.08-.31-.18-.63-.28-1l0-.1c-.11-.35-.24-.7-.38-1.08a60.13,60.13,0,0,0-2.71-5.89l-.45-.9-.43-.89a49,49,0,0,1-2.08-5,44.32,44.32,0,0,1-1.51-7.2v-.1c-.06-.53-.12-1-.16-1.52l0-.36c0-.5-.06-1-.06-1.42,0-.17,0-.34,0-.51h0l0-.51a20.91,20.91,0,0,1,.73-4.35l0-.18,0-.14c.13-.43.26-.85.41-1.27.07-.2.15-.39.22-.57.14-.35.29-.69.45-1s.2-.42.3-.61.31-.55.47-.82l.1-.17c.09-.14.17-.29.26-.42s.37-.5.57-.74l.17-.22.13-.17a10.53,10.53,0,0,1,.93-.93l.4-.32.18-.12.26-.17.29-.16.23-.12.42-.2.22-.1.58-.24.14-.05,1.55-.58c3.61-1.29,5-2.1,10.27-5.74a80.13,80.13,0,0,1,9.6-5.68c5.46-2.7,5.46-2.92,5.46-3.45s-.22-1.07-1.66-1.07a5.9,5.9,0,0,0-2.87.69c-.28.19-.82.3-2.89.3-1,0-2.31,0-4.58-.08-6.95-.17-7.16-.19-11.24-1.34-4.37-1.23-7.28-2.56-9.44-4.33l-.16-.13c-.24-.21-.47-.42-.7-.63l-.28-.28q-.31-.32-.6-.65l-.15-.18a18.85,18.85,0,0,1-2.38-3.71A16.19,16.19,0,0,1,18.49,75l-.12-.79Q18,72.05,17.7,70l-.26-1.53c-.33-2-.67-3.94-1-5.76l-.06-.34c-.27-1.45-.55-2.86-.83-4.22-.33-1.59-.68-3.19-1.08-4.87h0l-.23-1c-.39-1.62-.75-3-1.1-4.36l-.19-.72c-.25-.9-.5-1.78-.75-2.63h0l-.54-1.74L11,40.86c-.27-.84-.53-1.65-.8-2.42l-.42-1.22h0c-.52-1.45-1-2.85-1.64-4.31l-.27-.68h0l-.06-.14c-.31-.74-.64-1.52-1-2.34l-.47-1.08h0L5.31,26.3l-.44-1C3.75,22.78,3,20.89,2.41,19.36L2.27,19q-.18-.51-.34-1l-.08-.25A21.65,21.65,0,0,1,.8,10.87v-.62c0-.28,0-.54,0-.78a7.29,7.29,0,0,1,.66-3.6l.06-.11.08-.17.24-.38C3.44,2.32,6.36.8,10.28.8a17.59,17.59,0,0,1,2.17.14A58.51,58.51,0,0,1,31.7,7.31c4.72,2.63,14,8.44,17.34,10.9,4.21,3.06,35.28,33.59,39.11,38.43a105.19,105.19,0,0,1,14.65,26.2l.46,1.31.9-1.06a2.72,2.72,0,0,1,.47-.44l.8-.58-.74-.66a7.23,7.23,0,0,1-2.19-5.36,7.87,7.87,0,0,1,.89-3.7l.28-.52-.42-.42a1,1,0,0,1-.3-.7,1.05,1.05,0,0,1,1.07-1,1.06,1.06,0,0,1,.68.27l.42.34.42-.23.47-.19a3.91,3.91,0,0,1,1.5-.34,3.82,3.82,0,0,1,.65.06l.13,0,.14,0a3.81,3.81,0,0,1,.65-.06,3.91,3.91,0,0,1,1.5.34l.55.23.32.15.44-.3a1.06,1.06,0,0,1,.68-.27,1.05,1.05,0,0,1,1.07,1,1,1,0,0,1-.3.71l-.41.42.28.52a7.86,7.86,0,0,1,.89,3.7,7.23,7.23,0,0,1-2.19,5.36l-.74.66.8.58a2.72,2.72,0,0,1,.47.44l.9,1.06.46-1.31a105.19,105.19,0,0,1,14.65-26.2c3.84-4.84,34.91-35.38,39.11-38.43,3.39-2.46,12.62-8.27,17.34-10.9A58.51,58.51,0,0,1,204.17.94,17.59,17.59,0,0,1,206.34.8c3.92,0,6.84,1.52,8.44,4.4l.42.75a7.21,7.21,0,0,1,.62,3.48c0,.28,0,1.18,0,1.18v.27a21.63,21.63,0,0,1-1.06,6.88l-.08.26c-.11.34-.23.7-.37,1.07l-.1.27c-.57,1.56-1.33,3.39-2.47,6l-.44,1-1.06,2.38h0l-.47,1.08c-.36.82-.69,1.59-1,2.34l-.36.86h0c-.55,1.34-1,2.63-1.51,4v0l-.53,1.55c-.27.8-.55,1.63-.83,2.51l-.28.88h0l-.81,2.6h0c-.26.88-.52,1.79-.78,2.73l-.19.7c-.36,1.32-.72,2.75-1.1,4.38l-.24,1h0c-.4,1.7-.75,3.3-1.07,4.87-.28,1.37-.56,2.78-.83,4.23l-.18.95h0c-.31,1.67-.61,3.38-.9,5.15L198.93,70q-.34,2.11-.67,4.3l-.12.79a16.19,16.19,0,0,1-1.87,5.77,18.89,18.89,0,0,1-2.38,3.71l-.1.12c-.24.28-.44.5-.65.71l-.28.28c-.22.22-.46.43-.7.63l-.16.13c-2.15,1.77-5.06,3.11-9.44,4.33-4.09,1.15-4.3,1.17-11.24,1.34-2.27.05-3.6.08-4.58.08-2.07,0-2.61-.1-2.89-.3a5.9,5.9,0,0,0-2.87-.69c-1.45,0-1.66.67-1.66,1.07s0,.76,5.46,3.45a80.18,80.18,0,0,1,9.6,5.68c5.22,3.64,6.66,4.44,10.27,5.74l.79.29.72.28.18.07.58.24.2.09.44.2.19.1.34.19.24.15.21.14.37.29,0,0a10.71,10.71,0,0,1,.93.93l.13.17.16.22c.2.24.39.48.57.75s.17.27.26.41l.1.17c.16.27.32.53.47.82s.2.41.3.61.31.67.45,1c.08.19.15.38.22.57.15.41.29.84.41,1.27l.05.16,0,.16a20.89,20.89,0,0,1,.73,4.35l0,.51h0c0,.17,0,.34,0,.51,0,.43,0,.92-.06,1.42l0,.36q-.06.73-.16,1.51v.11a43.72,43.72,0,0,1-1.5,7.13l0,.08a48.83,48.83,0,0,1-2,4.86l-.55,1.15-.36.72a60.69,60.69,0,0,0-2.71,5.89c-.14.37-.27.73-.38,1.08l0,.1c-.1.32-.2.64-.28,1l0,.13c-.09.37-.16.65-.21.93l0,.17a11.33,11.33,0,0,0-.14,1.28v.13c0,.14,0,.29,0,.43s0,.19,0,.29v.12c0,.22,0,.43.05.64s0,.19,0,.28l0,.09c0,.22.08.44.14.66l.1.36a20.78,20.78,0,0,0,3.92,6.59c5.05,6.43,10.07,14.36,10.24,15.49,0,0,0,.05,0,.07-.59-.16-2.17-1.12-6.43-5.12-3.5-3.28-5.21-4.78-6.91-5.46a6.2,6.2,0,0,0-.67-.22l-.19,0a14.49,14.49,0,0,0-5.11,0,5.75,5.75,0,0,0-.74.23l-.13.05a5.87,5.87,0,0,0-.63.31l-.13.07c-.22.13-.42.26-.64.42l-.12.09-.44.34v0l-1.09,1-.75.7a18.33,18.33,0,0,1-1.51,1.29l-.15.12c-.35.27-.72.52-1.09.76l-.38.24c-.4.24-.81.46-1.21.66l-.14.08a21.85,21.85,0,0,0-2.2,1.24,19.36,19.36,0,0,0-2.5,1.85C164.11,175.69,162.86,176.54,162,176.54ZM121.72,45.08c1.1-3.53,2.38-7,4.95-9.64A7.52,7.52,0,0,1,128,34.11a8.85,8.85,0,0,1-.67,3.16l-.31.63C125.78,40.5,124.22,43.69,121.72,45.08Zm-26.81,0c-2.51-1.39-4.06-4.58-5.33-7.18l-.35-.71a8.64,8.64,0,0,1-.64-3.09,7.35,7.35,0,0,1,1.33,1.3C92.52,38,93.81,41.55,94.91,45.08Z"/><path class="cls-3" d="M30,127.17c.64-6.51,11.29-5,14.68-7.31,6.6-4.53,11.39-10,19.42-8.9s9.55,6.18,10.18,9,10.8,14.62-10.18,21.68C43.87,148.39,29.13,135.67,30,127.17Z"/><path class="cls-4" d="M56.91,128c12.41-4.65,15.89-15.21,7.82-16.44s-13.47,5.87-19.14,9c-4.35,2.39-14.32.73-15,7.24C30.09,133.23,44.36,132.76,56.91,128Z"/><path class="cls-5" d="M74.6,121.43c-.49-1.1-.82-2.28-1.49-2s-.81,1.42-.33,2.52,1.42,1.75,2.08,1.46S75.09,122.53,74.6,121.43Z"/><path class="cls-6" d="M77.64,119.8c-.14-.31-.58-.94-.91-.36a2.3,2.3,0,0,1-2.78,1.2c-.36-.11-.42.74-.17,1.3s1,1.13,1.08.75,2.56-.83,3.17-2C78.27,120.2,77.74,120,77.64,119.8Z"/><ellipse class="cls-7" cx="60.59" cy="114.26" rx="2.15" ry="1.59" transform="translate(-28.78 20.77) rotate(-15.77)"/><ellipse class="cls-7" cx="33.17" cy="126.02" rx="1.36" ry="1.01" transform="translate(-69.55 45.82) rotate(-37.27)"/><path class="cls-8" d="M143.32,61.44c.64-6.51,11.29-5,14.68-7.31,6.6-4.53,11.39-10,19.42-8.9s9.55,6.18,10.18,9,10.8,14.62-10.18,21.68C157.22,82.66,142.48,69.95,143.32,61.44Z"/><path class="cls-9" d="M170.26,62.32c12.41-4.65,15.89-15.21,7.82-16.44s-13.47,5.87-19.14,9c-4.35,2.39-14.32.73-15,7.24C143.44,67.5,157.71,67,170.26,62.32Z"/><path class="cls-5" d="M188,55.7c-.49-1.1-.82-2.28-1.49-2s-.81,1.42-.33,2.52,1.42,1.75,2.08,1.46S188.44,56.8,188,55.7Z"/><path class="cls-6" d="M191,54.07c-.14-.31-.58-.94-.91-.36a2.3,2.3,0,0,1-2.78,1.2c-.36-.11-.42.74-.17,1.3s1,1.13,1.08.75,2.56-.83,3.17-2C191.62,54.48,191.09,54.3,191,54.07Z"/><ellipse class="cls-7" cx="173.94" cy="48.54" rx="2.15" ry="1.59" transform="translate(-6.64 49.11) rotate(-15.77)"/><ellipse class="cls-7" cx="146.52" cy="60.3" rx="1.36" ry="1.01" transform="translate(-6.59 101.04) rotate(-37.27)"/><path class="cls-10" d="M138.18,127.17c.64-6.51,11.29-5,14.68-7.31,6.6-4.53,11.39-10,19.42-8.9s9.55,6.18,10.18,9,10.8,14.62-10.18,21.68C152.08,148.39,137.34,135.67,138.18,127.17Z"/><path class="cls-11" d="M165.11,128c12.41-4.65,15.89-15.21,7.82-16.44s-13.47,5.87-19.14,9c-4.35,2.39-14.32.73-15,7.24C138.3,133.23,152.56,132.76,165.11,128Z"/><path class="cls-5" d="M182.81,121.43c-.49-1.1-.82-2.28-1.49-2s-.81,1.42-.33,2.52,1.42,1.75,2.08,1.46S183.29,122.53,182.81,121.43Z"/><path class="cls-6" d="M185.85,119.8c-.14-.31-.58-.94-.91-.36a2.3,2.3,0,0,1-2.78,1.2c-.36-.11-.42.74-.17,1.3s1,1.13,1.08.75,2.56-.83,3.17-2C186.48,120.2,185.94,120,185.85,119.8Z"/><ellipse class="cls-7" cx="168.79" cy="114.26" rx="2.15" ry="1.59" transform="translate(-24.71 50.19) rotate(-15.77)"/><ellipse class="cls-7" cx="141.37" cy="126.02" rx="1.36" ry="1.01" transform="translate(-47.45 111.35) rotate(-37.27)"/></svg>