<svg id="Layer_1" data-name="Layer 1" xmlns="http://www.w3.org/2000/svg" xmlns:xlink="http://www.w3.org/1999/xlink" viewBox="0 0 270.26 221.26"><defs><style>.cls-1{fill:#31331c;}.cls-2{fill:#525731;}.cls-3{fill:#fa7901;}.cls-4{fill:#ffa12d;}.cls-5{fill:#ffe1b4;}.cls-6{fill:#e03c00;}.cls-7{fill:#777626;}.cls-8{fill:url(#radial-gradient);}.cls-9{fill:#367a00;}.cls-10{fill:#2c5509;}.cls-11{fill:#83b264;}.cls-12{fill:#060108;}.cls-13{fill:url(#radial-gradient-2);}.cls-14{fill:url(#radial-gradient-3);}.cls-15{fill:#fc0;}</style><radialGradient id="radial-gradient" cx="-783.39" cy="72.14" r="11.72" gradientTransform="translate(1008.39)" gradientUnits="userSpaceOnUse"><stop offset="0.09" stop-color="#d6390c"/><stop offset="0.53" stop-color="#e95a06"/><stop offset="1" stop-color="#fa7901"/></radialGradient><radialGradient id="radial-gradient-2" cx="3382.28" cy="72.14" r="11.72" gradientTransform="matrix(-1, 0, 0, 1, 3428.77, 0)" xlink:href="#radial-gradient"/><radialGradient id="radial-gradient-3" cx="3523.28" cy="156.81" r="11.72" gradientTransform="matrix(-1, 0, 0, 1, 3710.77, 0)" xlink:href="#radial-gradient"/></defs><title>orange 1.1</title><path class="cls-1" d="M270.26,12.79c0-.35,0-.69,0-1v-.05a10,10,0,0,0-.91-4.84l0-.07c-.13-.3-.26-.59-.42-.87l0,0c-2.56-4.6-7.5-6.66-14.23-5.82a73.5,73.5,0,0,0-24.38,8.06c-5.87,3.27-17.51,10.59-21.74,13.67-5.35,3.89-44.12,42-49,48.14-7.07,8.93-15,23.09-18.43,33a4.38,4.38,0,0,0-.76-.7,10,10,0,0,0,3.07-7.43,10.81,10.81,0,0,0-1.23-5.08,2.24,2.24,0,0,0,.66-1.58,2.31,2.31,0,0,0-2.34-2.28,2.33,2.33,0,0,0-1.49.56l-.11-.05a47.57,47.57,0,0,0,2.24-4.52c2.45-5.67,5.1-11.24,7.7-16.84a69.71,69.71,0,0,0,2.68-7.56c4.25-1.74,6.49-6.91,8.36-10.69,1.3-3.45,1.73-8.29-2.53-3.33-4.12,4.19-5.67,10-7.35,15.5-1.56,5.64-4.47,10.74-6.81,16.06-1.71,3.68-3.17,7.47-4.79,11.19a5.88,5.88,0,0,0-2.25-.49,5.81,5.81,0,0,0-1,.09,5.81,5.81,0,0,0-1-.09,5.88,5.88,0,0,0-2.25.49c-1.61-3.72-3.08-7.51-4.79-11.19-2.34-5.32-5.25-10.42-6.81-16.06-1.67-5.46-3.23-11.31-7.35-15.5-4.26-5-3.82-.12-2.53,3.33,1.86,3.78,4.11,8.95,8.36,10.69a69.74,69.74,0,0,0,2.68,7.56c2.61,5.59,5.26,11.17,7.7,16.84a47.57,47.57,0,0,0,2.24,4.52l-.11.05a2.33,2.33,0,0,0-1.49-.56,2.31,2.31,0,0,0-2.34,2.28,2.24,2.24,0,0,0,.66,1.58,10.81,10.81,0,0,0-1.23,5.08,10,10,0,0,0,3.07,7.43,4.36,4.36,0,0,0-.76.7c-3.47-9.89-11.36-24.05-18.43-33-4.87-6.15-43.65-44.25-49-48.14C57.55,18.84,45.91,11.52,40,8.24A73.5,73.5,0,0,0,15.66.18C8.93-.66,4,1.41,1.42,6l0,0c-.15.28-.28.57-.42.87l0,.07A10,10,0,0,0,0,11.75v.05c0,.3,0,.64,0,1,0,0,0,.07,0,.11H0c0,.22,0,.43,0,.67a28.09,28.09,0,0,0,1.36,8.88l.1.32q.21.66.47,1.38l.12.35h0c.75,2.05,1.76,4.46,3.1,7.47l.56,1.27c.71,1.58,1.33,3,1.91,4.31h0c.44,1,.85,2,1.24,2.9h0l.32.79h0l.09.22c.95,2.33,1.76,4.51,2.56,6.84h0c.34,1,.68,2,1,3.11h0l.23.71h0l.49,1.56h0l.52,1.66.08.27c.34,1.12.68,2.3,1,3.51l.24.9c.46,1.72.92,3.54,1.37,5.41h0c.55,2.31,1.1,4.73,1.63,7.28.35,1.7.69,3.45,1,5.25h0l.06.32q.66,3.51,1.28,7.27c.11.64.21,1.26.32,1.9q.42,2.62.83,5.35l.07.45h0c0,.19.05.37.08.55h0a21.19,21.19,0,0,0,2.42,7.48,24.5,24.5,0,0,0,3.09,4.82l.2.24q.38.44.78.85l.37.38q.44.43.92.83l.2.18h0c2.9,2.38,6.69,4.07,12.14,5.6,5.17,1.45,5.56,1.5,14.27,1.71,7.83.19,9.08.13,9.92-.46s4.09-.95,4.09-.35a46.06,46.06,0,0,1-6.26,3.41,100.75,100.75,0,0,0-12.1,7.17c-6.46,4.5-8.15,5.45-12.58,7-.74.27-1.35.5-1.91.72l-.22.09-.75.31-.29.13-.55.26-.32.17-.4.22-.38.24-.25.17q-.29.21-.56.45h0a14.3,14.3,0,0,0-1.25,1.24c-.14.15-.26.35-.4.52-.26.32-.52.64-.77,1s-.32.52-.48.78-.42.7-.62,1.08-.26.53-.39.8c-.2.43-.4.88-.58,1.33-.1.25-.2.49-.29.75-.19.54-.37,1.08-.53,1.64,0,.15-.1.28-.14.43h0a27.24,27.24,0,0,0-.94,5.64h0c0,.44,0,.89,0,1.33s0,1.19.07,1.85c0,.15,0,.3,0,.46q.08.93.2,1.93l0,.13a55.69,55.69,0,0,0,1.91,9.07l0,.08a62.12,62.12,0,0,0,2.61,6.22l0,.09.51,1.06.11.23.33.67h0l.16.31a75.82,75.82,0,0,1,3.34,7.25h0c.17.45.32.88.46,1.3l0,.12c.13.39.24.77.34,1.14l.06.24c.09.34.16.68.22,1,0,.1,0,.19,0,.29a12.37,12.37,0,0,1,.14,1.38c0,.22,0,.43,0,.65s0,.31,0,.47,0,.49-.06.73,0,.29-.07.43-.09.49-.15.74-.07.28-.11.42c-.7,2.37-2.26,4.76-4.72,7.89-5.9,7.52-13,18.37-13,19.91,0,2.56,2.75,1,9.7-5.52,4.35-4.08,6.4-5.85,8.31-6.6a6.67,6.67,0,0,1,.73-.24l.2-.05a12.38,12.38,0,0,1,2.85-.25,13,13,0,0,1,3.07.27H45a6.3,6.3,0,0,1,.73.24l.13.05a6.67,6.67,0,0,1,.69.33l.15.09c.23.14.47.29.71.46l.13.1c.26.19.53.4.82.65h0c.31.27.65.56,1,.89h0l.92.86a24.3,24.3,0,0,0,2,1.68h0l.2.14q.7.53,1.42,1l.49.31q.78.47,1.59.87l.25.14a24.83,24.83,0,0,1,2.55,1.45,23.39,23.39,0,0,1,3,2.22c4.62,4.22,6.13,4.87,8.25,3.57,1.35-.84,3.32-3.58,5.05-7a12.73,12.73,0,0,1,2.4-3.43,9.89,9.89,0,0,1,1.29-1.09l.09-.05a11.1,11.1,0,0,1,1.41-.81l.4-.18a15.17,15.17,0,0,1,1.45-.56l.37-.12c.66-.2,1.36-.38,2.12-.54l.61-.15.77-.19.62-.19.81-.28.47-.18q.52-.22,1-.46l.18-.09a11.85,11.85,0,0,0,1.12-.67h0a8.65,8.65,0,0,0,2-1.87,55.46,55.46,0,0,0,5-10.38,63.88,63.88,0,0,0,1.5-7.45c1.38-9.13,2.7-12.86,7-19.93.92-1.5,3.37-6,5.44-10a96.81,96.81,0,0,1,10.65-17,51.59,51.59,0,0,0,4.76-7.75,12.33,12.33,0,0,0,.54,1.32l.47,1-.6.61a5.59,5.59,0,0,0-1.45,2.78,14.62,14.62,0,0,0-.68,5.12c0,1.94,0,2.24.31,2.92a1.85,1.85,0,0,0,.42.75c.21,0,.13.36-.18.88a2.61,2.61,0,0,0-.29,1.61,4.32,4.32,0,0,0,1.38,3.28l.68.8-.34.46a6.38,6.38,0,0,0,.34,7.46l.38.32-.46.6c-1,1.36-.86,2.54.6,3.79.6.51.6.26.05,2.18a3.71,3.71,0,0,0-.13,1.51,5,5,0,0,0,1,2.5,2.42,2.42,0,0,1,.29,2.56,3.89,3.89,0,0,0-.23,2.6c.94,2.43,1.36,4,3.87,4.64l1.75-.18.91-.29.91.29,1.75.18c2.52-.6,2.93-2.21,3.87-4.64a3.89,3.89,0,0,0-.23-2.6,2.42,2.42,0,0,1,.29-2.56,5,5,0,0,0,1-2.5,3.7,3.7,0,0,0-.13-1.51c-.55-1.92-.55-1.67.05-2.18,1.46-1.25,1.64-2.43.6-3.79l-.46-.6.38-.32a6.38,6.38,0,0,0,.34-7.46l-.34-.46.68-.8a4.32,4.32,0,0,0,1.38-3.28,2.61,2.61,0,0,0-.29-1.61c-.31-.52-.38-.88-.18-.88a1.86,1.86,0,0,0,.42-.75c.27-.68.3-1,.31-2.92a14.63,14.63,0,0,0-.68-5.12,5.59,5.59,0,0,0-1.45-2.78l-.6-.61.47-1a12.33,12.33,0,0,0,.54-1.32,51.58,51.58,0,0,0,4.76,7.75,96.81,96.81,0,0,1,10.65,17c2.08,4,4.53,8.53,5.44,10,4.33,7.07,5.64,10.8,7,19.93a63.88,63.88,0,0,0,1.5,7.45,55.45,55.45,0,0,0,5,10.38,8.62,8.62,0,0,0,2,1.86h0a11.87,11.87,0,0,0,1.13.67l.18.08q.48.24,1,.46l.47.18.81.28.62.19.77.19.61.15c.76.16,1.46.34,2.12.54l.37.12a15.09,15.09,0,0,1,1.45.56l.4.18a11.1,11.1,0,0,1,1.41.81l.09.05a9.91,9.91,0,0,1,1.29,1.09,12.73,12.73,0,0,1,2.4,3.43c1.73,3.46,3.7,6.21,5.05,7,2.12,1.31,3.63.66,8.25-3.57a23.35,23.35,0,0,1,3-2.21,24.87,24.87,0,0,1,2.57-1.46l.25-.14q.82-.4,1.59-.87l.49-.31q.72-.46,1.42-1l.2-.14h0a24.27,24.27,0,0,0,2-1.67l.92-.86h0c.36-.33.69-.62,1-.89h0c.29-.24.56-.45.82-.65l.13-.09c.24-.17.48-.33.71-.46l.15-.08a6.69,6.69,0,0,1,.69-.33l.13-.05a6.31,6.31,0,0,1,.74-.24h.06a13,13,0,0,1,3.07-.27,12.38,12.38,0,0,1,2.85.25l.2.05a6.65,6.65,0,0,1,.73.24c1.92.76,4,2.53,8.31,6.6,7,6.52,9.7,8.08,9.7,5.52,0-1.53-7.08-12.39-13-19.91-2.46-3.13-4-5.52-4.72-7.89,0-.14-.08-.28-.11-.41s-.11-.5-.16-.75-.05-.29-.07-.43,0-.48-.06-.73,0-.31,0-.47,0-.42,0-.63a12.35,12.35,0,0,1,.15-1.39c0-.09,0-.19,0-.28.06-.33.14-.66.22-1l.06-.24q.15-.56.34-1.14l0-.12c.14-.42.29-.85.46-1.3h0a75.54,75.54,0,0,1,3.34-7.25l.16-.31h0l.33-.67.11-.23.49-1,.06-.12a62.15,62.15,0,0,0,2.6-6.21l0-.08a55.66,55.66,0,0,0,1.9-9.07l0-.14q.12-1,.2-1.93c0-.16,0-.31,0-.46,0-.66.08-1.29.07-1.84s0-.88,0-1.33h0a27.24,27.24,0,0,0-.94-5.64h0c0-.15-.1-.28-.14-.43-.16-.56-.34-1.11-.53-1.64-.09-.25-.19-.5-.29-.74-.18-.46-.38-.9-.58-1.33-.13-.27-.26-.54-.39-.8s-.41-.73-.62-1.08-.31-.53-.48-.78-.51-.68-.77-1c-.14-.17-.26-.36-.4-.52a14.3,14.3,0,0,0-1.25-1.24h0c-.18-.16-.37-.31-.57-.45l-.25-.17-.37-.24-.4-.23-.32-.17-.55-.26-.29-.13-.75-.31-.23-.09-1.05-.4h0l-.86-.31c-4.42-1.59-6.12-2.54-12.58-7a100.75,100.75,0,0,0-12.1-7.17,46.06,46.06,0,0,1-6.26-3.41c0-.6,3.12-.33,4.09.35s2.08.65,9.92.46c8.71-.21,9.1-.26,14.27-1.71,5.44-1.53,9.24-3.22,12.14-5.6h0l.2-.18q.48-.4.92-.83l.36-.37q.41-.41.79-.86l.2-.24a24.51,24.51,0,0,0,3.09-4.82,21.19,21.19,0,0,0,2.42-7.48h0c0-.18.05-.36.08-.55h0l.07-.45q.41-2.73.83-5.35c.1-.65.21-1.26.32-1.9q.63-3.76,1.28-7.28l.06-.31h0c.34-1.8.68-3.56,1-5.25.53-2.55,1.07-5,1.63-7.28h0c.45-1.89.91-3.71,1.37-5.43l.23-.87c.33-1.21.67-2.39,1-3.51l.09-.3.51-1.63h0l.49-1.56h0l.23-.71h0c.35-1.09.69-2.12,1-3.11h0c.79-2.33,1.61-4.5,2.55-6.83l.09-.23h0l.32-.79h0c.38-.92.79-1.88,1.23-2.9h0c.58-1.33,1.2-2.73,1.91-4.31l.55-1.24c1.35-3,2.36-5.43,3.11-7.49h0l.12-.36q.25-.71.47-1.37l.1-.32a28.08,28.08,0,0,0,1.36-8.87c0-.25,0-.45,0-.67h0S270.26,12.83,270.26,12.79Z"/><path class="cls-2" d="M202.11,220.26a2.48,2.48,0,0,1-1.3-.46c-1-.61-2.81-2.9-4.68-6.64a13.76,13.76,0,0,0-2.59-3.69,10.77,10.77,0,0,0-1.42-1.2l-.12-.07a12.07,12.07,0,0,0-1.51-.87l-.35-.16a16.43,16.43,0,0,0-1.63-.63l-.38-.13c-.73-.22-1.46-.41-2.21-.57l-.32-.08-.25-.07-.74-.18-.56-.17-.78-.27-.44-.17c-.33-.14-.64-.28-.94-.43l-.11-.05a10.75,10.75,0,0,1-1-.6l-.09-.06a7.62,7.62,0,0,1-1.79-1.64A54.54,54.54,0,0,1,174,192a64,64,0,0,1-1.46-7.28c-1.41-9.29-2.75-13.09-7.16-20.3-.9-1.47-3.33-5.94-5.41-10a97.9,97.9,0,0,0-10.73-17.17,50.23,50.23,0,0,1-4.66-7.59l-1.08-2.17-.76,2.3a11.21,11.21,0,0,1-.5,1.22l-.76,1.65,1.08,1.1a4.64,4.64,0,0,1,1.21,2.37,13.68,13.68,0,0,1,.63,4.83c0,1.91,0,2.06-.23,2.55-.06.14-.11.25-.15.33a1.08,1.08,0,0,0-.31.34,1.84,1.84,0,0,0,.28,1.83c.11.19.16.27.16,1.1,0,1-.14,1.43-1.15,2.64l-1.18,1.41.82,1.09a5,5,0,0,1,.79,3.64,5.23,5.23,0,0,1-1,2.46l-1.11.93,1,1.36c.62.81.72,1.41-.46,2.42l-.14.11c-.91.74-.74,1.34-.35,2.65l.13.45a2.74,2.74,0,0,1,.09,1.12,4,4,0,0,1-.82,2.09,3.39,3.39,0,0,0-.38,3.41,2.94,2.94,0,0,1,.22,2l-.2.51c-.77,2-1.13,3-2.8,3.42l-1.47-.15-1.12-.35-1.12.35-1.47.15c-1.67-.44-2-1.4-2.8-3.42l-.2-.51a3,3,0,0,1,.22-2,3.38,3.38,0,0,0-.38-3.41,4,4,0,0,1-.82-2.09,2.75,2.75,0,0,1,.09-1.12l.13-.45c.38-1.31.56-1.91-.35-2.65l-.14-.11c-1.18-1-1.08-1.61-.46-2.42l1-1.36-1.12-.93a5.24,5.24,0,0,1-1-2.46,5,5,0,0,1,.79-3.63l.83-1.1-1.19-1.41c-1-1.21-1.14-1.63-1.14-2.64,0-.83,0-.9.15-1.09a1.85,1.85,0,0,0,.28-1.84,1.09,1.09,0,0,0-.31-.34c0-.08-.09-.19-.15-.33-.2-.49-.23-.64-.24-2.55a13.68,13.68,0,0,1,.63-4.83,4.64,4.64,0,0,1,1.21-2.37l1.08-1.1-.76-1.65a11.63,11.63,0,0,1-.5-1.22l-.76-2.3-1.08,2.17A50.33,50.33,0,0,1,121,137.3a97.78,97.78,0,0,0-10.73,17.17c-2.08,4-4.51,8.49-5.41,10-4.42,7.21-5.75,11-7.16,20.3A64,64,0,0,1,96.21,192,54.47,54.47,0,0,1,91.4,202.1a7.66,7.66,0,0,1-1.79,1.65l-.08.06c-.33.22-.64.4-1,.57l-.17.08c-.29.15-.6.29-.93.42l-.37.15-.82.29-.59.19-.67.17-.33.08-.31.08c-.75.16-1.48.34-2.21.57l-.38.13a15.91,15.91,0,0,0-1.55.6l-.44.2a12,12,0,0,0-1.53.88l-.09.06a10.78,10.78,0,0,0-1.42,1.2,13.77,13.77,0,0,0-2.59,3.69c-1.87,3.75-3.7,6-4.68,6.64a2.48,2.48,0,0,1-1.3.46c-1.08,0-2.63-1.06-5.75-3.91A24.3,24.3,0,0,0,59.27,214a25.52,25.52,0,0,0-2.67-1.51l-.25-.13c-.51-.25-1-.53-1.51-.82l-.46-.3c-.46-.29-.92-.61-1.36-.95l-.19-.14A23.33,23.33,0,0,1,51,208.57l-.94-.87-1.24-1.14v0l-.67-.52-.16-.11c-.25-.18-.51-.35-.77-.5l-.17-.1a7.5,7.5,0,0,0-.79-.38l-.12,0a7.78,7.78,0,0,0-.88-.29l-.1,0a13.67,13.67,0,0,0-3.28-.29,13.56,13.56,0,0,0-3.08.27l-.24.06a7.43,7.43,0,0,0-.83.27c-2.13.84-4.27,2.72-8.63,6.81-5.31,5-7.29,6.18-8,6.38,0,0,0-.08,0-.13.21-1.37,6.47-11.26,12.77-19.29,2.37-3,4.11-5.57,4.89-8.22,0-.15.09-.31.13-.46s.12-.54.17-.81l0-.1c0-.12,0-.25.06-.37s.05-.53.07-.8v-.14c0-.12,0-.25,0-.37s0-.36,0-.55v-.15a13.54,13.54,0,0,0-.16-1.49l0-.31c-.06-.35-.15-.7-.24-1.07l-.07-.26c-.1-.38-.22-.78-.35-1.18l0-.13c-.14-.42-.29-.87-.47-1.33a75.17,75.17,0,0,0-3.38-7.35l-.59-1.19-.5-1a61.36,61.36,0,0,1-2.6-6.19,55.3,55.3,0,0,1-1.89-9v-.13c-.08-.66-.15-1.29-.19-1.89l0-.44c0-.64-.07-1.24-.07-1.78,0-.21,0-.42,0-.63h0l0-.64a26.2,26.2,0,0,1,.91-5.43l.06-.21.06-.19c.16-.54.33-1.07.51-1.58.09-.25.18-.48.28-.72.18-.44.36-.86.56-1.28s.26-.54.37-.76.39-.69.59-1l.13-.22c.11-.18.21-.35.32-.51.23-.33.47-.63.71-.93l.2-.27a2.7,2.7,0,0,1,.16-.21,13.34,13.34,0,0,1,1.16-1.16c.16-.14.33-.27.5-.4l.22-.15.33-.21.36-.2.29-.16.52-.25.27-.12.73-.3.14-.06c.63-.24,1.23-.47,2-.74,4.5-1.61,6.3-2.62,12.81-7.16a100,100,0,0,1,12-7.09C71.5,116,71.5,115.72,71.5,115c0-.5-.27-1.33-2.08-1.33a7.36,7.36,0,0,0-3.58.86c-.35.24-1,.37-3.6.37-1.23,0-2.89,0-5.72-.1-8.67-.21-8.93-.24-14-1.67-5.46-1.53-9.09-3.2-11.77-5.41l-.19-.16c-.3-.26-.59-.52-.87-.79l-.35-.35q-.38-.39-.74-.81l-.19-.23a23.49,23.49,0,0,1-3-4.63,20.17,20.17,0,0,1-2.33-7.2l-.16-1q-.41-2.73-.83-5.36l-.32-1.9c-.37-2.23-.75-4.39-1.12-6.43l-.22-1.19c-.34-1.8-.68-3.57-1-5.27-.42-2-.86-4-1.36-6.14h0l-.28-1.17c-.48-2-.93-3.78-1.37-5.44l-.24-.9c-.31-1.13-.63-2.23-.94-3.29l-.66-2.17c-.17-.54-.75-2.4-.75-2.4-.34-1.05-.67-2.05-1-3l-.44-1.3h0c-.67-1.89-1.36-3.7-2.13-5.6l-.42-1c-.38-.93-.8-1.89-1.24-2.91L8,35.79H8c-.41-.93-.85-1.91-1.33-3-.2-.44-.38-.85-.55-1.25C4.65,28.37,3.71,26.08,3,24.15l-.19-.51q-.21-.61-.4-1.17l-.07-.22A27.14,27.14,0,0,1,1,13.57v-.78c0-.35,0-.68,0-1a9.09,9.09,0,0,1,.82-4.49l.07-.14L2,7l.3-.48C4.3,2.9,7.94,1,12.83,1a22,22,0,0,1,2.71.18,73,73,0,0,1,24,7.94C45.44,12.4,57,19.65,61.19,22.72c5.25,3.82,44,41.91,48.8,48,7,8.8,14.83,22.86,18.27,32.69l.57,1.64,1.13-1.32a3.39,3.39,0,0,1,.58-.54l1-.73-.92-.83a9,9,0,0,1-2.73-6.69A9.83,9.83,0,0,1,129,90.28l.35-.65-.52-.52a1.25,1.25,0,0,1-.37-.88,1.31,1.31,0,0,1,1.34-1.28,1.33,1.33,0,0,1,.85.33l.52.43.52-.28.59-.24a4.88,4.88,0,0,1,1.87-.42,4.77,4.77,0,0,1,.81.08l.17,0,.17,0a4.77,4.77,0,0,1,.81-.08,4.88,4.88,0,0,1,1.87.42l.69.28.4.18.54-.37a1.32,1.32,0,0,1,2.19,1,1.26,1.26,0,0,1-.37.88l-.52.52.35.65a9.82,9.82,0,0,1,1.11,4.61,9,9,0,0,1-2.73,6.69l-.92.83,1,.73a3.36,3.36,0,0,1,.59.54l1.13,1.32.57-1.64c3.45-9.83,11.3-23.89,18.27-32.69,4.78-6,43.55-44.13,48.8-48,4.23-3.07,15.75-10.32,21.63-13.6a73,73,0,0,1,24-7.94A21.94,21.94,0,0,1,257.43,1C262.33,1,266,2.9,268,6.49l.52.93a9,9,0,0,1,.78,4.34c0,.35,0,1.47,0,1.47v.33a27,27,0,0,1-1.32,8.58l-.1.32c-.12.39-.26.79-.41,1.2l-.17.48c-.71,1.94-1.66,4.23-3.08,7.43l-.55,1.24c-.48,1.06-.92,2-1.33,3h0l-.58,1.35c-.44,1-.86,2-1.24,2.91L260,41.12h0c-.68,1.68-1.3,3.28-1.89,4.93v0L257.47,48c-.34,1-.68,2-1,3.13l-.35,1.1h0l-1,3.14h0c-.34,1.13-.68,2.3-1,3.51l-.24.88c-.44,1.64-.89,3.43-1.38,5.46-.62,2.61-1.15,5-1.63,7.31-.35,1.7-.7,3.47-1,5.27l-.22,1.19h0c-.38,2-.75,4.2-1.12,6.43l-.32,1.91q-.42,2.63-.83,5.36l-.15,1a20.21,20.21,0,0,1-2.33,7.2,23.54,23.54,0,0,1-3,4.63l-.19.22q-.36.42-.74.81l-.35.35q-.42.41-.87.79l-.19.16c-2.69,2.21-6.32,3.88-11.77,5.41-5.1,1.43-5.36,1.46-14,1.67-2.83.07-4.49.1-5.72.1-2.58,0-3.26-.13-3.6-.37a7.36,7.36,0,0,0-3.58-.86c-1.81,0-2.08.83-2.08,1.33,0,.67,0,.94,6.82,4.31a99.93,99.93,0,0,1,12,7.09c6.51,4.54,8.31,5.54,12.81,7.16l.85.31,1,.39.16.06.79.32.27.12.53.25.34.18.32.18.31.2.24.16c.17.13.34.26.5.4a13.38,13.38,0,0,1,1.16,1.16c.06.06.11.14.16.21l.2.26c.25.3.49.6.72.93.11.16.21.33.31.51l.13.23c.2.33.4.67.59,1s.25.51.37.77c.2.42.38.84.56,1.28.09.24.19.47.27.71.19.52.36,1,.52,1.59l.06.2.05.2a26.21,26.21,0,0,1,.91,5.43l0,.64h0c0,.21,0,.42,0,.64,0,.54,0,1.14-.07,1.77l0,.45c0,.61-.11,1.23-.19,1.88l0,.13a54.56,54.56,0,0,1-1.87,8.9l0,.1a60.59,60.59,0,0,1-2.55,6.07l-.06.13-.49,1-.59,1.19A75.26,75.26,0,0,0,232.5,181c-.18.46-.33.91-.47,1.34l0,.12c-.13.41-.25.81-.35,1.2l0,.17c-.11.45-.19.8-.26,1.15,0,.07,0,.15,0,.22a13.8,13.8,0,0,0-.17,1.59v.17c0,.17,0,.35,0,.52s0,.24,0,.37v.14c0,.27,0,.54.07.8s0,.24.06.35l0,.12c0,.28.1.55.17.82s.08.3.12.45c.79,2.66,2.52,5.21,4.89,8.23,6.3,8,12.56,17.91,12.77,19.33,0,0,0,.06,0,.09-.73-.2-2.7-1.4-8-6.38-4.36-4.09-6.5-6-8.63-6.81a7.78,7.78,0,0,0-.84-.27l-.24-.06a13.54,13.54,0,0,0-3.08-.27,13.68,13.68,0,0,0-3.3.3,7.18,7.18,0,0,0-.92.29L224,205a7.57,7.57,0,0,0-.78.38l-.16.09c-.27.16-.53.33-.8.52l-.15.11c-.24.18-.49.37-.76.59v0l-1.14,1-.93.87a22.73,22.73,0,0,1-1.88,1.61l-.19.14c-.45.34-.9.65-1.36.95l-.47.3c-.5.3-1,.58-1.51.83l-.18.1A27.21,27.21,0,0,0,211,214a24.17,24.17,0,0,0-3.12,2.31C204.74,219.2,203.18,220.26,202.11,220.26Zm-83.7-164c-3.13-1.73-5.07-5.71-6.65-9l-.43-.88a10.77,10.77,0,0,1-.79-3.85,9.17,9.17,0,0,1,1.66,1.62C115.43,47.46,117,51.84,118.41,56.24Zm33.45,0c1.37-4.4,3-8.78,6.17-12a9.39,9.39,0,0,1,1.71-1.66,11,11,0,0,1-.83,3.94l-.39.79C156.92,50.53,155,54.51,151.85,56.24Z"/><path class="cls-3" d="M227.93,91.7s9.1-6.11,9.1-17.42-4.55-17-4.55-17-7.54-10-16.64-10.53-14,2.08-14,2.08-9.75,5.07-13.39,14,0,18.72,0,18.72,3.25,7.19,9.23,11.33,16.12,3.49,16.12,3.49S222.47,95.6,227.93,91.7Z"/><path class="cls-4" d="M203.28,68.7a5.56,5.56,0,0,0,3.43-.74,14.9,14.9,0,0,0,2.19-1.2,14.94,14.94,0,0,0,3.33-3.7,20.68,20.68,0,0,0,1.39-2.13,45.66,45.66,0,0,0,1.8-4.44,7.9,7.9,0,0,1,2.81-3.79c.71-.45,1.53-.72,2.27-1.12a3.06,3.06,0,0,0,1.63-1.84,1.23,1.23,0,0,0-.21-1.09,1.5,1.5,0,0,0-.77-.39c-1-.25-2-.2-3-.36-.76-.12-1.5-.36-2.26-.51a20.78,20.78,0,0,0-7,.17,19.08,19.08,0,0,0-3.21.63,23,23,0,0,0-3.07,1.36A66,66,0,0,0,196.43,53a3.81,3.81,0,0,0-.82.66,8.34,8.34,0,0,0-.9,1.49c-.72,1.26-1.9,2.28-2.26,3.69-.53,2.12,1,4.26,2.11,6q.5.76,1,1.51a6.16,6.16,0,0,0,1.28,1.5,6,6,0,0,0,3.45.83Z"/><path class="cls-5" d="M211.09,50.67a1.42,1.42,0,0,0-.18,1.86,14.06,14.06,0,0,0,2.22,3.17.24.24,0,0,0,.16.1.22.22,0,0,0,.13-.06,2.81,2.81,0,0,0,.74-2,4.19,4.19,0,0,0-.33-2.71,2.11,2.11,0,0,0-1.58-.95,1.23,1.23,0,0,0-.81.18A1.62,1.62,0,0,0,211.09,50.67Z"/><path class="cls-5" d="M197.29,53.34a24.85,24.85,0,0,0-2.1,2.27,6.71,6.71,0,0,0-.33,7.55,13.41,13.41,0,0,0,3.61,3.75,4,4,0,0,0,1.64,0,4.91,4.91,0,0,0,1.78-1,5.85,5.85,0,0,0,1.48-3.34,9.49,9.49,0,0,0,.16-3,19.49,19.49,0,0,0-.54-2.16,14,14,0,0,0-1.08-3.48,2.91,2.91,0,0,0-3-1.62A3.76,3.76,0,0,0,197.29,53.34Z"/><path class="cls-6" d="M209.89,56.8a1.65,1.65,0,0,0,.68,1c1.44,1.07,2.37,3.14,1.65,4.81-.38-2.08-1.84-3.78-3.24-5.37a.6.6,0,0,0-.4-.26.55.55,0,0,0-.27.09,5.38,5.38,0,0,0-2.1,2.5c-.47,1-.75,2.08-1.14,3.11A5.36,5.36,0,0,1,205.3,60,15.25,15.25,0,0,1,207,57.87a1.33,1.33,0,0,0,.29-.71.58.58,0,0,0-.41-.59.87.87,0,0,0-.48.09c-2.57,1-5.08,2.18-7.57,3.36a16.5,16.5,0,0,1,3.56-3.09,7.13,7.13,0,0,1,4.51-1.09,12.6,12.6,0,0,0-4.14-4,2.72,2.72,0,0,1,1.81.81,28.46,28.46,0,0,1,2.87,2.68l.51-.13c.3-1,1.41-1.77,1.86-2.85a14.19,14.19,0,0,0,.42-1.62,1.94,1.94,0,0,1,1-1.31,52,52,0,0,1-1.72,5.5,4.48,4.48,0,0,1,3.29-1.24,11.07,11.07,0,0,1,3.52.76q1.28.45,2.53,1a15.91,15.91,0,0,0-7.18-.18C210.74,55.39,209.72,55.75,209.89,56.8Z"/><path class="cls-7" d="M208.25,57.22a3.37,3.37,0,0,0,1.53-.92,3,3,0,0,0,.5-1.68c0-.5,0-1-.57-1.32a1.13,1.13,0,0,0-.53-.1,2.78,2.78,0,0,0-1.56.79l-.66.54a4,4,0,0,0-1.05,1.11A1.2,1.2,0,0,0,207,57.53,4,4,0,0,0,208.25,57.22Z"/><path class="cls-8" d="M236.3,73.79c0,6.28-8.56,13.36-12.27,13.46-4,.11-13.46-5.49-14.2-9.49-.54-2.94-.26-8.79,3-12.72a16.37,16.37,0,0,1,11.46-5.39C228.31,59.65,236.3,67.51,236.3,73.79Z"/><path class="cls-9" d="M206.4,53.07s-.27-.74,2.63-3.63a12.1,12.1,0,0,1,1.64-9.28A24.68,24.68,0,0,1,216.55,34a19.22,19.22,0,0,1,9.23-2.35,16.69,16.69,0,0,1,9.66,3.51s-1.7-1.51-2.74-.59a9.75,9.75,0,0,0-1.82,2.48,12.12,12.12,0,0,1-3.56,4.31c-2.65,2.1-13.73,9.59-17.9,8.63,0,0-1.2.54-2.6,3.22Z"/><path class="cls-10" d="M209.35,49.65a24.53,24.53,0,0,1,5.35-7c3.79-3.54,13.39-8.25,13.39-8.25a4.51,4.51,0,0,1,4.22.55s-.58.08-2.13,3.34-12.65,9.28-12.65,9.28-5,2.88-8.1,2.4Z"/><path class="cls-11" d="M219.43,37.21a3.24,3.24,0,0,0,.42-1.6,1.69,1.69,0,0,1,.77-1.4,1.9,1.9,0,0,1,1-.07l3.62.42c.37,0,.81.14.95.49a7.2,7.2,0,0,1-2.61,1.55,32.05,32.05,0,0,0-5,3c-.38.26-.87.54-1.27.31a.87.87,0,0,1-.18-1.21,2.44,2.44,0,0,1,1.12-.77A2.69,2.69,0,0,0,219.43,37.21Z"/><path class="cls-12" d="M209.14,55.91a33.51,33.51,0,0,1-2.58-3.6s-.8,1-1.38.84c0,0,2.67,2.22,2.67,3.24C207.85,56.39,208.34,56.53,209.14,55.91Z"/><path class="cls-3" d="M43.56,91.7s-9.1-6.11-9.1-17.42,4.55-17,4.55-17,7.54-10,16.64-10.53,14,2.08,14,2.08,9.75,5.07,13.39,14,0,18.72,0,18.72-3.25,7.19-9.23,11.33-16.12,3.49-16.12,3.49S49,95.6,43.56,91.7Z"/><path class="cls-4" d="M68.21,68.7A5.56,5.56,0,0,1,64.79,68a14.9,14.9,0,0,1-2.19-1.2A14.94,14.94,0,0,1,59.27,63a20.68,20.68,0,0,1-1.39-2.13,45.66,45.66,0,0,1-1.8-4.44,7.9,7.9,0,0,0-2.81-3.79c-.71-.45-1.53-.72-2.27-1.12a3.06,3.06,0,0,1-1.63-1.84,1.23,1.23,0,0,1,.21-1.09,1.5,1.5,0,0,1,.77-.39c1-.25,2-.2,3-.36.76-.12,1.5-.36,2.26-.51a20.78,20.78,0,0,1,7,.17,19.08,19.08,0,0,1,3.21.63,23,23,0,0,1,3.07,1.36A66,66,0,0,1,75.06,53a3.81,3.81,0,0,1,.82.66,8.34,8.34,0,0,1,.9,1.49c.72,1.26,1.9,2.28,2.26,3.69.53,2.12-1,4.26-2.11,6q-.5.76-1,1.51a6.16,6.16,0,0,1-1.28,1.5,6,6,0,0,1-3.45.83Z"/><path class="cls-5" d="M60.41,50.67a1.42,1.42,0,0,1,.18,1.86,14.06,14.06,0,0,1-2.22,3.17.24.24,0,0,1-.16.1.22.22,0,0,1-.13-.06,2.81,2.81,0,0,1-.74-2,4.19,4.19,0,0,1,.33-2.71,2.11,2.11,0,0,1,1.58-.95,1.23,1.23,0,0,1,.81.18A1.62,1.62,0,0,1,60.41,50.67Z"/><path class="cls-5" d="M74.21,53.34a24.85,24.85,0,0,1,2.1,2.27,6.71,6.71,0,0,1,.33,7.55A13.41,13.41,0,0,1,73,66.9a4,4,0,0,1-1.64,0,4.91,4.91,0,0,1-1.78-1,5.85,5.85,0,0,1-1.48-3.34,9.49,9.49,0,0,1-.16-3,19.49,19.49,0,0,1,.54-2.16,14,14,0,0,1,1.08-3.48,2.91,2.91,0,0,1,3-1.62A3.76,3.76,0,0,1,74.21,53.34Z"/><path class="cls-6" d="M61.61,56.8a1.65,1.65,0,0,1-.68,1c-1.44,1.07-2.37,3.14-1.65,4.81.38-2.08,1.84-3.78,3.24-5.37a.6.6,0,0,1,.4-.26.55.55,0,0,1,.27.09,5.38,5.38,0,0,1,2.1,2.5c.47,1,.75,2.08,1.14,3.11A5.36,5.36,0,0,0,66.19,60a15.25,15.25,0,0,0-1.66-2.12,1.33,1.33,0,0,1-.29-.71.58.58,0,0,1,.41-.59.87.87,0,0,1,.48.09c2.57,1,5.08,2.18,7.57,3.36a16.5,16.5,0,0,0-3.56-3.09,7.13,7.13,0,0,0-4.51-1.09,12.6,12.6,0,0,1,4.14-4,2.72,2.72,0,0,0-1.81.81,28.46,28.46,0,0,0-2.87,2.68l-.51-.13c-.3-1-1.41-1.77-1.86-2.85a14.19,14.19,0,0,1-.42-1.62,1.94,1.94,0,0,0-1-1.31,52,52,0,0,0,1.72,5.5,4.48,4.48,0,0,0-3.29-1.24,11.07,11.07,0,0,0-3.52.76q-1.28.45-2.53,1a15.91,15.91,0,0,1,7.18-.18C60.75,55.39,61.78,55.75,61.61,56.8Z"/><path class="cls-7" d="M63.25,57.22a3.37,3.37,0,0,1-1.53-.92,3,3,0,0,1-.5-1.68c0-.5,0-1,.57-1.32a1.13,1.13,0,0,1,.53-.1,2.78,2.78,0,0,1,1.56.79l.66.54a4,4,0,0,1,1.05,1.11,1.2,1.2,0,0,1-1.15,1.89A4,4,0,0,1,63.25,57.22Z"/><path class="cls-13" d="M35.2,73.79c0,6.28,8.56,13.36,12.27,13.46,4,.11,13.46-5.49,14.2-9.49.54-2.94.26-8.79-3-12.72a16.37,16.37,0,0,0-11.46-5.39C43.19,59.65,35.2,67.51,35.2,73.79Z"/><path class="cls-9" d="M65.1,53.07s.27-.74-2.63-3.63a12.1,12.1,0,0,0-1.64-9.28A24.68,24.68,0,0,0,54.94,34a19.22,19.22,0,0,0-9.23-2.35A16.69,16.69,0,0,0,36,35.15s1.7-1.51,2.74-.59a9.75,9.75,0,0,1,1.82,2.48,12.12,12.12,0,0,0,3.56,4.31C46.82,43.46,57.9,51,62.07,50c0,0,1.2.54,2.6,3.22Z"/><path class="cls-10" d="M62.15,49.65a24.53,24.53,0,0,0-5.35-7C53,39.13,43.41,34.42,43.41,34.42a4.51,4.51,0,0,0-4.22.55s.58.08,2.13,3.34S54,47.59,54,47.59s5,2.88,8.1,2.4Z"/><path class="cls-11" d="M52.07,37.21a3.24,3.24,0,0,1-.42-1.6,1.69,1.69,0,0,0-.77-1.4,1.9,1.9,0,0,0-1-.07l-3.62.42c-.37,0-.81.14-.95.49A7.2,7.2,0,0,0,47.9,36.6a32.05,32.05,0,0,1,5,3c.38.26.87.54,1.27.31a.87.87,0,0,0,.18-1.21,2.44,2.44,0,0,0-1.12-.77A2.69,2.69,0,0,1,52.07,37.21Z"/><path class="cls-12" d="M62.36,55.91a33.51,33.51,0,0,0,2.58-3.6s.8,1,1.38.84c0,0-2.67,2.22-2.67,3.24C63.65,56.39,63.16,56.53,62.36,55.91Z"/><path class="cls-3" d="M184.56,176.37s-9.1-6.11-9.1-17.42,4.55-17,4.55-17,7.54-10,16.64-10.53,14,2.08,14,2.08,9.75,5.07,13.39,14,0,18.72,0,18.72-3.25,7.19-9.23,11.33S198.73,181,198.73,181,190,180.27,184.56,176.37Z"/><path class="cls-4" d="M209.21,153.37a5.56,5.56,0,0,1-3.43-.74,11.19,11.19,0,0,1-5.52-4.91,20.68,20.68,0,0,1-1.39-2.13,45.66,45.66,0,0,1-1.8-4.44,7.9,7.9,0,0,0-2.81-3.79c-.71-.45-1.53-.72-2.27-1.12a3.06,3.06,0,0,1-1.63-1.84,1.23,1.23,0,0,1,.21-1.09,1.5,1.5,0,0,1,.77-.39c1-.25,2-.2,3-.36.76-.12,1.5-.36,2.26-.51a20.78,20.78,0,0,1,7,.17,19.08,19.08,0,0,1,3.21.63,23,23,0,0,1,3.07,1.36,66,66,0,0,1,6.24,3.45,3.81,3.81,0,0,1,.82.66,8.34,8.34,0,0,1,.9,1.49c.72,1.26,1.9,2.28,2.26,3.69.53,2.12-1,4.26-2.11,6q-.5.76-1,1.51a6.16,6.16,0,0,1-1.28,1.5,6,6,0,0,1-3.45.83Z"/><path class="cls-5" d="M201.41,135.33a1.42,1.42,0,0,1,.18,1.86,14.06,14.06,0,0,1-2.22,3.17.24.24,0,0,1-.16.1.22.22,0,0,1-.13-.06,2.81,2.81,0,0,1-.74-2,4.19,4.19,0,0,1,.33-2.71,2.11,2.11,0,0,1,1.58-.95,1.23,1.23,0,0,1,.81.18A1.62,1.62,0,0,1,201.41,135.33Z"/><path class="cls-5" d="M215.21,138a24.85,24.85,0,0,1,2.1,2.27,6.71,6.71,0,0,1,.33,7.55,13.41,13.41,0,0,1-3.61,3.75,4,4,0,0,1-1.64,0,4.91,4.91,0,0,1-1.78-1,5.85,5.85,0,0,1-1.48-3.34,9.49,9.49,0,0,1-.16-3,19.49,19.49,0,0,1,.54-2.16,14,14,0,0,1,1.08-3.48,2.91,2.91,0,0,1,3-1.62A3.76,3.76,0,0,1,215.21,138Z"/><path class="cls-6" d="M202.61,141.46a1.65,1.65,0,0,1-.68,1c-1.44,1.07-2.37,3.14-1.65,4.81.38-2.08,1.84-3.78,3.24-5.37a.6.6,0,0,1,.4-.26.55.55,0,0,1,.27.09,5.38,5.38,0,0,1,2.1,2.5c.47,1,.75,2.08,1.14,3.11a5.36,5.36,0,0,0-.24-2.74,15.25,15.25,0,0,0-1.66-2.12,1.33,1.33,0,0,1-.29-.71.58.58,0,0,1,.41-.59.87.87,0,0,1,.48.09c2.57,1,5.08,2.18,7.57,3.36a16.5,16.5,0,0,0-3.56-3.09,7.13,7.13,0,0,0-4.51-1.09,12.6,12.6,0,0,1,4.14-4,2.72,2.72,0,0,0-1.81.81A28.46,28.46,0,0,0,205.1,140l-.51-.13c-.3-1-1.41-1.77-1.86-2.85a14.19,14.19,0,0,1-.42-1.62,1.94,1.94,0,0,0-1-1.31,52,52,0,0,0,1.72,5.5,4.48,4.48,0,0,0-3.29-1.24,11.07,11.07,0,0,0-3.52.76q-1.28.45-2.53,1a15.91,15.91,0,0,1,7.18-.18C201.75,140.06,202.78,140.42,202.61,141.46Z"/><path class="cls-7" d="M204.25,141.88a3.37,3.37,0,0,1-1.53-.92,3,3,0,0,1-.5-1.68c0-.5,0-1,.57-1.32a1.13,1.13,0,0,1,.53-.1,2.78,2.78,0,0,1,1.56.79l.66.54a4,4,0,0,1,1.05,1.11,1.2,1.2,0,0,1-1.15,1.89A4,4,0,0,1,204.25,141.88Z"/><path class="cls-14" d="M176.2,158.46c0,6.28,8.56,13.36,12.27,13.46,4,.11,13.46-5.49,14.2-9.49.54-2.94.26-8.79-3-12.72a16.37,16.37,0,0,0-11.46-5.39C184.19,144.31,176.2,152.18,176.2,158.46Z"/><path class="cls-9" d="M206.1,137.74s.27-.74-2.63-3.63a12.1,12.1,0,0,0-1.64-9.28,24.68,24.68,0,0,0-5.89-6.17,19.22,19.22,0,0,0-9.23-2.35,16.69,16.69,0,0,0-9.66,3.51s1.7-1.51,2.74-.59a9.75,9.75,0,0,1,1.82,2.48,12.12,12.12,0,0,0,3.56,4.31c2.65,2.1,13.73,9.59,17.9,8.63,0,0,1.2.54,2.6,3.22Z"/><path class="cls-10" d="M203.15,134.32a24.53,24.53,0,0,0-5.35-7c-3.79-3.54-13.39-8.25-13.39-8.25a4.51,4.51,0,0,0-4.22.55s.58.08,2.13,3.34S195,132.25,195,132.25s5,2.88,8.1,2.4Z"/><path class="cls-11" d="M193.07,121.87a3.24,3.24,0,0,1-.42-1.6,1.69,1.69,0,0,0-.77-1.4,1.9,1.9,0,0,0-1-.07l-3.62.42c-.37,0-.81.14-.95.49a7.2,7.2,0,0,0,2.61,1.55,32.05,32.05,0,0,1,5,3c.38.26.87.54,1.27.31a.87.87,0,0,0,.18-1.21,2.44,2.44,0,0,0-1.12-.77A2.69,2.69,0,0,1,193.07,121.87Z"/><path class="cls-12" d="M203.36,140.57a33.51,33.51,0,0,0,2.58-3.6s.8,1,1.38.84c0,0-2.67,2.22-2.67,3.24C204.65,141.06,204.16,141.19,203.36,140.57Z"/><path class="cls-15" d="M90.82,141.92s-6.17-8.19-14.08-10.14A72.42,72.42,0,0,0,85.66,126a14.09,14.09,0,0,0,1.14-1,7.43,7.43,0,0,0,1.71-2v0a8.62,8.62,0,0,0,.7-1.23A9.74,9.74,0,0,1,91,119.23c.75-.67,1.86-.05,2.41.33a16.54,16.54,0,0,0-9.33-3.25,19.22,19.22,0,0,0-9.23,2.35A24.68,24.68,0,0,0,69,124.83a11.37,11.37,0,0,0-1.94,6.79,22.46,22.46,0,0,0-6.93,1.85s-9.75,5.07-13.39,14,0,18.72,0,18.72S50,173.42,56,177.56,72.1,181,72.1,181s8.71-.78,14.17-4.68c0,0,9.1-6.11,9.1-17.42S90.82,141.92,90.82,141.92Z"/><path class="cls-15" d="M93.45,119.57l.33.25S93.65,119.71,93.45,119.57Z"/></svg>