<svg id="Layer_1" data-name="Layer 1" xmlns="http://www.w3.org/2000/svg" viewBox="0 0 270.26 221.26"><defs><style>.cls-1{fill:#31331c;}.cls-2{fill:#525731;}.cls-3{fill:#3c6715;}.cls-4{fill:#7bb51f;}.cls-5{fill:#405113;}.cls-6{fill:#549911;}.cls-7{fill:#f4a608;}.cls-8{fill:#fdd211;}.cls-9{fill:#ffff50;}.cls-10{fill:#ffffe9;}.cls-11{fill:#9e591b;stroke:#9e591b;stroke-miterlimit:10;stroke-width:0.32px;}.cls-12{fill:#fc0;}</style></defs><title>pineapply1.1</title><path class="cls-1" d="M270.26,12.79c0-.35,0-.69,0-1v-.05a10,10,0,0,0-.91-4.84l0-.07c-.13-.3-.26-.59-.42-.87l0,0c-2.56-4.6-7.5-6.66-14.23-5.82a73.5,73.5,0,0,0-24.38,8.06c-5.87,3.27-17.51,10.59-21.74,13.67-5.35,3.89-44.12,42-49,48.14-7.07,8.93-15,23.09-18.43,33a4.38,4.38,0,0,0-.76-.7,10,10,0,0,0,3.07-7.43,10.81,10.81,0,0,0-1.23-5.08,2.24,2.24,0,0,0,.66-1.58,2.31,2.31,0,0,0-2.34-2.28,2.33,2.33,0,0,0-1.49.56l-.11-.05a47.57,47.57,0,0,0,2.24-4.52c2.45-5.67,5.1-11.24,7.7-16.84a69.71,69.71,0,0,0,2.68-7.56c4.25-1.74,6.49-6.91,8.36-10.69,1.3-3.45,1.73-8.29-2.53-3.33-4.12,4.19-5.67,10-7.35,15.5-1.56,5.64-4.47,10.74-6.81,16.06-1.71,3.68-3.17,7.47-4.79,11.19a5.88,5.88,0,0,0-2.25-.49,5.81,5.81,0,0,0-1,.09,5.81,5.81,0,0,0-1-.09,5.88,5.88,0,0,0-2.25.49c-1.61-3.72-3.08-7.51-4.79-11.19-2.34-5.32-5.25-10.42-6.81-16.06-1.67-5.46-3.23-11.31-7.35-15.5-4.26-5-3.82-.12-2.53,3.33,1.86,3.78,4.11,8.95,8.36,10.69a69.74,69.74,0,0,0,2.68,7.56c2.61,5.59,5.26,11.17,7.7,16.84a47.57,47.57,0,0,0,2.24,4.52l-.11.05a2.33,2.33,0,0,0-1.49-.56,2.31,2.31,0,0,0-2.34,2.28,2.24,2.24,0,0,0,.66,1.58,10.81,10.81,0,0,0-1.23,5.08,10,10,0,0,0,3.07,7.43,4.36,4.36,0,0,0-.76.7c-3.47-9.89-11.36-24.05-18.43-33-4.87-6.15-43.65-44.25-49-48.14C57.55,18.84,45.91,11.52,40,8.24A73.5,73.5,0,0,0,15.66.18C8.93-.66,4,1.41,1.42,6l0,0c-.15.28-.28.57-.42.87l0,.07A10,10,0,0,0,0,11.75v.05c0,.3,0,.64,0,1,0,0,0,.07,0,.11H0c0,.22,0,.43,0,.67a28.09,28.09,0,0,0,1.36,8.88l.1.32q.21.66.47,1.38l.12.35h0c.75,2.05,1.76,4.46,3.1,7.47l.56,1.27c.71,1.58,1.33,3,1.91,4.31h0c.44,1,.85,2,1.24,2.9h0l.32.79h0l.09.22c.95,2.33,1.76,4.51,2.56,6.84h0c.34,1,.68,2,1,3.11h0l.23.71h0l.49,1.56h0l.52,1.66.08.27c.34,1.12.68,2.3,1,3.51l.24.9c.46,1.72.92,3.54,1.37,5.41h0c.55,2.31,1.1,4.73,1.63,7.28.35,1.7.69,3.45,1,5.25h0l.06.32q.66,3.51,1.28,7.27c.11.64.21,1.26.32,1.9q.42,2.62.83,5.35l.07.45h0c0,.19.05.37.08.55h0a21.19,21.19,0,0,0,2.42,7.48,24.5,24.5,0,0,0,3.09,4.82l.2.24q.38.44.78.85l.37.38q.44.43.92.83l.2.18h0c2.9,2.38,6.69,4.07,12.14,5.6,5.17,1.45,5.56,1.5,14.27,1.71,7.83.19,9.08.13,9.92-.46s4.09-.95,4.09-.35a46.06,46.06,0,0,1-6.26,3.41,100.75,100.75,0,0,0-12.1,7.17c-6.46,4.5-8.15,5.45-12.58,7-.74.27-1.35.5-1.91.72l-.22.09-.75.31-.29.13-.55.26-.32.17-.4.22-.38.24-.25.17q-.29.21-.56.45h0a14.3,14.3,0,0,0-1.25,1.24c-.14.15-.26.35-.4.52-.26.32-.52.64-.77,1s-.32.52-.48.78-.42.7-.62,1.08-.26.53-.39.8c-.2.43-.4.88-.58,1.33-.1.25-.2.49-.29.75-.19.54-.37,1.08-.53,1.64,0,.15-.1.28-.14.43h0a27.24,27.24,0,0,0-.94,5.64h0c0,.44,0,.89,0,1.33s0,1.19.07,1.85c0,.15,0,.3,0,.46q.08.93.2,1.93l0,.13a55.69,55.69,0,0,0,1.91,9.07l0,.08a62.12,62.12,0,0,0,2.61,6.22l0,.09.51,1.06.11.23.33.67h0l.16.31a75.82,75.82,0,0,1,3.34,7.25h0c.17.45.32.88.46,1.3l0,.12c.13.39.24.77.34,1.14l.06.24c.09.34.16.68.22,1,0,.1,0,.19,0,.29a12.37,12.37,0,0,1,.14,1.38c0,.22,0,.43,0,.65s0,.31,0,.47,0,.49-.06.73,0,.29-.07.43-.09.49-.15.74-.07.28-.11.42c-.7,2.37-2.26,4.76-4.72,7.89-5.9,7.52-13,18.37-13,19.91,0,2.56,2.75,1,9.7-5.52,4.35-4.08,6.4-5.85,8.31-6.6a6.67,6.67,0,0,1,.73-.24l.2-.05a12.38,12.38,0,0,1,2.85-.25,13,13,0,0,1,3.07.27H45a6.3,6.3,0,0,1,.73.24l.13.05a6.67,6.67,0,0,1,.69.33l.15.09c.23.14.47.29.71.46l.13.1c.26.19.53.4.82.65h0c.31.27.65.56,1,.89h0l.92.86a24.3,24.3,0,0,0,2,1.68h0l.2.14q.7.53,1.42,1l.49.31q.78.47,1.59.87l.25.14a24.83,24.83,0,0,1,2.55,1.45,23.39,23.39,0,0,1,3,2.22c4.62,4.22,6.13,4.87,8.25,3.57,1.35-.84,3.32-3.58,5.05-7a12.73,12.73,0,0,1,2.4-3.43,9.89,9.89,0,0,1,1.29-1.09l.09-.05a11.1,11.1,0,0,1,1.41-.81l.4-.18a15.17,15.17,0,0,1,1.45-.56l.37-.12c.66-.2,1.36-.38,2.12-.54l.61-.15.77-.19.62-.19.81-.28.47-.18q.52-.22,1-.46l.18-.09a11.85,11.85,0,0,0,1.12-.67h0a8.65,8.65,0,0,0,2-1.87,55.46,55.46,0,0,0,5-10.38,63.88,63.88,0,0,0,1.5-7.45c1.38-9.13,2.7-12.86,7-19.93.92-1.5,3.37-6,5.44-10a96.81,96.81,0,0,1,10.65-17,51.59,51.59,0,0,0,4.76-7.75,12.33,12.33,0,0,0,.54,1.32l.47,1-.6.61a5.59,5.59,0,0,0-1.45,2.78,14.62,14.62,0,0,0-.68,5.12c0,1.94,0,2.24.31,2.92a1.85,1.85,0,0,0,.42.75c.21,0,.13.36-.18.88a2.61,2.61,0,0,0-.29,1.61,4.32,4.32,0,0,0,1.38,3.28l.68.8-.34.46a6.38,6.38,0,0,0,.34,7.46l.38.32-.46.6c-1,1.36-.86,2.54.6,3.79.6.51.6.26.05,2.18a3.71,3.71,0,0,0-.13,1.51,5,5,0,0,0,1,2.5,2.42,2.42,0,0,1,.29,2.56,3.89,3.89,0,0,0-.23,2.6c.94,2.43,1.36,4,3.87,4.64l1.75-.18.91-.29.91.29,1.75.18c2.52-.6,2.93-2.21,3.87-4.64a3.89,3.89,0,0,0-.23-2.6,2.42,2.42,0,0,1,.29-2.56,5,5,0,0,0,1-2.5,3.7,3.7,0,0,0-.13-1.51c-.55-1.92-.55-1.67.05-2.18,1.46-1.25,1.64-2.43.6-3.79l-.46-.6.38-.32a6.38,6.38,0,0,0,.34-7.46l-.34-.46.68-.8a4.32,4.32,0,0,0,1.38-3.28,2.61,2.61,0,0,0-.29-1.61c-.31-.52-.38-.88-.18-.88a1.86,1.86,0,0,0,.42-.75c.27-.68.3-1,.31-2.92a14.63,14.63,0,0,0-.68-5.12,5.59,5.59,0,0,0-1.45-2.78l-.6-.61.47-1a12.33,12.33,0,0,0,.54-1.32,51.58,51.58,0,0,0,4.76,7.75,96.81,96.81,0,0,1,10.65,17c2.08,4,4.53,8.53,5.44,10,4.33,7.07,5.64,10.8,7,19.93a63.88,63.88,0,0,0,1.5,7.45,55.45,55.45,0,0,0,5,10.38,8.62,8.62,0,0,0,2,1.86h0a11.87,11.87,0,0,0,1.13.67l.18.08q.48.24,1,.46l.47.18.81.28.62.19.77.19.61.15c.76.16,1.46.34,2.12.54l.37.12a15.09,15.09,0,0,1,1.45.56l.4.18a11.1,11.1,0,0,1,1.41.81l.09.05a9.91,9.91,0,0,1,1.29,1.09,12.73,12.73,0,0,1,2.4,3.43c1.73,3.46,3.7,6.21,5.05,7,2.12,1.31,3.63.66,8.25-3.57a23.35,23.35,0,0,1,3-2.21,24.87,24.87,0,0,1,2.57-1.46l.25-.14q.82-.4,1.59-.87l.49-.31q.72-.46,1.42-1l.2-.14h0a24.27,24.27,0,0,0,2-1.67l.92-.86h0c.36-.33.69-.62,1-.89h0c.29-.24.56-.45.82-.65l.13-.09c.24-.17.48-.33.71-.46l.15-.08a6.69,6.69,0,0,1,.69-.33l.13-.05a6.31,6.31,0,0,1,.74-.24h.06a13,13,0,0,1,3.07-.27,12.38,12.38,0,0,1,2.85.25l.2.05a6.65,6.65,0,0,1,.73.24c1.92.76,4,2.53,8.31,6.6,7,6.52,9.7,8.08,9.7,5.52,0-1.53-7.08-12.39-13-19.91-2.46-3.13-4-5.52-4.72-7.89,0-.14-.08-.28-.11-.41s-.11-.5-.16-.75-.05-.29-.07-.43,0-.48-.06-.73,0-.31,0-.47,0-.42,0-.63a12.35,12.35,0,0,1,.15-1.39c0-.09,0-.19,0-.28.06-.33.14-.66.22-1l.06-.24q.15-.56.34-1.14l0-.12c.14-.42.29-.85.46-1.3h0a75.54,75.54,0,0,1,3.34-7.25l.16-.31h0l.33-.67.11-.23.49-1,.06-.12a62.15,62.15,0,0,0,2.6-6.21l0-.08a55.66,55.66,0,0,0,1.9-9.07l0-.14q.12-1,.2-1.93c0-.16,0-.31,0-.46,0-.66.08-1.29.07-1.84s0-.88,0-1.33h0a27.24,27.24,0,0,0-.94-5.64h0c0-.15-.1-.28-.14-.43-.16-.56-.34-1.11-.53-1.64-.09-.25-.19-.5-.29-.74-.18-.46-.38-.9-.58-1.33-.13-.27-.26-.54-.39-.8s-.41-.73-.62-1.08-.31-.53-.48-.78-.51-.68-.77-1c-.14-.17-.26-.36-.4-.52a14.3,14.3,0,0,0-1.25-1.24h0c-.18-.16-.37-.31-.57-.45l-.25-.17-.37-.24-.4-.23-.32-.17-.55-.26-.29-.13-.75-.31-.23-.09-1.05-.4h0l-.86-.31c-4.42-1.59-6.12-2.54-12.58-7a100.75,100.75,0,0,0-12.1-7.17,46.06,46.06,0,0,1-6.26-3.41c0-.6,3.12-.33,4.09.35s2.08.65,9.92.46c8.71-.21,9.1-.26,14.27-1.71,5.44-1.53,9.24-3.22,12.14-5.6h0l.2-.18q.48-.4.92-.83l.36-.37q.41-.41.79-.86l.2-.24a24.51,24.51,0,0,0,3.09-4.82,21.19,21.19,0,0,0,2.42-7.48h0c0-.18.05-.36.08-.55h0l.07-.45q.41-2.73.83-5.35c.1-.65.21-1.26.32-1.9q.63-3.76,1.28-7.28l.06-.31h0c.34-1.8.68-3.56,1-5.25.53-2.55,1.07-5,1.63-7.28h0c.45-1.89.91-3.71,1.37-5.43l.23-.87c.33-1.21.67-2.39,1-3.51l.09-.3.51-1.63h0l.49-1.56h0l.23-.71h0c.35-1.09.69-2.12,1-3.11h0c.79-2.33,1.61-4.5,2.55-6.83l.09-.23h0l.32-.79h0c.38-.92.79-1.88,1.23-2.9h0c.58-1.33,1.2-2.73,1.91-4.31l.55-1.24c1.35-3,2.36-5.43,3.11-7.49h0l.12-.36q.25-.71.47-1.37l.1-.32a28.08,28.08,0,0,0,1.36-8.87c0-.25,0-.45,0-.67h0S270.26,12.83,270.26,12.79Z"/><path class="cls-2" d="M202.11,220.26a2.48,2.48,0,0,1-1.3-.46c-1-.61-2.81-2.9-4.68-6.64a13.76,13.76,0,0,0-2.59-3.69,10.77,10.77,0,0,0-1.42-1.2l-.12-.07a12.07,12.07,0,0,0-1.51-.87l-.35-.16a16.43,16.43,0,0,0-1.63-.63l-.38-.13c-.73-.22-1.46-.41-2.21-.57l-.32-.08-.25-.07-.74-.18-.56-.17-.78-.27-.44-.17c-.33-.14-.64-.28-.94-.43l-.11-.05a10.75,10.75,0,0,1-1-.6l-.09-.06a7.62,7.62,0,0,1-1.79-1.64A54.54,54.54,0,0,1,174,192a64,64,0,0,1-1.46-7.28c-1.41-9.29-2.75-13.09-7.16-20.3-.9-1.47-3.33-5.94-5.41-10a97.9,97.9,0,0,0-10.73-17.17,50.23,50.23,0,0,1-4.66-7.59l-1.08-2.17-.76,2.3a11.21,11.21,0,0,1-.5,1.22l-.76,1.65,1.08,1.1a4.64,4.64,0,0,1,1.21,2.37,13.68,13.68,0,0,1,.63,4.83c0,1.91,0,2.06-.23,2.55-.06.14-.11.25-.15.33a1.08,1.08,0,0,0-.31.34,1.84,1.84,0,0,0,.28,1.83c.11.19.16.27.16,1.1,0,1-.14,1.43-1.15,2.64l-1.18,1.41.82,1.09a5,5,0,0,1,.79,3.64,5.23,5.23,0,0,1-1,2.46l-1.11.93,1,1.36c.62.81.72,1.41-.46,2.42l-.14.11c-.91.74-.74,1.34-.35,2.65l.13.45a2.74,2.74,0,0,1,.09,1.12,4,4,0,0,1-.82,2.09,3.39,3.39,0,0,0-.38,3.41,2.94,2.94,0,0,1,.22,2l-.2.51c-.77,2-1.13,3-2.8,3.42l-1.47-.15-1.12-.35-1.12.35-1.47.15c-1.67-.44-2-1.4-2.8-3.42l-.2-.51a3,3,0,0,1,.22-2,3.38,3.38,0,0,0-.38-3.41,4,4,0,0,1-.82-2.09,2.75,2.75,0,0,1,.09-1.12l.13-.45c.38-1.31.56-1.91-.35-2.65l-.14-.11c-1.18-1-1.08-1.61-.46-2.42l1-1.36-1.12-.93a5.24,5.24,0,0,1-1-2.46,5,5,0,0,1,.79-3.63l.83-1.1-1.19-1.41c-1-1.21-1.14-1.63-1.14-2.64,0-.83,0-.9.15-1.09a1.85,1.85,0,0,0,.28-1.84,1.09,1.09,0,0,0-.31-.34c0-.08-.09-.19-.15-.33-.2-.49-.23-.64-.24-2.55a13.68,13.68,0,0,1,.63-4.83,4.64,4.64,0,0,1,1.21-2.37l1.08-1.1-.76-1.65a11.63,11.63,0,0,1-.5-1.22l-.76-2.3-1.08,2.17A50.33,50.33,0,0,1,121,137.3a97.78,97.78,0,0,0-10.73,17.17c-2.08,4-4.51,8.49-5.41,10-4.42,7.21-5.75,11-7.16,20.3A64,64,0,0,1,96.21,192,54.47,54.47,0,0,1,91.4,202.1a7.66,7.66,0,0,1-1.79,1.65l-.08.06c-.33.22-.64.4-1,.57l-.17.08c-.29.15-.6.29-.93.42l-.37.15-.82.29-.59.19-.67.17-.33.08-.31.08c-.75.16-1.48.34-2.21.57l-.38.13a15.91,15.91,0,0,0-1.55.6l-.44.2a12,12,0,0,0-1.53.88l-.09.06a10.78,10.78,0,0,0-1.42,1.2,13.77,13.77,0,0,0-2.59,3.69c-1.87,3.75-3.7,6-4.68,6.64a2.48,2.48,0,0,1-1.3.46c-1.08,0-2.63-1.06-5.75-3.91A24.3,24.3,0,0,0,59.27,214a25.52,25.52,0,0,0-2.67-1.51l-.25-.13c-.51-.25-1-.53-1.51-.82l-.46-.3c-.46-.29-.92-.61-1.36-.95l-.19-.14A23.33,23.33,0,0,1,51,208.57l-.94-.87-1.24-1.14v0l-.67-.52-.16-.11c-.25-.18-.51-.35-.77-.5l-.17-.1a7.5,7.5,0,0,0-.79-.38l-.12,0a7.78,7.78,0,0,0-.88-.29l-.1,0a13.67,13.67,0,0,0-3.28-.29,13.56,13.56,0,0,0-3.08.27l-.24.06a7.43,7.43,0,0,0-.83.27c-2.13.84-4.27,2.72-8.63,6.81-5.31,5-7.29,6.18-8,6.38,0,0,0-.08,0-.13.21-1.37,6.47-11.26,12.77-19.29,2.37-3,4.11-5.57,4.89-8.22,0-.15.09-.31.13-.46s.12-.54.17-.81l0-.1c0-.12,0-.25.06-.37s.05-.53.07-.8v-.14c0-.12,0-.25,0-.37s0-.36,0-.55v-.15a13.54,13.54,0,0,0-.16-1.49l0-.31c-.06-.35-.15-.7-.24-1.07l-.07-.26c-.1-.38-.22-.78-.35-1.18l0-.13c-.14-.42-.29-.87-.47-1.33a75.17,75.17,0,0,0-3.38-7.35l-.59-1.19-.5-1a61.36,61.36,0,0,1-2.6-6.19,55.3,55.3,0,0,1-1.89-9v-.13c-.08-.66-.15-1.29-.19-1.89l0-.44c0-.64-.07-1.24-.07-1.78,0-.21,0-.42,0-.63h0l0-.64a26.2,26.2,0,0,1,.91-5.43l.06-.21.06-.19c.16-.54.33-1.07.51-1.58.09-.25.18-.48.28-.72.18-.44.36-.86.56-1.28s.26-.54.37-.76.39-.69.59-1l.13-.22c.11-.18.21-.35.32-.51.23-.33.47-.63.71-.93l.2-.27a2.7,2.7,0,0,1,.16-.21,13.34,13.34,0,0,1,1.16-1.16c.16-.14.33-.27.5-.4l.22-.15.33-.21.36-.2.29-.16.52-.25.27-.12.73-.3.14-.06c.63-.24,1.23-.47,2-.74,4.5-1.61,6.3-2.62,12.81-7.16a100,100,0,0,1,12-7.09C71.5,116,71.5,115.72,71.5,115c0-.5-.27-1.33-2.08-1.33a7.36,7.36,0,0,0-3.58.86c-.35.24-1,.37-3.6.37-1.23,0-2.89,0-5.72-.1-8.67-.21-8.93-.24-14-1.67-5.46-1.53-9.09-3.2-11.77-5.41l-.19-.16c-.3-.26-.59-.52-.87-.79l-.35-.35q-.38-.39-.74-.81l-.19-.23a23.49,23.49,0,0,1-3-4.63,20.17,20.17,0,0,1-2.33-7.2l-.16-1q-.41-2.73-.83-5.36l-.32-1.9c-.37-2.23-.75-4.39-1.12-6.43l-.22-1.19c-.34-1.8-.68-3.57-1-5.27-.42-2-.86-4-1.36-6.14h0l-.28-1.17c-.48-2-.93-3.78-1.37-5.44l-.24-.9c-.31-1.13-.63-2.23-.94-3.29l-.66-2.17c-.17-.54-.75-2.4-.75-2.4-.34-1.05-.67-2.05-1-3l-.44-1.3h0c-.67-1.89-1.36-3.7-2.13-5.6l-.42-1c-.38-.93-.8-1.89-1.24-2.91L8,35.79H8c-.41-.93-.85-1.91-1.33-3-.2-.44-.38-.85-.55-1.25C4.65,28.37,3.71,26.08,3,24.15l-.19-.51q-.21-.61-.4-1.17l-.07-.22A27.14,27.14,0,0,1,1,13.57v-.78c0-.35,0-.68,0-1a9.09,9.09,0,0,1,.82-4.49l.07-.14L2,7l.3-.48C4.3,2.9,7.94,1,12.83,1a22,22,0,0,1,2.71.18,73,73,0,0,1,24,7.94C45.44,12.4,57,19.65,61.19,22.72c5.25,3.82,44,41.91,48.8,48,7,8.8,14.83,22.86,18.27,32.69l.57,1.64,1.13-1.32a3.39,3.39,0,0,1,.58-.54l1-.73-.92-.83a9,9,0,0,1-2.73-6.69A9.83,9.83,0,0,1,129,90.28l.35-.65-.52-.52a1.25,1.25,0,0,1-.37-.88,1.31,1.31,0,0,1,1.34-1.28,1.33,1.33,0,0,1,.85.33l.52.43.52-.28.59-.24a4.88,4.88,0,0,1,1.87-.42,4.77,4.77,0,0,1,.81.08l.17,0,.17,0a4.77,4.77,0,0,1,.81-.08,4.88,4.88,0,0,1,1.87.42l.69.28.4.18.54-.37a1.32,1.32,0,0,1,2.19,1,1.26,1.26,0,0,1-.37.88l-.52.52.35.65a9.82,9.82,0,0,1,1.11,4.61,9,9,0,0,1-2.73,6.69l-.92.83,1,.73a3.36,3.36,0,0,1,.59.54l1.13,1.32.57-1.64c3.45-9.83,11.3-23.89,18.27-32.69,4.78-6,43.55-44.13,48.8-48,4.23-3.07,15.75-10.32,21.63-13.6a73,73,0,0,1,24-7.94A21.94,21.94,0,0,1,257.43,1C262.33,1,266,2.9,268,6.49l.52.93a9,9,0,0,1,.78,4.34c0,.35,0,1.47,0,1.47v.33a27,27,0,0,1-1.32,8.58l-.1.32c-.12.39-.26.79-.41,1.2l-.17.48c-.71,1.94-1.66,4.23-3.08,7.43l-.55,1.24c-.48,1.06-.92,2-1.33,3h0l-.58,1.35c-.44,1-.86,2-1.24,2.91L260,41.12h0c-.68,1.68-1.3,3.28-1.89,4.93v0L257.47,48c-.34,1-.68,2-1,3.13l-.35,1.1h0l-1,3.14h0c-.34,1.13-.68,2.3-1,3.51l-.24.88c-.44,1.64-.89,3.43-1.38,5.46-.62,2.61-1.15,5-1.63,7.31-.35,1.7-.7,3.47-1,5.27l-.22,1.19h0c-.38,2-.75,4.2-1.12,6.43l-.32,1.91q-.42,2.63-.83,5.36l-.15,1a20.21,20.21,0,0,1-2.33,7.2,23.54,23.54,0,0,1-3,4.63l-.19.22q-.36.42-.74.81l-.35.35q-.42.41-.87.79l-.19.16c-2.69,2.21-6.32,3.88-11.77,5.41-5.1,1.43-5.36,1.46-14,1.67-2.83.07-4.49.1-5.72.1-2.58,0-3.26-.13-3.6-.37a7.36,7.36,0,0,0-3.58-.86c-1.81,0-2.08.83-2.08,1.33,0,.67,0,.94,6.82,4.31a99.93,99.93,0,0,1,12,7.09c6.51,4.54,8.31,5.54,12.81,7.16l.85.31,1,.39.16.06.79.32.27.12.53.25.34.18.32.18.31.2.24.16c.17.13.34.26.5.4a13.38,13.38,0,0,1,1.16,1.16c.06.06.11.14.16.21l.2.26c.25.3.49.6.72.93.11.16.21.33.31.51l.13.23c.2.33.4.67.59,1s.25.51.37.77c.2.42.38.84.56,1.28.09.24.19.47.27.71.19.52.36,1,.52,1.59l.06.2.05.2a26.21,26.21,0,0,1,.91,5.43l0,.64h0c0,.21,0,.42,0,.64,0,.54,0,1.14-.07,1.77l0,.45c0,.61-.11,1.23-.19,1.88l0,.13a54.56,54.56,0,0,1-1.87,8.9l0,.1a60.59,60.59,0,0,1-2.55,6.07l-.06.13-.49,1-.59,1.19A75.26,75.26,0,0,0,232.5,181c-.18.46-.33.91-.47,1.34l0,.12c-.13.41-.25.81-.35,1.2l0,.17c-.11.45-.19.8-.26,1.15,0,.07,0,.15,0,.22a13.8,13.8,0,0,0-.17,1.59v.17c0,.17,0,.35,0,.52s0,.24,0,.37v.14c0,.27,0,.54.07.8s0,.24.06.35l0,.12c0,.28.1.55.17.82s.08.3.12.45c.79,2.66,2.52,5.21,4.89,8.23,6.3,8,12.56,17.91,12.77,19.33,0,0,0,.06,0,.09-.73-.2-2.7-1.4-8-6.38-4.36-4.09-6.5-6-8.63-6.81a7.78,7.78,0,0,0-.84-.27l-.24-.06a13.54,13.54,0,0,0-3.08-.27,13.68,13.68,0,0,0-3.3.3,7.18,7.18,0,0,0-.92.29L224,205a7.57,7.57,0,0,0-.78.38l-.16.09c-.27.16-.53.33-.8.52l-.15.11c-.24.18-.49.37-.76.59v0l-1.14,1-.93.87a22.73,22.73,0,0,1-1.88,1.61l-.19.14c-.45.34-.9.65-1.36.95l-.47.3c-.5.3-1,.58-1.51.83l-.18.1A27.21,27.21,0,0,0,211,214a24.17,24.17,0,0,0-3.12,2.31C204.74,219.2,203.18,220.26,202.11,220.26Zm-83.7-164c-3.13-1.73-5.07-5.71-6.65-9l-.43-.88a10.77,10.77,0,0,1-.79-3.85,9.17,9.17,0,0,1,1.66,1.62C115.43,47.46,117,51.84,118.41,56.24Zm33.45,0c1.37-4.4,3-8.78,6.17-12a9.39,9.39,0,0,1,1.71-1.66,11,11,0,0,1-.83,3.94l-.39.79C156.92,50.53,155,54.51,151.85,56.24Z"/><path class="cls-3" d="M214.8,59.54s-5.74-7-16.34-.14c0,0,12.51-.79,15.4,5.09Z"/><path class="cls-4" d="M213.21,53.38s-7-6.39-17.18-1.82c0,0,11,1.51,17.82,8.93Z"/><path class="cls-5" d="M214,58.19s-9.61-12.42-16-12.93a19,19,0,0,1,18.16,6.25Z"/><path class="cls-6" d="M214.15,54.59s-4.85-10.41-9.94-14.52c0,0,8.4.14,12.93,9.29Z"/><path class="cls-3" d="M214.23,51.77s-5.44-7.62,1.22-17.1a28.26,28.26,0,0,1,1.17,16.85Z"/><path class="cls-4" d="M217.32,46.13c4.18-3.19,11.9-1.57,11.9-1.57-6.78,1.41-15.49,12.37-15.49,12.37S211.28,50.8,217.32,46.13Z"/><path class="cls-6" d="M221.11,50.34a16,16,0,0,1,8.91-.25s-10.45,3.73-15.62,12.38C214.4,62.47,209.66,54.47,221.11,50.34Z"/><path class="cls-5" d="M214.7,64.85s-4.65-6.27,4.54-9.22c2.33-.75,5.5-.45,9.5,1.09,0,0-12.41,1.78-14,8.13"/><path class="cls-7" d="M213.35,99.57c-7.64,0-11.8-2.14-14.82-7.64s-2-16.49,2.16-23.53c3-5.1,7.52-7.92,12.67-7.92S223,63.3,226,68.4c4.17,7,5.17,18,2.16,23.53S221,99.57,213.35,99.57Z"/><path class="cls-8" d="M208.14,63.34c3.33-1.58,12-3.89,13.84,13C223.26,87.92,214.19,98,207,95.65s-8.88-9.38-8-17.51C199.72,71.69,203.17,65.71,208.14,63.34Z"/><path class="cls-9" d="M202.31,81.9c-1.12-4.32-.76-9.62,4.66-14.75,5.92-5.6,11.66-.75,5.59,13.36C208.76,89.31,202.92,84.29,202.31,81.9Z"/><path class="cls-10" d="M205.34,73.79c.95-2.51,2.65-5.81,4.53-4.9s.91,7.55-.75,9.43S204,77.33,205.34,73.79Z"/><path class="cls-11" d="M228,91.65a10.08,10.08,0,0,0-1-2.82c.81-.59,1.58-1.2,2.27-1.83a6.14,6.14,0,0,1-.16,2.09.45.45,0,0,0,.08.41,20.05,20.05,0,0,0,.72-4.4l-.05.06A10.77,10.77,0,0,0,228.35,82a11.45,11.45,0,0,0,1.37-1.88q-.09-.77-.21-1.55a.45.45,0,0,0-.11.16,9,9,0,0,1-1.6,2.52A15.66,15.66,0,0,0,225.62,79c-.37-.32-.78-.64-1.2-1a22.87,22.87,0,0,0,3.17-3,15.14,15.14,0,0,1,1.38,1.4.44.44,0,0,0,.15.11q-.19-.87-.44-1.72l-.54-.5.27-.4q-.18-.57-.38-1.12l0,0a7.9,7.9,0,0,1-.55.89c-1.11-.9-2.44-1.84-3.9-2.81a9.29,9.29,0,0,0,1.51-2.36c.6.42,1.17.83,1.7,1.23-.24-.47-.48-.93-.75-1.37-.11-.18-.22-.35-.33-.52l-.3-.21.06-.18h0l0-.06q-.27-.4-.54-.77l-.06-.08h0c-.05.19-.11.38-.18.58-1-.65-2-1.32-3.06-2a11.36,11.36,0,0,0,.86-1.17c-.23-.2-.46-.39-.7-.58a10.49,10.49,0,0,1-.93,1.26l-.36-.23c-1.08-.69-2.17-1.39-3.24-2.09q.54-.47,1-.95-.47-.18-1-.33-.4.38-.84.76-1-.64-1.87-1.28c-.39,0-.78-.05-1.18-.05s-.79,0-1.18.05q-.92.64-1.87,1.28-.44-.38-.84-.76-.48.15-1,.33.48.47,1,.95c-1.07.71-2.17,1.4-3.25,2.09l-.35.23a10.5,10.5,0,0,1-.93-1.26c-.24.18-.47.38-.7.58a11.39,11.39,0,0,0,.86,1.17c-1.07.68-2.09,1.35-3.06,2-.06-.19-.12-.38-.18-.58q-.34.45-.65.93l.06.17-.31.22-.31.51q-.39.67-.75,1.38c.53-.4,1.1-.82,1.7-1.24a9.32,9.32,0,0,0,1.51,2.36c-1.46,1-2.79,1.91-3.9,2.81a7.91,7.91,0,0,1-.58-1c-.13.38-.26.76-.38,1.14l.27.4-.54.5q-.22.77-.4,1.56a.44.44,0,0,0,.28-.14A15.07,15.07,0,0,1,199.1,75a22.83,22.83,0,0,0,3.17,3c-.43.33-.83.65-1.2,1a15.69,15.69,0,0,0-2.18,2.26,9,9,0,0,1-1.6-2.52.45.45,0,0,0-.11-.16q-.12.78-.21,1.56A11.46,11.46,0,0,0,198.34,82a10.79,10.79,0,0,0-1.47,3.13l0-.05a20.1,20.1,0,0,0,.71,4.39.45.45,0,0,0,.08-.42,6.19,6.19,0,0,1-.14-2.07c.69.62,1.45,1.22,2.26,1.81a10.07,10.07,0,0,0-1,2.82l-.53-.34c.1.22.21.44.32.64q.46.83,1,1.57,0-.16,0-.33l.92.58,2.45,1.55a9.17,9.17,0,0,0-.24,1.53q.42.31.88.59a8.14,8.14,0,0,1,.17-1.59,40.6,40.6,0,0,1,3.8,2.78l-.12.36a19.63,19.63,0,0,0,2.22.4c-.32-.35-.67-.69-1-1a11,11,0,0,1,1.65-2.67c.8.57,1.55,1.14,2.23,1.72l.29.25a14.2,14.2,0,0,0-1.57,1.86l1.09.05a13.86,13.86,0,0,1,1.14-1.29,13.74,13.74,0,0,1,1.14,1.29l1.09-.05A14.18,14.18,0,0,0,214,97.66l.29-.25c.68-.58,1.44-1.16,2.23-1.72a10.92,10.92,0,0,1,1.65,2.67c-.37.33-.71.68-1,1a19.64,19.64,0,0,0,2.22-.4c0-.12-.07-.24-.11-.36A40.57,40.57,0,0,1,223,95.84a8.14,8.14,0,0,1,.17,1.59q.45-.27.87-.58a9.3,9.3,0,0,0-.25-1.53c.81-.52,1.64-1,2.46-1.56l.92-.57c0,.12,0,.23,0,.33.33-.49.65-1,1-1.57.11-.21.22-.42.32-.64Zm1.12-5.73A26.44,26.44,0,0,1,226.51,88a14,14,0,0,0-2.12-2.58,27.12,27.12,0,0,0,3.33-2.77A9.6,9.6,0,0,1,229.07,85.92Zm-25.33-.54a47.26,47.26,0,0,1,4.37-3.18l2.94,1.89,1.46.93c-1.66,1.08-3.2,2.12-4.48,3.13l0,0C206.55,87.22,205.1,86.31,203.74,85.38Zm3.55,3.37-.19.16a15.55,15.55,0,0,0-2.2,2.28c-1.36-.85-2.72-1.72-4-2.61A13.14,13.14,0,0,1,203.05,86C204.41,86.94,205.85,87.84,207.29,88.74Zm6.05-9.92,1.71,1.09,2.7,1.73-2.61,1.67-1.8,1.15-1.8-1.15-2.61-1.67,2.7-1.73Zm0-1.07c-1.54-1-3.09-2-4.52-3.06l.77-.49c1.25-.8,2.52-1.61,3.74-2.42,1.23.81,2.49,1.62,3.75,2.42l.77.49C216.43,75.73,214.89,76.76,213.35,77.75Zm2.19,1.41-1.36-.87c1.57-1,3.1-2,4.5-3.07,1.53,1,3,1.93,4.24,2.85-1.34,1-2.83,2-4.35,3C217.6,80.48,216.58,79.82,215.54,79.16Zm3.1-5-1.06-.68c-1.12-.72-2.28-1.45-3.42-2.2,1.38-.93,2.7-1.86,3.88-2.8l1.33.85,2.8,1.8A30.4,30.4,0,0,1,218.64,74.12Zm-5.29-3.42c-1.37-.91-2.69-1.85-3.89-2.78,1.33-.86,2.65-1.73,3.89-2.6,1.24.87,2.56,1.74,3.89,2.6C216,68.86,214.71,69.79,213.35,70.7Zm-.81.54c-1.14.75-2.29,1.49-3.41,2.2l-1.06.68a30.29,30.29,0,0,1-3.53-3l2.8-1.8,1.33-.85C209.83,69.38,211.15,70.31,212.53,71.24Zm0,7-1.36.87c-1,.66-2.06,1.32-3,2-1.52-1-3-2-4.35-3,1.27-.91,2.72-1.86,4.25-2.85C209.42,76.25,210.95,77.27,212.51,78.29Zm.83,7.26c1.66,1.08,3.21,2.11,4.5,3.1-1.55,1-3.09,2-4.5,3-1.41-1-3-2-4.5-3C210.14,87.66,211.68,86.63,213.34,85.55Zm.83-.54,1.46-.93,2.94-1.89a47.31,47.31,0,0,1,4.37,3.18c-1.36.93-2.81,1.84-4.25,2.74l0,0C217.37,87.14,215.84,86.1,214.17,85Zm9.46,1a13.1,13.1,0,0,1,2.14,2.58c-1.26.89-2.62,1.76-4,2.61a15.38,15.38,0,0,0-2.19-2.28l-.19-.16C220.84,87.84,222.28,86.93,223.64,86Zm1.4-6.29A14.63,14.63,0,0,1,227.19,82a26.32,26.32,0,0,1-3.48,2.89l-.12-.11a45.39,45.39,0,0,0-4.19-3.08c1.52-1,3-2,4.29-3C224.17,79,224.63,79.35,225,79.71Zm1.86-5.26a22.89,22.89,0,0,1-3.24,3c-1.26-.92-2.69-1.87-4.21-2.84a29.19,29.19,0,0,0,3.49-3C224.43,72.58,225.79,73.54,226.9,74.44Zm-6-8.61c1.17.75,2.3,1.48,3.36,2.2l0,.08a8.38,8.38,0,0,1-1.48,2.3l-2.93-1.88-1.08-.69A24.45,24.45,0,0,0,220.94,65.84ZM216.47,63c1.15.76,2.32,1.5,3.47,2.24l.23.14a25.16,25.16,0,0,1-2.19,2c-1.32-.85-2.62-1.71-3.86-2.57C215,64.16,215.74,63.56,216.47,63Zm-3.12-2.14c.75.54,1.54,1.08,2.34,1.62-.73.59-1.51,1.19-2.34,1.78-.83-.59-1.61-1.19-2.34-1.78C211.81,61.9,212.59,61.36,213.34,60.82Zm-6.6,4.38c1.16-.74,2.33-1.49,3.47-2.24.73.6,1.52,1.21,2.34,1.81-1.23.86-2.54,1.72-3.85,2.57a25.24,25.24,0,0,1-2.19-2Zm-4.33,2.92,0-.08c1.05-.71,2.18-1.44,3.36-2.2a24.3,24.3,0,0,0,2.16,2l-1.07.69-2.93,1.89A8.38,8.38,0,0,1,202.42,68.12Zm-2.63,6.33c1.11-.91,2.47-1.86,4-2.85a29.14,29.14,0,0,0,3.49,3c-1.52,1-3,1.93-4.21,2.84A22.8,22.8,0,0,1,199.79,74.44Zm1.86,5.26c.41-.35.87-.71,1.35-1.08,1.32,1,2.77,2,4.29,3a45.25,45.25,0,0,0-4.19,3.08l-.12.11A26.23,26.23,0,0,1,199.51,82,14.36,14.36,0,0,1,201.65,79.71Zm-4,6.23A9.68,9.68,0,0,1,199,82.71a27.15,27.15,0,0,0,3.32,2.76A14,14,0,0,0,200.18,88,26.46,26.46,0,0,1,197.63,85.94Zm5.48,8.48L200.87,93l-1.31-.82a9,9,0,0,1,.91-2.81c1.24.87,2.57,1.72,3.9,2.56A11.05,11.05,0,0,0,203.12,94.41Zm4.69,3.33a44.31,44.31,0,0,0-3.91-2.82,10.15,10.15,0,0,1,1.24-2.52l.09.06c1.41.89,2.85,1.79,4.2,2.71A12,12,0,0,0,207.81,97.74ZM210,94.48c-1.39-1-2.86-1.88-4.32-2.79l0,0a14.66,14.66,0,0,1,2-2.08l.41-.34c1.54,1,3.09,1.95,4.49,3-.4.31-.8.62-1.17.94A16.8,16.8,0,0,0,210,94.48Zm3.67,2.24-.36.31-.36-.31c-.68-.58-1.43-1.15-2.22-1.71A15.64,15.64,0,0,1,212,93.83c.42-.36.87-.72,1.34-1.07.47.35.92.71,1.34,1.07A15.68,15.68,0,0,1,215.92,95C215.13,95.56,214.38,96.13,213.7,96.72Zm1.57-3.57c-.37-.32-.77-.63-1.17-.94,1.41-1,3-2,4.49-3l.41.34a14.67,14.67,0,0,1,2,2.08l0,0c-1.45.91-2.93,1.84-4.32,2.79A16.73,16.73,0,0,0,215.27,93.14Zm3.61,4.59a11.89,11.89,0,0,0-1.63-2.57c1.35-.92,2.79-1.82,4.2-2.71l.09-.05a10.15,10.15,0,0,1,1.24,2.52A44.62,44.62,0,0,0,218.89,97.73ZM225.82,93l-2.25,1.42a11.13,11.13,0,0,0-1.26-2.5c1.33-.83,2.66-1.68,3.9-2.56a9,9,0,0,1,.91,2.81Z"/><path class="cls-12" d="M73.55,80.16h0c0-.13,0-.27-.05-.4,0-.33-.08-.66-.13-1,0-.06,0-.11,0-.17h0q-.16-1-.4-2.07h0l-.05-.2c-.1-.44-.21-.87-.33-1.3l-.05-.21h0c-.08-.3-.17-.6-.27-.9h0l-.14-.4a26.13,26.13,0,0,0-2.27-5.11,15.6,15.6,0,0,0-8.67-7.31c4.14-3.33,11.39-4.37,11.39-4.37a17.32,17.32,0,0,0-7.84-1.42,36.47,36.47,0,0,1,9.13-5.21,16,16,0,0,0-8.91.25,20.44,20.44,0,0,0-2.15.92c3-2.91,6.88-6,10.26-6.69,0,0-7.68-1.61-11.86,1.54a27.81,27.81,0,0,0-1.91-11.44A17.08,17.08,0,0,0,56,43.21a14.8,14.8,0,0,0-8-3.13,29.45,29.45,0,0,1,5.54,6.64,18.48,18.48,0,0,0-11.79-1.46c2.63.21,5.81,2.44,8.64,5a16.76,16.76,0,0,0-10.56,1.31,36.12,36.12,0,0,1,13.08,5c-2.67-.45-6.24,0-10.65,2.86,0,0,6.54-.41,11.25,1.58a15.48,15.48,0,0,0-9,7.42,26.32,26.32,0,0,0-2.35,5.36l-.05.16h0c-.09.3-.18.59-.26.89h0l-.05.2c-.11.42-.22.84-.32,1.26l0,.1h0q-.25,1.11-.43,2.23h0l0,.14c-.06.36-.1.73-.15,1.09,0,.11,0,.22,0,.33h0a29.55,29.55,0,0,0-.14,5h0c0,.05,0,.1,0,.16s0,.35,0,.53.05.57.09.85,0,.32.06.48c0,.33.11.66.17,1,0,.09,0,.19.05.28.08.39.17.76.28,1.13h0a12.66,12.66,0,0,0,.69,1.83l0,0c.1.22.21.44.32.64s.14.22.2.33q.28.48.57.93c.06.1.12.21.19.31v0a13.39,13.39,0,0,0,3.13,3.34v0q.42.31.88.59v0A13.48,13.48,0,0,0,51.18,99v0a19.64,19.64,0,0,0,2.22.4l0,0c.51.06,1,.11,1.6.15v0l1.09.05v0l1.12,0,1.12,0v0l1.09-.05v0c.55,0,1.09-.08,1.6-.15l0,0a19.65,19.65,0,0,0,2.22-.4v0A13.48,13.48,0,0,0,67,97.41v0q.45-.27.87-.58v0A13.38,13.38,0,0,0,71,93.49v0c.07-.1.12-.21.19-.31q.29-.44.56-.92c.07-.12.14-.22.21-.34s.22-.42.32-.64l0,0A12.68,12.68,0,0,0,73,89.5h0c.11-.36.2-.74.28-1.13,0-.09,0-.18.05-.27.07-.33.13-.66.18-1,0-.14,0-.28.06-.43q.06-.46.1-.94c0-.14,0-.29,0-.43s0-.13,0-.2h0A29.53,29.53,0,0,0,73.55,80.16Z"/><path class="cls-3" d="M199.94,149.19s-5.74-7-16.34-.14c0,0,12.51-.79,15.4,5.09Z"/><path class="cls-4" d="M198.35,143s-7-6.39-17.18-1.82c0,0,11,1.51,17.82,8.93Z"/><path class="cls-5" d="M199.1,147.84s-9.61-12.42-16-12.93a19,19,0,0,1,18.16,6.25Z"/><path class="cls-6" d="M199.28,144.25s-4.85-10.41-9.94-14.52c0,0,8.4.14,12.93,9.29Z"/><path class="cls-3" d="M199.37,141.42s-5.44-7.62,1.22-17.1a28.26,28.26,0,0,1,1.17,16.85Z"/><path class="cls-4" d="M202.46,135.78c4.18-3.19,11.9-1.57,11.9-1.57-6.78,1.41-15.49,12.37-15.49,12.37S196.42,140.45,202.46,135.78Z"/><path class="cls-6" d="M206.25,140a16,16,0,0,1,8.91-.25s-10.45,3.73-15.62,12.38C199.54,152.12,194.8,144.12,206.25,140Z"/><path class="cls-5" d="M199.83,154.51s-4.65-6.27,4.54-9.22c2.33-.75,5.5-.45,9.5,1.09,0,0-12.41,1.78-14,8.13"/><path class="cls-7" d="M198.48,189.23c-7.64,0-11.8-2.14-14.82-7.64s-2-16.49,2.16-23.53c3-5.1,7.52-7.92,12.67-7.92s9.65,2.81,12.67,7.92c4.17,7,5.17,18,2.16,23.53S206.13,189.23,198.48,189.23Z"/><path class="cls-8" d="M193.28,153c3.33-1.58,12-3.89,13.84,13,1.28,11.6-7.79,21.73-14.95,19.33s-8.88-9.38-8-17.51C184.86,161.35,188.31,155.36,193.28,153Z"/><path class="cls-9" d="M187.44,171.55c-1.12-4.32-.76-9.62,4.66-14.75,5.92-5.6,11.66-.75,5.59,13.36C193.9,179,188.06,173.94,187.44,171.55Z"/><path class="cls-10" d="M190.47,163.44c.95-2.51,2.65-5.81,4.53-4.9s.91,7.55-.75,9.43S189.13,167,190.47,163.44Z"/><path class="cls-11" d="M213.09,181.3a10.08,10.08,0,0,0-1-2.82c.81-.59,1.58-1.2,2.27-1.83a6.14,6.14,0,0,1-.16,2.09.45.45,0,0,0,.08.41,20.05,20.05,0,0,0,.72-4.4l-.05.06a10.77,10.77,0,0,0-1.47-3.13,11.45,11.45,0,0,0,1.37-1.88q-.09-.77-.21-1.55a.45.45,0,0,0-.11.16,9,9,0,0,1-1.6,2.52,15.66,15.66,0,0,0-2.18-2.26c-.37-.32-.78-.64-1.2-1a22.87,22.87,0,0,0,3.17-3,15.14,15.14,0,0,1,1.38,1.4.44.44,0,0,0,.15.11q-.19-.87-.44-1.72l-.54-.5.27-.4q-.18-.57-.38-1.12l0,0a7.9,7.9,0,0,1-.55.89c-1.11-.9-2.44-1.84-3.9-2.81a9.29,9.29,0,0,0,1.51-2.36c.6.42,1.17.83,1.7,1.23-.24-.47-.48-.93-.75-1.37-.11-.18-.22-.35-.33-.52l-.3-.21.06-.18h0l0-.06q-.27-.4-.54-.77l-.06-.08h0c-.05.19-.11.38-.18.58-1-.65-2-1.32-3.06-2a11.36,11.36,0,0,0,.86-1.17c-.23-.2-.46-.39-.7-.58a10.49,10.49,0,0,1-.93,1.26l-.36-.23c-1.08-.69-2.17-1.39-3.24-2.09q.54-.47,1-.95-.47-.18-1-.33-.4.38-.84.76-1-.64-1.87-1.28c-.39,0-.78-.05-1.18-.05s-.79,0-1.18.05q-.92.64-1.87,1.28-.44-.38-.84-.76-.48.15-1,.33.48.47,1,.95c-1.07.71-2.17,1.4-3.25,2.09l-.35.23a10.5,10.5,0,0,1-.93-1.26c-.24.18-.47.38-.7.58a11.39,11.39,0,0,0,.86,1.17c-1.07.68-2.09,1.35-3.06,2-.06-.19-.12-.38-.18-.58q-.34.45-.65.93l.06.17-.31.22-.31.51q-.39.67-.75,1.38c.53-.4,1.1-.82,1.7-1.24a9.32,9.32,0,0,0,1.51,2.36c-1.46,1-2.79,1.91-3.9,2.81a7.91,7.91,0,0,1-.58-1c-.13.38-.26.76-.38,1.14l.27.4-.54.5q-.22.77-.4,1.56a.44.44,0,0,0,.28-.14,15.07,15.07,0,0,1,1.21-1.2,22.83,22.83,0,0,0,3.17,3c-.43.33-.83.65-1.2,1a15.69,15.69,0,0,0-2.18,2.26,9,9,0,0,1-1.6-2.52.45.45,0,0,0-.11-.16q-.12.78-.21,1.56a11.46,11.46,0,0,0,1.37,1.87,10.79,10.79,0,0,0-1.47,3.13l0-.05a20.1,20.1,0,0,0,.71,4.39.45.45,0,0,0,.08-.42,6.19,6.19,0,0,1-.14-2.07c.69.62,1.45,1.22,2.26,1.81a10.07,10.07,0,0,0-1,2.82l-.53-.34c.1.22.21.44.32.64q.46.83,1,1.57,0-.16,0-.33l.92.58L188,185a9.17,9.17,0,0,0-.24,1.53q.42.31.88.59a8.14,8.14,0,0,1,.17-1.59,40.6,40.6,0,0,1,3.8,2.78l-.12.36a19.63,19.63,0,0,0,2.22.4c-.32-.35-.67-.69-1-1a11,11,0,0,1,1.65-2.67c.8.57,1.55,1.14,2.23,1.72l.29.25a14.2,14.2,0,0,0-1.57,1.86l1.09.05a13.86,13.86,0,0,1,1.14-1.29,13.74,13.74,0,0,1,1.14,1.29l1.09-.05a14.18,14.18,0,0,0-1.57-1.86l.29-.25c.68-.58,1.44-1.16,2.23-1.72a10.92,10.92,0,0,1,1.65,2.67c-.37.33-.71.68-1,1a19.64,19.64,0,0,0,2.22-.4c0-.12-.07-.24-.11-.36a40.57,40.57,0,0,1,3.79-2.77,8.14,8.14,0,0,1,.17,1.59q.45-.27.87-.58A9.3,9.3,0,0,0,209,185c.81-.52,1.64-1,2.46-1.56l.92-.57c0,.12,0,.23,0,.33.33-.49.65-1,1-1.57.11-.21.22-.42.32-.64Zm1.12-5.73a26.44,26.44,0,0,1-2.57,2.12,14,14,0,0,0-2.12-2.58,27.12,27.12,0,0,0,3.33-2.77A9.6,9.6,0,0,1,214.21,175.57ZM188.88,175a47.26,47.26,0,0,1,4.37-3.18l2.94,1.89,1.46.93c-1.66,1.08-3.2,2.12-4.48,3.13l0,0C191.69,176.87,190.24,176,188.88,175Zm3.55,3.37-.19.16a15.55,15.55,0,0,0-2.2,2.28c-1.36-.85-2.72-1.72-4-2.61a13.14,13.14,0,0,1,2.14-2.58C189.55,176.59,191,177.5,192.43,178.39Zm6.05-9.92,1.71,1.09,2.7,1.73L200.29,173l-1.8,1.15-1.8-1.15-2.61-1.67,2.7-1.73Zm0-1.07c-1.54-1-3.09-2-4.52-3.06l.77-.49c1.25-.8,2.52-1.61,3.74-2.42,1.23.81,2.49,1.62,3.75,2.42l.77.49C201.57,165.38,200,166.41,198.48,167.41Zm2.19,1.41-1.36-.87c1.57-1,3.1-2,4.5-3.07,1.53,1,3,1.93,4.24,2.85-1.34,1-2.83,2-4.35,3C202.74,170.13,201.72,169.48,200.68,168.81Zm3.1-5-1.06-.68c-1.12-.72-2.28-1.45-3.42-2.2,1.38-.93,2.7-1.86,3.88-2.8l1.33.85,2.8,1.8A30.4,30.4,0,0,1,203.77,163.78Zm-5.29-3.42c-1.37-.91-2.69-1.85-3.89-2.78,1.33-.86,2.65-1.73,3.89-2.6,1.24.87,2.56,1.74,3.89,2.6C201.17,158.51,199.85,159.44,198.48,160.35Zm-.81.54c-1.14.75-2.29,1.49-3.41,2.2l-1.06.68a30.29,30.29,0,0,1-3.53-3l2.8-1.8,1.33-.85C195,159,196.29,160,197.67,160.9Zm0,7-1.36.87c-1,.66-2.06,1.32-3,2-1.52-1-3-2-4.35-3,1.27-.91,2.72-1.86,4.25-2.85C194.55,165.9,196.08,166.93,197.65,167.94Zm.83,7.26c1.66,1.08,3.21,2.11,4.5,3.1-1.55,1-3.09,2-4.5,3-1.41-1-3-2-4.5-3C195.28,177.32,196.82,176.28,198.48,175.21Zm.83-.54,1.46-.93,2.94-1.89a47.31,47.31,0,0,1,4.37,3.18c-1.36.93-2.81,1.84-4.25,2.74l0,0C202.51,176.8,201,175.75,199.31,174.67Zm9.46,1a13.1,13.1,0,0,1,2.14,2.58c-1.26.89-2.62,1.76-4,2.61a15.38,15.38,0,0,0-2.19-2.28l-.19-.16C206,177.5,207.42,176.59,208.77,175.65Zm1.4-6.29a14.63,14.63,0,0,1,2.15,2.25,26.32,26.32,0,0,1-3.48,2.89l-.12-.11a45.39,45.39,0,0,0-4.19-3.08c1.52-1,3-2,4.29-3C209.31,168.65,209.76,169,210.18,169.36ZM212,164.1a22.89,22.89,0,0,1-3.24,3c-1.26-.92-2.69-1.87-4.21-2.84a29.19,29.19,0,0,0,3.49-3C209.57,162.24,210.93,163.19,212,164.1Zm-6-8.61c1.17.75,2.3,1.48,3.36,2.2l0,.08a8.38,8.38,0,0,1-1.48,2.3L205,158.19l-1.08-.69A24.45,24.45,0,0,0,206.08,155.49Zm-4.48-2.88c1.15.76,2.32,1.5,3.47,2.24l.23.14a25.16,25.16,0,0,1-2.19,2c-1.32-.85-2.62-1.71-3.86-2.57C200.09,153.82,200.88,153.21,201.61,152.61Zm-3.12-2.14c.75.54,1.54,1.08,2.34,1.62-.73.59-1.51,1.19-2.34,1.78-.83-.59-1.61-1.19-2.34-1.78C196.95,151.55,197.73,151,198.48,150.47Zm-6.6,4.38c1.16-.74,2.33-1.49,3.47-2.24.73.6,1.52,1.21,2.34,1.81-1.23.86-2.54,1.72-3.85,2.57a25.24,25.24,0,0,1-2.19-2Zm-4.33,2.92,0-.08c1.05-.71,2.18-1.44,3.36-2.2a24.3,24.3,0,0,0,2.16,2l-1.07.69L189,160.07A8.38,8.38,0,0,1,187.56,157.77Zm-2.63,6.33c1.11-.91,2.47-1.86,4-2.85a29.14,29.14,0,0,0,3.49,3c-1.52,1-3,1.93-4.21,2.84A22.8,22.8,0,0,1,184.93,164.1Zm1.86,5.26c.41-.35.87-.71,1.35-1.08,1.32,1,2.77,2,4.29,3a45.25,45.25,0,0,0-4.19,3.08l-.12.11a26.23,26.23,0,0,1-3.47-2.89A14.36,14.36,0,0,1,186.79,169.36Zm-4,6.23a9.68,9.68,0,0,1,1.35-3.23,27.15,27.15,0,0,0,3.32,2.76,14,14,0,0,0-2.12,2.58A26.46,26.46,0,0,1,182.77,175.59Zm5.48,8.48L186,182.65l-1.31-.82a9,9,0,0,1,.91-2.81c1.24.87,2.57,1.72,3.9,2.56A11.05,11.05,0,0,0,188.25,184.06Zm4.69,3.33a44.31,44.31,0,0,0-3.91-2.82,10.15,10.15,0,0,1,1.24-2.52l.09.06c1.41.89,2.85,1.79,4.2,2.71A12,12,0,0,0,192.95,187.39Zm2.22-3.26c-1.39-1-2.86-1.88-4.32-2.79l0,0a14.66,14.66,0,0,1,2-2.08l.41-.34c1.54,1,3.09,1.95,4.49,3-.4.31-.8.62-1.17.94A16.8,16.8,0,0,0,195.16,184.13Zm3.67,2.24-.36.31-.36-.31c-.68-.58-1.43-1.15-2.22-1.71a15.64,15.64,0,0,1,1.23-1.17c.42-.36.87-.72,1.34-1.07.47.35.92.71,1.34,1.07a15.68,15.68,0,0,1,1.23,1.17C200.27,185.22,199.52,185.79,198.84,186.37Zm1.57-3.57c-.37-.32-.77-.63-1.17-.94,1.41-1,3-2,4.49-3l.41.34a14.67,14.67,0,0,1,2,2.08l0,0c-1.45.91-2.93,1.84-4.32,2.79A16.73,16.73,0,0,0,200.41,182.8Zm3.61,4.59a11.89,11.89,0,0,0-1.63-2.57c1.35-.92,2.79-1.82,4.2-2.71l.09-.05a10.15,10.15,0,0,1,1.24,2.52A44.62,44.62,0,0,0,204,187.39Zm6.93-4.74-2.25,1.42a11.13,11.13,0,0,0-1.26-2.5c1.33-.83,2.66-1.68,3.9-2.56a9,9,0,0,1,.91,2.81Z"/><path class="cls-12" d="M88.58,169.82h0c0-.13,0-.27-.05-.4,0-.33-.08-.66-.13-1l0-.17h0q-.16-1-.4-2.07h0l-.05-.2c-.1-.44-.21-.87-.33-1.31l-.05-.21h0c-.09-.3-.17-.6-.27-.9h0l-.13-.4a26.13,26.13,0,0,0-2.27-5.12,15.6,15.6,0,0,0-8.67-7.31c4.14-3.33,11.39-4.37,11.39-4.37A17.32,17.32,0,0,0,79.76,145a36.46,36.46,0,0,1,9.13-5.21A16,16,0,0,0,80,140a20.44,20.44,0,0,0-2.15.92c3-2.91,6.88-6,10.26-6.69,0,0-7.68-1.61-11.86,1.54a27.82,27.82,0,0,0-1.91-11.44,17.08,17.08,0,0,0-3.27,8.54,14.8,14.8,0,0,0-8-3.13,29.45,29.45,0,0,1,5.54,6.64,18.48,18.48,0,0,0-11.79-1.46c2.63.21,5.81,2.44,8.64,5a16.76,16.76,0,0,0-10.56,1.31,36.12,36.12,0,0,1,13.08,5c-2.67-.45-6.24,0-10.65,2.86,0,0,6.54-.41,11.25,1.58a15.48,15.48,0,0,0-9,7.42,26.32,26.32,0,0,0-2.35,5.36l-.05.16h0c-.09.3-.18.59-.26.89h0l-.05.2c-.11.42-.22.84-.32,1.26l0,.1h0q-.25,1.11-.43,2.23h0l0,.14c-.06.36-.1.73-.15,1.09,0,.11,0,.22,0,.33h0a29.55,29.55,0,0,0-.14,5h0c0,.05,0,.1,0,.16s0,.35,0,.53.05.57.09.85,0,.32.06.48c0,.33.11.65.17,1,0,.09,0,.19.05.28.08.39.17.76.28,1.12h0A12.71,12.71,0,0,0,57.1,181l0,0c.1.22.21.44.32.64s.14.22.2.34q.28.48.56.92c.06.1.12.21.19.31s0,0,0,0a13.39,13.39,0,0,0,3.13,3.34v0q.42.31.88.59v0a13.48,13.48,0,0,0,3.86,1.55v0a19.63,19.63,0,0,0,2.22.4l0,0c.51.06,1,.11,1.6.15v0l1.09.05v0l1.12,0,1.12,0v0l1.09-.05v0c.55,0,1.09-.08,1.6-.15l0,0a19.64,19.64,0,0,0,2.22-.4v0a13.48,13.48,0,0,0,3.86-1.55v0q.45-.27.87-.58v0a13.38,13.38,0,0,0,3.13-3.34v0c.07-.1.12-.21.19-.31q.29-.44.56-.92c.07-.12.14-.22.21-.34s.22-.42.32-.64l0,0a12.68,12.68,0,0,0,.69-1.83h0c.11-.36.2-.74.28-1.13,0-.09,0-.17.05-.26q.1-.49.18-1c0-.14,0-.28.06-.43q.06-.46.1-.94c0-.15,0-.29,0-.44s0-.13,0-.2h0A29.53,29.53,0,0,0,88.58,169.82Z"/></svg>