<svg id="Layer_1" data-name="Layer 1" xmlns="http://www.w3.org/2000/svg" viewBox="0 0 270.26 221.26"><defs><style>.cls-1{fill:#31331c;}.cls-2{fill:#525731;}.cls-3{fill:#3c6715;}.cls-4{fill:#7bb51f;}.cls-5{fill:#405113;}.cls-6{fill:#549911;}.cls-7{fill:#f4a608;}.cls-8{fill:#fdd211;}.cls-9{fill:#ffff50;}.cls-10{fill:#ffffe9;}.cls-11{fill:#9e591b;stroke:#9e591b;stroke-miterlimit:10;stroke-width:0.32px;}.cls-12{fill:#fc0;}</style></defs><title>pineapply3</title><path class="cls-1" d="M270.26,12.79c0-.35,0-.69,0-1v-.05a10,10,0,0,0-.91-4.84l0-.07c-.13-.3-.26-.59-.42-.87l0,0c-2.56-4.6-7.5-6.66-14.23-5.82a73.5,73.5,0,0,0-24.38,8.06c-5.87,3.27-17.51,10.59-21.74,13.67-5.35,3.89-44.12,42-49,48.14-7.07,8.93-15,23.09-18.43,33a4.38,4.38,0,0,0-.76-.7,10,10,0,0,0,3.07-7.43,10.81,10.81,0,0,0-1.23-5.08,2.24,2.24,0,0,0,.66-1.58,2.31,2.31,0,0,0-2.34-2.28,2.33,2.33,0,0,0-1.49.56l-.11-.05a47.57,47.57,0,0,0,2.24-4.52c2.45-5.67,5.1-11.24,7.7-16.84a69.71,69.71,0,0,0,2.68-7.56c4.25-1.74,6.49-6.91,8.36-10.69,1.3-3.45,1.73-8.29-2.53-3.33-4.12,4.19-5.67,10-7.35,15.5-1.56,5.64-4.47,10.74-6.81,16.06-1.71,3.68-3.17,7.47-4.79,11.19a5.88,5.88,0,0,0-2.25-.49,5.81,5.81,0,0,0-1,.09,5.81,5.81,0,0,0-1-.09,5.88,5.88,0,0,0-2.25.49c-1.61-3.72-3.08-7.51-4.79-11.19-2.34-5.32-5.25-10.42-6.81-16.06-1.67-5.46-3.23-11.31-7.35-15.5-4.26-5-3.82-.12-2.53,3.33,1.86,3.78,4.11,8.95,8.36,10.69a69.74,69.74,0,0,0,2.68,7.56c2.61,5.59,5.26,11.17,7.7,16.84a47.57,47.57,0,0,0,2.24,4.52l-.11.05a2.33,2.33,0,0,0-1.49-.56,2.31,2.31,0,0,0-2.34,2.28,2.24,2.24,0,0,0,.66,1.58,10.81,10.81,0,0,0-1.23,5.08,10,10,0,0,0,3.07,7.43,4.36,4.36,0,0,0-.76.7c-3.47-9.89-11.36-24.05-18.43-33-4.87-6.15-43.65-44.25-49-48.14C57.55,18.84,45.91,11.52,40,8.24A73.5,73.5,0,0,0,15.66.18C8.93-.66,4,1.41,1.42,6l0,0c-.15.28-.28.57-.42.87l0,.07A10,10,0,0,0,0,11.75v.05c0,.3,0,.64,0,1,0,0,0,.07,0,.11H0c0,.22,0,.43,0,.67a28.09,28.09,0,0,0,1.36,8.88l.1.32q.21.66.47,1.38l.12.35h0c.75,2.05,1.76,4.46,3.1,7.47l.56,1.27c.71,1.58,1.33,3,1.91,4.31h0c.44,1,.85,2,1.24,2.9h0l.32.79h0l.09.22c.95,2.33,1.76,4.51,2.56,6.84h0c.34,1,.68,2,1,3.11h0l.23.71h0l.49,1.56h0l.52,1.66.08.27c.34,1.12.68,2.3,1,3.51l.24.9c.46,1.72.92,3.54,1.37,5.41h0c.55,2.31,1.1,4.73,1.63,7.28.35,1.7.69,3.45,1,5.25h0l.06.32q.66,3.51,1.28,7.27c.11.64.21,1.26.32,1.9q.42,2.62.83,5.35l.07.45h0c0,.19.05.37.08.55h0a21.19,21.19,0,0,0,2.42,7.48,24.5,24.5,0,0,0,3.09,4.82l.2.24q.38.44.78.85l.37.38q.44.43.92.83l.2.18h0c2.9,2.38,6.69,4.07,12.14,5.6,5.17,1.45,5.56,1.5,14.27,1.71,7.83.19,9.08.13,9.92-.46s4.09-.95,4.09-.35a46.06,46.06,0,0,1-6.26,3.41,100.75,100.75,0,0,0-12.1,7.17c-6.46,4.5-8.15,5.45-12.58,7-.74.27-1.35.5-1.91.72l-.22.09-.75.31-.29.13-.55.26-.32.17-.4.22-.38.24-.25.17q-.29.21-.56.45h0a14.3,14.3,0,0,0-1.25,1.24c-.14.15-.26.35-.4.52-.26.32-.52.64-.77,1s-.32.52-.48.78-.42.7-.62,1.08-.26.53-.39.8c-.2.43-.4.88-.58,1.33-.1.25-.2.49-.29.75-.19.54-.37,1.08-.53,1.64,0,.15-.1.28-.14.43h0a27.24,27.24,0,0,0-.94,5.64h0c0,.44,0,.89,0,1.33s0,1.19.07,1.85c0,.15,0,.3,0,.46q.08.93.2,1.93l0,.13a55.69,55.69,0,0,0,1.91,9.07l0,.08a62.12,62.12,0,0,0,2.61,6.22l0,.09.51,1.06.11.23.33.67h0l.16.31a75.82,75.82,0,0,1,3.34,7.25h0c.17.45.32.88.46,1.3l0,.12c.13.39.24.77.34,1.14l.06.24c.09.34.16.68.22,1,0,.1,0,.19,0,.29a12.37,12.37,0,0,1,.14,1.38c0,.22,0,.43,0,.65s0,.31,0,.47,0,.49-.06.73,0,.29-.07.43-.09.49-.15.74-.07.28-.11.42c-.7,2.37-2.26,4.76-4.72,7.89-5.9,7.52-13,18.37-13,19.91,0,2.56,2.75,1,9.7-5.52,4.35-4.08,6.4-5.85,8.31-6.6a6.67,6.67,0,0,1,.73-.24l.2-.05a12.38,12.38,0,0,1,2.85-.25,13,13,0,0,1,3.07.27H45a6.3,6.3,0,0,1,.73.24l.13.05a6.67,6.67,0,0,1,.69.33l.15.09c.23.14.47.29.71.46l.13.1c.26.19.53.4.82.65h0c.31.27.65.56,1,.89h0l.92.86a24.3,24.3,0,0,0,2,1.68h0l.2.14q.7.53,1.42,1l.49.31q.78.47,1.59.87l.25.14a24.83,24.83,0,0,1,2.55,1.45,23.39,23.39,0,0,1,3,2.22c4.62,4.22,6.13,4.87,8.25,3.57,1.35-.84,3.32-3.58,5.05-7a12.73,12.73,0,0,1,2.4-3.43,9.89,9.89,0,0,1,1.29-1.09l.09-.05a11.1,11.1,0,0,1,1.41-.81l.4-.18a15.17,15.17,0,0,1,1.45-.56l.37-.12c.66-.2,1.36-.38,2.12-.54l.61-.15.77-.19.62-.19.81-.28.47-.18q.52-.22,1-.46l.18-.09a11.85,11.85,0,0,0,1.12-.67h0a8.65,8.65,0,0,0,2-1.87,55.46,55.46,0,0,0,5-10.38,63.88,63.88,0,0,0,1.5-7.45c1.38-9.13,2.7-12.86,7-19.93.92-1.5,3.37-6,5.44-10a96.81,96.81,0,0,1,10.65-17,51.59,51.59,0,0,0,4.76-7.75,12.33,12.33,0,0,0,.54,1.32l.47,1-.6.61a5.59,5.59,0,0,0-1.45,2.78,14.62,14.62,0,0,0-.68,5.12c0,1.94,0,2.24.31,2.92a1.85,1.85,0,0,0,.42.75c.21,0,.13.36-.18.88a2.61,2.61,0,0,0-.29,1.61,4.32,4.32,0,0,0,1.38,3.28l.68.8-.34.46a6.38,6.38,0,0,0,.34,7.46l.38.32-.46.6c-1,1.36-.86,2.54.6,3.79.6.51.6.26.05,2.18a3.71,3.71,0,0,0-.13,1.51,5,5,0,0,0,1,2.5,2.42,2.42,0,0,1,.29,2.56,3.89,3.89,0,0,0-.23,2.6c.94,2.43,1.36,4,3.87,4.64l1.75-.18.91-.29.91.29,1.75.18c2.52-.6,2.93-2.21,3.87-4.64a3.89,3.89,0,0,0-.23-2.6,2.42,2.42,0,0,1,.29-2.56,5,5,0,0,0,1-2.5,3.7,3.7,0,0,0-.13-1.51c-.55-1.92-.55-1.67.05-2.18,1.46-1.25,1.64-2.43.6-3.79l-.46-.6.38-.32a6.38,6.38,0,0,0,.34-7.46l-.34-.46.68-.8a4.32,4.32,0,0,0,1.38-3.28,2.61,2.61,0,0,0-.29-1.61c-.31-.52-.38-.88-.18-.88a1.86,1.86,0,0,0,.42-.75c.27-.68.3-1,.31-2.92a14.63,14.63,0,0,0-.68-5.12,5.59,5.59,0,0,0-1.45-2.78l-.6-.61.47-1a12.33,12.33,0,0,0,.54-1.32,51.58,51.58,0,0,0,4.76,7.75,96.81,96.81,0,0,1,10.65,17c2.08,4,4.53,8.53,5.44,10,4.33,7.07,5.64,10.8,7,19.93a63.88,63.88,0,0,0,1.5,7.45,55.45,55.45,0,0,0,5,10.38,8.62,8.62,0,0,0,2,1.86h0a11.87,11.87,0,0,0,1.13.67l.18.08q.48.24,1,.46l.47.18.81.28.62.19.77.19.61.15c.76.16,1.46.34,2.12.54l.37.12a15.09,15.09,0,0,1,1.45.56l.4.18a11.1,11.1,0,0,1,1.41.81l.09.05a9.91,9.91,0,0,1,1.29,1.09,12.73,12.73,0,0,1,2.4,3.43c1.73,3.46,3.7,6.21,5.05,7,2.12,1.31,3.63.66,8.25-3.57a23.35,23.35,0,0,1,3-2.21,24.87,24.87,0,0,1,2.57-1.46l.25-.14q.82-.4,1.59-.87l.49-.31q.72-.46,1.42-1l.2-.14h0a24.27,24.27,0,0,0,2-1.67l.92-.86h0c.36-.33.69-.62,1-.89h0c.29-.24.56-.45.82-.65l.13-.09c.24-.17.48-.33.71-.46l.15-.08a6.69,6.69,0,0,1,.69-.33l.13-.05a6.31,6.31,0,0,1,.74-.24h.06a13,13,0,0,1,3.07-.27,12.38,12.38,0,0,1,2.85.25l.2.05a6.65,6.65,0,0,1,.73.24c1.92.76,4,2.53,8.31,6.6,7,6.52,9.7,8.08,9.7,5.52,0-1.53-7.08-12.39-13-19.91-2.46-3.13-4-5.52-4.72-7.89,0-.14-.08-.28-.11-.41s-.11-.5-.16-.75-.05-.29-.07-.43,0-.48-.06-.73,0-.31,0-.47,0-.42,0-.63a12.35,12.35,0,0,1,.15-1.39c0-.09,0-.19,0-.28.06-.33.14-.66.22-1l.06-.24q.15-.56.34-1.14l0-.12c.14-.42.29-.85.46-1.3h0a75.54,75.54,0,0,1,3.34-7.25l.16-.31h0l.33-.67.11-.23.49-1,.06-.12a62.15,62.15,0,0,0,2.6-6.21l0-.08a55.66,55.66,0,0,0,1.9-9.07l0-.14q.12-1,.2-1.93c0-.16,0-.31,0-.46,0-.66.08-1.29.07-1.84s0-.88,0-1.33h0a27.24,27.24,0,0,0-.94-5.64h0c0-.15-.1-.28-.14-.43-.16-.56-.34-1.11-.53-1.64-.09-.25-.19-.5-.29-.74-.18-.46-.38-.9-.58-1.33-.13-.27-.26-.54-.39-.8s-.41-.73-.62-1.08-.31-.53-.48-.78-.51-.68-.77-1c-.14-.17-.26-.36-.4-.52a14.3,14.3,0,0,0-1.25-1.24h0c-.18-.16-.37-.31-.57-.45l-.25-.17-.37-.24-.4-.23-.32-.17-.55-.26-.29-.13-.75-.31-.23-.09-1.05-.4h0l-.86-.31c-4.42-1.59-6.12-2.54-12.58-7a100.75,100.75,0,0,0-12.1-7.17,46.06,46.06,0,0,1-6.26-3.41c0-.6,3.12-.33,4.09.35s2.08.65,9.92.46c8.71-.21,9.1-.26,14.27-1.71,5.44-1.53,9.24-3.22,12.14-5.6h0l.2-.18q.48-.4.92-.83l.36-.37q.41-.41.79-.86l.2-.24a24.51,24.51,0,0,0,3.09-4.82,21.19,21.19,0,0,0,2.42-7.48h0c0-.18.05-.36.08-.55h0l.07-.45q.41-2.73.83-5.35c.1-.65.21-1.26.32-1.9q.63-3.76,1.28-7.28l.06-.31h0c.34-1.8.68-3.56,1-5.25.53-2.55,1.07-5,1.63-7.28h0c.45-1.89.91-3.71,1.37-5.43l.23-.87c.33-1.21.67-2.39,1-3.51l.09-.3.51-1.63h0l.49-1.56h0l.23-.71h0c.35-1.09.69-2.12,1-3.11h0c.79-2.33,1.61-4.5,2.55-6.83l.09-.23h0l.32-.79h0c.38-.92.79-1.88,1.23-2.9h0c.58-1.33,1.2-2.73,1.91-4.31l.55-1.24c1.35-3,2.36-5.43,3.11-7.49h0l.12-.36q.25-.71.47-1.37l.1-.32a28.08,28.08,0,0,0,1.36-8.87c0-.25,0-.45,0-.67h0S270.26,12.83,270.26,12.79Z"/><path class="cls-2" d="M202.11,220.26a2.48,2.48,0,0,1-1.3-.46c-1-.61-2.81-2.9-4.68-6.64a13.73,13.73,0,0,0-2.6-3.69,10.76,10.76,0,0,0-1.42-1.2l-.12-.07a12,12,0,0,0-1.51-.87l-.34-.16-.09,0a16.06,16.06,0,0,0-1.54-.6l-.38-.13c-.73-.22-1.46-.41-2.21-.57l-.32-.08-.25-.07-.74-.18-.55-.17-.79-.27-.44-.17q-.49-.2-.94-.43l-.11-.05a10.74,10.74,0,0,1-1-.6l-.08-.06a7.65,7.65,0,0,1-1.79-1.64A54.54,54.54,0,0,1,174,192a64,64,0,0,1-1.46-7.28c-1.41-9.29-2.75-13.09-7.16-20.3-.9-1.47-3.33-5.94-5.41-10a97.88,97.88,0,0,0-10.73-17.17,50.11,50.11,0,0,1-4.66-7.59l-1.08-2.17-.76,2.3a11.37,11.37,0,0,1-.5,1.22l-.76,1.65,1.08,1.1a4.65,4.65,0,0,1,1.21,2.37,13.69,13.69,0,0,1,.63,4.83c0,1.91,0,2.06-.23,2.55-.05.14-.11.25-.15.33a1.09,1.09,0,0,0-.31.34,1.85,1.85,0,0,0,.28,1.83c.11.19.16.26.16,1.1,0,1-.14,1.43-1.15,2.64l-1.18,1.41.82,1.09a5,5,0,0,1,.79,3.64,5.24,5.24,0,0,1-1,2.46l-1.11.93,1,1.36c.62.81.72,1.41-.46,2.42l-.14.11c-.91.74-.74,1.34-.36,2.65l.13.45a2.73,2.73,0,0,1,.09,1.12,4,4,0,0,1-.82,2.09,3.39,3.39,0,0,0-.38,3.41,3,3,0,0,1,.22,2l-.2.51c-.77,2-1.13,3-2.8,3.42l-1.47-.15-1.12-.35-1.12.35-1.48.15c-1.67-.45-2-1.4-2.8-3.42l-.19-.51a3,3,0,0,1,.22-2,3.39,3.39,0,0,0-.38-3.41,4,4,0,0,1-.82-2.09,2.72,2.72,0,0,1,.09-1.12l.13-.45c.38-1.31.56-1.91-.36-2.65l-.14-.11c-1.18-1-1.08-1.61-.46-2.42l1-1.36-1.12-.93a5.26,5.26,0,0,1-1-2.46,5,5,0,0,1,.79-3.63l.83-1.1-1.19-1.41c-1-1.21-1.14-1.63-1.14-2.64,0-.83,0-.9.15-1.09a1.85,1.85,0,0,0,.28-1.84,1.09,1.09,0,0,0-.31-.35c0-.08-.09-.19-.15-.33-.2-.49-.23-.64-.24-2.55a13.67,13.67,0,0,1,.63-4.83,4.64,4.64,0,0,1,1.21-2.37l1.08-1.1-.76-1.65a11.46,11.46,0,0,1-.5-1.22l-.76-2.3-1.08,2.17A50.21,50.21,0,0,1,121,137.3a97.79,97.79,0,0,0-10.73,17.17c-2.08,4-4.51,8.49-5.41,10-4.41,7.21-5.75,11-7.16,20.3A64,64,0,0,1,96.21,192,54.44,54.44,0,0,1,91.4,202.1a7.65,7.65,0,0,1-1.79,1.65l-.11.08c-.32.21-.63.39-.94.55l-.18.09c-.29.15-.6.29-.92.42l-.4.16-.8.28-.59.19-.66.17-.35.09-.31.08c-.75.16-1.48.34-2.21.57l-.38.13a16.25,16.25,0,0,0-1.55.6l-.1,0-.33.15a11.88,11.88,0,0,0-1.53.88l-.09.05a10.79,10.79,0,0,0-1.43,1.21,13.74,13.74,0,0,0-2.59,3.69c-1.87,3.75-3.7,6-4.68,6.64a2.47,2.47,0,0,1-1.3.46c-1.07,0-2.63-1.06-5.75-3.91A24.23,24.23,0,0,0,59.27,214a25.27,25.27,0,0,0-2.67-1.51l-.25-.13c-.51-.25-1-.53-1.51-.82l-.46-.29c-.46-.3-.92-.61-1.36-.95l-.19-.14A23.12,23.12,0,0,1,51,208.57l-.94-.87-1.23-1.13v0c-.24-.2-.46-.37-.68-.53L48,206q-.39-.28-.78-.51l-.18-.1a7.77,7.77,0,0,0-.78-.38l-.12,0a7.67,7.67,0,0,0-.89-.29l-.1,0a13.66,13.66,0,0,0-3.28-.29,13.56,13.56,0,0,0-3.08.27l-.24.06a7.65,7.65,0,0,0-.83.27c-2.13.84-4.27,2.72-8.63,6.81-5.31,5-7.29,6.18-8,6.38,0,0,0-.08,0-.13.21-1.37,6.47-11.26,12.77-19.29,2.37-3,4.11-5.57,4.89-8.22,0-.15.09-.3.13-.46s.12-.54.17-.81l0-.1c0-.13,0-.25.06-.38s.05-.53.07-.8v-.15c0-.12,0-.24,0-.36s0-.35,0-.53v-.17a13.32,13.32,0,0,0-.16-1.49l0-.3c-.06-.35-.15-.71-.24-1.07l-.06-.25c-.1-.39-.22-.78-.35-1.19l0-.12c-.14-.43-.3-.88-.48-1.34a75,75,0,0,0-3.38-7.35l-.56-1.12-.54-1.12a61.13,61.13,0,0,1-2.6-6.18,55.3,55.3,0,0,1-1.89-9l0-.13c-.08-.66-.15-1.29-.19-1.89l0-.45c0-.63-.07-1.24-.07-1.77,0-.21,0-.42,0-.64h0l0-.64a26.09,26.09,0,0,1,.91-5.43l.06-.22.06-.18c.16-.54.33-1.07.51-1.58.09-.25.18-.48.28-.72.18-.44.36-.86.56-1.28s.25-.53.37-.77.39-.69.59-1l.13-.21c.11-.18.21-.36.33-.53.22-.33.47-.62.71-.92l.21-.27a2.62,2.62,0,0,1,.16-.21,13.14,13.14,0,0,1,1.16-1.16c.16-.14.33-.28.5-.4l.23-.15.33-.21.36-.2.29-.16.52-.25.27-.12.73-.3.17-.07,1.94-.73c4.5-1.61,6.3-2.62,12.81-7.16a100,100,0,0,1,12-7.09C71.5,116,71.5,115.72,71.5,115c0-.5-.27-1.33-2.08-1.33a7.36,7.36,0,0,0-3.58.86c-.35.24-1,.37-3.6.37-1.23,0-2.89,0-5.72-.1-8.67-.21-8.93-.24-14-1.67-5.46-1.53-9.09-3.2-11.77-5.41l-.19-.16c-.3-.26-.59-.52-.87-.79l-.35-.35q-.39-.4-.75-.81l-.19-.22a23.51,23.51,0,0,1-3-4.63,20.2,20.2,0,0,1-2.33-7.2l-.15-1q-.41-2.74-.83-5.36l-.32-1.91c-.42-2.5-.84-4.91-1.27-7.19l-.08-.42c-.34-1.8-.68-3.57-1-5.27-.41-2-.85-4-1.34-6.08h0l-.29-1.23c-.48-2-.93-3.8-1.37-5.44l-.24-.9c-.31-1.13-.62-2.22-.94-3.28h0l-.67-2.18L13.78,51c-.34-1.05-.67-2.06-1-3l-.52-1.52h0c-.64-1.81-1.31-3.55-2.05-5.38l-.34-.84h0L9.79,40c-.38-.93-.8-1.89-1.24-2.91L8,35.79H8c-.41-.93-.85-1.91-1.33-3l-.55-1.26C4.68,28.42,3.7,26.07,3,24.15l-.16-.45q-.23-.64-.42-1.23l-.09-.31A27,27,0,0,1,1,13.57v-.78c0-.35,0-.68,0-1a9.09,9.09,0,0,1,.82-4.49l.07-.14L2,7l.3-.48C4.29,2.9,7.94,1,12.83,1a22,22,0,0,1,2.71.18,73,73,0,0,1,24,7.94C45.44,12.4,57,19.65,61.19,22.72c5.25,3.81,44,41.91,48.8,48,7,8.8,14.83,22.86,18.27,32.69l.57,1.64,1.13-1.32a3.39,3.39,0,0,1,.59-.54l1-.73-.92-.83a9,9,0,0,1-2.73-6.69A9.82,9.82,0,0,1,129,90.28l.35-.65-.52-.52a1.25,1.25,0,0,1-.37-.88,1.31,1.31,0,0,1,1.34-1.28,1.33,1.33,0,0,1,.85.33l.52.43.52-.28.59-.24a4.88,4.88,0,0,1,1.87-.42,4.77,4.77,0,0,1,.81.08l.17,0,.17,0a4.75,4.75,0,0,1,.81-.08,4.88,4.88,0,0,1,1.87.42l.68.28.4.18.55-.37a1.33,1.33,0,0,1,.85-.33,1.31,1.31,0,0,1,1.34,1.28,1.25,1.25,0,0,1-.37.88l-.52.52.35.65a9.81,9.81,0,0,1,1.11,4.61,9,9,0,0,1-2.73,6.69l-.92.83,1,.73a3.39,3.39,0,0,1,.59.54l1.13,1.32.57-1.64c3.45-9.83,11.3-23.89,18.27-32.69,4.79-6,43.55-44.14,48.8-48,4.23-3.07,15.75-10.32,21.63-13.6a73,73,0,0,1,24-7.94A22,22,0,0,1,257.44,1C262.33,1,266,2.9,268,6.49l.52.94a9,9,0,0,1,.77,4.34c0,.35,0,1.47,0,1.47v.34a27,27,0,0,1-1.32,8.58l-.1.32c-.14.43-.29.87-.46,1.33l-.13.34c-.71,1.94-1.66,4.23-3.08,7.43l-.55,1.24c-.48,1.06-.92,2-1.33,3h0l-.58,1.35c-.44,1-.86,2-1.24,2.91L260,41.12h0c-.68,1.68-1.3,3.28-1.89,4.93v0L257.47,48c-.34,1-.68,2-1,3.13l-.35,1.1h0l-1,3.25h0c-.33,1.09-.65,2.23-1,3.4l-.23.88c-.44,1.64-.89,3.43-1.38,5.46l-.29,1.23h0c-.49,2.12-.94,4.12-1.34,6.08-.35,1.7-.7,3.47-1,5.27l-.22,1.19h0c-.38,2.08-.76,4.22-1.13,6.43l-.32,1.91q-.42,2.63-.83,5.36l-.15,1a20.2,20.2,0,0,1-2.33,7.2,23.57,23.57,0,0,1-3,4.63l-.13.15c-.3.35-.55.62-.81.88l-.35.35c-.28.27-.57.53-.87.79l-.19.16c-2.69,2.21-6.32,3.88-11.77,5.41-5.1,1.43-5.36,1.46-14,1.67-2.83.07-4.49.1-5.72.1-2.58,0-3.26-.13-3.6-.37a7.36,7.36,0,0,0-3.58-.86c-1.81,0-2.08.83-2.08,1.33,0,.67,0,.94,6.82,4.31a100,100,0,0,1,12,7.09c6.51,4.54,8.31,5.54,12.81,7.16l1,.36.9.34.22.09.72.3.25.11.54.25.23.12.42.23.3.19.26.17c.16.11.31.23.46.36l0,0a13.36,13.36,0,0,1,1.16,1.16c.06.06.11.14.16.21l.2.27c.25.3.49.6.72.93.11.16.22.34.32.52l.13.22c.2.33.4.67.59,1s.25.51.37.77c.2.42.38.84.56,1.28.09.24.19.47.28.71.19.52.36,1,.52,1.58l.06.2.06.2a26.07,26.07,0,0,1,.91,5.43l0,.64h0c0,.21,0,.42,0,.63,0,.54,0,1.14-.07,1.77l0,.45q-.07.91-.19,1.88l0,.13a54.55,54.55,0,0,1-1.87,8.9l0,.1a60.92,60.92,0,0,1-2.55,6.07l-.69,1.43-.45.9A75.72,75.72,0,0,0,232.5,181c-.17.46-.33.91-.47,1.34l0,.13c-.13.4-.25.8-.35,1.19l0,.16c-.11.46-.2.81-.26,1.16l0,.21a14.14,14.14,0,0,0-.17,1.6v.16c0,.18,0,.36,0,.53s0,.24,0,.36v.15c0,.27,0,.54.07.8s0,.24.06.35l0,.12c0,.28.1.55.17.82s.08.3.12.45c.79,2.66,2.52,5.21,4.89,8.23,6.3,8,12.56,17.91,12.77,19.33,0,0,0,.06,0,.09-.73-.2-2.7-1.4-8-6.38-4.36-4.09-6.5-6-8.63-6.81a7.73,7.73,0,0,0-.84-.27l-.24-.06a18.07,18.07,0,0,0-6.38,0,7.17,7.17,0,0,0-.92.29L224,205a7.32,7.32,0,0,0-.78.38l-.16.09c-.27.16-.53.33-.8.52l-.15.11-.55.42v-.06l-1.35,1.24-.94.87a22.87,22.87,0,0,1-1.88,1.61l-.19.14c-.44.33-.9.65-1.35.94l-.47.3c-.5.3-1,.58-1.52.83l-.18.1A27.26,27.26,0,0,0,211,214a24.16,24.16,0,0,0-3.12,2.31C204.74,219.2,203.18,220.26,202.11,220.26Zm-50.25-164c1.37-4.4,3-8.78,6.17-12a9.39,9.39,0,0,1,1.71-1.66,11,11,0,0,1-.83,3.94l-.39.79C156.92,50.53,155,54.51,151.85,56.24Zm-33.45,0c-3.13-1.73-5.07-5.71-6.65-9l-.43-.88a10.78,10.78,0,0,1-.79-3.85,9.17,9.17,0,0,1,1.66,1.62C115.43,47.46,117,51.84,118.41,56.24Z"/><path class="cls-3" d="M188.54,73.67s-4-4.94-11.52-.1c0,0,8.82-.56,10.86,3.59Z"/><path class="cls-4" d="M187.42,69.33A11.35,11.35,0,0,0,175.31,68s7.76,1.07,12.57,6.29Z"/><path class="cls-5" d="M187.95,72.72S181.17,64,176.66,63.6A13.4,13.4,0,0,1,189.46,68Z"/><path class="cls-6" d="M188.08,70.18s-3.42-7.34-7-10.24a11.09,11.09,0,0,1,9.12,6.55Z"/><path class="cls-3" d="M188.14,68.19s-3.84-5.37.86-12.06A19.93,19.93,0,0,1,189.82,68Z"/><path class="cls-4" d="M190.32,64.21c2.95-2.25,8.4-1.11,8.4-1.11-4.78,1-10.92,8.72-10.92,8.72A6.67,6.67,0,0,1,190.32,64.21Z"/><path class="cls-6" d="M193,67.18a11.3,11.3,0,0,1,6.28-.17s-7.37,2.63-11,8.73C188.26,75.74,184.92,70.1,193,67.18Z"/><path class="cls-5" d="M188.47,77.42s-3.28-4.42,3.2-6.5c1.64-.53,3.88-.32,6.7.77,0,0-8.75,1.25-9.9,5.73"/><path class="cls-7" d="M187.51,101.91c-5.39,0-8.32-1.51-10.45-5.39s-1.42-11.63,1.52-16.59c2.13-3.6,5.3-5.58,8.93-5.58s6.8,2,8.93,5.58c2.94,5,3.65,12.72,1.52,16.59S192.91,101.91,187.51,101.91Z"/><path class="cls-8" d="M183.84,76.36c2.35-1.12,8.45-2.74,9.76,9.15.9,8.18-5.5,15.32-10.54,13.63s-6.26-6.62-5.65-12.35C177.91,82.25,180.34,78,183.84,76.36Z"/><path class="cls-9" d="M179.73,89.44c-.79-3-.53-6.78,3.29-10.4,4.17-4,8.23-.53,3.94,9.42C184.28,94.67,180.16,91.13,179.73,89.44Z"/><path class="cls-10" d="M181.87,83.72c.67-1.77,1.87-4.1,3.19-3.46s.64,5.33-.53,6.65S180.92,86.22,181.87,83.72Z"/><path class="cls-11" d="M197.82,96.32a7.11,7.11,0,0,0-.7-2c.57-.42,1.11-.85,1.6-1.29a4.33,4.33,0,0,1-.11,1.47.32.32,0,0,0,.06.29,14.14,14.14,0,0,0,.5-3.1l0,0a7.6,7.6,0,0,0-1-2.21,8.07,8.07,0,0,0,1-1.32q-.06-.55-.15-1.1a.32.32,0,0,0-.08.11A6.34,6.34,0,0,1,197.71,89a11,11,0,0,0-1.54-1.6c-.26-.22-.55-.45-.85-.68a16.13,16.13,0,0,0,2.24-2.13,10.67,10.67,0,0,1,1,1,.31.31,0,0,0,.11.08q-.14-.61-.31-1.21l-.38-.35.19-.29q-.13-.4-.27-.79l0,0a5.57,5.57,0,0,1-.39.63c-.78-.64-1.72-1.3-2.75-2A6.55,6.55,0,0,0,195.78,80c.42.29.83.59,1.2.87-.17-.33-.34-.66-.53-1l-.23-.37-.21-.15,0-.12h0l0,0-.38-.55,0-.06h0c0,.13-.08.27-.12.41-.68-.46-1.41-.93-2.16-1.41a8,8,0,0,0,.61-.82l-.49-.41a7.4,7.4,0,0,1-.66.89l-.25-.16-2.29-1.47q.38-.33.72-.67-.33-.13-.67-.23l-.59.54-1.32-.9c-.28,0-.55,0-.83,0s-.56,0-.84,0l-1.32.9-.59-.54-.67.23q.34.33.72.67l-2.29,1.48-.25.16a7.41,7.41,0,0,1-.66-.89l-.49.41a8,8,0,0,0,.61.82c-.75.48-1.48,1-2.16,1.41,0-.14-.09-.27-.13-.41q-.24.32-.46.66l0,.12-.22.15-.22.36q-.28.47-.53,1c.37-.29.78-.58,1.2-.87a6.57,6.57,0,0,0,1.07,1.67c-1,.68-2,1.35-2.75,2a5.58,5.58,0,0,1-.41-.67c-.09.26-.18.53-.27.8l.19.28-.38.35q-.15.55-.28,1.1a.31.31,0,0,0,.2-.1,10.63,10.63,0,0,1,.85-.85,16.1,16.1,0,0,0,2.24,2.13c-.3.23-.59.46-.85.68a11.06,11.06,0,0,0-1.54,1.6,6.34,6.34,0,0,1-1.13-1.78.32.32,0,0,0-.08-.11q-.09.55-.15,1.1a8.08,8.08,0,0,0,1,1.32,7.61,7.61,0,0,0-1,2.21l0,0a14.18,14.18,0,0,0,.5,3.1.32.32,0,0,0,.06-.29,4.37,4.37,0,0,1-.1-1.46c.49.44,1,.86,1.59,1.28a7.1,7.1,0,0,0-.7,2l-.37-.24c.07.16.15.31.23.45q.32.59.67,1.1,0-.11,0-.23l.65.41,1.73,1.09a6.47,6.47,0,0,0-.17,1.08q.3.22.62.41a5.74,5.74,0,0,1,.12-1.12,28.64,28.64,0,0,1,2.68,2l-.08.25a13.84,13.84,0,0,0,1.57.28c-.23-.25-.47-.49-.73-.72a7.78,7.78,0,0,1,1.16-1.88c.56.4,1.09.8,1.57,1.21l.2.18a10,10,0,0,0-1.11,1.31l.77,0a9.77,9.77,0,0,1,.8-.91,9.69,9.69,0,0,1,.8.91l.77,0a10,10,0,0,0-1.11-1.31l.2-.18c.48-.41,1-.82,1.57-1.21a7.7,7.7,0,0,1,1.16,1.88c-.26.23-.5.48-.73.72a13.85,13.85,0,0,0,1.56-.28c0-.08,0-.17-.08-.26a28.61,28.61,0,0,1,2.68-2,5.74,5.74,0,0,1,.12,1.12q.32-.19.62-.41a6.56,6.56,0,0,0-.17-1.08l1.73-1.1.65-.41c0,.08,0,.16,0,.23.23-.35.46-.71.68-1.11.08-.15.15-.3.23-.45Zm.79-4a18.65,18.65,0,0,1-1.81,1.5A9.89,9.89,0,0,0,195.3,92a19.13,19.13,0,0,0,2.35-2A6.77,6.77,0,0,1,198.61,92.28Zm-17.87-.38a33.33,33.33,0,0,1,3.08-2.24L185.9,91l1,.66c-1.17.76-2.26,1.5-3.16,2.2l0,0C182.72,93.19,181.7,92.55,180.74,91.9Zm2.5,2.37-.14.11A11,11,0,0,0,181.56,96c-1-.6-1.92-1.21-2.81-1.84a9.27,9.27,0,0,1,1.51-1.82C181.21,93,182.23,93.64,183.24,94.27Zm4.27-7,1.21.77,1.9,1.22-1.84,1.18-1.27.81-1.27-.81-1.84-1.18,1.9-1.22Zm0-.76c-1.09-.7-2.18-1.43-3.18-2.16l.54-.35c.88-.56,1.78-1.13,2.64-1.71.87.57,1.76,1.14,2.64,1.71l.54.35C189.69,85.09,188.6,85.82,187.51,86.52Zm1.55,1-1-.61c1.1-.72,2.19-1.44,3.18-2.16,1.08.69,2.1,1.36,3,2-.95.72-2,1.45-3.07,2.15ZM191.25,84l-.75-.48c-.79-.5-1.61-1-2.41-1.55,1-.65,1.9-1.31,2.74-2l.94.6,2,1.27A21.44,21.44,0,0,1,191.25,84Zm-3.73-2.41c-1-.65-1.9-1.3-2.74-2,.94-.61,1.87-1.22,2.74-1.84.88.62,1.8,1.23,2.74,1.84C189.41,80.24,188.48,80.9,187.51,81.54Zm-.57.38c-.8.53-1.62,1-2.41,1.55l-.75.48a21.36,21.36,0,0,1-2.49-2.14l2-1.27.94-.6C185,80.61,186,81.27,186.94,81.93Zm0,5-1,.61-2.14,1.38c-1.07-.71-2.12-1.43-3.07-2.15.9-.64,1.92-1.31,3-2C184.74,85.46,185.82,86.18,186.93,86.9Zm.59,5.12c1.17.76,2.26,1.49,3.17,2.19-1.09.68-2.18,1.38-3.17,2.11-1-.72-2.08-1.42-3.17-2.11C185.25,93.51,186.34,92.78,187.51,92Zm.59-.38,1-.66,2.08-1.33a33.36,33.36,0,0,1,3.08,2.24c-1,.66-2,1.3-3,1.93l0,0C190.35,93.14,189.27,92.4,188.1,91.64Zm6.67.69a9.24,9.24,0,0,1,1.51,1.82c-.89.63-1.85,1.24-2.81,1.84a10.85,10.85,0,0,0-1.55-1.61l-.14-.11C192.8,93.64,193.82,93,194.77,92.33Zm1-4.44a10.32,10.32,0,0,1,1.52,1.59,18.56,18.56,0,0,1-2.45,2l-.09-.08a32,32,0,0,0-3-2.17c1.07-.71,2.1-1.42,3-2.14C195.15,87.39,195.47,87.65,195.76,87.9Zm1.31-3.71a16.15,16.15,0,0,1-2.28,2.15c-.89-.65-1.9-1.32-3-2a20.58,20.58,0,0,0,2.46-2.15C195.33,82.87,196.29,83.54,197.07,84.19Zm-4.2-6.07c.83.53,1.62,1,2.37,1.55l0,.06a5.91,5.91,0,0,1-1,1.62L192.11,80l-.76-.48A17.25,17.25,0,0,0,192.87,78.12Zm-3.16-2c.81.53,1.63,1.06,2.45,1.58l.16.1a17.75,17.75,0,0,1-1.54,1.4c-.93-.6-1.85-1.2-2.72-1.81C188.65,76.93,189.2,76.51,189.72,76.08Zm-2.2-1.51c.53.38,1.08.76,1.65,1.14-.51.42-1.07.84-1.65,1.26-.58-.42-1.14-.84-1.65-1.26C186.43,75.34,187,75,187.51,74.58Zm-4.65,3.09c.81-.52,1.64-1,2.45-1.58.51.43,1.07.85,1.65,1.27-.87.61-1.79,1.21-2.72,1.81a17.8,17.8,0,0,1-1.54-1.4Zm-3.05,2.06,0-.06c.74-.5,1.54-1,2.37-1.55a17.14,17.14,0,0,0,1.52,1.42l-.76.48-2.07,1.33A5.91,5.91,0,0,1,179.81,79.72ZM178,84.18c.78-.64,1.74-1.31,2.79-2a20.55,20.55,0,0,0,2.46,2.15c-1.07.69-2.08,1.36-3,2A16.08,16.08,0,0,1,178,84.18Zm1.31,3.71c.29-.25.61-.5,1-.76.93.72,2,1.43,3,2.14a31.92,31.92,0,0,0-3,2.17l-.09.08a18.5,18.5,0,0,1-2.45-2A10.13,10.13,0,0,1,179.27,87.9Zm-2.84,4.39a6.83,6.83,0,0,1,1-2.28A19.15,19.15,0,0,0,179.73,92a9.86,9.86,0,0,0-1.5,1.82A18.66,18.66,0,0,1,176.43,92.29Zm3.87,6-1.58-1-.93-.58a6.38,6.38,0,0,1,.64-2c.88.62,1.81,1.21,2.75,1.8A7.79,7.79,0,0,0,180.3,98.27Zm3.31,2.35a31.25,31.25,0,0,0-2.76-2,7.16,7.16,0,0,1,.88-1.78l.07,0c1,.62,2,1.26,3,1.91A8.44,8.44,0,0,0,183.61,100.61Zm1.57-2.3c-1-.67-2-1.33-3-2l0,0a10.34,10.34,0,0,1,1.42-1.47l.29-.24C184.9,95.3,186,96,187,96.71c-.29.22-.56.44-.83.66A11.85,11.85,0,0,0,185.17,98.32Zm2.59,1.58-.25.22-.25-.22c-.48-.41-1-.81-1.56-1.21a11,11,0,0,1,.87-.83c.3-.25.62-.5.95-.75.33.25.65.5.95.75a11.06,11.06,0,0,1,.87.83C188.77,99.08,188.25,99.48,187.77,99.89Zm1.11-2.52c-.26-.22-.54-.44-.83-.66,1-.71,2.08-1.41,3.17-2.09l.29.24a10.35,10.35,0,0,1,1.42,1.47l0,0c-1,.64-2.07,1.3-3,2A11.8,11.8,0,0,0,188.87,97.37Zm2.55,3.24a8.39,8.39,0,0,0-1.15-1.81c1-.65,2-1.29,3-1.91l.06,0a7.16,7.16,0,0,1,.87,1.78A31.47,31.47,0,0,0,191.42,100.61Zm4.89-3.34-1.59,1a7.85,7.85,0,0,0-.89-1.76c.94-.59,1.88-1.19,2.75-1.8a6.37,6.37,0,0,1,.64,2Z"/><path class="cls-3" d="M216.19,48.92s-4-4.94-11.52-.1c0,0,8.82-.56,10.86,3.59Z"/><path class="cls-4" d="M215.07,44.58A11.35,11.35,0,0,0,203,43.3s7.76,1.07,12.57,6.29Z"/><path class="cls-5" d="M215.6,48s-6.78-8.76-11.29-9.12a13.4,13.4,0,0,1,12.8,4.41Z"/><path class="cls-6" d="M215.73,45.44s-3.42-7.34-7-10.24a11.09,11.09,0,0,1,9.12,6.55Z"/><path class="cls-3" d="M215.79,43.44s-3.84-5.37.86-12.06a19.93,19.93,0,0,1,.82,11.88Z"/><path class="cls-4" d="M218,39.46c2.95-2.25,8.4-1.11,8.4-1.11-4.78,1-10.92,8.72-10.92,8.72A6.67,6.67,0,0,1,218,39.46Z"/><path class="cls-6" d="M220.64,42.43a11.3,11.3,0,0,1,6.28-.17s-7.37,2.63-11,8.73C215.91,51,212.57,45.35,220.64,42.43Z"/><path class="cls-5" d="M216.11,52.67s-3.28-4.42,3.2-6.5c1.64-.53,3.88-.32,6.7.77,0,0-8.75,1.25-9.9,5.73"/><path class="cls-7" d="M215.16,77.16c-5.39,0-8.32-1.51-10.45-5.39s-1.42-11.63,1.52-16.59c2.13-3.6,5.3-5.58,8.93-5.58s6.8,2,8.93,5.58c2.94,5,3.65,12.72,1.52,16.59S220.55,77.16,215.16,77.16Z"/><path class="cls-8" d="M211.49,51.61c2.35-1.12,8.45-2.74,9.76,9.15.9,8.18-5.5,15.32-10.54,13.63s-6.26-6.62-5.65-12.35C205.55,57.5,208,53.28,211.49,51.61Z"/><path class="cls-9" d="M207.38,64.69c-.79-3-.53-6.78,3.29-10.4,4.17-4,8.23-.53,3.94,9.42C211.93,69.92,207.81,66.38,207.38,64.69Z"/><path class="cls-10" d="M209.51,59c.67-1.77,1.87-4.1,3.19-3.46s.64,5.33-.53,6.65S208.57,61.47,209.51,59Z"/><path class="cls-11" d="M225.47,71.57a7.11,7.11,0,0,0-.7-2c.57-.42,1.11-.85,1.6-1.29a4.33,4.33,0,0,1-.11,1.47.32.32,0,0,0,.06.29,14.14,14.14,0,0,0,.5-3.1l0,0a7.6,7.6,0,0,0-1-2.21,8.07,8.07,0,0,0,1-1.32q-.06-.55-.15-1.1a.32.32,0,0,0-.08.11,6.34,6.34,0,0,1-1.13,1.78,11,11,0,0,0-1.54-1.6c-.26-.22-.55-.45-.85-.68a16.13,16.13,0,0,0,2.24-2.13,10.67,10.67,0,0,1,1,1,.31.31,0,0,0,.11.08q-.14-.61-.31-1.21l-.38-.35.19-.29q-.13-.4-.27-.79l0,0a5.57,5.57,0,0,1-.39.63c-.78-.64-1.72-1.3-2.75-2a6.55,6.55,0,0,0,1.07-1.67c.42.29.83.59,1.2.87-.17-.33-.34-.66-.53-1l-.23-.37-.21-.15,0-.12h0l0,0-.38-.55,0-.06h0c0,.13-.08.27-.12.41-.68-.46-1.41-.93-2.16-1.41a8,8,0,0,0,.61-.82l-.49-.41a7.4,7.4,0,0,1-.66.89l-.25-.16-2.29-1.47q.38-.33.72-.67-.33-.13-.67-.23l-.59.54-1.32-.9c-.28,0-.55,0-.83,0s-.56,0-.84,0l-1.32.9-.59-.54-.67.23q.34.33.72.67l-2.29,1.48-.25.16a7.41,7.41,0,0,1-.66-.89l-.49.41a8,8,0,0,0,.61.82c-.75.48-1.48,1-2.16,1.41,0-.14-.09-.27-.13-.41q-.24.32-.46.66l0,.12-.22.15-.22.36q-.28.47-.53,1c.37-.29.78-.58,1.2-.87A6.57,6.57,0,0,0,208,56.95c-1,.68-2,1.35-2.75,2a5.58,5.58,0,0,1-.41-.67c-.09.26-.18.53-.27.8l.19.28-.38.35q-.15.55-.28,1.1a.31.31,0,0,0,.2-.1,10.63,10.63,0,0,1,.85-.85A16.1,16.1,0,0,0,207.35,62c-.3.23-.59.46-.85.68a11.06,11.06,0,0,0-1.54,1.6,6.34,6.34,0,0,1-1.13-1.78.32.32,0,0,0-.08-.11q-.09.55-.15,1.1a8.08,8.08,0,0,0,1,1.32,7.61,7.61,0,0,0-1,2.21l0,0a14.18,14.18,0,0,0,.5,3.1.32.32,0,0,0,.06-.29,4.37,4.37,0,0,1-.1-1.46c.49.44,1,.86,1.59,1.28a7.1,7.1,0,0,0-.7,2l-.37-.24c.07.16.15.31.23.45q.32.59.67,1.1,0-.11,0-.23l.65.41,1.73,1.09a6.47,6.47,0,0,0-.17,1.08q.3.22.62.41a5.74,5.74,0,0,1,.12-1.12,28.64,28.64,0,0,1,2.68,2l-.08.25a13.84,13.84,0,0,0,1.57.28c-.23-.25-.47-.49-.73-.72a7.78,7.78,0,0,1,1.16-1.88c.56.4,1.09.8,1.57,1.21l.2.18a10,10,0,0,0-1.11,1.31l.77,0a9.77,9.77,0,0,1,.8-.91,9.69,9.69,0,0,1,.8.91l.77,0a10,10,0,0,0-1.11-1.31l.2-.18c.48-.41,1-.82,1.57-1.21a7.7,7.7,0,0,1,1.16,1.88c-.26.23-.5.48-.73.72a13.85,13.85,0,0,0,1.56-.28c0-.08,0-.17-.08-.26a28.61,28.61,0,0,1,2.68-2,5.74,5.74,0,0,1,.12,1.12q.32-.19.62-.41a6.56,6.56,0,0,0-.17-1.08l1.73-1.1.65-.41c0,.08,0,.16,0,.23.23-.35.46-.71.68-1.11.08-.15.15-.3.23-.45Zm.79-4a18.65,18.65,0,0,1-1.81,1.5,9.89,9.89,0,0,0-1.5-1.82,19.13,19.13,0,0,0,2.35-2A6.77,6.77,0,0,1,226.25,67.53Zm-17.87-.38a33.33,33.33,0,0,1,3.08-2.24l2.08,1.34,1,.66c-1.17.76-2.26,1.5-3.16,2.2l0,0C210.37,68.44,209.35,67.8,208.39,67.15Zm2.5,2.37-.14.11a11,11,0,0,0-1.55,1.61c-1-.6-1.92-1.21-2.81-1.84a9.27,9.27,0,0,1,1.51-1.82C208.86,68.24,209.88,68.89,210.89,69.52Zm4.27-7,1.21.77,1.9,1.22-1.84,1.18-1.27.81-1.27-.81-1.84-1.18L214,63.3Zm0-.76c-1.09-.7-2.18-1.43-3.18-2.16l.54-.35c.88-.56,1.78-1.13,2.64-1.71.87.57,1.76,1.14,2.64,1.71l.54.35C217.34,60.34,216.25,61.07,215.16,61.77Zm1.55,1-1-.61c1.1-.72,2.19-1.44,3.18-2.16,1.08.69,2.1,1.36,3,2-.95.72-2,1.45-3.07,2.15Zm2.18-3.55-.75-.48c-.79-.5-1.61-1-2.41-1.55,1-.65,1.9-1.31,2.74-2l.94.6,2,1.27A21.44,21.44,0,0,1,218.89,59.21Zm-3.73-2.41c-1-.65-1.9-1.3-2.74-2,.94-.61,1.87-1.22,2.74-1.84.88.62,1.8,1.23,2.74,1.84C217.06,55.49,216.13,56.15,215.16,56.8Zm-.57.38c-.8.53-1.62,1-2.41,1.55l-.75.48a21.36,21.36,0,0,1-2.49-2.14l2-1.27.94-.6C212.68,55.86,213.61,56.52,214.59,57.18Zm0,5-1,.61-2.14,1.38c-1.07-.71-2.12-1.43-3.07-2.15.9-.64,1.92-1.31,3-2C212.39,60.71,213.47,61.43,214.58,62.15Zm.59,5.12c1.17.76,2.26,1.49,3.17,2.19-1.09.68-2.18,1.38-3.17,2.11-1-.72-2.08-1.42-3.17-2.11C212.9,68.76,214,68,215.16,67.27Zm.59-.38,1-.66,2.08-1.33a33.36,33.36,0,0,1,3.08,2.24c-1,.66-2,1.3-3,1.93l0,0C218,68.39,216.92,67.65,215.75,66.89Zm6.67.69a9.24,9.24,0,0,1,1.51,1.82c-.89.63-1.85,1.24-2.81,1.84a10.85,10.85,0,0,0-1.55-1.61l-.14-.11C220.44,68.89,221.46,68.24,222.42,67.58Zm1-4.44a10.32,10.32,0,0,1,1.52,1.59,18.56,18.56,0,0,1-2.45,2l-.09-.08a32,32,0,0,0-3-2.17c1.07-.71,2.1-1.42,3-2.14C222.8,62.64,223.12,62.9,223.41,63.15Zm1.31-3.71a16.15,16.15,0,0,1-2.28,2.15c-.89-.65-1.9-1.32-3-2a20.58,20.58,0,0,0,2.46-2.15C223,58.12,223.94,58.8,224.72,59.44Zm-4.2-6.07c.83.53,1.62,1,2.37,1.55l0,.06a5.91,5.91,0,0,1-1,1.62l-2.07-1.33-.76-.48A17.25,17.25,0,0,0,220.52,53.37Zm-3.16-2c.81.53,1.63,1.06,2.45,1.58l.16.1a17.75,17.75,0,0,1-1.54,1.4c-.93-.6-1.85-1.2-2.72-1.81C216.29,52.18,216.85,51.76,217.36,51.33Zm-2.2-1.51c.53.38,1.08.76,1.65,1.14-.51.42-1.07.84-1.65,1.26-.58-.42-1.14-.84-1.65-1.26C214.08,50.59,214.63,50.21,215.16,49.83Zm-4.65,3.09c.81-.52,1.64-1,2.45-1.58.51.43,1.07.85,1.65,1.27-.87.61-1.79,1.21-2.72,1.81a17.8,17.8,0,0,1-1.54-1.4ZM207.46,55l0-.06c.74-.5,1.54-1,2.37-1.55a17.14,17.14,0,0,0,1.52,1.42l-.76.48-2.07,1.33A5.91,5.91,0,0,1,207.46,55Zm-1.86,4.46c.78-.64,1.74-1.31,2.79-2a20.55,20.55,0,0,0,2.46,2.15c-1.07.69-2.08,1.36-3,2A16.08,16.08,0,0,1,205.6,59.43Zm1.31,3.71c.29-.25.61-.5,1-.76.93.72,2,1.43,3,2.14a31.92,31.92,0,0,0-3,2.17l-.09.08a18.5,18.5,0,0,1-2.45-2A10.13,10.13,0,0,1,206.92,63.15Zm-2.84,4.39a6.83,6.83,0,0,1,1-2.28,19.15,19.15,0,0,0,2.34,1.95,9.86,9.86,0,0,0-1.5,1.82A18.66,18.66,0,0,1,204.08,67.54Zm3.87,6-1.58-1-.93-.58a6.38,6.38,0,0,1,.64-2c.88.62,1.81,1.21,2.75,1.8A7.79,7.79,0,0,0,207.95,73.52Zm3.31,2.35a31.25,31.25,0,0,0-2.76-2,7.16,7.16,0,0,1,.88-1.78l.07,0c1,.62,2,1.26,3,1.91A8.44,8.44,0,0,0,211.26,75.86Zm1.57-2.3c-1-.67-2-1.33-3-2l0,0a10.34,10.34,0,0,1,1.42-1.47l.29-.24c1.09.68,2.18,1.37,3.17,2.09-.29.22-.56.44-.83.66A11.85,11.85,0,0,0,212.82,73.57Zm2.59,1.58-.25.22-.25-.22c-.48-.41-1-.81-1.56-1.21a11,11,0,0,1,.87-.83c.3-.25.62-.5.95-.75.33.25.65.5.95.75a11.06,11.06,0,0,1,.87.83C216.42,74.33,215.89,74.73,215.41,75.14Zm1.11-2.52c-.26-.22-.54-.44-.83-.66,1-.71,2.08-1.41,3.17-2.09l.29.24a10.35,10.35,0,0,1,1.42,1.47l0,0c-1,.64-2.07,1.3-3,2A11.8,11.8,0,0,0,216.52,72.62Zm2.55,3.24A8.39,8.39,0,0,0,217.92,74c1-.65,2-1.29,3-1.91l.06,0a7.16,7.16,0,0,1,.87,1.78A31.47,31.47,0,0,0,219.07,75.86ZM224,72.52l-1.59,1a7.85,7.85,0,0,0-.89-1.76c.94-.59,1.88-1.19,2.75-1.8a6.37,6.37,0,0,1,.64,2Z"/><path class="cls-3" d="M243.44,25.3s-4-4.94-11.52-.1c0,0,8.82-.56,10.86,3.59Z"/><path class="cls-4" d="M242.32,21a11.35,11.35,0,0,0-12.11-1.28S238,20.74,242.77,26Z"/><path class="cls-5" d="M242.85,24.34s-6.78-8.76-11.29-9.12a13.4,13.4,0,0,1,12.8,4.41Z"/><path class="cls-6" d="M243,21.81s-3.42-7.34-7-10.24a11.09,11.09,0,0,1,9.12,6.55Z"/><path class="cls-3" d="M243,19.82s-3.84-5.37.86-12.06a19.93,19.93,0,0,1,.82,11.88Z"/><path class="cls-4" d="M245.21,15.84c2.95-2.25,8.4-1.11,8.4-1.11-4.78,1-10.92,8.72-10.92,8.72A6.67,6.67,0,0,1,245.21,15.84Z"/><path class="cls-6" d="M247.89,18.81a11.3,11.3,0,0,1,6.28-.17s-7.37,2.63-11,8.73C243.16,27.36,239.82,21.72,247.89,18.81Z"/><path class="cls-5" d="M243.36,29s-3.28-4.42,3.2-6.5c1.64-.53,3.88-.32,6.7.77,0,0-8.75,1.25-9.9,5.73"/><path class="cls-7" d="M242.41,53.53c-5.39,0-8.32-1.51-10.45-5.39s-1.42-11.63,1.52-16.59c2.13-3.6,5.3-5.58,8.93-5.58s6.8,2,8.93,5.58c2.94,5,3.65,12.72,1.52,16.59S247.8,53.53,242.41,53.53Z"/><path class="cls-8" d="M238.74,28c2.35-1.12,8.45-2.74,9.76,9.15.9,8.18-5.5,15.32-10.54,13.63s-6.26-6.62-5.65-12.35C232.8,33.87,235.24,29.65,238.74,28Z"/><path class="cls-9" d="M234.63,41.07c-.79-3-.53-6.78,3.29-10.4,4.17-4,8.23-.53,3.94,9.42C239.18,46.29,235.06,42.75,234.63,41.07Z"/><path class="cls-10" d="M236.76,35.35c.67-1.77,1.87-4.1,3.19-3.46s.64,5.33-.53,6.65S235.82,37.84,236.76,35.35Z"/><path class="cls-11" d="M252.72,47.94a7.11,7.11,0,0,0-.7-2c.57-.42,1.11-.85,1.6-1.29a4.33,4.33,0,0,1-.11,1.47.32.32,0,0,0,.06.29,14.14,14.14,0,0,0,.5-3.1l0,0a7.6,7.6,0,0,0-1-2.21,8.07,8.07,0,0,0,1-1.32q-.06-.55-.15-1.1a.32.32,0,0,0-.08.11,6.34,6.34,0,0,1-1.13,1.78,11,11,0,0,0-1.54-1.6c-.26-.22-.55-.45-.85-.68a16.13,16.13,0,0,0,2.24-2.13,10.67,10.67,0,0,1,1,1,.31.31,0,0,0,.11.08q-.14-.61-.31-1.21l-.38-.35.19-.29q-.13-.4-.27-.79l0,0a5.57,5.57,0,0,1-.39.63c-.78-.64-1.72-1.3-2.75-2a6.55,6.55,0,0,0,1.07-1.67c.42.29.83.59,1.2.87-.17-.33-.34-.66-.53-1l-.23-.37L250.9,31l0-.12h0l0,0-.38-.55,0-.06h0c0,.13-.08.27-.12.41-.68-.46-1.41-.93-2.16-1.41a8,8,0,0,0,.61-.82l-.49-.41a7.4,7.4,0,0,1-.66.89l-.25-.16-2.29-1.47q.38-.33.72-.67-.33-.13-.67-.23l-.59.54-1.32-.9c-.28,0-.55,0-.83,0s-.56,0-.84,0l-1.32.9-.59-.54-.67.23q.34.33.72.67l-2.29,1.48-.25.16a7.41,7.41,0,0,1-.66-.89l-.49.41a8,8,0,0,0,.61.82c-.75.48-1.48,1-2.16,1.41,0-.14-.09-.27-.13-.41q-.24.32-.46.66l0,.12-.22.15-.22.36q-.28.47-.53,1c.37-.29.78-.58,1.2-.87a6.57,6.57,0,0,0,1.07,1.67c-1,.68-2,1.35-2.75,2a5.58,5.58,0,0,1-.41-.67c-.09.26-.18.53-.27.8l.19.28-.38.35q-.15.55-.28,1.1a.31.31,0,0,0,.2-.1,10.63,10.63,0,0,1,.85-.85,16.1,16.1,0,0,0,2.24,2.13c-.3.23-.59.46-.85.68a11.06,11.06,0,0,0-1.54,1.6,6.34,6.34,0,0,1-1.13-1.78.32.32,0,0,0-.08-.11q-.09.55-.15,1.1a8.08,8.08,0,0,0,1,1.32,7.61,7.61,0,0,0-1,2.21l0,0a14.18,14.18,0,0,0,.5,3.1.32.32,0,0,0,.06-.29,4.37,4.37,0,0,1-.1-1.46c.49.44,1,.86,1.59,1.28a7.1,7.1,0,0,0-.7,2l-.37-.24c.07.16.15.31.23.45q.32.59.67,1.1,0-.11,0-.23l.65.41L235,50.53a6.47,6.47,0,0,0-.17,1.08q.3.22.62.41a5.74,5.74,0,0,1,.12-1.12,28.64,28.64,0,0,1,2.68,2l-.08.25a13.84,13.84,0,0,0,1.57.28c-.23-.25-.47-.49-.73-.72a7.78,7.78,0,0,1,1.16-1.88c.56.4,1.09.8,1.57,1.21l.2.18a10,10,0,0,0-1.11,1.31l.77,0a9.77,9.77,0,0,1,.8-.91,9.69,9.69,0,0,1,.8.91l.77,0a10,10,0,0,0-1.11-1.31l.2-.18c.48-.41,1-.82,1.57-1.21a7.7,7.7,0,0,1,1.16,1.88c-.26.23-.5.48-.73.72a13.85,13.85,0,0,0,1.56-.28c0-.08,0-.17-.08-.26a28.61,28.61,0,0,1,2.68-2,5.74,5.74,0,0,1,.12,1.12q.32-.19.62-.41a6.56,6.56,0,0,0-.17-1.08l1.73-1.1.65-.41c0,.08,0,.16,0,.23.23-.35.46-.71.68-1.11.08-.15.15-.3.23-.45Zm.79-4a18.65,18.65,0,0,1-1.81,1.5,9.89,9.89,0,0,0-1.5-1.82,19.13,19.13,0,0,0,2.35-2A6.77,6.77,0,0,1,253.5,43.9Zm-17.87-.38a33.33,33.33,0,0,1,3.08-2.24l2.08,1.34,1,.66c-1.17.76-2.26,1.5-3.16,2.2l0,0C237.62,44.82,236.6,44.18,235.64,43.52Zm2.5,2.37L238,46a11,11,0,0,0-1.55,1.61c-1-.6-1.92-1.21-2.81-1.84A9.27,9.27,0,0,1,235.15,44C236.11,44.62,237.13,45.26,238.14,45.89Zm4.27-7,1.21.77,1.9,1.22-1.84,1.18-1.27.81-1.27-.81-1.84-1.18,1.9-1.22Zm0-.76c-1.09-.7-2.18-1.43-3.18-2.16l.54-.35c.88-.56,1.78-1.13,2.64-1.71.87.57,1.76,1.14,2.64,1.71l.54.35C244.59,36.72,243.5,37.44,242.41,38.15Zm1.55,1-1-.61c1.1-.72,2.19-1.44,3.18-2.16,1.08.69,2.1,1.36,3,2-.95.72-2,1.45-3.07,2.15Zm2.18-3.55-.75-.48c-.79-.5-1.61-1-2.41-1.55,1-.65,1.9-1.31,2.74-2l.94.6,2,1.27A21.44,21.44,0,0,1,246.14,35.58Zm-3.73-2.41c-1-.65-1.9-1.3-2.74-2,.94-.61,1.87-1.22,2.74-1.84.88.62,1.8,1.23,2.74,1.84C244.31,31.87,243.38,32.53,242.41,33.17Zm-.57.38c-.8.53-1.62,1-2.41,1.55l-.75.48a21.36,21.36,0,0,1-2.49-2.14l2-1.27.94-.6C239.93,32.24,240.86,32.9,241.84,33.55Zm0,5-1,.61-2.14,1.38c-1.07-.71-2.12-1.43-3.07-2.15.9-.64,1.92-1.31,3-2C239.64,37.08,240.72,37.81,241.83,38.52Zm.59,5.12c1.17.76,2.26,1.49,3.17,2.19-1.09.68-2.18,1.38-3.17,2.11-1-.72-2.08-1.42-3.17-2.11C240.15,45.13,241.24,44.4,242.41,43.65Zm.59-.38,1-.66,2.08-1.33a33.36,33.36,0,0,1,3.08,2.24c-1,.66-2,1.3-3,1.93l0,0C245.25,44.77,244.17,44,243,43.27Zm6.67.69a9.24,9.24,0,0,1,1.51,1.82c-.89.63-1.85,1.24-2.81,1.84A10.85,10.85,0,0,0,246.82,46l-.14-.11C247.69,45.26,248.71,44.62,249.67,44Zm1-4.44a10.32,10.32,0,0,1,1.52,1.59,18.56,18.56,0,0,1-2.45,2l-.09-.08a32,32,0,0,0-3-2.17c1.07-.71,2.1-1.42,3-2.14C250,39,250.37,39.27,250.66,39.52ZM252,35.81A16.15,16.15,0,0,1,249.69,38c-.89-.65-1.9-1.32-3-2a20.58,20.58,0,0,0,2.46-2.15C250.23,34.5,251.19,35.17,252,35.81Zm-4.2-6.07c.83.53,1.62,1,2.37,1.55l0,.06a5.91,5.91,0,0,1-1,1.62L247,31.64l-.76-.48A17.25,17.25,0,0,0,247.77,29.74Zm-3.16-2c.81.53,1.63,1.06,2.45,1.58l.16.1a17.75,17.75,0,0,1-1.54,1.4c-.93-.6-1.85-1.2-2.72-1.81C243.54,28.56,244.1,28.13,244.61,27.71Zm-2.2-1.51c.53.38,1.08.76,1.65,1.14-.51.42-1.07.84-1.65,1.26-.58-.42-1.14-.84-1.65-1.26C241.33,27,241.88,26.58,242.41,26.2Zm-4.65,3.09c.81-.52,1.64-1,2.45-1.58.51.43,1.07.85,1.65,1.27-.87.61-1.79,1.21-2.72,1.81a17.8,17.8,0,0,1-1.54-1.4Zm-3.05,2.06,0-.06c.74-.5,1.54-1,2.37-1.55a17.14,17.14,0,0,0,1.52,1.42l-.76.48L235.75,33A5.91,5.91,0,0,1,234.71,31.35Zm-1.86,4.46c.78-.64,1.74-1.31,2.79-2A20.55,20.55,0,0,0,238.11,36c-1.07.69-2.08,1.36-3,2A16.08,16.08,0,0,1,232.85,35.81Zm1.31,3.71c.29-.25.61-.5,1-.76.93.72,2,1.43,3,2.14a31.92,31.92,0,0,0-3,2.17l-.09.08a18.5,18.5,0,0,1-2.45-2A10.13,10.13,0,0,1,234.17,39.52Zm-2.84,4.39a6.83,6.83,0,0,1,1-2.28,19.15,19.15,0,0,0,2.34,1.95,9.86,9.86,0,0,0-1.5,1.82A18.66,18.66,0,0,1,231.33,43.92Zm3.87,6-1.58-1-.93-.58a6.38,6.38,0,0,1,.64-2c.88.62,1.81,1.21,2.75,1.8A7.79,7.79,0,0,0,235.2,49.89Zm3.31,2.35a31.25,31.25,0,0,0-2.76-2,7.16,7.16,0,0,1,.88-1.78l.07,0c1,.62,2,1.26,3,1.91A8.44,8.44,0,0,0,238.51,52.24Zm1.57-2.3c-1-.67-2-1.33-3-2l0,0a10.34,10.34,0,0,1,1.42-1.47l.29-.24c1.09.68,2.18,1.37,3.17,2.09-.29.22-.56.44-.83.66A11.85,11.85,0,0,0,240.07,49.94Zm2.59,1.58-.25.22-.25-.22c-.48-.41-1-.81-1.56-1.21a11,11,0,0,1,.87-.83c.3-.25.62-.5.95-.75.33.25.65.5.95.75a11.06,11.06,0,0,1,.87.83C243.67,50.71,243.14,51.11,242.66,51.52ZM243.77,49c-.26-.22-.54-.44-.83-.66,1-.71,2.08-1.41,3.17-2.09l.29.24A10.35,10.35,0,0,1,247.82,48l0,0c-1,.64-2.07,1.3-3,2A11.8,11.8,0,0,0,243.77,49Zm2.55,3.24a8.39,8.39,0,0,0-1.15-1.81c1-.65,2-1.29,3-1.91l.06,0a7.16,7.16,0,0,1,.87,1.78A31.47,31.47,0,0,0,246.32,52.24Zm4.89-3.34-1.59,1a7.85,7.85,0,0,0-.89-1.76c.94-.59,1.88-1.19,2.75-1.8a6.37,6.37,0,0,1,.64,2Z"/><path class="cls-3" d="M82,73.67s4-4.94,11.52-.1c0,0-8.82-.56-10.86,3.59Z"/><path class="cls-4" d="M83.12,69.33A11.35,11.35,0,0,1,95.24,68s-7.76,1.07-12.57,6.29Z"/><path class="cls-5" d="M82.59,72.72S89.38,64,93.88,63.6A13.4,13.4,0,0,0,81.08,68Z"/><path class="cls-6" d="M82.46,70.18s3.42-7.34,7-10.24a11.09,11.09,0,0,0-9.12,6.55Z"/><path class="cls-3" d="M82.41,68.19s3.84-5.37-.86-12.06A19.93,19.93,0,0,0,80.72,68Z"/><path class="cls-4" d="M80.23,64.21c-2.95-2.25-8.4-1.11-8.4-1.11,4.78,1,10.92,8.72,10.92,8.72A6.67,6.67,0,0,0,80.23,64.21Z"/><path class="cls-6" d="M77.55,67.18A11.3,11.3,0,0,0,71.27,67s7.37,2.63,11,8.73C82.28,75.74,85.62,70.1,77.55,67.18Z"/><path class="cls-5" d="M82.08,77.42s3.28-4.42-3.2-6.5c-1.64-.53-3.88-.32-6.7.77,0,0,8.75,1.25,9.9,5.73"/><path class="cls-7" d="M72.57,96.52c-2.13-3.87-1.42-11.63,1.52-16.59,2.13-3.6,5.3-5.58,8.93-5.58s6.8,2,8.93,5.58c2.94,5,3.65,12.72,1.52,16.59s-5.06,5.39-10.45,5.39S74.71,100.4,72.57,96.52Z"/><path class="cls-8" d="M86.7,76.36c-2.35-1.12-8.45-2.74-9.76,9.15-.9,8.18,5.5,15.32,10.54,13.63s6.26-6.62,5.65-12.35C92.64,82.25,90.2,78,86.7,76.36Z"/><path class="cls-9" d="M90.81,89.44c.79-3,.53-6.78-3.29-10.4-4.17-4-8.23-.53-3.94,9.42C86.26,94.67,90.38,91.13,90.81,89.44Z"/><path class="cls-10" d="M88.68,83.72c-.67-1.77-1.87-4.1-3.19-3.46s-.64,5.33.53,6.65S89.62,86.22,88.68,83.72Z"/><path class="cls-11" d="M72.35,96.08c.07.16.15.31.23.45.22.39.44.76.68,1.11,0-.07,0-.15,0-.23l.65.41,1.73,1.1a6.56,6.56,0,0,0-.17,1.08q.3.22.62.41a5.74,5.74,0,0,1,.12-1.12,28.61,28.61,0,0,1,2.68,2c0,.08-.05.17-.08.26a13.85,13.85,0,0,0,1.56.28c-.23-.24-.47-.49-.73-.72a7.7,7.7,0,0,1,1.16-1.88c.56.4,1.09.8,1.57,1.21l.2.18a10,10,0,0,0-1.11,1.31l.77,0A9.69,9.69,0,0,1,83,101a9.77,9.77,0,0,1,.8.91l.77,0a10,10,0,0,0-1.11-1.31l.2-.18c.48-.41,1-.82,1.57-1.21A7.78,7.78,0,0,1,86.43,101c-.26.23-.5.48-.73.72a13.84,13.84,0,0,0,1.57-.28l-.08-.25a28.64,28.64,0,0,1,2.68-2,5.74,5.74,0,0,1,.12,1.12q.32-.19.62-.41a6.47,6.47,0,0,0-.17-1.08l1.73-1.09.65-.41q0,.12,0,.23.35-.52.67-1.1c.08-.15.15-.3.23-.45l-.37.24a7.1,7.1,0,0,0-.7-2c.57-.42,1.1-.84,1.59-1.28a4.37,4.37,0,0,1-.1,1.46.32.32,0,0,0,.06.29,14.18,14.18,0,0,0,.5-3.1l0,0a7.61,7.61,0,0,0-1-2.21,8.08,8.08,0,0,0,1-1.32q-.06-.55-.15-1.1a.32.32,0,0,0-.08.11A6.34,6.34,0,0,1,93.23,89a11.06,11.06,0,0,0-1.54-1.6c-.26-.22-.55-.45-.85-.68a16.1,16.1,0,0,0,2.24-2.13,10.63,10.63,0,0,1,.85.85.31.31,0,0,0,.2.1q-.13-.55-.28-1.1l-.38-.35.19-.28c-.09-.27-.17-.54-.27-.8a5.58,5.58,0,0,1-.41.67c-.78-.64-1.72-1.3-2.75-2A6.57,6.57,0,0,0,91.29,80c.42.3.83.59,1.2.87q-.25-.5-.53-1l-.22-.36-.22-.15,0-.12q-.22-.34-.46-.66c0,.13-.08.27-.13.41-.68-.46-1.41-.93-2.16-1.41a8,8,0,0,0,.61-.82l-.49-.41a7.41,7.41,0,0,1-.66.89L88,77.13l-2.29-1.48q.38-.33.72-.67l-.67-.23-.59.54-1.32-.9c-.28,0-.55,0-.84,0s-.56,0-.83,0l-1.32.9-.59-.54q-.34.1-.67.23.34.33.72.67L78,77.13l-.25.16a7.4,7.4,0,0,1-.66-.89l-.49.41a8,8,0,0,0,.61.82c-.75.48-1.48,1-2.16,1.41,0-.14-.09-.27-.12-.41h0l0,.06-.38.55,0,0h0l0,.12-.21.15-.23.37c-.18.31-.36.64-.53,1,.37-.29.77-.58,1.2-.87a6.55,6.55,0,0,0,1.07,1.67c-1,.68-2,1.35-2.75,2a5.57,5.57,0,0,1-.39-.63l0,0q-.14.39-.27.79l.19.29-.38.35q-.17.6-.31,1.21a.31.31,0,0,0,.11-.08,10.67,10.67,0,0,1,1-1,16.13,16.13,0,0,0,2.24,2.13c-.3.23-.59.46-.85.68A11,11,0,0,0,72.83,89a6.34,6.34,0,0,1-1.13-1.78.32.32,0,0,0-.08-.11q-.09.55-.15,1.1a8.07,8.07,0,0,0,1,1.32,7.6,7.6,0,0,0-1,2.21l0,0a14.14,14.14,0,0,0,.5,3.1.32.32,0,0,0,.06-.29A4.33,4.33,0,0,1,71.83,93c.49.44,1,.87,1.6,1.29a7.11,7.11,0,0,0-.7,2ZM72.9,90a19.13,19.13,0,0,0,2.35,2,9.89,9.89,0,0,0-1.5,1.82,18.65,18.65,0,0,1-1.81-1.5A6.77,6.77,0,0,1,72.9,90Zm13.91,3.82,0,0c-.91-.71-2-1.44-3.16-2.2l1-.66,2.08-1.34A33.33,33.33,0,0,1,89.8,91.9C88.84,92.55,87.82,93.19,86.81,93.83Zm3.48-1.5a9.27,9.27,0,0,1,1.51,1.82c-.89.63-1.85,1.24-2.81,1.84a11,11,0,0,0-1.55-1.61l-.14-.11C88.31,93.64,89.33,93,90.29,92.33ZM84.23,88l1.9,1.22L84.3,90.45,83,91.26l-1.27-.81-1.84-1.18L81.82,88,83,87.28Zm-4.39-3.68.54-.35c.89-.56,1.78-1.13,2.64-1.71.87.57,1.76,1.14,2.64,1.71l.54.35c-1,.73-2.1,1.45-3.18,2.16C81.94,85.82,80.85,85.09,79.84,84.36Zm-.5,4.53c-1.07-.71-2.12-1.43-3.07-2.15.9-.64,1.92-1.31,3-2,1,.73,2.07,1.45,3.18,2.16l-1,.61ZM76.8,81.82l2-1.27.94-.6c.84.66,1.77,1.32,2.74,2-.8.53-1.62,1-2.41,1.55L79.3,84A21.44,21.44,0,0,1,76.8,81.82Zm3.48-2.23c.94-.61,1.87-1.22,2.74-1.84.88.62,1.8,1.23,2.74,1.84-.85.66-1.78,1.32-2.74,2C82.07,80.9,81.13,80.24,80.29,79.59Zm6.06.37.94.6,2,1.27A21.36,21.36,0,0,1,86.76,84L86,83.48c-.79-.5-1.61-1-2.41-1.55C84.58,81.27,85.51,80.61,86.34,80Zm.45,4.78c1.08.69,2.1,1.36,3,2-.95.72-2,1.44-3.07,2.15l-2.14-1.38-1-.61C84.72,86.18,85.8,85.46,86.79,84.73Zm-.59,9.47c-1.09.68-2.18,1.38-3.17,2.11-1-.72-2.08-1.42-3.17-2.11.91-.7,2-1.43,3.17-2.19C84.2,92.78,85.29,93.51,86.2,94.21Zm-6.92-.36,0,0c-1-.63-2-1.27-3-1.93a33.36,33.36,0,0,1,3.08-2.24L81.42,91l1,.66C81.27,92.4,80.19,93.14,79.28,93.85Zm-.52.42-.14.11A10.85,10.85,0,0,0,77.08,96c-1-.6-1.92-1.21-2.81-1.84a9.24,9.24,0,0,1,1.51-1.82C76.73,93,77.75,93.64,78.76,94.27Zm-3-7.13c.93.72,2,1.43,3,2.14a32,32,0,0,0-3,2.17l-.09.08a18.56,18.56,0,0,1-2.45-2,10.32,10.32,0,0,1,1.52-1.59C75.07,87.65,75.39,87.39,75.74,87.14Zm.53-5a20.58,20.58,0,0,0,2.46,2.15c-1.07.69-2.08,1.36-3,2a16.15,16.15,0,0,1-2.28-2.15C74.25,83.54,75.21,82.87,76.26,82.18Zm2.93-2.65-.76.48-2.07,1.33a5.91,5.91,0,0,1-1-1.62l0-.06c.74-.5,1.54-1,2.37-1.55A17.25,17.25,0,0,0,79.19,79.53Zm3.29-2.17c-.87.61-1.79,1.21-2.72,1.81a17.75,17.75,0,0,1-1.54-1.4l.16-.1c.81-.52,1.64-1,2.45-1.58C81.34,76.51,81.9,76.93,82.48,77.36Zm2.2-1.64c-.51.42-1.07.84-1.65,1.26-.58-.42-1.14-.84-1.65-1.26.56-.38,1.12-.76,1.65-1.14C83.56,75,84.11,75.34,84.68,75.71Zm3.16,2a17.8,17.8,0,0,1-1.54,1.4c-.93-.6-1.85-1.2-2.72-1.81.58-.42,1.14-.85,1.65-1.27.81.53,1.64,1.06,2.45,1.58Zm1.85,3.58L87.62,80l-.76-.48a17.14,17.14,0,0,0,1.52-1.42c.83.53,1.62,1,2.37,1.55l0,.06A5.91,5.91,0,0,1,89.69,81.34Zm.62,5c-.89-.65-1.9-1.32-3-2a20.55,20.55,0,0,0,2.46-2.15c1.05.7,2,1.37,2.79,2A16.08,16.08,0,0,1,90.31,86.33Zm2.48,3.15a18.5,18.5,0,0,1-2.45,2l-.09-.08a31.92,31.92,0,0,0-3-2.17c1.07-.71,2.1-1.42,3-2.14.34.26.66.51,1,.76A10.13,10.13,0,0,1,92.79,89.49Zm-.48,4.29A9.86,9.86,0,0,0,90.82,92,19.15,19.15,0,0,0,93.16,90a6.83,6.83,0,0,1,1,2.28A18.66,18.66,0,0,1,92.31,93.78Zm-3,2.73c.94-.59,1.87-1.19,2.75-1.8a6.38,6.38,0,0,1,.64,2l-.93.58-1.58,1A7.79,7.79,0,0,0,89.36,96.51ZM85.79,98.8c.95-.65,2-1.29,3-1.91l.07,0a7.16,7.16,0,0,1,.88,1.78,31.25,31.25,0,0,0-2.76,2A8.44,8.44,0,0,0,85.79,98.8Zm-1.4-1.42c-.26-.22-.54-.44-.83-.66,1-.71,2.08-1.41,3.17-2.09l.29.24a10.34,10.34,0,0,1,1.42,1.47l0,0c-1,.64-2.07,1.3-3,2A11.85,11.85,0,0,0,84.39,97.37Zm-3.17,1.31a11.06,11.06,0,0,1,.87-.83c.3-.25.62-.5.95-.75.33.25.65.5.95.75a11,11,0,0,1,.87.83c-.55.4-1.08.8-1.56,1.21l-.25.22-.25-.22C82.3,99.48,81.77,99.08,81.21,98.68Zm-.53-.37c-1-.67-2-1.33-3-2l0,0A10.35,10.35,0,0,1,79,94.87l.29-.24c1.09.68,2.18,1.37,3.17,2.09-.29.22-.56.44-.83.66A11.8,11.8,0,0,0,80.69,98.32Zm-4.32.31a7.16,7.16,0,0,1,.87-1.78l.06,0c1,.62,2,1.26,3,1.91a8.39,8.39,0,0,0-1.15,1.81A31.47,31.47,0,0,0,76.37,98.63Zm-3.06-1.94a6.37,6.37,0,0,1,.64-2c.88.62,1.82,1.22,2.75,1.8a7.85,7.85,0,0,0-.89,1.76l-1.59-1Z"/><path class="cls-3" d="M54.35,48.92s4-4.94,11.52-.1c0,0-8.82-.56-10.86,3.59Z"/><path class="cls-4" d="M55.47,44.58A11.35,11.35,0,0,1,67.59,43.3S59.83,44.36,55,49.59Z"/><path class="cls-5" d="M54.95,48s6.78-8.76,11.29-9.12a13.4,13.4,0,0,0-12.8,4.41Z"/><path class="cls-6" d="M54.82,45.44s3.42-7.34,7-10.24a11.09,11.09,0,0,0-9.12,6.55Z"/><path class="cls-3" d="M54.76,43.44s3.84-5.37-.86-12.06a19.93,19.93,0,0,0-.82,11.88Z"/><path class="cls-4" d="M52.58,39.46c-2.95-2.25-8.4-1.11-8.4-1.11,4.78,1,10.92,8.72,10.92,8.72A6.67,6.67,0,0,0,52.58,39.46Z"/><path class="cls-6" d="M49.9,42.43a11.3,11.3,0,0,0-6.28-.17S51,44.89,54.64,51C54.64,51,58,45.35,49.9,42.43Z"/><path class="cls-5" d="M54.43,52.67s3.28-4.42-3.2-6.5c-1.64-.53-3.88-.32-6.7.77,0,0,8.75,1.25,9.9,5.73"/><path class="cls-7" d="M44.93,71.77c-2.13-3.87-1.42-11.63,1.52-16.59,2.13-3.6,5.3-5.58,8.93-5.58s6.8,2,8.93,5.58c2.94,5,3.65,12.72,1.52,16.59s-5.06,5.39-10.45,5.39S47.06,75.65,44.93,71.77Z"/><path class="cls-8" d="M59.05,51.61c-2.35-1.12-8.45-2.74-9.76,9.15-.9,8.18,5.5,15.32,10.54,13.63S66.09,67.77,65.48,62C65,57.5,62.55,53.28,59.05,51.61Z"/><path class="cls-9" d="M63.17,64.69c.79-3,.53-6.78-3.29-10.4-4.17-4-8.23-.53-3.94,9.42C58.61,69.92,62.73,66.38,63.17,64.69Z"/><path class="cls-10" d="M61,59c-.67-1.77-1.87-4.1-3.19-3.46s-.64,5.33.53,6.65S62,61.47,61,59Z"/><path class="cls-11" d="M44.7,71.33c.07.16.15.31.23.45.22.39.44.76.68,1.11,0-.07,0-.15,0-.23l.65.41L48,74.15a6.56,6.56,0,0,0-.17,1.08q.3.22.62.41a5.74,5.74,0,0,1,.12-1.12,28.61,28.61,0,0,1,2.68,2c0,.08-.05.17-.08.26a13.85,13.85,0,0,0,1.56.28c-.23-.24-.47-.49-.73-.72a7.7,7.7,0,0,1,1.16-1.88c.56.4,1.09.8,1.57,1.21l.2.18a10,10,0,0,0-1.11,1.31l.77,0a9.69,9.69,0,0,1,.8-.91,9.77,9.77,0,0,1,.8.91l.77,0a10,10,0,0,0-1.11-1.31l.2-.18c.48-.41,1-.82,1.57-1.21a7.78,7.78,0,0,1,1.16,1.88c-.26.23-.5.48-.73.72a13.84,13.84,0,0,0,1.57-.28l-.08-.25a28.64,28.64,0,0,1,2.68-2,5.74,5.74,0,0,1,.12,1.12q.32-.19.62-.41a6.47,6.47,0,0,0-.17-1.08l1.73-1.09.65-.41q0,.12,0,.23.35-.52.67-1.1c.08-.15.15-.3.23-.45l-.37.24a7.1,7.1,0,0,0-.7-2c.57-.42,1.1-.84,1.59-1.28a4.37,4.37,0,0,1-.1,1.46.32.32,0,0,0,.06.29A14.18,14.18,0,0,0,67,67l0,0a7.61,7.61,0,0,0-1-2.21,8.08,8.08,0,0,0,1-1.32q-.06-.55-.15-1.1a.32.32,0,0,0-.08.11,6.34,6.34,0,0,1-1.13,1.78A11.06,11.06,0,0,0,64,62.66c-.26-.22-.55-.45-.85-.68a16.1,16.1,0,0,0,2.24-2.13,10.63,10.63,0,0,1,.85.85.31.31,0,0,0,.2.1q-.13-.55-.28-1.1l-.38-.35.19-.28c-.09-.27-.17-.54-.27-.8a5.58,5.58,0,0,1-.41.67c-.78-.64-1.72-1.3-2.75-2a6.57,6.57,0,0,0,1.07-1.67c.42.3.83.59,1.2.87q-.25-.5-.53-1l-.22-.36-.22-.15,0-.12q-.22-.34-.46-.66c0,.13-.08.27-.13.41-.68-.46-1.41-.93-2.16-1.41a8,8,0,0,0,.61-.82l-.49-.41a7.41,7.41,0,0,1-.66.89l-.25-.16L58.08,50.9q.38-.33.72-.67L58.13,50l-.59.54-1.32-.9c-.28,0-.55,0-.84,0s-.56,0-.83,0l-1.32.9L52.63,50q-.34.1-.67.23.34.33.72.67l-2.29,1.47-.25.16a7.4,7.4,0,0,1-.66-.89l-.49.41a8,8,0,0,0,.61.82c-.75.48-1.48,1-2.16,1.41,0-.14-.09-.27-.12-.41h0l0,.06-.38.55,0,0h0l0,.12-.21.15-.23.37c-.18.31-.36.64-.53,1,.37-.29.77-.58,1.2-.87a6.55,6.55,0,0,0,1.07,1.67c-1,.68-2,1.35-2.75,2A5.57,5.57,0,0,1,45,58.3l0,0q-.14.39-.27.79l.19.29-.38.35q-.17.6-.31,1.21a.31.31,0,0,0,.11-.08,10.67,10.67,0,0,1,1-1A16.13,16.13,0,0,0,47.57,62c-.3.23-.59.46-.85.68a11,11,0,0,0-1.54,1.6,6.34,6.34,0,0,1-1.13-1.78.32.32,0,0,0-.08-.11q-.09.55-.15,1.1a8.07,8.07,0,0,0,1,1.32,7.6,7.6,0,0,0-1,2.21l0,0a14.14,14.14,0,0,0,.5,3.1.32.32,0,0,0,.06-.29,4.33,4.33,0,0,1-.11-1.47c.49.44,1,.87,1.6,1.29a7.11,7.11,0,0,0-.7,2Zm.55-6.07a19.13,19.13,0,0,0,2.35,2A9.89,9.89,0,0,0,46.1,69a18.65,18.65,0,0,1-1.81-1.5A6.77,6.77,0,0,1,45.25,65.26Zm13.91,3.82,0,0c-.91-.71-2-1.44-3.16-2.2l1-.66,2.08-1.34a33.33,33.33,0,0,1,3.08,2.24C61.2,67.8,60.17,68.44,59.16,69.08Zm3.48-1.5a9.27,9.27,0,0,1,1.51,1.82c-.89.63-1.85,1.24-2.81,1.84a11,11,0,0,0-1.55-1.61l-.14-.11C60.66,68.89,61.68,68.24,62.64,67.58ZM56.59,63.3l1.9,1.22L56.65,65.7l-1.27.81-1.27-.81-1.84-1.18,1.9-1.22,1.21-.77ZM52.2,59.61l.54-.35c.89-.56,1.78-1.13,2.64-1.71.87.57,1.76,1.14,2.64,1.71l.54.35c-1,.73-2.1,1.45-3.18,2.16C54.29,61.07,53.2,60.34,52.2,59.61Zm-.5,4.53c-1.07-.71-2.12-1.43-3.07-2.15.9-.64,1.92-1.31,3-2,1,.73,2.07,1.45,3.18,2.16l-1,.61Zm-2.54-7.07,2-1.27.94-.6c.84.66,1.77,1.32,2.74,2-.8.53-1.62,1-2.41,1.55l-.75.48A21.44,21.44,0,0,1,49.16,57.07Zm3.48-2.23c.94-.61,1.87-1.22,2.74-1.84.88.62,1.8,1.23,2.74,1.84-.85.66-1.78,1.32-2.74,2C54.42,56.15,53.48,55.49,52.64,54.84Zm6.06.37.94.6,2,1.27a21.36,21.36,0,0,1-2.49,2.14l-.75-.48c-.79-.5-1.61-1-2.41-1.55C56.93,56.52,57.86,55.86,58.69,55.2ZM59.14,60c1.08.69,2.1,1.36,3,2-.95.72-2,1.44-3.07,2.15l-2.14-1.38-1-.61C57.07,61.43,58.15,60.71,59.14,60Zm-.59,9.47c-1.09.68-2.18,1.38-3.17,2.11-1-.72-2.08-1.42-3.17-2.11.91-.7,2-1.43,3.17-2.19C56.55,68,57.64,68.76,58.55,69.46Zm-6.92-.36,0,0c-1-.63-2-1.27-3-1.93a33.36,33.36,0,0,1,3.08-2.24l2.08,1.33,1,.66C53.62,67.65,52.54,68.39,51.63,69.1Zm-.52.42-.14.11a10.85,10.85,0,0,0-1.55,1.61c-1-.6-1.92-1.21-2.81-1.84a9.24,9.24,0,0,1,1.51-1.82C49.08,68.24,50.1,68.89,51.11,69.52Zm-3-7.13c.93.72,2,1.43,3,2.14a32,32,0,0,0-3,2.17l-.09.08a18.56,18.56,0,0,1-2.45-2,10.32,10.32,0,0,1,1.52-1.59C47.43,62.9,47.75,62.64,48.09,62.39Zm.53-5a20.58,20.58,0,0,0,2.46,2.15c-1.07.69-2.08,1.36-3,2a16.15,16.15,0,0,1-2.28-2.15C46.61,58.8,47.56,58.12,48.61,57.43Zm2.93-2.65-.76.48-2.07,1.33a5.91,5.91,0,0,1-1-1.62l0-.06c.74-.5,1.54-1,2.37-1.55A17.25,17.25,0,0,0,51.55,54.78Zm3.29-2.17c-.87.61-1.79,1.21-2.72,1.81A17.75,17.75,0,0,1,50.57,53l.16-.1c.81-.52,1.64-1,2.45-1.58C53.69,51.76,54.25,52.18,54.83,52.61ZM57,51c-.51.42-1.07.84-1.65,1.26-.58-.42-1.14-.84-1.65-1.26.56-.38,1.12-.76,1.65-1.14C55.91,50.21,56.46,50.59,57,51Zm3.16,2a17.8,17.8,0,0,1-1.54,1.4c-.93-.6-1.85-1.2-2.72-1.81.58-.42,1.14-.85,1.65-1.27.81.53,1.64,1.06,2.45,1.58ZM62,56.59,60,55.26l-.76-.48a17.14,17.14,0,0,0,1.52-1.42c.83.53,1.62,1,2.37,1.55l0,.06A5.91,5.91,0,0,1,62,56.59Zm.62,5c-.89-.65-1.9-1.32-3-2a20.55,20.55,0,0,0,2.46-2.15c1.05.7,2,1.37,2.79,2A16.08,16.08,0,0,1,62.66,61.58Zm2.48,3.15a18.5,18.5,0,0,1-2.45,2l-.09-.08a31.92,31.92,0,0,0-3-2.17c1.07-.71,2.1-1.42,3-2.14.34.26.66.51,1,.76A10.13,10.13,0,0,1,65.14,64.74ZM64.66,69a9.86,9.86,0,0,0-1.5-1.82,19.15,19.15,0,0,0,2.34-1.95,6.83,6.83,0,0,1,1,2.28A18.66,18.66,0,0,1,64.66,69Zm-3,2.73c.94-.59,1.87-1.19,2.75-1.8a6.38,6.38,0,0,1,.64,2l-.93.58-1.58,1A7.79,7.79,0,0,0,61.71,71.76ZM58.14,74c.95-.65,2-1.29,3-1.91l.07,0A7.16,7.16,0,0,1,62,73.87a31.25,31.25,0,0,0-2.76,2A8.44,8.44,0,0,0,58.14,74Zm-1.4-1.42c-.26-.22-.54-.44-.83-.66,1-.71,2.08-1.41,3.17-2.09l.29.24a10.34,10.34,0,0,1,1.42,1.47l0,0c-1,.64-2.07,1.3-3,2A11.85,11.85,0,0,0,56.74,72.62Zm-3.17,1.31a11.06,11.06,0,0,1,.87-.83c.3-.25.62-.5.95-.75.33.25.65.5.95.75a11,11,0,0,1,.87.83c-.55.4-1.08.8-1.56,1.21l-.25.22-.25-.22C54.65,74.73,54.12,74.33,53.57,73.93ZM53,73.57c-1-.67-2-1.33-3-2l0,0a10.35,10.35,0,0,1,1.42-1.47l.29-.24c1.09.68,2.18,1.37,3.17,2.09-.29.22-.56.44-.83.66A11.8,11.8,0,0,0,53,73.57Zm-4.32.31a7.16,7.16,0,0,1,.87-1.78l.06,0c1,.62,2,1.26,3,1.91a8.39,8.39,0,0,0-1.15,1.81A31.47,31.47,0,0,0,48.72,73.88Zm-3.06-1.94a6.37,6.37,0,0,1,.64-2c.88.62,1.82,1.22,2.75,1.8a7.85,7.85,0,0,0-.89,1.76l-1.59-1Z"/><path class="cls-3" d="M27.1,25.3s4-4.94,11.52-.1c0,0-8.82-.56-10.86,3.59Z"/><path class="cls-4" d="M28.22,21a11.35,11.35,0,0,1,12.11-1.28S32.58,20.74,27.77,26Z"/><path class="cls-5" d="M27.7,24.34S34.48,15.59,39,15.23a13.4,13.4,0,0,0-12.8,4.41Z"/><path class="cls-6" d="M27.57,21.81s3.42-7.34,7-10.24a11.09,11.09,0,0,0-9.12,6.55Z"/><path class="cls-3" d="M27.51,19.82s3.84-5.37-.86-12.06a19.93,19.93,0,0,0-.82,11.88Z"/><path class="cls-4" d="M25.33,15.84c-2.95-2.25-8.4-1.11-8.4-1.11,4.78,1,10.92,8.72,10.92,8.72A6.67,6.67,0,0,0,25.33,15.84Z"/><path class="cls-6" d="M22.65,18.81a11.3,11.3,0,0,0-6.28-.17s7.37,2.63,11,8.73C27.39,27.36,30.73,21.72,22.65,18.81Z"/><path class="cls-5" d="M27.18,29s3.28-4.42-3.2-6.5c-1.64-.53-3.88-.32-6.7.77,0,0,8.75,1.25,9.9,5.73"/><path class="cls-7" d="M17.68,48.14c-2.13-3.87-1.42-11.63,1.52-16.59,2.13-3.6,5.3-5.58,8.93-5.58s6.8,2,8.93,5.58c2.94,5,3.65,12.72,1.52,16.59s-5.06,5.39-10.45,5.39S19.81,52,17.68,48.14Z"/><path class="cls-8" d="M31.8,28c-2.35-1.12-8.45-2.74-9.76,9.15-.9,8.18,5.5,15.32,10.54,13.63s6.26-6.62,5.65-12.35C37.74,33.87,35.3,29.65,31.8,28Z"/><path class="cls-9" d="M35.92,41.07c.79-3,.53-6.78-3.29-10.4-4.17-4-8.23-.53-3.94,9.42C31.36,46.29,35.48,42.75,35.92,41.07Z"/><path class="cls-10" d="M33.78,35.35c-.67-1.77-1.87-4.1-3.19-3.46s-.64,5.33.53,6.65S34.72,37.84,33.78,35.35Z"/><path class="cls-11" d="M17.45,47.7c.07.16.15.31.23.45.22.39.44.76.68,1.11,0-.07,0-.15,0-.23l.65.41,1.73,1.1a6.56,6.56,0,0,0-.17,1.08q.3.22.62.41a5.74,5.74,0,0,1,.12-1.12,28.61,28.61,0,0,1,2.68,2c0,.08-.05.17-.08.26a13.85,13.85,0,0,0,1.56.28c-.23-.24-.47-.49-.73-.72a7.7,7.7,0,0,1,1.16-1.88c.56.4,1.09.8,1.57,1.21l.2.18a10,10,0,0,0-1.11,1.31l.77,0a9.69,9.69,0,0,1,.8-.91,9.77,9.77,0,0,1,.8.91l.77,0a10,10,0,0,0-1.11-1.31l.2-.18c.48-.41,1-.82,1.57-1.21a7.78,7.78,0,0,1,1.16,1.88c-.26.23-.5.48-.73.72a13.84,13.84,0,0,0,1.57-.28l-.08-.25a28.64,28.64,0,0,1,2.68-2A5.74,5.74,0,0,1,35.09,52q.32-.19.62-.41a6.47,6.47,0,0,0-.17-1.08l1.73-1.09.65-.41q0,.12,0,.23.35-.52.67-1.1c.08-.15.15-.3.23-.45l-.37.24a7.1,7.1,0,0,0-.7-2c.57-.42,1.1-.84,1.59-1.28a4.37,4.37,0,0,1-.1,1.46.32.32,0,0,0,.06.29,14.18,14.18,0,0,0,.5-3.1l0,0a7.61,7.61,0,0,0-1-2.21,8.08,8.08,0,0,0,1-1.32q-.06-.55-.15-1.1a.32.32,0,0,0-.08.11,6.34,6.34,0,0,1-1.13,1.78A11.06,11.06,0,0,0,36.79,39c-.26-.22-.55-.45-.85-.68a16.1,16.1,0,0,0,2.24-2.13,10.63,10.63,0,0,1,.85.85.31.31,0,0,0,.2.1q-.13-.55-.28-1.1l-.38-.35.19-.28c-.09-.27-.17-.54-.27-.8a5.58,5.58,0,0,1-.41.67c-.78-.64-1.72-1.3-2.75-2a6.57,6.57,0,0,0,1.07-1.67c.42.3.83.59,1.2.87q-.25-.5-.53-1l-.22-.36L36.62,31l0-.12q-.22-.34-.46-.66c0,.13-.08.27-.13.41-.68-.46-1.41-.93-2.16-1.41a8,8,0,0,0,.61-.82L34,28a7.41,7.41,0,0,1-.66.89l-.25-.16-2.29-1.48q.38-.33.72-.67l-.67-.23-.59.54L29,26c-.28,0-.55,0-.84,0s-.56,0-.83,0l-1.32.9-.59-.54q-.34.1-.67.23.34.33.72.67l-2.29,1.47-.25.16a7.4,7.4,0,0,1-.66-.89l-.49.41a8,8,0,0,0,.61.82c-.75.48-1.48,1-2.16,1.41,0-.14-.09-.27-.12-.41h0l0,.06-.38.55,0,0h0l0,.12-.21.15-.23.37c-.18.31-.36.64-.53,1,.37-.29.77-.58,1.2-.87a6.55,6.55,0,0,0,1.07,1.67c-1,.68-2,1.35-2.75,2a5.57,5.57,0,0,1-.39-.63l0,0q-.14.39-.27.79l.19.29-.38.35q-.17.6-.31,1.21a.31.31,0,0,0,.11-.08,10.67,10.67,0,0,1,1-1,16.13,16.13,0,0,0,2.24,2.13c-.3.23-.59.46-.85.68a11,11,0,0,0-1.54,1.6,6.34,6.34,0,0,1-1.13-1.78.32.32,0,0,0-.08-.11q-.09.55-.15,1.1a8.07,8.07,0,0,0,1,1.32,7.6,7.6,0,0,0-1,2.21l0,0a14.14,14.14,0,0,0,.5,3.1.32.32,0,0,0,.06-.29,4.33,4.33,0,0,1-.11-1.47c.49.44,1,.87,1.6,1.29a7.11,7.11,0,0,0-.7,2ZM18,41.63a19.13,19.13,0,0,0,2.35,2,9.89,9.89,0,0,0-1.5,1.82A18.65,18.65,0,0,1,17,43.9,6.77,6.77,0,0,1,18,41.63Zm13.91,3.82,0,0c-.91-.71-2-1.44-3.16-2.2l1-.66,2.08-1.34a33.33,33.33,0,0,1,3.08,2.24C33.95,44.18,32.92,44.82,31.91,45.45ZM35.39,44a9.27,9.27,0,0,1,1.51,1.82C36,46.4,35,47,34.09,47.62A11,11,0,0,0,32.54,46l-.14-.11C33.41,45.26,34.43,44.62,35.39,44Zm-6.05-4.29,1.9,1.22L29.4,42.08l-1.27.81-1.27-.81L25,40.89l1.9-1.22,1.21-.77ZM24.95,36l.54-.35c.89-.56,1.78-1.13,2.64-1.71.87.57,1.76,1.14,2.64,1.71l.54.35c-1,.73-2.1,1.45-3.18,2.16C27,37.44,26,36.72,24.95,36Zm-.5,4.53c-1.07-.71-2.12-1.43-3.07-2.15.9-.64,1.92-1.31,3-2,1,.73,2.07,1.45,3.18,2.16l-1,.61Zm-2.54-7.07,2-1.27.94-.6c.84.66,1.77,1.32,2.74,2-.8.53-1.62,1-2.41,1.55l-.75.48A21.44,21.44,0,0,1,21.91,33.44Zm3.48-2.23c.94-.61,1.87-1.22,2.74-1.84.88.62,1.8,1.23,2.74,1.84-.85.66-1.78,1.32-2.74,2C27.17,32.53,26.23,31.87,25.39,31.21Zm6.06.37.94.6,2,1.27a21.36,21.36,0,0,1-2.49,2.14l-.75-.48c-.79-.5-1.61-1-2.41-1.55C29.68,32.9,30.61,32.24,31.44,31.58Zm.45,4.78c1.08.69,2.1,1.36,3,2-.95.72-2,1.44-3.07,2.15l-2.14-1.38-1-.61C29.82,37.81,30.9,37.08,31.89,36.36Zm-.59,9.47c-1.09.68-2.18,1.38-3.17,2.11-1-.72-2.08-1.42-3.17-2.11.91-.7,2-1.43,3.17-2.19C29.3,44.4,30.39,45.13,31.3,45.83Zm-6.92-.36,0,0c-1-.63-2-1.27-3-1.93a33.36,33.36,0,0,1,3.08-2.24l2.08,1.33,1,.66C26.37,44,25.29,44.77,24.38,45.47Zm-.52.42-.14.11a10.85,10.85,0,0,0-1.55,1.61c-1-.6-1.92-1.21-2.81-1.84A9.24,9.24,0,0,1,20.87,44C21.83,44.62,22.85,45.26,23.86,45.89Zm-3-7.13c.93.72,2,1.43,3,2.14a32,32,0,0,0-3,2.17l-.09.08a18.56,18.56,0,0,1-2.45-2,10.32,10.32,0,0,1,1.52-1.59C20.18,39.27,20.5,39,20.84,38.76Zm.53-5A20.58,20.58,0,0,0,23.82,36c-1.07.69-2.08,1.36-3,2a16.15,16.15,0,0,1-2.28-2.15C19.36,35.17,20.31,34.5,21.36,33.8Zm2.93-2.65-.76.48L21.47,33a5.91,5.91,0,0,1-1-1.62l0-.06c.74-.5,1.54-1,2.37-1.55A17.25,17.25,0,0,0,24.3,31.16ZM27.58,29c-.87.61-1.79,1.21-2.72,1.81a17.75,17.75,0,0,1-1.54-1.4l.16-.1c.81-.52,1.64-1,2.45-1.58C26.44,28.13,27,28.56,27.58,29Zm2.2-1.64c-.51.42-1.07.84-1.65,1.26-.58-.42-1.14-.84-1.65-1.26.56-.38,1.12-.76,1.65-1.14C28.66,26.58,29.21,27,29.78,27.34Zm3.16,2a17.8,17.8,0,0,1-1.54,1.4c-.93-.6-1.85-1.2-2.72-1.81.58-.42,1.14-.85,1.65-1.27.81.53,1.64,1.06,2.45,1.58ZM34.79,33l-2.07-1.33L32,31.16a17.14,17.14,0,0,0,1.52-1.42c.83.53,1.62,1,2.37,1.55l0,.06A5.91,5.91,0,0,1,34.79,33Zm.62,5c-.89-.65-1.9-1.32-3-2A20.55,20.55,0,0,0,34.9,33.8c1.05.7,2,1.37,2.79,2A16.08,16.08,0,0,1,35.41,38Zm2.48,3.15a18.5,18.5,0,0,1-2.45,2l-.09-.08a31.92,31.92,0,0,0-3-2.17c1.07-.71,2.1-1.42,3-2.14.34.26.66.51,1,.76A10.13,10.13,0,0,1,37.89,41.11Zm-.48,4.29a9.86,9.86,0,0,0-1.5-1.82,19.15,19.15,0,0,0,2.34-1.95,6.83,6.83,0,0,1,1,2.28A18.66,18.66,0,0,1,37.41,45.4Zm-3,2.73c.94-.59,1.87-1.19,2.75-1.8a6.38,6.38,0,0,1,.64,2l-.93.58-1.58,1A7.79,7.79,0,0,0,34.46,48.13Zm-3.57,2.29c.95-.65,2-1.29,3-1.91l.07,0a7.16,7.16,0,0,1,.88,1.78,31.25,31.25,0,0,0-2.76,2A8.44,8.44,0,0,0,30.89,50.42ZM29.49,49c-.26-.22-.54-.44-.83-.66,1-.71,2.08-1.41,3.17-2.09l.29.24A10.34,10.34,0,0,1,33.54,48l0,0c-1,.64-2.07,1.3-3,2A11.85,11.85,0,0,0,29.49,49Zm-3.17,1.31a11.06,11.06,0,0,1,.87-.83c.3-.25.62-.5.95-.75.33.25.65.5.95.75a11,11,0,0,1,.87.83c-.55.4-1.08.8-1.56,1.21l-.25.22-.25-.22C27.4,51.11,26.87,50.71,26.32,50.31Zm-.53-.37c-1-.67-2-1.33-3-2l0,0a10.35,10.35,0,0,1,1.42-1.47l.29-.24c1.09.68,2.18,1.37,3.17,2.09-.29.22-.56.44-.83.66A11.8,11.8,0,0,0,25.79,49.94Zm-4.32.31a7.16,7.16,0,0,1,.87-1.78l.06,0c1,.62,2,1.26,3,1.91a8.39,8.39,0,0,0-1.15,1.81A31.47,31.47,0,0,0,21.47,50.25Zm-3.06-1.94a6.37,6.37,0,0,1,.64-2c.88.62,1.82,1.22,2.75,1.8a7.85,7.85,0,0,0-.89,1.76l-1.59-1Z"/><path class="cls-3" d="M182.79,129.67s-4-4.94-11.52-.1c0,0,8.82-.56,10.86,3.59Z"/><path class="cls-4" d="M181.67,125.33A11.35,11.35,0,0,0,169.56,124s7.76,1.07,12.57,6.29Z"/><path class="cls-5" d="M182.2,128.72s-6.78-8.76-11.29-9.12a13.4,13.4,0,0,1,12.8,4.41Z"/><path class="cls-6" d="M182.33,126.18s-3.42-7.34-7-10.24a11.09,11.09,0,0,1,9.12,6.55Z"/><path class="cls-3" d="M182.39,124.19s-3.84-5.37.86-12.06a19.93,19.93,0,0,1,.82,11.88Z"/><path class="cls-4" d="M184.57,120.21c2.95-2.25,8.4-1.11,8.4-1.11-4.78,1-10.92,8.72-10.92,8.72A6.67,6.67,0,0,1,184.57,120.21Z"/><path class="cls-6" d="M187.24,123.18a11.3,11.3,0,0,1,6.28-.17s-7.37,2.63-11,8.73C182.51,131.74,179.17,126.1,187.24,123.18Z"/><path class="cls-5" d="M182.72,133.42s-3.28-4.42,3.2-6.5c1.64-.53,3.88-.32,6.7.77,0,0-8.75,1.25-9.9,5.73"/><path class="cls-7" d="M181.76,157.91c-5.39,0-8.32-1.51-10.45-5.39s-1.42-11.63,1.52-16.59c2.13-3.6,5.3-5.58,8.93-5.58s6.8,2,8.93,5.58c2.94,5,3.65,12.72,1.52,16.59S187.16,157.91,181.76,157.91Z"/><path class="cls-8" d="M178.09,132.36c2.35-1.12,8.45-2.74,9.76,9.15.9,8.18-5.5,15.32-10.54,13.63s-6.26-6.62-5.65-12.35C172.16,138.25,174.59,134,178.09,132.36Z"/><path class="cls-9" d="M174,145.44c-.79-3-.53-6.78,3.29-10.4,4.17-4,8.23-.53,3.94,9.42C178.53,150.67,174.41,147.13,174,145.44Z"/><path class="cls-10" d="M176.12,139.72c.67-1.77,1.87-4.1,3.19-3.46s.64,5.33-.53,6.65S175.17,142.22,176.12,139.72Z"/><path class="cls-11" d="M192.07,152.32a7.11,7.11,0,0,0-.7-2c.57-.42,1.11-.85,1.6-1.29a4.33,4.33,0,0,1-.11,1.47.32.32,0,0,0,.06.29,14.14,14.14,0,0,0,.5-3.1l0,0a7.6,7.6,0,0,0-1-2.21,8.07,8.07,0,0,0,1-1.32q-.06-.55-.15-1.1a.32.32,0,0,0-.08.11A6.34,6.34,0,0,1,192,145a11,11,0,0,0-1.54-1.6c-.26-.22-.55-.45-.85-.68a16.13,16.13,0,0,0,2.24-2.13,10.67,10.67,0,0,1,1,1,.31.31,0,0,0,.11.08q-.14-.61-.31-1.21l-.38-.35.19-.29q-.13-.4-.27-.79l0,0a5.57,5.57,0,0,1-.39.63c-.78-.64-1.72-1.3-2.75-2A6.55,6.55,0,0,0,190,136c.42.29.83.59,1.2.87-.17-.33-.34-.66-.53-1l-.23-.37-.21-.15,0-.12h0l0,0-.38-.55,0-.06h0c0,.13-.08.27-.12.41-.68-.46-1.41-.93-2.16-1.41a8,8,0,0,0,.61-.82l-.49-.41a7.4,7.4,0,0,1-.66.89l-.25-.16-2.29-1.47q.38-.33.72-.67-.33-.13-.67-.23l-.59.54-1.32-.9c-.28,0-.55,0-.83,0s-.56,0-.84,0l-1.32.9-.59-.54-.67.23q.34.33.72.67l-2.29,1.48-.25.16a7.41,7.41,0,0,1-.66-.89l-.49.41a8,8,0,0,0,.61.82c-.75.48-1.48,1-2.16,1.41,0-.14-.09-.27-.13-.41q-.24.32-.46.66l0,.12-.22.15-.22.36q-.28.47-.53,1c.37-.29.78-.58,1.2-.87a6.57,6.57,0,0,0,1.07,1.67c-1,.68-2,1.35-2.75,2a5.58,5.58,0,0,1-.41-.67c-.09.26-.18.53-.27.8l.19.28-.38.35q-.15.55-.28,1.1a.31.31,0,0,0,.2-.1,10.63,10.63,0,0,1,.85-.85,16.1,16.1,0,0,0,2.24,2.13c-.3.23-.59.46-.85.68a11.06,11.06,0,0,0-1.54,1.6,6.34,6.34,0,0,1-1.13-1.78.32.32,0,0,0-.08-.11q-.09.55-.15,1.1a8.08,8.08,0,0,0,1,1.32,7.61,7.61,0,0,0-1,2.21l0,0a14.18,14.18,0,0,0,.5,3.1.32.32,0,0,0,.06-.29,4.37,4.37,0,0,1-.1-1.46c.49.44,1,.86,1.59,1.28a7.1,7.1,0,0,0-.7,2l-.37-.24c.07.16.15.31.23.45q.32.59.67,1.1,0-.11,0-.23l.65.41,1.73,1.09a6.47,6.47,0,0,0-.17,1.08q.3.22.62.41a5.74,5.74,0,0,1,.12-1.12,28.64,28.64,0,0,1,2.68,2l-.08.25a13.84,13.84,0,0,0,1.57.28c-.23-.25-.47-.49-.73-.72a7.78,7.78,0,0,1,1.16-1.88c.56.4,1.09.8,1.57,1.21l.2.18a10,10,0,0,0-1.11,1.31l.77,0a9.77,9.77,0,0,1,.8-.91,9.69,9.69,0,0,1,.8.91l.77,0a10,10,0,0,0-1.11-1.31l.2-.18c.48-.41,1-.82,1.57-1.21a7.7,7.7,0,0,1,1.16,1.88c-.26.23-.5.48-.73.72a13.85,13.85,0,0,0,1.56-.28c0-.08,0-.17-.08-.26a28.61,28.61,0,0,1,2.68-2,5.74,5.74,0,0,1,.12,1.12q.32-.19.62-.41a6.56,6.56,0,0,0-.17-1.08l1.73-1.1.65-.41c0,.08,0,.16,0,.23.23-.35.46-.71.68-1.11.08-.15.15-.3.23-.45Zm.79-4a18.65,18.65,0,0,1-1.81,1.5,9.89,9.89,0,0,0-1.5-1.82,19.13,19.13,0,0,0,2.35-2A6.77,6.77,0,0,1,192.86,148.28ZM175,147.9a33.33,33.33,0,0,1,3.08-2.24l2.08,1.34,1,.66c-1.17.76-2.26,1.5-3.16,2.2l0,0C177,149.19,175.95,148.55,175,147.9Zm2.5,2.37-.14.11a11,11,0,0,0-1.55,1.61c-1-.6-1.92-1.21-2.81-1.84a9.27,9.27,0,0,1,1.51-1.82C175.46,149,176.48,149.64,177.49,150.27Zm4.27-7L183,144l1.9,1.22L183,146.45l-1.27.81-1.27-.81-1.84-1.18,1.9-1.22Zm0-.76c-1.09-.7-2.18-1.43-3.18-2.16l.54-.35c.88-.56,1.78-1.13,2.64-1.71.87.57,1.76,1.14,2.64,1.71l.54.35C183.94,141.09,182.85,141.82,181.76,142.52Zm1.55,1-1-.61c1.1-.72,2.19-1.44,3.18-2.16,1.08.69,2.1,1.36,3,2-.95.72-2,1.45-3.07,2.15ZM185.5,140l-.75-.48c-.79-.5-1.61-1-2.41-1.55,1-.65,1.9-1.31,2.74-2l.94.6,2,1.27A21.44,21.44,0,0,1,185.5,140Zm-3.73-2.41c-1-.65-1.9-1.3-2.74-2,.94-.61,1.87-1.22,2.74-1.84.88.62,1.8,1.23,2.74,1.84C183.66,136.24,182.73,136.9,181.76,137.54Zm-.57.38c-.8.53-1.62,1-2.41,1.55L178,140a21.36,21.36,0,0,1-2.49-2.14l2-1.27.94-.6C179.29,136.61,180.22,137.27,181.19,137.93Zm0,5-1,.61-2.14,1.38c-1.07-.71-2.12-1.43-3.07-2.15.9-.64,1.92-1.31,3-2C179,141.46,180.07,142.18,181.18,142.9Zm.59,5.12c1.17.76,2.26,1.49,3.17,2.19-1.09.68-2.18,1.38-3.17,2.11-1-.72-2.08-1.42-3.17-2.11C179.5,149.51,180.59,148.78,181.76,148Zm.59-.38,1-.66,2.08-1.33a33.36,33.36,0,0,1,3.08,2.24c-1,.66-2,1.3-3,1.93l0,0C184.6,149.14,183.52,148.4,182.35,147.64Zm6.67.69a9.24,9.24,0,0,1,1.51,1.82c-.89.63-1.85,1.24-2.81,1.84a10.85,10.85,0,0,0-1.55-1.61l-.14-.11C187,149.64,188.07,149,189,148.33Zm1-4.44a10.32,10.32,0,0,1,1.52,1.59,18.56,18.56,0,0,1-2.45,2l-.09-.08a32,32,0,0,0-3-2.17c1.07-.71,2.1-1.42,3-2.14C189.4,143.39,189.72,143.65,190,143.9Zm1.31-3.71a16.15,16.15,0,0,1-2.28,2.15c-.89-.65-1.9-1.32-3-2a20.58,20.58,0,0,0,2.46-2.15C189.58,138.87,190.54,139.54,191.32,140.19Zm-4.2-6.07c.83.53,1.62,1,2.37,1.55l0,.06a5.91,5.91,0,0,1-1,1.62L186.36,136l-.76-.48A17.25,17.25,0,0,0,187.12,134.12Zm-3.16-2c.81.53,1.63,1.06,2.45,1.58l.16.1a17.75,17.75,0,0,1-1.54,1.4c-.93-.6-1.85-1.2-2.72-1.81C182.9,132.93,183.45,132.51,184,132.08Zm-2.2-1.51c.53.38,1.08.76,1.65,1.14-.51.42-1.07.84-1.65,1.26-.58-.42-1.14-.84-1.65-1.26C180.68,131.34,181.23,131,181.76,130.58Zm-4.65,3.09c.81-.52,1.64-1,2.45-1.58.51.43,1.07.85,1.65,1.27-.87.61-1.79,1.21-2.72,1.81a17.8,17.8,0,0,1-1.54-1.4Zm-3.05,2.06,0-.06c.74-.5,1.54-1,2.37-1.55a17.14,17.14,0,0,0,1.52,1.42l-.76.48-2.07,1.33A5.91,5.91,0,0,1,174.06,135.72Zm-1.86,4.46c.78-.64,1.74-1.31,2.79-2a20.55,20.55,0,0,0,2.46,2.15c-1.07.69-2.08,1.36-3,2A16.08,16.08,0,0,1,172.2,140.18Zm1.31,3.71c.29-.25.61-.5,1-.76.93.72,2,1.43,3,2.14a31.92,31.92,0,0,0-3,2.17l-.09.08a18.5,18.5,0,0,1-2.45-2A10.13,10.13,0,0,1,173.52,143.9Zm-2.84,4.39a6.83,6.83,0,0,1,1-2.28A19.15,19.15,0,0,0,174,148a9.86,9.86,0,0,0-1.5,1.82A18.66,18.66,0,0,1,170.68,148.29Zm3.87,6-1.58-1-.93-.58a6.38,6.38,0,0,1,.64-2c.88.62,1.81,1.21,2.75,1.8A7.79,7.79,0,0,0,174.55,154.27Zm3.31,2.35a31.25,31.25,0,0,0-2.76-2,7.16,7.16,0,0,1,.88-1.78l.07,0c1,.62,2,1.26,3,1.91A8.44,8.44,0,0,0,177.86,156.61Zm1.57-2.3c-1-.67-2-1.33-3-2l0,0a10.34,10.34,0,0,1,1.42-1.47l.29-.24c1.09.68,2.18,1.37,3.17,2.09-.29.22-.56.44-.83.66A11.85,11.85,0,0,0,179.42,154.32Zm2.59,1.58-.25.22-.25-.22c-.48-.41-1-.81-1.56-1.21a11,11,0,0,1,.87-.83c.3-.25.62-.5.95-.75.33.25.65.5.95.75a11.06,11.06,0,0,1,.87.83C183,155.08,182.5,155.48,182,155.89Zm1.11-2.52c-.26-.22-.54-.44-.83-.66,1-.71,2.08-1.41,3.17-2.09l.29.24a10.35,10.35,0,0,1,1.42,1.47l0,0c-1,.64-2.07,1.3-3,2A11.8,11.8,0,0,0,183.12,153.37Zm2.55,3.24a8.39,8.39,0,0,0-1.15-1.81c1-.65,2-1.29,3-1.91l.06,0a7.16,7.16,0,0,1,.87,1.78A31.47,31.47,0,0,0,185.67,156.61Zm4.89-3.34-1.59,1a7.85,7.85,0,0,0-.89-1.76c.94-.59,1.88-1.19,2.75-1.8a6.37,6.37,0,0,1,.64,2Z"/><path class="cls-3" d="M221.4,149.55s-4-4.94-11.52-.1c0,0,8.82-.56,10.86,3.59Z"/><path class="cls-4" d="M220.28,145.21a11.35,11.35,0,0,0-12.11-1.28s7.76,1.07,12.57,6.29Z"/><path class="cls-5" d="M220.8,148.6s-6.78-8.76-11.29-9.12a13.4,13.4,0,0,1,12.8,4.41Z"/><path class="cls-6" d="M220.93,146.07s-3.42-7.34-7-10.24a11.09,11.09,0,0,1,9.12,6.55Z"/><path class="cls-3" d="M221,144.07s-3.84-5.37.86-12.06a19.93,19.93,0,0,1,.82,11.88Z"/><path class="cls-4" d="M223.17,140.1c2.95-2.25,8.4-1.11,8.4-1.11-4.78,1-10.92,8.72-10.92,8.72A6.67,6.67,0,0,1,223.17,140.1Z"/><path class="cls-6" d="M225.85,143.06a11.3,11.3,0,0,1,6.28-.17s-7.37,2.63-11,8.73C221.11,151.62,217.77,146,225.85,143.06Z"/><path class="cls-5" d="M221.32,153.3s-3.28-4.42,3.2-6.5c1.64-.53,3.88-.32,6.7.77,0,0-8.75,1.25-9.9,5.73"/><path class="cls-7" d="M220.37,177.79c-5.39,0-8.32-1.51-10.45-5.39s-1.42-11.63,1.52-16.59c2.13-3.6,5.3-5.58,8.93-5.58s6.8,2,8.93,5.58c2.94,5,3.65,12.72,1.52,16.59S225.76,177.79,220.37,177.79Z"/><path class="cls-8" d="M216.7,152.24c2.35-1.12,8.45-2.74,9.76,9.15.9,8.18-5.5,15.32-10.54,13.63s-6.26-6.62-5.65-12.35C210.76,158.13,213.2,153.91,216.7,152.24Z"/><path class="cls-9" d="M212.58,165.32c-.79-3-.53-6.78,3.29-10.4,4.17-4,8.23-.53,3.94,9.42C217.14,170.55,213,167,212.58,165.32Z"/><path class="cls-10" d="M214.72,159.6c.67-1.77,1.87-4.1,3.19-3.46s.64,5.33-.53,6.65S213.78,162.1,214.72,159.6Z"/><path class="cls-11" d="M230.67,172.2a7.11,7.11,0,0,0-.7-2c.57-.42,1.11-.85,1.6-1.29a4.33,4.33,0,0,1-.11,1.47.32.32,0,0,0,.06.29,14.14,14.14,0,0,0,.5-3.1l0,0a7.6,7.6,0,0,0-1-2.21,8.07,8.07,0,0,0,1-1.32q-.06-.55-.15-1.1a.32.32,0,0,0-.08.11,6.34,6.34,0,0,1-1.13,1.78,11,11,0,0,0-1.54-1.6c-.26-.22-.55-.45-.85-.68a16.13,16.13,0,0,0,2.24-2.13,10.67,10.67,0,0,1,1,1,.31.31,0,0,0,.11.08q-.14-.61-.31-1.21l-.38-.35.19-.29q-.13-.4-.27-.79l0,0a5.57,5.57,0,0,1-.39.63c-.78-.64-1.72-1.3-2.75-2a6.55,6.55,0,0,0,1.07-1.67c.42.29.83.59,1.2.87-.17-.33-.34-.66-.53-1l-.23-.37-.21-.15,0-.12h0l0,0-.38-.55,0-.06h0c0,.13-.08.27-.12.41-.68-.46-1.41-.93-2.16-1.41a8,8,0,0,0,.61-.82l-.49-.41a7.4,7.4,0,0,1-.66.89l-.25-.16-2.29-1.47q.38-.33.72-.67-.33-.13-.67-.23l-.59.54-1.32-.9c-.28,0-.55,0-.83,0s-.56,0-.84,0l-1.32.9-.59-.54-.67.23q.34.33.72.67L215.37,153l-.25.16a7.41,7.41,0,0,1-.66-.89l-.49.41a8,8,0,0,0,.61.82c-.75.48-1.48,1-2.16,1.41,0-.14-.09-.27-.13-.41q-.24.32-.46.66l0,.12-.22.15-.22.36q-.28.47-.53,1c.37-.29.78-.58,1.2-.87a6.57,6.57,0,0,0,1.07,1.67c-1,.68-2,1.35-2.75,2a5.58,5.58,0,0,1-.41-.67c-.09.26-.18.53-.27.8l.19.28-.38.35q-.15.55-.28,1.1a.31.31,0,0,0,.2-.1,10.63,10.63,0,0,1,.85-.85,16.1,16.1,0,0,0,2.24,2.13c-.3.23-.59.46-.85.68a11.06,11.06,0,0,0-1.54,1.6,6.34,6.34,0,0,1-1.13-1.78A.32.32,0,0,0,209,163q-.09.55-.15,1.1a8.08,8.08,0,0,0,1,1.32,7.61,7.61,0,0,0-1,2.21l0,0a14.18,14.18,0,0,0,.5,3.1.32.32,0,0,0,.06-.29,4.37,4.37,0,0,1-.1-1.46c.49.44,1,.86,1.59,1.28a7.1,7.1,0,0,0-.7,2l-.37-.24c.07.16.15.31.23.45q.32.59.67,1.1,0-.11,0-.23l.65.41,1.73,1.09a6.47,6.47,0,0,0-.17,1.08q.3.22.62.41a5.74,5.74,0,0,1,.12-1.12,28.64,28.64,0,0,1,2.68,2l-.08.25a13.84,13.84,0,0,0,1.57.28c-.23-.25-.47-.49-.73-.72a7.78,7.78,0,0,1,1.16-1.88c.56.4,1.09.8,1.57,1.21l.2.18a10,10,0,0,0-1.11,1.31l.77,0a9.77,9.77,0,0,1,.8-.91,9.69,9.69,0,0,1,.8.91l.77,0a10,10,0,0,0-1.11-1.31l.2-.18c.48-.41,1-.82,1.57-1.21a7.7,7.7,0,0,1,1.16,1.88c-.26.23-.5.48-.73.72a13.85,13.85,0,0,0,1.56-.28c0-.08,0-.17-.08-.26a28.61,28.61,0,0,1,2.68-2,5.74,5.74,0,0,1,.12,1.12q.32-.19.62-.41a6.56,6.56,0,0,0-.17-1.08l1.73-1.1.65-.41c0,.08,0,.16,0,.23.23-.35.46-.71.68-1.11.08-.15.15-.3.23-.45Zm.79-4a18.65,18.65,0,0,1-1.81,1.5,9.89,9.89,0,0,0-1.5-1.82,19.13,19.13,0,0,0,2.35-2A6.77,6.77,0,0,1,231.46,168.16Zm-17.87-.38a33.33,33.33,0,0,1,3.08-2.24l2.08,1.34,1,.66c-1.17.76-2.26,1.5-3.16,2.2l0,0C215.58,169.07,214.55,168.43,213.6,167.78Zm2.5,2.37-.14.11a11,11,0,0,0-1.55,1.61c-1-.6-1.92-1.21-2.81-1.84a9.27,9.27,0,0,1,1.51-1.82C214.07,168.88,215.09,169.52,216.1,170.15Zm4.27-7,1.21.77,1.9,1.22-1.84,1.18-1.27.81-1.27-.81-1.84-1.18,1.9-1.22Zm0-.76c-1.09-.7-2.18-1.43-3.18-2.16l.54-.35c.88-.56,1.78-1.13,2.64-1.71.87.57,1.76,1.14,2.64,1.71l.54.35C222.55,161,221.46,161.7,220.37,162.4Zm1.55,1-1-.61c1.1-.72,2.19-1.44,3.18-2.16,1.08.69,2.1,1.36,3,2-.95.72-2,1.45-3.07,2.15Zm2.18-3.55-.75-.48c-.79-.5-1.61-1-2.41-1.55,1-.65,1.9-1.31,2.74-2l.94.6,2,1.27A21.44,21.44,0,0,1,224.1,159.84Zm-3.73-2.41c-1-.65-1.9-1.3-2.74-2,.94-.61,1.87-1.22,2.74-1.84.88.62,1.8,1.23,2.74,1.84C222.27,156.12,221.33,156.78,220.37,157.43Zm-.57.38c-.8.53-1.62,1-2.41,1.55l-.75.48a21.36,21.36,0,0,1-2.49-2.14l2-1.27.94-.6C217.89,156.49,218.82,157.15,219.79,157.81Zm0,5-1,.61-2.14,1.38c-1.07-.71-2.12-1.43-3.07-2.15.9-.64,1.92-1.31,3-2C217.6,161.34,218.68,162.06,219.78,162.78Zm.59,5.12c1.17.76,2.26,1.49,3.17,2.19-1.09.68-2.18,1.38-3.17,2.11-1-.72-2.08-1.42-3.17-2.11C218.11,169.39,219.2,168.66,220.37,167.9Zm.59-.38,1-.66,2.08-1.33a33.36,33.36,0,0,1,3.08,2.24c-1,.66-2,1.3-3,1.93l0,0C223.21,169,222.13,168.29,221,167.52Zm6.67.69a9.24,9.24,0,0,1,1.51,1.82c-.89.63-1.85,1.24-2.81,1.84a10.85,10.85,0,0,0-1.55-1.61l-.14-.11C225.65,169.52,226.67,168.87,227.63,168.21Zm1-4.44a10.32,10.32,0,0,1,1.52,1.59,18.56,18.56,0,0,1-2.45,2l-.09-.08a32,32,0,0,0-3-2.17c1.07-.71,2.1-1.42,3-2.14C228,163.27,228.32,163.53,228.62,163.78Zm1.31-3.71a16.15,16.15,0,0,1-2.28,2.15c-.89-.65-1.9-1.32-3-2a20.58,20.58,0,0,0,2.46-2.15C228.19,158.75,229.14,159.43,229.93,160.07Zm-4.2-6.07c.83.53,1.62,1,2.37,1.55l0,.06a5.91,5.91,0,0,1-1,1.62L225,155.9l-.76-.48A17.25,17.25,0,0,0,225.73,154Zm-3.16-2c.81.53,1.63,1.06,2.45,1.58l.16.1a17.75,17.75,0,0,1-1.54,1.4c-.93-.6-1.85-1.2-2.72-1.81C221.5,152.82,222.06,152.39,222.57,152Zm-2.2-1.51c.53.38,1.08.76,1.65,1.14-.51.42-1.07.84-1.65,1.26-.58-.42-1.14-.84-1.65-1.26C219.29,151.22,219.84,150.84,220.37,150.46Zm-4.65,3.09c.81-.52,1.64-1,2.45-1.58.51.43,1.07.85,1.65,1.27-.87.61-1.79,1.21-2.72,1.81a17.8,17.8,0,0,1-1.54-1.4Zm-3.05,2.06,0-.06c.74-.5,1.54-1,2.37-1.55a17.14,17.14,0,0,0,1.52,1.42l-.76.48-2.07,1.33A5.91,5.91,0,0,1,212.67,155.6Zm-1.86,4.46c.78-.64,1.74-1.31,2.79-2a20.55,20.55,0,0,0,2.46,2.15c-1.07.69-2.08,1.36-3,2A16.08,16.08,0,0,1,210.81,160.07Zm1.31,3.71c.29-.25.61-.5,1-.76.93.72,2,1.43,3,2.14a31.92,31.92,0,0,0-3,2.17l-.09.08a18.5,18.5,0,0,1-2.45-2A10.13,10.13,0,0,1,212.12,163.78Zm-2.84,4.39a6.83,6.83,0,0,1,1-2.28,19.15,19.15,0,0,0,2.34,1.95,9.86,9.86,0,0,0-1.5,1.82A18.66,18.66,0,0,1,209.29,168.17Zm3.87,6-1.58-1-.93-.58a6.38,6.38,0,0,1,.64-2c.88.62,1.81,1.21,2.75,1.8A7.79,7.79,0,0,0,213.15,174.15Zm3.31,2.35a31.25,31.25,0,0,0-2.76-2,7.16,7.16,0,0,1,.88-1.78l.07,0c1,.62,2,1.26,3,1.91A8.44,8.44,0,0,0,216.46,176.49Zm1.57-2.3c-1-.67-2-1.33-3-2l0,0a10.34,10.34,0,0,1,1.42-1.47l.29-.24c1.09.68,2.18,1.37,3.17,2.09-.29.22-.56.44-.83.66A11.85,11.85,0,0,0,218,174.2Zm2.59,1.58-.25.22-.25-.22c-.48-.41-1-.81-1.56-1.21a11,11,0,0,1,.87-.83c.3-.25.62-.5.95-.75.33.25.65.5.95.75a11.06,11.06,0,0,1,.87.83C221.63,175,221.1,175.36,220.62,175.77Zm1.11-2.52c-.26-.22-.54-.44-.83-.66,1-.71,2.08-1.41,3.17-2.09l.29.24a10.35,10.35,0,0,1,1.42,1.47l0,0c-1,.64-2.07,1.3-3,2A11.8,11.8,0,0,0,221.73,173.25Zm2.55,3.24a8.39,8.39,0,0,0-1.15-1.81c1-.65,2-1.29,3-1.91l.06,0a7.16,7.16,0,0,1,.87,1.78A31.47,31.47,0,0,0,224.28,176.49Zm4.89-3.34-1.59,1a7.85,7.85,0,0,0-.89-1.76c.94-.59,1.88-1.19,2.75-1.8a6.37,6.37,0,0,1,.64,2Z"/><path class="cls-3" d="M193.37,174.92s-4-4.94-11.52-.1c0,0,8.82-.56,10.86,3.59Z"/><path class="cls-4" d="M192.25,170.58a11.35,11.35,0,0,0-12.11-1.28s7.76,1.07,12.57,6.29Z"/><path class="cls-5" d="M192.78,174s-6.78-8.76-11.29-9.12a13.4,13.4,0,0,1,12.8,4.41Z"/><path class="cls-6" d="M192.91,171.43s-3.42-7.34-7-10.24a11.09,11.09,0,0,1,9.12,6.55Z"/><path class="cls-3" d="M193,169.44s-3.84-5.37.86-12.06a19.93,19.93,0,0,1,.82,11.88Z"/><path class="cls-4" d="M195.14,165.46c2.95-2.25,8.4-1.11,8.4-1.11-4.78,1-10.92,8.72-10.92,8.72A6.67,6.67,0,0,1,195.14,165.46Z"/><path class="cls-6" d="M197.82,168.43a11.3,11.3,0,0,1,6.28-.17s-7.37,2.63-11,8.73C193.09,177,189.75,171.35,197.82,168.43Z"/><path class="cls-5" d="M193.29,178.67s-3.28-4.42,3.2-6.5c1.64-.53,3.88-.32,6.7.77,0,0-8.75,1.25-9.9,5.73"/><path class="cls-7" d="M192.34,203.16c-5.39,0-8.32-1.51-10.45-5.39s-1.42-11.63,1.52-16.59c2.13-3.6,5.3-5.58,8.93-5.58s6.8,2,8.93,5.58c2.94,5,3.65,12.72,1.52,16.59S197.73,203.16,192.34,203.16Z"/><path class="cls-8" d="M188.67,177.61c2.35-1.12,8.45-2.74,9.76,9.15.9,8.18-5.5,15.32-10.54,13.63s-6.26-6.62-5.65-12.35C182.73,183.5,185.17,179.28,188.67,177.61Z"/><path class="cls-9" d="M184.56,190.69c-.79-3-.53-6.78,3.29-10.4,4.17-4,8.23-.53,3.94,9.42C189.11,195.92,185,192.38,184.56,190.69Z"/><path class="cls-10" d="M186.69,185c.67-1.77,1.87-4.1,3.19-3.46s.64,5.33-.53,6.65S185.75,187.47,186.69,185Z"/><path class="cls-11" d="M202.65,197.57a7.11,7.11,0,0,0-.7-2c.57-.42,1.11-.85,1.6-1.29a4.33,4.33,0,0,1-.11,1.47.32.32,0,0,0,.06.29,14.14,14.14,0,0,0,.5-3.1l0,0a7.6,7.6,0,0,0-1-2.21,8.07,8.07,0,0,0,1-1.32q-.06-.55-.15-1.1a.32.32,0,0,0-.08.11,6.34,6.34,0,0,1-1.13,1.78,11,11,0,0,0-1.54-1.6c-.26-.22-.55-.45-.85-.68a16.13,16.13,0,0,0,2.24-2.13,10.67,10.67,0,0,1,1,1,.31.31,0,0,0,.11.08q-.14-.61-.31-1.21l-.38-.35.19-.29q-.13-.4-.27-.79l0,0a5.57,5.57,0,0,1-.39.63c-.78-.64-1.72-1.3-2.75-2a6.55,6.55,0,0,0,1.07-1.67c.42.29.83.59,1.2.87-.17-.33-.34-.66-.53-1l-.23-.37-.21-.15,0-.12h0l0,0-.38-.55,0-.06h0c0,.13-.08.27-.12.41-.68-.46-1.41-.93-2.16-1.41a8,8,0,0,0,.61-.82l-.49-.41a7.4,7.4,0,0,1-.66.89l-.25-.16L195,176.9q.38-.33.72-.67-.33-.13-.67-.23l-.59.54-1.32-.9c-.28,0-.55,0-.83,0s-.56,0-.84,0l-1.32.9-.59-.54-.67.23q.34.33.72.67l-2.29,1.48-.25.16a7.41,7.41,0,0,1-.66-.89l-.49.41a8,8,0,0,0,.61.82c-.75.48-1.48,1-2.16,1.41,0-.14-.09-.27-.13-.41q-.24.32-.46.66l0,.12-.22.15-.22.36q-.28.47-.53,1c.37-.29.78-.58,1.2-.87a6.57,6.57,0,0,0,1.07,1.67c-1,.68-2,1.35-2.75,2a5.58,5.58,0,0,1-.41-.67c-.09.26-.18.53-.27.8l.19.28-.38.35q-.15.55-.28,1.1a.31.31,0,0,0,.2-.1,10.63,10.63,0,0,1,.85-.85,16.1,16.1,0,0,0,2.24,2.13c-.3.23-.59.46-.85.68a11.06,11.06,0,0,0-1.54,1.6,6.34,6.34,0,0,1-1.13-1.78.32.32,0,0,0-.08-.11q-.09.55-.15,1.1a8.08,8.08,0,0,0,1,1.32,7.61,7.61,0,0,0-1,2.21l0,0a14.18,14.18,0,0,0,.5,3.1.32.32,0,0,0,.06-.29,4.37,4.37,0,0,1-.1-1.46c.49.44,1,.86,1.59,1.28a7.1,7.1,0,0,0-.7,2l-.37-.24c.07.16.15.31.23.45q.32.59.67,1.1,0-.11,0-.23l.65.41,1.73,1.09a6.47,6.47,0,0,0-.17,1.08q.3.22.62.41a5.74,5.74,0,0,1,.12-1.12,28.64,28.64,0,0,1,2.68,2l-.08.25a13.84,13.84,0,0,0,1.57.28c-.23-.25-.47-.49-.73-.72a7.78,7.78,0,0,1,1.16-1.88c.56.4,1.09.8,1.57,1.21l.2.18a10,10,0,0,0-1.11,1.31l.77,0a9.77,9.77,0,0,1,.8-.91,9.69,9.69,0,0,1,.8.91l.77,0a10,10,0,0,0-1.11-1.31l.2-.18c.48-.41,1-.82,1.57-1.21a7.7,7.7,0,0,1,1.16,1.88c-.26.23-.5.48-.73.72a13.85,13.85,0,0,0,1.56-.28c0-.08,0-.17-.08-.26a28.61,28.61,0,0,1,2.68-2,5.74,5.74,0,0,1,.12,1.12q.32-.19.62-.41a6.56,6.56,0,0,0-.17-1.08l1.73-1.1.65-.41c0,.08,0,.16,0,.23.23-.35.46-.71.68-1.11.08-.15.15-.3.23-.45Zm.79-4a18.65,18.65,0,0,1-1.81,1.5,9.89,9.89,0,0,0-1.5-1.82,19.13,19.13,0,0,0,2.35-2A6.77,6.77,0,0,1,203.43,193.53Zm-17.87-.38a33.33,33.33,0,0,1,3.08-2.24l2.08,1.34,1,.66c-1.17.76-2.26,1.5-3.16,2.2l0,0C187.55,194.44,186.53,193.8,185.57,193.15Zm2.5,2.37-.14.11a11,11,0,0,0-1.55,1.61c-1-.6-1.92-1.21-2.81-1.84a9.27,9.27,0,0,1,1.51-1.82C186,194.24,187.06,194.89,188.07,195.52Zm4.27-7,1.21.77,1.9,1.22-1.84,1.18-1.27.81-1.27-.81-1.84-1.18,1.9-1.22Zm0-.76c-1.09-.7-2.18-1.43-3.18-2.16l.54-.35c.88-.56,1.78-1.13,2.64-1.71.87.57,1.76,1.14,2.64,1.71l.54.35C194.52,186.34,193.43,187.07,192.34,187.77Zm1.55,1-1-.61c1.1-.72,2.19-1.44,3.18-2.16,1.08.69,2.1,1.36,3,2-.95.72-2,1.45-3.07,2.15Zm2.18-3.55-.75-.48c-.79-.5-1.61-1-2.41-1.55,1-.65,1.9-1.31,2.74-2l.94.6,2,1.27A21.44,21.44,0,0,1,196.07,185.21Zm-3.73-2.41c-1-.65-1.9-1.3-2.74-2,.94-.61,1.87-1.22,2.74-1.84.88.62,1.8,1.23,2.74,1.84C194.24,181.49,193.31,182.15,192.34,182.79Zm-.57.38c-.8.53-1.62,1-2.41,1.55l-.75.48a21.36,21.36,0,0,1-2.49-2.14l2-1.27.94-.6C189.86,181.86,190.79,182.52,191.77,183.18Zm0,5-1,.61-2.14,1.38c-1.07-.71-2.12-1.43-3.07-2.15.9-.64,1.92-1.31,3-2C189.57,186.71,190.65,187.43,191.76,188.15Zm.59,5.12c1.17.76,2.26,1.49,3.17,2.19-1.09.68-2.18,1.38-3.17,2.11-1-.72-2.08-1.42-3.17-2.11C190.08,194.76,191.17,194,192.34,193.27Zm.59-.38,1-.66L196,190.9a33.36,33.36,0,0,1,3.08,2.24c-1,.66-2,1.3-3,1.93l0,0C195.18,194.39,194.1,193.65,192.93,192.89Zm6.67.69a9.24,9.24,0,0,1,1.51,1.82c-.89.63-1.85,1.24-2.81,1.84a10.85,10.85,0,0,0-1.55-1.61l-.14-.11C197.62,194.89,198.64,194.24,199.6,193.58Zm1-4.44a10.32,10.32,0,0,1,1.52,1.59,18.56,18.56,0,0,1-2.45,2l-.09-.08a32,32,0,0,0-3-2.17c1.07-.71,2.1-1.42,3-2.14C200,188.64,200.3,188.9,200.59,189.15Zm1.31-3.71a16.15,16.15,0,0,1-2.28,2.15c-.89-.65-1.9-1.32-3-2a20.58,20.58,0,0,0,2.46-2.15C200.16,184.12,201.12,184.79,201.9,185.44Zm-4.2-6.07c.83.53,1.62,1,2.37,1.55l0,.06a5.91,5.91,0,0,1-1,1.62l-2.07-1.33-.76-.48A17.25,17.25,0,0,0,197.7,179.37Zm-3.16-2c.81.53,1.63,1.06,2.45,1.58l.16.1a17.75,17.75,0,0,1-1.54,1.4c-.93-.6-1.85-1.2-2.72-1.81C193.47,178.18,194,177.76,194.54,177.33Zm-2.2-1.51c.53.38,1.08.76,1.65,1.14-.51.42-1.07.84-1.65,1.26-.58-.42-1.14-.84-1.65-1.26C191.26,176.59,191.81,176.21,192.34,175.83Zm-4.65,3.09c.81-.52,1.64-1,2.45-1.58.51.43,1.07.85,1.65,1.27-.87.61-1.79,1.21-2.72,1.81a17.8,17.8,0,0,1-1.54-1.4ZM184.64,181l0-.06c.74-.5,1.54-1,2.37-1.55a17.14,17.14,0,0,0,1.52,1.42l-.76.48-2.07,1.33A5.91,5.91,0,0,1,184.64,181Zm-1.86,4.46c.78-.64,1.74-1.31,2.79-2a20.55,20.55,0,0,0,2.46,2.15c-1.07.69-2.08,1.36-3,2A16.08,16.08,0,0,1,182.78,185.43Zm1.31,3.71c.29-.25.61-.5,1-.76.93.72,2,1.43,3,2.14a31.92,31.92,0,0,0-3,2.17l-.09.08a18.5,18.5,0,0,1-2.45-2A10.13,10.13,0,0,1,184.1,189.15Zm-2.84,4.39a6.83,6.83,0,0,1,1-2.28,19.15,19.15,0,0,0,2.34,1.95,9.86,9.86,0,0,0-1.5,1.82A18.66,18.66,0,0,1,181.26,193.54Zm3.87,6-1.58-1-.93-.58a6.38,6.38,0,0,1,.64-2c.88.62,1.81,1.21,2.75,1.8A7.79,7.79,0,0,0,185.13,199.52Zm3.31,2.35a31.25,31.25,0,0,0-2.76-2,7.16,7.16,0,0,1,.88-1.78l.07,0c1,.62,2,1.26,3,1.91A8.44,8.44,0,0,0,188.44,201.86Zm1.57-2.3c-1-.67-2-1.33-3-2l0,0a10.34,10.34,0,0,1,1.42-1.47l.29-.24c1.09.68,2.18,1.37,3.17,2.09-.29.22-.56.44-.83.66A11.85,11.85,0,0,0,190,199.57Zm2.59,1.58-.25.22-.25-.22c-.48-.41-1-.81-1.56-1.21a11,11,0,0,1,.87-.83c.3-.25.62-.5.95-.75.33.25.65.5.95.75a11.06,11.06,0,0,1,.87.83C193.6,200.33,193.07,200.73,192.59,201.14Zm1.11-2.52c-.26-.22-.54-.44-.83-.66,1-.71,2.08-1.41,3.17-2.09l.29.24a10.35,10.35,0,0,1,1.42,1.47l0,0c-1,.64-2.07,1.3-3,2A11.8,11.8,0,0,0,193.7,198.62Zm2.55,3.24A8.39,8.39,0,0,0,195.1,200c1-.65,2-1.29,3-1.91l.06,0a7.16,7.16,0,0,1,.87,1.78A31.47,31.47,0,0,0,196.25,201.86Zm4.89-3.34-1.59,1a7.85,7.85,0,0,0-.89-1.76c.94-.59,1.88-1.19,2.75-1.8a6.37,6.37,0,0,1,.64,2Z"/><path class="cls-12" d="M100,144.22h0c0-.08,0-.16,0-.23,0-.26-.06-.51-.1-.77v-.09h0q-.13-.79-.3-1.57h0l0-.07c-.07-.3-.15-.6-.23-.89l0-.14h0c-.06-.21-.12-.42-.19-.63h0l0-.12a18.56,18.56,0,0,0-1.66-3.78l-.08-.12-.14-.23,0,0-.16-.24v0l-.31-.44a12.18,12.18,0,0,0-1.83-2h0l-.12-.1-.3-.25-.07-.06h0A9.76,9.76,0,0,0,91.83,131h0l-.53-.18-.32-.11a20.87,20.87,0,0,1,7.92-1.12c-3.1-2-5.62-2.33-7.49-2a25.58,25.58,0,0,1,9.21-3.51,11.78,11.78,0,0,0-7.45-.91c2-1.8,4.24-3.38,6.1-3.53a13,13,0,0,0-8.31,1,20.77,20.77,0,0,1,3.91-4.68,10.44,10.44,0,0,0-5.63,2.21,12,12,0,0,0-2.3-6,19.62,19.62,0,0,0-1.34,8.07c-3-2.23-8.37-1.09-8.37-1.09,2.38.5,5.11,2.67,7.24,4.72a14.41,14.41,0,0,0-1.52-.65,11.3,11.3,0,0,0-6.28-.17,25.92,25.92,0,0,1,6.43,3.67,12.24,12.24,0,0,0-5.52,1s5.11.74,8,3.09l-.07,0L85,131h0a9.76,9.76,0,0,0-2.49,1.42h0l-.07.06-.31.25-.11.09h0a12.16,12.16,0,0,0-1.81,2l-.3.43,0,0h0v0l-.16.24h0l-.12.19-.11.17a18.43,18.43,0,0,0-1.6,3.6l-.1.29h0c-.07.21-.13.42-.19.63h0l0,.15c-.08.31-.16.61-.23.92l0,.14h0q-.16.73-.28,1.46h0l0,.12c0,.23-.07.46-.09.7s0,.19,0,.28h0a20.83,20.83,0,0,0-.1,3.49h0s0,.06,0,.08q0,.73.15,1.41c0,.1,0,.2.05.3.07.41.16.8.26,1.17,0,0,0,.09,0,.14h0a8.94,8.94,0,0,0,.49,1.29h0c.07.16.15.31.23.45l.15.24q.19.34.4.65l.13.22s0,0,0,0A9.44,9.44,0,0,0,80.85,156h0q.3.22.62.41h0a9.51,9.51,0,0,0,2.72,1.09h0l.29.05c.34.07.68.14,1,.19l.24,0h0c.36,0,.74.08,1.13.1h0l.77,0h1.6l.77,0h0c.39,0,.77-.06,1.13-.1h0l.24,0c.36-.05.71-.12,1-.19l.28-.05h0a9.51,9.51,0,0,0,2.72-1.09h0q.32-.19.62-.41h0a9.44,9.44,0,0,0,2.21-2.35v0l.13-.22q.2-.31.4-.65l.14-.24c.08-.15.15-.3.23-.45h0a8.94,8.94,0,0,0,.49-1.29h0s0-.1,0-.15c.1-.37.19-.77.26-1.17,0-.09,0-.19,0-.28q.11-.69.15-1.43s0,0,0-.07h0A20.82,20.82,0,0,0,100,144.22Z"/><path class="cls-12" d="M54.57,143c2-1.8,4.24-3.38,6.1-3.53a13,13,0,0,0-8.31,1,20.77,20.77,0,0,1,3.91-4.68A10.44,10.44,0,0,0,50.63,138a12,12,0,0,0-2.3-6A19.62,19.62,0,0,0,47,140.08c-3-2.23-8.37-1.09-8.37-1.09,2.38.5,5.11,2.67,7.24,4.72a14.43,14.43,0,0,0-1.52-.65,11.3,11.3,0,0,0-6.28-.17,25.92,25.92,0,0,1,6.43,3.67,12.24,12.24,0,0,0-5.52,1s5.11.74,8,3.09l-.07,0-.53.18h0a9.76,9.76,0,0,0-2.49,1.42h0l-.07.06-.31.25-.11.09h0a12.16,12.16,0,0,0-1.81,2l-.3.43,0,0h0v0l-.16.24h0l-.12.19-.11.17a18.44,18.44,0,0,0-1.6,3.61l-.09.28h0c-.07.21-.13.42-.19.63h0l0,.15c-.08.31-.16.61-.23.92l0,.14h0q-.16.73-.28,1.46h0l0,.12c0,.23-.07.46-.09.7s0,.19,0,.28h0a20.83,20.83,0,0,0-.1,3.49h0s0,.06,0,.08q0,.73.15,1.41c0,.1,0,.2.05.3.07.41.16.8.26,1.17,0,0,0,.09,0,.14h0a8.94,8.94,0,0,0,.49,1.29h0c.07.16.15.31.23.45l.15.24q.19.34.4.65l.13.22s0,0,0,0a9.44,9.44,0,0,0,2.21,2.35h0q.3.22.62.41h0a9.51,9.51,0,0,0,2.72,1.09h0l.29.05c.34.07.68.14,1,.19l.24,0h0c.36,0,.74.08,1.13.1h0l.77,0h1.6l.77,0h0c.39,0,.77-.06,1.13-.1h0l.24,0c.36-.05.71-.12,1-.19l.28-.05h0a9.5,9.5,0,0,0,2.72-1.09h0q.32-.19.62-.41h0a9.44,9.44,0,0,0,2.21-2.35v0l.13-.22q.2-.31.4-.65l.14-.24c.08-.15.15-.3.23-.45h0a8.94,8.94,0,0,0,.49-1.29h0s0-.1,0-.15c.1-.37.19-.76.26-1.17,0-.1,0-.19,0-.28q.11-.69.15-1.43s0,0,0-.07h0a20.83,20.83,0,0,0-.1-3.49h0c0-.08,0-.16,0-.23,0-.26-.06-.51-.1-.77V163h0q-.12-.79-.3-1.57h0l0-.07c-.07-.3-.15-.59-.23-.89l0-.14h0c-.06-.21-.12-.42-.19-.63h0l0-.12a18.56,18.56,0,0,0-1.65-3.77l-.08-.12-.14-.23,0,0-.16-.24v0l-.31-.45a12.18,12.18,0,0,0-1.83-2h0l-.12-.1-.3-.25-.07-.06h0a9.76,9.76,0,0,0-2.48-1.41h0l-.53-.18-.31-.11a20.87,20.87,0,0,1,7.92-1.12c-3.1-2-5.62-2.33-7.49-2A25.58,25.58,0,0,1,62,143.93,11.78,11.78,0,0,0,54.57,143Z"/><path class="cls-12" d="M82.6,168.38c2-1.8,4.24-3.38,6.1-3.53a13,13,0,0,0-8.31,1,20.77,20.77,0,0,1,3.91-4.68,10.44,10.44,0,0,0-5.63,2.21,12,12,0,0,0-2.3-6A19.62,19.62,0,0,0,75,165.45c-3-2.23-8.37-1.09-8.37-1.09,2.38.5,5.11,2.67,7.24,4.72a14.41,14.41,0,0,0-1.52-.65,11.3,11.3,0,0,0-6.28-.17,25.92,25.92,0,0,1,6.43,3.67,12.24,12.24,0,0,0-5.52,1s5.11.74,8,3.09l-.07,0-.53.18h0a9.76,9.76,0,0,0-2.49,1.42h0l-.07.06-.31.25-.11.09h0a12.16,12.16,0,0,0-1.81,2l-.3.43,0,0h0v0l-.16.24h0L69,181l-.11.17a18.43,18.43,0,0,0-1.6,3.61l-.09.28h0c-.07.21-.13.42-.19.63h0l0,.15c-.08.31-.16.61-.23.92l0,.14h0q-.16.73-.28,1.46h0l0,.12c0,.23-.07.46-.09.7s0,.19,0,.28h0a20.83,20.83,0,0,0-.1,3.49h0s0,.06,0,.08q0,.73.15,1.41c0,.1,0,.2.05.3.07.41.16.8.26,1.17,0,0,0,.09,0,.14h0a8.94,8.94,0,0,0,.49,1.29h0c.07.16.15.31.23.45l.15.24q.19.34.4.65l.13.22s0,0,0,0a9.44,9.44,0,0,0,2.21,2.35h0q.3.22.62.41h0a9.51,9.51,0,0,0,2.72,1.09h0l.29.05c.34.07.68.14,1,.19l.24,0h0c.36,0,.74.08,1.13.1h0l.77,0h1.6l.77,0h0c.39,0,.77-.06,1.13-.1h0l.24,0c.36-.05.71-.12,1-.19l.28-.05h0a9.5,9.5,0,0,0,2.72-1.09h0q.32-.19.62-.41h0a9.44,9.44,0,0,0,2.21-2.35v0l.13-.22q.2-.31.4-.65l.14-.24c.08-.15.15-.3.23-.45h0A8.94,8.94,0,0,0,89,196h0s0-.1,0-.15c.1-.37.19-.76.26-1.17,0-.1,0-.19,0-.28q.11-.69.15-1.43s0,0,0-.07h0a20.83,20.83,0,0,0-.1-3.49h0c0-.08,0-.16,0-.23,0-.26-.06-.51-.1-.77v-.1h0q-.12-.79-.3-1.57h0l0-.07c-.07-.3-.15-.59-.23-.89l0-.14h0c-.06-.21-.12-.42-.19-.63h0l0-.12a18.56,18.56,0,0,0-1.66-3.78l-.08-.12-.14-.23,0,0-.16-.24v0l-.31-.45a12.18,12.18,0,0,0-1.83-2h0l-.12-.1-.3-.25-.07-.06h0a9.76,9.76,0,0,0-2.48-1.41h0l-.53-.18-.32-.11a20.87,20.87,0,0,1,7.92-1.12c-3.1-2-5.62-2.33-7.49-2a25.58,25.58,0,0,1,9.21-3.51A11.78,11.78,0,0,0,82.6,168.38Z"/></svg>