<svg id="Layer_1" data-name="Layer 1" xmlns="http://www.w3.org/2000/svg" viewBox="0 0 54.78 19.78"><defs><style>.cls-1{fill:#4059d3;}.cls-1,.cls-2,.cls-3,.cls-4,.cls-5,.cls-6,.cls-7,.cls-8,.cls-9{fill-rule:evenodd;}.cls-2,.cls-6,.cls-7{fill:#0d0072;}.cls-3,.cls-4{fill:#4026d3;}.cls-3{stroke:#4026d3;}.cls-3,.cls-6,.cls-7{stroke-miterlimit:22.93;}.cls-3,.cls-6{stroke-width:1.42px;}.cls-5{fill:#ffed17;}.cls-6,.cls-7{stroke:#0d0072;}.cls-7{stroke-width:0.57px;}.cls-8{fill:#d10072;}.cls-9{fill:#5a00bf;}</style></defs><title>caterpillars</title><path class="cls-1" d="M54.76,12.54c-.14,1-7.6,4.41-7.56,2.42C47.28,10.78,55.29,8.74,54.76,12.54Z"/><path class="cls-2" d="M53.94,13.35a17,17,0,0,1-3.53,1.71,6.5,6.5,0,0,1,1.09-1.41c1-1,2.18-1.61,2.53-1.26C54.2,12.56,54.15,12.91,53.94,13.35Z"/><path class="cls-3" d="M12.67,17.53S15,17,15.1,17.61C15.27,19.59,11.71,18.71,12.67,17.53Z"/><path class="cls-1" d="M43.08,15.45c.07.28,1.12.33,1.31.26.46-.19,1.29,0,1.3-.81C45.68,14.83,42.72,14,43.08,15.45Z"/><path class="cls-1" d="M41.81,15.81c-.49,0-1.29.23-1.64-.14-.15-.16-.12-.55,0-.9C42.28,14,43.46,15.88,41.81,15.81Z"/><path class="cls-1" d="M38.86,15.74a3.32,3.32,0,0,0-1.39.46c-1.13.89.11,1.94,1,1.23.37-.31,0,.32.58-.52.09-.14.25-.07.61-.46.19-.21.28-.63.07-.81C39.69,15.61,39.56,15.1,38.86,15.74Z"/><path class="cls-4" d="M29.72,17.78s-3.76-1-3.91-.11C25.28,20.51,31.13,19.56,29.72,17.78Z"/><path class="cls-4" d="M24.27,17.52s-3.27-1-3.41-.11C20.41,20.27,25.49,19.31,24.27,17.52Z"/><path class="cls-3" d="M16.3,17.41s3.58-.68,3.65.1C20.2,20.14,14.84,19,16.3,17.41Z"/><path class="cls-1" d="M24.82,4.51c-.25.09-.52.47-.57,1.29-.17,2.77-.41,10.34.14,11.35.26.48,4.69,2,6.53.6.52-.4-1.65-11.37-1.64-13.07,0-.42-.29-.64-.74-.73s-1.12.31-1.72.4C25.9,4.49,25.07,4.42,24.82,4.51Z"/><path class="cls-1" d="M33.89,3.89A4.81,4.81,0,0,0,29,4.13c-.25.14.26.51.2,1.36-.19,2.87,1.08,11.2,1.69,12.25.29.5,3,.89,5.32-.26,1.5-.73-2.09-10.11-2.07-13A.63.63,0,0,0,33.89,3.89Z"/><path class="cls-4" d="M31.18,3.38c1,.11,1.85-.32,2.89,7.09.81,5.78,3.17,6.65.43,7.59a7.34,7.34,0,0,0,1.75-.59c1.5-.73-2.09-10.11-2.07-13a.63.63,0,0,0-.28-.6A4.54,4.54,0,0,0,31.18,3.38Z"/><path class="cls-1" d="M20.71,4.78c-.21.09-.43.45-.48,1.24-.14,2.66-.35,9.93.12,10.9.22.46,3,2,4.56.58.25-.22.31-.47.3-1.09,0-2.6-.45-9-.44-11.23C24.78,3.87,21.21,4.58,20.71,4.78Z"/><path class="cls-4" d="M20.07,11.58h.3c.17-1.16-.42-5.79.44-6.53s2.84-.51,3.15,0c.46.76,1.23,9.74.24,11.34-.11.18-.66,1.35-1.33,1.36a5.46,5.46,0,0,1-2.34-.63c.7.58,3,1.58,4.37.37.25-.22.31-.47.3-1.09,0-2.6-.45-9-.44-11.24,0-1.3-3.56-.59-4.06-.39-.21.09-.43.45-.48,1.24C20.17,7.25,20.09,9.46,20.07,11.58Z"/><path class="cls-1" d="M20.13,5.28a4.62,4.62,0,0,0-4.46.16,1.3,1.3,0,0,0-.55,1.16c-.17,2.49-.56,10.89.49,11a13.62,13.62,0,0,0,4.93-.29c.35-.07.35-.44.35-1,0-2.44-.52-8.4-.51-10.51A.54.54,0,0,0,20.13,5.28Z"/><path class="cls-5" d="M18.62,4.82a4.7,4.7,0,0,0-2.45.37c0,.44-.44.71.17,1.6s1.08-1.26,2.23-.92C18.7,5.92,18.71,5.39,18.62,4.82Z"/><path class="cls-4" d="M20.13,5.28a4.44,4.44,0,0,0-1.2-.42,2.35,2.35,0,0,1,.92,2c.29,5.43,1.64,8.19-.44,10-.59.53-1.48.43-2.8.84a15,15,0,0,0,3.92-.38c.35-.07.35-.44.35-1,0-2.44-.52-8.4-.51-10.51A.54.54,0,0,0,20.13,5.28Z"/><path class="cls-1" d="M9,8c-.32,2.32,1.94,8.62,2.54,9.47.28.4,1.58.57,3.59.12C16.33,17.38,14.76,8,15.4,6c.06-.19-.17-.4-.41-.41a14.42,14.42,0,0,0-2.53.6,8,8,0,0,0-2,.36A2.36,2.36,0,0,0,9,8Z"/><path class="cls-4" d="M11.21,16.77a5,5,0,0,0,.38.74c.28.4,1.58.57,3.59.12C16.33,17.38,14.76,8,15.4,6c.06-.19-.17-.4-.41-.41a14.42,14.42,0,0,0-2.53.6l-.08,0c1.07-.07,1.87-.6,2.22.92a48.24,48.24,0,0,1,.68,7.45c.13,1.44.43,2.47-1.58,2.94a5.47,5.47,0,0,1-1.63.12c-.47,0-.4-1.19-.69-1.64A6.9,6.9,0,0,0,11.21,16.77Z"/><path class="cls-1" d="M9.69,6.92c-1.31-.64-6.24,2.07-6.37,4C3.17,13,6,16.28,6.47,17.07c.23.37,2.69.85,5.12.45.31-.05-1.68-8.1-1.67-10.15A.46.46,0,0,0,9.69,6.92Z"/><path class="cls-5" d="M7.5,7.24A10.93,10.93,0,0,0,4.56,9a3.65,3.65,0,0,1,.5.62c.82,1.21,0-1.08,2.82-1.34C8.47,8.25,8.27,7.64,7.5,7.24Z"/><path class="cls-4" d="M4.54,9a3.15,3.15,0,0,0-1.22,1.84C3.17,13,6,16.28,6.47,17.07a3.77,3.77,0,0,0,2,.54,1.32,1.32,0,0,0-1.08-.45c-.93-.1-1.53-1.86-2.25-3.38a19.86,19.86,0,0,1-1.23-2.42A2.77,2.77,0,0,1,4.54,9Z"/><path class="cls-1" d="M33.45,3.69C32.59,5,35.8,15.51,36.58,16.85c.09.16.43.53.65.28.72-.81.6-1.16,2-1.16a1.09,1.09,0,0,0,.94-1.13c0-1.63,1.61-5.76,1.06-8.62C40.82,4.14,39,3,39,1.95,39,.46,33.83,3.13,33.45,3.69Z"/><path class="cls-4" d="M36.44,16.56c.05.12.1.21.14.28s.43.53.65.28c.53-.6.6-.94,1.17-1.09h0c-.3,0-.25-.08-1,.52-.21.17-.52.58-.74.28Z"/><path class="cls-4" d="M35.66,2.36c1.44-.24,2.92-.7,2.87,1.05s1.24,9.61,1.06,12c0,.44-.37.49-.57.53h.2a1.09,1.09,0,0,0,.94-1.13c0-1.63,1.61-5.76,1.06-8.62C40.82,4.14,39,3,39,1.95c0-.85-1.68-.34-3.2.35l-.12.06Z"/><path class="cls-1" d="M43.91.3A4.36,4.36,0,0,0,41.31.12c-1.95.49-3.59.94-2.69,2,1.15,1.33.67,13.11,1.62,13.2.43,0,.87-.09,1.17,0,.54.07.81.31,1,.31.37,0,.7-.31.73-.92.1-2.32,2.23-10.89,2.25-13.33C45.41,1,44.09.39,43.91.3Z"/><path class="cls-5" d="M42.73,0a4.5,4.5,0,0,0-1.42.1,14.88,14.88,0,0,0-2.11.63c1.89,2.57,3.54-.44,3.54-.5S42.73.09,42.73,0Z"/><path class="cls-4" d="M43.91.3a2.35,2.35,0,0,0-.56-.19c1.33,1.17,1.17,2.9.76,4.67S42.84,14.58,42.3,15c-.26.22-.56.13-1,.09s-.62.2-1.3-.26V15c.07.2.14.31.23.32.43,0,.87-.09,1.17,0,.54.07.81.31,1,.31.37,0,.7-.31.73-.92.1-2.32,2.23-10.89,2.25-13.33C45.41,1,44.09.39,43.91.3Z"/><path class="cls-1" d="M51.71,6.87c-1.43-.75-4.24-7-6-6a1.46,1.46,0,0,0-.84,1.28C44.65,5,42.35,14.17,43,15.21c0,0,.69-.21,1.59-.28.41,0,.86.3,1.32.12s.54-.76,1.13-1.39C49.16,11.37,52.09,7.06,51.71,6.87Z"/><path class="cls-4" d="M48.19,2.34C48.63,3,49.6,4.63,49.8,5c.35.56.24,2.32-.51,3.81S47.15,12.08,47,13.06c-.07.49-.39.71-.63,1.49a4.59,4.59,0,0,1,.61-.88c2.16-2.3,5.09-6.6,4.71-6.8C50.86,6.42,49.51,4,48.19,2.34Z"/><path class="cls-1" d="M50.35,6.27c-.56,2.82-3.42,5.93-3,7,.22.53,3,.25,4.52-1.23.29-.28,2.3-1.7,2-2.29C51.74,5.72,50.35,6.24,50.35,6.27Z"/><path class="cls-4" d="M47.43,12.52a1.18,1.18,0,0,0,0,.79c.22.53,3,.25,4.52-1.23.29-.28,2.3-1.7,2-2.29l-.29-.52c0,2.4-5,5-5.91,4A1.29,1.29,0,0,1,47.43,12.52Z"/><path class="cls-6" d="M53.51,9.08a9.39,9.39,0,0,0-1.62-2.15c-.73,1.49-1.86,3.61-.71,3.71.26,0,.54-.88,1.82-1.18A.94.94,0,0,0,53.51,9.08Z"/><path class="cls-1" d="M2.83,10.58c-.87.31-2.3.9-2.08,2.11.15.83,1.82,3.07,3.86,4.26.88.52,1.8.57,2,.21s-2.7-4.52-3-6.21C3.47,10.45,3.25,10.42,2.83,10.58Z"/><path class="cls-4" d="M2,10.95c-.7.36-1.35.9-1.2,1.74s1.82,3.07,3.86,4.26c.88.52,1.8.57,2,.21,0-.1-.06-.38-.26-.76-.18.62-.83.82-1.07.55a14.1,14.1,0,0,0-1.7-2.08,26.43,26.43,0,0,1-2.2-2.59C.94,11.65,1.22,11.49,2,10.95Z"/><path class="cls-1" d="M3.94,17.32c.43.45,1.24,0,.9-.5C4,15.63,1.95,13.55,1.2,12.64c-.44-.54-.58.06-.74.57-.27.87-.89,1.64,0,2.44C1.06,16.18,3.24,16.57,3.94,17.32Z"/><path class="cls-4" d="M3.94,17.32c.43.45,1.24,0,.9-.5l-.18-.24c0,.06,0,.21-.05.23-.07.55-.45.54-.7.23-1.55-1.95-4.41-.84-3.54-3.6-.29.78-.73,1.48.08,2.21C1.06,16.18,3.24,16.57,3.94,17.32Z"/><path class="cls-4" d="M7.72,7.15c.46.24,1.56-.43,1.69.32C11,16.39,13,16.73,6.84,17.2a.18.18,0,0,0-.1,0,10.52,10.52,0,0,0,4.84.26c.31-.05-1.68-8.1-1.67-10.15a.46.46,0,0,0-.23-.45A2.91,2.91,0,0,0,7.72,7.15Z"/><path class="cls-4" d="M44.9,14.81c-.58-.14-1.5,0-1.7-.14a1.32,1.32,0,0,1-.32-.76A2.85,2.85,0,0,0,43,15.21s.69-.21,1.59-.28c.41,0,.86.3,1.32.12s.5-.53.81-1v0C46.12,14.45,46.06,15.08,44.9,14.81Z"/><path class="cls-5" d="M11.63,9.55c.3,1.54.66.51,1,3,0,.11,1.2,2.44,1.2-.9,0-1.69.09-1.79-1.32-2.66C12.25,8.9,11.49,8.83,11.63,9.55Z"/><path class="cls-5" d="M17,8.74c.25-.83,2.1-.53,2.1.54,0,2.84.72,3.81-2.07,3.47C15.86,12.6,16.77,9.57,17,8.74Z"/><path class="cls-5" d="M21.89,8c-1,2,.1,1.74.45,4.72.11.91,1.15.12,1.06-1.92,0-.46,1.36-3.16-1.19-3A.53.53,0,0,0,21.89,8Z"/><path class="cls-5" d="M26.09,7.93c.23,1.65-.3.53.37,2.17,0,0,.18,3.53,1.05,2.45.47-.58-.15-2.37.34-3.77C28.48,7,26.55,6.23,26.09,7.93Z"/><path class="cls-5" d="M30.26,8.29c0,.56,1.27,3.45,1.4,4.94.18,2.13,3.2.33,1.07-4.62-.26-.6.6-2.26-1.55-2C30.67,6.61,30.23,7.75,30.26,8.29Z"/><path class="cls-5" d="M37.2,11.68c1.18.3.73-1.27.92-3,.46-4.38-1.42-1.6-2.69-2C33.71,6.2,35.17,11.16,37.2,11.68Z"/><path class="cls-5" d="M41.53,4a6.11,6.11,0,0,1,1.35.17c.38.06-.64,1.35-.64,2.74,0,.71.14,4.29-1.47,2.56-.45-.48.91-2.21-.29-3.85C39.83,4.74,40.56,4.06,41.53,4Z"/><path class="cls-5" d="M47.05,5.26c1.34,1.5.3,1.84-.55,3.61-.07.14-1.81,1.82-.69-1.17C46.63,5.48,45.49,4.68,47.05,5.26Z"/><path class="cls-5" d="M7.64,10.14c-3.75,0,.3,4.69.86,4.2.08-.07.28-2,.61-2.8C9.7,10.07,8.5,10.05,7.64,10.14Z"/><path class="cls-5" d="M3.83,14.22c.12.23.53.91.53.24,0-.39-.36-.5-.4-1.17,0-.08-.32-.71-.65-.22C3.1,13.4,3.69,13.94,3.83,14.22Z"/><path class="cls-5" d="M2.54,15.07c-.14-.37-.41-.45-.59-.41C1.36,14.79,2.83,15.81,2.54,15.07Z"/><path class="cls-2" d="M1.73,14.45c-.07-.06-.31-.27-.28,0s-.18.38.12.33C1.61,14.76,1.85,14.55,1.73,14.45Z"/><path class="cls-2" d="M3.55,12.35c-.1-.14-.42.06-.52.16-.38.36,0,.47.07.38s.43-.25.48-.37A.35.35,0,0,0,3.55,12.35Z"/><path class="cls-2" d="M5.79,10.43c.3,0,.66-1,1.9-.75.8.19,1.63-.82,0-.77C6.83,8.93,5.79,9.44,5.79,10.43Z"/><path class="cls-2" d="M11.63,8.59c.63-.31,1.28.24,1.44.36s.8-.06.43-.47c-.19-.21.51-.89-.82-.72a1.71,1.71,0,0,1-.84.26C11.66,8,11.34,8.74,11.63,8.59Z"/><path class="cls-2" d="M18.53,7.83c.22.15.37.07.31-.41,0-.2-.59-1.26-1.17-.61C15.84,8.84,17.74,7.3,18.53,7.83Z"/><path class="cls-2" d="M22,7.31c.84-.17,1.76.51,1.4-.17-.07-.13-.38-.22-.59-.44C22.34,6.19,21.16,7.48,22,7.31Z"/><path class="cls-2" d="M26.17,6.35c-.1.3.06.51.4.3.65-.4,1.5.38,1.26-.19S26.51,5.37,26.17,6.35Z"/><path class="cls-2" d="M30.52,6.25c-.1.18-.7-.27,0-.94.07-.07.42.14.94-.17s.83.41.95.75C32.62,6.58,31.06,5.31,30.52,6.25Z"/><path class="cls-2" d="M34.75,5.28c.1.23-.34.56.13.79.09,0,.37-.13.53-.07a2.7,2.7,0,0,0,2-.7c.16-.13.43-.31,0-.72s-1.85.25-2.42.29C34.89,4.9,34.64,5,34.75,5.28Z"/><path class="cls-2" d="M40.1,3.59c.12.32.41.15.77,0a3.07,3.07,0,0,1,1.57-.14c.43.06.65.41.72,0,.3-1.89-1-1.58-2.78-.83C40.19,2.68,40,3.41,40.1,3.59Z"/><path class="cls-2" d="M46.36,4.57c.22.1.52.13.74.22s.47.27.45-.12a1.76,1.76,0,0,0-.25-1C46.88,3.1,45.92,4.38,46.36,4.57Z"/><path class="cls-2" d="M9,13.78a7,7,0,0,0-.32,1.36c0,.06-.35.39.19.34.3,0,0-.71.45-1.08.11-.1.29-.94.13-.93C8.93,13.46,9,13.7,9,13.78Z"/><path class="cls-2" d="M13.75,14.17s.39.34-.28.37-.27.35-.88-.33c0,0-.22-.54-.09-.65S13,14.28,13.75,14.17Z"/><path class="cls-2" d="M4.56,14.67c-.3.7.09.1.13.67,0,0,.33.15.15-.12C4.81,15.18,4.64,14.49,4.56,14.67Z"/><path class="cls-2" d="M2.81,15.28c-.28.39.27.57.26.42S2.86,15.21,2.81,15.28Z"/><path class="cls-2" d="M16.91,14.45c0,.16.48.61.78.07.16-.28.54-.08,1-.31s.78-1.13-.27-.92C16.5,13.69,16.37,12.37,16.91,14.45Z"/><path class="cls-7" d="M23.06,13.57c.14-.12,1-.6.15.56-.16.22-.42,1.19-.49,1.08-.28-.43.11-.47-.4-1,0,0-.23-.61,0-.61A.6.6,0,0,0,23.06,13.57Z"/><path class="cls-2" d="M26.89,12.94c.46.55.89,0,1,1,0,0,.24.64.09.7s-.89-.86-.93-1S26.51,13,26.89,12.94Z"/><path class="cls-2" d="M33.35,13.86c-.14.93-1.91.17-.69,1.64.24.29.63-.88.84-1.2C33.95,13.64,33.42,13.42,33.35,13.86Z"/><path class="cls-2" d="M36.77,12.2c-.6-.13.61,1.88,1.67.45.18-.24.05-1-.17-.71S37.67,12.39,36.77,12.2Z"/><path class="cls-2" d="M42.18,10.06c-.75,1.33-1.45-.34-1.2.76,0,.18.52.46.52,1s.18-.82.53-.91S42.43,9.62,42.18,10.06Z"/><path class="cls-7" d="M46.51,9.69c-.49.34-1,.27-1.15.52s-.38,1.33.55.78c.4-.24,1-1.23.94-1.44S46.69,9.56,46.51,9.69Z"/><path class="cls-5" d="M9.33,14.95a3.81,3.81,0,0,0,0,.76c.37,0,.21-.42.31-.77s-.23-.15-.24-.05Z"/><path class="cls-5" d="M13.67,14.75c-.26.09-.82,0-.35.51C13.47,15.44,14.15,14.59,13.67,14.75Z"/><path class="cls-5" d="M3.24,15.81c0,.21,0,.07.16.21s.08-.15,0-.23S3.24,15.57,3.24,15.81Z"/><path class="cls-5" d="M18.06,14.67c-.21.34-.9.5.2.54C18.55,15.22,19,14.67,18.06,14.67Z"/><path class="cls-5" d="M23.39,14.74c-.06.24-.45.8,0,.65,0,0,.7-.9.05-.72Z"/><path class="cls-5" d="M27.36,14.61c.16.32.81.37.42.87,0,0-.11.37-.36,0,0,0-.31-1-.2-1A.16.16,0,0,1,27.36,14.61Z"/><path class="cls-5" d="M33.59,15.11s-1.07,1.84.17.37C33.89,15.31,34.05,14.69,33.59,15.11Z"/><path class="cls-5" d="M38.25,13.24c-.1.39-.82.21-.56.59,0,0,.71.3.68-.27,0,0,.25-.52-.1-.4Z"/><path class="cls-5" d="M41.9,11.81c-.07.16-.64.82-.13.8C42,12.59,42.08,11.41,41.9,11.81Z"/><path class="cls-5" d="M45.86,11.5c-.53.32-.11.15-.32.43,0,.06-.16.06-.12.23.08,0,.26-.19.43-.27S45.95,11.45,45.86,11.5Z"/><path class="cls-5" d="M5,15.45c-.06.2,0,.18.11.35s0-.06,0-.08.08-.22-.05-.29A.05.05,0,0,0,5,15.45Z"/><path class="cls-5" d="M.22,13.85c.62.67,1.46,1.17.93-.26A1,1,0,0,0,.53,13l-.07.22C.39,13.42.3,13.64.22,13.85Z"/><path class="cls-5" d="M.22,13.85l0,0a4,4,0,0,1,.12-.46l0,.07h0l0,.07h0l-.07.18h0l0,.06h0Z"/><path class="cls-1" d="M1.39,15.75c.43.11,3.72,1.63,1.56,1.55-.79,0-2.06.27-2.48-.45C-.39,15.4.12,15.42,1.39,15.75Z"/><path class="cls-5" d="M23.26,4.41a9.37,9.37,0,0,0-1.66.16,5.2,5.2,0,0,1,.05.82c0,.85-.18.88.74.81.23,0,0-.32.6,0C23.09,6.25,23.23,5.25,23.26,4.41Z"/><path class="cls-5" d="M13.56,5.84c-.34.1-.71.21-1.1.3-.55.13-1.09.08-1.59.2a1.52,1.52,0,0,0,.65,1c1.06.7.39-.09,1.89,0C13.71,7.33,13.58,6.53,13.56,5.84Z"/><path class="cls-5" d="M13.56,5.84H12.39c.44,0,.84-.14,1.18-.15C13.56,6,13.56,5.9,13.56,5.84Z"/><path class="cls-4" d="M26,4.43c1.52.14,2.16-.82,2.66,1.15,1,3.71,1.39,10.18.22,12-.56.85-3.51.12-3.56.11,1.46.57,4.24,1.15,5.61.08.52-.4-1.65-11.37-1.64-13.07,0-.42-.29-.64-.74-.73s-1.12.31-1.72.4A8.15,8.15,0,0,1,26,4.43Z"/><path class="cls-5" d="M31.81,3.35A4.94,4.94,0,0,0,30,3.69c.28.92.51,1.78,1.63.85C31.84,4.33,31.85,3.84,31.81,3.35Z"/><path class="cls-5" d="M36.94,1.83a16.5,16.5,0,0,0-2.67,1.26,3,3,0,0,0,1,.87c.43.19.62.58,1.49.11C37.26,3.79,37.07,2.58,36.94,1.83Z"/><path class="cls-5" d="M36.94,1.83l-.71.28h0l-.18.08,0,0,0,0h0l0,0,0,0h-.09l-.12.06h0c.46-.08.92-.17,1.33-.22Z"/><path class="cls-5" d="M48.64,2.94A9.36,9.36,0,0,0,47,1.14c-.42.83-.9,1,.89,2.16C48.28,3.53,48.47,3.32,48.64,2.94Z"/><path class="cls-5" d="M27.22,4.24a3,3,0,0,1-.39.1,9.22,9.22,0,0,1-1.15.1c.07.57.31,1.29.85.92s1.37.75.82-.88A1.2,1.2,0,0,0,27.22,4.24Z"/><path class="cls-5" d="M31.18,3.38a3.67,3.67,0,0,1,.64.08V3.35A4.55,4.55,0,0,0,31.18,3.38Z"/><path class="cls-8" d="M48.19,2.34l.42.67,0-.07-.2-.27h0l-.05-.07v0l0-.06,0,0,0-.05,0,0,0-.05Z"/><path class="cls-5" d="M21.61,4.68a3.67,3.67,0,0,1,1.64,0c0-.09,0-.18,0-.27H21.59Z"/><path class="cls-5" d="M2.42,10.73a5.16,5.16,0,0,0-.81.41,7.74,7.74,0,0,1,.89,1c.37.64,1.46,0-.05-1.43Z"/><path class="cls-5" d="M1.6,11.14l0,0L2,10.95Z"/><path class="cls-1" d="M40.5,18.48a3.11,3.11,0,0,0-1.59-2.22c-1.08-.49-.87.52,0,1.35a3.2,3.2,0,0,0,1.24.61C40.25,18.27,40.72,19,40.5,18.48Z"/><path class="cls-9" d="M40.5,18.48l-.06-.15h0l-.12.07C40.47,18.6,40.66,18.86,40.5,18.48Z"/><path class="cls-1" d="M41.6,17s.15,1.89.35.89c.1-.5,0-.59.06-1.61S40,14.39,41.6,17Z"/><path class="cls-9" d="M41.69,17.69c.06.4.16.7.27.16l0-.14a.37.37,0,0,0-.17,0Z"/><path class="cls-1" d="M43.74,16.06c-.07.26.09.42.09.65,0,.55-.14,1,0,.8a5,5,0,0,0,.76-2C44.11,15.16,44.11,14.58,43.74,16.06Z"/><path class="cls-9" d="M43.78,17.33c0,.22,0,.32,0,.18l.07-.14-.07,0Z"/><path class="cls-5" d="M26,4.43a5.13,5.13,0,0,0,1.29-.08l-.06-.1H26Z"/><path class="cls-5" d="M50.27,10.78c-.21.18-.78.63-.13.76.48.1.24-.38.46-.74.12-.2-.14-.33-.28,0Z"/></svg>