<svg xmlns="http://www.w3.org/2000/svg" xmlns:xlink="http://www.w3.org/1999/xlink" viewBox="0 0 57.75 35.91"><defs><style>.cls-1{isolation:isolate;}.cls-10,.cls-11,.cls-12,.cls-13,.cls-14,.cls-15,.cls-16,.cls-17,.cls-18,.cls-19,.cls-2,.cls-20,.cls-21,.cls-22,.cls-23,.cls-24,.cls-25,.cls-26,.cls-27,.cls-28,.cls-29,.cls-3,.cls-30,.cls-31,.cls-32,.cls-33,.cls-34,.cls-35,.cls-36,.cls-37,.cls-38,.cls-39,.cls-4,.cls-40,.cls-41,.cls-42,.cls-43,.cls-44,.cls-45,.cls-46,.cls-47,.cls-48,.cls-49,.cls-5,.cls-50,.cls-51,.cls-52,.cls-53,.cls-54,.cls-55,.cls-56,.cls-57,.cls-6,.cls-7,.cls-8,.cls-9{stroke:#3d4800;}.cls-10,.cls-100,.cls-101,.cls-102,.cls-103,.cls-106,.cls-107,.cls-108,.cls-109,.cls-11,.cls-118,.cls-12,.cls-121,.cls-128,.cls-129,.cls-13,.cls-130,.cls-132,.cls-133,.cls-134,.cls-136,.cls-137,.cls-14,.cls-140,.cls-15,.cls-16,.cls-17,.cls-18,.cls-19,.cls-2,.cls-20,.cls-21,.cls-22,.cls-23,.cls-24,.cls-25,.cls-26,.cls-27,.cls-28,.cls-29,.cls-3,.cls-30,.cls-31,.cls-32,.cls-33,.cls-34,.cls-35,.cls-36,.cls-37,.cls-38,.cls-39,.cls-4,.cls-40,.cls-41,.cls-42,.cls-43,.cls-44,.cls-45,.cls-46,.cls-47,.cls-48,.cls-49,.cls-5,.cls-50,.cls-51,.cls-52,.cls-53,.cls-54,.cls-55,.cls-56,.cls-57,.cls-59,.cls-6,.cls-60,.cls-61,.cls-63,.cls-64,.cls-65,.cls-67,.cls-68,.cls-7,.cls-73,.cls-8,.cls-89,.cls-9,.cls-90,.cls-91,.cls-92,.cls-93{stroke-linecap:round;stroke-linejoin:round;stroke-width:0.32px;}.cls-2{fill:url(#radial-gradient);}.cls-3{fill:url(#radial-gradient-2);}.cls-4{fill:url(#radial-gradient-3);}.cls-5{fill:url(#radial-gradient-4);}.cls-6{fill:url(#radial-gradient-5);}.cls-7{fill:url(#radial-gradient-6);}.cls-8{fill:url(#radial-gradient-7);}.cls-9{fill:url(#radial-gradient-8);}.cls-10{fill:url(#radial-gradient-9);}.cls-11{fill:url(#radial-gradient-10);}.cls-12{fill:url(#radial-gradient-11);}.cls-13{fill:url(#radial-gradient-12);}.cls-14{fill:url(#radial-gradient-13);}.cls-15{fill:url(#radial-gradient-14);}.cls-16{fill:url(#radial-gradient-15);}.cls-17{fill:url(#radial-gradient-16);}.cls-18{fill:url(#radial-gradient-17);}.cls-19{fill:url(#radial-gradient-18);}.cls-20{fill:url(#radial-gradient-19);}.cls-21{fill:url(#radial-gradient-20);}.cls-22{fill:url(#radial-gradient-21);}.cls-23{fill:url(#radial-gradient-22);}.cls-24{fill:url(#radial-gradient-23);}.cls-25{fill:url(#radial-gradient-24);}.cls-26{fill:url(#radial-gradient-25);}.cls-27{fill:url(#radial-gradient-26);}.cls-28{fill:url(#radial-gradient-27);}.cls-29{fill:url(#radial-gradient-28);}.cls-30{fill:url(#radial-gradient-29);}.cls-31{fill:url(#radial-gradient-30);}.cls-32{fill:url(#radial-gradient-31);}.cls-33{fill:url(#radial-gradient-32);}.cls-34{fill:url(#radial-gradient-33);}.cls-35{fill:url(#radial-gradient-34);}.cls-36{fill:url(#radial-gradient-35);}.cls-37{fill:url(#radial-gradient-36);}.cls-38{fill:url(#radial-gradient-37);}.cls-39{fill:url(#radial-gradient-38);}.cls-40{fill:url(#radial-gradient-39);}.cls-41{fill:url(#radial-gradient-40);}.cls-42{fill:url(#radial-gradient-41);}.cls-43{fill:url(#radial-gradient-42);}.cls-44{fill:url(#radial-gradient-43);}.cls-45{fill:url(#radial-gradient-44);}.cls-46{fill:url(#radial-gradient-45);}.cls-47{fill:url(#radial-gradient-46);}.cls-48{fill:url(#radial-gradient-47);}.cls-49{fill:url(#radial-gradient-48);}.cls-50{fill:url(#radial-gradient-49);}.cls-51{fill:url(#radial-gradient-50);}.cls-52{fill:url(#radial-gradient-51);}.cls-53{fill:url(#radial-gradient-52);}.cls-54{fill:url(#radial-gradient-53);}.cls-55{fill:url(#radial-gradient-54);}.cls-56{fill:url(#radial-gradient-55);}.cls-57{fill:url(#radial-gradient-56);}.cls-105,.cls-124,.cls-58,.cls-96{fill:#ffff8c;}.cls-58{opacity:0.72;}.cls-105,.cls-58{mix-blend-mode:overlay;}.cls-100,.cls-101,.cls-102,.cls-103,.cls-106,.cls-118,.cls-128,.cls-129,.cls-130,.cls-132,.cls-133,.cls-134,.cls-136,.cls-137,.cls-140,.cls-59,.cls-60,.cls-61,.cls-63,.cls-64,.cls-65,.cls-67,.cls-68,.cls-73{stroke:#468800;}.cls-59{fill:url(#radial-gradient-57);}.cls-60{fill:url(#radial-gradient-58);}.cls-61{fill:url(#radial-gradient-59);}.cls-104,.cls-110,.cls-111,.cls-112,.cls-113,.cls-115,.cls-120,.cls-123,.cls-127,.cls-131,.cls-135,.cls-141,.cls-149,.cls-62,.cls-66,.cls-69,.cls-71,.cls-74,.cls-75,.cls-83,.cls-86,.cls-88,.cls-95,.cls-99{mix-blend-mode:multiply;}.cls-62{fill:url(#radial-gradient-60);}.cls-63{fill:url(#radial-gradient-61);}.cls-64{fill:url(#radial-gradient-62);}.cls-65{fill:url(#radial-gradient-63);}.cls-135,.cls-141,.cls-149,.cls-66,.cls-74,.cls-83{opacity:0.66;}.cls-66{fill:url(#radial-gradient-64);}.cls-67{fill:url(#radial-gradient-65);}.cls-68{fill:url(#radial-gradient-66);}.cls-104,.cls-124,.cls-69{opacity:0.5;}.cls-70{fill:url(#radial-gradient-67);}.cls-71{opacity:0.64;}.cls-72{fill:url(#radial-gradient-68);}.cls-73{fill:url(#radial-gradient-69);}.cls-74{fill:url(#radial-gradient-70);}.cls-75{opacity:0.74;}.cls-76{fill:url(#radial-gradient-71);}.cls-124,.cls-143,.cls-144,.cls-145,.cls-146,.cls-147,.cls-148,.cls-150,.cls-151,.cls-77,.cls-78,.cls-79,.cls-80,.cls-81,.cls-82,.cls-84,.cls-85,.cls-87,.cls-96,.cls-97{mix-blend-mode:screen;}.cls-77{fill:url(#radial-gradient-72);}.cls-78{fill:url(#radial-gradient-73);}.cls-79{fill:url(#radial-gradient-74);}.cls-80{fill:url(#radial-gradient-75);}.cls-81{fill:url(#radial-gradient-76);}.cls-82{fill:url(#radial-gradient-77);}.cls-83{fill:url(#radial-gradient-78);}.cls-84{fill:url(#radial-gradient-79);}.cls-85{fill:url(#radial-gradient-80);}.cls-126,.cls-87,.cls-88{fill:#abdd00;}.cls-89,.cls-90,.cls-91,.cls-92,.cls-93{stroke:#6d7500;}.cls-89{fill:url(#radial-gradient-81);}.cls-90{fill:url(#radial-gradient-82);}.cls-91{fill:url(#radial-gradient-83);}.cls-92{fill:url(#radial-gradient-84);}.cls-93{fill:url(#radial-gradient-85);}.cls-94{opacity:0.46;}.cls-95,.cls-99{fill:#6d7500;}.cls-95{opacity:0.55;}.cls-96,.cls-97{opacity:0.12;}.cls-97{fill:#363d00;}.cls-103,.cls-98{fill:none;}.cls-99{opacity:0.52;}.cls-100{fill:url(#radial-gradient-86);}.cls-101{fill:url(#radial-gradient-87);}.cls-102{fill:url(#radial-gradient-88);}.cls-104{fill:url(#radial-gradient-89);}.cls-105,.cls-122{opacity:0.2;}.cls-106{fill:url(#radial-gradient-90);}.cls-107,.cls-108,.cls-109{stroke:#4d6a00;}.cls-107{fill:url(#radial-gradient-91);}.cls-108{fill:url(#radial-gradient-92);}.cls-109{fill:url(#radial-gradient-93);}.cls-110,.cls-111,.cls-112,.cls-113,.cls-123{opacity:0.3;}.cls-110{fill:url(#radial-gradient-94);}.cls-111{fill:url(#radial-gradient-95);}.cls-112{fill:url(#radial-gradient-96);}.cls-114{fill:url(#radial-gradient-97);}.cls-115{opacity:0.6;}.cls-116{fill:url(#radial-gradient-98);}.cls-117{fill:url(#radial-gradient-99);}.cls-118{fill:url(#radial-gradient-100);}.cls-119{fill:#468800;}.cls-120{fill:#6eb900;}.cls-121{stroke:#2f3d00;fill:url(#radial-gradient-101);}.cls-122{mix-blend-mode:color-burn;fill:url(#radial-gradient-102);}.cls-123{fill:url(#radial-gradient-103);}.cls-125{opacity:0.61;fill:url(#radial-gradient-104);}.cls-127{opacity:0.79;}.cls-128{fill:url(#radial-gradient-105);}.cls-129{fill:url(#radial-gradient-106);}.cls-130{fill:url(#radial-gradient-107);}.cls-131{fill:url(#radial-gradient-108);}.cls-132{fill:url(#radial-gradient-109);}.cls-133{fill:url(#radial-gradient-110);}.cls-134{fill:url(#radial-gradient-111);}.cls-135{fill:url(#radial-gradient-112);}.cls-136{fill:url(#radial-gradient-113);}.cls-137{fill:url(#radial-gradient-114);}.cls-138{fill:url(#radial-gradient-115);}.cls-139{fill:url(#radial-gradient-116);}.cls-140{fill:url(#radial-gradient-117);}.cls-141{fill:url(#radial-gradient-118);}.cls-142{fill:url(#radial-gradient-119);}.cls-143{fill:url(#radial-gradient-120);}.cls-144{fill:url(#radial-gradient-121);}.cls-145{fill:url(#radial-gradient-122);}.cls-146{fill:url(#radial-gradient-123);}.cls-147{fill:url(#radial-gradient-124);}.cls-148{fill:url(#radial-gradient-125);}.cls-149{fill:url(#radial-gradient-126);}.cls-150{fill:url(#radial-gradient-127);}.cls-151{fill:url(#radial-gradient-128);}</style><radialGradient id="radial-gradient" cx="52.9" cy="113.57" r="38.65" gradientTransform="matrix(-1, -0.05, -0.05, 1, 73.18, -128.79)" gradientUnits="userSpaceOnUse"><stop offset="0" stop-color="#fef458"/><stop offset="0.09" stop-color="#f4e743"/><stop offset="0.39" stop-color="#d4be00"/><stop offset="0.49" stop-color="#b2af00"/><stop offset="0.67" stop-color="#799700"/><stop offset="0.8" stop-color="#580"/><stop offset="0.87" stop-color="#488200"/></radialGradient><radialGradient id="radial-gradient-2" cx="52.9" cy="113.57" r="38.65" xlink:href="#radial-gradient"/><radialGradient id="radial-gradient-3" cx="52.9" cy="113.57" r="38.64" xlink:href="#radial-gradient"/><radialGradient id="radial-gradient-4" cx="52.89" cy="113.57" r="38.64" xlink:href="#radial-gradient"/><radialGradient id="radial-gradient-5" cx="52.9" cy="113.55" r="38.66" xlink:href="#radial-gradient"/><radialGradient id="radial-gradient-6" cx="52.89" cy="113.57" r="38.65" xlink:href="#radial-gradient"/><radialGradient id="radial-gradient-7" cx="52.9" cy="113.54" r="38.68" xlink:href="#radial-gradient"/><radialGradient id="radial-gradient-8" cx="52.9" cy="113.57" r="38.64" xlink:href="#radial-gradient"/><radialGradient id="radial-gradient-9" cx="52.89" cy="113.57" r="38.64" xlink:href="#radial-gradient"/><radialGradient id="radial-gradient-10" cx="52.89" cy="113.57" r="38.65" xlink:href="#radial-gradient"/><radialGradient id="radial-gradient-11" cx="52.9" cy="113.56" r="38.65" xlink:href="#radial-gradient"/><radialGradient id="radial-gradient-12" cx="52.89" cy="113.58" r="38.63" xlink:href="#radial-gradient"/><radialGradient id="radial-gradient-13" cx="52.89" cy="113.56" r="38.65" xlink:href="#radial-gradient"/><radialGradient id="radial-gradient-14" cx="52.9" cy="113.57" r="38.64" xlink:href="#radial-gradient"/><radialGradient id="radial-gradient-15" cx="52.9" cy="113.57" r="38.64" xlink:href="#radial-gradient"/><radialGradient id="radial-gradient-16" cx="52.9" cy="113.57" r="38.65" xlink:href="#radial-gradient"/><radialGradient id="radial-gradient-17" cx="52.9" cy="113.58" r="38.63" xlink:href="#radial-gradient"/><radialGradient id="radial-gradient-18" cx="52.9" cy="113.57" r="38.65" xlink:href="#radial-gradient"/><radialGradient id="radial-gradient-19" cx="52.9" cy="113.57" r="38.64" xlink:href="#radial-gradient"/><radialGradient id="radial-gradient-20" cx="52.89" cy="113.57" r="38.65" xlink:href="#radial-gradient"/><radialGradient id="radial-gradient-21" cx="52.9" cy="113.57" r="38.64" xlink:href="#radial-gradient"/><radialGradient id="radial-gradient-22" cx="52.9" cy="113.57" r="38.65" xlink:href="#radial-gradient"/><radialGradient id="radial-gradient-23" cx="52.9" cy="113.55" r="38.67" xlink:href="#radial-gradient"/><radialGradient id="radial-gradient-24" cx="52.9" cy="113.58" r="38.63" xlink:href="#radial-gradient"/><radialGradient id="radial-gradient-25" cx="52.9" cy="113.56" r="38.66" xlink:href="#radial-gradient"/><radialGradient id="radial-gradient-26" cx="52.9" cy="113.56" r="38.66" xlink:href="#radial-gradient"/><radialGradient id="radial-gradient-27" cx="52.9" cy="113.57" r="38.65" xlink:href="#radial-gradient"/><radialGradient id="radial-gradient-28" cx="52.9" cy="113.56" r="38.65" xlink:href="#radial-gradient"/><radialGradient id="radial-gradient-29" cx="52.9" cy="113.57" r="38.64" xlink:href="#radial-gradient"/><radialGradient id="radial-gradient-30" cx="52.9" cy="113.57" r="38.63" xlink:href="#radial-gradient"/><radialGradient id="radial-gradient-31" cx="52.9" cy="113.57" r="38.65" xlink:href="#radial-gradient"/><radialGradient id="radial-gradient-32" cx="52.9" cy="113.57" r="38.64" xlink:href="#radial-gradient"/><radialGradient id="radial-gradient-33" cx="52.9" cy="113.57" r="38.65" xlink:href="#radial-gradient"/><radialGradient id="radial-gradient-34" cx="52.9" cy="113.57" r="38.64" xlink:href="#radial-gradient"/><radialGradient id="radial-gradient-35" cx="52.89" cy="113.58" r="38.63" xlink:href="#radial-gradient"/><radialGradient id="radial-gradient-36" cx="52.9" cy="113.57" r="38.65" xlink:href="#radial-gradient"/><radialGradient id="radial-gradient-37" cx="52.89" cy="113.57" r="38.64" xlink:href="#radial-gradient"/><radialGradient id="radial-gradient-38" cx="52.9" cy="113.57" r="38.64" xlink:href="#radial-gradient"/><radialGradient id="radial-gradient-39" cx="52.9" cy="113.57" r="38.65" xlink:href="#radial-gradient"/><radialGradient id="radial-gradient-40" cx="52.9" cy="113.56" r="38.66" xlink:href="#radial-gradient"/><radialGradient id="radial-gradient-41" cx="52.89" cy="113.57" r="38.65" xlink:href="#radial-gradient"/><radialGradient id="radial-gradient-42" cx="52.9" cy="113.56" r="38.65" xlink:href="#radial-gradient"/><radialGradient id="radial-gradient-43" cx="52.9" cy="113.56" r="38.65" xlink:href="#radial-gradient"/><radialGradient id="radial-gradient-44" cx="52.9" cy="113.57" r="38.65" xlink:href="#radial-gradient"/><radialGradient id="radial-gradient-45" cx="52.89" cy="113.57" r="38.65" xlink:href="#radial-gradient"/><radialGradient id="radial-gradient-46" cx="52.9" cy="113.57" r="38.65" xlink:href="#radial-gradient"/><radialGradient id="radial-gradient-47" cx="52.9" cy="113.57" r="38.64" xlink:href="#radial-gradient"/><radialGradient id="radial-gradient-48" cx="52.89" cy="113.57" r="38.64" xlink:href="#radial-gradient"/><radialGradient id="radial-gradient-49" cx="52.9" cy="113.57" r="38.64" xlink:href="#radial-gradient"/><radialGradient id="radial-gradient-50" cx="52.9" cy="113.56" r="38.65" xlink:href="#radial-gradient"/><radialGradient id="radial-gradient-51" cx="52.9" cy="113.56" r="38.65" xlink:href="#radial-gradient"/><radialGradient id="radial-gradient-52" cx="52.9" cy="113.57" r="38.64" xlink:href="#radial-gradient"/><radialGradient id="radial-gradient-53" cx="52.9" cy="113.57" r="38.63" xlink:href="#radial-gradient"/><radialGradient id="radial-gradient-54" cx="52.89" cy="113.56" r="38.65" xlink:href="#radial-gradient"/><radialGradient id="radial-gradient-55" cx="52.9" cy="113.57" r="38.65" xlink:href="#radial-gradient"/><radialGradient id="radial-gradient-56" cx="52.89" cy="113.57" r="38.65" xlink:href="#radial-gradient"/><radialGradient id="radial-gradient-57" cx="-1.74" cy="65.24" r="26.46" gradientTransform="matrix(-0.84, -0.54, -0.54, 0.84, 85.04, -37.26)" gradientUnits="userSpaceOnUse"><stop offset="0" stop-color="#fef458"/><stop offset="0.16" stop-color="#dbee31"/><stop offset="0.32" stop-color="#bce90d"/><stop offset="0.4" stop-color="#b0e700"/><stop offset="0.54" stop-color="#9fd500"/><stop offset="0.75" stop-color="#8bc000"/><stop offset="0.89" stop-color="#83b800"/></radialGradient><radialGradient id="radial-gradient-58" cx="26.98" cy="127.39" r="26.46" gradientTransform="matrix(-1, -0.05, -0.05, 1, 73.18, -128.79)" xlink:href="#radial-gradient-57"/><radialGradient id="radial-gradient-59" cx="26.98" cy="127.39" r="26.46" gradientTransform="matrix(-1, -0.05, -0.05, 1, 73.18, -128.79)" xlink:href="#radial-gradient-57"/><radialGradient id="radial-gradient-60" cx="26.98" cy="127.39" r="26.46" gradientTransform="matrix(-1, -0.05, -0.05, 1, 73.18, -128.79)" gradientUnits="userSpaceOnUse"><stop offset="0" stop-color="#fef458"/><stop offset="0.12" stop-color="#dbee31"/><stop offset="0.24" stop-color="#bce90d"/><stop offset="0.31" stop-color="#b0e700"/><stop offset="0.63" stop-color="#b0e300"/><stop offset="0.64" stop-color="#afe200"/><stop offset="0.77" stop-color="#97cb00"/><stop offset="0.9" stop-color="#88bd00"/><stop offset="1" stop-color="#83b800"/></radialGradient><radialGradient id="radial-gradient-61" cx="42.47" cy="147.3" r="2.82" gradientTransform="matrix(-1, -0.05, -0.05, 1, 73.18, -128.79)" gradientUnits="userSpaceOnUse"><stop offset="0" stop-color="#fef458"/><stop offset="0.16" stop-color="#dbee31"/><stop offset="0.32" stop-color="#bce90d"/><stop offset="0.4" stop-color="#b0e700"/><stop offset="0.46" stop-color="#a5db00"/><stop offset="0.64" stop-color="#85b800"/><stop offset="0.79" stop-color="#71a300"/><stop offset="0.89" stop-color="#6a9b00"/></radialGradient><radialGradient id="radial-gradient-62" cx="26.98" cy="127.39" r="26.46" gradientTransform="matrix(-1, -0.05, -0.05, 1, 73.18, -128.79)" xlink:href="#radial-gradient-57"/><radialGradient id="radial-gradient-63" cx="60.59" cy="79.49" r="26.46" gradientTransform="matrix(-0.93, 0.36, 0.36, 0.93, 58.4, -92.65)" xlink:href="#radial-gradient-57"/><radialGradient id="radial-gradient-64" cx="60.59" cy="79.49" r="26.46" gradientTransform="matrix(-0.93, 0.36, 0.36, 0.93, 58.4, -92.65)" xlink:href="#radial-gradient-60"/><radialGradient id="radial-gradient-65" cx="26.98" cy="127.39" r="26.46" gradientTransform="matrix(-1, -0.05, -0.05, 1, 73.18, -128.79)" xlink:href="#radial-gradient-57"/><radialGradient id="radial-gradient-66" cx="26.98" cy="127.39" r="26.46" gradientTransform="matrix(-1, -0.05, -0.05, 1, 73.18, -128.79)" xlink:href="#radial-gradient-57"/><radialGradient id="radial-gradient-67" cx="36.71" cy="142.65" r="8.88" xlink:href="#radial-gradient-60"/><radialGradient id="radial-gradient-68" cx="26.98" cy="127.39" r="26.46" xlink:href="#radial-gradient-60"/><radialGradient id="radial-gradient-69" cx="26.98" cy="127.55" r="26.46" gradientTransform="matrix(-1, -0.05, -0.05, 1, 73.18, -128.79)" xlink:href="#radial-gradient-57"/><radialGradient id="radial-gradient-70" cx="26.98" cy="127.55" r="26.46" xlink:href="#radial-gradient-60"/><radialGradient id="radial-gradient-71" cx="26.98" cy="127.4" r="26.46" xlink:href="#radial-gradient-60"/><radialGradient id="radial-gradient-72" cx="4.6" cy="93.75" r="18.63" gradientTransform="matrix(-0.84, -0.54, -0.54, 0.84, 85.04, -37.26)" xlink:href="#radial-gradient-60"/><radialGradient id="radial-gradient-73" cx="43.41" cy="140.45" r="12.33" xlink:href="#radial-gradient-60"/><radialGradient id="radial-gradient-74" cx="26.75" cy="142.7" r="14.11" xlink:href="#radial-gradient-60"/><radialGradient id="radial-gradient-75" cx="-37.72" cy="103.07" r="52.68" xlink:href="#radial-gradient-60"/><radialGradient id="radial-gradient-76" cx="27.06" cy="127.53" r="17.25" xlink:href="#radial-gradient-60"/><radialGradient id="radial-gradient-77" cx="22.59" cy="151.88" r="9.62" xlink:href="#radial-gradient-60"/><radialGradient id="radial-gradient-78" cx="26.98" cy="127.39" r="26.46" xlink:href="#radial-gradient-60"/><radialGradient id="radial-gradient-79" cx="24.87" cy="135.33" r="7.17" xlink:href="#radial-gradient-60"/><radialGradient id="radial-gradient-80" cx="55.77" cy="88.81" r="17.79" gradientTransform="matrix(-0.93, 0.36, 0.36, 0.93, 58.4, -92.65)" xlink:href="#radial-gradient-60"/><radialGradient id="radial-gradient-81" cx="25.72" cy="140.27" r="29.91" xlink:href="#radial-gradient"/><radialGradient id="radial-gradient-82" cx="25.72" cy="140.27" r="29.91" xlink:href="#radial-gradient"/><radialGradient id="radial-gradient-83" cx="25.72" cy="140.27" r="29.91" xlink:href="#radial-gradient"/><radialGradient id="radial-gradient-84" cx="25.72" cy="140.27" r="29.91" xlink:href="#radial-gradient"/><radialGradient id="radial-gradient-85" cx="25.72" cy="140.27" r="29.91" xlink:href="#radial-gradient"/><radialGradient id="radial-gradient-86" cx="43.63" cy="159.71" r="8.89" xlink:href="#radial-gradient-60"/><radialGradient id="radial-gradient-87" cx="43.63" cy="159.71" r="8.89" gradientTransform="matrix(-1, -0.05, -0.05, 1, 73.18, -128.79)" gradientUnits="userSpaceOnUse"><stop offset="0.01" stop-color="#b0e300"/><stop offset="0.2" stop-color="#98cb00"/><stop offset="0.45" stop-color="#81b300"/><stop offset="0.68" stop-color="#73a400"/><stop offset="0.88" stop-color="#6e9f00"/></radialGradient><radialGradient id="radial-gradient-88" cx="16.42" cy="128.09" r="50" xlink:href="#radial-gradient-60"/><radialGradient id="radial-gradient-89" cx="49.81" cy="151.12" r="4.36" xlink:href="#radial-gradient-60"/><radialGradient id="radial-gradient-90" cx="18.47" cy="128.08" r="47.74" xlink:href="#radial-gradient-60"/><radialGradient id="radial-gradient-91" cx="51.33" cy="151.95" r="8.6" xlink:href="#radial-gradient"/><radialGradient id="radial-gradient-92" cx="51.33" cy="151.95" r="8.6" xlink:href="#radial-gradient"/><radialGradient id="radial-gradient-93" cx="51.33" cy="151.95" r="8.6" xlink:href="#radial-gradient"/><radialGradient id="radial-gradient-94" cx="51.33" cy="151.95" r="8.6" xlink:href="#radial-gradient-60"/><radialGradient id="radial-gradient-95" cx="51.33" cy="151.95" r="8.6" xlink:href="#radial-gradient-60"/><radialGradient id="radial-gradient-96" cx="51.33" cy="151.95" r="8.6" xlink:href="#radial-gradient-60"/><radialGradient id="radial-gradient-97" cx="18.47" cy="128.08" r="47.74" xlink:href="#radial-gradient-60"/><radialGradient id="radial-gradient-98" cx="18.46" cy="128.08" r="47.75" xlink:href="#radial-gradient-60"/><radialGradient id="radial-gradient-99" cx="50.03" cy="147.32" r="10.09" xlink:href="#radial-gradient-60"/><radialGradient id="radial-gradient-100" cx="28.78" cy="128.76" r="32.87" gradientTransform="matrix(-1, -0.05, -0.05, 1, 73.18, -128.79)" gradientUnits="userSpaceOnUse"><stop offset="0" stop-color="#fef458"/><stop offset="0.16" stop-color="#dbee31"/><stop offset="0.32" stop-color="#bce90d"/><stop offset="0.4" stop-color="#b0e700"/><stop offset="0.62" stop-color="#a5d400"/><stop offset="0.77" stop-color="#a0cc00"/><stop offset="0.97" stop-color="#acc200"/></radialGradient><radialGradient id="radial-gradient-101" cx="54.57" cy="150.47" r="4.58" gradientTransform="matrix(-0.95, -0.31, -0.31, 0.95, 109.88, -107.01)" gradientUnits="userSpaceOnUse"><stop offset="0" stop-color="#aebb29"/><stop offset="0.01" stop-color="#a9b627"/><stop offset="0.18" stop-color="#768212"/><stop offset="0.31" stop-color="#566105"/><stop offset="0.38" stop-color="#4a5500"/><stop offset="0.52" stop-color="#3b4400"/><stop offset="0.7" stop-color="#2f3500"/><stop offset="0.86" stop-color="#2b3000"/></radialGradient><radialGradient id="radial-gradient-102" cx="54.68" cy="150.54" r="4.32" gradientTransform="matrix(-1, -0.05, -0.05, 1, 73.18, -128.79)" xlink:href="#radial-gradient-101"/><radialGradient id="radial-gradient-103" cx="62.53" cy="149.67" r="4.07" gradientTransform="matrix(-1.11, -0.05, -0.05, 1.01, 88.06, -128.84)" xlink:href="#radial-gradient-101"/><radialGradient id="radial-gradient-104" cx="45.37" cy="157.26" r="5.59" xlink:href="#radial-gradient-60"/><radialGradient id="radial-gradient-105" cx="26.23" cy="132.98" r="26.46" gradientTransform="matrix(-1, -0.05, -0.05, 1, 73.18, -128.79)" xlink:href="#radial-gradient-57"/><radialGradient id="radial-gradient-106" cx="26.23" cy="132.98" r="26.46" gradientTransform="matrix(-1, -0.05, -0.05, 1, 73.18, -128.79)" xlink:href="#radial-gradient-57"/><radialGradient id="radial-gradient-107" cx="26.23" cy="132.98" r="26.46" gradientTransform="matrix(-1, -0.05, -0.05, 1, 73.18, -128.79)" xlink:href="#radial-gradient-57"/><radialGradient id="radial-gradient-108" cx="26.23" cy="132.98" r="26.46" xlink:href="#radial-gradient-60"/><radialGradient id="radial-gradient-109" cx="41.73" cy="152.89" r="2.82" xlink:href="#radial-gradient-61"/><radialGradient id="radial-gradient-110" cx="26.23" cy="132.98" r="26.46" gradientTransform="matrix(-1, -0.05, -0.05, 1, 73.18, -128.79)" xlink:href="#radial-gradient-57"/><radialGradient id="radial-gradient-111" cx="26.23" cy="132.98" r="26.46" gradientTransform="matrix(-1, -0.05, -0.05, 1, 73.18, -128.79)" xlink:href="#radial-gradient-57"/><radialGradient id="radial-gradient-112" cx="26.23" cy="132.98" r="26.46" xlink:href="#radial-gradient-60"/><radialGradient id="radial-gradient-113" cx="26.23" cy="132.98" r="26.46" gradientTransform="matrix(-1, -0.05, -0.05, 1, 73.18, -128.79)" xlink:href="#radial-gradient-57"/><radialGradient id="radial-gradient-114" cx="26.23" cy="132.98" r="26.46" gradientTransform="matrix(-1, -0.05, -0.05, 1, 73.18, -128.79)" xlink:href="#radial-gradient-57"/><radialGradient id="radial-gradient-115" cx="35.96" cy="148.24" r="8.88" xlink:href="#radial-gradient-60"/><radialGradient id="radial-gradient-116" cx="26.23" cy="132.98" r="26.46" xlink:href="#radial-gradient-60"/><radialGradient id="radial-gradient-117" cx="26.23" cy="133.13" r="26.46" gradientTransform="matrix(-1, -0.05, -0.05, 1, 73.18, -128.79)" xlink:href="#radial-gradient-57"/><radialGradient id="radial-gradient-118" cx="26.23" cy="133.13" r="26.46" xlink:href="#radial-gradient-60"/><radialGradient id="radial-gradient-119" cx="26.23" cy="132.98" r="26.46" xlink:href="#radial-gradient-60"/><radialGradient id="radial-gradient-120" cx="32.56" cy="161.49" r="18.63" xlink:href="#radial-gradient-60"/><radialGradient id="radial-gradient-121" cx="42.66" cy="146.04" r="12.33" xlink:href="#radial-gradient-60"/><radialGradient id="radial-gradient-122" cx="26" cy="148.28" r="14.11" xlink:href="#radial-gradient-60"/><radialGradient id="radial-gradient-123" cx="-38.46" cy="108.66" r="52.68" xlink:href="#radial-gradient-60"/><radialGradient id="radial-gradient-124" cx="26.31" cy="133.12" r="17.25" xlink:href="#radial-gradient-60"/><radialGradient id="radial-gradient-125" cx="21.84" cy="157.47" r="9.62" xlink:href="#radial-gradient-60"/><radialGradient id="radial-gradient-126" cx="26.23" cy="132.98" r="26.46" xlink:href="#radial-gradient-60"/><radialGradient id="radial-gradient-127" cx="24.12" cy="140.92" r="7.17" xlink:href="#radial-gradient-60"/><radialGradient id="radial-gradient-128" cx="21.41" cy="142.29" r="17.79" xlink:href="#radial-gradient-60"/></defs><title>grasshoppers</title><g class="cls-1"><g id="Layer_1" data-name="Layer 1"><path class="cls-2" d="M31.33,7.3a2.3,2.3,0,0,0-.08.5l-.9-.09-.56-.06a2.81,2.81,0,0,1,.11-.47Z"/><path class="cls-3" d="M28.42,7a3.32,3.32,0,0,0-.08.44l-1.28-.15a2.5,2.5,0,0,1,.09-.43Z"/><path class="cls-4" d="M29.9,7.18a2.81,2.81,0,0,0-.11.47l-1.45-.17A3.32,3.32,0,0,1,28.42,7Z"/><path class="cls-5" d="M31.33,7.3l1.28.09a3.37,3.37,0,0,0-.09.52l-1.28-.1A2.3,2.3,0,0,1,31.33,7.3Z"/><path class="cls-6" d="M27.15,6.9a2.5,2.5,0,0,0-.09.43l-1.44-.17a2.9,2.9,0,0,1,.12-.42Z"/><path class="cls-7" d="M22.44,6.35l1.27.15a3.26,3.26,0,0,0-.07.42l-1.28-.15A2.27,2.27,0,0,1,22.44,6.35Z"/><path class="cls-8" d="M25.75,6.74a2.9,2.9,0,0,0-.12.42l-2-.24a3.26,3.26,0,0,1,.07-.42Z"/><path class="cls-9" d="M7.91,15l-.41.06a7.16,7.16,0,0,1-.76-1.27,4,4,0,0,0,.54.08A7.51,7.51,0,0,0,7.91,15Z"/><path class="cls-10" d="M38.84,6.89a3,3,0,0,0,.78-.39c.72-.55,1.11.31.09.87a3.57,3.57,0,0,1-.89.31A2.8,2.8,0,0,1,38.84,6.89Z"/><path class="cls-11" d="M9.09,16.45l-.34,0A7.77,7.77,0,0,1,7.5,15.1L7.91,15A8,8,0,0,0,9.09,16.45Z"/><path class="cls-12" d="M35.72,7.45A10.07,10.07,0,0,0,37,7.34a3.39,3.39,0,0,0,0,.59q-.59,0-1.28.06A2.29,2.29,0,0,1,35.72,7.45Z"/><path class="cls-13" d="M34.31,7.46c.51,0,1,0,1.41,0a2.29,2.29,0,0,0,0,.54Q35,8,34.27,8A2.87,2.87,0,0,1,34.31,7.46Z"/><path class="cls-14" d="M34.31,7.46a2.87,2.87,0,0,0,0,.53q-.82,0-1.74-.08a3.37,3.37,0,0,1,.09-.52C33.21,7.42,33.78,7.45,34.31,7.46Z"/><path class="cls-15" d="M37.18,7.31a9.8,9.8,0,0,0,1.67-.41,2.8,2.8,0,0,0,0,.79A12.29,12.29,0,0,1,37,7.93a3.39,3.39,0,0,1,0-.59Z"/><path class="cls-16" d="M18.18,5.87,19,6l.42,0a3.36,3.36,0,0,0-.05.4c-.33,0-.76-.09-1.27-.13A2.2,2.2,0,0,1,18.18,5.87Z"/><path class="cls-17" d="M6.42,10.28a5.56,5.56,0,0,1,.5-1.21,5.89,5.89,0,0,1,.47-.71,1.66,1.66,0,0,0,.26.5,5.39,5.39,0,0,0-.77,1.83A1.59,1.59,0,0,1,6.42,10.28Z"/><path class="cls-18" d="M22.44,6.35a2.27,2.27,0,0,0-.08.42l-1.44-.17A2.92,2.92,0,0,1,21,6.18Z"/><path class="cls-19" d="M10.11,6.39a2.74,2.74,0,0,0,0,.6,6.4,6.4,0,0,0-1.34.71,2.8,2.8,0,0,1-.08-.58A6.84,6.84,0,0,1,10.11,6.39Z"/><path class="cls-20" d="M8.72,7.12a2.8,2.8,0,0,0,.08.58A4.24,4.24,0,0,0,7.66,8.85h0a1.66,1.66,0,0,1-.26-.5A5.71,5.71,0,0,1,8.72,7.12Z"/><path class="cls-21" d="M6.84,12.36a5.87,5.87,0,0,0,.45,1.55,4,4,0,0,1-.54-.08,5.48,5.48,0,0,1-.48-1.68A1.89,1.89,0,0,0,6.84,12.36Z"/><path class="cls-22" d="M6.42,10.28a1.59,1.59,0,0,0,.46.41,4.87,4.87,0,0,0-.05,1.66,1.89,1.89,0,0,1-.57-.21A4.8,4.8,0,0,1,6.42,10.28Z"/><path class="cls-23" d="M10.11,6.39A9.06,9.06,0,0,1,11.35,6a3.21,3.21,0,0,0,0,.58A9.62,9.62,0,0,0,10.14,7,2.74,2.74,0,0,1,10.11,6.39Z"/><path class="cls-24" d="M16.75,5.75a2.87,2.87,0,0,0-.08.42l-1.22,0a3.43,3.43,0,0,1,0-.47Z"/><path class="cls-25" d="M18.18,5.87a2.2,2.2,0,0,0,0,.39c-.44,0-.93-.07-1.46-.09a2.87,2.87,0,0,1,.08-.42Z"/><path class="cls-26" d="M21,6.18a2.92,2.92,0,0,0-.11.42l-.86-.11-.65-.09a3.36,3.36,0,0,1,.05-.4Z"/><path class="cls-27" d="M14.15,5.68c.42,0,.85,0,1.27,0a3.43,3.43,0,0,0,0,.47c-.42,0-.85,0-1.29,0A2.39,2.39,0,0,1,14.15,5.68Z"/><path class="cls-28" d="M12.75,5.78c.46-.05.93-.08,1.41-.09a2.39,2.39,0,0,0,0,.51c-.48,0-1,.08-1.45.15A2.91,2.91,0,0,1,12.75,5.78Z"/><path class="cls-29" d="M11.35,6a12.15,12.15,0,0,1,1.4-.24,2.91,2.91,0,0,0,0,.56,13.46,13.46,0,0,0-1.34.26A3.21,3.21,0,0,1,11.35,6Z"/><path class="cls-30" d="M20.35,1.34l1.26,0a3.18,3.18,0,0,0,0,.4h-.24l-1,0A2.69,2.69,0,0,1,20.35,1.34Z"/><path class="cls-31" d="M18.53,1.36l1.83,0a2.69,2.69,0,0,0,0,.41l-1.78,0A2.81,2.81,0,0,1,18.53,1.36Z"/><path class="cls-32" d="M21.61,1.32l1.47,0a2.88,2.88,0,0,0,0,.4l-1.46,0A3.18,3.18,0,0,1,21.61,1.32Z"/><path class="cls-33" d="M18.53,1.36a2.81,2.81,0,0,0,0,.42l-1.39,0a3.32,3.32,0,0,1,0-.42Z"/><path class="cls-34" d="M17.11,1.39a3.32,3.32,0,0,0,0,.42l-1.28,0a2,2,0,0,1,0-.41Z"/><path class="cls-35" d="M14.39,1.51l1.44-.07a2,2,0,0,0,0,.41h-.44l-1,0A2.59,2.59,0,0,1,14.39,1.51Z"/><path class="cls-36" d="M23.09,1.29l1.42-.05a2.28,2.28,0,0,0,0,.41l-1.46,0A2.88,2.88,0,0,1,23.09,1.29Z"/><path class="cls-37" d="M5.75,15.11l-.31.16a13.06,13.06,0,0,1-1.11-1.13A2,2,0,0,0,4.67,14,14.15,14.15,0,0,0,5.75,15.11Z"/><path class="cls-38" d="M6.62,15.89A15.11,15.11,0,0,0,8.13,17L7.7,17a13.46,13.46,0,0,1-1.3-.9Z"/><path class="cls-39" d="M6.62,15.89l-.23.19c-.3-.23-.62-.5-1-.8l.31-.16C6,15.4,6.35,15.66,6.62,15.89Z"/><path class="cls-40" d="M29.82.16a.25.25,0,0,1,.29.29c0,.16-.3.39-.89.6a3.09,3.09,0,0,1,.11-.61A3.07,3.07,0,0,0,29.82.16Z"/><path class="cls-41" d="M24.51,1.24c.55,0,1.08-.06,1.57-.11a3.39,3.39,0,0,0-.05.46l-1.5.06A2.28,2.28,0,0,1,24.51,1.24Z"/><path class="cls-42" d="M29.33.44a3.09,3.09,0,0,0-.11.61,8.41,8.41,0,0,1-1.45.36,3,3,0,0,1,.07-.52A6.68,6.68,0,0,0,29.33.44Z"/><path class="cls-43" d="M27.85.89a3,3,0,0,0-.07.52A15.68,15.68,0,0,1,26,1.59h0a3.39,3.39,0,0,1,.05-.46A17.19,17.19,0,0,0,27.85.89Z"/><path class="cls-44" d="M11.53,1.76a2.23,2.23,0,0,0,0,.38c-.48.07-1,.15-1.44.26a2.76,2.76,0,0,1,0-.39Q10.79,1.87,11.53,1.76Z"/><path class="cls-45" d="M2.43,10.19c0-.11,0-.21,0-.32a7.39,7.39,0,0,1,.06-1.25,1.47,1.47,0,0,0,.28.23,5.12,5.12,0,0,0,.1,1.75A1.45,1.45,0,0,1,2.43,10.19Z"/><path class="cls-46" d="M2.95,6.88a2.87,2.87,0,0,0,.27.35c-.09.2-.17.4-.24.6a5,5,0,0,0-.23,1,1.47,1.47,0,0,1-.28-.23A6.56,6.56,0,0,1,2.95,6.88Z"/><path class="cls-47" d="M2.95,6.88a6.54,6.54,0,0,1,.78-1.34A3,3,0,0,0,4,5.91a7.27,7.27,0,0,0-.76,1.32A2.87,2.87,0,0,1,2.95,6.88Z"/><path class="cls-48" d="M3.74,12.69A10.64,10.64,0,0,0,4.67,14a2,2,0,0,1-.35.17,9.59,9.59,0,0,1-1-1.44A1.56,1.56,0,0,0,3.74,12.69Z"/><path class="cls-49" d="M14.39,1.51a2.59,2.59,0,0,0,0,.39c-.52,0-1,.06-1.55.1a3.55,3.55,0,0,1,0-.37Z"/><path class="cls-50" d="M3.29,12.71a6.24,6.24,0,0,1-.86-2.52,1.45,1.45,0,0,0,.42.41,7.07,7.07,0,0,0,.88,2.09A1.56,1.56,0,0,1,3.29,12.71Z"/><path class="cls-51" d="M4.59,4.6A3.12,3.12,0,0,0,4.84,5h0a6.37,6.37,0,0,0-.85,1,3,3,0,0,1-.25-.37A7.16,7.16,0,0,1,4.59,4.6Z"/><path class="cls-52" d="M5.68,3.75a2.91,2.91,0,0,0,.23.37A9.09,9.09,0,0,0,4.84,5a3.12,3.12,0,0,1-.25-.36A8.41,8.41,0,0,1,5.68,3.75Z"/><path class="cls-53" d="M7.87,2.65c.31-.12.63-.22,1-.32a3.47,3.47,0,0,0,.12.38c-.27.08-.53.17-.79.27A3.48,3.48,0,0,1,7.87,2.65Z"/><path class="cls-54" d="M12.31,1.67l.5,0a3.55,3.55,0,0,0,0,.37q-.64.06-1.27.15a2.23,2.23,0,0,1,0-.38Z"/><path class="cls-55" d="M10.11,2a2.76,2.76,0,0,0,0,.39l-.42.1-.75.21a3.47,3.47,0,0,1-.12-.38C9.23,2.21,9.66,2.1,10.11,2Z"/><path class="cls-56" d="M7.87,2.65A3.48,3.48,0,0,0,8.15,3a12,12,0,0,0-1.23.55,2.41,2.41,0,0,1-.24-.36A12,12,0,0,1,7.87,2.65Z"/><path class="cls-57" d="M6.68,3.17a2.41,2.41,0,0,0,.24.36,10.44,10.44,0,0,0-1,.59,2.91,2.91,0,0,1-.23-.37A10.06,10.06,0,0,1,6.68,3.17Z"/><path class="cls-58" d="M8.51,7.49a10,10,0,0,1,6.06-1.64S10.6,5.9,8.51,7.49Z"/><path class="cls-59" d="M.19,26.65s0-.36.69-.29,4.93,1.74,5.06,1.76.25.34-.2.28S1.32,26.83.89,26.87.05,26.88.19,26.65Z"/><path class="cls-60" d="M18.71,18s.55-.37.82,0,.18,1.34-1.31,1.87a57.7,57.7,0,0,1-7.88,1.53A.37.37,0,0,1,10,21.1c0-.34,4.76-.9,6.12-1.44A10.46,10.46,0,0,0,18.71,18Z"/><path class="cls-61" d="M9.53,21.23s.3-.26.49,0-.27.67-.94,1.81-3,5.27-3.19,5.24-.25-.13,0-.53Z"/><path class="cls-62" d="M6.45,26.75c.43-.6.87-1.18,1.27-1.78S8.57,23.7,9,23a7.76,7.76,0,0,1,1.11-1.56,13.44,13.44,0,0,1-1,1.6c-.67,1.15-3,5.27-3.19,5.24s-.25-.13,0-.53Z"/><path class="cls-63" d="M21.46,19.46s-.11-.5,1.25-.91,2.9-.84,3.35-1,.66.83-.56,1.46S21.33,20.46,21.46,19.46Z"/><path class="cls-64" d="M25.38,18.79a.81.81,0,0,1,.54-1s.29-.07.41.63.86,4.69,1.18,6.11.69,2,.51,2.21-.45.87-.54.52-1.22-5.37-1.66-6.78A9.76,9.76,0,0,1,25.38,18.79Z"/><path class="cls-65" d="M50.14,24.79s-.39-.49,0-.64a10.7,10.7,0,0,1,5,.32c1.8.69.44,1-.2.77a10,10,0,0,0-3.12-.44C50.63,24.82,50.37,25,50.14,24.79Z"/><path class="cls-66" d="M50.15,24.14a3.45,3.45,0,0,1,.72-.11c0,.37.88.47,1.31.49a7.09,7.09,0,0,1,3.46.78,1.6,1.6,0,0,1-.69-.06,10,10,0,0,0-3.12-.44c-1.2,0-1.45.25-1.68,0C50.14,24.79,49.75,24.3,50.15,24.14Z"/><path class="cls-67" d="M40.21,4.64a1.15,1.15,0,0,1,.62,1.44c-.32.8.4.81.47,1.5s.74.62.81,1.29.27.81.44.89A1.64,1.64,0,0,1,43.11,11c-.07.46.63.85.58,1.25s.34.48.38,1.17.64.52.49.92.47.43.35.76-.11.66.46,1.12.15.53.9,1.25,2.43,4.89,3,6.1.77,1,1,.59-5.58-11.92-5.79-12.52-3.73-8.07-4-8.23-.38.17-.38.17S39.69,4.29,40.21,4.64Z"/><path class="cls-68" d="M20.21,19.64a.55.55,0,0,1-.09-.08c-.18-.21-.44-.78,1.38-1.39.65-.22.66-.23,1.46-.55,0,0,13.6-13.18,17.17-14.14,0,0,.2,0,.09.36S25.34,18.09,25.34,18.09a1.6,1.6,0,0,1-.81.47C23.95,18.74,21.09,20.08,20.21,19.64Z"/><g class="cls-69"><path class="cls-70" d="M20.94,18.39l-.11.15c-1.11,1.24,3.19.35,7.74-4.86A58.91,58.91,0,0,1,39.82,4.29c-2.38,2.42-14.47,13.8-14.47,13.8a1.6,1.6,0,0,1-.81.47c-.59.18-3.44,1.51-4.33,1.08a.55.55,0,0,1-.09-.08C20,19.38,19.75,18.91,20.94,18.39Z"/></g><g class="cls-71"><path class="cls-72" d="M25.37,18.57s.21-.5.44,0a50.72,50.72,0,0,1,1.15,5s.45,2.39.55,2.48.25.54.32-.36v0c.19.59.3.9.19,1s-.45.87-.54.52-1.22-5.37-1.66-6.78a9.76,9.76,0,0,1-.45-1.64,1.1,1.1,0,0,1,0-.18Z"/></g><path class="cls-73" d="M27.74,26.76s.27-.34.89.33,2.23,2.32,2.47,2.57.22.67-.41.36a22.28,22.28,0,0,1-3.07-2.55C27.57,27.33,27.3,27,27.74,26.76Z"/><path class="cls-74" d="M27.74,26.76a.29.29,0,0,1,.22-.09.91.91,0,0,0,.27.76,2.3,2.3,0,0,0,.74.88,9.57,9.57,0,0,1,2.21,1.78c-.07.06-.23.06-.5-.07a22.28,22.28,0,0,1-3.07-2.55C27.57,27.33,27.3,27,27.74,26.76Z"/><g class="cls-75"><path class="cls-76" d="M10.47,20.88c.08.13.58.15,3-.32s4.54-.86,5.47-1.69c.63-.56.44-.85.26-1a.4.4,0,0,1,.33.19c.27.41.18,1.34-1.31,1.87a57.7,57.7,0,0,1-7.88,1.53A.37.37,0,0,1,10,21.1C10,21,10.18,21,10.47,20.88Z"/></g><path class="cls-77" d="M.46,26.56a3.82,3.82,0,0,1,1.35.23c.91.28,2.57.91,2.57.91s-3.17-1.18-3.78-1C.6,26.67.34,26.66.46,26.56Z"/><path class="cls-78" d="M9.66,21.33s.15,0,.07.14-1.92,3.18-1.92,3.18Z"/><path class="cls-79" d="M16.13,19.83A8.63,8.63,0,0,0,18,18.78c.67-.57,1.16-.83,1-.43A5.1,5.1,0,0,1,16.13,19.83Z"/><path class="cls-80" d="M23.48,17.39s9-8.15,10.11-9.09c0,0-5.71,5.23-6.87,6.41S22.67,18.35,23.48,17.39Z"/><path class="cls-81" d="M25.78,18.23a5.54,5.54,0,0,1,.58,1.88c.24,1.38.78,3.82.78,3.82s-1-5.12-1.1-5.63S25.7,18.11,25.78,18.23Z"/><path class="cls-82" d="M28.15,27.07a11.44,11.44,0,0,0,1.61,1.56C30.52,29.17,27.9,26.63,28.15,27.07Z"/><path class="cls-83" d="M40.11,3.57s.15-.33.38-.17A14.17,14.17,0,0,1,41.35,5a1.57,1.57,0,0,0,.07.84c.45,1.28-.14.81.4,1.69s1.25,1.69,1.29,2.38.59,1.22,1,2.06a7.21,7.21,0,0,0,1.18,2.44c.59.5.22,1.2,1,2.09s.61.81,1.29,2.38,2,4.49,2,4.49.39.39.44,0a2.16,2.16,0,0,1,.24.78c-.22.36-.44.63-1-.59s-2.24-5.39-3-6.1-.33-.79-.9-1.25-.58-.79-.46-1.12-.49-.36-.35-.76-.45-.23-.49-.92-.43-.76-.38-1.17-.65-.8-.58-1.25a1.64,1.64,0,0,0-.56-1.23c-.17-.08-.37-.22-.44-.89s-.74-.6-.81-1.29-.79-.7-.47-1.5a1.15,1.15,0,0,0-.62-1.44C39.69,4.29,40.11,3.57,40.11,3.57Z"/><path class="cls-84" d="M42,6.9l2.73,5.73S42.7,8.8,42,6.9Z"/><path class="cls-85" d="M51.46,24.24a12.46,12.46,0,0,1,3.93.68S54.18,23.91,51.46,24.24Z"/><g class="cls-86"><path class="cls-87" d="M.19,26.65s0-.36.69-.29,4,1.39,4.87,1.7a1.88,1.88,0,0,1,.13-.26l.58-1h0l3.08-5.52s.3-.26.49,0a.28.28,0,0,1,0,.22h0a3.23,3.23,0,0,1-.48.82l-.09.14,0,.06-.15.23,0,.06-.17.28c-.6,1-2.51,4.44-3.06,5.12.05.1,0,.24-.3.2S1.32,26.83.89,26.87.05,26.88.19,26.65Z"/><path class="cls-88" d="M20,19.18h0a.55.55,0,0,1,.11-.24h0l.07-.09h0a1.71,1.71,0,0,1,.36-.27h0l.17-.09h0a5.83,5.83,0,0,1,.77-.31c.65-.22.66-.23,1.46-.55,0,0,13.6-13.18,17.17-14.14h0c.06-.09.18-.2.34-.09l0,0h0l0,.07v0l.05.09,0,0,.06.12,0,0,.07.13,0,.05.08.16,0,.07.09.17,0,.09.07.14.07.13.07.15.06.11h0c1.12,2.27,3,6.19,3.11,6.62S48.93,20.72,50,23.38h0l.12.3h0l0,.11v0l0,.08v0l0,.06v.12a11,11,0,0,1,4.89.35c1.24.48,1,.77.49.83h-.18a1.72,1.72,0,0,1-.34,0h0l-.15,0a10,10,0,0,0-3.12-.44c-1.2,0-1.45.25-1.68,0a.92.92,0,0,1-.16-.33c-.17,0-.38-.14-.72-.89-.56-1.22-2.24-5.39-3-6.1s-.33-.79-.9-1.25-.58-.79-.46-1.12-.49-.36-.35-.76-.45-.23-.49-.92-.43-.76-.38-1.17-.65-.8-.58-1.25a1.64,1.64,0,0,0-.56-1.23c-.17-.08-.37-.22-.44-.89s-.74-.6-.81-1.29-.79-.7-.47-1.5a1.15,1.15,0,0,0-.62-1.44A.57.57,0,0,1,40,4.16l-.36.37,0,0-.11.11,0,0-.1.1-.06.06L39.13,5,39.07,5l-.13.12-.06.06-.13.13-.07.07-.14.14-.07.07-.16.15,0,0L37.1,6.94l0,0-.25.24,0,0-.53.51,0,0c-2.06,2-4.57,4.35-6.67,6.34l0,0-.24.23-.08.08-.74.7,0,0-2.26,2.13-.29.27-.14.13.27-.07c.29-.07.47.28.26.72v.06c.12.7.86,4.69,1.18,6.11.11.5.23.89.33,1.21l.13.4,0,.09v.05l0,.09v0l0,.1h0a.59.59,0,0,1,0,.08v.09l0,0a1.16,1.16,0,0,1,.59.41c.62.68,2.23,2.32,2.47,2.57s.21.45,0,.47h-.2l-.06,0h0l-.1,0a22.28,22.28,0,0,1-3.07-2.55s0-.1-.08-.17a.15.15,0,0,1,0-.09c-.09-.34-1.22-5.37-1.66-6.78-.22-.7-.34-1.11-.39-1.35-1.18.58-3.76,1.27-4,.54a2.14,2.14,0,0,1-1.26,0,.55.55,0,0,1-.09-.08l0,0h0l0,0h0l0,0h0a.44.44,0,0,1,0-.18h0A.38.38,0,0,1,20,19.18Z"/><path class="cls-87" d="M10,21.07h0l0,0h0l0,0h0l.07,0,0,0h0l.06,0h0c1.16-.34,4.61-.8,5.73-1.24A10.46,10.46,0,0,0,18.71,18s.37-.25.66-.11h0l.06,0,0,0,.07.08c.27.41.18,1.34-1.31,1.87a57.7,57.7,0,0,1-7.88,1.53A.37.37,0,0,1,10,21.1Z"/></g><path class="cls-89" d="M50.56,19.1c2.23.2,3.65.68,3.66,1.27s-1.76,2.2-4.92,3.65A9.23,9.23,0,0,0,50.56,19.1Z"/><path class="cls-90" d="M32.25,20.17a11.66,11.66,0,0,1-1.1,5.3c-1-.17-1.94-.37-2.78-.57a15.66,15.66,0,0,0,1.45-4.57Z"/><path class="cls-91" d="M32.25,20.17c5.18-.37,11.21-.92,13.9-1.09a29.63,29.63,0,0,1,4.41,0A9.23,9.23,0,0,1,49.29,24a23.45,23.45,0,0,1-3.45,1.25,10.3,10.3,0,0,0,1.32-4.35,10.3,10.3,0,0,1-1.32,4.35,25.07,25.07,0,0,1-2.83.61,12.1,12.1,0,0,0,1-4.73,12.1,12.1,0,0,1-1,4.73c-.83.13-1.7.22-2.6.27A20.06,20.06,0,0,0,41.33,21a20.06,20.06,0,0,1-.92,5.13c-.78,0-1.59.05-2.43,0l-1,0a13.51,13.51,0,0,0,1.24-5.81A13.51,13.51,0,0,1,37,26.12c-1.1-.06-2.14-.15-3.12-.26,1.05-2,1.11-5.61,1.16-5.7,0,.08-.11,3.69-1.16,5.7-1-.11-1.9-.24-2.76-.39A11.66,11.66,0,0,0,32.25,20.17Z"/><path class="cls-92" d="M29.81,20.33a15.66,15.66,0,0,1-1.45,4.57c-1-.24-1.91-.49-2.68-.73A11.29,11.29,0,0,0,27,20.48C27.83,20.45,28.78,20.4,29.81,20.33Z"/><path class="cls-93" d="M23.94,20.5a28.53,28.53,0,0,0,3,0,11.29,11.29,0,0,1-1.29,3.69,22.6,22.6,0,0,1-3.27-1.26S20.77,20.23,23.94,20.5Z"/><g class="cls-94"><path class="cls-95" d="M22.42,22.91a22.6,22.6,0,0,0,3.27,1.26c.76.24,1.66.49,2.68.73.84.2,1.77.39,2.78.57.86.15,1.78.28,2.76.39s2,.2,3.12.26l.54,0a2.2,2.2,0,0,1,.3-1.6c.64-1,2.24-.84,2.3,0a3.51,3.51,0,0,1-.41,1.67l.66,0a17.84,17.84,0,0,0,.73-1.8c.2-.53,1.77-.71,1.64.38A1.53,1.53,0,0,1,42.13,26l.63-.08a.32.32,0,0,1,.11-.08c.34-.11.49-1.1.74-1.63s2-1.06,2.18-.59-.49,1.67-.49,1.67l-.21.18.63-.16v0s.14-.3.72-1.27a2.34,2.34,0,0,1,2.48-1.09c.26.17.15.76,0,1.26l.36-.16.55-.26c.3-.62.59-1.37.89-2.06S52.93,20.27,54,20a7.09,7.09,0,0,0-3.44-.89,29.63,29.63,0,0,0-4.41,0c-2.69.17-8.71.72-13.9,1.09l-2.44.17c-1,.06-2,.12-2.83.15a28.53,28.53,0,0,1-3,0C20.77,20.23,22.42,22.91,22.42,22.91Zm13.38.9s1.39-.09,1.31.42-.55,1.63-1.52,1.31C35,25.33,35,23.9,35.8,23.81Zm-3.4.75c-.14-.45.24-1.25.81-1.15,1.61.28.82,1.42,0,1.62A.64.64,0,0,1,32.4,24.56Zm-2.56-.69c0-.38.06-.76.65-.79s.95.1.8.77c-.08.35-.37.89-.8.89C29.9,24.74,29.8,24.25,29.84,23.87Zm-1.65-1.28s.54,0,.44.33-.37,1.34-.72,1.22S27.21,22.62,28.19,22.59Z"/></g><path class="cls-96" d="M46.58,24.59a2,2,0,0,1,1.69-1.25c1.28-.07.22.8-.22,1S46.3,25.07,46.58,24.59Z"/><path class="cls-96" d="M44.89,24s.81-.3.51.51-1.66,1-1.64.72A1.71,1.71,0,0,1,44.89,24Z"/><path class="cls-96" d="M41.76,24.83s.83-.17.52.43S40.23,25.24,41.76,24.83Z"/><path class="cls-96" d="M38.45,24.87s1.22-.41,1.31.28C39.92,26.29,37.13,25.68,38.45,24.87Z"/><path class="cls-97" d="M36.46,24.23c.2.08.29.25.15.6s-1,.82-1.2.15c-.12-.44,0-.69.45-.76A1.23,1.23,0,0,1,36.46,24.23Z"/><path class="cls-98" d="M30.49,23.08c.56.08.95.1.8.77-.08.35-.37.89-.8.89-.59,0-.69-.49-.65-.87S29.9,23.1,30.49,23.08Z"/><path class="cls-98" d="M35.8,23.81s1.39-.09,1.31.42-.55,1.63-1.52,1.31C35,25.33,35,23.9,35.8,23.81Z"/><path class="cls-98" d="M33.21,23.41c1.61.28.82,1.42,0,1.62a.64.64,0,0,1-.85-.47C32.26,24.11,32.64,23.31,33.21,23.41Z"/><path class="cls-98" d="M28.19,22.59s.54,0,.44.33-.37,1.34-.72,1.22S27.21,22.62,28.19,22.59Z"/><path class="cls-99" d="M35.41,23.44c-.44.16-.85,1.8-1.21,1.78s.86-1.49-.25-1.88-1.88-.22-2.06.36-.51,1.08-.44.62.49-1.23-.22-1.37-1.54-.46-1.74.07-.76,1.42-.77,1.11.31-1.7-.15-1.82-3.18-.38-3.93-1.26a2.3,2.3,0,0,1-.3-.55c.64,0,1.54,0,2.63,0,.85,0,1.8-.09,2.83-.15l2.44-.17c5.18-.37,11.21-.92,13.9-1.09a29.63,29.63,0,0,1,4.41,0,12.09,12.09,0,0,1,2.55.45,16.51,16.51,0,0,1-8,3.67C40.09,24,35.85,23.28,35.41,23.44Z"/><path class="cls-100" d="M17.12,23c.2.08,4.47,1.69,6.4.88a1.93,1.93,0,0,0,.41-3.38,42.56,42.56,0,0,0-5.57-1.13Z"/><path class="cls-101" d="M17.12,23c.2.08,4.47,1.69,6.4.88a1.93,1.93,0,0,0,.41-3.38,42.56,42.56,0,0,0-5.57-1.13Z"/><path class="cls-102" d="M12.9,16.66a1.7,1.7,0,0,1,1.87-.73,4.56,4.56,0,0,1,3.13-.28,2.59,2.59,0,0,1,2.28.37c1,.81-.26,1.57,0,2.94s1.31,3.06-.73,4.64-5.84.33-6.89-1.67S12.68,17.3,12.9,16.66Z"/><path class="cls-103" d="M16.64,21.58a7.62,7.62,0,0,1-1.87-5.64"/><path class="cls-103" d="M18.13,21.64s-1.87-3.2-.29-6"/><path class="cls-104" d="M12.54,21.93c1,2,4.85,3.24,6.89,1.67s1-3.26.73-4.64,1-2.13,0-2.94a2.59,2.59,0,0,0-2.28-.37,4.56,4.56,0,0,0-3.13.28,1.7,1.7,0,0,0-1.87.73C12.68,17.3,11.49,19.93,12.54,21.93Zm2-4.56a2.68,2.68,0,0,0,.09.36,13,13,0,0,0,2.26,4.16s.25,0-.09-.37-1.27-2.56-1-3.44,1.38-.8,1.38-.8A8,8,0,0,0,18.36,22a7.81,7.81,0,0,1-.74-3.9c.33-1.62.55-1.93,1.18-2,0,0,.53,0,.48.4a2.32,2.32,0,0,0,0,2.53c.85,1.47.88,3.11-.18,3.9s-3,.8-3.63-.79-1.16-3.32-1.4-4S14.26,17,14.59,17.37Z"/><path class="cls-105" d="M18.48,16.41c.17-.09.43,0,.35.24a2.8,2.8,0,0,0-.08,2c.3,1.24,1.24,1.88.47,2.68a.53.53,0,0,1-.54,0,1.64,1.64,0,0,1-.47-.78,5.36,5.36,0,0,1-.36-2.69,4.5,4.5,0,0,1,.29-1.06,1,1,0,0,1,.32-.44Z"/><path class="cls-105" d="M16.52,17.73s.47-.22.4.21a4.1,4.1,0,0,0,.49,3c.79,1.25-.5.88-1-.83S16.28,17.92,16.52,17.73Z"/><path class="cls-106" d="M9.76,15.88c2.56-.09,3.11,1,3.11,1A30,30,0,0,1,15,22.07c.58,2.19,1.25,5.25-1.13,5.82a8.9,8.9,0,0,0-1.83-3c-1-1.12-1.21-1.46-2.74-1.61A3.52,3.52,0,0,1,8.08,23a11.08,11.08,0,0,1-.79-2.49C7,18.51,7.19,16,9.76,15.88Z"/><path class="cls-107" d="M12.92,26.08a6.17,6.17,0,0,1,.91,1.81,3.54,3.54,0,0,1-.67.09,3.91,3.91,0,0,1-2.94-1.52A4.53,4.53,0,0,0,12.92,26.08Z"/><path class="cls-108" d="M9.16,25A15,15,0,0,1,8.08,23a3.52,3.52,0,0,0,1.18.28,2.84,2.84,0,0,1,2.35,1.18A3,3,0,0,1,9.16,25Z"/><path class="cls-109" d="M9.16,25a3,3,0,0,0,2.46-.6l.38.43a11.93,11.93,0,0,1,.93,1.2,4.53,4.53,0,0,1-2.7.38A10,10,0,0,1,9.16,25Z"/><path class="cls-105" d="M12.8,26.39a7.57,7.57,0,0,1,.74,1.33h0a5.73,5.73,0,0,0-1.08-1.17Z"/><path class="cls-110" d="M11.08,26.51a5.59,5.59,0,0,0,2.72,1.29l0,.08a3.54,3.54,0,0,1-.67.09,3.91,3.91,0,0,1-2.94-1.52A5.22,5.22,0,0,0,11.08,26.51Z"/><path class="cls-105" d="M10.51,24.2a4.27,4.27,0,0,0-.47-.38c-.14-.1-.16-.19-.13-.28a2.66,2.66,0,0,1,1.43,1,3.13,3.13,0,0,1-.35.24A4.06,4.06,0,0,0,10.51,24.2Z"/><path class="cls-111" d="M9.18,23.26a.61.61,0,0,0,0,.28,3.24,3.24,0,0,0,.7,1.56A3.36,3.36,0,0,1,9.16,25,15,15,0,0,1,8.08,23,3.4,3.4,0,0,0,9.18,23.26Z"/><path class="cls-105" d="M11.5,24.68l.37.42a11.16,11.16,0,0,1,.71.9l-.41.19a4.69,4.69,0,0,1-.54-.59c-.16-.22-.37-.47-.53-.7A3.36,3.36,0,0,0,11.5,24.68Z"/><path class="cls-112" d="M9.83,25.1l.3.4a6.43,6.43,0,0,0,1,1,5.22,5.22,0,0,1-.86-.06A10,10,0,0,1,9.16,25,3.36,3.36,0,0,0,9.83,25.1Z"/><g class="cls-113"><path class="cls-114" d="M9.76,15.88a4,4,0,0,1,2.83.7c-.5-.26-1.24-.47-1.23,0,0,.62,1.65,1.41,1.2,4.51-.32,2.23-1.3,1.88-.41,3.41s3.11,2.83,3.31,0c.19,1.6,0,3.08-1.63,3.46a8.9,8.9,0,0,0-1.83-3c-1-1.12-1.21-1.46-2.74-1.61A3.52,3.52,0,0,1,8.08,23a11.08,11.08,0,0,1-.79-2.49C7,18.51,7.19,16,9.76,15.88Z"/></g><g class="cls-115"><path class="cls-116" d="M14,26.86a2.53,2.53,0,0,0,1.45-1.09,2.13,2.13,0,0,1-1.67,2.12,4,4,0,0,0-.36-.9C13.68,27,13.87,26.91,14,26.86Z"/><path class="cls-117" d="M9,16c-1.33.93-1.13,3.48-.83,5a3.91,3.91,0,0,0,.58,1.59,2.67,2.67,0,0,0,1.49.73,3,3,0,0,1,1.27,1.1l.2.25a3,3,0,0,0-2.51-1.35A3.52,3.52,0,0,1,8.08,23a11.08,11.08,0,0,1-.79-2.49C7,18.71,7.16,16.48,9,16Z"/></g><path class="cls-105" d="M12,16.67c1,.46,1.34,1.94,1.71,2.86a19.43,19.43,0,0,1,1.19,3.87,4.41,4.41,0,0,1,0,1.82,36.67,36.67,0,0,0-1.45-4.94C12.75,18.4,11.68,16.51,12,16.67Z"/><path class="cls-118" d="M20.05,16a132.86,132.86,0,0,0,16.28-1.55c8.66-1.39,18.94-2.55,20.86-1s-3.43,6.59-8.47,8.5-15.19,1.09-20,.15-8.34-2-8.34-2S18.24,17.68,20.05,16Z"/><path class="cls-119" d="M19.25,17.54a.05.05,0,0,0,0,.05h0s2.39.09,5.25-.05l0,0a19.64,19.64,0,0,0,4.49,1.72c-4-.16-9.33-.54-9.4-.55h0a.05.05,0,0,0,0,.1l3.14.21h0a18,18,0,0,0,8.7,3.53h0a.05.05,0,0,0,0-.1A17.93,17.93,0,0,1,23,19.06c2,.13,4.64.28,6.73.35h0l1.89,0c3.15,2.85,12,3.59,12.12,3.6h0a.05.05,0,0,0,.05,0,.05.05,0,0,0,0-.06c-.09,0-8.77-.73-12-3.5h.43a23.53,23.53,0,0,1,3.71.34c1.26.18,2.69.38,4.45.46,1,0,2.18.05,3.48,0h0A17.35,17.35,0,0,0,48,21a11.47,11.47,0,0,0,3.64-.36,0,0,0,0,0,0-.06.05.05,0,0,0-.06,0,14.94,14.94,0,0,1-7.53-.29l1-.07a27.24,27.24,0,0,0,11.48-3.67.05.05,0,0,0,0-.07.05.05,0,0,0-.07,0s-.46.3-1.25.71h0c-3.15.78-7-.36-7.87-.62.86-.15,1.69-.33,2.44-.54,2.94-.81,6-1.6,7.69-1.55a.05.05,0,0,0,.05,0,0,0,0,0,0,0-.05,15.81,15.81,0,0,0-3.47.47h0c-.07,0-6.83.35-9.16-.07,2.51-1.15,8-1.79,8.08-1.8a.05.05,0,0,0,0-.06.05.05,0,0,0-.06,0c-.06,0-5.79.67-8.25,1.87-1.7.83-4.72,1-6.92,1.09a22.36,22.36,0,0,0-2.36.18c-.24,0-.53.08-.87.12a14.52,14.52,0,0,1,3.57-1.74.05.05,0,1,0,0-.1A14.27,14.27,0,0,0,34.41,16a.05.05,0,0,0,0,0c-2,.2-5.17.3-5.21.3a22.17,22.17,0,0,0-3.09.19l-.55.09a17.42,17.42,0,0,1-2.33.26,34.77,34.77,0,0,1-3.7-.14.05.05,0,1,0,0,.1s.86.08,1.83.12c.65,0,1.35,0,1.89,0a17.48,17.48,0,0,0,2.34-.26l.55-.09a22,22,0,0,1,3.07-.18s4.63-.14,6.26-.44a22.37,22.37,0,0,1,2.35-.18c2.21-.11,5.22-.25,6.95-1.09a12.84,12.84,0,0,0,1.91.2c2.33.11,5.58,0,6.86-.07-1.18.27-2.45.62-3.7,1a33.2,33.2,0,0,1-4.23.81h0c-2.12.29-4.28.46-5.94.58l-.31,0a31.21,31.21,0,0,1-4.1-.11,38.21,38.21,0,0,0-7.22,0,62.42,62.42,0,0,1-8.7.35A.05.05,0,0,0,19.25,17.54Zm19,2.44a18.27,18.27,0,0,1,7.36-3.23c.54-.07,1.08-.15,1.6-.24h0a19.89,19.89,0,0,0,5,.94A11.28,11.28,0,0,0,55,17.26a27.66,27.66,0,0,1-9.86,2.79A35.8,35.8,0,0,1,38.22,20Zm-13.5-2.45c1.06-.06,2.19-.15,3.29-.28a38.21,38.21,0,0,1,7.2,0,31.34,31.34,0,0,0,4.11.11l.31,0c1.44-.11,3.25-.25,5.09-.48a17.2,17.2,0,0,0-6.62,3.08v0c-.79-.09-1.5-.19-2.17-.28a23.58,23.58,0,0,0-3.73-.34c-.64,0-1.51,0-2.5,0A18.46,18.46,0,0,1,24.72,17.53Z"/><path class="cls-105" d="M14.72,19.68s-.13-.52.06-.47.64,2.09,1.63,2.62-.36,1.06-1-.4S14.72,19.68,14.72,19.68Z"/><ellipse class="cls-120" cx="10" cy="19.53" rx="1.43" ry="2.33" transform="translate(-4.78 3.31) rotate(-15.23)"/><ellipse class="cls-121" cx="10.05" cy="19.43" rx="1.29" ry="2.34" transform="translate(-4.75 3.32) rotate(-15.22)"/><path class="cls-122" d="M9.78,19.22a2.83,2.83,0,0,0-.89.65l0-.09c-.32-1.17-.05-2.27.59-2.44s1.43.63,1.75,1.81c0,.07,0,.15.05.22A1.48,1.48,0,0,0,9.78,19.22Z"/><path class="cls-123" d="M8.86,19.78c.32,1.17,1.1,2,1.75,1.81s.91-1.27.59-2.44-1.1-2-1.75-1.81S8.54,18.61,8.86,19.78Zm.77-2.11c.53-.13,1.17.47,1.44,1.35s.05,1.69-.48,1.81-1.17-.47-1.44-1.35S9.1,17.81,9.63,17.68Z"/><ellipse class="cls-124" cx="10.31" cy="18.64" rx="0.31" ry="0.57" transform="translate(-5.33 4.18) rotate(-18.29)"/><ellipse class="cls-124" cx="10.71" cy="19.75" rx="0.14" ry="0.26" transform="translate(-5.68 4.38) rotate(-18.36)"/><path class="cls-125" d="M22.89,21.21s-1.66-.64-1.73,0a3.48,3.48,0,0,1-.68,1.8c-.33.33.6.77,1.78.8s2.48-1.12,2-1.75A3.07,3.07,0,0,0,22.89,21.21Z"/><g class="cls-69"><path class="cls-126" d="M20.05,16l1,0a1.42,1.42,0,0,0-.91,1.09c-.15,1.12,16.08,4.29,26.23,1.8,9.32-2.28,9.4-5.62,5.46-6.12,2.63-.06,4.59.14,5.32.74,1.92,1.57-3.43,6.59-8.47,8.5s-15.19,1.09-20,.15-8.34-2-8.34-2S18.24,17.68,20.05,16Z"/></g><g class="cls-127"><path class="cls-126" d="M21.15,18.78c1.3.67,7.51,2.39,16.53,3.07s16.43-3.64,18-6.32c1.06-1.83-.37-2.5-1.4-2.73a5.67,5.67,0,0,1,2.92.71c1.92,1.57-3.43,6.59-8.47,8.5s-15.19,1.09-20,.15-8.34-2-8.34-2-1.89-2.12-.7-3.74v0C19.75,18.11,19.85,18.11,21.15,18.78Z"/></g><path class="cls-96" d="M22.41,16.73s-.16-.28.87-.37,6.47-.62,9.14-.91,9.75-1.56,12.22-1.79,8.26-.95,8,.54-6.37,4.2-13.12,4.23a96.2,96.2,0,0,1-13.91-.82C23.34,17.28,22.08,17.19,22.41,16.73Z"/><path class="cls-128" d="M.48,35.3s-.21-.3.45-.59,5.14-1,5.26-1,.38.17,0,.34-4.61.84-5,1.1S.48,35.57.48,35.3Z"/><path class="cls-129" d="M19.2,23.65s.55-.37.82,0,.18,1.34-1.31,1.87a57.78,57.78,0,0,1-7.88,1.53.37.37,0,0,1-.34-.37c0-.34,4.76-.9,6.12-1.44A10.47,10.47,0,0,0,19.2,23.65Z"/><path class="cls-130" d="M10,26.84s.3-.26.49,0-.27.67-.94,1.81-3,5.27-3.19,5.24-.25-.13,0-.53Z"/><path class="cls-131" d="M6.94,32.36c.43-.6.87-1.18,1.27-1.78s.85-1.27,1.23-1.93a7.73,7.73,0,0,1,1.11-1.56,13.47,13.47,0,0,1-1,1.6c-.67,1.14-3,5.27-3.19,5.24s-.25-.13,0-.53Z"/><path class="cls-132" d="M22,25.08s-.11-.5,1.25-.91,2.9-.84,3.35-1,.66.83-.56,1.46S21.82,26.08,22,25.08Z"/><path class="cls-133" d="M25.87,24.41a.81.81,0,0,1,.54-1s.29-.07.41.63.86,4.69,1.18,6.11.69,2,.51,2.21-.45.87-.54.52S26.77,27.45,26.32,26A9.69,9.69,0,0,1,25.87,24.41Z"/><path class="cls-134" d="M50.27,30.45s-.16-.6.27-.58A10.69,10.69,0,0,1,55,32.17c1.37,1.36,0,1.09-.49.62a10,10,0,0,0-2.68-1.66C50.7,30.67,50.37,30.78,50.27,30.45Z"/><path class="cls-135" d="M50.54,29.86a3.47,3.47,0,0,1,.7.18c-.18.33.61.78,1,1a7.09,7.09,0,0,1,2.85,2.11,1.59,1.59,0,0,1-.6-.33,10,10,0,0,0-2.68-1.66c-1.1-.46-1.43-.36-1.54-.69C50.27,30.45,50.11,29.84,50.54,29.86Z"/><path class="cls-136" d="M40.7,10.26a1.15,1.15,0,0,1,.62,1.44c-.32.8.4.81.47,1.5s.74.62.81,1.29.27.81.44.89a1.65,1.65,0,0,1,.56,1.23c-.07.46.63.85.58,1.25s.34.48.38,1.17.64.52.49.92.47.43.35.76-.11.66.46,1.12.15.53.9,1.25,2.43,4.89,3,6.1.77,1,1,.59S45.16,17.85,45,17.25,41.22,9.18,41,9s-.38.17-.38.17S40.18,9.9,40.7,10.26Z"/><path class="cls-137" d="M20.7,25.26l-.09-.08c-.18-.21-.44-.78,1.38-1.39.65-.22.66-.23,1.46-.55,0,0,13.6-13.18,17.17-14.14,0,0,.2,0,.09.36S25.83,23.71,25.83,23.71a1.59,1.59,0,0,1-.81.47C24.44,24.36,21.58,25.69,20.7,25.26Z"/><g class="cls-69"><path class="cls-138" d="M21.43,24l-.12.15c-1.11,1.24,3.19.35,7.74-4.86A58.91,58.91,0,0,1,40.31,9.91c-2.38,2.42-14.47,13.8-14.47,13.8a1.59,1.59,0,0,1-.81.47c-.59.18-3.44,1.51-4.33,1.08l-.09-.08C20.45,25,20.24,24.52,21.43,24Z"/></g><g class="cls-71"><path class="cls-139" d="M25.86,24.19s.21-.5.44,0a50.64,50.64,0,0,1,1.15,5s.45,2.39.55,2.48.25.54.32-.36v0c.19.6.31.9.19,1s-.45.87-.54.52S26.77,27.45,26.32,26a9.69,9.69,0,0,1-.45-1.64,1,1,0,0,1,0-.17Z"/></g><path class="cls-140" d="M28.23,32.37s.27-.35.89.33,2.23,2.32,2.47,2.57.22.68-.41.36a22.25,22.25,0,0,1-3.07-2.55C28.06,32.95,27.79,32.61,28.23,32.37Z"/><path class="cls-141" d="M28.23,32.37a.29.29,0,0,1,.22-.09.91.91,0,0,0,.27.76,2.3,2.3,0,0,0,.74.88,9.63,9.63,0,0,1,2.21,1.78c-.07.06-.23.06-.5-.07a22.25,22.25,0,0,1-3.07-2.55C28.06,32.95,27.79,32.61,28.23,32.37Z"/><g class="cls-75"><path class="cls-142" d="M11,26.49c.08.13.58.15,3-.32s4.54-.86,5.47-1.69c.63-.56.44-.85.26-1a.4.4,0,0,1,.33.19c.27.41.18,1.34-1.31,1.87a57.78,57.78,0,0,1-7.88,1.53.37.37,0,0,1-.34-.37C10.49,26.65,10.67,26.57,11,26.49Z"/></g><path class="cls-143" d="M.67,35.09A3.83,3.83,0,0,1,2,34.62c.93-.21,2.68-.49,2.68-.49s-3.33.56-3.8,1C.84,35.11.62,35.24.67,35.09Z"/><path class="cls-144" d="M10.15,26.94s.15,0,.07.14S8.3,30.27,8.3,30.27Z"/><path class="cls-145" d="M16.62,25.44a8.63,8.63,0,0,0,1.89-1.05c.67-.57,1.16-.83,1-.43A5.1,5.1,0,0,1,16.62,25.44Z"/><path class="cls-146" d="M24,23s9-8.15,10.11-9.09c0,0-5.71,5.23-6.87,6.41S23.16,24,24,23Z"/><path class="cls-147" d="M26.27,23.85a5.53,5.53,0,0,1,.58,1.88c.24,1.38.78,3.82.78,3.82s-1-5.12-1.1-5.62S26.19,23.72,26.27,23.85Z"/><path class="cls-148" d="M28.64,32.68a11.48,11.48,0,0,0,1.61,1.56C31,34.79,28.39,32.25,28.64,32.68Z"/><path class="cls-149" d="M40.6,9.19s.15-.33.38-.17a14.31,14.31,0,0,1,.85,1.61,1.58,1.58,0,0,0,.07.84c.45,1.28-.14.81.4,1.69s1.25,1.69,1.29,2.38.59,1.22,1,2.06A7.21,7.21,0,0,0,45.74,20c.59.5.22,1.2,1,2.09s.61.81,1.29,2.38,2,4.49,2,4.49.39.39.44,0a2.15,2.15,0,0,1,.24.78c-.22.36-.44.63-1-.59s-2.24-5.39-3-6.1-.33-.79-.9-1.25-.58-.79-.46-1.12-.5-.36-.35-.76-.45-.23-.49-.92-.42-.76-.38-1.17-.65-.8-.58-1.25A1.65,1.65,0,0,0,43,15.38c-.18-.08-.37-.22-.44-.89s-.74-.6-.81-1.29-.79-.7-.47-1.5a1.15,1.15,0,0,0-.62-1.44C40.18,9.9,40.6,9.19,40.6,9.19Z"/><path class="cls-150" d="M42.46,12.51l2.73,5.73S43.19,14.41,42.46,12.51Z"/><path class="cls-151" d="M51.7,30.48A12.46,12.46,0,0,1,55,32.68S54.32,31.27,51.7,30.48Z"/><path class="cls-96" d="M53.57,20.42s.29-.09.14.24a11,11,0,0,1-3.31,2.43A4.75,4.75,0,0,1,53.57,20.42Z"/><path class="cls-58" d="M29,.72a16,16,0,0,1-5.79.78S29,1.51,29,.72Z"/></g></g></svg>