<svg id="Layer_1" data-name="Layer 1" xmlns="http://www.w3.org/2000/svg" xmlns:xlink="http://www.w3.org/1999/xlink" viewBox="0 0 144 228.71"><defs><style>.cls-1{fill:url(#linear-gradient);}.cls-2{fill:url(#linear-gradient-2);}.cls-3{fill:url(#linear-gradient-3);}.cls-4{fill:url(#linear-gradient-4);}.cls-5{fill:url(#Neutral_4);}.cls-6{fill:url(#linear-gradient-5);}.cls-7{opacity:0.59;}.cls-8{fill:url(#linear-gradient-6);}.cls-9{fill:url(#Neutral_4-2);}.cls-10{fill:url(#linear-gradient-7);}.cls-11{fill:url(#linear-gradient-8);}.cls-12{fill:url(#Neutral_4-3);}.cls-13{fill:url(#Neutral_4-4);}.cls-14{mask:url(#mask);}.cls-15{fill:#7f7f7f;}.cls-16{fill:#bbbcbe;opacity:0.27;}.cls-17{mask:url(#mask-2);}.cls-18,.cls-21,.cls-23,.cls-28,.cls-42,.cls-45{fill:#fff;}.cls-18{opacity:0.54;}.cls-19{fill:#595b5c;}.cls-20{mask:url(#mask-3);}.cls-22{fill:#6b6d6f;}.cls-23{opacity:0.51;}.cls-24{mask:url(#mask-4);}.cls-25{fill:#aaadb0;}.cls-26{mask:url(#mask-5);}.cls-27{fill:#7d7f81;}.cls-28{opacity:0.16;}.cls-29{fill:#797c7e;}.cls-29,.cls-45{opacity:0.71;}.cls-30{fill:#aeafb0;}.cls-31{fill:#e1e2e3;opacity:0.66;}.cls-32{mask:url(#mask-6);}.cls-33{mask:url(#mask-7);}.cls-34{fill:#a5a7aa;}.cls-35{fill:#b4b6b8;}.cls-36{mask:url(#mask-8);}.cls-37{fill:url(#linear-gradient-9);}.cls-38{mask:url(#mask-9);}.cls-39{fill:#d6d6d6;}.cls-40{mask:url(#mask-10);}.cls-41{mask:url(#mask-11);}.cls-42{opacity:0.32;}.cls-43{fill:#a16733;}.cls-44{mask:url(#mask-12);}.cls-46{fill:#ba773b;}.cls-47{fill:#3c140d;}.cls-48{fill:url(#linear-gradient-10);}.cls-49{fill:url(#linear-gradient-11);}.cls-50{fill:url(#linear-gradient-12);}.cls-51{fill:url(#linear-gradient-13);}.cls-52{fill:url(#linear-gradient-14);}.cls-53{fill:url(#linear-gradient-15);}.cls-54{fill:url(#linear-gradient-16);}.cls-55{fill:url(#linear-gradient-17);}.cls-56{fill:url(#linear-gradient-18);}.cls-57{fill:url(#linear-gradient-19);}.cls-58{fill:url(#linear-gradient-20);}.cls-59{fill:#5b3411;}.cls-60{fill:url(#linear-gradient-21);}.cls-61{fill:url(#linear-gradient-22);}.cls-62{fill:url(#linear-gradient-23);}.cls-63{fill:url(#linear-gradient-24);}.cls-64{fill:url(#linear-gradient-25);}.cls-65{fill:url(#linear-gradient-26);}.cls-66{fill:url(#linear-gradient-27);}.cls-67{fill:url(#linear-gradient-28);}.cls-68{fill:url(#linear-gradient-29);}.cls-69{fill:url(#linear-gradient-30);}.cls-70{fill:url(#linear-gradient-31);}.cls-71{fill:#d96e4c;}</style><linearGradient id="linear-gradient" y1="114.65" x2="144" y2="114.65" gradientUnits="userSpaceOnUse"><stop offset="0.05" stop-color="#fff"/><stop offset="0.09" stop-color="#fafafa"/><stop offset="0.13" stop-color="#ececec"/><stop offset="0.18" stop-color="#d5d5d5"/><stop offset="0.22" stop-color="#b4b4b4"/><stop offset="0.27" stop-color="#8a8a8a"/><stop offset="0.32" stop-color="#575757"/><stop offset="0.46"/><stop offset="0.55"/><stop offset="0.61" stop-color="#232222"/><stop offset="0.69" stop-color="#4e4c4b"/><stop offset="0.93" stop-color="#fff"/></linearGradient><linearGradient id="linear-gradient-2" x1="60.21" y1="121.8" x2="136.35" y2="121.8" gradientUnits="userSpaceOnUse"><stop offset="0.03"/><stop offset="1" stop-color="#fff"/></linearGradient><linearGradient id="linear-gradient-3" x1="-633.99" y1="30.11" x2="-590.03" y2="30.11" gradientTransform="matrix(-1, 0, 0, 1, -569.61, 0)" gradientUnits="userSpaceOnUse"><stop offset="0.07"/><stop offset="0.88" stop-color="#fff"/><stop offset="0.99"/></linearGradient><linearGradient id="linear-gradient-4" x1="74.06" y1="22.49" x2="116.57" y2="22.49" gradientUnits="userSpaceOnUse"><stop offset="0.03"/><stop offset="0.89" stop-color="#fff"/><stop offset="1"/></linearGradient><linearGradient id="Neutral_4" x1="99.4" y1="124.79" x2="132.91" y2="124.79" gradientUnits="userSpaceOnUse"><stop offset="0.03" stop-color="#231f20"/><stop offset="1" stop-color="#fff"/></linearGradient><linearGradient id="linear-gradient-5" x1="116.28" y1="124.79" x2="126.34" y2="124.79" gradientUnits="userSpaceOnUse"><stop offset="0.03" stop-color="gray"/><stop offset="0.72" stop-color="#fff"/></linearGradient><linearGradient id="linear-gradient-6" x1="102.11" y1="173.75" x2="102.11" y2="187.85" gradientUnits="userSpaceOnUse"><stop offset="0.28"/><stop offset="0.39" stop-color="#030303"/><stop offset="0.49" stop-color="#0e0e0e"/><stop offset="0.57" stop-color="#1f1f1f"/><stop offset="0.66" stop-color="#373737"/><stop offset="0.73" stop-color="#575757"/><stop offset="0.81" stop-color="#7d7d7d"/><stop offset="0.89" stop-color="#ababab"/><stop offset="0.96" stop-color="#dfdfdf"/><stop offset="1" stop-color="#fff"/></linearGradient><linearGradient id="Neutral_4-2" x1="75.19" y1="46.38" x2="119.39" y2="46.38" xlink:href="#Neutral_4"/><linearGradient id="linear-gradient-7" x1="-653.4" y1="121.8" x2="-577.26" y2="121.8" gradientTransform="matrix(-1, 0, 0, 1, -569.61, 0)" xlink:href="#linear-gradient-2"/><linearGradient id="linear-gradient-8" x1="-611.51" y1="173.75" x2="-611.51" y2="187.85" gradientTransform="matrix(-1, 0, 0, 1, -569.61, 0)" xlink:href="#linear-gradient-6"/><linearGradient id="Neutral_4-3" x1="81.77" y1="190.68" x2="125.98" y2="190.68" xlink:href="#Neutral_4"/><linearGradient id="Neutral_4-4" x1="-86.44" y1="16.86" x2="-65.87" y2="16.86" gradientTransform="translate(-52.01 141.65) rotate(180)" xlink:href="#Neutral_4"/><mask id="mask" x="0" y="41.46" width="144" height="146.39" maskUnits="userSpaceOnUse"><path class="cls-1" d="M126.16,56.42c-.83-1.21-1.91-15-1.91-15H19.75s-1.08,13.76-1.91,15C14.64,61.05,0,62.44,0,74.1V182.67c0,2.86,2.85,5.18,6.37,5.18H137.63c3.52,0,6.37-2.32,6.37-5.18V74.1C144,62.44,129.36,61.05,126.16,56.42Z"/></mask><mask id="mask-2" x="60.21" y="55.69" width="76.14" height="132.16" maskUnits="userSpaceOnUse"><path class="cls-2" d="M118.52,56.42c-.83-1.21-56.36-.43-56.36-.43l-1.94-.13v132H130c3.52,0,6.37-2.32,6.37-5.18V74.1C136.35,62.44,121.71,61.05,118.52,56.42Z"/></mask><mask id="mask-3" x="99.4" y="69.7" width="33.52" height="110.18" maskUnits="userSpaceOnUse"><path class="cls-5" d="M132.91,174.69c0,2.86-2.85,5.18-6.37,5.18H105.77c-3.52,0-6.37-2.32-6.37-5.18V74.88c0-2.86,2.85-5.18,6.37-5.18h20.77c3.52,0,6.37,2.32,6.37,5.18Z"/></mask><mask id="mask-4" x="113.73" y="69.7" width="15.93" height="110.18" maskUnits="userSpaceOnUse"><path class="cls-6" d="M126.34,174.69c0,2.86-.86,5.18-1.91,5.18H118.2c-1.06,0-1.91-2.32-1.91-5.18V74.88c0-2.86.86-5.18,1.91-5.18h6.24c1.06,0,1.91,2.32,1.91,5.18Z"/></mask><mask id="mask-5" x="60.21" y="173.75" width="83.79" height="14.1" maskUnits="userSpaceOnUse"><g class="cls-7"><path class="cls-8" d="M143.85,174.67c0,2.86-3.14,10.36-7,10.36,0,0-37-3.38-76.63-3.38v6.2H137c3.87,0,7-2.32,7-5.18v-8.92A6,6,0,0,0,143.85,174.67Z"/></g></mask><mask id="mask-6" x="75.19" y="45.43" width="44.21" height="1.9" maskUnits="userSpaceOnUse"><path class="cls-9" d="M119.39,46.38c0-.52-.61-1-1.36-1H76.55c-.75,0-1.36.43-1.36,1s.61,1,1.36,1H118C118.78,47.33,119.39,46.9,119.39,46.38Z"/></mask><mask id="mask-7" x="7.65" y="55.69" width="76.14" height="132.16" maskUnits="userSpaceOnUse"><path class="cls-10" d="M25.48,56.42c.83-1.21,56.36-.43,56.36-.43l1.94-.13v132H14c-3.52,0-6.37-2.32-6.37-5.18V74.1C7.65,62.44,22.29,61.05,25.48,56.42Z"/></mask><mask id="mask-8" x="0" y="173.75" width="83.79" height="14.1" maskUnits="userSpaceOnUse"><g class="cls-7"><path class="cls-11" d="M.15,174.67c0,2.86,3.14,10.36,7,10.36,0,0,37-3.38,76.63-3.38v6.2H7c-3.87,0-7-2.32-7-5.18v-8.92A6,6,0,0,1,.15,174.67Z"/></g></mask><linearGradient id="linear-gradient-9" x1="72" y1="187.85" x2="72" y2="189.06" gradientUnits="userSpaceOnUse"><stop offset="0" stop-color="#5e5e5e"/><stop offset="1" stop-color="#a5a7aa"/></linearGradient><mask id="mask-9" x="81.77" y="190.02" width="44.21" height="1.33" maskUnits="userSpaceOnUse"><path class="cls-12" d="M126,190.68c0-.37-.61-.66-1.36-.66H83.13c-.75,0-1.36.3-1.36.66s.61.66,1.36.66h41.49C125.37,191.35,126,191,126,190.68Z"/></mask><mask id="mask-10" x="13.86" y="69.7" width="20.57" height="110.18" maskUnits="userSpaceOnUse"><path class="cls-13" d="M13.86,74.88c0-2.86,1.75-5.18,3.91-5.18H30.53c2.16,0,3.91,2.32,3.91,5.18v99.81c0,2.86-1.75,5.18-3.91,5.18H17.77c-2.16,0-3.91-2.32-3.91-5.18Z"/></mask><mask id="mask-11" x="20.42" y="29.59" width="43.96" height="1.05" maskUnits="userSpaceOnUse"><path class="cls-3" d="M64.37,30.11a.59.59,0,0,1-.64.52H21.05a.59.59,0,0,1-.64-.52h0a.59.59,0,0,1,.64-.52H63.74a.59.59,0,0,1,.64.52Z"/></mask><mask id="mask-12" x="74.06" y="21.65" width="42.51" height="1.68" maskUnits="userSpaceOnUse"><path class="cls-4" d="M74.06,22.49c0,.46.28.84.62.84H116c.34,0,.62-.38.62-.84h0c0-.46-.28-.84-.62-.84H74.68c-.34,0-.62.38-.62.84Z"/></mask><linearGradient id="linear-gradient-10" x1="93.32" y1="129.48" x2="132.74" y2="129.48" gradientUnits="userSpaceOnUse"><stop offset="0" stop-color="#cd2727"/><stop offset="1" stop-color="#b82625"/></linearGradient><linearGradient id="linear-gradient-11" x1="67.64" y1="127.43" x2="93.7" y2="127.43" gradientUnits="userSpaceOnUse"><stop offset="0" stop-color="#b82625"/><stop offset="0.06" stop-color="#bd2925"/><stop offset="0.42" stop-color="#d83924"/><stop offset="0.75" stop-color="#e84323"/><stop offset="1" stop-color="#ee4623"/></linearGradient><linearGradient id="linear-gradient-12" x1="96.23" y1="118.38" x2="103.34" y2="98.84" gradientUnits="userSpaceOnUse"><stop offset="0" stop-color="#b82625"/><stop offset="1" stop-color="#7e2518"/></linearGradient><linearGradient id="linear-gradient-13" x1="93.52" y1="100.01" x2="108.23" y2="100.01" gradientUnits="userSpaceOnUse"><stop offset="0.01" stop-color="#b82625"/><stop offset="0.36" stop-color="#ee4623"/><stop offset="0.69" stop-color="#b82625"/><stop offset="1" stop-color="#7e2518"/></linearGradient><linearGradient id="linear-gradient-14" x1="99.96" y1="98.5" x2="101.93" y2="93.1" xlink:href="#linear-gradient-12"/><linearGradient id="linear-gradient-15" x1="73.93" y1="103.6" x2="89.31" y2="103.6" xlink:href="#linear-gradient-13"/><linearGradient id="linear-gradient-16" x1="80.55" y1="102.05" x2="82.72" y2="96.11" xlink:href="#linear-gradient-12"/><linearGradient id="linear-gradient-17" x1="109.29" y1="105.93" x2="124.99" y2="105.93" xlink:href="#linear-gradient-13"/><linearGradient id="linear-gradient-18" x1="116.23" y1="104.32" x2="118.3" y2="98.63" xlink:href="#linear-gradient-12"/><linearGradient id="linear-gradient-19" x1="87.86" y1="109.34" x2="104.26" y2="109.34" xlink:href="#linear-gradient-13"/><linearGradient id="linear-gradient-20" x1="94.98" y1="107.69" x2="97.27" y2="101.39" xlink:href="#linear-gradient-12"/><linearGradient id="linear-gradient-21" x1="36.71" y1="128.59" x2="76.13" y2="128.59" gradientUnits="userSpaceOnUse"><stop offset="0" stop-color="#f5841f"/><stop offset="1" stop-color="#e97224"/></linearGradient><linearGradient id="linear-gradient-22" x1="11.02" y1="126.54" x2="37.08" y2="126.54" gradientUnits="userSpaceOnUse"><stop offset="0.01" stop-color="#e97224"/><stop offset="0.01" stop-color="#e97224"/><stop offset="0.3" stop-color="#f39817"/><stop offset="0.57" stop-color="#f9b30e"/><stop offset="0.82" stop-color="#fec308"/><stop offset="1" stop-color="#ffc906"/></linearGradient><linearGradient id="linear-gradient-23" x1="39.61" y1="117.49" x2="46.73" y2="97.95" gradientUnits="userSpaceOnUse"><stop offset="0" stop-color="#e97224"/><stop offset="1" stop-color="#a53b23"/></linearGradient><linearGradient id="linear-gradient-24" x1="36.9" y1="99.12" x2="51.62" y2="99.12" gradientUnits="userSpaceOnUse"><stop offset="0.01" stop-color="#e97224"/><stop offset="0.36" stop-color="#ffc906"/><stop offset="0.7" stop-color="#e97224"/><stop offset="1" stop-color="#a53b23"/></linearGradient><linearGradient id="linear-gradient-25" x1="43.35" y1="97.6" x2="45.32" y2="92.21" xlink:href="#linear-gradient-23"/><linearGradient id="linear-gradient-26" x1="17.32" y1="102.71" x2="32.7" y2="102.71" xlink:href="#linear-gradient-24"/><linearGradient id="linear-gradient-27" x1="23.94" y1="101.16" x2="26.1" y2="95.22" xlink:href="#linear-gradient-23"/><linearGradient id="linear-gradient-28" x1="52.68" y1="105.03" x2="68.37" y2="105.03" xlink:href="#linear-gradient-24"/><linearGradient id="linear-gradient-29" x1="59.61" y1="103.43" x2="61.69" y2="97.74" xlink:href="#linear-gradient-23"/><linearGradient id="linear-gradient-30" x1="31.24" y1="108.45" x2="47.65" y2="108.45" xlink:href="#linear-gradient-24"/><linearGradient id="linear-gradient-31" x1="38.37" y1="106.8" x2="40.66" y2="100.5" xlink:href="#linear-gradient-23"/></defs><title>landing-page-jar</title><g class="cls-14"><path class="cls-15" d="M126.16,56.42c-.83-1.21-1.91-15-1.91-15H19.75s-1.08,13.76-1.91,15C14.64,61.05,0,62.44,0,74.1V182.67c0,2.86,2.85,5.18,6.37,5.18H137.63c3.52,0,6.37-2.32,6.37-5.18V74.1C144,62.44,129.36,61.05,126.16,56.42Z"/></g><path class="cls-16" d="M121.07,56.42c-.83-1.21-1.91-15-1.91-15H24.85s-1.08,13.76-1.92,15c-3.2,4.63-17.84,6-17.84,17.68V182.67c0,2.86,2.85,5.18,6.37,5.18H132.53c3.52,0,6.37-2.32,6.37-5.18V74.1C138.9,62.44,124.26,61.05,121.07,56.42Z"/><g class="cls-17"><path class="cls-18" d="M118.52,56.42c-.83-1.21-46.52-.56-46.52-.56v132h58c3.52,0,6.37-2.32,6.37-5.18V74.1C136.35,62.44,121.71,61.05,118.52,56.42Z"/></g><path class="cls-19" d="M124.24,42.49h.09c-.06-.65-.09-1-.09-1H72v1Z"/><g class="cls-20"><path class="cls-21" d="M132.91,174.69c0,2.86-2.85,5.18-6.37,5.18H105.77c-3.52,0-6.37-2.32-6.37-5.18V74.88c0-2.86,2.85-5.18,6.37-5.18h20.77c3.52,0,6.37,2.32,6.37,5.18Z"/></g><path class="cls-22" d="M72,51.3h53.21c-.09-.62-.17-1.26-.25-1.9H72Z"/><path class="cls-23" d="M118.52,56.42a17.64,17.64,0,0,1-.86-4.34H101.73a17.68,17.68,0,0,0,.86,4.34c3.2,4.63,17.84,6,17.84,17.68V182.67c0,2.86-2.85,5.18-6.37,5.18H130c3.52,0,6.37-2.32,6.37-5.18V74.1C136.35,62.44,121.71,61.05,118.52,56.42Z"/><g class="cls-24"><path class="cls-21" d="M129.66,174.69c0,2.86-1.36,5.18-3,5.18h-9.87c-1.67,0-3-2.32-3-5.18V74.88c0-2.86,1.36-5.18,3-5.18h9.87c1.67,0,3,2.32,3,5.18Z"/></g><g class="cls-7"><path class="cls-25" d="M143.85,174.67c0,2.86-3.14,10.36-7,10.36,0,0-25.22-3.38-64.84-3.38v6.2h65c3.87,0,7-2.32,7-5.18v-8.92A6,6,0,0,0,143.85,174.67Z"/></g><g class="cls-26"><path class="cls-27" d="M143.85,174.67c0,2.86-3.14,10.36-7,10.36,0,0-25.22-3.38-64.84-3.38v6.2h65c3.87,0,7-2.32,7-5.18v-8.92A6,6,0,0,0,143.85,174.67Z"/></g><path class="cls-28" d="M114.43,185S100,183.21,72,183.21v3.35h42.53C117.27,186.55,117.17,185,114.43,185Z"/><path class="cls-29" d="M72,43.87h52.45l-.13-1.39H72Z"/><path class="cls-27" d="M126.5,43.81H72v5.56h54.5a2.8,2.8,0,0,0,0-5.56Z"/><path class="cls-30" d="M124.91,43.87H72V48.6h52.91a2.36,2.36,0,1,0,0-4.73Z"/><path class="cls-31" d="M121.16,44.65H72v3.76h49.16a1.89,1.89,0,1,0,0-3.76Z"/><g class="cls-32"><path class="cls-21" d="M119.39,46.38c0-.52-.61-1-1.36-1H76.55c-.75,0-1.36.43-1.36,1s.61,1,1.36,1H118C118.78,47.33,119.39,46.9,119.39,46.38Z"/></g><g class="cls-33"><path class="cls-18" d="M25.48,56.42c.83-1.21,46.52-.56,46.52-.56v132H14c-3.52,0-6.37-2.32-6.37-5.18V74.1C7.65,62.44,22.29,61.05,25.48,56.42Z"/></g><path class="cls-19" d="M19.76,42.49h-.09c.06-.65.09-1,.09-1H72v1Z"/><path class="cls-34" d="M7.56,187.85c.54,3.69,1.88,6.31,3.46,6.31H133c1.57,0,2.92-2.62,3.46-6.31Z"/><path class="cls-35" d="M10,189.65a3.6,3.6,0,0,0,3.35,2.4H130.7a3.6,3.6,0,0,0,3.35-2.4Z"/><path class="cls-22" d="M72,51.3H18.79c.09-.62.17-1.26.25-1.9H72Z"/><g class="cls-7"><path class="cls-25" d="M.15,174.67c0,2.86,3.14,10.36,7,10.36,0,0,25.22-3.38,64.84-3.38v6.2H7c-3.87,0-7-2.32-7-5.18v-8.92A6,6,0,0,1,.15,174.67Z"/></g><g class="cls-36"><path class="cls-27" d="M.15,174.67c0,2.86,3.14,10.36,7,10.36,0,0,25.22-3.38,64.84-3.38v6.2H7c-3.87,0-7-2.32-7-5.18v-8.92A6,6,0,0,1,.15,174.67Z"/></g><path class="cls-28" d="M29.57,185S44,183.21,72,183.21v3.35H29.47C26.73,186.55,26.83,185,29.57,185Z"/><path class="cls-29" d="M72,43.87H19.55c.05-.54.1-1,.13-1.39H72Z"/><path class="cls-37" d="M7.56,187.85A7.13,7.13,0,0,0,8,189.06H136a7.1,7.1,0,0,0,.43-1.21Z"/><path class="cls-27" d="M17.5,43.81H72v5.56H17.5a2.8,2.8,0,0,1,0-5.56Z"/><path class="cls-30" d="M19.09,43.87H72V48.6H19.09a2.36,2.36,0,1,1,0-4.73Z"/><path class="cls-31" d="M22.84,44.65H72v3.76H22.84a1.89,1.89,0,1,1,0-3.76Z"/><g class="cls-38"><path class="cls-39" d="M126,190.68c0-.37-.61-.66-1-.66H83.45c-1.07,0-1.68.3-1.68.66s.61.66,1.36.66h41.49C125.37,191.35,126,191,126,190.68Z"/></g><g class="cls-40"><path class="cls-21" d="M13.86,74.88c0-2.86,1.75-5.18,3.91-5.18H30.53c2.16,0,3.91,2.32,3.91,5.18v99.81c0,2.86-1.75,5.18-3.91,5.18H17.77c-2.16,0-3.91-2.32-3.91-5.18Z"/></g><path class="cls-23" d="M62.66,57H35.12a14.83,14.83,0,0,0-4.31,2.73,17.1,17.1,0,0,0-3.66,3.75H62.27A59,59,0,0,1,62.66,57Z"/><path class="cls-19" d="M123.93,42.71H124c-.06-.65-.09-1-.09-1H71.7v1.05Z"/><path class="cls-29" d="M71.7,44.11h52.44l-.13-1.4H71.7Z"/><path class="cls-19" d="M19.47,42.71h-.09c.06-.65.09-1,.09-1H71.7v1.05Z"/><path class="cls-29" d="M71.7,44.11H19.26c.05-.54.1-1,.13-1.4H71.7Z"/><g class="cls-41"><path class="cls-42" d="M64.37,30.11a.59.59,0,0,1-.64.52H21.05a.59.59,0,0,1-.64-.52h0a.59.59,0,0,1,.64-.52H63.74a.59.59,0,0,1,.64.52Z"/></g><path class="cls-43" d="M127.37,25.64H71.7v21h55.67c3.73,0,6.75-3.76,6.75-8.39V34C134.12,29.39,131.1,25.64,127.37,25.64Z"/><path class="cls-43" d="M124,26.69H71.7V45.56H124c3.54,0,6.41-3.38,6.41-7.55V34.23C130.42,30.07,127.55,26.69,124,26.69Z"/><g class="cls-44"><path class="cls-45" d="M74.06,22.49c0,.46.28.84.62.84H116c.34,0,.62-.38.62-.84h0c0-.46-.28-.84-.62-.84H74.68c-.34,0-.62.38-.62.84Z"/></g><path class="cls-43" d="M16,25.64H71.7v21H16c-3.73,0-6.75-3.76-6.75-8.39V34C9.28,29.39,12.3,25.64,16,25.64Z"/><path class="cls-43" d="M19.39,26.69H71.7V45.56H19.39C15.85,45.56,13,42.18,13,38V34.23C13,30.07,15.85,26.69,19.39,26.69Z"/><path class="cls-46" d="M117.2,21h-91c-3.23,0-5.84,4.56-5.84,10.18v5.09c0,5.62,2.62,10.18,5.84,10.18h91c3.23,0,5.84-4.56,5.84-10.18V31.15C123,25.52,120.43,21,117.2,21Z"/><polygon class="cls-47" points="131.1 139.01 68.14 134.13 68.49 135.09 93.32 150.93 130.38 140.24 131.1 139.01"/><polygon class="cls-48" points="132.74 109.54 131.1 139.01 93.32 149.42 93.7 117.46 132.74 109.54"/><polygon class="cls-49" points="93.7 117.46 93.32 149.42 68.14 134.13 67.64 105.45 93.7 117.46"/><polygon class="cls-50" points="132.74 109.54 93.7 117.46 67.64 105.45 104.48 99.35 132.74 109.54"/><path class="cls-51" d="M108.23,96l-.23,6.66a.65.65,0,0,1-.16.39,1.64,1.64,0,0,1-.45.37,4.19,4.19,0,0,1-.75.33,8.93,8.93,0,0,1-1,.29,17.43,17.43,0,0,1-2.53.33,26,26,0,0,1-2.82,0,24.27,24.27,0,0,1-2.74-.28,13.81,13.81,0,0,1-2.3-.55,6.21,6.21,0,0,1-.75-.31,3.09,3.09,0,0,1-.53-.33,1.31,1.31,0,0,1-.31-.34.62.62,0,0,1-.1-.34l.14-6.66a.55.55,0,0,0,.1.31,1.26,1.26,0,0,0,.32.31,3.18,3.18,0,0,0,.53.31,6.62,6.62,0,0,0,.76.29,14.9,14.9,0,0,0,2.31.52,26.28,26.28,0,0,0,2.76.26c1,0,1.92,0,2.84,0a18.9,18.9,0,0,0,2.55-.3,9.57,9.57,0,0,0,1-.26,4.43,4.43,0,0,0,.75-.31,1.61,1.61,0,0,0,.45-.34A.58.58,0,0,0,108.23,96Z"/><path class="cls-52" d="M106.35,94.73a5,5,0,0,1,1.46.65c.31.23.45.47.41.7s-.26.46-.66.66a6.85,6.85,0,0,1-1.74.54,18.9,18.9,0,0,1-2.55.3c-.92.05-1.88.06-2.84,0a26.28,26.28,0,0,1-2.76-.26,14.9,14.9,0,0,1-2.31-.52,4.23,4.23,0,0,1-1.4-.68c-.28-.23-.37-.47-.28-.7a1.39,1.39,0,0,1,.77-.64,7.71,7.71,0,0,1,1.78-.51A19.67,19.67,0,0,1,98.72,94c.88,0,1.8,0,2.71,0s1.81.12,2.64.24A15.88,15.88,0,0,1,106.35,94.73Z"/><path class="cls-53" d="M89.31,99.18q-.06,3.48-.13,7a.76.76,0,0,1-.19.46,2,2,0,0,1-.54.44,5.06,5.06,0,0,1-.89.4,10.4,10.4,0,0,1-1.24.34,19.2,19.2,0,0,1-2.75.37,26.47,26.47,0,0,1-3,0,23.14,23.14,0,0,1-2.84-.3,12.25,12.25,0,0,1-2.3-.61,5.29,5.29,0,0,1-.67-.31,2.67,2.67,0,0,1-.47-.33,1.27,1.27,0,0,1-.28-.33.69.69,0,0,1-.09-.34q0-3.49,0-7a.6.6,0,0,0,.09.31,1.21,1.21,0,0,0,.28.31,2.77,2.77,0,0,0,.47.3,5.57,5.57,0,0,0,.67.29,13.09,13.09,0,0,0,2.32.57,25.2,25.2,0,0,0,2.85.28,29,29,0,0,0,3,0,21,21,0,0,0,2.77-.34,11.19,11.19,0,0,0,1.25-.32,5.23,5.23,0,0,0,.9-.37,1.93,1.93,0,0,0,.54-.41A.67.67,0,0,0,89.31,99.18Z"/><path class="cls-54" d="M87.62,97.9a4,4,0,0,1,1.39.71.67.67,0,0,1,.26.76,1.62,1.62,0,0,1-.86.73,8.56,8.56,0,0,1-2,.6,21,21,0,0,1-2.77.34,29,29,0,0,1-3,0,25.2,25.2,0,0,1-2.85-.28,13.09,13.09,0,0,1-2.32-.57,3.32,3.32,0,0,1-1.31-.74.61.61,0,0,1-.12-.77A2.05,2.05,0,0,1,75,98a9.59,9.59,0,0,1,2-.56,21.73,21.73,0,0,1,2.69-.31c.94-.05,1.92-.06,2.87,0a25.49,25.49,0,0,1,2.73.26A14.07,14.07,0,0,1,87.62,97.9Z"/><path class="cls-55" d="M125,101.82l-.35,7a.74.74,0,0,1-.15.4,1.6,1.6,0,0,1-.42.38,3.82,3.82,0,0,1-.7.35,7.85,7.85,0,0,1-1,.3,16,16,0,0,1-2.6.38,26.13,26.13,0,0,1-5.91-.28,15.66,15.66,0,0,1-2.53-.62,7.56,7.56,0,0,1-.91-.38,3.68,3.68,0,0,1-.64-.4,1.58,1.58,0,0,1-.38-.41.74.74,0,0,1-.11-.41h0l.25-7a.64.64,0,0,0,.12.38,1.52,1.52,0,0,0,.38.38,3.81,3.81,0,0,0,.65.37,7.94,7.94,0,0,0,.92.35,16.93,16.93,0,0,0,2.55.58,28.55,28.55,0,0,0,5.95.27,17.36,17.36,0,0,0,2.62-.35,8.29,8.29,0,0,0,1-.28,4,4,0,0,0,.7-.32,1.56,1.56,0,0,0,.43-.35A.65.65,0,0,0,125,101.82Z"/><path class="cls-56" d="M122.72,100.26a6.39,6.39,0,0,1,1.69.73c.38.26.58.52.58.78s-.17.52-.55.75a5.72,5.72,0,0,1-1.71.61,17.36,17.36,0,0,1-2.62.35,28.55,28.55,0,0,1-5.95-.27,16.93,16.93,0,0,1-2.55-.58,5.43,5.43,0,0,1-1.62-.76c-.34-.26-.49-.53-.45-.79s.27-.5.68-.73a6.61,6.61,0,0,1,1.76-.57,18.09,18.09,0,0,1,2.55-.31,28.58,28.58,0,0,1,5.68.25A17.77,17.77,0,0,1,122.72,100.26Z"/><path class="cls-57" d="M104.26,104.76l-.25,7.36a.88.88,0,0,1-.18.49,1.94,1.94,0,0,1-.51.46,4.63,4.63,0,0,1-.84.42,9.27,9.27,0,0,1-1.18.36,17.79,17.79,0,0,1-2.84.43,26,26,0,0,1-3.15,0,24.2,24.2,0,0,1-3.05-.33,13.83,13.83,0,0,1-2.55-.68,6.48,6.48,0,0,1-.82-.38,3.27,3.27,0,0,1-.58-.4,1.54,1.54,0,0,1-.34-.41.84.84,0,0,1-.11-.41q.07-3.68.14-7.37a.73.73,0,0,0,.11.38,1.47,1.47,0,0,0,.34.38,3.35,3.35,0,0,0,.58.37,6.83,6.83,0,0,0,.83.36,14.84,14.84,0,0,0,2.57.64,26.28,26.28,0,0,0,3.08.32,28.52,28.52,0,0,0,3.18,0,19.27,19.27,0,0,0,2.86-.39,10,10,0,0,0,1.19-.33,4.81,4.81,0,0,0,.85-.39,1.89,1.89,0,0,0,.51-.43A.77.77,0,0,0,104.26,104.76Z"/><path class="cls-58" d="M102.2,103.19a5.19,5.19,0,0,1,1.62.8.94.94,0,0,1,.44.87,1.35,1.35,0,0,1-.76.83,7.28,7.28,0,0,1-2,.68,19.27,19.27,0,0,1-2.86.39,28.52,28.52,0,0,1-3.18,0,26.28,26.28,0,0,1-3.08-.32,14.84,14.84,0,0,1-2.57-.64,4.34,4.34,0,0,1-1.53-.84.8.8,0,0,1-.28-.87,1.71,1.71,0,0,1,.89-.8,8.29,8.29,0,0,1,2-.64,20,20,0,0,1,2.78-.35,28.59,28.59,0,0,1,3,0,26.77,26.77,0,0,1,2.94.29A15.94,15.94,0,0,1,102.2,103.19Z"/><polygon class="cls-59" points="74.49 138.12 11.53 133.23 11.88 134.19 36.71 150.03 73.77 139.34 74.49 138.12"/><polygon class="cls-60" points="76.13 108.65 74.49 138.12 36.71 148.52 37.08 116.57 76.13 108.65"/><polygon class="cls-61" points="37.08 116.57 36.71 148.52 11.53 133.23 11.03 104.56 37.08 116.57"/><polygon class="cls-62" points="76.13 108.65 37.08 116.57 11.03 104.56 47.87 98.45 76.13 108.65"/><path class="cls-63" d="M51.62,95.12l-.23,6.66a.65.65,0,0,1-.16.39,1.64,1.64,0,0,1-.45.37,4.22,4.22,0,0,1-.75.33,8.86,8.86,0,0,1-1,.29,17.41,17.41,0,0,1-2.53.33,25.93,25.93,0,0,1-2.82,0,24.2,24.2,0,0,1-2.74-.28,13.81,13.81,0,0,1-2.3-.55,6.26,6.26,0,0,1-.76-.31,3.09,3.09,0,0,1-.53-.33,1.31,1.31,0,0,1-.31-.34.62.62,0,0,1-.1-.34L37,94.7a.54.54,0,0,0,.1.31,1.26,1.26,0,0,0,.31.31,3.14,3.14,0,0,0,.54.31,6.65,6.65,0,0,0,.76.29,15,15,0,0,0,2.31.52,26.32,26.32,0,0,0,2.76.26,28.33,28.33,0,0,0,2.84,0,18.94,18.94,0,0,0,2.55-.3,9.52,9.52,0,0,0,1-.26,4.43,4.43,0,0,0,.75-.31,1.62,1.62,0,0,0,.45-.34A.58.58,0,0,0,51.62,95.12Z"/><path class="cls-64" d="M49.74,93.83a5,5,0,0,1,1.46.65c.31.23.45.47.41.7s-.26.46-.66.66a6.85,6.85,0,0,1-1.74.54,18.94,18.94,0,0,1-2.55.3,28.33,28.33,0,0,1-2.84,0,26.32,26.32,0,0,1-2.76-.26,15,15,0,0,1-2.31-.52,4.24,4.24,0,0,1-1.4-.68c-.28-.23-.37-.47-.28-.7a1.39,1.39,0,0,1,.77-.64,7.74,7.74,0,0,1,1.78-.51,19.64,19.64,0,0,1,2.48-.28c.88,0,1.8,0,2.71,0s1.81.12,2.64.24A16,16,0,0,1,49.74,93.83Z"/><path class="cls-65" d="M32.7,98.29q-.06,3.48-.13,7a.76.76,0,0,1-.19.46,2,2,0,0,1-.54.44,5.06,5.06,0,0,1-.89.4,10.37,10.37,0,0,1-1.24.34,19.19,19.19,0,0,1-2.75.37,26.51,26.51,0,0,1-3,0,23.1,23.1,0,0,1-2.84-.3,12.19,12.19,0,0,1-2.3-.6,5.33,5.33,0,0,1-.67-.31,2.69,2.69,0,0,1-.47-.33,1.26,1.26,0,0,1-.28-.33.69.69,0,0,1-.09-.34q0-3.49,0-7a.6.6,0,0,0,.09.31,1.2,1.2,0,0,0,.28.31,2.77,2.77,0,0,0,.47.3,5.57,5.57,0,0,0,.67.29,13.11,13.11,0,0,0,2.32.57,25.19,25.19,0,0,0,2.85.28,29,29,0,0,0,3,0,21,21,0,0,0,2.77-.34,11.16,11.16,0,0,0,1.25-.31,5.26,5.26,0,0,0,.9-.37,1.94,1.94,0,0,0,.54-.41A.67.67,0,0,0,32.7,98.29Z"/><path class="cls-66" d="M31,97a4,4,0,0,1,1.39.71.67.67,0,0,1,.26.76,1.62,1.62,0,0,1-.86.73,8.53,8.53,0,0,1-2,.6,21,21,0,0,1-2.77.34,29,29,0,0,1-3,0,25.19,25.19,0,0,1-2.85-.28,13.11,13.11,0,0,1-2.32-.57,3.32,3.32,0,0,1-1.31-.74.61.61,0,0,1-.12-.77,2.06,2.06,0,0,1,1-.71,9.59,9.59,0,0,1,2-.56,21.67,21.67,0,0,1,2.69-.31c.94-.05,1.92-.06,2.87,0a25.45,25.45,0,0,1,2.73.26A14,14,0,0,1,31,97Z"/><path class="cls-67" d="M68.37,100.92l-.35,7a.74.74,0,0,1-.15.4,1.6,1.6,0,0,1-.42.38,3.83,3.83,0,0,1-.7.35,7.9,7.9,0,0,1-1,.3,16,16,0,0,1-2.6.38,25.41,25.41,0,0,1-3,0,25.13,25.13,0,0,1-2.94-.31,15.6,15.6,0,0,1-2.53-.62,7.61,7.61,0,0,1-.91-.38,3.71,3.71,0,0,1-.64-.4,1.58,1.58,0,0,1-.38-.41.74.74,0,0,1-.11-.41h0l.25-7a.64.64,0,0,0,.12.38,1.52,1.52,0,0,0,.38.38,3.83,3.83,0,0,0,.65.37,8,8,0,0,0,.92.36,16.87,16.87,0,0,0,2.55.58,28.52,28.52,0,0,0,5.95.27,17.3,17.3,0,0,0,2.62-.35,8.31,8.31,0,0,0,1-.28,4,4,0,0,0,.7-.32,1.57,1.57,0,0,0,.43-.35A.65.65,0,0,0,68.37,100.92Z"/><path class="cls-68" d="M66.1,99.37a6.39,6.39,0,0,1,1.69.73c.38.26.58.52.58.78s-.17.52-.55.75a5.73,5.73,0,0,1-1.71.61,17.3,17.3,0,0,1-2.62.35,28.52,28.52,0,0,1-5.95-.27,16.87,16.87,0,0,1-2.55-.58,5.44,5.44,0,0,1-1.62-.76c-.34-.26-.49-.53-.45-.79s.27-.5.68-.73a6.59,6.59,0,0,1,1.76-.57,18.15,18.15,0,0,1,2.55-.31,28.56,28.56,0,0,1,5.68.25A17.78,17.78,0,0,1,66.1,99.37Z"/><path class="cls-69" d="M47.65,103.87l-.25,7.36a.88.88,0,0,1-.18.49,1.93,1.93,0,0,1-.51.46,4.6,4.6,0,0,1-.84.42,9.27,9.27,0,0,1-1.18.36,17.76,17.76,0,0,1-2.84.43,26,26,0,0,1-3.15,0,24.15,24.15,0,0,1-3.05-.33,13.79,13.79,0,0,1-2.55-.68,6.43,6.43,0,0,1-.82-.38,3.31,3.31,0,0,1-.58-.4,1.55,1.55,0,0,1-.34-.41.84.84,0,0,1-.11-.41q.07-3.68.14-7.37a.73.73,0,0,0,.11.38,1.47,1.47,0,0,0,.34.38,3.33,3.33,0,0,0,.58.37,6.82,6.82,0,0,0,.83.36,14.86,14.86,0,0,0,2.57.64,26.31,26.31,0,0,0,3.08.32,28.52,28.52,0,0,0,3.18,0,19.32,19.32,0,0,0,2.86-.39,9.93,9.93,0,0,0,1.19-.33,4.77,4.77,0,0,0,.85-.39,1.89,1.89,0,0,0,.51-.43A.77.77,0,0,0,47.65,103.87Z"/><path class="cls-70" d="M45.58,102.29a5.19,5.19,0,0,1,1.62.8.94.94,0,0,1,.44.87,1.35,1.35,0,0,1-.76.83,7.27,7.27,0,0,1-2,.68,19.32,19.32,0,0,1-2.86.39,28.52,28.52,0,0,1-3.18,0,26.31,26.31,0,0,1-3.08-.32,14.86,14.86,0,0,1-2.57-.64,4.35,4.35,0,0,1-1.53-.84.8.8,0,0,1-.28-.87,1.71,1.71,0,0,1,.89-.8,8.28,8.28,0,0,1,2-.64,20,20,0,0,1,2.78-.35,28.55,28.55,0,0,1,3,0,26.66,26.66,0,0,1,2.94.29A15.93,15.93,0,0,1,45.58,102.29Z"/><path class="cls-71" d="M41.3,206.74h5.3a4.86,4.86,0,0,1,3.32,1,3.37,3.37,0,0,1,1.18,2.64q0,2.34-2.7,3.08a3.48,3.48,0,0,1,2.19,1.21,3.44,3.44,0,0,1,.83,2.27,3.27,3.27,0,0,1-1.24,2.63,5,5,0,0,1-3.32,1H41.3Zm2.28,1.78v4.12H46.4a2.6,2.6,0,0,0,1.75-.54,1.88,1.88,0,0,0,.63-1.51,1.91,1.91,0,0,0-.63-1.52,2.57,2.57,0,0,0-1.75-.55Zm0,10.34h3.08a2.66,2.66,0,0,0,1.82-.58,2,2,0,0,0,.66-1.61,2.07,2.07,0,0,0-.7-1.64,2.73,2.73,0,0,0-1.86-.61h-3Z"/><path class="cls-71" d="M53.9,220.64v-14.8h2.28v14.8Z"/><path class="cls-71" d="M64,220.82a5.36,5.36,0,0,1-4-1.57,5.59,5.59,0,0,1-1.56-4.12,5.62,5.62,0,1,1,11.24,0A5.44,5.44,0,0,1,68,219.24,5.64,5.64,0,0,1,64,220.82Zm2.37-2.92a4.4,4.4,0,0,0,0-5.55,3.17,3.17,0,0,0-2.35-1,3.07,3.07,0,0,0-2.32,1,3.88,3.88,0,0,0-.94,2.78,3.93,3.93,0,0,0,.92,2.78,3,3,0,0,0,2.29,1A3.24,3.24,0,0,0,66.34,217.9Z"/><path class="cls-71" d="M72.68,219.26a6.42,6.42,0,0,1,0-8.26,5.17,5.17,0,0,1,3.89-1.56,5.5,5.5,0,0,1,3.31,1,4.68,4.68,0,0,1,1.77,2.71H79.2a2.51,2.51,0,0,0-2.62-1.74,2.76,2.76,0,0,0-2.23,1,5.05,5.05,0,0,0,0,5.55,2.75,2.75,0,0,0,2.23,1,2.53,2.53,0,0,0,2.62-1.74h2.46a4.92,4.92,0,0,1-1.8,2.67,5.32,5.32,0,0,1-3.28,1A5.17,5.17,0,0,1,72.68,219.26Z"/><path class="cls-71" d="M86.22,220.64H83.94v-14.8h2.28v8.6l4-4.82h3.16l-5.08,5.52,5.08,5.5H90.3l-4.08-4.74Z"/><path class="cls-71" d="M94.52,212.78a3,3,0,0,1,1.18-2.37,4.73,4.73,0,0,1,3.1-1,4.59,4.59,0,0,1,3,1,3.44,3.44,0,0,1,1.21,2.59h-2.34a1.83,1.83,0,0,0-.57-1.28,2.06,2.06,0,0,0-1.43-.46,2.28,2.28,0,0,0-1.44.41,1.31,1.31,0,0,0-.52,1.08,1.16,1.16,0,0,0,.66,1,5.11,5.11,0,0,0,1.61.56q1,.18,1.9.44a3.44,3.44,0,0,1,1.61,1,2.56,2.56,0,0,1,.66,1.85,2.79,2.79,0,0,1-1.21,2.34,5.07,5.07,0,0,1-3.11.9,4.87,4.87,0,0,1-3.08-.92,3.45,3.45,0,0,1-1.3-2.62h2.36a1.77,1.77,0,0,0,.6,1.28,2.19,2.19,0,0,0,1.47.46,2.42,2.42,0,0,0,1.48-.41,1.29,1.29,0,0,0,.55-1.09,1.17,1.17,0,0,0-.66-1.06,5.31,5.31,0,0,0-1.61-.57q-1-.19-1.9-.44a3.48,3.48,0,0,1-1.61-.91A2.38,2.38,0,0,1,94.52,212.78Z"/><path class="cls-71" d="M47.09,17.07V4.49H45.45V2.87h3.42v14.2Z"/><path class="cls-71" d="M53.66,3.84a3.92,3.92,0,0,1,1.44-1,5.68,5.68,0,0,1,2.22-.38A4.82,4.82,0,0,1,59.66,3a3.72,3.72,0,0,1,1.55,1.59,11.43,11.43,0,0,1,1,5.16q0,4.16-1.48,5.9A4.44,4.44,0,0,1,57.17,17q-4.26,0-4.9-5a20.45,20.45,0,0,1-.12-2.33,18.62,18.62,0,0,1,.13-2.32,9.09,9.09,0,0,1,.48-2A5,5,0,0,1,53.66,3.84Zm6.24,2a2.53,2.53,0,0,0-1-1.32,2.92,2.92,0,0,0-1.63-.45,3.33,3.33,0,0,0-1.55.32,2.55,2.55,0,0,0-.95.82,4,4,0,0,0-.54,1.29A8.54,8.54,0,0,0,54,8q-.05.73-.05,1.73T54,11.48A8.54,8.54,0,0,0,54.23,13a4,4,0,0,0,.54,1.29,2.56,2.56,0,0,0,.95.82,3.45,3.45,0,0,0,2.9,0,2.65,2.65,0,0,0,1-.82,3.65,3.65,0,0,0,.53-1.3,12,12,0,0,0,.32-2.9,21.58,21.58,0,0,0-.11-2.5A8.29,8.29,0,0,0,59.9,5.84Z"/><path class="cls-71" d="M65.43,10.53V9h8v1.56Z"/><path class="cls-71" d="M76.41,16.87v-1.3l1.51-1.3,1.53-1.33,1.32-1.22A15.07,15.07,0,0,0,82,10.43q.43-.52.89-1.2a4.53,4.53,0,0,0,.86-2.53,3,3,0,0,0-.65-2,2.54,2.54,0,0,0-2-.76A2.67,2.67,0,0,0,79,4.78,3.55,3.55,0,0,0,78.15,7H76.41a4.79,4.79,0,0,1,1.35-3.45,5.15,5.15,0,0,1,6.56-.06,4.08,4.08,0,0,1,1.23,3.13,7.4,7.4,0,0,1-2.32,4.9q-.84.9-1.3,1.32-1.28,1.24-2.74,2.46H86v1.54Z"/><path class="cls-71" d="M89.7,3.84a3.92,3.92,0,0,1,1.44-1,5.68,5.68,0,0,1,2.22-.38A4.82,4.82,0,0,1,95.7,3a3.72,3.72,0,0,1,1.55,1.59,11.43,11.43,0,0,1,1,5.16q0,4.16-1.48,5.9A4.44,4.44,0,0,1,93.21,17q-4.26,0-4.9-5a20.45,20.45,0,0,1-.12-2.33,18.62,18.62,0,0,1,.13-2.32,9.09,9.09,0,0,1,.48-2A5,5,0,0,1,89.7,3.84Zm6.24,2a2.53,2.53,0,0,0-1-1.32,2.92,2.92,0,0,0-1.63-.45,3.33,3.33,0,0,0-1.55.32,2.55,2.55,0,0,0-.95.82,4,4,0,0,0-.54,1.29A8.54,8.54,0,0,0,90,8Q90,8.75,90,9.75T90,11.48A8.54,8.54,0,0,0,90.27,13a4,4,0,0,0,.54,1.29,2.56,2.56,0,0,0,.95.82,3.45,3.45,0,0,0,2.9,0,2.65,2.65,0,0,0,1-.82,3.65,3.65,0,0,0,.53-1.3,12,12,0,0,0,.32-2.9,21.58,21.58,0,0,0-.11-2.5A8.29,8.29,0,0,0,95.94,5.84Z"/></svg>