<?xml version="1.0" encoding="utf-8"?>
<svg version="1.1" id="Layer_1"  xmlns="http://www.w3.org/2000/svg"
     x="0px" y="0px" viewBox="0 0 55 250" enable-background="new -0.5 -0.5 55 250" xml:space="preserve">
<g id="rightLeaf">
    <g id="Scene_1_f6_3_">
        <g id="MovieClip_sprite_4_5_">
            <path style="fill:#00CC00;" d="M40.9,61.3V36.2C35.1,44.4,30,56,25.4,70.6c-4.4,13.8-7.3,28.4-8.7,43.6c-1.3,14.3-2,29-1.8,44
                c0.1,6.7,0.1,13.4,0.1,20.1c0.5-9.4,1.3-19.5,2.2-30.1c1.4-15.4,4.2-30.8,8.4-46C29.9,87.2,35,73.5,40.9,61.3"/>

                <path vector-effect="non-scaling-stroke" style="fill:none;stroke:#009900;stroke-width:0.9177;stroke-linecap:round;stroke-linejoin:round;" d="
                M25.4,70.7c4.6-14.6,9.8-26,15.5-34.4 M16.7,114.1c1.4-15.2,4.4-29.8,8.7-43.6 M14.9,158.1c-0.2-14.9,0.4-29.5,1.8-44 M15,178.2
                c0-6.7,0-13.4-0.1-20.1 M15,178.2v1.2 M17.3,148.2c-1,10.5-1.8,20.6-2.2,30.1 M25.7,102.1c-4.2,15.2-6.9,30.6-8.4,46 M40.9,61.3
                c-6,12.2-11.1,25.9-15.2,40.8 M40.9,36.2v25.1"/>
        </g>
        <g id="MovieClip_sprite_4_4_">
            <path style="fill:#00CC00;" d="M40.9,107.4V80.1c-5.8,9-10.9,21.5-15.5,37.4c-4.4,15-7.3,30.9-8.7,47.5
                c-1.3,15.6-2,31.6-1.8,47.8C15,220,15,227.3,15,234.6c0.5-10.3,1.3-21.1,2.2-32.5c1.4-16.8,4.2-33.6,8.4-50
                C29.9,135.6,35,120.8,40.9,107.4"/>

                <path vector-effect="non-scaling-stroke" style="fill:none;stroke:#009900;stroke-width:0.9177;stroke-linecap:round;stroke-linejoin:round;" d="
                M25.4,117.5c4.6-15.8,9.8-28.3,15.5-37.4 M16.7,165c1.4-16.5,4.4-32.4,8.7-47.5 M14.9,212.8c-0.2-16.2,0.4-32.1,1.8-47.8
                 M15,234.6c0-7.3,0-14.6-0.1-21.9 M15,234.6v1.4 M17.3,202.1c-1,11.5-1.8,22.4-2.2,32.5 M25.7,152.1c-4.2,16.5-6.9,33.2-8.4,50
                 M40.9,107.4c-6,13.3-11.1,28.1-15.2,44.5 M40.9,80.1v27.4"/>
        </g>
        <g id="MovieClip_sprite_4_3_">
            <path style="fill:#00CC00;" d="M41,26.1V1c-8.7,8.3-16.6,19.8-23.8,34.4C10.4,49.2,5.9,63.8,3.7,79c-2.1,14.3-3,29-2.7,44
                c0.1,6.7,0.2,13.4,0.2,20.1c0.8-9.4,2-19.4,3.4-30.1c2.1-15.4,6.4-30.8,12.8-46C23.9,52,31.8,38.3,41,26.1"/>

                <path vector-effect="non-scaling-stroke" style="fill:none;stroke:#009900;stroke-width:0.9443;stroke-linecap:round;stroke-linejoin:round;" d="
                M17.2,35.4C24.2,20.8,32.2,9.5,41,1 M3.7,78.9C6,63.7,10.5,49.1,17.2,35.3 M1.1,122.9c-0.4-14.9,0.5-29.5,2.7-44 M1.3,143
                c0-6.7-0.1-13.4-0.2-20.1 M1.3,143v1.2 M4.7,113c-1.4,10.5-2.7,20.6-3.4,30.1 M17.5,67C11.1,82.2,6.9,97.5,4.7,113 M41,26.1
                c-9.2,12.2-17.1,25.9-23.4,40.8 M41,1v25.1"/>
        </g>
    </g>
</g>
</svg>
