<svg id="Layer_1" data-name="Layer 1" xmlns="http://www.w3.org/2000/svg" xmlns:xlink="http://www.w3.org/1999/xlink" viewBox="0 0 62.65 62.65"><defs><style>.cls-1{fill:#73adff;}.cls-2{fill:#808184;}.cls-3{fill:url(#linear-gradient);}.cls-4{fill:#d4cedb;}.cls-5{fill:#000009;}.cls-6{fill:#bcdef7;}.cls-7{fill:url(#linear-gradient-2);}.cls-8,.cls-9{opacity:0.5;}.cls-8{fill:url(#linear-gradient-3);}.cls-9{fill:url(#linear-gradient-4);}.cls-10{fill:#ff7300;}</style><linearGradient id="linear-gradient" x1="9.33" y1="53.32" x2="52.39" y2="10.26" gradientUnits="userSpaceOnUse"><stop offset="0" stop-color="#babcbf" stop-opacity="0"/><stop offset="1" stop-color="#b8bcc1"/></linearGradient><linearGradient id="linear-gradient-2" x1="31.33" y1="4.07" x2="31.33" y2="52.18" gradientUnits="userSpaceOnUse"><stop offset="0" stop-color="#89b8e4" stop-opacity="0"/><stop offset="1" stop-color="#a0c3e4"/></linearGradient><linearGradient id="linear-gradient-3" x1="28.65" y1="28.74" x2="12.07" y2="10.57" gradientUnits="userSpaceOnUse"><stop offset="0" stop-color="#e2f3ff" stop-opacity="0.1"/><stop offset="1" stop-color="#e2f3ff"/></linearGradient><linearGradient id="linear-gradient-4" x1="36.51" y1="36.51" x2="59.07" y2="59.07" xlink:href="#linear-gradient-3"/></defs><title>left-icon-10</title><path class="cls-1" d="M31.33,58.35a27,27,0,1,1,27-27A27.05,27.05,0,0,1,31.33,58.35Z"/><path class="cls-2" d="M31.33,62.65A31.33,31.33,0,1,1,62.65,31.33,31.36,31.36,0,0,1,31.33,62.65Z"/><path class="cls-3" d="M31.33,62.65A31.33,31.33,0,1,1,62.65,31.33,31.36,31.36,0,0,1,31.33,62.65Z"/><path class="cls-4" d="M31.33,59.78A28.46,28.46,0,1,1,59.78,31.33,28.49,28.49,0,0,1,31.33,59.78Z"/><path class="cls-5" d="M31.33,59.3a28,28,0,1,1,28-28A28,28,0,0,1,31.33,59.3Z"/><path class="cls-6" d="M31.33,58.59A27.26,27.26,0,1,1,58.59,31.33,27.29,27.29,0,0,1,31.33,58.59Z"/><circle class="cls-7" cx="31.33" cy="31.33" r="26.78"/><path class="cls-8" d="M30.14,28.55V7.2A24.16,24.16,0,0,0,7.33,28.55Z"/><path class="cls-9" d="M47.17,13.09A24.15,24.15,0,0,1,13.09,47.17,24.15,24.15,0,1,0,47.17,13.09Z"/><path class="cls-10" d="M27.27,14.85h8.1a0,0,0,0,1,0,0V27.09a2.59,2.59,0,0,1-2.59,2.59H29.86a2.59,2.59,0,0,1-2.59-2.59V14.85A0,0,0,0,1,27.27,14.85Z"/><polygon class="cls-10" points="31.32 6.67 42.51 17.85 20.14 17.85 31.32 6.67"/><path class="cls-10" d="M29.86,33h2.93a2.59,2.59,0,0,1,2.59,2.59V47.8a0,0,0,0,1,0,0h-8.1a0,0,0,0,1,0,0V35.56A2.59,2.59,0,0,1,29.86,33Z"/><polygon class="cls-10" points="31.32 55.98 42.51 44.8 20.14 44.8 31.32 55.98"/><path d="M17.44,38.21V26.59H15.32V24h5v14.2Z"/><path d="M23.3,30.92q0-7.25,5.39-7.25t5.39,7.25q0,7.25-5.39,7.25T23.3,30.92Zm6.58-4.39a2.81,2.81,0,0,0-2.36,0,2,2,0,0,0-.77.66,3.29,3.29,0,0,0-.43,1,8,8,0,0,0-.21,1.25q-.05.6-.05,1.42t.05,1.42a8,8,0,0,0,.21,1.25,3.42,3.42,0,0,0,.43,1.06,2,2,0,0,0,.77.67,2.81,2.81,0,0,0,2.36,0,2,2,0,0,0,.77-.67,3.43,3.43,0,0,0,.43-1.06,8,8,0,0,0,.21-1.25q0-.6.05-1.42t-.05-1.42a8,8,0,0,0-.21-1.25,3.31,3.31,0,0,0-.43-1A2,2,0,0,0,29.88,26.53Z"/><path d="M36.22,30.92q0-7.25,5.39-7.25T47,30.92q0,7.25-5.39,7.25T36.22,30.92Zm6.58-4.39a2.81,2.81,0,0,0-2.36,0,2.05,2.05,0,0,0-.77.66,3.29,3.29,0,0,0-.43,1A8.05,8.05,0,0,0,39,29.49q0,.6,0,1.42t0,1.42a8.05,8.05,0,0,0,.21,1.25,3.42,3.42,0,0,0,.43,1.06,2,2,0,0,0,.77.67,2.81,2.81,0,0,0,2.36,0,2,2,0,0,0,.77-.67A3.42,3.42,0,0,0,44,33.58a7.94,7.94,0,0,0,.21-1.25q0-.6.05-1.42t-.05-1.42A7.94,7.94,0,0,0,44,28.24a3.29,3.29,0,0,0-.43-1A2,2,0,0,0,42.8,26.53Z"/></svg>