<?xml version="1.0" encoding="utf-8"?>
<!-- Generator: Adobe Illustrator 21.0.0, SVG Export Plug-In . SVG Version: 6.00 Build 0)  -->
<svg version="1.1" id="Layer_1" xmlns="http://www.w3.org/2000/svg" xmlns:xlink="http://www.w3.org/1999/xlink" x="0px" y="0px"
	 viewBox="0 0 315 314" style="enable-background:new 0 0 315 314;" xml:space="preserve">
<g id="cubes0">
	<g transform="matrix( 1, 0, 0, 1, 0.5,0.5) ">
		<g transform="matrix( 1, 0, 0, 1, 0,0) ">
			<g>
				<g id="Symbol_1_0_Layer0_0_FILL">
					<path style="fill:#FFBA91;fill-opacity:0.498;" d="M44.8,46.5H0v81.6l22.7-22.9L0,128.1h81.9V105V82.9l-37.4,0.2L22.9,105
						l21.6-21.9L44.8,46.5 M22.8,23.1L22.8,23.1L22.8,23.1l-0.3,0.3L22.8,23.1 M45,23.4v-0.1l-22.2-0.1l-0.3,0.3L0,46.5h44.8
						L45,23.4 M45,23.3v-0.2V0.3L22.9,23l-0.1,0.1l0,0L45,23.3 M81.9,82.9V46.5H44.8l-0.3,36.6L81.9,82.9 M104.3,23.4L104.3,23.4
						L45,23.3v0.1l-0.2,23.1H82L104.3,23.4 M104.7,23.1L104.7,23.1L127.2,0H45.3L45,0.3v22.8v0.2l59.5,0.1L104.7,23.1 M163.8,128.1
						V82.4l-36.3,0.2v0.1L105,82.8h-0.5h-0.1L82,82.9V105v23.1H163.8 M163.9,127.9l-0.1,0.2h0.1V127.9 M163.8,82.4V46.5H82v36.4
						l22.4-0.2h0.1h0.5l22.5-0.1v-0.1L163.8,82.4 M208.6,82.4h-3h-19.4V105l0.5-0.5L208.6,82.4 M186.3,23.6l-22.5,22.9v35.9v45.7
						l0.1-0.2l0.2-0.2l22.6-23.1v-0.2l-0.5,0.5V82.4h-22.1h22.1L186.3,23.6 M186.3,23.4l0.3-0.3L209.3,0h-81.8h-0.3l-22.5,23.1h0.1
						h0.2v0.3h22.5l0,0H186.3 M186.3,23.6v-0.2h-58.8l0,0H105l0,0h-0.3l-0.2,0.2l-0.1,0.1L82,46.5h81.8L186.3,23.6 M186.4,23.4h-0.1
						v0.2L186.4,23.4L186.4,23.4 M186.7,23.1h-0.1l-0.3,0.3h0.1L186.7,23.1 M209.3,0v0.1l0.1-0.1H209.3 M209.3,0.1V0l-22.7,23.1h0.1
						h0.1l-0.4,0.4l-0.1,0.1v58.8h19.4h3L209.3,0.1L209.3,0.1z"/>
				</g>
			</g>
			<g>
				<path id="Symbol_1_0_Layer0_0_2_STROKES" style="fill:none;stroke:#FF985C;stroke-linecap:round;stroke-linejoin:round;" d="
					M209.3,0.1V0l-22.7,23.1 M186.3,82.4h19.4h3l0.6-82.3l0,0 M209.4,0h-0.1h-81.8 M186.3,23.6l-22.5,22.9v35.9v45.7l0.1-0.2
					l0.2-0.2l22.6-23.1 M164.1,82.4h22.1 M163.9,128.1h-0.1H82 M81.9,128.1H0V46.5l22.5-23.1l0.2-0.2 M22.9,23L45,0.3 M127.2,0H45.3
					 M186.8,104.5l21.9-22.1 M82,46.5h81.8 M82,82.9l22.4-0.2 M105,82.8l22.5-0.1 M127.5,82.6l36.3-0.2 M81.9,46.5H44.8l-0.3,36.6
					l37.4-0.2 M45,0.3v22.8 M45,23.4l-0.2,23.1H0 M0,128.1l22.7-22.9 M22.9,105l21.6-21.9"/>
			</g>
		</g>
	</g>
	<g id="cube3" transform="matrix( 0.9686431884765625, 0, 0, 0.9792633056640625, 163.75,209.2) " style="display:none;">
		<path style="display:inline;fill:#FFE5BF;stroke:#050505;stroke-miterlimit:10;" d="M-144.3-187v80.5h83.8V-187H-144.3 M-37-210
			l-23.5,23v80.5l23.5-23V-210z"/>
		<path style="display:inline;fill:#FFFFFF;stroke:#050505;stroke-miterlimit:10;" d="M-59.9-188.6l23.5-23h-84.1l-23.2,23H-59.9z"
			/>
	</g>
	<g id="cube4" transform="matrix( 0.9686431884765625, 0, 0, 0.9792633056640625, 163.75,209.2) " style="display:none;">
		<path style="display:inline;fill:#FFFFFF;stroke:#050505;stroke-miterlimit:10;" d="M23.6-188l22.5-23.8H-37L-60.2-188H23.6z"/>
		<path style="display:inline;fill:#FFE5BF;stroke:#050505;stroke-miterlimit:10;" d="M-61.8-186.5v80.5H22v-80.5H-61.8 M45.5-210.5
			l-23.5,24v80.5l23.5-23V-210.5z"/>
	</g>
	<g id="cube1" transform="matrix( 0.9686431884765625, 0, 0, 0.9792633056640625, 163.75,209.2) " style="display:none;">
		<path style="display:inline;fill:#FFE5BF;stroke:#050505;stroke-miterlimit:10;" d="M-167.5-164v80.5h83.8V-164H-167.5 M-60.2-187
			l-23.5,23v80.5l23.5-23C-60.2-106.5-60.2-187-60.2-187z"/>
		<path style="display:inline;fill:#FFFFFF;stroke:#050505;stroke-miterlimit:10;" d="M-83.1-165.6l23.5-23h-84.1l-23.2,23H-83.1z"
			/>
	</g>
	<g id="cube2" transform="matrix( 0.9686431884765625, 0, 0, 0.9792633056640625, 163.75,209.2) " style="display:none;">
		<path style="display:inline;fill:#FFE5BF;stroke:#050505;stroke-miterlimit:10;" d="M-83.7-164v80.5h83.2V-164H-83.7 M22.8-187
			l-23.3,23v80.5l23.3-23V-187z"/>
		<path style="display:inline;fill:#FFFFFF;stroke:#050505;stroke-miterlimit:10;" d="M0-165.6l23.3-23h-83.5l-23,23H0z"/>
	</g>
	<g>
		<path id="Symbol_1_0_Layer0_0_2_STROKES_1_" style="fill:none;stroke:#FF985C;stroke-linecap:round;stroke-linejoin:round;" d="
			M208.5,1.7l-22.7,23.1 M209,83l-0.1-82 M209,1h-81 M164.3,128.3l22.8-23.1 M186.8,24.1L164.3,47v35.9v45.3 M164.3,128.3L81,128.6
			 M82.4,128.6H0.5L0.8,47l23.1-23.1 M24.3,23.5L47,1 M127.7,1H47 M187.3,105L209,82.9 M82.5,47h81.8 M82.4,47H45.3 M45.3,47H1.5"/>
	</g>
</g>
<g id="cubes1">
	<g transform="matrix( 1, 0, 0, 1, -2.5,-3.5) ">
		<g>
			<g id="Layer0_0_FILL">
				<path style="fill:#FFBA91;fill-opacity:0.498;" d="M47.5,87.1l0.3-36.6H3v81.6l22.7-22.9L3,132.1h81.9V109V86.9L47.5,87.1
					L25.9,109L47.5,87.1 M25.7,27.2l-0.2,0.2L25.7,27.2l0.1-0.1L25.7,27.2 M48,27.1V4.3L25.9,27l-0.1,0.1l0,0L48,27.3V27.1 M48,27.4
					v-0.1l-22.2-0.1l-0.3,0.3L3,50.5h44.8L48,27.4 M84.9,86.9V50.5H47.8l-0.3,36.6L84.9,86.9 M107.7,27.1L107.7,27.1L130.1,4H48.3
					L48,4.3v22.8v0.2l59.5,0.1L107.7,27.1 M107.3,27.4L107.3,27.4L48,27.3v0.1l-0.2,23.1H85L107.3,27.4 M166.9,132.1V109V86.4
					l-36.4,0.2v0.1L108,86.8h-0.5h-0.1L85,86.9V109v23.1H166.9 M212.2,86.4h-45.1V109v22.9v0.2h82V86.4H212.2 M189.9,108.5v0.2
					l-0.4,0.4l0.1-0.3L189.9,108.5 M166.9,86.4V50.5H85v36.4l22.4-0.2h0.1h0.5l22.5-0.1v-0.1L166.9,86.4 M189.4,27.6v-0.2h-58.9l0,0
					H108l0,0h-0.3l-0.2,0.2l-0.1,0.1L85,50.5h81.9l5.2-5.2L189.4,27.6 M211.1,5.3l1.3-1.3h-81.9h-0.4l-22.4,23.1h0.1h0.2v0.3h22.5
					l0,0h58.9l0.3-0.3l5-5L211.1,5.3 M294,86.4h-3h-19.4V109l0.5-0.5L294,86.4 M271.6,86.4h-22.5v45.7l23-23.4v-0.2l-0.5,0.5V86.4
					 M249.1,86.4V50.5h-82v35.9h45.1l0.3-0.3l-0.3,0.3H249.1 M249.1,50.5v35.9h22.5V27.6L249.1,50.5 M271.6,27.4l0.3-0.3L294.6,4
					h-82.2l-1.3,1.3l-16.4,16.8l-4.8,5v0.3L271.6,27.4 M272.1,27.1l-0.5,0.5v58.8H291h3L294.6,4l-22.7,23.1H272.1 M271.6,27.6v-0.2
					h-81.7h-0.3l-0.2,0.2l-17.3,17.7l-4.9,5.2h82L271.6,27.6z"/>
			</g>
		</g>
		<g>
			<path id="Layer0_0_2_STROKES" style="fill:none;stroke:#FF985C;stroke-linecap:round;stroke-linejoin:round;" d="M271.9,27.1
				L294.6,4h-82.2 M271.6,27.6l-22.5,22.9v35.9h22.5H291h3L294.6,4 M212.4,4h-81.9 M167.1,50.5h82 M167.1,86.4h45.1 M167.1,132.1h82
				V86.4h-36.9 M249.1,132.1l23-23.4 M272.1,108.5L294,86.4 M48,27.4l-0.2,23.1H85 M85,50.5h81.9 M85,86.9l22.4-0.2 M108,86.8
				l22.5-0.1 M130.5,86.6l36.4-0.2 M48,4.3v22.8 M25.5,27.4L3,50.5h44.8l-0.3,36.6l37.4-0.2 M25.7,27.2l-0.2,0.2 M25.9,27L48,4.3
				 M25.7,109.2L3,132.1h81.9 M3,132.1V50.5 M166.9,132.1H85 M25.9,109l21.6-21.9 M130.1,4H48.3"/>
		</g>
	</g>
	<g id="cube4_1_" transform="matrix( 0.9686431884765625, 0, 0, 0.9792633056640625, 163.75,209.2) " style="display:none;">
		<path style="display:inline;fill:#FFE5BF;stroke:#050505;stroke-miterlimit:10;" d="M-144.3-188.7v82.1h83.8v-82.1H-144.3
			 M-37-212.2l-23.5,23.5v82.1l23.5-23.5V-212.2z"/>
		<path style="display:inline;fill:#FFFFFF;stroke:#050505;stroke-miterlimit:10;" d="M-60.5-188.7l23.5-23.5h-84.1l-23.2,23.5
			H-60.5z"/>
	</g>
	<g id="cube5" transform="matrix( 0.9686431884765625, 0, 0, 0.9792633056640625, 163.75,209.2) " style="display:none;">
		<path style="display:inline;fill:#FFE5BF;stroke:#050505;stroke-miterlimit:10;" d="M-60.1-188.7v82.1h83.8v-82.1H-60.1
			 M47.2-212.2l-23.5,23.5v82.1l23.5-23.5V-212.2z"/>
		<path style="display:inline;fill:#FFFFFF;stroke:#050505;stroke-miterlimit:10;" d="M23.7-188.7l23.5-23.5h-84.1l-23.2,23.5H23.7z
			"/>
	</g>
	<g id="cube6" transform="matrix( 0.9686431884765625, 0, 0, 0.9792633056640625, 163.75,209.2) " style="display:none;">
		<path style="display:inline;fill:#FFE5BF;stroke:#050505;stroke-miterlimit:10;" d="M23.5-188.7v82.1h83.8v-82.1H23.5
			 M130.8-212.2l-23.5,23.5v82.1l23.5-23.5V-212.2z"/>
		<path style="display:inline;fill:#FFFFFF;stroke:#050505;stroke-miterlimit:10;" d="M107.3-188.7l23.5-23.5H46.7l-23.2,23.5H107.3
			z"/>
	</g>
	<g id="cube1_1_" transform="matrix( 0.9686431884765625, 0, 0, 0.9792633056640625, 163.75,209.2) " style="display:none;">
		<path style="display:inline;fill:#FFE5BF;stroke:#050505;stroke-miterlimit:10;" d="M-167.5-165.2v82.1h83.8v-82.1H-167.5
			 M-60.2-188.7l-23.5,23.5v82.1l23.5-23.5C-60.2-106.6-60.2-188.7-60.2-188.7z"/>
		<path style="display:inline;fill:#FFFFFF;stroke:#050505;stroke-miterlimit:10;" d="M-83.7-165.2l23.5-23.5h-84.1l-23.2,23.5
			H-83.7z"/>
	</g>
	<g id="cube2_1_" transform="matrix( 0.9686431884765625, 0, 0, 0.9792633056640625, 163.75,209.2) " style="display:none;">
		<path style="display:inline;fill:#FFE5BF;stroke:#050505;stroke-miterlimit:10;" d="M-83.4-165.2v82.1H0.4v-82.1H-83.4
			 M23.9-188.7L0.4-165.2v82.1l23.5-23.5V-188.7z"/>
		<path style="display:inline;fill:#FFFFFF;stroke:#050505;stroke-miterlimit:10;" d="M0.4-165.2l23.5-23.5h-84.1l-23.2,23.5H0.4z"
			/>
	</g>
	<g id="cube3_1_" transform="matrix( 0.9686431884765625, 0, 0, 0.9792633056640625, 163.75,209.2) " style="display:none;">
		<path style="display:inline;fill:#FFE5BF;stroke:#050505;stroke-miterlimit:10;" d="M0.3-165.2v82.1h83.8v-82.1H0.3 M107.6-188.7
			l-23.5,23.5v82.1l23.5-23.5V-188.7z"/>
		<path style="display:inline;fill:#FFFFFF;stroke:#050505;stroke-miterlimit:10;" d="M84.1-165.2l23.5-23.5H23.5L0.3-165.2H84.1z"
			/>
	</g>
	<g>
		<path id="Layer0_0_2_STROKES_1_" style="fill:none;stroke:#FF985C;stroke-linecap:round;stroke-linejoin:round;" d="M269.4,24.1
			L291.6,1h-81.4 M291.6,82V1 M269.2,24.3L246,47.5v35.9 M210.1,1h-81.9 M164.9,47.5H246 M164,129.1l82-0.1V83.4 M246,128.7l22-22.5
			 M268,106.3L291.8,82 M45.5,47.5h37.2 M82.8,47.5h81.9 M23.3,24.4L0.8,47.5h44.8 M23.5,24.2l-0.2,0.2 M23.7,24L45.8,1.3
			 M0.8,129.1h81.9 M0.8,129.1V47.5 M164.7,129.1H82.8 M127.9,1H46"/>
	</g>
</g>
<g id="cubes2">
	<g transform="matrix( 1, 0, 0, 1, 0.5,0.5) ">
		<path style="fill:#FFBA91;fill-opacity:0.498;" d="M44.8,127.9l-0.3,36.4l37.4-0.2v-35.6v-0.6H44.8 M0.6,127.9H0v81.2l22.7-22.8
			L0,209.1h81.9v-23v-22l-37.4,0.2l-21.6,21.8l21.6-21.8l0.3-36.4H0.6 M44.8,47.2H0v80.6h0.6h44.2V47.2 M22.7,24l-0.2,0.2L22.7,24
			L22.7,24L22.7,24 M45,23.9V1.2L22.9,23.8l-0.1,0.1l0,0L45,24.1V23.9 M44.8,47.2l0.2-23v-0.1L22.8,24l-0.3,0.2L0,47.2H44.8
			 M81.9,83.5V47.2H44.8v80.6H82v-22.4L81.9,83.5 M104.3,24.2L104.3,24.2L45,24.1v0.1l-0.2,23H82L104.3,24.2 M104.7,23.9L104.7,23.9
			l22.5-23H45.3L45,1.2v22.7v0.2h59.5L104.7,23.9 M163.8,163.6L163.8,163.6l-36.3,0.2l0,0L105,164h-0.5h-0.1L82,164.1v45h81.8
			l0.4-0.3C163.9,179.1,163.8,164.1,163.8,163.6 M186.4,163.6v22.6l22.3-22.6H186.4 M163.8,128.5l-0.6-0.6H82v0.6v35.6l22.4-0.1h0.1
			h0.5l22.5-0.1l0,0l36.3-0.2c0-5.9,0-11.7,0.1-17.6c0-1.5,0-2.9,0.1-4.4L163.8,128.5 M163.2,127.9h0.3h0.3V47.2H82v36.2v22v22.4
			L163.2,127.9 M186.3,24.4l-22.5,22.8v80.6h-0.3l0.4,0.4l0.1-0.1l-0.1,13.5c0,1.5,0,2.9-0.1,4.4c0,5.9,0,11.7-0.1,17.6l0,0
			c0,0.5,0.1,15.5,0.4,45.1l22.3-22.5v-22.6h-22.3h22.3l-0.1-58.2l-22.2,22.5l22.2-22.5L186.3,24.4 M186.3,24.2l0.3-0.3l22.7-23
			h-81.8h-0.3l-22.5,23h0.1h0.2v0.2h22.5l0,0L186.3,24.2 M186.3,24.4v-0.2h-58.8l0,0H105l0,0h-0.3l-0.2,0.2l-0.1,0.1L82,47.2h81.8
			L186.3,24.4 M186.4,24.2h-0.1v0.2L186.4,24.2L186.4,24.2 M186.7,23.9h-0.1l-0.3,0.3h0.1L186.7,23.9 M209.3,1L209.3,1l-22.7,22.9
			h0.1h0.1l-0.4,0.3l-0.1,0.1l0.1,80.9l22.3-22.6l-22.3,22.6l0.1,58.2h22.3v-3.3L209.3,1L209.3,1 M209.4,0.9h-0.1V1L209.4,0.9z"/>
		<path id="Symbol_2_0_Layer0_0_2_STROKES" style="fill:none;stroke:#FF985C;stroke-linecap:round;stroke-linejoin:round;" d="
			M209.4,0.9h-0.1V1 M209.3,1.1l-0.6,159.2v3.3l-22.3,22.6l-22.3,22.5l-0.4,0.3H82 M81.9,209.1H0v-81.2V47.2l22.5-23l0.2-0.2
			 M22.9,23.8L45,1.2 M127.2,0.9H45.3 M127.5,0.9h81.8l-22.7,23 M209.3,1.1L209.3,1.1 M186.3,24.4l-22.5,22.8v80.6 M163.9,141.7
			c0,1.5,0,2.9,0,4.4c0,5.9-0.1,11.7-0.1,17.6l0,0c0,0.4,0.1,15.5,0.4,45.1 M163.8,128.5l0.1,13.2 M208.6,163.6h-22.3H164 M82,47.2
			h81.8 M81.9,47.2H44.8v80.6 M45,24.2l-0.2,23H0 M45,1.2v22.7 M0,127.9h0.6 M44.8,127.9l-0.3,36.4l37.4-0.2 M22.9,186.1l21.6-21.8
			 M105,164l22.5-0.1 M127.5,163.8l36.3-0.2 M82,164.1l22.4-0.1 M0,209.1l22.7-22.8"/>
	</g>
	<g id="cube3_5_" style="display:none;">
		<path style="display:inline;fill:#FFE5BF;stroke:#050505;stroke-miterlimit:10;" d="M22.5,106.4v80.4h81.2v-80.4H22.5 M126.4,83.4
			l-22.8,23v80.4l22.8-23C126.4,163.8,126.4,83.4,126.4,83.4z"/>
		<g id="cube4_2_" transform="matrix( 0.9686431884765625, 0, 0, 0.9792633056640625, 163.75,209.2) " style="display:inline;">
			<path style="fill:#FFE5BF;stroke:#050505;stroke-miterlimit:10;" d="M-145.8-104.9v82.1H-62v-82.1H-145.8 M-38.5-128.4L-62-104.9
				v82.1l23.5-23.5V-128.4z"/>
			<path style="fill:#FFFFFF;stroke:#050505;stroke-miterlimit:10;" d="M-61-104.9l23.5-23.5h-84.1l-23.2,23.5
				C-144.8-104.9-61-104.9-61-104.9z"/>
		</g>
	</g>
	<g id="cube4_5_" transform="matrix( 0.9686431884765625, 0, 0, 0.9792633056640625, 163.75,209.2) " style="display:none;">
		<path style="display:inline;fill:#FFE5BF;stroke:#050505;stroke-miterlimit:10;" d="M-62.2-104.9v82.1h83.8v-82.1H-62.2
			 M45.1-128.4l-23.5,23.5v82.1l23.5-23.5V-128.4z"/>
		<path style="display:inline;fill:#FFFFFF;stroke:#050505;stroke-miterlimit:10;" d="M22.6-104.9l23.5-23.5H-38l-23.2,23.5
			C-61.2-104.9,22.6-104.9,22.6-104.9z"/>
	</g>
	<g id="cube1_2_" transform="matrix( 0.9686431884765625, 0, 0, 0.9792633056640625, 163.75,209.2) " style="display:none;">
		<path style="display:inline;fill:#FFE5BF;stroke:#050505;stroke-miterlimit:10;" d="M-168-82.5v82.1h83.8v-82.1H-168 M-60.7-106
			l-23.5,23.5v82.1l23.5-23.5C-60.7-23.9-60.7-106-60.7-106z"/>
		<path style="display:inline;fill:#FFFFFF;stroke:#050505;stroke-miterlimit:10;" d="M-83.1-82.5l23.5-23.5h-84.1l-23.2,23.5H-83.1
			z"/>
	</g>
	<g id="cube6_1_" transform="matrix( 0.9686431884765625, 0, 0, 0.9792633056640625, 163.75,209.2) " style="display:none;">
		<path style="display:inline;fill:#FFE5BF;stroke:#050505;stroke-miterlimit:10;" d="M-144.4-185.6v82.1h83.2v-82.1H-144.4
			 M-37.9-209.1l-23.3,23.5v82.1l23.3-23.5V-209.1z"/>
		<path style="display:inline;fill:#FFFFFF;stroke:#050505;stroke-miterlimit:10;" d="M-60.5-185.6l23.7-23.5h-84.7l-23.4,23.5
			H-60.5z"/>
	</g>
	<g id="cube5_4_" transform="matrix( 0.9686431884765625, 0, 0, 0.9792633056640625, 163.75,209.2) " style="display:none;">
		<path style="display:inline;fill:#FFE5BF;stroke:#050505;stroke-miterlimit:10;" d="M-61.4-185.6v82.1h83.2v-82.1H-61.4
			 M45.1-209.1l-23.3,23.5v82.1L45.1-127V-209.1z"/>
		<path style="display:inline;fill:#FFFFFF;stroke:#050505;stroke-miterlimit:10;" d="M22.8-185.6l23.3-23.5h-83.5l-23,23.5H22.8z"
			/>
	</g>
	<g id="cube2_2_" transform="matrix( 0.9686431884765625, 0, 0, 0.9792633056640625, 163.75,209.2) " style="display:none;">
		<path style="display:inline;fill:#FFE5BF;stroke:#050505;stroke-miterlimit:10;" d="M-84.4-82.5v82.1h83.8v-82.1H-84.4 M22.9-106
			L-0.6-82.5v82.1l23.5-23.5V-106z"/>
		<path style="display:inline;fill:#FFFFFF;stroke:#050505;stroke-miterlimit:10;" d="M0.5-82.5L24-106h-84.1l-23.2,23.5H0.5z"/>
	</g>
	<g id="cube8_3_" transform="matrix( 0.9686431884765625, 0, 0, 0.9792633056640625, 163.75,209.2) " style="display:none;">
		<path style="display:inline;fill:#FFE5BF;stroke:#050505;stroke-miterlimit:10;" d="M-168-162.6V-82h83.8v-80.6H-168 M-60.7-185.7
			l-23.5,23.1V-82l23.5-23.1C-60.7-105.1-60.7-185.7-60.7-185.7z"/>
		<path style="display:inline;fill:#FFFFFF;stroke:#050505;stroke-miterlimit:10;" d="M-83.4-162.6l23.7-23.1h-84.9l-23.4,23.1
			H-83.4z"/>
	</g>
	<g id="cube7" transform="matrix( 0.9686431884765625, 0, 0, 0.9792633056640625, 163.75,209.2) " style="display:none;">
		<path style="display:inline;fill:#FFE5BF;stroke:#050505;stroke-miterlimit:10;" d="M-84.4-162.6V-82h83.8v-80.6H-84.4
			 M22.9-185.7l-23.5,23.1V-82l23.5-23.1V-185.7z"/>
		<path style="display:inline;fill:#FFFFFF;stroke:#050505;stroke-miterlimit:10;" d="M-0.6-162.6l23.2-23.1h-83l-22.9,23.1H-0.6z"
			/>
	</g>
	<path id="Symbol_2_0_Layer0_0_2_STROKES_1_" style="fill:none;stroke:#FF985C;stroke-linecap:round;stroke-linejoin:round;" d="
		M209.9,2.2h-0.1v0.1 M209.8,2.3l-0.6,158.6v3.3l-22.3,22.5l-22.3,22.5l-0.4,0.3H82.5 M82.4,209.6H0.5v-81V48.3L23,25.4l0.2-0.2
		 M23.4,25L45.5,2.4 M127.7,2.2H45.8 M128,2.2h81.8l-22.7,22.9 M209.8,2.3L209.8,2.3 M186.8,25.6l-22.5,22.7v80.4 M164.4,142.4
		c0,1.5,0,2.9,0,4.4c0,5.8-0.1,11.7-0.1,17.5l0,0c0,0.4,0.1,15.4,0.4,45 M164.3,129.2l0.1,13.1 M82.5,48.3h81.8 M82.4,48.3H45.3
		 M45.3,48.3H0.5 M0.5,128.6h0.6"/>
</g>
<g id="cubes3">
	<g transform="matrix( 1, 0, 0, 1, 0.5,0.5) ">
		<path style="fill:#FFBA91;fill-opacity:0.498;" d="M105,164.4h-0.5h-0.1L82,164.5v45.2h81.9V164l-36.4,0.2v0.1L105,164.4
			 M44.6,128.1l-0.1,36.6l37.4-0.2v-36.4H44.6 M22.5,23.4l0.3-0.3l0,0l-0.1,0.1L22.5,23.4 M45,23.4v-0.1l-22.2-0.1l-0.3,0.3L0,46.5
			h44.8L45,23.4 M45,23.1V0.3L22.9,23l-0.1,0.1l0,0L45,23.3V23.1 M81.9,82.9V46.5H44.8l-0.3,36.6l0.3-36.6H0v163.2l22.7-22.9
			L0,209.7h81.9v-23.1v-22.1l-37.4,0.2l-21.6,21.9l21.6-21.9l0.1-36.6H0.8h43.8l0.2-44.4l-0.2,44.4h37.3V105L81.9,82.9 M104.3,23.4
			L104.3,23.4L45,23.3v0.1l-0.2,23.1H82L104.3,23.4 M104.7,23.1L104.7,23.1L127.2,0H45.3L45,0.3v22.8v0.2l59.5,0.1L104.7,23.1
			 M291,164h-0.1v0.1L291,164 M290.9,164h0.1v-7.7L290.9,164 M268.7,164v22.6l22.1-22.5V164H268.7 M268.7,164h-22.6v45.7l22.6-23.1
			V164 M268.6,105.1l-22.5,23V164h22.6L268.6,105.1 M209.2,164h-45.1v45.7h82V164H209.2 M186.9,186.3l-0.4,0.4l0.1-0.3l0.3-0.3
			L186.9,186.3 M163.9,164v-35.9H82v36.4l22.4-0.1h0.1h0.5l22.5-0.1v-0.1L163.9,164 M209.2,164l0.3-0.3L209.2,164h36.9v-35.9h-82
			V164H209.2 M163.9,82.4V46.5H82v36.4V105v23.1h81.9V105V82.4 M164.1,46.5v35.9V105v22.9v0.2h82V46.5H164.1 M186.9,104.5v0.2
			l-0.4,0.4l0.1-0.3L186.9,104.5 M186.4,23.6v-0.2h-58.9l0,0H105l0,0h-0.3l-0.2,0.2l-0.1,0.1L82,46.5h81.9l5.2-5.2L186.4,23.6
			 M208.1,1.4l1.3-1.4h-81.9h-0.3l-22.5,23.1h0.1h0.2v0.3h22.5l0,0h58.9l0.3-0.3l5-5L208.1,1.4 M268.6,23.4l0.3-0.3L291.6,0h-82.2
			l-1.3,1.4l-16.4,16.8l-4.8,5v0.3L268.6,23.4 M269.1,23.1l-0.5,0.5v81.5l22.2-22.5l-22.2,22.5l0.1,58.9h22.1l0.1-7.7L291.6,0
			l-22.7,23.1H269.1 M246.1,46.5l22.5-22.9v-0.2h-81.7h-0.3l-0.2,0.2l-17.3,17.7l-4.9,5.2L246.1,46.5 M268.6,23.6l-22.5,22.9v81.6
			l22.5-23V23.6z"/>
		<path id="Symbol_3_0_Layer0_0_2_STROKES" style="fill:none;stroke:#FF985C;stroke-linecap:round;stroke-linejoin:round;" d="
			M268.6,23.6l-22.5,22.9v81.6 M164.1,46.5h82 M268.9,23.1L291.6,0h-82.2 M209.4,0h-81.9 M163.9,209.7H82 M82,128.1L82,128.1
			 M81.9,209.7H0V46.5l22.5-23.1l0.2-0.2 M22.9,23L45,0.3 M127.2,0H45.3 M164.1,164h45.1h36.9v-35.9 M246.1,164h22.6h22.1l0.1-7.7
			L291.6,0 M291,164v-7.7 M290.9,164v0.1l0.1-0.1 M268.7,186.6l22.1-22.5 M82,46.5h81.9 M45,0.3v22.8 M45,23.4l-0.2,23.1H82 M0,46.5
			h44.8l-0.3,36.6 M22.9,186.6l21.6-21.9l0.1-36.6 M105,164.4l22.5-0.1 M127.5,164.2l36.4-0.2 M82,164.5l22.4-0.1 M44.8,83.7
			l-0.1,44.4 M44.5,164.7l37.4-0.2 M268.7,186.6l-22.6,23.1h-82 M246.1,164v45.7 M0,209.7l22.7-22.9"/>
	</g>
	<g id="cube4_3_" transform="matrix( 0.9686431884765625, 0, 0, 0.9792633056640625, 163.75,209.2) " style="display:none;">
		<path style="display:inline;fill:#FFE5BF;stroke:#050505;stroke-miterlimit:10;" d="M-144.5-107.9v83h83.6v-83H-144.5
			 M-37.4-131.7l-23.4,23.8v83l23.4-23.8V-131.7z"/>
		<path style="display:inline;fill:#FFFFFF;stroke:#050505;stroke-miterlimit:10;" d="M-60.9-107.9l23.4-23.8h-83.9l-23.1,23.8
			C-144.5-107.9-60.9-107.9-60.9-107.9z"/>
	</g>
	<g id="cube5_1_" transform="matrix( 0.9686431884765625, 0, 0, 0.9792633056640625, 163.75,209.2) " style="display:none;">
		<path style="display:inline;fill:#FFE5BF;stroke:#050505;stroke-miterlimit:10;" d="M-60.9-107.9v83h83.7v-83H-60.9 M46.4-131.7
			l-23.5,23.8v83l23.5-23.8V-131.7z"/>
		<path style="display:inline;fill:#FFFFFF;stroke:#050505;stroke-miterlimit:10;" d="M22.9-107.9l23.5-23.8h-84l-23.2,23.8
			C-60.8-107.9,22.9-107.9,22.9-107.9z"/>
	</g>
	<g id="cube6_2_" transform="matrix( 0.9686431884765625, 0, 0, 0.9792633056640625, 163.75,209.2) " style="display:none;">
		<path style="display:inline;fill:#FFE5BF;stroke:#050505;stroke-miterlimit:10;" d="M22.5-107.9v83h84.2v-83H22.5 M130.2-131.7
			l-23.6,23.8v83l23.6-23.8V-131.7z"/>
		<path style="display:inline;fill:#FFFFFF;stroke:#050505;stroke-miterlimit:10;" d="M106.6-107.9l23.6-23.8H45.8l-23.3,23.8
			C22.5-107.9,106.6-107.9,106.6-107.9z"/>
	</g>
	<g id="cube9" transform="matrix( 0.9686431884765625, 0, 0, 0.9792633056640625, 163.75,209.2) " style="display:none;">
		<path style="display:inline;fill:#FFE5BF;stroke:#050505;stroke-miterlimit:10;" d="M-144.5-188.8v80.8h83.6v-80.8H-144.5
			 M-37.4-211.9l-23.4,23.1v80.8l23.4-23.1V-211.9z"/>
		<path style="display:inline;fill:#FFFFFF;stroke:#050505;stroke-miterlimit:10;" d="M-60.9-188.8l23.4-23.1h-83.9l-23.1,23.1
			H-60.9z"/>
	</g>
	<g id="cube8" transform="matrix( 0.9686431884765625, 0, 0, 0.9792633056640625, 163.75,209.2) " style="display:none;">
		<path style="display:inline;fill:#FFE5BF;stroke:#050505;stroke-miterlimit:10;" d="M-60.9-188.8v80.8h83.7v-80.8H-60.9
			 M46.4-211.9l-23.5,23.1v80.8l23.5-23.1V-211.9z"/>
		<path style="display:inline;fill:#FFFFFF;stroke:#050505;stroke-miterlimit:10;" d="M22.9-188.8l23.5-23.1h-84l-23.2,23.1H22.9z"
			/>
	</g>
	<g id="cube7_1_" transform="matrix( 0.9686431884765625, 0, 0, 0.9792633056640625, 163.75,209.2) " style="display:none;">
		<path style="display:inline;fill:#FFE5BF;stroke:#050505;stroke-miterlimit:10;" d="M22.5-188.8v80.8h84.2v-80.8H22.5
			 M130.2-211.9l-23.6,23.1v80.8l23.6-23.1V-211.9z"/>
		<path style="display:inline;fill:#FFFFFF;stroke:#050505;stroke-miterlimit:10;" d="M106.6-188.8l23.6-23.1H45.8l-23.3,23.1H106.6
			z"/>
	</g>
	<g id="cube1_3_" transform="matrix( 0.9686431884765625, 0, 0, 0.9792633056640625, 163.75,209.2) " style="display:none;">
		<path style="display:inline;fill:#FFE5BF;stroke:#050505;stroke-miterlimit:10;" d="M-167.2-84.4v83h83.6v-83H-167.2 M-60.1-108.2
			l-23.4,23.8v83l23.4-23.8V-108.2z"/>
		<path style="display:inline;fill:#FFFFFF;stroke:#050505;stroke-miterlimit:10;" d="M-83.6-84.4l23.4-23.8H-144l-23.1,23.8
			C-167.1-84.4-83.6-84.4-83.6-84.4z"/>
	</g>
	<g id="cube2_3_" transform="matrix( 0.9686431884765625, 0, 0, 0.9792633056640625, 163.75,209.2) " style="display:none;">
		<path style="display:inline;fill:#FFE5BF;stroke:#050505;stroke-miterlimit:10;" d="M-83.6-84.4v83H0.2v-83H-83.6 M23.7-108.2
			L0.2-84.4v83l23.5-23.8V-108.2z"/>
		<path style="display:inline;fill:#FFFFFF;stroke:#050505;stroke-miterlimit:10;" d="M0.2-84.4l23.5-23.8h-84l-23.2,23.8
			C-83.5-84.4,0.2-84.4,0.2-84.4z"/>
	</g>
	<g id="cube3_3_" transform="matrix( 0.9686431884765625, 0, 0, 0.9792633056640625, 163.75,209.2) " style="display:none;">
		<path style="display:inline;fill:#FFE5BF;stroke:#050505;stroke-miterlimit:10;" d="M-0.3-84.4v83h84.2v-83H-0.3 M107.5-108.2
			L83.9-84.4v83l23.6-23.8V-108.2z"/>
		<path style="display:inline;fill:#FFFFFF;stroke:#050505;stroke-miterlimit:10;" d="M83.9-84.4l23.6-23.8H23L-0.3-84.4H83.9z"/>
	</g>
	<g id="cube12" transform="matrix( 0.9686431884765625, 0, 0, 0.9792633056640625, 163.75,209.2) " style="display:none;">
		<path style="display:inline;fill:#FFE5BF;stroke:#050505;stroke-miterlimit:10;" d="M-167.2-165.3v80.8h83.6v-80.8H-167.2
			 M-60.1-188.4l-23.4,23.1v80.8l23.4-23.1V-188.4z"/>
		<path style="display:inline;fill:#FFFFFF;stroke:#050505;stroke-miterlimit:10;" d="M-83.6-165.3l23.4-23.1H-144l-23.1,23.1H-83.6
			z"/>
	</g>
	<g id="cube11" transform="matrix( 0.9686431884765625, 0, 0, 0.9792633056640625, 163.75,209.2) " style="display:none;">
		<path style="display:inline;fill:#FFE5BF;stroke:#050505;stroke-miterlimit:10;" d="M-83.6-165.3v80.8H0.2v-80.8H-83.6
			 M23.7-188.4L0.2-165.3v80.8l23.5-23.1V-188.4z"/>
		<path style="display:inline;fill:#FFFFFF;stroke:#050505;stroke-miterlimit:10;" d="M0.2-165.3l23.5-23.1h-84l-23.2,23.1H0.2z"/>
	</g>
	<g id="cube10" transform="matrix( 0.9686431884765625, 0, 0, 0.9792633056640625, 163.75,209.2) " style="display:none;">
		<path style="display:inline;fill:#FFE5BF;stroke:#050505;stroke-miterlimit:10;" d="M-0.3-165.3v80.8h84.2v-80.8H-0.3
			 M107.5-188.4l-23.6,23.1v80.8l23.6-23.1V-188.4z"/>
		<path style="display:inline;fill:#FFFFFF;stroke:#050505;stroke-miterlimit:10;" d="M83.9-165.3l23.6-23.1H23l-23.3,23.1H83.9z"/>
	</g>
	<path id="Symbol_3_0_Layer0_0_2_STROKES_1_" style="fill:none;stroke:#FF985C;stroke-linecap:round;stroke-linejoin:round;" d="
		M269.1,23.1L246.6,46v81.6 M164.6,46h82 M269.4,22.6l22.7-23.1h-82.2 M209.9-0.5H128 M164.4,209.2H82.5 M82.4,209.2H0.5V46L23,22.9
		l0.2-0.2 M23.4,22.5L45.5-0.2 M127.7-0.5H45.8 M246.6,163.5v-35.9 M291.4,163.5l0.1-7.7l0.6-156.3 M291.5,163.5v-7.7 M291.4,163.5
		v0.1l0.1-0.1 M269.2,186.1l22.1-22.5 M82.5,46h81.9 M45.3,46h37.2 M0.5,46h44.8 M269.2,186.1l-22.6,23.1h-82 M246.6,163.5v45.7"/>
</g>
<g id="cubes4">
	<g transform="matrix( 1, 0, 0, 1, 0.5,22.5) ">
		<g transform="matrix( 1, 0, 0, 1, 0,0) ">
			<g>
				<g id="Symbol_4_0_Layer0_0_FILL">
					<path style="fill:#FFBA91;fill-opacity:0.498;" d="M82,209.7h81.9v-81.6H82V209.7 M246.1,291.5v-67.7l-82,0.1v67.5L246.1,291.5
						 M186.9,268l-0.4,0.4l0.1-0.3l0.3-0.3L186.9,268 M268.7,223.8h-22.6v67.7l21.8-22.2l0.9-0.9L268.7,223.8 M246.1,223.8v-13.9
						v-0.1H246h-81.9v14.1L246.1,223.8 M246.1,209.9v13.9h22.6v-36.9L246.1,209.9 M290.2,246.7v-0.3v-22.6l-21.5,0.1v44.6l10.9-11
						l0.6-0.6l0,0L290.2,246.7 M291,245.8h-0.1l-0.6,0.6v0.3l0.8-0.8L291,245.8 M290.9,245.8h0.1v-0.1L290.9,245.8 M301.2,235.3
						l0.6-0.6l10.7-10.8v-0.1h-22.3v22.6l0.6-0.6l0.1-0.1l10.1-10.2l0.8-0.8 M44.7,209.9v-0.2h-0.2L44.7,209.9 M66.1,224.3v-14.4
						H44.7H0v81.6L66.1,224.3L66.1,224.3 M81.9,291.5v-67.2l-15.8,0.1v0.1L0,291.5H81.9 M81.9,224.3v-14.4H66.1v14.4H81.9 M82,209.9
						v14.4l22.4-0.1L82,224.3v67.2h81.9V224l-36.4,0.1l-22.5,0.1l22.5-0.1l36.4-0.1v-14.1H82 M81.9,128.1H66.1v81.6h15.8V128.1
						 M66.1,128.1H0v81.6h44.5h0.2h21.4V128.1 M22.5,23.4l0.3-0.3l0,0l-0.1,0.1L22.5,23.4 M66.2,46.5l0.2-23.3l-43.6-0.1l-0.3,0.3
						L0,46.5H66.2 M45,0.3L45.3,0l0,0L45,0.3L45,0.3 M66.4,1.3V1.1v-22.8L45.3,0L45,0.3L44.3,1l-0.1,0.1l0,0L66.4,1.3 M66.4,23.3
						v-22l0,0L44.3,1.1l0,0V1L45,0.3l0,0L22.9,23l-0.1,0.1l0,0L66.4,23.3 M81.9,82.9V46.5H66.2l-0.3,36.6l0.3-36.6H0v81.6h66.1
						l0.1-44.4l-0.1,44.4h15.8V105V82.9 M104.3,23.4L104.3,23.4l-37.9-0.1l-0.2,23.3h15.7L104.3,23.4 M104.7,23.1L104.7,23.1
						l21.2-21.8H66.4v22l38,0.1L104.7,23.1 M246.1,128.1h-82v81.6h82V128.1 M186.9,186.3l-0.4,0.4l0.1-0.3l0.3-0.3L186.9,186.3
						 M290.2,164.9v0.3v58.6h22.3l-0.1-81.3L290.2,164.9 M290.2,165.2v-0.3l-0.1-81.6l-21.5,21.8l0.1,81.8L290.2,165.2 M268.7,186.9
						L268.7,186.9v36.9l21.5-0.1v-58.6L268.7,186.9 M246.1,209.9v0.1l22.6-23.1l0,0l-0.1-81.8 M268.6,105.1l-22.5,23v81.6
						 M163.9,82.4V46.5H82v36.4V105v23.1h81.9V105V82.4 M164.1,46.5v35.9V105v22.9v0.2h82V46.5H164.1 M186.9,104.5v0.2l-0.4,0.4
						l0.1-0.3L186.9,104.5 M186.4,23.6v-0.2h-58.9l0,0H105l0,0h-0.3l-0.2,0.2l-0.1,0.1L82,46.5h81.9l5.2-5.2L186.4,23.6 M246.1,46.5
						l22.5-22.9v-0.2h-81.7h-0.3l-0.2,0.2l-17.3,17.7l-4.9,5.2L246.1,46.5 M268.6,23.6l-22.5,22.9v81.6l22.5-23V23.6 M290.5,1.1
						h-0.1L290,1.4h-81.7V1.1l-0.2,0.1l-16.5,16.9l-4.8,5v0.3h81.7l0.3-0.3L290.5,1.1 M290,1.6l0.5-0.5l0,0l-21.6,22h0.2l-0.5,0.5
						v81.5l21.5-21.8v-0.1L290,1.6 M290.5,1.1L290,1.6l0.1,81.6l1.1-1.2l21-21.5l-21,21.5l-1.1,1.2v0.1l0.1,81.6l22.2-22.4V142
						L313-22L290.4,1.1H290.5L290.5,1.1 M229.6-20.6L213.1-3.9L209.4,0l-1,1.1v0.3H290l0.3-0.3L313-22h-82.2L229.6-20.6 M148.9-22
						h-0.3L126.2,1.1h-0.1l-0.3,0.3l-21.2,21.8h0.1h0.2v0.3h22.5l0,0h58.9l0.3-0.3l5-5l16.5-16.9l1.2-1.2h-0.1l-1.4,1.4h-58.9l0,0
						h-22.5h22.5l0,0h58.9l1.4-1.4l3.9-3.9l16.4-16.8l1.3-1.4H148.9 M66.7-22l-0.3,0.3V1.1v0.2l0,0l59.4,0.1l0.3-0.3h0.1L148.6-22
						H66.7z"/>
				</g>
			</g>
			<g>
				<path id="Symbol_4_0_Layer0_0_2_STROKES" style="fill:none;stroke:#FF985C;stroke-linecap:round;stroke-linejoin:round;" d="
					M246.1,223.8l-82,0.1 M246.1,291.4v-0.1v-67.5 M246.1,209.9l0.1,14h22.6 M268.7,223.8l21.5-0.1h22.3 M290.8,245.8l-0.6,0.6
					 M291,245.7h-0.1H291 M66.1,224.4v-14.5 M105,224.1l22.5-0.1l36.4-0.1 M104.4,224.2L82,224.3 M66.2,83.7l-0.1,44.4 M65.9,83.1
					l0.3-36.5v-0.1H0 M81.9,46.6H66.2v-0.1l0.2-23.2 M45,0.3L44.3,1 M45.3,0L45,0.3 M66.4,23.3v-22 M0,291.5l66.1-67.1l15.8-0.1
					 M66.1,209.9v-0.2 M163.9,46.5H82 M246.1,209.7v-81.6 M66.5-21.7l-0.1,0.1L45.3,0 M45,0.3L22.9,23 M0,209.9v81.6h81.9
					 M22.7,23.2l-0.2,0.2L0,46.5v81.6 M163.9,291.5H82 M164.1,223.9h-0.2 M164,291.4h82l0.1-0.1l21.7-22.1l0.9-0.9l10.9-11l0.7-0.7
					l9.9-10l0.8-0.8v-0.1v-0.1l10.1-10.2 M301.2,235.3l11.3-11.5v-0.1l-0.1-81.3 M312.4,142.4V142L313-22 M209.4,0L209.4,0
					 M290.5,1.1l-21.6,22 M246.1,46.5h-82 M246.1,128.1V46.5l22.5-22.9 M230.8-22h-81.9 M230.8-22H313L290.4,1.1 M148.6-22H66.7
					 M66.4,1.1v-22.7v-0.1"/>
				<line style="fill:none;stroke:#FF985C;stroke-linecap:round;stroke-linejoin:round;" x1="0" y1="209.7" x2="0" y2="128.1"/>
				
					<line style="fill:none;stroke:#FF985C;stroke-linecap:round;stroke-linejoin:round;" x1="66.1" y1="128.1" x2="66.1" y2="209.7"/>
			</g>
		</g>
	</g>
	<g transform="matrix( 1, 0, 0, 1, 0.5,22.5) " style="display:none;">
	</g>
	<g id="cube7_3_" transform="matrix( 0.9686431884765625, 0, 0, 0.9792633056640625, 1.55,209.2) " style="display:none;">
		<g style="display:inline;">
			<g id="Layer2_18_MEMBER_0_MEMBER_0_FILL_8_">
				<path style="fill:#FFE5BF;stroke:#050505;stroke-miterlimit:10;" d="M44.3-20.9v82.1h83.8v-82.1L44.3-20.9 M151.7-44.4
					l-23.5,23.5v82.1l23.5-23.5V-44.4z"/>
				<path style="fill:#FFFFFF;stroke:#050505;stroke-miterlimit:10;" d="M128.2-20.9l23.5-23.5H67.6L44.3-20.9H128.2z"/>
			</g>
		</g>
	</g>
	<g id="cube8_1_" transform="matrix( 1.019317626953125, 0, 0, 0.9792633056640625, 81.1,209.2) " style="display:none;">
		<g style="display:inline;">
			<g id="Layer2_19_MEMBER_0_MEMBER_0_FILL_8_">
				<path style="fill:#FFE5BF;stroke:#050505;stroke-miterlimit:10;" d="M123.2-20.9H43.6v82.1h79.7L123.2-20.9 M145.6-44.4
					l-22.3,23.5v82.1l22.3-23.5V-44.4z"/>
				<path style="fill:#FFFFFF;stroke:#050505;stroke-miterlimit:10;" d="M123.2-20.9l22.3-23.5H65.7L43.6-20.9H123.2z"/>
			</g>
		</g>
	</g>
	<g id="cube9_2_" transform="matrix( 0.9686431884765625, 0, 0, 0.9792633056640625, 163.75,209.2) " style="display:none;">
		<g style="display:inline;">
			<g id="Layer2_20_MEMBER_0_MEMBER_0_FILL_8_">
				<path style="fill:#FFE5BF;stroke:#050505;stroke-miterlimit:10;" d="M44.7-20.9v82.1h83.8v-82.1L44.7-20.9 M152-44.4l-23.5,23.5
					v82.1L152,37.7V-44.4z"/>
				<path style="fill:#FFFFFF;stroke:#050505;stroke-miterlimit:10;" d="M128.5-20.9L152-44.4H67.9L44.7-20.9H128.5z"/>
			</g>
		</g>
	</g>
	<g id="cube12_1_" transform="matrix( 0.9686431884765625, 0, 0, 0.9792633056640625, 1.55,209.2) " style="display:none;">
		<g style="display:inline;">
			<g id="Layer2_18_MEMBER_0_MEMBER_0_FILL_7_">
				<path style="fill:#FFE5BF;stroke:#050505;stroke-miterlimit:10;" d="M44.3-103.3v82.1h83.8v-82.1H44.3 M151.7-126.8l-23.5,23.5
					v82.1l23.5-23.5V-126.8z"/>
				<path style="fill:#FFFFFF;stroke:#050505;stroke-miterlimit:10;" d="M128.2-103.3l23.5-23.5H67.6l-23.3,23.5H128.2z"/>
			</g>
		</g>
	</g>
	<g id="cube11_1_" transform="matrix( 1.019317626953125, 0, 0, 0.9792633056640625, 81.1,209.2) " style="display:none;">
		<g style="display:inline;">
			<g id="Layer2_19_MEMBER_0_MEMBER_0_FILL_7_">
				<path style="fill:#FFE5BF;stroke:#050505;stroke-miterlimit:10;" d="M123.2-103.3H43.6v82.1h79.7L123.2-103.3 M145.6-126.8
					l-22.3,23.5v82.1l22.3-23.5V-126.8z"/>
				<path style="fill:#FFFFFF;stroke:#050505;stroke-miterlimit:10;" d="M123.2-103.3l22.3-23.5H65.7l-22.1,23.5H123.2z"/>
			</g>
		</g>
	</g>
	<g id="cube10_1_" transform="matrix( 0.9686431884765625, 0, 0, 0.9792633056640625, 163.75,209.2) " style="display:none;">
		<g style="display:inline;">
			<g id="Layer2_20_MEMBER_0_MEMBER_0_FILL_7_">
				<path style="fill:#FFE5BF;stroke:#050505;stroke-miterlimit:10;" d="M44.7-103.3v82.1h83.8v-82.1H44.7 M152-126.8l-23.5,23.5
					v82.1L152-44.7V-126.8z"/>
				<path style="fill:#FFFFFF;stroke:#050505;stroke-miterlimit:10;" d="M128.5-103.3l23.5-23.5H67.9l-23.3,23.5H128.5z"/>
			</g>
		</g>
	</g>
	<g id="cube21" transform="matrix( 0.9686431884765625, 0, 0, 0.9792633056640625, 1.55,209.2) " style="display:none;">
		<g style="display:inline;">
			<g id="Layer2_18_MEMBER_0_MEMBER_0_FILL_6_">
				<path style="fill:#FFE5BF;stroke:#050505;stroke-miterlimit:10;" d="M44.3-185.6v82.1h83.8v-82.1H44.3 M151.7-209.1l-23.5,23.5
					v82.1l23.5-23.5V-209.1z"/>
				<path style="fill:#FFFFFF;stroke:#050505;stroke-miterlimit:10;" d="M128.2-185.6l23.5-23.5H67.6l-23.3,23.5H128.2z"/>
			</g>
		</g>
	</g>
	<g id="cube20" transform="matrix( 1.019317626953125, 0, 0, 0.9792633056640625, 81.1,209.2) " style="display:none;">
		<g style="display:inline;">
			<g id="Layer2_19_MEMBER_0_MEMBER_0_FILL_6_">
				<path style="fill:#FFE5BF;stroke:#050505;stroke-miterlimit:10;" d="M123.2-185.6H43.6v82.1h79.7L123.2-185.6 M145.6-209.1
					l-22.3,23.5v82.1l22.3-23.5V-209.1z"/>
				<path style="fill:#FFFFFF;stroke:#050505;stroke-miterlimit:10;" d="M123.2-185.6l22.3-23.5H65.7l-22.1,23.5H123.2z"/>
			</g>
		</g>
	</g>
	<g id="cube19" transform="matrix( 0.9686431884765625, 0, 0, 0.9792633056640625, 163.75,209.2) " style="display:none;">
		<g style="display:inline;">
			<g id="Layer2_20_MEMBER_0_MEMBER_0_FILL_6_">
				<path style="fill:#FFE5BF;stroke:#050505;stroke-miterlimit:10;" d="M44.7-185.6v82.1h83.8v-82.1H44.7 M152-209.1l-23.5,23.5
					v82.1L152-127V-209.1z"/>
				<path style="fill:#FFFFFF;stroke:#050505;stroke-miterlimit:10;" d="M128.5-185.6l23.5-23.5H67.9l-23.3,23.5H128.5z"/>
			</g>
		</g>
	</g>
	<g id="cube4_6_" transform="matrix( 0.9686431884765625, 0, 0, 0.9792633056640625, 1.55,209.2) " style="display:none;">
		<g style="display:inline;">
			<g id="Layer2_18_MEMBER_0_MEMBER_0_FILL_5_">
				<path style="fill:#FFE5BF;stroke:#050505;stroke-miterlimit:10;" d="M22.7,0.6v82.1h83.8V0.6H22.7 M130-23L106.5,0.6v82.1
					L130,59.1V-23z"/>
				<path style="fill:#FFFFFF;stroke:#050505;stroke-miterlimit:10;" d="M106.5,0.6L130-23H45.9L22.7,0.6H106.5z"/>
			</g>
		</g>
	</g>
	<g id="cube5_2_" transform="matrix( 1.019317626953125, 0, 0, 0.9792633056640625, 81.1,209.2) " style="display:none;">
		<g style="display:inline;">
			<g id="Layer2_19_MEMBER_0_MEMBER_0_FILL_5_">
				<path style="fill:#FFE5BF;stroke:#050505;stroke-miterlimit:10;" d="M102.6,0.6H23v82.1h79.7L102.6,0.6 M125-23L102.6,0.6v82.1
					L125,59.1V-23z"/>
				<path style="fill:#FFFFFF;stroke:#050505;stroke-miterlimit:10;" d="M102.6,0.6L125-23H45.1L23,0.6H102.6z"/>
			</g>
		</g>
	</g>
	<g id="cube6_4_" transform="matrix( 0.9686431884765625, 0, 0, 0.9792633056640625, 163.75,209.2) " style="display:none;">
		<g style="display:inline;">
			<g id="Layer2_20_MEMBER_0_MEMBER_0_FILL_5_">
				<path style="fill:#FFE5BF;stroke:#050505;stroke-miterlimit:10;" d="M23,0.6v82.1h83.8V0.6H23 M130.3-23L106.8,0.6v82.1
					l23.5-23.5V-23z"/>
				<path style="fill:#FFFFFF;stroke:#050505;stroke-miterlimit:10;" d="M106.8,0.6L130.3-23H46.2L23,0.6H106.8z"/>
			</g>
		</g>
	</g>
	<g id="cube15" transform="matrix( 0.9686431884765625, 0, 0, 0.9792633056640625, 1.55,209.2) " style="display:none;">
		<g style="display:inline;">
			<g id="Layer2_18_MEMBER_0_MEMBER_0_FILL_4_">
				<path style="fill:#FFE5BF;stroke:#050505;stroke-miterlimit:10;" d="M22.7-81.8V0.3h83.8v-82.1L22.7-81.8 M130-105.4l-23.5,23.5
					V0.3L130-23.3V-105.4z"/>
				<path style="fill:#FFFFFF;stroke:#050505;stroke-miterlimit:10;" d="M106.5-81.8l23.5-23.5H45.9L22.7-81.8H106.5z"/>
			</g>
		</g>
	</g>
	<g id="cube14" transform="matrix( 1.019317626953125, 0, 0, 0.9792633056640625, 81.1,209.2) " style="display:none;">
		<g style="display:inline;">
			<g id="Layer2_19_MEMBER_0_MEMBER_0_FILL_4_">
				<path style="fill:#FFE5BF;stroke:#050505;stroke-miterlimit:10;" d="M102.6-81.8H23V0.3h79.7L102.6-81.8 M125-105.4l-22.3,23.5
					V0.3L125-23.3V-105.4z"/>
				<path style="fill:#FFFFFF;stroke:#050505;stroke-miterlimit:10;" d="M102.6-81.8l22.3-23.5H45.1L23-81.8H102.6z"/>
			</g>
		</g>
	</g>
	<g id="cube13_1_" transform="matrix( 0.9686431884765625, 0, 0, 0.9792633056640625, 163.75,209.2) " style="display:none;">
		<g style="display:inline;">
			<g id="Layer2_20_MEMBER_0_MEMBER_0_FILL_4_">
				<path style="fill:#FFE5BF;stroke:#050505;stroke-miterlimit:10;" d="M23-81.8V0.3h83.8v-82.1L23-81.8 M130.3-105.4l-23.5,23.5
					V0.3l23.5-23.5V-105.4z"/>
				<path style="fill:#FFFFFF;stroke:#050505;stroke-miterlimit:10;" d="M106.8-81.8l23.5-23.5H46.2L23-81.8H106.8z"/>
			</g>
		</g>
	</g>
	<g id="cube24" transform="matrix( 0.9686431884765625, 0, 0, 0.9792633056640625, 1.55,209.2) " style="display:none;">
		<g style="display:inline;">
			<g id="Layer2_18_MEMBER_0_MEMBER_0_FILL_3_">
				<path style="fill:#FFE5BF;stroke:#050505;stroke-miterlimit:10;" d="M22.7-164.1V-82h83.8v-82.1H22.7 M130-187.7l-23.5,23.5V-82
					l23.5-23.5V-187.7z"/>
				<path style="fill:#FFFFFF;stroke:#050505;stroke-miterlimit:10;" d="M106.5-164.1l23.5-23.5H45.9l-23.3,23.5H106.5z"/>
			</g>
		</g>
	</g>
	<g id="cube23" transform="matrix( 1.019317626953125, 0, 0, 0.9792633056640625, 81.1,209.2) " style="display:none;">
		<g style="display:inline;">
			<g id="Layer2_19_MEMBER_0_MEMBER_0_FILL_3_">
				<path style="fill:#FFE5BF;stroke:#050505;stroke-miterlimit:10;" d="M102.6-164.1H23V-82h79.7L102.6-164.1 M125-187.7
					l-22.3,23.5V-82l22.3-23.5V-187.7z"/>
				<path style="fill:#FFFFFF;stroke:#050505;stroke-miterlimit:10;" d="M102.6-164.1l22.3-23.5H45.1L23-164.1H102.6z"/>
			</g>
		</g>
	</g>
	<g id="cube22" transform="matrix( 0.9686431884765625, 0, 0, 0.9792633056640625, 163.75,209.2) " style="display:none;">
		<g style="display:inline;">
			<g id="Layer2_20_MEMBER_0_MEMBER_0_FILL_3_">
				<path style="fill:#FFE5BF;stroke:#020202;stroke-miterlimit:10;" d="M23-164.1V-82h83.8v-82.1H23 M130.3-187.7l-23.5,23.5V-82
					l23.5-23.5V-187.7z"/>
				<path style="fill:#FFFFFF;stroke:#020202;stroke-miterlimit:10;" d="M106.8-164.1l23.5-23.5H46.2L23-164.1H106.8z"/>
			</g>
		</g>
	</g>
	<g id="cube1_4_" transform="matrix( 0.9686431884765625, 0, 0, 0.9792633056640625, 1.55,209.2) " style="display:none;">
		<g style="display:inline;">
			<g id="Layer2_18_MEMBER_0_MEMBER_0_FILL">
				<path style="fill:#FFE5BF;stroke:#020202;stroke-miterlimit:10;" d="M-0.1,23v82.1h83.8V23H-0.1 M107.3-0.5L83.8,23v82.1
					l23.5-23.5V-0.5z"/>
				<path style="fill:#FFFFFF;stroke:#020202;stroke-miterlimit:10;" d="M83.8,23l23.5-23.5H23.2L-0.1,23H83.8z"/>
			</g>
		</g>
	</g>
	<g id="cube2_4_" transform="matrix( 1.019317626953125, 0, 0, 0.9792633056640625, 81.1,209.2) " style="display:none;">
		<g style="display:inline;">
			<g id="Layer2_19_MEMBER_0_MEMBER_0_FILL">
				<path style="fill:#FFE5BF;stroke:#020202;stroke-miterlimit:10;" d="M81,23H1.4v82.1H81V23 M103.4-0.5L81,23v82.1l22.3-23.5
					L103.4-0.5L103.4-0.5z"/>
				<path style="fill:#FFFFFF;stroke:#020202;stroke-miterlimit:10;" d="M81,23l22.3-23.5H23.5L1.4,23H81z"/>
			</g>
		</g>
	</g>
	<g id="cube3_4_" transform="matrix( 0.9686431884765625, 0, 0, 0.9792633056640625, 163.75,209.2) " style="display:none;">
		<g style="display:inline;">
			<g id="Layer2_20_MEMBER_0_MEMBER_0_FILL">
				<path style="fill:#FFE5BF;stroke:#050505;stroke-miterlimit:10;" d="M0.3,23v82.1h83.8V23H0.3 M107.6-0.5L84.1,23v82.1
					l23.5-23.5V-0.5z"/>
				<path style="fill:#FFFFFF;stroke:#050505;stroke-miterlimit:10;" d="M84.1,23l23.5-23.5H23.5L0.3,23H84.1z"/>
			</g>
		</g>
	</g>
	<g id="cube18_1_" transform="matrix( 0.9686431884765625, 0, 0, 0.9792633056640625, 1.55,209.2) " style="display:none;">
		<g style="display:inline;">
			<g id="Layer2_18_MEMBER_0_MEMBER_0_FILL_1_">
				<path style="fill:#FFE5BF;stroke:#020202;stroke-miterlimit:10;" d="M-0.1-59.4v82.1h83.8v-82.1H-0.1 M107.3-82.9L83.8-59.4
					v82.1l23.5-23.5V-82.9z"/>
				<path style="fill:#FFFFFF;stroke:#020202;stroke-miterlimit:10;" d="M83.8-59.4l23.5-23.5H23.2L-0.1-59.4H83.8z"/>
			</g>
		</g>
	</g>
	<g id="cube17_1_" transform="matrix( 1.019317626953125, 0, 0, 0.9792633056640625, 81.1,209.2) " style="display:none;">
		<g style="display:inline;">
			<g id="Layer2_19_MEMBER_0_MEMBER_0_FILL_1_">
				<path style="fill:#FFE5BF;stroke:#020202;stroke-miterlimit:10;" d="M81-59.4H1.4v82.1H81V-59.4 M103.4-82.9L81-59.4v82.1
					l22.3-23.5L103.4-82.9L103.4-82.9z"/>
				<path style="fill:#FFFFFF;stroke:#020202;stroke-miterlimit:10;" d="M81-59.4l22.3-23.5H23.5L1.4-59.4H81z"/>
			</g>
		</g>
	</g>
	<g id="cube16_1_" transform="matrix( 0.9686431884765625, 0, 0, 0.9792633056640625, 163.75,209.2) " style="display:none;">
		<g style="display:inline;">
			<g id="Layer2_20_MEMBER_0_MEMBER_0_FILL_1_">
				<path style="fill:#FFE5BF;stroke:#050505;stroke-miterlimit:10;" d="M0.3-59.4v82.1h83.8v-82.1H0.3 M107.6-82.9L84.1-59.4v82.1
					l23.5-23.5V-82.9z"/>
				<path style="fill:#FFFFFF;stroke:#050505;stroke-miterlimit:10;" d="M84.1-59.4l23.5-23.5H23.5L0.3-59.4H84.1z"/>
			</g>
		</g>
	</g>
	<g id="cube27" transform="matrix( 0.9686431884765625, 0, 0, 0.9792633056640625, 1.55,209.2) " style="display:none;">
		<g style="display:inline;">
			<g id="Layer2_18_MEMBER_0_MEMBER_0_FILL_2_">
				<path style="fill:#FFE5BF;stroke:#020202;stroke-miterlimit:10;" d="M-0.1-141.7v82.1h83.8v-82.1H-0.1 M107.3-165.2l-23.5,23.5
					v82.1l23.5-23.5V-165.2z"/>
				<path style="fill:#FFFFFF;stroke:#020202;stroke-miterlimit:10;" d="M83.8-141.7l23.5-23.5H23.2l-23.3,23.5H83.8z"/>
			</g>
		</g>
	</g>
	<g id="cube26" transform="matrix( 1.019317626953125, 0, 0, 0.9792633056640625, 81.1,209.2) " style="display:none;">
		<g style="display:inline;">
			<g id="Layer2_19_MEMBER_0_MEMBER_0_FILL_2_">
				<path style="fill:#FFE5BF;stroke:#050505;stroke-miterlimit:10;" d="M81-141.7H1.4v82.1H81V-141.7 M103.4-165.2L81-141.7v82.1
					l22.3-23.5L103.4-165.2L103.4-165.2z"/>
				<path style="fill:#FFFFFF;stroke:#050505;stroke-miterlimit:10;" d="M81-141.7l22.3-23.5H23.5L1.4-141.7H81z"/>
			</g>
		</g>
	</g>
	<g id="cube25" transform="matrix( 0.9686431884765625, 0, 0, 0.9792633056640625, 163.75,209.2) " style="display:none;">
		<g style="display:inline;">
			<g id="Layer2_20_MEMBER_0_MEMBER_0_FILL_2_">
				<path style="fill:#FFE5BF;stroke:#050505;stroke-miterlimit:10;" d="M0.3-141.7v82.1h83.8v-82.1H0.3 M107.6-165.2l-23.5,23.5
					v82.1l23.5-23.5V-165.2z"/>
				<path style="fill:#FFFFFF;stroke:#050505;stroke-miterlimit:10;" d="M84.1-141.7l23.5-23.5H23.5L0.3-141.7H84.1z"/>
			</g>
		</g>
	</g>
	<g transform="matrix( 1, 0, 0, 1, 0,0) ">
		<g>
			<path id="Layer0_0_1_STROKES_1_" style="fill:none;stroke:#FF985C;stroke-linecap:round;stroke-linejoin:round;" d="M246.1,229.9
				v81.5 M1,69.5h246.1 M246.6,70l-0.5,159.7"/>
		</g>
	</g>
	<g transform="matrix( 0.9887237548828125, 0, 0, 0.9899444580078125, 2.3,23.1) ">
		<g transform="matrix( 1, 0, 0, 1, 0,0) ">
			<g>
				
					<path id="Symbol_4_copy_0_Layer0_0_1_STROKES" style="fill:none;stroke:#FF985C;stroke-linecap:round;stroke-linejoin:round;" d="
					M268.6,23.6l-22.5,22.9 M314.8-20.8l-45.9,43.9"/>
			</g>
		</g>
	</g>
</g>
</svg>
