<?xml version="1.0" encoding="utf-8"?>
<svg version="1.1" id="Layer_1"  xmlns="http://www.w3.org/2000/svg"
	 x="0px" y="0px" viewBox="0 0 170 170" enable-background="new -0.5 -0.5 170 170" xml:space="preserve">
<g id="moreBlocksButtons">
	<g id="Scene_1_f1_1_">
		<g id="MovieClip_sprite_30_1_">
			<path fill="#999999" d="M154,129.977V66.865c-0.491-11.921-6.476-18.333-17.758-19.234c-2.751-4.309-2.848-9.017-0.199-14.025
				l0,0l0.295-1.103c0-0.501-0.096-0.801-0.295-1.202l-0.59-0.601l-0.193-0.2L134.18,30.2L22.117,30.1l-0.786,0.1l-0.491,0.2
				l-0.588,0.401c-0.295,0.201-0.491,0.501-0.588,0.902v0.1l0,0c-0.098,0.301-0.098,0.701,0,1.002v0.1l0.293,0.802
				c2.551,5.008,2.551,9.717-0.196,14.024C8.379,48.633,2.491,55.044,2,66.965v63.11c0.393,10.723,6.28,16.229,17.664,16.43v10.218
				c0.098,0.403,0.293,0.803,0.588,1.104l0.295,0.301l0.687,0.299h0.098c37.092,9.518,74.775,9.518,113.141,0l0.981-0.399
				l0.298-0.302l0.491-0.7l0.096-0.501v-0.603v-9.616C147.72,146.206,153.608,140.696,154,129.977"/>
			<path fill="#FFFFFF" d="M149.487,129.878V66.965c-0.394-9.516-5.301-14.525-14.622-14.927l-0.981-0.299l-0.786-0.603
				c-3.727-5.108-4.612-10.518-2.55-16.428l-105.39-0.1c2.061,5.91,1.275,11.42-2.551,16.528l-0.688,0.603l-0.981,0.299
				c-9.322,0.501-14.229,5.51-14.62,14.927v62.813c0.489,8.313,5.593,12.32,15.308,11.921l1.177,0.298l0.883,0.903
				c0.196,0.302,0.294,0.701,0.294,1.101v10.319c35.424,8.817,71.34,8.817,107.845,0v-10.218c0-0.399,0.097-0.803,0.292-1.104
				l0.882-0.9l1.18-0.299C143.894,142.199,148.997,138.191,149.487,129.878"/>
			<path fill="#CC66FF" d="M143.012,11.868c-0.099,2.705-6.379,5.109-18.745,7.111c-8.929,1.503-19.232,2.405-30.812,2.906
				l-14.424,0.2c-17.663,0-32.775-1.001-45.237-3.105c-9.028-1.502-14.818-3.205-17.271-5.109c-0.883-0.701-1.374-1.402-1.472-2.204
				l-0.197,24.644c0.197,0.701,0.688,1.403,1.571,2.104c2.452,1.904,8.242,3.707,17.368,5.109
				c12.461,2.104,27.574,3.105,45.237,3.105l14.424-0.201c11.58-0.4,21.884-1.401,30.812-2.904
				c12.366-2.004,18.646-4.508,18.745-7.313V11.868"/>
			<path fill="#CC66FF" d="M124.267,18.88c12.366-2.004,18.646-4.407,18.745-7.113v-0.399c-0.099-2.906-6.279-5.311-18.745-7.414
				c-12.46-2.004-27.572-3.105-45.236-3.105c-17.663,0-32.775,1.002-45.237,3.105c-12.365,2.004-18.645,4.508-18.743,7.414v0.1
				c0,0.8,0.491,1.502,1.472,2.203c2.452,1.904,8.243,3.606,17.271,5.109c12.461,2.104,27.574,3.105,45.237,3.105l14.424-0.2
				C105.035,21.384,115.24,20.382,124.267,18.88"/>
			<path vector-effect="non-scaling-stroke" fill="none" stroke="#990099" stroke-linecap="round" stroke-linejoin="round" d="
				M143.012,36.211V11.868v-0.401c-0.099-2.906-6.279-5.309-18.745-7.413c-12.46-2.004-27.572-3.107-45.236-3.107
				c-17.663,0-32.775,1.001-45.237,3.107c-12.365,2.002-18.645,4.507-18.743,7.413v0.1l-0.197,24.644
				c0.197,0.701,0.688,1.402,1.57,2.104c2.454,1.902,8.244,3.706,17.37,5.109c12.461,2.104,27.574,3.105,45.237,3.105l14.424-0.201
				c11.58-0.401,21.883-1.403,30.812-2.904C136.633,41.52,142.913,39.115,143.012,36.211"/>
			<path vector-effect="non-scaling-stroke" fill="none" stroke="#990099" stroke-linecap="round" stroke-linejoin="round" d="
				M143.012,11.868c-0.099,2.705-6.379,5.109-18.745,7.111c-8.929,1.503-19.232,2.405-30.812,2.906l-14.424,0.2
				c-17.663,0-32.775-1.001-45.237-3.105c-9.028-1.502-14.818-3.205-17.271-5.109c-0.883-0.701-1.374-1.402-1.472-2.204"/>
			<g id="MovieClip_sprite_33_31_">
				<path fill="#990099" d="M20.547,18.88v18.032h2.256V18.88H20.547"/>
			</g>
			<g id="MovieClip_sprite_33_30_">
				<path fill="#990099" d="M28.103,21.786v18.032h2.256V21.786H28.103"/>
			</g>
			<g id="MovieClip_sprite_33_29_">
				<path fill="#990099" d="M35.757,22.887v18.032h2.256V22.887H35.757"/>
			</g>
			<g id="MovieClip_sprite_33_28_">
				<path fill="#990099" d="M43.312,24.089v18.032h2.258V24.089H43.312"/>
			</g>
			<g id="MovieClip_sprite_33_27_">
				<path fill="#990099" d="M50.868,24.791v18.031h2.257V24.791H50.868"/>
			</g>
			<g id="MovieClip_sprite_33_26_">
				<path fill="#990099" d="M58.423,25.691v18.032h2.258V25.691H58.423"/>
			</g>
			<g id="MovieClip_sprite_33_25_">
				<path fill="#990099" d="M66.078,25.893v18.031h2.257V25.893H66.078"/>
			</g>
			<g id="MovieClip_sprite_33_24_">
				<path fill="#990099" d="M73.536,26.394v18.031h2.258V26.394H73.536"/>
			</g>
			<g id="MovieClip_sprite_33_23_">
				<path fill="#990099" d="M137.124,18.88v18.032h-2.258V18.88H137.124"/>
			</g>
			<g id="MovieClip_sprite_33_22_">
				<path fill="#990099" d="M129.468,21.786v18.032h-2.258V21.786H129.468"/>
			</g>
			<g id="MovieClip_sprite_33_21_">
				<path fill="#990099" d="M121.913,22.887v18.032h-2.255V22.887H121.913"/>
			</g>
			<g id="MovieClip_sprite_33_20_">
				<path fill="#990099" d="M114.358,24.089v18.032H112.1V24.089H114.358"/>
			</g>
			<g id="MovieClip_sprite_33_19_">
				<path fill="#990099" d="M106.899,24.791v18.031h-2.258V24.791H106.899"/>
			</g>
			<g id="MovieClip_sprite_33_18_">
				<path fill="#990099" d="M99.246,25.691v18.032h-2.258V25.691H99.246"/>
			</g>
			<g id="MovieClip_sprite_33_17_">
				<path fill="#990099" d="M91.689,25.893v18.031h-2.257V25.893H91.689"/>
			</g>
			<g id="MovieClip_sprite_33_16_">
				<path fill="#990099" d="M84.134,26.394v18.031h-2.256V26.394H84.134"/>
			</g>
			<g id="MovieClip_sprite_32_1_">
				<path fill="#999999" d="M123.092,133.081l-0.789-0.2H33.892c-0.295,0-0.589,0.102-0.786,0.2
					c-0.196,0.101-0.294,0.301-0.294,0.602v36.366c0,0.199,0.098,0.399,0.294,0.599l0.786,0.2h88.511l0.689-0.2l0.096-0.098v-37.168
					L123.092,133.081"/>
				<path fill="#FFFFFF" d="M121.129,169.246v-34.862H34.971v34.862H121.129"/>
			</g>
			<g id="Graphic_text_96">
				<path d="M101.895,150.214c0.588,0,0.883-0.603,0.883-1.705c0-0.603-0.197-1.002-0.588-1.202c-0.295-0.2-0.786-0.301-1.375-0.301
					c-1.57,0-2.748,0.101-3.533,0.399c-1.276,0.402-1.962,1.306-1.962,2.505c0,0.903,0.393,1.604,1.276,2.308
					c0.293,0.196,1.177,0.6,2.452,1.198c0.884,0.402,1.276,0.806,1.276,1.104c0,0.501-0.686,0.701-1.865,0.701
					c-0.293,0-0.687-0.099-1.275-0.302c-0.491-0.196-0.883-0.196-1.179-0.196c-0.686,0-1.079,0.298-1.079,0.9
					c0,0.7,0.491,1.201,1.375,1.503c0.686,0.199,1.472,0.399,2.256,0.399c1.179,0,2.16-0.2,2.944-0.603
					c0.981-0.6,1.472-1.401,1.472-2.505c0-0.799-0.491-1.503-1.375-2.2c-0.391-0.304-1.275-0.805-2.452-1.404
					c-0.884-0.402-1.276-0.701-1.276-1.002c0-0.402,0.686-0.6,2.158-0.6c0.295,0,0.491,0,0.786,0.099
					C100.914,150.011,101.306,150.214,101.895,150.214"/>
				<path d="M93.555,146.904c-0.295-0.197-0.59-0.399-0.884-0.399c-0.393,0-0.688,0.101-0.981,0.399
					c-1.667,1.705-2.944,2.907-3.828,3.607c0-0.799,0-1.604,0-2.605c0.1-1.002,0.1-1.902,0.1-2.604c0-0.301,0-0.6,0-1.002
					c0-0.399,0-0.7,0-1.002c0-0.399-0.1-0.7-0.393-0.9c-0.197-0.199-0.588-0.402-0.981-0.402c-0.393,0-0.688,0.102-0.883,0.402
					c-0.196,0.2-0.393,0.501-0.393,0.9c0,0.2,0,0.501,0,0.903c0,0.4,0,0.701,0,1.002c0,0.901,0,1.902,0,3.104
					c0,1.201,0,2.203,0,3.104c0,0.501,0,1.204-0.098,2.206c-0.098,1.002-0.098,1.702-0.098,2.203c0,1.002,0.393,1.503,1.275,1.503
					c0.393,0,0.688-0.102,0.883-0.402c0.197-0.2,0.393-0.501,0.393-0.9c0-0.8,0-1.604,0.098-2.505
					c0.295-0.199,0.688-0.501,1.178-0.799c0,0.099,0.49,0.697,1.471,1.902c0.59,0.799,1.08,1.401,1.375,2.004
					c0.196,0.501,0.588,0.7,1.079,0.7c0.393,0,0.688-0.102,0.981-0.301c0.295-0.2,0.393-0.501,0.393-0.9
					c0-0.4-0.491-1.205-1.374-2.505l-1.963-2.505c0.981-0.9,1.865-1.705,2.651-2.605c0.195-0.299,0.391-0.501,0.391-0.8
					C93.946,147.507,93.75,147.208,93.555,146.904"/>
				<path d="M83.054,150.011c0.196-0.199,0.294-0.501,0.294-0.799c0-0.501-0.49-1.002-1.57-1.503
					c-0.882-0.304-1.57-0.501-2.158-0.501c-1.275,0-2.454,0.8-3.435,2.302c-0.882,1.304-1.275,2.606-1.275,3.809
					c0,1.303,0.491,2.403,1.472,3.205c0.882,0.802,2.061,1.201,3.335,1.201c0.589,0,1.375-0.199,2.258-0.599
					c1.079-0.501,1.57-1.002,1.57-1.503c0-0.302-0.098-0.603-0.393-0.803c-0.196-0.199-0.491-0.402-0.884-0.402
					c-0.196,0-0.491,0.203-1.079,0.501c-0.588,0.302-1.079,0.501-1.57,0.501c-0.687,0-1.275-0.199-1.766-0.501
					c-0.491-0.399-0.688-0.9-0.688-1.503c0-0.697,0.295-1.502,0.786-2.403c0.589-0.9,1.079-1.401,1.57-1.401
					c0.687,0,1.275,0.2,1.668,0.501c0.393,0.299,0.688,0.399,0.981,0.399C82.563,150.313,82.858,150.214,83.054,150.011"/>
				<path d="M72.947,148.908c-0.786-1.002-1.767-1.503-2.944-1.503c-1.668,0-2.944,0.603-3.826,1.905
					c-0.786,1.101-1.179,2.305-1.081,3.706c0,1.503,0.491,2.606,1.374,3.507c0.786,0.802,1.767,1.201,2.944,1.201
					c1.472,0,2.551-0.599,3.435-1.702c0.784-1.002,1.079-2.302,1.079-3.706S73.536,149.812,72.947,148.908 M71.377,152.915
					c0,0.704-0.295,1.307-0.686,1.706c-0.393,0.399-0.884,0.501-1.375,0.501c-0.393,0-0.786-0.203-1.079-0.501
					c-0.393-0.399-0.59-1.002-0.59-1.706c0-0.799,0.197-1.502,0.59-2.102c0.392-0.701,0.981-1.002,1.766-1.002
					C70.984,149.91,71.475,150.912,71.377,152.915"/>
				<path d="M63.135,143.299c0-0.399-0.099-0.7-0.393-0.9c-0.197-0.199-0.588-0.301-0.883-0.301s-0.687,0.102-0.884,0.301
					c-0.293,0.2-0.391,0.501-0.391,0.9v12.923c0,0.403,0.098,0.701,0.391,0.904c0.197,0.199,0.589,0.399,0.981,0.399
					c0.884,0,1.276-0.603,1.276-1.804v-12.423"/>
				<path d="M53.812,147.006c-0.393,0-0.784,0.101-1.177,0.202c-0.393,0.099-0.883,0.299-1.276,0.501v-3.607c0-0.102,0-0.2,0-0.399
					c0-0.203,0-0.302,0-0.403c0-0.7-0.294-1.1-0.981-1.1c-0.491,0-0.882,0.199-1.08,0.7c-0.195,0.302-0.293,0.701-0.293,1.202
					v10.621c0,0.196,0,0.399,0,0.697c0,0.302,0,0.501,0,0.704c0,0.298,0.098,0.599,0.392,0.9c0.197,0.199,0.491,0.301,0.883,0.301
					c0.393,0,0.589-0.102,0.884-0.301c0.786,0.301,1.57,0.501,2.453,0.501c1.472,0,2.747-0.501,3.729-1.503s1.472-2.204,1.472-3.706
					c0-1.404-0.393-2.604-1.275-3.605C56.461,147.607,55.284,147.006,53.812,147.006 M55.579,150.214
					c0.392,0.501,0.588,1.199,0.588,2.004c0,0.799-0.295,1.503-0.786,2.004s-1.177,0.799-1.962,0.799
					c-0.589,0-1.275-0.2-2.159-0.501c0-2.105,0-3.405,0-4.008c0.588-0.399,0.981-0.7,1.472-0.9c0.393-0.202,0.786-0.301,1.079-0.301
					C54.597,149.409,55.088,149.713,55.579,150.214"/>
			</g>
			<g id="Graphic_text_95">
				<path fill="#990099" d="M103.465,7.66c0-1.501-0.393-2.904-1.079-4.006c-0.884-1.303-2.159-2.003-3.729-2.003
					c-1.669,0-3.042,0.701-3.926,2.203c-0.786,1.202-1.177,2.605-1.177,4.208c0,1.904,0.293,3.407,0.882,4.608
					c0.884,1.603,2.16,2.405,4.023,2.405c1.669,0,2.944-0.601,3.828-1.904C102.974,12.068,103.465,10.164,103.465,7.66
					 M100.423,4.955c0.393,0.702,0.588,1.704,0.588,3.005c0,1.703-0.196,3.006-0.687,3.806c-0.491,0.802-1.177,1.203-2.061,1.203
					c-1.079,0-1.865-0.601-2.258-1.804c-0.195-0.801-0.391-1.803-0.391-3.206c0-1.002,0.196-1.904,0.687-2.704
					c0.588-0.902,1.275-1.403,2.158-1.403C99.441,3.953,100.03,4.254,100.423,4.955"/>
				<path fill="#990099" d="M88.55,7.26c-0.786,0.501-1.472,1.002-2.258,1.503c-0.784,0.501-1.373,1.102-1.766,1.603
					c-0.491,0.701-0.688,1.603-0.688,2.604c0,0.501,0.099,1.002,0.197,1.202c0.196,0.401,0.491,0.601,0.981,0.601
					c0.098,0,0.196,0,0.293,0c0.098,0,0.197,0,0.295,0c0.196,0,0.589,0,0.981-0.1c0.393-0.1,0.784-0.1,0.981-0.1h2.454
					c0.098,0,0.293,0,0.588,0.1c0.293,0,0.491,0,0.588,0c0.294,0,0.589-0.1,0.785-0.301c0.197-0.2,0.295-0.501,0.295-0.801
					c0-0.401-0.295-0.802-0.884-1.002c-0.491-0.2-0.981-0.301-1.472-0.301c-0.49,0-1.373,0-2.551,0.102
					c-0.588,0.1-0.981,0.1-1.373,0.1c0.098-0.902,0.687-1.704,1.667-2.404c0.687-0.401,1.375-0.902,2.159-1.302
					c0.688-0.501,1.276-1.002,1.57-1.503c0.491-0.702,0.688-1.503,0.688-2.504c0-0.902-0.491-1.703-1.375-2.305
					c-0.786-0.501-1.57-0.8-2.551-0.8c-0.786,0-1.57,0.2-2.257,0.601c-0.491,0.301-1.08,0.701-1.766,1.303
					c-0.295,0.2-0.393,0.501-0.393,0.9c0,0.301,0.098,0.501,0.393,0.702c0.195,0.2,0.491,0.2,0.786,0.2
					c0.195,0,0.686-0.301,1.373-0.802c0.688-0.5,1.276-0.801,1.865-0.801c0.295,0,0.687,0.1,0.981,0.301
					c0.393,0.2,0.589,0.399,0.589,0.601C89.825,5.857,89.334,6.659,88.55,7.26"/>
				<path fill="#990099" d="M72.063,7.66c0-1.501-0.393-2.904-1.079-4.006c-0.884-1.303-2.159-2.003-3.729-2.003
					c-1.669,0-3.042,0.701-3.925,2.203c-0.786,1.202-1.177,2.605-1.177,4.208c0,1.904,0.293,3.407,0.882,4.608
					c0.883,1.603,2.16,2.405,4.023,2.405c1.669,0,2.944-0.601,3.828-1.904C71.671,12.068,72.063,10.164,72.063,7.66 M69.709,7.96
					c0,1.703-0.197,3.006-0.688,3.806c-0.491,0.802-1.177,1.203-2.061,1.203c-1.079,0-1.865-0.601-2.256-1.804
					c-0.197-0.801-0.393-1.803-0.393-3.206c0-1.002,0.196-1.904,0.687-2.704c0.589-0.902,1.276-1.403,2.159-1.403
					c0.883,0,1.472,0.301,1.865,1.002C69.512,5.657,69.709,6.659,69.709,7.96"/>
				<path fill="#990099" d="M74.615,11.166c0.295,0.201,0.588,0.201,0.884,0.201c1.962,0,3.337,0,4.121-0.101
					c0.883-0.1,1.276-0.4,1.276-1c0-0.401-0.197-0.603-0.491-0.802c-0.197-0.2-0.59-0.2-0.884-0.2c-0.491,0-1.079,0-1.962,0
					c-0.884,0-1.57,0-1.963,0c-0.293,0-0.588,0.1-0.883,0.3c-0.294,0.201-0.491,0.401-0.491,0.802
					C74.222,10.665,74.321,10.866,74.615,11.166"/>
				<path fill="#990099" d="M54.597,5.757c0.196,0,0.491-0.201,0.981-0.5v7.512c-0.099,0-0.197,0-0.393,0
					c-1.177,0-1.767,0.401-1.767,1.102c0,0.702,0.491,1.002,1.57,1.002h3.337c0.295,0,0.588-0.1,0.786-0.3
					c0.196-0.201,0.293-0.501,0.293-0.802c0-0.3-0.098-0.601-0.293-0.801c-0.197-0.201-0.491-0.301-0.786-0.301h-0.588v-2.004
					c0-2.204,0-4.006,0.098-5.209c0.098-1.202,0.098-2.204,0.098-2.805c0-0.601-0.293-0.902-0.784-0.902
					c-0.393,0-0.786,0.2-1.178,0.501l-1.961,1.503c-0.393,0.301-0.59,0.701-0.59,1.002c0,0.299,0.099,0.601,0.393,0.8
					C54.009,5.657,54.302,5.757,54.597,5.757"/>
			</g>
			<g id="MovieClip_sprite_31_5_">
				<path fill="#0099FF" d="M58.621,103.029v25.346H33.597v-25.346H58.621 M49.985,115.751c0-1.102-0.393-2.004-1.081-2.805
					c-0.784-0.802-1.668-1.201-2.845-1.201c-1.08,0-1.963,0.399-2.749,1.201c-0.784,0.801-1.177,1.703-1.177,2.805
					c0,1.104,0.393,2.004,1.177,2.806c0.786,0.802,1.669,1.201,2.749,1.201c1.079,0,2.061-0.399,2.845-1.201
					C49.592,117.755,49.985,116.854,49.985,115.751"/>
				<path fill="#0099FF" d="M43.704,118.154c-0.686-0.698-0.981-1.503-0.981-2.403c0-1.002,0.295-1.803,0.981-2.403
					c0.688-0.702,1.472-1.002,2.356-1.002c0.981,0,1.766,0.3,2.355,1.002c0.687,0.7,0.98,1.503,0.98,2.403s-0.293,1.705-0.98,2.403
					c-0.688,0.603-1.472,0.903-2.355,0.903C45.176,119.156,44.392,118.757,43.704,118.154"/>
				<path fill="#0099FF" d="M54.989,93.411c-0.687,0.302-1.57,0.401-2.649,0.401c-0.981,0-1.863-0.1-2.649-0.401
					c-0.393-0.199-0.687-0.299-0.884-0.501v-0.4l0.884-0.501c0.687-0.3,1.57-0.399,2.649-0.399c1.08,0,1.865,0.1,2.649,0.399
					l0.786,0.401v0.5C55.676,93.112,55.381,93.312,54.989,93.411"/>
				<path fill="#0099FF" d="M55.186,94.013l0.588-0.3v0.3h11.481l-8.439,8.416h-25.12l11.677-8.016h3.335v-0.802l0.786,0.301
					c0.784,0.302,1.668,0.501,2.845,0.501C53.518,94.413,54.5,94.313,55.186,94.013 M52.339,98.721L52.339,98.721l-1.472-0.1
					c-0.491,0-0.882-0.101-1.177-0.3l-0.884-0.401v0.701l0.589,0.301c0.786,0.3,1.669,0.399,2.846,0.399
					c1.079,0,2.061-0.1,2.846-0.399l0.491-0.201V98.02c-0.099,0.101-0.295,0.2-0.59,0.302c-0.392,0.199-0.784,0.199-1.275,0.3
					L52.339,98.721"/>
				<path fill="#0099FF" d="M68.138,119.258l-8.929,9.017v-25.146l8.929-9.017V119.258 M65.096,108.739
					c-0.392-0.802-0.785-1.203-1.373-1.203s-1.079,0.401-1.374,1.203c-0.295,0.701-0.491,1.503-0.491,2.505
					c0,1,0.196,1.803,0.491,2.503c0.393,0.802,0.883,1.203,1.374,1.104c0.588,0,0.981-0.302,1.373-1.104
					c0.393-0.7,0.491-1.503,0.491-2.503C65.587,110.242,65.391,109.44,65.096,108.739"/>
				<path fill="#0099FF" d="M64.507,109.039c0.295,0.603,0.491,1.402,0.491,2.205c0,0.9-0.196,1.603-0.491,2.303
					c-0.196,0.501-0.491,0.803-0.882,0.803c-0.393,0-0.59-0.302-0.884-0.803c-0.295-0.601-0.491-1.402-0.491-2.303
					c0-0.902,0.196-1.604,0.491-2.205c0.196-0.501,0.491-0.801,0.884-0.801C64.017,108.238,64.312,108.438,64.507,109.039"/>
			</g>
			<g id="MovieClip_sprite_31_4_">
				<path fill="#00CC00" d="M88.647,65.061H63.625v25.345h25.022V65.061 M76.087,73.777c1.079,0,2.061,0.401,2.749,1.102
					c0.784,0.802,1.177,1.705,1.177,2.806s-0.393,2.004-1.177,2.804c-0.786,0.803-1.669,1.202-2.749,1.202s-1.963-0.399-2.747-1.202
					c-0.786-0.8-1.179-1.702-1.179-2.804s0.393-2.104,1.179-2.806C74.124,74.178,75.008,73.777,76.087,73.777"/>
				<path fill="#00CC00" d="M73.731,80.088c0.688,0.702,1.472,1.002,2.355,1.002c0.981,0,1.767-0.3,2.355-1.002
					c0.687-0.701,0.981-1.401,0.981-2.403s-0.295-1.804-0.981-2.405c-0.688-0.701-1.472-1.002-2.355-1.002
					c-0.884,0-1.766,0.301-2.355,1.002c-0.589,0.701-0.98,1.502-0.98,2.405C72.849,78.687,73.143,79.486,73.731,80.088"/>
				<path fill="#00CC00" d="M98.167,68.667c-0.295,0.702-0.393,1.603-0.393,2.706c0,1.002,0.098,1.902,0.393,2.604
					c0.196,0.399,0.293,0.701,0.491,0.801h0.391l0.491-0.801c0.295-0.702,0.393-1.603,0.393-2.604s-0.098-1.904-0.393-2.706
					l-0.391-0.801h-0.491C98.46,68.067,98.264,68.268,98.167,68.667"/>
				<path fill="#00CC00" d="M97.577,68.468l0.295-0.601h-0.295V56.246l-8.243,8.516v25.445l7.851-11.821v-3.406h0.784l-0.293-0.801
					c-0.295-0.802-0.491-1.703-0.491-2.804C97.185,70.27,97.283,69.269,97.577,68.468 M92.964,71.374L92.964,71.374l0.1,1.501
					c0,0.501,0.098,0.902,0.293,1.203l0.393,0.8h-0.686l-0.295-0.601c-0.295-0.801-0.393-1.703-0.393-2.805
					c0-1.102,0.098-2.104,0.393-2.905l0.195-0.501h0.688c-0.098,0.1-0.197,0.301-0.295,0.601c-0.196,0.401-0.293,0.802-0.293,1.303
					L92.964,71.374"/>
				<path fill="#00CC00" d="M72.652,55.445l-8.831,9.016h24.826l8.929-9.016H72.652 M83.054,58.55
					c0.785,0.401,1.177,0.801,1.177,1.403c0,0.601-0.393,1-1.177,1.402c-0.686,0.301-1.472,0.501-2.453,0.501
					s-1.865-0.2-2.551-0.501c-0.786-0.401-1.177-0.902-1.08-1.402c0-0.602,0.294-1.001,1.08-1.403
					c0.686-0.301,1.57-0.501,2.551-0.501S82.368,58.149,83.054,58.55"/>
				<path fill="#00CC00" d="M82.759,59.051c-0.588-0.301-1.373-0.501-2.256-0.501c-0.883,0-1.667,0.2-2.258,0.501
					c-0.49,0.2-0.784,0.501-0.784,0.902c0,0.3,0.294,0.601,0.784,0.901c0.59,0.301,1.375,0.501,2.258,0.501
					c0.884,0,1.57-0.2,2.256-0.501c0.491-0.2,0.786-0.501,0.884-0.901C83.545,59.552,83.348,59.251,82.759,59.051"/>
			</g>
			<g id="MovieClip_sprite_31_3_">
				<path fill="#CC33FF" d="M94.437,101.526h25.022v25.347H94.437V101.526 M106.998,110.242c-1.08,0-2.061,0.399-2.747,1.102
					c-0.786,0.801-1.179,1.703-1.179,2.805s0.393,2.002,1.179,2.807c0.784,0.8,1.667,1.199,2.747,1.199
					c1.079,0,1.962-0.399,2.747-1.199c0.786-0.805,1.178-1.705,1.178-2.807s-0.393-2.104-1.178-2.805
					C108.96,110.642,108.077,110.242,106.998,110.242"/>
				<path fill="#CC33FF" d="M109.353,116.553c-0.688,0.701-1.472,1.002-2.355,1.002c-0.981,0-1.766-0.301-2.356-1.002
					c-0.686-0.7-0.981-1.402-0.981-2.404s0.295-1.803,0.981-2.403c0.688-0.702,1.472-1.002,2.356-1.002
					c0.883,0,1.767,0.3,2.355,1.002c0.588,0.7,0.981,1.501,0.981,2.403C110.334,115.15,109.941,115.953,109.353,116.553"/>
				<path fill="#CC33FF" d="M84.919,105.133c0.293,0.701,0.391,1.603,0.391,2.704c0,1.002-0.098,1.904-0.391,2.604
					c-0.197,0.401-0.295,0.701-0.491,0.803h-0.393l-0.491-0.803c-0.295-0.7-0.393-1.603-0.393-2.604s0.098-1.903,0.393-2.704
					l0.393-0.802h0.491C84.625,104.431,84.82,104.731,84.919,105.133"/>
				<path fill="#CC33FF" d="M85.508,104.932l-0.295-0.601h0.295v-11.62l8.242,8.515v25.444l-7.851-11.819v-3.407h-0.785l0.294-0.802
					c0.295-0.801,0.491-1.702,0.491-2.805C85.899,106.636,85.801,105.733,85.508,104.932 M90.12,107.837L90.12,107.837l-0.098,1.503
					c0,0.501-0.1,0.902-0.295,1.202l-0.393,0.802h0.688l0.293-0.601c0.295-0.803,0.393-1.704,0.393-2.806
					c0-1.103-0.098-2.104-0.393-2.904l-0.196-0.501h-0.688c0.099,0.1,0.197,0.3,0.295,0.601c0.195,0.401,0.295,0.801,0.295,1.302
					L90.12,107.837"/>
				<path fill="#CC33FF" d="M110.432,91.909l8.831,9.017H94.437l-8.929-9.017H110.432 M100.03,95.015
					c-0.784,0.4-1.177,0.802-1.177,1.402s0.393,1.002,1.177,1.403c0.688,0.3,1.472,0.501,2.454,0.501s1.865-0.201,2.551-0.501
					c0.786-0.401,1.178-0.902,1.079-1.403c0-0.601-0.293-1.002-1.079-1.402c-0.687-0.3-1.57-0.501-2.551-0.501
					C101.6,94.514,100.718,94.613,100.03,95.015"/>
				<path fill="#CC33FF" d="M100.325,95.516c0.589-0.3,1.375-0.501,2.256-0.501c0.884,0,1.669,0.201,2.258,0.501
					c0.491,0.201,0.784,0.501,0.784,0.901c0,0.302-0.293,0.601-0.784,0.902c-0.588,0.3-1.374,0.501-2.258,0.501
					c-0.882,0-1.57-0.201-2.256-0.501c-0.491-0.201-0.786-0.501-0.883-0.902C99.539,96.017,99.834,95.717,100.325,95.516"/>
			</g>
		</g>
		<g id="Graphic_shape_61_2_">
			<path fill="#FFFFFF" d="M44.293,168.244h65.747v-34.26H44.293V168.244"/>
		</g>
		<g id="Graphic_text_94">
			<path d="M92.474,137.989c-1.177,0-2.061,0.501-2.845,1.404c-0.588,0.802-0.883,1.804-0.883,3.005
				c0,1.101,0.393,1.902,1.177,2.505c0.688,0.501,1.57,0.802,2.749,0.802c0.784,0,1.472-0.202,2.061-0.501
				c0.785-0.301,1.177-0.703,1.177-1.303c0-0.501-0.196-0.7-0.687-0.7c-0.295,0-0.588,0.098-0.981,0.298
				c-0.393,0.301-0.981,0.402-1.57,0.402c-0.393,0-0.786-0.102-1.079-0.199c-0.295-0.102-0.588-0.302-0.786-0.501l2.355-1.104
				c0.784-0.399,1.275-0.603,1.57-0.9c0.589-0.399,0.884-0.9,0.884-1.401c0-0.704-0.393-1.205-1.08-1.604
				C93.946,138.09,93.26,137.989,92.474,137.989 M90.61,141.396c0.196-0.599,0.393-1.002,0.687-1.303
				c0.295-0.298,0.687-0.399,1.079-0.399c0.491,0,0.981,0.102,1.276,0.298c-0.393,0.203-0.883,0.501-1.472,0.806
				C91.689,140.994,91.199,141.197,90.61,141.396"/>
			<path d="M88.059,140.297c0-0.102,0-0.305,0-0.501c0-1.205-0.491-1.807-1.374-1.807c-1.08,0-1.963,0.304-2.846,0.903
				c-0.098-0.501-0.392-0.803-0.882-0.803c-0.295,0-0.491,0.102-0.688,0.302c-0.196,0.199-0.293,0.402-0.293,0.7
				c0,0.102,0,0.399,0,0.704c0,0.298,0,0.501,0,0.697v4.61c0,0.301,0.098,0.501,0.196,0.7c0.197,0.2,0.393,0.302,0.688,0.302
				c0.294,0,0.49-0.102,0.687-0.302c0.196-0.199,0.294-0.399,0.294-0.7v-3.608c0.49-0.9,1.276-1.503,2.257-1.601l0.098,0.7
				c0,0.603,0.295,0.9,0.883,0.9C87.764,141.299,88.059,140.994,88.059,140.297"/>
			<path d="M88.647,155.122c0-0.302-0.098-0.501-0.295-0.704c-0.196-0.196-0.391-0.298-0.687-0.298c-0.295,0-0.49,0.102-0.686,0.298
				c-0.197,0.203-0.295,0.402-0.295,0.704c0,0.199,0,0.501,0,0.7c0,0.302,0.098,0.501,0.098,0.701c0,0.7,0,1.401-0.098,2.305
				c0,0.9,0,1.702,0,2.403c0,0.402,0,0.903-0.098,1.602c0,0.703-0.098,1.306-0.098,1.705c0,0.8,0.293,1.202,0.981,1.202
				c0.293,0,0.588-0.099,0.686-0.302c0.196-0.199,0.295-0.399,0.295-0.7c0-0.6,0-1.202,0.098-1.805
				c0.293-0.199,0.588-0.399,0.882-0.7c0,0,0.393,0.501,1.178,1.404c0.392,0.6,0.784,1.101,0.981,1.503
				c0.196,0.399,0.491,0.501,0.882,0.501c0.295,0,0.49-0.102,0.688-0.304c0.196-0.197,0.293-0.4,0.293-0.698
				c0-0.304-0.391-0.903-1.079-1.905l-1.472-1.804c0.786-0.701,1.472-1.401,1.963-2.004c0.197-0.2,0.295-0.399,0.295-0.701
				c0-0.301-0.098-0.399-0.295-0.7c-0.196-0.2-0.491-0.302-0.687-0.302c-0.295,0-0.491,0.102-0.688,0.302
				c-1.275,1.303-2.256,2.203-2.943,2.704c0-0.6,0-1.303,0.098-2.004c0-0.802,0-1.503,0-2.004c0-0.199,0-0.399,0-0.7
				C88.746,155.623,88.647,155.321,88.647,155.122"/>
			<path d="M97.969,159.729c0.197,0,0.393,0,0.588,0c0.1,0.402,0.393,0.6,0.884,0.6c0.393,0,0.688-0.399,0.688-1.3
				c0-0.4-0.197-0.701-0.491-0.901c-0.197-0.101-0.59-0.202-1.081-0.202c-1.177,0-2.061,0.102-2.649,0.301
				c-0.981,0.302-1.472,0.903-1.472,1.905c0,0.698,0.295,1.199,0.981,1.7c0.295,0.202,0.981,0.501,1.865,0.903
				c0.687,0.301,0.981,0.6,0.981,0.802c0,0.399-0.491,0.603-1.472,0.603c-0.195,0-0.49-0.102-0.883-0.203
				c-0.393-0.101-0.784-0.199-0.981-0.199c-0.491,0-0.784,0.199-0.784,0.7s0.393,0.901,1.079,1.205
				c0.491,0.196,1.08,0.298,1.668,0.298c0.883,0,1.57-0.199,2.258-0.501c0.784-0.399,1.079-1.103,1.079-1.801
				c0-0.603-0.393-1.204-1.079-1.705c-0.295-0.2-0.884-0.501-1.865-1.002c-0.686-0.299-1.079-0.501-1.079-0.701
				C96.204,159.929,96.792,159.729,97.969,159.729"/>
			<path d="M80.306,139.193c-0.491-0.703-1.275-1.104-2.256-1.104c-1.275,0-2.256,0.501-2.944,1.401
				c-0.588,0.806-0.883,1.706-0.883,2.809c0,1.101,0.393,2.001,1.081,2.604c0.588,0.6,1.373,0.9,2.256,0.9
				c1.079,0,1.962-0.399,2.649-1.303c0.589-0.799,0.884-1.703,0.884-2.803C81.092,140.696,80.797,139.796,80.306,139.193
				 M79.227,142.199c0,0.501-0.196,1.002-0.588,1.3c-0.293,0.301-0.588,0.402-1.079,0.402c-0.393,0-0.589-0.102-0.884-0.301
				c-0.391-0.302-0.491-0.701-0.491-1.301c0-0.602,0.197-1.103,0.491-1.604c0.295-0.501,0.786-0.802,1.375-0.802
				C78.835,139.895,79.227,140.696,79.227,142.199"/>
			<path d="M68.924,138.692c-0.393-0.603-0.884-0.9-1.57-0.9c-0.686,0-1.276,0.399-2.061,1.3l0.098-0.602
				c0-0.299-0.098-0.501-0.295-0.698c-0.196-0.203-0.489-0.304-0.687-0.304c-0.293,0-0.588,0.202-0.784,0.602
				c-0.1,0.4-0.197,0.704-0.197,1.205c0,0.196,0,0.6,0,1.1c0,0.403,0.098,0.803,0.098,1.002V144c0,0.501,0,0.903,0.1,1.104
				c0.098,0.399,0.391,0.501,0.784,0.501c0.295,0,0.588-0.102,0.687-0.2c0.197-0.102,0.295-0.301,0.295-0.603
				c0-0.099,0-0.301,0-0.501c0-0.199,0-0.399,0-0.501c0-0.501,0-1.303,0.098-2.203l0.098-0.102c0.491-0.697,1.081-1.3,1.669-1.601
				c0,0.199,0.098,0.402,0.098,0.7c0,0.501,0,1.303,0.098,2.403c0.098,1.104,0.196,1.804,0.196,2.406
				c0,0.301,0.099,0.501,0.295,0.701c0.196,0.199,0.393,0.301,0.687,0.301c0.295,0,0.49-0.102,0.688-0.301
				c0.196-0.2,0.293-0.4,0.293-0.701c0-0.501-0.098-1.303-0.195-2.305c-0.098-1.002-0.196-1.801-0.196-2.302
				c0.196-0.203,0.491-0.403,0.882-0.603c0.393-0.203,0.59-0.301,0.688-0.301c0.196,0,0.293,0.402,0.491,1.303
				c0.098,0.399,0.196,1.103,0.293,2.102c0.098,0.903,0.197,1.604,0.295,2.004c0.098,0.501,0.393,0.803,0.884,0.803
				c0.293,0,0.588-0.102,0.686-0.302c0.196-0.199,0.294-0.399,0.294-0.7c-0.196-1.805-0.294-3.006-0.491-3.805
				c-0.098-1.104-0.196-1.706-0.293-1.905c-0.295-0.903-0.981-1.404-1.865-1.404c-0.391,0-0.784,0.101-1.079,0.202
				C69.512,138.191,69.219,138.392,68.924,138.692"/>
			<path d="M70.003,155.021c0-0.298-0.098-0.501-0.293-0.701c-0.197-0.098-0.393-0.199-0.688-0.199
				c-0.293,0-0.588,0.102-0.687,0.199c-0.197,0.2-0.295,0.403-0.295,0.701v9.816c0,0.304,0.098,0.501,0.295,0.703
				c0.196,0.2,0.393,0.298,0.687,0.298c0.688,0,0.981-0.5,0.981-1.401V155.021"/>
			<path d="M60.975,155.521c0-0.102,0-0.2,0-0.301c0-0.498-0.195-0.803-0.686-0.803c-0.393,0-0.589,0.203-0.786,0.501
				c-0.196,0.302-0.294,0.603-0.294,0.903v8.013c0,0.101,0,0.304,0,0.501c0,0.202,0,0.402,0,0.501c0,0.202,0.098,0.402,0.294,0.602
				c0.197,0.203,0.393,0.302,0.688,0.302c0.196,0,0.393-0.099,0.589-0.302c0.588,0.302,1.275,0.399,1.865,0.399
				c1.079,0,2.061-0.399,2.845-1.198c0.688-0.805,1.079-1.706,1.079-2.809c0-1.101-0.293-2.004-0.882-2.803
				c-0.688-0.803-1.57-1.202-2.65-1.202c-0.294,0-0.589,0-0.882,0.099c-0.295,0.102-0.59,0.202-0.981,0.402v-2.704
				C60.975,155.722,60.975,155.623,60.975,155.521 M62.054,159.929c0.295-0.102,0.59-0.2,0.883-0.2c0.588,0,0.981,0.2,1.276,0.6
				c0.293,0.402,0.491,1.002,0.491,1.604c0,0.602-0.197,1.103-0.588,1.502c-0.393,0.4-0.786,0.603-1.472,0.603
				c-0.491,0-0.981-0.102-1.669-0.399c0-1.604,0-2.606,0-3.006C61.368,160.229,61.76,160.029,62.054,159.929"/>
			<path d="M72.261,159.63c-0.59,0.8-0.884,1.7-0.884,2.804c0,1.103,0.393,2.003,1.08,2.605c0.588,0.603,1.374,0.9,2.256,0.9
				c1.081,0,1.962-0.399,2.65-1.3c0.588-0.805,0.882-1.706,0.882-2.809c0-1.002-0.293-1.802-0.784-2.505
				c-0.491-0.698-1.276-1.101-2.258-1.101C73.928,158.226,72.947,158.727,72.261,159.63 M73.731,160.829
				c0.295-0.501,0.786-0.8,1.374-0.8c0.786,0,1.179,0.8,1.179,2.303c0,0.501-0.197,1.002-0.59,1.306
				c-0.293,0.298-0.588,0.399-1.079,0.399c-0.393,0-0.588-0.102-0.883-0.301c-0.392-0.302-0.491-0.701-0.491-1.303
				C73.241,161.831,73.438,161.33,73.731,160.829"/>
			<path d="M79.815,159.729c-0.687,1.002-0.98,2.004-0.98,2.907c0,1.002,0.391,1.801,1.079,2.403c0.687,0.603,1.57,0.9,2.551,0.9
				c0.491,0,1.079-0.199,1.766-0.501c0.786-0.399,1.177-0.7,1.177-1.103c0-0.299-0.098-0.501-0.294-0.698
				c-0.195-0.203-0.393-0.304-0.686-0.304c-0.1,0-0.393,0.101-0.884,0.304c-0.393,0.298-0.786,0.399-1.177,0.399
				c-0.491,0-0.981-0.102-1.276-0.399c-0.393-0.304-0.491-0.704-0.491-1.204c0-0.501,0.196-1.104,0.588-1.802
				c0.393-0.703,0.786-1.103,1.179-1.103c0.588,0,0.98,0.101,1.275,0.298c0.295,0.202,0.491,0.304,0.686,0.304
				c0.295,0,0.491-0.102,0.688-0.304c0.098-0.197,0.196-0.399,0.196-0.6c0-0.402-0.393-0.802-1.177-1.101
				c-0.688-0.301-1.177-0.402-1.667-0.402C81.484,158.026,80.601,158.628,79.815,159.729"/>
		</g>
	</g>
</g>
</svg>