<svg id="Layer_1" data-name="Layer 1" xmlns="http://www.w3.org/2000/svg" viewBox="0 0 163.45 494.33"><defs><style>.cls-1{fill:#010101;opacity:0.5;}.cls-1,.cls-10,.cls-11,.cls-12,.cls-13,.cls-14,.cls-15,.cls-16,.cls-17,.cls-18,.cls-19,.cls-2,.cls-20,.cls-21,.cls-3,.cls-4,.cls-5,.cls-6,.cls-7,.cls-8,.cls-9{fill-rule:evenodd;}.cls-2{fill:#a96427;}.cls-3{fill:#ca7629;}.cls-4{fill:#945725;}.cls-5{fill:#bb6d29;}.cls-6{fill:#a7866b;}.cls-7{fill:#866959;}.cls-8{fill:#785b4b;}.cls-9{fill:#674938;}.cls-10{fill:#593e35;}.cls-11{fill:#614033;}.cls-12{fill:#251e2c;}.cls-13{fill:#3e3036;}.cls-14{fill:#434350;}.cls-15{fill:#53382e;}.cls-16{fill:#a18f89;}.cls-17{fill:#684f4a;}.cls-18{fill:#af9995;}.cls-19{fill:#171826;}.cls-20{fill:#7c7e93;}.cls-21{fill:#2c2a29;}</style></defs><title>level-monkey</title><path class="cls-1" d="M50,32.61a30.45,30.45,0,0,1,7.74-3.83q-.16-.83-.3-1.65A18.52,18.52,0,0,0,50,32.61Z"/><path class="cls-1" d="M57.13,25.3c-.07-.51-.15-1-.21-1.52C52.71,26.88,49.34,31,48,34.15A28.81,28.81,0,0,1,57.13,25.3Z"/><path class="cls-1" d="M58,29.94A19,19,0,0,0,47.4,36.54,20.19,20.19,0,0,1,58.47,32C58.28,31.33,58.11,30.64,58,29.94Z"/><path class="cls-1" d="M54.1,36.11c2.93-.71,4.34-1.11,5.42-.93q-.41-1.09-.76-2.22l-.11,0a17.5,17.5,0,0,0-12.57,7.08c2.9-3,6.27-5,9.86-5.44A11.41,11.41,0,0,1,54.1,36.11Z"/><path class="cls-2" d="M154,156.76c-10.87-3.28-10.53-10.87-12.78-3.52-2.67,8.76-1.41,34.6-3.73,19.06-1.14-7.62-1.92-.05-13.15,1.54a24.82,24.82,0,0,0-3.35,2.93c3.31-1.74,6-2.36,7.74-1.38a20.07,20.07,0,0,0-6.89,5.22c2.42-2,4.1-2.19,5.63-2.1a22,22,0,0,0-6.85,8.65c2-2.34,4-4,6-4.53-3.79,4.21-6.51,8.55-7.42,13.13a17.86,17.86,0,0,1,8.35-8.85c-3.44,2.69-6,5.7-7,9.18,2.7-3.07,4.92-4.49,6.93-5.24a24,24,0,0,0-5.71,6.4,10.52,10.52,0,0,1,4.31-2.22,26.44,26.44,0,0,0-7.25,9.59c2.86-3.21,5.45-5.54,7.63-6.42-4,3.85-7,7.77-8.12,11.8a44.09,44.09,0,0,1,7.55-7.28c-3.68,4.4-6.8,8.49-7.31,11.08a16.77,16.77,0,0,1,7.41-6.18,20.86,20.86,0,0,0-5.29,6.32,16.68,16.68,0,0,1,5.55-3.45,29.53,29.53,0,0,0-5.1,6.39,20.12,20.12,0,0,1,4.68-3.14c-2.83,2.69-5.39,5.31-6.59,7.67a20.77,20.77,0,0,1,6.47-4c-4,3.94-8.38,7.94-9.25,11.39,3.15-3.83,5.61-6,7.87-7.28-2.6,2.84-5.28,5.65-6.85,8.88a41.48,41.48,0,0,1,5.44-4.59,44.54,44.54,0,0,0-8.16,10.37,26.48,26.48,0,0,1,7.48-5.88c-1.94,3-6,7.66-5.5,10.44,1.18-3.17,2.6-2.78,4.06-3.47-2.12,1.94-4,5.57-6.17,7.5,2.67-1.46,5.13-4.61,7.8-6.08-3.34,3-8.15,7-8.83,11.07,2.24-4.47,5.67-6.08,9.1-8-3.38,1.87-6.24,4-7.55,6.92a16.55,16.55,0,0,1,6.24-3.45c-3.83,2.47-6.82,5.19-7.72,8.51a19.06,19.06,0,0,1,6.08-5c-1.95,2.85-5.73,6.59-5.78,9.08,3.09-2.68,5.69-3.72,7.83-3.15-1.3-.3-6.09,3.66-6,5.84,3.2-3.58,6-3.2,6.76-.33-5-5.19-6.19,5.31-6.7,7.08,1.27-2.79,2.67-8.15,4.87-5-2.37-.54-3.26,3.92-3.9,7.37a24.43,24.43,0,0,0-2.2,3.11c.65-.55,1.28-1,1.89-1.47l-.06.26a9.05,9.05,0,0,0,2.36-1.55,5.55,5.55,0,0,1,2.17-.46c-.82.51-2.79,1.47-2.73,3.71a18.24,18.24,0,0,0-2,3.06,10.89,10.89,0,0,1,2.11-2.11,6.82,6.82,0,0,0,.48,1.27,6.91,6.91,0,0,1,.14-1.66,6.53,6.53,0,0,1,2.32-.79,22.29,22.29,0,0,0-4.81,10c1.45-2.73,3-4.75,4.85-5.75-2.79,5-4.5,9.8-4.4,14.46a18,18,0,0,1,6.14-10.42l0,.07c-2.71,3.35-4.48,6.79-4.77,10.39a21.32,21.32,0,0,1,3.72-5.13,8.63,8.63,0,0,0,0,1c.15-.5.31-1,.49-1.44a12.52,12.52,0,0,1,1.44-1.09,24.07,24.07,0,0,0-4.19,7.52,11.83,11.83,0,0,1,3.48-3l-.09.32a27.16,27.16,0,0,0-4.66,10.55,28.17,28.17,0,0,1,5.42-7.48c0,.12.05.24.08.36-2.76,4.35-4.62,8.55-4.81,12.48a44.51,44.51,0,0,1,5.79-8.79c-2.64,5.11-4.81,9.8-4.74,12.44a17,17,0,0,1,5.89-7.69,21,21,0,0,0-3.79,7.34,17,17,0,0,1,4.67-4.61,29.84,29.84,0,0,0-3.59,7.37,20.08,20.08,0,0,1,3.88-4.11c-2.18,3.25-4.11,6.39-4.77,9a21,21,0,0,1,5.46-5.3c-3.05,4.74-6.46,9.62-6.56,13.17,2.25-4.44,4.18-7.09,6.1-8.86-1.92,3.35-3.93,6.69-4.76,10.19a42.37,42.37,0,0,1,4.32-5.7,45,45,0,0,0-5.71,11.94,26.74,26.74,0,0,1,6-7.41c-1.25,3.37-4.24,8.82-3.12,11.41.46-3.36,1.94-3.29,3.21-4.3-1.65,2.36-2.74,6.33-4.4,8.69,2.29-2,4-5.65,6.3-7.67-2.62,3.62-6.43,8.66-6.23,12.77,1.22-4.86,4.22-7.19,7.14-9.83-2.89,2.58-5.22,5.3-5.88,8.44a16.76,16.76,0,0,1,5.34-4.76c-3.2,3.27-5.53,6.59-5.69,10a19.3,19.3,0,0,1,4.84-6.27c-1.28,3.21-4.17,7.72-3.68,10.15,2.43-3.3,4.75-4.9,7-4.82-1.34,0-5.16,4.93-4.58,7,2.19-3.92,4.76-4.4,6.23-2.32l-.18.19c-3.17-1.79-4.14.86-4.42,3.74a23.75,23.75,0,0,1-4.56,2.29,26.6,26.6,0,0,0-2.77,3.63c2.88-2.39,5.35-3.61,7.22-3.12v.13a21.51,21.51,0,0,0-5.73,6.57c2-2.48,3.64-3.07,5.15-3.32a23.61,23.61,0,0,0-5.2,10c1.55-2.74,3.22-4.78,5.06-5.78-3,5-4.89,9.86-5,14.55a19.16,19.16,0,0,1,6.65-10.56c-2.91,3.42-4.86,6.93-5.31,10.59,2.11-3.61,4-5.51,5.88-6.69a25.6,25.6,0,0,0-4.49,7.56,11.27,11.27,0,0,1,3.84-3.14,28.3,28.3,0,0,0-5.43,11c2.24-3.79,4.38-6.66,6.35-8-3.25,4.68-5.52,9.2-5.9,13.4a47.63,47.63,0,0,1,6.12-8.84c-2.84,5.14-5.19,9.86-5.23,12.51a18.08,18.08,0,0,1,6.19-7.73,22.35,22.35,0,0,0-4.08,7.38,18,18,0,0,1,4.84-4.63,31.68,31.68,0,0,0-3.88,7.41,21.41,21.41,0,0,1,4-4.13c-2.31,3.26-4.36,6.42-5.12,9a22.35,22.35,0,0,1,5.65-5.32c-3.24,4.76-6.83,9.67-7.08,13.25,2.42-4.46,4.46-7.13,6.44-8.91-2,3.37-4.18,6.73-5.16,10.25a45.42,45.42,0,0,1,4.53-5.73,47.88,47.88,0,0,0-6.18,12,28.53,28.53,0,0,1,6.3-7.45c-1.38,3.4-4.59,8.87-3.58,11.48.6-3.38,2.06-3.32,3.38-4.32-1.74,2.37-3,6.37-4.74,8.75,2.36-2,4.23-5.68,6.58-7.71-2.76,3.64-6.76,8.71-6.73,12.84,1.42-4.89,4.5-7.23,7.52-9.89-3,2.59-5.42,5.33-6.2,8.49a17.87,17.87,0,0,1,5.51-4.79c-3.32,3.29-5.78,6.63-6.08,10.08a20.48,20.48,0,0,1,5.07-6.31c-1.41,3.23-4.47,7.76-4.08,10.21,2.56-3.32,4.93-4.92,7.12-4.84-1.19,0-4.52,4-4.86,6.32a4.32,4.32,0,0,0-3,1.41,8.05,8.05,0,0,1,4.65.55c0,.26-.08.52-.11.79-2.19.41-6.51,1.27-6.2,5.23,1.12-3.15,3.45-3.85,6-3.06,0,.58,0,1.12,0,1.56-3.06,1.68-4.62,2.92-4.49,6.46.94-2.69,3.44-4,5.81-3.06v.72c-4.34,1.73-8,7.45-8.78,9.83a13.35,13.35,0,0,1,9.47-5.44c-.85-.47-10.61,7.15-9.7,12.9,0,.12,0,.24,0,.36-.08-3.17,5.87-7.53,8.56-5.58-5,1.31-8.38,6.68-8.65,9.83,1.9-3.38,4.21-5.45,5.66-5.21-2.8,2-5.73,10.84-5.77,13.14,1.3-3.27,4.75-10.84,8.21-10.86-5.45,5.06-6.28,16.15-6.58,18.21h0c2.16-8,6.6-5,7-13.43,2.19,2.64.09,9.75-2.73,14.32,4.8-3.11,8.44-11.32,5.83-19.87,3,1.79,2.2,10.1,1.69,13.59,1.11-2,3-11.13,1.54-14.31,1.37.54,2.34,3.51,2.3,7.4,1.34-2.87,1.11-9.21-2.58-12.92,3.3-.3,6.28,6.51,4.63,9.21l.16-.32c3.64-4.49-1-16.08-2-16.11a13.64,13.64,0,0,1,5.47,9.55c.51-2.63.14-10.19-3.3-13.68,3-.09,5,2.54,4.45,5.68,2.18-3.48.81-5.44-1.66-9.49,3.57.22,6.12,2,5.41,6,3-4.38-4-8.22-3.65-8.66,2.59.48,3.75.69,5.47,2.14-.29-4.88-4.16-5.13-6.21-7.76,2.58-.82,4,1.54,6.07,2.31-1.53-3.95-6.46-6-6.32-6.18,3.77,1,2.28,1.39,4.78,2.53-.6-3.4-1.1-10-4-9.41,2.31-3,3.52,2.37,4.7,5.2-.45-1.78-1.32-12.32-6.46-7.29.9-2.84,3.67-3.12,6.75.55.18-2.17-4.49-6.29-5.8-6,2.16-.5,4.73.63,7.72,3.41,0-2.48-3.63-6.36-5.48-9.27a19.11,19.11,0,0,1,5.91,5.24c-.79-3.35-3.69-6.16-7.44-8.77a16.68,16.68,0,0,1,6.12,3.66c-1.22-3-4-5.19-7.33-7.17,3.36,2,6.74,3.76,8.83,8.3-.55-4.07-5.23-8.3-8.47-11.36,2.62,1.55,5,4.78,7.59,6.33-2.06-2-3.86-5.7-5.92-7.71,1.44.75,2.88.4,4,3.61.63-2.76-3.32-7.54-5.16-10.61a26.43,26.43,0,0,1,7.28,6.13,44.5,44.5,0,0,0-7.81-10.64,42,42,0,0,1,5.29,4.78c-1.46-3.28-4.06-6.18-6.55-9.1,2.21,1.38,4.6,3.61,7.63,7.55-.75-3.47-5-7.62-8.87-11.69a20.89,20.89,0,0,1,6.34,4.17c-1.12-2.39-3.6-5.11-6.33-7.89a19.94,19.94,0,0,1,4.57,3.3,29.6,29.6,0,0,0-4.88-6.56,16.78,16.78,0,0,1,5.44,3.63,20.85,20.85,0,0,0-5.08-6.49,16.8,16.8,0,0,1,7.2,6.43c-.42-2.6-3.41-6.8-6.94-11.32a44,44,0,0,1,7.3,7.53c-1-4.06-3.86-8.08-7.73-12.07,2.15,1,4.67,3.37,7.42,6.68a26.43,26.43,0,0,0-6.93-9.83,10.55,10.55,0,0,1,4.24,2.36,23.88,23.88,0,0,0-5.5-6.59c2,.81,4.16,2.31,6.76,5.47-1-3.52-3.38-6.6-6.74-9.41a17.86,17.86,0,0,1,8.06,9.13c-.76-4.6-3.34-9-7-13.37,2,.64,3.9,2.32,5.82,4.73a22.08,22.08,0,0,0-6.56-8.88c1.54,0,3.2.23,5.56,2.29A32.3,32.3,0,0,0,145,347a18.17,18.17,0,0,1,6.28,1.66c-2.2-2.48-5.12-3.42-8.1-4.23-.17-.91,1.13-2.62,4-.63-.56-1.76-3.32-4.28-4.64-4,2.3-3,4.74,2.19,5.92,5-.45-1.78-2.54-12.14-7.68-7.12.89-2.84,3.66-3.12,6.74.56.18-2.17-4.49-6.3-5.79-6,2.15-.5,4.72.63,7.72,3.41,0-2.49-3.63-6.36-5.48-9.27a19,19,0,0,1,5.91,5.24c-.79-3.35-3.69-6.16-7.44-8.76a16.54,16.54,0,0,1,6.12,3.66c-1.21-3-4-5.19-7.32-7.18,3.36,2,6.73,3.76,8.83,8.3-.56-4.07-5.23-8.3-8.47-11.36,2.62,1.55,5,4.79,7.6,6.33-2.06-2-3.86-5.7-5.92-7.71,1.44.75,2.88.4,4,3.61.63-2.76-3.32-7.54-5.16-10.61a26.47,26.47,0,0,1,7.28,6.13,44.73,44.73,0,0,0-7.81-10.64,42.33,42.33,0,0,1,5.29,4.78c-1.46-3.28-4.05-6.18-6.55-9.1,2.22,1.38,4.6,3.61,7.63,7.55-.76-3.47-5-7.62-8.87-11.69a20.78,20.78,0,0,1,6.34,4.17c-1.12-2.4-3.59-5.11-6.33-7.89a20,20,0,0,1,4.57,3.3,29.42,29.42,0,0,0-4.89-6.56,16.73,16.73,0,0,1,5.44,3.63,20.83,20.83,0,0,0-5.08-6.49,16.79,16.79,0,0,1,7.21,6.43c-.42-2.6-3.41-6.8-6.94-11.32a44.32,44.32,0,0,1,7.3,7.53c-1-4.06-3.85-8.08-7.73-12.07,2.15,1,4.67,3.37,7.41,6.68a26.48,26.48,0,0,0-6.93-9.83,10.55,10.55,0,0,1,4.24,2.36,23.91,23.91,0,0,0-5.5-6.59,11.92,11.92,0,0,1,1.5.74c0,.2.07.39.09.6,0-.15.06-.32.08-.5a20,20,0,0,1,5.09,4.64,17.57,17.57,0,0,0-5-7.86q0-.25,0-.51a18.27,18.27,0,0,1,6.37,8.09c-.76-4.6-3.34-9-7-13.37,2,.64,3.9,2.32,5.83,4.73a17.66,17.66,0,0,0-2.09-4c.09-1.37-.48-2.62-1.51-4.33a10.55,10.55,0,0,1,2.59,1.73,18.09,18.09,0,0,0-3.77-3.62l-.93-1.5c3.57.22,6,1,5.27,5,3-4.38-1.86-6.15-1.52-6.59,3.64,1.41,2.11,1.64,4.46,3.08-.21-3.44,0-10-2.86-9.81,2.63-2.74,3.23,2.77,4.07,5.72-.24-1.82.09-12.39-5.58-8,1.21-2.71,4-2.67,6.63,1.35.42-2.13-3.74-6.78-5.07-6.68,2.2-.24,4.62,1.18,7.28,4.3.32-2.46-2.88-6.74-4.38-9.85a19.19,19.19,0,0,1,5.27,5.9c-.4-3.42-3-6.56-6.39-9.59a16.66,16.66,0,0,1,5.66,4.36c-.87-3.09-3.39-5.63-6.45-8,3.1,2.42,6.26,4.53,7.82,9.29-.08-4.11-4.25-8.86-7.11-12.28,2.42,1.84,4.4,5.34,6.82,7.18-1.81-2.23-3.18-6.12-5-8.35,1.35.91,2.81.73,3.51,4,.94-2.67-2.43-7.88-3.91-11.15a26.64,26.64,0,0,1,6.53,7,44.92,44.92,0,0,0-6.54-11.49,42.36,42.36,0,0,1,4.71,5.37c-1.08-3.43-3.32-6.61-5.47-9.81,2,1.63,4.16,4.13,6.72,8.39-.35-3.54-4.09-8.16-7.48-12.66a21,21,0,0,1,5.82,4.89c-.84-2.51-3-5.5-5.39-8.58a20,20,0,0,1,4.16,3.81,29.6,29.6,0,0,0-4.1-7.09,16.84,16.84,0,0,1,5,4.25,21,21,0,0,0-4.3-7,16.88,16.88,0,0,1,6.42,7.24c-.12-2.64-2.61-7.15-5.6-12.06a44.39,44.39,0,0,1,6.39,8.34c-.5-4.15-2.9-8.48-6.29-12.9,2,1.2,4.25,3.9,6.6,7.51a26.58,26.58,0,0,0-5.76-10.58,10.59,10.59,0,0,1,3.93,2.85,24,24,0,0,0-4.71-7.19c1.89,1,3.87,2.79,6.09,6.23-.55-3.61-2.61-7-5.62-10.15a18,18,0,0,1,7,10c-.23-4.66-2.28-9.36-5.41-14.1,1.87.87,3.61,2.77,5.24,5.38a22.23,22.23,0,0,0-5.5-9.59c1.53.14,3.15.61,5.27,2.93a20.27,20.27,0,0,0-6.05-6.2c1.87-.71,4.43.32,7.44,2.54a24.12,24.12,0,0,0-2.88-3.41Zm-20,294.6-1.27.69.27-1.32a10.33,10.33,0,0,1,1,.44l0,.2Zm-.28-3.42.28.11c0,.08-.13.14-.39.2l.11-.31Zm-.29-2.42c-.56,0-1.12,0-1.64.09,2.36-3.43,4.85-3.47,6-1-2.4-1.66-3.7-.79-4.4.93Zm-3-89.22c.27-.51.61-.84,1.05-.84C131.18,355.73,130.83,356,130.45,356.3Z"/><path class="cls-3" d="M134.15,472.48a3,3,0,0,0-.81-.26,3.13,3.13,0,0,0-.2-.58,6.62,6.62,0,0,1,1-.36,3,3,0,0,0,2.21-2.39c0-.11,0-.22,0-.32a3.06,3.06,0,0,0,.87,1.81,6.85,6.85,0,0,1,.7.83,3,3,0,0,0-.46.4,3,3,0,0,0-2.94.45A3.07,3.07,0,0,0,134.15,472.48Zm2.24-4.51a3.06,3.06,0,0,0-1.24-2.13,5.45,5.45,0,0,0-1.94-.89,11.78,11.78,0,0,1,1.78-1.3,3,3,0,0,0,2.51-2.39,3.85,3.85,0,0,1-.62-5v-.72a2.82,2.82,0,0,1,.13-4l0-.2a3,3,0,0,0-.29-1.82,4.39,4.39,0,0,0,.49-2.09h0c0,.09.46.13.75.13a2.81,2.81,0,0,0,1.91-.75,3.07,3.07,0,0,0,.69-3.65,6.54,6.54,0,0,0-1.84-2.32,3.07,3.07,0,0,0-2.48-4.61H136l-.65,0c.18-.38.36-.74.51-1.1a3.09,3.09,0,0,0,0-2.47l.36-.36a45.28,45.28,0,0,0,.87-7.88l-.16-.18a3.08,3.08,0,0,0-.83-3,3,3,0,0,0-1.63-.81l-.17-.18a3,3,0,0,0-.64-.5l.27-.58c.46-1,.88-1.9,1.23-2.75a3.08,3.08,0,0,0-.78-3.44l.38-.58a3.09,3.09,0,0,0,0-3.44l.72-1.18a3.09,3.09,0,0,0-.06-3.3l.62-.9a3.09,3.09,0,0,0-.28-3.82l-.1-.1a53.28,53.28,0,0,0-.6-6.87,3.09,3.09,0,0,0-.74-2.73,3,3,0,0,0-.84-.64l.31-.57a3.08,3.08,0,0,0-.71-3.84l.31-.46a3.09,3.09,0,0,0-.31-3.89l-.15-.15a3.09,3.09,0,0,0-.42-2.44l-.08-.11.49-.59a3.09,3.09,0,0,0,0-4,3,3,0,0,0-.31-.32,3.09,3.09,0,0,0-.38-3.7,3,3,0,0,0-1.05-.73,3.09,3.09,0,0,0-.54-3.19l.22-.27c.71-.88,1.43-2.08,1-3.11.51-.56,1.36-1.3,1.36-2.08v-.13c0-.35-.62-.69-.73-1,.09-.06-.09-.12,0-.18.43-.33.7-.65,1.07-1a2.91,2.91,0,0,0,.85-1.41,2.88,2.88,0,0,0,1.38-.81l.17-.19a3.09,3.09,0,0,0,.31-3.93,6.33,6.33,0,0,0-1.45-1.48,3.08,3.08,0,0,0,.36-1.4,3,3,0,0,0-2.89-3.1H132a7.77,7.77,0,0,0-.85,0c.18-.4.35-.8.51-1.18a3.09,3.09,0,0,0-.07-2.46l.27-.28a3.09,3.09,0,0,0,.49-3.64,3.08,3.08,0,0,0,.16-4.21l-.24-.25a3.08,3.08,0,0,0-.89-2.92,3,3,0,0,0-1.67-.78l-.19-.2a3,3,0,0,0-.73-.53l.25-.58c.42-1,.81-1.89,1.12-2.73a3.08,3.08,0,0,0-.92-3.44l.33-.53a3.09,3.09,0,0,0-.14-3.47l.64-1.12a3.09,3.09,0,0,0-.17-3.33l.54-.84a3.09,3.09,0,0,0-.36-3.79l-.16-.16a3.09,3.09,0,0,0-.31-3.24,25.35,25.35,0,0,0-1.38-6.25,3,3,0,0,0-.94-.67l.28-.55a3.08,3.08,0,0,0-.88-3.87,3.1,3.1,0,0,0,.16-2l0-.2a3.11,3.11,0,0,0-.84-1.57l.12-.42a3.09,3.09,0,0,0-.46-2.62q.28-.37.58-.73a3.09,3.09,0,0,0,0-4,3,3,0,0,0-.42-.4,3.05,3.05,0,0,0,.15-.38,3.12,3.12,0,0,0-1.15-3.49,3.07,3.07,0,0,0-.67-.35,3.09,3.09,0,0,0-.6-3.33l.16-.21a3.08,3.08,0,0,0-.07-3.86,3.09,3.09,0,0,0,.28-2.28,3,3,0,0,0-2.83-2.26h-.45a7.83,7.83,0,0,1,.43-1.19,3,3,0,0,0,2.2-1.35,3.05,3.05,0,0,0,.39-.87,3,3,0,0,0,1.82-3.68,6.74,6.74,0,0,0-1.4-2.67,3.07,3.07,0,0,0-1.49-5,7.45,7.45,0,0,0-1.09-.21c.26-.35.52-.7.75-1a3.09,3.09,0,0,0,.46-2.42l.32-.21a3.07,3.07,0,0,0,1.27-3.44,3.08,3.08,0,0,0,1.07-4.07,3.12,3.12,0,0,0-.18-.3,3.09,3.09,0,0,0-.24-3,3,3,0,0,0-1.45-1.13l-.14-.24a3,3,0,0,0-.6-.68l.36-.5c.62-.86,1.2-1.67,1.69-2.43a3.09,3.09,0,0,0-.15-3.56L125,228a3.09,3.09,0,0,0,.62-3.42l.87-.95a3.09,3.09,0,0,0,.55-3.29l.71-.7a3.09,3.09,0,0,0,.47-3.78l-.13-.19a3.09,3.09,0,0,0,.4-3.22,3.09,3.09,0,0,0,.2-3.64,3.09,3.09,0,0,0-.2-2.76,3,3,0,0,0-.78-.87l.39-.47a3.09,3.09,0,0,0,0-3.94l.35-.34a3.08,3.08,0,0,0,.46-3.86l-.18-.25a3.09,3.09,0,0,0,.05-2.4l-.09-.2.52-.41a3.08,3.08,0,0,0,.83-3.89,3.13,3.13,0,0,0-.29-.45,3.09,3.09,0,0,0,.32-3.65,3,3,0,0,0-1-1,3.09,3.09,0,0,0,.06-3.27l.2-.16a3.08,3.08,0,0,0,1.05-3,3.09,3.09,0,0,0,1.28-3c1.16-.53,2.12.24,2.92-.25.67,4.46,1.15,8.23,4,8.23h0c3.19,0,3.31-3.58,3.71-11.06.26-4.82.64-12.65,1.63-16.46a27.83,27.83,0,0,0,2.65,1.66,1.59,1.59,0,0,0-.13.41,2.92,2.92,0,0,0,.94,2.55,3,3,0,0,0,.61,3l.17.17a3.07,3.07,0,0,0-.42,3.23,3,3,0,0,0-1.12.83,3.09,3.09,0,0,0-.22,3.65,3,3,0,0,0-.35.39,3.09,3.09,0,0,0,.25,4l.45.49-.11.18a3.09,3.09,0,0,0-.3,2.39l-.21.22a3.09,3.09,0,0,0-.11,3.88l.29.39a3.09,3.09,0,0,0-.58,3.91l.32.52a3,3,0,0,0-.89.74,3.09,3.09,0,0,0-.6,2.7,3.09,3.09,0,0,0-.33,3.64,3.09,3.09,0,0,0-.08,3.24l-.15.17a3.09,3.09,0,0,0-.09,3.81l.6.8a3.09,3.09,0,0,0,.06,3.34l.72,1.07a3.09,3.09,0,0,0,.11,3.47l.36.5a3.08,3.08,0,0,0-.67,3.49c.37.82.83,1.71,1.31,2.65l.29.56a3,3,0,0,0-.7.58l-.17.21a3,3,0,0,0-1.6.9,3.08,3.08,0,0,0-.69,3,3.19,3.19,0,0,0-.22.26,3.08,3.08,0,0,0,.46,4.19,3.08,3.08,0,0,0,.75,3.6l.3.26a3.09,3.09,0,0,0,.1,2.46c.18.37.38.75.59,1.14h-.31a7.6,7.6,0,0,0-.8,0,3.07,3.07,0,0,0-2.2,4.68,6.67,6.67,0,0,0-1.78,2.42,3.06,3.06,0,0,0,1.26,3.92,3.07,3.07,0,0,0,.26.92,3,3,0,0,0,2,1.67,6.71,6.71,0,0,1,.2.93,2.94,2.94,0,0,0-1.07-.2,3,3,0,0,0-2.34,1.15,3.3,3.3,0,0,0-.33.52l-.9-.07h-.18a3,3,0,0,0-2.58,1.49,3.09,3.09,0,0,0,0,3.17l.94,1.52a3.06,3.06,0,0,0,.77.84V257a3,3,0,0,0-1.8,1.28,3.09,3.09,0,0,0,.22,3.67q.45.53.87,1.06a3.07,3.07,0,0,0-1,2.39,3,3,0,0,0-1.3,1.22,3.08,3.08,0,0,0,.71,3.91l.5.42-.09.19a3.09,3.09,0,0,0,0,2.41l-.19.25a3.09,3.09,0,0,0,.34,3.87l.34.35A3.09,3.09,0,0,0,137,282l.38.48a3,3,0,0,0-.81.84,24.48,24.48,0,0,0-.19,6.43,3.06,3.06,0,0,0,.28,3.21l-.13.19a3.09,3.09,0,0,0,.35,3.8l.69.72A3.09,3.09,0,0,0,138,301l.84,1a3.09,3.09,0,0,0,.5,3.44l.42.45a3.09,3.09,0,0,0-.27,3.55c.46.77,1,1.6,1.61,2.47l.35.52a3,3,0,0,0-.63.66l-.15.24a3,3,0,0,0-1.49,1.09,3.09,3.09,0,0,0-.34,3,3,3,0,0,0-.19.29,3.08,3.08,0,0,0,.93,4.11,3.08,3.08,0,0,0,1.15,3.48l.32.22a3.09,3.09,0,0,0,.38,2.44c.22.35.46.7.72,1.06a7.48,7.48,0,0,0-1.1.17,3.07,3.07,0,0,0-1.65,4.91,6.71,6.71,0,0,0-1.49,2.62,3.07,3.07,0,0,0,1.27,3.51,3.11,3.11,0,0,0,.42.22,3.11,3.11,0,0,0,.36.89,3.05,3.05,0,0,0,.71.8,4.27,4.27,0,0,0-.48,2.82,3,3,0,0,0,1.77,2.23,3.1,3.1,0,0,0,.32,1.15,3,3,0,0,0-.4.76,3.08,3.08,0,0,0,.86,3.33l.19.17a3.09,3.09,0,0,0,0,3.27,3,3,0,0,0-1,1,3.09,3.09,0,0,0,.2,3.66,3.08,3.08,0,0,0,.39,4.35l.5.43-.09.2a3.09,3.09,0,0,0,0,2.4l-.18.25A3.09,3.09,0,0,0,143,372l.34.35a3.09,3.09,0,0,0-.13,3.95l.38.49a3,3,0,0,0-.8.84,25.19,25.19,0,0,0-.2,6.41,3.08,3.08,0,0,0,.29,3.23l-.13.19a3.09,3.09,0,0,0,.35,3.8l.69.72a3.09,3.09,0,0,0,.45,3.31l.84,1a3.09,3.09,0,0,0,.51,3.44l.42.46a3.09,3.09,0,0,0-.27,3.55c.46.78,1,1.6,1.61,2.48l.34.51a3,3,0,0,0-.63.66l-.15.24a3,3,0,0,0-1.49,1.09,3.09,3.09,0,0,0-.34,3,3.23,3.23,0,0,0-.19.29,41,41,0,0,0,2.09,7.59l.32.22a3.09,3.09,0,0,0,.38,2.44c.22.35.46.7.71,1.06a7.43,7.43,0,0,0-1.1.17,3.07,3.07,0,0,0-1.65,4.91,6.73,6.73,0,0,0-1.49,2.61,3,3,0,0,0,1.7,3.74,3.07,3.07,0,0,0,.36.88,3,3,0,0,0,2.16,1.43,6.74,6.74,0,0,1,.31.9,3,3,0,0,0-3.26,1.33,3.13,3.13,0,0,0-.39,2.36,3,3,0,0,0,.72,1.38,3.09,3.09,0,0,0,.09,3.66,9.63,9.63,0,0,0,1.25,1.32,3.25,3.25,0,0,0-1.21,2.33,3,3,0,0,0-1.28,1.19,3.09,3.09,0,0,0-.33,2.33,3,3,0,0,0-2.67,1.92,3.1,3.1,0,0,0,0,2.27,3,3,0,0,0-2.25,2.06,3.1,3.1,0,0,0,1,3.32,11.82,11.82,0,0,1,.89,2,5.47,5.47,0,0,0-1.63-.25l-.48,0a3,3,0,0,0-2.55,2A3.09,3.09,0,0,0,136.39,468Z"/><path class="cls-2" d="M61.19,149.1c-2.1.87-6.06,1.17-5.25-2s.6-7,.57-11.41-.2-9.49-.5-16.06c-.3-2.22-1.21-4.58-2.85-5.34,1.86-2.19,6.38-1.64,6.56,2.13,2.94-.52,4.17-.32,5.6,2.63,0,1.43,5.42,0,5.51,4.73s3.76,13.67,3.66,14.49-1.36,9.43-2.69,10S60.8,149.15,61.19,149.1Z"/><path class="cls-3" d="M63.63,147.78c-2.1.87-7.64,1.82-6.82-1.33s.73-7.21.7-11.58,0-8.34-.31-14.92a16.39,16.39,0,0,0-2.4-5.52c2.07-1.12,4.5.35,4.9,4.07.9-2.45,3.84-1.58,5.27,1.37,0,1.43,5.47-.1,5.54,4.67s4.07,12.92,4,13.75-1.36,9.43-2.69,10S63.71,145.94,63.63,147.78Z"/><path class="cls-2" d="M48.3,98.42c1.52,1.25,3.62,2.58,5.14,2.25-1.1,1.47-3.8.6-5.22,1,3.86,2.45,4.09,1.61,7.3,1.23.39,2.66-1.49,3.16-4,2.66,1,1.78,3.06,2.69,6,.73,0,2.75-1.15,3.19-3.1,3.83,1.23.36,4.32,1.56,8.45-1.5A5,5,0,0,1,61,113c1.41.46,4.82-.27,6.61-2.62,1.5,2.83-2.14,5.16-4.06,5.27,2.14.86,4.49,1.38,7.61-1.54-.15,3.2-2.68,5.58-5.82,4.64.24,1.19,1.46,2,3.07,2a4.65,4.65,0,0,1-2.54,1.47c1.39,1.2,2.55.68,3.85,0-.37,1.52-1.52,3.86-5.09,2.2.58,1.68,2.72,1.74,3.69,1.49-1.68,2-2.89,2.61-5.54.64-.25,3.12,4.42,3.4,6.08,2.55-1.3,2.36-4,1.58-6.68,2.62,1,1.53,4.53,2.1,6.61,1.24a3.14,3.14,0,0,1-.22.63,13.8,13.8,0,0,0,2-.29L72.2,133c.51,0,6.85-1.38,7.37-1.59s2.47-2.11,4.09-2.58c.68-.2,7.7-6.16,8-6.81.87-2.2,42.87,34.43,42.92,33.1a22.51,22.51,0,0,0-.36-3.82c-.3-2,7.77-24.31,5.92-25.66A249.71,249.71,0,0,0,104,104.18c-14.85-7-21.9-7.91-29.43-5.73-1.3.38-5.64-6.92-6.37-6.33-.71-.91-2.14,1.7-4.22,2-.69.08-.17-.23-1.06.49-1-.46-2.17,1-3,1.69l-.46-.36a83.88,83.88,0,0,0-8.89,1.72l-.44.36C48.77,98.52,49.33,97.72,48.3,98.42Z"/><path class="cls-4" d="M30.35,83.31c-1.76.32-2.19.53-3.78-.19a19.25,19.25,0,0,0-5.94-1.54,37.88,37.88,0,0,0-10.26.83c-2,.61-4.25-.27-4-.85C6.76,80.5,8,79.86,8.71,79.46s-5,.3-5.23-.84c0-.56.48-1.44,1.84-1.94-2.82.07-6,.57-5.21-1,.34-1.95,6.78-3.27,11-3.59,3.53,0,5.32-.08,5.32-.08S8.53,70.53,5.22,69.62s1-3.1,6.4-2.71,13.87,2.71,15.19,2.9c-4.53-2.23-6.58-5.13-5.91-5.77s4.6,1.79,6.9,2.16a6.91,6.91,0,0,1,5.06,3.15c.9,1.62,2.93,6.86,5.21,9.11s1.38,3.9,1.38,3.9Z"/><path class="cls-2" d="M30.35,83.31c-1.76.32-2,0-3.57-.75A22.32,22.32,0,0,0,20.44,81c-2.54-.29-8.17-.09-10.15.51s-3-.56-1.38-1.39c1-.52,13.11-.85,13.8-1.26S6.9,79.57,4.9,78c-1.41-1.12,13.62-2.24,18.93-2.2-5.27-1.37-23.23,1-22.23-.47,1.31-1.94,6-1.82,10.11-2.21,3.74-.35,9.73-.71,11.83-.44-1.7-1.43-13.5-2.82-15.86-3.25-3.38-.61-2-2.09,3.45-1.7s14.62,3.58,18.14,2.94c-3.78-2.32-8.34-5.26-7.67-5.9s3.44,1.55,5.74,1.92a7.35,7.35,0,0,1,5.1,3.5c.9,1.62,2.94,6.91,5.22,9.17s1.77,3,1.77,3Z"/><path class="cls-2" d="M120,193a3,3,0,0,1-2.14-.91,3.08,3.08,0,0,1-.86-2.35,3,3,0,0,1-.56-.07,12.37,12.37,0,0,1-1,.91,3,3,0,0,1-3.64.1,3,3,0,0,1-.53-.49,3,3,0,0,1-2.22-.28,3,3,0,0,1-1.45-1.87q-.39.29-.84.57a3,3,0,0,1-3.5-.23,3,3,0,0,1-.77-1,3,3,0,0,1-.53-.38,18.07,18.07,0,0,1-1.27-1.29,3,3,0,0,1-1.06.39,2.9,2.9,0,0,1-.47,0,3,3,0,0,1-2.53-1.41c-.46-.73-.83-1.37-1.12-2H95.3a3,3,0,0,1-1.44-.37,8,8,0,0,1-2.63-3.13c-.15,0-.3-.49-.45-.49h0c-1.32,0-2.48-.37-2.86-1.65l-.06.07a11.18,11.18,0,0,1-.62-4.17,2.93,2.93,0,0,1-2.17-2c0-.15-.09-.28-.13-.45a3,3,0,0,1-2.39-1.77l-.33,0a3,3,0,0,1-.58-.05,5,5,0,0,1-1.7-.67l-.32.11a3,3,0,0,1-.5.1,3.09,3.09,0,0,1-.23.29,3,3,0,0,1-1.5.92l-.08.19a3,3,0,0,1-2.46,1.8l-.54,0a5.15,5.15,0,0,1-2.4-.58,3,3,0,0,1-1.5,1.09,3,3,0,0,1-2.6-.38,5.38,5.38,0,0,1-1-.91h-.3a3,3,0,0,1-2.12-.89,8.61,8.61,0,0,1-.8-.95l-.41,0a3,3,0,0,1-1.32-.31,6.21,6.21,0,0,1-3.19-3.24,3,3,0,0,1-2-2.12l-.05-.19a10.81,10.81,0,0,1-.32-1.53,3,3,0,0,1-1.94-2.13,8.3,8.3,0,0,1,.07-4,3.08,3.08,0,0,1-.69-2.5,14.8,14.8,0,0,1,.65-2.57,3,3,0,0,1-.51-.45,3.09,3.09,0,0,1-.51-3.38,11.26,11.26,0,0,1,1.55-2.38,3.08,3.08,0,0,1,.16-1,14.91,14.91,0,0,1,3-5.23,3.08,3.08,0,0,1,.46-2.3,17,17,0,0,1,3.25-3.7,3.08,3.08,0,0,1,.72-2.2A23.12,23.12,0,0,1,66,126.41a3.08,3.08,0,0,1,.66-1.58q.27-.33.54-.63a3.08,3.08,0,0,1,1-2.78A38.23,38.23,0,0,1,72.49,118a3.08,3.08,0,0,1,1.18-3.87l.73-.42-.21-.18a12,12,0,0,1-2.83.36h-.28a3,3,0,0,1-1.75-.63,14.06,14.06,0,0,1-3.46.48l-.56,0a3,3,0,0,1-2.69-2.14h0a2.94,2.94,0,0,1-.84-.16,10.68,10.68,0,0,1-5.22,1.57A7.4,7.4,0,0,1,55,112.8c-1.21-.25-2.15-.39-2.36-1.63,0-.05,0,.69,0,.69h-.14c-1.36,0-2.57-1.77-2.92-3.11,0,0,0-.49,0-.53-.18,0-.36-.25-.53-.28a3.15,3.15,0,0,1-2.44-2.45,3.76,3.76,0,0,1-.07-.57,10,10,0,0,1-3.67-1.41,3.23,3.23,0,0,1-1.62-2.69v-.08A5.37,5.37,0,0,1,37.41,99a3.06,3.06,0,0,1-.7-2.85c-.14-.09-.24-.19-.38-.29a3,3,0,0,1-1.08-1.65,11.91,11.91,0,0,1-2.34-1.09,3.06,3.06,0,0,1-1.48-2.73,7.7,7.7,0,0,1-1-.81,3.07,3.07,0,0,1-.88-1.66A9.16,9.16,0,0,1,27,86.72a3,3,0,0,1-1.32-2,3.08,3.08,0,0,1-.68-4.3c-.17-.25-.28-.44-.32-.51a3.09,3.09,0,0,1,.43-3.58,3,3,0,0,1,1.46-.87,3,3,0,0,1,2-2.26,3,3,0,0,1,.55-.12,3,3,0,0,1,1.3-1.22,3.05,3.05,0,0,1,1.32-.3,2.94,2.94,0,0,1,.78.1,3,3,0,0,1,4.56-.29c9.2,9.69,21.33,10.84,27.16,11.39l1.76.18a15.9,15.9,0,0,0,1.42-1.08,18.23,18.23,0,0,1,12.25-4.83,26.06,26.06,0,0,1,7.69,1.27c-.21-.84-.43-1.86-.64-2.67-2-7.75-2.79-10.83-2.94-12.83h0c-.27-2,.24-5.19,1.57-6.66a5.16,5.16,0,0,1,4-1.62c3.7,0,8.43,3.28,13.92,7,4.1,2.81,9.72,6.67,12.21,6.67h.25s.62-.89.31-4.41a3.08,3.08,0,0,1,.09-1.07c2.61-9.74,3.94-12.63,5.07-14.76a10.18,10.18,0,0,1,1.2-1.7c.66-.8.77-1,.77-1.53a5.08,5.08,0,0,1,.19-1.45,3.09,3.09,0,0,1,.08-2.54,3,3,0,0,1,2.69-1.69,2.93,2.93,0,0,1,.71.09l1.63.4a3,3,0,0,1,2.28,2.64,3.08,3.08,0,0,1-.87,2.48.91.91,0,0,0,.1.23,13.52,13.52,0,0,0,1.71,1.25c1.67,1.12,3.26,2.17,3.8,3.94a3.13,3.13,0,0,1,.13.7,21.07,21.07,0,0,1,1.61,1.61A3,3,0,0,1,138,54a13.63,13.63,0,0,1,4,3.3,3.09,3.09,0,0,1,.23,3.57,12.27,12.27,0,0,1,.71,1.3,3.08,3.08,0,0,1,.29,1.23,36.73,36.73,0,0,1,3.12,3.27,3.06,3.06,0,0,1,.74,1.85,13.3,13.3,0,0,1,3,4.07,3.09,3.09,0,0,1-.51,3.34,35.35,35.35,0,0,1,2.82,3.78,3.09,3.09,0,0,1,.18,3.05A17.38,17.38,0,0,1,153.73,85a3.09,3.09,0,0,1-.12,2.64,8.3,8.3,0,0,1,.43,1,3.07,3.07,0,0,1-1.31,3.59,3,3,0,0,1-.52.25c0,.1,0,.19,0,.29a15.51,15.51,0,0,1,1.72,2.07,3.09,3.09,0,0,1,.44,2.48,13.47,13.47,0,0,1,3.25,4.53,3.09,3.09,0,0,1-.33,2.88,31.82,31.82,0,0,1,2.36,2.93,3.06,3.06,0,0,1-.91,4.41,6,6,0,0,1,.22,1.72,9.65,9.65,0,0,0,1.06.89,3.07,3.07,0,0,1,1.24,3.12,10.35,10.35,0,0,1,1.44,2.89,3.09,3.09,0,0,1-.19,2.29,10.33,10.33,0,0,1,.5,1,3.09,3.09,0,0,1-.15,2.67,6.18,6.18,0,0,1,.55,1.75,3.07,3.07,0,0,1-1.32,3,3.08,3.08,0,0,1-.62,2c.33.82.6,1.61.82,2.26.11.33.2.6.27.77a3.11,3.11,0,0,1-.34,3c.13.39.25.76.36,1.09a3.07,3.07,0,0,1-1.24,3.6,9.46,9.46,0,0,1-.47,2.23,3,3,0,0,1-2,1.94,10.87,10.87,0,0,1-.39,2,3.06,3.06,0,0,1-.36.8,20.87,20.87,0,0,1,1.45,5.4,3.07,3.07,0,0,1-1.28,2.76,9.56,9.56,0,0,1-.24,4.92c0,.13-.06.25-.09.38a3,3,0,0,1-.72,1.28,9.6,9.6,0,0,1-.08,2.17,3,3,0,0,1-2.8,2.54c-.13.85-.27,1.5-.35,1.83a3,3,0,0,1-2.92,2.35h-.15l-.26,0-.14.29-.2.41a3,3,0,0,1-2.67,2.39c-.16.35-.32.69-.48,1a3,3,0,0,1-1.39,1.41,13.11,13.11,0,0,1-1.29,2.59,3,3,0,0,1-2.42,1.39v0c0,.12-.09.22-.12.32a3,3,0,0,1-2.85,2.1l-.31,0a3,3,0,0,1-.46-.09,10.93,10.93,0,0,1-1.44,1.55,3,3,0,0,1-3.34.42l-.5.52a3,3,0,0,1-3.38.62l-.48.4a3,3,0,0,1-3.62.05l-.1-.08-.1.05a3,3,0,0,1-1.25.28H124a11.94,11.94,0,0,1-2.36,2.11A3,3,0,0,1,120,193Z"/><path class="cls-3" d="M86.86,62.9c-1.72-20,34.4,25.84,32.24.69,2.61-9.72,3.87-12.34,4.82-14.11.75-1.4,2.35-2.23,2.33-4.71a2.46,2.46,0,0,1,1.58-2.21l-1.63-.4c.75.62.29,3.37,1.62,4.84s4.48,2.8,4.88,4.06a5,5,0,0,0-3.67-.22,10.49,10.49,0,0,1,6.07,3.69c-2.35-1.59-4-1.56-4.9.16,2.31.28,6.85,1.2,9.54,4.5-2.57-1.43-3.9,0-4.49.8,2.65.57,3.82.86,5,3.44-2.08-1.88-2.58-1.1-3.26-.36,1.9.53,3.79,1.66,7.13,5.54a6.93,6.93,0,0,0-4.61-1.87c3.44,2,6.47,4,7.85,7.06a15.61,15.61,0,0,0-6.88-3.91A21.62,21.62,0,0,1,146.39,75a9.64,9.64,0,0,0-4.16-1.49,24,24,0,0,1,7.67,7.82c-3-2.57-5.58-4.37-7.65-4.91,4.07,3,7.25,6.2,8.71,9.72a39.89,39.89,0,0,0-7.67-5.69c3.84,3.55,7.14,6.87,7.9,9.16a15.25,15.25,0,0,0-7.43-4.72A19,19,0,0,1,149.28,90a15.3,15.3,0,0,0-5.43-2.45,26.9,26.9,0,0,1,5.36,5.18,18.12,18.12,0,0,0-4.6-2.29c2.87,2.1,5.5,4.17,6.85,6.16a19,19,0,0,0-6.32-2.8c4.09,3.09,8.51,6.19,9.69,9.21-3.3-3.09-5.77-4.74-8-5.65,2.68,2.26,5.43,4.48,7.23,7.22a37.45,37.45,0,0,0-5.46-3.51,40.53,40.53,0,0,1,8.59,8.41,24.07,24.07,0,0,0-7.46-4.43c2.11,2.5,6.36,6.21,6.19,8.79-1.43-2.73-2.67-2.2-4.08-2.66,2.15,1.5,4.31,4.56,6.45,6.05-2.58-1-5.18-3.57-7.76-4.57,3.37,2.27,8.19,5.38,9.28,9-2.55-3.78-5.84-4.82-9.16-6.16,3.28,1.29,6.12,2.88,7.64,5.37a15.06,15.06,0,0,0-6.05-2.38c3.76,1.78,6.78,3.89,8,6.78a17.29,17.29,0,0,0-6.09-3.84c2.09,2.34,6,5.29,6.29,7.53-3.1-2.06-5.58-2.69-7.45-1.91,1.14-.43,5.95,2.59,6.1,4.57-3.31-2.85-5.77-2.18-6.16.51,3.9-5.3,6.22,4.07,6.88,5.6-1.47-2.37-3.36-7.06-5-4,2.49-.93,3.9,4.91,4.93,7.88-2-2.79-3.11-4.31-6.14-4.17,1.63.65,6,3.4,4.42,8-.35-3.66-3-4.6-6.23-3.88,3.17,2.93,4.85,4.3,3.8,7.91-.26-2.91-2.66-4.7-5.31-3.85,3.89,2.19,6.08,8.72,6.28,11.17a12.34,12.34,0,0,0-7.17-7c.86-.22,7.8,8.77,5.71,13.64,0,.11,0,.21-.05.32.78-2.79-3.52-8-6.34-6.9a11.71,11.71,0,0,1,5.46,10.69c-.92-3.43-2.51-5.79-3.85-5.91,2,2.43,1.21,8,.74,10.08-.42-3.19-.35-7.81-3.4-8.63,3.89,6-.28,10.65-.29,11.71,0-4.43.07-5.57-1.37-6.78,1.08,1.89.72,4.77-1.54,9.51.58-4.12-.43-4.11-1.8-5.42a9.27,9.27,0,0,1-.68,9.09c0-3.48-.47-5.09-3.47-5.79,2.46,4.59,1,7,.59,8.22-.36-3.38-1.46-4.09-3.58-5.15,1.86,2.11,2.26,4.79-.61,7.35,1.68-4.84-.27-5.29-2.64-5.8,1.3,4.38.75,4.73-1.35,6.88.18-.18.8-2.11-1.65-3.7-.09,1.59.16,2.8-1.93,4.46,1.46-4-.72-4.8-.84-4.85,1,1.74-1.13,3.92-2.39,4.51,1.55-3.64-1-5.31-1.5-5.54,1.1,2.38.89,5.74-2.65,8.18,4.54-6.57-.53-9.18-1-9.47a5.36,5.36,0,0,1-1.92,6.21c1.56-3.1-1-7-1.49-7.3,1.72,4.14.18,7-2,8.82,1.83-4.93-.91-8.32-2.18-8.78,3.22,3.94,0,6.89-.87,7.81,1.08-4.81-.51-5.7-2.37-7.79.8,2.82-.27,4.87-3,6.58.55-1.46,1-2.37-.55-7.78-1.93,2.87-1.47,2.82-.67,6.5-1.06-.95-4.33-4.61-3.87-6.94-1.44,1.13-.55,3.86-.92,5.31-2.45-3.9-1.62-4.14-1.29-7.41-2.62-.37-3.09,1.55-2.57,4.05-1.76-1-2.68-3.09-.78-6.13-2.7.06-3.12,1.21-3.73,3.19-.37-1.24-1.58-4.38,1.39-8.61a4.93,4.93,0,0,0-4.26,2c-.46-1.43.22-4.9,2.51-6.74-2.8-1.5-5.05,2.23-5.14,4.18-.86-2.17-1.41-4.55,1.44-7.76-3.15.19-5.46,2.79-4.51,6-1.18-.24-2-1.47-2-3.1a4.76,4.76,0,0,0-1.42,2.6c-1.19-1.4-.7-2.59,0-3.91-1.49.39-3.78,1.59-2.1,5.2C75,166.13,74.91,164,75.15,163c-1.94,1.73-2.53,3-.57,5.65-3.07.29-3.39-4.46-2.57-6.15-2.31,1.34-1.52,4.1-2.51,6.82-1.51-1-2.12-4.59-1.29-6.71-1.91.5-2.31,2.14-1.7,5.29-1.18-1.2-3.2-4.91-1.63-7.1-2.89,2.23-2.33,4.51-1.69,5.3-3.32-1.66-1.55-4.85-1.19-6.28-1.42.3-1.67.75-2.43,2.87-.38-1.45-.94-2.8,1.78-5.91-2.32-.57-3.09.7-4.09,2.1-.73-2.88,1.79-6.55,3.32-7-1.46-.44-2.54-.14-3.89,1.69.63-3.79,2.32-5.42,4.86-5.71-1.82-1.62-3.12-.81-5.48.12,1.36-2.93,6.26-6.58,9.4-6.52-2.78-.78-5.32-.63-7.56,2.78,1.73-5.19,6.24-7.9,10-6.93-2.45-2.13-3.63-2.39-6.9.13,2-3,5.62-6.39,8.59-2.83-.15-2.69-3.48-4.17-4.84-2.78,4.22-5,7-5.16,9.32-3.69-1.74-2.2-3.2-2.54-5.12-1.37,2.71-3.35,5.45-3.67,8.63-2.15-1.19-1.67-3.64-3-7.44-.91,6.25-5.62,9.31-5.92,11.47-3.63-.42-2.21-4.82-3.16-6.39-3.36,3-1.82,8.48-3.82,11.3-.46a3,3,0,0,0-3.32-3c2.88-1.71,5.38-2,8.7,0,.29-.62-.41-2.11-4.3-3.28a13,13,0,0,1,7.06.74c6.48,2.33,33.24,9.33,38.84,32.35-.3-26.6-36.8-36.9-37.79-37.65-1.16.29-2.3,2.53-3.92,3.25,1.43-1.54,1.74-1.83,1.28-4-1.93,3.67-3.49,3.61-5.92,4.39,1.72-1.55,1.9-2.86,1-4.17,0,1.12-1,3.23-5.06,5.23a8.59,8.59,0,0,0,2.94-4c-2.88,2.62-7.14,5.88-9.74,5.2A11.41,11.41,0,0,0,82,106.68c-2.28.58-6.59,4.23-10.88,4.12,3.3-1.48,4.53-3.07,4-4a14.53,14.53,0,0,1-9.63,3.87c2.15-1.08,4.76-4,3.86-5.22-2.38,1.72-2.23,3.25-6.64,3.07,2.34-1.31,2.26-2.15,1.52-3.47-.72,1.66-5.11,5.51-8.59,4.8,4.59-2.79,4-4.54,3.41-5.81-.66.23-1.74,3.14-6.58,3.13,2.86-1.66,2.95-5.47,2.89-5.5-.65,1.06-3.15,3.55-5.83,3.1,1.65-1.16,1.4-2.54.89-4.28-2.53,2.3-4.29,1.38-5.95.41,2.16-1.23,2.19-2.88,2.57-4.35-2.51,2.2-6.53,1.24-7.37.36a3.41,3.41,0,0,0,3-3.66c-1.57,1-2.82,1.53-4.56.2a4.62,4.62,0,0,0,3.61-2.45c-1.17,0-3.46,1.83-7.35-.48,4.42-.06,3.32-2.84,2.37-4.3.23,1.85-2.07,3.33-4.27,1.2,2.52.27,2.34-2.69.93-3.49-.65.9-2,2.07-4.8.28a2,2,0,0,0,2.2-2.26c-.42.35-1.38,1-3.4.39,1.57-.37,2.31-1.38,1.94-2a3.71,3.71,0,0,1-2-1.76c1.34.65,2.67,1.17,4.05.48a3.33,3.33,0,0,1-1.85-2.79c1.15,1.5,3.13,2.37,4.21,2.12a4.18,4.18,0,0,1-2-3.66,13,13,0,0,0,3.05,2.46A4.65,4.65,0,0,1,35,73.55C46.26,85.4,61.4,85.45,66,86.06c3.74.49,7.08-11.39,25.68-2.8C92,83.38,86.38,62.58,86.86,62.9Z"/><path class="cls-4" d="M67.06,94.36c1.17-.43,6.39-1.66,5.36-7.64-.44-2.57-8.64-13.25-8.67-13.46l.3-.85c-.62-1.32.85-1.16-.21-3.43.42-.54.08-6.72.43-8,.23-.85-.11-3.46.26-4.51-.67-.53.72,0-.25-2,1.62-2.11-5.09-9.83-6.54-11-.74-.58-2.45-2-4.35-3.53-1.64.32-3.55,1.6-5.94,4.41,1.36-1.39,4.69.1,4.84,2.79-3-3.56-6.59-.2-8.59,2.83,3.27-2.52,4.46-2.26,6.9-.13-3.75-1-8.27,1.74-10,6.93,2.24-3.41,4.79-3.56,7.56-2.78-3.15-.06-8,3.59-9.4,6.51,2.36-.92,3.67-1.74,5.48-.11-2.54.29-4.23,1.92-4.86,5.71,1.35-1.83,2.42-2.13,3.89-1.69-1.54.41-4,4.09-3.33,7,1-1.39,1.77-2.67,4.09-2.09-2.72,3.11-2.16,4.46-1.78,5.91.76-2.12,1-2.57,2.43-2.87-.35,1.43-2.13,4.63,1.19,6.28-.65-.79-1.21-3.07,1.69-5.3-1.57,2.19.45,5.91,1.63,7.1-.6-3.16-.2-4.79,1.71-5.29-.83,2.13-.23,5.67,1.28,6.71,0-2.54-.06-4.78,2.25-6.12-2.77,4.35.49,6.77-.8,8.91,2.22-.43,2.81-4.23,2.07-5.9,2.3,2.09,3.06,5.52,2.08,7.8A4.86,4.86,0,0,0,61,82c.93.94.84,4.79-1,5.43a2.5,2.5,0,0,0,3.22-1.24,3.53,3.53,0,0,1-.58,3.22c2.2.43,3.9-1.75,4.46-2.92-.22,1.39-1,3.84-2.81,5,1.64.25,3.35-2,4-2.6.71,2.22-.29,3.62-1.33,5.54Zm-15.42-55,.38-.45.18.15A5.81,5.81,0,0,0,51.63,39.31Z"/><path class="cls-2" d="M80.94,21.19a4.3,4.3,0,0,1,.3,1.92c-3-3.3-9.8-3.87-12.19-3.48A12.27,12.27,0,0,1,77.47,25c0-.9-10.26-5.56-14.4-2.31l-.3.13c2.47-1.45,8.5,1.52,8.13,4.57C67.68,23.85,62,23.44,59.37,24.6c3.5.08,6.13,1.06,6.58,2.36-2.81-1.42-8,.76-9.8,1.72,3.15-.36,7.54-1.56,9.06,1.25-6.7-2.37-10.1,2.87-11.1,3.14,4.24-1,5.3-1.42,6.8-.3-2.07-.61-4.73.45-8.71,3.84,3.79-1.57,4-.58,5.61.46a8.89,8.89,0,0,0-8.5,2.88c3.33-.81,5-.77,6.37,2-5-1.31-6.93.73-8,1.41,3.31-.46,4.25.45,5.78,2.28C51,44.33,48.35,44.59,46.6,48c4.22-2.84,5.11-1,6.18,1.18-4.5-.21-4.7.42-6.23,3,.13-.22,1.81-1.3,3.92.73-1.5.47-2.71.53-3.78,3,3.44-2.4,4.75-.45,4.84-.35-1.92-.58-3.47,2.06-3.73,3.45,3.1-2.4,5.31-.31,5.65.14-2.54-.51-5.68.52-7.15,4.6,5.17-6.07,8.9-1.71,9.28-1.32-.05-.22-4.12-.25-5.45,3.41,2.58-2.3,6.94-.69,7.32-.3-4.37-.69-6.73,1.53-7.92,4.14,4.26-3,8.15-1.13,8.91,0-4.55-2.22-6.59,1.65-7.25,2.76,4.33-2.24,5.57-.88,8,.44-2.88-.11-4.58,1.45-5.56,4.51,1.26-.9,2-1.6,7.56-1.35-2.26,2.6-2.33,2.14-6,2.24,1.16.81,5.45,3.15,7.56,2.13-.73,1.69-3.55,1.48-4.85,2.2,4.32,1.46,4.35.59,7.39-.53,1,2.5-.72,3.43-3.24,3.53,1.36,1.5,3.6,1.89,6-.72.6,2.68-.39,3.37-2.13,4.46a8.17,8.17,0,0,0,5.93-1.59c-.15,1.62,1.21,2.83.48,5.07,1.87-.39,2.11-1.92,2.46-4.42a3.25,3.25,0,0,1,1.68,4.34c1.81-1.34,2.23-2.87,2.15-5.23,1.81,5.11,1.34,6,.81,7.43,2.73-1.78,3.79-3.81,2.87-6.47,2,1.9,3.69,2.68,2.71,7.36.91-.93,4.14-3.92.67-7.54,1.34.37,4.29,3.48,2.54,8.31A6.51,6.51,0,0,0,90,88.08c.49.25,3.31,3.87,1.78,6.93,3.22-2.28,2-6.07,1.81-6.06.49.25,5.85,2.49,1.33,9,3.61-2.53,3.73-5.76,2.51-8,.53.19,3.23,1.67,1.73,5.24,1.29-.63,3.46-2.84,2.35-4.46.12,0,2.41.71,1,4.61,2.12-1.7,1.83-2.85,1.87-4.38,2.6,1.4,2,3.27,1.83,3.46,2.12-2.17,2.68-2.53,1.2-6.67,2.47.37,4.52.69,2.92,5.43,2.91-2.61,2.41-5.17.41-7.09,2.24.91,3.4,1.53,3.88,4.75.37-1.19,1.83-3.58-.87-7.86,3.14.51,3.65,2,3.79,5.37a8.34,8.34,0,0,0,.43-8.76c1.47,1.19,2.51,1.12,2,5.11,2.21-4.67,2.5-7.45,1.32-9.21,1.53,1.09,1.45,2.19,1.63,6.43,0-1,4.18-5.66-.06-11.25,3.2.62,3.27,5.06,3.8,8.1.43-2,1.12-7.42-1.08-9.64,1.4,0,3.12,2.23,4.19,5.47.4-2.77-1.61-8-6-10,2.9-1.21,7.53,3.58,6.81,6.29,0-.1,0-.21,0-.31,2-4.79-5.47-13.05-6.36-12.79A12.26,12.26,0,0,1,132,64.21c-.29-2.34-2.77-8.5-6.88-10.39a4.67,4.67,0,0,1,2-.26c.17-1.34-3.06-2.73-3.8-3.84-1.95-3-7.45,2.75-8.72,4.4-1.44,1.87-2.51,3.72-4.45,4.87l-.52.67c-1.1,1.44-.59-.27-2.09,1.33l-1.1,1c-.66-.44-1,.3-3.29-.83-1.33-.67-1.51-.32-3.59-1.37s-3.64-1.41-5.94-2.93l-1.12-.4c-.38.49-2.17-1.05-4.37-1.49-.22-.27-.32-.48-.2-.63l-.71-.93c-2.16-1.71-3-3.12-4.58-4.72s-1.32-1.9-2.36-3c-1.75-1.78-1.13-2.34-1.75-2.83l.64-1.3c1.15-1.85-.38-.89.72-2.33l.52-.68c.58-2.14,2.1-3.66,3.53-5.53,1.27-1.66,5.34-8.41,1.86-9.39C84.5,23.28,82.21,20.65,80.94,21.19Z"/><path class="cls-5" d="M113.69,88.63c8.23-8.72,9.44-18.54,3.82-23.2,3.62,5.64,2.72,13.47-3.54,21.33,1.56-3.5,4.92-9.66,2.25-13.55,1.51,4.28-2.82,14-9.59,17,5.71-4.68,9.26-13.2,4.93-16.8,2,2.56,1.63,8-1.06,10.88,3.06-5.63-.48-10-4.06-11.73,3.89,3.93,3.62,7.32.8,12.18,1.31-4,1-7.39-2.85-10.68.58,2.86-.88,8.17-2.71,9.81,1.63-3.62.69-7.57.39-10.92-.38,3.65-.33,6.49-2.28,10.24.34-3.24,0-5.95-1.64-7.72,1.84,6-.84,6-3.48,7.31,1.77-2.19,2.47-4,1.25-7.48-.62,2-1.16,6.61-5.35,8.84C93,81.57,95,75.48,94.08,73.52,94.59,75,91.24,82.85,86,87A23,23,0,0,0,90.5,75.55c-1.64,3.93-5,10.35-9.8,12.73,3.21-3.6,6.57-10.38,4.45-12.35-.06,1.92-2.12,6.78-9.73,11.86C80.25,83.15,83.83,76,84.08,74c-2.46,4.66-7.35,11.42-13.16,14.68,3.18-3.1,8.92-11.54,9-15.45-1.33,1.76-4,7.75-8.15,9.56,2.76-3.77,5.7-10,5.82-12.44-5.2,11.55-6.19,5.93-9.61,15.8.44-10.37,7.41-12.87,9-19.07-1.05,1.88-5.69,8.44-8.54,9,2.24-1.45,4.81-6.79,5.05-9.21C70.6,68.61,66.4,73.29,64,81c.48-7.77,3.77-13.93,6.11-15.68-1.17.28-5.09,3.86-6.41,7.52a17.26,17.26,0,0,1,5.35-10.41C65,64.73,58.52,70.48,57.72,76.79c-.91-6.42,5-14.79,9.71-16.35-3.91-.5-10.31,5.78-11.84,11.11-.22-6.16,4.85-11.06,8.11-13.27-3.61,1-7,2.86-8.17,6.51C54.47,60.24,61,54.66,65.4,53.29c-5.26-.5-11.46,4.23-13.68,10C52.06,59.62,57.31,50.87,63,51c-3-.87-6-.94-7.4,2.29.67-3.71,3.38-5.62,7.44-6.21-5.82-1.37-7,.53-8.32,3.26.75-4.56,3.22-6.33,6.5-6-2.39-.71-6.13-.28-9.48,3a7.16,7.16,0,0,1,6.67-4.71c-2-1.08-3.2-1.5-6.08,2.27a6.28,6.28,0,0,1,8-5.59c-1-1-5.14-2.66-9.71,1.43,3.71-5.2,7.14-4.38,9.71-3.49-.65-.75-6.36-5.69-14.44,4.07C50.49,31.47,59.3,31.49,64,33.49c-6.55-4-12.91-1.54-17.9,3.56,6.37-8.27,15.09-7.71,20.8-6.53-5.12-3.17-14.27-1.57-19.48,3,3.79-4.9,10.68-8.08,21.06-7.49-7.51-1.87-11.4-1-18.49,3.57,7.69-9,16.27-6.26,19.09-5.65-3.64-3.24-8.48-2-11.33-.61,2.91-2.72,10.09-3.6,13.74-2.86C68.1,19,57.16,17.77,48,31.11c2.93-6.75,15.37-18.47,25.28-13.44-3.83-3.12-10.49-3.75-16,.88,5.4-7.29,15.94-6.25,18.4-4.77-5-3.69-12.34-2.49-17,1.16,5.85-6.66,15.79-7.31,21.44-3.3C76.7,7.43,66.26,6.45,60.51,10.38c4.86-5.13,18-5.31,22.41.18-.33-4-8.34-6.67-14.11-5.14,5.61-2.81,14.09-.87,17.25,3-1.19-2.86-3.84-4.59-7.78-5.15,3.37-.54,8.28.94,9.89,5,.36-1.52-2-4.59-7.15-6,5.13-.75,10.56,3.77,12,6.63-.38-2.83-3.34-6.48-8.19-7.07a9.57,9.57,0,0,1,10,4.55c-.47-2.67-1.35-4.08-5.68-4.91a6.46,6.46,0,0,1,7.37,3C95.8.74,92.31.2,88.43.2c4-.48,8.06-.45,9.61,4.13C98.09,3,97.88,2.05,95.37.21c2.69.77,5.66,4.94,5,7.52A4.77,4.77,0,0,0,98,1.3c2.58.12,4.35,1.53,3.77,6.91,1.39-2.9.38-6-2-7.16,2.44.17,5.19,5.47,3.22,8.42,1.76-1.74,2-4.55-.41-6.94,3.92,2.76,3.3,5.74,1.66,9.27,3-2.93,2.15-5.22.66-7.42,2.28,1.83,4.4,3.71.69,8,2.07-1.61,2.28-3.71,2.38-6.31a7,7,0,0,1-.64,6.67,4.7,4.7,0,0,0,1.45-5c1.39,1.16.39,4.05-.51,5.71,1.91-1.45,2.58-4.24.15-6.65,3.22,1.73,2.53,6.23,1.43,7.7a3.11,3.11,0,0,0,1.2-2.77c.57,1,.68,1.88-.73,4.63,1.33-1.64,2.45-2.64.86-5.89,1.75,1.9,1.94,4,1.15,6.64l-.43.55c2.71-1.86,4.94-2.4,7.43-1-3.49-.78-4.17.57-5.41,2.28,2.28-2.05,3.12-2.16,4.24-1.84A3.06,3.06,0,0,0,115.83,19c1.14-1.45,5.27-3.22,7.7-.47-2.89-1.81-5.39-.48-6.31,1.76,1.36-1.29,3.88-3,5.32-1.89a4.58,4.58,0,0,0-4.4,2.64,6.75,6.75,0,0,1,6.21-2.25c-2.46.73-4.42,1.45-5.44,3.88,3.16-4.69,5.48-3.06,7.78-1.26-2.47-.94-4.87-1.25-6.93,2.45,3-2.47,5.66-3.82,9.25-.62-2.86-1.75-5.49-.87-6.72,1.29,2.34-2.66,8.06-1.24,8.82,1.13-1.66-2-4.88-2.26-7.3-.19,5-1.89,6.77-.49,7.51,2-1.81-2.12-4.54-2.63-6.72-.83,2.31-1.24,7,.68,8.4,3.14-2.37-2-3.31-2-4.59-1.64,4.75.41,5.77,4.41,6.28,8.48-.95-3.83-2.3-7.13-6.13-7a6.6,6.6,0,0,1,4.65,6.53c-1.85-4.07-3.4-4.59-6.07-4.41a9.75,9.75,0,0,1,6.78,8.76c-1.74-4.63-5.94-6.66-8.74-6.35,3.08.77,8.72,5,9.25,10.26-2.58-4.78-6.07-6.32-7.43-5.6,4.3.6,6.9,5.08,7.2,8.53-1.49-3.75-3.79-5.95-6.8-6.42,4.48,2.17,8.39,10.06,7.08,16.28.06-6.06-4.48-13.3-8.34-12.66,6.3,3,9.33,16,5.62,22.05,2.35-6.62-1.12-16.68-6-19,5.3,4.69,7.07,15,1.74,22.4,2.69-6.59.74-14.56-2.71-17.53,2,2.07,4.57,11,2.24,14.42,1-5.14-2-10-4.53-11.1,4.32,3.42,5.21,15.43.62,22.2,2.49-7.41,2.27-15.18-2.78-19a12.81,12.81,0,0,1,3.05,9.6c-1.06-3.59-3.93-7.06-6.35-7.34C128.24,73.24,120.51,82.1,113.69,88.63Z"/><path class="cls-6" d="M116.25,31.86c0,3.21,1.09,3.28,1.36,5.73.17,1.57,1.54,3.89-3,9.39C103.07,61,104,62.35,97.52,63.27s-13.7.84-18.88-4.43-7.74-8.68-6.42-12.9S72,38.73,74.6,33.58,84,22.65,87.82,19.86,93,15.37,98.88,16.72s8.46,5.73,10.67,6.12S116.07,32.1,116.25,31.86Z"/><path class="cls-6" d="M103.32,46.83c-1.56-1.73-2.21-2.24-2.5-5S98.53,38.55,98,40.37s1,3.33-.33,3.44-2.33-1-1.73-2.64,2-4.26,3.85-3,2.15,5.32,2.89,3-.19-3.38,2-1.62,2.57,6.53,6,4.46,5.19-1.64,5.19-1.64L112.5,54.89l-5.12,5.41s-1.26-7.73-1.62-8S103.48,46.87,103.32,46.83Z"/><path class="cls-7" d="M110.32,36.58c2.47,2.84-.15,7.45-3.84,5.94-3.06-1.26-4.2-3-4.46-3.83C101.48,37,106.79,32.51,110.32,36.58Z"/><path class="cls-7" d="M116.49,38.05c-.53-1.27-2.22-1.06-2.22-.67,0,1-1.27,3.14-2.11,4.31-2.27,3.16-5.78,5.91-8.29,4.8s-3.86-2-3.37,1.14-.33,4.43-3,2.89S95.24,47,92.42,47.27s.86-3.88,1.79-5.36c-2.69,1.48-5.95-5,.13-5,2.2,0,2.44-3.43,6.25-3.14s7.33,1.71,4.46-1.44-4.93-5.58-4.74-6.59-.45-.55-1.71.11-.89.66-3-1.88-4.95-1.68-6.77-.68-5.76,7.63-3.92,8.6-9,.47-9,.47l-8.2,14.19L80,58.58s7.12,6.76,17,3.89c2.85-.83,17.88-12.3,18.28-12.81C117,47.36,116.35,38.23,116.49,38.05Z"/><path class="cls-6" d="M97.1,45.17c1.3,1.57,1.19,1.09.31,2.1s-1.56.47-2.2-.38a1.22,1.22,0,0,1,.49-2A2.3,2.3,0,0,1,97.1,45.17Z"/><path class="cls-6" d="M90.34,31.27c.4.61,1.71.77.9,1.89s-1.43,2-3.19,2-1-1.93-.9-3.15C87.34,30.31,88.89,29,90.34,31.27Z"/><path class="cls-8" d="M99.89,27.71a2.1,2.1,0,0,1,.18,2.58c-.56.88-.83,1.44-1.86.35s-2.9,2.89-3.68,2.58c-.94-.37-.1-4.47-.19-4.74s1.56-2.57,2.31-2,.28,2.6.91,2.3C99.15,28,98.17,25.74,99.89,27.71Z"/><path class="cls-8" d="M103.85,53.89c-.18-3.76-.49-5.85-1.16-3.55-1.28,4.35-7,3.2-8.2,0s-1.9-3-3.32-2.68-2.35-1.57-2.52-3,.67-.74-.41-2.09.15-3.2,1.55-3.65,1.15.13,1.2-2.07c0-1.58,2.74-2.45,4.17-3.92,2.15-2.2,1.75-6.93-.85-6.91-2.32,0-2.48,0-3.34,1.1s-.59,4.71.57,4.94.51,2.9-1.81,3.79-3,.76-4,1.87-1.36.78-5.77-3.11-6.65,8.78-6.65,8.78l-1.53,9.13L93.54,65.82S103.79,53.84,103.85,53.89Z"/><path class="cls-9" d="M95.07,60c0-1.9.58-3.46-.4-4.6a9.8,9.8,0,0,1-1.84-2.92c-.35-.82.05-.31,1.14.92.57.64.26,1,1.78,2,1.05.75-.29-.25-.5-2s-1.71-2.53-2.68-3.15-1.67-2.66-2.2-3.6-2-.7-3.34-.91-1.86-.29-1.86-1.23-.32-1.12-1.09-1-2.61-1.19-.89-2-2.58-1.39-2.58-1.39L77.28,43.6l2.53,7.28s5.36,3.9,5.57,3.93,10.56,8.08,10.56,8.08A8.63,8.63,0,0,1,95.07,60Z"/><path class="cls-9" d="M94.64,41.44a9.79,9.79,0,0,0-.84,3.72c-.13,1.17-1.77.94-3,1.25s-.24-1.56-.25-2.55S93.59,42.55,94.64,41.44Z"/><path class="cls-10" d="M94.73,63.45c.3-2,.67-7.18-1-7.2s-2.18-1-3.13-2.18-1.51-4.91-4.71-5.5-5.08-1.88-5.53-2.92,1.19-4.43,3.33-4.09,1-2.07-1.91-4.4-8.62-2.78-8.62-2.78L71.48,50.77s12.51,12,12.8,11.72S94.49,63.64,94.73,63.45Z"/><path class="cls-8" d="M94.64,24.19c-3.31-1.74-7.08,2-4.73,5.22,2,2.72,3.92,3.4,4.74,3.46C96.37,33,99.38,26.68,94.64,24.19Z"/><path class="cls-3" d="M114.22,67.3c.86-.32,1.69,1,2.52,2.2-.86-3.93-.06-7.68-4-11.95,1.76.25,2.68,2.47,3.5,4.91a13.8,13.8,0,0,0-1.62-7.12c3.5,1.74,4.73,6.17,6.57,9.88-1.11-4.55-1.82-9.46-4.93-12.27,1.18-.49,2.07,1,3,2.36A5,5,0,0,0,118,50.44c3.16.92,4.28,4.27,5.81,7.14-1-3.63-1.06-7.27-5.08-10.83,3.34.61,4.37,3.68,6.1,6-1.5-2.91-1.47-6.25-5.85-8.33,3.1-.88,4.83,2.45,6.91,4.7-1.47-2.78-2.56-5.8-6-7.45,2.17-.46,5.07,1,8.06,2.7-2.61-1.8-5.11-3.85-8.37-4.3,1-.55,2.39-.27,4.23,1.22-1.16-2.45-2.58-4.48-4.91-5.07,2.12-.23,4.39.78,6.77,2.65a11.59,11.59,0,0,0-6-4.17,8,8,0,0,1,6.62,2.34,7.24,7.24,0,0,0-4.73-3.56c2.9-.12,4.3.33,7.71,2.42A13.06,13.06,0,0,0,120.67,32c.94-.74,5.18-.91,7.38.6-1.29-1.6-7.45-2.64-9.19-1.7C121.6,29,127,29,130.78,30.27c-3.73-2.35-6.88-3.48-10.67-2,1.14-1.82,5.86-3.43,7.27-3-1.64-.59-6,0-7.82,2A7.39,7.39,0,0,1,124,23.91c-2.22-.61-4.51.41-6.83,2.17,2.11-2.62,5.79-4.4,7.65-3.69-1.74-1.37-5.57-.29-8.3,2.79a14.23,14.23,0,0,1,3.94-4.36c-1.73,0-3.14,1.74-4.52,3.12a16.48,16.48,0,0,0,1.79-7.32,10.57,10.57,0,0,1-3.9,5.83c.87-1.45,1.79-2.87,1.66-4.9a13.06,13.06,0,0,1-2.24,3.67,22.64,22.64,0,0,0,2-7.14c-.71,2.67-1.63,5.26-3.94,7.38a5.52,5.52,0,0,0,1.34-4,9.85,9.85,0,0,1-3.25,4.23c-.06-1.11.72-3.32,1.73-3.49a3.39,3.39,0,0,0-2.32,1.28,8,8,0,0,1,3.47-3.28c-2.14,0-4.19.28-5.65,2.13a8.78,8.78,0,0,1,3.92-4.86c-2,.34-3.87,1.78-5.54,4a9.93,9.93,0,0,1,4.71-6.38,12.45,12.45,0,0,0-6,3.38c-.33-.58,3.76-5.43,4.48-5.58.24-.85-6.8,4.64-6.49,5a12.66,12.66,0,0,1,3.83-4.74A12.33,12.33,0,0,0,100,12.5c1.64-1.65,2.28-3.95,2.89-6.26a27,27,0,0,1-4.51,7.12A10.48,10.48,0,0,0,97,5.45a18.65,18.65,0,0,1-.58,9.46,10.07,10.07,0,0,0-2.94-7.39c1.28,2.31,1.34,4.49,1.56,6.69-1.46-3.4-3.23-6.63-7.17-8.61,4.14,3,4.49,5.68,5.42,8.39-1.6-2.6-3.09-5.3-6.58-6.38,2.9,1.24,3.88,3.58,4.8,5.95-2.65-2.25-5-3.68-8.63-3,1.64-.13,7.15,2.68,8.31,5.62-3.9-3.59-9.75-5.71-12.49-4.66a21.41,21.41,0,0,1,7.45,4.74c-2.39-1.59-4.81-3.12-7.71-2.42a10.22,10.22,0,0,1,4.41,2.72,19.7,19.7,0,0,0-6-1.87A20,20,0,0,1,84.3,20a17.05,17.05,0,0,0-9.6-2.95,15.67,15.67,0,0,1,7.79,4.81c-3.16-1.06-6.28-2.17-10.33-1a10.55,10.55,0,0,1,6.49,3c-3.47-.75-6.84-.93-9.94.48,2.09-.94,7.71.65,8.81,1.73-2.77-.56-9.19-1-11.52,1.55,1.21-.75,7.56-.76,9.69,1.08-2.13-.46-7.64-.21-9.19,1.26a7.11,7.11,0,0,1,2.87,1.49,9.21,9.21,0,0,0-5.65,2.13c2.8-.91,5.34-1.11,7.49-.28a14.22,14.22,0,0,0-9.09,2.12c3.17-.95,6.77-.27,9.73.53-2.75.42-5.2-.8-8.43,2.26.31-.3,3.6.33,4.09.91a6.11,6.11,0,0,0-5.11,2.17c1.47-1.4,5.87-1.74,6.65-.94-1.58-.25-5.64,2.79-6.2,3.83,1.56-.44,2.69-.92,4.35-.43a15.74,15.74,0,0,0-6.84,5.66,24.1,24.1,0,0,1,9.36-5.21c-1.76.32-8.07,5.88-8.7,8.85,1.32-2.34,6.73-5.29,8.33-4.87a12.72,12.72,0,0,0-5.46,4.62,17.74,17.74,0,0,1,5.9-2.71c-4.15,2.09-6.63,5.5-9.12,8.9,2.93-2.7,5.68-5.59,9.78-7a15.6,15.6,0,0,0-5.3,5.91,15.52,15.52,0,0,1,6.59-4.11,21.3,21.3,0,0,0-4.22,7.74,11.08,11.08,0,0,1,5.87-5.65,26.75,26.75,0,0,0-4.22,9.49c1.87-2.73,3.43-5.7,6.51-7.48a5.34,5.34,0,0,0-1.82,3.61,4,4,0,0,1,2.62-1.42c.51,3.39-1.32,6.45-3.8,9.43C75.12,67.25,77.6,65,79,61.34c-.18,1.83-.41,3.64-2.11,4.74A5.65,5.65,0,0,0,80.6,63c-.84,3.51-3.23,6.14-5.59,8.79,2.59-2.26,5.35-4.26,7.12-7.78A7.6,7.6,0,0,1,80,69.51a10,10,0,0,0,3.89-3.33c.55,3.17-1.91,5.51-4.31,7.86,2.68-2.12,5.63-3.74,7.5-7.27a5.71,5.71,0,0,1-1.82,3.61,3.94,3.94,0,0,0,2.63-2.19c1.6,1.49-1.28,4.55-2.79,7.12,2.74-2.1,5.6-4.43,6.83-7.41a18.15,18.15,0,0,1-2.47,8c2.3-2.52,5.57-8.39,5.18-9.5.68,1.49-.29,4.5-1.24,6.6a11.59,11.59,0,0,0,2.4-4.12c1.23,2.7.25,6-.59,9.25,1.43-3.24,3.19-6.39,2.51-10.25,1.22,1.34,1.5,3.39,1.25,5.85a23.06,23.06,0,0,0,2.42-8.39,19.87,19.87,0,0,1-.54,7.93,8.8,8.8,0,0,0,1.32-4.2c2.37,2.55,1,6.49,1,9.92,1-4.41,3-8.75.85-13.32a4.4,4.4,0,0,1,1.77,3.93,7.32,7.32,0,0,0,1-3.84c2.07,2.67,2.29,6.12,1.23,10.11,1.11-2.95,2.37-5.9,1.82-8.86,1,1.09.94,3.39.61,5.93,1.56-3.19,1.37-5.93,1.29-8.77,2,3.84,3.46,7.92,2.13,13,1.33-3.23,2.38-6.48.31-9.86ZM112.1,34.46a1.42,1.42,0,0,0-1.15,1,5.56,5.56,0,0,1,3.45-.32,4.52,4.52,0,0,0-3.22,1.27,2,2,0,0,1,1.44.17c-.54,0-.69.33-.8.69.78-.54,1.63-.09,2.48.23-.81-.05-1.68-.39-2.35.22a3.41,3.41,0,0,1,2,.93c-.57-.11-1.15-.25-1.42,0a7,7,0,0,1,1.38,1.85c-.46-.47-.87-1.12-1.49-.9a5.19,5.19,0,0,1,1.87,2.8c-.57-.87-1-1.88-2.15-1.91a4.56,4.56,0,0,1,1.08,2.32c-.29-.52-.61-1-1.13-.83a6.93,6.93,0,0,1,.83,2.12c-.29-.52-.59-1-1-.89a2.4,2.4,0,0,1,.61,1.52c-.34-.43-.59-.58-.74-.45.47.17,1.52,2.07,1.52,2.11-.88-1-1.51-1.52-2.11-1.26a1.3,1.3,0,0,1,.37.77,1,1,0,0,0-1-.35,1.89,1.89,0,0,1,.46,1,1.69,1.69,0,0,0-1.77.26,2.62,2.62,0,0,1,1.94.85,3.18,3.18,0,0,0-2.78-.2,1.36,1.36,0,0,1,.5,1,1.31,1.31,0,0,0-1.18-.25,2.45,2.45,0,0,1,1.27,1,3.51,3.51,0,0,0-2.1-.83c.47.24.48.46.43.68a.69.69,0,0,0-.86-.48c.58.51,1.16,1.6,1,1.86a3.77,3.77,0,0,0-2.18-1.87,1.67,1.67,0,0,1,.89,1.33A3.7,3.7,0,0,0,104,48.45a3.17,3.17,0,0,1,1.33,1.82,5.43,5.43,0,0,0-1.85-1.68,1.56,1.56,0,0,1,.13.8,2.26,2.26,0,0,0-.9-1.13,4.53,4.53,0,0,1,.19,2.51,2.63,2.63,0,0,0-1-1.59,4.26,4.26,0,0,1,.09,1.66c-.16-.52-.36-.85-.61-.9a4.35,4.35,0,0,1,.55,2,2.44,2.44,0,0,0-.7-.69,3.07,3.07,0,0,1,.4,1.43,1,1,0,0,0-.91.11c.7.27.87.92,1.07,1.54-.39-.35-.79-.63-1.16-.36.57.2.28.64.17,1a1.19,1.19,0,0,0-.59-1.09,2.36,2.36,0,0,1-.19,2.2,1.18,1.18,0,0,0-.84-.95,2.69,2.69,0,0,1,.65,1.56q-.46-.83-1-.61c.5.32.43.81.46,1.27A1.48,1.48,0,0,0,98,56.07a2.32,2.32,0,0,1,.27,1.88,2.52,2.52,0,0,0-1.07-2.16,1.73,1.73,0,0,1-.12.95.71.71,0,0,0-.72-.57A4.07,4.07,0,0,1,96,58c-.1-.32-.1-.74-.45-.84a7.5,7.5,0,0,1-.59,1.75,1.23,1.23,0,0,0-.38-.85,4.19,4.19,0,0,1-.65,2.53c.09-.79-.11-1.37-.73-1.62a3.53,3.53,0,0,1-.91,2,5.88,5.88,0,0,0,.36-1.72,4.49,4.49,0,0,1-1.33,1.37,1.41,1.41,0,0,0,0-1.37A4.9,4.9,0,0,1,89.91,62a4.39,4.39,0,0,0,.73-3.17,2.49,2.49,0,0,1-1,1.18.61.61,0,0,0-.23-.67,3.91,3.91,0,0,1-.75,1.42,6,6,0,0,0,.56-2.06,2.38,2.38,0,0,1-1,.91,3.4,3.4,0,0,0,.71-2.08,4.89,4.89,0,0,1-1.72,1.62,3.29,3.29,0,0,0,.6-1.68,2.21,2.21,0,0,1-1.49,1,3,3,0,0,0,.63-1.79,6.19,6.19,0,0,1-3.3,2.52c1.09-.71,2.61-2.14,2.71-3a3.89,3.89,0,0,1-2.11,1,2.34,2.34,0,0,0,1.07-1.3.8.8,0,0,1-.92,0,3.13,3.13,0,0,0,1.75-1.66,2.48,2.48,0,0,1-1.82.77c-.26-.11,1.3-1.82,1.8-1.9a3.81,3.81,0,0,0-2.31,1.5,3.87,3.87,0,0,1,.9-1.79,6,6,0,0,0-1.7,1.5,3.32,3.32,0,0,1,.72-1.3,6.81,6.81,0,0,0-1.79,1.71,8.22,8.22,0,0,1,1.21-2,3,3,0,0,0-1.5,1.24,2.67,2.67,0,0,1,0-1.17,6.89,6.89,0,0,0-1.2,2.45,8.49,8.49,0,0,1,.57-2.6,3.54,3.54,0,0,0-.89,1.16,2.25,2.25,0,0,1,.27-1.59,2.92,2.92,0,0,0-1.27.94,2.51,2.51,0,0,1,.59-1.4,5,5,0,0,0-1.37.72,4.6,4.6,0,0,1,.28-2.14A4,4,0,0,0,77.11,52c-.18-.08.63-2.26,1.06-2.36a2.22,2.22,0,0,0-1.23.9,2.3,2.3,0,0,1,.7-1.45c-.61-.21-2.26,1.55-2.67,2.32,0-.84,2.12-3,2.47-3-.43-.35-1.2,0-1.54.31a2.21,2.21,0,0,1,1.51-1.16,1.76,1.76,0,0,0-1.38,0,6.93,6.93,0,0,1,2.74-1.79,2.18,2.18,0,0,0-1.71.45A2.61,2.61,0,0,1,78.68,45a9.45,9.45,0,0,0-4.16.79,15.65,15.65,0,0,1,3.82-1.69,2,2,0,0,0-1.25.12c0-.12,1.05-.84,1.49-1a2.79,2.79,0,0,0-1.83-.55,2.57,2.57,0,0,1,1.9-.44,2.6,2.6,0,0,0-1.51-.71A1.37,1.37,0,0,1,78,41.5a3.44,3.44,0,0,0-2.22-.58,5.91,5.91,0,0,1,3-.14,3.45,3.45,0,0,0-1.39-.68,3.68,3.68,0,0,1,1.88-.66A7.63,7.63,0,0,0,76,39.3a8.11,8.11,0,0,1,3.39-.77A1.93,1.93,0,0,0,78.17,38a3.62,3.62,0,0,1,2-.61A6.26,6.26,0,0,0,78,36.94a6.07,6.07,0,0,1,2.88-.42,4,4,0,0,0-1.72-1.28,4.19,4.19,0,0,1,3.25,1,2,2,0,0,0-.66-1,3.15,3.15,0,0,1,1.41.32,2.14,2.14,0,0,0-1-1,3.12,3.12,0,0,1,2.2.42,3.22,3.22,0,0,0-1.31-1.13,4.06,4.06,0,0,1,2.11.44,9.72,9.72,0,0,0-3.37-2,7.45,7.45,0,0,1,3.77.87,4.33,4.33,0,0,0-1.78-1.41,4.52,4.52,0,0,1,2.22.61,7.1,7.1,0,0,0-2.43-1.93c.25-.23.61-.3,1.17,0a4.39,4.39,0,0,0-2.1-1.22,3.33,3.33,0,0,1,2.2-.38,1,1,0,0,0-1.27-.4,3.39,3.39,0,0,1,2.23-1.31,2.29,2.29,0,0,0-1.72-.48,5.54,5.54,0,0,1,3.64-1c0-.48-.76-1-.76-1a3.7,3.7,0,0,1,2.39-.84,3.19,3.19,0,0,0-2.27-1c1.59-.66,2.9-.14,4.2.42-.12-.79-.77-1.26-1.34-1.77a3.76,3.76,0,0,1,2.72,1.1,5.08,5.08,0,0,0-1.37-2.06,4.47,4.47,0,0,1,2.34,1.15,1.57,1.57,0,0,0,0-1.24,2.88,2.88,0,0,1,1.41,1.21,3.89,3.89,0,0,0,.53-2.94,13.43,13.43,0,0,1,1.81,3.65,4.34,4.34,0,0,0-.25-2.05A2.44,2.44,0,0,1,98,21.47c.44-.53.33-1.23-.1-2a8.12,8.12,0,0,1,1.55,2.29,1.25,1.25,0,0,0,1-.77,5.55,5.55,0,0,1,.63,2,6.48,6.48,0,0,0,.77-2.48,10.34,10.34,0,0,1-.16,5.09,6.37,6.37,0,0,0,1.54-2.23,2.62,2.62,0,0,1,.07,2.18,3.65,3.65,0,0,0,1.09-1.87,6.16,6.16,0,0,1-1.05,3.41,1.8,1.8,0,0,0,1.1-1,1.19,1.19,0,0,1,.12,1,12.38,12.38,0,0,0,1.77-2.41,9.87,9.87,0,0,1-1.4,3.75,6,6,0,0,1,2.17-1.46A3.82,3.82,0,0,0,105.91,29a9.63,9.63,0,0,1,3.36-2.9,22.19,22.19,0,0,0-2.18,3,3.68,3.68,0,0,1,1.34-.62,5,5,0,0,0-1.51,1.63,4.25,4.25,0,0,1,3-.88,3.47,3.47,0,0,0-1,1.52,13.43,13.43,0,0,1,3.37-2,8.6,8.6,0,0,0-2.9,3.45,7,7,0,0,1,2.17-.67,3.7,3.7,0,0,0-1.39,2.26,4.5,4.5,0,0,1,2.06-.75,6.83,6.83,0,0,0-1.68,1.85A2.1,2.1,0,0,1,112.1,34.46Z"/><path class="cls-11" d="M110.75,42.12c.48-5.12-3.43-6.1-6.84-5.64C106.05,35.2,112.4,36.16,110.75,42.12Z"/><path class="cls-12" d="M109.5,42.26c.59-3.13-1.23-4.59-3.15-4.82-1.7-.2-3.45.77-4.39,1-.15.72.7,1,.87,1.85C103.22,42.25,107.76,45.34,109.5,42.26Z"/><path class="cls-13" d="M109.1,42c1.16-3.7-3.06-5.2-5.09-3.92C102.25,41.44,107.49,45,109.1,42Z"/><path class="cls-14" d="M104.13,37.69c-.87.26-1.65.63-2.17.78-.15.72.7,1,.87,1.85a3.92,3.92,0,0,0,1.42,2C103.5,41.09,103,38.84,104.13,37.69Z"/><path class="cls-15" d="M108.67,41.73c1-3.11-2.57-4.37-4.27-3.29C102.91,41.25,107.32,44.2,108.67,41.73Z"/><path class="cls-16" d="M108.81,40.48c-.47.12-1.11.08-1.54.18.22-.56-.61-1.27-1.13-1.32-.1-.34-.07-.32-.17-.66C106.95,38.14,108.46,38.87,108.81,40.48Z"/><path class="cls-17" d="M105.54,41.69a1.74,1.74,0,0,1-.29-2.41,1.67,1.67,0,0,1,2.37-.3,1.74,1.74,0,0,1,.29,2.41A1.68,1.68,0,0,1,105.54,41.69Z"/><path class="cls-18" d="M108.25,40.56a7.25,7.25,0,0,0-1,.1c.22-.56-.61-1.27-1.13-1.32-.09-.32-.08-.33-.15-.61a1.62,1.62,0,0,1,1.65.24A1.73,1.73,0,0,1,108.25,40.56Z"/><path class="cls-19" d="M106,41a1,1,0,0,1-.17-1.39,1,1,0,0,1,1.37-.17,1,1,0,0,1,.17,1.39A1,1,0,0,1,106,41Z"/><path class="cls-20" d="M107.46,40.62c-.38.05-.33-1.19-1.33-1.28v0a.92.92,0,0,1,1.07.08A1,1,0,0,1,107.46,40.62Z"/><path class="cls-21" d="M97.22,45.42c-.48.47-1.34-.13-2,.46s.16,1.16.74,1.18C96.78,47.08,97.23,45.91,97.22,45.42Z"/><path class="cls-21" d="M95,56.69c-1.93-2.25-4.76-8.68-4.76-10.21-1.46.37-8.29-.85-10.9-2.21C81,46,85.06,46,88.47,48.84S93,55.53,95,56.69Z"/><path class="cls-21" d="M89.45,39.26c-.33.59.45,1.28,0,2s-1.15.11-1.3-.44C88,40.1,89,39.36,89.45,39.26Z"/><path class="cls-11" d="M89.31,25.11c4.77-1.72,6.66,1.9,7,5.37C97.05,28.06,94.59,22,89.31,25.11Z"/><path class="cls-12" d="M89.48,26.38c2.84-1.34,4.68.1,5.37,1.93.61,1.62.11,3.59.07,4.58-.65.32-1.12-.45-2-.41C91,32.57,87,28.85,89.48,26.38Z"/><path class="cls-13" d="M89.81,26.72c3.25-2,5.71,1.75,5,4.07C92,33.33,87.39,29,89.81,26.72Z"/><path class="cls-14" d="M95.14,30.56c0,.93-.2,1.77-.22,2.33-.65.32-1.12-.45-2-.41a3.82,3.82,0,0,1-2.22-.92C92,32,94.32,32,95.14,30.56Z"/><path class="cls-15" d="M90.18,27.07c2.73-1.72,4.8,1.47,4.18,3.41C92,32.62,88.15,29,90.18,27.07Z"/><path class="cls-16" d="M91.34,26.63c0,.5.2,1.11.21,1.57.48-.35,1.35.29,1.53.8.35,0,.32,0,.67,0A2.15,2.15,0,0,0,91.34,26.63Z"/><path class="cls-17" d="M91,30.15a1.74,1.74,0,0,1-.29-2.41,1.67,1.67,0,0,1,2.37-.3,1.74,1.74,0,0,1,.29,2.41A1.68,1.68,0,0,1,91,30.15Z"/><path class="cls-18" d="M91.4,27.2a8.32,8.32,0,0,1,.15,1c.48-.35,1.35.29,1.53.8h.62a1.69,1.69,0,0,0-.63-1.57A1.67,1.67,0,0,0,91.4,27.2Z"/><path class="cls-19" d="M91.56,29.53a1,1,0,0,1-.17-1.39A1,1,0,0,1,92.76,28a1,1,0,0,1,.17,1.39A1,1,0,0,1,91.56,29.53Z"/><path class="cls-20" d="M91.53,28c0,.38,1.21,0,1.54,1h0a1,1,0,0,0-.34-1A1,1,0,0,0,91.53,28Z"/></svg>