<svg id="Layer_1" data-name="Layer 1" xmlns="http://www.w3.org/2000/svg" xmlns:xlink="http://www.w3.org/1999/xlink" viewBox="0 0 62.88 76.89"><defs><style>.cls-1{fill:#73adff;}.cls-2{fill:#808184;}.cls-3{fill:url(#linear-gradient);}.cls-4{fill:#d4cedb;}.cls-5{fill:#000009;}.cls-6{fill:#bcdef7;}.cls-7{fill:url(#linear-gradient-2);}.cls-8,.cls-9{opacity:0.5;}.cls-8{fill:url(#linear-gradient-3);}.cls-9{fill:url(#linear-gradient-4);}.cls-10{fill:#fff;}.cls-11{fill:#d96e4c;}</style><linearGradient id="linear-gradient" x1="9.55" y1="53.32" x2="52.62" y2="10.26" gradientUnits="userSpaceOnUse"><stop offset="0" stop-color="#babcbf" stop-opacity="0"/><stop offset="1" stop-color="#b8bcc1"/></linearGradient><linearGradient id="linear-gradient-2" x1="31.55" y1="4.07" x2="31.55" y2="52.18" gradientUnits="userSpaceOnUse"><stop offset="0" stop-color="#89b8e4" stop-opacity="0"/><stop offset="1" stop-color="#a0c3e4"/></linearGradient><linearGradient id="linear-gradient-3" x1="28.88" y1="28.74" x2="12.3" y2="10.57" gradientUnits="userSpaceOnUse"><stop offset="0" stop-color="#e2f3ff" stop-opacity="0.1"/><stop offset="1" stop-color="#e2f3ff"/></linearGradient><linearGradient id="linear-gradient-4" x1="36.73" y1="36.51" x2="59.3" y2="59.07" xlink:href="#linear-gradient-3"/></defs><title>halp-past-icon</title><path class="cls-1" d="M31.55,58.35a27,27,0,1,1,27-27A27.05,27.05,0,0,1,31.55,58.35Z"/><path class="cls-2" d="M31.55,62.65A31.33,31.33,0,1,1,62.88,31.33,31.36,31.36,0,0,1,31.55,62.65Z"/><path class="cls-3" d="M31.55,62.65A31.33,31.33,0,1,1,62.88,31.33,31.36,31.36,0,0,1,31.55,62.65Z"/><path class="cls-4" d="M31.55,59.78A28.46,28.46,0,1,1,60,31.33,28.49,28.49,0,0,1,31.55,59.78Z"/><path class="cls-5" d="M31.55,59.3a28,28,0,1,1,28-28A28,28,0,0,1,31.55,59.3Z"/><path class="cls-6" d="M31.55,58.59A27.26,27.26,0,1,1,58.81,31.33,27.29,27.29,0,0,1,31.55,58.59Z"/><circle class="cls-7" cx="31.55" cy="31.33" r="26.78"/><path class="cls-8" d="M30.37,28.55V7.2A24.16,24.16,0,0,0,7.56,28.55Z"/><path class="cls-9" d="M47.39,13.09A24.15,24.15,0,0,1,13.32,47.17,24.15,24.15,0,1,0,47.39,13.09Z"/><path class="cls-10" d="M57,31.1A25.44,25.44,0,1,1,31.55,5.69,25.46,25.46,0,0,1,57,31.1Z"/><path d="M31.55,59.11A27.78,27.78,0,1,1,59.38,31.33,27.83,27.83,0,0,1,31.55,59.11Zm0-52.6A24.82,24.82,0,1,0,56.4,31.33,24.86,24.86,0,0,0,31.55,6.51Z"/><path d="M30.66,13.79h-1V10a3.52,3.52,0,0,1-1.32.77V9.8a3,3,0,0,0,.87-.49,1.88,1.88,0,0,0,.64-.85h.83Z"/><path d="M35.63,12.85v.95H32.06a2.45,2.45,0,0,1,.35-1,6.76,6.76,0,0,1,1.15-1.27,7.22,7.22,0,0,0,.85-.87,1.12,1.12,0,0,0,.21-.62.71.71,0,0,0-.18-.52.78.78,0,0,0-1,0,1,1,0,0,0-.22.64l-1-.1a1.66,1.66,0,0,1,.57-1.21,1.91,1.91,0,0,1,1.2-.37,1.73,1.73,0,0,1,1.24.42,1.39,1.39,0,0,1,.45,1.05,1.83,1.83,0,0,1-.13.68,2.77,2.77,0,0,1-.41.68,6.53,6.53,0,0,1-.67.68q-.48.44-.61.59a1.76,1.76,0,0,0-.21.28Z"/><path d="M33.25,50.73l-1,.11a.72.72,0,0,0-.19-.45.55.55,0,0,0-.4-.14.67.67,0,0,0-.55.29,2.44,2.44,0,0,0-.28,1.21,1.19,1.19,0,0,1,.95-.45,1.45,1.45,0,0,1,1.09.49A1.76,1.76,0,0,1,33.35,53a1.8,1.8,0,0,1-.48,1.31,1.75,1.75,0,0,1-2.55-.13,3.21,3.21,0,0,1-.52-2,3.27,3.27,0,0,1,.54-2.1,1.75,1.75,0,0,1,1.4-.64,1.49,1.49,0,0,1,1,.34A1.59,1.59,0,0,1,33.25,50.73ZM30.94,53a1.15,1.15,0,0,0,.23.77.67.67,0,0,0,.52.27.59.59,0,0,0,.47-.22,1.11,1.11,0,0,0,.19-.72,1.17,1.17,0,0,0-.2-.76.65.65,0,0,0-1,0A1,1,0,0,0,30.94,53Z"/><path d="M8.13,32.5l1-.11a.71.71,0,0,0,.19.45.56.56,0,0,0,.4.14.66.66,0,0,0,.54-.29,2.47,2.47,0,0,0,.28-1.2,1.22,1.22,0,0,1-1,.45,1.44,1.44,0,0,1-1.08-.48A1.76,1.76,0,0,1,8,30.19a1.79,1.79,0,0,1,.48-1.3,1.74,1.74,0,0,1,2.55.13,3.23,3.23,0,0,1,.52,2.06,3.27,3.27,0,0,1-.54,2.1,1.75,1.75,0,0,1-1.41.64,1.49,1.49,0,0,1-1-.33A1.6,1.6,0,0,1,8.13,32.5Zm2.31-2.22a1.16,1.16,0,0,0-.23-.76.67.67,0,0,0-.52-.27.59.59,0,0,0-.47.22,1.14,1.14,0,0,0-.19.73,1.16,1.16,0,0,0,.2.76.65.65,0,0,0,1,0A1,1,0,0,0,10.44,30.27Z"/><path d="M51.5,32.31l1-.12a.93.93,0,0,0,.25.58.72.72,0,0,0,1,0,.93.93,0,0,0,.22-.64.86.86,0,0,0-.21-.61.66.66,0,0,0-.5-.22,1.78,1.78,0,0,0-.47.08l.11-.83a.89.89,0,0,0,.63-.18.64.64,0,0,0,.22-.51.55.55,0,0,0-.58-.59.61.61,0,0,0-.45.18.85.85,0,0,0-.22.53l-.94-.16a2.09,2.09,0,0,1,.3-.77,1.33,1.33,0,0,1,.55-.45,1.85,1.85,0,0,1,.79-.16,1.58,1.58,0,0,1,1.2.48,1.21,1.21,0,0,1-.39,2,1.24,1.24,0,0,1,.73.44,1.27,1.27,0,0,1,.27.82,1.59,1.59,0,0,1-.51,1.19A1.91,1.91,0,0,1,52,33.4,1.63,1.63,0,0,1,51.5,32.31Z"/><path d="M43.62,16.73h-1V12.9a3.52,3.52,0,0,1-1.32.77v-.92a3,3,0,0,0,.87-.49,1.88,1.88,0,0,0,.64-.85h.83Z"/><path d="M20.66,16.73h-1V12.9a3.52,3.52,0,0,1-1.32.77v-.92a3,3,0,0,0,.87-.49,1.88,1.88,0,0,0,.64-.85h.83Z"/><path d="M24.38,16.73h-1V12.9a3.52,3.52,0,0,1-1.32.77v-.92a3,3,0,0,0,.87-.49,1.88,1.88,0,0,0,.64-.85h.83Z"/><path d="M40.66,49.87l1-.11a.87.87,0,0,0,.26.55.7.7,0,0,0,.49.2.69.69,0,0,0,.54-.26,1.18,1.18,0,0,0,.22-.78,1.07,1.07,0,0,0-.22-.73.73.73,0,0,0-.57-.24,1,1,0,0,0-.79.39l-.83-.12L41.3,46H44v1H42.08l-.16.9a1.56,1.56,0,0,1,1.85.32,1.77,1.77,0,0,1,.47,1.28,1.92,1.92,0,0,1-.38,1.17,1.69,1.69,0,0,1-1.44.7,1.79,1.79,0,0,1-1.2-.39A1.63,1.63,0,0,1,40.66,49.87Z"/><path d="M18.89,46.52v-.95h3.49v.74a5.47,5.47,0,0,0-.88,1.22,7.1,7.1,0,0,0-.68,1.69,6.25,6.25,0,0,0-.23,1.6h-1a6.81,6.81,0,0,1,.46-2.25,7.48,7.48,0,0,1,1.15-2Z"/><path d="M51.61,23.46v.95H48a2.45,2.45,0,0,1,.35-1,6.76,6.76,0,0,1,1.15-1.27,7.22,7.22,0,0,0,.85-.87,1.12,1.12,0,0,0,.21-.62.71.71,0,0,0-.18-.52.78.78,0,0,0-1,0,1,1,0,0,0-.22.64l-1-.1a1.66,1.66,0,0,1,.57-1.21,1.91,1.91,0,0,1,1.2-.37,1.73,1.73,0,0,1,1.24.42,1.39,1.39,0,0,1,.45,1.05,1.83,1.83,0,0,1-.13.68,2.77,2.77,0,0,1-.41.68,6.53,6.53,0,0,1-.67.68q-.48.44-.61.59a1.76,1.76,0,0,0-.21.28Z"/><path d="M13.22,24.14h-1V20.31a3.52,3.52,0,0,1-1.32.77v-.92a3,3,0,0,0,.87-.49,1.88,1.88,0,0,0,.64-.85h.83Z"/><path d="M16.47,18.81a1.45,1.45,0,0,1,1.21.55,3.51,3.51,0,0,1,.52,2.16,3.52,3.52,0,0,1-.52,2.17,1.45,1.45,0,0,1-1.2.54,1.52,1.52,0,0,1-1.25-.6,3.52,3.52,0,0,1-.48-2.12,3.5,3.5,0,0,1,.52-2.16A1.45,1.45,0,0,1,16.47,18.81Zm0,.84a.51.51,0,0,0-.33.12.79.79,0,0,0-.22.42,5.81,5.81,0,0,0-.11,1.33,5.76,5.76,0,0,0,.09,1.28.9.9,0,0,0,.24.47.52.52,0,0,0,.66,0,.79.79,0,0,0,.22-.42,5.76,5.76,0,0,0,.11-1.33A5.77,5.77,0,0,0,17,20.24a.92.92,0,0,0-.24-.47A.5.5,0,0,0,16.47,19.65Z"/><path d="M50.08,43.15V42.08H47.91v-.89l2.31-3.37h.86v3.37h.66v.89h-.66v1.07Zm0-2V39.37l-1.22,1.81Z"/><path d="M12.54,39.86a1.14,1.14,0,0,1-.75-1.1,1.28,1.28,0,0,1,.42-1,1.67,1.67,0,0,1,1.18-.39,1.67,1.67,0,0,1,1.18.39,1.28,1.28,0,0,1,.42,1,1.16,1.16,0,0,1-.19.66,1.22,1.22,0,0,1-.54.44,1.43,1.43,0,0,1,.67.52,1.37,1.37,0,0,1,.23.79,1.6,1.6,0,0,1-.47,1.2,1.71,1.71,0,0,1-1.25.46,1.89,1.89,0,0,1-1.21-.38,1.48,1.48,0,0,1-.57-1.23,1.52,1.52,0,0,1,.21-.79A1.38,1.38,0,0,1,12.54,39.86Zm.12,1.25a.93.93,0,0,0,.22.66.7.7,0,0,0,.54.24.68.68,0,0,0,.52-.23.94.94,0,0,0,.21-.65.85.85,0,0,0-.21-.6.7.7,0,0,0-.53-.23.64.64,0,0,0-.56.26A.94.94,0,0,0,12.65,41.11Zm.09-2.27a.64.64,0,0,0,.17.47.62.62,0,0,0,.46.17.63.63,0,0,0,.46-.17.64.64,0,0,0,.17-.48.59.59,0,0,0-.63-.63.63.63,0,0,0-.47.17A.62.62,0,0,0,12.75,38.84Z"/><path d="M22.19,32.91a.59.59,0,0,1,.15-1.14l9.11-1.1a.59.59,0,1,1,.14,1.18l-9.11,1.11A.59.59,0,0,1,22.19,32.91Z"/><path d="M31.57,30.81a.59.59,0,0,1,.59.59V46.47a.59.59,0,0,1-.59.59h0a.59.59,0,0,1-.59-.59V31.4A.59.59,0,0,1,31.57,30.81Z"/><path class="cls-11" d="M6.6,66.36H8V76.76H6.6v-4.7H1.37v4.7H0V66.36H1.37V71H6.6Z"/><path class="cls-11" d="M10.81,75.68a4.35,4.35,0,0,1-1.13-3.09,4.21,4.21,0,0,1,1.12-3,3.74,3.74,0,0,1,2.81-1.16,3.38,3.38,0,0,1,1.84.5,3.24,3.24,0,0,1,1.19,1.29V68.52H18v8.24H16.65V75.08a3.27,3.27,0,0,1-1.19,1.31,3.34,3.34,0,0,1-1.84.5A3.68,3.68,0,0,1,10.81,75.68Zm5-.8a3.46,3.46,0,0,0,0-4.47,2.64,2.64,0,0,0-2-.84,2.69,2.69,0,0,0-2,.81,3,3,0,0,0-.82,2.21,3.15,3.15,0,0,0,.83,2.26,2.68,2.68,0,0,0,3.92,0Z"/><path class="cls-11" d="M20.28,76.76V65.66h1.37v11.1Z"/><path class="cls-11" d="M27.29,68.52v1.11H25.56v7.13H24.18V69.63H23.12V68.52h1.06v-.69a2.45,2.45,0,0,1,.72-2,3.44,3.44,0,0,1,2.27-.62v1.11a1.81,1.81,0,0,0-1.25.34,1.52,1.52,0,0,0-.35,1.13v.69Z"/><path class="cls-11" d="M37.4,67.22a2.85,2.85,0,0,1,.92,2.19,2.93,2.93,0,0,1-.89,2.2,3.76,3.76,0,0,1-2.71.86h-2v4.29H31.34V66.36h3.38A3.8,3.8,0,0,1,37.4,67.22Zm-4.69,4.17h2a2.36,2.36,0,0,0,1.67-.52,1.89,1.89,0,0,0,.55-1.45q0-2-2.22-2h-2Z"/><path class="cls-11" d="M40.6,75.68a4.35,4.35,0,0,1-1.12-3.09,4.21,4.21,0,0,1,1.12-3,3.73,3.73,0,0,1,2.81-1.16,3.38,3.38,0,0,1,1.84.5,3.23,3.23,0,0,1,1.19,1.29V68.52h1.38v8.24H46.43V75.08a3.26,3.26,0,0,1-1.19,1.31,3.35,3.35,0,0,1-1.84.5A3.68,3.68,0,0,1,40.6,75.68Zm5-.8a3.47,3.47,0,0,0,0-4.47,2.64,2.64,0,0,0-2-.84,2.69,2.69,0,0,0-2,.81,3,3,0,0,0-.82,2.21,3.16,3.16,0,0,0,.82,2.26,2.68,2.68,0,0,0,3.92,0Z"/><path class="cls-11" d="M49.76,70.85a2.18,2.18,0,0,1,.86-1.75,3.39,3.39,0,0,1,2.24-.71,3.12,3.12,0,0,1,2.15.7A2.67,2.67,0,0,1,55.87,71H54.46A1.57,1.57,0,0,0,54,69.89a1.67,1.67,0,0,0-1.21-.42,1.85,1.85,0,0,0-1.21.37,1.17,1.17,0,0,0-.44.95,1,1,0,0,0,.5.89,3.6,3.6,0,0,0,1.21.46q.71.14,1.42.33a2.59,2.59,0,0,1,1.22.71,2,2,0,0,1,.5,1.47,2,2,0,0,1-.86,1.6,3.61,3.61,0,0,1-2.24.65,3.36,3.36,0,0,1-2.21-.69,2.56,2.56,0,0,1-.91-1.91h1.41a1.5,1.5,0,0,0,.49,1.1,1.81,1.81,0,0,0,1.26.41,2,2,0,0,0,1.26-.34,1.05,1.05,0,0,0,.46-.88,1.07,1.07,0,0,0-.36-.85,2,2,0,0,0-.9-.44L52.2,73c-.43-.11-.82-.23-1.18-.35a1.91,1.91,0,0,1-.9-.65A1.86,1.86,0,0,1,49.76,70.85Z"/><path class="cls-11" d="M60.65,75.65h1.13v1.11H60.4a1.88,1.88,0,0,1-2.15-2.12v-5H57.19V68.52h1.06v-2h1.38v2h2.13v1.11H59.63v5a1.08,1.08,0,0,0,.23.78A1.11,1.11,0,0,0,60.65,75.65Z"/></svg>