<svg id="Layer_1" data-name="Layer 1" xmlns="http://www.w3.org/2000/svg" xmlns:xlink="http://www.w3.org/1999/xlink" viewBox="0 0 62.65 74.84"><defs><style>.cls-1{fill:#73adff;}.cls-2{fill:#808184;}.cls-3{fill:url(#linear-gradient);}.cls-4{fill:#d4cedb;}.cls-5{fill:#000009;}.cls-6{fill:#bcdef7;}.cls-7{fill:url(#linear-gradient-2);}.cls-8,.cls-9{opacity:0.5;}.cls-8{fill:url(#linear-gradient-3);}.cls-9{fill:url(#linear-gradient-4);}.cls-10{fill:#fff;}.cls-11{fill:#d96e4c;}</style><linearGradient id="linear-gradient" x1="9.33" y1="53.32" x2="52.39" y2="10.26" gradientUnits="userSpaceOnUse"><stop offset="0" stop-color="#babcbf" stop-opacity="0"/><stop offset="1" stop-color="#b8bcc1"/></linearGradient><linearGradient id="linear-gradient-2" x1="31.33" y1="4.07" x2="31.33" y2="52.18" gradientUnits="userSpaceOnUse"><stop offset="0" stop-color="#89b8e4" stop-opacity="0"/><stop offset="1" stop-color="#a0c3e4"/></linearGradient><linearGradient id="linear-gradient-3" x1="28.65" y1="28.74" x2="12.07" y2="10.57" gradientUnits="userSpaceOnUse"><stop offset="0" stop-color="#e2f3ff" stop-opacity="0.1"/><stop offset="1" stop-color="#e2f3ff"/></linearGradient><linearGradient id="linear-gradient-4" x1="36.51" y1="36.51" x2="59.07" y2="59.07" xlink:href="#linear-gradient-3"/></defs><title>hour-icon</title><path class="cls-1" d="M31.33,58.35a27,27,0,1,1,27-27A27.05,27.05,0,0,1,31.33,58.35Z"/><path class="cls-2" d="M31.33,62.65A31.33,31.33,0,1,1,62.65,31.33,31.36,31.36,0,0,1,31.33,62.65Z"/><path class="cls-3" d="M31.33,62.65A31.33,31.33,0,1,1,62.65,31.33,31.36,31.36,0,0,1,31.33,62.65Z"/><path class="cls-4" d="M31.33,59.78A28.46,28.46,0,1,1,59.78,31.33,28.49,28.49,0,0,1,31.33,59.78Z"/><path class="cls-5" d="M31.33,59.3a28,28,0,1,1,28-28A28,28,0,0,1,31.33,59.3Z"/><path class="cls-6" d="M31.33,58.59A27.26,27.26,0,1,1,58.59,31.33,27.29,27.29,0,0,1,31.33,58.59Z"/><circle class="cls-7" cx="31.33" cy="31.33" r="26.78"/><path class="cls-8" d="M30.14,28.55V7.2A24.16,24.16,0,0,0,7.33,28.55Z"/><path class="cls-9" d="M47.17,13.09A24.15,24.15,0,0,1,13.09,47.17,24.15,24.15,0,1,0,47.17,13.09Z"/><path class="cls-10" d="M56.92,31.1A25.6,25.6,0,1,1,31.33,5.54,25.61,25.61,0,0,1,56.92,31.1Z"/><path d="M31.33,59.27a27.95,27.95,0,1,1,28-27.95A28,28,0,0,1,31.33,59.27Zm0-52.91a25,25,0,1,0,25,25A25,25,0,0,0,31.33,6.36Z"/><path d="M30.43,13.69h-1V9.83a3.54,3.54,0,0,1-1.32.78V9.67a3,3,0,0,0,.87-.5,1.89,1.89,0,0,0,.65-.85h.83Z"/><path d="M35.43,12.74v1H31.83a2.47,2.47,0,0,1,.35-1,6.8,6.8,0,0,1,1.15-1.28,7.26,7.26,0,0,0,.85-.87,1.13,1.13,0,0,0,.21-.63.71.71,0,0,0-.18-.53.78.78,0,0,0-1,0A1,1,0,0,0,33,10l-1-.1a1.67,1.67,0,0,1,.57-1.21,1.93,1.93,0,0,1,1.2-.37A1.74,1.74,0,0,1,35,8.75a1.4,1.4,0,0,1,.45,1.06,1.84,1.84,0,0,1-.13.69,2.79,2.79,0,0,1-.41.68,6.57,6.57,0,0,1-.67.68q-.49.44-.61.59a1.77,1.77,0,0,0-.21.28Z"/><path d="M33,50.85,32,51a.72.72,0,0,0-.19-.45.55.55,0,0,0-.4-.15.67.67,0,0,0-.55.29,2.45,2.45,0,0,0-.28,1.21,1.2,1.2,0,0,1,1-.45,1.46,1.46,0,0,1,1.1.49,1.77,1.77,0,0,1,.46,1.26,1.81,1.81,0,0,1-.48,1.32,1.76,1.76,0,0,1-2.57-.13,3.23,3.23,0,0,1-.52-2.06,3.29,3.29,0,0,1,.54-2.12,1.76,1.76,0,0,1,1.41-.65,1.5,1.5,0,0,1,1,.34A1.6,1.6,0,0,1,33,50.85Zm-2.32,2.23a1.16,1.16,0,0,0,.23.77.68.68,0,0,0,.53.27.6.6,0,0,0,.47-.22,1.12,1.12,0,0,0,.19-.73,1.17,1.17,0,0,0-.2-.76.66.66,0,0,0-1,0A1,1,0,0,0,30.71,53.08Z"/><path d="M7.76,32.5l1-.11a.72.72,0,0,0,.19.45.56.56,0,0,0,.41.15.66.66,0,0,0,.54-.29,2.48,2.48,0,0,0,.28-1.21,1.23,1.23,0,0,1-1,.45,1.45,1.45,0,0,1-1.09-.49,1.77,1.77,0,0,1-.46-1.27,1.8,1.8,0,0,1,.48-1.31,1.75,1.75,0,0,1,2.57.13,3.25,3.25,0,0,1,.52,2.07,3.28,3.28,0,0,1-.54,2.11,1.76,1.76,0,0,1-1.42.65,1.5,1.5,0,0,1-1-.33A1.61,1.61,0,0,1,7.76,32.5Zm2.32-2.24a1.17,1.17,0,0,0-.23-.77.67.67,0,0,0-.53-.27.59.59,0,0,0-.47.22,1.14,1.14,0,0,0-.19.73,1.17,1.17,0,0,0,.2.76.65.65,0,0,0,1,0A1,1,0,0,0,10.08,30.27Z"/><path d="M51.39,32.32l1-.12a.94.94,0,0,0,.26.58.72.72,0,0,0,1,0,.93.93,0,0,0,.22-.65.87.87,0,0,0-.21-.61.66.66,0,0,0-.51-.23,1.79,1.79,0,0,0-.47.08l.11-.83a.9.9,0,0,0,.63-.18.64.64,0,0,0,.22-.51.55.55,0,0,0-.59-.59.62.62,0,0,0-.45.18.86.86,0,0,0-.23.53l-.95-.16a2.11,2.11,0,0,1,.3-.77,1.34,1.34,0,0,1,.55-.46,1.86,1.86,0,0,1,.8-.17,1.59,1.59,0,0,1,1.21.48,1.22,1.22,0,0,1-.39,2,1.25,1.25,0,0,1,.74.44,1.28,1.28,0,0,1,.28.83,1.6,1.6,0,0,1-.51,1.2,1.92,1.92,0,0,1-2.49.08A1.64,1.64,0,0,1,51.39,32.32Z"/><path d="M43.46,16.65h-1V12.79a3.54,3.54,0,0,1-1.32.78v-.93a3,3,0,0,0,.87-.5,1.89,1.89,0,0,0,.65-.85h.83Z"/><path d="M20.37,16.65h-1V12.79a3.54,3.54,0,0,1-1.32.78v-.93a3,3,0,0,0,.87-.5,1.89,1.89,0,0,0,.65-.85h.83Z"/><path d="M24.11,16.65h-1V12.79a3.54,3.54,0,0,1-1.32.78v-.93a3,3,0,0,0,.87-.5,1.89,1.89,0,0,0,.65-.85h.83Z"/><path d="M40.49,50l1-.11a.87.87,0,0,0,.26.55.7.7,0,0,0,.5.2.69.69,0,0,0,.54-.26,1.18,1.18,0,0,0,.22-.79,1.08,1.08,0,0,0-.22-.74.74.74,0,0,0-.57-.25,1,1,0,0,0-.79.39l-.83-.12.53-2.78h2.71v1H41.91l-.16.91a1.57,1.57,0,0,1,1.86.32,1.78,1.78,0,0,1,.47,1.29,1.93,1.93,0,0,1-.38,1.18,1.7,1.7,0,0,1-1.45.71A1.8,1.8,0,0,1,41,51,1.63,1.63,0,0,1,40.49,50Z"/><path d="M18.59,46.61v-1H22.1v.74a5.51,5.51,0,0,0-.88,1.22,7.14,7.14,0,0,0-.68,1.7,6.29,6.29,0,0,0-.23,1.61h-1a6.86,6.86,0,0,1,.46-2.26,7.53,7.53,0,0,1,1.16-2.06Z"/><path d="M51.5,23.41v1H47.9a2.47,2.47,0,0,1,.35-1,6.8,6.8,0,0,1,1.15-1.28,7.26,7.26,0,0,0,.85-.87,1.13,1.13,0,0,0,.21-.63.71.71,0,0,0-.18-.53.78.78,0,0,0-1,0,1,1,0,0,0-.22.64l-1-.1a1.67,1.67,0,0,1,.57-1.21A1.93,1.93,0,0,1,49.8,19a1.74,1.74,0,0,1,1.24.43,1.4,1.4,0,0,1,.45,1.06,1.84,1.84,0,0,1-.13.69,2.79,2.79,0,0,1-.41.68,6.57,6.57,0,0,1-.67.68q-.49.44-.61.59a1.77,1.77,0,0,0-.21.28Z"/><path d="M12.89,24.1h-1V20.24a3.54,3.54,0,0,1-1.32.78v-.93a3,3,0,0,0,.87-.5,1.89,1.89,0,0,0,.65-.85h.83Z"/><path d="M16.15,18.73a1.46,1.46,0,0,1,1.22.55,3.53,3.53,0,0,1,.52,2.18,3.54,3.54,0,0,1-.53,2.18,1.46,1.46,0,0,1-1.21.55,1.53,1.53,0,0,1-1.26-.6,3.54,3.54,0,0,1-.48-2.14,3.53,3.53,0,0,1,.53-2.17A1.46,1.46,0,0,1,16.15,18.73Zm0,.85a.51.51,0,0,0-.33.12.79.79,0,0,0-.23.42,5.84,5.84,0,0,0-.11,1.34,5.8,5.8,0,0,0,.09,1.29.91.91,0,0,0,.24.47.53.53,0,0,0,.66,0,.8.8,0,0,0,.23-.42,5.8,5.8,0,0,0,.11-1.33,5.81,5.81,0,0,0-.09-1.29.92.92,0,0,0-.24-.47A.51.51,0,0,0,16.15,19.58Z"/><path d="M50,43.22V42.15H47.78v-.9l2.32-3.39H51v3.39h.66v.9H51v1.08Zm0-2V39.42l-1.23,1.83Z"/><path d="M12.19,39.91a1.15,1.15,0,0,1-.76-1.1,1.29,1.29,0,0,1,.42-1A1.68,1.68,0,0,1,13,37.43a1.68,1.68,0,0,1,1.18.39,1.29,1.29,0,0,1,.42,1,1.16,1.16,0,0,1-.19.66,1.22,1.22,0,0,1-.54.44,1.43,1.43,0,0,1,.68.52,1.38,1.38,0,0,1,.23.79,1.61,1.61,0,0,1-.47,1.2,1.72,1.72,0,0,1-1.26.46,1.9,1.9,0,0,1-1.22-.38,1.49,1.49,0,0,1-.57-1.24,1.53,1.53,0,0,1,.22-.8A1.39,1.39,0,0,1,12.19,39.91Zm.12,1.26a.94.94,0,0,0,.22.66.7.7,0,0,0,.54.24.68.68,0,0,0,.53-.23.94.94,0,0,0,.21-.66.85.85,0,0,0-.21-.6.7.7,0,0,0-.54-.23.64.64,0,0,0-.56.26A1,1,0,0,0,12.31,41.17Zm.09-2.29a.64.64,0,0,0,.17.48.63.63,0,0,0,.46.17.64.64,0,0,0,.47-.17.64.64,0,0,0,.18-.48.6.6,0,0,0-.63-.63.64.64,0,0,0-.47.17A.63.63,0,0,0,12.41,38.88Z"/><path d="M23.25,36.33A.6.6,0,0,1,23,35.21L31,30.69a.6.6,0,1,1,.59,1l-8.05,4.52A.6.6,0,0,1,23.25,36.33Z"/><path d="M31.3,31.81a.6.6,0,0,1-.6-.6V16.05a.6.6,0,0,1,.6-.6h0a.6.6,0,0,1,.6.6V31.21A.6.6,0,0,1,31.3,31.81Z"/><path class="cls-11" d="M21.32,64.31H22.7V74.71H21.32V70H16.08v4.7H14.72V64.31h1.37v4.62h5.23Z"/><path class="cls-11" d="M25.54,73.67a4.23,4.23,0,0,1-1.13-3.08,4.15,4.15,0,0,1,1.19-3.08,4.33,4.33,0,0,1,5.94,0,4.14,4.14,0,0,1,1.19,3.08,4,4,0,0,1-1.24,3.07,4.22,4.22,0,0,1-3,1.18A3.88,3.88,0,0,1,25.54,73.67Zm2.92,0a2.76,2.76,0,0,0,2-.83,3.08,3.08,0,0,0,.85-2.3,3.14,3.14,0,0,0-.81-2.29,2.66,2.66,0,0,0-2-.83,2.56,2.56,0,0,0-1.94.83,3.22,3.22,0,0,0-.78,2.3,3.3,3.3,0,0,0,.75,2.3A2.46,2.46,0,0,0,28.46,73.72Z"/><path class="cls-11" d="M40.23,66.47H41.6v8.24H40.23V73.39a2.85,2.85,0,0,1-2.68,1.46,3.11,3.11,0,0,1-2.28-.91,3.46,3.46,0,0,1-.92-2.57V66.47H35.7v4.67A2.66,2.66,0,0,0,36.31,73a2.43,2.43,0,0,0,3.31,0,2.66,2.66,0,0,0,.61-1.88Z"/><path class="cls-11" d="M45.21,66.47v1.4a2.56,2.56,0,0,1,2.5-1.53v1.42h-.36a2.17,2.17,0,0,0-1.6.55,2.64,2.64,0,0,0-.55,1.9v4.5H43.85V66.47Z"/></svg>