<svg id="Layer_1" data-name="Layer 1" xmlns="http://www.w3.org/2000/svg" xmlns:xlink="http://www.w3.org/1999/xlink" viewBox="0 0 180.7 152.9"><defs><style>.cls-1{fill:url(#linear-gradient);}.cls-2{fill:url(#linear-gradient-2);}.cls-3{fill:url(#linear-gradient-3);}.cls-4{fill:url(#linear-gradient-4);}.cls-5{fill:url(#linear-gradient-5);}.cls-6{fill:url(#linear-gradient-6);}.cls-7{fill:url(#linear-gradient-7);}.cls-8{fill:url(#linear-gradient-8);}.cls-9{fill:url(#linear-gradient-9);}.cls-10{fill:url(#linear-gradient-10);}.cls-11{fill:url(#linear-gradient-11);}.cls-12{fill:url(#linear-gradient-12);}.cls-13{fill:url(#linear-gradient-13);}.cls-14{fill:url(#linear-gradient-14);}.cls-15{fill:url(#linear-gradient-15);}.cls-16{fill:url(#linear-gradient-16);}.cls-17{fill:url(#linear-gradient-17);}.cls-18{fill:url(#radial-gradient);}.cls-19{fill:url(#radial-gradient-2);}.cls-20{fill:url(#linear-gradient-18);}.cls-21{fill:url(#linear-gradient-19);}.cls-22{fill:url(#linear-gradient-20);}.cls-23{fill:url(#linear-gradient-21);}.cls-24{fill:url(#linear-gradient-22);}.cls-25{fill:url(#linear-gradient-23);}.cls-26{fill:#211e1f;}.cls-27{fill:#fff;}</style><linearGradient id="linear-gradient" x1="-844.03" y1="1.8" x2="-840.04" y2="21.34" gradientTransform="matrix(-1, 0, 0, 1, -695.78, 0)" gradientUnits="userSpaceOnUse"><stop offset="0" stop-color="#83c141"/><stop offset="0.02" stop-color="#88c341"/><stop offset="0.17" stop-color="#a2cc43"/><stop offset="0.3" stop-color="#b2d244"/><stop offset="0.4" stop-color="#b8d444"/><stop offset="1" stop-color="#457035"/></linearGradient><linearGradient id="linear-gradient-2" x1="-846.26" y1="65.69" x2="-832.47" y2="69.13" gradientTransform="matrix(-1, 0, 0, 1, -695.78, 0)" gradientUnits="userSpaceOnUse"><stop offset="0" stop-color="#457035"/><stop offset="0.6" stop-color="#b8d444"/><stop offset="0.7" stop-color="#b2d244"/><stop offset="0.83" stop-color="#a2cc43"/><stop offset="0.98" stop-color="#88c341"/><stop offset="1" stop-color="#83c141"/></linearGradient><linearGradient id="linear-gradient-3" x1="-844.12" y1="71.12" x2="-850.14" y2="98.04" gradientTransform="matrix(-1, 0, 0, 1, -695.78, 0)" gradientUnits="userSpaceOnUse"><stop offset="0" stop-color="#b8d444"/><stop offset="0.24" stop-color="#d5af34"/><stop offset="0.47" stop-color="#ec9027"/><stop offset="0.61" stop-color="#f58522"/><stop offset="1" stop-color="#955725"/></linearGradient><linearGradient id="linear-gradient-4" x1="-753.6" y1="31.62" x2="-742.68" y2="31.62" gradientTransform="matrix(-1, 0, 0, 1, -695.78, 0)" gradientUnits="userSpaceOnUse"><stop offset="0" stop-color="#264c9a"/><stop offset="1" stop-color="#14bdef"/></linearGradient><linearGradient id="linear-gradient-5" x1="-739.37" y1="37.89" x2="-727.64" y2="37.89" xlink:href="#linear-gradient-4"/><linearGradient id="linear-gradient-6" x1="-750.35" y1="34.22" x2="-723.08" y2="31.43" xlink:href="#linear-gradient-2"/><linearGradient id="linear-gradient-7" x1="-850.05" y1="50.15" x2="-846.81" y2="38.73" xlink:href="#linear-gradient-2"/><linearGradient id="linear-gradient-8" x1="-848.9" y1="44.25" x2="-838.87" y2="8.83" xlink:href="#linear-gradient-2"/><linearGradient id="linear-gradient-9" x1="-797.19" y1="80.81" x2="-780.21" y2="20.84" xlink:href="#linear-gradient-2"/><linearGradient id="linear-gradient-10" x1="-781.07" y1="85.65" x2="-777.71" y2="55.03" xlink:href="#linear-gradient-4"/><linearGradient id="linear-gradient-11" x1="-8285.78" y1="80.41" x2="-8251.63" y2="80.41" gradientTransform="translate(8318.42)" xlink:href="#linear-gradient-4"/><linearGradient id="linear-gradient-12" x1="-752.69" y1="125.37" x2="-770.69" y2="132.89" xlink:href="#linear-gradient-3"/><linearGradient id="linear-gradient-13" x1="-753.76" y1="121.83" x2="-769.74" y2="110.77" xlink:href="#linear-gradient-3"/><linearGradient id="linear-gradient-14" x1="-758.75" y1="77.04" x2="-744.7" y2="85.62" xlink:href="#linear-gradient-2"/><linearGradient id="linear-gradient-15" x1="-729.05" y1="105.17" x2="-718.86" y2="122.04" xlink:href="#linear-gradient-2"/><linearGradient id="linear-gradient-16" x1="-736.59" y1="84.43" x2="-728.91" y2="104.24" xlink:href="#linear-gradient-2"/><linearGradient id="linear-gradient-17" x1="-8182.73" y1="25.63" x2="-8157.42" y2="25.63" gradientTransform="translate(8318.42)" xlink:href="#linear-gradient"/><radialGradient id="radial-gradient" cx="-8155.94" cy="9.3" r="13.29" gradientTransform="translate(8171.92 13.77) scale(0.98 1)" gradientUnits="userSpaceOnUse"><stop offset="0" stop-color="#3067ae"/><stop offset="0.71" stop-color="#2c61aa"/><stop offset="1" stop-color="#295da7"/></radialGradient><radialGradient id="radial-gradient-2" cx="-8155.64" cy="10.01" r="12.39" gradientTransform="translate(8171.92 13.77) scale(0.98 1)" gradientUnits="userSpaceOnUse"><stop offset="0" stop-color="#eb4724"/><stop offset="0.13" stop-color="#e54523"/><stop offset="0.3" stop-color="#d54022"/><stop offset="0.49" stop-color="#b9381f"/><stop offset="0.69" stop-color="#932c1b"/><stop offset="0.91" stop-color="#631d15"/><stop offset="1" stop-color="#4c1613"/></radialGradient><linearGradient id="linear-gradient-18" x1="-784.19" y1="54.23" x2="-789.25" y2="77.27" gradientTransform="matrix(-1, 0, 0, 1, -695.78, 0)" gradientUnits="userSpaceOnUse"><stop offset="0" stop-color="#f8eb34"/><stop offset="0.16" stop-color="#e8e538"/><stop offset="0.48" stop-color="#cedc3f"/><stop offset="0.78" stop-color="#bed643"/><stop offset="1" stop-color="#b8d444"/></linearGradient><linearGradient id="linear-gradient-19" x1="-8275.92" y1="76.88" x2="-8241.79" y2="76.88" gradientTransform="translate(8318.42)" xlink:href="#linear-gradient-4"/><linearGradient id="linear-gradient-20" x1="-806.64" y1="122.63" x2="-831.79" y2="139.69" xlink:href="#linear-gradient-3"/><linearGradient id="linear-gradient-21" x1="-820.71" y1="72.99" x2="-793.33" y2="65.23" xlink:href="#linear-gradient-2"/><linearGradient id="linear-gradient-22" x1="-810.84" y1="100.86" x2="-792.99" y2="108.44" xlink:href="#linear-gradient-2"/><linearGradient id="linear-gradient-23" x1="-807.52" y1="75.7" x2="-795.63" y2="64.07" xlink:href="#linear-gradient-4"/></defs><title>big frog</title><path class="cls-1" d="M157.48,18.18a12.58,12.58,0,0,1-16.78,6.27,12.88,12.88,0,0,1-6.19-17A12.58,12.58,0,0,1,151.3,1.18,12.88,12.88,0,0,1,157.48,18.18Z"/><path class="cls-2" d="M145.19,72.65c-2.36-.9-4.39.56-6.55,1.91a10.48,10.48,0,0,0-1-3.13,27.73,27.73,0,0,1-1-3.45c-.48-1.57-.94-3.13-1.37-4.72l-.08-.33,9.19-6.48.2.66c1.07,3.72,2.13,7.43,3.24,11.15a20.38,20.38,0,0,0,1.94,4.52,9.22,9.22,0,0,0,2.44,2.36c.28.23.57.44.86.65C149.9,76.79,147.54,74.08,145.19,72.65Z"/><path class="cls-3" d="M125.24,80.84a4,4,0,0,1,5.44-1.8,4.48,4.48,0,0,1,1.19.84c2.54-.78,5.53-1.11,6.55-3.63a3.5,3.5,0,0,0,.22-1.68c2.16-1.35,4.19-2.8,6.55-1.91,2.35,1.43,4.71,4.14,7.81,3.16,3.59,2.55,8.33,3.62,12,6.15a28.17,28.17,0,0,1,6.42,6c1.17,1.53,3.07,3.38,3.54,5.38a4.92,4.92,0,0,1,2.56.45,4.47,4.47,0,0,1,2.46,5.76,4.37,4.37,0,0,1-5.92,1.85,4.48,4.48,0,0,1-2.51-5.61c-1.45-1.44-2.35-3.29-3.54-5a29.05,29.05,0,0,0-6.89-7.39c-.92-.65-6.2-3.69-6.21-.32,0,1,1.28,2.14,1.73,2.93a39.64,39.64,0,0,1,2.19,4.35,27.13,27.13,0,0,1,2.31,9.07,4.71,4.71,0,0,1,1.24.36,4.79,4.79,0,0,1,2.34,6.31,4.68,4.68,0,0,1-6.26,2.29,4.79,4.79,0,0,1-2.34-6.31,4.68,4.68,0,0,1,.62-1c-1.61-2.73-1.8-6.75-2.42-9.61a22.88,22.88,0,0,0-2.65-6.47c-.95-1.75-1.47-3.16-3.34-3.95-1.46,2-1.43,5.62-1.59,8.06a28.06,28.06,0,0,1-.53,4.59c1.8,1.35,2.62,3.49,1.83,5.24-.94,2.07-3.78,2.78-6.33,1.59s-3.86-3.84-2.92-5.91a4,4,0,0,1,3.73-2.15c0-.56.07-1.15.11-1.78.13-2.39,1.22-8.2-.81-9.9-1-.87-2.45-.21-3.49.27a38,38,0,0,1-4.32,1.71l-.78.25a3.77,3.77,0,0,1-.31,1.3,4,4,0,0,1-5.44,1.8A4.13,4.13,0,0,1,125.24,80.84Z"/><path class="cls-4" d="M57.81,30.62s-5.4,2.61-10.92,5.85a91.64,91.64,0,0,0,4.76-9.71A23,23,0,0,1,57.81,30.62Z"/><path class="cls-5" d="M31.86,48s3.07-14.36,11.73-20.15a64.73,64.73,0,0,0-2.82,12.56,35.58,35.58,0,0,0-3,2.34Z"/><path class="cls-6" d="M46.1,26.45a7.5,7.5,0,0,1,5.55.31,91.64,91.64,0,0,1-4.76,9.71c-2.13,1.25-4.27,2.59-6.13,3.91a64.73,64.73,0,0,1,2.82-12.56A14.46,14.46,0,0,1,46.1,26.45Z"/><path class="cls-7" d="M158.68,48.22a28.1,28.1,0,0,0-4.22,2.15l-.33-.06c-8.93-2.13-17.86.53-26.79-3.19a22.34,22.34,0,0,1-2.87-.9c18.72-.08,37.69-1.69,54.67-9.6C174.54,41.86,159.26,48.33,158.68,48.22Z"/><path class="cls-8" d="M121.55,43.39c-.92-11.74,6.33-22.23,12.74-32.21a100.86,100.86,0,0,1,14.15,2.3A73.9,73.9,0,0,1,166.93,17c10.47,3.29,15.41,12.55,13.29,18a6,6,0,0,1-1.1,1.68c-17,7.91-35.95,9.52-54.67,9.6C122.92,45.58,121.55,44.68,121.55,43.39Z"/><path class="cls-9" d="M32.14,53A8.29,8.29,0,0,1,31.85,48h0l5.91-5.26c5.92-5.26,28.88-16.64,28.88-16.64S79.72,20.59,89,21.53s16.37-.37,25.52-7.33c4.45-3.38,12.6-3.64,19.8-3-6.41,10-13.66,20.47-12.74,32.21,0,2.13,3.68,3.19,5.78,3.73,8.93,3.72,17.86,1.06,26.79,3.19l.33.06c-2.73,1.53-6.45,3.73-10.12,6.09l-9.19,6.48A26,26,0,0,0,132,65.87c-2.61,3-8.52,7.69-13.76,11.62a134.71,134.71,0,0,0,10.09-21.35,25.58,25.58,0,0,0-5.31.27c.9-1.22.23-2.23.79-3.67C95,52.74,69.19,60.07,42,69.37c-.81-.65-1.63-1.33-2.46-2C34.8,63.52,32.71,57.32,32.14,53Z"/><path class="cls-10" d="M123,56.41c-14.29,2.24-23.32,16.46-31.81,28-.06-.67-.09-1.06-.09-1.06-2.61,3.52-21.92-1.1-23.91-1.58-12.93-4.28-19-7.43-25.23-12.38,27.23-9.3,52.49-16.62,81.26-16.62C122.65,54.18,123.89,55.19,123,56.41Z"/><path class="cls-11" d="M32.64,64.91c1.37-4,3-6.64,6.31-3.18C50.7,73.48,60.39,85.88,66.79,100.68c-5.68-4.13-12.29-6.45-18.23-10.42l2.21,1.1S34.43,74.88,32.64,64.91Z"/><path class="cls-12" d="M69,118.88a49.4,49.4,0,0,1,8.86,1.55,5.68,5.68,0,0,1,5.72-2.11c3.08.5,5.25,2.87,4.87,5.3s-3.18,4-6.26,3.49a5.75,5.75,0,0,1-4.77-3.76c-3,.69-7.87,1.14-10.13,2-3.62,1.38-6.42,3.72-4.29,7.67a9.74,9.74,0,0,1,.93,2.62H64a5.18,5.18,0,1,1-6.09,4.26,4.9,4.9,0,0,1,.63-1.76c-.46-.56-.93-1.18-1.39-1.83,1.24-5.6,5.42-10.5,10.08-13.92C67.35,121.75,68.46,120.36,69,118.88Z"/><path class="cls-13" d="M69.1,116.8c-2.34-2.45-5.19-1.6-7.94-1.41A41.83,41.83,0,0,1,65,113.21c1.81-.58,8.43-5.13,8.43-5.13a3.88,3.88,0,0,1,2.63,4.15,3.93,3.93,0,0,1-4.65,3.06l-.21-.05a10.52,10.52,0,0,1-2.07,3.1A3,3,0,0,0,69.1,116.8Z"/><path class="cls-14" d="M66.58,100.21c-6.4-14.6-16-26.85-27.62-38.47-3.3-3.46-4.94-.85-6.31,3.18a7.89,7.89,0,0,1,0-2.89c1.11-5.72,5.46-8.26,9.9-7.83,10,15.26,26.58,29,34.13,45.38.52,2.74.26,5-1.13,6.46-.7.75-1.39,1.42-2.07,2,0,0-1,.69-2.33,1.56A13.17,13.17,0,0,0,66.58,100.21Z"/><path class="cls-15" d="M41.71,117.11c4.76-.54,17.9-.7,17.9-.7s.62-.43,1.55-1c2.75-.19,5.61-1,7.94,1.41a3,3,0,0,1,0,1.53c-.3.32-.51.52-.51.52l.35,0c-.5,1.48-1.62,2.87-1.72,3.52-4.66,3.41-8.84,8.32-10.08,13.92-2.64-3.73-5.19-8.52-7.55-8.91-3.32-.54-12.84,2.34-23-9.3C16.66,106.64-.94,92.83,0,86.71c4.47.64,9,2.93,12.93,5.57C15.16,94.59,37.19,117.63,41.71,117.11Z"/><path class="cls-16" d="M19.61,77.62c10,3.43,23.67,10,29,12.64,5.94,4,12.55,6.29,18.23,10.42l-.22-.48a13.17,13.17,0,0,1,4.52,9.44,42.58,42.58,0,0,1-6.1,3.56c-4.34,1.16-8.79.12-14.39-2.36-10-4.41-37.83-18.76-37.83-18.76l.18.19C9.06,89.64,4.51,87.35,0,86.71c0-.09,0-.2,0-.29C1.67,80.45,7,73.28,19.61,77.62Z"/><path class="cls-17" d="M159.83,31A12.59,12.59,0,0,1,143,37.26a12.88,12.88,0,0,1-6.19-17A12.58,12.58,0,0,1,153.65,14,12.88,12.88,0,0,1,159.83,31Z"/><path class="cls-18" d="M159.24,31.2A11.43,11.43,0,0,1,144,36.89a11.71,11.71,0,0,1-5.62-15.45,11.44,11.44,0,0,1,15.26-5.7A11.7,11.7,0,0,1,159.24,31.2Z"/><path class="cls-19" d="M158.93,31.35a10.66,10.66,0,0,1-14.22,5.31,10.91,10.91,0,0,1-5.24-14.4,10.66,10.66,0,0,1,14.22-5.31A10.91,10.91,0,0,1,158.93,31.35Z"/><path class="cls-20" d="M56.4,64a81.06,81.06,0,0,0,9.74-2.54c2-.65,4.1-1.13,6.06-2a26.14,26.14,0,0,1,3-.78c1.11-.33,2.19-.81,3.33-1.08,3-.72,5.9-1.33,8.94-1.83,1.88-.31,3.79-.53,5.65-.92s3.52-1.23,5.33-1.8a23.37,23.37,0,0,1,6.8-.92c1.66,0,3.19.52,4.93.34,1.19-.13,2.34-.78,3.52-1a46.38,46.38,0,0,1,6.71,0,8,8,0,0,1,4.82,1.55c1,.7,1.4,1.35,1,2.48a2.93,2.93,0,0,1-1.92,1.77c-1,.4-1.33.26-1.57-.38.23-1.1.76-2.5-.09-2.5-1.81-.37-4.61-1.24-6.53-.53l-.15-.07a4.17,4.17,0,0,0-1.46.69c-.4.33-.43.76-.6,1.24-.36,1-.59,2-1,2.92-.24.6-1.38,3-2.28,2.59-.71-.32-.18-3.12-.09-3.8.19-1.42.6-2.42-1.21-2.41-2.12,0-3.21,0-3.84,2.3s-.62,4.46-1.17,6.66a25.18,25.18,0,0,1-1.7,5.16c-.46.92-1.66,3.09-3,2.91s-.06-2.2.17-2.78c.57-1.44,1.07-2.88,1.49-4.37a16.91,16.91,0,0,0,.35-4.65c0-1.7-.28-3.56-1.81-4.55-2.48-1.59-4.91-.43-6.32,1.92-1.92,3.21-1.33,7.91-.75,11.43.42,2.58.92,6.46-.37,8.86a2.26,2.26,0,0,1-2.48,1.3c-1-.22-.91-.76-1-1.79-.26-2.86,0-5.8-.21-8.69a29.94,29.94,0,0,0-1.49-7.91c-.66-1.81-1.74-3.75-3.87-2.79-3.73,1.67-3.42,6.53-3.17,10,.1,1.43,2.31,12,.3,12.23-1.07.11-2.09-1.94-2.44-2.74-.7-1.6-1.43-3.21-2.05-4.84-1.12-3-1.74-6.08-2.93-9-.5-1.23-1.63-2.33-2.76-1a6.2,6.2,0,0,0-1,3.52c-.12,2.22,0,4.48,0,6.7,0,.92.11,3.09-.77,3.76s-1.37-.46-1.78-1.21c-.75-1.37-1.55-2.73-2.17-4.17-.41-.95-.52-2-1-2.94-1.58-2.87-5.28-1.58-7.85-1.44-.91.05-2.34,0-2.57-1.25C52.88,64.76,55.52,64.19,56.4,64Z"/><path class="cls-21" d="M42.5,54.19A11.33,11.33,0,0,1,50,58.29s23.9,27.13,26.61,41.28C69.07,83.15,52.5,69.45,42.5,54.19Z"/><path class="cls-22" d="M120,125.32c1.82-1.38-.7-4.76-1.06-8.06.72.52,1.22.85,1.22.85a76.28,76.28,0,0,1,4.31-6.41,3.54,3.54,0,0,1-.18-3.23,3.61,3.61,0,0,1,4.85-1.68,3.7,3.7,0,0,1,1.89,4.83,3.56,3.56,0,0,1-4,1.95,76.1,76.1,0,0,1-5.23,8.69s14.07-3.05,18.64-.74a7.11,7.11,0,0,1,.94.57,4.51,4.51,0,0,1,3.75.06,4.34,4.34,0,0,1,2.32,5.63,4.24,4.24,0,0,1-5.74,1.86,4.46,4.46,0,0,1-2.64-4.33c-5.11-3.43-16.55,1.91-16.55,1.91,10.67,2.17,13.61,9.93,15.52,13.85l.07.17a3.41,3.41,0,0,1,1.36.32,3.59,3.59,0,0,1,1.7,4.74,3.5,3.5,0,0,1-4.67,1.76,3.59,3.59,0,0,1-1.7-4.74,3.5,3.5,0,0,1,.72-1c-.1-.69-.64-2.41-3-6.49-3.55-6.12-13.75-5-13.75-5s1.19,8.22.11,12.89a9.67,9.67,0,0,1-.93,2.44,4.06,4.06,0,0,1,.92,4.51,4.14,4.14,0,0,1-5.61,1.79A4.23,4.23,0,0,1,111,147a4.07,4.07,0,0,1,5-2l0-.09c3.08-6.76-1.39-17.05-1.39-17.05s-.94-.9-2.54-2.49C115,125.89,117.92,126.62,120,125.32Z"/><path class="cls-23" d="M97.37,81.77c.35-.39.71-.77,1.07-1.14,9.11-8.75,20.86-13.94,27.63-24.51.74,0,1.48,0,2.24,0a134.71,134.71,0,0,1-10.09,21.35c-5.18,3.88-9.7,7-9.7,7l.34,1.74A15.56,15.56,0,0,0,97.37,81.77Z"/><path class="cls-24" d="M108.86,86.25c1.15,5.85,4.83,24.49,5.24,26.19.34,1.41,3.16,3.62,4.82,4.82.36,3.3,2.88,6.68,1.06,8.06-2.05,1.3-5,.57-7.87,0-2.63-2.63-7-7.14-11.88-12.63-5-5.64-7.32-16.08-8.37-22.89a35.1,35.1,0,0,1,5.5-8.07A15.56,15.56,0,0,1,108.86,86.25Z"/><path class="cls-25" d="M126.07,56.12c-6.77,10.56-18.51,15.76-27.63,24.51a35.42,35.42,0,0,0-6.57,9.21c-.37-2.39-.58-4.34-.68-5.46C100.26,72.06,110,56.65,126.07,56.12Z"/><path class="cls-26" d="M152.22,32.53l-2.6-13.66A20.7,20.7,0,0,1,152.22,32.53Z"/><ellipse class="cls-27" cx="146.05" cy="22.17" rx="1.18" ry="1.2"/><path class="cls-27" d="M135.14,14.67h-1.09c-.71,0-1.76,0-3.09.11s-2.94.23-4.79.49A43.49,43.49,0,0,0,120,16.58a24.12,24.12,0,0,0-6.9,3.08l-.85.6-.79.57c-.27.15-.5.31-.78.46s-.55.3-.86.41A18.47,18.47,0,0,1,106,22.84a70,70,0,0,1-8.6.84c-3,.18-6,.35-9.09.73a51.37,51.37,0,0,0-9,1.94A34.48,34.48,0,0,0,75.09,28l-3.94,1.83c-2.59,1.19-5.08,2.38-7.44,3.5s-4.59,2.19-6.65,3.19L54.12,38,51.48,39.3l-4.27,2.22L44.48,43l-1,.52,1-.41,2.86-1.17L51.82,40l2.71-1.15,3-1.26c2.11-.87,4.39-1.82,6.79-2.85s4.94-2.1,7.55-3.24l4-1.73a42.54,42.54,0,0,1,4.06-1.49,49.78,49.78,0,0,1,8.69-1.79c3-.4,6-.59,9-.79a62.8,62.8,0,0,0,8.83-1.06,18.54,18.54,0,0,0,4.17-1.38c.33-.14.64-.35,1-.52s.64-.41.94-.62l.81-.64.74-.57a24.71,24.71,0,0,1,6.36-3.21,51.16,51.16,0,0,1,5.92-1.67c1.8-.38,3.38-.68,4.69-.87s2.35-.34,3.05-.41Z"/></svg>