<svg id="Layer_1" data-name="Layer 1" xmlns="http://www.w3.org/2000/svg" xmlns:xlink="http://www.w3.org/1999/xlink" viewBox="0 0 468.87 8.66"><defs><style>.cls-1{opacity:0.75;}.cls-2{fill:url(#linear-gradient);}.cls-3{fill:url(#linear-gradient-2);}.cls-4{fill:url(#linear-gradient-3);}.cls-5{fill:url(#linear-gradient-4);}.cls-6{fill:url(#linear-gradient-5);}.cls-7{fill:url(#linear-gradient-6);}.cls-8{fill:url(#linear-gradient-7);}.cls-9{fill:url(#linear-gradient-8);}.cls-10{fill:url(#linear-gradient-9);}</style><linearGradient id="linear-gradient" x1="352.29" y1="5.11" x2="352.29" y2="5.16" gradientUnits="userSpaceOnUse"><stop offset="0" stop-color="#6ac005"/><stop offset="1" stop-color="#427513"/></linearGradient><linearGradient id="linear-gradient-2" x1="352.3" y1="5.09" x2="352.3" y2="5.11" xlink:href="#linear-gradient"/><linearGradient id="linear-gradient-3" x1="468.85" y1="5.11" x2="468.84" y2="5.16" xlink:href="#linear-gradient"/><linearGradient id="linear-gradient-4" x1="234.49" y1="-1.99" x2="234.34" y2="11.36" xlink:href="#linear-gradient"/><linearGradient id="linear-gradient-5" x1="468.85" y1="5.09" x2="468.85" y2="5.11" xlink:href="#linear-gradient"/><linearGradient id="linear-gradient-6" x1="118.34" y1="5.11" x2="118.34" y2="5.16" xlink:href="#linear-gradient"/><linearGradient id="linear-gradient-7" x1="118.34" y1="5.09" x2="118.34" y2="5.11" xlink:href="#linear-gradient"/><linearGradient id="linear-gradient-8" x1="234.9" y1="5.09" x2="234.89" y2="5.11" xlink:href="#linear-gradient"/><linearGradient id="linear-gradient-9" x1="234.89" y1="5.11" x2="234.89" y2="5.16" xlink:href="#linear-gradient"/></defs><title>grass-line</title><g class="cls-1"><path class="cls-2" d="M352.3,5.11l0,.05,0,0S352.3,5.12,352.3,5.11Z"/><path class="cls-3" d="M352.3,5.11v0S352.29,5.1,352.3,5.11Z"/><path class="cls-4" d="M468.85,5.11l0,.05,0,0S468.86,5.12,468.85,5.11Z"/><path class="cls-5" d="M468.25,5.47c-.61.2-1.19.4-1.75.62l-.26-.15a8.31,8.31,0,0,1,.55-.87,9.49,9.49,0,0,1,1.08-1.25l.92-.13s0-.07,0-.11l-.75.09.43-.39c.17-.14.17-.18.36-.32a1.23,1.23,0,0,1,0-.24c-.37.21-.54.32-.86.53s-.51.35-.74.52l-2.61.37.44-.47A14.2,14.2,0,0,1,467,2a22.18,22.18,0,0,0-2.5,1.61c-.28.21-.54.42-.79.63l-1,.15-1.42-.47a25.13,25.13,0,0,1,2.47-1c.82-.29,1.72-.57,2.71-.83q.74-.2,1.56-.39l.76-.17h0l-.86.16q-.87.18-1.68.37c-1.07.26-2.06.53-3,.81s-1.78.59-2.55.9l-1.29-.37q-1.4-.38-3-.73l-.22,0c.32-.2.66-.4,1-.6s.6-.3.95-.44a11.78,11.78,0,0,1,1.15-.42c-.48.13-.88.27-1.27.41s-.74.29-1.08.43-.79.36-1.14.55l-1-.2.38-.11c.95-.27,1.94-.54,3-.79-1.13.24-2.19.5-3.22.76l-.39.1L453.09,2l1.57.32q-1.1.29-2.14.59c-.93-.6-1.91-1.2-3-1.8.92.62,1.74,1.24,2.5,1.86l.07.06-1.54.47-1.08-.22h0c.24-.13.5-.26.79-.38-.33.12-.63.24-.91.36L447.89,3l-.75-.11.7-.23c.39-.12.81-.24,1.24-.35s.9-.22,1.4-.32c-.53.09-1,.19-1.49.3s-.92.22-1.34.33l-.78.23-.73-.09.7.1c-.54.16-1.05.32-1.52.49l-.09,0,.76-.29-.83.26-.48-.14q-1.36-.37-2.92-.71l.55-.22q1.27-.48,2.74-.93c1-.3,2-.59,3.18-.85-1.22.25-2.33.52-3.39.81s-2.05.59-3,.9l-.55.19L440,2.12c-.58-.11-1.18-.21-1.82-.31.61.1,1.18.21,1.72.33l1.32.3L440,2.86,439,3l-.6.07L438.05,3l.32.06L437,3.21l-.78.11.61-.39-.82.42c-1,.13-1.95.27-2.89.42l-2.2.36-.21-.33a24.23,24.23,0,0,1,2.61-1.13c.82-.3,1.72-.59,2.71-.87.5-.14,1-.27,1.56-.4s1.12-.26,1.75-.37c-.66.11-1.26.23-1.84.35s-1.14.25-1.68.39c-1.07.27-2.06.55-3,.85s-1.65.57-2.37.87a5.78,5.78,0,0,0-.72-.77,3.51,3.51,0,0,1,.45.88c-.69.29-1.33.59-1.89.9l-.29.17L426.45,5,426,4.71c-.36-.19-.75-.38-1.16-.56l.87-.28c.35-.1.71-.2,1.15-.29-.48.09-.88.18-1.27.28l-.87.23-.09,0,.49-.32A13.5,13.5,0,0,1,426.61,3c.29-.13.6-.26.95-.38s.71-.25,1.15-.36c-.48.11-.88.23-1.27.35s-.74.25-1.08.37c-.67.25-1.26.51-1.79.77l-.34.18q-.76-.31-1.63-.61l0,0,1.4-.4c.89-.25,1.82-.49,2.82-.72-1.06.22-2.06.45-3,.69l-1.33.34L422.11,3c-.94-.61-1.94-1.23-3-1.83.9.6,1.7,1.2,2.45,1.81-.84-.25-1.75-.49-2.73-.72q-.77-.17-1.6-.33c-.56-.1-1.13-.2-1.75-.28.59.09,1.13.2,1.66.31s1,.23,1.49.35c.95.24,1.81.51,2.59.78l.73.27-.91.25-1.76.53-.4-.23-.3-.16,1.07-.21c.5-.09,1-.18,1.58-.26-.6.07-1.15.16-1.68.24l-1.05.18-.17-.09.22-.13.53-.09-.5.07a10.2,10.2,0,0,1,1-.51c-.51.18-.94.37-1.36.56h-.09c-.42-.21-.86-.43-1.33-.63l1.11-.1-1.12.1c-.86-.38-1.78-.75-2.79-1.1s-2-.64-3-.94q-.81-.22-1.69-.43c-.58-.14-1.18-.27-1.82-.39.61.13,1.17.27,1.72.41s1.07.3,1.58.45q1.51.46,2.8,1c.89.35,1.7.71,2.44,1.08l-.52,0-2.38.24c-1.12.12-2.21.25-3.29.39l-.35-.07.28-.25a12.1,12.1,0,0,1,1.18-.87c.22-.14.46-.29.71-.43a9.33,9.33,0,0,1,.84-.42c-.36.13-.67.27-1,.41l-.84.42c-.53.28-1,.57-1.45.86l-.26.18h0c-.48-.09-1-.17-1.54-.24.53.08,1,.17,1.44.26l.09,0-.44.31-2.61.37.44-.47a14.22,14.22,0,0,1,2-1.63,22.28,22.28,0,0,0-2.5,1.61c-.28.21-.54.42-.79.63h0c-.51-.22-1-.44-1.63-.66.53-.23,1.11-.46,1.74-.68.82-.29,1.72-.57,2.71-.83.5-.13,1-.26,1.56-.39s1.12-.25,1.75-.35c-.66.1-1.26.22-1.84.34s-1.14.24-1.68.37c-1.07.26-2.06.53-3,.81-.61.19-1.17.39-1.71.59-.67-.24-1.37-.48-2.13-.71q-1.4-.43-3-.82h0c.6-.16,1.21-.32,1.86-.48-.68.15-1.33.3-2,.45-1-.25-2.11-.49-3.29-.71,1.13.23,2.15.49,3.11.75l-1.08.27c-.9.23-1.76.47-2.6.71-.93-.6-1.91-1.2-3-1.8.92.62,1.74,1.24,2.5,1.86l.07.06-.41.13q-1-.28-2.21-.52l-.89-.18.47-.13c.44-.11.9-.22,1.4-.32-.53.09-1,.19-1.49.3l-.52.12-.59-.11c-.56-.1-1.13-.19-1.75-.27.59.09,1.13.19,1.66.29l.55.11-.7.18c-.63.17-1.21.35-1.76.54l-.12,0,.22-.08-.24.07-1.06-.33q-1.42-.42-3-.79l-1.69-.36c-.58-.12-1.18-.23-1.82-.33.61.11,1.17.23,1.72.35l1.58.38q1.52.39,2.8.82l1.11.39c-.43.14-.83.29-1.21.43l-.94.39-.13,0-.08,0,.24-.12-.28.11c-.6-.19-1.26-.38-2-.56-.42-.1-.87-.2-1.35-.29l-.72-.13.18-.12,2-.24-2,.2.21-.13c.22-.13.46-.27.71-.4s.52-.26.84-.39c-.36.12-.67.25-1,.38l-.84.39-.38.2-.28,0L379.32,3l.33.06-1.38.17-1.93.26A14,14,0,0,1,378.09,2a22,22,0,0,0-2.39,1.53l-1,.16c-.87-.38-1.84-.76-2.93-1.11-.91-.3-1.89-.58-3-.85l-.56-.13.69-.17-.72.16-.12,0-1-.29C366,1,364.87.74,363.65.5c1.07.24,2,.5,2.94.78-.43-.09-.87-.17-1.35-.25.62.11,1.19.24,1.74.37l.91.29c-.76.17-1.5.35-2.21.53s-1.65.44-2.44.66L362,2.11l.43-.08L362,2.1c-.53-.32-1.09-.65-1.67-1,.5.34,1,.67,1.42,1l-1,.18c-.53.11-1,.22-1.52.33l-.14,0-.23-.08c-.91-.3-1.89-.58-3-.85-.54-.13-1.09-.26-1.68-.39s-1.19-.24-1.84-.35c.63.11,1.2.24,1.75.37s1.07.27,1.56.4c1,.28,1.89.57,2.71.87l.3.12-.17,0-.1,0c-.56-.09-1.13-.17-1.74-.25.59.08,1.13.17,1.66.27l.1,0q-1,.26-1.85.54l-.37.12-1-.29q-1.42-.39-3-.74c-.54-.12-.91-.2-1.49-.31l-.18,0,0,0,.11,0c.55.11.87.2,1.38.32,1,.24,1.94.5,2.8.76l1.07.35q-.67.24-1.25.48l-.84-.33Q353,3.5,352,3.22a2.77,2.77,0,0,1,.3-.27,1.23,1.23,0,0,1,0-.24c-.28.16-.45.27-.66.4l-.06,0c-.35-.09-.57-.17-1-.25,0,0,0,0,0,0,.32.08.47.16.76.24l.18.06-.09.06c-.26.17-.51.35-.74.52L348,4.14l.44-.47a14.19,14.19,0,0,1,2-1.63,22.17,22.17,0,0,0-2.5,1.61c-.28.21-.54.42-.79.63l-1,.15-1.42-.47a25.13,25.13,0,0,1,2.47-1c.82-.29,1.72-.57,2.71-.83q.74-.2,1.56-.39l.76-.17h0l-.86.16q-.87.18-1.68.37c-1.07.26-2.06.53-3,.81s-1.78.59-2.55.9l-1.29-.37q-1.4-.38-3-.73l-.22,0c.32-.2.66-.4,1-.6s.6-.3.95-.44a11.79,11.79,0,0,1,1.15-.42c-.48.13-.88.27-1.27.41s-.74.29-1.08.43-.79.36-1.14.55l-1-.2.38-.11c.95-.27,1.94-.54,3-.79-1.13.24-2.19.5-3.22.76l-.39.1L336.54,2l1.57.32q-1.1.29-2.14.59c-.93-.6-1.91-1.2-3-1.8.92.62,1.74,1.24,2.5,1.86l.07.06L334,3.52l-1.08-.22h0c.24-.13.5-.26.79-.38-.33.12-.63.24-.91.36L331.34,3l-.75-.11.7-.23c.39-.12.81-.24,1.24-.35s.9-.22,1.4-.32c-.53.09-1,.19-1.49.3s-.92.22-1.34.33l-.78.23-.73-.09.7.1c-.54.16-1.05.32-1.52.49l-.09,0,.76-.29-.83.26-.48-.14q-1.36-.37-2.92-.71l.55-.22q1.27-.48,2.74-.93c1-.3,2-.59,3.18-.85-1.22.25-2.33.52-3.39.81s-2.05.59-3,.9l-.55.19-1.35-.27c-.58-.11-1.18-.21-1.82-.31.61.1,1.18.21,1.72.33l1.32.3-1.17.43-1,.1-.6.07L321.5,3l.32.06-1.38.17-.78.11.61-.39-.82.42c-1,.13-1.95.27-2.89.42l-2.2.36-.21-.33a24.24,24.24,0,0,1,2.61-1.13c.82-.3,1.72-.59,2.71-.87.5-.14,1-.27,1.56-.4s1.12-.26,1.75-.37c-.66.11-1.26.23-1.84.35s-1.14.25-1.68.39c-1.07.27-2.06.55-3,.85s-1.65.57-2.37.87a5.78,5.78,0,0,0-.72-.77,3.51,3.51,0,0,1,.45.88c-.69.29-1.33.59-1.89.9l-.29.17L309.89,5l-.48-.27c-.36-.19-.75-.38-1.16-.56l.87-.28c.35-.1.71-.2,1.15-.29-.48.09-.88.18-1.27.28l-.87.23-.09,0,.49-.32A13.5,13.5,0,0,1,310.06,3c.29-.13.6-.26.95-.38s.71-.25,1.15-.36c-.48.11-.88.23-1.27.35s-.74.25-1.08.37c-.67.25-1.26.51-1.79.77l-.34.18q-.76-.31-1.63-.61l0,0,1.4-.4c.89-.25,1.82-.49,2.82-.72-1.06.22-2.06.45-3,.69l-1.33.34L305.55,3c-.94-.61-1.94-1.23-3-1.83.9.6,1.7,1.2,2.45,1.81-.84-.25-1.75-.49-2.73-.72q-.77-.17-1.6-.33c-.56-.1-1.13-.2-1.75-.28.59.09,1.13.2,1.66.31s1,.23,1.49.35c.95.24,1.81.51,2.59.78l.73.27-.91.25-1.76.53-.4-.23-.3-.16,1.07-.21c.5-.09,1-.18,1.58-.26-.6.07-1.15.16-1.68.24l-1.05.18-.17-.09.22-.13.53-.09-.5.07a10.21,10.21,0,0,1,1-.51c-.51.18-.94.37-1.36.56h-.09c-.42-.21-.86-.43-1.33-.63l1.11-.1-1.12.1c-.86-.38-1.78-.75-2.79-1.1s-2-.64-3-.94Q293.57.6,292.7.39c-.58-.14-1.18-.27-1.82-.39.61.13,1.18.27,1.72.41s1.07.3,1.58.45q1.51.46,2.8,1c.89.35,1.7.71,2.44,1.08l-.52,0-2.38.24c-1.12.12-2.21.25-3.29.39l-.35-.07.28-.25a12.1,12.1,0,0,1,1.18-.87c.22-.14.46-.29.71-.43a9.33,9.33,0,0,1,.84-.42c-.36.13-.67.27-1,.41l-.84.42c-.53.28-1,.57-1.45.86l-.26.18h0c-.48-.09-1-.17-1.54-.24.53.08,1,.17,1.44.26l.09,0-.44.31-2.61.37.44-.47a14.22,14.22,0,0,1,2-1.63,22.28,22.28,0,0,0-2.5,1.61c-.28.21-.54.42-.79.63h0c-.51-.22-1-.44-1.63-.66.53-.23,1.11-.46,1.74-.68.82-.29,1.72-.57,2.71-.83.5-.13,1-.26,1.56-.39s1.12-.25,1.75-.35c-.66.1-1.26.22-1.84.34s-1.14.24-1.68.37c-1.07.26-2.06.53-3,.81-.61.19-1.17.39-1.71.59-.67-.24-1.37-.48-2.13-.71q-1.4-.43-3-.82h0c.6-.16,1.21-.32,1.86-.48-.68.15-1.33.3-2,.45-1-.25-2.11-.49-3.29-.71,1.13.23,2.15.49,3.11.75l-1.08.27c-.9.23-1.76.47-2.6.71-.93-.6-1.91-1.2-3-1.8.92.62,1.74,1.24,2.5,1.86l.07.06-.41.13q-1-.28-2.21-.52l-.89-.18.47-.13c.44-.11.9-.22,1.4-.32-.53.09-1,.19-1.49.3l-.52.12-.59-.11c-.56-.1-1.13-.19-1.75-.27.59.09,1.13.19,1.66.29l.55.11-.7.18c-.63.17-1.21.35-1.76.54l-.12,0,.22-.08-.24.07-1.06-.33q-1.42-.42-3-.79l-1.69-.36c-.58-.12-1.18-.23-1.82-.33.61.11,1.17.23,1.72.35l1.58.38q1.52.39,2.8.82l1.11.39c-.43.14-.83.29-1.21.43l-.94.39-.13,0-.08,0,.24-.12-.28.11c-.6-.19-1.26-.38-2-.56-.42-.1-.87-.2-1.35-.29l-.72-.13.18-.12,2-.24-2,.2.21-.13c.22-.13.46-.27.71-.4s.52-.26.84-.39c-.36.12-.67.25-1,.38l-.84.39-.38.2-.28,0L262.76,3l.33.06-1.38.17-1.93.26A14,14,0,0,1,261.54,2a22,22,0,0,0-2.39,1.53l-1,.16c-.87-.38-1.84-.76-2.93-1.11-.91-.3-1.89-.58-3-.85l-.56-.13.69-.17-.72.16-.12,0-1-.29C249.43,1,248.32.74,247.1.5c1.07.24,2,.5,2.94.78-.43-.09-.87-.17-1.35-.25.62.11,1.19.24,1.74.37l.91.29c-.76.17-1.5.35-2.21.53s-1.65.44-2.44.66l-1.23-.77L245.9,2l-.45.07c-.53-.32-1.09-.65-1.67-1,.5.34,1,.67,1.42,1l-1,.18c-.53.11-1,.22-1.52.33l-.14,0-.23-.08c-.91-.3-1.89-.58-3-.85-.54-.13-1.09-.26-1.68-.39s-1.19-.24-1.84-.35c.63.11,1.2.24,1.75.37s1.07.27,1.56.4c1,.28,1.89.57,2.71.87l.3.12-.17,0-.1,0c-.56-.09-1.13-.17-1.74-.25.59.08,1.13.17,1.66.27l.1,0q-1,.26-1.85.54l-.37.12-1-.29q-1.42-.39-3-.74c-.54-.12-.91-.2-1.49-.31l-.18,0,0,0,.11,0c.55.11.87.2,1.38.32,1,.24,1.94.5,2.8.76l1.07.35q-.67.24-1.25.48l-.84-.33c-.67-.24-1.42-.48-2.27-.7L234.75,3l.11-.09a1.23,1.23,0,0,1,0-.24l-.4.24L234,2.85s0,0,0,0l.37.11-.38.24c-.26.17-.51.35-.74.52l-2.61.37.44-.47A14.19,14.19,0,0,1,233,2a22.17,22.17,0,0,0-2.5,1.61c-.28.21-.54.42-.79.63l-1,.15-1.42-.47a25.13,25.13,0,0,1,2.47-1c.82-.29,1.72-.57,2.71-.83q.74-.2,1.56-.39l.76-.17h0l-.86.16q-.87.18-1.68.37c-1.07.26-2.06.53-3,.81s-1.78.59-2.55.9l-1.29-.37q-1.4-.38-3-.73l-.22,0c.32-.2.66-.4,1-.6s.6-.3.95-.44a11.79,11.79,0,0,1,1.15-.42c-.48.13-.88.27-1.27.41s-.74.29-1.08.43-.79.36-1.14.55l-1-.2.38-.11c.95-.27,1.94-.54,3-.79-1.13.24-2.19.5-3.22.76l-.39.1L219.13,2l1.57.32q-1.1.29-2.14.59c-.93-.6-1.91-1.2-3-1.8.92.62,1.74,1.24,2.5,1.86l.07.06-1.54.47-1.08-.22h0c.24-.13.5-.26.79-.38-.33.12-.63.24-.91.36L213.94,3l-.75-.11.7-.23c.39-.12.81-.24,1.24-.35s.9-.22,1.4-.32c-.53.09-1,.19-1.49.3s-.92.22-1.34.33l-.78.23-.73-.09.7.1c-.54.16-1.05.32-1.52.49l-.09,0,.76-.29-.83.26-.48-.14q-1.36-.37-2.92-.71l.55-.22q1.27-.48,2.74-.93c1-.3,2-.59,3.18-.85-1.22.25-2.33.52-3.39.81s-2.05.59-3,.9l-.55.19L206,2.12c-.58-.11-1.18-.21-1.82-.31.61.1,1.18.21,1.72.33l1.32.3L206,2.86l-1,.1-.6.07L204.1,3l.32.06L203,3.21l-.78.11.61-.39-.82.42c-1,.13-1.95.27-2.89.42l-2.2.36-.21-.33a24.23,24.23,0,0,1,2.61-1.13c.82-.3,1.72-.59,2.71-.87.5-.14,1-.27,1.56-.4s1.12-.26,1.75-.37c-.66.11-1.26.23-1.84.35s-1.14.25-1.68.39c-1.07.27-2.06.55-3,.85s-1.65.57-2.37.87a5.78,5.78,0,0,0-.72-.77,3.51,3.51,0,0,1,.45.88c-.69.29-1.33.59-1.89.9l-.29.17L192.49,5,192,4.71c-.36-.19-.75-.38-1.16-.56l.87-.28c.35-.1.71-.2,1.15-.29-.48.09-.88.18-1.27.28l-.87.23-.09,0,.49-.32A13.5,13.5,0,0,1,192.66,3c.29-.13.6-.26.95-.38s.71-.25,1.15-.36c-.48.11-.88.23-1.27.35s-.74.25-1.08.37c-.67.25-1.26.51-1.79.77l-.34.18q-.76-.31-1.63-.61l0,0,1.4-.4c.89-.25,1.82-.49,2.82-.72-1.06.22-2.06.45-3,.69l-1.33.34L188.15,3c-.94-.61-1.94-1.23-3-1.83.9.6,1.7,1.2,2.45,1.81-.84-.25-1.75-.49-2.73-.72q-.77-.17-1.6-.33c-.56-.1-1.13-.2-1.75-.28.59.09,1.13.2,1.66.31s1,.23,1.49.35c.95.24,1.81.51,2.59.78l.73.27-.91.25-1.76.53-.4-.23-.3-.16,1.07-.21c.5-.09,1-.18,1.58-.26-.6.07-1.15.16-1.68.24l-1.05.18-.17-.09.22-.13.53-.09-.5.07a10.21,10.21,0,0,1,1-.51c-.51.18-.94.37-1.36.56h-.09c-.42-.21-.86-.43-1.33-.63l1.11-.1-1.12.1C182,2.47,181,2.11,180,1.76s-2-.64-3-.94Q176.17.6,175.3.39c-.58-.14-1.18-.27-1.82-.39.61.13,1.18.27,1.72.41s1.07.3,1.58.45q1.51.46,2.8,1c.89.35,1.7.71,2.44,1.08l-.52,0-2.38.24c-1.12.12-2.21.25-3.29.39l-.35-.07.28-.25a12.1,12.1,0,0,1,1.18-.87c.22-.14.46-.29.71-.43a9.33,9.33,0,0,1,.84-.42c-.36.13-.67.27-1,.41l-.84.42c-.53.28-1,.57-1.45.86l-.26.18h0c-.48-.09-1-.17-1.54-.24.53.08,1,.17,1.44.26l.09,0-.44.31-2.61.37.44-.47a14.22,14.22,0,0,1,2-1.63,22.28,22.28,0,0,0-2.5,1.61c-.28.21-.54.42-.79.63h0c-.51-.22-1-.44-1.63-.66.53-.23,1.11-.46,1.74-.68.82-.29,1.72-.57,2.71-.83.5-.13,1-.26,1.56-.39s1.12-.25,1.75-.35c-.66.1-1.26.22-1.84.34s-1.14.24-1.68.37c-1.07.26-2.06.53-3,.81-.61.19-1.17.39-1.71.59-.67-.24-1.37-.48-2.13-.71q-1.4-.43-3-.82h0c.6-.16,1.21-.32,1.86-.48-.68.15-1.33.3-2,.45-1-.25-2.11-.49-3.29-.71,1.13.23,2.15.49,3.11.75l-1.08.27c-.9.23-1.76.47-2.6.71-.93-.6-1.91-1.2-3-1.8.92.62,1.74,1.24,2.5,1.86l.07.06-.41.13q-1-.28-2.21-.52l-.89-.18.47-.13c.44-.11.9-.22,1.4-.32-.53.09-1,.19-1.49.3l-.52.12-.59-.11c-.56-.1-1.13-.19-1.75-.27.59.09,1.13.19,1.66.29l.55.11-.7.18c-.63.17-1.21.35-1.76.54l-.12,0,.22-.08-.24.07L152,2.82q-1.42-.42-3-.79l-1.69-.36c-.58-.12-1.18-.23-1.82-.33.61.11,1.17.23,1.72.35l1.58.38q1.52.39,2.8.82l1.11.39c-.43.14-.83.29-1.21.43l-.94.39-.13,0-.08,0,.24-.12-.28.11c-.6-.19-1.26-.38-2-.56-.42-.1-.87-.2-1.35-.29l-.72-.13.18-.12,2-.24-2,.2.21-.13c.22-.13.46-.27.71-.4s.52-.26.84-.39c-.36.12-.67.25-1,.38l-.84.39L146,3l-.28,0L145.36,3l.33.06-1.38.17-1.93.26A14,14,0,0,1,144.13,2a22,22,0,0,0-2.39,1.53l-1,.16c-.87-.38-1.84-.76-2.93-1.11-.91-.3-1.89-.58-3-.85l-.56-.13.69-.17-.72.16-.12,0-1-.29C132,1,130.92.74,129.7.5c1.07.24,2,.5,2.94.78-.43-.09-.87-.17-1.35-.25.62.11,1.19.24,1.74.37l.91.29c-.76.17-1.5.35-2.21.53s-1.65.44-2.44.66l-1.23-.77L128.5,2,128,2.1c-.53-.32-1.09-.65-1.67-1,.5.34,1,.67,1.42,1l-1,.18c-.53.11-1,.22-1.52.33l-.14,0-.23-.08c-.91-.3-1.89-.58-3-.85-.54-.13-1.09-.26-1.68-.39s-1.19-.24-1.84-.35c.63.11,1.2.24,1.75.37s1.07.27,1.56.4c1,.28,1.89.57,2.71.87l.3.12-.17,0-.1,0c-.56-.09-1.13-.17-1.74-.25.59.08,1.13.17,1.66.27l.1,0q-1,.26-1.85.54l-.37.12-1-.29q-1.42-.39-3-.74c-.54-.12-.91-.2-1.49-.31l-.18,0,0,0,.11,0c.55.11.87.2,1.38.32,1,.24,1.94.5,2.8.76l1.07.35q-.67.24-1.25.48l-.84-.33Q119,3.5,118,3.22a2.77,2.77,0,0,1,.3-.27,1.23,1.23,0,0,1,0-.24c-.28.16-.45.27-.66.4l-.06,0c-.35-.09-.57-.17-1-.25,0,0,0,0,0,0,.32.08.47.16.76.24l.18.06-.09.06c-.26.17-.51.35-.74.52l-2.61.37.44-.47a14.2,14.2,0,0,1,2-1.63A22.18,22.18,0,0,0,114,3.65c-.28.21-.54.42-.79.63l-1,.15-1.42-.47a25.13,25.13,0,0,1,2.47-1c.82-.29,1.72-.57,2.71-.83q.74-.2,1.56-.39l.76-.17h0l-.86.16q-.87.18-1.68.37c-1.07.26-2.06.53-3,.81s-1.78.59-2.55.9L109,3.41q-1.4-.38-3-.73l-.22,0c.32-.2.66-.4,1-.6s.6-.3.95-.44a11.79,11.79,0,0,1,1.15-.42c-.48.13-.88.27-1.27.41s-.74.29-1.08.43-.79.36-1.14.55l-1-.2.38-.11c.95-.27,1.94-.54,3-.79-1.13.24-2.19.5-3.22.76l-.39.1L102.58,2l1.57.32q-1.1.29-2.14.59c-.93-.6-1.91-1.2-3-1.8.92.62,1.74,1.24,2.5,1.86l.07.06-1.54.47L99,3.3h0c.24-.13.5-.26.79-.38-.33.12-.63.24-.91.36L97.38,3l-.75-.11.7-.23c.39-.12.81-.24,1.24-.35s.9-.22,1.4-.32c-.53.09-1,.19-1.49.3s-.92.22-1.34.33l-.78.23-.73-.09.7.1c-.54.16-1.05.32-1.52.49l-.09,0,.76-.29-.83.26-.48-.14q-1.36-.37-2.92-.71l.55-.22q1.27-.48,2.74-.93c1-.3,2-.59,3.18-.85-1.22.25-2.33.52-3.39.81s-2.05.59-3,.9l-.55.19-1.35-.27c-.58-.11-1.18-.21-1.82-.31.61.1,1.18.21,1.72.33l1.32.3-1.17.43-1,.1L87.9,3,87.55,3l.32.06-1.38.17-.78.11.61-.39-.82.42c-1,.13-1.95.27-2.89.42l-2.2.36L80.2,3.8a24.23,24.23,0,0,1,2.61-1.13c.82-.3,1.72-.59,2.71-.87.5-.14,1-.27,1.56-.4S88.2,1.14,88.82,1c-.66.11-1.26.23-1.84.35s-1.14.25-1.68.39c-1.07.27-2.06.55-3,.85s-1.65.57-2.37.87a5.78,5.78,0,0,0-.72-.77,3.51,3.51,0,0,1,.45.88c-.69.29-1.33.59-1.89.9l-.29.17L75.94,5l-.48-.27c-.36-.19-.75-.38-1.16-.56l.87-.28c.35-.1.71-.2,1.15-.29-.48.09-.88.18-1.27.28l-.87.23-.09,0,.49-.32A13.5,13.5,0,0,1,76.11,3c.29-.13.6-.26.95-.38s.71-.25,1.15-.36c-.48.11-.88.23-1.27.35s-.74.25-1.08.37c-.67.25-1.26.51-1.79.77l-.34.18q-.76-.31-1.63-.61l0,0,1.4-.4c.89-.25,1.82-.49,2.82-.72-1.06.22-2.06.45-3,.69l-1.33.34L71.6,3c-.94-.61-1.94-1.23-3-1.83.9.6,1.7,1.2,2.45,1.81-.84-.25-1.75-.49-2.73-.72q-.77-.17-1.6-.33c-.56-.1-1.13-.2-1.75-.28.59.09,1.13.2,1.66.31s1,.23,1.49.35c.95.24,1.81.51,2.59.78l.73.27-.91.25-1.76.53-.4-.23L68,3.71,69.1,3.5c.5-.09,1-.18,1.58-.26-.6.07-1.15.16-1.68.24l-1.05.18-.17-.09L68,3.45l.53-.09-.5.07a10.2,10.2,0,0,1,1-.51c-.51.18-.94.37-1.36.56h-.09c-.42-.21-.86-.43-1.33-.63l1.11-.1-1.12.1c-.86-.38-1.78-.75-2.79-1.1s-2-.64-3-.94Q59.61.6,58.74.39C58.16.25,57.56.12,56.92,0c.61.13,1.18.27,1.72.41s1.07.3,1.58.45q1.51.46,2.8,1c.89.35,1.7.71,2.44,1.08l-.52,0-2.38.24c-1.12.12-2.21.25-3.29.39l-.35-.07.28-.25a12.09,12.09,0,0,1,1.18-.87c.22-.14.46-.29.71-.43a9.33,9.33,0,0,1,.84-.42c-.36.13-.67.27-1,.41l-.84.42c-.53.28-1,.57-1.45.86l-.26.18h0c-.48-.09-1-.17-1.54-.24.53.08,1,.17,1.44.26l.09,0-.44.31-2.61.37.44-.47a14.22,14.22,0,0,1,2-1.63,22.27,22.27,0,0,0-2.5,1.61c-.28.21-.54.42-.79.63h0c-.51-.22-1-.44-1.63-.66.53-.23,1.11-.46,1.74-.68.82-.29,1.72-.57,2.71-.83.5-.13,1-.26,1.56-.39s1.12-.25,1.75-.35c-.66.1-1.26.22-1.84.34s-1.14.24-1.68.37c-1.07.26-2.06.53-3,.81-.61.19-1.17.39-1.71.59C51.68,3.22,51,3,50.23,2.75q-1.4-.43-3-.82h0c.6-.16,1.21-.32,1.86-.48-.68.15-1.33.3-2,.45-1-.25-2.11-.49-3.29-.71C45,1.43,46,1.69,47,2l-1.08.27c-.9.23-1.76.47-2.6.71-.93-.6-1.91-1.2-3-1.8C41.21,1.75,42,2.37,42.8,3l.07.06-.41.13q-1-.28-2.21-.52l-.89-.18.47-.13c.44-.11.9-.22,1.4-.32-.53.09-1,.19-1.49.3l-.52.12-.59-.11c-.56-.1-1.13-.19-1.75-.27.59.09,1.13.19,1.66.29l.55.11-.7.18c-.63.17-1.21.35-1.76.54l-.12,0,.22-.08-.24.07-1.06-.33Q34,2.41,32.39,2l-1.69-.36c-.58-.12-1.18-.23-1.82-.33.61.11,1.17.23,1.72.35l1.58.38q1.52.39,2.8.82l1.11.39c-.43.14-.83.29-1.21.43l-.94.39-.13,0-.08,0L34,4l-.28.11c-.6-.19-1.26-.38-2-.56-.42-.1-.87-.2-1.35-.29l-.72-.13L29.82,3l2-.24-2,.2.21-.13c.22-.13.46-.27.71-.4s.52-.26.84-.39c-.36.12-.67.25-1,.38l-.84.39-.38.2-.28,0L28.81,3l.33.06-1.38.17-1.93.26A14,14,0,0,1,27.58,2a22,22,0,0,0-2.39,1.53l-1,.16c-.87-.38-1.84-.76-2.93-1.11-.91-.3-1.89-.58-3-.85l-.56-.13.69-.17-.72.16-.12,0-1-.29C15.48,1,14.37.74,13.14.5c1.07.24,2,.5,2.94.78-.43-.09-.87-.17-1.35-.25.62.11,1.19.24,1.74.37l.91.29c-.76.17-1.5.35-2.21.53s-1.65.44-2.44.66l-1.23-.77L11.94,2l-.45.07c-.53-.32-1.09-.65-1.67-1,.5.34,1,.67,1.42,1l-1,.18c-.53.11-1,.22-1.52.33l-.14,0-.23-.08c-.91-.3-1.89-.58-3-.85-.54-.13-1.09-.26-1.68-.39S2.55,1.13,1.89,1c.63.11,1.2.24,1.75.37s1.07.27,1.56.4c1,.28,1.89.57,2.71.87l.3.12L8,2.83l-.1,0c-.56-.09-1.13-.17-1.74-.25.59.08,1.13.17,1.66.27l.1,0q-1,.26-1.85.54l-.37.12-1-.29q-1.42-.39-3-.74C1.15,2.37.78,2.29.2,2.18L0,2.15l0,0,.11,0c.55.11.87.2,1.38.32,1,.24,1.94.5,2.8.76l1.07.35q-.67.24-1.25.48L3.27,3.8C2.6,3.55,1.85,3.32,1,3.1.65,3,.43,2.93,0,2.85c0,0,0,0,0,0,.32.08.47.16.76.24a18.62,18.62,0,0,1,2,.72c.34.15.65.3.94.45A14,14,0,0,0,2.28,5a8.57,8.57,0,0,0-1,.69A4.74,4.74,0,0,0,.15,5.14s0,0,0,0c0,.14,0,.23,0,.36a3.56,3.56,0,0,1,.64.67,4.56,4.56,0,0,0-.56.65l-.15.25s0,0,0,0A6.53,6.53,0,0,1,0,8.66H15L15,8.59v.07H79.5l0,0h.42v0h51.64l.06-.07v.07h64.45l0,0h.42v0h52.49l.06-.07v.07h64.45l0,0h.42v0h51.64l.06-.07v.07H430l0,0h.42v0h38.41c0-.23,0-.39,0-.7,0,0,0,0,0,0a5.87,5.87,0,0,0-1.12-1.08,4.83,4.83,0,0,1,.45-.55c.23-.24.34-.43.6-.66l.08,0s0,0,0,0l.08-.07c0-.11-.07-.23,0-.35Zm-6.84.61A3.91,3.91,0,0,0,460.8,5l1.63-.3a2.56,2.56,0,0,1,.3.21l.11.11-.28.27a10.15,10.15,0,0,0-1,1.22A2.77,2.77,0,0,0,461.41,6.08Zm-1.1,0a2.46,2.46,0,0,1-.57,1.22c-.11-.11-.23-.23-.37-.34a9.32,9.32,0,0,0-1.3-.89,8.45,8.45,0,0,1,.83-.7l.6-.13.71-.14A2.65,2.65,0,0,1,460.31,6.09Zm-6.27,0a9,9,0,0,0-.86-.38,7.12,7.12,0,0,1,.54-.82l.19-.1.09,0,.12.11q.48.49.9,1Zm-17.44.67a2.75,2.75,0,0,0-.3-.25q.77-.36,1.63-.69l-.5.32C437.13,6.34,436.85,6.54,436.6,6.75Zm-4,.94a4.41,4.41,0,0,1,.89-1.91l.17-.21c.24.1.46.2.64.31-.2.16-.39.31-.57.47A6.67,6.67,0,0,0,432.59,7.69Zm7.21-4.36.71.18-.61.2-.84.31c-.53.21-1,.42-1.45.64l-.74.39c.35-.25.71-.51,1.13-.76S439.15,3.64,439.81,3.33Zm-1.62,2.05c-.59.19-1.15.38-1.69.58a8.85,8.85,0,0,1,1.64-1.29A12.53,12.53,0,0,1,439.33,4l.71-.32.51-.2.18,0c.48.13.92.27,1.32.41l-.11,0-.84.29c-.53.2-1,.4-1.45.6l-.26.13Zm3.17-1.07.71-.3,0,0,.54.2-.08,0q-1,.23-2,.48C440.81,4.58,441.07,4.44,441.36,4.31Zm1.26,0,0,0c-.42.2-.81.4-1.17.6.28-.18.59-.36.92-.54Zm-.93,2.24a4.18,4.18,0,0,1,1.17-1.48,7.83,7.83,0,0,1,.71-.52c.28.13.54.27.78.4l-.18.08a13.69,13.69,0,0,0-2,1.17Zm2.16-2.19c.31-.19.64-.38,1-.56l.18,0,.5-.1,1.06.39c-.41.13-.78.27-1.14.41l-.68.28C444.5,4.65,444.18,4.53,443.85,4.4Zm1.26-.68.22-.1.13,0Zm.61.79c.28-.14.58-.27.92-.41l.59.25a14,14,0,0,0-1.37.93h0c-.26-.14-.53-.27-.82-.41C445.26,4.76,445.48,4.64,445.73,4.52Zm2.48.29.32.16.7.38-.13.05-.18.08a3.49,3.49,0,0,0-.34-.3,4.56,4.56,0,0,0-.39-.27l-.09-.05h0Zm3.1.94c-.36-.2-.76-.4-1.17-.6l.28-.14c.42.12.81.24,1.15.37l.24.1Zm-1.37-.69-.4-.19-.48-.2,1,.24.15,0Zm-1.29,1a1.43,1.43,0,0,1-.14.59,2.39,2.39,0,0,1-.26.41l-.32-.33.23-.25A6,6,0,0,1,448.65,6.07Zm.48-.35.36-.22a10.49,10.49,0,0,1,1,.72,8.55,8.55,0,0,0-1,.78,1.54,1.54,0,0,0,0-.28A1.76,1.76,0,0,0,449.14,5.72Zm3.56-.93c-.18.17-.35.34-.51.51l-.09,0-.06,0c-.45-.13-.95-.26-1.47-.38l.1,0A12.41,12.41,0,0,1,452,4.39c-.6.16-1.11.33-1.59.49h0l-.09,0c-.42-.09-.87-.17-1.34-.25l-.17-.07q1-.43,2.1-.84l1,.28c.45.13.86.26,1.26.4Zm-5-.24-.09,0,.06-.05Zm.36.35,0,0a2.09,2.09,0,0,1,.26.26,1.48,1.48,0,0,1,.27.46c-.44.21-.84.42-1.19.64a9.22,9.22,0,0,0-.87-.6C447,5.41,447.48,5.15,448,4.89Zm5,1.17.28.2-.42.1Zm7-1.43.1.21h0L459.5,5l.31-.2Zm3.65.66c.43.22.82.44,1.17.67-.23.27-.43.54-.62.81,0,0,0,0,0,0a1.77,1.77,0,0,0-.43-1l-.23-.25.08-.12ZM462.91,5l-.06,0-.2-.11.28.13Zm.41.93a1.36,1.36,0,0,1-.14.78,2.55,2.55,0,0,1-.37.54A5.29,5.29,0,0,1,463.32,5.88ZM467,3.95A14.69,14.69,0,0,0,465.71,5l-.42.43-1-.43L464,4.88c.13-.17.27-.35.42-.52Zm-3.57.58-.1.09-.13,0Zm-1.36,0-1.42.23-.29-.31.64-.34Zm-5.74-1.82q1.47.36,2.74.75c.49.15,1,.3,1.4.46l-.46.2a7,7,0,0,0-.67-.52,3.74,3.74,0,0,1,.49.59q-.53.24-1,.48c-.4.2-.75.41-1.09.62l-.84.16-.18-.09c-.47-.21-1-.41-1.54-.6l-.43-.32.74-.28c.29-.1.6-.2.95-.3s.71-.2,1.15-.29c-.48.09-.88.18-1.27.28l-1.08.29-.62.19-.23-.17a10,10,0,0,1,1.45-1.24l.38-.26Zm-.44-.11-.56.31a15.48,15.48,0,0,0-1.42.92l-1.13-.77c.69-.23,1.41-.45,2.16-.67Zm-3.53.6q.58.49,1.11,1l0,0-1-.28-1.25-.3Zm-1.93.38c-.75.24-1.48.49-2.17.75L448,4.25a10.84,10.84,0,0,1,1-.65l.44-.25Zm-4.64-.14c.42-.18.88-.35,1.37-.52l.7.12,1.44.28-.56.26c-.37.18-.71.36-1,.54-.5-.18-1-.36-1.58-.53l1.41-.24L446,3.58l-.33-.1Zm-.73.07q-.54.21-1,.42l.41-.21.54-.24Zm-.76-.25.58.19-.69.25-1,.4-.1,0-.09,0,.24-.12-.28.11-.59-.18.55-.19-.6.17c-.43-.12-.88-.25-1.36-.36l-.27-.06.19-.07-.21.06-.78-.17c.54-.26,1.13-.51,1.74-.75C442.55,2.78,443.43,3,444.23,3.27ZM439.06,3l.88-.1-.73.28-.66-.11Zm-2,.27,1.41-.19.65.12c-.78.32-1.51.65-2.17,1a17.26,17.26,0,0,0-2.39,1.46l-.79-.27a10.24,10.24,0,0,1,1-1,14.35,14.35,0,0,1,1.21-.93Zm-3.73.6,2.41-.4c-.53.28-1,.57-1.46.86s-.84.57-1.22.85c-.39-.1-.8-.21-1.24-.3l-.66-.13A4.64,4.64,0,0,0,431,4.3Zm-3,.75-.53-.09.51-.1C430.41,4.48,430.42,4.54,430.42,4.6Zm-.09-.6,0,.16v.06l-.65.12Zm-3,1.08L427,5.3l-.16-.11ZM426.08,6l-.52-.46.26-.06c.16.13.31.25.44.38Zm-.58-.77-.24.06-.53-.43-.57-.42h0l.06,0q.4.22.74.44C425.15,4.94,425.33,5.06,425.5,5.19ZM412.64,6.83a8.56,8.56,0,0,0-.84.59.38.38,0,0,1,0-.09,1.48,1.48,0,0,1,.51-.64,4.69,4.69,0,0,1,1.12-.64,12,12,0,0,0-1.65.64c-.2.1-.38.2-.55.3a3.81,3.81,0,0,1,1.33-1.23,9.85,9.85,0,0,1,1.16-.6,8.34,8.34,0,0,1,.9.57l-.15.13A17.42,17.42,0,0,0,412.64,6.83Zm4.91-3-.12.06q-1.12.23-2.08.49c-.55.14-1.06.29-1.53.45l-.54-.21,1.06-.27q1.11-.28,2.29-.52l.7-.14Zm-1.73.59c.4-.12.82-.24,1.27-.35l-.42.23a14.06,14.06,0,0,0-1.6,1.08c-.27-.14-.56-.27-.87-.4C414.69,4.77,415.22,4.58,415.82,4.4Zm2.88.18.2.16-.41-.08Zm-1.2,2.49-.3-.3.27-.28a7.24,7.24,0,0,1,1.46-1.07l.48-.26.33.32-.55.3a8.22,8.22,0,0,0-1.36,1A4.11,4.11,0,0,0,417.49,7.07ZM420.22,6l-.1.06a8.78,8.78,0,0,0-1.3,1,1,1,0,0,1,.1-.31,3.49,3.49,0,0,1,.81-.94l.18-.14ZM419,4.82l.29.23-.87.35a14.54,14.54,0,0,0-1.77.91q-.33-.25-.73-.49c.39-.2.79-.4,1.24-.6s.84-.36,1.29-.53ZM420.36,7h0l-.13.2Zm2.36-1.19c.11-.14.23-.29.36-.43s.35-.36.55-.53l0,0c.2.2.39.41.57.62l-1.41.36Zm-1.29-2.17.66-.2q.61.52,1.15,1l-.38.25-.16.06c-.48.19-.9.37-1.29.56l-.06,0-.42-.12-.19-.14.43-.24-.47.2-.4-.27c.3-.13.62-.25,1-.37-.4.1-.75.21-1.08.32l-.69-.44C420.13,4.05,420.76,3.84,421.42,3.62Zm-3.59.93-.34-.06.33.06c-.52.18-1,.36-1.52.54a8.62,8.62,0,0,1,.9-.8l.54-.39.09.06.56.39Zm-4.62-1.3L415.51,3l.49-.05c.45.23.86.46,1.25.69l-.72.12q-1.22.22-2.39.47L413,4.49l-.48-.17-.24-.07.56-.27-.64.25c-.59-.18-1.23-.36-1.95-.52l-.14,0C411.12,3.53,412.15,3.39,413.21,3.26ZM401.57,6.09a2.35,2.35,0,0,1-.5,1.13c-.13-.15-.28-.3-.43-.45a9,9,0,0,0-1.1-.87c.19-.17.4-.35.63-.52l.6-.13.71-.14A2.66,2.66,0,0,1,401.57,6.09ZM397.88,6l-.13-.12.28-.06.05,0Zm-2.58.06-.43-.2.16-.17a7.44,7.44,0,0,1,.63-.54c.22.23.42.46.62.69Zm-25.37.82a11.16,11.16,0,0,0-2.5-1.56l.39-.1,1.51-.35a5.57,5.57,0,0,1,.75,1,2.16,2.16,0,0,1,.26.71l-.39.33Zm-10.82.45c-.09-.13-.18-.26-.28-.38l-.28-.32.16-.17a7.08,7.08,0,0,1,1.32-1,10.51,10.51,0,0,1,1.05.72A8.43,8.43,0,0,0,360,7ZM353.42,7a8.38,8.38,0,0,0-.78-.63,4.62,4.62,0,0,1,1.19-1.25,8.82,8.82,0,0,1,.85-.56,8.58,8.58,0,0,1,1.23.85l.09.09a17.71,17.71,0,0,0-2.09,1.14Zm-1.14,1.09a2.49,2.49,0,0,1,0-.51,2.14,2.14,0,0,1,.1.41Zm11.83-4-1.21-.34L362,3.51,363,3.15Q363.59,3.62,364.1,4.09Zm11.56,1.48-.09,0,0,0Zm-2.39-1.62q-1.87.31-3.65.65l-.07-.05A17,17,0,0,0,368,3.62l.12,0-.12,0-.63-.31.52.33-1,.23-1.08.29h0c.2-.14.42-.28.65-.42A13.47,13.47,0,0,1,367.88,3c.29-.13.6-.26.95-.38l.85-.28A28.26,28.26,0,0,1,373.27,3.95ZM360.68,5.16,361,5c.42.12.81.24,1.15.37l.24.1-.52.28C361.5,5.55,361.1,5.35,360.68,5.16Zm-.58-.27-.58-.24,1.11.26.15,0-.29.11Zm2.56.45-.06,0c-.45-.13-.95-.26-1.47-.38l.1,0c.31-.14.64-.27,1-.41l.14.09c.27.18.53.35.76.53ZM361,4.88h0l-.09,0c-.44-.09-.92-.18-1.41-.26l-.11,0q.84-.37,1.79-.73c.41.21.78.43,1.13.64C361.77,4.61,361.36,4.75,361,4.88Zm6.23.21-.22,0c-.38-.17-.79-.33-1.23-.49l-.34-.25h0l.58-.22c.29-.1.6-.2.95-.3l.92-.23a9.8,9.8,0,0,1,1.16.94l.11.11Zm-4.74-1.28c.73.22,1.39.45,2,.69l-.32.21-.16.06h0l-.5-.29c-.54-.29-1.14-.58-1.8-.86l.1,0Zm-1.2-.33,0,0,.06,0Zm-.52.17c-.69.23-1.36.46-2,.69l-.22-.08a10.88,10.88,0,0,1,1-.66l.51-.29Zm-2.53.9-.07,0,0,0Zm.46.3.09,0,.34.16.68.37-.12,0a15.08,15.08,0,0,0-1.57.79,8.88,8.88,0,0,0-.8-.63C357.71,5.32,358.17,5.08,358.67,4.85Zm5.87.31.34-.33,0,0c.2.2.39.41.57.62l-.35.09Zm6.63.68a10.32,10.32,0,0,0-1.28-1.06l1.25-.27c.66.12,1.24.25,1.78.39l.11,0-.35.18q-.78.41-1.42.83Zm2-1c-.61-.13-1.27-.25-2-.36l2.34-.45.39.22.23.15-1,.45Zm1.08-.37.17.11-.48.44-.42-.1C373.72,4.81,374,4.65,374.22,4.5ZM375,5l.37.27-.13.13h0l-.31-.1-.12,0Zm-.31.46.36.15c-.27.29-.54.58-.78.87l-.18.22A6.18,6.18,0,0,1,374.66,5.47Zm.11,1.89a7.9,7.9,0,0,1,.32-.85c.1-.23.22-.46.34-.69l.42.25a10.14,10.14,0,0,0-.94,1.21Zm4.37-.83c-.17-.16-.35-.32-.54-.48.42-.17.85-.34,1.3-.5,1-.34,2-.66,3.07-1l-1,.49a16.19,16.19,0,0,0-2,1.15c-.23.16-.44.32-.64.49ZM387,3.44l.32.13-1,.16.61-.28Zm-3.13.92,0,0c-.42.2-.81.4-1.17.6.28-.18.59-.36.92-.54ZM383,6.59a4.18,4.18,0,0,1,1.17-1.48,7.85,7.85,0,0,1,.71-.52c.28.13.54.27.78.4l-.18.08a13.7,13.7,0,0,0-2,1.17Zm2.16-2.19c.31-.19.64-.38,1-.56l.18,0,1.08-.21.9.38c-.59.17-1.09.35-1.56.54l-.68.28C385.76,4.65,385.45,4.53,385.11,4.4Zm1.88.11a11.93,11.93,0,0,1,1.3-.55l.5.22-.15.09a14.18,14.18,0,0,0-1.5,1h0c-.26-.14-.53-.27-.82-.41C386.52,4.76,386.74,4.64,387,4.52Zm6.16-1.1,1.11.39c.3.26.57.53.84.79l-.45.17c-.48.19-.9.37-1.3.56l-.06,0c-.45-.13-.95-.26-1.47-.38l.09,0a12.5,12.5,0,0,1,1.33-.51c-.6.16-1.11.33-1.59.49h0l-.09,0-.32-.06-.41-.21-.44-.2c.82-.35,1.72-.69,2.68-1Zm3.25.88h0l.13,0Zm-6.64.38,0,0c.33.18.63.36.92.55l-.35.15c-.38.17-.73.33-1,.5l-.79-.63.84-.41Zm.67,2.21c-.23-.22-.47-.43-.72-.65a7.87,7.87,0,0,1,1.18-.81l0,0a10.16,10.16,0,0,1,1,.75,8.4,8.4,0,0,0-1.25,1ZM391.65,5l0,0c.42.12.81.24,1.15.37l.24.1-.33.18C392.41,5.44,392,5.23,391.65,5Zm-2.08,1.88a6,6,0,0,1,.28.58c-.09-.13-.19-.25-.3-.38s-.23-.25-.36-.37l.17-.18Zm2.94-.18,0,0-.09,0Zm.75-.75.36-.28.18.09-.38.3Zm.64-.47a10.32,10.32,0,0,1,1.28-.72l.09,0,.07.07a13.22,13.22,0,0,0-1.23.75Zm-5.07-.93.28-.23.13.07Zm-.35.71q.29.37.54.74l0,0-.39.22a9.22,9.22,0,0,0-.87-.6Zm3.61,2.08.11,0-.26.36A3.27,3.27,0,0,1,392.09,7.37Zm4.36-2.55-.09-.07.55.31c.27.16.52.33.75.49l-.25.05C397.11,5.34,396.79,5.08,396.45,4.82Zm4.83-.19.1.21h0l-.62.11.31-.2Zm3.86.36a12.16,12.16,0,0,1,1.14.77,10.9,10.9,0,0,0-1.06,1.44L405.05,7a5.49,5.49,0,0,0-.76-.55,6.57,6.57,0,0,1,.61-1.16Zm-.61-.36c-.25.22-.49.44-.7.66s-.4.43-.58.64c-.24-.11-.5-.22-.78-.33a4.4,4.4,0,0,0-.39-.6l2.34-.43Zm-1.85,1.45a3.33,3.33,0,0,0-.18-.4,5.79,5.79,0,0,1,.62.4l-.33.43A2.77,2.77,0,0,0,402.67,6.08ZM404,7.42h0Zm3.62-1.74c.12-.21.26-.42.41-.63a9.52,9.52,0,0,1,1.08-1.25l.77-.11.13,0c.72.19,1.35.39,1.9.6-.59.24-1.14.49-1.65.75l-.67.35q-.8.26-1.54.53ZM412,4.38l.53.22c-.56.14-1.11.28-1.65.44C411.27,4.81,411.63,4.59,412,4.38Zm-2.44-.75-.32,0,.1-.09Zm-1.38.32A14.7,14.7,0,0,0,407,5l-.17.17c-.38-.21-.78-.42-1.22-.62l-.09,0,.14-.17Zm-4.14.46-2.21.36-.29-.31c.39-.22.81-.43,1.26-.64C403.28,4,403.69,4.21,404.08,4.4Zm-1.67-.77c-.42.16-.82.32-1.19.49a7,7,0,0,0-.67-.52,3.76,3.76,0,0,1,.49.59q-.53.24-1,.48c-.4.2-.75.41-1.09.62l-.3.06L397.93,5c-.36-.18-.77-.36-1.18-.53l.31-.18c.32-.17.67-.34,1.05-.51l.68-.16-.58.12.37-.15c.29-.12.6-.23.95-.34s.65-.2,1-.3Q401.54,3.27,402.41,3.63Zm-5.8-1.38,1-.27q1.45.4,2.71.84l.27.1c-.42.09-.8.19-1.15.29s-.74.22-1.08.33-.76.27-1.11.41l-.77.21-.22.07-1.13-.41L394,3.06Q395.23,2.65,396.61,2.25Zm-3,1,.24.2-.2-.06-.25-.07Zm-3.7,1-.34-.14c.21-.15.43-.3.68-.45a10.8,10.8,0,0,1,1.31-.67l1.15.33C391.68,3.57,390.74,3.88,389.86,4.19Zm-.76-1.5.64-.19.82.19.95.24a16.29,16.29,0,0,0-1.56.65l-.71.36L388,3.48l.74-.13-.77.11-.55-.19C387.92,3.08,388.49,2.88,389.1,2.69Zm-3.45,1c.32-.15.65-.29,1-.43l.09,0-.18.06c-.49.18-.93.36-1.34.55Zm-4.89-.48c.44.1.85.2,1.23.3a19.72,19.72,0,0,1,1.93.64l-.08,0c-1.55.34-3,.73-4.39,1.16l-1.19.4-.58-.42,0-.07a9.51,9.51,0,0,1,1.67-1.66c.22-.17.46-.34.71-.51Zm-.91-.2h0Zm-1.48.2,1.41-.19h0c-.33.18-.65.36-.94.54A15.56,15.56,0,0,0,377,4.94c-.24-.15-.5-.3-.77-.44l-.05,0,.08-.12-.11.1-.54-.27c.15-.17.31-.34.48-.51l.08-.08Zm-2.87.45-.32.24-.31-.14Zm-9.6-1.46c.66-.19,1.33-.37,2-.55.57.19,1.12.38,1.64.57l.08,0-1,.27c-.38.12-.74.25-1.08.37-.67.25-1.26.51-1.79.77l-.77.41c-.52-.37-1.05-.75-1.62-1.12C364.23,2.75,365,2.5,365.91,2.25Zm-6.44.44c.44-.12.91-.24,1.4-.35l.9-.19q.55.42,1.07.84h0l-.1,0-1.24.38-1-.21-.16-.06.46-.21-.51.19-1-.37Zm-.57.16.17.06-.25,0Zm-1.81.59q.75-.28,1.64-.54l.6.12.6.25-.68.31c-.38.18-.73.37-1.06.56-.5-.18-1-.35-1.56-.52Zm-.83.33c.55.2,1.06.39,1.53.6-.42.25-.8.51-1.14.76a14.33,14.33,0,0,0-1.56-.81Q355.61,4,356.25,3.78Zm-3,.07c.34.15.65.3.94.45a14,14,0,0,0-1.44.75c-.18.11-.35.22-.51.33a.37.37,0,0,1,0-.21l-.57.31-.21.07a5.08,5.08,0,0,0-.83-.39s0,0,0,0c0,.14,0,.23,0,.36a2.31,2.31,0,0,1,.26.22l-1,.36-.26-.15a8.3,8.3,0,0,1,.55-.87,9.49,9.49,0,0,1,1.08-1.25l.92-.13s0-.07,0-.11l-.75.09.39-.35C352.39,3.49,352.86,3.66,353.29,3.85Zm-8.44,2.23A3.91,3.91,0,0,0,344.24,5l1.63-.3a2.56,2.56,0,0,1,.3.21l.11.11-.28.27a10.15,10.15,0,0,0-1,1.22A2.76,2.76,0,0,0,344.85,6.08Zm-1.1,0a2.46,2.46,0,0,1-.57,1.22c-.11-.11-.23-.23-.37-.34a9.32,9.32,0,0,0-1.3-.89,8.46,8.46,0,0,1,.83-.7l.6-.13.71-.14A2.64,2.64,0,0,1,343.76,6.09Zm-6.27,0a9,9,0,0,0-.86-.38,7.13,7.13,0,0,1,.54-.82l.19-.1.09,0,.12.11q.48.49.9,1ZM320,6.75a2.75,2.75,0,0,0-.3-.25q.77-.36,1.63-.69l-.5.32C320.58,6.34,320.3,6.54,320,6.75Zm-4,.94a4.41,4.41,0,0,1,.89-1.91l.17-.21c.24.1.46.2.64.31-.2.16-.39.31-.57.47A6.67,6.67,0,0,0,316,7.69Zm7.21-4.36.71.18-.61.2-.84.31c-.53.21-1,.42-1.45.64l-.74.39c.35-.25.71-.51,1.13-.76S322.6,3.64,323.26,3.33Zm-1.62,2.05c-.59.19-1.15.38-1.69.58a8.85,8.85,0,0,1,1.64-1.29A12.52,12.52,0,0,1,322.77,4l.71-.32.51-.2.18,0c.48.13.92.27,1.32.41l-.11,0-.84.29c-.53.2-1,.4-1.45.6l-.26.13Zm3.17-1.07.71-.3,0,0,.54.2-.08,0q-1,.23-2,.48C324.26,4.58,324.52,4.44,324.81,4.31Zm1.26,0,0,0c-.42.2-.81.4-1.17.6.28-.18.59-.36.92-.54Zm-.93,2.24a4.18,4.18,0,0,1,1.17-1.48,7.83,7.83,0,0,1,.71-.52c.28.13.54.27.78.4l-.18.08a13.68,13.68,0,0,0-2,1.17ZM327.3,4.4c.31-.19.64-.38,1-.56l.18,0,.5-.1,1.06.39c-.41.13-.78.27-1.14.41l-.68.28C327.95,4.65,327.63,4.53,327.3,4.4Zm1.26-.68.22-.1.13,0Zm.61.79c.28-.14.58-.27.92-.41l.59.25a14,14,0,0,0-1.37.93h0c-.26-.14-.53-.27-.82-.41C328.7,4.76,328.93,4.64,329.17,4.52Zm2.48.29L332,5l.7.38-.13.05-.18.08a3.49,3.49,0,0,0-.34-.3,4.56,4.56,0,0,0-.39-.27l-.09-.05h0Zm3.1.94c-.36-.2-.76-.4-1.17-.6l.28-.14c.42.12.81.24,1.15.37l.24.1Zm-1.37-.69-.4-.19-.48-.2,1,.24.15,0Zm-1.29,1a1.43,1.43,0,0,1-.14.59,2.39,2.39,0,0,1-.26.41l-.32-.33.23-.25A6,6,0,0,1,332.1,6.07Zm.48-.35.36-.22a10.48,10.48,0,0,1,1,.72A8.56,8.56,0,0,0,333,7a1.54,1.54,0,0,0,0-.28A1.76,1.76,0,0,0,332.58,5.72Zm3.56-.93c-.18.17-.35.34-.51.51l-.09,0-.06,0c-.45-.13-.95-.26-1.47-.38l.1,0a12.41,12.41,0,0,1,1.33-.51c-.6.16-1.11.33-1.59.49h0l-.09,0c-.42-.09-.87-.17-1.34-.25l-.17-.07q1-.43,2.1-.84l1,.28c.45.13.86.26,1.26.4Zm-5-.24-.09,0,.06-.05Zm.36.35,0,0a2.09,2.09,0,0,1,.26.26,1.48,1.48,0,0,1,.27.46c-.44.21-.84.42-1.19.64a9.22,9.22,0,0,0-.87-.6C330.43,5.41,330.93,5.15,331.47,4.89Zm5,1.17.28.2-.42.1Zm7-1.43.1.21h0l-.62.11.31-.2Zm3.65.66c.43.22.82.44,1.17.67-.23.27-.43.54-.62.81,0,0,0,0,0,0a1.77,1.77,0,0,0-.43-1L347,5.45l.08-.12ZM346.35,5l-.06,0-.2-.11.28.13Zm.41.93a1.36,1.36,0,0,1-.14.78,2.55,2.55,0,0,1-.37.54A5.29,5.29,0,0,1,346.76,5.88Zm3.64-1.93A14.68,14.68,0,0,0,349.15,5l-.42.43-1-.43-.37-.14c.13-.17.27-.35.42-.52Zm-3.57.58-.1.09-.13,0Zm-1.36,0-1.42.23-.29-.31.64-.34Zm-5.74-1.82q1.47.36,2.74.75c.49.15,1,.3,1.4.46l-.46.2a7,7,0,0,0-.67-.52,3.74,3.74,0,0,1,.49.59q-.53.24-1,.48c-.4.2-.75.41-1.09.62l-.84.16-.18-.09c-.47-.21-1-.41-1.54-.6l-.43-.32.74-.28c.29-.1.6-.2.95-.3s.71-.2,1.15-.29c-.48.09-.88.18-1.27.28l-1.08.29-.62.19-.23-.17a10,10,0,0,1,1.45-1.24l.38-.26Zm-.44-.11-.56.31a15.49,15.49,0,0,0-1.42.92l-1.13-.77c.69-.23,1.41-.45,2.16-.67Zm-3.53.6q.58.49,1.11,1l0,0-1-.28-1.25-.3Zm-1.93.38c-.75.24-1.48.49-2.17.75l-.22-.08a10.85,10.85,0,0,1,1-.65l.44-.25Zm-4.64-.14c.42-.18.88-.35,1.37-.52l.7.12,1.44.28-.56.26c-.37.18-.71.36-1,.54-.5-.18-1-.36-1.58-.53l1.41-.24-1.49.22-.33-.1Zm-.73.07q-.54.21-1,.42l.41-.21.54-.24Zm-.76-.25.58.19-.69.25-1,.4-.1,0-.09,0,.24-.12-.28.11-.59-.18.55-.19-.6.17c-.43-.12-.88-.25-1.36-.36l-.27-.06.19-.07-.21.06-.78-.17c.54-.26,1.13-.51,1.74-.75C326,2.78,326.88,3,327.68,3.27ZM322.51,3l.88-.1-.73.28L322,3.06Zm-2,.27L322,3.07l.65.12c-.78.32-1.51.65-2.17,1a17.26,17.26,0,0,0-2.39,1.46l-.79-.27a10.24,10.24,0,0,1,1-1,14.35,14.35,0,0,1,1.21-.93Zm-3.73.6,2.41-.4c-.53.28-1,.57-1.46.86s-.84.57-1.22.85c-.39-.1-.8-.21-1.24-.3l-.66-.13a4.64,4.64,0,0,0-.21-.44Zm-3,.75-.53-.09.51-.1C313.86,4.48,313.86,4.54,313.87,4.6Zm-.09-.6,0,.16v.06l-.65.12Zm-3,1.08-.34.22-.16-.11ZM309.53,6,309,5.5l.26-.06c.16.13.31.25.44.38Zm-.58-.77-.24.06-.53-.43-.57-.42h0l.06,0q.4.22.74.44C308.6,4.94,308.78,5.06,308.95,5.19ZM296.09,6.83a8.56,8.56,0,0,0-.84.59.38.38,0,0,1,0-.09,1.48,1.48,0,0,1,.51-.64,4.69,4.69,0,0,1,1.12-.64,12,12,0,0,0-1.65.64c-.2.1-.38.2-.55.3A3.81,3.81,0,0,1,296,5.76a9.85,9.85,0,0,1,1.16-.6,8.34,8.34,0,0,1,.9.57l-.15.13A17.42,17.42,0,0,0,296.09,6.83Zm4.91-3-.12.06q-1.12.23-2.08.49c-.55.14-1.06.29-1.53.45l-.54-.21,1.06-.27q1.11-.28,2.29-.52l.7-.14Zm-1.73.59c.4-.12.82-.24,1.27-.35l-.42.23a14.05,14.05,0,0,0-1.6,1.08c-.27-.14-.56-.27-.87-.4C298.13,4.77,298.67,4.58,299.27,4.4Zm2.88.18.2.16-.41-.08Zm-1.2,2.49-.3-.3.27-.28a7.24,7.24,0,0,1,1.46-1.07l.48-.26.33.32-.55.3a8.22,8.22,0,0,0-1.36,1A4.11,4.11,0,0,0,300.94,7.07ZM303.66,6l-.1.06a8.78,8.78,0,0,0-1.3,1,1,1,0,0,1,.1-.31,3.49,3.49,0,0,1,.81-.94l.18-.14Zm-1.23-1.16.29.23-.87.35a14.54,14.54,0,0,0-1.77.91q-.33-.25-.73-.49c.39-.2.79-.4,1.24-.6s.84-.36,1.29-.53ZM303.8,7h0l-.13.2Zm2.36-1.19c.11-.14.23-.29.36-.43s.35-.36.55-.53l0,0c.2.2.39.41.57.62l-1.41.36Zm-1.29-2.17.66-.2q.61.52,1.15,1l-.38.25-.16.06c-.48.19-.9.37-1.29.56l-.06,0-.42-.12-.19-.14.43-.24-.47.2-.4-.27c.3-.13.62-.25,1-.37-.4.1-.75.21-1.08.32L303,4.27C303.58,4.05,304.21,3.84,304.87,3.62Zm-3.59.93-.34-.06.33.06c-.52.18-1,.36-1.52.54a8.63,8.63,0,0,1,.9-.8l.54-.39.09.06.56.39Zm-4.62-1.3L299,3l.49-.05c.45.23.86.46,1.25.69l-.72.12q-1.22.22-2.39.47l-1.16.27L296,4.33l-.24-.07.56-.27-.64.25c-.59-.18-1.23-.36-1.95-.52l-.14,0C294.57,3.53,295.6,3.39,296.66,3.26ZM285,6.09a2.35,2.35,0,0,1-.5,1.13c-.13-.15-.28-.3-.43-.45A9,9,0,0,0,283,5.9c.19-.17.4-.35.63-.52l.6-.13.71-.14A2.66,2.66,0,0,1,285,6.09ZM281.33,6l-.13-.12.28-.06.05,0Zm-2.58.06-.43-.2.16-.17a7.44,7.44,0,0,1,.63-.54c.22.23.42.46.62.69Zm-25.37.82a11.16,11.16,0,0,0-2.5-1.56l.39-.1,1.51-.35a5.57,5.57,0,0,1,.75,1,2.16,2.16,0,0,1,.26.71l-.39.33Zm-10.82.45c-.09-.13-.18-.26-.28-.38L242,6.66l.16-.17a7.08,7.08,0,0,1,1.32-1,10.51,10.51,0,0,1,1.05.72,8.43,8.43,0,0,0-1,.82ZM236.86,7a8.39,8.39,0,0,0-.78-.63,4.62,4.62,0,0,1,1.19-1.25,8.83,8.83,0,0,1,.85-.56,8.58,8.58,0,0,1,1.23.85l.09.09a17.71,17.71,0,0,0-2.09,1.14Zm10.69-2.9-1.21-.34-.93-.23,1.06-.37Q247,3.62,247.55,4.09Zm11.56,1.48-.09,0,0,0Zm-2.39-1.62q-1.87.31-3.65.65L253,4.55a17,17,0,0,0-1.58-.93l.12,0-.12,0-.63-.31.52.33-1,.23-1.08.29h0c.2-.14.42-.28.65-.42A13.47,13.47,0,0,1,251.32,3c.29-.13.6-.26.95-.38l.85-.28A28.26,28.26,0,0,1,256.72,3.95ZM244.13,5.16l.3-.14c.42.12.81.24,1.15.37l.24.1-.52.28C244.95,5.55,244.55,5.35,244.13,5.16Zm-.58-.27L243,4.65l1.11.26.15,0-.29.11Zm2.56.45-.06,0c-.45-.13-.95-.26-1.47-.38l.1,0c.31-.14.64-.27,1-.41l.14.09c.27.18.53.35.76.53Zm-1.69-.45h0l-.09,0c-.44-.09-.92-.18-1.41-.26l-.11,0q.84-.37,1.79-.73c.41.21.78.43,1.13.64C245.22,4.61,244.8,4.75,244.41,4.88Zm6.23.21-.22,0c-.38-.17-.79-.33-1.23-.49l-.34-.25h0l.58-.22c.29-.1.6-.2.95-.3l.92-.23a9.81,9.81,0,0,1,1.16.94l.11.11ZM245.9,3.81c.73.22,1.39.45,2,.69l-.32.21-.16.06h0l-.5-.29c-.54-.29-1.14-.58-1.8-.86l.1,0Zm-1.2-.33,0,0,.06,0Zm-.52.17c-.69.23-1.36.46-2,.69L242,4.27a10.88,10.88,0,0,1,1-.66l.51-.29Zm-2.53.9-.07,0,0,0Zm.46.3.09,0,.34.16.68.37-.12,0a15.08,15.08,0,0,0-1.57.79,8.88,8.88,0,0,0-.8-.63C241.16,5.32,241.62,5.08,242.11,4.85Zm5.87.31.34-.33,0,0c.2.2.39.41.57.62l-.35.09Zm6.63.68a10.33,10.33,0,0,0-1.28-1.06l1.25-.27c.66.12,1.24.25,1.78.39l.11,0-.35.18q-.78.41-1.42.83Zm2-1c-.61-.13-1.27-.25-2-.36l2.34-.45.39.22.23.15-1,.45Zm1.08-.37.17.11-.48.44-.42-.1C257.16,4.81,257.4,4.65,257.66,4.5Zm.75.51.37.27-.13.13h0l-.31-.1-.12,0Zm-.31.46.36.15c-.27.29-.54.58-.78.87l-.18.22A6.18,6.18,0,0,1,258.11,5.47Zm.11,1.89a7.9,7.9,0,0,1,.32-.85c.1-.23.22-.46.34-.69l.42.25a10.14,10.14,0,0,0-.94,1.21Zm4.37-.83c-.17-.16-.35-.32-.54-.48.42-.17.85-.34,1.3-.5,1-.34,2-.66,3.07-1l-1,.49a16.19,16.19,0,0,0-2,1.15c-.23.16-.44.32-.64.49Zm7.87-3.09.32.13-1,.16.61-.28Zm-3.13.92,0,0c-.42.2-.81.4-1.17.6.28-.18.59-.36.92-.54Zm-.93,2.24a4.18,4.18,0,0,1,1.17-1.48,7.85,7.85,0,0,1,.71-.52c.28.13.54.27.78.4l-.18.08a13.7,13.7,0,0,0-2,1.17Zm2.16-2.19c.31-.19.64-.38,1-.56l.18,0,1.08-.21.9.38c-.59.17-1.09.35-1.56.54l-.68.28C269.21,4.65,268.89,4.53,268.56,4.4Zm1.88.11a11.93,11.93,0,0,1,1.3-.55l.5.22-.15.09a14.17,14.17,0,0,0-1.5,1h0c-.26-.14-.53-.27-.82-.41C270,4.76,270.19,4.64,270.44,4.52Zm6.16-1.1,1.11.39c.3.26.57.53.84.79l-.45.17c-.48.19-.9.37-1.3.56l-.06,0c-.45-.13-.95-.26-1.47-.38l.09,0a12.5,12.5,0,0,1,1.33-.51c-.6.16-1.11.33-1.59.49h0l-.09,0-.32-.06-.41-.21-.44-.2c.82-.35,1.72-.69,2.68-1Zm3.25.88h0l.13,0Zm-6.64.38,0,0c.33.18.63.36.92.55l-.35.15c-.38.17-.73.33-1,.5L272,5.26l.84-.41Zm.67,2.21c-.23-.22-.47-.43-.72-.65a7.86,7.86,0,0,1,1.18-.81l0,0a10.16,10.16,0,0,1,1,.75,8.4,8.4,0,0,0-1.25,1ZM275.1,5l0,0c.42.12.81.24,1.15.37l.24.1-.33.18C275.85,5.44,275.49,5.23,275.1,5ZM273,6.91a6,6,0,0,1,.28.58c-.09-.13-.19-.25-.3-.38s-.23-.25-.36-.37l.17-.18ZM276,6.73l0,0-.09,0Zm.75-.75.36-.28.18.09-.38.3Zm.64-.47a10.32,10.32,0,0,1,1.28-.72l.09,0,.07.07a13.22,13.22,0,0,0-1.23.75Zm-5.07-.93.28-.23.13.07Zm-.35.71q.29.37.54.74l0,0-.39.22a9.22,9.22,0,0,0-.87-.6Zm3.61,2.08.11,0-.26.36A3.27,3.27,0,0,1,275.54,7.37Zm4.36-2.55-.09-.07.55.31c.27.16.52.33.75.49l-.25.05C280.56,5.34,280.24,5.08,279.9,4.82Zm4.83-.19.1.21h0l-.62.11.31-.2Zm3.86.36a12.15,12.15,0,0,1,1.14.77,10.89,10.89,0,0,0-1.06,1.44L288.5,7a5.49,5.49,0,0,0-.76-.55,6.57,6.57,0,0,1,.61-1.16ZM288,4.63c-.25.22-.49.44-.7.66s-.4.43-.58.64c-.24-.11-.5-.22-.78-.33a4.4,4.4,0,0,0-.39-.6l2.34-.43Zm-1.85,1.45a3.33,3.33,0,0,0-.18-.4,5.79,5.79,0,0,1,.62.4l-.33.43A2.77,2.77,0,0,0,286.12,6.08Zm1.35,1.34h0Zm3.62-1.74c.12-.21.26-.42.41-.63a9.52,9.52,0,0,1,1.08-1.25l.77-.11.13,0c.72.19,1.35.39,1.9.6-.59.24-1.14.49-1.65.75l-.67.35q-.8.26-1.54.53Zm4.4-1.31.53.22c-.56.14-1.11.28-1.65.44C294.71,4.81,295.08,4.59,295.49,4.38ZM293,3.62l-.32,0,.1-.09Zm-1.38.32A14.7,14.7,0,0,0,290.42,5l-.17.17c-.38-.21-.78-.42-1.22-.62l-.09,0,.14-.17Zm-4.14.46-2.21.36L285,4.46c.39-.22.81-.43,1.26-.64C286.73,4,287.14,4.21,287.52,4.4Zm-1.67-.77c-.42.16-.82.32-1.19.49a7,7,0,0,0-.67-.52,3.76,3.76,0,0,1,.49.59q-.53.24-1,.48c-.4.2-.75.41-1.09.62l-.3.06L281.38,5c-.36-.18-.77-.36-1.18-.53l.31-.18c.32-.17.67-.34,1.05-.51l.68-.16-.58.12.37-.15c.29-.12.6-.23.95-.34s.65-.2,1-.3Q285,3.27,285.86,3.63Zm-5.8-1.38L281,2q1.45.4,2.71.84l.27.1c-.42.09-.8.19-1.15.29s-.74.22-1.08.33-.76.27-1.11.41l-.77.21-.22.07-1.13-.41-1.12-.76Q278.68,2.65,280.05,2.25Zm-3,1,.24.2-.2-.06-.25-.07Zm-3.7,1L273,4.05c.21-.15.43-.3.68-.45A10.8,10.8,0,0,1,275,2.93l1.15.33C275.12,3.57,274.19,3.88,273.31,4.19Zm-.76-1.5.64-.19.82.19.95.24a16.29,16.29,0,0,0-1.56.65l-.71.36-1.24-.46.74-.13-.77.11-.55-.19C271.37,3.08,271.93,2.88,272.55,2.69Zm-3.45,1c.32-.15.65-.29,1-.43l.09,0-.18.06c-.49.18-.93.36-1.34.55Zm-4.89-.48c.44.1.85.2,1.23.3a19.72,19.72,0,0,1,1.93.64l-.08,0c-1.55.34-3,.73-4.39,1.16l-1.19.4-.58-.42,0-.07a9.51,9.51,0,0,1,1.67-1.66c.22-.17.46-.34.71-.51Zm-.91-.2h0Zm-1.48.2,1.41-.19h0c-.33.18-.65.36-.94.54a15.56,15.56,0,0,0-1.84,1.33c-.24-.15-.5-.3-.77-.44l-.05,0,.08-.12-.11.1-.54-.27c.15-.17.31-.34.48-.51l.08-.08Zm-2.87.45-.32.24-.31-.14Zm-9.6-1.46c.66-.19,1.33-.37,2-.55.57.19,1.12.38,1.64.57l.08,0-1,.27c-.38.12-.74.25-1.08.37-.67.25-1.26.51-1.79.77l-.77.41c-.52-.37-1.05-.75-1.62-1.12C247.68,2.75,248.49,2.5,249.35,2.25Zm-6.44.44c.44-.12.91-.24,1.4-.35l.9-.19q.55.42,1.07.84h0l-.1,0-1.24.38-1-.21-.16-.06.46-.21-.51.19-1-.37Zm-.57.16.17.06-.25,0Zm-1.81.59q.75-.28,1.64-.54l.6.12.6.25-.68.31c-.38.18-.73.37-1.06.56-.5-.18-1-.35-1.56-.52Zm-.83.33c.55.2,1.06.39,1.53.6-.42.25-.8.51-1.14.76a14.34,14.34,0,0,0-1.56-.81Q239.06,4,239.7,3.78Zm-5-.65a18.62,18.62,0,0,1,2,.72c.34.15.65.3.94.45a14,14,0,0,0-1.44.75,8.57,8.57,0,0,0-1,.69l-.35-.22h0c0-.11-.07-.23,0-.35l-.32.17-.44-.19s0,0,0,0c0,.14,0,.23,0,.36l0,0c-.55.18-1.08.37-1.58.56l-.26-.15a8.3,8.3,0,0,1,.55-.87,9.49,9.49,0,0,1,1.08-1.25l.92-.13s0-.07,0-.11l-.75.09.43-.39.18-.16Zm-.54,3.69-.15.25,0,0-.33-.26a4.83,4.83,0,0,1,.45-.55c.14-.15.24-.28.35-.41l.25.3A4.56,4.56,0,0,0,234.2,6.83Zm-6.75-.75A3.91,3.91,0,0,0,226.84,5l1.63-.3a2.56,2.56,0,0,1,.3.21l.11.11-.28.27a10.15,10.15,0,0,0-1,1.22A2.76,2.76,0,0,0,227.45,6.08Zm-1.1,0a2.46,2.46,0,0,1-.57,1.22c-.11-.11-.23-.23-.37-.34a9.32,9.32,0,0,0-1.3-.89,8.46,8.46,0,0,1,.83-.7l.6-.13.71-.14A2.64,2.64,0,0,1,226.35,6.09Zm-6.27,0a9,9,0,0,0-.86-.38,7.14,7.14,0,0,1,.54-.82l.19-.1.09,0,.12.11q.48.49.9,1Zm-17.44.67a2.75,2.75,0,0,0-.3-.25q.77-.36,1.63-.69l-.5.32C203.17,6.34,202.9,6.54,202.64,6.75Zm-4,.94a4.41,4.41,0,0,1,.89-1.91l.17-.21c.24.1.46.2.64.31-.2.16-.39.31-.57.47A6.67,6.67,0,0,0,198.64,7.69Zm7.21-4.36.71.18-.61.2-.84.31c-.53.21-1,.42-1.45.64l-.74.39c.35-.25.71-.51,1.13-.76S205.2,3.64,205.85,3.33Zm-1.62,2.05c-.59.19-1.15.38-1.69.58a8.85,8.85,0,0,1,1.64-1.29A12.52,12.52,0,0,1,205.37,4l.71-.32.51-.2.18,0c.48.13.92.27,1.32.41L208,4l-.84.29c-.53.2-1,.4-1.45.6l-.26.13Zm3.17-1.07.71-.3,0,0,.54.2-.08,0q-1,.23-2,.48C206.86,4.58,207.12,4.44,207.4,4.31Zm1.26,0,0,0c-.42.2-.81.4-1.17.6.28-.18.59-.36.92-.54Zm-.93,2.24a4.18,4.18,0,0,1,1.17-1.48,7.83,7.83,0,0,1,.71-.52c.28.13.54.27.78.4l-.18.08a13.68,13.68,0,0,0-2,1.17Zm2.16-2.19c.31-.19.64-.38,1-.56l.18,0,.5-.1,1.06.39c-.41.13-.78.27-1.14.41l-.68.28C210.54,4.65,210.23,4.53,209.89,4.4Zm1.26-.68.22-.1.13,0Zm.61.79c.28-.14.58-.27.92-.41l.59.25a14,14,0,0,0-1.37.93h0c-.26-.14-.53-.27-.82-.41C211.3,4.76,211.52,4.64,211.77,4.52Zm2.48.29.32.16.7.38-.13.05-.18.08a3.49,3.49,0,0,0-.34-.3,4.56,4.56,0,0,0-.39-.27l-.09-.05h0Zm3.1.94c-.36-.2-.76-.4-1.17-.6l.28-.14c.42.12.81.24,1.15.37l.24.1ZM216,5.06l-.4-.19-.48-.2,1,.24.15,0Zm-1.29,1a1.43,1.43,0,0,1-.14.59,2.39,2.39,0,0,1-.26.41L214,6.74l.23-.25A6,6,0,0,1,214.7,6.07Zm.48-.35.36-.22a10.48,10.48,0,0,1,1,.72,8.56,8.56,0,0,0-1,.78,1.54,1.54,0,0,0,0-.28A1.76,1.76,0,0,0,215.18,5.72Zm3.56-.93c-.18.17-.35.34-.51.51l-.09,0-.06,0c-.45-.13-.95-.26-1.47-.38l.1,0A12.41,12.41,0,0,1,218,4.39c-.6.16-1.11.33-1.59.49h0l-.09,0c-.42-.09-.87-.17-1.34-.25l-.17-.07q1-.43,2.1-.84l1,.28c.45.13.86.26,1.26.4Zm-5-.24-.09,0,.06-.05Zm.36.35,0,0a2.09,2.09,0,0,1,.26.26,1.48,1.48,0,0,1,.27.46c-.44.21-.84.42-1.19.64a9.22,9.22,0,0,0-.87-.6C213,5.41,213.53,5.15,214.07,4.89Zm5,1.17.28.2-.42.1Zm7-1.43.1.21h0l-.62.11.31-.2Zm3.65.66c.43.22.82.44,1.17.67-.23.27-.43.54-.62.81,0,0,0,0,0,0a1.77,1.77,0,0,0-.43-1l-.23-.25.08-.12ZM229,5l-.06,0-.2-.11.28.13Zm.41.93a1.36,1.36,0,0,1-.14.78,2.55,2.55,0,0,1-.37.54A5.29,5.29,0,0,1,229.36,5.88ZM233,3.95A14.68,14.68,0,0,0,231.75,5l-.42.43-1-.43L230,4.88c.13-.17.27-.35.42-.52Zm-3.57.58-.1.09-.13,0Zm-1.36,0-1.42.23-.29-.31.64-.34Zm-5.74-1.82q1.47.36,2.74.75c.49.15,1,.3,1.4.46l-.46.2a7,7,0,0,0-.67-.52,3.74,3.74,0,0,1,.49.59q-.53.24-1,.48c-.4.2-.75.41-1.09.62l-.84.16-.18-.09c-.47-.21-1-.41-1.54-.6l-.43-.32.74-.28c.29-.1.6-.2.95-.3s.71-.2,1.15-.29c-.48.09-.88.18-1.27.28l-1.08.29-.62.19-.23-.17a10,10,0,0,1,1.45-1.24l.38-.26Zm-.44-.11-.56.31a15.49,15.49,0,0,0-1.42.92l-1.13-.77c.69-.23,1.41-.45,2.16-.67Zm-3.53.6q.58.49,1.11,1l0,0-1-.28-1.25-.3Zm-1.93.38c-.75.24-1.48.49-2.17.75L214,4.25a10.85,10.85,0,0,1,1-.65l.44-.25Zm-4.64-.14c.42-.18.88-.35,1.37-.52l.7.12,1.44.28-.56.26c-.37.18-.71.36-1,.54-.5-.18-1-.36-1.58-.53l1.41-.24L212,3.58l-.33-.1Zm-.73.07q-.54.21-1,.42l.41-.21.54-.24Zm-.76-.25.58.19-.69.25-1,.4-.1,0-.09,0,.24-.12-.28.11-.59-.18.55-.19-.6.17c-.43-.12-.88-.25-1.36-.36l-.27-.06.19-.07-.21.06-.78-.17c.54-.26,1.13-.51,1.74-.75C208.6,2.78,209.47,3,210.28,3.27ZM205.11,3l.88-.1-.73.28-.66-.11Zm-2,.27,1.41-.19.65.12c-.78.32-1.51.65-2.17,1a17.26,17.26,0,0,0-2.39,1.46l-.79-.27a10.24,10.24,0,0,1,1-1,14.35,14.35,0,0,1,1.21-.93Zm-3.73.6,2.41-.4c-.53.28-1,.57-1.46.86s-.84.57-1.22.85c-.39-.1-.8-.21-1.24-.3l-.66-.13A4.64,4.64,0,0,0,197,4.3Zm-3,.75-.53-.09.51-.1C196.45,4.48,196.46,4.54,196.46,4.6Zm-.09-.6,0,.16v.06l-.65.12Zm-3,1.08L193,5.3l-.16-.11ZM192.13,6l-.52-.46.26-.06c.16.13.31.25.44.38Zm-.58-.77-.24.06-.53-.43-.57-.42h0l.06,0q.4.22.74.44C191.19,4.94,191.37,5.06,191.55,5.19ZM178.69,6.83a8.56,8.56,0,0,0-.84.59.38.38,0,0,1,0-.09,1.48,1.48,0,0,1,.51-.64,4.69,4.69,0,0,1,1.12-.64,12,12,0,0,0-1.65.64c-.2.1-.38.2-.55.3a3.81,3.81,0,0,1,1.33-1.23,9.85,9.85,0,0,1,1.16-.6,8.34,8.34,0,0,1,.9.57l-.15.13A17.42,17.42,0,0,0,178.69,6.83Zm4.91-3-.12.06q-1.12.23-2.08.49c-.55.14-1.06.29-1.53.45l-.54-.21,1.06-.27q1.11-.28,2.29-.52l.7-.14Zm-1.73.59c.4-.12.82-.24,1.27-.35l-.42.23a14.05,14.05,0,0,0-1.6,1.08c-.27-.14-.56-.27-.87-.4C180.73,4.77,181.26,4.58,181.86,4.4Zm2.88.18.2.16-.41-.08Zm-1.2,2.49-.3-.3.27-.28A7.24,7.24,0,0,1,185,5.42l.48-.26.33.32-.55.3a8.22,8.22,0,0,0-1.36,1A4.11,4.11,0,0,0,183.54,7.07ZM186.26,6l-.1.06a8.78,8.78,0,0,0-1.3,1,1,1,0,0,1,.1-.31,3.49,3.49,0,0,1,.81-.94l.18-.14ZM185,4.82l.29.23-.87.35a14.54,14.54,0,0,0-1.77.91q-.33-.25-.73-.49c.39-.2.79-.4,1.24-.6s.84-.36,1.29-.53ZM186.4,7h0l-.13.2Zm2.36-1.19c.11-.14.23-.29.36-.43s.35-.36.55-.53l0,0c.2.2.39.41.57.62l-1.41.36Zm-1.29-2.17.66-.2q.61.52,1.15,1l-.38.25-.16.06c-.48.19-.9.37-1.29.56l-.06,0L187,5.2l-.19-.14.43-.24-.47.2-.4-.27c.3-.13.62-.25,1-.37-.4.1-.75.21-1.08.32l-.69-.44C186.18,4.05,186.8,3.84,187.47,3.62Zm-3.59.93-.34-.06.33.06c-.52.18-1,.36-1.52.54a8.63,8.63,0,0,1,.9-.8l.54-.39.09.06.56.39Zm-4.62-1.3L181.56,3l.49-.05c.45.23.86.46,1.25.69l-.72.12q-1.22.22-2.39.47L179,4.49l-.48-.17-.24-.07.56-.27-.64.25c-.59-.18-1.23-.36-1.95-.52l-.14,0C177.16,3.53,178.19,3.39,179.25,3.26ZM167.62,6.09a2.35,2.35,0,0,1-.5,1.13c-.13-.15-.28-.3-.43-.45a9,9,0,0,0-1.1-.87c.19-.17.4-.35.63-.52l.6-.13.71-.14A2.66,2.66,0,0,1,167.62,6.09ZM163.93,6l-.13-.12.28-.06.05,0Zm-2.58.06-.43-.2.16-.17a7.44,7.44,0,0,1,.63-.54c.22.23.42.46.62.69ZM136,6.91a11.16,11.16,0,0,0-2.5-1.56l.39-.1,1.51-.35a5.57,5.57,0,0,1,.75,1,2.16,2.16,0,0,1,.26.71l-.39.33Zm-10.82.45c-.09-.13-.18-.26-.28-.38l-.28-.32.16-.17a7.08,7.08,0,0,1,1.32-1,10.51,10.51,0,0,1,1.05.72,8.43,8.43,0,0,0-1,.82ZM119.46,7a8.39,8.39,0,0,0-.78-.63,4.62,4.62,0,0,1,1.19-1.25,8.83,8.83,0,0,1,.85-.56A8.58,8.58,0,0,1,122,5.4l.09.09A17.71,17.71,0,0,0,120,6.63Zm-1.14,1.09a2.49,2.49,0,0,1,0-.51,2.14,2.14,0,0,1,.1.41Zm11.83-4-1.21-.34L128,3.51l1.06-.37Q129.64,3.62,130.15,4.09Zm11.56,1.48-.09,0,0,0Zm-2.39-1.62q-1.87.31-3.65.65l-.07-.05A17,17,0,0,0,134,3.62l.12,0-.12,0-.63-.31.52.33-1,.23-1.08.29h0c.2-.14.42-.28.65-.42A13.47,13.47,0,0,1,133.92,3c.29-.13.6-.26.95-.38l.85-.28A28.26,28.26,0,0,1,139.32,3.95ZM126.72,5.16,127,5c.42.12.81.24,1.15.37l.24.1-.52.28C127.54,5.55,127.14,5.35,126.72,5.16Zm-.58-.27-.58-.24,1.11.26.15,0-.29.11Zm2.56.45-.06,0c-.45-.13-.95-.26-1.47-.38l.1,0c.31-.14.64-.27,1-.41l.14.09c.27.18.53.35.76.53ZM127,4.88h0l-.09,0c-.44-.09-.92-.18-1.41-.26l-.11,0q.84-.37,1.79-.73c.41.21.78.43,1.13.64C127.81,4.61,127.4,4.75,127,4.88Zm6.23.21-.22,0c-.38-.17-.79-.33-1.23-.49l-.34-.25h0l.58-.22c.29-.1.6-.2.95-.3l.92-.23a9.81,9.81,0,0,1,1.16.94l.11.11ZM128.5,3.81c.73.22,1.39.45,2,.69l-.32.21-.16.06h0l-.5-.29c-.54-.29-1.14-.58-1.8-.86l.1,0Zm-1.2-.33,0,0,.06,0Zm-.52.17c-.69.23-1.36.46-2,.69l-.22-.08a10.88,10.88,0,0,1,1-.66l.51-.29Zm-2.53.9-.07,0,0,0Zm.46.3.09,0,.34.16.68.37-.12,0a15.08,15.08,0,0,0-1.57.79,8.88,8.88,0,0,0-.8-.63C123.76,5.32,124.21,5.08,124.71,4.85Zm5.87.31.34-.33,0,0c.2.2.39.41.57.62l-.35.09Zm6.63.68a10.33,10.33,0,0,0-1.28-1.06l1.25-.27c.66.12,1.24.25,1.78.39l.11,0-.35.18q-.78.41-1.42.83Zm2-1c-.61-.13-1.27-.25-2-.36l2.34-.45.39.22.23.15-1,.45Zm1.08-.37.17.11-.48.44-.42-.1C139.76,4.81,140,4.65,140.26,4.5ZM141,5l.37.27-.13.13h0l-.31-.1-.12,0Zm-.31.46.36.15c-.27.29-.54.58-.78.87l-.18.22A6.18,6.18,0,0,1,140.71,5.47Zm.11,1.89a7.9,7.9,0,0,1,.32-.85c.1-.23.22-.46.34-.69l.42.25A10.14,10.14,0,0,0,141,7.27Zm4.37-.83c-.17-.16-.35-.32-.54-.48.42-.17.85-.34,1.3-.5,1-.34,2-.66,3.07-1l-1,.49a16.19,16.19,0,0,0-2,1.15c-.23.16-.44.32-.64.49Zm7.87-3.09.32.13-1,.16.61-.28Zm-3.13.92,0,0c-.42.2-.81.4-1.17.6.28-.18.59-.36.92-.54ZM149,6.59a4.18,4.18,0,0,1,1.17-1.48,7.85,7.85,0,0,1,.71-.52c.28.13.54.27.78.4l-.18.08a13.7,13.7,0,0,0-2,1.17Zm2.16-2.19c.31-.19.64-.38,1-.56l.18,0,1.08-.21.9.38c-.59.17-1.09.35-1.56.54l-.68.28C151.81,4.65,151.49,4.53,151.16,4.4Zm1.88.11a11.93,11.93,0,0,1,1.3-.55l.5.22-.15.09a14.17,14.17,0,0,0-1.5,1h0c-.26-.14-.53-.27-.82-.41C152.56,4.76,152.79,4.64,153,4.52Zm6.16-1.1,1.11.39c.3.26.57.53.84.79l-.45.17c-.48.19-.9.37-1.3.56l-.06,0c-.45-.13-.95-.26-1.47-.38l.09,0a12.5,12.5,0,0,1,1.33-.51c-.6.16-1.11.33-1.59.49h0l-.09,0-.32-.06-.41-.21-.44-.2c.82-.35,1.72-.69,2.68-1Zm3.25.88h0l.13,0Zm-6.64.38,0,0c.33.18.63.36.92.55l-.35.15c-.38.17-.73.33-1,.5l-.79-.63.84-.41Zm.67,2.21c-.23-.22-.47-.43-.72-.65a7.86,7.86,0,0,1,1.18-.81l0,0a10.16,10.16,0,0,1,1,.75,8.4,8.4,0,0,0-1.25,1ZM157.69,5l0,0c.42.12.81.24,1.15.37l.24.1-.33.18C158.45,5.44,158.09,5.23,157.69,5Zm-2.08,1.88a6,6,0,0,1,.28.58c-.09-.13-.19-.25-.3-.38s-.23-.25-.36-.37l.17-.18Zm2.94-.18,0,0-.09,0ZM159.3,6l.36-.28.18.09-.38.3Zm.64-.47a10.32,10.32,0,0,1,1.28-.72l.09,0,.07.07a13.22,13.22,0,0,0-1.23.75Zm-5.07-.93.28-.23.13.07Zm-.35.71q.29.37.54.74l0,0-.39.22a9.22,9.22,0,0,0-.87-.6Zm3.61,2.08.11,0-.26.36A3.27,3.27,0,0,1,158.13,7.37Zm4.36-2.55-.09-.07.55.31c.27.16.52.33.75.49l-.25.05C163.15,5.34,162.83,5.08,162.5,4.82Zm4.83-.19.1.21h0l-.62.11.31-.2Zm3.86.36a12.15,12.15,0,0,1,1.14.77,10.9,10.9,0,0,0-1.06,1.44L171.1,7a5.49,5.49,0,0,0-.76-.55,6.57,6.57,0,0,1,.61-1.16Zm-.61-.36c-.25.22-.49.44-.7.66s-.4.43-.58.64c-.24-.11-.5-.22-.78-.33a4.41,4.41,0,0,0-.39-.6l2.34-.43Zm-1.85,1.45a3.33,3.33,0,0,0-.18-.4,5.79,5.79,0,0,1,.62.4l-.33.43A2.77,2.77,0,0,0,168.71,6.08Zm1.35,1.34h0Zm3.62-1.74c.12-.21.26-.42.41-.63a9.52,9.52,0,0,1,1.08-1.25l.77-.11.13,0c.72.19,1.35.39,1.9.6-.59.24-1.14.49-1.65.75l-.67.35q-.8.26-1.54.53Zm4.4-1.31.53.22c-.56.14-1.11.28-1.65.44C177.31,4.81,177.68,4.59,178.09,4.38Zm-2.45-.75-.32,0,.1-.09Zm-1.38.32A14.7,14.7,0,0,0,173,5l-.17.17c-.38-.21-.78-.42-1.22-.62l-.09,0,.14-.17Zm-4.14.46-2.21.36-.29-.31c.39-.22.81-.43,1.26-.64C169.33,4,169.74,4.21,170.12,4.4Zm-1.67-.77c-.42.16-.82.32-1.19.49a7,7,0,0,0-.67-.52,3.76,3.76,0,0,1,.49.59q-.53.24-1,.48c-.4.2-.75.41-1.09.62l-.3.06L164,5c-.36-.18-.77-.36-1.18-.53l.31-.18c.32-.17.67-.34,1.05-.51l.68-.16-.58.12.37-.15c.29-.12.6-.23.95-.34s.65-.2,1-.3Q167.59,3.27,168.45,3.63Zm-5.8-1.38,1-.27q1.45.4,2.71.84l.27.1c-.42.09-.8.19-1.15.29s-.74.22-1.08.33-.76.27-1.11.41l-.77.21-.22.07-1.13-.41L160,3.06Q161.28,2.65,162.65,2.25Zm-3,1,.24.2-.2-.06-.25-.07Zm-3.7,1-.34-.14c.21-.15.43-.3.68-.45a10.8,10.8,0,0,1,1.31-.67l1.15.33C157.72,3.57,156.78,3.88,155.91,4.19Zm-.76-1.5.64-.19.82.19.95.24a16.29,16.29,0,0,0-1.56.65l-.71.36L154,3.48l.74-.13-.77.11-.55-.19C154,3.08,154.53,2.88,155.14,2.69Zm-3.45,1c.32-.15.65-.29,1-.43l.09,0-.18.06c-.49.18-.93.36-1.34.55Zm-4.89-.48c.44.1.85.2,1.23.3A19.72,19.72,0,0,1,150,4.2l-.08,0c-1.55.34-3,.73-4.39,1.16l-1.19.4-.58-.42,0-.07a9.51,9.51,0,0,1,1.67-1.66c.22-.17.46-.34.71-.51Zm-.91-.2h0Zm-1.48.2,1.41-.19h0c-.33.18-.65.36-.94.54a15.56,15.56,0,0,0-1.84,1.33c-.24-.15-.5-.3-.77-.44l-.05,0,.08-.12-.11.1-.54-.27c.15-.17.31-.34.48-.51l.08-.08Zm-2.87.45-.32.24-.31-.14Zm-9.6-1.46c.66-.19,1.33-.37,2-.55.57.19,1.12.38,1.64.57l.08,0-1,.27c-.38.12-.74.25-1.08.37-.67.25-1.26.51-1.79.77l-.77.41c-.52-.37-1.05-.75-1.62-1.12C130.27,2.75,131.09,2.5,131.95,2.25Zm-6.44.44c.44-.12.91-.24,1.4-.35l.9-.19q.55.42,1.07.84h0l-.1,0-1.24.38-1-.21-.16-.06.46-.21-.51.19-1-.37Zm-.57.16.17.06-.25,0Zm-1.81.59q.75-.28,1.64-.54l.6.12.6.25-.68.31c-.38.18-.73.37-1.06.56-.5-.18-1-.35-1.56-.52Zm-.83.33c.55.2,1.06.39,1.53.6-.42.25-.8.51-1.14.76a14.34,14.34,0,0,0-1.56-.81Q121.65,4,122.29,3.78Zm-3,.07c.34.15.65.3.94.45a14,14,0,0,0-1.44.75c-.18.11-.35.22-.51.33a.37.37,0,0,1,0-.21l-.57.31-.21.07a5.08,5.08,0,0,0-.83-.39s0,0,0,0c0,.14,0,.23,0,.36a2.31,2.31,0,0,1,.26.22l-1,.36-.26-.15a8.31,8.31,0,0,1,.55-.87,9.49,9.49,0,0,1,1.08-1.25l.92-.13s0-.07,0-.11l-.75.09.39-.35C118.43,3.49,118.9,3.66,119.33,3.85ZM110.9,6.08A3.91,3.91,0,0,0,110.29,5l1.63-.3a2.56,2.56,0,0,1,.3.21l.11.11-.28.27a10.15,10.15,0,0,0-1,1.22A2.77,2.77,0,0,0,110.9,6.08Zm-1.1,0a2.46,2.46,0,0,1-.57,1.22c-.11-.11-.23-.23-.37-.34a9.32,9.32,0,0,0-1.3-.89,8.46,8.46,0,0,1,.83-.7l.6-.13.71-.14A2.65,2.65,0,0,1,109.8,6.09Zm-6.27,0a9,9,0,0,0-.86-.38,7.13,7.13,0,0,1,.54-.82l.19-.1.09,0,.12.11q.48.49.9,1Zm-17.44.67a2.75,2.75,0,0,0-.3-.25q.77-.36,1.63-.69l-.5.32C86.62,6.34,86.34,6.54,86.09,6.75Zm-4,.94A4.41,4.41,0,0,1,83,5.78l.17-.21c.24.1.46.2.64.31-.2.16-.39.31-.57.47A6.67,6.67,0,0,0,82.09,7.69ZM89.3,3.33l.71.18-.61.2L88.56,4c-.53.21-1,.42-1.45.64L86.37,5c.35-.25.71-.51,1.13-.76S88.64,3.64,89.3,3.33ZM87.68,5.38c-.59.19-1.15.38-1.69.58a8.85,8.85,0,0,1,1.64-1.29A12.52,12.52,0,0,1,88.82,4l.71-.32.51-.2.18,0c.48.13.92.27,1.32.41l-.11,0-.84.29c-.53.2-1,.4-1.45.6L88.88,5Zm3.17-1.07.71-.3,0,0,.54.2-.08,0q-1,.23-2,.48C90.3,4.58,90.56,4.44,90.85,4.31Zm1.26,0,0,0c-.42.2-.81.4-1.17.6.28-.18.59-.36.92-.54Zm-.93,2.24a4.18,4.18,0,0,1,1.17-1.48,7.83,7.83,0,0,1,.71-.52c.28.13.54.27.78.4l-.18.08a13.69,13.69,0,0,0-2,1.17ZM93.34,4.4c.31-.19.64-.38,1-.56l.18,0,.5-.1,1.06.39c-.41.13-.78.27-1.14.41l-.68.28C94,4.65,93.68,4.53,93.34,4.4Zm1.26-.68.22-.1.13,0Zm.61.79c.28-.14.58-.27.92-.41l.59.25a14,14,0,0,0-1.37.93h0c-.26-.14-.53-.27-.82-.41C94.75,4.76,95,4.64,95.22,4.52Zm2.48.29L98,5l.7.38-.13.05-.18.08a3.49,3.49,0,0,0-.34-.3,4.57,4.57,0,0,0-.39-.27l-.09-.05h0Zm3.1.94c-.36-.2-.76-.4-1.17-.6L99.91,5c.42.12.81.24,1.15.37l.24.1Zm-1.37-.69L99,4.87l-.48-.2,1,.24.15,0Zm-1.29,1a1.43,1.43,0,0,1-.14.59,2.39,2.39,0,0,1-.26.41l-.32-.33.23-.25A6,6,0,0,1,98.14,6.07Zm.48-.35L99,5.5a10.48,10.48,0,0,1,1,.72A8.55,8.55,0,0,0,99,7a1.54,1.54,0,0,0,0-.28A1.76,1.76,0,0,0,98.63,5.72Zm3.56-.93c-.18.17-.35.34-.51.51l-.09,0-.06,0c-.45-.13-.95-.26-1.47-.38l.1,0a12.41,12.41,0,0,1,1.33-.51c-.6.16-1.11.33-1.59.49h0l-.09,0c-.42-.09-.87-.17-1.34-.25l-.17-.07q1-.43,2.1-.84l1,.28c.45.13.86.26,1.26.4Zm-5-.24-.09,0,.06,0Zm.36.35,0,0a2.09,2.09,0,0,1,.26.26,1.48,1.48,0,0,1,.27.46c-.44.21-.84.42-1.19.64a9.22,9.22,0,0,0-.87-.6C96.47,5.41,97,5.15,97.52,4.89Zm5,1.17.28.2-.42.1Zm7-1.43.1.21h0L109,5l.31-.2Zm3.65.66c.43.22.82.44,1.17.67-.23.27-.43.54-.62.81,0,0,0,0,0,0a1.77,1.77,0,0,0-.43-1l-.23-.25.08-.12ZM112.4,5l-.06,0-.2-.11.28.13Zm.41.93a1.36,1.36,0,0,1-.14.78,2.55,2.55,0,0,1-.37.54A5.29,5.29,0,0,1,112.81,5.88Zm3.64-1.93A14.69,14.69,0,0,0,115.2,5l-.42.43-1-.43-.37-.14c.13-.17.27-.35.42-.52Zm-3.57.58-.1.09-.13,0Zm-1.36,0-1.42.23-.29-.31.64-.34Zm-5.74-1.82q1.47.36,2.74.75c.49.15,1,.3,1.4.46l-.46.2a7,7,0,0,0-.67-.52,3.74,3.74,0,0,1,.49.59q-.53.24-1,.48c-.4.2-.75.41-1.09.62l-.84.16-.18-.09c-.47-.21-1-.41-1.54-.6l-.43-.32.74-.28c.29-.1.6-.2.95-.3s.71-.2,1.15-.29c-.48.09-.88.18-1.27.28l-1.08.29-.62.19-.23-.17a10,10,0,0,1,1.45-1.24l.38-.26Zm-.44-.11-.56.31a15.48,15.48,0,0,0-1.42.92l-1.13-.77c.69-.23,1.41-.45,2.16-.67Zm-3.53.6q.58.49,1.11,1l0,0-1-.28-1.25-.3Zm-1.93.38c-.75.24-1.48.49-2.17.75l-.22-.08a10.85,10.85,0,0,1,1-.65l.44-.25Zm-4.64-.14c.42-.18.88-.35,1.37-.52l.7.12,1.44.28-.56.26c-.37.18-.71.36-1,.54-.5-.18-1-.36-1.58-.53L97,3.36l-1.49.22-.33-.1Zm-.73.07q-.54.21-1,.42l.41-.21.54-.24Zm-.76-.25.58.19-.69.25-1,.4-.1,0-.09,0L92.71,4l-.28.11-.59-.18.55-.19-.6.17c-.43-.12-.88-.25-1.36-.36l-.27-.06.19-.07-.21.06-.78-.17c.54-.26,1.13-.51,1.74-.75C92,2.78,92.92,3,93.73,3.27ZM88.55,3l.88-.1-.73.28L88,3.06Zm-2,.27L88,3.07l.65.12c-.78.32-1.51.65-2.17,1A17.26,17.26,0,0,0,84.1,5.64l-.79-.27a10.25,10.25,0,0,1,1-1,14.35,14.35,0,0,1,1.21-.93Zm-3.73.6,2.41-.4c-.53.28-1,.57-1.46.86s-.84.57-1.22.85c-.39-.1-.8-.21-1.24-.3l-.66-.13a4.64,4.64,0,0,0-.21-.44Zm-3,.75-.53-.09.51-.1C79.9,4.48,79.91,4.54,79.91,4.6ZM79.82,4l0,.16v.06l-.65.12Zm-3,1.08-.34.22-.16-.11ZM75.57,6l-.52-.46.26-.06c.16.13.31.25.44.38ZM75,5.19l-.24.06-.53-.43-.57-.42h0l.06,0q.4.22.74.44C74.64,4.94,74.82,5.06,75,5.19ZM62.13,6.83a8.56,8.56,0,0,0-.84.59.38.38,0,0,1,0-.09,1.48,1.48,0,0,1,.51-.64,4.69,4.69,0,0,1,1.12-.64,12,12,0,0,0-1.65.64c-.2.1-.38.2-.55.3a3.81,3.81,0,0,1,1.33-1.23,9.85,9.85,0,0,1,1.16-.6,8.34,8.34,0,0,1,.9.57L64,5.87A17.42,17.42,0,0,0,62.13,6.83Zm4.91-3-.12.06q-1.12.23-2.08.49c-.55.14-1.06.29-1.53.45l-.54-.21,1.06-.27Q64.94,4,66.11,3.8l.7-.14Zm-1.73.59c.4-.12.82-.24,1.27-.35l-.42.23a14.05,14.05,0,0,0-1.6,1.08c-.27-.14-.56-.27-.87-.4C64.18,4.77,64.71,4.58,65.31,4.4Zm2.88.18.2.16L68,4.66ZM67,7.07l-.3-.3L67,6.49a7.24,7.24,0,0,1,1.46-1.07l.48-.26.33.32-.55.3a8.22,8.22,0,0,0-1.36,1A4.11,4.11,0,0,0,67,7.07ZM69.71,6l-.1.06a8.78,8.78,0,0,0-1.3,1,1,1,0,0,1,.1-.31,3.49,3.49,0,0,1,.81-.94l.18-.14ZM68.48,4.82l.29.23-.87.35a14.54,14.54,0,0,0-1.77.91q-.33-.25-.73-.49c.39-.2.79-.4,1.24-.6s.84-.36,1.29-.53ZM69.85,7h0l-.13.2ZM72.2,5.8c.11-.14.23-.29.36-.43s.35-.36.55-.53l0,0c.2.2.39.41.57.62l-1.41.36ZM70.91,3.62l.66-.2q.61.52,1.15,1l-.38.25-.16.06c-.48.19-.9.37-1.29.56l-.06,0-.42-.12-.18-.14.43-.24-.47.2-.4-.27c.3-.13.62-.25,1-.37-.4.1-.75.21-1.08.32L69,4.27C69.62,4.05,70.25,3.84,70.91,3.62Zm-3.59.93L67,4.5l.33.06c-.52.18-1,.36-1.52.54a8.62,8.62,0,0,1,.9-.8l.54-.39.09.06.56.39ZM62.7,3.26,65,3l.49-.05c.45.23.86.46,1.25.69L66,3.75q-1.22.22-2.39.47l-1.16.27L62,4.33l-.24-.07L62.33,4l-.64.25c-.59-.18-1.23-.36-1.95-.52l-.14,0C60.61,3.53,61.64,3.39,62.7,3.26ZM51.06,6.09a2.35,2.35,0,0,1-.5,1.13c-.13-.15-.28-.3-.43-.45A9,9,0,0,0,49,5.9c.19-.17.4-.35.63-.52l.6-.13L51,5.12A2.66,2.66,0,0,1,51.06,6.09ZM47.37,6l-.13-.12.28-.06.05,0Zm-2.58.06-.43-.2.16-.17a7.44,7.44,0,0,1,.63-.54c.22.23.42.46.62.69Zm-25.37.82a11.15,11.15,0,0,0-2.5-1.56l.39-.1,1.51-.35a5.57,5.57,0,0,1,.75,1,2.16,2.16,0,0,1,.26.71l-.39.33ZM8.61,7.36c-.09-.13-.18-.26-.28-.38l-.28-.32.16-.17a7.08,7.08,0,0,1,1.32-1,10.51,10.51,0,0,1,1.05.72,8.43,8.43,0,0,0-1,.82Zm5-3.27-1.21-.34-.93-.23,1.06-.37Q13.08,3.62,13.6,4.09ZM25.16,5.57l-.09,0,0,0ZM22.77,3.95q-1.87.31-3.65.65L19,4.55a17,17,0,0,0-1.58-.93l.12,0-.12,0-.63-.31.52.33-1,.23-1.08.29h0c.2-.14.42-.28.65-.42A13.47,13.47,0,0,1,17.37,3c.29-.13.6-.26.95-.38l.85-.28A28.26,28.26,0,0,1,22.77,3.95ZM10.17,5.16l.3-.14c.42.12.81.24,1.15.37l.24.1-.52.28C11,5.55,10.59,5.35,10.17,5.16Zm-.58-.27L9,4.65l1.11.26.15,0L10,5.06Zm2.56.45-.06,0c-.45-.13-.95-.26-1.47-.38l.1,0c.31-.14.64-.27,1-.41l.14.09c.27.18.53.35.76.53Zm-1.69-.45h0l-.09,0c-.44-.09-.92-.18-1.41-.26l-.11,0q.84-.37,1.79-.73c.41.21.78.43,1.13.64C11.26,4.61,10.85,4.75,10.46,4.88Zm6.23.21-.22,0c-.38-.17-.79-.33-1.23-.49l-.34-.25h0l.58-.22c.29-.1.6-.2.95-.3l.92-.23a9.81,9.81,0,0,1,1.16.94l.11.11ZM11.94,3.81c.73.22,1.39.45,2,.69l-.32.21-.16.06h0l-.5-.29c-.54-.29-1.14-.58-1.8-.86l.1,0Zm-1.2-.33,0,0,.06,0Zm-.52.17c-.69.23-1.36.46-2,.69L8,4.27a10.88,10.88,0,0,1,1-.66l.51-.29Zm-2.53.9-.07,0,0,0Zm.46.3.09,0L8.59,5l.68.37-.12,0a15.08,15.08,0,0,0-1.57.79,8.88,8.88,0,0,0-.8-.63C7.21,5.32,7.66,5.08,8.16,4.85ZM14,5.16l.34-.33,0,0c.2.2.39.41.57.62l-.35.09Zm6.63.68a10.33,10.33,0,0,0-1.28-1.06l1.25-.27c.66.12,1.24.25,1.78.39l.11,0-.35.18q-.78.41-1.42.83Zm2-1c-.61-.13-1.27-.25-2-.36L23,4.07l.39.22.23.15-1,.45Zm1.08-.37.17.11-.48.44L23,5C23.21,4.81,23.45,4.65,23.71,4.5Zm.75.51.37.27-.13.13h0l-.31-.1-.12,0Zm-.31.46.36.15c-.27.29-.54.58-.78.87l-.18.22A6.18,6.18,0,0,1,24.15,5.47Zm.11,1.89a7.9,7.9,0,0,1,.32-.85c.1-.23.22-.46.34-.69l.42.25a10.14,10.14,0,0,0-.94,1.21Zm4.37-.83c-.17-.16-.35-.32-.54-.48.42-.17.85-.34,1.3-.5,1-.34,2-.66,3.07-1l-1,.49a16.19,16.19,0,0,0-2,1.15c-.23.16-.44.32-.64.49Zm7.87-3.09.32.13-1,.16.61-.28Zm-3.13.92,0,0c-.42.2-.81.4-1.17.6.28-.18.59-.36.92-.54Zm-.93,2.24a4.18,4.18,0,0,1,1.17-1.48,7.85,7.85,0,0,1,.71-.52c.28.13.54.27.78.4l-.18.08a13.7,13.7,0,0,0-2,1.17ZM34.6,4.4c.31-.19.64-.38,1-.56l.18,0,1.08-.21.9.38c-.59.17-1.09.35-1.56.54l-.68.28C35.25,4.65,34.94,4.53,34.6,4.4Zm1.88.11A11.93,11.93,0,0,1,37.78,4l.5.22-.15.09a14.17,14.17,0,0,0-1.5,1h0c-.26-.14-.53-.27-.82-.41C36,4.76,36.23,4.64,36.48,4.52Zm6.16-1.1,1.11.39c.3.26.57.53.84.79l-.45.17c-.48.19-.9.37-1.3.56l-.06,0c-.45-.13-.95-.26-1.47-.38l.09,0a12.5,12.5,0,0,1,1.33-.51c-.6.16-1.11.33-1.59.49h0l-.09,0-.32-.06-.41-.21-.44-.2c.82-.35,1.72-.69,2.68-1Zm3.25.88h0l.13,0Zm-6.64.38,0,0c.33.18.63.36.92.55l-.35.15c-.38.17-.73.33-1,.5L38,5.26l.84-.41Zm.67,2.21c-.23-.22-.47-.43-.72-.65a7.87,7.87,0,0,1,1.18-.81l0,0a10.16,10.16,0,0,1,1,.75,8.4,8.4,0,0,0-1.25,1ZM41.14,5l0,0c.42.12.81.24,1.15.37l.24.1-.33.18C41.9,5.44,41.53,5.23,41.14,5ZM39.06,6.91a6,6,0,0,1,.28.58c-.09-.13-.19-.25-.3-.38s-.23-.25-.36-.37l.17-.18ZM42,6.73l0,0-.09,0ZM42.75,6l.36-.28.18.09-.38.3Zm.64-.47a10.32,10.32,0,0,1,1.28-.72l.09,0,.07.07a13.22,13.22,0,0,0-1.23.75Zm-5.07-.93.28-.23.13.07ZM38,5.29q.29.37.54.74l0,0-.39.22a9.21,9.21,0,0,0-.87-.6Zm3.61,2.08.11,0-.26.36A3.27,3.27,0,0,1,41.58,7.37Zm4.36-2.55-.09-.07.55.31c.27.16.52.33.75.49l-.25.05C46.6,5.34,46.28,5.08,45.94,4.82Zm4.83-.19.1.21h0L50.25,5l.31-.2ZM54.63,5a12.15,12.15,0,0,1,1.14.77A10.9,10.9,0,0,0,54.7,7.19L54.54,7a5.49,5.49,0,0,0-.76-.55,6.57,6.57,0,0,1,.61-1.16ZM54,4.63c-.25.22-.49.44-.7.66s-.4.43-.58.64c-.24-.11-.5-.22-.78-.33a4.41,4.41,0,0,0-.39-.6l2.34-.43ZM52.16,6.08a3.33,3.33,0,0,0-.18-.4,5.79,5.79,0,0,1,.62.4l-.33.43A2.77,2.77,0,0,0,52.16,6.08Zm1.35,1.34h0Zm3.62-1.74c.12-.21.26-.42.41-.63a9.53,9.53,0,0,1,1.08-1.25l.77-.11.13,0c.72.19,1.35.39,1.9.6-.59.24-1.14.49-1.65.75l-.67.35q-.8.26-1.54.53Zm4.4-1.31.53.22c-.56.14-1.11.28-1.65.44C60.76,4.81,61.13,4.59,61.53,4.38Zm-2.45-.75-.32,0,.1-.09Zm-1.38.32A14.7,14.7,0,0,0,56.46,5l-.17.17c-.38-.21-.78-.42-1.22-.62l-.09,0,.14-.17Zm-4.14.46-2.21.36-.29-.31c.39-.22.81-.43,1.26-.64C52.77,4,53.18,4.21,53.57,4.4ZM51.9,3.63c-.42.16-.82.32-1.19.49A7,7,0,0,0,50,3.61a3.76,3.76,0,0,1,.49.59q-.53.24-1,.48c-.4.2-.75.41-1.09.62l-.3.06L47.42,5c-.36-.18-.77-.36-1.18-.53l.31-.18c.32-.17.67-.34,1.05-.51l.68-.16-.58.12.37-.15c.29-.12.6-.23.95-.34s.65-.2,1-.3Q51,3.27,51.9,3.63ZM46.1,2.25l1-.27q1.45.4,2.71.84l.27.1c-.42.09-.8.19-1.15.29s-.74.22-1.08.33-.76.27-1.11.41l-.77.21-.22.07-1.13-.41-1.12-.76Q44.72,2.65,46.1,2.25Zm-3,1,.24.2-.2-.06-.25-.07Zm-3.7,1L39,4.05c.21-.15.43-.3.68-.45A10.79,10.79,0,0,1,41,2.93l1.15.33C41.17,3.57,40.23,3.88,39.35,4.19Zm-.76-1.5.64-.19.82.19.95.24a16.28,16.28,0,0,0-1.56.65l-.71.36-1.24-.46.74-.13-.77.11-.55-.19C37.42,3.08,38,2.88,38.59,2.69Zm-3.45,1c.32-.15.65-.29,1-.43l.09,0-.18.06c-.49.18-.93.36-1.34.55Zm-4.89-.48c.44.1.85.2,1.23.3a19.72,19.72,0,0,1,1.93.64l-.08,0c-1.55.34-3,.73-4.39,1.16l-1.19.4-.58-.42,0-.07A9.51,9.51,0,0,1,28.9,3.64c.22-.17.46-.34.71-.51Zm-.91-.2h0Zm-1.48.2,1.41-.19h0c-.33.18-.65.36-.94.54a15.56,15.56,0,0,0-1.84,1.33c-.24-.15-.5-.3-.77-.44l-.05,0,.08-.12-.11.1-.54-.27c.15-.17.31-.34.48-.51l.08-.08ZM25,3.71,24.68,4l-.31-.14ZM15.4,2.25c.66-.19,1.33-.37,2-.55.57.19,1.12.38,1.64.57l.08,0-1,.27c-.38.12-.74.25-1.08.37-.67.25-1.26.51-1.79.77l-.77.41C14,3.75,13.5,3.38,12.94,3,13.72,2.75,14.54,2.5,15.4,2.25ZM9,2.69c.44-.12.91-.24,1.4-.35l.9-.19q.55.42,1.07.84h0l-.1,0L11,3.4,10,3.2l-.16-.06.46-.21-.51.19-1-.37Zm-.57.16.17.06-.25,0Zm-1.81.59q.75-.28,1.64-.54l.6.12.6.25-.68.31c-.38.18-.73.37-1.06.56-.5-.18-1-.35-1.56-.52Zm-.83.33c.55.2,1.06.39,1.53.6-.42.25-.8.51-1.14.76a14.34,14.34,0,0,0-1.56-.81Q5.1,4,5.74,3.78ZM3.32,5.11a8.83,8.83,0,0,1,.85-.56,8.58,8.58,0,0,1,1.23.85l.09.09A17.71,17.71,0,0,0,3.41,6.63L2.91,7a8.39,8.39,0,0,0-.78-.63A4.62,4.62,0,0,1,3.32,5.11ZM1.74,7.58a2.14,2.14,0,0,1,.1.41l-.08.09A2.49,2.49,0,0,1,1.74,7.58ZM6.19,6.19a4.23,4.23,0,0,1,.42.64,6.3,6.3,0,0,0-1.07,1A4.58,4.58,0,0,1,6.19,6.19ZM8.86,7.77h0l0,0ZM11.11,7h0l-.13.2Zm1.77-.24c.06-.13.13-.25.2-.38l.28-.08.13.11a1,1,0,0,1,.34,1.08l0,.1A7,7,0,0,0,12.88,6.75Zm2.91-.22a9.89,9.89,0,0,0-.8-.69l.25-.07a11.69,11.69,0,0,1,.72.93Zm5.88.7a4.47,4.47,0,0,0-.47-.77l.14-.16a8.67,8.67,0,0,1,1.37-1.17l.15-.1.43.13-.13.13A8.72,8.72,0,0,0,21.67,7.23Zm4.46.26a1.67,1.67,0,0,1-.15.3,6.33,6.33,0,0,1,.19-.61A.88.88,0,0,1,26.13,7.49Zm7.16-.25a4.23,4.23,0,0,1,.69-1,7.26,7.26,0,0,1,1.38-1.12c.23.14.45.29.64.43a17.14,17.14,0,0,0-1.9,1.05A8.61,8.61,0,0,0,33.29,7.24Zm3.52-.93a4.09,4.09,0,0,1,.43.57,6.23,6.23,0,0,0-1,1A4.54,4.54,0,0,1,36.82,6.31Zm6.93.45.61-.16a.92.92,0,0,1,.18.89l0,0A7.2,7.2,0,0,0,43.75,6.76Zm2.35.45a2.14,2.14,0,0,0-.82-.85L46,6.19c.15.19.29.38.42.58l0,0C46.35,6.94,46.22,7.08,46.1,7.21Zm2.08-.4.09-.13.06-.07.19.22A3.82,3.82,0,0,1,49.12,8,9.38,9.38,0,0,0,48.18,6.82Zm8.17.7c.06-.2.12-.41.19-.61l.3-.15.12.14A5.53,5.53,0,0,0,56.35,7.52Zm2.16-.81a5,5,0,0,1,.35-.41,7.63,7.63,0,0,1,.84-.74h0c.83-.29,1.71-.57,2.64-.83l.5.24A16.26,16.26,0,0,0,61,5.7a6.07,6.07,0,0,0-2,1.45C58.84,7,58.68,6.85,58.51,6.7Zm6.31-.34a4.07,4.07,0,0,1,.44.54,6.19,6.19,0,0,0-1,.93A4.51,4.51,0,0,1,64.82,6.36Zm7,.06,0,0,.28-.08.13.11a1,1,0,0,1,.36,1A8,8,0,0,0,71.79,6.42Zm1.5-.07c-.14-.09-.29-.18-.46-.26L74,5.78a11.59,11.59,0,0,1,.74,1,6.75,6.75,0,0,0-.54.64A1.88,1.88,0,0,0,73.3,6.35Zm3.12.43.09-.13,0,.06a4.48,4.48,0,0,1,.39.66C76.78,7.17,76.61,7,76.42,6.78Zm2.36.58a6.25,6.25,0,0,0-.62-.73,9,9,0,0,0-.93-.8,9.89,9.89,0,0,1,1.48-1.17l.66-.14.54.1a3.6,3.6,0,0,1-.08,1A4.25,4.25,0,0,1,78.78,7.36Zm2.14-.64a3.39,3.39,0,0,0,0-1.12,3.88,3.88,0,0,0-.22-.8l.43.11c.47.12.89.25,1.28.39l-.54.44A9.44,9.44,0,0,0,80.93,6.72ZM88,6.16a8.35,8.35,0,0,1,1.29-1q.92-.29,1.91-.56l-1,.49a16.28,16.28,0,0,0-2,1.15,9.2,9.2,0,0,0-.8.62A5.82,5.82,0,0,1,88,6.16Zm4,1.08a4.24,4.24,0,0,1,.69-1A7.29,7.29,0,0,1,94.1,5.15c.23.14.45.29.64.43a17.14,17.14,0,0,0-1.9,1.05A8.61,8.61,0,0,0,92,7.24Zm3.52-.93a4.08,4.08,0,0,1,.43.57,6.22,6.22,0,0,0-1,1A4.54,4.54,0,0,1,95.55,6.31Zm6.82.48.72-.19a.92.92,0,0,1,.18.89l0,.1A7,7,0,0,0,102.38,6.79Zm2.46.42a2.14,2.14,0,0,0-.82-.85l.75-.18c.15.19.29.38.42.58l0,0C105.08,6.94,105,7.08,104.84,7.21ZM107,6.74c.1.1.2.2.28.29a3.43,3.43,0,0,1,.55.87,9.47,9.47,0,0,0-.89-1.09Zm8.12.77c.06-.21.12-.41.19-.62l.16-.08,0,0,.12.13A5.36,5.36,0,0,0,115.09,7.52Zm7.65-1.32a4.23,4.23,0,0,1,.42.64,6.3,6.3,0,0,0-1.07,1A4.58,4.58,0,0,1,122.74,6.19Zm2.67,1.58h0l0,0ZM127.66,7h0l-.13.2Zm1.77-.24c.06-.13.13-.25.2-.38l.28-.08.13.11a1,1,0,0,1,.34,1.08l0,.1A7,7,0,0,0,129.44,6.75Zm2.91-.22a9.89,9.89,0,0,0-.8-.69l.25-.07a11.69,11.69,0,0,1,.72.93Zm5.88.7a4.47,4.47,0,0,0-.47-.77l.14-.16a8.67,8.67,0,0,1,1.37-1.17l.15-.1.43.13-.13.13A8.72,8.72,0,0,0,138.22,7.23Zm4.46.26a1.67,1.67,0,0,1-.15.3,6.33,6.33,0,0,1,.19-.61A.88.88,0,0,1,142.69,7.49Zm7.16-.25a4.24,4.24,0,0,1,.69-1,7.26,7.26,0,0,1,1.38-1.12c.23.14.45.29.64.43a17.14,17.14,0,0,0-1.9,1.05A8.61,8.61,0,0,0,149.85,7.24Zm3.52-.93a4.09,4.09,0,0,1,.43.57,6.23,6.23,0,0,0-1,1A4.54,4.54,0,0,1,153.37,6.31Zm6.93.45.61-.16a.92.92,0,0,1,.18.89l0,0A7.2,7.2,0,0,0,160.3,6.76Zm2.35.45a2.14,2.14,0,0,0-.82-.85l.75-.18c.15.19.29.38.42.58l0,0C162.9,6.94,162.77,7.08,162.65,7.21Zm2.08-.4.09-.13.06-.07.19.22A3.82,3.82,0,0,1,165.68,8,9.38,9.38,0,0,0,164.73,6.82Zm8.17.7c.06-.2.12-.41.19-.61l.3-.15.12.14A5.53,5.53,0,0,0,172.91,7.52Zm2.16-.81a5,5,0,0,1,.35-.41,7.63,7.63,0,0,1,.84-.74h0c.83-.29,1.71-.57,2.64-.83l.5.24a16.27,16.27,0,0,0-1.83.75,6.07,6.07,0,0,0-2,1.45C175.39,7,175.23,6.85,175.06,6.7Zm6.31-.34a4.07,4.07,0,0,1,.44.54,6.19,6.19,0,0,0-1,.93A4.51,4.51,0,0,1,181.38,6.36Zm7,.06,0,0,.28-.08.13.11a1,1,0,0,1,.36,1A8,8,0,0,0,188.35,6.42Zm1.5-.07c-.14-.09-.29-.18-.46-.26l1.14-.31a11.6,11.6,0,0,1,.74,1,6.75,6.75,0,0,0-.54.64A1.88,1.88,0,0,0,189.85,6.35Zm3.12.43.09-.13,0,.06a4.48,4.48,0,0,1,.39.66C193.33,7.17,193.16,7,193,6.78Zm2.36.58a6.25,6.25,0,0,0-.62-.73,9,9,0,0,0-.93-.8,9.89,9.89,0,0,1,1.48-1.17l.66-.14.54.1a3.6,3.6,0,0,1-.08,1A4.25,4.25,0,0,1,195.34,7.36Zm2.14-.64a3.39,3.39,0,0,0,0-1.12,3.88,3.88,0,0,0-.22-.8l.43.11c.47.12.89.25,1.28.39l-.54.44A9.44,9.44,0,0,0,197.48,6.72Zm7.08-.57a8.35,8.35,0,0,1,1.29-1q.92-.29,1.91-.56l-1,.49a16.28,16.28,0,0,0-2,1.15,9.2,9.2,0,0,0-.8.62A5.82,5.82,0,0,1,204.56,6.16Zm4,1.08a4.24,4.24,0,0,1,.69-1,7.29,7.29,0,0,1,1.38-1.12c.23.14.45.29.64.43a17.15,17.15,0,0,0-1.9,1.05A8.61,8.61,0,0,0,208.58,7.24Zm3.52-.93a4.08,4.08,0,0,1,.43.57,6.22,6.22,0,0,0-1,1A4.54,4.54,0,0,1,212.11,6.31Zm6.82.48.72-.19a.92.92,0,0,1,.18.89l0,.1A7,7,0,0,0,218.93,6.79Zm2.46.42a2.14,2.14,0,0,0-.82-.85l.75-.18c.15.19.29.38.42.58l0,0C221.64,6.94,221.51,7.08,221.39,7.21Zm2.13-.47c.1.1.2.2.28.29a3.43,3.43,0,0,1,.55.87,9.47,9.47,0,0,0-.89-1.09Zm8.12.77c.06-.21.12-.41.19-.62l.16-.08,0,0,.12.13A5.36,5.36,0,0,0,231.65,7.52Zm4.05.06a2.14,2.14,0,0,1,.1.41l-.08.09A2.49,2.49,0,0,1,235.7,7.58Zm4.44-1.38a4.23,4.23,0,0,1,.42.64,6.3,6.3,0,0,0-1.07,1A4.58,4.58,0,0,1,240.14,6.19Zm2.67,1.58h0l0,0ZM245.07,7h0l-.13.2Zm1.77-.24c.06-.13.13-.25.2-.38l.28-.08.13.11a1,1,0,0,1,.34,1.08l0,.1A7,7,0,0,0,246.84,6.75Zm2.91-.22a9.89,9.89,0,0,0-.8-.69l.25-.07a11.69,11.69,0,0,1,.72.93Zm5.88.7a4.47,4.47,0,0,0-.47-.77l.14-.16a8.67,8.67,0,0,1,1.37-1.17l.15-.1.43.13-.13.13A8.72,8.72,0,0,0,255.63,7.23Zm4.46.26a1.67,1.67,0,0,1-.15.3,6.33,6.33,0,0,1,.19-.61A.88.88,0,0,1,260.09,7.49Zm7.16-.25a4.24,4.24,0,0,1,.69-1,7.26,7.26,0,0,1,1.38-1.12c.23.14.45.29.64.43a17.14,17.14,0,0,0-1.9,1.05A8.61,8.61,0,0,0,267.25,7.24Zm3.52-.93a4.09,4.09,0,0,1,.43.57,6.23,6.23,0,0,0-1,1A4.54,4.54,0,0,1,270.77,6.31Zm6.93.45.61-.16a.92.92,0,0,1,.18.89l0,0A7.2,7.2,0,0,0,277.71,6.76Zm2.35.45a2.14,2.14,0,0,0-.82-.85l.75-.18c.15.19.29.38.42.58l0,0C280.3,6.94,280.17,7.08,280.05,7.21Zm2.08-.4.09-.13.06-.07.19.22A3.82,3.82,0,0,1,283.08,8,9.38,9.38,0,0,0,282.14,6.82Zm8.17.7c.06-.2.12-.41.19-.61l.3-.15.12.14A5.53,5.53,0,0,0,290.31,7.52Zm2.16-.81a5,5,0,0,1,.35-.41,7.63,7.63,0,0,1,.84-.74h0c.83-.29,1.71-.57,2.64-.83l.5.24A16.27,16.27,0,0,0,295,5.7a6.07,6.07,0,0,0-2,1.45C292.8,7,292.64,6.85,292.47,6.7Zm6.31-.34a4.07,4.07,0,0,1,.44.54,6.19,6.19,0,0,0-1,.93A4.51,4.51,0,0,1,298.78,6.36Zm7,.06,0,0,.28-.08.13.11a1,1,0,0,1,.36,1A8,8,0,0,0,305.75,6.42Zm1.5-.07c-.14-.09-.29-.18-.46-.26l1.14-.31a11.59,11.59,0,0,1,.74,1,6.75,6.75,0,0,0-.54.64A1.88,1.88,0,0,0,307.25,6.35Zm3.12.43.09-.13,0,.06a4.48,4.48,0,0,1,.39.66C310.73,7.17,310.56,7,310.38,6.78Zm2.36.58a6.25,6.25,0,0,0-.62-.73,9,9,0,0,0-.93-.8,9.89,9.89,0,0,1,1.48-1.17l.66-.14.54.1a3.6,3.6,0,0,1-.08,1A4.25,4.25,0,0,1,312.74,7.36Zm2.14-.64a3.39,3.39,0,0,0,0-1.12,3.88,3.88,0,0,0-.22-.8l.43.11c.47.12.89.25,1.28.39l-.54.44A9.44,9.44,0,0,0,314.88,6.72ZM322,6.16a8.35,8.35,0,0,1,1.29-1q.92-.29,1.91-.56l-1,.49a16.28,16.28,0,0,0-2,1.15,9.2,9.2,0,0,0-.8.62A5.82,5.82,0,0,1,322,6.16Zm4,1.08a4.24,4.24,0,0,1,.69-1,7.29,7.29,0,0,1,1.38-1.12c.23.14.45.29.64.43a17.15,17.15,0,0,0-1.9,1.05A8.61,8.61,0,0,0,326,7.24Zm3.52-.93a4.08,4.08,0,0,1,.43.57,6.22,6.22,0,0,0-1,1A4.54,4.54,0,0,1,329.51,6.31Zm6.82.48.72-.19a.92.92,0,0,1,.18.89l0,.1A7,7,0,0,0,336.33,6.79Zm2.46.42a2.14,2.14,0,0,0-.82-.85l.75-.18c.15.19.29.38.42.58l0,0C339,6.94,338.91,7.08,338.79,7.21Zm2.13-.47c.1.1.2.2.28.29a3.43,3.43,0,0,1,.55.87,9.47,9.47,0,0,0-.89-1.09Zm8.12.77c.06-.21.12-.41.19-.62l.16-.08,0,0,.12.13A5.36,5.36,0,0,0,349,7.52Zm7.65-1.32a4.23,4.23,0,0,1,.42.64,6.3,6.3,0,0,0-1.07,1A4.58,4.58,0,0,1,356.69,6.19Zm2.67,1.58h0l0,0ZM361.62,7h0l-.13.2Zm1.77-.24c.06-.13.13-.25.2-.38l.28-.08.13.11a1,1,0,0,1,.34,1.08l0,.1A7,7,0,0,0,363.39,6.75Zm2.91-.22a9.89,9.89,0,0,0-.8-.69l.25-.07a11.69,11.69,0,0,1,.72.93Zm5.88.7a4.47,4.47,0,0,0-.47-.77l.14-.16a8.67,8.67,0,0,1,1.37-1.17l.15-.1.43.13-.13.13A8.72,8.72,0,0,0,372.18,7.23Zm4.46.26a1.67,1.67,0,0,1-.15.3,6.33,6.33,0,0,1,.19-.61A.88.88,0,0,1,376.64,7.49Zm7.16-.25a4.23,4.23,0,0,1,.69-1,7.26,7.26,0,0,1,1.38-1.12c.23.14.45.29.64.43a17.14,17.14,0,0,0-1.9,1.05A8.61,8.61,0,0,0,383.8,7.24Zm3.52-.93a4.09,4.09,0,0,1,.43.57,6.23,6.23,0,0,0-1,1A4.54,4.54,0,0,1,387.32,6.31Zm6.93.45.61-.16a.92.92,0,0,1,.18.89l0,0A7.2,7.2,0,0,0,394.26,6.76Zm2.35.45a2.14,2.14,0,0,0-.82-.85l.75-.18c.15.19.29.38.42.58l0,0C396.86,6.94,396.73,7.08,396.61,7.21Zm2.08-.4.09-.13.06-.07.19.22A3.82,3.82,0,0,1,399.63,8,9.38,9.38,0,0,0,398.69,6.82Zm8.17.7c.06-.2.12-.41.19-.61l.3-.15.12.14A5.52,5.52,0,0,0,406.86,7.52ZM409,6.7a5,5,0,0,1,.35-.41,7.63,7.63,0,0,1,.84-.74h0c.83-.29,1.71-.57,2.64-.83l.5.24a16.26,16.26,0,0,0-1.83.75,6.07,6.07,0,0,0-2,1.45C409.35,7,409.19,6.85,409,6.7Zm6.31-.34a4.07,4.07,0,0,1,.44.54,6.19,6.19,0,0,0-1,.93A4.51,4.51,0,0,1,415.33,6.36Zm7,.06,0,0,.28-.08.13.11a1,1,0,0,1,.36,1A8,8,0,0,0,422.3,6.42Zm1.5-.07c-.14-.09-.29-.18-.46-.26l1.14-.31a11.59,11.59,0,0,1,.74,1,6.76,6.76,0,0,0-.54.64A1.88,1.88,0,0,0,423.81,6.35Zm3.12.43.09-.13,0,.06a4.48,4.48,0,0,1,.39.66C427.29,7.17,427.11,7,426.93,6.78Zm2.36.58a6.25,6.25,0,0,0-.62-.73,9,9,0,0,0-.93-.8,9.89,9.89,0,0,1,1.48-1.17l.66-.14.54.1a3.6,3.6,0,0,1-.08,1A4.25,4.25,0,0,1,429.29,7.36Zm2.14-.64a3.39,3.39,0,0,0,0-1.12,3.88,3.88,0,0,0-.22-.8l.43.11c.47.12.89.25,1.28.39l-.54.44A9.44,9.44,0,0,0,431.43,6.72Zm7.08-.57a8.35,8.35,0,0,1,1.29-1q.92-.29,1.91-.56l-1,.49a16.28,16.28,0,0,0-2,1.15,9.2,9.2,0,0,0-.8.62A5.82,5.82,0,0,1,438.51,6.16Zm4,1.08a4.24,4.24,0,0,1,.69-1,7.29,7.29,0,0,1,1.38-1.12c.23.14.45.29.64.43a17.15,17.15,0,0,0-1.9,1.05A8.61,8.61,0,0,0,442.54,7.24Zm3.52-.93a4.08,4.08,0,0,1,.43.57,6.22,6.22,0,0,0-1,1A4.54,4.54,0,0,1,446.06,6.31Zm6.82.48.72-.19a.92.92,0,0,1,.18.89l0,.1A7,7,0,0,0,452.88,6.79Zm2.46.42a2.14,2.14,0,0,0-.82-.85l.75-.18c.15.19.29.38.42.58l0,0C455.59,6.94,455.46,7.08,455.35,7.21Zm2.13-.47c.1.1.2.2.28.29a3.43,3.43,0,0,1,.55.87,9.47,9.47,0,0,0-.89-1.09Zm8.12.77c.06-.21.12-.41.19-.62l.16-.08,0,0,.12.13A5.36,5.36,0,0,0,465.6,7.52Z"/><path class="cls-6" d="M468.85,5.11v0S468.85,5.1,468.85,5.11Z"/><path class="cls-7" d="M118.34,5.11l0,.05,0,0S118.35,5.12,118.34,5.11Z"/><path class="cls-8" d="M118.34,5.11v0S118.34,5.1,118.34,5.11Z"/><path class="cls-9" d="M234.89,5.11v0S234.89,5.1,234.89,5.11Z"/><path class="cls-10" d="M234.89,5.11l0,.05,0,0S234.9,5.12,234.89,5.11Z"/></g></svg>