<svg id="Layer_1" data-name="Layer 1" xmlns="http://www.w3.org/2000/svg" viewBox="0 0 164.16 181.95"><defs><style>.cls-1{fill:#342c29;}.cls-2{fill:#4e423e;}.cls-3{fill:#8b756d;}.cls-4{fill:#685852;}.cls-5{fill:#8e423e;}.cls-6{fill:#ff756d;}.cls-7{fill:#e86767;}.cls-8{fill:#04173c;}.cls-9{fill:#2b90f3;}.cls-10{fill:#98e2ea;}.cls-11{fill:#97dadd;}.cls-12{fill:#b77748;}.cls-13{fill:#895936;}.cls-14{fill:#1c1308;}.cls-15{fill:#060608;}.cls-16{fill:#206eb6;}.cls-17{fill:#515657;}.cls-18{fill:#292b2c;}.cls-19{fill:#151616;}.cls-20{fill:#72aab0;}.cls-21{fill:#0b1314;}.cls-22{fill:#395558;}.cls-23{fill:#3d4141;}.cls-24{fill:#212325;}.cls-25{fill:#293133;}.cls-26{fill:#1f2526;}</style></defs><title>big hen</title><path class="cls-1" d="M85.41,171.9c-1.09.82-1.41,1.52-3.93,1.54s-5.21.41-6.18,1.51a8.48,8.48,0,0,0-1.19,1.58c-.37.55.32.29.93-.17a5.69,5.69,0,0,1,1.49-.21,36.83,36.83,0,0,1,4.14-.16c2,0,6.38,1,6.56,0S86.29,171.24,85.41,171.9Z"/><path class="cls-2" d="M97.48,106.31c2,1.54,0,6.84,1.51,10.05s2.56,5.21,2.09,8.43S97,142.53,97.32,147.27s-.76,17.43,0,20.25.7,4.82-.86,6.51c-1,1.09-1.39,3-2.7,3.12-1.9.25-3.31.85-4.68,1-2.51.25-7.33-2.18-9.51-1.3s-5.17.71-6.32,1.28-.68-.5-.07-1.18A12.12,12.12,0,0,1,78,174c1.77-.36,4.83.25,7.23-1.93s2.61-2,3.1-4.48,1.78-12.79,1.5-16.4,1.38-13,1-15.17-4.13-7.84-4.82-11.06a13.8,13.8,0,0,0-6.63-8.44C76.23,114.71,94.42,104,97.48,106.31Z"/><path d="M104.9,107.9c-3.84.9-4.91,3.44-5.65,5.82s2.22,11.69-2.13,10.39c-2.4-.72-3.79.78-5.69,2-1.31.81-3.71,1.22-4.15,2.13S84,125,82.56,123.07a31.42,31.42,0,0,1-4.14-7.61c-1.3-3.67-2.85-6.86-5.2-8.48-2.53-1.74-1.32-9,7.89-9.12S107.15,107.37,104.9,107.9Z"/><path class="cls-2" d="M87.19,175.14c-2.62,0-5.22.41-6.18,1.51a8.55,8.55,0,0,0-1.19,1.58c-.37.55.32.29.93-.17a5.73,5.73,0,0,1,1.49-.21,16.9,16.9,0,0,1,4.3,0C88.53,178.16,89.71,175.13,87.19,175.14Z"/><path class="cls-3" d="M26,15.37a2.6,2.6,0,0,0,.29-3.1c-.9-1.36-2.47-5.3-4.39-6.35S20.46,4,19.54,2.85s-3.63-3.57-5-2.64-5.3,4.89-5.83,8a26.94,26.94,0,0,0,0,8.22c.28,1-.19.74-1.16,1s-3.2.67-3.59,1.5,4.48,1.4,5.93.86,11.38-.7,13.42-2S25.62,16,26,15.37Z"/><path class="cls-2" d="M4,18.89c.39-.83,2.61-1.22,3.59-1.5s1.44,0,1.16-1a26.94,26.94,0,0,1,0-8.22c.53-3.07,4.49-7,5.83-8l.14-.08c-1.09,1.11-3.63,4.39-4.33,7-.8,3-.11,5.2-.44,6.44-.47,1.78.12,5.62,2.77,5.8a15.77,15.77,0,0,0-2.79.4C8.47,20.3,3.6,19.72,4,18.89Z"/><path class="cls-4" d="M15.82,1.08c1,.55,3.3,2.07,3.39,3.17a4.9,4.9,0,0,0,2.7,3.54c1.38.46,4.13,5.82,3.28,5.59-1.76-.49-6.19-.93-9,.11-1.3.49-3.24,1.19-3.48.22a15.15,15.15,0,0,1-.86-5.41C12.15,5.62,14.38.3,15.82,1.08Z"/><path class="cls-2" d="M4,18.89a1.34,1.34,0,0,1,.56-.53,32.82,32.82,0,0,1,5.19-.8A5.32,5.32,0,0,0,12,17.23c.41-.24,1.58-1.47,2.76-2.27S18.17,14,19.48,14h4.27c.75,0,2.74.64,2.45,1.05l-.19.31c-.4.67-.64,1-2.68,2.33s-12,1.5-13.42,2S3.6,19.72,4,18.89Z"/><path class="cls-5" d="M22.92,58.41c.49,2,1.92,7.37.9,8s-2.53-1.7-2.71-3.63.1-6.47.6-7.25S22.56,57,22.92,58.41Z"/><path class="cls-6" d="M17.93,49.55a23.77,23.77,0,0,1,.9,6c-.09,1.79-.37,4.59-.58,6.15s-.65,5.78.58,5.74,2.17-.14,2.58-2.89-.85-5.8.41-7.73c1.07-1.64-.32-2.83-1.15-4.58S17.65,48.53,17.93,49.55Z"/><path class="cls-7" d="M19.61,54.14c.21-1-1.08-2.36-.06-3.58a8,8,0,0,1,1.11,1.66c.83,1.74,2.22,2.94,1.15,4.58-1,1.46-.46,3.55-.35,5.68a10.29,10.29,0,0,1-.42,2.78c-.33,1-1.76,1.67-2.12.84a8.86,8.86,0,0,1-.06-3.4c.09-.86.35-2.52.47-4.2S19.43,55,19.61,54.14Z"/><path class="cls-8" d="M11.77,21.95a26.19,26.19,0,0,0,4.55,2.8c1.43.64,1.67,2,2.58,1.75a1.3,1.3,0,0,0,.58-2.3c-1-1.11-.68-1.74-2.58-2.19S11,21.3,11.77,21.95Z"/><path class="cls-9" d="M.86,20.17a16.3,16.3,0,0,1,5.71-2c2-.25,4-.29,4.87-.38s1.94-1.94,4-2.79,3.59-.43,6-.67a7.49,7.49,0,0,1,5.36,1.34c1.84,1.07,2,3.64,3.21,5.73,1.09,1.82.93,6.41.82,7.58-.23,2.45-1.24,3.19-2.28,6.18s-.5,6.63,1.83,8.31,11.62,8.83,7,14.48-10.11,9.32-12,7.07S21,54.57,19.08,52s-2.32-8.34-1.77-11.91,2.47-10.38,2.05-12c-.45-1.41-1.63-3.94-2.76-4.82-1.32-1-3.56-.79-4.89-1.12a28.51,28.51,0,0,0-5.86-.44c-1.74,0-4.53.25-4.94.18-.22,0-.38-.23-.58-.19S0,21.8,0,21.51A2,2,0,0,1,.86,20.17Z"/><path class="cls-10" d="M2.35,21.86a8,8,0,0,1-.87-2.06,17.35,17.35,0,0,1,5.09-1.67c2-.25,4-.29,4.87-.38s1.94-1.94,4-2.79,3.59-.43,6-.67a7.49,7.49,0,0,1,5.36,1.34c1.84,1.07,2,3.64,3.21,5.73,1.09,1.82.93,6.41.82,7.58v.11c-.27-3.8-2.47-6.53-4.85-6a8.09,8.09,0,0,1-5.48-.93c-.87-.51-.72-1.88-2.17-1.63-1.14.2-5.45-.13-8.73,1.34a35.85,35.85,0,0,0-3.78-.13C4.82,21.72,3.41,21.81,2.35,21.86Z"/><path class="cls-11" d="M15.49,18.87a6.7,6.7,0,0,0,1.17-1.14c.52-.64.74-1.16,1.55-1S19.72,18,20.92,18.1s1.41.67.81,1.27a6.64,6.64,0,0,1-3.47,1,7.52,7.52,0,0,1-3.05-.39C14.57,19.55,15.22,19.08,15.49,18.87Z"/><path class="cls-11" d="M11.44,17.75c.89-.09,1.94-1.94,4-2.79s3.59-.43,6-.67a7.49,7.49,0,0,1,5.36,1.34c1.43.83,1.82,2.58,2.52,4.31-.17-.44-.48-.94-.6-1.21A8.15,8.15,0,0,0,25,15.24c-1.54-.57-3.29.09-4,.18s-.76-.41-2-.48a8.2,8.2,0,0,0-4.56,1.29c-.85.78-1.33.94-1.89,1.81-.12.2-1.07.24-1.51.49-.24.13-.74-.24-1-.69C10.6,17.81,11.1,17.78,11.44,17.75Z"/><path class="cls-9" d="M16.12,19a1.52,1.52,0,0,0,.52-.53,1.69,1.69,0,0,1,1-.92,1.49,1.49,0,0,1,1.52.49c.26.44.53.91.15,1.4s-.55.87-1.31.77-1.25-.93-1.47-.85S16,19.15,16.12,19Z"/><path class="cls-12" d="M16.93,18.52a1.1,1.1,0,0,0,.8,1.34,1.09,1.09,0,1,0,.55-2.1A1.1,1.1,0,0,0,16.93,18.52Z"/><path class="cls-13" d="M19.14,18.76c-.23.47-1.64.57-2.18-.34a1.11,1.11,0,0,1,1.32-.66A1.14,1.14,0,0,1,19.14,18.76Z"/><path class="cls-14" d="M17.1,18.12a1.15,1.15,0,0,1,.76-.46,1.22,1.22,0,0,1,.46,0,1.2,1.2,0,0,1,.72.55,1.14,1.14,0,0,1,.13.89,1.06,1.06,0,0,1-.21.41,1.21,1.21,0,0,1-.35.29,1.28,1.28,0,0,1-.89.12,1.13,1.13,0,0,1-.42-.2,1.06,1.06,0,0,1-.29-.35,1.19,1.19,0,0,1-.09-.87A1.29,1.29,0,0,1,17.1,18.12Zm0,1.22a1.11,1.11,0,0,0,.65.46,1.13,1.13,0,0,0,.8-.08.93.93,0,0,0,.49-.62,1,1,0,0,0-.14-.78,1.06,1.06,0,0,0-.63-.46,1.15,1.15,0,0,0-.4,0,1.24,1.24,0,0,0-.39.1.94.94,0,0,0-.53.62A1,1,0,0,0,17.12,19.34Z"/><path class="cls-15" d="M17.52,18.7a.45.45,0,0,0,.32.54.4.4,0,0,0,.48-.34.42.42,0,0,0-.81-.2Z"/><path class="cls-11" d="M11.06,18.51c-.19.13-.41.49.15.86a10.71,10.71,0,0,0,2.79,1,13.29,13.29,0,0,1-3.71-.43c-.75-.41-1.25-.19-.8-.83S11.26,18.37,11.06,18.51Z"/><path class="cls-16" d="M11.59,22.11c.12-.62,1.15-1.15,1.93-1.16.55,0,1,.16,1.58.19s.73.61,1,.87c.43.44.15.71,1,1.66a3.39,3.39,0,0,0-.42-.4c-1.32-1-3.56-.79-4.89-1.12Z"/><path class="cls-17" d="M0,21.51a2,2,0,0,1,.86-1.34,16.3,16.3,0,0,1,5.71-2c1.6-.2,3.18-.27,4.2-.33.33.11.09.28.29.49s-.38.22-.66.66,0,.62.86.85a26.54,26.54,0,0,0,4.68.72c1.25,0,3,.19,3,.5s-.66.3-1,.3-4.51-.4-5.19-.17c-.53.18-.19.89-.87,1l-.16,0a28.51,28.51,0,0,0-5.86-.44c-1.74,0-4.53.25-4.94.18-.22,0-.38-.23-.58-.19S0,21.8,0,21.51Z"/><path class="cls-18" d="M1.79,21.44c.68-.17,2.18-.38,2.91-.63A7.2,7.2,0,0,1,7,20.4a25.16,25.16,0,0,1,4.76.39,11.32,11.32,0,0,0,1.78.3,3.11,3.11,0,0,0-.78.07c-.53.18-.19.89-.87,1l-.16,0a28.51,28.51,0,0,0-5.86-.44c-1.74,0-4.53.25-4.94.18a1.33,1.33,0,0,1-.34-.14S1.35,21.55,1.79,21.44Z"/><path class="cls-19" d="M.56,21.73s.09,0,.14,0c.28-.09.56-.16.84-.23l1.13-.26c.75-.17,1.49-.35,2.24-.54a17.49,17.49,0,0,1,2.3-.34c.77-.07,1.54-.11,2.31-.1h.58c.2,0,.39,0,.58.06l1.15.13c.77.08,1.53.14,2.3.2,1.53.12,3.07.26,4.6.45h0c-.77,0-1.54-.07-2.31-.11s-1.54-.1-2.3-.18-1.53-.19-2.29-.28l-1.15-.12-.57,0H9.52c-.77,0-1.53.07-2.3.15A20.29,20.29,0,0,0,5,20.86l-1.13.26-1.13.23-1.14.2-.83.16s-.09,0-.12,0Z"/><path class="cls-16" d="M24.78,24.86c1-.67-1.42,1.5-2.78,3.9-.66,1.18-.39,2.28-.64,3.38-.78,3.35-2,4.87-2.22,7.12s-.95,2.93-.88,1.77,1-6.23,1.22-7.85a9.25,9.25,0,0,0-.18-3.09,6.1,6.1,0,0,0,.06-2,15.08,15.08,0,0,0-2.15-4.2c2.06,2.37,2,1.51,3.6,1.88A5,5,0,0,0,24.78,24.86Z"/><path class="cls-11" d="M25.35,17a2.78,2.78,0,0,1,.52,1.4c0,.46.44,1.78-.26,2.22s-1.37,1-2.12.13-.92-1.2-.89-1.92-.34-1.35.17-1.83A2.39,2.39,0,0,1,25.35,17Z"/><path class="cls-20" d="M25.2,17.8a2.68,2.68,0,0,1,.28,2.31c-.41.92-1.43,1.13-1.7.39s-.51-.89-.37-1.69.8-1.33,1.08-1.31S25.11,17.59,25.2,17.8Z"/><path class="cls-21" d="M25,19.07c.21.07.25.19.15.6s-.62.76-.76.44a1.4,1.4,0,0,1-.21-.63C24.24,19,24.72,19,25,19.07Z"/><path class="cls-20" d="M25.35,17.65a1,1,0,0,0-1.17-.15c-.44.3-.75.64-.75.92s-.2.55-.18.31-.16-.55.12-.93.23-.57.66-.6.94,0,1.14.17S25.47,17.74,25.35,17.65Z"/><path class="cls-22" d="M25.21,19.69c0-.13.14-.38.05-.52S25.15,19,25,19s-.37-.08-.22-.09a.72.72,0,0,1,.47.06c.09.08.16.06.16.34S25.18,19.83,25.21,19.69Z"/><path class="cls-23" d="M3.23,20a1.26,1.26,0,0,1,.44-.67c.24-.13.43-.39.79-.37a1.41,1.41,0,0,1,.9.27c.14.18.19.68-.19.77a2.87,2.87,0,0,1-1.25.17C3.58,20,3.18,20.1,3.23,20Z"/><path class="cls-24" d="M3.67,19.31c.24-.13.43-.39.79-.37a1.41,1.41,0,0,1,.9.27c.14.18.19.68-.19.77l-.1,0c-.11,0-.35-.15-.69-.24s-1.15.22-1.09,0A1,1,0,0,1,3.67,19.31Z"/><path class="cls-24" d="M5.54,19.63c0-.12,0-.38-.07-.46A.94.94,0,0,0,5,18.94a2,2,0,0,0-.75,0c-.22.07-.12,0-.07,0s.32,0,.42-.06a.75.75,0,0,1,.32,0,2.29,2.29,0,0,0,.37.08.35.35,0,0,1,.26.17.83.83,0,0,1,.08.37C5.59,19.58,5.53,19.7,5.54,19.63Z"/><path class="cls-23" d="M4.49,20.23a1.73,1.73,0,0,1-.52,0,2.77,2.77,0,0,0-.49-.1c-.16,0-.27.06-.12.06a.71.71,0,0,1,.33.06,1.18,1.18,0,0,0,.37,0C4.21,20.27,4.73,20.22,4.49,20.23Z"/><path class="cls-9" d="M26.38,20.81a1.83,1.83,0,0,0,.23,1.41c.32.32.17.64.88.91,1.28.48-1.68,1.09-2.91.9-2-.31-3.68-1.6-2.79-1.35.67.19,1.16.22,1-.53s-1.28-1.42-.59-1.33,1.7.58,2.46.63C26.07,21.56,26.51,20.44,26.38,20.81Z"/><path class="cls-11" d="M30.07,21.36a4.56,4.56,0,0,1,.45,1.11.63.63,0,0,1-.29.71c-.51.39-.52.21-.4-.56a5.62,5.62,0,0,0-.39-2.57A9.83,9.83,0,0,0,30.07,21.36Z"/><path class="cls-16" d="M19.08,52A10.23,10.23,0,0,1,17.54,48c.92,2.52,3.45-3.48,4.31-5.38C23,40,25.13,42.54,26,44s1.5,2.3,1.78,1,4.2,1.56,4.2,1.56,1.87,2.54,4,6.06-3,7.38-8.15,7.9c-2,.2-4-1-5.79-2.63A34.34,34.34,0,0,0,19.08,52Z"/><path class="cls-6" d="M27,35.58c.8-1.78,2.3-5,2.58-6a10.58,10.58,0,0,0,.67-2.48c.1-1.12.1-2.4.15-3,0-.41.33-.5.39-.08a26.37,26.37,0,0,1,.08,5c-.23,2.45-1.24,3.19-2.28,6.18s-.5,6.63,1.83,8.31c1.69,1.22,7.07,5.33,8.08,9.66C35.09,51.71,29,44.94,27.4,43.37,25.64,41.61,26.21,37.36,27,35.58Z"/><path class="cls-7" d="M27.48,39.23c0-.43.45-1.68.85-3.2-.65,2.78,0,5.89,2.1,7.4A33.72,33.72,0,0,1,34.68,47a2.15,2.15,0,0,1-.31.42c-.31.21-3.81-2.77-5.44-4.3A4.1,4.1,0,0,1,27.48,39.23Z"/><path class="cls-25" d="M29.74,55.07c-1.34-1.42-4.14-2.22-4.14-4.36S25.47,43,24.18,44s-3.7,4.14-3.7,6.59c0,2.67.16,4.16,1.72,8.87.42,1.28,3.61,4.46,5.59,8,3,5.32,7.36,11.26,9.51,16.16,2,4.53,12,11.75,18.65,15.43s21.44,12.4,34.41,11.85,33.13,0,40.86,5,15.16,7.43,16,9.76,1.47,3.67,3.31,3.18a8.35,8.35,0,0,1,4,.1c1.1.14,2.21-.35,3.56-1.94s3.44-2.45,4-1.71,1.23-4.29.86-9.43-1-12.49.11-12.24,1.73-3.31-.73-6.61-1.59-4.16-1.84-6.61-3.31-6.61-6.13-8.45-.86-3.06-2.82-4.65-2.82-7.47-8.22-10.41-26.5-15.31-33.86-17.14S80.85,45.2,69.46,44.53s-27,.28-29.14.28-7.66-.29-7.81.21c0,0,.06.07.09.1.45.52-1.64,1.31-2.53,1.28s-.57,2.07-.2,3.08a22.45,22.45,0,0,1,1.21,4.8C31.05,55.76,30.27,55.65,29.74,55.07Z"/><path class="cls-26" d="M117.56,89c-2.94-3.8-6.26-8.94-2.82-9.92s7.73-.37,7.12-2.69,6.5-1.47,8.59-.73,7.24-1,7.12-2.33-1.1-3.18,2.09-3.8,4.66,1.84,3.07-1.35a16.34,16.34,0,0,0-4.06-4c2.06,1.16,3.74,2.11,4.8,2.69,5.4,2.94,6.26,8.82,8.22,10.41s0,2.82,2.82,4.65,5.89,6,6.13,8.45-.61,3.31,1.84,6.61,1.84,6.86.73,6.61-.48,7.1-.11,12.24-.25,10.16-.86,9.43-2.7.12-4,1.71-2.45,2.08-3.56,1.94a8.35,8.35,0,0,0-4-.1c-1.84.49-2.45-.86-3.31-3.18s-8.29-4.8-16-9.76a21.45,21.45,0,0,0-5.44-2.32c-.41-1.9-1.65-3.93-3.08-7.14C120.38,101.1,120.5,92.77,117.56,89Z"/><path class="cls-26" d="M75.16,108.2C67.22,105.45,60,101.28,56,99c-6.63-3.67-16.66-10.9-18.65-15.43a66.2,66.2,0,0,0-4.55-8.09,17.81,17.81,0,0,0,3.07-4.39c1.35-3.18,1.84-4.16,5.15-2.45s6.75-2.08,12,1.47,7.48,4.23,10.8,2.79,6.75,1.38,8.34,2.11,16.69-11.14,15-7.59-2.58,2.33-5.89,9.67-7.36,10.77-7.36,15.67,1,12.86,1.29,15.43Z"/><path class="cls-26" d="M63.2,44.31c2.16,0,4.27.1,6.25.22,11.39.67,32.76,3.31,40.12,5.14S138,63.88,143.44,66.81a11.86,11.86,0,0,1,3,2.38c-.29,4.29-1.92,6.81-3.41,4.11-3.31-6-13.87-8.69-16.07-12.35s-13.86-4.66-15.83-6.62-12.39-2.2-17.05-5.06C91.17,47.47,74.82,45.51,63.2,44.31Z"/><path class="cls-26" d="M22.21,59.44a34.67,34.67,0,0,1-1.54-5.75c1.33,5.12,3.83,6,5.58,7.26,2.68,2,7.66,13.46,8.94,11.38.64-1,.9,6,.6,8.2-2.31-4.2-5.59-8.85-8-13.11C25.82,63.89,22.63,60.72,22.21,59.44Z"/><path class="cls-26" d="M74.29,100.09c.75,4.19,7.81,3.33,13,5.54s14.71,2,23.18,2.57,11.81-1.2,11.35-4.44c-.43-3,10.9,7.3,10.09,12.48l-.65-.41c-7.73-5-27.88-5.51-40.86-5-10.95.46-23.21-5.68-30.75-9.82C62.44,99,74,98.73,74.29,100.09Z"/><path class="cls-4" d="M96.51,175.5c-1.09.82-1.31,1.33-3.83,1.34s-5.21.41-6.18,1.52a8.54,8.54,0,0,0-1.19,1.58c-.37.55.32.29.93-.17a5.75,5.75,0,0,1,1.49-.21,36.81,36.81,0,0,1,4.14-.16c2,0,6.38,1,6.56,0S97.39,174.84,96.51,175.5Z"/><path class="cls-3" d="M108.72,109.79c2,1.54,0,6.84,1.51,10.05s2.56,5.21,2.09,8.43-4.09,17.72-3.75,22.46-.76,17.43,0,20.25.7,4.82-.86,6.51c-1,1.09-1.39,3-2.7,3.12-1.9.24-3.31.85-4.68,1-2.52.25-7.33-2.18-9.51-1.3s-5.17.71-6.32,1.27-.68-.5-.07-1.18a12.13,12.13,0,0,1,4.83-3c1.76-.35,4.83.25,7.23-1.92s2.61-2,3.1-4.48,1.78-12.79,1.5-16.4,1.38-13,1-15.17-4.13-7.83-4.82-11.06A13.8,13.8,0,0,0,90.68,120C87.46,118.19,105.65,107.47,108.72,109.79Z"/><path class="cls-4" d="M105.11,179c1.38-1.85,2.94-5.33,1.93-7.9s.37-10.56.64-13.77-.37-9.18.43-12.67,1.78-11.6,2.76-15.09.86-3.06,0-4.22a8.74,8.74,0,0,0-4.48-3.83c-.55-.19-.5-3.14,3.61-2.22a4.79,4.79,0,0,0,.22.55c1.54,3.21,2.56,5.21,2.09,8.43s-4.09,17.72-3.75,22.46-.76,17.43,0,20.25.7,4.82-.86,6.51c-1,1.09-1.39,3-2.7,3.12-1.9.24-3.31.85-4.68,1a5,5,0,0,1-.91,0C101.24,181,104.06,180.4,105.11,179Z"/><path class="cls-26" d="M115.45,111.56c-3-.05-5.33,3.47-4.84,5.92.28,1.38.15,5.76-1.75,7.16-1.4,1-8.43,5-9,6.79-1.49,4.59-10.19-8.82-11.49-12.49s-5.9-8.74-8.84-9.41,2.33-8.06,11.53-8.19S117.76,111.59,115.45,111.56Z"/><path class="cls-3" d="M97.95,178.54c-2.62,0-5.21.41-6.18,1.52a8.5,8.5,0,0,0-1.19,1.58c-.37.55.32.29.93-.17a5.71,5.71,0,0,1,1.49-.21,28.15,28.15,0,0,1,4.8.05c2,.27,4.13-.62,4.32-1.63S100.47,178.53,97.95,178.54Z"/></svg>