<svg id="Layer_1" data-name="Layer 1" xmlns="http://www.w3.org/2000/svg" viewBox="0 0 124.63 114"><defs><style>.cls-1{fill:#342c29;}.cls-2{fill:#4e423e;}.cls-3{fill:#8b756d;}.cls-4{fill:#685852;}.cls-5{fill:#8e423e;}.cls-6{fill:#ff756d;}.cls-7{fill:#e86767;}.cls-8{fill:#04173c;}.cls-9{fill:#2b90f3;}.cls-10{fill:#98e2ea;}.cls-11{fill:#97dadd;}.cls-12{fill:#b77748;}.cls-13{fill:#895936;}.cls-14{fill:#1c1308;}.cls-15{fill:#060608;}.cls-16{fill:#206eb6;}.cls-17{fill:#515657;}.cls-18{fill:#292b2c;}.cls-19{fill:#151616;}.cls-20{fill:#72aab0;}.cls-21{fill:#0b1314;}.cls-22{fill:#395558;}.cls-23{fill:#3d4141;}.cls-24{fill:#212325;}.cls-25{fill:#293133;}.cls-26{fill:#1f2526;}</style></defs><title>small hen</title><path class="cls-1" d="M79.81,99.48a2.5,2.5,0,0,0,2.06.81c1.38,0,2.74.22,3.24.8a4.45,4.45,0,0,1,.63.83c.19.29-.17.15-.49-.09a3,3,0,0,0-.78-.11,19.33,19.33,0,0,0-2.17-.08c-1.06,0-3.35.53-3.45,0S79.34,99.13,79.81,99.48Z"/><path class="cls-2" d="M73.47,65c-1.07.81,0,3.59-.79,5.28s-1.34,2.74-1.1,4.43,2.15,9.3,2,11.79.4,9.15,0,10.63-.37,2.53.45,3.42c.53.57.73,1.55,1.42,1.64,1,.13,1.74.45,2.46.52,1.32.13,3.85-1.14,5-.68s2.71.37,3.32.67.35-.26,0-.62a6.36,6.36,0,0,0-2.54-1.56c-.93-.19-2.53.13-3.79-1s-1.37-1.05-1.63-2.35a54.72,54.72,0,0,1-.79-8.61c.15-1.9-.73-6.84-.54-8s2.17-4.11,2.53-5.81a7.24,7.24,0,0,1,3.48-4.43C84.63,69.46,75.08,63.83,73.47,65Z"/><path d="M69.57,65.88a3.82,3.82,0,0,1,3,3.06c.39,1.25-1.16,6.14,1.12,5.45,1.26-.38,2,.41,3,1,.69.43,1.95.64,2.18,1.12s1.71-1.7,2.48-2.68a16.49,16.49,0,0,0,2.17-4c.68-1.93,1.49-3.6,2.73-4.45s.69-4.73-4.14-4.79S68.39,65.61,69.57,65.88Z"/><path class="cls-2" d="M78.87,101.18c1.38,0,2.74.22,3.24.8a4.49,4.49,0,0,1,.63.83c.19.29-.17.15-.49-.09a3,3,0,0,0-.78-.11,8.87,8.87,0,0,0-2.25,0C78.17,102.76,77.55,101.17,78.87,101.18Z"/><path class="cls-3" d="M111,17.32a1.36,1.36,0,0,1-.15-1.63c.47-.71,1.3-2.78,2.3-3.33s.77-1,1.25-1.61,1.91-1.88,2.61-1.39,2.78,2.57,3.06,4.18a14.14,14.14,0,0,1,0,4.31c-.15.54.1.39.61.53s1.68.35,1.89.79-2.35.74-3.11.45-6-.37-7-1.07S111.19,17.67,111,17.32Z"/><path class="cls-2" d="M122.54,19.17c-.21-.44-1.37-.64-1.89-.79s-.76,0-.61-.53a14.14,14.14,0,0,0,0-4.31c-.28-1.61-2.36-3.69-3.06-4.18l-.08,0A10.58,10.58,0,0,1,119.18,13c.42,1.55.06,2.73.23,3.38.24.93-.06,2.95-1.45,3a8.27,8.27,0,0,1,1.47.21C120.19,19.9,122.74,19.6,122.54,19.17Z"/><path class="cls-4" d="M116.33,9.82c-.54.29-1.73,1.08-1.78,1.66a2.57,2.57,0,0,1-1.42,1.86c-.72.24-2.17,3.06-1.72,2.93a9.37,9.37,0,0,1,4.71.06c.68.26,1.7.62,1.82.11a8,8,0,0,0,.45-2.84C118.26,12.2,117.09,9.41,116.33,9.82Z"/><path class="cls-2" d="M122.54,19.17a.7.7,0,0,0-.3-.28,17.23,17.23,0,0,0-2.73-.42,2.79,2.79,0,0,1-1.16-.18c-.22-.13-.83-.77-1.45-1.19a5.2,5.2,0,0,0-2.5-.5h-2.24c-.39,0-1.44.33-1.29.55l.1.16c.21.35.33.52,1.4,1.22s6.28.79,7,1.07S122.74,19.6,122.54,19.17Z"/><path class="cls-5" d="M112.6,39.91c-.26,1-1,3.87-.47,4.2s1.33-.89,1.42-1.9a11.84,11.84,0,0,0-.32-3.81C113,38,112.79,39.14,112.6,39.91Z"/><path class="cls-6" d="M115.22,35.26a12.48,12.48,0,0,0-.47,3.14c0,.94.2,2.41.3,3.23s.34,3-.31,3-1.14-.07-1.35-1.52.45-3-.21-4.06c-.56-.86.17-1.49.6-2.4S115.37,34.72,115.22,35.26Z"/><path class="cls-7" d="M114.34,37.67c-.11-.52.57-1.24,0-1.88a4.2,4.2,0,0,0-.58.87c-.43.92-1.16,1.54-.6,2.4s.24,1.87.18,3a5.4,5.4,0,0,0,.22,1.46c.17.55.92.88,1.11.44a4.65,4.65,0,0,0,0-1.79c0-.45-.19-1.32-.24-2.21S114.44,38.12,114.34,37.67Z"/><path class="cls-8" d="M118.45,20.77a13.74,13.74,0,0,1-2.39,1.47c-.75.34-.87,1.05-1.35.92a.68.68,0,0,1-.3-1.21c.52-.58.36-.92,1.35-1.15S118.88,20.43,118.45,20.77Z"/><path class="cls-9" d="M124.18,19.84a8.55,8.55,0,0,0-3-1.07c-1-.13-2.09-.15-2.55-.2s-1-1-2.11-1.46-1.88-.23-3.17-.35a3.93,3.93,0,0,0-2.82.71c-1,.56-1,1.91-1.69,3s-.49,3.36-.43,4c.12,1.29.65,1.68,1.2,3.24s.26,3.48-1,4.36-6.1,4.64-3.66,7.6,5.31,4.89,6.29,3.71,2.31-5.46,3.32-6.82,1.22-4.38.93-6.25-1.3-5.45-1.08-6.29a6.49,6.49,0,0,1,1.45-2.53c.69-.54,1.87-.42,2.57-.59a15,15,0,0,1,3.07-.23c.91,0,2.38.13,2.59.09s.2-.12.3-.1.19.06.18-.09A1,1,0,0,0,124.18,19.84Z"/><path class="cls-10" d="M123.4,20.72a4.18,4.18,0,0,0,.46-1.08,9.1,9.1,0,0,0-2.67-.87c-1-.13-2.09-.15-2.55-.2s-1-1-2.11-1.46-1.88-.23-3.17-.35a3.93,3.93,0,0,0-2.82.71c-1,.56-1,1.91-1.69,3s-.49,3.36-.43,4v.06c.14-2,1.3-3.43,2.55-3.15a4.25,4.25,0,0,0,2.88-.49c.46-.27.38-1,1.14-.86.6.1,2.86-.07,4.58.71a18.82,18.82,0,0,1,2-.07C122.1,20.65,122.84,20.7,123.4,20.72Z"/><path class="cls-11" d="M116.51,19.15a3.51,3.51,0,0,1-.61-.6c-.27-.34-.39-.61-.81-.52s-.8.66-1.43.71-.74.35-.43.67a3.49,3.49,0,0,0,1.82.51,4,4,0,0,0,1.6-.2C117,19.51,116.64,19.27,116.51,19.15Z"/><path class="cls-11" d="M118.63,18.57c-.47,0-1-1-2.11-1.46s-1.88-.23-3.17-.35a3.93,3.93,0,0,0-2.82.71c-.75.44-1,1.36-1.32,2.26.09-.23.25-.5.31-.64a4.28,4.28,0,0,1,2-1.83,4,4,0,0,1,2.12.1c.39,0,.4-.22,1.06-.25a4.3,4.3,0,0,1,2.39.67c.45.41.7.49,1,1,.07.1.56.13.79.26s.39-.13.54-.36Z"/><path class="cls-9" d="M116.18,19.22a.8.8,0,0,1-.27-.28.89.89,0,0,0-.52-.49.78.78,0,0,0-.8.26c-.14.23-.28.48-.08.74s.29.46.69.41.66-.49.77-.45S116.26,19.3,116.18,19.22Z"/><ellipse class="cls-12" cx="115.18" cy="19.12" rx="0.59" ry="0.57" transform="translate(-1.05 30.26) rotate(-14.9)"/><path class="cls-13" d="M114.59,19.09c.12.25.86.3,1.14-.18a.58.58,0,0,0-.7-.35A.6.6,0,0,0,114.59,19.09Z"/><path class="cls-14" d="M115.75,19a.62.62,0,0,1,0,.46.55.55,0,0,1-.15.18.59.59,0,0,1-.22.1.67.67,0,0,1-.47-.06.64.64,0,0,1-.18-.15.56.56,0,0,1-.11-.21.6.6,0,0,1,.07-.47.63.63,0,0,1,.38-.29.64.64,0,0,1,.24,0,.6.6,0,0,1,.4.24A.67.67,0,0,1,115.75,19Zm0,0a.49.49,0,0,0-.28-.33.65.65,0,0,0-.21-.05.6.6,0,0,0-.21,0,.56.56,0,0,0-.33.24.54.54,0,0,0-.07.41.49.49,0,0,0,.26.33.59.59,0,0,0,.42,0,.58.58,0,0,0,.34-.24A.54.54,0,0,0,115.73,19Z"/><path class="cls-15" d="M115.44,19.06a.23.23,0,0,1-.17.28.21.21,0,0,1-.25-.18.22.22,0,0,1,.42-.11Z"/><path class="cls-11" d="M118.83,19c.1.07.21.25-.08.45a5.62,5.62,0,0,1-1.46.5,7,7,0,0,0,1.95-.23c.39-.21.66-.1.42-.44S118.73,18.89,118.83,19Z"/><path class="cls-16" d="M118.55,20.85c-.06-.32-.6-.6-1-.61s-.54.08-.83.1-.38.32-.51.45-.08.37-.5.87a1.78,1.78,0,0,1,.22-.21c.69-.54,1.87-.42,2.57-.59Z"/><path class="cls-17" d="M124.63,20.54a1,1,0,0,0-.45-.7,8.55,8.55,0,0,0-3-1.07c-.84-.1-1.67-.14-2.21-.17-.17.06,0,.15-.15.26s.2.12.35.35,0,.32-.45.45a13.93,13.93,0,0,1-2.45.38c-.66,0-1.59.1-1.59.26s.35.16.54.16a19.48,19.48,0,0,1,2.72-.09c.28.09.1.47.46.53l.08,0a15,15,0,0,1,3.07-.23c.91,0,2.38.13,2.59.09s.2-.12.3-.1S124.64,20.69,124.63,20.54Z"/><path class="cls-18" d="M123.69,20.5c-.36-.09-1.14-.2-1.53-.33A3.78,3.78,0,0,0,121,20a13.21,13.21,0,0,0-2.5.2,5.94,5.94,0,0,1-.94.16,1.63,1.63,0,0,1,.41,0c.28.09.1.47.46.53l.08,0a15,15,0,0,1,3.07-.23c.91,0,2.38.13,2.59.09a.7.7,0,0,0,.18-.07Z"/><path class="cls-19" d="M124.34,20.65s0,0-.07,0l-.44-.12-.59-.14-1.18-.29a9.18,9.18,0,0,0-1.2-.18c-.4,0-.81-.06-1.21-.05h-.3l-.3,0-.6.07-1.21.11c-.8.07-1.61.14-2.41.23h0l1.21-.06,1.21-.09,1.2-.15.6-.06.3,0h.3c.4,0,.81,0,1.21.08a10.65,10.65,0,0,1,1.19.19l.59.14.6.12.6.11.44.09s0,0,.07,0Z"/><path class="cls-16" d="M111.63,22.3c-.53-.35.74.79,1.46,2a5.41,5.41,0,0,1,.34,1.77c.41,1.76,1,2.55,1.17,3.74s.5,1.54.46.93-.5-3.27-.64-4.12A4.86,4.86,0,0,1,114.5,25a3.2,3.2,0,0,1,0-1,7.91,7.91,0,0,1,1.13-2.2c-1.08,1.25-1,.79-1.89,1A2.61,2.61,0,0,1,111.63,22.3Z"/><path class="cls-11" d="M111.33,18.17a1.46,1.46,0,0,0-.27.73c0,.24-.23.93.14,1.17s.72.53,1.11.07.48-.63.47-1,.18-.71-.09-1A1.25,1.25,0,0,0,111.33,18.17Z"/><path class="cls-20" d="M111.41,18.59a1.41,1.41,0,0,0-.14,1.21c.22.48.75.59.89.2s.27-.46.19-.89-.42-.7-.57-.69S111.46,18.48,111.41,18.59Z"/><path class="cls-21" d="M111.51,19.26c-.11,0-.13.1-.08.32s.33.4.4.23a.73.73,0,0,0,.11-.33C111.91,19.21,111.66,19.21,111.51,19.26Z"/><path class="cls-20" d="M111.33,18.51a.53.53,0,0,1,.62-.08c.23.16.39.34.39.48s.1.29.1.16.08-.29-.06-.49-.12-.3-.35-.32-.5,0-.6.09S111.27,18.56,111.33,18.51Z"/><path class="cls-22" d="M111.4,19.58c0-.07-.07-.2,0-.27s.06-.1.16-.1.19,0,.12,0a.38.38,0,0,0-.25,0s-.08,0-.08.18S111.42,19.66,111.4,19.58Z"/><path class="cls-23" d="M122.94,19.74a.66.66,0,0,0-.23-.35c-.13-.07-.22-.2-.42-.19a.74.74,0,0,0-.47.14c-.08.09-.1.36.1.4a1.5,1.5,0,0,0,.66.09C122.76,19.77,123,19.8,122.94,19.74Z"/><path class="cls-24" d="M122.71,19.38c-.13-.07-.22-.2-.42-.19a.74.74,0,0,0-.47.14c-.08.09-.1.36.1.4H122c.06,0,.18-.08.36-.13s.6.11.57,0A.52.52,0,0,0,122.71,19.38Z"/><path class="cls-24" d="M121.73,19.56c0-.06,0-.2,0-.24a.49.49,0,0,1,.27-.12,1,1,0,0,1,.39,0c.11,0,.06,0,0,0l-.22,0a.39.39,0,0,0-.17,0l-.19,0a.18.18,0,0,0-.14.09.43.43,0,0,0,0,.2C121.7,19.53,121.73,19.59,121.73,19.56Z"/><path class="cls-23" d="M122.27,19.87a.91.91,0,0,0,.27,0,1.45,1.45,0,0,1,.26-.05c.08,0,.14,0,.06,0a.37.37,0,0,0-.18,0,.62.62,0,0,1-.19,0Z"/><path class="cls-9" d="M110.79,20.17a1,1,0,0,1-.12.74c-.17.17-.09.34-.46.48-.67.25.88.57,1.53.47,1-.16,1.93-.84,1.46-.71s-.61.12-.5-.28.67-.75.31-.7-.89.3-1.29.33C111,20.56,110.72,20,110.79,20.17Z"/><path class="cls-11" d="M108.85,20.46a2.39,2.39,0,0,0-.23.58.33.33,0,0,0,.15.37c.27.21.27.11.21-.3a3,3,0,0,1,.21-1.35A5.16,5.16,0,0,1,108.85,20.46Z"/><path class="cls-16" d="M114.62,36.53a5.37,5.37,0,0,0,.81-2.07c-.48,1.32-1.81-1.82-2.26-2.82-.63-1.38-1.72-.06-2.16.72s-.79,1.21-.93.51-2.21.82-2.21.82-1,1.33-2.08,3.18,1.59,3.87,4.28,4.15a4.08,4.08,0,0,0,3-1.38A18,18,0,0,1,114.62,36.53Z"/><path class="cls-6" d="M110.46,27.93c-.42-.93-1.21-2.63-1.36-3.17a5.55,5.55,0,0,1-.35-1.3c-.05-.59-.05-1.26-.08-1.57s-.17-.26-.21,0a13.84,13.84,0,0,0,0,2.6c.12,1.29.65,1.68,1.2,3.24s.26,3.48-1,4.36c-.89.64-3.71,2.8-4.24,5.07,1.8-.72,5-4.28,5.83-5.1S110.87,28.86,110.46,27.93Z"/><path class="cls-7" d="M110.21,29.84c0-.23-.24-.88-.45-1.68a3.74,3.74,0,0,1-1.1,3.88,17.7,17.7,0,0,0-2.23,1.9,1.13,1.13,0,0,0,.16.22,14.51,14.51,0,0,0,2.85-2.26A2.15,2.15,0,0,0,110.21,29.84Z"/><path class="cls-25" d="M109,38.16c.7-.75,2.17-1.16,2.17-2.29s.06-4,.74-3.53a5.58,5.58,0,0,1,1.94,3.46,12.11,12.11,0,0,1-.9,4.66c-.22.67-1.9,2.34-2.94,4.19-1.57,2.79-3.86,5.91-5,8.48-1,2.38-6.31,6.17-9.79,8.1S84,67.73,77.2,67.44s-17.39,0-21.44,2.6-8,3.9-8.41,5.12-.77,1.93-1.74,1.67a4.38,4.38,0,0,0-2.13.05c-.58.08-1.16-.18-1.87-1s-1.8-1.29-2.13-.9S38.85,72.72,39,70s.53-6.55-.06-6.43-.91-1.74.38-3.47.84-2.19,1-3.47,1.74-3.47,3.22-4.43S44,50.62,45,49.78s1.48-3.92,4.31-5.46,13.91-8,17.77-9S82.2,33,88.18,32.62s14.15.14,15.29.14,4-.15,4.1.11c0,0,0,0,0,.05-.24.28.86.69,1.33.67s.3,1.08.1,1.61a11.78,11.78,0,0,0-.64,2.52C108.34,38.52,108.74,38.46,109,38.16Z"/><path class="cls-26" d="M62.93,55.95c1.55-2,3.28-4.69,1.48-5.2s-4.06-.19-3.74-1.41-3.41-.77-4.51-.39-3.8-.51-3.73-1.22.58-1.67-1.09-2-2.45,1-1.61-.71a8.58,8.58,0,0,1,2.13-2.12l-2.52,1.41c-2.83,1.54-3.28,4.63-4.31,5.46s0,1.48-1.48,2.44-3.09,3.15-3.22,4.43.32,1.73-1,3.47-1,3.6-.38,3.47.25,3.73.06,6.43.13,5.33.45,4.95,1.42.06,2.13.9,1.29,1.09,1.87,1a4.38,4.38,0,0,1,2.13-.05c1,.26,1.29-.45,1.74-1.67S51.7,72.65,55.76,70a11.26,11.26,0,0,1,2.86-1.22,25.42,25.42,0,0,1,1.62-3.75C61.45,62.31,61.39,57.94,62.93,55.95Z"/><path class="cls-26" d="M85.18,66a63.6,63.6,0,0,0,10.08-4.82c3.48-1.93,8.75-5.72,9.79-8.1a34.74,34.74,0,0,1,2.39-4.25,9.35,9.35,0,0,1-1.61-2.31c-.71-1.67-1-2.19-2.7-1.29s-3.54-1.09-6.31.77-3.93,2.22-5.67,1.46-3.54.72-4.38,1.11-8.76-5.85-7.86-4,1.35,1.22,3.09,5.08,3.86,5.66,3.86,8.23-.52,6.75-.68,8.1Z"/><path class="cls-26" d="M91.46,32.51c-1.13,0-2.24.05-3.28.11-6,.35-17.19,1.73-21.06,2.7s-14.94,7.45-17.77,9a6.22,6.22,0,0,0-1.6,1.25c.15,2.25,1,3.57,1.79,2.16,1.74-3.15,7.28-4.56,8.44-6.48s7.28-2.45,8.31-3.48,6.5-1.16,9-2.65C76.78,34.16,85.36,33.14,91.46,32.51Z"/><path class="cls-26" d="M113,40.45a18.2,18.2,0,0,0,.81-3,5.51,5.51,0,0,1-2.93,3.81c-1.4,1-4,7.06-4.69,6-.33-.54-.47,3.12-.31,4.31,1.21-2.2,2.93-4.65,4.19-6.88C111.08,42.79,112.75,41.12,113,40.45Z"/><path class="cls-26" d="M85.64,61.78c-.4,2.2-4.1,1.75-6.81,2.91S71.11,65.75,66.67,66s-6.2-.63-6-2.33-5.72,3.83-5.3,6.55l.34-.22c4.06-2.6,14.63-2.89,21.44-2.6,5.75.24,12.18-3,16.14-5.15C91.86,61.19,85.77,61.07,85.64,61.78Z"/><path class="cls-4" d="M74,101.37a2.37,2.37,0,0,0,2,.7c1.38,0,2.74.22,3.24.8a4.48,4.48,0,0,1,.63.83c.19.29-.17.15-.49-.09a3,3,0,0,0-.78-.11,19.32,19.32,0,0,0-2.17-.08c-1.06,0-3.35.53-3.45,0S73.52,101,74,101.37Z"/><path class="cls-3" d="M67.57,66.87c-1.07.81,0,3.59-.79,5.28s-1.34,2.74-1.1,4.43,2.15,9.3,2,11.79.4,9.15,0,10.63-.37,2.53.45,3.42c.53.57.73,1.55,1.42,1.64,1,.13,1.74.44,2.46.52,1.32.13,3.85-1.14,5-.68s2.71.37,3.32.67.35-.26,0-.62a6.37,6.37,0,0,0-2.53-1.56c-.93-.19-2.53.13-3.79-1s-1.37-1.05-1.63-2.35a54.71,54.71,0,0,1-.79-8.61c.15-1.9-.73-6.84-.54-8s2.17-4.11,2.53-5.8A7.25,7.25,0,0,1,77,72.21C78.73,71.28,69.18,65.66,67.57,66.87Z"/><path class="cls-4" d="M69.47,103.2c-.73-1-1.54-2.8-1-4.15s-.19-5.54-.34-7.23.19-4.82-.23-6.65-.93-6.09-1.45-7.92-.45-1.61,0-2.22a4.59,4.59,0,0,1,2.35-2c.29-.1.26-1.65-1.89-1.16a2.51,2.51,0,0,1-.12.29c-.81,1.69-1.34,2.74-1.1,4.43s2.15,9.3,2,11.79.4,9.15,0,10.63-.37,2.53.45,3.42c.53.57.73,1.55,1.42,1.64,1,.13,1.74.44,2.46.52a2.63,2.63,0,0,0,.48,0C71.5,104.28,70,103.94,69.47,103.2Z"/><path class="cls-26" d="M64,67.8a2.79,2.79,0,0,1,2.54,3.11c-.14.72-.08,3,.92,3.76.73.54,4.42,2.61,4.73,3.57.78,2.41,5.35-4.63,6-6.55s3.1-4.59,4.64-4.94-1.22-4.23-6.05-4.3S62.83,67.82,64,67.8Z"/><path class="cls-3" d="M73.22,103c1.38,0,2.74.22,3.24.8a4.46,4.46,0,0,1,.63.83c.19.29-.17.15-.49-.09a3,3,0,0,0-.78-.11,14.77,14.77,0,0,0-2.52,0c-1.05.14-2.17-.32-2.27-.85S71.9,103,73.22,103Z"/><path class="cls-1" d="M49.34,107.7a3,3,0,0,0,2.46,1c1.64,0,3.27.26,3.87.95a5.31,5.31,0,0,1,.75,1c.23.34-.2.18-.58-.11a3.57,3.57,0,0,0-.93-.13,23.07,23.07,0,0,0-2.6-.1c-1.27,0-4,.63-4.11,0S48.79,107.29,49.34,107.7Z"/><path class="cls-2" d="M41.78,66.61c-1.27,1,0,4.29-.94,6.3s-1.6,3.27-1.31,5.28,2.56,11.1,2.35,14.07.48,10.92,0,12.69-.44,3,.54,4.08c.63.68.87,1.85,1.69,2,1.19.15,2.07.53,2.93.62,1.58.16,4.59-1.36,6-.82s3.24.45,4,.8.42-.32,0-.74A7.59,7.59,0,0,0,54,109c-1.11-.22-3,.16-4.53-1.21s-1.64-1.26-1.94-2.81a65.31,65.31,0,0,1-.94-10.28c.17-2.27-.87-8.16-.64-9.51s2.59-4.91,3-6.93A8.65,8.65,0,0,1,53.08,73C55.1,71.87,43.7,65.16,41.78,66.61Z"/><path d="M37.13,67.6c2.4.56,3.08,2.15,3.54,3.65S39.27,78.57,42,77.76c1.51-.45,2.38.49,3.57,1.22.82.51,2.32.77,2.6,1.33s2-2,3-3.2a19.69,19.69,0,0,0,2.6-4.77C54.54,70,55.51,68,57,67s.82-5.64-4.94-5.72S35.72,67.27,37.13,67.6Z"/><path class="cls-2" d="M48.23,109.73c1.64,0,3.27.26,3.87.95a5.36,5.36,0,0,1,.75,1c.23.34-.2.18-.58-.11a3.59,3.59,0,0,0-.93-.13,10.59,10.59,0,0,0-2.69,0C47.39,111.62,46.65,109.72,48.23,109.73Z"/><path class="cls-3" d="M86.55,9.63a1.63,1.63,0,0,1-.18-1.94c.56-.85,1.55-3.32,2.75-4S90,2.52,90.61,1.79,92.89-.45,93.73.13s3.32,3.06,3.65,5a16.88,16.88,0,0,1,0,5.15c-.18.64.12.46.73.63s2,.42,2.25.94-2.81.88-3.72.54-7.13-.44-8.41-1.28S86.8,10.05,86.55,9.63Z"/><path class="cls-2" d="M100.35,11.84c-.25-.52-1.64-.77-2.25-.94s-.91,0-.73-.63a16.88,16.88,0,0,0,0-5.15C97,3.19,94.56.71,93.73.13L93.63.08a12.63,12.63,0,0,1,2.71,4.38c.5,1.86.07,3.26.27,4,.29,1.11-.08,3.52-1.73,3.64a9.88,9.88,0,0,1,1.75.25C97.55,12.72,100.6,12.36,100.35,11.84Z"/><path class="cls-4" d="M92.94.68c-.64.35-2.07,1.29-2.12,2a3.07,3.07,0,0,1-1.69,2.21c-.86.29-2.59,3.65-2.06,3.5a11.18,11.18,0,0,1,5.62.07c.82.31,2,.74,2.18.14a9.49,9.49,0,0,0,.54-3.39C95.24,3.52,93.85.19,92.94.68Z"/><path class="cls-2" d="M100.35,11.84a.84.84,0,0,0-.35-.33,20.56,20.56,0,0,0-3.25-.5,3.33,3.33,0,0,1-1.38-.21c-.26-.15-1-.92-1.73-1.42a6.21,6.21,0,0,0-3-.59H88c-.47,0-1.72.4-1.54.66l.12.19c.25.42.4.62,1.68,1.46s7.5.94,8.41,1.28S100.6,12.36,100.35,11.84Z"/><path class="cls-5" d="M88.49,36.59c-.31,1.22-1.2,4.62-.57,5s1.59-1.06,1.7-2.27a14.13,14.13,0,0,0-.38-4.54C88.93,34.31,88.72,35.68,88.49,36.59Z"/><path class="cls-6" d="M91.62,31a14.89,14.89,0,0,0-.57,3.75c.06,1.12.23,2.88.36,3.85s.41,3.62-.37,3.6-1.36-.09-1.61-1.81.53-3.63-.26-4.84c-.67-1,.2-1.77.72-2.87S91.8,30.41,91.62,31Z"/><path class="cls-7" d="M90.57,33.92c-.13-.62.68-1.48,0-2.24a5,5,0,0,0-.7,1c-.52,1.09-1.39,1.84-.72,2.87s.29,2.23.22,3.56a6.44,6.44,0,0,0,.26,1.74c.21.65,1.1,1,1.33.53a5.55,5.55,0,0,0,0-2.13c-.06-.54-.22-1.58-.29-2.63S90.68,34.47,90.57,33.92Z"/><path class="cls-8" d="M95.48,13.75a16.41,16.41,0,0,1-2.85,1.75c-.9.4-1,1.26-1.62,1.1a.81.81,0,0,1-.36-1.44c.62-.69.43-1.09,1.61-1.37S96,13.35,95.48,13.75Z"/><path class="cls-9" d="M102.32,12.64a10.21,10.21,0,0,0-3.58-1.28c-1.25-.16-2.49-.18-3-.24s-1.22-1.21-2.52-1.75S90.92,9.1,89.39,9A4.69,4.69,0,0,0,86,9.8c-1.15.67-1.23,2.28-2,3.59-.68,1.14-.58,4-.51,4.75.14,1.54.78,2,1.43,3.87s.31,4.16-1.15,5.2-7.28,5.53-4.36,9.07,6.34,5.84,7.51,4.43,2.76-6.52,4-8.14,1.45-5.23,1.11-7.46-1.55-6.51-1.29-7.51a7.74,7.74,0,0,1,1.73-3c.82-.65,2.23-.5,3.07-.7a17.86,17.86,0,0,1,3.67-.27c1.09,0,2.84.16,3.09.11s.24-.14.36-.12.23.07.21-.11A1.24,1.24,0,0,0,102.32,12.64Z"/><path class="cls-10" d="M101.38,13.69a5,5,0,0,0,.54-1.29,10.87,10.87,0,0,0-3.19-1c-1.25-.16-2.49-.18-3-.24s-1.22-1.21-2.52-1.75S90.92,9.1,89.39,9A4.69,4.69,0,0,0,86,9.8c-1.15.67-1.23,2.28-2,3.59-.68,1.14-.58,4-.51,4.75v.07c.17-2.38,1.55-4.09,3-3.77A5.07,5.07,0,0,0,90,13.86c.55-.32.45-1.18,1.36-1,.71.12,3.41-.08,5.47.84a22.46,22.46,0,0,1,2.37-.08C99.83,13.61,100.72,13.66,101.38,13.69Z"/><path class="cls-11" d="M93.15,11.82a4.19,4.19,0,0,1-.73-.72c-.33-.4-.46-.73-1-.62s-1,.79-1.7.85-.88.42-.51.8a4.16,4.16,0,0,0,2.17.6,4.71,4.71,0,0,0,1.91-.24C93.73,12.25,93.32,12,93.15,11.82Z"/><path class="cls-11" d="M95.69,11.12c-.56-.06-1.22-1.21-2.52-1.75S90.92,9.1,89.39,9A4.69,4.69,0,0,0,86,9.8c-.9.52-1.14,1.62-1.58,2.7.11-.28.3-.59.37-.76a5.11,5.11,0,0,1,2.35-2.19,4.83,4.83,0,0,1,2.52.11c.46.06.48-.26,1.27-.3a5.14,5.14,0,0,1,2.85.81c.53.49.84.59,1.18,1.14.08.12.67.15.94.31s.46-.15.64-.43Z"/><path class="cls-9" d="M92.76,11.9a1,1,0,0,1-.32-.33,1.06,1.06,0,0,0-.62-.58.93.93,0,0,0-1,.31c-.16.27-.33.57-.09.88s.35.55.82.48.79-.58.92-.53S92.86,12,92.76,11.9Z"/><path class="cls-12" d="M92.25,11.61a.69.69,0,0,1-.5.84.68.68,0,1,1-.35-1.32A.69.69,0,0,1,92.25,11.61Z"/><path class="cls-13" d="M90.86,11.75c.15.29,1,.36,1.37-.21a.69.69,0,0,0-.83-.41A.71.71,0,0,0,90.86,11.75Z"/><path class="cls-14" d="M92.26,11.6a.74.74,0,0,1-.06.54.66.66,0,0,1-.18.22.71.71,0,0,1-.26.12.8.8,0,0,1-.56-.08.76.76,0,0,1-.22-.18.66.66,0,0,1-.13-.25.72.72,0,0,1,.08-.56.75.75,0,0,1,.45-.34.76.76,0,0,1,.29,0,.72.72,0,0,1,.47.29A.81.81,0,0,1,92.26,11.6Zm0,0a.59.59,0,0,0-.33-.39.78.78,0,0,0-.25-.06.72.72,0,0,0-.25,0,.67.67,0,0,0-.4.29.65.65,0,0,0-.08.49.59.59,0,0,0,.31.39.71.71,0,0,0,.5.05.7.7,0,0,0,.41-.29A.64.64,0,0,0,92.23,11.61Z"/><path class="cls-15" d="M91.88,11.71a.28.28,0,0,1-.2.34.25.25,0,0,1-.3-.21.26.26,0,0,1,.5-.13Z"/><path class="cls-11" d="M95.93,11.6c.12.08.25.3-.09.54a6.71,6.71,0,0,1-1.75.6,8.33,8.33,0,0,0,2.32-.27c.47-.26.79-.12.5-.52S95.8,11.51,95.93,11.6Z"/><path class="cls-16" d="M95.59,13.85c-.07-.39-.72-.72-1.21-.73s-.64.1-1,.12-.46.38-.61.54-.09.45-.6,1a2.12,2.12,0,0,1,.26-.25c.82-.65,2.23-.5,3.07-.7Z"/><path class="cls-17" d="M102.85,13.47a1.24,1.24,0,0,0-.54-.84,10.21,10.21,0,0,0-3.58-1.28c-1-.12-2-.17-2.63-.21-.21.07-.05.18-.18.31s.24.14.42.41,0,.39-.54.53a16.63,16.63,0,0,1-2.93.45c-.78,0-1.9.12-1.9.32s.41.19.65.19a23.26,23.26,0,0,1,3.25-.1c.33.11.12.56.55.63l.1,0a17.86,17.86,0,0,1,3.67-.27c1.09,0,2.84.16,3.09.11s.24-.14.36-.12S102.87,13.66,102.85,13.47Z"/><path class="cls-18" d="M101.73,13.43c-.42-.11-1.36-.24-1.82-.39a4.51,4.51,0,0,0-1.43-.26,15.77,15.77,0,0,0-3,.24,7.09,7.09,0,0,1-1.12.19,2,2,0,0,1,.49,0c.33.11.12.56.55.63l.1,0a17.86,17.86,0,0,1,3.67-.27c1.09,0,2.84.16,3.09.11a.83.83,0,0,0,.21-.09Z"/><path class="cls-19" d="M102.5,13.61s-.06,0-.09,0l-.53-.14-.71-.16-1.41-.34a11,11,0,0,0-1.44-.21c-.48,0-1-.07-1.45-.06h-.36l-.36,0-.72.08L94,12.91c-1,.08-1.92.16-2.88.28h0l1.45-.07L94,13l1.44-.17.72-.08.36,0h.36c.48,0,1,0,1.44.1a12.71,12.71,0,0,1,1.42.23l.71.16.71.14.71.13.52.1s.06,0,.08,0Z"/><path class="cls-16" d="M87.33,15.58c-.64-.42.89.94,1.74,2.44a6.46,6.46,0,0,1,.4,2.12c.49,2.1,1.23,3,1.39,4.46s.59,1.84.55,1.11-.6-3.9-.77-4.92a5.8,5.8,0,0,1,.11-1.94,3.82,3.82,0,0,1,0-1.25A9.45,9.45,0,0,1,92.07,15c-1.29,1.49-1.23.94-2.25,1.18A3.11,3.11,0,0,1,87.33,15.58Z"/><path class="cls-11" d="M87,10.64a1.74,1.74,0,0,0-.32.88c0,.29-.27,1.11.16,1.39s.86.63,1.33.08.58-.75.56-1.2.21-.84-.11-1.15A1.5,1.5,0,0,0,87,10.64Z"/><path class="cls-20" d="M87.06,11.15a1.68,1.68,0,0,0-.17,1.45c.26.57.89.7,1.07.24s.32-.56.23-1.06-.5-.83-.68-.82S87.13,11,87.06,11.15Z"/><path class="cls-21" d="M87.19,11.95c-.13,0-.15.12-.1.38s.39.47.48.27a.88.88,0,0,0,.13-.4C87.67,11.89,87.37,11.89,87.19,11.95Z"/><path class="cls-20" d="M87,11.06a.63.63,0,0,1,.74-.1c.28.19.47.4.47.58s.12.35.12.19.1-.35-.07-.58-.15-.36-.42-.38-.59,0-.72.11S86.9,11.12,87,11.06Z"/><path class="cls-22" d="M87.06,12.34c0-.08-.08-.24,0-.33s.07-.12.19-.12.23,0,.14-.06a.45.45,0,0,0-.29,0c-.06.05-.1,0-.1.21S87.08,12.43,87.06,12.34Z"/><path class="cls-23" d="M100.83,12.52a.79.79,0,0,0-.27-.42c-.15-.08-.27-.24-.5-.23a.89.89,0,0,0-.56.17c-.09.11-.12.43.12.48a1.8,1.8,0,0,0,.78.11C100.61,12.56,100.86,12.59,100.83,12.52Z"/><path class="cls-24" d="M100.56,12.1c-.15-.08-.27-.24-.5-.23a.89.89,0,0,0-.56.17c-.09.11-.12.43.12.48l.06,0c.07,0,.22-.09.43-.15s.72.13.68,0A.62.62,0,0,0,100.56,12.1Z"/><path class="cls-24" d="M99.38,12.3c0-.07,0-.24,0-.29a.59.59,0,0,1,.32-.15,1.22,1.22,0,0,1,.47,0c.14,0,.08,0,0,0l-.26,0a.47.47,0,0,0-.2,0,1.43,1.43,0,0,1-.23.05.22.22,0,0,0-.16.11.52.52,0,0,0-.05.23C99.36,12.27,99.39,12.34,99.38,12.3Z"/><path class="cls-23" d="M100,12.67a1.08,1.08,0,0,0,.33,0,1.73,1.73,0,0,1,.31-.06c.1,0,.17,0,.08,0a.44.44,0,0,0-.21,0,.74.74,0,0,1-.23,0C100.21,12.7,99.89,12.67,100,12.67Z"/><path class="cls-9" d="M86.33,13a1.15,1.15,0,0,1-.14.88c-.2.2-.1.4-.55.57-.8.3,1.06.69,1.82.57,1.25-.19,2.31-1,1.75-.85s-.73.14-.6-.33.8-.89.37-.83-1.06.36-1.54.4C86.52,13.51,86.25,12.81,86.33,13Z"/><path class="cls-11" d="M84,13.39a2.86,2.86,0,0,0-.28.69.4.4,0,0,0,.18.45c.32.25.33.13.25-.35a3.52,3.52,0,0,1,.25-1.61A6.16,6.16,0,0,1,84,13.39Z"/><path class="cls-16" d="M90.9,32.57a6.41,6.41,0,0,0,1-2.47c-.58,1.58-2.16-2.18-2.7-3.37-.75-1.65-2.06-.08-2.58.86s-.94,1.44-1.12.61-2.63,1-2.63,1-1.17,1.59-2.49,3.8,1.9,4.62,5.11,4.95a4.87,4.87,0,0,0,3.63-1.65A21.51,21.51,0,0,1,90.9,32.57Z"/><path class="cls-6" d="M85.93,22.29c-.5-1.11-1.44-3.14-1.62-3.78A6.63,6.63,0,0,1,83.89,17c-.06-.7-.06-1.5-.09-1.87s-.21-.32-.25-.05a16.52,16.52,0,0,0-.05,3.1c.14,1.54.78,2,1.43,3.87s.31,4.16-1.15,5.2c-1.06.76-4.43,3.34-5.06,6.05,2.15-.86,6-5.11,7-6.09S86.43,23.41,85.93,22.29Z"/><path class="cls-7" d="M85.64,24.58c0-.27-.28-1-.54-2a4.47,4.47,0,0,1-1.31,4.63,21.13,21.13,0,0,0-2.66,2.26,1.35,1.35,0,0,0,.2.27c.19.13,2.39-1.73,3.41-2.69A2.57,2.57,0,0,0,85.64,24.58Z"/><path class="cls-25" d="M84.22,34.51c.84-.89,2.59-1.39,2.59-2.73s.08-4.83.88-4.22S90,30.15,90,31.68a14.46,14.46,0,0,1-1.08,5.56c-.27.8-2.26,2.79-3.51,5-1.87,3.33-4.61,7.06-6,10.13-1.24,2.84-7.53,7.36-11.69,9.67s-13.43,7.77-21.56,7.43-20.75,0-25.6,3.11-9.5,4.66-10,6.11-.92,2.3-2.08,2A5.23,5.23,0,0,0,6,80.74c-.69.09-1.38-.22-2.23-1.21S1.6,78,1.22,78.45.45,75.77.68,72.55s.63-7.82-.07-7.67-1.08-2.07.45-4.14,1-2.61,1.15-4.14,2.08-4.14,3.84-5.29.54-1.92,1.77-2.92S9.6,43.7,13,41.86s16.6-9.59,21.22-10.74,18-2.8,25.14-3.22,16.89.17,18.26.17,4.8-.18,4.89.13c0,0,0,0-.06.06-.28.33,1,.82,1.58.8s.36,1.29.12,1.93a14.07,14.07,0,0,0-.76,3C83.4,34.94,83.89,34.86,84.22,34.51Z"/><path class="cls-26" d="M29.2,55.75c1.84-2.38,3.92-5.6,1.77-6.21s-4.84-.23-4.46-1.69-4.07-.92-5.38-.46-4.54-.61-4.46-1.46.69-2-1.31-2.38-2.92,1.15-1.92-.84A10.24,10.24,0,0,1,16,40.18l-3,1.68C9.6,43.7,9.06,47.38,7.83,48.38s0,1.76-1.77,2.92-3.69,3.76-3.84,5.29.38,2.07-1.15,4.14S-.09,65,.61,64.88s.3,4.45.07,7.67.15,6.37.54,5.91,1.69.08,2.54,1.07S5.29,80.83,6,80.74a5.23,5.23,0,0,1,2.54-.06c1.15.31,1.54-.54,2.08-2s5.19-3,10-6.11A13.44,13.44,0,0,1,24,71.12,30.35,30.35,0,0,1,26,66.64C27.43,63.34,27.36,58.12,29.2,55.75Z"/><path class="cls-26" d="M55.76,67.79a75.92,75.92,0,0,0,12-5.76c4.15-2.3,10.44-6.83,11.69-9.67a41.48,41.48,0,0,1,2.85-5.07,11.16,11.16,0,0,1-1.93-2.75c-.85-2-1.15-2.61-3.23-1.53s-4.23-1.3-7.53.92-4.69,2.65-6.76,1.75-4.23.86-5.23,1.32-10.45-7-9.38-4.76S49.88,43.7,52,48.31s4.61,6.75,4.61,9.82-.62,8.06-.81,9.67Z"/><path class="cls-26" d="M63.25,27.76c-1.35,0-2.68.06-3.92.14C52.2,28.32,38.81,30,34.2,31.12S16.36,40,13,41.86a7.43,7.43,0,0,0-1.91,1.49c.18,2.69,1.21,4.26,2.14,2.58,2.08-3.76,8.69-5.45,10.07-7.74S32,35.26,33.2,34,41,32.66,43.88,30.87C45.73,29.74,56,28.51,63.25,27.76Z"/><path class="cls-26" d="M88.94,37.24a21.73,21.73,0,0,0,1-3.6c-.84,3.21-2.4,3.74-3.49,4.55-1.68,1.23-4.8,8.43-5.6,7.13-.4-.65-.57,3.73-.37,5.14,1.45-2.63,3.5-5.55,5-8.21C86.68,40,88.67,38,88.94,37.24Z"/><path class="cls-26" d="M56.31,62.71c-.47,2.62-4.89,2.09-8.13,3.47S39,67.45,33.66,67.79,26.26,67,26.55,65s-6.83,4.57-6.32,7.82l.41-.26c4.84-3.11,17.47-3.45,25.6-3.11,6.86.29,14.54-3.56,19.27-6.15C63.74,62,56.46,61.86,56.31,62.71Z"/><path class="cls-4" d="M42.39,110a2.82,2.82,0,0,0,2.4.84c1.64,0,3.27.26,3.87.95a5.35,5.35,0,0,1,.75,1c.23.35-.2.18-.58-.11a3.6,3.6,0,0,0-.93-.13,23.06,23.06,0,0,0-2.6-.1c-1.27,0-4,.63-4.11,0S41.84,109.54,42.39,110Z"/><path class="cls-3" d="M34.74,68.79c-1.27,1,0,4.29-.94,6.3s-1.6,3.27-1.31,5.28,2.56,11.1,2.35,14.07.48,10.92,0,12.69-.44,3,.54,4.08c.63.68.87,1.85,1.69,2,1.19.15,2.07.53,2.93.62,1.58.16,4.59-1.36,6-.82s3.24.45,4,.8.42-.32,0-.74a7.6,7.6,0,0,0-3-1.86c-1.11-.22-3,.16-4.53-1.21s-1.64-1.26-1.94-2.81a65.3,65.3,0,0,1-.94-10.28c.17-2.26-.87-8.16-.64-9.51s2.59-4.91,3-6.93A8.65,8.65,0,0,1,46,75.15C48.06,74,36.66,67.33,34.74,68.79Z"/><path class="cls-4" d="M37,112.15c-.87-1.16-1.84-3.34-1.21-4.95s-.23-6.62-.4-8.63.23-5.75-.27-7.94S34,83.36,33.39,81.18s-.54-1.92,0-2.65a5.47,5.47,0,0,1,2.81-2.4c.34-.12.32-2-2.26-1.39a3,3,0,0,1-.14.34c-1,2-1.6,3.27-1.31,5.28s2.56,11.1,2.35,14.07.48,10.92,0,12.69-.44,3,.54,4.08c.63.68.87,1.85,1.69,2,1.19.15,2.07.53,2.93.62a3.14,3.14,0,0,0,.57,0C39.42,113.43,37.66,113,37,112.15Z"/><path class="cls-26" d="M30.52,69.89a3.34,3.34,0,0,1,3,3.71c-.17.86-.1,3.61,1.1,4.49.87.65,5.28,3.11,5.65,4.26.93,2.88,6.38-5.52,7.2-7.82S51.19,69,53,68.62s-1.46-5.05-7.22-5.13S29.07,69.92,30.52,69.89Z"/><path class="cls-3" d="M41.49,111.87c1.64,0,3.27.26,3.87.95a5.33,5.33,0,0,1,.75,1c.23.34-.2.18-.58-.11a3.58,3.58,0,0,0-.93-.13,17.64,17.64,0,0,0-3,0c-1.26.17-2.59-.39-2.71-1S39.91,111.86,41.49,111.87Z"/></svg>