<svg xmlns="http://www.w3.org/2000/svg" xmlns:xlink="http://www.w3.org/1999/xlink" viewBox="0 0 39.41 199.44"><defs><style>.cls-1{isolation:isolate;}.cls-2{opacity:0.22;mix-blend-mode:multiply;}.cls-10,.cls-11,.cls-12,.cls-13,.cls-14,.cls-15,.cls-16,.cls-17,.cls-18,.cls-19,.cls-20,.cls-21,.cls-22,.cls-23,.cls-24,.cls-25,.cls-26,.cls-27,.cls-28,.cls-29,.cls-3,.cls-30,.cls-31,.cls-32,.cls-33,.cls-34,.cls-35,.cls-36,.cls-37,.cls-38,.cls-39,.cls-4,.cls-40,.cls-41,.cls-42,.cls-43,.cls-44,.cls-45,.cls-46,.cls-47,.cls-48,.cls-49,.cls-5,.cls-50,.cls-51,.cls-52,.cls-53,.cls-54,.cls-6,.cls-7,.cls-8,.cls-9{fill:#171900;}.cls-113,.cls-168,.cls-223,.cls-3,.cls-58{opacity:0;}.cls-114,.cls-169,.cls-224,.cls-4,.cls-59{opacity:0.02;}.cls-115,.cls-170,.cls-225,.cls-5,.cls-60{opacity:0.04;}.cls-116,.cls-171,.cls-226,.cls-6,.cls-61{opacity:0.06;}.cls-117,.cls-172,.cls-227,.cls-62,.cls-7{opacity:0.08;}.cls-118,.cls-173,.cls-228,.cls-63,.cls-8{opacity:0.1;}.cls-119,.cls-174,.cls-229,.cls-64,.cls-9{opacity:0.12;}.cls-10,.cls-120,.cls-175,.cls-230,.cls-65{opacity:0.14;}.cls-11,.cls-121,.cls-176,.cls-231,.cls-66{opacity:0.16;}.cls-12,.cls-122,.cls-177,.cls-232,.cls-67{opacity:0.18;}.cls-123,.cls-13,.cls-178,.cls-233,.cls-68{opacity:0.2;}.cls-124,.cls-14,.cls-179,.cls-234,.cls-69{opacity:0.22;}.cls-125,.cls-15,.cls-180,.cls-235,.cls-70{opacity:0.24;}.cls-126,.cls-16,.cls-181,.cls-236,.cls-71{opacity:0.25;}.cls-127,.cls-17,.cls-182,.cls-237,.cls-72{opacity:0.27;}.cls-128,.cls-18,.cls-183,.cls-238,.cls-73{opacity:0.29;}.cls-129,.cls-184,.cls-19,.cls-239,.cls-74{opacity:0.31;}.cls-130,.cls-185,.cls-20,.cls-240,.cls-75{opacity:0.33;}.cls-131,.cls-186,.cls-21,.cls-241,.cls-76{opacity:0.35;}.cls-132,.cls-187,.cls-22,.cls-242,.cls-77{opacity:0.37;}.cls-133,.cls-188,.cls-23,.cls-243,.cls-78{opacity:0.39;}.cls-134,.cls-189,.cls-24,.cls-244,.cls-79{opacity:0.41;}.cls-135,.cls-190,.cls-245,.cls-25,.cls-80{opacity:0.43;}.cls-136,.cls-191,.cls-246,.cls-26,.cls-81{opacity:0.45;}.cls-137,.cls-192,.cls-247,.cls-27,.cls-82{opacity:0.47;}.cls-138,.cls-193,.cls-248,.cls-28,.cls-83{opacity:0.49;}.cls-139,.cls-194,.cls-249,.cls-29,.cls-84{opacity:0.51;}.cls-140,.cls-195,.cls-250,.cls-30,.cls-85{opacity:0.53;}.cls-141,.cls-196,.cls-251,.cls-31,.cls-86{opacity:0.55;}.cls-142,.cls-197,.cls-252,.cls-32,.cls-87{opacity:0.57;}.cls-143,.cls-198,.cls-253,.cls-33,.cls-88{opacity:0.59;}.cls-144,.cls-199,.cls-254,.cls-34,.cls-89{opacity:0.61;}.cls-145,.cls-200,.cls-255,.cls-35,.cls-90{opacity:0.63;}.cls-146,.cls-201,.cls-256,.cls-36,.cls-91{opacity:0.65;}.cls-147,.cls-202,.cls-257,.cls-37,.cls-92{opacity:0.67;}.cls-148,.cls-203,.cls-258,.cls-38,.cls-93{opacity:0.69;}.cls-149,.cls-204,.cls-259,.cls-39,.cls-94{opacity:0.71;}.cls-150,.cls-205,.cls-260,.cls-40,.cls-95{opacity:0.73;}.cls-151,.cls-206,.cls-261,.cls-41,.cls-96{opacity:0.75;}.cls-152,.cls-207,.cls-262,.cls-42,.cls-97{opacity:0.76;}.cls-153,.cls-208,.cls-263,.cls-43,.cls-98{opacity:0.78;}.cls-154,.cls-209,.cls-264,.cls-44,.cls-99{opacity:0.8;}.cls-100,.cls-155,.cls-210,.cls-265,.cls-45{opacity:0.82;}.cls-101,.cls-156,.cls-211,.cls-266,.cls-46{opacity:0.84;}.cls-102,.cls-157,.cls-212,.cls-267,.cls-47{opacity:0.86;}.cls-103,.cls-158,.cls-213,.cls-268,.cls-48{opacity:0.88;}.cls-104,.cls-159,.cls-214,.cls-269,.cls-49{opacity:0.9;}.cls-105,.cls-160,.cls-215,.cls-270,.cls-50{opacity:0.92;}.cls-106,.cls-161,.cls-216,.cls-271,.cls-51{opacity:0.94;}.cls-107,.cls-162,.cls-217,.cls-272,.cls-52{opacity:0.96;}.cls-108,.cls-163,.cls-218,.cls-273,.cls-53{opacity:0.98;}.cls-55{fill:url(#radial-gradient);}.cls-56{fill:url(#linear-gradient);}.cls-57{fill:url(#linear-gradient-2);}.cls-100,.cls-101,.cls-102,.cls-103,.cls-104,.cls-105,.cls-106,.cls-107,.cls-108,.cls-109,.cls-58,.cls-59,.cls-60,.cls-61,.cls-62,.cls-63,.cls-64,.cls-65,.cls-66,.cls-67,.cls-68,.cls-69,.cls-70,.cls-71,.cls-72,.cls-73,.cls-74,.cls-75,.cls-76,.cls-77,.cls-78,.cls-79,.cls-80,.cls-81,.cls-82,.cls-83,.cls-84,.cls-85,.cls-86,.cls-87,.cls-88,.cls-89,.cls-90,.cls-91,.cls-92,.cls-93,.cls-94,.cls-95,.cls-96,.cls-97,.cls-98,.cls-99{fill:#0033bf;}.cls-110{fill:url(#radial-gradient-2);}.cls-111{fill:url(#linear-gradient-3);}.cls-112{fill:url(#linear-gradient-4);}.cls-113,.cls-114,.cls-115,.cls-116,.cls-117,.cls-118,.cls-119,.cls-120,.cls-121,.cls-122,.cls-123,.cls-124,.cls-125,.cls-126,.cls-127,.cls-128,.cls-129,.cls-130,.cls-131,.cls-132,.cls-133,.cls-134,.cls-135,.cls-136,.cls-137,.cls-138,.cls-139,.cls-140,.cls-141,.cls-142,.cls-143,.cls-144,.cls-145,.cls-146,.cls-147,.cls-148,.cls-149,.cls-150,.cls-151,.cls-152,.cls-153,.cls-154,.cls-155,.cls-156,.cls-157,.cls-158,.cls-159,.cls-160,.cls-161,.cls-162,.cls-163,.cls-164{fill:#005921;}.cls-165{fill:url(#radial-gradient-3);}.cls-166{fill:url(#linear-gradient-5);}.cls-167{fill:url(#linear-gradient-6);}.cls-168,.cls-169,.cls-170,.cls-171,.cls-172,.cls-173,.cls-174,.cls-175,.cls-176,.cls-177,.cls-178,.cls-179,.cls-180,.cls-181,.cls-182,.cls-183,.cls-184,.cls-185,.cls-186,.cls-187,.cls-188,.cls-189,.cls-190,.cls-191,.cls-192,.cls-193,.cls-194,.cls-195,.cls-196,.cls-197,.cls-198,.cls-199,.cls-200,.cls-201,.cls-202,.cls-203,.cls-204,.cls-205,.cls-206,.cls-207,.cls-208,.cls-209,.cls-210,.cls-211,.cls-212,.cls-213,.cls-214,.cls-215,.cls-216,.cls-217,.cls-218,.cls-219{fill:#334c3d;}.cls-220{fill:url(#radial-gradient-4);}.cls-221{fill:url(#linear-gradient-7);}.cls-222{fill:url(#linear-gradient-8);}.cls-223,.cls-224,.cls-225,.cls-226,.cls-227,.cls-228,.cls-229,.cls-230,.cls-231,.cls-232,.cls-233,.cls-234,.cls-235,.cls-236,.cls-237,.cls-238,.cls-239,.cls-240,.cls-241,.cls-242,.cls-243,.cls-244,.cls-245,.cls-246,.cls-247,.cls-248,.cls-249,.cls-250,.cls-251,.cls-252,.cls-253,.cls-254,.cls-255,.cls-256,.cls-257,.cls-258,.cls-259,.cls-260,.cls-261,.cls-262,.cls-263,.cls-264,.cls-265,.cls-266,.cls-267,.cls-268,.cls-269,.cls-270,.cls-271,.cls-272,.cls-273,.cls-274{fill:#170054;}.cls-275{fill:url(#radial-gradient-5);}.cls-276{fill:url(#linear-gradient-9);}.cls-277{fill:url(#linear-gradient-10);}.cls-278{fill:url(#radial-gradient-6);}.cls-279{fill:url(#linear-gradient-11);}.cls-280{fill:url(#linear-gradient-12);}</style><radialGradient id="radial-gradient" cx="37.78" cy="203.02" r="22.55" gradientTransform="matrix(0, 1, 1, 0, -179.09, 146.19)" gradientUnits="userSpaceOnUse"><stop offset="0" stop-color="#fe6300"/><stop offset="1" stop-color="#d05400"/></radialGradient><linearGradient id="linear-gradient" x1="12.81" y1="198.16" x2="22.68" y2="199.37" gradientTransform="matrix(0, 1, 1, 0, -179.09, 146.19)" gradientUnits="userSpaceOnUse"><stop offset="0" stop-color="#d05400"/><stop offset="0.36" stop-color="#e75c00"/><stop offset="0.72" stop-color="#f86100"/><stop offset="1" stop-color="#fe6300"/></linearGradient><linearGradient id="linear-gradient-2" x1="32.99" y1="178.09" x2="33.8" y2="188.37" xlink:href="#linear-gradient"/><radialGradient id="radial-gradient-2" cx="5.67" cy="203.02" r="22.55" gradientTransform="matrix(0, 1, 1, 0, -179.09, 146.19)" gradientUnits="userSpaceOnUse"><stop offset="0" stop-color="#00a3bf"/><stop offset="1" stop-color="#0089b5"/></radialGradient><linearGradient id="linear-gradient-3" x1="-19.3" y1="198.16" x2="-9.43" y2="199.37" gradientTransform="matrix(0, 1, 1, 0, -179.09, 146.19)" gradientUnits="userSpaceOnUse"><stop offset="0" stop-color="#0094c2"/><stop offset="0.44" stop-color="#009dc0"/><stop offset="1" stop-color="#00a3bf"/></linearGradient><linearGradient id="linear-gradient-4" x1="0.88" y1="178.09" x2="1.68" y2="188.37" xlink:href="#linear-gradient-3"/><radialGradient id="radial-gradient-3" cx="-26.13" cy="203.02" r="22.55" gradientTransform="matrix(0, 1, 1, 0, -179.09, 146.19)" gradientUnits="userSpaceOnUse"><stop offset="0" stop-color="#afce22"/><stop offset="1" stop-color="#81bf2e"/></radialGradient><linearGradient id="linear-gradient-5" x1="-51.1" y1="198.16" x2="-41.23" y2="199.37" gradientTransform="matrix(0, 1, 1, 0, -179.09, 146.19)" gradientUnits="userSpaceOnUse"><stop offset="0" stop-color="#81bf2e"/><stop offset="0.36" stop-color="#98c728"/><stop offset="0.72" stop-color="#a9cc24"/><stop offset="1" stop-color="#afce22"/></linearGradient><linearGradient id="linear-gradient-6" x1="-30.92" y1="178.09" x2="-30.11" y2="188.37" xlink:href="#linear-gradient-5"/><radialGradient id="radial-gradient-4" cx="-57.86" cy="203.02" r="22.55" gradientTransform="matrix(0, 1, 1, 0, -179.09, 146.19)" gradientUnits="userSpaceOnUse"><stop offset="0" stop-color="#ffc13e"/><stop offset="1" stop-color="#ecb24a"/></radialGradient><linearGradient id="linear-gradient-7" x1="-82.83" y1="198.16" x2="-72.96" y2="199.37" gradientTransform="matrix(0, 1, 1, 0, -179.09, 146.19)" gradientUnits="userSpaceOnUse"><stop offset="0" stop-color="#ecb24a"/><stop offset="0.52" stop-color="#f9bc42"/><stop offset="1" stop-color="#ffc13e"/></linearGradient><linearGradient id="linear-gradient-8" x1="-62.64" y1="178.09" x2="-61.84" y2="188.37" xlink:href="#linear-gradient-7"/><radialGradient id="radial-gradient-5" cx="-89.84" cy="203.02" r="22.55" gradientTransform="matrix(0, 1, 1, 0, -179.09, 146.19)" gradientUnits="userSpaceOnUse"><stop offset="0" stop-color="#fe4a55"/><stop offset="1" stop-color="#d03b61"/></radialGradient><linearGradient id="linear-gradient-9" x1="-114.81" y1="198.16" x2="-104.94" y2="199.37" gradientTransform="matrix(0, 1, 1, 0, -179.09, 146.19)" gradientUnits="userSpaceOnUse"><stop offset="0" stop-color="#d03b61"/><stop offset="0.36" stop-color="#e7435b"/><stop offset="0.72" stop-color="#f84857"/><stop offset="1" stop-color="#fe4a55"/></linearGradient><linearGradient id="linear-gradient-10" x1="-94.63" y1="178.09" x2="-93.83" y2="188.37" xlink:href="#linear-gradient-9"/><radialGradient id="radial-gradient-6" cx="-121.96" cy="203.02" r="22.55" gradientTransform="matrix(0, 1, 1, 0, -179.09, 146.19)" gradientUnits="userSpaceOnUse"><stop offset="0" stop-color="#f175b1"/><stop offset="1" stop-color="#c366bd"/></radialGradient><linearGradient id="linear-gradient-11" x1="-146.93" y1="198.16" x2="-137.06" y2="199.37" gradientTransform="matrix(0, 1, 1, 0, -179.09, 146.19)" gradientUnits="userSpaceOnUse"><stop offset="0" stop-color="#c366bd"/><stop offset="0.36" stop-color="#da6eb7"/><stop offset="0.72" stop-color="#eb73b3"/><stop offset="1" stop-color="#f175b1"/></linearGradient><linearGradient id="linear-gradient-12" x1="-126.75" y1="178.09" x2="-125.94" y2="188.37" xlink:href="#linear-gradient-11"/></defs><title>margine box</title><g class="cls-1"><g id="Layer_1" data-name="Layer 1"><g class="cls-2"><polygon class="cls-3" points="39.41 168.5 25.78 147.67 25.78 159.74 30.38 159.74 39.41 168.5"/><polygon class="cls-4" points="39.41 168.5 25.84 147.86 25.84 159.74 30.38 159.74 39.41 168.5"/><polygon class="cls-5" points="39.41 168.5 25.91 148.05 25.91 159.74 30.38 159.74 39.41 168.5"/><polygon class="cls-6" points="39.41 168.5 25.98 148.25 25.98 159.74 30.38 159.74 39.41 168.5"/><polygon class="cls-7" points="39.41 168.5 26.04 148.44 26.04 159.74 30.38 159.74 39.41 168.5"/><polygon class="cls-8" points="39.41 168.5 26.11 148.63 26.11 159.74 30.38 159.74 39.41 168.5"/><polygon class="cls-9" points="39.41 168.5 26.18 148.82 26.18 159.74 30.38 159.74 39.41 168.5"/><polygon class="cls-10" points="39.41 168.5 26.24 149.01 26.24 159.74 30.38 159.74 39.41 168.5"/><polygon class="cls-11" points="39.41 168.5 26.31 149.21 26.31 159.74 30.38 159.74 39.41 168.5"/><polygon class="cls-12" points="39.41 168.5 26.38 149.4 26.38 159.74 30.38 159.74 39.41 168.5"/><polygon class="cls-13" points="39.41 168.5 26.44 149.59 26.44 159.74 30.38 159.74 39.41 168.5"/><polygon class="cls-14" points="39.41 168.5 26.51 149.78 26.51 159.74 30.38 159.74 39.41 168.5"/><polygon class="cls-15" points="39.41 168.5 26.57 149.97 26.57 159.74 30.38 159.74 39.41 168.5"/><polygon class="cls-16" points="39.41 168.5 26.64 150.17 26.64 159.74 30.38 159.74 39.41 168.5"/><polygon class="cls-17" points="39.41 168.5 26.71 150.36 26.71 159.74 30.38 159.74 39.41 168.5"/><polygon class="cls-18" points="39.41 168.5 26.77 150.55 26.77 159.74 30.38 159.74 39.41 168.5"/><polygon class="cls-19" points="39.41 168.5 26.84 150.74 26.84 159.74 30.38 159.74 39.41 168.5"/><polygon class="cls-20" points="39.41 168.5 26.91 150.94 26.91 159.74 30.38 159.74 39.41 168.5"/><polygon class="cls-21" points="39.41 168.5 26.97 151.13 26.97 159.74 30.38 159.74 39.41 168.5"/><polygon class="cls-22" points="39.41 168.5 27.04 151.32 27.04 159.74 30.38 159.74 39.41 168.5"/><polygon class="cls-23" points="39.41 168.5 27.11 151.51 27.11 159.74 30.38 159.74 39.41 168.5"/><polygon class="cls-24" points="39.41 168.5 27.17 151.7 27.17 159.74 30.38 159.74 39.41 168.5"/><polygon class="cls-25" points="39.41 168.5 27.24 151.9 27.24 159.74 30.38 159.74 39.41 168.5"/><polygon class="cls-26" points="39.41 168.5 27.31 152.09 27.31 159.74 30.38 159.74 39.41 168.5"/><polygon class="cls-27" points="39.41 168.5 27.37 152.28 27.37 159.74 30.38 159.74 39.41 168.5"/><polygon class="cls-28" points="39.41 168.5 27.44 152.47 27.44 159.74 30.38 159.74 39.41 168.5"/><polygon class="cls-29" points="39.41 168.5 27.51 152.66 27.51 159.74 30.38 159.74 39.41 168.5"/><polygon class="cls-30" points="39.41 168.5 27.57 152.86 27.57 159.74 30.38 159.74 39.41 168.5"/><polygon class="cls-31" points="39.41 168.5 27.64 153.05 27.64 159.74 30.38 159.74 39.41 168.5"/><polygon class="cls-32" points="39.41 168.5 27.71 153.24 27.71 159.74 30.38 159.74 39.41 168.5"/><polygon class="cls-33" points="39.41 168.5 27.77 153.43 27.77 159.74 30.38 159.74 39.41 168.5"/><polygon class="cls-34" points="39.41 168.5 27.84 153.63 27.84 159.74 30.38 159.74 39.41 168.5"/><polygon class="cls-35" points="39.41 168.5 27.91 153.82 27.91 159.74 30.38 159.74 39.41 168.5"/><polygon class="cls-36" points="39.41 168.5 27.97 154.01 27.97 159.74 30.38 159.74 39.41 168.5"/><polygon class="cls-37" points="39.41 168.5 28.04 154.2 28.04 159.74 30.38 159.74 39.41 168.5"/><polygon class="cls-38" points="39.41 168.5 28.11 154.4 28.11 159.74 30.38 159.74 39.41 168.5"/><polygon class="cls-39" points="39.41 168.5 28.17 154.59 28.17 159.74 30.38 159.74 39.41 168.5"/><polygon class="cls-40" points="39.41 168.5 28.24 154.78 28.24 159.74 30.38 159.74 39.41 168.5"/><polygon class="cls-41" points="39.41 168.5 28.3 154.97 28.3 159.74 30.38 159.74 39.41 168.5"/><polygon class="cls-42" points="39.41 168.5 28.37 155.16 28.37 159.74 30.38 159.74 39.41 168.5"/><polygon class="cls-43" points="39.41 168.5 28.44 155.36 28.44 159.74 30.38 159.74 39.41 168.5"/><polygon class="cls-44" points="39.41 168.5 28.5 155.55 28.5 159.74 30.38 159.74 39.41 168.5"/><polygon class="cls-45" points="39.41 168.5 28.57 155.74 28.57 159.74 30.38 159.74 39.41 168.5"/><polygon class="cls-46" points="39.41 168.5 28.64 155.93 28.64 159.74 30.38 159.74 39.41 168.5"/><polygon class="cls-47" points="39.41 168.5 28.7 156.13 28.7 159.74 30.38 159.74 39.41 168.5"/><polygon class="cls-48" points="39.41 168.5 28.77 156.32 28.77 159.74 30.38 159.74 39.41 168.5"/><polygon class="cls-49" points="39.41 168.5 28.84 156.51 28.84 159.74 30.38 159.74 39.41 168.5"/><polygon class="cls-50" points="39.41 168.5 28.9 156.7 28.9 159.74 30.38 159.74 39.41 168.5"/><polygon class="cls-51" points="39.41 168.5 28.97 156.89 28.97 159.74 30.38 159.74 39.41 168.5"/><polygon class="cls-52" points="39.41 168.5 29.04 157.09 29.04 159.74 30.38 159.74 39.41 168.5"/><polygon class="cls-53" points="39.41 168.5 29.1 157.28 29.1 159.74 30.38 159.74 39.41 168.5"/><polygon class="cls-54" points="39.41 168.5 29.17 157.47 29.17 159.74 30.38 159.74 39.41 168.5"/></g><rect class="cls-55" x="8.47" y="168.5" width="30.94" height="30.94"/><polygon class="cls-56" points="30.94 159.74 39.41 168.5 8.47 168.5 0 159.74 30.94 159.74"/><polygon class="cls-57" points="0 159.74 8.47 168.5 8.47 199.44 0 190.69 0 159.74"/><g class="cls-2"><polygon class="cls-58" points="39.41 136.38 25.78 115.55 25.78 127.63 30.38 127.63 39.41 136.38"/><polygon class="cls-59" points="39.41 136.38 25.84 115.74 25.84 127.63 30.38 127.63 39.41 136.38"/><polygon class="cls-60" points="39.41 136.38 25.91 115.94 25.91 127.63 30.38 127.63 39.41 136.38"/><polygon class="cls-61" points="39.41 136.38 25.98 116.13 25.98 127.63 30.38 127.63 39.41 136.38"/><polygon class="cls-62" points="39.41 136.38 26.04 116.32 26.04 127.63 30.38 127.63 39.41 136.38"/><polygon class="cls-63" points="39.41 136.38 26.11 116.51 26.11 127.63 30.38 127.63 39.41 136.38"/><polygon class="cls-64" points="39.41 136.38 26.18 116.7 26.18 127.63 30.38 127.63 39.41 136.38"/><polygon class="cls-65" points="39.41 136.38 26.24 116.9 26.24 127.63 30.38 127.63 39.41 136.38"/><polygon class="cls-66" points="39.41 136.38 26.31 117.09 26.31 127.63 30.38 127.63 39.41 136.38"/><polygon class="cls-67" points="39.41 136.38 26.38 117.28 26.38 127.63 30.38 127.63 39.41 136.38"/><polygon class="cls-68" points="39.41 136.38 26.44 117.47 26.44 127.63 30.38 127.63 39.41 136.38"/><polygon class="cls-69" points="39.41 136.38 26.51 117.67 26.51 127.63 30.38 127.63 39.41 136.38"/><polygon class="cls-70" points="39.41 136.38 26.57 117.86 26.57 127.63 30.38 127.63 39.41 136.38"/><polygon class="cls-71" points="39.41 136.38 26.64 118.05 26.64 127.63 30.38 127.63 39.41 136.38"/><polygon class="cls-72" points="39.41 136.38 26.71 118.24 26.71 127.63 30.38 127.63 39.41 136.38"/><polygon class="cls-73" points="39.41 136.38 26.77 118.43 26.77 127.63 30.38 127.63 39.41 136.38"/><polygon class="cls-74" points="39.41 136.38 26.84 118.63 26.84 127.63 30.38 127.63 39.41 136.38"/><polygon class="cls-75" points="39.41 136.38 26.91 118.82 26.91 127.63 30.38 127.63 39.41 136.38"/><polygon class="cls-76" points="39.41 136.38 26.97 119.01 26.97 127.63 30.38 127.63 39.41 136.38"/><polygon class="cls-77" points="39.41 136.38 27.04 119.2 27.04 127.63 30.38 127.63 39.41 136.38"/><polygon class="cls-78" points="39.41 136.38 27.11 119.39 27.11 127.63 30.38 127.63 39.41 136.38"/><polygon class="cls-79" points="39.41 136.38 27.17 119.59 27.17 127.63 30.38 127.63 39.41 136.38"/><polygon class="cls-80" points="39.41 136.38 27.24 119.78 27.24 127.63 30.38 127.63 39.41 136.38"/><polygon class="cls-81" points="39.41 136.38 27.31 119.97 27.31 127.63 30.38 127.63 39.41 136.38"/><polygon class="cls-82" points="39.41 136.38 27.37 120.16 27.37 127.63 30.38 127.63 39.41 136.38"/><polygon class="cls-83" points="39.41 136.38 27.44 120.36 27.44 127.63 30.38 127.63 39.41 136.38"/><polygon class="cls-84" points="39.41 136.38 27.51 120.55 27.51 127.63 30.38 127.63 39.41 136.38"/><polygon class="cls-85" points="39.41 136.38 27.57 120.74 27.57 127.63 30.38 127.63 39.41 136.38"/><polygon class="cls-86" points="39.41 136.38 27.64 120.93 27.64 127.63 30.38 127.63 39.41 136.38"/><polygon class="cls-87" points="39.41 136.38 27.71 121.13 27.71 127.63 30.38 127.63 39.41 136.38"/><polygon class="cls-88" points="39.41 136.38 27.77 121.32 27.77 127.63 30.38 127.63 39.41 136.38"/><polygon class="cls-89" points="39.41 136.38 27.84 121.51 27.84 127.63 30.38 127.63 39.41 136.38"/><polygon class="cls-90" points="39.41 136.38 27.91 121.7 27.91 127.63 30.38 127.63 39.41 136.38"/><polygon class="cls-91" points="39.41 136.38 27.97 121.89 27.97 127.63 30.38 127.63 39.41 136.38"/><polygon class="cls-92" points="39.41 136.38 28.04 122.09 28.04 127.63 30.38 127.63 39.41 136.38"/><polygon class="cls-93" points="39.41 136.38 28.11 122.28 28.11 127.63 30.38 127.63 39.41 136.38"/><polygon class="cls-94" points="39.41 136.38 28.17 122.47 28.17 127.63 30.38 127.63 39.41 136.38"/><polygon class="cls-95" points="39.41 136.38 28.24 122.66 28.24 127.63 30.38 127.63 39.41 136.38"/><polygon class="cls-96" points="39.41 136.38 28.3 122.86 28.3 127.63 30.38 127.63 39.41 136.38"/><polygon class="cls-97" points="39.41 136.38 28.37 123.05 28.37 127.63 30.38 127.63 39.41 136.38"/><polygon class="cls-98" points="39.41 136.38 28.44 123.24 28.44 127.63 30.38 127.63 39.41 136.38"/><polygon class="cls-99" points="39.41 136.38 28.5 123.43 28.5 127.63 30.38 127.63 39.41 136.38"/><polygon class="cls-100" points="39.41 136.38 28.57 123.62 28.57 127.63 30.38 127.63 39.41 136.38"/><polygon class="cls-101" points="39.41 136.38 28.64 123.82 28.64 127.63 30.38 127.63 39.41 136.38"/><polygon class="cls-102" points="39.41 136.38 28.7 124.01 28.7 127.63 30.38 127.63 39.41 136.38"/><polygon class="cls-103" points="39.41 136.38 28.77 124.2 28.77 127.63 30.38 127.63 39.41 136.38"/><polygon class="cls-104" points="39.41 136.38 28.84 124.39 28.84 127.63 30.38 127.63 39.41 136.38"/><polygon class="cls-105" points="39.41 136.38 28.9 124.58 28.9 127.63 30.38 127.63 39.41 136.38"/><polygon class="cls-106" points="39.41 136.38 28.97 124.78 28.97 127.63 30.38 127.63 39.41 136.38"/><polygon class="cls-107" points="39.41 136.38 29.04 124.97 29.04 127.63 30.38 127.63 39.41 136.38"/><polygon class="cls-108" points="39.41 136.38 29.1 125.16 29.1 127.63 30.38 127.63 39.41 136.38"/><polygon class="cls-109" points="39.41 136.38 29.17 125.35 29.17 127.63 30.38 127.63 39.41 136.38"/></g><rect class="cls-110" x="8.47" y="136.38" width="30.94" height="30.94"/><polygon class="cls-111" points="30.94 127.63 39.41 136.38 8.47 136.38 0 127.63 30.94 127.63"/><polygon class="cls-112" points="0 127.63 8.47 136.38 8.47 167.33 0 158.57 0 127.63"/><g class="cls-2"><polygon class="cls-113" points="39.41 104.59 25.78 83.76 25.78 95.83 30.38 95.83 39.41 104.59"/><polygon class="cls-114" points="39.41 104.59 25.84 83.95 25.84 95.83 30.38 95.83 39.41 104.59"/><polygon class="cls-115" points="39.41 104.59 25.91 84.14 25.91 95.83 30.38 95.83 39.41 104.59"/><polygon class="cls-116" points="39.41 104.59 25.98 84.33 25.98 95.83 30.38 95.83 39.41 104.59"/><polygon class="cls-117" points="39.41 104.59 26.04 84.53 26.04 95.83 30.38 95.83 39.41 104.59"/><polygon class="cls-118" points="39.41 104.59 26.11 84.72 26.11 95.83 30.38 95.83 39.41 104.59"/><polygon class="cls-119" points="39.41 104.59 26.18 84.91 26.18 95.83 30.38 95.83 39.41 104.59"/><polygon class="cls-120" points="39.41 104.59 26.24 85.1 26.24 95.83 30.38 95.83 39.41 104.59"/><polygon class="cls-121" points="39.41 104.59 26.31 85.3 26.31 95.83 30.38 95.83 39.41 104.59"/><polygon class="cls-122" points="39.41 104.59 26.38 85.49 26.38 95.83 30.38 95.83 39.41 104.59"/><polygon class="cls-123" points="39.41 104.59 26.44 85.68 26.44 95.83 30.38 95.83 39.41 104.59"/><polygon class="cls-124" points="39.41 104.59 26.51 85.87 26.51 95.83 30.38 95.83 39.41 104.59"/><polygon class="cls-125" points="39.41 104.59 26.57 86.06 26.57 95.83 30.38 95.83 39.41 104.59"/><polygon class="cls-126" points="39.41 104.59 26.64 86.26 26.64 95.83 30.38 95.83 39.41 104.59"/><polygon class="cls-127" points="39.41 104.59 26.71 86.45 26.71 95.83 30.38 95.83 39.41 104.59"/><polygon class="cls-128" points="39.41 104.59 26.77 86.64 26.77 95.83 30.38 95.83 39.41 104.59"/><polygon class="cls-129" points="39.41 104.59 26.84 86.83 26.84 95.83 30.38 95.83 39.41 104.59"/><polygon class="cls-130" points="39.41 104.59 26.91 87.03 26.91 95.83 30.38 95.83 39.41 104.59"/><polygon class="cls-131" points="39.41 104.59 26.97 87.22 26.97 95.83 30.38 95.83 39.41 104.59"/><polygon class="cls-132" points="39.41 104.59 27.04 87.41 27.04 95.83 30.38 95.83 39.41 104.59"/><polygon class="cls-133" points="39.41 104.59 27.11 87.6 27.11 95.83 30.38 95.83 39.41 104.59"/><polygon class="cls-134" points="39.41 104.59 27.17 87.8 27.17 95.83 30.38 95.83 39.41 104.59"/><polygon class="cls-135" points="39.41 104.59 27.24 87.99 27.24 95.83 30.38 95.83 39.41 104.59"/><polygon class="cls-136" points="39.41 104.59 27.31 88.18 27.31 95.83 30.38 95.83 39.41 104.59"/><polygon class="cls-137" points="39.41 104.59 27.37 88.37 27.37 95.83 30.38 95.83 39.41 104.59"/><polygon class="cls-138" points="39.41 104.59 27.44 88.56 27.44 95.83 30.38 95.83 39.41 104.59"/><polygon class="cls-139" points="39.41 104.59 27.51 88.76 27.51 95.83 30.38 95.83 39.41 104.59"/><polygon class="cls-140" points="39.41 104.59 27.57 88.95 27.57 95.83 30.38 95.83 39.41 104.59"/><polygon class="cls-141" points="39.41 104.59 27.64 89.14 27.64 95.83 30.38 95.83 39.41 104.59"/><polygon class="cls-142" points="39.41 104.59 27.71 89.33 27.71 95.83 30.38 95.83 39.41 104.59"/><polygon class="cls-143" points="39.41 104.59 27.77 89.53 27.77 95.83 30.38 95.83 39.41 104.59"/><polygon class="cls-144" points="39.41 104.59 27.84 89.72 27.84 95.83 30.38 95.83 39.41 104.59"/><polygon class="cls-145" points="39.41 104.59 27.91 89.91 27.91 95.83 30.38 95.83 39.41 104.59"/><polygon class="cls-146" points="39.41 104.59 27.97 90.1 27.97 95.83 30.38 95.83 39.41 104.59"/><polygon class="cls-147" points="39.41 104.59 28.04 90.29 28.04 95.83 30.38 95.83 39.41 104.59"/><polygon class="cls-148" points="39.41 104.59 28.11 90.49 28.11 95.83 30.38 95.83 39.41 104.59"/><polygon class="cls-149" points="39.41 104.59 28.17 90.68 28.17 95.83 30.38 95.83 39.41 104.59"/><polygon class="cls-150" points="39.41 104.59 28.24 90.87 28.24 95.83 30.38 95.83 39.41 104.59"/><polygon class="cls-151" points="39.41 104.59 28.3 91.06 28.3 95.83 30.38 95.83 39.41 104.59"/><polygon class="cls-152" points="39.41 104.59 28.37 91.25 28.37 95.83 30.38 95.83 39.41 104.59"/><polygon class="cls-153" points="39.41 104.59 28.44 91.45 28.44 95.83 30.38 95.83 39.41 104.59"/><polygon class="cls-154" points="39.41 104.59 28.5 91.64 28.5 95.83 30.38 95.83 39.41 104.59"/><polygon class="cls-155" points="39.41 104.59 28.57 91.83 28.57 95.83 30.38 95.83 39.41 104.59"/><polygon class="cls-156" points="39.41 104.59 28.64 92.02 28.64 95.83 30.38 95.83 39.41 104.59"/><polygon class="cls-157" points="39.41 104.59 28.7 92.22 28.7 95.83 30.38 95.83 39.41 104.59"/><polygon class="cls-158" points="39.41 104.59 28.77 92.41 28.77 95.83 30.38 95.83 39.41 104.59"/><polygon class="cls-159" points="39.41 104.59 28.84 92.6 28.84 95.83 30.38 95.83 39.41 104.59"/><polygon class="cls-160" points="39.41 104.59 28.9 92.79 28.9 95.83 30.38 95.83 39.41 104.59"/><polygon class="cls-161" points="39.41 104.59 28.97 92.98 28.97 95.83 30.38 95.83 39.41 104.59"/><polygon class="cls-162" points="39.41 104.59 29.04 93.18 29.04 95.83 30.38 95.83 39.41 104.59"/><polygon class="cls-163" points="39.41 104.59 29.1 93.37 29.1 95.83 30.38 95.83 39.41 104.59"/><polygon class="cls-164" points="39.41 104.59 29.17 93.56 29.17 95.83 30.38 95.83 39.41 104.59"/></g><rect class="cls-165" x="8.47" y="104.59" width="30.94" height="30.94"/><polygon class="cls-166" points="30.94 95.83 39.41 104.59 8.47 104.59 0 95.83 30.94 95.83"/><polygon class="cls-167" points="0 95.83 8.47 104.59 8.47 135.53 0 126.78 0 95.83"/><g class="cls-2"><polygon class="cls-168" points="39.41 72.86 25.78 52.03 25.78 64.1 30.38 64.1 39.41 72.86"/><polygon class="cls-169" points="39.41 72.86 25.84 52.22 25.84 64.1 30.38 64.1 39.41 72.86"/><polygon class="cls-170" points="39.41 72.86 25.91 52.41 25.91 64.1 30.38 64.1 39.41 72.86"/><polygon class="cls-171" points="39.41 72.86 25.98 52.61 25.98 64.1 30.38 64.1 39.41 72.86"/><polygon class="cls-172" points="39.41 72.86 26.04 52.8 26.04 64.1 30.38 64.1 39.41 72.86"/><polygon class="cls-173" points="39.41 72.86 26.11 52.99 26.11 64.1 30.38 64.1 39.41 72.86"/><polygon class="cls-174" points="39.41 72.86 26.18 53.18 26.18 64.1 30.38 64.1 39.41 72.86"/><polygon class="cls-175" points="39.41 72.86 26.24 53.38 26.24 64.1 30.38 64.1 39.41 72.86"/><polygon class="cls-176" points="39.41 72.86 26.31 53.57 26.31 64.1 30.38 64.1 39.41 72.86"/><polygon class="cls-177" points="39.41 72.86 26.38 53.76 26.38 64.1 30.38 64.1 39.41 72.86"/><polygon class="cls-178" points="39.41 72.86 26.44 53.95 26.44 64.1 30.38 64.1 39.41 72.86"/><polygon class="cls-179" points="39.41 72.86 26.51 54.15 26.51 64.1 30.38 64.1 39.41 72.86"/><polygon class="cls-180" points="39.41 72.86 26.57 54.34 26.57 64.1 30.38 64.1 39.41 72.86"/><polygon class="cls-181" points="39.41 72.86 26.64 54.53 26.64 64.1 30.38 64.1 39.41 72.86"/><polygon class="cls-182" points="39.41 72.86 26.71 54.72 26.71 64.1 30.38 64.1 39.41 72.86"/><polygon class="cls-183" points="39.41 72.86 26.77 54.91 26.77 64.1 30.38 64.1 39.41 72.86"/><polygon class="cls-184" points="39.41 72.86 26.84 55.11 26.84 64.1 30.38 64.1 39.41 72.86"/><polygon class="cls-185" points="39.41 72.86 26.91 55.3 26.91 64.1 30.38 64.1 39.41 72.86"/><polygon class="cls-186" points="39.41 72.86 26.97 55.49 26.97 64.1 30.38 64.1 39.41 72.86"/><polygon class="cls-187" points="39.41 72.86 27.04 55.68 27.04 64.1 30.38 64.1 39.41 72.86"/><polygon class="cls-188" points="39.41 72.86 27.11 55.87 27.11 64.1 30.38 64.1 39.41 72.86"/><polygon class="cls-189" points="39.41 72.86 27.17 56.07 27.17 64.1 30.38 64.1 39.41 72.86"/><polygon class="cls-190" points="39.41 72.86 27.24 56.26 27.24 64.1 30.38 64.1 39.41 72.86"/><polygon class="cls-191" points="39.41 72.86 27.31 56.45 27.31 64.1 30.38 64.1 39.41 72.86"/><polygon class="cls-192" points="39.41 72.86 27.37 56.64 27.37 64.1 30.38 64.1 39.41 72.86"/><polygon class="cls-193" points="39.41 72.86 27.44 56.84 27.44 64.1 30.38 64.1 39.41 72.86"/><polygon class="cls-194" points="39.41 72.86 27.51 57.03 27.51 64.1 30.38 64.1 39.41 72.86"/><polygon class="cls-195" points="39.41 72.86 27.57 57.22 27.57 64.1 30.38 64.1 39.41 72.86"/><polygon class="cls-196" points="39.41 72.86 27.64 57.41 27.64 64.1 30.38 64.1 39.41 72.86"/><polygon class="cls-197" points="39.41 72.86 27.71 57.6 27.71 64.1 30.38 64.1 39.41 72.86"/><polygon class="cls-198" points="39.41 72.86 27.77 57.8 27.77 64.1 30.38 64.1 39.41 72.86"/><polygon class="cls-199" points="39.41 72.86 27.84 57.99 27.84 64.1 30.38 64.1 39.41 72.86"/><polygon class="cls-200" points="39.41 72.86 27.91 58.18 27.91 64.1 30.38 64.1 39.41 72.86"/><polygon class="cls-201" points="39.41 72.86 27.97 58.37 27.97 64.1 30.38 64.1 39.41 72.86"/><polygon class="cls-202" points="39.41 72.86 28.04 58.56 28.04 64.1 30.38 64.1 39.41 72.86"/><polygon class="cls-203" points="39.41 72.86 28.11 58.76 28.11 64.1 30.38 64.1 39.41 72.86"/><polygon class="cls-204" points="39.41 72.86 28.17 58.95 28.17 64.1 30.38 64.1 39.41 72.86"/><polygon class="cls-205" points="39.41 72.86 28.24 59.14 28.24 64.1 30.38 64.1 39.41 72.86"/><polygon class="cls-206" points="39.41 72.86 28.3 59.33 28.3 64.1 30.38 64.1 39.41 72.86"/><polygon class="cls-207" points="39.41 72.86 28.37 59.53 28.37 64.1 30.38 64.1 39.41 72.86"/><polygon class="cls-208" points="39.41 72.86 28.44 59.72 28.44 64.1 30.38 64.1 39.41 72.86"/><polygon class="cls-209" points="39.41 72.86 28.5 59.91 28.5 64.1 30.38 64.1 39.41 72.86"/><polygon class="cls-210" points="39.41 72.86 28.57 60.1 28.57 64.1 30.38 64.1 39.41 72.86"/><polygon class="cls-211" points="39.41 72.86 28.64 60.3 28.64 64.1 30.38 64.1 39.41 72.86"/><polygon class="cls-212" points="39.41 72.86 28.7 60.49 28.7 64.1 30.38 64.1 39.41 72.86"/><polygon class="cls-213" points="39.41 72.86 28.77 60.68 28.77 64.1 30.38 64.1 39.41 72.86"/><polygon class="cls-214" points="39.41 72.86 28.84 60.87 28.84 64.1 30.38 64.1 39.41 72.86"/><polygon class="cls-215" points="39.41 72.86 28.9 61.06 28.9 64.1 30.38 64.1 39.41 72.86"/><polygon class="cls-216" points="39.41 72.86 28.97 61.26 28.97 64.1 30.38 64.1 39.41 72.86"/><polygon class="cls-217" points="39.41 72.86 29.04 61.45 29.04 64.1 30.38 64.1 39.41 72.86"/><polygon class="cls-218" points="39.41 72.86 29.1 61.64 29.1 64.1 30.38 64.1 39.41 72.86"/><polygon class="cls-219" points="39.41 72.86 29.17 61.83 29.17 64.1 30.38 64.1 39.41 72.86"/></g><rect class="cls-220" x="8.47" y="72.86" width="30.94" height="30.94"/><polygon class="cls-221" points="30.94 64.1 39.41 72.86 8.47 72.86 0 64.1 30.94 64.1"/><polygon class="cls-222" points="0 64.1 8.47 72.86 8.47 103.81 0 95.05 0 64.1"/><g class="cls-2"><polygon class="cls-223" points="39.41 40.87 25.78 20.04 25.78 32.12 30.38 32.12 39.41 40.87"/><polygon class="cls-224" points="39.41 40.87 25.84 20.23 25.84 32.12 30.38 32.12 39.41 40.87"/><polygon class="cls-225" points="39.41 40.87 25.91 20.43 25.91 32.12 30.38 32.12 39.41 40.87"/><polygon class="cls-226" points="39.41 40.87 25.98 20.62 25.98 32.12 30.38 32.12 39.41 40.87"/><polygon class="cls-227" points="39.41 40.87 26.04 20.81 26.04 32.12 30.38 32.12 39.41 40.87"/><polygon class="cls-228" points="39.41 40.87 26.11 21 26.11 32.12 30.38 32.12 39.41 40.87"/><polygon class="cls-229" points="39.41 40.87 26.18 21.2 26.18 32.12 30.38 32.12 39.41 40.87"/><polygon class="cls-230" points="39.41 40.87 26.24 21.39 26.24 32.12 30.38 32.12 39.41 40.87"/><polygon class="cls-231" points="39.41 40.87 26.31 21.58 26.31 32.12 30.38 32.12 39.41 40.87"/><polygon class="cls-232" points="39.41 40.87 26.38 21.77 26.38 32.12 30.38 32.12 39.41 40.87"/><polygon class="cls-233" points="39.41 40.87 26.44 21.96 26.44 32.12 30.38 32.12 39.41 40.87"/><polygon class="cls-234" points="39.41 40.87 26.51 22.16 26.51 32.12 30.38 32.12 39.41 40.87"/><polygon class="cls-235" points="39.41 40.87 26.57 22.35 26.57 32.12 30.38 32.12 39.41 40.87"/><polygon class="cls-236" points="39.41 40.87 26.64 22.54 26.64 32.12 30.38 32.12 39.41 40.87"/><polygon class="cls-237" points="39.41 40.87 26.71 22.73 26.71 32.12 30.38 32.12 39.41 40.87"/><polygon class="cls-238" points="39.41 40.87 26.77 22.93 26.77 32.12 30.38 32.12 39.41 40.87"/><polygon class="cls-239" points="39.41 40.87 26.84 23.12 26.84 32.12 30.38 32.12 39.41 40.87"/><polygon class="cls-240" points="39.41 40.87 26.91 23.31 26.91 32.12 30.38 32.12 39.41 40.87"/><polygon class="cls-241" points="39.41 40.87 26.97 23.5 26.97 32.12 30.38 32.12 39.41 40.87"/><polygon class="cls-242" points="39.41 40.87 27.04 23.7 27.04 32.12 30.38 32.12 39.41 40.87"/><polygon class="cls-243" points="39.41 40.87 27.11 23.89 27.11 32.12 30.38 32.12 39.41 40.87"/><polygon class="cls-244" points="39.41 40.87 27.17 24.08 27.17 32.12 30.38 32.12 39.41 40.87"/><polygon class="cls-245" points="39.41 40.87 27.24 24.27 27.24 32.12 30.38 32.12 39.41 40.87"/><polygon class="cls-246" points="39.41 40.87 27.31 24.46 27.31 32.12 30.38 32.12 39.41 40.87"/><polygon class="cls-247" points="39.41 40.87 27.37 24.66 27.37 32.12 30.38 32.12 39.41 40.87"/><polygon class="cls-248" points="39.41 40.87 27.44 24.85 27.44 32.12 30.38 32.12 39.41 40.87"/><polygon class="cls-249" points="39.41 40.87 27.51 25.04 27.51 32.12 30.38 32.12 39.41 40.87"/><polygon class="cls-250" points="39.41 40.87 27.57 25.23 27.57 32.12 30.38 32.12 39.41 40.87"/><polygon class="cls-251" points="39.41 40.87 27.64 25.43 27.64 32.12 30.38 32.12 39.41 40.87"/><polygon class="cls-252" points="39.41 40.87 27.71 25.62 27.71 32.12 30.38 32.12 39.41 40.87"/><polygon class="cls-253" points="39.41 40.87 27.77 25.81 27.77 32.12 30.38 32.12 39.41 40.87"/><polygon class="cls-254" points="39.41 40.87 27.84 26 27.84 32.12 30.38 32.12 39.41 40.87"/><polygon class="cls-255" points="39.41 40.87 27.91 26.19 27.91 32.12 30.38 32.12 39.41 40.87"/><polygon class="cls-256" points="39.41 40.87 27.97 26.39 27.97 32.12 30.38 32.12 39.41 40.87"/><polygon class="cls-257" points="39.41 40.87 28.04 26.58 28.04 32.12 30.38 32.12 39.41 40.87"/><polygon class="cls-258" points="39.41 40.87 28.11 26.77 28.11 32.12 30.38 32.12 39.41 40.87"/><polygon class="cls-259" points="39.41 40.87 28.17 26.96 28.17 32.12 30.38 32.12 39.41 40.87"/><polygon class="cls-260" points="39.41 40.87 28.24 27.16 28.24 32.12 30.38 32.12 39.41 40.87"/><polygon class="cls-261" points="39.41 40.87 28.3 27.35 28.3 32.12 30.38 32.12 39.41 40.87"/><polygon class="cls-262" points="39.41 40.87 28.37 27.54 28.37 32.12 30.38 32.12 39.41 40.87"/><polygon class="cls-263" points="39.41 40.87 28.44 27.73 28.44 32.12 30.38 32.12 39.41 40.87"/><polygon class="cls-264" points="39.41 40.87 28.5 27.92 28.5 32.12 30.38 32.12 39.41 40.87"/><polygon class="cls-265" points="39.41 40.87 28.57 28.12 28.57 32.12 30.38 32.12 39.41 40.87"/><polygon class="cls-266" points="39.41 40.87 28.64 28.31 28.64 32.12 30.38 32.12 39.41 40.87"/><polygon class="cls-267" points="39.41 40.87 28.7 28.5 28.7 32.12 30.38 32.12 39.41 40.87"/><polygon class="cls-268" points="39.41 40.87 28.77 28.69 28.77 32.12 30.38 32.12 39.41 40.87"/><polygon class="cls-269" points="39.41 40.87 28.84 28.89 28.84 32.12 30.38 32.12 39.41 40.87"/><polygon class="cls-270" points="39.41 40.87 28.9 29.08 28.9 32.12 30.38 32.12 39.41 40.87"/><polygon class="cls-271" points="39.41 40.87 28.97 29.27 28.97 32.12 30.38 32.12 39.41 40.87"/><polygon class="cls-272" points="39.41 40.87 29.04 29.46 29.04 32.12 30.38 32.12 39.41 40.87"/><polygon class="cls-273" points="39.41 40.87 29.1 29.65 29.1 32.12 30.38 32.12 39.41 40.87"/><polygon class="cls-274" points="39.41 40.87 29.17 29.85 29.17 32.12 30.38 32.12 39.41 40.87"/></g><rect class="cls-275" x="8.47" y="40.87" width="30.94" height="30.94"/><polygon class="cls-276" points="30.94 32.12 39.41 40.87 8.47 40.87 0 32.12 30.94 32.12"/><polygon class="cls-277" points="0 32.12 8.47 40.87 8.47 71.82 0 63.06 0 32.12"/><rect class="cls-278" x="8.47" y="8.76" width="30.94" height="30.94"/><polygon class="cls-279" points="30.94 0 39.41 8.76 8.47 8.76 0 0 30.94 0"/><polygon class="cls-280" points="0 0 8.47 8.76 8.47 39.7 0 30.94 0 0"/></g></g></svg>