<svg id="Layer_1" data-name="Layer 1" xmlns="http://www.w3.org/2000/svg" viewBox="0 0 64.27 109.92"><defs><style>.cls-1{fill:#a87c4f;}.cls-2{fill:#8a5d3b;}.cls-3{fill:#284da0;}.cls-4{fill:#223369;}.cls-5{fill:#dd1f26;}.cls-6{fill:#be1e2d;}.cls-7{fill:#fff100;}.cls-8{fill:#098442;}.cls-9{fill:#dbcc23;}.cls-10{fill:#fff;}.cls-11{fill:#f9ec31;}.cls-12{fill:#231f20;}.cls-13{fill:#2d2926;}.cls-14{fill:#e8c270;}.cls-15{fill:#404041;}.cls-16{fill:#f7d593;}.cls-17{fill:#00a14b;}</style></defs><title>small parrot</title><path class="cls-1" d="M1.66,49.64l.75.43a4,4,0,0,1,.83.75c.1.22,5.79.35,7.2.5s7.4.14,7.4.14l8.26.58c1.2.08,6.87.65,9,.87l.17-2.27h-1l-6.17-.81-7.66-.55-5.36-.37-8.11.27L0,48.67l2.11.71Z"/><path class="cls-2" d="M1.29,49.84l.64.65L1.61,51l-.26.62.71.55s3.19.14,4.47.23,3.8.4,4.87.32,4.91-.26,6.11-.17,7.49.66,7.49.66l10,1.25.11-1.51c-2.11-.21-7.79-.78-9-.87l-8.26-.58s-6,0-7.4-.14-7.11-.27-7.2-.5a4,4,0,0,0-.83-.75l-.75-.43.45-.26L0,48.67l1.18.94Z"/><path class="cls-2" d="M11,49.67a5.33,5.33,0,0,0-1,0l-1,0-1.26,0c-1.78-.08-3.24-.17-3.25-.12a21.89,21.89,0,0,0,3.26.3l1.28,0,1,0A4.16,4.16,0,0,0,11,49.67Z"/><path class="cls-2" d="M24.72,51.25a19.93,19.93,0,0,0-2.33-.32c-1.45-.15-3.47-.36-5.73-.43-4.43.08-8,0-8,.07a21.31,21.31,0,0,0,2.37.14l2.56.05c1,0,2,0,3.1,0,2.18.06,4.21.24,5.66.35S24.71,51.28,24.72,51.25Z"/><path class="cls-2" d="M27.11,50.8s-1.93-.29-4.35-.54c-1.21-.13-2.31-.21-3.1-.26a9.17,9.17,0,0,0-1.29,0,9.18,9.18,0,0,0,1.27.17c.79.09,1.88.18,3.08.31C25.13,50.68,27.09,50.84,27.11,50.8Z"/><path class="cls-2" d="M34.26,52.23a16.53,16.53,0,0,0-2.8-.39,17.2,17.2,0,0,0-2.85-.16,16.53,16.53,0,0,0,2.8.39A17.15,17.15,0,0,0,34.26,52.23Z"/><path class="cls-2" d="M34,50.93a22.82,22.82,0,0,0-2.36-.33,17.4,17.4,0,0,0-2.4-.2,14.53,14.53,0,0,0,2.35.38A12.6,12.6,0,0,0,34,50.93Z"/><path class="cls-3" d="M16,62.13c-.15,2.26-.24,5.22.23,6.1.24.45.55.34.85-.06l-.46-5.89S16.29,62.23,16,62.13Z"/><path class="cls-4" d="M16.19,59.38s-.13,1.21-.23,2.76c.33.1.62.15.62.15L17,68.18a10.41,10.41,0,0,0,1.37-3.71C18.41,63.78,20,55.81,16.19,59.38Z"/><path class="cls-3" d="M24.22,61.84c.42,2.23.86,5.16.5,6.09-.19.48-.5.4-.85,0l-.25-5.9S23.9,62,24.22,61.84Z"/><path class="cls-4" d="M23.66,59.13s.28,1.19.56,2.71c-.32.13-.6.22-.6.22l.25,5.9a10.48,10.48,0,0,1-1.8-3.53C22,63.76,19.44,56,23.66,59.13Z"/><path class="cls-5" d="M23.29,58.58l-.79-.45a26.08,26.08,0,0,1-2,4.34c-1,1.47-2,0-2,0A3.32,3.32,0,0,1,17,63.82c.19,4.31.48,10.11.79,12.75.52,4.48,2,17.53,2.53-1,0,0,1.51,15.34,2.44,16.78.82,1.27.71-.61.71-1.2,0,0,1.89,2.36,1.09-.24-.39-1.27-2.08-13.18-1.89-17.48,0,0,1.48,8.9,1.93,11.2s1.81,3.54,1.35.65C25,79.58,23.3,73,23.29,58.58Z"/><path class="cls-6" d="M21.78,60c.43-1,.72-1.82.72-1.82l.79.45q-.07-1.48-.12-3s-5.52-5.21-6.41,3c0,0,.08,2.27.21,5.26a3.32,3.32,0,0,0,1.49-1.35,1.72,1.72,0,0,0,.94.64c.22,2.88.58,7.64.69,9.85,0,0,0-6-.06-10a1.72,1.72,0,0,0,.47-.5,12,12,0,0,0,.72-1.29c.21,2.43.68,7.37,1.23,10.35,0,0-1-8.72-.68-11.57Z"/><path class="cls-7" d="M24.35,35.45a5.49,5.49,0,0,0-.77-1.38c.32,3.32-1.16,2.8-1.16,2.8-.18,2.15-1.06,1.49-1.06,1.49-.31,1.77-1.24.26-1.24.26-.58,2.95-2,1.21-2,1.21-.71,2.3-1.64.52-1.64.52-.27,1.39-1.38,0-1.38,0-.31,1.69-1.82.11-1.82.11,0,1.67-2.26-1.26-2.26-1.26.13,3.31-2.31-1-2.31-1,.09,1.39-1.33,1.34-2.22-.48a6.55,6.55,0,0,1-.53-2.12,13.92,13.92,0,0,0,.41,5.16A9.82,9.82,0,0,0,8.15,42.9c.9.55,1.76,1,1.7,0,0,0,2.53,3.06,2.53,1.72,0,0,1.1,1.72,1.36,1,0,0,2.41,2.15,2.72,1.14,0,0,1.24,1.17,1.41.49,0,0,1.1.81,1.13-.78,0,0,1.36.91,1.56-.23,0,0,1.17.72,1.36-1.43,0,0,1.13.62,1.53-1.2a28.82,28.82,0,0,0,1-7.38C24.45,35.95,24.4,35.69,24.35,35.45Z"/><path class="cls-3" d="M25.92,57.92c-1.11-.74-2.84-2.17-2.84-2.17a35.22,35.22,0,0,1-4.33-3.14,40.28,40.28,0,0,0,5.75,3.51c2.06.85,2.34.56,2.34.56-.06-.19-.44-.47-1.1-.72A13.32,13.32,0,0,1,23,54.41l-1.46-1.08A7.18,7.18,0,0,0,25,54.79a1.31,1.31,0,0,0-.12-.49,2.47,2.47,0,0,0-1.29-1,31.72,31.72,0,0,1-5-2.29,16.64,16.64,0,0,1-1.54-1.28A18.8,18.8,0,0,0,23.7,52.9a64.86,64.86,0,0,0,1.16-13.54c0-.62-.08-1.21-.14-1.79C24.7,47,23,45.13,23,45.13c-.31,2-1.46,1.43-1.46,1.43-.4,1.52-1.2.78-1.2.78-.31,1.6-1.2.74-1.2.74.18,2-1.38-.09-1.38-.09,0,1.17-1.62-.74-1.62-.74s.11.69-.77.43a5.88,5.88,0,0,1-2-1.6s0,1.08-1.29.3A10.73,10.73,0,0,1,9.59,44c0,.43.22,1.17-1.38,0A6.41,6.41,0,0,1,7,42.7H7a23,23,0,0,0,2.17,4.17,31.21,31.21,0,0,0,4.49,4.43C15.8,52.86,25,58.9,27.2,59,27.16,58.8,26.54,58.33,25.92,57.92Z"/><path class="cls-4" d="M18.62,51a31.72,31.72,0,0,0,5,2.29l.08-.42a18.8,18.8,0,0,1-6.62-3.14A16.64,16.64,0,0,0,18.62,51Z"/><path class="cls-5" d="M23.58,34.07a5.49,5.49,0,0,1,.77,1.38,16.61,16.61,0,0,0-1-3.08,11.45,11.45,0,0,0-4.45-5.27s-.64-4.66-3.69-7.18a11.92,11.92,0,0,0-8.74-2.75c-2.84.08-3.84,1.27-4.16,2.28a4.64,4.64,0,0,0,.25,2.9A45.3,45.3,0,0,1,7,27a4,4,0,0,1,1.32-.73,4.92,4.92,0,0,0,2.15-.77,5.77,5.77,0,0,1-.7,2.72A25,25,0,0,0,7,31.73a11.85,11.85,0,0,0-1.13,3.86,6.55,6.55,0,0,0,.53,2.12c.89,1.82,2.31,1.86,2.22.48,0,0,2.44,4.29,2.31,1,0,0,2.22,2.92,2.26,1.26,0,0,1.51,1.59,1.82-.11,0,0,1.11,1.43,1.38,0,0,0,.93,1.78,1.64-.52,0,0,1.46,1.73,2-1.21,0,0,.93,1.51,1.24-.26,0,0,.89.65,1.06-1.49,0,0,1.49.51,1.16-2.81Z"/><path class="cls-8" d="M6.17,40.54h0l-.52-.77,0,0-.08-.12-.05-.08-.05-.08-.1-.15a14,14,0,0,0,.38,1.45A19.5,19.5,0,0,0,7,42.7a17.89,17.89,0,0,1-.64-2Z"/><path class="cls-9" d="M5.91,35.59A14.09,14.09,0,0,1,5.84,34h0c0-.07,0-.14,0-.21v0c0-.07,0-.15,0-.22a12.56,12.56,0,0,0-.7,4.09,8.57,8.57,0,0,0,.18,1.66c.21.32.57.88,1,1.47A13.92,13.92,0,0,1,5.91,35.59Z"/><path class="cls-6" d="M9.77,28.22a5.77,5.77,0,0,0,.7-2.72,4.92,4.92,0,0,1-2.15.77A4,4,0,0,0,7,27l0,.06c1.19,1.68,0,4,0,4a10.79,10.79,0,0,0-1.19,2.48,14.93,14.93,0,0,0,.06,2.06A11.85,11.85,0,0,1,7,31.73,25,25,0,0,1,9.77,28.22Z"/><path class="cls-3" d="M24.82,58.64a8,8,0,0,0-2.62-1.51v0s-9.15-8.58-8.62-6.45.27,6.84.22,9,1.22,1,1.22,1c-.2,2.34,1.8,0,1.8,0-.44,5.25,1.93-.13,1.93-.13-.16,1.21.16,2.08,1.34.75a8.31,8.31,0,0,0,1.14-1.8c.13.8.41,1.91,1,2.22.89.49.75-2,.75-2s.83,2.44,1.83,2.93S25.17,59.27,24.82,58.64Z"/><path class="cls-4" d="M22.21,52.39a23.63,23.63,0,0,0,.25-2.82c0-1.19-.13.59-.42,2.38l-.06.35-.34-.12A13.56,13.56,0,0,0,22,50.65c.07-.66-.13-.21-.21.36,0,.25-.15.73-.25,1.13-.3-.1-.56-.17-.76-.22a9.36,9.36,0,0,0,.13-1.1c0-.37-.16-.09-.29.63l-.08.42a2.86,2.86,0,0,0-.39-.05,27.5,27.5,0,0,1,3.52,1.52l.06-.28C23.11,52.77,22.63,52.56,22.21,52.39Z"/><path class="cls-10" d="M5.64,22.4s-.37-2.36.47-2.73a3.61,3.61,0,0,1,3.09,0c1.4.54,2.12.7,2.12,2.28s-.55,3.85-1.74,4.47a2.84,2.84,0,0,1-2.59,0C6.61,26.25,5.61,24.5,5.64,22.4Z"/><ellipse class="cls-11" cx="8.03" cy="21.18" rx="1.3" ry="1.27"/><ellipse class="cls-12" cx="7.79" cy="21.18" rx="0.78" ry="0.76"/><ellipse class="cls-10" cx="8.18" cy="20.47" rx="0.39" ry="0.38"/><path class="cls-13" d="M4.24,26.17A7.1,7.1,0,0,0,8.39,27s.76-.54-.3-2.15S6.23,23,5.64,23.27A2.8,2.8,0,0,0,4.24,26.17Z"/><path class="cls-4" d="M25,54.79a7.18,7.18,0,0,1-3.44-1.47L23,54.41S24.92,55.14,25,54.79Z"/><path class="cls-4" d="M26.36,56.92c.38,0,.53-.08.49-.24,0,0-.28.28-2.34-.56a40.28,40.28,0,0,1-5.75-3.51,35.22,35.22,0,0,0,4.33,3.14A16,16,0,0,0,26.36,56.92Z"/><path class="cls-4" d="M27.2,59C26,59,23,57.27,20,55.44a.21.21,0,0,0-.11-.07c-2.66-1.63-5.22-3.34-6.23-4.07a32.71,32.71,0,0,1-4.74-4.72l.24.28A23,23,0,0,1,7,42.7H7c-.23-.31-.45-.65-.66-1h0L6,41.23H6l-.28-.48a22,22,0,0,0,2.06,4.5l0,.06,0-.06A22.52,22.52,0,0,0,15,52.89l.34.22c0,.61,0,2.14,0,2.86A16.69,16.69,0,0,0,16,53.53l1.48.93c0,.43-.13,2.48-.25,3.1a12.29,12.29,0,0,0,.65-2.85l1.49.91h0A20.11,20.11,0,0,1,19,59.74a19.47,19.47,0,0,0,1.14-3.69l1.29.76a10.37,10.37,0,0,1,0,1.42,6.89,6.89,0,0,1,.47-1.15l.63.36A7,7,0,0,0,22.8,59,7.16,7.16,0,0,1,23,57.7a15.37,15.37,0,0,0,3,1.35C26.9,59.28,27.23,59.23,27.2,59ZM7.91,45.42l-.07-.09Zm.93,1.12L8.43,46ZM8.38,46l-.32-.38ZM8,45.57l-.1-.13Z"/><path class="cls-14" d="M4.16,27.1a1.45,1.45,0,0,1,0-.82,4.64,4.64,0,0,1,1-2.34c.77-1,.76-1.44.67-1.67a4.54,4.54,0,0,0-3.28-1.68,6,6,0,0,0,2.25,8,5.58,5.58,0,0,1-.63-1.52h0Z"/><polygon class="cls-13" points="4.17 27.1 4.17 27.1 4.17 27.1 4.17 27.1"/><path class="cls-13" d="M5.15,23.93a4.64,4.64,0,0,0-1,2.34.75.75,0,0,1,0-.1c.47-.79,1.95-1.91,1.87-3.15a1.59,1.59,0,0,0-.28-.76C5.92,22.48,5.92,23,5.15,23.93Z"/><path class="cls-15" d="M6.35,23.8a19.15,19.15,0,0,1-1.11,1.84c-.38.48,1.24.5,1.51.5s1.09-.19.93-.82S6.71,23.16,6.35,23.8Z"/><path class="cls-16" d="M2.58,21a8.89,8.89,0,0,0-.44,2.72c.08,1.13.75,2.64.88,2.21s-.18-2,.58-2.94.78-1.4.23-1.72S2.7,20.62,2.58,21Z"/><path class="cls-17" d="M24.5,36.2a28.82,28.82,0,0,1-1,7.38c-.4,1.82-1.53,1.2-1.53,1.2-.2,2.15-1.36,1.43-1.36,1.43-.2,1.14-1.56.23-1.56.23,0,1.59-1.13.78-1.13.78-.17.68-1.41-.49-1.41-.49-.31,1-2.72-1.14-2.72-1.14-.27.75-1.36-1-1.36-1,0,1.33-2.53-1.72-2.53-1.72.07,1-.8.55-1.7,0a9.82,9.82,0,0,1-1.83-2.15,17.89,17.89,0,0,0,.64,2A6.41,6.41,0,0,0,8.22,44c1.6,1.17,1.38.43,1.38,0a10.73,10.73,0,0,0,2.53,2.34c1.33.78,1.29-.3,1.29-.3a5.88,5.88,0,0,0,2,1.6c.89.26.77-.43.77-.43s1.62,1.91,1.62.74c0,0,1.55,2,1.38.09,0,0,.89.87,1.2-.74,0,0,.8.74,1.2-.78,0,0,1.15.52,1.46-1.43,0,0,1.66,1.83,1.68-7.55C24.66,37.1,24.59,36.65,24.5,36.2Z"/><path class="cls-16" d="M5.65,39.76l.52.77Z"/><path class="cls-16" d="M5.71,40.74l.28.48Z"/><path class="cls-1" d="M61.85,47.23l-1.1.63a5.88,5.88,0,0,0-1.21,1.08c-.14.33-8.42.5-10.47.72s-10.76.21-10.76.21l-12,.84c-1.74.12-10,.95-13.06,1.26L13,48.66l1.49,0,9-1.17,11.13-.8,7.78-.54,11.8.39,10.1-.7-3.07,1Z"/><path class="cls-2" d="M62.38,47.51l-.93.95.47.68.38.9-1,.8s-4.64.21-6.5.34-5.52.59-7.08.46-7.14-.37-8.88-.25-10.89,1-10.89,1L13.4,54.17,13.24,52c3.07-.31,11.32-1.14,13.06-1.26l12-.84s8.71,0,10.76-.21,10.33-.4,10.47-.72a5.88,5.88,0,0,1,1.21-1.08l1.1-.63-.65-.38,3.07-1-1.71,1.37Z"/><path class="cls-2" d="M48.27,47.28a7.74,7.74,0,0,1,1.39,0l1.48,0L53,47.14c2.59-.11,4.71-.24,4.72-.17A31.82,31.82,0,0,1,53,47.4c-.66,0-1.28,0-1.85,0l-1.5,0A6,6,0,0,1,48.27,47.28Z"/><path class="cls-2" d="M28.33,49.56a29,29,0,0,1,3.39-.46c2.11-.22,5-.53,8.33-.62,6.43.11,11.62,0,11.62.1a31,31,0,0,1-3.45.2c-1.06,0-2.32.05-3.73.07s-3,0-4.5,0c-3.18.09-6.11.36-8.22.51S28.34,49.61,28.33,49.56Z"/><path class="cls-2" d="M24.85,48.91c0-.07,2.8-.42,6.32-.79,1.76-.19,3.36-.3,4.51-.38a13.32,13.32,0,0,1,1.88-.07,13.35,13.35,0,0,1-1.85.25c-1.15.13-2.74.26-4.48.45C27.73,48.74,24.88,49,24.85,48.91Z"/><path class="cls-2" d="M14.46,51a24,24,0,0,1,4.07-.57,25,25,0,0,1,4.15-.23,24,24,0,0,1-4.07.57A24.93,24.93,0,0,1,14.46,51Z"/><path class="cls-2" d="M14.91,49.11a33.18,33.18,0,0,1,3.43-.48,25.29,25.29,0,0,1,3.49-.29,21.12,21.12,0,0,1-3.41.55A18.31,18.31,0,0,1,14.91,49.11Z"/><path class="cls-3" d="M41.07,65.39c.22,3.28.35,7.59-.34,8.87-.36.66-.8.49-1.24-.08l.67-8.56S40.59,65.53,41.07,65.39Z"/><path class="cls-4" d="M40.73,61.38s.19,1.76.34,4c-.48.14-.9.22-.9.22l-.67,8.56a15.14,15.14,0,0,1-2-5.39C37.5,67.79,35.18,56.19,40.73,61.38Z"/><path class="cls-3" d="M29.06,65c-.61,3.24-1.26,7.5-.72,8.85.27.69.73.58,1.24.06l.36-8.58S29.52,65.15,29.06,65Z"/><path class="cls-4" d="M29.88,61s-.4,1.73-.82,3.94c.46.19.87.32.87.32l-.36,8.58a15.23,15.23,0,0,0,2.62-5.13C32.31,67.75,36,56.5,29.88,61Z"/><path class="cls-5" d="M30.4,60.23l1.15-.65a37.91,37.91,0,0,0,2.9,6.3c1.42,2.14,3,0,3,0a4.83,4.83,0,0,0,2.17,2c-.27,6.26-.7,14.69-1.14,18.53-.75,6.51-3,25.48-3.67-1.49,0,0-2.19,22.3-3.55,24.4-1.19,1.85-1-.89-1-1.75,0,0-2.74,3.43-1.58-.35.57-1.85,3-19.16,2.74-25.42,0,0-2.15,12.94-2.81,16.28s-2.64,5.14-2,.94C27.9,90.75,30.4,81.2,30.4,60.23Z"/><path class="cls-6" d="M32.6,62.23c-.62-1.45-1-2.65-1-2.65l-1.15.65q.1-2.15.17-4.36s8-7.57,9.32,4.33c0,0-.12,3.3-.31,7.65a4.83,4.83,0,0,1-2.17-2,2.51,2.51,0,0,1-1.37.93c-.32,4.19-.84,11.1-1,14.32,0,0,.06-8.76.09-14.53a2.5,2.5,0,0,1-.68-.73,17.36,17.36,0,0,1-1-1.87c-.3,3.54-1,10.72-1.79,15,0,0,1.43-12.68,1-16.82Z"/><path class="cls-7" d="M28.87,26.59a8,8,0,0,1,1.11-2c-.47,4.82,1.69,4.08,1.69,4.08.26,3.12,1.55,2.17,1.55,2.17.45,2.58,1.81.38,1.81.38C35.87,35.5,38,33,38,33c1,3.34,2.39.76,2.39.76.39,2,2-.06,2-.06.45,2.46,2.65.15,2.65.15C45.1,36.25,48.32,32,48.32,32c-.19,4.82,3.35-1.41,3.35-1.41-.13,2,1.94,2,3.23-.69a9.52,9.52,0,0,0,.77-3.08,20.24,20.24,0,0,1-.6,7.5,14.28,14.28,0,0,1-2.66,3.12c-1.31.8-2.56,1.51-2.47,0,0,0-3.68,4.44-3.68,2.51,0,0-1.6,2.51-2,1.42,0,0-3.5,3.12-4,1.65,0,0-1.81,1.7-2,.71,0,0-1.6,1.18-1.65-1.13,0,0-2,1.32-2.27-.33,0,0-1.69,1-2-2.08,0,0-1.65.9-2.23-1.75a41.9,41.9,0,0,1-1.52-10.72C28.72,27.32,28.79,27,28.87,26.59Z"/><path class="cls-3" d="M26.58,59.26c1.61-1.07,4.13-3.15,4.13-3.15A51.21,51.21,0,0,0,37,51.55s-5.35,3.87-8.35,5.1-3.41.82-3.41.82c.09-.28.63-.69,1.6-1a19.37,19.37,0,0,0,3.94-2.27l2.13-1.58a10.44,10.44,0,0,1-5,2.14,1.9,1.9,0,0,1,.17-.72,3.59,3.59,0,0,1,1.87-1.42s5.64-2.1,7.26-3.32a24.18,24.18,0,0,0,2.24-1.86S36.51,50,29.81,52a94.29,94.29,0,0,1-1.68-19.68c0-.9.11-1.76.21-2.6,0,13.64,2.44,11,2.44,11,.45,2.84,2.13,2.08,2.13,2.08.58,2.21,1.74,1.13,1.74,1.13C35.1,46.22,36.39,45,36.39,45c-.26,2.84,2-.13,2-.13,0,1.7,2.36-1.07,2.36-1.07s-.17,1,1.12.63a8.55,8.55,0,0,0,2.9-2.33s-.06,1.58,1.87.44a15.6,15.6,0,0,0,3.68-3.4c0,.63-.32,1.7,2,0a9.31,9.31,0,0,0,1.82-2h0A33.4,33.4,0,0,1,51,43.21a45.37,45.37,0,0,1-6.53,6.45c-3.15,2.25-16.5,11-19.73,11.24C24.78,60.54,25.68,59.86,26.58,59.26Z"/><path class="cls-4" d="M37.19,49.26c-1.61,1.23-7.26,3.32-7.26,3.32s0-.22-.12-.61c6.69-2,9.62-4.57,9.62-4.57A24.18,24.18,0,0,1,37.19,49.26Z"/><path class="cls-5" d="M30,24.59a8,8,0,0,0-1.11,2,24.15,24.15,0,0,1,1.5-4.48,16.64,16.64,0,0,1,6.47-7.66S37.76,7.69,42.2,4,50.78-.1,54.9,0s5.58,1.84,6,3.31a6.75,6.75,0,0,1-.37,4.22,65.85,65.85,0,0,0-6.48,6.77,5.76,5.76,0,0,0-1.92-1.07,7.15,7.15,0,0,1-3.12-1.12s0,2.69,1,4,3.29,3.59,4,5.11a17.23,17.23,0,0,1,1.64,5.61,9.52,9.52,0,0,1-.77,3.08c-1.29,2.65-3.36,2.71-3.23.69,0,0-3.55,6.23-3.35,1.41,0,0-3.23,4.25-3.29,1.83,0,0-2.19,2.31-2.65-.15,0,0-1.61,2.08-2,.06,0,0-1.35,2.58-2.39-.76,0,0-2.13,2.52-3-1.76,0,0-1.35,2.2-1.81-.38,0,0-1.29.95-1.55-2.17,0,0-2.17.75-1.69-4.08Z"/><path class="cls-8" d="M55.29,34h0l.75-1.11,0-.06.12-.18.08-.12.08-.12.14-.21A20.3,20.3,0,0,1,56,34.29a28.35,28.35,0,0,1-1.82,2.86,26,26,0,0,0,.93-2.84Z"/><path class="cls-9" d="M55.68,26.81a20.48,20.48,0,0,0,.1-2.33v0c0-.1,0-.2,0-.3v0c0-.11,0-.21,0-.31a18.26,18.26,0,0,1,1,6,12.46,12.46,0,0,1-.27,2.41c-.3.47-.83,1.28-1.43,2.13A20.24,20.24,0,0,0,55.68,26.81Z"/><path class="cls-6" d="M50.06,16.09c-1-1.26-1-4-1-4a7.15,7.15,0,0,0,3.12,1.12,5.76,5.76,0,0,1,1.92,1.07l-.06.08c-1.73,2.44,0,5.8,0,5.8a15.69,15.69,0,0,1,1.73,3.6,21.7,21.7,0,0,1-.09,3A17.23,17.23,0,0,0,54,21.19C53.36,19.68,51,17.35,50.06,16.09Z"/><path class="cls-3" d="M28.18,60.3c.38-.68,2.64-1.7,3.81-2.2v0s13.31-12.48,12.53-9.37-.39,9.94-.32,13.09-1.77,1.45-1.77,1.45c.29,3.4-2.62,0-2.62,0C40.45,70.86,37,63,37,63c.23,1.76-.23,3-2,1.1a12.08,12.08,0,0,1-1.65-2.62c-.19,1.16-.6,2.78-1.41,3.23-1.29.71-1.1-2.84-1.1-2.84s-1.21,3.55-2.66,4.25S27.67,61.23,28.18,60.3Z"/><path class="cls-4" d="M32,51.23a34.35,34.35,0,0,1-.37-4.1c0-1.73.19.85.61,3.47l.08.51.49-.18a19.71,19.71,0,0,1-.44-2.23c-.1-1,.19-.3.31.52,0,.36.23,1.05.36,1.64.44-.15.81-.25,1.1-.32a13.61,13.61,0,0,1-.19-1.6c0-.54.23-.13.42.91,0,.19.08.4.12.62a4.16,4.16,0,0,1,.57-.08,40,40,0,0,0-5.11,2.21l-.08-.41C30.67,51.78,31.37,51.47,32,51.23Z"/><path class="cls-10" d="M56.07,7.63s.54-3.43-.68-4a5.25,5.25,0,0,0-4.49,0c-2,.78-3.08,1-3.08,3.31s.8,5.6,2.53,6.5a4.13,4.13,0,0,0,3.76,0C54.65,13.23,56.11,10.69,56.07,7.63Z"/><ellipse class="cls-11" cx="52.6" cy="5.86" rx="1.89" ry="1.85"/><ellipse class="cls-12" cx="52.94" cy="5.86" rx="1.13" ry="1.11"/><ellipse class="cls-10" cx="52.37" cy="4.83" rx="0.57" ry="0.55"/><path class="cls-13" d="M58.1,13.11a10.33,10.33,0,0,1-6,1.26s-1.11-.78.43-3.13,2.71-2.77,3.57-2.35A4.08,4.08,0,0,1,58.1,13.11Z"/><path class="cls-4" d="M27.9,54.72a10.44,10.44,0,0,0,5-2.14l-2.13,1.58S28,55.23,27.9,54.72Z"/><path class="cls-4" d="M25.95,57.81c-.55,0-.78-.12-.71-.35,0,0,.41.41,3.41-.82S37,51.55,37,51.55a51.21,51.21,0,0,1-6.29,4.56S27.18,57.75,25.95,57.81Z"/><path class="cls-4" d="M26.58,60.9a22.34,22.34,0,0,0,4.3-2,10.41,10.41,0,0,1,.24,1.95,10.15,10.15,0,0,0,.47-2.34l.92-.52a10,10,0,0,1,.69,1.67,15.07,15.07,0,0,1,0-2.06l1.87-1.1a28.3,28.3,0,0,0,1.66,5.36,29.23,29.23,0,0,1-.62-6h0l2.17-1.33a17.87,17.87,0,0,0,.94,4.14c-.17-.9-.33-3.88-.36-4.5L41,52.88a24.27,24.27,0,0,0,1,3.55c-.08-1,0-3.27,0-4.16l.49-.32A32.73,32.73,0,0,0,53,40.83l-.07.08.07-.08a32,32,0,0,0,3-6.55l-.4.7h0l-.44.72h0c-.31.49-.63,1-1,1.42h0A33.4,33.4,0,0,1,51,43.21l.36-.41a47.55,47.55,0,0,1-6.89,6.86c-1.48,1.06-5.19,3.55-9.06,5.91a.3.3,0,0,0-.16.1c-4.33,2.65-8.82,5.12-10.51,5.22C24.68,61.16,25.16,61.24,26.58,60.9ZM52.87,41l-.11.13ZM52,42l-.61.72Zm.52-.63-.46.55Zm.2-.24-.15.18Z"/><path class="cls-14" d="M58.21,14.45a2.1,2.1,0,0,0,0-1.2,6.74,6.74,0,0,0-1.39-3.41c-1.12-1.38-1.11-2.1-1-2.42A6.61,6.61,0,0,1,60.57,5s3.94,6.8-3.27,11.68a8.11,8.11,0,0,0,.91-2.2h0Z"/><polygon class="cls-13" points="58.21 14.45 58.21 14.45 58.21 14.45 58.21 14.45"/><path class="cls-13" d="M56.77,9.85a6.74,6.74,0,0,1,1.39,3.41,1.08,1.08,0,0,0-.07-.15c-.68-1.14-2.83-2.77-2.71-4.58a2.31,2.31,0,0,1,.41-1.1C55.67,7.75,55.66,8.47,56.77,9.85Z"/><path class="cls-15" d="M55,9.66a27.84,27.84,0,0,0,1.61,2.68c.55.69-1.81.72-2.19.72s-1.58-.28-1.35-1.2S54.52,8.73,55,9.66Z"/><path class="cls-16" d="M60.52,5.64a12.93,12.93,0,0,1,.64,4c-.12,1.64-1.09,3.84-1.28,3.21s.26-3-.84-4.27-1.13-2-.34-2.5S60.34,5,60.52,5.64Z"/><path class="cls-17" d="M28.65,27.69a41.9,41.9,0,0,0,1.52,10.72c.58,2.65,2.23,1.75,2.23,1.75.29,3.12,2,2.08,2,2.08.29,1.65,2.27.33,2.27.33,0,2.32,1.65,1.13,1.65,1.13.24,1,2-.71,2-.71.45,1.47,4-1.65,4-1.65.39,1.09,2-1.42,2-1.42,0,1.94,3.68-2.51,3.68-2.51-.1,1.51,1.16.8,2.47,0a14.28,14.28,0,0,0,2.66-3.12,26,26,0,0,1-.93,2.84,9.32,9.32,0,0,1-1.82,1.95c-2.32,1.7-2,.63-2,0a15.6,15.6,0,0,1-3.68,3.4c-1.94,1.13-1.87-.44-1.87-.44a8.55,8.55,0,0,1-2.9,2.33c-1.29.38-1.12-.63-1.12-.63s-2.36,2.77-2.36,1.07c0,0-2.26,3-2,.13,0,0-1.29,1.26-1.74-1.07,0,0-1.16,1.07-1.74-1.13,0,0-1.68.76-2.13-2.08,0,0-2.42,2.66-2.44-11C28.42,29,28.53,28.34,28.65,27.69Z"/><path class="cls-16" d="M56.05,32.87,55.3,34Z"/><path class="cls-16" d="M56,34.29l-.4.7Z"/></svg>