<svg id="Layer_1" data-name="Layer 1" xmlns="http://www.w3.org/2000/svg" viewBox="0 0 80.77 173.17"><defs><style>.cls-1{fill:#a87c4f;}.cls-2{fill:#8a5d3b;}.cls-3{fill:#284da0;}.cls-4{fill:#223369;}.cls-5{fill:#dd1f26;}.cls-6{fill:#be1e2d;}.cls-7{fill:#fff100;}.cls-8{fill:#098442;}.cls-9{fill:#dbcc23;}.cls-10{fill:#fff;}.cls-11{fill:#f9ec31;}.cls-12{fill:#231f20;}.cls-13{fill:#2d2926;}.cls-14{fill:#e8c270;}.cls-15{fill:#404041;}.cls-16{fill:#f7d593;}.cls-17{fill:#00a14b;}</style></defs><title>big parrot</title><path class="cls-1" d="M3.81,74.41l1.73,1a9.26,9.26,0,0,1,1.9,1.71c.22.51,13.26.79,16.5,1.14s17,.33,17,.33l18.92,1.32c2.74.19,15.73,1.49,20.57,2l.38-5.21-2.34,0L64.3,74.79,46.76,73.52,34.5,72.67l-18.58.62L0,72.18l4.84,1.63Z"/><path class="cls-2" d="M3,74.85l1.47,1.49-.74,1.07L3.1,78.83l1.62,1.25s7.31.33,10.25.53,8.7.93,11.16.73,11.25-.59,14-.4,17.16,1.51,17.16,1.51l22.86,2.87.25-3.46c-4.84-.49-17.83-1.79-20.57-2L40.9,78.57s-13.72,0-17-.33S7.67,77.62,7.44,77.1a9.26,9.26,0,0,0-1.9-1.71l-1.73-1,1-.6L0,72.18l2.7,2.15Z"/><path class="cls-2" d="M25.2,74.48A12.2,12.2,0,0,0,23,74.42l-2.34,0-2.88-.11c-4.09-.18-7.42-.38-7.44-.27a50.13,50.13,0,0,0,7.46.68c1,0,2,.06,2.92.08l2.37,0A9.52,9.52,0,0,0,25.2,74.48Z"/><path class="cls-2" d="M56.62,78.08a45.65,45.65,0,0,0-5.34-.73c-3.33-.35-7.94-.83-13.12-1-10.13.17-18.3,0-18.3.15a48.8,48.8,0,0,0,5.43.32c1.67,0,3.66.08,5.87.12s4.68-.06,7.1,0c5,.14,9.63.56,13,.81S56.6,78.16,56.62,78.08Z"/><path class="cls-2" d="M62.09,77.05c0-.11-4.41-.66-10-1.24-2.77-.31-5.29-.47-7.11-.6a21,21,0,0,0-3-.11,21,21,0,0,0,2.92.4c1.81.2,4.32.41,7.06.72C57.55,76.79,62.05,77.16,62.09,77.05Z"/><path class="cls-2" d="M78.46,80.34a37.87,37.87,0,0,0-6.42-.9,39.39,39.39,0,0,0-6.53-.36,37.87,37.87,0,0,0,6.42.9A39.28,39.28,0,0,0,78.46,80.34Z"/><path class="cls-2" d="M77.76,77.37a52.27,52.27,0,0,0-5.41-.75,39.85,39.85,0,0,0-5.51-.46,33.28,33.28,0,0,0,5.38.87A28.85,28.85,0,0,0,77.76,77.37Z"/><path class="cls-3" d="M36.54,103c-.35,5.17-.55,12,.54,14,.56,1,1.25.78,1.95-.13L38,103.37S37.3,103.24,36.54,103Z"/><path class="cls-4" d="M37.08,96.71s-.3,2.78-.54,6.31c.76.22,1.42.35,1.42.35L39,116.86c1.57-2,3.14-7.41,3.14-8.5C42.16,106.79,45.82,88.53,37.08,96.71Z"/><path class="cls-3" d="M55.47,102.34c1,5.1,2,11.81,1.14,13.94-.43,1.09-1.15.91-1.95.09l-.56-13.52S54.74,102.65,55.47,102.34Z"/><path class="cls-4" d="M54.18,96.14s.63,2.73,1.29,6.21c-.73.3-1.37.51-1.37.51l.56,13.52c-1.8-1.86-4-7-4.13-8.08C50.34,106.73,44.52,89,54.18,96.14Z"/><path class="cls-5" d="M53.35,94.89l-1.81-1s-2.34,6.55-4.57,9.93-4.68,0-4.68,0c-.52,1.33-2.23,2.45-3.42,3.09.43,9.86,1.1,23.14,1.8,29.2,1.19,10.26,4.68,40.15,5.79-2.34,0,0,3.46,35.14,5.59,38.44,1.88,2.91,1.63-1.41,1.63-2.76,0,0,4.32,5.41,2.49-.55-.9-2.92-4.76-30.19-4.32-40,0,0,3.4,20.39,4.43,25.65s4.16,8.1,3.1,1.49C57.3,143,53.35,127.92,53.35,94.89Z"/><path class="cls-6" d="M49.89,98c1-2.28,1.65-4.18,1.65-4.18l1.81,1q-.16-3.39-.27-6.87S40.43,76.09,38.39,94.83c0,0,.18,5.2.48,12,1.18-.64,2.9-1.77,3.42-3.09a4,4,0,0,0,2.15,1.47c.51,6.61,1.32,17.49,1.58,22.56,0,0-.09-13.81-.14-22.89A4,4,0,0,0,47,103.79a27.36,27.36,0,0,0,1.64-2.95c.48,5.57,1.55,16.89,2.83,23.7,0,0-2.25-20-1.55-26.49Z"/><path class="cls-7" d="M55.76,41.9A12.57,12.57,0,0,0,54,38.73c.74,7.6-2.67,6.42-2.67,6.42-.41,4.91-2.44,3.42-2.44,3.42-.71,4.06-2.85.6-2.85.6C44.73,55.93,41.38,52,41.38,52c-1.63,5.26-3.76,1.19-3.76,1.19-.61,3.18-3.15-.1-3.15-.1-.71,3.87-4.17.24-4.17.24-.1,3.82-5.18-2.88-5.18-2.88.31,7.59-5.28-2.23-5.28-2.23.21,3.18-3.05,3.08-5.08-1.09a15,15,0,0,1-1.22-4.86A31.88,31.88,0,0,0,14.48,54c1.45,2.07,3.16,4.29,4.18,4.92,2.06,1.27,4,2.38,3.89,0,0,0,5.79,7,5.79,3.95,0,0,2.52,3.95,3.13,2.23,0,0,5.52,4.92,6.23,2.61,0,0,2.84,2.68,3.23,1.12,0,0,2.52,1.86,2.59-1.79,0,0,3.13,2.09,3.58-.52,0,0,2.67,1.64,3.13-3.28,0,0,2.59,1.42,3.51-2.76a66,66,0,0,0,2.39-16.89C56,43,55.89,42.46,55.76,41.9Z"/><path class="cls-3" d="M59.37,93.36c-2.54-1.69-6.5-5-6.5-5C49.2,86.46,43,81.21,43,81.21s8.44,6.09,13.16,8,5.37,1.29,5.37,1.29c-.14-.45-1-1.09-2.52-1.64a30.51,30.51,0,0,1-6.2-3.57l-3.35-2.48a16.45,16.45,0,0,0,7.89,3.37A3,3,0,0,0,57,85.07a5.66,5.66,0,0,0-2.95-2.23s-8.89-3.3-11.43-5.24a38.1,38.1,0,0,1-3.53-2.93s4.61,4.05,15.15,7.2c.72-3.7,3.18-17.57,2.65-31-.06-1.42-.17-2.78-.33-4.09,0,21.49-3.84,17.3-3.84,17.3-.71,4.47-3.35,3.28-3.35,3.28-.92,3.48-2.74,1.79-2.74,1.79-.71,3.67-2.74,1.69-2.74,1.69.41,4.47-3.15-.2-3.15-.2,0,2.68-3.72-1.69-3.72-1.69s.26,1.59-1.77,1-4.57-3.67-4.57-3.67.1,2.48-2.95.7A24.58,24.58,0,0,1,22,61.59c0,1,.51,2.68-3.15,0a14.67,14.67,0,0,1-2.87-3.07h0a52.62,52.62,0,0,0,5,9.55c2.82,3.26,7,7.8,10.29,10.15,5,3.55,26,17.39,31.08,17.7C62.2,95.37,60.79,94.31,59.37,93.36Z"/><path class="cls-4" d="M42.65,77.6c2.54,1.94,11.43,5.24,11.43,5.24s.07-.34.19-1c-10.55-3.15-15.15-7.2-15.15-7.2A38.1,38.1,0,0,0,42.65,77.6Z"/><path class="cls-5" d="M54,38.73a12.57,12.57,0,0,1,1.75,3.16,38,38,0,0,0-2.36-7.06c-2.75-6.08-6.66-10-10.19-12.06,0,0-1.46-10.66-8.45-16.45S21.25-.16,14.75,0,6,2.93,5.23,5.25c-1,3.17.58,6.65.58,6.65S13.23,18.69,16,22.57a9.08,9.08,0,0,1,3-1.68A11.27,11.27,0,0,0,24,19.12s-.07,4.24-1.59,6.23-5.19,5.66-6.25,8a27.15,27.15,0,0,0-2.59,8.84,15,15,0,0,0,1.22,4.86c2,4.17,5.29,4.27,5.08,1.09,0,0,5.59,9.82,5.28,2.23,0,0,5.08,6.69,5.18,2.88,0,0,3.46,3.63,4.17-.24,0,0,2.54,3.28,3.15.1,0,0,2.13,4.07,3.76-1.19,0,0,3.35,4,4.68-2.78,0,0,2.13,3.46,2.85-.6,0,0,2,1.5,2.44-3.42,0,0,3.41,1.17,2.67-6.43Z"/><path class="cls-8" d="M14.14,53.55h0c-.44-.63-.84-1.23-1.19-1.76l-.06-.1-.19-.28-.12-.19L12.44,51l-.22-.34A32,32,0,0,0,13.09,54,44.66,44.66,0,0,0,16,58.52,41,41,0,0,1,14.48,54Z"/><path class="cls-9" d="M13.53,42.23a32.27,32.27,0,0,1-.16-3.67v0c0-.16,0-.32,0-.47s0,0,0-.06c0-.17,0-.34,0-.49a28.77,28.77,0,0,0-1.6,9.38,19.63,19.63,0,0,0,.42,3.79c.48.74,1.31,2,2.25,3.36A31.88,31.88,0,0,1,13.53,42.23Z"/><path class="cls-6" d="M22.37,25.35c1.52-2,1.59-6.23,1.59-6.23A11.27,11.27,0,0,1,19,20.89a9.08,9.08,0,0,0-3,1.68l.09.13c2.72,3.85,0,9.14,0,9.14a24.72,24.72,0,0,0-2.72,5.68,34.19,34.19,0,0,0,.14,4.72,27.15,27.15,0,0,1,2.59-8.84C17.18,31,20.85,27.33,22.37,25.35Z"/><path class="cls-3" d="M56.85,95c-.6-1.07-4.16-2.68-6-3.46l0-.06s-21-19.66-19.74-14.77.61,15.66.51,20.63,2.79,2.28,2.79,2.28c-.46,5.36,4.12,0,4.12,0-1,12,4.42-.3,4.42-.3-.36,2.78.36,4.77,3.07,1.73a19,19,0,0,0,2.61-4.13c.3,1.82,1,4.38,2.22,5.08,2,1.12,1.73-4.47,1.73-4.47s1.91,5.59,4.19,6.7S57.66,96.46,56.85,95Z"/><path class="cls-4" d="M50.86,80.71a54.12,54.12,0,0,0,.58-6.46c0-2.73-.3,1.34-1,5.46l-.13.8-.77-.28a31.05,31.05,0,0,0,.7-3.52c.15-1.52-.3-.47-.48.82-.08.57-.35,1.66-.57,2.58-.7-.23-1.27-.39-1.74-.5a21.44,21.44,0,0,0,.3-2.53c0-.84-.36-.2-.66,1.44-.06.3-.13.64-.19,1a6.55,6.55,0,0,0-.9-.13,63,63,0,0,1,8.05,3.48l.13-.64C52.94,81.57,51.83,81.09,50.86,80.71Z"/><path class="cls-10" d="M12.92,12S12.06,6.61,14,5.76s3.88-1.23,7.08,0S25.93,7.37,25.93,11s-1.26,8.82-4,10.24a6.51,6.51,0,0,1-5.92,0C15.15,20.84,12.85,16.84,12.92,12Z"/><ellipse class="cls-11" cx="18.38" cy="9.23" rx="2.98" ry="2.91"/><ellipse class="cls-12" cx="17.84" cy="9.23" rx="1.79" ry="1.74"/><ellipse class="cls-10" cx="18.73" cy="7.61" rx="0.89" ry="0.87"/><path class="cls-13" d="M9.71,20.65s4.66,2.75,9.51,2c0,0,1.75-1.23-.68-4.93s-4.27-4.36-5.63-3.7A6.42,6.42,0,0,0,9.71,20.65Z"/><path class="cls-4" d="M57.3,86.21a16.45,16.45,0,0,1-7.89-3.37l3.35,2.48S57.07,87,57.3,86.21Z"/><path class="cls-4" d="M60.37,91.08c.87,0,1.22-.19,1.12-.55,0,0-.64.65-5.37-1.29s-13.16-8-13.16-8,6.25,5.25,9.91,7.19C52.86,88.4,58.42,91,60.37,91.08Z"/><path class="cls-4" d="M62.3,95.92c-2.67-.16-9.73-4.06-16.56-8.23a.47.47,0,0,0-.25-.15c-6.09-3.73-11.94-7.65-14.27-9.32-3.52-2.51-8-7.53-10.85-10.81l.56.65a52.62,52.62,0,0,1-5-9.55h0c-.53-.72-1-1.48-1.52-2.24h0c-.24-.38-.47-.76-.69-1.13v0L13.09,54A50.41,50.41,0,0,0,17.8,64.33l.1.13-.1-.13c3.92,6.62,9.58,13.2,16.56,17.51l.78.5c0,1.4.11,4.9,0,6.55a38.23,38.23,0,0,0,1.53-5.59L40,85.44c0,1-.3,5.68-.57,7.09,0,0,1.52-4.42,1.49-6.52l3.42,2.09h0a46.06,46.06,0,0,1-1,9.44s2.43-6,2.61-8.45L49,90.82a23.74,23.74,0,0,1,0,3.24A15.77,15.77,0,0,1,50,91.43l1.45.82a16,16,0,0,0,.74,3.68,16.41,16.41,0,0,1,.37-3.07,35.2,35.2,0,0,0,6.77,3.09C61.61,96.47,62.37,96.36,62.3,95.92ZM18.12,64.73,18,64.52Zm2.14,2.57-1-1.14ZM19.2,66l-.72-.87Zm-.8-1-.23-.29Z"/><path class="cls-14" d="M9.54,22.77a3.31,3.31,0,0,1,.07-1.89,10.62,10.62,0,0,1,2.2-5.37c1.76-2.18,1.75-3.31,1.54-3.82C12,9.62,8.66,8,5.83,7.84c0,0-6.21,10.72,5.15,18.4a12.77,12.77,0,0,1-1.44-3.47h0Z"/><polygon class="cls-13" points="9.54 22.77 9.54 22.77 9.54 22.77 9.54 22.77"/><path class="cls-13" d="M11.8,15.52a10.62,10.62,0,0,0-2.2,5.37,1.71,1.71,0,0,1,.11-.24c1.07-1.8,4.47-4.36,4.27-7.21a3.64,3.64,0,0,0-.64-1.74C13.55,12.21,13.56,13.34,11.8,15.52Z"/><path class="cls-15" d="M14.55,15.22A43.85,43.85,0,0,1,12,19.44c-.86,1.09,2.85,1.14,3.46,1.14s2.49-.45,2.13-1.89S15.36,13.76,14.55,15.22Z"/><path class="cls-16" d="M5.91,8.89a20.37,20.37,0,0,0-1,6.23c.19,2.58,1.71,6.06,2,5.06s-.41-4.67,1.32-6.73,1.79-3.2.54-3.94S6.18,7.94,5.91,8.89Z"/><path class="cls-17" d="M56.12,43.63a66,66,0,0,1-2.39,16.89c-.91,4.17-3.51,2.76-3.51,2.76-.46,4.92-3.13,3.28-3.13,3.28-.46,2.61-3.58.52-3.58.52-.08,3.65-2.59,1.79-2.59,1.79-.38,1.56-3.23-1.12-3.23-1.12-.71,2.31-6.23-2.61-6.23-2.61-.61,1.71-3.13-2.23-3.13-2.23C28.34,66,22.55,59,22.55,59c.15,2.38-1.83,1.27-3.89,0-1-.63-2.73-2.85-4.18-4.92A41,41,0,0,0,16,58.52a14.68,14.68,0,0,0,2.86,3.07c3.66,2.68,3.15,1,3.15,0A24.58,24.58,0,0,0,27.76,67c3,1.79,2.95-.7,2.95-.7s2.54,3.08,4.57,3.67,1.77-1,1.77-1,3.72,4.37,3.72,1.69c0,0,3.56,4.67,3.15.2,0,0,2,2,2.74-1.69,0,0,1.83,1.69,2.74-1.79,0,0,2.64,1.19,3.35-3.28,0,0,3.81,4.19,3.84-17.3C56.47,45.69,56.31,44.64,56.12,43.63Z"/><path class="cls-16" d="M12.94,51.78c.35.52.75,1.12,1.19,1.76C13.69,52.91,13.29,52.3,12.94,51.78Z"/><path class="cls-16" d="M13.09,54l.63,1.1C13.5,54.74,13.29,54.37,13.09,54Z"/></svg>