<svg id="Layer_1" data-name="Layer 1" xmlns="http://www.w3.org/2000/svg" viewBox="0 0 106.08 51.87"><defs><style>.cls-1{fill:#080307;}.cls-2,.cls-8{fill:#fff;}.cls-2{opacity:0.25;}.cls-3{fill:#2a304a;}.cls-4{fill:#161416;}.cls-5{fill:#e3793d;}.cls-6{fill:#50311f;}.cls-7{fill:#2c73e7;}.cls-8{opacity:0.37;}</style></defs><title>skinkssmall</title><path class="cls-1" d="M85.12,16.33a11.06,11.06,0,0,1,3.35-1,42.14,42.14,0,0,1-4.59,2.4,2.1,2.1,0,0,1,1.81.24l-4.21,1.24a7.91,7.91,0,0,1-2.54.46c-.39,0-1,0-1.08.46a.64.64,0,0,0,0,.32l.71,3.06c.23,1,.79,1.84.59,3a2.06,2.06,0,0,1-.3.82,1.65,1.65,0,0,1-1.24.43c-.62-3-3.14-4.94-3.5-8.08a2,2,0,0,1,.47-1.7,2.14,2.14,0,0,1,1.4-.48l1.29-.1.48,0a6.15,6.15,0,0,0,3.09-.82,6,6,0,0,0,1.33-1.27,27.07,27.07,0,0,1,1.94-2.43,7.11,7.11,0,0,1-1.44,2.94c2.26-1.11,4-3.37,6.08-5-.86,2-3.33,3.09-4.26,5a35.08,35.08,0,0,1,5.59-2.65,3.77,3.77,0,0,1-1.27,1Z"/><path class="cls-2" d="M77,21a2.75,2.75,0,0,0-.57-2.56.89.89,0,0,0-.63-.31.82.82,0,0,0-.71.46.76.76,0,0,0,.13.73,5.25,5.25,0,0,1,.84,1.51c.08.29.1.62.18.91a.78.78,0,0,0,.55.61c.2-.22.11-.35.1-.56A3,3,0,0,1,77,21Z"/><path class="cls-3" d="M45.47,30.89A6.34,6.34,0,0,1,44.71,32h0a2.74,2.74,0,0,1-.56.48,3.93,3.93,0,0,1-1,.42l-2,.58a.9.9,0,0,1-.68,0c-.32-.2-.11-.77.11-1.21l0-.08,1.19-2.35.75-1.48h0l0,0a4.38,4.38,0,0,1-2.25,1.1,22.66,22.66,0,0,1-2.29.2,25.66,25.66,0,0,0-5.85,1.51,7.73,7.73,0,0,0-2.33,1.11,1.78,1.78,0,0,1,.17-.49h0a3.08,3.08,0,0,1,1-1.13,6.75,6.75,0,0,1,1.83-.76l4.26-1.29,0,0A3.9,3.9,0,0,0,35,27.07,12.89,12.89,0,0,0,31.62,26a16,16,0,0,1-5.38-2,1.17,1.17,0,0,0-.92-.22,2,2,0,0,1,.62-.31,2.15,2.15,0,0,1,1.09,0,9.17,9.17,0,0,1,1.44.6,10,10,0,0,0,2.57.57q1.76.23,3.54.4a1.59,1.59,0,0,1-.75-.39c-.3-.24-.58-.52-.79-.67l-1.61-1.13c-.31-.22-1.18-.54-1.05-1.09a.76.76,0,0,1,.16-.32,1.05,1.05,0,0,1,1.17-.13,10.68,10.68,0,0,1,2.19,1.35l0,0,.12-.07a.86.86,0,0,1,.78.12l1.83,1a.45.45,0,0,0,.31.08,1.5,1.5,0,0,0,.29-.13.89.89,0,0,1,1,.36l1.26,1.32.49.51a9.65,9.65,0,0,0,3.41-1.74h0l.19-.13a7.66,7.66,0,0,1,2.86-1.32,2.49,2.49,0,0,1,.76,0,.88.88,0,0,1,.82.67c.39,1.16-.22,2.69-.85,4.06C46.68,28.58,46.12,29.75,45.47,30.89Z"/><path class="cls-2" d="M44.38,24.55c-.07.07-.13.18-.09.24s.09,0,.14,0a.35.35,0,0,1,.24.41,1.69,1.69,0,0,1-.2.58,28.12,28.12,0,0,1-1.4,2.45,7.19,7.19,0,0,1-.54.8c-.25.31-.55.57-.83.86a7.3,7.3,0,0,0-1.05,1.39,1.51,1.51,0,0,0-.21.51.33.33,0,0,0,.18.39c.2.06.45-.12.66-.29l.72-.59c.23-.19.49-.43.49-.68,0-.07,0-.13,0-.2a1.12,1.12,0,0,1,.36-.62,15.18,15.18,0,0,0,1.28-1.65l-.59.45c0-.2.19-.41.35-.59a8.27,8.27,0,0,0,1.64-3.15,1.45,1.45,0,0,0,.09-.47C45.57,23.73,44.77,24.13,44.38,24.55Z"/><path class="cls-1" d="M45.47,30.89A6.34,6.34,0,0,1,44.71,32h0l-2,0a5.69,5.69,0,0,1,.93-1.29A17.37,17.37,0,0,0,47,24.67a2.16,2.16,0,0,0,.06-1.57.93.93,0,0,0-.59-.42,2.49,2.49,0,0,1,.76,0,.88.88,0,0,1,.82.67c.39,1.16-.22,2.69-.85,4.06C46.68,28.58,46.12,29.75,45.47,30.89Z"/><path class="cls-1" d="M42.52,28.39l0,0a4.38,4.38,0,0,1-2.25,1.1,22.66,22.66,0,0,1-2.29.2,25.66,25.66,0,0,0-5.85,1.51,7.73,7.73,0,0,0-2.33,1.11,1.78,1.78,0,0,1,.17-.49h0a8.12,8.12,0,0,1,3-1.31L34.47,30l1.7-.48a9,9,0,0,1,2.55-.46,3,3,0,0,0,.69,0,2.85,2.85,0,0,0,.58-.22,11.29,11.29,0,0,0,1.76-.92,4.35,4.35,0,0,0,1.41-1.49,1.94,1.94,0,0,1,.56-.79c.08,0,.18-.08.23,0s0,.17,0,.27A7.31,7.31,0,0,1,42.52,28.39Z"/><path class="cls-1" d="M30.38,21.72a.76.76,0,0,1,.16-.32,6.15,6.15,0,0,0,1.81,1.2,12.59,12.59,0,0,1,3.27,2.53,8.14,8.14,0,0,1-1.77-.51c-.3-.24-.58-.52-.79-.67l-1.61-1.13C31.13,22.59,30.25,22.27,30.38,21.72Z"/><path class="cls-1" d="M36.08,24a4.42,4.42,0,0,1-2.17-1.38l0,0,.12-.07a.67.67,0,0,0,.13.24,2.2,2.2,0,0,0,.82.46A4.1,4.1,0,0,1,36.08,24Z"/><path class="cls-1" d="M37.52,28.39a1.26,1.26,0,0,1-.42.16A3.9,3.9,0,0,0,35,27.07,12.89,12.89,0,0,0,31.62,26a16,16,0,0,1-5.38-2,1.17,1.17,0,0,0-.92-.22,2,2,0,0,1,.62-.31c1.17.48,2.35,1,3.54,1.41a9.4,9.4,0,0,0,1.44.46c.51.11,1,.14,1.56.22a10.69,10.69,0,0,1,3.21,1.1A3.22,3.22,0,0,1,37.52,28.39Z"/><path class="cls-2" d="M43.43,24.13a10,10,0,0,1-2.28,2,10,10,0,0,1-1.09.54,4,4,0,0,1-.85.3,2.39,2.39,0,0,1-.78,0,8.54,8.54,0,0,1-3-1.25c.57-.16,1,.16,1.6,0a.43.43,0,0,0,.21-.1.39.39,0,0,0,.11-.29c0-.31-.26-.48-.49-.62l-.67-.4c.69-.06,1.14.5,1.82.51a1,1,0,0,0-.23-.67c0-.06.1-.06.14,0a2.64,2.64,0,0,1,.8.75,1.12,1.12,0,0,0,.85.43l.49.51A9.65,9.65,0,0,0,43.43,24.13Z"/><path class="cls-2" d="M82.13,17.74a3.58,3.58,0,0,1-1.59.56c-.74,0-1.2-.62-1.88-.79a7.83,7.83,0,0,0-1.08-.09l-.3-.05.48,0a6.15,6.15,0,0,0,3.09-.82,6,6,0,0,0,1.33-1.27c0,.26-.1.51-.12.71s0,.43.14.47c-.1,0-.13.2-.06.25s.19,0,.29-.05.18-.15.27-.23a.84.84,0,0,1,.62-.2,2.87,2.87,0,0,1-.77.71C82.27,17.12,82,17.5,82.13,17.74Z"/><path class="cls-4" d="M99.34,22.92c-1.63.89-2.92,1.48-2.92,1.48l-.06,0a54.78,54.78,0,0,1-8.11,4.18,24,24,0,0,0-7.59,2.84l-.27.16c-.63.37-1,.62-1,.62s1.29,1.69-.87,1.9a6.81,6.81,0,0,0-.78.14C74.6,35,65.93,38.19,59,40.38A24.69,24.69,0,0,1,48,40.8c-.74-.12-1.44-.25-2.07-.39-1.51-.33-2.7-.68-3.37-.9l-.62-.21s-.89.2-2.4.48c-5.67,1-20.05,3-28.48-1.14-4-2-6.59-4.09-8.24-6.35C0,28.52-.15,24.35.07,19.75.42,12.4,7.7,6.5,7.7,6.5S17-1.84,28,.37C37.64,2.33,38.41,7,38.41,7s.38,2.4-1.27.49S32.28,1.39,22.4,2.18s-16,9.06-16,9.06-5.56,7.3-2.9,14c1.18,3,2.33,4.7,3.83,5.93,1.89,1.56,4.32,2.3,8,3.62,6.62,2.37,15.26.33,20.31-1.54,1.62-.6,3.15-1.12,4.6-1.59l.34-.11.47-.15,1.38-.43,1.48-.45L46,29.85l2.49-.75.15,0a80.65,80.65,0,0,1,14.73-3.13,68.52,68.52,0,0,0,7.65-1.17c1.1-.22,2-.4,2.61-.49a6.25,6.25,0,0,0,.93-.23c.34-.1.72-.24,1.15-.4.76-.29,1.65-.66,2.61-1.1a45.69,45.69,0,0,0,7.16-4.08A34.81,34.81,0,0,1,95.29,14c2.79-1.65,4.66-.82,5.13-.45a7.31,7.31,0,0,0,1.68.61c.86.25,1.88.51,2.65.73l.48.14c.92.28.92,1.32.81,2a4.06,4.06,0,0,1-.14.58C105.31,19.38,101.9,21.52,99.34,22.92Z"/><path class="cls-5" d="M105.6,16.52a.53.53,0,0,1-.31.4c-.21.08-.37-.08-.55-.12a1.27,1.27,0,0,0-.9.28,4.14,4.14,0,0,1-.89.52,1.83,1.83,0,0,1-1.19-.11,6.1,6.1,0,0,0-4.64.06,2.23,2.23,0,0,1-.45.18,2.39,2.39,0,0,1-.44,0,2.19,2.19,0,0,0-1.39.66.9.9,0,0,1-.25.21c-.21.09-.36-.09-.55-.15-.34-.1-.76.24-1.15.42a2.74,2.74,0,0,1-2.25-.11l3-.59a1.52,1.52,0,0,0,.33-.09c.32-.14.57-.49.89-.66.49-.27,1-.06,1.47-.15a3.52,3.52,0,0,0,.59-.2,7,7,0,0,1,4.13-.38,3.17,3.17,0,0,0,1.79.16,11.8,11.8,0,0,0,1.13-.55c.38-.17.83-.23,1,0,0,0,.4-.23.46-.21S105.61,16.41,105.6,16.52Z"/><path class="cls-5" d="M104.74,14.92l-.35.07c-1,.16-1.9-.3-2.93-.15a8.84,8.84,0,0,0-1.34.4,8.63,8.63,0,0,1-2.61.44,4.06,4.06,0,0,0-1.75.21,3.55,3.55,0,0,1-.5.22,1.47,1.47,0,0,1-.41,0l-1.17,0s-.07,0-.09,0,0-.08,0-.12a1.19,1.19,0,0,1,.92-.45,6,6,0,0,0,.95,0c.21,0,.43-.14.65-.2a8.22,8.22,0,0,1,2,0,6.66,6.66,0,0,0,1.78-.42l1.32-.45a5.55,5.55,0,0,1,.81-.25h0C103,14.44,104,14.7,104.74,14.92Z"/><path class="cls-5" d="M91.49,17.37a2.9,2.9,0,0,1-.43.36.22.22,0,0,1-.12,0c-.06,0-.08-.07-.08-.13a.53.53,0,0,1,.08-.18q.16-.27.34-.53a1,1,0,0,1,.15-.18.84.84,0,0,1,.16-.11,3,3,0,0,1,.69-.27c.47-.12.32.09,0,.33S91.75,17.14,91.49,17.37Z"/><path class="cls-5" d="M89.81,18.07A.67.67,0,0,1,90,18a.52.52,0,0,1,.36-.05c.12,0,.15.21.15.35a2.5,2.5,0,0,1,0,.39.49.49,0,0,1-.54.48c-.28,0-.69.22-.64-.24A2.25,2.25,0,0,1,89.81,18.07Z"/><path class="cls-5" d="M97.08,20.77a1.91,1.91,0,0,1-.55.16c-.14,0-.26,0-.4,0a2,2,0,0,0-.48.16,29.91,29.91,0,0,1-3.53.92,20.37,20.37,0,0,0-3.28,1.36l-1.59.79c-.09-.09,0-.28.08-.41a1.44,1.44,0,0,1,.4-.29,11.32,11.32,0,0,0,1.4-1,5,5,0,0,1,.5-.37,3.58,3.58,0,0,1,.57-.26,12.09,12.09,0,0,1,1.38-.48c.86-.22,1.71-.22,2.57-.46a12.32,12.32,0,0,1,1.2-.34c.26,0,.51,0,.77-.09,1.43-.23,2.82-1.65,4.25-1.89a4.88,4.88,0,0,1,.69,0c.26,0,1,.07.4.4-.48.24-1,.41-1.48.61Z"/><path class="cls-6" d="M99.34,22.92l-1.77.71c-.2.08-.39.16-.59.22a2.61,2.61,0,0,1-1.92,0,1.72,1.72,0,0,1-1.16.66c-.36,0-.7-.11-1.06.09s-.44.4-.67.41-.24-.08-.38-.07c-.31,0-.58.56-.89.54-.06-.16-.19-.28-.16-.46a.7.7,0,0,1,.61-.48,6.34,6.34,0,0,0,.74,0,7.18,7.18,0,0,0,.78-.33,5.33,5.33,0,0,1,.54-.12,10.56,10.56,0,0,0,1-.36c1.34-.47,2.66-.21,4-.78a4.7,4.7,0,0,0,1.55-1.1,20.94,20.94,0,0,1,1.4-1.61,12.31,12.31,0,0,1,2.55-1.33A6.47,6.47,0,0,0,106,17a4.06,4.06,0,0,1-.14.58C105.31,19.38,101.9,21.52,99.34,22.92Z"/><path class="cls-5" d="M89.17,26s-.68.23-1.87.7c-.59.23-1.32.52-2.14.88s-1.75.79-2.75,1.29c-.5.25-1,.53-1.55.83l-.4.23-.4.24-.82.51c-.55.35-1.13.7-1.73,1.05l-.91.51-.93.49-.47.24-.48.24-.48.24-.49.23-1,.46-1,.44-.5.22-.51.21-1,.42-1,.39-.51.19-.51.18-1,.35-.26.09-.26.08-.51.16-1,.32-1,.29-1,.28-1,.24-1,.24-1,.2-1,.2-.93.16c-.61.1-1.21.21-1.79.28l-.86.11-.42.06-.21,0h-.21c-.54,0-1.06,0-1.55,0-1,0-1.88,0-2.65-.11s-1.44-.16-2-.26l-.38-.07-.33-.08-.28-.07-.23-.07-.42-.12.43.1.24.05.29.05.34.06.39.06c.54.08,1.22.15,2,.19s1.68.05,2.66,0c.49,0,1,0,1.55-.08h.2l.21,0,.42-.06.86-.13c.58-.08,1.18-.2,1.79-.32l.93-.17.95-.21,1-.21,1-.25,1-.25,1-.28,1-.29,1-.32.51-.16.25-.08.25-.09,1-.36.51-.18.51-.19,1-.38,1-.41.5-.2.5-.22,1-.43,1-.45.48-.23.48-.24.48-.23.47-.24.92-.48.9-.49c.59-.33,1.17-.67,1.73-1l.83-.5.41-.24.41-.23q.81-.44,1.57-.81c1-.49,1.94-.89,2.77-1.23s1.55-.6,2.15-.82,1.07-.37,1.39-.47Z"/><path class="cls-5" d="M89.61,22.85c-.11.06-10.85,5.91-14.41,7.61S57.69,36.9,52.95,36.35c-3.57-.41-11.42,1.17-14.57,1.85L37,38.5a61.57,61.57,0,0,1-13.33,1.32,38.25,38.25,0,0,1-10.6-1.51l-.56-.18a18.8,18.8,0,0,1-9.28-6.25l.49-.44c4.79,6.26,13.58,7.69,20.11,7.8a61.08,61.08,0,0,0,13.2-1.3l1.55-.35c3.29-.72,10.94-2.24,14.56-1.82,4.56.53,18.52-4.2,21.93-5.83s14.26-7.53,14.37-7.59Z"/><path class="cls-5" d="M89.79,18.9A56,56,0,0,0,82.41,23c-2.29,1.78-10.57,5.22-15.55,6.46l-2.32.59a86.5,86.5,0,0,1-14.73,2.7,74.23,74.23,0,0,0-11.75,2.07c-.67.18-1,.3-1,.3A51.46,51.46,0,0,1,28.79,37c-4.06.59-9.83.92-15-.66q-.57-.17-1.12-.38c-5.42-2-7.87-4.47-9-6.18a6.25,6.25,0,0,1-1.11-3.19c0-.1,0-.16,0-.17L3,26.36l.16,0a5.59,5.59,0,0,0,1.07,3.11c1.07,1.65,3.46,4,8.75,6s11.56,1.65,15.85,1A51,51,0,0,0,37,34.6s.4-.13,1.14-.34a75.15,75.15,0,0,1,11.78-2.07A86,86,0,0,0,64.56,29.5l2.32-.59c5.32-1.32,13.24-4.73,15.27-6.32a55.54,55.54,0,0,1,7.53-4.23Z"/><path class="cls-5" d="M74.59,24a40,40,0,0,1-6.5,2.07c-2.06.44-3.38.83-4.54,1.17A32.12,32.12,0,0,1,55,28.73,88.45,88.45,0,0,0,40.2,31.64c3-1,5.7-1.73,8.33-2.54a54.59,54.59,0,0,1,6.64-1,31.28,31.28,0,0,0,8.38-1.42c1.18-.35,2.51-.74,4.59-1.18,1-.2,1.95-.47,2.92-.78s2-.4,2.61-.49A6.25,6.25,0,0,0,74.59,24Z"/><path class="cls-7" d="M37.14,7.52C35.49,5.62,32.28,1.39,22.4,2.18s-16,9.06-16,9.06-5.56,7.3-2.9,14c1.18,3,2.33,4.7,3.83,5.93a8.4,8.4,0,0,1-2.15-1.46c.64,1.93,2.86,2.59,3.65,4.42l-4-2.49a1.43,1.43,0,0,0,.56,1.6c.42.37.92.75.92,1.4a10,10,0,0,0-3.39-2.26l-.16-.06C0,28.52-.15,24.35.07,19.75.42,12.4,7.7,6.5,7.7,6.5S17-1.84,28,.37C37.64,2.33,38.41,7,38.41,7S38.79,9.43,37.14,7.52Z"/><path class="cls-6" d="M96.36,24.45a54.78,54.78,0,0,1-8.11,4.18,24,24,0,0,0-7.59,2.84h0a1.26,1.26,0,0,1,.6-.64A16.24,16.24,0,0,1,84.68,29c1.33-.45,2.75-.53,4-1.44a.94.94,0,0,1,.29-.17c.17,0,.3.05.46.08a1.23,1.23,0,0,0,.85-.27,8.74,8.74,0,0,1,.82-.55c.44-.22,1-.27,1.31-.65a.37.37,0,0,0,.12-.3s0-.07,0-.12.16-.27.31-.32c.79-.29,1.6-.14,2.36-.58l0,.33A2,2,0,0,1,96.36,24.45Z"/><path class="cls-1" d="M92.22,33.28l-.29.13a1.4,1.4,0,0,1,1.8,1.23,2.08,2.08,0,0,1-.74,2,3,3,0,0,0-.32-1.93.89.89,0,0,0-.56-.47,1.6,1.6,0,0,0-.73.09,19.25,19.25,0,0,0-3.54,1.41,7.89,7.89,0,0,0,1.63-.22,2.56,2.56,0,0,1,1.54.08,1,1,0,0,1,.45,1.32.08.08,0,0,1-.14,0,.93.93,0,0,1,0-.2c0-.23-.19-.29-.43-.29l-.26,0a23.12,23.12,0,0,1-4,.4,4.45,4.45,0,0,0-.67,0,1.93,1.93,0,0,0-.34.09c-.19.07-.37.17-.56.24a5.19,5.19,0,0,1-1,.19,9.82,9.82,0,0,0-1.94.65c-.28.11-.55.22-.83.31-.93.3-2,.35-2.45-.28a3,3,0,0,1-.4-1.33,9.08,9.08,0,0,0-1.38-3.56.63.63,0,0,1-.14-.32,1.14,1.14,0,0,1,.39-.71c.64-.69,1.51-1.36,2.23-1.22s.86.84,1.09,1.45a6.91,6.91,0,0,0,.87,1.61,1.22,1.22,0,0,0,.57.49,1.29,1.29,0,0,0,.66,0c.22,0,.46-.12.68-.19A17,17,0,0,1,85.7,34a5.43,5.43,0,0,0,2.12-1A11.27,11.27,0,0,1,90,31.8a4,4,0,0,1-1.52,1.46l3.78-1.49a2.27,2.27,0,0,1,.83-.22.65.65,0,0,1,.22,0,.43.43,0,0,1,.28.32.45.45,0,0,1,0,.07l1.22-.26a1,1,0,0,1,.66,0,.29.29,0,0,1,.13.22.4.4,0,0,1-.14.37A12.74,12.74,0,0,0,92.22,33.28Z"/><path class="cls-2" d="M93.73,34.65a2.08,2.08,0,0,1-.74,2,3,3,0,0,0-.32-1.93.89.89,0,0,0-.56-.47,1.6,1.6,0,0,0-.73.09,19.25,19.25,0,0,0-3.54,1.41,7.89,7.89,0,0,0,1.63-.22,2.56,2.56,0,0,1,1.54.08,1,1,0,0,1,.45,1.32.08.08,0,0,1-.14,0,.93.93,0,0,1,0-.2c0-.23-.19-.29-.43-.29,0-.22,0-.41-.21-.47a1.28,1.28,0,0,0-.57.08,2.4,2.4,0,0,1-.67,0,7.27,7.27,0,0,0-2.76.39,1.28,1.28,0,0,0-.64.39l0,.07a1.93,1.93,0,0,0-.34.09c-.19.07-.37.17-.56.24a5.19,5.19,0,0,1-1,.19,9.82,9.82,0,0,0-1.94.65h-.08c-.46.08-1,.34-1.32.12s-.26-.57-.44-.82l0-.05c-.14-.17-.38-.23-.52-.41a.94.94,0,0,1,.29-1.17.69.69,0,0,1,.28-.15c.37-.08.49.38.83.44a.47.47,0,0,0,.2,0,2.06,2.06,0,0,0,.92-.84l.48-.66c.22,0,.46-.12.68-.19A17,17,0,0,1,85.7,34a5.43,5.43,0,0,0,2.12-1A11.27,11.27,0,0,1,90,31.8a4,4,0,0,1-1.52,1.46l3.78-1.49a2.27,2.27,0,0,1,.83-.22.65.65,0,0,1,.22,0,1.59,1.59,0,0,1-.45.24,40.49,40.49,0,0,0-4.06,2,31.7,31.7,0,0,0,3.46-1.43c.37-.12.75-.2,1.12-.35l.2-.09a.45.45,0,0,1,0,.07l1.22-.26a1,1,0,0,1,.66,0,.29.29,0,0,1,.13.22,1.68,1.68,0,0,1-.46.07,15.51,15.51,0,0,0-5.27,1.75,10.75,10.75,0,0,0-1.27.66,29.46,29.46,0,0,1,2.9-1,3.54,3.54,0,0,1,.67-.14l-.29.13A1.4,1.4,0,0,1,93.73,34.65Z"/><path class="cls-2" d="M86.67,35a1.69,1.69,0,0,0-.34.06.94.94,0,0,0-.55.53.28.28,0,0,0,0,.23.22.22,0,0,0,.14.09A1.74,1.74,0,0,0,87,35.87a.93.93,0,0,0,.22-.11,3.63,3.63,0,0,0,.43-.47c.14-.14.38-.27.45-.47s0-.19-.2-.15A10.69,10.69,0,0,1,86.67,35Z"/><path class="cls-2" d="M84.34,35.7a5.42,5.42,0,0,1-2.8,1.53,5.54,5.54,0,0,1-.66.07,3.53,3.53,0,0,1-.56,0l0-.05c-.14-.17-.38-.23-.52-.41a.94.94,0,0,1,.29-1.17.69.69,0,0,1,.28-.15c.37-.08.49.38.83.44a.47.47,0,0,0,.2,0,.38.38,0,0,0,.35.18,1.66,1.66,0,0,0,.54-.14,3.13,3.13,0,0,0,.64-.3c.23-.15.43-.35.65-.51a.81.81,0,0,1,.69-.19.43.43,0,0,1,.23.31.33.33,0,0,1,0,.2A.59.59,0,0,1,84.34,35.7Z"/><path class="cls-8" d="M82.62,25.55c2.25-1.87,5-2.06,7.55-2.74a40.76,40.76,0,0,0,6-2.33,2.56,2.56,0,0,0,1.08-.74c.27-.37.23-.93-.15-.93A1.15,1.15,0,0,1,96,19.7a1,1,0,0,0-1-.85c.46.18,0,1.09-.52,1.35a5.38,5.38,0,0,1-1.65.25,8,8,0,0,1-1.28.24c-.41,0-.78-.31-.65-.75a3.45,3.45,0,0,1-.37,1.4l-.61-1a1.5,1.5,0,0,1-.3,1.46A2,2,0,0,1,89,20.52a3,3,0,0,1-.58,1.72,2.25,2.25,0,0,0-.58-1.17,3.08,3.08,0,0,1-.26,1.36A2.56,2.56,0,0,0,87,21.24l-.1,1.1-.93-.72,0,1.07a2.08,2.08,0,0,0-1-.43l-.13.47-4.07,2c-1.83.9-3.67,1.81-5.53,2.52-1.46.56-2.94,1-4.4,1.42l-15.31,4.5a34.34,34.34,0,0,1-4.42,1.09c-4.82.73-9.44.7-14.27,1.54-1.49.26-3,.55-4.47.8-7.07,1.19-14.17,1.4-20-.9S2.05,28.29,1.75,21.36a19.28,19.28,0,0,1,.41-3.46A13.3,13.3,0,0,1,2.57,16a12.07,12.07,0,0,1,.78-1.82C5.69,9.63,9.66,5.33,14.21,3.5a19.57,19.57,0,0,0-10.6,8.8C.77,17.27.27,23,2.32,27,4.79,31.73,8.5,35.5,13.68,37.1s11.11,1.58,17,1.21a32.31,32.31,0,0,0,4.13-.46c1.26-.24,2.54-.62,3.8-.82,2.8-.43,5.39.05,8.15-.15,2.57-.19,5.1-.19,7.62-.19a34,34,0,0,0,3.87-.15,42,42,0,0,0,9.28-2.61,43.19,43.19,0,0,0,4.88-2A52,52,0,0,0,82.62,25.55Z"/><path class="cls-7" d="M12.69,36c-5.42-2-7.87-4.47-9-6.18a6.25,6.25,0,0,1-1.11-3.19A3.13,3.13,0,0,1,3,26.36l.16,0a5.59,5.59,0,0,0,1.07,3.11c1.07,1.65,3.46,4,8.75,6s11.56,1.65,15.85,1A51,51,0,0,0,37,34.6s.4-.13,1.14-.34a3.56,3.56,0,0,0-.08.59c-.67.18-1,.3-1,.3A51.46,51.46,0,0,1,28.79,37c-4.06.59-9.83.92-15-.66Q13.25,36.2,12.69,36Z"/><path class="cls-7" d="M38.37,38.2,37,38.5a61.57,61.57,0,0,1-13.33,1.32,38.25,38.25,0,0,1-10.6-1.51l-.56-.18a18.8,18.8,0,0,1-9.28-6.25l.49-.44c4.79,6.26,13.58,7.69,20.11,7.8a61.08,61.08,0,0,0,13.2-1.3l1.55-.35A2.31,2.31,0,0,1,38.37,38.2Z"/><path class="cls-1" d="M48,43.4a7,7,0,0,1-1.75,1.85,16.4,16.4,0,0,1-1.88,1.27,20.41,20.41,0,0,1-2.91,1.39,4.54,4.54,0,0,0-1.29.66,8.33,8.33,0,0,0-1.1,1.32,5.32,5.32,0,0,1-2.77,1.84.85.85,0,0,0,.3-.35,4.92,4.92,0,0,1-4.69-.22l.78-.06-4.34-1.16,5.42.14a2.14,2.14,0,0,0,1.64-.46,6,6,0,0,1-3-.65,36.55,36.55,0,0,1-4.68-2.41c-.6-.37-1.25-.87-1.13-1.71a4.46,4.46,0,0,1,1.72.63L31,46.88A7.67,7.67,0,0,0,34.21,48a4.59,4.59,0,0,0,3.66-1.6,6,6,0,0,1-4-3.39l2.89,1.78a2.81,2.81,0,0,0,2.22.57,4.46,4.46,0,0,0,1.13-.54l.59-.37q1.35-.85,2.64-1.85a1.48,1.48,0,0,1-.8-.29,16.66,16.66,0,0,0-2.37-1.45c-.55-.22-1-.67-.41-1.53a2.76,2.76,0,0,1,1.82-1,6.49,6.49,0,0,1,4.27,1.19l1.61.91a2.16,2.16,0,0,1,.91.77A2.35,2.35,0,0,1,48,43.4Z"/><path class="cls-3" d="M45.66,45a9.33,9.33,0,0,0-1.26,1.51,20.41,20.41,0,0,1-2.91,1.39,4.54,4.54,0,0,0-1.29.66,8.33,8.33,0,0,0-1.1,1.32,5.32,5.32,0,0,1-2.77,1.84.85.85,0,0,0,.3-.35,4.92,4.92,0,0,1-4.69-.22l.78-.06-4.34-1.16,5.42.14a2.14,2.14,0,0,0,1.64-.46,6,6,0,0,1-3-.65,36.55,36.55,0,0,1-4.68-2.41c-.6-.37-1.25-.87-1.13-1.71a4.46,4.46,0,0,1,1.72.63L31,46.88A7.67,7.67,0,0,0,34.21,48a4.59,4.59,0,0,0,3.66-1.6,6,6,0,0,1-4-3.39l2.89,1.78a2.81,2.81,0,0,0,2.22.57,4.46,4.46,0,0,0,1.13-.54l.59-.37a2.8,2.8,0,0,0,1.57-.22,9.38,9.38,0,0,0,1.69-.74,4.3,4.3,0,0,0,1.42-1.31c.14-.22.38-.23.34-.44a1.76,1.76,0,0,0-1-1.29,12.15,12.15,0,0,0-1.39-.36,1.16,1.16,0,0,1-.92-.94,3.45,3.45,0,0,1,2.3.48,8.08,8.08,0,0,1,2,1.56,1.85,1.85,0,0,1,.59,1.9A5.6,5.6,0,0,1,45.66,45Z"/><path class="cls-1" d="M44.38,44.88a13.43,13.43,0,0,1-2,1,6.12,6.12,0,0,0-1.87,1.25,1.74,1.74,0,0,1-.64.53c-.37.11-.61-.27-.5-.65a2,2,0,0,1,.76-1,30.76,30.76,0,0,1,3.33-1.81c.32-.19,2.21-1.71,2.43-1.48S44.67,44.68,44.38,44.88Z"/></svg>