<svg id="Layer_1" data-name="Layer 1" xmlns="http://www.w3.org/2000/svg" xmlns:xlink="http://www.w3.org/1999/xlink" viewBox="0 0 43.01 39.28"><defs><style>.cls-1{fill:#fff;}.cls-2{fill:#fbfbfb;}.cls-3{fill:#f8f8f8;}.cls-4{fill:#f4f4f4;}.cls-5{fill:#f1f1f1;}.cls-6{fill:#ededed;}.cls-7{fill:#e9e9e9;}.cls-8{fill:#e6e6e6;}.cls-9{fill:#e2e2e2;}.cls-10{fill:#dedede;}.cls-11{fill:#dbdbdb;}.cls-12{fill:#d7d7d7;}.cls-13{fill:#d4d4d4;}.cls-14{fill:#d0d0d0;}.cls-15{fill:#ccc;}.cls-16{fill:#c9c9c9;}.cls-17{fill:#c5c5c5;}.cls-18{fill:#c1c1c1;}.cls-19{fill:#bebebe;}.cls-20{fill:#bababa;}.cls-21{fill:#b7b7b7;}.cls-22{fill:#b3b3b3;}.cls-23{fill:url(#linear-gradient);}.cls-24{fill:url(#linear-gradient-2);}.cls-25{fill:url(#linear-gradient-3);}.cls-26{fill:url(#linear-gradient-4);}.cls-27{fill:#202020;}.cls-28{fill:url(#linear-gradient-5);}.cls-29{fill:url(#linear-gradient-6);}.cls-30{fill:url(#linear-gradient-7);}.cls-31{fill:url(#linear-gradient-8);}.cls-32{fill:url(#linear-gradient-9);}.cls-33{fill:url(#linear-gradient-10);}.cls-34{fill:url(#linear-gradient-11);}.cls-35{fill:url(#linear-gradient-12);}.cls-36{fill:#303030;}.cls-37{fill:url(#linear-gradient-13);}.cls-38{fill:url(#linear-gradient-14);}.cls-39{fill:#101010;}.cls-40{fill:url(#linear-gradient-15);}.cls-41{fill:url(#linear-gradient-16);}.cls-42{fill:url(#linear-gradient-17);}.cls-43{fill:url(#linear-gradient-18);}.cls-44{fill:url(#linear-gradient-19);}.cls-45{fill:url(#linear-gradient-20);}.cls-46{fill:none;}.cls-47{fill:url(#radial-gradient);}.cls-48{fill:url(#radial-gradient-2);}.cls-49{fill:url(#radial-gradient-3);}.cls-50{fill:url(#radial-gradient-4);}.cls-51{fill:url(#radial-gradient-5);}.cls-52{fill:url(#radial-gradient-6);}.cls-53{fill:url(#radial-gradient-7);}.cls-54{fill:url(#radial-gradient-8);}.cls-55{fill:url(#radial-gradient-9);}.cls-56{fill:url(#radial-gradient-10);}.cls-57{fill:url(#radial-gradient-11);}.cls-58{fill:url(#radial-gradient-12);}.cls-59{fill:url(#radial-gradient-13);}.cls-60{fill:url(#radial-gradient-14);}.cls-61{fill:url(#radial-gradient-15);}.cls-62{fill:url(#radial-gradient-16);}.cls-63{fill:url(#radial-gradient-17);}.cls-64{fill:url(#radial-gradient-18);}.cls-65{fill:url(#radial-gradient-19);}.cls-66{fill:url(#radial-gradient-20);}.cls-67{fill:url(#radial-gradient-21);}.cls-68{fill:url(#radial-gradient-22);}</style><linearGradient id="linear-gradient" x1="-1640.41" y1="-41.94" x2="-1636.83" y2="-47.87" gradientTransform="translate(-59.45 1641.33) rotate(90.63)" gradientUnits="userSpaceOnUse"><stop offset="0" stop-color="#505050"/><stop offset="1" stop-color="#303030"/></linearGradient><linearGradient id="linear-gradient-2" x1="-1458.95" y1="-91.35" x2="-1454.51" y2="-95.98" gradientTransform="translate(148.4 1455.96) rotate(80.63)" gradientUnits="userSpaceOnUse"><stop offset="0" stop-color="#a7a7a7"/><stop offset="1" stop-color="#404040"/></linearGradient><linearGradient id="linear-gradient-3" x1="-1637.01" y1="-47.79" x2="-1634.21" y2="-56.43" gradientTransform="translate(-59.45 1641.33) rotate(90.63)" gradientUnits="userSpaceOnUse"><stop offset="0" stop-color="#404040"/><stop offset="1" stop-color="#202020"/></linearGradient><linearGradient id="linear-gradient-4" x1="-1637.13" y1="-48.37" x2="-1634.34" y2="-56.72" gradientTransform="translate(-59.45 1641.33) rotate(90.63)" gradientUnits="userSpaceOnUse"><stop offset="0" stop-color="#9f9f9f"/><stop offset="1" stop-color="#303030"/></linearGradient><linearGradient id="linear-gradient-5" x1="-1636.1" y1="-81.36" x2="-1634.2" y2="-77.66" xlink:href="#linear-gradient"/><linearGradient id="linear-gradient-6" x1="-1635.85" y1="-81.33" x2="-1634.05" y2="-77.37" gradientTransform="translate(-59.45 1641.33) rotate(90.63)" xlink:href="#linear-gradient-2"/><linearGradient id="linear-gradient-7" x1="-1634.62" y1="-77.79" x2="-1632.05" y2="-71.47" xlink:href="#linear-gradient-3"/><linearGradient id="linear-gradient-8" x1="-1581.76" y1="-97.42" x2="-1580.36" y2="-91.57" gradientTransform="matrix(0.05, 1, -1, 0.05, 19.48, 1592.91)" xlink:href="#linear-gradient-4"/><linearGradient id="linear-gradient-9" x1="-1641.85" y1="-57.36" x2="-1637.77" y2="-61.02" xlink:href="#linear-gradient"/><linearGradient id="linear-gradient-10" x1="-1560.37" y1="-86.12" x2="-1556.37" y2="-88.92" gradientTransform="translate(49.37 1562.93) rotate(85.63)" xlink:href="#linear-gradient-2"/><linearGradient id="linear-gradient-11" x1="-1637.68" y1="-60.87" x2="-1633.61" y2="-64.31" xlink:href="#linear-gradient-3"/><linearGradient id="linear-gradient-12" x1="-1637.89" y1="-61.32" x2="-1633.6" y2="-64.44" xlink:href="#linear-gradient-4"/><linearGradient id="linear-gradient-13" x1="-1771.38" y1="73.68" x2="-1775.85" y2="69.17" gradientTransform="translate(-253.76 1791.89) rotate(100.63)" gradientUnits="userSpaceOnUse"><stop offset="0" stop-color="#979797"/><stop offset="1" stop-color="#303030"/></linearGradient><linearGradient id="linear-gradient-14" x1="-1607.61" y1="-48.19" x2="-1610.59" y2="-56.6" gradientTransform="translate(-59.45 1641.33) rotate(90.63)" gradientUnits="userSpaceOnUse"><stop offset="0" stop-color="#6a6a6a"/><stop offset="1" stop-color="#202020"/></linearGradient><linearGradient id="linear-gradient-15" x1="-1609.11" y1="-81.36" x2="-1610.93" y2="-77.59" gradientTransform="translate(-59.45 1641.33) rotate(90.63)" xlink:href="#linear-gradient-13"/><linearGradient id="linear-gradient-16" x1="-1630.9" y1="-64.24" x2="-1632.95" y2="-58.24" gradientTransform="translate(-87.22 1659.38) rotate(92.06)" xlink:href="#linear-gradient-14"/><linearGradient id="linear-gradient-17" x1="-1680.91" y1="-10.53" x2="-1685.32" y2="-13.61" gradientTransform="translate(-159.7 1710.75) rotate(95.63)" xlink:href="#linear-gradient-13"/><linearGradient id="linear-gradient-18" x1="-1607.04" y1="-61.88" x2="-1611.24" y2="-64.33" xlink:href="#linear-gradient-14"/><linearGradient id="linear-gradient-19" x1="-1615.77" y1="-83.86" x2="-1619.59" y2="-80.22" gradientTransform="translate(-59.45 1641.33) rotate(90.63)" gradientUnits="userSpaceOnUse"><stop offset="0" stop-color="#404040"/><stop offset="1" stop-color="#303030"/></linearGradient><linearGradient id="linear-gradient-20" x1="-1628.23" y1="-83.66" x2="-1625.09" y2="-80.18" xlink:href="#linear-gradient-19"/><radialGradient id="radial-gradient" cx="-2171.14" cy="8.51" r="10.7" gradientTransform="matrix(-0.01, 0.68, -1.04, -0.01, 25.39, 1503.78)" gradientUnits="userSpaceOnUse"><stop offset="0" stop-color="#484848"/><stop offset="0.17" stop-color="#444"/><stop offset="0.35" stop-color="#373737"/><stop offset="0.53" stop-color="#232323"/><stop offset="0.72" stop-color="#060606"/><stop offset="0.75"/><stop offset="0.83" stop-color="#070707"/><stop offset="0.95" stop-color="#1b1b1b"/><stop offset="1" stop-color="#242424"/></radialGradient><radialGradient id="radial-gradient-2" cx="-2171.14" cy="8.51" r="10.7" gradientTransform="matrix(-0.01, 0.68, -1.04, -0.01, 25.39, 1503.78)" gradientUnits="userSpaceOnUse"><stop offset="0" stop-color="#fff"/><stop offset="0.75"/><stop offset="0.83" stop-color="#070707"/><stop offset="0.95" stop-color="#1b1b1b"/><stop offset="1" stop-color="#242424"/></radialGradient><radialGradient id="radial-gradient-3" cx="-2171.14" cy="8.51" r="10.7" gradientTransform="matrix(-0.01, 0.68, -1.04, -0.01, 25.39, 1503.78)" gradientUnits="userSpaceOnUse"><stop offset="0" stop-color="#484848"/><stop offset="0.21" stop-color="#444"/><stop offset="0.43" stop-color="#373737"/><stop offset="0.66" stop-color="#232323"/><stop offset="0.75" stop-color="#181818"/><stop offset="0.8" stop-color="#1f1f1f"/><stop offset="0.88" stop-color="#333"/><stop offset="0.97" stop-color="#535353"/><stop offset="1" stop-color="#606060"/></radialGradient><radialGradient id="radial-gradient-4" cx="-149.05" cy="192.41" r="0.13" gradientTransform="matrix(-0.63, 57.73, 87.74, 0.96, -16942.86, 8436.69)" gradientUnits="userSpaceOnUse"><stop offset="0" stop-color="#ddd"/><stop offset="0.4" stop-color="#d9d9d9"/><stop offset="0.75" stop-color="#cfcfcf"/><stop offset="1" stop-color="#d6d6d6"/><stop offset="1" stop-color="#d6d6d6"/></radialGradient><radialGradient id="radial-gradient-5" cx="-149.05" cy="192.41" r="0.13" gradientTransform="matrix(-0.63, 57.73, 87.74, 0.96, -16942.86, 8436.69)" gradientUnits="userSpaceOnUse"><stop offset="0" stop-color="#e9e9e9"/><stop offset="0.5" stop-color="#e5e5e5"/><stop offset="0.75" stop-color="#e0e0e0"/><stop offset="1" stop-color="#e4e4e4"/></radialGradient><radialGradient id="radial-gradient-6" cx="-149.04" cy="192.4" r="0.13" gradientTransform="matrix(-0.63, 57.73, 87.74, 0.96, -16942.64, 8436)" gradientUnits="userSpaceOnUse"><stop offset="0" stop-color="#e1e1e1"/><stop offset="0.57" stop-color="#ddd"/><stop offset="0.75" stop-color="#dadada"/><stop offset="0.93" stop-color="#e1e1e1"/><stop offset="1" stop-color="#e5e5e5"/></radialGradient><radialGradient id="radial-gradient-7" cx="-149.05" cy="192.41" r="0.13" gradientTransform="matrix(-0.63, 57.73, 87.74, 0.96, -16942.86, 8436.69)" gradientUnits="userSpaceOnUse"><stop offset="0" stop-color="#fff"/><stop offset="0.75" stop-color="#f0f0f0"/><stop offset="1" stop-color="#f2f2f2"/></radialGradient><radialGradient id="radial-gradient-8" cx="-2173.96" cy="-355.73" r="22" gradientTransform="matrix(-0.01, 0.68, -0.69, -0.01, -244.64, 1500.81)" gradientUnits="userSpaceOnUse"><stop offset="0" stop-color="#3f3f3f"/><stop offset="0.19" stop-color="#3b3b3b"/><stop offset="0.38" stop-color="#2e2e2e"/><stop offset="0.57" stop-color="#1a1a1a"/><stop offset="0.75"/><stop offset="0.81" stop-color="#070707"/><stop offset="0.9" stop-color="#1b1b1b"/><stop offset="1" stop-color="#383838"/></radialGradient><radialGradient id="radial-gradient-9" cx="-165.22" cy="193.61" r="0.12" gradientTransform="matrix(-1.3, 118.7, 120.27, 1.32, -23483.72, 19371.52)" gradientUnits="userSpaceOnUse"><stop offset="0" stop-color="#202020"/><stop offset="0.26" stop-color="#1c1c1c"/><stop offset="0.54" stop-color="#0f0f0f"/><stop offset="0.75"/><stop offset="0.83" stop-color="#070707"/><stop offset="0.95" stop-color="#191919"/><stop offset="1" stop-color="#242424"/></radialGradient><radialGradient id="radial-gradient-10" cx="-2174.83" cy="-368.96" r="21.93" gradientTransform="matrix(-0.01, 0.68, -0.69, -0.01, -244.64, 1500.81)" gradientUnits="userSpaceOnUse"><stop offset="0" stop-color="#606060"/><stop offset="0.15" stop-color="#5c5c5c"/><stop offset="0.3" stop-color="#4f4f4f"/><stop offset="0.46" stop-color="#3b3b3b"/><stop offset="0.62" stop-color="#1e1e1e"/><stop offset="0.75"/><stop offset="0.82" stop-color="#070707"/><stop offset="0.92" stop-color="#1b1b1b"/><stop offset="1" stop-color="#303030"/></radialGradient><radialGradient id="radial-gradient-11" cx="-2174.83" cy="-368.96" r="21.93" gradientTransform="matrix(-0.01, 0.68, -0.69, -0.01, -244.64, 1500.81)" gradientUnits="userSpaceOnUse"><stop offset="0" stop-color="#606060"/><stop offset="0.17" stop-color="#5c5c5c"/><stop offset="0.35" stop-color="#4f4f4f"/><stop offset="0.53" stop-color="#3b3b3b"/><stop offset="0.72" stop-color="#1e1e1e"/><stop offset="0.75" stop-color="#181818"/><stop offset="0.8" stop-color="#1f1f1f"/><stop offset="0.88" stop-color="#333"/><stop offset="0.97" stop-color="#535353"/><stop offset="1" stop-color="#606060"/></radialGradient><radialGradient id="radial-gradient-12" cx="-2174.83" cy="-368.96" r="21.93" gradientTransform="matrix(-0.01, 0.68, -0.69, -0.01, -244.64, 1500.81)" gradientUnits="userSpaceOnUse"><stop offset="0.05" stop-color="#fff"/><stop offset="0.75"/><stop offset="0.82" stop-color="#070707"/><stop offset="0.92" stop-color="#1b1b1b"/><stop offset="1" stop-color="#303030"/></radialGradient><radialGradient id="radial-gradient-13" cx="-2174.83" cy="-368.96" r="21.93" gradientTransform="matrix(-0.01, 0.68, -0.69, -0.01, -244.64, 1500.81)" gradientUnits="userSpaceOnUse"><stop offset="0" stop-color="#606060"/><stop offset="0.17" stop-color="#5c5c5c"/><stop offset="0.35" stop-color="#4f4f4f"/><stop offset="0.53" stop-color="#3b3b3b"/><stop offset="0.72" stop-color="#1e1e1e"/><stop offset="0.75" stop-color="#181818"/><stop offset="0.86" stop-color="#1f1f1f"/><stop offset="1" stop-color="#303030"/></radialGradient><radialGradient id="radial-gradient-14" cx="-2138.77" cy="-76.79" r="21.93" gradientTransform="matrix(-0.01, 0.73, -0.89, -0.01, -65.87, 1566.3)" gradientUnits="userSpaceOnUse"><stop offset="0" stop-color="#4d4d4d"/><stop offset="0.23" stop-color="#494949"/><stop offset="0.47" stop-color="#3c3c3c"/><stop offset="0.7" stop-color="#282828"/><stop offset="0.75" stop-color="#232323"/><stop offset="0.86" stop-color="#2a2a2a"/><stop offset="1" stop-color="#3c3c3c"/></radialGradient><radialGradient id="radial-gradient-15" cx="-2138.77" cy="-76.79" r="21.93" gradientTransform="matrix(-0.01, 0.73, -0.89, -0.01, -65.87, 1566.3)" gradientUnits="userSpaceOnUse"><stop offset="0.05" stop-color="#9e9e9e"/><stop offset="0.75" stop-color="#232323"/><stop offset="0.86" stop-color="#2a2a2a"/><stop offset="1" stop-color="#3c3c3c"/></radialGradient><radialGradient id="radial-gradient-16" cx="-2069.13" cy="107.93" r="21.93" gradientTransform="matrix(0.04, 0.73, -0.89, 0.04, 189.63, 1510.21)" gradientUnits="userSpaceOnUse"><stop offset="0" stop-color="#292929"/><stop offset="0.35" stop-color="#252525"/><stop offset="0.72" stop-color="#181818"/><stop offset="0.75" stop-color="#171717"/><stop offset="0.87" stop-color="#1e1e1e"/><stop offset="1" stop-color="#2b2b2b"/></radialGradient><radialGradient id="radial-gradient-17" cx="-2069.13" cy="107.93" r="21.93" gradientTransform="matrix(0.04, 0.73, -0.89, 0.04, 189.63, 1510.21)" gradientUnits="userSpaceOnUse"><stop offset="0.05" stop-color="#bcbcbc"/><stop offset="0.75" stop-color="#232323"/><stop offset="0.86" stop-color="#2a2a2a"/><stop offset="1" stop-color="#3c3c3c"/></radialGradient><radialGradient id="radial-gradient-18" cx="-2069.13" cy="107.93" r="21.93" gradientTransform="matrix(0.04, 0.73, -0.89, 0.04, 189.63, 1510.21)" gradientUnits="userSpaceOnUse"><stop offset="0" stop-color="#363636"/><stop offset="0.33" stop-color="#323232"/><stop offset="0.66" stop-color="#252525"/><stop offset="0.75" stop-color="#212121"/><stop offset="0.98" stop-color="#282828"/><stop offset="1" stop-color="#292929"/></radialGradient><radialGradient id="radial-gradient-19" cx="-2069.13" cy="107.93" r="21.93" gradientTransform="matrix(0.04, 0.73, -0.89, 0.04, 189.63, 1510.21)" gradientUnits="userSpaceOnUse"><stop offset="0" stop-color="#565656"/><stop offset="0.24" stop-color="#525252"/><stop offset="0.49" stop-color="#454545"/><stop offset="0.74" stop-color="#313131"/><stop offset="0.75" stop-color="#303030"/><stop offset="0.92" stop-color="#373737"/><stop offset="1" stop-color="#3c3c3c"/></radialGradient><radialGradient id="radial-gradient-20" cx="-2069.34" cy="108.19" r="22.2" xlink:href="#radial-gradient-19"/><radialGradient id="radial-gradient-21" cx="-2222.18" cy="-261.52" r="21.93" gradientTransform="matrix(-0.05, 0.72, -0.88, -0.06, -328.22, 1606.51)" gradientUnits="userSpaceOnUse"><stop offset="0" stop-color="#383838"/><stop offset="0.26" stop-color="#343434"/><stop offset="0.53" stop-color="#272727"/><stop offset="0.75" stop-color="#171717"/><stop offset="0.87" stop-color="#1e1e1e"/><stop offset="1" stop-color="#2b2b2b"/></radialGradient><radialGradient id="radial-gradient-22" cx="-2222.18" cy="-261.52" r="21.93" gradientTransform="matrix(-0.05, 0.72, -0.88, -0.06, -328.22, 1606.51)" xlink:href="#radial-gradient-17"/></defs><title>bug2</title><ellipse class="cls-1" cx="2.92" cy="3.93" rx="0.58" ry="3.44" transform="translate(-1.91 3.1) rotate(-43.69)"/><ellipse class="cls-2" cx="2.87" cy="3.89" rx="0.57" ry="3.38" transform="translate(-1.89 3.06) rotate(-43.69)"/><ellipse class="cls-3" cx="2.83" cy="3.84" rx="0.56" ry="3.31" transform="translate(-1.87 3.02) rotate(-43.69)"/><ellipse class="cls-4" cx="2.78" cy="3.79" rx="0.55" ry="3.25" transform="translate(-1.85 2.97) rotate(-43.69)"/><ellipse class="cls-5" cx="2.74" cy="3.74" rx="0.54" ry="3.18" transform="translate(-1.83 2.93) rotate(-43.69)"/><ellipse class="cls-6" cx="2.69" cy="3.7" rx="0.53" ry="3.12" transform="translate(-1.81 2.88) rotate(-43.69)"/><ellipse class="cls-7" cx="2.65" cy="3.65" rx="0.53" ry="3.05" transform="translate(-1.79 2.84) rotate(-43.69)"/><ellipse class="cls-8" cx="2.6" cy="3.6" rx="0.52" ry="2.99" transform="translate(-1.77 2.8) rotate(-43.69)"/><ellipse class="cls-9" cx="2.56" cy="3.56" rx="0.51" ry="2.92" transform="translate(-1.75 2.75) rotate(-43.69)"/><ellipse class="cls-10" cx="2.51" cy="3.51" rx="0.5" ry="2.86" transform="translate(-1.73 2.71) rotate(-43.69)"/><ellipse class="cls-11" cx="2.47" cy="3.46" rx="0.49" ry="2.79" transform="translate(-1.71 2.66) rotate(-43.69)"/><ellipse class="cls-12" cx="2.42" cy="3.42" rx="0.48" ry="2.73" transform="translate(-1.69 2.62) rotate(-43.69)"/><ellipse class="cls-13" cx="2.38" cy="3.37" rx="0.47" ry="2.66" transform="translate(-1.67 2.58) rotate(-43.69)"/><ellipse class="cls-14" cx="2.33" cy="3.32" rx="0.46" ry="2.6" transform="translate(-1.65 2.53) rotate(-43.69)"/><ellipse class="cls-15" cx="2.29" cy="3.28" rx="0.45" ry="2.53" transform="translate(-1.63 2.49) rotate(-43.69)"/><ellipse class="cls-16" cx="2.25" cy="3.23" rx="0.44" ry="2.47" transform="translate(-1.61 2.45) rotate(-43.69)"/><ellipse class="cls-17" cx="2.2" cy="3.18" rx="0.43" ry="2.4" transform="translate(-1.59 2.4) rotate(-43.69)"/><ellipse class="cls-18" cx="2.16" cy="3.14" rx="0.42" ry="2.34" transform="translate(-1.57 2.36) rotate(-43.69)"/><ellipse class="cls-19" cx="2.11" cy="3.09" rx="0.41" ry="2.28" transform="translate(-1.55 2.31) rotate(-43.69)"/><ellipse class="cls-20" cx="2.07" cy="3.04" rx="0.4" ry="2.21" transform="translate(-1.53 2.27) rotate(-43.69)"/><ellipse class="cls-21" cx="2.02" cy="3" rx="0.39" ry="2.15" transform="translate(-1.51 2.23) rotate(-43.69)"/><ellipse class="cls-22" cx="1.98" cy="2.95" rx="0.38" ry="2.08" transform="translate(-1.49 2.18) rotate(-43.69)"/><path class="cls-23" d="M7.8,5.92s0,0,0,0l-.6.15L7,6.15c-.24.06-.29-.34-.49-.5l-.08,0-.1,0-1-.27a4.61,4.61,0,0,1-1.16-.48l-.62-.36L3,4.09a5.73,5.73,0,0,1-1-.8L.43,1.64a.17.17,0,0,1,.09-.28A.32.32,0,0,0,.75,1.2l.07-.13a.38.38,0,0,1,.65,0L2.63,2.68A2.7,2.7,0,0,0,3,3.15l.78.7.66.41a2.2,2.2,0,0,0,.57.25l2.41.68a.5.5,0,0,1,.38.52.91.91,0,0,1,0,.18Z"/><path class="cls-24" d="M6.91,5.13a1.82,1.82,0,0,1-.35,0L5.8,4.91A5.69,5.69,0,0,1,4.62,4.5l-.29-.14-.42-.28a6,6,0,0,1-1-.81l-.51-.53-1-1.42a.24.24,0,0,0-.36,0,.28.28,0,0,0,0,.4l1.1,1.13.24.25a9.24,9.24,0,0,0,2,1.55h0L5.17,5l1.93.45a.13.13,0,0,0,.16-.12.16.16,0,0,0-.15-.16Z"/><path class="cls-25" d="M16.18,8.91A.49.49,0,0,0,16,8.26c-.2-.13.07,0-.22-.24a1.82,1.82,0,0,1-.4-.43A1.16,1.16,0,0,0,15,7.24a.88.88,0,0,1-.44-.36l-.17-.35a.23.23,0,0,0-.39,0c-.1.13-.25,0-.33-.15s-.16-.35-.25-.51-.22,0-.33,0l0,0a.36.36,0,0,1-.27,0c-.18-.07-.36-.11-.53-.19-.39-.18-.87-.35-1-.39s-.36-.12-.52-.21c-.38-.21-.57-.72-.93-1-.17-.13-.35.06-.37.27,0,0,0,.05,0,.08a.28.28,0,0,1-.31.23,5.68,5.68,0,0,1-1.66-.46l-.86-.4a.32.32,0,0,0-.45.38c0,.2.07.42.1.6a.82.82,0,0,1-.12.61,1.88,1.88,0,0,1-.7.57.27.27,0,0,0,0,.48l.13.07.48,0c.14,0,.3.08.3.24s.08.25.18.21a7.74,7.74,0,0,1,1-.39h.1a9.66,9.66,0,0,1,2.14,0c.59.12,1.69.5,2.22.67a2.69,2.69,0,0,1,.57.26,27.29,27.29,0,0,0,2.9,1.59A.5.5,0,0,0,16.18,8.91Z"/><path class="cls-26" d="M15.8,8.9a.25.25,0,0,0,0-.36c-.49-.43-.44-.6-.92-1.06a1.92,1.92,0,0,0-.34-.26.53.53,0,0,1-.17-.17l0,0c-.08-.12-.28-.07-.39-.15l0,0-.3-.19a1.15,1.15,0,0,1-.3-.33c0-.06-.12-.22-.22-.15a.15.15,0,0,1-.19,0,6.45,6.45,0,0,0-.61-.27l-.36-.16a6,6,0,0,0-.64-.25L11,5.42a1,1,0,0,1-.28-.09,2.09,2.09,0,0,1-.21-.18A2.24,2.24,0,0,1,10.27,5a1.41,1.41,0,0,0-.16-.17s-.12-.09-.15,0,0,.09,0,.12-.08.22-.21.2L8.63,4.85c-.2,0-.43-.1-.81-.21a2.84,2.84,0,0,1-.88-.4c-.1-.07-.2.06-.12.16a.68.68,0,0,1,0,.69.78.78,0,0,1-.22.28c-.16.14,0,.43.21.43h.16a.22.22,0,0,1,.17.08A.26.26,0,0,0,7.4,6l.79-.29a1.63,1.63,0,0,1,1,0q.75.21,1.52.38t1.5.51A5.41,5.41,0,0,1,13.35,7l.4.24a4.91,4.91,0,0,1,1,.74c.42.41.31.53.73.92A.25.25,0,0,0,15.8,8.9Z"/><path class="cls-27" d="M17.43,11.4a.59.59,0,0,1-.41.76l-.44.11a.82.82,0,0,1-.92-.39l-1.7-3a.36.36,0,0,1,.32-.54h.28a.76.76,0,0,0,.54-.22l.48-.46a.39.39,0,0,1,.65.16Z"/><ellipse class="cls-1" cx="38.05" cy="8.03" rx="2.31" ry="0.41" transform="translate(2.71 24.25) rotate(-36.57)"/><ellipse class="cls-2" cx="38.09" cy="8.01" rx="2.26" ry="0.4" transform="translate(2.73 24.27) rotate(-36.57)"/><ellipse class="cls-3" cx="38.12" cy="7.98" rx="2.22" ry="0.39" transform="translate(2.75 24.29) rotate(-36.57)"/><ellipse class="cls-4" cx="38.16" cy="7.95" rx="2.18" ry="0.39" transform="translate(2.77 24.3) rotate(-36.57)"/><ellipse class="cls-5" cx="38.19" cy="7.93" rx="2.13" ry="0.38" transform="translate(2.8 24.32) rotate(-36.57)"/><ellipse class="cls-6" cx="38.23" cy="7.9" rx="2.09" ry="0.37" transform="translate(2.82 24.33) rotate(-36.57)"/><ellipse class="cls-7" cx="38.26" cy="7.88" rx="2.05" ry="0.37" transform="translate(2.84 24.35) rotate(-36.57)"/><ellipse class="cls-8" cx="38.3" cy="7.85" rx="2" ry="0.36" transform="translate(2.86 24.36) rotate(-36.57)"/><ellipse class="cls-9" cx="38.33" cy="7.82" rx="1.96" ry="0.35" transform="translate(2.88 24.38) rotate(-36.57)"/><ellipse class="cls-10" cx="38.37" cy="7.8" rx="1.92" ry="0.35" transform="translate(2.91 24.4) rotate(-36.57)"/><ellipse class="cls-11" cx="38.4" cy="7.77" rx="1.87" ry="0.34" transform="translate(2.93 24.41) rotate(-36.57)"/><ellipse class="cls-12" cx="38.44" cy="7.75" rx="1.83" ry="0.33" transform="translate(2.95 24.43) rotate(-36.57)"/><ellipse class="cls-13" cx="38.47" cy="7.72" rx="1.79" ry="0.33" transform="translate(2.97 24.44) rotate(-36.57)"/><ellipse class="cls-14" cx="38.51" cy="7.7" rx="1.74" ry="0.32" transform="matrix(0.8, -0.6, 0.6, 0.8, 3, 24.46)"/><ellipse class="cls-15" cx="38.54" cy="7.67" rx="1.7" ry="0.31" transform="translate(3.02 24.47) rotate(-36.57)"/><ellipse class="cls-16" cx="38.58" cy="7.64" rx="1.66" ry="0.31" transform="translate(3.04 24.49) rotate(-36.57)"/><ellipse class="cls-17" cx="38.61" cy="7.62" rx="1.61" ry="0.3" transform="translate(3.06 24.5) rotate(-36.57)"/><ellipse class="cls-18" cx="38.65" cy="7.59" rx="1.57" ry="0.29" transform="matrix(0.8, -0.6, 0.6, 0.8, 3.08, 24.52)"/><ellipse class="cls-19" cx="38.68" cy="7.57" rx="1.53" ry="0.29" transform="translate(3.11 24.54) rotate(-36.57)"/><ellipse class="cls-20" cx="38.72" cy="7.54" rx="1.48" ry="0.28" transform="translate(3.13 24.55) rotate(-36.57)"/><ellipse class="cls-21" cx="38.75" cy="7.51" rx="1.44" ry="0.27" transform="translate(3.15 24.57) rotate(-36.57)"/><ellipse class="cls-22" cx="38.79" cy="7.49" rx="1.4" ry="0.27" transform="translate(3.17 24.58) rotate(-36.57)"/><path class="cls-28" d="M39.79,6.12a.73.73,0,0,0,.28.29.27.27,0,0,1,0,.45l-1.28.9-1,.53a3.09,3.09,0,0,1-1.19.32l-2.09.13a.38.38,0,0,1-.41-.37.42.42,0,0,1,.39-.42l2-.12a1.87,1.87,0,0,0,.6-.14l.82-.34a1.32,1.32,0,0,0,.5-.36L39.24,6a.33.33,0,0,1,.54.06Z"/><path class="cls-29" d="M39.84,6.82a.12.12,0,0,0,0-.19.22.22,0,0,1-.08-.12v0a.12.12,0,0,0-.19-.05L39,7a2.85,2.85,0,0,1-.85.57l-.5.22a3.26,3.26,0,0,1-1.21.27l-2,.06a.19.19,0,0,0-.19.21.21.21,0,0,0,.22.19l1.75-.08a4.37,4.37,0,0,0,1.07-.18,5,5,0,0,0,1-.43l.81-.45Z"/><path class="cls-30" d="M36,8.12c-.07.21-.1.46,0,.58a1.21,1.21,0,0,0,.36.2c.14.06.18.37,0,.4a.67.67,0,0,0-.53.23.23.23,0,0,0,0,.1.08.08,0,0,1-.08.07c-.44-.08-.67-.13-1.12-.24a8.7,8.7,0,0,0-1-.12c-.36,0-.9,0-.9,0a5.21,5.21,0,0,0-.95.1,5.94,5.94,0,0,0-1.29.45A15.7,15.7,0,0,0,28.94,11c-.23.15-.64,0-.87-.34l-.13-.18c-.24-.34-.24-.69,0-.8a5.81,5.81,0,0,0,1.09-.54l.08-.05c.35-.16.35-.67.86-.51l.05,0a9.68,9.68,0,0,1,1.3-.53c.43-.15.35-.16.69-.5.11-.11.33-.36.4-.07s.38.2.52.11a1.46,1.46,0,0,0,.39-.44c.13-.18.35,0,.39.2a.22.22,0,0,0,.21.2H34a5.14,5.14,0,0,0,1.43-.41c.57-.3.71-.84.9-.52s-.09.77-.22,1.21l0,.08Z"/><path class="cls-31" d="M29.21,10.63l.37-.37a2.85,2.85,0,0,1,.81-.57l.4-.2.36-.13.62-.18A3.24,3.24,0,0,1,33,9h.24c.39,0,.78.06,1.16.12l.43.05a1.85,1.85,0,0,1,.43.09l.21.06c.12,0,.21-.14.21-.27a3.69,3.69,0,0,1-.11-.48A2.21,2.21,0,0,1,35.63,8c.05-.16-.1-.28-.2-.15a.89.89,0,0,1-.55.29c-.36.08-.74.13-.74.13l-.39,0c-.14,0-.32,0-.37-.1S33.25,8,33.17,8s-.19.16-.27.23l0,0,0,0-.2,0c-.12,0-.29.06-.31-.07s-.26-.14-.41,0a2.06,2.06,0,0,0-.3.25.72.72,0,0,1-.19.16,14.62,14.62,0,0,0-2,1c-1,.62-.52.43-.87.59-.12.06-.1.23,0,.35a.44.44,0,0,0,.5.09Z"/><path class="cls-27" d="M26.87,12.41a.88.88,0,0,1-.11-1L28,9.24a.46.46,0,0,1,.74-.09l.31.33a1.4,1.4,0,0,0,.51.34l.78.3a.38.38,0,0,1,.11.64l-2.37,2a.64.64,0,0,1-.9-.06Z"/><ellipse class="cls-1" cx="17.6" cy="3.2" rx="0.58" ry="3.44" transform="translate(1.38 10.76) rotate(-35.29)"/><ellipse class="cls-2" cx="17.56" cy="3.15" rx="0.57" ry="3.38" transform="translate(1.41 10.72) rotate(-35.29)"/><ellipse class="cls-3" cx="17.52" cy="3.1" rx="0.56" ry="3.31" transform="translate(1.43 10.69) rotate(-35.29)"/><ellipse class="cls-4" cx="17.49" cy="3.04" rx="0.55" ry="3.25" transform="translate(1.45 10.66) rotate(-35.29)"/><ellipse class="cls-5" cx="17.45" cy="2.99" rx="0.54" ry="3.18" transform="translate(1.48 10.63) rotate(-35.29)"/><ellipse class="cls-6" cx="17.41" cy="2.94" rx="0.53" ry="3.12" transform="translate(1.5 10.6) rotate(-35.29)"/><ellipse class="cls-7" cx="17.37" cy="2.89" rx="0.53" ry="3.05" transform="translate(1.53 10.57) rotate(-35.29)"/><ellipse class="cls-8" cx="17.34" cy="2.83" rx="0.52" ry="2.99" transform="translate(1.55 10.54) rotate(-35.29)"/><ellipse class="cls-9" cx="17.3" cy="2.78" rx="0.51" ry="2.92" transform="translate(1.57 10.51) rotate(-35.29)"/><ellipse class="cls-10" cx="17.26" cy="2.73" rx="0.5" ry="2.86" transform="translate(1.6 10.47) rotate(-35.29)"/><ellipse class="cls-11" cx="17.22" cy="2.67" rx="0.49" ry="2.79" transform="translate(1.62 10.44) rotate(-35.29)"/><ellipse class="cls-12" cx="17.19" cy="2.62" rx="0.48" ry="2.73" transform="matrix(0.82, -0.58, 0.58, 0.82, 1.64, 10.41)"/><ellipse class="cls-13" cx="17.15" cy="2.57" rx="0.47" ry="2.66" transform="translate(1.67 10.38) rotate(-35.29)"/><ellipse class="cls-14" cx="17.11" cy="2.52" rx="0.46" ry="2.6" transform="translate(1.69 10.35) rotate(-35.29)"/><ellipse class="cls-15" cx="17.07" cy="2.46" rx="0.45" ry="2.53" transform="matrix(0.82, -0.58, 0.58, 0.82, 1.72, 10.32)"/><ellipse class="cls-16" cx="17.04" cy="2.41" rx="0.44" ry="2.47" transform="translate(1.74 10.29) rotate(-35.29)"/><ellipse class="cls-17" cx="17" cy="2.36" rx="0.43" ry="2.4" transform="translate(1.76 10.25) rotate(-35.29)"/><ellipse class="cls-18" cx="16.96" cy="2.3" rx="0.42" ry="2.34" transform="matrix(0.82, -0.58, 0.58, 0.82, 1.79, 10.22)"/><ellipse class="cls-19" cx="16.92" cy="2.25" rx="0.41" ry="2.28" transform="translate(1.81 10.19) rotate(-35.29)"/><ellipse class="cls-20" cx="16.89" cy="2.2" rx="0.4" ry="2.21" transform="translate(1.83 10.16) rotate(-35.3)"/><ellipse class="cls-21" cx="16.85" cy="2.15" rx="0.39" ry="2.15" transform="translate(1.86 10.13) rotate(-35.3)"/><ellipse class="cls-22" cx="16.81" cy="2.09" rx="0.38" ry="2.08" transform="translate(1.88 10.1) rotate(-35.3)"/><path class="cls-32" d="M17.34,1.61a2.57,2.57,0,0,0,.33.53l1.13,1.4a2.45,2.45,0,0,0,.45.43c.45.33,1.41,1,2,1.47a.83.83,0,0,0,.32.12.24.24,0,0,1,.21.15.07.07,0,0,1,0,.09s-.08.06-.12.09l-.06,0-.07,0a.4.4,0,0,1-.36,0L19.2,4.81a3.92,3.92,0,0,1-1-.78L16.68,2.29,15.55.79a.29.29,0,0,1,.19-.46.7.7,0,0,0,.4-.22.33.33,0,0,1,.54.08Z"/><path class="cls-33" d="M20.76,5.22A.32.32,0,0,0,20.59,5l-.93-.48a3.31,3.31,0,0,1-1-.74l-.2-.22-.7-.85a5.22,5.22,0,0,1-.67-1.05l-.47-1A.44.44,0,0,0,16.17.4.21.21,0,0,0,16,.73l.38.48.71,1.14,1,1.23a5.53,5.53,0,0,0,1.69,1.3l.79.43A.1.1,0,0,0,20.76,5.22Z"/><path class="cls-34" d="M23.46,10.45a.47.47,0,0,0,.27-.67c-.23-.44-.29-.59-.58-1.28l0-.08C23,8,23,7.49,22.82,7.24s-.27-.25-.33-.42a2.59,2.59,0,0,1-.14-.55,3.41,3.41,0,0,1,0-.54.14.14,0,0,0-.21-.14c-.17.1-.27-.16-.34-.35a8.15,8.15,0,0,1-.26-.79c0-.17-.25-.12-.41-.07s-.13,0-.24-.09l-.06-.07-.49-.57a.42.42,0,0,0-.7.13l-.37.68a.89.89,0,0,1-.24.29c-.2.16-.36.42-.6.48h0c-.18,0-.18.31,0,.39a4.94,4.94,0,0,0,.83.19,3.09,3.09,0,0,1,1,.49,3.68,3.68,0,0,1,.9,1,31,31,0,0,0,1.58,2.88A.66.66,0,0,0,23.46,10.45Z"/><path class="cls-35" d="M23.31,10a.39.39,0,0,0,.06-.39c-.09-.23-.24-.61-.36-.95a4.58,4.58,0,0,0-.44-1.14l0-.06a3.73,3.73,0,0,1-.38-1.11A.57.57,0,0,0,22,6.16c-.16-.19-.37-.31-.49-.53l-.06-.11a1,1,0,0,1-.14-.5c0-.26-.35-.27-.51-.46l0,0-.53-.48a.27.27,0,0,0-.4,0,2.4,2.4,0,0,1-.42.45l-.06.05c-.19.15,0,.44.18.48l.18,0a1.31,1.31,0,0,1,.53.07l.08,0a1.12,1.12,0,0,1,.52.48q.36.65.76,1.27t.68,1.32q.27.74.58,1.44l.14.27A.16.16,0,0,0,23.31,10Z"/><path class="cls-27" d="M23.52,13.84a.93.93,0,0,0,.52-.9l-.31-4.4a.34.34,0,0,0-.55-.25l-.66.5a.72.72,0,0,1-.52.14.41.41,0,0,0-.46.5l.9,4.26a.49.49,0,0,0,.7.34Z"/><ellipse class="cls-1" cx="2.48" cy="35.03" rx="3.44" ry="0.58" transform="translate(-24.07 12.04) rotate(-45.05)"/><ellipse class="cls-2" cx="2.44" cy="35.08" rx="3.38" ry="0.57" transform="translate(-24.11 12.02) rotate(-45.05)"/><ellipse class="cls-3" cx="2.39" cy="35.13" rx="3.31" ry="0.56" transform="translate(-24.16 12) rotate(-45.05)"/><ellipse class="cls-4" cx="2.34" cy="35.17" rx="3.25" ry="0.55" transform="translate(-24.2 11.98) rotate(-45.05)"/><ellipse class="cls-5" cx="2.3" cy="35.22" rx="3.18" ry="0.54" transform="translate(-24.25 11.97) rotate(-45.05)"/><ellipse class="cls-6" cx="2.25" cy="35.26" rx="3.12" ry="0.53" transform="translate(-24.3 11.95) rotate(-45.05)"/><ellipse class="cls-7" cx="2.21" cy="35.31" rx="3.05" ry="0.53" transform="translate(-24.34 11.93) rotate(-45.05)"/><ellipse class="cls-8" cx="2.16" cy="35.35" rx="2.99" ry="0.52" transform="translate(-24.39 11.91) rotate(-45.05)"/><ellipse class="cls-9" cx="2.12" cy="35.4" rx="2.92" ry="0.51" transform="translate(-24.43 11.89) rotate(-45.05)"/><ellipse class="cls-10" cx="2.07" cy="35.45" rx="2.86" ry="0.5" transform="translate(-24.48 11.87) rotate(-45.05)"/><ellipse class="cls-11" cx="2.02" cy="35.49" rx="2.79" ry="0.49" transform="translate(-24.53 11.85) rotate(-45.05)"/><ellipse class="cls-12" cx="1.98" cy="35.54" rx="2.73" ry="0.48" transform="translate(-24.57 11.83) rotate(-45.05)"/><ellipse class="cls-13" cx="1.93" cy="35.58" rx="2.66" ry="0.47" transform="translate(-24.62 11.81) rotate(-45.05)"/><ellipse class="cls-14" cx="1.89" cy="35.63" rx="2.6" ry="0.46" transform="translate(-24.66 11.79) rotate(-45.05)"/><ellipse class="cls-15" cx="1.84" cy="35.68" rx="2.53" ry="0.45" transform="translate(-24.71 11.78) rotate(-45.05)"/><ellipse class="cls-16" cx="1.8" cy="35.72" rx="2.47" ry="0.44" transform="translate(-24.75 11.76) rotate(-45.05)"/><ellipse class="cls-17" cx="1.75" cy="35.77" rx="2.4" ry="0.43" transform="translate(-24.8 11.74) rotate(-45.05)"/><ellipse class="cls-18" cx="1.7" cy="35.81" rx="2.34" ry="0.42" transform="translate(-24.85 11.72) rotate(-45.05)"/><ellipse class="cls-19" cx="1.66" cy="35.86" rx="2.28" ry="0.41" transform="translate(-24.89 11.7) rotate(-45.05)"/><ellipse class="cls-20" cx="1.61" cy="35.9" rx="2.21" ry="0.4" transform="translate(-24.94 11.68) rotate(-45.05)"/><ellipse class="cls-21" cx="1.57" cy="35.95" rx="2.15" ry="0.39" transform="translate(-24.98 11.66) rotate(-45.05)"/><ellipse class="cls-22" cx="1.52" cy="36" rx="2.08" ry="0.38" transform="translate(-25.03 11.64) rotate(-45.05)"/><path class="cls-36" d="M7.41,33.14s0,0,0,0l-.6-.17-.13,0c-.24-.06-.3.33-.5.49l-.08,0-.1,0-1,.25a4.61,4.61,0,0,0-1.17.45l-.63.35-.57.36a5.74,5.74,0,0,0-1,.78L.08,37.13a.26.26,0,0,0,.14.44h0a.58.58,0,0,1,.33.19.33.33,0,0,0,.51,0l1.27-1.64a3.49,3.49,0,0,1,.43-.46l.36-.32a3.2,3.2,0,0,1,.5-.37l.4-.24a2.2,2.2,0,0,1,.58-.24l2.42-.62a.5.5,0,0,0,.39-.51.92.92,0,0,0,0-.18Z"/><path class="cls-37" d="M.84,37.58a.19.19,0,0,0,.27,0l.56-.77a6.55,6.55,0,0,1,.75-.86l.4-.39a5.4,5.4,0,0,1,1-.77c.24-.14.47-.27.49-.28l1.24-.38A2,2,0,0,1,6.1,34h.42a.1.1,0,0,0,.1-.14.17.17,0,0,0-.19-.11l-.55.07a6.57,6.57,0,0,0-1.35.33l-.12,0A5.56,5.56,0,0,0,2.95,35l-.51.38-1,1-.87.92a.16.16,0,0,0,.07.26h0A.55.55,0,0,1,.84,37.58Z"/><path class="cls-27" d="M15.92,30.48c.12.25.12.62-.1.76l-.3.19a5.51,5.51,0,0,0-1.36,1,2.13,2.13,0,0,0-.18.35.23.23,0,0,1-.39,0c-.09-.13-.32.13-.54.27a4.87,4.87,0,0,1-.68.3,1.33,1.33,0,0,0-.51.21,4.22,4.22,0,0,0-.37.55c-.09.13-.24,0-.31-.18a.13.13,0,0,0-.06-.06.32.32,0,0,0-.25,0,5.11,5.11,0,0,1-.53.15c-1,.27-1.49.37-1.68.43-.38.12-.57.46-.78.78a.18.18,0,0,1-.32-.15.34.34,0,0,0,0-.2c-.08-.19-.32-.15-.52-.07l-.89.38a.32.32,0,0,1-.44-.39c0-.2.09-.41.13-.59a.8.8,0,0,0-.09-.61,1.17,1.17,0,0,0-.54-.5.25.25,0,0,1,0-.43h0a.35.35,0,0,0,.23-.43.74.74,0,0,0-.11-.18c-.09-.11.07-.26.2-.2a4.61,4.61,0,0,0,.85.35l.06,0,.37.1a2.77,2.77,0,0,0,.59.1,9.42,9.42,0,0,0,2,.06A8.88,8.88,0,0,0,12,31.85c1-.43,2.46-1.2,3.3-1.6A.47.47,0,0,1,15.92,30.48Z"/><path class="cls-38" d="M15.32,31.27c-.51.38-.88.59-1.11.74s-.26.2-.31.34l0,.08c0,.07-.12.15-.15.07s-.15,0-.23,0a2.55,2.55,0,0,1-.33.29,5.8,5.8,0,0,1-.57.3l-.5.17-.26.07c-.08,0-.18,0-.21.1s0,.39-.27.28a.61.61,0,0,0-.17-.05.43.43,0,0,0-.17,0q-.88.19-1.74.42a4.32,4.32,0,0,1-.7.13.68.68,0,0,0-.33.11c-.24.17-.33.3-.5.17a.55.55,0,0,0-.4-.15c-.3,0-.55.11-.78.12s-.05-.29,0-.63-.45-.87.16-.7a3.51,3.51,0,0,0,1.2.23h.23a10.89,10.89,0,0,0,1.16-.07,4.24,4.24,0,0,0,1.15-.2c.49-.18,1.76-.55,1.92-.59a6.41,6.41,0,0,0,2.14-1.2l.1-.08c.42-.35.74-.66.74-.66S15.89,30.84,15.32,31.27Z"/><path class="cls-39" d="M17.25,27.87a.59.59,0,0,0-.39-.76L16.42,27a.82.82,0,0,0-.93.37l-1.77,3a.36.36,0,0,0,.31.55h.28a.76.76,0,0,1,.54.23l.46.48a.39.39,0,0,0,.65-.14Z"/><ellipse class="cls-1" cx="38.15" cy="31.74" rx="0.41" ry="2.31" transform="translate(-10.32 42.41) rotate(-52.17)"/><ellipse class="cls-2" cx="38.19" cy="31.77" rx="0.4" ry="2.26" transform="translate(-10.33 42.45) rotate(-52.17)"/><ellipse class="cls-3" cx="38.22" cy="31.8" rx="0.39" ry="2.22" transform="translate(-10.33 42.49) rotate(-52.17)"/><ellipse class="cls-4" cx="38.26" cy="31.82" rx="0.39" ry="2.18" transform="matrix(0.61, -0.79, 0.79, 0.61, -10.34, 42.52)"/><ellipse class="cls-5" cx="38.29" cy="31.85" rx="0.38" ry="2.13" transform="translate(-10.35 42.56) rotate(-52.17)"/><ellipse class="cls-6" cx="38.32" cy="31.88" rx="0.37" ry="2.09" transform="translate(-10.36 42.6) rotate(-52.17)"/><ellipse class="cls-7" cx="38.36" cy="31.9" rx="0.37" ry="2.05" transform="translate(-10.37 42.64) rotate(-52.17)"/><ellipse class="cls-8" cx="38.39" cy="31.93" rx="0.36" ry="2" transform="translate(-10.37 42.67) rotate(-52.17)"/><ellipse class="cls-9" cx="38.43" cy="31.96" rx="0.35" ry="1.96" transform="translate(-10.38 42.71) rotate(-52.17)"/><ellipse class="cls-10" cx="38.46" cy="31.98" rx="0.35" ry="1.92" transform="translate(-10.39 42.75) rotate(-52.17)"/><ellipse class="cls-11" cx="38.5" cy="32.01" rx="0.34" ry="1.87" transform="translate(-10.4 42.79) rotate(-52.17)"/><ellipse class="cls-12" cx="38.53" cy="32.04" rx="0.33" ry="1.83" transform="matrix(0.61, -0.79, 0.79, 0.61, -10.4, 42.82)"/><ellipse class="cls-13" cx="38.57" cy="32.06" rx="0.33" ry="1.79" transform="translate(-10.41 42.86) rotate(-52.17)"/><ellipse class="cls-14" cx="38.6" cy="32.09" rx="0.32" ry="1.74" transform="translate(-10.42 42.9) rotate(-52.17)"/><ellipse class="cls-15" cx="38.63" cy="32.12" rx="0.31" ry="1.7" transform="translate(-10.43 42.94) rotate(-52.17)"/><ellipse class="cls-16" cx="38.67" cy="32.14" rx="0.31" ry="1.66" transform="translate(-10.43 42.97) rotate(-52.18)"/><ellipse class="cls-17" cx="38.7" cy="32.17" rx="0.3" ry="1.61" transform="translate(-10.44 43.01) rotate(-52.18)"/><ellipse class="cls-18" cx="38.74" cy="32.2" rx="0.29" ry="1.57" transform="translate(-10.45 43.05) rotate(-52.18)"/><ellipse class="cls-19" cx="38.77" cy="32.22" rx="0.29" ry="1.53" transform="translate(-10.46 43.09) rotate(-52.18)"/><ellipse class="cls-20" cx="38.81" cy="32.25" rx="0.28" ry="1.48" transform="translate(-10.47 43.13) rotate(-52.18)"/><ellipse class="cls-21" cx="38.84" cy="32.28" rx="0.27" ry="1.44" transform="translate(-10.47 43.16) rotate(-52.18)"/><ellipse class="cls-22" cx="38.87" cy="32.3" rx="0.27" ry="1.4" transform="translate(-10.48 43.2) rotate(-52.18)"/><path class="cls-36" d="M39.61,33.66a.56.56,0,0,1,.25-.3.29.29,0,0,0,.05-.48l-.54-.48a5.37,5.37,0,0,0-1-.71l-.48-.25a3.09,3.09,0,0,0-1.18-.35l-2.17-.19a.3.3,0,0,0-.32.28.34.34,0,0,0,.29.35l2.13.32a2,2,0,0,1,.59.19l.83.42a1.27,1.27,0,0,1,.46.4l.64.9a.27.27,0,0,0,.47-.06Z"/><path class="cls-40" d="M39.32,33.29a.12.12,0,0,0,.21,0l0,0a.24.24,0,0,1,.09-.11.12.12,0,0,0,0-.18l-.34-.33a4.29,4.29,0,0,0-1-.72l-.47-.25a5.91,5.91,0,0,0-2.22-.5L34.4,31a.11.11,0,0,0-.12.14.23.23,0,0,0,.2.17l2.17.25.65.18a3.84,3.84,0,0,1,.85.35l0,0a2.71,2.71,0,0,1,.67.53l.16.18a1.67,1.67,0,0,1,.22.31Z"/><path class="cls-27" d="M35.8,31.87a1.27,1.27,0,0,1,0-.62,1.13,1.13,0,0,0-.05-.81.19.19,0,0,0-.19-.13,8.68,8.68,0,0,1-1.29.21c-.36,0-.88,0-1.32,0a6,6,0,0,1-1.29-.23c-.47-.15-.68-.24-.92-.31a1.52,1.52,0,0,1-.56-.28,10.16,10.16,0,0,0-1.86-1.28c-.26-.14-.22.18-.47.48l-.13.16c-.25.31-.25.63,0,.75a8.48,8.48,0,0,1,1.36.91l.05,0a1.08,1.08,0,0,1,.23.64c0,.17.28.17.4,0s.08-.2.21-.2H30l.05,0c.11.07.6.27,1.06.44a13.07,13.07,0,0,0,1.6.41,3.58,3.58,0,0,1,.47.48c.17.18.26.06.31-.15a.23.23,0,0,1,.22-.18h.06a.13.13,0,0,1,.07,0,6.1,6.1,0,0,0,.65.57c.2.13.25.1.31-.05v0c.09-.16.32,0,.49.05l0,0c.38.2.61.78.79.52s-.15-.8-.27-1.22l0-.08Z"/><path class="cls-41" d="M35.19,32c.17.08.42.2.25-.25a.8.8,0,0,1-.05-.46c.13-.5-.17-.51-.4-.51h-.54a6,6,0,0,1-1,0l-.49,0a6.39,6.39,0,0,1-1.22-.21l-.12,0c-.35-.09-.71-.2-1.05-.33a2.37,2.37,0,0,1-.88-.55c-.26-.27-.39-.39-.66-.63l-.38-.27a.39.39,0,0,0-.22-.06c-.87,0,.94,1.31,1.67,1.77a1.75,1.75,0,0,1,.37.29c.19.21.53.21.82.29h0a1.85,1.85,0,0,1,.73.37l.12.09c.25.17.63-.09.83.13s.57-.16.87,0,.4.39.56.41.36-.12.55,0Z"/><path class="cls-39" d="M26.71,27.08a.88.88,0,0,0-.13,1l1.17,2.18a.46.46,0,0,0,.74.11l.32-.32a1.39,1.39,0,0,1,.52-.33l.79-.29a.38.38,0,0,0,.12-.63l-2.33-2.08a.64.64,0,0,0-.9,0Z"/><ellipse class="cls-1" cx="17.23" cy="36.13" rx="3.44" ry="0.58" transform="translate(-22.06 28.46) rotate(-53.45)"/><ellipse class="cls-2" cx="17.19" cy="36.19" rx="3.38" ry="0.57" transform="translate(-22.12 28.45) rotate(-53.45)"/><ellipse class="cls-3" cx="17.15" cy="36.24" rx="3.31" ry="0.56" transform="translate(-22.17 28.44) rotate(-53.45)"/><ellipse class="cls-4" cx="17.11" cy="36.29" rx="3.25" ry="0.55" transform="translate(-22.23 28.43) rotate(-53.45)"/><ellipse class="cls-5" cx="17.07" cy="36.34" rx="3.18" ry="0.54" transform="translate(-22.29 28.42) rotate(-53.45)"/><ellipse class="cls-6" cx="17.03" cy="36.39" rx="3.12" ry="0.53" transform="translate(-22.35 28.41) rotate(-53.45)"/><ellipse class="cls-7" cx="17" cy="36.45" rx="3.05" ry="0.53" transform="translate(-22.4 28.4) rotate(-53.45)"/><ellipse class="cls-8" cx="16.96" cy="36.5" rx="2.99" ry="0.52" transform="translate(-22.46 28.39) rotate(-53.45)"/><ellipse class="cls-9" cx="16.92" cy="36.55" rx="2.92" ry="0.51" transform="translate(-22.52 28.38) rotate(-53.45)"/><ellipse class="cls-10" cx="16.88" cy="36.6" rx="2.86" ry="0.5" transform="translate(-22.58 28.37) rotate(-53.45)"/><ellipse class="cls-11" cx="16.84" cy="36.65" rx="2.79" ry="0.49" transform="translate(-22.63 28.36) rotate(-53.45)"/><ellipse class="cls-12" cx="16.8" cy="36.71" rx="2.73" ry="0.48" transform="translate(-22.69 28.35) rotate(-53.45)"/><ellipse class="cls-13" cx="16.77" cy="36.76" rx="2.66" ry="0.47" transform="translate(-22.75 28.34) rotate(-53.45)"/><ellipse class="cls-14" cx="16.73" cy="36.81" rx="2.6" ry="0.46" transform="translate(-22.81 28.33) rotate(-53.45)"/><ellipse class="cls-15" cx="16.69" cy="36.86" rx="2.53" ry="0.45" transform="translate(-22.86 28.32) rotate(-53.45)"/><ellipse class="cls-16" cx="16.65" cy="36.91" rx="2.47" ry="0.44" transform="translate(-22.92 28.31) rotate(-53.45)"/><ellipse class="cls-17" cx="16.61" cy="36.97" rx="2.4" ry="0.43" transform="translate(-22.98 28.3) rotate(-53.45)"/><ellipse class="cls-18" cx="16.57" cy="37.02" rx="2.34" ry="0.42" transform="translate(-23.03 28.29) rotate(-53.45)"/><ellipse class="cls-19" cx="16.53" cy="37.07" rx="2.28" ry="0.41" transform="translate(-23.09 28.28) rotate(-53.45)"/><ellipse class="cls-20" cx="16.5" cy="37.12" rx="2.21" ry="0.4" transform="translate(-23.15 28.27) rotate(-53.45)"/><ellipse class="cls-21" cx="16.46" cy="37.17" rx="2.15" ry="0.39" transform="translate(-23.21 28.26) rotate(-53.45)"/><ellipse class="cls-22" cx="16.42" cy="37.23" rx="2.08" ry="0.38" transform="translate(-23.26 28.25) rotate(-53.45)"/><path class="cls-36" d="M17,37.67a2.29,2.29,0,0,1,.33-.53l1.08-1.3a2.36,2.36,0,0,1,.46-.42c.46-.32,1.43-1,2.06-1.42a.82.82,0,0,1,.33-.11.24.24,0,0,0,.21-.15.07.07,0,0,0,0-.09s-.08-.06-.12-.09l-.06,0-.07,0a.4.4,0,0,0-.36,0l-2,1.08a4.15,4.15,0,0,0-1,.75l-1.17,1.2a6.38,6.38,0,0,0-.78,1l-.73,1.13a.23.23,0,0,0,.19.36.56.56,0,0,1,.37.15l0,0a.39.39,0,0,0,.61-.13Z"/><path class="cls-42" d="M20,34.29a.52.52,0,0,1-.23.36l-.74.49a4,4,0,0,0-.83.74l-.53.62-.42.56a4.61,4.61,0,0,0-.54.91l-.33.75a.29.29,0,0,1-.34.16h0l-.18,0a.11.11,0,0,1-.08-.17l.89-1.35,1-1.15.23-.27a7.66,7.66,0,0,1,1.41-1.29l.59-.42A.11.11,0,0,1,20,34.29Z"/><path class="cls-27" d="M23.26,28.73a.47.47,0,0,1,.29.66,12.66,12.66,0,0,0-.63,1.31l0,.08A3.45,3.45,0,0,0,23,32.17c0,.16-.19.21-.31.1s-.29,0-.35.17c-.28.74-.65,1.44-.71,1.64s-.16.48-.22.73-.25.15-.41.11-.13,0-.23.1l-.06.07-.48.58a.42.42,0,0,1-.7-.11l-.38-.67a.88.88,0,0,0-.25-.28c-.15-.11-.29-.25-.43-.36a.23.23,0,0,1,0-.42l.55-.26a3.61,3.61,0,0,0,.84-.46,6.16,6.16,0,0,0,1.38-1.69,22,22,0,0,1,1.34-2.37C22.79,28.81,23,28.62,23.26,28.73Z"/><path class="cls-43" d="M23.3,28.85a.54.54,0,0,1,.08.63c-.16.29-.38.73-.55,1.08a1.28,1.28,0,0,0-.14.6,2.11,2.11,0,0,1,0,.42c0,.13-.18.19-.31.23a.26.26,0,0,0-.14.18c-.1.28-.21.58-.28.8a2.75,2.75,0,0,1-.33.66,1,1,0,0,0-.16.35c-.07.3-.08.55-.25.7s-.44.24-.62.41l0,0c-.49.61-.57,0-.74-.27s-.12-.58.12-.64L20,34a.94.94,0,0,0,.57-.44q.36-.61.75-1.19l.41-.73a6.31,6.31,0,0,0,.52-1.13q.28-.82.61-1.6A.27.27,0,0,1,23.3,28.85Z"/><path class="cls-39" d="M23.4,25.57a.93.93,0,0,1,.5.91l-.4,4.39a.34.34,0,0,1-.55.24l-.65-.51a.72.72,0,0,0-.52-.15.41.41,0,0,1-.45-.51l1-4.24a.49.49,0,0,1,.7-.33Z"/><path class="cls-44" d="M37.84,22.85a7.56,7.56,0,0,1,1.46,2,8.9,8.9,0,0,0,.67,1,5.62,5.62,0,0,0,.77.94c.35.26,1.15.64,1.54.29a1.74,1.74,0,0,0,.51-1.46c-.16-1-1.17.57-1.12,1.09s.45.19.53-.08a4.19,4.19,0,0,0,.15-1.2c0-.43-.31-.18-.32.12,0,.14,0,.8-.12.73l.07.24c0-.19.28-.43.4-.56s.07-.09.09,0a.58.58,0,0,1-.57.64c-.75,0-1.1-.55-1.53-1.06-.82-1-1.31-2.35-2.36-3.12C37.84,22.3,37.67,22.73,37.84,22.85Z"/><path class="cls-45" d="M37.84,17.37a3.18,3.18,0,0,0,1.4-1.09,6.91,6.91,0,0,0,.48-.78,4.65,4.65,0,0,1,1-1.14,4.09,4.09,0,0,1,1.08-.59c.56-.26.81.22.88.67a.54.54,0,0,1-.23-.28,2.89,2.89,0,0,1-.28-.54c-.06-.2-.11-.3-.31-.35s-.13.08-.16.13c-.26.58.27,1.22.46,1.74.12.33.35-.22.29-.41s-.13-.3-.2-.45l-.16-.36q-.06-.14-.11-.29t-.07.12l-.16.13c.13,0,.44.76.49.87a.64.64,0,0,0,.41.41.1.1,0,0,0,.08,0A1.2,1.2,0,0,0,43,14c-.15-.65-.41-1-1.13-.8a4,4,0,0,0-2,1.48c-.64.81-.91,1.83-2,2.22C37.67,16.91,37.63,17.44,37.84,17.37Z"/><path class="cls-36" d="M35.6,23.86a6.21,6.21,0,0,0,2.78-1,3,3,0,0,0,1.23-2.07c-.26-.06-.47-.45-.46-.92s.21-.86.48-.91a3,3,0,0,0-1.19-2.09,6.21,6.21,0,0,0-2.76-1,1.36,1.36,0,0,0-1.56,1.44v.12c0,.67.06,1.47.05,2.43s-.05,1.77-.11,2.43v.12A1.36,1.36,0,0,0,35.6,23.86Z"/><path class="cls-46" d="M39,19.91v0h0Z"/><path class="cls-47" d="M37.93,16.27A4.38,4.38,0,0,0,35.62,15a1.21,1.21,0,0,0-1.33,1.38c0,.16-.38,2.26-.39,3.42s.33,3.27.32,3.43a1.21,1.21,0,0,0,1.3,1.41,4.38,4.38,0,0,0,2.33-1.19A5.05,5.05,0,0,0,39,19.91v0A5.09,5.09,0,0,0,37.93,16.27Z"/><path class="cls-48" d="M38.72,19.87a4,4,0,0,0-1-3.06,4.35,4.35,0,0,0-2.19-1.06l-.23,0c-.32,0-.49.35-.47.67,0,.89.07,2,.06,3.42q0,.19,0,.37a.7.7,0,0,0,.71.74,11.49,11.49,0,0,0,2.09-.25C38.53,20.49,38.71,20.18,38.72,19.87Z"/><path class="cls-49" d="M35.52,24.66a4.38,4.38,0,0,0,2.33-1.19A5.09,5.09,0,0,0,39,19.88a3.33,3.33,0,0,1-1.1,2.76,4.91,4.91,0,0,1-2.33.91h-.16c-.3,0-.63.18-.55.47a1.34,1.34,0,0,0,.41.64A1,1,0,0,0,35.52,24.66Z"/><path class="cls-50" d="M38.24,22.91c-.75.4-1.54-.27-2.39-.78-.58-.35-1,.07-1.06.75,0,.23,0,.28,0,.5,0,0,0,.07,0,.11a1.46,1.46,0,0,0,.48,1.13,1,1,0,0,0,.29,0,4.39,4.39,0,0,0,2.33-1.19A3.27,3.27,0,0,0,38.24,22.91Z"/><path class="cls-51" d="M38.3,16.83a3.34,3.34,0,0,0-.38-.51,4.4,4.4,0,0,0-2.31-1.24,1,1,0,0,0-.29,0,1.47,1.47,0,0,0-.5,1.12s0,.07,0,.11c0,.22,0,.27,0,.5,0,.67.46,1.1,1,.77C36.76,17.06,37.56,16.41,38.3,16.83Z"/><path class="cls-52" d="M38.24,22.91a1.11,1.11,0,0,1-.89.05,5.42,5.42,0,0,1-1.82.58h-.16c-.26,0-.55.14-.56.36a1.35,1.35,0,0,0,.42.69,1,1,0,0,0,.29,0,4.39,4.39,0,0,0,2.33-1.19A3.27,3.27,0,0,0,38.24,22.91Z"/><path class="cls-53" d="M37.62,16.71a4.44,4.44,0,0,0-2.07-.95l-.23,0c-.3,0-.47.31-.47.62,0,0,0,0,0,.05s0,.31,0,.48c.07.61.48,1,1,.66A5.76,5.76,0,0,1,37.62,16.71Z"/><path class="cls-54" d="M20.46,28.48c-4.32,0-16.07-.4-16-9s11.84-8.68,16.17-8.63,7.78,4.62,7.73,8.89S24.78,28.53,20.46,28.48Z"/><path class="cls-55" d="M28.38,19.76a9.38,9.38,0,0,0-1.6-5.18c-.75-.3-.85-.68-2-1.38S24,12.46,24,11.88v0a6.59,6.59,0,0,0-3.31-1c-4.25,0-15.66,0-16.15,8.18l15.86.5a.58.58,0,0,0,.5-.34,1.63,1.63,0,0,1,.5-.57l.8-.7c.5-.45,1-.83,1.34-1.2l.2-.23a3.79,3.79,0,0,1-.28.36c-.35.39-.81.78-1.3,1.25l-.78.72a1.22,1.22,0,0,0-.54.91h0a1.23,1.23,0,0,0,.52.93l.76.74c.48.48.93.88,1.27,1.28a3,3,0,0,1,.73,1.47l0,2.75A8.68,8.68,0,0,0,28.38,19.76Z"/><path d="M34.08,24.62a23,23,0,0,0,.52-4.79,23,23,0,0,0-.41-4.8h0c0,.17-.05,2.25-.09,4.78s0,4.61,0,4.79Z"/><path class="cls-46" d="M25.62,29.73h0Z"/><path class="cls-56" d="M32.78,27a3.52,3.52,0,0,0,1.31-2.37,45.24,45.24,0,0,0,.26-4.8,45.22,45.22,0,0,0-.16-4.8,3.53,3.53,0,0,0-1.26-2.4A12.57,12.57,0,0,0,26,9.73a1.21,1.21,0,0,0-1.22,1.43L25,12.91a7.15,7.15,0,0,1-.35,3.47l-.71,2a4.14,4.14,0,0,0,0,2.72l.67,2a7.15,7.15,0,0,1,.27,3.48l-.3,1.75a1.22,1.22,0,0,0,1,1.45h.17A12.58,12.58,0,0,0,32.78,27Z"/><path class="cls-57" d="M26.17,29.71A12.73,12.73,0,0,0,32.78,27c.74-.58.76-2.46,0-2.05a15.56,15.56,0,0,1-7,1.94h-.18a.45.45,0,0,0-.43.37l-.18,1a1.25,1.25,0,0,0,.78,1.39A.86.86,0,0,0,26.17,29.71Z"/><path class="cls-58" d="M33.41,20.13a13.59,13.59,0,0,0,.24-2.62,13.6,13.6,0,0,0-.18-2.62c-.1-.51-.89-1.07-1.28-1.32a11.27,11.27,0,0,0-5.11-1.87,1.47,1.47,0,0,0-1.55,1.68,7.16,7.16,0,0,1-.4,3l-.71,2a4.14,4.14,0,0,0,0,2.72l.15.43a1.48,1.48,0,0,0,1.42,1,15.88,15.88,0,0,0,6.15-1.11A2,2,0,0,0,33.41,20.13Z"/><path class="cls-59" d="M30.06,28.65c-.06-.75-.55-.15-.54-.86a4.69,4.69,0,0,1,.54-1.67c-.46.15-1,.29-1.48.41-.06.19-.1.39-.15.58a3.61,3.61,0,0,1-.26.88.59.59,0,0,1-.34.34c-.21.09-.3.14-.36.31a2.37,2.37,0,0,0-.13.91A11.92,11.92,0,0,0,30.06,28.65Z"/><path class="cls-60" d="M23.42,21.25a5.18,5.18,0,0,1,0-3.09l.69-2.11a5.89,5.89,0,0,0,.18-.72,3,3,0,0,1-.76,1.46c-.35.39-.81.78-1.3,1.25l-.78.72a1.22,1.22,0,0,0-.54.91h0a1.22,1.22,0,0,0,.52.93l.76.74c.48.48.93.89,1.27,1.28a3,3,0,0,1,.73,1.47,5.86,5.86,0,0,0-.17-.73Z"/><path class="cls-61" d="M22.88,21.36a1.69,1.69,0,0,0,0-.54A5.18,5.18,0,0,1,23,18.16l.17-.53a.09.09,0,0,0-.15-.1l-1.68,1.55a.84.84,0,0,0,0,1.22l1.22,1.17A.2.2,0,0,0,22.88,21.36Z"/><path class="cls-46" d="M18,30.64h0Z"/><path class="cls-62" d="M22.41,30.09a2.08,2.08,0,0,0,1.66-1.7l.28-2.23a5.88,5.88,0,0,0,0-1.71,3,3,0,0,0-.92-1.74C23,22.34,22.54,22,22,21.53l-.81-.69a1.63,1.63,0,0,1-.51-.56.58.58,0,0,0-.5-.33l-15.94.8a.34.34,0,0,0-.33.37c.47,4.91,5.15,10,14,9.52H18A36.26,36.26,0,0,0,22.41,30.09Z"/><path class="cls-63" d="M21.5,22.86a1.34,1.34,0,0,0,.83-.42.36.36,0,0,0-.06-.52l-1.38-1.17a1.18,1.18,0,0,1-.27-.33.55.55,0,0,0-.48-.32l-11.8.59a.18.18,0,0,0-.14.29c1.4,1.55,4.63,2.43,10.35,2.14C19.55,23.07,20.61,23,21.5,22.86Z"/><path class="cls-64" d="M22,30.17a2.14,2.14,0,0,0,1.66-1.75l.14-1.08a.29.29,0,0,0-.32-.32l-1.18.14c-1.15.17-2.84.38-4.42.46C10.77,28,6.41,25.8,4.71,23.14c-.1-.16-.37-.07-.31.11,1.45,4.13,6,7.76,13.56,7.39h.09A34.9,34.9,0,0,0,22,30.17Z"/><path class="cls-65" d="M16.25,29.85c0-.26-.21-.29-.38-.33A.65.65,0,0,1,15.3,29a5.39,5.39,0,0,1-.1-1.34q-.94,0-1.81-.14h0c.22.39.46.88.69,1.38a.64.64,0,0,1-.12.77c-.08.08-.08.13-.13.31l-.13.45a18.06,18.06,0,0,0,2.55.26A5.09,5.09,0,0,0,16.25,29.85Z"/><path class="cls-66" d="M21.35,27.28c.11.2.55,1,.7,1.29s-.21.8-.29.91-.38.78-.38.78l.58-.1h0a2.13,2.13,0,0,0,1.63-1.64.54.54,0,0,1-.57-.44,2.72,2.72,0,0,1,0-1l-.72.09Z"/><path class="cls-46" d="M18.28,8.66h0Z"/><path class="cls-67" d="M4,17.86a.34.34,0,0,0,.32.38l15.91,1.15a.58.58,0,0,0,.51-.32,1.63,1.63,0,0,1,.52-.55l.83-.67c.52-.43,1-.79,1.39-1.14a3,3,0,0,0,1-1.72,5.88,5.88,0,0,0,.07-1.71L24.26,11A2.08,2.08,0,0,0,22.63,9.3a36.24,36.24,0,0,0-4.36-.64h-.07C9.33,8,4.55,13,4,17.86Z"/><path class="cls-68" d="M20.14,19.25a.55.55,0,0,0,.49-.31,1.19,1.19,0,0,1,.28-.32l2.14-1.75.19-.16a1.55,1.55,0,0,0,.38-.58l0-.11a5.89,5.89,0,0,0,.38-2.7,2.33,2.33,0,0,0-2-2.1c-.91-.14-2-.26-3.09-.34-7.86-.57-11.23,3.32-11.43,6.06A3.26,3.26,0,0,0,7.68,18a.52.52,0,0,0,.47.37Z"/></svg>