<svg id="Layer_1" data-name="Layer 1" xmlns="http://www.w3.org/2000/svg" xmlns:xlink="http://www.w3.org/1999/xlink" viewBox="0 0 48 82.84"><defs><style>.cls-1{fill:url(#linear-gradient);}.cls-2{fill:url(#linear-gradient-2);}.cls-3{fill:url(#linear-gradient-3);}.cls-4{fill:url(#linear-gradient-4);}.cls-5{fill:url(#Neutral_4);}.cls-6{fill:url(#linear-gradient-5);}.cls-7{opacity:0.59;}.cls-8{fill:url(#linear-gradient-6);}.cls-9{fill:url(#Neutral_4-2);}.cls-10{fill:url(#linear-gradient-7);}.cls-11{fill:url(#linear-gradient-8);}.cls-12{fill:url(#Neutral_4-3);}.cls-13{fill:url(#Neutral_4-4);}.cls-14{fill:#e55942;}.cls-15{mask:url(#mask);}.cls-16{fill:#7f7f7f;}.cls-17{fill:#bbbcbe;opacity:0.27;}.cls-18{mask:url(#mask-2);}.cls-19,.cls-22,.cls-24,.cls-29,.cls-43,.cls-46{fill:#fff;}.cls-19{opacity:0.54;}.cls-20{fill:#595b5c;}.cls-21{mask:url(#mask-3);}.cls-23{fill:#6b6d6f;}.cls-24{opacity:0.51;}.cls-25{mask:url(#mask-4);}.cls-26{fill:#aaadb0;}.cls-27{mask:url(#mask-5);}.cls-28{fill:#7d7f81;}.cls-29{opacity:0.16;}.cls-30{fill:#797c7e;}.cls-30,.cls-46{opacity:0.71;}.cls-31{fill:#aeafb0;}.cls-32{fill:#e1e2e3;opacity:0.66;}.cls-33{mask:url(#mask-6);}.cls-34{mask:url(#mask-7);}.cls-35{fill:#a5a7aa;}.cls-36{fill:#b4b6b8;}.cls-37{mask:url(#mask-8);}.cls-38{fill:url(#linear-gradient-9);}.cls-39{mask:url(#mask-9);}.cls-40{fill:#d6d6d6;}.cls-41{mask:url(#mask-10);}.cls-42{mask:url(#mask-11);}.cls-43{opacity:0.32;}.cls-44{fill:#a16733;}.cls-45{mask:url(#mask-12);}.cls-47{fill:#ba773b;}.cls-48{fill:#3c140d;}.cls-49{fill:url(#linear-gradient-10);}.cls-50{fill:url(#linear-gradient-11);}.cls-51{fill:url(#linear-gradient-12);}.cls-52{fill:url(#linear-gradient-13);}.cls-53{fill:url(#linear-gradient-14);}.cls-54{fill:url(#linear-gradient-15);}.cls-55{fill:url(#linear-gradient-16);}.cls-56{fill:url(#linear-gradient-17);}.cls-57{fill:url(#linear-gradient-18);}.cls-58{fill:url(#linear-gradient-19);}.cls-59{fill:url(#linear-gradient-20);}.cls-60{fill:#5b3411;}.cls-61{fill:url(#linear-gradient-21);}.cls-62{fill:url(#linear-gradient-22);}.cls-63{fill:url(#linear-gradient-23);}.cls-64{fill:url(#linear-gradient-24);}.cls-65{fill:url(#linear-gradient-25);}.cls-66{fill:url(#linear-gradient-26);}.cls-67{fill:url(#linear-gradient-27);}.cls-68{fill:url(#linear-gradient-28);}.cls-69{fill:url(#linear-gradient-29);}.cls-70{fill:url(#linear-gradient-30);}.cls-71{fill:url(#linear-gradient-31);}</style><linearGradient id="linear-gradient" y1="41.86" x2="48" y2="41.86" gradientUnits="userSpaceOnUse"><stop offset="0.05" stop-color="#fff"/><stop offset="0.09" stop-color="#fafafa"/><stop offset="0.13" stop-color="#ececec"/><stop offset="0.18" stop-color="#d5d5d5"/><stop offset="0.22" stop-color="#b4b4b4"/><stop offset="0.27" stop-color="#8a8a8a"/><stop offset="0.32" stop-color="#575757"/><stop offset="0.46"/><stop offset="0.55"/><stop offset="0.61" stop-color="#232222"/><stop offset="0.69" stop-color="#4e4c4b"/><stop offset="0.93" stop-color="#fff"/></linearGradient><linearGradient id="linear-gradient-2" x1="20.07" y1="44.25" x2="45.45" y2="44.25" gradientUnits="userSpaceOnUse"><stop offset="0.03"/><stop offset="1" stop-color="#fff"/></linearGradient><linearGradient id="linear-gradient-3" x1="-1012.2" y1="13.55" x2="-997.54" y2="13.55" gradientTransform="matrix(-1, 0, 0, 1, -990.74, 0)" gradientUnits="userSpaceOnUse"><stop offset="0.07"/><stop offset="0.88" stop-color="#fff"/><stop offset="0.99"/></linearGradient><linearGradient id="linear-gradient-4" x1="24.69" y1="11" x2="38.86" y2="11" gradientUnits="userSpaceOnUse"><stop offset="0.03"/><stop offset="0.89" stop-color="#fff"/><stop offset="1"/></linearGradient><linearGradient id="Neutral_4" x1="33.13" y1="45.26" x2="44.3" y2="45.26" gradientUnits="userSpaceOnUse"><stop offset="0.03" stop-color="#231f20"/><stop offset="1" stop-color="#fff"/></linearGradient><linearGradient id="linear-gradient-5" x1="38.76" y1="45.26" x2="42.11" y2="45.26" gradientUnits="userSpaceOnUse"><stop offset="0.03" stop-color="gray"/><stop offset="0.72" stop-color="#fff"/></linearGradient><linearGradient id="linear-gradient-6" x1="34.04" y1="61.65" x2="34.04" y2="66.37" gradientUnits="userSpaceOnUse"><stop offset="0.28"/><stop offset="0.39" stop-color="#030303"/><stop offset="0.49" stop-color="#0e0e0e"/><stop offset="0.57" stop-color="#1f1f1f"/><stop offset="0.66" stop-color="#373737"/><stop offset="0.73" stop-color="#575757"/><stop offset="0.81" stop-color="#7d7d7d"/><stop offset="0.89" stop-color="#ababab"/><stop offset="0.96" stop-color="#dfdfdf"/><stop offset="1" stop-color="#fff"/></linearGradient><linearGradient id="Neutral_4-2" x1="25.06" y1="19" x2="39.8" y2="19" xlink:href="#Neutral_4"/><linearGradient id="linear-gradient-7" x1="-1018.67" y1="44.25" x2="-993.29" y2="44.25" gradientTransform="matrix(-1, 0, 0, 1, -990.74, 0)" xlink:href="#linear-gradient-2"/><linearGradient id="linear-gradient-8" x1="-1004.7" y1="61.65" x2="-1004.7" y2="66.37" gradientTransform="matrix(-1, 0, 0, 1, -990.74, 0)" xlink:href="#linear-gradient-6"/><linearGradient id="Neutral_4-3" x1="27.26" y1="67.32" x2="41.99" y2="67.32" xlink:href="#Neutral_4"/><linearGradient id="Neutral_4-4" x1="-484.61" y1="-48.3" x2="-477.75" y2="-48.3" gradientTransform="translate(-473.13 -3.05) rotate(180)" xlink:href="#Neutral_4"/><mask id="mask" x="0" y="17.35" width="48" height="49.03" maskUnits="userSpaceOnUse"><path class="cls-1" d="M42.05,22.36a37.86,37.86,0,0,1-.64-5H6.58a37.86,37.86,0,0,1-.64,5C4.88,23.91,0,24.38,0,28.28V64.64a2,2,0,0,0,2.12,1.74H45.88A2,2,0,0,0,48,64.64V28.28C48,24.38,43.12,23.91,42.05,22.36Z"/></mask><mask id="mask-2" x="20.07" y="22.11" width="25.38" height="44.26" maskUnits="userSpaceOnUse"><path class="cls-2" d="M39.51,22.36c-.28-.4-18.79-.14-18.79-.14l-.65,0v44.2H43.33a2,2,0,0,0,2.12-1.74V28.28C45.45,24.38,40.57,23.91,39.51,22.36Z"/></mask><mask id="mask-3" x="33.13" y="26.81" width="11.17" height="36.9" maskUnits="userSpaceOnUse"><path class="cls-5" d="M44.3,62a2,2,0,0,1-2.12,1.74H35.26A2,2,0,0,1,33.13,62V28.54a2,2,0,0,1,2.12-1.74h6.92a2,2,0,0,1,2.12,1.74Z"/></mask><mask id="mask-4" x="37.91" y="26.81" width="5.31" height="36.9" maskUnits="userSpaceOnUse"><path class="cls-6" d="M42.11,62c0,1-.29,1.74-.64,1.74H39.4c-.35,0-.64-.78-.64-1.74V28.54c0-1,.29-1.74.64-1.74h2.08c.35,0,.64.78.64,1.74Z"/></mask><mask id="mask-5" x="20.07" y="61.65" width="27.93" height="4.72" maskUnits="userSpaceOnUse"><g class="cls-7"><path class="cls-8" d="M47.95,62c0,1-1,3.47-2.34,3.47,0,0-12.34-1.13-25.54-1.13v2.07H45.66C47,66.37,48,65.6,48,64.64v-3A2,2,0,0,0,47.95,62Z"/></g></mask><mask id="mask-6" x="25.06" y="18.68" width="14.74" height="0.64" maskUnits="userSpaceOnUse"><path class="cls-9" d="M39.8,19c0-.18-.2-.32-.45-.32H25.52c-.25,0-.45.14-.45.32s.2.32.45.32H39.34C39.59,19.32,39.8,19.17,39.8,19Z"/></mask><mask id="mask-7" x="2.55" y="22.11" width="25.38" height="44.26" maskUnits="userSpaceOnUse"><path class="cls-10" d="M8.49,22.36c.28-.4,18.79-.14,18.79-.14l.65,0v44.2H4.67a2,2,0,0,1-2.12-1.74V28.28C2.55,24.38,7.43,23.91,8.49,22.36Z"/></mask><mask id="mask-8" x="0" y="61.65" width="27.93" height="4.72" maskUnits="userSpaceOnUse"><g class="cls-7"><path class="cls-11" d="M.05,62c0,1,1,3.47,2.34,3.47,0,0,12.34-1.13,25.54-1.13v2.07H2.34C1,66.37,0,65.6,0,64.64v-3A2,2,0,0,1,.05,62Z"/></g></mask><linearGradient id="linear-gradient-9" x1="24" y1="66.37" x2="24" y2="66.78" gradientUnits="userSpaceOnUse"><stop offset="0" stop-color="#5e5e5e"/><stop offset="1" stop-color="#a5a7aa"/></linearGradient><mask id="mask-9" x="27.26" y="67.1" width="14.74" height="0.44" maskUnits="userSpaceOnUse"><path class="cls-12" d="M42,67.32c0-.12-.2-.22-.45-.22H27.71c-.25,0-.45.1-.45.22s.2.22.45.22H41.54C41.79,67.55,42,67.45,42,67.32Z"/></mask><mask id="mask-10" x="4.62" y="26.81" width="6.86" height="36.9" maskUnits="userSpaceOnUse"><path class="cls-13" d="M4.62,28.54c0-1,.58-1.74,1.3-1.74h4.25c.72,0,1.3.78,1.3,1.74V62c0,1-.58,1.74-1.3,1.74H5.92c-.72,0-1.3-.78-1.3-1.74Z"/></mask><mask id="mask-11" x="6.81" y="13.37" width="14.65" height="0.35" maskUnits="userSpaceOnUse"><path class="cls-3" d="M21.46,13.55a.2.2,0,0,1-.21.18H7a.2.2,0,0,1-.21-.18h0A.2.2,0,0,1,7,13.37H21.25a.2.2,0,0,1,.21.18Z"/></mask><mask id="mask-12" x="24.69" y="10.72" width="14.17" height="0.56" maskUnits="userSpaceOnUse"><path class="cls-4" d="M24.69,11c0,.16.09.28.21.28H38.65c.11,0,.21-.13.21-.28h0c0-.16-.09-.28-.21-.28H24.89c-.11,0-.21.13-.21.28Z"/></mask><linearGradient id="linear-gradient-10" x1="32.19" y1="46.81" x2="45.33" y2="46.81" gradientUnits="userSpaceOnUse"><stop offset="0" stop-color="#cd2727"/><stop offset="1" stop-color="#b82625"/></linearGradient><linearGradient id="linear-gradient-11" x1="23.63" y1="46.13" x2="32.32" y2="46.13" gradientUnits="userSpaceOnUse"><stop offset="0" stop-color="#b82625"/><stop offset="0.06" stop-color="#bd2925"/><stop offset="0.42" stop-color="#d83924"/><stop offset="0.75" stop-color="#e84323"/><stop offset="1" stop-color="#ee4623"/></linearGradient><linearGradient id="linear-gradient-12" x1="33.15" y1="43.09" x2="35.53" y2="36.57" gradientUnits="userSpaceOnUse"><stop offset="0" stop-color="#b82625"/><stop offset="1" stop-color="#7e2518"/></linearGradient><linearGradient id="linear-gradient-13" x1="32.26" y1="36.94" x2="37.16" y2="36.94" gradientUnits="userSpaceOnUse"><stop offset="0.01" stop-color="#b82625"/><stop offset="0.36" stop-color="#ee4623"/><stop offset="0.69" stop-color="#b82625"/><stop offset="1" stop-color="#7e2518"/></linearGradient><linearGradient id="linear-gradient-14" x1="34.4" y1="36.43" x2="35.06" y2="34.63" xlink:href="#linear-gradient-12"/><linearGradient id="linear-gradient-15" x1="25.73" y1="38.15" x2="30.85" y2="38.15" xlink:href="#linear-gradient-13"/><linearGradient id="linear-gradient-16" x1="27.93" y1="37.62" x2="28.66" y2="35.64" xlink:href="#linear-gradient-12"/><linearGradient id="linear-gradient-17" x1="37.51" y1="38.92" x2="42.75" y2="38.92" xlink:href="#linear-gradient-13"/><linearGradient id="linear-gradient-18" x1="39.83" y1="38.38" x2="40.52" y2="36.48" xlink:href="#linear-gradient-12"/><linearGradient id="linear-gradient-19" x1="30.37" y1="40.07" x2="35.84" y2="40.07" xlink:href="#linear-gradient-13"/><linearGradient id="linear-gradient-20" x1="32.74" y1="39.51" x2="33.51" y2="37.41" xlink:href="#linear-gradient-12"/><linearGradient id="linear-gradient-21" x1="13.32" y1="46.51" x2="26.46" y2="46.51" gradientUnits="userSpaceOnUse"><stop offset="0" stop-color="#f5841f"/><stop offset="1" stop-color="#e97224"/></linearGradient><linearGradient id="linear-gradient-22" x1="4.76" y1="45.83" x2="13.44" y2="45.83" gradientUnits="userSpaceOnUse"><stop offset="0.01" stop-color="#e97224"/><stop offset="0.01" stop-color="#e97224"/><stop offset="0.3" stop-color="#f39817"/><stop offset="0.57" stop-color="#f9b30e"/><stop offset="0.82" stop-color="#fec308"/><stop offset="1" stop-color="#ffc906"/></linearGradient><linearGradient id="linear-gradient-23" x1="14.28" y1="42.79" x2="16.66" y2="36.27" gradientUnits="userSpaceOnUse"><stop offset="0" stop-color="#e97224"/><stop offset="1" stop-color="#a53b23"/></linearGradient><linearGradient id="linear-gradient-24" x1="13.38" y1="36.64" x2="18.29" y2="36.64" gradientUnits="userSpaceOnUse"><stop offset="0.01" stop-color="#e97224"/><stop offset="0.36" stop-color="#ffc906"/><stop offset="0.7" stop-color="#e97224"/><stop offset="1" stop-color="#a53b23"/></linearGradient><linearGradient id="linear-gradient-25" x1="15.53" y1="36.13" x2="16.19" y2="34.33" xlink:href="#linear-gradient-23"/><linearGradient id="linear-gradient-26" x1="6.86" y1="37.85" x2="11.98" y2="37.85" xlink:href="#linear-gradient-24"/><linearGradient id="linear-gradient-27" x1="9.06" y1="37.32" x2="9.79" y2="35.34" xlink:href="#linear-gradient-23"/><linearGradient id="linear-gradient-28" x1="18.64" y1="38.62" x2="23.87" y2="38.62" xlink:href="#linear-gradient-24"/><linearGradient id="linear-gradient-29" x1="20.95" y1="38.08" x2="21.65" y2="36.18" xlink:href="#linear-gradient-23"/><linearGradient id="linear-gradient-30" x1="11.5" y1="39.77" x2="16.97" y2="39.77" xlink:href="#linear-gradient-24"/><linearGradient id="linear-gradient-31" x1="13.87" y1="39.21" x2="14.64" y2="37.11" xlink:href="#linear-gradient-23"/></defs><title>active-blocks-jar</title><path class="cls-14" d="M8.2,71.52h2.73a2.55,2.55,0,0,1,1.71.52,1.66,1.66,0,0,1,.61,1.32q0,1.17-1.39,1.54A1.81,1.81,0,0,1,13,75.5a1.68,1.68,0,0,1,.43,1.13A1.62,1.62,0,0,1,12.77,78a2.64,2.64,0,0,1-1.71.51H8.2Zm1.17.89v2.06h1.45a1.37,1.37,0,0,0,.9-.27.93.93,0,0,0,.32-.76.94.94,0,0,0-.32-.76,1.35,1.35,0,0,0-.9-.27Zm0,5.17H11a1.4,1.4,0,0,0,.94-.29,1,1,0,0,0,.34-.81,1,1,0,0,0-.36-.82,1.43,1.43,0,0,0-1-.31H9.37Z"/><path class="cls-14" d="M14.69,78.47v-7.4h1.17v7.4Z"/><path class="cls-14" d="M19.87,78.56a2.8,2.8,0,0,1-2-.79,2.75,2.75,0,0,1-.8-2.06,2.71,2.71,0,0,1,.83-2.06,3.11,3.11,0,0,1,4.13,0,2.94,2.94,0,0,1,0,4.12A3,3,0,0,1,19.87,78.56Zm1.22-1.46a2.15,2.15,0,0,0,0-2.77,1.65,1.65,0,0,0-1.21-.5,1.6,1.6,0,0,0-1.19.5,1.9,1.9,0,0,0-.48,1.39,1.93,1.93,0,0,0,.47,1.39,1.56,1.56,0,0,0,1.18.5A1.69,1.69,0,0,0,21.09,77.1Z"/><path class="cls-14" d="M24.35,77.78a3.14,3.14,0,0,1,0-4.13,2.71,2.71,0,0,1,2-.78,2.89,2.89,0,0,1,1.7.47A2.33,2.33,0,0,1,29,74.7H27.7a1.29,1.29,0,0,0-1.35-.87,1.44,1.44,0,0,0-1.15.5,2.05,2.05,0,0,0-.43,1.38,2.08,2.08,0,0,0,.43,1.39,1.43,1.43,0,0,0,1.15.5,1.3,1.3,0,0,0,1.35-.87H29A2.46,2.46,0,0,1,28,78.06a2.79,2.79,0,0,1-1.69.5A2.7,2.7,0,0,1,24.35,77.78Z"/><path class="cls-14" d="M31.32,78.47H30.14v-7.4h1.17v4.3L33.38,73H35l-2.61,2.76L35,78.47H33.42l-2.1-2.37Z"/><path class="cls-14" d="M35.59,74.54a1.47,1.47,0,0,1,.61-1.19,2.48,2.48,0,0,1,1.59-.48,2.41,2.41,0,0,1,1.57.47A1.7,1.7,0,0,1,40,74.64h-1.2a.9.9,0,0,0-.29-.64,1.08,1.08,0,0,0-.74-.23A1.19,1.19,0,0,0,37,74a.65.65,0,0,0-.27.54.58.58,0,0,0,.34.53,2.69,2.69,0,0,0,.83.28q.49.09,1,.22a1.78,1.78,0,0,1,.83.47,1.26,1.26,0,0,1,.34.92,1.38,1.38,0,0,1-.62,1.17,2.66,2.66,0,0,1-1.6.45,2.56,2.56,0,0,1-1.58-.46,1.71,1.71,0,0,1-.67-1.31h1.21a.87.87,0,0,0,.31.64,1.15,1.15,0,0,0,.76.23,1.27,1.27,0,0,0,.76-.21.64.64,0,0,0,.28-.54.59.59,0,0,0-.34-.53,2.78,2.78,0,0,0-.83-.29l-1-.22a1.82,1.82,0,0,1-.83-.46A1.17,1.17,0,0,1,35.59,74.54Z"/><g class="cls-15"><path class="cls-16" d="M42.05,22.36a37.86,37.86,0,0,1-.64-5H6.58a37.86,37.86,0,0,1-.64,5C4.88,23.91,0,24.38,0,28.28V64.64a2,2,0,0,0,2.12,1.74H45.88A2,2,0,0,0,48,64.64V28.28C48,24.38,43.12,23.91,42.05,22.36Z"/></g><path class="cls-17" d="M40.36,22.36a37.88,37.88,0,0,1-.64-5H8.28a37.86,37.86,0,0,1-.64,5c-1.07,1.55-5.95,2-5.95,5.92V64.64a2,2,0,0,0,2.12,1.74H44.18a2,2,0,0,0,2.12-1.74V28.28C46.3,24.38,41.42,23.91,40.36,22.36Z"/><g class="cls-18"><path class="cls-19" d="M39.51,22.36C39.23,22,24,22.17,24,22.17v44.2H43.33a2,2,0,0,0,2.12-1.74V28.28C45.45,24.38,40.57,23.91,39.51,22.36Z"/></g><path class="cls-20" d="M41.41,17.7h0l0-.35H24v.35Z"/><g class="cls-21"><path class="cls-22" d="M44.3,62a2,2,0,0,1-2.12,1.74H35.26A2,2,0,0,1,33.13,62V28.54a2,2,0,0,1,2.12-1.74h6.92a2,2,0,0,1,2.12,1.74Z"/></g><path class="cls-23" d="M24,20.65H41.74c0-.21-.06-.42-.08-.64H24Z"/><path class="cls-24" d="M39.51,22.36a5.93,5.93,0,0,1-.29-1.45H33.91a6,6,0,0,0,.29,1.45c1.07,1.55,5.95,2,5.95,5.92V64.64A2,2,0,0,1,38,66.37h5.31a2,2,0,0,0,2.12-1.74V28.28C45.45,24.38,40.57,23.91,39.51,22.36Z"/><g class="cls-25"><path class="cls-22" d="M43.22,62c0,1-.45,1.74-1,1.74H38.92c-.56,0-1-.78-1-1.74V28.54c0-1,.45-1.74,1-1.74h3.29c.56,0,1,.78,1,1.74Z"/></g><g class="cls-7"><path class="cls-26" d="M47.95,62c0,1-1,3.47-2.34,3.47A179,179,0,0,0,24,64.3v2.07H45.66C47,66.37,48,65.6,48,64.64v-3A2,2,0,0,0,47.95,62Z"/></g><g class="cls-27"><path class="cls-28" d="M47.95,62c0,1-1,3.47-2.34,3.47A179,179,0,0,0,24,64.3v2.07H45.66C47,66.37,48,65.6,48,64.64v-3A2,2,0,0,0,47.95,62Z"/></g><path class="cls-29" d="M38.14,65.43A125.18,125.18,0,0,0,24,64.82v1.12H38.18C39.09,65.94,39.06,65.43,38.14,65.43Z"/><path class="cls-30" d="M24,18.16H41.48l0-.46H24Z"/><path class="cls-28" d="M42.17,18.14H24V20H42.17a.94.94,0,0,0,0-1.86Z"/><path class="cls-31" d="M41.64,18.16H24v1.58H41.64a.79.79,0,1,0,0-1.58Z"/><path class="cls-32" d="M40.39,18.42H24v1.26H40.39a.63.63,0,1,0,0-1.26Z"/><g class="cls-33"><path class="cls-22" d="M39.8,19c0-.18-.2-.32-.45-.32H25.52c-.25,0-.45.14-.45.32s.2.32.45.32H39.34C39.59,19.32,39.8,19.17,39.8,19Z"/></g><g class="cls-34"><path class="cls-19" d="M8.49,22.36C8.77,22,24,22.17,24,22.17v44.2H4.67a2,2,0,0,1-2.12-1.74V28.28C2.55,24.38,7.43,23.91,8.49,22.36Z"/></g><path class="cls-20" d="M6.59,17.7h0l0-.35H24v.35Z"/><path class="cls-35" d="M2.52,66.37c.18,1.24.63,2.11,1.15,2.11H44.33c.52,0,1-.88,1.15-2.11Z"/><path class="cls-36" d="M3.32,67a1.2,1.2,0,0,0,1.12.8H43.57a1.2,1.2,0,0,0,1.12-.8Z"/><path class="cls-23" d="M24,20.65H6.26c0-.21.06-.42.08-.64H24Z"/><g class="cls-7"><path class="cls-26" d="M.05,62c0,1,1,3.47,2.34,3.47A179,179,0,0,1,24,64.3v2.07H2.34C1,66.37,0,65.6,0,64.64v-3A2,2,0,0,1,.05,62Z"/></g><g class="cls-37"><path class="cls-28" d="M.05,62c0,1,1,3.47,2.34,3.47A179,179,0,0,1,24,64.3v2.07H2.34C1,66.37,0,65.6,0,64.64v-3A2,2,0,0,1,.05,62Z"/></g><path class="cls-29" d="M9.86,65.43A125.18,125.18,0,0,1,24,64.82v1.12H9.82C8.91,65.94,8.94,65.43,9.86,65.43Z"/><path class="cls-30" d="M24,18.16H6.52l0-.46H24Z"/><path class="cls-38" d="M2.52,66.37a2.4,2.4,0,0,0,.14.41H45.34a2.39,2.39,0,0,0,.14-.41Z"/><path class="cls-28" d="M5.83,18.14H24V20H5.83a.94.94,0,0,1,0-1.86Z"/><path class="cls-31" d="M6.36,18.16H24v1.58H6.36a.79.79,0,1,1,0-1.58Z"/><path class="cls-32" d="M7.61,18.42H24v1.26H7.61a.63.63,0,1,1,0-1.26Z"/><g class="cls-39"><path class="cls-40" d="M42,67.32c0-.12-.2-.22-.35-.22H27.82c-.36,0-.56.1-.56.22s.2.22.45.22H41.54C41.79,67.55,42,67.45,42,67.32Z"/></g><g class="cls-41"><path class="cls-22" d="M4.62,28.54c0-1,.58-1.74,1.3-1.74h4.25c.72,0,1.3.78,1.3,1.74V62c0,1-.58,1.74-1.3,1.74H5.92c-.72,0-1.3-.78-1.3-1.74Z"/></g><path class="cls-24" d="M20.89,22.56H11.71a4.94,4.94,0,0,0-1.44.91,5.72,5.72,0,0,0-1.22,1.25H20.76A19.84,19.84,0,0,1,20.89,22.56Z"/><path class="cls-20" d="M41.31,17.77h0l0-.35H23.9v.35Z"/><path class="cls-30" d="M23.9,18.24H41.38l0-.47H23.9Z"/><path class="cls-20" d="M6.49,17.77h0l0-.35H23.9v.35Z"/><path class="cls-30" d="M23.9,18.24H6.42l0-.47H23.9Z"/><g class="cls-42"><path class="cls-43" d="M21.46,13.55a.2.2,0,0,1-.21.18H7a.2.2,0,0,1-.21-.18h0A.2.2,0,0,1,7,13.37H21.25a.2.2,0,0,1,.21.18Z"/></g><path class="cls-44" d="M42.46,12.05H23.9v7H42.46a2.58,2.58,0,0,0,2.25-2.81v-1.4A2.58,2.58,0,0,0,42.46,12.05Z"/><path class="cls-44" d="M41.34,12.4H23.9v6.32H41.34a2.36,2.36,0,0,0,2.14-2.53V14.93A2.36,2.36,0,0,0,41.34,12.4Z"/><g class="cls-45"><path class="cls-46" d="M24.69,11c0,.16.09.28.21.28H38.65c.11,0,.21-.13.21-.28h0c0-.16-.09-.28-.21-.28H24.89c-.11,0-.21.13-.21.28Z"/></g><path class="cls-44" d="M5.34,12.05H23.9v7H5.34a2.58,2.58,0,0,1-2.25-2.81v-1.4A2.58,2.58,0,0,1,5.34,12.05Z"/><path class="cls-44" d="M6.46,12.4H23.9v6.32H6.46a2.36,2.36,0,0,1-2.14-2.53V14.93A2.36,2.36,0,0,1,6.46,12.4Z"/><path class="cls-47" d="M39.07,10.49H8.73c-1.08,0-1.95,1.53-1.95,3.41V15.6c0,1.88.87,3.41,1.95,3.41H39.07C40.14,19,41,17.49,41,15.6V13.9C41,12,40.14,10.49,39.07,10.49Z"/><polygon class="cls-48" points="44.78 50 23.8 48.37 23.91 48.69 32.19 53.99 44.54 50.41 44.78 50"/><polygon class="cls-49" points="45.33 40.13 44.78 50 32.19 53.49 32.32 42.79 45.33 40.13"/><polygon class="cls-50" points="32.32 42.79 32.19 53.49 23.8 48.37 23.63 38.76 32.32 42.79"/><polygon class="cls-51" points="45.33 40.13 32.32 42.79 23.63 38.76 35.91 36.72 45.33 40.13"/><path class="cls-52" d="M37.16,35.6l-.08,2.23A.22.22,0,0,1,37,38a.55.55,0,0,1-.15.12l-.25.11-.35.1a5.78,5.78,0,0,1-.84.11,8.63,8.63,0,0,1-.94,0,8.05,8.05,0,0,1-.91-.09,4.58,4.58,0,0,1-.77-.19l-.25-.1-.18-.11a.44.44,0,0,1-.1-.11.21.21,0,0,1,0-.11l0-2.23a.18.18,0,0,0,0,.1.42.42,0,0,0,.11.1l.18.1.25.1a5,5,0,0,0,.77.17,8.72,8.72,0,0,0,.92.09c.32,0,.64,0,.95,0a6.27,6.27,0,0,0,.85-.1l.35-.09.25-.1a.54.54,0,0,0,.15-.11A.19.19,0,0,0,37.16,35.6Z"/><path class="cls-53" d="M36.53,35.17a1.67,1.67,0,0,1,.49.22c.1.08.15.16.14.23s-.09.15-.22.22a2.28,2.28,0,0,1-.58.18,6.27,6.27,0,0,1-.85.1c-.31,0-.63,0-.95,0a8.72,8.72,0,0,1-.92-.09,5,5,0,0,1-.77-.17,1.41,1.41,0,0,1-.47-.23c-.09-.08-.12-.16-.09-.24a.46.46,0,0,1,.26-.22,2.56,2.56,0,0,1,.59-.17,6.53,6.53,0,0,1,.83-.09c.29,0,.6,0,.9,0s.6,0,.88.08A5.27,5.27,0,0,1,36.53,35.17Z"/><path class="cls-54" d="M30.85,36.66l0,2.33a.26.26,0,0,1-.06.16.66.66,0,0,1-.18.15,1.68,1.68,0,0,1-.3.13l-.41.11a6.37,6.37,0,0,1-.92.12,8.78,8.78,0,0,1-1,0,7.68,7.68,0,0,1-.95-.1,4.07,4.07,0,0,1-.77-.2l-.22-.1-.16-.11a.42.42,0,0,1-.09-.11.23.23,0,0,1,0-.11q0-1.17,0-2.34a.2.2,0,0,0,0,.1.4.4,0,0,0,.09.1l.16.1.22.1a4.35,4.35,0,0,0,.77.19,8.36,8.36,0,0,0,1,.1,9.63,9.63,0,0,0,1,0,7,7,0,0,0,.92-.11l.42-.11a1.74,1.74,0,0,0,.3-.12.64.64,0,0,0,.18-.14A.23.23,0,0,0,30.85,36.66Z"/><path class="cls-55" d="M30.29,36.23a1.33,1.33,0,0,1,.46.24.23.23,0,0,1,.09.26.54.54,0,0,1-.29.24,2.84,2.84,0,0,1-.66.2,7,7,0,0,1-.92.11,9.63,9.63,0,0,1-1,0,8.36,8.36,0,0,1-1-.1,4.35,4.35,0,0,1-.77-.19,1.1,1.1,0,0,1-.44-.25.2.2,0,0,1,0-.26.69.69,0,0,1,.33-.24,3.19,3.19,0,0,1,.67-.19,7.21,7.21,0,0,1,.9-.1c.31,0,.64,0,1,0a8.46,8.46,0,0,1,.91.09A4.67,4.67,0,0,1,30.29,36.23Z"/><path class="cls-56" d="M42.75,37.55l-.12,2.35a.25.25,0,0,1-.05.13.53.53,0,0,1-.14.13,1.27,1.27,0,0,1-.23.12l-.33.1a5.3,5.3,0,0,1-.87.13,8.67,8.67,0,0,1-2-.09,5.2,5.2,0,0,1-.84-.21l-.3-.13a1.23,1.23,0,0,1-.21-.13.53.53,0,0,1-.13-.14.25.25,0,0,1,0-.14h0l.08-2.35a.22.22,0,0,0,0,.13.51.51,0,0,0,.13.13l.22.13.31.12a5.62,5.62,0,0,0,.85.19,9.47,9.47,0,0,0,2,.09A5.76,5.76,0,0,0,42,38l.33-.09.23-.11a.52.52,0,0,0,.14-.12A.22.22,0,0,0,42.75,37.55Z"/><path class="cls-57" d="M42,37a2.12,2.12,0,0,1,.56.24c.13.09.19.18.19.26s-.06.17-.18.25A1.9,1.9,0,0,1,42,38a5.76,5.76,0,0,1-.87.12,9.47,9.47,0,0,1-2-.09,5.62,5.62,0,0,1-.85-.19,1.81,1.81,0,0,1-.54-.26c-.11-.09-.16-.18-.15-.26s.09-.17.23-.24a2.19,2.19,0,0,1,.59-.19,6,6,0,0,1,.85-.11,9.48,9.48,0,0,1,1.89.08A5.9,5.9,0,0,1,42,37Z"/><path class="cls-58" d="M35.84,38.53,35.75,41a.29.29,0,0,1-.06.16.65.65,0,0,1-.17.16,1.54,1.54,0,0,1-.28.14l-.39.12a5.9,5.9,0,0,1-.95.14,8.61,8.61,0,0,1-1.05,0,8,8,0,0,1-1-.11A4.59,4.59,0,0,1,31,41.4l-.27-.13a1.09,1.09,0,0,1-.19-.13A.51.51,0,0,1,30.4,41a.28.28,0,0,1,0-.14l0-2.47a.24.24,0,0,0,0,.13.49.49,0,0,0,.11.13l.19.13.28.12a4.93,4.93,0,0,0,.86.21,8.72,8.72,0,0,0,1,.11,9.46,9.46,0,0,0,1.06,0,6.4,6.4,0,0,0,1-.13l.4-.11a1.6,1.6,0,0,0,.28-.13.63.63,0,0,0,.17-.14A.26.26,0,0,0,35.84,38.53Z"/><path class="cls-59" d="M35.15,38a1.73,1.73,0,0,1,.54.27.31.31,0,0,1,.15.29.45.45,0,0,1-.25.28,2.42,2.42,0,0,1-.65.23,6.4,6.4,0,0,1-1,.13,9.46,9.46,0,0,1-1.06,0,8.72,8.72,0,0,1-1-.11,4.93,4.93,0,0,1-.86-.21,1.45,1.45,0,0,1-.51-.28.27.27,0,0,1-.09-.29.57.57,0,0,1,.3-.27,2.75,2.75,0,0,1,.67-.21,6.62,6.62,0,0,1,.93-.12,9.48,9.48,0,0,1,1,0,8.88,8.88,0,0,1,1,.1A5.29,5.29,0,0,1,35.15,38Z"/><polygon class="cls-60" points="25.91 49.7 4.92 48.07 5.04 48.39 13.32 53.69 25.67 50.11 25.91 49.7"/><polygon class="cls-61" points="26.46 39.84 25.91 49.7 13.32 53.19 13.45 42.49 26.46 39.84"/><polygon class="cls-62" points="13.45 42.49 13.32 53.19 4.92 48.07 4.76 38.47 13.45 42.49"/><polygon class="cls-63" points="26.46 39.84 13.45 42.49 4.76 38.47 17.04 36.42 26.46 39.84"/><path class="cls-64" d="M18.29,35.3l-.08,2.23a.22.22,0,0,1-.05.13.55.55,0,0,1-.15.12l-.25.11-.35.1a5.78,5.78,0,0,1-.84.11,8.6,8.6,0,0,1-.94,0,8,8,0,0,1-.91-.09,4.59,4.59,0,0,1-.77-.19l-.25-.11-.18-.11a.44.44,0,0,1-.1-.11.21.21,0,0,1,0-.11l0-2.23a.18.18,0,0,0,0,.1.42.42,0,0,0,.1.1l.18.1.25.1a5,5,0,0,0,.77.17,8.73,8.73,0,0,0,.92.09,9.4,9.4,0,0,0,.95,0,6.29,6.29,0,0,0,.85-.1l.35-.09.25-.1a.54.54,0,0,0,.15-.11A.19.19,0,0,0,18.29,35.3Z"/><path class="cls-65" d="M17.66,34.87a1.67,1.67,0,0,1,.49.22c.1.08.15.16.14.23s-.09.15-.22.22a2.27,2.27,0,0,1-.58.18,6.29,6.29,0,0,1-.85.1,9.4,9.4,0,0,1-.95,0,8.73,8.73,0,0,1-.92-.09,5,5,0,0,1-.77-.17,1.41,1.41,0,0,1-.47-.23c-.09-.08-.12-.16-.09-.24a.46.46,0,0,1,.26-.22,2.57,2.57,0,0,1,.59-.17,6.52,6.52,0,0,1,.83-.09c.29,0,.6,0,.9,0s.6,0,.88.08A5.29,5.29,0,0,1,17.66,34.87Z"/><path class="cls-66" d="M12,36.36l0,2.33a.26.26,0,0,1-.06.15.66.66,0,0,1-.18.15,1.68,1.68,0,0,1-.3.13l-.41.11a6.37,6.37,0,0,1-.92.12,8.79,8.79,0,0,1-1,0,7.67,7.67,0,0,1-.95-.1,4,4,0,0,1-.77-.2L7.14,39,7,38.87a.42.42,0,0,1-.09-.11.23.23,0,0,1,0-.11q0-1.17,0-2.34a.2.2,0,0,0,0,.1.4.4,0,0,0,.09.1l.16.1.22.1a4.35,4.35,0,0,0,.77.19,8.36,8.36,0,0,0,1,.1,9.62,9.62,0,0,0,1,0,7,7,0,0,0,.92-.11l.42-.11a1.75,1.75,0,0,0,.3-.12.65.65,0,0,0,.18-.14A.23.23,0,0,0,12,36.36Z"/><path class="cls-67" d="M11.42,35.93a1.33,1.33,0,0,1,.46.24.23.23,0,0,1,.09.26.54.54,0,0,1-.29.24,2.83,2.83,0,0,1-.66.2,7,7,0,0,1-.92.11,9.62,9.62,0,0,1-1,0,8.36,8.36,0,0,1-1-.1,4.35,4.35,0,0,1-.77-.19,1.11,1.11,0,0,1-.44-.25.2.2,0,0,1,0-.26A.69.69,0,0,1,7.22,36a3.19,3.19,0,0,1,.67-.19,7.19,7.19,0,0,1,.9-.1c.31,0,.64,0,1,0a8.44,8.44,0,0,1,.91.09A4.66,4.66,0,0,1,11.42,35.93Z"/><path class="cls-68" d="M23.87,37.25l-.12,2.35a.25.25,0,0,1-.05.13.53.53,0,0,1-.14.13,1.27,1.27,0,0,1-.23.12l-.33.1a5.3,5.3,0,0,1-.87.13,8.43,8.43,0,0,1-1,0,8.34,8.34,0,0,1-1-.1,5.18,5.18,0,0,1-.84-.21l-.3-.13a1.23,1.23,0,0,1-.21-.13.53.53,0,0,1-.13-.14.25.25,0,0,1,0-.14h0L18.73,37a.22.22,0,0,0,0,.13.51.51,0,0,0,.13.13l.22.13.31.12a5.6,5.6,0,0,0,.85.19,9.46,9.46,0,0,0,2,.09,5.74,5.74,0,0,0,.87-.12l.33-.09.23-.11a.52.52,0,0,0,.14-.12A.22.22,0,0,0,23.87,37.25Z"/><path class="cls-69" d="M23.12,36.73a2.13,2.13,0,0,1,.56.24c.13.09.19.18.19.26s-.06.17-.18.25a1.9,1.9,0,0,1-.57.21,5.74,5.74,0,0,1-.87.12,9.46,9.46,0,0,1-2-.09,5.6,5.6,0,0,1-.85-.19,1.81,1.81,0,0,1-.54-.26c-.11-.09-.16-.18-.15-.26s.09-.17.23-.24a2.19,2.19,0,0,1,.59-.19,6,6,0,0,1,.85-.11,9.48,9.48,0,0,1,1.89.08A5.9,5.9,0,0,1,23.12,36.73Z"/><path class="cls-70" d="M17,38.23l-.08,2.47a.29.29,0,0,1-.06.16.65.65,0,0,1-.17.16,1.53,1.53,0,0,1-.28.14l-.39.12a5.89,5.89,0,0,1-.95.14,8.62,8.62,0,0,1-1.05,0,8,8,0,0,1-1-.11,4.58,4.58,0,0,1-.85-.23L11.84,41a1.1,1.1,0,0,1-.19-.13.52.52,0,0,1-.11-.14.28.28,0,0,1,0-.14l0-2.47a.24.24,0,0,0,0,.13.49.49,0,0,0,.11.13l.19.13.28.12a4.93,4.93,0,0,0,.86.21,8.73,8.73,0,0,0,1,.11,9.46,9.46,0,0,0,1.06,0,6.41,6.41,0,0,0,1-.13l.4-.11a1.59,1.59,0,0,0,.28-.13.63.63,0,0,0,.17-.14A.26.26,0,0,0,17,38.23Z"/><path class="cls-71" d="M16.28,37.71a1.73,1.73,0,0,1,.54.27.31.31,0,0,1,.15.29.45.45,0,0,1-.25.28,2.42,2.42,0,0,1-.65.23,6.41,6.41,0,0,1-1,.13,9.46,9.46,0,0,1-1.06,0,8.73,8.73,0,0,1-1-.11,4.93,4.93,0,0,1-.86-.21,1.45,1.45,0,0,1-.51-.28.27.27,0,0,1-.09-.29.57.57,0,0,1,.3-.27,2.75,2.75,0,0,1,.67-.21,6.65,6.65,0,0,1,.93-.12,9.47,9.47,0,0,1,1,0,8.85,8.85,0,0,1,1,.1A5.29,5.29,0,0,1,16.28,37.71Z"/><path class="cls-14" d="M11.18,8.47V2.18h-.84V1.37H12.1v7.1Z"/><path class="cls-14" d="M14.56,1.86a2,2,0,0,1,.74-.5,3,3,0,0,1,1.14-.19,2.53,2.53,0,0,1,1.2.27,1.89,1.89,0,0,1,.8.79A5.58,5.58,0,0,1,19,4.81a4.49,4.49,0,0,1-.76,3,2.32,2.32,0,0,1-1.82.7q-2.19,0-2.52-2.49a10,10,0,0,1-.06-1.17,9.21,9.21,0,0,1,.07-1.16,4.48,4.48,0,0,1,.25-1A2.47,2.47,0,0,1,14.56,1.86Zm3.21,1a1.27,1.27,0,0,0-.51-.66A1.54,1.54,0,0,0,16.42,2a1.75,1.75,0,0,0-.8.16,1.31,1.31,0,0,0-.49.41,2,2,0,0,0-.28.64,4.25,4.25,0,0,0-.13.76q0,.37,0,.87t0,.87a4.24,4.24,0,0,0,.13.76,2,2,0,0,0,.28.65,1.31,1.31,0,0,0,.49.41,1.82,1.82,0,0,0,1.49,0,1.36,1.36,0,0,0,.49-.41,1.8,1.8,0,0,0,.27-.65A5.81,5.81,0,0,0,18,5,10.39,10.39,0,0,0,18,3.73,4,4,0,0,0,17.77,2.86Z"/><path class="cls-14" d="M20.62,5.2V4.42h4.11V5.2Z"/><path class="cls-14" d="M26.27,8.37V7.72L27,7.07l.79-.67.68-.61a7.7,7.7,0,0,0,.64-.65q.22-.26.46-.6a2.22,2.22,0,0,0,.44-1.26,1.47,1.47,0,0,0-.33-1,1.33,1.33,0,0,0-1-.38,1.39,1.39,0,0,0-1.1.43,1.74,1.74,0,0,0-.41,1.13h-.9A2.36,2.36,0,0,1,27,1.73a2.71,2.71,0,0,1,3.38,0A2,2,0,0,1,31,3.26a3.66,3.66,0,0,1-1.19,2.45q-.43.45-.67.66Q28.45,7,27.7,7.6h3.5v.77Z"/><path class="cls-14" d="M33.11,1.86a2,2,0,0,1,.74-.5A3,3,0,0,1,35,1.16a2.53,2.53,0,0,1,1.2.27,1.89,1.89,0,0,1,.8.79,5.58,5.58,0,0,1,.5,2.58,4.49,4.49,0,0,1-.76,3,2.32,2.32,0,0,1-1.82.7q-2.19,0-2.52-2.49a10,10,0,0,1-.06-1.17,9.21,9.21,0,0,1,.07-1.16,4.48,4.48,0,0,1,.25-1A2.47,2.47,0,0,1,33.11,1.86Zm3.21,1a1.27,1.27,0,0,0-.51-.66A1.54,1.54,0,0,0,35,2a1.75,1.75,0,0,0-.8.16,1.31,1.31,0,0,0-.49.41,2,2,0,0,0-.28.64,4.25,4.25,0,0,0-.13.76q0,.37,0,.87t0,.87a4.24,4.24,0,0,0,.13.76,2,2,0,0,0,.28.65,1.31,1.31,0,0,0,.49.41,1.82,1.82,0,0,0,1.49,0,1.36,1.36,0,0,0,.49-.41,1.8,1.8,0,0,0,.27-.65A5.81,5.81,0,0,0,36.59,5a10.39,10.39,0,0,0-.06-1.25A4,4,0,0,0,36.32,2.86Z"/></svg>