<?xml version="1.0" encoding="utf-8"?>
<svg version="1.1" id="Layer_1"  xmlns="http://www.w3.org/2000/svg"
	 x="0px" y="0px" viewBox="0 0 70 70" enable-background="new -0.5 -0.5 70 70" xml:space="preserve">
    <g id="block6">
<g id="Scene_1_f9">
    <g id="MovieClip_sprite_99_f6">
        <g id="MovieClip_sprite_38_6_">
            <path fill="#FF9900" d="M50.2,19.9H0V72h50.2V19.9 M19.6,40.1c1.6-1.6,3.4-2.3,5.6-2.4c2.2,0,4,0.8,5.6,2.4
					c1.6,1.6,2.4,3.5,2.4,5.9c0,2.3-0.8,4.1-2.4,5.8s-3.4,2.6-5.6,2.6s-4-0.8-5.6-2.6c-1.5-1.6-2.3-3.5-2.3-5.8
					C17.2,43.7,17.9,41.7,19.6,40.1"/>
            <path fill="#FF9900" d="M20.4,50.8c1.3,1.3,3,2,4.8,2c1.9,0,3.5-0.7,4.8-2s1.9-2.9,1.9-4.8c0-2-0.7-3.6-1.9-5
					c-1.3-1.3-2.8-2-4.8-2c-1.8,0-3.5,0.7-4.8,2s-1.9,2.9-1.9,5C18.5,47.9,19.1,49.5,20.4,50.8"/>
            <path fill="#FF9900" d="M69.4,27.4c-0.5,1.5-0.8,3.3-0.8,5.5s0.2,3.9,0.8,5.5c0.2,0.9,0.7,1.5,1,1.8h0.8l1-1.8
					c0.5-1.5,0.8-3.3,0.8-5.5s-0.2-4-0.8-5.5l-0.9-1.8h-1.1C69.9,25.9,69.6,26.6,69.4,27.4"/>
            <path fill="#FF9900" d="M68.2,26.9l0.5-1.2H68v-24L51.4,19.2v52.3l15.9-24.3v-7h1.6l-0.7-1.5c-0.7-1.6-0.9-3.5-0.9-5.9
					S67.6,28.6,68.2,26.9 M59.2,29.9L59,32.7V33l0.2,2.8c0.1,0.9,0.2,1.8,0.5,2.6l0.8,1.8h-1.4l-0.7-1.3c-0.5-1.6-0.8-3.5-0.8-5.8
					s0.2-4.3,0.8-6l0.4-0.9H60c-0.2,0.3-0.4,0.7-0.5,1.2C59.4,28,59.2,29,59.2,29.9"/>
            <path fill="#FF9900" d="M18.2,0.1L0.4,18.6h49.8L68.1,0H18.2 M39,6.5c1.6,0.8,2.4,1.8,2.4,2.8c0,1.2-0.8,2.1-2.4,2.9
					c-1.4,0.7-3.1,1.1-5,1.1s-3.6-0.4-5-1.1c-1.6-0.8-2.4-1.8-2.4-2.9c-0.1-1.2,0.7-2.1,2.4-2.8c1.4-0.7,3.1-1.1,5-1.1
					S37.6,5.8,39,6.5"/>
            <path fill="#FF9900" d="M38.5,7.5c-1.3-0.7-2.7-0.9-4.5-0.9s-3.2,0.3-4.5,0.9c-1,0.6-1.6,1.1-1.7,1.8c0,0.7,0.7,1.3,1.7,1.9
					c1.3,0.7,2.7,0.9,4.5,0.9c1.7,0,3.2-0.3,4.5-0.9c1-0.6,1.6-1.1,1.7-1.9C40,8.6,39.5,8,38.5,7.5"/>
        </g>
    </g>
</g>
</g>
</svg>