<?xml version="1.0" encoding="utf-8"?>
<svg version="1.1" id="Layer_1"  xmlns="http://www.w3.org/2000/svg"
	 x="0px" y="0px" viewBox="0 0 70 70" enable-background="new -0.5 -0.5 70 70" xml:space="preserve">
    <g id="block8">
<g id="Scene_1_f11">
    <g id="MovieClip_sprite_99_f8">
        <g id="MovieClip_sprite_38_8_">
            <path fill="#FFCC00" d="M50.2,19.7H0v52.1h50.2V19.7 M19.5,40c1.6-1.6,3.4-2.3,5.6-2.4c2.2,0,4,0.8,5.6,2.4
					c1.6,1.6,2.4,3.5,2.4,5.9c0,2.3-0.8,4.1-2.4,5.8c-1.6,1.6-3.4,2.6-5.6,2.6s-4-0.8-5.6-2.6c-1.6-1.6-2.4-3.5-2.4-5.8
					C17.3,43.6,17.9,41.5,19.5,40"/>
            <path fill="#FFCC00" d="M20.4,50.7c1.3,1.3,3,2,4.8,2c1.9,0,3.5-0.7,4.8-2s1.9-2.9,1.9-4.8c0-2-0.7-3.6-1.9-5
					c-1.3-1.3-2.8-2-4.8-2c-1.8,0-3.5,0.7-4.8,2s-1.9,2.9-1.9,5C18.5,47.7,19.1,49.3,20.4,50.7"/>
            <path fill="#FFCC00" d="M69.3,27.2c-0.5,1.5-0.8,3.3-0.8,5.5s0.2,3.9,0.8,5.5c0.2,0.9,0.7,1.5,1,1.8H71l1-1.8
					c0.5-1.5,0.8-3.3,0.8-5.5s-0.2-4-0.8-5.5l-0.8-1.8h-1C69.9,25.8,69.6,26.4,69.3,27.2"/>
            <path fill="#FFCC00" d="M68.2,26.8l0.5-1.2H68v-24L51.4,19v52.3L67.3,47v-7h1.6l-0.7-1.5c-0.7-1.6-0.9-3.5-0.9-5.9
					C67.3,30.3,67.6,28.4,68.2,26.8 M59.2,29.8L59,32.6v0.3l0.2,2.8c0.1,0.9,0.2,1.8,0.7,2.6l0.8,1.8h-1.4l-0.7-1.3
					c-0.5-1.6-0.8-3.5-0.8-5.8s0.2-4.3,0.8-6l0.4-0.9h1.3c-0.2,0.3-0.4,0.7-0.5,1.2C59.4,27.9,59.2,28.8,59.2,29.8"/>
            <path fill="#FFCC00" d="M18.1,0L0.2,18.6h49.9L68.1,0H18.1 M39,6.3c1.6,0.8,2.4,1.8,2.4,2.8c0,1.2-0.8,2.1-2.4,2.9
					c-1.4,0.7-3.1,1.1-5,1.1s-3.6-0.4-5-1.1c-1.6-0.8-2.4-1.8-2.4-2.9C26.5,8,27.3,7,29,6.3c1.4-0.7,3.1-1.1,5-1.1
					C36,5.2,37.6,5.6,39,6.3"/>
            <path fill="#FFCC00" d="M38.5,7.4c-1.3-0.7-2.7-0.9-4.4-0.9c-1.8,0-3.2,0.3-4.5,0.9c-1,0.6-1.6,1.1-1.7,1.8
					c0,0.7,0.7,1.3,1.7,1.9c1.3,0.7,2.7,0.9,4.5,0.9c1.7,0,3.2-0.3,4.4-0.9c1-0.6,1.6-1.1,1.7-1.9C40,8.5,39.5,7.9,38.5,7.4"/>
        </g>
    </g>
</g>
</g>
</svg>