<svg id="Layer_1" data-name="Layer 1" xmlns="http://www.w3.org/2000/svg" xmlns:xlink="http://www.w3.org/1999/xlink" viewBox="0 0 62.65 62.65"><defs><style>.cls-1{fill:#73adff;}.cls-2{fill:#808184;}.cls-3{fill:url(#linear-gradient);}.cls-4{fill:#d4cedb;}.cls-5{fill:#000009;}.cls-6{fill:#bcdef7;}.cls-7{fill:url(#linear-gradient-2);}.cls-8,.cls-9{opacity:0.5;}.cls-8{fill:url(#linear-gradient-3);}.cls-9{fill:url(#linear-gradient-4);}.cls-10{fill:#70a8a8;}.cls-11{fill:#5f5e01;}.cls-12{fill:#fff;}.cls-13{fill:#fc0;}.cls-14{fill:#595801;}.cls-15{fill:#f90;}.cls-16{fill:#747401;}.cls-17{fill:#3f3f01;}.cls-18{fill:#416967;}.cls-19{fill:#458787;}.cls-20{fill:#e8e802;}.cls-21{fill:#737201;}.cls-22{fill:#b8b801;}.cls-23{fill:#330;}.cls-24{fill:#89992f;}.cls-25{fill:#542e00;}.cls-26{fill:#3b0b00;}.cls-27{fill:#ffbf00;}</style><linearGradient id="linear-gradient" x1="9.33" y1="53.32" x2="52.39" y2="10.26" gradientUnits="userSpaceOnUse"><stop offset="0" stop-color="#babcbf" stop-opacity="0"/><stop offset="1" stop-color="#b8bcc1"/></linearGradient><linearGradient id="linear-gradient-2" x1="31.33" y1="4.07" x2="31.33" y2="52.18" gradientUnits="userSpaceOnUse"><stop offset="0" stop-color="#89b8e4" stop-opacity="0"/><stop offset="1" stop-color="#a0c3e4"/></linearGradient><linearGradient id="linear-gradient-3" x1="28.65" y1="28.74" x2="12.07" y2="10.57" gradientUnits="userSpaceOnUse"><stop offset="0" stop-color="#e2f3ff" stop-opacity="0.1"/><stop offset="1" stop-color="#e2f3ff"/></linearGradient><linearGradient id="linear-gradient-4" x1="36.51" y1="36.51" x2="59.07" y2="59.07" xlink:href="#linear-gradient-3"/></defs><title>dragon-icon</title><path class="cls-1" d="M31.33,58.35a27,27,0,1,1,27-27A27.05,27.05,0,0,1,31.33,58.35Z"/><path class="cls-2" d="M31.33,62.65A31.33,31.33,0,1,1,62.65,31.33,31.36,31.36,0,0,1,31.33,62.65Z"/><path class="cls-3" d="M31.33,62.65A31.33,31.33,0,1,1,62.65,31.33,31.36,31.36,0,0,1,31.33,62.65Z"/><path class="cls-4" d="M31.33,59.78A28.46,28.46,0,1,1,59.78,31.33,28.49,28.49,0,0,1,31.33,59.78Z"/><path class="cls-5" d="M31.33,59.3a28,28,0,1,1,28-28A28,28,0,0,1,31.33,59.3Z"/><path class="cls-6" d="M31.33,58.59A27.26,27.26,0,1,1,58.59,31.33,27.29,27.29,0,0,1,31.33,58.59Z"/><circle class="cls-7" cx="31.33" cy="31.33" r="26.78"/><path class="cls-8" d="M30.14,28.55V7.2A24.16,24.16,0,0,0,7.33,28.55Z"/><path class="cls-9" d="M47.17,13.09A24.15,24.15,0,0,1,13.09,47.17,24.15,24.15,0,1,0,47.17,13.09Z"/><path class="cls-10" d="M43.87,23.92A.28.28,0,0,0,44,24a9.74,9.74,0,0,0,1.59-.06c.18,0,.16-.14.16-.29-.38-3.51-5.55-2.26-5.55-2.26a2.34,2.34,0,0,1,1.68.45,5.8,5.8,0,0,1,1.3,1.2q.22.26.41.54A1.79,1.79,0,0,0,43.87,23.92Z"/><path class="cls-11" d="M44.49,24.09H44a.38.38,0,0,1-.23-.09h0a.85.85,0,0,1-.18-.24l-.08-.13c-.13-.18-.27-.36-.41-.53a5.66,5.66,0,0,0-1.27-1.18,2.37,2.37,0,0,0-1.58-.44h0l0-.18c.12,0,3-.7,4.61.44a2.54,2.54,0,0,1,1.06,1.9v0c0,.13,0,.32-.24.35A9.83,9.83,0,0,1,44.49,24.09Zm-.56-.24a.19.19,0,0,0,.12,0,9.67,9.67,0,0,0,1.58-.06c.07,0,.08,0,.07-.16v0a2.35,2.35,0,0,0-1-1.76,5.55,5.55,0,0,0-3.63-.55,3.43,3.43,0,0,1,.89.42A5.85,5.85,0,0,1,43.29,23c.14.17.28.36.42.55l.09.14a.71.71,0,0,0,.14.19Z"/><path class="cls-12" d="M44.34,43.36s.6.09-1.13,1.54a4.09,4.09,0,0,1-.88-1.79Z"/><path class="cls-11" d="M43.2,45l0,0a4.09,4.09,0,0,1-.89-1.8v-.05h.05l2,.25a.16.16,0,0,1,.12.11c.07.25-.35.75-1.23,1.49Zm-.83-1.79a4.22,4.22,0,0,0,.83,1.69c1.14-1,1.21-1.29,1.18-1.39a.08.08,0,0,0-.06-.06Z"/><path class="cls-12" d="M41.89,43.05s.13,1-1.85,1.69a7.07,7.07,0,0,0,0-2.16S41.76,42.71,41.89,43.05Z"/><path class="cls-11" d="M40,44.8v-.06a6.53,6.53,0,0,0,0-2.14l0-.06H40c.18,0,1.75.14,1.88.49h0s.11,1-1.87,1.73Zm.11-2.18a7.55,7.55,0,0,1,0,2.06,3,3,0,0,0,1.59-1.06,1,1,0,0,0,.18-.57C41.75,42.81,40.61,42.66,40.1,42.62Z"/><path class="cls-12" d="M39.29,42.61a2.7,2.7,0,0,1-1.41,2.32s-.91-.13-1.76-2.32Z"/><path class="cls-11" d="M37.88,45h0s-.94-.15-1.79-2.34l0-.05h3.26v0A2.77,2.77,0,0,1,37.9,45Zm-1.71-2.32c.77,2,1.59,2.22,1.69,2.24a2.69,2.69,0,0,0,1.38-2.24Z"/><path class="cls-12" d="M35.81,42.74a4.46,4.46,0,0,1-1.35,3.17,3.34,3.34,0,0,1-2.23-3Z"/><path class="cls-11" d="M34.47,45.95h0a3.4,3.4,0,0,1-2.25-3v0h0l3.61-.16v0a4.53,4.53,0,0,1-1.36,3.2Zm-2.2-3a3.31,3.31,0,0,0,2.18,2.93,4.44,4.44,0,0,0,1.32-3.08Z"/><path class="cls-12" d="M31.89,43.61a3.59,3.59,0,0,1-.56,2.82A4,4,0,0,1,28,44.93S31.26,42.92,31.89,43.61Z"/><path class="cls-11" d="M31.12,46.48A4.08,4.08,0,0,1,27.94,45l0,0,0,0c.14-.08,3.32-2,4-1.31h0a3.67,3.67,0,0,1-.57,2.85v0h-.23ZM28,44.94A4,4,0,0,0,31.3,46.4a3.62,3.62,0,0,0,.55-2.77c-.25-.26-1-.12-2.15.41C28.93,44.41,28.2,44.84,28,44.94Z"/><path class="cls-12" d="M28.94,44.55a6.2,6.2,0,0,1-.63,3s-.47.16-.53-.16A4.62,4.62,0,0,1,26,45.18S28.53,43.52,28.94,44.55Z"/><path class="cls-11" d="M28.07,47.67a.41.41,0,0,1-.2,0,.25.25,0,0,1-.12-.16,4.71,4.71,0,0,1-1.82-2.27v0l0,0c.08,0,1.87-1.2,2.69-.93a.53.53,0,0,1,.35.32h0a6.29,6.29,0,0,1-.63,3.06h0A.89.89,0,0,1,28.07,47.67ZM26,45.2a4.63,4.63,0,0,0,1.79,2.21h0v0a.18.18,0,0,0,.09.13.57.57,0,0,0,.38,0,6.2,6.2,0,0,0,.62-3,.45.45,0,0,0-.3-.27C27.87,44.05,26.23,45.06,26,45.2Z"/><path class="cls-12" d="M25.68,46a3.41,3.41,0,0,1,0,1.88s-.63.28-1.63-1.35C24.05,46.53,25.59,45.6,25.68,46Z"/><path class="cls-11" d="M25.56,47.94c-.24,0-.79-.17-1.54-1.39l0,0,0,0c.13-.08,1.27-.75,1.6-.62a.15.15,0,0,1,.09.1,3.43,3.43,0,0,1,0,1.9v0h0A.35.35,0,0,1,25.56,47.94ZM24.1,46.54c.87,1.4,1.45,1.33,1.55,1.31a3.4,3.4,0,0,0,0-1.84h0a.07.07,0,0,0,0-.05C25.36,45.85,24.47,46.33,24.1,46.54Z"/><path class="cls-12" d="M24,46.81a4.58,4.58,0,0,1,.16,1.69,3,3,0,0,1-2.19-.69S23.46,46.34,24,46.81Z"/><path class="cls-11" d="M23.88,48.55a2.7,2.7,0,0,1-2-.71l0,0,0,0c.06-.06,1.57-1.49,2.09-1h0a4.58,4.58,0,0,1,.16,1.71v0h-.27ZM22,47.82a2.9,2.9,0,0,0,2.11.65,4.68,4.68,0,0,0-.15-1.64c-.24-.21-.76.06-1.15.33A7.72,7.72,0,0,0,22,47.82Z"/><path class="cls-13" d="M44.59,43.27S30.07,40.67,20,49.76l-.82-2s1,4.26-1.32,4.89c0,0-3.26,2.82-3.76-2.38,0,0,.13-5.93.69-7.23,0,0,2.32-3,2.19-5Z"/><path class="cls-14" d="M16.11,53.5a1.54,1.54,0,0,1-.58-.11c-.82-.33-1.31-1.38-1.48-3.12,0-.25.13-6,.7-7.27v0s2.3-3,2.17-4.89V38l27.68,5.21,0,.18c-.15,0-14.59-2.48-24.48,6.47l-.1.09-.54-1.32c.16,1.3.21,3.65-1.51,4.13A3.28,3.28,0,0,1,16.11,53.5ZM14.92,43.08c-.55,1.29-.68,7.12-.68,7.18.16,1.66.62,2.66,1.36,3,1,.4,2.23-.64,2.24-.65l0,0c2.21-.6,1.26-4.74,1.25-4.78l.18-.06.76,1.88c7.54-6.76,17.67-7,22.19-6.68L17.13,38.19C17.16,40.15,15.08,42.87,14.92,43.08Z"/><path class="cls-15" d="M23.17,42a6.49,6.49,0,0,0-3.58,3.58s2.92-3.58,4-3.08Z"/><path class="cls-11" d="M19.25,46.1l.26-.61a6.65,6.65,0,0,1,3.64-3.63l.06,0,.65.86-.35-.17c-.8-.39-3,2.07-3.84,3.05Zm3.89-4A6.45,6.45,0,0,0,20,44.91c.81-.93,2.4-2.59,3.32-2.59Z"/><path class="cls-15" d="M27.74,42.42s-5.23,1.59-7.45,4.3c0,0,7.17-4.4,8.51-4Z"/><path class="cls-11" d="M19.86,47.09l.35-.43c2.21-2.7,7.44-4.32,7.5-4.33h0l1.07.28h0l0,.18h0c-1.06-.26-6,2.51-8.42,4Zm7.88-4.58c-.37.12-4.68,1.51-7,3.79,1.5-.89,5.61-3.29,7.41-3.67Z"/><path class="cls-15" d="M34.06,42.69s-7.34,1-11.29,3.62c0,0,9.64-3.53,11.57-3.2S34.06,42.69,34.06,42.69Z"/><path class="cls-11" d="M22,46.68l.68-.45C26.64,43.66,34,42.61,34,42.6h0c1.18.4,1.15.51,1.13.59s-.12.15-.9,0c-1.89-.32-11.42,3.16-11.52,3.19Zm12-3.89c-.42.06-6.51,1-10.4,3.11,2.47-.87,9.11-3.15,10.7-2.87l.49.07C34.64,43,34.33,42.88,34,42.79Z"/><path class="cls-10" d="M10.65,22.45s-.88-2.39-2.73-2.35c0,0,2.74-1,4.17.38Z"/><path class="cls-11" d="M10.62,22.65l-.06-.16S9.7,20.19,8,20.19H7.37L7.89,20c.11,0,2.81-1,4.27.4l.06.06ZM8.41,20a3.69,3.69,0,0,1,2.26,2.21L12,20.49C10.93,19.54,9.22,19.84,8.41,20Z"/><path class="cls-10" d="M11.93,20.77s-.19-3.34-.89-4.47c0,0-.26-.42.45-.31A4.78,4.78,0,0,1,15,18.66Z"/><path class="cls-11" d="M11.85,20.95v-.17s-.19-3.33-.88-4.42a.34.34,0,0,1,0-.34c.08-.12.27-.16.56-.11a4.92,4.92,0,0,1,3.62,2.7l0,.07Zm-.58-4.87c-.13,0-.17,0-.17,0s0,.11,0,.14c.63,1,.85,3.65.9,4.35l2.9-2a4.7,4.7,0,0,0-3.43-2.53Z"/><path class="cls-10" d="M15.37,18.28A10.61,10.61,0,0,1,14,11.51s.31-.89,1.08,0c0,0,3.69,3.83,5.36,4.37Z"/><path class="cls-11" d="M15.33,18.4l0-.07a10.8,10.8,0,0,1-1.43-6.84s.14-.41.46-.47.5.09.79.42c0,0,3.69,3.82,5.32,4.35l.22.07Zm-.92-7.2h-.05c-.21,0-.31.33-.31.33a10.58,10.58,0,0,0,1.36,6.62l4.76-2.27c-1.74-.75-5-4.17-5.19-4.32A.86.86,0,0,0,14.41,11.21Z"/><path class="cls-10" d="M20.77,15.73s.86-5.06.68-5.93c0,0,.07-1,.85-.29A9.9,9.9,0,0,1,25,14.26Z"/><path class="cls-11" d="M20.65,15.87l0-.16c0-.05.86-5.05.68-5.9h0c0-.05,0-.5.33-.61s.41,0,.68.26a10.08,10.08,0,0,1,2.76,4.81l0,.08Zm.89-6.08a38,38,0,0,1-.65,5.8l4-1.39a9.93,9.93,0,0,0-2.68-4.63c-.2-.19-.37-.26-.48-.22S21.55,9.68,21.55,9.79Z"/><path class="cls-16" d="M40.24,21.39a4,4,0,0,0-4.56-2.82s-12.32.8-13.54,13.21c0,0-4.89,2.87-2.82,7.43,0,0,.56,3,5.41,3.39,0,0,23.56.24,25.16,1.27,0,0,4.58,0,4.83-1.32,0,0,3.32-1.69-1-6.46,0,0-1-1.57-1.5-5.89,0,0-1.44-7.34-8.34-6.27C43.87,23.93,42.2,21.1,40.24,21.39Z"/><path class="cls-16" d="M40.24,21.39a4,4,0,0,0-4.56-2.82s-12.32.8-13.54,13.21c0,0-4.89,2.87-2.82,7.43,0,0,.56,3,5.41,3.39,0,0,23.56.24,25.16,1.27,0,0,4.58,0,4.83-1.32,0,0,3.32-1.69-1-6.46,0,0-1-1.57-1.5-5.89,0,0-1.44-7.34-8.34-6.27C43.87,23.93,42.2,21.1,40.24,21.39Z"/><path class="cls-11" d="M49.88,44h0l0,0c-1.56-1-24.87-1.25-25.11-1.25a6.84,6.84,0,0,1-4.59-1.88,3.5,3.5,0,0,1-.91-1.58c-2-4.34,2.35-7.21,2.83-7.5a13.77,13.77,0,0,1,7.27-11.29,17.31,17.31,0,0,1,6.35-2,4.13,4.13,0,0,1,3.75,1.28,4.4,4.4,0,0,1,.89,1.53c1.84-.19,3.35,2.14,3.6,2.54,6.86-1,8.37,6.28,8.38,6.35.49,4.26,1.48,5.85,1.49,5.86,1.7,1.87,2.44,3.5,2.19,4.85a2.54,2.54,0,0,1-1.19,1.72C54.45,43.94,50.07,44,49.88,44ZM36.34,18.62a5.74,5.74,0,0,0-.65,0,17.11,17.11,0,0,0-6.29,1.94,13.6,13.6,0,0,0-7.18,11.19v0l0,0a8.33,8.33,0,0,0-2.16,2,5,5,0,0,0-.62,5.33s.62,2.92,5.33,3.33c1,0,23.38.24,25.18,1.27,1.27,0,4.52-.23,4.71-1.24v0l0,0a2.38,2.38,0,0,0,1.13-1.61c.23-1.28-.49-2.86-2.16-4.7-.05-.08-1-1.65-1.53-5.95,0-.07-1.5-7.23-8.23-6.19h-.06l0-.05s-1.65-2.76-3.53-2.49h-.08l0-.08a4.19,4.19,0,0,0-.87-1.54A3.77,3.77,0,0,0,36.34,18.62Z"/><path class="cls-17" d="M6.75,28.75s0,.13,0,.38c0,1.6.29,8,8.18,13.54,0,0,2.95-1.38,2.88-7.84,0,0,1.07-3.82,3.82-3.32A31.08,31.08,0,0,1,25,24.9s-4.61-4.3-13.14,1.16a2.93,2.93,0,0,0-1.38.5S8.31,29.82,6.75,28.75Z"/><path class="cls-11" d="M14.89,42.78l0,0C7,37.23,6.57,30.93,6.63,29.13c0-.25,0-.38,0-.39l0-.15.13.09a1.15,1.15,0,0,0,.89.17c1.32-.25,2.72-2.32,2.74-2.34l0,0A3,3,0,0,1,11.86,26c2.45-1.56,6.13-3.28,9.82-2.62a7,7,0,0,1,3.42,1.49l.06.06L25.1,25a31.17,31.17,0,0,0-3.41,6.59l0,.07h-.08c-2.57-.47-3.64,3-3.71,3.24.06,6.43-2.82,7.85-2.94,7.91ZM6.83,28.91c0,.06,0,.13,0,.22-.05,1.77.37,8,8.09,13.43.37-.21,2.84-1.86,2.78-7.73h0s1.1-3.83,3.86-3.4a31.16,31.16,0,0,1,3.35-6.49c-.59-.48-5.14-3.78-13,1.22h0a2.87,2.87,0,0,0-1.32.47c-.13.19-1.5,2.15-2.85,2.41A1.34,1.34,0,0,1,6.83,28.91Z"/><path class="cls-12" d="M12.6,35.11c1.87.13,3.11.31,4.85-.56l.53-.26a5,5,0,0,1,2-2.53,33.87,33.87,0,0,0-6-.38,14.66,14.66,0,0,0-3.88.71A23.53,23.53,0,0,0,7.44,33.4a15.85,15.85,0,0,0,1.65,3.38A4.13,4.13,0,0,1,12.6,35.11Z"/><path class="cls-18" d="M10.26,26.94s-1.63-4.58,3.45-7.84c0,0,13.79-10.41,23.14-.88,0,0,7.09,4.08-1.32,7.84,0,0-11,.31-12-1.19S10.26,26.94,10.26,26.94Z"/><path class="cls-11" d="M10.2,27.05l0-.08S8.57,22.28,13.65,19a29.29,29.29,0,0,1,8.09-4C26,13.7,32,13.2,36.9,18.14c.23.13,2.93,1.76,2.82,3.93-.08,1.49-1.48,2.86-4.16,4.06h0c-.45,0-11.1.3-12.12-1.23C22.62,23.73,13.67,26,10.28,27ZM27.25,14.31a18.81,18.81,0,0,0-5.45.87,29.1,29.1,0,0,0-8,4c-4.58,2.94-3.63,7-3.44,7.65,1.2-.35,12.25-3.5,13.25-2C24.33,26,31.7,26.07,35.5,26c2.6-1.17,4-2.48,4-3.89.11-2.11-2.71-3.75-2.74-3.77l0,0A12.9,12.9,0,0,0,27.25,14.31Z"/><path class="cls-10" d="M26.25,14.44s6.72-.72,11.13,4.4c0,0-18.62,3.9-22,.38C15.41,19.22,25.31,16.51,26.25,14.44Z"/><path class="cls-11" d="M22,20.8c-3,0-5.57-.39-6.64-1.51l-.11-.11.15,0c.1,0,9.86-2.72,10.77-4.73l0,0h.05c.07,0,6.83-.67,11.21,4.44l.1.12-.16,0A90.8,90.8,0,0,1,22,20.8ZM15.6,19.27c3.38,3.09,19.81-.12,21.6-.48-4.12-4.67-10.27-4.31-10.89-4.26C25.29,16.49,16.9,18.9,15.6,19.27Z"/><path class="cls-11" d="M26.53,31.9A49.24,49.24,0,0,0,33,33.22a27.38,27.38,0,0,0,3.71,0c1-.06,2.63.09,3.48-.56l0,0a2.44,2.44,0,0,1,.41-.49c.64-1.13.16-3.06,0-4.35a1.35,1.35,0,0,1,0-.18l0-.18a1.18,1.18,0,0,1,.25-.9l.13-.36A1.34,1.34,0,0,1,41,26a1.22,1.22,0,0,1-.11-.15,2.21,2.21,0,0,1-.16-.29,3.74,3.74,0,0,1-.22-.52,1.25,1.25,0,0,1-.07-.35,2.61,2.61,0,0,1-.47-.4,1.56,1.56,0,0,1-.19-.26,15.2,15.2,0,0,1-5.22,0c-.93.18-1.85.38-2.78.6a11.48,11.48,0,0,0-3,1,8.8,8.8,0,0,1-.82.41c-1.56.75-3.36,1.16-4.65,2.33h0a1.17,1.17,0,0,1-.64.44,16.93,16.93,0,0,0-.51,2.74A8.44,8.44,0,0,1,26.53,31.9Z"/><path class="cls-19" d="M40.15,21.72s0-.05,0-.14c-.21-.79-1.54-4.48-7.4-2.21,0,0-5.27,2.07-7.2,4.23,0,0-1.36,1.41.42,1.46,0,0,12.27-1.5,13.87-.71,0,0,2-.33,2.23-1.05C42,23.3,42.64,22,40.15,21.72Z"/><path class="cls-11" d="M26,25.15c-.55,0-.88-.15-1-.42-.2-.48.46-1.17.49-1.2,1.92-2.15,7-4.17,7.23-4.25,2.27-.88,4.12-1,5.49-.28a4.1,4.1,0,0,1,2,2.55l0,.08a2.3,2.3,0,0,1,1.84.83,1,1,0,0,1,.06.88c-.26.76-2.21,1.09-2.3,1.1h-.06C38.22,23.66,26.08,25.13,26,25.15Zm10.13-6.42a9.36,9.36,0,0,0-3.33.73c-.05,0-5.27,2.09-7.16,4.21-.17.18-.58.69-.45,1s.35.29.81.3,12.17-1.48,13.88-.71c.55-.1,1.94-.45,2.12-1a.83.83,0,0,0-.05-.72,2.23,2.23,0,0,0-1.76-.74h-.07v-.07s0-.05,0-.14a3.91,3.91,0,0,0-1.93-2.43A4.39,4.39,0,0,0,36.08,18.73Z"/><path class="cls-10" d="M28.39,33.27a.88.88,0,0,1-.26-.27,2.39,2.39,0,0,1-.4-.94.4.4,0,0,0-.05-.19.3.3,0,0,0-.09-.08,2.93,2.93,0,0,0-1.12-.3c-.65-.1-1.3-.24-2-.3a4.12,4.12,0,0,0-1.95.22,1,1,0,0,0-.43.32.48.48,0,0,1-.07.08,1.77,1.77,0,0,1-.2.13,8.42,8.42,0,0,0-.7.54,7.47,7.47,0,0,0-1.73,2.08,5,5,0,0,0-.56,3.27,5.78,5.78,0,0,0,.43,1.37s.56,3,5.41,3.39c0,0,3.43,0,7.76.13l0-.08-.06,0a.59.59,0,0,0,.1-.17,4.89,4.89,0,0,0,.23-.49,5.74,5.74,0,0,0,.4-1.76,5.63,5.63,0,0,0-.41-2.49,7.87,7.87,0,0,0-2.1-2.85,12.63,12.63,0,0,0-1.22-1l-.72-.47C28.62,33.41,28.5,33.35,28.39,33.27Z"/><path class="cls-11" d="M32.55,42.82h-.07c-4.28-.1-7.72-.13-7.75-.13a6.84,6.84,0,0,1-4.59-1.88,3.5,3.5,0,0,1-.91-1.58,5.71,5.71,0,0,1-.43-1.37,5.06,5.06,0,0,1,.57-3.33,7.53,7.53,0,0,1,1.75-2.11,8.53,8.53,0,0,1,.71-.55l.08,0,.11-.08,0,0,0,0a1.05,1.05,0,0,1,.47-.35,4.15,4.15,0,0,1,2-.23c.41,0,.82.11,1.22.18l.74.12h.1a2.72,2.72,0,0,1,1,.3.4.4,0,0,1,.12.1.43.43,0,0,1,.07.22,2.33,2.33,0,0,0,.39.92.78.78,0,0,0,.23.24h0l.21.13.14.08.73.48a12.75,12.75,0,0,1,1.22,1,7.93,7.93,0,0,1,2.12,2.88,5.72,5.72,0,0,1,0,4.32,5,5,0,0,1-.21.46h0l-.09.22,0,0ZM24,31.26a3.53,3.53,0,0,0-1.35.24.86.86,0,0,0-.39.29l0,0-.06.07A.83.83,0,0,1,22,32l-.07,0a8.33,8.33,0,0,0-.69.53,7.35,7.35,0,0,0-1.71,2.06,4.87,4.87,0,0,0-.55,3.2,5.7,5.7,0,0,0,.43,1.34s.62,2.92,5.33,3.33c0,0,3.44,0,7.68.13h0l0,0h0a.43.43,0,0,0,0-.09l0-.05a4.75,4.75,0,0,0,.22-.48,5.62,5.62,0,0,0,.4-1.73,5.57,5.57,0,0,0-.4-2.45A7.74,7.74,0,0,0,30.62,35,12.57,12.57,0,0,0,29.41,34l-.72-.47-.14-.08-.23-.14a1,1,0,0,1-.29-.3,2.47,2.47,0,0,1-.41-1v0a.28.28,0,0,0,0-.13l-.07-.05a2.58,2.58,0,0,0-1-.27h-.1l-.74-.12c-.39-.07-.8-.14-1.21-.18Z"/><path class="cls-20" d="M55.7,41.3c-.28.39-1.67,1.45-8-1.42,0,0-8.28-3.1-12.78-4.34,0,0-3.34.06-.61,1.51,0,0,9.41,4,10,6.06h-.21l.07.05c3,.18,5.27.41,5.73.71,0,0,4.58,0,4.83-1.32a2.45,2.45,0,0,0,1-1.22Z"/><path class="cls-11" d="M49.88,44h0l0,0c-.27-.18-1.48-.44-5.69-.69h0l0,0L44,43.18,43.75,43h.4c-.93-2-9.82-5.84-9.92-5.88-.84-.45-1.19-.8-1.12-1.11.13-.53,1.49-.57,1.77-.58h0c4.45,1.23,12.7,4.31,12.78,4.34,1.14.51,6.85,3,7.93,1.45l0-.06.07,0h0l.12,0,0,.09a2.56,2.56,0,0,1-1.05,1.25C54.45,43.94,50.07,44,49.88,44Zm-5.51-.88c3.26.2,5.07.43,5.53.69,1.27,0,4.52-.23,4.71-1.24v0l0,0a2.37,2.37,0,0,0,.85-.86c-.68.46-2.58.76-7.9-1.63-.08,0-8.3-3.11-12.75-4.33-.62,0-1.51.15-1.57.43,0,.09,0,.37,1,.9C34.69,37.13,43.74,41,44.38,43.08Z"/><path class="cls-11" d="M19.32,39.21a5.78,5.78,0,0,1-.43-1.37,5,5,0,0,1,.56-3.27,7.47,7.47,0,0,1,1.73-2.08,8.41,8.41,0,0,1,.7-.54,1.77,1.77,0,0,0,.2-.13.48.48,0,0,0,.07-.08.93.93,0,0,1,.37-.29,1.72,1.72,0,0,0-.28-.79l-.48.14c-.1.45-.15.72-.15.72-2.76-.5-3.82,3.32-3.82,3.32a13.58,13.58,0,0,1-.77,5c.26,1,.75,2.06,1.6,2a2.33,2.33,0,0,0,1.95-.79A3.66,3.66,0,0,1,19.32,39.21Z"/><path class="cls-21" d="M18.81,42H18.6c-.7.05-1.29-.67-1.67-2.07v-.06a13.63,13.63,0,0,0,.76-5h0S18.78,31,21.53,31.4c0-.12.07-.34.13-.64v-.05l.05,0,.48-.14h.06l0,0a1.78,1.78,0,0,1,.3.83v.07l-.06,0a.84.84,0,0,0-.33.26l0,0-.06.07A.83.83,0,0,1,22,32l-.07,0a8.29,8.29,0,0,0-.69.53,7.34,7.34,0,0,0-1.71,2.06,4.87,4.87,0,0,0-.55,3.2,5.7,5.7,0,0,0,.43,1.34v0A3.61,3.61,0,0,0,20.62,41l.07.06-.06.07A2.43,2.43,0,0,1,18.81,42Zm-.21-.2a2.27,2.27,0,0,0,1.82-.68,3.72,3.72,0,0,1-1.2-1.85,5.88,5.88,0,0,1-.44-1.38,5.06,5.06,0,0,1,.57-3.33,7.53,7.53,0,0,1,1.75-2.11,8.5,8.5,0,0,1,.71-.55l.08,0,.11-.08,0,0,0,0a1,1,0,0,1,.34-.29,1.68,1.68,0,0,0-.21-.63l-.36.1c-.09.41-.14.67-.14.67l0,.09-.09,0c-2.57-.47-3.64,3-3.71,3.24a13.85,13.85,0,0,1-.76,5C17.36,40.77,17.82,41.82,18.61,41.77Z"/><path class="cls-13" d="M33.1,33.07s2.16-2.71,0-5.2a2.12,2.12,0,0,1,.94-3.2H39s3.15.24,1.18,3.57c0,0-.38,3.86,0,4.66C40.24,32.91,39.12,34.58,33.1,33.07Z"/><path class="cls-14" d="M37.41,33.8a18.17,18.17,0,0,1-4.34-.63l-.14,0L33,33s2.09-2.68,0-5.08a2.64,2.64,0,0,1-.35-2A2.25,2.25,0,0,1,34,24.59h5a2.28,2.28,0,0,1,1.74,1c.35.66.19,1.57-.48,2.69,0,.3-.35,3.85,0,4.58l0,0,0,0S39.72,33.8,37.41,33.8ZM33.26,33c5.22,1.28,6.65.11,6.88-.12-.39-.92,0-4.5,0-4.65v0c.64-1.07.8-1.93.48-2.53a2.12,2.12,0,0,0-1.58-.9H34.1A2.06,2.06,0,0,0,32.9,26a2.49,2.49,0,0,0,.32,1.8A4.22,4.22,0,0,1,33.26,33Z"/><path class="cls-22" d="M27.69,32.34a22.88,22.88,0,0,0,3.57,3.34c3.64,3.61,1.08,7,1.08,7l11.94.44c-.61-2-10-6.06-10-6.06-2.73-1.45.61-1.51.61-1.51,4.5,1.24,12.78,4.34,12.78,4.34,7.52,3.39,8.1,1.3,8.1,1.3.94-4.51-6.4-6.21-6.4-6.21a42.86,42.86,0,0,0-9.25-2.27c-2.49,1.08-8.39.2-8.39.2a3.35,3.35,0,0,1-.48,0,4.14,4.14,0,0,0,.91-.47,3.87,3.87,0,0,0,1.52-2A2.63,2.63,0,0,0,31,26.91a3.94,3.94,0,0,0-2.21.72,3.87,3.87,0,0,0-1.52,2A2.73,2.73,0,0,0,27.63,32c0,.08,0,.17,0,.25S27.67,32.31,27.69,32.34Z"/><path class="cls-11" d="M44.42,43.21l-12.26-.45.11-.14c.1-.14,2.47-3.36-1.07-6.87a22.35,22.35,0,0,1-3.59-3.36v0a.17.17,0,0,1,0-.1v-.22a2.83,2.83,0,0,1-.31-2.43,4,4,0,0,1,1.56-2.08A4,4,0,0,1,31,26.82a2.73,2.73,0,0,1,2.73,3.62,4,4,0,0,1-1.56,2.07,4.15,4.15,0,0,1-.52.3h0c.08,0,5.92.87,8.36-.19h0a43.33,43.33,0,0,1,9.27,2.27c.06,0,7.4,1.76,6.45,6.31a.88.88,0,0,1-.52.5c-.86.4-2.9.43-7.72-1.73-.08,0-8.3-3.11-12.75-4.33-.62,0-1.51.15-1.57.43,0,.09,0,.37,1,.9.38.16,9.45,4.08,10.06,6.12Zm-11.9-.63L44.15,43c-.93-2-9.82-5.84-9.92-5.88-.84-.45-1.19-.8-1.12-1.11.13-.53,1.49-.57,1.77-.58h0c4.45,1.23,12.7,4.31,12.78,4.34,5,2.24,6.87,2.05,7.55,1.74.36-.16.43-.37.43-.38.38-1.82-.56-3.4-2.8-4.69a14.69,14.69,0,0,0-3.52-1.4,43.23,43.23,0,0,0-9.21-2.26c-2.5,1.07-8.18.23-8.42.2a2.93,2.93,0,0,1-.47,0l-.45,0,.42-.16a4,4,0,0,0,.89-.46,3.78,3.78,0,0,0,1.49-2A2.54,2.54,0,0,0,31,27a3.85,3.85,0,0,0-2.16.7,3.78,3.78,0,0,0-1.48,2,2.64,2.64,0,0,0,.3,2.28v.17s0,.08,0,.13l0,0h0a23,23,0,0,0,3.55,3.31C34.56,38.82,33,41.89,32.52,42.59Z"/><path class="cls-23" d="M29.26,28.47a2.5,2.5,0,0,0-1,3.34,2.5,2.5,0,0,0,3.49.23,3.21,3.21,0,0,0,1.12-1.33A1.64,1.64,0,0,0,33,30c0-.29.2-.53.18-.82a1.09,1.09,0,0,0-.05-.24L33,28.56a.16.16,0,0,0-.14-.14c-.33-.11-.63-.23-.95-.36a2.32,2.32,0,0,0-.85-.17A3.16,3.16,0,0,0,29.26,28.47Z"/><ellipse class="cls-24" cx="45.46" cy="30.45" rx="4.73" ry="6.14"/><ellipse class="cls-10" cx="45.46" cy="30.78" rx="4.73" ry="5.81"/><ellipse class="cls-25" cx="45.46" cy="30.96" rx="3.97" ry="4.87"/><ellipse class="cls-22" cx="45.46" cy="30.96" rx="3.21" ry="4.12"/><ellipse class="cls-26" cx="45.46" cy="31.49" rx="2.65" ry="3.05"/><ellipse class="cls-27" cx="45.46" cy="31.49" rx="2.27" ry="2.67"/><circle class="cls-26" cx="44.98" cy="31.59" r="1.54"/><ellipse class="cls-26" cx="53.73" cy="39.49" rx="0.4" ry="0.63"/><ellipse class="cls-12" cx="35.75" cy="40.64" rx="0.49" ry="1.02" transform="translate(-11.69 66.7) rotate(-77.44)"/><path class="cls-11" d="M36.07,41.21a2,2,0,0,1-.44-.05c-.58-.13-1-.46-.92-.75s.57-.42,1.15-.29a1.75,1.75,0,0,1,.69.31.47.47,0,0,1,.23.44C36.74,41.09,36.45,41.21,36.07,41.21Zm-.64-1.06c-.34,0-.61.1-.64.28s.34.54.86.66,1,0,1.06-.23,0-.24-.2-.37a1.67,1.67,0,0,0-.66-.29A1.93,1.93,0,0,0,35.43,40.15Z"/><ellipse class="cls-12" cx="37.86" cy="41.3" rx="0.39" ry="0.81" transform="translate(-10.68 69.28) rotate(-77.44)"/><path class="cls-11" d="M38.12,41.76a1.62,1.62,0,0,1-.35,0,1.4,1.4,0,0,1-.55-.24.38.38,0,0,1-.19-.36c0-.12.14-.21.32-.25a1.54,1.54,0,0,1,1.16.26.38.38,0,0,1,.19.36c0,.12-.14.21-.32.25Zm-.51-.85-.24,0c-.15,0-.25.1-.27.19s0,.19.16.29a1.46,1.46,0,0,0,1.09.24c.15,0,.25-.1.27-.19s0-.19-.16-.29a1.32,1.32,0,0,0-.52-.23A1.54,1.54,0,0,0,37.61,40.92Z"/><ellipse class="cls-12" cx="40.04" cy="41.78" rx="0.34" ry="0.71" transform="translate(-9.45 71.78) rotate(-77.44)"/><path class="cls-11" d="M40.26,42.19a1.43,1.43,0,0,1-.31,0,1.23,1.23,0,0,1-.49-.22.34.34,0,0,1-.16-.32c0-.21.4-.3.82-.21a1.23,1.23,0,0,1,.49.22.34.34,0,0,1,.16.32h0C40.74,42.1,40.53,42.19,40.26,42.19Zm-.45-.74c-.23,0-.41.07-.44.19s0,.16.14.24a1.15,1.15,0,0,0,.46.2c.36.08.69,0,.73-.15h0c0-.07,0-.16-.14-.24a1.15,1.15,0,0,0-.46-.2A1.34,1.34,0,0,0,39.81,41.45Z"/><ellipse class="cls-12" cx="23.52" cy="37.01" rx="1.01" ry="0.74"/><path class="cls-11" d="M23.52,37.79c-.58,0-1-.35-1-.78s.47-.78,1-.78,1,.35,1,.78S24.09,37.79,23.52,37.79Zm0-1.49c-.53,0-1,.32-1,.71s.43.71,1,.71,1-.32,1-.71S24,36.3,23.52,36.3Z"/><ellipse class="cls-12" cx="30.17" cy="37.24" rx="1.01" ry="0.74" transform="translate(-15.95 24.21) rotate(-35.21)"/><path class="cls-11" d="M29.92,38.11a.71.71,0,0,1-.6-.28.94.94,0,0,1,.4-1.24,1.25,1.25,0,0,1,.73-.24.7.7,0,0,1,.57.28h0a.69.69,0,0,1,.07.63,1.31,1.31,0,0,1-1.18.85Zm.51-1.68a1.17,1.17,0,0,0-.66.23.74.74,0,1,0,.81,1.15,1.16,1.16,0,0,0,.44-.57.62.62,0,0,0-.06-.57h0a.62.62,0,0,0-.51-.24Z"/><ellipse class="cls-12" cx="30.69" cy="39.7" rx="0.74" ry="1.01" transform="translate(-19.36 36.12) rotate(-48.2)"/><path class="cls-11" d="M31,40.61h-.09a1.24,1.24,0,0,1-.7-.32.81.81,0,1,1,1-1.17,1.24,1.24,0,0,1,.4.66.7.7,0,0,1-.14.62h0A.67.67,0,0,1,31,40.61Zm-.53-1.74a.6.6,0,0,0-.46.19.87.87,0,0,0,.25,1.17,1.16,1.16,0,0,0,.65.3.62.62,0,0,0,.54-.18h0a.62.62,0,0,0,.12-.56,1.16,1.16,0,0,0-.37-.62A1.13,1.13,0,0,0,30.43,38.87Z"/><ellipse class="cls-12" cx="22.06" cy="39.24" rx="0.99" ry="0.8"/><path class="cls-11" d="M22.06,40.08a.85.85,0,1,1,1-.84A.95.95,0,0,1,22.06,40.08Zm0-1.6a.78.78,0,1,0,.95.76A.87.87,0,0,0,22.06,38.48Z"/><ellipse class="cls-12" cx="20.87" cy="36.05" rx="1.28" ry="1.04"/><path class="cls-11" d="M20.87,37.12a1.1,1.1,0,1,1,0-2.15,1.1,1.1,0,1,1,0,2.15Zm0-2.07a1,1,0,1,0,0,2,1,1,0,1,0,0-2Z"/><ellipse class="cls-12" cx="27.72" cy="35.64" rx="0.88" ry="1.08" transform="translate(-17.44 35.56) rotate(-52.02)"/><path class="cls-11" d="M27.92,36.64a1.26,1.26,0,0,1-.77-.28A1,1,0,0,1,26.83,35a.83.83,0,0,1,.66-.31h0a1.26,1.26,0,0,1,.77.28,1,1,0,0,1,.32,1.41h0a.83.83,0,0,1-.66.31Zm-.41-1.92h0a.76.76,0,0,0-.6.28,1,1,0,0,0,.31,1.31,1.18,1.18,0,0,0,.72.26h0a.76.76,0,0,0,.6-.28h0A1,1,0,0,0,28.23,35,1.18,1.18,0,0,0,27.51,34.72Z"/><ellipse class="cls-12" cx="23.66" cy="32.62" rx="0.72" ry="0.61" transform="translate(-10.77 11.68) rotate(-22.74)"/><path class="cls-11" d="M23.58,33.29a.77.77,0,0,1-.23,0A.59.59,0,0,1,23,32.4a.82.82,0,0,1,.42-.38.66.66,0,1,1,.5,1.2A.86.86,0,0,1,23.58,33.29ZM23.74,32a.79.79,0,0,0-.3.06.75.75,0,0,0-.38.34.51.51,0,0,0,.31.74.75.75,0,0,0,.51,0,.64.64,0,0,0,.41-.79A.57.57,0,0,0,23.74,32Z"/><ellipse class="cls-12" cx="23.4" cy="34.16" rx="0.55" ry="0.65" transform="translate(-17.24 42.09) rotate(-66.64)"/><path class="cls-11" d="M23.47,34.76a.78.78,0,0,1-.31-.06.74.74,0,0,1-.37-.35.54.54,0,0,1,0-.46.64.64,0,0,1,.86-.27A.74.74,0,0,1,24,34a.53.53,0,0,1-.33.76A.69.69,0,0,1,23.47,34.76Zm-.15-1.13a.51.51,0,0,0-.48.29.47.47,0,0,0,0,.4.69.69,0,0,0,.79.34.45.45,0,0,0,.28-.66.67.67,0,0,0-.34-.31A.7.7,0,0,0,23.32,33.63Z"/><ellipse class="cls-12" cx="25.29" cy="32.62" rx="0.55" ry="0.65" transform="translate(-14.69 42.91) rotate(-66.64)"/><path class="cls-11" d="M25.37,33.23a.78.78,0,0,1-.31-.06h0a.74.74,0,0,1-.37-.35.54.54,0,0,1,0-.46.69.69,0,0,1,1.26.54.54.54,0,0,1-.35.3A.69.69,0,0,1,25.37,33.23Zm-.28-.13a.67.67,0,0,0,.46,0,.47.47,0,0,0,.3-.26.62.62,0,0,0-1.12-.48.47.47,0,0,0,0,.4.67.67,0,0,0,.34.31Z"/><ellipse class="cls-12" cx="25.03" cy="34.07" rx="0.65" ry="0.55" transform="translate(-16.76 27.68) rotate(-45)"/><path class="cls-11" d="M24.93,34.71a.54.54,0,0,1-.38-.15.54.54,0,0,1-.15-.44.74.74,0,0,1,.22-.46.64.64,0,0,1,.9-.07.54.54,0,0,1,.15.44.74.74,0,0,1-.22.46h0a.74.74,0,0,1-.46.22Zm.2-1.2a.66.66,0,0,0-.46.2.67.67,0,0,0-.2.41.45.45,0,0,0,.51.51.67.67,0,0,0,.41-.2h0a.67.67,0,0,0,.2-.41.47.47,0,0,0-.13-.38A.46.46,0,0,0,25.13,33.51Z"/><ellipse class="cls-12" cx="26.11" cy="40.65" rx="1.05" ry="1.48" transform="translate(-20.41 53.7) rotate(-72.95)"/><path class="cls-11" d="M26.39,41.79a2,2,0,0,1-.59-.09,1.84,1.84,0,0,1-.93-.61.9.9,0,0,1,.46-1.48,2,2,0,0,1,2,.63.9.9,0,0,1-.46,1.48A1.64,1.64,0,0,1,26.39,41.79Zm-.55-2.2a1.57,1.57,0,0,0-.49.08A.82.82,0,0,0,24.92,41a1.88,1.88,0,0,0,2,.6.82.82,0,0,0,.42-1.37,1.77,1.77,0,0,0-.89-.59A2,2,0,0,0,25.84,39.59Z"/><circle class="cls-12" cx="27.24" cy="39.4" r="0.25"/><path class="cls-11" d="M27.24,39.69a.29.29,0,1,1,.29-.29A.29.29,0,0,1,27.24,39.69Zm0-.51a.22.22,0,1,0,.22.22A.22.22,0,0,0,27.24,39.18Z"/><circle class="cls-12" cx="26.11" cy="38.97" r="0.24"/><path class="cls-11" d="M26.11,39.25a.28.28,0,1,1,.28-.28A.28.28,0,0,1,26.11,39.25Zm0-.48a.2.2,0,1,0,.2.2A.2.2,0,0,0,26.11,38.77Z"/><circle class="cls-12" cx="24.95" cy="39.22" r="0.25"/><path class="cls-11" d="M25,39.51a.29.29,0,1,1,.29-.29A.29.29,0,0,1,25,39.51Zm0-.5a.21.21,0,1,0,.21.21A.21.21,0,0,0,25,39Z"/><path class="cls-15" d="M18.66,46.59s0,4.56-2.07,6c0,0,1.41-4.09.33-7Z"/><path class="cls-11" d="M16.41,52.81l.09-.27s1.39-4.09.33-6.94l-.09-.25,2,1.2v.05c0,.19-.07,4.63-2.11,6Zm.68-7c.77,2.43,0,5.57-.32,6.53,1.62-1.45,1.78-5.16,1.79-5.66Z"/><path class="cls-15" d="M16.54,45.56A14.26,14.26,0,0,0,15,53s.35.31,1-.21c0,0,3.17-5.41,2.75-6.84Z"/><path class="cls-11" d="M15.29,53.17a.57.57,0,0,1-.36-.11l0,0v0a14.47,14.47,0,0,1,1.56-7.49l0-.06,2.31.4,0,.06c.43,1.46-2.63,6.69-2.76,6.92l0,0A1.2,1.2,0,0,1,15.29,53.17Zm-.21-.24c.08,0,.36.15.83-.22.18-.31,3.05-5.28,2.75-6.7l-2.06-.35A14.19,14.19,0,0,0,15.08,52.93Z"/><path class="cls-15" d="M17.72,43.36s.56,5.2-1.19,7.46c0,0-.17-6.41-.69-7.46Z"/><path class="cls-11" d="M16.44,51.09v-.26c0-.06-.18-6.4-.68-7.42l-.07-.14H17.8v.08c0,.21.55,5.27-1.21,7.53ZM16,43.46c.42,1.21.6,5.88.64,7.09,1.41-2.14,1.08-6.43,1-7.09Z"/><path class="cls-15" d="M18.2,44.38a.83.83,0,0,0,.49-.44,10.61,10.61,0,0,0,.83-1.67.9.9,0,0,0,.09-.45c0-.12-.8.06-.88.13a.89.89,0,0,0-.24.56A10,10,0,0,1,18.2,44.38Z"/><path class="cls-11" d="M18,44.5l.07-.16a3.28,3.28,0,0,0,.2-1.1,5.21,5.21,0,0,1,.09-.77V42.4a.86.86,0,0,1,.26-.55,2,2,0,0,1,.94-.17.13.13,0,0,1,.09.1,1,1,0,0,1-.09.5A10.71,10.71,0,0,1,18.78,44a.9.9,0,0,1-.56.49Zm1.45-2.64a2.56,2.56,0,0,0-.7.15.71.71,0,0,0-.19.43v.07a5.1,5.1,0,0,0-.09.75,4.28,4.28,0,0,1-.14.94,1.22,1.22,0,0,0,.25-.31,10.53,10.53,0,0,0,.83-1.66.92.92,0,0,0,.09-.37Z"/></svg>