<svg xmlns="http://www.w3.org/2000/svg" xmlns:xlink="http://www.w3.org/1999/xlink" viewBox="0 0 83.47 65.93"><defs><style>.cls-1{fill:none;}.cls-2{isolation:isolate;}.cls-3{fill:#2f331d;}.cls-4{fill:#525731;}.cls-5{clip-path:url(#clip-path);}.cls-6{fill:#689f24;}.cls-23,.cls-7{fill:#80d12f;}.cls-7{opacity:0.7;}.cls-26,.cls-27,.cls-43,.cls-44,.cls-60,.cls-61,.cls-78,.cls-79,.cls-8,.cls-9{mix-blend-mode:soft-light;}.cls-8{fill:url(#linear-gradient);}.cls-9{fill:url(#linear-gradient-2);}.cls-10,.cls-11,.cls-12,.cls-14,.cls-15,.cls-16,.cls-18,.cls-19,.cls-20,.cls-22,.cls-28,.cls-29,.cls-30,.cls-32,.cls-33,.cls-34,.cls-36,.cls-37,.cls-38,.cls-40,.cls-45,.cls-46,.cls-47,.cls-49,.cls-50,.cls-51,.cls-53,.cls-54,.cls-55,.cls-57,.cls-62,.cls-63,.cls-64,.cls-66,.cls-67,.cls-68,.cls-70,.cls-71,.cls-72,.cls-74,.cls-80,.cls-81,.cls-82,.cls-84,.cls-85,.cls-86,.cls-88,.cls-89,.cls-90{opacity:0.5;}.cls-10,.cls-11,.cls-12,.cls-14,.cls-15,.cls-16,.cls-18,.cls-19,.cls-20,.cls-28,.cls-29,.cls-30,.cls-32,.cls-33,.cls-34,.cls-36,.cls-37,.cls-38,.cls-45,.cls-46,.cls-47,.cls-49,.cls-50,.cls-51,.cls-53,.cls-54,.cls-55,.cls-62,.cls-63,.cls-64,.cls-66,.cls-67,.cls-68,.cls-70,.cls-71,.cls-72,.cls-80,.cls-81,.cls-82,.cls-84,.cls-85,.cls-86,.cls-88,.cls-89,.cls-90{mix-blend-mode:screen;}.cls-10{fill:url(#radial-gradient);}.cls-11{fill:url(#radial-gradient-2);}.cls-12{fill:url(#radial-gradient-3);}.cls-13,.cls-17,.cls-21,.cls-22,.cls-31,.cls-35,.cls-39,.cls-40,.cls-48,.cls-52,.cls-56,.cls-57,.cls-65,.cls-69,.cls-73,.cls-74,.cls-83,.cls-87,.cls-91{mix-blend-mode:color-dodge;}.cls-13{fill:url(#radial-gradient-4);}.cls-14{fill:url(#radial-gradient-5);}.cls-15{fill:url(#radial-gradient-6);}.cls-16{fill:url(#radial-gradient-7);}.cls-17{fill:url(#radial-gradient-8);}.cls-18{fill:url(#radial-gradient-9);}.cls-19{fill:url(#radial-gradient-10);}.cls-20{fill:url(#radial-gradient-11);}.cls-21{fill:url(#radial-gradient-12);}.cls-22{fill:url(#radial-gradient-13);}.cls-24,.cls-41,.cls-58,.cls-75,.cls-92{mix-blend-mode:multiply;}.cls-24{fill:url(#linear-gradient-3);}.cls-25{clip-path:url(#clip-path-2);}.cls-26{fill:url(#linear-gradient-4);}.cls-27{fill:url(#linear-gradient-5);}.cls-28{fill:url(#radial-gradient-14);}.cls-29{fill:url(#radial-gradient-15);}.cls-30{fill:url(#radial-gradient-16);}.cls-31{fill:url(#radial-gradient-17);}.cls-32{fill:url(#radial-gradient-18);}.cls-33{fill:url(#radial-gradient-19);}.cls-34{fill:url(#radial-gradient-20);}.cls-35{fill:url(#radial-gradient-21);}.cls-36{fill:url(#radial-gradient-22);}.cls-37{fill:url(#radial-gradient-23);}.cls-38{fill:url(#radial-gradient-24);}.cls-39{fill:url(#radial-gradient-25);}.cls-40{fill:url(#radial-gradient-26);}.cls-41{fill:url(#linear-gradient-6);}.cls-42{clip-path:url(#clip-path-3);}.cls-43{fill:url(#linear-gradient-7);}.cls-44{fill:url(#linear-gradient-8);}.cls-45{fill:url(#radial-gradient-27);}.cls-46{fill:url(#radial-gradient-28);}.cls-47{fill:url(#radial-gradient-29);}.cls-48{fill:url(#radial-gradient-30);}.cls-49{fill:url(#radial-gradient-31);}.cls-50{fill:url(#radial-gradient-32);}.cls-51{fill:url(#radial-gradient-33);}.cls-52{fill:url(#radial-gradient-34);}.cls-53{fill:url(#radial-gradient-35);}.cls-54{fill:url(#radial-gradient-36);}.cls-55{fill:url(#radial-gradient-37);}.cls-56{fill:url(#radial-gradient-38);}.cls-57{fill:url(#radial-gradient-39);}.cls-58{fill:url(#linear-gradient-9);}.cls-59{clip-path:url(#clip-path-4);}.cls-60{fill:url(#linear-gradient-10);}.cls-61{fill:url(#linear-gradient-11);}.cls-62{fill:url(#radial-gradient-40);}.cls-63{fill:url(#radial-gradient-41);}.cls-64{fill:url(#radial-gradient-42);}.cls-65{fill:url(#radial-gradient-43);}.cls-66{fill:url(#radial-gradient-44);}.cls-67{fill:url(#radial-gradient-45);}.cls-68{fill:url(#radial-gradient-46);}.cls-69{fill:url(#radial-gradient-47);}.cls-70{fill:url(#radial-gradient-48);}.cls-71{fill:url(#radial-gradient-49);}.cls-72{fill:url(#radial-gradient-50);}.cls-73{fill:url(#radial-gradient-51);}.cls-74{fill:url(#radial-gradient-52);}.cls-75{fill:url(#linear-gradient-12);}.cls-76{clip-path:url(#clip-path-5);}.cls-77{fill:#528520;}.cls-78{fill:url(#linear-gradient-13);}.cls-79{fill:url(#linear-gradient-14);}.cls-80{fill:url(#radial-gradient-53);}.cls-81{fill:url(#radial-gradient-54);}.cls-82{fill:url(#radial-gradient-55);}.cls-83{fill:url(#radial-gradient-56);}.cls-84{fill:url(#radial-gradient-57);}.cls-85{fill:url(#radial-gradient-58);}.cls-86{fill:url(#radial-gradient-59);}.cls-87{fill:url(#radial-gradient-60);}.cls-88{fill:url(#radial-gradient-61);}.cls-89{fill:url(#radial-gradient-62);}.cls-90{fill:url(#radial-gradient-63);}.cls-91{fill:url(#radial-gradient-64);}.cls-92{fill:url(#linear-gradient-15);}.cls-93{fill:#ebd5cb;}.cls-100,.cls-93,.cls-94,.cls-95,.cls-96,.cls-97,.cls-98,.cls-99{fill-rule:evenodd;}.cls-94{fill:#f1e6e0;}.cls-95{fill:#e2cdbe;}.cls-96{fill:#c51638;}.cls-97{fill:#cf324f;}.cls-98{fill:#d44661;}.cls-99{fill:#fff100;}.cls-100{fill:#fff79d;}.cls-101{fill:#00a7ee;}.cls-102{fill:#010101;}.cls-103{fill:#1e0e00;}.cls-104{fill:#0088c6;}.cls-105{fill:#31100d;}.cls-106{fill:#031825;}.cls-107{fill:#cdcac5;}.cls-108{fill:#1a1119;}</style><clipPath id="clip-path" transform="translate(10.32 3.28)"><path class="cls-1" d="M41.61,38.34C49.18,42.1,58,40.46,58,40.46S54.59,32.73,47,29s-16.4-2.12-16.4-2.12S34.05,34.58,41.61,38.34Z"/></clipPath><linearGradient id="linear-gradient" x1="-318.87" y1="-152.15" x2="-312.51" y2="-152.15" gradientTransform="translate(-240.2 242.28) rotate(118.2)" gradientUnits="userSpaceOnUse"><stop offset="0" stop-color="#00244d"/><stop offset="1" stop-color="#adbd22"/></linearGradient><linearGradient id="linear-gradient-2" x1="-323.74" y1="-152.15" x2="-317.9" y2="-152.15" gradientTransform="translate(-240.2 242.28) rotate(118.2)" gradientUnits="userSpaceOnUse"><stop offset="0" stop-color="#37589b"/><stop offset="0.14" stop-color="#405f9d"/><stop offset="0.38" stop-color="#5971a2"/><stop offset="0.68" stop-color="#8290ab"/><stop offset="1" stop-color="#b5b5b5"/></linearGradient><radialGradient id="radial-gradient" cx="-1171.05" cy="62.34" r="4.35" gradientTransform="matrix(-0.2, 0.26, -0.82, -0.54, -140.9, 373.73)" gradientUnits="userSpaceOnUse"><stop offset="0" stop-color="#00384e"/><stop offset="0.02" stop-color="#00354a"/><stop offset="0.15" stop-color="#00222f"/><stop offset="0.29" stop-color="#00131a"/><stop offset="0.46" stop-color="#00080b"/><stop offset="0.65" stop-color="#000203"/><stop offset="0.95"/></radialGradient><radialGradient id="radial-gradient-2" cx="-895.78" cy="78.73" r="6.03" gradientTransform="matrix(-0.27, 0.28, -1.19, -0.98, -114.2, 358.9)" gradientUnits="userSpaceOnUse"><stop offset="0.23" stop-color="#00384e"/><stop offset="0.24" stop-color="#00374d"/><stop offset="0.55" stop-color="#001923"/><stop offset="0.8" stop-color="#00070a"/><stop offset="0.95"/></radialGradient><radialGradient id="radial-gradient-3" cx="-1166.58" cy="113.54" r="4.3" gradientTransform="matrix(-0.23, 0.24, -0.75, -0.62, -147.98, 379.35)" gradientUnits="userSpaceOnUse"><stop offset="0.18" stop-color="#00384e"/><stop offset="0.19" stop-color="#00354a"/><stop offset="0.3" stop-color="#00222f"/><stop offset="0.42" stop-color="#00131a"/><stop offset="0.55" stop-color="#00080b"/><stop offset="0.7" stop-color="#000203"/><stop offset="0.95"/></radialGradient><radialGradient id="radial-gradient-4" cx="-1171.91" cy="63.97" r="18.76" gradientTransform="matrix(-0.2, 0.26, -0.82, -0.54, -140.9, 373.73)" gradientUnits="userSpaceOnUse"><stop offset="0" stop-color="#804d82"/><stop offset="0.06" stop-color="#693f6b"/><stop offset="0.17" stop-color="#492c4a"/><stop offset="0.28" stop-color="#2e1c2f"/><stop offset="0.4" stop-color="#1a0f1a"/><stop offset="0.53" stop-color="#0b070b"/><stop offset="0.69" stop-color="#030203"/><stop offset="0.95"/></radialGradient><radialGradient id="radial-gradient-5" cx="-841.03" cy="-266.81" r="4.35" gradientTransform="matrix(-0.01, 0.32, -1, -0.04, -224.51, 297.22)" xlink:href="#radial-gradient"/><radialGradient id="radial-gradient-6" cx="-707.27" cy="-135.53" r="6.03" gradientTransform="matrix(-0.06, 0.37, -1.58, -0.23, -211.31, 270.42)" xlink:href="#radial-gradient-2"/><radialGradient id="radial-gradient-7" cx="-949.86" cy="-226.28" r="4.3" gradientTransform="matrix(-0.06, 0.31, -0.99, -0.15, -226.47, 303.81)" xlink:href="#radial-gradient-3"/><radialGradient id="radial-gradient-8" cx="-841.89" cy="-265.18" r="18.76" gradientTransform="matrix(-0.01, 0.32, -1, -0.04, -224.51, 297.22)" xlink:href="#radial-gradient-4"/><radialGradient id="radial-gradient-9" cx="-1212.33" cy="49.92" r="4.35" gradientTransform="matrix(-0.17, 0.28, -2.47, -1.29, -37.83, 431.74)" xlink:href="#radial-gradient"/><radialGradient id="radial-gradient-10" cx="-903.38" cy="-34.46" r="6.03" gradientTransform="matrix(-0.19, 0.33, -1.42, -0.68, -162.77, 315.16)" xlink:href="#radial-gradient-2"/><radialGradient id="radial-gradient-11" cx="-1171.8" cy="-58.9" r="7.58" gradientTransform="matrix(-0.15, 0.29, -0.9, -0.41, -194.21, 338.82)" xlink:href="#radial-gradient-3"/><radialGradient id="radial-gradient-12" cx="-1453.55" cy="-13.28" r="18.76" gradientTransform="matrix(-0.14, 0.24, -0.88, -0.46, -179.88, 370.19)" xlink:href="#radial-gradient-4"/><radialGradient id="radial-gradient-13" cx="-1454.02" cy="-27.66" r="18.76" gradientTransform="matrix(-0.14, 0.24, -0.88, -0.46, -179.88, 370.19)" xlink:href="#radial-gradient-4"/><linearGradient id="linear-gradient-3" x1="-318.8" y1="-151.45" x2="-317.42" y2="-151.45" gradientTransform="translate(-240.2 242.28) rotate(118.2)" gradientUnits="userSpaceOnUse"><stop offset="0" stop-color="#4c8534"/><stop offset="0.14" stop-color="#78a365"/><stop offset="0.29" stop-color="#a1bf94"/><stop offset="0.44" stop-color="#c3d6ba"/><stop offset="0.58" stop-color="#dde8d8"/><stop offset="0.73" stop-color="#f0f5ee"/><stop offset="0.87" stop-color="#fbfcfb"/><stop offset="1" stop-color="#fff"/></linearGradient><clipPath id="clip-path-2" transform="translate(10.32 3.28)"><path class="cls-1" d="M21.11,34.89c-8.31,2-16.48-1.53-16.48-1.53s5.29-6.76,13.6-8.76,16.48,1.52,16.48,1.52S29.42,32.89,21.11,34.89Z"/></clipPath><linearGradient id="linear-gradient-4" x1="-134.04" y1="194.39" x2="-127.96" y2="194.39" gradientTransform="matrix(0.25, 0.97, 0.97, -0.25, -134.89, 207.99)" xlink:href="#linear-gradient"/><linearGradient id="linear-gradient-5" x1="-139.03" y1="194.39" x2="-133.46" y2="194.39" gradientTransform="matrix(0.25, 0.97, 0.97, -0.25, -134.89, 207.99)" xlink:href="#linear-gradient-2"/><radialGradient id="radial-gradient-14" cx="-696.83" cy="288.9" r="4.35" gradientTransform="matrix(0.13, 0.3, 0.93, -0.34, -158.53, 338.12)" xlink:href="#radial-gradient"/><radialGradient id="radial-gradient-15" cx="-430.21" cy="209.07" r="6.03" gradientTransform="matrix(0.19, 0.33, 1.41, -0.69, -181.15, 316.99)" xlink:href="#radial-gradient-2"/><radialGradient id="radial-gradient-16" cx="-611.56" cy="318.5" r="4.3" gradientTransform="matrix(0.16, 0.28, 0.88, -0.44, -153.34, 343.41)" xlink:href="#radial-gradient-3"/><radialGradient id="radial-gradient-17" cx="-697.69" cy="290.54" r="18.76" gradientTransform="matrix(0.13, 0.3, 0.93, -0.34, -158.53, 338.12)" xlink:href="#radial-gradient-4"/><radialGradient id="radial-gradient-18" cx="-799.91" cy="13.1" r="4.35" gradientTransform="matrix(-0.07, 0.31, 0.99, 0.18, -59.58, 281.35)" xlink:href="#radial-gradient"/><radialGradient id="radial-gradient-19" cx="-590.23" cy="38.43" r="6.03" gradientTransform="matrix(-0.03, 0.37, 1.59, 0.12, -65.12, 250.82)" xlink:href="#radial-gradient-2"/><radialGradient id="radial-gradient-20" cx="-809.55" cy="48.35" r="4.3" gradientTransform="matrix(-0.03, 0.32, 1, 0.07, -57.62, 288.02)" xlink:href="#radial-gradient-3"/><radialGradient id="radial-gradient-21" cx="-800.77" cy="14.73" r="18.76" gradientTransform="matrix(-0.07, 0.31, 0.99, 0.18, -59.58, 281.35)" xlink:href="#radial-gradient-4"/><radialGradient id="radial-gradient-22" cx="-804.4" cy="135.72" r="4.35" gradientTransform="matrix(0.09, 0.31, 2.73, -0.71, -274.3, 370.77)" xlink:href="#radial-gradient"/><radialGradient id="radial-gradient-23" cx="-577.11" cy="119.91" r="6.03" gradientTransform="matrix(0.1, 0.36, 1.55, -0.36, -121.6, 284.83)" xlink:href="#radial-gradient-2"/><radialGradient id="radial-gradient-24" cx="-807.14" cy="189.77" r="7.58" gradientTransform="matrix(0.07, 0.31, 0.98, -0.2, -97.13, 315.09)" xlink:href="#radial-gradient-3"/><radialGradient id="radial-gradient-25" cx="-975.28" cy="228.57" r="18.76" gradientTransform="matrix(0.08, 0.26, 0.97, -0.25, -120.29, 341.26)" xlink:href="#radial-gradient-4"/><radialGradient id="radial-gradient-26" cx="-975.76" cy="214.19" r="18.76" gradientTransform="matrix(0.08, 0.26, 0.97, -0.25, -120.29, 341.26)" xlink:href="#radial-gradient-4"/><linearGradient id="linear-gradient-6" x1="-134.03" y1="195.1" x2="-133" y2="195.1" gradientTransform="matrix(0.25, 0.97, 0.97, -0.25, -134.89, 207.99)" xlink:href="#linear-gradient-3"/><clipPath id="clip-path-3" transform="translate(10.32 3.28)"><path class="cls-1" d="M32.85,37.56c-6.14,5.55-15.13,6.24-15.13,6.24s1-8.3,7.13-13.85S40,23.71,40,23.71,39,32,32.85,37.56Z"/></clipPath><linearGradient id="linear-gradient-7" x1="51.26" y1="329.57" x2="57.85" y2="329.57" gradientTransform="matrix(0.7, 0.72, 0.72, -0.7, -243.42, 226.61)" xlink:href="#linear-gradient"/><linearGradient id="linear-gradient-8" x1="46.38" y1="329.56" x2="52.42" y2="329.56" gradientTransform="matrix(0.7, 0.72, 0.72, -0.7, -243.42, 226.61)" xlink:href="#linear-gradient-2"/><radialGradient id="radial-gradient-27" cx="-25.54" cy="463.5" r="4.35" gradientTransform="matrix(0.27, 0.2, 0.63, -0.73, -250.46, 376.78)" xlink:href="#radial-gradient"/><radialGradient id="radial-gradient-28" cx="183.81" cy="301.15" r="6.03" gradientTransform="matrix(0.34, 0.2, 0.85, -1.25, -280.25, 367.77)" xlink:href="#radial-gradient-2"/><radialGradient id="radial-gradient-29" cx="111.91" cy="464.65" r="4.3" gradientTransform="matrix(0.29, 0.17, 0.53, -0.79, -242.03, 379.96)" xlink:href="#radial-gradient-3"/><radialGradient id="radial-gradient-30" cx="-26.4" cy="465.14" r="18.76" gradientTransform="matrix(0.27, 0.2, 0.63, -0.73, -250.46, 376.78)" xlink:href="#radial-gradient-4"/><radialGradient id="radial-gradient-31" cx="-508.29" cy="281.38" r="4.35" gradientTransform="matrix(0.11, 0.3, 0.95, -0.3, -192.85, 280.17)" xlink:href="#radial-gradient"/><radialGradient id="radial-gradient-32" cx="-275" cy="200.15" r="6.03" gradientTransform="matrix(0.17, 0.34, 1.45, -0.62, -214.36, 258.75)" xlink:href="#radial-gradient-2"/><radialGradient id="radial-gradient-33" cx="-429.86" cy="304.43" r="4.3" gradientTransform="matrix(0.15, 0.29, 0.91, -0.4, -188.5, 286.99)" xlink:href="#radial-gradient-3"/><radialGradient id="radial-gradient-34" cx="-509.15" cy="283.02" r="18.76" gradientTransform="matrix(0.11, 0.3, 0.95, -0.3, -192.85, 280.17)" xlink:href="#radial-gradient-4"/><radialGradient id="radial-gradient-35" cx="-191.66" cy="205.42" r="4.35" gradientTransform="matrix(0.24, 0.22, 1.99, -1.87, -332.72, 458.85)" xlink:href="#radial-gradient"/><radialGradient id="radial-gradient-36" cx="-70.92" cy="248.01" r="6.03" gradientTransform="matrix(0.28, 0.27, 1.16, -1.02, -246.57, 313.57)" xlink:href="#radial-gradient-2"/><radialGradient id="radial-gradient-37" cx="-228.18" cy="399.23" r="7.58" gradientTransform="matrix(0.23, 0.24, 0.75, -0.62, -209.34, 329.7)" xlink:href="#radial-gradient-3"/><radialGradient id="radial-gradient-38" cx="-261.47" cy="426.19" r="18.76" gradientTransform="matrix(0.21, 0.19, 0.71, -0.66, -215.07, 363.02)" xlink:href="#radial-gradient-4"/><radialGradient id="radial-gradient-39" cx="-261.94" cy="411.81" r="18.76" gradientTransform="matrix(0.21, 0.19, 0.71, -0.66, -215.07, 363.02)" xlink:href="#radial-gradient-4"/><linearGradient id="linear-gradient-9" x1="51.34" y1="330.25" x2="52.93" y2="330.25" gradientTransform="matrix(0.7, 0.72, 0.72, -0.7, -243.42, 226.61)" xlink:href="#linear-gradient-3"/><clipPath id="clip-path-4" transform="translate(10.32 3.28)"><path class="cls-1" d="M25.32,25.63c-4.66-6.68-3.62-15-3.62-15s8.59,2.53,13.25,9.2,3.62,15,3.62,15S30,32.3,25.32,25.63Z"/></clipPath><linearGradient id="linear-gradient-10" x1="-181.94" y1="-271.02" x2="-175.31" y2="-271.02" gradientTransform="matrix(-0.84, 0.54, 0.54, 0.84, 25.08, 348.8)" xlink:href="#linear-gradient"/><linearGradient id="linear-gradient-11" x1="-186.97" y1="-271.02" x2="-180.89" y2="-271.02" gradientTransform="matrix(-0.84, 0.54, 0.54, 0.84, 25.08, 348.8)" xlink:href="#linear-gradient-2"/><radialGradient id="radial-gradient-40" cx="-789.22" cy="-313.11" r="4.35" gradientTransform="matrix(-0.26, 0.2, 0.64, 0.71, 22.01, 412.04)" xlink:href="#radial-gradient"/><radialGradient id="radial-gradient-41" cx="-677.89" cy="-165.4" r="6.03" gradientTransform="matrix(-0.28, 0.27, 1.16, 1.02, 36.11, 386.08)" xlink:href="#radial-gradient-2"/><radialGradient id="radial-gradient-42" cx="-914.93" cy="-274.99" r="4.3" gradientTransform="matrix(-0.23, 0.23, 0.73, 0.64, 17.98, 417.97)" xlink:href="#radial-gradient-3"/><radialGradient id="radial-gradient-43" cx="-790.08" cy="-311.48" r="18.76" gradientTransform="matrix(-0.26, 0.2, 0.64, 0.71, 22.01, 412.04)" xlink:href="#radial-gradient-4"/><radialGradient id="radial-gradient-44" cx="81.12" cy="-510.94" r="4.35" gradientTransform="matrix(-0.34, 0.04, 0.13, 0.92, 113.23, 481.51)" xlink:href="#radial-gradient"/><radialGradient id="radial-gradient-45" cx="0.47" cy="-310.37" r="6.03" gradientTransform="matrix(-0.39, 0.09, 0.38, 1.44, 140.16, 467.18)" xlink:href="#radial-gradient-2"/><radialGradient id="radial-gradient-46" cx="-123.76" cy="-507.44" r="4.3" gradientTransform="matrix(-0.33, 0.08, 0.24, 0.9, 105.4, 485.14)" xlink:href="#radial-gradient-3"/><radialGradient id="radial-gradient-47" cx="80.26" cy="-509.3" r="18.76" gradientTransform="matrix(-0.34, 0.04, 0.13, 0.92, 113.23, 481.51)" xlink:href="#radial-gradient-4"/><radialGradient id="radial-gradient-48" cx="-717.64" cy="-77.1" r="4.35" gradientTransform="matrix(-0.28, 0.18, 1.59, 2.18, -48.95, 320.06)" xlink:href="#radial-gradient"/><radialGradient id="radial-gradient-49" cx="-456.51" cy="-258.7" r="6.03" gradientTransform="matrix(-0.34, 0.2, 0.85, 1.25, 88.06, 428.5)" xlink:href="#radial-gradient-2"/><radialGradient id="radial-gradient-50" cx="-618.89" cy="-408.48" r="7.58" gradientTransform="matrix(-0.29, 0.16, 0.51, 0.8, 64.23, 457.85)" xlink:href="#radial-gradient-3"/><radialGradient id="radial-gradient-51" cx="-872.45" cy="-373.37" r="18.76" gradientTransform="matrix(-0.24, 0.15, 0.56, 0.77, 30.75, 446.6)" xlink:href="#radial-gradient-4"/><radialGradient id="radial-gradient-52" cx="-872.93" cy="-387.74" r="18.76" gradientTransform="matrix(-0.24, 0.15, 0.56, 0.77, 30.75, 446.6)" xlink:href="#radial-gradient-4"/><linearGradient id="linear-gradient-12" x1="-182.32" y1="-270.34" x2="-180.83" y2="-270.34" gradientTransform="matrix(-0.84, 0.54, 0.54, 0.84, 25.08, 348.8)" xlink:href="#linear-gradient-3"/><clipPath id="clip-path-5" transform="translate(10.32 3.28)"><path class="cls-1" d="M43,29.49c6.16-2.41,8.95-9.27,8.95-9.27s-7.19-3-13.35-.54-8.95,9.26-8.95,9.26S36.84,31.9,43,29.49Z"/></clipPath><linearGradient id="linear-gradient-13" x1="-165.74" y1="-383.6" x2="-159.62" y2="-383.6" gradientTransform="matrix(0.39, 0.92, -0.92, 0.39, -249.2, 325.25)" xlink:href="#linear-gradient"/><linearGradient id="linear-gradient-14" x1="-170.77" y1="-383.6" x2="-165.16" y2="-383.6" gradientTransform="matrix(0.39, 0.92, -0.92, 0.39, -249.2, 325.25)" xlink:href="#linear-gradient-2"/><radialGradient id="radial-gradient-53" cx="-993.88" cy="-431.25" r="4.35" gradientTransform="matrix(0.1, 0.3, -0.76, 0.18, -188.54, 406.04)" xlink:href="#radial-gradient"/><radialGradient id="radial-gradient-54" cx="-884.71" cy="-235.07" r="6.03" gradientTransform="matrix(0.08, 0.36, -1.26, 0.12, -188.39, 379.03)" xlink:href="#radial-gradient-2"/><radialGradient id="radial-gradient-55" cx="-1162.8" cy="-383.39" r="4.3" gradientTransform="matrix(0.07, 0.31, -0.79, 0.07, -187.53, 413.81)" xlink:href="#radial-gradient-3"/><radialGradient id="radial-gradient-56" cx="-994.75" cy="-429.62" r="18.76" gradientTransform="matrix(0.1, 0.3, -0.76, 0.18, -188.54, 406.04)" xlink:href="#radial-gradient-4"/><radialGradient id="radial-gradient-57" cx="92.14" cy="-648.29" r="4.35" gradientTransform="matrix(0.23, 0.22, -0.48, 0.63, -282.25, 407.99)" xlink:href="#radial-gradient"/><radialGradient id="radial-gradient-58" cx="-27.89" cy="-397.07" r="6.03" gradientTransform="matrix(0.24, 0.29, -0.88, 0.87, -295.95, 382.16)" xlink:href="#radial-gradient-2"/><radialGradient id="radial-gradient-59" cx="-159.54" cy="-644.88" r="4.3" gradientTransform="matrix(0.2, 0.25, -0.56, 0.54, -278.89, 415.12)" xlink:href="#radial-gradient-3"/><radialGradient id="radial-gradient-60" cx="91.28" cy="-646.66" r="18.76" gradientTransform="matrix(0.23, 0.22, -0.48, 0.63, -282.25, 407.99)" xlink:href="#radial-gradient-4"/><radialGradient id="radial-gradient-61" cx="-889.1" cy="-121.53" r="4.35" gradientTransform="matrix(0.13, 0.3, -2.06, 0.75, -99.16, 377.97)" xlink:href="#radial-gradient"/><radialGradient id="radial-gradient-62" cx="-591.11" cy="-338.09" r="6.03" gradientTransform="matrix(0.16, 0.34, -1.14, 0.46, -242.08, 381.61)" xlink:href="#radial-gradient-2"/><radialGradient id="radial-gradient-63" cx="-767.92" cy="-537.53" r="7.58" gradientTransform="matrix(0.14, 0.29, -0.71, 0.31, -238.81, 417.79)" xlink:href="#radial-gradient-3"/><radialGradient id="radial-gradient-64" cx="-1072.73" cy="-497.94" r="18.76" gradientTransform="matrix(0.11, 0.25, -0.73, 0.26, -208.94, 428.31)" xlink:href="#radial-gradient-4"/><linearGradient id="linear-gradient-15" x1="-166.09" y1="-383.05" x2="-165.05" y2="-383.05" gradientTransform="matrix(0.39, 0.92, -0.92, 0.39, -249.2, 325.25)" xlink:href="#linear-gradient-3"/></defs><title>left butterfly-icon</title><g class="cls-2"><g id="Layer_1" data-name="Layer 1"><circle class="cls-3" cx="41.64" cy="34.6" r="31.33"/><path class="cls-4" d="M31.33,61.65A30.33,30.33,0,1,1,61.65,31.33,30.36,30.36,0,0,1,31.33,61.65Z" transform="translate(10.32 3.28)"/><g class="cls-5"><path class="cls-6" d="M41.61,38.34C49.18,42.1,58,40.46,58,40.46S54.59,32.73,47,29s-16.4-2.12-16.4-2.12S34.05,34.58,41.61,38.34Z" transform="translate(10.32 3.28)"/><path class="cls-7" d="M48.37,35.69c2-2.08,3.27-3.34,3.27-3.34s-1.09,1.36-2.9,3.53Zm-1.56-.78C48.78,32.55,50,31,50,31s-1.39,1.39-3.58,3.66Zm3.93,2C52.22,35.09,53.09,34,53.09,34s-1,1-2.66,2.71Zm2,1c1.14-1.38,1.8-2.2,1.8-2.2s-.76.76-2,2.08ZM44.9,34c2.06-2.46,3.32-4,3.32-4s-1.46,1.45-3.73,3.82Zm9.8,4.87c.88-1.08,1.38-1.7,1.38-1.7l-1.58,1.6ZM37.62,30.35c1.56-1.88,2.49-3,2.49-3S39,28.39,37.29,30.19ZM34.11,28.6l1.52-1.87s-.64.64-1.74,1.76Zm1.74.86c1.31-1.58,2.07-2.53,2.07-2.53s-.89.88-2.35,2.39Zm3.54,1.76c1.81-2.17,2.9-3.53,2.9-3.53S41,29,39,31ZM43,33c2.06-2.46,3.32-4,3.32-4s-1.46,1.46-3.73,3.82Zm-1.84-.91c2-2.37,3.18-3.86,3.18-3.86S43,29.65,40.8,31.93Z" transform="translate(10.32 3.28)"/><path class="cls-7" d="M47.77,35.35c-.95,2.6-1.57,4.19-1.57,4.19s.44-1.68,1.2-4.38Zm-2.33-1.16C44.6,37.14,44.12,39,44.12,39s.68-1.75,1.71-4.59Zm4,2c-.62,2.21-1,3.55-1,3.55s.49-1.27,1.28-3.4Zm2.06,1c-.47,1.72-.74,2.73-.74,2.73s.37-1,1-2.61Zm-8-4c-.87,3.06-1.37,5-1.37,5s.71-1.84,1.78-4.79Zm10,5c-.36,1.34-.56,2.11-.56,2.11s.29-.73.76-2ZM36.33,29.67c-.65,2.33-.92,3.58-.92,3.58s.42-1.17,1.24-3.41ZM32.93,28a4.47,4.47,0,0,0-.31,1.77,7.45,7.45,0,0,1,.52-1.66Zm1.68.83A21.5,21.5,0,0,0,34,31.58s.22-.75.92-2.63Zm3.45,1.72c-.76,2.7-1.09,4.19-1.09,4.19l1.46-4Zm3.6,1.79c-.87,3.06-1.37,5-1.37,5s.71-1.83,1.78-4.79Zm-1.82-.91c-.83,2.94-1.31,4.79-1.31,4.79s.68-1.75,1.71-4.59Z" transform="translate(10.32 3.28)"/><path class="cls-8" d="M58,40.46l0-.07L30.71,26.84h-.08s3.42,7.73,11,11.49S58,40.46,58,40.46Z" transform="translate(10.32 3.28)"/><path class="cls-9" d="M58,40.39C57.63,39.62,54.18,32.53,47,29S31.6,26.69,30.71,26.84Z" transform="translate(10.32 3.28)"/><path class="cls-10" d="M38.74,37.28c2,1.29,4,1.83,4.44,1.21s-.74-2.18-2.71-3.47-4-1.83-4.43-1.21S36.76,36,38.74,37.28Z" transform="translate(10.32 3.28)"/><path class="cls-11" d="M30.86,32.41c4,3.28,7.92,5.18,8.82,4.24S38.08,32.31,34.1,29s-7.92-5.18-8.82-4.25S26.89,29.14,30.86,32.41Z" transform="translate(10.32 3.28)"/><path class="cls-12" d="M34.79,34.16c1.77,1.48,3.65,2.23,4.19,1.67s-.44-2.22-2.21-3.7-3.65-2.23-4.19-1.67S33,32.68,34.79,34.16Z" transform="translate(10.32 3.28)"/><path class="cls-13" d="M34.72,39.93c8.51,5.56,17.07,7.89,19.12,5.2s-3.19-9.38-11.7-14.95S25.07,22.29,23,25,26.21,34.36,34.72,39.93Z" transform="translate(10.32 3.28)"/><path class="cls-14" d="M55.87,42.21c2.42.1,4.4-.44,4.44-1.21S58.42,39.54,56,39.45s-4.4.44-4.44,1.21S53.46,42.11,55.87,42.21Z" transform="translate(10.32 3.28)"/><path class="cls-15" d="M46.41,42.06c5.26.77,9.69.39,9.89-.85s-3.88-2.85-9.14-3.62-9.68-.39-9.89.85S41.15,41.3,46.41,42.06Z" transform="translate(10.32 3.28)"/><path class="cls-16" d="M50.73,41.56c2.35.36,4.37,0,4.5-.69s-1.67-1.64-4-2-4.37,0-4.5.7S48.38,41.2,50.73,41.56Z" transform="translate(10.32 3.28)"/><path class="cls-17" d="M54,46.45c10.4.42,19-1.91,19.12-5.2S65,35,54.59,34.53s-19,1.91-19.12,5.2S43.63,46,54,46.45Z" transform="translate(10.32 3.28)"/><path class="cls-18" d="M41.8,32.73c5.95,3.1,11.1,5.07,11.5,4.41s-4.09-3.72-10-6.82-11.1-5.07-11.5-4.41S35.85,29.64,41.8,32.73Z" transform="translate(10.32 3.28)"/><path class="cls-19" d="M53.62,40.73c4.72,2.28,9,3.23,9.67,2.12s-2.7-3.85-7.41-6.13-9-3.23-9.67-2.12S48.9,38.45,53.62,40.73Z" transform="translate(10.32 3.28)"/><path class="cls-20" d="M34.5,30.47c3.78,1.71,7.36,2.14,8,.94s-1.92-3.56-5.7-5.27-7.36-2.14-8-.94S30.72,28.76,34.5,30.47Z" transform="translate(10.32 3.28)"/><path class="cls-21" d="M38.6,35.39c9.08,4.73,17.65,6.57,19.14,4.1S53.09,31.2,44,26.47,26.36,19.9,24.87,22.36,29.53,30.66,38.6,35.39Z" transform="translate(10.32 3.28)"/><path class="cls-22" d="M51.26,41.83c9.08,4.73,17.65,6.57,19.14,4.11s-4.66-8.29-13.73-13S39,26.35,37.53,28.81,42.19,37.11,51.26,41.83Z" transform="translate(10.32 3.28)"/></g><path class="cls-23" d="M29.19,26.57l4.34,2.17C46.94,35.41,58,40.46,58,40.46S47.34,34.71,33.93,28l-4.35-2.15Z" transform="translate(10.32 3.28)"/><path class="cls-24" d="M29.19,26.57l4.34,2.17C46.94,35.41,58,40.46,58,40.46S47.34,34.71,33.93,28l-4.35-2.15Z" transform="translate(10.32 3.28)"/><g class="cls-25"><path class="cls-6" d="M21.11,34.89c-8.31,2-16.48-1.53-16.48-1.53s5.29-6.76,13.6-8.76,16.48,1.52,16.48,1.52S29.42,32.89,21.11,34.89Z" transform="translate(10.32 3.28)"/><path class="cls-7" d="M14.82,30.94c-1.21-2.51-1.92-4.07-1.92-4.07s.91,1.5,2.33,4Zm2.56-.62C15.84,27.64,14.84,26,14.84,26s.78,1.72,2.1,4.45ZM13,31.38c-1.17-2-1.89-3.22-1.89-3.22s.57,1.24,1.55,3.3Zm-2.27.54c-.91-1.56-1.46-2.46-1.46-2.46s.43.94,1.18,2.53Zm8.79-2.11c-1.6-2.8-2.65-4.53-2.65-4.53s.82,1.8,2.2,4.64Zm-11,2.65c-.71-1.21-1.13-1.9-1.13-1.9s.33.72.91,2Zm18.9-4.55c-1.23-2.13-2-3.4-2-3.4S26,25.83,27,28Zm3.73-.9c-.78-1.33-1.24-2.09-1.24-2.09s.36.79,1,2.15Zm-1.84.44c-1-1.79-1.67-2.84-1.67-2.84s.5,1.09,1.37,2.91Zm-3.79.91c-1.42-2.46-2.33-4-2.33-4s.71,1.56,1.92,4.06Zm-4,1c-1.6-2.8-2.65-4.53-2.65-4.53s.82,1.8,2.2,4.64Zm2-.48C22,26.15,21,24.5,21,24.5s.78,1.72,2.1,4.45Z" transform="translate(10.32 3.28)"/><path class="cls-7" d="M16.3,30.55c.05,2.79,0,4.51,0,4.51s-.2-1.68-.45-4.42ZM18,30.13c.28,3,.5,4.83.5,4.83s0-1.9-.06-4.94Zm-4.32,1c.22,2.24.38,3.58.38,3.58s0-1.38,0-3.66Zm-2.19.53c.17,1.73.29,2.74.29,2.74s0-1,0-2.81Zm8.61-2.07c.29,3.1.51,5,.51,5s0-2-.06-5.15ZM9.34,32.22c.14,1.35.23,2.12.23,2.12s0-.79,0-2.17ZM28.1,27.71c.23,2.36.34,3.59.34,3.59s.06-1.26,0-3.67ZM32,26.78A7.2,7.2,0,0,1,32,28.51a4.46,4.46,0,0,0,.15-1.78ZM30,27.24c.2,2,.22,2.76.22,2.76a21.11,21.11,0,0,0,.08-2.83Zm-3.89.94c.26,2.74.4,4.21.4,4.21s.06-1.52,0-4.31Zm-4,1c.29,3.1.51,5,.51,5s0-2-.06-5.15Zm2-.49c.28,3,.5,4.84.5,4.84s0-1.9-.06-4.94Z" transform="translate(10.32 3.28)"/><path class="cls-26" d="M4.63,33.37l.05-.06,29.95-7.2.08,0s-5.29,6.76-13.6,8.76S4.63,33.37,4.63,33.37Z" transform="translate(10.32 3.28)"/><path class="cls-27" d="M4.69,33.3c.54-.67,5.7-6.81,13.55-8.69s15.58,1.15,16.4,1.49Z" transform="translate(10.32 3.28)"/><path class="cls-28" d="M24.18,34.5c-2.25.82-4.31.91-4.61.2s1.27-2,3.52-2.78,4.31-.91,4.62-.2S26.42,33.68,24.18,34.5Z" transform="translate(10.32 3.28)"/><path class="cls-29" d="M33.07,31.49c-4.7,2.31-9,3.3-9.65,2.2s2.66-3.87,7.36-6.18,9-3.3,9.65-2.2S37.77,29.17,33.07,31.49Z" transform="translate(10.32 3.28)"/><path class="cls-30" d="M28.81,32.32c-2.1,1.05-4.11,1.37-4.5.71s1-2.06,3.1-3.11,4.11-1.37,4.5-.71S30.91,31.27,28.81,32.32Z" transform="translate(10.32 3.28)"/><path class="cls-31" d="M27.41,37.95c-9.69,3.54-18.6,3.94-19.9.87s5.49-8.42,15.17-12,18.6-3.94,19.9-.87S37.1,34.4,27.41,37.95Z" transform="translate(10.32 3.28)"/><path class="cls-32" d="M6.27,35.54c-2.37-.43-4.16-1.39-4-2.14s2.21-1,4.58-.57,4.16,1.39,4,2.14S8.64,36,6.27,35.54Z" transform="translate(10.32 3.28)"/><path class="cls-33" d="M15.51,37.46c-5.3-.41-9.51-1.74-9.4-3s4.5-1.92,9.8-1.52,9.51,1.74,9.4,3S20.81,37.86,15.51,37.46Z" transform="translate(10.32 3.28)"/><path class="cls-34" d="M11.43,36c-2.38-.16-4.26-.91-4.2-1.66s2-1.23,4.42-1.06,4.26.91,4.2,1.66S13.81,36.19,11.43,36Z" transform="translate(10.32 3.28)"/><path class="cls-35" d="M7,40.06c-10.22-1.87-17.94-6-17.25-9.24s9.53-4.34,19.74-2.47,17.94,6,17.25,9.24S17.19,41.93,7,40.06Z" transform="translate(10.32 3.28)"/><path class="cls-36" d="M22.36,29.4c-6.57,1.71-12.07,2.5-12.3,1.77S15,28.45,21.55,26.74s12.08-2.5,12.3-1.77S28.93,27.69,22.36,29.4Z" transform="translate(10.32 3.28)"/><path class="cls-37" d="M8.84,34.59c-5.16,1.18-9.61,1.16-9.94-.05s3.6-3.15,8.76-4.34,9.61-1.16,9.94.05S14,33.41,8.84,34.59Z" transform="translate(10.32 3.28)"/><path class="cls-38" d="M30,28.8c-4.11.84-7.7.47-8-.83s2.77-3,6.88-3.88,7.69-.47,8,.83S34.14,28,30,28.8Z" transform="translate(10.32 3.28)"/><path class="cls-39" d="M24.79,32.68c-10,2.61-18.82,2.52-19.65-.2s6.63-7,16.66-9.65,18.82-2.52,19.65.2S34.82,30.07,24.79,32.68Z" transform="translate(10.32 3.28)"/><path class="cls-40" d="M10.84,36.18C.82,38.79-8,38.7-8.8,36s6.64-7,16.66-9.65,18.82-2.52,19.65.2S20.87,33.57,10.84,36.18Z" transform="translate(10.32 3.28)"/></g><path class="cls-23" d="M36.18,26.18l-4.77,1.16c-14.73,3.54-26.78,6-26.78,6s11.83-3.26,26.56-6.8L36,25.43Z" transform="translate(10.32 3.28)"/><path class="cls-41" d="M36.18,26.18l-4.77,1.16c-14.73,3.54-26.78,6-26.78,6s11.83-3.26,26.56-6.8L36,25.43Z" transform="translate(10.32 3.28)"/><g class="cls-42"><path class="cls-6" d="M32.85,37.56c-6.14,5.55-15.13,6.24-15.13,6.24s1-8.3,7.13-13.85S40,23.71,40,23.71,39,32,32.85,37.56Z" transform="translate(10.32 3.28)"/><path class="cls-7" d="M25.27,37c-2.39-1.62-3.84-2.65-3.84-2.65s1.59.89,4.14,2.38Zm1.9-1.71c-2.78-1.63-4.53-2.6-4.53-2.6s1.6,1.13,4.21,2.9Zm-3.27,3c-2.09-1.22-3.36-1.92-3.36-1.92s1.16.82,3.11,2.15Zm-1.68,1.51c-1.62-.94-2.58-1.47-2.58-1.47s.87.62,2.38,1.65Zm6.5-5.87C25.84,32.21,24,31.18,24,31.18s1.67,1.18,4.39,3Zm-8.14,7.35-2-1.14,1.84,1.28Zm14-12.63c-2.21-1.28-3.56-2-3.56-2s1.23.87,3.29,2.28Zm2.76-2.49-2.19-1.25,2,1.4ZM36,27.35c-1.86-1.08-3-1.7-3-1.7s1,.72,2.75,1.9Zm-2.8,2.53C30.62,28.4,29,27.51,29,27.51s1.45,1,3.84,2.65Zm-2.92,2.64c-2.89-1.69-4.72-2.72-4.72-2.72s1.67,1.18,4.39,3Zm1.48-1.34c-2.78-1.63-4.53-2.6-4.53-2.6s1.6,1.13,4.21,2.9Z" transform="translate(10.32 3.28)"/><path class="cls-7" d="M26.34,36c1.54,2.4,2.46,3.9,2.46,3.9S27.73,38.53,26,36.27Zm1.27-1.15c1.84,2.46,3,4,3,4s-1-1.65-2.69-4.26Zm-3.2,2.89c1.39,1.84,2.24,2.94,2.24,2.94s-.73-1.2-2-3.17ZM22.79,39.2c1.08,1.43,1.72,2.25,1.72,2.25S24,40.55,23,39Zm6.37-5.75C31.07,36,32.3,37.6,32.3,37.6s-1.06-1.73-2.81-4.45Zm-8,7.19c.84,1.11,1.33,1.74,1.33,1.74s-.42-.69-1.17-1.88ZM35.08,28.11l2.22,3s-.62-1.12-2-3.2Zm2.86-2.58a7.84,7.84,0,0,1,1,1.46s0-.32-.82-1.62Zm-1.41,1.28c1.23,1.64,1.67,2.3,1.67,2.3a22.38,22.38,0,0,0-1.44-2.5Zm-2.88,2.6,2.6,3.48s-.76-1.35-2.3-3.75Zm-3,2.67c1.91,2.56,3.14,4.14,3.14,4.14S32.77,34.5,31,31.78Zm1.49-1.35c1.84,2.46,3,4,3,4s-1-1.65-2.69-4.26Z" transform="translate(10.32 3.28)"/><path class="cls-43" d="M17.72,43.8s0,0,0-.08l22.16-20H40S39,32,32.85,37.56,17.72,43.8,17.72,43.8Z" transform="translate(10.32 3.28)"/><path class="cls-44" d="M17.73,43.73C17.85,42.9,19,35.2,24.85,30s14.15-6.15,15-6.24Z" transform="translate(10.32 3.28)"/><path class="cls-45" d="M35.3,35.81c-1.51,1.75-3.26,2.77-3.9,2.3s.06-2.28,1.57-4,3.26-2.78,3.9-2.3S36.82,34.06,35.3,35.81Z" transform="translate(10.32 3.28)"/><path class="cls-46" d="M41.42,29.11c-2.84,4.17-6.07,7-7.21,6.34s.24-4.58,3.08-8.75,6.07-7,7.21-6.34S44.26,24.94,41.42,29.11Z" transform="translate(10.32 3.28)"/><path class="cls-47" d="M38.16,31.79c-1.26,1.88-2.84,3.08-3.53,2.68s-.23-2.24,1-4.12,2.84-3.08,3.53-2.68S39.42,29.92,38.16,31.79Z" transform="translate(10.32 3.28)"/><path class="cls-48" d="M40,37.32c-6.52,7.53-14,12-16.82,9.9s.26-9.83,6.78-17.36,14-12,16.82-9.9S46.47,29.79,40,37.32Z" transform="translate(10.32 3.28)"/><path class="cls-49" d="M20.3,44.94c-2.29.71-4.36.7-4.62,0s1.38-1.89,3.67-2.6,4.36-.7,4.62,0S22.59,44.23,20.3,44.94Z" transform="translate(10.32 3.28)"/><path class="cls-50" d="M29.35,42.37c-4.82,2.08-9.19,2.85-9.76,1.72s2.88-3.74,7.7-5.82,9.19-2.85,9.76-1.72S34.18,40.28,29.35,42.37Z" transform="translate(10.32 3.28)"/><path class="cls-51" d="M25.05,43c-2.15.95-4.18,1.17-4.53.49s1.11-2,3.27-3S28,39.36,28.32,40,27.21,42,25.05,43Z" transform="translate(10.32 3.28)"/><path class="cls-52" d="M23.34,48.54c-9.87,3.07-18.79,3-19.92-.1s6-8.14,15.83-11.21,18.79-3,19.93.1S33.21,45.47,23.34,48.54Z" transform="translate(10.32 3.28)"/><path class="cls-53" d="M31,32.22c-4.79,4.5-9.15,7.72-9.74,7.18s2.82-4.62,7.61-9.12S38,22.56,38.61,23.1,35.79,27.72,31,32.22Z" transform="translate(10.32 3.28)"/><path class="cls-54" d="M22,42.94c-3.85,3.4-7.73,5.42-8.66,4.52s1.44-4.39,5.29-7.79,7.73-5.42,8.66-4.52S25.88,39.54,22,42.94Z" transform="translate(10.32 3.28)"/><path class="cls-55" d="M37.34,28.18c-3.12,2.62-6.43,3.94-7.4,3s.79-3.91,3.91-6.53,6.43-3.94,7.4-3S40.46,25.56,37.34,28.18Z" transform="translate(10.32 3.28)"/><path class="cls-56" d="M34.86,33.95c-7.31,6.87-15,10.84-17.17,8.85s2-9.16,9.31-16,15-10.83,17.17-8.85S42.18,27.08,34.86,33.95Z" transform="translate(10.32 3.28)"/><path class="cls-57" d="M24.62,43.39c-7.31,6.87-15,10.83-17.17,8.85s2-9.16,9.31-16,15-10.83,17.17-8.85S31.93,36.52,24.62,43.39Z" transform="translate(10.32 3.28)"/></g><path class="cls-23" d="M41.28,23.07l-3.52,3.2c-10.9,9.84-20,17.54-20,17.54s8.54-8.26,19.44-18.11l3.54-3.18Z" transform="translate(10.32 3.28)"/><path class="cls-58" d="M41.28,23.07l-3.52,3.2c-10.9,9.84-20,17.54-20,17.54s8.54-8.26,19.44-18.11l3.54-3.18Z" transform="translate(10.32 3.28)"/><g class="cls-59"><path class="cls-6" d="M25.32,25.63c-4.66-6.68-3.62-15-3.62-15s8.59,2.53,13.25,9.2,3.62,15,3.62,15S30,32.3,25.32,25.63Z" transform="translate(10.32 3.28)"/><path class="cls-7" d="M27.39,18.85c2.19-1.85,3.56-3,3.56-3s-1.25,1.27-3.33,3.29Zm1.44,2.06c2.27-2.2,3.65-3.6,3.65-3.6S31,18.53,28.58,20.56Zm-2.48-3.55C28,15.69,29,14.68,29,14.68s-1.1.89-2.89,2.4Zm-1.27-1.82c1.31-1.29,2.07-2.06,2.07-2.06s-.83.67-2.22,1.84ZM30,22.6c2.36-2.29,3.81-3.76,3.81-3.76s-1.58,1.29-4.06,3.39Zm-6.17-8.85,1.59-1.59-1.71,1.42ZM34.44,29c1.79-1.75,2.86-2.83,2.86-2.83s-1.17.95-3.06,2.54Zm2.1,3c1.12-1.1,1.75-1.75,1.75-1.75l-1.88,1.56Zm-1-1.48c1.5-1.48,2.38-2.37,2.38-2.37s-1,.78-2.55,2.12Zm-2.13-3.05c2.08-2,3.33-3.29,3.33-3.29s-1.37,1.11-3.56,3Zm-2.22-3.18C33.52,22,35,20.49,35,20.49s-1.58,1.28-4.06,3.39Zm1.12,1.61c2.27-2.2,3.65-3.6,3.65-3.6S34.42,23.49,32,25.51Z" transform="translate(10.32 3.28)"/><path class="cls-7" d="M28.26,20c-2.84.93-4.61,1.47-4.61,1.47s1.66-.7,4.38-1.79Zm1,1.38c-3,1.18-4.8,2-4.8,2s1.95-.59,5-1.61ZM26.8,17.93c-2.22.9-3.55,1.46-3.55,1.46S24.66,19,27,18.2Zm-1.23-1.76c-1.72.7-2.72,1.12-2.72,1.12s1.07-.32,2.87-.9Zm4.83,6.92c-3.09,1.23-5,2-5,2s2-.62,5.26-1.68Zm-6-8.65-2.1.87,2.22-.7ZM34.88,29.51l-3.57,1.43s1.31-.35,3.77-1.14ZM37,32.62a9,9,0,0,1-1.74.62,5.51,5.51,0,0,0,1.88-.43ZM36,31.08c-2,.8-2.76,1.07-2.76,1.07a26.26,26.26,0,0,0,2.93-.82ZM33.79,28,29.6,29.63s1.58-.42,4.42-1.35Zm-2.24-3.21c-3.09,1.23-5,2-5,2s2-.62,5.26-1.67Zm1.13,1.62c-3,1.18-4.8,2-4.8,2s1.94-.59,5-1.61Z" transform="translate(10.32 3.28)"/><path class="cls-60" d="M21.7,10.65l.08,0,16.8,24.07v.08S30,32.3,25.32,25.63,21.7,10.65,21.7,10.65Z" transform="translate(10.32 3.28)"/><path class="cls-61" d="M21.78,10.68c.85.27,8.77,2.87,13.17,9.18s3.72,14.06,3.63,14.9Z" transform="translate(10.32 3.28)"/><path class="cls-62" d="M26.69,28.2c-1.55-1.72-2.29-3.51-1.66-4s2.4.51,4,2.22,2.29,3.51,1.66,4S28.24,29.92,26.69,28.2Z" transform="translate(10.32 3.28)"/><path class="cls-63" d="M32.57,35.08c-3.85-3.4-6.21-6.89-5.28-7.8s4.8,1.12,8.65,4.53,6.21,6.89,5.29,7.8S36.42,38.48,32.57,35.08Z" transform="translate(10.32 3.28)"/><path class="cls-64" d="M30.38,31.59c-1.74-1.51-2.7-3.19-2.14-3.74s2.42.23,4.16,1.74,2.7,3.19,2.14,3.73S32.12,33.11,30.38,31.59Z" transform="translate(10.32 3.28)"/><path class="cls-65" d="M24.18,32.13C17.5,24.73,14.3,17,17,14.9s10.35,2.18,17,9.58,9.89,15.12,7.16,17.23S30.86,39.53,24.18,32.13Z" transform="translate(10.32 3.28)"/><path class="cls-66" d="M20,12.77c-.3-2.22.12-4.1.93-4.19s1.73,1.63,2,3.85-.12,4.1-.93,4.19S20.29,15,20,12.77Z" transform="translate(10.32 3.28)"/><path class="cls-67" d="M20.93,21.5c-1.25-4.79-1.21-8.91.1-9.21s3.39,3.35,4.64,8.14,1.21,8.91-.1,9.21S22.18,26.3,20.93,21.5Z" transform="translate(10.32 3.28)"/><path class="cls-68" d="M21.11,17.47c-.58-2.14-.41-4,.38-4.22s1.9,1.41,2.48,3.55.41,4-.38,4.21S21.69,19.62,21.11,17.47Z" transform="translate(10.32 3.28)"/><path class="cls-69" d="M15.58,14.82c-1.3-9.57.5-17.67,4-18.08s7.44,7,8.74,16.59-.51,17.67-4,18.08S16.88,24.39,15.58,14.82Z" transform="translate(10.32 3.28)"/><path class="cls-70" d="M31.33,25c-3.82-5.24-6.36-9.83-5.68-10.26S30,18.2,33.81,23.45s6.36,9.84,5.68,10.27S35.15,30.24,31.33,25Z" transform="translate(10.32 3.28)"/><path class="cls-71" d="M21.76,14.74C18.93,10.57,17.55,6.65,18.69,6s4.37,2.18,7.2,6.34S30.1,20.42,29,21.08,24.6,18.91,21.76,14.74Z" transform="translate(10.32 3.28)"/><path class="cls-72" d="M34.37,31.55c-2.16-3.35-2.9-6.62-1.67-7.3s4,1.48,6.14,4.84,2.9,6.62,1.66,7.3S36.52,34.9,34.37,31.55Z" transform="translate(10.32 3.28)"/><path class="cls-73" d="M28.75,28.17c-5.83-8-8.51-15.76-6-17.34s9.3,3.62,15.13,11.62,8.51,15.76,6,17.34S34.57,36.17,28.75,28.17Z" transform="translate(10.32 3.28)"/><path class="cls-74" d="M20.77,17c-5.83-8-8.51-15.76-6-17.34s9.3,3.62,15.13,11.62,8.51,15.76,6,17.34S26.6,25,20.77,17Z" transform="translate(10.32 3.28)"/></g><path class="cls-23" d="M39,36.14c-.88-1.24-1.78-2.52-2.69-3.83C28,20.47,21.7,10.65,21.7,10.65S28.76,20,37,31.88l2.66,3.84Z" transform="translate(10.32 3.28)"/><path class="cls-75" d="M39,36.14c-.88-1.24-1.78-2.52-2.69-3.83C28,20.47,21.7,10.65,21.7,10.65S28.76,20,37,31.88l2.66,3.84Z" transform="translate(10.32 3.28)"/><g class="cls-76"><path class="cls-77" d="M43,29.49c6.16-2.41,8.95-9.27,8.95-9.27s-7.19-3-13.35-.54-8.95,9.26-8.95,9.26S36.84,31.9,43,29.49Z" transform="translate(10.32 3.28)"/><path class="cls-7" d="M44.11,23.31c-.62-2.7-1-4.37-1-4.37s.5,1.62,1.27,4.26Zm-1.27.5c-.84-2.88-1.39-4.66-1.39-4.66s.39,1.84,1.07,4.79ZM46,22.56c-.63-2.16-1-3.45-1-3.45s.28,1.33.78,3.55Zm1.63-.64c-.5-1.67-.8-2.65-.8-2.65s.21,1,.6,2.72Zm-6.38,2.5c-.87-3-1.45-4.86-1.45-4.86s.41,1.93,1.11,5Zm8-3.12c-.39-1.3-.62-2-.62-2s.16.77.46,2.1ZM35.35,26.73c-.67-2.28-1.1-3.65-1.1-3.65s.3,1.42.83,3.76Zm-2.86,1.12c-.42-1.42-.68-2.24-.68-2.24s.18.85.5,2.31Zm1.42-.55c-.57-1.92-.92-3-.92-3s.25,1.17.69,3.14Zm2.89-1.13c-.77-2.64-1.27-4.26-1.27-4.26s.35,1.67,1,4.37Zm3-1.16c-.87-3-1.45-4.86-1.45-4.86s.41,1.93,1.11,5Zm-1.5.58c-.84-2.87-1.39-4.66-1.39-4.66s.39,1.84,1.06,4.79Z" transform="translate(10.32 3.28)"/><path class="cls-7" d="M43.59,23.47C45.07,25.84,46,27.31,46,27.31s-1-1.41-2.66-3.71Zm-1.9.74c1.77,2.52,2.91,4.07,2.91,4.07s-1-1.62-2.58-4.19ZM45,22.94c1.34,1.89,2.16,3,2.16,3s-.7-1.17-1.91-3.11Zm1.68-.66c1,1.46,1.66,2.31,1.66,2.31s-.53-.89-1.46-2.39Zm-6.52,2.55c1.85,2.62,3,4.24,3,4.24s-1-1.7-2.7-4.37Zm8.16-3.19c.81,1.13,1.29,1.78,1.29,1.78l-1.13-1.84Zm-14,5.48c1.41,2,2.2,3,2.2,3L34.54,27ZM31.5,28.2a5.78,5.78,0,0,0,1.15,1.38,9.66,9.66,0,0,1-1-1.45Zm1.36-.53a27.31,27.31,0,0,0,1.74,2.28s-.45-.65-1.51-2.37Zm2.81-1.1c1.63,2.31,2.57,3.52,2.57,3.52L36,26.45Zm2.93-1.14c1.85,2.62,3,4.24,3,4.24s-1-1.7-2.69-4.37ZM37.12,26C38.9,28.52,40,30.07,40,30.07s-1-1.62-2.58-4.19Z" transform="translate(10.32 3.28)"/><path class="cls-78" d="M51.95,20.22l-.07,0L29.67,28.88l0,.06s7.19,3,13.35.54S51.95,20.22,51.95,20.22Z" transform="translate(10.32 3.28)"/><path class="cls-79" d="M51.88,20.2c-.72-.28-7.46-2.79-13.29-.52S30,28.2,29.67,28.88Z" transform="translate(10.32 3.28)"/><path class="cls-80" d="M40.93,30.66c1.83-.42,3.12-1.35,2.88-2.08s-1.92-1-3.76-.56-3.12,1.35-2.88,2.08S39.1,31.08,40.93,30.66Z" transform="translate(10.32 3.28)"/><path class="cls-81" d="M33.81,32.53c4.19-.39,7.36-1.69,7.08-2.9s-3.9-1.87-8.09-1.47-7.36,1.69-7.08,2.9S29.63,32.92,33.81,32.53Z" transform="translate(10.32 3.28)"/><path class="cls-82" d="M36.86,31.14c1.88-.16,3.28-.88,3.11-1.61s-1.82-1.19-3.71-1-3.28.88-3.11,1.61S35,31.3,36.86,31.14Z" transform="translate(10.32 3.28)"/><path class="cls-83" d="M41,35.05c7.91-1.81,13.47-5.83,12.43-9s-8.3-4.22-16.2-2.4-13.47,5.83-12.43,9S33.14,36.86,41,35.05Z" transform="translate(10.32 3.28)"/><path class="cls-84" d="M52.26,22.79c1.16-1.51,1.66-3.16,1.12-3.7s-1.92.25-3.08,1.76-1.66,3.16-1.12,3.7S51.1,24.3,52.26,22.79Z" transform="translate(10.32 3.28)"/><path class="cls-85" d="M47.88,28.86c2.93-2.91,4.65-6.05,3.84-7s-3.84.62-6.77,3.53-4.65,6.05-3.84,7S44.95,31.77,47.88,28.86Z" transform="translate(10.32 3.28)"/><path class="cls-86" d="M49.47,25.71c1.32-1.29,2-2.82,1.52-3.4s-2,0-3.28,1.28-2,2.82-1.52,3.4S48.14,27,49.47,25.71Z" transform="translate(10.32 3.28)"/><path class="cls-87" d="M54.53,26.83c5-6.5,7.16-13.64,4.82-15.95S51.07,12,46.07,18.48s-7.16,13.64-4.82,15.95S49.53,33.33,54.53,26.83Z" transform="translate(10.32 3.28)"/><path class="cls-88" d="M39,25.61c4.95-1.8,8.71-3.83,8.41-4.54s-4.56.17-9.51,2-8.72,3.83-8.41,4.54S34,27.41,39,25.61Z" transform="translate(10.32 3.28)"/><path class="cls-89" d="M50.16,23.27c3.79-1.55,6.44-3.73,5.91-4.88s-4-.83-7.83.72S41.81,22.84,42.34,24,46.37,24.82,50.16,23.27Z" transform="translate(10.32 3.28)"/><path class="cls-90" d="M34,28.85c3-1.31,4.88-3.36,4.29-4.58s-3.47-1.13-6.43.18S27,27.82,27.61,29,31.08,30.16,34,28.85Z" transform="translate(10.32 3.28)"/><path class="cls-91" d="M39.48,29.47c7.55-2.74,12.76-7.1,11.64-9.72S43,17.22,35.4,20s-12.76,7.1-11.64,9.72S31.93,32.22,39.48,29.47Z" transform="translate(10.32 3.28)"/></g><path class="cls-23" d="M28.79,29.7l3.54-1.37c10.92-4.27,19.61-8.1,19.61-8.1s-9,3.1-19.94,7.37L28.47,29Z" transform="translate(10.32 3.28)"/><path class="cls-92" d="M28.79,29.7l3.54-1.37c10.92-4.27,19.61-8.1,19.61-8.1s-9,3.1-19.94,7.37L28.47,29Z" transform="translate(10.32 3.28)"/><path class="cls-93" d="M33.75,23.13c1-.94,2.59-2.38,2.78-2.57a3.71,3.71,0,0,1,.4-.32,2.6,2.6,0,0,1-.47.79l-.17.18A9.65,9.65,0,0,1,34.13,23a2.86,2.86,0,0,1-.38.13Z" transform="translate(10.32 3.28)"/><path class="cls-94" d="M37.93,19.69c1-.44,3.35-.17,3.64,1.08C42.08,23,43,22.09,44.11,23.7a3.28,3.28,0,0,1,.66,2,12.86,12.86,0,0,0-1,3.56c0,.71.36.21.26,1.14,0,.32-.92,1.11-1,1.18-1.34.86-1.35.55-2.86.58-.91,0-.56-.3-1.65.2a2.32,2.32,0,0,1-1.79.33c-.11,0-.34-.23-.46-.23-.29-.63-.56-.07-1-2.17-.22-1,0-.69-.51-1.7l-.09,0c-.45-.93-.91-.75-1.74-.74-.24,0-1.25-.14-1.32-.42-.3-.45.37-2.37.73-2.73,0-.21.48-.56.5-.74s3.44-3.13,3.71-3.42,1.27-1,1.4-.87Z" transform="translate(10.32 3.28)"/><path class="cls-93" d="M37.93,19.69c1-.44,3.35-.17,3.64,1.08.5,2.21,1.44,1.36,2.48,2.83A4.67,4.67,0,0,1,42.44,23h-.07L42,22.53c-.61-.62-1-2.33-1.44-2.33-.1-.21-.93-.35-1.09-.4-.82-.31-.91.19-1.58-.12Z" transform="translate(10.32 3.28)"/><path class="cls-93" d="M44.06,29.95a2,2,0,0,1,0,.46c0,.32-.92,1.11-1,1.18-1.34.86-1.35.55-2.86.58-.91,0-.56-.3-1.65.2a2.32,2.32,0,0,1-1.79.33c-.11,0-.34-.23-.46-.23-.29-.63-.56-.07-1-2.17,0-.11,0-.2,0-.29.56,1,.68,2.13,1.54,2.37,1.44.42.91-.13,1.94-.37a8.47,8.47,0,0,1,1.68-.08c.3-.1.77.25,1.45-.07a4.63,4.63,0,0,0,1.27-.69c.67-.43.43-.7,1-1.24Z" transform="translate(10.32 3.28)"/><path class="cls-93" d="M44.78,25.6s0,.07,0,.11a12.86,12.86,0,0,0-1,3.56c0,.49.17.42.25.61a1.36,1.36,0,0,1-.53-1.35c.11-.63.19-1.11.32-1.75a2,2,0,0,1,1-1.18Z" transform="translate(10.32 3.28)"/><path class="cls-94" d="M25.29,19.7c-.3-1.07.26-3.42,1.5-3.55,2.26-.24,1.46-1.33,3.17-2.21a3.12,3.12,0,0,1,2-.43A11.84,11.84,0,0,0,35.34,15c.7.07.25-.35,1.14-.12.3.07,1,1.06,1,1.19.67,1.46.36,1.44.21,3-.09.92-.36.52,0,1.69a2.47,2.47,0,0,1,.1,1.84c0,.12-.26.32-.27.44-.66.21-.14.56-2.23.77-1,.11-.66-.1-1.71.32l0,.08c-1,.33-1.6.67-1.68,1.51-.22.24-.36,1.4-.63,1.43-.47.24-1.44-.65-1.75-1.07-.2,0-.47-.56-.66-.58,0-.07-2.61-3.88-2.86-4.2s-.77-1.39-.67-1.54Z" transform="translate(10.32 3.28)"/><path class="cls-93" d="M25.29,19.7c-.3-1.07.26-3.42,1.5-3.55,2.22-.23,1.5-1.29,3.07-2.17A5.09,5.09,0,0,1,29,15.55s0-.17,0,.08l-.47.33c-.67.54-2.4.75-2.43,1.17-.22.08-.45.89-.53,1-.4.8.07,1-.31,1.6a.12.12,0,0,1,0-.07Z" transform="translate(10.32 3.28)"/><path class="cls-93" d="M36,14.76a1.74,1.74,0,0,1,.46.07c.3.07,1,1.06,1,1.19.67,1.46.36,1.44.21,3-.09.92-.36.52,0,1.69a2.47,2.47,0,0,1,.1,1.84c0,.12-.26.32-.27.44-.66.21-.14.56-2.23.77l-.29,0c1.06-.45,2.15-.44,2.5-1.27.57-1.42,0-.94-.12-2a10.33,10.33,0,0,1,.12-1.71c0-.31.34-.75.11-1.48a5,5,0,0,0-.51-1.38c-.34-.73-.63-.52-1.08-1.17Z" transform="translate(10.32 3.28)"/><path class="cls-93" d="M31.88,13.5H32A11.84,11.84,0,0,0,35.34,15c.47,0,.41-.13.61-.18a1.3,1.3,0,0,1-1.38.38c-.6-.19-1-.33-1.65-.55a2,2,0,0,1-1-1.11Z" transform="translate(10.32 3.28)"/><path class="cls-95" d="M25.29,19.7a4.2,4.2,0,0,1,.38-2.62l.11,0c.2,0,.72.36.86.49,1.51,1.31.65,1,1.14,1.74s.27.83.34,1c.34.85-.14,1.64.22,2.42a5.41,5.41,0,0,0-.68,1c-.73-1.08-1.56-2.29-1.7-2.46s-.77-1.39-.67-1.54Z" transform="translate(10.32 3.28)"/><path class="cls-93" d="M28.12,24.38c-.79-1.17-2-2.93-2.16-3.14a3.24,3.24,0,0,1-.26-.44,2.59,2.59,0,0,1,.71.57l.15.2A9.53,9.53,0,0,1,28,24a3.33,3.33,0,0,1,.09.4Z" transform="translate(10.32 3.28)"/><path class="cls-94" d="M23.84,32.27c-1.07.27-3.34-.33-3.44-1.61-.19-2.32-1.28-1.52-2.11-3.27a3.32,3.32,0,0,1-.37-2.09,12.18,12.18,0,0,0,1.46-3.38c.09-.7-.32-.26-.09-1.17.07-.31,1.06-1,1.18-1,1.45-.65,1.43-.35,2.92-.15.91.11.51.38,1.65,0a2.3,2.3,0,0,1,1.81-.06c.11,0,.31.27.43.29.19.68.53.15.71,2.3.09,1-.11.68.27,1.76l.09,0c.3,1,.5,1.4,1.32,1.5.25,0,.72.9.74,1.19a1.32,1.32,0,0,1-.32,1.5c0,.2-.55.48-.58.65-.06,0-3.85,2.58-4.16,2.83s-1.39.76-1.51.65Z" transform="translate(10.32 3.28)"/><path class="cls-93" d="M23.84,32.27c-1.07.27-3.34-.33-3.44-1.61-.19-2.27-1.24-1.56-2.06-3.18.58.26,1.46.7,1.5.88,0,0-.15,0,.07,0,0,0,.29.45.32.49.52.7.7,2.46,1.1,2.51.06.24.86.48,1,.57.77.43.93-.06,1.55.35Z" transform="translate(10.32 3.28)"/><path class="cls-93" d="M19.22,21.21a1.74,1.74,0,0,1,.07-.46c.07-.31,1.06-1,1.18-1,1.45-.65,1.43-.35,2.92-.15.91.11.51.38,1.65,0a2.3,2.3,0,0,1,1.81-.06c.11,0,.31.27.43.29.19.68.53.15.71,2.3,0,.11,0,.21,0,.3-.42-1.1-.38-2.21-1.19-2.57-1.38-.62-.92,0-2,.08a8.22,8.22,0,0,1-1.66-.18c-.32.06-.74-.35-1.45-.14a5,5,0,0,0-1.35.5c-.72.33-.53.63-1.17,1.08Z" transform="translate(10.32 3.28)"/><path class="cls-93" d="M17.89,25.4s0-.07,0-.11a12.18,12.18,0,0,0,1.46-3.38c.06-.48-.11-.43-.15-.63a1.36,1.36,0,0,1,.34,1.42c-.2.61-.35,1.06-.57,1.68a2,2,0,0,1-1.1,1Z" transform="translate(10.32 3.28)"/><path class="cls-95" d="M23.27,32.34c-1.15,0-2.78-.61-2.87-1.68a3.14,3.14,0,0,0-.35-1.33c.67-.07,1.3,0,1.65-.6a2,2,0,0,1,1.95-1s.58.93.67,1.07c.41.68-.26,2.45-1.06,3.51Z" transform="translate(10.32 3.28)"/><path class="cls-93" d="M28.47,29.47c-1.17.79-2.91,2-3.12,2.14a3.91,3.91,0,0,1-.43.25,2.81,2.81,0,0,1,.56-.7l.21-.15a9,9,0,0,1,2.38-1.45,2.84,2.84,0,0,1,.4-.08Z" transform="translate(10.32 3.28)"/><path class="cls-93" d="M32,32c-.06,1.43-.12,3.57-.11,3.84a3.63,3.63,0,0,1,0,.51,2.74,2.74,0,0,1-.24-.88v-.26a9.37,9.37,0,0,1,.22-2.83A3,3,0,0,1,32,32Z" transform="translate(10.32 3.28)"/><path class="cls-94" d="M31.54,37.51c-.4,1-2.21,2.58-3.28,1.93-1.95-1.2-2,.17-3.84-.15a3.18,3.18,0,0,1-1.87-.9,12.35,12.35,0,0,0-1.84-3.19c-.52-.49-.4.12-1-.61A3.87,3.87,0,0,1,19.61,33c.32-1.58.56-1.38,1.56-2.51.62-.69.61-.2,1-1.36a2.47,2.47,0,0,1,1-1.55c.1-.07.4-.1.48-.18.65.23.43-.37,2.23.74.88.54.48.49,1.56.8l.09,0c1,.32,1.15-.14,1.71-.76.16-.19,1-.83,1.2-.69.52.1,1.42,1.92,1.43,2.44.15.13,0,.73.17.87s-.17,4.7-.16,5.11a4.39,4.39,0,0,1-.36,1.64Z" transform="translate(10.32 3.28)"/><path class="cls-93" d="M31.54,37.51c-.4,1-2.21,2.58-3.28,1.93-1.91-1.17-2,.12-3.72-.14a4.9,4.9,0,0,1,1.58-.74s-.11.12,0-.06c0,0,.51,0,.57,0,.86,0,2.36.86,2.63.55.24.08.88-.44,1-.51.78-.39.5-.81,1.18-1.08,0,0,0,0,0,0Z" transform="translate(10.32 3.28)"/><path class="cls-93" d="M20.05,34.91a1.46,1.46,0,0,1-.34-.33A3.87,3.87,0,0,1,19.61,33c.32-1.58.56-1.38,1.56-2.51.62-.69.61-.2,1-1.36a2.47,2.47,0,0,1,1-1.55c.1-.07.4-.1.48-.18.65.23.43-.37,2.23.74l.25.15c-1.1-.29-2-1-2.74-.5-1.28.77-.53.76-1.07,1.69a9.63,9.63,0,0,1-1.1,1.29c-.15.29-.71.4-1,1.12a4.74,4.74,0,0,0-.4,1.42c-.15.79.2.81.19,1.59Z" transform="translate(10.32 3.28)"/><path class="cls-93" d="M22.62,38.46l-.07-.08a12.35,12.35,0,0,0-1.84-3.19c-.35-.33-.41-.15-.6-.24a1.29,1.29,0,0,1,1.32.54c.37.52.66.92,1,1.45a2.14,2.14,0,0,1,.17,1.52Z" transform="translate(10.32 3.28)"/><path class="cls-96" d="M33.52,28.18c-.32-.21-.71-.13-1.27-.12a4.18,4.18,0,0,1-1-.17,4.07,4.07,0,0,0-.43-.51,5.05,5.05,0,0,1,.81-2.48c0-.2.48-.55.48-.74,0,0,.29-.25.68-.6,0,0,0,0,0,.08a6.35,6.35,0,0,0-.37,1.06s.89-.76.93-.93c.31-.11,0,.33.07.46,0-.08,0-.11,0-.13s1.07-.67,1.1-.67c0,.24-.36.67-.34.75a10.53,10.53,0,0,1,1.17-.6c0,.13-.61.71-.62.73a.41.41,0,0,0,0,.12c0-.2.65-.2.81-.17s-.61.55-.61.57a4.54,4.54,0,0,1,1.86,0l-.88.32c.1,0,.66-.11.68,0-.14.06-.3.11-.45.18s.17,0,.19,0-.11.18-.16.31.41.23.32.37c-.81.08-.27.25-1.17.33.31,0,1.3.15.94.4a1.82,1.82,0,0,0-1-.08,1.66,1.66,0,0,1,.72.14c0,.21-.42,0-.5.1s.24.32.26.4c-.14.06-.82-.21-1,0a1.21,1.21,0,0,1,.71.29c-.09.06-.5-.1-.56-.06s.16.1.22.21c-.15,0-.21-.06-.25,0a.81.81,0,0,1,.17.44,3.79,3.79,0,0,0-1.56-.19Z" transform="translate(10.32 3.28)"/><path class="cls-96" d="M32.9,23.79a3.27,3.27,0,0,0-1,1.87c-.22.24-.36,1.4-.63,1.43-.47.24-1.44-.65-1.75-1.07-.2,0-.47-.56-.66-.58,0,0-.38-.61-.87-1.32l0-.06c.25,0,.57.49.66.49a13.32,13.32,0,0,1-.35-1.3c.14,0,.57.75.58.77l.11,0c-.19-.1.2-1.44.26-1.58s.41.71.43.71a5,5,0,0,1,.4-1.87s.15.94.14,1,0-.67.14-.68c0,.15,0,.32.09.49a1.09,1.09,0,0,0,.07-.18c.12,0,.16.14.27.21s.3-.37.42-.24c-.09.82.19.32.09,1.23,0-.31.4-1.27.57-.87a2,2,0,0,0-.27,1c.07-.23.1-.54.27-.7.2.06,0,.43,0,.51s.36-.17.43-.17-.35.77-.16,1a1.17,1.17,0,0,1,.41-.65c0,.1-.19.48-.16.55s.12-.14.25-.18c0,.14-.1.19,0,.24a.87.87,0,0,1,.35-.08Z" transform="translate(10.32 3.28)"/><path class="cls-96" d="M28.91,25.12a1.29,1.29,0,0,0,.77.32c.25,0,.72.9.74,1.19a1.32,1.32,0,0,1-.32,1.5.15.15,0,0,1,0,.1h0s0,0-.09.1-.43.33-.46.46-.83.55-1.71,1.14c0-.07.12-.18.14-.23a.67.67,0,0,1-.58,0,.22.22,0,0,1,0-.12c.15-.18.72-.63.77-.81a9.49,9.49,0,0,0-1.22.45c-.34,0,.1-.32.11-.45,0,.07,0,.11-.1.1s-1.24.17-1.28.15c.06-.25.61-.46.62-.55a11.88,11.88,0,0,1-1.32.06,3,3,0,0,1,.87-.4s0-.06.06-.1c-.12.15-.67-.1-.79-.2,0-.15.77-.23.78-.26a4.56,4.56,0,0,1-1.69-.82s.92.07.93.08-.63-.18-.62-.29H25l-.15-.11c0-.13.17-.12.27-.21-.07-.06-.29-.39-.15-.48.77.26.36-.12,1.19.18-.29-.11-1.12-.68-.7-.76a1.82,1.82,0,0,0,.92.51c-.2-.13-.48-.23-.61-.43.1-.19.4.13.48.12s-.07-.39-.06-.48.66.52.92.39a1.16,1.16,0,0,1-.52-.56c.1,0,.41.3.48.3s-.11-.17-.11-.3.16.14.22.07a1,1,0,0,1,0-.48c.31.15.68.74,1.39.83a.41.41,0,0,0,.29,0Z" transform="translate(10.32 3.28)"/><path class="cls-96" d="M27.06,28.83l.4.12.09,0c1,.32,1.15-.14,1.71-.76.16-.19,1-.83,1.2-.69.52.1,1.42,1.92,1.43,2.44.15.13,0,.73.17.87s0,.26,0,.63a.67.67,0,0,1-.17.19,3.14,3.14,0,0,1-.15-.48.63.63,0,0,1,0,.48c-.1,0-.1-.19-.14-.24,0,.13-.24.44-.35.48s0-.06-.06-.1a7.93,7.93,0,0,0-.24-1.11,8.58,8.58,0,0,0-.32,1.29c-.2.26-.2-.26-.3-.35s.07.07,0,.13-.56,1.15-.6,1.17c-.16-.18,0-.76-.09-.82s-.55,1.07-.7,1.14a3.4,3.4,0,0,1,.16-1,1.2,1.2,0,0,0,0-.12c.06.19-.45.52-.6.57-.11-.12.24-.79.21-.81-.66.74-1.34.76-1.6,1,0,0,.57-.75.58-.75s-.5.44-.58.37c.09-.13.2-.26.3-.4a1.13,1.13,0,0,0-.19.06c-.1-.07,0-.21,0-.35-.09,0-.47,0-.46-.14.65-.5.1-.37.81-.92-.24.19-1.18.58-1,.17a1.75,1.75,0,0,0,.92-.49c-.21.1-.45.29-.68.27-.1-.19.34-.26.37-.35s-.36-.14-.42-.2.79-.26.84-.57a1.17,1.17,0,0,1-.76.14c0-.1.47-.19.51-.25s-.19,0-.31-.07c.1-.12.21-.06.19-.15a.89.89,0,0,1-.36-.27,1,1,0,0,1,.25-.11Z" transform="translate(10.32 3.28)"/><path class="cls-96" d="M31.33,30.95c.35-.54.1-.92-.15-1.58a4,4,0,0,1-.15-1,6.21,6.21,0,0,0,.58-.65,4.85,4.85,0,0,1,2.31.07c.19-.08.66.29.83.24l.68.4a1.83,1.83,0,0,0-.26,0,.58.58,0,0,1,.43.19c0,.11-.21,0-.27,0,.12,0,.31.39.3.51a.15.15,0,0,1-.12,0,6.79,6.79,0,0,0-1.08-.23s.86.8,1,.81c.15.31-.32.1-.43.14.06,0,.09,0,.12,0s.79,1,.81,1c-.24.08-.71-.27-.78-.24s.74.94.74,1.11c-.14,0-.78-.52-.79-.54s-.07,0-.11,0c.2,0,.29.63.26.8s-.61-.55-.63-.54a5.08,5.08,0,0,1,.22,1.89s-.43-.83-.43-.85.19.64.09.69c-.07-.13-.15-.29-.24-.43a1,1,0,0,0,0,.19c-.11.07-.2-.08-.32-.12s-.17.45-.32.38c-.19-.81-.29-.25-.48-1.13.06.3,0,1.33-.26,1a1.89,1.89,0,0,0-.06-1.06,1.69,1.69,0,0,1,0,.75c-.21,0-.1-.42-.16-.49s-.27.27-.35.31c-.09-.12.09-.86-.16-1a1.24,1.24,0,0,1-.2.76c-.06-.08,0-.52,0-.58s-.07.18-.17.26c-.07-.14,0-.23-.07-.24a.82.82,0,0,1-.4.23,11.37,11.37,0,0,0,.07-1.15Z" transform="translate(10.32 3.28)"/><path class="cls-94" d="M40.36,31.63c.72.85,1.22,3.19.16,3.86-1.95,1.23-.76,1.86-1.91,3.4A3.2,3.2,0,0,1,37,40.17a12,12,0,0,0-3.61.19c-.66.25-.09.42-1,.62a3.69,3.69,0,0,1-1.43-.63c-1.22-1-.93-1.14-1.45-2.58-.31-.87.1-.63-.71-1.52a2.48,2.48,0,0,1-.88-1.63c0-.11.1-.4.06-.51.5-.49-.11-.56,1.68-1.69.87-.55.65-.2,1.42-1v-.1c.72-.73.41-1.11.12-1.9-.07-.24-.26-1.27,0-1.42.32-.43,2.31-.39,2.77-.15.19-.08.66.29.83.24s4,2.33,4.36,2.51,1.29.92,1.25,1.08Z" transform="translate(10.32 3.28)"/><path class="cls-93" d="M40.36,31.63c.72.85,1.22,3.19.16,3.86-1.9,1.2-.81,1.83-1.85,3.31A5,5,0,0,1,38.76,37s0,.15,0-.07l.27-.51c.38-.79,1.84-1.75,1.7-2.14.17-.17,0-1,0-1.18,0-.89-.46-.82-.38-1.56a.1.1,0,0,1,0,.06Z" transform="translate(10.32 3.28)"/><path class="cls-93" d="M35.83,28.66c1.2.7,3,1.76,3.28,1.88a4.21,4.21,0,0,1,.42.27,2.65,2.65,0,0,1-.87-.19l-.24-.12A9,9,0,0,1,36.08,29c-.07-.1-.16-.2-.25-.33Z" transform="translate(10.32 3.28)"/><path class="cls-93" d="M32.8,40.84a1.57,1.57,0,0,1-.43.14,3.69,3.69,0,0,1-1.43-.63c-1.22-1-.93-1.14-1.45-2.58-.31-.87.1-.63-.71-1.52a2.48,2.48,0,0,1-.88-1.63c0-.11.1-.4.06-.51.5-.49-.11-.56,1.68-1.69l.26-.15c-.77.87-1.76,1.35-1.71,2.25.09,1.54.42.85,1,1.76a11.26,11.26,0,0,1,.61,1.6c.19.26,0,.83.52,1.38a5,5,0,0,0,1.06,1c.61.5.78.19,1.46.57Z" transform="translate(10.32 3.28)"/><path class="cls-93" d="M37.06,40.15l-.1,0a12,12,0,0,0-3.61.19c-.45.17-.32.3-.48.43a1.33,1.33,0,0,1,1.08-1c.62-.08,1.08-.17,1.73-.24a2,2,0,0,1,1.39.55Z" transform="translate(10.32 3.28)"/><path class="cls-97" d="M33.16,28.15c-.27-.19-.6-.12-1-.11a3.77,3.77,0,0,1-.79-.13A3.65,3.65,0,0,0,31,27.5a4,4,0,0,1,.66-2c0-.17.4-.45.4-.61,0,0,.24-.2.56-.49a.15.15,0,0,1,0,.07,6,6,0,0,0-.3.87s.73-.62.76-.76c.26-.1,0,.27.06.38,0-.06,0-.08,0-.11s.87-.55.91-.55c0,.2-.3.55-.29.62a10.36,10.36,0,0,1,1-.5c0,.12-.51.6-.52.61s0,.06,0,.1c0-.17.53-.17.66-.13s-.5.44-.5.46a3.94,3.94,0,0,1,1.54,0l-.73.26c.07,0,.53-.08.57,0l-.37.15a.68.68,0,0,0,.15,0c0,.1-.09.14-.12.25s.34.19.26.31c-.67.06-.22.21-1,.27.25,0,1.07.12.77.33a1.49,1.49,0,0,0-.84-.07c.19,0,.43,0,.6.12,0,.18-.35,0-.41.07s.19.27.2.33-.66-.17-.82,0a1,1,0,0,1,.58.24c-.07,0-.41-.07-.46,0s.12.08.19.18c-.12,0-.17,0-.2,0a.74.74,0,0,1,.14.36c-.29,0-.73-.29-1.28-.14Z" transform="translate(10.32 3.28)"/><path class="cls-97" d="M32.64,24.54a2.7,2.7,0,0,0-.86,1.54c-.19.2-.3,1.15-.52,1.18-.38.19-1.18-.55-1.44-.88-.16,0-.38-.46-.53-.49s-.32-.5-.72-1.08a.18.18,0,0,1,0,0c.2,0,.47.4.53.39s-.32-.93-.29-1.06c.11,0,.47.62.47.63l.1,0c-.15-.08.16-1.18.22-1.31s.32.6.35.6a3.88,3.88,0,0,1,.34-1.54s.11.77.11.79,0-.56.11-.57,0,.27.07.4l0-.14c.11,0,.14.12.22.18s.25-.31.35-.2c-.06.68.16.26.07,1,0-.25.32-1,.47-.71a1.52,1.52,0,0,0-.22.85,1.52,1.52,0,0,1,.22-.58c.16,0,0,.36,0,.43s.3-.14.36-.14-.29.63-.14.83a.89.89,0,0,1,.35-.54c0,.07-.16.39-.15.44s.11-.11.21-.14c0,.12-.09.17,0,.2a.63.63,0,0,1,.29-.07Z" transform="translate(10.32 3.28)"/><path class="cls-97" d="M29.36,25.63a1,1,0,0,0,.63.26c.2,0,.58.75.61,1a1.09,1.09,0,0,1-.26,1.24.13.13,0,0,1,0,.08h0s0,0-.07.08-.36.26-.37.37l-1.42.94c0-.06.1-.14.11-.18a.63.63,0,0,1-.48,0s0-.06,0-.1.58-.52.62-.67a7.25,7.25,0,0,0-1,.37c-.26,0,.09-.26.1-.37,0,.06,0,.08-.09.08s-1,.13-1,.12c0-.2.5-.38.51-.44a10.78,10.78,0,0,1-1.08,0,2.9,2.9,0,0,1,.71-.33l.06-.07c-.11.13-.56-.08-.66-.17s.63-.19.63-.21a3.68,3.68,0,0,1-1.38-.68s.76.06.77.07-.52-.14-.52-.24h.41L26,26.71c0-.11.14-.11.21-.19s-.24-.31-.11-.38c.63.21.29-.1,1,.14-.24-.08-.92-.56-.57-.62a1.46,1.46,0,0,0,.74.42c-.16-.11-.4-.19-.5-.36.09-.15.34.11.4.1s-.06-.31,0-.38.55.43.76.32a1.06,1.06,0,0,1-.43-.46c.09,0,.35.25.4.24s-.09-.13-.09-.24.14.12.19.06A.79.79,0,0,1,28,25c.26.12.57.6,1.15.68a.43.43,0,0,0,.24,0Z" transform="translate(10.32 3.28)"/><path class="cls-97" d="M27.84,28.69l.32.1.07,0c.79.26.94-.12,1.4-.63.14-.15.81-.69,1-.56.43.07,1.17,1.57,1.17,2,.14.11,0,.6.16.71a3.58,3.58,0,0,0,0,.52.48.48,0,0,1-.12.14c-.07-.08-.11-.36-.14-.39a.46.46,0,0,1,0,.4c-.07,0-.07-.17-.11-.2s-.19.37-.29.39,0,0,0-.08a5.81,5.81,0,0,0-.2-.9,10.5,10.5,0,0,0-.26,1.06c-.16.21-.16-.21-.24-.29s0,.06,0,.11-.46.94-.48,1c-.14-.15,0-.63-.09-.68s-.45.88-.56.94a2.84,2.84,0,0,1,.12-.79s0-.07,0-.1c0,.15-.36.43-.5.46s.2-.64.19-.67c-.55.61-1.1.63-1.32.81l.47-.62s-.41.36-.47.3.16-.21.24-.33l-.15.06c-.09-.06,0-.18,0-.29s-.38,0-.37-.12c.53-.42.07-.3.66-.75-.19.15-1,.48-.82.13a1.48,1.48,0,0,0,.76-.39,1.68,1.68,0,0,1-.57.23c-.07-.17.27-.23.31-.29s-.3-.13-.35-.18.66-.21.7-.46a1,1,0,0,1-.62.12c0-.08.38-.15.41-.2s-.15,0-.25-.06c.09-.1.17,0,.16-.13a.65.65,0,0,1-.31-.23.85.85,0,0,1,.21-.08Z" transform="translate(10.32 3.28)"/><path class="cls-97" d="M31.35,30.42c.29-.44.07-.75-.12-1.3a4.4,4.4,0,0,1-.12-.81,4.07,4.07,0,0,0,.47-.55,3.93,3.93,0,0,1,1.9.06c.16-.07.55.24.7.19l.56.35a.62.62,0,0,0-.21,0c.1,0,.29.08.36.15s-.19,0-.24,0c.11,0,.26.33.25.43a.14.14,0,0,1-.1,0,5.52,5.52,0,0,0-.89-.19s.71.65.84.67c.12.25-.26.07-.35.12s.07,0,.1,0,.66.81.66.85c-.19.06-.57-.23-.63-.2s.61.77.61.92-.65-.43-.65-.44h-.1c.16,0,.24.52.21.65s-.5-.44-.52-.44a4.13,4.13,0,0,1,.19,1.56s-.36-.68-.36-.69.16.52.07.56-.12-.24-.2-.35v.15c-.1,0-.16-.07-.27-.1s-.14.37-.26.31c-.15-.67-.24-.2-.4-.93,0,.25,0,1.1-.21.82a1.58,1.58,0,0,0-.06-.87,1.47,1.47,0,0,1,0,.62c-.17,0-.09-.35-.12-.39s-.24.23-.3.25.07-.7-.14-.83a1.09,1.09,0,0,1-.15.63c-.06-.07,0-.43,0-.48s-.06.14-.15.2c-.06-.11,0-.18,0-.19a.68.68,0,0,1-.34.19c0-.21.1-.56.06-1Z" transform="translate(10.32 3.28)"/><path class="cls-98" d="M32.82,28.12C32.6,28,32.34,28,32,28a2.19,2.19,0,0,1-.63-.11,3,3,0,0,0-.29-.33A3.29,3.29,0,0,1,31.6,26c0-.14.31-.37.32-.49s.19-.17.43-.39v0a5.29,5.29,0,0,0-.25.7,7.46,7.46,0,0,0,.62-.61c.2-.07,0,.23,0,.3s0-.06,0-.08.71-.44.73-.44c0,.17-.25.44-.22.5a6.53,6.53,0,0,1,.77-.39,2.44,2.44,0,0,1-.42.48s0,0,0,.08c0-.13.43-.14.53-.11s-.4.35-.4.37A3.19,3.19,0,0,1,35,26l-.58.21c.06,0,.42-.07.45,0l-.3.12s.12,0,.12,0-.07.13-.1.21.26.14.2.24c-.52.06-.17.17-.76.23.2,0,.86.1.62.26A1.24,1.24,0,0,0,34,27.2c.15,0,.35,0,.47.1s-.27,0-.32.06.15.21.17.26-.53-.13-.67,0a.79.79,0,0,1,.47.19c-.06,0-.32-.06-.37,0s.11.07.15.15-.14,0-.16,0a.55.55,0,0,1,.11.29c-.22,0-.58-.23-1-.12Z" transform="translate(10.32 3.28)"/><path class="cls-98" d="M32.41,25.25a2.12,2.12,0,0,0-.7,1.23c-.14.15-.22.92-.41.93-.31.17-.94-.43-1.14-.7-.14,0-.31-.36-.43-.38s-.26-.39-.57-.87a.09.09,0,0,1,0,0c.16,0,.37.32.42.32s-.25-.75-.22-.86a2.19,2.19,0,0,1,.38.51.14.14,0,0,0,.07,0c-.12,0,.12-.94.17-1s.26.48.29.48a3,3,0,0,1,.26-1.23s.09.62.09.62,0-.44.09-.44,0,.21.06.32l0-.12c.07,0,.1.1.17.14s.2-.25.27-.17c0,.55.12.21.06.81,0-.2.26-.83.37-.57a1.26,1.26,0,0,0-.17.68c0-.15.06-.36.17-.46s0,.29,0,.33.22-.11.29-.11-.24.51-.11.67a.71.71,0,0,1,.27-.43c0,.06-.12.31-.11.36s.09-.1.16-.12-.06.13,0,.15a.83.83,0,0,1,.24,0Z" transform="translate(10.32 3.28)"/><path class="cls-98" d="M29.79,26.1a.76.76,0,0,0,.5.21c.16,0,.48.6.5.79a.86.86,0,0,1-.21,1,.16.16,0,0,1,0,.07h0l0,.06c-.11.11-.29.21-.3.31s-.55.35-1.13.75c0,0,.07-.12.09-.15s-.32,0-.38,0a.13.13,0,0,1,0-.08c.09-.12.47-.42.5-.52a4.84,4.84,0,0,0-.79.3c-.22,0,.06-.21.07-.3s0,.06-.06.06-.82.11-.84.1.4-.3.41-.36a6.88,6.88,0,0,1-.87,0,2,2,0,0,1,.57-.26l0-.06c-.09.1-.45-.06-.53-.13s.51-.15.52-.18a3,3,0,0,1-1.12-.54s.61,0,.62,0-.42-.11-.41-.18h.32s-.1-.07-.1-.07.11-.08.17-.15-.19-.25-.09-.31c.5.18.22-.07.77.12-.19-.06-.73-.44-.45-.5a1.07,1.07,0,0,0,.6.33c-.14-.08-.32-.14-.4-.27s.26.08.32.07S28,26,28,25.95s.43.35.61.26a.73.73,0,0,1-.35-.37c.06,0,.27.19.32.19s-.07-.11-.07-.19.1.1.15,0a.52.52,0,0,1,0-.31c.21.1.45.48.92.55,0,0,.1,0,.19,0Z" transform="translate(10.32 3.28)"/><path class="cls-98" d="M28.57,28.54l.26.08,0,0c.63.21.76-.1,1.13-.5.1-.12.63-.55.79-.45.34.06.92,1.26.93,1.59.1.1,0,.49.11.58s0,.17,0,.4a.64.64,0,0,1-.11.13,1.72,1.72,0,0,1-.1-.32.41.41,0,0,1,0,.32c-.06,0-.06-.13-.09-.17s-.16.3-.24.32a.1.1,0,0,1,0-.07,5.33,5.33,0,0,0-.16-.73,6,6,0,0,0-.2.86c-.14.17-.14-.18-.2-.24s0,0,0,.1-.36.75-.38.76,0-.5-.06-.54a8.12,8.12,0,0,1-.46.75,2.23,2.23,0,0,1,.11-.63s0,0,0-.07-.29.33-.4.37.16-.51.15-.54c-.43.49-.88.5-1.06.64,0,0,.37-.49.38-.49s-.32.29-.38.24.14-.17.2-.26-.12,0-.12,0,0-.14,0-.24-.31,0-.31-.1c.42-.32.07-.24.53-.6-.16.12-.77.38-.66.11a1.11,1.11,0,0,0,.61-.32,1,1,0,0,1-.46.18c-.06-.12.22-.17.25-.23s-.24-.1-.27-.13.52-.18.55-.37a.73.73,0,0,1-.5.08c0-.06.31-.12.34-.15s-.12,0-.2,0,.14,0,.12-.11a.53.53,0,0,1-.25-.18l.17-.07Z" transform="translate(10.32 3.28)"/><path class="cls-98" d="M31.38,29.94c.22-.36.06-.61-.1-1a2.55,2.55,0,0,1-.1-.65,3.62,3.62,0,0,0,.37-.43,3.18,3.18,0,0,1,1.53,0c.11-.06.43.19.55.15l.45.27a.58.58,0,0,0-.17,0c.09,0,.24.06.29.12s-.14,0-.17,0,.2.26.19.33a.09.09,0,0,1-.07,0,3.48,3.48,0,0,0-.71-.15,5.45,5.45,0,0,0,.67.54c.1.19-.21.06-.29.1s.06,0,.09,0,.52.64.52.67-.46-.18-.51-.15a6.28,6.28,0,0,1,.48.73,2.16,2.16,0,0,1-.51-.36s-.06,0-.09,0c.14,0,.19.42.17.52s-.4-.36-.41-.36a3.22,3.22,0,0,1,.14,1.25S33.4,31,33.4,31s.14.42.06.45-.1-.19-.16-.29v.13c-.07,0-.12-.06-.21-.08s-.11.3-.21.25c-.12-.54-.19-.15-.32-.74,0,.19,0,.87-.16.65a1.29,1.29,0,0,0,0-.69,1.28,1.28,0,0,1,0,.49c-.15,0-.07-.27-.11-.31s-.19.18-.24.2.06-.56-.1-.67a.84.84,0,0,1-.12.5c0-.06,0-.35,0-.38s0,.12-.12.17,0-.14,0-.15a.58.58,0,0,1-.26.15c0-.18.07-.45,0-.76Z" transform="translate(10.32 3.28)"/><path class="cls-99" d="M32.39,29.75c-.14-.11-.06-.06-.17,0-.38,0,0,.25-.41,0-.06,0-.14.14-.34,0a2.58,2.58,0,0,1-.61.3s0,0-.06-.1c-.51.11-.36-.18-.82-.33,0,0-.09,0-.09-.08.3-.29-.34-.26-.52-.45.2-.87.21.49-.06-.37-.1-.32.31.17-.06-.52-.16-.31.45.19-.16-.54a.59.59,0,0,1,.14-.2c-.24-.3-.35.08,0-.42,0-.23.09-.18.2-.37a2.56,2.56,0,0,1,.22-.24c-.31-.64.45-.44.45-.44l.06,0c.31.18.48-.5,1-.26.06,0,.07,0,0,.1,0-.25.93-.61.71-.17-.06.13.1.14.15.19s.42-.1.47.17c0,0,0,0-.07.07s.36-.06.57.18c-.06.08-.11,0-.12.15.42.43.5-.11.51.57,0,.23.71,0,0,.46-.17.1.19.29.22.42s-.16.1-.2.15a2,2,0,0,1,.21.49c-.12.15-.43.08-.35.36-.68.67-.51,0-.61.7,0,.14-.21.2-.32.27Z" transform="translate(10.32 3.28)"/><path class="cls-100" d="M32.17,29.23c-.09-.07,0,0-.11,0-.26,0,0,.17-.27,0,0,0-.1.1-.24,0a1.84,1.84,0,0,1-.41.2s0,0,0-.06c-.35.07-.25-.12-.56-.24,0,0,0,0-.06,0,.21-.2-.22-.18-.35-.31.14-.6.15.33,0-.25-.07-.23.21.12,0-.36-.1-.21.3.12-.11-.37a1.14,1.14,0,0,1,.09-.14c-.15-.2-.24.06,0-.27,0-.15,0-.13.12-.26a1.91,1.91,0,0,0,.16-.15c-.21-.44.3-.3.31-.3l0,0c.21.12.32-.35.67-.18,0,0,0,0,0,.06,0-.17.63-.4.48-.11,0,.08.06.1.1.13s.29-.07.32.11c0,0,0,0,0,0s.24,0,.38.12c0,.07-.07,0-.09.11.29.3.34-.06.35.39,0,.15.48,0,0,.31-.12.07.12.2.15.3s-.11.06-.14.11.1.12.15.32-.3.06-.24.25c-.47.45-.35,0-.41.48,0,.1-.15.14-.22.19Z" transform="translate(10.32 3.28)"/><path class="cls-99" d="M31.92,28.76c-.06,0,0,0-.07,0s0,.11-.17,0-.07.07-.16,0a1.43,1.43,0,0,1-.27.13s0,0,0,0c-.24.06-.16-.07-.37-.14,0,0,0,0,0,0s-.15-.12-.24-.2c.09-.4.1.21,0-.18,0-.14.14.08,0-.24-.06-.13.2.1-.07-.24l.06-.1c-.1-.13-.15,0,0-.18,0-.11,0-.08.09-.17a.46.46,0,0,1,.1-.11c-.14-.3.2-.2.21-.2h0c.14.08.21-.23.45-.12,0,0,0,0,0,0s.42-.27.31-.07,0,.06.07.08.19,0,.21.07,0,0,0,0,.15,0,.25.08,0,0,0,.07c.19.19.22,0,.22.25,0,.11.32,0,0,.21-.09,0,.09.13.1.19s-.07,0-.09.07.06.08.09.21-.2,0-.15.17c-.31.3-.24,0-.27.31,0,.07-.1.1-.15.13Z" transform="translate(10.32 3.28)"/><g id="_Group_" data-name="&lt;Group&gt;"><path class="cls-101" d="M29.44,37.54c.41-.05.7-.4,1.11-.5a15,15,0,0,1,2-.35c2.82,1.43,3.08,3.78,6.32,3.75a3.35,3.35,0,0,0-.1.74c.06.68,1.1.79,1.15,1.43,0,.36-1.23,0-1.14,1,0,.44.4.86.52,1.3-.91.28-2.28.41-2.27,1.67a.31.31,0,0,1-.32.36c-.33,0-.86-.18-1.15-.16s-.46,1.27-.81,1.3-.84-1-1.66-1c-.09,0-.15-.09-.17-.16a2.61,2.61,0,0,0-1.07-1.35c-1.91-2.91-.85-5.6-2.38-8-1.12,2.61.37,5.09-1,8.28a2.61,2.61,0,0,0-.83,1.51c0,.07-.06.17-.15.18-.81.12-1.08,1.18-1.49,1.21s-.65-1.18-1-1.15-.77.32-1.1.35a.31.31,0,0,1-.37-.31c-.2-1.25-1.57-1.15-2.51-1.28a8.38,8.38,0,0,0,.3-1.36c-.08-1-1.26-.44-1.29-.8-.05-.64,1-.92.9-1.6a3.35,3.35,0,0,0-.22-.72c3.2-.49,3.08-2.85,5.62-4.73a15,15,0,0,1,2,0C28.68,37.25,29,37.55,29.44,37.54Z" transform="translate(10.32 3.28)"/><path class="cls-102" d="M41.47,40.92c.05.62-.93.57-.89,1.08s1,.55,1,1.33c.08,1-1.43.54-1.37,1.24,0,.34.41.87.45,1.42.07.82-.94.22-1.06,1.8,0,.19-.45.31-.44.5.19,2.33,1.76,3.54,1.84,4.39,0,.33,0,.6-.53.64-.92.08-1-1.08-1.07-2.1l0-.47a1.6,1.6,0,0,0-1.47-1.25c-.69.06-.65,1-.94,1s-.33-.33-.68-.3c-.61.05-.55.87-1.23.92s-.37-1.71-1-1.66c-.13,0-.3.06-.45.07-.9.07-.22-1.95-1.27-3.25a8.22,8.22,0,0,1-.49-.67A2.61,2.61,0,0,1,32.89,47c0,.07.09.16.17.16.82,0,1.26,1,1.66,1s.45-1.27.81-1.3.81.19,1.15.16a.31.31,0,0,0,.32-.36c0-1.26,1.36-1.39,2.27-1.67-.12-.44-.48-.85-.52-1.3-.08-1,1.17-.64,1.14-1-.05-.64-1.09-.75-1.15-1.43a3.35,3.35,0,0,1,.1-.74c-3.23,0-3.5-2.31-6.32-3.75l.36,0C39.09,36.14,41.42,40.42,41.47,40.92Z" transform="translate(10.32 3.28)"/><path class="cls-102" d="M18.12,42.83c.05.62,1,.41,1.06.92s-.85.69-.79,1.48c.08,1,1.5.3,1.56,1,0,.34-.26.92-.21,1.48.07.82,1,.06,1.34,1.61,0,.18.5.24.51.42.19,2.33-1.16,3.78-1.09,4.63,0,.33.12.59.63.55.92-.08.79-1.23.71-2.24l0-.47A1.6,1.6,0,0,1,23,50.72c.69-.06.8.83,1.09.81s.27-.38.63-.41c.61-.05.68.77,1.37.71s.09-1.75.72-1.8c.13,0,.3,0,.46,0,.9-.07-.1-2,.73-3.41a8.2,8.2,0,0,0,.37-.74,2.61,2.61,0,0,0-.83,1.51c0,.07-.06.17-.15.18-.81.12-1.08,1.18-1.49,1.21s-.65-1.18-1-1.15-.77.32-1.1.35a.31.31,0,0,1-.37-.31c-.2-1.25-1.57-1.15-2.51-1.28a8.38,8.38,0,0,0,.3-1.36c-.08-1-1.26-.44-1.29-.8-.05-.64,1-.92.9-1.6a3.35,3.35,0,0,0-.22-.72c3.2-.49,3.08-2.85,5.62-4.73l-.36,0C19.68,37.73,18.08,42.33,18.12,42.83Z" transform="translate(10.32 3.28)"/></g><path class="cls-103" d="M30.23,39.59c.64,2.11,1,.61,2.52,6a3.84,3.84,0,0,1,.19,2h-.05a1,1,0,0,1,0-.36A22.06,22.06,0,0,0,31.42,42a11,11,0,0,1-1.24-2.38Z" transform="translate(10.32 3.28)"/><path class="cls-103" d="M29,39.7c-.23,2-1.15,1.65-1.43,6.95a3.89,3.89,0,0,0,0,.94,1,1,0,0,1,0,.36h-.05c-.46-.63,0-3.29.18-4.21A8.23,8.23,0,0,1,28.66,41,5.09,5.09,0,0,0,29,39.69Z" transform="translate(10.32 3.28)"/><path class="cls-103" d="M30.15,39.15c.56.53.83.48,1.14.86.86,1,2.48,2.83,3.25,1.71.06-.08,0-.08,0-.18l0-.4c0-1-1.37-.86-2-1.95l0,0c.59,1.07,1.93.92,2,2,0,.55.09.55-.17.77-1.18,1-3.06-1.82-3.69-2.17a1.65,1.65,0,0,1-.64-.56Z" transform="translate(10.32 3.28)"/><path class="cls-103" d="M29,39.27a1.65,1.65,0,0,1-.54.66c-.5.41-.38.56-1.19,1.63-.63.83-1.56,1.72-2.27,1-.09-.09-.06-.1-.07-.2a1.91,1.91,0,0,1,0-.79c.27-.74,1.25-.87,1.6-1.86h.05c-.47,1.34-2,1.13-1.56,2.74,0,.07.15.15.21.19,1,.59,2.18-1.35,2.77-2.34.24-.42.52-.43,1-1Z" transform="translate(10.32 3.28)"/><path class="cls-103" d="M34.32,40.49a10,10,0,0,1,5.1,1.27l0,0A15.63,15.63,0,0,0,34.32,40.49Z" transform="translate(10.32 3.28)"/><path class="cls-103" d="M25.11,41.24a15.58,15.58,0,0,0-4.79,2.13l0,0A10.24,10.24,0,0,1,25.11,41.24Z" transform="translate(10.32 3.28)"/><path class="cls-103" d="M34.6,41.45c3.3,1.67,1.55.84,4.77,2.6a.44.44,0,0,1,.19.15l0,0a.45.45,0,0,1-.23-.08C36.33,42.47,38.47,43.6,34.6,41.45Z" transform="translate(10.32 3.28)"/><path class="cls-103" d="M25,42.24c-3.52,2.79-1.61,1.34-4.2,3.44a.45.45,0,0,1-.22.12l0,0a.44.44,0,0,1,.16-.18C23.67,43.26,22,44.45,25,42.24Z" transform="translate(10.32 3.28)"/><path class="cls-103" d="M34.27,42c.75,1.11,2.17,2.4,3.48,4.27l-.17.1C36.34,44.51,35,43.19,34.27,42Z" transform="translate(10.32 3.28)"/><path class="cls-103" d="M25.41,42.77c-.54,1.28-1.62,2.71-2.55,4.85l-.18-.07C23.7,45.42,24.83,44,25.41,42.77Z" transform="translate(10.32 3.28)"/><path class="cls-103" d="M33.64,42c.54,1.16,0,.87,1,2.72.62,1.2.34.62,1.3,2.63l-.16.06c-.91-2-.59-1.35-1.46-3.15C33.87,43.38,34,43,33.64,42Z" transform="translate(10.32 3.28)"/><path class="cls-103" d="M26,42.65a12.49,12.49,0,0,0-.19,1.83s-.58,2.06-1,3.86l-.16,0c1.41-4.86,1.09-3,1.28-5.13A2.91,2.91,0,0,1,26,42.65Z" transform="translate(10.32 3.28)"/><path class="cls-103" d="M32.41,41.27c.44,2.41,1.91,5.18,1.44,6.94H33.8a2.84,2.84,0,0,1-.1-.65C33.44,44.22,32.75,44.15,32.41,41.27Z" transform="translate(10.32 3.28)"/><path class="cls-103" d="M27.12,41.7c.13,2.8-.53,3.16-.24,6.41a2.84,2.84,0,0,1,0,.66h-.05C26.11,47.18,27.08,44,27.12,41.7Z" transform="translate(10.32 3.28)"/><g id="_Group_2" data-name="&lt;Group&gt;"><path class="cls-104" d="M33.77,34.86c-.23,0-.38-.05-.33,0ZM25,35.51s-.09,0-.32.09Zm4.3.79q.11-.36.25-.74c1.9-.75,3.74-2.28,3.68-4.46,0-1.15,1.25-1.62,2.16-2.25a1.29,1.29,0,0,0,0,.26c0,.42.35.47.75.43,1.78-.15-1.52.74,1.74,1a18.19,18.19,0,0,1-1.54,1c.45.28,1.05,0,1.47.39a4,4,0,0,1-1.62.51c-.2,0-.16,0-.17,0a12.4,12.4,0,0,1,1.47.32c.3.1.77.28.83.29.79.14-1.07.54-2.9.68a3.25,3.25,0,0,1-.67,0h0s5.25.81,3.55.95c-1.34.11-1,.21-2.79.41L34.42,35a5.77,5.77,0,0,0-.65-.11l.65.11.41.1c.06,0,4.32,1.16,3.25,1.24-.75.06-1.45.47-2.2.53a2,2,0,0,1-.59,0c1.31.31,2.61.82,3.93,1.06h-.15c-1.87.15-3.67-.1-5,0-.71.06-1.43.17-2.13.23a5.78,5.78,0,0,1-2.46-.23,5.78,5.78,0,0,1-2.39.63c-.71.06-1.43.06-2.14.12-1.35.11-3.08.65-5,.81h-.15c1.27-.46,2.46-1.17,3.71-1.69a2,2,0,0,1-.57.13c-.74.06-1.5-.22-2.25-.16-1.07.09,2.95-1.73,3-1.76l.39-.17.62-.21a5.76,5.76,0,0,0-.62.21L23,36.17c-1.78.09-1.47-.07-2.82,0-1.7.14,3.35-1.51,3.35-1.51h0a3.24,3.24,0,0,1-.66.12c-1.83.16-3.73.07-3-.2.06,0,.5-.28.78-.42a12.39,12.39,0,0,1,1.4-.55s0,0-.17,0a4,4,0,0,1-1.68-.24c.35-.44,1-.26,1.38-.62A18.22,18.22,0,0,1,19.94,32c3.18-.78-.23-1.12,1.55-1.26.4,0,.71-.13.67-.55a1.29,1.29,0,0,0-.05-.25c1,.47,2.34.73,2.5,1.87C24.9,34,27,35.19,29,35.61Q29.17,36,29.34,36.31Z" transform="translate(10.32 3.28)"/><path class="cls-102" d="M35.45,33.8c1.83-.14,3.69-.54,2.9-.68-.07,0-.54-.19-.83-.29A11.53,11.53,0,0,0,36,32.52s0,0,.17,0A4,4,0,0,0,37.83,32c-.41-.38-1-.1-1.47-.39a18.19,18.19,0,0,0,1.54-1c-3.26-.25,0-1.14-1.74-1-.4,0-.72,0-.75-.43a1.29,1.29,0,0,1,0-.26c-.9.63-2.19,1.1-2.16,2.25.06,2.18-1.78,3.71-3.68,4.46,1.49-4,5.61-9.58,10.48-10,1.48-.12,3.42.62,3.5,1.66.05.66-1.23,2.2-1.05,4.39,0,.42.16,1,.16,1,.05.65-.51,1.22-.67,1.92-.33,1.45.18,3.05-2.78,3.34-1.32-.24-2.62-.75-3.93-1.06a2,2,0,0,0,.59,0c.74-.06,1.44-.47,2.2-.53,1.07-.09-3.19-1.23-3.25-1.24s-1.33-.24-1.46-.27A12.84,12.84,0,0,0,35.5,35a17.29,17.29,0,0,0,2.82-.23c1.7-.14-3.55-.95-3.55-.95h0A3.25,3.25,0,0,0,35.45,33.8Z" transform="translate(10.32 3.28)"/><path class="cls-102" d="M22.89,34.83c-1.83.16-3.73.07-3-.2.06,0,.5-.28.78-.42a11.52,11.52,0,0,1,1.4-.55s0,0-.17,0a4,4,0,0,1-1.68-.24c.35-.44,1-.26,1.38-.62A18.22,18.22,0,0,1,19.94,32c3.18-.78-.23-1.12,1.55-1.26.4,0,.71-.13.67-.55a1.29,1.29,0,0,0-.05-.25c1,.47,2.34.73,2.5,1.87C24.9,34,27,35.19,29,35.61c-2.14-3.75-7.11-8.54-12-8.14-1.48.12-3.27,1.17-3.18,2.2.05.66,1.57,2,1.75,4.16,0,.42,0,1,0,1,.05.65.7,1.12,1,1.79.56,1.38.32,3,3.29,2.85,1.27-.46,2.46-1.17,3.71-1.69a2,2,0,0,1-.57.13c-.74.06-1.5-.22-2.25-.16-1.07.09,2.95-1.73,3-1.76s1.28-.46,1.39-.5A12.83,12.83,0,0,1,23,36a17.29,17.29,0,0,1-2.82.23c-1.7.14,3.35-1.51,3.35-1.51h0A3.24,3.24,0,0,1,22.89,34.83Z" transform="translate(10.32 3.28)"/></g><path class="cls-103" d="M33,31.1c.25-1,1.75-.78,1.87-1.1,0-.86,0-1.14.53-1.51l0,0c-.29.23-.21.2-.36.46-.32,1.45.4,1-1.1,1.4-.88.22-.92.72-.92.72Z" transform="translate(10.32 3.28)"/><path class="cls-103" d="M24.82,31.78a.81.81,0,0,0-.41-.42,4,4,0,0,0-1.36-.18c-.51-.06-.19-.22-.57-1.16-.24-.31-.16-.24-.43-.4l0,0c.57.28.59.55.77,1.4.17.3,1.62-.17,2,.78Z" transform="translate(10.32 3.28)"/><path class="cls-103" d="M34.92,30a.52.52,0,0,1,.28,0c.63.21,1.19,1.41,1.21,1.66.06,1.58-3.74,3.64-5.77,5.18-1.14.86-1,1.1-1.87.56-2.49-1.46-6.42-2.65-7.08-4.18-.17-.32-.15-.55.12-1.23.19-.48.48-1,1-1V31c-.46-.09-.76.53-.92.95-.59,1.59.07,1.84,5,4.29.44.22.88.44,1.31.69.78.45.92.63,1.28.7h0a1.73,1.73,0,0,0,.6-.42c2.19-2,6.12-4,6.29-5.44.09-.39-.6-1.73-1.22-1.79a.58.58,0,0,0-.17,0Z" transform="translate(10.32 3.28)"/><path class="cls-103" d="M35.88,36.91l-1.66-.11c-2.73-.11-2.91.7-4.75,1.15a6.08,6.08,0,0,1-1.64-.32c-1.73-.42-2-.33-4.85.34v0c4.6-1.49,4.1-.33,6.49-.09h0c2.26-.6,1.67-1.67,6.42-1Z" transform="translate(10.32 3.28)"/><path class="cls-103" d="M30.08,37.66c.13-.05.24,0,.38,0,1,0,1.43-.18,1.86.45-.69-.8-1.81-.11-2.25-.38Z" transform="translate(10.32 3.28)"/><path class="cls-103" d="M28.83,37.82c-.37.33-1.61-.16-2.15.74.29-.6.72-.64,1.39-.7a5.71,5.71,0,0,0,.64-.09h.11Z" transform="translate(10.32 3.28)"/><path class="cls-103" d="M29.91,38.37c1.45,1,.9,1,4.17.71a13.42,13.42,0,0,1,4.46.18v0a12.74,12.74,0,0,0-4.45-.17c-3.31.28-2.94.36-4.21-.73Z" transform="translate(10.32 3.28)"/><path class="cls-103" d="M29.15,38.47c-1,1.25-.71,1.14-4,1.41a12.69,12.69,0,0,0-4.36.89l0,0c3.17-1.31,6.5-.64,7.6-1.52.39-.4.53-.53.77-.76Z" transform="translate(10.32 3.28)"/><path class="cls-105" d="M29.27,36c.22.66.85,1.38,1,2.16,0,0,0,2.08,0,2.08s0,3.61-.36,3.65S29,40.53,29,40.4s-.44-2.08-.44-2.1C28.66,37.5,29.16,36.69,29.27,36Z" transform="translate(10.32 3.28)"/><path class="cls-106" d="M29.08,33.67c.25,0,.6.52.62.74s-.05.2-.41.23H29c-.36,0-.43,0-.45-.16S28.83,33.71,29.08,33.67Z" transform="translate(10.32 3.28)"/><path class="cls-107" d="M29.37,33.87a.51.51,0,0,0,0,.07c0,.19.14.3.2.3s.12,0,.11-.15a.25.25,0,0,0-.27-.21Z" transform="translate(10.32 3.28)"/><path class="cls-107" d="M28.82,33.92V34c0,.19-.09.32-.15.32s-.12,0-.13-.13a.25.25,0,0,1,.23-.26Z" transform="translate(10.32 3.28)"/><path class="cls-108" d="M29.15,34.54l.13,0a.59.59,0,0,1,.22,0,1.21,1.21,0,0,1,.82,1.16A4,4,0,0,1,30,37.4c-.12.24-1,.34-1.17.09a3.85,3.85,0,0,1-.63-1.61,1.21,1.21,0,0,1,.64-1.27.59.59,0,0,1,.22-.06Z" transform="translate(10.32 3.28)"/><path class="cls-108" d="M29.14,33.92c-.35-1.21,3.36-3,3.68-4.61.08-.42-.05-.56-.1-.5v0a0,0,0,0,1,.05,0s.06.1.07.19c.17,1.69-3.58,3.32-3.63,4.92Z" transform="translate(10.32 3.28)"/><path class="cls-108" d="M29,33.82c-.28-1.12-4.13-3-4.54-3.87,0-.07-.06-.15,0-.18s.05,0,.05,0,0,0-.05,0c-.37.25,1.94,1.71,2.3,1.94,1.42.94,2.22,1.52,2.37,2.08Z" transform="translate(10.32 3.28)"/></g></g></svg>