<svg id="Layer_1" data-name="Layer 1" xmlns="http://www.w3.org/2000/svg" viewBox="0 0 180.5 249.73"><defs><style>.cls-1{fill:#fff;}.cls-2{fill:#eef3cc;}.cls-3{fill:#342c29;}.cls-4{fill:#4e423e;}.cls-5{fill:#8b756d;}.cls-6{fill:#685852;}.cls-7{fill:#8e423e;}.cls-8{fill:#ff756d;}.cls-9{fill:#e86767;}.cls-10{fill:#04173c;}.cls-11{fill:#2b90f3;}.cls-12{fill:#98e2ea;}.cls-13{fill:#97dadd;}.cls-14{fill:#b77748;}.cls-15{fill:#895936;}.cls-16{fill:#1c1308;}.cls-17{fill:#060608;}.cls-18{fill:#206eb6;}.cls-19{fill:#515657;}.cls-20{fill:#292b2c;}.cls-21{fill:#151616;}.cls-22{fill:#72aab0;}.cls-23{fill:#0b1314;}.cls-24{fill:#395558;}.cls-25{fill:#3d4141;}.cls-26{fill:#212325;}.cls-27{fill:#293133;}.cls-28{fill:#1f2526;}</style></defs><title>rectangle-cassowary</title><path class="cls-1" d="M44,9.08V14.8h-1.8V.94h4.46A5,5,0,0,1,50.2,2.08a3.68,3.68,0,0,1,1.22,2.79,4.23,4.23,0,0,1-.89,2.75A4.1,4.1,0,0,1,47.85,9l3.78,5.8H49.38l-3.6-5.72ZM44,2.4V7.64h2.65a3.09,3.09,0,0,0,2.21-.69A2.54,2.54,0,0,0,49.59,5q0-2.62-2.93-2.62Z"/><path class="cls-1" d="M59,15a5,5,0,0,1-3.8-1.56A5.77,5.77,0,0,1,53.71,9.3,5.69,5.69,0,0,1,55.2,5.19a5.6,5.6,0,0,1,7.65-.08,5.15,5.15,0,0,1,1.44,3.75,6.92,6.92,0,0,1-.08,1.08H55.55a3.79,3.79,0,0,0,1,2.59,3.24,3.24,0,0,0,2.41,1,3.34,3.34,0,0,0,1.87-.5A3,3,0,0,0,62,11.66h1.94A5,5,0,0,1,62.14,14,5.13,5.13,0,0,1,59,15Zm2.44-8.89a3.52,3.52,0,0,0-4.79,0,3.74,3.74,0,0,0-1,2.55H62.4A3.45,3.45,0,0,0,61.41,6.09Z"/><path class="cls-1" d="M67.27,13.42a5.76,5.76,0,0,1-1.47-4.11A5.76,5.76,0,0,1,67.27,5.2a5,5,0,0,1,3.8-1.56,5.22,5.22,0,0,1,3.2.92A4.83,4.83,0,0,1,76,7.18H74.06A2.87,2.87,0,0,0,73,5.68a3.24,3.24,0,0,0-1.9-.54,3.12,3.12,0,0,0-2.48,1.09,4.57,4.57,0,0,0-.94,3.08,4.57,4.57,0,0,0,.94,3.08,3.12,3.12,0,0,0,2.48,1.09,2.83,2.83,0,0,0,3-2H76A5,5,0,0,1,74.25,14a5.09,5.09,0,0,1-3.18,1A5,5,0,0,1,67.27,13.42Z"/><path class="cls-1" d="M82,13.32h1.48V14.8H81.63A2.5,2.5,0,0,1,78.8,12V5.3H77.39V3.82H78.8V1.1h1.82V3.82h2.81V5.3H80.62V12a1.46,1.46,0,0,0,.3,1A1.46,1.46,0,0,0,82,13.32Z"/><path class="cls-1" d="M86.2,13.37a5.84,5.84,0,0,1-1.49-4.12,5.65,5.65,0,0,1,1.48-4.06A4.91,4.91,0,0,1,89.9,3.64a4.42,4.42,0,0,1,2.42.66A4.3,4.3,0,0,1,93.9,6V3.82h1.82v11H93.9V12.56a4.34,4.34,0,0,1-4,2.42A4.83,4.83,0,0,1,86.2,13.37Zm6.62-1.07a4.12,4.12,0,0,0,1.08-3,4.12,4.12,0,0,0-1.08-3,3.48,3.48,0,0,0-2.59-1.12A3.53,3.53,0,0,0,87.64,6.3a4,4,0,0,0-1.08,2.94,4.23,4.23,0,0,0,1.09,3,3.51,3.51,0,0,0,5.18,0Z"/><path class="cls-1" d="M100.5,3.82V5.6a3.77,3.77,0,0,1,3.54-2,4.08,4.08,0,0,1,3,1.21,4.68,4.68,0,0,1,1.21,3.45v6.5h-1.78V8.6a3.6,3.6,0,0,0-.79-2.52,2.83,2.83,0,0,0-2.19-.86,2.86,2.86,0,0,0-2.2.86,3.58,3.58,0,0,0-.8,2.52v6.2h-1.8v-11Z"/><path class="cls-1" d="M111.9,13.37a5.84,5.84,0,0,1-1.49-4.12,5.65,5.65,0,0,1,1.48-4.06,4.91,4.91,0,0,1,3.71-1.55A4.43,4.43,0,0,1,118,4.3,4.31,4.31,0,0,1,119.6,6V3.82h1.82V15.08a4.92,4.92,0,0,1-5.11,5.12,6.16,6.16,0,0,1-3.67-1A3.78,3.78,0,0,1,111,16.44h1.76A2.7,2.7,0,0,0,114,18a4.22,4.22,0,0,0,2.36.62,3.2,3.2,0,0,0,2.35-.93,3.51,3.51,0,0,0,.94-2.61V12.56a4.34,4.34,0,0,1-4,2.42A4.82,4.82,0,0,1,111.9,13.37Zm6.62-1.07a4.11,4.11,0,0,0,1.08-3,4.11,4.11,0,0,0-1.08-3,3.47,3.47,0,0,0-2.59-1.12,3.53,3.53,0,0,0-2.59,1.08,4,4,0,0,0-1.08,2.94,4.23,4.23,0,0,0,1.09,3,3.51,3.51,0,0,0,5.18,0Z"/><path class="cls-1" d="M124.39,14.8V0h1.8V14.8Z"/><path class="cls-1" d="M133.72,15a5,5,0,0,1-3.8-1.56,5.77,5.77,0,0,1-1.47-4.12,5.69,5.69,0,0,1,1.49-4.11,5.6,5.6,0,0,1,7.65-.08A5.15,5.15,0,0,1,139,8.86a6.92,6.92,0,0,1-.08,1.08h-8.65a3.79,3.79,0,0,0,1,2.59,3.24,3.24,0,0,0,2.41,1,3.34,3.34,0,0,0,1.87-.5,3,3,0,0,0,1.12-1.32h1.94A5,5,0,0,1,136.88,14,5.13,5.13,0,0,1,133.72,15Zm2.44-8.89a3.52,3.52,0,0,0-4.79,0,3.74,3.74,0,0,0-1,2.55h6.83A3.44,3.44,0,0,0,136.15,6.09Z"/><rect class="cls-2" y="24.89" width="180.5" height="224.84"/><path class="cls-3" d="M87.18,212c1,.76,1.31,1.41,3.63,1.42s4.81.38,5.7,1.4a7.82,7.82,0,0,1,1.1,1.46c.34.51-.29.27-.86-.16a5.25,5.25,0,0,0-1.37-.19,34,34,0,0,0-3.82-.15c-1.87,0-5.89.93-6.06,0S86.36,211.36,87.18,212Z"/><path class="cls-4" d="M76,151.46c-1.87,1.42,0,6.31-1.39,9.28s-2.36,4.81-1.93,7.78,3.77,16.35,3.46,20.72.7,16.08,0,18.68-.64,4.45.79,6c.92,1,1.29,2.73,2.49,2.88,1.76.23,3.05.78,4.32.91,2.32.23,6.76-2,8.77-1.2s4.77.66,5.83,1.18.62-.46.07-1.09A11.18,11.18,0,0,0,94,213.86c-1.63-.33-4.46.23-6.67-1.78s-2.41-1.85-2.86-4.13-1.64-11.8-1.38-15.13-1.27-12-.94-14,3.81-7.23,4.44-10.2a12.73,12.73,0,0,1,6.12-7.78C95.65,159.21,78.87,149.32,76,151.46Z"/><path d="M69.19,152.92c3.54.83,4.53,3.17,5.21,5.37s-2,10.78,2,9.58c2.22-.66,3.5.72,5.25,1.8,1.21.75,3.42,1.13,3.83,2s3-3,4.37-4.72a29,29,0,0,0,3.82-7c1.2-3.39,2.63-6.33,4.8-7.82,2.34-1.6,1.21-8.31-7.28-8.42S67.12,152.44,69.19,152.92Z"/><path class="cls-4" d="M85.54,215c2.42,0,4.81.38,5.7,1.4a7.89,7.89,0,0,1,1.1,1.45c.34.51-.29.27-.86-.16a5.29,5.29,0,0,0-1.37-.19,15.6,15.6,0,0,0-4,0C84.3,217.74,83.21,214.94,85.54,215Z"/><path class="cls-5" d="M142,67.57a2.4,2.4,0,0,1-.27-2.86c.83-1.25,2.28-4.89,4.05-5.85S147.11,57.1,148,56s3.35-3.3,4.59-2.44,4.89,4.51,5.38,7.34a24.85,24.85,0,0,1,0,7.58c-.26.95.17.68,1.07.93s3,.61,3.31,1.38-4.13,1.3-5.47.79-10.5-.65-12.38-1.89S142.35,68.19,142,67.57Z"/><path class="cls-4" d="M162.31,70.81c-.36-.77-2.41-1.13-3.31-1.38s-1.33,0-1.07-.93a24.85,24.85,0,0,0,0-7.58c-.49-2.83-4.14-6.48-5.38-7.34l-.13-.08a18.6,18.6,0,0,1,4,6.45c.73,2.73.1,4.79.4,5.94.43,1.64-.11,5.18-2.55,5.35a14.55,14.55,0,0,1,2.58.36C158.17,72.11,162.67,71.58,162.31,70.81Z"/><path class="cls-6" d="M151.39,54.38c-.94.51-3,1.91-3.13,2.92a4.52,4.52,0,0,1-2.5,3.26c-1.27.42-3.81,5.37-3,5.15,1.63-.45,5.72-.86,8.28.1,1.2.45,3,1.1,3.21.2a14,14,0,0,0,.8-5C154.78,58.57,152.72,53.66,151.39,54.38Z"/><path class="cls-4" d="M162.31,70.81a1.24,1.24,0,0,0-.52-.49,30.29,30.29,0,0,0-4.79-.74,4.91,4.91,0,0,1-2-.31c-.38-.23-1.46-1.36-2.54-2.09s-3.19-.88-4.4-.88h-3.94c-.69,0-2.53.59-2.26,1l.17.28c.37.62.59.91,2.47,2.15s11,1.39,12.38,1.89S162.67,71.58,162.31,70.81Z"/><path class="cls-7" d="M144.84,107.27c-.45,1.8-1.77,6.8-.83,7.39s2.34-1.57,2.5-3.35-.09-6-.56-6.69S145.17,105.93,144.84,107.27Z"/><path class="cls-8" d="M149.45,99.1a21.92,21.92,0,0,0-.83,5.52c.09,1.65.34,4.24.53,5.68s.6,5.34-.54,5.29-2-.13-2.38-2.67.78-5.35-.38-7.13c-1-1.51.3-2.61,1.06-4.22S149.71,98.16,149.45,99.1Z"/><path class="cls-9" d="M147.89,103.33c-.2-.92,1-2.18.05-3.3a7.38,7.38,0,0,0-1,1.53c-.76,1.61-2,2.71-1.06,4.22.88,1.34.43,3.28.32,5.24a9.49,9.49,0,0,0,.39,2.57c.3,1,1.62,1.54,2,.78a8.17,8.17,0,0,0,.06-3.14c-.08-.79-.33-2.32-.43-3.88S148.07,104.13,147.89,103.33Z"/><path class="cls-10" d="M155.13,73.64a24.16,24.16,0,0,1-4.2,2.58c-1.32.59-1.54,1.85-2.38,1.61A1.2,1.2,0,0,1,148,75.7c.91-1,.63-1.61,2.38-2S155.88,73,155.13,73.64Z"/><path class="cls-11" d="M165.2,72a15,15,0,0,0-5.27-1.88c-1.85-.23-3.67-.27-4.49-.35s-1.79-1.79-3.71-2.57-3.31-.4-5.57-.62a6.91,6.91,0,0,0-5,1.24c-1.69,1-1.81,3.36-3,5.28-1,1.68-.85,5.91-.75,7,.21,2.26,1.14,2.95,2.11,5.7s.46,6.12-1.69,7.66-10.72,8.15-6.43,13.36,9.33,8.6,11.07,6.52,4.07-9.6,5.84-12,2.14-7.7,1.64-11-2.28-9.58-1.89-11.06c.42-1.3,1.51-3.63,2.54-4.45,1.21-1,3.29-.73,4.52-1a26.31,26.31,0,0,1,5.4-.4c1.6,0,4.18.23,4.55.17.21,0,.35-.21.54-.18s.33.1.31-.16A1.82,1.82,0,0,0,165.2,72Z"/><path class="cls-12" d="M163.82,73.55a7.35,7.35,0,0,0,.8-1.9,16,16,0,0,0-4.69-1.54c-1.85-.23-3.67-.27-4.49-.35s-1.79-1.79-3.71-2.57-3.31-.4-5.57-.62a6.91,6.91,0,0,0-5,1.24c-1.69,1-1.81,3.36-3,5.28-1,1.68-.85,5.91-.75,7v.11c.25-3.5,2.28-6,4.48-5.54a7.47,7.47,0,0,0,5.06-.86c.8-.47.66-1.74,2-1.5,1.05.18,5-.12,8.06,1.24a33.09,33.09,0,0,1,3.49-.12C161.54,73.43,162.84,73.51,163.82,73.55Z"/><path class="cls-13" d="M151.7,70.79a6.18,6.18,0,0,1-1.08-1.05c-.48-.59-.68-1.07-1.43-.91s-1.4,1.16-2.51,1.26-1.3.62-.75,1.17a6.13,6.13,0,0,0,3.2.89,6.94,6.94,0,0,0,2.82-.36C152.55,71.42,151.94,71,151.7,70.79Z"/><path class="cls-13" d="M155.44,69.76c-.82-.08-1.79-1.79-3.71-2.57s-3.31-.4-5.57-.62a6.91,6.91,0,0,0-5,1.24c-1.32.77-1.68,2.38-2.33,4,.16-.41.44-.87.55-1.12a7.52,7.52,0,0,1,3.47-3.22c1.42-.53,3,.08,3.72.17s.7-.38,1.87-.44a7.57,7.57,0,0,1,4.2,1.19c.79.72,1.23.87,1.74,1.67.11.18,1,.23,1.39.45.22.12.68-.23.94-.64Z"/><path class="cls-11" d="M151.12,70.91a1.4,1.4,0,0,1-.48-.49,1.56,1.56,0,0,0-.91-.85,1.37,1.37,0,0,0-1.4.46c-.24.4-.48.84-.13,1.29s.51.8,1.21.71,1.16-.86,1.36-.79S151.27,71.05,151.12,70.91Z"/><path class="cls-14" d="M150.37,70.48a1,1,0,0,1-.74,1.23,1,1,0,1,1-.51-1.94A1,1,0,0,1,150.37,70.48Z"/><path class="cls-15" d="M148.33,70.69c.21.43,1.51.53,2-.31a1,1,0,0,0-1.22-.61A1,1,0,0,0,148.33,70.69Z"/><path class="cls-16" d="M150.38,70.47a1.1,1.1,0,0,1-.09.8,1,1,0,0,1-.27.32,1,1,0,0,1-.38.18,1.18,1.18,0,0,1-.82-.11,1.12,1.12,0,0,1-.32-.26,1,1,0,0,1-.19-.37,1.05,1.05,0,0,1,.12-.82,1.11,1.11,0,0,1,.67-.5,1.13,1.13,0,0,1,.43,0,1.06,1.06,0,0,1,.7.43A1.19,1.19,0,0,1,150.38,70.47Zm0,0a.87.87,0,0,0-.49-.58,1.15,1.15,0,0,0-.36-.09,1.06,1.06,0,0,0-.37,0,1,1,0,0,0-.58.43,1,1,0,0,0-.13.72.86.86,0,0,0,.46.58,1,1,0,0,0,.73.07,1,1,0,0,0,.6-.42A.94.94,0,0,0,150.34,70.48Z"/><path class="cls-17" d="M149.83,70.63a.41.41,0,0,1-.3.5.37.37,0,0,1-.44-.31.38.38,0,0,1,.74-.19Z"/><path class="cls-13" d="M155.79,70.46c.18.12.37.45-.13.8a9.88,9.88,0,0,1-2.57.88,12.27,12.27,0,0,0,3.42-.4c.69-.38,1.16-.18.74-.77S155.6,70.34,155.79,70.46Z"/><path class="cls-18" d="M155.29,73.78c-.11-.57-1.06-1.06-1.78-1.07-.51,0-.95.14-1.46.17s-.67.57-.9.8c-.39.41-.14.66-.88,1.53a3.13,3.13,0,0,1,.39-.37c1.21-1,3.29-.73,4.52-1Z"/><path class="cls-19" d="M166,73.23A1.82,1.82,0,0,0,165.2,72a15,15,0,0,0-5.27-1.88c-1.47-.18-2.93-.25-3.88-.3-.31.11-.08.26-.27.45s.35.21.61.61,0,.57-.79.79a24.5,24.5,0,0,1-4.32.67c-1.16,0-2.8.17-2.8.46s.61.28,1,.27a34.26,34.26,0,0,1,4.79-.15c.49.16.17.82.81.93l.15,0a26.31,26.31,0,0,1,5.4-.4c1.6,0,4.18.23,4.55.17.21,0,.35-.21.54-.18S166,73.5,166,73.23Z"/><path class="cls-20" d="M164.34,73.17c-.63-.16-2-.35-2.69-.58a6.64,6.64,0,0,0-2.11-.39,23.23,23.23,0,0,0-4.39.36,10.45,10.45,0,0,1-1.65.28,2.87,2.87,0,0,1,.72.07c.49.16.17.82.81.93l.15,0a26.31,26.31,0,0,1,5.4-.4c1.6,0,4.18.23,4.55.17a1.23,1.23,0,0,0,.31-.13S164.75,73.27,164.34,73.17Z"/><path class="cls-21" d="M165.47,73.43s-.08,0-.13,0c-.26-.08-.52-.15-.78-.21l-1-.24c-.69-.15-1.38-.33-2.07-.5a16.15,16.15,0,0,0-2.12-.32c-.71-.06-1.42-.1-2.14-.1h-.54c-.18,0-.36,0-.53.06l-1.06.12L153,72.4c-1.42.12-2.83.24-4.24.41h0c.71,0,1.42-.06,2.13-.11s1.42-.09,2.13-.16,1.41-.17,2.12-.26l1.06-.11.53,0h.53c.71,0,1.42.07,2.12.14a18.73,18.73,0,0,1,2.09.33l1,.24,1,.21,1,.19.77.15s.08,0,.11,0Z"/><path class="cls-18" d="M143.12,76.32c-.94-.62,1.31,1.38,2.56,3.6.61,1.09.36,2.1.59,3.12.72,3.09,1.81,4.49,2,6.57s.87,2.71.81,1.63S148.27,85.49,148,84a8.53,8.53,0,0,1,.17-2.85,5.62,5.62,0,0,1-.06-1.84,13.91,13.91,0,0,1,2-3.88c-1.9,2.19-1.82,1.39-3.32,1.74A4.58,4.58,0,0,1,143.12,76.32Z"/><path class="cls-13" d="M142.6,69.06a2.56,2.56,0,0,0-.48,1.29c0,.43-.4,1.64.24,2s1.26.93,2,.12.85-1.11.82-1.77.31-1.24-.16-1.69A2.2,2.2,0,0,0,142.6,69.06Z"/><path class="cls-22" d="M142.73,69.81a2.47,2.47,0,0,0-.25,2.13c.38.85,1.32,1,1.57.36s.47-.82.34-1.56-.74-1.23-1-1.21S142.83,69.61,142.73,69.81Z"/><path class="cls-23" d="M142.92,71c-.2.07-.23.18-.14.56s.57.7.7.4a1.29,1.29,0,0,0,.2-.58C143.62,70.9,143.18,70.89,142.92,71Z"/><path class="cls-22" d="M142.6,69.67a.92.92,0,0,1,1.08-.14c.41.27.69.59.69.85s.18.51.17.29.15-.51-.11-.85-.22-.53-.61-.56-.87,0-1.06.16S142.49,69.76,142.6,69.67Z"/><path class="cls-24" d="M142.73,71.55c0-.12-.13-.35,0-.48s.1-.18.28-.18.34-.07.21-.08a.67.67,0,0,0-.43.06c-.08.08-.15.05-.15.31S142.76,71.68,142.73,71.55Z"/><path class="cls-25" d="M163,71.82a1.16,1.16,0,0,0-.4-.62c-.22-.12-.39-.36-.73-.34a1.3,1.3,0,0,0-.83.25c-.13.16-.17.63.18.71a2.64,2.64,0,0,0,1.15.16C162.69,71.88,163.06,71.93,163,71.82Z"/><path class="cls-26" d="M162.61,71.2c-.22-.12-.39-.36-.73-.34a1.3,1.3,0,0,0-.83.25c-.13.16-.17.63.18.71l.09,0c.1,0,.32-.14.64-.22s1.06.2,1,0A.91.91,0,0,0,162.61,71.2Z"/><path class="cls-26" d="M160.88,71.5c0-.11,0-.35.07-.42a.87.87,0,0,1,.47-.22,1.8,1.8,0,0,1,.69,0c.2.07.11,0,.06,0s-.29,0-.39-.05a.69.69,0,0,0-.3,0,2.11,2.11,0,0,1-.34.07.32.32,0,0,0-.24.16.76.76,0,0,0-.08.34C160.84,71.45,160.89,71.56,160.88,71.5Z"/><path class="cls-25" d="M161.84,72a1.6,1.6,0,0,0,.48,0,2.55,2.55,0,0,1,.46-.09c.15,0,.25.06.11.05a.66.66,0,0,0-.31.06,1.09,1.09,0,0,1-.34,0C162.1,72.09,161.63,72,161.84,72Z"/><path class="cls-11" d="M141.65,72.59a1.69,1.69,0,0,1-.21,1.3c-.3.3-.15.59-.81.84-1.18.44,1.55,1,2.69.83,1.84-.29,3.4-1.47,2.58-1.25-.62.17-1.07.21-.88-.49s1.18-1.31.55-1.23-1.57.54-2.27.58C141.94,73.27,141.53,72.24,141.65,72.59Z"/><path class="cls-13" d="M138.25,73.1a4.2,4.2,0,0,0-.41,1,.58.58,0,0,0,.27.66c.47.36.48.19.37-.52a5.18,5.18,0,0,1,.36-2.37A9.07,9.07,0,0,1,138.25,73.1Z"/><path class="cls-18" d="M148.38,101.34a9.44,9.44,0,0,0,1.42-3.63c-.85,2.33-3.18-3.21-4-5-1.1-2.43-3-.11-3.79,1.27s-1.39,2.12-1.64.9-3.88,1.44-3.88,1.44-1.73,2.34-3.66,5.59,2.8,6.81,7.52,7.29c1.86.19,3.73-.9,5.34-2.42A31.67,31.67,0,0,1,148.38,101.34Z"/><path class="cls-8" d="M141.07,86.21c-.74-1.64-2.12-4.63-2.38-5.57a9.76,9.76,0,0,1-.62-2.29c-.09-1-.09-2.21-.13-2.76,0-.37-.31-.46-.36-.08a24.32,24.32,0,0,0-.07,4.57c.21,2.26,1.14,2.95,2.11,5.7s.46,6.12-1.69,7.66c-1.56,1.12-6.52,4.92-7.46,8.91,3.16-1.27,8.82-7.52,10.26-9C142.33,91.77,141.8,87.85,141.07,86.21Z"/><path class="cls-9" d="M140.63,89.58c0-.4-.41-1.55-.79-3,.6,2.57,0,5.43-1.94,6.82A31.11,31.11,0,0,0,134,96.79a2,2,0,0,0,.29.39c.28.2,3.52-2.55,5-4A3.78,3.78,0,0,0,140.63,89.58Z"/><path class="cls-27" d="M138.55,104.19c1.23-1.31,3.82-2,3.82-4s.11-7.12,1.3-6.21,3.41,3.82,3.41,6.08c0,2.47-.15,3.84-1.59,8.18-.39,1.18-3.33,4.11-5.16,7.37-2.76,4.91-6.79,10.39-8.77,14.91-1.83,4.18-11.1,10.84-17.21,14.23S94.57,156.17,82.6,155.66s-30.57,0-37.7,4.57-14,6.86-14.78,9-1.36,3.39-3.06,2.94a7.71,7.71,0,0,0-3.74.09c-1,.13-2-.32-3.28-1.79s-3.17-2.26-3.74-1.58-1.13-4-.79-8.7.93-11.52-.1-11.3-1.6-3.05.67-6.1,1.47-3.84,1.7-6.1,3.06-6.1,5.66-7.79.79-2.82,2.6-4.29,2.6-6.89,7.59-9.6S58.08,100.9,64.88,99.21s26.51-4.12,37-4.74,24.88.25,26.89.25,7.07-.27,7.21.19c0,0-.06.06-.08.09-.42.48,1.51,1.21,2.33,1.18s.52,1.91.18,2.84a20.71,20.71,0,0,0-1.12,4.43C137.34,104.83,138.06,104.72,138.55,104.19Z"/><path class="cls-28" d="M57.52,135.47c2.72-3.5,5.77-8.24,2.6-9.15S53,126,53.55,123.83s-6-1.35-7.93-.68-6.68-.9-6.57-2.15,1-2.94-1.92-3.5-4.3,1.7-2.83-1.24a15.08,15.08,0,0,1,3.75-3.72c-1.9,1.07-3.45,1.94-4.43,2.48-5,2.71-5.77,8.13-7.59,9.6s0,2.6-2.6,4.29-5.43,5.53-5.66,7.79.57,3-1.7,6.1-1.7,6.33-.67,6.1.44,6.55.1,11.3.23,9.37.79,8.7,2.49.11,3.74,1.58,2.26,1.92,3.28,1.79a7.71,7.71,0,0,1,3.74-.09c1.7.45,2.26-.79,3.06-2.94s7.65-4.43,14.78-9a19.8,19.8,0,0,1,5-2.14c.38-1.75,1.53-3.62,2.84-6.59C54.91,146.65,54.8,139,57.52,135.47Z"/><path class="cls-28" d="M85.59,115.59c1.58,3.28,2.38,2.15,5.43,8.92s6.79,9.94,6.79,14.46-.91,11.87-1.19,14.24h0c7.33-2.54,14-6.39,17.72-8.48,6.11-3.39,15.38-10.05,17.21-14.23a61.06,61.06,0,0,1,4.2-7.47,16.43,16.43,0,0,1-2.84-4.05c-1.25-2.94-1.7-3.84-4.75-2.26s-6.23-1.92-11.1,1.36-6.91,3.9-10,2.57-6.23,1.27-7.7,1.95-15.4-10.28-13.81-7"/><path class="cls-28" d="M107.67,94.27c-2,0-3.94.09-5.77.2-10.51.62-30.23,3-37,4.74S38.61,112.31,33.63,115a10.94,10.94,0,0,0-2.81,2.19c.27,4,1.78,6.28,3.15,3.79,3.06-5.53,12.79-8,14.83-11.4s12.79-4.3,14.61-6.11,11.44-2,15.74-4.66C81.86,97.17,96.95,95.37,107.67,94.27Z"/><path class="cls-28" d="M145.5,108.22a32,32,0,0,0,1.42-5.3c-1.23,4.73-3.53,5.51-5.15,6.7-2.47,1.82-7.07,12.41-8.25,10.5-.59-1-.83,5.49-.55,7.57,2.14-3.87,5.16-8.17,7.36-12.09C142.17,112.33,145.11,109.4,145.5,108.22Z"/><path class="cls-28" d="M97.44,145.72c-.7,3.86-7.21,3.07-12,5.11s-13.57,1.86-21.39,2.37-10.9-1.1-10.48-4.1c.39-2.8-10.06,6.73-9.31,11.51l.6-.38c7.13-4.57,25.73-5.08,37.7-4.57,10.1.43,21.41-5.24,28.37-9.06C108.38,144.68,97.67,144.46,97.44,145.72Z"/><path class="cls-6" d="M76.94,215.29c1,.76,1.21,1.22,3.53,1.24s4.81.38,5.7,1.4a7.88,7.88,0,0,1,1.1,1.45c.34.51-.29.27-.86-.16A5.3,5.3,0,0,0,85,219a34,34,0,0,0-3.82-.15c-1.87,0-5.89.93-6.06,0S76.12,214.68,76.94,215.29Z"/><path class="cls-5" d="M65.67,154.67c-1.87,1.42,0,6.31-1.39,9.27s-2.36,4.81-1.93,7.78,3.77,16.35,3.46,20.72.7,16.08,0,18.68-.64,4.45.79,6c.92,1,1.29,2.73,2.49,2.88,1.75.23,3.05.78,4.32.91,2.32.23,6.76-2,8.77-1.2s4.77.66,5.84,1.18.62-.46.07-1.09a11.19,11.19,0,0,0-4.46-2.74c-1.63-.33-4.46.23-6.67-1.78s-2.41-1.85-2.86-4.13S72.44,199.36,72.7,196s-1.27-12-.94-14,3.81-7.23,4.44-10.2A12.74,12.74,0,0,1,82.32,164C85.28,162.42,68.5,152.53,65.67,154.67Z"/><path class="cls-6" d="M69,218.52c-1.28-1.71-2.71-4.91-1.78-7.29s-.34-9.74-.59-12.71.34-8.47-.4-11.69-1.64-10.7-2.55-13.92-.79-2.82,0-3.9a8.06,8.06,0,0,1,4.13-3.53c.5-.17.46-2.9-3.33-2a4.41,4.41,0,0,1-.2.51c-1.42,3-2.36,4.81-1.93,7.78s3.77,16.35,3.46,20.72.7,16.08,0,18.68-.64,4.45.79,6c.92,1,1.29,2.73,2.49,2.88,1.75.23,3.05.78,4.32.91a4.62,4.62,0,0,0,.84,0C72.57,220.41,70,219.81,69,218.52Z"/><path class="cls-28" d="M59.45,156.3c2.8,0,4.92,3.2,4.46,5.46-.25,1.27-.14,5.31,1.61,6.61,1.29,1,7.78,4.58,8.32,6.27,1.37,4.24,9.4-8.13,10.6-11.52s5.44-8.06,8.16-8.68S90.47,147,82,146.88,57.33,156.34,59.45,156.3Z"/><path class="cls-5" d="M75.61,218.1c2.42,0,4.81.38,5.7,1.4a7.84,7.84,0,0,1,1.1,1.45c.34.51-.29.27-.86-.16a5.27,5.27,0,0,0-1.37-.19,26,26,0,0,0-4.43,0c-1.85.25-3.81-.57-4-1.5S73.28,218.08,75.61,218.1Z"/></svg>