<svg id="Layer_1" data-name="Layer 1" xmlns="http://www.w3.org/2000/svg" viewBox="0 0 224.72 248.87"><defs><style>.cls-1{fill:#fff;}.cls-2{fill:#eef3cc;}.cls-3{fill:#342c29;}.cls-4{fill:#4e423e;}.cls-5{fill:#8b756d;}.cls-6{fill:#685852;}.cls-7{fill:#8e423e;}.cls-8{fill:#ff756d;}.cls-9{fill:#e86767;}.cls-10{fill:#04173c;}.cls-11{fill:#2b90f3;}.cls-12{fill:#98e2ea;}.cls-13{fill:#97dadd;}.cls-14{fill:#b77748;}.cls-15{fill:#895936;}.cls-16{fill:#1c1308;}.cls-17{fill:#060608;}.cls-18{fill:#206eb6;}.cls-19{fill:#515657;}.cls-20{fill:#292b2c;}.cls-21{fill:#151616;}.cls-22{fill:#72aab0;}.cls-23{fill:#0b1314;}.cls-24{fill:#395558;}.cls-25{fill:#3d4141;}.cls-26{fill:#212325;}.cls-27{fill:#293133;}.cls-28{fill:#1f2526;}</style></defs><title>square-cassowary</title><path class="cls-1" d="M80.32,3.84a1.91,1.91,0,0,0,.42,1.26,2.46,2.46,0,0,0,1.07.74,11.5,11.5,0,0,0,1.46.42q.8.18,1.6.41a7,7,0,0,1,1.46.59,2.79,2.79,0,0,1,1.07,1.08,3.52,3.52,0,0,1,.42,1.78,3.82,3.82,0,0,1-1.23,2.82,4.54,4.54,0,0,1-3.32,1.2,5.55,5.55,0,0,1-3.4-1,3.1,3.1,0,0,1-1.31-2.63h1.92a2.18,2.18,0,0,0,.74,1.52,2.91,2.91,0,0,0,2,.58A3,3,0,0,0,85.27,12,2.06,2.06,0,0,0,86,10.37,2.1,2.1,0,0,0,85.63,9a2.5,2.5,0,0,0-1.07-.73,10.58,10.58,0,0,0-1.46-.41q-.8-.17-1.6-.41A7.06,7.06,0,0,1,80,6.81,2.84,2.84,0,0,1,79,5.71a3.61,3.61,0,0,1-.42-1.81A3.56,3.56,0,0,1,79.8,1.07,4.76,4.76,0,0,1,83,0a5,5,0,0,1,3.17.93A3.62,3.62,0,0,1,87.55,3.5h-2a2.05,2.05,0,0,0-.76-1.4,2.75,2.75,0,0,0-1.84-.58,2.92,2.92,0,0,0-1.89.59A2.09,2.09,0,0,0,80.32,3.84Z"/><path class="cls-1" d="M91.25,12.57a5.84,5.84,0,0,1-1.49-4.12,5.65,5.65,0,0,1,1.48-4.06A4.91,4.91,0,0,1,95,2.84a4.43,4.43,0,0,1,2.43.66A4.31,4.31,0,0,1,99,5.22V3h1.82V19.2H99V11.76a4.34,4.34,0,0,1-4,2.42A4.83,4.83,0,0,1,91.25,12.57Zm6.62-1.07a4.11,4.11,0,0,0,1.08-3,4.11,4.11,0,0,0-1.08-3,3.47,3.47,0,0,0-2.59-1.12A3.53,3.53,0,0,0,92.69,5.5a4,4,0,0,0-1.08,2.94,4.23,4.23,0,0,0,1.09,3,3.51,3.51,0,0,0,5.18,0Z"/><path class="cls-1" d="M111.41,3h1.8V14h-1.8V12.24a3.75,3.75,0,0,1-3.54,1.94,4.08,4.08,0,0,1-3-1.21,4.64,4.64,0,0,1-1.21-3.43V3h1.78V9.24a3.57,3.57,0,0,0,.8,2.51,3.19,3.19,0,0,0,4.38,0,3.57,3.57,0,0,0,.8-2.51Z"/><path class="cls-1" d="M117,12.57a5.84,5.84,0,0,1-1.49-4.12,5.65,5.65,0,0,1,1.48-4.06,4.91,4.91,0,0,1,3.71-1.55,4.43,4.43,0,0,1,2.43.66,4.31,4.31,0,0,1,1.57,1.72V3h1.82V14h-1.82V11.76a4.34,4.34,0,0,1-4,2.42A4.82,4.82,0,0,1,117,12.57Zm6.62-1.07a4.11,4.11,0,0,0,1.08-3,4.11,4.11,0,0,0-1.08-3A3.47,3.47,0,0,0,121,4.42a3.53,3.53,0,0,0-2.59,1.08,4,4,0,0,0-1.08,2.94,4.23,4.23,0,0,0,1.09,3,3.51,3.51,0,0,0,5.18,0Z"/><path class="cls-1" d="M131.25,3V4.88a3.38,3.38,0,0,1,3.31-2v1.9h-.48a2.84,2.84,0,0,0-2.11.73A3.54,3.54,0,0,0,131.25,8v6h-1.8V3Z"/><path class="cls-1" d="M141.29,14.18a5,5,0,0,1-3.8-1.56A5.77,5.77,0,0,1,136,8.5a5.69,5.69,0,0,1,1.48-4.11,5.23,5.23,0,0,1,9.09,3.67,6.92,6.92,0,0,1-.08,1.08h-8.65a3.79,3.79,0,0,0,1,2.59,3.24,3.24,0,0,0,2.4,1,3.33,3.33,0,0,0,1.87-.5,3,3,0,0,0,1.12-1.32h1.94a5,5,0,0,1-1.77,2.38A5.13,5.13,0,0,1,141.29,14.18Zm2.44-8.89a3.52,3.52,0,0,0-4.79,0,3.74,3.74,0,0,0-1,2.55h6.83A3.45,3.45,0,0,0,143.72,5.29Z"/><rect class="cls-2" x="22.05" y="46.21" width="180.61" height="180.61" transform="translate(211.04 -10.2) rotate(73.38)"/><path class="cls-3" d="M105.52,209.84a4.31,4.31,0,0,0,3.56,1.39c2.37,0,4.71.37,5.59,1.37a7.66,7.66,0,0,1,1.08,1.43c.33.5-.29.26-.84-.15a5.14,5.14,0,0,0-1.34-.19,33.3,33.3,0,0,0-3.74-.15c-1.83,0-5.77.91-5.93,0S104.72,209.24,105.52,209.84Z"/><path class="cls-4" d="M94.61,150.58c-1.84,1.39,0,6.18-1.36,9.09s-2.31,4.71-1.89,7.62,3.7,16,3.39,20.3.69,15.75,0,18.3-.63,4.36.77,5.88c.9,1,1.26,2.67,2.44,2.82,1.72.22,3,.77,4.23.89,2.27.23,6.62-2,8.59-1.18s4.67.64,5.72,1.15.61-.46.07-1.07a11,11,0,0,0-4.37-2.68c-1.6-.32-4.36.23-6.53-1.74s-2.36-1.81-2.8-4-1.6-11.55-1.35-14.82-1.25-11.77-.93-13.71,3.74-7.08,4.35-10a12.47,12.47,0,0,1,6-7.62C113.82,158.16,97.38,148.48,94.61,150.58Z"/><path d="M87.9,152c3.47.81,4.44,3.11,5.1,5.26s-2,10.56,1.92,9.39c2.17-.65,3.43.7,5.15,1.76,1.19.73,3.35,1.1,3.75,1.92s2.95-2.92,4.28-4.62a28.39,28.39,0,0,0,3.74-6.87c1.18-3.32,2.57-6.2,4.7-7.66,2.29-1.57,1.19-8.13-7.13-8.25S85.87,151.53,87.9,152Z"/><path class="cls-4" d="M103.91,212.77c2.37,0,4.71.37,5.59,1.37a7.73,7.73,0,0,1,1.08,1.43c.34.5-.29.26-.84-.15a5.18,5.18,0,0,0-1.34-.19,15.28,15.28,0,0,0-3.88,0C102.7,215.5,101.63,212.76,103.91,212.77Z"/><path class="cls-5" d="M159.2,68.4a2.35,2.35,0,0,1-.27-2.8c.81-1.22,2.23-4.79,4-5.73s1.32-1.72,2.15-2.78,3.28-3.23,4.49-2.39,4.79,4.42,5.27,7.19a24.34,24.34,0,0,1,0,7.43c-.25.93.17.66,1.05.91s2.89.6,3.25,1.35-4,1.27-5.36.78-10.29-.63-12.13-1.85S159.56,69,159.2,68.4Z"/><path class="cls-4" d="M179.11,71.58c-.35-.75-2.36-1.11-3.25-1.35s-1.31,0-1.05-.91a24.34,24.34,0,0,0,0-7.43c-.48-2.77-4.06-6.35-5.27-7.19l-.13-.08a18.22,18.22,0,0,1,3.91,6.32c.72,2.68.1,4.7.4,5.82.42,1.6-.11,5.08-2.5,5.24a14.25,14.25,0,0,1,2.52.36C175.06,72.85,179.46,72.33,179.11,71.58Z"/><path class="cls-6" d="M168.42,55.48c-.92.5-3,1.87-3.06,2.86a4.43,4.43,0,0,1-2.44,3.19c-1.25.42-3.73,5.26-3,5,1.59-.44,5.6-.84,8.11.1,1.18.44,2.93,1.07,3.14.2A13.69,13.69,0,0,0,172,62C171.73,59.58,169.72,54.78,168.42,55.48Z"/><path class="cls-4" d="M179.11,71.58a1.21,1.21,0,0,0-.51-.48,29.67,29.67,0,0,0-4.69-.72,4.81,4.81,0,0,1-2-.3c-.37-.22-1.43-1.33-2.49-2a9,9,0,0,0-4.31-.86h-3.86c-.68,0-2.47.57-2.22,1l.17.28c.36.6.58.89,2.42,2.11s10.82,1.36,12.13,1.85S179.46,72.33,179.11,71.58Z"/><path class="cls-7" d="M162,107.29c-.44,1.77-1.73,6.66-.82,7.24s2.29-1.54,2.45-3.28-.09-5.84-.55-6.55S162.33,106,162,107.29Z"/><path class="cls-8" d="M166.51,99.28a21.48,21.48,0,0,0-.82,5.41c.08,1.62.34,4.15.52,5.56s.59,5.23-.53,5.19-2-.12-2.33-2.61.77-5.24-.37-7c-1-1.48.29-2.56,1-4.13S166.77,98.36,166.51,99.28Z"/><path class="cls-9" d="M165,103.43c-.19-.9,1-2.13,0-3.23a7.23,7.23,0,0,0-1,1.5c-.75,1.58-2,2.66-1,4.13.86,1.32.42,3.21.31,5.13a9.29,9.29,0,0,0,.38,2.52c.3.94,1.59,1.51,1.92.76a8,8,0,0,0,.06-3.07c-.08-.78-.32-2.28-.42-3.8S165.16,104.22,165,103.43Z"/><path class="cls-10" d="M172.08,74.34A23.67,23.67,0,0,1,168,76.87c-1.29.58-1.51,1.81-2.33,1.58a1.17,1.17,0,0,1-.52-2.08c.89-1,.61-1.58,2.33-2S172.81,73.76,172.08,74.34Z"/><path class="cls-11" d="M181.94,72.74a14.73,14.73,0,0,0-5.16-1.84c-1.81-.23-3.6-.26-4.4-.34s-1.76-1.75-3.63-2.52-3.24-.39-5.45-.6a6.77,6.77,0,0,0-4.85,1.21c-1.66,1-1.77,3.29-2.9,5.18-1,1.65-.84,5.79-.74,6.85.21,2.22,1.12,2.88,2.06,5.58s.45,6-1.66,7.51-10.5,8-6.3,13.08,9.14,8.42,10.84,6.39,4-9.4,5.72-11.75,2.09-7.54,1.6-10.76-2.23-9.38-1.86-10.83a11.17,11.17,0,0,1,2.49-4.36c1.19-.94,3.22-.72,4.42-1a25.77,25.77,0,0,1,5.29-.4c1.57,0,4.09.23,4.46.16.2,0,.35-.2.53-.17s.33.1.31-.16A1.78,1.78,0,0,0,181.94,72.74Z"/><path class="cls-12" d="M180.59,74.26a7.2,7.2,0,0,0,.78-1.86,15.68,15.68,0,0,0-4.6-1.51c-1.81-.23-3.6-.26-4.4-.34s-1.76-1.75-3.63-2.52-3.24-.39-5.45-.6a6.77,6.77,0,0,0-4.85,1.21c-1.66,1-1.77,3.29-2.9,5.18-1,1.65-.84,5.79-.74,6.85v.1c.24-3.43,2.23-5.9,4.38-5.43a7.32,7.32,0,0,0,5-.84c.79-.46.65-1.7,2-1.47,1,.18,4.92-.12,7.89,1.21a32.41,32.41,0,0,1,3.42-.12C178.36,74.14,179.63,74.21,180.59,74.26Z"/><path class="cls-13" d="M168.72,71.56a6.05,6.05,0,0,1-1.05-1c-.47-.58-.67-1-1.4-.89s-1.37,1.13-2.45,1.23-1.27.61-.73,1.15a6,6,0,0,0,3.13.87,6.8,6.8,0,0,0,2.76-.35C169.55,72.18,169,71.75,168.72,71.56Z"/><path class="cls-13" d="M172.38,70.55c-.8-.08-1.76-1.75-3.63-2.52s-3.24-.39-5.45-.6a6.77,6.77,0,0,0-4.85,1.21c-1.3.75-1.65,2.33-2.28,3.89.16-.4.43-.85.54-1.09a7.37,7.37,0,0,1,3.4-3.15c1.39-.52,3,.08,3.64.17s.69-.37,1.83-.44a7.41,7.41,0,0,1,4.12,1.16c.77.71,1.21.85,1.71,1.64.11.18,1,.22,1.36.44.22.12.66-.22.92-.62Z"/><path class="cls-11" d="M168.15,71.67a1.37,1.37,0,0,1-.47-.48,1.53,1.53,0,0,0-.89-.84,1.35,1.35,0,0,0-1.38.45c-.24.39-.47.82-.13,1.27s.5.79,1.19.7,1.13-.84,1.33-.77S168.29,71.81,168.15,71.67Z"/><path class="cls-14" d="M167.42,71.25a1,1,0,0,1-.73,1.21,1,1,0,1,1-.5-1.9A1,1,0,0,1,167.42,71.25Z"/><path class="cls-15" d="M165.42,71.46c.21.42,1.48.52,2-.3a1,1,0,0,0-1.2-.59A1,1,0,0,0,165.42,71.46Z"/><path class="cls-16" d="M167.43,71.25a1.07,1.07,0,0,1-.08.78,1,1,0,0,1-.27.31,1,1,0,0,1-.38.18,1.16,1.16,0,0,1-.8-.11,1.09,1.09,0,0,1-.32-.26,1,1,0,0,1-.19-.37,1,1,0,0,1,.12-.8,1.09,1.09,0,0,1,.65-.49,1.1,1.1,0,0,1,.42,0,1,1,0,0,1,.68.42A1.16,1.16,0,0,1,167.43,71.25Zm0,0a.85.85,0,0,0-.48-.56,1.12,1.12,0,0,0-.36-.09,1,1,0,0,0-.36,0,1,1,0,0,0-.57.42.93.93,0,0,0-.12.71.84.84,0,0,0,.45.56,1,1,0,0,0,.72.07,1,1,0,0,0,.59-.41A.93.93,0,0,0,167.39,71.26Z"/><path class="cls-17" d="M166.89,71.4a.4.4,0,0,1-.29.49.36.36,0,0,1-.43-.31.38.38,0,0,1,.73-.18Z"/><path class="cls-13" d="M172.72,71.24c.17.12.37.44-.13.78a9.68,9.68,0,0,1-2.52.86,12,12,0,0,0,3.35-.39c.68-.37,1.13-.17.72-.75S172.54,71.11,172.72,71.24Z"/><path class="cls-18" d="M172.24,74.49c-.11-.56-1-1-1.75-1.05-.5,0-.93.14-1.43.17s-.66.55-.88.78c-.39.4-.13.64-.86,1.5a3.06,3.06,0,0,1,.38-.36c1.19-.94,3.22-.72,4.42-1Z"/><path class="cls-19" d="M182.72,73.94a1.78,1.78,0,0,0-.78-1.21,14.73,14.73,0,0,0-5.16-1.84c-1.44-.18-2.87-.24-3.8-.3-.3.1-.08.25-.26.44s.34.2.6.6,0,.56-.78.77a24,24,0,0,1-4.23.65c-1.13,0-2.74.17-2.74.45s.6.27.94.27a33.56,33.56,0,0,1,4.69-.15c.48.16.17.8.79.92l.14,0a25.77,25.77,0,0,1,5.29-.4c1.57,0,4.09.23,4.46.16.2,0,.35-.2.53-.17S182.74,74.21,182.72,73.94Z"/><path class="cls-20" d="M181.1,73.88c-.61-.15-2-.34-2.63-.57a6.51,6.51,0,0,0-2.06-.38,22.75,22.75,0,0,0-4.3.35,10.24,10.24,0,0,1-1.61.27,2.81,2.81,0,0,1,.71.06c.48.16.17.8.79.92l.14,0a25.77,25.77,0,0,1,5.29-.4c1.57,0,4.09.23,4.46.16a1.2,1.2,0,0,0,.31-.13S181.5,74,181.1,73.88Z"/><path class="cls-21" d="M182.21,74.14s-.08,0-.12,0c-.25-.08-.51-.14-.76-.2l-1-.23c-.68-.15-1.35-.32-2-.49a15.82,15.82,0,0,0-2.08-.31c-.7-.06-1.39-.1-2.09-.09h-.52c-.18,0-.35,0-.52.05l-1,.11-2.08.18c-1.39.11-2.77.24-4.16.4h0c.7,0,1.39-.06,2.09-.1s1.39-.09,2.08-.16,1.38-.17,2.07-.25l1-.11.52,0h.52c.69,0,1.39.06,2.08.14a18.35,18.35,0,0,1,2,.33l1,.23,1,.21,1,.19.75.15s.08,0,.11,0Z"/><path class="cls-18" d="M160.32,77c-.92-.61,1.28,1.35,2.51,3.53.6,1.06.35,2.06.58,3.06.71,3,1.77,4.4,2,6.43s.86,2.65.8,1.6-.86-5.63-1.1-7.1a8.36,8.36,0,0,1,.16-2.8,5.51,5.51,0,0,1-.06-1.8,13.62,13.62,0,0,1,1.94-3.8c-1.86,2.14-1.78,1.36-3.25,1.7A4.49,4.49,0,0,1,160.32,77Z"/><path class="cls-13" d="M159.8,69.86a2.51,2.51,0,0,0-.47,1.26c0,.42-.39,1.61.23,2s1.24.91,1.92.12.83-1.08.8-1.73.3-1.22-.15-1.65A2.16,2.16,0,0,0,159.8,69.86Z"/><path class="cls-22" d="M159.94,70.59a2.42,2.42,0,0,0-.25,2.09c.37.83,1.29,1,1.54.35s.46-.8.33-1.53-.73-1.2-1-1.18S160,70.4,159.94,70.59Z"/><path class="cls-23" d="M160.12,71.74c-.19.07-.22.17-.14.55s.56.68.69.39a1.27,1.27,0,0,0,.19-.57C160.81,71.66,160.37,71.65,160.12,71.74Z"/><path class="cls-22" d="M159.8,70.45a.91.91,0,0,1,1.06-.14c.4.27.68.58.68.83s.18.5.17.28.14-.5-.11-.84-.21-.52-.6-.55-.85,0-1,.16S159.7,70.54,159.8,70.45Z"/><path class="cls-24" d="M159.93,72.3c0-.12-.12-.35,0-.47s.1-.17.27-.18.33-.07.2-.08a.65.65,0,0,0-.42.05c-.08.08-.14.05-.14.31S160,72.43,159.93,72.3Z"/><path class="cls-25" d="M179.8,72.56a1.14,1.14,0,0,0-.4-.61c-.22-.12-.39-.35-.72-.33a1.28,1.28,0,0,0-.81.25c-.13.16-.17.61.17.69a2.59,2.59,0,0,0,1.13.15C179.48,72.62,179.84,72.67,179.8,72.56Z"/><path class="cls-26" d="M179.4,72c-.22-.12-.39-.35-.72-.33a1.28,1.28,0,0,0-.81.25c-.13.16-.17.61.17.69l.09,0c.1,0,.31-.14.62-.22s1,.19,1,0A.9.9,0,0,0,179.4,72Z"/><path class="cls-26" d="M177.71,72.25c0-.1,0-.35.07-.41a.85.85,0,0,1,.46-.21,1.76,1.76,0,0,1,.68,0c.2.07.11,0,.06,0s-.29,0-.38-.05a.68.68,0,0,0-.29,0,2.07,2.07,0,0,1-.33.07.31.31,0,0,0-.24.16.75.75,0,0,0-.08.34C177.67,72.2,177.72,72.31,177.71,72.25Z"/><path class="cls-25" d="M178.65,72.78a1.56,1.56,0,0,0,.47,0,2.5,2.5,0,0,1,.45-.09c.14,0,.24.06.11.05a.64.64,0,0,0-.3.06,1.06,1.06,0,0,1-.33,0C178.91,72.83,178.44,72.78,178.65,72.78Z"/><path class="cls-11" d="M158.88,73.32a1.65,1.65,0,0,1-.2,1.27c-.29.29-.15.58-.8.83-1.16.43,1.52,1,2.63.82,1.81-.28,3.33-1.44,2.52-1.22-.6.17-1.05.2-.86-.48s1.15-1.29.54-1.2-1.53.52-2.22.57C159.15,74,158.76,73,158.88,73.32Z"/><path class="cls-13" d="M155.54,73.81a4.12,4.12,0,0,0-.4,1,.57.57,0,0,0,.26.65c.46.35.47.19.36-.51a5.08,5.08,0,0,1,.36-2.32A8.88,8.88,0,0,1,155.54,73.81Z"/><path class="cls-18" d="M165.47,101.48a9.24,9.24,0,0,0,1.39-3.56c-.83,2.28-3.11-3.14-3.9-4.86-1.08-2.38-3-.11-3.71,1.24s-1.36,2.07-1.61.89-3.8,1.41-3.8,1.41-1.69,2.3-3.59,5.48,2.74,6.67,7.37,7.14c1.82.18,3.65-.88,5.23-2.37A31,31,0,0,1,165.47,101.48Z"/><path class="cls-8" d="M158.3,86.66c-.72-1.61-2.08-4.53-2.34-5.46a9.56,9.56,0,0,1-.6-2.24c-.09-1-.09-2.17-.13-2.7,0-.37-.3-.46-.35-.08a23.82,23.82,0,0,0-.07,4.48c.21,2.22,1.12,2.88,2.06,5.58s.45,6-1.66,7.51c-1.53,1.1-6.39,4.82-7.31,8.73,3.1-1.24,8.64-7.37,10-8.78C159.54,92.11,159,88.27,158.3,86.66Z"/><path class="cls-9" d="M157.88,90c0-.39-.41-1.51-.77-2.89.59,2.52,0,5.32-1.9,6.68A30.48,30.48,0,0,0,151.37,97a2,2,0,0,0,.28.38c.28.19,3.44-2.5,4.91-3.88A3.7,3.7,0,0,0,157.88,90Z"/><path class="cls-27" d="M155.84,104.28c1.21-1.28,3.74-2,3.74-3.94s.11-7,1.28-6.09,3.34,3.74,3.34,6c0,2.42-.15,3.76-1.56,8-.38,1.16-3.26,4-5.06,7.22-2.7,4.81-6.65,10.18-8.59,14.6-1.8,4.09-10.87,10.62-16.86,13.94s-19.38,11.21-31.1,10.71-29.94,0-36.93,4.48S50.4,165.89,49.62,168s-1.33,3.32-3,2.88A7.55,7.55,0,0,0,43,171c-1,.13-2-.31-3.22-1.75s-3.11-2.21-3.66-1.55-1.11-3.87-.78-8.52.91-11.29-.1-11.06-1.56-3,.66-6,1.44-3.76,1.66-6,3-6,5.54-7.63.78-2.77,2.55-4.2,2.55-6.75,7.43-9.4,24-13.83,30.61-15.49,26-4,36.26-4.65,24.37.25,26.34.25,6.92-.26,7.06.19c0,0-.05.06-.08.09-.41.47,1.48,1.18,2.28,1.15s.51,1.87.18,2.78a20.28,20.28,0,0,0-1.09,4.34C154.65,104.9,155.35,104.79,155.84,104.28Z"/><path class="cls-28" d="M76.46,134.91c2.66-3.43,5.66-8.08,2.55-9s-7-.33-6.43-2.43-5.88-1.33-7.76-.66-6.54-.89-6.43-2.1,1-2.88-1.89-3.43-4.21,1.66-2.77-1.22a14.77,14.77,0,0,1,3.67-3.64c-1.86,1-3.38,1.9-4.34,2.43-4.88,2.65-5.66,8-7.43,9.4s0,2.54-2.55,4.2-5.32,5.42-5.54,7.63.55,3-1.66,6-1.66,6.2-.66,6,.43,6.42.1,11.06.22,9.18.78,8.52,2.44.11,3.66,1.55S42,171.09,43,171a7.55,7.55,0,0,1,3.66-.09c1.66.44,2.22-.77,3-2.88s7.49-4.34,14.48-8.82a19.39,19.39,0,0,1,4.92-2.1c.37-1.72,1.49-3.55,2.78-6.46C73.91,145.86,73.8,138.34,76.46,134.91Z"/><path class="cls-28" d="M104,115.44c1.55,3.21,2.33,2.1,5.32,8.74s6.65,9.74,6.65,14.16-.89,11.62-1.17,13.94h0c7.18-2.48,13.67-6.26,17.36-8.3,6-3.32,15.06-9.85,16.86-13.94a59.81,59.81,0,0,1,4.11-7.31,16.1,16.1,0,0,1-2.78-4c-1.22-2.88-1.66-3.76-4.66-2.21s-6.1-1.88-10.87,1.33-6.77,3.82-9.76,2.52-6.1,1.24-7.54,1.91-15.08-10.07-13.53-6.86"/><path class="cls-28" d="M125.59,94.55c-1.95,0-3.86.09-5.65.2-10.3.61-29.61,3-36.26,4.65s-25.73,12.83-30.61,15.49A10.72,10.72,0,0,0,50.31,117c.26,3.88,1.74,6.15,3.08,3.72,3-5.42,12.53-7.85,14.53-11.16s12.53-4.22,14.31-6,11.2-2,15.42-4.57C100.31,97.4,115.09,95.63,125.59,94.55Z"/><path class="cls-28" d="M162.64,108.22A31.33,31.33,0,0,0,164,103c-1.21,4.63-3.46,5.4-5,6.56-2.42,1.78-6.93,12.16-8.08,10.29-.58-.93-.82,5.38-.54,7.41,2.09-3.79,5.05-8,7.21-11.85C159.38,112.25,162.26,109.37,162.64,108.22Z"/><path class="cls-28" d="M115.57,145c-.68,3.78-7.06,3-11.73,5s-13.3,1.82-20.95,2.33-10.67-1.08-10.26-4c.39-2.74-9.86,6.59-9.12,11.28l.59-.37c7-4.48,25.2-5,36.93-4.48,9.9.42,21-5.13,27.79-8.87C126.28,143.93,115.79,143.72,115.57,145Z"/><path class="cls-6" d="M95.49,213.1a4.07,4.07,0,0,0,3.46,1.21c2.37,0,4.71.37,5.59,1.37a7.71,7.71,0,0,1,1.08,1.42c.34.5-.29.26-.84-.15a5.19,5.19,0,0,0-1.34-.19,33.28,33.28,0,0,0-3.74-.15c-1.83,0-5.77.91-5.93,0S94.69,212.5,95.49,213.1Z"/><path class="cls-5" d="M84.45,153.72c-1.83,1.39,0,6.18-1.36,9.08s-2.31,4.71-1.89,7.62,3.7,16,3.39,20.3.69,15.75,0,18.3-.63,4.36.77,5.88c.9,1,1.26,2.67,2.44,2.82,1.72.22,3,.77,4.23.89,2.27.23,6.62-2,8.59-1.18s4.67.64,5.72,1.15.61-.45.06-1.07a11,11,0,0,0-4.37-2.68c-1.59-.32-4.36.23-6.53-1.74s-2.36-1.81-2.8-4-1.6-11.55-1.35-14.82-1.25-11.77-.93-13.71,3.73-7.08,4.35-10a12.47,12.47,0,0,1,6-7.62C103.66,161.3,87.22,151.62,84.45,153.72Z"/><path class="cls-6" d="M87.71,216.26c-1.25-1.68-2.66-4.81-1.74-7.14s-.33-9.54-.58-12.45.33-8.3-.39-11.45-1.61-10.48-2.49-13.64-.78-2.77,0-3.82a7.9,7.9,0,0,1,4-3.46c.49-.17.45-2.84-3.26-2a4.32,4.32,0,0,1-.2.5c-1.39,2.9-2.31,4.71-1.89,7.62s3.7,16,3.39,20.3.69,15.75,0,18.3-.63,4.36.77,5.88c.9,1,1.26,2.67,2.44,2.82,1.72.22,3,.77,4.23.89a4.53,4.53,0,0,0,.82,0C91.21,218.11,88.66,217.52,87.71,216.26Z"/><path class="cls-28" d="M78.36,155.31c2.74,0,4.82,3.13,4.37,5.35-.25,1.25-.14,5.2,1.58,6.47,1.26.93,7.62,4.49,8.15,6.14,1.34,4.15,9.21-8,10.39-11.28s5.33-7.9,8-8.51-2.11-7.29-10.42-7.4S76.28,155.35,78.36,155.31Z"/><path class="cls-5" d="M94.18,215.85c2.37,0,4.71.37,5.59,1.37a7.68,7.68,0,0,1,1.08,1.42c.34.5-.29.26-.84-.15a5.16,5.16,0,0,0-1.34-.19,25.45,25.45,0,0,0-4.33,0c-1.81.24-3.74-.56-3.9-1.47S91.91,215.83,94.18,215.85Z"/></svg>