<svg xmlns="http://www.w3.org/2000/svg" viewBox="0 0 224.78 248.9"><defs><style>.cls-1{isolation:isolate;}.cls-2{fill:#fff;}.cls-3{fill:#eef3cc;}.cls-4{fill:#101010;}.cls-5{fill:#dead18;}.cls-6{fill:#c97841;}.cls-7{fill:#a54e13;}.cls-8{fill:#38271b;}.cls-9{fill:#e29e5a;}.cls-10{fill:#91826e;}.cls-11{fill:#472f2c;}.cls-12{fill:#5b413d;}.cls-13{fill:#917a77;}.cls-14{fill:#bfbdbd;opacity:0.1;mix-blend-mode:screen;}.cls-15{fill:#2e211f;}.cls-16{fill:#e5a86c;}.cls-17{fill:#ffaf78;}.cls-18{fill:#ffcd50;}</style></defs><title>square-bug</title><g class="cls-1"><g id="Layer_1" data-name="Layer 1"><path class="cls-2" d="M80.36,3.84a1.91,1.91,0,0,0,.42,1.26,2.46,2.46,0,0,0,1.07.74,11.5,11.5,0,0,0,1.46.42q.8.18,1.6.41a7,7,0,0,1,1.46.59,2.79,2.79,0,0,1,1.07,1.08,3.52,3.52,0,0,1,.42,1.78,3.82,3.82,0,0,1-1.23,2.82,4.54,4.54,0,0,1-3.32,1.2,5.55,5.55,0,0,1-3.4-1,3.1,3.1,0,0,1-1.31-2.63h1.92a2.18,2.18,0,0,0,.74,1.52,2.91,2.91,0,0,0,2,.58A3,3,0,0,0,85.31,12a2.06,2.06,0,0,0,.77-1.59A2.1,2.1,0,0,0,85.66,9a2.5,2.5,0,0,0-1.07-.73,10.58,10.58,0,0,0-1.46-.41q-.8-.17-1.6-.41a7.06,7.06,0,0,1-1.46-.61A2.84,2.84,0,0,1,79,5.71a3.61,3.61,0,0,1-.42-1.81,3.56,3.56,0,0,1,1.24-2.83A4.76,4.76,0,0,1,83.06,0a5,5,0,0,1,3.17.93A3.62,3.62,0,0,1,87.58,3.5h-2a2.05,2.05,0,0,0-.76-1.4A2.75,2.75,0,0,0,83,1.52a2.92,2.92,0,0,0-1.89.59A2.09,2.09,0,0,0,80.36,3.84Z"/><path class="cls-2" d="M91.29,12.57A5.84,5.84,0,0,1,89.8,8.45a5.65,5.65,0,0,1,1.48-4.06A4.91,4.91,0,0,1,95,2.84a4.43,4.43,0,0,1,2.43.66A4.31,4.31,0,0,1,99,5.22V3h1.82V19.2H99V11.76a4.34,4.34,0,0,1-4,2.42A4.83,4.83,0,0,1,91.29,12.57Zm6.62-1.07a4.11,4.11,0,0,0,1.08-3,4.11,4.11,0,0,0-1.08-3,3.47,3.47,0,0,0-2.59-1.12A3.53,3.53,0,0,0,92.72,5.5a4,4,0,0,0-1.08,2.94,4.23,4.23,0,0,0,1.09,3,3.51,3.51,0,0,0,5.18,0Z"/><path class="cls-2" d="M111.44,3h1.8V14h-1.8V12.24a3.75,3.75,0,0,1-3.54,1.94,4.08,4.08,0,0,1-3-1.21,4.64,4.64,0,0,1-1.21-3.43V3h1.78V9.24a3.57,3.57,0,0,0,.8,2.51,3.19,3.19,0,0,0,4.38,0,3.57,3.57,0,0,0,.8-2.51Z"/><path class="cls-2" d="M117,12.57a5.84,5.84,0,0,1-1.49-4.12A5.65,5.65,0,0,1,117,4.39a4.91,4.91,0,0,1,3.71-1.55,4.42,4.42,0,0,1,2.42.66,4.31,4.31,0,0,1,1.57,1.72V3h1.82V14h-1.82V11.76a4.34,4.34,0,0,1-4,2.42A4.83,4.83,0,0,1,117,12.57Zm6.62-1.07a4.11,4.11,0,0,0,1.08-3,4.11,4.11,0,0,0-1.08-3A3.47,3.47,0,0,0,121,4.42a3.53,3.53,0,0,0-2.59,1.08,4,4,0,0,0-1.08,2.94,4.23,4.23,0,0,0,1.09,3,3.51,3.51,0,0,0,5.18,0Z"/><path class="cls-2" d="M131.28,3V4.88a3.38,3.38,0,0,1,3.31-2v1.9h-.48a2.84,2.84,0,0,0-2.11.73A3.54,3.54,0,0,0,131.28,8v6h-1.8V3Z"/><path class="cls-2" d="M141.32,14.18a5,5,0,0,1-3.8-1.56,5.77,5.77,0,0,1-1.46-4.12,5.69,5.69,0,0,1,1.49-4.11,5.6,5.6,0,0,1,7.65-.08,5.15,5.15,0,0,1,1.43,3.75,6.92,6.92,0,0,1-.08,1.08h-8.65a3.79,3.79,0,0,0,1,2.59,3.24,3.24,0,0,0,2.41,1,3.34,3.34,0,0,0,1.87-.5,3,3,0,0,0,1.12-1.32h1.94a5,5,0,0,1-1.77,2.38A5.13,5.13,0,0,1,141.32,14.18Zm2.44-8.89a3.52,3.52,0,0,0-4.79,0,3.74,3.74,0,0,0-1,2.55h6.83A3.44,3.44,0,0,0,143.75,5.29Z"/><path class="cls-3" d="M220.76,28.14V244.89H4V28.14H220.76m4-4H0V248.9H224.78V24.12Z"/><path class="cls-4" d="M112.06,192.32a9.53,9.53,0,0,1,.4-1.16,11.47,11.47,0,0,0,.75-1.42,24,24,0,0,0-.72,4.34,10.07,10.07,0,0,0,.52,3.86c.41,1.15,1.67,2,2.59,2.77q1,.84,2.05,1.61a2.67,2.67,0,0,0,.91.51l1.23.36a1.22,1.22,0,0,1,.32.13.62.62,0,0,1,.27.61.44.44,0,0,1-.11.24.68.68,0,0,1-.55.12,5.38,5.38,0,0,1-2-.52,13.11,13.11,0,0,1-1.91-1.08,9.22,9.22,0,0,1-4-6.1,9.83,9.83,0,0,1,.07-3.67Q112,192.62,112.06,192.32Z"/><path class="cls-5" d="M61.07,202.79l-.07.06,0,.1a7.91,7.91,0,0,0-.17,1.77c0,1.67.35,3.72,1.11,4.29a.76.76,0,0,0,.69.14c1.19-.35,3.33-1.75,3.53-2.46a.43.43,0,0,0,0-.14c0-.83-2.41-3.93-3.26-4.2A2.15,2.15,0,0,0,61.07,202.79Z"/><path class="cls-6" d="M62.63,191.64c-.34.32-3.38,3.16-3.65,4.09a.7.7,0,0,0,0,.21c0,.54.59,1.09,1.35,1.51a19.57,19.57,0,0,0-1.72,5.31.73.73,0,0,0,.11.44c.58.79,4.31-.2,5-.61a.71.71,0,0,0,.28-.64,12.91,12.91,0,0,0-1.28-3.74l.2,0c.92,0,1.37-1.42,1.37-4.34,0-.78,0-1.36,0-1.39v-.15l-1.39-.85Z"/><path class="cls-7" d="M83.28,174.78a.45.45,0,0,0,0,.11,4.9,4.9,0,0,0,.36,1.15c-1.74.08-6.83.81-7.27,1.44a.68.68,0,0,0-.11.41,3.26,3.26,0,0,0,.21.95c-1.63.2-5.44,1.69-5.87,2.66a.83.83,0,0,0-.07.34,1.59,1.59,0,0,0,.36.9c-1.2.45-5.14,2.63-5.31,3.46a.7.7,0,0,0,0,.12,1.25,1.25,0,0,0,.34.69,8.8,8.8,0,0,0-4.2,3.73.45.45,0,0,0,0,.11c0,.64,1.19,1.41,1.56,1.63s1.91,1.08,2.75.65,1.15-3.59,1.19-5a5.38,5.38,0,0,0,2.21,1c.9,0,2.28-3,3.12-5a3.79,3.79,0,0,0,1.21.5c1.17.17,2.89-2.25,3.62-3.94a5.21,5.21,0,0,0,1,1.32.84.84,0,0,0,.65.16c1.37-.16,4.09-2.86,5.39-4.37a6.31,6.31,0,0,0,1.27,2c.59.32,1.52-.45,3.25-1.94l1-.82.16-.13-.06-.19L89.43,175c-.06-.21-.08-.29-1.93-.44-1.08-.09-2.16-.13-2.89-.12C83.67,174.41,83.36,174.5,83.28,174.78Z"/><path class="cls-8" d="M152.05,56.77l-.1.14.08.16c.73,1.45,1.51,3.17,1.52,3.18l.06.14.14,0c.18,0,4.36.94,6.51-1.26l.05-.05,0-.07a.41.41,0,0,0,0-.13c0-.55-.89-.77-2.91-1.14-.43-.08-.95-.17-1.21-.25.14-.27.46-.77.71-1.16a8,8,0,0,0,1.19-2.22v-.05c0-.08,0-.28-.33-.38C157,53.44,154,54,152.05,56.77Z"/><path class="cls-7" d="M149.14,57.76a2.9,2.9,0,0,0-1.41-.77c-1,0-2.57,2.89-3.21,4.13l-.14.27,2.28,1.11h.09c.7-.11,4.23-.68,4.81-1.14,0,0,0-.09.06-.14,1.44-.14,3-.42,3.26-.94a.65.65,0,0,0,.05-.27,8.52,8.52,0,0,0-2.36-4,1.11,1.11,0,0,0-.86-.35C151,55.73,149.87,56.93,149.14,57.76Z"/><path class="cls-9" d="M143.75,59.9c-1.12.32-1.95,2.25-2.41,3.63a3.07,3.07,0,0,0-1.86-.25c-1.36.43-2,2.43-2,4.21a6.62,6.62,0,0,0,.35,2.21l.06.19h.2a3.44,3.44,0,0,1,1.9.43l.23.23.21-.25a14.43,14.43,0,0,1,3.26-2,7.59,7.59,0,0,0,2-1.22.41.41,0,0,0,.07-.24c0-.33-.44-.82-1.26-1.46,1.43-.8,3.45-1.9,3.87-2a.42.42,0,0,0,.28-.4h0c0-.56-1.13-1.45-1.48-1.71C146.66,60.8,144.9,59.57,143.75,59.9Z"/><path class="cls-7" d="M137.84,68.56a6,6,0,0,0-4.89,3,10,10,0,0,0-.82,4.21c0,6,3.76,13.22,5.47,16.19-3.51,1.51-5.73,3.6-6.94,6.56l0,.08v.08a37.54,37.54,0,0,0,3.8,10.18l.35.63.19-.7a50.29,50.29,0,0,1,6.18-13.22,3.12,3.12,0,0,0,.61-1.87,2.66,2.66,0,0,0-.28-1.21,13.47,13.47,0,0,1-.07-1.39c0-3.4.93-8.65,1.67-12.87a57.89,57.89,0,0,0,1-7.12c0-.51-.07-.8-.22-.95C142.89,69,140.28,68.27,137.84,68.56Z"/><path class="cls-8" d="M159,100.51l0,.07c-.53,1.54-1.13,2.94-1.4,3.58-1-.89-2.51-2.11-3-2.05a.4.4,0,0,0-.29.16l-.07.09v.12a9.65,9.65,0,0,0,2.56,5l.11.12.16,0a14.9,14.9,0,0,0,3.84-1.38l.13-.08V106c0-.43.06-.85.06-1.25,0-2.66-.94-4.18-1.58-4.38A.41.41,0,0,0,159,100.51Z"/><path class="cls-7" d="M157.08,106.76a1.13,1.13,0,0,0-.56.84,9.1,9.1,0,0,0,1.67,3,1.41,1.41,0,0,0-.48.63,3.42,3.42,0,0,0-.14,1.08,16,16,0,0,0,.42,3.11l0,.2,3.54.34.07-.23a14.64,14.64,0,0,0,.68-3.62,2.32,2.32,0,0,0-.27-1.24,1.58,1.58,0,0,0-.65-.53,10.62,10.62,0,0,0,.26-2.16c0-1.81-.77-2.33-1.42-2.44A5.5,5.5,0,0,0,157.08,106.76Z"/><path class="cls-9" d="M157.65,114.51c-.29.17-.29.57-.29.7a14.38,14.38,0,0,0,.77,3.32c-.8.35-1,3.21-1.08,4.9v0l1,4.48.37-.34c1.47-1.35,4.21-4.71,4.21-6.33h0a1,1,0,0,0-.17-.6,3.59,3.59,0,0,0-.66-.68A13.58,13.58,0,0,0,163,115.9a1.35,1.35,0,0,0-.06-.44c-.09-.28-.37-.5-.84-.68C160.93,114.32,158.24,114.16,157.65,114.51Z"/><path class="cls-7" d="M156.79,120.89c-.07,0-6.7,3.93-9.51,4.81a51.69,51.69,0,0,1-6.76,1.38,5.1,5.1,0,0,0-2.28-2.3c-1-.44-2.62-.57-4.68,1.3l-.06.06,0,.08c-1.29,4.72-1.43,11.57-1.43,14.29,0,.64,0,1,0,1l0,1.16.53-1a80,80,0,0,1,5.88-7.87c1.37-1.71,2.45-3.06,2.7-3.49a1.28,1.28,0,0,0,0-.15,17.32,17.32,0,0,1,5.94.28c4.29,1,11.09,1.45,12.18-.5a2,2,0,0,0,.2-1c0-2.45-2.22-7.69-2.32-7.91l-.13-.31Z"/><path class="cls-8" d="M162.8,173.13c-.9,0-1.92.06-2.93,0h-.15l-.09.11c-.63.76-.7,3-.7,3.91v.24l.06.08c.14.17,3.41,4.27,7.15,3l.06,0a.48.48,0,0,0,.23-.41c0-.6-1.09-1.58-2.76-3-.36-.31-.77-.66-1-.91a7.17,7.17,0,0,0,3-2.17l0,0a.55.55,0,0,0,.07-.26.45.45,0,0,0-.14-.33C165.28,173.07,164.51,173.08,162.8,173.13Z"/><path class="cls-7" d="M151.47,172a1.74,1.74,0,0,0-.49,1.36,3.89,3.89,0,0,0,.1.88l0,.07,0,.05c.47.54,3,2.34,4.2,2.41a.77.77,0,0,0,.59-.18,1.36,1.36,0,0,0,.14-.23c1.11,1,3,2.16,3.68,1.92.45-.15.68-1,.68-2.38,0-.1,0-2.52-.6-3a6.06,6.06,0,0,0-3.25-.34,1.09,1.09,0,0,0-.25-.6C155.75,171.41,152.2,171.29,151.47,172Z"/><path class="cls-9" d="M147.46,169.5a25.53,25.53,0,0,0-3.47.33c-3,.46-3.05.87-3.07,1.11a.53.53,0,0,0,0,.07c0,1.25,2.48,2.65,3.8,3.21.86.37,2.38.91,2.93.39a1.48,1.48,0,0,0,.21-.31c1.22,1.06,3,2.38,3.7,1.85s.91-3,.91-3.87c0-1.29-.23-1.53-.46-1.6a14.47,14.47,0,0,0-3.71,0C148.18,170.12,147.95,169.53,147.46,169.5Z"/><path class="cls-7" d="M130.76,146.55l.16.11c.56.41,5.51,4,7.33,3.79a3.71,3.71,0,0,0,.8-.21,36.11,36.11,0,0,1,1,8.77c0,.5,0,1,0,1.52,0,.72,0,1.52,0,2.37,0,2,.07,4.09.2,5.62.22,2.74.53,3,.84,3.08.6.11,2.39-1.18,6.84-4.95a.81.81,0,0,0,.2-.66c0-2.43-3.82-15.87-4.76-16.72a3.49,3.49,0,0,0-2.45-.65,3.57,3.57,0,0,0,.37-1.6,4.09,4.09,0,0,0-.18-1.18c-.63-2.09-8.24-3.05-9.11-3.15l-.26,0Z"/><path class="cls-6" d="M127.06,164c.62.75,15.52-45,4.63-71.51C127.8,99,113.12,147.12,127.06,164Z"/><path class="cls-8" d="M136.34,211.07c-1.45.11-4.07,1.75-4.18,1.82L132,213v.17c0,.61.42,6,2.87,6.22H135c.47-.1.53-.72.53-1.36,0-.3,0-.64,0-1s0-.68,0-1a2.76,2.76,0,0,1,.11-.94,7,7,0,0,1,.8.27c.93.35,2.21.82,3.09.49l.05,0,0,0a.45.45,0,0,0,.14-.34c0-.44-.55-1.11-1.71-2.43a10.81,10.81,0,0,1-1.31-1.64l.08-.36Z"/><path class="cls-7" d="M129.1,206.54l0,.16c.1.77.48,3.33,1.14,3.76a.5.5,0,0,0,.41.07l.26-.09c.21,1.42.65,3.64,1.38,3.64s4.47-1.62,4.47-3.16c0,0,0-.07,0-.11a5,5,0,0,0-2.26-2.89,1.4,1.4,0,0,0,.15-.61,1,1,0,0,0,0-.12c-.16-1.58-2.95-2.33-3.26-2.41l-.15,0Z"/><path class="cls-9" d="M123.64,199a7.51,7.51,0,0,0-1.18,1.16l-.14.17.13.18c1.25,1.77,3.45,4.58,4.42,4.22.52,1,1.48,2.74,2.21,3a.59.59,0,0,0,.48,0c.78-.44,3.05-2.72,3.05-3.69,0,0,0-.06,0-.09-.1-.76-1.95-1.75-3.14-2.17a2.45,2.45,0,0,0,.24-.94,1.27,1.27,0,0,0-.13-.57,2.5,2.5,0,0,0-1.69-1C126.44,198.85,124.09,198.73,123.64,199Z"/><path class="cls-7" d="M119.85,187l-.09.08v.12a66.44,66.44,0,0,0,.58,9.06c.67,5.24,1.24,5.24,1.56,5.24,1,0,5.56-2.53,6-5.63a3.89,3.89,0,0,0,0-.49c0-2-1.21-5.48-1.73-6.87-.77-2.07-1.81-4.53-2.35-4.53S121.09,185.85,119.85,187Z"/><path class="cls-4" d="M73.21,166.51a39.4,39.4,0,0,0,15.94,9.9s-8.43-23.45-8-32c-14-21.2-14.85-42-16-55.15C48.57,127.19,66.73,159.51,73.21,166.51Z"/><path class="cls-4" d="M73.21,166.51a34.87,34.87,0,0,0,14.34,9c-5.66-3.56-8.22-9.83-10.21-15.07-4.12-10.9-7.66-21.5-10.9-32.4-3.54-11.19-3.83-22.68-2.95-33.87a14.45,14.45,0,0,1,.26-1.55C49.65,129.09,66.93,159.72,73.21,166.51Z"/><path class="cls-10" d="M73.21,166.51A36.07,36.07,0,0,0,83.63,174a44.93,44.93,0,0,1-8.35-7.65c-1.47-2.06-2.94-3.83-4.12-5.89A84.74,84.74,0,0,1,63.6,93C49.77,129.31,67,159.74,73.21,166.51Z"/><path class="cls-11" d="M84.11,160.55c-.94-3.35-1.79-6.79-2.35-9.81-10.15-1.86-18.13-12-22.75-19.48a79.61,79.61,0,0,0,7.28,24.36C72.45,159.45,80,160.36,84.11,160.55Z"/><path class="cls-12" d="M77,159.69c-1.67-4.44-3.24-8.83-4.74-13.22-5.68-4.1-10.22-10.23-13.29-15.21a79.61,79.61,0,0,0,7.28,24.36A32.74,32.74,0,0,0,77,159.69Z"/><path class="cls-13" d="M69.4,157.27A84.61,84.61,0,0,1,61.51,135c-.91-1.3-1.75-2.58-2.49-3.78a79.61,79.61,0,0,0,7.28,24.36A26.36,26.36,0,0,0,69.4,157.27Z"/><path class="cls-11" d="M72,165c.45.58.87,1.07,1.25,1.48a33.24,33.24,0,0,0,5.35,4.61,81.24,81.24,0,0,0,7.88-2.81c-.59-1.86-1.23-3.92-1.84-6.05A28.79,28.79,0,0,1,72,165Z"/><path class="cls-12" d="M72,165c.45.58.87,1.07,1.25,1.48a33.24,33.24,0,0,0,5.35,4.61c1.14-.33,2.27-.7,3.32-1.07a49.87,49.87,0,0,1-3-5.81A25.6,25.6,0,0,1,72,165Z"/><path class="cls-13" d="M72,165c.45.58.87,1.07,1.25,1.48a33.24,33.24,0,0,0,5.35,4.61l1-.32a40.55,40.55,0,0,1-4.33-4.44c-.34-.47-.68-.93-1-1.38A22.91,22.91,0,0,1,72,165Z"/><path class="cls-6" d="M66.93,82.91c-11.47,34,10.41,59.69,10.41,59.69,26.38-12,36.32-1.76,44.91,4.52,0,0,8.69-13,9.87-22,5.08-54.38-16.69-68.72-25.85-70.49C92,53.46,73.66,63,66.93,82.91Z"/><path class="cls-4" d="M66.93,82.91c-11.47,34,10.41,59.69,10.41,59.69,17.76-8.06,27.11-8.48,34.57-4.4,17.65-3.25,15.5-28.39,14.62-40.76C125.64,86,119.68,58,103.07,54.55,89.38,54.92,73.16,64.45,66.93,82.91Z"/><path class="cls-10" d="M77.34,142.59l.1,0C57.46,102.89,70,77.89,72.8,71.4a43.63,43.63,0,0,0-5.87,11.51C55.46,116.91,77.34,142.59,77.34,142.59Z"/><path class="cls-11" d="M110,117.17c-.4,8.43-1.9,15.74-4.64,20.57a28.61,28.61,0,0,1,7.29,2.76c2.47-3.68,7-12.34,7.36-26.58.43-17.33-5.78-48.42-8.2-57.17a19.26,19.26,0,0,0-5.57-2.13c-.61-.05-1.23-.08-1.86-.09C106.23,60.88,111.64,83.08,110,117.17Z"/><path class="cls-6" d="M110,117.17c-.4,8.43-1.9,15.74-4.64,20.57a28.61,28.61,0,0,1,7.29,2.76c2.47-3.68,7-12.34,7.36-26.58.39-15.46-4.52-41.88-7.3-53.61a34.6,34.6,0,0,0-8.13-5.06C106.6,62.45,111.58,84.27,110,117.17Z"/><path class="cls-14" d="M96.21,137.16h0a32.63,32.63,0,0,1,4.43-.07c.16-6.3.71-29.87.71-40.54,0-10.4-2.05-34.71-2.65-41.59a37,37,0,0,0-6.89,1.83C82.12,92.57,91.32,129.6,96.21,137.16Z"/><path class="cls-15" d="M78.56,93.17a75.19,75.19,0,0,0,.85,11.58c3.15,20.14,7.68,28.52,10.9,33a57.37,57.37,0,0,0-6,1.7c-1.4-1.91-14-19.86-14-45.89A84,84,0,0,1,73.49,71a41.08,41.08,0,0,1,9.44-9.17A129.71,129.71,0,0,0,78.56,93.17Z"/><path class="cls-16" d="M77.34,142.59c-4.79,7.52,3.17,25.75,12.49,34.46,0,0,.2-14.4,13.28-19.68,7.52-3,16.5,1.77,20.62,5a14.94,14.94,0,0,0,.34-17.72C113.66,129.64,83.45,133,77.34,142.59Z"/><path class="cls-6" d="M77.72,142c-.13.18-.27.36-.38.55-4.79,7.52,3.17,25.75,12.49,34.46,0,0,.2-14.4,13.28-19.68,4.43-1.79,9.37-.86,13.52.87,5.7-2.2,6.66-14.16-9-20.17C97.8,134.28,82.05,137.35,77.72,142Z"/><path class="cls-17" d="M89.83,177.06s0-.15.18-1.34c-9.48-11.13-14.95-23.19-13-32.62C72.9,150.9,80.71,168.54,89.83,177.06Z"/><path class="cls-18" d="M93.16,184.44c-1,2.85,2.27,6.71,7.39,8.61s10.12,1.14,11.16-1.71-2.27-6.71-7.39-8.61S94.2,181.59,93.16,184.44Z"/><path class="cls-5" d="M94,184.75c-1,2.85,2,6.88,7,8.46,10.95,3.48,8.67-8.5,3.77-10.32S95,181.9,94,184.75Z"/><path class="cls-18" d="M93.72,184.65a3.65,3.65,0,0,0-.22,1.25c0,2.85,3,6,7.37,7.58,3.22,1.2,6.6,1.3,8.83.27a4.19,4.19,0,0,0,2.29-2.31,3.62,3.62,0,0,0,.22-1.25c0-2.85-3-6-7.37-7.58-3.22-1.2-6.6-1.3-8.83-.27A4.19,4.19,0,0,0,93.72,184.65Zm10.92-1.49c4,1.51,7,4.46,7,7a3,3,0,0,1-.18,1.05,3.6,3.6,0,0,1-2,2c-2.09,1-5.3.85-8.38-.29-4-1.51-7-4.46-7-7a3,3,0,0,1,.18-1.05,3.61,3.61,0,0,1,2-2C98.35,181.91,101.56,182,104.64,183.16Z"/><path class="cls-2" d="M100.54,189c-.27,1.57,1.39,3.2,3.72,3.65s4.43-.46,4.71-2-1.39-3.2-3.72-3.65S100.82,187.47,100.54,189Z"/><path class="cls-2" d="M102.09,188.5a.35.35,0,0,0,.28.39.34.34,0,0,0,.4-.26.35.35,0,0,0-.29-.39A.33.33,0,0,0,102.09,188.5Z"/><path class="cls-16" d="M88.87,166.21c-2.74,11.37,7.69,27.47,27,25.54,8.49-.84,16.49-16.63,9.58-32C120.19,148.69,93.88,145.45,88.87,166.21Z"/><path class="cls-6" d="M88.87,166.21c-2.74,11.37,7.69,27.47,27,25.54a7.35,7.35,0,0,0,.83-.13c7.32-2,6.64-14,2.45-20.16,4.34.27,4.09,2.95,5.56,2.85,2.23-.15-1-31.32-29.55-18.82A19.61,19.61,0,0,0,88.87,166.21Z"/><path class="cls-4" d="M103.68,170.64a6.48,6.48,0,0,0-3.17-3.48,3.44,3.44,0,0,1-1.43,1.61c-4.33,2.64-6.25,7.15-7.43,11.85A23.3,23.3,0,0,0,97.51,187c0-4.68,1.93-9.5,3.38-14A3.42,3.42,0,0,1,103.68,170.64Z"/><path class="cls-17" d="M115.92,191.75a7.35,7.35,0,0,0,.83-.13l.54-.18C88,190.17,88.44,168.57,91.67,159.53a21.53,21.53,0,0,0-2.79,6.68C86.13,177.58,96.56,193.68,115.92,191.75Z"/><ellipse class="cls-4" cx="84.72" cy="156.73" rx="2.17" ry="3.57" transform="translate(-80.57 90.23) rotate(-39.69)"/><ellipse class="cls-4" cx="90.3" cy="148.52" rx="2.66" ry="3.57" transform="translate(-74.04 91.91) rotate(-39.69)"/><ellipse class="cls-4" cx="98.54" cy="145.96" rx="2.04" ry="2.09" transform="translate(-70.51 96.61) rotate(-39.7)"/><ellipse class="cls-4" cx="105.42" cy="144.43" rx="1.37" ry="2.09" transform="translate(-67.92 100.54) rotate(-39.67)"/><path class="cls-7" d="M92.41,181.66c-.05,0-5.32,1.56-5.47,2.85a1.37,1.37,0,0,0,.18.72,4.28,4.28,0,0,0-.91.57c-.73.56-2.35,2.05-2.4,2.82v0a1.14,1.14,0,0,0,.46.79c-.83.75-3.22,3-3.22,4.1a.7.7,0,0,0,0,.14.93.93,0,0,0,.39.58,15.51,15.51,0,0,0-1.81,4.45.34.34,0,0,0,0,.06.59.59,0,0,0,.28.45,3.27,3.27,0,0,0,1.5.33,29.19,29.19,0,0,0-.26,3.29c0,1.06.14,1.55.47,1.7.88.39,3.92-.78,4.56-1.11a.76.76,0,0,0,.43-.71c0-.7-.73-1.71-1.76-3.11l-.37-.51a2.52,2.52,0,0,0,.34-1.54,12.25,12.25,0,0,0-.35-2.76h.87c1.4,0,1.47-1,1.65-3.51,0-.16,0-.35,0-.52l.47.09a1.08,1.08,0,0,0,.88-.24c.56-.49.66-1.67.68-3.37a3.34,3.34,0,0,0,1.18.53c1.11.16,2.1-1.41,3.11-4.94l0-.14-.82-1.08Z"/><path class="cls-17" d="M88.23,214.07l0-.06a.82.82,0,0,0-.13.15,2.75,2.75,0,0,0,.58-.26.5.5,0,0,0-.45.11Z"/><path class="cls-6" d="M83,203.94v.22c0,1.2.06,5.17.66,5.84a1.18,1.18,0,0,0,1,.29l.16,0c.8,1.72,2.16,4.36,3,4.25s3.84-1.84,4-3.06c0,0,0-.06,0-.07,0-1.07-2.69-2.59-3.79-3.16a1.08,1.08,0,0,0,.09-.31c0-1.2-1.51-3-2.83-4.43l-.17-.19Z"/><path class="cls-5" d="M88,213.95l.22.25c.1.11.32.41.57.75,1.73,2.38,2.74,3.52,3.41,3.16s2.94-3.54,2.94-4.88a.75.75,0,0,0-.32-.68c-1-.63-3.68-.63-3.79-.63h-.09Z"/><ellipse class="cls-18" cx="105.51" cy="168.94" rx="7.8" ry="10.85" transform="translate(-73.38 256.52) rotate(-84.1)"/><path class="cls-5" d="M96.24,167.9c-.42,4.08,3.7,8.4,9.27,8.43,11.39.07,10.34-13.21,1.53-14.79C101.56,160.55,96.66,163.81,96.24,167.9Z"/><path class="cls-18" d="M95.95,167.87a5.45,5.45,0,0,0,0,.6c0,4,4.2,7.6,9.56,8.16a12.38,12.38,0,0,0,7.5-1.47A6.87,6.87,0,0,0,116.6,170a6,6,0,0,0,0-.6c0-4-4.2-7.6-9.56-8.15a12.36,12.36,0,0,0-7.5,1.47A6.86,6.86,0,0,0,95.95,167.87Zm11.06-6c5.06.53,9,3.85,9,7.57,0,.18,0,.36,0,.54a6.3,6.3,0,0,1-3.34,4.7,11.75,11.75,0,0,1-7.14,1.39c-5.07-.52-9-3.85-9-7.57,0-.18,0-.36,0-.54a6.29,6.29,0,0,1,3.34-4.7A11.77,11.77,0,0,1,107,161.83Z"/><path class="cls-2" d="M103.19,168.36c-.2,2,2,3.88,5,4.22s5.55-1,5.76-3-2-3.88-5-4.22S103.39,166.37,103.19,168.36Z"/><path class="cls-4" d="M122.69,171.87a9.53,9.53,0,0,0-1.22,0,11.47,11.47,0,0,1-1.59.28,24,24,0,0,1,4.35.64,10.07,10.07,0,0,1,3.52,1.68c1,.74,1.39,2.2,1.85,3.31a12.42,12.42,0,0,1,.82,2.65c.16.93.23,1.88.45,2.8a1.65,1.65,0,0,0,.17.48.56.56,0,0,0,1,0,1.46,1.46,0,0,0,.2-.69,6.8,6.8,0,0,0-.3-2.36,7.5,7.5,0,0,1-.33-1.12,5.21,5.21,0,0,0-.19-1,9.22,9.22,0,0,0-4.6-5.65,9.83,9.83,0,0,0-3.52-1Z"/></g></g></svg>