<svg xmlns="http://www.w3.org/2000/svg" viewBox="0 0 272.32 249.67"><defs><style>.cls-1{isolation:isolate;}.cls-2{fill:#fff;}.cls-3{fill:#101010;}.cls-4{fill:#dead18;}.cls-5{fill:#c97841;}.cls-6{fill:#a54e13;}.cls-7{fill:#38271b;}.cls-8{fill:#e29e5a;}.cls-9{fill:#91826e;}.cls-10{fill:#472f2c;}.cls-11{fill:#5b413d;}.cls-12{fill:#917a77;}.cls-13{fill:#bfbdbd;opacity:0.1;mix-blend-mode:screen;}.cls-14{fill:#2e211f;}.cls-15{fill:#e5a86c;}.cls-16{fill:#ffaf78;}.cls-17{fill:#ffcd50;}.cls-18{fill:#eef3cc;}</style></defs><title>triangle-bug</title><g class="cls-1"><g id="Layer_1" data-name="Layer 1"><path class="cls-2" d="M97.68,2.82V1.36h9V2.82h-3.62v12.4h-1.8V2.82Z"/><path class="cls-2" d="M110.91,4.24V6.1a3.38,3.38,0,0,1,3.31-2V6h-.48a2.84,2.84,0,0,0-2.11.73,3.54,3.54,0,0,0-.72,2.53v6h-1.8v-11Z"/><path class="cls-2" d="M118.17,2.12a1.18,1.18,0,0,1-.87.36,1.14,1.14,0,0,1-.86-.36,1.22,1.22,0,0,1-.35-.88,1.2,1.2,0,0,1,.36-.88,1.21,1.21,0,0,1,1.72,0,1.2,1.2,0,0,1,.36.88A1.2,1.2,0,0,1,118.17,2.12Zm-1.78,13.1v-11h1.8v11Z"/><path class="cls-2" d="M121.94,13.79a5.84,5.84,0,0,1-1.49-4.12,5.65,5.65,0,0,1,1.48-4.06,4.91,4.91,0,0,1,3.71-1.55,4.43,4.43,0,0,1,2.43.66,4.31,4.31,0,0,1,1.57,1.72V4.24h1.82v11h-1.82V13a4.34,4.34,0,0,1-4,2.42A4.83,4.83,0,0,1,121.94,13.79Zm6.62-1.07a4.11,4.11,0,0,0,1.08-3,4.11,4.11,0,0,0-1.08-3A3.47,3.47,0,0,0,126,5.64a3.53,3.53,0,0,0-2.59,1.08,4,4,0,0,0-1.08,2.94,4.23,4.23,0,0,0,1.09,3,3.51,3.51,0,0,0,5.18,0Z"/><path class="cls-2" d="M136.23,4.24V6a3.77,3.77,0,0,1,3.54-2,4.08,4.08,0,0,1,3,1.21A4.68,4.68,0,0,1,144,8.72v6.5h-1.78V9a3.6,3.6,0,0,0-.79-2.52,2.83,2.83,0,0,0-2.19-.86,2.86,2.86,0,0,0-2.2.86,3.57,3.57,0,0,0-.8,2.52v6.2h-1.8v-11Z"/><path class="cls-2" d="M147.63,13.79a5.84,5.84,0,0,1-1.49-4.12,5.65,5.65,0,0,1,1.47-4.06,4.91,4.91,0,0,1,3.71-1.55,4.43,4.43,0,0,1,2.43.66,4.32,4.32,0,0,1,1.57,1.72V4.24h1.82V15.5A4.92,4.92,0,0,1,152,20.62a6.16,6.16,0,0,1-3.67-1,3.78,3.78,0,0,1-1.65-2.72h1.76a2.7,2.7,0,0,0,1.21,1.56A4.22,4.22,0,0,0,152,19a3.2,3.2,0,0,0,2.35-.93,3.51,3.51,0,0,0,.94-2.61V13a4.34,4.34,0,0,1-4,2.42A4.83,4.83,0,0,1,147.63,13.79Zm6.62-1.07a4.11,4.11,0,0,0,1.08-3,4.11,4.11,0,0,0-1.08-3,3.47,3.47,0,0,0-2.59-1.12,3.53,3.53,0,0,0-2.59,1.08A4,4,0,0,0,148,9.66a4.23,4.23,0,0,0,1.09,3,3.51,3.51,0,0,0,5.18,0Z"/><path class="cls-2" d="M160.13,15.22V.42h1.8v14.8Z"/><path class="cls-2" d="M169.45,15.4a5,5,0,0,1-3.8-1.56,5.77,5.77,0,0,1-1.46-4.12,5.69,5.69,0,0,1,1.49-4.11,5.6,5.6,0,0,1,7.65-.08,5.15,5.15,0,0,1,1.43,3.75,6.93,6.93,0,0,1-.08,1.08H166A3.79,3.79,0,0,0,167,13a3.24,3.24,0,0,0,2.41,1,3.34,3.34,0,0,0,1.87-.5,3,3,0,0,0,1.12-1.32h1.94a5,5,0,0,1-1.77,2.38A5.13,5.13,0,0,1,169.45,15.4Zm2.44-8.89a3.52,3.52,0,0,0-4.79,0A3.75,3.75,0,0,0,166,9h6.83A3.44,3.44,0,0,0,171.89,6.51Z"/><path class="cls-3" d="M124.22,137.47a7.69,7.69,0,0,0-.93.32,9.26,9.26,0,0,1-1.15.61,19.34,19.34,0,0,1,3.5-.58,8.13,8.13,0,0,1,3.12.42c.93.33,1.61,1.35,2.23,2.09q.68.81,1.3,1.66a2.16,2.16,0,0,1,.41.74l.29,1a1,1,0,0,0,.1.26.5.5,0,0,0,.5.22.36.36,0,0,0,.19-.09.55.55,0,0,0,.1-.44,4.34,4.34,0,0,0-.42-1.62,10.58,10.58,0,0,0-.87-1.54,7.45,7.45,0,0,0-4.93-3.21,7.94,7.94,0,0,0-3,.06Z"/><path class="cls-4" d="M132.67,96.29l.05-.06.08,0a6.39,6.39,0,0,1,1.43-.14c1.35,0,3,.28,3.47.89a.61.61,0,0,1,.11.56c-.28,1-1.42,2.69-2,2.85h-.11a7.66,7.66,0,0,1-3.39-2.64A1.73,1.73,0,0,1,132.67,96.29Z"/><path class="cls-5" d="M123.67,97.55c.26-.28,2.55-2.73,3.3-2.95l.17,0c.44,0,.88.48,1.22,1.09a15.81,15.81,0,0,1,4.29-1.39.59.59,0,0,1,.35.09c.64.47-.16,3.48-.49,4a.57.57,0,0,1-.52.22,10.43,10.43,0,0,1-3-1c0,.05,0,.11,0,.16,0,.74-1.15,1.11-3.51,1.11-.63,0-1.1,0-1.12,0h-.12l-.69-1.12Z"/><path class="cls-6" d="M110.05,114.23h.09a4,4,0,0,1,.93.29c.07-1.4.65-5.52,1.16-5.87a.55.55,0,0,1,.33-.09,2.63,2.63,0,0,1,.77.17c.16-1.31,1.36-4.39,2.15-4.74a.67.67,0,0,1,.28-.06,1.29,1.29,0,0,1,.73.29c.37-1,2.12-4.15,2.8-4.29h.09a1,1,0,0,1,.55.27,7.11,7.11,0,0,1,3-3.4H123c.51,0,1.14,1,1.31,1.26s.87,1.55.52,2.22-2.9.93-4,1a4.35,4.35,0,0,1,.81,1.78c0,.72-2.43,1.84-4,2.52a3.06,3.06,0,0,1,.4,1c.14.94-1.82,2.33-3.18,2.92a4.21,4.21,0,0,1,1.07.84.68.68,0,0,1,.13.53c-.13,1.11-2.31,3.31-3.53,4.35a5.1,5.1,0,0,1,1.6,1c.26.47-.36,1.23-1.57,2.63l-.67.78-.1.13-.15-.05-1.4-.46c-.17,0-.23-.06-.35-1.56-.07-.87-.11-1.74-.1-2.33C109.75,114.54,109.83,114.29,110.05,114.23Z"/><path class="cls-7" d="M14.77,169.76l.11-.08.13.06c1.17.59,2.56,1.22,2.57,1.22l.11,0,0,.12c0,.14.76,3.52-1,5.25l0,0-.06,0-.11,0c-.45,0-.62-.72-.92-2.35-.06-.35-.14-.76-.2-1-.21.11-.62.37-.94.57a6.49,6.49,0,0,1-1.79,1h0c-.07,0-.23,0-.3-.27C12.08,173.72,12.5,171.33,14.77,169.76Z"/><path class="cls-6" d="M15.56,167.4a2.34,2.34,0,0,1-.62-1.14c0-.77,2.34-2.07,3.34-2.59l.22-.11.89,1.84v.07a17.26,17.26,0,0,1-.92,3.88s-.08,0-.11,0c-.12,1.17-.34,2.44-.76,2.63a.52.52,0,0,1-.22,0,6.88,6.88,0,0,1-3.24-1.9.9.9,0,0,1-.28-.69C13.93,168.93,14.9,168,15.56,167.4Z"/><path class="cls-8" d="M17.29,163c.26-.9,1.82-1.57,2.93-1.95a2.48,2.48,0,0,1-.2-1.5c.35-1.1,2-1.59,3.4-1.59a5.34,5.34,0,0,1,1.78.29l.15.05v.16a2.78,2.78,0,0,0,.35,1.53l.18.18-.2.17A11.65,11.65,0,0,0,24,163a6.13,6.13,0,0,1-1,1.6.33.33,0,0,1-.19.06c-.26,0-.66-.35-1.18-1-.64,1.16-1.53,2.78-1.65,3.13a.34.34,0,0,1-.32.23h0c-.45,0-1.17-.91-1.38-1.19S17,164,17.29,163Z"/><path class="cls-6" d="M24.28,158.28a4.81,4.81,0,0,1,2.41-3.95,8.11,8.11,0,0,1,3.4-.66c4.85,0,10.68,3,13.07,4.41a9.72,9.72,0,0,1,5.3-5.61l.06,0h.07a30.31,30.31,0,0,1,8.22,3.07l.51.28-.56.15a40.6,40.6,0,0,0-10.68,5,2.52,2.52,0,0,1-1.51.49,2.14,2.14,0,0,1-1-.22,10.88,10.88,0,0,0-1.13-.05,71.44,71.44,0,0,0-10.39,1.35,46.75,46.75,0,0,1-5.75.83c-.42,0-.65-.06-.76-.18C24.6,162.36,24.05,160.25,24.28,158.28Z"/><path class="cls-7" d="M50.09,175.36l.06,0c1.25-.43,2.38-.91,2.89-1.13-.72-.82-1.7-2-1.66-2.46a.32.32,0,0,1,.13-.23l.07-.06h.1a7.8,7.8,0,0,1,4.06,2.07l.09.09,0,.13a12,12,0,0,1-1.12,3.1l-.06.1H54.5c-.34,0-.68.05-1,.05-2.15,0-3.38-.76-3.54-1.27A.33.33,0,0,1,50.09,175.36Z"/><path class="cls-6" d="M55.13,173.82a.92.92,0,0,1,.68-.45,7.35,7.35,0,0,1,2.39,1.35,1.14,1.14,0,0,1,.51-.38,2.77,2.77,0,0,1,.87-.11,12.89,12.89,0,0,1,2.51.34l.16,0,.27,2.86-.18.06a11.82,11.82,0,0,1-2.93.55,1.87,1.87,0,0,1-1-.22,1.28,1.28,0,0,1-.43-.53,8.57,8.57,0,0,1-1.74.21c-1.46,0-1.88-.62-2-1.14A4.44,4.44,0,0,1,55.13,173.82Z"/><path class="cls-8" d="M61.39,174.27c.13-.23.46-.23.57-.23a11.61,11.61,0,0,1,2.68.62c.28-.65,2.59-.82,4-.87h0l3.62.83-.28.3c-1.09,1.19-3.81,3.4-5.11,3.4h0a.85.85,0,0,1-.48-.13,2.9,2.9,0,0,1-.55-.53,11,11,0,0,1-3.32,1,1.09,1.09,0,0,1-.36,0c-.22-.07-.4-.3-.55-.68A7.12,7.12,0,0,1,61.39,174.27Z"/><path class="cls-6" d="M66.54,173.58a60.82,60.82,0,0,0,3.89-7.68,41.74,41.74,0,0,0,1.11-5.46,4.12,4.12,0,0,1-1.86-1.84c-.36-.81-.46-2.12,1.05-3.78l0-.05.06,0a50.82,50.82,0,0,1,11.54-1.15h.82l.93,0-.83.43A64.63,64.63,0,0,0,77,158.8c-1.38,1.11-2.47,2-2.82,2.18a1,1,0,0,1-.12,0,14,14,0,0,0,.23,4.79c.83,3.46,1.17,9-.4,9.83a1.61,1.61,0,0,1-.8.16c-2,0-6.21-1.8-6.39-1.87l-.25-.11Z"/><path class="cls-7" d="M108.73,178.43c0-.73,0-1.55,0-2.37v-.12l.09-.07c.61-.51,2.41-.56,3.16-.56h.19l.06.05c.14.11,3.45,2.75,2.46,5.77l0,.05a.38.38,0,0,1-.33.18c-.48,0-1.28-.88-2.43-2.23-.25-.29-.53-.62-.73-.83a5.79,5.79,0,0,1-1.75,2.42l0,0a.45.45,0,0,1-.21.06.36.36,0,0,1-.26-.11C108.67,180.44,108.68,179.82,108.73,178.43Z"/><path class="cls-6" d="M107.77,169.28a1.4,1.4,0,0,1,1.1-.39,3.14,3.14,0,0,1,.71.08h.06l0,0a8.24,8.24,0,0,1,1.94,3.39.62.62,0,0,1-.14.48,1.1,1.1,0,0,1-.19.12c.77.9,1.74,2.39,1.55,3-.12.36-.77.55-1.92.55-.08,0-2,0-2.38-.49a4.89,4.89,0,0,1-.27-2.63.88.88,0,0,1-.49-.2C107.33,172.74,107.24,169.88,107.77,169.28Z"/><path class="cls-8" d="M105.79,166a20.62,20.62,0,0,1,.27-2.8c.37-2.44.7-2.46.9-2.48H107c1,0,2.14,2,2.6,3.06.3.69.74,1.92.31,2.37a1.19,1.19,0,0,1-.25.17c.86,1,1.92,2.41,1.49,3s-2.46.73-3.13.73c-1,0-1.24-.19-1.29-.37a11.69,11.69,0,0,1,0-3C106.29,166.63,105.81,166.44,105.79,166Z"/><path class="cls-6" d="M87.26,152.56l.09.13c.33.45,3.26,4.45,3.06,5.92a3,3,0,0,1-.17.65,29.15,29.15,0,0,0,7.08.79l1.23,0c.58,0,1.23,0,1.92,0,1.65,0,3.3.06,4.54.16,2.21.18,2.44.42,2.49.68.09.49-1,1.93-4,5.53a.66.66,0,0,1-.54.16c-2,0-12.81-3.09-13.5-3.84a2.81,2.81,0,0,1-.53-2,2.89,2.89,0,0,1-1.29.3,3.3,3.3,0,0,1-1-.14c-1.69-.51-2.46-6.65-2.55-7.35l0-.21Z"/><path class="cls-5" d="M101.39,149.57c.61.5-36.3,12.53-57.74,3.74C48.87,150.17,87.72,138.32,101.39,149.57Z"/><path class="cls-7" d="M139.36,157.07a10.82,10.82,0,0,1,1.47-3.38l.07-.12H141c.5,0,4.85.34,5,2.31V156c-.08.38-.58.43-1.1.43l-.78,0-.8,0a2.23,2.23,0,0,0-.76.09,5.67,5.67,0,0,0,.22.65,4,4,0,0,1,.39,2.49l0,0,0,0a.36.36,0,0,1-.27.12c-.36,0-.9-.44-2-1.38a8.73,8.73,0,0,0-1.32-1.06l-.29.07Z"/><path class="cls-6" d="M135.7,151.23l.13,0c.63.08,2.69.39,3,.92a.4.4,0,0,1,.06.33l-.07.21c1.15.17,2.94.52,2.94,1.12s-1.31,3.61-2.55,3.61h-.09a4.05,4.05,0,0,1-2.34-1.82,1.13,1.13,0,0,1-.5.12h-.1c-1.28-.13-1.88-2.38-1.95-2.63l0-.12Z"/><path class="cls-8" d="M129.63,146.82a6.06,6.06,0,0,1,.94-1l.14-.11.15.11c1.43,1,3.7,2.79,3.4,3.57.83.42,2.21,1.19,2.4,1.78a.48.48,0,0,1,0,.39c-.36.63-2.2,2.46-3,2.46h-.07c-.61-.08-1.42-1.57-1.75-2.53a2,2,0,0,1-.76.19,1,1,0,0,1-.46-.1,2,2,0,0,1-.81-1.36A7.51,7.51,0,0,1,129.63,146.82Z"/><path class="cls-6" d="M119.9,143.75l.07-.07h.1a53.65,53.65,0,0,1,7.31.47c4.23.54,4.23,1,4.23,1.26,0,.83-2,4.49-4.55,4.81l-.4,0a20.61,20.61,0,0,1-5.55-1.4c-1.67-.62-3.66-1.46-3.66-1.9S119,144.75,119.9,143.75Z"/><path class="cls-3" d="M103.37,106.1a31.81,31.81,0,0,1,8,12.87s-18.93-6.8-25.82-6.46c-17.11-11.31-33.9-12-44.53-12.93C71.62,86.2,97.72,100.87,103.37,106.1Z"/><path class="cls-3" d="M103.37,106.1a28.15,28.15,0,0,1,7.29,11.58c-2.87-4.57-7.94-6.64-12.17-8.25-8.8-3.33-17.36-6.18-26.16-8.8C63.3,97.77,54,97.54,45,98.25a11.67,11.67,0,0,0-1.25.21C73.16,87.07,97.89,101,103.37,106.1Z"/><path class="cls-9" d="M103.37,106.1a29.13,29.13,0,0,1,6.06,8.41,36.28,36.28,0,0,0-6.18-6.75c-1.66-1.19-3.09-2.38-4.76-3.33a68.42,68.42,0,0,0-54.45-6.1C73.33,87.17,97.91,101,103.37,106.1Z"/><path class="cls-10" d="M98.56,114.9c-2.71-.76-5.48-1.45-7.92-1.89-1.5-8.19-9.68-14.64-15.73-18.37a64.28,64.28,0,0,1,19.67,5.88C97.68,105.48,98.41,111.54,98.56,114.9Z"/><path class="cls-11" d="M97.87,109.19c-3.59-1.35-7.13-2.62-10.68-3.83-3.31-4.58-8.26-8.26-12.28-10.73a64.28,64.28,0,0,1,19.67,5.88A26.44,26.44,0,0,1,97.87,109.19Z"/><path class="cls-12" d="M95.92,103A68.32,68.32,0,0,0,78,96.65c-1-.74-2.08-1.41-3.06-2a64.28,64.28,0,0,1,19.67,5.88A21.28,21.28,0,0,1,95.92,103Z"/><path class="cls-10" d="M102.18,105.09c.47.36.87.7,1.2,1a26.84,26.84,0,0,1,3.72,4.32,65.6,65.6,0,0,1-2.27,6.36c-1.5-.48-3.16-1-4.89-1.49A23.24,23.24,0,0,0,102.18,105.09Z"/><path class="cls-11" d="M102.18,105.09c.47.36.87.7,1.2,1a26.84,26.84,0,0,1,3.72,4.32c-.27.92-.57,1.83-.87,2.68a40.27,40.27,0,0,0-4.69-2.42A20.67,20.67,0,0,0,102.18,105.09Z"/><path class="cls-12" d="M102.18,105.09c.47.36.87.7,1.2,1a26.84,26.84,0,0,1,3.72,4.32c-.08.28-.17.56-.26.84a32.75,32.75,0,0,0-3.59-3.49l-1.12-.82A18.5,18.5,0,0,0,102.18,105.09Z"/><path class="cls-5" d="M35.87,101c27.45-9.26,48.2,8.4,48.2,8.4-9.67,21.3-1.42,29.33,3.65,36.26,0,0-10.46,7-17.76,8C26,157.76,14.47,140.19,13,132.79,12.09,121.28,19.78,106.45,35.87,101Z"/><path class="cls-3" d="M35.87,101c27.45-9.26,48.2,8.4,48.2,8.4-6.51,14.34-6.85,21.89-3.55,27.92-2.63,14.26-22.92,12.51-32.91,11.8-9.27-.71-31.87-5.53-34.63-18.94C13.27,119.15,21,106.05,35.87,101Z"/><path class="cls-9" d="M84.06,109.43l0,.08c-32-16.13-52.21-6-57.45-3.74A35.23,35.23,0,0,1,35.87,101C63.32,91.76,84.06,109.43,84.06,109.43Z"/><path class="cls-10" d="M63.54,135.83c6.81-.32,12.71-1.53,16.61-3.74A23.1,23.1,0,0,0,82.38,138c-3,2-10,5.65-21.46,5.94-14,.35-39.1-4.67-46.16-6.62a15.55,15.55,0,0,1-1.72-4.5c0-.49-.06-1-.07-1.5C18.08,132.75,36,137.13,63.54,135.83Z"/><path class="cls-5" d="M63.54,135.83c6.81-.32,12.71-1.53,16.61-3.74A23.1,23.1,0,0,0,82.38,138c-3,2-10,5.65-21.46,5.94-12.49.31-33.81-3.65-43.29-5.89a27.94,27.94,0,0,1-4.08-6.56C19.35,133.05,37,137.08,63.54,135.83Z"/><path class="cls-13" d="M79.68,124.67h0a26.35,26.35,0,0,0-.05,3.58c-5.09.13-24.12.58-32.74.58-8.39,0-28-1.66-33.59-2.14a29.91,29.91,0,0,1,1.48-5.57C43.67,113.29,73.57,120.72,79.68,124.67Z"/><path class="cls-14" d="M18.82,113.94a33.17,33.17,0,0,1,7.4-7.62,67.79,67.79,0,0,1,18.28-2.55,66.28,66.28,0,0,1,37.05,11.31,46.32,46.32,0,0,0-1.37,4.82c-3.65-2.61-10.41-6.26-26.67-8.8a60.71,60.71,0,0,0-9.35-.68A104.74,104.74,0,0,0,18.82,113.94Z"/><path class="cls-15" d="M84.06,109.43c6.07-3.87,20.79,2.56,27.83,10.09,0,0-11.63.16-15.89,10.72-2.45,6.07,1.43,13.32,4,16.65a12.06,12.06,0,0,1-14.31.28C73.6,138.76,76.32,114.36,84.06,109.43Z"/><path class="cls-5" d="M83.62,109.74c.14-.11.29-.21.44-.31,6.07-3.87,20.79,2.56,27.83,10.09,0,0-11.63.16-15.89,10.72-1.45,3.58-.69,7.57.71,10.92-1.78,4.6-11.43,5.38-16.28-7.23C77.35,126,79.83,113.23,83.62,109.74Z"/><path class="cls-16" d="M111.89,119.51l-1.08.14c-9-7.65-18.72-12.07-26.34-10.46C90.77,105.84,105,112.15,111.89,119.51Z"/><path class="cls-17" d="M117.86,122.21c2.3-.84,5.42,1.83,7,6s.92,8.17-1.38,9-5.42-1.83-7-6S115.56,123,117.86,122.21Z"/><path class="cls-4" d="M118.1,122.88c2.3-.84,5.55,1.61,6.83,5.63,2.81,8.84-6.87,7-8.34,3S115.8,123.72,118.1,122.88Z"/><path class="cls-17" d="M116.16,124.51c-.83,1.8-.75,4.53.22,7.13,1.3,3.5,3.82,5.95,6.12,5.95a2.93,2.93,0,0,0,1-.18,3.38,3.38,0,0,0,1.87-1.85c.83-1.8.75-4.54-.22-7.13-1.3-3.5-3.82-5.95-6.12-5.95a3,3,0,0,0-1,.17A3.38,3.38,0,0,0,116.16,124.51Zm.43.2a2.91,2.91,0,0,1,1.6-1.61A2.45,2.45,0,0,1,119,123c2.07,0,4.46,2.37,5.68,5.64a9.37,9.37,0,0,1,.23,6.77,2.91,2.91,0,0,1-1.6,1.6,2.44,2.44,0,0,1-.85.15c-2.07,0-4.46-2.37-5.68-5.64A9.36,9.36,0,0,1,116.59,124.71Z"/><path class="cls-2" d="M121.56,128.16c1.27-.22,2.58,1.12,2.95,3s-.37,3.58-1.64,3.8-2.58-1.13-2.94-3S120.3,128.39,121.56,128.16Z"/><ellipse class="cls-2" cx="121.18" cy="129.69" rx="0.27" ry="0.28" transform="translate(-22.06 24.88) rotate(-10.75)"/><path class="cls-15" d="M103.13,118.74c9.18-2.21,22.18,6.21,20.62,21.84-.68,6.85-13.43,13.32-25.86,7.73C89,144,86.37,122.79,103.13,118.74Z"/><path class="cls-5" d="M103.13,118.74c9.18-2.21,22.18,6.21,20.62,21.84a5.93,5.93,0,0,1-.1.67c-1.59,5.91-11.32,5.36-16.28,2,.22,3.51,2.38,3.3,2.3,4.49-.12,1.8-25.29-.83-15.2-23.86A15.83,15.83,0,0,1,103.13,118.74Z"/><path class="cls-3" d="M106.71,130.7a5.23,5.23,0,0,1-2.81-2.56,2.78,2.78,0,0,0,1.3-1.15c2.13-3.5,5.77-5,9.57-6a18.82,18.82,0,0,1,5.17,4.73c-3.78,0-7.67,1.56-11.28,2.73A2.76,2.76,0,0,0,106.71,130.7Z"/><path class="cls-16" d="M123.76,140.58a5.93,5.93,0,0,1-.1.67c0,.15-.09.3-.14.44C122.48,118,105,118.39,97.74,121a17.38,17.38,0,0,1,5.39-2.26C112.32,116.53,125.31,124.95,123.76,140.58Z"/><ellipse class="cls-3" cx="95.48" cy="115.39" rx="1.75" ry="2.88" transform="translate(-54.29 115.17) rotate(-50.31)"/><ellipse class="cls-3" cx="88.85" cy="119.9" rx="2.15" ry="2.88" transform="translate(-60.15 111.69) rotate(-50.31)"/><ellipse class="cls-3" cx="86.78" cy="126.55" rx="1.65" ry="1.69" transform="translate(-66.02 112.48) rotate(-50.3)"/><ellipse class="cls-3" cx="85.54" cy="132.11" rx="1.11" ry="1.69" transform="translate(-70.75 113.63) rotate(-50.33)"/><path class="cls-6" d="M115.61,121.6s1.26-4.29,2.3-4.42a1.11,1.11,0,0,1,.58.14,3.46,3.46,0,0,1,.46-.73c.45-.59,1.66-1.9,2.28-1.94h0a.92.92,0,0,1,.64.37c.61-.67,2.44-2.6,3.31-2.6h.11a.75.75,0,0,1,.47.31,12.52,12.52,0,0,1,3.6-1.46h0a.48.48,0,0,1,.36.23,2.64,2.64,0,0,1,.27,1.21,23.57,23.57,0,0,1,2.66-.21c.85,0,1.25.11,1.37.38.31.71-.63,3.16-.9,3.68a.62.62,0,0,1-.57.34,6,6,0,0,1-2.51-1.42l-.41-.3a2,2,0,0,1-1.24.27,9.9,9.9,0,0,1-2.23-.29c0,.13,0,.25,0,.37s0,.23,0,.33c0,1.13-.77,1.19-2.84,1.33l-.42,0a3.6,3.6,0,0,1,.07.38.87.87,0,0,1-.19.71c-.4.45-1.35.53-2.72.55a2.7,2.7,0,0,1,.43,1c.13.9-1.14,1.69-4,2.51l-.12,0-.87-.66Z"/><path class="cls-16" d="M141.78,118.23l-.05,0,.12-.1a2.22,2.22,0,0,1-.21.47.4.4,0,0,1,.09-.36Z"/><path class="cls-5" d="M133.6,114h.18c1,0,4.17,0,4.72.54a1,1,0,0,1,.24.8s0,.09,0,.13c1.39.64,3.52,1.75,3.43,2.44s-1.49,3.1-2.47,3.19h-.05c-.86,0-2.09-2.17-2.55-3.06a.87.87,0,0,1-.25.07c-1,0-2.42-1.22-3.58-2.28l-.15-.14Z"/><path class="cls-4" d="M141.68,118l.2.18c.09.08.33.26.61.46,1.92,1.4,2.84,2.21,2.55,2.76s-2.86,2.38-3.94,2.38a.6.6,0,0,1-.55-.26,8.16,8.16,0,0,1-.51-3.06v-.07Z"/><ellipse class="cls-17" cx="105.33" cy="132.18" rx="6.3" ry="8.76" transform="translate(-13.03 11.53) rotate(-5.9)"/><path class="cls-4" d="M104.5,124.69c3.3-.34,6.78,3,6.81,7.48.06,9.2-10.67,8.35-11.95,1.23C98.57,129,101.2,125,104.5,124.69Z"/><path class="cls-17" d="M100.31,127.38a10,10,0,0,0-1.19,6.05c.45,4.33,3.34,7.72,6.58,7.72l.49,0a5.55,5.55,0,0,0,4.16-2.92,10,10,0,0,0,1.19-6.06c-.45-4.33-3.34-7.72-6.59-7.72l-.49,0A5.54,5.54,0,0,0,100.31,127.38Zm.41.24a5.08,5.08,0,0,1,3.8-2.69l.44,0c3,0,5.69,3.2,6.11,7.29a9.49,9.49,0,0,1-1.12,5.76,5.09,5.09,0,0,1-3.8,2.7l-.44,0c-3,0-5.69-3.21-6.11-7.29A9.5,9.5,0,0,1,100.72,127.62Z"/><path class="cls-2" d="M104.87,130.3c1.6-.16,3.13,1.65,3.41,4.05s-.79,4.48-2.4,4.65-3.13-1.65-3.41-4.05S103.27,130.46,104.87,130.3Z"/><path class="cls-3" d="M107.7,146a7.69,7.69,0,0,1,0-1,9.26,9.26,0,0,0,.23-1.28,19.34,19.34,0,0,0,.52,3.51,8.13,8.13,0,0,0,1.35,2.84,6.21,6.21,0,0,0,2.67,1.49,10,10,0,0,0,2.14.66c.75.13,1.52.19,2.26.36a1.33,1.33,0,0,1,.39.14.46.46,0,0,1,0,.82,1.18,1.18,0,0,1-.56.16,5.49,5.49,0,0,1-1.9-.24,6.06,6.06,0,0,0-.9-.27,4.2,4.2,0,0,1-.78-.15,7.45,7.45,0,0,1-4.56-3.71,7.94,7.94,0,0,1-.85-2.84Q107.71,146.3,107.7,146Z"/><path class="cls-18" d="M4,31.76l257.8,106L4,243.71V31.76m-4-6V249.67L272.32,137.73,0,25.79Z"/></g></g></svg>