<svg id="Layer_1" data-name="Layer 1" xmlns="http://www.w3.org/2000/svg" viewBox="0 0 261.56 250.14"><defs><style>.cls-1{fill:#fff;}.cls-2{fill:#eef3cc;}.cls-3{fill:#342c29;}.cls-4{fill:#4e423e;}.cls-5{fill:#8b756d;}.cls-6{fill:#685852;}.cls-7{fill:#8e423e;}.cls-8{fill:#ff756d;}.cls-9{fill:#e86767;}.cls-10{fill:#04173c;}.cls-11{fill:#2b90f3;}.cls-12{fill:#98e2ea;}.cls-13{fill:#97dadd;}.cls-14{fill:#b77748;}.cls-15{fill:#895936;}.cls-16{fill:#1c1308;}.cls-17{fill:#060608;}.cls-18{fill:#206eb6;}.cls-19{fill:#515657;}.cls-20{fill:#292b2c;}.cls-21{fill:#151616;}.cls-22{fill:#72aab0;}.cls-23{fill:#0b1314;}.cls-24{fill:#395558;}.cls-25{fill:#3d4141;}.cls-26{fill:#212325;}.cls-27{fill:#293133;}.cls-28{fill:#1f2526;}</style></defs><title>triangle-cassowary</title><path class="cls-1" d="M92.68,2.82V1.36h9V2.82H98.1v12.4H96.3V2.82Z"/><path class="cls-1" d="M105.9,4.24V6.1a3.38,3.38,0,0,1,3.31-2V6h-.48a2.84,2.84,0,0,0-2.11.73,3.54,3.54,0,0,0-.72,2.53v6h-1.8v-11Z"/><path class="cls-1" d="M113.17,2.12a1.18,1.18,0,0,1-.87.36,1.14,1.14,0,0,1-.86-.36,1.22,1.22,0,0,1-.35-.88,1.2,1.2,0,0,1,.36-.88,1.21,1.21,0,0,1,1.72,0,1.2,1.2,0,0,1,.36.88A1.2,1.2,0,0,1,113.17,2.12Zm-1.78,13.1v-11h1.8v11Z"/><path class="cls-1" d="M116.93,13.79a5.84,5.84,0,0,1-1.49-4.12,5.65,5.65,0,0,1,1.48-4.06,4.91,4.91,0,0,1,3.71-1.55,4.43,4.43,0,0,1,2.43.66,4.31,4.31,0,0,1,1.57,1.72V4.24h1.82v11h-1.82V13a4.34,4.34,0,0,1-4,2.42A4.83,4.83,0,0,1,116.93,13.79Zm6.62-1.07a4.11,4.11,0,0,0,1.08-3,4.11,4.11,0,0,0-1.08-3A3.47,3.47,0,0,0,121,5.64a3.53,3.53,0,0,0-2.59,1.08,4,4,0,0,0-1.08,2.94,4.23,4.23,0,0,0,1.09,3,3.51,3.51,0,0,0,5.18,0Z"/><path class="cls-1" d="M131.23,4.24V6a3.77,3.77,0,0,1,3.54-2,4.08,4.08,0,0,1,3,1.21A4.68,4.68,0,0,1,139,8.72v6.5h-1.78V9a3.6,3.6,0,0,0-.79-2.52,2.83,2.83,0,0,0-2.19-.86,2.86,2.86,0,0,0-2.2.86,3.57,3.57,0,0,0-.8,2.52v6.2h-1.8v-11Z"/><path class="cls-1" d="M142.63,13.79a5.84,5.84,0,0,1-1.49-4.12,5.65,5.65,0,0,1,1.47-4.06,4.91,4.91,0,0,1,3.71-1.55,4.43,4.43,0,0,1,2.43.66,4.32,4.32,0,0,1,1.57,1.72V4.24h1.82V15.5A4.92,4.92,0,0,1,147,20.62a6.16,6.16,0,0,1-3.67-1,3.78,3.78,0,0,1-1.65-2.72h1.76a2.7,2.7,0,0,0,1.21,1.56A4.22,4.22,0,0,0,147,19a3.2,3.2,0,0,0,2.35-.93,3.51,3.51,0,0,0,.94-2.61V13a4.34,4.34,0,0,1-4,2.42A4.83,4.83,0,0,1,142.63,13.79Zm6.62-1.07a4.11,4.11,0,0,0,1.08-3,4.11,4.11,0,0,0-1.08-3,3.47,3.47,0,0,0-2.59-1.12,3.53,3.53,0,0,0-2.59,1.08A4,4,0,0,0,143,9.66a4.23,4.23,0,0,0,1.09,3,3.51,3.51,0,0,0,5.18,0Z"/><path class="cls-1" d="M155.12,15.22V.42h1.8v14.8Z"/><path class="cls-1" d="M164.45,15.4a5,5,0,0,1-3.8-1.56,5.77,5.77,0,0,1-1.46-4.12,5.69,5.69,0,0,1,1.49-4.11,5.6,5.6,0,0,1,7.65-.08,5.15,5.15,0,0,1,1.43,3.75,6.93,6.93,0,0,1-.08,1.08H161A3.79,3.79,0,0,0,162,13a3.24,3.24,0,0,0,2.41,1,3.34,3.34,0,0,0,1.87-.5,3,3,0,0,0,1.12-1.32h1.94a5,5,0,0,1-1.77,2.38A5.13,5.13,0,0,1,164.45,15.4Zm2.44-8.89a3.52,3.52,0,0,0-4.79,0A3.75,3.75,0,0,0,161,9h6.83A3.44,3.44,0,0,0,166.88,6.51Z"/><polygon class="cls-2" points="261.56 25.28 189.39 250.14 0 203.41 261.56 25.28"/><path class="cls-3" d="M158.3,229.77a4.21,4.21,0,0,0,3.47,1.35c2.31,0,4.6.36,5.45,1.33a7.45,7.45,0,0,1,1.05,1.39c.33.48-.28.25-.82-.15a5,5,0,0,0-1.31-.18,32.6,32.6,0,0,0-3.65-.14c-1.79,0-5.63.89-5.79,0S157.52,229.19,158.3,229.77Z"/><path class="cls-4" d="M147.65,172.14c-1.79,1.35,0,6-1.33,8.83s-2.26,4.58-1.84,7.41,3.61,15.57,3.31,19.74.67,15.32,0,17.79-.61,4.24.76,5.72c.88,1,1.23,2.6,2.38,2.74,1.68.22,2.92.75,4.13.87,2.22.22,6.46-1.91,8.38-1.15s4.56.63,5.58,1.12.6-.44.06-1a10.69,10.69,0,0,0-4.26-2.61c-1.56-.31-4.26.22-6.37-1.69s-2.3-1.76-2.73-3.94-1.57-11.24-1.32-14.41-1.22-11.45-.9-13.33,3.64-6.89,4.25-9.72a12.13,12.13,0,0,1,5.85-7.41C166.4,179.52,150.35,170.1,147.65,172.14Z"/><path d="M141.1,173.53c3.38.79,4.33,3,5,5.12s-2,10.27,1.88,9.13c2.12-.63,3.35.68,5,1.71,1.16.71,3.27,1.07,3.66,1.87s2.87-2.84,4.17-4.49a27.57,27.57,0,0,0,3.65-6.68c1.15-3.23,2.51-6,4.59-7.45,2.23-1.52,1.16-7.91-7-8S139.12,173.07,141.1,173.53Z"/><path class="cls-4" d="M156.73,232.62c2.31,0,4.6.36,5.45,1.33a7.52,7.52,0,0,1,1.05,1.39c.33.48-.28.26-.82-.15a5.07,5.07,0,0,0-1.31-.18,15,15,0,0,0-3.79,0C155.55,235.27,154.51,232.61,156.73,232.62Z"/><path class="cls-5" d="M210.68,92.23a2.28,2.28,0,0,1-.26-2.72c.79-1.19,2.18-4.66,3.87-5.58s1.29-1.67,2.1-2.7,3.2-3.14,4.38-2.32,4.67,4.3,5.14,7a23.59,23.59,0,0,1,0,7.22c-.25.9.16.65,1,.89s2.82.58,3.17,1.31-4,1.23-5.23.76-10-.62-11.83-1.8S211,92.82,210.68,92.23Z"/><path class="cls-4" d="M230.1,95.32c-.35-.73-2.31-1.07-3.17-1.31s-1.27,0-1-.89a23.59,23.59,0,0,0,0-7.22c-.47-2.7-4-6.17-5.14-7l-.13-.07A17.71,17.71,0,0,1,224.46,85c.7,2.6.1,4.57.39,5.66.41,1.56-.11,4.94-2.44,5.1a14,14,0,0,1,2.46.35C226.15,96.56,230.44,96.05,230.1,95.32Z"/><path class="cls-6" d="M219.67,79.67c-.9.48-2.91,1.82-3,2.78a4.31,4.31,0,0,1-2.39,3.11c-1.22.4-3.64,5.12-2.89,4.91,1.55-.43,5.46-.82,7.91.09,1.15.43,2.86,1,3.07.19a13.27,13.27,0,0,0,.76-4.75C222.9,83.66,220.94,79,219.67,79.67Z"/><path class="cls-4" d="M230.1,95.32a1.18,1.18,0,0,0-.5-.47,29,29,0,0,0-4.58-.7,4.71,4.71,0,0,1-1.95-.3c-.37-.22-1.39-1.29-2.43-2a8.77,8.77,0,0,0-4.2-.83h-3.77c-.66,0-2.41.56-2.16.92l.17.27c.35.59.56.86,2.36,2s10.55,1.32,11.83,1.8S230.44,96.05,230.1,95.32Z"/><path class="cls-7" d="M213.4,130c-.43,1.72-1.69,6.47-.8,7s2.23-1.49,2.39-3.19-.09-5.68-.53-6.37S213.72,128.77,213.4,130Z"/><path class="cls-8" d="M217.81,122.26a20.82,20.82,0,0,0-.8,5.26c.08,1.57.33,4,.51,5.41s.58,5.08-.51,5-1.91-.12-2.27-2.54.75-5.1-.36-6.79c-.94-1.44.28-2.49,1-4S218.06,121.37,217.81,122.26Z"/><path class="cls-9" d="M216.32,126.3c-.19-.88,1-2.07,0-3.14a7,7,0,0,0-1,1.46c-.73,1.53-2,2.58-1,4,.84,1.28.41,3.12.31,5a9,9,0,0,0,.37,2.45c.29.92,1.55,1.47,1.87.74a7.75,7.75,0,0,0,.05-3c-.08-.76-.31-2.21-.41-3.69S216.49,127.06,216.32,126.3Z"/><path class="cls-10" d="M223.24,98a23.11,23.11,0,0,1-4,2.46c-1.26.56-1.47,1.76-2.28,1.54a1.14,1.14,0,0,1-.51-2c.87-1,.6-1.53,2.27-1.93S224,97.44,223.24,98Z"/><path class="cls-11" d="M232.86,96.45a14.41,14.41,0,0,0-5-1.79c-1.76-.22-3.51-.26-4.29-.33s-1.71-1.7-3.54-2.45-3.16-.38-5.32-.59a6.62,6.62,0,0,0-4.73,1.18c-1.62.94-1.73,3.2-2.83,5-1,1.6-.82,5.63-.72,6.66.2,2.15,1.09,2.81,2,5.43s.44,5.83-1.62,7.3-10.25,7.76-6.14,12.72,8.92,8.19,10.58,6.21,3.89-9.14,5.58-11.42,2-7.33,1.56-10.46-2.18-9.12-1.81-10.53A10.85,10.85,0,0,1,219,99.16c1.16-.91,3.14-.7,4.32-1a25.23,25.23,0,0,1,5.16-.38c1.53,0,4,.22,4.35.16.2,0,.34-.2.51-.17s.32.1.3-.16A1.73,1.73,0,0,0,232.86,96.45Z"/><path class="cls-12" d="M231.54,97.93a7,7,0,0,0,.77-1.81,15.34,15.34,0,0,0-4.49-1.46c-1.76-.22-3.51-.26-4.29-.33s-1.71-1.7-3.54-2.45-3.16-.38-5.32-.59a6.62,6.62,0,0,0-4.73,1.18c-1.62.94-1.73,3.2-2.83,5-1,1.6-.82,5.63-.72,6.66v.1c.24-3.34,2.18-5.74,4.28-5.28a7.16,7.16,0,0,0,4.83-.82c.77-.45.63-1.65,1.91-1.43,1,.17,4.8-.12,7.7,1.18a31.73,31.73,0,0,1,3.34-.12C229.37,97.81,230.61,97.89,231.54,97.93Z"/><path class="cls-13" d="M220,95.3a5.9,5.9,0,0,1-1-1c-.46-.56-.65-1-1.37-.87s-1.34,1.1-2.39,1.2-1.24.59-.72,1.12a5.87,5.87,0,0,0,3.06.85,6.66,6.66,0,0,0,2.69-.34C220.77,95.9,220.19,95.49,220,95.3Z"/><path class="cls-13" d="M223.53,94.32c-.79-.08-1.71-1.7-3.54-2.45s-3.16-.38-5.32-.59a6.62,6.62,0,0,0-4.73,1.18c-1.26.73-1.61,2.27-2.22,3.78.15-.39.42-.83.53-1.06a7.18,7.18,0,0,1,3.31-3.07c1.36-.5,2.9.08,3.55.16s.67-.36,1.79-.42a7.25,7.25,0,0,1,4,1.13c.75.69,1.18.83,1.66,1.59.11.17.94.22,1.33.43.21.12.65-.21.9-.6Z"/><path class="cls-11" d="M219.41,95.42c-.12-.11-.27-.14-.46-.47a1.49,1.49,0,0,0-.87-.81,1.32,1.32,0,0,0-1.34.43c-.23.38-.46.8-.13,1.23s.49.76,1.16.68,1.11-.82,1.3-.75S219.55,95.55,219.41,95.42Z"/><path class="cls-14" d="M218.69,95a1,1,0,0,1-.71,1.18,1,1,0,1,1-.49-1.85A1,1,0,0,1,218.69,95Z"/><path class="cls-15" d="M216.74,95.2c.21.41,1.44.5,1.92-.29a1,1,0,0,0-1.17-.58A1,1,0,0,0,216.74,95.2Z"/><path class="cls-16" d="M218.7,95a1,1,0,0,1-.08.76.93.93,0,0,1-.26.31,1,1,0,0,1-.37.17,1.13,1.13,0,0,1-.78-.11,1.07,1.07,0,0,1-.31-.25.93.93,0,0,1-.19-.36,1,1,0,0,1,.11-.78,1.06,1.06,0,0,1,.64-.48,1.08,1.08,0,0,1,.41,0,1,1,0,0,1,.67.41A1.13,1.13,0,0,1,218.7,95Zm0,0a.83.83,0,0,0-.47-.55,1.1,1.1,0,0,0-.35-.09,1,1,0,0,0-.35,0,.94.94,0,0,0-.56.41.9.9,0,0,0-.12.69.82.82,0,0,0,.44.55,1,1,0,0,0,.7.07,1,1,0,0,0,.57-.4A.9.9,0,0,0,218.66,95Z"/><path class="cls-17" d="M218.17,95.15a.39.39,0,0,1-.29.48.35.35,0,0,1-.42-.3.37.37,0,0,1,.71-.18Z"/><path class="cls-13" d="M223.87,95c.17.12.36.43-.13.76a9.46,9.46,0,0,1-2.46.84,11.76,11.76,0,0,0,3.27-.38c.66-.36,1.11-.17.71-.73S223.69,94.87,223.87,95Z"/><path class="cls-18" d="M223.4,98.15c-.1-.54-1-1-1.7-1-.49,0-.91.14-1.39.17s-.64.54-.86.76c-.38.39-.13.63-.84,1.46a3,3,0,0,1,.37-.35c1.16-.91,3.14-.7,4.32-1Z"/><path class="cls-19" d="M233.62,97.62a1.73,1.73,0,0,0-.76-1.17,14.41,14.41,0,0,0-5-1.79c-1.41-.17-2.8-.23-3.71-.29-.29.1-.08.25-.25.43s.33.2.59.58,0,.54-.76.75a23.49,23.49,0,0,1-4.12.63c-1.1,0-2.67.17-2.67.44s.58.26.91.26a32.85,32.85,0,0,1,4.58-.15c.46.16.16.78.77.89l.14,0a25.23,25.23,0,0,1,5.16-.38c1.53,0,4,.22,4.35.16.2,0,.34-.2.51-.17S233.64,97.88,233.62,97.62Z"/><path class="cls-20" d="M232,97.56c-.6-.15-1.92-.33-2.57-.55a6.37,6.37,0,0,0-2-.37,22.27,22.27,0,0,0-4.2.34,10,10,0,0,1-1.57.26,2.75,2.75,0,0,1,.69.06c.46.16.16.78.77.89l.14,0a25.23,25.23,0,0,1,5.16-.38c1.53,0,4,.22,4.35.16a1.18,1.18,0,0,0,.3-.12S232.43,97.66,232,97.56Z"/><path class="cls-21" d="M233.12,97.82s-.08,0-.12,0c-.25-.08-.49-.14-.74-.2l-1-.23c-.66-.15-1.32-.31-2-.48a15.48,15.48,0,0,0-2-.3c-.68-.06-1.36-.09-2-.09h-.51c-.17,0-.34,0-.51.05l-1,.11-2,.18c-1.35.11-2.71.23-4.05.39h0c.68,0,1.36-.06,2-.1s1.36-.09,2-.15,1.35-.16,2-.24l1-.11.51,0h.51c.68,0,1.35.06,2,.13a18,18,0,0,1,2,.32l1,.23,1,.2,1,.18.73.14s.08,0,.11,0Z"/><path class="cls-18" d="M211.77,100.57c-.9-.59,1.25,1.32,2.45,3.43.59,1,.34,2,.57,3,.69,2.95,1.73,4.28,2,6.25s.84,2.58.78,1.55-.84-5.48-1.08-6.9a8.1,8.1,0,0,1,.16-2.72,5.34,5.34,0,0,1-.06-1.75,13.23,13.23,0,0,1,1.9-3.69c-1.82,2.08-1.74,1.33-3.17,1.65A4.39,4.39,0,0,1,211.77,100.57Z"/><path class="cls-13" d="M211.26,93.65a2.44,2.44,0,0,0-.45,1.23c0,.41-.38,1.56.23,2s1.21.89,1.87.11.81-1.05.78-1.69.3-1.18-.15-1.61A2.11,2.11,0,0,0,211.26,93.65Z"/><path class="cls-22" d="M211.39,94.36a2.35,2.35,0,0,0-.24,2c.37.81,1.26,1,1.5.34s.45-.78.32-1.49-.71-1.17-1-1.15S211.48,94.18,211.39,94.36Z"/><path class="cls-23" d="M211.57,95.48c-.19.07-.22.17-.14.53s.55.67.67.38a1.23,1.23,0,0,0,.19-.55C212.24,95.4,211.82,95.39,211.57,95.48Z"/><path class="cls-22" d="M211.26,94.23a.89.89,0,0,1,1-.13c.39.26.66.56.66.81s.18.49.16.27.14-.49-.11-.81-.21-.5-.58-.53-.83,0-1,.15S211.16,94.32,211.26,94.23Z"/><path class="cls-24" d="M211.39,96c0-.11-.12-.34,0-.46s.09-.17.26-.17.32-.07.2-.08a.64.64,0,0,0-.41.05c-.08.07-.14.05-.14.3S211.42,96.15,211.39,96Z"/><path class="cls-25" d="M230.77,96.28a1.11,1.11,0,0,0-.39-.59c-.21-.11-.38-.34-.7-.32a1.25,1.25,0,0,0-.79.24c-.13.16-.16.6.17.67a2.54,2.54,0,0,0,1.1.15C230.47,96.34,230.81,96.38,230.77,96.28Z"/><path class="cls-26" d="M230.39,95.69c-.21-.11-.38-.34-.7-.32a1.25,1.25,0,0,0-.79.24c-.13.16-.16.6.17.67l.09,0c.09,0,.31-.13.61-.21s1,.19,1,0A.87.87,0,0,0,230.39,95.69Z"/><path class="cls-26" d="M228.73,96c0-.1,0-.34.06-.4a.83.83,0,0,1,.45-.21,1.72,1.72,0,0,1,.66,0c.19.07.11,0,.06,0s-.28,0-.37-.05a.66.66,0,0,0-.28,0,2,2,0,0,1-.32.07.31.31,0,0,0-.23.15.72.72,0,0,0-.07.33C228.69,95.93,228.74,96,228.73,96Z"/><path class="cls-25" d="M229.66,96.5a1.53,1.53,0,0,0,.46,0,2.45,2.45,0,0,1,.43-.09c.14,0,.24.06.11.05a.63.63,0,0,0-.29.06,1,1,0,0,1-.32,0C229.9,96.54,229.45,96.49,229.66,96.5Z"/><path class="cls-11" d="M210.36,97a1.6,1.6,0,0,1-.2,1.24c-.28.28-.15.57-.78.8-1.13.42,1.49,1,2.57.79,1.76-.27,3.25-1.4,2.46-1.19-.59.16-1,.2-.84-.47s1.13-1.25.52-1.17-1.5.51-2.17.56C210.63,97.66,210.25,96.68,210.36,97Z"/><path class="cls-13" d="M207.11,97.5a4,4,0,0,0-.39,1,.56.56,0,0,0,.26.63c.45.34.46.19.36-.49a4.92,4.92,0,0,1,.35-2.25A8.62,8.62,0,0,1,207.11,97.5Z"/><path class="cls-18" d="M216.79,124.4a9,9,0,0,0,1.36-3.46c-.81,2.22-3-3.05-3.8-4.73-1.05-2.31-2.89-.11-3.62,1.21s-1.33,2-1.57.86-3.71,1.37-3.71,1.37-1.65,2.23-3.5,5.33,2.67,6.48,7.19,6.94c1.77.18,3.56-.85,5.1-2.31A30.13,30.13,0,0,1,216.79,124.4Z"/><path class="cls-8" d="M209.8,110c-.7-1.56-2-4.41-2.28-5.3a9.27,9.27,0,0,1-.59-2.18c-.08-1-.09-2.11-.13-2.63,0-.36-.29-.44-.35-.07a23.09,23.09,0,0,0-.07,4.35c.2,2.15,1.09,2.81,2,5.43s.44,5.83-1.62,7.3c-1.49,1.07-6.23,4.69-7.13,8.49,3-1.21,8.43-7.16,9.8-8.54C211,115.29,210.5,111.55,209.8,110Z"/><path class="cls-9" d="M209.38,113.2c0-.38-.4-1.47-.75-2.81.57,2.45,0,5.18-1.85,6.5a29.71,29.71,0,0,0-3.75,3.18,1.89,1.89,0,0,0,.28.37c.27.19,3.36-2.43,4.79-3.78A3.59,3.59,0,0,0,209.38,113.2Z"/><path class="cls-27" d="M207.4,127.12c1.18-1.25,3.65-1.95,3.65-3.83s.11-6.78,1.24-5.92,3.26,3.63,3.26,5.79c0,2.35-.14,3.66-1.52,7.8-.37,1.12-3.19,3.92-4.93,7-2.63,4.67-6.49,9.9-8.39,14.2-1.75,4-10.6,10.33-16.45,13.56s-18.9,10.9-30.35,10.41-29.21,0-36,4.36-13.37,6.53-14.13,8.57-1.3,3.23-2.92,2.8a7.39,7.39,0,0,0-3.57.09c-1,.13-1.95-.3-3.14-1.7s-3-2.15-3.57-1.51-1.08-3.77-.76-8.28.89-11-.1-10.76-1.53-2.91.64-5.81,1.41-3.66,1.62-5.81,2.92-5.81,5.41-7.42.76-2.69,2.49-4.09,2.49-6.56,7.25-9.14S130.49,124,137,122.37s25.33-3.93,35.38-4.52,23.78.24,25.7.24,6.75-.26,6.89.19c0,0-.05.06-.08.09-.4.46,1.44,1.15,2.23,1.12s.5,1.82.18,2.7a19.67,19.67,0,0,0-1.07,4.22C206.24,127.72,206.92,127.62,207.4,127.12Z"/><path class="cls-28" d="M129.95,156.9c2.6-3.33,5.52-7.85,2.49-8.71s-6.82-.32-6.28-2.37-5.73-1.29-7.57-.65-6.38-.86-6.28-2,1-2.8-1.84-3.34-4.11,1.61-2.71-1.18a14.39,14.39,0,0,1,3.58-3.54c-1.82,1-3.3,1.85-4.23,2.36-4.76,2.58-5.52,7.75-7.25,9.14s0,2.47-2.49,4.09-5.19,5.27-5.41,7.42.54,2.9-1.62,5.81-1.62,6-.64,5.81.42,6.24.1,10.76.22,8.93.76,8.28,2.38.11,3.57,1.51,2.16,1.83,3.14,1.7a7.39,7.39,0,0,1,3.57-.09c1.62.43,2.16-.75,2.92-2.8s7.31-4.22,14.13-8.57a19,19,0,0,1,4.8-2c.37-1.67,1.46-3.45,2.71-6.28C127.46,167.56,127.35,160.24,129.95,156.9Z"/><path class="cls-28" d="M156.78,138c1.51,3.12,2.27,2,5.19,8.5s6.49,9.47,6.49,13.77-.87,11.3-1.14,13.56h0a107,107,0,0,0,16.93-8.07c5.84-3.23,14.7-9.57,16.45-13.56a58.11,58.11,0,0,1,4-7.11A15.65,15.65,0,0,1,202,141.2c-1.19-2.8-1.62-3.66-4.54-2.15s-6-1.83-10.6,1.29-6.6,3.71-9.52,2.45-6,1.21-7.36,1.86-14.72-9.79-13.2-6.67"/><path class="cls-28" d="M177.88,117.66c-1.9,0-3.77.09-5.52.19-10,.59-28.89,2.9-35.38,4.52s-25.1,12.48-29.86,15.06a10.45,10.45,0,0,0-2.68,2.09c.26,3.77,1.7,6,3,3.61,2.92-5.27,12.23-7.64,14.18-10.86s12.23-4.1,14-5.82,10.93-1.94,15-4.44C153.22,120.43,167.63,118.71,177.88,117.66Z"/><path class="cls-28" d="M214,131a30.38,30.38,0,0,0,1.36-5.05c-1.18,4.5-3.38,5.25-4.92,6.38-2.36,1.73-6.76,11.82-7.89,10-.56-.91-.8,5.23-.53,7.21,2-3.69,4.93-7.78,7-11.52C210.85,134.87,213.66,132.07,214,131Z"/><path class="cls-28" d="M168.11,166.67c-.67,3.68-6.89,2.93-11.44,4.86s-13,1.77-20.44,2.26-10.41-1.05-10-3.9c.38-2.66-9.62,6.41-8.9,11l.58-.36c6.82-4.36,24.59-4.84,36-4.36,9.66.41,20.47-5,27.12-8.63C178.56,165.68,168.32,165.47,168.11,166.67Z"/><path class="cls-6" d="M148.51,232.94a4,4,0,0,0,3.37,1.18c2.31,0,4.6.36,5.45,1.33a7.5,7.5,0,0,1,1.05,1.38c.33.48-.28.26-.82-.15a5.08,5.08,0,0,0-1.31-.18,32.58,32.58,0,0,0-3.65-.14c-1.79,0-5.63.89-5.79,0S147.73,232.35,148.51,232.94Z"/><path class="cls-5" d="M137.74,175.19c-1.79,1.35,0,6-1.33,8.83s-2.26,4.58-1.84,7.41,3.61,15.57,3.31,19.74.67,15.32,0,17.79-.61,4.24.76,5.72c.88,1,1.23,2.6,2.38,2.74,1.68.22,2.92.74,4.13.87,2.22.22,6.46-1.91,8.38-1.15s4.56.62,5.58,1.12.6-.44.06-1a10.7,10.7,0,0,0-4.26-2.61c-1.56-.31-4.26.22-6.37-1.69s-2.3-1.76-2.73-3.94-1.57-11.23-1.32-14.41-1.22-11.45-.9-13.33,3.64-6.88,4.25-9.72a12.14,12.14,0,0,1,5.85-7.41C156.49,182.57,140.45,173.15,137.74,175.19Z"/><path class="cls-6" d="M140.93,236c-1.22-1.63-2.59-4.68-1.7-6.94s-.32-9.28-.57-12.1.32-8.07-.38-11.14-1.57-10.19-2.43-13.26-.76-2.69,0-3.71a7.7,7.7,0,0,1,3.95-3.36c.48-.17.44-2.76-3.18-1.95a4.2,4.2,0,0,1-.2.48c-1.36,2.82-2.26,4.58-1.84,7.41s3.61,15.57,3.31,19.74.67,15.32,0,17.79-.61,4.24.76,5.72c.88,1,1.23,2.6,2.38,2.74,1.68.22,2.92.74,4.13.87a4.43,4.43,0,0,0,.8,0C144.34,237.81,141.85,237.24,140.93,236Z"/><path class="cls-28" d="M131.8,176.75c2.67,0,4.7,3,4.27,5.2-.24,1.21-.14,5.06,1.54,6.29,1.23.91,7.43,4.37,8,6,1.31,4,9-7.75,10.13-11s5.2-7.68,7.8-8.27-2.05-7.09-10.17-7.19S129.77,176.78,131.8,176.75Z"/><path class="cls-5" d="M147.24,235.61c2.31,0,4.6.36,5.45,1.33a7.47,7.47,0,0,1,1.05,1.39c.33.48-.28.25-.82-.15a5.05,5.05,0,0,0-1.31-.18,24.91,24.91,0,0,0-4.23,0c-1.77.24-3.65-.54-3.81-1.43S145,235.6,147.24,235.61Z"/></svg>