<svg id="Layer_1" data-name="Layer 1" xmlns="http://www.w3.org/2000/svg" xmlns:xlink="http://www.w3.org/1999/xlink" viewBox="0 0 426 446"><defs><style>.cls-1{fill:url(#linear-gradient);}.cls-2{fill:url(#linear-gradient-2);}.cls-3{fill:url(#linear-gradient-3);}.cls-4{fill:url(#radial-gradient);}.cls-5{fill:#fff;}</style><linearGradient id="linear-gradient" x1="219.48" y1="-32.28" x2="412.87" y2="-32.28" gradientTransform="matrix(1, 0, 0, -1, 0, 248)" gradientUnits="userSpaceOnUse"><stop offset="0" stop-color="#d21920"/><stop offset="1" stop-color="#971217"/></linearGradient><linearGradient id="linear-gradient-2" x1="212.91" y1="45.16" x2="212.91" y2="235.43" gradientTransform="matrix(1, 0, 0, -1, 0, 248)" gradientUnits="userSpaceOnUse"><stop offset="0.3" stop-color="#ed1c24"/><stop offset="1" stop-color="#971217"/></linearGradient><linearGradient id="linear-gradient-3" x1="13.04" y1="-32.26" x2="206.43" y2="-32.26" gradientTransform="matrix(1, 0, 0, -1, 0, 248)" gradientUnits="userSpaceOnUse"><stop offset="0" stop-color="#971217"/><stop offset="1" stop-color="#d21920"/></linearGradient><radialGradient id="radial-gradient" cx="113.49" cy="124.87" r="118.41" gradientTransform="matrix(1.88, 0, 0, -1.81, 0, 449.15)" gradientUnits="userSpaceOnUse"><stop offset="0" stop-color="#eb5258"/><stop offset="0.67" stop-color="#ed1c24"/><stop offset="1" stop-color="#971217"/></radialGradient></defs><title>dies</title><path class="cls-1" d="M412.79,193v-39c0-13.95-6.14-22.28-16.42-22.28a32.36,32.36,0,0,0-15.26,4.62L329.5,165l-28.72,16.06-26.41,14.72-16.76,9.35h0C237,216.73,219.48,245.93,219.48,269V406.63c0,13.95,6.14,22.28,16.42,22.28a32.36,32.36,0,0,0,15.26-4.62l34.53-19.23,89-49.57c20.65-11.54,38.19-40.77,38.19-63.84Z"/><path class="cls-2" d="M251.1,194.2l18.21-10.14,27.33-15.23,26.28-14.69,51.61-28.76c9-5,14-11.28,14-17.64s-4.94-12.68-13.91-17.66l-28.15-15.7L251.1,21.3c-10.1-5.63-23.67-8.73-38.19-8.73s-28.15,3.1-38.19,8.73l-98.78,55L51.22,90.08c-9,5-13.91,11.27-13.91,17.66s4.94,12.68,13.91,17.64h0l79.18,44.14L156.51,184l18.21,10.14h0c10.1,5.6,23.63,8.69,38.14,8.69s28.06-3.1,38.14-8.69Z"/><path class="cls-3" d="M168.28,205.12h0l-16.76-9.33-25-13.91-81.85-45.6h0a32.34,32.34,0,0,0-15.24-4.62C19.18,131.67,13,140,13,153.94V291.59c0,23.07,17.49,52.3,38.19,63.84l89,49.57,34.53,19.23A32.36,32.36,0,0,0,190,428.85c10.29,0,16.42-8.33,16.42-22.28V268.93C206.45,245.87,188.94,216.68,168.28,205.12Z"/><path class="cls-4" d="M371.78,74,257.61,10.41C245.57,3.62,229.69,0,212.91,0S180.18,3.62,168.2,10.41L44.71,79.24c-1.22.67-2.36,1.38-3.47,2.1C19,91.86,2.93,115.82.88,144.27A50.73,50.73,0,0,0,0,153.94V291.59c0,27.93,19.63,60.74,44.71,74.73,0,0,114.49,63.9,123.5,68.82A101.41,101.41,0,0,0,212.91,446a98.24,98.24,0,0,0,44.71-10.87l123.5-68.82c25.07-14,44.71-46.78,44.71-74.71,0,0,.41-112.69,0-137.64-.38-23.13,1.26-25.52-8.43-43.09S379.65,78.4,371.78,74ZM285.64,404.94,251.1,424.18a32.36,32.36,0,0,1-15.26,4.62c-10.29,0-16.42-8.33-16.42-22.28V268.88c0-23.06,17.45-52.25,38.14-63.8h0l16.76-9.35,26.46-14.62,28.72-16,51.61-28.76a32.36,32.36,0,0,1,15.26-4.62c10.29,0,16.42,8.33,16.42,22.28V291.66c0,23.07-17.49,52.3-38.19,63.84ZM51.22,355.37C30.57,343.84,13,314.61,13,291.53V153.94c0-13.95,6.14-22.28,16.42-22.28a32.34,32.34,0,0,1,15.24,4.62h0l81.79,45.55,25,13.91,16.76,9.33h0c20.65,11.55,38.12,40.75,38.12,63.79V406.5c0,13.95-6.14,22.28-16.42,22.28a32.36,32.36,0,0,1-15.26-4.62l-34.53-19.23ZM75.94,76.32l98.78-55c10.1-5.63,23.67-8.73,38.19-8.73s28.15,3.1,38.19,8.73l95.32,53.1,28.15,15.7c9,5,13.93,11.32,13.93,17.64s-4.94,12.68-13.91,17.66L323,154.14l-26.28,14.69L269.4,184.06,251.2,194.2h0c-10.1,5.61-23.63,8.69-38.14,8.69s-28-3.08-38.14-8.69h0l-18.21-10.14-26.11-14.49L51.22,125.4h0c-9-5-13.91-11.27-13.91-17.64S42.25,95.08,51.22,90.1Z"/><path class="cls-5" d="M349.58,265c0,14.8-10.75,32.78-24,40.17s-24,1.39-24-13.4,10.75-32.78,24-40.17S349.58,250.2,349.58,265Z"/><path class="cls-5" d="M129.91,296.77c0,14.8-10.75,20.79-24,13.38s-24-25.36-24-40.17,10.75-20.79,24-13.38S129.91,282,129.91,296.77Z"/><path class="cls-5" d="M76.31,222.6c0,14.8-10.75,20.79-24,13.38s-24.12-25.37-24.12-40.17,10.75-20.79,24-13.4S76.31,207.8,76.31,222.6Z"/><path class="cls-5" d="M76.31,311.51c0,14.8-10.75,20.79-24,13.4s-24.12-25.36-24.12-40.13,10.75-20.79,24-13.4S76.31,296.77,76.31,311.51Z"/><path class="cls-5" d="M186.86,285.17c0,14.8-10.75,20.79-24,13.38s-24-25.36-24-40.17,10.75-20.79,24-13.4S186.86,270.38,186.86,285.17Z"/><path class="cls-5" d="M186.86,375c0,14.8-10.75,20.79-24,13.38s-24-25.36-24-40.17,10.75-20.79,24-13.38S186.86,360.24,186.86,375Z"/><path class="cls-5" d="M238.87,144.38c13.27,7.39,13.27,19.4,0,26.79s-34.8,7.39-48.08,0-13.27-19.4,0-26.79S225.6,137,238.87,144.38Z"/><path class="cls-5" d="M237,39.08c13.27,7.39,13.27,19.4,0,26.79s-34.8,7.39-48.08,0-13.27-19.4,0-26.79S223.68,31.69,237,39.08Z"/><path class="cls-5" d="M237.59,90.81c13.27,7.39,13.27,19.4,0,26.79s-34.8,7.37-48,0-13.27-19.4,0-26.79S224.32,83.42,237.59,90.81Z"/></svg>