<svg xmlns="http://www.w3.org/2000/svg" xmlns:xlink="http://www.w3.org/1999/xlink" viewBox="0 0 179.45 246.36"><defs><style>.cls-1{isolation:isolate;}.cls-2{fill:url(#linear-gradient);}.cls-12,.cls-3{opacity:0.5;}.cls-3{mix-blend-mode:multiply;}.cls-4{fill:#bee2f3;opacity:0;}.cls-5{fill:#b6dbef;opacity:0.06;}.cls-6{fill:#aad6ef;opacity:0.13;}.cls-7{fill:#9ed2ec;opacity:0.19;}.cls-8{fill:#95cdea;opacity:0.25;}.cls-9{fill:#8ac9e8;opacity:0.31;}.cls-10{fill:#80c3e7;opacity:0.38;}.cls-11{fill:#78bfe5;opacity:0.44;}.cls-12{fill:#6eb9e3;}.cls-13{fill:#65b4df;opacity:0.56;}.cls-14{fill:#5cb0de;opacity:0.63;}.cls-15{fill:#53acdc;opacity:0.69;}.cls-16{fill:#4aa9db;opacity:0.75;}.cls-17{fill:#42a3d9;opacity:0.81;}.cls-18{fill:#37a0d7;opacity:0.88;}.cls-19{fill:#309cd6;opacity:0.94;}.cls-20{fill:#2998d2;}.cls-21{opacity:0.55;mix-blend-mode:screen;fill:url(#linear-gradient-2);}.cls-22{fill:url(#linear-gradient-3);}.cls-23{fill:url(#radial-gradient);}.cls-24{fill:#fbfbfb;opacity:0.8;}.cls-25{fill:url(#linear-gradient-4);}.cls-26{fill:url(#linear-gradient-5);}.cls-27{fill:url(#linear-gradient-6);}.cls-28{fill:url(#linear-gradient-7);}.cls-29{fill:url(#linear-gradient-8);}.cls-30{fill:url(#linear-gradient-9);}.cls-31{fill:url(#linear-gradient-10);}.cls-32{fill:url(#linear-gradient-11);}.cls-33{fill:url(#linear-gradient-12);}.cls-34{fill:url(#linear-gradient-13);}.cls-35{fill:url(#linear-gradient-14);}.cls-36{fill:url(#linear-gradient-15);}.cls-37{fill:url(#linear-gradient-16);}.cls-38{fill:url(#linear-gradient-17);}.cls-39{fill:url(#linear-gradient-18);}.cls-40{fill:url(#linear-gradient-19);}.cls-41{fill:url(#linear-gradient-20);}.cls-42{fill:url(#radial-gradient-2);}.cls-43{fill:url(#radial-gradient-3);}.cls-44{fill:url(#linear-gradient-21);}.cls-45{fill:url(#linear-gradient-22);}.cls-46{fill:url(#linear-gradient-23);}.cls-47{fill:url(#linear-gradient-24);}.cls-48{fill:url(#linear-gradient-25);}.cls-49{fill:url(#linear-gradient-26);}.cls-50{fill:#221f1f;}.cls-51{fill:#fff;}</style><linearGradient id="linear-gradient" x1="-31.99" y1="155.27" x2="212.29" y2="155.27" gradientTransform="translate(62.01 -58.4) rotate(21.49)" gradientUnits="userSpaceOnUse"><stop offset="0" stop-color="#8fc8e9"/><stop offset="0.01" stop-color="#80c1e6"/><stop offset="0.03" stop-color="#64b5e1"/><stop offset="0.05" stop-color="#53addd"/><stop offset="0.06" stop-color="#4daadc"/><stop offset="0.19" stop-color="#7fc2e6"/><stop offset="0.43" stop-color="#7dc1e5"/><stop offset="0.7" stop-color="#2d9cd6"/><stop offset="0.74" stop-color="#288bc0"/><stop offset="0.85" stop-color="#288cc2"/><stop offset="0.88" stop-color="#2891c9"/><stop offset="0.88" stop-color="#2891c9"/><stop offset="0.91" stop-color="#359ed6"/><stop offset="1" stop-color="#7abfe4"/></linearGradient><linearGradient id="linear-gradient-2" x1="38.12" y1="84.87" x2="78.27" y2="84.87" gradientTransform="matrix(1, -0.01, 0.01, 1, -2.42, 21.09)" gradientUnits="userSpaceOnUse"><stop offset="0"/><stop offset="0.15" stop-color="#99cdea"/><stop offset="0.85" stop-color="#99cdea"/><stop offset="1"/></linearGradient><linearGradient id="linear-gradient-3" x1="91.52" y1="-0.11" x2="91.52" y2="-20.49" gradientTransform="matrix(1, -0.01, 0.01, 1, -2.42, 21.09)" gradientUnits="userSpaceOnUse"><stop offset="0.04" stop-color="#fff"/><stop offset="0.11" stop-color="#f5f4f6"/><stop offset="0.3" stop-color="#dedde1"/><stop offset="0.5" stop-color="#ceccd2"/><stop offset="0.72" stop-color="#c5c2ca"/><stop offset="1" stop-color="#c2bfc7"/></linearGradient><radialGradient id="radial-gradient" cx="1270.85" cy="17287.41" r="296.21" gradientTransform="matrix(0.39, 0, 0, 0.04, -416.21, -751.11)" gradientUnits="userSpaceOnUse"><stop offset="0" stop-color="#e1e1e7"/><stop offset="0.19" stop-color="#dcdce2"/><stop offset="0.43" stop-color="#cdcdd4"/><stop offset="0.69" stop-color="#b5b5bc"/><stop offset="0.96" stop-color="#92939b"/><stop offset="1" stop-color="#8d8e96"/></radialGradient><linearGradient id="linear-gradient-4" x1="-336.03" y1="106.6" x2="-333.39" y2="119.53" gradientTransform="matrix(-1, 0, 0, 1, -197.28, 0)" gradientUnits="userSpaceOnUse"><stop offset="0" stop-color="#84c241"/><stop offset="0.02" stop-color="#89c441"/><stop offset="0.17" stop-color="#a3cd43"/><stop offset="0.3" stop-color="#b3d345"/><stop offset="0.4" stop-color="#b9d545"/><stop offset="1" stop-color="#456f34"/></linearGradient><linearGradient id="linear-gradient-5" x1="-338.55" y1="148.36" x2="-326.85" y2="151.28" gradientTransform="matrix(-1, 0, 0, 1, -197.28, 0)" gradientUnits="userSpaceOnUse"><stop offset="0" stop-color="#456f34"/><stop offset="0.6" stop-color="#b9d545"/><stop offset="0.7" stop-color="#b3d345"/><stop offset="0.83" stop-color="#a3cd43"/><stop offset="0.98" stop-color="#89c441"/><stop offset="1" stop-color="#84c241"/></linearGradient><linearGradient id="linear-gradient-6" x1="-337.04" y1="151.75" x2="-341.08" y2="169.83" gradientTransform="matrix(-1, 0, 0, 1, -197.28, 0)" gradientUnits="userSpaceOnUse"><stop offset="0" stop-color="#b9d545"/><stop offset="0.24" stop-color="#d5b136"/><stop offset="0.47" stop-color="#ec922a"/><stop offset="0.61" stop-color="#f58725"/><stop offset="1" stop-color="#965624"/></linearGradient><linearGradient id="linear-gradient-7" x1="-262.85" y1="126.21" x2="-253.97" y2="126.21" gradientTransform="matrix(-1, 0, 0, 1, -197.28, 0)" gradientUnits="userSpaceOnUse"><stop offset="0" stop-color="#264b9b"/><stop offset="1" stop-color="#10bef0"/></linearGradient><linearGradient id="linear-gradient-8" x1="-251.28" y1="130.32" x2="-241.74" y2="130.32" xlink:href="#linear-gradient-7"/><linearGradient id="linear-gradient-9" x1="-260.39" y1="128.09" x2="-237.6" y2="125.75" xlink:href="#linear-gradient-5"/><linearGradient id="linear-gradient-10" x1="-340.9" y1="138.43" x2="-338.44" y2="129.74" xlink:href="#linear-gradient-5"/><linearGradient id="linear-gradient-11" x1="-340.2" y1="135.19" x2="-333.23" y2="110.59" xlink:href="#linear-gradient-5"/><linearGradient id="linear-gradient-12" x1="-297.33" y1="159.41" x2="-285.68" y2="118.26" xlink:href="#linear-gradient-5"/><linearGradient id="linear-gradient-13" x1="-284.78" y1="161.75" x2="-282.59" y2="141.88" xlink:href="#linear-gradient-7"/><linearGradient id="linear-gradient-14" x1="-8774.02" y1="158.17" x2="-8746.25" y2="158.17" gradientTransform="translate(8819.12)" xlink:href="#linear-gradient-7"/><linearGradient id="linear-gradient-15" x1="-261.92" y1="186.47" x2="-276.99" y2="192.77" xlink:href="#linear-gradient-6"/><linearGradient id="linear-gradient-16" x1="-263.18" y1="186.25" x2="-275.64" y2="177.63" xlink:href="#linear-gradient-6"/><linearGradient id="linear-gradient-17" x1="-267.96" y1="154.58" x2="-254.74" y2="162.66" xlink:href="#linear-gradient-5"/><linearGradient id="linear-gradient-18" x1="-243.9" y1="172.87" x2="-236.03" y2="185.89" xlink:href="#linear-gradient-5"/><linearGradient id="linear-gradient-19" x1="-248.14" y1="161.03" x2="-243.48" y2="173.06" xlink:href="#linear-gradient-5"/><linearGradient id="linear-gradient-20" x1="-8690.23" y1="122.28" x2="-8669.66" y2="122.28" gradientTransform="translate(8819.12)" xlink:href="#linear-gradient-4"/><radialGradient id="radial-gradient-2" cx="-8716.52" cy="120.59" r="8.67" gradientTransform="translate(10822.33) scale(1.23 1)" gradientUnits="userSpaceOnUse"><stop offset="0" stop-color="#3066af"/><stop offset="0.71" stop-color="#2b60ab"/><stop offset="1" stop-color="#285ca8"/></radialGradient><radialGradient id="radial-gradient-3" cx="-8716.33" cy="121.05" r="8.08" gradientTransform="translate(10822.33) scale(1.23 1)" gradientUnits="userSpaceOnUse"><stop offset="0" stop-color="#ed4523"/><stop offset="0.13" stop-color="#e74322"/><stop offset="0.3" stop-color="#d73e20"/><stop offset="0.49" stop-color="#bb351d"/><stop offset="0.69" stop-color="#952918"/><stop offset="0.91" stop-color="#651912"/><stop offset="1" stop-color="#4e120f"/></radialGradient><linearGradient id="linear-gradient-21" x1="-287.87" y1="140.79" x2="-291.24" y2="156.13" gradientTransform="matrix(-1, 0, 0, 1, -197.28, 0)" gradientUnits="userSpaceOnUse"><stop offset="0" stop-color="#fbed34"/><stop offset="0.17" stop-color="#e9e739"/><stop offset="0.49" stop-color="#cfdd3f"/><stop offset="0.78" stop-color="#bfd744"/><stop offset="1" stop-color="#b9d545"/></linearGradient><linearGradient id="linear-gradient-22" x1="-8766.01" y1="155.86" x2="-8738.25" y2="155.86" gradientTransform="translate(8819.12)" xlink:href="#linear-gradient-7"/><linearGradient id="linear-gradient-23" x1="-306.4" y1="185.02" x2="-325.51" y2="197.99" xlink:href="#linear-gradient-6"/><linearGradient id="linear-gradient-24" x1="-318.1" y1="153.79" x2="-294.51" y2="147.1" xlink:href="#linear-gradient-5"/><linearGradient id="linear-gradient-25" x1="-308.4" y1="171.55" x2="-294.91" y2="177.27" xlink:href="#linear-gradient-5"/><linearGradient id="linear-gradient-26" x1="-307.9" y1="156.7" x2="-296.83" y2="145.86" xlink:href="#linear-gradient-7"/></defs><title>frog-mug</title><g class="cls-1"><g id="Layer_1" data-name="Layer 1"><path class="cls-2" d="M178.1,11.73a5.74,5.74,0,0,0-3.73-5.32C157.53.08,99.88-.06,89,0,52.55.24,16.15,2.8,3.71,7.52A5.73,5.73,0,0,0,0,12.91L1.34,222.1a10.13,10.13,0,0,0,2.26,6.32c20.77,25.66,153.15,22.4,173.35-.85a10.15,10.15,0,0,0,2.49-6.73Z"/><g class="cls-3"><path class="cls-4" d="M3.55,220.37a10.12,10.12,0,0,1-2.26-6.32l.05,8a10.12,10.12,0,0,0,2.26,6.32c20.77,25.66,153.15,22.4,173.35-.85a10.15,10.15,0,0,0,2.49-6.73l-.05-8a10.15,10.15,0,0,1-2.49,6.73C156.7,242.77,24.32,246,3.55,220.37Z"/><path class="cls-5" d="M3.55,220.83a10.13,10.13,0,0,1-2.26-6.32l0,7.59a10.12,10.12,0,0,0,2.26,6.32c20.77,25.66,153.15,22.4,173.35-.85a10.15,10.15,0,0,0,2.49-6.73l0-7.59a10.15,10.15,0,0,1-2.49,6.73C156.7,243.23,24.32,246.49,3.55,220.83Z"/><path class="cls-6" d="M3.55,221.29A10.12,10.12,0,0,1,1.29,215l0,7.13a10.12,10.12,0,0,0,2.26,6.32c20.77,25.66,153.15,22.4,173.35-.85a10.15,10.15,0,0,0,2.49-6.73l0-7.13a10.15,10.15,0,0,1-2.49,6.73C156.7,243.69,24.32,246.95,3.55,221.29Z"/><path class="cls-7" d="M3.56,221.74a10.12,10.12,0,0,1-2.26-6.32l0,6.67a10.12,10.12,0,0,0,2.26,6.32c20.77,25.66,153.15,22.4,173.35-.85a10.15,10.15,0,0,0,2.49-6.73l0-6.67a10.15,10.15,0,0,1-2.49,6.73C156.7,244.14,24.33,247.4,3.56,221.74Z"/><path class="cls-8" d="M3.56,222.2a10.12,10.12,0,0,1-2.26-6.32l0,6.21a10.12,10.12,0,0,0,2.26,6.32c20.77,25.66,153.15,22.4,173.35-.85a10.15,10.15,0,0,0,2.49-6.73l0-6.21a10.15,10.15,0,0,1-2.49,6.73C156.71,244.6,24.33,247.86,3.56,222.2Z"/><path class="cls-9" d="M3.56,222.66a10.12,10.12,0,0,1-2.26-6.32l0,5.76a10.12,10.12,0,0,0,2.26,6.32c20.77,25.66,153.15,22.4,173.35-.85a10.15,10.15,0,0,0,2.49-6.73l0-5.76a10.15,10.15,0,0,1-2.49,6.73C156.71,245.06,24.33,248.32,3.56,222.66Z"/><path class="cls-10" d="M3.57,223.11a10.12,10.12,0,0,1-2.26-6.32l0,5.3a10.12,10.12,0,0,0,2.26,6.32c20.77,25.66,153.15,22.4,173.35-.85a10.15,10.15,0,0,0,2.49-6.73l0-5.3a10.15,10.15,0,0,1-2.49,6.73C156.71,245.51,24.33,248.77,3.57,223.11Z"/><path class="cls-11" d="M3.57,223.57a10.12,10.12,0,0,1-2.26-6.32l0,4.84a10.12,10.12,0,0,0,2.26,6.32c20.77,25.66,153.15,22.4,173.35-.85a10.15,10.15,0,0,0,2.49-6.73l0-4.84a10.15,10.15,0,0,1-2.49,6.73C156.72,246,24.34,249.23,3.57,223.57Z"/><path class="cls-12" d="M3.57,224a10.12,10.12,0,0,1-2.26-6.32l0,4.39a10.12,10.12,0,0,0,2.26,6.32c20.77,25.66,153.15,22.4,173.35-.85a10.15,10.15,0,0,0,2.49-6.73l0-4.39a10.15,10.15,0,0,1-2.49,6.73C156.72,246.43,24.34,249.69,3.57,224Z"/><path class="cls-13" d="M3.58,224.49a10.12,10.12,0,0,1-2.26-6.32l0,3.93a10.12,10.12,0,0,0,2.26,6.32c20.77,25.66,153.15,22.4,173.35-.85a10.15,10.15,0,0,0,2.49-6.73l0-3.93a10.15,10.15,0,0,1-2.49,6.73C156.72,246.88,24.34,250.14,3.58,224.49Z"/><path class="cls-14" d="M3.58,224.94a10.12,10.12,0,0,1-2.26-6.32l0,3.47a10.12,10.12,0,0,0,2.26,6.32c20.77,25.66,153.15,22.4,173.35-.85a10.15,10.15,0,0,0,2.49-6.73l0-3.47a10.15,10.15,0,0,1-2.49,6.73C156.73,247.34,24.35,250.6,3.58,224.94Z"/><path class="cls-15" d="M3.58,225.4a10.12,10.12,0,0,1-2.26-6.32l0,3a10.12,10.12,0,0,0,2.26,6.32c20.77,25.66,153.15,22.4,173.35-.85a10.15,10.15,0,0,0,2.49-6.73l0-3a10.15,10.15,0,0,1-2.49,6.73C156.73,247.8,24.35,251.06,3.58,225.4Z"/><path class="cls-16" d="M3.58,225.86a10.12,10.12,0,0,1-2.26-6.32l0,2.56a10.12,10.12,0,0,0,2.26,6.32c20.77,25.66,153.15,22.4,173.35-.85a10.15,10.15,0,0,0,2.49-6.73l0-2.56a10.15,10.15,0,0,1-2.49,6.73C156.73,248.25,24.35,251.52,3.58,225.86Z"/><path class="cls-17" d="M3.59,226.31A10.12,10.12,0,0,1,1.33,220v2.1a10.12,10.12,0,0,0,2.26,6.32c20.77,25.66,153.15,22.4,173.35-.85a10.15,10.15,0,0,0,2.49-6.73v-2.1a10.15,10.15,0,0,1-2.49,6.73C156.73,248.71,24.35,252,3.59,226.31Z"/><path class="cls-18" d="M3.59,226.77a10.12,10.12,0,0,1-2.26-6.32v1.65a10.12,10.12,0,0,0,2.26,6.32c20.77,25.66,153.15,22.4,173.35-.85a10.15,10.15,0,0,0,2.49-6.73V219.2a10.15,10.15,0,0,1-2.49,6.73C156.74,249.17,24.36,252.43,3.59,226.77Z"/><path class="cls-19" d="M3.59,227.23a10.12,10.12,0,0,1-2.26-6.32v1.19a10.12,10.12,0,0,0,2.26,6.32c20.77,25.66,153.15,22.4,173.35-.85a10.15,10.15,0,0,0,2.49-6.73v-1.19a10.15,10.15,0,0,1-2.49,6.73C156.74,249.63,24.36,252.89,3.59,227.23Z"/><path class="cls-20" d="M3.6,227.68a10.12,10.12,0,0,1-2.26-6.32v.73a10.12,10.12,0,0,0,2.26,6.32c20.77,25.66,153.15,22.4,173.35-.85a10.15,10.15,0,0,0,2.49-6.73v-.73a10.15,10.15,0,0,1-2.49,6.73C156.74,250.08,24.36,253.34,3.6,227.68Z"/></g><path class="cls-21" d="M35.68,18l.85,131.52A44.17,44.17,0,0,0,77,193.14L75.84,19.54C61.17,19.41,47.34,18.89,35.68,18Z"/><path class="cls-22" d="M176.07,7.41a5.76,5.76,0,0,0-1.7-1C157.53.08,99.88-.06,89,0,52.55.24,16.15,2.8,3.71,7.52A5.76,5.76,0,0,0,.78,10l-.1.2c.89,2,4.38,3.76,10.27,5.1,16,3.64,47.06,5.3,78.14,5.1s62.16-2.26,78.07-6.1c5.86-1.42,9.34-3.27,10.2-5.23A5.39,5.39,0,0,0,176.07,7.41Z"/><path class="cls-23" d="M10.87,9.41a.66.66,0,0,0,0,1.07c12.49,9.42,143.91,8.58,156.29-1a.66.66,0,0,0,0-1.07C160.91,3.69,124.93,1.55,89,1.78S17.05,4.62,10.87,9.41Z"/><path class="cls-24" d="M162.17,7.34C140.65,2.43,81.33,3,59.25,3.31,86.58,1.21,140.1.81,162.17,7.34Z"/><path class="cls-25" d="M146.61,117.41c-2.38,4.21-8.49,6-13.65,4.11s-7.41-6.93-5-11.14,8.49-6,13.65-4.1S149,113.2,146.61,117.41Z"/><path class="cls-26" d="M136.61,153.09c-1.92-.59-3.57.36-5.33,1.25a6,6,0,0,0-.84-2,15.6,15.6,0,0,1-.83-2.26c-.39-1-.77-2-1.12-3.09l-.07-.21,7.47-4.24.16.43c.87,2.43,1.73,4.87,2.63,7.31a12.15,12.15,0,0,0,1.57,3,7,7,0,0,0,2,1.55c.23.15.46.29.7.43C140.44,155.8,138.52,154,136.61,153.09Z"/><path class="cls-27" d="M120.39,158.46c.73-1.3,2.71-1.83,4.43-1.18a3.75,3.75,0,0,1,1,.55c2.07-.51,4.5-.73,5.33-2.38a1.89,1.89,0,0,0,.18-1.1c1.76-.89,3.41-1.84,5.33-1.25,1.91.94,3.83,2.71,6.35,2.07,2.92,1.67,6.77,2.37,9.73,4a21.68,21.68,0,0,1,5.22,4c.95,1,2.5,2.21,2.88,3.53a4.86,4.86,0,0,1,2.08.29c1.88.71,2.78,2.4,2,3.77s-2.93,1.92-4.82,1.21-2.73-2.32-2-3.68a24,24,0,0,1-2.88-3.26,21.45,21.45,0,0,0-5.6-4.84c-.75-.42-5-2.41-5.05-.21,0,.63,1,1.4,1.41,1.92a24.45,24.45,0,0,1,1.78,2.85,15.08,15.08,0,0,1,1.88,5.94,4.55,4.55,0,0,1,1,.24c1.93.73,2.78,2.58,1.9,4.13a4.23,4.23,0,0,1-5.09,1.5c-1.93-.73-2.78-2.58-1.9-4.13a3.07,3.07,0,0,1,.51-.64c-1.31-1.79-1.46-4.42-2-6.3a13.54,13.54,0,0,0-2.16-4.24c-.77-1.15-1.2-2.07-2.72-2.58-1.19,1.34-1.17,3.68-1.3,5.28a15,15,0,0,1-.43,3c1.47.88,2.13,2.29,1.48,3.43-.77,1.36-3.07,1.82-5.15,1s-3.14-2.52-2.37-3.87a3.43,3.43,0,0,1,3-1.41c0-.37.06-.75.09-1.16.11-1.56,1-5.37-.66-6.49-.85-.57-2-.14-2.84.18a35.61,35.61,0,0,1-3.51,1.12l-.63.17a2.09,2.09,0,0,1-.25.85,3.67,3.67,0,0,1-4.43,1.18C120.45,161.33,119.66,159.75,120.39,158.46Z"/><path class="cls-28" d="M65.57,125.55s-4.39,1.71-8.88,3.83A56.19,56.19,0,0,0,60.57,123,19.62,19.62,0,0,1,65.57,125.55Z"/><path class="cls-29" d="M44.47,136.92s2.5-9.41,9.53-13.2a35.55,35.55,0,0,0-2.29,8.23c-.91.52-1.74,1-2.43,1.53Z"/><path class="cls-30" d="M56.05,122.82a7.46,7.46,0,0,1,4.52.21,56.19,56.19,0,0,1-3.87,6.36c-1.73.82-3.47,1.69-5,2.56A35.55,35.55,0,0,1,54,123.72,12.87,12.87,0,0,1,56.05,122.82Z"/><path class="cls-31" d="M147.58,137.08a25.46,25.46,0,0,0-3.43,1.41l-.27,0c-7.26-1.39-14.52.35-21.78-2.09a21.48,21.48,0,0,1-2.34-.59c15.22-.05,30.65-1.11,44.45-6.29C160.48,132.92,148,137.16,147.58,137.08Z"/><path class="cls-32" d="M117.39,133.92c-.75-7.69,5.14-14.56,10.36-21.1a100.19,100.19,0,0,1,11.51,1.51,73.37,73.37,0,0,1,15,2.27c8.52,2.16,12.53,8.22,10.8,11.78a3.94,3.94,0,0,1-.89,1.1c-13.8,5.18-29.23,6.24-44.45,6.29C118.5,135.36,117.39,134.77,117.39,133.92Z"/><path class="cls-33" d="M44.69,140.25a4.45,4.45,0,0,1-.23-3.33h0l4.81-3.44c4.81-3.45,23.48-10.9,23.48-10.9s10.62-3.59,18.15-3,13.31-.24,20.75-4.8c3.62-2.21,10.24-2.39,16.1-2-5.21,6.54-11.11,13.41-10.36,21.1,0,1.39,3,2.09,4.7,2.44,7.26,2.44,14.52.7,21.78,2.09l.27,0c-2.22,1-5.24,2.45-8.23,4l-7.47,4.24a20.12,20.12,0,0,0-2.58,1.92c-2.12,2-6.93,5-11.19,7.61a81.91,81.91,0,0,0,8.21-14,25.75,25.75,0,0,0-4.32.18c.73-.8.18-1.46.64-2.4-23.39,0-44.39,4.8-66.53,10.89-.66-.43-1.32-.87-2-1.34A14.18,14.18,0,0,1,44.69,140.25Z"/><path class="cls-34" d="M118.56,142.45c-11.62,1.47-19,10.78-25.86,18.33,0-.44-.07-.7-.07-.7-2.12,2.3-17.82-.72-19.44-1-10.52-2.8-15.47-4.87-20.52-8.11C74.82,144.85,95.35,140,118.75,140,118.28,141,119.3,141.65,118.56,142.45Z"/><path class="cls-35" d="M45.11,148c1.11-2.64,2.44-4.35,5.13-2.08,9.55,7.69,17.43,15.81,22.64,25.51-4.62-2.7-10-4.22-14.82-6.83l1.8.72S46.56,154.55,45.11,148Z"/><path class="cls-36" d="M74.64,183.37a49.07,49.07,0,0,1,7.21,1A5.22,5.22,0,0,1,86.5,183c2.5.33,4.27,1.88,4,3.47s-2.59,2.62-5.09,2.29c-2-.26-3.47-1.27-3.88-2.46-2.47.45-6.4.74-8.23,1.31-2.94.91-5.22,2.43-3.49,5a5.62,5.62,0,0,1,.75,1.71h.09c2.37.31,4,2.06,3.64,3.91s-2.58,3.1-5,2.79-4-2.06-3.64-3.91a2.84,2.84,0,0,1,.52-1.15c-.38-.37-.75-.77-1.13-1.2,1-3.67,4.41-6.88,8.19-9.12C73.32,185.25,74.23,184.34,74.64,183.37Z"/><path class="cls-37" d="M74.75,182c-1.9-1.6-4.22-1-6.46-.93.82-.42,2-1,3.12-1.43a62.17,62.17,0,0,0,6.85-3.36c1.44.43,2.37,1.55,2.14,2.72-.26,1.34-2,2.24-3.78,2l-.17,0a7,7,0,0,1-1.69,2A1.59,1.59,0,0,0,74.75,182Z"/><path class="cls-38" d="M72.7,171.14c-5.2-9.56-13-17.59-22.46-25.2-2.69-2.27-4-.56-5.13,2.08a4.18,4.18,0,0,1,0-1.9c.9-3.75,4.44-5.41,8-5.13,8.13,10,21.61,19,27.75,29.73.42,1.79.21,3.27-.92,4.23-.57.49-1.13.93-1.68,1.34,0,0-.81.45-1.89,1A8.11,8.11,0,0,0,72.7,171.14Z"/><path class="cls-39" d="M52.48,182.22c3.87-.35,14.55-.46,14.55-.46s.5-.28,1.26-.67c2.23-.12,4.56-.68,6.46.93a1.59,1.59,0,0,1,0,1c-.24.21-.41.34-.41.34l.29,0c-.41,1-1.32,1.88-1.4,2.31-3.79,2.24-7.19,5.45-8.19,9.12-2.14-2.45-4.22-5.58-6.14-5.83-2.7-.35-10.44,1.54-18.68-6.09S17.8,166.31,18.6,162.3a30,30,0,0,1,10.51,3.65C30.89,167.46,48.8,182.55,52.48,182.22Z"/><path class="cls-40" d="M34.51,156.34c8.1,2.25,19.24,6.57,23.55,8.28,4.83,2.6,10.2,4.12,14.82,6.83l-.18-.31a8.11,8.11,0,0,1,3.67,6.18,37.39,37.39,0,0,1-5,2.34c-3.53.76-7.14.08-11.7-1.54C51.6,175.23,29,165.82,29,165.82l.15.12A30,30,0,0,0,18.6,162.3a1.9,1.9,0,0,1,0-.19C19.93,158.2,24.27,153.5,34.51,156.34Z"/><path class="cls-41" d="M148.52,125.8c-2.38,4.21-8.49,6-13.65,4.11s-7.41-6.93-5-11.14,8.49-6,13.65-4.1S150.9,121.59,148.52,125.8Z"/><path class="cls-42" d="M148,125.93c-2.16,3.82-7.71,5.5-12.4,3.73s-6.73-6.3-4.57-10.12,7.72-5.49,12.4-3.73S150.2,122.11,148,125.93Z"/><path class="cls-43" d="M147.78,126c-2,3.57-7.19,5.12-11.56,3.48s-6.28-5.87-4.26-9.44,7.19-5.12,11.56-3.48S149.8,122.46,147.78,126Z"/><path class="cls-44" d="M64.42,147.43a79.05,79.05,0,0,0,7.92-1.66c1.66-.43,3.33-.74,4.93-1.29.8-.27,1.61-.32,2.43-.51s1.78-.53,2.71-.71c2.44-.47,4.8-.87,7.27-1.2,1.53-.2,3.08-.35,4.59-.61s2.86-.81,4.34-1.18a23.31,23.31,0,0,1,5.53-.6c1.35,0,2.59.34,4,.22,1-.08,1.9-.51,2.87-.63a46.78,46.78,0,0,1,5.46,0,7.58,7.58,0,0,1,3.92,1c.78.46,1.14.88.78,1.63a2.26,2.26,0,0,1-1.56,1.16c-.79.26-1.08.17-1.28-.25.19-.72.62-1.64-.07-1.64-1.47-.24-3.75-.81-5.31-.35l-.12,0a3.8,3.8,0,0,0-1.19.45c-.32.22-.35.5-.49.81-.29.63-.48,1.31-.79,1.91-.2.39-1.12,2-1.85,1.7s-.14-2-.07-2.49c.15-.93.49-1.59-1-1.58-1.72,0-2.61,0-3.12,1.51s-.51,2.92-.95,4.36a14.38,14.38,0,0,1-1.38,3.38c-.37.6-1.35,2-2.45,1.91s0-1.44.14-1.82a26.65,26.65,0,0,0,1.21-2.86,9,9,0,0,0,.29-3,3,3,0,0,0-1.47-3,3.94,3.94,0,0,0-5.14,1.26c-1.56,2.1-1.08,5.18-.61,7.49.34,1.69.75,4.23-.3,5.81a2,2,0,0,1-2,.85c-.82-.14-.74-.5-.82-1.17-.21-1.87,0-3.8-.17-5.69a16.28,16.28,0,0,0-1.21-5.18c-.53-1.19-1.41-2.45-3.15-1.83-3,1.1-2.78,4.28-2.58,6.57.08.94,1.88,7.88.24,8-.87.07-1.7-1.27-2-1.79-.57-1-1.17-2.1-1.67-3.17-.91-1.94-1.41-4-2.38-5.89-.41-.81-1.33-1.52-2.25-.68a3.52,3.52,0,0,0-.84,2.31c-.1,1.45,0,2.93,0,4.39,0,.6.09,2-.62,2.47s-1.11-.3-1.45-.79A29.35,29.35,0,0,1,71,152.26a19.28,19.28,0,0,0-.82-1.93c-1.29-1.88-4.3-1-6.38-.94-.74,0-1.9,0-2.09-.82S63.7,147.54,64.42,147.43Z"/><path class="cls-45" d="M53.12,141a10,10,0,0,1,6.12,2.69s19.43,17.78,21.63,27C74.72,160,61.25,151,53.12,141Z"/><path class="cls-46" d="M116.11,187.59c1.48-.91-.57-3.12-.86-5.28.58.34,1,.56,1,.56a50.66,50.66,0,0,1,3.5-4.2,1.93,1.93,0,0,1-.14-2.12,3.28,3.28,0,0,1,3.95-1.1c1.52.57,2.2,2,1.54,3.16a3.14,3.14,0,0,1-3.26,1.28,49.38,49.38,0,0,1-4.26,5.69s11.44-2,15.16-.48a6.17,6.17,0,0,1,.76.38,4.48,4.48,0,0,1,3.05,0c1.81.68,2.65,2.33,1.88,3.69s-2.85,1.9-4.66,1.22a2.92,2.92,0,0,1-2.14-2.84c-4.15-2.25-13.46,1.25-13.46,1.25,8.68,1.42,11.07,6.5,12.62,9.07l.06.11a3.34,3.34,0,0,1,1.11.21,2.18,2.18,0,0,1,1.38,3.11,3.16,3.16,0,0,1-3.79,1.16,2.18,2.18,0,0,1-1.38-3.1,2.37,2.37,0,0,1,.58-.67c-.08-.45-.52-1.58-2.45-4.25-2.89-4-11.18-3.27-11.18-3.27s1,5.38.09,8.44a5.65,5.65,0,0,1-.76,1.6,2.3,2.3,0,0,1,.74,3c-.74,1.31-2.78,1.84-4.56,1.17s-2.6-2.27-1.86-3.59a3.67,3.67,0,0,1,4.11-1.31l0-.06c2.5-4.43-1.13-11.17-1.13-11.17s-.77-.59-2.06-1.63C112.06,188,114.44,188.44,116.11,187.59Z"/><path class="cls-47" d="M97.73,159.06c.28-.25.57-.5.87-.75,7.41-5.73,17-9.13,22.46-16.05.6,0,1.2,0,1.82,0a81.91,81.91,0,0,1-8.21,14c-4.21,2.54-7.88,4.6-7.88,4.6l.28,1.14C104.75,160,101.34,159.07,97.73,159.06Z"/><path class="cls-48" d="M107.07,162c.94,3.83,3.93,16,4.26,17.15.28.92,2.57,2.37,3.92,3.16.3,2.16,2.34,4.37.86,5.28-1.67.85-4.05.37-6.4,0-2.14-1.72-5.72-4.68-9.66-8.27s-6-10.54-6.81-15a23.5,23.5,0,0,1,4.47-5.29C101.34,159.07,104.75,160,107.07,162Z"/><path class="cls-49" d="M121.06,142.26c-5.51,6.92-15.05,10.32-22.46,16.05a24,24,0,0,0-5.34,6c-.3-1.57-.47-2.84-.55-3.58C100.08,152.7,108,142.6,121.06,142.26Z"/><path class="cls-50" d="M142.33,126.81l-2.11-8.95S143.46,121.95,142.33,126.81Z"/><ellipse class="cls-51" cx="137.31" cy="120.02" rx="0.96" ry="0.78"/><path class="cls-51" d="M128.44,115.1h-.89c-.58,0-1.43,0-2.51.07s-2.39.15-3.89.32a42.88,42.88,0,0,0-5,.86,22.22,22.22,0,0,0-5.61,2l-.69.39-.64.38c-.22.1-.41.2-.63.3s-.45.2-.7.27a17.83,17.83,0,0,1-3.1.74c-2.2.34-4.57.43-7,.55s-4.91.23-7.39.48a50.6,50.6,0,0,0-7.34,1.27,32.43,32.43,0,0,0-3.46,1.08l-3.2,1.2c-2.11.78-4.13,1.56-6,2.3s-3.73,1.44-5.4,2.09l-2.4.94-2.14.89L57,132.69l-2.22,1-.79.34.83-.27,2.33-.77,3.6-1.22,2.2-.76,2.46-.82c1.71-.57,3.57-1.19,5.52-1.87s4-1.37,6.14-2.12L80.26,125c1.07-.36,2.17-.7,3.3-1a49.12,49.12,0,0,1,7.06-1.17c2.41-.26,4.86-.38,7.28-.52a62.87,62.87,0,0,0,7.18-.69,17.73,17.73,0,0,0,3.39-.9c.27-.09.52-.23.78-.34s.52-.27.76-.4l.66-.42.6-.37a22.29,22.29,0,0,1,5.17-2.1c1.72-.48,3.35-.84,4.81-1.09s2.75-.45,3.81-.57,1.91-.22,2.48-.27Z"/></g></g></svg>