<svg id="Layer_1" data-name="Layer 1" xmlns="http://www.w3.org/2000/svg" xmlns:xlink="http://www.w3.org/1999/xlink" viewBox="0 0 230.92 246.13"><defs><style>.cls-1{fill:url(#linear-gradient);}.cls-2{fill:url(#linear-gradient-2);}.cls-3{fill:url(#radial-gradient);}.cls-4{opacity:0.1;}</style><linearGradient id="linear-gradient" x1="-100.69" y1="-119.47" x2="81.64" y2="-119.47" gradientTransform="matrix(-0.36, 0.93, 0.93, 0.36, 232.51, 233.89)" gradientUnits="userSpaceOnUse"><stop offset="0" stop-color="#81bf2e"/><stop offset="0.36" stop-color="#98c728"/><stop offset="0.72" stop-color="#a9cc24"/><stop offset="1" stop-color="#afce22"/></linearGradient><linearGradient id="linear-gradient-2" x1="-203.66" y1="-80.74" x2="-98.13" y2="-80.74" xlink:href="#linear-gradient"/><radialGradient id="radial-gradient" cx="-62.29" cy="-160.45" r="121.71" gradientTransform="matrix(-0.36, 0.93, 0.93, 0.36, 232.51, 233.89)" gradientUnits="userSpaceOnUse"><stop offset="0" stop-color="#afce22"/><stop offset="1" stop-color="#81bf2e"/></radialGradient></defs><title>green-rectangular-prism</title><g id="_4" data-name="4"><polygon class="cls-1" points="18.2 235.61 38.26 246.13 230.92 128.03 210.86 117.5 18.2 235.61"/><polygon class="cls-2" points="210.86 117.5 230.92 128.03 212.72 10.52 192.66 0 210.86 117.5"/><polygon class="cls-3" points="18.2 235.61 210.86 117.5 192.66 0 0 118.11 18.2 235.61"/></g><polygon class="cls-1" points="18.2 235.61 38.26 246.13 230.92 128.03 210.86 117.5 18.2 235.61"/><polygon class="cls-2" points="210.86 117.5 230.92 128.03 212.72 10.52 192.66 0 210.86 117.5"/><polygon class="cls-4" points="18.2 235.61 38.26 246.13 230.92 128.03 210.86 117.5 18.2 235.61"/><polygon class="cls-4" points="210.86 117.5 230.92 128.03 212.72 10.52 192.66 0 210.86 117.5"/></svg>