<svg id="Layer_1" data-name="Layer 1" xmlns="http://www.w3.org/2000/svg" xmlns:xlink="http://www.w3.org/1999/xlink" viewBox="0 0 370.4 245.5"><defs><style>.cls-1{opacity:0.1;}.cls-2{fill:url(#radial-gradient);}.cls-3{fill:url(#linear-gradient);}.cls-4{fill:url(#linear-gradient-2);}</style><radialGradient id="radial-gradient" cx="-14.62" cy="-162.79" r="151.94" gradientTransform="matrix(0.91, 0.4, -0.4, 0.91, 137.08, 247.65)" gradientUnits="userSpaceOnUse"><stop offset="0" stop-color="#fe0010"/><stop offset="1" stop-color="#bf2424"/></radialGradient><linearGradient id="linear-gradient" x1="-62.56" y1="-96.58" x2="178.34" y2="-96.58" gradientTransform="matrix(0.91, 0.4, -0.4, 0.91, 137.08, 247.65)" xlink:href="#radial-gradient"/><linearGradient id="linear-gradient-2" x1="-191.11" y1="-48.23" x2="-46.08" y2="-48.23" gradientTransform="matrix(0.91, 0.4, -0.4, 0.91, 137.08, 247.65)" xlink:href="#radial-gradient"/></defs><title>rectangular-prism</title><g id="_4" data-name="4"><polygon class="cls-1" points="370.4 119.79 361.98 179.69 87.66 245.5 96.08 185.6 370.4 119.79"/><polygon class="cls-1" points="96.08 185.6 87.66 245.5 0 125.71 8.42 65.81 96.08 185.6"/><polygon class="cls-2" points="370.4 119.79 96.08 185.6 8.42 65.81 282.74 0 370.4 119.79"/></g><polygon class="cls-3" points="370.4 119.79 361.98 179.69 87.66 245.5 96.08 185.6 370.4 119.79"/><polygon class="cls-4" points="96.08 185.6 87.66 245.5 0 125.71 8.42 65.81 96.08 185.6"/><polygon class="cls-1" points="370.4 119.79 361.98 179.69 87.66 245.5 96.08 185.6 370.4 119.79"/><polygon class="cls-1" points="96.08 185.6 87.66 245.5 0 125.71 8.42 65.81 96.08 185.6"/><polygon class="cls-1" points="370.4 119.79 361.98 179.69 87.66 245.5 96.08 185.6 370.4 119.79"/><polygon class="cls-1" points="96.08 185.6 87.66 245.5 0 125.71 8.42 65.81 96.08 185.6"/></svg>