<svg id="Layer_1" data-name="Layer 1" xmlns="http://www.w3.org/2000/svg" xmlns:xlink="http://www.w3.org/1999/xlink" viewBox="0 0 187.29 184.43"><defs><style>.cls-1{fill:#a87c4f;}.cls-2{fill:#8a5d3b;}.cls-3{fill:url(#linear-gradient);}.cls-4{fill:url(#linear-gradient-2);}.cls-5{fill:url(#linear-gradient-3);}.cls-6{fill:url(#linear-gradient-4);}.cls-7{fill:url(#linear-gradient-5);}.cls-8{fill:url(#linear-gradient-6);}.cls-9{fill:url(#linear-gradient-7);}.cls-10{fill:url(#linear-gradient-8);}.cls-11{fill:url(#linear-gradient-9);}.cls-12{fill:url(#linear-gradient-10);}.cls-13{fill:url(#linear-gradient-11);}.cls-14{fill:url(#linear-gradient-12);}.cls-15{fill:url(#linear-gradient-13);}.cls-16{fill:url(#linear-gradient-14);}.cls-17{fill:url(#linear-gradient-15);}.cls-18{fill:url(#linear-gradient-16);}.cls-19{fill:url(#linear-gradient-17);}.cls-20{fill:url(#radial-gradient);}.cls-21{fill:url(#radial-gradient-2);}.cls-22{fill:url(#linear-gradient-18);}.cls-23{fill:url(#linear-gradient-19);}.cls-24{fill:url(#linear-gradient-20);}.cls-25{fill:url(#linear-gradient-21);}.cls-26{fill:url(#linear-gradient-22);}.cls-27{fill:url(#linear-gradient-23);}.cls-28{fill:#221f1f;}.cls-29{fill:#fff;}.cls-30{fill:#ef5e00;}.cls-31{fill:#f76d21;}.cls-32{fill:#db561b;}</style><linearGradient id="linear-gradient" x1="-547.36" y1="0.91" x2="-545.18" y2="11.61" gradientTransform="matrix(-1, 0, 0, 1, -415.29, 0)" gradientUnits="userSpaceOnUse"><stop offset="0" stop-color="#84c241"/><stop offset="0.02" stop-color="#89c441"/><stop offset="0.17" stop-color="#a3cd43"/><stop offset="0.3" stop-color="#b3d345"/><stop offset="0.4" stop-color="#b9d545"/><stop offset="1" stop-color="#456f34"/></linearGradient><linearGradient id="linear-gradient-2" x1="-549.41" y1="35.46" x2="-539.81" y2="37.85" gradientTransform="matrix(-1, 0, 0, 1, -415.29, 0)" gradientUnits="userSpaceOnUse"><stop offset="0" stop-color="#456f34"/><stop offset="0.6" stop-color="#b9d545"/><stop offset="0.7" stop-color="#b3d345"/><stop offset="0.83" stop-color="#a3cd43"/><stop offset="0.98" stop-color="#89c441"/><stop offset="1" stop-color="#84c241"/></linearGradient><linearGradient id="linear-gradient-3" x1="-548.17" y1="38.27" x2="-551.51" y2="53.21" gradientTransform="matrix(-1, 0, 0, 1, -415.29, 0)" gradientUnits="userSpaceOnUse"><stop offset="0" stop-color="#b9d545"/><stop offset="0.24" stop-color="#d5b136"/><stop offset="0.47" stop-color="#ec922a"/><stop offset="0.61" stop-color="#f58725"/><stop offset="1" stop-color="#965624"/></linearGradient><linearGradient id="linear-gradient-4" x1="-487.19" y1="17.13" x2="-479.89" y2="17.13" gradientTransform="matrix(-1, 0, 0, 1, -415.29, 0)" gradientUnits="userSpaceOnUse"><stop offset="0" stop-color="#264b9b"/><stop offset="1" stop-color="#10bef0"/></linearGradient><linearGradient id="linear-gradient-5" x1="-477.68" y1="20.53" x2="-469.85" y2="20.53" xlink:href="#linear-gradient-4"/><linearGradient id="linear-gradient-6" x1="-485.17" y1="18.68" x2="-466.45" y2="16.76" xlink:href="#linear-gradient-2"/><linearGradient id="linear-gradient-7" x1="-551.36" y1="27.24" x2="-549.33" y2="20.08" xlink:href="#linear-gradient-2"/><linearGradient id="linear-gradient-8" x1="-550.77" y1="24.54" x2="-545.02" y2="4.23" xlink:href="#linear-gradient-2"/><linearGradient id="linear-gradient-9" x1="-515.56" y1="44.57" x2="-505.93" y2="10.58" xlink:href="#linear-gradient-2"/><linearGradient id="linear-gradient-10" x1="-505.23" y1="46.52" x2="-503.42" y2="30.09" xlink:href="#linear-gradient-4"/><linearGradient id="linear-gradient-11" x1="-8539.49" y1="43.57" x2="-8516.67" y2="43.57" gradientTransform="translate(8594.57)" xlink:href="#linear-gradient-4"/><linearGradient id="linear-gradient-12" x1="-486.43" y1="67.01" x2="-498.81" y2="72.18" xlink:href="#linear-gradient-3"/><linearGradient id="linear-gradient-13" x1="-487.46" y1="66.77" x2="-497.71" y2="59.67" xlink:href="#linear-gradient-3"/><linearGradient id="linear-gradient-14" x1="-491.37" y1="40.64" x2="-480.54" y2="47.25" xlink:href="#linear-gradient-2"/><linearGradient id="linear-gradient-15" x1="-471.59" y1="55.77" x2="-465.12" y2="66.48" xlink:href="#linear-gradient-2"/><linearGradient id="linear-gradient-16" x1="-475.11" y1="45.94" x2="-471.27" y2="55.85" xlink:href="#linear-gradient-2"/><linearGradient id="linear-gradient-17" x1="-8470.62" y1="13.89" x2="-8453.71" y2="13.89" gradientTransform="translate(8594.57)" xlink:href="#linear-gradient"/><radialGradient id="radial-gradient" cx="-8538.51" cy="13.14" r="7.12" gradientTransform="translate(10614.9 -0.77) scale(1.23 1.01)" gradientUnits="userSpaceOnUse"><stop offset="0" stop-color="#3066af"/><stop offset="0.71" stop-color="#2b60ab"/><stop offset="1" stop-color="#285ca8"/></radialGradient><radialGradient id="radial-gradient-2" cx="-8538.35" cy="13.52" r="6.63" gradientTransform="translate(10614.9 -0.77) scale(1.23 1.01)" gradientUnits="userSpaceOnUse"><stop offset="0" stop-color="#ed4523"/><stop offset="0.13" stop-color="#e74322"/><stop offset="0.3" stop-color="#d73e20"/><stop offset="0.49" stop-color="#bb351d"/><stop offset="0.69" stop-color="#952918"/><stop offset="0.91" stop-color="#651912"/><stop offset="1" stop-color="#4e120f"/></radialGradient><linearGradient id="linear-gradient-18" x1="-507.76" y1="29.2" x2="-510.54" y2="41.88" gradientTransform="matrix(-1, 0, 0, 1, -415.29, 0)" gradientUnits="userSpaceOnUse"><stop offset="0" stop-color="#fbed34"/><stop offset="0.17" stop-color="#e9e739"/><stop offset="0.49" stop-color="#cfdd3f"/><stop offset="0.78" stop-color="#bfd744"/><stop offset="1" stop-color="#b9d545"/></linearGradient><linearGradient id="linear-gradient-19" x1="-8532.91" y1="41.66" x2="-8510.1" y2="41.66" gradientTransform="translate(8594.57)" xlink:href="#linear-gradient-4"/><linearGradient id="linear-gradient-20" x1="-522.98" y1="65.8" x2="-538.72" y2="76.48" xlink:href="#linear-gradient-3"/><linearGradient id="linear-gradient-21" x1="-532.59" y1="39.93" x2="-513.23" y2="34.44" xlink:href="#linear-gradient-2"/><linearGradient id="linear-gradient-22" x1="-524.66" y1="54.63" x2="-513.55" y2="59.35" xlink:href="#linear-gradient-2"/><linearGradient id="linear-gradient-23" x1="-524.2" y1="42.3" x2="-515.14" y2="33.44" xlink:href="#linear-gradient-4"/></defs><title>above-position</title><path class="cls-1" d="M9.79,86.61l4.42,1.29s4.42,1.78,5.21,2.82,30.24-5.49,37.7-6.49S95.4,75.66,95.4,75.66l43.25-7.41c6.26-1.07,36.18-5.26,47.31-6.81l-2-12-5.28,1.23-32.76,3.57L105.84,61l-28,4.8L36.38,77.42,0,83.66l11.77,1Z"/><path class="cls-2" d="M8.12,88.08l4.12,2.57-1.08,2.82L10.6,97l4.32,1.94s16.6-3.27,23.32-4.43S58.3,91.84,63.72,90s25-7.5,31.22-8.57,39.4-6,39.4-6l53-6.06-1.32-8c-11.14,1.55-41.06,5.74-47.31,6.81L95.4,75.66s-30.83,7.58-38.29,8.57-36.92,7.52-37.7,6.49-5.21-2.82-5.21-2.82L9.79,86.61l2-1.91L0,83.66,7.23,87Z"/><path class="cls-2" d="M57.89,75a28.07,28.07,0,0,0-4.95,1.06c-1.51.32-3.31.72-5.28,1.17l-6.52,1.34c-9.28,1.84-16.89,3.21-16.86,3.48S32,81.4,41.43,79.53c2.35-.47,4.58-1,6.6-1.43s3.8-1,5.3-1.39C56.28,75.77,58,75.14,57.89,75Z"/><path class="cls-2" d="M130.48,65.93c0-.18-4.73.28-12.41,1.28s-18.29,2.49-30,5c-22.68,6-41.14,10-41.05,10.4.06.17,4.79-.68,12.37-2.27,3.79-.81,8.28-1.82,13.26-3s10.5-2.7,15.93-4c11.32-2.42,22-4,29.55-5.28S130.47,66.11,130.48,65.93Z"/><path class="cls-2" d="M142.22,60.58c0-.27-10.28.92-23.06,2.67-6.39.83-12.14,1.83-16.31,2.55a48.29,48.29,0,0,0-6.71,1.38,48.36,48.36,0,0,0,6.78-.7c4.17-.54,9.93-1.44,16.27-2.26C131.87,62.48,142.18,60.86,142.22,60.58Z"/><path class="cls-2" d="M180.8,59c0-.36-6.69.31-14.91,1.48S151,62.92,151,63.28s6.69-.31,14.91-1.48S180.81,59.38,180.8,59Z"/><path class="cls-2" d="M177.6,52.69c-.18-.24-5.58.45-12.57,1.27s-12.6,1.7-12.63,2,5.59-.14,12.56-1S177.79,52.93,177.6,52.69Z"/><path class="cls-1" d="M70.8,80.58,73,80.33a10.15,10.15,0,0,1,2.81.28c.53.31,12.3-8,15.4-9.82S106.47,60,106.47,60L124.15,48.7c2.56-1.63,15-9,19.57-11.73l-3.06-4.91-2.1,1.51L124.8,41.2,108.39,51.58,96.93,58.87,80.82,71.63,66,81.09l5.37-1.72Z"/><path class="cls-2" d="M70.33,81.54l2.28.37,0,1.44.4,1.66,2.26.06s6.71-4.51,9.45-6.26,8.33-4.88,10.39-6.67,9.61-7.91,12.17-9.54,16.24-9.92,16.24-9.92l22.19-12.45-2-3.26c-4.62,2.74-17,10.11-19.57,11.73L106.47,60S94.29,69,91.19,70.79s-14.87,10.13-15.4,9.82A10.15,10.15,0,0,0,73,80.33l-2.18.25.52-1.21L66,81.09l3.8.15Z"/><path class="cls-2" d="M89.85,66.6a13.45,13.45,0,0,0-2,1.38l-2.11,1.49-2.63,1.79c-3.75,2.53-6.84,4.53-6.78,4.65a55.2,55.2,0,0,0,7.08-4.29c.95-.64,1.84-1.28,2.64-1.85l2.08-1.59A10.53,10.53,0,0,0,89.85,66.6Z"/><path class="cls-2" d="M120.13,49.19A50.23,50.23,0,0,0,114.9,52c-3.19,1.88-7.59,4.47-12.3,7.74-8.89,6.81-16.27,12-16.16,12.16a53.76,53.76,0,0,0,5-3.28c1.52-1.05,3.31-2.33,5.29-3.75s4.12-3.13,6.29-4.69c4.54-3.16,8.93-5.83,12-7.78S120.16,49.27,120.13,49.19Z"/><path class="cls-2" d="M124.32,44.67c0-.13-4.36,2.3-9.66,5.43-2.66,1.54-5,3-6.71,4.13a23.14,23.14,0,0,0-2.7,1.85,23.14,23.14,0,0,0,2.85-1.56c1.74-1,4.1-2.47,6.74-4C120.11,47.42,124.35,44.8,124.32,44.67Z"/><path class="cls-2" d="M141,36.86c-.07-.15-2.89,1.37-6.29,3.41s-6.11,3.81-6,4,2.89-1.37,6.29-3.41S141.08,37,141,36.86Z"/><path class="cls-2" d="M138.45,34.66a57.52,57.52,0,0,0-5.3,2.88,43.89,43.89,0,0,0-5.2,3.2A36.61,36.61,0,0,0,133.3,38,31.8,31.8,0,0,0,138.45,34.66Z"/><path class="cls-3" d="M138.51,9.85c-2,3.48-7,5-11.22,3.4S121.2,7.52,123.16,4s7-5,11.22-3.39S140.46,6.37,138.51,9.85Z"/><path class="cls-4" d="M130.29,39.36c-1.58-.49-2.93.3-4.38,1a5,5,0,0,0-.69-1.69,13,13,0,0,1-.68-1.87c-.32-.85-.63-1.7-.92-2.56l-.05-.18,6.14-3.51.13.36c.71,2,1.42,4,2.16,6a10.07,10.07,0,0,0,1.29,2.45,5.79,5.79,0,0,0,1.63,1.28l.57.35C133.44,41.61,131.86,40.14,130.29,39.36Z"/><path class="cls-5" d="M117,43.8a3,3,0,0,1,3.64-1,3.08,3.08,0,0,1,.8.45c1.7-.42,3.7-.6,4.38-2a1.57,1.57,0,0,0,.15-.91c1.44-.73,2.8-1.52,4.38-1,1.57.78,3.14,2.24,5.22,1.71,2.4,1.38,5.57,2,8,3.33a17.83,17.83,0,0,1,4.29,3.27c.78.83,2.05,1.83,2.37,2.92a4,4,0,0,1,1.71.24c1.55.59,2.28,2,1.64,3.12s-2.41,1.59-4,1-2.24-1.92-1.68-3a19.78,19.78,0,0,1-2.37-2.69,17.67,17.67,0,0,0-4.61-4c-.61-.35-4.14-2-4.15-.17,0,.52.85,1.16,1.16,1.59A20.24,20.24,0,0,1,139.38,49a12.53,12.53,0,0,1,1.54,4.91,3.72,3.72,0,0,1,.83.2,2.41,2.41,0,0,1,1.56,3.42,3.47,3.47,0,0,1-4.18,1.24,2.42,2.42,0,0,1-1.56-3.42,2.54,2.54,0,0,1,.42-.53c-1.08-1.48-1.2-3.66-1.62-5.21a11.22,11.22,0,0,0-1.77-3.51c-.63-.95-1-1.71-2.23-2.14-1,1.11-1,3-1.07,4.37a12.46,12.46,0,0,1-.35,2.49c1.21.73,1.75,1.89,1.22,2.84-.63,1.12-2.52,1.51-4.23.86s-2.58-2.08-2-3.2a2.81,2.81,0,0,1,2.49-1.16c0-.3,0-.62.07-1,.09-1.29.81-4.45-.54-5.37-.7-.47-1.64-.12-2.33.15a29.14,29.14,0,0,1-2.89.92l-.52.14a1.73,1.73,0,0,1-.21.7,3,3,0,0,1-3.64,1C117,46.18,116.36,44.88,117,43.8Z"/><path class="cls-6" d="M71.9,16.59S68.29,18,64.6,19.76a46.53,46.53,0,0,0,3.18-5.26A16.09,16.09,0,0,1,71.9,16.59Z"/><path class="cls-7" d="M54.55,26s2.05-7.78,7.84-10.92a29.54,29.54,0,0,0-1.88,6.8c-.75.43-1.43.86-2,1.27Z"/><path class="cls-8" d="M64.07,14.33a6.1,6.1,0,0,1,3.71.17,46.53,46.53,0,0,1-3.18,5.26c-1.42.68-2.85,1.4-4.1,2.12a29.54,29.54,0,0,1,1.88-6.8A10.55,10.55,0,0,1,64.07,14.33Z"/><path class="cls-9" d="M139.31,26.13a20.85,20.85,0,0,0-2.82,1.17l-.22,0c-6-1.15-11.94.29-17.9-1.73a17.57,17.57,0,0,1-1.92-.49c12.51,0,25.19-.92,36.54-5.2C149.91,22.68,139.69,26.19,139.31,26.13Z"/><path class="cls-10" d="M114.49,23.51c-.62-6.36,4.23-12,8.51-17.45a81.88,81.88,0,0,1,9.46,1.25,60,60,0,0,1,12.36,1.88c7,1.78,10.3,6.8,8.88,9.74a3.26,3.26,0,0,1-.73.91c-11.34,4.28-24,5.16-36.54,5.2C115.41,24.7,114.49,24.21,114.49,23.51Z"/><path class="cls-11" d="M54.74,28.74A3.7,3.7,0,0,1,54.54,26h0l4-2.85c4-2.85,19.3-9,19.3-9s8.73-3,14.92-2.46,10.94-.2,17.06-4c3-1.83,8.42-2,13.23-1.64-4.28,5.41-9.13,11.09-8.51,17.45,0,1.15,2.46,1.73,3.86,2,6,2,11.94.58,17.9,1.73l.22,0c-1.83.83-4.31,2-6.77,3.3l-6.14,3.51a16.55,16.55,0,0,0-2.12,1.59,71,71,0,0,1-9.2,6.3A67.84,67.84,0,0,0,119,30.42a21,21,0,0,0-3.55.15c.6-.66.15-1.21.53-2-19.23,0-36.49,4-54.69,9-.54-.35-1.09-.72-1.65-1.11A11.74,11.74,0,0,1,54.74,28.74Z"/><path class="cls-12" d="M115.46,30.57c-9.55,1.21-15.59,8.92-21.26,15.16,0-.37-.06-.58-.06-.58-1.74,1.91-14.65-.59-16-.86-8.64-2.32-12.72-4-16.86-6.71,18.2-5,35.08-9,54.31-9C115.23,29.36,116.06,29.91,115.46,30.57Z"/><path class="cls-13" d="M55.08,35.17c.91-2.18,2-3.6,4.22-1.72,7.85,6.36,14.33,13.08,18.61,21.1-3.8-2.24-8.21-3.49-12.18-5.65l1.48.6S56.27,40.57,55.08,35.17Z"/><path class="cls-14" d="M79.35,64.41a40.1,40.1,0,0,1,5.92.84,4.27,4.27,0,0,1,3.83-1.14c2.06.27,3.51,1.55,3.25,2.87s-2.13,2.16-4.18,1.89a3.76,3.76,0,0,1-3.19-2c-2,.38-5.26.62-6.77,1.08-2.42.75-4.29,2-2.86,4.15A4.66,4.66,0,0,1,76,73.49H76c2,.26,3.29,1.7,3,3.24S76.91,79.3,75,79s-3.29-1.71-3-3.24a2.36,2.36,0,0,1,.42-1c-.31-.3-.62-.64-.93-1,.83-3,3.62-5.69,6.74-7.54C78.27,66,79,65.21,79.35,64.41Z"/><path class="cls-15" d="M79.44,63.29c-1.56-1.33-3.47-.87-5.31-.77.68-.35,1.61-.8,2.57-1.18a51,51,0,0,0,5.63-2.78,2.12,2.12,0,0,1,1.76,2.25c-.22,1.11-1.61,1.85-3.11,1.66l-.14,0a5.81,5.81,0,0,1-1.39,1.68A1.32,1.32,0,0,0,79.44,63.29Z"/><path class="cls-16" d="M77.75,54.29c-4.28-7.91-10.7-14.55-18.46-20.84-2.21-1.88-3.3-.46-4.22,1.72a3.48,3.48,0,0,1,0-1.57c.74-3.1,3.65-4.48,6.62-4.24C68.34,37.63,79.42,45.05,84.47,54c.35,1.48.17,2.7-.76,3.5-.47.41-.93.77-1.38,1.11l-1.56.85A6.72,6.72,0,0,0,77.75,54.29Z"/><path class="cls-17" d="M61.13,63.46c3.18-.29,12-.38,12-.38s.41-.23,1-.55c1.84-.1,3.75-.56,5.31.77a1.32,1.32,0,0,1,0,.83l-.34.28.24,0c-.34.8-1.08,1.55-1.15,1.91-3.11,1.85-5.91,4.51-6.74,7.54-1.76-2-3.47-4.62-5-4.83-2.22-.29-8.58,1.27-15.35-5S32.63,50.3,33.28,47a24.53,24.53,0,0,1,8.64,3C43.39,51.25,58.11,63.73,61.13,63.46Z"/><path class="cls-18" d="M46.36,42.06c6.66,1.86,15.82,5.44,19.35,6.85,4,2.15,8.39,3.41,12.18,5.65l-.15-.26a6.72,6.72,0,0,1,3,5.11,30.65,30.65,0,0,1-4.07,1.93c-2.9.63-5.87.06-9.61-1.28C60.41,57.67,41.8,49.9,41.8,49.9l.12.1a24.53,24.53,0,0,0-8.64-3,1.58,1.58,0,0,1,0-.16C34.38,43.59,37.95,39.71,46.36,42.06Z"/><path class="cls-19" d="M140.08,16.8c-2,3.48-7,5-11.22,3.4s-6.09-5.73-4.13-9.21,7-5,11.22-3.39S142,13.31,140.08,16.8Z"/><path class="cls-20" d="M139.68,16.9c-1.78,3.16-6.34,4.55-10.19,3.09s-5.54-5.21-3.76-8.37,6.34-4.54,10.2-3.09S141.46,13.74,139.68,16.9Z"/><path class="cls-21" d="M139.47,17c-1.66,2.95-5.91,4.24-9.51,2.88s-5.16-4.86-3.5-7.8,5.91-4.24,9.5-2.88S141.13,14,139.47,17Z"/><path class="cls-22" d="M71,34.69a64.63,64.63,0,0,0,6.51-1.37c1.36-.35,2.74-.61,4.05-1.06.66-.23,1.32-.26,2-.42s1.47-.44,2.23-.59c2-.39,3.94-.72,6-1,1.25-.17,2.53-.29,3.78-.5s2.35-.67,3.56-1a19.05,19.05,0,0,1,4.55-.5c1.11,0,2.13.28,3.3.18.79-.07,1.56-.42,2.36-.52a38.21,38.21,0,0,1,4.49,0,6.2,6.2,0,0,1,3.22.84c.64.38.94.73.65,1.35a1.86,1.86,0,0,1-1.29,1c-.65.22-.89.14-1.05-.21.15-.59.51-1.35-.06-1.35-1.21-.2-3.08-.67-4.36-.29l-.1,0a3.11,3.11,0,0,0-1,.37c-.26.18-.28.41-.4.67-.24.52-.4,1.08-.65,1.58-.16.33-.92,1.62-1.52,1.4s-.12-1.69-.06-2.06c.12-.77.4-1.31-.81-1.31-1.42,0-2.15,0-2.57,1.25s-.42,2.42-.78,3.61a11.93,11.93,0,0,1-1.14,2.8c-.3.5-1.11,1.67-2,1.58s0-1.19.11-1.5a22.12,22.12,0,0,0,1-2.37,7.48,7.48,0,0,0,.24-2.52,2.51,2.51,0,0,0-1.21-2.47,3.23,3.23,0,0,0-4.22,1c-1.28,1.74-.89,4.28-.5,6.2.28,1.4.62,3.5-.25,4.8a1.62,1.62,0,0,1-1.66.71c-.67-.12-.61-.41-.67-1-.17-1.55,0-3.15-.14-4.71a13.53,13.53,0,0,0-1-4.29c-.44-1-1.16-2-2.59-1.51-2.49.91-2.28,3.54-2.12,5.44.07.77,1.54,6.51.2,6.63-.71.06-1.4-1.05-1.63-1.48-.47-.86-1-1.74-1.37-2.62-.75-1.6-1.16-3.29-2-4.87-.33-.67-1.09-1.26-1.85-.56a2.92,2.92,0,0,0-.69,1.91c-.08,1.2,0,2.43,0,3.63,0,.5.07,1.68-.51,2s-.91-.25-1.19-.66a24.29,24.29,0,0,1-1.45-2.26,16,16,0,0,0-.68-1.59c-1.06-1.55-3.53-.86-5.24-.78-.61,0-1.56,0-1.72-.67S70.36,34.78,71,34.69Z"/><path class="cls-23" d="M61.66,29.36a8.21,8.21,0,0,1,5,2.22s16,14.7,17.78,22.37C79.42,45.05,68.34,37.63,61.66,29.36Z"/><path class="cls-24" d="M113.44,67.9c1.22-.75-.46-2.58-.71-4.37l.81.46a41.84,41.84,0,0,1,2.88-3.47,1.6,1.6,0,0,1-.12-1.75,2.68,2.68,0,0,1,3.24-.91,1.87,1.87,0,0,1,1.27,2.62,2.57,2.57,0,0,1-2.68,1.06,40.81,40.81,0,0,1-3.5,4.71s9.4-1.65,12.46-.4a5.06,5.06,0,0,1,.63.31,3.66,3.66,0,0,1,2.51,0c1.49.56,2.18,1.93,1.55,3.05a3.17,3.17,0,0,1-3.83,1,2.41,2.41,0,0,1-1.76-2.35c-3.41-1.86-11.06,1-11.06,1,7.13,1.17,9.1,5.38,10.37,7.5l0,.09a2.73,2.73,0,0,1,.91.17,1.8,1.8,0,0,1,1.14,2.57,2.59,2.59,0,0,1-3.12,1,1.8,1.8,0,0,1-1.14-2.57,2,2,0,0,1,.48-.55c-.07-.38-.43-1.3-2-3.52-2.37-3.32-9.19-2.71-9.19-2.71s.79,4.45.08,7a4.69,4.69,0,0,1-.62,1.32,1.91,1.91,0,0,1,.61,2.44,3.1,3.1,0,0,1-3.75,1c-1.46-.55-2.14-1.88-1.53-3a3,3,0,0,1,3.37-1.08l0,0c2.06-3.66-.93-9.24-.93-9.24s-.63-.49-1.69-1.35C110.11,68.21,112.07,68.6,113.44,67.9Z"/><path class="cls-25" d="M98.33,44.31l.72-.62c6.09-4.74,13.94-7.56,18.46-13.28.49,0,1,0,1.5,0A67.84,67.84,0,0,1,112.26,42c-3.46,2.1-6.48,3.8-6.48,3.8l.23.94A11.81,11.81,0,0,0,98.33,44.31Z"/><path class="cls-26" d="M106,46.73c.77,3.17,3.23,13.27,3.5,14.19.23.76,2.11,2,3.22,2.61.24,1.79,1.92,3.62.71,4.37-1.37.7-3.33.31-5.26,0-1.76-1.42-4.7-3.87-7.94-6.84s-4.89-8.72-5.59-12.4a19.41,19.41,0,0,1,3.68-4.37A11.81,11.81,0,0,1,106,46.73Z"/><path class="cls-27" d="M117.51,30.41C113,36.13,105.14,38.95,99,43.69a19.85,19.85,0,0,0-4.39,5c-.25-1.3-.39-2.35-.45-3C100.27,39,106.75,30.69,117.51,30.41Z"/><path class="cls-28" d="M135,17.63l-1.73-7.4A9.59,9.59,0,0,1,135,17.63Z"/><ellipse class="cls-29" cx="130.86" cy="12.01" rx="0.79" ry="0.65"/><path class="cls-29" d="M123.58,7.95h-.73c-.48,0-1.18,0-2.07.06s-2,.12-3.2.27a35.05,35.05,0,0,0-4.11.71,18.19,18.19,0,0,0-4.61,1.67l-.57.33-.53.31-.52.25c-.19.07-.37.16-.57.22a14.58,14.58,0,0,1-2.55.62,57.42,57.42,0,0,1-5.75.46c-2,.1-4,.19-6.08.4a41.36,41.36,0,0,0-6,1.05,26.53,26.53,0,0,0-2.84.89l-2.63,1c-1.73.65-3.39,1.29-5,1.9s-3.07,1.19-4.44,1.73l-2,.78-1.76.73-2.85,1.2L63,23.28l-.65.28.68-.22,1.91-.63,3-1,1.81-.62,2-.68c1.41-.47,2.93-1,4.54-1.55s3.3-1.14,5-1.76L84,16.15c.88-.3,1.78-.58,2.71-.81a40.15,40.15,0,0,1,5.81-1c2-.21,4-.32,6-.43a51.37,51.37,0,0,0,5.9-.57,14.5,14.5,0,0,0,2.79-.75c.22-.08.43-.19.64-.28s.43-.22.63-.33l.54-.35.5-.31a18.26,18.26,0,0,1,4.25-1.74c1.42-.4,2.75-.69,4-.91s2.26-.37,3.13-.47,1.57-.18,2-.22Z"/><polygon class="cls-30" points="83.8 184.43 101.91 165.37 101.91 98.4 82.99 117.75 82.66 179.44 83.8 184.43"/><polygon class="cls-31" points="16.45 117.39 38.86 98.4 101.91 98.4 83.28 117.99 16.45 117.39"/><rect class="cls-32" x="16.45" y="117.39" width="67.35" height="67.03" transform="translate(100.25 301.82) rotate(-180)"/></svg>