<svg id="Layer_1" data-name="Layer 1" xmlns="http://www.w3.org/2000/svg" xmlns:xlink="http://www.w3.org/1999/xlink" viewBox="0 0 184.8 175"><defs><style>.cls-1{fill:url(#linear-gradient);}.cls-2{fill:url(#linear-gradient-2);}.cls-3{fill:url(#linear-gradient-3);}.cls-4{fill:url(#linear-gradient-4);}.cls-5{fill:url(#linear-gradient-5);}.cls-6{fill:url(#linear-gradient-6);}.cls-7{fill:url(#linear-gradient-7);}.cls-8{fill:url(#linear-gradient-8);}.cls-9{fill:url(#linear-gradient-9);}.cls-10{fill:url(#linear-gradient-10);}.cls-11{fill:url(#linear-gradient-11);}.cls-12{fill:url(#linear-gradient-12);}.cls-13{fill:url(#linear-gradient-13);}.cls-14{fill:url(#linear-gradient-14);}.cls-15{fill:url(#linear-gradient-15);}.cls-16{fill:url(#linear-gradient-16);}.cls-17{fill:url(#linear-gradient-17);}.cls-18{fill:url(#radial-gradient);}.cls-19{fill:url(#radial-gradient-2);}.cls-20{fill:url(#linear-gradient-18);}.cls-21{fill:url(#linear-gradient-19);}.cls-22{fill:url(#linear-gradient-20);}.cls-23{fill:url(#linear-gradient-21);}.cls-24{fill:url(#linear-gradient-22);}.cls-25{fill:url(#linear-gradient-23);}.cls-26{fill:#221f1f;}.cls-27{fill:#fff;}.cls-28{fill:#ee4a83;}.cls-29{fill:#ef65a4;}.cls-30{fill:#d61d52;}</style><linearGradient id="linear-gradient" x1="-1825.03" y1="365.31" x2="-1823.44" y2="357.54" gradientTransform="matrix(-0.95, -0.3, 0.3, -0.95, -1670.32, -182.01)" gradientUnits="userSpaceOnUse"><stop offset="0" stop-color="#84c241"/><stop offset="0.02" stop-color="#89c441"/><stop offset="0.17" stop-color="#a3cd43"/><stop offset="0.3" stop-color="#b3d345"/><stop offset="0.4" stop-color="#b9d545"/><stop offset="1" stop-color="#456f34"/></linearGradient><linearGradient id="linear-gradient-2" x1="-1824.61" y1="339.49" x2="-1817.58" y2="337.74" gradientTransform="matrix(-0.95, -0.3, 0.3, -0.95, -1670.32, -182.01)" gradientUnits="userSpaceOnUse"><stop offset="0" stop-color="#456f34"/><stop offset="0.6" stop-color="#b9d545"/><stop offset="0.7" stop-color="#b3d345"/><stop offset="0.83" stop-color="#a3cd43"/><stop offset="0.98" stop-color="#89c441"/><stop offset="1" stop-color="#84c241"/></linearGradient><linearGradient id="linear-gradient-3" x1="-1825.29" y1="339.07" x2="-1827.72" y2="328.21" gradientTransform="matrix(-0.95, -0.3, 0.3, -0.95, -1670.32, -182.01)" gradientUnits="userSpaceOnUse"><stop offset="0" stop-color="#b9d545"/><stop offset="0.24" stop-color="#d5b136"/><stop offset="0.47" stop-color="#ec922a"/><stop offset="0.61" stop-color="#f58725"/><stop offset="1" stop-color="#965624"/></linearGradient><linearGradient id="linear-gradient-4" x1="-1778.85" y1="353.38" x2="-1773.52" y2="353.38" gradientTransform="matrix(-0.95, -0.3, 0.3, -0.95, -1670.32, -182.01)" gradientUnits="userSpaceOnUse"><stop offset="0" stop-color="#264b9b"/><stop offset="1" stop-color="#10bef0"/></linearGradient><linearGradient id="linear-gradient-5" x1="-1771.9" y1="350.92" x2="-1766.17" y2="350.92" xlink:href="#linear-gradient-4"/><linearGradient id="linear-gradient-6" x1="-1777.33" y1="352.47" x2="-1763.65" y2="353.87" xlink:href="#linear-gradient-2"/><linearGradient id="linear-gradient-7" x1="-1827.57" y1="347.17" x2="-1826.09" y2="352.39" xlink:href="#linear-gradient-2"/><linearGradient id="linear-gradient-8" x1="-1827.15" y1="349.11" x2="-1822.96" y2="363.88" xlink:href="#linear-gradient-2"/><linearGradient id="linear-gradient-9" x1="-1801.29" y1="334.53" x2="-1794.29" y2="359.24" xlink:href="#linear-gradient-2"/><linearGradient id="linear-gradient-10" x1="-1793.98" y1="332.85" x2="-1792.67" y2="344.79" xlink:href="#linear-gradient-4"/><linearGradient id="linear-gradient-11" x1="-8424.1" y1="345.76" x2="-8407.42" y2="345.76" gradientTransform="matrix(0.95, 0.3, 0.3, -0.95, 8039.58, 2896.45)" xlink:href="#linear-gradient-4"/><linearGradient id="linear-gradient-12" x1="-1778.31" y1="317.83" x2="-1787.36" y2="314.06" xlink:href="#linear-gradient-3"/><linearGradient id="linear-gradient-13" x1="-1780.02" y1="316.51" x2="-1787.5" y2="321.68" xlink:href="#linear-gradient-3"/><linearGradient id="linear-gradient-14" x1="-1782.76" y1="335.56" x2="-1774.82" y2="330.71" xlink:href="#linear-gradient-2"/><linearGradient id="linear-gradient-15" x1="-1769.2" y1="324.91" x2="-1764.47" y2="317.09" xlink:href="#linear-gradient-2"/><linearGradient id="linear-gradient-16" x1="-1771.99" y1="332.3" x2="-1769.19" y2="325.07" xlink:href="#linear-gradient-2"/><linearGradient id="linear-gradient-17" x1="-8373.78" y1="367.34" x2="-8361.42" y2="367.34" gradientTransform="matrix(0.95, 0.3, 0.3, -0.95, 8039.58, 2896.45)" xlink:href="#linear-gradient"/><radialGradient id="radial-gradient" cx="-8572.92" cy="357.63" r="5.21" gradientTransform="matrix(1.17, 0.37, 0.3, -0.95, 10078.21, 3543.25)" gradientUnits="userSpaceOnUse"><stop offset="0" stop-color="#3066af"/><stop offset="0.71" stop-color="#2b60ab"/><stop offset="1" stop-color="#285ca8"/></radialGradient><radialGradient id="radial-gradient-2" cx="-8572.81" cy="357.35" r="4.85" gradientTransform="matrix(1.17, 0.37, 0.3, -0.95, 10078.21, 3543.25)" gradientUnits="userSpaceOnUse"><stop offset="0" stop-color="#ed4523"/><stop offset="0.13" stop-color="#e74322"/><stop offset="0.3" stop-color="#d73e20"/><stop offset="0.49" stop-color="#bb351d"/><stop offset="0.69" stop-color="#952918"/><stop offset="0.91" stop-color="#651912"/><stop offset="1" stop-color="#4e120f"/></radialGradient><linearGradient id="linear-gradient-18" x1="-1795.73" y1="345.63" x2="-1797.75" y2="336.42" gradientTransform="matrix(-0.95, -0.3, 0.3, -0.95, -1670.32, -182.01)" gradientUnits="userSpaceOnUse"><stop offset="0" stop-color="#fbed34"/><stop offset="0.17" stop-color="#e9e739"/><stop offset="0.49" stop-color="#cfdd3f"/><stop offset="0.78" stop-color="#bfd744"/><stop offset="1" stop-color="#b9d545"/></linearGradient><linearGradient id="linear-gradient-19" x1="-8419.29" y1="347.16" x2="-8402.62" y2="347.16" gradientTransform="matrix(0.95, 0.3, 0.3, -0.95, 8039.58, 2896.45)" xlink:href="#linear-gradient-4"/><linearGradient id="linear-gradient-20" x1="-1805.29" y1="319.07" x2="-1816.77" y2="311.28" xlink:href="#linear-gradient-3"/><linearGradient id="linear-gradient-21" x1="-1812" y1="337.33" x2="-1797.83" y2="341.35" xlink:href="#linear-gradient-2"/><linearGradient id="linear-gradient-22" x1="-1806.8" y1="325.36" x2="-1798.69" y2="321.92" xlink:href="#linear-gradient-2"/><linearGradient id="linear-gradient-23" x1="-1806.58" y1="336.36" x2="-1799.93" y2="342.86" xlink:href="#linear-gradient-4"/></defs><title>behind-position</title><path class="cls-1" d="M175.51,26.22c-2.13,2-6,1.92-8.56-.13s-3-5.31-.86-7.29,6-1.92,8.56.13S177.64,24.24,175.51,26.22Z"/><path class="cls-2" d="M163.31,44.83c-1-.68-2.11-.44-3.28-.25a3.6,3.6,0,0,0-.11-1.32,9.37,9.37,0,0,1-.06-1.44c0-.66-.07-1.31-.08-2v-.13l5-1.07v.28c.06,1.55.11,3.1.18,4.66a7.3,7.3,0,0,0,.36,2,4.22,4.22,0,0,0,.86,1.25l.32.37C165,47.08,164.23,45.71,163.31,44.83Z"/><path class="cls-3" d="M153,45a2.21,2.21,0,0,1,2.75.13,2.25,2.25,0,0,1,.46.49c1.27.08,2.71.4,3.48-.4a1.13,1.13,0,0,0,.3-.6c1.17-.19,2.28-.43,3.28.25.92.88,1.7,2.25,3.26,2.34,1.37,1.49,3.45,2.59,4.84,4.07a13,13,0,0,1,2.27,3.21,6.63,6.63,0,0,1,1,2.54,2.92,2.92,0,0,1,1.14.54c.95.75,1.15,1.88.46,2.52a2.4,2.4,0,0,1-3-.18,1.67,1.67,0,0,1-.5-2.48,14.39,14.39,0,0,1-1-2.43,12.89,12.89,0,0,0-2.33-3.79c-.35-.38-2.45-2.3-2.85-1-.12.36.34,1,.46,1.35a14.68,14.68,0,0,1,.5,2,9.06,9.06,0,0,1,0,3.74,2.73,2.73,0,0,1,.53.32,1.75,1.75,0,0,1,.34,2.71,2.54,2.54,0,0,1-3.19-.07,1.75,1.75,0,0,1-.34-2.71,1.84,1.84,0,0,1,.41-.28c-.43-1.26,0-2.8,0-4a8.13,8.13,0,0,0-.47-2.82,3,3,0,0,0-1.09-2c-.92.55-1.34,1.9-1.7,2.79a9,9,0,0,1-.79,1.65c.68.77.8,1.7.23,2.23s-2.09.48-3.14-.34-1.34-2-.66-2.65a2.06,2.06,0,0,1,2-.25l.26-.65c.34-.88,1.54-2.9.8-3.83-.38-.48-1.11-.44-1.66-.41a21.39,21.39,0,0,1-2.21,0h-.39a1.25,1.25,0,0,1-.3.44,2.21,2.21,0,0,1-2.75-.13A1.52,1.52,0,0,1,153,45Z"/><path class="cls-4" d="M127.64,16.17s-2.82.18-5.78.58a33.75,33.75,0,0,0,3.37-2.94A11.78,11.78,0,0,1,127.64,16.17Z"/><path class="cls-5" d="M113.49,18.84s3.14-4.93,7.86-5.83a21.35,21.35,0,0,0-2.81,4.29,15.34,15.34,0,0,0-1.67.44Z"/><path class="cls-6" d="M122.68,12.87a4.48,4.48,0,0,1,2.55.94,33.75,33.75,0,0,1-3.37,2.94c-1.14.15-2.29.34-3.32.56A21.35,21.35,0,0,1,121.35,13,7.73,7.73,0,0,1,122.68,12.87Z"/><path class="cls-7" d="M172.49,37.66a15.29,15.29,0,0,0-2.22.18l-.15-.07c-3.9-2.12-8.38-2.44-12.09-5.15a12.9,12.9,0,0,1-1.23-.76c8.72,2.73,17.75,4.93,26.59,4.47C180.64,37.62,172.75,37.79,172.49,37.66Z"/><path class="cls-8" d="M155.79,30.37c1-4.54,5.59-7.4,9.76-10.2a60.17,60.17,0,0,1,6.31,3,44.07,44.07,0,0,1,8.19,4c4.48,2.78,5.68,7,4,8.7a2.37,2.37,0,0,1-.71.47c-8.84.46-17.87-1.74-26.59-4.47C156.16,31.39,155.63,30.85,155.79,30.37Z"/><path class="cls-9" d="M113,20.79a2.67,2.67,0,0,1,.47-2h0l3.38-1.1c3.38-1.1,15.42-2,15.42-2s6.73-.13,10.93,1.59a18.5,18.5,0,0,0,12.75,1c2.47-.61,6.3.49,9.57,1.79-4.17,2.8-8.8,5.66-9.76,10.2-.25.8,1.33,1.74,2.25,2.25,3.71,2.71,8.19,3,12.09,5.15l.15.07c-1.45.17-3.44.45-5.44.79l-5,1.07a12.09,12.09,0,0,0-1.82.63,51.89,51.89,0,0,1-7.79,2.33,49.2,49.2,0,0,0,7.24-6.52,15.47,15.47,0,0,0-2.51-.68c.56-.32.37-.8.81-1.26-13.39-4.25-26.28-5.31-40.07-5.85-.3-.36-.6-.74-.9-1.13A8.52,8.52,0,0,1,113,20.79Z"/><path class="cls-10" d="M154.91,35.46c-6.92-1.27-12.81,2.73-18.13,5.8.05-.26.09-.41.09-.41-1.63.93-10.07-3.65-10.94-4.12-5.51-3.51-8-5.6-10.27-8.37,13.78.53,26.41,1.52,39.8,5.76C155,34.58,155.47,35.14,154.91,35.46Z"/><path class="cls-11" d="M111.84,25.31c1.11-1.31,2.19-2,3.31-.26,4.07,6.14,7.11,12.22,8.33,18.72-2.15-2.39-5-4.23-7.25-6.6l.9.74S111.49,29.31,111.84,25.31Z"/><path class="cls-12" d="M122.33,50.92a29.47,29.47,0,0,1,3.94,1.89,3.14,3.14,0,0,1,2.92,0c1.37.64,2.1,1.85,1.64,2.71s-2,1-3.33.39a2.75,2.75,0,0,1-1.77-2.11c-1.5-.19-3.8-.74-5-.75-1.85,0-3.43.45-2.91,2.24a3.38,3.38,0,0,1,.12,1.12H118c1.3.61,1.92,1.91,1.37,2.9a2.56,2.56,0,0,1-3.34.7c-1.3-.61-1.92-1.91-1.37-2.9a1.71,1.71,0,0,1,.5-.57c-.15-.28-.29-.58-.43-.89,1.24-1.92,3.77-3.14,6.35-3.73C121.23,51.75,121.92,51.39,122.33,50.92Z"/><path class="cls-13" d="M122.64,50.15c-.8-1.26-2.23-1.37-3.53-1.7.55-.09,1.29-.2,2-.25a37.34,37.34,0,0,0,4.53-.68,1.54,1.54,0,0,1,.73,1.94,2,2,0,0,1-2.53.46l-.09,0a4.22,4.22,0,0,1-1.33.86A1,1,0,0,0,122.64,50.15Z"/><path class="cls-14" d="M123.44,43.56c-1.24-6.42-4.26-12.43-8.28-18.51-1.13-1.79-2.2-1-3.31.26a2.51,2.51,0,0,1,.32-1.09c1.2-2,3.52-2.29,5.54-1.47,2.84,7.2,8.93,14.79,10.49,22.06a2.4,2.4,0,0,1-1.3,2.26c-.42.18-.82.33-1.21.46l-1.27.24A4.87,4.87,0,0,0,123.44,43.56Z"/><path class="cls-15" d="M109.85,46.23c2.28.5,8.42,2.38,8.42,2.38l.84-.15c1.3.34,2.73.44,3.53,1.7a1,1,0,0,1-.17.58l-.3.12.16.06c-.41.48-1.09.84-1.22,1.07-2.57.59-5.1,1.82-6.35,3.73-.78-1.79-1.4-4-2.45-4.46-1.48-.69-6.25-1-9.59-6.88s-9.83-13.55-8.65-15.71a18,18,0,0,1,5.35,4C100.18,33.86,107.69,45.75,109.85,46.23Z"/><path class="cls-16" d="M104.26,28.15c4.23,2.76,9.82,7.26,12,9,2.29,2.37,5.09,4.21,7.25,6.6v-.21a4.87,4.87,0,0,1,1,4.21,22.46,22.46,0,0,1-3.26.44c-2.16-.21-4.1-1.25-6.42-3-4.12-3.13-15.38-12.62-15.38-12.62l.06.1a18,18,0,0,0-5.35-4l.05-.1C95.58,26.57,98.92,24.67,104.26,28.15Z"/><path class="cls-17" d="M175.08,31.37c-2.13,2-6,1.92-8.56-.13s-3-5.31-.86-7.29,6-1.92,8.56.13S177.21,29.39,175.08,31.37Z"/><path class="cls-18" d="M174.78,31.36c-1.93,1.8-5.41,1.75-7.78-.12s-2.71-4.83-.78-6.63,5.42-1.74,7.78.12S176.72,29.56,174.78,31.36Z"/><path class="cls-19" d="M174.62,31.37c-1.8,1.68-5,1.63-7.25-.11s-2.53-4.5-.72-6.18,5-1.63,7.25.11S176.42,29.69,174.62,31.37Z"/><path class="cls-20" d="M123,28.48a47.48,47.48,0,0,0,4.83.49c1,.06,2,.18,3.05.16.51,0,1,.11,1.49.15s1.12,0,1.68.09c1.48.17,2.9.37,4.38.63.91.16,1.83.36,2.74.49s1.78.06,2.7.11a14,14,0,0,1,3.28.66,24.06,24.06,0,0,0,2.26.85c.57.13,1.18,0,1.76.16a28.09,28.09,0,0,1,3.12,1,4.56,4.56,0,0,1,2.06,1.29c.36.41.49.71.15,1.07a1.36,1.36,0,0,1-1.11.38c-.5,0-.65-.1-.69-.38.24-.38.65-.82.26-1a8.08,8.08,0,0,0-3-1.16h-.06a2.28,2.28,0,0,0-.76,0c-.22.07-.29.22-.43.37-.28.31-.51.66-.8,1s-1,.92-1.37.63.29-1.19.41-1.44c.25-.5.57-.82-.28-1.08s-1.5-.47-2.06.3-.82,1.58-1.33,2.32a8.63,8.63,0,0,1-1.41,1.68c-.32.28-1.14.91-1.75.65s.23-.83.41-1a16,16,0,0,0,1.21-1.42,5.4,5.4,0,0,0,.72-1.69,1.82,1.82,0,0,0-.3-2,2.37,2.37,0,0,0-3.17-.21c-1.27.92-1.56,2.77-1.71,4.18-.11,1-.34,2.56-1.23,3.27a1.19,1.19,0,0,1-1.31.12c-.44-.23-.33-.42-.25-.82.22-1.11.69-2.18.94-3.29a9.78,9.78,0,0,0,.25-3.19c-.09-.78-.36-1.66-1.47-1.62-1.93.08-2.37,2-2.67,3.29-.12.55-.36,4.85-1.32,4.63-.51-.12-.74-1-.81-1.39-.14-.7-.29-1.42-.38-2.12-.17-1.28-.09-2.54-.29-3.81-.09-.54-.48-1.11-1.16-.8a2.11,2.11,0,0,0-.9,1.17c-.32.81-.54,1.68-.8,2.51-.11.34-.32,1.18-.8,1.3s-.58-.38-.69-.72a17.63,17.63,0,0,1-.51-1.88,11.58,11.58,0,0,0-.12-1.25c-.39-1.31-2.27-1.37-3.48-1.7-.43-.12-1.08-.36-1-.85S122.58,28.42,123,28.48Z"/><path class="cls-21" d="M117.7,22.74a6,6,0,0,1,3,2.65s7.9,13.71,7.47,19.41C126.63,37.53,120.55,30,117.7,22.74Z"/><path class="cls-22" d="M145.31,60.86c1-.25.24-1.89.47-3.18l.47.5A30.43,30.43,0,0,1,149,56.42a1.16,1.16,0,0,1,.3-1.24,2,2,0,0,1,2.46.09,1.36,1.36,0,0,1,.31,2.09,1.88,1.88,0,0,1-2.1.14,29.66,29.66,0,0,1-3.46,2.5s6.91.93,8.77,2.48a3.71,3.71,0,0,1,.37.35,2.69,2.69,0,0,1,1.74.58,1.6,1.6,0,0,1,.41,2.45,2.32,2.32,0,0,1-2.89-.15,1.75,1.75,0,0,1-.71-2c-2-2-7.93-1.73-7.93-1.73a9.56,9.56,0,0,1,5.58,7.49v.08a2,2,0,0,1,.6.32,1.31,1.31,0,0,1,.23,2,1.9,1.9,0,0,1-2.38,0,1.31,1.31,0,0,1-.23-2,1.42,1.42,0,0,1,.46-.28,8,8,0,0,0-.63-2.88c-.92-2.82-5.8-3.9-5.8-3.9a14.73,14.73,0,0,1-1.48,4.85,3.39,3.39,0,0,1-.72.78,1.38,1.38,0,0,1-.11,1.83,2.27,2.27,0,0,1-2.82-.16,1.57,1.57,0,0,1-.41-2.39,2.2,2.2,0,0,1,2.59,0h0c2.24-2.08,1.38-6.6,1.38-6.6s-.33-.48-.88-1.31C142.92,60.34,144.2,61,145.31,60.86Z"/><path class="cls-23" d="M140,41.19l.63-.27c5.28-1.93,11.37-2.15,15.78-5.11a9,9,0,0,1,1,.34,49.2,49.2,0,0,1-7.24,6.52c-2.87.69-5.35,1.2-5.35,1.2v.7A8.67,8.67,0,0,0,140,41.19Z"/><path class="cls-24" d="M144.78,44.57c-.16,2.36-.67,9.9-.68,10.6s1,1.82,1.67,2.52c-.22,1.29.55,2.93-.47,3.18s-2.39-.52-3.67-1.15c-.91-1.37-2.42-3.72-4-6.49s-1.5-7.11-1.17-9.82A14.11,14.11,0,0,1,140,41.19,8.67,8.67,0,0,1,144.78,44.57Z"/><path class="cls-25" d="M156.37,35.81c-4.41,3-10.49,3.18-15.78,5.11a14.44,14.44,0,0,0-4.16,2.48c.11-1,.25-1.71.33-2.15C142.47,38,148.82,33.63,156.37,35.81Z"/><path class="cls-26" d="M171.35,30.82l.42-5.51A6.93,6.93,0,0,1,171.35,30.82Z"/><ellipse class="cls-27" cx="169.72" cy="26.03" rx="0.47" ry="0.58" transform="translate(93.58 179.93) rotate(-72.4)"/><path class="cls-27" d="M165.53,21.6l-.51-.16c-.33-.1-.82-.25-1.45-.42s-1.4-.35-2.29-.52a25.76,25.76,0,0,0-3-.42,13.34,13.34,0,0,0-3.58.14l-.47.1-.43.1-.42.06h-.45a10.71,10.71,0,0,1-1.91-.14,32.51,32.51,0,0,1-4.1-1c-1.41-.41-2.85-.76-4.32-1.07a30.39,30.39,0,0,0-4.43-.6,19.48,19.48,0,0,0-2.17,0l-2.05.11c-1.35.06-2.65.14-3.88.22l-3.47.21-1.54.1-1.39.12-2.25.2-1.45.14-.51,0h7.25l3.5-.07,3.9-.1,2.06-.06h2.07a29.5,29.5,0,0,1,4.26.61c1.43.29,2.85.66,4.26,1a37.76,37.76,0,0,0,4.24.91,10.65,10.65,0,0,0,2.1.1,1.77,1.77,0,0,0,.51,0l.51-.09.45-.12.41-.1a13.39,13.39,0,0,1,3.34-.27,23,23,0,0,1,3,.25c.93.12,1.65.24,2.29.37l1.47.3Z"/><polygon class="cls-28" points="28.84 137.02 0 106.67 0 0 30.13 30.83 30.66 129.08 28.84 137.02"/><polygon class="cls-29" points="136.11 30.26 100.42 0 0 0 29.68 31.2 136.11 30.26"/><rect class="cls-30" x="28.85" y="30.26" width="107.27" height="106.76"/></svg>