<svg id="Layer_1" data-name="Layer 1" xmlns="http://www.w3.org/2000/svg" xmlns:xlink="http://www.w3.org/1999/xlink" viewBox="0 0 187.29 182.68"><defs><style>.cls-1{fill:#a87c4f;}.cls-2{fill:#8a5d3b;}.cls-3{fill:url(#linear-gradient);}.cls-4{fill:url(#linear-gradient-2);}.cls-5{fill:url(#linear-gradient-3);}.cls-6{fill:url(#linear-gradient-4);}.cls-7{fill:url(#linear-gradient-5);}.cls-8{fill:url(#linear-gradient-6);}.cls-9{fill:url(#linear-gradient-7);}.cls-10{fill:url(#linear-gradient-8);}.cls-11{fill:url(#linear-gradient-9);}.cls-12{fill:url(#linear-gradient-10);}.cls-13{fill:url(#linear-gradient-11);}.cls-14{fill:url(#linear-gradient-12);}.cls-15{fill:url(#linear-gradient-13);}.cls-16{fill:url(#linear-gradient-14);}.cls-17{fill:url(#linear-gradient-15);}.cls-18{fill:url(#linear-gradient-16);}.cls-19{fill:url(#linear-gradient-17);}.cls-20{fill:url(#radial-gradient);}.cls-21{fill:url(#radial-gradient-2);}.cls-22{fill:url(#linear-gradient-18);}.cls-23{fill:url(#linear-gradient-19);}.cls-24{fill:url(#linear-gradient-20);}.cls-25{fill:url(#linear-gradient-21);}.cls-26{fill:url(#linear-gradient-22);}.cls-27{fill:url(#linear-gradient-23);}.cls-28{fill:#221f1f;}.cls-29{fill:#fff;}.cls-30{fill:#ef5e00;}.cls-31{fill:#f76d21;}.cls-32{fill:#db561b;}</style><linearGradient id="linear-gradient" x1="-805.62" y1="84.65" x2="-803.43" y2="95.34" gradientTransform="translate(860.84)" gradientUnits="userSpaceOnUse"><stop offset="0" stop-color="#84c241"/><stop offset="0.02" stop-color="#89c441"/><stop offset="0.17" stop-color="#a3cd43"/><stop offset="0.3" stop-color="#b3d345"/><stop offset="0.4" stop-color="#b9d545"/><stop offset="1" stop-color="#456f34"/></linearGradient><linearGradient id="linear-gradient-2" x1="-807.67" y1="119.19" x2="-798.07" y2="121.58" gradientTransform="translate(860.84)" gradientUnits="userSpaceOnUse"><stop offset="0" stop-color="#456f34"/><stop offset="0.6" stop-color="#b9d545"/><stop offset="0.7" stop-color="#b3d345"/><stop offset="0.83" stop-color="#a3cd43"/><stop offset="0.98" stop-color="#89c441"/><stop offset="1" stop-color="#84c241"/></linearGradient><linearGradient id="linear-gradient-3" x1="-806.42" y1="122" x2="-809.77" y2="136.94" gradientTransform="translate(860.84)" gradientUnits="userSpaceOnUse"><stop offset="0" stop-color="#b9d545"/><stop offset="0.24" stop-color="#d5b136"/><stop offset="0.47" stop-color="#ec922a"/><stop offset="0.61" stop-color="#f58725"/><stop offset="1" stop-color="#965624"/></linearGradient><linearGradient id="linear-gradient-4" x1="-745.45" y1="100.86" x2="-738.15" y2="100.86" gradientTransform="translate(860.84)" gradientUnits="userSpaceOnUse"><stop offset="0" stop-color="#264b9b"/><stop offset="1" stop-color="#10bef0"/></linearGradient><linearGradient id="linear-gradient-5" x1="-735.94" y1="104.26" x2="-728.1" y2="104.26" xlink:href="#linear-gradient-4"/><linearGradient id="linear-gradient-6" x1="-743.43" y1="102.41" x2="-724.71" y2="100.49" xlink:href="#linear-gradient-2"/><linearGradient id="linear-gradient-7" x1="-809.62" y1="110.97" x2="-807.59" y2="103.81" xlink:href="#linear-gradient-2"/><linearGradient id="linear-gradient-8" x1="-809.03" y1="108.27" x2="-803.28" y2="87.97" xlink:href="#linear-gradient-2"/><linearGradient id="linear-gradient-9" x1="-773.82" y1="128.3" x2="-764.19" y2="94.32" xlink:href="#linear-gradient-2"/><linearGradient id="linear-gradient-10" x1="-763.48" y1="130.25" x2="-761.68" y2="113.82" xlink:href="#linear-gradient-4"/><linearGradient id="linear-gradient-11" x1="-8281.39" y1="127.3" x2="-8258.56" y2="127.3" gradientTransform="matrix(-1, 0, 0, 1, -8149.18, 0)" xlink:href="#linear-gradient-4"/><linearGradient id="linear-gradient-12" x1="-744.69" y1="150.74" x2="-757.07" y2="155.91" xlink:href="#linear-gradient-3"/><linearGradient id="linear-gradient-13" x1="-745.72" y1="150.5" x2="-755.97" y2="143.41" xlink:href="#linear-gradient-3"/><linearGradient id="linear-gradient-14" x1="-749.63" y1="124.37" x2="-738.8" y2="130.99" xlink:href="#linear-gradient-2"/><linearGradient id="linear-gradient-15" x1="-729.85" y1="139.5" x2="-723.38" y2="150.21" xlink:href="#linear-gradient-2"/><linearGradient id="linear-gradient-16" x1="-733.37" y1="129.68" x2="-729.53" y2="139.58" xlink:href="#linear-gradient-2"/><linearGradient id="linear-gradient-17" x1="-8212.52" y1="97.62" x2="-8195.6" y2="97.62" gradientTransform="matrix(-1, 0, 0, 1, -8149.18, 0)" xlink:href="#linear-gradient"/><radialGradient id="radial-gradient" cx="-8328.26" cy="96.22" r="7.12" gradientTransform="matrix(-1.23, 0, 0, 1.01, -10169.52, -0.76)" gradientUnits="userSpaceOnUse"><stop offset="0" stop-color="#3066af"/><stop offset="0.71" stop-color="#2b60ab"/><stop offset="1" stop-color="#285ca8"/></radialGradient><radialGradient id="radial-gradient-2" cx="-8328.1" cy="96.59" r="6.63" gradientTransform="matrix(-1.23, 0, 0, 1.01, -10169.52, -0.76)" gradientUnits="userSpaceOnUse"><stop offset="0" stop-color="#ed4523"/><stop offset="0.13" stop-color="#e74322"/><stop offset="0.3" stop-color="#d73e20"/><stop offset="0.49" stop-color="#bb351d"/><stop offset="0.69" stop-color="#952918"/><stop offset="0.91" stop-color="#651912"/><stop offset="1" stop-color="#4e120f"/></radialGradient><linearGradient id="linear-gradient-18" x1="-766.02" y1="112.93" x2="-768.8" y2="125.61" gradientTransform="translate(860.84)" gradientUnits="userSpaceOnUse"><stop offset="0" stop-color="#fbed34"/><stop offset="0.17" stop-color="#e9e739"/><stop offset="0.49" stop-color="#cfdd3f"/><stop offset="0.78" stop-color="#bfd744"/><stop offset="1" stop-color="#b9d545"/></linearGradient><linearGradient id="linear-gradient-19" x1="-8274.8" y1="125.39" x2="-8251.99" y2="125.39" gradientTransform="matrix(-1, 0, 0, 1, -8149.18, 0)" xlink:href="#linear-gradient-4"/><linearGradient id="linear-gradient-20" x1="-781.24" y1="149.53" x2="-796.98" y2="160.21" xlink:href="#linear-gradient-3"/><linearGradient id="linear-gradient-21" x1="-790.85" y1="123.66" x2="-771.49" y2="118.18" xlink:href="#linear-gradient-2"/><linearGradient id="linear-gradient-22" x1="-782.92" y1="138.36" x2="-771.81" y2="143.08" xlink:href="#linear-gradient-2"/><linearGradient id="linear-gradient-23" x1="-782.46" y1="126.03" x2="-773.4" y2="117.17" xlink:href="#linear-gradient-4"/></defs><title>below-position</title><path class="cls-1" d="M177.5,170.34l-4.42,1.29s-4.42,1.78-5.21,2.82S137.63,169,130.17,168s-38.29-8.57-38.29-8.57L48.64,152c-6.26-1.07-36.18-5.26-47.31-6.81l2-12,5.28,1.23L41.35,138l40.1,6.76,28,4.8,41.43,11.61,36.38,6.23-11.77,1Z"/><path class="cls-2" d="M179.17,171.81l-4.12,2.57,1.08,2.82.56,3.53-4.32,1.94s-16.6-3.27-23.32-4.43-20.05-2.68-25.48-4.47-25-7.5-31.22-8.57-39.4-6-39.4-6L0,153.14l1.32-8c11.14,1.55,41.06,5.74,47.31,6.81l43.25,7.41S122.71,167,130.17,168s36.92,7.52,37.7,6.49,5.21-2.82,5.21-2.82l4.42-1.29-2-1.91,11.77-1-7.23,3.39Z"/><path class="cls-2" d="M129.39,158.77a28.07,28.07,0,0,1,4.95,1.06c1.51.32,3.31.72,5.28,1.17l6.52,1.34c9.28,1.84,16.89,3.21,16.86,3.48s-7.73-.69-17.15-2.55c-2.35-.47-4.58-1-6.6-1.43s-3.8-1-5.3-1.39C131,159.5,129.28,158.87,129.39,158.77Z"/><path class="cls-2" d="M56.8,149.66c0-.18,4.73.28,12.41,1.28s18.29,2.49,30,5c22.68,6,41.14,10,41.05,10.4-.06.17-4.79-.68-12.37-2.27-3.79-.81-8.28-1.82-13.26-3s-10.5-2.7-15.93-4c-11.32-2.42-22-4-29.55-5.28S56.81,149.84,56.8,149.66Z"/><path class="cls-2" d="M45.07,144.31c0-.27,10.28.92,23.06,2.67,6.39.83,12.14,1.83,16.31,2.55a48.29,48.29,0,0,1,6.71,1.38,48.36,48.36,0,0,1-6.78-.7c-4.17-.54-9.93-1.44-16.27-2.26C55.41,146.21,45.1,144.59,45.07,144.31Z"/><path class="cls-2" d="M6.49,142.75c0-.36,6.69.31,14.91,1.48s14.89,2.42,14.88,2.77-6.69-.31-14.91-1.48S6.48,143.11,6.49,142.75Z"/><path class="cls-2" d="M9.68,136.42c.18-.24,5.58.45,12.57,1.27s12.6,1.7,12.63,2-5.59-.14-12.56-1S9.5,136.66,9.68,136.42Z"/><path class="cls-1" d="M116.49,164.32l-2.18-.25a10.15,10.15,0,0,0-2.81.28c-.53.31-12.3-8-15.4-9.82s-15.28-10.84-15.28-10.84L63.14,132.44c-2.56-1.63-15-9-19.57-11.73l3.06-4.91,2.1,1.51,13.76,7.62L78.9,135.31l11.46,7.29,16.11,12.76,14.87,9.46L116,163.11Z"/><path class="cls-2" d="M117,165.27l-2.28.37,0,1.44-.4,1.66-2.26.06s-6.71-4.51-9.45-6.26-8.33-4.88-10.39-6.67S82.52,148,80,146.33s-16.24-9.92-16.24-9.92L41.53,124l2-3.26c4.62,2.74,17,10.11,19.57,11.73l17.67,11.25s12.18,9,15.28,10.84,14.87,10.13,15.4,9.82a10.15,10.15,0,0,1,2.81-.28l2.18.25-.52-1.21,5.37,1.72-3.8.15Z"/><path class="cls-2" d="M97.43,150.34a13.45,13.45,0,0,1,2,1.38l2.11,1.49,2.63,1.79c3.75,2.53,6.84,4.53,6.78,4.65a55.2,55.2,0,0,1-7.08-4.29c-.95-.64-1.84-1.28-2.64-1.85l-2.08-1.59A10.53,10.53,0,0,1,97.43,150.34Z"/><path class="cls-2" d="M67.16,132.92a50.23,50.23,0,0,1,5.23,2.86c3.19,1.88,7.59,4.47,12.3,7.74,8.89,6.81,16.27,12,16.16,12.16a53.76,53.76,0,0,1-5-3.28c-1.52-1.05-3.31-2.33-5.29-3.75s-4.12-3.13-6.29-4.69c-4.54-3.16-8.93-5.83-12-7.78S67.13,133,67.16,132.92Z"/><path class="cls-2" d="M63,128.4c0-.13,4.36,2.3,9.66,5.43,2.66,1.54,5,3,6.71,4.13a23.14,23.14,0,0,1,2.7,1.85,23.14,23.14,0,0,1-2.85-1.56c-1.74-1-4.1-2.47-6.74-4C67.18,131.15,62.93,128.53,63,128.4Z"/><path class="cls-2" d="M46.28,120.59c.07-.15,2.89,1.37,6.29,3.41s6.11,3.81,6,4-2.89-1.37-6.29-3.41S46.21,120.75,46.28,120.59Z"/><path class="cls-2" d="M48.84,118.4a57.52,57.52,0,0,1,5.3,2.88,43.89,43.89,0,0,1,5.2,3.2A36.61,36.61,0,0,1,54,121.72,31.8,31.8,0,0,1,48.84,118.4Z"/><path class="cls-3" d="M48.78,93.58c2,3.48,7,5,11.22,3.4s6.09-5.73,4.13-9.21-7-5-11.22-3.39S46.82,90.1,48.78,93.58Z"/><path class="cls-4" d="M57,123.1c1.58-.49,2.93.3,4.38,1a5,5,0,0,1,.69-1.69,13,13,0,0,0,.68-1.87c.32-.85.63-1.7.92-2.56l.05-.18-6.14-3.51-.13.36c-.71,2-1.42,4-2.16,6A10.07,10.07,0,0,1,54,123.17a5.79,5.79,0,0,1-1.63,1.28l-.57.35C53.85,125.34,55.42,123.87,57,123.1Z"/><path class="cls-5" d="M70.33,127.54a3,3,0,0,0-3.64-1,3.08,3.08,0,0,0-.8.45c-1.7-.42-3.7-.6-4.38-2a1.57,1.57,0,0,1-.15-.91c-1.44-.73-2.8-1.52-4.38-1-1.57.78-3.14,2.24-5.22,1.71-2.4,1.38-5.57,2-8,3.33a17.83,17.83,0,0,0-4.29,3.27c-.78.83-2.05,1.83-2.37,2.92a4,4,0,0,0-1.71.24c-1.55.59-2.28,2-1.64,3.12s2.41,1.59,4,1,2.24-1.92,1.68-3A19.78,19.78,0,0,0,41.77,133a17.67,17.67,0,0,1,4.61-4c.61-.35,4.14-2,4.15-.17,0,.52-.85,1.16-1.16,1.59a20.24,20.24,0,0,0-1.46,2.36,12.53,12.53,0,0,0-1.54,4.91,3.72,3.72,0,0,0-.83.2A2.41,2.41,0,0,0,44,141.25a3.47,3.47,0,0,0,4.18,1.24,2.42,2.42,0,0,0,1.56-3.42,2.54,2.54,0,0,0-.42-.53c1.08-1.48,1.2-3.66,1.62-5.21a11.22,11.22,0,0,1,1.77-3.51c.63-.95,1-1.71,2.23-2.14,1,1.11,1,3,1.07,4.37a12.46,12.46,0,0,0,.35,2.49c-1.21.73-1.75,1.89-1.22,2.84.63,1.12,2.52,1.51,4.23.86s2.58-2.08,2-3.2a2.81,2.81,0,0,0-2.49-1.16c0-.3,0-.62-.07-1-.09-1.29-.81-4.45.54-5.37.7-.47,1.64-.12,2.33.15a29.14,29.14,0,0,0,2.89.92l.52.14a1.73,1.73,0,0,0,.21.7,3,3,0,0,0,3.64,1C70.28,129.91,70.93,128.61,70.33,127.54Z"/><path class="cls-6" d="M115.39,100.32s3.61,1.42,7.3,3.17a46.53,46.53,0,0,1-3.18-5.26A16.09,16.09,0,0,0,115.39,100.32Z"/><path class="cls-7" d="M132.74,109.72s-2.05-7.78-7.84-10.92a29.54,29.54,0,0,1,1.88,6.8c.75.43,1.43.86,2,1.27Z"/><path class="cls-8" d="M123.21,98.06a6.1,6.1,0,0,0-3.71.17,46.53,46.53,0,0,0,3.18,5.26c1.42.68,2.85,1.4,4.1,2.12a29.54,29.54,0,0,0-1.88-6.8A10.55,10.55,0,0,0,123.21,98.06Z"/><path class="cls-9" d="M48,109.86A20.85,20.85,0,0,1,50.8,111l.22,0c6-1.15,11.94.29,17.9-1.73a17.57,17.57,0,0,0,1.92-.49c-12.51,0-25.19-.92-36.54-5.2C37.38,106.41,47.59,109.92,48,109.86Z"/><path class="cls-10" d="M72.79,107.24c.62-6.36-4.23-12-8.51-17.45A81.88,81.88,0,0,0,54.82,91a60,60,0,0,0-12.36,1.88c-7,1.78-10.3,6.8-8.88,9.74a3.26,3.26,0,0,0,.73.91c11.34,4.28,24,5.16,36.54,5.2C71.88,108.43,72.79,107.94,72.79,107.24Z"/><path class="cls-11" d="M132.55,112.48a3.7,3.7,0,0,0,.19-2.75h0l-4-2.85c-4-2.85-19.3-9-19.3-9s-8.73-3-14.92-2.46-10.94-.2-17.06-4c-3-1.83-8.42-2-13.23-1.64,4.28,5.41,9.13,11.09,8.51,17.45,0,1.15-2.46,1.73-3.86,2-6,2-11.94.58-17.9,1.73l-.22,0c1.83.83,4.31,2,6.77,3.3l6.14,3.51a16.55,16.55,0,0,1,2.12,1.59,71,71,0,0,0,9.2,6.3,67.84,67.84,0,0,1-6.75-11.57,21,21,0,0,1,3.55.15c-.6-.66-.15-1.21-.53-2,19.23,0,36.49,4,54.69,9,.54-.35,1.09-.72,1.65-1.11A11.74,11.74,0,0,0,132.55,112.48Z"/><path class="cls-12" d="M71.83,114.3c9.55,1.21,15.59,8.92,21.26,15.16,0-.37.06-.58.06-.58,1.74,1.91,14.65-.59,16-.86,8.64-2.32,12.72-4,16.86-6.71-18.2-5-35.08-9-54.31-9C72.06,113.09,71.23,113.64,71.83,114.3Z"/><path class="cls-13" d="M132.21,118.9c-.91-2.18-2-3.6-4.22-1.72-7.85,6.36-14.33,13.08-18.61,21.1,3.8-2.24,8.21-3.49,12.18-5.65l-1.48.6S131,124.3,132.21,118.9Z"/><path class="cls-14" d="M107.94,148.15A40.1,40.1,0,0,0,102,149a4.27,4.27,0,0,0-3.83-1.14c-2.06.27-3.51,1.55-3.25,2.87s2.13,2.16,4.18,1.89a3.76,3.76,0,0,0,3.19-2c2,.38,5.26.62,6.77,1.08,2.42.75,4.29,2,2.86,4.15a4.66,4.66,0,0,0-.62,1.42h-.07c-2,.26-3.29,1.7-3,3.24s2.12,2.56,4.07,2.31,3.29-1.71,3-3.24a2.36,2.36,0,0,0-.42-1c.31-.3.62-.64.93-1-.83-3-3.62-5.69-6.74-7.54C109,149.7,108.27,148.95,107.94,148.15Z"/><path class="cls-15" d="M107.85,147c1.56-1.33,3.47-.87,5.31-.77-.68-.35-1.61-.8-2.57-1.18a51,51,0,0,1-5.63-2.78,2.12,2.12,0,0,0-1.76,2.25c.22,1.11,1.61,1.85,3.11,1.66l.14,0a5.81,5.81,0,0,0,1.39,1.68A1.32,1.32,0,0,1,107.85,147Z"/><path class="cls-16" d="M109.53,138c4.28-7.91,10.7-14.55,18.46-20.84,2.21-1.88,3.3-.46,4.22,1.72a3.48,3.48,0,0,0,0-1.57c-.74-3.1-3.65-4.48-6.62-4.24-6.69,8.27-17.76,15.69-22.81,24.59-.35,1.48-.17,2.7.76,3.5.47.41.93.77,1.38,1.11l1.56.85A6.72,6.72,0,0,1,109.53,138Z"/><path class="cls-17" d="M126.15,147.19c-3.18-.29-12-.38-12-.38s-.41-.23-1-.55c-1.84-.1-3.75-.56-5.31.77a1.32,1.32,0,0,0,0,.83l.34.28-.24,0c.34.8,1.08,1.55,1.15,1.91,3.11,1.85,5.91,4.51,6.74,7.54,1.76-2,3.47-4.62,5-4.83,2.22-.29,8.58,1.27,15.35-5s18.44-13.7,17.78-17a24.53,24.53,0,0,0-8.64,3C143.89,135,129.17,147.46,126.15,147.19Z"/><path class="cls-18" d="M140.92,125.79c-6.66,1.86-15.82,5.44-19.35,6.85-4,2.15-8.39,3.41-12.18,5.65l.15-.26a6.72,6.72,0,0,0-3,5.11,30.65,30.65,0,0,0,4.07,1.93c2.9.63,5.87.06,9.61-1.28,6.67-2.39,25.28-10.17,25.28-10.17l-.12.1a24.53,24.53,0,0,1,8.64-3,1.58,1.58,0,0,0,0-.16C152.91,127.32,149.34,123.44,140.92,125.79Z"/><path class="cls-19" d="M47.21,100.53c2,3.48,7,5,11.22,3.4s6.09-5.73,4.13-9.21-7-5-11.22-3.39S45.25,97,47.21,100.53Z"/><path class="cls-20" d="M47.6,100.63c1.78,3.16,6.34,4.55,10.19,3.09s5.54-5.21,3.76-8.37-6.34-4.54-10.2-3.09S45.82,97.47,47.6,100.63Z"/><path class="cls-21" d="M47.81,100.72c1.66,2.95,5.91,4.24,9.51,2.88s5.16-4.86,3.5-7.8-5.91-4.24-9.5-2.88S46.15,97.77,47.81,100.72Z"/><path class="cls-22" d="M116.33,118.42a64.63,64.63,0,0,1-6.51-1.37c-1.36-.35-2.74-.61-4.05-1.06-.66-.23-1.32-.26-2-.42s-1.47-.44-2.23-.59c-2-.39-3.94-.72-6-1-1.25-.17-2.53-.29-3.78-.5s-2.35-.67-3.56-1a19.05,19.05,0,0,0-4.55-.5c-1.11,0-2.13.28-3.3.18-.79-.07-1.56-.42-2.36-.52a38.21,38.21,0,0,0-4.49,0,6.2,6.2,0,0,0-3.22.84c-.64.38-.94.73-.65,1.35a1.86,1.86,0,0,0,1.29,1c.65.22.89.14,1.05-.21-.15-.59-.51-1.35.06-1.35,1.21-.2,3.08-.67,4.36-.29l.1,0a3.11,3.11,0,0,1,1,.37c.26.18.28.41.4.67.24.52.4,1.08.65,1.58.16.33.92,1.62,1.52,1.4s.12-1.69.06-2.06c-.12-.77-.4-1.31.81-1.31,1.42,0,2.15,0,2.57,1.25s.42,2.42.78,3.61a11.93,11.93,0,0,0,1.14,2.8c.3.5,1.11,1.67,2,1.58s0-1.19-.11-1.5a22.12,22.12,0,0,1-1-2.37,7.48,7.48,0,0,1-.24-2.52A2.51,2.51,0,0,1,87.34,114a3.23,3.23,0,0,1,4.22,1c1.28,1.74.89,4.28.5,6.2-.28,1.4-.62,3.5.25,4.8a1.62,1.62,0,0,0,1.66.71c.67-.12.61-.41.67-1,.17-1.55,0-3.15.14-4.71a13.53,13.53,0,0,1,1-4.29c.44-1,1.16-2,2.59-1.51,2.49.91,2.28,3.54,2.12,5.44-.07.77-1.54,6.51-.2,6.63.71.06,1.4-1.05,1.63-1.48.47-.86,1-1.74,1.37-2.62.75-1.6,1.16-3.29,2-4.87.33-.67,1.09-1.26,1.85-.56a2.92,2.92,0,0,1,.69,1.91c.08,1.2,0,2.43,0,3.63,0,.5-.07,1.68.51,2s.91-.25,1.19-.66a24.29,24.29,0,0,0,1.45-2.26,16,16,0,0,1,.68-1.59c1.06-1.55,3.53-.86,5.24-.78.61,0,1.56,0,1.72-.67S116.92,118.51,116.33,118.42Z"/><path class="cls-23" d="M125.63,113.09a8.21,8.21,0,0,0-5,2.22s-16,14.7-17.78,22.37C107.86,128.78,118.94,121.36,125.63,113.09Z"/><path class="cls-24" d="M73.84,151.63c-1.22-.75.46-2.58.71-4.37l-.81.46a41.84,41.84,0,0,0-2.88-3.47,1.6,1.6,0,0,0,.12-1.75,2.68,2.68,0,0,0-3.24-.91,1.87,1.87,0,0,0-1.27,2.62,2.57,2.57,0,0,0,2.68,1.06,40.81,40.81,0,0,0,3.5,4.71s-9.4-1.65-12.46-.4a5.06,5.06,0,0,0-.63.31,3.66,3.66,0,0,0-2.51,0c-1.49.56-2.18,1.93-1.55,3.05a3.17,3.17,0,0,0,3.83,1,2.41,2.41,0,0,0,1.76-2.35c3.41-1.86,11.06,1,11.06,1-7.13,1.17-9.1,5.38-10.37,7.5l0,.09a2.73,2.73,0,0,0-.91.17A1.8,1.8,0,0,0,59.69,163a2.59,2.59,0,0,0,3.12,1,1.8,1.8,0,0,0,1.14-2.57,2,2,0,0,0-.48-.55c.07-.38.43-1.3,2-3.52,2.37-3.32,9.19-2.71,9.19-2.71s-.79,4.45-.08,7a4.69,4.69,0,0,0,.62,1.32,1.91,1.91,0,0,0-.61,2.44,3.1,3.1,0,0,0,3.75,1c1.46-.55,2.14-1.88,1.53-3a3,3,0,0,0-3.37-1.08l0,0c-2.06-3.66.93-9.24.93-9.24s.63-.49,1.69-1.35C77.17,151.94,75.22,152.34,73.84,151.63Z"/><path class="cls-25" d="M89,128l-.72-.62c-6.09-4.74-13.94-7.56-18.46-13.28-.49,0-1,0-1.5,0A67.84,67.84,0,0,0,75,125.72c3.46,2.1,6.48,3.8,6.48,3.8l-.23.94A11.81,11.81,0,0,1,89,128Z"/><path class="cls-26" d="M81.28,130.46c-.77,3.17-3.23,13.27-3.5,14.19-.23.76-2.11,2-3.22,2.61-.24,1.79-1.92,3.62-.71,4.37,1.37.7,3.33.31,5.26,0,1.76-1.42,4.7-3.87,7.94-6.84s4.89-8.72,5.59-12.4A19.41,19.41,0,0,0,89,128,11.81,11.81,0,0,0,81.28,130.46Z"/><path class="cls-27" d="M69.77,114.14c4.53,5.72,12.37,8.54,18.46,13.28a19.85,19.85,0,0,1,4.39,5c.25-1.3.39-2.35.45-3C87,122.78,80.54,114.42,69.77,114.14Z"/><path class="cls-28" d="M52.3,101.36,54,94A9.59,9.59,0,0,0,52.3,101.36Z"/><ellipse class="cls-29" cx="56.42" cy="95.75" rx="0.79" ry="0.65"/><path class="cls-29" d="M63.71,91.68h.73c.48,0,1.18,0,2.07.06s2,.12,3.2.27a35.05,35.05,0,0,1,4.11.71,18.19,18.19,0,0,1,4.61,1.67l.57.33.53.31.52.25c.19.07.37.16.57.22a14.58,14.58,0,0,0,2.55.62,57.42,57.42,0,0,0,5.75.46c2,.1,4,.19,6.08.4A41.36,41.36,0,0,1,101,98a26.53,26.53,0,0,1,2.84.89l2.63,1c1.73.65,3.39,1.29,5,1.9s3.07,1.19,4.44,1.73l2,.78,1.76.73,2.85,1.2,1.83.79.65.28-.68-.22-1.91-.63-3-1-1.81-.62-2-.68c-1.41-.47-2.93-1-4.54-1.55s-3.3-1.14-5-1.76l-2.66-.94c-.88-.3-1.78-.58-2.71-.81a40.15,40.15,0,0,0-5.81-1c-2-.21-4-.32-6-.43a51.37,51.37,0,0,1-5.9-.57,14.5,14.5,0,0,1-2.79-.75c-.22-.08-.43-.19-.64-.28s-.43-.22-.63-.33l-.54-.35-.5-.31a18.26,18.26,0,0,0-4.25-1.74c-1.42-.4-2.75-.69-4-.91s-2.26-.37-3.13-.47-1.57-.18-2-.22Z"/><polygon class="cls-30" points="157.53 86.03 175.64 66.97 175.64 0 156.72 19.36 156.39 81.04 157.53 86.03"/><polygon class="cls-31" points="90.18 19 112.59 0 175.64 0 157 19.59 90.18 19"/><rect class="cls-32" x="90.18" y="19" width="67.35" height="67.03" transform="translate(247.7 105.03) rotate(-180)"/></svg>