<svg id="Layer_1" data-name="Layer 1" xmlns="http://www.w3.org/2000/svg" xmlns:xlink="http://www.w3.org/1999/xlink" viewBox="0 0 58 194.91"><defs><style>.cls-1{fill:#c99539;}.cls-2{fill:#e8b142;}.cls-3{fill:#efbb6a;}.cls-4{fill:#81bf2e;}.cls-5{fill:#98d13d;}.cls-6{fill:#db5a8f;}.cls-7{fill:#db9baa;}.cls-8{fill:#e5839d;}.cls-9{fill:#dd3e6b;}.cls-10{fill:#f7697d;}.cls-11{fill:#f4586f;}.cls-12{fill:#342c29;}.cls-13{fill:#4e423e;}.cls-14{fill:#8b756d;}.cls-15{fill:#685852;}.cls-16{fill:#8e423e;}.cls-17{fill:#ff756d;}.cls-18{fill:#e86767;}.cls-19{fill:#04173c;}.cls-20{fill:#2b90f3;}.cls-21{fill:#98e2ea;}.cls-22{fill:#97dadd;}.cls-23{fill:#b77748;}.cls-24{fill:#895936;}.cls-25{fill:#1c1308;}.cls-26{fill:#060608;}.cls-27{fill:#206eb6;}.cls-28{fill:#515657;}.cls-29{fill:#292b2c;}.cls-30{fill:#151616;}.cls-31{fill:#72aab0;}.cls-32{fill:#0b1314;}.cls-33{fill:#395558;}.cls-34{fill:#3d4141;}.cls-35{fill:#212325;}.cls-36{fill:#293133;}.cls-37{fill:#1f2526;}.cls-38{fill:#e73f00;}.cls-39{fill:#2f3232;}.cls-40{fill:#f7b318;}.cls-41{fill:#78866c;}.cls-41,.cls-43,.cls-44,.cls-45,.cls-46,.cls-47,.cls-48,.cls-49,.cls-50,.cls-51,.cls-52,.cls-53,.cls-54,.cls-55,.cls-56,.cls-57{fill-rule:evenodd;}.cls-42,.cls-47{fill:#303c36;}.cls-43{fill:#84a18f;}.cls-44{fill:#9dad90;}.cls-45{fill:#192121;}.cls-46{fill:#333633;}.cls-48{fill:#384240;}.cls-49{fill:#242424;}.cls-50{fill:#4b5c5a;}.cls-51,.cls-84{fill:#fff;}.cls-52{fill:#3e4b4a;}.cls-53{fill:#151515;}.cls-55{fill:#f9fae8;}.cls-56{fill:#0e1f26;}.cls-57{fill:#c9e8e7;}.cls-58{fill:url(#linear-gradient);}.cls-59{fill:url(#linear-gradient-2);}.cls-60{fill:url(#linear-gradient-3);}.cls-61{fill:url(#linear-gradient-4);}.cls-62{fill:url(#linear-gradient-5);}.cls-63{fill:url(#linear-gradient-6);}.cls-64{fill:url(#linear-gradient-7);}.cls-65{fill:url(#linear-gradient-8);}.cls-66{fill:url(#linear-gradient-9);}.cls-67{fill:url(#linear-gradient-10);}.cls-68{fill:url(#linear-gradient-11);}.cls-69{fill:url(#linear-gradient-12);}.cls-70{fill:url(#linear-gradient-13);}.cls-71{fill:url(#linear-gradient-14);}.cls-72{fill:url(#linear-gradient-15);}.cls-73{fill:url(#linear-gradient-16);}.cls-74{fill:url(#linear-gradient-17);}.cls-75{fill:url(#radial-gradient);}.cls-76{fill:url(#radial-gradient-2);}.cls-77{fill:url(#linear-gradient-18);}.cls-78{fill:url(#linear-gradient-19);}.cls-79{fill:url(#linear-gradient-20);}.cls-80{fill:url(#linear-gradient-21);}.cls-81{fill:url(#linear-gradient-22);}.cls-82{fill:url(#linear-gradient-23);}.cls-83{fill:#221f1f;}</style><linearGradient id="linear-gradient" x1="-1971.45" y1="159.56" x2="-1970.67" y2="163.38" gradientTransform="translate(1981)" gradientUnits="userSpaceOnUse"><stop offset="0" stop-color="#84c241"/><stop offset="0.02" stop-color="#89c441"/><stop offset="0.17" stop-color="#a3cd43"/><stop offset="0.3" stop-color="#b3d345"/><stop offset="0.4" stop-color="#b9d545"/><stop offset="1" stop-color="#456f34"/></linearGradient><linearGradient id="linear-gradient-2" x1="-1972.19" y1="171.89" x2="-1968.74" y2="172.75" gradientTransform="translate(1981)" gradientUnits="userSpaceOnUse"><stop offset="0" stop-color="#456f34"/><stop offset="0.6" stop-color="#b9d545"/><stop offset="0.7" stop-color="#b3d345"/><stop offset="0.83" stop-color="#a3cd43"/><stop offset="0.98" stop-color="#89c441"/><stop offset="1" stop-color="#84c241"/></linearGradient><linearGradient id="linear-gradient-3" x1="-1971.75" y1="172.89" x2="-1972.94" y2="178.22" gradientTransform="translate(1981)" gradientUnits="userSpaceOnUse"><stop offset="0" stop-color="#b9d545"/><stop offset="0.24" stop-color="#d5b136"/><stop offset="0.47" stop-color="#ec922a"/><stop offset="0.61" stop-color="#f58725"/><stop offset="1" stop-color="#965624"/></linearGradient><linearGradient id="linear-gradient-4" x1="-1949.85" y1="165.35" x2="-1947.23" y2="165.35" gradientTransform="translate(1981)" gradientUnits="userSpaceOnUse"><stop offset="0" stop-color="#264b9b"/><stop offset="1" stop-color="#10bef0"/></linearGradient><linearGradient id="linear-gradient-5" x1="-1946.44" y1="166.56" x2="-1943.62" y2="166.56" xlink:href="#linear-gradient-4"/><linearGradient id="linear-gradient-6" x1="-1949.13" y1="165.9" x2="-1942.4" y2="165.21" xlink:href="#linear-gradient-2"/><linearGradient id="linear-gradient-7" x1="-1972.89" y1="168.95" x2="-1972.16" y2="166.39" xlink:href="#linear-gradient-2"/><linearGradient id="linear-gradient-8" x1="-1972.68" y1="168" x2="-1970.62" y2="160.74" xlink:href="#linear-gradient-2"/><linearGradient id="linear-gradient-9" x1="-1960.03" y1="175.15" x2="-1956.59" y2="163" xlink:href="#linear-gradient-2"/><linearGradient id="linear-gradient-10" x1="-1956.32" y1="175.84" x2="-1955.68" y2="169.97" xlink:href="#linear-gradient-4"/><linearGradient id="linear-gradient-11" x1="-7195.89" y1="174.78" x2="-7187.69" y2="174.78" gradientTransform="matrix(-1, 0, 0, 1, -7158.7, 0)" xlink:href="#linear-gradient-4"/><linearGradient id="linear-gradient-12" x1="-1949.58" y1="183.14" x2="-1954.02" y2="185" xlink:href="#linear-gradient-3"/><linearGradient id="linear-gradient-13" x1="-1949.95" y1="183.07" x2="-1953.63" y2="180.53" xlink:href="#linear-gradient-3"/><linearGradient id="linear-gradient-14" x1="-1951.36" y1="173.72" x2="-1947.46" y2="176.11" xlink:href="#linear-gradient-2"/><linearGradient id="linear-gradient-15" x1="-1944.26" y1="179.12" x2="-1941.94" y2="182.97" xlink:href="#linear-gradient-2"/><linearGradient id="linear-gradient-16" x1="-1945.51" y1="175.63" x2="-1944.14" y2="179.18" xlink:href="#linear-gradient-2"/><linearGradient id="linear-gradient-17" x1="-7171.16" y1="164.19" x2="-7165.09" y2="164.19" gradientTransform="matrix(-1, 0, 0, 1, -7158.7, 0)" xlink:href="#linear-gradient"/><radialGradient id="radial-gradient" cx="-7519.71" cy="160.4" r="2.51" gradientTransform="matrix(-1.25, 0, 0, 1.02, -9381.35, 0.19)" gradientUnits="userSpaceOnUse"><stop offset="0" stop-color="#3066af"/><stop offset="0.71" stop-color="#2b60ab"/><stop offset="1" stop-color="#285ca8"/></radialGradient><radialGradient id="radial-gradient-2" cx="-7519.65" cy="160.53" r="2.34" gradientTransform="matrix(-1.25, 0, 0, 1.02, -9381.35, 0.19)" gradientUnits="userSpaceOnUse"><stop offset="0" stop-color="#ed4523"/><stop offset="0.13" stop-color="#e74322"/><stop offset="0.3" stop-color="#d73e20"/><stop offset="0.49" stop-color="#bb351d"/><stop offset="0.69" stop-color="#952918"/><stop offset="0.91" stop-color="#651912"/><stop offset="1" stop-color="#4e120f"/></radialGradient><linearGradient id="linear-gradient-18" x1="-1957.24" y1="169.65" x2="-1958.23" y2="174.18" gradientTransform="translate(1981)" gradientUnits="userSpaceOnUse"><stop offset="0" stop-color="#fbed34"/><stop offset="0.17" stop-color="#e9e739"/><stop offset="0.49" stop-color="#cfdd3f"/><stop offset="0.78" stop-color="#bfd744"/><stop offset="1" stop-color="#b9d545"/></linearGradient><linearGradient id="linear-gradient-19" x1="-7193.52" y1="174.1" x2="-7185.33" y2="174.1" gradientTransform="matrix(-1, 0, 0, 1, -7158.7, 0)" xlink:href="#linear-gradient-4"/><linearGradient id="linear-gradient-20" x1="-1962.7" y1="182.71" x2="-1968.35" y2="186.54" xlink:href="#linear-gradient-3"/><linearGradient id="linear-gradient-21" x1="-1966.16" y1="173.49" x2="-1959.2" y2="171.52" xlink:href="#linear-gradient-2"/><linearGradient id="linear-gradient-22" x1="-1963.3" y1="178.73" x2="-1959.31" y2="180.42" xlink:href="#linear-gradient-2"/><linearGradient id="linear-gradient-23" x1="-1963.15" y1="174.35" x2="-1959.88" y2="171.15" xlink:href="#linear-gradient-4"/></defs><title>bottom-position</title><rect class="cls-1" y="149.38" width="45.54" height="45.53"/><polygon class="cls-2" points="12.46 136.5 0 149.38 45.54 149.38 58 136.5 12.46 136.5"/><polygon class="cls-3" points="58 136.5 45.54 149.38 45.54 194.91 58 182.02 58 136.5"/><rect class="cls-4" x="0.07" y="103.9" width="45.42" height="45.43"/><polygon class="cls-5" points="12.5 91.04 0.07 103.9 45.49 103.9 57.92 91.04 12.5 91.04"/><polygon class="cls-5" points="57.92 91.04 45.49 103.9 45.49 149.34 57.92 136.48 57.92 91.04"/><rect class="cls-6" x="0.07" y="58.3" width="45.42" height="45.43"/><polygon class="cls-7" points="12.5 45.45 0.07 58.3 45.49 58.3 57.92 45.45 12.5 45.45"/><polygon class="cls-8" points="57.92 45.45 45.49 58.3 45.49 103.74 57.92 90.88 57.92 45.45"/><rect class="cls-9" x="0.07" y="12.86" width="45.42" height="45.43"/><polygon class="cls-10" points="12.5 0 0.07 12.86 45.49 12.86 57.92 0 12.5 0"/><polygon class="cls-11" points="57.92 0 45.49 12.86 45.49 58.29 57.92 45.43 57.92 0"/><path class="cls-12" d="M22.34,55.53a1.12,1.12,0,0,0,.92.36,2.2,2.2,0,0,1,1.45.36,2,2,0,0,1,.28.37c.09.13-.08.07-.22,0a1.34,1.34,0,0,0-.35,0,8.66,8.66,0,0,0-1,0c-.48,0-1.5.24-1.54,0S22.14,55.37,22.34,55.53Z"/><path class="cls-13" d="M19.51,40.12c-.48.36,0,1.61-.35,2.36a3.11,3.11,0,0,0-.49,2,38.84,38.84,0,0,1,.88,5.28c-.08,1.11.18,4.1,0,4.76a1.46,1.46,0,0,0,.2,1.53c.24.26.33.69.63.73s.78.2,1.1.23c.59.06,1.72-.51,2.23-.31s1.21.17,1.49.3.16-.12,0-.28a2.85,2.85,0,0,0-1.14-.7c-.41-.08-1.13.06-1.7-.45s-.61-.47-.73-1.05a24.49,24.49,0,0,1-.35-3.85c.07-.85-.32-3.06-.24-3.56s1-1.84,1.13-2.6a3.24,3.24,0,0,1,1.56-2C24.5,42.09,20.23,39.57,19.51,40.12Z"/><path d="M17.76,40.49a1.71,1.71,0,0,1,1.33,1.37c.17.56-.52,2.75.5,2.44.56-.17.89.18,1.34.46s.87.29,1,.5.77-.76,1.11-1.2a7.38,7.38,0,0,0,1-1.79,4,4,0,0,1,1.22-2c.6-.41.31-2.12-1.85-2.14S17.23,40.36,17.76,40.49Z"/><path class="cls-13" d="M21.92,56.29a2.2,2.2,0,0,1,1.45.36,2,2,0,0,1,.28.37c.09.13-.08.07-.22,0a1.35,1.35,0,0,0-.35,0,4,4,0,0,0-1,0C21.61,57,21.33,56.29,21.92,56.29Z"/><path class="cls-14" d="M36.3,18.75a.61.61,0,0,1-.07-.73c.21-.32.58-1.25,1-1.49s.34-.45.56-.72.85-.84,1.17-.62a4,4,0,0,1,1.37,1.87,6.33,6.33,0,0,1,0,1.93c-.07.24,0,.17.27.24s.75.16.84.35-1.05.33-1.39.2-2.67-.16-3.15-.48S36.4,18.9,36.3,18.75Z"/><path class="cls-13" d="M41.48,19.57c-.09-.2-.61-.29-.84-.35s-.34,0-.27-.24a6.33,6.33,0,0,0,0-1.93A4,4,0,0,0,39,15.18l0,0a4.74,4.74,0,0,1,1,1.64,8.86,8.86,0,0,1,.1,1.51c.11.42,0,1.32-.65,1.36a3.71,3.71,0,0,1,.66.09C40.43,19.9,41.57,19.77,41.48,19.57Z"/><path class="cls-15" d="M38.7,15.39c-.24.13-.78.49-.8.74a1.15,1.15,0,0,1-.64.83c-.32.11-1,1.37-.77,1.31a4.2,4.2,0,0,1,2.11,0c.31.11.76.28.82.05a3.56,3.56,0,0,0,.2-1.27C39.56,16.45,39,15.2,38.7,15.39Z"/><path class="cls-13" d="M41.48,19.57a.32.32,0,0,0-.13-.12,7.72,7.72,0,0,0-1.22-.19,1.25,1.25,0,0,1-.52-.08c-.1-.06-.37-.35-.65-.53a2.33,2.33,0,0,0-1.12-.22h-1c-.18,0-.64.15-.58.25l0,.07c.09.16.15.23.63.55s2.81.35,3.15.48S41.57,19.77,41.48,19.57Z"/><path class="cls-16" d="M37,28.86c-.12.46-.45,1.73-.21,1.88s.59-.4.64-.85a5.3,5.3,0,0,0-.14-1.7C37.2,28,37.12,28.52,37,28.86Z"/><path class="cls-17" d="M38.2,26.78A5.58,5.58,0,0,0,38,28.18c0,.42.09,1.08.14,1.45S38.28,31,38,31s-.51,0-.61-.68.2-1.36-.1-1.82.08-.67.27-1.08S38.27,26.54,38.2,26.78Z"/><path class="cls-18" d="M37.81,27.86c-.05-.23.25-.55,0-.84a1.88,1.88,0,0,0-.26.39c-.19.41-.52.69-.27,1.08a2.33,2.33,0,0,1,.08,1.33,2.42,2.42,0,0,0,.1.65c.08.25.41.39.5.2a2.08,2.08,0,0,0,0-.8c0-.2-.08-.59-.11-1S37.85,28.06,37.81,27.86Z"/><path class="cls-19" d="M39.65,20.29a6.15,6.15,0,0,1-1.07.66c-.34.15-.39.47-.61.41a.3.3,0,0,1-.14-.54c.23-.26.16-.41.61-.52S39.84,20.14,39.65,20.29Z"/><path class="cls-20" d="M42.22,19.87a3.83,3.83,0,0,0-1.34-.48c-.47-.06-.94-.07-1.14-.09s-.46-.45-.94-.66a4.43,4.43,0,0,0-1.42-.16,1.76,1.76,0,0,0-1.26.32c-.43.25-.46.85-.75,1.35a4.07,4.07,0,0,0-.19,1.78c.05.58.29.75.54,1.45a1.74,1.74,0,0,1-.43,2c-.55.39-2.73,2.08-1.64,3.4S36,30.93,36.45,30.4s1-2.45,1.49-3.05a4.51,4.51,0,0,0,.42-2.8,18.59,18.59,0,0,1-.48-2.82,2.9,2.9,0,0,1,.65-1.13c.31-.24.84-.19,1.15-.26a6.7,6.7,0,0,1,1.38-.1c.41,0,1.06.06,1.16,0s.09-.05.14,0,.08,0,.08,0A.46.46,0,0,0,42.22,19.87Z"/><path class="cls-21" d="M41.86,20.27a1.87,1.87,0,0,0,.2-.48,4.08,4.08,0,0,0-1.2-.39c-.47-.06-.94-.07-1.14-.09s-.46-.45-.94-.66a4.43,4.43,0,0,0-1.42-.16,1.76,1.76,0,0,0-1.26.32c-.43.25-.46.85-.75,1.35a4.07,4.07,0,0,0-.19,1.78v0c.06-.89.58-1.53,1.14-1.41a1.9,1.9,0,0,0,1.29-.22c.2-.12.17-.44.51-.38a6.32,6.32,0,0,1,2.05.32,8.43,8.43,0,0,1,.89,0Z"/><path class="cls-22" d="M38.78,19.57a1.57,1.57,0,0,1-.27-.27c-.12-.15-.17-.27-.36-.23s-.36.29-.64.32-.33.16-.19.3a1.56,1.56,0,0,0,.81.23,1.77,1.77,0,0,0,.72-.09C39,19.73,38.84,19.62,38.78,19.57Z"/><path class="cls-22" d="M39.73,19.31c-.21,0-.46-.45-.94-.66a4.43,4.43,0,0,0-1.42-.16,1.76,1.76,0,0,0-1.26.32c-.34.2-.43.61-.59,1,0-.1.11-.22.14-.28a1.92,1.92,0,0,1,.88-.82,1.81,1.81,0,0,1,.95,0c.17,0,.18-.1.48-.11a1.93,1.93,0,0,1,1.07.3c.2.18.31.22.44.43,0,0,.25.06.35.11s.17-.06.24-.16Z"/><path class="cls-20" d="M38.63,19.6a.36.36,0,0,1-.12-.13.4.4,0,0,0-.23-.22.35.35,0,0,0-.36.12c-.06.1-.12.21,0,.33s.13.2.31.18.29-.22.35-.2S38.67,19.63,38.63,19.6Z"/><ellipse class="cls-23" cx="38.18" cy="19.56" rx="0.27" ry="0.26" transform="translate(-3.74 10.47) rotate(-14.89)"/><path class="cls-24" d="M37.92,19.54c.05.11.38.13.51-.08a.26.26,0,0,0-.31-.15A.27.27,0,0,0,37.92,19.54Z"/><path class="cls-25" d="M38.44,19.49a.28.28,0,0,1,0,.2.25.25,0,0,1-.07.08l-.1,0a.3.3,0,0,1-.21,0L38,19.72a.25.25,0,0,1,0-.1.27.27,0,0,1,0-.21.28.28,0,0,1,.17-.13h.11l.1,0a.26.26,0,0,1,.08.07A.3.3,0,0,1,38.44,19.49Zm0,0a.22.22,0,0,0-.12-.15l-.09,0h-.09a.25.25,0,0,0-.15.11.24.24,0,0,0,0,.18.22.22,0,0,0,.12.15.27.27,0,0,0,.19,0,.26.26,0,0,0,.15-.11A.24.24,0,0,0,38.43,19.49Z"/><path class="cls-26" d="M38.3,19.53a.1.1,0,0,1-.08.13.09.09,0,0,1-.11-.08.1.1,0,0,1,.19,0Z"/><path class="cls-22" d="M39.82,19.48s.1.11,0,.2a2.52,2.52,0,0,1-.66.22,3.12,3.12,0,0,0,.87-.1c.18-.1.29,0,.19-.2S39.77,19.45,39.82,19.48Z"/><path class="cls-27" d="M39.69,20.33c0-.15-.27-.27-.45-.27s-.24,0-.37,0-.17.14-.23.2,0,.17-.22.39l.1-.09c.31-.24.84-.19,1.15-.26Z"/><path class="cls-28" d="M42.42,20.19a.46.46,0,0,0-.2-.31,3.83,3.83,0,0,0-1.34-.48c-.38,0-.75-.06-1-.08-.08,0,0,.07-.07.11s.09.05.16.16,0,.14-.2.2a6.24,6.24,0,0,1-1.1.17c-.29,0-.71,0-.71.12s.16.07.24.07a8.73,8.73,0,0,1,1.22,0c.12,0,0,.21.21.24h0a6.7,6.7,0,0,1,1.38-.1c.41,0,1.06.06,1.16,0s.09-.05.14,0S42.42,20.26,42.42,20.19Z"/><path class="cls-29" d="M42,20.17c-.16,0-.51-.09-.68-.15a1.69,1.69,0,0,0-.54-.1,5.92,5.92,0,0,0-1.12.09,2.66,2.66,0,0,1-.42.07l.18,0c.12,0,0,.21.21.24h0a6.7,6.7,0,0,1,1.38-.1c.41,0,1.06.06,1.16,0l.08,0Z"/><path class="cls-30" d="M42.29,20.24h0l-.2-.05-.26-.06L41.26,20a4.11,4.11,0,0,0-.54-.08l-.54,0h-.27l-.27,0-.54,0L38,20.08h0l.54,0,.54,0,.54-.07.27,0h.27l.54,0a4.77,4.77,0,0,1,.53.09l.26.06.27.05.27,0,.2,0h0Z"/><path class="cls-27" d="M36.59,21c-.24-.16.33.35.65.92a2.42,2.42,0,0,1,.15.79c.18.79.46,1.14.52,1.67s.22.69.21.41-.22-1.46-.29-1.85a2.17,2.17,0,0,1,0-.73,1.43,1.43,0,0,1,0-.47,3.54,3.54,0,0,1,.51-1c-.48.56-.46.35-.85.44A1.17,1.17,0,0,1,36.59,21Z"/><path class="cls-22" d="M36.46,19.13a.65.65,0,0,0-.12.33c0,.11-.1.42.06.52s.32.24.5,0,.22-.28.21-.45.08-.32,0-.43A.56.56,0,0,0,36.46,19.13Z"/><path class="cls-31" d="M36.49,19.32a.63.63,0,0,0-.06.54c.1.22.34.26.4.09s.12-.21.09-.4-.19-.31-.25-.31S36.52,19.27,36.49,19.32Z"/><path class="cls-32" d="M36.54,19.62s-.06,0,0,.14.15.18.18.1a.33.33,0,0,0,.05-.15C36.72,19.6,36.61,19.59,36.54,19.62Z"/><path class="cls-31" d="M36.46,19.28a.24.24,0,0,1,.28,0c.1.07.18.15.18.22s0,.13,0,.07,0-.13,0-.22-.05-.13-.16-.14-.22,0-.27,0S36.43,19.3,36.46,19.28Z"/><path class="cls-33" d="M36.49,19.76s0-.09,0-.12,0,0,.07,0,.09,0,.05,0a.17.17,0,0,0-.11,0s0,0,0,.08S36.5,19.79,36.49,19.76Z"/><path class="cls-34" d="M41.66,19.83a.3.3,0,0,0-.1-.16c-.06,0-.1-.09-.19-.09a.33.33,0,0,0-.21.06s0,.16,0,.18a.67.67,0,0,0,.29,0C41.58,19.84,41.67,19.86,41.66,19.83Z"/><path class="cls-35" d="M41.56,19.67c-.06,0-.1-.09-.19-.09a.33.33,0,0,0-.21.06s0,.16,0,.18h0s.08,0,.16-.06.27.05.26,0A.23.23,0,0,0,41.56,19.67Z"/><path class="cls-35" d="M41.12,19.75s0-.09,0-.11a.22.22,0,0,1,.12-.06.46.46,0,0,1,.18,0c.05,0,0,0,0,0h-.17l-.09,0a.08.08,0,0,0-.06,0,.19.19,0,0,0,0,.09S41.12,19.76,41.12,19.75Z"/><path class="cls-34" d="M41.36,19.89a.41.41,0,0,0,.12,0l.12,0s.06,0,0,0l-.08,0h-.19Z"/><path class="cls-20" d="M36.22,20a.43.43,0,0,1-.05.33c-.08.08,0,.15-.21.21s.4.26.68.21c.47-.07.86-.38.66-.32s-.27.05-.22-.13.3-.33.14-.31-.4.14-.58.15C36.29,20.2,36.19,19.94,36.22,20Z"/><path class="cls-22" d="M35.35,20.15a1.07,1.07,0,0,0-.1.26.15.15,0,0,0,.07.17c.12.09.12,0,.09-.13a1.32,1.32,0,0,1,.09-.6A2.31,2.31,0,0,1,35.35,20.15Z"/><path class="cls-27" d="M37.93,27.35a2.4,2.4,0,0,0,.36-.92c-.22.59-.81-.82-1-1.26-.28-.62-.77,0-1,.32s-.35.54-.42.23-1,.37-1,.37-.44.6-.93,1.42.71,1.73,1.92,1.86a1.83,1.83,0,0,0,1.36-.62A8.07,8.07,0,0,1,37.93,27.35Z"/><path class="cls-17" d="M36.07,23.5c-.19-.42-.54-1.18-.61-1.42a2.49,2.49,0,0,1-.16-.58c0-.26,0-.56,0-.7s-.08-.12-.09,0a6.19,6.19,0,0,0,0,1.16c.05.58.29.75.54,1.45a1.74,1.74,0,0,1-.43,2,5,5,0,0,0-1.9,2.27A12.48,12.48,0,0,0,36,25.33,2,2,0,0,0,36.07,23.5Z"/><path class="cls-18" d="M36,24.35c0-.1-.11-.39-.2-.75a1.67,1.67,0,0,1-.49,1.74,7.92,7.92,0,0,0-1,.85.51.51,0,0,0,.07.1,6.5,6.5,0,0,0,1.28-1A1,1,0,0,0,36,24.35Z"/><path class="cls-36" d="M35.43,28.08c.31-.33,1-.52,1-1s0-1.81.33-1.58A2.5,2.5,0,0,1,37.6,27a5.42,5.42,0,0,1-.41,2.08c-.1.3-.85,1-1.31,1.88-.7,1.25-1.73,2.65-2.23,3.8s-2.83,2.76-4.38,3.63-5,2.91-8.09,2.79-7.79,0-9.6,1.17S8,44.1,7.81,44.64s-.35.86-.78.75a2,2,0,0,0-1,0c-.26,0-.52-.08-.84-.46s-.81-.58-1-.4-.29-1-.2-2.22.24-2.93,0-2.88-.41-.78.17-1.55.37-1,.43-1.55a3.58,3.58,0,0,1,1.44-2c.66-.43.2-.72.66-1.09s.66-1.76,1.93-2.45,6.23-3.6,8-4a76.5,76.5,0,0,1,9.43-1.21c2.65-.16,6.34.06,6.85.06a8.4,8.4,0,0,1,1.84,0l0,0c-.11.12.38.31.59.3s.13.49,0,.72a5.27,5.27,0,0,0-.28,1.13C35.12,28.24,35.3,28.21,35.43,28.08Z"/><path class="cls-37" d="M14.79,36c.69-.89,1.47-2.1.66-2.33s-1.82-.09-1.67-.63-1.53-.35-2-.17-1.7-.23-1.67-.55.26-.75-.49-.89-1.1.43-.72-.32a3.84,3.84,0,0,1,1-.95l-1.13.63c-1.27.69-1.47,2.07-1.93,2.45s0,.66-.66,1.09a3.58,3.58,0,0,0-1.44,2c-.06.58.14.78-.43,1.55s-.43,1.61-.17,1.55.11,1.67,0,2.88.06,2.39.2,2.22.63,0,1,.4.58.49.84.46a2,2,0,0,1,1,0c.43.12.58-.2.78-.75s1.95-1.13,3.77-2.29a5,5,0,0,1,1.28-.55,11.38,11.38,0,0,1,.72-1.68C14.12,38.89,14.1,36.93,14.79,36Z"/><path class="cls-37" d="M21.94,31a15.28,15.28,0,0,1,1.38,2.27c.78,1.73,1.73,2.53,1.73,3.68s-.23,3-.3,3.63h0a28.48,28.48,0,0,0,4.51-2.16c1.56-.86,3.92-2.56,4.38-3.63a15.55,15.55,0,0,1,1.07-1.9,4.19,4.19,0,0,1-.72-1c-.32-.75-.43-1-1.21-.58s-1.59-.49-2.83.35-1.76,1-2.54.65-1.59.32-2,.5S21.54,30.14,21.94,31"/><path class="cls-37" d="M27.56,25.55c-.51,0-1,0-1.47.05a76.5,76.5,0,0,0-9.43,1.21c-1.73.43-6.69,3.34-8,4a2.79,2.79,0,0,0-.72.56c.07,1,.45,1.6.8,1,.78-1.41,3.26-2,3.78-2.9s3.26-1.1,3.72-1.56,2.91-.52,4-1.19C21,26.29,24.83,25.83,27.56,25.55Z"/><path class="cls-37" d="M37.2,29.1a8.15,8.15,0,0,0,.36-1.35,2.47,2.47,0,0,1-1.31,1.71c-.63.46-1.8,3.16-2.1,2.67-.15-.24-.21,1.4-.14,1.93.54-1,1.31-2.08,1.88-3.08C36.35,30.15,37.1,29.4,37.2,29.1Z"/><path class="cls-37" d="M25,38.65c-.18,1-1.84.78-3,1.3s-3.46.47-5.45.6-2.78-.28-2.67-1-2.56,1.71-2.37,2.93l.15-.1c1.82-1.17,6.55-1.29,9.6-1.17,2.57.11,5.45-1.33,7.23-2.31C27.74,38.39,25,38.33,25,38.65Z"/><path class="cls-15" d="M19.73,56.37a1.06,1.06,0,0,0,.9.31,2.2,2.2,0,0,1,1.45.36,2,2,0,0,1,.28.37c.09.13-.08.07-.22,0a1.35,1.35,0,0,0-.35,0,8.65,8.65,0,0,0-1,0c-.48,0-1.5.24-1.54,0S19.53,56.22,19.73,56.37Z"/><path class="cls-14" d="M16.87,40.93c-.48.36,0,1.61-.35,2.36a3.11,3.11,0,0,0-.49,2,38.86,38.86,0,0,1,.88,5.28c-.08,1.11.18,4.1,0,4.76a1.46,1.46,0,0,0,.2,1.53c.24.26.33.69.63.73s.78.2,1.1.23c.59.06,1.72-.51,2.23-.31s1.21.17,1.49.3.16-.12,0-.28a2.85,2.85,0,0,0-1.14-.7c-.41-.08-1.13.06-1.7-.45s-.61-.47-.73-1.05a24.48,24.48,0,0,1-.35-3.85c.07-.85-.32-3.06-.24-3.57s1-1.84,1.13-2.6a3.24,3.24,0,0,1,1.56-2C21.86,42.91,17.59,40.39,16.87,40.93Z"/><path class="cls-15" d="M17.71,57.2a2.18,2.18,0,0,1-.45-1.86,11.88,11.88,0,0,0-.15-3.24,24.64,24.64,0,0,0-.1-3c-.19-.82-.42-2.73-.65-3.55s-.2-.72,0-1a2.05,2.05,0,0,1,1.05-.9c.13,0,.12-.74-.85-.52l-.05.13a3.11,3.11,0,0,0-.49,2,38.86,38.86,0,0,1,.88,5.28c-.08,1.11.18,4.1,0,4.76a1.46,1.46,0,0,0,.2,1.53c.24.26.33.69.63.73s.78.2,1.1.23H19A2.84,2.84,0,0,1,17.71,57.2Z"/><path class="cls-37" d="M15.28,41.35a1.25,1.25,0,0,1,1.14,1.39c-.06.32,0,1.35.41,1.68s2,1.17,2.12,1.6c.35,1.08,2.39-2.07,2.7-2.93a4.15,4.15,0,0,1,2.08-2.21c.7-.16-.55-1.9-2.71-1.92S14.74,41.36,15.28,41.35Z"/><path class="cls-14" d="M19.4,57.09a2.2,2.2,0,0,1,1.45.36,2,2,0,0,1,.28.37c.09.13-.08.07-.22,0a1.34,1.34,0,0,0-.35,0,6.62,6.62,0,0,0-1.13,0c-.47.06-1-.15-1-.38S18.8,57.09,19.4,57.09Z"/><path class="cls-38" d="M9,96.41l.11.15c.25.37.79,1.34,0,1.85a2.13,2.13,0,0,1-2.08,0Z"/><path class="cls-38" d="M4,94.6l-.19,0c-.45,0-1.56,0-1.62.91a2.1,2.1,0,0,0,1,1.81Z"/><path class="cls-39" d="M6.83,99.68a5.07,5.07,0,0,0,2.32-3.75c.34-6-5.6-7.56-3.3-9.23,1.73-1.26,2.76,2.66,5.26,6.45a2.57,2.57,0,0,1,1.71-.06c.82.28.76,1,1.51,1s1.36-.83,2.06.23c.52.79.21,2.74.26,4C22,100.89,27.08,97.5,27,93c-.07-3.4-2.73-6.41-5.52-8.94a1.09,1.09,0,0,1-.27.93c-.89,1,1.36,1.77.81,2.57s-2.34.89-3.74.22-.74-2.56-.7-4a22.61,22.61,0,0,1,.29-2.81c-2.35-2-3.8-3.6-2.07-4.59,3.13-1.8,5.08,7.81,10.71,11.06,4.31,2.48,11.65-.1,10.44-6.81S25.65,69.85,28,67.73c-.73-.14-2.14-.54-2.36-1.66-.3-1.51.56-1.95,1.65-2S29,62.87,30,63.73c.74.63.22,2.85-.6,3.75a6.34,6.34,0,0,1,1.5,2.25c0-.7-.22-1.71,1-2.08s2,1.33,2.2,2.55-.21,2.48-.74,2.44-.42-1.5-.8-1.69-.78,0-1.35-.65c1,1.93,2.24,4.31,4.49,5.55,3.93,2.17,8.1.16,8.53-4.55.57-6.19-4.18-7.47-6.83-8s-4.94-3.61-4.94-3.61c0,4.12,2.63,5.27,5.37,6.45a5.93,5.93,0,0,1,1.81,1.3c-.4-.67.28-1.12,1-1.18s1,1.15,1.18,1.69,1.23,1.66.64,1.92-1.36-.71-2.08-1.53a3.22,3.22,0,0,1,.64,2.6,3.61,3.61,0,0,1,1.33.4c1.13.84.71,1.94-.12,2.8s-2.54,2.23-2.8,1.64A1.59,1.59,0,0,1,40,73.92c.4-.34.24-1.07.12-1.86a3.24,3.24,0,0,1-.34.2c-3,1.43-4-2.26-6.18-5.75S28,60.69,24.4,63.3c-2.47,1.78-2.28,5-.78,7.68,1.36,2.41,8.13,7.27,6.66,9.45.83.31,3,2.39,3.13,3.59s-1.1,2.67-2.78,3S28.54,85.69,28,85.3s-.93-.15-1.53-1,1.23-2.85,1.7-3.39c-2-1.09-3.79-6.08-5.29-8.45a8.56,8.56,0,0,0-12.26-2.37c-3.76,2.59-4.2,5.7-2.31,9.31.57.51,1.29,1,1.91.84,1.32-.42,1.74-1.89,2.55-1.92s2.84,1.31,2.61,2.6-1.54,1.32-2,2.26a6.6,6.6,0,0,1-.83,1.36C15.8,87.3,20.16,89.8,20,91.86a1,1,0,0,0,1-.25c1-.87.73-1.11,1.84-1.26s3.44.48,3.21,1.77-1.08,3.21-1.3,4.2a2.12,2.12,0,0,1-3.36,1.18,11.8,11.8,0,0,1-2.86-4c-1.53.56-2.6-1.22-3.89-3.63.34,1.14.53,2.37-.26,2.5-1.32.23-1.8-.6-3.31-1.25s-1.76-2.12-.32-2.7c.44-.18,1.15.2,1.78-.59a1,1,0,0,1,.77-.44A22.67,22.67,0,0,0,11,84.16c-1.72-2.07-4.6-3.62-8.28-1.09-4.78,3.29,2,10.43,2,10.43S2.66,95,2.57,97c-.07,1.56-.87,4.5.09,5S5.11,100.71,6.83,99.68ZM38.31,74.76c0,.73-.79.45-1.67.27s-1.83.12-2-.69-.13-2.32.46-2.58,1,1.38,1.67,1.76S38.3,73.88,38.31,74.76Zm-8.22,2.81c-.5-1.18-.92-1.87.24-2.43s3.83,1.17,4.66,2.52-.52,3.25-1.27,2.79-.53-1.87-1.46-1.64A2,2,0,0,1,30.09,77.57Zm-3.35-4.16a6.88,6.88,0,0,1-3.58-5.13C23,65.85,24.83,66.52,25,66.81c.81,1.07.34,2.75.82,3.77s1.56.69,2,1.73S27.52,73.66,26.74,73.41Zm-7.05,4.9c-.26-.59-.5-2,.19-2.34,1.27-.56,2.87-.86,3.22.05s-.66,1.89,0,2.86,2.17.67,2.38,1.86-1.15,3.53-3.18,1.86A21.48,21.48,0,0,1,19.69,78.31Zm-6.82-2.26c-1.36-.13-1.43-.33-2-1.26a1.85,1.85,0,0,1,.42-2.74c.64-.29,1.49,0,2.14-.7s.36-2.45,1.58-2.42,5.09,6.35,3.2,6.38-2.48-1.54-3.37-1S14.23,76.18,12.87,76.05Zm-9.71,11C2,86,1.09,84.81,2.33,83.69s4.15-2.2,5.9-1.38,4.13,3.06,3.57,4.63c-.27.75-1.75-.82-2.82-2s-2-.6-3,.11S4.27,88.17,3.16,87.07Zm.28,1.78c.43-1,2.29-.48,3.44,1.74s2.43,2.9,1.3,3.51-1.8,0-2-.75S2.84,90.25,3.44,88.84Z"/><path class="cls-40" d="M10.83,74.79a1.85,1.85,0,0,1,.42-2.74c.64-.29,1.49,0,2.14-.7s.36-2.45,1.58-2.42,5.09,6.35,3.2,6.38-2.48-1.54-3.37-1-.57,1.83-1.93,1.7S11.44,75.72,10.83,74.79Z"/><path class="cls-40" d="M19.88,76c1.27-.56,2.87-.86,3.22.05s-.66,1.89,0,2.86,2.17.67,2.38,1.86-1.15,3.53-3.18,1.86a21.48,21.48,0,0,1-2.59-4.3C19.43,77.72,19.19,76.27,19.88,76Z"/><path class="cls-40" d="M30.33,75.14c1.16-.56,3.83,1.17,4.66,2.52s-.52,3.25-1.27,2.79-.53-1.87-1.46-1.64a2,2,0,0,1-2.16-1.25C29.59,76.4,29.17,75.71,30.33,75.14Z"/><path class="cls-40" d="M23.16,68.29C23,65.85,24.83,66.52,25,66.81c.81,1.07.34,2.75.82,3.77s1.56.69,2,1.73-.33,1.36-1.11,1.11A6.88,6.88,0,0,1,23.16,68.29Z"/><path class="cls-40" d="M25.62,66.07c-.3-1.51.56-1.95,1.65-2S29,62.87,30,63.73c.74.63.22,2.85-.6,3.75a.88.88,0,0,0-1,0,2.13,2.13,0,0,0-.43.29C27.26,67.59,25.84,67.19,25.62,66.07Z"/><path class="cls-40" d="M31.88,67.64c1.32-.42,2,1.33,2.2,2.55s-.21,2.48-.74,2.44-.42-1.5-.8-1.69-.78,0-1.35-.65l-.29-.57C30.85,69,30.68,68,31.88,67.64Z"/><path class="cls-40" d="M38.31,74.76c0,.73-.79.45-1.67.27s-1.83.12-2-.69-.13-2.32.46-2.58,1,1.38,1.67,1.76S38.3,73.88,38.31,74.76Z"/><path class="cls-40" d="M33.42,84c.18,1.34-1.1,2.67-2.78,3S28.54,85.69,28,85.3s-.93-.15-1.53-1,1.23-2.85,1.7-3.39a1.5,1.5,0,0,0,1.44.06,1.74,1.74,0,0,0,.71-.58C31.12,80.74,33.26,82.82,33.42,84Z"/><path class="cls-40" d="M40.63,66.23c.78-.07,1,1.15,1.18,1.69s1.23,1.66.64,1.92-1.36-.71-2.08-1.53a6.59,6.59,0,0,0-.75-.91C39.22,66.74,39.9,66.3,40.63,66.23Z"/><path class="cls-40" d="M42.33,71.32c1.13.84.71,1.94-.12,2.8s-2.54,2.23-2.8,1.64A1.59,1.59,0,0,1,40,73.92c.4-.34.24-1.07.12-1.86A2,2,0,0,0,41,70.92,3.61,3.61,0,0,1,42.33,71.32Z"/><path class="cls-40" d="M21.19,85c-.89,1,1.36,1.77.81,2.57s-2.34.89-3.74.22-.74-2.56-.7-4a22.61,22.61,0,0,1,.29-2.81c1.08.94,2.36,2,3.6,3.11A1.09,1.09,0,0,1,21.19,85Z"/><path class="cls-40" d="M10.19,80.27c1.32-.42,1.74-1.89,2.55-1.92s2.84,1.31,2.61,2.6-1.54,1.32-2,2.26a6.6,6.6,0,0,1-.83,1.36A16.07,16.07,0,0,1,10,82.12a18.81,18.81,0,0,1-1.75-2.69C8.85,79.94,9.57,80.47,10.19,80.27Z"/><path class="cls-40" d="M3.16,87.07C2,86,1.09,84.81,2.33,83.69s4.15-2.2,5.9-1.38,4.13,3.06,3.57,4.63c-.27.75-1.75-.82-2.82-2s-2-.6-3,.11S4.27,88.17,3.16,87.07Z"/><path class="cls-40" d="M3.44,88.84c.43-1,2.29-.48,3.44,1.74s2.43,2.9,1.3,3.51-1.8,0-2-.75S2.84,90.25,3.44,88.84Z"/><path class="cls-40" d="M12.82,93.1c.82.28.76,1,1.51,1s1.36-.83,2.06.23c.52.79.21,2.74.26,4a12,12,0,0,1-2.92-2,16.84,16.84,0,0,1-2.62-3.16A2.57,2.57,0,0,1,12.82,93.1Z"/><path class="cls-40" d="M14.31,92.38c-1.32.23-1.8-.6-3.31-1.25s-1.76-2.12-.32-2.7c.44-.18,1.15.2,1.78-.59a1,1,0,0,1,.77-.44c.49.86.93,1.7,1.35,2.48C14.9,91,15.1,92.24,14.31,92.38Z"/><path class="cls-40" d="M20.93,91.6c1-.87.73-1.11,1.84-1.26s3.44.48,3.21,1.77-1.08,3.21-1.3,4.2a2.12,2.12,0,0,1-3.36,1.18,11.8,11.8,0,0,1-2.86-4,2.59,2.59,0,0,0,.65-.36A1.85,1.85,0,0,0,20,91.86,1,1,0,0,0,20.93,91.6Z"/><path class="cls-41" d="M13.39,129.26c3,4.47,10.27,10.21,17,12.47,5,1.68,11.2,6.45,11.91,6,2.41-1.62-1.8-9.55-6.84-14.06-2.4-2.15-6.72-10-10.73-14.95s-13.24-9.31-13.47-9.56c-8.2,2.37-4.66,10.17,2.11,20.12"/><path class="cls-42" d="M20.8,136.75a33,33,0,0,1-7.55-7.39c-1.14-1.67-2.18-3.28-3.09-4.82C8,120.95,8.9,121.44,5.74,119a17.49,17.49,0,0,1-1.49-1.35A9.93,9.93,0,0,1,2,113.26l-.17-.53c-.1-.3-.2-.6-.3-.9a7.67,7.67,0,0,1-.67-3.44l0,0,0-.07A.69.69,0,0,1,1,107.6a4,4,0,0,1,.9-.8,4,4,0,0,1,.37-.25l.4-.22a6.2,6.2,0,0,1,4.61-.46,10.77,10.77,0,0,1,4.65,2.85c2.22,2.19,4.27,3.1,6.87,4.87a28.58,28.58,0,0,1,5.94,5.11c1.89,2.31,3.84,5.28,5.63,8,2,3.06,3.82,5.81,5.09,6.94a29.35,29.35,0,0,1,5.34,6.53,17.75,17.75,0,0,1,2,4.42c.34,1.31.31,2.38-.23,3a1.48,1.48,0,0,1-.28.25c-.36.24-1.81-.62-3.77-1.79a46.1,46.1,0,0,0-8.21-4.18,36.05,36.05,0,0,1-9.52-5.11m-7.42-7.49a32.81,32.81,0,0,0,7.52,7.36,35.93,35.93,0,0,0,9.48,5.09,46.21,46.21,0,0,1,8.24,4.19c1.91,1.14,3.33,2,3.6,1.8a1.29,1.29,0,0,0,.25-.22c.5-.57.52-1.58.19-2.84a17.6,17.6,0,0,0-2-4.38,29.21,29.21,0,0,0-5.32-6.5c-1.28-1.14-3.09-3.9-5.11-7-1.79-2.72-3.74-5.68-5.62-8a28.45,28.45,0,0,0-5.91-5.08c-2.21-1.5-4.4-2.74-5.85-3.53h0q-.25-.32-.52-.63t-.57-.59a11,11,0,0,0-4.7-2.82,5.59,5.59,0,0,0-4.31.34h0l-.39.21-.35.25H2a3.84,3.84,0,0,0-.86.76c-.15.2-.22.38-.16.51l0,.06,0,.06v.05a7.48,7.48,0,0,0,.66,3.38c.1.3.2.6.3.9l.17.53a9.82,9.82,0,0,0,2.19,4.29,17.41,17.41,0,0,0,1.48,1.34A8.06,8.06,0,0,0,8,120.06H8v0a42.89,42.89,0,0,0,2.3,4.35C11.21,126,12.25,127.59,13.39,129.26Z"/><path class="cls-43" d="M14.91,127.67a52.77,52.77,0,0,0,16.4,13.14c4.55,2.19,10.53,7.16,11.06,6.86,1.82-1-2.94-8.35-7.92-12.94-2.37-2.18-7.22-9.51-11.37-14.28s-12.69-9.89-12.93-10.13c-6.67.76-2.49,7.9,4.76,17.35"/><path class="cls-44" d="M14.86,127.71a66.83,66.83,0,0,0,16.08,13.48c4.31,2.44,10.75,5.89,11.2,5.68,1.52-.7-4.09-6.11-9-10.73-2.35-2.2-7.48-9.24-11.7-13.93S9,112,8.76,111.78c-5.88-.06-1.39,6.74,6.11,15.93"/><path class="cls-45" d="M40.3,145.11c.69.47,1.09,1.17,1.85,1.79-5.1-6.62-13.39-12.38-19.13-21C21.86,124.15,14.9,116,15.1,115a10.57,10.57,0,0,0-3.22-6.11c-2.94-2.9-6.77-3.87-9.12-2.48,2.36-.93,5.82.1,8.52,2.77a10.56,10.56,0,0,1,3.22,6.11c-.2,1,6.77,9.2,7.92,10.94,5.18,7.78,12.71,13.09,17.87,18.92"/><path class="cls-46" d="M11,120.16a90.66,90.66,0,0,1,11.78,11.71A44.83,44.83,0,0,0,34,141.69c2.45,1.55,4.89,2.59,8.15,5.2-5.1-6.62-13.71-12.21-19.46-20.83a118.44,118.44,0,0,0-8.06-10.34q.08-.29.14-.59A10.56,10.56,0,0,0,11.55,109c-3.13-3.08-7.25-4-9.54-2.19-.65.44-1.22,1-1.05,1.37l.07.13c-.21,1.21.45,2.73,1,4.32s1,3.47,2.37,4.84c1.16,1.14,3.77,3.69,6.62,2.67"/><path class="cls-47" d="M9.88,120.37H10l0,0-.13,0M39.26,144.8a34.29,34.29,0,0,1,2.87,2.07C37,140.25,28.42,134.66,22.68,126c-1.16-1.74-8.12-9.9-7.92-10.94A10.56,10.56,0,0,0,11.54,109c-2.57-2.53-5.81-3.59-8.16-2.9a9.58,9.58,0,0,1,7.18,3.08,10.56,10.56,0,0,1,3.22,6.11q-.06.3-.14.59a118.34,118.34,0,0,1,8.06,10.34C26.79,133.85,34.11,139.11,39.26,144.8Z"/><path class="cls-48" d="M11.05,120.2a89.55,89.55,0,0,1,11.71,11.64,44.32,44.32,0,0,0,11.16,9.75c2.44,1.53,4.87,2.56,8.11,5.16a41.57,41.57,0,0,0-3-3.49c-1.72-1.08-3.25-1.84-4.78-2.8A44.31,44.31,0,0,1,23,130.72a89.59,89.59,0,0,0-11.71-11.64c-2.85,1-5.44-1.5-6.6-2.64-1.39-1.37-1.86-3.27-2.35-4.82-1-3-1-2-1-1.71s-.05.34.74,2.84c.49,1.55,1,3.45,2.35,4.82,1.15,1.14,3.75,3.67,6.6,2.64"/><path class="cls-49" d="M5.87,118.54c2.51,2,5.68,1.71,7.08-.68s.49-6-2-8-5.69-1.71-7.08.68-.49,6,2,8"/><path class="cls-50" d="M12.8,112.4c.1.55,0,1.47.18,1.45s.35-.92.25-1.48-.45-1.14-.68-1.09.14.56.24,1.12"/><path class="cls-51" d="M12.93,112c-.06,0-.09,0-.13-.05a.68.68,0,0,1-.09-.25c.13-.23.56.23.22.3"/><path class="cls-51" d="M13.12,112.19s0,0,0,0a.19.19,0,0,1,0-.08c.06,0,.11.12,0,.1"/><path class="cls-46" d="M5.56,116.62c1.93,1.93,4.6,1.94,6,0s.9-5-1-6.94-4.61-1.94-6,0-.9,5,1,6.94"/><path class="cls-52" d="M5.56,115.29c1.67,1.66,4,1.67,5.14,0s.78-4.32-.89-6-4-1.67-5.14,0-.78,4.32.89,6"/><path class="cls-50" d="M7.86,112.57c.8,1.2,1.94,1.78,2.54,1.3s.45-1.84-.35-3-1.94-1.78-2.54-1.3-.45,1.83.35,3"/><path class="cls-50" d="M1.88,109.79a1.91,1.91,0,0,0-.74-.2,3.59,3.59,0,0,0,.06.52h0a2.8,2.8,0,0,1,.65,0,2.47,2.47,0,0,1,0-.28"/><path class="cls-50" d="M2.2,109.2a2.16,2.16,0,0,1-1.15-1c-.28-.58,1.54-1.69,2.07-1.63-1,.45-1.64,1.23-1.42,1.68.39.8.24.32.51.94"/><path class="cls-53" d="M2.21,107.74c.13,0,.24,0,.24.11s-.11.14-.24.15S2,108,2,107.89s.11-.14.24-.15"/><path class="cls-54" d="M2.19,109.81a3.58,3.58,0,0,1-1.26-1.63.61.61,0,0,1,0-.18h0a4,4,0,0,0,1.63,1.9l0,0c-.3.22-.84-.33-1.56-.43v-.07a3.63,3.63,0,0,1,1.17.38"/><path class="cls-55" d="M6,107.07a1.33,1.33,0,0,1,.68,1.79,1.43,1.43,0,0,1-1.92.44,1.33,1.33,0,0,1-.68-1.79A1.43,1.43,0,0,1,6,107.07"/><path class="cls-50" d="M6,107.21a1.19,1.19,0,0,1,.66,1.57,1.28,1.28,0,0,1-1.72.34,1.19,1.19,0,0,1-.66-1.57A1.28,1.28,0,0,1,6,107.21"/><path class="cls-56" d="M5.81,107.44a.93.93,0,0,1,.51,1.22,1,1,0,0,1-1.34.26.93.93,0,0,1-.51-1.22,1,1,0,0,1,1.34-.26"/><path class="cls-55" d="M5.26,107.17a.27.27,0,0,1,.08.38.29.29,0,0,1-.38.15.27.27,0,0,1-.08-.38.29.29,0,0,1,.38-.15"/><path class="cls-55" d="M4.53,108.31a.14.14,0,0,1,0,.2.16.16,0,0,1-.19.09.15.15,0,0,1,0-.2.16.16,0,0,1,.19-.09"/><path class="cls-55" d="M6,108.62a.39.39,0,0,1,.09.55.42.42,0,0,1-.52.23.39.39,0,0,1-.09-.55.42.42,0,0,1,.52-.23"/><path class="cls-50" d="M6.66,106.44a.51.51,0,0,1,.27.64c-.08.15-.24,0-.53-.1s-.62-.18-.53-.33a.75.75,0,0,1,.79-.2"/><path class="cls-57" d="M6.55,106.51a.24.24,0,0,1,.13.31c0,.07-.11,0-.25,0s-.29-.09-.25-.16a.36.36,0,0,1,.38-.1"/><path class="cls-47" d="M19,114.74a.21.21,0,0,1-.17.21.17.17,0,0,1-.19-.16.21.21,0,0,1,.17-.21.17.17,0,0,1,.19.16m-.58-1a.11.11,0,0,1-.12.09.09.09,0,0,1-.08-.11.11.11,0,0,1,.12-.09A.09.09,0,0,1,18.38,113.73Zm2,1.6a.14.14,0,0,1-.12.15.12.12,0,0,1-.14-.11.14.14,0,0,1,.12-.15A.12.12,0,0,1,20.42,115.32Zm.11,1.25a.15.15,0,0,1,0,.2.13.13,0,0,1-.19,0,.15.15,0,0,1,0-.2A.13.13,0,0,1,20.53,116.57Zm.81-.32a.18.18,0,0,1-.15.18.14.14,0,0,1-.17-.14.18.18,0,0,1,.15-.18A.14.14,0,0,1,21.34,116.25Zm-4.05-2.78a.25.25,0,0,1-.07.33.22.22,0,0,1-.32,0,.25.25,0,0,1,.07-.33A.22.22,0,0,1,17.29,113.47Zm-.72-.83a.24.24,0,0,1-.2.24.19.19,0,0,1-.22-.19.24.24,0,0,1,.2-.24A.19.19,0,0,1,16.57,112.64Zm-1.36-.6a.17.17,0,0,1-.1.21.14.14,0,0,1-.2-.09.17.17,0,0,1,.1-.21A.14.14,0,0,1,15.21,112Zm7.71,5.67a.14.14,0,0,1-.08.16.11.11,0,0,1-.16-.07.14.14,0,0,1,.08-.17A.11.11,0,0,1,22.92,117.71Zm-.79.07a.21.21,0,0,1-.18.22.17.17,0,0,1-.2-.17.21.21,0,0,1,.18-.22A.17.17,0,0,1,22.13,117.77Zm1.73,1.2a.23.23,0,0,1-.25.18.19.19,0,0,1-.16-.24.23.23,0,0,1,.25-.18A.19.19,0,0,1,23.86,119Zm1.18.8a.16.16,0,0,1-.14.17.13.13,0,0,1-.15-.13.16.16,0,0,1,.14-.17A.13.13,0,0,1,25,119.77Zm-.55.94a.14.14,0,0,1-.12.14.11.11,0,0,1-.13-.11.14.14,0,0,1,.12-.14A.11.11,0,0,1,24.49,120.71Zm0-2a.11.11,0,0,1-.06.13.09.09,0,0,1-.12-.05.11.11,0,0,1,.06-.13A.09.09,0,0,1,24.5,118.75Zm1.41,3a.24.24,0,0,1-.26.19.2.2,0,0,1-.16-.25.24.24,0,0,1,.26-.19A.2.2,0,0,1,25.9,121.71Zm.31-1a.18.18,0,0,1-.15.19.15.15,0,0,1-.17-.14.18.18,0,0,1,.15-.19A.15.15,0,0,1,26.21,120.7Zm1.85,3.5a.41.41,0,0,1-.12.55.37.37,0,0,1-.53-.07.41.41,0,0,1,.12-.55A.37.37,0,0,1,28.06,124.2Zm-.44-.87a.2.2,0,0,1-.17.2.16.16,0,0,1-.19-.15.2.2,0,0,1,.17-.2A.16.16,0,0,1,27.62,123.33Zm2.13,3.31a.17.17,0,0,1,0,.23.16.16,0,0,1-.23,0,.18.18,0,0,1,0-.23A.16.16,0,0,1,29.74,126.64Zm1.74,3a.29.29,0,0,1-.17.35.24.24,0,0,1-.33-.14.29.29,0,0,1,.17-.35A.24.24,0,0,1,31.48,129.68Zm-.73-1.5a.26.26,0,0,1-.32.13.23.23,0,0,1-.1-.32.26.26,0,0,1,.32-.13A.23.23,0,0,1,30.75,128.18ZM19.39,115.65a.21.21,0,0,1-.23.17.18.18,0,0,1-.15-.22.21.21,0,0,1,.23-.17A.18.18,0,0,1,19.39,115.65Z"/><path class="cls-47" d="M14.28,129.09a.2.2,0,0,0,.19-.19.17.17,0,0,0-.17-.18.2.2,0,0,0-.2.19.17.17,0,0,0,.17.18m-1-.52a.11.11,0,0,0,.08-.13.09.09,0,0,0-.12-.07.11.11,0,0,0-.08.13A.09.09,0,0,0,13.24,128.57Zm1.71,2a.14.14,0,0,0,.14-.13.12.12,0,0,0-.12-.13.14.14,0,0,0-.14.13A.12.12,0,0,0,15,130.52Zm1.23,0a.15.15,0,0,0,.19-.06.14.14,0,0,0,0-.19.15.15,0,0,0-.19.06A.14.14,0,0,0,16.19,130.55Zm-.25.84a.18.18,0,0,0,.17-.16.14.14,0,0,0-.15-.16.18.18,0,0,0-.17.16A.14.14,0,0,0,15.94,131.39Zm-3-3.9a.24.24,0,0,0,.32-.09.23.23,0,0,0-.06-.32.24.24,0,0,0-.32.09A.23.23,0,0,0,12.92,127.49Zm-.87-.67a.24.24,0,0,0,.23-.22.19.19,0,0,0-.2-.21.24.24,0,0,0-.23.22A.19.19,0,0,0,12,126.81Zm-.69-1.33a.17.17,0,0,0,.2-.12.15.15,0,0,0-.1-.19.17.17,0,0,0-.2.12A.15.15,0,0,0,11.36,125.49Zm6.12,7.39a.13.13,0,0,0,.16-.09.12.12,0,0,0-.08-.15.13.13,0,0,0-.16.09A.12.12,0,0,0,17.48,132.88Zm0-.8a.21.21,0,0,0,.2-.2.17.17,0,0,0-.18-.19.21.21,0,0,0-.2.2A.17.17,0,0,0,17.49,132.08Zm1.3,1.66a.23.23,0,0,0,.16-.26.19.19,0,0,0-.24-.14.23.23,0,0,0-.16.26A.19.19,0,0,0,18.79,133.74Zm.87,1.14a.16.16,0,0,0,.16-.15.13.13,0,0,0-.14-.15.16.16,0,0,0-.16.15A.13.13,0,0,0,19.66,134.88Zm.89-.62a.14.14,0,0,0,.13-.13.11.11,0,0,0-.11-.12.14.14,0,0,0-.13.13A.11.11,0,0,0,20.54,134.27Zm-1.92.14a.11.11,0,0,0,.12-.07.09.09,0,0,0-.06-.12.11.11,0,0,0-.12.07A.09.09,0,0,0,18.62,134.4Zm3,1.22a.24.24,0,0,0,.17-.27.2.2,0,0,0-.25-.15.24.24,0,0,0-.17.27A.2.2,0,0,0,21.63,135.62Zm-1,.38a.18.18,0,0,0,.17-.17.15.15,0,0,0-.15-.16.18.18,0,0,0-.17.17A.15.15,0,0,0,20.66,136Zm3.57,1.63a.4.4,0,0,0,.54-.16.38.38,0,0,0-.11-.53.4.4,0,0,0-.54.15A.38.38,0,0,0,24.23,137.63Zm-.89-.39a.2.2,0,0,0,.19-.18.16.16,0,0,0-.17-.18.2.2,0,0,0-.19.18A.16.16,0,0,0,23.34,137.24Zm3.41,1.92a.17.17,0,0,0,.23-.07.16.16,0,0,0,0-.23.17.17,0,0,0-.23.07A.16.16,0,0,0,26.75,139.16Zm3.12,1.55a.28.28,0,0,0,.33-.19.25.25,0,0,0-.16-.32.28.28,0,0,0-.33.2A.25.25,0,0,0,29.87,140.71Zm-1.53-.64a.26.26,0,0,0,.11-.34.22.22,0,0,0-.32-.08A.26.26,0,0,0,28,140,.23.23,0,0,0,28.34,140.07ZM15.21,129.45a.21.21,0,0,0,.15-.24.17.17,0,0,0-.22-.13.21.21,0,0,0-.15.24A.17.17,0,0,0,15.21,129.45Z"/><path class="cls-47" d="M33.51,134.9a.21.21,0,0,1,.18-.2.17.17,0,0,1,.19.17.2.2,0,0,1-.18.2.17.17,0,0,1-.19-.17m.55,1a.11.11,0,0,1,.12-.08.09.09,0,0,1,.07.12.11.11,0,0,1-.12.08A.09.09,0,0,1,34.06,135.94Zm-2-1.68a.14.14,0,0,1,.13-.14.12.12,0,0,1,.13.12.14.14,0,0,1-.13.14A.12.12,0,0,1,32.08,134.27ZM32,133a.15.15,0,0,1,0-.2.13.13,0,0,1,.19,0,.15.15,0,0,1,0,.2A.13.13,0,0,1,32,133Zm-.82.29a.18.18,0,0,1,.16-.17.14.14,0,0,1,.16.14.18.18,0,0,1-.16.18A.14.14,0,0,1,31.19,133.3Zm3.94,2.94a.25.25,0,0,1,.08-.33.22.22,0,0,1,.32.06.25.25,0,0,1-.08.33A.22.22,0,0,1,35.13,136.24Zm.69.86a.24.24,0,0,1,.21-.24.19.19,0,0,1,.22.19.24.24,0,0,1-.21.24A.19.19,0,0,1,35.82,137.1Zm1.33.66a.17.17,0,0,1,.11-.2.14.14,0,0,1,.19.09.17.17,0,0,1-.11.2A.14.14,0,0,1,37.15,137.76Zm-7.48-6a.14.14,0,0,1,.09-.16.11.11,0,0,1,.15.07.14.14,0,0,1-.09.16A.11.11,0,0,1,29.67,131.78Zm.79,0a.21.21,0,0,1,.19-.21.17.17,0,0,1,.19.17.21.21,0,0,1-.19.21A.17.17,0,0,1,30.46,131.75Zm-1.68-1.26a.23.23,0,0,1,.25-.17.19.19,0,0,1,.15.24.23.23,0,0,1-.25.17A.19.19,0,0,1,28.78,130.48Zm-1.15-.84a.16.16,0,0,1,.14-.16.13.13,0,0,1,.15.13.16.16,0,0,1-.14.16A.13.13,0,0,1,27.63,129.64Zm.58-.92a.14.14,0,0,1,.12-.14.11.11,0,0,1,.12.11.14.14,0,0,1-.12.14A.11.11,0,0,1,28.21,128.72Zm-.07,2a.11.11,0,0,1,.07-.13.09.09,0,0,1,.12.06.11.11,0,0,1-.07.13A.09.09,0,0,1,28.14,130.68Zm-1.3-3a.24.24,0,0,1,.26-.18.2.2,0,0,1,.16.25.24.24,0,0,1-.26.18A.2.2,0,0,1,26.84,127.66Zm-.34,1a.18.18,0,0,1,.16-.18.15.15,0,0,1,.16.15.18.18,0,0,1-.16.18A.15.15,0,0,1,26.5,128.66Zm-1.72-3.57a.41.41,0,0,1,.13-.55.37.37,0,0,1,.53.09.41.41,0,0,1-.13.55A.37.37,0,0,1,24.78,125.09Zm.41.89a.2.2,0,0,1,.17-.2.16.16,0,0,1,.18.16.2.2,0,0,1-.17.2A.16.16,0,0,1,25.19,126Zm-2-3.4a.18.18,0,0,1,.06-.23.16.16,0,0,1,.22,0,.18.18,0,0,1-.06.23A.16.16,0,0,1,23.19,122.58Zm-1.62-3.11a.29.29,0,0,1,.18-.34.24.24,0,0,1,.32.16.29.29,0,0,1-.18.34A.24.24,0,0,1,21.56,119.46Zm.68,1.53a.25.25,0,0,1,.33-.12.23.23,0,0,1,.09.32.25.25,0,0,1-.33.12A.23.23,0,0,1,22.24,121Zm10.88,13a.21.21,0,0,1,.23-.16.18.18,0,0,1,.14.22.21.21,0,0,1-.23.16A.18.18,0,0,1,33.12,134Z"/><path class="cls-47" d="M24.73,135.18a.21.21,0,0,1,.16-.22.17.17,0,0,1,.21.14.2.2,0,0,1-.16.22.17.17,0,0,1-.21-.14m.67,1a.11.11,0,0,1,.11-.1.09.09,0,0,1,.09.11.11.11,0,0,1-.11.1A.09.09,0,0,1,25.4,136.13Zm-2.18-1.41a.14.14,0,0,1,.11-.16.12.12,0,0,1,.14.1.14.14,0,0,1-.11.16A.12.12,0,0,1,23.22,134.72ZM23,133.5a.15.15,0,0,1,0-.2.14.14,0,0,1,.2,0,.15.15,0,0,1,0,.2A.14.14,0,0,1,23,133.5Zm-.79.38a.18.18,0,0,1,.14-.19.14.14,0,0,1,.18.12.18.18,0,0,1-.14.19A.14.14,0,0,1,22.21,133.88Zm4.29,2.41a.25.25,0,0,1,0-.34.23.23,0,0,1,.33,0,.25.25,0,0,1,0,.34A.23.23,0,0,1,26.51,136.29Zm.79.76a.24.24,0,0,1,.18-.26.19.19,0,0,1,.24.17.24.24,0,0,1-.18.26A.19.19,0,0,1,27.3,137.06Zm1.41.48a.17.17,0,0,1,.08-.21.14.14,0,0,1,.2.07.17.17,0,0,1-.08.21A.15.15,0,0,1,28.71,137.54Zm-8.2-5a.14.14,0,0,1,.07-.17.12.12,0,0,1,.16.05.14.14,0,0,1-.07.17A.11.11,0,0,1,20.51,132.58Zm.79-.13a.21.21,0,0,1,.16-.23.17.17,0,0,1,.21.15.21.21,0,0,1-.16.23A.17.17,0,0,1,21.3,132.44Zm-1.83-1a.23.23,0,0,1,.23-.2.19.19,0,0,1,.18.22.23.23,0,0,1-.23.2A.19.19,0,0,1,19.47,131.4Zm-1.25-.69a.16.16,0,0,1,.13-.18.13.13,0,0,1,.16.11.16.16,0,0,1-.13.18A.13.13,0,0,1,18.22,130.72Zm.47-1a.14.14,0,0,1,.1-.15.11.11,0,0,1,.14.09.14.14,0,0,1-.1.15A.11.11,0,0,1,18.69,129.74Zm.16,1.93a.11.11,0,0,1,.05-.13.09.09,0,0,1,.13,0,.11.11,0,0,1-.05.13A.09.09,0,0,1,18.85,131.67Zm-1.65-2.81a.24.24,0,0,1,.24-.21.2.2,0,0,1,.19.23.24.24,0,0,1-.24.21A.2.2,0,0,1,17.19,128.87Zm-.23,1a.18.18,0,0,1,.14-.2.15.15,0,0,1,.18.13.18.18,0,0,1-.14.2A.15.15,0,0,1,17,129.89Zm-2.14-3.3a.41.41,0,0,1,.07-.56.38.38,0,0,1,.54,0,.41.41,0,0,1-.07.56A.37.37,0,0,1,14.83,126.59Zm.51.82a.2.2,0,0,1,.15-.21.16.16,0,0,1,.2.14.2.2,0,0,1-.15.21A.16.16,0,0,1,15.34,127.41Zm-2.4-3.1a.17.17,0,0,1,0-.24.16.16,0,0,1,.23,0,.17.17,0,0,1,0,.24A.16.16,0,0,1,12.94,124.31Zm-2-2.86a.29.29,0,0,1,.14-.36.24.24,0,0,1,.34.11.29.29,0,0,1-.14.36A.24.24,0,0,1,10.94,121.45Zm.86,1.42a.26.26,0,0,1,.31-.16.23.23,0,0,1,.13.31.26.26,0,0,1-.31.16A.23.23,0,0,1,11.8,122.87Zm12.42,11.44a.21.21,0,0,1,.21-.18.17.17,0,0,1,.16.2.21.21,0,0,1-.21.18A.17.17,0,0,1,24.23,134.31Z"/><path class="cls-58" d="M7.23,162.75a3.35,3.35,0,0,0,4,1.21,2.31,2.31,0,0,0,1.48-3.29,3.35,3.35,0,0,0-4-1.21A2.31,2.31,0,0,0,7.23,162.75Z"/><path class="cls-59" d="M10.18,173.28a2.08,2.08,0,0,1,1.57.37A1.77,1.77,0,0,1,12,173a4.61,4.61,0,0,0,.24-.67c.11-.3.23-.61.33-.91l0-.06-2.2-1.25,0,.13c-.26.72-.51,1.44-.78,2.16a3.59,3.59,0,0,1-.46.87,2.08,2.08,0,0,1-.59.46l-.21.13C9,174.08,9.61,173.56,10.18,173.28Z"/><path class="cls-60" d="M15,174.87a1.08,1.08,0,0,0-1.31-.35,1.11,1.11,0,0,0-.29.16c-.61-.15-1.33-.21-1.57-.7a.56.56,0,0,1-.05-.33,2.08,2.08,0,0,0-1.57-.37c-.56.28-1.13.8-1.87.61-.86.49-2,.7-2.87,1.19a6.4,6.4,0,0,0-1.54,1.17c-.28.3-.74.65-.85,1a1.43,1.43,0,0,0-.61.09c-.56.21-.82.71-.59,1.11a1.18,1.18,0,0,0,1.42.36c.54-.2.8-.69.6-1.09a7.07,7.07,0,0,0,.85-1,6.33,6.33,0,0,1,1.65-1.43c.22-.13,1.49-.71,1.49-.06,0,.19-.31.41-.42.57a7.22,7.22,0,0,0-.53.84,4.45,4.45,0,0,0-.55,1.75,1.34,1.34,0,0,0-.3.07.86.86,0,0,0-.56,1.22,1.25,1.25,0,0,0,1.5.44A.86.86,0,0,0,7.57,179a.91.91,0,0,0-.15-.19A5.44,5.44,0,0,0,8,176.94a4,4,0,0,1,.64-1.25c.23-.34.35-.61.8-.76a2.73,2.73,0,0,1,.38,1.56,4.42,4.42,0,0,0,.13.89c-.43.26-.63.68-.44,1a1.27,1.27,0,0,0,1.52.31c.61-.23.93-.74.7-1.14a1,1,0,0,0-.9-.42c0-.11,0-.22,0-.34,0-.46-.29-1.59.19-1.92.25-.17.59,0,.84.05a10.51,10.51,0,0,0,1,.33l.19,0a.62.62,0,0,0,.07.25,1.08,1.08,0,0,0,1.31.35C14.95,175.71,15.18,175.25,15,174.87Z"/><path class="cls-61" d="M31.14,165.15s1.3.51,2.62,1.13a16.59,16.59,0,0,1-1.14-1.88A5.79,5.79,0,0,0,31.14,165.15Z"/><path class="cls-62" d="M37.37,168.51a6.91,6.91,0,0,0-2.81-3.9,10.5,10.5,0,0,1,.68,2.43c.27.15.51.31.72.45Z"/><path class="cls-63" d="M34,164.35a2.2,2.2,0,0,0-1.33.06,16.59,16.59,0,0,0,1.14,1.88c.51.24,1,.5,1.47.76a10.5,10.5,0,0,0-.68-2.43A3.8,3.8,0,0,0,34,164.35Z"/><path class="cls-64" d="M6.94,168.56A7.51,7.51,0,0,1,8,169H8c2.14-.41,4.29.1,6.43-.62a6.34,6.34,0,0,0,.69-.17c-4.49,0-9-.33-13.12-1.86A17.36,17.36,0,0,0,6.94,168.56Z"/><path class="cls-65" d="M15.85,167.62c.22-2.27-1.52-4.3-3.06-6.23a29.56,29.56,0,0,0-3.4.45,21.65,21.65,0,0,0-4.44.67c-2.51.64-3.7,2.43-3.19,3.48a1.16,1.16,0,0,0,.26.33c4.07,1.53,8.63,1.84,13.12,1.86C15.52,168,15.85,167.87,15.85,167.62Z"/><path class="cls-66" d="M37.31,169.49a1.31,1.31,0,0,0,.07-1h0l-1.42-1A58.35,58.35,0,0,0,29,164.28a16.72,16.72,0,0,0-5.36-.88A9.09,9.09,0,0,1,17.54,162c-1.07-.65-3-.7-4.75-.58,1.54,1.93,3.28,4,3.06,6.23,0,.41-.88.62-1.39.72-2.14.72-4.29.21-6.43.62H8c.66.3,1.55.72,2.43,1.18l2.2,1.25a5.94,5.94,0,0,1,.76.57,25.49,25.49,0,0,0,3.3,2.25,24.18,24.18,0,0,1-2.42-4.13,7.6,7.6,0,0,1,1.27.05c-.22-.24-.05-.43-.19-.71,6.9,0,13.1,1.42,19.63,3.21l.59-.39A4.19,4.19,0,0,0,37.31,169.49Z"/><path class="cls-67" d="M15.5,170.14c3.43.43,5.6,3.18,7.63,5.41,0-.13,0-.21,0-.21.63.68,5.26-.21,5.74-.31a19.37,19.37,0,0,0,6.05-2.39c-6.53-1.8-12.59-3.21-19.5-3.21C15.59,169.71,15.29,169.91,15.5,170.14Z"/><path class="cls-68" d="M37.18,171.79c-.33-.78-.72-1.28-1.51-.61A25.2,25.2,0,0,0,29,178.7c1.36-.8,2.95-1.25,4.37-2l-.53.21S36.76,173.71,37.18,171.79Z"/><path class="cls-69" d="M28.47,182.22a14.48,14.48,0,0,0-2.13.3,1.54,1.54,0,0,0-1.37-.41c-.74.1-1.26.55-1.17,1s.76.77,1.5.68a1.35,1.35,0,0,0,1.15-.73c.73.13,1.89.22,2.43.39.87.27,1.54.72,1,1.48a1.66,1.66,0,0,0-.22.51h0c-.7.09-1.18.61-1.07,1.16a1.26,1.26,0,0,0,1.46.82c.7-.09,1.18-.61,1.07-1.16a.84.84,0,0,0-.15-.34c.11-.11.22-.23.33-.35a5,5,0,0,0-2.42-2.69C28.86,182.78,28.59,182.51,28.47,182.22Z"/><path class="cls-70" d="M28.44,181.82c.56-.47,1.25-.31,1.91-.27-.24-.12-.58-.29-.92-.42a18.35,18.35,0,0,1-2-1,.76.76,0,0,0-.63.8,1,1,0,0,0,1.12.59h.05a2.07,2.07,0,0,0,.5.6A.47.47,0,0,1,28.44,181.82Z"/><path class="cls-71" d="M29,178.61a25.33,25.33,0,0,1,6.63-7.44c.79-.67,1.19-.16,1.51.61a1.24,1.24,0,0,0,0-.56,2.11,2.11,0,0,0-2.38-1.51c-2.4,3-6.38,5.6-8.19,8.78a1.18,1.18,0,0,0,.27,1.25c.17.15.33.27.5.4l.56.3A2.39,2.39,0,0,1,29,178.61Z"/><path class="cls-72" d="M35,181.88c-1.14-.1-4.3-.14-4.3-.14l-.37-.2c-.66,0-1.35-.2-1.91.27a.47.47,0,0,0,0,.3l.12.1h-.08c.12.29.39.55.41.68a5,5,0,0,1,2.42,2.69c.63-.72,1.25-1.65,1.81-1.72.8-.1,3.08.45,5.51-1.8S45.24,177.19,45,176a8.84,8.84,0,0,0-3.1,1.08C41.38,177.53,36.09,182,35,181.88Z"/><path class="cls-73" d="M40.31,174.24c-2.39.66-5.68,1.94-6.95,2.45-1.43.77-3,1.22-4.37,2l.05-.09A2.39,2.39,0,0,0,28,180.44a11,11,0,0,0,1.46.69,6.24,6.24,0,0,0,3.45-.46C35.27,179.82,42,177,42,177l0,0A8.84,8.84,0,0,1,45,176a.56.56,0,0,0,0-.06C44.62,174.79,43.33,173.4,40.31,174.24Z"/><path class="cls-74" d="M6.67,165.23a3.35,3.35,0,0,0,4,1.21,2.31,2.31,0,0,0,1.48-3.29,3.35,3.35,0,0,0-4-1.21A2.31,2.31,0,0,0,6.67,165.23Z"/><path class="cls-75" d="M6.81,165.27a3,3,0,0,0,3.66,1.1,2.1,2.1,0,0,0,1.35-3,3,3,0,0,0-3.66-1.1A2.1,2.1,0,0,0,6.81,165.27Z"/><path class="cls-76" d="M6.88,165.29a2.84,2.84,0,0,0,3.41,1,2,2,0,0,0,1.26-2.79,2.84,2.84,0,0,0-3.41-1A2,2,0,0,0,6.88,165.29Z"/><path class="cls-77" d="M31.48,171.61a23.33,23.33,0,0,1-2.34-.49c-.49-.13-1-.22-1.45-.38-.24-.08-.48-.09-.72-.15s-.53-.16-.8-.21c-.72-.14-1.42-.26-2.14-.35-.45-.06-.91-.1-1.36-.18s-.84-.24-1.28-.35a6.88,6.88,0,0,0-1.63-.18c-.4,0-.77.1-1.18.07s-.56-.15-.85-.19a13.8,13.8,0,0,0-1.61,0,2.24,2.24,0,0,0-1.16.3c-.23.14-.34.26-.23.48a.67.67,0,0,0,.46.34c.23.08.32.05.38-.07s-.18-.48,0-.48a4,4,0,0,1,1.57-.1h0a1.12,1.12,0,0,1,.35.13c.09.06.1.15.14.24s.14.39.23.56.33.58.55.5,0-.6,0-.74-.14-.47.29-.47.77,0,.92.44.15.86.28,1.29a4.24,4.24,0,0,0,.41,1c.11.18.4.6.72.56s0-.43,0-.54a7.87,7.87,0,0,1-.36-.85,2.65,2.65,0,0,1-.08-.9.89.89,0,0,1,.44-.88,1.16,1.16,0,0,1,1.52.37,2.84,2.84,0,0,1,.18,2.21,2.46,2.46,0,0,0,.09,1.71.58.58,0,0,0,.6.25c.24,0,.22-.15.24-.35.06-.55,0-1.12,0-1.68A4.81,4.81,0,0,1,24.1,171c.16-.35.42-.72.93-.54.89.32.82,1.26.76,1.94,0,.28-.55,2.32-.07,2.36.26,0,.5-.38.58-.53.17-.31.34-.62.49-.94.27-.57.42-1.18.7-1.74.12-.24.39-.45.66-.2a1,1,0,0,1,.25.68c0,.43,0,.87,0,1.3,0,.18,0,.6.18.73s.33-.09.43-.23a8.66,8.66,0,0,0,.52-.81,5.69,5.69,0,0,1,.24-.57c.38-.55,1.27-.31,1.88-.28.22,0,.56,0,.62-.24S31.7,171.65,31.48,171.61Z"/><path class="cls-78" d="M34.82,169.71a3,3,0,0,0-1.81.79s-5.73,5.25-6.38,8C28.44,175.31,32.42,172.66,34.82,169.71Z"/><path class="cls-79" d="M16.23,183.47c-.44-.27.17-.92.25-1.56l-.29.17a15,15,0,0,0-1-1.24.57.57,0,0,0,0-.62,1,1,0,0,0-1.16-.32.67.67,0,0,0-.45.93.93.93,0,0,0,1,.38,14.58,14.58,0,0,0,1.26,1.68s-3.38-.59-4.47-.14l-.23.11a1.32,1.32,0,0,0-.9,0c-.53.2-.78.69-.56,1.09a1.14,1.14,0,0,0,1.38.36.86.86,0,0,0,.63-.84c1.23-.66,4,.37,4,.37a4.7,4.7,0,0,0-3.72,2.68l0,0a1,1,0,0,0-.33.06.64.64,0,0,0-.41.92.93.93,0,0,0,1.12.34.64.64,0,0,0,.41-.92.7.7,0,0,0-.17-.2,3.94,3.94,0,0,1,.72-1.26c.85-1.18,3.3-1,3.3-1a7.24,7.24,0,0,0,0,2.49,1.67,1.67,0,0,0,.22.47.68.68,0,0,0-.22.87,1.12,1.12,0,0,0,1.35.35c.52-.2.77-.67.55-1.06a1.08,1.08,0,0,0-1.21-.39v0c-.74-1.31.33-3.3.33-3.3l.61-.48A3.4,3.4,0,0,1,16.23,183.47Z"/><path class="cls-80" d="M21.65,175l-.26-.22c-2.19-1.69-5-2.7-6.63-4.74h-.54a24.18,24.18,0,0,0,2.42,4.13c1.24.75,2.33,1.36,2.33,1.36l-.08.34A4.26,4.26,0,0,1,21.65,175Z"/><path class="cls-81" d="M18.9,175.91c-.28,1.13-1.16,4.74-1.26,5.06s-.76.7-1.16.93c-.09.64-.69,1.29-.25,1.56a3.4,3.4,0,0,0,1.89,0c.63-.51,1.69-1.38,2.85-2.44a8.44,8.44,0,0,0,2-4.43A6.94,6.94,0,0,0,21.65,175,4.26,4.26,0,0,0,18.9,175.91Z"/><path class="cls-82" d="M14.77,170.09c1.62,2,4.44,3,6.63,4.74A7.1,7.1,0,0,1,23,176.61c.09-.46.14-.84.16-1.06C21,173.17,18.63,170.19,14.77,170.09Z"/><path class="cls-83" d="M8.49,165.52l.62-2.64A3.41,3.41,0,0,0,8.49,165.52Z"/><ellipse class="cls-84" cx="9.97" cy="163.52" rx="0.28" ry="0.23"/><path class="cls-84" d="M12.59,162.07h.26l.74,0c.32,0,.71,0,1.15.1a12.65,12.65,0,0,1,1.47.25,6.56,6.56,0,0,1,1.65.6l.2.12.19.11.19.09.21.08a5.26,5.26,0,0,0,.92.22c.65.1,1.35.13,2.06.16s1.45.07,2.18.14a14.93,14.93,0,0,1,2.17.38,9.57,9.57,0,0,1,1,.32l.94.35,1.79.68,1.59.62.71.28.63.26,1,.43.66.28.23.1-.24-.08-.69-.23L32.58,167l-.65-.22-.73-.24L29.58,166l-1.81-.63-1-.34c-.32-.11-.64-.21-1-.29a14.49,14.49,0,0,0-2.08-.35c-.71-.08-1.43-.11-2.15-.15a18.55,18.55,0,0,1-2.12-.21,5.23,5.23,0,0,1-1-.27l-.23-.1-.23-.12-.19-.12-.18-.11a6.58,6.58,0,0,0-1.53-.62c-.51-.14-1-.25-1.42-.32s-.81-.13-1.13-.17l-.73-.08Z"/></svg>