<svg id="Layer_1" data-name="Layer 1" xmlns="http://www.w3.org/2000/svg" xmlns:xlink="http://www.w3.org/1999/xlink" viewBox="0 0 180.02 173.07"><defs><style>.cls-1{fill:#ee4a83;}.cls-2{fill:#ef65a4;}.cls-3{fill:#d61d52;}.cls-4{fill:url(#linear-gradient);}.cls-5{fill:url(#linear-gradient-2);}.cls-6{fill:url(#linear-gradient-3);}.cls-7{fill:url(#linear-gradient-4);}.cls-8{fill:url(#linear-gradient-5);}.cls-9{fill:url(#linear-gradient-6);}.cls-10{fill:url(#linear-gradient-7);}.cls-11{fill:url(#linear-gradient-8);}.cls-12{fill:url(#linear-gradient-9);}.cls-13{fill:url(#linear-gradient-10);}.cls-14{fill:url(#linear-gradient-11);}.cls-15{fill:url(#linear-gradient-12);}.cls-16{fill:url(#linear-gradient-13);}.cls-17{fill:url(#linear-gradient-14);}.cls-18{fill:url(#linear-gradient-15);}.cls-19{fill:url(#linear-gradient-16);}.cls-20{fill:url(#linear-gradient-17);}.cls-21{fill:url(#radial-gradient);}.cls-22{fill:url(#radial-gradient-2);}.cls-23{fill:url(#linear-gradient-18);}.cls-24{fill:url(#linear-gradient-19);}.cls-25{fill:url(#linear-gradient-20);}.cls-26{fill:url(#linear-gradient-21);}.cls-27{fill:url(#linear-gradient-22);}.cls-28{fill:url(#linear-gradient-23);}.cls-29{fill:#221f1f;}.cls-30{fill:#fff;}</style><linearGradient id="linear-gradient" x1="-828.61" y1="12.78" x2="-825.91" y2="25.99" gradientTransform="translate(858.43 101.22) rotate(3)" gradientUnits="userSpaceOnUse"><stop offset="0" stop-color="#84c241"/><stop offset="0.02" stop-color="#89c441"/><stop offset="0.17" stop-color="#a3cd43"/><stop offset="0.3" stop-color="#b3d345"/><stop offset="0.4" stop-color="#b9d545"/><stop offset="1" stop-color="#456f34"/></linearGradient><linearGradient id="linear-gradient-2" x1="-831.17" y1="55.43" x2="-819.23" y2="58.41" gradientTransform="translate(858.43 101.22) rotate(3)" gradientUnits="userSpaceOnUse"><stop offset="0" stop-color="#456f34"/><stop offset="0.6" stop-color="#b9d545"/><stop offset="0.7" stop-color="#b3d345"/><stop offset="0.83" stop-color="#a3cd43"/><stop offset="0.98" stop-color="#89c441"/><stop offset="1" stop-color="#84c241"/></linearGradient><linearGradient id="linear-gradient-3" x1="-829.64" y1="58.89" x2="-833.77" y2="77.36" gradientTransform="translate(858.43 101.22) rotate(3)" gradientUnits="userSpaceOnUse"><stop offset="0" stop-color="#b9d545"/><stop offset="0.24" stop-color="#d5b136"/><stop offset="0.47" stop-color="#ec922a"/><stop offset="0.61" stop-color="#f58725"/><stop offset="1" stop-color="#965624"/></linearGradient><linearGradient id="linear-gradient-4" x1="-753.86" y1="32.8" x2="-744.79" y2="32.8" gradientTransform="translate(858.43 101.22) rotate(3)" gradientUnits="userSpaceOnUse"><stop offset="0" stop-color="#264b9b"/><stop offset="1" stop-color="#10bef0"/></linearGradient><linearGradient id="linear-gradient-5" x1="-742.05" y1="37" x2="-732.31" y2="37" xlink:href="#linear-gradient-4"/><linearGradient id="linear-gradient-6" x1="-751.36" y1="34.73" x2="-728.08" y2="32.34" xlink:href="#linear-gradient-2"/><linearGradient id="linear-gradient-7" x1="-833.58" y1="45.29" x2="-831.06" y2="36.41" xlink:href="#linear-gradient-2"/><linearGradient id="linear-gradient-8" x1="-832.86" y1="41.98" x2="-825.75" y2="16.86" xlink:href="#linear-gradient-2"/><linearGradient id="linear-gradient-9" x1="-789.08" y1="66.72" x2="-777.18" y2="24.69" xlink:href="#linear-gradient-2"/><linearGradient id="linear-gradient-10" x1="-776.26" y1="69.1" x2="-774.03" y2="48.82" xlink:href="#linear-gradient-4"/><linearGradient id="linear-gradient-11" x1="-8285.12" y1="65.45" x2="-8256.76" y2="65.45" gradientTransform="matrix(-1, -0.05, -0.05, 1, -8147.28, -370.83)" xlink:href="#linear-gradient-4"/><linearGradient id="linear-gradient-12" x1="-752.91" y1="94.36" x2="-768.3" y2="100.78" xlink:href="#linear-gradient-3"/><linearGradient id="linear-gradient-13" x1="-754.21" y1="94.13" x2="-766.93" y2="85.32" xlink:href="#linear-gradient-3"/><linearGradient id="linear-gradient-14" x1="-759.09" y1="61.78" x2="-745.58" y2="70.04" xlink:href="#linear-gradient-2"/><linearGradient id="linear-gradient-15" x1="-734.51" y1="80.46" x2="-726.47" y2="93.76" xlink:href="#linear-gradient-2"/><linearGradient id="linear-gradient-16" x1="-738.84" y1="68.37" x2="-734.08" y2="80.65" xlink:href="#linear-gradient-2"/><linearGradient id="linear-gradient-17" x1="-8199.55" y1="28.8" x2="-8178.53" y2="28.8" gradientTransform="matrix(-1, -0.05, -0.05, 1, -8147.28, -370.83)" xlink:href="#linear-gradient"/><radialGradient id="radial-gradient" cx="-8316.06" cy="27.06" r="8.86" gradientTransform="matrix(-1.22, -0.06, -0.05, 1, -10147.93, -475.7)" gradientUnits="userSpaceOnUse"><stop offset="0" stop-color="#3066af"/><stop offset="0.71" stop-color="#2b60ab"/><stop offset="1" stop-color="#285ca8"/></radialGradient><radialGradient id="radial-gradient-2" cx="-8315.86" cy="27.53" r="8.25" gradientTransform="matrix(-1.22, -0.06, -0.05, 1, -10147.93, -475.7)" gradientUnits="userSpaceOnUse"><stop offset="0" stop-color="#ed4523"/><stop offset="0.13" stop-color="#e74322"/><stop offset="0.3" stop-color="#d73e20"/><stop offset="0.49" stop-color="#bb351d"/><stop offset="0.69" stop-color="#952918"/><stop offset="0.91" stop-color="#651912"/><stop offset="1" stop-color="#4e120f"/></radialGradient><linearGradient id="linear-gradient-18" x1="-779.42" y1="47.7" x2="-782.86" y2="63.37" gradientTransform="translate(858.43 101.22) rotate(3)" gradientUnits="userSpaceOnUse"><stop offset="0" stop-color="#fbed34"/><stop offset="0.17" stop-color="#e9e739"/><stop offset="0.49" stop-color="#cfdd3f"/><stop offset="0.78" stop-color="#bfd744"/><stop offset="1" stop-color="#b9d545"/></linearGradient><linearGradient id="linear-gradient-19" x1="-8276.93" y1="63.09" x2="-8248.59" y2="63.09" gradientTransform="matrix(-1, -0.05, -0.05, 1, -8147.28, -370.83)" xlink:href="#linear-gradient-4"/><linearGradient id="linear-gradient-20" x1="-798.34" y1="92.87" x2="-817.86" y2="106.12" xlink:href="#linear-gradient-3"/><linearGradient id="linear-gradient-21" x1="-810.29" y1="60.98" x2="-786.2" y2="54.15" xlink:href="#linear-gradient-2"/><linearGradient id="linear-gradient-22" x1="-800.39" y1="79.11" x2="-786.61" y2="84.96" xlink:href="#linear-gradient-2"/><linearGradient id="linear-gradient-23" x1="-799.88" y1="63.95" x2="-788.57" y2="52.88" xlink:href="#linear-gradient-4"/></defs><title>infront-position</title><polygon class="cls-1" points="72.75 137.02 43.91 106.67 43.91 0 74.03 30.83 74.56 129.08 72.75 137.02"/><polygon class="cls-2" points="180.02 30.26 144.32 0 43.9 0 73.58 31.2 180.02 30.26"/><rect class="cls-3" x="72.75" y="30.26" width="107.27" height="106.76"/><path class="cls-4" d="M21.71,81.21c2.2,4.42,8.33,6.62,13.7,4.92S43.33,79.46,41.13,75s-8.33-6.62-13.7-4.92S19.51,76.79,21.71,81.21Z"/><path class="cls-5" d="M30,118.14c2-.5,3.62.56,5.36,1.56a6.12,6.12,0,0,1,1-2,15.93,15.93,0,0,0,1-2.26c.45-1,.89-2,1.3-3.09l.08-.21-7.39-4.73-.19.43c-1,2.44-2,4.87-3.08,7.31A12.41,12.41,0,0,1,26.25,118a7.18,7.18,0,0,1-2.11,1.47c-.24.14-.48.27-.73.4C25.95,120.7,28,119,30,118.14Z"/><path class="cls-6" d="M46.25,124.48c-.68-1.36-2.67-2-4.45-1.44a3.83,3.83,0,0,0-1,.51c-2.08-.63-4.55-1-5.3-2.71a1.93,1.93,0,0,1-.12-1.14c-1.75-1-3.38-2.05-5.36-1.56-2,.85-4,2.56-6.59,1.77-3.07,1.55-7,2.06-10.14,3.59a22.14,22.14,0,0,0-5.53,3.76c-1,1-2.67,2.13-3.13,3.44a5,5,0,0,0-2.13.19c-2,.62-3,2.3-2.24,3.74s2.89,2.11,4.85,1.49,2.9-2.22,2.28-3.64a24.47,24.47,0,0,0,3.11-3.17,21.91,21.91,0,0,1,6-4.64c.78-.39,5.27-2.19,5.16.06,0,.64-1.14,1.37-1.54,1.88a25,25,0,0,0-2,2.81,15.4,15.4,0,0,0-2.23,6,4.65,4.65,0,0,0-1,.19c-2,.64-3,2.48-2.16,4.11a4.32,4.32,0,0,0,5.11,1.8c2-.64,3-2.48,2.16-4.11a3.13,3.13,0,0,0-.48-.68c1.43-1.75,1.73-4.43,2.34-6.32a13.83,13.83,0,0,1,2.43-4.21c.85-1.13,1.33-2,2.91-2.49,1.14,1.43,1,3.82,1,5.46a15.29,15.29,0,0,0,.28,3.09c-1.54.82-2.3,2.22-1.7,3.42.71,1.42,3,2,5.2,1.34s3.34-2.4,2.63-3.82a3.5,3.5,0,0,0-3-1.6c0-.37,0-.77,0-1.19,0-1.6-.72-5.53,1-6.58.89-.54,2,0,2.89.33A36.37,36.37,0,0,0,39,125.44l.64.2a2.13,2.13,0,0,0,.21.88c.68,1.36,2.67,2,4.45,1.44S46.93,125.84,46.25,124.48Z"/><path class="cls-7" d="M103.92,93.85s4.38,2,8.85,4.38a57.39,57.39,0,0,1-3.61-6.69A20,20,0,0,0,103.92,93.85Z"/><path class="cls-8" d="M124.84,106.57s-2-9.73-9-14a36.3,36.3,0,0,1,1.9,8.51c.9.58,1.72,1.15,2.4,1.69Z"/><path class="cls-9" d="M113.78,91.58a7.62,7.62,0,0,0-4.62,0,57.39,57.39,0,0,0,3.61,6.69c1.72.93,3.45,1.91,4.94,2.88a36.3,36.3,0,0,0-1.9-8.51A13.14,13.14,0,0,0,113.78,91.58Z"/><path class="cls-10" d="M19.67,101.23a26,26,0,0,1,3.43,1.62l.28,0c7.48-1,14.79,1.13,22.33-1a21.94,21.94,0,0,0,2.42-.48c-15.52-.87-31.2-2.77-45-8.79C6.73,96.29,19.18,101.28,19.67,101.23Z"/><path class="cls-11" d="M50.62,99.61c1.18-7.8-4.47-15.13-9.43-22.08a102.32,102.32,0,0,0-11.82.92A74.94,74.94,0,0,0,13.92,80C5.12,81.72.7,87.69,2.27,91.41a4,4,0,0,0,.85,1.17c13.8,6,29.48,7.92,45,8.79C49.41,101,50.58,100.48,50.62,99.61Z"/><path class="cls-12" d="M124.43,110a4.54,4.54,0,0,0,.42-3.38h0l-4.72-3.77C115.39,99,96.75,90.43,96.75,90.43s-10.64-4.23-18.35-4-13.56-1-20.91-6c-3.57-2.45-10.32-3-16.31-2.88,5,6.95,10.61,14.27,9.43,22.08-.07,1.42-3.16,2-4.92,2.24-7.53,2.1-14.85-.07-22.33,1l-.28,0c2.21,1.14,5.21,2.77,8.18,4.51l7.39,4.73a20.55,20.55,0,0,1,2.52,2.1c2.06,2.12,6.8,5.51,11,8.36a83.65,83.65,0,0,1-7.62-14.71,26.3,26.3,0,0,1,4.4.41c-.7-.85-.11-1.5-.53-2.48,23.86,1.25,45,7.27,67.27,14.66.7-.4,1.4-.82,2.11-1.26A14.48,14.48,0,0,0,124.43,110Z"/><path class="cls-13" d="M49,108.25c11.77,2.12,18.76,12,25.4,20.07.07-.45.11-.71.11-.71,2,2.46,18.22.22,19.88,0,10.88-2.3,16-4.14,21.36-7.17C93.46,113,72.77,107,48.91,105.79,49.33,106.78,48.27,107.4,49,108.25Z"/><path class="cls-14" d="M123.59,117.86c-1-2.75-2.26-4.57-5.12-2.4-10.15,7.33-18.63,15.2-24.45,24.81,4.86-2.51,10.41-3.77,15.48-6.17l-1.88.64S121.76,124.44,123.59,117.86Z"/><path class="cls-15" d="M91.58,152.34a50.11,50.11,0,0,0-7.4.65,5.33,5.33,0,0,0-4.67-1.66c-2.57.2-4.46,1.69-4.22,3.33s2.5,2.81,5.07,2.61c2-.16,3.61-1.11,4.09-2.3,2.5.6,6.49,1.1,8.33,1.77,3,1.08,5.19,2.76,3.29,5.31a5.74,5.74,0,0,0-.86,1.71H95.1c-2.44.19-4.2,1.89-3.92,3.8s2.47,3.3,4.9,3.11,4.2-1.89,3.92-3.8a2.9,2.9,0,0,0-.46-1.2c.4-.35.81-.75,1.22-1.16-.83-3.79-4.13-7.25-7.87-9.74C92.82,154.33,91.95,153.35,91.58,152.34Z"/><path class="cls-16" d="M91.54,150.94c2-1.53,4.36-.84,6.63-.6-.82-.47-1.94-1.09-3.11-1.62a63.5,63.5,0,0,1-6.81-3.79c-1.49.36-2.5,1.46-2.33,2.66.2,1.39,1.88,2.39,3.75,2.24l.18,0A7.18,7.18,0,0,0,91.47,152,1.62,1.62,0,0,1,91.54,150.94Z"/><path class="cls-17" d="M94.22,140c5.82-9.47,14.21-17.25,24.25-24.5,2.86-2.17,4.13-.35,5.12,2.4a4.27,4.27,0,0,0,.14-1.93c-.72-3.87-4.24-5.76-7.94-5.66C107,120,92.75,128.46,85.91,139.1c-.53,1.8-.39,3.32.71,4.37.56.53,1.1,1,1.64,1.46,0,0,.8.5,1.88,1.14A8.28,8.28,0,0,1,94.22,140Z"/><path class="cls-18" d="M114.25,152.34c-3.93-.57-14.82-1.25-14.82-1.25s-.5-.32-1.25-.75c-2.27-.24-4.61-.93-6.63.6a1.62,1.62,0,0,0-.07,1c.23.23.4.37.4.37h-.29c.37,1,1.24,2,1.3,2.43,3.74,2.48,7,5.94,7.87,9.74,2.32-2.38,4.61-5.47,6.57-5.62,2.77-.22,10.56,2.12,19.38-5.22s23.76-15.69,23.16-19.82A30.6,30.6,0,0,0,139,137C137,138.45,118,152.88,114.25,152.34Z"/><path class="cls-19" d="M134,126.92c-8.38,1.86-20,5.67-24.46,7.19-5.07,2.4-10.62,3.66-15.48,6.17l.2-.31a8.28,8.28,0,0,0-4.08,6.11,38.19,38.19,0,0,0,4.93,2.65c3.56,1,7.28.46,12-.95,8.44-2.51,32-10.89,32-10.89L139,137a30.6,30.6,0,0,1,10.91-3.16,1.94,1.94,0,0,0,0-.19C148.73,129.59,144.55,124.57,134,126.92Z"/><path class="cls-20" d="M19.31,89.67c2.2,4.42,8.34,6.62,13.7,4.92s7.93-6.67,5.73-11.09S30.4,76.88,25,78.58,17.11,85.25,19.31,89.67Z"/><path class="cls-21" d="M19.8,89.83c2,4,7.57,6,12.45,4.47s7.21-6.06,5.2-10.08-7.58-6-12.45-4.47S17.79,85.81,19.8,89.83Z"/><path class="cls-22" d="M20,89.94c1.87,3.74,7.06,5.61,11.61,4.16s6.71-5.65,4.85-9.4S29.44,79.1,24.9,80.55,18.18,86.2,20,89.94Z"/><path class="cls-23" d="M103.92,116.23a80.74,80.74,0,0,1-8-2.12c-1.67-.52-3.36-.93-5-1.57-.8-.32-1.62-.41-2.45-.65s-1.79-.63-2.72-.87c-2.46-.61-4.84-1.14-7.35-1.61-1.55-.29-3.12-.52-4.65-.86s-2.87-1-4.36-1.43a23.81,23.81,0,0,0-5.61-.91c-1.38-.07-2.66.21-4.1,0-1-.14-1.91-.62-2.89-.8a47.77,47.77,0,0,0-5.57-.29,7.75,7.75,0,0,0-4.05.82c-.82.43-1.21.84-.89,1.62a2.31,2.31,0,0,0,1.53,1.27c.79.31,1.09.23,1.32-.19-.15-.74-.54-1.7.16-1.66,1.51-.17,3.87-.63,5.43-.07l.13,0a3.88,3.88,0,0,1,1.19.52c.32.24.33.52.46.85.26.65.42,1.36.7,2,.18.41,1,2.05,1.8,1.83.6-.18.26-2.07.21-2.54-.1-1-.41-1.64,1.09-1.56,1.76.1,2.66.15,3.1,1.7s.36,3,.73,4.5a14.68,14.68,0,0,0,1.23,3.52c.35.63,1.26,2.13,2.4,2.08s.13-1.47,0-1.86a27.22,27.22,0,0,1-1.08-3,9.18,9.18,0,0,1-.13-3.12,3.09,3.09,0,0,1,1.66-3,4,4,0,0,1,5.17,1.56c1.48,2.23.82,5.34.22,7.67-.44,1.71-1,4.27,0,5.94a2,2,0,0,0,2,1c.84-.1.78-.47.89-1.15.31-1.9.21-3.88.48-5.8a16.63,16.63,0,0,1,1.51-5.22c.61-1.18,1.57-2.43,3.31-1.7,3,1.28,2.6,4.51,2.28,6.84-.13.95-2.33,7.93-.68,8.16.88.12,1.8-1.21,2.12-1.72.64-1,1.3-2.08,1.87-3.15,1-1.93,1.66-4,2.75-5.88.46-.8,1.43-1.48,2.33-.58a3.59,3.59,0,0,1,.73,2.4c0,1.49-.14,3-.22,4.48,0,.61-.2,2.06.5,2.55s1.15-.25,1.52-.73A30,30,0,0,0,97,120.8a19.69,19.69,0,0,1,.94-1.92c1.41-1.85,4.44-.83,6.56-.62.76.07,1.94.08,2.17-.72S104.65,116.38,103.92,116.23Z"/><path class="cls-24" d="M115.8,110.27a10.23,10.23,0,0,0-6.38,2.41S88.65,129.77,85.91,139.1C92.75,128.46,107,120,115.8,110.27Z"/><path class="cls-25" d="M49.06,154.42c-1.46-1,.74-3.15,1.16-5.34-.61.32-1,.52-1,.52a51.74,51.74,0,0,0-3.35-4.47,2,2,0,0,0,.26-2.15,3.35,3.35,0,0,0-4-1.33c-1.58.5-2.35,1.91-1.74,3.14a3.2,3.2,0,0,0,3.26,1.48,50.43,50.43,0,0,0,4,6s-11.56-2.65-15.43-1.3a6.31,6.31,0,0,0-.8.34,4.57,4.57,0,0,0-3.11-.12c-1.88.6-2.83,2.24-2.12,3.66S29,157,30.9,156.38a3,3,0,0,0,2.34-2.78c4.36-2.07,13.66,2,13.66,2-8.93,1-11.63,6-13.36,8.58l-.07.11a3.41,3.41,0,0,0-1.14.16,2.22,2.22,0,0,0-1.58,3.09,3.23,3.23,0,0,0,3.81,1.38,2.22,2.22,0,0,0,1.58-3.09,2.42,2.42,0,0,0-.56-.71c.11-.46.62-1.58,2.73-4.21,3.16-3.93,11.57-2.74,11.57-2.74s-1.27,5.44-.55,8.61a5.77,5.77,0,0,0,.69,1.67,2.35,2.35,0,0,0-.92,3c.69,1.38,2.74,2,4.59,1.44s2.78-2.18,2.09-3.56a3.74,3.74,0,0,0-4.12-1.55l0-.06c-2.32-4.65,1.75-11.33,1.75-11.33s.81-.56,2.19-1.55C53.17,155,50.71,155.38,49.06,154.42Z"/><path class="cls-26" d="M69.33,126.31c-.27-.27-.56-.55-.85-.81-7.25-6.24-16.81-10.22-22.05-17.57-.61,0-1.22-.08-1.86-.09a83.65,83.65,0,0,0,7.62,14.71c4.16,2.82,7.79,5.11,7.79,5.11l-.34,1.15C62.12,126.9,65.65,126.12,69.33,126.31Z"/><path class="cls-27" d="M59.65,128.8c-1.16,3.86-4.86,16.15-5.26,17.27-.33.92-2.74,2.28-4.17,3-.42,2.19-2.62,4.34-1.16,5.34,1.66,1,4.11.6,6.52.37,2.27-1.64,6.08-4.47,10.29-7.92s6.64-10.43,7.74-14.93a24,24,0,0,0-4.28-5.63C65.65,126.12,62.12,126.9,59.65,128.8Z"/><path class="cls-28" d="M46.43,107.93c5.25,7.35,14.8,11.33,22.05,17.57a24.56,24.56,0,0,1,5.13,6.44c.39-1.58.63-2.87.76-3.62C67.27,119.7,59.77,109,46.43,107.93Z"/><path class="cls-29" d="M25.57,91l2.63-9S24.67,86,25.57,91Z"/><ellipse class="cls-30" cx="31.05" cy="84.38" rx="0.8" ry="0.98" transform="translate(-54.83 110.97) rotate(-87)"/><path class="cls-30" d="M40.36,79.84l.91,0c.59,0,1.46.09,2.56.21s2.43.28,4,.54a43.8,43.8,0,0,1,5,1.14,22.69,22.69,0,0,1,5.61,2.36l.68.44.63.42c.21.11.41.23.63.34s.45.22.7.31a18.21,18.21,0,0,0,3.13.92c2.23.47,4.64.68,7.1.94s5,.5,7.51.88a51.68,51.68,0,0,1,7.41,1.69,33.12,33.12,0,0,1,3.47,1.28l3.2,1.39c2.11.91,4.13,1.81,6,2.66s3.73,1.66,5.4,2.42l2.39,1.09,2.13,1,3.46,1.67,2.22,1.09.78.39-.83-.32-2.33-.91-3.6-1.44-2.21-.89-2.46-1c-1.72-.67-3.57-1.41-5.53-2.2s-4-1.62-6.15-2.49L89,92.53c-1.07-.43-2.17-.83-3.32-1.17a50.17,50.17,0,0,0-7.14-1.58c-2.44-.39-4.93-.65-7.4-.92a64.21,64.21,0,0,1-7.29-1.09,18.1,18.1,0,0,1-3.41-1.1c-.27-.11-.52-.26-.78-.39s-.51-.3-.76-.45l-.65-.46-.6-.41a22.77,22.77,0,0,0-5.16-2.42c-1.73-.58-3.37-1-4.85-1.37s-2.78-.6-3.86-.79S41.84,80,41.25,80Z"/></svg>