<svg id="Layer_1" data-name="Layer 1" xmlns="http://www.w3.org/2000/svg" xmlns:xlink="http://www.w3.org/1999/xlink" viewBox="0 0 215.73 176"><defs><style>.cls-1{fill:url(#linear-gradient);}.cls-2{fill:url(#linear-gradient-2);}.cls-3{fill:url(#linear-gradient-3);}.cls-4{fill:url(#linear-gradient-4);}.cls-5{fill:url(#linear-gradient-5);}.cls-6{fill:url(#linear-gradient-6);}.cls-7{fill:url(#linear-gradient-7);}.cls-8{fill:url(#linear-gradient-8);}.cls-9{fill:url(#linear-gradient-9);}.cls-10{fill:url(#linear-gradient-10);}.cls-11{fill:url(#linear-gradient-11);}.cls-12{fill:url(#linear-gradient-12);}.cls-13{fill:url(#linear-gradient-13);}.cls-14{fill:url(#linear-gradient-14);}.cls-15{fill:url(#linear-gradient-15);}.cls-16{fill:url(#linear-gradient-16);}.cls-17{fill:url(#linear-gradient-17);}.cls-18{fill:url(#radial-gradient);}.cls-19{fill:url(#radial-gradient-2);}.cls-20{fill:url(#linear-gradient-18);}.cls-21{fill:url(#linear-gradient-19);}.cls-22{fill:url(#linear-gradient-20);}.cls-23{fill:url(#linear-gradient-21);}.cls-24{fill:url(#linear-gradient-22);}.cls-25{fill:url(#linear-gradient-23);}.cls-26{fill:#221f1f;}.cls-27{fill:#fff;}.cls-28{fill:#c6c22c;}.cls-29{fill:#afb715;}.cls-30{fill:#84a324;}</style><linearGradient id="linear-gradient" x1="-668.37" y1="216.95" x2="-665.11" y2="201.01" gradientTransform="matrix(0.92, 0.4, 0.4, -0.92, 633.22, 467.84)" gradientUnits="userSpaceOnUse"><stop offset="0" stop-color="#84c241"/><stop offset="0.02" stop-color="#89c441"/><stop offset="0.17" stop-color="#a3cd43"/><stop offset="0.3" stop-color="#b3d345"/><stop offset="0.4" stop-color="#b9d545"/><stop offset="1" stop-color="#456f34"/></linearGradient><linearGradient id="linear-gradient-2" x1="-671.47" y1="165.46" x2="-657.06" y2="161.87" gradientTransform="matrix(0.92, 0.4, 0.4, -0.92, 633.22, 467.84)" gradientUnits="userSpaceOnUse"><stop offset="0" stop-color="#456f34"/><stop offset="0.6" stop-color="#b9d545"/><stop offset="0.7" stop-color="#b3d345"/><stop offset="0.83" stop-color="#a3cd43"/><stop offset="0.98" stop-color="#89c441"/><stop offset="1" stop-color="#84c241"/></linearGradient><linearGradient id="linear-gradient-3" x1="-669.58" y1="161.31" x2="-674.56" y2="139.04" gradientTransform="matrix(0.92, 0.4, 0.4, -0.92, 633.22, 467.84)" gradientUnits="userSpaceOnUse"><stop offset="0" stop-color="#b9d545"/><stop offset="0.24" stop-color="#d5b136"/><stop offset="0.47" stop-color="#ec922a"/><stop offset="0.61" stop-color="#f58725"/><stop offset="1" stop-color="#965624"/></linearGradient><linearGradient id="linear-gradient-4" x1="-578.19" y1="192.75" x2="-567.25" y2="192.75" gradientTransform="matrix(0.92, 0.4, 0.4, -0.92, 633.22, 467.84)" gradientUnits="userSpaceOnUse"><stop offset="0" stop-color="#264b9b"/><stop offset="1" stop-color="#10bef0"/></linearGradient><linearGradient id="linear-gradient-5" x1="-563.92" y1="187.68" x2="-552.17" y2="187.68" xlink:href="#linear-gradient-4"/><linearGradient id="linear-gradient-6" x1="-575.16" y1="190.44" x2="-547.08" y2="193.32" xlink:href="#linear-gradient-2"/><linearGradient id="linear-gradient-7" x1="-674.34" y1="177.73" x2="-671.31" y2="188.44" xlink:href="#linear-gradient-2"/><linearGradient id="linear-gradient-8" x1="-673.5" y1="181.73" x2="-664.92" y2="212.04" xlink:href="#linear-gradient-2"/><linearGradient id="linear-gradient-9" x1="-620.67" y1="151.87" x2="-606.31" y2="202.58" xlink:href="#linear-gradient-2"/><linearGradient id="linear-gradient-10" x1="-605.19" y1="149" x2="-602.5" y2="173.47" xlink:href="#linear-gradient-4"/><linearGradient id="linear-gradient-11" x1="-9575.71" y1="143.82" x2="-9541.5" y2="143.82" gradientTransform="matrix(-0.92, -0.4, 0.4, -0.92, -8654.7, -3581.07)" xlink:href="#linear-gradient-4"/><linearGradient id="linear-gradient-12" x1="-577.01" y1="118.46" x2="-595.58" y2="110.71" xlink:href="#linear-gradient-3"/><linearGradient id="linear-gradient-13" x1="-578.61" y1="118.78" x2="-593.96" y2="129.4" xlink:href="#linear-gradient-3"/><linearGradient id="linear-gradient-14" x1="-584.47" y1="157.86" x2="-568.17" y2="147.9" xlink:href="#linear-gradient-2"/><linearGradient id="linear-gradient-15" x1="-554.84" y1="135.3" x2="-545.14" y2="119.25" xlink:href="#linear-gradient-2"/><linearGradient id="linear-gradient-16" x1="-560.05" y1="149.89" x2="-554.31" y2="135.07" xlink:href="#linear-gradient-2"/><linearGradient id="linear-gradient-17" x1="-9472.47" y1="188.01" x2="-9447.12" y2="188.01" gradientTransform="matrix(-0.92, -0.4, 0.4, -0.92, -8654.7, -3581.07)" xlink:href="#linear-gradient"/><radialGradient id="radial-gradient" cx="-9458.1" cy="200.57" r="10.68" gradientTransform="matrix(-1.12, -0.49, 0.4, -0.92, -10602.18, -4432.11)" gradientUnits="userSpaceOnUse"><stop offset="0" stop-color="#3066af"/><stop offset="0.71" stop-color="#2b60ab"/><stop offset="1" stop-color="#285ca8"/></radialGradient><radialGradient id="radial-gradient-2" cx="-9457.85" cy="200.01" r="9.96" gradientTransform="matrix(-1.12, -0.49, 0.4, -0.92, -10602.18, -4432.11)" gradientUnits="userSpaceOnUse"><stop offset="0" stop-color="#ed4523"/><stop offset="0.13" stop-color="#e74322"/><stop offset="0.3" stop-color="#d73e20"/><stop offset="0.49" stop-color="#bb351d"/><stop offset="0.69" stop-color="#952918"/><stop offset="0.91" stop-color="#651912"/><stop offset="1" stop-color="#4e120f"/></radialGradient><linearGradient id="linear-gradient-18" x1="-609" y1="174.82" x2="-613.15" y2="155.91" gradientTransform="matrix(0.92, 0.4, 0.4, -0.92, 633.22, 467.84)" gradientUnits="userSpaceOnUse"><stop offset="0" stop-color="#fbed34"/><stop offset="0.17" stop-color="#e9e739"/><stop offset="0.49" stop-color="#cfdd3f"/><stop offset="0.78" stop-color="#bfd744"/><stop offset="1" stop-color="#b9d545"/></linearGradient><linearGradient id="linear-gradient-19" x1="-9565.84" y1="146.67" x2="-9531.65" y2="146.67" gradientTransform="matrix(-0.92, -0.4, 0.4, -0.92, -8654.7, -3581.07)" xlink:href="#linear-gradient-4"/><linearGradient id="linear-gradient-20" x1="-631.83" y1="120.29" x2="-655.38" y2="104.31" xlink:href="#linear-gradient-3"/><linearGradient id="linear-gradient-21" x1="-646.24" y1="158.74" x2="-617.18" y2="166.98" xlink:href="#linear-gradient-2"/><linearGradient id="linear-gradient-22" x1="-634.35" y1="136.86" x2="-617.72" y2="129.8" xlink:href="#linear-gradient-2"/><linearGradient id="linear-gradient-23" x1="-633.67" y1="155.19" x2="-620.02" y2="168.54" xlink:href="#linear-gradient-4"/></defs><title>left-position</title><path class="cls-1" d="M93.17,10.12c.61,5.93,6.61,11,13.39,11.36s11.78-4.17,11.17-10.1S111.12.37,104.33,0,92.55,4.2,93.17,10.12Z"/><path class="cls-2" d="M86.88,55.34c2.45.28,3.85,2.17,5.4,4a7.38,7.38,0,0,1,2-1.9,19.22,19.22,0,0,0,2-2.15c.94-1,1.88-1.94,2.78-2.94l.18-.21-6.35-8.47-.39.41c-2.18,2.32-4.35,4.65-6.57,7a15,15,0,0,1-3.24,2.57,8.67,8.67,0,0,1-3,.77c-.33.06-.66.1-1,.14C81.22,56.52,84.26,55.46,86.88,55.34Z"/><path class="cls-3" d="M102.56,69.4c-.19-1.82-2.17-3.4-4.42-3.51a4.62,4.62,0,0,0-1.37.14c-2.08-1.59-4.72-3-4.84-5.31a2.33,2.33,0,0,1,.34-1.33c-1.55-1.87-2.94-3.75-5.4-4-2.62.12-5.66,1.18-8.19-.79-4.12.45-8.82-.66-13-.24a26.72,26.72,0,0,0-7.84,1.9c-1.57.67-3.91,1.27-5,2.56a6,6,0,0,0-2.49-.69C47.87,58,46,59.47,46.23,61.41S48.6,65,51.07,65.15s4.22-1.28,4.11-3.15A29.53,29.53,0,0,0,60,59.74,26.44,26.44,0,0,1,68.8,57c1.05-.11,6.88-.24,5.81,2.25-.31.71-1.86,1.07-2.53,1.47A30.13,30.13,0,0,0,68.66,63a18.58,18.58,0,0,0-5,5.79,5.61,5.61,0,0,0-1.26-.23c-2.54-.13-4.41,1.54-4.18,3.73s2.47,4.07,5,4.2S67.6,75,67.37,72.81a3.78,3.78,0,0,0-.25-1c2.36-1.37,3.83-4.28,5.32-6.14A16.68,16.68,0,0,1,77,62c1.43-.91,2.37-1.75,4.34-1.58.68,2.1-.5,4.73-1.14,6.61a18.45,18.45,0,0,0-1,3.61c-2.09.27-3.53,1.53-3.37,3.14.2,1.91,2.57,3.57,5.3,3.71s4.79-1.29,4.59-3.2A4.23,4.23,0,0,0,83,71.17c.16-.42.3-.88.47-1.36.65-1.82,1.53-6.56,3.94-7,1.24-.23,2.32.82,3.12,1.6a43.88,43.88,0,0,0,3.42,3l.63.5A2.57,2.57,0,0,0,94.41,69c.19,1.83,2.17,3.4,4.42,3.51S102.74,71.22,102.56,69.4Z"/><path class="cls-4" d="M180.68,59.24s4.11,4.1,8.14,8.7a69.24,69.24,0,0,1-1.24-9.09A24.18,24.18,0,0,0,180.68,59.24Z"/><path class="cls-5" d="M198.91,82.48s1.81-11.86-4.26-19.61a43.8,43.8,0,0,1-1.47,10.42,27.86,27.86,0,0,1,2,2.93Z"/><path class="cls-6" d="M192.78,60.85a9.19,9.19,0,0,0-5.2-2,69.24,69.24,0,0,0,1.24,9.09c1.55,1.77,3.08,3.62,4.37,5.34a43.8,43.8,0,0,0,1.47-10.42A15.86,15.86,0,0,0,192.78,60.85Z"/><path class="cls-7" d="M82.38,31.86a31.37,31.37,0,0,1,3.18,3.28l.33.09c8.89,2,16.23,7.55,25.63,8.37a26.47,26.47,0,0,0,2.93.48c-17.16-7.55-34.07-16.35-47.1-29C69.86,20.81,81.81,31.72,82.38,31.86Z"/><path class="cls-8" d="M118,43.16c4.64-8.31,1.36-19-1.3-28.93a123.45,123.45,0,0,0-13.74-4,90.41,90.41,0,0,0-18.1-4.84c-10.68-1.76-18.2,3.11-18,8a4.86,4.86,0,0,0,.46,1.69c13,12.65,29.94,21.44,47.1,29C116.07,44.24,117.61,44.12,118,43.16Z"/><path class="cls-9" d="M197,86.12c1.05-1.21,1.58-1.54,1.9-3.64h0l-3.73-6.26C191.44,70,174,52.34,174,52.34S163.8,43,155,40s-14.91-6.83-21.07-15.65c-3-4.28-10.4-7.74-17.2-10.16,2.66,10,5.94,20.62,1.3,28.93-.69,1.57-4.41.89-6.51.44-9.4-.82-16.74-6.37-25.63-8.37l-.33-.09c2,2.23,4.71,5.34,7.33,8.56l6.35,8.47a24.8,24.8,0,0,1,2,3.44c1.43,3.26,5.34,9.1,8.89,14.11a100.93,100.93,0,0,1-2.38-19.84,31.73,31.73,0,0,1,4.79,2.33c-.43-1.26.51-1.74.46-3,26.42,11.52,47.77,27.29,69.78,45.07,1-.16,1.92-.33,2.92-.52A17.47,17.47,0,0,0,197,86.12Z"/><path class="cls-10" d="M112.5,52.22c12.4,7.38,16.1,21.52,20.18,33.44l.42-.75c1.26,3.65,20.49,8,22.46,8.41,13.26,2,19.87,2.12,27.17.95-22-17.79-42.83-33.32-69.25-44.84C113.54,50.71,112.07,51,112.5,52.22Z"/><path class="cls-11" d="M192.72,94.7c0-3.52-.62-6.12-4.77-4.88-14.58,4-27.48,9.27-38.14,17.66,6.55-.78,13.36.15,20.1-.41l-2.39-.07S187.87,101.36,192.72,94.7Z"/><path class="cls-12" d="M142,120.08a60.46,60.46,0,0,0-8.64-2.4c-.43-1.6-2.21-3.17-4.58-3.85-3-.86-5.75,0-6.18,2s1.64,4.23,4.62,5.09c2.34.68,4.54.28,5.59-.87,2.57,1.73,6.86,4,8.65,5.53,2.88,2.47,4.69,5.32,1.46,7.39a6.93,6.93,0,0,0-1.7,1.56h-.11c-2.83-.82-5.54.35-6,2.63s1.39,4.77,4.22,5.59,5.54-.36,6-2.63a3.5,3.5,0,0,0,0-1.56c.61-.23,1.23-.5,1.87-.8.67-4.64-1.59-9.94-4.76-14.33C142.51,122.85,141.94,121.38,142,120.08Z"/><path class="cls-13" d="M142.5,118.49c2.93-.87,5.29.9,7.75,2.14-.72-.88-1.73-2.05-2.82-3.15-1.48-1.16-6.08-7.17-6.08-7.17-1.84-.22-3.44.59-3.76,2-.37,1.65,1.11,3.5,3.29,4.13h.21a8.66,8.66,0,0,0,.9,3.12A2,2,0,0,1,142.5,118.49Z"/><path class="cls-14" d="M150.17,107.22C160.76,99,173.54,93.76,188,89.82c4.15-1.24,4.81,1.35,4.77,4.88a5.16,5.16,0,0,0,1-2.12c.83-4.67-2.35-8.3-6.56-9.76-14.11,7.29-33.75,10.78-46,19.91-1.36,1.81-1.84,3.59-1,5.23.4.84.82,1.61,1.24,2.35,0,0,.7.91,1.64,2.09A10,10,0,0,1,150.17,107.22Z"/><path class="cls-15" d="M167.55,129.69c-4.2-2.31-16.21-7.69-16.21-7.69s-.43-.57-1.09-1.38c-2.46-1.24-4.81-3-7.75-2.14a2,2,0,0,0-.51,1.13c.17.35.3.59.3.59l-.33-.12c0,1.29.56,2.77.45,3.29,3.18,4.39,5.43,9.69,4.76,14.33,3.62-1.71,7.52-4.23,9.81-3.57,3.22.93,11,6.88,24.1,2.32,12.87-4.49,33.49-7.65,34.56-12.58a36.92,36.92,0,0,0-13.64-1C199.2,123.66,171.54,131.88,167.55,129.69Z"/><path class="cls-16" d="M200.6,109.32c-10.25-1.45-25-2.06-30.67-2.24-6.74.56-13.55-.37-20.1.41l.35-.27a10,10,0,0,0-7.2,5.17,46.08,46.08,0,0,0,4.45,5.08c3.61,2.59,8,3.6,14,4,10.59.74,40.79,1.27,40.79,1.27l-.23.07a36.92,36.92,0,0,1,13.67,1.06,2.34,2.34,0,0,0,.05-.23C216.15,118.6,213.55,111.15,200.6,109.32Z"/><path class="cls-17" d="M86.88,18.66c.62,5.93,6.61,11,13.39,11.36s11.78-4.17,11.17-10.1S104.83,8.91,98,8.56,86.26,12.74,86.88,18.66Z"/><path class="cls-18" d="M87.36,19c.56,5.38,6,10,12.17,10.32s10.71-3.79,10.15-9.18-6-10-12.17-10.32S86.8,13.66,87.36,19Z"/><path class="cls-19" d="M87.59,19.28c.52,5,5.6,9.33,11.35,9.62s10-3.54,9.46-8.56S102.8,11,97.06,10.72,87.07,14.26,87.59,19.28Z"/><path class="cls-20" d="M171.2,84.52a97.41,97.41,0,0,1-8.12-5.78c-1.66-1.3-3.4-2.48-4.93-3.88-.77-.7-1.66-1.15-2.49-1.78s-1.75-1.47-2.71-2.13c-2.52-1.73-5-3.35-7.62-4.93-1.62-1-3.31-1.91-4.89-3s-2.83-2.32-4.32-3.46a28.73,28.73,0,0,0-6-3.4c-1.52-.67-3.1-.89-4.64-1.73-1.05-.57-1.89-1.51-2.93-2.12a57.64,57.64,0,0,0-6.17-2.68,9.35,9.35,0,0,0-4.92-.79c-1.11.13-1.72.44-1.69,1.45a2.78,2.78,0,0,0,1.2,2.08c.76.69,1.14.73,1.57.35.14-.9.11-2.15.89-1.81,1.78.45,4.64.93,6.17,2.23h.16a4.68,4.68,0,0,1,1.12,1.09c.26.41.15.73.16,1.16A21.69,21.69,0,0,0,121,58c0,.54.3,2.76,1.25,2.83.76,0,1.17-2.23,1.31-2.78.29-1.12.23-2,1.89-1.3,1.95.86,2.94,1.3,2.78,3.24s-.87,3.55-1.08,5.39a17.71,17.71,0,0,0-.1,4.5c.12.86.52,2.95,1.83,3.36s.77-1.61.74-2.12a32.84,32.84,0,0,1,0-3.83,11.08,11.08,0,0,1,1.18-3.58A3.73,3.73,0,0,1,134,61.07a4.85,4.85,0,0,1,5.18,4c.73,3.14-1.33,6.38-3,8.76-1.22,1.74-2.93,4.41-2.52,6.7a2.43,2.43,0,0,0,1.86,2c1,.24,1.09-.2,1.5-.93,1.16-2,1.88-4.29,3-6.35A20.06,20.06,0,0,1,143.94,70c1.19-1.08,2.81-2.08,4.45-.52,2.88,2.73,1,6.2-.33,8.69-.55,1-6,8-4.22,8.93.94.51,2.54-.6,3.12-1,1.16-.9,2.35-1.8,3.45-2.76,2-1.74,3.56-3.8,5.6-5.48.86-.71,2.25-1.07,2.87.33a4.33,4.33,0,0,1-.19,3c-.6,1.69-1.42,3.32-2.15,5-.3.68-1.1,2.24-.51,3.09s1.4.2,2-.18a36.16,36.16,0,0,0,3.33-2.22A23.76,23.76,0,0,1,163.28,85c2.38-1.49,5.36.95,7.67,2.08.82.4,2.16.91,2.76.11S172,85,171.2,84.52Z"/><path class="cls-21" d="M187.14,82.82a12.34,12.34,0,0,0-8.23,0s-30.7,10.5-37.75,19.89C153.39,93.6,173,90.11,187.14,82.82Z"/><path class="cls-22" d="M93,104.41c-1.22-1.75,2.18-3.24,3.57-5.54-.83.1-1.4.14-1.4.14a62.42,62.42,0,0,0-1.89-6.47,2.38,2.38,0,0,0,1.21-2.32c-.17-1.66-1.92-3.08-3.92-3.19s-3.47,1.16-3.3,2.81a3.86,3.86,0,0,0,3.06,3,60.84,60.84,0,0,0,2,8.52s-11.93-7.89-16.88-8a7.61,7.61,0,0,0-1,0A5.52,5.52,0,0,0,71,92c-2.38-.12-4.14,1.33-3.95,3.24s2.28,3.55,4.66,3.68a3.59,3.59,0,0,0,3.82-2.15c5.8-.49,14.58,8,14.58,8-10.5-2.67-15.7,1.89-18.72,4l-.12.1a4.11,4.11,0,0,0-1.36-.31,2.68,2.68,0,0,0-3.09,2.83,3.89,3.89,0,0,0,3.72,3.17,2.68,2.68,0,0,0,3.09-2.82,2.92,2.92,0,0,0-.33-1c.32-.47,1.36-1.52,4.86-3.6,5.23-3.11,14.23,1.81,14.23,1.81s-3.74,5.61-4.27,9.49a7,7,0,0,0,.07,2.18,2.84,2.84,0,0,0-2.29,3c.19,1.85,2.24,3.45,4.57,3.57s4.06-1.29,3.87-3.14c-.17-1.7-1.91-3.17-4-3.5v-.08c-.65-6.24,6.78-12.06,6.78-12.06s1.16-.29,3.13-.83C97.42,106.83,94.5,106.19,93,104.41Z"/><path class="cls-23" d="M127.85,81.25c-.19-.43-.4-.85-.61-1.27-5.55-10.12-14.65-18.67-17.46-29.2-.67-.31-1.35-.61-2.06-.89a100.93,100.93,0,0,0,2.38,19.84c3.5,4.95,6.64,9.07,6.64,9.07l-.89,1.2C119.46,78.86,123.77,79.48,127.85,81.25Z"/><path class="cls-24" d="M115.85,80c-2.94,3.86-12.34,16.19-13.26,17.27-.77.9-4.06,1.41-6,1.64-1.4,2.3-4.8,3.79-3.57,5.54,1.47,1.78,4.39,2.42,7.21,3.18,3.26-.89,8.76-2.47,15-4.58,6.39-2.17,11.92-9,15.07-13.58a29,29,0,0,0-2.45-8.18C123.77,79.48,119.46,78.86,115.85,80Z"/><path class="cls-25" d="M109.77,50.78c2.81,10.53,11.91,19.08,17.46,29.2a29.63,29.63,0,0,1,3.06,9.45c1.11-1.62,1.93-3,2.39-3.77C128.32,72.91,124.39,57.61,109.77,50.78Z"/><path class="cls-26" d="M93.37,22.85l6.79-9.07S94.48,16.8,93.37,22.85Z"/><ellipse class="cls-27" cx="102.4" cy="17.66" rx="0.97" ry="1.18" transform="translate(45.26 104.45) rotate(-66.43)"/><path class="cls-27" d="M114.82,16.47l1,.43c.65.29,1.61.72,2.8,1.32s2.63,1.35,4.24,2.28a52.84,52.84,0,0,1,5.22,3.43,27.38,27.38,0,0,1,5.34,5l.59.78.54.74c.19.22.36.43.57.65s.41.44.65.65a22,22,0,0,0,3.14,2.37c2.32,1.47,5,2.73,7.62,4.07s5.43,2.68,8.11,4.18a62.35,62.35,0,0,1,7.66,5,40,40,0,0,1,3.37,2.92l3,2.93c2,1.92,3.89,3.8,5.7,5.57s3.51,3.46,5.07,5L181.68,66l2,2.05,3.2,3.35,2,2.17.72.77-.8-.71-2.25-2-3.46-3.15L181,66.68l-2.37-2.14c-1.65-1.49-3.44-3.11-5.31-4.83s-3.86-3.53-5.89-5.42l-3.1-2.88a42.18,42.18,0,0,0-3.25-2.73,60.53,60.53,0,0,0-7.4-4.81c-2.59-1.48-5.3-2.83-8-4.17A77.47,77.47,0,0,1,138,35.37a21.84,21.84,0,0,1-3.38-2.69c-.26-.24-.48-.51-.72-.77s-.45-.56-.66-.83l-.53-.8-.5-.72a27.47,27.47,0,0,0-4.8-4.92C125.66,23.25,124,22,122.47,21s-2.88-1.86-4-2.52-2-1.19-2.67-1.53Z"/><polygon class="cls-28" points="66.88 78.34 52.06 64.26 0 64.26 15.05 78.97 63 79.22 66.88 78.34"/><polygon class="cls-29" points="14.77 130.69 0 113.27 0 64.26 15.23 78.75 14.77 130.69"/><rect class="cls-30" x="14.77" y="78.34" width="52.11" height="52.35"/></svg>