<svg id="Layer_1" data-name="Layer 1" xmlns="http://www.w3.org/2000/svg" xmlns:xlink="http://www.w3.org/1999/xlink" viewBox="0 0 173.71 155"><defs><style>.cls-1{fill:url(#linear-gradient);}.cls-2{fill:url(#linear-gradient-2);}.cls-3{fill:url(#linear-gradient-3);}.cls-4{fill:url(#linear-gradient-4);}.cls-5{fill:url(#linear-gradient-5);}.cls-6{fill:url(#linear-gradient-6);}.cls-7{fill:url(#linear-gradient-7);}.cls-8{fill:url(#linear-gradient-8);}.cls-9{fill:url(#linear-gradient-9);}.cls-10{fill:url(#linear-gradient-10);}.cls-11{fill:url(#linear-gradient-11);}.cls-12{fill:url(#linear-gradient-12);}.cls-13{fill:url(#linear-gradient-13);}.cls-14{fill:url(#linear-gradient-14);}.cls-15{fill:url(#linear-gradient-15);}.cls-16{fill:url(#linear-gradient-16);}.cls-17{fill:url(#linear-gradient-17);}.cls-18{fill:url(#radial-gradient);}.cls-19{fill:url(#radial-gradient-2);}.cls-20{fill:url(#linear-gradient-18);}.cls-21{fill:url(#linear-gradient-19);}.cls-22{fill:url(#linear-gradient-20);}.cls-23{fill:url(#linear-gradient-21);}.cls-24{fill:url(#linear-gradient-22);}.cls-25{fill:url(#linear-gradient-23);}.cls-26{fill:#221f1f;}.cls-27{fill:#fff;}</style><linearGradient id="linear-gradient" x1="-1760.09" y1="118.7" x2="-1756.97" y2="103.4" gradientTransform="translate(-1617.98 120) rotate(180)" gradientUnits="userSpaceOnUse"><stop offset="0" stop-color="#84c241"/><stop offset="0.02" stop-color="#89c441"/><stop offset="0.17" stop-color="#a3cd43"/><stop offset="0.3" stop-color="#b3d345"/><stop offset="0.4" stop-color="#b9d545"/><stop offset="1" stop-color="#456f34"/></linearGradient><linearGradient id="linear-gradient-2" x1="-1763.06" y1="69.3" x2="-1749.26" y2="65.85" gradientTransform="translate(-1617.98 120) rotate(180)" gradientUnits="userSpaceOnUse"><stop offset="0" stop-color="#456f34"/><stop offset="0.6" stop-color="#b9d545"/><stop offset="0.7" stop-color="#b3d345"/><stop offset="0.83" stop-color="#a3cd43"/><stop offset="0.98" stop-color="#89c441"/><stop offset="1" stop-color="#84c241"/></linearGradient><linearGradient id="linear-gradient-3" x1="-1761.28" y1="65.31" x2="-1766.06" y2="43.93" gradientTransform="translate(-1617.98 120) rotate(180)" gradientUnits="userSpaceOnUse"><stop offset="0" stop-color="#b9d545"/><stop offset="0.24" stop-color="#d5b136"/><stop offset="0.47" stop-color="#ec922a"/><stop offset="0.61" stop-color="#f58725"/><stop offset="1" stop-color="#965624"/></linearGradient><linearGradient id="linear-gradient-4" x1="-1673.56" y1="95.51" x2="-1663.06" y2="95.51" gradientTransform="translate(-1617.98 120) rotate(180)" gradientUnits="userSpaceOnUse"><stop offset="0" stop-color="#264b9b"/><stop offset="1" stop-color="#10bef0"/></linearGradient><linearGradient id="linear-gradient-5" x1="-1659.88" y1="90.65" x2="-1648.61" y2="90.65" xlink:href="#linear-gradient-4"/><linearGradient id="linear-gradient-6" x1="-1670.66" y1="93.3" x2="-1643.71" y2="96.06" xlink:href="#linear-gradient-2"/><linearGradient id="linear-gradient-7" x1="-1765.83" y1="81.06" x2="-1762.93" y2="91.33" xlink:href="#linear-gradient-2"/><linearGradient id="linear-gradient-8" x1="-1765.01" y1="84.89" x2="-1756.78" y2="113.97" xlink:href="#linear-gradient-2"/><linearGradient id="linear-gradient-9" x1="-1714.32" y1="56.25" x2="-1700.54" y2="104.91" xlink:href="#linear-gradient-2"/><linearGradient id="linear-gradient-10" x1="-1699.49" y1="53.49" x2="-1696.91" y2="76.97" xlink:href="#linear-gradient-4"/><linearGradient id="linear-gradient-11" x1="-8563.19" y1="57.71" x2="-8530.36" y2="57.71" gradientTransform="matrix(1, 0, 0, -1, 8594.57, 120)" xlink:href="#linear-gradient-4"/><linearGradient id="linear-gradient-12" x1="-1672.46" y1="24.26" x2="-1690.28" y2="16.82" xlink:href="#linear-gradient-3"/><linearGradient id="linear-gradient-13" x1="-1673.96" y1="24.52" x2="-1688.68" y2="34.72" xlink:href="#linear-gradient-3"/><linearGradient id="linear-gradient-14" x1="-1679.61" y1="61.95" x2="-1663.97" y2="52.4" xlink:href="#linear-gradient-2"/><linearGradient id="linear-gradient-15" x1="-1651.12" y1="40.36" x2="-1641.82" y2="24.96" xlink:href="#linear-gradient-2"/><linearGradient id="linear-gradient-16" x1="-1656.14" y1="54.35" x2="-1650.63" y2="40.13" xlink:href="#linear-gradient-2"/><linearGradient id="linear-gradient-17" x1="-8464.14" y1="100.16" x2="-8439.79" y2="100.16" gradientTransform="matrix(1, 0, 0, -1, 8594.57, 120)" xlink:href="#linear-gradient"/><radialGradient id="radial-gradient" cx="-8642.07" cy="102.16" r="10.25" gradientTransform="matrix(1.23, 0, 0, -1, 10735.32, 120)" gradientUnits="userSpaceOnUse"><stop offset="0" stop-color="#3066af"/><stop offset="0.71" stop-color="#2b60ab"/><stop offset="1" stop-color="#285ca8"/></radialGradient><radialGradient id="radial-gradient-2" cx="-8641.84" cy="101.61" r="9.56" gradientTransform="matrix(1.23, 0, 0, -1, 10735.32, 120)" gradientUnits="userSpaceOnUse"><stop offset="0" stop-color="#ed4523"/><stop offset="0.13" stop-color="#e74322"/><stop offset="0.3" stop-color="#d73e20"/><stop offset="0.49" stop-color="#bb351d"/><stop offset="0.69" stop-color="#952918"/><stop offset="0.91" stop-color="#651912"/><stop offset="1" stop-color="#4e120f"/></radialGradient><linearGradient id="linear-gradient-18" x1="-1703.15" y1="78.27" x2="-1707.13" y2="60.13" gradientTransform="translate(-1617.98 120) rotate(180)" gradientUnits="userSpaceOnUse"><stop offset="0" stop-color="#fbed34"/><stop offset="0.17" stop-color="#e9e739"/><stop offset="0.49" stop-color="#cfdd3f"/><stop offset="0.78" stop-color="#bfd744"/><stop offset="1" stop-color="#b9d545"/></linearGradient><linearGradient id="linear-gradient-19" x1="-8553.72" y1="60.42" x2="-8520.9" y2="60.42" gradientTransform="matrix(1, 0, 0, -1, 8594.57, 120)" xlink:href="#linear-gradient-4"/><linearGradient id="linear-gradient-20" x1="-1725.06" y1="25.98" x2="-1747.66" y2="10.65" xlink:href="#linear-gradient-3"/><linearGradient id="linear-gradient-21" x1="-1738.89" y1="62.92" x2="-1711" y2="70.82" xlink:href="#linear-gradient-2"/><linearGradient id="linear-gradient-22" x1="-1727.41" y1="41.93" x2="-1711.46" y2="35.17" xlink:href="#linear-gradient-2"/><linearGradient id="linear-gradient-23" x1="-1726.83" y1="59.46" x2="-1713.73" y2="72.26" xlink:href="#linear-gradient-4"/></defs><title>outside-position</title><path class="cls-1" d="M151.39,14.08c-2.81,5-10,7.15-16.13,4.85s-8.76-8.19-5.95-13.17,10-7.15,16.14-4.85S154.21,9.11,151.39,14.08Z"/><path class="cls-2" d="M139.58,56.27c-2.27-.69-4.22.43-6.3,1.48a7.08,7.08,0,0,0-1-2.42,18.44,18.44,0,0,1-1-2.67c-.46-1.22-.91-2.42-1.32-3.65l-.08-.25,8.83-5,.19.51c1,2.88,2,5.76,3.11,8.64a14.37,14.37,0,0,0,1.86,3.5,8.32,8.32,0,0,0,2.35,1.83c.27.18.54.34.82.5C144.1,59.48,141.84,57.38,139.58,56.27Z"/><path class="cls-3" d="M120.39,62.62c.87-1.53,3.21-2.16,5.23-1.4a4.44,4.44,0,0,1,1.15.65c2.44-.6,5.32-.86,6.3-2.81a2.23,2.23,0,0,0,.21-1.31c2.08-1,4-2.17,6.3-1.48,2.26,1.11,4.52,3.2,7.51,2.45,3.45,2,8,2.81,11.5,4.77a25.64,25.64,0,0,1,6.17,4.68c1.12,1.19,3,2.62,3.41,4.17a5.75,5.75,0,0,1,2.46.35c2.23.84,3.28,2.84,2.36,4.46s-3.47,2.27-5.69,1.43-3.22-2.74-2.41-4.35a28.33,28.33,0,0,1-3.41-3.85,25.37,25.37,0,0,0-6.63-5.72c-.88-.5-6-2.86-6-.25,0,.74,1.23,1.66,1.66,2.27a28.91,28.91,0,0,1,2.1,3.37,17.83,17.83,0,0,1,2.22,7,5.38,5.38,0,0,1,1.19.28c2.28.86,3.29,3,2.25,4.89s-3.74,2.63-6,1.77S149,81,150,79.11a3.63,3.63,0,0,1,.6-.76c-1.55-2.11-1.73-5.23-2.33-7.44a16,16,0,0,0-2.55-5c-.91-1.35-1.41-2.45-3.21-3.06-1.41,1.58-1.38,4.35-1.53,6.25a17.71,17.71,0,0,1-.51,3.56c1.73,1,2.52,2.71,1.75,4.06-.91,1.6-3.63,2.15-6.09,1.23s-3.71-3-2.81-4.58a4.06,4.06,0,0,1,3.59-1.66c0-.43.07-.89.11-1.38.12-1.85,1.17-6.35-.78-7.67-1-.68-2.35-.17-3.36.21a42.1,42.1,0,0,1-4.15,1.32l-.75.2a2.47,2.47,0,0,1-.3,1c-.87,1.53-3.21,2.16-5.23,1.4S119.53,64.15,120.39,62.62Z"/><path class="cls-4" d="M55.58,23.72s-5.19,2-10.5,4.53a66.44,66.44,0,0,0,4.58-7.52A23.2,23.2,0,0,1,55.58,23.72Z"/><path class="cls-5" d="M30.63,37.16S33.58,26,41.9,21.55a42,42,0,0,0-2.71,9.73c-1.08.62-2.06,1.23-2.88,1.81Z"/><path class="cls-6" d="M44.32,20.49a8.82,8.82,0,0,1,5.34.24,66.44,66.44,0,0,1-4.58,7.52c-2,1-4.1,2-5.89,3a42,42,0,0,1,2.71-9.73A15.22,15.22,0,0,1,44.32,20.49Z"/><path class="cls-7" d="M152.54,37.35A30.11,30.11,0,0,0,148.48,39h-.32c-8.58-1.65-17.17.41-25.75-2.47a25.4,25.4,0,0,1-2.76-.7c18-.06,36.23-1.31,52.55-7.43C167.79,32.43,153.1,37.43,152.54,37.35Z"/><path class="cls-8" d="M116.85,33.61c-.89-9.09,6.08-17.22,12.25-25a118.46,118.46,0,0,1,13.61,1.78,86.76,86.76,0,0,1,17.77,2.69c10.07,2.55,14.81,9.72,12.77,13.92a4.66,4.66,0,0,1-1.05,1.3c-16.32,6.13-34.56,7.37-52.55,7.43C118.16,35.31,116.85,34.61,116.85,33.61Z"/><path class="cls-9" d="M30.89,41.09a5.26,5.26,0,0,1-.28-3.93h0l5.68-4.07C42,29,64.08,20.2,64.08,20.2S76.64,16,85.54,16.68s15.73-.29,24.53-5.68c4.28-2.62,12.11-2.82,19-2.34-6.16,7.73-13.13,15.86-12.25,25,0,1.65,3.53,2.47,5.56,2.89,8.58,2.88,17.17.82,25.75,2.47h.32c-2.63,1.19-6.2,2.89-9.73,4.72l-8.83,5a23.79,23.79,0,0,0-3,2.27c-2.51,2.32-8.19,6-13.23,9a96.84,96.84,0,0,0,9.7-16.54,30.45,30.45,0,0,0-5.11.21c.87-.94.22-1.72.76-2.84-27.66,0-52.48,5.67-78.66,12.87-.78-.5-1.56-1-2.37-1.58A16.76,16.76,0,0,1,30.89,41.09Z"/><path class="cls-10" d="M118.24,43.69C104.5,45.43,95.82,56.44,87.66,65.36c-.06-.52-.08-.82-.08-.82-2.5,2.72-21.08-.85-23-1.22C52.16,60,46.3,57.56,40.34,53.73c26.18-7.2,50.46-12.87,78.12-12.87C117.9,42,119.1,42.75,118.24,43.69Z"/><path class="cls-11" d="M31.38,50.28c1.31-3.12,2.89-5.14,6.06-2.46,11.3,9.1,20.62,18.7,26.77,30.18-5.46-3.2-11.81-5-17.52-8.07l2.13.85S33.1,58,31.38,50.28Z"/><path class="cls-12" d="M66.3,92.08a58,58,0,0,1,8.52,1.2c1-1.24,3.16-1.94,5.5-1.63,3,.39,5,2.22,4.68,4.1s-3.06,3.09-6,2.71c-2.32-.3-4.1-1.5-4.59-2.91-2.92.54-7.57.88-9.73,1.55C61.2,98.17,58.51,100,60.56,103a6.65,6.65,0,0,1,.89,2h.11c2.81.37,4.74,2.44,4.3,4.63S62.79,113.36,60,113s-4.74-2.44-4.31-4.63A3.36,3.36,0,0,1,56.3,107c-.45-.43-.89-.92-1.34-1.42,1.19-4.34,5.21-8.14,9.69-10.78C64.74,94.3,65.81,93.23,66.3,92.08Z"/><path class="cls-13" d="M66.43,90.47c-2.25-1.89-5-1.24-7.63-1.09,1-.5,2.31-1.14,3.69-1.69,1.74-.45,8.1-4,8.1-4,1.71.51,2.8,1.83,2.53,3.21-.31,1.59-2.32,2.65-4.47,2.37h-.2a8.31,8.31,0,0,1-2,2.4A1.88,1.88,0,0,0,66.43,90.47Z"/><path class="cls-14" d="M64,77.62c-6.15-11.31-15.39-20.8-26.56-29.79-3.17-2.68-4.75-.66-6.06,2.46a5,5,0,0,1,0-2.24c1.06-4.43,5.25-6.4,9.52-6.06C50.47,53.8,66.4,64.41,73.66,77.12c.5,2.12.25,3.86-1.09,5-.67.58-1.34,1.1-2,1.59,0,0-1,.53-2.24,1.21A9.59,9.59,0,0,0,64,77.62Z"/><path class="cls-15" d="M40.1,90.71c4.58-.42,17.21-.55,17.21-.55s.59-.33,1.49-.79c2.64-.15,5.39-.8,7.63,1.09a1.88,1.88,0,0,1,0,1.19c-.28.25-.49.4-.49.4h.34c-.49,1.14-1.56,2.22-1.66,2.73-4.48,2.64-8.5,6.44-9.69,10.78-2.53-2.89-5-6.6-7.26-6.9-3.19-.42-12.34,1.82-22.09-7.2S-.9,71.91,0,67.16a35.42,35.42,0,0,1,12.43,4.31C14.58,73.27,35.75,91.11,40.1,90.71Z"/><path class="cls-16" d="M18.85,60.12c9.58,2.66,22.75,7.77,27.84,9.79C52.4,73,58.75,74.79,64.21,78L64,77.62a9.59,9.59,0,0,1,4.35,7.31,44.21,44.21,0,0,1-5.86,2.76c-4.17.9-8.45.09-13.83-1.82-9.6-3.41-36.37-14.53-36.37-14.53l.17.15A35.42,35.42,0,0,0,0,67.16q0-.11,0-.22C1.61,62.31,6.75,56.76,18.85,60.12Z"/><path class="cls-17" d="M153.65,24c-2.81,5-10,7.15-16.14,4.85s-8.76-8.19-5.95-13.17,10-7.15,16.14-4.85S156.46,19,153.65,24Z"/><path class="cls-18" d="M153.08,24.16c-2.56,4.52-9.12,6.5-14.66,4.41s-8-7.44-5.41-12,9.12-6.5,14.66-4.41S155.64,19.64,153.08,24.16Z"/><path class="cls-19" d="M152.78,24.28c-2.38,4.22-8.51,6.06-13.67,4.11s-7.42-6.94-5-11.16,8.5-6.06,13.67-4.11S155.17,20.06,152.78,24.28Z"/><path class="cls-20" d="M54.22,49.59a93.47,93.47,0,0,0,9.36-2c2-.5,3.94-.88,5.83-1.52.95-.32,1.9-.38,2.88-.61s2.11-.62,3.2-.84c2.88-.56,5.67-1,8.59-1.42,1.8-.24,3.64-.41,5.43-.72s3.38-1,5.13-1.39a27.57,27.57,0,0,1,6.54-.71c1.59,0,3.07.4,4.74.26,1.14-.1,2.25-.61,3.39-.75a55.31,55.31,0,0,1,6.45,0,9,9,0,0,1,4.63,1.2c.93.55,1.35,1,.93,1.92a2.67,2.67,0,0,1-1.85,1.37c-.94.31-1.28.2-1.51-.3.22-.85.73-1.93-.09-1.93-1.74-.28-4.44-1-6.28-.41l-.14,0a4.49,4.49,0,0,0-1.41.53c-.38.26-.41.59-.58,1-.35.74-.57,1.55-.94,2.26-.24.47-1.32,2.31-2.19,2-.69-.25-.17-2.41-.09-3,.18-1.1.58-1.87-1.17-1.87-2,0-3.09,0-3.69,1.78s-.6,3.46-1.12,5.16a17,17,0,0,1-1.64,4c-.44.71-1.59,2.39-2.9,2.26s-.06-1.71.16-2.15a31.52,31.52,0,0,0,1.43-3.38,10.63,10.63,0,0,0,.34-3.6,3.57,3.57,0,0,0-1.74-3.53,4.66,4.66,0,0,0-6.07,1.49c-1.84,2.48-1.28,6.13-.72,8.86.41,2,.89,5-.35,6.87a2.33,2.33,0,0,1-2.38,1c-1-.17-.88-.59-1-1.39-.25-2.21,0-4.5-.2-6.73a19.25,19.25,0,0,0-1.43-6.13c-.63-1.4-1.67-2.9-3.72-2.16-3.58,1.3-3.29,5.06-3,7.77.1,1.11,2.22,9.31.29,9.47-1,.08-2-1.5-2.34-2.12-.68-1.24-1.38-2.49-2-3.75-1.08-2.29-1.67-4.71-2.82-7-.48-1-1.57-1.8-2.65-.81a4.16,4.16,0,0,0-1,2.73c-.12,1.72,0,3.47,0,5.19,0,.71.1,2.39-.74,2.92s-1.31-.36-1.71-.94A34.7,34.7,0,0,1,62,55.29,22.8,22.8,0,0,0,61,53c-1.52-2.22-5.08-1.22-7.54-1.12-.88,0-2.25,0-2.47-1C50.83,50.16,53.37,49.72,54.22,49.59Z"/><path class="cls-21" d="M40.85,42a11.84,11.84,0,0,1,7.24,3.17s23,21,25.58,32C66.4,64.41,50.47,53.8,40.85,42Z"/><path class="cls-22" d="M115.34,97.07c1.75-1.07-.67-3.69-1-6.24.69.4,1.17.66,1.17.66a59.89,59.89,0,0,1,4.14-5,2.28,2.28,0,0,1-.17-2.5,3.87,3.87,0,0,1,4.67-1.3c1.79.67,2.61,2.35,1.82,3.74A3.71,3.71,0,0,1,122.09,88a58.38,58.38,0,0,1-5,6.73s13.52-2.37,17.92-.57a7.3,7.3,0,0,1,.9.44,5.3,5.3,0,0,1,3.61,0c2.14.81,3.14,2.76,2.23,4.36s-3.37,2.25-5.51,1.44a3.45,3.45,0,0,1-2.53-3.35c-4.91-2.66-15.91,1.48-15.91,1.48,10.26,1.68,13.08,7.69,14.92,10.73l.07.13a4,4,0,0,1,1.31.25,2.57,2.57,0,0,1,1.64,3.67,3.73,3.73,0,0,1-4.49,1.37,2.57,2.57,0,0,1-1.64-3.67,2.8,2.8,0,0,1,.69-.79c-.1-.54-.62-1.86-2.9-5-3.41-4.74-13.21-3.87-13.21-3.87s1.14,6.37.11,10a6.68,6.68,0,0,1-.9,1.89,2.72,2.72,0,0,1,.88,3.49c-.88,1.55-3.29,2.18-5.39,1.39s-3.08-2.69-2.2-4.25,2.89-2.05,4.85-1.55v-.07c3-5.24-1.33-13.21-1.33-13.21s-.91-.7-2.44-1.93C110.55,97.51,113.36,98.07,115.34,97.07Z"/><path class="cls-23" d="M93.6,63.34l1-.88c8.76-6.78,20-10.8,26.56-19h2.15A96.84,96.84,0,0,1,113.64,60c-5,3-9.32,5.43-9.32,5.43l.33,1.35C101.9,64.45,97.87,63.34,93.6,63.34Z"/><path class="cls-24" d="M104.65,66.81c1.11,4.53,4.64,19,5,20.28.33,1.09,3,2.8,4.63,3.73.35,2.56,2.77,5.17,1,6.24-2,1-4.79.44-7.56,0-2.53-2-6.76-5.53-11.42-9.78s-7-12.46-8-17.73a27.78,27.78,0,0,1,5.29-6.25C97.87,63.34,101.9,64.45,104.65,66.81Z"/><path class="cls-25" d="M121.19,43.47c-6.51,8.18-17.8,12.21-26.56,19a28.43,28.43,0,0,0-6.32,7.14c-.35-1.85-.55-3.36-.65-4.23C96.39,55.82,105.71,43.88,121.19,43.47Z"/><path class="cls-26" d="M146.33,25.2l-2.5-10.58S147.67,19.46,146.33,25.2Z"/><ellipse class="cls-27" cx="140.4" cy="17.18" rx="1.14" ry="0.93"/><path class="cls-27" d="M129.92,11.36h-1c-.69,0-1.69,0-3,.08s-2.83.18-4.6.38a50.71,50.71,0,0,0-5.9,1,26.27,26.27,0,0,0-6.63,2.39l-.82.46-.76.44c-.26.12-.48.24-.75.35s-.53.23-.82.32a21.08,21.08,0,0,1-3.67.88,82.09,82.09,0,0,1-8.26.65c-2.85.15-5.8.27-8.74.57a59.82,59.82,0,0,0-8.67,1.5,38.34,38.34,0,0,0-4.09,1.27L68.4,23.1c-2.49.92-4.88,1.84-7.15,2.71l-6.39,2.47L52,29.4l-2.53,1-4.1,1.72-2.63,1.13-.93.4,1-.32,2.75-.91L49.81,31l2.61-.89,2.91-1c2-.68,4.22-1.41,6.53-2.21s4.75-1.62,7.26-2.51L73,23.05c1.26-.43,2.56-.83,3.9-1.16A58.08,58.08,0,0,1,85.2,20.5c2.85-.31,5.74-.45,8.61-.61a74.34,74.34,0,0,0,8.49-.82,21,21,0,0,0,4-1.07c.32-.11.62-.27.93-.4a9.67,9.67,0,0,0,.9-.48l.78-.49.71-.44a26.36,26.36,0,0,1,6.11-2.49,55.39,55.39,0,0,1,5.69-1.29c1.69-.29,3.25-.53,4.51-.68s2.25-.26,2.93-.32Z"/></svg>