<svg id="Layer_1" data-name="Layer 1" xmlns="http://www.w3.org/2000/svg" xmlns:xlink="http://www.w3.org/1999/xlink" viewBox="0 0 216.02 176"><defs><style>.cls-1{fill:#c6c22c;}.cls-2{fill:#afb715;}.cls-3{fill:#84a324;}.cls-4{fill:url(#linear-gradient);}.cls-5{fill:url(#linear-gradient-2);}.cls-6{fill:url(#linear-gradient-3);}.cls-7{fill:url(#linear-gradient-4);}.cls-8{fill:url(#linear-gradient-5);}.cls-9{fill:url(#linear-gradient-6);}.cls-10{fill:url(#linear-gradient-7);}.cls-11{fill:url(#linear-gradient-8);}.cls-12{fill:url(#linear-gradient-9);}.cls-13{fill:url(#linear-gradient-10);}.cls-14{fill:url(#linear-gradient-11);}.cls-15{fill:url(#linear-gradient-12);}.cls-16{fill:url(#linear-gradient-13);}.cls-17{fill:url(#linear-gradient-14);}.cls-18{fill:url(#linear-gradient-15);}.cls-19{fill:url(#linear-gradient-16);}.cls-20{fill:url(#linear-gradient-17);}.cls-21{fill:url(#radial-gradient);}.cls-22{fill:url(#radial-gradient-2);}.cls-23{fill:url(#linear-gradient-18);}.cls-24{fill:url(#linear-gradient-19);}.cls-25{fill:url(#linear-gradient-20);}.cls-26{fill:url(#linear-gradient-21);}.cls-27{fill:url(#linear-gradient-22);}.cls-28{fill:url(#linear-gradient-23);}.cls-29{fill:#221f1f;}.cls-30{fill:#fff;}</style><linearGradient id="linear-gradient" x1="-1481.16" y1="-136.57" x2="-1477.91" y2="-152.51" gradientTransform="matrix(-0.92, 0.4, -0.4, -0.92, -1308.81, 469.11)" gradientUnits="userSpaceOnUse"><stop offset="0" stop-color="#84c241"/><stop offset="0.02" stop-color="#89c441"/><stop offset="0.17" stop-color="#a3cd43"/><stop offset="0.3" stop-color="#b3d345"/><stop offset="0.4" stop-color="#b9d545"/><stop offset="1" stop-color="#456f34"/></linearGradient><linearGradient id="linear-gradient-2" x1="-1485.56" y1="-187.04" x2="-1471.16" y2="-190.63" gradientTransform="matrix(-0.92, 0.4, -0.4, -0.92, -1308.81, 469.11)" gradientUnits="userSpaceOnUse"><stop offset="0" stop-color="#456f34"/><stop offset="0.6" stop-color="#b9d545"/><stop offset="0.7" stop-color="#b3d345"/><stop offset="0.83" stop-color="#a3cd43"/><stop offset="0.98" stop-color="#89c441"/><stop offset="1" stop-color="#84c241"/></linearGradient><linearGradient id="linear-gradient-3" x1="-1482.9" y1="-192.8" x2="-1487.88" y2="-215.08" gradientTransform="matrix(-0.92, 0.4, -0.4, -0.92, -1308.81, 469.11)" gradientUnits="userSpaceOnUse"><stop offset="0" stop-color="#b9d545"/><stop offset="0.24" stop-color="#d5b136"/><stop offset="0.47" stop-color="#ec922a"/><stop offset="0.61" stop-color="#f58725"/><stop offset="1" stop-color="#965624"/></linearGradient><linearGradient id="linear-gradient-4" x1="-1392.62" y1="-160.26" x2="-1381.68" y2="-160.26" gradientTransform="matrix(-0.92, 0.4, -0.4, -0.92, -1308.81, 469.11)" gradientUnits="userSpaceOnUse"><stop offset="0" stop-color="#264b9b"/><stop offset="1" stop-color="#10bef0"/></linearGradient><linearGradient id="linear-gradient-5" x1="-1378.36" y1="-165.33" x2="-1366.62" y2="-165.33" xlink:href="#linear-gradient-4"/><linearGradient id="linear-gradient-6" x1="-1389.65" y1="-162.71" x2="-1361.57" y2="-159.83" xlink:href="#linear-gradient-2"/><linearGradient id="linear-gradient-7" x1="-1487.64" y1="-176.45" x2="-1484.61" y2="-165.75" xlink:href="#linear-gradient-2"/><linearGradient id="linear-gradient-8" x1="-1486.79" y1="-172.46" x2="-1478.2" y2="-142.15" xlink:href="#linear-gradient-2"/><linearGradient id="linear-gradient-9" x1="-1434.13" y1="-202.26" x2="-1419.77" y2="-151.55" xlink:href="#linear-gradient-2"/><linearGradient id="linear-gradient-10" x1="-1418.48" y1="-204.99" x2="-1415.79" y2="-180.51" xlink:href="#linear-gradient-4"/><linearGradient id="linear-gradient-11" x1="-8761.1" y1="-201.96" x2="-8726.88" y2="-201.96" gradientTransform="matrix(0.92, -0.4, -0.4, -0.92, 7977.42, -3582.24)" xlink:href="#linear-gradient-4"/><linearGradient id="linear-gradient-12" x1="-1391.67" y1="-234.84" x2="-1410.24" y2="-242.59" xlink:href="#linear-gradient-3"/><linearGradient id="linear-gradient-13" x1="-1392.16" y1="-233.8" x2="-1407.51" y2="-223.18" xlink:href="#linear-gradient-3"/><linearGradient id="linear-gradient-14" x1="-1398.16" y1="-194.79" x2="-1381.87" y2="-204.75" xlink:href="#linear-gradient-2"/><linearGradient id="linear-gradient-15" x1="-1368.04" y1="-217.82" x2="-1358.34" y2="-233.87" xlink:href="#linear-gradient-2"/><linearGradient id="linear-gradient-16" x1="-1373.22" y1="-203.49" x2="-1367.48" y2="-218.31" xlink:href="#linear-gradient-2"/><linearGradient id="linear-gradient-17" x1="-8657.85" y1="-157.75" x2="-8632.5" y2="-157.75" gradientTransform="matrix(0.92, -0.4, -0.4, -0.92, 7977.42, -3582.24)" xlink:href="#linear-gradient"/><radialGradient id="radial-gradient" cx="-8788.89" cy="-155.06" r="10.68" gradientTransform="matrix(1.12, -0.49, -0.4, -0.92, 9926.75, -4431.71)" gradientUnits="userSpaceOnUse"><stop offset="0" stop-color="#3066af"/><stop offset="0.71" stop-color="#2b60ab"/><stop offset="1" stop-color="#285ca8"/></radialGradient><radialGradient id="radial-gradient-2" cx="-8788.64" cy="-155.62" r="9.96" gradientTransform="matrix(1.12, -0.49, -0.4, -0.92, 9926.75, -4431.71)" gradientUnits="userSpaceOnUse"><stop offset="0" stop-color="#ed4523"/><stop offset="0.13" stop-color="#e74322"/><stop offset="0.3" stop-color="#d73e20"/><stop offset="0.49" stop-color="#bb351d"/><stop offset="0.69" stop-color="#952918"/><stop offset="0.91" stop-color="#651912"/><stop offset="1" stop-color="#4e120f"/></radialGradient><linearGradient id="linear-gradient-18" x1="-1422.42" y1="-179.26" x2="-1426.58" y2="-198.17" gradientTransform="matrix(-0.92, 0.4, -0.4, -0.92, -1308.81, 469.11)" gradientUnits="userSpaceOnUse"><stop offset="0" stop-color="#fbed34"/><stop offset="0.17" stop-color="#e9e739"/><stop offset="0.49" stop-color="#cfdd3f"/><stop offset="0.78" stop-color="#bfd744"/><stop offset="1" stop-color="#b9d545"/></linearGradient><linearGradient id="linear-gradient-19" x1="-8751.21" y1="-199.11" x2="-8717.02" y2="-199.11" gradientTransform="matrix(0.92, -0.4, -0.4, -0.92, 7977.42, -3582.24)" xlink:href="#linear-gradient-4"/><linearGradient id="linear-gradient-20" x1="-1446.4" y1="-233.36" x2="-1469.95" y2="-249.34" xlink:href="#linear-gradient-3"/><linearGradient id="linear-gradient-21" x1="-1460.85" y1="-194.52" x2="-1431.78" y2="-186.28" xlink:href="#linear-gradient-2"/><linearGradient id="linear-gradient-22" x1="-1448.17" y1="-215.59" x2="-1431.55" y2="-222.65" xlink:href="#linear-gradient-2"/><linearGradient id="linear-gradient-23" x1="-1447.96" y1="-198.81" x2="-1434.31" y2="-185.46" xlink:href="#linear-gradient-4"/></defs><title>right-position</title><polygon class="cls-1" points="149.15 78.34 163.96 64.26 216.02 64.26 200.97 78.97 153.02 79.22 149.15 78.34"/><polygon class="cls-2" points="201.25 130.69 216.02 113.27 216.02 64.26 200.79 78.75 201.25 130.69"/><rect class="cls-3" x="149.14" y="78.34" width="52.11" height="52.35"/><path class="cls-4" d="M122.57,10.12C122,16,116,21.13,109.18,21.48S97.39,17.31,98,11.38,104.62.37,111.4,0,123.18,4.2,122.57,10.12Z"/><path class="cls-5" d="M128.86,55.34c-2.45.28-3.85,2.17-5.4,4a7.38,7.38,0,0,0-2-1.9,19.22,19.22,0,0,1-2-2.15c-.94-1-1.88-1.94-2.78-2.94l-.18-.21,6.35-8.47.39.41c2.18,2.32,4.35,4.65,6.57,7A15,15,0,0,0,133,53.64a8.67,8.67,0,0,0,3,.77c.33.06.66.1,1,.14C134.51,56.52,131.48,55.46,128.86,55.34Z"/><path class="cls-6" d="M113.18,69.4c.19-1.82,2.17-3.4,4.42-3.51A4.62,4.62,0,0,1,119,66c2.08-1.59,4.72-3,4.84-5.31a2.33,2.33,0,0,0-.34-1.33c1.55-1.87,2.94-3.75,5.4-4,2.62.12,5.66,1.18,8.19-.79,4.12.45,8.82-.66,13-.24a26.72,26.72,0,0,1,7.84,1.9c1.57.67,3.91,1.27,5,2.56a6,6,0,0,1,2.49-.69c2.48-.13,4.32,1.34,4.12,3.28s-2.37,3.61-4.84,3.74-4.22-1.28-4.11-3.15a29.53,29.53,0,0,1-4.86-2.26,26.44,26.44,0,0,0-8.8-2.71c-1.05-.11-6.88-.24-5.81,2.25.31.71,1.86,1.07,2.53,1.47A30.13,30.13,0,0,1,147.07,63a18.58,18.58,0,0,1,5,5.79,5.61,5.61,0,0,1,1.26-.23c2.54-.13,4.41,1.54,4.18,3.73s-2.47,4.07-5,4.2-4.41-1.54-4.18-3.73a3.78,3.78,0,0,1,.25-1c-2.36-1.37-3.83-4.28-5.32-6.14A16.68,16.68,0,0,0,138.77,62c-1.43-.91-2.37-1.75-4.34-1.58-.68,2.1.5,4.73,1.14,6.61a18.45,18.45,0,0,1,1,3.61c2.09.27,3.53,1.53,3.37,3.14-.2,1.91-2.57,3.57-5.3,3.71s-4.79-1.29-4.59-3.2a4.23,4.23,0,0,1,2.73-3.08c-.16-.42-.3-.88-.47-1.36-.65-1.82-1.53-6.56-3.94-7-1.24-.23-2.32.82-3.12,1.6a43.88,43.88,0,0,1-3.42,3l-.63.5a2.57,2.57,0,0,1,.13,1.09c-.19,1.83-2.17,3.4-4.42,3.51S113,71.22,113.18,69.4Z"/><path class="cls-7" d="M35.06,59.24s-4.11,4.1-8.14,8.7a69.24,69.24,0,0,0,1.24-9.09A24.18,24.18,0,0,1,35.06,59.24Z"/><path class="cls-8" d="M16.82,82.48S15,70.62,21.08,62.87a43.8,43.8,0,0,0,1.47,10.42,27.86,27.86,0,0,0-2,2.93Z"/><path class="cls-9" d="M23,60.85a9.19,9.19,0,0,1,5.2-2A69.24,69.24,0,0,1,27,67.94c-1.55,1.77-3.08,3.62-4.37,5.34a43.8,43.8,0,0,1-1.47-10.42A15.86,15.86,0,0,1,23,60.85Z"/><path class="cls-10" d="M133.35,31.86a31.37,31.37,0,0,0-3.18,3.28l-.33.09c-8.89,2-16.23,7.55-25.63,8.37a26.47,26.47,0,0,1-2.93.48c17.16-7.55,34.07-16.35,47.1-29C145.87,20.81,133.92,31.72,133.35,31.86Z"/><path class="cls-11" d="M97.71,43.16c-4.64-8.31-1.36-19,1.3-28.93a123.45,123.45,0,0,1,13.74-4,90.41,90.41,0,0,1,18.1-4.84c10.68-1.76,18.2,3.11,18,8a4.86,4.86,0,0,1-.46,1.69c-13,12.65-29.94,21.44-47.1,29C99.67,44.24,98.12,44.12,97.71,43.16Z"/><path class="cls-12" d="M18.72,86.12c-1-1.21-1.58-1.54-1.9-3.64h0l3.73-6.26C24.29,70,41.71,52.34,41.71,52.34S51.93,43,60.71,40,75.64,33.2,81.8,24.39c3-4.28,10.4-7.74,17.2-10.16-2.66,10-5.94,20.62-1.3,28.93.69,1.57,4.41.89,6.51.44,9.4-.82,16.74-6.37,25.63-8.37l.33-.09c-2,2.23-4.71,5.34-7.33,8.56l-6.35,8.47a24.8,24.8,0,0,0-2,3.44c-1.43,3.26-5.34,9.1-8.89,14.11A100.93,100.93,0,0,0,108,49.89a31.73,31.73,0,0,0-4.79,2.33c.43-1.26-.51-1.74-.46-3C76.36,60.71,55,76.48,33,94.26c-1-.16-1.92-.33-2.92-.52A17.47,17.47,0,0,1,18.72,86.12Z"/><path class="cls-13" d="M103.23,52.22c-12.4,7.38-16.1,21.52-20.18,33.44l-.42-.75c-1.26,3.65-20.49,8-22.46,8.41-13.26,2-19.87,2.12-27.17.95C55,76.48,75.83,61,102.25,49.43,102.2,50.71,103.67,51,103.23,52.22Z"/><path class="cls-14" d="M23,94.7c0-3.52.62-6.12,4.77-4.88,14.58,4,27.48,9.27,38.14,17.66-6.55-.78-13.36.15-20.1-.41L48.2,107S27.87,101.36,23,94.7Z"/><path class="cls-15" d="M73.78,120.08a60.46,60.46,0,0,1,8.64-2.4c.43-1.6,2.21-3.17,4.58-3.85,3-.86,5.75,0,6.18,2s-1.64,4.23-4.62,5.09c-2.34.68-4.54.28-5.59-.87-2.57,1.73-6.86,4-8.65,5.53-2.88,2.47-4.69,5.32-1.46,7.39a6.93,6.93,0,0,1,1.7,1.56h.11c2.83-.82,5.54.35,6,2.63s-1.39,4.77-4.22,5.59-5.54-.36-6-2.63a3.5,3.5,0,0,1,0-1.56c-.61-.23-1.23-.5-1.87-.8-.67-4.64,1.59-9.94,4.76-14.33C73.22,122.85,73.79,121.38,73.78,120.08Z"/><path class="cls-16" d="M73.23,118.49c-2.93-.87-5.29.9-7.75,2.14.72-.88,1.73-2.05,2.82-3.15,1.48-1.16,6.08-7.17,6.08-7.17,1.84-.22,3.44.59,3.76,2,.37,1.65-1.11,3.5-3.29,4.13h-.21a8.66,8.66,0,0,1-.9,3.12A2,2,0,0,0,73.23,118.49Z"/><path class="cls-17" d="M65.56,107.22C55,99,42.19,93.76,27.78,89.82,23.63,88.58,23,91.17,23,94.7a5.16,5.16,0,0,1-1-2.12c-.83-4.67,2.35-8.3,6.56-9.76,14.11,7.29,33.75,10.78,46,19.91,1.36,1.81,1.84,3.59,1,5.23-.4.84-.82,1.61-1.24,2.35,0,0-.7.91-1.64,2.09A10,10,0,0,0,65.56,107.22Z"/><path class="cls-18" d="M48.18,129.69c4.2-2.31,16.21-7.69,16.21-7.69s.43-.57,1.09-1.38c2.46-1.24,4.81-3,7.75-2.14a2,2,0,0,1,.51,1.13c-.17.35-.3.59-.3.59l.33-.12c0,1.29-.56,2.77-.45,3.29-3.18,4.39-5.43,9.69-4.76,14.33-3.62-1.71-7.52-4.23-9.81-3.57-3.22.93-11,6.88-24.1,2.32C21.8,132,1.18,128.81.1,123.89a36.92,36.92,0,0,1,13.67-1.06C16.54,123.66,44.19,131.88,48.18,129.69Z"/><path class="cls-19" d="M15.14,109.32c10.25-1.45,25-2.06,30.67-2.24,6.74.56,13.55-.37,20.1.41l-.35-.27a10,10,0,0,1,7.2,5.17,46.08,46.08,0,0,1-4.45,5.08c-3.61,2.59-8,3.6-14,4-10.59.74-40.79,1.27-40.79,1.27l.23.07A36.92,36.92,0,0,0,.1,123.89a2.34,2.34,0,0,1-.05-.23C-.42,118.6,2.18,111.15,15.14,109.32Z"/><path class="cls-20" d="M128.86,18.66c-.62,5.93-6.61,11-13.39,11.36s-11.78-4.17-11.17-10.1,6.61-11,13.39-11.36S129.47,12.74,128.86,18.66Z"/><path class="cls-21" d="M128.38,19c-.56,5.38-6,10-12.17,10.32s-10.71-3.79-10.15-9.18,6-10,12.17-10.32S128.94,13.66,128.38,19Z"/><path class="cls-22" d="M128.14,19.28c-.52,5-5.6,9.33-11.35,9.62s-10-3.54-9.46-8.56,5.6-9.33,11.34-9.62S128.66,14.26,128.14,19.28Z"/><path class="cls-23" d="M44.54,84.52a97.41,97.41,0,0,0,8.12-5.78c1.66-1.3,3.4-2.48,4.93-3.88.77-.7,1.66-1.15,2.49-1.78s1.75-1.47,2.71-2.13c2.52-1.73,5-3.35,7.62-4.93,1.62-1,3.31-1.91,4.89-3s2.83-2.32,4.32-3.46a28.73,28.73,0,0,1,6-3.4c1.52-.67,3.1-.89,4.64-1.73,1.05-.57,1.89-1.51,2.93-2.12a57.64,57.64,0,0,1,6.17-2.68,9.35,9.35,0,0,1,4.92-.79c1.11.13,1.72.44,1.69,1.45a2.78,2.78,0,0,1-1.2,2.08c-.76.69-1.14.73-1.57.35-.14-.9-.11-2.15-.89-1.81-1.78.45-4.64.93-6.17,2.23H96a4.68,4.68,0,0,0-1.12,1.09c-.26.41-.15.73-.16,1.16a21.69,21.69,0,0,1,0,2.55c0,.54-.3,2.76-1.25,2.83-.76,0-1.17-2.23-1.31-2.78-.29-1.12-.23-2-1.89-1.3C88.3,57.6,87.3,58,87.46,60s.87,3.55,1.08,5.39a17.71,17.71,0,0,1,.1,4.5c-.12.86-.52,2.95-1.83,3.36s-.77-1.61-.74-2.12a32.84,32.84,0,0,0,0-3.83,11.08,11.08,0,0,0-1.18-3.58,3.73,3.73,0,0,0-3.13-2.64,4.85,4.85,0,0,0-5.18,4c-.73,3.14,1.33,6.38,3,8.76,1.22,1.74,2.93,4.41,2.52,6.7a2.43,2.43,0,0,1-1.86,2c-1,.24-1.09-.2-1.5-.93-1.16-2-1.88-4.29-3-6.35A20.06,20.06,0,0,0,71.82,70c-1.19-1.08-2.81-2.08-4.45-.52-2.88,2.73-1,6.2.33,8.69.55,1,6,8,4.22,8.93-.94.51-2.54-.6-3.12-1-1.16-.9-2.35-1.8-3.45-2.76-2-1.74-3.56-3.8-5.6-5.48-.86-.71-2.25-1.07-2.87.33a4.33,4.33,0,0,0,.19,3c.6,1.69,1.42,3.32,2.15,5,.3.68,1.1,2.24.51,3.09s-1.4.2-2-.18a36.16,36.16,0,0,1-3.33-2.22A23.76,23.76,0,0,0,52.46,85c-2.38-1.49-5.36.95-7.67,2.08-.82.4-2.16.91-2.76.11S43.78,85,44.54,84.52Z"/><path class="cls-24" d="M28.6,82.82a12.34,12.34,0,0,1,8.23,0s30.7,10.5,37.75,19.89C62.35,93.6,42.71,90.11,28.6,82.82Z"/><path class="cls-25" d="M122.7,104.41c1.22-1.75-2.18-3.24-3.57-5.54.83.1,1.4.14,1.4.14a62.42,62.42,0,0,1,1.89-6.47,2.38,2.38,0,0,1-1.21-2.32c.17-1.66,1.92-3.08,3.92-3.19s3.47,1.16,3.3,2.81a3.86,3.86,0,0,1-3.06,3,60.84,60.84,0,0,1-2,8.52s11.93-7.89,16.88-8a7.61,7.61,0,0,1,1,0,5.52,5.52,0,0,1,3.5-1.36c2.38-.12,4.14,1.33,3.95,3.24s-2.28,3.55-4.66,3.68a3.59,3.59,0,0,1-3.82-2.15c-5.8-.49-14.58,8-14.58,8,10.5-2.67,15.7,1.89,18.72,4l.12.1a4.11,4.11,0,0,1,1.36-.31,2.68,2.68,0,0,1,3.09,2.83,3.89,3.89,0,0,1-3.72,3.17,2.68,2.68,0,0,1-3.09-2.82,2.92,2.92,0,0,1,.33-1c-.32-.47-1.36-1.52-4.86-3.6-5.23-3.11-14.23,1.81-14.23,1.81s3.74,5.61,4.27,9.49a7,7,0,0,1-.07,2.18,2.84,2.84,0,0,1,2.29,3c-.19,1.85-2.24,3.45-4.57,3.57s-4.06-1.29-3.87-3.14c.17-1.7,1.91-3.17,4-3.5v-.08c.65-6.24-6.78-12.06-6.78-12.06s-1.16-.29-3.13-.83C118.31,106.83,121.23,106.19,122.7,104.41Z"/><path class="cls-26" d="M87.88,81.25c.19-.43.4-.85.61-1.27C94,69.85,103.15,61.3,106,50.78c.67-.31,1.35-.61,2.06-.89a100.93,100.93,0,0,1-2.38,19.84C102.18,74.68,99,78.8,99,78.8l.84,1.2C96.27,78.86,92,79.48,87.88,81.25Z"/><path class="cls-27" d="M99.88,80c2.94,3.86,12.34,16.19,13.26,17.27.77.9,4.06,1.41,6,1.64,1.4,2.3,4.8,3.79,3.57,5.54-1.47,1.78-4.39,2.42-7.21,3.18-3.26-.89-8.76-2.47-15-4.58-6.39-2.17-11.92-9-15.07-13.58a29,29,0,0,1,2.45-8.18C92,79.48,96.27,78.86,99.88,80Z"/><path class="cls-28" d="M106,50.78C103.15,61.3,94,69.85,88.5,80a29.63,29.63,0,0,0-3.06,9.45c-1.11-1.62-1.93-3-2.39-3.77C87.41,72.91,91.34,57.61,106,50.78Z"/><path class="cls-29" d="M122.36,22.85l-6.79-9.07S121.25,16.8,122.36,22.85Z"/><ellipse class="cls-30" cx="113.35" cy="17.65" rx="1.18" ry="0.97" transform="translate(2.4 46.8) rotate(-23.57)"/><path class="cls-30" d="M100.92,16.47l-1,.43c-.65.29-1.61.72-2.8,1.32s-2.63,1.35-4.24,2.28a52.84,52.84,0,0,0-5.22,3.43,27.38,27.38,0,0,0-5.34,5l-.59.78-.54.74c-.19.22-.36.43-.57.65s-.41.44-.65.65a22,22,0,0,1-3.14,2.37c-2.32,1.47-5,2.73-7.62,4.07s-5.43,2.68-8.11,4.18a62.35,62.35,0,0,0-7.66,5,40,40,0,0,0-3.37,2.92l-3,2.93c-2,1.92-3.89,3.8-5.7,5.57s-3.51,3.46-5.07,5L34,66.15l-2,2-3.2,3.35-2,2.17-.72.77.8-.71,2.25-2,3.46-3.15,2.12-1.94,2.37-2.14c1.65-1.49,3.44-3.11,5.31-4.83s3.86-3.53,5.89-5.42l3.1-2.88a42.18,42.18,0,0,1,3.25-2.73A60.53,60.53,0,0,1,62,43.87c2.59-1.48,5.3-2.83,8-4.17a77.47,77.47,0,0,0,7.77-4.32,21.84,21.84,0,0,0,3.38-2.69c.26-.24.48-.51.72-.77s.45-.56.66-.83l.53-.8.5-.72a27.47,27.47,0,0,1,4.8-4.92c1.71-1.39,3.37-2.6,4.89-3.61s2.88-1.86,4-2.52,2-1.19,2.67-1.53Z"/></svg>