<svg id="Layer_1" data-name="Layer 1" xmlns="http://www.w3.org/2000/svg" xmlns:xlink="http://www.w3.org/1999/xlink" viewBox="0 0 210.09 92.77"><defs><style>.cls-1{fill:url(#radial-gradient);}.cls-2{fill:url(#linear-gradient);}.cls-3{fill:url(#linear-gradient-2);}.cls-4{fill:#00a7ee;}.cls-5{fill:#010101;}.cls-6{fill:#1e0e00;}.cls-7{fill:#0088c6;}.cls-8{fill:#31100d;}.cls-9{fill:#031825;}.cls-10{fill:#cdcac5;}.cls-11{fill:#1a1119;}.cls-12{fill:url(#radial-gradient-2);}.cls-13{fill:url(#linear-gradient-3);}.cls-14{fill:url(#linear-gradient-4);}.cls-15{fill:#a87c4f;}.cls-16{fill:#8a5d3b;}.cls-17{fill:#284da0;}.cls-18{fill:#223369;}.cls-19{fill:#dd1f26;}.cls-20{fill:#be1e2d;}.cls-21{fill:#fff100;}.cls-22{fill:#098442;}.cls-23{fill:#dbcc23;}.cls-24{fill:#fff;}.cls-25{fill:#f9ec31;}.cls-26{fill:#231f20;}.cls-27{fill:#2d2926;}.cls-28{fill:#e8c270;}.cls-29{fill:#404041;}.cls-30{fill:#f7d593;}.cls-31{fill:#00a14b;}.cls-32{fill:url(#radial-gradient-3);}.cls-33{fill:url(#linear-gradient-5);}.cls-34{fill:url(#linear-gradient-6);}.cls-35{fill:url(#linear-gradient-7);}.cls-36{fill:url(#linear-gradient-8);}.cls-37{fill:url(#linear-gradient-9);}.cls-38{fill:url(#linear-gradient-10);}.cls-39{fill:url(#linear-gradient-11);}.cls-40{fill:url(#linear-gradient-12);}.cls-41{fill:url(#linear-gradient-13);}.cls-42{fill:url(#linear-gradient-14);}.cls-43{fill:url(#linear-gradient-15);}.cls-44{fill:url(#linear-gradient-16);}.cls-45{fill:url(#linear-gradient-17);}.cls-46{fill:url(#linear-gradient-18);}.cls-47{fill:url(#linear-gradient-19);}.cls-48{fill:url(#linear-gradient-20);}.cls-49{fill:url(#linear-gradient-21);}.cls-50{fill:url(#linear-gradient-22);}.cls-51{fill:url(#linear-gradient-23);}.cls-52{fill:url(#radial-gradient-4);}.cls-53{fill:url(#radial-gradient-5);}.cls-54{fill:url(#linear-gradient-24);}.cls-55{fill:url(#linear-gradient-25);}.cls-56{fill:url(#linear-gradient-26);}.cls-57{fill:url(#linear-gradient-27);}.cls-58{fill:url(#linear-gradient-28);}.cls-59{fill:url(#linear-gradient-29);}.cls-60{fill:#221f1f;}.cls-61{fill:url(#radial-gradient-6);}.cls-62{fill:url(#linear-gradient-30);}.cls-63{fill:url(#linear-gradient-31);}.cls-64{fill:url(#radial-gradient-7);}.cls-65{fill:url(#linear-gradient-32);}.cls-66{fill:url(#linear-gradient-33);}.cls-67{fill:url(#radial-gradient-8);}.cls-68{fill:url(#linear-gradient-34);}.cls-69{fill:url(#linear-gradient-35);}.cls-70{fill:url(#linear-gradient-36);}.cls-71{fill:url(#linear-gradient-37);}.cls-72{fill:url(#linear-gradient-38);}.cls-73{fill:url(#linear-gradient-39);}.cls-74{fill:url(#linear-gradient-40);}.cls-75{fill:url(#linear-gradient-41);}.cls-76{fill:url(#linear-gradient-42);}.cls-77{fill:url(#linear-gradient-43);}.cls-78{fill:url(#linear-gradient-44);}.cls-79{fill:url(#linear-gradient-45);}.cls-80{fill:url(#linear-gradient-46);}.cls-81{fill:url(#linear-gradient-47);}.cls-82{fill:url(#linear-gradient-48);}.cls-83{fill:url(#linear-gradient-49);}.cls-84{fill:url(#linear-gradient-50);}.cls-85{fill:url(#linear-gradient-51);}.cls-86{fill:url(#linear-gradient-52);}.cls-87{fill:url(#radial-gradient-9);}.cls-88{fill:url(#radial-gradient-10);}.cls-89{fill:url(#linear-gradient-53);}.cls-90{fill:url(#linear-gradient-54);}.cls-91{fill:url(#linear-gradient-55);}.cls-92{fill:url(#linear-gradient-56);}.cls-93{fill:url(#linear-gradient-57);}.cls-94{fill:url(#linear-gradient-58);}</style><radialGradient id="radial-gradient" cx="36.86" cy="-479.45" r="42.35" gradientTransform="translate(-442.76 8.82) rotate(90) scale(1.02 1.02)" gradientUnits="userSpaceOnUse"><stop offset="0" stop-color="#7dcc00"/><stop offset="1" stop-color="#7db200"/></radialGradient><linearGradient id="linear-gradient" x1="-8.93" y1="-457.81" x2="9.96" y2="-455.5" gradientTransform="translate(-402.69 7.52) rotate(90)" gradientUnits="userSpaceOnUse"><stop offset="0" stop-color="#7dbd00"/><stop offset="0.44" stop-color="#7dc600"/><stop offset="1" stop-color="#7dcc00"/></linearGradient><linearGradient id="linear-gradient-2" x1="29.7" y1="-496.23" x2="31.25" y2="-476.56" xlink:href="#linear-gradient"/><radialGradient id="radial-gradient-2" cx="36.86" cy="-537.57" r="32.73" gradientTransform="translate(-442.76 8.82) rotate(90) scale(1.02 1.02)" gradientUnits="userSpaceOnUse"><stop offset="0" stop-color="#bf82ff"/><stop offset="1" stop-color="#bf68ff"/></radialGradient><linearGradient id="linear-gradient-3" x1="-8.93" y1="-517.04" x2="9.96" y2="-514.73" gradientTransform="translate(-402.69 7.52) rotate(90)" gradientUnits="userSpaceOnUse"><stop offset="0" stop-color="#bf73ff"/><stop offset="0.44" stop-color="#bf7cff"/><stop offset="1" stop-color="#bf82ff"/></linearGradient><linearGradient id="linear-gradient-4" x1="29.7" y1="-555.45" x2="31.25" y2="-535.79" xlink:href="#linear-gradient-3"/><radialGradient id="radial-gradient-3" cx="36.86" cy="-595.69" r="32.41" gradientTransform="translate(-442.76 8.82) rotate(90) scale(1.02 1.02)" gradientUnits="userSpaceOnUse"><stop offset="0" stop-color="#ffe035"/><stop offset="1" stop-color="#ffc62b"/></radialGradient><linearGradient id="linear-gradient-5" x1="-8.93" y1="-576.27" x2="9.96" y2="-573.95" gradientTransform="translate(-402.69 7.52) rotate(90)" gradientUnits="userSpaceOnUse"><stop offset="0" stop-color="#ffd138"/><stop offset="0.44" stop-color="#ffda36"/><stop offset="1" stop-color="#ffe035"/></linearGradient><linearGradient id="linear-gradient-6" x1="29.7" y1="-614.68" x2="31.25" y2="-595.02" xlink:href="#linear-gradient-5"/><linearGradient id="linear-gradient-7" x1="-1834.44" y1="27.81" x2="-1833.44" y2="32.72" gradientTransform="translate(1981)" gradientUnits="userSpaceOnUse"><stop offset="0" stop-color="#84c241"/><stop offset="0.02" stop-color="#89c441"/><stop offset="0.17" stop-color="#a3cd43"/><stop offset="0.3" stop-color="#b3d345"/><stop offset="0.4" stop-color="#b9d545"/><stop offset="1" stop-color="#456f34"/></linearGradient><linearGradient id="linear-gradient-8" x1="-1835.4" y1="43.65" x2="-1830.96" y2="44.76" gradientTransform="translate(1981)" gradientUnits="userSpaceOnUse"><stop offset="0" stop-color="#456f34"/><stop offset="0.6" stop-color="#b9d545"/><stop offset="0.7" stop-color="#b3d345"/><stop offset="0.83" stop-color="#a3cd43"/><stop offset="0.98" stop-color="#89c441"/><stop offset="1" stop-color="#84c241"/></linearGradient><linearGradient id="linear-gradient-9" x1="-1834.83" y1="44.94" x2="-1836.36" y2="51.79" gradientTransform="translate(1981)" gradientUnits="userSpaceOnUse"><stop offset="0" stop-color="#b9d545"/><stop offset="0.24" stop-color="#d5b136"/><stop offset="0.47" stop-color="#ec922a"/><stop offset="0.61" stop-color="#f58725"/><stop offset="1" stop-color="#965624"/></linearGradient><linearGradient id="linear-gradient-10" x1="-1806.7" y1="35.25" x2="-1803.33" y2="35.25" gradientTransform="translate(1981)" gradientUnits="userSpaceOnUse"><stop offset="0" stop-color="#264b9b"/><stop offset="1" stop-color="#10bef0"/></linearGradient><linearGradient id="linear-gradient-11" x1="-1802.31" y1="36.81" x2="-1798.69" y2="36.81" xlink:href="#linear-gradient-10"/><linearGradient id="linear-gradient-12" x1="-1805.77" y1="35.96" x2="-1797.12" y2="35.08" xlink:href="#linear-gradient-8"/><linearGradient id="linear-gradient-13" x1="-1836.29" y1="39.88" x2="-1835.36" y2="36.59" xlink:href="#linear-gradient-8"/><linearGradient id="linear-gradient-14" x1="-1836.02" y1="38.66" x2="-1833.38" y2="29.33" xlink:href="#linear-gradient-8"/><linearGradient id="linear-gradient-15" x1="-1819.77" y1="47.84" x2="-1815.35" y2="32.24" xlink:href="#linear-gradient-8"/><linearGradient id="linear-gradient-16" x1="-1815.01" y1="48.73" x2="-1814.18" y2="41.19" xlink:href="#linear-gradient-10"/><linearGradient id="linear-gradient-17" x1="-7186.16" y1="47.37" x2="-7175.63" y2="47.37" gradientTransform="matrix(-1, 0, 0, 1, -7004.1, 0)" xlink:href="#linear-gradient-10"/><linearGradient id="linear-gradient-18" x1="-1806.34" y1="58.11" x2="-1812.06" y2="60.49" xlink:href="#linear-gradient-9"/><linearGradient id="linear-gradient-19" x1="-1806.82" y1="58.02" x2="-1811.55" y2="54.75" xlink:href="#linear-gradient-9"/><linearGradient id="linear-gradient-20" x1="-1808.63" y1="46.01" x2="-1803.62" y2="49.07" xlink:href="#linear-gradient-8"/><linearGradient id="linear-gradient-21" x1="-1799.51" y1="52.95" x2="-1796.53" y2="57.88" xlink:href="#linear-gradient-8"/><linearGradient id="linear-gradient-22" x1="-1801.12" y1="48.45" x2="-1799.35" y2="53.01" xlink:href="#linear-gradient-8"/><linearGradient id="linear-gradient-23" x1="-7154.39" y1="33.76" x2="-7146.59" y2="33.76" gradientTransform="matrix(-1, 0, 0, 1, -7004.1, 0)" xlink:href="#linear-gradient-7"/><radialGradient id="radial-gradient-4" cx="-7490.08" cy="31.35" r="3.23" gradientTransform="matrix(-1.25, 0, 0, 1.02, -9207.51, 1.16)" gradientUnits="userSpaceOnUse"><stop offset="0" stop-color="#3066af"/><stop offset="0.71" stop-color="#2b60ab"/><stop offset="1" stop-color="#285ca8"/></radialGradient><radialGradient id="radial-gradient-5" cx="-7490.01" cy="31.53" r="3.01" gradientTransform="matrix(-1.25, 0, 0, 1.02, -9207.51, 1.16)" gradientUnits="userSpaceOnUse"><stop offset="0" stop-color="#ed4523"/><stop offset="0.13" stop-color="#e74322"/><stop offset="0.3" stop-color="#d73e20"/><stop offset="0.49" stop-color="#bb351d"/><stop offset="0.69" stop-color="#952918"/><stop offset="0.91" stop-color="#651912"/><stop offset="1" stop-color="#4e120f"/></radialGradient><linearGradient id="linear-gradient-24" x1="-1816.18" y1="40.78" x2="-1817.46" y2="46.6" gradientTransform="translate(1981)" gradientUnits="userSpaceOnUse"><stop offset="0" stop-color="#fbed34"/><stop offset="0.17" stop-color="#e9e739"/><stop offset="0.49" stop-color="#cfdd3f"/><stop offset="0.78" stop-color="#bfd744"/><stop offset="1" stop-color="#b9d545"/></linearGradient><linearGradient id="linear-gradient-25" x1="-7183.12" y1="46.49" x2="-7172.6" y2="46.49" gradientTransform="matrix(-1, 0, 0, 1, -7004.1, 0)" xlink:href="#linear-gradient-10"/><linearGradient id="linear-gradient-26" x1="-1823.21" y1="57.55" x2="-1830.46" y2="62.47" xlink:href="#linear-gradient-9"/><linearGradient id="linear-gradient-27" x1="-1827.64" y1="45.71" x2="-1818.7" y2="43.17" xlink:href="#linear-gradient-8"/><linearGradient id="linear-gradient-28" x1="-1823.97" y1="52.44" x2="-1818.85" y2="54.62" xlink:href="#linear-gradient-8"/><linearGradient id="linear-gradient-29" x1="-1823.78" y1="46.81" x2="-1819.58" y2="42.7" xlink:href="#linear-gradient-10"/><radialGradient id="radial-gradient-6" cx="53.3" cy="-463.55" r="42.35" xlink:href="#radial-gradient"/><linearGradient id="linear-gradient-30" x1="7.83" y1="-441.61" x2="26.72" y2="-439.3" xlink:href="#linear-gradient"/><linearGradient id="linear-gradient-31" x1="46.47" y1="-480.02" x2="48.01" y2="-460.36" xlink:href="#linear-gradient"/><radialGradient id="radial-gradient-7" cx="53.3" cy="-521.67" r="32.73" xlink:href="#radial-gradient-2"/><linearGradient id="linear-gradient-32" x1="7.83" y1="-500.84" x2="26.72" y2="-498.52" xlink:href="#linear-gradient-3"/><linearGradient id="linear-gradient-33" x1="46.47" y1="-539.25" x2="48.01" y2="-519.59" xlink:href="#linear-gradient-3"/><radialGradient id="radial-gradient-8" cx="53.3" cy="-579.79" r="32.41" xlink:href="#radial-gradient-3"/><linearGradient id="linear-gradient-34" x1="7.83" y1="-560.06" x2="26.72" y2="-557.75" xlink:href="#linear-gradient-5"/><linearGradient id="linear-gradient-35" x1="46.47" y1="-598.48" x2="48.01" y2="-578.81" xlink:href="#linear-gradient-5"/><linearGradient id="linear-gradient-36" x1="-1850.65" y1="44.58" x2="-1849.65" y2="49.48" xlink:href="#linear-gradient-7"/><linearGradient id="linear-gradient-37" x1="-1851.6" y1="60.41" x2="-1847.17" y2="61.52" xlink:href="#linear-gradient-8"/><linearGradient id="linear-gradient-38" x1="-1851.03" y1="61.7" x2="-1852.56" y2="68.56" xlink:href="#linear-gradient-9"/><linearGradient id="linear-gradient-39" x1="-1822.9" y1="52.01" x2="-1819.53" y2="52.01" xlink:href="#linear-gradient-10"/><linearGradient id="linear-gradient-40" x1="-1818.51" y1="53.57" x2="-1814.9" y2="53.57" xlink:href="#linear-gradient-10"/><linearGradient id="linear-gradient-41" x1="-1821.97" y1="52.73" x2="-1813.33" y2="51.84" xlink:href="#linear-gradient-8"/><linearGradient id="linear-gradient-42" x1="-1852.49" y1="56.65" x2="-1851.56" y2="53.35" xlink:href="#linear-gradient-8"/><linearGradient id="linear-gradient-43" x1="-1852.23" y1="55.42" x2="-1849.58" y2="46.09" xlink:href="#linear-gradient-8"/><linearGradient id="linear-gradient-44" x1="-1835.97" y1="64.6" x2="-1831.55" y2="49" xlink:href="#linear-gradient-8"/><linearGradient id="linear-gradient-45" x1="-1831.21" y1="65.49" x2="-1830.39" y2="57.96" xlink:href="#linear-gradient-10"/><linearGradient id="linear-gradient-46" x1="-7169.95" y1="64.13" x2="-7159.42" y2="64.13" gradientTransform="matrix(-1, 0, 0, 1, -7004.1, 0)" xlink:href="#linear-gradient-10"/><linearGradient id="linear-gradient-47" x1="-1822.55" y1="74.87" x2="-1828.26" y2="77.25" xlink:href="#linear-gradient-9"/><linearGradient id="linear-gradient-48" x1="-1823.03" y1="74.78" x2="-1827.75" y2="71.51" xlink:href="#linear-gradient-9"/><linearGradient id="linear-gradient-49" x1="-1824.84" y1="62.77" x2="-1819.82" y2="65.84" xlink:href="#linear-gradient-8"/><linearGradient id="linear-gradient-50" x1="-1815.71" y1="69.71" x2="-1812.73" y2="74.65" xlink:href="#linear-gradient-8"/><linearGradient id="linear-gradient-51" x1="-1817.32" y1="65.22" x2="-1815.56" y2="69.78" xlink:href="#linear-gradient-8"/><linearGradient id="linear-gradient-52" x1="-7138.19" y1="50.52" x2="-7130.39" y2="50.52" gradientTransform="matrix(-1, 0, 0, 1, -7004.1, 0)" xlink:href="#linear-gradient-7"/><radialGradient id="radial-gradient-9" cx="-7477.11" cy="47.8" r="3.23" xlink:href="#radial-gradient-4"/><radialGradient id="radial-gradient-10" cx="-7477.03" cy="47.97" r="3.01" xlink:href="#radial-gradient-5"/><linearGradient id="linear-gradient-53" x1="-1832.39" y1="57.54" x2="-1833.66" y2="63.36" xlink:href="#linear-gradient-24"/><linearGradient id="linear-gradient-54" x1="-7166.92" y1="63.26" x2="-7156.39" y2="63.26" gradientTransform="matrix(-1, 0, 0, 1, -7004.1, 0)" xlink:href="#linear-gradient-10"/><linearGradient id="linear-gradient-55" x1="-1839.41" y1="74.32" x2="-1846.66" y2="79.23" xlink:href="#linear-gradient-9"/><linearGradient id="linear-gradient-56" x1="-1843.85" y1="62.47" x2="-1834.9" y2="59.94" xlink:href="#linear-gradient-8"/><linearGradient id="linear-gradient-57" x1="-1840.17" y1="69.21" x2="-1835.06" y2="71.38" xlink:href="#linear-gradient-8"/><linearGradient id="linear-gradient-58" x1="-1839.98" y1="63.57" x2="-1835.78" y2="59.47" xlink:href="#linear-gradient-10"/></defs><title>box-six-two</title><rect class="cls-1" x="16.2" y="16.77" width="59.23" height="59.24"/><polygon class="cls-2" points="32.41 0 16.2 16.77 75.43 16.77 91.63 0 32.41 0"/><polygon class="cls-3" points="91.63 0 75.43 16.77 75.43 76.01 91.63 59.24 91.63 0"/><g id="_Group_" data-name="&lt;Group&gt;"><path class="cls-4" d="M46.5,44.71c.5.38,1.21.32,1.77.66a23.2,23.2,0,0,1,2.56,1.78c1.52,4.64-.75,7.5,2.83,11a5.18,5.18,0,0,0-.92.7c-.68.8.34,2.06-.3,2.82-.36.43-1.33-1.35-2.35-.15-.44.53-.5,1.37-.85,2-1.31-.69-2.94-2-4.31-.64a.48.48,0,0,1-.74,0c-.39-.33-.74-1.14-1.08-1.43s-1.88.89-2.31.53.13-2-.78-2.86a.33.33,0,0,1,0-.36,4,4,0,0,0,.31-2.65c1.08-5.27,5.17-7.06,6.11-11.35-4.07,1.64-5.16,6-10.17,7.93a4,4,0,0,0-2.56.75.33.33,0,0,1-.36,0c-1-.75-2.47.11-2.94-.3s.57-2,.14-2.36-1.19-.49-1.59-.83a.48.48,0,0,1-.08-.74c1.15-1.58-.46-3-1.35-4.14.55-.45,1.37-.64,1.81-1.17,1-1.2-.9-1.86-.54-2.29.64-.76,2.05,0,2.73-.77a5.18,5.18,0,0,0,.54-1c4,2.95,6.48.23,11.31,1a23.21,23.21,0,0,1,2.19,2.23C46,43.57,46,44.28,46.5,44.71Z"/><path class="cls-5" d="M56,61.53c-.62.74-1.65-.39-2.16.21-.38.45.45,1.64-.33,2.57-1,1.14-2.16-1-2.86-.14-.34.41-.5,1.39-1.06,2.05-.82,1-1.27-.79-3.12.82-.22.19-.84-.15-1,.07-2.33,2.76-1.93,5.8-2.78,6.81-.33.39-.68.64-1.28.13-1.09-.92.1-2.25,1.12-3.46L43,70a2.48,2.48,0,0,0-.24-3c-.82-.69-1.75.33-2.09,0s0-.72-.42-1.07c-.73-.61-1.55.36-2.36-.33s1.45-2.28.7-2.91c-.15-.13-.39-.26-.58-.41-1.06-.9,1.89-2.37,2.15-4.95a12.7,12.7,0,0,1,.19-1.26A4,4,0,0,1,40,58.8a.33.33,0,0,0,0,.36c.91.88.31,2.45.78,2.86s1.87-.9,2.31-.53.69,1.09,1.08,1.43a.48.48,0,0,0,.74,0c1.37-1.39,3,0,4.31.64.35-.61.41-1.46.85-2,1-1.2,2,.58,2.35.15.64-.76-.38-2,.3-2.82a5.18,5.18,0,0,1,.92-.7c-3.58-3.49-1.31-6.35-2.83-11l.43.35C58.6,53.71,56.49,60.94,56,61.53Z"/><path class="cls-5" d="M28.34,38.16c-.62.74.66,1.56.15,2.16-.38.45-1.69-.17-2.47.76-1,1.14,1.31,2,.61,2.8-.34.41-1.29.72-1.84,1.38-.82,1,1,1.12-.29,3.22-.15.25.29.8.11,1-2.33,2.76-5.39,2.87-6.25,3.88-.33.39-.51.78.09,1.29,1.09.92,2.2-.48,3.22-1.68l.47-.56a2.48,2.48,0,0,1,3-.26c.82.69,0,1.78.31,2.07s.7-.12,1.13.24c.73.61-.09,1.58.72,2.27s2-1.81,2.75-1.18c.15.13.32.34.51.5,1.06.9,2-2.26,4.52-2.94a12.68,12.68,0,0,0,1.21-.4,4,4,0,0,0-2.56.75.33.33,0,0,1-.36,0c-1-.75-2.47.11-2.94-.3s.57-2,.14-2.36-1.19-.49-1.59-.83a.48.48,0,0,1-.08-.74c1.15-1.58-.46-3-1.35-4.14.55-.45,1.37-.64,1.81-1.17,1-1.2-.9-1.86-.54-2.29.64-.76,2.05,0,2.73-.77a5.18,5.18,0,0,0,.54-1c4,2.95,6.48.23,11.31,1L43,40.48C35.61,34.28,28.84,37.57,28.34,38.16Z"/></g><path class="cls-6" d="M45.13,47.82c-1.61,3,.41,1.73-3.76,9.29-.36.64-1.22,2.11-1.93,2.34l-.05-.06a1.57,1.57,0,0,1,.35-.43,34.1,34.1,0,0,0,4.09-7.22,17,17,0,0,1,1.24-4Z"/><path class="cls-6" d="M43.72,46.65c-2.39,1.89-3.06.56-9.15,6a6,6,0,0,0-1,1.08,1.57,1.57,0,0,1-.37.41l-.07,0c.18-1.18,3.61-3.58,4.79-4.41a12.72,12.72,0,0,1,4-2.12,7.86,7.86,0,0,0,1.75-1Z"/><path class="cls-6" d="M45.52,47.26c0,1.19.38,1.43.31,2.19-.17,2.05-.36,5.8,1.69,5.42.15,0,.12-.06.22-.16l.42-.46c1-1.12-.56-2.44,0-4.27l.08,0c-.52,1.82,1.11,3.11,0,4.31-.57.63-.51.7-1,.67-2.38-.19-1.37-5.33-1.67-6.41a2.55,2.55,0,0,1-.1-1.31Z"/><path class="cls-6" d="M44.18,46.18a2.55,2.55,0,0,1-1.31.12c-1-.1-1,.2-3.08.49-1.59.22-3.58.19-3.55-1.41,0-.2,0-.17.14-.3.38-.48.5-.69.85-.89,1.1-.51,2.32.4,3.78-.3L41,44c-2,1-3.4-.93-4.7,1.29a.85.85,0,0,0,0,.44c.46,1.75,3.85.9,5.58.46.72-.19,1,.09,2.21-.06Z"/><path class="cls-6" d="M48.63,53.26a15.39,15.39,0,0,1,4.19,7l-.08,0C52.1,59.19,51.63,56.68,48.63,53.26Z"/><path class="cls-6" d="M37.72,44c-3.88-2.4-6.4-2.43-7.56-2.89v-.08A15.82,15.82,0,0,1,37.72,44Z"/><path class="cls-6" d="M47.88,54.62c1.8,5.43.78,2.61,2.39,8.05a.68.68,0,0,1,0,.38l-.08,0a.7.7,0,0,1-.17-.35C48.67,57.63,49.78,61.2,47.88,54.62Z"/><path class="cls-6" d="M36.51,45c-6.91-.78-3.23-.29-8.35-.81a.7.7,0,0,1-.37-.11V44a.67.67,0,0,1,.38,0C33.94,44.68,30.76,44.12,36.51,45Z"/><path class="cls-6" d="M46.87,54.92c-.39,2-.24,5-.85,8.47l-.29-.08C46.45,59.87,46.41,56.95,46.87,54.92Z"/><path class="cls-6" d="M36.38,46c-2,.82-4.73,1.21-8.08,2.53l-.13-.27C31.63,47.08,34.35,46.8,36.38,46Z"/><path class="cls-6" d="M46.2,54.21c-.67,1.86-.9,1-1.87,4.08-.63,2-.31,1-1.45,4.3l-.24-.1c1.24-3.24.83-2.12,1.84-5C45,55.94,45.62,55.7,46.2,54.21Z"/><path class="cls-6" d="M37.19,46.59A19.3,19.3,0,0,0,35,48.4S32.1,50,29.63,51.48l-.14-.22c6.85-3.79,4.44-2.07,7-4.22A4.5,4.5,0,0,1,37.19,46.59Z"/><path class="cls-6" d="M45.68,52c-2.15,3.12-3.56,7.76-6,9.17l-.06-.06a4.38,4.38,0,0,1,.6-.83C43.59,56.39,42.91,55.57,45.68,52Z"/><path class="cls-6" d="M39.42,46.74c-2.92,3.21-4,2.89-7.26,6.75a4.38,4.38,0,0,1-.71.73l-.07-.05C32.33,51.64,36.83,49.25,39.42,46.74Z"/><g id="_Group_2" data-name="&lt;Group&gt;"><path class="cls-7" d="M54.17,46.51c-.22-.3-.36-.47-.32-.4S54,46.28,54.17,46.51ZM43.89,37.7c.08,0-.12-.09-.44-.25C43.71,37.59,43.85,37.69,43.89,37.7Zm3.84,5.55q.51-.28,1.08-.54c2.9,1.26,6.59,1.58,8.89-.87,1.22-1.29,3.14-.41,4.81-.11a2,2,0,0,0-.29.27c-.42.5-.12.9.35,1.3,2.11,1.79-2.48-.85.82,3a28.12,28.12,0,0,1-2.83-.53c.19.81,1.15,1.16,1.19,2a6.21,6.21,0,0,1-2.33-1.21c-.24-.2-.21-.15-.23-.14a19.16,19.16,0,0,1,1.26,1.95c.22.43.54,1.14.6,1.23.71,1-1.75-.58-3.91-2.42a5,5,0,0,1-.72-.75h0s4.86,6.61,2.85,4.91c-1.59-1.34-1.34-.87-3.5-2.59,0,0-.54-.74-1-1.41a8.91,8.91,0,0,0-.59-.82l.59.82c.11.17.22.35.34.56s3.47,6,2.2,4.91c-.89-.75-2.1-1.07-3-1.82a3.12,3.12,0,0,1-.61-.68c1.09,1.77,2,3.74,3.14,5.46l-.17-.14c-2.22-1.87-3.91-4.11-5.51-5.47-.84-.71-1.75-1.37-2.59-2.07a8.94,8.94,0,0,1-2.45-2.94,8.93,8.93,0,0,1-3.31-1.92C42,42.5,41.2,41.72,40.36,41c-1.6-1.36-4.09-2.65-6.31-4.52l-.17-.15c1.88.88,4,1.41,5.9,2.19A3.12,3.12,0,0,1,39,38c-.88-.74-1.4-1.88-2.29-2.64-1.27-1.07,5.11,1.32,5.2,1.35l.61.24.91.45a8.91,8.91,0,0,0-.91-.45c-.75-.36-1.52-.73-1.56-.77-2-1.85-1.54-1.68-3.13-3-2-1.7,5.32,2,5.32,2h0a5,5,0,0,1-.86-.59c-2.18-1.82-4.16-4-3-3.45.1,0,.85.24,1.31.39a19.15,19.15,0,0,1,2.13.92s.06,0-.18-.2a6.22,6.22,0,0,1-1.58-2.1c.86-.11,1.36.78,2.19.83a28.16,28.16,0,0,1-1-2.7c4.33,2.61,1-1.47,3.08.31.47.4.91.63,1.34.13a2,2,0,0,0,.22-.33c.58,1.6,1.77,3.35.7,4.77-2,2.69-1.1,6.27.63,8.92Q47.92,42.7,47.73,43.25Z"/><path class="cls-5" d="M57.16,47.18c2.16,1.85,4.62,3.44,3.91,2.42-.06-.09-.38-.8-.6-1.23a17.81,17.81,0,0,0-1.26-1.95s0-.07.23.14a6.21,6.21,0,0,0,2.33,1.21c0-.87-1-1.22-1.19-2a28.12,28.12,0,0,0,2.83.53c-3.3-3.83,1.29-1.2-.82-3-.47-.4-.78-.79-.35-1.3a2,2,0,0,1,.29-.27c-1.67-.3-3.6-1.18-4.81.11-2.31,2.45-6,2.13-8.89.87,6.05-2.81,16.6-4.37,22.37.51,1.75,1.48,3.06,4.41,2,5.64-.66.78-3.75,1.06-5.94,3.66-.42.49-.87,1.22-.9,1.25-.65.77-1.89.78-2.83,1.38-1.94,1.24-3.13,3.54-6.69.63-1.18-1.71-2.05-3.68-3.14-5.46a3.12,3.12,0,0,0,.61.68c.88.74,2.09,1.07,3,1.82,1.27,1.07-2.16-4.83-2.2-4.91S53.91,46.18,53.8,46a19.84,19.84,0,0,0,2.14,2.5,26.73,26.73,0,0,0,3.34,2.82c2,1.7-2.85-4.91-2.85-4.91h0A5,5,0,0,0,57.16,47.18Z"/><path class="cls-5" d="M42.29,34.61c-2.18-1.82-4.16-4-3-3.45.1,0,.85.24,1.31.39a17.8,17.8,0,0,1,2.13.92s.07,0-.18-.2a6.22,6.22,0,0,1-1.58-2.1c.86-.11,1.36.78,2.19.83a28.16,28.16,0,0,1-1-2.7c4.33,2.61,1-1.47,3.08.31.47.4.91.63,1.34.13a2,2,0,0,0,.22-.33c.58,1.6,1.77,3.35.7,4.77-2,2.69-1.1,6.27.63,8.92,1.75-6.44,1.54-17.11-4.23-22C42.1,18.62,39,17.82,38,19c-.66.78-.42,3.87-2.61,6.47-.42.49-1.05,1.07-1.08,1.1-.65.77-.45,2-.88,3-.9,2.12-3,3.67.5,6.71,1.88.88,4,1.41,5.9,2.19A3.12,3.12,0,0,1,39,38c-.88-.74-1.4-1.88-2.29-2.64-1.27-1.07,5.11,1.32,5.2,1.35s1.89.89,2.08,1A19.83,19.83,0,0,1,41.18,36a26.73,26.73,0,0,1-3.34-2.83c-2-1.7,5.32,2,5.32,2h0A5,5,0,0,1,42.29,34.61Z"/></g><path class="cls-6" d="M57.43,41.54c1.39-.84,2.77,1.06,3.26.84,1-.9,1.26-1.24,2.23-1.08l0,.08a1.38,1.38,0,0,0-.9.11c-1.93,1.23-.66,1.53-2.73.33-1.21-.72-1.79-.21-1.79-.21Z"/><path class="cls-6" d="M47.72,33.37a1.25,1.25,0,0,0,0-.9,6.16,6.16,0,0,0-1.29-1.68c-.49-.62,0-.44.65-1.9.07-.6.09-.44,0-.91l.07,0c.32.93,0,1.25-.69,2.38-.14.51,2,1.57,1.37,3.07Z"/><path class="cls-6" d="M60.76,42.41c.12.09.21.09.33.29.47.92-.24,2.84-.49,3.14-1.66,1.8-8.07-.1-12-.62-2.18-.31-2.32.08-2.66-1.42-1.13-4.32-4.13-9.91-3.19-12.3.17-.54.44-.77,1.47-1.22.74-.32,1.66-.62,2.14,0l-.06.05c-.4-.6-1.41-.25-2,0-2.37,1.09-1.94,2.09.78,10.14.24.72.48,1.44.68,2.18.37,1.35.31,1.69.64,2.17h0A2.67,2.67,0,0,0,47.5,45c4.56.22,11,2.32,12.82.9.52-.33,1.23-2.55.62-3.3,0-.06-.15-.11-.22-.16Z"/><path class="cls-6" d="M54.24,51c-.14-.16-1.54-1.77-1.69-1.93-2.87-3.1-4-2.41-6.46-3.92a9.39,9.39,0,0,1-1.44-2.15c-1.44-2.34-1.86-2.58-5.68-4.92v0c6.66,3.4,4.84,4.11,7.21,7h0c3.13,1.8,3.66,0,8.08,6Z"/><path class="cls-6" d="M47.07,45.55c.19.08.27.26.43.39,1.13,1,1.75,1.36,1.55,2.52.12-1.63-1.86-2.09-2-2.86Z"/><path class="cls-6" d="M45.54,44.36c-.77,0-1.59-1.93-3.16-1.54,1-.34,1.49.09,2.29.75a8.82,8.82,0,0,0,.8.6.6.6,0,0,1,.11.12Z"/><path class="cls-6" d="M46.1,46.14c.5,2.68-.06,2,3.79,5.33a20.75,20.75,0,0,1,4.69,5.07l-.07,0a19.7,19.7,0,0,0-4.68-5c-3.93-3.31-3.61-2.82-3.81-5.39Z"/><path class="cls-6" d="M45.17,45.43c-2.5.23-2,.47-5.95-2.86a19.61,19.61,0,0,0-5.75-3.77l0-.08c4.9,2,7.82,6.39,10,6.62.86,0,1.16,0,1.68,0Z"/><path class="cls-8" d="M48,42.85c-.48,1-.58,2.43-1.22,3.5,0,0-2.29,2.25-2.29,2.25s-3.89,4-4.37,3.6,2.71-4.63,2.84-4.78,1.79-2.76,1.81-2.78C45.69,43.83,47.12,43.49,48,42.85Z"/><path class="cls-9" d="M50.33,40.08c.27.28.09,1.22-.13,1.48s-.28.16-.7-.2l0,0-.1-.08-.1-.09,0,0c-.43-.36-.46-.49-.31-.66S50,39.85,50.33,40.08Z"/><path class="cls-10" d="M50.43,40.63l-.07.07a.46.46,0,0,0-.1.54c.07.06.16.1.29,0a.39.39,0,0,0-.06-.53Z"/><path class="cls-10" d="M49.77,40.07l-.06.08c-.19.23-.45.25-.51.19s-.13-.14,0-.29a.39.39,0,0,1,.53,0Z"/><path class="cls-11" d="M49.45,41.11l.15.12a.91.91,0,0,1,.22.27,1.87,1.87,0,0,1-.36,2.17,6.16,6.16,0,0,1-2.24,1.46c-.39.13-1.48-.73-1.38-1.18a6,6,0,0,1,1.07-2.45A1.87,1.87,0,0,1,49,40.81a.91.91,0,0,1,.3.17Z"/><path class="cls-11" d="M50.13,40.42c.94-1.71,7,.38,9.06-1,.55-.37.55-.67.43-.66h0a.07.07,0,0,1,.06,0c0,.08,0,.18-.13.28-1.66,2-7.54-.27-9.35,1.43Z"/><path class="cls-11" d="M50.07,40.14c.92-1.54-1.27-7.76-.76-9.19,0-.12.1-.23.19-.22a.06.06,0,0,1,0,.09s0-.05,0-.09c-.68-.13.27,4,.4,4.63.54,2.58.77,4.08.32,4.86Z"/><rect class="cls-12" x="75.43" y="16.77" width="59.23" height="59.24"/><polygon class="cls-13" points="91.63 0 75.43 16.77 134.66 16.77 150.86 0 91.63 0"/><polygon class="cls-14" points="150.86 0 134.66 16.77 134.66 76.01 150.86 59.24 150.86 0"/><path class="cls-15" d="M93.92,42.68l.52.3a2.82,2.82,0,0,1,.58.52c.07.16,4,.24,5,.35s5.15.1,5.15.1l5.75.4c.83.06,4.78.45,6.25.6l.12-1.58h-.71l-4.3-.56L107,42.41l-3.73-.26-5.65.19L92.77,42l1.47.5Z"/><path class="cls-16" d="M93.67,42.82l.45.45-.22.33-.18.43.49.38s2.22.1,3.12.16,2.64.28,3.39.22,3.42-.18,4.25-.12,5.22.46,5.22.46l7,.87L117.2,45c-1.47-.15-5.42-.55-6.25-.6L105.2,44s-4.17,0-5.15-.1-4.95-.19-5-.35a2.82,2.82,0,0,0-.58-.52l-.52-.3.31-.18L92.77,42l.82.65Z"/><path class="cls-16" d="M100.43,42.71a3.71,3.71,0,0,0-.66,0l-.71,0-.87,0c-1.24-.05-2.26-.12-2.26-.08a15.23,15.23,0,0,0,2.27.21l.89,0h.72A2.89,2.89,0,0,0,100.43,42.71Z"/><path class="cls-16" d="M110,43.8a13.87,13.87,0,0,0-1.62-.22c-1-.11-2.41-.25-4-.3-3.08.05-5.56,0-5.56,0a14.83,14.83,0,0,0,1.65.1l1.78,0c.67,0,1.42,0,2.16,0,1.52,0,2.93.17,3.94.25S110,43.83,110,43.8Z"/><path class="cls-16" d="M111.64,43.49s-1.34-.2-3-.38c-.84-.09-1.61-.14-2.16-.18a6.38,6.38,0,0,0-.9,0,6.39,6.39,0,0,0,.89.12l2.15.22C110.26,43.41,111.63,43.52,111.64,43.49Z"/><path class="cls-16" d="M116.62,44.49a11.51,11.51,0,0,0-2-.27,12,12,0,0,0-2-.11,11.51,11.51,0,0,0,2,.27A11.94,11.94,0,0,0,116.62,44.49Z"/><path class="cls-16" d="M116.41,43.58a15.89,15.89,0,0,0-1.64-.23,12.11,12.11,0,0,0-1.67-.14,10.11,10.11,0,0,0,1.64.26A8.77,8.77,0,0,0,116.41,43.58Z"/><path class="cls-17" d="M103.88,51.39c-.11,1.57-.17,3.64.16,4.25.17.32.38.24.59,0l-.32-4.1Z"/><path class="cls-18" d="M104,49.47s-.09.85-.16,1.92l.43.11.32,4.1a7.26,7.26,0,0,0,1-2.58C105.58,52.53,106.7,47,104,49.47Z"/><path class="cls-17" d="M109.63,51.18c.29,1.55.6,3.59.35,4.24-.13.33-.35.28-.59,0l-.17-4.11S109.41,51.27,109.63,51.18Z"/><path class="cls-18" d="M109.24,49.29s.19.83.39,1.89c-.22.09-.42.16-.42.16l.17,4.11A7.3,7.3,0,0,1,108.13,53C108.07,52.52,106.3,47.13,109.24,49.29Z"/><path class="cls-19" d="M109,48.91l-.55-.31a18.17,18.17,0,0,1-1.39,3c-.68,1-1.42,0-1.42,0a2.31,2.31,0,0,1-1,.94c.13,3,.33,7,.55,8.88.36,3.12,1.42,12.21,1.76-.71,0,0,1.05,10.69,1.7,11.69s.49-.43.49-.84c0,0,1.31,1.65.76-.17a78.15,78.15,0,0,1-1.31-12.18s1,6.2,1.35,7.8,1.26,2.46.94.45A89.57,89.57,0,0,1,109,48.91Z"/><path class="cls-20" d="M107.93,49.87c.3-.69.5-1.27.5-1.27l.55.31q0-1-.08-2.09s-3.85-3.63-4.47,2.07c0,0,.06,1.58.15,3.66a2.31,2.31,0,0,0,1-.94,1.2,1.2,0,0,0,.65.45c.15,2,.4,5.32.48,6.86,0,0,0-4.2,0-7a1.2,1.2,0,0,0,.33-.35,8.32,8.32,0,0,0,.5-.9c.15,1.69.47,5.14.86,7.21a64,64,0,0,1-.47-8.06Z"/><path class="cls-21" d="M109.72,32.8a3.82,3.82,0,0,0-.53-1c.23,2.31-.81,2-.81,2-.12,1.49-.74,1-.74,1-.22,1.24-.87.18-.87.18-.4,2.05-1.42.85-1.42.85-.49,1.6-1.14.36-1.14.36-.19,1-1,0-1,0-.22,1.18-1.27.07-1.27.07,0,1.16-1.58-.88-1.58-.88.09,2.31-1.61-.68-1.61-.68.06,1-.93.94-1.55-.33a4.56,4.56,0,0,1-.37-1.48,9.7,9.7,0,0,0,.29,3.59A6.84,6.84,0,0,0,98.44,38c.63.39,1.23.72,1.18,0,0,0,1.76,2.13,1.76,1.2,0,0,.76,1.2,1,.68,0,0,1.68,1.49,1.89.79,0,0,.86.82,1,.34,0,0,.76.57.79-.54,0,0,1,.63,1.09-.16,0,0,.81.5,1-1,0,0,.79.43,1.07-.84a20.08,20.08,0,0,0,.73-5.14C109.79,33.14,109.76,33,109.72,32.8Z"/><path class="cls-17" d="M110.81,48.45c-.77-.51-2-1.51-2-1.51a24.53,24.53,0,0,1-3-2.19,28,28,0,0,0,4,2.44c1.44.59,1.63.39,1.63.39s-.3-.33-.77-.5A9.27,9.27,0,0,1,108.81,46l-1-.75a5,5,0,0,0,2.4,1,.91.91,0,0,0-.08-.34,1.72,1.72,0,0,0-.9-.68,22.08,22.08,0,0,1-3.48-1.59,11.58,11.58,0,0,1-1.07-.89A13.09,13.09,0,0,0,109.27,45a45.2,45.2,0,0,0,.81-9.43c0-.43-.05-.85-.1-1.24,0,6.54-1.17,5.26-1.17,5.26-.22,1.36-1,1-1,1-.28,1.06-.83.54-.83.54-.22,1.12-.83.51-.83.51.12,1.36-1-.06-1-.06,0,.82-1.13-.51-1.13-.51s.08.48-.54.3a4.1,4.1,0,0,1-1.39-1.12s0,.76-.9.21a7.48,7.48,0,0,1-1.76-1.63c0,.3.15.82-1,0a4.46,4.46,0,0,1-.87-.94h0a16,16,0,0,0,1.51,2.9,21.73,21.73,0,0,0,3.13,3.09c1.51,1.08,7.9,5.29,9.45,5.38C111.68,49.06,111.25,48.74,110.81,48.45Z"/><path class="cls-18" d="M105.73,43.66a22.08,22.08,0,0,0,3.48,1.59l.06-.29a13.09,13.09,0,0,1-4.61-2.19A11.58,11.58,0,0,0,105.73,43.66Z"/><path class="cls-19" d="M109.18,31.83a3.82,3.82,0,0,1,.53,1,11.58,11.58,0,0,0-.72-2.15A8,8,0,0,0,105.9,27a8.84,8.84,0,0,0-2.57-5,8.3,8.3,0,0,0-6.08-1.92c-2,.06-2.67.88-2.89,1.59a3.23,3.23,0,0,0,.18,2,31.55,31.55,0,0,1,3.1,3.25,2.76,2.76,0,0,1,.92-.51,3.43,3.43,0,0,0,1.5-.54,4,4,0,0,1-.48,1.89,17.39,17.39,0,0,0-1.9,2.45,8.26,8.26,0,0,0-.79,2.69,4.56,4.56,0,0,0,.37,1.48c.62,1.27,1.61,1.3,1.55.33,0,0,1.7,3,1.61.68,0,0,1.55,2,1.58.88,0,0,1.05,1.1,1.27-.07,0,0,.77,1,1,0,0,0,.65,1.24,1.14-.36,0,0,1,1.21,1.42-.85,0,0,.65,1.05.87-.18,0,0,.62.46.74-1,0,0,1,.36.81-2Z"/><path class="cls-22" d="M97.06,36.34h0l-.36-.53,0,0-.06-.09,0-.06,0-.06-.07-.1a9.73,9.73,0,0,0,.26,1,13.58,13.58,0,0,0,.87,1.37,12.46,12.46,0,0,1-.45-1.36Z"/><path class="cls-23" d="M96.88,32.9a9.82,9.82,0,0,1,0-1.12h0s0-.1,0-.14h0c0-.06,0-.11,0-.16a8.75,8.75,0,0,0-.48,2.85,6,6,0,0,0,.13,1.15c.15.23.4.61.69,1A9.7,9.7,0,0,1,96.88,32.9Z"/><path class="cls-20" d="M99.57,27.76a4,4,0,0,0,.48-1.89,3.43,3.43,0,0,1-1.5.54,2.76,2.76,0,0,0-.92.51l0,0a3,3,0,0,1,0,2.78,7.52,7.52,0,0,0-.83,1.73,10.4,10.4,0,0,0,0,1.43,8.26,8.26,0,0,1,.79-2.69A17.39,17.39,0,0,1,99.57,27.76Z"/><path class="cls-17" d="M110,48.95a5.53,5.53,0,0,0-1.83-1.05v0s-6.37-6-6-4.49a32.72,32.72,0,0,1,.15,6.27c0,1.51.85.69.85.69-.14,1.63,1.25,0,1.25,0-.31,3.65,1.34-.09,1.34-.09-.11.85.11,1.45.93.52a5.79,5.79,0,0,0,.79-1.26c.09.55.29,1.33.68,1.55.62.34.53-1.36.53-1.36s.58,1.7,1.27,2S110.29,49.39,110,48.95Z"/><path class="cls-18" d="M108.23,44.6a16.47,16.47,0,0,0,.18-2c0-.83-.09.41-.29,1.66l0,.24-.24-.09a9.45,9.45,0,0,0,.21-1.07c0-.46-.09-.14-.15.25,0,.17-.11.51-.17.79l-.53-.15a6.52,6.52,0,0,0,.09-.77c0-.26-.11-.06-.2.44l-.06.29-.27,0a19.14,19.14,0,0,1,2.45,1.06l0-.19C108.86,44.86,108.52,44.72,108.23,44.6Z"/><path class="cls-24" d="M96.69,23.71s-.26-1.64.33-1.9a2.51,2.51,0,0,1,2.15,0c1,.38,1.48.49,1.48,1.59s-.38,2.68-1.21,3.12a2,2,0,0,1-1.8,0A3.92,3.92,0,0,1,96.69,23.71Z"/><ellipse class="cls-25" cx="98.36" cy="22.86" rx="0.91" ry="0.88"/><ellipse class="cls-26" cx="98.19" cy="22.86" rx="0.54" ry="0.53"/><ellipse class="cls-24" cx="98.46" cy="22.37" rx="0.27" ry="0.27"/><path class="cls-27" d="M95.72,26.33a4.94,4.94,0,0,0,2.89.61s.53-.38-.21-1.5-1.3-1.33-1.71-1.13A2,2,0,0,0,95.72,26.33Z"/><path class="cls-18" d="M110.18,46.27a5,5,0,0,1-2.4-1l1,.75S110.12,46.52,110.18,46.27Z"/><path class="cls-18" d="M111.12,47.76c.26,0,.37-.06.34-.17s-.19.2-1.63-.39a28,28,0,0,1-4-2.44,24.53,24.53,0,0,0,3,2.19A11.13,11.13,0,0,0,111.12,47.76Z"/><path class="cls-18" d="M111.7,49.23c-.81-.05-3-1.23-5-2.5a.14.14,0,0,0-.08,0c-1.85-1.13-3.63-2.33-4.34-2.83A22.78,22.78,0,0,1,99,40.56l.17.2a16,16,0,0,1-1.51-2.9h0c-.16-.22-.32-.45-.46-.68h0l-.21-.34h0l-.19-.33a15.34,15.34,0,0,0,1.43,3.14l0,0,0,0a15.68,15.68,0,0,0,5,5.33l.24.15c0,.42,0,1.49,0,2a11.63,11.63,0,0,0,.46-1.7l1,.65c0,.3-.09,1.73-.17,2.16a8.57,8.57,0,0,0,.45-2l1,.64h0a14,14,0,0,1-.29,2.87,13.57,13.57,0,0,0,.79-2.57l.9.53a7.22,7.22,0,0,1,0,1,4.8,4.8,0,0,1,.33-.8l.44.25a4.87,4.87,0,0,0,.23,1.12,5,5,0,0,1,.11-.93,10.7,10.7,0,0,0,2.06.94C111.5,49.4,111.73,49.36,111.7,49.23ZM98.28,39.74l-.05-.06Zm.65.78-.29-.35Zm-.32-.38-.22-.27Zm-.24-.29-.07-.09Z"/><path class="cls-28" d="M95.67,27a1,1,0,0,1,0-.57,3.23,3.23,0,0,1,.67-1.63c.53-.66.53-1,.47-1.16a3.16,3.16,0,0,0-2.28-1.17A4.15,4.15,0,0,0,96.1,28,3.89,3.89,0,0,1,95.67,27h0Z"/><polygon class="cls-27" points="95.67 26.98 95.67 26.98 95.67 26.98 95.67 26.98"/><path class="cls-27" d="M96.35,24.77a3.23,3.23,0,0,0-.67,1.63l0-.07C96,25.78,97.08,25,97,24.14a1.11,1.11,0,0,0-.2-.53C96.88,23.77,96.89,24.11,96.35,24.77Z"/><path class="cls-29" d="M97.19,24.68A13.34,13.34,0,0,1,96.42,26c-.26.33.87.35,1.05.35s.76-.14.65-.57S97.43,24.24,97.19,24.68Z"/><path class="cls-30" d="M94.56,22.76a6.2,6.2,0,0,0-.31,1.9c.06.79.52,1.84.61,1.54s-.12-1.42.4-2,.54-1,.16-1.2S94.65,22.47,94.56,22.76Z"/><path class="cls-31" d="M109.83,33.32a20.08,20.08,0,0,1-.73,5.14c-.28,1.27-1.07.84-1.07.84-.14,1.49-1,1-1,1-.14.79-1.09.16-1.09.16,0,1.11-.79.54-.79.54-.12.48-1-.34-1-.34-.22.7-1.89-.79-1.89-.79-.19.52-1-.68-1-.68,0,.93-1.76-1.2-1.76-1.2,0,.72-.56.39-1.18,0a6.84,6.84,0,0,1-1.27-1.5,12.46,12.46,0,0,0,.45,1.36,4.46,4.46,0,0,0,.87.93c1.11.82,1,.3,1,0a7.48,7.48,0,0,0,1.76,1.63c.93.54.9-.21.9-.21a4.1,4.1,0,0,0,1.39,1.12c.62.18.54-.3.54-.3s1.13,1.33,1.13.51c0,0,1.08,1.42,1,.06,0,0,.62.6.83-.51,0,0,.56.51.83-.54,0,0,.8.36,1-1,0,0,1.16,1.27,1.17-5.26C109.93,33.95,109.88,33.63,109.83,33.32Z"/><path class="cls-30" d="M96.7,35.8l.36.53Z"/><path class="cls-30" d="M96.75,36.48l.19.33Z"/><rect class="cls-32" x="134.66" y="16.77" width="59.23" height="59.24"/><polygon class="cls-33" points="150.86 0 134.66 16.77 193.88 16.77 210.09 0 150.86 0"/><polygon class="cls-34" points="210.09 0 193.88 16.77 193.88 76.01 210.09 59.24 210.09 0"/><path class="cls-35" d="M143.58,31.91a4.3,4.3,0,0,0,5.17,1.56c2-.74,2.81-2.63,1.91-4.22a4.3,4.3,0,0,0-5.17-1.56C143.53,28.42,142.67,30.32,143.58,31.91Z"/><path class="cls-36" d="M147.37,45.44a2.67,2.67,0,0,1,2,.47,2.27,2.27,0,0,1,.32-.78,5.92,5.92,0,0,0,.31-.86c.15-.39.29-.78.42-1.17l0-.08-2.83-1.61-.06.16c-.33.92-.66,1.85-1,2.77a4.61,4.61,0,0,1-.6,1.12,2.67,2.67,0,0,1-.75.59l-.26.16C145.92,46.47,146.64,45.8,147.37,45.44Z"/><path class="cls-37" d="M153.52,47.48a1.39,1.39,0,0,0-1.68-.45,1.42,1.42,0,0,0-.37.21c-.78-.19-1.7-.28-2-.9a.72.72,0,0,1-.07-.42,2.67,2.67,0,0,0-2-.47c-.72.36-1.45,1-2.41.78-1.11.63-2.57.9-3.69,1.53a8.22,8.22,0,0,0-2,1.5c-.36.38-.95.84-1.09,1.34a1.84,1.84,0,0,0-.79.11c-.71.27-1.05.91-.76,1.43a1.51,1.51,0,0,0,1.83.46c.7-.26,1-.88.77-1.39A9.09,9.09,0,0,0,140.34,50a8.13,8.13,0,0,1,2.12-1.84c.28-.16,1.91-.92,1.92-.08,0,.24-.39.53-.53.73a9.27,9.27,0,0,0-.67,1.08,5.72,5.72,0,0,0-.71,2.25,1.73,1.73,0,0,0-.38.09,1.11,1.11,0,0,0-.72,1.57,1.6,1.6,0,0,0,1.93.57,1.11,1.11,0,0,0,.72-1.57,1.16,1.16,0,0,0-.19-.24,7,7,0,0,0,.75-2.39,5.13,5.13,0,0,1,.82-1.61c.29-.43.45-.79,1-1a3.5,3.5,0,0,1,.49,2,5.68,5.68,0,0,0,.16,1.14c-.56.33-.81.87-.56,1.3a1.63,1.63,0,0,0,2,.39c.79-.3,1.19-1,.9-1.47a1.3,1.3,0,0,0-1.15-.53c0-.14,0-.29,0-.44,0-.59-.37-2,.25-2.46.32-.22.75-.05,1.08.07a13.5,13.5,0,0,0,1.33.42l.24.06a.79.79,0,0,0,.1.32,1.39,1.39,0,0,0,1.68.45C153.49,48.57,153.79,48,153.52,47.48Z"/><path class="cls-38" d="M174.3,35s1.66.65,3.37,1.45A21.31,21.31,0,0,1,176.2,34,7.44,7.44,0,0,0,174.3,35Z"/><path class="cls-39" d="M182.3,39.31s-.95-3.57-3.61-5a13.48,13.48,0,0,1,.87,3.12c.35.2.66.39.92.58Z"/><path class="cls-40" d="M177.91,34a2.83,2.83,0,0,0-1.71.08,21.31,21.31,0,0,0,1.47,2.41c.66.31,1.31.64,1.89,1a13.48,13.48,0,0,0-.87-3.12A4.88,4.88,0,0,0,177.91,34Z"/><path class="cls-41" d="M143.21,39.37a9.65,9.65,0,0,1,1.3.53l.1,0c2.75-.53,5.51.13,8.26-.79a8.14,8.14,0,0,0,.89-.22c-5.77,0-11.62-.42-16.85-2.38C138.32,37.79,143,39.4,143.21,39.37Z"/><path class="cls-42" d="M154.65,38.17c.29-2.92-2-5.52-3.93-8a38,38,0,0,0-4.36.57,27.81,27.81,0,0,0-5.7.86c-3.23.82-4.75,3.12-4.1,4.47a1.5,1.5,0,0,0,.34.42c5.23,2,11.08,2.37,16.85,2.38C154.23,38.72,154.65,38.5,154.65,38.17Z"/><path class="cls-43" d="M182.22,40.57a1.69,1.69,0,0,0,.09-1.26h0L180.48,38c-1.82-1.31-8.9-4.13-8.9-4.13a21.48,21.48,0,0,0-6.88-1.13,11.67,11.67,0,0,1-7.87-1.82c-1.37-.84-3.88-.91-6.1-.75,2,2.48,4.21,5.09,3.93,8,0,.53-1.13.79-1.78.93-2.75.93-5.51.26-8.26.79l-.1,0c.84.38,2,.93,3.12,1.51L150.46,43a7.63,7.63,0,0,1,1,.73,32.75,32.75,0,0,0,4.24,2.89,31.07,31.07,0,0,1-3.11-5.31,9.76,9.76,0,0,1,1.64.07c-.28-.3-.07-.55-.24-.91,8.87,0,16.83,1.82,25.22,4.13l.76-.51A5.38,5.38,0,0,0,182.22,40.57Z"/><path class="cls-44" d="M154.21,41.41c4.41.56,7.19,4.09,9.81,7,0-.17,0-.26,0-.26.8.87,6.76-.27,7.37-.39,4-1.06,5.86-1.85,7.78-3.07-8.39-2.31-16.18-4.13-25-4.13C154.32,40.86,153.93,41.11,154.21,41.41Z"/><path class="cls-45" d="M182.06,43.52c-.42-1-.93-1.65-1.94-.79a32.37,32.37,0,0,0-8.58,9.68c1.75-1,3.79-1.6,5.62-2.59l-.68.27S181.51,46,182.06,43.52Z"/><path class="cls-46" d="M170.86,56.93a18.6,18.6,0,0,0-2.73.39,2,2,0,0,0-1.76-.52c-.95.12-1.62.71-1.5,1.32s1,1,1.93.87a1.74,1.74,0,0,0,1.47-.93c.94.17,2.43.28,3.12.5,1.12.34,2,.92,1.32,1.9a2.13,2.13,0,0,0-.29.65h0c-.9.12-1.52.78-1.38,1.48a1.62,1.62,0,0,0,1.88,1.06c.9-.12,1.52-.78,1.38-1.48a1.08,1.08,0,0,0-.2-.44c.14-.14.29-.29.43-.46a6.48,6.48,0,0,0-3.11-3.46C171.36,57.64,171,57.3,170.86,56.93Z"/><path class="cls-47" d="M170.82,56.41c.72-.61,1.6-.4,2.45-.35-.31-.16-.74-.37-1.18-.54a23.57,23.57,0,0,1-2.6-1.27,1,1,0,0,0-.81,1,1.23,1.23,0,0,0,1.43.76h.06a2.67,2.67,0,0,0,.64.77A.6.6,0,0,1,170.82,56.41Z"/><path class="cls-48" d="M171.6,52.29a32.54,32.54,0,0,1,8.52-9.56c1-.86,1.52-.21,1.94.79a1.59,1.59,0,0,0,0-.72A2.72,2.72,0,0,0,179,40.86c-3.08,3.79-8.19,7.19-10.52,11.27a1.51,1.51,0,0,0,.35,1.61c.22.19.43.35.64.51l.72.39A3.08,3.08,0,0,1,171.6,52.29Z"/><path class="cls-49" d="M179.26,56.49c-1.47-.13-5.52-.17-5.52-.17l-.48-.25c-.85,0-1.73-.26-2.45.35a.6.6,0,0,0,0,.38l.16.13h-.11c.16.37.5.71.53.87a6.48,6.48,0,0,1,3.11,3.46c.81-.93,1.6-2.12,2.33-2.21,1-.13,4,.58,7.08-2.31s8.5-6.28,8.2-7.8a11.36,11.36,0,0,0-4,1.38C187.45,50.89,180.66,56.62,179.26,56.49Z"/><path class="cls-50" d="M186.08,46.68c-3.07.85-7.3,2.49-8.93,3.14-1.83,1-3.87,1.56-5.62,2.59l.07-.12a3.08,3.08,0,0,0-1.39,2.34,14.18,14.18,0,0,0,1.88.89,8,8,0,0,0,4.43-.59c3.08-1.09,11.66-4.66,11.66-4.66l-.06,0a11.36,11.36,0,0,1,4-1.38.72.72,0,0,0,0-.07C191.61,47.38,190,45.6,186.08,46.68Z"/><path class="cls-51" d="M142.85,35.09A4.31,4.31,0,0,0,148,36.65c2-.74,2.81-2.63,1.91-4.22a4.3,4.3,0,0,0-5.17-1.56C142.8,31.61,142,33.5,142.85,35.09Z"/><path class="cls-52" d="M143,35.14a3.91,3.91,0,0,0,4.7,1.41c1.78-.67,2.55-2.39,1.73-3.84a3.91,3.91,0,0,0-4.7-1.42C143,32,142.21,33.69,143,35.14Z"/><path class="cls-53" d="M143.13,35.18a3.65,3.65,0,0,0,4.38,1.32,2.51,2.51,0,0,0,1.61-3.58,3.65,3.65,0,0,0-4.38-1.32C143.09,32.23,142.37,33.83,143.13,35.18Z"/><path class="cls-54" d="M174.74,43.3a30,30,0,0,1-3-.63c-.63-.16-1.26-.28-1.87-.49-.3-.1-.61-.12-.92-.19s-.68-.2-1-.27c-.92-.18-1.82-.33-2.75-.45-.58-.08-1.17-.13-1.74-.23s-1.08-.31-1.64-.45a8.84,8.84,0,0,0-2.1-.23c-.51,0-1,.13-1.52.08-.37,0-.72-.19-1.09-.24a17.73,17.73,0,0,0-2.07,0,2.87,2.87,0,0,0-1.49.38c-.3.17-.43.34-.3.62a.86.86,0,0,0,.59.44c.3.1.41.06.49-.09s-.23-.62,0-.62a5.1,5.1,0,0,1,2-.13l0,0a1.44,1.44,0,0,1,.45.17c.12.08.13.19.19.31s.18.5.3.73.42.74.7.64.05-.77,0-.94c-.06-.35-.19-.6.37-.6s1,0,1.18.57.19,1.11.36,1.65a5.45,5.45,0,0,0,.52,1.28c.14.23.51.77.93.72s0-.55-.05-.69a10.11,10.11,0,0,1-.46-1.09,3.41,3.41,0,0,1-.11-1.15,1.15,1.15,0,0,1,.56-1.13,1.49,1.49,0,0,1,1.95.48,3.65,3.65,0,0,1,.23,2.84,3.16,3.16,0,0,0,.11,2.2.75.75,0,0,0,.76.32c.31-.05.28-.19.31-.45.08-.71,0-1.44.06-2.16a6.18,6.18,0,0,1,.46-2c.2-.45.54-.93,1.19-.69,1.15.42,1.05,1.62,1,2.49,0,.35-.71,3-.09,3,.33,0,.64-.48.75-.68.22-.4.44-.8.63-1.2.35-.74.54-1.51.9-2.23.15-.31.5-.58.85-.26a1.33,1.33,0,0,1,.32.88c0,.55,0,1.11,0,1.66,0,.23,0,.77.24.94s.42-.12.55-.3a11.13,11.13,0,0,0,.67-1,7.31,7.31,0,0,1,.31-.73c.49-.71,1.63-.39,2.42-.36.28,0,.72,0,.79-.31S175,43.34,174.74,43.3Z"/><path class="cls-55" d="M179,40.86a3.8,3.8,0,0,0-2.32,1s-7.37,6.74-8.2,10.26C170.83,48.05,175.94,44.65,179,40.86Z"/><path class="cls-56" d="M155.14,58.53c-.56-.34.21-1.18.33-2l-.38.21a19.21,19.21,0,0,0-1.33-1.59.73.73,0,0,0,.05-.8,1.24,1.24,0,0,0-1.5-.42.86.86,0,0,0-.58,1.2,1.19,1.19,0,0,0,1.24.48,18.72,18.72,0,0,0,1.61,2.16s-4.34-.76-5.75-.18l-.29.14a1.7,1.7,0,0,0-1.16,0c-.69.26-1,.88-.71,1.4a1.47,1.47,0,0,0,1.77.46,1.11,1.11,0,0,0,.81-1.08c1.57-.85,5.1.48,5.1.48a6,6,0,0,0-4.79,3.44l0,0a1.27,1.27,0,0,0-.42.08.83.83,0,0,0-.52,1.18,1.2,1.2,0,0,0,1.44.44.83.83,0,0,0,.52-1.18.9.9,0,0,0-.22-.25,5.07,5.07,0,0,1,.93-1.61c1.09-1.52,4.24-1.24,4.24-1.24a9.3,9.3,0,0,0,0,3.2,2.14,2.14,0,0,0,.29.61.87.87,0,0,0-.28,1.12,1.43,1.43,0,0,0,1.73.45c.67-.25,1-.86.71-1.36a1.39,1.39,0,0,0-1.56-.5v0c-.95-1.68.43-4.24.43-4.24l.78-.62A4.37,4.37,0,0,1,155.14,58.53Z"/><path class="cls-57" d="M162.11,47.71l-.33-.28c-2.81-2.17-6.43-3.46-8.52-6.09h-.69a31.07,31.07,0,0,0,3.11,5.31c1.6,1,3,1.74,3,1.74l-.1.43A5.47,5.47,0,0,1,162.11,47.71Z"/><path class="cls-58" d="M158.57,48.82c-.36,1.45-1.49,6.08-1.62,6.51s-1,.9-1.49,1.2c-.11.82-.89,1.66-.33,2a4.37,4.37,0,0,0,2.42,0c.81-.65,2.17-1.77,3.66-3.14s2.26-4,2.58-5.69a8.91,8.91,0,0,0-1.7-2A5.47,5.47,0,0,0,158.57,48.82Z"/><path class="cls-59" d="M153.26,41.34c2.09,2.62,5.71,3.92,8.52,6.09a9.12,9.12,0,0,1,2,2.29c.11-.59.18-1.08.21-1.36C161.22,45.3,158.23,41.47,153.26,41.34Z"/><path class="cls-60" d="M145.2,35.48l.8-3.39A4.38,4.38,0,0,0,145.2,35.48Z"/><ellipse class="cls-24" cx="147.1" cy="32.9" rx="0.36" ry="0.3"/><path class="cls-24" d="M150.46,31h.34c.22,0,.54,0,1,0s.91.06,1.48.12a16.26,16.26,0,0,1,1.89.32,8.42,8.42,0,0,1,2.13.77l.26.15.24.14.24.11.26.1a6.76,6.76,0,0,0,1.18.28c.83.13,1.73.16,2.65.21s1.86.09,2.8.18a19.18,19.18,0,0,1,2.78.48,12.29,12.29,0,0,1,1.31.41l1.21.45,2.29.87,2,.79.91.36.81.34,1.31.55.84.36.3.13-.31-.1-.88-.29-1.36-.46-.84-.29-.93-.31L172.29,36,170,35.23l-1.23-.43c-.41-.14-.82-.27-1.25-.37A18.62,18.62,0,0,0,164.8,34c-.91-.1-1.84-.15-2.76-.2a23.83,23.83,0,0,1-2.72-.26,6.72,6.72,0,0,1-1.28-.34l-.3-.13-.29-.15-.25-.16L157,32.6a8.45,8.45,0,0,0-2-.8c-.65-.18-1.27-.32-1.82-.42s-1-.17-1.45-.22l-.94-.1Z"/><rect class="cls-61" y="33.53" width="59.23" height="59.24"/><polygon class="cls-62" points="16.2 16.76 0 33.53 59.23 33.53 75.43 16.76 16.2 16.76"/><polygon class="cls-63" points="75.43 16.76 59.23 33.53 59.23 92.77 75.43 76 75.43 16.76"/><g id="_Group_3" data-name="&lt;Group&gt;"><path class="cls-4" d="M30.3,61.47c.5.38,1.21.32,1.77.66a23.2,23.2,0,0,1,2.56,1.78c1.52,4.64-.75,7.5,2.83,11a5.18,5.18,0,0,0-.92.7c-.68.8.34,2.06-.3,2.82-.36.43-1.33-1.35-2.35-.15-.44.53-.5,1.37-.85,2-1.31-.69-2.94-2-4.31-.64a.48.48,0,0,1-.74,0c-.39-.33-.74-1.14-1.08-1.43s-1.88.89-2.31.53.13-2-.78-2.86a.33.33,0,0,1,0-.36,4,4,0,0,0,.31-2.65c1.08-5.27,5.17-7.06,6.11-11.35-4.07,1.64-5.16,6-10.17,7.93a4,4,0,0,0-2.56.75.33.33,0,0,1-.36,0c-1-.75-2.47.11-2.94-.3s.57-2,.14-2.36-1.19-.49-1.59-.83a.48.48,0,0,1-.08-.74c1.15-1.58-.46-3-1.35-4.14.55-.45,1.37-.64,1.81-1.17,1-1.2-.9-1.86-.54-2.29.64-.76,2.05,0,2.73-.77a5.18,5.18,0,0,0,.54-1c4,2.95,6.48.23,11.31,1a23.21,23.21,0,0,1,2.19,2.23C29.78,60.34,29.84,61,30.3,61.47Z"/><path class="cls-5" d="M39.78,78.3c-.62.74-1.65-.39-2.16.21-.38.45.45,1.64-.33,2.57-1,1.14-2.16-1-2.86-.14-.34.41-.5,1.39-1.06,2.05-.82,1-1.27-.79-3.12.82-.22.19-.84-.15-1,.07-2.33,2.76-1.93,5.8-2.78,6.81-.33.39-.68.64-1.28.13-1.09-.92.1-2.25,1.12-3.46l.48-.56a2.48,2.48,0,0,0-.24-3c-.82-.69-1.75.33-2.09,0s0-.72-.42-1.07c-.73-.61-1.55.36-2.36-.33s1.45-2.28.7-2.91c-.15-.13-.39-.26-.58-.41-1.06-.9,1.89-2.37,2.15-4.95a12.7,12.7,0,0,1,.19-1.26,4,4,0,0,1-.31,2.65.33.33,0,0,0,0,.36c.91.88.31,2.45.78,2.86s1.87-.9,2.31-.53.69,1.09,1.08,1.43a.48.48,0,0,0,.74,0c1.37-1.39,3,0,4.31.64.35-.61.41-1.46.85-2,1-1.2,2,.58,2.35.15.64-.76-.38-2,.3-2.82a5.18,5.18,0,0,1,.92-.7c-3.58-3.49-1.31-6.35-2.83-11l.43.35C42.4,70.47,40.28,77.7,39.78,78.3Z"/><path class="cls-5" d="M12.14,54.93c-.62.74.66,1.56.15,2.16-.38.45-1.69-.17-2.47.76-1,1.14,1.31,2,.61,2.8-.34.41-1.29.72-1.84,1.38-.82,1,1,1.12-.29,3.22-.15.25.29.8.11,1C6.07,69,3,69.13,2.15,70.15c-.33.39-.51.78.09,1.29,1.09.92,2.2-.48,3.22-1.68l.47-.56a2.48,2.48,0,0,1,3-.26c.82.69,0,1.78.31,2.07s.7-.12,1.13.24c.73.61-.09,1.58.72,2.27s2-1.81,2.75-1.18c.15.13.32.34.51.5,1.06.9,2-2.26,4.52-2.94a12.68,12.68,0,0,0,1.21-.4,4,4,0,0,0-2.56.75.33.33,0,0,1-.36,0c-1-.75-2.47.11-2.94-.3s.57-2,.14-2.36-1.19-.49-1.59-.83a.48.48,0,0,1-.08-.74c1.15-1.58-.46-3-1.35-4.14.55-.45,1.37-.64,1.81-1.17,1-1.2-.9-1.86-.54-2.29.64-.76,2.05,0,2.73-.77a5.18,5.18,0,0,0,.54-1c4,2.95,6.48.23,11.31,1l-.42-.36C19.41,51,12.64,54.33,12.14,54.93Z"/></g><path class="cls-6" d="M28.93,64.58c-1.61,3,.41,1.73-3.76,9.29-.36.64-1.22,2.11-1.93,2.34l-.05-.06a1.57,1.57,0,0,1,.35-.43,34.1,34.1,0,0,0,4.09-7.22,17,17,0,0,1,1.24-4Z"/><path class="cls-6" d="M27.52,63.41c-2.39,1.89-3.06.56-9.15,6a6,6,0,0,0-1,1.08,1.57,1.57,0,0,1-.37.41l-.07,0c.18-1.18,3.61-3.58,4.79-4.41a12.72,12.72,0,0,1,4-2.12,7.86,7.86,0,0,0,1.75-1Z"/><path class="cls-6" d="M29.32,64c0,1.19.38,1.43.31,2.19-.17,2.05-.36,5.8,1.69,5.42.15,0,.12-.06.22-.16L32,71c1-1.12-.56-2.44,0-4.27l.08,0c-.52,1.82,1.11,3.11,0,4.31-.57.63-.51.7-1,.67-2.38-.19-1.37-5.33-1.67-6.41a2.55,2.55,0,0,1-.1-1.31Z"/><path class="cls-6" d="M28,62.95a2.55,2.55,0,0,1-1.31.12c-1-.1-1,.2-3.08.49C22,63.79,20,63.75,20,62.16c0-.2,0-.17.14-.3.38-.48.5-.69.85-.89,1.1-.51,2.32.4,3.78-.3l0,.07c-2,1-3.4-.93-4.7,1.29a.85.85,0,0,0,0,.44c.46,1.75,3.85.9,5.58.46.72-.19,1,.09,2.21-.06Z"/><path class="cls-6" d="M32.42,70a15.39,15.39,0,0,1,4.19,7l-.08,0C35.9,76,35.42,73.44,32.42,70Z"/><path class="cls-6" d="M21.51,60.8c-3.88-2.4-6.4-2.43-7.56-2.89v-.08A15.82,15.82,0,0,1,21.51,60.8Z"/><path class="cls-6" d="M31.68,71.38c1.8,5.43.78,2.61,2.39,8.05a.68.68,0,0,1,0,.38l-.08,0a.7.7,0,0,1-.17-.35C32.47,74.4,33.57,78,31.68,71.38Z"/><path class="cls-6" d="M20.3,61.77c-6.91-.78-3.23-.29-8.35-.81a.7.7,0,0,1-.37-.11v-.08a.67.67,0,0,1,.38,0C17.73,61.45,14.56,60.88,20.3,61.77Z"/><path class="cls-6" d="M30.67,71.68c-.39,2-.24,5-.85,8.47l-.29-.08C30.25,76.63,30.21,73.71,30.67,71.68Z"/><path class="cls-6" d="M20.18,62.81c-2,.82-4.73,1.21-8.08,2.53L12,65.07C15.42,63.84,18.15,63.57,20.18,62.81Z"/><path class="cls-6" d="M30,71c-.67,1.86-.9,1-1.87,4.08-.63,2-.31,1-1.45,4.3l-.24-.1c1.24-3.24.83-2.12,1.84-5C28.78,72.7,29.41,72.46,30,71Z"/><path class="cls-6" d="M21,63.36a19.3,19.3,0,0,0-2.21,1.8s-2.89,1.62-5.36,3.08L13.28,68c6.85-3.79,4.44-2.07,7-4.22A4.5,4.5,0,0,1,21,63.36Z"/><path class="cls-6" d="M29.48,68.79c-2.15,3.12-3.56,7.76-6,9.17l-.06-.06a4.38,4.38,0,0,1,.6-.83C27.39,73.16,26.71,72.33,29.48,68.79Z"/><path class="cls-6" d="M23.22,63.5c-2.92,3.21-4,2.89-7.26,6.75a4.38,4.38,0,0,1-.71.73l-.07-.05C16.13,68.41,20.63,66,23.22,63.5Z"/><g id="_Group_4" data-name="&lt;Group&gt;"><path class="cls-7" d="M38,63.27c-.22-.3-.36-.47-.32-.4S37.78,63,38,63.27ZM27.69,54.46c.08,0-.12-.09-.44-.25C27.51,54.35,27.64,54.45,27.69,54.46ZM31.53,60q.51-.28,1.08-.54c2.9,1.26,6.59,1.58,8.89-.87,1.22-1.29,3.14-.41,4.81-.11a2,2,0,0,0-.29.27c-.42.5-.12.9.35,1.3,2.11,1.79-2.48-.85.82,3a28.12,28.12,0,0,1-2.83-.53c.19.81,1.15,1.16,1.19,2a6.21,6.21,0,0,1-2.33-1.21c-.24-.2-.21-.15-.23-.14a19.16,19.16,0,0,1,1.26,1.95c.22.43.54,1.14.6,1.23.71,1-1.75-.58-3.91-2.42a5,5,0,0,1-.72-.75h0s4.86,6.61,2.85,4.91c-1.59-1.34-1.34-.87-3.5-2.59,0,0-.54-.74-1-1.41a8.91,8.91,0,0,0-.59-.82l.59.82c.11.17.22.35.34.56s3.47,6,2.2,4.91c-.89-.75-2.1-1.07-3-1.82a3.12,3.12,0,0,1-.61-.68c1.09,1.77,2,3.74,3.14,5.46l-.17-.14c-2.22-1.87-3.91-4.11-5.51-5.47-.84-.71-1.75-1.37-2.59-2.07a8.94,8.94,0,0,1-2.45-2.94A8.93,8.93,0,0,1,26.63,60c-.84-.71-1.63-1.5-2.48-2.21-1.6-1.36-4.09-2.65-6.31-4.52l-.17-.15c1.88.88,4,1.41,5.9,2.19a3.12,3.12,0,0,1-.77-.49c-.88-.74-1.4-1.88-2.29-2.64-1.27-1.07,5.11,1.32,5.2,1.35l.61.24.91.45a8.91,8.91,0,0,0-.91-.45c-.75-.36-1.52-.73-1.56-.77-2-1.85-1.54-1.68-3.13-3-2-1.7,5.32,2,5.32,2h0a5,5,0,0,1-.86-.59c-2.18-1.82-4.16-4-3-3.45.1,0,.85.24,1.31.39a19.15,19.15,0,0,1,2.13.92s.06,0-.18-.2a6.22,6.22,0,0,1-1.58-2.1c.86-.11,1.36.78,2.19.83a28.16,28.16,0,0,1-1-2.7c4.33,2.61,1-1.47,3.08.31.47.4.91.63,1.34.13a2,2,0,0,0,.22-.33c.58,1.6,1.77,3.35.7,4.77-2,2.69-1.1,6.27.63,8.92Q31.72,59.46,31.53,60Z"/><path class="cls-5" d="M41,63.94c2.16,1.85,4.62,3.44,3.91,2.42-.06-.09-.38-.8-.6-1.23A17.81,17.81,0,0,0,43,63.18s0-.07.23.14a6.21,6.21,0,0,0,2.33,1.21c0-.87-1-1.22-1.19-2a28.12,28.12,0,0,0,2.83.53c-3.3-3.83,1.29-1.2-.82-3-.47-.4-.78-.79-.35-1.3a2,2,0,0,1,.29-.27c-1.67-.3-3.6-1.18-4.81.11-2.31,2.45-6,2.13-8.89.87C38.67,56.67,49.22,55.1,55,60c1.75,1.48,3.06,4.41,2,5.64-.66.78-3.75,1.06-5.94,3.66-.42.49-.87,1.22-.9,1.25-.65.77-1.89.78-2.83,1.38-1.94,1.24-3.13,3.54-6.69.63-1.18-1.71-2.05-3.68-3.14-5.46a3.12,3.12,0,0,0,.61.68c.88.74,2.09,1.07,3,1.82,1.27,1.07-2.16-4.83-2.2-4.91s-1.19-1.72-1.3-1.89a19.84,19.84,0,0,0,2.14,2.5,26.73,26.73,0,0,0,3.34,2.82c2,1.7-2.85-4.91-2.85-4.91h0A5,5,0,0,0,41,63.94Z"/><path class="cls-5" d="M26.09,51.37c-2.18-1.82-4.16-4-3-3.45.1,0,.85.24,1.31.39a17.8,17.8,0,0,1,2.13.92s.07,0-.18-.2a6.22,6.22,0,0,1-1.58-2.1c.86-.11,1.36.78,2.19.83a28.16,28.16,0,0,1-1-2.7c4.33,2.61,1-1.47,3.08.31.47.4.91.63,1.34.13a2,2,0,0,0,.22-.33c.58,1.6,1.77,3.35.7,4.77-2,2.69-1.1,6.27.63,8.92,1.75-6.44,1.54-17.11-4.23-22-1.75-1.48-4.85-2.29-5.89-1.06-.66.78-.42,3.87-2.61,6.47-.42.49-1.05,1.07-1.08,1.1-.65.77-.45,2-.88,3-.9,2.12-3,3.67.5,6.71,1.88.88,4,1.41,5.9,2.19a3.12,3.12,0,0,1-.77-.49c-.88-.74-1.4-1.88-2.29-2.64-1.27-1.07,5.11,1.32,5.2,1.35s1.89.89,2.08,1A19.83,19.83,0,0,1,25,52.8,26.73,26.73,0,0,1,21.64,50c-2-1.7,5.32,2,5.32,2h0A5,5,0,0,1,26.09,51.37Z"/></g><path class="cls-6" d="M41.22,58.3c1.39-.84,2.77,1.06,3.26.84,1-.9,1.26-1.24,2.23-1.08l0,.08a1.38,1.38,0,0,0-.9.11c-1.93,1.23-.66,1.53-2.73.33-1.21-.72-1.79-.21-1.79-.21Z"/><path class="cls-6" d="M31.52,50.14a1.25,1.25,0,0,0,0-.9,6.16,6.16,0,0,0-1.29-1.68c-.49-.62,0-.44.65-1.9.07-.6.09-.44,0-.91l.07,0c.32.93,0,1.25-.69,2.38-.14.51,2,1.57,1.37,3.07Z"/><path class="cls-6" d="M44.56,59.17c.12.09.21.09.33.29.47.92-.24,2.84-.49,3.14-1.66,1.8-8.07-.1-12-.62-2.18-.31-2.32.08-2.66-1.42-1.13-4.32-4.13-9.91-3.19-12.3.17-.54.44-.77,1.47-1.22.74-.32,1.66-.62,2.14,0l-.06.05c-.4-.6-1.41-.25-2,0-2.37,1.09-1.94,2.09.78,10.14.24.72.48,1.44.68,2.18.37,1.35.31,1.69.64,2.17h0a2.67,2.67,0,0,0,1.11.19c4.56.22,11,2.32,12.82.9.52-.33,1.23-2.55.62-3.3,0-.06-.15-.11-.22-.16Z"/><path class="cls-6" d="M38,67.81c-.14-.16-1.54-1.77-1.69-1.93-2.87-3.1-4-2.41-6.46-3.92a9.39,9.39,0,0,1-1.44-2.15c-1.44-2.34-1.86-2.58-5.68-4.92v0c6.66,3.4,4.84,4.11,7.21,7h0c3.13,1.8,3.66,0,8.08,6Z"/><path class="cls-6" d="M30.87,62.31c.19.08.27.26.43.39,1.13,1,1.75,1.36,1.55,2.52.12-1.63-1.86-2.09-2-2.86Z"/><path class="cls-6" d="M29.33,61.12c-.77,0-1.59-1.93-3.16-1.54,1-.34,1.49.09,2.29.75a8.82,8.82,0,0,0,.8.6.6.6,0,0,1,.11.12Z"/><path class="cls-6" d="M29.9,62.9c.5,2.68-.06,2,3.79,5.33a20.75,20.75,0,0,1,4.69,5.07l-.07,0a19.7,19.7,0,0,0-4.68-5C29.7,65,30,65.48,29.81,62.91Z"/><path class="cls-6" d="M29,62.19c-2.5.23-2,.47-5.95-2.86a19.61,19.61,0,0,0-5.75-3.77l0-.08c4.9,2,7.82,6.39,10,6.62.86,0,1.16,0,1.68,0Z"/><path class="cls-8" d="M31.78,59.61c-.48,1-.58,2.43-1.22,3.5,0,0-2.29,2.25-2.29,2.25s-3.89,4-4.37,3.6,2.71-4.63,2.84-4.78,1.79-2.76,1.81-2.78C29.48,60.59,30.92,60.25,31.78,59.61Z"/><path class="cls-9" d="M34.12,56.84c.27.28.09,1.22-.13,1.48s-.28.16-.7-.2l0,0-.1-.08-.1-.09,0,0c-.43-.36-.46-.49-.31-.66S33.8,56.62,34.12,56.84Z"/><path class="cls-10" d="M34.23,57.39l-.07.07a.46.46,0,0,0-.1.54c.07.06.16.1.29,0a.39.39,0,0,0-.06-.53Z"/><path class="cls-10" d="M33.57,56.83l-.06.08c-.19.23-.45.25-.51.19s-.13-.14,0-.29a.39.39,0,0,1,.53,0Z"/><path class="cls-11" d="M33.25,57.87l.15.12a.91.91,0,0,1,.22.27,1.87,1.87,0,0,1-.36,2.17A6.16,6.16,0,0,1,31,61.89c-.39.13-1.48-.73-1.38-1.18a6,6,0,0,1,1.07-2.45,1.87,1.87,0,0,1,2.09-.69.91.91,0,0,1,.3.17Z"/><path class="cls-11" d="M33.93,57.19c.94-1.71,7,.38,9.06-1,.55-.37.55-.67.43-.66h0a.07.07,0,0,1,.06,0c0,.08,0,.18-.13.28-1.66,2-7.54-.27-9.35,1.43Z"/><path class="cls-11" d="M33.86,56.91c.92-1.54-1.27-7.76-.76-9.19,0-.12.1-.23.19-.22a.06.06,0,0,1,0,.09s0-.05,0-.09c-.68-.13.27,4,.4,4.63.54,2.58.77,4.08.32,4.86Z"/><rect class="cls-64" x="59.23" y="33.53" width="59.23" height="59.24"/><polygon class="cls-65" points="75.43 16.76 59.23 33.53 118.45 33.53 134.66 16.76 75.43 16.76"/><polygon class="cls-66" points="134.66 16.76 118.45 33.53 118.45 92.77 134.66 76 134.66 16.76"/><path class="cls-15" d="M77.72,59.45l.52.3a2.82,2.82,0,0,1,.58.52c.07.16,4,.24,5,.35s5.15.1,5.15.1l5.75.4c.83.06,4.78.45,6.25.6l.12-1.58h-.71l-4.3-.56-5.33-.39-3.73-.26-5.65.19-4.84-.34,1.47.5Z"/><path class="cls-16" d="M77.46,59.58l.45.45-.22.33-.18.43.49.38s2.22.1,3.12.16,2.64.28,3.39.22,3.42-.18,4.25-.12S94,61.9,94,61.9l7,.87.08-1.05c-1.47-.15-5.42-.55-6.25-.6L89,60.71s-4.17,0-5.15-.1-4.95-.19-5-.35a2.82,2.82,0,0,0-.58-.52l-.52-.3.31-.18-1.47-.5.82.65Z"/><path class="cls-16" d="M84.22,59.47a3.71,3.71,0,0,0-.66,0l-.71,0-.87,0c-1.24-.05-2.26-.12-2.26-.08a15.23,15.23,0,0,0,2.27.21l.89,0h.72A2.89,2.89,0,0,0,84.22,59.47Z"/><path class="cls-16" d="M93.78,60.57a13.87,13.87,0,0,0-1.62-.22c-1-.11-2.41-.25-4-.3-3.08.05-5.56,0-5.56,0a14.83,14.83,0,0,0,1.65.1l1.78,0c.67,0,1.42,0,2.16,0,1.52,0,2.93.17,3.94.25S93.77,60.59,93.78,60.57Z"/><path class="cls-16" d="M95.44,60.25s-1.34-.2-3-.38c-.84-.09-1.61-.14-2.16-.18a6.38,6.38,0,0,0-.9,0,6.39,6.39,0,0,0,.89.12l2.15.22C94.06,60.17,95.43,60.29,95.44,60.25Z"/><path class="cls-16" d="M100.42,61.25a11.51,11.51,0,0,0-2-.27,12,12,0,0,0-2-.11,11.51,11.51,0,0,0,2,.27A11.94,11.94,0,0,0,100.42,61.25Z"/><path class="cls-16" d="M100.2,60.35a15.89,15.89,0,0,0-1.64-.23A12.11,12.11,0,0,0,96.88,60a10.11,10.11,0,0,0,1.64.26A8.77,8.77,0,0,0,100.2,60.35Z"/><path class="cls-17" d="M87.67,68.15c-.11,1.57-.17,3.64.16,4.25.17.32.38.24.59,0l-.32-4.1Z"/><path class="cls-18" d="M87.84,66.23s-.09.85-.16,1.92l.43.11.32,4.1a7.26,7.26,0,0,0,1-2.58C89.38,69.3,90.49,63.74,87.84,66.23Z"/><path class="cls-17" d="M93.42,67.94c.29,1.55.6,3.59.35,4.24-.13.33-.35.28-.59,0L93,68.1S93.2,68,93.42,67.94Z"/><path class="cls-18" d="M93,66.06s.19.83.39,1.89c-.22.09-.42.16-.42.16l.17,4.11a7.3,7.3,0,0,1-1.26-2.46C91.87,69.28,90.1,63.89,93,66.06Z"/><path class="cls-19" d="M92.78,65.68l-.55-.31a18.17,18.17,0,0,1-1.39,3c-.68,1-1.42,0-1.42,0a2.31,2.31,0,0,1-1,.94c.13,3,.33,7,.55,8.88.36,3.12,1.42,12.21,1.76-.71,0,0,1.05,10.69,1.7,11.69s.49-.43.49-.84c0,0,1.31,1.65.76-.17A78.15,78.15,0,0,1,92.32,76s1,6.2,1.35,7.8,1.26,2.46.94.45A89.57,89.57,0,0,1,92.78,65.68Z"/><path class="cls-20" d="M91.73,66.63c.3-.69.5-1.27.5-1.27l.55.31q0-1-.08-2.09S88.85,60,88.23,65.66c0,0,.06,1.58.15,3.66a2.31,2.31,0,0,0,1-.94,1.2,1.2,0,0,0,.65.45c.15,2,.4,5.32.48,6.86,0,0,0-4.2,0-7a1.2,1.2,0,0,0,.33-.35,8.32,8.32,0,0,0,.5-.9c.15,1.69.47,5.14.86,7.21a64,64,0,0,1-.47-8.06Z"/><path class="cls-21" d="M93.51,49.56a3.82,3.82,0,0,0-.53-1c.23,2.31-.81,2-.81,2-.12,1.49-.74,1-.74,1-.22,1.24-.87.18-.87.18-.4,2.05-1.42.85-1.42.85C88.65,54.22,88,53,88,53c-.19,1-1,0-1,0-.22,1.18-1.27.07-1.27.07,0,1.16-1.58-.88-1.58-.88.09,2.31-1.61-.68-1.61-.68.06,1-.93.94-1.55-.33a4.56,4.56,0,0,1-.37-1.48A9.7,9.7,0,0,0,81,53.25a6.84,6.84,0,0,0,1.27,1.5c.63.39,1.23.72,1.18,0,0,0,1.76,2.13,1.76,1.2,0,0,.76,1.2,1,.68,0,0,1.68,1.49,1.89.79,0,0,.86.82,1,.34,0,0,.76.57.79-.54,0,0,1,.63,1.09-.16,0,0,.81.5,1-1,0,0,.79.43,1.07-.84a20.08,20.08,0,0,0,.73-5.14C93.59,49.91,93.55,49.73,93.51,49.56Z"/><path class="cls-17" d="M94.61,65.21c-.77-.51-2-1.51-2-1.51a24.53,24.53,0,0,1-3-2.19,28,28,0,0,0,4,2.44c1.44.59,1.63.39,1.63.39s-.3-.33-.77-.5a9.27,9.27,0,0,1-1.88-1.09l-1-.75A5,5,0,0,0,94,63a.91.91,0,0,0-.08-.34A1.72,1.72,0,0,0,93,62a22.08,22.08,0,0,1-3.48-1.59,11.58,11.58,0,0,1-1.07-.89,13.09,13.09,0,0,0,4.61,2.19,45.2,45.2,0,0,0,.81-9.43c0-.43-.05-.85-.1-1.24,0,6.54-1.17,5.26-1.17,5.26-.22,1.36-1,1-1,1-.28,1.06-.83.54-.83.54-.22,1.12-.83.51-.83.51.12,1.36-1-.06-1-.06,0,.82-1.13-.51-1.13-.51s.08.48-.54.3A4.1,4.1,0,0,1,85.9,57s0,.76-.9.21a7.48,7.48,0,0,1-1.76-1.63c0,.3.15.82-1,0a4.46,4.46,0,0,1-.87-.94h0a16,16,0,0,0,1.51,2.9,21.73,21.73,0,0,0,3.13,3.09C87.56,61.69,94,65.9,95.5,66,95.47,65.82,95,65.5,94.61,65.21Z"/><path class="cls-18" d="M89.53,60.42A22.08,22.08,0,0,0,93,62l.06-.29a13.09,13.09,0,0,1-4.61-2.19A11.58,11.58,0,0,0,89.53,60.42Z"/><path class="cls-19" d="M93,48.6a3.82,3.82,0,0,1,.53,1,11.58,11.58,0,0,0-.72-2.15,8,8,0,0,0-3.1-3.67,8.84,8.84,0,0,0-2.57-5A8.3,8.3,0,0,0,81,36.82c-2,.06-2.67.88-2.89,1.59a3.23,3.23,0,0,0,.18,2,31.55,31.55,0,0,1,3.1,3.25,2.76,2.76,0,0,1,.92-.51,3.43,3.43,0,0,0,1.5-.54,4,4,0,0,1-.48,1.89A17.39,17.39,0,0,0,81.46,47a8.26,8.26,0,0,0-.79,2.69A4.56,4.56,0,0,0,81,51.14c.62,1.27,1.61,1.3,1.55.33,0,0,1.7,3,1.61.68,0,0,1.55,2,1.58.88,0,0,1.05,1.1,1.27-.07,0,0,.77,1,1,0,0,0,.65,1.24,1.14-.36,0,0,1,1.21,1.42-.85,0,0,.65,1.05.87-.18,0,0,.62.46.74-1,0,0,1,.36.81-2Z"/><path class="cls-22" d="M80.86,53.1h0l-.36-.53,0,0-.06-.09,0-.06,0-.06-.07-.1a9.73,9.73,0,0,0,.26,1,13.58,13.58,0,0,0,.87,1.37A12.46,12.46,0,0,1,81,53.25Z"/><path class="cls-23" d="M80.68,49.66a9.82,9.82,0,0,1,0-1.12h0s0-.1,0-.14v0c0-.05,0-.1,0-.15a8.75,8.75,0,0,0-.48,2.85,6,6,0,0,0,.13,1.15c.15.23.4.61.69,1A9.7,9.7,0,0,1,80.68,49.66Z"/><path class="cls-20" d="M83.36,44.53a4,4,0,0,0,.48-1.89,3.43,3.43,0,0,1-1.5.54,2.76,2.76,0,0,0-.92.51l0,0a3,3,0,0,1,0,2.78,7.52,7.52,0,0,0-.83,1.73,10.4,10.4,0,0,0,0,1.43A8.26,8.26,0,0,1,81.46,47,17.39,17.39,0,0,1,83.36,44.53Z"/><path class="cls-17" d="M93.84,65.71A5.53,5.53,0,0,0,92,64.66v0s-6.37-6-6-4.49a32.72,32.72,0,0,1,.15,6.27c0,1.51.85.69.85.69-.14,1.63,1.25,0,1.25,0C88,70.77,89.62,67,89.62,67c-.11.85.11,1.45.93.52a5.79,5.79,0,0,0,.79-1.26c.09.55.29,1.33.68,1.55.62.34.53-1.36.53-1.36s.58,1.7,1.27,2S94.09,66.16,93.84,65.71Z"/><path class="cls-18" d="M92,61.36a16.47,16.47,0,0,0,.18-2c0-.83-.09.41-.29,1.66l0,.24-.24-.09a9.45,9.45,0,0,0,.21-1.07c0-.46-.09-.14-.15.25,0,.17-.11.51-.17.79L91,61a6.52,6.52,0,0,0,.09-.77c0-.26-.11-.06-.2.44l-.06.29-.27,0A19.14,19.14,0,0,1,93,62l0-.19C92.66,61.63,92.32,61.48,92,61.36Z"/><path class="cls-24" d="M80.49,40.47s-.26-1.64.33-1.9a2.51,2.51,0,0,1,2.15,0c1,.38,1.48.49,1.48,1.59s-.38,2.68-1.21,3.12a2,2,0,0,1-1.8,0A3.92,3.92,0,0,1,80.49,40.47Z"/><ellipse class="cls-25" cx="82.15" cy="39.62" rx="0.91" ry="0.88"/><ellipse class="cls-26" cx="81.99" cy="39.62" rx="0.54" ry="0.53"/><ellipse class="cls-24" cx="82.26" cy="39.13" rx="0.27" ry="0.27"/><path class="cls-27" d="M79.52,43.1a4.94,4.94,0,0,0,2.89.61s.53-.38-.21-1.5-1.3-1.33-1.71-1.13A2,2,0,0,0,79.52,43.1Z"/><path class="cls-18" d="M94,63a5,5,0,0,1-2.4-1l1,.75S93.91,63.28,94,63Z"/><path class="cls-18" d="M94.92,64.52c.26,0,.37-.06.34-.17s-.19.2-1.63-.39a28,28,0,0,1-4-2.44,24.53,24.53,0,0,0,3,2.19A11.13,11.13,0,0,0,94.92,64.52Z"/><path class="cls-18" d="M95.5,66c-.81-.05-3-1.23-5-2.5a.14.14,0,0,0-.08,0c-1.85-1.13-3.63-2.33-4.34-2.83a22.78,22.78,0,0,1-3.3-3.29l.17.2a16,16,0,0,1-1.51-2.9h0c-.16-.22-.32-.45-.46-.68h0l-.21-.34h0l-.19-.33A15.34,15.34,0,0,0,82,56.38l0,0,0,0a15.68,15.68,0,0,0,5,5.33l.24.15c0,.42,0,1.49,0,2a11.63,11.63,0,0,0,.46-1.7l1,.65c0,.3-.09,1.73-.17,2.16A8.57,8.57,0,0,0,89,63l1,.64h0a14,14,0,0,1-.29,2.87,13.57,13.57,0,0,0,.79-2.57l.9.53a7.22,7.22,0,0,1,0,1,4.8,4.8,0,0,1,.33-.8l.44.25A4.87,4.87,0,0,0,92.44,66a5,5,0,0,1,.11-.93,10.7,10.7,0,0,0,2.06.94C95.29,66.16,95.52,66.12,95.5,66ZM82.07,56.5,82,56.44Zm.65.78-.29-.35Zm-.32-.38-.22-.27Zm-.24-.29-.07-.09Z"/><path class="cls-28" d="M79.46,43.74a1,1,0,0,1,0-.57,3.23,3.23,0,0,1,.67-1.63c.53-.66.53-1,.47-1.16a3.16,3.16,0,0,0-2.28-1.17,4.15,4.15,0,0,0,1.56,5.6,3.89,3.89,0,0,1-.44-1.06h0Z"/><polygon class="cls-27" points="79.46 43.74 79.46 43.74 79.46 43.74 79.46 43.74"/><path class="cls-27" d="M80.15,41.54a3.23,3.23,0,0,0-.67,1.63l0-.07c.32-.55,1.36-1.33,1.3-2.19a1.11,1.11,0,0,0-.2-.53C80.68,40.53,80.69,40.87,80.15,41.54Z"/><path class="cls-29" d="M81,41.45a13.34,13.34,0,0,1-.77,1.28c-.26.33.87.35,1.05.35s.76-.14.65-.57S81.23,41,81,41.45Z"/><path class="cls-30" d="M78.36,39.52a6.2,6.2,0,0,0-.31,1.9c.06.79.52,1.84.61,1.54s-.12-1.42.4-2,.54-1,.16-1.2S78.44,39.23,78.36,39.52Z"/><path class="cls-31" d="M93.62,50.09a20.08,20.08,0,0,1-.73,5.14c-.28,1.27-1.07.84-1.07.84-.14,1.49-1,1-1,1-.14.79-1.09.16-1.09.16,0,1.11-.79.54-.79.54-.12.48-1-.34-1-.34-.22.7-1.89-.79-1.89-.79-.19.52-1-.68-1-.68,0,.93-1.76-1.2-1.76-1.2,0,.72-.56.39-1.18,0A6.84,6.84,0,0,1,81,53.25a12.46,12.46,0,0,0,.45,1.36,4.46,4.46,0,0,0,.87.93c1.11.82,1,.3,1,0A7.48,7.48,0,0,0,85,57.18c.93.54.9-.21.9-.21a4.1,4.1,0,0,0,1.39,1.12c.62.18.54-.3.54-.3S89,59.11,89,58.3c0,0,1.08,1.42,1,.06,0,0,.62.6.83-.51,0,0,.56.51.83-.54,0,0,.8.36,1-1,0,0,1.16,1.27,1.17-5.26C93.73,50.71,93.68,50.39,93.62,50.09Z"/><path class="cls-30" d="M80.5,52.57l.36.53Z"/><path class="cls-30" d="M80.54,53.25l.19.33Z"/><rect class="cls-67" x="118.45" y="33.53" width="59.23" height="59.24"/><polygon class="cls-68" points="134.66 16.76 118.45 33.53 177.68 33.53 193.88 16.76 134.66 16.76"/><polygon class="cls-69" points="193.88 16.76 177.68 33.53 177.68 92.77 193.88 76 193.88 16.76"/><path class="cls-70" d="M127.37,48.67a4.3,4.3,0,0,0,5.17,1.56c2-.74,2.81-2.63,1.91-4.22a4.3,4.3,0,0,0-5.17-1.56C127.32,45.19,126.47,47.08,127.37,48.67Z"/><path class="cls-71" d="M131.16,62.21a2.67,2.67,0,0,1,2,.47,2.27,2.27,0,0,1,.32-.78,5.92,5.92,0,0,0,.31-.86c.15-.39.29-.78.42-1.17l0-.08-2.83-1.61-.06.16c-.33.92-.66,1.85-1,2.77a4.61,4.61,0,0,1-.6,1.12,2.67,2.67,0,0,1-.75.59l-.26.16C129.71,63.23,130.44,62.56,131.16,62.21Z"/><path class="cls-72" d="M137.31,64.24a1.39,1.39,0,0,0-1.68-.45,1.42,1.42,0,0,0-.37.21c-.78-.19-1.7-.28-2-.9a.72.72,0,0,1-.07-.42,2.67,2.67,0,0,0-2-.47c-.72.36-1.45,1-2.41.78-1.11.63-2.57.9-3.69,1.53a8.22,8.22,0,0,0-2,1.5c-.36.38-.95.84-1.09,1.34a1.84,1.84,0,0,0-.79.11c-.71.27-1.05.91-.76,1.43a1.51,1.51,0,0,0,1.83.46c.7-.26,1-.88.77-1.39a9.09,9.09,0,0,0,1.09-1.23,8.13,8.13,0,0,1,2.12-1.84c.28-.16,1.91-.92,1.92-.08,0,.24-.39.53-.53.73a9.27,9.27,0,0,0-.67,1.08,5.72,5.72,0,0,0-.71,2.25,1.73,1.73,0,0,0-.38.09,1.11,1.11,0,0,0-.72,1.57,1.6,1.6,0,0,0,1.93.57,1.11,1.11,0,0,0,.72-1.57,1.16,1.16,0,0,0-.19-.24,7,7,0,0,0,.75-2.39,5.13,5.13,0,0,1,.82-1.61c.29-.43.45-.79,1-1a3.5,3.5,0,0,1,.49,2,5.68,5.68,0,0,0,.16,1.14c-.56.33-.81.87-.56,1.3a1.63,1.63,0,0,0,2,.39c.79-.3,1.19-1,.9-1.47a1.3,1.3,0,0,0-1.15-.53c0-.14,0-.29,0-.44,0-.59-.37-2,.25-2.46.32-.22.75-.05,1.08.07a13.5,13.5,0,0,0,1.33.42l.24.06a.79.79,0,0,0,.1.32,1.39,1.39,0,0,0,1.68.45C137.29,65.33,137.59,64.73,137.31,64.24Z"/><path class="cls-73" d="M158.1,51.76s1.66.65,3.37,1.45A21.31,21.31,0,0,1,160,50.81,7.44,7.44,0,0,0,158.1,51.76Z"/><path class="cls-74" d="M166.1,56.08s-.95-3.57-3.61-5a13.48,13.48,0,0,1,.87,3.12c.35.2.66.39.92.58Z"/><path class="cls-75" d="M161.71,50.73a2.83,2.83,0,0,0-1.71.08,21.31,21.31,0,0,0,1.47,2.41c.66.31,1.31.64,1.89,1a13.48,13.48,0,0,0-.87-3.12A4.88,4.88,0,0,0,161.71,50.73Z"/><path class="cls-76" d="M127,56.14a9.65,9.65,0,0,1,1.3.53l.1,0c2.75-.53,5.51.13,8.26-.79a8.14,8.14,0,0,0,.89-.22c-5.77,0-11.62-.42-16.85-2.38C122.11,54.56,126.83,56.16,127,56.14Z"/><path class="cls-77" d="M138.45,54.94c.29-2.92-2-5.52-3.93-8a38,38,0,0,0-4.36.57,27.81,27.81,0,0,0-5.7.86c-3.23.82-4.75,3.12-4.1,4.47a1.5,1.5,0,0,0,.34.42c5.23,2,11.08,2.37,16.85,2.38C138,55.48,138.45,55.26,138.45,54.94Z"/><path class="cls-78" d="M166,57.34a1.69,1.69,0,0,0,.09-1.26h0l-1.82-1.31c-1.82-1.31-8.9-4.13-8.9-4.13a21.48,21.48,0,0,0-6.88-1.13,11.67,11.67,0,0,1-7.87-1.82c-1.37-.84-3.88-.91-6.1-.75,2,2.48,4.21,5.09,3.93,8,0,.53-1.13.79-1.78.93-2.75.93-5.51.26-8.26.79l-.1,0c.84.38,2,.93,3.12,1.51l2.83,1.61a7.63,7.63,0,0,1,1,.73,32.75,32.75,0,0,0,4.24,2.89,31.07,31.07,0,0,1-3.11-5.31,9.76,9.76,0,0,1,1.64.07c-.28-.3-.07-.55-.24-.91,8.87,0,16.83,1.82,25.22,4.13l.76-.51A5.38,5.38,0,0,0,166,57.34Z"/><path class="cls-79" d="M138,58.17c4.41.56,7.19,4.09,9.81,7,0-.17,0-.26,0-.26.8.87,6.76-.27,7.37-.39,4-1.06,5.86-1.85,7.78-3.07-8.39-2.31-16.18-4.13-25-4.13C138.11,57.62,137.73,57.87,138,58.17Z"/><path class="cls-80" d="M165.86,60.28c-.42-1-.93-1.65-1.94-.79a32.37,32.37,0,0,0-8.58,9.68c1.75-1,3.79-1.6,5.62-2.59l-.68.27S165.31,62.76,165.86,60.28Z"/><path class="cls-81" d="M154.66,73.69a18.6,18.6,0,0,0-2.73.39,2,2,0,0,0-1.76-.52c-.95.12-1.62.71-1.5,1.32s1,1,1.93.87a1.74,1.74,0,0,0,1.47-.93c.94.17,2.43.28,3.12.5,1.12.34,2,.92,1.32,1.9a2.13,2.13,0,0,0-.29.65h0c-.9.12-1.52.78-1.38,1.48a1.62,1.62,0,0,0,1.88,1.06c.9-.12,1.52-.78,1.38-1.48a1.08,1.08,0,0,0-.2-.44c.14-.14.29-.29.43-.46a6.48,6.48,0,0,0-3.11-3.46C155.16,74.41,154.82,74.06,154.66,73.69Z"/><path class="cls-82" d="M154.62,73.18c.72-.61,1.6-.4,2.45-.35-.31-.16-.74-.37-1.18-.54a23.57,23.57,0,0,1-2.6-1.27,1,1,0,0,0-.81,1,1.23,1.23,0,0,0,1.43.76H154a2.67,2.67,0,0,0,.64.77A.6.6,0,0,1,154.62,73.18Z"/><path class="cls-83" d="M155.4,69.05a32.54,32.54,0,0,1,8.52-9.56c1-.86,1.52-.21,1.94.79a1.59,1.59,0,0,0,0-.72,2.72,2.72,0,0,0-3.05-1.95c-3.08,3.79-8.19,7.19-10.52,11.27a1.51,1.51,0,0,0,.35,1.61c.22.19.43.35.64.51l.72.39A3.08,3.08,0,0,1,155.4,69.05Z"/><path class="cls-84" d="M163.06,73.25c-1.47-.13-5.52-.17-5.52-.17l-.48-.25c-.85,0-1.73-.26-2.45.35a.6.6,0,0,0,0,.38l.16.13h-.11c.16.37.5.71.53.87A6.48,6.48,0,0,1,158.3,78c.81-.93,1.6-2.12,2.33-2.21,1-.13,4,.58,7.08-2.31s8.5-6.28,8.2-7.8a11.36,11.36,0,0,0-4,1.38C171.25,67.66,164.46,73.38,163.06,73.25Z"/><path class="cls-85" d="M169.88,63.44c-3.07.85-7.3,2.49-8.93,3.14-1.83,1-3.87,1.56-5.62,2.59l.07-.12A3.08,3.08,0,0,0,154,71.4a14.18,14.18,0,0,0,1.88.89,8,8,0,0,0,4.43-.59C163.39,70.6,172,67,172,67l-.06,0a11.36,11.36,0,0,1,4-1.38.72.72,0,0,0,0-.07C175.4,64.14,173.76,62.36,169.88,63.44Z"/><path class="cls-86" d="M126.65,51.86a4.31,4.31,0,0,0,5.17,1.56c2-.74,2.81-2.63,1.91-4.22a4.3,4.3,0,0,0-5.17-1.56C126.6,48.37,125.75,50.26,126.65,51.86Z"/><path class="cls-87" d="M126.83,51.91a3.91,3.91,0,0,0,4.7,1.41c1.78-.67,2.55-2.39,1.73-3.84a3.91,3.91,0,0,0-4.7-1.42C126.79,48.74,126,50.46,126.83,51.91Z"/><path class="cls-88" d="M126.93,51.94a3.65,3.65,0,0,0,4.38,1.32,2.51,2.51,0,0,0,1.61-3.58,3.65,3.65,0,0,0-4.38-1.32C126.89,49,126.16,50.59,126.93,51.94Z"/><path class="cls-89" d="M158.53,60.06a30,30,0,0,1-3-.63c-.63-.16-1.26-.28-1.87-.49-.3-.1-.61-.12-.92-.19s-.68-.2-1-.27c-.92-.18-1.82-.33-2.75-.45-.58-.08-1.17-.13-1.74-.23s-1.08-.31-1.64-.45a8.84,8.84,0,0,0-2.1-.23c-.51,0-1,.13-1.52.08-.37,0-.72-.19-1.09-.24a17.73,17.73,0,0,0-2.07,0,2.87,2.87,0,0,0-1.49.38c-.3.17-.43.34-.3.62a.86.86,0,0,0,.59.44c.3.1.41.06.49-.09s-.23-.62,0-.62a5.1,5.1,0,0,1,2-.13l0,0a1.44,1.44,0,0,1,.45.17c.12.08.13.19.19.31s.18.5.3.73.42.74.7.64.05-.77,0-.94c-.06-.35-.19-.6.37-.6s1,0,1.18.57.19,1.11.36,1.65a5.45,5.45,0,0,0,.52,1.28c.14.23.51.77.93.72s0-.55-.05-.69a10.11,10.11,0,0,1-.46-1.09,3.41,3.41,0,0,1-.11-1.15,1.15,1.15,0,0,1,.56-1.13,1.49,1.49,0,0,1,1.95.48,3.65,3.65,0,0,1,.23,2.84,3.16,3.16,0,0,0,.11,2.2.75.75,0,0,0,.76.32c.31-.05.28-.19.31-.45.08-.71,0-1.44.06-2.16a6.18,6.18,0,0,1,.46-2c.2-.45.54-.93,1.19-.69,1.15.42,1.05,1.62,1,2.49,0,.35-.71,3-.09,3,.33,0,.64-.48.75-.68.22-.4.44-.8.63-1.2.35-.74.54-1.51.9-2.23.15-.31.5-.58.85-.26a1.33,1.33,0,0,1,.32.88c0,.55,0,1.11,0,1.66,0,.23,0,.77.24.94s.42-.12.55-.3a11.13,11.13,0,0,0,.67-1,7.31,7.31,0,0,1,.31-.73c.49-.71,1.63-.39,2.42-.36.28,0,.72,0,.79-.31S158.8,60.1,158.53,60.06Z"/><path class="cls-90" d="M162.82,57.62a3.8,3.8,0,0,0-2.32,1s-7.37,6.74-8.2,10.26C154.63,64.82,159.74,61.41,162.82,57.62Z"/><path class="cls-91" d="M138.93,75.29c-.56-.34.21-1.18.33-2l-.38.21a19.21,19.21,0,0,0-1.33-1.59.73.73,0,0,0,.05-.8,1.24,1.24,0,0,0-1.5-.42.86.86,0,0,0-.58,1.2,1.19,1.19,0,0,0,1.24.48,18.72,18.72,0,0,0,1.61,2.16s-4.34-.76-5.75-.18l-.29.14a1.7,1.7,0,0,0-1.16,0c-.69.26-1,.88-.71,1.4a1.47,1.47,0,0,0,1.77.46,1.11,1.11,0,0,0,.81-1.08c1.57-.85,5.1.48,5.1.48a6,6,0,0,0-4.79,3.44l0,0a1.27,1.27,0,0,0-.42.08.83.83,0,0,0-.52,1.18,1.2,1.2,0,0,0,1.44.44.83.83,0,0,0,.52-1.18.9.9,0,0,0-.22-.25,5.07,5.07,0,0,1,.93-1.61c1.09-1.52,4.24-1.24,4.24-1.24a9.3,9.3,0,0,0,0,3.2,2.14,2.14,0,0,0,.29.61.87.87,0,0,0-.28,1.12A1.43,1.43,0,0,0,141,82c.67-.25,1-.86.71-1.36a1.39,1.39,0,0,0-1.56-.5v0c-.95-1.68.43-4.24.43-4.24l.78-.62A4.37,4.37,0,0,1,138.93,75.29Z"/><path class="cls-92" d="M145.9,64.47l-.33-.28c-2.81-2.17-6.43-3.46-8.52-6.09h-.69a31.07,31.07,0,0,0,3.11,5.31c1.6,1,3,1.74,3,1.74l-.1.43A5.47,5.47,0,0,1,145.9,64.47Z"/><path class="cls-93" d="M142.36,65.59c-.36,1.45-1.49,6.08-1.62,6.51s-1,.9-1.49,1.2c-.11.82-.89,1.66-.33,2a4.37,4.37,0,0,0,2.42,0c.81-.65,2.17-1.77,3.66-3.14s2.26-4,2.58-5.69a8.91,8.91,0,0,0-1.7-2A5.47,5.47,0,0,0,142.36,65.59Z"/><path class="cls-94" d="M137.06,58.1c2.09,2.62,5.71,3.92,8.52,6.09a9.12,9.12,0,0,1,2,2.29c.11-.59.18-1.08.21-1.36C145,62.06,142,58.23,137.06,58.1Z"/><path class="cls-60" d="M129,52.24l.8-3.39A4.38,4.38,0,0,0,129,52.24Z"/><ellipse class="cls-24" cx="130.9" cy="49.67" rx="0.36" ry="0.3"/><path class="cls-24" d="M134.26,47.8h.34c.22,0,.54,0,1,0s.91.06,1.48.12a16.26,16.26,0,0,1,1.89.32A8.42,8.42,0,0,1,141,49l.26.15.24.14.24.11.26.1a6.76,6.76,0,0,0,1.18.28c.83.13,1.73.16,2.65.21s1.86.09,2.8.18a19.18,19.18,0,0,1,2.78.48,12.29,12.29,0,0,1,1.31.41l1.21.45,2.29.87,2,.79.91.36.81.34,1.31.55.84.36.3.13-.31-.1-.88-.29-1.36-.46-.84-.29-.93-.31-2.09-.71L153.76,52l-1.23-.43c-.41-.14-.82-.27-1.25-.37a18.62,18.62,0,0,0-2.68-.45c-.91-.1-1.84-.15-2.76-.2a23.83,23.83,0,0,1-2.72-.26,6.72,6.72,0,0,1-1.28-.34l-.3-.13-.29-.15L141,49.5l-.23-.14a8.45,8.45,0,0,0-2-.8c-.65-.18-1.27-.32-1.82-.42s-1-.17-1.45-.22l-.94-.1Z"/></svg>