<svg xmlns="http://www.w3.org/2000/svg" xmlns:xlink="http://www.w3.org/1999/xlink" viewBox="0 0 193.88 135.25"><defs><style>.cls-1{fill:none;}.cls-2{isolation:isolate;}.cls-3{fill:url(#radial-gradient);}.cls-4{fill:url(#linear-gradient);}.cls-5{fill:url(#linear-gradient-2);}.cls-6{fill:#2c2b2a;}.cls-10,.cls-100,.cls-101,.cls-104,.cls-108,.cls-11,.cls-110,.cls-12,.cls-13,.cls-14,.cls-15,.cls-16,.cls-6,.cls-68,.cls-69,.cls-7,.cls-70,.cls-71,.cls-72,.cls-73,.cls-74,.cls-75,.cls-76,.cls-77,.cls-8,.cls-80,.cls-84,.cls-85,.cls-86,.cls-87,.cls-88,.cls-89,.cls-9,.cls-90,.cls-92,.cls-93,.cls-94,.cls-95,.cls-96,.cls-99{fill-rule:evenodd;}.cls-8{fill:url(#radial-gradient-2);}.cls-9{fill:#ff9341;}.cls-10{fill:#9a4800;}.cls-11{fill:#6f3207;}.cls-12{fill:#333;}.cls-13{fill:#ccc;}.cls-14{fill:#1a1a1a;}.cls-15{fill:#ff9898;}.cls-16{fill:#4d4d4d;}.cls-17{fill:url(#radial-gradient-3);}.cls-18{fill:url(#linear-gradient-3);}.cls-19{fill:url(#linear-gradient-4);}.cls-20{fill:#e5e8d4;}.cls-21{fill:#dccbb6;}.cls-22{fill:#9d9d8a;}.cls-23{fill:#5a2835;}.cls-24{fill:#260617;}.cls-25{fill:#321029;}.cls-26{fill:#44323c;}.cls-27{fill:#e29813;}.cls-28{fill:#f4ab37;}.cls-29{fill:#3b0526;}.cls-30{fill:#a9783f;}.cls-31{clip-path:url(#clip-path);}.cls-32,.cls-33,.cls-35,.cls-36,.cls-53{mix-blend-mode:screen;}.cls-32{fill:url(#radial-gradient-4);}.cls-33{fill:url(#radial-gradient-5);}.cls-34{clip-path:url(#clip-path-2);}.cls-35{fill:url(#radial-gradient-6);}.cls-36{fill:url(#radial-gradient-7);}.cls-37{fill:#5c2312;}.cls-38{fill:#7a3a4e;}.cls-39{fill:#6a3526;}.cls-40{fill:#efac3f;}.cls-41{fill:#eea835;}.cls-42{fill:#f9af38;}.cls-43{fill:#af6d04;}.cls-44{fill:#c9b472;mix-blend-mode:multiply;}.cls-45{fill:#cc9a69;}.cls-46{fill:#633d3d;}.cls-47{fill:#442424;}.cls-48,.cls-58,.cls-64{fill:#fff;}.cls-49{fill:#7f4c36;}.cls-50{fill:#c7bdb4;}.cls-51{fill:#c1bbac;}.cls-52{fill:#afa194;}.cls-54{fill:url(#radial-gradient-8);}.cls-55{fill:url(#linear-gradient-5);}.cls-56{fill:url(#linear-gradient-6);}.cls-57{fill:#080307;}.cls-58{opacity:0.25;}.cls-59{fill:#2a304a;}.cls-60{fill:#161416;}.cls-61{fill:#2c73e7;}.cls-62{fill:#e3793d;}.cls-63{fill:#50311f;}.cls-64{opacity:0.37;}.cls-65{fill:url(#radial-gradient-9);}.cls-66{fill:url(#linear-gradient-7);}.cls-67{fill:url(#linear-gradient-8);}.cls-68{fill:#c27b3d;}.cls-69{fill:url(#GradientFill_199);}.cls-70{fill:#cbc80f;}.cls-71{fill:#e3bd9e;}.cls-72{fill:#c7c40f;}.cls-109,.cls-73{fill:#e1dc0d;}.cls-74{fill:#cc8c5a;}.cls-75{fill:#d7b913;}.cls-76{fill:url(#GradientFill_199-2);}.cls-77{fill:url(#GradientFill_200);}.cls-78{fill:url(#GradientFill_201);}.cls-79{fill:url(#GradientFill_202);}.cls-80{fill:url(#GradientFill_200-2);}.cls-81{fill:url(#GradientFill_201-2);}.cls-82{fill:url(#GradientFill_202-2);}.cls-83,.cls-99{fill:#828201;}.cls-84{fill:url(#GradientFill_203);}.cls-85{fill:url(#GradientFill_204);}.cls-86{fill:url(#GradientFill_202-3);}.cls-87{fill:#eee81a;}.cls-88{fill:url(#GradientFill_204-2);}.cls-89{fill:url(#GradientFill_205);}.cls-90{fill:url(#GradientFill_206);}.cls-91{fill:url(#GradientFill_207);}.cls-92{fill:#ffcb05;}.cls-93{fill:url(#GradientFill_202-4);}.cls-94{fill:#b05d11;}.cls-95{fill:url(#GradientFill_203-2);}.cls-96{fill:url(#GradientFill_203-3);}.cls-97{fill:url(#GradientFill_208);}.cls-98{fill:url(#GradientFill_208-2);}.cls-100{fill:#4e5000;}.cls-101,.cls-106{fill:#ffda69;}.cls-102{fill:url(#GradientFill_209);}.cls-103{fill:url(#GradientFill_210);}.cls-104{fill:#f1b60f;}.cls-105{fill:#9e9e09;}.cls-107,.cls-108{fill:#ffeda9;}.cls-110{fill:url(#GradientFill_211);}.cls-111{fill:url(#GradientFill_209-2);}.cls-112{fill:url(#GradientFill_210-2);}.cls-113{fill:url(#GradientFill_212);}</style><radialGradient id="radial-gradient" cx="65.8" cy="-450.02" r="32.73" gradientTransform="translate(-428.97 38.55) rotate(90) scale(1.02 1.02)" gradientUnits="userSpaceOnUse"><stop offset="0" stop-color="#29e26f"/><stop offset="1" stop-color="#29c865"/></radialGradient><linearGradient id="linear-gradient" x1="20.72" y1="-428.24" x2="39.62" y2="-425.92" gradientTransform="translate(-389.32 37.1) rotate(90)" gradientUnits="userSpaceOnUse"><stop offset="0" stop-color="#29d372"/><stop offset="0.44" stop-color="#29dc70"/><stop offset="1" stop-color="#29e26f"/></linearGradient><linearGradient id="linear-gradient-2" x1="59.36" y1="-466.65" x2="60.91" y2="-446.99" xlink:href="#linear-gradient"/><radialGradient id="radial-gradient-2" cx="30.41" cy="111.16" r="29.34" gradientTransform="translate(2.62 0.21)" gradientUnits="userSpaceOnUse"><stop offset="0" stop-color="#f45500"/><stop offset="0.05" stop-color="#e85400"/><stop offset="0.22" stop-color="#c95200"/><stop offset="0.39" stop-color="#b05000"/><stop offset="0.58" stop-color="#9f4e00"/><stop offset="0.77" stop-color="#944d00"/><stop offset="1" stop-color="#914d00"/></radialGradient><radialGradient id="radial-gradient-3" cx="65.8" cy="-508.15" r="32.73" gradientTransform="translate(-428.97 38.55) rotate(90) scale(1.02 1.02)" gradientUnits="userSpaceOnUse"><stop offset="0" stop-color="#29aad8"/><stop offset="1" stop-color="#2990ce"/></radialGradient><linearGradient id="linear-gradient-3" x1="20.73" y1="-487.47" x2="39.62" y2="-485.15" gradientTransform="translate(-389.32 37.1) rotate(90)" gradientUnits="userSpaceOnUse"><stop offset="0" stop-color="#299bdb"/><stop offset="0.44" stop-color="#29a4d9"/><stop offset="1" stop-color="#29aad8"/></linearGradient><linearGradient id="linear-gradient-4" x1="59.36" y1="-525.88" x2="60.91" y2="-506.22" xlink:href="#linear-gradient-3"/><clipPath id="clip-path"><path class="cls-1" d="M100.24,107.25a7.33,7.33,0,0,0-1.42-1,5.47,5.47,0,0,0-.8-.35l-.26-.1h0a5.53,5.53,0,0,0-4.32.53,7.71,7.71,0,0,0-1.82-5.13l-.94.1c-.41,0-.76.11-1,.16a7.86,7.86,0,0,0-1,.24.91.91,0,0,1-.26-.18,1.37,1.37,0,0,1-.24-.32,1.5,1.5,0,0,1-.16-.35l.12-.5c.1-.36.24-.91.43-1.6h0a4.29,4.29,0,0,0-.6-.16,4.34,4.34,0,0,0-.92-.08,4.9,4.9,0,0,0-1.15.17,5.76,5.76,0,0,0-2.48,1.41,5.6,5.6,0,0,0-.9,1.21h0a5.24,5.24,0,0,0-.52,1.27,4.75,4.75,0,0,0-.17,1.15,4.1,4.1,0,0,0,.08.92,4.29,4.29,0,0,0,.16.6h0l1.6-.42.51-.13a1.5,1.5,0,0,1,.35.16,1.38,1.38,0,0,1,.32.24.91.91,0,0,1,.18.26,7.55,7.55,0,0,0-.24,1c-.05.29-.11.63-.16,1s-.07.6-.1.94a7.69,7.69,0,0,0,5.13,1.82,5.19,5.19,0,0,0-.35.72,5.12,5.12,0,0,0-.18,3.6h0c0,.09.06.18.1.26a5.46,5.46,0,0,0,.35.8h0a7.46,7.46,0,0,0,1,1.41,9.91,9.91,0,0,0,1.08,1.1,11.5,11.5,0,0,0,1,.75,15.3,15.3,0,0,0,2.22,1.33c.31.16.64.3,1,.44.49.21,1,.39,1.43.56h0a22.32,22.32,0,0,0,2.31.72,18.83,18.83,0,0,0,2.31.45c2,.26,3.28.06,3.59-.25s.51-1.59.25-3.58h0a20.15,20.15,0,0,0-.45-2.3h0a23.48,23.48,0,0,0-.72-2.31h0q-.25-.69-.56-1.43c-.14-.33-.29-.65-.44-1a15,15,0,0,0-1.33-2.23,11.57,11.57,0,0,0-.75-.95A9.91,9.91,0,0,0,100.24,107.25Z"/></clipPath><radialGradient id="radial-gradient-4" cx="4725.78" cy="312.3" r="30.71" gradientTransform="matrix(0.23, -0.21, 0.3, 0.32, -1064.48, 1014.83)" gradientUnits="userSpaceOnUse"><stop offset="0" stop-color="#fae282"/><stop offset="0.19" stop-color="#e0853b"/><stop offset="0.37" stop-color="#78471e"/><stop offset="0.53" stop-color="#40260f"/><stop offset="0.7" stop-color="#140c03"/><stop offset="0.84" stop-color="#060401"/><stop offset="1"/></radialGradient><radialGradient id="radial-gradient-5" cx="4725.93" cy="279.32" r="15.03" gradientTransform="matrix(0.31, 0, 0, 0.44, -1376.1, -17.04)" xlink:href="#radial-gradient-4"/><clipPath id="clip-path-2"><path class="cls-1" d="M82.45,95.41a10.47,10.47,0,0,0-1.15-.06h0a7.3,7.3,0,0,0-1,.06,1.58,1.58,0,0,0-1.65,1.65,8,8,0,0,0-.06,1,9.78,9.78,0,0,0,.06,1.15s-.65,3,3.29,3.34a5.24,5.24,0,0,1,.52-1.27h0a5.6,5.6,0,0,1,.9-1.21,5.76,5.76,0,0,1,2.48-1.41C85.46,94.76,82.45,95.41,82.45,95.41Z"/></clipPath><radialGradient id="radial-gradient-6" cx="4749.4" cy="-4.53" r="15.03" gradientTransform="matrix(0, 0.31, -0.44, 0, 80.35, -1366.6)" xlink:href="#radial-gradient-4"/><radialGradient id="radial-gradient-7" cx="4758.44" cy="-14.36" r="15.03" gradientTransform="matrix(0, 0.31, -0.44, 0, 79.6, -1373.09)" xlink:href="#radial-gradient-4"/><radialGradient id="radial-gradient-8" cx="7.68" cy="-450.02" r="32.73" gradientTransform="translate(-428.97 38.55) rotate(90) scale(1.02 1.02)" gradientUnits="userSpaceOnUse"><stop offset="0" stop-color="#fe6300"/><stop offset="1" stop-color="#d05400"/></radialGradient><linearGradient id="linear-gradient-5" x1="-38.51" y1="-428.24" x2="-19.62" y2="-425.92" gradientTransform="translate(-389.32 37.1) rotate(90)" gradientUnits="userSpaceOnUse"><stop offset="0" stop-color="#d05400"/><stop offset="0.36" stop-color="#e75c00"/><stop offset="0.72" stop-color="#f86100"/><stop offset="1" stop-color="#fe6300"/></linearGradient><linearGradient id="linear-gradient-6" x1="0.12" y1="-466.65" x2="1.67" y2="-446.99" xlink:href="#linear-gradient-5"/><radialGradient id="radial-gradient-9" cx="65.8" cy="-566.26" r="32.73" gradientTransform="translate(-428.97 38.55) rotate(90) scale(1.02 1.02)" gradientUnits="userSpaceOnUse"><stop offset="0" stop-color="#7077b9"/><stop offset="1" stop-color="#705daf"/></radialGradient><linearGradient id="linear-gradient-7" x1="20.73" y1="-546.69" x2="39.62" y2="-544.37" gradientTransform="translate(-389.32 37.1) rotate(90)" gradientUnits="userSpaceOnUse"><stop offset="0" stop-color="#7068bc"/><stop offset="0.44" stop-color="#7071ba"/><stop offset="1" stop-color="#7077b9"/></linearGradient><linearGradient id="linear-gradient-8" x1="59.36" y1="-585.1" x2="60.91" y2="-565.44" xlink:href="#linear-gradient-7"/><linearGradient id="GradientFill_199" x1="1832.42" y1="800.54" x2="1832.42" y2="810.24" gradientTransform="matrix(0.64, -0.77, 0.77, 0.64, -1638.74, 1025.65)" gradientUnits="userSpaceOnUse"><stop offset="0" stop-color="#e5e00c"/><stop offset="1" stop-color="#989808"/></linearGradient><linearGradient id="GradientFill_199-2" x1="1861.82" y1="800.54" x2="1861.82" y2="810.24" xlink:href="#GradientFill_199"/><linearGradient id="GradientFill_200" x1="1854.3" y1="802.67" x2="1854.3" y2="813.26" gradientTransform="matrix(0.64, -0.77, 0.77, 0.64, -1638.74, 1025.65)" gradientUnits="userSpaceOnUse"><stop offset="0" stop-color="#b1af0d"/><stop offset="1" stop-color="#828201"/></linearGradient><linearGradient id="GradientFill_201" x1="1854.72" y1="813.2" x2="1854.72" y2="804.21" gradientTransform="matrix(0.64, -0.77, 0.77, 0.64, -1638.74, 1025.65)" gradientUnits="userSpaceOnUse"><stop offset="0" stop-color="#626400"/><stop offset="1" stop-color="#828201"/></linearGradient><linearGradient id="GradientFill_202" x1="1854.8" y1="801.02" x2="1854.8" y2="815.71" gradientTransform="matrix(0.64, -0.77, 0.77, 0.64, -1638.74, 1025.65)" gradientUnits="userSpaceOnUse"><stop offset="0" stop-color="#cbc80f"/><stop offset="1" stop-color="#a8a70c"/></linearGradient><linearGradient id="GradientFill_200-2" x1="1839.94" y1="802.67" x2="1839.94" y2="813.26" xlink:href="#GradientFill_200"/><linearGradient id="GradientFill_201-2" x1="1839.51" y1="813.2" x2="1839.51" y2="804.21" xlink:href="#GradientFill_201"/><linearGradient id="GradientFill_202-2" x1="1839.43" y1="803.62" x2="1839.43" y2="815.87" xlink:href="#GradientFill_202"/><linearGradient id="GradientFill_203" x1="1847.12" y1="819.82" x2="1847.12" y2="805.25" gradientTransform="matrix(0.64, -0.77, 0.77, 0.64, -1638.74, 1025.65)" gradientUnits="userSpaceOnUse"><stop offset="0" stop-color="#a7520e"/><stop offset="1" stop-color="#eed907"/></linearGradient><linearGradient id="GradientFill_204" x1="1840.44" y1="795.93" x2="1840.44" y2="810.12" gradientTransform="matrix(0.64, -0.77, 0.77, 0.64, -1638.74, 1025.65)" gradientUnits="userSpaceOnUse"><stop offset="0" stop-color="#b9b70e"/><stop offset="1" stop-color="#959407"/></linearGradient><linearGradient id="GradientFill_202-3" x1="1840.11" y1="794.63" x2="1840.11" y2="808.99" xlink:href="#GradientFill_202"/><linearGradient id="GradientFill_204-2" x1="1853.8" y1="795.93" x2="1853.8" y2="810.12" xlink:href="#GradientFill_204"/><linearGradient id="GradientFill_205" x1="1847.12" y1="797" x2="1847.12" y2="808.96" gradientTransform="matrix(0.64, -0.77, 0.77, 0.64, -1638.74, 1025.65)" gradientUnits="userSpaceOnUse"><stop offset="0" stop-color="#4e5000"/><stop offset="0.42" stop-color="#86891a"/><stop offset="1" stop-color="#7b2a06"/></linearGradient><linearGradient id="GradientFill_206" x1="1847.12" y1="795.93" x2="1847.12" y2="809.93" gradientTransform="matrix(0.64, -0.77, 0.77, 0.64, -1638.74, 1025.65)" gradientUnits="userSpaceOnUse"><stop offset="0" stop-color="#ddd80d"/><stop offset="0.35" stop-color="#c3c00f"/><stop offset="1" stop-color="#b66412"/></linearGradient><linearGradient id="GradientFill_207" x1="1847.12" y1="798.18" x2="1847.12" y2="796.5" gradientTransform="translate(-1695.12 -688.75)" gradientUnits="userSpaceOnUse"><stop offset="0" stop-color="#e1dc0d"/><stop offset="1" stop-color="#f4ef86"/></linearGradient><linearGradient id="GradientFill_202-4" x1="1854.13" y1="794.63" x2="1854.13" y2="808.99" xlink:href="#GradientFill_202"/><linearGradient id="GradientFill_203-2" x1="1859.7" y1="774.06" x2="1859.7" y2="769.11" xlink:href="#GradientFill_203"/><linearGradient id="GradientFill_203-3" x1="1834.53" y1="774.06" x2="1834.53" y2="769.11" xlink:href="#GradientFill_203"/><linearGradient id="GradientFill_208" x1="1840.42" y1="781.51" x2="1840.42" y2="774.25" gradientTransform="matrix(0.64, -0.77, 0.77, 0.64, -1638.74, 1025.65)" gradientUnits="userSpaceOnUse"><stop offset="0" stop-color="#9e9e09"/><stop offset="0.32" stop-color="#cec211"/><stop offset="1" stop-color="#f1b60f"/></linearGradient><linearGradient id="GradientFill_208-2" x1="1853.81" y1="781.51" x2="1853.81" y2="774.25" xlink:href="#GradientFill_208"/><linearGradient id="GradientFill_209" x1="1844" y1="783.16" x2="1844" y2="784.57" gradientTransform="translate(-1704.38 -681.45)" gradientUnits="userSpaceOnUse"><stop offset="0" stop-color="#e4a314"/><stop offset="1" stop-color="#b05d11"/></linearGradient><linearGradient id="GradientFill_210" x1="1844" y1="783.76" x2="1844" y2="783.34" gradientTransform="translate(-1704.64 -681.33)" gradientUnits="userSpaceOnUse"><stop offset="0" stop-color="#f1b60f"/><stop offset="1" stop-color="#ffeda9"/></linearGradient><linearGradient id="GradientFill_211" x1="1847.28" y1="792.62" x2="1847.28" y2="789.12" gradientTransform="matrix(0.64, -0.77, 0.77, 0.64, -1638.74, 1025.65)" gradientUnits="userSpaceOnUse"><stop offset="0" stop-color="#cbc80f"/><stop offset="1" stop-color="#f4ef86"/></linearGradient><linearGradient id="GradientFill_209-2" x1="1850.24" y1="783.16" x2="1850.24" y2="784.57" gradientTransform="translate(-1706.65 -686.26)" xlink:href="#GradientFill_209"/><linearGradient id="GradientFill_210-2" x1="1850.24" y1="783.76" x2="1850.24" y2="783.34" gradientTransform="translate(-1706.91 -686.14)" xlink:href="#GradientFill_210"/><linearGradient id="GradientFill_212" x1="1847.12" y1="798.77" x2="1847.12" y2="806.34" gradientTransform="translate(-1691.64 -690.39)" gradientUnits="userSpaceOnUse"><stop offset="0" stop-color="#c3c00f"/><stop offset="0.35" stop-color="#b1af0d"/><stop offset="1" stop-color="#a56e0e"/></linearGradient></defs><title>box-four</title><g class="cls-2"><g id="Layer_1" data-name="Layer 1"><rect class="cls-3" y="76" width="59.23" height="59.24"/><polygon class="cls-4" points="16.2 59.24 0 76 59.23 76 75.43 59.24 16.2 59.24"/><polygon class="cls-5" points="75.43 59.24 59.23 76 59.23 135.25 75.43 118.48 75.43 59.24"/><path class="cls-6" d="M17.5,118.49a12.53,12.53,0,0,0,2.57,2.09,13,13,0,0,0,3,1.34l6.15-11.65,7.77-14.72L26.08,108.37Z"/><path class="cls-7" d="M17.5,118.49a12.5,12.5,0,0,0,1.31,1.21l15.65-19.43,2.49-4.71L26.08,108.37Z"/><path class="cls-7" d="M46.18,96a4.79,4.79,0,0,1,2.1,1.36c1-1.36,3-1.63,4.45-2.44a.92.92,0,0,1,.84-.16l0,.55a1.37,1.37,0,0,1,.82-.31l0,.43a5.08,5.08,0,0,1,2,.38c-.35.11-.66.24-.77.49a2.28,2.28,0,0,1,.94.86,13.12,13.12,0,0,1-2.2-1.26l-.14.32a.84.84,0,0,1-.68-.34l-.14.31a.91.91,0,0,1-.68-.49c-1.74.5-2.9,2.16-4.46,2.51a3.77,3.77,0,0,1-2.21-.71Z"/><path class="cls-7" d="M32.55,87.65a4.81,4.81,0,0,0-2.17-1.26c.91-1.4.33-3.25.5-4.87a.81.81,0,0,0-.19-.8l-.51.27a1.22,1.22,0,0,0,0-.84l-.4.2a4.66,4.66,0,0,0-1.17-1.54,1,1,0,0,1-.15.87,2.39,2.39,0,0,0-1.22-.46,13,13,0,0,0,2.11,1.39l-.24.26a.82.82,0,0,0,.61.45l-.24.25a.93.93,0,0,0,.75.39c.24,1.72-.86,3.41-.56,4.91a3.55,3.55,0,0,0,1.59,1.62Z"/><path class="cls-7" d="M45.11,108.21a9.51,9.51,0,0,1,2.94,3.21c-.68,1.23-.71,2.54-2,3.7.22.06.49.16.78.27l-.39.42a.66.66,0,0,1,.75.25l-.32.36a3.23,3.23,0,0,1,1.5,1.24c-.4-.12-.88-.22-.91,0s.29.86.34,1.44a4,4,0,0,1-1.2-2.34l-.32.36a1.18,1.18,0,0,1-.31-.75l-.22.22a2.58,2.58,0,0,1-.82-1.62c.06-.92,1.71-2.16,2.26-3.39a5.7,5.7,0,0,1-2.45-2.1Z"/><path class="cls-7" d="M21.65,93.78a10.18,10.18,0,0,0-4.28-1.23c-.9,1.1-2.13,1.66-2.69,3.3-.15-.16-.35-.36-.58-.56l-.24.51c0-.28-.21-.45-.55-.55l-.22.42a3.34,3.34,0,0,0-1.81-.8c.27.3.57.67.42.77s-.94.11-1.51.3a4.5,4.5,0,0,0,2.73.08l-.22.42a1.33,1.33,0,0,0,.84,0l-.12.28a2.89,2.89,0,0,0,1.89,0c.86-.44,1.36-2.38,2.31-3.36a5.93,5.93,0,0,0,3,1.26Z"/><path class="cls-7" d="M39.72,117.24c.46,1.32.32,4.8,0,4.89-1,1.06-4,5.19-5.79,6,.2.11.65.33.9.5l-.48.33c.28,0,.5.12.67.41l-.39.29a3.16,3.16,0,0,1,1.16,1.55c-.35-.2-.79-.41-.87-.24s.07.9,0,1.48a4,4,0,0,1-.6-2.56l-.39.29a1.18,1.18,0,0,1-.12-.8l-.26.16a2.58,2.58,0,0,1-.41-1.77c.28-.89,5.18-5.13,6-6.22a2.74,2.74,0,0,1-.84-2.7Z"/><path class="cls-7" d="M15.35,102.25c-1.45.14-4.72,1.7-4.69,2-.62,1.26-3.33,5.58-3.35,7.5-.19-.13-.58-.43-.85-.58l-.11.55c-.07-.27-.32-.39-.67-.41l-.11.46a3.44,3.44,0,0,0-2-.37c.34.23.72.52.59.65s-.89.31-1.41.62a4.57,4.57,0,0,0,2.7-.53l-.11.46a1.34,1.34,0,0,0,.82-.22l0,.29A2.92,2.92,0,0,0,8,112.3c.74-.61,2.77-6.61,3.47-7.77a3.08,3.08,0,0,0,2.93-.38Z"/><path class="cls-8" d="M27.71,89.87l9.24,5.68L25.54,109.17l-9,10.76c-4.64-5.08-4.67-14,.39-21.43a22.59,22.59,0,0,1,10.79-8.63Zm14.77,24.34a21,21,0,0,0,3.8-12.93l-9.33-5.74-8.32,15.52L22,123.36C28.83,125.36,37.39,121.73,42.47,114.21Z"/><path class="cls-9" d="M27.76,92a20,20,0,0,0-9.57,7.65c-3.58,5.29-5.28,13.21-1.45,16.29C20.23,118.75,15.19,105.3,27.76,92Z"/><path class="cls-10" d="M22,123.36c6.79,2,15.34-1.63,20.43-9.14a21,21,0,0,0,3.8-12.93l-2.76-1.7a21,21,0,0,1-3.8,12.93c-4.27,6.31-11,9.88-17,9.68Z"/><path class="cls-11" d="M22,123.36c6.79,2,15.34-1.63,20.43-9.14a21,21,0,0,0,3.8-12.93l-1-.63a21,21,0,0,1-3.8,12.93C36.67,120.67,28.8,124.3,22.23,123Z"/><path class="cls-7" d="M44.56,105.49c-.48,1.73,0,2.89-2.39,2.76S38.1,107,38.34,105.9s.26-2.8,1.56-3.19a6.46,6.46,0,0,1,3.16-.34,2.68,2.68,0,0,1,1.54,1.54A3.34,3.34,0,0,1,44.56,105.49Z"/><path class="cls-7" d="M35.36,112.46c-1.46,2.25-2.11,2.72-2.95,2.14a2.72,2.72,0,0,1-1.35-2c-.1-.86-.15-1.5.33-2a3.86,3.86,0,0,1,2.21-1.05c.4.11,1.93.58,2.13,1.18S35.36,112.46,35.36,112.46Z"/><path class="cls-7" d="M31.11,119.42c-.27,1,0,1.63-1.34,1.55s-2.29-.69-2.16-1.33.15-1.58.88-1.79a3.63,3.63,0,0,1,1.78-.19,1.51,1.51,0,0,1,.87.87A1.88,1.88,0,0,1,31.11,119.42Z"/><path class="cls-7" d="M49.65,85.16c-2,1.88-4.55,2.59-7.25,3.09,5.38-2.16,5.69-3,7-4C49.89,84,50.15,84.59,49.65,85.16Z"/><path class="cls-7" d="M41.61,80.21c-1,2.47-.6,5,0,7.57-.15-5.56.55-6.19,1-7.69C42.58,79.55,41.94,79.54,41.61,80.21Z"/><path class="cls-7" d="M35.72,87a12.37,12.37,0,0,0-8,2.85,112.88,112.88,0,0,0,18.53,11.39,11,11,0,0,0-.59-8.16,3.29,3.29,0,0,0,.43-2.5,1.27,1.27,0,0,0,1-.52,1.39,1.39,0,0,0-.64-1.91,1.72,1.72,0,0,0-1.71-.11A7.65,7.65,0,0,0,43,86.61a7.94,7.94,0,0,0-2.09-.91A1.7,1.7,0,0,0,38,84.5a1.14,1.14,0,0,0-.08,1.1A3.61,3.61,0,0,0,35.72,87Z"/><path class="cls-12" d="M36.45,88a8.46,8.46,0,0,0-5.31,1.38c-1.34,1.13-1.76,2.34,1.41,1.49,2.29-.61,4.94-1.23,5.56-1.91,1.6-1.4,2.24-2.46.86-2.52A4.88,4.88,0,0,0,36.45,88Z"/><path class="cls-13" d="M33.29,89.71c-.41-.43-2.58-.17-2,1.35C31.55,91.59,33.8,91.11,33.29,89.71Z"/><path class="cls-7" d="M32,97.2c-1.48,2.28-2.14,2.75-3,2.17a2.75,2.75,0,0,1-1.37-2.06c-.1-.87-.15-1.52.34-2a3.91,3.91,0,0,1,2.24-1.06c.41.11,1.95.59,2.16,1.19S32,97.2,32,97.2Z"/><path class="cls-7" d="M23.78,99.58c-.27,1,0,1.63-1.34,1.55s-2.29-.69-2.16-1.33.15-1.58.88-1.79a3.63,3.63,0,0,1,1.78-.19,1.51,1.51,0,0,1,.87.87A1.88,1.88,0,0,1,23.78,99.58Z"/><path class="cls-7" d="M19.89,107.93c-1.46,2.25-2.11,2.72-2.95,2.14a2.72,2.72,0,0,1-1.35-2c-.1-.86-.15-1.5.33-2A3.86,3.86,0,0,1,18.14,105c.4.11,1.93.58,2.13,1.18S19.89,107.93,19.89,107.93Z"/><path class="cls-14" d="M19,109.24a35.07,35.07,0,0,1,.83-3.58,7,7,0,0,0-1.67-.69A3.86,3.86,0,0,0,15.93,106c-.48.51-.43,1.14-.33,2a2.72,2.72,0,0,0,1.35,2C17.58,110.51,18.11,110.34,19,109.24Z"/><path class="cls-15" d="M18.95,107.74c-1.88-.19-6.51,4.55-1.88,6.84C18.66,115.36,23.05,109.94,18.95,107.74Z"/><path class="cls-16" d="M18.95,107.74a4,4,0,0,0-2.79,1.64,4,4,0,0,0,.78.69c.79.55,1.43.16,2.74-1.82A4,4,0,0,0,18.95,107.74Z"/><rect class="cls-17" x="59.23" y="76.01" width="59.23" height="59.24"/><polygon class="cls-18" points="75.44 59.24 59.23 76.01 118.46 76.01 134.66 59.24 75.44 59.24"/><polygon class="cls-19" points="134.66 59.24 118.46 76.01 118.46 135.25 134.66 118.48 134.66 59.24"/><path class="cls-20" d="M72.46,114.6a2.85,2.85,0,0,1,2.7-.32,17,17,0,0,0-1.34,2.47A8,8,0,0,1,71.46,118C70.56,116.26,72.46,114.6,72.46,114.6Z"/><path class="cls-20" d="M72.24,111.19a3.4,3.4,0,0,1,3.2-.1,17.57,17.57,0,0,0-2.31,2.47s-1.85.87-2.63-.13A4.25,4.25,0,0,1,72.24,111.19Z"/><path class="cls-20" d="M72.46,114.6s-1.91,1.66-1,3.45a8.59,8.59,0,0,1-1.18.33c0-1.17-1.6-2.31-1.6-2.31A6.26,6.26,0,0,0,72.46,114.6Z"/><path class="cls-20" d="M73.14,113.57a10.14,10.14,0,0,0-.67,1,6.26,6.26,0,0,1-3.78,1.47c0-.75-.37-.95-.37-.95a5,5,0,0,1,2-1.63h0l.06,0,.06,0C71.29,114.44,73.14,113.57,73.14,113.57Z"/><path class="cls-20" d="M67.5,115.18a.2.2,0,0,1-.11-.1,6.81,6.81,0,0,1-1.7-1.7c.94.91,2.54-.55,2.54-.55a1.64,1.64,0,0,0,2.13.67,5,5,0,0,0-2,1.63A1.27,1.27,0,0,1,67.5,115.18Z"/><path class="cls-21" d="M68.31,115.12s.42.19.37.95a1.4,1.4,0,0,1-1,.17,2,2,0,0,1-.2-.49,1.08,1.08,0,0,1,0-.56A1.27,1.27,0,0,0,68.31,115.12Z"/><path class="cls-20" d="M68.68,116.07s1.57,1.13,1.6,2.31a11.55,11.55,0,0,1-3.9.1,4.5,4.5,0,0,1,1.32-2.24A1.4,1.4,0,0,0,68.68,116.07Z"/><path class="cls-20" d="M67.5,115.74a2,2,0,0,0,.2.49,4.5,4.5,0,0,0-1.32,2.24,13.49,13.49,0,0,1-2.11-.47A2.65,2.65,0,0,0,63,116.33a5.28,5.28,0,0,0,2.31.08A7.57,7.57,0,0,0,67.5,115.74Z"/><path class="cls-20" d="M67.39,115.09a.2.2,0,0,0,.11.1,1.08,1.08,0,0,0,0,.56,7.57,7.57,0,0,1-2.15.67,3.92,3.92,0,0,1,.33-3A6.81,6.81,0,0,0,67.39,115.09Z"/><path class="cls-20" d="M63,116.33A2.65,2.65,0,0,1,64.28,118c-1.58-.48-2.7-1.16-2.85-1.57a3.13,3.13,0,0,1,.23-.79s.08.84,1.38.67Z"/><path class="cls-20" d="M62.67,114.16h0a1,1,0,0,0,.78.42,2.22,2.22,0,0,1-.43,1.74c-1.29.17-1.38-.67-1.38-.67A5.07,5.07,0,0,1,62.67,114.16Z"/><path class="cls-21" d="M67.55,110.86a1,1,0,0,1,1.11.74s-.26.79-.44,1.23c0,0-1.59,1.47-2.54.55a2.85,2.85,0,0,1,.75-1.94l1.12-.59Z"/><path class="cls-20" d="M68.66,111.6c2.38-2,3.58-.41,3.58-.41a4.25,4.25,0,0,0-1.74,2.25l-.06,0-.06,0h0a1.64,1.64,0,0,1-2.13-.67C68.4,112.39,68.66,111.6,68.66,111.6Z"/><path class="cls-20" d="M63.46,114.58c1,0,2.23-1.2,2.23-1.2a3.92,3.92,0,0,0-.33,3,5.28,5.28,0,0,1-2.31-.08h0A2.22,2.22,0,0,0,63.46,114.58Z"/><path class="cls-20" d="M66.43,111.44a2.85,2.85,0,0,0-.75,1.94s-1.22,1.25-2.23,1.2a1,1,0,0,1-.78-.42h0A15.58,15.58,0,0,1,66.43,111.44Z"/><path class="cls-20" d="M99.55,79.82h0a5.28,5.28,0,0,1,.08,2.31,3.94,3.94,0,0,0-3,.34s1.25-1.22,1.21-2.23A2.22,2.22,0,0,0,99.55,79.82Z"/><path class="cls-20" d="M98.88,78.45s.84.09.67,1.38a2.22,2.22,0,0,1-1.74.43,1,1,0,0,0-.42-.78h0A5.07,5.07,0,0,1,98.88,78.45Z"/><path class="cls-20" d="M98.4,84.29a1.27,1.27,0,0,1-.06.81,5,5,0,0,0-1.63,2A1.63,1.63,0,0,0,96.05,85s1.47-1.59.55-2.53a6.67,6.67,0,0,1,1.7,1.7A.2.2,0,0,1,98.4,84.29Z"/><path class="cls-20" d="M94.66,83.22a2.84,2.84,0,0,1,1.94-.74c.92.94-.55,2.53-.55,2.53-.44.18-1.23.44-1.23.44a1,1,0,0,1-.74-1.11h0C94.27,84,94.46,83.59,94.66,83.22Z"/><path class="cls-20" d="M99.56,79.84a2.63,2.63,0,0,0,1.68,1.23,13.51,13.51,0,0,1,.46,2.11,4.48,4.48,0,0,0-2.24,1.32,2,2,0,0,0-.49-.2,7.56,7.56,0,0,0,.67-2.15A5.28,5.28,0,0,0,99.56,79.84Z"/><path class="cls-21" d="M99,84.29a2,2,0,0,1,.49.2,1.42,1.42,0,0,1-.17,1c-.75,0-.95-.37-.95-.37a1.27,1.27,0,0,0,.06-.81A1.06,1.06,0,0,1,99,84.29Z"/><path class="cls-20" d="M97.39,79.47a1,1,0,0,1,.42.78c0,1-1.21,2.23-1.21,2.23a2.84,2.84,0,0,0-1.94.74,15.55,15.55,0,0,1,2.72-3.76Z"/><path class="cls-20" d="M99.67,78.22c.41.15,1.09,1.26,1.57,2.85a2.63,2.63,0,0,1-1.68-1.23h0c.17-1.29-.67-1.38-.67-1.38A3.13,3.13,0,0,1,99.67,78.22Z"/><path class="cls-20" d="M99.46,84.5a4.48,4.48,0,0,1,2.24-1.32,11.62,11.62,0,0,1-.1,3.89c-1.18,0-2.31-1.6-2.31-1.6A1.42,1.42,0,0,0,99.46,84.5Z"/><path class="cls-21" d="M96.6,82.48a3.94,3.94,0,0,1,3-.34A7.56,7.56,0,0,1,99,84.29a1.06,1.06,0,0,0-.56,0,.2.2,0,0,0-.1-.11A6.67,6.67,0,0,0,96.6,82.48Z"/><path class="cls-20" d="M98.34,85.1s.2.42.95.37a6.26,6.26,0,0,1-1.47,3.78,10.38,10.38,0,0,0-1,.67s.88-1.85-.13-2.63l0-.06,0-.06v0A5,5,0,0,1,98.34,85.1Z"/><path class="cls-20" d="M99.29,85.47s1.13,1.57,2.31,1.6a8.28,8.28,0,0,1-.33,1.18c-1.79-.9-3.45,1-3.45,1A6.26,6.26,0,0,0,99.29,85.47Z"/><path class="cls-20" d="M101.27,88.25A8,8,0,0,1,100,90.61a16.59,16.59,0,0,0-2.47,1.34,2.82,2.82,0,0,1,.31-2.7S99.48,87.35,101.27,88.25Z"/><path class="cls-21" d="M75.16,114.28a28,28,0,0,1,2.08-2.85c0,.19.42,3.68,0,5.14a4.26,4.26,0,0,1-3.4.18A17,17,0,0,1,75.16,114.28Z"/><path class="cls-21" d="M78.3,116c.52-4.07,3.91-7.27,3.91-7.27a12.89,12.89,0,0,0-1.76,5.45A10.86,10.86,0,0,1,78.3,116Z"/><path class="cls-21" d="M76.67,107.27a1.42,1.42,0,0,0,0,.84,7.65,7.65,0,0,0-4.4,3.08s-1.2-1.62-3.58.41a1,1,0,0,0-1.11-.74h0A66.21,66.21,0,0,1,76.67,107.27Z"/><path class="cls-21" d="M77.24,111.44a28,28,0,0,0-2.08,2.85,2.85,2.85,0,0,0-2.7.32,10.14,10.14,0,0,1,.67-1,17.57,17.57,0,0,1,2.31-2.47h0a24,24,0,0,1,2.43-1.92,2.59,2.59,0,0,0,1.32.07C78.46,110,77.81,110.74,77.24,111.44Z"/><path class="cls-20" d="M84.43,108.36l0,0c0,.55-.08,1.18-.08,1.9a3.56,3.56,0,0,1-1.68,3,12.27,12.27,0,0,0-.1-5.23c.17-.28.35-.57.55-.86A8.39,8.39,0,0,0,84.43,108.36Z"/><path class="cls-20" d="M82.59,108.06c-.14.23-.27.45-.39.68,0,0-3.38,3.2-3.91,7.27a7,7,0,0,1-1.07.56c.44-1.46,0-5,0-5.14.57-.69,1.22-1.42,2-2.18C79.2,109.26,80.21,110.36,82.59,108.06Z"/><path class="cls-21" d="M82.59,108.06h0a12.27,12.27,0,0,1,.1,5.23,6.21,6.21,0,0,1-2.25.91,12.89,12.89,0,0,1,1.76-5.45C82.32,108.52,82.45,108.3,82.59,108.06Z"/><path class="cls-21" d="M82.15,105.68a4.66,4.66,0,0,0,.34.65,36.75,36.75,0,0,0-3.28,2.93,2.59,2.59,0,0,1-1.32-.07,1.72,1.72,0,0,1-1.23-1.08,1.42,1.42,0,0,1,0-.84C78.86,106.57,80.81,106,82.15,105.68Z"/><path class="cls-21" d="M82.48,106.32a6.45,6.45,0,0,0,.66.88c-.2.29-.38.58-.55.86h0c-2.39,2.3-3.39,1.19-3.39,1.19A36.75,36.75,0,0,1,82.48,106.32Z"/><path class="cls-21" d="M76.65,108.11a1.72,1.72,0,0,0,1.23,1.08,24,24,0,0,0-2.43,1.92h0a3.4,3.4,0,0,0-3.2.1A7.65,7.65,0,0,1,76.65,108.11Z"/><path class="cls-21" d="M96.51,99.48a3.55,3.55,0,0,1-3,1.68c-.71,0-1.34,0-1.9.08l0,0a8.32,8.32,0,0,0-1.15-1.28c.29-.2.58-.38.85-.55A12.24,12.24,0,0,0,96.51,99.48Z"/><path class="cls-21" d="M96.05,85a1.63,1.63,0,0,1,.67,2.13v0l0,.06,0,.06A4.24,4.24,0,0,0,94.41,89s-1.63-1.2.4-3.58C94.82,85.46,95.61,85.19,96.05,85Z"/><path class="cls-21" d="M91.33,93.43A7.64,7.64,0,0,1,94.41,89a3.39,3.39,0,0,0-.1,3.2h0a24,24,0,0,0-1.92,2.43A1.73,1.73,0,0,0,91.33,93.43Z"/><path class="cls-21" d="M99.8,94a7,7,0,0,1-.56,1.07C95.17,95.6,92,99,92,99h0l-.69.39C93.58,97,92.47,96,92.47,96c.76-.74,1.49-1.4,2.18-2C94.84,94,98.34,94.45,99.8,94Z"/><path class="cls-21" d="M94.66,94c-.7.57-1.43,1.22-2.18,2a2.56,2.56,0,0,0-.07-1.32,24,24,0,0,1,1.92-2.43h0a17.6,17.6,0,0,1,2.47-2.31,10.38,10.38,0,0,1,1-.67,2.82,2.82,0,0,0-.31,2.7A27,27,0,0,0,94.66,94Z"/><path class="cls-21" d="M94.08,84.34h0a1,1,0,0,0,.74,1.11c-2,2.38-.4,3.58-.4,3.58a7.64,7.64,0,0,0-3.08,4.4,1.47,1.47,0,0,0-.84,0A65.91,65.91,0,0,1,94.08,84.34Z"/><path class="cls-21" d="M100,90.61A4.25,4.25,0,0,1,99.8,94c-1.46.44-5,0-5.14,0a27,27,0,0,1,2.85-2.07A16.59,16.59,0,0,1,100,90.61Z"/><path class="cls-20" d="M96.66,87.3c1,.78.13,2.63.13,2.63a17.6,17.6,0,0,0-2.47,2.31,3.39,3.39,0,0,1,.1-3.2A4.24,4.24,0,0,1,96.66,87.3Z"/><path class="cls-21" d="M92,99a12.81,12.81,0,0,1,5.45-1.76,6.21,6.21,0,0,1-.91,2.25,12.24,12.24,0,0,1-5.23-.1Z"/><path class="cls-20" d="M99.24,95.08a10.89,10.89,0,0,1-1.82,2.14A12.81,12.81,0,0,0,92,99h0S95.17,95.6,99.24,95.08Z"/><path class="cls-21" d="M92.47,96s1.11,1-1.19,3.39c-.28.17-.56.35-.85.55a6.58,6.58,0,0,0-.89-.67A36.61,36.61,0,0,1,92.47,96Z"/><path class="cls-21" d="M91.33,93.43a1.73,1.73,0,0,1,1.08,1.23A2.56,2.56,0,0,1,92.47,96a36.61,36.61,0,0,0-2.93,3.28,4.79,4.79,0,0,0-.65-.34c.35-1.33.9-3.28,1.6-5.47A1.47,1.47,0,0,1,91.33,93.43Z"/><path class="cls-22" d="M82,105.26h0a2.62,2.62,0,0,0,.16.41c-1.34.35-3.29.9-5.47,1.6a66.21,66.21,0,0,0-9.12,3.58l-1.12.59a15.58,15.58,0,0,0-3.76,2.72,5.07,5.07,0,0,0-1,1.49,3.13,3.13,0,0,0-.23.79C59.74,111.75,76.05,106.87,82,105.26Z"/><path class="cls-22" d="M99.67,78.22a3.13,3.13,0,0,0-.79.23,5.07,5.07,0,0,0-1.49,1,15.55,15.55,0,0,0-2.72,3.76c-.2.36-.4.74-.59,1.12a65.91,65.91,0,0,0-3.59,9.12c-.7,2.18-1.25,4.13-1.6,5.47a3.15,3.15,0,0,0-.4-.16h0C90.09,92.84,95,76.53,99.67,78.22Z"/><path class="cls-23" d="M69.44,99.55c.34-.41,1.22.65,2,1.28a1.33,1.33,0,0,0-.67.07c-.24-.22-.91-.74-.91-.74-2.21,1.28-2.6-.22-2.6-.22C67.89,100.69,69.1,100,69.44,99.55Z"/><path class="cls-23" d="M83.15,84s1.5.39.22,2.6c0,0,.52.68.74.91a1.34,1.34,0,0,0-.08.67,10.16,10.16,0,0,1-1.33-1.6.3.3,0,0,1,.05-.37C83.17,85.89,83.9,84.68,83.15,84Z"/><path class="cls-23" d="M112.37,105.92c.16,0,2.43-.13,1.61,2.12,0-.14-.11-1.83-1.72-1.72a1.24,1.24,0,0,0,.08-.23.66.66,0,0,0,0-.17Z"/><path class="cls-23" d="M114.63,115.27c1.44.33,2.66,1.22,1,2.73,0,0,1.32-1.62-1.21-2.41A1.58,1.58,0,0,0,114.63,115.27Z"/><path class="cls-23" d="M101.22,132.37c-1.51,1.69-2.4.46-2.73-1a1.55,1.55,0,0,0,.32-.24C99.6,133.69,101.22,132.37,101.22,132.37Z"/><path class="cls-23" d="M89.31,129.11l.23-.08c-.12,1.61,1.58,1.71,1.72,1.72-2.24.82-2.12-1.45-2.12-1.61h0Z"/><path class="cls-24" d="M111.09,105.22c.8.11,1.31.22,1.27.7h0a.66.66,0,0,1,0,.17,1.24,1.24,0,0,1-.08.23h0c-.22.42-.7.46-1.46-.1h0A2.43,2.43,0,0,0,111.09,105.22Z"/><path class="cls-24" d="M113.4,114c.89.14,1.64.51,1.22,1.22a1.58,1.58,0,0,1-.24.32c-.35.35-.76.2-1.38-.71A6.07,6.07,0,0,0,113.4,114Z"/><path class="cls-24" d="M98.11,129.78c.9.62,1.06,1,.7,1.38a1.55,1.55,0,0,1-.32.24c-.71.42-1.08-.33-1.22-1.22A5.56,5.56,0,0,0,98.11,129.78Z"/><path class="cls-24" d="M89.44,127.56h0c.56.75.53,1.24.1,1.46h0l-.23.08-.17,0h0c-.48,0-.6-.48-.7-1.27A2.43,2.43,0,0,0,89.44,127.56Z"/><path class="cls-23" d="M88,122.12h0a10.3,10.3,0,0,0,1.4,3.79c.52.83.52,1.34.05,1.64a2.43,2.43,0,0,1-1,.3c-1.35.18-1.41-3.35-1.08-5.38A1.77,1.77,0,0,0,88,122.12Z"/><path class="cls-23" d="M105.71,104.13c2-.33,5.56-.26,5.38,1.08a2.43,2.43,0,0,1-.3,1c-.3.47-.81.46-1.64-.05a10.4,10.4,0,0,0-3.8-1.4h0A1.77,1.77,0,0,0,105.71,104.13Z"/><path class="cls-25" d="M103.58,103.38c1.9-.25,2.49-.25,2.13.75a1.77,1.77,0,0,1-.36.62,2,2,0,0,1-2,.46,33.67,33.67,0,0,0-4.08-.25c.19-.17.31-.33.28-.48s-.18-.2-.43-.23C99.29,104.22,101.76,103.62,103.58,103.38Z"/><path class="cls-23" d="M109.33,110.51c1.56.62,4.62,2.09,4.3,2.93l-.23.61a6.07,6.07,0,0,1-.4.84c-.26.43-.59.72-1,.53a19.71,19.71,0,0,1-5.32-4.58,3,3,0,0,0,.23-.5C107.68,110.74,107.77,109.89,109.33,110.51Z"/><path class="cls-23" d="M94,123.49a19.7,19.7,0,0,1,4.59,5.32c.19.38-.09.71-.53,1a5.56,5.56,0,0,1-.84.4l-.61.23c-.84.31-2.3-2.75-2.93-4.31s.24-1.65-.18-2.38A2.94,2.94,0,0,0,94,123.49Z"/><path class="cls-25" d="M87.71,116.31c.15,0,.31-.1.48-.28a33.65,33.65,0,0,0,.25,4.08,2,2,0,0,1-.46,2,1.77,1.77,0,0,1-.62.36c-1,.35-1-.23-.75-2.13s.84-4.28.88-4.48C87.5,116.14,87.58,116.29,87.71,116.31Z"/><path class="cls-25" d="M100.23,107.26a7.33,7.33,0,0,0-1.42-1c3.31.9,8.49,2.54,8.31,3.42a3.9,3.9,0,0,1-.17.61,3,3,0,0,1-.23.5c-.28.47-.67.76-1.15.45-.82-.53-4.23-2.94-4.23-2.94A9.91,9.91,0,0,0,100.23,107.26Z"/><path class="cls-25" d="M90.48,117a9.91,9.91,0,0,0,1.08,1.1s2.41,3.41,2.94,4.23c.31.49,0,.88-.45,1.15a2.94,2.94,0,0,1-.5.23,3.9,3.9,0,0,1-.61.17c-.88.18-2.52-5-3.42-8.3A7.46,7.46,0,0,0,90.48,117Z"/><path class="cls-25" d="M99.1,104.26c.26,0,.41.1.43.23s-.1.31-.28.48a6.65,6.65,0,0,1-1.5.87h0a5.17,5.17,0,0,0-3.61.18h0a9.38,9.38,0,0,1,5-1.76Z"/><path class="cls-25" d="M89.23,110.92h0a5.12,5.12,0,0,0-.18,3.6h0a6.65,6.65,0,0,1-.88,1.5c-.17.19-.33.31-.48.28s-.2-.18-.23-.43h0A9.37,9.37,0,0,1,89.23,110.92Z"/><path class="cls-25" d="M70.75,100.9a1.33,1.33,0,0,1,.67-.07h0a1.56,1.56,0,0,1,1.11.64,6.27,6.27,0,0,0,3.06,2,3.34,3.34,0,0,0,0,.39h0c-2.18.83-5.06-1.44-5.19-2.29A.59.59,0,0,1,70.75,100.9Z"/><path class="cls-25" d="M84.12,87.54a.59.59,0,0,1,.64-.4c.85.13,3.12,3,2.29,5.19h0l-.39,0a6.34,6.34,0,0,0-2-3.06A1.55,1.55,0,0,1,84,88.21h0A1.34,1.34,0,0,1,84.12,87.54Z"/><path class="cls-26" d="M80.66,85.94c.35-2.65,1-2.91,1.46-2.51a12.47,12.47,0,0,0-.78,3.6,11.34,11.34,0,0,0,.48,4.28.81.81,0,0,0-.41.21A13.37,13.37,0,0,1,80.66,85.94Z"/><path class="cls-25" d="M87,92.33c1.07-.08,1.24.54,1,1.85a23.82,23.82,0,0,0-.13,4.44,4.34,4.34,0,0,0-.92-.08c0-1.8-1.72-5.9-.31-6.16Z"/><path class="cls-27" d="M100.23,107.26a9.91,9.91,0,0,1,1.1,1.08,11.57,11.57,0,0,1,.75.95c-.11,1.05-2.15,3.91-3.91,5.67s-4.61,3.79-5.67,3.91a11.5,11.5,0,0,1-1-.75,9.91,9.91,0,0,1-1.08-1.1c-.21-1.56,2.49-4.87,3.68-6.07S98.68,107,100.23,107.26Z"/><path class="cls-24" d="M98.81,106.29a7.33,7.33,0,0,1,1.42,1c-1.56-.21-4.87,2.49-6.07,3.69s-3.89,4.51-3.68,6.07a7.46,7.46,0,0,1-1-1.41h0a5.46,5.46,0,0,1-.35-.8c.08-2.12,2.88-5,3.35-5.51S95.89,106,98,105.94A5.47,5.47,0,0,1,98.81,106.29Z"/><path class="cls-24" d="M102.09,109.28a15,15,0,0,1,1.33,2.23c-.18,1.56-2.24,4-3.44,5.23s-3.68,3.27-5.24,3.44a15.3,15.3,0,0,1-2.22-1.33c1.06-.12,3.91-2.15,5.67-3.91S102,110.33,102.09,109.28Z"/><path class="cls-27" d="M97.75,105.84l.26.1c-2.12.08-5,2.88-5.52,3.35s-3.27,3.39-3.35,5.51q-.05-.13-.1-.26h0a5.12,5.12,0,0,1,.18-3.6,5.19,5.19,0,0,1,.35-.72,3.91,3.91,0,0,0,3.84-3.83,5.53,5.53,0,0,1,4.32-.53Z"/><path class="cls-27" d="M103.42,111.52c.16.31.3.63.44,1q.31.74.56,1.43h0a13.41,13.41,0,0,1-7.28,7.28h0c-.46-.17-.93-.35-1.43-.56-.33-.14-.66-.29-1-.44,1.56-.17,4-2.24,5.24-3.44S103.24,113.07,103.42,111.52Z"/><path class="cls-28" d="M90.43,99.93a8.32,8.32,0,0,1,1.15,1.28l0,0-.94.1c-.41,0-.76.11-1,.16a7.86,7.86,0,0,0-1,.24.91.91,0,0,1-.26-.18A20.78,20.78,0,0,1,90.43,99.93Z"/><path class="cls-28" d="M89.54,99.26a6.58,6.58,0,0,1,.89.67,20.78,20.78,0,0,0-2.1,1.62,1.37,1.37,0,0,1-.24-.32l.34-.48C88.8,100.23,89.17,99.73,89.54,99.26Z"/><path class="cls-28" d="M88.89,98.93a4.79,4.79,0,0,1,.65.34c-.37.47-.74,1-1.11,1.48h0S88.59,100.06,88.89,98.93Z"/><path class="cls-24" d="M81.4,91.52a.81.81,0,0,1,.41-.21,11.72,11.72,0,0,0-.5,4,7.24,7.24,0,0,0-1,.06A5.66,5.66,0,0,1,81.4,91.52Z"/><path class="cls-28" d="M88.06,100.38c.1-.36.24-.91.43-1.6a3.15,3.15,0,0,1,.4.16c-.3,1.13-.46,1.81-.46,1.81h0l-.34.48a1.5,1.5,0,0,1-.16-.35Z"/><path class="cls-27" d="M85.81,98.7A4.9,4.9,0,0,1,87,98.54a4.34,4.34,0,0,1,.92.08,4.29,4.29,0,0,1,.6.16h0c-.19.69-.33,1.24-.43,1.6a3.53,3.53,0,0,0-4.47,4.47l-1.6.42h0a4.29,4.29,0,0,1-.16-.6,4.1,4.1,0,0,1-.08-.92,4.75,4.75,0,0,1,.17-1.15,5.24,5.24,0,0,1,.52-1.27h0a5.6,5.6,0,0,1,.9-1.21,5.76,5.76,0,0,1,2.48-1.41Z"/><path class="cls-29" d="M90.66,101.33l.94-.1a7.71,7.71,0,0,1,1.82,5.13,3.91,3.91,0,0,1-3.84,3.83,7.69,7.69,0,0,1-5.13-1.82q0-.52.1-.94c1.86,1.86,5.28,2.16,6.77.67S92.52,103.19,90.66,101.33Z"/><path class="cls-24" d="M104.41,113.91a23.48,23.48,0,0,1,.72,2.31h0c0,.12-.25,1.52-2.21,3.48s-3.48,2.2-3.48,2.2a22.32,22.32,0,0,1-2.31-.72,13.41,13.41,0,0,0,7.28-7.28Z"/><path class="cls-27" d="M89.61,101.49c.29-.05.64-.11,1-.16,1.86,1.86,2.16,5.28.67,6.77s-4.92,1.19-6.77-.67c0-.41.1-.76.16-1a3.49,3.49,0,0,0,4.71-.2C90.73,104.88,90.75,102.52,89.61,101.49Z"/><path class="cls-23" d="M89.61,101.49c1.14,1,1.12,3.39-.2,4.7a3.49,3.49,0,0,1-4.71.2,7.55,7.55,0,0,1,.24-1,.91.91,0,0,0-.18-.26,1.38,1.38,0,0,0-.32-.24,1.5,1.5,0,0,0-.35-.16l-.51.13a3.53,3.53,0,0,1,4.47-4.47l-.12.5a1.5,1.5,0,0,0,.16.35,1.37,1.37,0,0,0,.24.32.91.91,0,0,0,.26.18A7.86,7.86,0,0,1,89.61,101.49Z"/><path class="cls-27" d="M102.92,119.7c2-2,2.19-3.35,2.21-3.48a20.15,20.15,0,0,1,.45,2.3h0a6.9,6.9,0,0,1-3.83,3.83,18.83,18.83,0,0,1-2.31-.45S100.87,121.75,102.92,119.7Z"/><path class="cls-24" d="M82.47,95.42s3-.65,3.35,3.29a5.47,5.47,0,0,0-1.27.51C82.42,98.22,81.67,96.39,82.47,95.42Z"/><path class="cls-24" d="M105.58,118.53c.26,2,.06,3.28-.25,3.58s-1.59.51-3.59.25a6.9,6.9,0,0,0,3.83-3.83Z"/><path class="cls-30" d="M81.32,95.36a10.51,10.51,0,0,1,1.15.06c-.79,1,0,2.8,2.07,3.8a5.46,5.46,0,0,0-1.21.9,5.6,5.6,0,0,0-.9,1.21c-1-2.12-2.83-2.86-3.8-2.07a9.83,9.83,0,0,1-.06-1.15,8,8,0,0,1,.06-1,1.58,1.58,0,0,1,1.65-1.65,7.24,7.24,0,0,1,1-.06Z"/><path class="cls-24" d="M78.63,99.25c1-.79,2.8,0,3.8,2.07h0a5.24,5.24,0,0,0-.52,1.27C78,102.26,78.63,99.25,78.63,99.25Z"/><path class="cls-24" d="M74.73,98.18a5.68,5.68,0,0,1,3.91-1.11,8,8,0,0,0-.06,1,11.64,11.64,0,0,0-4.05.49A.81.81,0,0,1,74.73,98.18Z"/><path class="cls-28" d="M84.45,104.87a1.38,1.38,0,0,1,.32.24h0a21.54,21.54,0,0,0-1.62,2.09,6.45,6.45,0,0,1-.66-.88c.47-.37,1-.74,1.47-1.1Z"/><path class="cls-28" d="M84.76,105.11h0a.91.91,0,0,1,.18.26,7.55,7.55,0,0,0-.24,1c-.05.29-.11.63-.16,1s-.07.6-.1.94l0,0a8.39,8.39,0,0,1-1.28-1.16A21.54,21.54,0,0,1,84.76,105.11Z"/><path class="cls-28" d="M83.59,104.84l.51-.13a1.5,1.5,0,0,1,.35.16l-.5.35h0c-.1,0-.76.18-1.8.46a2.62,2.62,0,0,1-.16-.41Z"/><path class="cls-28" d="M83.94,105.22h0c-.51.36-1,.73-1.47,1.1a4.66,4.66,0,0,1-.34-.65C83.19,105.4,83.85,105.24,83.94,105.22Z"/><path class="cls-25" d="M81.75,103.75a4.1,4.1,0,0,0,.08.92,24,24,0,0,0-4.44.14c-1.32.27-1.94.1-1.85-1a3.34,3.34,0,0,1,0-.39C75.85,102,80,103.75,81.75,103.75Z"/><path class="cls-26" d="M74.73,98.18a.81.81,0,0,0-.21.41,12.47,12.47,0,0,0-7.71.23l-.17.07c-.4-.48-.13-1.1,2.52-1.46A13.4,13.4,0,0,1,74.73,98.18Z"/><g class="cls-31"><path class="cls-32" d="M88,121.73c-5.07-5.41-6.08-12.7-2.25-16.28s11-2.11,16.11,3.3,6.08,12.69,2.25,16.28S93,127.13,88,121.73Z"/><ellipse class="cls-33" cx="85.06" cy="104.69" rx="4.65" ry="6.57" transform="translate(-48.59 86.45) rotate(-43.13)"/></g><g class="cls-34"><ellipse class="cls-35" cx="82.36" cy="102.35" rx="6.57" ry="4.65" transform="translate(-33.6 164.1) rotate(-79.21)"/><ellipse class="cls-36" cx="85.92" cy="98.66" rx="6.57" ry="4.65" transform="translate(-27.08 164.59) rotate(-79.21)"/></g><path class="cls-37" d="M87.35,122.48a1.63,1.63,0,0,0,.94-1.26,3.17,3.17,0,0,0,0-.81c0-.26-.12-.57-.15-.86,0-.59-.08-1.17-.07-1.76a14.38,14.38,0,0,1,.12-1.75h0c0,1.16.05,2.33.18,3.48,0,.29.08.57.13.86a2.76,2.76,0,0,1,0,.88,1.61,1.61,0,0,1-.39.78,1.87,1.87,0,0,1-.74.46Z"/><path class="cls-23" d="M87.5,115.88a20,20,0,0,1-.34,3.74c-.11.6-.2,1.22-.34,1.82a2.71,2.71,0,0,0-.08.82c0,.1,0,.16.15.2a1.78,1.78,0,0,0,.45,0l0,0a1.46,1.46,0,0,1-.47.1.39.39,0,0,1-.39-.26,2.45,2.45,0,0,1-.06-.95c.05-.63.13-1.25.23-1.87.22-1.23.49-2.46.78-3.67Z"/><path class="cls-38" d="M87.37,122.49c0,.55,0,1.08.06,1.61a12.55,12.55,0,0,0,.15,1.57A5.49,5.49,0,0,0,88,127.1c.26.43.27.37.86.24a1,1,0,0,0,.47-.21c.06-.05.08-.17,0-.38a2.84,2.84,0,0,0-.3-.64,5.26,5.26,0,0,1-.37-.76,7.78,7.78,0,0,1-.71-3.21h0a6.28,6.28,0,0,0,.38,1.56,13.16,13.16,0,0,0,.63,1.48,15.53,15.53,0,0,1,.75,1.44.86.86,0,0,1-.08.81,1.35,1.35,0,0,1-.72.4l-.4.08a.86.86,0,0,1-.42,0,1.06,1.06,0,0,1-.57-.59,4.89,4.89,0,0,1-.36-1.58,13.74,13.74,0,0,1,.13-3.23Z"/><path class="cls-37" d="M105.72,104.14a1.86,1.86,0,0,1-.46.74,1.61,1.61,0,0,1-.78.39,2.77,2.77,0,0,1-.88,0c-.29,0-.57-.1-.86-.13-1.16-.12-2.32-.15-3.49-.18v0a14.39,14.39,0,0,1,1.75-.12c.59,0,1.17,0,1.76.07.29,0,.61.1.87.15a3.17,3.17,0,0,0,.81,0,1.63,1.63,0,0,0,1.26-.94Z"/><path class="cls-23" d="M99.09,104.24c1.22-.3,2.44-.57,3.68-.78.62-.1,1.24-.18,1.87-.23a2.45,2.45,0,0,1,.95.06.39.39,0,0,1,.26.39,1.46,1.46,0,0,1-.1.47l0,0a1.77,1.77,0,0,0,0-.45c0-.13-.1-.14-.2-.15a2.71,2.71,0,0,0-.82.08c-.59.13-1.21.23-1.82.34a20,20,0,0,1-3.74.34Z"/><path class="cls-38" d="M105.71,104.11a13.76,13.76,0,0,1,3.23-.13,4.9,4.9,0,0,1,1.58.36,1.06,1.06,0,0,1,.59.57.86.86,0,0,1,0,.42,3.91,3.91,0,0,1-.08.4,1.35,1.35,0,0,1-.4.72.86.86,0,0,1-.81.08,15.53,15.53,0,0,1-1.44-.75,13.16,13.16,0,0,0-1.49-.63,6.28,6.28,0,0,0-1.56-.38v0a7.79,7.79,0,0,1,3.21.71,5.26,5.26,0,0,1,.76.37,2.84,2.84,0,0,0,.64.3c.21.06.33,0,.38,0a1,1,0,0,0,.21-.47c.13-.58.2-.6-.24-.86a5.5,5.5,0,0,0-1.42-.38,12.56,12.56,0,0,0-1.57-.15c-.53,0-1.07,0-1.61-.06Z"/><path class="cls-37" d="M99.55,104.49a.66.66,0,0,1-.28.5,3.51,3.51,0,0,1-.47.35,8.72,8.72,0,0,1-1,.53v0a3.13,3.13,0,0,1,.45-.39c.15-.12.32-.21.47-.32s.32-.19.47-.28a1.35,1.35,0,0,0,.22-.15.39.39,0,0,0,.17-.2Z"/><path class="cls-23" d="M94.13,106a11.64,11.64,0,0,1,2.61-1.34,9,9,0,0,1,1.42-.37,4.56,4.56,0,0,1,.73-.07,1.75,1.75,0,0,1,.37,0c.11,0,.27.08.3.22h0c-.07-.09-.18-.07-.29-.07l-.33.06c-.22.05-.45.12-.67.19-.44.15-.89.29-1.32.45l-1.34.47c-.45.16-.9.32-1.41.44Z"/><path class="cls-37" d="M107.14,109.72a4,4,0,0,1-.3.92,1.47,1.47,0,0,1-.63.73.63.63,0,0,1-.49,0,2.72,2.72,0,0,1-.42-.25l-.8-.54-3.17-2.23v0l.85.47.83.51c.55.34,1.08.71,1.62,1.07l.79.56a2.79,2.79,0,0,0,.37.24.47.47,0,0,0,.33,0,1.31,1.31,0,0,0,.59-.61,3.86,3.86,0,0,0,.39-.87Z"/><path class="cls-23" d="M98.82,106.27c1.47.39,2.94.82,4.39,1.31.72.25,1.44.52,2.14.82a10.86,10.86,0,0,1,1,.51,3.66,3.66,0,0,1,.48.32c.14.12.32.27.29.49h0c0-.17-.2-.26-.35-.36a3.64,3.64,0,0,0-.5-.22c-.34-.14-.69-.27-1.05-.38-.72-.22-1.43-.47-2.15-.71a31.09,31.09,0,0,1-4.24-1.73Z"/><path class="cls-38" d="M113.68,113.45a11.92,11.92,0,0,1-.45,1.15,3.19,3.19,0,0,1-.32.54,1,1,0,0,1-.53.39.59.59,0,0,1-.35,0l-.28-.15-.53-.33q-.52-.34-1-.71c-.66-.5-1.29-1-1.89-1.6a11,11,0,0,1-1.64-1.86l.08-.06c.74.47,1.42.89,2.09,1.34.34.21.66.46,1,.67l1,.7c.31.25.63.49.94.72l.45.36.1.07.05,0,0,0h0a.44.44,0,0,0-.13,0c-.09.07,0,.06.14,0a2.14,2.14,0,0,0,.38-.36c.27-.29.52-.63.83-1Z"/><path class="cls-39" d="M107,110.31a.76.76,0,0,0,.45.11,3.86,3.86,0,0,0,.47-.12,2,2,0,0,1,1,0,14,14,0,0,1,1.83.73,16.87,16.87,0,0,1,1.73.94,6.12,6.12,0,0,1,.79.59,2.09,2.09,0,0,1,.33.37.55.55,0,0,1,.1.49l0,0c0-.31-.31-.48-.56-.64a6.5,6.5,0,0,0-.82-.46c-.58-.27-1.15-.55-1.73-.82l-.87-.42-.44-.21-.41-.18a1.92,1.92,0,0,0-.83-.15c-.15,0-.32,0-.52,0a.74.74,0,0,1-.49-.23Z"/><path class="cls-37" d="M87.7,116.3a.39.39,0,0,0,.2-.17,1.35,1.35,0,0,0,.15-.22c.09-.15.2-.31.28-.47s.2-.32.32-.47a3.13,3.13,0,0,1,.39-.45h0a8.72,8.72,0,0,1-.53,1,3.5,3.5,0,0,1-.35.47.66.66,0,0,1-.5.28Z"/><path class="cls-23" d="M89.26,110.94c-.13.51-.28,1-.44,1.41l-.47,1.33c-.16.44-.31.88-.45,1.32-.07.22-.14.44-.19.67a2.23,2.23,0,0,0-.06.33c0,.11,0,.22.07.29v0c-.15,0-.2-.18-.22-.3a1.75,1.75,0,0,1,0-.37,4.56,4.56,0,0,1,.07-.73,9,9,0,0,1,.37-1.42,11.63,11.63,0,0,1,1.34-2.61Z"/><path class="cls-37" d="M92.93,123.89a3.87,3.87,0,0,0,.87-.39,1.31,1.31,0,0,0,.61-.59.47.47,0,0,0,0-.33,2.79,2.79,0,0,0-.24-.37l-.56-.79c-.35-.54-.73-1.07-1.07-1.62L92,119l-.47-.85h0l2.24,3.17.54.8a2.72,2.72,0,0,1,.25.42.63.63,0,0,1,0,.49,1.47,1.47,0,0,1-.73.63,4,4,0,0,1-.92.3Z"/><path class="cls-23" d="M89.53,115.59a31,31,0,0,1,1.73,4.24c.24.72.48,1.43.71,2.15.11.36.24.71.38,1.05a3.63,3.63,0,0,0,.22.5c.09.15.18.32.36.35v0c-.22,0-.37-.16-.49-.29a3.66,3.66,0,0,1-.32-.48,10.84,10.84,0,0,1-.51-1c-.31-.7-.57-1.42-.83-2.14-.49-1.45-.92-2.91-1.31-4.39Z"/><path class="cls-39" d="M96.65,130.39c.35-.23.73-.41,1-.65a2.85,2.85,0,0,0,.45-.35c.12-.12.21-.26.19-.32a.19.19,0,0,0,0-.08l-.06-.11-.07-.11c-.11-.16-.23-.32-.34-.49-.23-.33-.47-.65-.72-1-.48-.65-1-1.29-1.47-1.93-.24-.32-.5-.64-.77-.94s-.53-.61-.82-.92l0,0a11,11,0,0,1,1.85,1.64c.56.6,1.09,1.24,1.59,1.9q.37.5.71,1c.11.17.23.35.33.52a.88.88,0,0,1,.19.6.91.91,0,0,1-.37.51,3.15,3.15,0,0,1-.54.32,11.79,11.79,0,0,1-1.15.46Z"/><path class="cls-38" d="M93.59,123.7a.76.76,0,0,1,.36.52c0,.24,0,.42.05.56a2.12,2.12,0,0,0,.27.68l.2.35.24.42.43.85.38.86c.11.3.24.57.34.87s.21.58.33.86a3.32,3.32,0,0,0,.17.4c.07.12.12.24.29.29l0,.09a.58.58,0,0,1-.51-.1,2.12,2.12,0,0,1-.38-.33,6.19,6.19,0,0,1-.6-.79,16.92,16.92,0,0,1-1-1.73,13.87,13.87,0,0,1-.73-1.84,2,2,0,0,1,0-1,4,4,0,0,0,.12-.47.73.73,0,0,0-.11-.44Z"/><path class="cls-40" d="M89.63,110.23a8.07,8.07,0,0,0-.36,1.41,4.69,4.69,0,0,0,0,1.39,5.72,5.72,0,0,0,1,2.47,9.5,9.5,0,0,0,1.85,2,13.87,13.87,0,0,0,2.3,1.55A21.11,21.11,0,0,0,97,120.24c.88.38,1.79.7,2.7,1a24.44,24.44,0,0,0,2.79.73,10.52,10.52,0,0,0,1.43.22,5.85,5.85,0,0,0,.72,0,1.47,1.47,0,0,0,.68-.13l.07.07a1.52,1.52,0,0,1-.71.29,5.66,5.66,0,0,1-.74.09,10.85,10.85,0,0,1-1.49,0,18.4,18.4,0,0,1-2.93-.5,25.85,25.85,0,0,1-2.84-.89,20.42,20.42,0,0,1-2.72-1.22,11.39,11.39,0,0,1-4.35-4,5.85,5.85,0,0,1-.83-2.85,5.56,5.56,0,0,1,.79-2.85Z"/><path class="cls-41" d="M93.39,106.31a5.6,5.6,0,0,1,2.87-.8,5.89,5.89,0,0,1,2.87.82,11.43,11.43,0,0,1,4,4.36,20.46,20.46,0,0,1,1.22,2.72,25.85,25.85,0,0,1,.88,2.85,18.4,18.4,0,0,1,.49,2.94,10.79,10.79,0,0,1,0,1.49,5.69,5.69,0,0,1-.09.75,1.54,1.54,0,0,1-.29.72l-.11-.11a1.5,1.5,0,0,0,.06-.68,6,6,0,0,0-.08-.71,13.25,13.25,0,0,0-.3-1.4c-.23-.92-.53-1.83-.85-2.72s-.66-1.77-1.06-2.63a21.46,21.46,0,0,0-1.21-2.5,13.86,13.86,0,0,0-1.48-2.24,9.82,9.82,0,0,0-1.83-1.83,5.72,5.72,0,0,0-2.29-1.05,6.14,6.14,0,0,0-2.78.13Z"/><path class="cls-42" d="M98,106a4.23,4.23,0,0,0-1.56.44,10.07,10.07,0,0,0-1.41.82,18.37,18.37,0,0,0-4.61,4.6,10,10,0,0,0-.82,1.41,4.22,4.22,0,0,0-.44,1.56h-.05a3.93,3.93,0,0,1,.25-1.67,10.09,10.09,0,0,1,.74-1.52,13.78,13.78,0,0,1,4.71-4.71,10.15,10.15,0,0,1,1.52-.74,3.94,3.94,0,0,1,1.67-.25Z"/><path class="cls-23" d="M100.23,107.28a3.36,3.36,0,0,0-1.71.46,12.71,12.71,0,0,0-1.54.94,19.16,19.16,0,0,0-5.08,5.08A12.63,12.63,0,0,0,91,115.3,3.36,3.36,0,0,0,90.5,117h0a2,2,0,0,1,0-.93,6,6,0,0,1,.27-.9,12.57,12.57,0,0,1,.85-1.65A13.78,13.78,0,0,1,92.64,112c.38-.48.77-1,1.21-1.41s.93-.82,1.41-1.21a13.88,13.88,0,0,1,1.51-1.06,12.73,12.73,0,0,1,1.65-.85,6,6,0,0,1,.9-.27,2,2,0,0,1,.93,0Z"/><path class="cls-42" d="M100.23,107.31a4.14,4.14,0,0,0-1.52.82c-.47.34-.91.72-1.35,1.1s-.89.76-1.31,1.16-.87.78-1.26,1.18-.79.82-1.18,1.26-.77.88-1.17,1.31-.76.89-1.1,1.35a4.16,4.16,0,0,0-.82,1.52h-.1a3.43,3.43,0,0,1,.45-1.76,12.84,12.84,0,0,1,.93-1.56,17.44,17.44,0,0,1,5.11-5.11,12.77,12.77,0,0,1,1.57-.93,3.44,3.44,0,0,1,1.76-.45Z"/><path class="cls-43" d="M102.13,109.29a5,5,0,0,1-.69,1.61c-.3.5-.62,1-1,1.45a19.68,19.68,0,0,1-4.91,4.91c-.47.34-1,.67-1.46,1a5,5,0,0,1-1.61.69v-.1a7.6,7.6,0,0,0,1.35-1c.43-.37.84-.76,1.26-1.14s.84-.76,1.24-1.15.82-.76,1.2-1.16.77-.79,1.16-1.2.76-.83,1.15-1.24.77-.83,1.14-1.26a7.5,7.5,0,0,0,1-1.35Z"/><path class="cls-23" d="M103.44,111.52a4.46,4.46,0,0,1-.53,1.5,12.27,12.27,0,0,1-.85,1.34,18.92,18.92,0,0,1-4.48,4.48,12.28,12.28,0,0,1-1.35.85,4.46,4.46,0,0,1-1.5.53v0a5,5,0,0,0,1.38-.72,12.69,12.69,0,0,0,1.24-.93,31.86,31.86,0,0,0,4.39-4.39,12.49,12.49,0,0,0,.93-1.24,5,5,0,0,0,.72-1.38Z"/><path class="cls-43" d="M104.45,113.91a6.49,6.49,0,0,1-.87,2.6,10.26,10.26,0,0,1-3.85,3.85,6.53,6.53,0,0,1-2.6.87l0-.06a9.88,9.88,0,0,0,2.33-1.23,15.72,15.72,0,0,0,3.72-3.72,9.88,9.88,0,0,0,1.23-2.33Z"/><path class="cls-23" d="M105.16,116.22a5.32,5.32,0,0,1-.86,1.9,11.29,11.29,0,0,1-3,2.95,5.32,5.32,0,0,1-1.9.86v0a5,5,0,0,0,.89-.52,7.51,7.51,0,0,0,.81-.61c.51-.44,1-.88,1.48-1.37s.93-1,1.36-1.48c.21-.26.42-.52.61-.8a5,5,0,0,0,.53-.89Z"/><path class="cls-42" d="M103.45,111.52a3.93,3.93,0,0,1-.27,1.64,9,9,0,0,1-.73,1.49,13.33,13.33,0,0,1-4.59,4.59,9,9,0,0,1-1.49.73,3.93,3.93,0,0,1-1.65.27v-.07a4.4,4.4,0,0,0,1.47-.54,12.15,12.15,0,0,0,1.33-.86A21.24,21.24,0,0,0,102,114.3a12.23,12.23,0,0,0,.86-1.33,4.38,4.38,0,0,0,.54-1.47Z"/><path class="cls-42" d="M105.17,116.22a3.64,3.64,0,0,1-.46,2.18,7.33,7.33,0,0,1-3.08,3.08,3.66,3.66,0,0,1-2.18.46v-.07a5.27,5.27,0,0,0,1.86-.87,13.28,13.28,0,0,0,2.92-2.92,5.25,5.25,0,0,0,.88-1.86Z"/><path class="cls-43" d="M105.62,118.54a2.88,2.88,0,0,1-.29,1.48,4.22,4.22,0,0,1-2.09,2.08,2.91,2.91,0,0,1-1.48.29l0-.06a7.31,7.31,0,0,0,3.82-3.81Z"/><path class="cls-44" d="M94.22,105.91a5.83,5.83,0,0,1-.11,1.5,4.33,4.33,0,0,1-3.49,3.49,5.78,5.78,0,0,1-1.48.11l.44-.88a3.87,3.87,0,0,0,3.76-3.8Z"/><path class="cls-23" d="M91.59,101.21a9.14,9.14,0,0,1,1.8,3.86,4.17,4.17,0,0,1-5.1,5.1,9.15,9.15,0,0,1-3.86-1.79v0a11.43,11.43,0,0,0,1.87,1,7.37,7.37,0,0,0,2,.6,5.32,5.32,0,0,0,2.05-.1,3.6,3.6,0,0,0,2.73-2.73,5.29,5.29,0,0,0,.1-2,7.33,7.33,0,0,0-.6-2,11.41,11.41,0,0,0-1-1.87Z"/><path class="cls-45" d="M82.46,95.47a11.31,11.31,0,0,1-1.68.62c-.25.09-.5.16-.7.24a1.14,1.14,0,0,0-.35.18,1.09,1.09,0,0,0-.19.35c-.08.2-.15.45-.25.7a11.46,11.46,0,0,1-.62,1.68h-.1a8.88,8.88,0,0,1-.07-1.75,5,5,0,0,1,.12-.88,1.38,1.38,0,0,1,1.22-1.22,5,5,0,0,1,.88-.12,8.91,8.91,0,0,1,1.75.07Z"/><path class="cls-46" d="M78.66,99.26a2.85,2.85,0,0,0,.1,1.33,2.42,2.42,0,0,0,.73,1.1,4.3,4.3,0,0,0,2.49.9v0a3.07,3.07,0,0,1-1.44.07,2.9,2.9,0,0,1-1.38-.64,2.4,2.4,0,0,1-.78-1.35,2.1,2.1,0,0,1,.22-1.46Z"/><path class="cls-47" d="M78.62,99.23a1.51,1.51,0,0,1,1.18-.31,2.68,2.68,0,0,1,1.15.47,4.85,4.85,0,0,1,1.52,1.92l0,0c-.33-.29-.61-.58-.9-.84a8.25,8.25,0,0,0-.86-.7,3.61,3.61,0,0,0-.92-.49,1.82,1.82,0,0,0-1.09,0Z"/><path class="cls-46" d="M82.46,95.4a2.1,2.1,0,0,1,1.46-.22,2.4,2.4,0,0,1,1.35.78,2.9,2.9,0,0,1,.64,1.38,3.07,3.07,0,0,1-.07,1.44h0a4.3,4.3,0,0,0-.9-2.49,2.42,2.42,0,0,0-1.1-.73,2.85,2.85,0,0,0-1.33-.1Z"/><path class="cls-47" d="M82.49,95.44a1.82,1.82,0,0,0,0,1.09,3.61,3.61,0,0,0,.49.92,8.25,8.25,0,0,0,.7.86c.26.28.55.56.84.9l0,0a4.85,4.85,0,0,1-1.92-1.52,2.68,2.68,0,0,1-.47-1.15,1.51,1.51,0,0,1,.31-1.18Z"/><path class="cls-48" d="M79.14,99.22c-.45,0-.44,1.38-.08,1.5S79.59,99.23,79.14,99.22Z"/><path class="cls-48" d="M82.52,96c-.3.06-.07,1,.18,1S82.82,95.91,82.52,96Z"/><path class="cls-43" d="M88.06,100.41a2.68,2.68,0,0,0-1.92-.15,4.06,4.06,0,0,0-2.67,2.67,2.68,2.68,0,0,0,.15,1.92l0,0a2.07,2.07,0,0,1-.47-.95,3.26,3.26,0,0,1,0-1.09,3.59,3.59,0,0,1,1-1.92,3.64,3.64,0,0,1,1.92-1,2.43,2.43,0,0,1,2,.48Z"/><path class="cls-49" d="M88,100.43a3.94,3.94,0,0,0-1.73.48,4.76,4.76,0,0,0-.65.43,4.12,4.12,0,0,0-.59.52l-.15.15-.13.14c-.09.1-.16.2-.24.3a4.83,4.83,0,0,0-.43.65,3.92,3.92,0,0,0-.48,1.73l-.09,0a2.77,2.77,0,0,1-.19-2,3.91,3.91,0,0,1,2.75-2.75,2.77,2.77,0,0,1,2,.19Z"/><path class="cls-43" d="M89.65,101.46a2.16,2.16,0,0,1,1.08,1,3.43,3.43,0,0,1,.41,1.47,3.92,3.92,0,0,1-.22,1.54,4,4,0,0,1-.88,1.39l-.12.11-.17.14-.34.24a3.56,3.56,0,0,1-.72.36,3.92,3.92,0,0,1-1.54.22,3.43,3.43,0,0,1-1.47-.41,2.17,2.17,0,0,1-1-1.08l.07-.07a2.91,2.91,0,0,0,2.34.77,3.45,3.45,0,0,0,3.27-3.27,2.91,2.91,0,0,0-.77-2.34Z"/><path class="cls-23" d="M75.61,103.45a2.57,2.57,0,0,0,.18.86c.12.22.26.24.5.24a4,4,0,0,0,.81-.13,7.64,7.64,0,0,1,1-.17,10.09,10.09,0,0,1,1.91,0,8.35,8.35,0,0,1,1.87.37v0a27.6,27.6,0,0,0-3.72.06,10.53,10.53,0,0,1-1.86.19,1,1,0,0,1-.45-.16.71.71,0,0,1-.26-.4,2.24,2.24,0,0,1,0-.94Z"/><path class="cls-37" d="M81.75,103.77a5.76,5.76,0,0,1-1.64-.07c-.54-.08-1.07-.21-1.6-.31s-1-.23-1.57-.31a2.8,2.8,0,0,0-.77,0,.62.62,0,0,0-.58.4h0a.68.68,0,0,1,.58-.52,2.84,2.84,0,0,1,.81,0,12.4,12.4,0,0,1,1.6.26l1.58.36a8.54,8.54,0,0,0,1.6.24Z"/><path class="cls-23" d="M75.58,103.47A12.64,12.64,0,0,1,74,103a4.79,4.79,0,0,1-1.43-.88,7.26,7.26,0,0,1-.53-.57,1.16,1.16,0,0,0-.51-.28,1.11,1.11,0,0,0-.56,0c-.18,0-.24.14-.23.16s0,0,0,0,0,.05,0,.05h0a1.28,1.28,0,0,0,.15.25,3.7,3.7,0,0,0,.48.52,8.12,8.12,0,0,0,1.2.86,4.94,4.94,0,0,0,1.37.57,3.28,3.28,0,0,0,1.51.07l0,0a4,4,0,0,1-3.07-.34,6.44,6.44,0,0,1-1.33-.86,4.22,4.22,0,0,1-.56-.57,1,1,0,0,1-.28-.75.74.74,0,0,1,.6-.52,1.58,1.58,0,0,1,.8,0,1.6,1.6,0,0,1,.69.41c.19.2.31.42.5.61a7.8,7.8,0,0,0,2.7,1.56Z"/><path class="cls-44" d="M81.62,104.66a3.79,3.79,0,0,1-.24-.92l.42,0a4.55,4.55,0,0,0,.07.91Z"/><path class="cls-44" d="M81.37,102.75q0-.19.06-.38a5.14,5.14,0,0,1,4.16-4.16l.36-.06-.13.6-.07,0A5.44,5.44,0,0,0,82,102.53l0,.07Z"/><path class="cls-44" d="M87.9,98.66a4.56,4.56,0,0,0-.93-.07l0-.42a3.77,3.77,0,0,1,.92.24Z"/><path class="cls-42" d="M88.48,98.8a5.49,5.49,0,0,0-2.65.27,6.15,6.15,0,0,0-2.18,1.36,6.27,6.27,0,0,0-1.37,2.18,4.69,4.69,0,0,0-.29,1.28,5.29,5.29,0,0,0,0,1.37l0,0a4.68,4.68,0,0,1-.06-2.78,5.33,5.33,0,0,1,3.81-3.81,4.69,4.69,0,0,1,2.78.06Z"/><path class="cls-37" d="M86.66,92.37a2.23,2.23,0,0,1,.93,0,.7.7,0,0,1,.39.26.93.93,0,0,1,.16.44,10.48,10.48,0,0,1-.2,1.85,27.59,27.59,0,0,0,0,3.72h0a13.77,13.77,0,0,1-.21-1.86,15.55,15.55,0,0,1,0-1.88,13.29,13.29,0,0,0,.25-1.8.58.58,0,0,0-.39-.59,2.34,2.34,0,0,0-.89-.08Z"/><path class="cls-23" d="M86.94,98.54a8.53,8.53,0,0,0-.24-1.6l-.37-1.58a12.48,12.48,0,0,1-.25-1.61,2.86,2.86,0,0,1,0-.82.69.69,0,0,1,.53-.58v0a.6.6,0,0,0-.29.59,4,4,0,0,0,.09.73c.11.5.23,1,.35,1.53a14.47,14.47,0,0,1,.27,1.6A4.36,4.36,0,0,1,87,98.54Z"/><path class="cls-23" d="M86.63,92.39a7.8,7.8,0,0,0-1.56-2.7c-.18-.19-.41-.31-.61-.5a1.6,1.6,0,0,1-.41-.69,1.57,1.57,0,0,1,0-.8.74.74,0,0,1,.52-.6,1,1,0,0,1,.75.28,4.22,4.22,0,0,1,.57.56,6.43,6.43,0,0,1,.86,1.33,4,4,0,0,1,.34,3.07l0,0a3.28,3.28,0,0,0-.07-1.51,4.94,4.94,0,0,0-.57-1.37,8.12,8.12,0,0,0-.86-1.2,3.71,3.71,0,0,0-.52-.48,1.28,1.28,0,0,0-.25-.15h-.11s-.11,0-.16.23a1.1,1.1,0,0,0,0,.56,1.16,1.16,0,0,0,.28.51,7.26,7.26,0,0,1,.57.53,4.79,4.79,0,0,1,.88,1.42,12.63,12.63,0,0,1,.46,1.54Z"/><path class="cls-23" d="M90.68,101.32a4.89,4.89,0,0,1,1.24,1.44,6.38,6.38,0,0,1,.65,1.83,5,5,0,0,1,0,2,3.7,3.7,0,0,1-.93,1.87,3.75,3.75,0,0,1-1.85.91,5,5,0,0,1-2,0A6.37,6.37,0,0,1,86,108.7a4.89,4.89,0,0,1-1.44-1.24l0,0A5.79,5.79,0,0,0,87.85,109a5.31,5.31,0,0,0,1.83-.07,3,3,0,0,0,2.43-2.43,5.3,5.3,0,0,0,.07-1.83,5.78,5.78,0,0,0-1.55-3.29Z"/><path class="cls-50" d="M61.44,116.44a1.56,1.56,0,0,0,.6.55,6.23,6.23,0,0,0,.73.38,11,11,0,0,0,1.55.56,13.84,13.84,0,0,0,3.25.54,11.23,11.23,0,0,0,3.28-.3,7.65,7.65,0,0,0,2.95-1.45l0,0h0a3.71,3.71,0,0,0,1.82.21,5.47,5.47,0,0,0,1.77-.53,10.19,10.19,0,0,0,2.92-2.28l0,0h0A6.08,6.08,0,0,0,82.86,113a3.46,3.46,0,0,0,1.36-2.21c.07-.43,0-.9.08-1.36s.06-.92.11-1.37a13.53,13.53,0,0,1,.52-2.7h0a16.44,16.44,0,0,0-.4,2.71q-.05.68-.07,1.37c0,.45,0,.91,0,1.38A3.58,3.58,0,0,1,83,113.22a6,6,0,0,1-2.56,1.1l.07,0a9.78,9.78,0,0,1-3,2.26,5.8,5.8,0,0,1-1.83.5,3.8,3.8,0,0,1-1.87-.25h0a8.88,8.88,0,0,1-3,1.52,10.14,10.14,0,0,1-3.32.39,13.05,13.05,0,0,1-3.29-.59,11.11,11.11,0,0,1-1.55-.62,6.07,6.07,0,0,1-.72-.43,1.6,1.6,0,0,1-.58-.6Z"/><path class="cls-51" d="M84.1,104.73c-2.17.54-4.32,1.15-6.46,1.81s-4.25,1.37-6.34,2.18a43.86,43.86,0,0,0-6.08,2.8,13.68,13.68,0,0,0-2.7,2,4.61,4.61,0,0,0-1,1.34,2.12,2.12,0,0,0-.09,1.62h0a2.17,2.17,0,0,1,0-1.66,4.71,4.71,0,0,1,1-1.4,13.75,13.75,0,0,1,2.7-2,42,42,0,0,1,6.09-2.86q3.15-1.18,6.37-2.13,1.61-.47,3.24-.89c1.09-.27,2.18-.53,3.27-.76Z"/><path class="cls-52" d="M73.82,116.76a16,16,0,0,1,.87-1.82q.51-.87,1.09-1.7a30.79,30.79,0,0,1,2.53-3.14,34.81,34.81,0,0,1,2.9-2.81q.76-.66,1.56-1.28t1.66-1.14q-.81.6-1.59,1.24t-1.56,1.27a34.68,34.68,0,0,0-2.89,2.8,30.68,30.68,0,0,0-2.52,3.13c-.38.55-.75,1.11-1.09,1.69A16.22,16.22,0,0,0,73.82,116.76Z"/><path class="cls-52" d="M80.44,114.2a8,8,0,0,1,.11-1.28c.09-.42.2-.83.32-1.24a15.92,15.92,0,0,1,1-2.37,18.86,18.86,0,0,1,1.3-2.21q.36-.53.76-1t.86-.95q-.4.5-.76,1t-.75,1a18.74,18.74,0,0,0-1.3,2.19,15.78,15.78,0,0,0-1,2.36,12.61,12.61,0,0,0-.32,1.23A8.12,8.12,0,0,0,80.44,114.2Z"/><path class="cls-52" d="M82.2,108.75c-.24.26-.45.53-.67.81s-.45.54-.66.81a15.55,15.55,0,0,0-1.15,1.74,12.45,12.45,0,0,0-.87,1.89,10.12,10.12,0,0,0-.3,1,9.05,9.05,0,0,0-.26,1,9.26,9.26,0,0,1,.13-1,10.26,10.26,0,0,1,.31-1,12.6,12.6,0,0,1,.88-1.91,15.66,15.66,0,0,1,1.16-1.76q.32-.42.66-.82C81.68,109.22,81.94,109,82.2,108.75Z"/><path class="cls-52" d="M77.23,111.44c.05.21.09.42.13.64l.05.64c0,.43.05.86.07,1.29s0,.86,0,1.3c0,.22,0,.43-.06.65a4.16,4.16,0,0,1-.19.62,4.06,4.06,0,0,0,.06-.64c0-.21,0-.42.06-.64,0-.43,0-.86,0-1.29s0-.86-.07-1.29l-.05-.64Z"/><path class="cls-52" d="M82.6,108.06c.07.21.13.42.19.64s.07.44.1.65q.09.66.12,1.32A10.72,10.72,0,0,1,83,112c0,.22,0,.44-.08.66a5.92,5.92,0,0,1-.21.63,5.78,5.78,0,0,0,.09-.65c0-.21.06-.43.08-.65a10.56,10.56,0,0,0,0-1.31q0-.66-.12-1.31,0-.33-.1-.65Z"/><path class="cls-52" d="M76.67,107.27a1.41,1.41,0,0,0,.07.93,1.45,1.45,0,0,0,.61.68,2.58,2.58,0,0,0,1.83.31h0l0,0a1.14,1.14,0,0,0,.86.24,2.55,2.55,0,0,0,.9-.28,5.21,5.21,0,0,0,.81-.52,9.2,9.2,0,0,0,.78-.59,9.28,9.28,0,0,1-.7.69,5.34,5.34,0,0,1-.83.53,2.67,2.67,0,0,1-.95.29,1.25,1.25,0,0,1-1-.28l.06,0a2.47,2.47,0,0,1-1,0,2.68,2.68,0,0,1-.93-.34,1.58,1.58,0,0,1-.66-.74A1.46,1.46,0,0,1,76.67,107.27Z"/><path class="cls-52" d="M77.88,109.19c-.52.38-1,.81-1.5,1.21s-1,.83-1.44,1.27a13.35,13.35,0,0,0-2.41,3h0a4.16,4.16,0,0,0-1.07,1.55,3,3,0,0,0-.18.92,2.21,2.21,0,0,0,.2.93,2.26,2.26,0,0,1-.28-.93,2.18,2.18,0,0,1,.14-1,4.29,4.29,0,0,1,1.1-1.6v0a13.48,13.48,0,0,1,2.44-3c.47-.45,1-.87,1.45-1.28A14.38,14.38,0,0,1,77.88,109.19Z"/><path class="cls-52" d="M75.16,114.29a2,2,0,0,0-.35-.06l-.34-.06a2.7,2.7,0,0,0-.69,0,3.37,3.37,0,0,0-.67.18l-.32.13-.34.1.29-.22.33-.14a3.49,3.49,0,0,1,.69-.18,2.85,2.85,0,0,1,.72,0l.36.06A1.32,1.32,0,0,1,75.16,114.29Z"/><path class="cls-52" d="M75.45,111.1a3.57,3.57,0,0,0-.8-.23,5.41,5.41,0,0,0-.82-.08,2.94,2.94,0,0,0-1.55.45l0,0,0,0a1.66,1.66,0,0,0-.8-.52,1.93,1.93,0,0,0-1,0,4.18,4.18,0,0,0-1.72,1l-.07.06,0-.09a1.32,1.32,0,0,0-.37-.59.86.86,0,0,0-.68-.17.9.9,0,0,1,.73.1,1.07,1.07,0,0,1,.44.62l-.1,0a4.3,4.3,0,0,1,1.78-1,2.05,2.05,0,0,1,1,0,1.77,1.77,0,0,1,.87.56l-.08,0a3.07,3.07,0,0,1,1.62-.47,2.79,2.79,0,0,1,.84.11A3.61,3.61,0,0,1,75.45,111.1Z"/><path class="cls-52" d="M73.14,113.57a4,4,0,0,1-1.36.41,1.87,1.87,0,0,1-.72-.08,1.26,1.26,0,0,1-.6-.42l.07,0a2.46,2.46,0,0,1-1.33.18,1.38,1.38,0,0,1-.62-.28,1.52,1.52,0,0,1-.42-.54l.1,0a4,4,0,0,1-1.23.75,1.69,1.69,0,0,1-.73.11,1.1,1.1,0,0,1-.67-.31h.09a5.29,5.29,0,0,1-1.44,1,1.65,1.65,0,0,1-.88.16,1,1,0,0,1-.74-.45,1,1,0,0,0,.74.38,2,2,0,0,0,.82-.2,5.17,5.17,0,0,0,1.4-1l0,0,0,0a1,1,0,0,0,.6.28,1.57,1.57,0,0,0,.67-.1,3.86,3.86,0,0,0,1.18-.73l.06-.06,0,.08a1.28,1.28,0,0,0,.95.75,2.34,2.34,0,0,0,1.25-.17l0,0,0,0a1.13,1.13,0,0,0,.54.38,1.92,1.92,0,0,0,.67.08A4,4,0,0,0,73.14,113.57Z"/><path class="cls-52" d="M76.65,108.11a9.15,9.15,0,0,0-1.26.52,11.92,11.92,0,0,0-1.18.69,7.74,7.74,0,0,0-1.05.86,5.82,5.82,0,0,0-.86,1h0a5.42,5.42,0,0,0-1.06,1,2.78,2.78,0,0,0-.65,1.25v0h0a4.88,4.88,0,0,0-2.16,1.66l0-.09a.8.8,0,0,1,.35.46,1.48,1.48,0,0,1,.06.55l0-.05a4.94,4.94,0,0,1,1,1,2.36,2.36,0,0,1,.53,1.33,2.32,2.32,0,0,0-.6-1.27,6.83,6.83,0,0,0-1-1l0,0v0a1.35,1.35,0,0,0-.06-.51.7.7,0,0,0-.28-.38l-.06,0,0-.06a5,5,0,0,1,2.23-1.71l0,0a2.9,2.9,0,0,1,.67-1.31,5.52,5.52,0,0,1,1.09-1l0,0a5.92,5.92,0,0,1,.88-1.07,7.89,7.89,0,0,1,1.07-.87,6.45,6.45,0,0,1,1.21-.67A9.28,9.28,0,0,1,76.65,108.11Z"/><path class="cls-52" d="M68.66,111.6c0,.06,0,.12,0,.18l-.05.16-.11.31-.11.31-.06.15-.12.13v-.17l.06-.15.11-.31.11-.31.05-.15Z"/><path class="cls-52" d="M66.43,111.45a6.82,6.82,0,0,0-.49.93,2.47,2.47,0,0,0-.2,1v0a5.26,5.26,0,0,0,.77.9,10.31,10.31,0,0,0,.91.78h0v0a.25.25,0,0,0,.16.08l.23,0a2.29,2.29,0,0,0,.48-.05,2.34,2.34,0,0,1-.47.14.81.81,0,0,1-.26,0,.34.34,0,0,1-.25-.16l0,0a10.47,10.47,0,0,1-.93-.79,5.35,5.35,0,0,1-.79-.93h0a2.57,2.57,0,0,1,.21-1.06,2.09,2.09,0,0,1,.26-.47A3.48,3.48,0,0,1,66.43,111.45Z"/><path class="cls-52" d="M66.39,118.48a1.72,1.72,0,0,1,.14-.65,4.69,4.69,0,0,1,.3-.59,5.32,5.32,0,0,1,.83-1v.08a2,2,0,0,1-.21-.53.91.91,0,0,1,.07-.56.92.92,0,0,0,0,.27c0,.09,0,.17.06.26a1.86,1.86,0,0,0,.2.49l0,0,0,0a5.2,5.2,0,0,0-.81,1,4.56,4.56,0,0,0-.3.58C66.57,118.08,66.46,118.27,66.39,118.48Z"/><path class="cls-52" d="M67.7,116.24a1.05,1.05,0,0,0,.49,0,2.76,2.76,0,0,0,.46-.18h0a4.19,4.19,0,0,0,1-.12,6.32,6.32,0,0,0,1-.31,7.41,7.41,0,0,0,.91-.45c.29-.18.59-.34.89-.52a4.07,4.07,0,0,1-.83.62,7.63,7.63,0,0,1-.93.46,6.43,6.43,0,0,1-1,.32,4.27,4.27,0,0,1-1,.13h0a1.36,1.36,0,0,1-.5.17A1,1,0,0,1,67.7,116.24Z"/><path class="cls-52" d="M63.46,114.59a2.14,2.14,0,0,1,.09.46,2.1,2.1,0,0,1-.05.47,1.82,1.82,0,0,1-.42.85l0-.1a2.85,2.85,0,0,1,.82.73,2.65,2.65,0,0,1,.29.47,2.08,2.08,0,0,1,.11.54,2.6,2.6,0,0,0-.22-.49,2.29,2.29,0,0,0-.27-.45,2.73,2.73,0,0,0-.78-.7l-.07,0,.05-.06a1.7,1.7,0,0,0,.39-.79,3.05,3.05,0,0,0,.06-.45A2.92,2.92,0,0,0,63.46,114.59Z"/><path class="cls-52" d="M61.65,115.66a.76.76,0,0,0,.21.35.93.93,0,0,0,.35.2,1.7,1.7,0,0,0,.81.06h0a4.39,4.39,0,0,0,1.12.16,6.35,6.35,0,0,0,1.14-.07,7.38,7.38,0,0,0,1.11-.26c.36-.13.73-.22,1.09-.36a4.84,4.84,0,0,1-1.05.48,7.41,7.41,0,0,1-1.13.26,6.5,6.5,0,0,1-1.16.07,4.48,4.48,0,0,1-1.15-.17h0a1.88,1.88,0,0,1-.87-.06A.81.81,0,0,1,61.65,115.66Z"/><path class="cls-52" d="M65.69,113.38c0,.12-.09.25-.12.37a3.71,3.71,0,0,0-.13.36,3.94,3.94,0,0,0-.16.75,3.9,3.9,0,0,0,0,.77c0,.13,0,.26.05.38s0,.26,0,.39c-.06-.12-.11-.24-.15-.37s0-.26-.06-.39a4.06,4.06,0,0,1,.17-1.57c0-.13.09-.25.14-.37A2.15,2.15,0,0,1,65.69,113.38Z"/><path class="cls-50" d="M99.67,78.22a1.6,1.6,0,0,1,.6.58,6.07,6.07,0,0,1,.43.72,11.1,11.1,0,0,1,.63,1.55,13,13,0,0,1,.59,3.29,10.12,10.12,0,0,1-.39,3.32,8.87,8.87,0,0,1-1.52,3v0a3.79,3.79,0,0,1,.25,1.87,5.8,5.8,0,0,1-.5,1.83,9.77,9.77,0,0,1-2.26,3l0-.07a5.94,5.94,0,0,1-1.1,2.56,3.58,3.58,0,0,1-2.38,1.42c-.47.06-.93,0-1.39,0s-.91,0-1.37.07a16.46,16.46,0,0,0-2.71.4v0a13.55,13.55,0,0,1,2.7-.52q.69-.07,1.37-.11c.46,0,.92,0,1.36-.08a3.46,3.46,0,0,0,2.21-1.36,6.07,6.07,0,0,0,1.06-2.44v0l0,0a10.19,10.19,0,0,0,2.28-2.92,5.47,5.47,0,0,0,.53-1.77,3.7,3.7,0,0,0-.21-1.82v0l0,0a7.64,7.64,0,0,0,1.45-2.95,11.22,11.22,0,0,0,.3-3.27,13.82,13.82,0,0,0-.54-3.25,11,11,0,0,0-.56-1.55,6.22,6.22,0,0,0-.38-.73,1.56,1.56,0,0,0-.55-.59Z"/><path class="cls-51" d="M87.92,100.88c.24-1.09.49-2.18.76-3.27s.58-2.16.89-3.24q.94-3.22,2.13-6.37a41.94,41.94,0,0,1,2.87-6.09,13.75,13.75,0,0,1,2-2.7,4.71,4.71,0,0,1,1.4-1,2.17,2.17,0,0,1,1.66,0v0a2.12,2.12,0,0,0-1.62.09,4.61,4.61,0,0,0-1.34,1,13.67,13.67,0,0,0-2,2.7,43.82,43.82,0,0,0-2.8,6.08c-.8,2.08-1.52,4.2-2.18,6.34s-1.27,4.29-1.81,6.45Z"/><path class="cls-52" d="M100,90.62a16.22,16.22,0,0,0-1.76,1c-.58.34-1.14.7-1.69,1.09A30.69,30.69,0,0,0,93.4,95.2a34.67,34.67,0,0,0-2.8,2.89q-.66.76-1.27,1.56t-1.24,1.59q.55-.85,1.14-1.66T90.51,98a34.81,34.81,0,0,1,2.81-2.9,30.8,30.8,0,0,1,3.14-2.53q.83-.58,1.7-1.09A16,16,0,0,1,100,90.62Z"/><path class="cls-52" d="M97.42,97.23a8.13,8.13,0,0,0-1.25.23,12.62,12.62,0,0,0-1.23.32,15.79,15.79,0,0,0-2.36,1,18.76,18.76,0,0,0-2.19,1.3q-.53.36-1,.75t-1,.76q.46-.44.95-.86t1-.76a18.88,18.88,0,0,1,2.21-1.3,15.93,15.93,0,0,1,2.38-1c.41-.13.82-.24,1.24-.32A8,8,0,0,1,97.42,97.23Z"/><path class="cls-52" d="M92,99c.23-.27.47-.52.73-.76s.54-.45.82-.66a15.67,15.67,0,0,1,1.76-1.16,12.61,12.61,0,0,1,1.91-.88,10.27,10.27,0,0,1,1-.31,9.27,9.27,0,0,1,1-.13,9.07,9.07,0,0,0-1,.26,10.14,10.14,0,0,0-1,.3,12.46,12.46,0,0,0-1.89.87,15.56,15.56,0,0,0-1.75,1.15q-.42.32-.81.66C92.5,98.54,92.22,98.75,92,99Z"/><path class="cls-52" d="M94.66,94h.65l.64.05c.43,0,.86.05,1.29.07s.86,0,1.29,0l.64-.06A4.07,4.07,0,0,0,99.8,94a4.16,4.16,0,0,1-.63.19l-.65.06c-.43,0-.86,0-1.3,0s-.86,0-1.29-.07l-.64-.05Z"/><path class="cls-52" d="M91.28,99.38l.66.07.65.1q.65.09,1.31.12a10.57,10.57,0,0,0,1.31,0c.22,0,.43,0,.65-.08a5.79,5.79,0,0,0,.65-.09,6,6,0,0,1-.63.21c-.22,0-.44.06-.66.08a10.73,10.73,0,0,1-1.33,0q-.66,0-1.32-.12l-.66-.1C91.7,99.52,91.49,99.46,91.28,99.38Z"/><path class="cls-52" d="M90.49,93.46a1.46,1.46,0,0,1,1,0,1.58,1.58,0,0,1,.74.66,2.68,2.68,0,0,1,.34.93,2.47,2.47,0,0,1,0,1l0-.06a1.25,1.25,0,0,1,.28,1,2.67,2.67,0,0,1-.29.95,5.34,5.34,0,0,1-.53.83,9.28,9.28,0,0,1-.69.7,9.2,9.2,0,0,0,.59-.77,5.21,5.21,0,0,0,.52-.81,2.55,2.55,0,0,0,.28-.9,1.13,1.13,0,0,0-.24-.86l0,0v0a2.58,2.58,0,0,0-.31-1.83,1.45,1.45,0,0,0-.68-.61A1.41,1.41,0,0,0,90.49,93.46Z"/><path class="cls-52" d="M92.4,94.67a14.37,14.37,0,0,1,1.11-1.58c.41-.5.83-1,1.28-1.45a13.48,13.48,0,0,1,3-2.44h0a4.29,4.29,0,0,1,1.61-1.1,2.18,2.18,0,0,1,1-.14,2.26,2.26,0,0,1,.93.28,2.22,2.22,0,0,0-.93-.2,3,3,0,0,0-.92.18,4.17,4.17,0,0,0-1.55,1.07h0a13.36,13.36,0,0,0-3,2.41c-.44.46-.87.95-1.27,1.44S92.78,94.15,92.4,94.67Z"/><path class="cls-52" d="M97.51,92a1.32,1.32,0,0,1-.18-.31,2.38,2.38,0,0,1-.06-.36,2.84,2.84,0,0,1,0-.72,3.48,3.48,0,0,1,.18-.69c0-.11.09-.22.14-.33l.22-.29c0,.11-.07.23-.1.34s-.09.21-.13.32a3.36,3.36,0,0,0-.18.67,2.7,2.7,0,0,0,0,.69,2.22,2.22,0,0,0,.06.34A2,2,0,0,0,97.51,92Z"/><path class="cls-52" d="M94.32,92.24a3.6,3.6,0,0,1-.32-.78,2.79,2.79,0,0,1-.11-.84A3.06,3.06,0,0,1,94.36,89l0,.08a1.77,1.77,0,0,1-.56-.87,2.05,2.05,0,0,1,0-1,4.3,4.3,0,0,1,1-1.77l0,.1a1.07,1.07,0,0,1-.62-.44.9.9,0,0,1-.1-.73.86.86,0,0,0,.17.68,1.32,1.32,0,0,0,.59.37l.09,0-.06.07a4.17,4.17,0,0,0-1,1.72,1.93,1.93,0,0,0,0,1,1.66,1.66,0,0,0,.52.8l0,0,0,0A2.94,2.94,0,0,0,94,90.62a5.41,5.41,0,0,0,.08.82A3.56,3.56,0,0,0,94.32,92.24Z"/><path class="cls-52" d="M96.79,89.93a4,4,0,0,0,.29-1.36,1.91,1.91,0,0,0-.08-.67,1.13,1.13,0,0,0-.38-.54l0,0,0,0A2.34,2.34,0,0,0,96.77,86a1.28,1.28,0,0,0-.75-.95l-.08,0L96,85a3.86,3.86,0,0,0,.73-1.18,1.56,1.56,0,0,0,.1-.67,1,1,0,0,0-.28-.6l0,0,0,0a5.17,5.17,0,0,0,1-1.4,2,2,0,0,0,.2-.82,1,1,0,0,0-.38-.74,1,1,0,0,1,.46.74,1.65,1.65,0,0,1-.16.88,5.28,5.28,0,0,1-1,1.44v-.09a1.1,1.1,0,0,1,.31.67,1.69,1.69,0,0,1-.11.72,4,4,0,0,1-.75,1.23l0-.1a1.52,1.52,0,0,1,.54.42,1.38,1.38,0,0,1,.28.62,2.46,2.46,0,0,1-.18,1.32l0-.07a1.26,1.26,0,0,1,.42.6,1.87,1.87,0,0,1,.08.72A4,4,0,0,1,96.79,89.93Z"/><path class="cls-52" d="M91.33,93.44a9.26,9.26,0,0,1,.44-1.3,6.45,6.45,0,0,1,.67-1.21,7.88,7.88,0,0,1,.87-1.07A5.92,5.92,0,0,1,94.38,89l0,0a5.51,5.51,0,0,1,1-1.09,2.91,2.91,0,0,1,1.31-.67l0,0a5,5,0,0,1,1.71-2.22l.06,0,0,.06a.7.7,0,0,0,.38.28,1.35,1.35,0,0,0,.51.06h0l0,0a6.83,6.83,0,0,0,1,1,2.32,2.32,0,0,0,1.28.6,2.36,2.36,0,0,1-1.33-.53,4.94,4.94,0,0,1-1-1l.05,0a1.49,1.49,0,0,1-.55-.06.81.81,0,0,1-.46-.35l.09,0a4.88,4.88,0,0,0-1.66,2.16v0h0a2.79,2.79,0,0,0-1.25.65,5.42,5.42,0,0,0-1,1.06h0a5.82,5.82,0,0,0-1,.86A7.74,7.74,0,0,0,92.54,91a11.91,11.91,0,0,0-.69,1.18A9.14,9.14,0,0,0,91.33,93.44Z"/><path class="cls-52" d="M94.82,85.46l.14-.11.15-.05.31-.11.31-.11.15-.06h.17l-.13.12-.15.06-.31.11-.31.11-.16.05Z"/><path class="cls-52" d="M94.66,83.23a3.48,3.48,0,0,1,.41-.35,2.09,2.09,0,0,1,.47-.26,2.58,2.58,0,0,1,1.06-.2h0a5.35,5.35,0,0,1,.93.79,10.48,10.48,0,0,1,.79.93l0,0a.34.34,0,0,1,.16.25.81.81,0,0,1,0,.26,2.34,2.34,0,0,1-.14.47,2.28,2.28,0,0,0,.05-.48,1,1,0,0,0,0-.23.25.25,0,0,0-.08-.16h0a10.3,10.3,0,0,0-.78-.91,5.26,5.26,0,0,0-.9-.77h0a2.48,2.48,0,0,0-1,.2A6.83,6.83,0,0,0,94.66,83.23Z"/><path class="cls-52" d="M101.7,83.18c-.21.07-.4.19-.6.26a4.56,4.56,0,0,0-.58.3,5.2,5.2,0,0,0-1,.81l0,0,0,0a1.86,1.86,0,0,0-.49-.2l-.26-.06a.92.92,0,0,0-.27,0,.91.91,0,0,1,.56-.07,2,2,0,0,1,.53.21h-.08a5.32,5.32,0,0,1,1-.83,4.69,4.69,0,0,1,.59-.3A1.73,1.73,0,0,1,101.7,83.18Z"/><path class="cls-52" d="M99.46,84.5a1,1,0,0,1,.06.51,1.36,1.36,0,0,1-.17.5v0a4.27,4.27,0,0,1-.13,1,6.42,6.42,0,0,1-.32,1,7.63,7.63,0,0,1-.46.93,4.07,4.07,0,0,1-.62.83c.18-.29.33-.6.52-.89a7.4,7.4,0,0,0,.45-.91,6.31,6.31,0,0,0,.31-1,4.18,4.18,0,0,0,.12-1v0h0a2.76,2.76,0,0,0,.18-.45A1.05,1.05,0,0,0,99.46,84.5Z"/><path class="cls-52" d="M97.81,80.26a2.93,2.93,0,0,0,.46,0,3.05,3.05,0,0,0,.45-.06,1.7,1.7,0,0,0,.79-.39l.06-.05,0,.07a2.73,2.73,0,0,0,.7.78,2.3,2.3,0,0,0,.45.27,2.6,2.6,0,0,0,.49.22,2.08,2.08,0,0,1-.54-.11,2.65,2.65,0,0,1-.47-.29,2.84,2.84,0,0,1-.73-.82l.1,0a1.83,1.83,0,0,1-.85.42,2.1,2.1,0,0,1-.47.05A2.16,2.16,0,0,1,97.81,80.26Z"/><path class="cls-52" d="M98.88,78.45a.81.81,0,0,1,.67.51,1.87,1.87,0,0,1,.06.87v0A4.48,4.48,0,0,1,99.78,81a6.49,6.49,0,0,1-.07,1.16,7.4,7.4,0,0,1-.26,1.13A4.83,4.83,0,0,1,99,84.3c.14-.36.23-.73.36-1.09a7.37,7.37,0,0,0,.26-1.11A6.34,6.34,0,0,0,99.66,81a4.38,4.38,0,0,0-.17-1.12v0h0a1.7,1.7,0,0,0-.06-.81.92.92,0,0,0-.2-.35A.76.76,0,0,0,98.88,78.45Z"/><path class="cls-52" d="M96.6,82.48a2.15,2.15,0,0,1,.33-.23l.37-.14a4.06,4.06,0,0,1,1.57-.17l.39.06.37.15-.39,0-.38-.05a3.91,3.91,0,0,0-.77,0,4,4,0,0,0-.75.16l-.36.13Z"/><g class="cls-53"><path class="cls-48" d="M94,124.61a.77.77,0,0,0,0,.65,5.33,5.33,0,0,0,.29.63c.21.41.45.81.68,1.22a12.53,12.53,0,0,1,.67,1.23,4.59,4.59,0,0,1,.4,1.35h0a13.6,13.6,0,0,0-.6-1.25c-.21-.41-.41-.83-.62-1.24s-.43-.83-.62-1.26a5.42,5.42,0,0,1-.25-.66.81.81,0,0,1,0-.69Z"/></g><g class="cls-53"><path class="cls-48" d="M107.55,111.25a28.75,28.75,0,0,0,2.79,1.83,9.27,9.27,0,0,1,1.32,1c.21.17.44.33.63.2a1.8,1.8,0,0,0,.46-.65h0a1.52,1.52,0,0,1-.39.77.48.48,0,0,1-.48.08,1.57,1.57,0,0,1-.39-.22c-.46-.34-.85-.71-1.3-1s-.92-.62-1.37-.94a16.45,16.45,0,0,1-1.31-1Z"/></g><g class="cls-53"><path class="cls-48" d="M90.83,118.84l1,2.23c.17.37.35.73.5,1.1l.44,1.13h0a5.59,5.59,0,0,1-.64-1,11.58,11.58,0,0,1-.46-1.13q-.43-1.14-.8-2.3Z"/></g><g class="cls-53"><path class="cls-48" d="M101.59,107.52q1.26.34,2.5.74a11.68,11.68,0,0,1,1.23.44,4.56,4.56,0,0,1,1.13.68v0c-.4-.17-.8-.32-1.21-.47s-.8-.33-1.2-.49q-1.21-.47-2.44-.91Z"/></g><g class="cls-53"><path class="cls-48" d="M87.35,117.53l-.2,2.23c0,.37,0,.74-.1,1.11s-.11.74-.21,1.1h0a6.58,6.58,0,0,1,0-1.13c0-.37.09-.74.15-1.11q.17-1.11.37-2.21Z"/></g><g class="cls-53"><path class="cls-48" d="M87.48,124.45a10.14,10.14,0,0,0,.31,1.84,3.53,3.53,0,0,0,.36.82.6.6,0,0,0,.71.31v0a.6.6,0,0,1-.49.12.81.81,0,0,1-.44-.3,2.2,2.2,0,0,1-.35-.92,8.3,8.3,0,0,1-.14-1.89Z"/></g><g class="cls-53"><path class="cls-48" d="M101.07,104c.75-.18,1.51-.33,2.28-.44a7.2,7.2,0,0,1,1.16-.12,3.52,3.52,0,0,1,.59.06,1.06,1.06,0,0,1,.29.1.27.27,0,0,1,.12.13.17.17,0,0,1,0,.16h0c0-.1,0-.16-.11-.17a1,1,0,0,0-.27,0,5,5,0,0,0-.57,0l-1.15.07c-.77.07-1.54.16-2.3.27Z"/></g><g class="cls-53"><path class="cls-48" d="M107.29,104.07a11.64,11.64,0,0,1,1.94.19,3.48,3.48,0,0,1,1,.28,1.53,1.53,0,0,1,.42.31.51.51,0,0,1,.13.49h0c0-.32-.35-.46-.63-.57a9.4,9.4,0,0,0-.89-.31,15.47,15.47,0,0,0-1.89-.36Z"/></g><g class="cls-53"><path class="cls-48" d="M70.83,101.42a.47.47,0,0,0,.14.24l.2.21c.14.13.29.26.44.38s.6.49.93.71a4,4,0,0,0,2.2.73v0a3.9,3.9,0,0,1-2.31-.58,4.88,4.88,0,0,1-1-.69A4,4,0,0,1,71,102a.89.89,0,0,1-.24-.56Z"/></g><g class="cls-53"><path class="cls-48" d="M84.65,87.62a2.06,2.06,0,0,0,0,.54,1.63,1.63,0,0,0,.11.5,3.28,3.28,0,0,0,.67.89l0,0a2.81,2.81,0,0,1-.83-.82,1,1,0,0,1-.19-.59.84.84,0,0,1,.25-.55Z"/></g><rect class="cls-54" y="16.77" width="59.23" height="59.24"/><polygon class="cls-55" points="16.2 0 0 16.77 59.23 16.77 75.43 0 16.2 0"/><polygon class="cls-56" points="75.43 0 59.23 16.77 59.23 76.01 75.43 59.24 75.43 0"/><path class="cls-57" d="M46.09,33.79a3.83,3.83,0,0,1,1-1,12.81,12.81,0,0,1-1,1.76,1.06,1.06,0,0,1,.8-.29l-1.28,1.29a3,3,0,0,1-.87.68c-.16.07-.38.21-.28.38a.35.35,0,0,0,.11.11l1.3.89a4.15,4.15,0,0,1,1.22.88.78.78,0,0,1,.15.34c0,.16-.22.33-.36.4-1.25-.9-2.89-1-4.08-2a.81.81,0,0,1-.37-.67c0-.21.23-.34.4-.45l.49-.3.18-.11a2.2,2.2,0,0,0,1-.92,1.72,1.72,0,0,0,.11-.71,8.09,8.09,0,0,1,0-1.22,2.47,2.47,0,0,1,.39,1.29c.54-.84.49-2,.79-2.94.3.84-.31,1.74,0,2.59A10.91,10.91,0,0,1,47,31.68a1.09,1.09,0,0,1-.17.61Z"/><path class="cls-58" d="M44.38,37a1.65,1.65,0,0,0-1.08-.75.56.56,0,0,0-.35,0,.25.25,0,0,0-.13.3.44.44,0,0,0,.3.22,3.64,3.64,0,0,1,.84.34c.13.08.24.19.37.27a.54.54,0,0,0,.42.09c0-.12-.07-.14-.15-.21A1.36,1.36,0,0,1,44.38,37Z"/><path class="cls-59" d="M35,46.92a2,2,0,0,1,.06.53h0a.79.79,0,0,1-.06.28,1.27,1.27,0,0,1-.28.36l-.61.61a.39.39,0,0,1-.26.15c-.19,0-.3-.24-.36-.43v0l-.3-1L33,46.69h0v0a1.37,1.37,0,0,1-.54.84,9.42,9.42,0,0,1-.85.54,9.19,9.19,0,0,0-1.85,1.72,2.41,2.41,0,0,0-.57.86.69.69,0,0,1-.1-.2h0a.91.91,0,0,1,0-.6,2.17,2.17,0,0,1,.48-.64l1.28-1.32h0a2.64,2.64,0,0,0-1.33-.07,7.55,7.55,0,0,0-1.72.32,9.59,9.59,0,0,1-2.81.45.64.64,0,0,0-.44.12.61.61,0,0,1,.15-.23,1,1,0,0,1,.43-.23,5.64,5.64,0,0,1,.78-.1,5.44,5.44,0,0,0,1.22-.34l1.55-.6a1,1,0,0,1-.43,0l-.54-.06-1,0c-.2,0-.65.06-.78-.15a.26.26,0,0,1,0-.14c0-.18.27-.27.43-.29a7.13,7.13,0,0,1,1.33,0h0l0,0a.43.43,0,0,1,.35-.12l1.08,0a.25.25,0,0,0,.15,0,.47.47,0,0,0,.07-.1c.11-.15.34-.13.53-.09l.94.19.37.07A3,3,0,0,0,32,45.06h0L32,45a2.41,2.41,0,0,1,.71-1,1.12,1.12,0,0,1,.3-.16.64.64,0,0,1,.31,0,.71.71,0,0,1,.23.09,2.69,2.69,0,0,1,1,1.55A14,14,0,0,1,35,46.92Z"/><path class="cls-58" d="M32.47,45s0,.09,0,.1a.12.12,0,0,0,.07,0,.23.23,0,0,1,.23.09.66.66,0,0,1,.11.24,9.23,9.23,0,0,1,.25,1.12,2.24,2.24,0,0,1,0,.38,4.24,4.24,0,0,1,0,.46,2.21,2.21,0,0,0,0,.69.55.55,0,0,0,.08.22.21.21,0,0,0,.2.1c.1,0,.14-.13.17-.23l.09-.35a.35.35,0,0,0,0-.33l-.07-.07a.37.37,0,0,1-.06-.28,4.57,4.57,0,0,0,0-.82l-.09.27a.33.33,0,0,1-.05-.27A2.81,2.81,0,0,0,33,44.89a.63.63,0,0,0-.12-.18C32.68,44.48,32.49,44.78,32.47,45Z"/><path class="cls-57" d="M35,46.92a2,2,0,0,1,.06.53h0l-.78.42a1.75,1.75,0,0,1-.06-.63,5.8,5.8,0,0,0-.66-2.74,1.08,1.08,0,0,0-.49-.54.63.63,0,0,0-.38,0,1.12,1.12,0,0,1,.3-.16.64.64,0,0,1,.31,0,.71.71,0,0,1,.23.09,2.69,2.69,0,0,1,1,1.55A14,14,0,0,1,35,46.92Z"/><path class="cls-57" d="M33,46.69v0a1.37,1.37,0,0,1-.54.84,9.42,9.42,0,0,1-.85.54,9.19,9.19,0,0,0-1.85,1.72,2.41,2.41,0,0,0-.57.86.69.69,0,0,1-.1-.2h0a2.58,2.58,0,0,1,.76-1.06l.47-.46.52-.51a3.43,3.43,0,0,1,.87-.68,1.32,1.32,0,0,0,.27-.15.94.94,0,0,0,.16-.19,3.43,3.43,0,0,0,.4-.68,1.27,1.27,0,0,0,.07-.8.6.6,0,0,1,0-.38.09.09,0,0,1,.08-.06s.07,0,.09.09A2.41,2.41,0,0,1,33,46.69Z"/><path class="cls-57" d="M25.92,46.95a.26.26,0,0,1,0-.14,4.15,4.15,0,0,0,1.12,0,8.71,8.71,0,0,1,2.15.18,4.64,4.64,0,0,1-.88.19l-.54-.06-1,0C26.51,47.08,26,47.16,25.92,46.95Z"/><path class="cls-57" d="M29,46.54a3,3,0,0,1-1.33,0h0l0,0,.13.05a1.44,1.44,0,0,0,.48,0A2.78,2.78,0,0,1,29,46.54Z"/><path class="cls-57" d="M31,47.73a.41.41,0,0,1-.12.14,2.64,2.64,0,0,0-1.33-.07,7.55,7.55,0,0,0-1.72.32,9.59,9.59,0,0,1-2.81.45.64.64,0,0,0-.44.12.61.61,0,0,1,.15-.23l1.89-.25a5.46,5.46,0,0,0,.73-.14c.24-.07.47-.17.7-.25a6.3,6.3,0,0,1,1.65-.29A2.24,2.24,0,0,1,31,47.73Z"/><path class="cls-58" d="M32,45.06a2.87,2.87,0,0,1-.25,1.15,3.09,3.09,0,0,1-.26.41,1.34,1.34,0,0,1-.24.28,1.08,1.08,0,0,1-.31.16,5.23,5.23,0,0,1-1.63.21c.17-.17.47-.16.66-.32a.13.13,0,0,0,.05-.08.14.14,0,0,0-.05-.12.54.54,0,0,0-.4-.11h-.4c.26-.16.62-.07.9-.2a.61.61,0,0,0-.31-.18s0,0,0,0a1.86,1.86,0,0,1,.57.09.71.71,0,0,0,.48,0l.37.07A3,3,0,0,0,32,45.06Z"/><path class="cls-58" d="M45.36,34.88a1.21,1.21,0,0,1-.45.52c-.3.15-.68,0-1,.12a3.81,3.81,0,0,0-.47.19l-.14,0,.18-.11a2.2,2.2,0,0,0,1-.92,1.72,1.72,0,0,0,.11-.71l.19.27c.06.07.13.15.21.13s0,.1.06.1a.11.11,0,0,0,.1-.08,1.21,1.21,0,0,0,0-.13.29.29,0,0,1,.18-.2.83.83,0,0,1-.07.4C45.21,34.64,45.23,34.82,45.36,34.88Z"/><path class="cls-60" d="M54,33.07c-.36.64-.68,1.11-.68,1.11v0a16.78,16.78,0,0,1-1.87,3.09,7.87,7.87,0,0,0-2.1,2.53l-.06.11c-.13.26-.19.41-.19.41s1.08.3.28.82l-.27.21c-1,.9-3.45,3.77-5.5,5.94a10.75,10.75,0,0,1-4.3,2.44l-1,.3c-.71.2-1.31.33-1.65.39l-.32.06s-.29.25-.81.66c-1.94,1.52-7,5.18-11.8,5.51a18,18,0,0,1-2.74,0c-.77-.06-1.45-.36-2.22-.42a21.1,21.1,0,0,0-5.16.28,6.86,6.86,0,0,0-1.57.43,12.18,12.18,0,0,0-3.48,2.8,28.47,28.47,0,0,1-4,3.08,6,6,0,0,1-1.29.72,34.18,34.18,0,0,0,3.82-3.84,17,17,0,0,1,3.5-3.64,12,12,0,0,1,7.52-1.34,22.37,22.37,0,0,0,6.1-.29,13.61,13.61,0,0,0,7.63-4.73c.45-.54.89-1,1.32-1.49l.1-.11.14-.15.41-.43.44-.46.66-.67.75-.77,0,0a29.94,29.94,0,0,1,4.87-4.11,26.78,26.78,0,0,0,2.68-2c.37-.3.67-.55.88-.7a2.27,2.27,0,0,0,.3-.27l.33-.37c.21-.26.44-.57.68-.91a13.66,13.66,0,0,0,1.52-2.86,11.09,11.09,0,0,1,2.46-3.53,2.05,2.05,0,0,1,1.91-1.21,4.4,4.4,0,0,0,.87-.14l1.3-.3.24-.05a1,1,0,0,1,1,.5,1.7,1.7,0,0,1,.14.23C55.19,30.64,54.53,32.07,54,33.07Z"/><path class="cls-61" d="M18.7,56.18a.18.18,0,0,0-.07-.09L18.53,56a.21.21,0,0,1,0-.3,2.26,2.26,0,0,0-1.14-.1,2.08,2.08,0,0,1-1.14-.13s0,0,0-.05a.05.05,0,0,1,0,0,1,1,0,0,1,.41-.23.71.71,0,0,0,.33-.21c.07-.1,0-.17,0-.29a11.26,11.26,0,0,0-6.36,1.42,17,17,0,0,0-3.5,3.64A34.18,34.18,0,0,1,3.25,63.6a6,6,0,0,0,1.29-.72,28.47,28.47,0,0,0,4-3.08A12.18,12.18,0,0,1,12.06,57a6.86,6.86,0,0,1,1.57-.43q.73-.13,1.48-.21.93-.1,1.87-.12h.94l.47,0c.07,0,.34.07.31-.07Z"/><path class="cls-62" d="M54.36,29.61a.17.17,0,0,1,0,.2c-.06.07-.17.05-.26.07a.44.44,0,0,0-.27.28,1.23,1.23,0,0,1-.18.36.89.89,0,0,1-.51.21,2.72,2.72,0,0,0-1.84,1,.72.72,0,0,1-.12.15A1,1,0,0,1,51,32a.7.7,0,0,0-.34.51.26.26,0,0,1,0,.12c-.06.08-.18,0-.27.06s-.23.24-.32.38a1.29,1.29,0,0,1-.94.43l1-.82a.53.53,0,0,0,.1-.1c.08-.12.07-.28.14-.41s.37-.22.54-.36a1.19,1.19,0,0,0,.17-.19,2.92,2.92,0,0,1,1.53-1,1.54,1.54,0,0,0,.77-.32,3.65,3.65,0,0,0,.27-.42.42.42,0,0,1,.43-.2s.08-.16.12-.17S54.33,29.57,54.36,29.61Z"/><path class="cls-62" d="M53.49,29.25l-.12.1c-.36.27-.86.29-1.22.56a3.07,3.07,0,0,0-.41.41,3.34,3.34,0,0,1-.9.69,1.64,1.64,0,0,0-.63.43,1.12,1.12,0,0,1-.13.18.61.61,0,0,1-.15.1l-.47.23h0a.06.06,0,0,1,0,0,.38.38,0,0,1,.22-.34,2.66,2.66,0,0,0,.38-.2c.07-.06.13-.14.19-.2a3.71,3.71,0,0,1,.81-.41,2.43,2.43,0,0,0,.58-.51l.38-.42a1.91,1.91,0,0,1,.24-.25h0Z"/><path class="cls-62" d="M49,32.82a.83.83,0,0,1-.05.21.07.07,0,0,1,0,0,.07.07,0,0,1-.07,0,.19.19,0,0,1,0-.08q0-.12,0-.25a.29.29,0,0,1,0-.09.24.24,0,0,1,0-.07,1,1,0,0,1,.19-.24c.15-.14.16,0,.11.11A3.21,3.21,0,0,0,49,32.82Z"/><path class="cls-62" d="M48.54,33.4a.29.29,0,0,1,.16-.15.24.24,0,0,1,.18.09l.12.14a.22.22,0,0,1,.06.12c0,.07-.06.12-.11.15s-.2.22-.33.05A.72.72,0,0,1,48.54,33.4Z"/><path class="cls-62" d="M52.35,32.81a.66.66,0,0,1-.17.17l-.16.08a.66.66,0,0,0-.14.15,10.68,10.68,0,0,1-1.11,1,6.54,6.54,0,0,0-.87,1.14l-.38.6a.15.15,0,0,1-.1-.16.42.42,0,0,1,.06-.18,3.29,3.29,0,0,0,.25-.61,1.43,1.43,0,0,1,.08-.23,1.12,1.12,0,0,1,.14-.21,4.05,4.05,0,0,1,.4-.45c.27-.25.61-.43.88-.69a4.32,4.32,0,0,1,.37-.36l.28-.19c.5-.38.59-1.14,1.08-1.52a2.06,2.06,0,0,1,.26-.16c.1-.06.44-.19.29.05a6.2,6.2,0,0,1-.39.51Z"/><path class="cls-63" d="M54,33.07l-.47.61-.16.2a1.19,1.19,0,0,1-.78.39.53.53,0,0,1-.25.46c-.14.08-.32.11-.39.25s0,.22-.13.28-.12,0-.18.06,0,.31-.18.37-.17-.05-.22-.12a.21.21,0,0,1,.09-.29,2.84,2.84,0,0,0,.29-.15,2.29,2.29,0,0,0,.2-.27,2,2,0,0,1,.18-.15,3.51,3.51,0,0,0,.29-.33c.38-.44,1-.62,1.34-1.09a1.37,1.37,0,0,0,.26-.69,6.15,6.15,0,0,1,0-.83,3.75,3.75,0,0,1,.58-1,1.87,1.87,0,0,0,.24-1.06,1.7,1.7,0,0,1,.14.23C55.19,30.64,54.53,32.07,54,33.07Z"/><path class="cls-62" d="M50.9,36.21s-.2.22-.52.62c-.16.2-.35.45-.57.74s-.44.63-.68,1q-.18.28-.35.6l-.08.16-.08.17-.16.34c-.1.23-.22.47-.35.71l-.19.36-.21.36-.11.18-.11.18-.11.18-.12.18-.24.36-.25.36-.13.18-.13.17-.27.35-.28.34-.14.17-.15.17-.29.33-.07.08-.08.08-.15.16-.3.32-.31.31-.31.3-.32.29-.32.28-.32.27-.32.26-.32.25c-.21.16-.42.32-.63.47l-.31.22-.15.11-.07.05h0l0,0-.61.34c-.39.21-.76.38-1.1.51s-.63.24-.88.32l-.18.05-.16,0-.14,0-.11,0-.21,0,.21-.06.11,0,.13,0,.16,0,.17-.06c.25-.08.54-.2.87-.35s.69-.33,1.08-.54l.59-.35,0,0h0l.07-.05.15-.11.3-.22c.21-.15.41-.31.61-.48l.31-.25.31-.27.32-.27.31-.29.31-.29.31-.3.31-.31.3-.32.15-.16.08-.08.07-.08.29-.33.15-.17.14-.17.28-.34.27-.35.13-.17.13-.18.25-.35.24-.35.12-.18.11-.18.11-.18.11-.18.21-.35.2-.35c.13-.24.25-.47.36-.7l.17-.34.09-.17.09-.16q.18-.32.36-.6c.24-.38.49-.7.71-1s.42-.53.59-.72l.4-.45Z"/><path class="cls-62" d="M50,35.06s-2.4,4.25-3.26,5.56-4.89,5.81-7,6.6a25.31,25.31,0,0,0-5.23,3.64l-.44.38a25,25,0,0,1-4.91,3.21,19.56,19.56,0,0,1-4.75,1.68l-.28.06A12.66,12.66,0,0,1,18.4,56l.05-.25c4,1.13,8-.21,10.64-1.53A24.78,24.78,0,0,0,34,51l.51-.44A24.77,24.77,0,0,1,39.7,47c2-.77,6-5.26,6.87-6.51s3.23-5.5,3.25-5.54Z"/><path class="cls-62" d="M48.81,33.69a16.84,16.84,0,0,0-1.59,2.93A19.6,19.6,0,0,1,43.11,42l-.74.68a32.82,32.82,0,0,1-5,4,28.27,28.27,0,0,0-4,3.14l-.31.32a18.68,18.68,0,0,1-2.68,2.34,16.56,16.56,0,0,1-6.22,2.88l-.58.1a11.71,11.71,0,0,1-5.64-.24,2.67,2.67,0,0,0-1.36-.27,2.76,2.76,0,0,1-.78.08,2.87,2.87,0,0,0,.46-.07,6.6,6.6,0,0,1,.87-.16,1.4,1.4,0,0,1,.45,0c.15,0,.3.12.45.17a11.53,11.53,0,0,0,5.49.21,15.94,15.94,0,0,0,6.69-2.94,18.52,18.52,0,0,0,2.65-2.31s.12-.13.35-.35a28.64,28.64,0,0,1,4-3.14,32.62,32.62,0,0,0,5-3.94l.74-.68a19.22,19.22,0,0,0,4-5.3,16.68,16.68,0,0,1,1.62-3Z"/><path class="cls-62" d="M44.42,38.58a13.68,13.68,0,0,1-1.92,2A18.88,18.88,0,0,0,41.06,42a12.28,12.28,0,0,1-2.93,2.25,33.3,33.3,0,0,0-5,4.06c.88-1,1.71-1.76,2.5-2.58A21.54,21.54,0,0,1,38,44a12,12,0,0,0,2.89-2.21,19,19,0,0,1,1.45-1.35,11.12,11.12,0,0,0,.91-.87c.37-.3.67-.55.88-.7A2.27,2.27,0,0,0,44.42,38.58Z"/><path class="cls-63" d="M53.28,34.21a16.78,16.78,0,0,1-1.87,3.09,7.87,7.87,0,0,0-2.1,2.53h0a.37.37,0,0,1,0-.34,4.93,4.93,0,0,1,.77-1.32c.38-.43.92-.75,1.11-1.31a.28.28,0,0,1,.06-.12c.05-.05.14,0,.21-.07a.43.43,0,0,0,.25-.27,2.54,2.54,0,0,1,.15-.36c.1-.17.3-.29.31-.49a.14.14,0,0,0,0-.13l-.06,0c-.05,0,0-.12,0-.17.22-.26.6-.38.75-.69l.09.12A.64.64,0,0,1,53.28,34.21Z"/><path class="cls-57" d="M54.54,38.05l-.07.1a.88.88,0,0,1,1.13,0,.79.79,0,0,1,.35.82,1.74,1.74,0,0,0-.77-.59.61.61,0,0,0-.38,0,.65.65,0,0,0-.26.18,6.24,6.24,0,0,0-1,1.21,3.15,3.15,0,0,0,.58-.41,1.21,1.21,0,0,1,.64-.29.62.62,0,0,1,.62.35s0,0-.07,0a.44.44,0,0,1-.06-.07c-.07-.08-.18-.06-.27,0l-.1.06a9.48,9.48,0,0,1-1.46,1,1.9,1.9,0,0,0-.26.15l-.11.1c-.05.06-.09.13-.14.2a2,2,0,0,1-.34.27,3.32,3.32,0,0,0-.56.62l-.23.28a1.11,1.11,0,0,1-1.08.41,1.93,1.93,0,0,1-.6-.37,6,6,0,0,0-1.73-.92.42.42,0,0,1-.16-.08.39.39,0,0,1-.08-.32c0-.36.15-.77.49-.87a1.31,1.31,0,0,1,.92.26,4.78,4.78,0,0,0,.88.37.85.85,0,0,0,.39,0,.58.58,0,0,0,.26-.14c.07-.06.14-.14.21-.2a6.83,6.83,0,0,1,.81-.56,1.69,1.69,0,0,0,.51-.78,3.44,3.44,0,0,1,.51-.85,1.17,1.17,0,0,1-.13.81l1-1.29a.81.81,0,0,1,.26-.25l.1,0a.3.3,0,0,1,.22.05l0,0,.4-.34a.44.44,0,0,1,.26-.13.2.2,0,0,1,.12,0,.15.15,0,0,1,.07.16A4.44,4.44,0,0,0,54.54,38.05Z"/><path class="cls-58" d="M55.6,38.2a.79.79,0,0,1,.35.82,1.74,1.74,0,0,0-.77-.59.61.61,0,0,0-.38,0,.65.65,0,0,0-.26.18,6.24,6.24,0,0,0-1,1.21,3.15,3.15,0,0,0,.58-.41,1.21,1.21,0,0,1,.64-.29.62.62,0,0,1,.62.35s0,0-.07,0a.44.44,0,0,1-.06-.07c-.07-.08-.18-.06-.27,0a.25.25,0,0,0-.24-.11c-.08,0-.14.09-.2.15a1.07,1.07,0,0,1-.27.14,2.88,2.88,0,0,0-1,.7.38.38,0,0,0-.13.26v0l-.11.1c-.05.06-.09.13-.14.2a2,2,0,0,1-.34.27,3.32,3.32,0,0,0-.56.62l0,0c-.16.12-.29.32-.49.31s-.29-.14-.45-.19h0c-.11,0-.23,0-.34,0a.4.4,0,0,1-.27-.46.21.21,0,0,1,.06-.11c.12-.1.32,0,.48,0l.08,0a.6.6,0,0,0,.09-.48q0-.16,0-.32c.07-.06.14-.14.21-.2a6.83,6.83,0,0,1,.81-.56,1.69,1.69,0,0,0,.51-.78,3.44,3.44,0,0,1,.51-.85,1.17,1.17,0,0,1-.13.81l1-1.29a.81.81,0,0,1,.26-.25l.1,0a.48.48,0,0,1-.1.18,12.54,12.54,0,0,0-1,1.5,10.18,10.18,0,0,0,.92-1.2c.11-.12.23-.22.33-.35l.05-.07,0,0,.4-.34a.44.44,0,0,1,.26-.13.2.2,0,0,1,.12,0,.66.66,0,0,1-.16.12,5.27,5.27,0,0,0-1.53,1.68,3.27,3.27,0,0,0-.29.49,9.89,9.89,0,0,1,.83-.94,1.32,1.32,0,0,1,.22-.19l-.07.1A.88.88,0,0,1,55.6,38.2Z"/><path class="cls-58" d="M52.89,39.79a.64.64,0,0,0-.12.09.28.28,0,0,0,0,.29.14.14,0,0,0,.07.08.14.14,0,0,0,.08,0A.75.75,0,0,0,53.3,40a.29.29,0,0,0,.05-.08,1.06,1.06,0,0,0,0-.25c0-.08.06-.17,0-.25s-.08-.05-.13,0A3.73,3.73,0,0,1,52.89,39.79Z"/><path class="cls-58" d="M52.18,40.5a1.66,1.66,0,0,1-.62,1.1l-.24.16-.22.11h0c-.11,0-.23,0-.34,0a.4.4,0,0,1-.27-.46.21.21,0,0,1,.06-.11c.12-.1.32,0,.48,0l.08,0a.24.24,0,0,0,.2,0,.6.6,0,0,0,.17-.16,1,1,0,0,0,.16-.23c0-.1.05-.21.09-.31a.29.29,0,0,1,.22-.21.3.3,0,0,1,.2.06.17.17,0,0,1,.06.07A.18.18,0,0,1,52.18,40.5Z"/><path class="cls-64" d="M44.87,43.38a13.88,13.88,0,0,0,1.29-1.69,15.28,15.28,0,0,0,2-4.27c.28-1.1,1.32-1.73,2.12-2.49a13.31,13.31,0,0,0,1.65-2,.75.75,0,0,0,.19-.48c0-.18-.21-.36-.37-.28a.36.36,0,0,1-.15.53.65.65,0,0,0-.67-.09c.24,0,.37.36.24.56s-.39.28-.58.43a3,3,0,0,1-.43.35.39.39,0,0,1-.51-.12,1.42,1.42,0,0,1,.31.55l-.56-.2a.65.65,0,0,1,.36.56,1.33,1.33,0,0,1-.7-.31,1.16,1.16,0,0,1,.34.7,1.53,1.53,0,0,0-.62-.27,1.35,1.35,0,0,1,.34.51,1.76,1.76,0,0,0-.65-.27l.32.39-.61-.05.35.37a1.29,1.29,0,0,0-.53.05l.1.19-1,1.52a20.26,20.26,0,0,1-1.38,2c-.4.49-.85.94-1.3,1.39l-4.65,4.69a12.4,12.4,0,0,1-1.41,1.28c-1.69,1.25-3.55,2.19-5.21,3.47l-1.53,1.19a18.06,18.06,0,0,1-8.32,3.84,11.76,11.76,0,0,1-2.54.08A11.53,11.53,0,0,1,18.24,55,4.52,4.52,0,0,0,17,54.7a2.53,2.53,0,0,0-.36,0,12.82,12.82,0,0,1-1.77.32,6.46,6.46,0,0,0-3.4,1.09A18.74,18.74,0,0,0,8.7,58.43a1.69,1.69,0,0,0-.54.75l1.62-1.32a11.85,11.85,0,0,1,3.09-2,12.21,12.21,0,0,1,1.86-.5,7.61,7.61,0,0,1,2.54-.4c.14,0,.25.1.39.13s.33.06.49.11l.63.18q.63.17,1.26.28a12.35,12.35,0,0,0,2.53.19,10.58,10.58,0,0,0,1.76-.21,23.24,23.24,0,0,0,7.23-3.12,13.13,13.13,0,0,0,1.5-1c.43-.34.81-.74,1.25-1.06,1-.73,2.18-1.1,3.22-1.74s2-1.12,3-1.64a14.77,14.77,0,0,0,1.5-.85A14.76,14.76,0,0,0,44.87,43.38Z"/><path class="cls-61" d="M23.55,55.44l-1,.13a13.45,13.45,0,0,1-3,0l-.34-.05A11.29,11.29,0,0,1,17.34,55a2.47,2.47,0,0,0-.85,0H16a4.4,4.4,0,0,0-.46,0,5.19,5.19,0,0,0,.94-.21,1.63,1.63,0,0,1,.78,0c.27.07.53.19.8.28a7.79,7.79,0,0,0,2.07.38,15.24,15.24,0,0,0,3.36-.18,15.94,15.94,0,0,0,6.69-2.94,18.52,18.52,0,0,0,2.65-2.31s.12-.13.35-.35a1.63,1.63,0,0,0,.16.22l-.31.32a18.68,18.68,0,0,1-2.68,2.34,16.56,16.56,0,0,1-6.22,2.88Z"/><path class="cls-61" d="M34.57,50.87l-.44.38a25,25,0,0,1-4.91,3.21,19.56,19.56,0,0,1-4.75,1.68l-.28.06A12.66,12.66,0,0,1,18.4,56l.05-.25c4,1.13,8-.21,10.64-1.53A24.78,24.78,0,0,0,34,51l.51-.44A.87.87,0,0,1,34.57,50.87Z"/><path class="cls-57" d="M40.17,50.63a2,2,0,0,1-.09,1,4.77,4.77,0,0,1-.33.82A6.33,6.33,0,0,1,39,53.51a1.39,1.39,0,0,0-.3.49,2.47,2.47,0,0,0,0,.68,1.58,1.58,0,0,1-.5,1.19.25.25,0,0,0,0-.18,2.31,2.31,0,0,1-2,.9l.29-.18-2.13.5,2.22-1.07c.22-.11.47-.25.5-.5a3.27,3.27,0,0,1-1.4.4,23.56,23.56,0,0,1-2.67.15,1.21,1.21,0,0,1-1-.34,2.66,2.66,0,0,1,.9-.14l1.5-.07A4.53,4.53,0,0,0,36.15,55a1.5,1.5,0,0,0,.94-1.3,4.14,4.14,0,0,1-2.74-.31H36.1a1.55,1.55,0,0,0,1.08-.27,1.39,1.39,0,0,0,.28-.42l.12-.25A9.44,9.44,0,0,0,38,51.34a.88.88,0,0,1-.42.07,11.11,11.11,0,0,0-1.43,0c-.29,0-.64,0-.67-.43a.85.85,0,0,1,.4-.72A3.65,3.65,0,0,1,38,49.78l.95,0a1.5,1.5,0,0,1,.62.07A1.09,1.09,0,0,1,40.17,50.63Z"/><path class="cls-59" d="M39.75,51.66a2.77,2.77,0,0,0,0,.77A6.33,6.33,0,0,1,39,53.51a1.39,1.39,0,0,0-.3.49,2.47,2.47,0,0,0,0,.68,1.58,1.58,0,0,1-.5,1.19.25.25,0,0,0,0-.18,2.31,2.31,0,0,1-2,.9l.29-.18-2.13.5,2.22-1.07c.22-.11.47-.25.5-.5a3.27,3.27,0,0,1-1.4.4,23.56,23.56,0,0,1-2.67.15,1.21,1.21,0,0,1-1-.34,2.66,2.66,0,0,1,.9-.14l1.5-.07A4.53,4.53,0,0,0,36.15,55a1.5,1.5,0,0,0,.94-1.3,4.14,4.14,0,0,1-2.74-.31H36.1a1.55,1.55,0,0,0,1.08-.27,1.39,1.39,0,0,0,.28-.42l.12-.25a1.11,1.11,0,0,0,.56-.4,3,3,0,0,0,.43-.6,1.24,1.24,0,0,0,.14-.74c0-.1.08-.16,0-.22a1.22,1.22,0,0,0-.83-.23,6.79,6.79,0,0,0-.68.17.79.79,0,0,1-.68-.13A1.85,1.85,0,0,1,37.59,50a5.59,5.59,0,0,1,1.33.11,1.15,1.15,0,0,1,.86.52A1.66,1.66,0,0,1,39.75,51.66Z"/><path class="cls-57" d="M39.19,51.88a4.08,4.08,0,0,1-.45.75,1.79,1.79,0,0,0-.34.81.5.5,0,0,1-.08.31c-.11.11-.33,0-.42-.12a.63.63,0,0,1,0-.49,9.28,9.28,0,0,1,.74-1.3c.06-.13.32-1,.49-1S39.24,51.76,39.19,51.88Z"/><rect class="cls-65" x="118.45" y="76.01" width="59.23" height="59.24"/><polygon class="cls-66" points="134.66 59.24 118.45 76.01 177.68 76.01 193.88 59.24 134.66 59.24"/><polygon class="cls-67" points="193.88 59.24 177.68 76.01 177.68 135.25 193.88 118.48 193.88 59.24"/><path class="cls-68" d="M152.72,127.11a2,2,0,0,1,.53,2.24,3.46,3.46,0,0,1-.47.77c-.2.24-.17,0-.19-.16,0-.47-1.41,1.47-.83,2.66a5.6,5.6,0,0,1-.47-.77,1.91,1.91,0,0,1-.19-1,2.89,2.89,0,0,1,.44-1.3c.45-.77,1-1.64.73-2C152.14,127.36,152.89,127.1,152.72,127.11Z"/><path class="cls-69" d="M144.06,121.5a1.19,1.19,0,0,0-.27.89c.27,1,4.56,3.65,6.74,4.8a10.25,10.25,0,0,0,1.33.62.56.56,0,0,0,.7-.11l.32-.35c.54-.58.23-.49-.36-.82a31.72,31.72,0,0,1-7.78-4.49l0-.59Z"/><path class="cls-70" d="M143.45,121l1.72-4.89a1,1,0,0,1,1.27-.68l.09,0a1,1,0,0,1,.56,1.35l-1.72,4.88a1,1,0,0,1-1.27.68l-.09,0A1,1,0,0,1,143.45,121Z"/><path class="cls-71" d="M149.22,88.88a1.69,1.69,0,0,1-.46-1.93,3.18,3.18,0,0,1,.4-.66c.17-.2.15,0,.16.14,0,.41,1.22-1.27.72-2.29a4.59,4.59,0,0,1,.4.66,1.7,1.7,0,0,1,.17.87,2.46,2.46,0,0,1-.39,1.11c-.39.67-.84,1.41-.62,1.72S149.07,88.9,149.22,88.88Z"/><path class="cls-72" d="M150.84,93.1a1,1,0,0,0,.55-.44c.26-.76-.08-1.62-.95-3.29a7.21,7.21,0,0,0-.56-1c-.13-.17-.25-.29-.49-.24l-.24.07c-.59.13-.5.32-.26.68a9.33,9.33,0,0,1,1.63,3.2c.07.22,0,0,.1.34l-.24.38Z"/><path class="cls-73" d="M150.07,92l-1.14,4a.82.82,0,0,0,.49,1l.07,0a.82.82,0,0,0,1-.63l1.14-4a.84.84,0,0,0-.49-1.06l-.07,0A.82.82,0,0,0,150.07,92Z"/><path class="cls-74" d="M162.5,97.76a1.69,1.69,0,0,0,2,.08,2.86,2.86,0,0,0,.58-.52c.17-.2,0-.16-.16-.14-.4,0,1-1.44,2.1-1.14a5.2,5.2,0,0,0-.72-.27,1.73,1.73,0,0,0-.89,0,2.47,2.47,0,0,0-1,.59c-.58.5-1.22,1.1-1.56.94C162.61,97.23,162.51,97.91,162.5,97.76Z"/><path class="cls-75" d="M157.9,94.83a.88.88,0,0,1,.56-.43c.8-.09,2.21.65,3.63,1.88a8.18,8.18,0,0,1,.81.77.43.43,0,0,1,.12.53l-.16.33c-.26.55,0,.8-.4.49a11.84,11.84,0,0,0-4-3.22l-.43.14Z"/><path class="cls-73" d="M157.75,94.29l-3.6,2.11a.82.82,0,0,0-.35,1.11l0,.07a.84.84,0,0,0,1.15.24l3.6-2.1a.83.83,0,0,0,.35-1.12l0-.06A.84.84,0,0,0,157.75,94.29Z"/><path class="cls-71" d="M132.08,109.65a1.7,1.7,0,0,0-2-.09,3.24,3.24,0,0,0-.57.52c-.17.2,0,.16.16.14.4,0-1,1.44-2.12,1.15a5.84,5.84,0,0,0,.73.27,1.79,1.79,0,0,0,.89,0,2.46,2.46,0,0,0,1-.59c.58-.5,1.23-1.1,1.57-.94C132,110.18,132.07,109.5,132.08,109.65Z"/><path class="cls-72" d="M136.53,110.44a1,1,0,0,1-.33.62c-.7.41-1.6.23-3.41-.31a7.21,7.21,0,0,1-1-.37c-.2-.09-.33-.19-.33-.43l0-.24c0-.61.23-.55.63-.39a9.18,9.18,0,0,0,3.45,1l.35,0,.33-.3Z"/><path class="cls-73" d="M135.27,109.9,139,108a.82.82,0,0,1,1.13.28l0,.07a.82.82,0,0,1-.44,1.08L136,111.33a.83.83,0,0,1-1.13-.29l0-.07A.82.82,0,0,1,135.27,109.9Z"/><path class="cls-74" d="M143.32,121a1.69,1.69,0,0,1,.46,1.92,3,3,0,0,1-.4.67c-.17.2-.15,0-.16-.14,0-.41-1.22,1.27-.72,2.28a4.65,4.65,0,0,1-.4-.66,1.71,1.71,0,0,1-.17-.87,2.51,2.51,0,0,1,.39-1.13c.38-.67.85-1.41.63-1.71S143.47,121,143.32,121Z"/><path class="cls-75" d="M139.56,117a.89.89,0,0,0-.32.63c.06.79,1.07,2,2.54,3.2a7,7,0,0,0,.91.65.43.43,0,0,0,.54,0l.29-.22c.49-.37.79-.16.41-.49a11.84,11.84,0,0,1-3.92-3.3l.05-.44Z"/><path class="cls-73" d="M139,117l1.39-3.93a.82.82,0,0,1,1-.56l.08,0a.84.84,0,0,1,.45,1.09l-1.38,3.94a.83.83,0,0,1-1,.55l-.07,0A.85.85,0,0,1,139,117Z"/><path class="cls-68" d="M170.29,105.83a2,2,0,0,0,2.3.11,3.56,3.56,0,0,0,.67-.61c.2-.24,0-.17-.19-.16-.47,0,1.18-1.67,2.45-1.33a5.6,5.6,0,0,0-.85-.31,2,2,0,0,0-1,0,3,3,0,0,0-1.19.68c-.68.59-1.42,1.28-1.82,1.09C170.41,105.21,170.3,106,170.29,105.83Z"/><path class="cls-76" d="M163.13,98.39a1.17,1.17,0,0,1,.82-.43c1,.07,4.45,3.78,6,5.7a9.15,9.15,0,0,1,.87,1.18.56.56,0,0,1,0,.71l-.28.38c-.46.64-.44.31-.88-.19A31.11,31.11,0,0,0,163.78,99l-.58.08Z"/><path class="cls-70" d="M162.52,97.89l-4.47,2.61a1,1,0,0,0-.44,1.38l.05.09a1,1,0,0,0,1.44.29l4.46-2.61a1,1,0,0,0,.44-1.38l-.05-.09A1,1,0,0,0,162.52,97.89Z"/><path class="cls-77" d="M161.42,102c3.24,1.47,6.16,4.85,7.84,7.89,1.19,2.14,3.22,5.93,1.38,8.15-1,1.17-2.44.71-3-.59-.38-.85-.39-3.37-.48-4.38C166.9,110.63,163,103.35,161.42,102Z"/><path class="cls-78" d="M164.5,104a4.08,4.08,0,0,1-.48.52,5,5,0,0,1-.48.37c.08.13.16.26.23.4a4.24,4.24,0,0,0,.56-.43,4.73,4.73,0,0,0,.52-.56l-.35-.3Zm6.66,10.21a2.31,2.31,0,0,1-.25.22,7.64,7.64,0,0,1-3.58,1.6c0,.16,0,.31.05.46a8.26,8.26,0,0,0,3.83-1.7l.06-.05a4,4,0,0,0-.11-.52ZM169.31,110l-.07.12a3.83,3.83,0,0,1-.49.59,6.22,6.22,0,0,1-1.88,1.24c.05.15.09.31.12.44a6.47,6.47,0,0,0,2.08-1.36,4.44,4.44,0,0,0,.48-.57l-.26-.47ZM167,106.64a2.84,2.84,0,0,1-.34.52,4.79,4.79,0,0,1-1.34,1.13l.2.42a5.24,5.24,0,0,0,1.5-1.24,4.93,4.93,0,0,0,.3-.43Z"/><path class="cls-79" d="M164.28,103.85a3.66,3.66,0,0,1-.46.49,4.16,4.16,0,0,1-.44.34c.08.13.16.26.23.4a4.56,4.56,0,0,0,.52-.4,4.28,4.28,0,0,0,.5-.54l-.35-.3Zm6.79,10.08a3.11,3.11,0,0,1-.35.32,7.61,7.61,0,0,1-3.42,1.57c0,.16,0,.31,0,.47a8.32,8.32,0,0,0,3.67-1.68l.18-.16c0-.18-.09-.35-.13-.52Zm-1.91-4.19a1.84,1.84,0,0,1-.11.19,3.84,3.84,0,0,1-.49.59,6,6,0,0,1-1.77,1.19c0,.16.09.31.14.45a6.58,6.58,0,0,0,2-1.31,3.77,3.77,0,0,0,.53-.62c-.05-.11-.12-.21-.17-.3l-.09-.17Zm-2.32-3.33a2.88,2.88,0,0,1-.35.54,4.78,4.78,0,0,1-1.27,1.08l.21.42a5.3,5.3,0,0,0,1.43-1.21,3.6,3.6,0,0,0,.31-.44Z"/><path class="cls-80" d="M147.3,119.13c2.06,2.9,5.93,5.13,9.23,6.2,2.33.76,6.43,2,8.26-.18,1-1.18.24-2.54-1.14-2.87-.9-.22-3.39.26-4.39.36C156.79,122.88,148.89,120.4,147.3,119.13Z"/><path class="cls-81" d="M149.85,121.78a4,4,0,0,0,.42-.57,5.14,5.14,0,0,0,.28-.55l.43.16a4,4,0,0,1-.31.63,4.58,4.58,0,0,1-.45.61l-.37-.28Zm11.29,4.6a2.31,2.31,0,0,0,.17-.28,7.72,7.72,0,0,0,.89-3.82l.46,0a8.2,8.2,0,0,1-.94,4.08l0,.07-.53,0Zm-4.5-1,.11-.09a3.75,3.75,0,0,0,.48-.58,6.16,6.16,0,0,0,.87-2.08l.46,0a6.48,6.48,0,0,1-.94,2.3,4.45,4.45,0,0,1-.47.58l-.51-.16Zm-3.76-1.6a2.78,2.78,0,0,0,.45-.44,4.83,4.83,0,0,0,.85-1.53l.44.12a5.21,5.21,0,0,1-.94,1.71,4.77,4.77,0,0,1-.36.37Z"/><path class="cls-82" d="M149.64,121.6a3.66,3.66,0,0,0,.4-.55,4.49,4.49,0,0,0,.25-.5l.43.16a4.46,4.46,0,0,1-.29.58,4.38,4.38,0,0,1-.43.59l-.36-.29Zm11.19,4.75a3.11,3.11,0,0,0,.25-.4,7.66,7.66,0,0,0,.9-3.65l.46,0a8.29,8.29,0,0,1-.95,3.92l-.12.22-.53,0Zm-4.48-1.08.16-.14a3.83,3.83,0,0,0,.49-.59,6.08,6.08,0,0,0,.83-2l.46.05a6.58,6.58,0,0,1-.92,2.17,3.85,3.85,0,0,1-.52.64l-.33-.11-.19-.05Zm-3.71-1.64a3,3,0,0,0,.46-.45,4.72,4.72,0,0,0,.82-1.45l.45.12a5.33,5.33,0,0,1-.91,1.63,3.6,3.6,0,0,1-.37.39Z"/><rect class="cls-83" x="141.01" y="101.93" width="19.32" height="10.79" transform="translate(-28.01 155.21) rotate(-50.47)"/><path class="cls-84" d="M151.44,108.17c2.14-2.59,8.37-1.9,13.33,2.19s6.82,10.09,4.68,12.67-8.37,1.9-13.33-2.2S149.31,110.75,151.44,108.17Z"/><path class="cls-85" d="M140.49,113.38c2.65,1.26,4,4.14,7.78,6.43a37.94,37.94,0,0,0,6.72,3c2.8,1,5.18,1.51,5.62-.34a8.2,8.2,0,0,0-.63-3,10.21,10.21,0,0,0-1.16-2.08,9.37,9.37,0,0,0-3.27-2.56c-1.72-1.06-3.17-1.57-5.1-1a40.8,40.8,0,0,1-7.64-1.06Z"/><path class="cls-86" d="M140.58,113.43c2.58,1.28,3.91,4.12,7.69,6.39a37.94,37.94,0,0,0,6.72,3c2.8,1,5.18,1.51,5.62-.34a8.2,8.2,0,0,0-.63-3c-.12-.3-.26-.59-.41-.88a4.2,4.2,0,0,1-2.37,1.68c-3.43.88-8.6-1.61-11.21-3.31C143.91,115.57,142.22,113.82,140.58,113.43Z"/><path class="cls-87" d="M147.39,119.24c.28.2.58.39.88.57a37.94,37.94,0,0,0,6.72,3c2.28.81,4.28,1.3,5.18.47a23.3,23.3,0,0,1-4.5-.79c-3.3-.85-7-2.25-8.37-3.35A.8.8,0,0,0,147.39,119.24Z"/><path class="cls-88" d="M154.49,96.43c1.74,2.36,4.82,3.11,7.79,6.43a37.3,37.3,0,0,1,4.21,6c1.51,2.55,2.46,4.8.74,5.58a8.2,8.2,0,0,1-3.1,0,9.79,9.79,0,0,1-2.27-.74,9.24,9.24,0,0,1-3.13-2.73c-1.36-1.49-2.14-2.81-1.95-4.81a40.3,40.3,0,0,0-2.48-7.3Z"/><path class="cls-89" d="M160.11,116.72a5.27,5.27,0,0,1-2.27-.47c-1.66-.68-3.32-1.85-5-1.88a28.69,28.69,0,0,1-3.41-.22,4.51,4.51,0,0,1-2.28-.86,2.18,2.18,0,0,1-.46-2.72,20.72,20.72,0,0,1,6.24-7.56,2.16,2.16,0,0,1,2.75-.06,4.36,4.36,0,0,1,1.28,2.07,27.29,27.29,0,0,1,.86,3.3c.54,2.5,3.49,4.39,3.71,6.87C161.59,116.34,161.25,116.65,160.11,116.72Z"/><path class="cls-90" d="M159.84,116.38a5.1,5.1,0,0,1-2.14-.47c-1.57-.67-3.16-1.79-4.79-1.85a30.33,30.33,0,0,1-3.21-.26,4.38,4.38,0,0,1-2.17-.85,2.07,2.07,0,0,1-.48-2.55,18.33,18.33,0,0,1,5.73-6.95,2.06,2.06,0,0,1,2.59,0,4.46,4.46,0,0,1,1.25,2,28.78,28.78,0,0,1,.86,3.1c.55,2.34,3.36,4.17,3.61,6.48C161.23,116.06,160.92,116.34,159.84,116.38Z"/><ellipse class="cls-91" cx="152" cy="108.63" rx="4.81" ry="1.27" transform="translate(-28.54 156.71) rotate(-50.47)"/><path class="cls-92" d="M149.59,108.53a18.47,18.47,0,0,1,1.85-2.25,1.25,1.25,0,0,0,0,.9c.14.26.37.62.49.84.29.48,0,.85-.55.67-.23-.08-.63-.24-.91-.33A1.24,1.24,0,0,0,149.59,108.53Z"/><path class="cls-93" d="M154.55,96.51c1.74,2.3,4.79,3.06,7.72,6.34a37.3,37.3,0,0,1,4.21,6c1.51,2.55,2.46,4.8.74,5.58a8.2,8.2,0,0,1-3.1,0c-.31-.06-.63-.15-.94-.24a4.19,4.19,0,0,0,1.2-2.64c.22-3.54-3.22-8.14-5.37-10.38C157.28,99.37,155.24,98.05,154.55,96.51Z"/><path class="cls-87" d="M161.55,102.09q.37.35.73.77a37.3,37.3,0,0,1,4.21,6c1.23,2.08,2.09,4,1.44,5a23.3,23.3,0,0,0-1.62-4.27c-1.46-3.08-3.54-6.43-4.88-7.58Z"/><path class="cls-94" d="M159.84,116.38a5.1,5.1,0,0,1-2.14-.47l-.15-.06a2.43,2.43,0,0,0,2.58-3.13,5,5,0,0,1,1,2.26C161.23,116.06,160.92,116.34,159.84,116.38Z"/><path class="cls-95" d="M140.14,79.08c-.43,0-.54.95-.55,3.06a9.94,9.94,0,0,0,.5,3.86,8.44,8.44,0,0,0,.59-3.74C140.69,80.15,140.57,79.08,140.14,79.08Z"/><path class="cls-96" d="M120.74,102.59c-.08-.42.83-.71,2.9-1.12a9.65,9.65,0,0,1,3.88-.24,8.44,8.44,0,0,1-3.55,1.28C121.89,102.94,120.82,103,120.74,102.59Z"/><path class="cls-97" d="M126.52,101.12a10.33,10.33,0,0,1,5.56-.63,37,37,0,0,1,6-.19l0,.46a37.57,37.57,0,0,0-6,.18,14.56,14.56,0,0,1-5.59.81.31.31,0,0,1-.34-.28C126.17,101.31,126.24,101.22,126.52,101.12Z"/><path class="cls-98" d="M139.79,85a10.28,10.28,0,0,0,.43,5.58,37.82,37.82,0,0,0,1,6l.45-.12a36.91,36.91,0,0,1-.95-5.9,14.67,14.67,0,0,0-.27-5.64.31.31,0,0,0-.34-.28C139.91,84.66,139.84,84.75,139.79,85Z"/><path class="cls-99" d="M137.14,100.41h0a.39.39,0,0,1,.42-.31l1.57.09c.21,0,.33.35.29.55h0c0,.2-.24.49-.43.45l-1.54-.35A.39.39,0,0,1,137.14,100.41Z"/><path class="cls-99" d="M141.11,95.6h0a.38.38,0,0,0-.23.48l.39,1.52c.06.2.41.26.6.18h0c.19-.06.43-.33.36-.51l-.65-1.44A.39.39,0,0,0,141.11,95.6Z"/><path class="cls-100" d="M142.1,100.69l.23-.28c3.7-4.48,9.75-6.19,11.88-4.25,4.32,4-9.33,20.5-14,17C137.87,111.44,138.4,105.17,142.1,100.69Z"/><path class="cls-70" d="M141.77,100.44l.24-.29c3.79-4.6,9.83-6.49,11.88-4.61,1.63,1.5,1.15,5.64-2.22,9.06-.62.62-1,1.44-1.64,2.16l-.12.14-.12.14c-.59.72-1.32,1.29-1.81,2-2.72,4-6.69,5.22-8.47,3.9C137.27,111.31,138,105,141.77,100.44Z"/><path class="cls-101" d="M139.3,102.18a2.22,2.22,0,0,1-.67-1.15l-.46-1.49c-.28-.93.09-1,.78-1.69s.55-1.19,1.52-1.09l1.55.17a2.14,2.14,0,0,1,1.25.44.94.94,0,0,1,.08-.13.85.85,0,0,1,1.18-.14,1.16,1.16,0,0,1,.16,1.24l0,0c.4,2.11-1.95,5-4.09,5l0,0a1.15,1.15,0,0,1-1.25.08.85.85,0,0,1-.09-1.19Z"/><path class="cls-70" d="M139.21,102a2.36,2.36,0,0,1-.81-1.25l-.48-1.46c-.3-.91.07-1,.73-1.63s.52-1.15,1.47-1l1.52.2a2.36,2.36,0,0,1,1.38.56,2,2,0,0,1,1.13.68c.63,2.15-1.83,5.13-4.06,4.92C139.79,102.7,139.36,102.5,139.21,102Z"/><circle class="cls-102" cx="139.62" cy="102.46" r="0.83" transform="translate(-28.27 144.92) rotate(-50.47)"/><ellipse class="cls-103" cx="139.36" cy="102.24" rx="0.47" ry="0.25" transform="translate(-28.2 144.64) rotate(-50.47)"/><path class="cls-104" d="M140.18,102a.75.75,0,0,1-.92,1.12.8.8,0,0,0,.8-.28A.81.81,0,0,0,140.18,102Z"/><path class="cls-105" d="M138.56,97.69a6.51,6.51,0,0,0,1,1.83,4.52,4.52,0,0,0,.89.77.22.22,0,0,1,0,.32.23.23,0,0,1-.32.05,5.51,5.51,0,0,1-1.8-2.81Z"/><path class="cls-105" d="M138.71,97.51a6.5,6.5,0,0,1,2,.66,4.17,4.17,0,0,1,.93.72.22.22,0,0,0,.32,0,.23.23,0,0,0,0-.33,5.51,5.51,0,0,0-3.1-1.23Z"/><ellipse class="cls-106" cx="123.58" cy="101.96" rx="2.34" ry="0.09" transform="translate(-17.5 26.03) rotate(-11.24)"/><ellipse class="cls-107" cx="129.2" cy="100.96" rx="2.18" ry="0.08" transform="translate(-12.56 18.56) rotate(-7.84)"/><path class="cls-101" d="M140.07,79.65A15.61,15.61,0,0,0,140,82a14.55,14.55,0,0,0,.07,2.33,16.94,16.94,0,0,0,.1-2.33A15.88,15.88,0,0,0,140.07,79.65Z"/><path class="cls-108" d="M140,85.52a14.67,14.67,0,0,0,0,2.18,14.83,14.83,0,0,0,.2,2.18,14.3,14.3,0,0,0,0-2.19A14.22,14.22,0,0,0,140,85.52Z"/><path class="cls-109" d="M140.17,106.12a.23.23,0,1,1-.46-.05c.1-.8.41-1.14.8-1.26a2,2,0,0,1,1.12.09c.37.1.61.09.75,0a1.05,1.05,0,0,0,.27-.7.85.85,0,0,1,.48-.77l.24-.17h0l0,0a.15.15,0,0,0,0-.09.26.26,0,0,0-.06-.15.23.23,0,0,1,.08-.32.23.23,0,0,1,.32.07.72.72,0,0,1,.12.38.57.57,0,0,1-.14.39l-.1.09h0l-.27.2a.5.5,0,0,0-.28.44,1.45,1.45,0,0,1-.45,1,1.25,1.25,0,0,1-1.15.1,1.65,1.65,0,0,0-.87-.09C140.42,105.32,140.23,105.55,140.17,106.12Z"/><path class="cls-109" d="M147.15,97a.23.23,0,0,1,.3.15.24.24,0,0,1-.15.29c-.55.17-.74.4-.77.64a1.71,1.71,0,0,0,.25.83,1.25,1.25,0,0,1,.12,1.15,1.44,1.44,0,0,1-.91.63.5.5,0,0,0-.38.36c0,.09-.08.2-.15.31h0l-.08.12-.1.09a.65.65,0,0,1-.65.07.23.23,0,0,1-.14-.3.24.24,0,0,1,.3-.13.23.23,0,0,0,.21,0l0,0,0,0h0a2.5,2.5,0,0,0,.12-.27.86.86,0,0,1,.67-.62,1.05,1.05,0,0,0,.64-.4c.09-.16,0-.39-.12-.73a2.11,2.11,0,0,1-.3-1.08C146.11,97.67,146.39,97.29,147.15,97Z"/><path class="cls-110" d="M148.93,105.88c3.08-3.73,4.9-7.35,4-8s-4.06,1.77-7.14,5.5-4.91,7.35-4.05,8.06S145.85,109.62,148.93,105.88Z"/><circle class="cls-111" cx="143.59" cy="97.64" r="0.83" transform="translate(-23.12 146.23) rotate(-50.47)"/><ellipse class="cls-112" cx="143.33" cy="97.43" rx="0.47" ry="0.25" transform="translate(-23.05 145.95) rotate(-50.47)"/><path class="cls-104" d="M144.15,97.17a.75.75,0,0,1-.92,1.12A.8.8,0,0,0,144,98,.81.81,0,0,0,144.15,97.17Z"/><ellipse class="cls-113" cx="155.48" cy="111.5" rx="0.4" ry="4.02" transform="translate(-29.49 160.44) rotate(-50.47)"/></g></g></svg>