<svg id="Layer_1" data-name="Layer 1" xmlns="http://www.w3.org/2000/svg" xmlns:xlink="http://www.w3.org/1999/xlink" viewBox="0 0 253.34 135.25"><defs><style>.cls-1{fill:url(#radial-gradient);}.cls-2{fill:url(#linear-gradient);}.cls-3{fill:url(#linear-gradient-2);}.cls-4{fill:url(#linear-gradient-3);}.cls-5{fill:url(#linear-gradient-4);}.cls-6{fill:url(#linear-gradient-5);}.cls-7{fill:url(#linear-gradient-6);}.cls-8{fill:url(#linear-gradient-7);}.cls-9{fill:url(#linear-gradient-8);}.cls-10{fill:url(#linear-gradient-9);}.cls-11{fill:url(#linear-gradient-10);}.cls-12{fill:url(#linear-gradient-11);}.cls-13{fill:url(#linear-gradient-12);}.cls-14{fill:url(#linear-gradient-13);}.cls-15{fill:url(#linear-gradient-14);}.cls-16{fill:url(#linear-gradient-15);}.cls-17{fill:url(#linear-gradient-16);}.cls-18{fill:url(#linear-gradient-17);}.cls-19{fill:url(#linear-gradient-18);}.cls-20{fill:url(#linear-gradient-19);}.cls-21{fill:url(#radial-gradient-2);}.cls-22{fill:url(#radial-gradient-3);}.cls-23{fill:url(#linear-gradient-20);}.cls-24{fill:url(#linear-gradient-21);}.cls-25{fill:url(#linear-gradient-22);}.cls-26{fill:url(#linear-gradient-23);}.cls-27{fill:url(#linear-gradient-24);}.cls-28{fill:url(#linear-gradient-25);}.cls-29{fill:#221f1f;}.cls-117,.cls-123,.cls-30{fill:#fff;}.cls-31{fill:url(#radial-gradient-4);}.cls-32{fill:url(#linear-gradient-26);}.cls-33{fill:url(#linear-gradient-27);}.cls-34{fill:#2c2b2a;}.cls-34,.cls-35,.cls-36,.cls-37,.cls-38,.cls-39,.cls-40,.cls-41,.cls-42,.cls-43,.cls-44,.cls-48,.cls-49,.cls-50,.cls-51,.cls-52,.cls-53,.cls-54,.cls-55,.cls-56,.cls-57,.cls-60,.cls-64,.cls-65,.cls-66,.cls-67,.cls-68,.cls-69,.cls-70,.cls-72,.cls-73,.cls-74,.cls-75,.cls-76,.cls-79,.cls-80,.cls-81,.cls-84,.cls-88,.cls-90{fill-rule:evenodd;}.cls-36{fill:url(#radial-gradient-5);}.cls-37{fill:#ff9341;}.cls-38{fill:#9a4800;}.cls-39{fill:#6f3207;}.cls-40{fill:#333;}.cls-41{fill:#ccc;}.cls-42{fill:#1a1a1a;}.cls-43{fill:#ff9898;}.cls-44{fill:#4d4d4d;}.cls-45{fill:url(#radial-gradient-6);}.cls-46{fill:url(#linear-gradient-28);}.cls-47{fill:url(#linear-gradient-29);}.cls-48{fill:#c27b3d;}.cls-49{fill:url(#GradientFill_199);}.cls-50{fill:#cbc80f;}.cls-51{fill:#e3bd9e;}.cls-52{fill:#c7c40f;}.cls-53,.cls-89{fill:#e1dc0d;}.cls-54{fill:#cc8c5a;}.cls-55{fill:#d7b913;}.cls-56{fill:url(#GradientFill_199-2);}.cls-57{fill:url(#GradientFill_200);}.cls-58{fill:url(#GradientFill_201);}.cls-59{fill:url(#GradientFill_202);}.cls-60{fill:url(#GradientFill_200-2);}.cls-61{fill:url(#GradientFill_201-2);}.cls-62{fill:url(#GradientFill_202-2);}.cls-63,.cls-79{fill:#828201;}.cls-64{fill:url(#GradientFill_203);}.cls-65{fill:url(#GradientFill_204);}.cls-66{fill:url(#GradientFill_202-3);}.cls-67{fill:#eee81a;}.cls-68{fill:url(#GradientFill_204-2);}.cls-69{fill:url(#GradientFill_205);}.cls-70{fill:url(#GradientFill_206);}.cls-71{fill:url(#GradientFill_207);}.cls-72{fill:#ffcb05;}.cls-73{fill:url(#GradientFill_202-4);}.cls-74{fill:#b05d11;}.cls-75{fill:url(#GradientFill_203-2);}.cls-76{fill:url(#GradientFill_203-3);}.cls-77{fill:url(#GradientFill_208);}.cls-78{fill:url(#GradientFill_208-2);}.cls-80{fill:#4e5000;}.cls-81,.cls-86{fill:#ffda69;}.cls-82{fill:url(#GradientFill_209);}.cls-83{fill:url(#GradientFill_210);}.cls-84{fill:#f1b60f;}.cls-85{fill:#9e9e09;}.cls-87,.cls-88{fill:#ffeda9;}.cls-90{fill:url(#GradientFill_211);}.cls-91{fill:url(#GradientFill_209-2);}.cls-92{fill:url(#GradientFill_210-2);}.cls-93{fill:url(#GradientFill_212);}.cls-94{fill:url(#radial-gradient-7);}.cls-95{fill:url(#linear-gradient-30);}.cls-96{fill:url(#linear-gradient-31);}.cls-97{fill:#a87c4f;}.cls-98{fill:#8a5d3b;}.cls-99{fill:#284da0;}.cls-100{fill:#223369;}.cls-101{fill:#dd1f26;}.cls-102{fill:#be1e2d;}.cls-103{fill:#fff100;}.cls-104{fill:#098442;}.cls-105{fill:#dbcc23;}.cls-106{fill:#f9ec31;}.cls-107{fill:#231f20;}.cls-108{fill:#2d2926;}.cls-109{fill:#e8c270;}.cls-110{fill:#404041;}.cls-111{fill:#f7d593;}.cls-112{fill:#00a14b;}.cls-113{fill:url(#radial-gradient-8);}.cls-114{fill:url(#linear-gradient-32);}.cls-115{fill:url(#linear-gradient-33);}.cls-116{fill:#080307;}.cls-117{opacity:0.25;}.cls-118{fill:#2a304a;}.cls-119{fill:#161416;}.cls-120{fill:#2c73e7;}.cls-121{fill:#e3793d;}.cls-122{fill:#50311f;}.cls-123{opacity:0.37;}</style><radialGradient id="radial-gradient" cx="95.41" cy="-420.96" r="32.41" gradientTransform="translate(-399.36 8.38) rotate(90) scale(1.02 1.02)" gradientUnits="userSpaceOnUse"><stop offset="0" stop-color="#ffe035"/><stop offset="1" stop-color="#ffc62b"/></radialGradient><linearGradient id="linear-gradient" x1="50.34" y1="-398.62" x2="69.23" y2="-396.31" gradientTransform="translate(-359.71 7.49) rotate(90)" gradientUnits="userSpaceOnUse"><stop offset="0" stop-color="#ffd138"/><stop offset="0.44" stop-color="#ffda36"/><stop offset="1" stop-color="#ffe035"/></linearGradient><linearGradient id="linear-gradient-2" x1="88.97" y1="-437.04" x2="90.52" y2="-417.37" xlink:href="#linear-gradient"/><linearGradient id="linear-gradient-3" x1="-1969.1" y1="87.05" x2="-1968.1" y2="91.96" gradientTransform="translate(1981)" gradientUnits="userSpaceOnUse"><stop offset="0" stop-color="#84c241"/><stop offset="0.02" stop-color="#89c441"/><stop offset="0.17" stop-color="#a3cd43"/><stop offset="0.3" stop-color="#b3d345"/><stop offset="0.4" stop-color="#b9d545"/><stop offset="1" stop-color="#456f34"/></linearGradient><linearGradient id="linear-gradient-4" x1="-1970.05" y1="102.89" x2="-1965.62" y2="104" gradientTransform="translate(1981)" gradientUnits="userSpaceOnUse"><stop offset="0" stop-color="#456f34"/><stop offset="0.6" stop-color="#b9d545"/><stop offset="0.7" stop-color="#b3d345"/><stop offset="0.83" stop-color="#a3cd43"/><stop offset="0.98" stop-color="#89c441"/><stop offset="1" stop-color="#84c241"/></linearGradient><linearGradient id="linear-gradient-5" x1="-1969.48" y1="104.18" x2="-1971.02" y2="111.04" gradientTransform="translate(1981)" gradientUnits="userSpaceOnUse"><stop offset="0" stop-color="#b9d545"/><stop offset="0.24" stop-color="#d5b136"/><stop offset="0.47" stop-color="#ec922a"/><stop offset="0.61" stop-color="#f58725"/><stop offset="1" stop-color="#965624"/></linearGradient><linearGradient id="linear-gradient-6" x1="-1941.35" y1="94.49" x2="-1937.99" y2="94.49" gradientTransform="translate(1981)" gradientUnits="userSpaceOnUse"><stop offset="0" stop-color="#264b9b"/><stop offset="1" stop-color="#10bef0"/></linearGradient><linearGradient id="linear-gradient-7" x1="-1936.97" y1="96.05" x2="-1933.35" y2="96.05" xlink:href="#linear-gradient-6"/><linearGradient id="linear-gradient-8" x1="-1940.42" y1="95.21" x2="-1931.78" y2="94.32" xlink:href="#linear-gradient-4"/><linearGradient id="linear-gradient-9" x1="-1970.95" y1="99.13" x2="-1970.01" y2="95.83" xlink:href="#linear-gradient-4"/><linearGradient id="linear-gradient-10" x1="-1970.68" y1="97.9" x2="-1968.04" y2="88.57" xlink:href="#linear-gradient-4"/><linearGradient id="linear-gradient-11" x1="-1954.43" y1="107.08" x2="-1950.01" y2="91.48" xlink:href="#linear-gradient-4"/><linearGradient id="linear-gradient-12" x1="-1949.67" y1="107.97" x2="-1948.84" y2="100.44" xlink:href="#linear-gradient-6"/><linearGradient id="linear-gradient-13" x1="-7008.48" y1="106.61" x2="-6997.96" y2="106.61" gradientTransform="matrix(-1, 0, 0, 1, -6961.08, 0)" xlink:href="#linear-gradient-6"/><linearGradient id="linear-gradient-14" x1="-1941" y1="117.35" x2="-1946.71" y2="119.73" xlink:href="#linear-gradient-5"/><linearGradient id="linear-gradient-15" x1="-1941.48" y1="117.26" x2="-1946.2" y2="113.99" xlink:href="#linear-gradient-5"/><linearGradient id="linear-gradient-16" x1="-1943.29" y1="105.25" x2="-1938.28" y2="108.32" xlink:href="#linear-gradient-4"/><linearGradient id="linear-gradient-17" x1="-1934.17" y1="112.19" x2="-1931.18" y2="117.13" xlink:href="#linear-gradient-4"/><linearGradient id="linear-gradient-18" x1="-1935.78" y1="107.7" x2="-1934.01" y2="112.26" xlink:href="#linear-gradient-4"/><linearGradient id="linear-gradient-19" x1="-6976.72" y1="93" x2="-6968.92" y2="93" gradientTransform="matrix(-1, 0, 0, 1, -6961.08, 0)" xlink:href="#linear-gradient-3"/><radialGradient id="radial-gradient-2" cx="-7343.52" cy="89.88" r="3.23" gradientTransform="matrix(-1.25, 0, 0, 1.02, -9159.15, 0.74)" gradientUnits="userSpaceOnUse"><stop offset="0" stop-color="#3066af"/><stop offset="0.71" stop-color="#2b60ab"/><stop offset="1" stop-color="#285ca8"/></radialGradient><radialGradient id="radial-gradient-3" cx="-7343.45" cy="90.05" r="3.01" gradientTransform="matrix(-1.25, 0, 0, 1.02, -9159.15, 0.74)" gradientUnits="userSpaceOnUse"><stop offset="0" stop-color="#ed4523"/><stop offset="0.13" stop-color="#e74322"/><stop offset="0.3" stop-color="#d73e20"/><stop offset="0.49" stop-color="#bb351d"/><stop offset="0.69" stop-color="#952918"/><stop offset="0.91" stop-color="#651912"/><stop offset="1" stop-color="#4e120f"/></radialGradient><linearGradient id="linear-gradient-20" x1="-1950.84" y1="100.02" x2="-1952.12" y2="105.84" gradientTransform="translate(1981)" gradientUnits="userSpaceOnUse"><stop offset="0" stop-color="#fbed34"/><stop offset="0.17" stop-color="#e9e739"/><stop offset="0.49" stop-color="#cfdd3f"/><stop offset="0.78" stop-color="#bfd744"/><stop offset="1" stop-color="#b9d545"/></linearGradient><linearGradient id="linear-gradient-21" x1="-7005.45" y1="105.74" x2="-6994.92" y2="105.74" gradientTransform="matrix(-1, 0, 0, 1, -6961.08, 0)" xlink:href="#linear-gradient-6"/><linearGradient id="linear-gradient-22" x1="-1957.86" y1="116.8" x2="-1965.11" y2="121.71" xlink:href="#linear-gradient-5"/><linearGradient id="linear-gradient-23" x1="-1962.3" y1="104.95" x2="-1953.36" y2="102.42" xlink:href="#linear-gradient-4"/><linearGradient id="linear-gradient-24" x1="-1958.63" y1="111.69" x2="-1953.51" y2="113.86" xlink:href="#linear-gradient-4"/><linearGradient id="linear-gradient-25" x1="-1958.44" y1="106.05" x2="-1954.24" y2="101.95" xlink:href="#linear-gradient-6"/><radialGradient id="radial-gradient-4" cx="95.41" cy="-479.08" r="32.73" gradientTransform="translate(-399.36 8.38) rotate(90) scale(1.02 1.02)" gradientUnits="userSpaceOnUse"><stop offset="0" stop-color="#29e26f"/><stop offset="1" stop-color="#29c865"/></radialGradient><linearGradient id="linear-gradient-26" x1="50.34" y1="-457.84" x2="69.23" y2="-455.53" gradientTransform="translate(-359.71 7.49) rotate(90)" gradientUnits="userSpaceOnUse"><stop offset="0" stop-color="#29d372"/><stop offset="0.44" stop-color="#29dc70"/><stop offset="1" stop-color="#29e26f"/></linearGradient><linearGradient id="linear-gradient-27" x1="88.97" y1="-496.26" x2="90.52" y2="-476.59" xlink:href="#linear-gradient-26"/><radialGradient id="radial-gradient-5" cx="89.63" cy="111.17" r="29.34" gradientTransform="translate(2.62 0.21)" gradientUnits="userSpaceOnUse"><stop offset="0" stop-color="#f45500"/><stop offset="0.05" stop-color="#e85400"/><stop offset="0.22" stop-color="#c95200"/><stop offset="0.39" stop-color="#b05000"/><stop offset="0.58" stop-color="#9f4e00"/><stop offset="0.77" stop-color="#944d00"/><stop offset="1" stop-color="#914d00"/></radialGradient><radialGradient id="radial-gradient-6" cx="95.41" cy="-537.2" r="32.73" gradientTransform="translate(-399.36 8.38) rotate(90) scale(1.02 1.02)" gradientUnits="userSpaceOnUse"><stop offset="0" stop-color="#7077b9"/><stop offset="1" stop-color="#705daf"/></radialGradient><linearGradient id="linear-gradient-28" x1="50.34" y1="-517.07" x2="69.23" y2="-514.76" gradientTransform="translate(-359.71 7.49) rotate(90)" gradientUnits="userSpaceOnUse"><stop offset="0" stop-color="#7068bc"/><stop offset="0.44" stop-color="#7071ba"/><stop offset="1" stop-color="#7077b9"/></linearGradient><linearGradient id="linear-gradient-29" x1="88.97" y1="-555.49" x2="90.52" y2="-535.82" xlink:href="#linear-gradient-28"/><linearGradient id="GradientFill_199" x1="1843.18" y1="777.71" x2="1843.18" y2="787.4" gradientTransform="matrix(0.64, -0.77, 0.77, 0.64, -1627.98, 1048.48)" gradientUnits="userSpaceOnUse"><stop offset="0" stop-color="#e5e00c"/><stop offset="1" stop-color="#989808"/></linearGradient><linearGradient id="GradientFill_199-2" x1="1872.58" y1="777.71" x2="1872.58" y2="787.4" xlink:href="#GradientFill_199"/><linearGradient id="GradientFill_200" x1="1865.06" y1="779.84" x2="1865.06" y2="790.43" gradientTransform="matrix(0.64, -0.77, 0.77, 0.64, -1627.98, 1048.48)" gradientUnits="userSpaceOnUse"><stop offset="0" stop-color="#b1af0d"/><stop offset="1" stop-color="#828201"/></linearGradient><linearGradient id="GradientFill_201" x1="1865.48" y1="790.36" x2="1865.48" y2="781.37" gradientTransform="matrix(0.64, -0.77, 0.77, 0.64, -1627.98, 1048.48)" gradientUnits="userSpaceOnUse"><stop offset="0" stop-color="#626400"/><stop offset="1" stop-color="#828201"/></linearGradient><linearGradient id="GradientFill_202" x1="1865.56" y1="778.18" x2="1865.56" y2="792.88" gradientTransform="matrix(0.64, -0.77, 0.77, 0.64, -1627.98, 1048.48)" gradientUnits="userSpaceOnUse"><stop offset="0" stop-color="#cbc80f"/><stop offset="1" stop-color="#a8a70c"/></linearGradient><linearGradient id="GradientFill_200-2" x1="1850.7" y1="779.84" x2="1850.7" y2="790.43" xlink:href="#GradientFill_200"/><linearGradient id="GradientFill_201-2" x1="1850.27" y1="790.36" x2="1850.27" y2="781.37" xlink:href="#GradientFill_201"/><linearGradient id="GradientFill_202-2" x1="1850.19" y1="780.78" x2="1850.19" y2="793.03" xlink:href="#GradientFill_202"/><linearGradient id="GradientFill_203" x1="1857.88" y1="796.98" x2="1857.88" y2="782.41" gradientTransform="matrix(0.64, -0.77, 0.77, 0.64, -1627.98, 1048.48)" gradientUnits="userSpaceOnUse"><stop offset="0" stop-color="#a7520e"/><stop offset="1" stop-color="#eed907"/></linearGradient><linearGradient id="GradientFill_204" x1="1851.2" y1="773.1" x2="1851.2" y2="787.28" gradientTransform="matrix(0.64, -0.77, 0.77, 0.64, -1627.98, 1048.48)" gradientUnits="userSpaceOnUse"><stop offset="0" stop-color="#b9b70e"/><stop offset="1" stop-color="#959407"/></linearGradient><linearGradient id="GradientFill_202-3" x1="1850.87" y1="771.8" x2="1850.87" y2="786.16" xlink:href="#GradientFill_202"/><linearGradient id="GradientFill_204-2" x1="1864.56" y1="773.1" x2="1864.56" y2="787.28" xlink:href="#GradientFill_204"/><linearGradient id="GradientFill_205" x1="1857.88" y1="774.16" x2="1857.88" y2="786.12" gradientTransform="matrix(0.64, -0.77, 0.77, 0.64, -1627.98, 1048.48)" gradientUnits="userSpaceOnUse"><stop offset="0" stop-color="#4e5000"/><stop offset="0.42" stop-color="#86891a"/><stop offset="1" stop-color="#7b2a06"/></linearGradient><linearGradient id="GradientFill_206" x1="1857.88" y1="773.1" x2="1857.88" y2="787.09" gradientTransform="matrix(0.64, -0.77, 0.77, 0.64, -1627.98, 1048.48)" gradientUnits="userSpaceOnUse"><stop offset="0" stop-color="#ddd80d"/><stop offset="0.35" stop-color="#c3c00f"/><stop offset="1" stop-color="#b66412"/></linearGradient><linearGradient id="GradientFill_207" x1="1857.88" y1="775.34" x2="1857.88" y2="773.66" gradientTransform="translate(-1705.88 -665.91)" gradientUnits="userSpaceOnUse"><stop offset="0" stop-color="#e1dc0d"/><stop offset="1" stop-color="#f4ef86"/></linearGradient><linearGradient id="GradientFill_202-4" x1="1864.89" y1="771.8" x2="1864.89" y2="786.16" xlink:href="#GradientFill_202"/><linearGradient id="GradientFill_203-2" x1="1870.46" y1="751.22" x2="1870.46" y2="746.27" xlink:href="#GradientFill_203"/><linearGradient id="GradientFill_203-3" x1="1845.29" y1="751.22" x2="1845.29" y2="746.27" xlink:href="#GradientFill_203"/><linearGradient id="GradientFill_208" x1="1851.18" y1="758.67" x2="1851.18" y2="751.42" gradientTransform="matrix(0.64, -0.77, 0.77, 0.64, -1627.98, 1048.48)" gradientUnits="userSpaceOnUse"><stop offset="0" stop-color="#9e9e09"/><stop offset="0.32" stop-color="#cec211"/><stop offset="1" stop-color="#f1b60f"/></linearGradient><linearGradient id="GradientFill_208-2" x1="1864.57" y1="758.67" x2="1864.57" y2="751.42" xlink:href="#GradientFill_208"/><linearGradient id="GradientFill_209" x1="1854.76" y1="760.33" x2="1854.76" y2="761.73" gradientTransform="translate(-1715.15 -658.61)" gradientUnits="userSpaceOnUse"><stop offset="0" stop-color="#e4a314"/><stop offset="1" stop-color="#b05d11"/></linearGradient><linearGradient id="GradientFill_210" x1="1854.76" y1="760.92" x2="1854.76" y2="760.5" gradientTransform="translate(-1715.41 -658.49)" gradientUnits="userSpaceOnUse"><stop offset="0" stop-color="#f1b60f"/><stop offset="1" stop-color="#ffeda9"/></linearGradient><linearGradient id="GradientFill_211" x1="1858.04" y1="769.79" x2="1858.04" y2="766.28" gradientTransform="matrix(0.64, -0.77, 0.77, 0.64, -1627.98, 1048.48)" gradientUnits="userSpaceOnUse"><stop offset="0" stop-color="#cbc80f"/><stop offset="1" stop-color="#f4ef86"/></linearGradient><linearGradient id="GradientFill_209-2" x1="1861" y1="760.33" x2="1861" y2="761.73" gradientTransform="translate(-1717.41 -663.43)" xlink:href="#GradientFill_209"/><linearGradient id="GradientFill_210-2" x1="1861" y1="760.92" x2="1861" y2="760.5" gradientTransform="translate(-1717.67 -663.3)" xlink:href="#GradientFill_210"/><linearGradient id="GradientFill_212" x1="1857.88" y1="775.93" x2="1857.88" y2="783.5" gradientTransform="translate(-1702.41 -667.56)" gradientUnits="userSpaceOnUse"><stop offset="0" stop-color="#c3c00f"/><stop offset="0.35" stop-color="#b1af0d"/><stop offset="1" stop-color="#a56e0e"/></linearGradient><radialGradient id="radial-gradient-7" cx="95.41" cy="-595.55" r="32.73" gradientTransform="translate(-399.36 8.38) rotate(90) scale(1.02 1.02)" gradientUnits="userSpaceOnUse"><stop offset="0" stop-color="#bf82ff"/><stop offset="1" stop-color="#bf68ff"/></radialGradient><linearGradient id="linear-gradient-30" x1="50.34" y1="-576.54" x2="69.23" y2="-574.22" gradientTransform="translate(-359.71 7.49) rotate(90)" gradientUnits="userSpaceOnUse"><stop offset="0" stop-color="#bf73ff"/><stop offset="0.44" stop-color="#bf7cff"/><stop offset="1" stop-color="#bf82ff"/></linearGradient><linearGradient id="linear-gradient-31" x1="88.97" y1="-614.95" x2="90.52" y2="-595.29" xlink:href="#linear-gradient-30"/><radialGradient id="radial-gradient-8" cx="37.29" cy="-566.26" r="32.73" gradientTransform="translate(-399.36 8.38) rotate(90) scale(1.02 1.02)" gradientUnits="userSpaceOnUse"><stop offset="0" stop-color="#fe6300"/><stop offset="1" stop-color="#d05400"/></radialGradient><linearGradient id="linear-gradient-32" x1="-8.91" y1="-546.68" x2="9.99" y2="-544.37" gradientTransform="translate(-359.71 7.49) rotate(90)" gradientUnits="userSpaceOnUse"><stop offset="0" stop-color="#d05400"/><stop offset="0.36" stop-color="#e75c00"/><stop offset="0.72" stop-color="#f86100"/><stop offset="1" stop-color="#fe6300"/></linearGradient><linearGradient id="linear-gradient-33" x1="29.73" y1="-585.1" x2="31.27" y2="-565.43" xlink:href="#linear-gradient-32"/></defs><title>box-five</title><rect class="cls-1" y="76.01" width="59.23" height="59.24"/><polygon class="cls-2" points="16.2 59.24 0 76.01 59.23 76.01 75.43 59.24 16.2 59.24"/><polygon class="cls-3" points="75.43 59.24 59.23 76.01 59.23 135.25 75.43 118.48 75.43 59.24"/><path class="cls-4" d="M8.92,91.15a4.3,4.3,0,0,0,5.17,1.56C16,92,16.9,90.08,16,88.49a4.3,4.3,0,0,0-5.17-1.56C8.87,87.67,8,89.56,8.92,91.15Z"/><path class="cls-5" d="M12.71,104.69a2.67,2.67,0,0,1,2,.47,2.27,2.27,0,0,1,.32-.78,5.92,5.92,0,0,0,.31-.86c.15-.39.29-.78.42-1.17l0-.08L13,100.66l-.06.16c-.33.92-.66,1.85-1,2.77a4.61,4.61,0,0,1-.6,1.12,2.67,2.67,0,0,1-.75.59l-.26.16C11.26,105.71,12,105,12.71,104.69Z"/><path class="cls-6" d="M18.86,106.72a1.39,1.39,0,0,0-1.68-.45,1.42,1.42,0,0,0-.37.21c-.78-.19-1.7-.28-2-.9a.72.72,0,0,1-.07-.42,2.67,2.67,0,0,0-2-.47c-.72.36-1.45,1-2.41.78-1.11.63-2.57.9-3.69,1.53a8.22,8.22,0,0,0-2,1.5c-.36.38-.95.84-1.09,1.34a1.84,1.84,0,0,0-.79.11c-.71.27-1.05.91-.76,1.43a1.51,1.51,0,0,0,1.83.46c.7-.26,1-.88.77-1.39a9.09,9.09,0,0,0,1.09-1.23,8.13,8.13,0,0,1,2.12-1.84c.28-.16,1.91-.92,1.92-.08,0,.24-.39.53-.53.73a9.27,9.27,0,0,0-.67,1.08,5.72,5.72,0,0,0-.71,2.25,1.73,1.73,0,0,0-.38.09A1.11,1.11,0,0,0,6.7,113a1.6,1.6,0,0,0,1.93.57A1.11,1.11,0,0,0,9.35,112a1.16,1.16,0,0,0-.19-.24,7,7,0,0,0,.75-2.39,5.13,5.13,0,0,1,.82-1.61c.29-.43.45-.79,1-1a3.5,3.5,0,0,1,.49,2,5.68,5.68,0,0,0,.16,1.14c-.56.33-.81.87-.56,1.3a1.63,1.63,0,0,0,2,.39c.79-.3,1.19-1,.9-1.47a1.3,1.3,0,0,0-1.15-.53c0-.14,0-.29,0-.44,0-.59-.37-2,.25-2.46.32-.22.75-.05,1.08.07a13.5,13.5,0,0,0,1.33.42l.24.06a.79.79,0,0,0,.1.32,1.39,1.39,0,0,0,1.68.45C18.84,107.81,19.14,107.21,18.86,106.72Z"/><path class="cls-7" d="M39.64,94.24s1.66.65,3.37,1.45a21.31,21.31,0,0,1-1.47-2.41A7.44,7.44,0,0,0,39.64,94.24Z"/><path class="cls-8" d="M47.64,98.55S46.7,95,44,93.55a13.48,13.48,0,0,1,.87,3.12c.35.2.66.39.92.58Z"/><path class="cls-9" d="M43.25,93.21a2.83,2.83,0,0,0-1.71.08A21.31,21.31,0,0,0,43,95.7c.66.31,1.31.64,1.89,1A13.48,13.48,0,0,0,44,93.55,4.88,4.88,0,0,0,43.25,93.21Z"/><path class="cls-10" d="M8.55,98.62a9.65,9.65,0,0,1,1.3.53l.1,0c2.75-.53,5.51.13,8.26-.79a8.14,8.14,0,0,0,.89-.22c-5.77,0-11.62-.42-16.85-2.38C3.66,97,8.37,98.64,8.55,98.62Z"/><path class="cls-11" d="M20,97.42c.29-2.92-2-5.52-3.93-8a38,38,0,0,0-4.36.57,27.81,27.81,0,0,0-5.7.86c-3.23.82-4.75,3.12-4.1,4.47a1.5,1.5,0,0,0,.34.42c5.23,2,11.08,2.37,16.85,2.38C19.57,98,20,97.74,20,97.42Z"/><path class="cls-12" d="M47.56,99.82a1.69,1.69,0,0,0,.09-1.26h0l-1.82-1.31c-1.82-1.31-8.9-4.13-8.9-4.13A21.48,21.48,0,0,0,30,92a11.67,11.67,0,0,1-7.87-1.82c-1.37-.84-3.88-.91-6.1-.75,2,2.48,4.21,5.09,3.93,8,0,.53-1.13.79-1.78.93-2.75.93-5.51.26-8.26.79l-.1,0c.84.38,2,.93,3.12,1.51l2.83,1.61a7.63,7.63,0,0,1,1,.73A32.75,32.75,0,0,0,21,105.89a31.07,31.07,0,0,1-3.11-5.31,9.76,9.76,0,0,1,1.64.07c-.28-.3-.07-.55-.24-.91,8.87,0,16.83,1.82,25.22,4.13l.76-.51A5.38,5.38,0,0,0,47.56,99.82Z"/><path class="cls-13" d="M19.55,100.65c4.41.56,7.19,4.09,9.81,7,0-.17,0-.26,0-.26.8.87,6.76-.27,7.37-.39,4-1.06,5.86-1.85,7.78-3.07-8.39-2.31-16.18-4.13-25-4.13C19.66,100.1,19.27,100.35,19.55,100.65Z"/><path class="cls-14" d="M47.4,102.76c-.42-1-.93-1.65-1.94-.79a32.37,32.37,0,0,0-8.58,9.68c1.75-1,3.79-1.6,5.62-2.59l-.68.27S46.85,105.24,47.4,102.76Z"/><path class="cls-15" d="M36.21,116.17a18.6,18.6,0,0,0-2.73.39,2,2,0,0,0-1.76-.52c-.95.12-1.62.71-1.5,1.32s1,1,1.93.87a1.74,1.74,0,0,0,1.47-.93c.94.17,2.43.28,3.12.5,1.12.34,2,.92,1.32,1.9a2.13,2.13,0,0,0-.29.65h0c-.9.12-1.52.78-1.38,1.48a1.62,1.62,0,0,0,1.88,1.06c.9-.12,1.52-.78,1.38-1.48a1.08,1.08,0,0,0-.2-.44c.14-.14.29-.29.43-.46A6.48,6.48,0,0,0,36.74,117C36.7,116.88,36.36,116.54,36.21,116.17Z"/><path class="cls-16" d="M36.16,115.65c.72-.61,1.6-.4,2.45-.35-.31-.16-.74-.37-1.18-.54a23.57,23.57,0,0,1-2.6-1.27,1,1,0,0,0-.81,1,1.23,1.23,0,0,0,1.43.76h.06a2.67,2.67,0,0,0,.64.77A.6.6,0,0,1,36.16,115.65Z"/><path class="cls-17" d="M36.94,111.53A32.54,32.54,0,0,1,45.46,102c1-.86,1.52-.21,1.94.79a1.59,1.59,0,0,0,0-.72,2.72,2.72,0,0,0-3.05-1.95c-3.08,3.79-8.19,7.19-10.52,11.27a1.51,1.51,0,0,0,.35,1.61c.22.19.43.35.64.51l.72.39A3.08,3.08,0,0,1,36.94,111.53Z"/><path class="cls-18" d="M44.61,115.73c-1.47-.13-5.52-.17-5.52-.17l-.48-.25c-.85,0-1.73-.26-2.45.35a.6.6,0,0,0,0,.38l.16.13h-.11c.16.37.5.71.53.87a6.48,6.48,0,0,1,3.11,3.46c.81-.93,1.6-2.12,2.33-2.21,1-.13,4,.58,7.08-2.31s8.5-6.28,8.2-7.8a11.36,11.36,0,0,0-4,1.38C52.79,110.14,46,115.86,44.61,115.73Z"/><path class="cls-19" d="M51.42,105.92c-3.07.85-7.3,2.49-8.93,3.14-1.83,1-3.87,1.56-5.62,2.59l.07-.12a3.08,3.08,0,0,0-1.39,2.34,14.18,14.18,0,0,0,1.88.89,8,8,0,0,0,4.43-.59c3.08-1.09,11.66-4.66,11.66-4.66l-.06,0a11.36,11.36,0,0,1,4-1.38.72.72,0,0,0,0-.07C56.95,106.62,55.3,104.84,51.42,105.92Z"/><path class="cls-20" d="M8.19,94.34a4.31,4.31,0,0,0,5.17,1.56c2-.74,2.81-2.63,1.91-4.22a4.3,4.3,0,0,0-5.17-1.56C8.15,90.85,7.29,92.74,8.19,94.34Z"/><path class="cls-21" d="M8.38,94.39a3.91,3.91,0,0,0,4.7,1.41c1.78-.67,2.55-2.39,1.73-3.84a3.91,3.91,0,0,0-4.7-1.42C8.33,91.22,7.56,92.94,8.38,94.39Z"/><path class="cls-22" d="M8.47,94.42a3.65,3.65,0,0,0,4.38,1.32,2.51,2.51,0,0,0,1.61-3.58,3.65,3.65,0,0,0-4.38-1.32C8.43,91.47,7.71,93.07,8.47,94.42Z"/><path class="cls-23" d="M40.08,102.54a30,30,0,0,1-3-.63c-.63-.16-1.26-.28-1.87-.49-.3-.1-.61-.12-.92-.19s-.68-.2-1-.27c-.92-.18-1.82-.33-2.75-.45-.58-.08-1.17-.13-1.74-.23s-1.08-.31-1.64-.45A8.84,8.84,0,0,0,25,99.6c-.51,0-1,.13-1.52.08-.37,0-.72-.19-1.09-.24a17.73,17.73,0,0,0-2.07,0,2.87,2.87,0,0,0-1.49.38c-.3.17-.43.34-.3.62a.86.86,0,0,0,.59.44c.3.1.41.06.49-.09s-.23-.62,0-.62a5.1,5.1,0,0,1,2-.13l0,0a1.44,1.44,0,0,1,.45.17c.12.08.13.19.19.31s.18.5.3.73.42.74.7.64.05-.77,0-.94c-.06-.35-.19-.6.37-.6s1,0,1.18.57.19,1.11.36,1.65a5.45,5.45,0,0,0,.52,1.28c.14.23.51.77.93.72s0-.55-.05-.69a10.11,10.11,0,0,1-.46-1.09,3.41,3.41,0,0,1-.11-1.15,1.15,1.15,0,0,1,.56-1.13,1.49,1.49,0,0,1,1.95.48,3.65,3.65,0,0,1,.23,2.84A3.16,3.16,0,0,0,29,106a.75.75,0,0,0,.76.32c.31-.05.28-.19.31-.45.08-.71,0-1.44.06-2.16a6.18,6.18,0,0,1,.46-2c.2-.45.54-.93,1.19-.69,1.15.42,1.05,1.62,1,2.49,0,.35-.71,3-.09,3,.33,0,.64-.48.75-.68.22-.4.44-.8.63-1.2.35-.74.54-1.51.9-2.23.15-.31.5-.58.85-.26a1.33,1.33,0,0,1,.32.88c0,.55,0,1.11,0,1.66,0,.23,0,.77.24.94s.42-.12.55-.3a11.13,11.13,0,0,0,.67-1,7.31,7.31,0,0,1,.31-.73c.49-.71,1.63-.39,2.42-.36.28,0,.72,0,.79-.31S40.35,102.58,40.08,102.54Z"/><path class="cls-24" d="M44.37,100.1a3.8,3.8,0,0,0-2.32,1s-7.37,6.74-8.2,10.26C36.17,107.29,41.28,103.89,44.37,100.1Z"/><path class="cls-25" d="M20.48,117.77c-.56-.34.21-1.18.33-2l-.38.21a19.21,19.21,0,0,0-1.33-1.59.73.73,0,0,0,.05-.8,1.24,1.24,0,0,0-1.5-.42.86.86,0,0,0-.58,1.2,1.19,1.19,0,0,0,1.24.48A18.72,18.72,0,0,0,19.93,117s-4.34-.76-5.75-.18l-.29.14a1.7,1.7,0,0,0-1.16,0c-.69.26-1,.88-.71,1.4a1.47,1.47,0,0,0,1.77.46,1.11,1.11,0,0,0,.81-1.08c1.57-.85,5.1.48,5.1.48a6,6,0,0,0-4.79,3.44l0,0a1.27,1.27,0,0,0-.42.08A.83.83,0,0,0,14,123a1.2,1.2,0,0,0,1.44.44.83.83,0,0,0,.52-1.18.9.9,0,0,0-.22-.25,5.07,5.07,0,0,1,.93-1.61c1.09-1.52,4.24-1.24,4.24-1.24a9.3,9.3,0,0,0,0,3.2,2.14,2.14,0,0,0,.29.61.87.87,0,0,0-.28,1.12,1.43,1.43,0,0,0,1.73.45c.67-.25,1-.86.71-1.36a1.39,1.39,0,0,0-1.56-.5v0c-.95-1.68.43-4.24.43-4.24l.78-.62A4.37,4.37,0,0,1,20.48,117.77Z"/><path class="cls-26" d="M27.45,107l-.33-.28c-2.81-2.17-6.43-3.46-8.52-6.09h-.69A31.07,31.07,0,0,0,21,105.89c1.6,1,3,1.74,3,1.74l-.1.43A5.47,5.47,0,0,1,27.45,107Z"/><path class="cls-27" d="M23.91,108.07c-.36,1.45-1.49,6.08-1.62,6.51s-1,.9-1.49,1.2c-.11.82-.89,1.66-.33,2a4.37,4.37,0,0,0,2.42,0c.81-.65,2.17-1.77,3.66-3.14s2.26-4,2.58-5.69a8.91,8.91,0,0,0-1.7-2A5.47,5.47,0,0,0,23.91,108.07Z"/><path class="cls-28" d="M18.6,100.58c2.09,2.62,5.71,3.92,8.52,6.09a9.12,9.12,0,0,1,2,2.29c.11-.59.18-1.08.21-1.36C26.56,104.54,23.57,100.71,18.6,100.58Z"/><path class="cls-29" d="M10.54,94.72l.8-3.39A4.38,4.38,0,0,0,10.54,94.72Z"/><ellipse class="cls-30" cx="12.44" cy="92.15" rx="0.36" ry="0.3"/><path class="cls-30" d="M15.81,90.28h.34c.22,0,.54,0,1,0s.91.06,1.48.12a16.26,16.26,0,0,1,1.89.32,8.42,8.42,0,0,1,2.13.77l.26.15.24.14.24.11.26.1a6.76,6.76,0,0,0,1.18.28c.83.13,1.73.16,2.65.21s1.86.09,2.8.18a19.18,19.18,0,0,1,2.78.48,12.29,12.29,0,0,1,1.31.41l1.21.45,2.29.87,2,.79.91.36.81.34,1.31.55.84.36.3.13-.31-.1L42.86,97l-1.36-.46-.84-.29L39.72,96l-2.09-.71-2.33-.81L34.08,94c-.41-.14-.82-.27-1.25-.37a18.62,18.62,0,0,0-2.68-.45c-.91-.1-1.84-.15-2.76-.2a23.83,23.83,0,0,1-2.72-.26,6.72,6.72,0,0,1-1.28-.34l-.3-.13-.29-.15L22.54,92l-.23-.14a8.45,8.45,0,0,0-2-.8c-.65-.18-1.27-.32-1.82-.42s-1-.17-1.45-.22l-.94-.1Z"/><rect class="cls-31" x="59.22" y="76.01" width="59.23" height="59.24"/><polygon class="cls-32" points="75.42 59.24 59.22 76.01 118.45 76.01 134.65 59.24 75.42 59.24"/><polygon class="cls-33" points="134.65 59.24 118.45 76.01 118.45 135.25 134.65 118.48 134.65 59.24"/><path class="cls-34" d="M76.72,118.5a12.53,12.53,0,0,0,2.57,2.09,13,13,0,0,0,3,1.34l6.15-11.65,7.77-14.72L85.3,108.37Z"/><path class="cls-35" d="M76.72,118.5A12.5,12.5,0,0,0,78,119.7l15.65-19.43,2.49-4.71L85.3,108.37Z"/><path class="cls-35" d="M105.4,96a4.79,4.79,0,0,1,2.1,1.36c1-1.36,3-1.63,4.45-2.44a.92.92,0,0,1,.84-.16l0,.55a1.37,1.37,0,0,1,.82-.31l0,.43a5.08,5.08,0,0,1,2,.38c-.35.11-.66.24-.77.49a2.28,2.28,0,0,1,.94.86,13.12,13.12,0,0,1-2.2-1.26l-.14.32a.84.84,0,0,1-.68-.34l-.14.31a.91.91,0,0,1-.68-.49c-1.74.5-2.9,2.15-4.46,2.51a3.77,3.77,0,0,1-2.21-.71Z"/><path class="cls-35" d="M91.77,87.65a4.81,4.81,0,0,0-2.17-1.26c.91-1.4.33-3.25.5-4.87a.81.81,0,0,0-.19-.8L89.4,81a1.22,1.22,0,0,0,0-.84l-.4.2a4.66,4.66,0,0,0-1.17-1.54,1,1,0,0,1-.15.87,2.39,2.39,0,0,0-1.22-.46,13,13,0,0,0,2.11,1.39l-.24.26a.82.82,0,0,0,.61.45l-.24.25a.93.93,0,0,0,.75.39c.24,1.72-.86,3.41-.56,4.91a3.55,3.55,0,0,0,1.59,1.62Z"/><path class="cls-35" d="M104.33,108.21a9.51,9.51,0,0,1,2.94,3.21c-.68,1.23-.71,2.54-2,3.7.22.06.49.16.78.27l-.39.42a.66.66,0,0,1,.75.25l-.32.36a3.23,3.23,0,0,1,1.5,1.24c-.4-.12-.88-.22-.91,0s.29.86.34,1.44a4,4,0,0,1-1.2-2.34l-.32.36a1.18,1.18,0,0,1-.31-.75l-.22.22a2.58,2.58,0,0,1-.82-1.62c.06-.92,1.71-2.16,2.26-3.39a5.7,5.7,0,0,1-2.45-2.1Z"/><path class="cls-35" d="M80.87,93.79a10.18,10.18,0,0,0-4.28-1.23c-.9,1.1-2.13,1.66-2.69,3.3-.15-.16-.35-.36-.58-.56l-.24.51c0-.28-.21-.45-.55-.55l-.22.42a3.34,3.34,0,0,0-1.81-.8c.27.3.57.67.42.77s-.94.11-1.51.3a4.5,4.5,0,0,0,2.73.08l-.22.42a1.33,1.33,0,0,0,.84,0l-.12.28a2.89,2.89,0,0,0,1.89,0c.86-.44,1.36-2.38,2.31-3.36a5.93,5.93,0,0,0,3,1.26Z"/><path class="cls-35" d="M98.94,117.25c.46,1.32.32,4.8,0,4.89-1,1.06-4,5.19-5.79,6,.2.11.65.33.9.5l-.48.33c.28,0,.5.12.67.41l-.39.29A3.16,3.16,0,0,1,95,131.21c-.35-.2-.79-.41-.87-.24s.07.9,0,1.48a4,4,0,0,1-.6-2.56l-.39.29a1.18,1.18,0,0,1-.12-.8l-.26.16a2.58,2.58,0,0,1-.41-1.77c.28-.89,5.18-5.13,6-6.22a2.74,2.74,0,0,1-.84-2.7Z"/><path class="cls-35" d="M74.57,102.26c-1.45.14-4.72,1.7-4.69,2-.62,1.26-3.33,5.58-3.35,7.5-.19-.13-.58-.43-.85-.58l-.11.55c-.07-.27-.32-.39-.67-.41l-.11.46a3.44,3.44,0,0,0-2-.37c.34.23.72.52.59.65s-.89.31-1.41.62a4.57,4.57,0,0,0,2.7-.53l-.11.46a1.34,1.34,0,0,0,.82-.22l0,.29a2.92,2.92,0,0,0,1.86-.37c.74-.61,2.77-6.61,3.47-7.77a3.08,3.08,0,0,0,2.93-.38Z"/><path class="cls-36" d="M86.93,89.87l9.24,5.68L84.76,109.18l-9,10.76c-4.64-5.08-4.67-14,.39-21.43a22.58,22.58,0,0,1,10.79-8.63Zm14.77,24.34a21,21,0,0,0,3.8-12.93l-9.33-5.73-8.32,15.52-6.58,12.28C88.05,125.36,96.61,121.73,101.69,114.22Z"/><path class="cls-37" d="M87,92a20,20,0,0,0-9.57,7.65c-3.58,5.29-5.28,13.21-1.45,16.29C79.45,118.75,74.41,105.31,87,92Z"/><path class="cls-38" d="M81.27,123.36c6.79,2,15.34-1.63,20.43-9.14a21,21,0,0,0,3.8-12.93l-2.76-1.7a21,21,0,0,1-3.8,12.93c-4.27,6.31-11,9.88-17,9.68Z"/><path class="cls-39" d="M81.27,123.36c6.79,2,15.34-1.63,20.43-9.14a21,21,0,0,0,3.8-12.93l-1-.63a21,21,0,0,1-3.8,12.93C95.89,120.67,88,124.3,81.45,123Z"/><path class="cls-35" d="M103.78,105.5c-.48,1.73,0,2.89-2.39,2.76s-4.07-1.24-3.83-2.36.26-2.8,1.56-3.19a6.46,6.46,0,0,1,3.16-.34,2.68,2.68,0,0,1,1.54,1.54A3.34,3.34,0,0,1,103.78,105.5Z"/><path class="cls-35" d="M94.58,112.46c-1.46,2.25-2.11,2.72-2.95,2.14a2.72,2.72,0,0,1-1.35-2c-.1-.86-.15-1.5.33-2a3.86,3.86,0,0,1,2.21-1.05c.4.11,1.93.58,2.13,1.18S94.58,112.46,94.58,112.46Z"/><path class="cls-35" d="M90.33,119.42c-.27,1,0,1.63-1.34,1.55s-2.29-.69-2.16-1.33.15-1.58.88-1.79a3.63,3.63,0,0,1,1.78-.19,1.51,1.51,0,0,1,.87.87A1.88,1.88,0,0,1,90.33,119.42Z"/><path class="cls-35" d="M108.87,85.16c-2,1.88-4.55,2.59-7.25,3.09,5.38-2.16,5.69-3,7-4C109.11,84,109.37,84.6,108.87,85.16Z"/><path class="cls-35" d="M100.83,80.21c-1,2.47-.6,5,0,7.57-.15-5.56.55-6.19,1-7.69C101.8,79.55,101.16,79.55,100.83,80.21Z"/><path class="cls-35" d="M94.94,87a12.37,12.37,0,0,0-8,2.85,112.88,112.88,0,0,0,18.53,11.39,11,11,0,0,0-.59-8.16,3.29,3.29,0,0,0,.43-2.5,1.27,1.27,0,0,0,1-.52,1.39,1.39,0,0,0-.64-1.91,1.72,1.72,0,0,0-1.71-.11,7.65,7.65,0,0,0-1.73-1.44,7.94,7.94,0,0,0-2.09-.91,1.7,1.7,0,0,0-2.9-1.2,1.14,1.14,0,0,0-.08,1.1A3.61,3.61,0,0,0,94.94,87Z"/><path class="cls-40" d="M95.67,88a8.46,8.46,0,0,0-5.31,1.38c-1.34,1.13-1.76,2.34,1.41,1.49,2.29-.61,4.94-1.23,5.55-1.91,1.6-1.4,2.24-2.46.86-2.52A4.88,4.88,0,0,0,95.67,88Z"/><path class="cls-41" d="M92.51,89.72c-.41-.43-2.57-.17-2,1.35C90.77,91.6,93,91.12,92.51,89.72Z"/><path class="cls-35" d="M91.24,97.2c-1.48,2.28-2.14,2.75-3,2.17a2.75,2.75,0,0,1-1.37-2.06c-.1-.87-.15-1.52.34-2a3.9,3.9,0,0,1,2.24-1.06c.41.11,1.95.59,2.16,1.19S91.24,97.2,91.24,97.2Z"/><path class="cls-35" d="M83,99.58c-.27,1,0,1.63-1.34,1.55s-2.29-.69-2.16-1.33.15-1.58.88-1.79a3.63,3.63,0,0,1,1.78-.19,1.51,1.51,0,0,1,.87.87A1.88,1.88,0,0,1,83,99.58Z"/><path class="cls-35" d="M79.11,107.93c-1.46,2.25-2.11,2.72-2.95,2.14a2.72,2.72,0,0,1-1.35-2c-.1-.86-.15-1.5.33-2A3.86,3.86,0,0,1,77.36,105c.4.11,1.93.58,2.13,1.18S79.11,107.93,79.11,107.93Z"/><path class="cls-42" d="M78.2,109.25a35.07,35.07,0,0,1,.83-3.58,7,7,0,0,0-1.67-.69A3.86,3.86,0,0,0,75.15,106c-.48.51-.43,1.14-.33,2a2.72,2.72,0,0,0,1.35,2C76.8,110.51,77.33,110.35,78.2,109.25Z"/><path class="cls-43" d="M78.17,107.74c-1.88-.19-6.51,4.55-1.88,6.84C77.88,115.36,82.27,109.95,78.17,107.74Z"/><path class="cls-44" d="M78.17,107.74a4,4,0,0,0-2.79,1.64,4,4,0,0,0,.78.69c.79.55,1.43.16,2.74-1.82A4,4,0,0,0,78.17,107.74Z"/><rect class="cls-45" x="118.45" y="76.01" width="59.23" height="59.24"/><polygon class="cls-46" points="134.65 59.24 118.45 76.01 177.68 76.01 193.88 59.24 134.65 59.24"/><polygon class="cls-47" points="193.88 59.24 177.68 76.01 177.68 135.25 193.88 118.48 193.88 59.24"/><path class="cls-48" d="M152.72,127.12a2,2,0,0,1,.53,2.24,3.46,3.46,0,0,1-.47.77c-.2.24-.17,0-.19-.16,0-.47-1.41,1.47-.83,2.66a5.6,5.6,0,0,1-.47-.77,1.91,1.91,0,0,1-.19-1,2.89,2.89,0,0,1,.44-1.3c.45-.77,1-1.64.73-2C152.13,127.36,152.89,127.1,152.72,127.12Z"/><path class="cls-49" d="M144.06,121.5a1.19,1.19,0,0,0-.27.89c.27,1,4.56,3.65,6.74,4.8a10.25,10.25,0,0,0,1.33.62.56.56,0,0,0,.7-.11l.32-.35c.54-.58.23-.49-.36-.82a31.72,31.72,0,0,1-7.78-4.49l0-.59Z"/><path class="cls-50" d="M143.45,121l1.72-4.89a1,1,0,0,1,1.27-.68l.09,0a1,1,0,0,1,.56,1.35l-1.72,4.88a1,1,0,0,1-1.27.68l-.09,0A1,1,0,0,1,143.45,121Z"/><path class="cls-51" d="M149.22,88.88a1.69,1.69,0,0,1-.46-1.93,3.18,3.18,0,0,1,.4-.66c.17-.2.15,0,.16.14,0,.41,1.22-1.27.72-2.29a4.59,4.59,0,0,1,.4.66,1.7,1.7,0,0,1,.17.87,2.46,2.46,0,0,1-.39,1.11c-.39.67-.84,1.41-.62,1.72S149.07,88.9,149.22,88.88Z"/><path class="cls-52" d="M150.84,93.1a1,1,0,0,0,.55-.44c.26-.76-.08-1.62-.95-3.29a7.21,7.21,0,0,0-.56-1c-.13-.17-.25-.29-.49-.24l-.24.07c-.59.13-.5.32-.26.68a9.33,9.33,0,0,1,1.63,3.2c.07.22,0,0,.1.34l-.24.38Z"/><path class="cls-53" d="M150.07,92l-1.14,4a.82.82,0,0,0,.49,1l.07,0a.82.82,0,0,0,1-.63l1.14-4a.84.84,0,0,0-.49-1.06l-.07,0A.82.82,0,0,0,150.07,92Z"/><path class="cls-54" d="M162.5,97.77a1.69,1.69,0,0,0,2,.08,2.86,2.86,0,0,0,.58-.52c.17-.2,0-.16-.16-.14-.4,0,1-1.44,2.1-1.14a5.2,5.2,0,0,0-.72-.27,1.73,1.73,0,0,0-.89,0,2.47,2.47,0,0,0-1,.59c-.58.5-1.22,1.1-1.56.94C162.61,97.23,162.51,97.91,162.5,97.77Z"/><path class="cls-55" d="M157.9,94.83a.88.88,0,0,1,.56-.43c.8-.09,2.21.65,3.63,1.88a8.18,8.18,0,0,1,.81.77.43.43,0,0,1,.12.53l-.16.33c-.26.55,0,.8-.4.49a11.84,11.84,0,0,0-4-3.22l-.43.14Z"/><path class="cls-53" d="M157.75,94.29l-3.6,2.11a.82.82,0,0,0-.35,1.11l0,.07a.84.84,0,0,0,1.15.24l3.6-2.1a.83.83,0,0,0,.35-1.12l0-.06A.84.84,0,0,0,157.75,94.29Z"/><path class="cls-51" d="M132.08,109.65a1.7,1.7,0,0,0-2-.09,3.24,3.24,0,0,0-.57.52c-.17.2,0,.16.16.14.4,0-1,1.44-2.12,1.15a5.84,5.84,0,0,0,.73.27,1.79,1.79,0,0,0,.89,0,2.46,2.46,0,0,0,1-.59c.58-.5,1.23-1.1,1.57-.94C132,110.19,132.07,109.51,132.08,109.65Z"/><path class="cls-52" d="M136.53,110.44a1,1,0,0,1-.33.62c-.7.41-1.6.23-3.41-.31a7.21,7.21,0,0,1-1-.37c-.2-.09-.33-.19-.33-.43l0-.24c0-.61.23-.55.63-.39a9.18,9.18,0,0,0,3.45,1l.35,0,.33-.3Z"/><path class="cls-53" d="M135.27,109.9,139,108a.82.82,0,0,1,1.13.28l0,.07a.82.82,0,0,1-.44,1.08L136,111.33a.83.83,0,0,1-1.13-.29l0-.07A.82.82,0,0,1,135.27,109.9Z"/><path class="cls-54" d="M143.32,121a1.69,1.69,0,0,1,.46,1.92,3,3,0,0,1-.4.67c-.17.2-.15,0-.16-.14,0-.41-1.22,1.27-.72,2.28a4.65,4.65,0,0,1-.4-.66,1.71,1.71,0,0,1-.17-.87,2.51,2.51,0,0,1,.39-1.13c.38-.67.85-1.41.63-1.71S143.46,121,143.32,121Z"/><path class="cls-55" d="M139.56,117a.89.89,0,0,0-.32.63c.06.79,1.07,2,2.54,3.2a7,7,0,0,0,.91.65.43.43,0,0,0,.54,0l.29-.22c.49-.37.79-.16.41-.49a11.84,11.84,0,0,1-3.92-3.3l.05-.44Z"/><path class="cls-53" d="M139,117l1.39-3.93a.82.82,0,0,1,1-.56l.08,0a.84.84,0,0,1,.45,1.09l-1.38,3.94a.83.83,0,0,1-1,.55l-.07,0A.85.85,0,0,1,139,117Z"/><path class="cls-48" d="M170.28,105.84a2,2,0,0,0,2.3.11,3.56,3.56,0,0,0,.67-.61c.2-.24,0-.17-.19-.16-.47,0,1.18-1.67,2.45-1.33a5.6,5.6,0,0,0-.85-.31,2,2,0,0,0-1,0,3,3,0,0,0-1.19.68c-.68.59-1.42,1.28-1.82,1.09C170.41,105.21,170.29,106,170.28,105.84Z"/><path class="cls-56" d="M163.12,98.4a1.17,1.17,0,0,1,.82-.43c1,.07,4.45,3.78,6,5.7a9.15,9.15,0,0,1,.87,1.18.56.56,0,0,1,0,.71l-.28.38c-.46.64-.44.31-.88-.19A31.11,31.11,0,0,0,163.78,99l-.58.08Z"/><path class="cls-50" d="M162.52,97.9,158,100.51a1,1,0,0,0-.44,1.38l.05.09a1,1,0,0,0,1.44.29l4.46-2.61a1,1,0,0,0,.44-1.38l-.05-.09A1,1,0,0,0,162.52,97.9Z"/><path class="cls-57" d="M161.42,102c3.24,1.47,6.16,4.85,7.84,7.89,1.19,2.14,3.22,5.93,1.38,8.15-1,1.17-2.44.71-3-.59-.38-.85-.39-3.37-.48-4.38C166.9,110.64,163,103.36,161.42,102Z"/><path class="cls-58" d="M164.49,104a4.08,4.08,0,0,1-.48.52,5,5,0,0,1-.48.37c.08.13.16.26.23.4a4.24,4.24,0,0,0,.56-.43,4.73,4.73,0,0,0,.52-.56l-.35-.3Zm6.66,10.21a2.31,2.31,0,0,1-.25.22,7.64,7.64,0,0,1-3.58,1.6c0,.16,0,.31.05.46a8.26,8.26,0,0,0,3.83-1.7l.06-.05a4,4,0,0,0-.11-.52ZM169.31,110l-.07.12a3.83,3.83,0,0,1-.49.59,6.22,6.22,0,0,1-1.88,1.24c.05.15.09.31.12.44a6.47,6.47,0,0,0,2.08-1.36,4.44,4.44,0,0,0,.48-.57l-.26-.47ZM167,106.64a2.84,2.84,0,0,1-.34.52,4.79,4.79,0,0,1-1.34,1.13l.2.42a5.24,5.24,0,0,0,1.5-1.24,4.93,4.93,0,0,0,.3-.43Z"/><path class="cls-59" d="M164.28,103.85a3.66,3.66,0,0,1-.46.49,4.16,4.16,0,0,1-.44.34c.08.13.16.26.23.4a4.56,4.56,0,0,0,.52-.4,4.28,4.28,0,0,0,.5-.54l-.35-.3Zm6.79,10.08a3.11,3.11,0,0,1-.35.32,7.61,7.61,0,0,1-3.42,1.57c0,.16,0,.31,0,.47a8.32,8.32,0,0,0,3.67-1.68l.18-.16c0-.18-.09-.35-.13-.52Zm-1.91-4.19a1.84,1.84,0,0,1-.11.19,3.84,3.84,0,0,1-.49.59,6,6,0,0,1-1.77,1.19c0,.16.09.31.14.45a6.58,6.58,0,0,0,2-1.31,3.77,3.77,0,0,0,.53-.62c-.05-.11-.12-.21-.17-.3l-.09-.17Zm-2.32-3.33a2.88,2.88,0,0,1-.35.54,4.78,4.78,0,0,1-1.27,1.08l.21.42a5.3,5.3,0,0,0,1.43-1.21,3.6,3.6,0,0,0,.31-.44Z"/><path class="cls-60" d="M147.3,119.13c2.06,2.9,5.93,5.13,9.23,6.2,2.33.76,6.43,2,8.26-.18,1-1.18.24-2.54-1.14-2.87-.9-.22-3.39.26-4.39.36C156.79,122.88,148.89,120.4,147.3,119.13Z"/><path class="cls-61" d="M149.85,121.78a4,4,0,0,0,.42-.57,5.14,5.14,0,0,0,.28-.55l.43.16a4,4,0,0,1-.31.63,4.58,4.58,0,0,1-.45.61l-.37-.28Zm11.29,4.6a2.31,2.31,0,0,0,.17-.28,7.72,7.72,0,0,0,.89-3.82l.46,0a8.2,8.2,0,0,1-.94,4.08l0,.07-.53,0Zm-4.5-1,.11-.09a3.75,3.75,0,0,0,.48-.58,6.16,6.16,0,0,0,.87-2.08l.46,0a6.48,6.48,0,0,1-.94,2.3,4.45,4.45,0,0,1-.47.58l-.51-.16Zm-3.76-1.6a2.78,2.78,0,0,0,.45-.44,4.83,4.83,0,0,0,.85-1.53l.44.12a5.21,5.21,0,0,1-.94,1.71,4.77,4.77,0,0,1-.36.37Z"/><path class="cls-62" d="M149.63,121.6a3.66,3.66,0,0,0,.4-.55,4.49,4.49,0,0,0,.25-.5l.43.16a4.46,4.46,0,0,1-.29.58,4.38,4.38,0,0,1-.43.59l-.36-.29Zm11.19,4.75a3.11,3.11,0,0,0,.25-.4,7.66,7.66,0,0,0,.9-3.65l.46,0a8.29,8.29,0,0,1-.95,3.92l-.12.22-.53,0Zm-4.48-1.08.16-.14a3.83,3.83,0,0,0,.49-.59,6.08,6.08,0,0,0,.83-2l.46.05a6.58,6.58,0,0,1-.92,2.17,3.85,3.85,0,0,1-.52.64l-.33-.11-.19-.05Zm-3.71-1.64a3,3,0,0,0,.46-.45,4.72,4.72,0,0,0,.82-1.45l.45.12a5.33,5.33,0,0,1-.91,1.63,3.6,3.6,0,0,1-.37.39Z"/><rect class="cls-63" x="141.01" y="101.93" width="19.32" height="10.79" transform="translate(-28.01 155.21) rotate(-50.47)"/><path class="cls-64" d="M151.43,108.17c2.14-2.59,8.37-1.9,13.33,2.19s6.82,10.09,4.68,12.67-8.37,1.9-13.33-2.2S149.3,110.75,151.43,108.17Z"/><path class="cls-65" d="M140.49,113.39c2.65,1.26,4,4.14,7.78,6.43a37.94,37.94,0,0,0,6.72,3c2.8,1,5.18,1.51,5.62-.34a8.2,8.2,0,0,0-.63-3,10.21,10.21,0,0,0-1.16-2.08,9.37,9.37,0,0,0-3.27-2.56c-1.72-1.06-3.17-1.57-5.1-1a40.8,40.8,0,0,1-7.64-1.06Z"/><path class="cls-66" d="M140.58,113.43c2.58,1.28,3.91,4.12,7.69,6.39a37.94,37.94,0,0,0,6.72,3c2.8,1,5.18,1.51,5.62-.34a8.2,8.2,0,0,0-.63-3c-.12-.3-.26-.59-.41-.88a4.2,4.2,0,0,1-2.37,1.68c-3.43.88-8.6-1.61-11.21-3.31C143.9,115.57,142.22,113.83,140.58,113.43Z"/><path class="cls-67" d="M147.38,119.25c.28.2.58.39.88.57a37.94,37.94,0,0,0,6.72,3c2.28.81,4.28,1.3,5.18.47a23.3,23.3,0,0,1-4.5-.79c-3.3-.85-7-2.25-8.37-3.35A.8.8,0,0,0,147.38,119.25Z"/><path class="cls-68" d="M154.48,96.43c1.74,2.36,4.82,3.11,7.79,6.43a37.3,37.3,0,0,1,4.21,6c1.51,2.55,2.46,4.8.74,5.58a8.2,8.2,0,0,1-3.1,0,9.79,9.79,0,0,1-2.27-.74,9.24,9.24,0,0,1-3.13-2.73c-1.36-1.49-2.14-2.81-1.95-4.81a40.3,40.3,0,0,0-2.48-7.3Z"/><path class="cls-69" d="M160.11,116.72a5.27,5.27,0,0,1-2.27-.47c-1.66-.68-3.32-1.85-5-1.88a28.69,28.69,0,0,1-3.41-.22,4.51,4.51,0,0,1-2.28-.86,2.18,2.18,0,0,1-.46-2.72,20.72,20.72,0,0,1,6.24-7.56,2.16,2.16,0,0,1,2.75-.06,4.36,4.36,0,0,1,1.28,2.07,27.29,27.29,0,0,1,.86,3.3c.54,2.5,3.49,4.39,3.71,6.87C161.59,116.34,161.25,116.65,160.11,116.72Z"/><path class="cls-70" d="M159.83,116.39a5.1,5.1,0,0,1-2.14-.47c-1.57-.67-3.16-1.79-4.79-1.85a30.33,30.33,0,0,1-3.21-.26,4.38,4.38,0,0,1-2.17-.85,2.07,2.07,0,0,1-.48-2.55,18.33,18.33,0,0,1,5.73-6.95,2.06,2.06,0,0,1,2.59,0,4.46,4.46,0,0,1,1.25,2,28.78,28.78,0,0,1,.86,3.1c.55,2.34,3.36,4.17,3.61,6.48C161.22,116.07,160.92,116.34,159.83,116.39Z"/><ellipse class="cls-71" cx="151.99" cy="108.64" rx="4.81" ry="1.27" transform="translate(-28.54 156.71) rotate(-50.47)"/><path class="cls-72" d="M149.59,108.54a18.47,18.47,0,0,1,1.85-2.25,1.25,1.25,0,0,0,0,.9c.14.26.37.62.49.84.29.48,0,.85-.55.67-.23-.08-.63-.24-.91-.33A1.24,1.24,0,0,0,149.59,108.54Z"/><path class="cls-73" d="M154.54,96.51c1.74,2.3,4.79,3.06,7.72,6.34a37.3,37.3,0,0,1,4.21,6c1.51,2.55,2.46,4.8.74,5.58a8.2,8.2,0,0,1-3.1,0c-.31-.06-.63-.15-.94-.24a4.19,4.19,0,0,0,1.2-2.64c.22-3.54-3.22-8.14-5.37-10.38C157.27,99.37,155.24,98.06,154.54,96.51Z"/><path class="cls-67" d="M161.54,102.09q.37.35.73.77a37.3,37.3,0,0,1,4.21,6c1.23,2.08,2.09,4,1.44,5a23.3,23.3,0,0,0-1.62-4.27c-1.46-3.08-3.54-6.43-4.88-7.58Z"/><path class="cls-74" d="M159.83,116.39a5.1,5.1,0,0,1-2.14-.47l-.15-.06a2.43,2.43,0,0,0,2.58-3.13,5,5,0,0,1,1,2.26C161.22,116.07,160.92,116.34,159.83,116.39Z"/><path class="cls-75" d="M140.14,79.08c-.43,0-.54.95-.55,3.06a9.94,9.94,0,0,0,.5,3.86,8.44,8.44,0,0,0,.59-3.74C140.69,80.16,140.57,79.09,140.14,79.08Z"/><path class="cls-76" d="M120.74,102.6c-.08-.42.83-.71,2.9-1.12a9.65,9.65,0,0,1,3.88-.24,8.44,8.44,0,0,1-3.55,1.28C121.89,102.94,120.82,103,120.74,102.6Z"/><path class="cls-77" d="M126.52,101.12a10.33,10.33,0,0,1,5.56-.63,37,37,0,0,1,6-.19l0,.46a37.57,37.57,0,0,0-6,.18,14.56,14.56,0,0,1-5.59.81.31.31,0,0,1-.34-.28C126.17,101.31,126.24,101.22,126.52,101.12Z"/><path class="cls-78" d="M139.79,85a10.28,10.28,0,0,0,.43,5.58,37.82,37.82,0,0,0,1,6l.45-.12a36.91,36.91,0,0,1-.95-5.9,14.67,14.67,0,0,0-.27-5.64.31.31,0,0,0-.34-.28C139.91,84.66,139.84,84.75,139.79,85Z"/><path class="cls-79" d="M137.14,100.42h0a.39.39,0,0,1,.42-.31l1.57.09c.21,0,.33.35.29.55h0c0,.2-.24.49-.43.45l-1.54-.35A.39.39,0,0,1,137.14,100.42Z"/><path class="cls-79" d="M141.11,95.6h0a.38.38,0,0,0-.23.48l.39,1.52c.06.2.41.26.6.18h0c.19-.06.43-.33.36-.51l-.65-1.44A.39.39,0,0,0,141.11,95.6Z"/><path class="cls-80" d="M142.09,100.7l.23-.28c3.7-4.48,9.75-6.19,11.88-4.25,4.32,4-9.33,20.5-14,17C137.86,111.44,138.4,105.18,142.09,100.7Z"/><path class="cls-50" d="M141.77,100.44l.24-.29c3.79-4.6,9.83-6.49,11.88-4.61,1.63,1.5,1.15,5.64-2.22,9.06-.62.62-1,1.44-1.64,2.16l-.12.14-.12.14c-.59.72-1.32,1.29-1.81,2-2.72,4-6.69,5.22-8.47,3.9C137.26,111.31,138,105,141.77,100.44Z"/><path class="cls-81" d="M139.29,102.18a2.22,2.22,0,0,1-.67-1.15l-.46-1.49c-.28-.93.09-1,.78-1.69s.55-1.19,1.52-1.09l1.55.17a2.14,2.14,0,0,1,1.25.44.94.94,0,0,1,.08-.13.85.85,0,0,1,1.18-.14,1.16,1.16,0,0,1,.16,1.24l0,0c.4,2.11-1.95,5-4.09,5l0,0a1.15,1.15,0,0,1-1.25.08.85.85,0,0,1-.09-1.19Z"/><path class="cls-50" d="M139.21,102a2.36,2.36,0,0,1-.81-1.25l-.48-1.46c-.3-.91.07-1,.73-1.63s.52-1.15,1.47-1l1.52.2a2.36,2.36,0,0,1,1.38.56,2,2,0,0,1,1.13.68c.63,2.15-1.83,5.13-4.06,4.92C139.79,102.7,139.36,102.5,139.21,102Z"/><circle class="cls-82" cx="139.61" cy="102.46" r="0.83" transform="translate(-28.28 144.92) rotate(-50.47)"/><ellipse class="cls-83" cx="139.35" cy="102.24" rx="0.47" ry="0.25" transform="matrix(0.64, -0.77, 0.77, 0.64, -28.21, 144.64)"/><path class="cls-84" d="M140.17,102a.75.75,0,0,1-.92,1.12.8.8,0,0,0,.8-.28A.81.81,0,0,0,140.17,102Z"/><path class="cls-85" d="M138.56,97.69a6.51,6.51,0,0,0,1,1.83,4.52,4.52,0,0,0,.89.77.22.22,0,0,1,0,.32.23.23,0,0,1-.32.05,5.51,5.51,0,0,1-1.8-2.81Z"/><path class="cls-85" d="M138.71,97.51a6.5,6.5,0,0,1,2,.66,4.17,4.17,0,0,1,.93.72.22.22,0,0,0,.32,0,.23.23,0,0,0,0-.33,5.51,5.51,0,0,0-3.1-1.23Z"/><ellipse class="cls-86" cx="123.57" cy="101.96" rx="2.34" ry="0.09" transform="translate(-17.5 26.03) rotate(-11.24)"/><ellipse class="cls-87" cx="129.2" cy="100.96" rx="2.18" ry="0.08" transform="translate(-12.56 18.56) rotate(-7.84)"/><path class="cls-81" d="M140.07,79.65A15.61,15.61,0,0,0,140,82a14.55,14.55,0,0,0,.07,2.33,16.94,16.94,0,0,0,.1-2.33A15.88,15.88,0,0,0,140.07,79.65Z"/><path class="cls-88" d="M140,85.52a14.67,14.67,0,0,0,0,2.18,14.83,14.83,0,0,0,.2,2.18,14.3,14.3,0,0,0,0-2.19A14.22,14.22,0,0,0,140,85.52Z"/><path class="cls-89" d="M140.17,106.13a.23.23,0,1,1-.46-.05c.1-.8.41-1.14.8-1.26a2,2,0,0,1,1.12.09c.37.1.61.09.75,0a1.05,1.05,0,0,0,.27-.7.85.85,0,0,1,.48-.77l.24-.17h0l0,0a.15.15,0,0,0,0-.09.26.26,0,0,0-.06-.15.23.23,0,0,1,.08-.32.23.23,0,0,1,.32.07.72.72,0,0,1,.12.38.57.57,0,0,1-.14.39l-.1.09h0l-.27.2a.5.5,0,0,0-.28.44,1.45,1.45,0,0,1-.45,1,1.25,1.25,0,0,1-1.15.1,1.65,1.65,0,0,0-.87-.09C140.42,105.33,140.23,105.56,140.17,106.13Z"/><path class="cls-89" d="M147.15,97.05a.23.23,0,0,1,.3.15.24.24,0,0,1-.15.29c-.55.17-.74.4-.77.64a1.71,1.71,0,0,0,.25.83,1.25,1.25,0,0,1,.12,1.15,1.44,1.44,0,0,1-.91.63.5.5,0,0,0-.38.36c0,.09-.08.2-.15.31h0l-.08.12-.1.09a.65.65,0,0,1-.65.07.23.23,0,0,1-.14-.3.24.24,0,0,1,.3-.13.23.23,0,0,0,.21,0l0,0,0,0h0a2.5,2.5,0,0,0,.12-.27.86.86,0,0,1,.67-.62,1.05,1.05,0,0,0,.64-.4c.09-.16,0-.39-.12-.73a2.11,2.11,0,0,1-.3-1.08C146.1,97.67,146.38,97.29,147.15,97.05Z"/><path class="cls-90" d="M148.93,105.89c3.08-3.73,4.9-7.35,4-8s-4.06,1.77-7.14,5.5-4.91,7.35-4.05,8.06S145.85,109.62,148.93,105.89Z"/><circle class="cls-91" cx="143.59" cy="97.65" r="0.83" transform="translate(-23.12 146.23) rotate(-50.47)"/><ellipse class="cls-92" cx="143.33" cy="97.43" rx="0.47" ry="0.25" transform="translate(-23.05 145.95) rotate(-50.47)"/><path class="cls-84" d="M144.15,97.17a.75.75,0,0,1-.92,1.12A.8.8,0,0,0,144,98,.81.81,0,0,0,144.15,97.17Z"/><ellipse class="cls-93" cx="155.47" cy="111.5" rx="0.4" ry="4.02" transform="translate(-29.49 160.44) rotate(-50.47)"/><rect class="cls-94" x="177.91" y="76.01" width="59.23" height="59.24"/><polygon class="cls-95" points="194.12 59.24 177.91 76.01 237.14 76.01 253.34 59.24 194.12 59.24"/><polygon class="cls-96" points="253.34 59.24 237.14 76.01 237.14 135.25 253.34 118.48 253.34 59.24"/><path class="cls-97" d="M196.41,101.93l.52.3a2.82,2.82,0,0,1,.58.52c.07.16,4,.24,5,.35s5.15.1,5.15.1l5.75.4c.83.06,4.78.45,6.25.6l.12-1.58h-.71l-4.3-.56-5.33-.39-3.73-.26-5.65.19-4.84-.34,1.47.5Z"/><path class="cls-98" d="M196.15,102.06l.45.45-.22.33-.18.43.49.38s2.22.1,3.12.16,2.64.28,3.39.22,3.42-.18,4.25-.12,5.22.46,5.22.46l7,.87.08-1.05c-1.47-.15-5.42-.55-6.25-.6l-5.75-.4s-4.17,0-5.15-.1-4.95-.19-5-.35a2.82,2.82,0,0,0-.58-.52l-.52-.3.31-.18-1.47-.5.82.65Z"/><path class="cls-98" d="M202.91,101.95a3.71,3.71,0,0,0-.66,0l-.71,0-.87,0c-1.24-.05-2.26-.12-2.26-.08a15.23,15.23,0,0,0,2.27.21l.89,0h.72A2.89,2.89,0,0,0,202.91,101.95Z"/><path class="cls-98" d="M212.46,103a13.87,13.87,0,0,0-1.62-.22c-1-.11-2.41-.25-4-.3-3.08.05-5.56,0-5.56,0a14.83,14.83,0,0,0,1.65.1l1.78,0c.67,0,1.42,0,2.16,0,1.52,0,2.93.17,3.94.25S212.46,103.07,212.46,103Z"/><path class="cls-98" d="M214.13,102.73s-1.34-.2-3-.38c-.84-.09-1.61-.14-2.16-.18a6.38,6.38,0,0,0-.9,0,6.39,6.39,0,0,0,.89.12l2.15.22C212.75,102.65,214.11,102.76,214.13,102.73Z"/><path class="cls-98" d="M219.1,103.73a11.51,11.51,0,0,0-2-.27,12,12,0,0,0-2-.11,11.51,11.51,0,0,0,2,.27A11.94,11.94,0,0,0,219.1,103.73Z"/><path class="cls-98" d="M218.89,102.83a15.89,15.89,0,0,0-1.64-.23,12.11,12.11,0,0,0-1.67-.14,10.11,10.11,0,0,0,1.64.26A8.77,8.77,0,0,0,218.89,102.83Z"/><path class="cls-99" d="M206.36,110.63c-.11,1.57-.17,3.64.16,4.25.17.32.38.24.59,0l-.32-4.1Z"/><path class="cls-100" d="M206.52,108.71s-.09.85-.16,1.92l.43.11.32,4.1a7.26,7.26,0,0,0,1-2.58C208.07,111.78,209.18,106.22,206.52,108.71Z"/><path class="cls-99" d="M212.11,110.42c.29,1.55.6,3.59.35,4.24-.13.33-.35.28-.59,0l-.17-4.11S211.89,110.52,212.11,110.42Z"/><path class="cls-100" d="M211.72,108.54s.19.83.39,1.89c-.22.09-.42.16-.42.16l.17,4.11a7.3,7.3,0,0,1-1.26-2.46C210.55,111.76,208.78,106.37,211.72,108.54Z"/><path class="cls-101" d="M211.47,108.16l-.55-.31a18.17,18.17,0,0,1-1.39,3c-.68,1-1.42,0-1.42,0a2.31,2.31,0,0,1-1,.94c.13,3,.33,7,.55,8.88.36,3.12,1.42,12.21,1.76-.71,0,0,1.05,10.69,1.7,11.69s.49-.43.49-.84c0,0,1.31,1.65.76-.17A78.15,78.15,0,0,1,211,118.48s1,6.2,1.35,7.8,1.26,2.46.94.45A89.57,89.57,0,0,1,211.47,108.16Z"/><path class="cls-102" d="M210.42,109.11c.3-.69.5-1.27.5-1.27l.55.31q0-1-.08-2.09s-3.85-3.63-4.47,2.07c0,0,.06,1.58.15,3.66a2.31,2.31,0,0,0,1-.94,1.2,1.2,0,0,0,.65.45c.15,2,.4,5.32.48,6.86,0,0,0-4.2,0-7a1.2,1.2,0,0,0,.33-.35,8.32,8.32,0,0,0,.5-.9c.15,1.69.47,5.14.86,7.21a64,64,0,0,1-.47-8.06Z"/><path class="cls-103" d="M212.2,92a3.82,3.82,0,0,0-.53-1c.23,2.31-.81,2-.81,2-.12,1.49-.74,1-.74,1-.22,1.24-.87.18-.87.18-.4,2.05-1.42.85-1.42.85-.49,1.6-1.14.36-1.14.36-.19,1-1,0-1,0-.22,1.18-1.27.07-1.27.07,0,1.16-1.58-.88-1.58-.88.09,2.31-1.61-.68-1.61-.68.06,1-.93.94-1.55-.33a4.56,4.56,0,0,1-.37-1.48,9.7,9.7,0,0,0,.29,3.59,6.84,6.84,0,0,0,1.27,1.5c.63.39,1.23.72,1.18,0,0,0,1.76,2.13,1.76,1.2,0,0,.76,1.2,1,.68,0,0,1.68,1.49,1.89.79,0,0,.86.82,1,.34,0,0,.76.57.79-.54,0,0,1,.63,1.09-.16,0,0,.81.5,1-1,0,0,.79.43,1.07-.84a20.08,20.08,0,0,0,.73-5.14C212.28,92.39,212.24,92.21,212.2,92Z"/><path class="cls-99" d="M213.3,107.69c-.77-.51-2-1.51-2-1.51a24.53,24.53,0,0,1-3-2.19,28,28,0,0,0,4,2.44c1.44.59,1.63.39,1.63.39s-.3-.33-.77-.5a9.27,9.27,0,0,1-1.88-1.09l-1-.75a5,5,0,0,0,2.4,1,.91.91,0,0,0-.08-.34,1.72,1.72,0,0,0-.9-.68,22.08,22.08,0,0,1-3.48-1.59,11.58,11.58,0,0,1-1.07-.89,13.09,13.09,0,0,0,4.61,2.19,45.2,45.2,0,0,0,.81-9.43c0-.43-.05-.85-.1-1.24,0,6.54-1.17,5.26-1.17,5.26-.22,1.36-1,1-1,1-.28,1.06-.83.54-.83.54-.22,1.12-.83.51-.83.51.12,1.36-1-.06-1-.06,0,.82-1.13-.51-1.13-.51s.08.48-.54.3a4.1,4.1,0,0,1-1.39-1.12s0,.76-.9.21A7.48,7.48,0,0,1,201.93,98c0,.3.15.82-1,0a4.46,4.46,0,0,1-.87-.94h0a16,16,0,0,0,1.51,2.9,21.73,21.73,0,0,0,3.13,3.09c1.51,1.08,7.9,5.29,9.45,5.38C214.16,108.3,213.73,108,213.3,107.69Z"/><path class="cls-100" d="M208.22,102.9a22.08,22.08,0,0,0,3.48,1.59l.06-.29a13.09,13.09,0,0,1-4.61-2.19A11.58,11.58,0,0,0,208.22,102.9Z"/><path class="cls-101" d="M211.67,91.08a3.82,3.82,0,0,1,.53,1,11.58,11.58,0,0,0-.72-2.15,8,8,0,0,0-3.1-3.67,8.84,8.84,0,0,0-2.57-5,8.3,8.3,0,0,0-6.08-1.92c-2,.06-2.67.88-2.89,1.59a3.23,3.23,0,0,0,.18,2,31.55,31.55,0,0,1,3.1,3.25,2.76,2.76,0,0,1,.92-.51,3.43,3.43,0,0,0,1.5-.54,4,4,0,0,1-.48,1.89,17.39,17.39,0,0,0-1.9,2.45,8.26,8.26,0,0,0-.79,2.69,4.56,4.56,0,0,0,.37,1.48c.62,1.27,1.61,1.3,1.55.33,0,0,1.7,3,1.61.68,0,0,1.55,2,1.58.88,0,0,1.05,1.1,1.27-.07,0,0,.77,1,1,0,0,0,.65,1.24,1.14-.36,0,0,1,1.21,1.42-.85,0,0,.65,1.05.87-.18,0,0,.62.46.74-1,0,0,1,.36.81-2Z"/><path class="cls-104" d="M199.55,95.58h0l-.36-.53,0,0-.06-.09,0-.06,0-.06-.07-.1a9.73,9.73,0,0,0,.26,1,13.58,13.58,0,0,0,.87,1.37,12.46,12.46,0,0,1-.45-1.36Z"/><path class="cls-105" d="M199.36,92.14a9.82,9.82,0,0,1,0-1.12h0s0-.1,0-.14v0c0-.05,0-.1,0-.15a8.75,8.75,0,0,0-.48,2.85,6,6,0,0,0,.13,1.15c.15.23.4.61.69,1A9.7,9.7,0,0,1,199.36,92.14Z"/><path class="cls-102" d="M202.05,87a4,4,0,0,0,.48-1.89,3.43,3.43,0,0,1-1.5.54,2.76,2.76,0,0,0-.92.51l0,0a3,3,0,0,1,0,2.78,7.52,7.52,0,0,0-.83,1.73,10.4,10.4,0,0,0,0,1.43,8.26,8.26,0,0,1,.79-2.69A17.39,17.39,0,0,1,202.05,87Z"/><path class="cls-99" d="M212.53,108.19a5.53,5.53,0,0,0-1.83-1.05v0s-6.37-6-6-4.49a32.72,32.72,0,0,1,.15,6.27c0,1.51.85.69.85.69-.14,1.63,1.25,0,1.25,0-.31,3.65,1.34-.09,1.34-.09-.11.85.11,1.45.93.52a5.79,5.79,0,0,0,.79-1.26c.09.55.29,1.33.68,1.55.62.34.53-1.36.53-1.36s.58,1.7,1.27,2S212.78,108.63,212.53,108.19Z"/><path class="cls-100" d="M210.71,103.84a16.47,16.47,0,0,0,.18-2c0-.83-.09.41-.29,1.66l0,.24-.24-.09a9.45,9.45,0,0,0,.21-1.07c0-.46-.09-.14-.15.25,0,.17-.11.51-.17.79l-.53-.15a6.52,6.52,0,0,0,.09-.77c0-.26-.11-.06-.2.44l-.06.29-.27,0a19.14,19.14,0,0,1,2.45,1.06l0-.19C211.34,104.11,211,104,210.71,103.84Z"/><path class="cls-30" d="M199.18,83s-.26-1.64.33-1.9a2.51,2.51,0,0,1,2.15,0c1,.38,1.48.49,1.48,1.59s-.38,2.68-1.21,3.12a2,2,0,0,1-1.8,0A3.92,3.92,0,0,1,199.18,83Z"/><ellipse class="cls-106" cx="200.84" cy="82.1" rx="0.91" ry="0.88"/><ellipse class="cls-107" cx="200.67" cy="82.1" rx="0.54" ry="0.53"/><ellipse class="cls-30" cx="200.95" cy="81.61" rx="0.27" ry="0.27"/><path class="cls-108" d="M198.2,85.58a4.94,4.94,0,0,0,2.89.61s.53-.38-.21-1.5-1.3-1.33-1.71-1.13A2,2,0,0,0,198.2,85.58Z"/><path class="cls-100" d="M212.67,105.52a5,5,0,0,1-2.4-1l1,.75S212.6,105.76,212.67,105.52Z"/><path class="cls-100" d="M213.6,107c.26,0,.37-.06.34-.17s-.19.2-1.63-.39a28,28,0,0,1-4-2.44,24.53,24.53,0,0,0,3,2.19A11.13,11.13,0,0,0,213.6,107Z"/><path class="cls-100" d="M214.19,108.47c-.81-.05-3-1.23-5-2.5a.14.14,0,0,0-.08,0c-1.85-1.13-3.63-2.33-4.34-2.83a22.78,22.78,0,0,1-3.3-3.29l.17.2a16,16,0,0,1-1.51-2.9h0c-.16-.22-.32-.45-.46-.68h0l-.21-.34h0l-.19-.33a15.34,15.34,0,0,0,1.43,3.14l0,0,0,0a15.68,15.68,0,0,0,5,5.33l.24.15c0,.42,0,1.49,0,2a11.63,11.63,0,0,0,.46-1.7l1,.65c0,.3-.09,1.73-.17,2.16a8.57,8.57,0,0,0,.45-2l1,.64h0a14,14,0,0,1-.29,2.87,13.57,13.57,0,0,0,.79-2.57l.9.53a7.22,7.22,0,0,1,0,1,4.8,4.8,0,0,1,.33-.8l.44.25a4.87,4.87,0,0,0,.23,1.12,5,5,0,0,1,.11-.93,10.7,10.7,0,0,0,2.06.94C214,108.64,214.21,108.6,214.19,108.47ZM200.76,99l-.05-.06Zm.65.78-.29-.35Zm-.32-.38-.22-.27Zm-.24-.29-.07-.09Z"/><path class="cls-109" d="M198.15,86.22a1,1,0,0,1,0-.57,3.23,3.23,0,0,1,.67-1.63c.53-.66.53-1,.47-1.16A3.16,3.16,0,0,0,197,81.68a4.15,4.15,0,0,0,1.56,5.6,3.89,3.89,0,0,1-.44-1.06h0Z"/><polygon class="cls-108" points="198.15 86.22 198.15 86.22 198.15 86.22 198.15 86.22"/><path class="cls-108" d="M198.84,84a3.23,3.23,0,0,0-.67,1.63l0-.07c.32-.55,1.36-1.33,1.3-2.19a1.11,1.11,0,0,0-.2-.53C199.37,83,199.37,83.35,198.84,84Z"/><path class="cls-110" d="M199.67,83.93a13.34,13.34,0,0,1-.77,1.28c-.26.33.87.35,1.05.35s.76-.14.65-.57S199.92,83.48,199.67,83.93Z"/><path class="cls-111" d="M197,82a6.2,6.2,0,0,0-.31,1.9c.06.79.52,1.84.61,1.54s-.12-1.42.4-2,.54-1,.16-1.2S197.13,81.71,197,82Z"/><path class="cls-112" d="M212.31,92.57a20.08,20.08,0,0,1-.73,5.14c-.28,1.27-1.07.84-1.07.84-.14,1.49-1,1-1,1-.14.79-1.09.16-1.09.16,0,1.11-.79.54-.79.54-.12.48-1-.34-1-.34-.22.7-1.89-.79-1.89-.79-.19.52-1-.68-1-.68,0,.93-1.76-1.2-1.76-1.2,0,.72-.56.39-1.18,0a6.84,6.84,0,0,1-1.27-1.5,12.46,12.46,0,0,0,.45,1.36A4.46,4.46,0,0,0,201,98c1.11.82,1,.3,1,0a7.48,7.48,0,0,0,1.76,1.63c.93.54.9-.21.9-.21a4.1,4.1,0,0,0,1.39,1.12c.62.18.54-.3.54-.3s1.13,1.33,1.13.51c0,0,1.08,1.42,1,.06,0,0,.62.6.83-.51,0,0,.56.51.83-.54,0,0,.8.36,1-1,0,0,1.16,1.27,1.17-5.26C212.42,93.19,212.37,92.87,212.31,92.57Z"/><path class="cls-111" d="M199.18,95l.36.53Z"/><path class="cls-111" d="M199.23,95.72l.19.33Z"/><rect class="cls-113" x="148.06" y="16.77" width="59.23" height="59.24"/><polygon class="cls-114" points="164.26 0 148.06 16.77 207.29 16.77 223.49 0 164.26 0"/><polygon class="cls-115" points="223.49 0 207.29 16.77 207.29 76.01 223.49 59.24 223.49 0"/><path class="cls-116" d="M194.15,33.79a3.83,3.83,0,0,1,1-1,12.81,12.81,0,0,1-1,1.76,1.06,1.06,0,0,1,.8-.29l-1.28,1.29a3,3,0,0,1-.87.68c-.16.07-.38.21-.28.38a.35.35,0,0,0,.11.11l1.3.89a4.15,4.15,0,0,1,1.22.88.78.78,0,0,1,.15.34c0,.16-.22.33-.36.4-1.25-.9-2.89-1-4.08-2a.81.81,0,0,1-.37-.67c0-.21.23-.34.4-.45l.49-.3.18-.11a2.2,2.2,0,0,0,1-.92,1.72,1.72,0,0,0,.11-.71,8.09,8.09,0,0,1,0-1.22,2.47,2.47,0,0,1,.39,1.29c.54-.84.49-2,.79-2.94.3.84-.31,1.74,0,2.59a10.91,10.91,0,0,1,1.37-2.05,1.09,1.09,0,0,1-.17.61Z"/><path class="cls-117" d="M192.44,37a1.65,1.65,0,0,0-1.08-.75.56.56,0,0,0-.35,0,.25.25,0,0,0-.13.3.44.44,0,0,0,.3.22,3.64,3.64,0,0,1,.84.34c.13.08.24.19.37.27a.54.54,0,0,0,.42.09c0-.12-.07-.14-.15-.21A1.36,1.36,0,0,1,192.44,37Z"/><path class="cls-118" d="M183.06,46.92a2,2,0,0,1,.06.53h0a.79.79,0,0,1-.06.28,1.27,1.27,0,0,1-.28.36l-.61.61a.39.39,0,0,1-.26.15c-.19,0-.3-.24-.36-.43v0l-.3-1-.19-.65h0v0a1.37,1.37,0,0,1-.54.84,9.42,9.42,0,0,1-.85.54,9.19,9.19,0,0,0-1.85,1.72,2.41,2.41,0,0,0-.57.86.69.69,0,0,1-.1-.2h0a.91.91,0,0,1,0-.6,2.17,2.17,0,0,1,.48-.64L179,47.88h0a2.64,2.64,0,0,0-1.33-.07,7.55,7.55,0,0,0-1.72.32,9.59,9.59,0,0,1-2.81.45.64.64,0,0,0-.44.12.61.61,0,0,1,.15-.23,1,1,0,0,1,.43-.23,5.64,5.64,0,0,1,.78-.1,5.44,5.44,0,0,0,1.22-.34l1.55-.6a1,1,0,0,1-.43,0l-.54-.06-1,0c-.2,0-.65.06-.78-.15a.26.26,0,0,1,0-.14c0-.18.27-.27.43-.29a7.13,7.13,0,0,1,1.33,0h0l0,0a.43.43,0,0,1,.35-.12l1.08,0a.25.25,0,0,0,.15,0,.47.47,0,0,0,.07-.1c.11-.15.34-.13.53-.09l.94.19.37.07a3,3,0,0,0,.79-1.29h0l0-.08a2.41,2.41,0,0,1,.71-1,1.12,1.12,0,0,1,.3-.16.64.64,0,0,1,.31,0,.71.71,0,0,1,.23.09,2.69,2.69,0,0,1,1,1.55A14,14,0,0,1,183.06,46.92Z"/><path class="cls-117" d="M180.53,45s0,.09,0,.1a.12.12,0,0,0,.07,0,.23.23,0,0,1,.23.09.66.66,0,0,1,.11.24,9.23,9.23,0,0,1,.25,1.12,2.24,2.24,0,0,1,0,.38,4.24,4.24,0,0,1,0,.46,2.21,2.21,0,0,0,0,.69.55.55,0,0,0,.08.22.21.21,0,0,0,.2.1c.1,0,.14-.13.17-.23l.09-.35a.35.35,0,0,0,0-.33l-.07-.07a.37.37,0,0,1-.06-.28,4.57,4.57,0,0,0,0-.82l-.09.27a.33.33,0,0,1-.05-.27,2.81,2.81,0,0,0-.38-1.41.63.63,0,0,0-.12-.18C180.74,44.48,180.55,44.78,180.53,45Z"/><path class="cls-116" d="M183.06,46.92a2,2,0,0,1,.06.53h0l-.78.42a1.75,1.75,0,0,1-.06-.63,5.8,5.8,0,0,0-.66-2.74,1.08,1.08,0,0,0-.49-.54.63.63,0,0,0-.38,0,1.12,1.12,0,0,1,.3-.16.64.64,0,0,1,.31,0,.71.71,0,0,1,.23.09,2.69,2.69,0,0,1,1,1.55A14,14,0,0,1,183.06,46.92Z"/><path class="cls-116" d="M181.05,46.69v0a1.37,1.37,0,0,1-.54.84,9.42,9.42,0,0,1-.85.54,9.19,9.19,0,0,0-1.85,1.72,2.41,2.41,0,0,0-.57.86.69.69,0,0,1-.1-.2h0a2.58,2.58,0,0,1,.76-1.06l.47-.46.52-.51a3.43,3.43,0,0,1,.87-.68,1.32,1.32,0,0,0,.27-.15.94.94,0,0,0,.16-.19,3.43,3.43,0,0,0,.4-.68,1.27,1.27,0,0,0,.07-.8.6.6,0,0,1,0-.38.09.09,0,0,1,.08-.06s.07,0,.09.09A2.41,2.41,0,0,1,181.05,46.69Z"/><path class="cls-116" d="M174,46.95a.26.26,0,0,1,0-.14,4.15,4.15,0,0,0,1.12,0,8.71,8.71,0,0,1,2.15.18,4.64,4.64,0,0,1-.88.19l-.54-.06-1,0C174.57,47.08,174.11,47.16,174,46.95Z"/><path class="cls-116" d="M177,46.54a3,3,0,0,1-1.33,0h0l0,0,.13.05a1.44,1.44,0,0,0,.48,0A2.78,2.78,0,0,1,177,46.54Z"/><path class="cls-116" d="M179.05,47.73a.41.41,0,0,1-.12.14,2.64,2.64,0,0,0-1.33-.07,7.55,7.55,0,0,0-1.72.32,9.59,9.59,0,0,1-2.81.45.64.64,0,0,0-.44.12.61.61,0,0,1,.15-.23l1.89-.25a5.46,5.46,0,0,0,.73-.14c.24-.07.47-.17.7-.25a6.3,6.3,0,0,1,1.65-.29A2.24,2.24,0,0,1,179.05,47.73Z"/><path class="cls-117" d="M180,45.06a2.87,2.87,0,0,1-.25,1.15,3.09,3.09,0,0,1-.26.41,1.34,1.34,0,0,1-.24.28,1.08,1.08,0,0,1-.31.16,5.23,5.23,0,0,1-1.63.21c.17-.17.47-.16.66-.32a.13.13,0,0,0,.05-.08.14.14,0,0,0-.05-.12.54.54,0,0,0-.4-.11h-.4c.26-.16.62-.07.9-.2a.61.61,0,0,0-.31-.18s0,0,0,0a1.86,1.86,0,0,1,.57.09.71.71,0,0,0,.48,0l.37.07A3,3,0,0,0,180,45.06Z"/><path class="cls-117" d="M193.42,34.88a1.21,1.21,0,0,1-.45.52c-.3.15-.68,0-1,.12a3.81,3.81,0,0,0-.47.19l-.14,0,.18-.11a2.2,2.2,0,0,0,1-.92,1.72,1.72,0,0,0,.11-.71l.19.27c.06.07.13.15.21.13s0,.1.06.1a.11.11,0,0,0,.1-.08,1.21,1.21,0,0,0,0-.13.29.29,0,0,1,.18-.2.83.83,0,0,1-.07.4C193.27,34.64,193.29,34.82,193.42,34.88Z"/><path class="cls-119" d="M202,33.07c-.36.64-.68,1.11-.68,1.11v0a16.78,16.78,0,0,1-1.87,3.09,7.87,7.87,0,0,0-2.1,2.53l-.06.11c-.13.26-.19.41-.19.41s1.08.3.28.82l-.27.21c-1,.9-3.45,3.77-5.5,5.94a10.75,10.75,0,0,1-4.3,2.44l-1,.3c-.71.2-1.31.33-1.65.39l-.32.06s-.29.25-.81.66c-1.94,1.52-7,5.18-11.8,5.51a18,18,0,0,1-2.74,0c-.77-.06-1.45-.36-2.22-.42a21.1,21.1,0,0,0-5.16.28,6.86,6.86,0,0,0-1.57.43,12.18,12.18,0,0,0-3.48,2.8,28.47,28.47,0,0,1-4,3.08,6,6,0,0,1-1.29.72,34.18,34.18,0,0,0,3.82-3.84,17,17,0,0,1,3.5-3.64,12,12,0,0,1,7.52-1.34,22.37,22.37,0,0,0,6.1-.29,13.61,13.61,0,0,0,7.63-4.73c.45-.54.89-1,1.32-1.49l.1-.11.14-.15.41-.43.44-.46.66-.67.75-.77,0,0a29.94,29.94,0,0,1,4.87-4.11,26.78,26.78,0,0,0,2.68-2c.37-.3.67-.55.88-.7a2.27,2.27,0,0,0,.3-.27l.33-.37c.21-.26.44-.57.68-.91A13.66,13.66,0,0,0,195,34.43a11.09,11.09,0,0,1,2.46-3.53,2.05,2.05,0,0,1,1.91-1.21,4.4,4.4,0,0,0,.87-.14l1.3-.3.24-.05a1,1,0,0,1,1,.5,1.7,1.7,0,0,1,.14.23C203.25,30.64,202.6,32.07,202,33.07Z"/><path class="cls-120" d="M166.77,56.18a.18.18,0,0,0-.07-.09l-.11-.07a.21.21,0,0,1,0-.3,2.26,2.26,0,0,0-1.14-.1,2.08,2.08,0,0,1-1.14-.13s0,0,0-.05a.05.05,0,0,1,0,0,1,1,0,0,1,.41-.23A.71.71,0,0,0,165,55c.07-.1,0-.17,0-.29a11.26,11.26,0,0,0-6.36,1.42,17,17,0,0,0-3.5,3.64,34.18,34.18,0,0,1-3.82,3.84,6,6,0,0,0,1.29-.72,28.47,28.47,0,0,0,4-3.08,12.18,12.18,0,0,1,3.48-2.8,6.86,6.86,0,0,1,1.57-.43q.73-.13,1.48-.21.93-.1,1.87-.12H166l.47,0c.07,0,.34.07.31-.07Z"/><path class="cls-121" d="M202.42,29.61a.17.17,0,0,1,0,.2c-.06.07-.17.05-.26.07a.44.44,0,0,0-.27.28,1.23,1.23,0,0,1-.18.36.89.89,0,0,1-.51.21,2.72,2.72,0,0,0-1.84,1,.72.72,0,0,1-.12.15,1,1,0,0,1-.17.1.7.7,0,0,0-.34.51.26.26,0,0,1,0,.12c-.06.08-.18,0-.27.06s-.23.24-.32.38a1.29,1.29,0,0,1-.94.43l1-.82a.53.53,0,0,0,.1-.1c.08-.12.07-.28.14-.41s.37-.22.54-.36a1.19,1.19,0,0,0,.17-.19,2.92,2.92,0,0,1,1.53-1,1.54,1.54,0,0,0,.77-.32,3.65,3.65,0,0,0,.27-.42.42.42,0,0,1,.43-.2s.08-.16.12-.17S202.39,29.57,202.42,29.61Z"/><path class="cls-121" d="M201.55,29.25l-.12.1c-.36.27-.86.29-1.22.56a3.07,3.07,0,0,0-.41.41,3.34,3.34,0,0,1-.9.69,1.64,1.64,0,0,0-.63.43,1.12,1.12,0,0,1-.13.18.61.61,0,0,1-.15.1l-.47.23h0a.06.06,0,0,1,0,0,.38.38,0,0,1,.22-.34,2.66,2.66,0,0,0,.38-.2c.07-.06.13-.14.19-.2a3.71,3.71,0,0,1,.81-.41,2.43,2.43,0,0,0,.58-.51l.38-.42a1.91,1.91,0,0,1,.24-.25h0Z"/><path class="cls-121" d="M197.05,32.82A.83.83,0,0,1,197,33a.07.07,0,0,1,0,0,.07.07,0,0,1-.07,0,.19.19,0,0,1,0-.08q0-.12,0-.25a.29.29,0,0,1,0-.09.24.24,0,0,1,0-.07,1,1,0,0,1,.19-.24c.15-.14.16,0,.11.11A3.21,3.21,0,0,0,197.05,32.82Z"/><path class="cls-121" d="M196.61,33.4a.29.29,0,0,1,.16-.15.24.24,0,0,1,.18.09l.12.14a.22.22,0,0,1,.06.12c0,.07-.06.12-.11.15s-.2.22-.33.05A.72.72,0,0,1,196.61,33.4Z"/><path class="cls-121" d="M200.42,32.81a.66.66,0,0,1-.17.17l-.16.08a.66.66,0,0,0-.14.15,10.68,10.68,0,0,1-1.11,1A6.54,6.54,0,0,0,198,35.4l-.38.6a.15.15,0,0,1-.1-.16.42.42,0,0,1,.06-.18,3.29,3.29,0,0,0,.25-.61,1.43,1.43,0,0,1,.08-.23,1.12,1.12,0,0,1,.14-.21,4.05,4.05,0,0,1,.4-.45c.27-.25.61-.43.88-.69a4.32,4.32,0,0,1,.37-.36l.28-.19c.5-.38.59-1.14,1.08-1.52a2.06,2.06,0,0,1,.26-.16c.1-.06.44-.19.29.05a6.2,6.2,0,0,1-.39.51Z"/><path class="cls-122" d="M202,33.07l-.47.61-.16.2a1.19,1.19,0,0,1-.78.39.53.53,0,0,1-.25.46c-.14.08-.32.11-.39.25s0,.22-.13.28-.12,0-.18.06,0,.31-.18.37-.17-.05-.22-.12a.21.21,0,0,1,.09-.29,2.84,2.84,0,0,0,.29-.15,2.29,2.29,0,0,0,.2-.27,2,2,0,0,1,.18-.15,3.51,3.51,0,0,0,.29-.33c.38-.44,1-.62,1.34-1.09a1.37,1.37,0,0,0,.26-.69,6.15,6.15,0,0,1,0-.83,3.75,3.75,0,0,1,.58-1,1.87,1.87,0,0,0,.24-1.06,1.7,1.7,0,0,1,.14.23C203.25,30.64,202.6,32.07,202,33.07Z"/><path class="cls-121" d="M199,36.21s-.2.22-.52.62c-.16.2-.35.45-.57.74s-.44.63-.68,1q-.18.28-.35.6l-.08.16-.08.17-.16.34c-.1.23-.22.47-.35.71l-.19.36-.21.36-.11.18-.11.18-.11.18-.12.18-.24.36-.25.36-.13.18-.13.17-.27.35-.28.34-.14.17-.15.17-.29.33-.07.08-.08.08-.15.16-.3.32-.31.31-.31.3-.32.29-.32.28-.32.27-.32.26-.32.25c-.21.16-.42.32-.63.47l-.31.22-.15.11-.07.05h0l0,0-.61.34c-.39.21-.76.38-1.1.51s-.63.24-.88.32l-.18.05-.16,0-.14,0-.11,0-.21,0,.21-.06.11,0,.13,0,.16,0,.17-.06c.25-.08.54-.2.87-.35s.69-.33,1.08-.54l.59-.35,0,0h0l.07-.05.15-.11.3-.22c.21-.15.41-.31.61-.48l.31-.25.31-.27.32-.27.31-.29.31-.29.31-.3.31-.31.3-.32.15-.16.08-.08.07-.08.29-.33.15-.17.14-.17.28-.34.27-.35.13-.17.13-.18.25-.35.24-.35.12-.18.11-.18.11-.18.11-.18.21-.35.2-.35c.13-.24.25-.47.36-.7l.17-.34.09-.17.09-.16q.18-.32.36-.6c.24-.38.49-.7.71-1s.42-.53.59-.72l.4-.45Z"/><path class="cls-121" d="M198.11,35.06s-2.4,4.25-3.26,5.56-4.89,5.81-7,6.6a25.31,25.31,0,0,0-5.23,3.64l-.44.38a25,25,0,0,1-4.91,3.21,19.56,19.56,0,0,1-4.75,1.68l-.28.06a12.66,12.66,0,0,1-5.79-.19l.05-.25c4,1.13,8-.21,10.64-1.53A24.78,24.78,0,0,0,182,51l.51-.44A24.77,24.77,0,0,1,187.76,47c2-.77,6-5.26,6.87-6.51s3.23-5.5,3.25-5.54Z"/><path class="cls-121" d="M196.87,33.69a16.84,16.84,0,0,0-1.59,2.93,19.6,19.6,0,0,1-4.1,5.41l-.74.68a32.82,32.82,0,0,1-5,4,28.27,28.27,0,0,0-4,3.14l-.31.32a18.68,18.68,0,0,1-2.68,2.34,16.56,16.56,0,0,1-6.22,2.88l-.58.1A11.71,11.71,0,0,1,166,55.2a2.67,2.67,0,0,0-1.36-.27,2.76,2.76,0,0,1-.78.08,2.87,2.87,0,0,0,.46-.07,6.6,6.6,0,0,1,.87-.16,1.4,1.4,0,0,1,.45,0c.15,0,.3.12.45.17a11.53,11.53,0,0,0,5.49.21,15.94,15.94,0,0,0,6.69-2.94,18.52,18.52,0,0,0,2.65-2.31s.12-.13.35-.35a28.64,28.64,0,0,1,4-3.14,32.62,32.62,0,0,0,5-3.94l.74-.68a19.22,19.22,0,0,0,4-5.3,16.68,16.68,0,0,1,1.62-3Z"/><path class="cls-121" d="M192.48,38.58a13.68,13.68,0,0,1-1.92,2A18.88,18.88,0,0,0,189.12,42a12.28,12.28,0,0,1-2.93,2.25,33.3,33.3,0,0,0-5,4.06c.88-1,1.71-1.76,2.5-2.58A21.54,21.54,0,0,1,186,44a12,12,0,0,0,2.89-2.21,19,19,0,0,1,1.45-1.35,11.12,11.12,0,0,0,.91-.87c.37-.3.67-.55.88-.7A2.27,2.27,0,0,0,192.48,38.58Z"/><path class="cls-122" d="M201.34,34.21a16.78,16.78,0,0,1-1.87,3.09,7.87,7.87,0,0,0-2.1,2.53h0a.37.37,0,0,1,0-.34,4.93,4.93,0,0,1,.77-1.32c.38-.43.92-.75,1.11-1.31a.28.28,0,0,1,.06-.12c.05-.05.14,0,.21-.07a.43.43,0,0,0,.25-.27,2.54,2.54,0,0,1,.15-.36c.1-.17.3-.29.31-.49a.14.14,0,0,0,0-.13l-.06,0c-.05,0,0-.12,0-.17.22-.26.6-.38.75-.69l.09.12A.64.64,0,0,1,201.34,34.21Z"/><path class="cls-116" d="M202.6,38.05l-.07.1a.88.88,0,0,1,1.13,0A.79.79,0,0,1,204,39a1.74,1.74,0,0,0-.77-.59.61.61,0,0,0-.38,0,.65.65,0,0,0-.26.18,6.24,6.24,0,0,0-1,1.21,3.15,3.15,0,0,0,.58-.41,1.21,1.21,0,0,1,.64-.29.62.62,0,0,1,.62.35s0,0-.07,0a.44.44,0,0,1-.06-.07c-.07-.08-.18-.06-.27,0l-.1.06a9.48,9.48,0,0,1-1.46,1,1.9,1.9,0,0,0-.26.15l-.11.1c-.05.06-.09.13-.14.2a2,2,0,0,1-.34.27,3.32,3.32,0,0,0-.56.62l-.23.28a1.11,1.11,0,0,1-1.08.41,1.93,1.93,0,0,1-.6-.37,6,6,0,0,0-1.73-.92.42.42,0,0,1-.16-.08.39.39,0,0,1-.08-.32c0-.36.15-.77.49-.87a1.31,1.31,0,0,1,.92.26,4.78,4.78,0,0,0,.88.37.85.85,0,0,0,.39,0,.58.58,0,0,0,.26-.14c.07-.06.14-.14.21-.2a6.83,6.83,0,0,1,.81-.56,1.69,1.69,0,0,0,.51-.78,3.44,3.44,0,0,1,.51-.85,1.17,1.17,0,0,1-.13.81l1-1.29a.81.81,0,0,1,.26-.25l.1,0a.3.3,0,0,1,.22.05l0,0,.4-.34a.44.44,0,0,1,.26-.13.2.2,0,0,1,.12,0,.15.15,0,0,1,.07.16A4.44,4.44,0,0,0,202.6,38.05Z"/><path class="cls-117" d="M203.66,38.2A.79.79,0,0,1,204,39a1.74,1.74,0,0,0-.77-.59.61.61,0,0,0-.38,0,.65.65,0,0,0-.26.18,6.24,6.24,0,0,0-1,1.21,3.15,3.15,0,0,0,.58-.41,1.21,1.21,0,0,1,.64-.29.62.62,0,0,1,.62.35s0,0-.07,0a.44.44,0,0,1-.06-.07c-.07-.08-.18-.06-.27,0a.25.25,0,0,0-.24-.11c-.08,0-.14.09-.2.15a1.07,1.07,0,0,1-.27.14,2.88,2.88,0,0,0-1,.7.38.38,0,0,0-.13.26v0l-.11.1c-.05.06-.09.13-.14.2a2,2,0,0,1-.34.27,3.32,3.32,0,0,0-.56.62l0,0c-.16.12-.29.32-.49.31s-.29-.14-.45-.19h0c-.11,0-.23,0-.34,0a.4.4,0,0,1-.27-.46.21.21,0,0,1,.06-.11c.12-.1.32,0,.48,0l.08,0a.6.6,0,0,0,.09-.48q0-.16,0-.32c.07-.06.14-.14.21-.2a6.83,6.83,0,0,1,.81-.56,1.69,1.69,0,0,0,.51-.78,3.44,3.44,0,0,1,.51-.85,1.17,1.17,0,0,1-.13.81l1-1.29a.81.81,0,0,1,.26-.25l.1,0a.48.48,0,0,1-.1.18,12.54,12.54,0,0,0-1,1.5,10.18,10.18,0,0,0,.92-1.2c.11-.12.23-.22.33-.35l.05-.07,0,0,.4-.34a.44.44,0,0,1,.26-.13.2.2,0,0,1,.12,0,.66.66,0,0,1-.16.12,5.27,5.27,0,0,0-1.53,1.68,3.27,3.27,0,0,0-.29.49,9.89,9.89,0,0,1,.83-.94,1.32,1.32,0,0,1,.22-.19l-.07.1A.88.88,0,0,1,203.66,38.2Z"/><path class="cls-117" d="M201,39.79a.64.64,0,0,0-.12.09.28.28,0,0,0,0,.29.14.14,0,0,0,.07.08.14.14,0,0,0,.08,0,.75.75,0,0,0,.41-.24.29.29,0,0,0,.05-.08,1.06,1.06,0,0,0,0-.25c0-.08.06-.17,0-.25s-.08-.05-.13,0A3.73,3.73,0,0,1,201,39.79Z"/><path class="cls-117" d="M200.24,40.5a1.66,1.66,0,0,1-.62,1.1l-.24.16-.22.11h0c-.11,0-.23,0-.34,0a.4.4,0,0,1-.27-.46.21.21,0,0,1,.06-.11c.12-.1.32,0,.48,0l.08,0a.24.24,0,0,0,.2,0,.6.6,0,0,0,.17-.16,1,1,0,0,0,.16-.23c0-.1.05-.21.09-.31a.29.29,0,0,1,.22-.21.3.3,0,0,1,.2.06.17.17,0,0,1,.06.07A.18.18,0,0,1,200.24,40.5Z"/><path class="cls-123" d="M192.93,43.38a13.88,13.88,0,0,0,1.29-1.69,15.28,15.28,0,0,0,2-4.27c.28-1.1,1.32-1.73,2.12-2.49a13.31,13.31,0,0,0,1.65-2,.75.75,0,0,0,.19-.48c0-.18-.21-.36-.37-.28a.36.36,0,0,1-.15.53.65.65,0,0,0-.67-.09c.24,0,.37.36.24.56s-.39.28-.58.43a3,3,0,0,1-.43.35.39.39,0,0,1-.51-.12,1.42,1.42,0,0,1,.31.55l-.56-.2a.65.65,0,0,1,.36.56,1.33,1.33,0,0,1-.7-.31,1.16,1.16,0,0,1,.34.7,1.53,1.53,0,0,0-.62-.27,1.35,1.35,0,0,1,.34.51,1.76,1.76,0,0,0-.65-.27l.32.39-.61-.05.35.37a1.29,1.29,0,0,0-.53.05l.1.19-1,1.52a20.26,20.26,0,0,1-1.38,2c-.4.49-.85.94-1.3,1.39l-4.65,4.69a12.4,12.4,0,0,1-1.41,1.28c-1.69,1.25-3.55,2.19-5.21,3.47l-1.53,1.19a18.06,18.06,0,0,1-8.32,3.84,11.76,11.76,0,0,1-2.54.08A11.53,11.53,0,0,1,166.3,55a4.52,4.52,0,0,0-1.27-.3,2.53,2.53,0,0,0-.36,0,12.82,12.82,0,0,1-1.77.32,6.46,6.46,0,0,0-3.4,1.09,18.74,18.74,0,0,0-2.75,2.28,1.69,1.69,0,0,0-.54.75l1.62-1.32a11.85,11.85,0,0,1,3.09-2,12.21,12.21,0,0,1,1.86-.5,7.61,7.61,0,0,1,2.54-.4c.14,0,.25.1.39.13s.33.06.49.11l.63.18q.63.17,1.26.28a12.35,12.35,0,0,0,2.53.19,10.58,10.58,0,0,0,1.76-.21,23.24,23.24,0,0,0,7.23-3.12,13.13,13.13,0,0,0,1.5-1c.43-.34.81-.74,1.25-1.06,1-.73,2.18-1.1,3.22-1.74s2-1.12,3-1.64a14.77,14.77,0,0,0,1.5-.85A14.76,14.76,0,0,0,192.93,43.38Z"/><path class="cls-120" d="M171.61,55.44l-1,.13a13.45,13.45,0,0,1-3,0l-.34-.05A11.29,11.29,0,0,1,165.4,55a2.47,2.47,0,0,0-.85,0h-.48a4.4,4.4,0,0,0-.46,0,5.19,5.19,0,0,0,.94-.21,1.63,1.63,0,0,1,.78,0c.27.07.53.19.8.28a7.79,7.79,0,0,0,2.07.38,15.24,15.24,0,0,0,3.36-.18,15.94,15.94,0,0,0,6.69-2.94,18.52,18.52,0,0,0,2.65-2.31s.12-.13.35-.35a1.63,1.63,0,0,0,.16.22l-.31.32a18.68,18.68,0,0,1-2.68,2.34,16.56,16.56,0,0,1-6.22,2.88Z"/><path class="cls-120" d="M182.64,50.87l-.44.38a25,25,0,0,1-4.91,3.21,19.56,19.56,0,0,1-4.75,1.68l-.28.06a12.66,12.66,0,0,1-5.79-.19l.05-.25c4,1.13,8-.21,10.64-1.53A24.78,24.78,0,0,0,182,51l.51-.44A.87.87,0,0,1,182.64,50.87Z"/><path class="cls-116" d="M188.23,50.63a2,2,0,0,1-.09,1,4.77,4.77,0,0,1-.33.82,6.33,6.33,0,0,1-.71,1.07,1.39,1.39,0,0,0-.3.49,2.47,2.47,0,0,0,0,.68,1.58,1.58,0,0,1-.5,1.19.25.25,0,0,0,0-.18,2.31,2.31,0,0,1-2,.9l.29-.18-2.13.5,2.22-1.07c.22-.11.47-.25.5-.5a3.27,3.27,0,0,1-1.4.4,23.56,23.56,0,0,1-2.67.15,1.21,1.21,0,0,1-1-.34,2.66,2.66,0,0,1,.9-.14l1.5-.07a4.53,4.53,0,0,0,1.67-.29,1.5,1.5,0,0,0,.94-1.3,4.14,4.14,0,0,1-2.74-.31h1.75a1.55,1.55,0,0,0,1.08-.27,1.39,1.39,0,0,0,.28-.42l.12-.25a9.44,9.44,0,0,0,.45-1.17.88.88,0,0,1-.42.07,11.11,11.11,0,0,0-1.43,0c-.29,0-.64,0-.67-.43a.85.85,0,0,1,.4-.72,3.65,3.65,0,0,1,2.11-.48l.95,0a1.5,1.5,0,0,1,.62.07A1.09,1.09,0,0,1,188.23,50.63Z"/><path class="cls-118" d="M187.81,51.66a2.77,2.77,0,0,0,0,.77,6.33,6.33,0,0,1-.71,1.07,1.39,1.39,0,0,0-.3.49,2.47,2.47,0,0,0,0,.68,1.58,1.58,0,0,1-.5,1.19.25.25,0,0,0,0-.18,2.31,2.31,0,0,1-2,.9l.29-.18-2.13.5,2.22-1.07c.22-.11.47-.25.5-.5a3.27,3.27,0,0,1-1.4.4,23.56,23.56,0,0,1-2.67.15,1.21,1.21,0,0,1-1-.34,2.66,2.66,0,0,1,.9-.14l1.5-.07a4.53,4.53,0,0,0,1.67-.29,1.5,1.5,0,0,0,.94-1.3,4.14,4.14,0,0,1-2.74-.31h1.75a1.55,1.55,0,0,0,1.08-.27,1.39,1.39,0,0,0,.28-.42l.12-.25a1.11,1.11,0,0,0,.56-.4,3,3,0,0,0,.43-.6,1.24,1.24,0,0,0,.14-.74c0-.1.08-.16,0-.22a1.22,1.22,0,0,0-.83-.23,6.79,6.79,0,0,0-.68.17.79.79,0,0,1-.68-.13,1.85,1.85,0,0,1,1.08-.32,5.59,5.59,0,0,1,1.33.11,1.15,1.15,0,0,1,.86.52A1.66,1.66,0,0,1,187.81,51.66Z"/><path class="cls-116" d="M187.25,51.88a4.08,4.08,0,0,1-.45.75,1.79,1.79,0,0,0-.34.81.5.5,0,0,1-.08.31c-.11.11-.33,0-.42-.12a.63.63,0,0,1,0-.49,9.28,9.28,0,0,1,.74-1.3c.06-.13.32-1,.49-1S187.3,51.76,187.25,51.88Z"/></svg>