<svg id="Layer_1" data-name="Layer 1" xmlns="http://www.w3.org/2000/svg" viewBox="0 0 220.43 22.28"><defs><style>.cls-1{fill:none;stroke:#000;stroke-miterlimit:10;stroke-width:0.7px;}.cls-2{fill:#0c0;}</style></defs><title>green-grid</title><rect class="cls-1" x="0.35" y="0.35" width="219.73" height="21.58"/><line class="cls-1" x1="22.68" y1="0.35" x2="22.68" y2="21.93"/><line class="cls-1" x1="44.27" y1="0.35" x2="44.27" y2="21.93"/><line class="cls-1" x1="65.85" y1="0.35" x2="65.85" y2="21.93"/><line class="cls-1" x1="88.33" y1="0.35" x2="88.33" y2="21.93"/><line class="cls-1" x1="109.92" y1="0.35" x2="109.92" y2="21.93"/><line class="cls-1" x1="131.5" y1="0.35" x2="131.5" y2="21.93"/><line class="cls-1" x1="154.21" y1="0.35" x2="154.21" y2="21.93"/><line class="cls-1" x1="175.79" y1="0.35" x2="175.79" y2="21.93"/><line class="cls-1" x1="197.37" y1="0.35" x2="197.37" y2="21.93"/><line class="cls-1" x1="22.68" y1="0.35" x2="22.68" y2="21.93"/><line class="cls-1" x1="44.27" y1="0.35" x2="44.27" y2="21.93"/><line class="cls-1" x1="65.85" y1="0.35" x2="65.85" y2="21.93"/><line class="cls-1" x1="88.33" y1="0.35" x2="88.33" y2="21.93"/><line class="cls-1" x1="109.92" y1="0.35" x2="109.92" y2="21.93"/><line class="cls-1" x1="131.5" y1="0.35" x2="131.5" y2="21.93"/><line class="cls-1" x1="154.21" y1="0.35" x2="154.21" y2="21.93"/><line class="cls-1" x1="175.79" y1="0.35" x2="175.79" y2="21.93"/><line class="cls-1" x1="197.37" y1="0.35" x2="197.37" y2="21.93"/><circle class="cls-2" cx="11.59" cy="11.14" r="8.54"/><circle class="cls-2" cx="33.47" cy="11.14" r="8.54"/><circle class="cls-2" cx="55.34" cy="11.14" r="8.54"/><circle class="cls-2" cx="77.22" cy="11.14" r="8.54"/><circle class="cls-2" cx="99.09" cy="11.14" r="8.54"/><circle class="cls-2" cx="120.97" cy="11.14" r="8.54"/><circle class="cls-2" cx="142.84" cy="11.14" r="8.54"/><circle class="cls-2" cx="164.72" cy="11.14" r="8.54"/><circle class="cls-2" cx="186.59" cy="11.14" r="8.54"/><circle class="cls-2" cx="208.47" cy="11.14" r="8.54"/></svg>