<svg id="Layer_1" data-name="Layer 1" xmlns="http://www.w3.org/2000/svg" xmlns:xlink="http://www.w3.org/1999/xlink" viewBox="0 0 330.39 81.71"><defs><style>.cls-1{fill:#5a8710;}.cls-1,.cls-2,.cls-3,.cls-4,.cls-5,.cls-6{fill-rule:evenodd;}.cls-2{fill:#690;}.cls-3{fill:url(#linear-gradient);}.cls-4{fill:#5c8519;}.cls-5{fill:#76ab20;}.cls-6{fill:#a7d75b;}</style><linearGradient id="linear-gradient" x1="318.31" y1="30.16" x2="739.95" y2="30.16" gradientTransform="translate(711.03 -71.5) rotate(166.31)" gradientUnits="userSpaceOnUse"><stop offset="0" stop-color="#65653a"/><stop offset="1" stop-color="#3d3a2c"/></linearGradient></defs><title>tree</title><path class="cls-1" d="M330.24,45.32a41.32,41.32,0,0,0-3.07-14.21c-2.21-.28-4.24-.71-5.23-1.48-2.75-2.14-8.68-2.46-12-1.91-9.83,1.69-9,.37-17.57-.39-6.21-.53-7.63-2.59-12-3,0,0-3.84-1.43-4.48-.94-1.22.93-6.13,1.16-8,1.18-4,0-18.25-1-20.35-.64-9.29,1.76-24.07-1.78-27.89-1.07-2.92.53-13-.08-16.78.12a18.2,18.2,0,0,0-3,.35,150.66,150.66,0,0,1-20.57-.47c-5.35-.47-9.05.56-13.24.2-5.69-.51-11.65.78-15.54.38l-7.77.07a53.93,53.93,0,0,1-9.18-.19c-6.52-.58-10.82.86-15.78.53l-1.08.21c-6.85,1.41-13.25,2.53-20.24,1.57-1.51-.21-3-.48-4.5-.81-2.75,0-5.5-.11-8.28-.21-2.47-.09-4.91-.19-7.37-.38l-.64,0L72.48,25c0,.2-.17.36-.51.5-.14.34-1.26.67-1.59.63-2.24-.27-11.27,4.49-13,5C54.32,32,47.31,32.63,46.26,33c-3.66,1.3-7.47,1.19-11.31.86a5.18,5.18,0,0,1-2.93-1,41.46,41.46,0,0,1-6.81,1,31.74,31.74,0,0,0-6.44,1.06c.31,2.34-1.5.28-4.12,1.13C11.11,37.16,3.89,35.26,0,35.59v16.5c.84.23,1.63.46,2.31.62,11.63,2.74.41,5.38-.15,6.07A6.77,6.77,0,0,1,0,60.41V74.06l1.88-.74c6.93-2.8,14.3-10.44,20.61-11.09a3.51,3.51,0,0,1,5.06-.32c1.65,0,1.5.55,1,1.91a4,4,0,0,1-.19,1.81,47.24,47.24,0,0,0-2.2,13.78q2.51,1.16,5.06,2.2C35,72.42,41.18,62.88,41.24,62c.56-7.45,26.71-7.67,31-10.5a11.81,11.81,0,0,1,3.47-1.36l-.11.25a18.75,18.75,0,0,1,6.87-1.33C85.11,49,87.7,49,90.3,49c.17-.08.45-.23.81-.46a201.31,201.31,0,0,1,20.81.39c5.78.51,27.24-2.57,29.41,2.18.22,0,3.7-1.37,3.8-1.37,10.55,0,30.39,3.43,38.68,1.88,12.5-2.32,30.6-2.08,44.32-1.35,18.78,1,38.81,7.87,52.09,5.62l.7.15c2.43,1.35,15.32,1.28,15.39,1.32,3.81,2.06,16.3-.42,17,0,3.76,2,10.16,3.22,16.93,4.14C330.38,56.06,330.5,50.69,330.24,45.32Z"/><path class="cls-2" d="M143.53,40.16c.67-.24,1.59-.16,2-.41.61-.4,4.65.12,5.26.46,1.49.83,1.4,1.28,3.42,1.46s.95.3,1.71.73c.25.14.17-.2.52.24.82,1.06,2.59,1.61,3.91,2.08a9.78,9.78,0,0,0,4.72.61c1.32-.23,2.81.6,4.06.16a8.31,8.31,0,0,0,2.67-.15c.19-.06,2.66-.15.38-.36,0-.42-2.22-.24-1.33-1.08s.4-.13.91-.3c.18-.07,1.36-1,2-1s1-.68,2.17-.58a4,4,0,0,1,1.62-.44l1.25-.28c.05-.73,3.13-.5-.47-.81-1.81-.17-.1-.4-1.37-.51-.55-.05.12-.18-.69-.26s0-.38-1.73-.53a7.2,7.2,0,0,0-4.27.4l-1.58-.14c-1,.37.5.43-1.44.27-1.31-.12-2.67.35-4.43.2-1.91-.17-.22-.79-1.7-.92-.32-.86-.75-.33-1.33-1.08-.8-1-6.74-1.17-8.39-1.32-2.2-.18-2-.34-4.1.42a2.64,2.64,0,0,0-1.43.26,12.3,12.3,0,0,1-2.51.36L136,37c-.08,1.17.82.06,1.29,1.66.2.69.68.37.57,1.79a8.18,8.18,0,0,1,.07,1.55,2.12,2.12,0,0,1-.25.95l-1.11.87c1.45.13,10.23,1,10.89.76s.65-.3.51-.29-.09,0,0,0l.22,0c.47-.07,3-.92,2.26-1.93-.59-.77-.69-.23-1.53-.71s.24-.36-1.38-.51c-1.28-.12-2.42,0-3.87-.15C142.41,40.84,142.09,40.67,143.53,40.16Z"/><path class="cls-2" d="M82.52,49.09,84.9,49a9.94,9.94,0,0,1,2.45-1.86,6.16,6.16,0,0,1,2.37-1c1.09.1,1.33-.28,1.61-.25,1.53.14,2.11-.39,3.73-.25.95.09,6-.51,5.61-1.83-.11-.37-3.9-.54-4.55-.59-.83-.07-1.51-.33-1.92-.37-2.12-.18-1-.15-3-.83s1.2-1.24,1.33-1.24,3.23-1.38,3.64-1.42a2.86,2.86,0,0,0,1.43-.27c1-.35,2.28-.08,2.68-.34.21-.13.74-.39.74-.51a6.23,6.23,0,0,0-3.55.27c-1.24.44-4.4-.29-6.41.61a13,13,0,0,1-4.59,0c-1-.37.2-.36-1.73-.54-.67-.06-2.69.53-2.73,1.12l.7.06c2.43.21.83.65,2.07.77.41,1.11.59.81-1,1.06-.41.07-1.39-.34-1.42.07-3.44.92-2.34,2.36-3.05,3s.22.79-.4.74a5,5,0,0,0-.43,1.12c-1.51.67-2.93,3.22-3.24,3.2,0,.11,0,.31-.07.53l.44.09A18.85,18.85,0,0,1,82.52,49.09Z"/><path class="cls-3" d="M42.18,57.95c-.32,0-2,.5-2,.79-1.35-.12-5.43-.6-5.6,1.64-.39,0-.83.7-1.11.68-1.21,2.22,3.83.69,4.28,1.93a9.75,9.75,0,0,1,2.67.77,8,8,0,0,0,.83-1.7c.14-1.86,1.88-3.27,4.48-4.39A8.33,8.33,0,0,0,42.18,57.95Z"/><path class="cls-4" d="M31.23,81.62c.62-1.52,1.3-3,2-4.55-.72.37-1.76,1.3-1.78,1.59-2.36-.2,2.41-9.25,3.32-9.18,0-.74.75-.63.81-1.48.57.06.28-.94.77-.9.06-.9.75-.58.93-3-1-.07-3.09,2.83-4.09,2.74-.12,1.63-2.93,1.47-3,3C29.94,73,28.45,76.37,27.46,80,28.71,80.58,30,81.11,31.23,81.62Z"/><path class="cls-2" d="M57.83,46.74c-1.68-.94-6.42-1.32-8.58-1.13-.85.07-1,.06-2,.21-.09,0-1.23.09-1.25.09,0,.46-.35,0-.71.13a2.23,2.23,0,0,1-1.44.46c-1.25-.11-.16.24-1.46.46-.6.1-.45.53-1.44.44a21.88,21.88,0,0,1-2.67.36c-.95-.09-.8.51-2,.4a5.73,5.73,0,0,1,1.67-1c0-.4,2.92-2.26,3.16-2.24a.33.33,0,0,1,0-.16,2.25,2.25,0,0,1-1.1.07s-1.17.06-1.24.08c-.8.29.18.4-1.44.26,0,.4-2.86.26-3,.32-1.24.44-1.08.24-1.2,1.83-.09,1.27.12,1.59-.86,2.25a17.83,17.83,0,0,1-3.5,1.82c0,.55-1.69.28-2.15.59s-1.34,0-1.6.05l-.38.35a7.85,7.85,0,0,0-1.61.24c0,.33-.17.18-.71.13,0,.33,0,.2-.54.15-.36.64-.31.21-1.1.49-.42.14-2.16,1.75-2.77,1.69a11.26,11.26,0,0,0-1,1.46c-.25.84-.8,1.26-.83,1.67-.09,1.22-.32-.5-.41.74a10.62,10.62,0,0,1,2-.21,2.42,2.42,0,0,1,1.47-.64c.39,0,.89-.47,1.23-.79-.85.35-1.65.69-2.3.9l2.37-1-.07.06c1.57-.65,3.29-1.33,4.39-1.23,1.92.17,4.1.64,6,.33l1.23.1c.49-.88,1.71.1,2.49-.17.94-.33-.4-.42,1.43-.26A12,12,0,0,0,40,55.82c.42-.07.14.23.89-.11s.62.06,1.07-.1a1.57,1.57,0,0,1,1.1-.48c.53,0,.53-.53,1.1-.49-.69-.06-8.58-.77-8.6-.75-1.16.4-3-.06-4.24-.19A23.24,23.24,0,0,1,36,52.57c.85.07,1.21-.47,2-.41a6.4,6.4,0,0,0,2.33-.37c.56-.25.61-.14,1.24-.08.33-.6.2-.38,1.09-.3,0-.42,1.26-.65,1.65-.82.78-.35,0-.58,1.44-.46a2.7,2.7,0,0,1,2-.79c.6-1.06.5.39,1.81-.61A25.09,25.09,0,0,1,54,48.34a13,13,0,0,0,4.43-.2c.16,0,1.44-.07,1.6-.06.37-.67.12-.14,1.1-.49.57-.2,2.75-.15.38-.35A15.21,15.21,0,0,1,57.83,46.74Z"/><path class="cls-2" d="M88.9,33.18c-1-.57-3.52-.69-4.88-.81-.29,0-1.88-.87-1.87-1.14-1-.09-1.86-1.23-2.87-1.8-.86-.49-4-3.25-4.18-3.27a1.72,1.72,0,0,0-.8-1.22.79.79,0,0,0-.09-.36L72.66,25a1.34,1.34,0,0,1-.69.53c-.14.34-1.26.67-1.59.63-2.24-.27-11.27,4.49-13,5C54.32,32,47.31,32.63,46.26,33c-3.66,1.3-7.47,1.19-11.31.86a5.18,5.18,0,0,1-2.93-1,41.47,41.47,0,0,1-6.81,1,41.27,41.27,0,0,0-5,.7l.23,0c2.57.23.93,0,.47.81-.24,0-1.26.23-1.27.47A3.92,3.92,0,0,0,17.07,37a2.81,2.81,0,0,0-1.8.42,5.5,5.5,0,0,1-2.7.73c-.56.09-.44.54-1.1.48a27.51,27.51,0,0,0-6.76.76c-1.77.69,1.58.17,2.24.77s2.37-.1,3.76,1.68c0,0,2.72,1.2,2.92,1.23,1.23.1.62.38,1.37.69.09,0,1.6.11,1.75.15,2.32.83.83.71.8,1-1-.09-.08.37-1.08.29-1.56-.14.17.6-1.62.44-2.32-.2.27.6-2.23.39-2.25.36-6.69-.7-8.23.25,1,.67,2-.12,2.77.83.4.51,6.86,1,8.05,1.08,2.44.22,1.77-.12,3.75-.44A26.89,26.89,0,0,1,23.57,47c1.37.12,2-.21,2.84-.14a10.72,10.72,0,0,0,4.71-1.52c1.21-1.14-.22-1-1-1.05-1.79-.16-.53,0-1.38-.51a9.22,9.22,0,0,1-1.21-.3c-.93-.52-1.87-.61-2.58-1-1.28-.72-1.61-.53-3.13-.66-.75-.06-4.05-1.88-3.7-2.64.19-.4,4.51.18,5.08.63.88.7.61-.43,1,.67l.87.08c1.44.12,1.8.94,3.15.47.05,0,4,.37,4,.36,1.47-.53,1.64.6,2.87-.53.8.07.35.07.88-.12.35-.12,1.77,0,1.81-.42,1.6.14,2.3-.76,2.88-.72.16,0,3.45-1.12,3.62-1.23,1.15-.77.26.06,1.09-.48,1.32-.87,5.18-.13,6.71,0,1.06.09,1.25-.16,1.2.49,0,0-2.92,1.47-2.94,1.48-.59.55-.45-.35-.92.5-1.1-.1-1,.49-1.46.65l-.35,0a4.47,4.47,0,0,0-1.28.86c1.46.12.58-.34,1.24-.29,1.06.09,1.64-.64,2.17-.59.87.08,5.19-1.06,5.26-1.86.52,0,.52.18.54-.14a3.31,3.31,0,0,0,2.13-.2c.77-.28.77-.53,1.46-.65.47-.08,3-1.27,3.09-1.28a15.55,15.55,0,0,1,3.9,0c2.18.19,3-.33,2.86,1.8-.05.77-2.08,1.93-2.81,2.26A47.6,47.6,0,0,1,61.58,42c-1.05.69.93.66,1.19.69,1.66.14.6,0,1.43-.27l2.1.18c.85.07,1-.5,1.79-.43s2.11-.78,2.53-.75c.7.07,2.65-1.38,2.94-1.48.51-.19.32-2.1,1-2,.06-.89.53,0,.63-1.31.26-3.53-.34-3.13,1.8-2.93,1.77.15.35.41,1.38.51.72.07,1.51.9,1,.86-.63,1.14-1,.88-1.05,2.23.69.06,1.25.26,1.77,0,1-.56,1.5.12,2-.8a1.22,1.22,0,0,0,1.08-.29c.48-.43,1.07-.11,1.44-.45s.44,0,1.27-.27c.44-.15,2.43.52,2.47,0,.78-.35,1.79.1,2.12,0,1-.36.87.06.95-.89C91.54,33.44,89.32,33.41,88.9,33.18Z"/><path class="cls-2" d="M16.19,53.21a15,15,0,0,0-3.31-.67c-1.51-.13-1-.67-2.58-.81-1.93-.17-.65.33-1.7.23a10.53,10.53,0,0,1-3.08-.06c-1.43-.13-1.55.44-2.86.32a7.63,7.63,0,0,0-1.79.11c.51.15,1,.28,1.44.39,11.63,2.74.41,5.38-.15,6.07A6.77,6.77,0,0,1,0,60.41V63.6a10.05,10.05,0,0,1,3.4.1c0,.57,0,1.55-.46,1.5,0,.38-2.44,1.95-2.46,2.3a2.53,2.53,0,0,0-.48,0V69a4.08,4.08,0,0,1,1.63-.24c1.44.12.15-.33,1.09-.48a13.35,13.35,0,0,0,4.74-2.11C8.72,65,8.36,64.79,8.76,63c.22-1-.1-1.49.37-2.49.22-.48.55-1.69,1-1.65l.59-.73c.78.07,2.2-1.36,2.75-1.3,0-.65,2.07-1.93,2.65-2.48C16.93,53.59,16.55,53.68,16.19,53.21Z"/><path class="cls-2" d="M325.83,45.93c-.07,0-14.43-1.25-15.8-1.39-4.15-.35-2-.43-3.1-1s-3.2.08-3.78-1.5c-1.8-.15-.63.07-1.7-.92-.3-.28-10-3.58-4-3.06,2.76.25,3.79.72,6.3.94,1.05.1,5.24.86,5.19,1.62.88.07,2.13-.12,2.07.57.59,0,4.49.37,4.57.4,2.59.91,8.93,1.44,14.57,1.82a40.38,40.38,0,0,0-2.94-12.25c-2.21-.28-4.24-.71-5.23-1.48-1.89-.53-3.93-1.75-5.83-2.42a2.47,2.47,0,0,1-1.37-.88,3.19,3.19,0,0,1-.12-2.28c1.24-6.32,1.84-16.61,8.26-18.6,2.15-.66,4.46-.9,6.34-2.25a23.17,23.17,0,0,1-.67-3.2q-6.88.63-13.77.87c-1.21,3-2.57,6-3.65,9-1.43,4.1-3,8.26-5.51,11.6a14.85,14.85,0,0,1-13.22,5.82c-4.17-.34-7.89-2.62-12-3,0,0-3.84-1.43-4.48-.94-1.22.93-6.13,1.16-8,1.18-4,0-18.25-1-20.35-.64-9.29,1.76-24.07-1.78-27.89-1.07-2.92.53-13-.08-16.78.12a18.2,18.2,0,0,0-3,.35,150.66,150.66,0,0,1-20.57-.47c-5.35-.47-9.05.56-13.24.2-5.69-.51-11.65.78-15.54.38l-7.77.07a53.93,53.93,0,0,1-9.18-.19c-6.52-.58-10.82.86-15.78.53l-1.08.21c-6.29,1.3-12.2,2.32-18.54,1.74.56.18,1.09.42,1.06.71.94.09.41.57,2.27.4a4.5,4.5,0,0,1,2.64,2.54l7.72.68c1.46.13,4,.13,4.49,1.55,2.1.19,2.44,2.15,3,2.2-.2,2.72-.1,1.09-1.87,1.39-6.26,1,7.55,2.62,8.34,1.89,1.11-1,3.15.31,4-1.2,4.47.39,1.7-.07,5.35-.68,1.81-.31,2.66.17,3.24-.89,1.56.14,1.85-.61,2.52-.55,2.6.23,1.23-.25,2.16-.58s6.82.62,8.46.35a17.25,17.25,0,0,1,8.07.71c2.19.77,2.9.64,5.24.84.79.07,7.68,1.28,8,1.47,2.06,1.16,2,.17,4.21.36.87.07,2.5-.45,2.57-1.33a2.54,2.54,0,0,0,2.56-1.32c2,.18.75-.32,1.78-.23,1.89.17,3.15-1.66,3.66-1.61.07-1,1-.61,1.86-1.38,1.23-1.14,4.34.38,5.62.49,3.09.27,5.29,2,8.33,2.27-.07.91.15.79-.41.73-1-.09-4.28.46-4.35,1.56-.14,1.78,7.92,2.62,9.69,2.78,5,.43,9.19,1.19,14,1.61,9,.79,4.33-1.31,4.24,0l-3.86-.35c-.25,0-3.7-1.44-3.78-1.49-2.51-1.4.14-1.84.17-2.31,2.31.21,4.49,0,6.17-2.17.49-.63,1.27-1.19,1.85-1.8l0,0c1.76,1.11,1.25.3,2.91,1.22,1.19.67,5.57.87,7.35,1a31.9,31.9,0,0,1,4.53.79c2.92,1,6.34.94,9.46,1.21.65.06,1.68,1.14,1.64,1.69l2.46.21c3.14.27,1.36.31,3.57-.46,4.71-1.67,10.49,1.45,15.21-.22.81-.29,16.22,1.41,16.83,1.85,1.34,1,2.12,0,2,1.34,2.57.23-.28.36,1.74.54-.11,1.39,2.38,1.1,2.31,2.14a22.26,22.26,0,0,0,3.11,1c.38.14,3.73,1.48,3.77,1.49,1.21.11.94.76,2.73,1.39a32.8,32.8,0,0,0,6.69.2c2.24-.8,4.94-.34,7.44-.12a14.49,14.49,0,0,0,5-.73c2.61.23.77-.71,2.17-.59C331.2,46.78,328.53,45,325.83,45.93Z"/><path class="cls-1" d="M100.58,30.71c0-.47-.09-.39-.5-.43a6,6,0,0,1-1.36-.7,10.56,10.56,0,0,1-1.39-.32,19.66,19.66,0,0,1-4.17-1.13c-.56-.53-1.64-.1-2-1.15,0,0-1.4-.46-1.56-.52-1.11-.39-1.46-1.48-3.05-1.61a.37.37,0,0,0,0-.13l-2.75-.1L82,24.54a3,3,0,0,0,1.3.78c1.16.1.68.64,1.53.71.54.06.54.31,1,.48s1.91.48,1.9.75c.4.26,1.54.73,1.51,1.1.26,0,.54-.13.51.23A16.58,16.58,0,0,0,92.49,30c1.53.14-.12-.08,1.21.49.15.07,2.46.15,2.43.6l2.8.25a14.63,14.63,0,0,0,1.78-.05C101.38,31.36,101.17,30.75,100.58,30.71Z"/><path class="cls-2" d="M330.39,52.34c0-.45,0-.9,0-1.35-2.84-.28-6-.54-6.66-.3l-.36.15.48.62c.6.05,2,.57,2.78.63S328.82,52.22,330.39,52.34Z"/><path class="cls-2" d="M207.8,45.77c-.58,0-.55-.21-1-.47-.32-.18-2.49-.44-3-.65l-.49-.43-7.38-.64a5.14,5.14,0,0,1-3.27-1.25c-1.49-1-2.19-1-4-1.12-.75-.07-2.31-.6-2.66.15-.24.53,1.2,1.46,1.65,1.51.69.06,1.47,1.62,1.46,1.87-1.14-.11-.17.18-1.07.09a13.14,13.14,0,0,0-3-.07c-4.6.41-2.71.88-2.78,1.88a5.27,5.27,0,0,0,1.71.74c1.62.14.32,0,1.21.49l2.11.18a12.64,12.64,0,0,1-3.48,1.63,23.18,23.18,0,0,0-3.42.87c-2.2.58-13.87-.83-17.59-1.15-2-.17-1.56.44-3.55.27a24.36,24.36,0,0,0-4.63.56c10.38.89,23,2.53,29.17,1.37,1.48-.27,3-.51,4.67-.72,0-.06,0-.13.05-.2a10.77,10.77,0,0,1,1.07-2.62,19.49,19.49,0,0,1,3-1.87c1-.36,2.74,0,3.88.16a7.23,7.23,0,0,1,1.38.3c1.67.15.27,0,1.2.5.65.36,8.16.91,9.29,1,1.65.15,1.68-.06,1.17-1.44C209,46.65,208.2,45.81,207.8,45.77Z"/><path class="cls-5" d="M38.61,51.11s8.84,5.56,9.18,13.66-3.86,16.94-3.86,16.94S23.93,60.58,38.61,51.11Z"/><path class="cls-6" d="M38.4,48.84s7.47-2.57,13.85,1.54S64,61.83,64,61.83,40.45,63.07,38.4,48.84Z"/><path class="cls-5" d="M141.18,50.59s.95,4.63-1.18,7A13.67,13.67,0,0,1,134.28,61S134.49,48.12,141.18,50.59Z"/><path class="cls-6" d="M141.74,49.88a9,9,0,0,1,3.44,5.26,26.16,26.16,0,0,1,.13,7.28S138.42,54.57,141.74,49.88Z"/><path class="cls-5" d="M60,31.44s-4-1.61-4.59-4.92A18,18,0,0,1,56,19.27S65.48,26.43,60,31.44Z"/><path class="cls-6" d="M60.24,32.35a7.28,7.28,0,0,1-5.79.42A20.5,20.5,0,0,1,49,29S58.55,26.66,60.24,32.35Z"/><path class="cls-5" d="M293.43,47.64s8.84,5.56,9.18,13.66-3.86,16.94-3.86,16.94S278.76,57.11,293.43,47.64Z"/><path class="cls-6" d="M293.22,45.37s7.47-2.57,13.85,1.54,11.71,11.45,11.71,11.45S295.27,59.6,293.22,45.37Z"/><path class="cls-1" d="M290.49,47.82s-4.3,5.53-2.88,10.57,5.77,9.44,5.77,9.44S301.38,50.09,290.49,47.82Z"/><path class="cls-6" d="M291.46,47.53s-7.82.35-12.56,6.58-7.48,15.1-7.48,15.1S293.92,61.68,291.46,47.53Z"/></svg>