<?xml version="1.0" encoding="utf-8"?>
<!-- Generator: Adobe Illustrator 20.1.0, SVG Export Plug-In . SVG Version: 6.00 Build 0)  -->
<svg version="1.1" id="Layer_1" xmlns="http://www.w3.org/2000/svg" xmlns:xlink="http://www.w3.org/1999/xlink" x="0px" y="0px"
	 width="69.3px" height="42.3px" viewBox="0 0 69.3 42.3" style="enable-background:new 0 0 69.3 42.3;" xml:space="preserve">
<g>
	<path style="opacity:0.1;fill:#010101;enable-background:new    ;" d="M62.7,3.6H6.6C3,3.6,0,6.6,0,10.3v25.4c0,3.7,3,6.6,6.6,6.6
		h56.1c3.7,0,6.6-3,6.6-6.6V10.3C69.3,6.6,66.4,3.6,62.7,3.6z"/>
	<g>
		
			<linearGradient id="SVGID_1_" gradientUnits="userSpaceOnUse" x1="0" y1="24.65" x2="69.3" y2="24.65" gradientTransform="matrix(1 0 0 -1 0 44)">
			<stop  offset="0" style="stop-color:#717171"/>
			<stop  offset="1" style="stop-color:#9D9A9A"/>
		</linearGradient>
		<path style="fill:url(#SVGID_1_);" d="M60.7,38.7H8.6c-4.8,0-8.6-3.9-8.6-8.6V8.6C0,3.9,3.9,0,8.6,0h52.1c4.8,0,8.6,3.9,8.6,8.6
			v21.5C69.3,34.8,65.5,38.7,60.7,38.7z"/>
		
			<linearGradient id="SVGID_2_" gradientUnits="userSpaceOnUse" x1="34.65" y1="4.6433" x2="34.65" y2="44.3236" gradientTransform="matrix(1 0 0 -1 0 44)">
			<stop  offset="0" style="stop-color:#717171"/>
			<stop  offset="1" style="stop-color:#9D9A9A"/>
		</linearGradient>
		<path style="fill:url(#SVGID_2_);" d="M60.7,38.7H8.6c-4.8,0-8.6-3.9-8.6-8.6V8.6C0,3.9,3.9,0,8.6,0h52.1c4.8,0,8.6,3.9,8.6,8.6
			v21.5C69.3,34.8,65.5,38.7,60.7,38.7z"/>
	</g>
	<text transform="matrix(1 0 0 1 11.5244 22.987)" style="fill:#FFFFFF; font-family:'ArialMT'; font-size:16px;">Check</text>
</g>
<g style="display:none;">
	<g style="display:inline;">
		<path style="opacity:0.1;fill:#010101;enable-background:new    ;" d="M62.7,3.6H6.6C3,3.6,0,6.6,0,10.3v25.4c0,3.7,3,6.6,6.6,6.6
			h56.1c3.7,0,6.6-3,6.6-6.6V10.3C69.3,6.6,66.4,3.6,62.7,3.6z"/>
		<g>
			
				<linearGradient id="SVGID_3_" gradientUnits="userSpaceOnUse" x1="0" y1="24.65" x2="69.3" y2="24.65" gradientTransform="matrix(1 0 0 -1 0 44)">
				<stop  offset="0" style="stop-color:#3B803D"/>
				<stop  offset="0.2574" style="stop-color:#3A7E3C"/>
				<stop  offset="0.5035" style="stop-color:#387639"/>
				<stop  offset="0.7452" style="stop-color:#336934"/>
				<stop  offset="0.9828" style="stop-color:#2C582B"/>
				<stop  offset="1" style="stop-color:#2B572B"/>
			</linearGradient>
			<path style="fill:url(#SVGID_3_);" d="M60.7,38.7H8.6c-4.8,0-8.6-3.9-8.6-8.6V8.6C0,3.9,3.9,0,8.6,0h52.1c4.8,0,8.6,3.9,8.6,8.6
				v21.5C69.3,34.8,65.5,38.7,60.7,38.7z"/>
			
				<linearGradient id="SVGID_4_" gradientUnits="userSpaceOnUse" x1="34.65" y1="4.6433" x2="34.65" y2="44.3236" gradientTransform="matrix(1 0 0 -1 0 44)">
				<stop  offset="0" style="stop-color:#3B803D"/>
				<stop  offset="0.2574" style="stop-color:#3A7E3C"/>
				<stop  offset="0.5035" style="stop-color:#387639"/>
				<stop  offset="0.7452" style="stop-color:#336934"/>
				<stop  offset="0.9828" style="stop-color:#2C582B"/>
				<stop  offset="1" style="stop-color:#2B572B"/>
			</linearGradient>
			<path style="fill:url(#SVGID_4_);" d="M60.7,38.7H8.6c-4.8,0-8.6-3.9-8.6-8.6V8.6C0,3.9,3.9,0,8.6,0h52.1c4.8,0,8.6,3.9,8.6,8.6
				v21.5C69.3,34.8,65.5,38.7,60.7,38.7z"/>
		</g>
	</g>
	<path style="display:inline;fill:#FFFFFF;" d="M30,24.9l-6.2-6.2l-2.1,2.1l8.3,8.3l17.7-17.7l-2.1-2.1L30,24.9z"/>
</g>
</svg>
