<?xml version="1.0" encoding="utf-8"?>
<!-- Generator: Adobe Illustrator 20.1.0, SVG Export Plug-In . SVG Version: 6.00 Build 0)  -->
<svg version="1.1" id="Layer_1" xmlns="http://www.w3.org/2000/svg" xmlns:xlink="http://www.w3.org/1999/xlink" x="0px" y="0px"
	 viewBox="0 0 800 176.7" style="enable-background:new 0 0 800 176.7;" xml:space="preserve">
<style type="text/css">
	.st0{fill:#00A7EE;}
	.st1{fill:#010101;}
	.st2{fill:#1E0E00;}
	.st3{fill:#0088C6;}
	.st4{fill:#31100D;}
	.st5{fill:#031825;}
	.st6{fill:#CDCAC5;}
	.st7{fill:#1A1119;}
</style>
<title>butterflynew3</title>
<g id="_Group_">
	<path class="st0" d="M99.8,79.8c1.7,0.9,3.8,0.4,5.6,1.1c2.9,1.2,5.7,2.5,8.5,4.1c6.4,13.3,0.6,23.1,12.8,31.9
		c-0.9,0.8-1.8,1.6-2.5,2.6c-1.7,2.8,1.8,6.1,0.2,8.7c-1,1.5-4.5-3.5-7.1,0.7c-1.1,1.8-1,4.4-1.8,6.5c-4.2-1.4-9.6-4.7-13.2,0.2
		c-0.4,0.7-1.3,1-2,0.7c-0.1,0-0.2-0.1-0.2-0.1c-1.3-0.9-2.7-3.1-3.8-3.8c-1.5-0.9-5.3,3.6-6.7,2.8c-1.6-1-0.4-6.1-3.5-8.3
		c-0.3-0.2-0.3-0.8-0.2-1.1c0.9-2.7,0.9-5.5-0.1-8.2c1.2-16.5,12.9-24,14-37.5c-11.5,7.1-13.2,20.8-27.6,29.2
		c-2.8,0.3-5.4,1.6-7.4,3.5c-0.3,0.2-0.7,0.5-1.1,0.3c-3.3-1.8-7.4,1.5-9,0.6c-1.4-0.8,1-6.3-0.5-7.2c-1.1-0.7-3.8-1-5.1-1.7
		c-0.7-0.3-1-1.2-0.7-1.9c0-0.1,0.1-0.2,0.2-0.3c2.9-5.4-2.5-8.8-5.7-11.9c1.5-1.6,3.8-2.6,5-4.5c2.6-4.2-3.4-5.2-2.5-6.7
		c1.6-2.6,6.2-1,7.9-3.7c0.5-1.1,0.9-2.2,1.2-3.4c13.3,6.9,19.6-2.5,34.4-2.7c2.6,1.7,5.1,3.6,7.4,5.7
		C97.8,76.6,98.3,78.7,99.8,79.8z"/>
	<path class="st1" d="M134.9,126.1c-1.6,2.5-5.1-0.4-6.4,1.7c-1,1.5,2,4.8,0,7.9c-2.5,3.9-6.9-1.8-8.7,1c-0.8,1.4-1,4.5-2.4,6.7
		c-2.1,3.4-4.1-1.8-9.1,4c-0.6,0.7-2.6,0-3,0.7c-5.9,9.5-3.6,18.5-5.8,22.1c-0.8,1.4-1.8,2.3-3.8,1c-3.7-2.3-0.6-6.9,2-11.1l1.2-1.9
		c1.4-2.2,0.8-7.3-1.9-8.9c-2.7-1.7-5.1,1.9-6.3,1.2c-0.8-0.5-0.3-2.2-1.7-3c-2.4-1.5-4.5,1.8-7.2,0.2c-2.9-1.8,3.5-7.6,1-9.2
		c-0.5-0.3-1.3-0.6-1.9-1c-3.5-2.2,4.8-8.1,4.6-16.1c0-1.4,0-2.7,0.1-3.9c0.9,2.6,1,5.5,0.1,8.2c-0.1,0.3-0.1,0.9,0.2,1.1
		c3.1,2.2,1.9,7.3,3.5,8.3c1.4,0.8,5.3-3.7,6.7-2.8c1.1,0.7,2.5,3,3.8,3.8c0.7,0.5,1.6,0.4,2.1-0.3c0.1-0.1,0.1-0.2,0.1-0.2
		c3.6-4.9,9-1.6,13.2-0.2c0.8-2,0.7-4.6,1.8-6.5c2.6-4.2,6.2,0.8,7.1-0.7c1.6-2.6-1.9-5.9-0.2-8.7c0.7-1,1.6-1.8,2.5-2.6
		c-12.1-8.9-6.4-18.6-12.8-31.9l1.4,0.8C139.8,101,136.2,124.1,134.9,126.1z"/>
	<path class="st1" d="M42.6,69c-1.6,2.5,2.6,4.4,1.3,6.5c-1,1.5-5.2,0.3-7.2,3.5c-2.5,3.9,4.7,5.3,2.9,8.2c-0.8,1.4-3.6,2.9-5,5.1
		c-2.1,3.4,3.4,2.9,0.4,9.9c-0.4,0.8,1.2,2.3,0.7,3c-5.9,9.5-15.1,11.4-17.3,14.9c-0.8,1.4-1.3,2.6,0.8,3.8c3.7,2.3,6.5-2.5,9.1-6.7
		l1.2-1.9c1.4-2.2,6.2-3.9,8.9-2.3c2.7,1.6,0.6,5.4,1.7,6.1c0.8,0.5,2.1-0.7,3.5,0.2c2.4,1.5,0.3,4.8,3,6.5c2.9,1.8,5.3-6.5,7.8-4.9
		c0.5,0.3,1.1,0.9,1.7,1.3c3.5,2.2,5.2-7.9,12.5-11.2c1.2-0.6,2.4-1.2,3.5-1.8c-2.8,0.3-5.4,1.6-7.4,3.5c-0.3,0.2-0.7,0.5-1.1,0.3
		c-3.3-1.8-7.4,1.5-9,0.6c-1.4-0.8,1-6.3-0.5-7.2c-1.2-0.6-3.8-0.9-5.1-1.7c-0.7-0.3-1.1-1.2-0.7-1.9c0-0.1,0.1-0.2,0.2-0.3
		c2.9-5.4-2.5-8.8-5.7-11.9c1.5-1.6,3.8-2.6,5-4.5c2.6-4.2-3.4-5.2-2.5-6.7c1.6-2.6,6.2-1,7.9-3.7c0.5-1.1,0.9-2.2,1.2-3.4
		c13.3,6.9,19.6-2.5,34.4-2.7l-1.4-0.8C63,53.5,43.9,66.9,42.6,69z"/>
</g>
<path class="st2" d="M113.2,89.9c-3.7,10,1.9,5-7.8,30c-0.8,2.1-2.9,7-4.9,8.1l-0.2-0.2c0.2-0.5,0.5-1,0.8-1.5
	c4-6.1,9-21.2,9.5-23.9c0.5-2.8,0.4-7.6,2.3-12.6L113.2,89.9z"/>
<path class="st2" d="M108.5,87c-6.5,6.9-9,3.2-25.2,22.9c-1,1.1-1.9,2.4-2.6,3.8c-0.2,0.5-0.6,1-1,1.4l-0.2-0.1
	c0.1-3.7,9.5-12.6,12.7-15.8c6.8-6.4,4.6-4.3,11.1-8.4c1.8-1.1,3.4-2.5,4.9-4L108.5,87z"/>
<path class="st2" d="M97.8,88c0.6,3.6,1.7,4.2,1.8,6.5c0.3,6.3,1.1,17.8,7.2,15.6c0.5-0.2,0.3-0.2,0.6-0.6l1.1-1.6
	c2.7-3.9-2.6-7.1-1.7-13L107,95c-0.9,5.8,4.5,8.9,1.7,13.1c-1.5,2.2-1.3,2.4-2.8,2.5c-7.3,0.6-6.2-15.5-7.5-18.6
	c-0.6-1.2-0.9-2.6-0.8-4H97.8z"/>
<path class="st2" d="M109.7,85.4c-1.2,0.7-2.5,1-3.9,1c-3,0.2-3,1.1-9.1,3C92,90.9,86,91.8,85.5,86.9c0-0.6,0.1-0.5,0.3-1
	c1-1.7,1.3-2.3,2.2-3.1c3.1-2.1,7.1,0.1,11.3-2.8l0.1,0.2c-5.6,3.8-10.6-1.1-13.6,6.3c0,0.5,0,0.9,0.2,1.3c2.1,5.1,12,0.8,17-1.4
	c2.1-1,3.2-0.3,6.6-1.3L109.7,85.4z"/>
<path class="st2" d="M109.5,104.6c9.9,7.4,14.5,16.2,15.3,18.9l-0.2,0.1C122.3,120.9,119.9,113.5,109.5,104.6z"/>
<path class="st2" d="M89.5,82.1c-12.6-5.3-20.2-4.2-23.9-5v-0.3C68.8,76.3,79.1,76.9,89.5,82.1z"/>
<path class="st2" d="M107.8,109.1c7.5,15.6,3.4,7.5,10.3,23.2c0.2,0.3,0.3,0.7,0.3,1.1l-0.2,0.1c-0.3-0.3-0.5-0.6-0.6-1
	C111.4,117.9,116.1,128.1,107.8,109.1z"/>
<path class="st2" d="M86.2,85.6c-21.2,1.1-9.8,0.7-25.5,1.7c-0.4,0.1-0.8,0-1.2-0.1V87c0.3-0.2,0.7-0.3,1.1-0.3
	C78.3,85.9,68.5,85.8,86.2,85.6z"/>
<path class="st2" d="M104.9,110.5c-0.4,6.4,1.2,15.3,0.7,26.1l-0.9-0.1C105.5,125.7,104.2,116.9,104.9,110.5z"/>
<path class="st2" d="M86.2,88.9c-5.7,3.5-13.8,6-23.4,11.7l-0.5-0.8C72.3,94.4,80.4,92.2,86.2,88.9z"/>
<path class="st2" d="M102.6,108.7c-1.3,6-2.3,3.5-4,13.3c-1.1,6.4-0.5,3.3-2.7,13.7l-0.8-0.2c2.5-10.4,1.7-6.8,3.6-16.2
	C99.6,114.6,101.4,113.5,102.6,108.7z"/>
<path class="st2" d="M88.9,90.1c-3.2,2.7-3.4,4-6,6.5c0,0-8.1,6.4-15,12l-0.5-0.6C86.6,93.2,80,99.6,86.9,91.8
	C87.5,91.2,88.2,90.6,88.9,90.1z"/>
<path class="st2" d="M116.5,102.4c-5.3,10.6-7.7,25.3-14.5,30.8l-0.2-0.1c0.4-1,0.9-1.9,1.5-2.8
	C111.9,116.6,109.5,114.5,116.5,102.4z"/>
<path class="st2" d="M95.6,89.4c-7.5,11.3-11,10.8-19.2,24.2c-0.5,0.9-1.1,1.8-1.9,2.6l-0.2-0.1C76.2,107.9,88.8,98.4,95.6,89.4z"/>
<g id="_Group_2">
	<path class="st3" d="M123.6,81.4c-0.8-0.8-1.3-1.3-1.1-1C122.8,80.7,123.2,81.1,123.6,81.4z M89.3,59.8c0.3,0-0.4-0.2-1.4-0.5
		C88.7,59.6,89.1,59.8,89.3,59.8z M103,74.7c1-0.7,2-1.5,3.1-2.2c9.2,2.4,20.4,1.5,26.4-7.1c3.2-4.5,9.3-2.8,14.4-2.7
		c-0.3,0.3-0.5,0.6-0.8,1c-1.1,1.7,0,2.8,1.6,3.7c7.1,4.4-7.8-1.3,3.6,8.7c-2.8,0.3-5.8-0.2-8.7-0.2c0.9,2.4,3.9,2.9,4.3,5.5
		c-2.6-0.3-5.2-1.1-7.5-2.5c-0.8-0.5-0.7-0.3-0.7-0.3c1.6,1.7,3.2,3.5,4.6,5.3c0.8,1.2,2.1,3.2,2.3,3.4c2.5,2.7-5.5-0.9-12.7-5.4
		c-0.9-0.6-1.7-1.2-2.5-1.9l0,0c0,0,17.2,17.6,10.5,13.5c-5.3-3.3-4.4-2-11.5-6.1c-0.1-0.1-1.9-1.9-3.6-3.8
		c-0.7-0.8-1.4-1.5-2.1-2.2c0.6,0.6,1.3,1.4,2.1,2.2c0.4,0.5,0.8,1,1.2,1.5c0.2,0.2,12.8,16.4,8.5,13.7c-3-1.8-6.7-2.2-9.7-4
		c-0.8-0.5-1.5-1.1-2.1-1.8c4,4.8,7.4,10.4,11.5,15l-0.6-0.4c-7.4-4.6-13.4-10.5-18.7-13.8c-2.8-1.7-5.8-3.3-8.7-5
		c-3.4-1.9-6.3-4.5-8.5-7.7c-3.8-0.6-7.5-2-10.7-4.2c-2.8-1.7-5.5-3.7-8.3-5.5c-5.4-3.3-13.3-6-20.8-10.6l-0.6-0.4
		c6,1.7,12.5,2.3,18.7,3.7c-0.9-0.2-1.7-0.6-2.5-1.1c-2.9-1.8-4.9-5-7.9-6.9c-4.2-2.6,15.9,1.5,16.2,1.5c0.7,0.1,1.4,0.3,1.9,0.4
		l2.9,0.9c-0.9-0.4-1.9-0.7-2.9-0.9c-2.4-0.8-4.9-1.5-5-1.5c-6.9-4.6-5.3-4.4-10.6-7.6c-6.7-4.1,16.8,3.4,16.8,3.4l0,0
		c-1-0.3-1.9-0.8-2.8-1.3c-7.3-4.4-14.1-10-10.5-9c0.3,0.1,2.7,0.3,4.1,0.5c2.3,0.4,4.6,1,6.8,1.7c0-0.1,0.2,0-0.6-0.5
		c-2.3-1.4-4.2-3.3-5.7-5.6c2.5-0.8,4.4,1.7,6.9,1.4c-1.3-2.6-3.1-5-4.1-7.7c14.1,5.8,2.4-4.9,9.4-0.6c1.6,1,3,1.5,4.1-0.3
		c0.2-0.3,0.4-0.7,0.5-1.1c2.3,4.6,6.6,9.3,3.9,14.1c-5.1,9.1-0.9,19.6,5.3,26.7C103.4,72.3,103.2,73.6,103,74.7z"/>
	<path class="st1" d="M132.9,81.9c7.2,4.5,15.2,8.1,12.7,5.4c-0.2-0.2-1.5-2.2-2.3-3.4c-1.4-1.9-2.9-3.6-4.6-5.3
		c0,0-0.1-0.2,0.7,0.3c2.3,1.4,4.8,2.2,7.5,2.5c-0.5-2.6-3.5-3.2-4.3-5.5c2.9,0,5.9,0.5,8.7,0.2c-11.4-10,3.4-4.3-3.6-8.7
		c-1.6-1-2.6-2-1.6-3.7c0.2-0.3,0.5-0.7,0.8-1c-5.2-0.1-11.3-1.8-14.4,2.7c-6,8.6-17.2,9.4-26.4,7.1c17.1-11.5,48.3-21.6,67.6-9.6
		c5.9,3.6,10.9,11.8,8.3,16.1c-1.7,2.7-10.9,5.1-16.5,14c-1.1,1.7-2.2,4.1-2.2,4.2c-1.7,2.7-5.4,3.4-8,5.6
		c-5.4,4.7-8.1,12.3-19.9,5.3c-4.3-4.6-7.6-10.1-11.5-15c0.6,0.7,1.3,1.3,2.1,1.8c2.9,1.8,6.7,2.2,9.7,4c4.2,2.6-8.4-13.6-8.5-13.7
		c-0.4-0.6-4.3-4.6-4.6-5.1c2.3,2.4,4.8,4.6,7.4,6.5c5.2,4.1,5.9,3.6,11.2,6.9c6.7,4.1-10.5-13.5-10.5-13.5l0,0
		C131.2,80.8,132,81.4,132.9,81.9z"/>
	<path class="st1" d="M83.2,51.2c-7.3-4.4-14.1-10-10.5-9c0.3,0.1,2.7,0.3,4.1,0.5c2.3,0.4,4.6,1,6.8,1.7c0,0,0.2,0-0.6-0.5
		c-2.2-1.4-4.1-3.3-5.6-5.6c2.5-0.8,4.4,1.7,6.9,1.4c-1.3-2.6-3.1-5-4.1-7.7c14.1,5.8,2.4-4.9,9.4-0.6c1.6,1,3,1.5,4.1-0.3
		c0.2-0.3,0.4-0.7,0.5-1.1c2.3,4.6,6.6,9.3,3.9,14.1c-5.1,9.1-0.9,19.6,5.3,26.7c2.8-20.4-2-52.7-21.2-64.6
		c-5.9-3.6-15.5-4.5-18.2-0.3c-1.7,2.7,0.2,12-5.4,20.9c-1.1,1.7-2.8,3.8-2.8,3.8c-1.7,2.7-0.6,6.3-1.5,9.6
		c-1.9,6.9-7.5,12.6,4.1,20.1c6,1.7,12.5,2.3,18.7,3.7c-0.9-0.2-1.7-0.6-2.5-1.1c-2.9-1.8-4.9-5-7.9-6.9c-4.2-2.6,15.9,1.5,16.2,1.5
		c0.7,0.1,6,1.8,6.6,1.9c-3.2-1-6.2-2.2-9.2-3.7c-6-2.8-5.9-3.6-11.2-6.9c-6.7-4.1,16.8,3.4,16.8,3.4l0,0
		C85.1,52.2,84.1,51.8,83.2,51.2z"/>
</g>
<path class="st2" d="M150.9,64.7c3.8-3.2,8.7,1.8,10.1,0.9c2.6-3.2,3.3-4.4,6.3-4.4v0.2c-1,0-1.9,0.2-2.7,0.8
	c-5.4,4.7-1.4,4.9-8.1,2.4c-3.9-1.6-5.5,0.3-5.5,0.3L150.9,64.7z"/>
<path class="st2" d="M115.5,44.8c0.2-0.9,0.1-1.9-0.3-2.7c-0.9-1.9-3.2-3.2-4.5-4.4c-1.7-1.6-0.1-1.3,1.2-6.1c0-1.8,0.1-1.4-0.5-2.7
	l0.2-0.1c1.3,2.7,0.6,3.8-1.2,7.6c-0.2,1.6,6.5,3.8,5.3,8.7L115.5,44.8z"/>
<path class="st2" d="M141.9,65.6c0.4,0.2,0.7,0.2,1.1,0.7c1.8,2.6,0.4,8.7-0.3,9.8c-4.3,6.3-24.4,3.7-36.3,4.1
	c-6.7,0.2-6.9,1.4-8.6-3c-5-12.5-16.3-28-14.3-35.7c0.3-1.7,1-2.5,4-4.4c2.1-1.3,4.8-2.7,6.4-1.1l-0.2,0.2c-1.4-1.6-4.3-0.1-6.1,1.1
	c-6.7,4.5-5,7.3,6.3,30.4c1,2.1,2,4.1,2.9,6.3c1.6,3.9,1.6,5,2.8,6.3l0,0c1.1,0.2,2.3,0.2,3.4,0c13.8-1.6,34.2,1.5,39-3.7
	c1.5-1.3,2.7-8.3,0.6-10.3c-0.1-0.2-0.5-0.3-0.7-0.4L141.9,65.6z"/>
<path class="st2" d="M125.6,95.1c-0.5-0.4-5.3-4.6-5.8-5c-9.8-8-12.8-5.3-21-8.7c-1.4-1.3-2-1.6-5.2-5.8c-5.2-6.4-6.6-6.9-19-12.1
	v-0.1C96,70.5,90.8,73.6,99,81.1l0,0c10.1,4,11-1.8,26.6,14L125.6,95.1z"/>
<path class="st2" d="M101.9,82c0.6,0.1,1,0.6,1.4,1c3.8,2.6,5.8,3.3,5.7,6.9c-0.3-5-6.4-5.4-7.3-7.7L101.9,82z"/>
<path class="st2" d="M113.1,79.2c-2.3,0.2-5.5-5-10.1-3.1c2.8-1.5,4.5-0.5,7.2,1.1c0.9,0.5,1.8,1,2.7,1.4c0.1,0.1,0.3,0.2,0.4,0.3
	L113.1,79.2z"/>
<path class="st2" d="M99.2,84.3c2.5,7.9,0.6,6.2,13.5,14.3c8.9,5.5,12.7,9,16.1,13.1l-0.2,0.2c-3.1-3.8-6.8-7.4-16-12.9
	c-13.1-8.1-12-6.7-13.6-14.4L99.2,84.3z"/>
<path class="st2" d="M112.4,82.6c-7.5,1.9-5.9,2.4-19-5.7c-9.3-5.8-14.2-7.5-18.8-8.6l0.1-0.3c15.5,3.7,26,15.5,32.6,15.1
	c2.6-0.5,3.5-0.6,5.1-0.8L112.4,82.6z"/>
<path class="st4" d="M103.6,73.4c-1.1,3.1-0.8,7.7-2.3,11.2c0,0.1-6.1,8-6.1,8c-0.3,0.5-10.2,14.1-11.8,13.1s6.4-15.4,6.7-15.9
	c0,0,4.3-9.2,4.4-9.3C97,77.5,101.2,75.7,103.6,73.4z"/>
<path class="st5" d="M125.9,63.8c1,0.7,0.7,3.7,0.2,4.5c-0.4,0.6-0.8,0.6-2.2-0.3l-0.1-0.1l-0.3-0.2l-0.3-0.2l-0.1-0.1
	c-1.4-0.8-1.6-1.3-1.2-1.8C122.3,64.8,124.8,63.3,125.9,63.8z"/>
<path class="st6" d="M126.4,65.4c-0.1,0.1-0.1,0.2-0.2,0.3c-0.4,0.5-0.4,1.2-0.1,1.7c0.2,0.1,0.5,0.2,0.9-0.3
	c0.3-0.5,0.2-1.3-0.4-1.6L126.4,65.4z"/>
<path class="st6" d="M124.2,64c0,0.1-0.1,0.2-0.2,0.3c-0.5,0.8-1.3,1-1.5,0.8c-0.2-0.1-0.4-0.4-0.1-0.9c0.4-0.5,1.1-0.7,1.6-0.3
	L124.2,64z"/>
<path class="st7" d="M107.3,67.4l0.5,0.3c0.3,0.2,0.6,0.4,0.8,0.7c1.5,2.1,1.1,4.6-0.3,6.7c-1.9,3.1-6,5.5-6.2,5.5
	c-1.1,0.6-4.7-1.5-4.6-2.9c0.1-0.6,0.3-4.8,2.3-7.9c1.4-2.2,3.4-3.5,6-3.1c0.3,0.1,0.7,0.2,1,0.4C107,67.1,107.2,67.2,107.3,67.4z"
	/>
<path class="st7" d="M125.5,65c2.2-5.7,21.1-2.3,26.9-7.7c1.5-1.4,1.4-2.3,1-2.2l-0.1,0.1l0.1-0.1c0.1,0,0.2,0,0.2,0.1
	c0.1,0.2-0.1,0.6-0.3,1c-4.2,7-22.8,2.9-27.6,9L125.5,65z"/>
<path class="st7" d="M125.2,64.1c2.2-5.1-6.8-22.9-5.8-27.5c0.1-0.4,0.2-0.8,0.5-0.8c0.3,0,0.1,0.3,0.1,0.3c0,0,0.1-0.2-0.1-0.3
	c-2.1-0.1,2.3,12,3,13.9c2.6,7.6,3.9,12,2.9,14.6L125.2,64.1z"/>
<g id="_Group_3">
	<path class="st0" d="M299.6,81.6c1.6,1,3.7,0.6,5.4,1.5c2.8,1.4,5.5,2.9,8,4.7c5.4,13.7-0.8,23.1,10.6,32.8c-1,0.7-1.8,1.5-2.6,2.4
		c-1.9,2.6,1.4,6.2-0.4,8.7c-1,1.4-4.2-3.7-7,0.2c-1.2,1.7-1.2,4.3-2.2,6.3c-4-1.7-9.2-5.3-13-0.7c-0.4,0.7-1.3,0.9-2,0.5
		c-0.1,0-0.2-0.1-0.2-0.2c-1.2-0.9-2.5-3.3-3.5-4c-1.4-1-5.5,3.3-6.8,2.3c-1.3-1,0-6.1-2.9-8.5c-0.3-0.3-0.3-0.7-0.1-1.1
		c1-2.6,1.2-5.5,0.4-8.2c2.2-16.4,14.1-23,16.1-36.4c-11.9,6.2-14.3,19.8-28.9,27.2c-2.8,0.1-5.4,1.2-7.5,3
		c-0.3,0.3-0.7,0.4-1.1,0.2c-3.2-2-7.4,1.1-8.9,0c-1.5-1.1,1.3-6.3,0-7.2c-1.1-0.8-3.7-1.2-4.9-2.1c-0.7-0.4-0.9-1.3-0.5-2
		c0-0.1,0.1-0.1,0.2-0.2c3.1-5.2-1.9-8.9-4.8-12.2c1.5-1.5,4-2.4,5.2-4.1c2.8-4-3-5.4-2-6.8c1.8-2.5,6.1-0.5,8-3.2
		c0.6-1,1.1-2.1,1.4-3.3c12.7,7.8,19.4-1.2,34-0.4c2.5,1.9,4.8,4,7,6.2C297.8,78.4,298.1,80.5,299.6,81.6z"/>
	<path class="st1" d="M331.2,130.2c-1.7,2.4-5-0.7-6.4,1.3c-1,1.5,1.7,4.9-0.5,7.9c-2.7,3.8-6.7-2.3-8.6,0.4c-1,1.3-1.2,4.4-2.8,6.6
		c-2.3,3.2-3.9-2-9.2,3.5c-0.6,0.6-2.5-0.2-3,0.5c-6.5,9.1-4.7,18.3-7,21.6c-0.9,1.3-1.9,2.1-3.8,0.8c-3.4-2.5-0.2-6.9,2.7-10.9
		l1.3-1.9c1.5-2.1,1.2-7.2-1.3-9c-2.5-1.8-5.2,1.5-6.3,0.7c-0.7-0.5-0.1-2.2-1.5-3.2c-2.3-1.7-4.5,1.5-7.1-0.3
		c-2.6-1.9,3.9-7.4,1.6-9.1c-0.5-0.3-1.2-0.7-1.8-1.1c-3.3-2.4,5.2-7.8,5.5-15.7c0-1.3,0.2-2.6,0.3-3.9c0.8,2.7,0.6,5.6-0.4,8.2
		c-0.1,0.3-0.2,0.8,0.1,1.1c2.9,2.4,1.4,7.4,2.9,8.5c1.5,1.1,5.4-3.3,6.8-2.3c1.1,0.8,2.3,3.1,3.5,4c0.6,0.5,1.5,0.5,2-0.1
		c0.1-0.1,0.1-0.2,0.2-0.2c3.9-4.7,9-1,13,0.7c1-2,1-4.6,2.2-6.3c2.8-4,6.1,1.2,7-0.2c1.8-2.5-1.5-6.1,0.4-8.7
		c0.8-0.9,1.7-1.7,2.6-2.4c-11.3-9.6-5.1-19-10.6-32.8c0.5,0.3,0.9,0.6,1.3,1C337.5,105.5,332.6,128.2,331.2,130.2z"/>
	<path class="st1" d="M244,67.1c-1.7,2.4,2.3,4.6,0.9,6.6c-1,1.5-5.1,0-7.3,3c-2.7,3.8,4.3,5.6,2.4,8.4c-1,1.3-3.7,2.6-5.3,4.8
		c-2.3,3.2,3.2,3.1-0.2,9.9c-0.4,0.8,1,2.4,0.5,3.1c-6.5,9.1-15.6,10.4-18,13.7c-0.9,1.3-1.4,2.5,0.5,3.9c3.4,2.5,6.5-2.1,9.3-6.1
		l1.3-1.8c1.5-2.1,6.3-3.5,8.8-1.7c2.5,1.8,0.2,5.4,1.3,6.2c0.7,0.5,2.1-0.6,3.4,0.4c2.3,1.7,0,4.9,2.6,6.7c2.6,1.9,5.6-6.1,8-4.4
		c0.5,0.3,1,1,1.6,1.4c3.3,2.4,5.6-7.5,13-10.3c1.3-0.5,2.4-1,3.6-1.6c-2.8,0.1-5.4,1.2-7.5,3c-0.3,0.3-0.7,0.4-1.1,0.2
		c-3.2-2-7.4,1.1-8.9,0c-1.5-1.1,1.3-6.3,0-7.2c-1.1-0.8-3.7-1.2-4.9-2.1c-0.7-0.4-0.9-1.3-0.5-2c0-0.1,0.1-0.1,0.2-0.2
		c3.1-5.2-1.9-8.9-4.8-12.2c1.5-1.5,4-2.4,5.2-4.1c2.8-4-3-5.4-2-6.8c1.8-2.5,6.1-0.5,8-3.2c0.6-1,1.1-2.1,1.4-3.3
		c12.7,7.8,19.4-1.2,34-0.4c-0.4-0.3-0.9-0.7-1.3-1C265,53,245.4,65.1,244,67.1z"/>
</g>
<path class="st2" d="M296.1,91.6c-4.3,9.6,1.5,5.1-9.5,29.5c-1,2.1-3.3,6.7-5.3,7.7l-0.2-0.2c0.2-0.5,0.6-1,1-1.4
	c4.3-5.9,10.2-20.5,10.8-23.2c0.7-2.8,0.7-7.6,2.9-12.4L296.1,91.6z"/>
<path class="st2" d="M291.7,88.4c-6.7,6.5-9.1,2.6-26.2,21.2c-1,1.1-2,2.3-2.7,3.6c-0.3,0.5-0.6,1-1,1.4l-0.2-0.1
	c0.3-3.7,10.1-12,13.5-14.9c7.1-5.9,4.8-3.9,11.4-7.6c1.8-1,3.5-2.2,5.1-3.7L291.7,88.4z"/>
<path class="st2" d="M297.2,89.7c0.3,3.6,1.4,4.2,1.3,6.6c-0.1,6.3,0,17.8,6.1,16c0.5-0.1,0.4-0.2,0.6-0.6l1.2-1.5
	c2.9-3.7-2.2-7.3-0.9-13l0.2,0.1c-1.2,5.7,3.9,9.2,0.9,13.1c-1.6,2.1-1.4,2.3-2.9,2.3c-7.2,0.1-5.1-15.9-6.2-19.1
	c-0.5-1.3-0.7-2.6-0.5-4L297.2,89.7z"/>
<path class="st2" d="M292.9,86.8c-1.2,0.6-2.5,0.9-3.9,0.8c-3,0-3.1,1-9.1,2.5c-4.7,1.1-10.7,1.6-10.9-3.2c0-0.6,0.1-0.5,0.4-1
	c1.1-1.6,1.4-2.2,2.4-3c3.2-1.9,7,0.5,11.3-2l0.1,0.2c-5.8,3.5-10.4-1.8-13.8,5.3c-0.1,0.5,0,0.9,0.1,1.3c1.7,5.2,11.7,1.6,16.8-0.3
	c2.1-0.8,3.2,0,6.6-0.8L292.9,86.8z"/>
<path class="st2" d="M307.6,107.1c9.3,8.1,13.2,17.2,13.9,20l-0.2,0.1C319.1,124.2,317.2,116.7,307.6,107.1z"/>
<path class="st2" d="M273.2,82.2c-12.1-6.2-19.6-5.5-23.2-6.6v-0.3C253.3,75,263.3,76.3,273.2,82.2z"/>
<path class="st2" d="M305.6,111.5c6.4,16,2.8,7.7,8.7,23.9c0.2,0.4,0.2,0.7,0.2,1.1l-0.2,0.1c-0.3-0.3-0.5-0.6-0.6-1
	C308.6,120.4,312.6,131,305.6,111.5z"/>
<path class="st2" d="M268.7,85.4c-21.6-0.4-10.1,0.1-26.1,0c-0.4,0-0.8,0-1.2-0.2v-0.3c0.4-0.2,0.8-0.2,1.2-0.2
	C260.6,85.2,250.6,84.4,268.7,85.4z"/>
<path class="st2" d="M302.7,112.7c-0.8,6.3,0.2,15.3-1,26.1l-0.9-0.2C302.4,127.9,301.7,119,302.7,112.7z"/>
<path class="st2" d="M268.5,88.8c-6,3.2-14.5,5.3-24.6,10.5l-0.4-0.8C253.9,93.5,262.3,91.8,268.5,88.8z"/>
<path class="st2" d="M300.5,110.7c-1.6,5.9-2.5,3.3-4.8,13c-1.5,6.3-0.7,3.3-3.5,13.5l-0.7-0.3c3.1-10.3,2.1-6.7,4.5-15.9
	C297.2,116.4,299,115.5,300.5,110.7z"/>
<path class="st2" d="M271.1,90.2c-3.4,2.5-3.7,3.9-6.5,6.4c0,0-8.6,6-16,11.4l-0.5-0.6c20.5-14.1,13.4-7.9,20.9-15.5
	C269.7,91.3,270.4,90.7,271.1,90.2z"/>
<path class="st2" d="M298.6,104.2c-5.8,10.2-9.2,24.7-16.2,29.8l-0.2-0.2c0.4-1,1-1.9,1.6-2.7C293.1,118.2,290.9,115.8,298.6,104.2z
	"/>
<path class="st2" d="M278.8,89.9c-8.1,10.7-11.5,10-20.4,22.8c-0.6,0.9-1.2,1.7-2,2.4l-0.2-0.1C258.5,107,271.5,98.4,278.8,89.9z"/>
<g id="_Group_4">
	<path class="st3" d="M322.9,84.9c-0.7-0.9-1.2-1.3-1-1.1C322,84,322.3,84.2,322.9,84.9z M290.5,61c0.3,0-0.4-0.2-1.4-0.6
		C289.9,60.8,290.3,61,290.5,61z M303,76.9c1-0.6,2-1.3,3.1-2c8.9,3,20,2.9,26.5-5.3c3.4-4.3,9.3-2.2,14.4-1.7
		c-0.3,0.3-0.6,0.6-0.8,1c-1.2,1.7-0.2,2.8,1.3,3.9c6.6,4.8-7.6-1.9,3,8.9c-2.8,0.1-5.7-0.6-8.6-0.8c0.7,2.4,3.7,3.2,3.9,5.8
		c-2.6-0.5-5-1.5-7.2-3c-0.8-0.5-0.6-0.4-0.7-0.4c1.5,1.8,2.9,3.6,4.2,5.6c0.7,1.2,1.8,3.3,2,3.6c2.3,2.9-5.4-1.2-12.2-6.2
		c-0.8-0.6-1.6-1.3-2.3-2.1l0,0c0,0,15.8,18.7,9.5,14.1c-5-3.6-4.2-2.2-11-6.9c-0.1-0.1-1.7-2.1-3.3-4c-0.6-0.8-1.2-1.6-1.9-2.3
		l1.9,2.3c0.4,0.5,0.7,1,1.1,1.6c0.2,0.2,11.6,17.2,7.5,14.3c-2.8-2-6.5-2.7-9.3-4.7c-0.7-0.5-1.4-1.2-1.9-1.9
		c3.6,5.1,6.6,10.8,10.5,15.7l-0.5-0.4c-7-5.1-12.5-11.4-17.5-15.1c-2.7-1.9-5.5-3.7-8.1-5.6c-3.2-2.1-5.9-4.9-7.9-8.2
		c-3.7-0.8-7.3-2.5-10.3-4.9c-2.6-1.9-5.2-4.1-7.8-6c-5.1-3.7-12.7-6.9-19.7-11.9l-0.5-0.4c5.8,2.1,12.1,3.1,18.1,4.9
		c-0.9-0.3-1.7-0.7-2.4-1.3c-2.8-2-4.5-5.3-7.4-7.4c-4-2.9,15.6,2.5,15.8,2.6c0.7,0.2,1.3,0.4,1.9,0.5l2.8,1.1
		c-0.9-0.4-1.8-0.8-2.8-1.1c-2.3-0.9-4.7-1.8-4.8-1.9c-6.5-5-4.9-4.7-10-8.3c-6.3-4.6,16.3,4.5,16.3,4.5l0,0
		c-0.9-0.4-1.8-0.9-2.7-1.5c-6.9-4.9-13.2-10.9-9.8-9.6c0.3,0.1,2.6,0.5,4,0.8c2.2,0.6,4.4,1.3,6.6,2.2c0-0.1,0.2,0-0.6-0.6
		c-2.1-1.6-3.9-3.6-5.1-5.9c2.6-0.6,4.2,2,6.7,1.9c-1.1-2.7-2.7-5.2-3.5-7.9c13.5,6.7,2.6-4.8,9.3,0c1.5,1.1,2.9,1.7,4,0
		c0.2-0.3,0.4-0.7,0.6-1.1c2,4.7,5.9,9.7,3,14.3c-5.6,8.8-2.1,19.5,3.6,27C303.6,74.5,303.3,75.7,303,76.9L303,76.9z"/>
	<path class="st1" d="M332,86c6.8,5,14.5,9.1,12.2,6.2c-0.2-0.3-1.3-2.3-2-3.6c-1.3-2-2.7-3.8-4.2-5.6c0,0-0.1-0.2,0.7,0.4
		c2.2,1.5,4.6,2.5,7.2,3c-0.3-2.6-3.2-3.4-3.9-5.8c2.8,0.2,5.8,1,8.6,0.8c-10.6-10.8,3.7-4.1-3-8.9c-1.5-1.1-2.5-2.2-1.3-3.9
		c0.2-0.3,0.5-0.7,0.8-1c-5.1-0.4-11-2.5-14.4,1.7c-6.5,8.2-17.5,8.3-26.5,5.3c17.6-10.4,48.8-18.3,67-5.1c5.5,4,10,12.5,7.1,16.6
		c-1.8,2.6-11,4.4-17.1,12.9c-0.9,1.3-1.7,2.7-2.5,4.1c-1.8,2.6-5.5,2.9-8.2,5c-5.6,4.3-8.7,11.7-19.9,3.9
		c-3.9-4.9-6.8-10.6-10.5-15.7c0.5,0.7,1.2,1.4,1.9,1.9c2.8,2,6.5,2.6,9.3,4.7c4,2.9-7.4-14.1-7.5-14.3c-0.4-0.6-3.9-4.9-4.3-5.4
		c2,2.5,4.3,4.9,6.7,7c4.9,4.4,5.5,4,10.5,7.6c6.3,4.6-9.5-14.1-9.5-14.1l0,0C330.3,84.7,331.1,85.4,332,86z"/>
	<path class="st1" d="M285.1,52.1c-6.9-4.9-13.2-10.9-9.8-9.6c0.3,0.1,2.6,0.5,4,0.8c2.2,0.6,4.4,1.3,6.6,2.2c0,0,0.2,0-0.6-0.6
		c-2.1-1.6-3.9-3.6-5.1-6c2.6-0.6,4.2,2,6.7,1.9c-1.1-2.7-2.7-5.2-3.5-7.9c13.5,6.7,2.6-4.8,9.3,0c1.5,1.1,2.9,1.7,4,0
		c0.2-0.3,0.4-0.7,0.6-1.1c2,4.7,5.9,9.7,3,14.4c-5.6,8.8-2.1,19.5,3.6,27c4-20.2,1.3-52.7-16.9-65.8c-5.5-4-15-5.5-17.8-1.5
		c-1.8,2.6-0.5,11.9-6.6,20.5c-1.2,1.6-2.9,3.6-3,3.7c-1.8,2.6-1,6.2-2.1,9.5c-2.3,6.7-8.2,12.1,2.8,20.3c5.8,2.1,12.1,3.1,18.1,4.9
		c-0.9-0.3-1.7-0.7-2.4-1.3c-2.8-2-4.5-5.3-7.4-7.4c-4-2.9,15.6,2.5,15.8,2.6c0.7,0.2,5.8,2.2,6.4,2.3c-3.1-1.2-6-2.6-8.8-4.3
		c-5.7-3.2-5.5-4-10.5-7.6c-6.3-4.6,16.3,4.5,16.3,4.5l0,0C286.8,53.2,285.9,52.7,285.1,52.1z"/>
</g>
<path class="st2" d="M356.9,68c4.2-3.1,8.8,2.5,10.3,1.6c2.9-3.2,3.7-4.3,6.7-4.1v0.3c-1-0.1-1.9,0.1-2.8,0.6
	c-5.8,4.5-1.7,5-8.4,1.9c-3.9-1.9-5.6-0.1-5.6-0.1L356.9,68z"/>
<path class="st2" d="M317.5,46.7c0.3-0.9,0.2-1.9-0.2-2.8c-0.8-1.9-2.9-3.4-4.2-4.7c-1.6-1.8,0-1.4,1.6-6c0.1-1.8,0.2-1.4-0.3-2.8
	l0.2-0.1c1.1,2.7,0.4,3.8-1.6,7.5c-0.3,1.6,6.2,4.2,4.7,9L317.5,46.7z"/>
<path class="st2" d="M341.8,70.4c0.4,0.2,0.6,0.2,1.1,0.8c1.6,2.7-0.2,8.7-0.9,9.7c-4.6,6-24.2,2.1-35.9,1.6c-6.6-0.3-6.9,1-8.2-3.5
	c-4.2-12.8-14.3-29-11.8-36.6c0.4-1.7,1.2-2.5,4.2-4.2c2.1-1.2,4.8-2.4,6.4-0.7l-0.2,0.2c-1.3-1.7-4.3-0.4-6.1,0.7
	c-6.9,4.1-5.4,7,4.3,30.7c0.9,2.1,1.7,4.3,2.4,6.4c1.4,4,1.3,5.1,2.3,6.5l0,0c1.1,0.3,2.2,0.4,3.4,0.3c13.7-0.7,33.5,3.8,38.5-1.1
	c1.5-1.2,3.2-8.2,1.3-10.3c-0.1-0.2-0.5-0.3-0.7-0.4L341.8,70.4z"/>
<path class="st2" d="M324,98.7c-0.5-0.5-5-5-5.4-5.4c-9.2-8.6-12.3-6.2-20.1-10c-1.3-1.3-1.8-1.7-4.7-6.1
	c-4.8-6.7-6.1-7.3-17.9-13.3v-0.1c20.6,8.3,15.3,11.1,22.9,19.2l0,0C308.4,87.5,309.6,81.8,324,98.7L324,98.7z"/>
<path class="st2" d="M301.5,84c0.6,0.2,0.9,0.7,1.4,1.1c3.6,2.9,5.5,3.6,5.1,7.2c0-5-6-5.9-6.7-8.1L301.5,84z"/>
<path class="st2" d="M296.7,80.8c-2.3,0.1-5.1-5.4-9.8-3.8c2.8-1.3,4.5-0.2,7,1.6c0.8,0.6,1.6,1.1,2.5,1.5c0.1,0.1,0.3,0.2,0.4,0.3
	L296.7,80.8z"/>
<path class="st2" d="M298.7,86.1c2,8,0.2,6.3,12.4,15.1c8.4,6.1,11.9,9.8,15,14.1l-0.2,0.1c-2.8-4-6.3-7.8-15-14
	c-12.4-8.9-11.3-7.5-12.4-15.3L298.7,86.1z"/>
<path class="st2" d="M295.7,84.2c-7.4,1.4-6,2-18.3-7c-8.8-6.5-13.5-8.4-17.9-9.8l0.1-0.2c15.1,4.7,24.6,17.2,31.1,17.2
	c2.6-0.3,3.5-0.3,5-0.5L295.7,84.2z"/>
<path class="st4" d="M303.7,75.5c-1.3,3.1-1.3,7.6-3,11c0,0.1-6.4,7.5-6.4,7.5c-0.3,0.5-10.9,13.4-12.4,12.3
	c-1.5-1.1,7.2-14.9,7.6-15.4c0,0,4.8-8.9,4.9-9C297,79.2,301.2,77.7,303.7,75.5z"/>
<path class="st5" d="M326.5,66.4c0.9,0.8,0.5,3.7-0.1,4.5c-0.4,0.6-0.8,0.6-2.1-0.4l-0.1-0.1l-0.3-0.2l-0.3-0.2l-0.1-0.1
	c-1.3-1-1.5-1.4-1.1-1.9C322.9,67.1,325.5,65.8,326.5,66.4z"/>
<path class="st6" d="M327,68l-0.2,0.3c-0.4,0.5-0.5,1.1-0.2,1.7c0.2,0.1,0.5,0.3,0.8-0.2c0.3-0.5,0.2-1.2-0.3-1.6L327,68z"/>
<path class="st6" d="M324.9,66.5c0,0.1-0.1,0.2-0.2,0.3c-0.5,0.8-1.3,0.9-1.5,0.7c-0.2-0.1-0.4-0.4-0.1-0.9c0.4-0.5,1.1-0.6,1.6-0.3
	L324.9,66.5z"/>
<path class="st7" d="M307.7,69.8c0.2,0.1,0.3,0.2,0.5,0.3c0.3,0.2,0.5,0.5,0.7,0.8c1.3,2.2,0.8,4.7-0.7,6.7c-2.1,3-6.3,5.1-6.4,5.1
	c-1.1,0.5-4.6-1.8-4.3-3.2c0.1-0.6,0.6-4.8,2.7-7.8c1.5-2.1,3.6-3.3,6.1-2.7c0.3,0.1,0.7,0.2,1,0.4
	C307.4,69.5,307.6,69.7,307.7,69.8z"/>
<path class="st7" d="M326,67.5c2.5-5.5,20.9-1,26.9-5.8c1.6-1.3,1.5-2.2,1.2-2.1l0,0c0.1,0,0.2,0.1,0.2,0.1c0.1,0.2-0.1,0.6-0.3,0.9
	c-4.6,6.7-22.6,1.4-27.7,7.1L326,67.5z"/>
<path class="st7" d="M325.8,66.7c2.5-5-5.3-23.3-4-27.8c0.1-0.4,0.3-0.7,0.5-0.7s0,0.3,0.1,0.3c0.1,0,0.1-0.2-0.1-0.3
	c-2.1-0.2,1.6,12.1,2.1,14c2.1,7.7,3.1,12.2,1.9,14.8L325.8,66.7z"/>
<g id="_Group_5">
	<path class="st0" d="M502.7,82.3c1.4,1,3.5,0.6,5.1,1.4c2.5,1.3,5,2.8,7.3,4.5c4.1,13.3-2.6,22.5,7.5,31.8c-1,0.7-1.9,1.5-2.7,2.4
		c-2,2.6,0.9,6-1.1,8.5c-1.1,1.4-3.8-3.6-6.7,0.3c-1.3,1.7-1.5,4.2-2.6,6.2c-3.7-1.6-8.4-5.1-12.4-0.5c-0.8,1-1.5,0.9-2.2,0.4
		c-1.1-0.9-2.1-3.2-3-3.9c-1.2-1-5.5,3.2-6.7,2.3c-1.3-1,0.5-5.9-2.1-8.2c-0.3-0.3-0.2-0.8,0-1.1c1.2-2.5,1.6-5.3,1.1-8
		c3.5-16,15.4-22.7,18.4-35.7c-11.9,6.2-15.3,19.4-30,26.8c-2.7,0.2-5.4,1.3-7.4,3c-0.3,0.2-0.7,0.5-1,0.3c-2.9-1.9-7.1,1.1-8.5,0
		c-1.4-1,1.8-6.1,0.5-7.1c-1-0.8-3.4-1.1-4.5-1.9c-0.6-0.5-0.9-1.2-0.2-2.2c3.4-5.1-1.1-8.7-3.6-11.9c1.6-1.5,4-2.3,5.3-4.1
		c3-3.9-2.5-5.2-1.4-6.6c1.9-2.5,6-0.5,8-3.1c0.7-1,1.2-2.1,1.6-3.2c11.6,7.4,18.8-1.4,32.7-0.8c2.2,1.8,4.3,3.8,6.2,5.9
		C501.3,79,501.4,81.1,502.7,82.3z"/>
	<path class="st1" d="M529.1,129.3c-1.9,2.4-4.7-0.6-6.3,1.3c-1.1,1.4,1.2,4.7-1.1,7.7c-2.9,3.7-6.2-2.2-8.3,0.5
		c-1,1.3-1.5,4.3-3.2,6.4c-2.4,3.2-3.6-1.9-9.1,3.4c-0.7,0.6-2.4-0.2-3,0.5c-6.9,9-6,17.9-8.5,21.2c-1,1.2-2,2.1-3.7,0.8
		c-3.1-2.4,0.4-6.7,3.5-10.7l1.4-1.8c1.6-2.1,1.8-7-0.5-8.8c-2.3-1.8-5.1,1.6-6.1,0.8c-0.7-0.5,0.1-2.1-1.2-3.1
		c-2.1-1.6-4.5,1.6-6.8-0.3c-2.5-1.9,4.4-7.2,2.2-8.9c-0.4-0.3-1.2-0.6-1.6-1c-3-2.3,5.6-7.7,6.5-15.4c0.1-1.3,0.3-2.6,0.6-3.9
		c0.5,2.7,0.1,5.5-1.1,8c-0.1,0.3-0.3,0.8,0,1.1c2.6,2.3,0.7,7.2,2.1,8.2c1.4,1,5.5-3.3,6.7-2.3c1,0.8,1.9,3,3,3.9
		c0.6,0.5,1.3,0.5,2.2-0.4c4-4.6,8.7-1.1,12.4,0.5c1.1-1.9,1.3-4.5,2.6-6.2c3-3.9,5.7,1.1,6.7-0.3c1.9-2.5-1-5.9,1.1-8.5
		c0.8-0.9,1.7-1.7,2.7-2.4c-10.1-9.3-3.4-18.5-7.5-31.8l1.2,0.9C537.2,105.1,530.6,127.3,529.1,129.3z"/>
	<path class="st1" d="M450.6,68.5c-1.9,2.4,1.8,4.4,0.3,6.4c-1.1,1.4-4.9,0-7.2,3c-2.9,3.7,3.7,5.5,1.6,8.1c-1,1.3-3.8,2.6-5.4,4.7
		c-2.4,3.2,2.8,3-1,9.6c-0.5,0.8,0.8,2.3,0.2,3c-6.9,9-15.8,10.2-18.3,13.5c-1,1.2-1.5,2.5,0.2,3.8c3.1,2.4,6.4-2.1,9.4-6l1.4-1.8
		c1.6-2.1,6.4-3.5,8.7-1.7c2.3,1.8-0.2,5.3,0.8,6.1c0.7,0.5,2-0.6,3.3,0.3c2.1,1.6-0.4,4.7,1.9,6.5c2.5,1.9,5.9-6,8-4.4
		c0.4,0.3,0.9,1,1.4,1.3c3,2.3,6-7.4,13.3-10.2c1.3-0.5,2.4-1,3.6-1.6c-2.7,0.2-5.4,1.3-7.4,3c-0.3,0.2-0.7,0.5-1,0.3
		c-2.9-1.9-7.1,1.1-8.5,0c-1.4-1,1.8-6.1,0.5-7.1c-1-0.8-3.4-1.1-4.5-1.9c-0.6-0.5-0.9-1.2-0.2-2.2c3.4-5.1-1.1-8.7-3.6-11.9
		c1.6-1.5,4-2.3,5.3-4.1c3-3.9-2.5-5.2-1.4-6.6c1.9-2.5,6-0.5,8-3.1c0.7-1,1.2-2.1,1.6-3.2c11.4,7.5,18.7-1.4,32.6-0.8
		c-0.4-0.3-0.8-0.6-1.2-1C471.9,54.7,452.1,66.6,450.6,68.5z"/>
</g>
<path class="st2" d="M498.6,91.9c-4.8,9.5,1.1,5-11.5,28.8c-1.1,2-3.7,6.7-5.8,7.6l-0.2-0.2c0.3-0.5,0.6-1,1-1.4
	c4.6-5.8,11.4-20.1,12.3-22.8s1.3-7.4,3.9-12.2L498.6,91.9z"/>
<path class="st2" d="M494.6,88.9c-7,6.4-8.9,2.6-26.9,20.9c-1.1,1.1-2.1,2.2-2.9,3.5c-0.3,0.5-0.7,1-1.1,1.3l-0.2-0.1
	c0.6-3.6,10.7-11.8,14.2-14.7c7.3-5.8,4.9-3.9,11.6-7.6c1.8-1,3.6-2.2,5.1-3.6L494.6,88.9z"/>
<path class="st2" d="M499.7,90.1c0,3.5,1,4.1,0.7,6.4c-0.6,6.1-1.4,17.3,4.5,15.6c0.5-0.1,0.4-0.2,0.7-0.5l1.2-1.5
	c3.1-3.6-1.5-7.1,0.2-12.7l0.2,0.1c-1.6,5.6,3,8.9-0.2,12.8c-1.7,2.1-1.5,2.2-3,2.3c-6.9,0.2-3.6-15.4-4.4-18.5
	c-0.4-1.3-0.5-2.6-0.2-3.9L499.7,90.1z"/>
<path class="st2" d="M495.9,87.3c-1.2,0.6-2.5,0.8-3.8,0.8c-2.9,0-3,1-9,2.5c-4.6,1.2-10.4,1.7-10.2-3.1c0-0.6,0.1-0.5,0.4-1
	c1.1-1.6,1.5-2.2,2.5-2.9c3.2-1.9,6.7,0.5,11-2.1l0.1,0.2c-5.8,3.5-9.8-1.7-13.7,5.3c-0.1,0.4-0.1,0.9,0,1.3
	c1.2,5.1,11.1,1.5,16.1-0.4c2.1-0.8,3-0.1,6.4-0.9L495.9,87.3z"/>
<path class="st2" d="M508.3,107c8.2,7.8,11.3,16.6,11.7,19.3l-0.2,0.1C518,123.5,516.8,116.2,508.3,107z"/>
<path class="st2" d="M477.4,83c-11.1-5.9-18.4-5.2-21.7-6.2v-0.2C458.9,76.2,468.4,77.4,477.4,83z"/>
<path class="st2" d="M506.1,111.3c4.8,15.6,2.1,7.5,6.4,23.2c0.1,0.4,0.2,0.7,0.1,1.1l-0.2,0.1c-0.3-0.3-0.4-0.6-0.5-1
	C508.2,120,511.1,130.2,506.1,111.3z"/>
<path class="st2" d="M473.8,86.3c-19.9-0.1-9.3,0.2-24.1,0.3c-0.4,0-0.7,0-1-0.2v-0.2c0.3-0.2,0.7-0.2,1.1-0.2
	C466.4,86.1,457.2,85.5,473.8,86.3z"/>
<path class="st2" d="M503.1,112.5c-1.3,6.2-1,14.9-3,25.5l-0.8-0.1C501.6,127.3,501.7,118.7,503.1,112.5z"/>
<path class="st2" d="M473.4,89.4c-5.8,3.1-13.8,5.1-23.5,10.1l-0.3-0.8C459.5,94,467.4,92.3,473.4,89.4z"/>
<path class="st2" d="M501.3,110.6c-2.1,5.8-2.7,3.3-5.7,12.8c-1.9,6.2-1,3.2-4.5,13.2l-0.7-0.2c3.8-10,2.5-6.6,5.7-15.6
	C497.6,116.1,499.4,115.2,501.3,110.6z"/>
<path class="st2" d="M475.7,90.8c-3.4,2.4-3.7,3.7-6.5,6.1c0,0-8.5,5.8-15.7,10.9l-0.4-0.6c20.1-13.5,13-7.6,20.5-14.8
	C474.3,91.8,475,91.2,475.7,90.8z"/>
<path class="st2" d="M499.9,104.3c-6.4,10-10.8,24.2-17.9,29.2l-0.2-0.1c0.5-0.9,1.1-1.8,1.8-2.6
	C493.5,117.9,491.6,115.6,499.9,104.3z"/>
<path class="st2" d="M482.1,90.5c-8.7,10.5-11.8,9.9-21.4,22.4c-0.6,0.9-1.3,1.7-2.1,2.4l-0.2-0.1
	C461.3,107.4,474.5,98.8,482.1,90.5z"/>
<g id="_Group_6">
	<path class="st3" d="M524.8,85.1c-0.6-0.8-1-1.3-0.9-1.1C524.2,84.5,524.5,84.8,524.8,85.1z M495.7,62.2c0.2,0-0.3-0.2-1.3-0.6
		C495.1,61.9,495.5,62.2,495.7,62.2z M506.4,77.5c1-0.6,2.1-1.3,3.2-1.9c8.3,2.9,19,2.6,25.8-5.4c3.6-4.2,9.1-2.2,13.9-1.8
		c-0.3,0.3-0.6,0.6-0.9,0.9c-1.3,1.6-0.4,2.7,1,3.7c6,4.6-7.1-1.7,2.2,8.6c-2.7,0.2-5.5-0.6-8.1-0.7c0.5,2.3,3.2,3.1,3.3,5.6
		c-2.4-0.4-4.7-1.4-6.7-2.9c-0.7-0.5-0.6-0.4-0.6-0.4c1.3,1.7,2.5,3.5,3.5,5.4c0.6,1.2,1.5,3.2,1.7,3.5c2,2.8-5-1.2-11.2-6
		c-0.8-0.6-1.4-1.3-2.1-2l0,0c0,0,13.6,18.1,7.9,13.7c-4.5-3.5-3.9-2.2-10-6.6c-0.1-0.1-1.5-2-2.9-3.9c-0.5-0.8-1-1.6-1.6-2.3
		c0.5,0.6,1.1,1.4,1.7,2.3c0.3,0.5,0.6,1,1,1.6c0.1,0.2,9.6,16.7,6,13.9c-2.5-1.9-6-2.5-8.5-4.5c-0.7-0.5-1.2-1.1-1.7-1.8
		c3,4.9,5.4,10.5,8.7,15.2l-0.5-0.4c-6.3-4.9-11-11-15.6-14.5c-2.4-1.8-5-3.5-7.3-5.4c-2.9-2.1-5.3-4.8-6.9-8
		c-3.5-0.8-6.7-2.4-9.4-4.7c-2.4-1.8-4.6-3.9-7-5.8c-4.6-3.5-11.7-6.6-18-11.5l-0.5-0.4c5.4,2,11.4,2.9,16.9,4.6
		c-0.8-0.3-1.5-0.7-2.2-1.2c-2.5-1.9-3.9-5.2-6.5-7.1c-3.7-2.7,14.6,2.3,14.9,2.5c0.6,0.2,1.2,0.4,1.8,0.5l2.5,1
		c-0.8-0.4-1.7-0.8-2.6-1.1c-2.1-0.8-4.4-1.7-4.4-1.8c-5.8-4.8-4.4-4.5-8.9-8c-5.7-4.4,15.2,4.2,15.2,4.2l0,0
		c-0.9-0.4-1.7-0.9-2.4-1.5c-6.2-4.7-11.8-10.5-8.6-9.3c0.3,0.1,2.4,0.4,3.8,0.7c2.1,0.5,4.1,1.2,6.1,2.1c0-0.1,0.2,0-0.5-0.5
		c-1.9-1.5-3.4-3.5-4.4-5.8c2.5-0.6,3.9,1.9,6.3,1.8c-0.8-2.6-2.2-5.1-2.7-7.7c12.3,6.4,2.9-4.7,8.9-0.1c1.3,1,2.6,1.6,3.9,0
		c0.2-0.3,0.5-0.7,0.7-1c1.6,4.6,4.9,9.4,1.7,14c-6,8.7-3.6,19,1.2,26.3C507.1,75.1,506.8,76.3,506.4,77.5L506.4,77.5z"/>
	<path class="st1" d="M533.4,86.2c6.1,4.8,13.2,8.8,11.2,6c-0.2-0.2-1-2.2-1.7-3.5c-1-1.9-2.2-3.7-3.5-5.4c0,0,0-0.2,0.6,0.4
		c2,1.5,4.3,2.5,6.7,2.9c-0.1-2.6-2.8-3.3-3.3-5.6c2.7,0.1,5.5,0.9,8.1,0.7c-9.3-10.4,3.9-3.9-2.2-8.6c-1.3-1-2.2-2.1-1-3.7
		c0.3-0.3,0.5-0.6,0.9-0.9c-4.8-0.4-10.3-2.3-13.9,1.8c-6.8,8-17.5,8.2-25.8,5.4c17.7-10.3,48.3-18.3,64.7-5.6
		c4.9,3.9,8.6,12.1,5.5,16.1c-1.9,2.5-10.9,4.4-17.4,12.8c-1.2,1.6-2.6,3.9-2.7,4c-1.9,2.5-5.5,2.9-8.3,5c-5.7,4.3-9.3,11.6-19.4,4
		c-3.3-4.7-5.7-10.3-8.7-15.2c0.5,0.7,1,1.3,1.7,1.8c2.5,1.9,6,2.5,8.5,4.5c3.6,2.8-5.9-13.7-6.1-13.8c-0.3-0.6-3.4-4.7-3.6-5.2
		c1.8,2.4,3.8,4.7,6,6.7c4.3,4.3,4.9,3.9,9.5,7.3c5.7,4.4-7.9-13.7-7.9-13.7l0,0C531.9,84.9,532.6,85.6,533.4,86.2z"/>
	<path class="st1" d="M491.2,53.5c-6.2-4.7-11.8-10.5-8.6-9.3c0.3,0.1,2.4,0.4,3.8,0.7c2.1,0.5,4.1,1.2,6.1,2.1c0,0,0.2,0-0.5-0.5
		c-1.9-1.5-3.4-3.5-4.4-5.8c2.5-0.6,3.9,1.9,6.3,1.8c-0.8-2.6-2.2-5.1-2.7-7.7c12.3,6.4,2.9-4.7,8.9-0.1c1.3,1,2.6,1.6,3.9,0
		c0.2-0.3,0.5-0.7,0.7-1c1.6,4.6,4.9,9.4,1.7,14c-6,8.7-3.6,19,1.2,26.3c5.5-19.7,5.6-51.4-10.8-64c-4.9-3.9-13.9-5.3-17-1.3
		c-2,2.5-1.5,11.6-8,20c-1,1.3-2.1,2.5-3.2,3.6c-1.9,2.5-1.4,6.1-2.8,9.3c-2.7,6.6-8.8,11.9,1,19.8c5.4,2,11.4,2.9,16.9,4.6
		c-0.8-0.3-1.5-0.7-2.2-1.2c-2.5-1.9-3.9-5.2-6.5-7.1c-3.6-2.8,14.7,2.3,15,2.4c0.6,0.2,5.4,2.1,6,2.2c-2.8-1.1-5.5-2.5-8-4.1
		c-5.2-3.1-4.9-3.9-9.5-7.3c-5.7-4.4,15.3,4.2,15.3,4.2l0,0C492.8,54.6,492,54.1,491.2,53.5z"/>
</g>
<path class="st2" d="M547.3,75.4c4.5-2.3,7.5,3.5,9,2.9c3.3-2.5,4.3-3.5,7-2.9l-0.1,0.2c-0.9-0.2-1.8-0.1-2.7,0.3
	c-6.3,3.4-2.7,4.4-8.1,0.6c-3.1-2.3-5.1-0.9-5.1-0.9L547.3,75.4z"/>
<path class="st2" d="M523.4,48.1c0.3-0.9,0.4-1.8,0.1-2.7c-0.6-1.8-2.5-3.3-3.6-4.6c-1.4-1.7,0.1-1.3,2-5.8c0.2-1.8,0.3-1.3-0.1-2.7
	l0.2-0.1c0.9,2.6,0,3.7-2.1,7.3c-0.4,1.6,5.6,4.1,3.8,8.7L523.4,48.1z"/>
<path class="st2" d="M544.1,70.8c0.3,0.2,0.6,0.2,1,0.8c1.3,2.6-0.9,8.5-1.6,9.5c-4.9,5.9-23.4,2.3-34.6,1.9c-6.3-0.2-6.7,1-7.6-3.4
	c-3-12.5-11.3-28.1-8.4-35.6c0.5-1.7,1.4-2.4,4.3-4.1c2.2-1.2,4.8-2.4,6.2-0.7l-0.2,0.2c-1.1-1.7-4.1-0.3-5.9,0.8
	c-6.9,4-5.8,6.8,1.6,29.9c0.7,2.1,1.3,4.1,1.8,6.3c1,3.9,0.8,4.9,1.7,6.3l0,0c1,0.3,2.1,0.4,3.2,0.2c13.2-0.8,31.8,3.4,37-1.4
	c1.5-1.1,3.7-8,2-10c-0.1-0.2-0.4-0.3-0.6-0.4L544.1,70.8z"/>
<path class="st2" d="M524.7,98.6c-0.4-0.4-4.4-4.8-4.8-5.2c-8.1-8.3-11.3-5.9-18.4-9.6c-1.2-1.3-1.6-1.6-4-5.9
	c-4-6.5-5.2-7.1-16.1-12.8V65c19,8,13.7,10.7,20.4,18.5l0,0C510.7,87.8,512.4,82.3,524.7,98.6L524.7,98.6z"/>
<path class="st2" d="M504.3,84.5c0.6,0.2,0.8,0.7,1.3,1c3.2,2.8,5,3.5,4.3,7c0.4-4.9-5.2-5.6-5.8-7.9L504.3,84.5z"/>
<path class="st2" d="M500,81.5c-2.2,0.1-4.5-5.2-9.1-3.6c2.8-1.3,4.3-0.2,6.6,1.5c0.7,0.6,1.5,1.1,2.3,1.5c0.1,0.1,0.2,0.2,0.3,0.3
	L500,81.5z"/>
<path class="st2" d="M501.5,86.6c1.3,7.8-0.3,6.1,10.7,14.6c7.5,5.9,10.6,9.4,13.2,13.6l-0.2,0.1c-2.4-3.9-5.4-7.6-13.2-13.5
	c-11.1-8.6-10.3-7.2-10.7-14.8L501.5,86.6z"/>
<path class="st2" d="M498.8,84.8c-7.3,1.5-5.9,2.1-17-6.6c-7.9-6.2-12.2-8.1-16.4-9.4l0.1-0.2c14.1,4.5,22.2,16.5,28.4,16.5
	c2.5-0.3,3.4-0.4,4.8-0.5L498.8,84.8z"/>
<path class="st4" d="M507.1,76.2c-1.5,3-1.8,7.4-3.8,10.8c0,0.1-6.7,7.4-6.7,7.4c-0.4,0.5-11.6,13.2-12.9,12.1
	c-1.3-1.1,8.1-14.6,8.5-15.1c0,0,5.4-8.8,5.4-8.8C500.4,79.9,504.6,78.4,507.1,76.2z"/>
<path class="st5" d="M530.5,67.2c0.8,0.8,0.2,3.6-0.5,4.4c-0.4,0.6-0.8,0.6-2-0.4l-0.1-0.1l-0.3-0.2l-0.3-0.2l-0.1-0.1
	c-1.2-1-1.3-1.3-0.9-1.9C527,68,529.6,66.7,530.5,67.2z"/>
<path class="st6" d="M530.7,68.8l-0.2,0.2c-0.6,0.7-0.5,1.5-0.3,1.6c0.2,0.1,0.5,0.3,0.8-0.2c0.4-0.5,0.3-1.2-0.1-1.6L530.7,68.8z"
	/>
<path class="st6" d="M528.9,67.4l-0.2,0.3c-0.6,0.7-1.3,0.9-1.5,0.7c-0.2-0.1-0.4-0.4,0-0.9c0.4-0.5,1-0.6,1.5-0.3L528.9,67.4z"/>
<path class="st7" d="M511.5,70.6c0.2,0.1,0.3,0.2,0.4,0.3c0.3,0.2,0.5,0.4,0.6,0.7c1.1,2.2,0.4,4.5-1.2,6.6c-1.8,2.1-4.1,3.8-6.6,5
	c-1.1,0.5-4.2-1.7-3.9-3.1c0.6-2.7,1.7-5.3,3.2-7.6c1.6-2,3.7-3.3,6.1-2.7c0.3,0.1,0.6,0.2,0.8,0.4
	C511.3,70.3,511.4,70.5,511.5,70.6z"/>
<path class="st7" d="M529.9,68.3c2.8-5.4,20.1-1.1,26.3-6c1.7-1.3,1.6-2.2,1.3-2.1h-0.1h0.1c0.1,0,0.2,0.1,0.2,0.1
	c0.1,0.2-0.2,0.5-0.4,0.9c-4.9,6.6-21.8,1.6-27.1,7.2L529.9,68.3z"/>
<path class="st7" d="M529.7,67.5c2.7-4.8-3.2-22.7-1.6-27.1c0.1-0.4,0.3-0.7,0.6-0.7c0.2,0,0.1,0.3,0.1,0.3s0.1-0.2-0.1-0.3
	c-1.9-0.2,0.5,11.8,0.9,13.7c1.4,7.5,1.9,11.8,0.6,14.3L529.7,67.5z"/>
<g id="_Group_7">
	<path class="st0" d="M703.7,81.1c1.1,0.8,3,0.3,4.3,0.9c2.1,1,4,2.2,5.9,3.6c2,12.1-5.2,21.2,2.5,29c-1,0.7-1.9,1.5-2.7,2.4
		c-2.1,2.6,0,5.5-2,8c-1.1,1.4-2.9-3.1-6,0.8c-1.4,1.7-1.9,4.1-3.1,5.9c-3.1-1.2-6.7-4.1-10.9,0.5c-0.8,0.9-1.5,1-2,0.5
		c-0.9-0.7-1.4-2.8-2.2-3.4c-1-0.8-5.3,3.4-6.2,2.7c-0.9-0.8,1.2-5.5-0.8-7.5c-0.2-0.2,0-0.7,0.1-1c1.3-2.3,2-4.9,2-7.5
		c5.1-15.2,16.6-22.3,20.8-34.6c-11.3,6.7-16,19.2-29.9,27.2c-2.6,0.5-5,1.6-7,3.4c-0.3,0.2-0.7,0.5-1,0.3c-2.3-1.6-6.5,1.6-7.5,0.7
		c-1.1-0.9,2.4-5.9,1.4-6.6c-0.8-0.6-2.9-0.8-3.8-1.5c-0.5-0.4-0.6-1,0.1-2c3.7-5,0.1-8-1.7-10.8c1.6-1.5,3.8-2.5,5.2-4.2
		c3.2-3.9-1.5-4.6-0.4-6.1c2-2.4,5.3-1,7.4-3.5c0.7-1,1.3-2,1.9-3.1c9.2,6.1,16.7-2.7,29-3.2c1.7,1.5,3.3,3.2,4.7,5.1
		C702.8,78.2,702.6,80.1,703.7,81.1z"/>
	<path class="st1" d="M720.8,122.7c-2,2.4-4.1-0.2-5.7,1.7c-1.2,1.4,0.4,4.3-2,7.3c-3,3.7-5.2-1.6-7.4,1.1c-1.1,1.4-2,4.1-3.6,6.2
		c-2.6,3.1-2.9-1.5-8.5,3.9c-0.7,0.6-2.1,0-2.7,0.7c-7.3,8.9-7.6,17.1-10.2,20.3c-1,1.3-2,2.1-3.4,1.1c-2.4-2,1.3-6.3,4.4-10.2
		l1.5-1.8c1.7-2.1,2.5-6.7,0.7-8.1s-4.7,1.8-5.5,1.2c-0.5-0.4,0.3-2-0.6-2.8c-1.6-1.3-4.2,1.8-6,0.3c-1.8-1.5,4.8-7.1,3.1-8.4
		c-0.3-0.3-0.9-0.5-1.3-0.9c-2.4-2,5.9-7.5,7.8-14.8c0.3-1.2,0.7-2.4,1.1-3.6c0.1,2.6-0.6,5.2-2,7.5c-0.2,0.3-0.3,0.8-0.1,1
		c2,2-0.3,6.6,0.8,7.5c1.1,0.9,5.3-3.5,6.2-2.7c0.8,0.6,1.3,2.7,2.2,3.4c0.5,0.4,1.1,0.4,2-0.5c4.2-4.6,7.8-1.7,10.9-0.5
		c1.2-1.9,1.7-4.3,3.1-5.9c3.2-3.9,4.9,0.6,6-0.8c2-2.4-0.1-5.4,2-8c0.8-0.9,1.7-1.7,2.7-2.4c-7.7-7.8-0.6-16.9-2.5-29l1,0.7
		C731.1,99.7,722.4,120.8,720.8,122.7z"/>
	<path class="st1" d="M659.4,72.3c-2,2.4,1,4-0.6,5.9c-1.2,1.4-4.3,0.4-6.7,3.4c-3,3.7,2.5,4.8,0.4,7.4c-1.1,1.4-3.7,2.7-5.4,4.8
		c-2.6,3.1,2.1,2.6-2.2,9.1c-0.5,0.8,0.4,2.1-0.2,2.8c-7.3,8.9-15.3,10.7-17.9,14c-1,1.3-1.7,2.4-0.3,3.5c2.4,2,5.9-2.5,9.1-6.3
		l1.4-1.8c1.7-2.1,6.1-3.7,7.8-2.3s-0.9,5-0.1,5.6c0.5,0.4,1.9-0.7,2.8,0.1c1.6,1.3-1,4.4,0.8,5.9c1.8,1.5,6-6.1,7.7-4.7
		c0.3,0.3,0.7,0.8,1.1,1.1c2.4,2,6.2-7.3,13.1-10.5c1.2-0.5,2.3-1.1,3.3-1.7c-2.6,0.5-5,1.6-7,3.4c-0.3,0.2-0.7,0.5-1,0.3
		c-2.3-1.6-6.5,1.6-7.5,0.7c-1.1-0.9,2.4-5.9,1.4-6.6c-0.8-0.6-2.9-0.8-3.8-1.5c-0.5-0.4-0.6-1,0.1-2c3.7-5,0.1-8-1.7-10.8
		c1.6-1.5,3.8-2.5,5.2-4.2c3.2-3.9-1.5-4.6-0.4-6.1c2-2.4,5.3-1,7.4-3.5c0.7-1,1.3-2,1.9-3.1c9.2,6.2,16.7-2.6,28.9-3.1l-0.9-0.8
		C680,57.8,661,70.5,659.4,72.3z"/>
</g>
<path class="st2" d="M698.7,90.4c-5.5,9.2,0.3,4.6-13.8,27.7c-1.2,2-4.1,6.5-6,7.5l-0.1-0.1c0.3-0.5,0.7-1,1.1-1.4
	c4.9-5.7,12.7-19.5,13.8-22.1s2.1-7,4.9-11.6L698.7,90.4z"/>
<path class="st2" d="M695.6,87.9c-7,6.5-8.2,3.1-26.4,21.5c-1.1,1.1-2.1,2.2-3,3.5c-0.3,0.5-0.7,1-1.1,1.4l-0.2-0.1
	c1-3.4,10.9-11.8,14.4-14.7c7.2-6,4.9-4,11.2-7.9C692.3,90.4,694,89.2,695.6,87.9L695.6,87.9z"/>
<path class="st2" d="M700,88.6c-0.4,3.3,0.3,3.8-0.2,5.9c-1.3,5.8-3.5,16.3,2,14.1c0.4-0.1,0.3-0.2,0.7-0.6l1.3-1.5
	c3.2-3.6-0.4-6.5,1.8-11.8h0.2c-2.1,5.3,1.5,8.1-1.8,11.9c-1.8,2-1.6,2.2-2.9,2.4c-6.1,0.7-1.2-14.1-1.5-16.9
	c-0.2-1.2-0.1-2.4,0.3-3.6L700,88.6z"/>
<path class="st2" d="M697,86.3c-1,0.6-2.2,1-3.4,1c-2.5,0.2-2.7,1.1-8.3,3c-4.2,1.4-9.4,2.4-8.6-2.1c0.1-0.5,0.2-0.5,0.5-0.9
	c0.7-1.1,1.6-2,2.6-2.9c3.1-2,5.9-0.1,10-2.8l0.1,0.2c-5.6,3.7-8.4-0.8-12.8,6c-0.1,0.4-0.2,0.8-0.2,1.2c0.4,4.6,9.6,0.5,14.3-1.6
	c2-0.9,2.7-0.3,5.7-1.3L697,86.3z"/>
<path class="st2" d="M705.4,103.6c6.3,6.6,7.8,14.6,7.8,17.1l-0.2,0.1C711.8,118.2,711.7,111.6,705.4,103.6z"/>
<path class="st2" d="M677.1,83.8c-9-4.6-15.5-3.4-18.3-4.1l0.1-0.2C661.7,78.8,670,79.2,677.1,83.8z"/>
<path class="st2" d="M702.9,107.8c2.3,14.1,0.9,6.8,2.7,21.1c0.1,0.3,0.1,0.7,0,1l-0.2,0c-0.2-0.3-0.3-0.6-0.3-0.9
	C703.6,115.7,704.9,125.1,702.9,107.8z"/>
<path class="st2" d="M673.6,87c-17.6,1.4-8.2,0.9-21.3,2.1c-0.3,0.1-0.6,0-0.9-0.1l0-0.2c0.3-0.2,0.6-0.3,1-0.3
	C667.1,87.5,659.1,87.6,673.6,87z"/>
<path class="st2" d="M700.1,109.1c-2,5.9-2.8,14-5.9,23.9l-0.7-0.1C696.9,123.1,698,115,700.1,109.1z"/>
<path class="st2" d="M672.8,90c-5.5,3.3-12.8,5.9-22,11.2l-0.2-0.7C660,95.3,667.2,93.2,672.8,90z"/>
<path class="st2" d="M698.7,107.5c-2.5,5.5-2.8,3.2-6.6,12.3c-2.5,5.9-1.3,3.1-5.7,12.7l-0.6-0.2c4.6-9.6,3.1-6.3,7-14.9
	C694.7,113,696.5,112,698.7,107.5z"/>
<path class="st2" d="M674.7,91.1c-3.3,2.5-3.7,3.7-6.5,6.1c0,0-8.2,6-15.3,11.3l-0.3-0.5c19.4-14,12.4-8,20-15.3
	C673.3,92.1,674,91.6,674.7,91.1z"/>
<path class="st2" d="M698.3,101.8c-6.9,9.8-12.7,23.4-19.6,28.5l-0.1-0.1c0.6-0.9,1.2-1.8,2-2.6C690.9,114.9,689.6,113,698.3,101.8z
	"/>
<path class="st2" d="M680.4,90.3c-9,10.4-11.7,10.1-21.8,22.5c-0.7,0.9-1.4,1.7-2.2,2.4l-0.1-0.1C659.8,107.6,672.6,98.7,680.4,90.3
	z"/>
<g id="_Group_8">
	<path class="st3" d="M722.8,82.1c-0.4-0.7-0.7-1.1-0.7-0.9C722.3,81.5,722.6,81.8,722.8,82.1z M700,63c0.2,0-0.3-0.2-1-0.5
		C699.3,62.7,699.6,62.9,700,63z M707.5,76.4c1-0.7,2-1.4,3.1-2.1c8.5,2.5,17.7-0.3,23.5-7c3.7-4.2,8.3-2.8,12.5-2.8
		c-0.3,0.3-0.6,0.6-0.9,0.9c-1.3,1.6-0.7,2.5,0.3,3.4c4.7,3.9-6.1-1.1,0.8,7.8c-2.4,0.4-4.7-0.1-7.1,0c0.1,2.1,2.5,2.6,2.2,5
		c-2-0.2-3.9-0.9-5.5-2.1c-0.5-0.4-0.5-0.3-0.5-0.3c0.9,1.5,1.7,3.1,2.4,4.7l1,3.1c1.4,2.4-4.3-0.7-9.1-4.7c-0.6-0.5-1.1-1-1.5-1.7
		l0,0c0,0,9.8,15.8,5.2,12.1c-3.5-2.9-3.1-1.7-8-5.4c-0.1-0.1-1.1-1.8-2-3.4c-0.3-0.7-0.7-1.3-1.2-2c0.3,0.5,0.8,1.2,1.2,2
		c0.2,0.4,0.4,0.9,0.6,1.4c0.1,0.2,6.4,14.8,3.6,12.5c-2-1.6-5-1.9-6.9-3.5c-0.5-0.4-1-0.9-1.3-1.5c2,4.3,3.4,9.4,5.8,13.5l-0.4-0.3
		c-4.9-4-8.3-9.4-11.9-12.3c-1.9-1.5-4-2.8-5.9-4.4c-2.3-1.8-4.1-4.2-5-7c-2.9-0.4-5.6-1.7-7.7-3.6c-1.9-1.5-3.6-3.3-5.5-4.9
		c-3.6-2.9-9.5-5.2-14.4-9.3l-0.4-0.3c4.5,1.5,9.7,1.8,14.4,3c-0.7-0.2-1.3-0.5-1.8-1c-2-1.6-2.8-4.5-4.8-6.1
		c-2.8-2.3,12.7,1,12.9,1.1c0.5,0.1,1,0.2,1.5,0.3l2.2,0.8c-0.7-0.3-1.4-0.6-2.2-0.8c-1.8-0.6-3.6-1.2-3.7-1.3
		c-4.5-4.1-3.2-3.9-6.8-6.8c-4.5-3.7,12.9,2.8,12.9,2.8l0,0c-0.7-0.3-1.5-0.7-2.1-1.2c-4.9-3.9-9-8.9-6.4-8c0.2,0.1,2.1,0.2,3.2,0.4
		c1.7,0.3,3.5,0.8,5.1,1.5c0,0,0.1,0-0.4-0.5c-1.5-1.3-2.6-3-3.2-5c2.3-0.7,3.2,1.5,5.3,1.2c-0.4-2.3-1.3-4.6-1.4-7
		c10.1,5,3.1-4.6,7.8-0.7c1.1,0.9,2.1,1.3,3.4-0.3c0.3-0.3,0.5-0.7,0.7-1c0.8,4.1,3.1,8.4-0.3,12.9c-5.5,7-6.4,16.5-2.3,24.4
		C708.4,74.1,707.9,75.2,707.5,76.4L707.5,76.4z"/>
	<path class="st1" d="M730.2,82.3c4.8,4,10.5,7.1,9.1,4.7c-0.1-0.2-0.6-2-1-3.1c-0.7-1.7-1.5-3.2-2.4-4.7c0,0-0.1-0.2,0.5,0.3
		c1.6,1.2,3.5,2,5.5,2.1c0.3-2.4-2.1-2.8-2.2-5c2.4-0.1,4.7,0.4,7.1,0c-6.8-8.9,3.9-4-0.8-7.8c-1.1-0.9-1.7-1.8-0.3-3.4
		c0.3-0.3,0.6-0.6,0.9-0.9c-4.2,0-8.8-1.4-12.5,2.8c-5.8,6.7-15,9.5-23.5,7c16.9-10.9,44.9-20.7,57.7-10.2c3.9,3.2,6,10.6,2.8,14.6
		c-2.1,2.5-10.2,4.9-17,13.2c-1,1.3-2,2.6-2.8,3.9c-2,2.5-5.3,3.1-7.9,5.3c-5.6,4.4-9.8,11.4-17.6,5.2c-2.3-4.1-3.7-9.1-5.8-13.5
		c0.3,0.6,0.7,1.1,1.3,1.6c2,1.6,5,1.9,6.9,3.5c2.8,2.3-3.5-12.2-3.6-12.5c-0.2-0.5-2.3-4.2-2.5-4.6c1.2,2.1,2.7,4.1,4.4,5.9
		c3.3,3.6,3.9,3.2,7.4,6.1c4.5,3.7-5.2-12.1-5.2-12.1l0,0C729.1,81.3,729.6,81.9,730.2,82.3z"/>
	<path class="st1" d="M697.1,55.2c-4.9-3.9-9-8.9-6.4-8c0.2,0.1,2.1,0.2,3.2,0.4c1.8,0.3,3.5,0.8,5.1,1.5c0,0,0.2,0-0.4-0.5
		c-1.5-1.3-2.6-3-3.2-5c2.3-0.7,3.2,1.5,5.3,1.2c-0.4-2.3-1.3-4.6-1.4-7c10.1,5,3.1-4.6,7.8-0.7c1.1,0.9,2.1,1.3,3.4-0.3
		c0.3-0.3,0.5-0.7,0.7-1c0.8,4.1,3.1,8.4-0.3,12.9c-5.5,7-6.4,16.5-2.3,24.4c7.4-18.7,11.5-48.2-1.3-58.7
		c-3.9-3.2-11.6-3.8-14.8,0.1c-2.1,2.5-2.8,10.9-9.6,19.3c-1.3,1.6-3.2,3.5-3.3,3.6c-2,2.5-2.1,5.8-3.6,8.8
		c-3.3,6.3-9.3,11.7-1.7,18.3c4.5,1.5,9.7,1.8,14.4,3c-0.7-0.2-1.3-0.5-1.8-1c-2-1.6-2.8-4.5-4.8-6.1c-2.8-2.3,12.7,1,12.9,1.1
		c0.5,0.1,4.5,1.5,5,1.6c-2.3-0.8-4.5-1.9-6.6-3.2c-4.2-2.5-3.9-3.2-7.4-6.1c-4.5-3.7,12.9,2.8,12.9,2.8l0,0
		C698.4,56.2,697.7,55.7,697.1,55.2z"/>
</g>
<path class="st2" d="M746,66.6c4-3.1,6.7,1.5,8.1,0.6c2.9-2.9,3.8-4.1,6.3-4.1l-0.1,0.2c-0.9,0-1.7,0.3-2.4,0.8
	c-5.6,4.4-2.4,4.6-7.2,2.3c-1.4-0.8-3.2-0.6-4.5,0.4L746,66.6z"/>
<path class="st2" d="M728.4,49c0.4-0.8,0.5-1.6,0.4-2.5c-0.3-1.7-1.8-2.9-2.6-4c-1-1.5,0.3-1.2,2.5-5.6c0.5-1.7,0.4-1.3,0.3-2.5
	l0.2-0.1c0.4,2.4-0.4,3.4-2.8,6.9c-0.6,1.5,4.4,3.3,2.2,7.8L728.4,49z"/>
<path class="st2" d="M741.7,67.3c0.3,0.2,0.5,0.1,0.7,0.6c0.8,2.3-1.9,8-2.7,9c-5.1,5.9-20.9,3.9-30.8,4.5c-5.5,0.3-6,1.4-6.3-2.6
	c-1-11.4-6.4-25.3-2.9-32.4c0.7-1.6,1.5-2.3,4.3-4.2c2-1.3,4.6-2.6,5.6-1.1l-0.2,0.2c-0.8-1.5-3.5,0-5.3,1.2
	c-6.6,4.2-5.9,6.8-2.4,27.7c0.3,1.9,0.6,3.8,0.8,5.7c0.4,3.5,0.1,4.5,0.8,5.7l0,0c0.9,0.2,1.9,0.2,2.8-0.1
	c11.7-1.8,27.6,0.7,32.9-4.1c1.5-1.2,4.3-7.7,3.1-9.5c0-0.2-0.3-0.2-0.5-0.3L741.7,67.3z"/>
<path class="st2" d="M720.9,94.6c-0.3-0.4-3.2-4.1-3.5-4.5c-6.1-7.1-9.2-4.6-15-7.5c-0.9-1.1-1.2-1.4-2.8-5.2
	c-2.7-5.7-3.7-6.2-12.5-10.7v-0.1c15.8,5.9,10.7,8.9,15.6,15.6l0,0c7.3,3.4,9.5-2,18.3,12.3L720.9,94.6z"/>
<path class="st2" d="M704.8,83.1c0.5,0.1,0.6,0.6,1,0.9c2.5,2.3,4,2.8,2.9,6.2c1-4.6-3.9-4.9-4.1-6.9L704.8,83.1z"/>
<path class="st2" d="M701.3,80.6c-2,0.3-3.3-4.5-7.5-2.6c2.6-1.4,3.8-0.5,5.6,0.9c0.6,0.5,1.2,0.9,1.8,1.2c0.1,0.1,0.2,0.2,0.2,0.3
	L701.3,80.6z"/>
<path class="st2" d="M702,85.2c0.1,7.1-1.1,5.7,7.5,12.8c5.9,4.9,8.2,8,9.9,11.6l-0.2,0.1c-1.6-3.4-3.8-6.6-9.9-11.5
	c-8.8-7.1-8.1-5.9-7.5-13L702,85.2z"/>
<path class="st2" d="M699.9,83.7c-6.6,2-5.5,2.4-14.2-4.9c-6.2-5.2-9.8-6.6-13.3-7.5l0.1-0.2c11.8,3.1,17.5,13.7,23,13.2
	c2.2-0.5,3-0.6,4.3-0.8L699.9,83.7z"/>
<path class="st4" d="M708.3,75.1c-1.7,2.9-2.6,7-4.7,10.3c-0.1,0.1-6.9,7.4-6.9,7.4c-0.4,0.5-11.9,13.1-12.9,12.2
	c-1.1-0.9,9.1-14.2,9.5-14.7c0,0,5.9-8.6,5.9-8.6C701.9,79,705.8,77.3,708.3,75.1z"/>
<path class="st5" d="M732.2,66.3c0.6,0.6-0.3,3.3-1,4.2c-0.4,0.5-0.8,0.6-1.7-0.2l-0.1-0.1l-0.2-0.2l-0.2-0.2l-0.1-0.1
	c-1-0.8-1-1.1-0.5-1.7C729,67.2,731.5,65.8,732.2,66.3z"/>
<path class="st6" d="M732.2,67.7l-0.2,0.2c-0.6,0.7-0.7,1.4-0.5,1.6c0.1,0.1,0.4,0.2,0.8-0.2c0.4-0.4,0.4-1,0.1-1.4L732.2,67.7z"/>
<path class="st6" d="M730.8,66.5l-0.2,0.3c-0.6,0.7-1.3,0.9-1.4,0.8s-0.3-0.3,0.1-0.8C729.6,66.3,730.2,66.2,730.8,66.5L730.8,66.5z
	"/>
<path class="st7" d="M712.9,69.5c0.1,0.1,0.2,0.2,0.4,0.2c0.2,0.2,0.4,0.4,0.4,0.6c0.7,2-0.2,4.2-1.9,6.2c-1.9,2.1-4,3.8-6.5,5.2
	c-1.1,0.6-3.5-1.2-3.1-2.6c0.9-2.6,2.2-5.1,3.8-7.3c1.7-2,3.7-3.3,5.7-3c0.3,0,0.5,0.2,0.7,0.3C712.7,69.4,712.8,69.4,712.9,69.5z"
	/>
<path class="st7" d="M731.6,67.3c3.2-5.2,17.9-2.5,24-7.6c1.6-1.3,1.7-2.1,1.4-2.1h-0.1h0.1c0.1,0,0.1,0,0.1,0.1c0,0,0,0,0,0l0,0
	c0.1,0.2-0.2,0.5-0.5,0.8c-5.2,6.5-19.4,3.2-24.9,8.8L731.6,67.3z"/>
<path class="st7" d="M731.5,66.6c3.1-4.7,0.1-20.8,2.1-25.1c0.2-0.3,0.4-0.7,0.6-0.7c0.2,0,0,0.3,0.1,0.2c0.1,0,0.1-0.2-0.1-0.2
	c-1.7,0-1.1,10.9-1,12.7c0.3,6.9,0.2,10.9-1.3,13.3L731.5,66.6z"/>
</svg>
