<svg id="Layer_1" data-name="Layer 1" xmlns="http://www.w3.org/2000/svg" viewBox="0 0 64.74 58.84"><defs><style>.cls-1{fill:#6b5036;}.cls-2{fill:#a0815d;}.cls-3{fill:#7f6242;}.cls-4{fill:#997d67;}.cls-5{fill:#ad9076;}.cls-6{fill:#846a4e;}.cls-7{fill:#a3886f;}.cls-8{fill:#bc9f82;}.cls-9{fill:#826245;}.cls-10{fill:#a88960;}.cls-11{fill:#8c6e49;}.cls-12{fill:#b79a76;}.cls-13{fill:#967c62;}.cls-14{fill:#ccae87;}.cls-15{fill:#8c6d4d;}.cls-16{fill:#aa8e75;}.cls-17{fill:#d6bb9a;}.cls-18{fill:#9e7d56;}.cls-19{fill:#826443;}.cls-20{fill:#9e8574;}.cls-21{fill:#7f644f;}.cls-22{fill:#8e7565;}.cls-23{fill:#775d4b;}.cls-24{fill:#bfa07b;}.cls-25{fill:#725944;}.cls-26{fill:#af906b;}.cls-27{fill:#775b3c;}.cls-28{fill:#634b33;}.cls-29{fill:#6d5237;}.cls-30{fill:#3d2d1f;}.cls-31{fill:#fff;}.cls-32{fill:#e0c3a6;}.cls-33{fill:#281710;}.cls-34{fill:#492d1d;}.cls-35{fill:#603d25;}.cls-36{fill:#8e6e59;}.cls-37{fill:#6d5138;}.cls-38{fill:#8e735b;}.cls-39{fill:#6d5239;}</style></defs><title>Kangaroo</title><path class="cls-1" d="M4.47,49.61c1.09.07,15,2.56,18-1.19,3.41-3.33,4.83-11.34,4.87-11.26a5.87,5.87,0,0,0,3.07,3.07,20.29,20.29,0,0,1-6,10.07,11.1,11.1,0,0,1-9.26,2.22A74.12,74.12,0,0,0,4,51.42c-2.61.09-3.74.2-3.95-.5C-.12,50.5,2.8,49.91,4.47,49.61Z"/><path class="cls-2" d="M4.68,49.59a48.45,48.45,0,0,1,9.91-.47c4.8.27,6.13-.54,8-2.76s3.22-9.47,3.63-11.45c.24-1.16.32-2.47.71-4,0,0-.84,3.87.42,6.28a8.36,8.36,0,0,0,1.43,2.08,20,20,0,0,1-5.67,9.63c-3.22,2.72-6.81,2.16-8.92,1.86C10.78,50.26,4.84,49.82,4.68,49.59Z"/><path class="cls-3" d="M4.36,49.63s2.44-.34,3.07-.39c0,0-.6.31.61.39,1.55.1,3.85.2,6.55.43,5.4.46,6.83-1.23,8.29-3.44,1.58-2.4,2.51-6.64,2.92-9.31.18-1.17.46-2.77.46-2.77a12.24,12.24,0,0,0,1.05,2.62,8.79,8.79,0,0,0,1.43,2.08c-.48,2.18-2.6,7.44-5.82,10.17a8.86,8.86,0,0,1-8,2c-3.38-.48-4.74-.82-7.34-1C3.45,50.16,4.36,49.63,4.36,49.63Z"/><path class="cls-3" d="M46.23,52.6a46.52,46.52,0,0,1,7.63.52,21.16,21.16,0,0,0,4.08.66c.23,0,.92.7.7,1.06-.34.58-2.89.53-4.74.35a86.86,86.86,0,0,0-8.81-.44C45.37,54.09,46.23,52.6,46.23,52.6Z"/><path class="cls-4" d="M40.37,36.65a13,13,0,0,1,1.41,6.64c-.41,3.2-1.53,8.24-1.63,9.39s-.24,2.09,4.11,1.87a83,83,0,0,1,9.1.26,5.2,5.2,0,0,0,3.05-.43c.56-.27.51-.73.28-.73a12.92,12.92,0,0,1-2.81-.54A52.22,52.22,0,0,0,45,52.32c-.75.12-.9-.42-1.26-.33a48.13,48.13,0,0,1,.86-5.25A31.69,31.69,0,0,1,46,40.87c.59-1.41,1.86-2.47,2.13-6.42Z"/><path class="cls-5" d="M45.58,42.06c-.31,1.18-.61,2.82-1,4.68a28.71,28.71,0,0,0-.56,5.06c.59.09.72.56,1.09.52a54.19,54.19,0,0,1,8.7.8,21,21,0,0,0,2.21.46c.22,0-.08.8-2.06.81-.87,0-5.54-.4-8.21-.4l-2.63-.42c-.3-.08-.72-.68-1.37-.82a13.27,13.27,0,0,1-.64-2.93,40.7,40.7,0,0,0,1.26-6.1A4.22,4.22,0,0,1,45.58,42.06Z"/><path class="cls-6" d="M41.47,35.94,48.22,34a11.9,11.9,0,0,1-1.78,6s-.58.79-1.43-.56S43.69,36.43,41.47,35.94Z"/><path class="cls-7" d="M59,39.43c-.46,0-.94-.29-.68-.69a1.39,1.39,0,0,1,.22-.13c0-.21-.2-.41,0-.83s.68-1,.71-1.45a38.89,38.89,0,0,0-.35-4.38c-.14-.48-.87-1.42-1-2.14a12,12,0,0,1-.42-2.45c.48-3.49,4-9.21,4-9.21a7,7,0,0,1,.72,3.67c-.17,2.09-1.31,4.87-1.28,5.58a5.37,5.37,0,0,1-.37,2.73,16,16,0,0,0,0,2.56A31.38,31.38,0,0,0,60.57,36a4,4,0,0,1,.12,1.69,8.69,8.69,0,0,0-.08,1.47,5.36,5.36,0,0,1-.23,1.26s-.7.7-.79-.32C59.59,40.08,58.36,40.51,59,39.43Z"/><path class="cls-8" d="M60.56,30.26a14.09,14.09,0,0,0-.14,2.43A31.38,31.38,0,0,0,60.57,36a4,4,0,0,1,.12,1.69c0,.12-.06.57-.07.66,0,.65-.36.57-.51.54a1,1,0,0,1-.87-1.54,3.55,3.55,0,0,0,.32-1,45.43,45.43,0,0,0-.2-4.78c-.14-.48-.92-1.18-1.09-1.91a15.15,15.15,0,0,1-.73-2.86c.48-3.49,3.85-8.62,3.85-8.62a7,7,0,0,1,.72,3.67c-.17,2.09-1.31,4.87-1.28,5.58A8.62,8.62,0,0,1,60.56,30.26Z"/><path class="cls-3" d="M58.55,38.61c-.33.86.64.7.64.7-.39.61.24.9.57.65a.47.47,0,0,0,.14.25c.15.16.52.12.65-.48a2.08,2.08,0,0,1-.66,1.4c-.51.36-1,.09-.79-.31a4.59,4.59,0,0,1,.36-.53s-.6.59-1,.28.5-1.07.5-1.07-.67.08-.85-.11S58.39,38.68,58.55,38.61Z"/><path class="cls-9" d="M60.77,29.19c-.79,1.49-2.72-.71-2.89-3,.49-3.5,3.5-8.08,3.5-8.08a7,7,0,0,1,.72,3.67c-.17,2.09-1.31,4.87-1.28,5.58A7.74,7.74,0,0,1,60.77,29.19Z"/><path class="cls-4" d="M44.07,51.8A3.12,3.12,0,0,0,42.26,53a3,3,0,0,1,1.83-1.7Z"/><path class="cls-10" d="M26.72,31.61a16.08,16.08,0,0,1,1.59-4.47c1.79-3.4,7.08-6.38,11.93-7.6s11.23-1,11.66-1.53c1-1.12,2.56-1.29,2.86-1.84A7.44,7.44,0,0,0,55,13.79a9.66,9.66,0,0,0,1.38,1.14l0,0C54.87,28.87,31.47,32.27,26.72,31.61Z"/><path class="cls-11" d="M31.25,40.51a6.1,6.1,0,0,1-2.68-.92,5.84,5.84,0,0,1-2.32-5.06,18.14,18.14,0,0,1,2-6.92c1.79-3.4,7.67-6.08,12.52-7.31s10.75-1,11.31-1.65c1.12-1.22,2.55-1.53,2.86-2s0-4,0-4l6.59,2.84A42.53,42.53,0,0,1,61,21.24c-.48,2.56-2.68,5.37-5.4,8.87a20.65,20.65,0,0,1-9.35,6.56c-3,1-7.78,1.72-10.05,3.06C34.32,40.84,31.25,40.51,31.25,40.51Z"/><path class="cls-12" d="M36.49,39.55c-.68-.85-1.4-1.64-2.13-2.44a27.47,27.47,0,0,1,7.91-4.39s4.92.63,8.52-2.46c1.18-1,2.57-1.73,3.44-3s1.91-2.36,2.35-3.9A12.51,12.51,0,0,0,57,18.27a22.67,22.67,0,0,1,0-4.77l4.59,2A42.53,42.53,0,0,1,61,21.24c-.48,2.56-2.68,5.37-5.4,8.87a20.65,20.65,0,0,1-9.35,6.56c-2.89.93-7.37,1.66-9.74,2.89Z"/><path class="cls-13" d="M56.81,16.29V13.44l4.76,1.93c0,1.24-.27,3.71-.27,3.71-.07-.52-.74-1.55-2.43-2A11.68,11.68,0,0,1,56.81,16.29Z"/><path class="cls-14" d="M54.26,28.14c.38-1,1.77-2.81,2.31-4.78A12.85,12.85,0,0,0,57,18.27c-.07-.5-.15-2-.15-2s2.37,1.1,2.57,3A9.29,9.29,0,0,1,59,22.38a19.7,19.7,0,0,1-4.93,8.18A3.68,3.68,0,0,1,54.26,28.14Z"/><path class="cls-14" d="M43,32.78a13,13,0,0,0,7.8-2.52c.62-.5,1.26-1,1.88-1.44,0,.1,0,.19,0,.29,0,.28,0,.57,0,.85s0,.27,0,.4q.07.8.18,1.59c-3.38,2.87-5.56,3.54-7.85,2.88A3.82,3.82,0,0,1,43,32.78Z"/><path class="cls-15" d="M35.4,40.51a2.27,2.27,0,0,1,1.34,1.6,63.66,63.66,0,0,1,.33,9.61c-.17,2.35-.85,3.89.85,4.53A66,66,0,0,0,45,57.52c2,.36,7.05,2,8,1,.91.32,2.39.42,2.63-.21.59-.14.82-.31.46-1-.18-.35-1-.57-1-.58-2.13-.35-9.73-1.87-12.92-2.33,0-.34-1-.87-1.45-.9a17.81,17.81,0,0,1-.39-1.82c-.16-.93-.67-5.45-.7-6.95s.2-7.76.2-7.76-9.14-10.46-11.29-6.68c-1.26,2.21-4,7.86.94,9.82C31.9,41,34.72,40.28,35.4,40.51Z"/><path class="cls-16" d="M28.57,30.27C30.73,26.49,39.87,37,39.87,37s-.24,6.26-.2,7.76.54,6,.7,6.95a17.81,17.81,0,0,0,.39,1.82c.49,0,1.45.56,1.45.9,2.49.36,7.16,1.85,9.51,2.29l2.37-.19a10.29,10.29,0,0,1,1,.24c.37.34-.47.45-1,.41.27.49-1.32.61-2.23.3.62,1.22-4,.15-6.34-.16-1.81-.24-6.38-.61-7.67-1.1-1.7-.64-1-2.09-.81-4.43a63.66,63.66,0,0,0-.33-9.61,2.27,2.27,0,0,0-1.34-1.6c-.68-.23-3.49.51-5.89-.42C24.4,38.13,27.32,32.49,28.57,30.27Z"/><path class="cls-17" d="M28.05,30.89,42,37.28a30.39,30.39,0,0,0-1.3,7c0,1.5.15,5.66.31,6.59s.41,1.47.56,2.15c.75.22,1.12.73,1.45.85,3.4.68,8.7,2.08,9.82,2.34s1.31.22,1.64.32.09.34-.56.3l-.54.06c.28.18-.27.48-1.31.27a1.11,1.11,0,0,1-.63,0c.26,1-4.31-.14-6.35-.5s-5.42-.75-6.69-1.28-1-1.27-.85-3.62a73.05,73.05,0,0,0-.25-10.18c-.27-1.23-.75-2.07-1.75-2.34-.7-.19-3,.68-4.81.45C27.61,39.32,24.89,37.74,28.05,30.89Z"/><path class="cls-3" d="M36.93,38.13c-2.09-1.53-3.79.29-4.82.69-5.94,2.31-8-4.06-2.33-11.47C29.77,27.36,41.26,41.3,36.93,38.13Z"/><path class="cls-18" d="M29.59,27.53a6.38,6.38,0,0,1,5.1-2.31,8.6,8.6,0,0,1,6.44,4.31c1.29,2.77,1.47,4.53,1.21,6.12C39.73,36.51,33.24,33.43,29.59,27.53Z"/><path class="cls-11" d="M28.74,29A3.56,3.56,0,0,1,33,26.33c2.75.34,5.46,5.35,7.49,8.12,1.21,1.65,1.93.22,1.93.22.08,1.1-1,4.75-1.22,5.5-.52,1.65-2,2-3.19-.49a4.91,4.91,0,0,0-5-3.07C27.31,37.16,27.84,31.68,28.74,29Z"/><path class="cls-19" d="M59,6.34a2.56,2.56,0,0,1-.77-1.59A8,8,0,0,0,57.47,2s-.2,4.49-.11,5A13.15,13.15,0,0,1,59,6.34Z"/><path class="cls-20" d="M56.31,8.38s-.54-.68-.83-1a4.84,4.84,0,0,1-1.64-3.73c0-2.69.28-3.24.64-3.55s1.32.06,2.42,1.11c0,0,1.25,1.1.64,4a9.46,9.46,0,0,0-.09,1.55S57.05,7.39,56.31,8.38Z"/><path class="cls-21" d="M56.31,7.78A4.79,4.79,0,0,1,55.18,5c0-4,2.07-2,2.07-2a6.15,6.15,0,0,1,.07,2.25,6,6,0,0,0,.12,1.41A6.28,6.28,0,0,0,56.31,7.78Z"/><path class="cls-14" d="M57.19,3.42a3.19,3.19,0,0,0-.3-2.2c.77.77,1.08,1.94.81,4a12.14,12.14,0,0,0,0,1.63,3.6,3.6,0,0,0-.92.68,3.45,3.45,0,0,1-.3-2.06C56.6,4.69,57,4.14,57.19,3.42Z"/><path class="cls-19" d="M59.85,6.44A2.86,2.86,0,0,0,60.77,5a11.09,11.09,0,0,1,1.11-2.48s-.65,4.25-.82,4.74A3.32,3.32,0,0,0,59.85,6.44Z"/><path class="cls-22" d="M61.81,8.7a5.35,5.35,0,0,1,.65-.87c.29-.27,1.21-.52,1.82-3.17s.51-3.25.31-3.61-1-.16-2.05.7c0,0-1.18.88-1.35,3.83a12.6,12.6,0,0,1-.28,1.54A3.45,3.45,0,0,1,61.81,8.7Z"/><path class="cls-23" d="M61.65,8.25A7.35,7.35,0,0,0,63,5.81c.79-4-1.12-2.28-1.12-2.28a8.17,8.17,0,0,0-.55,2.21,8,8,0,0,1-.4,1.37A2.54,2.54,0,0,1,61.65,8.25Z"/><path class="cls-24" d="M61.82,3.86a4.15,4.15,0,0,1,.71-2.13c-.75.63-1.24,1.67-1.35,3.83a12,12,0,0,1-.28,1.54,3,3,0,0,1,.64.9A8.27,8.27,0,0,0,62,6C62.1,5.29,61.81,4.61,61.82,3.86Z"/><path class="cls-12" d="M50.89,24.83A9.27,9.27,0,0,0,51.52,23a14.85,14.85,0,0,1,.5-1.86c.52,1,1.64,7.21,1.64,7.21-.63,1,.29,4.4.71,5.27a16.09,16.09,0,0,1,.9,2.23,18,18,0,0,0,.92,2.23,1.84,1.84,0,0,1,.18,1,4.11,4.11,0,0,1,.44,1,8.58,8.58,0,0,0-.6,1.39c-.12.47-1.08.17-2.32-.81a3.5,3.5,0,0,1,.42-1.44c-.16-1-.33-2.17-.49-2.84A27,27,0,0,0,51.61,32a10.58,10.58,0,0,1-1.55-4.73A3.26,3.26,0,0,1,50.89,24.83Z"/><path class="cls-17" d="M51.31,25a3.19,3.19,0,0,0,.33-1.07s2.23,4.06,2,4.48c-.46.94.29,4.4.71,5.27a16.09,16.09,0,0,1,.9,2.23,22.35,22.35,0,0,0,.92,2.23c.24.51-1.37,1-1.57,0-.15-.7-.34-1.57-.44-2A24.92,24.92,0,0,0,52,31.48a8.39,8.39,0,0,1-1.5-4.1A4.05,4.05,0,0,1,51.31,25Z"/><path class="cls-15" d="M54,40.19c-.05.65.46,1.14.78.62,0,0,.07.51.29.65s.51-.15.51-.15c.36.37.6.25.69,0a2,2,0,0,0,0-.72c.45.25.49-.46.36-.88.52,1.14,0,1.7-.21,1.35.09.83-.1,1.84-.43,1.91s-.47-.45-.47-.45-.09.37-.41.37c-.55,0-.44-1.55-.44-1.55s-.21.67-.48.65S53.77,41.24,54,40.19Z"/><path class="cls-18" d="M55.44,25.24c-1.3-.09-2.59-.29-3.89-.35.07-.82.15-1.51.16-1.74.09-2.63,1.24-4.41,2.42-4.88,1-.39,1.86.79,2.25,2.61a6.71,6.71,0,0,1-.5,3.59Z"/><path class="cls-11" d="M51.71,23.15a7.37,7.37,0,0,1,.86-3.36c-.2,1.9-.23,4,1.28,4.86a1.63,1.63,0,0,0,2.08-.32s-.66,1.25-.86,1.55c-.73,1.14-1,1.86-1.41,2.51-1,1.2-2.24-.08-2.24-1.26C51.42,25.7,51.69,23.57,51.71,23.15Z"/><path class="cls-12" d="M37.59,39.92c.07,1.06.32,2.87.48,5.56.19,3.17,0,7.51.32,7.71.49.3.58-1.29.41-4.69a68.54,68.54,0,0,0-.9-8C37.73,39.67,37.54,39.27,37.59,39.92Z"/><path class="cls-7" d="M41.51,53a6.59,6.59,0,0,0-2,1.76,3.77,3.77,0,0,1,1.86-2.25A3.38,3.38,0,0,1,41.51,53Z"/><path class="cls-25" d="M53,58.5s-.26-1.08-2.77-1.63c-.1-.07-.08-.25,1,0a3.32,3.32,0,0,1,2.32,1.74A4.2,4.2,0,0,1,53,58.5Z"/><path class="cls-25" d="M55.65,58.29s0-.54-.79-.89a14,14,0,0,0-2.69-.72c-.7-.15-.14-.26,1,0s2.55.45,2.77,1.49A2.25,2.25,0,0,1,55.65,58.29Z"/><path class="cls-26" d="M58.32,13c-.62-.53-1.28-1-1.85-1.61-.4-.42-.82-.42-1.29-.76.2-2.25,1.13-4.18,3.95-4.35a3.89,3.89,0,0,1,2.48.83c1,.88.77,1.15,1.19,1.38a1.23,1.23,0,0,1,.33,1.61,1.16,1.16,0,0,0-.13,1s.51.51.26,1.84-.72,1.54-.72,1.54S59.2,13.81,58.32,13Z"/><path class="cls-11" d="M58.32,13c-.62-.53-1.28-1-1.85-1.61-.4-.42-.82-.42-1.29-.76a4.1,4.1,0,0,1,4-4,3.47,3.47,0,0,1,2.22.61c.61.42,1,1.14,1.28,1.25s1,.94.46,1.59a1.16,1.16,0,0,0-.13,1s.51.51.26,1.84-.72,1.54-.72,1.54S59.2,13.81,58.32,13Z"/><path class="cls-27" d="M61.76,9.93c.18-.55,1.35-.77,1.55-.32a.82.82,0,0,1-.19.53,1.16,1.16,0,0,0-.13,1s.51.51.26,1.84-.71,1.58-.71,1.58S61.14,11.8,61.76,9.93Z"/><path class="cls-28" d="M63.07,11.27a.6.6,0,0,1-.51.32.93.93,0,0,0-.75.8,3.91,3.91,0,0,1,0-2.68c.33-.45,1.27-.55,1.47-.09a1.05,1.05,0,0,1-.21.6A1.5,1.5,0,0,0,63.07,11.27Z"/><path class="cls-12" d="M55.18,10.68a23,23,0,0,0,3.42,1.92c.54.09.4,3.79.4,3.79a8.86,8.86,0,0,1-2.62-.94C55.59,14.94,54.26,14.54,55.18,10.68Z"/><path class="cls-11" d="M55.18,10.68c.28-1.52.49-1.7,1.07-1.91a7.94,7.94,0,0,0,1.84-.57A3.17,3.17,0,0,1,59,7.91c0,2.51.06,5,0,7.54a5.06,5.06,0,0,1-2.41-.51C55.62,14.34,54.51,13.44,55.18,10.68Z"/><path class="cls-29" d="M57.42,11.41a1.08,1.08,0,0,1-1.19-.74c0-.18-.06-.84.2-1a1.44,1.44,0,0,1,1.49.11,3.56,3.56,0,0,1,.75,2C58.31,11.47,58.12,11.39,57.42,11.41Z"/><path class="cls-10" d="M58.86,12.8c.22-4.55-2.69-3.37-2.76-3.37-.32,0,0-.59.14-.67a8.63,8.63,0,0,0,1.84-.57,4.13,4.13,0,0,1,2.42-.29,4.46,4.46,0,0,0,1.94.75.47.47,0,0,1,.43.48,1.25,1.25,0,0,0-1.21.53,2.63,2.63,0,0,0-.21,1.69C61.35,11.62,58.82,13.76,58.86,12.8Z"/><path class="cls-12" d="M60,10.43c.28-.4.94-.5,1.52,1,.16.43.37,1,.53,1.52l.54,1.61a1,1,0,0,1-.75,1.16,1.44,1.44,0,0,1-1.43,1.14,1.65,1.65,0,0,1-1.24-.41,1.89,1.89,0,0,1-.88-1.54A16,16,0,0,1,60,10.43Z"/><path class="cls-14" d="M60,10.43c.28-.4.94-.5,1.52,1,.16.43.37,1,.53,1.52l.54,1.61a1,1,0,0,1-.75,1.16,1.44,1.44,0,0,1-1.43,1.14,1.65,1.65,0,0,1-1.24-.41A9.33,9.33,0,0,1,58.91,15,11.13,11.13,0,0,1,60,10.43Z"/><path class="cls-12" d="M58.24,14.94c.09,0,.85.62,1,.69a1.33,1.33,0,0,0,2.12.59.64.64,0,0,0,.13-.31l.33-.17a1.44,1.44,0,0,1-1.43,1.14,2.06,2.06,0,0,1-1.45-.51A1.69,1.69,0,0,1,58.24,14.94Z"/><path class="cls-12" d="M58.92,14.42c0,1,1.52,1.33,1.92.88a1.12,1.12,0,0,0,.75.16,1,1,0,0,0,1-.87,1,1,0,0,1-.75,1.16,2.51,2.51,0,0,1-1.73.26,2.28,2.28,0,0,1-1.52-.86C58.52,15,58.92,14.42,58.92,14.42Z"/><circle cx="57.22" cy="10.46" r="0.75"/><ellipse cx="62.56" cy="10.56" rx="0.59" ry="0.74" transform="translate(-0.18 1.14) rotate(-1.04)"/><path class="cls-30" d="M60.81,16a6.23,6.23,0,0,0,.07-1.68l-.05,0a7.08,7.08,0,0,1-.15,1.59Z"/><path class="cls-30" d="M58.93,15.29s1,1,1.86.51a1.36,1.36,0,0,0,1-.06l0,.13a1,1,0,0,1-1,.13,1.44,1.44,0,0,1-1.57-.29C58.64,15.44,58.56,15.06,58.93,15.29Z"/><path class="cls-30" d="M61.28,16.07a1.05,1.05,0,0,1-1.2.05A1.44,1.44,0,0,1,61.28,16.07Z"/><circle class="cls-31" cx="57.02" cy="10.11" r="0.24"/><circle class="cls-31" cx="62.36" cy="10.21" r="0.2"/><path class="cls-32" d="M59.72,13c.14-.9.47-2.18.84-2.23s.94,1.34,1.26,2.23A2.33,2.33,0,0,0,59.72,13Z"/><path class="cls-33" d="M60.86,14.73a2.92,2.92,0,0,0-.84-.56c-.64-.18-.53-.67-.09-.94s1.78-.26,2,.22C62.35,14.2,61.28,14.27,60.86,14.73Z"/><path class="cls-34" d="M59.85,13.25c.66-.38,1.87-.27,2.12.21A.46.46,0,0,1,62,14a.85.85,0,0,0-.93.6l-.17.15-.16-.13a1.06,1.06,0,0,0-1.09-.7A.51.51,0,0,1,59.85,13.25Z"/><path class="cls-35" d="M60.87,13.79c-.72,0-1-.2-1-.34a.26.26,0,0,1,.13-.27c.53-.32,1.85-.17,1.87.22C61.85,13.62,61.42,13.8,60.87,13.79Z"/><ellipse class="cls-36" cx="60.88" cy="13.27" rx="0.65" ry="0.17"/><path class="cls-27" d="M56.82,15.7v.59s-1.39-.66-1.71-1.59c0-.28,0-.52,0-.52a3.3,3.3,0,0,0,.3.52A5.47,5.47,0,0,0,56.82,15.7Z"/><path class="cls-11" d="M55.1,14.7a2,2,0,0,1-.12-.38c0-.14,0-.41,0-.41s.07.24.09.27S55.1,14.7,55.1,14.7Z"/><path class="cls-37" d="M61.22,19.73s-.21,1.47-.36,2.06A17.7,17.7,0,0,1,58,27a7.42,7.42,0,0,0,.42,1.16,38,38,0,0,0,2.14-4.32A12,12,0,0,0,61.22,19.73Z"/><path class="cls-38" d="M58.41,28.11s-.5.82-.68,1.22a10.82,10.82,0,0,1-.28-1.63L58,27S58.21,27.61,58.41,28.11Z"/><path class="cls-13" d="M52.37,33.32s-.81-1.44-.95-1.7-.64-1.35-.64-1.35l-.95.67s.74,2.34,1.19,3.36C51.46,34,52.37,33.32,52.37,33.32Z"/><path class="cls-39" d="M50.78,30.27a9.64,9.64,0,0,1-.61-2.12,3.84,3.84,0,0,1,.05-2.09,5.43,5.43,0,0,1,.7-1.28c.59-1,.62-2.39,1.17-3.9-.26.58-.89,2.37-1.09,2.85s-.94,1.33-1.17,1.8-1.06,2,0,5.41C50.2,30.7,50.78,30.27,50.78,30.27Z"/><path class="cls-1" d="M30.38,40.36s-4-1-3.93-4.85a6,6,0,0,0,2.29,5.43Z"/><path class="cls-13" d="M58.92,16.38a2.65,2.65,0,0,1-.7-1.16,2.48,2.48,0,0,0,.35,1.07Z"/><path class="cls-3" d="M42.26,32.72l.72.06a22.39,22.39,0,0,0-2.21-3.91A20.22,20.22,0,0,1,42.26,32.72Z"/></svg>