<svg xmlns="http://www.w3.org/2000/svg" xmlns:xlink="http://www.w3.org/1999/xlink" viewBox="0 0 40.48 39.88"><defs><style>.cls-1{isolation:isolate;}.cls-2{fill:url(#radial-gradient);}.cls-3{fill:#fff;}.cls-4{fill:url(#linear-gradient);}.cls-5{mix-blend-mode:multiply;fill:url(#radial-gradient-2);}.cls-6,.cls-7{mix-blend-mode:screen;}.cls-6{fill:url(#linear-gradient-2);}.cls-7{fill:url(#linear-gradient-3);}</style><radialGradient id="radial-gradient" cx="21.55" cy="20.46" r="26.13" gradientUnits="userSpaceOnUse"><stop offset="0" stop-color="#fff200"/><stop offset="0.44" stop-color="#fff002"/><stop offset="0.6" stop-color="#feea09"/><stop offset="0.72" stop-color="#fedf14"/><stop offset="0.81" stop-color="#fdd025"/><stop offset="0.89" stop-color="#fbbc3b"/><stop offset="0.9" stop-color="#fbb840"/></radialGradient><linearGradient id="linear-gradient" x1="20.24" y1="33.22" x2="20.24" y2="6.66" gradientUnits="userSpaceOnUse"><stop offset="0" stop-color="#fbb840"/><stop offset="0.37" stop-color="#fdd223"/><stop offset="0.76" stop-color="#fee909"/><stop offset="1" stop-color="#fff200"/></linearGradient><radialGradient id="radial-gradient-2" cx="21.1" cy="20.28" r="17.28" xlink:href="#radial-gradient"/><linearGradient id="linear-gradient-2" x1="20.24" y1="7.17" x2="20.24" y2="16.65" gradientUnits="userSpaceOnUse"><stop offset="0" stop-color="#a7a9ac"/><stop offset="0.15" stop-color="#a3a5a8"/><stop offset="0.3" stop-color="#97999b"/><stop offset="0.46" stop-color="#838487"/><stop offset="0.62" stop-color="#666869"/><stop offset="0.78" stop-color="#424344"/><stop offset="0.94" stop-color="#161617"/><stop offset="1" stop-color="#050505"/></linearGradient><linearGradient id="linear-gradient-3" x1="20.19" y1="7.17" x2="20.19" y2="12.46" gradientUnits="userSpaceOnUse"><stop offset="0" stop-color="#a7a9ac"/><stop offset="0.16" stop-color="#a3a5a8"/><stop offset="0.33" stop-color="#97999b"/><stop offset="0.51" stop-color="#848487"/><stop offset="0.68" stop-color="#686769"/><stop offset="0.86" stop-color="#454344"/><stop offset="1" stop-color="#231f20"/></linearGradient></defs><title>Sun</title><g class="cls-1"><g id="Layer_1" data-name="Layer 1"><path class="cls-2" d="M40.48,19.94c0,1.07-4.37,1.75-4.54,2.77s3.68,3.17,3.33,4.15-4.7.14-5.22,1,2.38,4.24,1.7,5-4.46-1.48-5.26-.8.79,4.79-.12,5.32-3.68-2.91-4.67-2.55-.89,4.77-1.94,5-2.44-4-3.51-4-2.49,4.18-3.51,4-1-4.6-1.94-5S11,38,10.12,37.47s.68-4.65-.12-5.32-4.59,1.61-5.26.8,2.23-4.13,1.7-5-4.86,0-5.22-1,3.51-3.1,3.33-4.15S0,21,0,19.94s4.37-1.75,4.54-2.77S.86,14,1.22,13s4.7-.14,5.22-1-2.38-4.24-1.7-5,4.46,1.48,5.26.8-.8-4.79.12-5.32S13.79,5.33,14.79,5s.89-4.77,1.94-5,2.44,4,3.51,4,2.49-4.18,3.51-4,1,4.6,1.94,5,3.77-3.08,4.67-2.55-.68,4.65.12,5.32,4.59-1.61,5.26-.8-2.23,4.13-1.7,5,4.86,0,5.22,1-3.51,3.1-3.33,4.15S40.48,18.87,40.48,19.94Z"/><circle class="cls-3" cx="20.38" cy="19.94" r="14.36"/><circle class="cls-4" cx="20.24" cy="19.94" r="13.28"/><circle class="cls-5" cx="20.24" cy="19.94" r="13.28"/><path class="cls-6" d="M30.62,16.65A10.17,10.17,0,0,0,20.24,7.17,10.17,10.17,0,0,0,9.86,16.65Z"/><path class="cls-7" d="M27.51,12.46c-.16-2.94-3.37-5.29-7.31-5.29S13,9.52,12.88,12.46Z"/></g></g></svg>