<?xml version="1.0" encoding="utf-8"?>
<!-- Generator: Adobe Illustrator 20.1.0, SVG Export Plug-In . SVG Version: 6.00 Build 0)  -->
<svg version="1.1" id="Layer_1" xmlns="http://www.w3.org/2000/svg" xmlns:xlink="http://www.w3.org/1999/xlink" x="0px" y="0px"
	 viewBox="0 0 145 198" style="enable-background:new 0 0 145 198;" xml:space="preserve">
<g>
	<!--<g>
		<g>
			<path style="display:none;fill:#55C58F;" d="M132,57.2c0-4.4-1.3-8.1-2.8-8.1c-1.6,0-2.8,3.6-2.8,8.1c0,4.4,1.3,8.1,2.8,8.1
				C130.7,65.3,132,61.7,132,57.2"/>
			<polyline style="display:none;fill:#55C58F;" points="129.2,49.2 127.9,49.2 127.9,65.3 129.2,65.3 129.2,49.2 			"/>
			<path style="display:none;fill:#40946B;" d="M130.7,57.2c0-4.4-1.3-8.1-2.8-8.1c-1.6,0-2.8,3.6-2.8,8.1c0,4.4,1.3,8.1,2.8,8.1
				C129.5,65.3,130.7,61.7,130.7,57.2"/>
			<path style="display:none;fill:#2B6348;" d="M129.3,57.2c0-2-0.6-3.6-1.3-3.6s-1.3,1.6-1.3,3.6s0.6,3.6,1.3,3.6
				C128.7,60.9,129.3,59.2,129.3,57.2"/>
			<path style="display:none;fill:#58595B;" d="M127.9,58.6L127.9,58.6c-0.9-0.1-1.4-0.7-1.3-1.5c2.8-29.7,2-44.3-10.1-46.9
				C101.3,7.1,81.2,8.4,81,8.5c-0.7,0.1-1.4-0.4-1.5-1.2c-0.1-0.7,0.4-1.4,1.2-1.5c0.9-0.1,20.7-1.4,36.3,1.8
				c15.4,3.2,14.8,22.7,12.3,49.8C129.2,58.1,128.6,58.6,127.9,58.6z"/>
			<path style="display:none;fill:#414042;" d="M128.5,57.5h-0.1c-0.8-0.1-1.3-0.7-1.2-1.5c2.8-29.7,2-44.3-10.1-46.9
				C102,6,81.9,7.3,81.7,7.3c-0.7,0.1-1.4-0.4-1.5-1.2V6c-0.4,0.3-0.6,0.7-0.6,1.3c0,0.7,0.6,1.3,1.4,1.2c0.2,0,20.3-1.4,35.4,1.8
				c12.1,2.5,12.9,17.1,10.1,46.9c-0.1,0.7,0.5,1.4,1.2,1.5h0.1c0.7,0,1.3-0.5,1.4-1.2c0-0.1,0-0.1,0-0.2
				C129.1,57.4,128.8,57.5,128.5,57.5z"/>
			<path style="display:none;fill:#B3B3B3;" d="M117,7.6c-15.6-3.2-35.4-1.9-36.3-1.8c-0.5,0.1-0.8,0.3-1,0.7
				c0.1-0.1,0.3-0.1,0.5-0.2c0.9-0.1,20.7-1.4,36.3,1.8c15.4,3.2,14.8,22.7,12.3,49.8c0,0.2-0.1,0.3-0.1,0.5c0.4-0.2,0.7-0.6,0.7-1
				C131.8,30.2,132.4,10.8,117,7.6z"/>
			
				<rect x="47.8" y="3.6" transform="matrix(0.9866 -0.1634 0.1634 0.9866 -0.5813 10.6337)" style="display:none;fill:#917054;" width="33.1" height="10.5"/>
			<path style="display:none;fill:#754C29;" d="M79.8,1l-1.6,0.3c-5.1,5-13.5,9-23.4,10.7c-2.3,0.4-4.5,0.6-6.7,0.7l0.7,4.2
				l32.7-5.4c1.1-0.2,1.6-2.7,1.1-5.5C82.2,3,80.9,0.8,79.8,1z"/>
			
				<ellipse transform="matrix(0.9865 -0.1636 0.1636 0.9865 -1.251 8.0091)" style="display:none;fill:#AC947F;" cx="48" cy="11.6" rx="2" ry="5.3"/>
			
				<ellipse transform="matrix(0.9866 -0.1632 0.1632 0.9866 -1.2496 7.9891)" style="display:none;fill:#917054;" cx="48" cy="11.6" rx="0.9" ry="2.3"/>
			
				<ellipse transform="matrix(0.9866 -0.1634 0.1634 0.9866 -1.2503 7.9991)" style="display:none;fill:#754C29;" cx="48" cy="11.6" rx="0.6" ry="1.5"/>
			<path style="display:none;fill:#58391F;" d="M81.7,2.8L81.7,2.8c-0.3-0.6-0.6-1.1-0.9-1.4l0,0c-0.1-0.1-0.1-0.1-0.2-0.2h-0.1
				c-0.1,0-0.1-0.1-0.2-0.1h-0.1c-0.1,0-0.1,0-0.2,0h-0.1c-0.1,0-0.2,0-0.2,0l-1.6,0.3c-0.3,0.3-0.7,0.6-1,0.9
				c1.1,0.1,2.1,0.2,3,0.3c0.5,0.9,1,2.1,1.2,3.6c0.1,0.5,0.1,1,0.2,1.4c-3.7,2.1-10.7,4.2-18.9,5.6c-4.6,0.8-8.9,1.2-12.5,1.2
				c-0.1,1.4-0.6,2.4-1.3,2.5l32.7-5.4c0.1,0,0.2-0.1,0.3-0.1l0,0c0.1-0.1,0.2-0.2,0.3-0.3l0,0c0.1-0.1,0.2-0.2,0.2-0.4v-0.1
				c0.1-0.2,0.1-0.3,0.2-0.5l0,0c0.2-0.6,0.2-1.4,0.2-2.3l0,0c0-0.3,0-0.6-0.1-0.9c0-0.3-0.1-0.6-0.1-0.9
				C82.5,4.7,82.1,3.6,81.7,2.8z"/>
			<path style="fill:#40946B;" d="M7.6,73.3c9.5,7.4,33,12.7,60.5,12.7c27.2,0,50.5-5.2,60.2-12.5c-9.5-7.4-33-12.7-60.5-12.7
				C40.6,60.8,17.3,66,7.6,73.3z"/>
			<path style="fill:#40946B;" d="M8,75c9.6-7.4,33-12.5,60.3-12.5c27.7,0,51.3,5.3,60.7,12.8c3.1-2.3,4.7-4.9,4.7-7.5
				c0-11.1-29.1-20.1-65-20.1s-65,9-65,20.1C3.7,70.3,5.2,72.7,8,75"/>
			<path style="fill:#55C58F;" d="M68.6,87.6c-34.2,0-62.3-8.2-64.8-18.5l14.9,109.5c0,9.6,22.9,17.4,51.1,17.4s51.1-7.8,51.1-17.4
				l12.6-109.8C131.3,79.3,103.1,87.6,68.6,87.6"/>
			<path style="fill:#B3D4C4;" d="M129.4,80.9C127.3,91.2,99,99.3,65,99.3c-3.9,0-7.8-0.1-11.7-0.3l-0.1,0.9
				c6.4,0.6,13,0.9,19.7,0.9c23.2,0,44.2-3.7,56.1-9.9l0.2-0.1l1.1-9.8L129.4,80.9"/>
			<path style="fill:#B3D4C4;" d="M35,167.3l-5.9-64.9l-0.4-10.9C23.9,89,15.8,88,15,84.9l-0.9,0.2l13.3,95.3c0,1.1,0.3,2.2,0.9,3.3
				l0.1,0.1l0.1,0.1c3.5,1.7,13.9,6,17.3,6.2H47l-0.9-0.8C44.2,187.6,35,169.3,35,167.3"/>
			<path style="fill:#B3D4C4;" d="M69.7,196L69.7,196L69.7,196 M69.7,196L69.7,196L69.7,196 M69.6,196L69.6,196L69.6,196 M69.6,196
				L69.6,196L69.6,196 M69.5,196L69.5,196L69.5,196 M69.5,196L69.5,196L69.5,196 M69.4,196L69.4,196L69.4,196 M69.3,196L69.3,196
				L69.3,196 M69.3,196L69.3,196L69.3,196 M69.3,196L69.3,196L69.3,196 M69.2,196L69.2,196L69.2,196 M69.2,196L69.2,196L69.2,196
				 M69.1,196L69.1,196L69.1,196 M69,196L69,196L69,196 M69,196L69,196L69,196 M68.9,196L68.9,196L68.9,196 M68.9,196L68.9,196
				L68.9,196 M68.8,196L68.8,196L68.8,196"/>
			<path style="fill:#4DB181;" d="M132.4,75.2c-4.9,5.8-15.9,10.1-29.4,12.7c0.9,2.3,1.7,4.6,2.5,7c13.6-3.4,22.7-8.4,23.8-14
				l0.9,0.1l-1.1,9.8l-0.2,0.1c-5.7,3-13.5,5.3-22.5,7c1.5,5.8,2.3,12,2.3,18.3c0,36-25.4,66-58.9,72.4c5.8,0.7,12.1,1.1,18.6,1.1
				c29,0,52.6-7.8,52.6-17.4L132.4,75.2 M132.8,74.8c-0.1,0.1-0.1,0.2-0.2,0.3l-11.9,103.5c0,9.6-22.9,17.4-51.1,17.4
				c-10.5,0-20.2-1.1-28.3-2.9c7.9,1.8,17.4,2.9,27.6,3l0,0l0,0l0,0l0,0l0,0l0,0l0,0l0,0l0,0H69l0,0l0,0l0,0l0,0l0,0l0,0l0,0l0,0
				l0,0l0,0l0,0l0,0l0,0h0.1l0,0l0,0l0,0l0,0l0,0l0,0l0,0l0,0l0,0l0,0l0,0l0,0c28.2,0,51.1-7.8,51.1-17.4L132.8,74.8"/>
			<path style="fill:#95B1A3;" d="M8.1,74.9L8.1,74.9L8.1,74.9 M8.2,74.9L8.2,74.9L8.2,74.9 M8.2,74.9L8.2,74.9L8.2,74.9 M8.2,74.8
				L8.2,74.8L8.2,74.8 M8.2,74.8L8.2,74.8L8.2,74.8 M8.3,74.8L8.3,74.8L8.3,74.8 M8.3,74.8L8.3,74.8L8.3,74.8 M8.3,74.8L8.3,74.8
				L8.3,74.8 M3.7,67.7L3.7,67.7L3.7,67.7 M3.7,67.7L3.7,67.7L3.7,67.7 M3.7,67.7L3.7,67.7L3.7,67.7 M3.7,67.7L3.7,67.7L3.7,67.7
				 M3.7,67.7L3.7,67.7L3.7,67.7 M3.7,67.7L3.7,67.7L3.7,67.7 M3.7,67.6L3.7,67.6L3.7,67.6 M3.7,67.6L3.7,67.6L3.7,67.6 M3.7,67.6
				L3.7,67.6L3.7,67.6 M3.7,67.6L3.7,67.6L3.7,67.6 M30.4,66.2c-9.7,2.2-17.4,5.1-22.1,8.6C13,71.3,20.7,68.4,30.4,66.2L30.4,66.2"
				/>
			<path style="fill:#357B59;" d="M28.2,52.1C13.4,55.7,3.9,61.3,3.7,67.6c0,0,0,0,0,0.1c0,1,0.3,2.1,0.8,3.1c0.8,1.4,2,2.8,3.8,4
				l0,0l0,0c2-2,4.5-3.4,6.9-1.7c2.1,1.5,4.1,3,6.2,4.4c1.1,0.8,2.3,1.6,3.7,2c0.7,0.2,1.5,0.2,2.3,0.2c1,0,2.2-0.2,2.8-1
				c0.3-0.5,0.4-1.1,0.5-1.7c0.2-2,0.2-3.9,0-5.9c-0.1-1.3-1.1-4-0.3-4.9c-2.2-2.6-1.8-6-1.8-9.2C28.6,55.1,27.4,53.8,28.2,52.1"/>
			<path style="fill:#40946B;" d="M4.4,70.8C5.1,72.2,6.3,73.6,8,75l0.1-0.1C6.4,73.6,5.2,72.3,4.4,70.8"/>
			<path style="fill:#95B1A3;" d="M128.6,75L128.6,75l0.1,0.1l0,0C128.7,75.1,128.7,75.1,128.6,75"/>
			<path style="fill:#40946B;" d="M128.8,75.1L128.8,75.1c0.1,0.1,0.1,0.1,0.2,0.2C128.9,75.2,128.9,75.2,128.8,75.1"/>
			<path style="fill:#85BAA0;" d="M129.4,80.9c-1.2,5.7-10.2,10.7-23.8,14c0.3,1,0.6,2,0.8,3.1c9.1-1.7,16.8-4.1,22.5-7l0.2-0.1
				l1.1-9.8L129.4,80.9"/>
			<path style="fill:#B3D4C4;" d="M18.4,177.8l0.1,0.8c0,5.9,8.8,11.2,22.1,14.3c-13.3-3.1-21.9-8.4-21.9-14.3l-0.1-0.6L18.4,177.8"
				/>
			<path style="fill:#4DB181;" d="M45.1,187.9c0.4,0.6,0.7,1,0.9,1.3c1.3-0.2,2.5-0.4,3.7-0.6C48.1,188.4,46.6,188.2,45.1,187.9
				 M28.4,184l-0.1-0.1l-0.1-0.1l-0.1-0.2"/>
			<path style="fill:#85BAA0;" d="M28.1,183.5l0.1,0.2l0.1,0.1l0.1,0.1c2.8,1.4,9.9,4.4,14.5,5.6c1-0.1,2.1-0.2,3.1-0.4
				c-0.2-0.3-0.5-0.7-0.9-1.3C38.5,186.9,32.8,185.4,28.1,183.5"/>
			<path style="fill:#48A578;" d="M132.6,75.1l-0.1,0.1L121,172.3c0,9.6-23.5,17.4-52.6,17.4c-6.6,0-12.8-0.4-18.6-1.1
				c-1.2,0.2-2.5,0.4-3.7,0.6l0.1,0.1l0.9,0.8h-1.2c-0.7,0-1.7-0.2-2.9-0.5c-2.2,0.2-4.4,0.3-6.7,0.3c-2,0-4-0.1-6-0.3
				c3.2,1.3,6.9,2.5,11,3.4c8.1,1.8,17.9,2.9,28.3,2.9c28.2,0,51.1-7.8,51.1-17.4L132.6,75.1"/>
			<path style="fill:#69AB8B;" d="M46,189.2c-1,0.1-2,0.3-3.1,0.4c1.2,0.3,2.2,0.5,2.9,0.5H47L46,189.2L46,189.2"/>
			<path style="fill:#367E5B;" d="M133.3,68.8c0,0.1-0.1,0.3-0.1,0.4l-0.7,6l0.1-0.1L133.3,68.8"/>
			<path style="fill:#E1F5EB;" d="M86.1,63.2c5.3,0.5,10.3,1.1,14.9,2l0,0c-4.6-0.8-9.5-1.5-14.7-1.9C86.2,63.2,86.1,63.2,86.1,63.2
				"/>
			<path style="fill:#5BA983;" d="M86.6,48.5c0.1,0.2,0.3,0.5,0.5,0.7c0.6,2.2,0.9,4.7,0.9,7.3c0,2.2,0,4.2-1,6.1
				c-1.2,2.2-2.4,4.4-2,7c0.2,1,0.6,1.9,0.9,2.9c1,2.9,1.1,6.1,0.5,9.1c1.3-1.9,1.7-4.2,3-6.1c1-1.4,2.6-2.5,4.1-3.4
				c1.3-0.8,2.5-1.6,3.8-2.4c1-0.6,2-1.3,2.7-2.2c2.1-2.8-0.2-8.7-0.2-11.9c0-1.8,0.1-3.5,0.3-5.2C95.9,49.5,91.3,48.9,86.6,48.5"/>
			<path style="fill:#E1F5EB;" d="M73.7,62.5L73.7,62.5c2.9,0.1,5.8,0.2,8.6,0.4l0,0C79.5,62.7,76.6,62.6,73.7,62.5"/>
			<path style="fill:#5BA983;" d="M73.8,47.8c0.6,2.2,0.9,4.7,0.9,7.3c0,2.3-0.5,4.3-0.9,6.5s0,4.5,0.1,6.7
				c0.1,4.9-0.1,9.9-1.4,14.7c0.3-2.8,2.2-5.1,2.9-7.8c0.5-1.9,0.3-3.8,1-5.6c1-2.3,3.2-3.7,4.8-5.6c2-2.4,2.1-5.4,2.1-8.3
				c0-2.6-0.3-5-0.9-7.3c1.3,0,2.7,0.1,4,0.1C82.3,48.1,78.1,47.9,73.8,47.8"/>
			<path style="fill:#99DCBC;" d="M108.5,51.1L108.5,51.1c-6.7-1.2-14.2-2-22.1-2.4c0.1,0.2,0.3,0.5,0.5,0.7l0,0
				C94.6,49.6,101.9,50.2,108.5,51.1z"/>
			<path style="fill:#D6F1E4;" d="M115.2,68.6L115.2,68.6c5.7,1.8,10.3,4,13.5,6.4C125.5,72.6,120.9,70.4,115.2,68.6 M133.7,67.7
				L133.7,67.7L133.7,67.7 M133.7,67.7L133.7,67.7L133.7,67.7 M133.7,67.7L133.7,67.7L133.7,67.7 M133.7,67.7L133.7,67.7L133.7,67.7
				 M133.7,67.7L133.7,67.7L133.7,67.7 M133.7,67.7L133.7,67.7L133.7,67.7 M133.7,67.7L133.7,67.7L133.7,67.7 M133.7,67.6
				L133.7,67.6L133.7,67.6 M133.7,67.6L133.7,67.6L133.7,67.6"/>
			<path style="fill:#64B18B;" d="M117.6,54.5c0.3,1.3,0.4,2.6,0.4,3.9c0,7.5-3.8,15.7-8.9,21.1c0.6-0.6,3.9-1,4.9-1.3
				c1.8-0.7,3.6-1.4,5.4-2.1s3.6-1.3,5.4-1.5c1.4-0.2,3.6,0.5,4.6,0.1c1.8-1.4,3-2.9,3.7-4.5l0.1-0.9c0-0.1,0.1-0.3,0.1-0.4
				l-0.1,1.1c0.1-0.3,0.2-0.7,0.3-1.1l-0.1,1.2c0.3-0.7,0.4-1.5,0.4-2.4C133.6,62.6,127.5,58,117.6,54.5"/>
			<path style="fill:#70CEA1;" d="M133,70.2c-0.7,1.6-1.9,3.1-3.7,4.5c0.3-0.1,0.6-0.3,0.8-0.4c-0.4,0.3-0.8,0.7-1.2,1
				c1.9-1.4,3.2-2.9,4-4.5L133,70.2 M133.5,68.8c-0.1,0.4-0.2,0.7-0.3,1.1l-0.1,0.7c0.1-0.2,0.2-0.4,0.3-0.6L133.5,68.8"/>
			<path style="fill:#96C2AD;" d="M128.6,75L128.6,75l0.1,0.1C128.7,75.1,128.7,75.1,128.6,75"/>
			<path style="fill:#5DA281;" d="M129.4,74.7c-0.2,0.1-0.5,0.2-0.7,0.4l0.1,0.1C129,75,129.2,74.8,129.4,74.7"/>
			<path style="fill:#64B18B;" d="M130.2,74.3c-0.3,0.1-0.6,0.3-0.8,0.4c-0.2,0.2-0.4,0.3-0.6,0.5c0.1,0.1,0.1,0.1,0.2,0.2
				C129.4,75,129.8,74.6,130.2,74.3"/>
			<path style="fill:#5EA482;" d="M133.3,68.8c0,0.1-0.1,0.3-0.1,0.4l-0.1,0.9l-0.1,0.7c0-0.1,0.1-0.1,0.1-0.2l0.1-0.7L133.3,68.8"
				/>
			<path style="display:none;fill:#8D8C8E;" d="M13.2,77.1c-0.6-4.4-2.3-7.8-3.8-7.6l-1.2,0.2c-1.5,0.2-2.3,3.9-1.7,8.3
				s2.3,7.8,3.8,7.6l1.2-0.2C13,85.2,13.8,81.5,13.2,77.1z"/>
			<path style="fill:#40946B;" d="M68.7,90.1c-32.6,0-67.3-7.8-67.3-22.3s34.7-22.3,67.3-22.3S136,53.3,136,67.8
				S101.3,90.1,68.7,90.1 M68.7,50C31.7,50,6,59.4,6,67.8s25.8,17.8,62.7,17.8c37,0,62.7-9.4,62.7-17.8C131.4,59.3,105.7,50,68.7,50
				"/>
			<path style="fill:#306F50;" d="M68.9,91.1c-32.6,0-67.3-7.8-67.3-22.3s34.7-22.3,67.3-22.3s66.3,7.4,66.3,22
				S101.6,91.1,68.9,91.1 M68.9,50.9c-37,0-62.7,9.4-62.7,17.8S32,86.5,68.9,86.5c37,0,62.7-9.4,62.7-17.8
				C131.7,60.3,105.9,50.9,68.9,50.9"/>
			<path style="fill:#77D1A5;" d="M68.7,89.7c-17.5,0-34.1-2.1-46.5-6C8.9,79.6,1.9,74.1,1.9,67.8s7-11.8,20.3-15.9
				c12.5-3.8,29-6,46.5-6s34.1,2.1,46.5,6c13.3,4.1,20.3,9.6,20.3,15.9s-7,11.8-20.3,15.9C102.8,87.5,86.2,89.7,68.7,89.7z
				 M68.7,49.5c-37.2,0-63.2,9.6-63.2,18.3c0,8.6,26,18.3,63.2,18.3s63.2-9.6,63.2-18.3S105.9,49.5,68.7,49.5z"/>
			<path style="fill:#BBE8D2;" d="M68.7,88.7c-37,0-65.9-9.2-65.9-21s29-21,65.9-21c37,0,65.9,9.2,65.9,21S105.7,88.7,68.7,88.7z
				 M68.7,48.6c-34.8,0-64.1,8.8-64.1,19.2S34,87,68.7,87c34.8,0,64.1-8.8,64.1-19.2C132.8,57.4,103.5,48.6,68.7,48.6z"/>
			<path style="display:none;fill:#40946B;" d="M9.5,67.5l-1.2,0.2l0.1,0.8c-0.8,1.4-1,4.2-0.6,7.4c0.4,3.2,1.4,5.8,2.5,7l0.1,0.8
				l1.2-0.2c1.5-0.2,2.3-3.9,1.7-8.3C12.8,70.8,11.1,67.3,9.5,67.5z"/>
			
				<ellipse transform="matrix(0.9916 -0.1293 0.1293 0.9916 -9.7091 1.8509)" style="display:none;fill:#55C58F;" cx="9.4" cy="75.7" rx="2.8" ry="8.1"/>
			
				<ellipse transform="matrix(0.9916 -0.1294 0.1294 0.9916 -9.7165 1.8528)" style="display:none;fill:#2B6348;" cx="9.4" cy="75.7" rx="1.3" ry="3.6"/>
			<path style="display:none;fill:#58595B;" d="M8.9,26.9C19.3,15.8,46,13.2,48.3,13c0,0,0.2-0.4,0-1.3c-0.2-0.9-0.4-1.2-0.4-1.2
				C46.7,10.6,18.5,12.7,7,25.1c-8.3,8.8-8,24.7,1.1,51.5c0.2,0.6,0.7,0.9,1.3,0.9c0.1,0,0.3,0,0.4-0.1c0.7-0.2,1.1-1,0.9-1.7
				C2,50,1.4,34.9,8.9,26.9z"/>
			<path style="display:none;fill:#8D8C8E;" d="M46.8,12.4C44.6,12.5,18,14.8,7.6,26c-7.5,8.1-7,23.1,1.7,48.8
				c0.2,0.7-0.1,1.5-0.9,1.7c-0.1,0-0.2,0.1-0.4,0.1c0.2,0.6,0.7,0.9,1.3,0.9c0.1,0,0.3,0,0.4-0.1c0.7-0.2,1.1-1,0.9-1.7
				C2,50,1.4,34.9,8.9,26.9C19.3,15.8,46,13.2,48.3,13c0,0,0.1-0.3,0.1-0.9"/>
			<path style="display:none;fill:#313032;" d="M6.9,25.4C18.4,13,46.7,10.9,47.8,10.8c0,0,0.3,0.3,0.4,1.2c0,0.2,0.1,0.4,0.1,0.6
				c0-0.2,0-0.5-0.1-0.9c-0.2-0.9-0.4-1.2-0.4-1.2c-1.2,0.1-29.4,2.2-40.9,14.6C3,29.3,1,35.1,1,42.9C1.1,35.3,3.1,29.6,6.9,25.4z"
				/>
			<path style="display:none;fill:#313032;" d="M3.7,43.4c0,8.2,2.3,19,6.9,32.8l0.1,0.2c0-0.2,0-0.4-0.1-0.6
				C6.1,62.1,3.8,51.5,3.7,43.4z"/>
		</g>
	</g>-->
	<path style="opacity:0.5;fill:#33BCFF;enable-background:new    ;" d="M5,61.4c0,0-3,3-3,7c0,0-0.4,4.1,3.4,8.1l13.9,102
		c0,0-0.5,6.9,10.7,11.4c11.8,4.7,33.2,9,59.3,5.5c0,0,18.2-2.7,25.2-7.5c6.4-3.8,6.9-5.8,7.2-9.5c1-5.2,11.6-102.7,11.6-102.7
		s5.5-4.6,2.7-11.5c-1.5-3.7-10.2-9.1-17.4-11.3c0,0-14.5-6-46.7-6.8c-21.1-0.6-42,4-42,4S12.5,53.5,5,61.4z"/>
</g>
</svg>
