<?xml version="1.0" encoding="utf-8"?>
<!-- Generator: Adobe Illustrator 20.1.0, SVG Export Plug-In . SVG Version: 6.00 Build 0)  -->
<svg version="1.1" id="Layer_1" xmlns="http://www.w3.org/2000/svg" xmlns:xlink="http://www.w3.org/1999/xlink" x="0px" y="0px"
	 width="145px" height="198px" viewBox="0 0 145 198" style="enable-background:new 0 0 145 198;" xml:space="preserve">
<g>
	<g>
		<g>
			<path style="fill:#55C58F;" d="M132,57.2c0-4.4-1.3-8.1-2.8-8.1c-1.6,0-2.8,3.6-2.8,8.1c0,4.4,1.3,8.1,2.8,8.1
				C130.7,65.3,132,61.7,132,57.2"/>
			<polyline style="fill:#55C58F;" points="129.2,49.2 127.9,49.2 127.9,65.3 129.2,65.3 129.2,49.2 			"/>
			<path style="fill:#40946B;" d="M130.7,57.2c0-4.4-1.3-8.1-2.8-8.1c-1.6,0-2.8,3.6-2.8,8.1c0,4.4,1.3,8.1,2.8,8.1
				C129.5,65.3,130.7,61.7,130.7,57.2"/>
			<path style="fill:#2B6348;" d="M129.3,57.2c0-2-0.6-3.6-1.3-3.6s-1.3,1.6-1.3,3.6s0.6,3.6,1.3,3.6
				C128.7,60.9,129.3,59.2,129.3,57.2"/>
			<path style="fill:#58595B;" d="M127.9,58.6L127.9,58.6c-0.9-0.1-1.4-0.7-1.3-1.5c2.8-29.7,2-44.3-10.1-46.9
				C101.3,7.1,81.2,8.4,81,8.5c-0.7,0.1-1.4-0.4-1.5-1.2c-0.1-0.7,0.4-1.4,1.2-1.5c0.9-0.1,20.7-1.4,36.3,1.8
				c15.4,3.2,14.8,22.7,12.3,49.8C129.2,58.1,128.6,58.6,127.9,58.6z"/>
			<path style="fill:#414042;" d="M128.5,57.5h-0.1c-0.8-0.1-1.3-0.7-1.2-1.5c2.8-29.7,2-44.3-10.1-46.9C102,6,81.9,7.3,81.7,7.3
				c-0.7,0.1-1.4-0.4-1.5-1.2V6c-0.4,0.3-0.6,0.7-0.6,1.3c0,0.7,0.6,1.3,1.4,1.2c0.2,0,20.3-1.4,35.4,1.8
				c12.1,2.5,12.9,17.1,10.1,46.9c-0.1,0.7,0.5,1.4,1.2,1.5h0.1c0.7,0,1.3-0.5,1.4-1.2c0-0.1,0-0.1,0-0.2
				C129.1,57.4,128.8,57.5,128.5,57.5z"/>
			<path style="fill:#B3B3B3;" d="M117,7.6c-15.6-3.2-35.4-1.9-36.3-1.8c-0.5,0.1-0.8,0.3-1,0.7c0.1-0.1,0.3-0.1,0.5-0.2
				c0.9-0.1,20.7-1.4,36.3,1.8c15.4,3.2,14.8,22.7,12.3,49.8c0,0.2-0.1,0.3-0.1,0.5c0.4-0.2,0.7-0.6,0.7-1
				C131.8,30.2,132.4,10.8,117,7.6z"/>
			
				<rect x="47.8" y="3.6" transform="matrix(0.9866 -0.1634 0.1634 0.9866 -0.5813 10.6337)" style="display:none;fill:#917054;" width="33.1" height="10.5"/>
			<path style="display:none;fill:#754C29;" d="M79.8,1l-1.6,0.3c-5.1,5-13.5,9-23.4,10.7c-2.3,0.4-4.5,0.6-6.7,0.7l0.7,4.2
				l32.7-5.4c1.1-0.2,1.6-2.7,1.1-5.5C82.2,3,80.9,0.8,79.8,1z"/>
			
				<ellipse transform="matrix(0.9865 -0.1636 0.1636 0.9865 -1.251 8.0091)" style="display:none;fill:#AC947F;" cx="48" cy="11.6" rx="2" ry="5.3"/>
			
				<ellipse transform="matrix(0.9866 -0.1632 0.1632 0.9866 -1.2496 7.9891)" style="display:none;fill:#917054;" cx="48" cy="11.6" rx="0.9" ry="2.3"/>
			
				<ellipse transform="matrix(0.9866 -0.1634 0.1634 0.9866 -1.2503 7.9991)" style="display:none;fill:#754C29;" cx="48" cy="11.6" rx="0.6" ry="1.5"/>
			<path style="display:none;fill:#58391F;" d="M81.7,2.8L81.7,2.8c-0.3-0.6-0.6-1.1-0.9-1.4l0,0c-0.1-0.1-0.1-0.1-0.2-0.2h-0.1
				c-0.1,0-0.1-0.1-0.2-0.1h-0.1c-0.1,0-0.1,0-0.2,0h-0.1c-0.1,0-0.2,0-0.2,0l-1.6,0.3c-0.3,0.3-0.7,0.6-1,0.9
				c1.1,0.1,2.1,0.2,3,0.3c0.5,0.9,1,2.1,1.2,3.6c0.1,0.5,0.1,1,0.2,1.4c-3.7,2.1-10.7,4.2-18.9,5.6c-4.6,0.8-8.9,1.2-12.5,1.2
				c-0.1,1.4-0.6,2.4-1.3,2.5l32.7-5.4c0.1,0,0.2-0.1,0.3-0.1l0,0c0.1-0.1,0.2-0.2,0.3-0.3l0,0c0.1-0.1,0.2-0.2,0.2-0.4v-0.1
				c0.1-0.2,0.1-0.3,0.2-0.5l0,0c0.2-0.6,0.2-1.4,0.2-2.3l0,0c0-0.3,0-0.6-0.1-0.9c0-0.3-0.1-0.6-0.1-0.9
				C82.5,4.7,82.1,3.6,81.7,2.8z"/>
			<path style="display:none;fill:#95B1A3;" d="M128.6,75L128.6,75l0.1,0.1l0,0C128.7,75.1,128.7,75.1,128.6,75"/>
			<path style="display:none;fill:#40946B;" d="M128.8,75.1L128.8,75.1c0.1,0.1,0.1,0.1,0.2,0.2C128.9,75.2,128.9,75.2,128.8,75.1"
				/>
			<path style="display:none;fill:#8D8C8E;" d="M13.2,77.1c-0.6-4.4-2.3-7.8-3.8-7.6l-1.2,0.2c-1.5,0.2-2.3,3.9-1.7,8.3
				s2.3,7.8,3.8,7.6l1.2-0.2C13,85.2,13.8,81.5,13.2,77.1z"/>
			<path style="display:none;fill:#40946B;" d="M9.5,67.5l-1.2,0.2l0.1,0.8c-0.8,1.4-1,4.2-0.6,7.4c0.4,3.2,1.4,5.8,2.5,7l0.1,0.8
				l1.2-0.2c1.5-0.2,2.3-3.9,1.7-8.3C12.8,70.8,11.1,67.3,9.5,67.5z"/>
			
				<ellipse transform="matrix(0.9916 -0.1293 0.1293 0.9916 -9.7091 1.8509)" style="display:none;fill:#55C58F;" cx="9.4" cy="75.7" rx="2.8" ry="8.1"/>
			
				<ellipse transform="matrix(0.9916 -0.1294 0.1294 0.9916 -9.7165 1.8528)" style="display:none;fill:#2B6348;" cx="9.4" cy="75.7" rx="1.3" ry="3.6"/>
			<path style="display:none;fill:#58595B;" d="M8.9,26.9C19.3,15.8,46,13.2,48.3,13c0,0,0.2-0.4,0-1.3c-0.2-0.9-0.4-1.2-0.4-1.2
				C46.7,10.6,18.5,12.7,7,25.1c-8.3,8.8-8,24.7,1.1,51.5c0.2,0.6,0.7,0.9,1.3,0.9c0.1,0,0.3,0,0.4-0.1c0.7-0.2,1.1-1,0.9-1.7
				C2,50,1.4,34.9,8.9,26.9z"/>
			<path style="display:none;fill:#8D8C8E;" d="M46.8,12.4C44.6,12.5,18,14.8,7.6,26c-7.5,8.1-7,23.1,1.7,48.8
				c0.2,0.7-0.1,1.5-0.9,1.7c-0.1,0-0.2,0.1-0.4,0.1c0.2,0.6,0.7,0.9,1.3,0.9c0.1,0,0.3,0,0.4-0.1c0.7-0.2,1.1-1,0.9-1.7
				C2,50,1.4,34.9,8.9,26.9C19.3,15.8,46,13.2,48.3,13c0,0,0.1-0.3,0.1-0.9"/>
			<path style="display:none;fill:#313032;" d="M6.9,25.4C18.4,13,46.7,10.9,47.8,10.8c0,0,0.3,0.3,0.4,1.2c0,0.2,0.1,0.4,0.1,0.6
				c0-0.2,0-0.5-0.1-0.9c-0.2-0.9-0.4-1.2-0.4-1.2c-1.2,0.1-29.4,2.2-40.9,14.6C3,29.3,1,35.1,1,42.9C1.1,35.3,3.1,29.6,6.9,25.4z"
				/>
			<path style="display:none;fill:#313032;" d="M3.7,43.4c0,8.2,2.3,19,6.9,32.8l0.1,0.2c0-0.2,0-0.4-0.1-0.6
				C6.1,62.1,3.8,51.5,3.7,43.4z"/>
		</g>
	</g>
</g>
</svg>
