<?xml version="1.0" encoding="utf-8"?>
<!-- Generator: Adobe Illustrator 20.1.0, SVG Export Plug-In . SVG Version: 6.00 Build 0)  -->
<svg version="1.1" xmlns="http://www.w3.org/2000/svg" xmlns:xlink="http://www.w3.org/1999/xlink" x="0px" y="0px" width="160.1px"
	 height="170.3px" viewBox="0 0 160.1 170.3" style="enable-background:new 0 0 160.1 170.3;" xml:space="preserve">
<g id="Layer_1" style="display:none;">
	<g id="jarFill" style="display:inline;">
		<g>
			<path style="opacity:0.5;fill:#33BCFF;enable-background:new    ;" d="M21.7,2.7c0,0-2.8-0.5-4,0.6S16.3,6,17.4,7.7
				c0,0,0.7,1.1,2.1,1.1h1.7l-0.8,5.8c0,0-0.1,1.7-0.9,2.5c-0.9,0.8-1.7,1.7-4.9,3.3c-3.2,1.6-7.2,3.8-8.5,4.8s-5.2,4-5.9,9.1
				L0,157.8c0,0,0.5,4.1,5.7,5l2.7,0.1c0,0,1,6.5,3.6,7h136c0,0,2.5,0,3.6-7c0,0,7.4,0.7,8.4-5.3v-121c0,0,0.3-4.1-2.4-7.9
				s-8.4-6.4-8.4-6.4s-6.5-2.9-8.6-5.2c0,0-1,0.1-1.7-8.3h1.7c0,0,2.3,0.2,2.7-2.9c0,0,0.3-2.9-2.7-3.3l-2.3,0.1l-0.1-1.5L138,0H22
				L21.7,2.7z"/>
		</g>
	</g>
</g>
<g id="Layer_2">
	<path style="opacity:0.5;fill:#33BCFF;enable-background:new    ;" d="M21.9,9.5c0,0-0.1,4.7-0.9,5.5c-0.9,0.8-1.7,1.7-4.8,3.3
		c-3.1,1.6-7,3.8-8.3,4.8s-5.1,4-5.8,9.1L2,155c0,0,0.5,4.1,5.6,5l2.6,0.1c0,0,1,0.5,3.5,1h132.6l3.5-1c0,0,7.2,0.7,8.2-5.3V34.4
		c0,0,0.3-4.1-2.3-7.9s-8.2-6.4-8.2-6.4S136.9,18,138.1,9"/>
</g>
</svg>
