<?xml version="1.0" encoding="utf-8"?>
<!-- Generator: Adobe Illustrator 20.1.0, SVG Export Plug-In . SVG Version: 6.00 Build 0)  -->
<svg version="1.1" id="Layer_1" xmlns="http://www.w3.org/2000/svg" xmlns:xlink="http://www.w3.org/1999/xlink" x="0px" y="0px"
	 width="195.3px" height="170.4px" viewBox="0 0 195.3 170.4" style="enable-background:new 0 0 195.3 170.4;" xml:space="preserve"
	>
<filter  color-interpolation-filters="sRGB" filterUnits="userSpaceOnUse" id="luminosity-invert">
	<feColorMatrix  values="-1 0 0 0 1 0 -1 0 0 1 0 0 -1 0 1 0 0 0 1 0"></feColorMatrix>
</filter>
<title>pot</title>
<!--<g>
	<g id="Layer_1_1_">
		<path style="fill:#843A08;" d="M194.3,6.1c0,3.1-43.7,6.8-97.6,6.8S1,9.5,1,6.4s42.1-5.5,95.9-5.5S194.3,3,194.3,6.1z"/>
		<path style="fill:#35231A;" d="M178.4,10.8c0,2.9-35.3,6.4-78.8,6.4s-77.2-3.2-77.2-6S56.4,6,99.8,6S178.4,7.9,178.4,10.8z"/>
		<path style="fill:#AA5E2B;" d="M28.7,1.5C0,2.9,0,4.7,0,5.8l7.2,0.5c-2.5-4,34.4-5,90-5c57.3,0,94.6,2.9,94.6,5.5s3.4-1.3,3.4-1.3
			c0-1.2,0-2.9-29.4-4.2C147.9,0.5,123.4,0,96.9,0C70.9,0,46.7,0.5,28.7,1.5z"/>
		<path style="fill:#723912;" d="M7,5.5C6.8,5.8,6.8,6.2,7,6.5l0.4-0.2c-0.1-0.1-0.1-0.3,0-0.5c2.4-3.6,46.7-4.1,89.8-4.1
			c54.8,0,91.6,2.7,94.3,5.1l0.6,0.2l-0.2-0.5c-2.8-2.6-39-5.3-94.6-5.3C35.2,1.2,9,2.5,7,5.5z"/>
		<path style="fill:#6B2E05;" d="M164.8,151.6c-1.2,3.1-31.3,3.1-67.9,3.1s-66.3-1.5-66.3-3.4s29.7-3.4,66.3-3.4
			S166.1,148.5,164.8,151.6z"/>
		<path style="fill:#9B5221;" d="M5,10.3l34,149.5h117.3l34-149.5L5,10.3z"/>
		<polygon style="fill:#844318;" points="155.5,159.7 157.1,160 191.1,10.5 189.5,10.1 		"/>
		<polygon style="fill:#AA5E2B;" points="4.2,10.5 38.3,160 39.9,159.7 5.8,10.1 		"/>
		<path style="fill:#844318;" d="M10.4,35.4l1.4,4.7c34.9,4.8,131.9,7.7,171.1,2.1l2.1-6.6C146,41.2,45.1,40.1,10.4,35.4z"/>
		<path style="fill:#844318;" d="M158.8,151.1c-35.8,2-87.6,1.3-122.2-0.7c0.8,2.6,0.8,3.8,2.2,5.5c34.1,2.4,83.2,3.5,118.1,1.8
			C157.3,155.9,158.3,152.9,158.8,151.1z"/>
		<path style="fill:#9B5221;" d="M96.4,154.9c-38.9,1.9-64.9-2.6-65.8-3.9c0.4,1.3,5,18.3,5,18.3c21.2,0.3,102.9,0.3,124.1,0
			c0,0,4.5-15.9,5.3-18C162.2,154.7,129.4,153.3,96.4,154.9z"/>
		
			<linearGradient id="SVGID_1_" gradientUnits="userSpaceOnUse" x1="30.6" y1="11.7812" x2="164.92" y2="11.7812" gradientTransform="matrix(1 0 0 -1 0 172)">
			<stop  offset="0.43" style="stop-color:#FFFFFF"/>
			<stop  offset="0.83" style="stop-color:#D1D1D1"/>
		</linearGradient>
		<path style="fill:url(#SVGID_1_);" d="M96.4,154.9c-38.9,1.9-64.9-2.6-65.8-3.9c0.4,1.3,5,18.3,5,18.3c21.2,0.3,102.9,0.3,124.1,0
			c0,0,4.5-15.9,5.3-18C162.2,154.7,129.4,153.3,96.4,154.9z"/>
		<path style="fill:#843A08;" d="M35.3,167.6l0.6,2.2c21.5,0.3,101.9,0.7,123.4,0.4l1-2.6C138.8,167.9,56.7,167.9,35.3,167.6z"/>
		<path style="fill:#AA5E2B;" d="M30.5,151c0.3,1.5,1,4.5,65.9,4.5c45.4,0,67.3-0.6,68.9-4.3l-1.1-0.5c-1.6,3.5-43,3.5-67.8,3.5
			c-57,0-64.3-2.5-64.7-3.6L30.5,151z"/>
		<path style="fill:#9B5221;" d="M103.9,15.2C66,14.8,0.4,5.9,0.4,5.9l7.3,30.8c33.5,5.7,143.2,6.3,180,0L195,5.9
			C195,5.9,164.3,15.8,103.9,15.2z"/>
		
			<linearGradient id="SVGID_2_" gradientUnits="userSpaceOnUse" x1="42.5798" y1="161.8288" x2="139.0698" y2="143.5788" gradientTransform="matrix(1 0 0 -1 0 172)">
			<stop  offset="0.43" style="stop-color:#FFFFFF"/>
			<stop  offset="0.83" style="stop-color:#D1D1D1"/>
		</linearGradient>
		<path style="fill:url(#SVGID_2_);" d="M96.5,15.2C39.3,14.6,0.4,5.9,0.4,5.9l7.3,30.8c33.5,5.7,143.2,6.3,180,0L195,5.9
			C195,5.9,153.7,15.8,96.5,15.2z"/>
		<path style="fill:#843A08;" d="M7.6,37.1c32.8,5.6,142.3,6.5,180.1,0l-0.1-0.8c-37.8,6.5-147.1,5.6-179.9,0L7.6,37.1z"/>
		<path style="fill:#AA5E2B;" d="M0.3,5.1C2.6,10.5,36.4,15.3,97,15.3c80.3,0,94.8-5.1,97.7-8l0.3-2.7c-20,8.3-73,6.7-97.4,6.7
			c-84.9,0-93.9-5-92.5-7.8L0.3,5.1z"/>
		<path style="fill:#843A08;" d="M0.1,5.2c2.6,6.2,41.6,10.4,97,10.4c58.7,0,92.6-2.8,97.9-8l-0.4-0.3c-3.7,3.6-23.6,7.9-97.6,7.9
			C33.7,15.1,2.6,9.9,0.5,5L0.1,5.2z"/>
		<path style="fill:#683205;" d="M28.7,102.8c1.2,1.9,3.5,5.5,4.6,5.9c2,0.2,11.9-14.2,12.4-18.1c0-0.1,0-0.1,0-0.2
			c0.1-2.4-4.2-7.7-7-11.2l-3.2-4.2l-2.4-4.5c-2-4-4.5-9-7.4-10.5c-0.6,0.8-4.4,6-4.4,6c-0.9,1.2-1.8,2.4-2.7,3.6l1.6,7.1l0.1-0.1
			c1.1-1.7,2.2-3.4,3.2-5.1c0.1-0.2,0.3-0.3,0.5-0.3c0.2,0,0.4,0,0.6,0.2c4.6,4.1,8,8.9,11.4,13.6c1.7,2.3,3.4,4.5,5.1,6.7
			c0.1,0.2,0.2,0.4,0.1,0.6c0,0.2-0.2,0.3-0.3,0.4c-0.7,0.4-1.6,2-2.5,3.5c-1.4,2.3-2.7,4.6-4.3,4.9c-2.3,0.5-3.2-1.5-4-3.1
			c-0.3-0.8-0.8-1.6-1.3-2.3l-1.4-1.5c-1.7-1.7-3.8-3.8-4.2-6s1-4.2,2.3-6l0.6-1c0.1-0.2,0.4-0.3,0.6-0.3c0.2,0,0.5,0.1,0.6,0.3
			c1.8,3.1,4.1,5.9,6.8,8.2c0.3,0.2,0.3,0.7,0.1,1c0,0,0,0,0,0c-0.3,0.3-0.7,0.3-1,0.1c-2.5-2.2-4.7-4.8-6.5-7.7L26.8,83
			c-1,1.5-2,3-2.1,4.4c0,0.2,0,0.4,0,0.7c0.3,1.7,2.3,3.6,3.8,5.2l1.5,1.5c0.6,0.8,1.1,1.7,1.5,2.6c0.9,1.8,1.3,2.6,2.3,2.3
			s2.3-2.6,3.4-4.3c0.7-1.3,1.5-2.4,2.4-3.5c-0.7-0.9-4.8-6.3-4.8-6.3c-3.3-4.6-6.5-8.9-10.6-12.7l-2.8,4.4c0,0-0.3,0.5-0.8,1.4
			l4.3,19c0.7,0.9,1.4,1.8,2.1,2.7L28.7,102.8z"/>
		<path style="fill:#683205;" d="M162.1,48.3c-4.6,10.2-12.5,24.7-13.2,29.3c-6.7-8.3-12.3-18.6-18.6-27.9c-3.3,0.1-6.7,0.2-10,0.3
			c-5.6,9.4-12.8,18-19.1,26.8l-0.6-0.9c-3.3-4.8-12.4-17-18.1-25.8c-3.4,0-6.8-0.1-10.2-0.2c-6.5,9.8-13.3,18.7-19.9,29.2
			C45,68.5,40.2,58,32.7,48.4l-7.2-0.4c-3,3.8-6.1,8.2-9.1,12.5l1.7,7.6c0.7-0.9,1.3-1.8,2-2.6c1.6-2.1,3.1-4.3,4.7-6.4
			c0.2-0.3,0.5-0.4,0.8-0.3c3.7,1.3,6.3,6.7,8.7,11.4l2.3,4.3c1,1.3,2,2.7,3.1,4.1c3.6,4.5,7.7,9.5,7.3,12.4
			c-0.4,3.3-8.8,16.8-12.7,18.9c-0.5,0.3-1.1,0.4-1.7,0.3c-1.4-0.5-3.1-3.1-5.3-6.5l-1.5-2.3l-0.3-0.3l3.3,14.3
			c2.2,0.1,4.4,0.3,6.6,0.4l2.6-2.9c6.2-6.8,12.8-13.9,15.5-20.7c1.3,3.7,7.2,15.6,13,24.8c6,0.2,12,0.3,18,0.3
			c7.2-10.2,15.6-23.9,18.2-28.3c1.7,3.8,8.4,17.6,14.3,28.2c4.7-0.1,9.3-0.2,14-0.3c5.6-9.8,13-20.8,17.1-30
			c2.3,6.7,8.9,18.4,16.1,28.6l2-0.1l2.7-11.8c-3.5-3.7-6.5-7.8-9.1-12.2c-1.7-3-1.1-4,0.6-6.2c0.4-0.5,0.7-1,1.1-1.5l2.8-4.3
			c1.4-2.3,2.9-4.6,4.5-6.8c0.1-0.2,0.4-0.3,0.6-0.3c0.2,0,0.5,0.2,0.6,0.4c1.2,2.4,2.7,4.8,4.3,7l1.3-5.9c-0.4-0.7-0.7-1.4-1.1-2.1
			c-2.2-4.3-4.7-8.5-7.6-12.4c-2,5.1-4.4,10-7.2,14.6c-1.2,2.2-2.5,4.4-3.8,6.6c-0.2,0.3-0.6,0.5-1,0.3c-0.3-0.2-0.5-0.6-0.3-0.9
			c0,0,0,0,0,0c1.3-2.2,2.5-4.4,3.8-6.6c2.9-5,5.9-10.2,7.7-15.5c0.1-0.2,0.3-0.4,0.5-0.5c0.3,0,0.5,0,0.7,0.2
			c3.3,3.9,6.1,9.1,8.5,13.6l0.3,0.6l3.4-15.2c-2.6-3.1-5.2-6-7.4-8.7C169,47.9,165.6,48.1,162.1,48.3z M90.4,94.4
			c-0.4,0.7-0.9,1.4-1.3,2.2l-2.4,4.5c-1.8,3.8-3.9,7.4-6.4,10.7c-0.3,0.3-0.7,0.4-1.1,0.1c0,0-0.1-0.1-0.1-0.1
			c-2.2-3.1-4.1-6.4-6-9.6s-4-6.9-6.2-10.1c-2.4-3.6-2-4.4,0.2-7.6c0.2-0.3,0.5-0.7,0.7-1c1.2-1.7,2.3-3.5,3.5-5.3l4.1-6.3
			c0.1-0.2,0.3-0.3,0.5-0.3c0.2,0,0.4,0,0.6,0.2c3.9,3.3,7.2,9.1,9.9,13.8l0.5,0.9c0.1,0.2,0.1,0.5,0,0.7c-1.3,1.9-2.5,3.8-3.4,5.8
			c-1.2,2.6-2.7,5-4.6,7.1c-0.2,0.2-0.4,0.2-0.6,0.2c-0.2,0-0.4-0.1-0.6-0.3c-0.4-0.6-0.8-1.2-1.3-1.9c-1.9-2.7-3.9-5.8-4.7-8.6
			c-0.8-3.1,0.9-4.8,2.7-6.6l1.7-1.9c0.2-0.2,0.4-0.3,0.7-0.2c0.2,0,0.4,0.2,0.6,0.4c1,1.8,2.2,3.5,3.6,5c0.3,0.3,0.3,0.7,0,1
			c0,0,0,0,0,0c-0.3,0.3-0.7,0.3-1,0c-1.3-1.4-2.4-2.9-3.3-4.5l-1.2,1c-1.4,1.4-2.4,2.4-2.5,4c0,0.4,0.1,0.9,0.2,1.3
			c0.7,2.6,2.7,5.6,4.5,8.2c0,0,0.3,0.5,0.7,1c1.5-1.9,2.7-3.9,3.8-6c1-1.9,2.1-3.8,3.3-5.6L85,86.2c-2.5-4.4-5.5-9.7-9-12.9
			c-0.7,1.1-3.6,5.5-3.6,5.5c-1.2,1.8-2.3,3.5-3.5,5.3l-0.7,1.1c-1,1.5-1.6,2.3-1.6,3.1s0.4,1.6,1.4,3c2.3,3.3,4.3,6.8,6.3,10.2
			c1.7,2.9,3.5,5.9,5.4,8.7c2.2-3,4.1-6.3,5.7-9.6c0.8-1.5,1.6-3.1,2.4-4.5c0.4-0.7,0.9-1.5,1.3-2.2c1.4-2.3,3.3-5.4,3.3-7.6
			c0-0.3,0-0.6-0.1-0.8c-0.6-1.8-2.4-4.3-4.1-6.5c-0.7-0.9-1.3-1.8-2-2.7c-1.2-2.2-2.4-4.2-3.7-6.2c-2.4-4.4-5.1-8.6-8.3-12.6
			c-2.4,2.9-4.6,6-6.5,9.3c-0.6,0.9-1.2,1.9-1.7,2.8l-1.8,2.7c-2.1,3.2-4.6,6.7-5.4,9.8c-0.1,0.4-0.5,0.6-0.9,0.5c0,0,0,0,0,0
			c-0.4-0.1-0.6-0.5-0.5-0.8c0,0,0,0,0,0c0.9-3.3,3.4-7,5.6-10.3c0.6-0.9,1.2-1.7,1.7-2.6l1.7-2.8c2.2-3.6,4.4-7.3,7.2-10.1
			c0.1-0.1,0.3-0.2,0.5-0.2c0.2,0,0.4,0.1,0.5,0.2c3.4,3.8,6.2,8.7,8.9,13.4c1.2,2,2.5,4.1,3.7,6.1l1.9,2.7c1.7,2.3,3.6,4.8,4.3,6.9
			C94.6,87.6,92.3,91.4,90.4,94.4z M141.8,81.7c-2.2,3.5-4.2,7.3-6.1,11c-3.1,5.9-6.3,11.9-10.6,16.9c-0.2,0.2-0.4,0.3-0.7,0.2
			c-0.2,0-0.5-0.2-0.6-0.4c-2.9-7.6-10.1-17.1-15.7-23.5c-0.2-0.2-0.2-0.6,0-0.8c2-2.5,4.3-4.9,6.6-7c3.7-3.6,7.5-7.4,9-11
			c0.1-0.2,0.3-0.4,0.6-0.4c0.3,0,0.5,0.1,0.7,0.3c1.6,2.3,3,4.8,4.4,7.3c1.8,3.4,4,6.7,6.4,9.8c0.1,0.2,0.2,0.4,0.1,0.6
			c-0.1,0.2-0.2,0.4-0.4,0.5c-3.6,1.5-6,5-8.3,8.3c-1.1,1.7-2.4,3.4-3.8,4.9c-0.3,0.3-0.8,0.3-1.1,0c0,0,0-0.1-0.1-0.1l-2.4-3.3
			c-2-2.7-4.3-5.7-4.8-8c-0.6-3,4.2-6.8,7.6-9.6c0.5-0.4,1-0.8,1.5-1.2c0.2-0.1,0.4-0.2,0.6-0.2c0.2,0,0.4,0.2,0.5,0.4l1,2.2
			c0.4,1.3,1.1,2.5,2.2,3.4c0.2,0.2,0.3,0.4,0.3,0.7c0,0.2-0.2,0.5-0.4,0.5c-2,1-3.9,2.2-5.5,3.8l-0.7,0.6c-0.3,0.2-0.7,0.2-1-0.1
			c-0.1-0.1-0.2-0.3-0.2-0.4c0-0.2,0.1-0.4,0.3-0.6l0.7-0.6c1.5-1.4,3.2-2.5,5.1-3.5c-0.8-1-1.5-2.1-1.9-3.3c0,0-0.3-0.7-0.6-1.3
			l-0.8,0.7c-2.7,2.2-7.2,5.7-7.2,8c0,0.1,0,0.2,0,0.3c0.4,2,2.6,4.9,4.5,7.5l1.9,2.6c1.1-1.3,2.1-2.6,3-4c2.3-3.3,4.7-6.7,8.2-8.4
			c-2.3-3-4.3-6.1-6.1-9.4c-1.2-2.1-2.4-4.2-3.7-6.2c-1.8,3.5-5.3,7-8.7,10.3c-2.2,2-4.3,4.2-6.2,6.5c5.4,6.2,12,14.9,15.1,22.3
			c3.8-4.7,6.9-10.2,9.7-15.7c1.9-3.6,3.9-7.4,6-10.8c-1.6-2.3-3.1-4.8-4.5-7.2c-1.3-2.2-2.6-4.3-4-6.5l-2.3-3.3
			c-1.9-2.7-3.5-5.5-4.9-8.4c-4.8,6.7-11.1,15.4-14.9,24.1c-0.2,0.3-0.6,0.5-0.9,0.4c-0.4-0.1-0.5-0.5-0.4-0.9c0,0,0,0,0,0
			c4-9.2,10.9-18.5,15.8-25.4c0.1-0.2,0.4-0.3,0.7-0.3c0.3,0,0.5,0.2,0.6,0.5c1,2.8,3.4,6.2,5.4,9.1c0.8,1.1,1.5,2.2,2.3,3.4
			c1.3,2.2,2.7,4.4,4,6.6c1.5,2.5,3,5.1,4.7,7.5C141.9,81.2,141.9,81.5,141.8,81.7z"/>
		<path style="fill:#683205;" d="M165.8,79.8c-1,1.4-1.9,2.9-2.9,4.4l-1.1,1.6c-0.9,1.2-1.3,1.8-1.3,2.6c0.1,0.8,0.4,1.5,0.8,2.2
			c2.3,4,5.1,7.8,8.2,11.2l1.3-5.5c-1.8-2.8-4.1-5.3-6.8-7.4c-0.3-0.2-0.4-0.6-0.1-0.9c0,0,0,0,0.1-0.1c1.8-2,3.5-4.2,5.1-6.4
			c0.1-0.2,0.4-0.3,0.6-0.3c0.3,0,0.5,0.2,0.6,0.4c0.8,1.6,1.8,3.1,2.9,4.5l1.1-4.7c-1.7-2.3-3.2-4.7-4.6-7.2
			C168.3,75.9,167,77.9,165.8,79.8z"/>
		<path style="fill:#683205;" d="M171.3,88.9c-0.4,0.2-0.8,0.1-1-0.3c0-0.1-0.1-0.2-0.1-0.3c0-0.3,0.1-0.5,0.4-0.7
			c0.4-0.3,0.8-0.7,1.1-1.1c-0.8-1.1-1.6-2.3-2.3-3.5c-1.3,1.8-2.7,3.5-4.1,5.2c2.2,1.8,4.1,3.9,5.8,6.2l1.6-6.8
			C172.3,88.1,171.8,88.5,171.3,88.9z"/>
		<path style="fill:#EF7114;" d="M131.2,116.7c11.1-0.3,22.2-0.8,33.2-1.4c-7.3-10.2-13.9-21.9-16.1-28.6
			C144.2,96,136.9,107,131.2,116.7z M139,110.1c-0.6-0.9-0.8-2-0.6-3c0.2-0.8,0.5-1.5,0.9-2.3c1.3-2.5,2.3-4.1,2.3-4.2
			c0.9-1.3,2-2.5,3.3-3.3c0.5-0.5,1.3-0.6,2-0.4c0,0,0.1,0,0.1,0c0.3,0.1,0.4,0.5,0.5,1c0.2,1.1,0.3,2.2,0.1,3.3
			c-0.1,1.3-0.3,2.9-0.6,4.6c-0.5,1.6-0.2,3.6-2,5.2c-1.9,1.4-4.5,1.1-6-0.8C139,110.3,139,110.2,139,110.1L139,110.1z M149.6,101.6
			L149.6,101.6L149.6,101.6c0.1-0.1,0.1-0.1,0.1-0.1c0.2,0,0.4,0,0.6,0.1c0.9,0.3,1.7,0.7,2.5,1.3c0.9,0.6,1.8,1.3,2.8,2.1
			s2.5,1.2,3.1,2.9c0.4,1.7-0.6,3.5-2.3,3.9c-0.1,0-0.1,0-0.2,0c-0.9,0.1-1.8-0.1-2.5-0.6c-0.5-0.4-1-0.9-1.5-1.4
			c-0.9-1-1.6-2-2.3-3.2c-0.6-1.1-1-2.3-1-3.6C148.9,102.4,149.1,101.9,149.6,101.6L149.6,101.6z M149.2,108.3L149.2,108.3
			C149.2,108.3,149.2,108.3,149.2,108.3c0.1,0.1,0.2,0.1,0.2,0.1c0.1,0.1,0.1,0.1,0.1,0.2c0.3,0.4,0.5,0.9,0.6,1.4
			c0.2,0.6,0.3,1.3,0.4,1.9c0,0.7,0.4,1.6-0.1,2.5c-0.6,0.8-1.8,1-2.6,0.4c0,0-0.1-0.1-0.1-0.1c-0.4-0.3-0.6-0.7-0.7-1.2
			c0-0.3,0-0.7,0.1-1c0.2-1.1,0.4-2,0.4-2c0.2-0.7,0.5-1.3,0.9-1.8C148.7,108.2,149.1,108.2,149.2,108.3L149.2,108.3z"/>
		<path style="fill:#EF7114;" d="M179.9,56.3l2.1-9.4c-3.2,0.2-6.4,0.5-9.5,0.7C174.7,50.3,177.2,53.3,179.9,56.3z"/>
		<path style="fill:#EF7114;" d="M162.1,48.3c-10.6,0.6-21.2,1.1-31.8,1.4c6.3,9.3,11.8,19.5,18.6,27.9
			C149.6,73,157.5,58.5,162.1,48.3z M146.8,66.7c-0.2,0.8-0.8,1.2-1,1.2c0,0,0,0-0.1,0s-0.1,0-0.1,0h-0.1l-0.2-0.1
			c-0.9-0.5-1.7-1.3-2.2-2.1c-0.6-0.8-1.3-1.8-2.1-2.8s-1.9-2.1-1.8-4c0.2-1.7,1.7-2.9,3.4-2.7c0.1,0,0.3,0,0.4,0.1
			c0.8,0.2,1.5,0.7,2,1.4c0.3,0.5,0.6,1.1,0.8,1.7c0.4,1.2,0.8,2.4,1.1,3.6C147.2,64.3,147.1,65.5,146.8,66.7z M147.9,58.3
			L147.9,58.3C147.9,58.3,147.8,58.3,147.9,58.3c-0.1-0.1-0.2-0.2-0.2-0.2l-0.1-0.1c-0.3-0.4-0.5-0.9-0.6-1.5
			c-0.2-0.6-0.4-1.3-0.6-2s-0.6-1.5-0.2-2.6c0.4-0.9,1.5-1.3,2.4-0.9c0.1,0,0.1,0.1,0.2,0.1c0.4,0.3,0.7,0.7,0.9,1.2
			c0.1,0.4,0.1,0.8,0.1,1.2c0,0.8,0,1.5-0.1,2.3c-0.1,0.8-0.4,1.5-0.9,2.1C148.4,58.4,147.9,58.4,147.9,58.3z M149,62.3
			c0.2-1,0.6-2.2,0.9-3.3s0.5-2.6,1.9-3.6c1.4-0.9,3.3-0.5,4.1,1c0,0.1,0.1,0.1,0.1,0.2c0.4,0.7,0.4,1.6,0.2,2.3
			c-0.2,0.6-0.5,1.1-0.9,1.6c-0.6,1-1.3,2-2.1,2.9c-0.7,0.9-1.6,1.6-2.6,2.1c-0.4,0.3-1,0.4-1.4,0.2c0,0,0,0-0.1,0s0,0-0.1,0l0,0
			c-0.2-0.2-0.4-0.6-0.3-0.9C148.7,63.9,148.8,63.1,149,62.3L149,62.3z"/>
		<path style="fill:#EF7114;" d="M101.2,76.8c6.3-8.8,13.5-17.4,19.1-26.8c-12.6,0.3-25.1,0.3-37.7,0.2c5.7,8.8,14.8,21,18.1,25.8
			L101.2,76.8z M108.6,56.5c1.5-0.5,3.1,0.3,3.6,1.8c0,0.1,0.1,0.3,0.1,0.4c0.2,0.7,0,1.5-0.4,2.2c-0.3,0.5-0.7,0.9-1.2,1.3
			c-1.4,1.4-2.5,2.2-2.5,2.3c-0.9,0.7-1.9,1.2-3,1.5c-0.5,0.2-1,0.1-1.4-0.2h-0.1c-0.2-0.1-0.2-0.4-0.1-0.8c0.1-0.8,0.3-1.6,0.7-2.3
			c0.5-1,1-2,1.5-3C106.6,58.7,106.9,57.3,108.6,56.5L108.6,56.5z M100.2,53.8c0.7-1.6,2.4-1.3,3.4-0.5c0.5,0.3,0.8,0.8,0.9,1.3
			c0.1,0.5,0.1,0.9,0.1,1.4c0,1.5-0.1,2.6-0.1,2.7c-0.1,0.9-0.4,1.8-0.8,2.6c-0.3,0.6-0.8,0.7-0.9,0.7l0,0c-0.2,0-0.3-0.2-0.5-0.4
			c-0.4-0.5-0.7-1.1-0.9-1.7c-0.3-0.7-0.6-1.6-0.9-2.6S99.6,55.3,100.2,53.8L100.2,53.8z M100.4,67.5L100.4,67.5
			c-0.3,0-0.4,0-0.6-0.1c-0.7-0.3-1.4-0.8-2-1.4c-0.8-0.7-1.6-1.3-2.3-2.1c-0.7-0.9-2.1-1.5-2.2-3.5c0-1.4,1.1-2.6,2.6-2.6
			c0.2,0,0.4,0,0.6,0.1c0.7,0.1,1.3,0.4,1.8,0.9c0.3,0.4,0.6,0.9,0.8,1.3c0.9,1.5,1.5,2.8,1.5,2.9c0.5,1,0.7,2.1,0.6,3.3
			C101.1,67,100.7,67.4,100.4,67.5C100.5,67.4,100.4,67.5,100.4,67.5z"/>
		<path style="fill:#EF7114;" d="M72.4,49.9c-13.2-0.3-26.4-0.8-39.7-1.6C40.2,58,45,68.5,52.5,79.1C59.1,68.7,65.9,59.7,72.4,49.9z
			 M59.4,53.6c1.9-0.3,3.8,0.9,4.1,2.8c0,0.2,0,0.3,0.1,0.5c0.1,1-0.2,1.9-0.9,2.6c-0.5,0.5-1,1-1.5,1.4c-1.9,1.4-2.9,2.3-3,2.4
			c-1,0.8-2.1,1.4-3.3,1.9c-0.9,0.4-1.8,0.2-1.8,0.1H53c-0.4-0.2-0.5-0.8-0.3-1.6c0.1-0.9,0.3-1.7,0.6-2.5c0.6-1.4,1.4-2.7,2.2-4
			C56.5,56,57.2,54.1,59.4,53.6z M51.7,53.1c0.4-0.7,1.3-0.9,2-0.4c0.3,0.2,0.5,0.6,0.5,1c0,0.3,0,0.6,0,0.9
			c-0.1,0.6-0.2,1.1-0.3,1.6c-0.1,0.5-0.4,1-0.7,1.4c-0.2,0.3-0.6,0.4-0.6,0.3l0,0c0,0,0,0-0.1,0c0,0-0.1,0-0.1-0.1
			c0,0-0.1-0.1-0.1-0.1C52.1,57.4,52,57,52,56.6c-0.1-0.5-0.2-1-0.3-1.6S51.3,53.8,51.7,53.1z M47.4,55c0.9,0.1,1.7,0.5,2.2,1.2
			c0.4,0.6,0.8,1.2,1,1.8c0.5,1.2,0.9,2.5,1.1,3.7c0.2,1.2,0.1,2.5-0.3,3.6c-0.2,0.8-0.8,1.1-1,1.1c0,0,0,0-0.1,0
			c-0.1,0-0.2,0-0.2-0.1c-0.1,0-0.1,0-0.1-0.1c-0.1,0-0.1-0.1-0.2-0.1c-0.7-0.5-1.3-1.2-1.8-2c-0.6-0.8-1.2-1.7-1.9-2.7
			s-1.7-1.7-1.8-3.3C44.3,56.5,45.7,55,47.4,55z"/>
		<path style="fill:#EF7114;" d="M13.4,47l3,13.3c3-4.3,6.1-8.6,9.1-12.5C21.5,47.7,17.4,47.4,13.4,47z"/>
		<path style="fill:#EF7114;" d="M38.1,112.8l-2.6,2.9c10.4,0.5,20.8,0.9,31.1,1.2c-5.7-9.2-11.6-21.1-13-24.8
			C50.9,98.8,44.3,106,38.1,112.8z M49.1,113.2c-2.3,1.3-4.5-0.5-5-2.5c-0.3-0.8-0.3-1.7,0-2.5c0.4-0.7,0.7-1.2,1-1.7
			c1.3-1.8,2.3-3.5,2.4-3.5c0.9-1.2,2.1-2.2,3.5-2.9c0.6-0.4,1.3-0.4,1.8,0h0.1c0,0,0,0.1,0.1,0.1l0,0c0.1,0.2,0.2,0.4,0.2,0.7
			c0.1,1.1,0,2.1-0.2,3.1c-0.2,1.4-0.5,2.8-0.8,4.2C51.5,109.7,51.7,111.8,49.1,113.2L49.1,113.2z M54.1,106.1
			c0.1-0.7,0.5-0.9,0.7-0.9s0,0,0,0h0.1c0.1,0,0.2,0,0.3,0.1l0,0c0.6,0.3,1.2,0.7,1.6,1.2c0.6,0.5,1.2,1,2,1.7s1.7,1.2,2,2.7
			c0.1,1.2-0.9,2.2-2.1,2.3c-0.2,0-0.3,0-0.5,0c-0.6,0-1.2-0.3-1.6-0.7c-0.3-0.3-0.6-0.7-0.8-1.1c-0.5-0.8-0.9-1.6-1.3-2.4
			C54.1,107.9,54,106.9,54.1,106.1L54.1,106.1z M53.7,109.7c0,0,0.1,0.1,0.1,0.1c0.2,0.3,0.3,0.7,0.4,1.1c0.1,0.4,0.2,1,0.3,1.5
			s0.4,1,0,1.7c-0.4,0.7-1.3,0.9-2,0.5c-0.3-0.2-0.5-0.5-0.6-0.9c0-0.3,0-0.6,0-0.9c0-0.5,0.1-1.1,0.3-1.6c0.1-0.5,0.4-1,0.7-1.3
			c0.2-0.3,0.6-0.4,0.6-0.3l0,0c0,0,0,0,0,0S53.7,109.7,53.7,109.7z"/>
		<path style="fill:#EF7114;" d="M84.6,117.2c10.8,0.1,21.7,0.1,32.6-0.1c-5.9-10.6-12.6-24.5-14.3-28.2
			C100.3,93.3,91.9,107,84.6,117.2z M98.4,111.2c-1.6,0.8-3.7,0.2-4.5-1.5c0-0.1-0.1-0.2-0.1-0.3c-0.3-0.8-0.3-1.7,0.1-2.4
			c0.3-0.6,0.7-1.1,1.1-1.7c1.4-1.7,2.4-2.9,2.5-2.9c0.9-0.9,2-1.7,3.2-2.2c0.5-0.3,1.1-0.3,1.6,0h0.1c0.2,0.1,0.3,0.4,0.2,0.8
			c0,0.9-0.1,1.8-0.4,2.7c-0.3,1-0.7,2.2-1.2,3.5S100.2,110.1,98.4,111.2L98.4,111.2z M105.1,104.5c0.1-0.6,0.6-0.9,0.7-0.9s0,0,0,0
			s0.4,0,0.6,0.2c0.5,0.4,1,0.8,1.4,1.3c0.5,0.6,1,1.3,1.6,2.2s1.3,1.6,1.3,2.9c-0.2,1.3-1.5,2.1-2.8,1.9c-0.1,0-0.1,0-0.2,0
			c-0.6-0.2-1.1-0.5-1.5-1.1c-0.2-0.4-0.4-0.8-0.5-1.3c-0.3-0.9-0.5-1.7-0.7-2.6C104.8,106.2,104.9,105.3,105.1,104.5L105.1,104.5z
			 M103.5,107.2L103.5,107.2C103.5,107.2,103.6,107.3,103.5,107.2c0.1,0.1,0.2,0.1,0.2,0.3c0,0,0.1,0.1,0.1,0.1
			c0.3,0.5,0.5,1.1,0.6,1.7c0.2,0.7,0.3,1.5,0.4,2.3c0.3,0.8,0.3,1.8,0.1,2.6c-0.6,1.1-2,1.5-3.1,1c-0.5-0.3-0.9-0.9-1-1.5
			c-0.1-0.5-0.1-0.9,0-1.4c0.1-0.9,0.2-1.7,0.5-2.6c0.2-0.8,0.7-1.6,1.3-2.2C102.7,107.3,103.1,107.1,103.5,107.2L103.5,107.2z"/>
		<path style="fill:#FFFC9F;" d="M27.4,103.5c2.1,3.4,3.9,6,5.3,6.5c0.6,0.2,1.2,0.1,1.7-0.3c3.9-2.1,12.2-15.6,12.7-18.9
			c0.4-2.9-3.7-7.9-7.3-12.4c-1-1.3-2.1-2.7-3.1-4.1l-2.3-4.3c-2.3-4.7-5-10.1-8.7-11.4c-0.3-0.1-0.6,0-0.8,0.3
			c-1.6,2.1-3.1,4.3-4.7,6.4c-0.7,0.9-1.3,1.7-2,2.6l0.4,1.8c0.9-1.2,1.8-2.4,2.7-3.6c0,0,3.8-5.1,4.4-6c3,1.5,5.4,6.4,7.4,10.5
			l2.4,4.5l3.2,4.2c2.8,3.5,7.1,8.8,7,11.2c0,0.1,0,0.1,0,0.2c-0.5,3.9-10.4,18.2-12.4,18c-1-0.4-3.3-4-4.6-5.9l-1.6-2.4
			c-0.7-0.9-1.4-1.8-2.1-2.7l0.7,3.2l0.3,0.3L27.4,103.5z"/>
		<path style="fill:#FFFC9F;" d="M24.2,73c4.2,3.8,7.3,8.2,10.6,12.7c0,0,4.1,5.4,4.8,6.3c-0.9,1.1-1.7,2.2-2.4,3.5
			c-1,1.7-2.4,4-3.4,4.3s-1.5-0.5-2.3-2.3c-0.4-0.9-0.9-1.8-1.5-2.6l-1.5-1.5C27,91.7,25,89.8,24.8,88c0-0.2,0-0.4,0-0.7
			c0.1-1.4,1.1-2.9,2.1-4.4l0.1-0.1c1.7,2.9,3.9,5.5,6.4,7.7c0.3,0.2,0.7,0.2,1-0.1c0.3-0.3,0.2-0.7,0-1c0,0,0,0,0,0
			c-2.7-2.3-5-5.1-6.8-8.2c-0.1-0.2-0.4-0.3-0.6-0.3c-0.2,0-0.5,0.1-0.6,0.3l-0.6,1c-1.2,1.8-2.6,3.9-2.3,6s2.5,4.3,4.2,6l1.4,1.5
			c0.5,0.7,1,1.5,1.3,2.4c0.8,1.6,1.7,3.7,4,3.1c1.5-0.4,2.8-2.6,4.3-4.9c0.9-1.4,1.8-3.1,2.5-3.5c0.2-0.1,0.3-0.3,0.3-0.4
			c0-0.2,0-0.4-0.1-0.6c-1.8-2.3-3.4-4.5-5.2-6.7c-3.4-4.7-6.9-9.5-11.5-13.6c-0.2-0.1-0.4-0.2-0.6-0.2c-0.2,0-0.4,0.1-0.5,0.3
			c-1.1,1.7-2.1,3.4-3.2,5.1l-0.1,0.1l0.4,1.9c0.5-0.8,0.8-1.3,0.8-1.4L24.2,73z"/>
		<path style="fill:#FFFC9F;" d="M89.5,78l-1.9-2.7c-1.2-2-2.5-4.1-3.7-6.1c-2.8-4.7-5.6-9.6-8.9-13.4c-0.1-0.1-0.3-0.2-0.5-0.2
			c-0.2,0-0.4,0.1-0.5,0.2c-2.8,2.8-5,6.5-7.2,10.1L65,68.7c-0.6,0.9-1.2,1.8-1.7,2.6c-2.2,3.3-4.7,6.9-5.6,10.3
			c-0.1,0.4,0.1,0.7,0.5,0.8c0,0,0,0,0,0c0.4,0.1,0.8-0.1,0.9-0.5c0,0,0,0,0,0c0.8-3.1,3.3-6.7,5.4-9.8l1.8-2.7
			c0.6-0.9,1.2-1.8,1.7-2.8c1.9-3.3,4-6.4,6.5-9.3c3.1,3.9,5.9,8.1,8.3,12.6c1.2,2.1,2.5,4.1,3.7,6.2c0.7,0.9,1.3,1.8,2,2.7
			c1.6,2.2,3.5,4.7,4,6.5c0.1,0.3,0.1,0.5,0.1,0.8c0,2.1-1.9,5.2-3.3,7.6c-0.5,0.7-0.9,1.5-1.3,2.2c-0.8,1.5-1.6,3-2.4,4.6
			c-1.7,3.3-3.6,6.6-5.7,9.6c-1.9-2.8-3.7-5.8-5.4-8.7c-2-3.4-4-6.9-6.3-10.2c-1-1.4-1.4-2.2-1.4-3s0.6-1.6,1.6-3.1l0.7-1.1
			c1.2-1.8,2.3-3.5,3.5-5.3c0,0,2.9-4.4,3.6-5.5c3.5,3.2,6.5,8.5,9,12.9l0.3,0.6c-1.2,1.8-2.4,3.7-3.4,5.6c-1.1,2.1-2.3,4.2-3.8,6.1
			c-0.3-0.5-0.7-1-0.7-1c-1.8-2.6-3.8-5.6-4.5-8.2c-0.1-0.4-0.2-0.9-0.2-1.3c0-1.6,1.1-2.6,2.5-4l1.1-1.1c1,1.6,2.1,3.1,3.3,4.5
			c0.3,0.3,0.7,0.3,1,0c0.3-0.3,0.3-0.7,0-1c0,0,0,0,0,0c-1.4-1.5-2.6-3.2-3.6-5C77,81.2,76.8,81,76.5,81c-0.2,0-0.5,0-0.7,0.2
			L74.2,83c-1.8,1.8-3.5,3.4-2.7,6.6c0.8,2.8,2.8,5.9,4.7,8.6c0.4,0.6,0.8,1.3,1.3,1.9c0.1,0.2,0.3,0.3,0.6,0.3
			c0.2,0,0.4-0.1,0.6-0.2c1.8-2.2,3.3-4.6,4.6-7.1c1-2,2.2-4,3.4-5.8c0.1-0.2,0.1-0.5,0-0.7l-0.5-0.9c-2.7-4.7-6-10.6-9.9-13.8
			c-0.1-0.1-0.4-0.2-0.6-0.2c-0.2,0-0.4,0.1-0.5,0.3L71.1,78c-1.2,1.8-2.3,3.5-3.5,5.3c-0.2,0.4-0.5,0.7-0.7,1
			c-2.2,3.2-2.6,4-0.2,7.6C69,95.1,71,98.6,73,102s3.8,6.6,6,9.6c0.3,0.3,0.7,0.4,1.1,0.1c0,0,0.1-0.1,0.1-0.1
			c2.5-3.3,4.6-6.9,6.4-10.7l2.4-4.5c0.4-0.7,0.9-1.5,1.3-2.2c1.9-3,4.2-6.9,3.4-9.5C93.1,82.9,91.2,80.3,89.5,78z"/>
		<path style="fill:#FFFC9F;" d="M137.1,73.5c-1.3-2.2-2.7-4.4-4-6.6c-0.8-1.1-1.5-2.2-2.3-3.3c-2.1-3-4.4-6.3-5.4-9.1
			c-0.1-0.2-0.3-0.4-0.6-0.5c-0.3,0-0.5,0.1-0.7,0.3c-4.9,6.8-11.8,16.1-15.8,25.4c-0.1,0.3,0,0.7,0.4,0.9c0,0,0,0,0,0
			c0.4,0.1,0.8,0,0.9-0.4c3.8-8.7,10.1-17.4,14.9-24.1c1.4,2.9,3.1,5.7,5.1,8.3l2.3,3.3c1.3,2.2,2.6,4.3,4,6.5
			c1.4,2.4,2.9,4.9,4.5,7.2c-2.1,3.4-4.1,7.2-6,10.8c-2.9,5.4-5.9,11-9.7,15.7c-3.1-7.4-9.7-16.2-15.1-22.3c1.9-2.3,3.9-4.5,6.1-6.5
			c3.4-3.4,6.9-6.8,8.7-10.3c1.3,2,2.5,4.1,3.7,6.2c1.8,3.3,3.8,6.4,6.1,9.4c-3.6,1.8-5.9,5.1-8.2,8.4c-0.9,1.4-1.9,2.7-3,4
			l-1.9-2.6c-1.9-2.6-4.1-5.4-4.5-7.5c0-0.1,0-0.2,0-0.3c0-2.2,4.4-5.8,7.2-8l0.8-0.7c0.3,0.6,0.6,1.3,0.6,1.3
			c0.4,1.2,1.1,2.4,1.9,3.4c-1.8,1-3.5,2.1-5.1,3.5l-0.7,0.6c-0.2,0.1-0.3,0.3-0.3,0.6c0,0.2,0.1,0.3,0.2,0.4c0.3,0.3,0.7,0.3,1,0.1
			l0.7-0.6c1.6-1.5,3.5-2.8,5.5-3.8c0.2-0.1,0.4-0.3,0.4-0.5c0-0.3-0.1-0.5-0.3-0.7c-1-0.9-1.8-2.1-2.2-3.4l-1-2.2
			c-0.1-0.2-0.3-0.3-0.5-0.4c-0.2,0-0.4,0-0.6,0.2c-0.5,0.4-1,0.8-1.5,1.2c-3.4,2.8-8.2,6.5-7.6,9.6c0.4,2.3,2.7,5.3,4.8,8l2.4,3.3
			c0.2,0.3,0.7,0.4,1.1,0.2c0,0,0.1,0,0.1-0.1c1.4-1.5,2.6-3.2,3.8-4.9c2.3-3.4,4.7-6.9,8.3-8.3c0.2-0.1,0.4-0.3,0.4-0.5
			c0.1-0.2,0-0.4-0.1-0.6c-2.4-3.1-4.6-6.4-6.4-9.8c-1.4-2.5-2.8-5-4.4-7.3c-0.1-0.2-0.4-0.3-0.7-0.3c-0.3,0-0.5,0.2-0.6,0.4
			c-1.5,3.6-5.3,7.4-9,11c-2.4,2.2-4.7,4.6-6.8,7.1c-0.2,0.2-0.2,0.6,0,0.8c5.7,6.4,12.8,15.9,15.7,23.5c0.1,0.2,0.3,0.4,0.6,0.4
			c0.3,0,0.5,0,0.7-0.2c4.3-4.9,7.6-11,10.6-16.9c2-3.7,4-7.6,6.1-11c0.2-0.2,0.2-0.5,0-0.7C140.1,78.6,138.5,76,137.1,73.5z"/>
		<path style="fill:#FFFC9F;" d="M169.7,81.1c-0.3,0-0.5,0.1-0.6,0.3c-1.6,2.3-3.3,4.4-5.1,6.4c-0.3,0.3-0.2,0.7,0,0.9
			c0,0,0,0,0.1,0.1c2.6,2.1,4.9,4.6,6.8,7.4l0.4-1.8c-1.6-2.3-3.6-4.4-5.8-6.2c1.5-1.6,2.8-3.4,4.1-5.2c0.7,1.2,1.4,2.4,2.3,3.5
			c-0.3,0.4-0.7,0.8-1.1,1.1c-0.2,0.1-0.4,0.4-0.4,0.7c0,0.1,0,0.2,0.1,0.3c0.2,0.4,0.6,0.5,1,0.3c0.6-0.3,1.1-0.7,1.4-1.2l0.4-1.7
			c-1.1-1.4-2-2.9-2.8-4.5C170.2,81.2,170,81.1,169.7,81.1z"/>
		<path style="fill:#FFFC9F;" d="M169.8,72.1c-0.2,0-0.5,0.1-0.6,0.3c-1.6,2.1-3.1,4.5-4.5,6.8l-2.8,4.3c-0.4,0.5-0.7,1-1.1,1.5
			c-1.7,2.2-2.3,3.2-0.6,6.2c2.6,4.4,5.6,8.5,9.1,12.2l0.4-1.7c-3.1-3.4-5.9-7.2-8.2-11.2c-0.4-0.7-0.7-1.4-0.8-2.2
			c0-0.8,0.4-1.4,1.3-2.6l1.1-1.6c1-1.5,1.9-2.9,2.9-4.4c1.2-2,2.5-3.9,3.8-5.8c1.3,2.5,2.9,4.9,4.6,7.2l0.4-1.8
			c-1.6-2.2-3-4.6-4.3-7C170.2,72.3,170,72.1,169.8,72.1z"/>
		<path style="fill:#FFFC9F;" d="M167.6,57.3c-0.2-0.2-0.4-0.3-0.7-0.2c-0.2,0-0.5,0.2-0.5,0.5c-1.8,5.4-4.8,10.6-7.7,15.6
			c-1.3,2.2-2.5,4.4-3.8,6.6c-0.2,0.3-0.1,0.7,0.3,0.9c0,0,0,0,0,0c0.4,0.2,0.8,0.1,1-0.3c1.3-2.2,2.5-4.4,3.8-6.6
			c2.9-4.6,5.3-9.5,7.3-14.6c2.9,3.9,5.4,8.1,7.6,12.4c0.3,0.7,0.7,1.4,1.1,2.1l0.5-2.1l-0.3-0.6C173.7,66.4,170.9,61.2,167.6,57.3z
			"/>
		<path style="fill:#FFFC9F;" d="M48,64.2c0.5,0.8,1.1,1.5,1.8,2c0.1,0.1,0.1,0.1,0.2,0.1c0,0,0.1,0.1,0.1,0.1
			c0.1,0,0.2,0.1,0.2,0.1c0,0,0,0,0.1,0c0.2,0,0.8-0.3,1-1.1c0.4-1.2,0.5-2.4,0.3-3.6c-0.2-1.3-0.6-2.5-1.1-3.8
			c-0.2-0.7-0.6-1.3-1-1.8c-0.6-0.7-1.3-1.1-2.2-1.2c-1.8,0-3.2,1.4-3.2,3.2c0,0,0,0,0,0c0.2,1.6,1.2,2.3,1.8,3.3S47.4,63.4,48,64.2
			z M45.9,56c1.1-0.7,2.4-0.4,3.2,0.6c0.5,0.9,1,1.9,1.3,2.9c0.3,1,0.5,2,0.7,3c0.3,2.3-0.4,4-0.6,3.8c0.3-1.2,0.3-2.5,0-3.8
			c-0.1-1-0.3-2-0.6-3c-0.3-1-0.6-1.9-1.1-2.8c-0.6-0.9-1.8-1.1-2.7-0.6c-0.8,0.5-1.2,1.5-1,2.5c0.4,0.8,0.8,1.6,1.3,2.3
			c0.8,1.3,1.3,2.3,1.3,2.3s-0.6-0.9-1.5-2.2c-0.5-0.7-1-1.4-1.4-2.2C44.6,57.8,45,56.6,45.9,56z"/>
		<path style="fill:#767F4E;" d="M46.2,61.1c0.9,1.3,1.4,2.2,1.5,2.2s-0.5-0.9-1.3-2.3c-0.5-0.7-0.9-1.4-1.3-2.2c-0.2-1,0.2-2,1-2.5
			c0.9-0.5,2.1-0.3,2.7,0.6c0.5,0.9,0.9,1.8,1.1,2.8c0.3,1,0.5,2,0.6,3c0.3,1.2,0.3,2.5,0,3.8c0.2,0.2,1-1.5,0.6-3.8
			c-0.1-1-0.4-2-0.7-3c-0.3-1-0.7-2-1.3-2.9c-0.7-1-2.1-1.3-3.2-0.7c-0.9,0.6-1.4,1.8-1.1,2.8C45.3,59.6,45.7,60.4,46.2,61.1z"/>
		<path style="fill:#FFFC9F;" d="M52.6,63.6c-0.2,0.8-0.2,1.4,0.3,1.6H53c0.1,0.2,0.9,0.4,1.8-0.1c1.2-0.5,2.3-1.1,3.3-1.9
			c0.1,0,1.1-1,3-2.4c0.6-0.4,1.1-0.9,1.5-1.4c0.6-0.7,0.9-1.7,0.9-2.6c-0.1-1.9-1.7-3.5-3.7-3.4c-0.2,0-0.3,0-0.5,0.1
			c-2.2,0.5-2.9,2.4-4,3.5c-0.8,1.3-1.6,2.6-2.2,4C52.9,62,52.7,62.8,52.6,63.6z M62.2,55.3c0.9,1.1,0.8,2.7-0.1,3.8
			c-0.8,0.7-1.7,1.4-2.6,2C58,62.2,57,63,57,63c-1.7,1.5-3.7,2.5-3.8,2.2c0.1,0.2,1.6-1.2,3.4-2.7c0.1,0,1.1-0.8,2.6-1.9
			c0.9-0.6,1.8-1.2,2.6-1.9c0.8-0.9,0.9-2.2,0.2-3.2c-0.8-1-2.1-1.3-3.2-0.8c-0.9,0.7-1.8,1.5-2.5,2.5c-0.8,0.9-1.4,1.9-2.1,2.9
			c0.5-1.1,1.2-2.1,1.9-3c0.7-1,1.5-1.8,2.5-2.6C59.8,53.9,61.3,54.2,62.2,55.3z"/>
		<path style="fill:#767F4E;" d="M56.1,57.1c-0.7,0.9-1.4,1.9-1.9,3c0.6-1,1.3-2,2.1-2.9c0.7-0.9,1.6-1.8,2.5-2.5
			c1.1-0.6,2.5-0.2,3.2,0.8c0.7,1,0.7,2.3-0.2,3.2c-0.8,0.7-1.7,1.3-2.6,1.9c-1.6,1.1-2.6,1.9-2.6,1.9c-1.8,1.5-3.3,2.9-3.4,2.7
			c0,0.3,2-0.7,3.8-2.2c0.1,0,1-0.8,2.5-1.9c0.9-0.6,1.8-1.3,2.6-2c0.9-1.1,1-2.6,0.1-3.8c-0.9-1.1-2.4-1.4-3.7-0.8
			C57.6,55.2,56.8,56.1,56.1,57.1z"/>
		<path style="fill:#FFFC9F;" d="M51.9,56.5c0.1,0.4,0.2,0.8,0.4,1.1c0,0.1,0.1,0.1,0.1,0.1c0,0,0,0,0.1,0.1c0,0,0,0,0.1,0l0,0
			c0,0,0.4,0,0.6-0.3c0.3-0.4,0.6-0.9,0.7-1.4c0.1-0.5,0.2-1.1,0.3-1.6c0-0.3,0-0.6,0-0.9c0-0.4-0.2-0.8-0.5-1
			c-0.7-0.4-1.6-0.2-2,0.4c-0.4,0.7-0.1,1.3-0.1,1.8S51.8,56.1,51.9,56.5z M52.9,52.7c0.6,0,1,0.4,1,1c0,0.4,0,0.9-0.1,1.3
			c-0.2,0.8-0.3,1.3-0.3,1.3c-0.3,1-0.8,1.6-0.9,1.5c0.3-0.5,0.5-1,0.6-1.6c0,0,0.2-0.5,0.3-1.3c0.1-0.4,0.2-0.9,0.2-1.3
			C53.8,53.2,53.4,52.8,52.9,52.7c-0.4,0.1-0.8,0.4-1,0.8c-0.1,0.4-0.1,0.8,0,1.2C52,55.5,52,56,52,56s-0.1-0.5-0.2-1.3
			c-0.1-0.4-0.1-0.8,0-1.2C52,53,52.4,52.7,52.9,52.7L52.9,52.7z"/>
		<path style="fill:#767F4E;" d="M51.8,54.8c0.1,0.8,0.2,1.3,0.2,1.3S52,55.5,51.8,54.8c0-0.4,0-0.8,0.1-1.2c0.1-0.4,0.5-0.7,1-0.8
			c0.5,0,0.8,0.4,0.9,0.9c0,0.4-0.1,0.9-0.2,1.3c-0.2,0.8-0.3,1.3-0.3,1.3c-0.1,0.6-0.3,1.1-0.6,1.6c0,0.1,0.6-0.5,0.9-1.5
			c0,0,0.2-0.5,0.3-1.3c0.1-0.5,0.2-0.9,0.2-1.4c0-0.6-0.4-1-1-1c-0.5,0-1,0.4-1.2,0.9C51.8,54,51.8,54.4,51.8,54.8z"/>
		<path style="fill:#FFFC9F;" d="M53,104c0.3-1,0.3-2.1,0.2-3.2c0-0.2-0.1-0.5-0.2-0.7l0,0c0,0,0-0.1-0.1-0.1h-0.1
			c-0.6-0.4-1.3-0.4-1.8,0c-1.4,0.7-2.6,1.7-3.5,2.9c0,0-1.1,1.7-2.4,3.5c-0.3,0.5-0.6,1-1,1.7c-0.3,0.8-0.3,1.7,0,2.5
			c0.5,2,2.8,3.8,5,2.5c2.5-1.4,2.4-3.5,3.1-5C52.5,106.8,52.8,105.4,53,104z M49.8,112c-1.1,1.2-2.9,1.3-4.1,0.2
			c-1.1-0.9-1.4-2.4-0.9-3.6c0.6-0.9,1.2-1.8,1.8-2.7c1.2-1.7,2-2.9,2.1-2.9c1.7-2.3,4-3.2,3.9-2.8c0-0.2-1.8,1.1-3.3,3.2
			c0,0-0.9,1.2-2.1,2.8c-0.7,0.8-1.3,1.7-1.9,2.6c-0.5,1.1-0.2,2.4,0.7,3.1c1.1,0.9,2.7,0.9,3.7-0.1c1-1,1.3-2.4,1.7-3.3
			c0.8-2,1-3.3,1-3.3c-0.2,1.1-0.5,2.3-0.9,3.3C51.1,109.5,51,110.8,49.8,112L49.8,112z"/>
		<path style="fill:#767F4E;" d="M52.5,105.1c-0.1,0-0.3,1.3-1,3.3c-0.5,1-0.7,2.4-1.7,3.3c-1,1-2.6,1-3.7,0.1
			c-0.9-0.7-1.2-2-0.7-3.1c0.6-0.9,1.2-1.8,1.9-2.6c1.2-1.6,2.1-2.8,2.1-2.8c1.6-2.1,3.3-3.4,3.3-3.2c0-0.4-2.2,0.5-3.9,2.8
			c0,0-0.9,1.3-2.1,2.9c-0.7,0.9-1.3,1.8-1.8,2.7c-0.5,1.3-0.1,2.7,0.9,3.6c1.2,1,3,0.9,4.1-0.2c1.1-1.2,1.2-2.5,1.7-3.5
			C52,107.4,52.3,106.3,52.5,105.1z"/>
		<path style="fill:#FFFC9F;" d="M55.9,111.2c0.2,0.4,0.5,0.8,0.8,1.1c0.4,0.4,1,0.7,1.6,0.7c1.2,0.2,2.3-0.7,2.5-1.9
			c0-0.1,0-0.3,0-0.4c-0.3-1.5-1.3-1.9-2-2.7s-1.3-1.2-2-1.7c-0.5-0.5-1-0.9-1.6-1.2l0,0c-0.1,0-0.2-0.1-0.3-0.1h-0.1l0,0
			c0,0-0.6,0.2-0.7,0.9c-0.2,0.9,0,1.9,0.4,2.8C54.9,109.7,55.4,110.5,55.9,111.2z M54.8,105.2c-0.1,0.9,0.1,1.9,0.6,2.7
			c0,0,0.3,0.9,0.9,2c0.3,0.6,0.7,1.2,1.1,1.8c0.5,0.6,1.4,0.7,2.1,0.3c0.7-0.4,1-1.2,0.7-1.9c-0.4-0.6-0.8-1.2-1.4-1.7
			c-0.9-0.9-1.4-1.5-1.4-1.5s0.6,0.5,1.5,1.4c0.6,0.5,1.1,1.1,1.5,1.7c0.4,0.8,0,1.8-0.8,2.2c-0.8,0.4-1.8,0.3-2.4-0.3
			c-0.4-0.6-0.8-1.2-1.2-1.8c-0.4-0.6-0.7-1.3-1-2C54.2,106.5,54.6,105.1,54.8,105.2L54.8,105.2z"/>
		<path style="fill:#767F4E;" d="M55.9,110.2c0.3,0.6,0.7,1.2,1.2,1.8c0.7,0.6,1.6,0.8,2.4,0.3c0.8-0.4,1.1-1.4,0.8-2.2
			c-0.4-0.6-0.9-1.2-1.5-1.7c-0.9-0.9-1.5-1.4-1.5-1.4s0.5,0.6,1.4,1.5c0.5,0.5,1,1,1.4,1.7c0.3,0.7,0,1.6-0.7,1.9
			c-0.7,0.4-1.5,0.2-2.1-0.3c-0.4-0.6-0.8-1.2-1.1-1.8c-0.6-1.1-0.9-2-0.9-2c-0.4-0.8-0.6-1.8-0.6-2.7c-0.2-0.2-0.6,1.3,0.2,2.9
			C55.2,108.8,55.5,109.5,55.9,110.2z"/>
		<path style="fill:#FFFC9F;" d="M53.6,109.6L53.6,109.6c0-0.1-0.4,0-0.6,0.3c-0.3,0.4-0.6,0.8-0.7,1.3c-0.2,0.5-0.2,1-0.3,1.6
			c0,0.3,0,0.6,0,0.9c0.1,0.4,0.3,0.7,0.6,0.9c0.7,0.4,1.6,0.2,2-0.5c0.4-0.7,0-1.2,0-1.7s-0.2-1.1-0.3-1.5
			c-0.1-0.4-0.2-0.7-0.4-1.1c0,0-0.1-0.1-0.1-0.1c0,0-0.1-0.1-0.1-0.1S53.6,109.6,53.6,109.6z M54.5,113.7c-0.2,0.5-0.6,0.8-1.1,0.8
			c-0.5,0-1-0.3-1.1-0.9c0-0.4,0-0.9,0.1-1.3c0.1-0.4,0.2-0.8,0.3-1.2c0.2-0.9,0.8-1.6,0.9-1.4c-0.3,0.5-0.5,1-0.6,1.5
			c0,0-0.2,0.5-0.3,1.2c-0.1,0.4-0.1,0.9-0.1,1.3c0,0.5,0.4,0.8,0.9,0.8c0.5,0,0.9-0.3,1-0.7c0-0.4,0-0.8-0.1-1.1
			c-0.1-0.7-0.1-1.2-0.1-1.2s0.1,0.5,0.2,1.2C54.4,113,54.5,113.3,54.5,113.7z"/>
		<path style="fill:#767F4E;" d="M54.2,111.4c0,0,0,0.5,0.1,1.2c0.1,0.4,0.1,0.8,0.1,1.1c-0.1,0.4-0.5,0.7-1,0.7
			c-0.5,0-0.9-0.3-0.9-0.8c0-0.4,0-0.9,0.1-1.3c0.2-0.7,0.3-1.2,0.3-1.2c0.1-0.5,0.3-1,0.6-1.5c0-0.1-0.6,0.5-0.9,1.4
			c-0.1,0.4-0.2,0.8-0.3,1.2c-0.1,0.4-0.1,0.9-0.1,1.3c0.1,0.5,0.5,0.9,1.1,0.9c0.5,0,1-0.4,1.1-0.8c0-0.4,0-0.8-0.1-1.2
			C54.3,111.9,54.2,111.4,54.2,111.4z"/>
		<path style="fill:#FFFC9F;" d="M101.1,66.3c0.1-1.1-0.1-2.2-0.6-3.3c0,0-0.6-1.3-1.5-2.9c-0.3-0.5-0.5-0.9-0.8-1.3
			c-0.5-0.5-1.1-0.8-1.8-0.9c-1.4-0.3-2.8,0.6-3.1,2c0,0.2-0.1,0.4-0.1,0.6c0.2,1.9,1.5,2.5,2.2,3.5c0.7,0.7,1.5,1.4,2.3,2.1
			c0.6,0.6,1.3,1,2,1.4c0.1,0.1,0.3,0.1,0.5,0.1h0.1l0,0C100.7,67.4,101.1,67.1,101.1,66.3z M95,58.6c0.9-0.4,2.1-0.2,2.8,0.6
			c0.5,0.7,0.9,1.4,1.2,2.2c0.7,1.4,1.1,2.4,1.1,2.4c0.8,1.9,0.6,3.7,0.3,3.5c0-1.1-0.3-2.3-0.8-3.3c0,0-0.4-1-1.1-2.4
			c-0.3-0.8-0.7-1.5-1.2-2.2c-0.6-0.7-1.5-0.9-2.4-0.5c-0.9,0.4-1.3,1.4-1,2.3c0.4,0.8,0.9,1.5,1.6,2.1c1,1.2,1.7,1.8,1.7,1.8
			c-0.6-0.6-1.2-1.1-1.8-1.8c-0.7-0.6-1.2-1.4-1.7-2.2C93.5,60.2,94,59.1,95,58.6z"/>
		<path style="fill:#767F4E;" d="M95.6,63.5c0.6,0.6,1.2,1.2,1.8,1.8C97.4,65.2,96.7,64.6,95.6,63.5c-0.5-0.7-1.1-1.4-1.5-2.2
			c-0.3-0.9,0.1-1.9,1-2.3c0.8-0.4,1.8-0.1,2.4,0.5c0.4,0.7,0.8,1.4,1.2,2.2c0.7,1.4,1.1,2.4,1.1,2.4c0.5,1,0.8,2.2,0.8,3.3
			c0.2,0.2,0.5-1.5-0.3-3.5c0,0-0.4-1-1.1-2.4c-0.4-0.8-0.8-1.5-1.3-2.2c-0.7-0.8-1.8-1-2.7-0.6c-1,0.5-1.5,1.6-1.1,2.7
			C94.3,62.1,94.9,62.8,95.6,63.5z"/>
		<path style="fill:#FFFC9F;" d="M103.6,65c-0.1,0.4-0.1,0.7,0.1,0.8h0.1c0.4,0.3,0.9,0.4,1.4,0.2c1.1-0.3,2.1-0.8,3-1.5
			c0,0,1.1-0.9,2.5-2.3c0.4-0.4,0.8-0.8,1.2-1.3c0.4-0.6,0.5-1.4,0.4-2.2c-0.3-1.5-1.7-2.6-3.3-2.3c-0.1,0-0.3,0.1-0.4,0.1
			c-1.7,0.7-2,2.2-2.7,3.1c-0.6,1-1.1,2-1.5,3C104,63.4,103.7,64.2,103.6,65z M108,57.4c0.9-0.7,2.2-0.6,3,0.2c0.8,0.8,0.9,2,0.3,3
			c-0.6,0.7-1.3,1.4-2,2c-1.2,1.1-2.1,1.8-2.1,1.8c-1.6,1.3-3.4,1.8-3.3,1.5c1.1-0.5,2.1-1.1,3-1.9c0,0,0.9-0.7,2.2-1.7
			c0.7-0.6,1.4-1.2,2-1.9c0.6-0.8,0.5-1.9-0.2-2.5c-0.7-0.7-1.8-0.9-2.7-0.3c-0.7,0.6-1.2,1.3-1.7,2.1c-0.9,1.3-1.4,2.3-1.4,2.3
			c0.4-0.8,0.8-1.6,1.3-2.4C106.8,58.8,107.4,58,108,57.4L108,57.4z"/>
		<path style="fill:#767F4E;" d="M106.3,59.6c-0.5,0.8-0.9,1.5-1.3,2.4c0,0,0.5-0.9,1.4-2.3c0.5-0.8,1-1.5,1.7-2.1
			c0.8-0.6,2-0.5,2.7,0.3c0.7,0.7,0.8,1.8,0.2,2.5c-0.6,0.7-1.2,1.3-1.9,1.8c-1.2,1-2.1,1.7-2.2,1.7c-0.9,0.8-1.9,1.5-3,1.9
			c0,0.3,1.7-0.2,3.3-1.5c0,0,0.9-0.7,2.1-1.8c0.7-0.6,1.4-1.3,2-2c0.6-1,0.5-2.2-0.3-3c-0.8-0.8-2.1-0.9-3-0.2
			C107.4,58,106.8,58.8,106.3,59.6z"/>
		<path style="fill:#FFFC9F;" d="M101.3,59.8c0.2,0.6,0.5,1.2,0.9,1.7c0.2,0.3,0.3,0.4,0.5,0.4l0,0c0.1,0.1,0.6,0,0.9-0.7
			c0.5-0.8,0.8-1.7,0.8-2.6c0,0,0.1-1.2,0.1-2.7c0-0.4,0-0.9-0.1-1.3c-0.1-0.5-0.4-1-0.9-1.3c-0.9-0.8-2.7-1.1-3.4,0.5
			c-0.6,1.5,0,2.5,0.2,3.5S101,59.1,101.3,59.8z M102.3,53.1c0.8,0.1,1.5,0.7,1.7,1.6c0.1,0.7,0.1,1.4,0,2.2
			c-0.1,1.3-0.2,2.2-0.2,2.2c-0.1,1.7-0.9,3-1.1,2.7c0.4-0.9,0.6-1.8,0.7-2.8c0,0,0.1-0.9,0.2-2.2c0.1-0.7,0.1-1.4,0.1-2.1
			c-0.1-0.7-0.8-1.3-1.5-1.4c-0.8-0.1-1.6,0.5-1.7,1.3c0,0.7,0.1,1.5,0.2,2.2c0.3,1.3,0.5,2.1,0.5,2.1c-0.2-0.7-0.4-1.4-0.6-2.1
			c-0.2-0.7-0.3-1.5-0.3-2.3C100.4,53.7,101.3,53,102.3,53.1L102.3,53.1z"/>
		<path style="fill:#767F4E;" d="M100.6,56.9c0.2,0.7,0.4,1.4,0.6,2.1c0,0-0.2-0.8-0.5-2.1c-0.2-0.7-0.3-1.5-0.2-2.2
			c0.1-0.8,0.9-1.4,1.7-1.3c0.8,0.1,1.4,0.6,1.5,1.4c0,0.7,0,1.4-0.1,2.1c-0.1,1.3-0.2,2.1-0.2,2.2c0,1-0.2,1.9-0.7,2.8
			c0.1,0.2,0.9-1,1.1-2.7c0,0,0.1-0.9,0.2-2.2c0.1-0.7,0.1-1.4,0-2.2c-0.2-0.8-0.9-1.5-1.8-1.6c-1-0.1-1.8,0.6-1.9,1.5
			C100.3,55.4,100.4,56.2,100.6,56.9z"/>
		<path style="fill:#FFFC9F;" d="M102.1,103.8c0.3-0.9,0.5-1.8,0.4-2.7c0-0.4-0.1-0.7-0.2-0.8h-0.1c-0.5-0.3-1.1-0.3-1.6,0
			c-1.2,0.5-2.3,1.2-3.2,2.2c0,0-1.1,1.2-2.5,2.9c-0.4,0.5-0.8,1-1.1,1.6c-0.4,0.8-0.4,1.7-0.1,2.5c0.7,1.7,2.6,2.5,4.3,1.8
			c0.1,0,0.2-0.1,0.3-0.1c1.8-1,1.9-2.7,2.5-3.9S101.8,104.8,102.1,103.8z M98.9,110.2c-0.9,0.9-2.4,1-3.5,0.3
			c-1.1-0.7-1.5-2.1-0.9-3.2c0.6-0.9,1.2-1.7,1.9-2.5c1.2-1.4,2.1-2.3,2.1-2.3c1.6-1.8,3.6-2.5,3.6-2.1c-1.2,0.6-2.2,1.5-3.1,2.5
			c0,0-0.9,0.9-2.2,2.3c-0.7,0.7-1.3,1.5-1.9,2.3c-0.5,1-0.2,2.2,0.7,2.8c0.9,0.7,2.2,0.6,3.1-0.2c0.6-0.8,1.2-1.7,1.5-2.6
			c0.8-1.6,1.2-2.7,1.2-2.7c-0.3,0.9-0.7,1.9-1.1,2.8C100.1,108.4,99.6,109.4,98.9,110.2z"/>
		<path style="fill:#767F4E;" d="M100.4,107.5c0.4-0.9,0.8-1.8,1.1-2.8c0,0-0.4,1.1-1.2,2.7c-0.4,0.9-0.9,1.8-1.5,2.6
			c-0.8,0.8-2.1,0.9-3.1,0.2c-0.9-0.6-1.2-1.8-0.7-2.8c0.6-0.8,1.2-1.6,1.9-2.3c1.2-1.3,2.1-2.2,2.2-2.3c0.9-1,1.9-1.9,3.1-2.6
			c0-0.3-1.9,0.4-3.6,2.1c0,0-0.9,0.9-2.1,2.3c-0.7,0.8-1.3,1.6-1.9,2.5c-0.5,1.2-0.1,2.5,0.9,3.2c1.1,0.7,2.5,0.6,3.5-0.3
			C99.6,109.3,100.1,108.4,100.4,107.5z"/>
		<path style="fill:#FFFC9F;" d="M105.8,109.7c0.1,0.5,0.3,0.9,0.5,1.3c0.3,0.5,0.9,0.9,1.5,1.1c1.3,0.3,2.6-0.4,2.9-1.7
			c0-0.1,0-0.1,0-0.2c0.1-1.4-0.8-2.1-1.3-2.9s-1.1-1.5-1.6-2.2c-0.4-0.5-0.8-1-1.4-1.3c-0.3-0.2-0.5-0.3-0.6-0.2s0,0,0,0
			s-0.6,0.3-0.7,0.9c-0.2,0.8-0.3,1.7-0.1,2.6C105.3,107.9,105.5,108.8,105.8,109.7z M105.8,103.7c-0.1,0.9-0.1,1.9,0.2,2.8
			c0,0,0.1,0.9,0.4,2.1c0.1,0.7,0.3,1.4,0.6,2c0.4,0.7,1.2,1,2,0.7c0.8-0.2,1.2-1,1.1-1.8c-0.2-0.7-0.5-1.3-0.9-1.9
			c-0.6-1.1-1.1-1.8-1.1-1.8c0.4,0.6,0.8,1.2,1.2,1.8c0.4,0.6,0.8,1.2,1,1.9c0.1,0.9-0.4,1.7-1.2,2c-0.9,0.3-1.8,0-2.3-0.8
			c-0.3-0.7-0.5-1.4-0.7-2.1c-0.3-1.3-0.5-2.1-0.5-2.1C105.2,104.9,105.6,103.5,105.8,103.7L105.8,103.7z"/>
		<path style="fill:#767F4E;" d="M106,108.6c0.2,0.7,0.4,1.4,0.7,2.1c0.5,0.8,1.5,1.1,2.3,0.8c0.8-0.3,1.4-1.1,1.2-2
			c-0.2-0.7-0.6-1.3-1-1.9c-0.4-0.6-0.8-1.2-1.2-1.8c0,0,0.5,0.7,1.1,1.8c0.4,0.6,0.7,1.2,0.9,1.9c0.1,0.8-0.4,1.5-1.1,1.8
			c-0.8,0.3-1.6,0-2-0.7c-0.3-0.6-0.5-1.3-0.6-2c-0.3-1.2-0.4-2.1-0.4-2.1c-0.2-0.9-0.3-1.8-0.2-2.8c-0.2-0.1-0.6,1.2-0.2,2.8
			C105.6,106.5,105.7,107.4,106,108.6z"/>
		<path style="fill:#FFFC9F;" d="M101.3,109.8c-0.2,0.8-0.4,1.7-0.5,2.6c-0.1,0.5-0.1,0.9,0,1.4c0.1,0.6,0.5,1.2,1,1.5
			c1.1,0.5,2.5,0.1,3.1-1c0.2-0.9,0.2-1.8-0.1-2.6c-0.1-0.8-0.3-1.6-0.4-2.3c-0.1-0.6-0.3-1.2-0.6-1.7c0,0,0-0.1-0.1-0.1
			c-0.1-0.1-0.1-0.2-0.2-0.2s0-0.1-0.1-0.1s0,0,0,0c-0.4-0.1-0.8,0.1-1,0.4C102,108.2,101.5,108.9,101.3,109.8z M104.7,113.7
			c-0.2,0.7-0.9,1.3-1.6,1.3c-0.9,0.1-1.7-0.5-1.8-1.4c0-0.7,0.1-1.4,0.2-2.1c0.1-0.7,0.3-1.3,0.5-2c0.4-1.5,1.4-2.4,1.5-2.2
			c-0.5,0.7-0.9,1.5-1.1,2.3c-0.2,0.7-0.4,1.3-0.6,2c-0.1,0.7-0.2,1.3-0.3,2c0.1,0.7,0.8,1.3,1.5,1.2c0.7,0,1.3-0.5,1.5-1.2
			c0-0.6,0-1.2-0.1-1.8c-0.1-1.1-0.2-1.9-0.2-1.8s0.1,0.7,0.3,1.8C104.7,112.5,104.8,113.1,104.7,113.7L104.7,113.7z"/>
		<path style="fill:#767F4E;" d="M104.4,110c0,0,0,0.8,0.2,1.8c0.1,0.6,0.1,1.2,0.1,1.8c-0.2,0.7-0.8,1.1-1.5,1.2
			c-0.8,0.1-1.4-0.5-1.5-1.2c0-0.7,0.1-1.3,0.3-2c0.1-0.7,0.3-1.3,0.6-2c0.2-0.9,0.6-1.6,1.1-2.3c-0.1-0.2-1.1,0.7-1.5,2.2
			c-0.2,0.7-0.4,1.3-0.5,2c-0.1,0.7-0.2,1.4-0.2,2.1c0.1,0.9,1,1.5,1.8,1.4c0.8-0.1,1.4-0.6,1.7-1.4c0-0.6,0-1.2-0.1-1.8
			C104.5,110.7,104.4,110,104.4,110z"/>
		<path style="fill:#FFFC9F;" d="M145.8,59.4c-0.2-0.6-0.5-1.2-0.8-1.7c-0.5-0.7-1.2-1.2-2-1.4c-1.6-0.4-3.3,0.6-3.7,2.2
			c0,0.1-0.1,0.3-0.1,0.4c-0.1,1.9,1.2,2.9,1.8,4s1.4,2,2.1,2.8c0.6,0.9,1.3,1.6,2.2,2.1l0.2,0.1h0.1c0,0,0.1,0,0.1,0s0,0,0.1,0
			c0.2,0,0.8-0.3,1-1.2c0.4-1.2,0.4-2.5,0.1-3.7C146.6,61.8,146.2,60.6,145.8,59.4z M145.8,67.8c0.2-1.3,0.1-2.6-0.2-3.8
			c-0.1-1-0.3-2-0.6-2.9c-0.2-0.9-0.5-1.9-0.9-2.7c-0.6-1.1-1.9-1.5-3-0.9c-0.8,0.5-1.3,1.4-1.1,2.4c0.3,0.9,0.8,1.8,1.3,2.6
			c0.9,1.5,1.5,2.4,1.5,2.4s-0.7-0.9-1.6-2.3c-0.6-0.8-1.1-1.7-1.4-2.6c-0.2-1.2,0.4-2.4,1.6-2.8c1.1-0.4,2.4,0,3.1,1
			c0.4,0.9,0.8,1.8,1,2.8c0.3,1,0.5,2,0.7,3C146.7,66.1,146,68,145.8,67.8L145.8,67.8z"/>
		<path style="fill:#767F4E;" d="M145.5,60.8c-0.2-1-0.6-1.9-1-2.8c-0.7-1-2-1.4-3.1-1c-1.1,0.4-1.8,1.6-1.6,2.8
			c0.4,0.9,0.8,1.8,1.4,2.6c0.9,1.4,1.6,2.3,1.6,2.3s-0.6-0.9-1.5-2.4c-0.6-0.8-1-1.7-1.3-2.6c-0.2-1.2,0.6-2.3,1.8-2.5
			c0.9-0.2,1.8,0.3,2.3,1c0.4,0.9,0.7,1.8,0.9,2.8c0.3,1,0.5,1.9,0.6,2.9c0.3,1.3,0.4,2.6,0.2,3.8c0.2,0.2,0.9-1.6,0.4-3.9
			C146,62.8,145.8,61.8,145.5,60.8z"/>
		<path style="fill:#FFFC9F;" d="M149.1,65.6L149.1,65.6C149.1,65.6,149.1,65.6,149.1,65.6c0.1,0,0.1,0,0.1,0c0.5,0.2,1,0.1,1.4-0.2
			c1-0.5,1.9-1.2,2.6-2.1c0.8-0.9,1.5-1.9,2.1-2.9c0.4-0.5,0.6-1.1,0.9-1.6c0.3-0.8,0.2-1.6-0.2-2.3c-0.8-1.5-2.6-2.1-4-1.3
			c-0.1,0-0.1,0.1-0.2,0.1c-1.4,1.1-1.4,2.5-1.9,3.6s-0.7,2.3-0.9,3.3c-0.2,0.8-0.3,1.6-0.2,2.3C148.7,65,148.8,65.3,149.1,65.6z
			 M151.5,56.2c0.7-0.9,2-1.1,3-0.6c1,0.6,1.5,1.8,1.1,2.9c-0.4,0.9-1,1.7-1.6,2.5c-1,1.4-1.8,2.2-1.8,2.3c-1.4,1.6-2.9,2.5-2.9,2.2
			c1-0.7,1.8-1.6,2.5-2.6c0,0,0.8-0.8,1.8-2.2c0.6-0.7,1.1-1.5,1.6-2.3c0.4-0.9,0-2-0.9-2.5c-0.9-0.5-2-0.3-2.7,0.4
			c-0.5,0.8-0.9,1.6-1.2,2.4c-0.6,1.5-1,2.6-1,2.6s0.3-1.1,0.9-2.6C150.6,57.9,151,57,151.5,56.2L151.5,56.2z"/>
		<path style="fill:#767F4E;" d="M149.5,61.4c0,0,0.4-1,1-2.6c0.3-0.9,0.7-1.7,1.2-2.4c0.7-0.8,1.8-0.9,2.7-0.4
			c0.9,0.5,1.3,1.6,0.9,2.5c-0.4,0.8-1,1.6-1.6,2.3c-1,1.3-1.8,2.1-1.8,2.2c-0.7,1-1.6,1.8-2.5,2.6c0,0.3,1.6-0.6,2.9-2.2
			c0,0,0.8-0.9,1.8-2.3c0.6-0.8,1.1-1.6,1.6-2.5c0.4-1.1-0.1-2.4-1.1-2.9c-1-0.5-2.3-0.3-3,0.6c-0.5,0.8-0.9,1.7-1.1,2.5
			C149.8,60.3,149.5,61.4,149.5,61.4z"/>
		<path style="fill:#FFFC9F;" d="M149.6,53.5c0-0.4,0-0.8-0.1-1.2c-0.1-0.5-0.4-0.9-0.9-1.2c-0.8-0.6-2-0.3-2.5,0.5
			c-0.1,0.1-0.1,0.2-0.2,0.3c-0.4,1.1,0.1,1.8,0.2,2.6s0.4,1.4,0.6,2c0.1,0.5,0.4,1,0.6,1.5l0.1,0.1c0,0.1,0.1,0.1,0.1,0.1
			c0,0,0,0.1,0.1,0.1s0,0,0,0s0.5,0.1,0.8-0.4c0.5-0.6,0.8-1.4,0.9-2.1C149.6,55.1,149.6,54.3,149.6,53.5z M149.2,54.3
			c-0.1,1.1-0.2,1.8-0.2,1.8c-0.2,1.4-1,2.3-1.1,2.1c0.4-0.7,0.7-1.4,0.7-2.2c0.1-0.6,0.2-1.2,0.2-1.8c0.1-0.6,0.1-1.2,0-1.7
			c-0.2-0.7-0.8-1.2-1.6-1c-0.5,0.1-1,0.6-1,1.1c0,0.6,0.1,1.1,0.2,1.7c0.2,1,0.4,1.6,0.4,1.6c-0.2-0.5-0.3-1.1-0.4-1.6
			c-0.2-0.6-0.3-1.2-0.3-1.7c0.1-0.7,0.7-1.3,1.4-1.3c0.7,0,1.4,0.5,1.6,1.2C149.2,53.1,149.2,53.7,149.2,54.3L149.2,54.3z"/>
		<path style="fill:#767F4E;" d="M147.6,51.3c-0.7,0-1.3,0.6-1.4,1.3c0,0.6,0.1,1.2,0.3,1.7c0.1,0.5,0.3,1.1,0.4,1.6
			c0,0-0.1-0.6-0.4-1.6c-0.1-0.6-0.2-1.1-0.2-1.7c0.1-0.7,0.8-1.2,1.5-1.1c0.5,0.1,1,0.5,1.1,1c0.1,0.6,0.1,1.2,0,1.7
			c0,0.6-0.1,1.2-0.2,1.8c-0.1,0.8-0.3,1.5-0.7,2.2c0,0.2,0.9-0.7,1.1-2.1c0,0,0.1-0.8,0.2-1.8c0.1-0.6,0.1-1.2,0-1.8
			C149,51.7,148.3,51.2,147.6,51.3z"/>
		<path style="fill:#FFFC9F;" d="M147.6,101.3c0.2-1.1,0.1-2.2-0.1-3.3c-0.1-0.5-0.2-0.9-0.5-1c0,0-0.1,0-0.1,0
			c-0.7-0.3-1.5-0.1-2,0.4c-1.3,0.9-2.5,2-3.3,3.3c0,0.1-1,1.7-2.3,4.2c-0.4,0.7-0.7,1.5-0.9,2.3c-0.2,1,0,2.1,0.6,3
			c1.3,1.9,4,2.4,5.9,1c0.1,0,0.1-0.1,0.2-0.1c1.8-1.7,1.6-3.6,2-5.2C147.4,104.2,147.6,102.6,147.6,101.3z M141.2,111
			c-1.5-0.6-2.4-2.1-2-3.7c0.5-1.2,1-2.4,1.7-3.5c1.1-2,2-3.3,2-3.3c1.6-2.5,3.7-3.8,3.8-3.4c-0.1-0.2-1.7,1.5-3.1,3.8
			c0,0-0.9,1.3-2.1,3.2c-0.7,1-1.3,2.2-1.7,3.3c-0.3,1.3,0.4,2.7,1.6,3.2c1.3,0.5,2.8,0.1,3.7-1c0.5-1.1,0.9-2.3,1.2-3.5
			c0.6-2.1,0.8-3.6,0.8-3.6c-0.1,1.2-0.4,2.4-0.6,3.6c-0.2,1.2-0.6,2.5-1.1,3.6C144.4,111.1,142.7,111.6,141.2,111z"/>
		<path style="fill:#767F4E;" d="M146.5,106.2c0.3-1.2,0.5-2.4,0.6-3.6c0,0-0.3,1.4-0.8,3.6c-0.2,1.2-0.6,2.4-1.2,3.5
			c-0.9,1.1-2.4,1.5-3.7,1c-1.3-0.5-2-1.9-1.6-3.2c0.5-1.1,1.1-2.3,1.7-3.3c1.2-1.9,2-3.2,2.1-3.2c1.5-2.3,3.1-4,3.1-3.8
			c0-0.4-2.2,0.9-3.8,3.4c0,0-0.9,1.3-2,3.3c-0.7,1.1-1.3,2.3-1.7,3.5c-0.4,1.6,0.5,3.1,2,3.7c1.5,0.6,3.2,0.1,4.1-1.2
			C145.9,108.6,146.3,107.4,146.5,106.2z"/>
		<path style="fill:#FFFC9F;" d="M152.3,109.7c0.4,0.5,0.9,1,1.5,1.4c0.7,0.5,1.6,0.7,2.5,0.6c1.7-0.3,2.9-2,2.6-3.7
			c0-0.1,0-0.2,0-0.2c-0.6-1.7-2.1-2.1-3.1-2.9s-1.9-1.5-2.8-2.1c-0.7-0.6-1.6-1-2.5-1.3c-0.2-0.1-0.4-0.1-0.6-0.1c0,0,0,0-0.1,0
			h-0.1v0.1c-0.5,0.3-0.8,0.9-0.7,1.4c0,1.2,0.4,2.5,1,3.6C150.6,107.7,151.4,108.8,152.3,109.7z M149.6,101.7
			c-0.2,0,0.3,1.7,1.4,3.6c0.4,0.9,0.9,1.8,1.5,2.7c0.6,0.8,1.3,1.6,2,2.3c1,0.8,2.4,0.6,3.2-0.4c0.6-0.7,0.6-1.7,0.2-2.5
			c-0.6-0.7-1.3-1.3-2.1-1.8c-1.3-1-2.1-1.8-2.1-1.8s0.9,0.7,2.2,1.7c0.8,0.5,1.6,1.1,2.2,1.8c0.6,1,0.4,2.3-0.4,3.2
			c-0.9,0.9-2.4,1-3.4,0.2c-0.8-0.7-1.5-1.5-2.1-2.4c-0.6-0.9-1.1-1.8-1.6-2.7C149.3,103.5,149.4,101.6,149.6,101.7L149.6,101.7z"/>
		<path style="fill:#767F4E;" d="M152.1,108.3c0.6,0.9,1.4,1.7,2.1,2.4c1,0.8,2.5,0.7,3.4-0.2c0.9-0.8,1-2.1,0.4-3.2
			c-0.7-0.7-1.4-1.3-2.2-1.8c-1.4-1-2.2-1.8-2.2-1.7s0.8,0.8,2.1,1.8c0.8,0.5,1.5,1.1,2.1,1.8c0.6,1.1,0.3,2.5-0.8,3.1
			c-0.8,0.5-1.8,0.4-2.5-0.2c-0.7-0.7-1.4-1.5-2-2.3c-0.6-0.9-1.1-1.7-1.5-2.7c-1-1.9-1.5-3.6-1.4-3.6c-0.3-0.1-0.3,1.8,0.8,3.8
			C150.9,106.5,151.5,107.4,152.1,108.3z"/>
		<path style="fill:#FFFC9F;" d="M147,112.5c-0.1,0.3-0.1,0.7-0.1,1c0.1,0.5,0.3,0.9,0.7,1.2c0.8,0.7,1.9,0.6,2.6-0.2
			c0,0,0.1-0.1,0.1-0.1c0.5-1,0.1-1.8,0.1-2.5c-0.1-0.7-0.2-1.3-0.4-1.9c-0.1-0.5-0.3-1-0.6-1.4c0-0.1-0.1-0.1-0.1-0.2
			c0,0-0.1-0.1-0.1-0.1c0,0,0-0.1-0.1-0.1s0,0,0,0s-0.5,0-0.8,0.4c-0.5,0.5-0.8,1.2-0.9,1.8C147.4,110.4,147.2,111.4,147,112.5z
			 M148,110.2c0.3-1.3,1-2.1,1.1-1.9c-0.4,0.6-0.7,1.3-0.8,2c0,0-0.2,0.7-0.4,1.6c-0.1,0.5-0.2,1-0.3,1.6c0.1,0.7,0.8,1.2,1.5,1.1
			c0.5-0.1,0.9-0.4,1.1-0.9c0.1-0.6,0.1-1.1,0-1.7c-0.1-1-0.2-1.6-0.2-1.6c0.1,0.5,0.2,1,0.2,1.6c0.1,0.6,0.1,1.1,0,1.7
			c-0.2,0.7-0.9,1.1-1.6,1c-0.7-0.1-1.3-0.6-1.4-1.3c0-0.5,0.1-1.1,0.2-1.6C147.8,110.9,148,110.3,148,110.2L148,110.2z"/>
		<path style="fill:#767F4E;" d="M148.7,114.8c0.7,0.1,1.3-0.3,1.6-1c0.1-0.6,0.1-1.1,0-1.7c0-0.5-0.1-1.1-0.2-1.6
			c0,0,0.1,0.6,0.2,1.6c0.1,0.6,0.1,1.1,0,1.7c-0.2,0.7-1,1-1.7,0.8c-0.5-0.2-0.8-0.6-0.9-1.1c0-0.5,0.1-1.1,0.3-1.6
			c0.2-0.9,0.4-1.6,0.4-1.6c0.1-0.7,0.4-1.4,0.8-2c-0.1-0.2-0.8,0.7-1.1,1.9c0,0-0.2,0.7-0.4,1.7c-0.1,0.5-0.2,1.1-0.2,1.6
			C147.5,114.2,148,114.8,148.7,114.8z"/>
		<defs>
			<filter id="Adobe_OpacityMaskFilter" filterUnits="userSpaceOnUse" x="26.7" y="54" width="72.6" height="88.3">
				<feColorMatrix  type="matrix" values="1 0 0 0 0  0 1 0 0 0  0 0 1 0 0  0 0 0 1 0"/>
			</filter>
		</defs>
		<mask maskUnits="userSpaceOnUse" x="26.7" y="54" width="72.6" height="88.3" id="mask">
			<g style="filter:url(#luminosity-invert);">
				
					<radialGradient id="SVGID_3_" cx="32.0589" cy="180.74" r="31.38" gradientTransform="matrix(1.14 0 0 -1.6 20.78 383.41)" gradientUnits="userSpaceOnUse">
					<stop  offset="0.2" style="stop-color:#D6D3D2"/>
					<stop  offset="0.72" style="stop-color:#FFFFFF"/>
				</radialGradient>
				<rect x="23.9" y="39" style="fill:url(#SVGID_3_);" width="85.1" height="114.6"/>
			</g>
		</mask>
		<g style="mask:url(#mask);">
			<path style="fill:#F4C7A8;" d="M97.6,94.3c4.8,19.9-0.1,47.9-20,47.9s-50.9-31-50.9-51.6S38,54,57.9,54S92,71.3,97.6,94.3z"/>
		</g>
		<defs>
			<filter id="Adobe_OpacityMaskFilter_1_" filterUnits="userSpaceOnUse" x="19.3" y="31" width="71.8" height="96.1">
				<feColorMatrix  type="matrix" values="1 0 0 0 0  0 1 0 0 0  0 0 1 0 0  0 0 0 1 0"/>
			</filter>
		</defs>
		<mask maskUnits="userSpaceOnUse" x="19.3" y="31" width="71.8" height="96.1" id="mask-2">
			<g style="filter:url(#luminosity-invert);">
				
					<radialGradient id="SVGID_4_" cx="-15.261" cy="229.2872" r="23.92" gradientTransform="matrix(1.42 -8.000000e-02 -8.000000e-02 -2.01 93.16 538.43)" gradientUnits="userSpaceOnUse">
					<stop  offset="0.2" style="stop-color:#D6D3D2"/>
					<stop  offset="0.72" style="stop-color:#FFFFFF"/>
				</radialGradient>
				<polygon style="fill:url(#SVGID_4_);" points="104.4,133.7 23.5,138.2 19.2,28.1 100.1,23.6 				"/>
			</g>
		</mask>
		<g style="mask:url(#mask-2);">
			<path style="fill:#F4C7A8;" d="M89,92.5c-4.6,19.2-20.9,41.3-37.8,32.7s-38.7-66-29.8-83.8s34.8-9.2,51.6-0.7S94.4,70.3,89,92.5z
				"/>
		</g>
		
			<radialGradient id="SVGID_5_" cx="45.11" cy="85.31" r="111.27" gradientTransform="matrix(1 0 0 -1 0 172)" gradientUnits="userSpaceOnUse">
			<stop  offset="0.43" style="stop-color:#FFFFFF"/>
			<stop  offset="0.83" style="stop-color:#D1D1D1"/>
		</radialGradient>
		<path style="fill:url(#SVGID_5_);" d="M115.4,41.9c14.2,0,52-0.9,69.8-4.2c-10.5,43.1-28.6,114.1-28.6,114.1L37,151.2
			c0,0-0.3-7-5.1-25.3c15.8,3.5,66.3,1,71.5-18.6C112.9,71.3,115.2,54.7,115.4,41.9z"/>
	</g>
</g>-->
<path style="opacity:0.5;fill:#33BCFF;enable-background:new    ;" d="M9,37L1.8,5.9c0,0-1.6-0.5,1.5-1.7c0,0,3.6-1.1,11.3-1.7
	c7.8-0.6,15.1-1,15.1-1l21.3-0.8l18.5-0.4l21-0.2l36.5,0.2c0,0,17.9,0.3,18.5,0.4c0.5,0,19.4,0.6,19.4,0.6L177.7,2l8,0.6
	c0,0,6.7,0.6,9.2,1.6c0,0,2,0.6,1,1.8l-7.3,30.7l0.1,0.4l-2.8,0.4l-25.5,111.8c0,0,3.6,0.4,5.9,1.6c0,0,0,0-0.6,0.7l-5.5,18.3
	L37,169.5L31.8,151c0,0-1.1-0.5,5.3-1.3L11.6,37.5L9,37z"/>
</svg>
