<svg id="Layer_1" data-name="Layer 1" xmlns="http://www.w3.org/2000/svg" xmlns:xlink="http://www.w3.org/1999/xlink" viewBox="0 0 48 82.84"><defs><style>.cls-1{fill:url(#linear-gradient);}.cls-2{fill:url(#linear-gradient-2);}.cls-3{fill:url(#linear-gradient-3);}.cls-4{fill:url(#linear-gradient-4);}.cls-5{fill:url(#Neutral_4);}.cls-6{fill:url(#linear-gradient-5);}.cls-7{opacity:0.59;}.cls-8{fill:url(#linear-gradient-6);}.cls-9{fill:url(#Neutral_4-2);}.cls-10{fill:url(#linear-gradient-7);}.cls-11{fill:url(#linear-gradient-8);}.cls-12{fill:url(#Neutral_4-3);}.cls-13{fill:url(#Neutral_4-4);}.cls-14{mask:url(#mask);}.cls-15{fill:#7f7f7f;}.cls-16{fill:#bbbcbe;opacity:0.27;}.cls-17{mask:url(#mask-2);}.cls-18,.cls-21,.cls-23,.cls-28,.cls-42,.cls-45{fill:#fff;}.cls-18{opacity:0.54;}.cls-19{fill:#595b5c;}.cls-20{mask:url(#mask-3);}.cls-22{fill:#6b6d6f;}.cls-23{opacity:0.51;}.cls-24{mask:url(#mask-4);}.cls-25{fill:#aaadb0;}.cls-26{mask:url(#mask-5);}.cls-27{fill:#7d7f81;}.cls-28{opacity:0.16;}.cls-29{fill:#797c7e;}.cls-29,.cls-45{opacity:0.71;}.cls-30{fill:#aeafb0;}.cls-31{fill:#e1e2e3;opacity:0.66;}.cls-32{mask:url(#mask-6);}.cls-33{mask:url(#mask-7);}.cls-34{fill:#a5a7aa;}.cls-35{fill:#b4b6b8;}.cls-36{mask:url(#mask-8);}.cls-37{fill:url(#linear-gradient-9);}.cls-38{mask:url(#mask-9);}.cls-39{fill:#d6d6d6;}.cls-40{mask:url(#mask-10);}.cls-41{mask:url(#mask-11);}.cls-42{opacity:0.32;}.cls-43{fill:#a16733;}.cls-44{mask:url(#mask-12);}.cls-46{fill:#ba773b;}.cls-47{fill:url(#linear-gradient-10);}.cls-48{fill:url(#linear-gradient-11);}.cls-49{fill:url(#linear-gradient-12);}.cls-50{fill:url(#linear-gradient-13);}.cls-51{fill:url(#linear-gradient-14);}.cls-52{fill:url(#linear-gradient-15);}.cls-53{fill:url(#linear-gradient-16);}.cls-54{fill:url(#linear-gradient-17);}.cls-55{fill:url(#linear-gradient-18);}.cls-56{fill:url(#linear-gradient-19);}.cls-57{fill:url(#linear-gradient-20);}.cls-58{fill:url(#linear-gradient-21);}.cls-59{fill:url(#linear-gradient-22);}.cls-60{fill:url(#linear-gradient-23);}.cls-61{fill:url(#linear-gradient-24);}.cls-62{fill:url(#linear-gradient-25);}.cls-63{fill:url(#linear-gradient-26);}.cls-64{fill:url(#radial-gradient);}.cls-65{fill:url(#radial-gradient-2);}.cls-66{fill:url(#linear-gradient-27);}.cls-67{fill:url(#linear-gradient-28);}.cls-68{fill:url(#linear-gradient-29);}.cls-69{fill:url(#linear-gradient-30);}.cls-70{fill:url(#linear-gradient-31);}.cls-71{fill:url(#linear-gradient-32);}.cls-72{fill:#231f20;}.cls-73{fill:url(#linear-gradient-33);}.cls-74{fill:url(#linear-gradient-34);}.cls-75{fill:url(#linear-gradient-35);}.cls-76{fill:url(#linear-gradient-36);}.cls-77{fill:url(#linear-gradient-37);}.cls-78{fill:url(#linear-gradient-38);}.cls-79{fill:url(#linear-gradient-39);}.cls-80{fill:url(#linear-gradient-40);}.cls-81{fill:url(#linear-gradient-41);}.cls-82{fill:url(#linear-gradient-42);}.cls-83{fill:url(#linear-gradient-43);}.cls-84{fill:url(#linear-gradient-44);}.cls-85{fill:url(#linear-gradient-45);}.cls-86{fill:url(#linear-gradient-46);}.cls-87{fill:url(#linear-gradient-47);}.cls-88{fill:url(#linear-gradient-48);}.cls-89{fill:url(#linear-gradient-49);}.cls-90{fill:url(#radial-gradient-3);}.cls-91{fill:url(#radial-gradient-4);}.cls-92{fill:url(#linear-gradient-50);}.cls-93{fill:url(#linear-gradient-51);}.cls-94{fill:url(#linear-gradient-52);}.cls-95{fill:url(#linear-gradient-53);}.cls-96{fill:url(#linear-gradient-54);}.cls-97{fill:url(#linear-gradient-55);}.cls-98{fill:#e55942;}</style><linearGradient id="linear-gradient" y1="41.87" x2="48" y2="41.87" gradientUnits="userSpaceOnUse"><stop offset="0.05" stop-color="#fff"/><stop offset="0.09" stop-color="#fafafa"/><stop offset="0.13" stop-color="#ececec"/><stop offset="0.18" stop-color="#d5d5d5"/><stop offset="0.22" stop-color="#b4b4b4"/><stop offset="0.27" stop-color="#8a8a8a"/><stop offset="0.32" stop-color="#575757"/><stop offset="0.46"/><stop offset="0.55"/><stop offset="0.61" stop-color="#232222"/><stop offset="0.69" stop-color="#4e4c4b"/><stop offset="0.93" stop-color="#fff"/></linearGradient><linearGradient id="linear-gradient-2" x1="20.07" y1="44.26" x2="45.45" y2="44.26" gradientUnits="userSpaceOnUse"><stop offset="0.03"/><stop offset="1" stop-color="#fff"/></linearGradient><linearGradient id="linear-gradient-3" x1="-735.53" y1="13.56" x2="-720.88" y2="13.56" gradientTransform="matrix(-1, 0, 0, 1, -714.07, 0)" gradientUnits="userSpaceOnUse"><stop offset="0.07"/><stop offset="0.88" stop-color="#fff"/><stop offset="0.99"/></linearGradient><linearGradient id="linear-gradient-4" x1="24.69" y1="11.01" x2="38.86" y2="11.01" gradientUnits="userSpaceOnUse"><stop offset="0.03"/><stop offset="0.89" stop-color="#fff"/><stop offset="1"/></linearGradient><linearGradient id="Neutral_4" x1="33.13" y1="45.26" x2="44.3" y2="45.26" gradientUnits="userSpaceOnUse"><stop offset="0.03" stop-color="#231f20"/><stop offset="1" stop-color="#fff"/></linearGradient><linearGradient id="linear-gradient-5" x1="38.76" y1="45.26" x2="42.11" y2="45.26" gradientUnits="userSpaceOnUse"><stop offset="0.03" stop-color="gray"/><stop offset="0.72" stop-color="#fff"/></linearGradient><linearGradient id="linear-gradient-6" x1="34.04" y1="61.66" x2="34.04" y2="66.38" gradientUnits="userSpaceOnUse"><stop offset="0.28"/><stop offset="0.39" stop-color="#030303"/><stop offset="0.49" stop-color="#0e0e0e"/><stop offset="0.57" stop-color="#1f1f1f"/><stop offset="0.66" stop-color="#373737"/><stop offset="0.73" stop-color="#575757"/><stop offset="0.81" stop-color="#7d7d7d"/><stop offset="0.89" stop-color="#ababab"/><stop offset="0.96" stop-color="#dfdfdf"/><stop offset="1" stop-color="#fff"/></linearGradient><linearGradient id="Neutral_4-2" x1="25.06" y1="19.01" x2="39.8" y2="19.01" xlink:href="#Neutral_4"/><linearGradient id="linear-gradient-7" x1="-742" y1="44.26" x2="-716.62" y2="44.26" gradientTransform="matrix(-1, 0, 0, 1, -714.07, 0)" xlink:href="#linear-gradient-2"/><linearGradient id="linear-gradient-8" x1="-728.04" y1="61.66" x2="-728.04" y2="66.38" gradientTransform="matrix(-1, 0, 0, 1, -714.07, 0)" xlink:href="#linear-gradient-6"/><linearGradient id="Neutral_4-3" x1="27.26" y1="67.33" x2="41.99" y2="67.33" xlink:href="#Neutral_4"/><linearGradient id="Neutral_4-4" x1="-207.94" y1="-48.31" x2="-201.09" y2="-48.31" gradientTransform="translate(-196.46 -3.05) rotate(180)" xlink:href="#Neutral_4"/><mask id="mask" x="0" y="17.36" width="48" height="49.03" maskUnits="userSpaceOnUse"><path class="cls-1" d="M42.05,22.37a37.86,37.86,0,0,1-.64-5H6.58a37.86,37.86,0,0,1-.64,5C4.88,23.92,0,24.39,0,28.29V64.65a2,2,0,0,0,2.12,1.74H45.88A2,2,0,0,0,48,64.65V28.29C48,24.39,43.12,23.92,42.05,22.37Z"/></mask><mask id="mask-2" x="20.07" y="22.12" width="25.38" height="44.26" maskUnits="userSpaceOnUse"><path class="cls-2" d="M39.51,22.37c-.28-.4-18.79-.14-18.79-.14l-.65,0v44.2H43.33a2,2,0,0,0,2.12-1.74V28.29C45.45,24.39,40.57,23.92,39.51,22.37Z"/></mask><mask id="mask-3" x="33.13" y="26.81" width="11.17" height="36.9" maskUnits="userSpaceOnUse"><path class="cls-5" d="M44.3,62a2,2,0,0,1-2.12,1.74H35.26A2,2,0,0,1,33.13,62V28.55a2,2,0,0,1,2.12-1.74h6.92a2,2,0,0,1,2.12,1.74Z"/></mask><mask id="mask-4" x="37.91" y="26.81" width="5.31" height="36.9" maskUnits="userSpaceOnUse"><path class="cls-6" d="M42.11,62c0,1-.29,1.74-.64,1.74H39.4c-.35,0-.64-.78-.64-1.74V28.55c0-1,.29-1.74.64-1.74h2.08c.35,0,.64.78.64,1.74Z"/></mask><mask id="mask-5" x="20.07" y="61.66" width="27.93" height="4.72" maskUnits="userSpaceOnUse"><g class="cls-7"><path class="cls-8" d="M47.95,62c0,1-1,3.47-2.34,3.47,0,0-12.34-1.13-25.54-1.13v2.07H45.66c1.29,0,2.34-.78,2.34-1.74v-3A2,2,0,0,0,47.95,62Z"/></g></mask><mask id="mask-6" x="25.06" y="18.69" width="14.74" height="0.64" maskUnits="userSpaceOnUse"><path class="cls-9" d="M39.8,19c0-.18-.2-.32-.45-.32H25.52c-.25,0-.45.14-.45.32s.2.32.45.32H39.34C39.59,19.32,39.8,19.18,39.8,19Z"/></mask><mask id="mask-7" x="2.55" y="22.12" width="25.38" height="44.26" maskUnits="userSpaceOnUse"><path class="cls-10" d="M8.49,22.37c.28-.4,18.79-.14,18.79-.14l.65,0v44.2H4.67a2,2,0,0,1-2.12-1.74V28.29C2.55,24.39,7.43,23.92,8.49,22.37Z"/></mask><mask id="mask-8" x="0" y="61.66" width="27.93" height="4.72" maskUnits="userSpaceOnUse"><g class="cls-7"><path class="cls-11" d="M.05,62c0,1,1,3.47,2.34,3.47,0,0,12.34-1.13,25.54-1.13v2.07H2.34C1,66.38,0,65.61,0,64.65v-3A2,2,0,0,1,.05,62Z"/></g></mask><linearGradient id="linear-gradient-9" x1="24" y1="66.38" x2="24" y2="66.79" gradientUnits="userSpaceOnUse"><stop offset="0" stop-color="#5e5e5e"/><stop offset="1" stop-color="#a5a7aa"/></linearGradient><mask id="mask-9" x="27.26" y="67.11" width="14.74" height="0.44" maskUnits="userSpaceOnUse"><path class="cls-12" d="M42,67.33c0-.12-.2-.22-.45-.22H27.71c-.25,0-.45.1-.45.22s.2.22.45.22H41.54C41.79,67.55,42,67.46,42,67.33Z"/></mask><mask id="mask-10" x="4.62" y="26.81" width="6.86" height="36.9" maskUnits="userSpaceOnUse"><path class="cls-13" d="M4.62,28.55c0-1,.58-1.74,1.3-1.74h4.25c.72,0,1.3.78,1.3,1.74V62c0,1-.58,1.74-1.3,1.74H5.92c-.72,0-1.3-.78-1.3-1.74Z"/></mask><mask id="mask-11" x="6.81" y="13.38" width="14.65" height="0.35" maskUnits="userSpaceOnUse"><path class="cls-3" d="M21.46,13.56a.2.2,0,0,1-.21.18H7a.2.2,0,0,1-.21-.18h0A.2.2,0,0,1,7,13.38H21.25a.2.2,0,0,1,.21.18Z"/></mask><mask id="mask-12" x="24.69" y="10.72" width="14.17" height="0.56" maskUnits="userSpaceOnUse"><path class="cls-4" d="M24.69,11c0,.16.09.28.21.28H38.65c.11,0,.21-.13.21-.28h0c0-.16-.09-.28-.21-.28H24.89c-.11,0-.21.13-.21.28Z"/></mask><linearGradient id="linear-gradient-10" x1="8.94" y1="28.42" x2="9.38" y2="30.55" gradientUnits="userSpaceOnUse"><stop offset="0" stop-color="#85c340"/><stop offset="0.02" stop-color="#8ac540"/><stop offset="0.17" stop-color="#a4ce43"/><stop offset="0.3" stop-color="#b4d344"/><stop offset="0.4" stop-color="#bad545"/><stop offset="1" stop-color="#436e1e"/></linearGradient><linearGradient id="linear-gradient-11" x1="8.54" y1="35.3" x2="10.43" y2="35.78" gradientUnits="userSpaceOnUse"><stop offset="0" stop-color="#436e1e"/><stop offset="0.6" stop-color="#bad545"/><stop offset="0.7" stop-color="#b4d344"/><stop offset="0.83" stop-color="#a4ce43"/><stop offset="0.98" stop-color="#8ac540"/><stop offset="1" stop-color="#85c340"/></linearGradient><linearGradient id="linear-gradient-12" x1="8.79" y1="35.87" x2="8.12" y2="38.84" gradientUnits="userSpaceOnUse"><stop offset="0" stop-color="#bad545"/><stop offset="0.23" stop-color="#d5b238"/><stop offset="0.47" stop-color="#ec932d"/><stop offset="0.61" stop-color="#f58829"/><stop offset="1" stop-color="#975410"/></linearGradient><linearGradient id="linear-gradient-13" x1="20.84" y1="31.65" x2="22.28" y2="31.65" gradientUnits="userSpaceOnUse"><stop offset="0" stop-color="#254a9d"/><stop offset="1" stop-color="#00bff2"/></linearGradient><linearGradient id="linear-gradient-14" x1="22.72" y1="32.33" x2="24.26" y2="32.33" xlink:href="#linear-gradient-13"/><linearGradient id="linear-gradient-15" x1="21.24" y1="31.96" x2="24.93" y2="31.58" xlink:href="#linear-gradient-11"/><linearGradient id="linear-gradient-16" x1="8.15" y1="33.66" x2="8.55" y2="32.25" xlink:href="#linear-gradient-11"/><linearGradient id="linear-gradient-17" x1="8.27" y1="33.12" x2="9.41" y2="29.08" xlink:href="#linear-gradient-11"/><linearGradient id="linear-gradient-18" x1="15.22" y1="37.11" x2="17.14" y2="30.35" xlink:href="#linear-gradient-11"/><linearGradient id="linear-gradient-19" x1="17.27" y1="37.51" x2="17.63" y2="34.23" xlink:href="#linear-gradient-13"/><linearGradient id="linear-gradient-20" x1="-9171.41" y1="36.92" x2="-9166.9" y2="36.92" gradientTransform="matrix(-1, 0, 0, 1, -9147.25, 0)" xlink:href="#linear-gradient-13"/><linearGradient id="linear-gradient-21" x1="20.98" y1="41.6" x2="18.54" y2="42.62" xlink:href="#linear-gradient-12"/><linearGradient id="linear-gradient-22" x1="20.78" y1="41.54" x2="18.75" y2="40.13" xlink:href="#linear-gradient-12"/><linearGradient id="linear-gradient-23" x1="20.02" y1="36.35" x2="22.15" y2="37.65" xlink:href="#linear-gradient-11"/><linearGradient id="linear-gradient-24" x1="23.93" y1="39.36" x2="25.21" y2="41.48" xlink:href="#linear-gradient-11"/><linearGradient id="linear-gradient-25" x1="23.22" y1="37.4" x2="23.99" y2="39.37" xlink:href="#linear-gradient-11"/><linearGradient id="linear-gradient-26" x1="-9157.8" y1="31" x2="-9154.46" y2="31" gradientTransform="matrix(-1, 0, 0, 1, -9147.25, 0)" xlink:href="#linear-gradient-10"/><radialGradient id="radial-gradient" cx="-9079.76" cy="42.75" r="1.74" gradientTransform="matrix(-0.99, 0, 0, 0.82, -9023.97, -4.49)" gradientUnits="userSpaceOnUse"><stop offset="0" stop-color="#3165af"/><stop offset="0.64" stop-color="#2b60ac"/><stop offset="1" stop-color="#255ba9"/></radialGradient><radialGradient id="radial-gradient-2" cx="-9079.72" cy="42.84" r="1.62" gradientTransform="matrix(-0.99, 0, 0, 0.82, -9023.97, -4.49)" gradientUnits="userSpaceOnUse"><stop offset="0" stop-color="#ee4323"/><stop offset="0.13" stop-color="#e84122"/><stop offset="0.3" stop-color="#d83a1e"/><stop offset="0.49" stop-color="#bc2f18"/><stop offset="0.7" stop-color="#96200f"/><stop offset="0.92" stop-color="#660c05"/><stop offset="1" stop-color="#520400"/></radialGradient><linearGradient id="linear-gradient-27" x1="16.77" y1="34.06" x2="16.22" y2="36.58" gradientUnits="userSpaceOnUse"><stop offset="0" stop-color="#fff229"/><stop offset="0.2" stop-color="#eae931"/><stop offset="0.51" stop-color="#d0de3c"/><stop offset="0.79" stop-color="#c0d743"/><stop offset="1" stop-color="#bad545"/></linearGradient><linearGradient id="linear-gradient-28" x1="-9170.11" y1="36.54" x2="-9165.6" y2="36.54" gradientTransform="matrix(-1, 0, 0, 1, -9147.25, 0)" xlink:href="#linear-gradient-13"/><linearGradient id="linear-gradient-29" x1="13.76" y1="41.36" x2="10.64" y2="43.47" xlink:href="#linear-gradient-12"/><linearGradient id="linear-gradient-30" x1="11.87" y1="36.19" x2="15.69" y2="35.11" xlink:href="#linear-gradient-11"/><linearGradient id="linear-gradient-31" x1="13.42" y1="39.13" x2="15.63" y2="40.06" xlink:href="#linear-gradient-11"/><linearGradient id="linear-gradient-32" x1="13.53" y1="36.65" x2="15.31" y2="34.92" xlink:href="#linear-gradient-13"/><linearGradient id="linear-gradient-33" x1="25.29" y1="45.13" x2="25.73" y2="47.26" xlink:href="#linear-gradient-10"/><linearGradient id="linear-gradient-34" x1="24.89" y1="52.01" x2="26.79" y2="52.49" xlink:href="#linear-gradient-11"/><linearGradient id="linear-gradient-35" x1="25.14" y1="52.57" x2="24.47" y2="55.55" xlink:href="#linear-gradient-12"/><linearGradient id="linear-gradient-36" x1="37.19" y1="48.36" x2="38.63" y2="48.36" xlink:href="#linear-gradient-13"/><linearGradient id="linear-gradient-37" x1="39.07" y1="49.04" x2="40.62" y2="49.04" xlink:href="#linear-gradient-13"/><linearGradient id="linear-gradient-38" x1="37.59" y1="48.67" x2="41.28" y2="48.29" xlink:href="#linear-gradient-11"/><linearGradient id="linear-gradient-39" x1="24.5" y1="50.37" x2="24.9" y2="48.95" xlink:href="#linear-gradient-11"/><linearGradient id="linear-gradient-40" x1="24.62" y1="49.83" x2="25.76" y2="45.79" xlink:href="#linear-gradient-11"/><linearGradient id="linear-gradient-41" x1="31.57" y1="53.82" x2="33.49" y2="47.06" xlink:href="#linear-gradient-11"/><linearGradient id="linear-gradient-42" x1="33.62" y1="54.22" x2="33.98" y2="50.94" xlink:href="#linear-gradient-13"/><linearGradient id="linear-gradient-43" x1="-9187.76" y1="53.63" x2="-9183.25" y2="53.63" gradientTransform="matrix(-1, 0, 0, 1, -9147.25, 0)" xlink:href="#linear-gradient-13"/><linearGradient id="linear-gradient-44" x1="37.34" y1="58.31" x2="34.89" y2="59.33" xlink:href="#linear-gradient-12"/><linearGradient id="linear-gradient-45" x1="37.13" y1="58.25" x2="35.11" y2="56.84" xlink:href="#linear-gradient-12"/><linearGradient id="linear-gradient-46" x1="36.37" y1="53.05" x2="38.5" y2="54.36" xlink:href="#linear-gradient-11"/><linearGradient id="linear-gradient-47" x1="40.28" y1="56.07" x2="41.56" y2="58.19" xlink:href="#linear-gradient-11"/><linearGradient id="linear-gradient-48" x1="39.57" y1="54.1" x2="40.34" y2="56.08" xlink:href="#linear-gradient-11"/><linearGradient id="linear-gradient-49" x1="-9174.15" y1="47.71" x2="-9170.81" y2="47.71" gradientTransform="matrix(-1, 0, 0, 1, -9147.25, 0)" xlink:href="#linear-gradient-10"/><radialGradient id="radial-gradient-3" cx="-9096.19" cy="63.04" r="1.74" xlink:href="#radial-gradient"/><radialGradient id="radial-gradient-4" cx="-9096.16" cy="63.13" r="1.62" xlink:href="#radial-gradient-2"/><linearGradient id="linear-gradient-50" x1="33.12" y1="50.77" x2="32.57" y2="53.29" xlink:href="#linear-gradient-27"/><linearGradient id="linear-gradient-51" x1="-9186.46" y1="53.25" x2="-9181.95" y2="53.25" gradientTransform="matrix(-1, 0, 0, 1, -9147.25, 0)" xlink:href="#linear-gradient-13"/><linearGradient id="linear-gradient-52" x1="30.12" y1="58.07" x2="27" y2="60.18" xlink:href="#linear-gradient-12"/><linearGradient id="linear-gradient-53" x1="28.22" y1="52.9" x2="32.04" y2="51.82" xlink:href="#linear-gradient-11"/><linearGradient id="linear-gradient-54" x1="29.78" y1="55.83" x2="31.98" y2="56.77" xlink:href="#linear-gradient-11"/><linearGradient id="linear-gradient-55" x1="29.88" y1="53.36" x2="31.66" y2="51.62" xlink:href="#linear-gradient-13"/></defs><title>active-jar Original file</title><g class="cls-14"><path class="cls-15" d="M42.05,22.37a37.86,37.86,0,0,1-.64-5H6.58a37.86,37.86,0,0,1-.64,5C4.88,23.92,0,24.39,0,28.29V64.65a2,2,0,0,0,2.12,1.74H45.88A2,2,0,0,0,48,64.65V28.29C48,24.39,43.12,23.92,42.05,22.37Z"/></g><path class="cls-16" d="M40.36,22.37a37.88,37.88,0,0,1-.64-5H8.28a37.86,37.86,0,0,1-.64,5c-1.07,1.55-5.95,2-5.95,5.92V64.65a2,2,0,0,0,2.12,1.74H44.18a2,2,0,0,0,2.12-1.74V28.29C46.3,24.39,41.42,23.92,40.36,22.37Z"/><g class="cls-17"><path class="cls-18" d="M39.51,22.37C39.23,22,24,22.18,24,22.18v44.2H43.33a2,2,0,0,0,2.12-1.74V28.29C45.45,24.39,40.57,23.92,39.51,22.37Z"/></g><path class="cls-19" d="M41.41,17.7h0l0-.35H24v.35Z"/><g class="cls-20"><path class="cls-21" d="M44.3,62a2,2,0,0,1-2.12,1.74H35.26A2,2,0,0,1,33.13,62V28.55a2,2,0,0,1,2.12-1.74h6.92a2,2,0,0,1,2.12,1.74Z"/></g><path class="cls-22" d="M24,20.65H41.74c0-.21-.06-.42-.08-.64H24Z"/><path class="cls-23" d="M39.51,22.37a5.93,5.93,0,0,1-.29-1.45H33.91a6,6,0,0,0,.29,1.45c1.07,1.55,5.95,2,5.95,5.92V64.65A2,2,0,0,1,38,66.38h5.31a2,2,0,0,0,2.12-1.74V28.29C45.45,24.39,40.57,23.92,39.51,22.37Z"/><g class="cls-24"><path class="cls-21" d="M43.22,62c0,1-.45,1.74-1,1.74H38.92c-.56,0-1-.78-1-1.74V28.55c0-1,.45-1.74,1-1.74h3.29c.56,0,1,.78,1,1.74Z"/></g><g class="cls-7"><path class="cls-25" d="M47.95,62c0,1-1,3.47-2.34,3.47A179,179,0,0,0,24,64.31v2.07H45.66c1.29,0,2.34-.78,2.34-1.74v-3A2,2,0,0,0,47.95,62Z"/></g><g class="cls-26"><path class="cls-27" d="M47.95,62c0,1-1,3.47-2.34,3.47A179,179,0,0,0,24,64.31v2.07H45.66c1.29,0,2.34-.78,2.34-1.74v-3A2,2,0,0,0,47.95,62Z"/></g><path class="cls-28" d="M38.14,65.44A125.18,125.18,0,0,0,24,64.83v1.12H38.18C39.09,65.95,39.06,65.44,38.14,65.44Z"/><path class="cls-29" d="M24,18.17H41.48l0-.46H24Z"/><path class="cls-27" d="M42.17,18.15H24V20H42.17a.94.94,0,0,0,0-1.86Z"/><path class="cls-30" d="M41.64,18.17H24v1.58H41.64a.79.79,0,1,0,0-1.58Z"/><path class="cls-31" d="M40.39,18.43H24v1.26H40.39a.63.63,0,1,0,0-1.26Z"/><g class="cls-32"><path class="cls-21" d="M39.8,19c0-.18-.2-.32-.45-.32H25.52c-.25,0-.45.14-.45.32s.2.32.45.32H39.34C39.59,19.32,39.8,19.18,39.8,19Z"/></g><g class="cls-33"><path class="cls-18" d="M8.49,22.37C8.77,22,24,22.18,24,22.18v44.2H4.67a2,2,0,0,1-2.12-1.74V28.29C2.55,24.39,7.43,23.92,8.49,22.37Z"/></g><path class="cls-19" d="M6.59,17.7h0l0-.35H24v.35Z"/><path class="cls-34" d="M2.52,66.38c.18,1.24.63,2.11,1.15,2.11H44.33c.52,0,1-.88,1.15-2.11Z"/><path class="cls-35" d="M3.32,67a1.2,1.2,0,0,0,1.12.8H43.57a1.2,1.2,0,0,0,1.12-.8Z"/><path class="cls-22" d="M24,20.65H6.26c0-.21.06-.42.08-.64H24Z"/><g class="cls-7"><path class="cls-25" d="M.05,62c0,1,1,3.47,2.34,3.47A179,179,0,0,1,24,64.31v2.07H2.34C1,66.38,0,65.61,0,64.65v-3A2,2,0,0,1,.05,62Z"/></g><g class="cls-36"><path class="cls-27" d="M.05,62c0,1,1,3.47,2.34,3.47A179,179,0,0,1,24,64.31v2.07H2.34C1,66.38,0,65.61,0,64.65v-3A2,2,0,0,1,.05,62Z"/></g><path class="cls-28" d="M9.86,65.44A125.18,125.18,0,0,1,24,64.83v1.12H9.82C8.91,65.95,8.94,65.44,9.86,65.44Z"/><path class="cls-29" d="M24,18.17H6.52l0-.46H24Z"/><path class="cls-37" d="M2.52,66.38a2.4,2.4,0,0,0,.14.41H45.34a2.39,2.39,0,0,0,.14-.41Z"/><path class="cls-27" d="M5.83,18.15H24V20H5.83a.94.94,0,0,1,0-1.86Z"/><path class="cls-30" d="M6.36,18.17H24v1.58H6.36a.79.79,0,1,1,0-1.58Z"/><path class="cls-31" d="M7.61,18.43H24v1.26H7.61a.63.63,0,1,1,0-1.26Z"/><g class="cls-38"><path class="cls-39" d="M42,67.33c0-.12-.2-.22-.35-.22H27.82c-.36,0-.56.1-.56.22s.2.22.45.22H41.54C41.79,67.55,42,67.46,42,67.33Z"/></g><g class="cls-40"><path class="cls-21" d="M4.62,28.55c0-1,.58-1.74,1.3-1.74h4.25c.72,0,1.3.78,1.3,1.74V62c0,1-.58,1.74-1.3,1.74H5.92c-.72,0-1.3-.78-1.3-1.74Z"/></g><path class="cls-23" d="M20.89,22.56H11.71a4.94,4.94,0,0,0-1.44.91,5.72,5.72,0,0,0-1.22,1.25H20.76A19.84,19.84,0,0,1,20.89,22.56Z"/><path class="cls-19" d="M41.31,17.78h0l0-.35H23.9v.35Z"/><path class="cls-29" d="M23.9,18.25H41.38l0-.47H23.9Z"/><path class="cls-19" d="M6.49,17.78h0l0-.35H23.9v.35Z"/><path class="cls-29" d="M23.9,18.25H6.42l0-.47H23.9Z"/><g class="cls-41"><path class="cls-42" d="M21.46,13.56a.2.2,0,0,1-.21.18H7a.2.2,0,0,1-.21-.18h0A.2.2,0,0,1,7,13.38H21.25a.2.2,0,0,1,.21.18Z"/></g><path class="cls-43" d="M42.46,12.06H23.9v7H42.46a2.58,2.58,0,0,0,2.25-2.81v-1.4A2.58,2.58,0,0,0,42.46,12.06Z"/><path class="cls-43" d="M41.34,12.41H23.9v6.32H41.34a2.36,2.36,0,0,0,2.14-2.53V14.94A2.36,2.36,0,0,0,41.34,12.41Z"/><g class="cls-44"><path class="cls-45" d="M24.69,11c0,.16.09.28.21.28H38.65c.11,0,.21-.13.21-.28h0c0-.16-.09-.28-.21-.28H24.89c-.11,0-.21.13-.21.28Z"/></g><path class="cls-43" d="M5.34,12.06H23.9v7H5.34a2.58,2.58,0,0,1-2.25-2.81v-1.4A2.58,2.58,0,0,1,5.34,12.06Z"/><path class="cls-43" d="M6.46,12.41H23.9v6.32H6.46A2.36,2.36,0,0,1,4.33,16.2V14.94A2.36,2.36,0,0,1,6.46,12.41Z"/><path class="cls-46" d="M39.07,10.49H8.73c-1.08,0-1.95,1.53-1.95,3.41v1.71c0,1.88.87,3.41,1.95,3.41H39.07C40.14,19,41,17.49,41,15.61V13.91C41,12,40.14,10.49,39.07,10.49Z"/><path class="cls-47" d="M7.67,30.2a1.83,1.83,0,0,0,2.22.68A1.3,1.3,0,0,0,10.7,29a1.83,1.83,0,0,0-2.22-.68A1.3,1.3,0,0,0,7.67,30.2Z"/><path class="cls-48" d="M9.29,36.08a1.13,1.13,0,0,1,.87.21,1,1,0,0,1,.14-.34,2.6,2.6,0,0,0,.13-.37c.06-.17.12-.34.18-.51v0l-1.21-.7,0,.07c-.14.4-.28.8-.43,1.2a2,2,0,0,1-.26.49,1.15,1.15,0,0,1-.32.26l-.11.07C8.67,36.53,9,36.24,9.29,36.08Z"/><path class="cls-49" d="M11.93,37a.59.59,0,0,0-.72-.19.61.61,0,0,0-.16.09c-.34-.08-.73-.12-.87-.39a.32.32,0,0,1,0-.18,1.13,1.13,0,0,0-.87-.21c-.31.15-.62.45-1,.34-.47.28-1.1.39-1.58.66a3.53,3.53,0,0,0-.85.65c-.15.17-.41.37-.47.58a.78.78,0,0,0-.34,0c-.31.12-.45.4-.32.62a.64.64,0,0,0,.78.2c.3-.11.44-.38.33-.61A3.93,3.93,0,0,0,6.28,38a3.5,3.5,0,0,1,.91-.8c.12-.07.82-.4.82,0,0,.1-.17.23-.23.32A4,4,0,0,0,7.5,38a2.51,2.51,0,0,0-.3,1L7,39a.48.48,0,0,0-.31.68.68.68,0,0,0,.83.25.48.48,0,0,0,.31-.68.51.51,0,0,0-.08-.11,3.07,3.07,0,0,0,.32-1,2.24,2.24,0,0,1,.35-.7c.12-.19.19-.34.44-.43a1.54,1.54,0,0,1,.21.87,2.5,2.5,0,0,0,.07.5c-.24.15-.35.38-.24.57a.69.69,0,0,0,.84.17c.34-.13.51-.41.39-.64a.55.55,0,0,0-.49-.23c0-.06,0-.12,0-.19,0-.26-.16-.89.11-1.07s.32,0,.46,0a5.73,5.73,0,0,0,.57.18l.1,0a.35.35,0,0,0,0,.14.59.59,0,0,0,.72.19A.42.42,0,0,0,11.93,37Z"/><path class="cls-50" d="M20.84,31.54s.71.28,1.44.63a9.29,9.29,0,0,1-.63-1A3.17,3.17,0,0,0,20.84,31.54Z"/><path class="cls-51" d="M24.26,33.42a3.86,3.86,0,0,0-1.55-2.18,5.93,5.93,0,0,1,.37,1.36l.4.25Z"/><path class="cls-52" d="M22.38,31.09a1.2,1.2,0,0,0-.73,0,9.29,9.29,0,0,0,.63,1c.28.13.56.28.81.42a5.93,5.93,0,0,0-.37-1.36A2.08,2.08,0,0,0,22.38,31.09Z"/><path class="cls-53" d="M7.51,33.44a4.1,4.1,0,0,1,.56.23h0c1.18-.23,2.36.06,3.54-.34l.38-.1a20.56,20.56,0,0,1-7.22-1A9.49,9.49,0,0,0,7.51,33.44Z"/><path class="cls-54" d="M12.42,32.92c.12-1.27-.84-2.4-1.68-3.48a16.06,16.06,0,0,0-1.87.25,11.76,11.76,0,0,0-2.44.37c-1.38.36-2,1.36-1.76,1.94a.65.65,0,0,0,.14.18,20.56,20.56,0,0,0,7.22,1C12.24,33.16,12.42,33.06,12.42,32.92Z"/><path class="cls-55" d="M24.23,34a.74.74,0,0,0,0-.55h0l-.78-.57a31.91,31.91,0,0,0-3.82-1.8,9.09,9.09,0,0,0-2.95-.49,5,5,0,0,1-3.37-.79,4.94,4.94,0,0,0-2.62-.33c.85,1.08,1.8,2.21,1.68,3.48,0,.23-.49.34-.76.4-1.18.4-2.36.11-3.54.34h0c.36.17.85.4,1.34.66l1.21.7a3.27,3.27,0,0,1,.42.32,14,14,0,0,0,1.82,1.26,13.55,13.55,0,0,1-1.33-2.31,4.12,4.12,0,0,1,.7,0c-.12-.13,0-.24-.1-.4a39.28,39.28,0,0,1,10.81,1.8l.33-.22A2.34,2.34,0,0,0,24.23,34Z"/><path class="cls-56" d="M12.23,34.33c1.89.24,3.08,1.78,4.2,3v-.11c.34.38,2.9-.12,3.16-.17a10.58,10.58,0,0,0,3.33-1.34,38.75,38.75,0,0,0-10.73-1.8C12.27,34.09,12.11,34.2,12.23,34.33Z"/><path class="cls-57" d="M24.16,35.25c-.18-.43-.4-.72-.83-.34a14,14,0,0,0-3.68,4.21c.75-.45,1.62-.7,2.41-1.13l-.29.12S23.92,36.32,24.16,35.25Z"/><path class="cls-58" d="M19.36,41.07a7.86,7.86,0,0,0-1.17.17.84.84,0,0,0-.76-.23c-.41.05-.69.31-.64.57s.42.43.83.38a.74.74,0,0,0,.63-.41c.4.07,1,.12,1.34.22.48.15.85.4.57.83a.93.93,0,0,0-.12.28h0c-.39.05-.65.34-.59.65a.69.69,0,0,0,.8.46c.39-.05.65-.34.59-.65a.47.47,0,0,0-.08-.19l.18-.2a2.81,2.81,0,0,0-1.33-1.5C19.58,41.38,19.43,41.23,19.36,41.07Z"/><path class="cls-59" d="M19.34,40.85c.31-.26.69-.17,1-.15-.13-.07-.32-.16-.51-.24a10,10,0,0,1-1.11-.55.42.42,0,0,0-.35.45.53.53,0,0,0,.61.33h0a1.15,1.15,0,0,0,.27.33A.27.27,0,0,1,19.34,40.85Z"/><path class="cls-60" d="M19.68,39.06a14.08,14.08,0,0,1,3.65-4.15c.44-.37.65-.09.83.34a.7.7,0,0,0,0-.31,1.16,1.16,0,0,0-1.31-.85c-1.32,1.65-3.51,3.13-4.51,4.9a.66.66,0,0,0,.15.7l.27.22.31.17A1.34,1.34,0,0,1,19.68,39.06Z"/><path class="cls-61" d="M23,40.88c-.63-.06-2.36-.08-2.36-.08l-.2-.11c-.36,0-.74-.11-1,.15a.27.27,0,0,0,0,.17l.07.06h0c.07.16.21.31.23.38A2.81,2.81,0,0,1,20.92,43c.35-.4.69-.92,1-1a3.84,3.84,0,0,0,3-1c1.32-1.24,3.64-2.73,3.51-3.39a4.82,4.82,0,0,0-1.71.6C26.47,38.45,23.56,40.94,23,40.88Z"/><path class="cls-62" d="M25.88,36.62C24.57,37,22.76,37.7,22.06,38s-1.66.68-2.41,1.13l0-.05a1.34,1.34,0,0,0-.6,1,6,6,0,0,0,.81.38,3.39,3.39,0,0,0,1.9-.25c1.32-.48,5-2,5-2l0,0a4.82,4.82,0,0,1,1.71-.6v0C28.25,36.92,27.55,36.15,25.88,36.62Z"/><path class="cls-63" d="M7.36,31.58a1.83,1.83,0,0,0,2.22.68,1.3,1.3,0,0,0,.82-1.84,1.83,1.83,0,0,0-2.22-.68A1.3,1.3,0,0,0,7.36,31.58Z"/><path class="cls-64" d="M7.44,31.6a1.66,1.66,0,0,0,2,.62,1.18,1.18,0,0,0,.74-1.67,1.66,1.66,0,0,0-2-.62A1.18,1.18,0,0,0,7.44,31.6Z"/><path class="cls-65" d="M7.48,31.62a1.55,1.55,0,0,0,1.88.57A1.1,1.1,0,0,0,10,30.64a1.55,1.55,0,0,0-1.88-.57A1.1,1.1,0,0,0,7.48,31.62Z"/><path class="cls-66" d="M21,35.15a12.68,12.68,0,0,1-1.29-.27c-.27-.07-.54-.12-.8-.21s-.26-.05-.4-.08-.29-.09-.44-.12c-.4-.08-.78-.14-1.18-.2l-.75-.1c-.25,0-.46-.13-.7-.19a3.74,3.74,0,0,0-.9-.1c-.22,0-.42.06-.65,0s-.31-.08-.47-.1a7.49,7.49,0,0,0-.89,0,1.22,1.22,0,0,0-.64.17c-.13.08-.19.15-.13.27a.37.37,0,0,0,.25.19c.13,0,.18,0,.21,0s-.1-.27,0-.27a2.15,2.15,0,0,1,.86-.06h0a.61.61,0,0,1,.19.07c.05,0,.06.08.08.13s.08.22.13.32.18.32.3.28,0-.34,0-.41-.08-.26.16-.26.42,0,.51.25.08.48.15.72a2.39,2.39,0,0,0,.22.56c.06.1.22.33.4.31s0-.24,0-.3a4.43,4.43,0,0,1-.2-.47,1.5,1.5,0,0,1,0-.5.5.5,0,0,1,.24-.49.63.63,0,0,1,.83.21,1.61,1.61,0,0,1,.1,1.23,1.39,1.39,0,0,0,0,1,.32.32,0,0,0,.33.14c.13,0,.12-.08.13-.19,0-.31,0-.63,0-.94a2.72,2.72,0,0,1,.2-.85c.09-.2.23-.4.51-.3.49.18.45.71.42,1.08,0,.15-.3,1.3,0,1.32s.28-.21.32-.3.19-.35.27-.52.23-.66.39-1c.07-.13.22-.25.36-.11a.58.58,0,0,1,.14.38c0,.24,0,.48,0,.72s0,.33.1.41.18-.05.24-.13a4.85,4.85,0,0,0,.29-.45,3.2,3.2,0,0,1,.13-.32c.21-.31.7-.17,1-.16.12,0,.31,0,.34-.13S21.14,35.17,21,35.15Z"/><path class="cls-67" d="M22.86,34.09a1.62,1.62,0,0,0-1,.44S18.71,37.46,18.35,39C19.35,37.22,21.54,35.74,22.86,34.09Z"/><path class="cls-68" d="M12.62,41.77c-.24-.15.09-.51.14-.87L12.6,41A8.33,8.33,0,0,0,12,40.3a.32.32,0,0,0,0-.35.53.53,0,0,0-.64-.18.37.37,0,0,0-.25.52.51.51,0,0,0,.53.21,8.13,8.13,0,0,0,.69.94,7.31,7.31,0,0,0-2.46-.08l-.12.06a.72.72,0,0,0-.5,0A.44.44,0,0,0,9,42a.62.62,0,0,0,.76.2.48.48,0,0,0,.35-.47c.67-.37,2.19.21,2.19.21a2.59,2.59,0,0,0-2.05,1.5v0a.54.54,0,0,0-.18,0,.36.36,0,0,0-.22.51.51.51,0,0,0,.62.19.36.36,0,0,0,.22-.51.39.39,0,0,0-.09-.11,2.21,2.21,0,0,1,.4-.7c.47-.66,1.82-.54,1.82-.54a4.1,4.1,0,0,0,0,1.39.94.94,0,0,0,.12.26.38.38,0,0,0-.12.49.61.61,0,0,0,.74.19c.29-.11.42-.37.3-.59a.59.59,0,0,0-.67-.22h0c-.41-.73.18-1.84.18-1.84l.34-.27A1.85,1.85,0,0,1,12.62,41.77Z"/><path class="cls-69" d="M15.61,37.07l-.14-.12c-1.2-.94-2.76-1.51-3.65-2.65h-.3a13.55,13.55,0,0,0,1.33,2.31c.68.42,1.28.76,1.28.76l0,.19A2.32,2.32,0,0,1,15.61,37.07Z"/><path class="cls-70" d="M14.09,37.55c-.15.63-.64,2.65-.69,2.83s-.42.39-.64.52c0,.36-.38.72-.14.87a1.85,1.85,0,0,0,1,0c.35-.28.93-.77,1.57-1.36a4.74,4.74,0,0,0,1.11-2.47,3.86,3.86,0,0,0-.73-.87A2.32,2.32,0,0,0,14.09,37.55Z"/><path class="cls-71" d="M11.82,34.3c.89,1.14,2.45,1.7,3.65,2.65a4,4,0,0,1,.87,1c0-.26.08-.47.09-.59C15.23,36,13.95,34.35,11.82,34.3Z"/><path class="cls-72" d="M8.36,31.75l.34-1.48A1.92,1.92,0,0,0,8.36,31.75Z"/><ellipse class="cls-21" cx="9.18" cy="30.63" rx="0.16" ry="0.13"/><path class="cls-21" d="M10.62,29.82h.55l.63.05a6.88,6.88,0,0,1,.81.14,3.58,3.58,0,0,1,.91.33l.11.06.1.06.1,0,.11,0a2.86,2.86,0,0,0,.5.12,11.26,11.26,0,0,0,1.14.09c.39,0,.8,0,1.2.08a8.11,8.11,0,0,1,1.19.21,5.21,5.21,0,0,1,.56.18l.52.2,1,.38.88.34.39.15.35.15.56.24.36.16.13.06-.13,0-.38-.13-.58-.2-.36-.12-.4-.14L20,32l-1-.35-.53-.19-.54-.16a7.88,7.88,0,0,0-1.15-.19c-.39,0-.79-.06-1.18-.09a10.07,10.07,0,0,1-1.17-.11,2.85,2.85,0,0,1-.55-.15l-.13-.06-.12-.07-.11-.07-.1-.06a3.59,3.59,0,0,0-.84-.35,8,8,0,0,0-.78-.18l-.62-.09-.4,0Z"/><path class="cls-73" d="M24,46.91a1.83,1.83,0,0,0,2.22.68,1.3,1.3,0,0,0,.82-1.84,1.83,1.83,0,0,0-2.22-.68A1.3,1.3,0,0,0,24,46.91Z"/><path class="cls-74" d="M25.64,52.79a1.13,1.13,0,0,1,.87.21,1,1,0,0,1,.14-.34,2.6,2.6,0,0,0,.13-.37c.06-.17.12-.34.18-.51v0L25.76,51l0,.07c-.14.4-.28.8-.43,1.2a2,2,0,0,1-.26.49,1.15,1.15,0,0,1-.32.26l-.11.07C25,53.24,25.33,52.95,25.64,52.79Z"/><path class="cls-75" d="M28.28,53.68a.59.59,0,0,0-.72-.19.61.61,0,0,0-.16.09c-.34-.08-.73-.12-.87-.39a.32.32,0,0,1,0-.18,1.13,1.13,0,0,0-.87-.21c-.31.15-.62.45-1,.34-.47.28-1.1.39-1.58.66a3.53,3.53,0,0,0-.85.65c-.15.17-.41.37-.47.58a.78.78,0,0,0-.34,0c-.31.12-.45.4-.32.62a.64.64,0,0,0,.78.2c.3-.11.44-.38.33-.61a3.93,3.93,0,0,0,.47-.54,3.5,3.5,0,0,1,.91-.8c.12-.07.82-.4.82,0,0,.1-.17.23-.23.32a4,4,0,0,0-.29.47,2.51,2.51,0,0,0-.3,1l-.16,0a.48.48,0,0,0-.31.68.68.68,0,0,0,.83.25.48.48,0,0,0,.31-.68.51.51,0,0,0-.08-.11,3.07,3.07,0,0,0,.32-1,2.24,2.24,0,0,1,.35-.7c.12-.19.19-.34.44-.43a1.54,1.54,0,0,1,.21.87,2.5,2.5,0,0,0,.07.5c-.24.15-.35.38-.24.57a.69.69,0,0,0,.84.17c.34-.13.51-.41.39-.64a.55.55,0,0,0-.49-.23c0-.06,0-.12,0-.19,0-.26-.16-.89.11-1.07s.32,0,.46,0a5.73,5.73,0,0,0,.57.18l.1,0a.35.35,0,0,0,0,.14.59.59,0,0,0,.72.19A.42.42,0,0,0,28.28,53.68Z"/><path class="cls-76" d="M37.19,48.25s.71.28,1.44.63a9.29,9.29,0,0,1-.63-1A3.17,3.17,0,0,0,37.19,48.25Z"/><path class="cls-77" d="M40.62,50.12a3.86,3.86,0,0,0-1.55-2.18,5.93,5.93,0,0,1,.37,1.36l.4.25Z"/><path class="cls-78" d="M38.73,47.8a1.2,1.2,0,0,0-.73,0,9.29,9.29,0,0,0,.63,1c.28.13.56.28.81.42a5.93,5.93,0,0,0-.37-1.36A2.08,2.08,0,0,0,38.73,47.8Z"/><path class="cls-79" d="M23.86,50.15a4.1,4.1,0,0,1,.56.23h0c1.18-.23,2.36.06,3.54-.34l.38-.1a20.56,20.56,0,0,1-7.22-1A9.49,9.49,0,0,0,23.86,50.15Z"/><path class="cls-80" d="M28.77,49.63c.12-1.27-.84-2.4-1.68-3.48a16.06,16.06,0,0,0-1.87.25,11.76,11.76,0,0,0-2.44.37c-1.38.36-2,1.36-1.76,1.94a.65.65,0,0,0,.14.18,20.56,20.56,0,0,0,7.22,1C28.59,49.87,28.77,49.77,28.77,49.63Z"/><path class="cls-81" d="M40.58,50.67a.74.74,0,0,0,0-.55h0l-.78-.57A31.91,31.91,0,0,0,36,47.76a9.09,9.09,0,0,0-2.95-.49,5,5,0,0,1-3.37-.79,4.94,4.94,0,0,0-2.62-.33c.85,1.08,1.8,2.21,1.68,3.48,0,.23-.49.34-.76.4-1.18.4-2.36.11-3.54.34h0c.36.17.85.4,1.34.66l1.21.7a3.27,3.27,0,0,1,.42.32,14,14,0,0,0,1.82,1.26A13.55,13.55,0,0,1,27.88,51a4.12,4.12,0,0,1,.7,0c-.12-.13,0-.24-.1-.4a39.28,39.28,0,0,1,10.81,1.8l.33-.22A2.34,2.34,0,0,0,40.58,50.67Z"/><path class="cls-82" d="M28.58,51c1.89.24,3.08,1.78,4.2,3v-.11c.34.38,2.9-.12,3.16-.17a10.58,10.58,0,0,0,3.33-1.34,38.75,38.75,0,0,0-10.73-1.8C28.62,50.8,28.46,50.91,28.58,51Z"/><path class="cls-83" d="M40.51,52c-.18-.43-.4-.72-.83-.34A14,14,0,0,0,36,55.82c.75-.45,1.62-.7,2.41-1.13l-.29.12S40.28,53,40.51,52Z"/><path class="cls-84" d="M35.71,57.78a7.86,7.86,0,0,0-1.17.17.84.84,0,0,0-.76-.23c-.41.05-.69.31-.64.57s.42.43.83.38a.74.74,0,0,0,.63-.41c.4.07,1,.12,1.34.22.48.15.85.4.57.83a.93.93,0,0,0-.12.28h0c-.39.05-.65.34-.59.65a.69.69,0,0,0,.8.46c.39-.05.65-.34.59-.65a.47.47,0,0,0-.08-.19l.18-.2a2.81,2.81,0,0,0-1.33-1.5C35.93,58.09,35.78,57.94,35.71,57.78Z"/><path class="cls-85" d="M35.7,57.56c.31-.26.69-.17,1-.15-.13-.07-.32-.16-.51-.24a10,10,0,0,1-1.11-.55.42.42,0,0,0-.35.45.53.53,0,0,0,.61.33h0a1.15,1.15,0,0,0,.27.33A.27.27,0,0,1,35.7,57.56Z"/><path class="cls-86" d="M36,55.77a14.08,14.08,0,0,1,3.65-4.15c.44-.37.65-.09.83.34a.7.7,0,0,0,0-.31,1.16,1.16,0,0,0-1.31-.85c-1.32,1.65-3.51,3.13-4.51,4.9a.66.66,0,0,0,.15.7l.27.22.31.17A1.34,1.34,0,0,1,36,55.77Z"/><path class="cls-87" d="M39.31,57.59c-.63-.06-2.36-.08-2.36-.08l-.2-.11c-.36,0-.74-.11-1,.15a.27.27,0,0,0,0,.17l.07.06h0c.07.16.21.31.23.38a2.81,2.81,0,0,1,1.33,1.5c.35-.4.69-.92,1-1a3.84,3.84,0,0,0,3-1c1.32-1.24,3.64-2.73,3.51-3.39a4.82,4.82,0,0,0-1.71.6C42.82,55.16,39.91,57.65,39.31,57.59Z"/><path class="cls-88" d="M42.23,53.33c-1.32.37-3.13,1.08-3.83,1.37s-1.66.68-2.41,1.13l0-.05a1.34,1.34,0,0,0-.6,1,6,6,0,0,0,.81.38,3.39,3.39,0,0,0,1.9-.25c1.32-.48,5-2,5-2l0,0a4.82,4.82,0,0,1,1.71-.6v0C44.6,53.63,43.9,52.86,42.23,53.33Z"/><path class="cls-89" d="M23.71,48.29a1.83,1.83,0,0,0,2.22.68,1.3,1.3,0,0,0,.82-1.84,1.83,1.83,0,0,0-2.22-.68A1.3,1.3,0,0,0,23.71,48.29Z"/><path class="cls-90" d="M23.79,48.31a1.66,1.66,0,0,0,2,.62,1.18,1.18,0,0,0,.74-1.67,1.66,1.66,0,0,0-2-.62A1.18,1.18,0,0,0,23.79,48.31Z"/><path class="cls-91" d="M23.83,48.33a1.55,1.55,0,0,0,1.88.57,1.1,1.1,0,0,0,.69-1.56,1.55,1.55,0,0,0-1.88-.57A1.1,1.1,0,0,0,23.83,48.33Z"/><path class="cls-92" d="M37.37,51.86a12.68,12.68,0,0,1-1.29-.27c-.27-.07-.54-.12-.8-.21s-.26-.05-.4-.08-.29-.09-.44-.12c-.4-.08-.78-.14-1.18-.2l-.75-.1c-.25,0-.46-.13-.7-.19a3.74,3.74,0,0,0-.9-.1c-.22,0-.42.06-.65,0s-.31-.08-.47-.1a7.49,7.49,0,0,0-.89,0,1.22,1.22,0,0,0-.64.17c-.13.08-.19.15-.13.27a.37.37,0,0,0,.25.19c.13,0,.18,0,.21,0s-.1-.27,0-.27a2.15,2.15,0,0,1,.86-.06h0a.61.61,0,0,1,.19.07c.05,0,.06.08.08.13s.08.22.13.32.18.32.3.28,0-.34,0-.41-.08-.26.16-.26.42,0,.51.25.08.48.15.72a2.39,2.39,0,0,0,.22.56c.06.1.22.33.4.31s0-.24,0-.3a4.43,4.43,0,0,1-.2-.47,1.5,1.5,0,0,1,0-.5.5.5,0,0,1,.24-.49.63.63,0,0,1,.83.21,1.61,1.61,0,0,1,.1,1.23,1.39,1.39,0,0,0,0,1,.32.32,0,0,0,.33.14c.13,0,.12-.08.13-.19,0-.31,0-.63,0-.94a2.72,2.72,0,0,1,.2-.85c.09-.2.23-.4.51-.3.49.18.45.71.42,1.08,0,.15-.3,1.3,0,1.32s.28-.21.32-.3.19-.35.27-.52.23-.66.39-1c.07-.13.22-.25.36-.11a.58.58,0,0,1,.14.38c0,.24,0,.48,0,.72s0,.33.1.41.18-.05.24-.13a4.85,4.85,0,0,0,.29-.45,3.2,3.2,0,0,1,.13-.32c.21-.31.7-.17,1-.16.12,0,.31,0,.34-.13S37.49,51.88,37.37,51.86Z"/><path class="cls-93" d="M39.21,50.8a1.62,1.62,0,0,0-1,.44s-3.16,2.93-3.51,4.46C35.7,53.92,37.89,52.45,39.21,50.8Z"/><path class="cls-94" d="M29,58.48c-.24-.15.09-.51.14-.87L29,57.7a8.33,8.33,0,0,0-.57-.69.32.32,0,0,0,0-.35.53.53,0,0,0-.64-.18.37.37,0,0,0-.25.52.51.51,0,0,0,.53.21,8.13,8.13,0,0,0,.69.94,7.31,7.31,0,0,0-2.46-.08l-.12.06a.72.72,0,0,0-.5,0,.44.44,0,0,0-.31.61.62.62,0,0,0,.76.2.48.48,0,0,0,.35-.47c.67-.37,2.19.21,2.19.21a2.59,2.59,0,0,0-2.05,1.5v0a.54.54,0,0,0-.18,0,.36.36,0,0,0-.22.51.51.51,0,0,0,.62.19.36.36,0,0,0,.22-.51.39.39,0,0,0-.09-.11,2.21,2.21,0,0,1,.4-.7c.47-.66,1.82-.54,1.82-.54a4.1,4.1,0,0,0,0,1.39.94.94,0,0,0,.12.26.38.38,0,0,0-.12.49.61.61,0,0,0,.74.19c.29-.11.42-.37.3-.59a.59.59,0,0,0-.67-.22h0c-.41-.73.18-1.84.18-1.84l.34-.27A1.85,1.85,0,0,1,29,58.48Z"/><path class="cls-95" d="M32,53.78l-.14-.12c-1.2-.94-2.76-1.51-3.65-2.65h-.3a13.55,13.55,0,0,0,1.33,2.31c.68.42,1.28.76,1.28.76l0,.19A2.32,2.32,0,0,1,32,53.78Z"/><path class="cls-96" d="M30.44,54.26c-.15.63-.64,2.65-.69,2.83s-.42.39-.64.52c0,.36-.38.72-.14.87a1.85,1.85,0,0,0,1,0c.35-.28.93-.77,1.57-1.36a4.74,4.74,0,0,0,1.11-2.47,3.86,3.86,0,0,0-.73-.87A2.32,2.32,0,0,0,30.44,54.26Z"/><path class="cls-97" d="M28.17,51c.89,1.14,2.45,1.7,3.65,2.65a4,4,0,0,1,.87,1c0-.26.08-.47.09-.59C31.58,52.73,30.3,51.06,28.17,51Z"/><path class="cls-72" d="M24.72,48.46,25.06,47A1.92,1.92,0,0,0,24.72,48.46Z"/><ellipse class="cls-21" cx="25.53" cy="47.34" rx="0.16" ry="0.13"/><path class="cls-21" d="M27,46.53h.55l.63.05a6.88,6.88,0,0,1,.81.14,3.58,3.58,0,0,1,.91.33l.11.06.1.06.1,0,.11,0a2.86,2.86,0,0,0,.5.12A11.26,11.26,0,0,0,32,47.5c.39,0,.8,0,1.2.08a8.11,8.11,0,0,1,1.19.21,5.21,5.21,0,0,1,.56.18l.52.2,1,.38.88.34.39.15.35.15.56.24.36.16.13.06-.13,0-.38-.13-.58-.2-.36-.12-.4-.14-.9-.31-1-.35-.53-.19L34.26,48a7.88,7.88,0,0,0-1.15-.19c-.39,0-.79-.06-1.18-.09a10.07,10.07,0,0,1-1.17-.11,2.85,2.85,0,0,1-.55-.15l-.13-.06L30,47.34l-.11-.07-.1-.06a3.59,3.59,0,0,0-.84-.35,8,8,0,0,0-.78-.18l-.62-.09-.4,0Z"/><path class="cls-98" d="M10.7,78.46v-7h4.19v.89h-3v2.11h2.35v.88H11.87v3.07Z"/><path class="cls-98" d="M17.14,72.95v1a1.78,1.78,0,0,1,1.69-1V74h-.3a1.44,1.44,0,0,0-1,.34,1.6,1.6,0,0,0-.35,1.18v2.9H16V72.95Z"/><path class="cls-98" d="M22.35,78.55a2.71,2.71,0,0,1-2.83-2.84,2.71,2.71,0,0,1,.82-2.06,3.07,3.07,0,0,1,4.1,0,3,3,0,0,1,0,4.11A2.92,2.92,0,0,1,22.35,78.55Zm1.21-1.46a2.16,2.16,0,0,0,0-2.77,1.64,1.64,0,0,0-1.2-.5,1.59,1.59,0,0,0-1.19.5,1.91,1.91,0,0,0-.48,1.39,1.93,1.93,0,0,0,.47,1.39,1.55,1.55,0,0,0,1.17.5A1.67,1.67,0,0,0,23.56,77.09Z"/><path class="cls-98" d="M26.81,77.74A2.86,2.86,0,0,1,26,75.68a2.81,2.81,0,0,1,.76-2,2.54,2.54,0,0,1,1.9-.79,2.29,2.29,0,0,1,1.17.29,2.1,2.1,0,0,1,.78.78v-1h1.18v5.6a2.57,2.57,0,0,1-.73,1.9,2.63,2.63,0,0,1-2,.74,3.4,3.4,0,0,1-2-.53,1.93,1.93,0,0,1-.86-1.42h1.16a1.23,1.23,0,0,0,.57.69,2.06,2.06,0,0,0,1.09.27,1.51,1.51,0,0,0,1.09-.42,1.62,1.62,0,0,0,.44-1.22V77.43a2.17,2.17,0,0,1-2,1.12A2.51,2.51,0,0,1,26.81,77.74Zm3.34-.69a1.83,1.83,0,0,0,.51-1.36,1.81,1.81,0,0,0-.51-1.35,1.65,1.65,0,0,0-1.2-.5,1.67,1.67,0,0,0-1.2.49,1.78,1.78,0,0,0-.51,1.34A1.86,1.86,0,0,0,27.75,77a1.63,1.63,0,0,0,1.2.52A1.65,1.65,0,0,0,30.15,77.05Z"/><path class="cls-98" d="M33.11,74.53a1.47,1.47,0,0,1,.6-1.19,2.46,2.46,0,0,1,1.59-.48,2.39,2.39,0,0,1,1.56.47,1.71,1.71,0,0,1,.62,1.29h-1.2A.9.9,0,0,0,36,74a1.07,1.07,0,0,0-.73-.23,1.19,1.19,0,0,0-.74.21.65.65,0,0,0-.27.54.58.58,0,0,0,.34.53,2.68,2.68,0,0,0,.82.28q.49.09,1,.22a1.77,1.77,0,0,1,.82.47,1.27,1.27,0,0,1,.34.93,1.39,1.39,0,0,1-.62,1.17,2.64,2.64,0,0,1-1.59.45,2.53,2.53,0,0,1-1.58-.46,1.72,1.72,0,0,1-.67-1.31h1.21a.88.88,0,0,0,.31.64,1.14,1.14,0,0,0,.75.23,1.26,1.26,0,0,0,.76-.21.64.64,0,0,0,.28-.54.59.59,0,0,0-.34-.53,2.75,2.75,0,0,0-.82-.29l-1-.22a1.79,1.79,0,0,1-.82-.46A1.17,1.17,0,0,1,33.11,74.53Z"/><path class="cls-98" d="M14.29,1.85a2,2,0,0,1,.74-.5,3,3,0,0,1,1.14-.19,2.52,2.52,0,0,1,1.2.27,1.88,1.88,0,0,1,.79.79,5.61,5.61,0,0,1,.5,2.58,4.5,4.5,0,0,1-.76,3,2.3,2.3,0,0,1-1.81.7q-2.18,0-2.51-2.49a10,10,0,0,1-.06-1.17,9.11,9.11,0,0,1,.07-1.16,4.44,4.44,0,0,1,.25-1A2.47,2.47,0,0,1,14.29,1.85Zm3.19,1A1.27,1.27,0,0,0,17,2.19,1.52,1.52,0,0,0,16.14,2a1.73,1.73,0,0,0-.79.16,1.29,1.29,0,0,0-.49.41,2,2,0,0,0-.28.65,4.21,4.21,0,0,0-.13.76q0,.36,0,.86t0,.87a4.19,4.19,0,0,0,.13.76,2,2,0,0,0,.28.65,1.29,1.29,0,0,0,.49.41,1.8,1.8,0,0,0,1.48,0,1.34,1.34,0,0,0,.49-.41,1.81,1.81,0,0,0,.27-.65A5.88,5.88,0,0,0,17.76,5a10.52,10.52,0,0,0-.06-1.25A4.07,4.07,0,0,0,17.49,2.85Z"/><path class="cls-98" d="M20.32,5.19V4.42H24.4v.78Z"/><path class="cls-98" d="M26.73,8.46V2.17h-.84V1.36h1.75v7.1Z"/><path class="cls-98" d="M30.09,1.85a2,2,0,0,1,.74-.5A3,3,0,0,1,32,1.15a2.52,2.52,0,0,1,1.2.27,1.88,1.88,0,0,1,.79.79,5.61,5.61,0,0,1,.5,2.58,4.5,4.5,0,0,1-.76,3,2.3,2.3,0,0,1-1.81.7q-2.18,0-2.51-2.49a10,10,0,0,1-.06-1.17,9.2,9.2,0,0,1,.07-1.16,4.41,4.41,0,0,1,.25-1A2.48,2.48,0,0,1,30.09,1.85Zm3.19,1a1.27,1.27,0,0,0-.51-.66A1.52,1.52,0,0,0,31.94,2a1.73,1.73,0,0,0-.79.16,1.29,1.29,0,0,0-.49.41,2,2,0,0,0-.28.65,4.16,4.16,0,0,0-.13.76c0,.24,0,.53,0,.86s0,.62,0,.87a4.15,4.15,0,0,0,.13.76,2,2,0,0,0,.28.65,1.28,1.28,0,0,0,.49.41,1.8,1.8,0,0,0,1.48,0,1.34,1.34,0,0,0,.49-.41,1.81,1.81,0,0,0,.27-.65A5.9,5.9,0,0,0,33.56,5a10.64,10.64,0,0,0-.06-1.25A4.1,4.1,0,0,0,33.29,2.85Z"/></svg>