<svg id="Layer_1" data-name="Layer 1" xmlns="http://www.w3.org/2000/svg" xmlns:xlink="http://www.w3.org/1999/xlink"
     viewBox="0 0 129.58 88.45">
    <defs>
        <linearGradient id="linear-gradient" x1="-407.37" y1="0.97" x2="-405.04" y2="12.39"
                        gradientTransform="matrix(-1, 0, 0, 1, -301.36, 0)" gradientUnits="userSpaceOnUse">
            <stop offset="0" stop-color="#85c340"/>
            <stop offset="0.02" stop-color="#8ac540"/>
            <stop offset="0.17" stop-color="#a4ce43"/>
            <stop offset="0.3" stop-color="#b4d344"/>
            <stop offset="0.4" stop-color="#bad545"/>
            <stop offset="1" stop-color="#436e1e"/>
        </linearGradient>
        <linearGradient id="linear-gradient-2" x1="-409.58" y1="37.85" x2="-399.27" y2="40.42"
                        gradientTransform="matrix(-1, 0, 0, 1, -301.36, 0)" gradientUnits="userSpaceOnUse">
            <stop offset="0" stop-color="#436e1e"/>
            <stop offset="0.6" stop-color="#bad545"/>
            <stop offset="0.7" stop-color="#b4d344"/>
            <stop offset="0.83" stop-color="#a4ce43"/>
            <stop offset="0.98" stop-color="#8ac540"/>
            <stop offset="1" stop-color="#85c340"/>
        </linearGradient>
        <linearGradient id="linear-gradient-3" x1="-408.25" y1="40.85" x2="-411.82" y2="56.81"
                        gradientTransform="matrix(-1, 0, 0, 1, -301.36, 0)" gradientUnits="userSpaceOnUse">
            <stop offset="0" stop-color="#bad545"/>
            <stop offset="0.23" stop-color="#d5b238"/>
            <stop offset="0.47" stop-color="#ec932d"/>
            <stop offset="0.61" stop-color="#f58829"/>
            <stop offset="1" stop-color="#975410"/>
        </linearGradient>
        <linearGradient id="linear-gradient-4" x1="-342.82" y1="18.29" x2="-334.99" y2="18.29"
                        gradientTransform="matrix(-1, 0, 0, 1, -301.36, 0)" gradientUnits="userSpaceOnUse">
            <stop offset="0" stop-color="#254a9d"/>
            <stop offset="1" stop-color="#00bff2"/>
        </linearGradient>
        <linearGradient id="linear-gradient-5" x1="-332.62" y1="21.92" x2="-324.21" y2="21.92"
                        xlink:href="#linear-gradient-4"/>
        <linearGradient id="linear-gradient-6" x1="-340.65" y1="19.95" x2="-320.56" y2="17.89"
                        xlink:href="#linear-gradient-2"/>
        <linearGradient id="linear-gradient-7" x1="-411.66" y1="29.08" x2="-409.49" y2="21.41"
                        xlink:href="#linear-gradient-2"/>
        <linearGradient id="linear-gradient-8" x1="-411.04" y1="26.22" x2="-404.89" y2="4.5"
                        xlink:href="#linear-gradient-2"/>
        <linearGradient id="linear-gradient-9" x1="-373.24" y1="47.6" x2="-362.95" y2="11.28"
                        xlink:href="#linear-gradient-2"/>
        <linearGradient id="linear-gradient-10" x1="-362.16" y1="49.67" x2="-360.23" y2="32.13"
                        xlink:href="#linear-gradient-4"/>
        <linearGradient id="linear-gradient-11" x1="-8741.58" y1="46.51" x2="-8717.09" y2="46.51"
                        gradientTransform="translate(8764.98)" xlink:href="#linear-gradient-4"/>
        <linearGradient id="linear-gradient-12" x1="-342" y1="71.51" x2="-355.29" y2="77.06"
                        xlink:href="#linear-gradient-3"/>
        <linearGradient id="linear-gradient-13" x1="-343.12" y1="71.3" x2="-354.1" y2="63.7"
                        xlink:href="#linear-gradient-3"/>
        <linearGradient id="linear-gradient-14" x1="-347.33" y1="43.35" x2="-335.67" y2="50.47"
                        xlink:href="#linear-gradient-2"/>
        <linearGradient id="linear-gradient-15" x1="-326.1" y1="59.5" x2="-319.16" y2="70.99"
                        xlink:href="#linear-gradient-2"/>
        <linearGradient id="linear-gradient-16" x1="-329.85" y1="49.04" x2="-325.74" y2="59.64"
                        xlink:href="#linear-gradient-2"/>
        <linearGradient id="linear-gradient-17" x1="-8667.68" y1="14.83" x2="-8649.54" y2="14.83"
                        gradientTransform="translate(8764.98)" xlink:href="#linear-gradient"/>
        <radialGradient id="radial-gradient" cx="-8703.5" cy="13.36" r="7.65"
                        gradientTransform="translate(10763.44 -0.03) scale(1.22 1)" gradientUnits="userSpaceOnUse">
            <stop offset="0" stop-color="#3165af"/>
            <stop offset="0.64" stop-color="#2b60ac"/>
            <stop offset="1" stop-color="#255ba9"/>
        </radialGradient>
        <radialGradient id="radial-gradient-2" cx="-8703.33" cy="13.76" r="7.14"
                        gradientTransform="translate(10763.44 -0.03) scale(1.22 1)" gradientUnits="userSpaceOnUse">
            <stop offset="0" stop-color="#ee4323"/>
            <stop offset="0.13" stop-color="#e84122"/>
            <stop offset="0.3" stop-color="#d83a1e"/>
            <stop offset="0.49" stop-color="#bc2f18"/>
            <stop offset="0.7" stop-color="#96200f"/>
            <stop offset="0.92" stop-color="#660c05"/>
            <stop offset="1" stop-color="#520400"/>
        </radialGradient>
        <linearGradient id="linear-gradient-18" x1="-364.89" y1="31.17" x2="-367.86" y2="44.71"
                        gradientTransform="matrix(-1, 0, 0, 1, -301.36, 0)" gradientUnits="userSpaceOnUse">
            <stop offset="0" stop-color="#fff229"/>
            <stop offset="0.2" stop-color="#eae931"/>
            <stop offset="0.51" stop-color="#d0de3c"/>
            <stop offset="0.79" stop-color="#c0d743"/>
            <stop offset="1" stop-color="#bad545"/>
        </linearGradient>
        <linearGradient id="linear-gradient-19" x1="-8734.51" y1="44.47" x2="-8710.04" y2="44.47"
                        gradientTransform="translate(8764.98)" xlink:href="#linear-gradient-4"/>
        <linearGradient id="linear-gradient-20" x1="-381.23" y1="70.23" x2="-398.09" y2="81.67"
                        xlink:href="#linear-gradient-3"/>
        <linearGradient id="linear-gradient-21" x1="-391.54" y1="42.64" x2="-370.74" y2="36.75"
                        xlink:href="#linear-gradient-2"/>
        <linearGradient id="linear-gradient-22" x1="-383" y1="58.32" x2="-371.1" y2="63.38"
                        xlink:href="#linear-gradient-2"/>
        <linearGradient id="linear-gradient-23" x1="-382.55" y1="45.2" x2="-372.79" y2="35.66"
                        xlink:href="#linear-gradient-4"/>
    </defs>
    <title>6</title>
    <path d="M112.93,10.52c-2.1,3.72-7.49,5.34-12,3.62S94.35,8,96.45,4.31s7.49-5.34,12-3.62S115,6.8,112.93,10.52Z"
          fill="url(#linear-gradient)"/>
    <path d="M104.11,42c-1.69-.52-3.15.32-4.7,1.1a5.29,5.29,0,0,0-.74-1.81,13.78,13.78,0,0,1-.73-2c-.34-.91-.68-1.81-1-2.73l-.06-.19,6.59-3.75.14.38c.77,2.15,1.53,4.3,2.32,6.45a10.73,10.73,0,0,0,1.39,2.62,6.2,6.2,0,0,0,1.75,1.37c.2.13.41.26.62.38C107.48,44.42,105.8,42.85,104.11,42Z"
          fill="url(#linear-gradient-2)"/>
    <path d="M89.8,46.76a3.24,3.24,0,0,1,3.9-1,3.31,3.31,0,0,1,.86.48c1.82-.45,4-.64,4.7-2.1a1.67,1.67,0,0,0,.16-1c1.55-.78,3-1.62,4.7-1.1,1.69.83,3.37,2.39,5.6,1.83,2.57,1.47,6,2.09,8.58,3.56a19.12,19.12,0,0,1,4.6,3.49c.84.89,2.2,2,2.54,3.11a4.28,4.28,0,0,1,1.83.26c1.66.63,2.45,2.12,1.76,3.33s-2.59,1.69-4.25,1.07-2.4-2-1.8-3.25a21.15,21.15,0,0,1-2.54-2.87,18.93,18.93,0,0,0-4.94-4.27c-.66-.38-4.45-2.13-4.46-.18,0,.56.92,1.24,1.24,1.69a21.59,21.59,0,0,1,1.57,2.51,13.33,13.33,0,0,1,1.66,5.25,4,4,0,0,1,.89.21c1.7.64,2.45,2.28,1.68,3.65a3.73,3.73,0,0,1-4.49,1.33c-1.7-.64-2.45-2.28-1.68-3.65a2.71,2.71,0,0,1,.45-.57c-1.16-1.58-1.29-3.91-1.74-5.56a12,12,0,0,0-1.9-3.74c-.68-1-1.06-1.83-2.4-2.28-1,1.18-1,3.25-1.14,4.66a13.24,13.24,0,0,1-.38,2.66c1.29.78,1.88,2,1.31,3-.68,1.2-2.71,1.61-4.54.92S98.8,56,99.48,54.78a3,3,0,0,1,2.68-1.24c0-.32.05-.67.08-1,.09-1.38.87-4.75-.58-5.73-.75-.51-1.76-.12-2.5.16a31.38,31.38,0,0,1-3.1,1l-.56.15a1.84,1.84,0,0,1-.22.75,3.24,3.24,0,0,1-3.9,1C89.86,49.3,89.16,47.91,89.8,46.76Z"
          fill="url(#linear-gradient-3)"/>
    <path d="M41.46,17.71s-3.87,1.51-7.83,3.38A49.63,49.63,0,0,0,37,15.48,17.3,17.3,0,0,1,41.46,17.71Z"
          fill="url(#linear-gradient-4)"/>
    <path d="M22.84,27.75s2.2-8.31,8.41-11.66a31.42,31.42,0,0,0-2,7.26c-.8.46-1.54.92-2.15,1.35Z"
          fill="url(#linear-gradient-5)"/>
    <path d="M33.06,15.3a6.57,6.57,0,0,1,4,.18,49.63,49.63,0,0,1-3.42,5.61c-1.52.72-3.06,1.5-4.39,2.26a31.42,31.42,0,0,1,2-7.26A11.34,11.34,0,0,1,33.06,15.3Z"
          fill="url(#linear-gradient-6)"/>
    <path d="M113.78,27.89a22.44,22.44,0,0,0-3,1.24l-.24,0c-6.4-1.23-12.81.31-19.21-1.85a18.93,18.93,0,0,1-2.06-.52c13.42,0,27-1,39.2-5.55C125.16,24.22,114.2,28,113.78,27.89Z"
          fill="url(#linear-gradient-7)"/>
    <path d="M87.16,25.1c-.66-6.79,4.54-12.86,9.13-18.63A88.26,88.26,0,0,1,106.44,7.8a64.64,64.64,0,0,1,13.26,2c7.51,1.9,11,7.26,9.53,10.4a3.48,3.48,0,0,1-.79,1c-12.17,4.57-25.78,5.51-39.2,5.55C88.14,26.37,87.16,25.85,87.16,25.1Z"
          fill="url(#linear-gradient-8)"/>
    <path d="M23,30.69a3.93,3.93,0,0,1-.21-2.94h0l4.24-3c4.24-3,20.71-9.62,20.71-9.62s9.37-3.17,16-2.63,11.74-.22,18.3-4.24c3.19-2,9-2.11,14.19-1.75-4.6,5.77-9.8,11.84-9.13,18.63,0,1.23,2.64,1.85,4.14,2.15,6.4,2.15,12.81.62,19.21,1.85l.24,0c-2,.89-4.62,2.16-7.26,3.52l-6.59,3.75a17.75,17.75,0,0,0-2.27,1.7,76.18,76.18,0,0,1-9.87,6.72A72.34,72.34,0,0,0,92,32.47a22.69,22.69,0,0,0-3.81.16c.65-.7.16-1.29.57-2.12-20.63,0-39.15,4.24-58.67,9.61-.58-.38-1.17-.77-1.77-1.18A12.52,12.52,0,0,1,23,30.69Z"
          fill="url(#linear-gradient-9)"/>
    <path d="M88.19,32.63c-10.25,1.29-16.72,9.52-22.81,16.18,0-.39-.06-.62-.06-.62-1.87,2-15.72-.63-17.14-.91-9.28-2.47-13.64-4.3-18.09-7.16,19.53-5.38,37.64-9.61,58.27-9.61C87.95,31.34,88.84,31.93,88.19,32.63Z"
          fill="url(#linear-gradient-10)"/>
    <path d="M23.41,37.55c1-2.33,2.16-3.84,4.52-1.84,8.42,6.79,15.37,14,20,22.53-4.07-2.39-8.81-3.73-13.07-6l1.59.64S24.69,43.32,23.41,37.55Z"
          fill="url(#linear-gradient-11)"/>
    <path d="M49.45,68.77a43.23,43.23,0,0,1,6.35.9,4.6,4.6,0,0,1,4.1-1.22c2.21.29,3.77,1.66,3.49,3.06s-2.28,2.31-4.49,2a4,4,0,0,1-3.42-2.17c-2.18.4-5.64.66-7.26,1.15-2.6.8-4.6,2.15-3.07,4.43a5,5,0,0,1,.66,1.51h.08c2.09.27,3.53,1.82,3.21,3.46s-2.28,2.74-4.37,2.46-3.53-1.82-3.21-3.46a2.51,2.51,0,0,1,.45-1c-.33-.32-.66-.68-1-1.06.89-3.24,3.89-6.08,7.23-8.05C48.29,70.43,49.09,69.62,49.45,68.77Z"
          fill="url(#linear-gradient-12)"/>
    <path d="M49.55,67.56c-1.67-1.41-3.72-.93-5.69-.82.72-.37,1.72-.85,2.75-1.26a54.81,54.81,0,0,0,6-3,2.27,2.27,0,0,1,1.89,2.4c-.23,1.19-1.73,2-3.34,1.77l-.15,0a6.2,6.2,0,0,1-1.49,1.79A1.4,1.4,0,0,0,49.55,67.56Z"
          fill="url(#linear-gradient-13)"/>
    <path d="M47.74,58c-4.59-8.44-11.48-15.53-19.81-22.25-2.37-2-3.54-.49-4.52,1.84a3.7,3.7,0,0,1,0-1.67c.79-3.31,3.92-4.78,7.1-4.53C37.65,40.18,49.53,48.1,54.95,57.6c.37,1.58.18,2.88-.81,3.74-.5.43-1,.82-1.48,1.19,0,0-.72.4-1.67.9A7.16,7.16,0,0,0,47.74,58Z"
          fill="url(#linear-gradient-14)"/>
    <path d="M29.91,67.74c3.42-.31,12.84-.41,12.84-.41s.44-.25,1.11-.59c2-.11,4-.6,5.69.82a1.4,1.4,0,0,1,0,.89c-.21.18-.36.3-.36.3l.25,0c-.36.85-1.16,1.66-1.23,2-3.34,2-6.34,4.81-7.23,8.05-1.89-2.16-3.72-4.93-5.41-5.15-2.38-.31-9.21,1.36-16.47-5.38S-.67,53.7,0,50.16A26.4,26.4,0,0,1,9.3,53.38C10.87,54.72,26.67,68,29.91,67.74Z"
          fill="url(#linear-gradient-15)"/>
    <path d="M14.06,44.9c7.14,2,17,5.8,20.77,7.31,4.26,2.3,9,3.64,13.07,6L47.74,58A7.16,7.16,0,0,1,51,63.42a33,33,0,0,1-4.37,2.06c-3.11.67-6.3.07-10.32-1.36C29.13,61.57,9.17,53.27,9.17,53.27l.13.11A26.4,26.4,0,0,0,0,50.16a1.68,1.68,0,0,1,0-.17C1.2,46.54,5,42.39,14.06,44.9Z"
          fill="url(#linear-gradient-16)"/>
    <path d="M114.61,17.93c-2.1,3.72-7.49,5.34-12,3.62S96,15.44,98.14,11.72s7.49-5.34,12-3.62S116.71,14.21,114.61,17.93Z"
          fill="url(#linear-gradient-17)"/>
    <path d="M114.19,18c-1.91,3.38-6.8,4.85-10.94,3.29s-5.94-5.56-4-8.94,6.81-4.85,10.94-3.3S116.09,14.67,114.19,18Z"
          fill="url(#radial-gradient)"/>
    <path d="M114,18.13c-1.78,3.15-6.35,4.52-10.2,3.07S98.23,16,100,12.87s6.34-4.52,10.2-3.07S115.74,15,114,18.13Z"
          fill="url(#radial-gradient-2)"/>
    <path d="M40.44,37a69.65,69.65,0,0,0,7-1.47c1.46-.38,2.94-.65,4.35-1.14.71-.24,1.42-.28,2.14-.45s1.57-.47,2.39-.63c2.15-.42,4.23-.77,6.41-1.06,1.35-.18,2.72-.31,4.05-.53s2.52-.71,3.82-1a20.54,20.54,0,0,1,4.88-.53c1.19,0,2.29.3,3.54.19.85-.07,1.67-.45,2.53-.56a41.2,41.2,0,0,1,4.81,0,6.68,6.68,0,0,1,3.46.89c.69.41,1,.78.69,1.44a2,2,0,0,1-1.38,1c-.7.23-1,.15-1.13-.22.17-.63.55-1.44-.06-1.44-1.3-.21-3.31-.72-4.68-.31l-.11,0a3.34,3.34,0,0,0-1,.4c-.28.19-.31.44-.43.72-.26.55-.42,1.15-.7,1.69-.18.35-1,1.73-1.63,1.5s-.13-1.8-.06-2.2c.13-.82.43-1.4-.87-1.4-1.52,0-2.3,0-2.75,1.33s-.45,2.58-.84,3.85a12.7,12.7,0,0,1-1.22,3c-.33.53-1.19,1.79-2.16,1.68s0-1.27.12-1.61A23.55,23.55,0,0,0,72.6,37.6a8,8,0,0,0,.25-2.69,2.67,2.67,0,0,0-1.3-2.63A3.47,3.47,0,0,0,67,33.39c-1.37,1.86-1,4.57-.54,6.61.3,1.5.66,3.73-.26,5.13a1.74,1.74,0,0,1-1.78.75c-.72-.13-.66-.44-.72-1-.19-1.65,0-3.36-.15-5a14.39,14.39,0,0,0-1.06-4.58c-.47-1-1.25-2.17-2.77-1.62-2.67,1-2.45,3.78-2.27,5.8.07.83,1.65,7,.22,7.07-.76.06-1.5-1.12-1.75-1.58-.5-.92-1-1.86-1.47-2.8-.8-1.71-1.25-3.52-2.1-5.2-.36-.71-1.17-1.35-2-.6a3.11,3.11,0,0,0-.74,2c-.09,1.28,0,2.59,0,3.87,0,.53.08,1.79-.55,2.18s-1-.27-1.28-.7a25.92,25.92,0,0,1-1.55-2.41,17,17,0,0,0-.72-1.7c-1.13-1.66-3.79-.91-5.63-.83-.66,0-1.68,0-1.84-.72S39.81,37.13,40.44,37Z"
          fill="url(#linear-gradient-18)"/>
    <path d="M30.47,31.35a8.83,8.83,0,0,1,5.4,2.37S53,49.41,54.95,57.6C49.53,48.1,37.65,40.18,30.47,31.35Z"
          fill="url(#linear-gradient-19)"/>
    <path d="M86,72.49c1.3-.8-.5-2.75-.76-4.66.51.3.87.49.87.49a44.72,44.72,0,0,1,3.09-3.71,1.71,1.71,0,0,1-.13-1.87,2.89,2.89,0,0,1,3.48-1c1.34.5,1.94,1.76,1.36,2.79a2.76,2.76,0,0,1-2.88,1.13,43.59,43.59,0,0,1-3.75,5S97.41,69,100.69,70.3a5.44,5.44,0,0,1,.67.33,4,4,0,0,1,2.69,0c1.6.6,2.34,2.06,1.66,3.26A3.41,3.41,0,0,1,101.6,75a2.57,2.57,0,0,1-1.89-2.5c-3.66-2-11.87,1.11-11.87,1.11,7.65,1.25,9.76,5.74,11.13,8l.05.1a2.94,2.94,0,0,1,1,.19,1.92,1.92,0,0,1,1.22,2.74,2.78,2.78,0,0,1-3.35,1,1.92,1.92,0,0,1-1.22-2.74,2.09,2.09,0,0,1,.51-.59c-.07-.4-.46-1.39-2.16-3.76-2.54-3.54-9.86-2.89-9.86-2.89s.85,4.75.08,7.46a5,5,0,0,1-.67,1.41,2,2,0,0,1,.66,2.61,3.34,3.34,0,0,1-4,1c-1.56-.59-2.3-2-1.64-3.17a3.23,3.23,0,0,1,3.62-1.15l0-.05c2.21-3.91-1-9.86-1-9.86s-.68-.52-1.82-1.44C82.46,72.82,84.56,73.24,86,72.49Z"
          fill="url(#linear-gradient-20)"/>
    <path d="M69.82,47.3c.25-.22.51-.45.77-.66,6.54-5.06,15-8.07,19.81-14.18.53,0,1.06,0,1.61,0a72.34,72.34,0,0,1-7.24,12.35c-3.71,2.25-7,4.06-7,4.06l.24,1A12.71,12.71,0,0,0,69.82,47.3Z"
          fill="url(#linear-gradient-21)"/>
    <path d="M78.06,49.89c.83,3.38,3.46,14.17,3.76,15.15.25.81,2.26,2.09,3.46,2.79.26,1.91,2.06,3.86.76,4.66-1.47.75-3.57.33-5.64,0-1.89-1.52-5-4.13-8.52-7.3s-5.25-9.3-6-13.24a20.74,20.74,0,0,1,3.95-4.67A12.71,12.71,0,0,1,78.06,49.89Z"
          fill="url(#linear-gradient-22)"/>
    <path d="M90.4,32.47c-4.86,6.11-13.28,9.12-19.81,14.18A21.22,21.22,0,0,0,65.87,52c-.26-1.38-.41-2.51-.49-3.16C71.89,41.69,78.85,32.77,90.4,32.47Z"
          fill="url(#linear-gradient-23)"/>
    <path d="M109.15,18.82l-1.86-7.9S110.15,14.53,109.15,18.82Z" fill="#231f20"/>
    <ellipse cx="104.72" cy="12.83" rx="0.85" ry="0.69" fill="#fff"/>
    <path d="M96.91,8.49h-.78c-.51,0-1.26,0-2.22.06s-2.11.13-3.43.29a37.78,37.78,0,0,0-4.4.76,19.58,19.58,0,0,0-4.94,1.78l-.61.35L80,12l-.56.26c-.2.08-.4.17-.61.24a15.71,15.71,0,0,1-2.74.66c-1.94.3-4,.38-6.16.49s-4.33.2-6.52.42a44.58,44.58,0,0,0-6.47,1.12,28.57,28.57,0,0,0-3,1L51,17.25c-1.86.69-3.64,1.38-5.34,2s-3.29,1.27-4.76,1.84L38.8,22l-1.89.78L33.86,24l-2,.84-.69.3.73-.24L34,24.24l3.17-1.08,1.94-.67,2.17-.73c1.51-.51,3.15-1.05,4.87-1.65s3.54-1.21,5.42-1.88l2.86-1c.94-.32,1.91-.62,2.91-.86a43.27,43.27,0,0,1,6.23-1c2.12-.23,4.28-.34,6.42-.46a55.39,55.39,0,0,0,6.33-.61,15.62,15.62,0,0,0,3-.8c.24-.08.46-.2.69-.3s.46-.24.67-.36l.58-.37.53-.33a19.65,19.65,0,0,1,4.56-1.86c1.52-.43,3-.74,4.24-1s2.42-.39,3.36-.5,1.68-.19,2.19-.24Z"
          fill="#fff"/>
</svg>