<svg id="Layer_1" data-name="Layer 1" xmlns="http://www.w3.org/2000/svg" xmlns:xlink="http://www.w3.org/1999/xlink" viewBox="0 0 45 70"><defs><linearGradient id="linear-gradient" x1="14.43" y1="2.97" x2="30.12" y2="66.3" gradientUnits="userSpaceOnUse"><stop offset="0" stop-color="#fdefae"/><stop offset="0.54" stop-color="#fcf5c0"/><stop offset="0.71" stop-color="#fae5ad"/><stop offset="1" stop-color="#f2dfab"/></linearGradient><linearGradient id="linear-gradient-2" x1="-327.81" y1="-103.54" x2="-290.52" y2="-51.86" gradientTransform="translate(329.81 110.19)" gradientUnits="userSpaceOnUse"><stop offset="0" stop-color="#fdefae"/><stop offset="0.54" stop-color="#fcf5c0"/><stop offset="0.78" stop-color="#fbebb4"/><stop offset="1" stop-color="#f2dfab"/></linearGradient><linearGradient id="linear-gradient-3" x1="26.56" y1="10.56" x2="26.56" y2="19.01" gradientUnits="userSpaceOnUse"><stop offset="0" stop-color="#ffa400"/><stop offset="1" stop-color="#ff6800"/></linearGradient><linearGradient id="linear-gradient-4" x1="26.56" y1="18.2" x2="26.56" y2="10.56" xlink:href="#linear-gradient-3"/><radialGradient id="radial-gradient" cx="43.41" cy="-30.55" r="3.39" gradientTransform="translate(-11.87 42.87) scale(0.89 0.93)" gradientUnits="userSpaceOnUse"><stop offset="0" stop-color="#ff7d00"/><stop offset="1" stop-color="#ffa400"/></radialGradient><linearGradient id="linear-gradient-5" x1="26.56" y1="30.75" x2="26.56" y2="39.2" xlink:href="#linear-gradient-3"/><linearGradient id="linear-gradient-6" x1="26.56" y1="38.39" x2="26.56" y2="30.75" xlink:href="#linear-gradient-3"/><radialGradient id="radial-gradient-2" cx="43.41" cy="-8.9" r="3.39" xlink:href="#radial-gradient"/><linearGradient id="linear-gradient-7" x1="26.56" y1="20.65" x2="26.56" y2="29.1" xlink:href="#linear-gradient-3"/><linearGradient id="linear-gradient-8" x1="26.56" y1="28.3" x2="26.56" y2="20.65" xlink:href="#linear-gradient-3"/><radialGradient id="radial-gradient-3" cx="43.41" cy="-19.73" r="3.39" xlink:href="#radial-gradient"/><linearGradient id="linear-gradient-9" x1="18.07" y1="10.56" x2="18.07" y2="19.01" gradientUnits="userSpaceOnUse"><stop offset="0" stop-color="#ff8dff"/><stop offset="1" stop-color="#ff51ff"/></linearGradient><linearGradient id="linear-gradient-10" x1="18.07" y1="18.2" x2="18.07" y2="10.56" xlink:href="#linear-gradient-9"/><radialGradient id="radial-gradient-4" cx="55.6" cy="16.8" r="3.39" gradientTransform="translate(-31.16 -1.29) scale(0.89 0.93)" gradientUnits="userSpaceOnUse"><stop offset="0" stop-color="#f6f"/><stop offset="1" stop-color="#ff8dff"/></radialGradient><linearGradient id="linear-gradient-11" x1="18.07" y1="10.34" x2="18.07" y2="18.89" gradientUnits="userSpaceOnUse"><stop offset="0" stop-color="#caa8ff"/><stop offset="1" stop-color="#6d33ff"/></linearGradient><linearGradient id="linear-gradient-12" x1="18.07" y1="18.2" x2="18.07" y2="10.56" xlink:href="#linear-gradient-11"/><radialGradient id="radial-gradient-5" cx="55.6" cy="16.8" r="3.39" gradientTransform="translate(-31.16 -1.29) scale(0.89 0.93)" gradientUnits="userSpaceOnUse"><stop offset="0" stop-color="#8b84ff"/><stop offset="1" stop-color="#caa8ff"/></radialGradient><linearGradient id="linear-gradient-13" x1="18.07" y1="30.75" x2="18.07" y2="39.2" xlink:href="#linear-gradient-9"/><linearGradient id="linear-gradient-14" x1="18.07" y1="38.39" x2="18.07" y2="30.75" xlink:href="#linear-gradient-9"/><radialGradient id="radial-gradient-6" cx="55.6" cy="38.45" r="3.39" xlink:href="#radial-gradient-4"/><linearGradient id="linear-gradient-15" x1="18.07" y1="30.53" x2="18.07" y2="39.08" xlink:href="#linear-gradient-11"/><linearGradient id="linear-gradient-16" x1="18.07" y1="38.39" x2="18.07" y2="30.75" xlink:href="#linear-gradient-11"/><radialGradient id="radial-gradient-7" cx="55.6" cy="38.45" r="3.39" xlink:href="#radial-gradient-5"/><linearGradient id="linear-gradient-17" x1="18.07" y1="20.65" x2="18.07" y2="29.1" xlink:href="#linear-gradient-9"/><linearGradient id="linear-gradient-18" x1="18.07" y1="28.3" x2="18.07" y2="20.65" xlink:href="#linear-gradient-9"/><radialGradient id="radial-gradient-8" cx="55.6" cy="27.63" r="3.39" xlink:href="#radial-gradient-4"/><linearGradient id="linear-gradient-19" x1="18.07" y1="20.43" x2="18.07" y2="28.98" xlink:href="#linear-gradient-11"/><linearGradient id="linear-gradient-20" x1="18.07" y1="28.3" x2="18.07" y2="20.65" xlink:href="#linear-gradient-11"/><radialGradient id="radial-gradient-9" cx="55.6" cy="27.63" r="3.39" xlink:href="#radial-gradient-5"/><linearGradient id="linear-gradient-21" x1="18.07" y1="40.84" x2="18.07" y2="49.29" xlink:href="#linear-gradient-9"/><linearGradient id="linear-gradient-22" x1="18.07" y1="48.49" x2="18.07" y2="40.84" xlink:href="#linear-gradient-9"/><radialGradient id="radial-gradient-10" cx="55.6" cy="49.28" r="3.39" xlink:href="#radial-gradient-4"/><linearGradient id="linear-gradient-23" x1="18.07" y1="40.62" x2="18.07" y2="49.17" xlink:href="#linear-gradient-11"/><linearGradient id="linear-gradient-24" x1="18.07" y1="48.49" x2="18.07" y2="40.84" xlink:href="#linear-gradient-11"/><radialGradient id="radial-gradient-11" cx="55.6" cy="49.28" r="3.39" xlink:href="#radial-gradient-5"/><linearGradient id="linear-gradient-25" x1="26.56" y1="40.84" x2="26.56" y2="49.29" xlink:href="#linear-gradient-3"/><linearGradient id="linear-gradient-26" x1="26.56" y1="48.49" x2="26.56" y2="40.84" xlink:href="#linear-gradient-3"/><radialGradient id="radial-gradient-12" cx="43.41" cy="1.92" r="3.39" xlink:href="#radial-gradient"/><linearGradient id="linear-gradient-27" x1="18.07" y1="50.93" x2="18.07" y2="59.39" xlink:href="#linear-gradient-9"/><linearGradient id="linear-gradient-28" x1="18.07" y1="58.58" x2="18.07" y2="50.94" xlink:href="#linear-gradient-9"/><radialGradient id="radial-gradient-13" cx="55.6" cy="60.1" r="3.39" xlink:href="#radial-gradient-4"/><linearGradient id="linear-gradient-29" x1="18.07" y1="50.72" x2="18.07" y2="59.27" xlink:href="#linear-gradient-11"/><linearGradient id="linear-gradient-30" x1="18.07" y1="58.58" x2="18.07" y2="50.94" xlink:href="#linear-gradient-11"/><radialGradient id="radial-gradient-14" cx="55.6" cy="60.1" r="3.39" xlink:href="#radial-gradient-5"/><linearGradient id="linear-gradient-31" x1="26.56" y1="50.93" x2="26.56" y2="59.39" xlink:href="#linear-gradient-3"/><linearGradient id="linear-gradient-32" x1="26.56" y1="58.58" x2="26.56" y2="50.94" xlink:href="#linear-gradient-3"/><radialGradient id="radial-gradient-15" cx="43.41" cy="12.75" r="3.39" xlink:href="#radial-gradient"/><linearGradient id="linear-gradient-33" x1="9.57" y1="10.56" x2="9.57" y2="19.01" xlink:href="#linear-gradient-9"/><linearGradient id="linear-gradient-34" x1="9.57" y1="18.2" x2="9.57" y2="10.56" xlink:href="#linear-gradient-9"/><radialGradient id="radial-gradient-16" cx="46" cy="16.8" r="3.39" xlink:href="#radial-gradient-4"/><linearGradient id="linear-gradient-35" x1="9.57" y1="10.34" x2="9.57" y2="18.89" xlink:href="#linear-gradient-11"/><linearGradient id="linear-gradient-36" x1="9.57" y1="18.2" x2="9.57" y2="10.56" xlink:href="#linear-gradient-11"/><radialGradient id="radial-gradient-17" cx="46" cy="16.8" r="3.39" xlink:href="#radial-gradient-5"/><linearGradient id="linear-gradient-37" x1="35.06" y1="10.56" x2="35.06" y2="19.01" xlink:href="#linear-gradient-3"/><linearGradient id="linear-gradient-38" x1="35.06" y1="18.2" x2="35.06" y2="10.56" xlink:href="#linear-gradient-3"/><radialGradient id="radial-gradient-18" cx="53" cy="-30.55" r="3.39" xlink:href="#radial-gradient"/></defs><title>card12</title><path d="M41.13,70H4.24A4,4,0,0,1,.37,66V4.44A4,4,0,0,1,4.24.4H41.13a4,4,0,0,1,3.87,4V66a4,4,0,0,1-3.87,4Z" fill="#543918"/><path d="M40.76,69.6H3.87a4,4,0,0,1-3.87-4V4A4,4,0,0,1,3.87,0H40.76a4,4,0,0,1,3.87,4V65.56a4,4,0,0,1-3.87,4Z" fill="#9f7f4b"/><path d="M.18,65.56a3.78,3.78,0,0,0,3.69,3.84H40.76a3.78,3.78,0,0,0,3.69-3.84V4A3.78,3.78,0,0,0,40.76.2H3.87A3.78,3.78,0,0,0,.18,4Z" fill="url(#linear-gradient)"/><path d="M40.76,67H3.87A1.5,1.5,0,0,1,2.4,65.56V4A1.49,1.49,0,0,1,3.87,2.57H40.76A1.49,1.49,0,0,1,42.23,4V65.56A1.49,1.49,0,0,1,40.76,67Z" fill="url(#linear-gradient-2)"/><path d="M38.71,5.91H5.92A1.56,1.56,0,0,0,4.38,7.45V62.16A1.56,1.56,0,0,0,5.92,63.7h32.8a1.56,1.56,0,0,0,1.53-1.54V7.45A1.56,1.56,0,0,0,38.71,5.91Zm1.09,56.25a1.1,1.1,0,0,1-1.09,1.08H5.92a1.1,1.1,0,0,1-1.09-1.08V7.45A1.1,1.1,0,0,1,5.92,6.37h32.8a1.1,1.1,0,0,1,1.09,1.08Z"/><ellipse cx="26.56" cy="14.61" rx="4.06" ry="4.35" fill="#610000" opacity="0"/><ellipse cx="26.56" cy="14.6" rx="4.05" ry="4.34" fill="#610000" opacity="0.02"/><ellipse cx="26.56" cy="14.59" rx="4.04" ry="4.32" fill="#610000" opacity="0.04"/><ellipse cx="26.56" cy="14.58" rx="4.03" ry="4.31" fill="#610000" opacity="0.06"/><ellipse cx="26.56" cy="14.57" rx="4.02" ry="4.3" fill="#610000" opacity="0.08"/><ellipse cx="26.56" cy="14.56" rx="4.01" ry="4.28" fill="#610000" opacity="0.1"/><ellipse cx="26.56" cy="14.55" rx="4" ry="4.27" fill="#610000" opacity="0.11"/><ellipse cx="26.56" cy="14.53" rx="3.99" ry="4.25" fill="#610000" opacity="0.13"/><ellipse cx="26.56" cy="14.52" rx="3.98" ry="4.24" fill="#610000" opacity="0.15"/><ellipse cx="26.56" cy="14.51" rx="3.97" ry="4.23" fill="#610000" opacity="0.17"/><ellipse cx="26.56" cy="14.5" rx="3.96" ry="4.21" fill="#610000" opacity="0.19"/><ellipse cx="26.56" cy="14.49" rx="3.95" ry="4.2" fill="#610000" opacity="0.21"/><ellipse cx="26.56" cy="14.48" rx="3.94" ry="4.18" fill="#610000" opacity="0.23"/><ellipse cx="26.56" cy="14.47" rx="3.93" ry="4.17" fill="#610000" opacity="0.25"/><ellipse cx="26.56" cy="14.46" rx="3.92" ry="4.16" fill="#610000" opacity="0.27"/><ellipse cx="26.56" cy="14.44" rx="3.91" ry="4.14" fill="#610000" opacity="0.29"/><ellipse cx="26.56" cy="14.43" rx="3.9" ry="4.13" fill="#610000" opacity="0.3"/><ellipse cx="26.56" cy="14.42" rx="3.89" ry="4.11" fill="#610000" opacity="0.32"/><ellipse cx="26.56" cy="14.41" rx="3.88" ry="4.1" fill="#610000" opacity="0.34"/><ellipse cx="26.56" cy="14.4" rx="3.87" ry="4.08" fill="#610000" opacity="0.36"/><ellipse cx="26.56" cy="14.39" rx="3.86" ry="4.07" fill="#610000" opacity="0.38"/><ellipse cx="26.56" cy="14.38" rx="3.85" ry="4.06" fill="#610000" opacity="0.4"/><ellipse cx="26.56" cy="14.38" rx="3.85" ry="4.06" fill="url(#linear-gradient-3)"/><ellipse cx="26.56" cy="14.38" rx="3.66" ry="3.86" fill="url(#linear-gradient-4)"/><ellipse cx="26.56" cy="14.38" rx="3" ry="3.16" fill="url(#radial-gradient)"/><ellipse cx="26.56" cy="34.8" rx="4.06" ry="4.35" fill="#610000" opacity="0"/><ellipse cx="26.56" cy="34.79" rx="4.05" ry="4.34" fill="#610000" opacity="0.02"/><ellipse cx="26.56" cy="34.78" rx="4.04" ry="4.32" fill="#610000" opacity="0.04"/><ellipse cx="26.56" cy="34.77" rx="4.03" ry="4.31" fill="#610000" opacity="0.06"/><ellipse cx="26.56" cy="34.76" rx="4.02" ry="4.3" fill="#610000" opacity="0.08"/><ellipse cx="26.56" cy="34.75" rx="4.01" ry="4.28" fill="#610000" opacity="0.1"/><ellipse cx="26.56" cy="34.73" rx="4" ry="4.27" fill="#610000" opacity="0.11"/><ellipse cx="26.56" cy="34.72" rx="3.99" ry="4.25" fill="#610000" opacity="0.13"/><ellipse cx="26.56" cy="34.71" rx="3.98" ry="4.24" fill="#610000" opacity="0.15"/><ellipse cx="26.56" cy="34.7" rx="3.97" ry="4.23" fill="#610000" opacity="0.17"/><ellipse cx="26.56" cy="34.69" rx="3.96" ry="4.21" fill="#610000" opacity="0.19"/><ellipse cx="26.56" cy="34.68" rx="3.95" ry="4.2" fill="#610000" opacity="0.21"/><ellipse cx="26.56" cy="34.67" rx="3.94" ry="4.18" fill="#610000" opacity="0.23"/><ellipse cx="26.56" cy="34.66" rx="3.93" ry="4.17" fill="#610000" opacity="0.25"/><ellipse cx="26.56" cy="34.64" rx="3.92" ry="4.16" fill="#610000" opacity="0.27"/><ellipse cx="26.56" cy="34.63" rx="3.91" ry="4.14" fill="#610000" opacity="0.29"/><ellipse cx="26.56" cy="34.62" rx="3.9" ry="4.13" fill="#610000" opacity="0.3"/><ellipse cx="26.56" cy="34.61" rx="3.89" ry="4.11" fill="#610000" opacity="0.32"/><ellipse cx="26.56" cy="34.6" rx="3.88" ry="4.1" fill="#610000" opacity="0.34"/><ellipse cx="26.56" cy="34.59" rx="3.87" ry="4.08" fill="#610000" opacity="0.36"/><ellipse cx="26.56" cy="34.58" rx="3.86" ry="4.07" fill="#610000" opacity="0.38"/><ellipse cx="26.56" cy="34.57" rx="3.85" ry="4.06" fill="#610000" opacity="0.4"/><ellipse cx="26.56" cy="34.57" rx="3.85" ry="4.06" fill="url(#linear-gradient-5)"/><ellipse cx="26.56" cy="34.57" rx="3.66" ry="3.86" fill="url(#linear-gradient-6)"/><ellipse cx="26.56" cy="34.57" rx="3" ry="3.16" fill="url(#radial-gradient-2)"/><ellipse cx="26.56" cy="24.71" rx="4.06" ry="4.35" fill="#610000" opacity="0"/><ellipse cx="26.56" cy="24.7" rx="4.05" ry="4.34" fill="#610000" opacity="0.02"/><ellipse cx="26.56" cy="24.69" rx="4.04" ry="4.32" fill="#610000" opacity="0.04"/><ellipse cx="26.56" cy="24.67" rx="4.03" ry="4.31" fill="#610000" opacity="0.06"/><ellipse cx="26.56" cy="24.66" rx="4.02" ry="4.3" fill="#610000" opacity="0.08"/><ellipse cx="26.56" cy="24.65" rx="4.01" ry="4.28" fill="#610000" opacity="0.1"/><ellipse cx="26.56" cy="24.64" rx="4" ry="4.27" fill="#610000" opacity="0.11"/><ellipse cx="26.56" cy="24.63" rx="3.99" ry="4.25" fill="#610000" opacity="0.13"/><ellipse cx="26.56" cy="24.62" rx="3.98" ry="4.24" fill="#610000" opacity="0.15"/><ellipse cx="26.56" cy="24.61" rx="3.97" ry="4.23" fill="#610000" opacity="0.17"/><ellipse cx="26.56" cy="24.6" rx="3.96" ry="4.21" fill="#610000" opacity="0.19"/><ellipse cx="26.56" cy="24.58" rx="3.95" ry="4.2" fill="#610000" opacity="0.21"/><ellipse cx="26.56" cy="24.57" rx="3.94" ry="4.18" fill="#610000" opacity="0.23"/><ellipse cx="26.56" cy="24.56" rx="3.93" ry="4.17" fill="#610000" opacity="0.25"/><ellipse cx="26.56" cy="24.55" rx="3.92" ry="4.16" fill="#610000" opacity="0.27"/><ellipse cx="26.56" cy="24.54" rx="3.91" ry="4.14" fill="#610000" opacity="0.29"/><ellipse cx="26.56" cy="24.53" rx="3.9" ry="4.13" fill="#610000" opacity="0.3"/><ellipse cx="26.56" cy="24.52" rx="3.89" ry="4.11" fill="#610000" opacity="0.32"/><ellipse cx="26.56" cy="24.51" rx="3.88" ry="4.1" fill="#610000" opacity="0.34"/><ellipse cx="26.56" cy="24.49" rx="3.87" ry="4.08" fill="#610000" opacity="0.36"/><ellipse cx="26.56" cy="24.48" rx="3.86" ry="4.07" fill="#610000" opacity="0.38"/><ellipse cx="26.56" cy="24.47" rx="3.85" ry="4.06" fill="#610000" opacity="0.4"/><ellipse cx="26.56" cy="24.47" rx="3.85" ry="4.06" fill="url(#linear-gradient-7)"/><ellipse cx="26.56" cy="24.47" rx="3.66" ry="3.86" fill="url(#linear-gradient-8)"/><ellipse cx="26.56" cy="24.47" rx="3" ry="3.16" fill="url(#radial-gradient-3)"/><ellipse cx="18.07" cy="14.61" rx="4.06" ry="4.35" fill="#4200ff" opacity="0"/><ellipse cx="18.07" cy="14.6" rx="4.05" ry="4.34" fill="#4200ff" opacity="0.02"/><ellipse cx="18.07" cy="14.59" rx="4.04" ry="4.32" fill="#4200ff" opacity="0.04"/><ellipse cx="18.07" cy="14.58" rx="4.03" ry="4.31" fill="#4200ff" opacity="0.06"/><ellipse cx="18.07" cy="14.57" rx="4.02" ry="4.3" fill="#4200ff" opacity="0.08"/><ellipse cx="18.07" cy="14.56" rx="4.01" ry="4.28" fill="#4200ff" opacity="0.1"/><ellipse cx="18.07" cy="14.55" rx="4" ry="4.27" fill="#4200ff" opacity="0.11"/><ellipse cx="18.07" cy="14.53" rx="3.99" ry="4.25" fill="#4200ff" opacity="0.13"/><ellipse cx="18.07" cy="14.52" rx="3.98" ry="4.24" fill="#4200ff" opacity="0.15"/><ellipse cx="18.07" cy="14.51" rx="3.97" ry="4.23" fill="#4200ff" opacity="0.17"/><ellipse cx="18.07" cy="14.5" rx="3.96" ry="4.21" fill="#4200ff" opacity="0.19"/><ellipse cx="18.07" cy="14.49" rx="3.95" ry="4.2" fill="#4200ff" opacity="0.21"/><ellipse cx="18.07" cy="14.48" rx="3.94" ry="4.18" fill="#4200ff" opacity="0.23"/><ellipse cx="18.07" cy="14.47" rx="3.93" ry="4.17" fill="#4200ff" opacity="0.25"/><ellipse cx="18.07" cy="14.46" rx="3.92" ry="4.16" fill="#4200ff" opacity="0.27"/><ellipse cx="18.07" cy="14.44" rx="3.91" ry="4.14" fill="#4200ff" opacity="0.29"/><ellipse cx="18.07" cy="14.43" rx="3.9" ry="4.13" fill="#4200ff" opacity="0.3"/><ellipse cx="18.07" cy="14.42" rx="3.89" ry="4.11" fill="#4200ff" opacity="0.32"/><ellipse cx="18.07" cy="14.41" rx="3.88" ry="4.1" fill="#4200ff" opacity="0.34"/><ellipse cx="18.07" cy="14.4" rx="3.87" ry="4.08" fill="#4200ff" opacity="0.36"/><ellipse cx="18.07" cy="14.39" rx="3.86" ry="4.07" fill="#4200ff" opacity="0.38"/><ellipse cx="18.07" cy="14.38" rx="3.85" ry="4.06" fill="#4200ff" opacity="0.4"/><ellipse cx="18.07" cy="14.38" rx="3.85" ry="4.06" fill="url(#linear-gradient-9)"/><ellipse cx="18.07" cy="14.38" rx="3.66" ry="3.86" fill="url(#linear-gradient-10)"/><ellipse cx="18.07" cy="14.38" rx="3" ry="3.16" fill="url(#radial-gradient-4)"/><ellipse cx="18.07" cy="14.61" rx="4.06" ry="4.35" fill="#5f00ff" opacity="0"/><ellipse cx="18.07" cy="14.6" rx="4.05" ry="4.34" fill="#5f00ff" opacity="0.02"/><ellipse cx="18.07" cy="14.59" rx="4.04" ry="4.32" fill="#5f00ff" opacity="0.04"/><ellipse cx="18.07" cy="14.58" rx="4.03" ry="4.31" fill="#5f00ff" opacity="0.06"/><ellipse cx="18.07" cy="14.57" rx="4.02" ry="4.3" fill="#5f00ff" opacity="0.08"/><ellipse cx="18.07" cy="14.56" rx="4.01" ry="4.28" fill="#5f00ff" opacity="0.1"/><ellipse cx="18.07" cy="14.55" rx="4" ry="4.27" fill="#5f00ff" opacity="0.11"/><ellipse cx="18.07" cy="14.53" rx="3.99" ry="4.25" fill="#5f00ff" opacity="0.13"/><ellipse cx="18.07" cy="14.52" rx="3.98" ry="4.24" fill="#5f00ff" opacity="0.15"/><ellipse cx="18.07" cy="14.51" rx="3.97" ry="4.23" fill="#5f00ff" opacity="0.17"/><ellipse cx="18.07" cy="14.5" rx="3.96" ry="4.21" fill="#5f00ff" opacity="0.19"/><ellipse cx="18.07" cy="14.49" rx="3.95" ry="4.2" fill="#5f00ff" opacity="0.21"/><ellipse cx="18.07" cy="14.48" rx="3.94" ry="4.18" fill="#5f00ff" opacity="0.23"/><ellipse cx="18.07" cy="14.47" rx="3.93" ry="4.17" fill="#5f00ff" opacity="0.25"/><ellipse cx="18.07" cy="14.46" rx="3.92" ry="4.16" fill="#5f00ff" opacity="0.27"/><ellipse cx="18.07" cy="14.44" rx="3.91" ry="4.14" fill="#5f00ff" opacity="0.29"/><ellipse cx="18.07" cy="14.43" rx="3.9" ry="4.13" fill="#5f00ff" opacity="0.3"/><ellipse cx="18.07" cy="14.42" rx="3.89" ry="4.11" fill="#5f00ff" opacity="0.32"/><ellipse cx="18.07" cy="14.41" rx="3.88" ry="4.1" fill="#5f00ff" opacity="0.34"/><ellipse cx="18.07" cy="14.4" rx="3.87" ry="4.08" fill="#5f00ff" opacity="0.36"/><ellipse cx="18.07" cy="14.39" rx="3.86" ry="4.07" fill="#5f00ff" opacity="0.38"/><ellipse cx="18.07" cy="14.38" rx="3.85" ry="4.06" fill="#5f00ff" opacity="0.4"/><ellipse cx="18.07" cy="14.38" rx="3.85" ry="4.06" fill="url(#linear-gradient-11)"/><ellipse cx="18.07" cy="14.38" rx="3.66" ry="3.86" fill="url(#linear-gradient-12)"/><ellipse cx="18.07" cy="14.38" rx="3" ry="3.16" fill="url(#radial-gradient-5)"/><ellipse cx="18.07" cy="34.8" rx="4.06" ry="4.35" fill="#4200ff" opacity="0"/><ellipse cx="18.07" cy="34.79" rx="4.05" ry="4.34" fill="#4200ff" opacity="0.02"/><ellipse cx="18.07" cy="34.78" rx="4.04" ry="4.32" fill="#4200ff" opacity="0.04"/><ellipse cx="18.07" cy="34.77" rx="4.03" ry="4.31" fill="#4200ff" opacity="0.06"/><ellipse cx="18.07" cy="34.76" rx="4.02" ry="4.3" fill="#4200ff" opacity="0.08"/><ellipse cx="18.07" cy="34.75" rx="4.01" ry="4.28" fill="#4200ff" opacity="0.1"/><ellipse cx="18.07" cy="34.73" rx="4" ry="4.27" fill="#4200ff" opacity="0.11"/><ellipse cx="18.07" cy="34.72" rx="3.99" ry="4.25" fill="#4200ff" opacity="0.13"/><ellipse cx="18.07" cy="34.71" rx="3.98" ry="4.24" fill="#4200ff" opacity="0.15"/><ellipse cx="18.07" cy="34.7" rx="3.97" ry="4.23" fill="#4200ff" opacity="0.17"/><ellipse cx="18.07" cy="34.69" rx="3.96" ry="4.21" fill="#4200ff" opacity="0.19"/><ellipse cx="18.07" cy="34.68" rx="3.95" ry="4.2" fill="#4200ff" opacity="0.21"/><ellipse cx="18.07" cy="34.67" rx="3.94" ry="4.18" fill="#4200ff" opacity="0.23"/><ellipse cx="18.07" cy="34.66" rx="3.93" ry="4.17" fill="#4200ff" opacity="0.25"/><ellipse cx="18.07" cy="34.64" rx="3.92" ry="4.16" fill="#4200ff" opacity="0.27"/><ellipse cx="18.07" cy="34.63" rx="3.91" ry="4.14" fill="#4200ff" opacity="0.29"/><ellipse cx="18.07" cy="34.62" rx="3.9" ry="4.13" fill="#4200ff" opacity="0.3"/><ellipse cx="18.07" cy="34.61" rx="3.89" ry="4.11" fill="#4200ff" opacity="0.32"/><ellipse cx="18.07" cy="34.6" rx="3.88" ry="4.1" fill="#4200ff" opacity="0.34"/><ellipse cx="18.07" cy="34.59" rx="3.87" ry="4.08" fill="#4200ff" opacity="0.36"/><ellipse cx="18.07" cy="34.58" rx="3.86" ry="4.07" fill="#4200ff" opacity="0.38"/><ellipse cx="18.07" cy="34.57" rx="3.85" ry="4.06" fill="#4200ff" opacity="0.4"/><ellipse cx="18.07" cy="34.57" rx="3.85" ry="4.06" fill="url(#linear-gradient-13)"/><ellipse cx="18.07" cy="34.57" rx="3.66" ry="3.86" fill="url(#linear-gradient-14)"/><ellipse cx="18.07" cy="34.57" rx="3" ry="3.16" fill="url(#radial-gradient-6)"/><ellipse cx="18.07" cy="34.8" rx="4.06" ry="4.35" fill="#5f00ff" opacity="0"/><ellipse cx="18.07" cy="34.79" rx="4.05" ry="4.34" fill="#5f00ff" opacity="0.02"/><ellipse cx="18.07" cy="34.78" rx="4.04" ry="4.32" fill="#5f00ff" opacity="0.04"/><ellipse cx="18.07" cy="34.77" rx="4.03" ry="4.31" fill="#5f00ff" opacity="0.06"/><ellipse cx="18.07" cy="34.76" rx="4.02" ry="4.3" fill="#5f00ff" opacity="0.08"/><ellipse cx="18.07" cy="34.75" rx="4.01" ry="4.28" fill="#5f00ff" opacity="0.1"/><ellipse cx="18.07" cy="34.73" rx="4" ry="4.27" fill="#5f00ff" opacity="0.11"/><ellipse cx="18.07" cy="34.72" rx="3.99" ry="4.25" fill="#5f00ff" opacity="0.13"/><ellipse cx="18.07" cy="34.71" rx="3.98" ry="4.24" fill="#5f00ff" opacity="0.15"/><ellipse cx="18.07" cy="34.7" rx="3.97" ry="4.23" fill="#5f00ff" opacity="0.17"/><ellipse cx="18.07" cy="34.69" rx="3.96" ry="4.21" fill="#5f00ff" opacity="0.19"/><ellipse cx="18.07" cy="34.68" rx="3.95" ry="4.2" fill="#5f00ff" opacity="0.21"/><ellipse cx="18.07" cy="34.67" rx="3.94" ry="4.18" fill="#5f00ff" opacity="0.23"/><ellipse cx="18.07" cy="34.66" rx="3.93" ry="4.17" fill="#5f00ff" opacity="0.25"/><ellipse cx="18.07" cy="34.64" rx="3.92" ry="4.16" fill="#5f00ff" opacity="0.27"/><ellipse cx="18.07" cy="34.63" rx="3.91" ry="4.14" fill="#5f00ff" opacity="0.29"/><ellipse cx="18.07" cy="34.62" rx="3.9" ry="4.13" fill="#5f00ff" opacity="0.3"/><ellipse cx="18.07" cy="34.61" rx="3.89" ry="4.11" fill="#5f00ff" opacity="0.32"/><ellipse cx="18.07" cy="34.6" rx="3.88" ry="4.1" fill="#5f00ff" opacity="0.34"/><ellipse cx="18.07" cy="34.59" rx="3.87" ry="4.08" fill="#5f00ff" opacity="0.36"/><ellipse cx="18.07" cy="34.58" rx="3.86" ry="4.07" fill="#5f00ff" opacity="0.38"/><ellipse cx="18.07" cy="34.57" rx="3.85" ry="4.06" fill="#5f00ff" opacity="0.4"/><ellipse cx="18.07" cy="34.57" rx="3.85" ry="4.06" fill="url(#linear-gradient-15)"/><ellipse cx="18.07" cy="34.57" rx="3.66" ry="3.86" fill="url(#linear-gradient-16)"/><ellipse cx="18.07" cy="34.57" rx="3" ry="3.16" fill="url(#radial-gradient-7)"/><ellipse cx="18.07" cy="24.71" rx="4.06" ry="4.35" fill="#4200ff" opacity="0"/><ellipse cx="18.07" cy="24.7" rx="4.05" ry="4.34" fill="#4200ff" opacity="0.02"/><ellipse cx="18.07" cy="24.69" rx="4.04" ry="4.32" fill="#4200ff" opacity="0.04"/><ellipse cx="18.07" cy="24.67" rx="4.03" ry="4.31" fill="#4200ff" opacity="0.06"/><ellipse cx="18.07" cy="24.66" rx="4.02" ry="4.3" fill="#4200ff" opacity="0.08"/><ellipse cx="18.07" cy="24.65" rx="4.01" ry="4.28" fill="#4200ff" opacity="0.1"/><ellipse cx="18.07" cy="24.64" rx="4" ry="4.27" fill="#4200ff" opacity="0.11"/><ellipse cx="18.07" cy="24.63" rx="3.99" ry="4.25" fill="#4200ff" opacity="0.13"/><ellipse cx="18.07" cy="24.62" rx="3.98" ry="4.24" fill="#4200ff" opacity="0.15"/><ellipse cx="18.07" cy="24.61" rx="3.97" ry="4.23" fill="#4200ff" opacity="0.17"/><ellipse cx="18.07" cy="24.6" rx="3.96" ry="4.21" fill="#4200ff" opacity="0.19"/><ellipse cx="18.07" cy="24.58" rx="3.95" ry="4.2" fill="#4200ff" opacity="0.21"/><ellipse cx="18.07" cy="24.57" rx="3.94" ry="4.18" fill="#4200ff" opacity="0.23"/><ellipse cx="18.07" cy="24.56" rx="3.93" ry="4.17" fill="#4200ff" opacity="0.25"/><ellipse cx="18.07" cy="24.55" rx="3.92" ry="4.16" fill="#4200ff" opacity="0.27"/><ellipse cx="18.07" cy="24.54" rx="3.91" ry="4.14" fill="#4200ff" opacity="0.29"/><ellipse cx="18.07" cy="24.53" rx="3.9" ry="4.13" fill="#4200ff" opacity="0.3"/><ellipse cx="18.07" cy="24.52" rx="3.89" ry="4.11" fill="#4200ff" opacity="0.32"/><ellipse cx="18.07" cy="24.51" rx="3.88" ry="4.1" fill="#4200ff" opacity="0.34"/><ellipse cx="18.07" cy="24.49" rx="3.87" ry="4.08" fill="#4200ff" opacity="0.36"/><ellipse cx="18.07" cy="24.48" rx="3.86" ry="4.07" fill="#4200ff" opacity="0.38"/><ellipse cx="18.07" cy="24.47" rx="3.85" ry="4.06" fill="#4200ff" opacity="0.4"/><ellipse cx="18.07" cy="24.47" rx="3.85" ry="4.06" fill="url(#linear-gradient-17)"/><ellipse cx="18.07" cy="24.47" rx="3.66" ry="3.86" fill="url(#linear-gradient-18)"/><ellipse cx="18.07" cy="24.47" rx="3" ry="3.16" fill="url(#radial-gradient-8)"/><ellipse cx="18.07" cy="24.71" rx="4.06" ry="4.35" fill="#5f00ff" opacity="0"/><ellipse cx="18.07" cy="24.7" rx="4.05" ry="4.34" fill="#5f00ff" opacity="0.02"/><ellipse cx="18.07" cy="24.69" rx="4.04" ry="4.32" fill="#5f00ff" opacity="0.04"/><ellipse cx="18.07" cy="24.67" rx="4.03" ry="4.31" fill="#5f00ff" opacity="0.06"/><ellipse cx="18.07" cy="24.66" rx="4.02" ry="4.3" fill="#5f00ff" opacity="0.08"/><ellipse cx="18.07" cy="24.65" rx="4.01" ry="4.28" fill="#5f00ff" opacity="0.1"/><ellipse cx="18.07" cy="24.64" rx="4" ry="4.27" fill="#5f00ff" opacity="0.11"/><ellipse cx="18.07" cy="24.63" rx="3.99" ry="4.25" fill="#5f00ff" opacity="0.13"/><ellipse cx="18.07" cy="24.62" rx="3.98" ry="4.24" fill="#5f00ff" opacity="0.15"/><ellipse cx="18.07" cy="24.61" rx="3.97" ry="4.23" fill="#5f00ff" opacity="0.17"/><ellipse cx="18.07" cy="24.6" rx="3.96" ry="4.21" fill="#5f00ff" opacity="0.19"/><ellipse cx="18.07" cy="24.58" rx="3.95" ry="4.2" fill="#5f00ff" opacity="0.21"/><ellipse cx="18.07" cy="24.57" rx="3.94" ry="4.18" fill="#5f00ff" opacity="0.23"/><ellipse cx="18.07" cy="24.56" rx="3.93" ry="4.17" fill="#5f00ff" opacity="0.25"/><ellipse cx="18.07" cy="24.55" rx="3.92" ry="4.16" fill="#5f00ff" opacity="0.27"/><ellipse cx="18.07" cy="24.54" rx="3.91" ry="4.14" fill="#5f00ff" opacity="0.29"/><ellipse cx="18.07" cy="24.53" rx="3.9" ry="4.13" fill="#5f00ff" opacity="0.3"/><ellipse cx="18.07" cy="24.52" rx="3.89" ry="4.11" fill="#5f00ff" opacity="0.32"/><ellipse cx="18.07" cy="24.51" rx="3.88" ry="4.1" fill="#5f00ff" opacity="0.34"/><ellipse cx="18.07" cy="24.49" rx="3.87" ry="4.08" fill="#5f00ff" opacity="0.36"/><ellipse cx="18.07" cy="24.48" rx="3.86" ry="4.07" fill="#5f00ff" opacity="0.38"/><ellipse cx="18.07" cy="24.47" rx="3.85" ry="4.06" fill="#5f00ff" opacity="0.4"/><ellipse cx="18.07" cy="24.47" rx="3.85" ry="4.06" fill="url(#linear-gradient-19)"/><ellipse cx="18.07" cy="24.47" rx="3.66" ry="3.86" fill="url(#linear-gradient-20)"/><ellipse cx="18.07" cy="24.47" rx="3" ry="3.16" fill="url(#radial-gradient-9)"/><ellipse cx="18.07" cy="44.9" rx="4.06" ry="4.35" fill="#4200ff" opacity="0"/><ellipse cx="18.07" cy="44.89" rx="4.05" ry="4.34" fill="#4200ff" opacity="0.02"/><ellipse cx="18.07" cy="44.87" rx="4.04" ry="4.32" fill="#4200ff" opacity="0.04"/><ellipse cx="18.07" cy="44.86" rx="4.03" ry="4.31" fill="#4200ff" opacity="0.06"/><ellipse cx="18.07" cy="44.85" rx="4.02" ry="4.3" fill="#4200ff" opacity="0.08"/><ellipse cx="18.07" cy="44.84" rx="4.01" ry="4.28" fill="#4200ff" opacity="0.1"/><ellipse cx="18.07" cy="44.83" rx="4" ry="4.27" fill="#4200ff" opacity="0.11"/><ellipse cx="18.07" cy="44.82" rx="3.99" ry="4.25" fill="#4200ff" opacity="0.13"/><ellipse cx="18.07" cy="44.81" rx="3.98" ry="4.24" fill="#4200ff" opacity="0.15"/><ellipse cx="18.07" cy="44.8" rx="3.97" ry="4.23" fill="#4200ff" opacity="0.17"/><ellipse cx="18.07" cy="44.78" rx="3.96" ry="4.21" fill="#4200ff" opacity="0.19"/><ellipse cx="18.07" cy="44.77" rx="3.95" ry="4.2" fill="#4200ff" opacity="0.21"/><ellipse cx="18.07" cy="44.76" rx="3.94" ry="4.18" fill="#4200ff" opacity="0.23"/><ellipse cx="18.07" cy="44.75" rx="3.93" ry="4.17" fill="#4200ff" opacity="0.25"/><ellipse cx="18.07" cy="44.74" rx="3.92" ry="4.16" fill="#4200ff" opacity="0.27"/><ellipse cx="18.07" cy="44.73" rx="3.91" ry="4.14" fill="#4200ff" opacity="0.29"/><ellipse cx="18.07" cy="44.72" rx="3.9" ry="4.13" fill="#4200ff" opacity="0.3"/><ellipse cx="18.07" cy="44.71" rx="3.89" ry="4.11" fill="#4200ff" opacity="0.32"/><ellipse cx="18.07" cy="44.69" rx="3.88" ry="4.1" fill="#4200ff" opacity="0.34"/><ellipse cx="18.07" cy="44.68" rx="3.87" ry="4.08" fill="#4200ff" opacity="0.36"/><ellipse cx="18.07" cy="44.67" rx="3.86" ry="4.07" fill="#4200ff" opacity="0.38"/><ellipse cx="18.07" cy="44.66" rx="3.85" ry="4.06" fill="#4200ff" opacity="0.4"/><ellipse cx="18.07" cy="44.66" rx="3.85" ry="4.06" fill="url(#linear-gradient-21)"/><ellipse cx="18.07" cy="44.66" rx="3.66" ry="3.86" fill="url(#linear-gradient-22)"/><ellipse cx="18.07" cy="44.66" rx="3" ry="3.16" fill="url(#radial-gradient-10)"/><ellipse cx="18.07" cy="44.9" rx="4.06" ry="4.35" fill="#5f00ff" opacity="0"/><ellipse cx="18.07" cy="44.89" rx="4.05" ry="4.34" fill="#5f00ff" opacity="0.02"/><ellipse cx="18.07" cy="44.87" rx="4.04" ry="4.32" fill="#5f00ff" opacity="0.04"/><ellipse cx="18.07" cy="44.86" rx="4.03" ry="4.31" fill="#5f00ff" opacity="0.06"/><ellipse cx="18.07" cy="44.85" rx="4.02" ry="4.3" fill="#5f00ff" opacity="0.08"/><ellipse cx="18.07" cy="44.84" rx="4.01" ry="4.28" fill="#5f00ff" opacity="0.1"/><ellipse cx="18.07" cy="44.83" rx="4" ry="4.27" fill="#5f00ff" opacity="0.11"/><ellipse cx="18.07" cy="44.82" rx="3.99" ry="4.25" fill="#5f00ff" opacity="0.13"/><ellipse cx="18.07" cy="44.81" rx="3.98" ry="4.24" fill="#5f00ff" opacity="0.15"/><ellipse cx="18.07" cy="44.8" rx="3.97" ry="4.23" fill="#5f00ff" opacity="0.17"/><ellipse cx="18.07" cy="44.78" rx="3.96" ry="4.21" fill="#5f00ff" opacity="0.19"/><ellipse cx="18.07" cy="44.77" rx="3.95" ry="4.2" fill="#5f00ff" opacity="0.21"/><ellipse cx="18.07" cy="44.76" rx="3.94" ry="4.18" fill="#5f00ff" opacity="0.23"/><ellipse cx="18.07" cy="44.75" rx="3.93" ry="4.17" fill="#5f00ff" opacity="0.25"/><ellipse cx="18.07" cy="44.74" rx="3.92" ry="4.16" fill="#5f00ff" opacity="0.27"/><ellipse cx="18.07" cy="44.73" rx="3.91" ry="4.14" fill="#5f00ff" opacity="0.29"/><ellipse cx="18.07" cy="44.72" rx="3.9" ry="4.13" fill="#5f00ff" opacity="0.3"/><ellipse cx="18.07" cy="44.71" rx="3.89" ry="4.11" fill="#5f00ff" opacity="0.32"/><ellipse cx="18.07" cy="44.69" rx="3.88" ry="4.1" fill="#5f00ff" opacity="0.34"/><ellipse cx="18.07" cy="44.68" rx="3.87" ry="4.08" fill="#5f00ff" opacity="0.36"/><ellipse cx="18.07" cy="44.67" rx="3.86" ry="4.07" fill="#5f00ff" opacity="0.38"/><ellipse cx="18.07" cy="44.66" rx="3.85" ry="4.06" fill="#5f00ff" opacity="0.4"/><ellipse cx="18.07" cy="44.66" rx="3.85" ry="4.06" fill="url(#linear-gradient-23)"/><ellipse cx="18.07" cy="44.66" rx="3.66" ry="3.86" fill="url(#linear-gradient-24)"/><ellipse cx="18.07" cy="44.66" rx="3" ry="3.16" fill="url(#radial-gradient-11)"/><ellipse cx="26.56" cy="44.9" rx="4.06" ry="4.35" fill="#610000" opacity="0"/><ellipse cx="26.56" cy="44.89" rx="4.05" ry="4.34" fill="#610000" opacity="0.02"/><ellipse cx="26.56" cy="44.87" rx="4.04" ry="4.32" fill="#610000" opacity="0.04"/><ellipse cx="26.56" cy="44.86" rx="4.03" ry="4.31" fill="#610000" opacity="0.06"/><ellipse cx="26.56" cy="44.85" rx="4.02" ry="4.3" fill="#610000" opacity="0.08"/><ellipse cx="26.56" cy="44.84" rx="4.01" ry="4.28" fill="#610000" opacity="0.1"/><ellipse cx="26.56" cy="44.83" rx="4" ry="4.27" fill="#610000" opacity="0.11"/><ellipse cx="26.56" cy="44.82" rx="3.99" ry="4.25" fill="#610000" opacity="0.13"/><ellipse cx="26.56" cy="44.81" rx="3.98" ry="4.24" fill="#610000" opacity="0.15"/><ellipse cx="26.56" cy="44.8" rx="3.97" ry="4.23" fill="#610000" opacity="0.17"/><ellipse cx="26.56" cy="44.78" rx="3.96" ry="4.21" fill="#610000" opacity="0.19"/><ellipse cx="26.56" cy="44.77" rx="3.95" ry="4.2" fill="#610000" opacity="0.21"/><ellipse cx="26.56" cy="44.76" rx="3.94" ry="4.18" fill="#610000" opacity="0.23"/><ellipse cx="26.56" cy="44.75" rx="3.93" ry="4.17" fill="#610000" opacity="0.25"/><ellipse cx="26.56" cy="44.74" rx="3.92" ry="4.16" fill="#610000" opacity="0.27"/><ellipse cx="26.56" cy="44.73" rx="3.91" ry="4.14" fill="#610000" opacity="0.29"/><ellipse cx="26.56" cy="44.72" rx="3.9" ry="4.13" fill="#610000" opacity="0.3"/><ellipse cx="26.56" cy="44.71" rx="3.89" ry="4.11" fill="#610000" opacity="0.32"/><ellipse cx="26.56" cy="44.69" rx="3.88" ry="4.1" fill="#610000" opacity="0.34"/><ellipse cx="26.56" cy="44.68" rx="3.87" ry="4.08" fill="#610000" opacity="0.36"/><ellipse cx="26.56" cy="44.67" rx="3.86" ry="4.07" fill="#610000" opacity="0.38"/><ellipse cx="26.56" cy="44.66" rx="3.85" ry="4.06" fill="#610000" opacity="0.4"/><ellipse cx="26.56" cy="44.66" rx="3.85" ry="4.06" fill="url(#linear-gradient-25)"/><ellipse cx="26.56" cy="44.66" rx="3.66" ry="3.86" fill="url(#linear-gradient-26)"/><ellipse cx="26.56" cy="44.66" rx="3" ry="3.16" fill="url(#radial-gradient-12)"/><ellipse cx="18.07" cy="54.99" rx="4.06" ry="4.35" fill="#4200ff" opacity="0"/><ellipse cx="18.07" cy="54.98" rx="4.05" ry="4.34" fill="#4200ff" opacity="0.02"/><ellipse cx="18.07" cy="54.97" rx="4.04" ry="4.32" fill="#4200ff" opacity="0.04"/><ellipse cx="18.07" cy="54.96" rx="4.03" ry="4.31" fill="#4200ff" opacity="0.06"/><ellipse cx="18.07" cy="54.95" rx="4.02" ry="4.3" fill="#4200ff" opacity="0.08"/><ellipse cx="18.07" cy="54.93" rx="4.01" ry="4.28" fill="#4200ff" opacity="0.1"/><ellipse cx="18.07" cy="54.92" rx="4" ry="4.27" fill="#4200ff" opacity="0.11"/><ellipse cx="18.07" cy="54.91" rx="3.99" ry="4.25" fill="#4200ff" opacity="0.13"/><ellipse cx="18.07" cy="54.9" rx="3.98" ry="4.24" fill="#4200ff" opacity="0.15"/><ellipse cx="18.07" cy="54.89" rx="3.97" ry="4.23" fill="#4200ff" opacity="0.17"/><ellipse cx="18.07" cy="54.88" rx="3.96" ry="4.21" fill="#4200ff" opacity="0.19"/><ellipse cx="18.07" cy="54.87" rx="3.95" ry="4.2" fill="#4200ff" opacity="0.21"/><ellipse cx="18.07" cy="54.86" rx="3.94" ry="4.18" fill="#4200ff" opacity="0.23"/><ellipse cx="18.07" cy="54.85" rx="3.93" ry="4.17" fill="#4200ff" opacity="0.25"/><ellipse cx="18.07" cy="54.83" rx="3.92" ry="4.16" fill="#4200ff" opacity="0.27"/><ellipse cx="18.07" cy="54.82" rx="3.91" ry="4.14" fill="#4200ff" opacity="0.29"/><ellipse cx="18.07" cy="54.81" rx="3.9" ry="4.13" fill="#4200ff" opacity="0.3"/><ellipse cx="18.07" cy="54.8" rx="3.89" ry="4.11" fill="#4200ff" opacity="0.32"/><ellipse cx="18.07" cy="54.79" rx="3.88" ry="4.1" fill="#4200ff" opacity="0.34"/><ellipse cx="18.07" cy="54.78" rx="3.87" ry="4.08" fill="#4200ff" opacity="0.36"/><ellipse cx="18.07" cy="54.77" rx="3.86" ry="4.07" fill="#4200ff" opacity="0.38"/><ellipse cx="18.07" cy="54.76" rx="3.85" ry="4.06" fill="#4200ff" opacity="0.4"/><ellipse cx="18.07" cy="54.76" rx="3.85" ry="4.06" fill="url(#linear-gradient-27)"/><ellipse cx="18.07" cy="54.76" rx="3.66" ry="3.86" fill="url(#linear-gradient-28)"/><ellipse cx="18.07" cy="54.76" rx="3" ry="3.16" fill="url(#radial-gradient-13)"/><ellipse cx="18.07" cy="54.99" rx="4.06" ry="4.35" fill="#5f00ff" opacity="0"/><ellipse cx="18.07" cy="54.98" rx="4.05" ry="4.34" fill="#5f00ff" opacity="0.02"/><ellipse cx="18.07" cy="54.97" rx="4.04" ry="4.32" fill="#5f00ff" opacity="0.04"/><ellipse cx="18.07" cy="54.96" rx="4.03" ry="4.31" fill="#5f00ff" opacity="0.06"/><ellipse cx="18.07" cy="54.95" rx="4.02" ry="4.3" fill="#5f00ff" opacity="0.08"/><ellipse cx="18.07" cy="54.93" rx="4.01" ry="4.28" fill="#5f00ff" opacity="0.1"/><ellipse cx="18.07" cy="54.92" rx="4" ry="4.27" fill="#5f00ff" opacity="0.11"/><ellipse cx="18.07" cy="54.91" rx="3.99" ry="4.25" fill="#5f00ff" opacity="0.13"/><ellipse cx="18.07" cy="54.9" rx="3.98" ry="4.24" fill="#5f00ff" opacity="0.15"/><ellipse cx="18.07" cy="54.89" rx="3.97" ry="4.23" fill="#5f00ff" opacity="0.17"/><ellipse cx="18.07" cy="54.88" rx="3.96" ry="4.21" fill="#5f00ff" opacity="0.19"/><ellipse cx="18.07" cy="54.87" rx="3.95" ry="4.2" fill="#5f00ff" opacity="0.21"/><ellipse cx="18.07" cy="54.86" rx="3.94" ry="4.18" fill="#5f00ff" opacity="0.23"/><ellipse cx="18.07" cy="54.85" rx="3.93" ry="4.17" fill="#5f00ff" opacity="0.25"/><ellipse cx="18.07" cy="54.83" rx="3.92" ry="4.16" fill="#5f00ff" opacity="0.27"/><ellipse cx="18.07" cy="54.82" rx="3.91" ry="4.14" fill="#5f00ff" opacity="0.29"/><ellipse cx="18.07" cy="54.81" rx="3.9" ry="4.13" fill="#5f00ff" opacity="0.3"/><ellipse cx="18.07" cy="54.8" rx="3.89" ry="4.11" fill="#5f00ff" opacity="0.32"/><ellipse cx="18.07" cy="54.79" rx="3.88" ry="4.1" fill="#5f00ff" opacity="0.34"/><ellipse cx="18.07" cy="54.78" rx="3.87" ry="4.08" fill="#5f00ff" opacity="0.36"/><ellipse cx="18.07" cy="54.77" rx="3.86" ry="4.07" fill="#5f00ff" opacity="0.38"/><ellipse cx="18.07" cy="54.76" rx="3.85" ry="4.06" fill="#5f00ff" opacity="0.4"/><ellipse cx="18.07" cy="54.76" rx="3.85" ry="4.06" fill="url(#linear-gradient-29)"/><ellipse cx="18.07" cy="54.76" rx="3.66" ry="3.86" fill="url(#linear-gradient-30)"/><ellipse cx="18.07" cy="54.76" rx="3" ry="3.16" fill="url(#radial-gradient-14)"/><ellipse cx="26.56" cy="54.99" rx="4.06" ry="4.35" fill="#610000" opacity="0"/><ellipse cx="26.56" cy="54.98" rx="4.05" ry="4.34" fill="#610000" opacity="0.02"/><ellipse cx="26.56" cy="54.97" rx="4.04" ry="4.32" fill="#610000" opacity="0.04"/><ellipse cx="26.56" cy="54.96" rx="4.03" ry="4.31" fill="#610000" opacity="0.06"/><ellipse cx="26.56" cy="54.95" rx="4.02" ry="4.3" fill="#610000" opacity="0.08"/><ellipse cx="26.56" cy="54.93" rx="4.01" ry="4.28" fill="#610000" opacity="0.1"/><ellipse cx="26.56" cy="54.92" rx="4" ry="4.27" fill="#610000" opacity="0.11"/><ellipse cx="26.56" cy="54.91" rx="3.99" ry="4.25" fill="#610000" opacity="0.13"/><ellipse cx="26.56" cy="54.9" rx="3.98" ry="4.24" fill="#610000" opacity="0.15"/><ellipse cx="26.56" cy="54.89" rx="3.97" ry="4.23" fill="#610000" opacity="0.17"/><ellipse cx="26.56" cy="54.88" rx="3.96" ry="4.21" fill="#610000" opacity="0.19"/><ellipse cx="26.56" cy="54.87" rx="3.95" ry="4.2" fill="#610000" opacity="0.21"/><ellipse cx="26.56" cy="54.86" rx="3.94" ry="4.18" fill="#610000" opacity="0.23"/><ellipse cx="26.56" cy="54.85" rx="3.93" ry="4.17" fill="#610000" opacity="0.25"/><ellipse cx="26.56" cy="54.83" rx="3.92" ry="4.16" fill="#610000" opacity="0.27"/><ellipse cx="26.56" cy="54.82" rx="3.91" ry="4.14" fill="#610000" opacity="0.29"/><ellipse cx="26.56" cy="54.81" rx="3.9" ry="4.13" fill="#610000" opacity="0.3"/><ellipse cx="26.56" cy="54.8" rx="3.89" ry="4.11" fill="#610000" opacity="0.32"/><ellipse cx="26.56" cy="54.79" rx="3.88" ry="4.1" fill="#610000" opacity="0.34"/><ellipse cx="26.56" cy="54.78" rx="3.87" ry="4.08" fill="#610000" opacity="0.36"/><ellipse cx="26.56" cy="54.77" rx="3.86" ry="4.07" fill="#610000" opacity="0.38"/><ellipse cx="26.56" cy="54.76" rx="3.85" ry="4.06" fill="#610000" opacity="0.4"/><ellipse cx="26.56" cy="54.76" rx="3.85" ry="4.06" fill="url(#linear-gradient-31)"/><ellipse cx="26.56" cy="54.76" rx="3.66" ry="3.86" fill="url(#linear-gradient-32)"/><ellipse cx="26.56" cy="54.76" rx="3" ry="3.16" fill="url(#radial-gradient-15)"/><ellipse cx="9.57" cy="14.61" rx="4.06" ry="4.35" fill="#4200ff" opacity="0"/><ellipse cx="9.57" cy="14.6" rx="4.05" ry="4.34" fill="#4200ff" opacity="0.02"/><ellipse cx="9.57" cy="14.59" rx="4.04" ry="4.32" fill="#4200ff" opacity="0.04"/><ellipse cx="9.57" cy="14.58" rx="4.03" ry="4.31" fill="#4200ff" opacity="0.06"/><ellipse cx="9.57" cy="14.57" rx="4.02" ry="4.3" fill="#4200ff" opacity="0.08"/><ellipse cx="9.57" cy="14.56" rx="4.01" ry="4.28" fill="#4200ff" opacity="0.1"/><ellipse cx="9.57" cy="14.55" rx="4" ry="4.27" fill="#4200ff" opacity="0.11"/><ellipse cx="9.57" cy="14.53" rx="3.99" ry="4.25" fill="#4200ff" opacity="0.13"/><ellipse cx="9.57" cy="14.52" rx="3.98" ry="4.24" fill="#4200ff" opacity="0.15"/><ellipse cx="9.57" cy="14.51" rx="3.97" ry="4.23" fill="#4200ff" opacity="0.17"/><ellipse cx="9.57" cy="14.5" rx="3.96" ry="4.21" fill="#4200ff" opacity="0.19"/><ellipse cx="9.57" cy="14.49" rx="3.95" ry="4.2" fill="#4200ff" opacity="0.21"/><ellipse cx="9.57" cy="14.48" rx="3.94" ry="4.18" fill="#4200ff" opacity="0.23"/><ellipse cx="9.57" cy="14.47" rx="3.93" ry="4.17" fill="#4200ff" opacity="0.25"/><ellipse cx="9.57" cy="14.46" rx="3.92" ry="4.16" fill="#4200ff" opacity="0.27"/><ellipse cx="9.57" cy="14.44" rx="3.91" ry="4.14" fill="#4200ff" opacity="0.29"/><ellipse cx="9.57" cy="14.43" rx="3.9" ry="4.13" fill="#4200ff" opacity="0.3"/><ellipse cx="9.57" cy="14.42" rx="3.89" ry="4.11" fill="#4200ff" opacity="0.32"/><ellipse cx="9.57" cy="14.41" rx="3.88" ry="4.1" fill="#4200ff" opacity="0.34"/><ellipse cx="9.57" cy="14.4" rx="3.87" ry="4.08" fill="#4200ff" opacity="0.36"/><ellipse cx="9.57" cy="14.39" rx="3.86" ry="4.07" fill="#4200ff" opacity="0.38"/><ellipse cx="9.57" cy="14.38" rx="3.85" ry="4.06" fill="#4200ff" opacity="0.4"/><ellipse cx="9.57" cy="14.38" rx="3.85" ry="4.06" fill="url(#linear-gradient-33)"/><ellipse cx="9.57" cy="14.38" rx="3.66" ry="3.86" fill="url(#linear-gradient-34)"/><ellipse cx="9.57" cy="14.38" rx="3" ry="3.16" fill="url(#radial-gradient-16)"/><ellipse cx="9.57" cy="14.61" rx="4.06" ry="4.35" fill="#5f00ff" opacity="0"/><ellipse cx="9.57" cy="14.6" rx="4.05" ry="4.34" fill="#5f00ff" opacity="0.02"/><ellipse cx="9.57" cy="14.59" rx="4.04" ry="4.32" fill="#5f00ff" opacity="0.04"/><ellipse cx="9.57" cy="14.58" rx="4.03" ry="4.31" fill="#5f00ff" opacity="0.06"/><ellipse cx="9.57" cy="14.57" rx="4.02" ry="4.3" fill="#5f00ff" opacity="0.08"/><ellipse cx="9.57" cy="14.56" rx="4.01" ry="4.28" fill="#5f00ff" opacity="0.1"/><ellipse cx="9.57" cy="14.55" rx="4" ry="4.27" fill="#5f00ff" opacity="0.11"/><ellipse cx="9.57" cy="14.53" rx="3.99" ry="4.25" fill="#5f00ff" opacity="0.13"/><ellipse cx="9.57" cy="14.52" rx="3.98" ry="4.24" fill="#5f00ff" opacity="0.15"/><ellipse cx="9.57" cy="14.51" rx="3.97" ry="4.23" fill="#5f00ff" opacity="0.17"/><ellipse cx="9.57" cy="14.5" rx="3.96" ry="4.21" fill="#5f00ff" opacity="0.19"/><ellipse cx="9.57" cy="14.49" rx="3.95" ry="4.2" fill="#5f00ff" opacity="0.21"/><ellipse cx="9.57" cy="14.48" rx="3.94" ry="4.18" fill="#5f00ff" opacity="0.23"/><ellipse cx="9.57" cy="14.47" rx="3.93" ry="4.17" fill="#5f00ff" opacity="0.25"/><ellipse cx="9.57" cy="14.46" rx="3.92" ry="4.16" fill="#5f00ff" opacity="0.27"/><ellipse cx="9.57" cy="14.44" rx="3.91" ry="4.14" fill="#5f00ff" opacity="0.29"/><ellipse cx="9.57" cy="14.43" rx="3.9" ry="4.13" fill="#5f00ff" opacity="0.3"/><ellipse cx="9.57" cy="14.42" rx="3.89" ry="4.11" fill="#5f00ff" opacity="0.32"/><ellipse cx="9.57" cy="14.41" rx="3.88" ry="4.1" fill="#5f00ff" opacity="0.34"/><ellipse cx="9.57" cy="14.4" rx="3.87" ry="4.08" fill="#5f00ff" opacity="0.36"/><ellipse cx="9.57" cy="14.39" rx="3.86" ry="4.07" fill="#5f00ff" opacity="0.38"/><ellipse cx="9.57" cy="14.38" rx="3.85" ry="4.06" fill="#5f00ff" opacity="0.4"/><ellipse cx="9.57" cy="14.38" rx="3.85" ry="4.06" fill="url(#linear-gradient-35)"/><ellipse cx="9.57" cy="14.38" rx="3.66" ry="3.86" fill="url(#linear-gradient-36)"/><ellipse cx="9.57" cy="14.38" rx="3" ry="3.16" fill="url(#radial-gradient-17)"/><ellipse cx="35.06" cy="14.61" rx="4.06" ry="4.35" fill="#610000" opacity="0"/><ellipse cx="35.06" cy="14.6" rx="4.05" ry="4.34" fill="#610000" opacity="0.02"/><ellipse cx="35.06" cy="14.59" rx="4.04" ry="4.32" fill="#610000" opacity="0.04"/><ellipse cx="35.06" cy="14.58" rx="4.03" ry="4.31" fill="#610000" opacity="0.06"/><ellipse cx="35.06" cy="14.57" rx="4.02" ry="4.3" fill="#610000" opacity="0.08"/><ellipse cx="35.06" cy="14.56" rx="4.01" ry="4.28" fill="#610000" opacity="0.1"/><ellipse cx="35.06" cy="14.55" rx="4" ry="4.27" fill="#610000" opacity="0.11"/><ellipse cx="35.06" cy="14.53" rx="3.99" ry="4.25" fill="#610000" opacity="0.13"/><ellipse cx="35.06" cy="14.52" rx="3.98" ry="4.24" fill="#610000" opacity="0.15"/><ellipse cx="35.06" cy="14.51" rx="3.97" ry="4.23" fill="#610000" opacity="0.17"/><ellipse cx="35.06" cy="14.5" rx="3.96" ry="4.21" fill="#610000" opacity="0.19"/><ellipse cx="35.06" cy="14.49" rx="3.95" ry="4.2" fill="#610000" opacity="0.21"/><ellipse cx="35.06" cy="14.48" rx="3.94" ry="4.18" fill="#610000" opacity="0.23"/><ellipse cx="35.06" cy="14.47" rx="3.93" ry="4.17" fill="#610000" opacity="0.25"/><ellipse cx="35.06" cy="14.46" rx="3.92" ry="4.16" fill="#610000" opacity="0.27"/><ellipse cx="35.06" cy="14.44" rx="3.91" ry="4.14" fill="#610000" opacity="0.29"/><ellipse cx="35.06" cy="14.43" rx="3.9" ry="4.13" fill="#610000" opacity="0.3"/><ellipse cx="35.06" cy="14.42" rx="3.89" ry="4.11" fill="#610000" opacity="0.32"/><ellipse cx="35.06" cy="14.41" rx="3.88" ry="4.1" fill="#610000" opacity="0.34"/><ellipse cx="35.06" cy="14.4" rx="3.87" ry="4.08" fill="#610000" opacity="0.36"/><ellipse cx="35.06" cy="14.39" rx="3.86" ry="4.07" fill="#610000" opacity="0.38"/><ellipse cx="35.06" cy="14.38" rx="3.85" ry="4.06" fill="#610000" opacity="0.4"/><ellipse cx="35.06" cy="14.38" rx="3.85" ry="4.06" fill="url(#linear-gradient-37)"/><ellipse cx="35.06" cy="14.38" rx="3.66" ry="3.86" fill="url(#linear-gradient-38)"/><ellipse cx="35.06" cy="14.38" rx="3" ry="3.16" fill="url(#radial-gradient-18)"/><path d="M17,24.48v18.6h3.59v2.4H10v-2.4h4.32V27.93l-4,3L8.75,29,15,24.48Z"/><path d="M23.6,45.48a6.68,6.68,0,0,1-.09-1.11,8.3,8.3,0,0,1,.71-3.48A12.56,12.56,0,0,1,26,38.06a22.17,22.17,0,0,1,2.28-2.37q1.22-1.09,2.28-2.1a13.68,13.68,0,0,0,1.77-2A3.65,3.65,0,0,0,33,29.43a2.66,2.66,0,0,0-.94-2.08,3.52,3.52,0,0,0-2.42-.83,5.31,5.31,0,0,0-2.31.5,7.76,7.76,0,0,0-1.95,1.33L23.9,26.52a10.4,10.4,0,0,1,2.67-1.74,8.2,8.2,0,0,1,3.4-.66,7.25,7.25,0,0,1,2.43.39,5.39,5.39,0,0,1,1.87,1.09,5,5,0,0,1,1.19,1.63,4.79,4.79,0,0,1,.42,2,5.56,5.56,0,0,1-.65,2.66,11.81,11.81,0,0,1-1.63,2.31,23.58,23.58,0,0,1-2.14,2.1q-1.16,1-2.19,2.05a15.7,15.7,0,0,0-1.8,2.19A5.45,5.45,0,0,0,26.56,43h9.3v2.46Z"/></svg>