<svg id="Layer_1" data-name="Layer 1" xmlns="http://www.w3.org/2000/svg" xmlns:xlink="http://www.w3.org/1999/xlink" viewBox="0 0 45 70"><defs><linearGradient id="linear-gradient" x1="14.43" y1="2.97" x2="30.12" y2="66.3" gradientUnits="userSpaceOnUse"><stop offset="0" stop-color="#fdefae"/><stop offset="0.54" stop-color="#fcf5c0"/><stop offset="0.71" stop-color="#fae5ad"/><stop offset="1" stop-color="#f2dfab"/></linearGradient><linearGradient id="linear-gradient-2" x1="-327.81" y1="-103.54" x2="-290.52" y2="-51.86" gradientTransform="translate(329.81 110.19)" gradientUnits="userSpaceOnUse"><stop offset="0" stop-color="#fdefae"/><stop offset="0.54" stop-color="#fcf5c0"/><stop offset="0.78" stop-color="#fbebb4"/><stop offset="1" stop-color="#f2dfab"/></linearGradient><linearGradient id="linear-gradient-3" x1="26.56" y1="10.56" x2="26.56" y2="19.01" gradientUnits="userSpaceOnUse"><stop offset="0" stop-color="#ffa400"/><stop offset="1" stop-color="#ff6800"/></linearGradient><linearGradient id="linear-gradient-4" x1="26.56" y1="18.2" x2="26.56" y2="10.56" xlink:href="#linear-gradient-3"/><radialGradient id="radial-gradient" cx="43.41" cy="-30.55" r="3.39" gradientTransform="translate(-11.87 42.87) scale(0.89 0.93)" gradientUnits="userSpaceOnUse"><stop offset="0" stop-color="#ff7d00"/><stop offset="1" stop-color="#ffa400"/></radialGradient><linearGradient id="linear-gradient-5" x1="26.56" y1="20.65" x2="26.56" y2="29.1" xlink:href="#linear-gradient-3"/><linearGradient id="linear-gradient-6" x1="26.56" y1="28.3" x2="26.56" y2="20.65" xlink:href="#linear-gradient-3"/><radialGradient id="radial-gradient-2" cx="43.41" cy="-19.73" r="3.39" xlink:href="#radial-gradient"/><linearGradient id="linear-gradient-7" x1="18.07" y1="10.56" x2="18.07" y2="19.01" gradientUnits="userSpaceOnUse"><stop offset="0" stop-color="#ff8dff"/><stop offset="1" stop-color="#ff51ff"/></linearGradient><linearGradient id="linear-gradient-8" x1="18.07" y1="18.2" x2="18.07" y2="10.56" xlink:href="#linear-gradient-7"/><radialGradient id="radial-gradient-3" cx="55.6" cy="16.8" r="3.39" gradientTransform="translate(-31.16 -1.29) scale(0.89 0.93)" gradientUnits="userSpaceOnUse"><stop offset="0" stop-color="#f6f"/><stop offset="1" stop-color="#ff8dff"/></radialGradient><linearGradient id="linear-gradient-9" x1="18.07" y1="10.34" x2="18.07" y2="18.89" gradientUnits="userSpaceOnUse"><stop offset="0" stop-color="#caa8ff"/><stop offset="1" stop-color="#6d33ff"/></linearGradient><linearGradient id="linear-gradient-10" x1="18.07" y1="18.2" x2="18.07" y2="10.56" xlink:href="#linear-gradient-9"/><radialGradient id="radial-gradient-4" cx="55.6" cy="16.8" r="3.39" gradientTransform="translate(-31.16 -1.29) scale(0.89 0.93)" gradientUnits="userSpaceOnUse"><stop offset="0" stop-color="#8b84ff"/><stop offset="1" stop-color="#caa8ff"/></radialGradient><linearGradient id="linear-gradient-11" x1="18.07" y1="30.75" x2="18.07" y2="39.2" xlink:href="#linear-gradient-7"/><linearGradient id="linear-gradient-12" x1="18.07" y1="38.39" x2="18.07" y2="30.75" xlink:href="#linear-gradient-7"/><radialGradient id="radial-gradient-5" cx="55.6" cy="38.45" r="3.39" xlink:href="#radial-gradient-3"/><linearGradient id="linear-gradient-13" x1="18.07" y1="30.53" x2="18.07" y2="39.08" xlink:href="#linear-gradient-9"/><linearGradient id="linear-gradient-14" x1="18.07" y1="38.39" x2="18.07" y2="30.75" xlink:href="#linear-gradient-9"/><radialGradient id="radial-gradient-6" cx="55.6" cy="38.45" r="3.39" xlink:href="#radial-gradient-4"/><linearGradient id="linear-gradient-15" x1="18.07" y1="20.65" x2="18.07" y2="29.1" xlink:href="#linear-gradient-7"/><linearGradient id="linear-gradient-16" x1="18.07" y1="28.3" x2="18.07" y2="20.65" xlink:href="#linear-gradient-7"/><radialGradient id="radial-gradient-7" cx="55.6" cy="27.63" r="3.39" xlink:href="#radial-gradient-3"/><linearGradient id="linear-gradient-17" x1="18.07" y1="20.43" x2="18.07" y2="28.98" xlink:href="#linear-gradient-9"/><linearGradient id="linear-gradient-18" x1="18.07" y1="28.3" x2="18.07" y2="20.65" xlink:href="#linear-gradient-9"/><radialGradient id="radial-gradient-8" cx="55.6" cy="27.63" r="3.39" xlink:href="#radial-gradient-4"/><linearGradient id="linear-gradient-19" x1="26.56" y1="30.75" x2="26.56" y2="39.2" xlink:href="#linear-gradient-3"/><linearGradient id="linear-gradient-20" x1="26.56" y1="38.39" x2="26.56" y2="30.75" xlink:href="#linear-gradient-3"/><radialGradient id="radial-gradient-9" cx="43.41" cy="-8.9" r="3.39" xlink:href="#radial-gradient"/></defs><title>card6</title><path d="M41.13,70H4.24A4,4,0,0,1,.37,66V4.44A4,4,0,0,1,4.24.4H41.13a4,4,0,0,1,3.87,4V66a4,4,0,0,1-3.87,4Z" fill="#543918"/><path d="M40.76,69.6H3.87a4,4,0,0,1-3.87-4V4A4,4,0,0,1,3.87,0H40.76a4,4,0,0,1,3.87,4V65.56a4,4,0,0,1-3.87,4Z" fill="#9f7f4b"/><path d="M.18,65.56a3.78,3.78,0,0,0,3.69,3.84H40.76a3.78,3.78,0,0,0,3.69-3.84V4A3.78,3.78,0,0,0,40.76.2H3.87A3.78,3.78,0,0,0,.18,4Z" fill="url(#linear-gradient)"/><path d="M40.76,67H3.87A1.5,1.5,0,0,1,2.4,65.56V4A1.49,1.49,0,0,1,3.87,2.57H40.76A1.49,1.49,0,0,1,42.23,4V65.56A1.49,1.49,0,0,1,40.76,67Z" fill="url(#linear-gradient-2)"/><path d="M38.71,5.91H5.92A1.56,1.56,0,0,0,4.38,7.45V62.16A1.56,1.56,0,0,0,5.92,63.7h32.8a1.56,1.56,0,0,0,1.53-1.54V7.45A1.56,1.56,0,0,0,38.71,5.91Zm1.09,56.25a1.1,1.1,0,0,1-1.09,1.08H5.92a1.1,1.1,0,0,1-1.09-1.08V7.45A1.1,1.1,0,0,1,5.92,6.37h32.8a1.1,1.1,0,0,1,1.09,1.08Z"/><ellipse cx="26.56" cy="14.61" rx="4.06" ry="4.35" fill="#610000" opacity="0"/><ellipse cx="26.56" cy="14.6" rx="4.05" ry="4.34" fill="#610000" opacity="0.02"/><ellipse cx="26.56" cy="14.59" rx="4.04" ry="4.32" fill="#610000" opacity="0.04"/><ellipse cx="26.56" cy="14.58" rx="4.03" ry="4.31" fill="#610000" opacity="0.06"/><ellipse cx="26.56" cy="14.57" rx="4.02" ry="4.3" fill="#610000" opacity="0.08"/><ellipse cx="26.56" cy="14.56" rx="4.01" ry="4.28" fill="#610000" opacity="0.1"/><ellipse cx="26.56" cy="14.55" rx="4" ry="4.27" fill="#610000" opacity="0.11"/><ellipse cx="26.56" cy="14.53" rx="3.99" ry="4.25" fill="#610000" opacity="0.13"/><ellipse cx="26.56" cy="14.52" rx="3.98" ry="4.24" fill="#610000" opacity="0.15"/><ellipse cx="26.56" cy="14.51" rx="3.97" ry="4.23" fill="#610000" opacity="0.17"/><ellipse cx="26.56" cy="14.5" rx="3.96" ry="4.21" fill="#610000" opacity="0.19"/><ellipse cx="26.56" cy="14.49" rx="3.95" ry="4.2" fill="#610000" opacity="0.21"/><ellipse cx="26.56" cy="14.48" rx="3.94" ry="4.18" fill="#610000" opacity="0.23"/><ellipse cx="26.56" cy="14.47" rx="3.93" ry="4.17" fill="#610000" opacity="0.25"/><ellipse cx="26.56" cy="14.46" rx="3.92" ry="4.16" fill="#610000" opacity="0.27"/><ellipse cx="26.56" cy="14.44" rx="3.91" ry="4.14" fill="#610000" opacity="0.29"/><ellipse cx="26.56" cy="14.43" rx="3.9" ry="4.13" fill="#610000" opacity="0.3"/><ellipse cx="26.56" cy="14.42" rx="3.89" ry="4.11" fill="#610000" opacity="0.32"/><ellipse cx="26.56" cy="14.41" rx="3.88" ry="4.1" fill="#610000" opacity="0.34"/><ellipse cx="26.56" cy="14.4" rx="3.87" ry="4.08" fill="#610000" opacity="0.36"/><ellipse cx="26.56" cy="14.39" rx="3.86" ry="4.07" fill="#610000" opacity="0.38"/><ellipse cx="26.56" cy="14.38" rx="3.85" ry="4.06" fill="#610000" opacity="0.4"/><ellipse cx="26.56" cy="14.38" rx="3.85" ry="4.06" fill="url(#linear-gradient-3)"/><ellipse cx="26.56" cy="14.38" rx="3.66" ry="3.86" fill="url(#linear-gradient-4)"/><ellipse cx="26.56" cy="14.38" rx="3" ry="3.16" fill="url(#radial-gradient)"/><ellipse cx="26.56" cy="24.71" rx="4.06" ry="4.35" fill="#610000" opacity="0"/><ellipse cx="26.56" cy="24.7" rx="4.05" ry="4.34" fill="#610000" opacity="0.02"/><ellipse cx="26.56" cy="24.69" rx="4.04" ry="4.32" fill="#610000" opacity="0.04"/><ellipse cx="26.56" cy="24.67" rx="4.03" ry="4.31" fill="#610000" opacity="0.06"/><ellipse cx="26.56" cy="24.66" rx="4.02" ry="4.3" fill="#610000" opacity="0.08"/><ellipse cx="26.56" cy="24.65" rx="4.01" ry="4.28" fill="#610000" opacity="0.1"/><ellipse cx="26.56" cy="24.64" rx="4" ry="4.27" fill="#610000" opacity="0.11"/><ellipse cx="26.56" cy="24.63" rx="3.99" ry="4.25" fill="#610000" opacity="0.13"/><ellipse cx="26.56" cy="24.62" rx="3.98" ry="4.24" fill="#610000" opacity="0.15"/><ellipse cx="26.56" cy="24.61" rx="3.97" ry="4.23" fill="#610000" opacity="0.17"/><ellipse cx="26.56" cy="24.6" rx="3.96" ry="4.21" fill="#610000" opacity="0.19"/><ellipse cx="26.56" cy="24.58" rx="3.95" ry="4.2" fill="#610000" opacity="0.21"/><ellipse cx="26.56" cy="24.57" rx="3.94" ry="4.18" fill="#610000" opacity="0.23"/><ellipse cx="26.56" cy="24.56" rx="3.93" ry="4.17" fill="#610000" opacity="0.25"/><ellipse cx="26.56" cy="24.55" rx="3.92" ry="4.16" fill="#610000" opacity="0.27"/><ellipse cx="26.56" cy="24.54" rx="3.91" ry="4.14" fill="#610000" opacity="0.29"/><ellipse cx="26.56" cy="24.53" rx="3.9" ry="4.13" fill="#610000" opacity="0.3"/><ellipse cx="26.56" cy="24.52" rx="3.89" ry="4.11" fill="#610000" opacity="0.32"/><ellipse cx="26.56" cy="24.51" rx="3.88" ry="4.1" fill="#610000" opacity="0.34"/><ellipse cx="26.56" cy="24.49" rx="3.87" ry="4.08" fill="#610000" opacity="0.36"/><ellipse cx="26.56" cy="24.48" rx="3.86" ry="4.07" fill="#610000" opacity="0.38"/><ellipse cx="26.56" cy="24.47" rx="3.85" ry="4.06" fill="#610000" opacity="0.4"/><ellipse cx="26.56" cy="24.47" rx="3.85" ry="4.06" fill="url(#linear-gradient-5)"/><ellipse cx="26.56" cy="24.47" rx="3.66" ry="3.86" fill="url(#linear-gradient-6)"/><ellipse cx="26.56" cy="24.47" rx="3" ry="3.16" fill="url(#radial-gradient-2)"/><ellipse cx="18.07" cy="14.61" rx="4.06" ry="4.35" fill="#4200ff" opacity="0"/><ellipse cx="18.07" cy="14.6" rx="4.05" ry="4.34" fill="#4200ff" opacity="0.02"/><ellipse cx="18.07" cy="14.59" rx="4.04" ry="4.32" fill="#4200ff" opacity="0.04"/><ellipse cx="18.07" cy="14.58" rx="4.03" ry="4.31" fill="#4200ff" opacity="0.06"/><ellipse cx="18.07" cy="14.57" rx="4.02" ry="4.3" fill="#4200ff" opacity="0.08"/><ellipse cx="18.07" cy="14.56" rx="4.01" ry="4.28" fill="#4200ff" opacity="0.1"/><ellipse cx="18.07" cy="14.55" rx="4" ry="4.27" fill="#4200ff" opacity="0.11"/><ellipse cx="18.07" cy="14.53" rx="3.99" ry="4.25" fill="#4200ff" opacity="0.13"/><ellipse cx="18.07" cy="14.52" rx="3.98" ry="4.24" fill="#4200ff" opacity="0.15"/><ellipse cx="18.07" cy="14.51" rx="3.97" ry="4.23" fill="#4200ff" opacity="0.17"/><ellipse cx="18.07" cy="14.5" rx="3.96" ry="4.21" fill="#4200ff" opacity="0.19"/><ellipse cx="18.07" cy="14.49" rx="3.95" ry="4.2" fill="#4200ff" opacity="0.21"/><ellipse cx="18.07" cy="14.48" rx="3.94" ry="4.18" fill="#4200ff" opacity="0.23"/><ellipse cx="18.07" cy="14.47" rx="3.93" ry="4.17" fill="#4200ff" opacity="0.25"/><ellipse cx="18.07" cy="14.46" rx="3.92" ry="4.16" fill="#4200ff" opacity="0.27"/><ellipse cx="18.07" cy="14.44" rx="3.91" ry="4.14" fill="#4200ff" opacity="0.29"/><ellipse cx="18.07" cy="14.43" rx="3.9" ry="4.13" fill="#4200ff" opacity="0.3"/><ellipse cx="18.07" cy="14.42" rx="3.89" ry="4.11" fill="#4200ff" opacity="0.32"/><ellipse cx="18.07" cy="14.41" rx="3.88" ry="4.1" fill="#4200ff" opacity="0.34"/><ellipse cx="18.07" cy="14.4" rx="3.87" ry="4.08" fill="#4200ff" opacity="0.36"/><ellipse cx="18.07" cy="14.39" rx="3.86" ry="4.07" fill="#4200ff" opacity="0.38"/><ellipse cx="18.07" cy="14.38" rx="3.85" ry="4.06" fill="#4200ff" opacity="0.4"/><ellipse cx="18.07" cy="14.38" rx="3.85" ry="4.06" fill="url(#linear-gradient-7)"/><ellipse cx="18.07" cy="14.38" rx="3.66" ry="3.86" fill="url(#linear-gradient-8)"/><ellipse cx="18.07" cy="14.38" rx="3" ry="3.16" fill="url(#radial-gradient-3)"/><ellipse cx="18.07" cy="14.61" rx="4.06" ry="4.35" fill="#5f00ff" opacity="0"/><ellipse cx="18.07" cy="14.6" rx="4.05" ry="4.34" fill="#5f00ff" opacity="0.02"/><ellipse cx="18.07" cy="14.59" rx="4.04" ry="4.32" fill="#5f00ff" opacity="0.04"/><ellipse cx="18.07" cy="14.58" rx="4.03" ry="4.31" fill="#5f00ff" opacity="0.06"/><ellipse cx="18.07" cy="14.57" rx="4.02" ry="4.3" fill="#5f00ff" opacity="0.08"/><ellipse cx="18.07" cy="14.56" rx="4.01" ry="4.28" fill="#5f00ff" opacity="0.1"/><ellipse cx="18.07" cy="14.55" rx="4" ry="4.27" fill="#5f00ff" opacity="0.11"/><ellipse cx="18.07" cy="14.53" rx="3.99" ry="4.25" fill="#5f00ff" opacity="0.13"/><ellipse cx="18.07" cy="14.52" rx="3.98" ry="4.24" fill="#5f00ff" opacity="0.15"/><ellipse cx="18.07" cy="14.51" rx="3.97" ry="4.23" fill="#5f00ff" opacity="0.17"/><ellipse cx="18.07" cy="14.5" rx="3.96" ry="4.21" fill="#5f00ff" opacity="0.19"/><ellipse cx="18.07" cy="14.49" rx="3.95" ry="4.2" fill="#5f00ff" opacity="0.21"/><ellipse cx="18.07" cy="14.48" rx="3.94" ry="4.18" fill="#5f00ff" opacity="0.23"/><ellipse cx="18.07" cy="14.47" rx="3.93" ry="4.17" fill="#5f00ff" opacity="0.25"/><ellipse cx="18.07" cy="14.46" rx="3.92" ry="4.16" fill="#5f00ff" opacity="0.27"/><ellipse cx="18.07" cy="14.44" rx="3.91" ry="4.14" fill="#5f00ff" opacity="0.29"/><ellipse cx="18.07" cy="14.43" rx="3.9" ry="4.13" fill="#5f00ff" opacity="0.3"/><ellipse cx="18.07" cy="14.42" rx="3.89" ry="4.11" fill="#5f00ff" opacity="0.32"/><ellipse cx="18.07" cy="14.41" rx="3.88" ry="4.1" fill="#5f00ff" opacity="0.34"/><ellipse cx="18.07" cy="14.4" rx="3.87" ry="4.08" fill="#5f00ff" opacity="0.36"/><ellipse cx="18.07" cy="14.39" rx="3.86" ry="4.07" fill="#5f00ff" opacity="0.38"/><ellipse cx="18.07" cy="14.38" rx="3.85" ry="4.06" fill="#5f00ff" opacity="0.4"/><ellipse cx="18.07" cy="14.38" rx="3.85" ry="4.06" fill="url(#linear-gradient-9)"/><ellipse cx="18.07" cy="14.38" rx="3.66" ry="3.86" fill="url(#linear-gradient-10)"/><ellipse cx="18.07" cy="14.38" rx="3" ry="3.16" fill="url(#radial-gradient-4)"/><ellipse cx="18.07" cy="34.8" rx="4.06" ry="4.35" fill="#4200ff" opacity="0"/><ellipse cx="18.07" cy="34.79" rx="4.05" ry="4.34" fill="#4200ff" opacity="0.02"/><ellipse cx="18.07" cy="34.78" rx="4.04" ry="4.32" fill="#4200ff" opacity="0.04"/><ellipse cx="18.07" cy="34.77" rx="4.03" ry="4.31" fill="#4200ff" opacity="0.06"/><ellipse cx="18.07" cy="34.76" rx="4.02" ry="4.3" fill="#4200ff" opacity="0.08"/><ellipse cx="18.07" cy="34.75" rx="4.01" ry="4.28" fill="#4200ff" opacity="0.1"/><ellipse cx="18.07" cy="34.73" rx="4" ry="4.27" fill="#4200ff" opacity="0.11"/><ellipse cx="18.07" cy="34.72" rx="3.99" ry="4.25" fill="#4200ff" opacity="0.13"/><ellipse cx="18.07" cy="34.71" rx="3.98" ry="4.24" fill="#4200ff" opacity="0.15"/><ellipse cx="18.07" cy="34.7" rx="3.97" ry="4.23" fill="#4200ff" opacity="0.17"/><ellipse cx="18.07" cy="34.69" rx="3.96" ry="4.21" fill="#4200ff" opacity="0.19"/><ellipse cx="18.07" cy="34.68" rx="3.95" ry="4.2" fill="#4200ff" opacity="0.21"/><ellipse cx="18.07" cy="34.67" rx="3.94" ry="4.18" fill="#4200ff" opacity="0.23"/><ellipse cx="18.07" cy="34.66" rx="3.93" ry="4.17" fill="#4200ff" opacity="0.25"/><ellipse cx="18.07" cy="34.64" rx="3.92" ry="4.16" fill="#4200ff" opacity="0.27"/><ellipse cx="18.07" cy="34.63" rx="3.91" ry="4.14" fill="#4200ff" opacity="0.29"/><ellipse cx="18.07" cy="34.62" rx="3.9" ry="4.13" fill="#4200ff" opacity="0.3"/><ellipse cx="18.07" cy="34.61" rx="3.89" ry="4.11" fill="#4200ff" opacity="0.32"/><ellipse cx="18.07" cy="34.6" rx="3.88" ry="4.1" fill="#4200ff" opacity="0.34"/><ellipse cx="18.07" cy="34.59" rx="3.87" ry="4.08" fill="#4200ff" opacity="0.36"/><ellipse cx="18.07" cy="34.58" rx="3.86" ry="4.07" fill="#4200ff" opacity="0.38"/><ellipse cx="18.07" cy="34.57" rx="3.85" ry="4.06" fill="#4200ff" opacity="0.4"/><ellipse cx="18.07" cy="34.57" rx="3.85" ry="4.06" fill="url(#linear-gradient-11)"/><ellipse cx="18.07" cy="34.57" rx="3.66" ry="3.86" fill="url(#linear-gradient-12)"/><ellipse cx="18.07" cy="34.57" rx="3" ry="3.16" fill="url(#radial-gradient-5)"/><ellipse cx="18.07" cy="34.8" rx="4.06" ry="4.35" fill="#5f00ff" opacity="0"/><ellipse cx="18.07" cy="34.79" rx="4.05" ry="4.34" fill="#5f00ff" opacity="0.02"/><ellipse cx="18.07" cy="34.78" rx="4.04" ry="4.32" fill="#5f00ff" opacity="0.04"/><ellipse cx="18.07" cy="34.77" rx="4.03" ry="4.31" fill="#5f00ff" opacity="0.06"/><ellipse cx="18.07" cy="34.76" rx="4.02" ry="4.3" fill="#5f00ff" opacity="0.08"/><ellipse cx="18.07" cy="34.75" rx="4.01" ry="4.28" fill="#5f00ff" opacity="0.1"/><ellipse cx="18.07" cy="34.73" rx="4" ry="4.27" fill="#5f00ff" opacity="0.11"/><ellipse cx="18.07" cy="34.72" rx="3.99" ry="4.25" fill="#5f00ff" opacity="0.13"/><ellipse cx="18.07" cy="34.71" rx="3.98" ry="4.24" fill="#5f00ff" opacity="0.15"/><ellipse cx="18.07" cy="34.7" rx="3.97" ry="4.23" fill="#5f00ff" opacity="0.17"/><ellipse cx="18.07" cy="34.69" rx="3.96" ry="4.21" fill="#5f00ff" opacity="0.19"/><ellipse cx="18.07" cy="34.68" rx="3.95" ry="4.2" fill="#5f00ff" opacity="0.21"/><ellipse cx="18.07" cy="34.67" rx="3.94" ry="4.18" fill="#5f00ff" opacity="0.23"/><ellipse cx="18.07" cy="34.66" rx="3.93" ry="4.17" fill="#5f00ff" opacity="0.25"/><ellipse cx="18.07" cy="34.64" rx="3.92" ry="4.16" fill="#5f00ff" opacity="0.27"/><ellipse cx="18.07" cy="34.63" rx="3.91" ry="4.14" fill="#5f00ff" opacity="0.29"/><ellipse cx="18.07" cy="34.62" rx="3.9" ry="4.13" fill="#5f00ff" opacity="0.3"/><ellipse cx="18.07" cy="34.61" rx="3.89" ry="4.11" fill="#5f00ff" opacity="0.32"/><ellipse cx="18.07" cy="34.6" rx="3.88" ry="4.1" fill="#5f00ff" opacity="0.34"/><ellipse cx="18.07" cy="34.59" rx="3.87" ry="4.08" fill="#5f00ff" opacity="0.36"/><ellipse cx="18.07" cy="34.58" rx="3.86" ry="4.07" fill="#5f00ff" opacity="0.38"/><ellipse cx="18.07" cy="34.57" rx="3.85" ry="4.06" fill="#5f00ff" opacity="0.4"/><ellipse cx="18.07" cy="34.57" rx="3.85" ry="4.06" fill="url(#linear-gradient-13)"/><ellipse cx="18.07" cy="34.57" rx="3.66" ry="3.86" fill="url(#linear-gradient-14)"/><ellipse cx="18.07" cy="34.57" rx="3" ry="3.16" fill="url(#radial-gradient-6)"/><ellipse cx="18.07" cy="24.71" rx="4.06" ry="4.35" fill="#4200ff" opacity="0"/><ellipse cx="18.07" cy="24.7" rx="4.05" ry="4.34" fill="#4200ff" opacity="0.02"/><ellipse cx="18.07" cy="24.69" rx="4.04" ry="4.32" fill="#4200ff" opacity="0.04"/><ellipse cx="18.07" cy="24.67" rx="4.03" ry="4.31" fill="#4200ff" opacity="0.06"/><ellipse cx="18.07" cy="24.66" rx="4.02" ry="4.3" fill="#4200ff" opacity="0.08"/><ellipse cx="18.07" cy="24.65" rx="4.01" ry="4.28" fill="#4200ff" opacity="0.1"/><ellipse cx="18.07" cy="24.64" rx="4" ry="4.27" fill="#4200ff" opacity="0.11"/><ellipse cx="18.07" cy="24.63" rx="3.99" ry="4.25" fill="#4200ff" opacity="0.13"/><ellipse cx="18.07" cy="24.62" rx="3.98" ry="4.24" fill="#4200ff" opacity="0.15"/><ellipse cx="18.07" cy="24.61" rx="3.97" ry="4.23" fill="#4200ff" opacity="0.17"/><ellipse cx="18.07" cy="24.6" rx="3.96" ry="4.21" fill="#4200ff" opacity="0.19"/><ellipse cx="18.07" cy="24.58" rx="3.95" ry="4.2" fill="#4200ff" opacity="0.21"/><ellipse cx="18.07" cy="24.57" rx="3.94" ry="4.18" fill="#4200ff" opacity="0.23"/><ellipse cx="18.07" cy="24.56" rx="3.93" ry="4.17" fill="#4200ff" opacity="0.25"/><ellipse cx="18.07" cy="24.55" rx="3.92" ry="4.16" fill="#4200ff" opacity="0.27"/><ellipse cx="18.07" cy="24.54" rx="3.91" ry="4.14" fill="#4200ff" opacity="0.29"/><ellipse cx="18.07" cy="24.53" rx="3.9" ry="4.13" fill="#4200ff" opacity="0.3"/><ellipse cx="18.07" cy="24.52" rx="3.89" ry="4.11" fill="#4200ff" opacity="0.32"/><ellipse cx="18.07" cy="24.51" rx="3.88" ry="4.1" fill="#4200ff" opacity="0.34"/><ellipse cx="18.07" cy="24.49" rx="3.87" ry="4.08" fill="#4200ff" opacity="0.36"/><ellipse cx="18.07" cy="24.48" rx="3.86" ry="4.07" fill="#4200ff" opacity="0.38"/><ellipse cx="18.07" cy="24.47" rx="3.85" ry="4.06" fill="#4200ff" opacity="0.4"/><ellipse cx="18.07" cy="24.47" rx="3.85" ry="4.06" fill="url(#linear-gradient-15)"/><ellipse cx="18.07" cy="24.47" rx="3.66" ry="3.86" fill="url(#linear-gradient-16)"/><ellipse cx="18.07" cy="24.47" rx="3" ry="3.16" fill="url(#radial-gradient-7)"/><ellipse cx="18.07" cy="24.71" rx="4.06" ry="4.35" fill="#5f00ff" opacity="0"/><ellipse cx="18.07" cy="24.7" rx="4.05" ry="4.34" fill="#5f00ff" opacity="0.02"/><ellipse cx="18.07" cy="24.69" rx="4.04" ry="4.32" fill="#5f00ff" opacity="0.04"/><ellipse cx="18.07" cy="24.67" rx="4.03" ry="4.31" fill="#5f00ff" opacity="0.06"/><ellipse cx="18.07" cy="24.66" rx="4.02" ry="4.3" fill="#5f00ff" opacity="0.08"/><ellipse cx="18.07" cy="24.65" rx="4.01" ry="4.28" fill="#5f00ff" opacity="0.1"/><ellipse cx="18.07" cy="24.64" rx="4" ry="4.27" fill="#5f00ff" opacity="0.11"/><ellipse cx="18.07" cy="24.63" rx="3.99" ry="4.25" fill="#5f00ff" opacity="0.13"/><ellipse cx="18.07" cy="24.62" rx="3.98" ry="4.24" fill="#5f00ff" opacity="0.15"/><ellipse cx="18.07" cy="24.61" rx="3.97" ry="4.23" fill="#5f00ff" opacity="0.17"/><ellipse cx="18.07" cy="24.6" rx="3.96" ry="4.21" fill="#5f00ff" opacity="0.19"/><ellipse cx="18.07" cy="24.58" rx="3.95" ry="4.2" fill="#5f00ff" opacity="0.21"/><ellipse cx="18.07" cy="24.57" rx="3.94" ry="4.18" fill="#5f00ff" opacity="0.23"/><ellipse cx="18.07" cy="24.56" rx="3.93" ry="4.17" fill="#5f00ff" opacity="0.25"/><ellipse cx="18.07" cy="24.55" rx="3.92" ry="4.16" fill="#5f00ff" opacity="0.27"/><ellipse cx="18.07" cy="24.54" rx="3.91" ry="4.14" fill="#5f00ff" opacity="0.29"/><ellipse cx="18.07" cy="24.53" rx="3.9" ry="4.13" fill="#5f00ff" opacity="0.3"/><ellipse cx="18.07" cy="24.52" rx="3.89" ry="4.11" fill="#5f00ff" opacity="0.32"/><ellipse cx="18.07" cy="24.51" rx="3.88" ry="4.1" fill="#5f00ff" opacity="0.34"/><ellipse cx="18.07" cy="24.49" rx="3.87" ry="4.08" fill="#5f00ff" opacity="0.36"/><ellipse cx="18.07" cy="24.48" rx="3.86" ry="4.07" fill="#5f00ff" opacity="0.38"/><ellipse cx="18.07" cy="24.47" rx="3.85" ry="4.06" fill="#5f00ff" opacity="0.4"/><ellipse cx="18.07" cy="24.47" rx="3.85" ry="4.06" fill="url(#linear-gradient-17)"/><ellipse cx="18.07" cy="24.47" rx="3.66" ry="3.86" fill="url(#linear-gradient-18)"/><ellipse cx="18.07" cy="24.47" rx="3" ry="3.16" fill="url(#radial-gradient-8)"/><ellipse cx="26.56" cy="34.8" rx="4.06" ry="4.35" fill="#610000" opacity="0"/><ellipse cx="26.56" cy="34.79" rx="4.05" ry="4.34" fill="#610000" opacity="0.02"/><ellipse cx="26.56" cy="34.78" rx="4.04" ry="4.32" fill="#610000" opacity="0.04"/><ellipse cx="26.56" cy="34.77" rx="4.03" ry="4.31" fill="#610000" opacity="0.06"/><ellipse cx="26.56" cy="34.76" rx="4.02" ry="4.3" fill="#610000" opacity="0.08"/><ellipse cx="26.56" cy="34.75" rx="4.01" ry="4.28" fill="#610000" opacity="0.1"/><ellipse cx="26.56" cy="34.73" rx="4" ry="4.27" fill="#610000" opacity="0.11"/><ellipse cx="26.56" cy="34.72" rx="3.99" ry="4.25" fill="#610000" opacity="0.13"/><ellipse cx="26.56" cy="34.71" rx="3.98" ry="4.24" fill="#610000" opacity="0.15"/><ellipse cx="26.56" cy="34.7" rx="3.97" ry="4.23" fill="#610000" opacity="0.17"/><ellipse cx="26.56" cy="34.69" rx="3.96" ry="4.21" fill="#610000" opacity="0.19"/><ellipse cx="26.56" cy="34.68" rx="3.95" ry="4.2" fill="#610000" opacity="0.21"/><ellipse cx="26.56" cy="34.67" rx="3.94" ry="4.18" fill="#610000" opacity="0.23"/><ellipse cx="26.56" cy="34.66" rx="3.93" ry="4.17" fill="#610000" opacity="0.25"/><ellipse cx="26.56" cy="34.64" rx="3.92" ry="4.16" fill="#610000" opacity="0.27"/><ellipse cx="26.56" cy="34.63" rx="3.91" ry="4.14" fill="#610000" opacity="0.29"/><ellipse cx="26.56" cy="34.62" rx="3.9" ry="4.13" fill="#610000" opacity="0.3"/><ellipse cx="26.56" cy="34.61" rx="3.89" ry="4.11" fill="#610000" opacity="0.32"/><ellipse cx="26.56" cy="34.6" rx="3.88" ry="4.1" fill="#610000" opacity="0.34"/><ellipse cx="26.56" cy="34.59" rx="3.87" ry="4.08" fill="#610000" opacity="0.36"/><ellipse cx="26.56" cy="34.58" rx="3.86" ry="4.07" fill="#610000" opacity="0.38"/><ellipse cx="26.56" cy="34.57" rx="3.85" ry="4.06" fill="#610000" opacity="0.4"/><ellipse cx="26.56" cy="34.57" rx="3.85" ry="4.06" fill="url(#linear-gradient-19)"/><ellipse cx="26.56" cy="34.57" rx="3.66" ry="3.86" fill="url(#linear-gradient-20)"/><ellipse cx="26.56" cy="34.57" rx="3" ry="3.16" fill="url(#radial-gradient-9)"/><path d="M26.22,26.55a7.6,7.6,0,0,0-5.43,2A9,9,0,0,0,18.19,34a9.15,9.15,0,0,1,2.16-1.49,6.55,6.55,0,0,1,3-.67,6,6,0,0,1,2.34.45,5.55,5.55,0,0,1,1.86,1.26,5.85,5.85,0,0,1,1.24,2,7.06,7.06,0,0,1,.45,2.6,8.49,8.49,0,0,1-.51,3,6.86,6.86,0,0,1-1.42,2.33A6.41,6.41,0,0,1,25.17,45a6.94,6.94,0,0,1-2.75.54A7.15,7.15,0,0,1,19.69,45a6,6,0,0,1-2.25-1.62,7.89,7.89,0,0,1-1.52-2.77,12.57,12.57,0,0,1-.56-4,16.49,16.49,0,0,1,.69-4.83,11.91,11.91,0,0,1,2.05-4,9.85,9.85,0,0,1,3.38-2.71,10.46,10.46,0,0,1,4.71-1h.59l.56,0v2.46l-.54,0Zm-3.53,7.56a5.14,5.14,0,0,0-2.49.63,7.35,7.35,0,0,0-2.07,1.68v.66a9.11,9.11,0,0,0,.38,2.52,5.94,5.94,0,0,0,.94,1.88,4.07,4.07,0,0,0,1.39,1.17,3.73,3.73,0,0,0,1.71.41,3.84,3.84,0,0,0,1.65-.35,3.73,3.73,0,0,0,1.27-1,4.38,4.38,0,0,0,.81-1.46,5.62,5.62,0,0,0,.29-1.83,4.59,4.59,0,0,0-1.06-3.15A3.56,3.56,0,0,0,22.69,34.11Z"/></svg>