<svg id="Layer_1" data-name="Layer 1" xmlns="http://www.w3.org/2000/svg" xmlns:xlink="http://www.w3.org/1999/xlink" viewBox="0 0 45 70"><defs><linearGradient id="linear-gradient" x1="14.43" y1="2.97" x2="30.12" y2="66.3" gradientUnits="userSpaceOnUse"><stop offset="0" stop-color="#fdefae"/><stop offset="0.54" stop-color="#fcf5c0"/><stop offset="0.71" stop-color="#fae5ad"/><stop offset="1" stop-color="#f2dfab"/></linearGradient><linearGradient id="linear-gradient-2" x1="-327.81" y1="-103.54" x2="-290.52" y2="-51.86" gradientTransform="translate(329.81 110.19)" gradientUnits="userSpaceOnUse"><stop offset="0" stop-color="#fdefae"/><stop offset="0.54" stop-color="#fcf5c0"/><stop offset="0.78" stop-color="#fbebb4"/><stop offset="1" stop-color="#f2dfab"/></linearGradient><linearGradient id="linear-gradient-3" x1="18.07" y1="10.56" x2="18.07" y2="19.01" gradientUnits="userSpaceOnUse"><stop offset="0" stop-color="#ff8dff"/><stop offset="1" stop-color="#ff51ff"/></linearGradient><linearGradient id="linear-gradient-4" x1="18.07" y1="18.2" x2="18.07" y2="10.56" xlink:href="#linear-gradient-3"/><radialGradient id="radial-gradient" cx="55.64" cy="16.75" r="3.39" gradientTransform="translate(-31.19 -1.25) scale(0.89 0.93)" gradientUnits="userSpaceOnUse"><stop offset="0" stop-color="#f6f"/><stop offset="1" stop-color="#ff8dff"/></radialGradient><linearGradient id="linear-gradient-5" x1="18.07" y1="10.34" x2="18.07" y2="18.89" gradientUnits="userSpaceOnUse"><stop offset="0" stop-color="#caa8ff"/><stop offset="1" stop-color="#6d33ff"/></linearGradient><linearGradient id="linear-gradient-6" x1="18.07" y1="18.2" x2="18.07" y2="10.56" xlink:href="#linear-gradient-5"/><radialGradient id="radial-gradient-2" cx="55.64" cy="16.75" r="3.39" gradientTransform="translate(-31.19 -1.25) scale(0.89 0.93)" gradientUnits="userSpaceOnUse"><stop offset="0" stop-color="#8b84ff"/><stop offset="1" stop-color="#caa8ff"/></radialGradient></defs><title>card1</title><path d="M41.13,70H4.24A4,4,0,0,1,.37,66V4.44A4,4,0,0,1,4.24.4H41.13a4,4,0,0,1,3.87,4V66a4,4,0,0,1-3.87,4Z" fill="#543918"/><path d="M40.76,69.6H3.87a4,4,0,0,1-3.87-4V4A4,4,0,0,1,3.87,0H40.76a4,4,0,0,1,3.87,4V65.56a4,4,0,0,1-3.87,4Z" fill="#9f7f4b"/><path d="M.18,65.56a3.78,3.78,0,0,0,3.69,3.84H40.76a3.78,3.78,0,0,0,3.69-3.84V4A3.78,3.78,0,0,0,40.76.2H3.87A3.78,3.78,0,0,0,.18,4Z" fill="url(#linear-gradient)"/><path d="M40.76,67H3.87A1.5,1.5,0,0,1,2.4,65.56V4A1.49,1.49,0,0,1,3.87,2.57H40.76A1.49,1.49,0,0,1,42.23,4V65.56A1.49,1.49,0,0,1,40.76,67Z" fill="url(#linear-gradient-2)"/><path d="M38.71,5.91H5.92A1.56,1.56,0,0,0,4.38,7.45V62.16A1.56,1.56,0,0,0,5.92,63.7h32.8a1.56,1.56,0,0,0,1.53-1.54V7.45A1.56,1.56,0,0,0,38.71,5.91Zm1.09,56.25a1.1,1.1,0,0,1-1.09,1.08H5.92a1.1,1.1,0,0,1-1.09-1.08V7.45A1.1,1.1,0,0,1,5.92,6.37h32.8a1.1,1.1,0,0,1,1.09,1.08Z"/><path d="M24.64,24.3V42.9h3.59v2.4H17.61V42.9h4.32V27.75l-4,3-1.48-2,6.25-4.47Z"/><ellipse cx="18.07" cy="14.61" rx="4.06" ry="4.35" fill="#4200ff" opacity="0"/><ellipse cx="18.07" cy="14.6" rx="4.05" ry="4.34" fill="#4200ff" opacity="0.02"/><ellipse cx="18.07" cy="14.59" rx="4.04" ry="4.32" fill="#4200ff" opacity="0.04"/><ellipse cx="18.07" cy="14.58" rx="4.03" ry="4.31" fill="#4200ff" opacity="0.06"/><ellipse cx="18.07" cy="14.57" rx="4.02" ry="4.3" fill="#4200ff" opacity="0.08"/><ellipse cx="18.07" cy="14.56" rx="4.01" ry="4.28" fill="#4200ff" opacity="0.1"/><ellipse cx="18.07" cy="14.55" rx="4" ry="4.27" fill="#4200ff" opacity="0.11"/><ellipse cx="18.07" cy="14.53" rx="3.99" ry="4.25" fill="#4200ff" opacity="0.13"/><ellipse cx="18.07" cy="14.52" rx="3.98" ry="4.24" fill="#4200ff" opacity="0.15"/><ellipse cx="18.07" cy="14.51" rx="3.97" ry="4.23" fill="#4200ff" opacity="0.17"/><ellipse cx="18.07" cy="14.5" rx="3.96" ry="4.21" fill="#4200ff" opacity="0.19"/><ellipse cx="18.07" cy="14.49" rx="3.95" ry="4.2" fill="#4200ff" opacity="0.21"/><ellipse cx="18.07" cy="14.48" rx="3.94" ry="4.18" fill="#4200ff" opacity="0.23"/><ellipse cx="18.07" cy="14.47" rx="3.93" ry="4.17" fill="#4200ff" opacity="0.25"/><ellipse cx="18.07" cy="14.46" rx="3.92" ry="4.16" fill="#4200ff" opacity="0.27"/><ellipse cx="18.07" cy="14.44" rx="3.91" ry="4.14" fill="#4200ff" opacity="0.29"/><ellipse cx="18.07" cy="14.43" rx="3.9" ry="4.13" fill="#4200ff" opacity="0.3"/><ellipse cx="18.07" cy="14.42" rx="3.89" ry="4.11" fill="#4200ff" opacity="0.32"/><ellipse cx="18.07" cy="14.41" rx="3.88" ry="4.1" fill="#4200ff" opacity="0.34"/><ellipse cx="18.07" cy="14.4" rx="3.87" ry="4.08" fill="#4200ff" opacity="0.36"/><ellipse cx="18.07" cy="14.39" rx="3.86" ry="4.07" fill="#4200ff" opacity="0.38"/><ellipse cx="18.07" cy="14.38" rx="3.85" ry="4.06" fill="#4200ff" opacity="0.4"/><ellipse cx="18.07" cy="14.38" rx="3.85" ry="4.06" fill="url(#linear-gradient-3)"/><ellipse cx="18.07" cy="14.38" rx="3.66" ry="3.86" fill="url(#linear-gradient-4)"/><ellipse cx="18.07" cy="14.38" rx="3" ry="3.16" fill="url(#radial-gradient)"/><ellipse cx="18.07" cy="14.61" rx="4.06" ry="4.35" fill="#5f00ff" opacity="0"/><ellipse cx="18.07" cy="14.6" rx="4.05" ry="4.34" fill="#5f00ff" opacity="0.02"/><ellipse cx="18.07" cy="14.59" rx="4.04" ry="4.32" fill="#5f00ff" opacity="0.04"/><ellipse cx="18.07" cy="14.58" rx="4.03" ry="4.31" fill="#5f00ff" opacity="0.06"/><ellipse cx="18.07" cy="14.57" rx="4.02" ry="4.3" fill="#5f00ff" opacity="0.08"/><ellipse cx="18.07" cy="14.56" rx="4.01" ry="4.28" fill="#5f00ff" opacity="0.1"/><ellipse cx="18.07" cy="14.55" rx="4" ry="4.27" fill="#5f00ff" opacity="0.11"/><ellipse cx="18.07" cy="14.53" rx="3.99" ry="4.25" fill="#5f00ff" opacity="0.13"/><ellipse cx="18.07" cy="14.52" rx="3.98" ry="4.24" fill="#5f00ff" opacity="0.15"/><ellipse cx="18.07" cy="14.51" rx="3.97" ry="4.23" fill="#5f00ff" opacity="0.17"/><ellipse cx="18.07" cy="14.5" rx="3.96" ry="4.21" fill="#5f00ff" opacity="0.19"/><ellipse cx="18.07" cy="14.49" rx="3.95" ry="4.2" fill="#5f00ff" opacity="0.21"/><ellipse cx="18.07" cy="14.48" rx="3.94" ry="4.18" fill="#5f00ff" opacity="0.23"/><ellipse cx="18.07" cy="14.47" rx="3.93" ry="4.17" fill="#5f00ff" opacity="0.25"/><ellipse cx="18.07" cy="14.46" rx="3.92" ry="4.16" fill="#5f00ff" opacity="0.27"/><ellipse cx="18.07" cy="14.44" rx="3.91" ry="4.14" fill="#5f00ff" opacity="0.29"/><ellipse cx="18.07" cy="14.43" rx="3.9" ry="4.13" fill="#5f00ff" opacity="0.3"/><ellipse cx="18.07" cy="14.42" rx="3.89" ry="4.11" fill="#5f00ff" opacity="0.32"/><ellipse cx="18.07" cy="14.41" rx="3.88" ry="4.1" fill="#5f00ff" opacity="0.34"/><ellipse cx="18.07" cy="14.4" rx="3.87" ry="4.08" fill="#5f00ff" opacity="0.36"/><ellipse cx="18.07" cy="14.39" rx="3.86" ry="4.07" fill="#5f00ff" opacity="0.38"/><ellipse cx="18.07" cy="14.38" rx="3.85" ry="4.06" fill="#5f00ff" opacity="0.4"/><ellipse cx="18.07" cy="14.38" rx="3.85" ry="4.06" fill="url(#linear-gradient-5)"/><ellipse cx="18.07" cy="14.38" rx="3.66" ry="3.86" fill="url(#linear-gradient-6)"/><ellipse cx="18.07" cy="14.38" rx="3" ry="3.16" fill="url(#radial-gradient-2)"/></svg>