<svg id="Layer_1" data-name="Layer 1" xmlns="http://www.w3.org/2000/svg" xmlns:xlink="http://www.w3.org/1999/xlink" viewBox="0 0 122.72 144.23"><defs><linearGradient id="linear-gradient" x1="-70.98" y1="313.15" x2="-69.51" y2="320.39" gradientTransform="matrix(-0.96, 0.26, 0.26, 0.96, -72.1, -231.87)" gradientUnits="userSpaceOnUse"><stop offset="0" stop-color="#85c340"/><stop offset="0.02" stop-color="#8ac540"/><stop offset="0.17" stop-color="#a4ce43"/><stop offset="0.3" stop-color="#b4d344"/><stop offset="0.4" stop-color="#bad545"/><stop offset="1" stop-color="#436e1e"/></linearGradient><linearGradient id="linear-gradient-2" x1="-72.29" y1="336.48" x2="-65.8" y2="338.1" gradientTransform="matrix(-0.96, 0.26, 0.26, 0.96, -72.1, -231.87)" gradientUnits="userSpaceOnUse"><stop offset="0" stop-color="#436e1e"/><stop offset="0.6" stop-color="#bad545"/><stop offset="0.7" stop-color="#b4d344"/><stop offset="0.83" stop-color="#a4ce43"/><stop offset="0.98" stop-color="#8ac540"/><stop offset="1" stop-color="#85c340"/></linearGradient><linearGradient id="linear-gradient-3" x1="-71.43" y1="338.39" x2="-73.68" y2="348.45" gradientTransform="matrix(-0.96, 0.26, 0.26, 0.96, -72.1, -231.87)" gradientUnits="userSpaceOnUse"><stop offset="0" stop-color="#bad545"/><stop offset="0.23" stop-color="#d5b238"/><stop offset="0.47" stop-color="#ec932d"/><stop offset="0.61" stop-color="#f58829"/><stop offset="1" stop-color="#975410"/></linearGradient><linearGradient id="linear-gradient-4" x1="-30.28" y1="324.27" x2="-25.34" y2="324.27" gradientTransform="matrix(-0.96, 0.26, 0.26, 0.96, -72.1, -231.87)" gradientUnits="userSpaceOnUse"><stop offset="0" stop-color="#254a9d"/><stop offset="1" stop-color="#00bff2"/></linearGradient><linearGradient id="linear-gradient-5" x1="-23.85" y1="326.59" x2="-18.53" y2="326.59" xlink:href="#linear-gradient-4"/><linearGradient id="linear-gradient-6" x1="-28.92" y1="325.33" x2="-16.22" y2="324.03" xlink:href="#linear-gradient-2"/><linearGradient id="linear-gradient-7" x1="-73.65" y1="330.92" x2="-72.29" y2="326.13" xlink:href="#linear-gradient-2"/><linearGradient id="linear-gradient-8" x1="-73.25" y1="329.08" x2="-69.39" y2="315.43" xlink:href="#linear-gradient-2"/><linearGradient id="linear-gradient-9" x1="-49.41" y1="342.69" x2="-42.94" y2="319.82" xlink:href="#linear-gradient-2"/><linearGradient id="linear-gradient-10" x1="-42.43" y1="344.05" x2="-41.21" y2="332.94" xlink:href="#linear-gradient-4"/><linearGradient id="linear-gradient-11" x1="-9053.63" y1="342.12" x2="-9038.25" y2="342.12" gradientTransform="translate(8681.11 -2617.53) rotate(-15.25)" xlink:href="#linear-gradient-4"/><linearGradient id="linear-gradient-12" x1="-29.63" y1="357.91" x2="-38" y2="361.4" xlink:href="#linear-gradient-3"/><linearGradient id="linear-gradient-13" x1="-30.34" y1="357.77" x2="-37.29" y2="352.96" xlink:href="#linear-gradient-3"/><linearGradient id="linear-gradient-14" x1="-33.04" y1="340.13" x2="-25.71" y2="344.61" xlink:href="#linear-gradient-2"/><linearGradient id="linear-gradient-15" x1="-19.65" y1="350.36" x2="-15.25" y2="357.65" xlink:href="#linear-gradient-2"/><linearGradient id="linear-gradient-16" x1="-22.03" y1="343.73" x2="-19.41" y2="350.48" xlink:href="#linear-gradient-2"/><linearGradient id="linear-gradient-17" x1="-9007.01" y1="321.92" x2="-8995.58" y2="321.92" gradientTransform="translate(8681.11 -2617.53) rotate(-15.25)" xlink:href="#linear-gradient"/><radialGradient id="radial-gradient" cx="-8979.13" cy="324.53" r="4.87" gradientTransform="matrix(1.17, -0.32, 0.26, 0.96, 10502.07, -3158.05)" gradientUnits="userSpaceOnUse"><stop offset="0" stop-color="#3165af"/><stop offset="0.64" stop-color="#2b60ac"/><stop offset="1" stop-color="#255ba9"/></radialGradient><radialGradient id="radial-gradient-2" cx="-8979.02" cy="324.79" r="4.54" gradientTransform="matrix(1.17, -0.32, 0.26, 0.96, 10502.07, -3158.05)" gradientUnits="userSpaceOnUse"><stop offset="0" stop-color="#ee4323"/><stop offset="0.13" stop-color="#e84122"/><stop offset="0.3" stop-color="#d83a1e"/><stop offset="0.49" stop-color="#bc2f18"/><stop offset="0.7" stop-color="#96200f"/><stop offset="0.92" stop-color="#660c05"/><stop offset="1" stop-color="#520400"/></radialGradient><linearGradient id="linear-gradient-18" x1="-44.15" y1="332.38" x2="-46.02" y2="340.91" gradientTransform="matrix(-0.96, 0.26, 0.26, 0.96, -72.1, -231.87)" gradientUnits="userSpaceOnUse"><stop offset="0" stop-color="#fff229"/><stop offset="0.2" stop-color="#eae931"/><stop offset="0.51" stop-color="#d0de3c"/><stop offset="0.79" stop-color="#c0d743"/><stop offset="1" stop-color="#bad545"/></linearGradient><linearGradient id="linear-gradient-19" x1="-9049.16" y1="340.82" x2="-9033.8" y2="340.82" gradientTransform="translate(8681.11 -2617.53) rotate(-15.25)" xlink:href="#linear-gradient-4"/><linearGradient id="linear-gradient-20" x1="-54.36" y1="357.02" x2="-64.96" y2="364.21" xlink:href="#linear-gradient-3"/><linearGradient id="linear-gradient-21" x1="-60.94" y1="339.56" x2="-47.82" y2="335.84" xlink:href="#linear-gradient-2"/><linearGradient id="linear-gradient-22" x1="-55.53" y1="349.49" x2="-47.99" y2="352.69" xlink:href="#linear-gradient-2"/><linearGradient id="linear-gradient-23" x1="-55.24" y1="341.17" x2="-49.13" y2="335.2" xlink:href="#linear-gradient-4"/></defs><title>stampFrog</title><path d="M122.72,134.22v-5.88a5.78,5.78,0,0,1,0-11.56v-2.85a5.78,5.78,0,0,1,0-11.56V99.51a5.78,5.78,0,1,1,0-11.56V85.1a5.78,5.78,0,0,1,0-11.56V70.69a5.78,5.78,0,0,1,0-11.56V56.28a5.78,5.78,0,0,1,0-11.56V41.87a5.78,5.78,0,0,1,0-11.56V27.46a5.78,5.78,0,0,1,0-11.56V10a10,10,0,0,1-10-10H10A10,10,0,0,1,0,10v5.88a5.78,5.78,0,0,1,5.78,5.78A5.78,5.78,0,0,1,0,27.46v2.85a5.78,5.78,0,0,1,5.78,5.78A5.78,5.78,0,0,1,0,41.87v2.85A5.78,5.78,0,0,1,5.78,50.5,5.78,5.78,0,0,1,0,56.28v2.85a5.78,5.78,0,0,1,5.78,5.78A5.78,5.78,0,0,1,0,70.69v2.85a5.78,5.78,0,0,1,5.78,5.78A5.78,5.78,0,0,1,0,85.1V88A5.78,5.78,0,1,1,0,99.51v2.85a5.78,5.78,0,0,1,5.78,5.78A5.78,5.78,0,0,1,0,113.92v2.85a5.78,5.78,0,0,1,5.78,5.78A5.78,5.78,0,0,1,0,128.34v5.88a10,10,0,0,1,10,10h102.7A10,10,0,0,1,122.72,134.22Z" fill="#ed5d54"/><path d="M122.72,73.54V72.22H0v1.32a5.78,5.78,0,0,1,5.78,5.78A5.78,5.78,0,0,1,0,85.1V88A5.78,5.78,0,1,1,0,99.51v2.85a5.78,5.78,0,0,1,5.78,5.78A5.78,5.78,0,0,1,0,113.92v2.85a5.78,5.78,0,0,1,5.78,5.78A5.78,5.78,0,0,1,0,128.34v5.88a10,10,0,0,1,10,10h102.7a10,10,0,0,1,10-10v-5.88a5.78,5.78,0,0,1,0-11.56v-2.85a5.78,5.78,0,0,1,0-11.56V99.51a5.78,5.78,0,1,1,0-11.56V85.1a5.78,5.78,0,0,1,0-11.56Z" fill="#d8423f"/><path d="M14.11,12.81V131.42h94.5V12.81Zm93.21,117.32H15.4V14.1h91.92Z" fill="#7c0704" opacity="0.35"/><rect x="15.4" y="14.1" width="91.92" height="116.03" fill="#eef3cc"/><polygon points="107.32 72.22 107.32 130.13 15.4 130.13 15.4 72.22 14.11 72.22 14.11 131.42 108.61 131.42 108.61 72.22 107.32 72.22" fill="#7c0704" opacity="0.2"/><polygon points="45 12.81 28.15 12.81 34.59 0 51.45 0 45 12.81" fill="#fff" opacity="0.2"/><polygon points="51.62 12.81 48.44 12.81 54.88 0 58.06 0 51.62 12.81" fill="#fff" opacity="0.2"/><text transform="translate(83.6 31.42) scale(0.99 1)" font-size="19.32" fill="#d8423f" font-family="ABeeZee-Regular, ABeeZee Regular">1c</text><path d="M84.51,56.26c-.67,2.62-3.67,4.52-6.72,4.24s-5-2.64-4.31-5.26S77.16,50.72,80.2,51,85.17,53.64,84.51,56.26Z" fill="url(#linear-gradient)"/><path d="M84.32,77c-1.11,0-1.86.72-2.67,1.46a3.33,3.33,0,0,0-.75-1,8.68,8.68,0,0,1-.77-1.1c-.36-.5-.71-1-1-1.5L79,74.77l3.39-3.4.15.21c.82,1.18,1.63,2.37,2.47,3.55A6.74,6.74,0,0,0,86.3,76.5a3.87,3.87,0,0,0,1.29.54l.44.13C86.77,77.88,85.48,77.21,84.32,77Z" fill="url(#linear-gradient-2)"/><path d="M76.41,82.29a2.15,2.15,0,0,1,2.8-1.14c1-.58,2.3-1.06,2.51-2.07a1.06,1.06,0,0,0-.06-.62c.81-.74,1.56-1.5,2.67-1.46,1.16.22,2.44.89,3.7.17,1.81.47,4,.28,5.79.73a11.93,11.93,0,0,1,3.37,1.36,6.09,6.09,0,0,1,2.05,1.47,2.68,2.68,0,0,1,1.16-.15c1.11.1,1.83.88,1.62,1.74a2.22,2.22,0,0,1-2.4,1.37c-1.09-.1-1.8-.85-1.62-1.68a13.22,13.22,0,0,1-2-1.33,11.81,11.81,0,0,0-3.7-1.78c-.46-.12-3.05-.56-2.74.64.09.34.76.6,1,.83a13.53,13.53,0,0,1,1.37,1.27,8.4,8.4,0,0,1,1.87,2.93,2.51,2.51,0,0,1,.57,0A1.62,1.62,0,0,1,96,86.48,2.36,2.36,0,0,1,93.48,88a1.62,1.62,0,0,1-1.62-1.95,1.73,1.73,0,0,1,.18-.42c-1-.77-1.42-2.17-2-3.1a7.51,7.51,0,0,0-1.77-2,2.75,2.75,0,0,0-1.83-1c-.44.9-.09,2.16.07,3a8.43,8.43,0,0,1,.21,1.69c.91.26,1.47.92,1.29,1.63a2.39,2.39,0,0,1-2.61,1.32c-1.23-.11-2-.89-1.83-1.74A1.92,1.92,0,0,1,85,84.35c0-.2-.08-.42-.12-.64-.17-.86-.25-3-1.29-3.4-.54-.18-1.09.22-1.49.52a19.85,19.85,0,0,1-1.72,1.12l-.31.18a1.18,1.18,0,0,1,0,.5,2,2,0,0,1-2.2,1.29C76.86,83.83,76.21,83.09,76.41,82.29Z" fill="url(#linear-gradient-3)"/><path d="M42.28,72.66s-2.1,1.57-4.2,3.38a31.72,31.72,0,0,0,1.15-4A10.79,10.79,0,0,1,42.28,72.66Z" fill="url(#linear-gradient-4)"/><path d="M32.62,81.92s0-5.44,3.19-8.53a20,20,0,0,0,0,4.78c-.41.42-.78.82-1.08,1.19Z" fill="url(#linear-gradient-5)"/><path d="M36.78,72.6A4.12,4.12,0,0,1,39.23,72a31.72,31.72,0,0,1-1.15,4c-.81.7-1.61,1.43-2.3,2.12a20,20,0,0,1,0-4.78A7.19,7.19,0,0,1,36.78,72.6Z" fill="url(#linear-gradient-6)"/><path d="M87.88,66.73A14.22,14.22,0,0,0,86.24,68l-.15,0c-4.09.32-7.73,2.34-12,2.1a11.83,11.83,0,0,1-1.34,0c8.14-2.28,16.26-5.14,22.9-10C94.18,62.57,88.14,66.7,87.88,66.73Z" fill="url(#linear-gradient-7)"/><path d="M71.25,69.5c-1.52-4,.65-8.62,2.49-12.92a55.26,55.26,0,0,1,6.38-.89,40.47,40.47,0,0,1,8.38-1c4.87-.1,7.9,2.58,7.49,4.75a2.23,2.23,0,0,1-.32.73C89,65,80.93,67.86,72.78,70.14,72.05,70.11,71.37,70,71.25,69.5Z" fill="url(#linear-gradient-8)"/><path d="M33.22,83.68a2.49,2.49,0,0,1-.61-1.76h0l2.08-2.57c2.08-2.57,11-9.36,11-9.36s5.17-3.51,9.29-4.3A17.13,17.13,0,0,0,65.41,60c1.62-1.73,5.14-2.8,8.34-3.45-1.84,4.3-4,8.88-2.49,12.92.2.75,1.9.69,2.87.62,4.24.24,7.88-1.78,12-2.1l.15,0c-1,.87-2.45,2.1-3.83,3.37L79,74.77a11.31,11.31,0,0,0-1.1,1.42A48.5,48.5,0,0,1,73,81.95a46.24,46.24,0,0,0,2.37-8.76,14.26,14.26,0,0,0-2.29.74c.28-.54-.11-.81,0-1.39C60.58,76,50,81.7,39.05,88.26l-1.27-.43A7.85,7.85,0,0,1,33.22,83.68Z" fill="url(#linear-gradient-9)"/><path d="M73.11,73.92c-6,2.51-8.6,8.62-11.2,13.72l-.14-.37c-.8,1.56-9.65,2.25-10.56,2.32-6,0-9-.33-12.16-1.33C50,81.7,60.33,76.07,72.86,72.6,72.75,73.18,73.39,73.38,73.11,73.92Z" fill="url(#linear-gradient-10)"/><path d="M34.57,87.81c.21-1.59.68-2.71,2.45-1.88,6.23,2.73,11.63,5.95,15.82,10.41-2.87-.77-6-.8-8.93-1.49L45,95S36.29,91.12,34.57,87.81Z" fill="url(#linear-gradient-11)"/><path d="M55.51,102.51a27.06,27.06,0,0,1,4-.52,2.91,2.91,0,0,1,2.29-1.43c1.39-.19,2.56.38,2.62,1.29s-1,1.79-2.39,2a2.52,2.52,0,0,1-2.43-.75c-1.26.61-3.32,1.35-4.22,1.92-1.45.92-2.44,2.09-1.14,3.23a3.12,3.12,0,0,1,.65.81h0a2,2,0,0,1,2.52,1.57,2.39,2.39,0,0,1-2.25,2.24,2,2,0,0,1-2.52-1.57,1.6,1.6,0,0,1,.11-.7c-.26-.14-.52-.31-.78-.48,0-2.13,1.36-4.36,3.07-6.13C55.08,103.71,55.43,103.09,55.51,102.51Z" fill="url(#linear-gradient-12)"/><path d="M55.37,101.75c-1.25-.58-2.41.06-3.59.46.38-.35.91-.81,1.47-1.23a34.79,34.79,0,0,0,3.18-2.83A1.42,1.42,0,0,1,58,99.3c.05.76-.72,1.5-1.74,1.64h-.1a4,4,0,0,1-.61,1.35A.89.89,0,0,0,55.37,101.75Z" fill="url(#linear-gradient-13)"/><path d="M52.7,96.19C48.53,91.81,43.18,88.63,37,85.93c-1.77-.83-2.23.3-2.45,1.88a2.35,2.35,0,0,1-.3-1,4,4,0,0,1,3.57-4C43.65,87,52.17,89.87,57,94.76a2.25,2.25,0,0,1,.12,2.42c-.23.35-.47.67-.71,1l-.87.83A4.49,4.49,0,0,0,52.7,96.19Z" fill="url(#linear-gradient-14)"/><path d="M43.47,105.16c2-.76,7.73-2.4,7.73-2.4s.23-.23.58-.55c1.18-.4,2.34-1,3.59-.46a.89.89,0,0,1,.15.54l-.17.24.16,0c-.08.58-.43,1.21-.42,1.45-1.7,1.77-3.06,4-3.07,6.13-1.5-1-3.07-2.39-4.13-2.24-1.5.21-5.37,2.37-10.89-.52s-14.41-5.61-14.57-7.89a16.48,16.48,0,0,1,6.16.41C29.77,100.4,41.55,105.89,43.47,105.16Z" fill="url(#linear-gradient-15)"/><path d="M30.1,93.87c4.66,0,11.26.69,13.81,1,3,.69,6.06.71,8.93,1.49l-.14-.14A4.49,4.49,0,0,1,55.56,99a20.91,20.91,0,0,1-2.32,2c-1.78.93-3.82,1.1-6.49.9C42,101.52,28.5,99.81,28.5,99.81l.1,0a16.48,16.48,0,0,0-6.16-.41,1.07,1.07,0,0,1,0-.11C22.56,97,24.21,93.85,30.1,93.87Z" fill="url(#linear-gradient-16)"/><path d="M86.75,60.51C86.08,63.13,83.08,65,80,64.74s-5-2.64-4.31-5.26,3.67-4.52,6.72-4.24S87.41,57.88,86.75,60.51Z" fill="url(#linear-gradient-17)"/><path d="M86.51,60.65c-.6,2.38-3.34,4.11-6.1,3.85s-4.52-2.4-3.92-4.78,3.34-4.11,6.1-3.85S87.11,58.26,86.51,60.65Z" fill="url(#radial-gradient)"/><path d="M86.39,60.74a5.36,5.36,0,0,1-5.69,3.59c-2.58-.24-4.21-2.24-3.65-4.46a5.36,5.36,0,0,1,5.69-3.59C85.32,56.52,87,58.52,86.39,60.74Z" fill="url(#radial-gradient-2)"/><path d="M44.83,84.63a44,44,0,0,0,4-2.07c.83-.48,1.68-.89,2.45-1.42.39-.27.82-.41,1.23-.64s.88-.55,1.35-.78c1.24-.62,2.44-1.18,3.72-1.72.79-.34,1.6-.64,2.37-1s1.41-.86,2.15-1.28A12.93,12.93,0,0,1,65,74.57c.72-.2,1.44-.2,2.18-.47.51-.19.94-.56,1.44-.77a25.87,25.87,0,0,1,2.92-.81,4.18,4.18,0,0,1,2.25,0c.49.13.74.31.66.76a1.27,1.27,0,0,1-.67.86c-.39.26-.55.25-.72.05,0-.42.09-1-.28-.87a7.43,7.43,0,0,0-2.89.6H69.8a2.12,2.12,0,0,0-.57.42c-.14.17-.11.32-.15.51-.07.38-.07.78-.15,1.15s-.32,1.22-.75,1.19-.37-1.08-.4-1.33c-.05-.52,0-.93-.76-.71s-1.4.39-1.45,1.27.15,1.65.12,2.49a8.11,8.11,0,0,1-.25,2c-.11.38-.43,1.29-1,1.39s-.23-.77-.19-1a15,15,0,0,0,.24-1.72,5.05,5.05,0,0,0-.29-1.68,1.68,1.68,0,0,0-1.22-1.39,2.19,2.19,0,0,0-2.57,1.44c-.53,1.36.17,3,.76,4.13.43.86,1,2.17.68,3.18a1.1,1.1,0,0,1-1,.76c-.46,0-.47-.16-.61-.51-.38-1-.56-2.05-.91-3a9.09,9.09,0,0,0-1.4-2.62c-.46-.56-1.11-1.11-1.95-.52-1.47,1-.87,2.72-.43,3.93.18.49,2.15,4,1.29,4.28-.45.17-1.09-.43-1.32-.67-.46-.48-.93-1-1.35-1.46-.77-.91-1.33-1.94-2.13-2.83-.34-.38-.93-.63-1.3,0a2,2,0,0,0-.11,1.37c.16.8.41,1.58.63,2.37.09.32.34,1.08,0,1.42s-.64,0-.89-.21a16.24,16.24,0,0,1-1.34-1.21,10.71,10.71,0,0,0-.72-.92c-1-.82-2.45.08-3.55.44-.39.13-1,.27-1.24-.13S44.46,84.8,44.83,84.63Z" fill="url(#linear-gradient-18)"/><path d="M37.84,82.83a5.51,5.51,0,0,1,3.67.54S54.5,90.09,57,94.76C52.17,89.87,43.65,87,37.84,82.83Z" fill="url(#linear-gradient-19)"/><path d="M78.34,98.64c.66-.71-.75-1.6-1.23-2.72l.61.16A28.57,28.57,0,0,1,79,93.29a1.08,1.08,0,0,1-.38-1.12,1.83,1.83,0,0,1,2-1.18c.9.08,1.47.75,1.28,1.48a1.75,1.75,0,0,1-1.56,1.17,27.86,27.86,0,0,1-1.46,3.7s5.84-2.77,8-2.51a3.39,3.39,0,0,1,.46.09A2.48,2.48,0,0,1,89,94.49c1.07.1,1.76.86,1.54,1.71a2.15,2.15,0,0,1-2.32,1.35,1.61,1.61,0,0,1-1.56-1.21c-2.55-.6-7,2.67-7,2.67a8.77,8.77,0,0,1,8.07,3l0,.05a1.84,1.84,0,0,1,.62-.05,1.21,1.21,0,0,1,1.19,1.47,1.76,1.76,0,0,1-1.87,1.19,1.21,1.21,0,0,1-1.19-1.47,1.34,1.34,0,0,1,.22-.45,7.4,7.4,0,0,0-1.93-1.93c-2.13-1.73-6.46-.11-6.46-.11a13.75,13.75,0,0,1,1.27,4.54,3.19,3.19,0,0,1-.17,1,1.28,1.28,0,0,1,.83,1.48A2.11,2.11,0,0,1,78,109c-1-.1-1.72-.84-1.52-1.66a2,2,0,0,1,2-1.31v0c.7-2.76-2.22-5.86-2.22-5.86l-1.34-.57C76.22,99.44,77.57,99.34,78.34,98.64Z" fill="url(#linear-gradient-20)"/><path d="M64.36,86l.36-.53c3.14-4.19,7.76-7.44,9.71-12,.32-.1.64-.19,1-.27A46.24,46.24,0,0,1,73,81.95c-1.89,2-3.56,3.65-3.56,3.65l.31.57A7.94,7.94,0,0,0,64.36,86Z" fill="url(#linear-gradient-21)"/><path d="M69.79,86.17c1.06,1.93,4.43,8.07,4.77,8.62s1.72.9,2.56,1.12c.47,1.12,1.89,2,1.23,2.72s-2.12.8-3.42,1c-1.4-.61-3.74-1.68-6.37-3s-4.72-4.8-5.82-7.08A13.25,13.25,0,0,1,64.36,86,7.94,7.94,0,0,1,69.79,86.17Z" fill="url(#linear-gradient-22)"/><path d="M74.43,73.45c-1.95,4.55-6.57,7.8-9.71,12a13.56,13.56,0,0,0-2,4c-.39-.8-.66-1.46-.81-1.85C64.7,82.19,67.46,75.58,74.43,73.45Z" fill="url(#linear-gradient-23)"/><path d="M83.58,62l-2.43-4.51A6.43,6.43,0,0,1,83.58,62Z" fill="#231f20"/><ellipse cx="79.91" cy="59.05" rx="0.53" ry="0.44" transform="translate(-12.85 23.44) rotate(-15.46)" fill="#fff"/><path d="M74.44,57.71l-.48.13c-.31.09-.76.22-1.34.41s-1.26.43-2,.75A23.82,23.82,0,0,0,68,60.2a12.4,12.4,0,0,0-2.71,1.92l-.31.31-.29.3-.3.26c-.11.08-.21.17-.33.25a9.92,9.92,0,0,1-1.55.86,39,39,0,0,1-3.66,1.33c-1.28.42-2.59.85-3.89,1.35a28.1,28.1,0,0,0-3.75,1.77,18.07,18.07,0,0,0-1.7,1.09L48,70.77c-1,.73-2,1.45-2.91,2.13l-2.59,1.93-1.15.86-1,.79-1.65,1.3-1.05.84-.37.3.4-.27,1.13-.76,1.75-1.19L41.63,76l1.2-.81,2.69-1.83c1-.65,2-1.34,3-2.06l1.57-1.09c.52-.35,1.06-.7,1.63-1a27.28,27.28,0,0,1,3.61-1.68c1.25-.5,2.55-.93,3.83-1.36a34.85,34.85,0,0,0,3.75-1.44,9.87,9.87,0,0,0,1.68-1c.13-.09.25-.2.37-.3s.24-.22.35-.33l.29-.32.27-.29a12.45,12.45,0,0,1,2.47-1.9c.85-.52,1.67-.95,2.42-1.3s1.41-.65,2-.87L74,57.88Z" fill="#fff"/></svg>