<svg id="Layer_1" data-name="Layer 1" xmlns="http://www.w3.org/2000/svg" xmlns:xlink="http://www.w3.org/1999/xlink" viewBox="0 0 163.72 180.38"><defs><radialGradient id="radial-gradient" cx="91.22" cy="114.01" r="65.17" gradientTransform="translate(-3.17 -2.74) scale(1.01 1.02)" gradientUnits="userSpaceOnUse"><stop offset="0" stop-color="#f45500"/><stop offset="0.05" stop-color="#e85400"/><stop offset="0.22" stop-color="#c95200"/><stop offset="0.39" stop-color="#b05000"/><stop offset="0.58" stop-color="#9f4e00"/><stop offset="0.77" stop-color="#944d00"/><stop offset="1" stop-color="#914d00"/></radialGradient></defs><title>stampBug</title><path d="M163.72,170.38v-7.53a7.06,7.06,0,0,1,0-14.12v-6a7.06,7.06,0,0,1,0-14.12v-8.09a7.06,7.06,0,0,1,0-14.12V98.29a7.06,7.06,0,0,1,0-14.12V76.08a7.06,7.06,0,0,1,0-14.12V53.87a7.06,7.06,0,0,1,0-14.12V31.66a7.06,7.06,0,0,1,0-14.12V10a10,10,0,0,1-10-10H9.93A10,10,0,0,1,0,10v7.53A7.06,7.06,0,0,1,7.05,24.6,7.06,7.06,0,0,1,0,31.66v8.09a7.06,7.06,0,0,1,7.05,7.06A7.06,7.06,0,0,1,0,53.87V62A7.06,7.06,0,0,1,7.05,69,7.06,7.06,0,0,1,0,76.08v8.09a7.06,7.06,0,0,1,7.05,7.06A7.06,7.06,0,0,1,0,98.29v8.09a7.06,7.06,0,0,1,7.05,7.06A7.06,7.06,0,0,1,0,120.49v8.09a7.06,7.06,0,0,1,7.05,7.06A7.06,7.06,0,0,1,0,142.7v6a7.06,7.06,0,0,1,7.05,7.06A7.06,7.06,0,0,1,0,162.85v7.53a10,10,0,0,1,10,10H153.73A10,10,0,0,1,163.72,170.38Z" fill="#ed5d54"/><path d="M156.66,91.23a7.07,7.07,0,0,1,.08-1H7a7.07,7.07,0,0,1,.08,1A7.06,7.06,0,0,1,0,98.29v8.09a7.06,7.06,0,0,1,7.05,7.06A7.06,7.06,0,0,1,0,120.49v8.09a7.06,7.06,0,0,1,7.05,7.06A7.06,7.06,0,0,1,0,142.7v6a7.06,7.06,0,0,1,7.05,7.06A7.06,7.06,0,0,1,0,162.85v7.53a10,10,0,0,1,10,10H153.73a10,10,0,0,1,10-10v-7.53a7.06,7.06,0,0,1,0-14.12v-6a7.06,7.06,0,0,1,0-14.12v-8.09a7.06,7.06,0,0,1,0-14.12V98.29A7.06,7.06,0,0,1,156.66,91.23Z" fill="#d8423f"/><path d="M14.08,12.79V167.6H149.64V12.79ZM148.35,166.31h-133V14.08h133Z" fill="#7c0704" opacity="0.35"/><rect x="15.37" y="14.08" width="132.99" height="152.23" fill="#eef3cc"/><polygon points="148.35 90.2 148.35 166.31 15.37 166.31 15.37 90.2 14.08 90.2 14.08 167.6 149.64 167.6 149.64 90.2 148.35 90.2" fill="#560606" opacity="0.2"/><polygon points="45.15 12.79 29.15 12.79 35.58 0 51.58 0 45.15 12.79" fill="#fff" opacity="0.2"/><polygon points="50.32 12.79 47.71 12.79 54.14 0 56.75 0 50.32 12.79" fill="#fff" opacity="0.2"/><path d="M14.08,12.79V167.6H149.64V12.79ZM148.35,166.31h-133V14.08h133Z" fill="#7c0704" opacity="0.2"/><text transform="translate(113.21 31.58) scale(0.99 1)" font-size="19.3" fill="#d8423f" font-family="ABeeZee-Regular, ABeeZee Regular">20c</text><path d="M59.13,130.83a32.79,32.79,0,0,0,6.53,4.49A32,32,0,0,0,72.8,138l9.57-27.77,12.09-35.1L74.72,106.26Z" fill="#2c2b2a" fill-rule="evenodd"/><path d="M59.13,130.83a33,33,0,0,0,3.38,2.61L90.59,86.39l3.87-11.24L74.72,106.26Z" fill-rule="evenodd"/><path d="M115.39,75a12.25,12.25,0,0,1,5.21,2.87c1.66-3.28,6.08-4.16,9.12-6.25a1.91,1.91,0,0,1,1.82-.49l.11,1.29a2.75,2.75,0,0,1,1.73-.83l.09,1a11.75,11.75,0,0,1,4.54.62c-.75.29-1.4.63-1.55,1.24a6,6,0,0,1,2.43,1.88c-1.72-.87-3.91-1.45-5.41-2.62l-.21.75a2.09,2.09,0,0,1-1.65-.71l-.19.73a2.35,2.35,0,0,1-1.72-1c-3.73,1.39-5.74,5.37-9.11,6.4a9,9,0,0,1-5.22-1.36Z" fill-rule="evenodd"/><path d="M81.68,57.44a12.2,12.2,0,0,0-5.33-2.63c1.53-3.35-.44-7.56-.66-11.34A2.09,2.09,0,0,0,75,41.65l-1.05.68a3,3,0,0,0-.4-1.94l-.82.52a12.48,12.48,0,0,0-3.2-3.42,2.37,2.37,0,0,1,0,2,5.81,5.81,0,0,0-2.9-.91c1.7.91,3.45,2.39,5.25,2.94l-.45.62a2.12,2.12,0,0,0,1.53.95l-.45.6a2.32,2.32,0,0,0,1.84.81c1.16,3.94-.69,8,.54,11.43A9.4,9.4,0,0,0,79,59.53Z" fill-rule="evenodd"/><path d="M117.44,103.34a25.31,25.31,0,0,1,7.79,7c-1.08,2.94-.66,6-3.24,8.83.52.12,1.15.3,1.84.52l-.73,1c.56-.28,1.16-.07,1.78.49l-.58.88a8.44,8.44,0,0,1,3.84,2.67c-.93-.21-2-.39-2.06,0s1,1.94,1.28,3.28a10.71,10.71,0,0,1-3.55-5.26l-.58.88a3.11,3.11,0,0,1-1-1.69l-.41.53a6.86,6.86,0,0,1-2.44-3.64c-.2-2.15,3.06-5.23,3.84-8.15a14.94,14.94,0,0,1-6.27-4.53Z" fill-rule="evenodd"/><path d="M59.43,73.09A24.14,24.14,0,0,0,49.36,70.8c-1.62,2.66-4.19,4.13-4.85,8-.4-.36-.92-.78-1.5-1.23l-.35,1.22c-.12-.64-.64-1-1.44-1.2l-.33,1A8.23,8.23,0,0,0,36.54,77c.72.65,1.53,1.47,1.22,1.73s-2.07.37-3.29.9a9.88,9.88,0,0,0,6.17-.19l-.33,1a2.86,2.86,0,0,0,1.88-.2L42,80.9a6.33,6.33,0,0,0,4.26-.15c1.77-1.12,2.19-5.69,4-8.08a14.54,14.54,0,0,0,7.24,2.52Z" fill-rule="evenodd"/><path d="M108.63,125c1.52,3,2.48,11.06,1.87,11.31-1.75,2.57-7,12.55-10.83,14.66.48.23,1.58.68,2.21,1l-1,.82c.62-.14,1.16.2,1.65.87l-.78.71a8.43,8.43,0,0,1,3.18,3.43c-.87-.42-1.94-.84-2-.45-.08.55.49,2.08.5,3.43a10.37,10.37,0,0,1-2.29-5.85l-.78.71a3,3,0,0,1-.57-1.84l-.53.41a6.64,6.64,0,0,1-1.57-4c.3-2.1,9.76-12.57,11.2-15.19-2.25-1.42-2.69-3.69-2.88-6.13Z" fill-rule="evenodd"/><path d="M48.35,93.54c-3.21.52-10,4.56-9.81,5.22-.93,3-5.44,13.37-4.79,17.81-.47-.27-1.47-.91-2.13-1.22l-.06,1.29a1.62,1.62,0,0,0-1.66-.86l-.08,1.08a7.92,7.92,0,0,0-4.54-.6c.84.48,1.81,1.11,1.57,1.43s-1.89.83-2.94,1.63a9.44,9.44,0,0,0,5.87-1.59l-.08,1.08a2.73,2.73,0,0,0,1.75-.63v.69a6,6,0,0,0,4-1.12c1.43-1.51,3.82-15.67,5-18.44,2.44,1,4.45,0,6.44-1.27Z" fill-rule="evenodd"/><path d="M71.61,63.23,94.46,75.14l-20.67,33-16.32,26.1c-12.29-11.14-15.6-31.67-7-49.65a44.53,44.53,0,0,1,21.1-21.41Zm42.1,54.37a47.18,47.18,0,0,0,3.81-30.42l-23.06-12-13,37-10.3,29.3C87.12,145.21,105,135.66,113.71,117.6Z" fill-rule="evenodd" fill="url(#radial-gradient)"/><path d="M72.5,68.14a39.49,39.49,0,0,0-18.71,19c-6.12,12.73-7,31.27,2.69,37.89C65.36,131.06,49.12,100.62,72.5,68.14Z" fill="#ff9341" fill-rule="evenodd"/><path d="M71.13,141.48c16,3.73,33.89-5.82,42.57-23.89a47.18,47.18,0,0,0,3.81-30.42l-6.84-3.57A47.18,47.18,0,0,1,106.87,114c-7.29,15.16-21.07,24.32-34.76,24.67Z" fill="#9a4800" fill-rule="evenodd"/><path d="M71.13,141.48c16,3.73,33.89-5.82,42.57-23.89a47.18,47.18,0,0,0,3.81-30.42L115,85.86a47.18,47.18,0,0,1-3.81,30.42c-8.18,17-24.54,26.47-39.77,24.4Z" fill="#6f3207" fill-rule="evenodd"/><path d="M115.2,97.13c-.45,4.07,1.11,6.69-4.35,6.71s-9.61-2.32-9.47-4.94-.44-6.52,2.33-7.59,5.27-1.57,7-1.21a7.06,7.06,0,0,1,4,3.36A8.06,8.06,0,0,1,115.2,97.13Z" fill-rule="evenodd"/><path d="M97.08,114.48c-2.45,5.41-3.76,6.58-5.85,5.34a7.22,7.22,0,0,1-3.78-4.53c-.53-2-.88-3.44,0-4.69s3.65-2.94,4.59-2.73,4.54,1.09,5.23,2.44S97.08,114.48,97.08,114.48Z" fill-rule="evenodd"/><path d="M90.07,131.15c-.26,2.29.62,3.76-2.45,3.78s-5.4-1.3-5.33-2.78-.25-3.67,1.31-4.27a7.69,7.69,0,0,1,3.92-.68,4,4,0,0,1,2.27,1.89A4.53,4.53,0,0,1,90.07,131.15Z" fill-rule="evenodd"/><path d="M119.22,49.39C115.53,54,109.95,56,104,57.51c11.3-5.73,11.69-7.76,14.15-10.24C119.34,46.77,120.14,48,119.22,49.39Z" fill-rule="evenodd"/><path d="M99.33,39c-1.33,5.85.48,11.69,2.85,17.52-2.37-12.86-1-14.4-.6-17.94C101.27,37.35,99.83,37.43,99.33,39Z" fill-rule="evenodd"/><path d="M88.58,55.52a24.88,24.88,0,0,0-17,7.68,288.12,288.12,0,0,0,45.82,23.9,27.27,27.27,0,0,0-4.3-18.8,7.64,7.64,0,0,0,.05-5.84,2.52,2.52,0,0,0,2.09-1.34c.68-1.42-.27-3.36-2.13-4.33a3.82,3.82,0,0,0-3.88,0,20.06,20.06,0,0,0-4.42-3.11,19.54,19.54,0,0,0-5-1.82,4.11,4.11,0,0,0-2.35-3.21c-1.86-1-3.92-.6-4.6.82A2.73,2.73,0,0,0,93,52,7.12,7.12,0,0,0,88.58,55.52Z" fill-rule="evenodd"/><path d="M90.58,57.71c-4.58.08-9.33,1.6-11.44,3.89-2.59,2.8-3.1,5.66,3.72,3.27,4.92-1.72,10.65-3.51,11.79-5.16,3.09-3.45,4.14-6,1-5.95A9.6,9.6,0,0,0,90.58,57.71Z" fill="#333" fill-rule="evenodd"/><path d="M84.1,62.12c-1.09-.95-5.85-.06-3.9,3.39C80.87,66.7,85.76,65.29,84.1,62.12Z" fill="#ccc" fill-rule="evenodd"/><path d="M84,79.61c-2.48,5.48-3.81,6.66-5.92,5.41a7.31,7.31,0,0,1-3.83-4.59c-.54-2-.89-3.49,0-4.74s3.69-3,4.65-2.76,4.6,1.1,5.3,2.47S84,79.61,84,79.61Z" fill-rule="evenodd"/><path d="M66.34,86.21C66.09,88.51,67,90,63.89,90s-5.4-1.3-5.33-2.78-.25-3.67,1.31-4.27a7.69,7.69,0,0,1,3.93-.68,4,4,0,0,1,2.27,1.89A4.53,4.53,0,0,1,66.34,86.21Z" fill-rule="evenodd"/><path d="M60.64,106.06c-2.45,5.41-3.76,6.58-5.85,5.34A7.22,7.22,0,0,1,51,106.88c-.53-2-.88-3.44,0-4.69s3.65-2.94,4.59-2.73,4.54,1.09,5.23,2.44S60.64,106.06,60.64,106.06Z" fill-rule="evenodd"/><path d="M59.07,109.22a80.16,80.16,0,0,1,.57-8.39,17,17,0,0,0-4-1.37c-.94-.21-3.69,1.49-4.59,2.73s-.55,2.7,0,4.69a7.22,7.22,0,0,0,3.78,4.53C56.39,112.35,57.53,111.89,59.07,109.22Z" fill="#1a1a1a" fill-rule="evenodd"/><path d="M58.45,105.74c-4.29-.2-13,11.4-1.72,16.07C60.59,123.42,68.49,110.3,58.45,105.74Z" fill="#ff9898" fill-rule="evenodd"/><path d="M58.45,105.74c-1.7-.08-4.1,1.7-5.66,4.17a10.45,10.45,0,0,0,2,1.49c2,1.17,3.27.17,5.5-4.59A10.18,10.18,0,0,0,58.45,105.74Z" fill="#4d4d4d" fill-rule="evenodd"/></svg>