<svg id="Layer_1" data-name="Layer 1" xmlns="http://www.w3.org/2000/svg" viewBox="0 0 205.01 180.25"><title>stampButterfly</title><path d="M205,170.26v-5.84a5.87,5.87,0,1,1,0-11.73v-5.38a5.87,5.87,0,1,1,0-11.73v-5.38a5.87,5.87,0,1,1,0-11.73V113.1a5.87,5.87,0,1,1,0-11.73V96a5.87,5.87,0,1,1,0-11.73V78.88a5.87,5.87,0,1,1,0-11.73V61.78A5.87,5.87,0,1,1,205,50V44.67a5.87,5.87,0,1,1,0-11.73V27.56a5.87,5.87,0,1,1,0-11.73V10A10,10,0,0,1,195,0H10A10,10,0,0,1,0,10v5.84a5.87,5.87,0,0,1,5.87,5.87A5.87,5.87,0,0,1,0,27.56v5.38A5.87,5.87,0,0,1,5.87,38.8,5.87,5.87,0,0,1,0,44.67V50a5.87,5.87,0,0,1,5.87,5.87A5.87,5.87,0,0,1,0,61.78v5.38A5.87,5.87,0,0,1,5.87,73,5.87,5.87,0,0,1,0,78.88v5.38a5.87,5.87,0,0,1,5.87,5.87A5.87,5.87,0,0,1,0,96v5.38a5.87,5.87,0,0,1,5.87,5.87A5.87,5.87,0,0,1,0,113.1v5.38a5.87,5.87,0,0,1,5.87,5.87A5.87,5.87,0,0,1,0,130.21v5.38a5.87,5.87,0,0,1,5.87,5.87A5.87,5.87,0,0,1,0,147.32v5.38a5.87,5.87,0,0,1,5.87,5.87A5.87,5.87,0,0,1,0,164.43v5.84a10,10,0,0,1,10,10H195A10,10,0,0,1,205,170.26Z" fill="#ed5d54"/><path d="M199.15,90.13s0,0,0-.06H5.86s0,0,0,.06A5.87,5.87,0,0,1,0,96v5.37a5.87,5.87,0,0,1,5.87,5.87A5.87,5.87,0,0,1,0,113.1v5.38a5.87,5.87,0,1,1,0,11.73v5.38a5.87,5.87,0,0,1,5.87,5.87A5.87,5.87,0,0,1,0,147.32v5.38a5.87,5.87,0,1,1,0,11.73v5.84a10,10,0,0,1,10,10H195a10,10,0,0,1,10-10v-5.84a5.87,5.87,0,1,1,0-11.73v-5.38a5.87,5.87,0,1,1,0-11.73v-5.38a5.87,5.87,0,1,1,0-11.73V113.1a5.87,5.87,0,1,1,0-11.73V96A5.87,5.87,0,0,1,199.15,90.13Z" fill="#d8423f"/><path d="M14.08,12.86V167.39H190.93V12.86ZM189.64,166.1H15.37v-152H189.64Z" fill="#7c0704" opacity="0.35"/><rect x="15.37" y="14.15" width="174.27" height="151.96" fill="#eef3cc"/><polygon points="189.64 90.06 189.64 166.1 15.37 166.1 15.37 90.06 14.08 90.06 14.08 167.39 190.93 167.39 190.93 90.06 189.64 90.06" fill="#7c0704" opacity="0.2"/><polygon points="58.49 12.79 42.73 12.79 49.16 0 64.92 0 58.49 12.79" fill="#fff" opacity="0.2"/><polygon points="66.58 12.79 62.99 12.79 69.42 0 73.01 0 66.58 12.79" fill="#fff" opacity="0.2"/><text transform="translate(154.43 31.43) scale(0.99 1)" font-size="19.29" fill="#d8423f" font-family="ABeeZee-Regular, ABeeZee Regular">50c</text><g id="_Group_" data-name="&lt;Group&gt;"><path d="M104.49,85.69c1.22.93,3,.74,4.32,1.56a54.15,54.15,0,0,1,6.23,4.3c3.53,11.43-2.19,18.62,6.46,27.1a13.47,13.47,0,0,0-2.31,1.79c-1.71,2,.74,5.09-.87,7-.92,1.09-3.22-3.28-5.77-.26-1.12,1.32-1.29,3.42-2.19,5-3.18-1.64-7.15-4.91-10.58-1.39a1.19,1.19,0,0,1-1.83.16c-1-.81-1.77-2.79-2.59-3.48-1.05-.89-4.67,2.29-5.7,1.42s.41-4.91-1.8-7c-.24-.23-.14-.65,0-.9a10.2,10.2,0,0,0,.89-6.57c2.91-13.11,13.07-17.74,15.59-28.41C94.18,90.18,91.31,101,78.87,106a10.2,10.2,0,0,0-6.33,2c-.23.16-.62.32-.89.12-2.47-1.82-6.08.38-7.24-.6s1.5-5,.45-5.86C64,101,62,100.5,61,99.69a1.19,1.19,0,0,1-.15-1.84c2.89-4-1-7.34-3.14-10.2,1.37-1.14,3.41-1.66,4.52-3,2.55-3-2.13-4.56-1.22-5.65,1.62-1.91,5.05,0,6.76-2a13.47,13.47,0,0,0,1.38-2.57c9.81,7.11,15.94.27,27.8,1.84a54.15,54.15,0,0,1,5.28,5.42C103.26,82.9,103.37,84.64,104.49,85.69Z" fill="#00a7ee"/><path d="M127,126.91c-1.57,1.86-4-.9-5.32.62-.95,1.12,1,4-.94,6.37-2.42,2.87-5.28-2.29-7-.2-.87,1-1.3,3.47-2.7,5.13-2.07,2.45-3.08-1.9-7.73,2.18-.55.48-2.05-.33-2.51.21-5.88,7-5,14.45-7.18,17-.83,1-1.71,1.61-3.16.38-2.65-2.24.36-5.59,2.92-8.62l1.2-1.41c1.36-1.61,1.48-5.73-.45-7.36s-4.32.9-5.16.2c-.57-.48,0-1.77-1-2.64-1.76-1.49-3.82,1-5.79-.71s3.68-5.71,1.87-7.25c-.37-.31-1-.62-1.41-1-2.57-2.18,4.76-6,5.52-12.35.13-1.1.31-2.14.53-3.13a10.2,10.2,0,0,1-.89,6.57c-.12.25-.21.67,0,.9,2.21,2.13.64,6.06,1.8,7s4.65-2.31,5.7-1.42c.82.69,1.64,2.68,2.59,3.48a1.19,1.19,0,0,0,1.83-.16c3.43-3.52,7.4-.24,10.58,1.39.89-1.54,1.07-3.63,2.19-5,2.55-3,4.85,1.34,5.77.26,1.62-1.91-.83-5,.87-7a13.47,13.47,0,0,1,2.31-1.79c-8.64-8.49-2.93-15.67-6.46-27.1l1,.85C133.85,107.41,128.31,125.42,127,126.91Z" fill="#010101"/><path d="M60.07,70.33c-1.57,1.86,1.56,3.83.27,5.35-.95,1.12-4.16-.34-6.13,2-2.42,2.87,3.14,4.82,1.38,6.9-.87,1-3.21,1.86-4.61,3.51-2.07,2.45,2.39,2.72-.86,8-.39.62.67,2,.21,2.51-5.88,7-13.41,7.36-15.57,9.91-.83,1-1.3,2,.15,3.18,2.65,2.24,5.45-1.29,8-4.32l1.19-1.42c1.36-1.61,5.4-2.41,7.34-.78s-.17,4.41.67,5.12c.57.48,1.74-.34,2.77.53,1.76,1.49-.3,3.93,1.67,5.59s5-4.59,6.83-3c.37.31.77.84,1.22,1.22,2.57,2.18,5.08-5.69,11.26-7.5,1.06-.31,2.06-.66,3-1a10.2,10.2,0,0,0-6.33,2c-.23.16-.62.32-.89.12-2.47-1.82-6.08.38-7.24-.6s1.5-5,.45-5.86C64,101,62,100.5,61,99.69a1.19,1.19,0,0,1-.15-1.84c2.89-4-1-7.34-3.14-10.2,1.37-1.14,3.41-1.66,4.52-3,2.55-3-2.13-4.56-1.22-5.65,1.62-1.91,5.05,0,6.76-2a13.47,13.47,0,0,0,1.38-2.57c9.81,7.11,15.94.27,27.8,1.84l-1-.88C78.16,60.36,61.33,68.83,60.07,70.33Z" fill="#010101"/></g><path d="M101,93.45c-4.1,7.53.92,4.25-9.71,23.19-.92,1.61-3.11,5.27-4.86,5.89l-.13-.16a4.11,4.11,0,0,1,.87-1.09c3.92-4.48,9.67-15.88,10.41-18.07s1.11-6.06,3.23-9.86Z" fill="#1e0e00"/><path d="M97.54,90.62c-6,4.79-7.57,1.52-22.81,15.4a15.73,15.73,0,0,0-2.45,2.71,4.11,4.11,0,0,1-.93,1l-.17-.1c.51-2.94,9.06-9,12-11.16,6.19-4.34,4.17-2.84,9.88-5.44a20.32,20.32,0,0,0,4.37-2.62Z" fill="#1e0e00"/><path d="M101.95,92c0,3,.86,3.53.65,5.41-.52,5.1-1.17,14.39,3.92,13.34.38-.08.3-.14.56-.41l1-1.16c2.63-2.81-1.26-6,.14-10.59l.19.07c-1.36,4.54,2.58,7.66-.15,10.66-1.42,1.59-1.28,1.75-2.56,1.7-5.86-.37-3.13-13.14-3.82-15.79a6.31,6.31,0,0,1-.17-3.25Z" fill="#1e0e00"/><path d="M98.69,89.45a6.31,6.31,0,0,1-3.23.37c-2.45-.21-2.55.55-7.61,1.37-3.92.63-8.84.63-8.68-3.32,0-.49.12-.42.37-.76a7.69,7.69,0,0,1,2.13-2.24c2.74-1.32,5.68.89,9.33-.91l.1.17c-4.91,2.45-8.33-2.15-11.63,3.42a2.12,2.12,0,0,0,0,1.08c1.06,4.32,9.45,2.05,13.72.87,1.79-.51,2.57.18,5.44-.26Z" fill="#1e0e00"/><path d="M109.32,106.78c7,7.13,9.66,14.7,10,17l-.19.06C117.6,121.3,116.54,115.09,109.32,106.78Z" fill="#1e0e00"/><path d="M82.88,84.44c-9.43-5.75-15.64-5.72-18.48-6.82l0-.2C67.11,77.36,75.22,79.07,82.88,84.44Z" fill="#1e0e00"/><path d="M107.41,110.17c4.18,13.36,1.8,6.42,5.52,19.84a1.67,1.67,0,0,1,.08.94l-.19.06a1.65,1.65,0,0,1-.39-.85C109.22,117.6,111.78,126.39,107.41,110.17Z" fill="#1e0e00"/><path d="M79.85,86.89c-17-1.62-7.94-.57-20.53-1.61a1.65,1.65,0,0,1-.9-.24l0-.2a1.67,1.67,0,0,1,.94-.07C73.54,86.22,65.75,85,79.85,86.89Z" fill="#1e0e00"/><path d="M104.91,111c-1,5.08-.84,12.39-2.5,21l-.71-.18C103.66,123.24,103.68,116,104.91,111Z" fill="#1e0e00"/><path d="M79.5,89.49c-4.94,2.12-11.72,3.21-20,6.64l-.3-.67C67.74,92.26,74.46,91.45,79.5,89.49Z" fill="#1e0e00"/><path d="M103.29,109.23c-1.73,4.64-2.25,2.52-4.79,10.2-1.65,5-.81,2.61-3.77,10.71l-.58-.25c3.2-8.08,2.14-5.28,4.77-12.56C100.21,113.57,101.78,113,103.29,109.23Z" fill="#1e0e00"/><path d="M81.47,90.79c-2.85,1.76-3.15,2.78-5.52,4.57,0,0-7.18,4.15-13.34,7.88l-.34-.53c17.05-9.7,11-5.34,17.44-10.79A11.65,11.65,0,0,1,81.47,90.79Z" fill="#1e0e00"/><path d="M102.13,103.86c-5.43,7.83-9.13,19.39-15.17,23l-.15-.14a11.45,11.45,0,0,1,1.52-2.07C96.76,114.76,95.13,112.75,102.13,103.86Z" fill="#1e0e00"/><path d="M87,91c-7.33,8.09-10.06,7.35-18.19,17.07A11.46,11.46,0,0,1,67,110l-.16-.12C69.27,103.53,80.46,97.4,87,91Z" fill="#1e0e00"/><g id="_Group_2" data-name="&lt;Group&gt;"><path d="M123.28,89.78c-.52-.72-.86-1.16-.78-1S122.83,89.22,123.28,89.78ZM98.39,68.45c.2,0-.28-.21-1.08-.61C97.94,68.19,98.27,68.42,98.39,68.45ZM107.58,82q1.28-.71,2.69-1.39c7.08,3,16.14,3.6,21.94-2.57,3.06-3.25,7.75-1.16,11.86-.49a5.21,5.21,0,0,0-.73.69c-1.07,1.26-.34,2.22.81,3.19,5.12,4.32-6.06-2,1.88,7.35-2.29-.06-4.63-.88-6.94-1.19.42,2,2.77,2.81,2.82,5a14.59,14.59,0,0,1-5.68-2.88c-.59-.49-.51-.36-.55-.35a45.07,45.07,0,0,1,3,4.77c.52,1.05,1.27,2.8,1.42,3,1.71,2.48-4.29-1.34-9.52-5.81a11.71,11.71,0,0,1-1.74-1.82h0s11.66,16.15,6.8,12c-3.85-3.26-3.25-2.1-8.51-6.24-.1-.08-1.29-1.8-2.44-3.45a20.91,20.91,0,0,0-1.42-2l1.42,2c.25.41.53.86.81,1.37.11.2,8.26,14.65,5.19,12.05-2.16-1.82-5.12-2.56-7.25-4.36A7.28,7.28,0,0,1,122,99.22c2.61,4.34,4.65,9.18,7.49,13.36l-.42-.35c-5.37-4.54-9.43-10-13.31-13.28-2-1.72-4.25-3.3-6.28-5a20.92,20.92,0,0,1-5.89-7.17,20.92,20.92,0,0,1-8.05-4.61c-2-1.72-4-3.63-6-5.36-3.89-3.28-9.95-6.37-15.32-10.91l-.42-.36c4.6,2.1,9.71,3.3,14.43,5.15a7.28,7.28,0,0,1-1.87-1.17c-2.13-1.8-3.36-4.6-5.51-6.42-3.07-2.59,12.53,3,12.75,3.11.55.19,1,.38,1.49.57l2.22,1.06a20.91,20.91,0,0,0-2.22-1.06c-1.82-.86-3.71-1.74-3.81-1.83-5-4.49-3.72-4.09-7.57-7.34-4.87-4.11,13,4.69,13,4.69h0a11.71,11.71,0,0,1-2.08-1.41c-5.28-4.41-10.06-9.68-7.32-8.41.23.11,2.08.56,3.2.89a45.08,45.08,0,0,1,5.21,2.18s.15,0-.44-.49a14.58,14.58,0,0,1-3.79-5.12c2.13-.3,3.32,1.87,5.36,2-.69-2.22-1.89-4.4-2.33-6.64,10.54,6.26,2.44-3.7,7.56.62,1.15,1,2.22,1.53,3.28.26a5.21,5.21,0,0,0,.56-.83c1.34,3.94,4.19,8.22,1.5,11.78-5.12,6.75-3,15.58,1.13,22.06Q108.07,80.64,107.58,82Z" fill="#0088c6"/><path d="M130.62,91.3c5.22,4.47,11.23,8.3,9.52,5.81-.14-.21-.9-2-1.42-3a41.9,41.9,0,0,0-3-4.77s-.06-.17.55.35a14.59,14.59,0,0,0,5.68,2.88c-.05-2.15-2.4-3-2.82-5,2.31.31,4.65,1.13,6.94,1.19-7.93-9.34,3.24-3-1.88-7.35-1.15-1-1.87-1.93-.81-3.19a5.21,5.21,0,0,1,.73-.69c-4.11-.67-8.8-2.76-11.86.49-5.8,6.18-14.86,5.55-21.94,2.57,15-7.23,41.09-11.61,55.07.2,4.25,3.59,7.34,10.77,4.73,13.86-1.67,2-9.27,2.81-14.79,9.34-1.05,1.24-2.21,3.06-2.28,3.14-1.65,1.95-4.7,2-7,3.54-4.84,3.16-7.86,8.92-16.51,1.88-2.83-4.18-4.88-9-7.49-13.36a7.28,7.28,0,0,0,1.46,1.65c2.13,1.8,5.1,2.54,7.25,4.36,3.07,2.59-5.08-11.85-5.19-12.05-.28-.51-2.86-4.21-3.12-4.61a46.4,46.4,0,0,0,5.15,6.09c3.68,3.9,4.25,3.58,8.1,6.83,4.87,4.11-6.8-12-6.8-12h0A11.71,11.71,0,0,0,130.62,91.3Z" fill="#010101"/><path d="M94.59,60.86c-5.28-4.41-10.06-9.68-7.32-8.41.23.11,2.08.56,3.2.89a41.9,41.9,0,0,1,5.21,2.18s.18,0-.44-.49a14.58,14.58,0,0,1-3.79-5.12c2.13-.3,3.32,1.87,5.36,2-.69-2.22-1.89-4.4-2.33-6.64,10.54,6.26,2.44-3.7,7.56.62,1.15,1,2.22,1.53,3.28.26a5.21,5.21,0,0,0,.56-.83c1.34,3.94,4.19,8.22,1.5,11.78-5.12,6.75-3,15.58,1.13,22.06,4.62-16,4.59-42.45-9.39-54.26-4.25-3.59-11.85-5.44-14.46-2.35-1.67,2-1.22,9.61-6.74,16.14-1.05,1.24-2.65,2.69-2.71,2.77-1.65,1.95-1.21,5-2.32,7.52-2.3,5.3-7.48,9.24.9,16.59,4.6,2.1,9.71,3.3,14.43,5.15a7.28,7.28,0,0,1-1.87-1.17c-2.13-1.8-3.36-4.6-5.51-6.42-3.07-2.59,12.53,3,12.75,3.11.55.19,4.62,2.12,5.07,2.3a46.4,46.4,0,0,1-6.87-4.06c-4.46-3-4.24-3.59-8.09-6.85-4.87-4.11,13,4.69,13,4.69h0A11.71,11.71,0,0,1,94.59,60.86Z" fill="#010101"/></g><path d="M131.53,77.33c3.47-2.15,6.76,2.5,8,1.92C142,77,142.67,76.12,145,76.47l0,.2a3.43,3.43,0,0,0-2.22.32c-4.81,3.14-1.69,3.82-6.75.95-2.95-1.72-4.4-.44-4.4-.44Z" fill="#1e0e00"/><path d="M108,57.55a3.12,3.12,0,0,0,0-2.24c-.5-1.58-2.16-3-3.09-4.1-1.17-1.52.1-1.1,1.68-4.73.2-1.49.25-1.08-.05-2.24l.18-.08c.74,2.28,0,3.09-1.81,5.92-.36,1.27,4.75,3.8,3.22,7.55Z" fill="#1e0e00"/><path d="M139.7,79.31c.29.22.52.21.8.7,1.1,2.26-.72,7.05-1.35,7.8-4.17,4.53-19.87.14-29.46-1-5.36-.66-5.71.31-6.48-3.39-2.57-10.64-9.71-24.34-7.28-30.3.43-1.35,1.12-1.92,3.68-3.09,1.83-.82,4.12-1.62,5.27-.13l-.15.13c-1-1.46-3.45-.56-5,.19-5.9,2.82-4.87,5.27,1.44,25.09.56,1.77,1.11,3.56,1.57,5.36.84,3.32.69,4.18,1.48,5.34h0a6.42,6.42,0,0,0,2.72.42c11.23.32,27.08,5.22,31.52,1.63,1.31-.84,3.14-6.38,1.68-8.19-.09-.16-.37-.26-.54-.39Z" fill="#1e0e00"/><path d="M123.24,101c-.34-.39-3.72-4.32-4.08-4.7-6.92-7.53-9.63-5.77-15.72-9.4-1-1.18-1.39-1.48-3.46-5.25-3.44-5.74-4.47-6.31-13.75-11.92l0-.06c16.25,8.1,11.74,10,17.43,16.95l0,0c7.62,4.32,9-.19,19.62,14.36Z" fill="#1e0e00"/><path d="M105.85,87.75c.47.19.65.63,1,1,2.75,2.54,4.26,3.3,3.71,6.18.36-4-4.49-5.1-4.9-7Z" fill="#1e0e00"/><path d="M102.13,84.86c-1.89-.09-3.82-4.69-7.72-3.67,2.39-.89,3.66.15,5.6,1.75A20.58,20.58,0,0,0,102,84.39a1.39,1.39,0,0,1,.27.3Z" fill="#1e0e00"/><path d="M103.42,89.24c1.1,6.61-.25,5.06,9.08,13,6.42,5.46,9.07,8.68,11.3,12.34l-.17.1c-2-3.39-4.6-6.69-11.28-12.26-9.52-8-8.76-6.82-9.13-13.18Z" fill="#1e0e00"/><path d="M101.17,87.53c-6.17.68-5,1.26-14.52-6.8-6.74-5.78-10.43-7.68-14-9.08l.07-.19C84.73,76.24,91.7,86.93,97,87.39c2.13-.06,2.85-.06,4.13-.06Z" fill="#1e0e00"/><path d="M108.22,81c-1.24,2.4-1.54,6-3.17,8.71,0,.07-5.75,5.68-5.75,5.68-.31.37-9.76,10.11-10.94,9.11s6.89-11.6,7.21-12c0,0,4.53-6.91,4.59-7C102.52,83.54,106.07,82.63,108.22,81Z" fill="#31100d"/><path d="M114.12,74c.66.69.16,3-.39,3.67-.36.43-.69.42-1.73-.46l-.1-.09-.25-.2-.24-.21-.1-.09c-1-.87-1.1-1.19-.74-1.62C111.12,74.38,113.33,73.5,114.12,74Z" fill="#031825"/><path d="M114.35,75.39l-.18.18c-.49.58-.44,1.21-.28,1.34s.39.25.71-.13a1,1,0,0,0-.12-1.31Z" fill="#cdcac5"/><path d="M112.75,74l-.15.21c-.49.58-1.12.64-1.28.5s-.31-.34,0-.72a1,1,0,0,1,1.31-.1Z" fill="#cdcac5"/><path d="M111.92,76.63c.14.1.27.2.38.29a2.13,2.13,0,0,1,.53.65c1,1.88.34,3.8-1,5.39a15.94,15.94,0,0,1-5.58,3.73c-1,.34-3.62-1.73-3.33-2.87a15.37,15.37,0,0,1,2.74-6.12,4.74,4.74,0,0,1,5.18-1.8,2.13,2.13,0,0,1,.73.41C111.68,76.4,111.8,76.51,111.92,76.63Z" fill="#1a1119"/><path d="M113.62,74.91c2.38-4.28,17.11.6,22.37-3,1.38-.95,1.39-1.68,1.1-1.67l-.06,0,.06,0a.17.17,0,0,1,.16.12c.07.19-.13.44-.33.71-4.19,5.13-18.55-.32-23.09,4Z" fill="#1a1119"/><path d="M113.48,74.21c2.34-3.85-2.76-19.17-1.43-22.73.11-.29.27-.58.47-.54s0,.24.06.22.11-.13-.06-.22c-1.68-.3.47,9.87.77,11.45,1.2,6.37,1.7,10.08.56,12Z" fill="#1a1119"/></svg>