<svg id="Layer_1" data-name="Layer 1" xmlns="http://www.w3.org/2000/svg" viewBox="0 0 205.04 143.96"><title>stampLizzard</title><path d="M205,134v-5.84a5.67,5.67,0,1,1,0-11.33V113.7a5.67,5.67,0,1,1,0-11.33V99.28a5.67,5.67,0,1,1,0-11.33V84.86a5.67,5.67,0,1,1,0-11.33V70.43a5.67,5.67,0,1,1,0-11.33V56a5.67,5.67,0,1,1,0-11.33V41.59a5.67,5.67,0,1,1,0-11.33V27.16a5.67,5.67,0,1,1,0-11.33V10A10,10,0,0,1,195,0H10A10,10,0,0,1,0,10v5.84A5.67,5.67,0,0,1,5.67,21.5,5.67,5.67,0,0,1,0,27.16v3.09A5.67,5.67,0,1,1,0,41.59v3.09A5.67,5.67,0,1,1,0,56V59.1a5.67,5.67,0,0,1,5.67,5.67A5.67,5.67,0,0,1,0,70.43v3.09A5.67,5.67,0,1,1,0,84.86v3.09a5.67,5.67,0,0,1,5.67,5.67A5.67,5.67,0,0,1,0,99.28v3.09A5.67,5.67,0,0,1,5.67,108,5.67,5.67,0,0,1,0,113.7v3.09a5.67,5.67,0,0,1,5.67,5.67A5.67,5.67,0,0,1,0,128.13V134a10,10,0,0,1,10,10H195A10,10,0,0,1,205,134Z" fill="#ed5d54"/><polygon points="189.63 71.34 189.63 129.85 15.41 129.85 15.41 71.34 14.13 71.34 14.13 131.13 190.91 131.13 190.91 71.34 189.63 71.34" fill="#7c0704" opacity="0.35"/><path d="M0,73.53A5.67,5.67,0,1,1,0,84.86v3.09a5.67,5.67,0,0,1,5.67,5.67A5.67,5.67,0,0,1,0,99.28v3.09A5.67,5.67,0,0,1,5.67,108,5.67,5.67,0,0,1,0,113.7v3.09a5.67,5.67,0,0,1,5.67,5.67A5.67,5.67,0,0,1,0,128.13V134a10,10,0,0,1,10,10H195a10,10,0,0,1,10-10v-5.84a5.67,5.67,0,1,1,0-11.33V113.7a5.67,5.67,0,1,1,0-11.33V99.28a5.67,5.67,0,1,1,0-11.33V84.86a5.67,5.67,0,1,1,0-11.33V71.34H0Z" fill="#d8423f"/><path d="M14.13,12.83v118.3H190.91V12.83Zm175.5,117H15.41V14.11H189.63Z" fill="#7c0704" opacity="0.2"/><rect x="15.41" y="14.11" width="174.21" height="115.73" fill="#eef3cc"/><polygon points="63.32 12.83 47.13 12.83 53.55 0 69.75 0 63.32 12.83" fill="#fff" opacity="0.2"/><polygon points="72.36 12.83 67.92 12.83 74.35 0 78.79 0 72.36 12.83" fill="#fff" opacity="0.2"/><text transform="translate(165.9 31.34) scale(0.99 1)" font-size="19.29" fill="#d8423f" font-family="ABeeZee-Regular, ABeeZee Regular">5c</text><path d="M46.06,113.46a10.55,10.55,0,0,1-3.59,1.73,35.22,35.22,0,0,1,4.38-3.57,2.92,2.92,0,0,1-2.36,0L49,109.5a8.34,8.34,0,0,1,2.89-.95c.49,0,1.17-.2,1.09-.72a1,1,0,0,0-.19-.38l-2.52-3.52c-.81-1.14-2-2.06-2.32-3.43a2.15,2.15,0,0,1-.07-1c.1-.44.87-.65,1.3-.7,2.38,3.5,6.52,5.38,8.66,9a2.23,2.23,0,0,1,.33,2.09,2,2,0,0,1-1.47.78l-1.54.31-.57.12a6.06,6.06,0,0,0-3.37,1.46,4.72,4.72,0,0,0-1,1.72,22.21,22.21,0,0,1-1.09,3.18,6.78,6.78,0,0,1,.2-3.71c-2.19,1.67-3.13,4.63-4.83,6.85,0-2.47,2.45-4.19,2.55-6.65a30,30,0,0,1-5.48,4,3,3,0,0,1,1-1.4Z" fill="#080307"/><path d="M53.57,106.7a4.56,4.56,0,0,0,2.08,2.95,1.54,1.54,0,0,0,.94.27.7.7,0,0,0,.62-.66,1.22,1.22,0,0,0-.56-.85,10.05,10.05,0,0,1-1.84-1.66c-.25-.34-.45-.72-.71-1a1.5,1.5,0,0,0-1-.64c-.13.3.06.43.18.68A3.75,3.75,0,0,1,53.57,106.7Z" fill="#fff" opacity="0.25"/><path d="M87.19,90a5.4,5.4,0,0,1,.35-1.42h0a2.16,2.16,0,0,1,.43-.66A3.5,3.5,0,0,1,89,87.26l2.14-1a1.08,1.08,0,0,1,.82-.14c.5.19.55.9.52,1.45v.1q-.1,1.48-.21,3l-.13,1.87h0v.06a3.77,3.77,0,0,1,2.19-1.66,26,26,0,0,1,2.72-.59,25.33,25.33,0,0,0,6.41-2.7,6.62,6.62,0,0,0,2.28-1.68,1.89,1.89,0,0,1,.06.61h0a2.49,2.49,0,0,1-.68,1.51,6,6,0,0,1-1.85,1.19l-4.57,2.19,0,0a7.31,7.31,0,0,0,3.39,1.44,20.86,20.86,0,0,0,4.76.8,26.51,26.51,0,0,1,7.7,1.51,1.76,1.76,0,0,0,1.25.12,1.67,1.67,0,0,1-.6.46,2.62,2.62,0,0,1-1.33.2,15.6,15.6,0,0,1-2.1-.49,15,15,0,0,0-3.48-.28q-2.29,0-4.58.08a2.8,2.8,0,0,1,1.13.35c.49.24,1,.53,1.34.68l2.6,1.09c.5.21,1.75.46,1.88,1.13a.73.73,0,0,1,0,.41c-.18.47-1,.45-1.38.34A19.71,19.71,0,0,1,105.89,98l0,0a.53.53,0,0,1-.11.1,1.2,1.2,0,0,1-1,0l-2.82-.95a.69.69,0,0,0-.43,0,1.3,1.3,0,0,0-.29.19c-.42.29-1,0-1.45-.27l-2.26-1.37-.88-.53a8.17,8.17,0,0,0-3.27,2.59h0l-.17.18a6.63,6.63,0,0,1-2.82,2,3.08,3.08,0,0,1-.94.12,1.76,1.76,0,0,1-.85-.21,2,2,0,0,1-.52-.46c-1.11-1.32-1.17-3.23-1.14-5A38.38,38.38,0,0,1,87.19,90Z" fill="#2a304a"/><path d="M91.93,97.37c0-.1.07-.24,0-.3a.33.33,0,0,0-.2,0,.64.64,0,0,1-.51-.44,1.8,1.8,0,0,1-.07-.72,25.35,25.35,0,0,1,.41-3.12,6.15,6.15,0,0,1,.24-1,11.65,11.65,0,0,1,.56-1.15,6.08,6.08,0,0,0,.55-1.81,1.51,1.51,0,0,0,0-.64.59.59,0,0,0-.43-.43c-.28,0-.49.21-.66.44l-.58.81a1,1,0,0,0-.24.89c0,.08.09.16.13.24a1,1,0,0,1-.11.79A12.55,12.55,0,0,0,90.32,93l.49-.62a.92.92,0,0,1-.11.75,7.71,7.71,0,0,0-.34,4,1.75,1.75,0,0,0,.14.58C90.9,98.53,91.67,97.93,91.93,97.37Z" fill="#fff" opacity="0.25"/><path d="M87.19,90a5.4,5.4,0,0,1,.35-1.42h0l2.41-.34a4.82,4.82,0,0,1-.45,1.68,15.92,15.92,0,0,0-.87,7.71,3,3,0,0,0,.76,1.87,1.74,1.74,0,0,0,1,.41,3.08,3.08,0,0,1-.94.12,1.76,1.76,0,0,1-.85-.21,2,2,0,0,1-.52-.46c-1.11-1.32-1.17-3.23-1.14-5A38.38,38.38,0,0,1,87.19,90Z" fill="#080307"/><path d="M92.17,92.52v.06a3.77,3.77,0,0,1,2.19-1.66,26,26,0,0,1,2.72-.59,25.33,25.33,0,0,0,6.41-2.7,6.62,6.62,0,0,0,2.28-1.68,1.89,1.89,0,0,1,.06.61h0a7.1,7.1,0,0,1-3,2l-1.65.74-1.84.83a9.45,9.45,0,0,1-2.89.95,3.63,3.63,0,0,0-.85.13,2.59,2.59,0,0,0-.6.35,9.43,9.43,0,0,0-1.68,1.37,3.5,3.5,0,0,0-.94,2c0,.36,0,.78-.26,1a.24.24,0,0,1-.27.08c-.11-.05-.14-.2-.15-.32A6.6,6.6,0,0,1,92.17,92.52Z" fill="#080307"/><path d="M110.73,98.55a.73.73,0,0,1,0,.41,11.48,11.48,0,0,0-2.87-1.14,24.07,24.07,0,0,1-5.4-2.5,12.83,12.83,0,0,1,2.46.33c.49.24,1,.53,1.34.68l2.6,1.09C109.34,97.64,110.6,97.88,110.73,98.55Z" fill="#080307"/><path d="M102.47,96.72A8.15,8.15,0,0,1,105.89,98l0,0a.53.53,0,0,1-.11.1,1.28,1.28,0,0,0-.29-.27,4,4,0,0,0-1.26-.42A7.69,7.69,0,0,1,102.47,96.72Z" fill="#080307"/><path d="M98.34,91.74a1.14,1.14,0,0,1,.43-.26,7.31,7.31,0,0,0,3.39,1.44,20.86,20.86,0,0,0,4.76.8,26.51,26.51,0,0,1,7.7,1.51,1.76,1.76,0,0,0,1.25.12,1.67,1.67,0,0,1-.6.46c-1.71-.39-3.41-.78-5.12-1.13a15.09,15.09,0,0,0-2-.32c-.68,0-1.37,0-2.05,0a17.42,17.42,0,0,1-4.55-.81A6.2,6.2,0,0,1,98.34,91.74Z" fill="#080307"/><path d="M93.33,97.73A7.89,7.89,0,0,1,95.06,95a8.49,8.49,0,0,1,1.06-.81,3.69,3.69,0,0,1,.89-.49,3,3,0,0,1,1-.12,14.46,14.46,0,0,1,4.42,1c-.61.28-1.37,0-2,.21a.37.37,0,0,0-.2.15.4.4,0,0,0,0,.36,1.49,1.49,0,0,0,.94.66l1,.37c-.82.18-1.68-.41-2.52-.33a1.7,1.7,0,0,0,.64.76c0,.07-.09.08-.15.07A5.14,5.14,0,0,1,98.76,96a2,2,0,0,0-1.28-.37l-.88-.53A8.17,8.17,0,0,0,93.33,97.73Z" fill="#fff" opacity="0.25"/><path d="M49,111.33a3.32,3.32,0,0,1,1.66-.91c.92-.11,1.81.55,2.74.64a10.52,10.52,0,0,0,1.39-.06,2.64,2.64,0,0,1,.39,0l-.57.12a6.06,6.06,0,0,0-3.37,1.46,4.72,4.72,0,0,0-1,1.72c-.08-.31-.15-.62-.23-.86s-.2-.51-.43-.54c.1-.07.05-.26-.06-.31a.3.3,0,0,0-.33.11A3.32,3.32,0,0,0,49,113a.8.8,0,0,1-.66.34,2.27,2.27,0,0,1,.57-1A.86.86,0,0,0,49,111.33Z" fill="#fff" opacity="0.25"/><path d="M25,107.85c1.53-1.31,2.81-2.21,2.81-2.21l.05-.06a46.16,46.16,0,0,1,7.77-6.22,21.66,21.66,0,0,0,7.84-4.55l.25-.23c.57-.54.87-.89.87-.89s-2.5-1.8.05-2.4a7.17,7.17,0,0,0,.89-.29C49,89.64,58,84.53,65.36,80.86c3.91-2,9.1-2.35,13.44-2.23,1,0,1.91.08,2.77.15,2,.16,3.69.39,4.64.54l.88.15s1-.38,2.71-.94c6.45-2.1,23.12-6.71,35.77-3.08A49.88,49.88,0,0,1,132.67,78c1.93.89,3.4,2.3,5.35,3.18a58.32,58.32,0,0,0,13.64,4.17,19,19,0,0,0,4.47.37c4.32-.27,7.83-2.22,11.66-3.93a78.5,78.5,0,0,1,13.37-4.15,16.68,16.68,0,0,1,4-.65,94.16,94.16,0,0,0-13.51,6.3c-4.06,2.24-7.91,5.15-12.51,6.1-6.88,1.43-14.26-.51-20.74-3.64a61.83,61.83,0,0,0-16.08-5c-9.44-1.78-19,2-24.23,5-1.68,1-3.28,1.82-4.82,2.61l-.36.18-.5.25L91,89.47l-1.58.76L87,91.34l-2.67,1.28-.16.08a82.54,82.54,0,0,1-16.5,6,73.83,73.83,0,0,0-8.81,2.57c-1.24.43-2.24.79-3,1a6.25,6.25,0,0,0-1,.41c-.36.17-.77.39-1.21.65-.79.46-1.69,1-2.62,1.72a37.54,37.54,0,0,0-6.64,6c-3.41,4.08-9.69,6.78-9.69,6.78a5.67,5.67,0,0,1-6.09,1.33,12.15,12.15,0,0,0-2.4-.46c-1.19-.16-2.59-.31-3.66-.45l-.67-.09a2.79,2.79,0,0,1-2.06-2.23,4.68,4.68,0,0,1-.15-.71C19.51,113,22.57,109.91,25,107.85Z" fill="#161416"/><path d="M138.14,81.53a.5.5,0,0,0,.1.29,2.68,2.68,0,0,1,.21.29.57.57,0,0,1-.26.77,6.25,6.25,0,0,0,2.87,1.33,5.74,5.74,0,0,1,2.83,1.4s.09.12.07.17a.14.14,0,0,1-.07.06,2.64,2.64,0,0,1-1.27.2,2,2,0,0,0-1.05.23c-.28.18-.2.43-.24.76,5.73,2.33,12,3.57,17.83,2.35,4.6-1,8.45-3.86,12.51-6.1A94.15,94.15,0,0,1,185.18,77a16.68,16.68,0,0,0-4,.65,78.5,78.5,0,0,0-13.37,4.15c-3.83,1.71-7.34,3.66-11.66,3.93a19,19,0,0,1-4.47-.37q-2-.36-4-.86-2.51-.63-5-1.48-1.23-.43-2.44-.91L139,81.6c-.18-.08-.81-.49-.88-.12A.28.28,0,0,0,138.14,81.53Z" fill="#2c73e7"/><path d="M20.69,116.43a.46.46,0,0,1,.17-.52c.22-.12.49,0,.75.06a1.22,1.22,0,0,0,1-.48,3.38,3.38,0,0,1,.82-.76,2.46,2.46,0,0,1,1.52-.05c2,.32,4.1.37,5.69-.8a2,2,0,0,1,.45-.29,2.83,2.83,0,0,1,.53-.1,1.91,1.91,0,0,0,1.36-1,.71.71,0,0,1,.2-.28c.22-.14.5.05.76.09.47.07.81-.4,1.19-.68a3.56,3.56,0,0,1,2.84-.22l-3.39,1.17a1.47,1.47,0,0,0-.36.16c-.32.22-.44.67-.74.92-.46.4-1.16.22-1.73.41a3.28,3.28,0,0,0-.62.32,8.05,8.05,0,0,1-4.9,1.1,4.26,4.26,0,0,0-2.29.09,10,10,0,0,0-1.1.83,1.15,1.15,0,0,1-1.3.12s-.37.33-.46.32S20.73,116.56,20.69,116.43Z" fill="#e3793d"/><path d="M22.61,118.19l.4-.14c1.18-.35,2.51.07,3.69-.28a8.46,8.46,0,0,0,1.44-.68,9.2,9.2,0,0,1,3-.93,4.53,4.53,0,0,0,2-.52,3.09,3.09,0,0,1,.5-.34,1.69,1.69,0,0,1,.49-.1l1.45-.16a.15.15,0,0,1,.13,0,.16.16,0,0,1,0,.15,1,1,0,0,1-.89.68,7.34,7.34,0,0,0-1.16.16c-.24.08-.46.23-.69.33a10.25,10.25,0,0,1-2.48.3,6.69,6.69,0,0,0-2,.78c-.46.24-.93.48-1.38.74a5.26,5.26,0,0,1-.86.42l-.05,0C25.08,118.49,23.68,118.33,22.61,118.19Z" fill="#e3793d"/><path d="M37.64,113.22a2.28,2.28,0,0,1,.34-.49.2.2,0,0,1,.12-.07.18.18,0,0,1,.16.14.53.53,0,0,1,0,.23q-.05.35-.13.68a.8.8,0,0,1-.09.24.67.67,0,0,1-.14.15,2.67,2.67,0,0,1-.7.43c-.52.22-.44-.06-.18-.39A8.82,8.82,0,0,0,37.64,113.22Z" fill="#e3793d"/><path d="M39.35,112.13a.79.79,0,0,1-.57.25c-.18,0-.29-.22-.38-.39a3.41,3.41,0,0,1-.18-.46.61.61,0,0,1,0-.36.52.52,0,0,1,.44-.29c.34-.06.74-.37.91.19A2,2,0,0,1,39.35,112.13Z" fill="#e3793d"/><path d="M28.92,110.05a1.83,1.83,0,0,1,.59-.28c.16,0,.33,0,.49-.06a1.82,1.82,0,0,0,.51-.27,29.41,29.41,0,0,1,3.86-1.64,18,18,0,0,0,3.32-2.12l1.54-1.18a.43.43,0,0,1,.12.5,1.15,1.15,0,0,1-.34.41,9,9,0,0,0-1.21,1.35,3.92,3.92,0,0,1-.42.52,3.08,3.08,0,0,1-.56.4,11.16,11.16,0,0,1-1.45.78c-.95.4-2,.52-2.93.94a11.89,11.89,0,0,1-1.3.59c-.3.09-.6.13-.9.22-1.64.5-2.6,2.4-4.24,2.9a5.68,5.68,0,0,1-.82.17c-.31,0-1.32.08-.71-.41a17.07,17.07,0,0,1,1.5-1Z" fill="#e3793d"/><path d="M25,107.85l1.8-1.12c.2-.13.4-.25.61-.36a3.29,3.29,0,0,1,2.39-.26,1.45,1.45,0,0,1,1.08-1c.43-.08.93,0,1.25-.27s.33-.54.6-.59.34.06.51,0c.37-.09.42-.76.8-.78.15.18.38.3.45.53s-.2.6-.5.67a7.83,7.83,0,0,0-.9.12,6.3,6.3,0,0,0-.79.51,5.39,5.39,0,0,1-.6.23,9.68,9.68,0,0,0-1.06.59c-1.4.76-3.17.66-4.5,1.54a3.76,3.76,0,0,0-1.32,1.55,16.88,16.88,0,0,1-.87,2.12c-.58.9-1.62,1.3-2.43,2a5.13,5.13,0,0,0-1.62,2.51,4.68,4.68,0,0,1-.15-.71C19.51,113,22.57,109.91,25,107.85Z" fill="#50311f"/><path d="M35.9,102.66s.72-.38,1.94-1.12c.61-.37,1.34-.83,2.17-1.38s1.74-1.21,2.7-2q.72-.56,1.47-1.22l.37-.34c.12-.11.25-.23.37-.35l.74-.74c.49-.51,1-1,1.57-1.52l.84-.75.88-.73.45-.36.46-.36.46-.36.48-.35,1-.7,1-.68.5-.34.51-.32,1-.65,1.05-.62.53-.31.54-.3L58,86.63l.27-.15.27-.14.55-.27,1.09-.54,1.1-.5,1.09-.49,1.1-.44,1.09-.43,1.09-.39,1.07-.39,1.06-.34c.7-.22,1.38-.44,2.06-.61l1-.27.49-.13.24-.07.07,0h.06l.12,0c.65-.12,1.28-.22,1.89-.3C74.91,81,76,80.87,77,80.84s1.87,0,2.59,0l.51,0,.45,0,.39,0,.32,0,.59.08L81.28,81,81,81l-.39,0-.45,0h-.51c-.72,0-1.58,0-2.57.08s-2.1.2-3.3.38c-.6.09-1.23.2-1.87.34l-.12,0h-.06l-.05,0-.24.07-.48.14-1,.29c-.67.18-1.35.42-2,.65l-1.05.35-1.06.39-1.07.4-1.08.44L62.55,85l-1.08.49-1.09.5-1.08.54-.54.27-.27.14-.27.15-1.07.58-.53.29-.53.31-1,.61-1,.64-.51.32-.5.33-1,.67-1,.69-.48.34-.46.35-.46.35-.45.36-.88.72-.85.73c-.55.49-1.08,1-1.59,1.47l-.76.73c-.12.12-.25.23-.38.35l-.38.33q-.76.65-1.5,1.2c-1,.74-1.92,1.36-2.76,1.89s-1.59,1-2.21,1.31-1.12.6-1.46.78Z" fill="#e3793d"/><path d="M37,106.42c.1-.09,10.21-8.71,13.7-11.28S68.88,84.78,75,84.69c4.62-.06,13.47-3.16,17-4.46l1.51-.57A68.88,68.88,0,0,1,109.27,76a54,54,0,0,1,13.89.15l.79.13a35,35,0,0,1,14.81,6l-.37.6c-9.27-6.69-20.89-7-29-6.13a68.35,68.35,0,0,0-15.6,3.6L92.07,81c-3.68,1.36-12.31,4.36-17,4.42-5.92.08-20.6,7.87-23.94,10.33S37.57,106.92,37.47,107Z" fill="#e3793d"/><path d="M38.93,111.15c.05,0,5.18-3.79,6.89-6.05,1.87-2.47,10.24-7.84,15.73-10.09l2.55-1.06a90.48,90.48,0,0,1,16.73-5.5,77.93,77.93,0,0,0,13.39-4.29c.72-.32,1.09-.51,1.11-.52a51.47,51.47,0,0,1,9.16-3.51,45.72,45.72,0,0,1,18.84-1.55q.79.12,1.59.28c7.77,1.55,12.11,4.09,14.39,5.95a7.37,7.37,0,0,0,3.28,2,7.62,7.62,0,0,1,2.09.52,7.94,7.94,0,0,0-1.26-.25,18.25,18.25,0,0,1-2.41-.4,3.87,3.87,0,0,1-1.16-.45c-.35-.24-.66-.6-1-.88-2.21-1.79-6.44-4.24-14-5.75s-15.15-.16-20.11,1.25a51,51,0,0,0-9,3.47s-.42.22-1.22.57A79,79,0,0,1,81,89.16a89.93,89.93,0,0,0-16.63,5.47l-2.55,1.06C56,98.09,48,103.37,46.36,105.57s-6.81,6-7,6.19Z" fill="#e3793d"/><path d="M54.92,102.67a37.68,37.68,0,0,1,6.91-3.47,52,52,0,0,0,5-2.1,33.85,33.85,0,0,1,9.72-3C82,93,89,90.18,93.29,88.31c-3.18,1.62-6.1,2.94-8.92,4.31a59.39,59.39,0,0,1-7.68,2.17c-5.58,1.1-7.26,1.89-9.58,3a52.21,52.21,0,0,1-5,2.12,30.62,30.62,0,0,0-3.18,1.38c-1.24.43-2.24.79-3,1A6.25,6.25,0,0,0,54.92,102.67Z" fill="#e3793d"/><path d="M27.84,105.58a46.16,46.16,0,0,1,7.77-6.22,21.66,21.66,0,0,0,7.84-4.55v0a1,1,0,0,1-.4.85,13.55,13.55,0,0,1-3.25,2.69c-1.4.75-3.1,1.06-4.11,2.33a.77.77,0,0,1-.26.25c-.19.08-.4,0-.61,0a1.18,1.18,0,0,0-.9.46,7,7,0,0,1-.71.78c-.43.34-1,.47-1.26,1a.38.38,0,0,0,0,.37s.09.08.12.13-.06.34-.21.42c-.82.46-1.9.41-2.6,1.06l-.12-.39A1.76,1.76,0,0,1,27.84,105.58Z" fill="#50311f"/><path d="M28.21,94.44l.28-.2c-1,.49-2.25-.19-2.89-1.18a2.18,2.18,0,0,1-.14-2.44,4.8,4.8,0,0,0,1.43,2.25,1.7,1.7,0,0,0,.94.48,1.78,1.78,0,0,0,.85-.22,17.16,17.16,0,0,0,3.61-2.23,8.67,8.67,0,0,0-1.9.51,3.34,3.34,0,0,1-1.94.15,1.72,1.72,0,0,1-1.26-1.5c0-.07.15,0,.2,0a1.21,1.21,0,0,1,.08.24c.1.27.4.32.69.28a1.7,1.7,0,0,0,.31-.07,26.14,26.14,0,0,1,4.68-1.1,5.24,5.24,0,0,0,.81-.15,1.9,1.9,0,0,0,.37-.16c.19-.11.37-.26.56-.37A5.41,5.41,0,0,1,36,88.37a9.14,9.14,0,0,0,2-1.07c.28-.17.57-.35.86-.49a3.07,3.07,0,0,1,3.17,0,5.31,5.31,0,0,1,1.21,1.51,16.52,16.52,0,0,0,3.62,4,1.16,1.16,0,0,1,.34.36,1.07,1.07,0,0,1-.1.9c-.42.91-1.13,1.85-2.1,1.79s-1.52-.87-2.12-1.55A13.2,13.2,0,0,0,41,92a2.34,2.34,0,0,0-1-.5,1.6,1.6,0,0,0-.81.1c-.25.09-.5.22-.74.33a18.83,18.83,0,0,1-2.62.69,4.65,4.65,0,0,0-2.06,1.54,9.45,9.45,0,0,1-2.12,1.71,3.22,3.22,0,0,1,1.1-2l-3.87,2.36a2.25,2.25,0,0,1-.91.39,1,1,0,0,1-.3,0,.82.82,0,0,1-.52-.34l0-.09-1.36.5a1.2,1.2,0,0,1-.81.1.56.56,0,0,1-.28-.24.41.41,0,0,1,0-.46A12.22,12.22,0,0,0,28.21,94.44Z" fill="#080307"/><path d="M25.6,93.06a2.18,2.18,0,0,1-.14-2.44,4.8,4.8,0,0,0,1.43,2.25,1.7,1.7,0,0,0,.94.48,1.78,1.78,0,0,0,.85-.22,17.16,17.16,0,0,0,3.61-2.23,8.67,8.67,0,0,0-1.9.51,3.34,3.34,0,0,1-1.94.15,1.72,1.72,0,0,1-1.26-1.5c0-.07.15,0,.2,0a1.21,1.21,0,0,1,.08.24c.1.27.4.32.69.28a.7.7,0,0,0,.51.52,1.4,1.4,0,0,0,.66-.19,3,3,0,0,1,.83-.11,8,8,0,0,0,3.2-.89,1.05,1.05,0,0,0,.58-.56.74.74,0,0,0,0-.09,1.9,1.9,0,0,0,.37-.16c.19-.11.37-.26.56-.37A5.41,5.41,0,0,1,36,88.37a9.14,9.14,0,0,0,2-1.07l.09,0c.52-.17,1-.56,1.57-.34s.63.63,1,.91l.08.05c.27.18.59.22.85.4a1.1,1.1,0,0,1,.27,1.43.57.57,0,0,1-.26.22c-.41.15-.81-.37-1.26-.39a.56.56,0,0,0-.24,0c-.37.15-.57.69-.69,1.15q-.11.43-.24.85c-.25.09-.5.22-.74.33a18.83,18.83,0,0,1-2.62.69,4.65,4.65,0,0,0-2.06,1.54,9.45,9.45,0,0,1-2.12,1.71,3.22,3.22,0,0,1,1.1-2l-3.87,2.36a2.25,2.25,0,0,1-.91.39,1,1,0,0,1-.3,0,1.33,1.33,0,0,1,.42-.36,34.48,34.48,0,0,0,4-2.95c-1.31.45-2.28,1.59-3.51,2.23-.39.21-.81.36-1.19.59l-.2.14,0-.09-1.36.5a1.2,1.2,0,0,1-.81.1.56.56,0,0,1-.28-.24,1.83,1.83,0,0,1,.53-.15,14.51,14.51,0,0,0,5.56-2.89,9,9,0,0,0,1.21-1,27.22,27.22,0,0,1-3,1.63,3.63,3.63,0,0,1-.75.27l.28-.2C27.51,94.74,26.24,94.06,25.6,93.06Z" fill="#fff" opacity="0.25"/><path d="M34.11,91.52a1.78,1.78,0,0,0,.39-.13.77.77,0,0,0,.39-.72.39.39,0,0,0-.11-.27.4.4,0,0,0-.22-.08,2.06,2.06,0,0,0-1.29.24.79.79,0,0,0-.21.16,2.9,2.9,0,0,0-.28.62c-.1.19-.33.38-.31.63s.16.22.33.15A10.27,10.27,0,0,1,34.11,91.52Z" fill="#fff" opacity="0.25"/><path d="M36.63,90.35a4.56,4.56,0,0,1,2.63-2.25,6.24,6.24,0,0,1,.78-.19,4.4,4.4,0,0,1,.69-.08l.08.05c.27.18.59.22.85.4a1.1,1.1,0,0,1,.27,1.43.57.57,0,0,1-.26.22c-.41.15-.81-.37-1.26-.39a.56.56,0,0,0-.24,0,.66.66,0,0,0-.53-.16,1.65,1.65,0,0,0-.6.25,2.69,2.69,0,0,0-.64.45c-.2.21-.34.49-.53.71a.8.8,0,0,1-.75.34.83.83,0,0,1-.46-.34.47.47,0,0,1-.1-.23A.49.49,0,0,1,36.63,90.35Z" fill="#fff" opacity="0.25"/><path d="M58.28,89.82A38.2,38.2,0,0,0,53.34,93a42,42,0,0,0-9.14,9.16c-1.77,2.57-5.05,3.22-7.85,4.42a36.63,36.63,0,0,0-6.2,3.7,2.06,2.06,0,0,0-.94,1.05c-.13.48.21,1.14.68,1.08a1,1,0,0,1,.9-1.22,1.78,1.78,0,0,0,1.64.85c-.66-.15-.63-1.29-.09-1.68a5.82,5.82,0,0,1,1.91-.55,8.32,8.32,0,0,1,1.45-.49,1.08,1.08,0,0,1,1.21.79,3.89,3.89,0,0,1-.29-1.72l1.26,1a1.8,1.8,0,0,1-.41-1.78A3.66,3.66,0,0,1,39,109.1a3.18,3.18,0,0,1-.21-2.13,4.22,4.22,0,0,0,1.35,1.3,3.72,3.72,0,0,1-.41-1.65,4.86,4.86,0,0,0,1.43,1.3l-.46-1.32,1.53.71L41.68,106a3.57,3.57,0,0,0,1.42.36l-.09-.58,3.94-3A55.73,55.73,0,0,1,52.42,99c1.51-.89,3.09-1.63,4.67-2.37l16.48-7.72a34.16,34.16,0,0,1,4.86-2c5.55-1.62,11.27-2.3,16.79-4,1.7-.54,3.38-1.11,5.08-1.64,8.09-2.51,16.74-3.86,25.18-2a32.51,32.51,0,0,1,6.64,2.2,31.87,31.87,0,0,1,6.1,3.64,12.5,12.5,0,0,0,3,2,7,7,0,0,0,1,.25c1.67.36,3.28.27,4.89.85a17.85,17.85,0,0,0,9.83.38,51.65,51.65,0,0,0,9.28-3.29,4.64,4.64,0,0,0,2.11-1.42l-5.45,1.88c-3.21,1.11-6.48,2.23-9.9,2.3a33.74,33.74,0,0,1-5.29-.45c-2.24-.31-4.86-.28-7-1.38-.34-.18-.55-.49-.88-.7s-.8-.46-1.17-.74-1-.72-1.45-1.06q-1.46-1-3-1.91a34.14,34.14,0,0,0-6.37-2.87,29.23,29.23,0,0,0-4.76-1.14c-7.26-1.09-14.56-.15-21.66,1.22a36.21,36.21,0,0,0-4.85,1.19c-1.43.49-2.8,1.13-4.25,1.56-3.22.95-6.68.78-10,1.44-3.07.62-6.19,1-9.31,1.41a40.76,40.76,0,0,0-4.69.78A40.65,40.65,0,0,0,58.28,89.82Z" fill="#fff" opacity="0.37"/><path d="M124.9,78.85q1.32.26,2.63.59a37.17,37.17,0,0,1,7.89,2.88l.84.45a31.18,31.18,0,0,1,4.33,3,6.82,6.82,0,0,0,2.17.86q.62.22,1.22.48a12.16,12.16,0,0,0,1.15.53,14.33,14.33,0,0,0-2.62-.34,4.5,4.5,0,0,1-2.05-.66c-.63-.43-1.2-1-1.8-1.48a21.53,21.53,0,0,0-5-2.93,42.12,42.12,0,0,0-8.87-2.7c-7.63-1.52-15.15-.16-20.11,1.25a51,51,0,0,0-9,3.47s-.42.22-1.22.57a4.48,4.48,0,0,0-.21-.71c.72-.32,1.09-.51,1.11-.52a51.47,51.47,0,0,1,9.16-3.51,45.72,45.72,0,0,1,18.84-1.55Q124.1,78.7,124.9,78.85Z" fill="#2c73e7"/><path d="M92,80.23l1.51-.57A68.88,68.88,0,0,1,109.27,76a54,54,0,0,1,13.89.15l.79.13a35,35,0,0,1,14.81,6l-.37.6c-9.27-6.69-20.89-7-29-6.13a68.35,68.35,0,0,0-15.6,3.6L92.07,81A2.39,2.39,0,0,1,92,80.23Z" fill="#2c73e7"/><path d="M77.31,75.56a5.6,5.6,0,0,1,1.16-2.47,13.09,13.09,0,0,1,1.64-1.8A17.42,17.42,0,0,1,83,69.19a3.83,3.83,0,0,0,1.24-1,6.79,6.79,0,0,0,.65-1.74,4.34,4.34,0,0,1,2.43-2.61.7.7,0,0,0-.18.46,6.38,6.38,0,0,1,5.9-.47l-.93.19,6,.71-6.76.67a2.1,2.1,0,0,0-1.77.81,9,9,0,0,1,4,.31,65.12,65.12,0,0,1,7.07,2.13,3.35,3.35,0,0,1,2.31,1.85,7.34,7.34,0,0,1-2.46-.48l-3.94-1.24a12.53,12.53,0,0,0-4.6-.84,4.12,4.12,0,0,0-3.66,2.47,11.45,11.45,0,0,1,6.8,3.4l-4.52-1.67a4.28,4.28,0,0,0-3.05-.34,3.82,3.82,0,0,0-1.11.81l-.54.53a25.93,25.93,0,0,0-2.26,2.6A2.44,2.44,0,0,1,84.7,76a30.7,30.7,0,0,0,3.7,1.35c.8.18,1.64.64,1.33,1.75A2.34,2.34,0,0,1,88,80.54c-1.9.56-4-.1-5.91-.75L79.65,79a4.16,4.16,0,0,1-1.54-.78A3,3,0,0,1,77.31,75.56Z" fill="#080307"/><path d="M79.37,73.28a7.6,7.6,0,0,0,.74-2A17.42,17.42,0,0,1,83,69.19a3.83,3.83,0,0,0,1.24-1,6.79,6.79,0,0,0,.65-1.74,4.34,4.34,0,0,1,2.43-2.61.7.7,0,0,0-.18.46,6.38,6.38,0,0,1,5.9-.47l-.93.19,6,.71-6.76.67a2.1,2.1,0,0,0-1.77.81,9,9,0,0,1,4,.31,65.12,65.12,0,0,1,7.07,2.13,3.35,3.35,0,0,1,2.31,1.85,7.34,7.34,0,0,1-2.46-.48l-3.94-1.24a12.53,12.53,0,0,0-4.6-.84,4.12,4.12,0,0,0-3.66,2.47,11.45,11.45,0,0,1,6.8,3.4l-4.52-1.67a4.28,4.28,0,0,0-3.05-.34,3.82,3.82,0,0,0-1.11.81l-.54.53a3.07,3.07,0,0,0-1.82.51,8.19,8.19,0,0,0-1.69,1.14,3.41,3.41,0,0,0-1.05,1.78c-.06.28-.35.33-.19.57A3.37,3.37,0,0,0,83,78.53a18.78,18.78,0,0,0,1.91.21,2.19,2.19,0,0,1,1.64,1,5.1,5.1,0,0,1-3.1-.21A15.44,15.44,0,0,1,80.07,78a3.17,3.17,0,0,1-1.74-2.16C78.24,74.85,78.92,74.08,79.37,73.28Z" fill="#2a304a"/><path d="M81,73.23a11.23,11.23,0,0,1,1.87-1.52,4.92,4.92,0,0,0,1.63-1.78c.13-.28.24-.6.51-.73s.89.23,1,.69a1.72,1.72,0,0,1-.41,1.28c-.84,1.12-2.15,1.7-3.14,2.66-.29.28-1.81,2.37-2.21,2.14C79.6,75.59,80.77,73.52,81,73.23Z" fill="#080307"/><path d="M38.69,28A6.45,6.45,0,0,0,36.5,27a21.53,21.53,0,0,0,2.68,2.18,1.79,1.79,0,0,0-1.44,0l2.77,1.3a5.1,5.1,0,0,0,1.77.58c.3,0,.72.12.66.44a.58.58,0,0,1-.12.23l-1.54,2.15a7,7,0,0,0-1.42,2.09,1.31,1.31,0,0,0,0,.62c.06.27.53.4.79.43,1.46-2.14,4-3.29,5.3-5.53a1.36,1.36,0,0,0,.2-1.28,1.23,1.23,0,0,0-.9-.48l-.94-.19-.35-.07a3.71,3.71,0,0,1-2.06-.89,2.89,2.89,0,0,1-.59-1.05,13.58,13.58,0,0,0-.67-1.95,4.14,4.14,0,0,0,.12,2.27c-1.34-1-1.91-2.83-3-4.19,0,1.51,1.5,2.56,1.56,4.06A18.35,18.35,0,0,0,36,25.24a1.83,1.83,0,0,0,.62.86Z" fill="#080307"/><path d="M43.28,32.14a2.79,2.79,0,0,1,1.27-1.8.94.94,0,0,1,.58-.16.43.43,0,0,1,.38.4.74.74,0,0,1-.34.52,6.14,6.14,0,0,0-1.13,1c-.15.21-.28.44-.44.64a.91.91,0,0,1-.61.39c-.08-.18,0-.26.11-.42A2.29,2.29,0,0,0,43.28,32.14Z" fill="#fff" opacity="0.25"/><path d="M63.83,42.35a3.3,3.3,0,0,0,.21.87h0a1.32,1.32,0,0,0,.26.41A2.14,2.14,0,0,0,65,44l1.31.61a.66.66,0,0,0,.5.08c.3-.11.34-.55.32-.88v-.06L67,42l-.08-1.14h0v0a2.31,2.31,0,0,0,1.34,1,15.88,15.88,0,0,0,1.66.36,15.49,15.49,0,0,1,3.92,1.65,4,4,0,0,1,1.39,1,1.15,1.15,0,0,0,0-.37h0a1.52,1.52,0,0,0-.42-.92,3.65,3.65,0,0,0-1.13-.73l-2.79-1.34,0,0A4.47,4.47,0,0,1,73,40.57a12.75,12.75,0,0,1,2.91-.49,16.21,16.21,0,0,0,4.71-.92,1.07,1.07,0,0,1,.76-.07,1,1,0,0,0-.37-.28,1.6,1.6,0,0,0-.81-.12,9.54,9.54,0,0,0-1.29.3,9.19,9.19,0,0,1-2.13.17q-1.4,0-2.8,0a1.71,1.71,0,0,0,.69-.21c.3-.14.61-.32.82-.41l1.59-.67c.3-.13,1.07-.28,1.15-.69a.44.44,0,0,0,0-.25c-.11-.29-.58-.28-.84-.21a12,12,0,0,0-2.1.77h0l-.07-.06a.73.73,0,0,0-.62,0L72.83,38a.42.42,0,0,1-.26,0,.8.8,0,0,1-.17-.12c-.26-.18-.61,0-.89.16l-1.38.84-.54.33a5,5,0,0,1-2-1.59h0l-.1-.11a4.06,4.06,0,0,0-1.72-1.23,1.88,1.88,0,0,0-.57-.08,1.07,1.07,0,0,0-.52.13,1.21,1.21,0,0,0-.32.28,4.52,4.52,0,0,0-.7,3A23.46,23.46,0,0,0,63.83,42.35Z" fill="#2a304a"/><path d="M66.73,37.85c0,.06,0,.14,0,.19a.2.2,0,0,1-.12,0,.39.39,0,0,0-.31.27,1.1,1.1,0,0,0,0,.44,15.5,15.5,0,0,0,.25,1.91,3.76,3.76,0,0,0,.15.63A7.12,7.12,0,0,0,67,42a3.71,3.71,0,0,1,.34,1.11.92.92,0,0,1,0,.39.36.36,0,0,1-.26.27c-.17,0-.3-.13-.4-.27L66.3,43a.59.59,0,0,1-.15-.54c0-.05.06-.1.08-.15a.63.63,0,0,0-.07-.48,7.67,7.67,0,0,1-.42-1.32l.3.38a.56.56,0,0,0-.07-.46A4.72,4.72,0,0,1,65.77,38a1.07,1.07,0,0,1,.09-.35C66.1,37.14,66.57,37.51,66.73,37.85Z" fill="#fff" opacity="0.25"/><path d="M63.83,42.35a3.3,3.3,0,0,0,.21.87h0l1.47.21a2.94,2.94,0,0,0-.28-1,9.73,9.73,0,0,1-.53-4.72,1.82,1.82,0,0,1,.47-1.15,1.06,1.06,0,0,1,.58-.25,1.88,1.88,0,0,0-.57-.08,1.07,1.07,0,0,0-.52.13,1.21,1.21,0,0,0-.32.28,4.52,4.52,0,0,0-.7,3A23.46,23.46,0,0,0,63.83,42.35Z" fill="#080307"/><path d="M66.88,40.81v0a2.31,2.31,0,0,0,1.34,1,15.88,15.88,0,0,0,1.66.36,15.49,15.49,0,0,1,3.92,1.65,4,4,0,0,1,1.39,1,1.15,1.15,0,0,0,0-.37h0a4.34,4.34,0,0,0-1.81-1.23l-1-.46-1.13-.51a5.78,5.78,0,0,0-1.77-.58,2.22,2.22,0,0,1-.52-.08,1.59,1.59,0,0,1-.37-.21,5.77,5.77,0,0,1-1-.84A2.14,2.14,0,0,1,67,39.35c0-.22,0-.48-.16-.63a.15.15,0,0,0-.16,0c-.07,0-.09.12-.09.19A4,4,0,0,0,66.88,40.81Z" fill="#080307"/><path d="M78.22,37.13a.44.44,0,0,0,0-.25,7,7,0,0,1-1.75.7,14.71,14.71,0,0,0-3.3,1.53,7.84,7.84,0,0,0,1.51-.2c.3-.14.61-.32.82-.41l1.59-.67C77.37,37.69,78.14,37.53,78.22,37.13Z" fill="#080307"/><path d="M73.17,38.25a5,5,0,0,0,2.09-.8h0l-.07-.06a.78.78,0,0,1-.18.16,2.44,2.44,0,0,1-.77.26A4.7,4.7,0,0,0,73.17,38.25Z" fill="#080307"/><path d="M70.65,41.29a.7.7,0,0,0,.27.16A4.47,4.47,0,0,1,73,40.57a12.75,12.75,0,0,1,2.91-.49,16.21,16.21,0,0,0,4.71-.92,1.07,1.07,0,0,1,.76-.07,1,1,0,0,0-.37-.28c-1,.24-2.09.47-3.13.69a9.22,9.22,0,0,1-1.24.19c-.42,0-.84,0-1.25,0a10.65,10.65,0,0,0-2.78.49A3.79,3.79,0,0,0,70.65,41.29Z" fill="#080307"/><path d="M67.59,37.63a4.82,4.82,0,0,0,1.06,1.68,5.19,5.19,0,0,0,.65.5,2.26,2.26,0,0,0,.55.3,1.83,1.83,0,0,0,.59.07,8.84,8.84,0,0,0,2.7-.62c-.37-.17-.84,0-1.22-.13a.23.23,0,0,1-.12-.09.24.24,0,0,1,0-.22.91.91,0,0,1,.57-.4L73,38.5c-.5-.11-1,.25-1.54.2a1,1,0,0,1,.39-.46s-.05,0-.09,0a3.14,3.14,0,0,0-.85.47,1.19,1.19,0,0,1-.78.23l-.54.33A5,5,0,0,1,67.59,37.63Z" fill="#fff" opacity="0.25"/><path d="M40.48,29.32a2,2,0,0,0,1,.55c.56.06,1.11-.33,1.68-.39a6.43,6.43,0,0,1,.85,0h.24l-.35-.07a3.71,3.71,0,0,1-2.06-.89,2.89,2.89,0,0,1-.59-1.05c-.05.19-.09.38-.14.53s-.12.31-.26.33c.06,0,0,.16,0,.19a.18.18,0,0,1-.2-.06,2,2,0,0,1-.13-.19.49.49,0,0,0-.4-.2,1.39,1.39,0,0,0,.35.59A.52.52,0,0,1,40.48,29.32Z" fill="#fff" opacity="0.25"/><path d="M25.8,31.44c.94.8,1.72,1.35,1.72,1.35l0,0a28.22,28.22,0,0,0,4.75,3.8,13.24,13.24,0,0,1,4.79,2.78l.15.14c.35.33.53.55.53.55s-1.53,1.1,0,1.47a4.38,4.38,0,0,1,.54.18c2.14.83,7.64,4,12.13,6.2a18.13,18.13,0,0,0,8.21,1.36c.6,0,1.17,0,1.69-.09,1.25-.1,2.26-.24,2.84-.33l.54-.09s.61.23,1.66.57c3.94,1.28,14.14,4.1,21.87,1.88a30.49,30.49,0,0,0,4.35-1.55c1.18-.54,2.08-1.41,3.27-1.94a35.65,35.65,0,0,1,8.34-2.55A11.59,11.59,0,0,1,106,45c2.64.17,4.79,1.36,7.13,2.4a48,48,0,0,0,8.17,2.53,10.2,10.2,0,0,0,2.46.4,57.57,57.57,0,0,1-8.26-3.85c-2.48-1.37-4.84-3.15-7.65-3.73-4.21-.87-8.72.31-12.68,2.23A37.8,37.8,0,0,1,85.32,48C79.55,49.12,73.7,46.82,70.5,45c-1-.59-2-1.11-2.94-1.59l-.22-.11-.3-.15-.9-.44-1-.47-1.43-.68-1.63-.78-.1,0A50.46,50.46,0,0,0,51.92,37a45.14,45.14,0,0,1-5.39-1.57c-.76-.26-1.37-.48-1.81-.6a3.82,3.82,0,0,1-.62-.25c-.22-.11-.47-.24-.74-.4-.48-.28-1-.64-1.6-1a23,23,0,0,1-4.06-3.64,18.65,18.65,0,0,0-5.93-4.15,3.46,3.46,0,0,0-3.72-.81,7.43,7.43,0,0,1-1.47.28l-2.24.28-.41.06a1.71,1.71,0,0,0-1.26,1.36,2.86,2.86,0,0,0-.09.44C22.46,28.3,24.32,30.18,25.8,31.44Z" fill="#161416"/><path d="M95,47.54a.3.3,0,0,1,.06-.18,1.64,1.64,0,0,0,.13-.18.35.35,0,0,0-.16-.47,3.82,3.82,0,0,1,1.75-.82A3.51,3.51,0,0,0,98.5,45s.06-.07,0-.11a.09.09,0,0,0,0,0,1.61,1.61,0,0,0-.78-.12,1.19,1.19,0,0,1-.64-.14c-.17-.11-.12-.27-.15-.47a19,19,0,0,1,10.9-1.44c2.81.58,5.16,2.36,7.65,3.73a57.56,57.56,0,0,0,8.26,3.85,10.2,10.2,0,0,1-2.46-.4,48,48,0,0,1-8.17-2.53c-2.34-1-4.49-2.24-7.13-2.4a11.59,11.59,0,0,0-2.73.23q-1.24.22-2.46.52-1.53.38-3,.9-.75.26-1.49.55l-.74.3c-.11,0-.49.3-.54.07Z" fill="#2c73e7"/><path d="M23.18,26.2a.28.28,0,0,0,.1.32c.13.08.3,0,.46,0a.75.75,0,0,1,.59.29,2.07,2.07,0,0,0,.5.46,1.5,1.5,0,0,0,.93,0,4.58,4.58,0,0,1,3.48.49,1.21,1.21,0,0,0,.28.17,1.73,1.73,0,0,0,.33.06,1.17,1.17,0,0,1,.83.61.44.44,0,0,0,.12.17c.13.09.3,0,.46-.06s.5.24.73.42a2.17,2.17,0,0,0,1.74.13l-2.07-.71a.9.9,0,0,1-.22-.1c-.2-.13-.27-.41-.45-.56s-.71-.13-1.06-.25a2,2,0,0,1-.38-.2,4.92,4.92,0,0,0-3-.67,2.6,2.6,0,0,1-1.4-.05,6.13,6.13,0,0,1-.67-.51.7.7,0,0,0-.79-.07s-.23-.2-.28-.2S23.2,26.12,23.18,26.2Z" fill="#e3793d"/><path d="M24.35,25.12l.25.08c.72.22,1.53,0,2.26.17a5.17,5.17,0,0,1,.88.42,5.62,5.62,0,0,0,1.83.57,2.77,2.77,0,0,1,1.25.32,1.89,1.89,0,0,0,.31.21,1,1,0,0,0,.3.06l.89.1a.09.09,0,0,0,.08,0,.1.1,0,0,0,0-.09.64.64,0,0,0-.55-.41,4.49,4.49,0,0,1-.71-.1c-.15-.05-.28-.14-.42-.2A6.26,6.26,0,0,0,29.2,26,4.09,4.09,0,0,1,28,25.56l-.85-.45a3.22,3.22,0,0,0-.53-.26h0Z" fill="#e3793d"/><path d="M33.54,28.16a1.4,1.4,0,0,0,.21.3.12.12,0,0,0,.08,0,.11.11,0,0,0,.1-.09.32.32,0,0,0,0-.14q0-.21-.08-.42a.49.49,0,0,0-.05-.15.41.41,0,0,0-.09-.09,1.63,1.63,0,0,0-.43-.26c-.32-.13-.27,0-.11.24A5.4,5.4,0,0,1,33.54,28.16Z" fill="#e3793d"/><path d="M34.58,28.82a.49.49,0,0,0-.35-.15c-.11,0-.18.14-.23.24a2.08,2.08,0,0,0-.11.28.38.38,0,0,0,0,.22.32.32,0,0,0,.27.18c.21,0,.45.23.56-.11A1.21,1.21,0,0,0,34.58,28.82Z" fill="#e3793d"/><path d="M28.21,30.1a1.12,1.12,0,0,0,.36.17c.1,0,.2,0,.3,0a1.11,1.11,0,0,1,.31.16,18,18,0,0,0,2.36,1,11,11,0,0,1,2,1.3l.94.72a.26.26,0,0,0,.08-.31.7.7,0,0,0-.21-.25,5.52,5.52,0,0,1-.74-.82,2.4,2.4,0,0,0-.26-.32,1.88,1.88,0,0,0-.34-.24,6.82,6.82,0,0,0-.89-.48c-.58-.24-1.22-.32-1.79-.58a7.27,7.27,0,0,0-.79-.36c-.18-.06-.37-.08-.55-.14-1-.31-1.59-1.47-2.59-1.77a3.47,3.47,0,0,0-.5-.1c-.19,0-.81,0-.43.25a10.44,10.44,0,0,0,.92.58Z" fill="#e3793d"/><path d="M25.8,31.44l1.1.68.37.22a2,2,0,0,0,1.46.16.89.89,0,0,0,.66.59c.26,0,.57,0,.77.16s.2.33.37.36.21,0,.31,0,.26.46.49.48.23-.18.28-.32-.12-.37-.3-.41a4.79,4.79,0,0,1-.55-.07,3.85,3.85,0,0,1-.48-.31,3.3,3.3,0,0,0-.37-.14,5.92,5.92,0,0,1-.65-.36c-.86-.47-1.94-.4-2.75-.94a2.3,2.3,0,0,1-.81-.95,10.32,10.32,0,0,0-.53-1.3c-.36-.55-1-.8-1.49-1.21a3.14,3.14,0,0,1-1-1.54,2.86,2.86,0,0,0-.09.44C22.46,28.3,24.32,30.18,25.8,31.44Z" fill="#50311f"/><path d="M32.47,34.62s.44.23,1.18.69c.37.23.82.5,1.32.84s1.06.74,1.65,1.2q.44.34.9.75l.23.21.23.21.45.45c.3.31.62.62,1,.93l.52.46.54.45.28.22.28.22.28.22.29.21.59.43.61.41.31.21.31.2.63.4.64.38.32.19.33.18.66.36.16.09.17.08.33.17.67.33.67.3.67.3.67.27.66.27.66.24.65.24.65.2c.43.13.85.27,1.26.38l.61.16.3.08.15,0h.15c.4.07.78.13,1.15.18.74.1,1.43.15,2,.18s1.14,0,1.58,0l.31,0,.27,0,.24,0,.2,0,.36,0-.36,0-.2,0H59.2c-.44,0-1,0-1.57,0s-1.28-.12-2-.23c-.37-.06-.75-.12-1.14-.2l-.07,0h-.07l-.15,0-.3-.09-.6-.18c-.41-.11-.82-.26-1.25-.4l-.64-.21-.65-.24L50.09,46l-.66-.27-.66-.28-.66-.3-.67-.31-.66-.33-.33-.17-.17-.08-.16-.09-.65-.35-.33-.18-.32-.19-.64-.37-.63-.39-.31-.2-.31-.2-.61-.41-.59-.42-.29-.21L41.16,41l-.28-.21-.28-.22-.54-.44-.52-.44c-.34-.3-.66-.59-1-.9l-.46-.44-.23-.21-.23-.2q-.47-.4-.92-.73c-.6-.45-1.17-.83-1.69-1.15s-1-.59-1.35-.8-.68-.37-.89-.48Z" fill="#e3793d"/><path d="M33.16,32.31c.06.05,6.24,5.32,8.38,6.89s11.1,6.34,14.86,6.39c2.83,0,8.23,1.93,10.39,2.73l.92.35a42.11,42.11,0,0,0,9.62,2.22,33,33,0,0,0,8.49-.09l.48-.08a21.4,21.4,0,0,0,9.06-3.66l-.22-.37C89.47,50.8,82.37,51,77.4,50.46a41.79,41.79,0,0,1-9.54-2.2l-1.05-.4c-2.25-.83-7.52-2.67-10.39-2.7-3.62-.05-12.59-4.81-14.64-6.32S33.5,32,33.43,32Z" fill="#e3793d"/><path d="M34.33,29.43a28.3,28.3,0,0,1,4.21,3.7c1.14,1.51,6.26,4.79,9.62,6.17l1.56.65A55.32,55.32,0,0,0,59.94,43.3a47.64,47.64,0,0,1,8.19,2.62c.44.2.67.31.68.32a31.46,31.46,0,0,0,5.6,2.15,28,28,0,0,0,11.52.94l1-.17c4.75-.95,7.41-2.5,8.8-3.64a4.51,4.51,0,0,1,2-1.21A4.66,4.66,0,0,0,99,44a4.85,4.85,0,0,1-.77.15,11.16,11.16,0,0,0-1.47.25,2.36,2.36,0,0,0-.71.27c-.21.15-.41.37-.61.54-1.35,1.09-3.93,2.59-8.57,3.51A26.91,26.91,0,0,1,74.53,48,31.2,31.2,0,0,1,69,45.84s-.26-.13-.75-.35A48.27,48.27,0,0,0,60,42.87a55,55,0,0,1-10.16-3.34l-1.56-.65c-3.58-1.46-8.43-4.69-9.45-6a28,28,0,0,0-4.29-3.78Z" fill="#e3793d"/><path d="M44.1,34.61a23,23,0,0,0,4.22,2.12,31.81,31.81,0,0,1,3,1.28,20.7,20.7,0,0,0,5.95,1.86,56.13,56.13,0,0,1,10.24,3.52c-1.95-1-3.73-1.8-5.45-2.63a36.31,36.31,0,0,0-4.7-1.33,20.17,20.17,0,0,1-5.85-1.83,31.92,31.92,0,0,0-3.08-1.3,18.72,18.72,0,0,1-1.95-.84c-.76-.26-1.37-.48-1.81-.6A3.82,3.82,0,0,1,44.1,34.61Z" fill="#e3793d"/><path d="M27.55,32.83a28.22,28.22,0,0,0,4.75,3.8,13.24,13.24,0,0,1,4.79,2.78h0a.63.63,0,0,0-.24-.52,8.29,8.29,0,0,0-2-1.64c-.86-.46-1.9-.65-2.51-1.42a.47.47,0,0,0-.16-.15c-.11-.05-.25,0-.37,0a.72.72,0,0,1-.55-.28,4.26,4.26,0,0,0-.44-.48c-.26-.2-.63-.28-.77-.6a.23.23,0,0,1,0-.23s.06,0,.08-.08,0-.21-.13-.26c-.5-.28-1.16-.25-1.59-.65l-.08.24A1.07,1.07,0,0,0,27.55,32.83Z" fill="#50311f"/><path d="M27.77,39.64l.17.12a1.48,1.48,0,0,0-1.76.72A1.33,1.33,0,0,0,26.1,42,2.94,2.94,0,0,1,27,40.6a1,1,0,0,1,.58-.29,1.09,1.09,0,0,1,.52.14,10.49,10.49,0,0,1,2.2,1.36,5.3,5.3,0,0,1-1.16-.31,2,2,0,0,0-1.19-.09,1.05,1.05,0,0,0-.77.91s.09,0,.12,0a.74.74,0,0,0,.05-.15c.06-.17.24-.19.42-.17l.19,0a16,16,0,0,0,2.86.67,3.2,3.2,0,0,1,.5.09,1.16,1.16,0,0,1,.23.1c.12.07.22.16.34.23a3.31,3.31,0,0,0,.7.24,5.59,5.59,0,0,1,1.25.66c.17.11.35.21.53.3a1.88,1.88,0,0,0,1.94,0,3.25,3.25,0,0,0,.74-.93A10.1,10.1,0,0,1,39.23,41a.71.71,0,0,0,.21-.22.65.65,0,0,0-.06-.55c-.26-.56-.69-1.13-1.29-1.09s-.93.53-1.3.95a8.07,8.07,0,0,1-1.18,1.09,1.43,1.43,0,0,1-.59.3,1,1,0,0,1-.5-.06c-.15-.05-.31-.13-.45-.2a11.52,11.52,0,0,0-1.6-.42,2.84,2.84,0,0,1-1.26-.94,5.78,5.78,0,0,0-1.29-1,2,2,0,0,0,.67,1.2l-2.36-1.44a1.37,1.37,0,0,0-.56-.24h-.18a.5.5,0,0,0-.32.21l0,.05-.83-.31a.74.74,0,0,0-.5-.06.34.34,0,0,0-.17.14.25.25,0,0,0,0,.28A7.47,7.47,0,0,1,27.77,39.64Z" fill="#080307"/><path d="M26.18,40.49A1.33,1.33,0,0,0,26.1,42,2.94,2.94,0,0,1,27,40.6a1,1,0,0,1,.58-.29,1.09,1.09,0,0,1,.52.14,10.49,10.49,0,0,1,2.2,1.36,5.3,5.3,0,0,1-1.16-.31,2,2,0,0,0-1.19-.09,1.05,1.05,0,0,0-.77.91s.09,0,.12,0a.74.74,0,0,0,.05-.15c.06-.17.24-.19.42-.17a.43.43,0,0,1,.31-.32.86.86,0,0,1,.41.11,1.8,1.8,0,0,0,.5.07,4.86,4.86,0,0,1,2,.54.64.64,0,0,1,.35.34v.05a1.16,1.16,0,0,1,.23.1c.12.07.22.16.34.23a3.31,3.31,0,0,0,.7.24,5.59,5.59,0,0,1,1.25.66l.06,0c.32.1.64.34,1,.21s.38-.39.6-.55l0,0c.16-.11.36-.13.52-.25a.67.67,0,0,0,.17-.88.35.35,0,0,0-.16-.14c-.25-.09-.5.23-.77.24a.34.34,0,0,1-.15,0c-.23-.09-.35-.42-.42-.7s-.1-.35-.15-.52-.31-.13-.45-.2a11.52,11.52,0,0,0-1.6-.42,2.84,2.84,0,0,1-1.26-.94,5.78,5.78,0,0,0-1.29-1,2,2,0,0,0,.67,1.2l-2.36-1.44a1.37,1.37,0,0,0-.56-.24h-.18a.81.81,0,0,0,.26.22,21.08,21.08,0,0,1,2.42,1.8A17.13,17.13,0,0,1,28,39c-.24-.13-.5-.22-.73-.36l-.12-.09,0,.05-.83-.31a.74.74,0,0,0-.5-.06.34.34,0,0,0-.17.14,1.12,1.12,0,0,0,.32.09,8.87,8.87,0,0,1,3.4,1.77,5.49,5.49,0,0,1,.74.6,16.64,16.64,0,0,0-1.86-1,2.22,2.22,0,0,0-.46-.17l.17.12A1.48,1.48,0,0,0,26.18,40.49Z" fill="#fff" opacity="0.25"/><path d="M31.38,41.43a1.09,1.09,0,0,1,.24.08.47.47,0,0,1,.24.44.24.24,0,0,1-.07.16.24.24,0,0,1-.13,0,1.26,1.26,0,0,1-.79-.15.48.48,0,0,1-.13-.1,1.77,1.77,0,0,1-.17-.38c-.06-.11-.2-.23-.19-.38s.1-.13.2-.09A6.28,6.28,0,0,0,31.38,41.43Z" fill="#fff" opacity="0.25"/><path d="M32.92,42.14a2.79,2.79,0,0,0,1.61,1.37,3.82,3.82,0,0,0,.48.11,2.69,2.69,0,0,0,.42.05l0,0c.16-.11.36-.13.52-.25a.67.67,0,0,0,.17-.88.35.35,0,0,0-.16-.14c-.25-.09-.5.23-.77.24a.34.34,0,0,1-.15,0,.4.4,0,0,1-.33.1,1,1,0,0,1-.37-.15,1.65,1.65,0,0,1-.39-.28c-.12-.13-.21-.3-.32-.43a.49.49,0,0,0-.46-.21.51.51,0,0,0-.28.21.29.29,0,0,0-.06.14A.3.3,0,0,0,32.92,42.14Z" fill="#fff" opacity="0.25"/><path d="M46.16,42.46a23.36,23.36,0,0,1-3-1.92,25.68,25.68,0,0,1-5.59-5.6c-1.08-1.57-3.09-2-4.8-2.7A22.39,22.39,0,0,1,29,30a1.26,1.26,0,0,1-.57-.64c-.08-.29.13-.7.42-.66a.6.6,0,0,0,.55.75,1.09,1.09,0,0,1,1-.52c-.41.09-.38.79-.05,1a3.56,3.56,0,0,0,1.17.34,5.09,5.09,0,0,0,.89.3.66.66,0,0,0,.74-.48,2.38,2.38,0,0,0-.18,1l.77-.63a1.1,1.1,0,0,0-.25,1.09,2.24,2.24,0,0,0,.93-.91,1.94,1.94,0,0,0-.13,1.3,2.58,2.58,0,0,1,.82-.79,2.27,2.27,0,0,0-.25,1,3,3,0,0,1,.88-.8l-.28.81.94-.44-.34.78a2.18,2.18,0,0,1,.87-.22l-.05.35,2.41,1.85a34.07,34.07,0,0,0,3.34,2.36c.92.54,1.89,1,2.86,1.45l10.07,4.72a20.88,20.88,0,0,0,3,1.21c3.39,1,6.89,1.41,10.26,2.47,1,.33,2.07.68,3.11,1,4.94,1.53,10.23,2.36,15.4,1.25a19.88,19.88,0,0,0,4.06-1.35A19.48,19.48,0,0,0,95,45.41a7.64,7.64,0,0,1,1.84-1.22,4.28,4.28,0,0,1,.59-.15,21.66,21.66,0,0,0,3-.52,10.91,10.91,0,0,1,6-.24,31.58,31.58,0,0,1,5.67,2,2.84,2.84,0,0,1,1.29.87L110.09,45a20,20,0,0,0-6.05-1.4,20.63,20.63,0,0,0-3.23.28,12.85,12.85,0,0,0-4.25.84c-.21.11-.33.3-.54.43s-.49.28-.72.45l-.89.65q-.89.63-1.83,1.17a20.87,20.87,0,0,1-3.89,1.76,17.87,17.87,0,0,1-2.91.7,39.24,39.24,0,0,1-13.24-.74,22.14,22.14,0,0,1-3-.73c-.87-.3-1.71-.69-2.6-1-2-.58-4.09-.47-6.1-.88s-3.79-.62-5.69-.86a24.92,24.92,0,0,1-2.87-.47A24.85,24.85,0,0,1,46.16,42.46Z" fill="#fff" opacity="0.37"/><path d="M86.89,49.17q.81-.16,1.61-.36A22.72,22.72,0,0,0,93.32,47l.51-.28a19.06,19.06,0,0,0,2.65-1.85,4.17,4.17,0,0,1,1.33-.53l.75-.29a7.43,7.43,0,0,1,.7-.32,8.76,8.76,0,0,1-1.6.21,2.75,2.75,0,0,0-1.25.4c-.39.26-.74.6-1.1.9a13.16,13.16,0,0,1-3.05,1.79,25.75,25.75,0,0,1-5.42,1.65A26.91,26.91,0,0,1,74.53,48,31.2,31.2,0,0,1,69,45.84s-.26-.13-.75-.35a2.74,2.74,0,0,1-.13.44c.44.2.67.31.68.32a31.46,31.46,0,0,0,5.6,2.15,28,28,0,0,0,11.52.94Z" fill="#2c73e7"/><path d="M66.78,48.33l.92.35a42.11,42.11,0,0,0,9.62,2.22,33,33,0,0,0,8.49-.09l.48-.08a21.4,21.4,0,0,0,9.06-3.66l-.22-.37C89.47,50.8,82.37,51,77.4,50.46a41.79,41.79,0,0,1-9.54-2.2l-1.05-.4A1.46,1.46,0,0,0,66.78,48.33Z" fill="#2c73e7"/><path d="M57.79,51.18a3.42,3.42,0,0,0,.71,1.51,8,8,0,0,0,1,1.1,10.65,10.65,0,0,0,1.74,1.29,2.34,2.34,0,0,1,.76.6,4.15,4.15,0,0,1,.4,1.07,2.65,2.65,0,0,0,1.48,1.6.43.43,0,0,1-.11-.28,3.9,3.9,0,0,0,3.61.29l-.57-.11,3.66-.43-4.14-.41a1.28,1.28,0,0,1-1.08-.49,5.52,5.52,0,0,0,2.45-.19A39.81,39.81,0,0,0,72,55.41a2,2,0,0,0,1.41-1.13,4.49,4.49,0,0,0-1.51.29l-2.41.76a7.66,7.66,0,0,1-2.81.51,2.52,2.52,0,0,1-2.24-1.51,7,7,0,0,0,4.16-2.08l-2.76,1a2.62,2.62,0,0,1-1.87.21,2.34,2.34,0,0,1-.68-.5L63,52.66a15.85,15.85,0,0,1-1.38-1.59,1.49,1.49,0,0,0,.7-.14,18.77,18.77,0,0,1,2.27-.82c.49-.11,1-.39.81-1.07a1.43,1.43,0,0,0-1-.9,6.17,6.17,0,0,0-3.61.46l-1.51.51a2.54,2.54,0,0,0-.94.48A1.83,1.83,0,0,0,57.79,51.18Z" fill="#080307"/><path d="M59.05,52.58a4.65,4.65,0,0,1,.45,1.22,10.65,10.65,0,0,0,1.74,1.29,2.34,2.34,0,0,1,.76.6,4.15,4.15,0,0,1,.4,1.07,2.65,2.65,0,0,0,1.48,1.6.43.43,0,0,1-.11-.28,3.9,3.9,0,0,0,3.61.29l-.57-.11,3.66-.43-4.14-.41a1.28,1.28,0,0,1-1.08-.49,5.52,5.52,0,0,0,2.45-.19A39.81,39.81,0,0,0,72,55.41a2,2,0,0,0,1.41-1.13,4.49,4.49,0,0,0-1.51.29l-2.41.76a7.66,7.66,0,0,1-2.81.51,2.52,2.52,0,0,1-2.24-1.51,7,7,0,0,0,4.16-2.08l-2.76,1a2.62,2.62,0,0,1-1.87.21,2.34,2.34,0,0,1-.68-.5L63,52.66a1.87,1.87,0,0,1-1.11-.31,5,5,0,0,1-1-.7,2.09,2.09,0,0,1-.64-1.09c0-.17-.21-.2-.12-.35a2.06,2.06,0,0,1,1.17-.85,11.48,11.48,0,0,1,1.17-.13,1.34,1.34,0,0,0,1-.6,3.12,3.12,0,0,0-1.89.13,9.44,9.44,0,0,0-2.05.94A1.94,1.94,0,0,0,58.41,51C58.36,51.62,58.77,52.09,59.05,52.58Z" fill="#2a304a"/><path d="M60.06,52.6a6.86,6.86,0,0,0,1.14.93,3,3,0,0,1,1,1.09c.08.17.15.37.31.45s.55-.14.59-.42a1.05,1.05,0,0,0-.25-.78,15.59,15.59,0,0,0-1.92-1.63c-.18-.17-1.11-1.45-1.35-1.31S59.91,52.43,60.06,52.6Z" fill="#080307"/></svg>