<svg id="Layer_1" data-name="Layer 1" xmlns="http://www.w3.org/2000/svg" xmlns:xlink="http://www.w3.org/1999/xlink" viewBox="0 0 59.7 23.8"><defs><linearGradient id="linear-gradient" x1="29.85" y1="1.67" x2="29.85" y2="21.81" gradientUnits="userSpaceOnUse"><stop offset="0.1" stop-color="#e89649" stop-opacity="0"/><stop offset="1" stop-color="#e89649"/></linearGradient><linearGradient id="linear-gradient-2" x1="11.1" y1="2.33" x2="11.1" y2="18.66" gradientUnits="userSpaceOnUse"><stop offset="0" stop-color="#f4c43b"/><stop offset="1" stop-color="#f4c43b" stop-opacity="0"/></linearGradient><linearGradient id="linear-gradient-3" x1="25.31" y1="2.33" x2="25.31" y2="18.66" xlink:href="#linear-gradient-2"/><linearGradient id="linear-gradient-4" x1="35.54" y1="2.33" x2="35.54" y2="18.66" xlink:href="#linear-gradient-2"/><linearGradient id="linear-gradient-5" x1="50.05" y1="2.33" x2="50.05" y2="18.66" xlink:href="#linear-gradient-2"/></defs><title>title</title><path d="M49.25,23.8a8.56,8.56,0,0,1-3.51-.74,8.45,8.45,0,0,1-2.63-1.84,3,3,0,0,1-1.4,1.36,12.61,12.61,0,0,1-2.66.89,14.7,14.7,0,0,1-3.17.32,9.6,9.6,0,0,1-3.67-.69,8.25,8.25,0,0,1-3-2.08,8.89,8.89,0,0,1-1.84-3.19A12.07,12.07,0,0,1,26.8,14c0-.24,0-.48,0-.71a4.57,4.57,0,0,0-.12,1.14V20.5a3,3,0,0,1-3,3H21.45a3,3,0,0,1-1.77-.58l-1.54.62a3,3,0,0,1-3.91-1.69L13,18.75H9l-1.2,3a3,3,0,0,1-3.92,1.68l-2-.83A3,3,0,0,1,.22,18.75L7.07,1.87A3,3,0,0,1,9.85,0h2.6a3,3,0,0,1,2.79,1.89l3.21,8V7.5a3,3,0,0,1,3-3h2.17a3,3,0,0,1,1.29.29l.3-.12A7.11,7.11,0,0,1,27.8,4.2a10.11,10.11,0,0,1,1,.05,7,7,0,0,1,1.12.2,3,3,0,0,1,1.42.86q.29-.17.6-.32a8.51,8.51,0,0,1,3.69-.8,8.9,8.9,0,0,1,3.69.74A7.93,7.93,0,0,1,42.16,7q.21.25.4.52l.29-.35a8.81,8.81,0,0,1,6.69-3,8.34,8.34,0,0,1,2.72.44,3,3,0,0,1,.9-.14h2a3,3,0,0,1,3,3v8.78a3,3,0,0,1,1.37,3.38l-.47,1.75a3,3,0,0,1-2.9,2.21A6.64,6.64,0,0,1,53,22.87a7.7,7.7,0,0,1-1.6.64A8.13,8.13,0,0,1,49.25,23.8Zm.52-11.65a.9.9,0,0,0-.38.07.72.72,0,0,0-.26.2,1.69,1.69,0,0,0-.29.55,3.26,3.26,0,0,0-.15,1,3,3,0,0,0,.14,1,1.54,1.54,0,0,0,.28.53.9.9,0,0,0,.31.24.72.72,0,0,0,.33.06.8.8,0,0,0,.22,0V12.16Z" opacity="0.2"/><path d="M58.31,16.67a2,2,0,0,0-1.08-.72V6.5a2,2,0,0,0-2-2H53.17a2,2,0,0,0-.89.21,7.21,7.21,0,0,0-2.73-.51,7.81,7.81,0,0,0-5.94,2.66,8.38,8.38,0,0,0-1.1,1.61A7.4,7.4,0,0,0,41.4,6.68a6.93,6.93,0,0,0-2.45-1.83,7.91,7.91,0,0,0-3.27-.65,7.36,7.36,0,0,0-4.6,1.53A2,2,0,0,0,29.7,4.42a5.94,5.94,0,0,0-1-.17,9.08,9.08,0,0,0-.94,0,6.12,6.12,0,0,0-2.23.4,6.71,6.71,0,0,0-.72.33,2,2,0,0,0-1.23-.43H21.45a2,2,0,0,0-2,2v7.61L14.31,1.26A2,2,0,0,0,12.45,0H9.85A2,2,0,0,0,8,1.25L1.15,18.12a2,2,0,0,0,1.1,2.6l2,.83a2,2,0,0,0,2.62-1.12l1.45-3.68h5.37l1.45,3.73a2,2,0,0,0,2.61,1.13l2.13-.86a2,2,0,0,0,1.55.75H23.7a2,2,0,0,0,2-2V13.42a5.1,5.1,0,0,1,.21-1.58,2.62,2.62,0,0,1,.45-.87,1.38,1.38,0,0,1,.48-.38,1.29,1.29,0,0,1,.54-.12,1,1,0,0,1,.35,0,2,2,0,0,0,.34.1A10.71,10.71,0,0,0,27.8,13a11.07,11.07,0,0,0,.53,3.53A7.89,7.89,0,0,0,30,19.36a7.26,7.26,0,0,0,2.63,1.83,8.6,8.6,0,0,0,3.29.61,13.72,13.72,0,0,0,3-.3,11.6,11.6,0,0,0,2.45-.82,2,2,0,0,0,1.07-2.33l-.52-1.92a2,2,0,0,0-.24-.54c.06,0,.11,0,.16-.06.07.25.15.5.23.74a8.55,8.55,0,0,0,1.64,2.75,7.47,7.47,0,0,0,2.52,1.84,7.56,7.56,0,0,0,3.1.65,7.13,7.13,0,0,0,1.91-.25,6.61,6.61,0,0,0,1.61-.69L53,20.7a5.32,5.32,0,0,0,3.18.93,2,2,0,0,0,1.93-1.48l.47-1.75A2,2,0,0,0,58.31,16.67ZM10.66,10.75,11,9.84l.36.91ZM51,10.38v5a2.69,2.69,0,0,1-.36.23,1.79,1.79,0,0,1-.86.22,1.73,1.73,0,0,1-.76-.16,1.89,1.89,0,0,1-.63-.49,2.5,2.5,0,0,1-.47-.86A4,4,0,0,1,47.7,13a4.26,4.26,0,0,1,.2-1.34,2.66,2.66,0,0,1,.47-.88,1.73,1.73,0,0,1,.6-.46,1.86,1.86,0,0,1,.8-.16,3.08,3.08,0,0,1,1,.17Z" fill="#c27029"/><path d="M58.31,16.67a2,2,0,0,0-1.08-.72V6.5a2,2,0,0,0-2-2H53.17a2,2,0,0,0-.89.21,7.21,7.21,0,0,0-2.73-.51,7.81,7.81,0,0,0-5.94,2.66,8.38,8.38,0,0,0-1.1,1.61A7.4,7.4,0,0,0,41.4,6.68a6.93,6.93,0,0,0-2.45-1.83,7.91,7.91,0,0,0-3.27-.65,7.36,7.36,0,0,0-4.6,1.53A2,2,0,0,0,29.7,4.42a5.94,5.94,0,0,0-1-.17,9.08,9.08,0,0,0-.94,0,6.12,6.12,0,0,0-2.23.4,6.71,6.71,0,0,0-.72.33,2,2,0,0,0-1.23-.43H21.45a2,2,0,0,0-2,2v7.61L14.31,1.26A2,2,0,0,0,12.45,0H9.85A2,2,0,0,0,8,1.25L1.15,18.12a2,2,0,0,0,1.1,2.6l2,.83a2,2,0,0,0,2.62-1.12l1.45-3.68h5.37l1.45,3.73a2,2,0,0,0,2.61,1.13l2.13-.86a2,2,0,0,0,1.55.75H23.7a2,2,0,0,0,2-2V13.42a5.1,5.1,0,0,1,.21-1.58,2.62,2.62,0,0,1,.45-.87,1.38,1.38,0,0,1,.48-.38,1.29,1.29,0,0,1,.54-.12,1,1,0,0,1,.35,0,2,2,0,0,0,.34.1A10.71,10.71,0,0,0,27.8,13a11.07,11.07,0,0,0,.53,3.53A7.89,7.89,0,0,0,30,19.36a7.26,7.26,0,0,0,2.63,1.83,8.6,8.6,0,0,0,3.29.61,13.72,13.72,0,0,0,3-.3,11.6,11.6,0,0,0,2.45-.82,2,2,0,0,0,1.07-2.33l-.52-1.92a2,2,0,0,0-.24-.54c.06,0,.11,0,.16-.06.07.25.15.5.23.74a8.55,8.55,0,0,0,1.64,2.75,7.47,7.47,0,0,0,2.52,1.84,7.56,7.56,0,0,0,3.1.65,7.13,7.13,0,0,0,1.91-.25,6.61,6.61,0,0,0,1.61-.69L53,20.7a5.32,5.32,0,0,0,3.18.93,2,2,0,0,0,1.93-1.48l.47-1.75A2,2,0,0,0,58.31,16.67ZM10.66,10.75,11,9.84l.36.91ZM51,10.38v5a2.69,2.69,0,0,1-.36.23,1.79,1.79,0,0,1-.86.22,1.73,1.73,0,0,1-.76-.16,1.89,1.89,0,0,1-.63-.49,2.5,2.5,0,0,1-.47-.86A4,4,0,0,1,47.7,13a4.26,4.26,0,0,1,.2-1.34,2.66,2.66,0,0,1,.47-.88,1.73,1.73,0,0,1,.6-.46,1.86,1.86,0,0,1,.8-.16,3.08,3.08,0,0,1,1,.17Z" fill="url(#linear-gradient)"/><path d="M3,18.88,9.85,2h2.6L19.2,18.88,17,19.75l-1.95-5H7l-2,5Zm4.73-6.12H14.3L11,4.35Z" fill="#fcee8a"/><path d="M28.5,8.67a2.9,2.9,0,0,0-1.12-.2,3.27,3.27,0,0,0-1.36.3,3.36,3.36,0,0,0-1.17.9A4.56,4.56,0,0,0,24,11.21a7,7,0,0,0-.31,2.21V19.5H21.45V6.5h2.17V9.33a6,6,0,0,1,.6-1.18,4.45,4.45,0,0,1,.89-1,4.27,4.27,0,0,1,1.19-.69,4.11,4.11,0,0,1,1.5-.26,7.19,7.19,0,0,1,.74,0,4,4,0,0,1,.64.11Z" fill="#fcee8a"/><path d="M32.1,13.92a4.63,4.63,0,0,0,1.28,2.85,3.8,3.8,0,0,0,2.77,1,7.93,7.93,0,0,0,2-.24A10.85,10.85,0,0,0,39.9,17l.52,1.92a9.57,9.57,0,0,1-2,.67,11.69,11.69,0,0,1-2.52.25,6.59,6.59,0,0,1-2.53-.46A5.26,5.26,0,0,1,31.44,18a5.88,5.88,0,0,1-1.21-2.13A9,9,0,0,1,29.8,13a8.34,8.34,0,0,1,.42-2.7,6.57,6.57,0,0,1,1.2-2.16A5.41,5.41,0,0,1,35.67,6.2a5.9,5.9,0,0,1,2.45.47A4.92,4.92,0,0,1,39.87,8a5.54,5.54,0,0,1,1,1.92,7.63,7.63,0,0,1,.35,2.33q0,.88-.08,1.7Zm3.53-5.77a3.16,3.16,0,0,0-2.41,1,4.94,4.94,0,0,0-1.14,3H39.2a4.15,4.15,0,0,0-.95-2.93A3.4,3.4,0,0,0,35.62,8.15Z" fill="#fcee8a"/><path d="M43.4,13.08a8,8,0,0,1,.45-2.71,6.67,6.67,0,0,1,1.26-2.19,5.8,5.8,0,0,1,2-1.45,5.86,5.86,0,0,1,2.49-.52,5.16,5.16,0,0,1,2,.39,6.13,6.13,0,0,1,1.59,1v-1h2.05v9.85q0,.95.46,1.24a1.88,1.88,0,0,0,1,.29l-.47,1.75q-2.4,0-2.9-2a7.3,7.3,0,0,1-.69.79,4.53,4.53,0,0,1-2,1.16,5.11,5.11,0,0,1-1.37.17A5.54,5.54,0,0,1,47,19.33,5.46,5.46,0,0,1,45.11,18a6.54,6.54,0,0,1-1.25-2.11A7.91,7.91,0,0,1,43.4,13.08Zm6.35,4.72a3.79,3.79,0,0,0,1.8-.45A4.46,4.46,0,0,0,53,16.17v-7a6.14,6.14,0,0,0-1.49-.76,5.1,5.1,0,0,0-1.71-.29,3.85,3.85,0,0,0-1.65.35,3.73,3.73,0,0,0-1.29,1A4.62,4.62,0,0,0,46,11a6.21,6.21,0,0,0-.3,2,6,6,0,0,0,.3,1.94,4.5,4.5,0,0,0,.85,1.52,3.88,3.88,0,0,0,1.29,1A3.71,3.71,0,0,0,49.75,17.8Z" fill="#fcee8a"/><path d="M3,18.88,9.85,2h2.6L19.2,18.88,17,19.75l-1.95-5H7l-2,5Zm4.73-6.12H14.3L11,4.35Z" fill="url(#linear-gradient-2)"/><path d="M28.5,8.67a2.9,2.9,0,0,0-1.12-.2,3.27,3.27,0,0,0-1.36.3,3.36,3.36,0,0,0-1.17.9A4.56,4.56,0,0,0,24,11.21a7,7,0,0,0-.31,2.21V19.5H21.45V6.5h2.17V9.33a6,6,0,0,1,.6-1.18,4.45,4.45,0,0,1,.89-1,4.27,4.27,0,0,1,1.19-.69,4.11,4.11,0,0,1,1.5-.26,7.19,7.19,0,0,1,.74,0,4,4,0,0,1,.64.11Z" fill="url(#linear-gradient-3)"/><path d="M32.1,13.92a4.63,4.63,0,0,0,1.28,2.85,3.8,3.8,0,0,0,2.77,1,7.93,7.93,0,0,0,2-.24A10.85,10.85,0,0,0,39.9,17l.52,1.92a9.57,9.57,0,0,1-2,.67,11.69,11.69,0,0,1-2.52.25,6.59,6.59,0,0,1-2.53-.46A5.26,5.26,0,0,1,31.44,18a5.88,5.88,0,0,1-1.21-2.13A9,9,0,0,1,29.8,13a8.34,8.34,0,0,1,.42-2.7,6.57,6.57,0,0,1,1.2-2.16A5.41,5.41,0,0,1,35.67,6.2a5.9,5.9,0,0,1,2.45.47A4.92,4.92,0,0,1,39.87,8a5.54,5.54,0,0,1,1,1.92,7.63,7.63,0,0,1,.35,2.33q0,.88-.08,1.7Zm3.53-5.77a3.16,3.16,0,0,0-2.41,1,4.94,4.94,0,0,0-1.14,3H39.2a4.15,4.15,0,0,0-.95-2.93A3.4,3.4,0,0,0,35.62,8.15Z" fill="url(#linear-gradient-4)"/><path d="M43.4,13.08a8,8,0,0,1,.45-2.71,6.67,6.67,0,0,1,1.26-2.19,5.8,5.8,0,0,1,2-1.45,5.86,5.86,0,0,1,2.49-.52,5.16,5.16,0,0,1,2,.39,6.13,6.13,0,0,1,1.59,1v-1h2.05v9.85q0,.95.46,1.24a1.88,1.88,0,0,0,1,.29l-.47,1.75q-2.4,0-2.9-2a7.3,7.3,0,0,1-.69.79,4.53,4.53,0,0,1-2,1.16,5.11,5.11,0,0,1-1.37.17A5.54,5.54,0,0,1,47,19.33,5.46,5.46,0,0,1,45.11,18a6.54,6.54,0,0,1-1.25-2.11A7.91,7.91,0,0,1,43.4,13.08Zm6.35,4.72a3.79,3.79,0,0,0,1.8-.45A4.46,4.46,0,0,0,53,16.17v-7a6.14,6.14,0,0,0-1.49-.76,5.1,5.1,0,0,0-1.71-.29,3.85,3.85,0,0,0-1.65.35,3.73,3.73,0,0,0-1.29,1A4.62,4.62,0,0,0,46,11a6.21,6.21,0,0,0-.3,2,6,6,0,0,0,.3,1.94,4.5,4.5,0,0,0,.85,1.52,3.88,3.88,0,0,0,1.29,1A3.71,3.71,0,0,0,49.75,17.8Z" fill="url(#linear-gradient-5)"/><polygon points="11.03 3.65 7.72 12.05 8 12.05 11.03 4.35 14.03 12.05 14.3 12.05 11.03 3.65" fill="#fff"/><polygon points="17.02 19.05 15.07 14.05 6.97 14.05 5.03 19 3.24 18.27 3 18.88 5.03 19.7 6.97 14.75 15.07 14.75 17.02 19.75 19.2 18.88 18.96 18.27 17.02 19.05" fill="#fff"/><rect x="21.45" y="18.8" width="2.25" height="0.7" fill="#fff"/><path d="M28.5,8a2.9,2.9,0,0,0-1.12-.2,3.27,3.27,0,0,0-1.36.3,3.36,3.36,0,0,0-1.17.9A4.56,4.56,0,0,0,24,10.51a7,7,0,0,0-.31,2.21v.7A7,7,0,0,1,24,11.21a4.56,4.56,0,0,1,.83-1.54A3.36,3.36,0,0,1,26,8.77a3.27,3.27,0,0,1,1.36-.3,2.9,2.9,0,0,1,1.13.2l.68-2.32-.19,0Z" fill="#fff"/><path d="M38.25,8.47a3.4,3.4,0,0,0-2.62-1,3.16,3.16,0,0,0-2.41,1,4.94,4.94,0,0,0-1.14,3h.11a4.45,4.45,0,0,1,1-2.25,3.16,3.16,0,0,1,2.41-1,3.4,3.4,0,0,1,2.63,1,3.77,3.77,0,0,1,.9,2.23h0A4.15,4.15,0,0,0,38.25,8.47Z" fill="#fff"/><path d="M38.4,18.85a11.69,11.69,0,0,1-2.52.25,6.59,6.59,0,0,1-2.53-.46,5.26,5.26,0,0,1-1.91-1.32,5.88,5.88,0,0,1-1.21-2.12,8.85,8.85,0,0,1-.4-2.52c0,.11,0,.22,0,.33a9,9,0,0,0,.42,2.89A5.88,5.88,0,0,0,31.44,18a5.26,5.26,0,0,0,1.91,1.32,6.59,6.59,0,0,0,2.53.46,11.69,11.69,0,0,0,2.52-.25,9.57,9.57,0,0,0,2-.67l-.17-.63A9.66,9.66,0,0,1,38.4,18.85Z" fill="#fff"/><path d="M41.2,13.22H32.1a6.44,6.44,0,0,0,.13.7h9q.08-.82.08-1.7c0-.09,0-.17,0-.26C41.25,12.39,41.24,12.82,41.2,13.22Z" fill="#fff"/><path d="M51.49,7.74a5.1,5.1,0,0,0-1.71-.29,3.85,3.85,0,0,0-1.65.35,3.73,3.73,0,0,0-1.29,1A4.62,4.62,0,0,0,46,10.32a6.21,6.21,0,0,0-.3,2c0,.12,0,.23,0,.35A6.08,6.08,0,0,1,46,11a4.62,4.62,0,0,1,.84-1.54,3.73,3.73,0,0,1,1.29-1,3.85,3.85,0,0,1,1.65-.35,5.1,5.1,0,0,1,1.71.29A6.14,6.14,0,0,1,53,9.2V8.5A6.14,6.14,0,0,0,51.49,7.74Z" fill="#fff"/><path d="M56.22,18.92q-2.4,0-2.9-2a7.3,7.3,0,0,1-.69.79,4.53,4.53,0,0,1-2,1.16,5.11,5.11,0,0,1-1.37.17A5.54,5.54,0,0,1,47,18.63a5.46,5.46,0,0,1-1.85-1.35,6.54,6.54,0,0,1-1.25-2.11,7.63,7.63,0,0,1-.44-2.31c0,.08,0,.15,0,.23a7.91,7.91,0,0,0,.46,2.79A6.54,6.54,0,0,0,45.11,18,5.46,5.46,0,0,0,47,19.33a5.54,5.54,0,0,0,2.29.47,5.11,5.11,0,0,0,1.38-.17,4.53,4.53,0,0,0,2-1.16,7.3,7.3,0,0,0,.69-.79q.5,2,2.9,2l.47-1.75-.18,0Z" fill="#fff"/></svg>