<svg id="Layer_1" data-name="Layer 1" xmlns="http://www.w3.org/2000/svg" viewBox="0 0 686.23 42.33"><defs><style>.cls-1{isolation:isolate;}.cls-2{fill:#d96e4c;}.cls-3{fill:#525731;}</style></defs><title>number line</title><g class="cls-1"><path class="cls-2" d="M1.49,28.75a3.85,3.85,0,0,1,1.42-1,5.55,5.55,0,0,1,2.19-.38,4.71,4.71,0,0,1,2.31.55,3.69,3.69,0,0,1,1.53,1.58,11.49,11.49,0,0,1,1,5.14q0,4.15-1.46,5.88A4.36,4.36,0,0,1,5,41.91q-4.2,0-4.83-5A20.67,20.67,0,0,1,0,34.63a18.69,18.69,0,0,1,.13-2.31,9.18,9.18,0,0,1,.47-2A5,5,0,0,1,1.49,28.75Zm6.16,2a2.52,2.52,0,0,0-1-1.32A2.86,2.86,0,0,0,5.05,29a3.24,3.24,0,0,0-1.53.32,2.53,2.53,0,0,0-.94.82,4.08,4.08,0,0,0-.53,1.29,8.66,8.66,0,0,0-.25,1.52q0,.73,0,1.72t0,1.72a8.66,8.66,0,0,0,.25,1.52,4.07,4.07,0,0,0,.53,1.29,2.52,2.52,0,0,0,.94.82A3,3,0,0,0,5,40.3,3,3,0,0,0,6.38,40a2.61,2.61,0,0,0,.95-.82,3.67,3.67,0,0,0,.52-1.3A12.09,12.09,0,0,0,8.17,35a21.7,21.7,0,0,0-.11-2.49A8.3,8.3,0,0,0,7.65,30.74Z"/></g><g class="cls-1"><path class="cls-2" d="M37,41.93V29.39H35.33V27.78h3.37V41.93Z"/></g><g class="cls-1"><path class="cls-2" d="M68,41.73V40.44l1.49-1.29q1-.88,1.51-1.33l1.3-1.21a14.86,14.86,0,0,0,1.23-1.29q.42-.52.88-1.2a4.54,4.54,0,0,0,.85-2.52,3,3,0,0,0-.64-2,2.5,2.5,0,0,0-2-.76,2.62,2.62,0,0,0-2.1.85,3.56,3.56,0,0,0-.79,2.24H68a4.8,4.8,0,0,1,1.33-3.44,5,5,0,0,1,6.47-.06A4.08,4.08,0,0,1,77,31.55a7.4,7.4,0,0,1-2.29,4.88q-.83.9-1.28,1.32Q72.22,39,70.78,40.2h6.71v1.53Z"/></g><g class="cls-1"><path class="cls-2" d="M102.16,28a5.16,5.16,0,0,1,3.26-1,4.46,4.46,0,0,1,3.14,1.06,3.48,3.48,0,0,1,1.15,2.69,3.39,3.39,0,0,1-.65,2.06,3.23,3.23,0,0,1-1.68,1.21v.1a3.36,3.36,0,0,1,1.89,1.31A4.44,4.44,0,0,1,110,38.1a3.68,3.68,0,0,1-1.19,2.77A4.59,4.59,0,0,1,105.48,42,5.33,5.33,0,0,1,102,40.93a4.07,4.07,0,0,1-1.48-3h1.7a2.68,2.68,0,0,0,.94,1.86,3.29,3.29,0,0,0,2.23.73,2.87,2.87,0,0,0,2.13-.75,2.62,2.62,0,0,0,.74-1.92,2.48,2.48,0,0,0-1-2.23,5.53,5.53,0,0,0-3-.66h-.47V33.4h.49Q108,33.36,108,31a2.23,2.23,0,0,0-.7-1.73,2.81,2.81,0,0,0-2-.64,3.09,3.09,0,0,0-2,.59,2.44,2.44,0,0,0-.89,1.56h-1.74A3.71,3.71,0,0,1,102.16,28Z"/></g><g class="cls-1"><path class="cls-2" d="M140.39,41.93V38.7H133V37.43l6.79-9.85h2.29v9.57H144V38.7h-1.91v3.23Zm.06-4.78V29.25l-5.31,7.89Z"/></g><g class="cls-1"><path class="cls-2" d="M168.54,27.36h8.54v1.57H170.2V33.5a3.26,3.26,0,0,1,1.32-1.1,4.5,4.5,0,0,1,2-.44,4.92,4.92,0,0,1,2.07.43,3.49,3.49,0,0,1,1.45,1.17,5.71,5.71,0,0,1,1,3.27,5.39,5.39,0,0,1-1.24,3.68,4.38,4.38,0,0,1-3.48,1.42,5.34,5.34,0,0,1-3.51-1.06,4.56,4.56,0,0,1-1.59-2.79h1.72a2.9,2.9,0,0,0,1.13,1.69,3.8,3.8,0,0,0,2.27.62,2.73,2.73,0,0,0,2.21-1,3.89,3.89,0,0,0,.8-2.57,3.53,3.53,0,0,0-.8-2.48,3.08,3.08,0,0,0-2.38-.87,3,3,0,0,0-1.83.56,3.31,3.31,0,0,0-1.14,1.51h-1.64Z"/></g><g class="cls-1"><path class="cls-2" d="M207,28.58a2.9,2.9,0,0,0-2.62,1.32,9,9,0,0,0-.91,4.46A3.7,3.7,0,0,1,205,32.83a4.94,4.94,0,0,1,2.33-.55,4.21,4.21,0,0,1,3.2,1.29A4.82,4.82,0,0,1,211.79,37a5.13,5.13,0,0,1-1.2,3.54,4.37,4.37,0,0,1-3.45,1.36q-3.59,0-4.6-3.07A16.26,16.26,0,0,1,202,34a9.18,9.18,0,0,1,1.22-5A4.21,4.21,0,0,1,207,27a4.27,4.27,0,0,1,3,1,4,4,0,0,1,1.29,2.54h-1.62a2.71,2.71,0,0,0-.89-1.53A2.84,2.84,0,0,0,207,28.58Zm3.1,8.56a3.52,3.52,0,0,0-.78-2.41,2.79,2.79,0,0,0-2.21-.89,3.65,3.65,0,0,0-2.41.81,2.89,2.89,0,0,0-1,2.36,3.49,3.49,0,0,0,.85,2.47,3.55,3.55,0,0,0,4.71.05A3.35,3.35,0,0,0,210.1,37.14Z"/></g><g class="cls-1"><path class="cls-2" d="M234.8,27.42h9.51v1.36l-5.64,13.15h-2l5.9-13H234.8Z"/></g><g class="cls-1"><path class="cls-2" d="M269.24,30.85a3.63,3.63,0,0,1,1.21-2.8,4.91,4.91,0,0,1,3.43-1.11,4.85,4.85,0,0,1,3.42,1.12,3.67,3.67,0,0,1,1.2,2.81,3.5,3.5,0,0,1-.59,2,3.59,3.59,0,0,1-1.54,1.29,3.54,3.54,0,0,1,1.82,1.37,4,4,0,0,1,.69,2.36,4.06,4.06,0,0,1-1.38,3.22,6.07,6.07,0,0,1-7.26,0,4.06,4.06,0,0,1-1.38-3.22,4,4,0,0,1,.69-2.36,3.54,3.54,0,0,1,1.83-1.37A3.47,3.47,0,0,1,269.24,30.85Zm7.93,7a2.54,2.54,0,0,0-.91-2.1,3.68,3.68,0,0,0-2.38-.73,3.77,3.77,0,0,0-2.4.73,2.52,2.52,0,0,0-.93,2.11,2.77,2.77,0,0,0,.9,2.18,3.51,3.51,0,0,0,2.42.8,3.44,3.44,0,0,0,2.41-.81A2.8,2.8,0,0,0,277.17,37.8ZM276.81,31a2.28,2.28,0,0,0-.78-1.82,3.2,3.2,0,0,0-2.15-.67,3.24,3.24,0,0,0-2.16.67,2.26,2.26,0,0,0-.79,1.82,2.34,2.34,0,0,0,.82,1.86,3.53,3.53,0,0,0,4.24,0A2.34,2.34,0,0,0,276.81,31Z"/></g><g class="cls-1"><path class="cls-2" d="M307.82,40.38a2.49,2.49,0,0,0,2.31-1.22,9,9,0,0,0,.73-4.29,3.27,3.27,0,0,1-1.43,1.21,4.72,4.72,0,0,1-2,.42,4.56,4.56,0,0,1-3.27-1.25,4.49,4.49,0,0,1-1.31-3.42,4.83,4.83,0,0,1,1.24-3.48,4.54,4.54,0,0,1,3.45-1.3,4,4,0,0,1,3.71,1.78,10.8,10.8,0,0,1,1.12,5.6,11.88,11.88,0,0,1-1,5.65,3.82,3.82,0,0,1-3.64,1.83,4.37,4.37,0,0,1-3.12-1.06,4.32,4.32,0,0,1-1.34-2.65h1.64A2.61,2.61,0,0,0,307.82,40.38Zm-3.26-8.62a3.29,3.29,0,0,0,.8,2.3,2.91,2.91,0,0,0,2.27.88,2.83,2.83,0,0,0,2.22-.84,3.34,3.34,0,0,0,.75-2.31,3.32,3.32,0,0,0-.8-2.34,2.85,2.85,0,0,0-2.2-.87,2.89,2.89,0,0,0-2.22.88A3.24,3.24,0,0,0,304.56,31.76Z"/></g><g class="cls-1"><path class="cls-2" d="M335.06,41.93V29.39h-1.62V27.78h3.37V41.93Z"/><path class="cls-2" d="M339.57,28.75a3.85,3.85,0,0,1,1.42-1,5.55,5.55,0,0,1,2.19-.38,4.71,4.71,0,0,1,2.31.55A3.69,3.69,0,0,1,347,29.49a11.49,11.49,0,0,1,1,5.14q0,4.15-1.46,5.88A4.36,4.36,0,0,1,343,41.91q-4.2,0-4.83-5a20.67,20.67,0,0,1-.12-2.32,18.69,18.69,0,0,1,.13-2.31,9.18,9.18,0,0,1,.47-2A5,5,0,0,1,339.57,28.75Zm6.16,2a2.52,2.52,0,0,0-1-1.32,2.86,2.86,0,0,0-1.61-.45,3.24,3.24,0,0,0-1.53.32,2.53,2.53,0,0,0-.94.82,4.08,4.08,0,0,0-.53,1.29,8.66,8.66,0,0,0-.25,1.52q0,.73,0,1.72t0,1.72a8.66,8.66,0,0,0,.25,1.52,4.07,4.07,0,0,0,.53,1.29,2.52,2.52,0,0,0,.94.82,3.36,3.36,0,0,0,2.86,0,2.61,2.61,0,0,0,.95-.82,3.67,3.67,0,0,0,.52-1.3,12.14,12.14,0,0,0,.31-2.89,21.74,21.74,0,0,0-.11-2.49A8.34,8.34,0,0,0,345.73,30.74Z"/></g><g class="cls-1"><path class="cls-2" d="M371.17,41.93V29.39h-1.62V27.78h3.38V41.93Z"/><path class="cls-2" d="M375.53,41.93V29.39h-1.62V27.78h3.37V41.93Z"/></g><g class="cls-1"><path class="cls-2" d="M402.79,41.93V29.39h-1.62V27.78h3.37V41.93Z"/><path class="cls-2" d="M405.61,41.73V40.44l1.49-1.29q1-.88,1.51-1.33l1.3-1.21a14.76,14.76,0,0,0,1.23-1.29q.42-.52.88-1.2a4.54,4.54,0,0,0,.85-2.52,3,3,0,0,0-.64-2,2.5,2.5,0,0,0-2-.76,2.62,2.62,0,0,0-2.1.85,3.56,3.56,0,0,0-.79,2.24h-1.72a4.8,4.8,0,0,1,1.33-3.44,5,5,0,0,1,6.47-.06,4.09,4.09,0,0,1,1.21,3.12,7.4,7.4,0,0,1-2.29,4.88q-.83.9-1.28,1.32-1.26,1.23-2.7,2.45h6.71v1.53Z"/></g><g class="cls-1"><path class="cls-2" d="M436.4,41.93V29.39h-1.62V27.78h3.37V41.93Z"/><path class="cls-2" d="M440.73,28a5.15,5.15,0,0,1,3.26-1,4.47,4.47,0,0,1,3.14,1.06,3.48,3.48,0,0,1,1.15,2.69,3.39,3.39,0,0,1-.65,2.06A3.23,3.23,0,0,1,446,34.08v.1a3.36,3.36,0,0,1,1.89,1.31,4.44,4.44,0,0,1,.69,2.61,3.68,3.68,0,0,1-1.19,2.77A4.59,4.59,0,0,1,444,42a5.33,5.33,0,0,1-3.44-1.08,4.07,4.07,0,0,1-1.48-3h1.7a2.69,2.69,0,0,0,.94,1.86,3.29,3.29,0,0,0,2.23.73,2.87,2.87,0,0,0,2.13-.75,2.62,2.62,0,0,0,.74-1.92,2.48,2.48,0,0,0-1-2.23,5.53,5.53,0,0,0-3-.66h-.47V33.4h.49q3.71,0,3.71-2.41a2.23,2.23,0,0,0-.7-1.73,2.82,2.82,0,0,0-2-.64,3.08,3.08,0,0,0-2,.59,2.44,2.44,0,0,0-.89,1.56H439.3A3.7,3.7,0,0,1,440.73,28Z"/></g><g class="cls-1"><path class="cls-2" d="M469.57,41.93V29.39H468V27.78h3.37V41.93Z"/><path class="cls-2" d="M479.52,41.93V38.7h-7.34V37.43L479,27.58h2.29v9.57h1.91V38.7h-1.91v3.23Zm.06-4.78V29.25l-5.31,7.89Z"/></g><g class="cls-1"><path class="cls-2" d="M503.45,41.93V29.39h-1.62V27.78h3.37V41.93Z"/><path class="cls-2" d="M506.94,27.36h8.54v1.57H508.6V33.5a3.26,3.26,0,0,1,1.32-1.1,4.51,4.51,0,0,1,2-.44,4.92,4.92,0,0,1,2.07.43,3.49,3.49,0,0,1,1.45,1.17,5.71,5.71,0,0,1,1,3.27,5.4,5.4,0,0,1-1.24,3.68,4.38,4.38,0,0,1-3.48,1.42,5.34,5.34,0,0,1-3.51-1.06,4.56,4.56,0,0,1-1.59-2.79h1.72a2.9,2.9,0,0,0,1.13,1.69,3.8,3.8,0,0,0,2.27.62,2.73,2.73,0,0,0,2.21-1,3.88,3.88,0,0,0,.8-2.57,3.53,3.53,0,0,0-.8-2.48,3.51,3.51,0,0,0-4.21-.31,3.31,3.31,0,0,0-1.14,1.51h-1.64Z"/></g><g class="cls-1"><path class="cls-2" d="M536.87,41.93V29.39h-1.62V27.78h3.37V41.93Z"/><path class="cls-2" d="M545.2,28.58a2.9,2.9,0,0,0-2.62,1.32,9,9,0,0,0-.91,4.46,3.7,3.7,0,0,1,1.58-1.53,4.94,4.94,0,0,1,2.33-.55,4.22,4.22,0,0,1,3.2,1.29A4.83,4.83,0,0,1,550,37a5.13,5.13,0,0,1-1.2,3.54,4.37,4.37,0,0,1-3.45,1.36q-3.59,0-4.6-3.07a16.3,16.3,0,0,1-.57-4.88,9.18,9.18,0,0,1,1.22-5A4.21,4.21,0,0,1,545.2,27a4.27,4.27,0,0,1,3,1,4,4,0,0,1,1.29,2.54h-1.62a2.71,2.71,0,0,0-.89-1.53A2.84,2.84,0,0,0,545.2,28.58Zm3.1,8.56a3.52,3.52,0,0,0-.78-2.41,2.79,2.79,0,0,0-2.21-.89,3.65,3.65,0,0,0-2.41.81,2.89,2.89,0,0,0-1,2.36,3.49,3.49,0,0,0,.85,2.47,3.55,3.55,0,0,0,4.71.05A3.35,3.35,0,0,0,548.3,37.14Z"/></g><g class="cls-1"><path class="cls-2" d="M570.41,41.93V29.39h-1.62V27.78h3.38V41.93Z"/><path class="cls-2" d="M572.92,27.42h9.51v1.36l-5.64,13.15h-2l5.9-13h-7.79Z"/></g><g class="cls-1"><path class="cls-2" d="M603.94,41.93V29.39h-1.62V27.78h3.37V41.93Z"/><path class="cls-2" d="M607.28,30.85a3.62,3.62,0,0,1,1.21-2.8,4.91,4.91,0,0,1,3.43-1.11,4.85,4.85,0,0,1,3.42,1.12,3.67,3.67,0,0,1,1.2,2.81,3.5,3.5,0,0,1-.59,2,3.6,3.6,0,0,1-1.54,1.29,3.54,3.54,0,0,1,1.82,1.37,4,4,0,0,1,.69,2.36,4.06,4.06,0,0,1-1.38,3.22,6.07,6.07,0,0,1-7.26,0,4.06,4.06,0,0,1-1.38-3.22,4,4,0,0,1,.69-2.36,3.53,3.53,0,0,1,1.83-1.37A3.47,3.47,0,0,1,607.28,30.85Zm7.93,7a2.54,2.54,0,0,0-.91-2.1,3.68,3.68,0,0,0-2.38-.73,3.76,3.76,0,0,0-2.4.73,2.52,2.52,0,0,0-.93,2.11,2.77,2.77,0,0,0,.9,2.18,3.51,3.51,0,0,0,2.42.8,3.44,3.44,0,0,0,2.41-.81A2.8,2.8,0,0,0,615.21,37.8ZM614.85,31a2.28,2.28,0,0,0-.78-1.82,3.2,3.2,0,0,0-2.15-.67,3.24,3.24,0,0,0-2.16.67A2.26,2.26,0,0,0,609,31a2.34,2.34,0,0,0,.82,1.86,3.54,3.54,0,0,0,4.24,0A2.34,2.34,0,0,0,614.85,31Z"/></g><g class="cls-1"><path class="cls-2" d="M637.91,41.93V29.39h-1.62V27.78h3.38V41.93Z"/><path class="cls-2" d="M646.22,40.38a2.49,2.49,0,0,0,2.31-1.22,9,9,0,0,0,.73-4.29,3.27,3.27,0,0,1-1.43,1.21,4.72,4.72,0,0,1-2,.42,4.56,4.56,0,0,1-3.27-1.25,4.49,4.49,0,0,1-1.31-3.42,4.83,4.83,0,0,1,1.24-3.48A4.54,4.54,0,0,1,646,27a4,4,0,0,1,3.71,1.78,10.8,10.8,0,0,1,1.12,5.6,11.88,11.88,0,0,1-1,5.65,3.82,3.82,0,0,1-3.64,1.83A4.37,4.37,0,0,1,643,40.85a4.32,4.32,0,0,1-1.34-2.65h1.64A2.61,2.61,0,0,0,646.22,40.38ZM643,31.76a3.28,3.28,0,0,0,.8,2.3,2.91,2.91,0,0,0,2.27.88,2.82,2.82,0,0,0,2.22-.84,3.34,3.34,0,0,0,.75-2.31,3.32,3.32,0,0,0-.8-2.34,2.85,2.85,0,0,0-2.2-.87,2.89,2.89,0,0,0-2.22.88A3.24,3.24,0,0,0,643,31.76Z"/></g><g class="cls-1"><path class="cls-2" d="M666.67,41.73V40.44l1.49-1.29q1-.88,1.51-1.33L671,36.6a15,15,0,0,0,1.23-1.29q.42-.52.88-1.2a4.54,4.54,0,0,0,.85-2.52,3,3,0,0,0-.64-2,2.5,2.5,0,0,0-2-.76,2.62,2.62,0,0,0-2.1.85,3.56,3.56,0,0,0-.79,2.24h-1.72A4.8,4.8,0,0,1,668,28.49a5,5,0,0,1,6.47-.06,4.08,4.08,0,0,1,1.21,3.12,7.41,7.41,0,0,1-2.29,4.88q-.83.9-1.28,1.32-1.26,1.23-2.7,2.45h6.71v1.53Z"/><path class="cls-2" d="M677.81,28.75a3.85,3.85,0,0,1,1.42-1,5.56,5.56,0,0,1,2.19-.38,4.71,4.71,0,0,1,2.31.55,3.69,3.69,0,0,1,1.53,1.58,11.49,11.49,0,0,1,1,5.14q0,4.15-1.46,5.88a4.36,4.36,0,0,1-3.49,1.39q-4.2,0-4.83-5a20.56,20.56,0,0,1-.12-2.32,18.68,18.68,0,0,1,.13-2.31,9.12,9.12,0,0,1,.47-2A5,5,0,0,1,677.81,28.75Zm6.16,2a2.52,2.52,0,0,0-1-1.32,2.85,2.85,0,0,0-1.61-.45,3.25,3.25,0,0,0-1.53.32,2.55,2.55,0,0,0-.94.82,4.11,4.11,0,0,0-.53,1.29,8.66,8.66,0,0,0-.25,1.52q0,.73,0,1.72t0,1.72a8.66,8.66,0,0,0,.25,1.52,4.1,4.1,0,0,0,.53,1.29,2.54,2.54,0,0,0,.94.82,3.36,3.36,0,0,0,2.86,0,2.62,2.62,0,0,0,.95-.82,3.67,3.67,0,0,0,.52-1.3,12.14,12.14,0,0,0,.31-2.89,21.74,21.74,0,0,0-.11-2.49A8.33,8.33,0,0,0,684,30.74Z"/></g><rect class="cls-3" x="3.01" y="15.08" width="675.99" height="4.98"/><rect class="cls-3" x="675.31" width="3.69" height="20.06" rx="1.84" ry="1.84"/><rect class="cls-3" x="641.7" width="3.69" height="20.06" rx="1.84" ry="1.84"/><rect class="cls-3" x="608.08" width="3.69" height="20.06" rx="1.84" ry="1.84"/><rect class="cls-3" x="574.47" width="3.69" height="20.06" rx="1.84" ry="1.84"/><rect class="cls-3" x="540.85" width="3.69" height="20.06" rx="1.84" ry="1.84"/><rect class="cls-3" x="507.24" width="3.69" height="20.06" rx="1.84" ry="1.84"/><rect class="cls-3" x="473.62" width="3.69" height="20.06" rx="1.84" ry="1.84"/><rect class="cls-3" x="440.01" width="3.69" height="20.06" rx="1.84" ry="1.84"/><rect class="cls-3" x="406.39" width="3.69" height="20.06" rx="1.84" ry="1.84"/><rect class="cls-3" x="372.77" width="3.69" height="20.06" rx="1.84" ry="1.84"/><rect class="cls-3" x="339.16" width="3.69" height="20.06" rx="1.84" ry="1.84"/><rect class="cls-3" x="305.54" width="3.69" height="20.06" rx="1.84" ry="1.84"/><rect class="cls-3" x="271.93" width="3.69" height="20.06" rx="1.84" ry="1.84"/><rect class="cls-3" x="238.31" width="3.69" height="20.06" rx="1.84" ry="1.84"/><rect class="cls-3" x="204.7" width="3.69" height="20.06" rx="1.84" ry="1.84"/><rect class="cls-3" x="171.08" width="3.69" height="20.06" rx="1.84" ry="1.84"/><rect class="cls-3" x="137.47" width="3.69" height="20.06" rx="1.84" ry="1.84"/><rect class="cls-3" x="103.85" width="3.69" height="20.06" rx="1.84" ry="1.84"/><rect class="cls-3" x="70.24" width="3.69" height="20.06" rx="1.84" ry="1.84"/><rect class="cls-3" x="36.62" width="3.69" height="20.06" rx="1.84" ry="1.84"/><rect class="cls-3" x="3.01" width="3.69" height="20.06" rx="1.84" ry="1.84"/><rect class="cls-3" x="3.01" y="15.08" width="675.99" height="4.98"/><rect class="cls-3" x="675.31" width="3.69" height="20.06" rx="1.84" ry="1.84"/><rect class="cls-3" x="641.7" width="3.69" height="20.06" rx="1.84" ry="1.84"/><rect class="cls-3" x="608.08" width="3.69" height="20.06" rx="1.84" ry="1.84"/><rect class="cls-3" x="574.47" width="3.69" height="20.06" rx="1.84" ry="1.84"/><rect class="cls-3" x="540.85" width="3.69" height="20.06" rx="1.84" ry="1.84"/><rect class="cls-3" x="507.24" width="3.69" height="20.06" rx="1.84" ry="1.84"/><rect class="cls-3" x="473.62" width="3.69" height="20.06" rx="1.84" ry="1.84"/><rect class="cls-3" x="440.01" width="3.69" height="20.06" rx="1.84" ry="1.84"/><rect class="cls-3" x="406.39" width="3.69" height="20.06" rx="1.84" ry="1.84"/><rect class="cls-3" x="372.77" width="3.69" height="20.06" rx="1.84" ry="1.84"/><rect class="cls-3" x="339.16" width="3.69" height="20.06" rx="1.84" ry="1.84"/><rect class="cls-3" x="305.54" width="3.69" height="20.06" rx="1.84" ry="1.84"/><rect class="cls-3" x="271.93" width="3.69" height="20.06" rx="1.84" ry="1.84"/><rect class="cls-3" x="238.31" width="3.69" height="20.06" rx="1.84" ry="1.84"/><rect class="cls-3" x="204.7" width="3.69" height="20.06" rx="1.84" ry="1.84"/><rect class="cls-3" x="171.08" width="3.69" height="20.06" rx="1.84" ry="1.84"/><rect class="cls-3" x="137.47" width="3.69" height="20.06" rx="1.84" ry="1.84"/><rect class="cls-3" x="103.85" width="3.69" height="20.06" rx="1.84" ry="1.84"/><rect class="cls-3" x="70.24" width="3.69" height="20.06" rx="1.84" ry="1.84"/><rect class="cls-3" x="36.62" width="3.69" height="20.06" rx="1.84" ry="1.84"/><rect class="cls-3" x="3.01" width="3.69" height="20.06" rx="1.84" ry="1.84"/></svg>