<svg id="Layer_1" data-name="Layer 1" xmlns="http://www.w3.org/2000/svg" xmlns:xlink="http://www.w3.org/1999/xlink" viewBox="0 0 83.23 77.41"><defs><radialGradient id="radial-gradient" cx="47.76" cy="41.89" r="44.01" gradientTransform="translate(-0.22 3.38) scale(1 0.98)" gradientUnits="userSpaceOnUse"><stop offset="0" stop-color="#f45500"/><stop offset="0.05" stop-color="#e85400"/><stop offset="0.22" stop-color="#c95200"/><stop offset="0.39" stop-color="#b05000"/><stop offset="0.58" stop-color="#9f4e00"/><stop offset="0.77" stop-color="#944d00"/><stop offset="1" stop-color="#914d00"/></radialGradient></defs><title>BigBug</title><path d="M57,18.53a18.91,18.91,0,0,1,3.91,2.95,18,18,0,0,1,2.88,3.68L47.92,36.63,27.83,51.13,44.14,32.91Z" fill="#2c2b2a" fill-rule="evenodd"/><path d="M57,18.53A19.22,19.22,0,0,1,59.24,20l-25,26.49-6.44,4.64L44.14,32.91Z" fill-rule="evenodd"/><path d="M31.21,63.59a7,7,0,0,0,2.67,2.5c-1.79,1.67-1.61,4.48-2.42,6.72a1.16,1.16,0,0,0,0,1.19l.83-.21A1.75,1.75,0,0,0,32,75l.64-.15a6.65,6.65,0,0,0,1.15,2.57,1.49,1.49,0,0,1,.52-1.18,3.5,3.5,0,0,0,1.58,1.06,18.8,18.8,0,0,0-2.54-2.67l.44-.28a1.19,1.19,0,0,0-.72-.83l.43-.27a1.35,1.35,0,0,0-.94-.8c.26-2.51,2.43-4.53,2.52-6.75a5.09,5.09,0,0,0-1.72-2.82Z" fill-rule="evenodd"/><path d="M14.56,47.22A6.92,6.92,0,0,1,12,44.6c-1.86,1.61-4.83,1.31-7.25,2a1.38,1.38,0,0,1-1.26,0l.26-.77a2.07,2.07,0,0,1-1.28.17l.19-.6A7.51,7.51,0,0,1,0,44.14a1.68,1.68,0,0,0,1.28-.44A3.27,3.27,0,0,1,.23,42.16a19,19,0,0,1,2.72,2.51l.32-.4a1.22,1.22,0,0,1,.85.71l.3-.39a1.32,1.32,0,0,1,.81.92c2.68-.13,4.93-2.08,7.29-2.06a5.53,5.53,0,0,1,2.92,1.74Z" fill-rule="evenodd"/><path d="M49.38,58.91a15,15,0,0,0,5.71,3.17c1.67-1.25,3.65-1.64,5-3.76.16.28.38.62.63,1l.53-.65c-.09.39.15.7.6,1l.46-.53a4.88,4.88,0,0,0,2.31,1.72c-.29-.51-.59-1.14-.33-1.23s1.38.16,2.28.08a6.71,6.71,0,0,0-3.9-1l.46-.53a2,2,0,0,0-1.23-.22l.26-.35a4.3,4.3,0,0,0-2.7-.69c-1.38.33-2.79,2.91-4.49,4A8.66,8.66,0,0,0,51.12,58Z" fill-rule="evenodd"/><path d="M20.73,30.74a13.6,13.6,0,0,1-3.11-5.51c1.41-1.52,1.9-3.35,4.23-4.55-.29-.16-.64-.38-1-.64l.71-.47a1,1,0,0,1-1-.61l.58-.41a4.64,4.64,0,0,1-1.73-2.25c.53.29,1.18.6,1.29.36s-.11-1.31,0-2.14a5.73,5.73,0,0,1,.9,3.71l.58-.41A1.68,1.68,0,0,1,22.38,19l.39-.23a3.67,3.67,0,0,1,.61,2.56c-.41,1.28-3.22,2.48-4.43,4a8.19,8.19,0,0,1,2.78,3.78Z" fill-rule="evenodd"/><path d="M61.54,49.17c2.13.28,7.37-.83,7.43-1.25,1.33-1.58,6.74-6.78,7.44-9.49.23.24.69.8,1,1.1l.36-.74c0,.4.32.65.82.8l.32-.61a5.09,5.09,0,0,0,2.68,1.17c-.41-.43-.85-1-.62-1.12s1.39-.14,2.24-.41a6.86,6.86,0,0,0-4.06-.15l.32-.61a2,2,0,0,0-1.25,0l.17-.4a4.4,4.4,0,0,0-2.8-.09c-1.27.62-6.3,8.42-7.71,9.82-1.27-1-2.77-.83-4.34-.43Z" fill-rule="evenodd"/><path d="M31.77,19.89C31.56,17.88,33,13,33.43,13c1.74-1.18,7.51-6,10.42-6.56-.24-.22-.81-.68-1.12-1l.8-.3c-.43,0-.68-.33-.81-.81L43.39,4a4.5,4.5,0,0,1-1.13-2.57c.44.4,1,.84,1.16.63S43.63.79,44,0a5.74,5.74,0,0,1,0,3.82l.66-.27a1.69,1.69,0,0,1-.11,1.17l.43-.14a3.68,3.68,0,0,1,0,2.64C44.18,8.38,35.66,12.74,34.1,14c1,1.24.75,2.64.27,4.09Z" fill-rule="evenodd"/><path d="M16.54,40a30.62,30.62,0,0,1,10-17c9.89-8.88,23.36-11.19,32.41-6.21L45.21,32,27.83,51.13,16.54,40ZM65.73,23.44,49,35.67,27.83,51.13l11.39,11.2a34,34,0,0,0,18.52-8.61C67.67,44.8,70.72,32.17,65.73,23.44Z" fill-rule="evenodd" fill="url(#radial-gradient)"/><path d="M19.78,39.54a27.16,27.16,0,0,1,8.85-15.08c7-6.29,18.52-10.7,24.3-6.29C58.2,22.18,36.35,18.87,19.78,39.54Z" fill="#ff9341" fill-rule="evenodd"/><path d="M65.73,23.44c5,8.72,1.95,21.35-8,30.28a34,34,0,0,1-18.52,8.61L35.84,59A34,34,0,0,0,54.36,50.4c8.34-7.49,11.82-17.59,9.78-25.8Z" fill="#9a4800" fill-rule="evenodd"/><path d="M65.73,23.44c5,8.72,1.95,21.35-8,30.28a34,34,0,0,1-18.52,8.61L38,61.11A34,34,0,0,0,56.49,52.5c9.36-8.41,12.6-20.1,8.77-28.72Z" fill="#6f3207" fill-rule="evenodd"/><path d="M45.1,58.88c2.49-1.12,4.39-.73,3.5-4s-3-5.23-4.68-4.6-4.18,1.1-4.39,3a8.11,8.11,0,0,0,.39,4.4,4.16,4.16,0,0,0,2.78,1.69A5.64,5.64,0,0,0,45.1,58.88Z" fill-rule="evenodd"/><path d="M53,44.49c3-2.58,3.52-3.6,2.4-4.59a4.42,4.42,0,0,0-3.48-1.3c-1.34.1-2.31.2-2.95,1s-1.24,2.78-1,3.3,1.44,2.47,2.4,2.6A5.28,5.28,0,0,0,53,44.49Z" fill-rule="evenodd"/><path d="M62.36,36.85c1.4-.63,2.47-.41,2-2.24S62.61,31.67,61.7,32s-2.35.62-2.47,1.67a4.56,4.56,0,0,0,.22,2.47,2.34,2.34,0,0,0,1.56,1A3.17,3.17,0,0,0,62.36,36.85Z" fill-rule="evenodd"/><path d="M15.72,71.21c2.29-3.16,2.62-6.89,2.6-10.71-1.73,7.91-2.95,8.57-4.1,10.55C14.09,71.82,15,72,15.72,71.21Z" fill-rule="evenodd"/><path d="M5.89,61.55c3.46-2,7.44-2.15,11.5-2C8.9,60.86,8.15,62,6,63,5.16,63.05,5,62.18,5.89,61.55Z" fill-rule="evenodd"/><path d="M14.5,51.72a15.72,15.72,0,0,1,2-11.72A163.43,163.43,0,0,1,39.14,62.26a18.64,18.64,0,0,1-12.55,1.36,5.43,5.43,0,0,1-3.67,1.25,1.65,1.65,0,0,1-.5,1.52A2.31,2.31,0,0,1,19.35,66a2.22,2.22,0,0,1-.66-2.3,11.59,11.59,0,0,1-2.69-2,11,11,0,0,1-2-2.61,2.56,2.56,0,0,1-2.41-.73,2,2,0,0,1-.25-2.91,1.91,1.91,0,0,1,1.64-.4A4.77,4.77,0,0,1,14.5,51.72Z" fill-rule="evenodd"/><path d="M16.21,52.46c-.71-2.74-.53-5.88.56-7.61,1.34-2.12,3-3,2.67,1.53-.27,3.28-.45,7.06-1.29,8.08-1.66,2.55-3.09,3.71-3.57,1.84A6.43,6.43,0,0,1,16.21,52.46Z" fill="#333" fill-rule="evenodd"/><path d="M17.91,47.68c-.78-.45-1-3.47,1.49-3C20.26,44.81,20.19,48,17.91,47.68Z" fill="#ccc" fill-rule="evenodd"/><path d="M28.9,44c3-2.62,3.56-3.65,2.43-4.65A4.48,4.48,0,0,0,27.81,38c-1.36.1-2.34.2-3,1s-1.26,2.81-1,3.34,1.45,2.5,2.43,2.63S28.9,44,28.9,44Z" fill-rule="evenodd"/><path d="M30.14,32.11c1.4-.63,2.47-.41,2-2.24s-1.72-2.94-2.63-2.59-2.35.62-2.47,1.67a4.56,4.56,0,0,0,.22,2.47,2.34,2.34,0,0,0,1.56,1A3.17,3.17,0,0,0,30.14,32.11Z" fill-rule="evenodd"/><path d="M41.69,24.59c3-2.58,3.52-3.6,2.4-4.59a4.42,4.42,0,0,0-3.48-1.3c-1.34.1-2.31.2-2.95,1s-1.24,2.78-1,3.3,1.44,2.47,2.4,2.6A5.28,5.28,0,0,0,41.69,24.59Z" fill-rule="evenodd"/><path d="M43.42,23c-1.62.56-3.36,1.24-5.19,2.08A9.58,9.58,0,0,1,36.7,23c-.29-.52.32-2.51,1-3.3s1.61-.89,2.95-1A4.42,4.42,0,0,1,44.09,20C44.94,20.75,44.84,21.52,43.42,23Z" fill="#1a1a1a" fill-rule="evenodd"/><path d="M41.13,23.35c-.84-2.51,5-10.08,9.83-4.37C52.61,20.94,45.66,28.37,41.13,23.35Z" fill="#ff9898" fill-rule="evenodd"/><path d="M41.13,23.35c-.33-1,.39-2.79,1.69-4.23a6.07,6.07,0,0,1,1.27.89c1.07.94.65,1.91-2,4.22A5.81,5.81,0,0,1,41.13,23.35Z" fill="#4d4d4d" fill-rule="evenodd"/></svg>