
<svg xmlns="http://www.w3.org/2000/svg" xmlns:xlink="http://www.w3.org/1999/xlink" viewBox="0 0 138 138"><defs><style>.cls-1{isolation:isolate;}.cls-2{fill:none;}.cls-12,.cls-13,.cls-16,.cls-17,.cls-19,.cls-20,.cls-22,.cls-23,.cls-25,.cls-26,.cls-28,.cls-29,.cls-3,.cls-31,.cls-32,.cls-34,.cls-35,.cls-36,.cls-38,.cls-39,.cls-41,.cls-42,.cls-44,.cls-45,.cls-47,.cls-48,.cls-50,.cls-51,.cls-53,.cls-54{opacity:0.5;}.cls-3{filter:url(#AI_GaussianBlur_4);}.cls-4{fill:#754b33;}.cls-5{fill:#b0835d;}.cls-12,.cls-13,.cls-16,.cls-17,.cls-19,.cls-20,.cls-22,.cls-23,.cls-25,.cls-26,.cls-28,.cls-29,.cls-31,.cls-32,.cls-35,.cls-36,.cls-38,.cls-39,.cls-41,.cls-42,.cls-44,.cls-45,.cls-47,.cls-48,.cls-50,.cls-51,.cls-53,.cls-54,.cls-6,.cls-8,.cls-9{mix-blend-mode:multiply;}.cls-6{fill:url(#radial-gradient);}.cls-7{fill:#9f6d48;}.cls-8{fill:url(#radial-gradient-14);}.cls-9{fill:url(#radial-gradient-24);}.cls-10{fill:#875800;}.cls-11{fill:#ecb25e;}.cls-12{fill:url(#linear-gradient);}.cls-13{fill:url(#linear-gradient-2);}.cls-14,.cls-18,.cls-21,.cls-24,.cls-27,.cls-30,.cls-33,.cls-37,.cls-40,.cls-43,.cls-46,.cls-49,.cls-52,.cls-55{opacity:0.7;mix-blend-mode:soft-light;}.cls-14{fill:url(#linear-gradient-3);}.cls-15,.cls-56{fill:#fff;}.cls-15{opacity:0;}.cls-16{fill:url(#linear-gradient-4);}.cls-17{fill:url(#linear-gradient-5);}.cls-18{fill:url(#linear-gradient-6);}.cls-19{fill:url(#linear-gradient-7);}.cls-20{fill:url(#linear-gradient-8);}.cls-21{fill:url(#linear-gradient-9);}.cls-22{fill:url(#linear-gradient-10);}.cls-23{fill:url(#linear-gradient-11);}.cls-24{fill:url(#linear-gradient-12);}.cls-25{fill:url(#linear-gradient-13);}.cls-26{fill:url(#linear-gradient-14);}.cls-27{fill:url(#linear-gradient-15);}.cls-28{fill:url(#linear-gradient-16);}.cls-29{fill:url(#linear-gradient-17);}.cls-30{fill:url(#linear-gradient-18);}.cls-31{fill:url(#linear-gradient-19);}.cls-32{fill:url(#linear-gradient-20);}.cls-33{fill:url(#linear-gradient-21);}.cls-34{fill:#d2852e;}.cls-35{fill:url(#linear-gradient-22);}.cls-36{fill:url(#linear-gradient-23);}.cls-37{fill:url(#linear-gradient-24);}.cls-38{fill:url(#linear-gradient-25);}.cls-39{fill:url(#linear-gradient-26);}.cls-40{fill:url(#linear-gradient-27);}.cls-41{fill:url(#linear-gradient-28);}.cls-42{fill:url(#linear-gradient-29);}.cls-43{fill:url(#linear-gradient-30);}.cls-44{fill:url(#linear-gradient-31);}.cls-45{fill:url(#linear-gradient-32);}.cls-46{fill:url(#linear-gradient-33);}.cls-47{fill:url(#linear-gradient-34);}.cls-48{fill:url(#linear-gradient-35);}.cls-49{fill:url(#linear-gradient-36);}.cls-50{fill:url(#linear-gradient-37);}.cls-51{fill:url(#linear-gradient-38);}.cls-52{fill:url(#linear-gradient-39);}.cls-53{fill:url(#linear-gradient-40);}.cls-54{fill:url(#linear-gradient-41);}.cls-55{fill:url(#linear-gradient-42);}.cls-57{fill:#25390e;}.cls-58{fill:url(#linear-gradient-43);}.cls-59{fill:url(#linear-gradient-44);}.cls-60{fill:url(#linear-gradient-45);}.cls-61{fill:url(#linear-gradient-46);}.cls-62{fill:url(#linear-gradient-47);}.cls-63{fill:url(#linear-gradient-48);}.cls-64{fill:#b95a00;}.cls-65{fill:url(#linear-gradient-49);}.cls-66{fill:#67700f;}.cls-67{fill:#d2ed00;}</style><filter id="AI_GaussianBlur_4" name="AI_GaussianBlur_4"><feGaussianBlur stdDeviation="4"/></filter><radialGradient id="radial-gradient" cx="8741.75" cy="-1943.95" r="242.3" gradientTransform="matrix(0.23, 0.23, -2.61, 2.61, -6991.58, 3157.67)" gradientUnits="userSpaceOnUse"><stop offset="0.01" stop-color="#fff"/><stop offset="0.02" stop-color="#fff"/><stop offset="0.11" stop-color="#f6f5f4"/><stop offset="0.27" stop-color="#ded9d6"/><stop offset="0.47" stop-color="#b6aba5"/><stop offset="0.73" stop-color="#806d61"/><stop offset="0.99" stop-color="#412514"/></radialGradient><radialGradient id="radial-gradient-14" cx="8604.11" cy="-1938.45" r="0" xlink:href="#radial-gradient"/><radialGradient id="radial-gradient-24" cx="57.81" cy="72.19" r="249.09" gradientTransform="translate(-0.03)" xlink:href="#radial-gradient"/><linearGradient id="linear-gradient" x1="-2187.75" y1="-2630.82" x2="-2187.75" y2="-2539.87" gradientTransform="matrix(0, 0.66, -1, -0.01, -2554.69, 1500.39)" gradientUnits="userSpaceOnUse"><stop offset="0.17" stop-color="#de9a34" stop-opacity="0"/><stop offset="0.78" stop-color="#de9a34"/></linearGradient><linearGradient id="linear-gradient-2" x1="30.98" y1="14.68" x2="30.98" y2="135.69" gradientTransform="matrix(1, 0, 0, 1, 0, 0)" xlink:href="#linear-gradient"/><linearGradient id="linear-gradient-3" x1="30.98" y1="12.54" x2="30.98" y2="129.11" gradientUnits="userSpaceOnUse"><stop offset="0" stop-color="#f1cf72"/><stop offset="0.77" stop-color="#f1cf72" stop-opacity="0"/></linearGradient><linearGradient id="linear-gradient-4" x1="-2187.27" y1="-2630.82" x2="-2187.27" y2="-2539.87" xlink:href="#linear-gradient"/><linearGradient id="linear-gradient-5" x1="50.11" y1="14.68" x2="50.11" y2="135.69" gradientTransform="matrix(1, 0, 0, 1, 0, 0)" xlink:href="#linear-gradient"/><linearGradient id="linear-gradient-6" x1="50.11" y1="12.54" x2="50.11" y2="129.11" xlink:href="#linear-gradient-3"/><linearGradient id="linear-gradient-7" x1="-2182.36" y1="-2630.82" x2="-2182.36" y2="-2539.87" xlink:href="#linear-gradient"/><linearGradient id="linear-gradient-8" x1="95.48" y1="14.68" x2="95.48" y2="135.69" gradientTransform="matrix(1, 0, 0, 1, 0, 0)" xlink:href="#linear-gradient"/><linearGradient id="linear-gradient-9" x1="95.48" y1="12.54" x2="95.48" y2="129.11" xlink:href="#linear-gradient-3"/><linearGradient id="linear-gradient-10" x1="-2185.86" y1="-2630.82" x2="-2185.86" y2="-2539.87" xlink:href="#linear-gradient"/><linearGradient id="linear-gradient-11" x1="61.25" y1="14.68" x2="61.25" y2="135.69" gradientTransform="matrix(1, 0, 0, 1, 0, 0)" xlink:href="#linear-gradient"/><linearGradient id="linear-gradient-12" x1="61.25" y1="12.54" x2="61.25" y2="129.11" xlink:href="#linear-gradient-3"/><linearGradient id="linear-gradient-13" x1="-2185.31" y1="-2630.82" x2="-2185.31" y2="-2539.87" xlink:href="#linear-gradient"/><linearGradient id="linear-gradient-14" x1="78.15" y1="14.68" x2="78.15" y2="135.69" gradientTransform="matrix(1, 0, 0, 1, 0, 0)" xlink:href="#linear-gradient"/><linearGradient id="linear-gradient-15" x1="78.15" y1="12.54" x2="78.15" y2="129.11" xlink:href="#linear-gradient-3"/><linearGradient id="linear-gradient-16" x1="-2201.8" y1="-2630.82" x2="-2201.8" y2="-2539.87" xlink:href="#linear-gradient"/><linearGradient id="linear-gradient-17" x1="24.12" y1="14.68" x2="24.12" y2="135.69" gradientTransform="matrix(1, 0, 0, 1, 0, 0)" xlink:href="#linear-gradient"/><linearGradient id="linear-gradient-18" x1="24.12" y1="12.54" x2="24.12" y2="129.11" xlink:href="#linear-gradient-3"/><linearGradient id="linear-gradient-19" x1="-2181.13" y1="-2630.82" x2="-2181.13" y2="-2539.87" xlink:href="#linear-gradient"/><linearGradient id="linear-gradient-20" x1="111.67" y1="14.68" x2="111.67" y2="135.69" gradientTransform="matrix(1, 0, 0, 1, 0, 0)" xlink:href="#linear-gradient"/><linearGradient id="linear-gradient-21" x1="111.67" y1="12.54" x2="111.67" y2="129.11" xlink:href="#linear-gradient-3"/><linearGradient id="linear-gradient-22" x1="-2175.6" y1="-2630.82" x2="-2175.6" y2="-2539.87" xlink:href="#linear-gradient"/><linearGradient id="linear-gradient-23" x1="116.83" y1="14.68" x2="116.83" y2="135.69" gradientTransform="matrix(1, 0, 0, 1, 0, 0)" xlink:href="#linear-gradient"/><linearGradient id="linear-gradient-24" x1="116.83" y1="12.54" x2="116.83" y2="129.11" xlink:href="#linear-gradient-3"/><linearGradient id="linear-gradient-25" x1="-2179.5" y1="-2630.82" x2="-2179.5" y2="-2539.87" xlink:href="#linear-gradient"/><linearGradient id="linear-gradient-26" x1="105.28" y1="14.68" x2="105.28" y2="135.69" gradientTransform="matrix(1, 0, 0, 1, 0, 0)" xlink:href="#linear-gradient"/><linearGradient id="linear-gradient-27" x1="105.28" y1="12.54" x2="105.28" y2="129.11" xlink:href="#linear-gradient-3"/><linearGradient id="linear-gradient-28" x1="-2183.14" y1="-2630.82" x2="-2183.14" y2="-2539.87" xlink:href="#linear-gradient"/><linearGradient id="linear-gradient-29" x1="85.76" y1="14.68" x2="85.76" y2="135.69" gradientTransform="matrix(1, 0, 0, 1, 0, 0)" xlink:href="#linear-gradient"/><linearGradient id="linear-gradient-30" x1="85.76" y1="12.54" x2="85.76" y2="129.11" xlink:href="#linear-gradient-3"/><linearGradient id="linear-gradient-31" x1="-2185.48" y1="-2630.82" x2="-2185.48" y2="-2539.87" xlink:href="#linear-gradient"/><linearGradient id="linear-gradient-32" x1="66.19" y1="14.68" x2="66.19" y2="135.69" gradientTransform="matrix(1, 0, 0, 1, 0, 0)" xlink:href="#linear-gradient"/><linearGradient id="linear-gradient-33" x1="66.19" y1="12.54" x2="66.19" y2="129.11" xlink:href="#linear-gradient-3"/><linearGradient id="linear-gradient-34" x1="-2186.55" y1="-2630.82" x2="-2186.55" y2="-2539.87" xlink:href="#linear-gradient"/><linearGradient id="linear-gradient-35" x1="55.65" y1="14.68" x2="55.65" y2="135.69" gradientTransform="matrix(1, 0, 0, 1, 0, 0)" xlink:href="#linear-gradient"/><linearGradient id="linear-gradient-36" x1="55.65" y1="12.54" x2="55.65" y2="129.11" xlink:href="#linear-gradient-3"/><linearGradient id="linear-gradient-37" x1="-2186.33" y1="-2630.82" x2="-2186.33" y2="-2539.87" xlink:href="#linear-gradient"/><linearGradient id="linear-gradient-38" x1="41.51" y1="14.68" x2="41.51" y2="135.69" gradientTransform="matrix(1, 0, 0, 1, 0, 0)" xlink:href="#linear-gradient"/><linearGradient id="linear-gradient-39" x1="41.51" y1="12.54" x2="41.51" y2="129.11" xlink:href="#linear-gradient-3"/><linearGradient id="linear-gradient-40" x1="-2200.16" y1="-2630.82" x2="-2200.16" y2="-2539.87" xlink:href="#linear-gradient"/><linearGradient id="linear-gradient-41" x1="27.63" y1="14.68" x2="27.63" y2="135.69" gradientTransform="matrix(1, 0, 0, 1, 0, 0)" xlink:href="#linear-gradient"/><linearGradient id="linear-gradient-42" x1="27.63" y1="12.54" x2="27.63" y2="129.11" xlink:href="#linear-gradient-3"/><linearGradient id="linear-gradient-43" x1="59.91" y1="53.34" x2="63.87" y2="64.63" gradientUnits="userSpaceOnUse"><stop offset="0" stop-color="#fbdc75"/><stop offset="0.19" stop-color="#f9ca64"/><stop offset="0.36" stop-color="#f7bf59"/><stop offset="0.65" stop-color="#ed7f22"/><stop offset="0.75" stop-color="#ea7d22"/><stop offset="0.81" stop-color="#e27822"/><stop offset="0.87" stop-color="#d46f21"/><stop offset="0.91" stop-color="#c06221"/><stop offset="0.95" stop-color="#a55220"/><stop offset="0.99" stop-color="#853e1f"/><stop offset="1" stop-color="#7e391f"/></linearGradient><linearGradient id="linear-gradient-44" x1="57.59" y1="58.4" x2="67.62" y2="73.18" gradientUnits="userSpaceOnUse"><stop offset="0" stop-color="#fbdc75"/><stop offset="0.41" stop-color="#f9ca64"/><stop offset="0.78" stop-color="#f7bf59"/><stop offset="1" stop-color="#ed7f22"/></linearGradient><linearGradient id="linear-gradient-45" x1="70.53" y1="61.9" x2="57.63" y2="66.04" gradientUnits="userSpaceOnUse"><stop offset="0" stop-color="#fbdc75"/><stop offset="0.26" stop-color="#f9ca64"/><stop offset="0.49" stop-color="#f7bf59"/><stop offset="0.84" stop-color="#ed7f22"/><stop offset="1" stop-color="#b86d32"/></linearGradient><linearGradient id="linear-gradient-46" x1="61.54" y1="52.73" x2="86.47" y2="71.93" xlink:href="#linear-gradient-44"/><linearGradient id="linear-gradient-47" x1="74.04" y1="47.38" x2="80.79" y2="64.39" gradientUnits="userSpaceOnUse"><stop offset="0.65" stop-color="#ed7f22"/><stop offset="0.77" stop-color="#ea7d22"/><stop offset="0.85" stop-color="#e27823"/><stop offset="0.91" stop-color="#d46f23"/><stop offset="0.97" stop-color="#c06324"/><stop offset="1" stop-color="#b05925"/></linearGradient><linearGradient id="linear-gradient-48" x1="75.75" y1="60.04" x2="60.86" y2="65.05" gradientUnits="userSpaceOnUse"><stop offset="0" stop-color="#fbdc75"/><stop offset="0.19" stop-color="#f9ca64"/><stop offset="0.36" stop-color="#f7bf59"/><stop offset="0.65" stop-color="#ed7f22"/><stop offset="0.77" stop-color="#ea7d22"/><stop offset="0.85" stop-color="#e27823"/><stop offset="0.91" stop-color="#d46f23"/><stop offset="0.97" stop-color="#c06324"/><stop offset="1" stop-color="#b05925"/></linearGradient><linearGradient id="linear-gradient-49" x1="81.26" y1="48" x2="81.26" y2="48.28" gradientUnits="userSpaceOnUse"><stop offset="0" stop-color="#f7bf59"/><stop offset="1" stop-color="#d96a20"/></linearGradient></defs><title>icon</title><g class="cls-1"><g id="Layer_1" data-name="Layer 1"><circle class="cls-2" cx="69" cy="69" r="67.66"/><g class="cls-3"><ellipse cx="68.82" cy="69.28" rx="57.5" ry="57.47"/></g><path class="cls-4" d="M126.16,76.36l-.34.34v.09Z"/><path class="cls-5" d="M109.48,109.87a58.09,58.09,0,0,0,4.18-4.66q-3.4,3.59-6.87,7.17C107.7,111.57,108.6,110.75,109.48,109.87Z"/><path class="cls-6" d="M109.48,109.87a58.09,58.09,0,0,0,4.18-4.66q-3.4,3.59-6.87,7.17C107.7,111.57,108.6,110.75,109.48,109.87Z"/><path class="cls-5" d="M36.19,116.55q1.14.79,2.3,1.51l-1.8-1.8Z"/><path class="cls-6" d="M36.19,116.55q1.14.79,2.3,1.51l-1.8-1.8Z"/><path class="cls-5" d="M55.65,13.28A57.28,57.28,0,0,0,45,16.91Q31.2,29.47,17.65,43a57.13,57.13,0,0,0-4.18,10.64C29.11,37.44,43.7,23.84,55.65,13.28Z"/><path class="cls-6" d="M55.65,13.28A57.28,57.28,0,0,0,45,16.91Q31.2,29.47,17.65,43a57.13,57.13,0,0,0-4.18,10.64C29.11,37.44,43.7,23.84,55.65,13.28Z"/><path class="cls-5" d="M28.16,28.58a57.46,57.46,0,0,0-9.78,13.06q12.47-12.42,25-24A57.4,57.4,0,0,0,28.16,28.58Z"/><path class="cls-6" d="M28.16,28.58a57.46,57.46,0,0,0-9.78,13.06q12.47-12.42,25-24A57.4,57.4,0,0,0,28.16,28.58Z"/><path class="cls-5" d="M23,53.43l0,0,37.3-37.29c-8.1,6.65-17.19,14.56-28.43,25.32-7.5,7.18-14.13,13.74-20,19.8-.17,1.22-.29,2.45-.38,3.68L23,53.44Z"/><path class="cls-6" d="M23,53.43l0,0,37.3-37.29c-8.1,6.65-17.19,14.56-28.43,25.32-7.5,7.18-14.13,13.74-20,19.8-.17,1.22-.29,2.45-.38,3.68L23,53.44Z"/><path class="cls-5" d="M32.45,40.26c12.92-12.36,23-21.08,31.91-28.32A57.7,57.7,0,0,0,56.78,13C44.7,23.58,29.48,37.65,13.23,54.55a57.51,57.51,0,0,0-1.24,6Q21.2,51,32.45,40.26Z"/><path class="cls-6" d="M32.45,40.26c12.92-12.36,23-21.08,31.91-28.32A57.7,57.7,0,0,0,56.78,13C44.7,23.58,29.48,37.65,13.23,54.55a57.51,57.51,0,0,0-1.24,6Q21.2,51,32.45,40.26Z"/><path class="cls-5" d="M123.34,87.46c-3.3,3.66-6.75,7.43-10.14,11.11-3.74,4-7.62,8.13-11,11.75q-3.79,4-7.33,7.62l-4.54,4.61a57.12,57.12,0,0,0,13.39-7.64q6.31-6.47,12.42-13A57,57,0,0,0,123.34,87.46Z"/><path class="cls-6" d="M123.34,87.46c-3.3,3.66-6.75,7.43-10.14,11.11-3.74,4-7.62,8.13-11,11.75q-3.79,4-7.33,7.62l-4.54,4.61a57.12,57.12,0,0,0,13.39-7.64q6.31-6.47,12.42-13A57,57,0,0,0,123.34,87.46Z"/><path class="cls-5" d="M20,99.54a57.54,57.54,0,0,0,7.22,9.31q.36-.74.67-1.43Z"/><path class="cls-6" d="M20,99.54a57.54,57.54,0,0,0,7.22,9.31q.36-.74.67-1.43Z"/><path class="cls-5" d="M91,116.46c2-2.19,4.06-4.42,6-6.64q14-15.85,25.84-30.22L93.18,109.33q-2.38,2.64-4.72,5.13l-.74.79-.74.67L83,119.47l-6.74,6.73a57.61,57.61,0,0,0,6.8-1.3c2.65-2.73,5.27-5.5,7.77-8.27Z"/><path class="cls-6" d="M91,116.46c2-2.19,4.06-4.42,6-6.64q14-15.85,25.84-30.22L93.18,109.33q-2.38,2.64-4.72,5.13l-.74.79-.74.67L83,119.47l-6.74,6.73a57.61,57.61,0,0,0,6.8-1.3c2.65-2.73,5.27-5.5,7.77-8.27Z"/><path class="cls-5" d="M100.8,111.08c3.45-3.65,7.1-7.52,10.64-11.32,4.15-4.5,8.41-9.17,12.31-13.54a57.5,57.5,0,0,0,2-9q-12,14.6-26.4,30.87c-2.18,2.43-4.32,4.77-6.45,7.08C90,118.31,87,121.51,84,124.67q2.69-.73,5.31-1.73,2.32-2.34,4.7-4.78C96.16,115.92,98.47,113.52,100.8,111.08Z"/><path class="cls-6" d="M100.8,111.08c3.45-3.65,7.1-7.52,10.64-11.32,4.15-4.5,8.41-9.17,12.31-13.54a57.5,57.5,0,0,0,2-9q-12,14.6-26.4,30.87c-2.18,2.43-4.32,4.77-6.45,7.08C90,118.31,87,121.51,84,124.67q2.69-.73,5.31-1.73,2.32-2.34,4.7-4.78C96.16,115.92,98.47,113.52,100.8,111.08Z"/><path class="cls-5" d="M29,108.6q-.39.65-.82,1.33a58,58,0,0,0,6.58,5.65l.81-.41Z"/><path class="cls-6" d="M29,108.6q-.39.65-.82,1.33a58,58,0,0,0,6.58,5.65l.81-.41Z"/><path class="cls-7" d="M28.69,108.26q-.37.66-.78,1.35l.25.26.06.06q.43-.68.82-1.33Z"/><path class="cls-7" d="M36.35,115.91l-.59.33.43.3.5-.29Z"/><path class="cls-7" d="M35.6,115.17l-.81.41.5.35.69-.37Z"/><path class="cls-7" d="M27.85,107.42q-.3.69-.67,1.43l.39.41c.26-.47.51-.93.73-1.38Z"/><path class="cls-4" d="M36,115.55l-.69.37.46.32.59-.33Z"/><path class="cls-4" d="M28.3,107.87c-.23.45-.47.91-.73,1.38l.34.36q.41-.69.78-1.35Z"/><path class="cls-7" d="M88,114.75l-.25.26-.25.22-2.06,1.85L83,119.47,87,115.92l.74-.67.74-.79q2.35-2.49,4.72-5.13l-2.43,2.43C89.81,112.78,88.89,113.77,88,114.75Z"/><path class="cls-4" d="M87.72,115l.25-.26c.92-1,1.84-2,2.78-3l-5.32,5.32,2.06-1.85Z"/><path class="cls-7" d="M99.35,108.07q14.35-16.23,26.4-30.87c0-.14,0-.28,0-.41q-12.36,15-27.25,31.9c-2.1,2.34-4.23,4.67-6.34,7-2.71,3-5.59,6.07-8.54,9.1l.29-.08c3.07-3.16,6.08-6.35,8.94-9.52C95,112.84,97.18,110.49,99.35,108.07Z"/><path class="cls-7" d="M31.88,41.45C43.11,30.7,52.21,22.78,60.31,16.13l1.61-1.61C53.48,21.41,44,29.65,32.07,41.05,24.53,48.26,17.85,54.87,11.9,61c0,.08,0,.17,0,.25C17.75,55.19,24.37,48.63,31.88,41.45Z"/><path class="cls-7" d="M32.26,40.66C44.86,28.6,54.77,20,63.53,12.9l1-1h-.16c-8.9,7.24-19,16-31.91,28.32Q21.2,51,12,60.5c0,.09,0,.18,0,.26Q21.05,51.39,32.26,40.66Z"/><path class="cls-7" d="M97.8,109.27Q112.36,92.8,124.54,78l-1.62,1.62q-11.8,14.32-25.84,30.22c-2,2.21-4,4.45-6,6.64l-.16.17c-2.5,2.77-5.12,5.54-7.77,8.27l.29-.08c2.8-2.88,5.56-5.81,8.19-8.72Q94.75,112.66,97.8,109.27Z"/><path class="cls-4" d="M32.07,41.05C44,29.65,53.48,21.41,61.92,14.52l1.62-1.62C54.77,20,44.86,28.6,32.26,40.66q-11.2,10.72-20.32,20.1l0,.24C17.85,54.87,24.53,48.26,32.07,41.05Z"/><path class="cls-4" d="M98.56,108.68q14.86-16.81,27.25-31.9V76.7L124.54,78Q112.38,92.77,97.8,109.27q-3,3.39-6.23,6.84c-2.63,2.91-5.39,5.83-8.19,8.72l.3-.08c2.95-3,5.83-6.1,8.54-9.1C94.34,113.36,96.46,111,98.56,108.68Z"/><path class="cls-7" d="M101.22,110.86c3.53-3.73,7.2-7.62,10.77-11.46,3.9-4.24,7.9-8.61,11.61-12.75l.13-.42c-3.9,4.37-8.16,9-12.31,13.54-3.53,3.8-7.19,7.66-10.64,11.32-2.32,2.44-4.63,4.84-6.81,7.08q-2.39,2.44-4.7,4.78l.34-.13,4.63-4.7C96.5,115.79,98.86,113.34,101.22,110.86Z"/><path class="cls-7" d="M102.16,110.33c3.43-3.63,7.31-7.74,11-11.75,3.39-3.68,6.84-7.45,10.14-11.11l.13-.41C120,91,116.24,95,112.59,99s-7.5,8-10.91,11.61c-2.43,2.55-4.83,5-7.15,7.43L90,122.68l.34-.13,4.54-4.61Q98.38,114.3,102.16,110.33Z"/><path class="cls-7" d="M56,13.2l-.37.08c-12,10.56-26.54,24.17-42.17,40.34l-.08.31C29.24,37.51,44,23.76,56,13.2Z"/><path class="cls-7" d="M56.78,13l-.38.08c-12,10.56-27,24.47-43.09,41.12l-.08.31C29.48,37.65,44.7,23.58,56.78,13Z"/><path class="cls-4" d="M56.4,13.11,56,13.2C44,23.76,29.24,37.51,13.39,53.93l-.08.31C29.36,37.58,44.36,23.67,56.4,13.11Z"/><path class="cls-4" d="M101.68,110.61c3.41-3.61,7.27-7.69,10.91-11.61s7.38-8,10.89-11.94l.13-.41C119.9,90.79,115.9,95.16,112,99.4c-3.58,3.84-7.25,7.73-10.77,11.46-2.37,2.48-4.72,4.93-7,7.25l-4.63,4.7.34-.13L94.53,118C96.85,115.65,99.25,113.16,101.68,110.61Z"/><path class="cls-7" d="M43.38,17.68q-12.51,11.52-25,24l-.26.47Q31,29.3,43.89,17.42Z"/><path class="cls-7" d="M44.48,17.14Q31.07,29.39,17.86,42.57l-.2.41Q31.16,29.49,45,16.91Z"/><path class="cls-7" d="M105.52,113.47c.43-.35.85-.72,1.26-1.08q3.47-3.58,6.87-7.17c.33-.41.64-.82,1-1.24Q110.12,108.73,105.52,113.47Z"/><path class="cls-7" d="M116.11,101.91q-6.11,6.53-12.42,13l.85-.66q5.53-5.68,10.91-11.4C115.67,102.55,115.89,102.23,116.11,101.91Z"/><path class="cls-4" d="M43.89,17.42Q31,29.27,18.11,42.11l-.25.46Q31,29.42,44.48,17.14Z"/><path class="cls-4" d="M115.44,102.86q-5.37,5.72-10.91,11.4l1-.79q4.6-4.73,9.09-9.49C114.89,103.61,115.17,103.24,115.44,102.86Z"/><path class="cls-5" d="M60.31,16.13,23,53.42,61,15.58Z"/><path class="cls-6" d="M60.31,16.13,23,53.42,61,15.58Z"/><path class="cls-5" d="M18,58.75l.47-.47L23,53.44,11.49,64.93V65Z"/><path class="cls-6" d="M18,58.75l.47-.47L23,53.44,11.49,64.93V65Z"/><path class="cls-7" d="M18.51,58.28l-.47.47.27-.26Z"/><path class="cls-7" d="M62.63,13.94l-.71.58-1.61,1.61.68-.56Z"/><path class="cls-7" d="M63.53,12.9l.73-.59.4-.4h-.15Z"/><path class="cls-4" d="M64.26,12.31l-.73.59-1.62,1.62.71-.58Z"/><polygon class="cls-5" points="22.99 53.44 22.99 53.44 23 53.42 22.99 53.44"/><polygon class="cls-8" points="22.99 53.44 22.99 53.44 23 53.42 22.99 53.44"/><path class="cls-5" d="M98.7,75.81c-2,2.65-4.21,5.38-6.65,8.36s-5.16,6.21-8,9.5l-.85,1-1.13,1c-2.48,2.27-5,4.46-7.78,6.68l-.14.11q-14.76,11.23-27,20c1.57.64,3.16,1.19,4.76,1.69l10.2-7.51c5.81-4.28,11.82-8.7,17.7-13,1.76-1.39,3.43-2.78,5-4.14,7.52-8.83,14.07-17,19.46-24.2,1.81-2.43,3.44-4.69,5-6.9,4.14-5.8,6.25-9.25,6.64-10.86.16-2.28,1.67-5.74,3.13-9.08l0-.05,1.29-2.27L121,45c-.63-1.36-1.33-2.69-2.08-4-3.2,9-9.68,20.19-20.1,34.74Z"/><path class="cls-6" d="M98.7,75.81c-2,2.65-4.21,5.38-6.65,8.36s-5.16,6.21-8,9.5l-.85,1-1.13,1c-2.48,2.27-5,4.46-7.78,6.68l-.14.11q-14.76,11.23-27,20c1.57.64,3.16,1.19,4.76,1.69l10.2-7.51c5.81-4.28,11.82-8.7,17.7-13,1.76-1.39,3.43-2.78,5-4.14,7.52-8.83,14.07-17,19.46-24.2,1.81-2.43,3.44-4.69,5-6.9,4.14-5.8,6.25-9.25,6.64-10.86.16-2.28,1.67-5.74,3.13-9.08l0-.05,1.29-2.27L121,45c-.63-1.36-1.33-2.69-2.08-4-3.2,9-9.68,20.19-20.1,34.74Z"/><path class="cls-5" d="M117.39,74.52c-5.53,7.14-12,15.22-19.76,24.69l-.22.27-.33.35C92.09,105.27,87,110.37,82,115l-.37.35-.29.24q-7,5.74-13.65,11.08a57.87,57.87,0,0,0,6.62-.24q2.67-2.33,5.39-4.72c2.6-2.3,5.29-4.71,8-7.17,1.45-1.55,3-3.21,4.51-4.94,13.72-15.23,24.9-28.48,34.09-40.42a57.78,57.78,0,0,0-.32-6c-.95,1.26-1.93,2.55-3,3.89C121.32,69.42,119.41,71.92,117.39,74.52Z"/><path class="cls-6" d="M117.39,74.52c-5.53,7.14-12,15.22-19.76,24.69l-.22.27-.33.35C92.09,105.27,87,110.37,82,115l-.37.35-.29.24q-7,5.74-13.65,11.08a57.87,57.87,0,0,0,6.62-.24q2.67-2.33,5.39-4.72c2.6-2.3,5.29-4.71,8-7.17,1.45-1.55,3-3.21,4.51-4.94,13.72-15.23,24.9-28.48,34.09-40.42a57.78,57.78,0,0,0-.32-6c-.95,1.26-1.93,2.55-3,3.89C121.32,69.42,119.41,71.92,117.39,74.52Z"/><path class="cls-5" d="M93.18,109.33,122.91,79.6l3-3.66q.32-2.72.38-5.46C117.47,81.68,107,94,94.44,107.94Z"/><path class="cls-6" d="M93.18,109.33,122.91,79.6l3-3.66q.32-2.72.38-5.46C117.47,81.68,107,94,94.44,107.94Z"/><path class="cls-5" d="M11.49,65c0,.2,0,.39,0,.59q3-3.22,6.6-6.82Z"/><path class="cls-6" d="M11.49,65c0,.2,0,.39,0,.59q3-3.22,6.6-6.82Z"/><path class="cls-5" d="M112.6,65.29c-1.56,2.24-3.23,4.55-5.09,7-5.77,7.75-12.84,16.52-21,26.06l-.87,1-1.17,1.07c-2.42,2.21-4.88,4.29-7.51,6.36l-.14.1c-5.89,4.3-11.91,8.74-17.74,13L53,124.48a57.54,57.54,0,0,0,5.9,1.35q4-2.91,8.22-6c5.3-3.93,10.21-7.64,15-11.34A121.87,121.87,0,0,0,92.61,98.6c4.5-5.69,8.72-11.19,12.54-16.34s7.22-9.9,10.41-14.55c1.52-2.22,3-4.43,4.42-6.57l.05-.08a64.6,64.6,0,0,0,4.32-6.72,57.21,57.21,0,0,0-2.56-7.49c-1.15,2.68-2.16,5.28-2.28,7.1C119.08,55.69,116.89,59.28,112.6,65.29Z"/><path class="cls-6" d="M112.6,65.29c-1.56,2.24-3.23,4.55-5.09,7-5.77,7.75-12.84,16.52-21,26.06l-.87,1-1.17,1.07c-2.42,2.21-4.88,4.29-7.51,6.36l-.14.1c-5.89,4.3-11.91,8.74-17.74,13L53,124.48a57.54,57.54,0,0,0,5.9,1.35q4-2.91,8.22-6c5.3-3.93,10.21-7.64,15-11.34A121.87,121.87,0,0,0,92.61,98.6c4.5-5.69,8.72-11.19,12.54-16.34s7.22-9.9,10.41-14.55c1.52-2.22,3-4.43,4.42-6.57l.05-.08a64.6,64.6,0,0,0,4.32-6.72,57.21,57.21,0,0,0-2.56-7.49c-1.15,2.68-2.16,5.28-2.28,7.1C119.08,55.69,116.89,59.28,112.6,65.29Z"/><path class="cls-5" d="M119,64.55c-3.23,4.71-6.78,9.67-10.54,14.73-4,5.34-8.35,11-13,17l-.28.36-.48.52a168.39,168.39,0,0,1-15.13,14.3l-.2.16c-4.87,3.77-9.86,7.54-15.24,11.53l-4,2.93a57.78,57.78,0,0,0,6.44.61c5.56-4.39,11.2-8.94,17-13.72,3.74-3.49,7.56-7.34,11.37-11.46,7.57-9.25,13.88-17.14,19.29-24.12,2-2.56,3.87-5,5.59-7.32q3.32-4.32,6.06-8.06A57.55,57.55,0,0,0,124.78,56c-.41.61-.86,1.24-1.34,1.91C122,60.1,120.53,62.32,119,64.55Z"/><path class="cls-6" d="M119,64.55c-3.23,4.71-6.78,9.67-10.54,14.73-4,5.34-8.35,11-13,17l-.28.36-.48.52a168.39,168.39,0,0,1-15.13,14.3l-.2.16c-4.87,3.77-9.86,7.54-15.24,11.53l-4,2.93a57.78,57.78,0,0,0,6.44.61c5.56-4.39,11.2-8.94,17-13.72,3.74-3.49,7.56-7.34,11.37-11.46,7.57-9.25,13.88-17.14,19.29-24.12,2-2.56,3.87-5,5.59-7.32q3.32-4.32,6.06-8.06A57.55,57.55,0,0,0,124.78,56c-.41.61-.86,1.24-1.34,1.91C122,60.1,120.53,62.32,119,64.55Z"/><path class="cls-5" d="M29.67,65.93C45.22,51.61,56.61,42.59,66.18,35.84a57.27,57.27,0,0,1-9.09,3.9A49.43,49.43,0,0,0,37.5,51.44c-2.18,2-4.55,4.46-7.24,7.46-7.24,8.08-13.12,15-17.94,21,.3,1.6.68,3.2,1.12,4.77a89.75,89.75,0,0,1,9.32-11.89C24.93,70.46,27.25,68.15,29.67,65.93Z"/><path class="cls-6" d="M29.67,65.93C45.22,51.61,56.61,42.59,66.18,35.84a57.27,57.27,0,0,1-9.09,3.9A49.43,49.43,0,0,0,37.5,51.44c-2.18,2-4.55,4.46-7.24,7.46-7.24,8.08-13.12,15-17.94,21,.3,1.6.68,3.2,1.12,4.77a89.75,89.75,0,0,1,9.32-11.89C24.93,70.46,27.25,68.15,29.67,65.93Z"/><path class="cls-5" d="M32.38,69.11C31,70.55,26.07,76,20.37,86.4q-1.76,3.35-3.74,7c.64,1.39,1.36,2.75,2.12,4.1,4-7,10-15.91,19.72-28L39.69,68l1.6-1.31C76.19,38.19,89.4,34.76,99,32.25a18.74,18.74,0,0,1,2.36-.08A9.65,9.65,0,0,1,108,34.64l.42.32a9.64,9.64,0,0,0,.79.57h0l.15.7A20.06,20.06,0,0,1,109.21,47,34.3,34.3,0,0,1,108,50.44c-3,6.74-8.7,17.17-26.17,38.28l-.66.79-1.06,1c-2.77,2.66-5.61,5.16-8.68,7.64l-.1.08c-11.06,8.59-21,15.85-29.6,21.69,1.42.76,2.86,1.44,4.32,2.07Q59.82,112.34,77,99.28c1.9-1.54,3.69-3.05,5.34-4.52C84.72,92,87,89.26,89.09,86.7c2.32-2.83,4.4-5.44,6.34-8,11.81-16.51,18.49-28.64,21-38.17l.26-1,.42-1.52A57.3,57.3,0,0,0,102,22.32c-12.5,4.05-31.21,14-67.77,45A22.37,22.37,0,0,0,32.38,69.11Z"/><path class="cls-6" d="M32.38,69.11C31,70.55,26.07,76,20.37,86.4q-1.76,3.35-3.74,7c.64,1.39,1.36,2.75,2.12,4.1,4-7,10-15.91,19.72-28L39.69,68l1.6-1.31C76.19,38.19,89.4,34.76,99,32.25a18.74,18.74,0,0,1,2.36-.08A9.65,9.65,0,0,1,108,34.64l.42.32a9.64,9.64,0,0,0,.79.57h0l.15.7A20.06,20.06,0,0,1,109.21,47,34.3,34.3,0,0,1,108,50.44c-3,6.74-8.7,17.17-26.17,38.28l-.66.79-1.06,1c-2.77,2.66-5.61,5.16-8.68,7.64l-.1.08c-11.06,8.59-21,15.85-29.6,21.69,1.42.76,2.86,1.44,4.32,2.07Q59.82,112.34,77,99.28c1.9-1.54,3.69-3.05,5.34-4.52C84.72,92,87,89.26,89.09,86.7c2.32-2.83,4.4-5.44,6.34-8,11.81-16.51,18.49-28.64,21-38.17l.26-1,.42-1.52A57.3,57.3,0,0,0,102,22.32c-12.5,4.05-31.21,14-67.77,45A22.37,22.37,0,0,0,32.38,69.11Z"/><path class="cls-5" d="M23,53.42l0,0-4.47,4.85c3-3,6.28-6.27,9.9-9.76C47,30.61,60.59,19.68,71.57,11.81a57.89,57.89,0,0,0-6,0q-2.26,1.8-4.62,3.73Z"/><path class="cls-6" d="M23,53.42l0,0-4.47,4.85c3-3,6.28-6.27,9.9-9.76C47,30.61,60.59,19.68,71.57,11.81a57.89,57.89,0,0,0-6,0q-2.26,1.8-4.62,3.73Z"/><path class="cls-5" d="M78.29,84.67c20-24.55,17-27.9,14.08-31.14a8,8,0,0,1-1.68-2.42,5.41,5.41,0,0,0-.4-.46,3.54,3.54,0,0,0-.78-.6c-1.13-.81-2.94-.88-5.4-.2a24.82,24.82,0,0,0-2.76.88,37.25,37.25,0,0,1-8.89,4c-5.69,1.87-11.06,3.65-25,17.94C33.44,87.22,33.7,90.59,34,94.15a10.61,10.61,0,0,1-1.22,6.45c-.22.65-.48,1.37-.8,2.15A37.16,37.16,0,0,1,29,108.6l6.57,6.57C44.2,110.71,57.24,101.8,73.76,89,75.42,87.52,76.9,86.1,78.29,84.67Zm-7.92-1-.5.43C50.13,100.94,36.5,110,34.28,107.82c-.5-.5-.4-1.57.3-3.18l0,0a64.42,64.42,0,0,1,3.53-5.51c1.09-1.55,2.36-3.29,3.79-5.18,1.31-1.73,2.78-3.64,4.38-5.67,1.62-2.38,4.19-5.48,6.66-8.48,1.28-1.54,2.48-3,3.54-4.34l1.29-1.63,1.63-1.29c2.41-1.91,4.44-3.37,6.4-4.78,1.44-1,2.93-2.11,4.53-3.33l.14-.1c1.58-1.09,3-2,4.34-2.81a35,35,0,0,1,3.46-1.85,9.81,9.81,0,0,1,3.3-1,2.76,2.76,0,0,1,1.9.71c1.54,1.53.68,5.57-2.54,12l-.07.11A76.41,76.41,0,0,1,71,83Z"/><path class="cls-9" d="M78.29,84.67c20-24.55,17-27.9,14.08-31.14a8,8,0,0,1-1.68-2.42,5.41,5.41,0,0,0-.4-.46,3.54,3.54,0,0,0-.78-.6c-1.13-.81-2.94-.88-5.4-.2a24.82,24.82,0,0,0-2.76.88,37.25,37.25,0,0,1-8.89,4c-5.69,1.87-11.06,3.65-25,17.94C33.44,87.22,33.7,90.59,34,94.15a10.61,10.61,0,0,1-1.22,6.45c-.22.65-.48,1.37-.8,2.15A37.16,37.16,0,0,1,29,108.6l6.57,6.57C44.2,110.71,57.24,101.8,73.76,89,75.42,87.52,76.9,86.1,78.29,84.67Zm-7.92-1-.5.43C50.13,100.94,36.5,110,34.28,107.82c-.5-.5-.4-1.57.3-3.18l0,0a64.42,64.42,0,0,1,3.53-5.51c1.09-1.55,2.36-3.29,3.79-5.18,1.31-1.73,2.78-3.64,4.38-5.67,1.62-2.38,4.19-5.48,6.66-8.48,1.28-1.54,2.48-3,3.54-4.34l1.29-1.63,1.63-1.29c2.41-1.91,4.44-3.37,6.4-4.78,1.44-1,2.93-2.11,4.53-3.33l.14-.1c1.58-1.09,3-2,4.34-2.81a35,35,0,0,1,3.46-1.85,9.81,9.81,0,0,1,3.3-1,2.76,2.76,0,0,1,1.9.71c1.54,1.53.68,5.57-2.54,12l-.07.11A76.41,76.41,0,0,1,71,83Z"/><path class="cls-5" d="M77.88,124.06l-2.57,2.26,1-.12L83,119.47C81.29,121,79.57,122.57,77.88,124.06Z"/><path class="cls-6" d="M77.88,124.06l-2.57,2.26,1-.12L83,119.47C81.29,121,79.57,122.57,77.88,124.06Z"/><path class="cls-5" d="M11.39,66.35c-.08,1.71-.09,3.41,0,5.12,5-5.62,11-11.91,18.5-19.1C61.4,22,76.47,15,80.06,18.61a2.94,2.94,0,0,1,.78,1.56v0c0,.18,0,.31,0,.38.49.49,3.58-1.54,8-5.2a57.54,57.54,0,0,0-15.79-3.45C61.83,19.7,47.74,30.51,28,49.57,21.31,56,15.88,61.52,11.39,66.35Z"/><path class="cls-6" d="M11.39,66.35c-.08,1.71-.09,3.41,0,5.12,5-5.62,11-11.91,18.5-19.1C61.4,22,76.47,15,80.06,18.61a2.94,2.94,0,0,1,.78,1.56v0c0,.18,0,.31,0,.38.49.49,3.58-1.54,8-5.2a57.54,57.54,0,0,0-15.79-3.45C61.83,19.7,47.74,30.51,28,49.57,21.31,56,15.88,61.52,11.39,66.35Z"/><path class="cls-5" d="M77.23,24.23a.47.47,0,0,1-.05-.44,2.89,2.89,0,0,0-.77-1.52c-3.47-3.46-17.64,2.91-47,31.2C22,60.57,16.16,66.77,11.4,72.32A57.69,57.69,0,0,0,12.16,79c4.45-5.42,9.68-11.5,15.88-18.42,3.68-4.11,7.26-7.78,10.63-10.9C48.82,40.3,54.55,38.26,60.62,36.1a50.89,50.89,0,0,0,11.25-5.19,205.9,205.9,0,0,0,19.41-14.6q-.84-.35-1.68-.68C82.83,21.46,77.9,24.9,77.23,24.23Z"/><path class="cls-6" d="M77.23,24.23a.47.47,0,0,1-.05-.44,2.89,2.89,0,0,0-.77-1.52c-3.47-3.46-17.64,2.91-47,31.2C22,60.57,16.16,66.77,11.4,72.32A57.69,57.69,0,0,0,12.16,79c4.45-5.42,9.68-11.5,15.88-18.42,3.68-4.11,7.26-7.78,10.63-10.9C48.82,40.3,54.55,38.26,60.62,36.1a50.89,50.89,0,0,0,11.25-5.19,205.9,205.9,0,0,0,19.41-14.6q-.84-.35-1.68-.68C82.83,21.46,77.9,24.9,77.23,24.23Z"/><path class="cls-5" d="M74.12,95.12c2-1.64,3.88-3.24,5.55-4.79,16.39-19.89,21.82-29.89,24.72-36.38a33.71,33.71,0,0,0,1.16-3.43,19.94,19.94,0,0,0,.13-10.66l-.14-.68c-.28-.18-.53-.37-.78-.57l-.42-.32a9.6,9.6,0,0,0-6.54-2.45,18.84,18.84,0,0,0-2.32.08c-9.38,2.44-22.18,5.76-55.13,32.43C29.19,82.41,23.17,91.88,19.67,99.07l.29.46,7.88,7.88c.17-.39.33-.78.47-1.15.32-.79.57-1.49.8-2.15l0,0a10.38,10.38,0,0,0,1.18-6.31C30,94.14,29.74,90.4,46.52,73,64,55,70.12,53,76,51.06a36.41,36.41,0,0,0,8.72-3.89l.11-.06a25.35,25.35,0,0,1,2.84-.91c2.49-.69,4.33-.62,5.48.21a3.58,3.58,0,0,1,.78.6,5.29,5.29,0,0,1,.41.47A7.84,7.84,0,0,0,96,49.88c3,3.32,6.06,6.75-15.09,32.65l-.31.39-.5.53c-2.71,2.85-5.58,5.61-8.54,8.2l-.25.22-.19.15c-14.2,11-25.87,19.22-34.45,24.25l1.8,1.8q1.08.67,2.18,1.29C50.12,113.16,61.35,105,74.12,95.12Z"/><path class="cls-6" d="M74.12,95.12c2-1.64,3.88-3.24,5.55-4.79,16.39-19.89,21.82-29.89,24.72-36.38a33.71,33.71,0,0,0,1.16-3.43,19.94,19.94,0,0,0,.13-10.66l-.14-.68c-.28-.18-.53-.37-.78-.57l-.42-.32a9.6,9.6,0,0,0-6.54-2.45,18.84,18.84,0,0,0-2.32.08c-9.38,2.44-22.18,5.76-55.13,32.43C29.19,82.41,23.17,91.88,19.67,99.07l.29.46,7.88,7.88c.17-.39.33-.78.47-1.15.32-.79.57-1.49.8-2.15l0,0a10.38,10.38,0,0,0,1.18-6.31C30,94.14,29.74,90.4,46.52,73,64,55,70.12,53,76,51.06a36.41,36.41,0,0,0,8.72-3.89l.11-.06a25.35,25.35,0,0,1,2.84-.91c2.49-.69,4.33-.62,5.48.21a3.58,3.58,0,0,1,.78.6,5.29,5.29,0,0,1,.41.47A7.84,7.84,0,0,0,96,49.88c3,3.32,6.06,6.75-15.09,32.65l-.31.39-.5.53c-2.71,2.85-5.58,5.61-8.54,8.2l-.25.22-.19.15c-14.2,11-25.87,19.22-34.45,24.25l1.8,1.8q1.08.67,2.18,1.29C50.12,113.16,61.35,105,74.12,95.12Z"/><path class="cls-5" d="M78,62.28a9.46,9.46,0,0,0-3.17,1A33.61,33.61,0,0,0,71.5,65c-1.23.74-2.61,1.63-4.1,2.65-1.67,1.27-3.18,2.36-4.64,3.41s-2.95,2.12-4.53,3.33l-2.35,2.86c-2.44,3-4.75,5.75-6.18,7.86l-.16.22c-1.59,2-3.05,3.9-4.34,5.62s-2.6,3.49-3.64,5a61.64,61.64,0,0,0-3.34,5.22c-.65,1.53-.74,2.54-.27,3,2.07,2.07,15.23-6.66,33.58-22.27a51,51,0,0,0,5.86-7.16C81.41,66.65,81.62,62.44,78,62.28Z"/><path class="cls-6" d="M78,62.28a9.46,9.46,0,0,0-3.17,1A33.61,33.61,0,0,0,71.5,65c-1.23.74-2.61,1.63-4.1,2.65-1.67,1.27-3.18,2.36-4.64,3.41s-2.95,2.12-4.53,3.33l-2.35,2.86c-2.44,3-4.75,5.75-6.18,7.86l-.16.22c-1.59,2-3.05,3.9-4.34,5.62s-2.6,3.49-3.64,5a61.64,61.64,0,0,0-3.34,5.22c-.65,1.53-.74,2.54-.27,3,2.07,2.07,15.23-6.66,33.58-22.27a51,51,0,0,0,5.86-7.16C81.41,66.65,81.62,62.44,78,62.28Z"/><path class="cls-5" d="M28.37,67.81c-1.42,1.3-2.62,2.49-3.81,3.78A78.48,78.48,0,0,0,13.94,86.39q.82,2.63,1.9,5.2l.94-1.77c6.57-11.94,12.47-18.1,14.41-20.12a70.91,70.91,0,0,1,5.4-5.11C68.65,37.37,87.19,26.06,99.81,20.81c-1.41-.9-2.85-1.75-4.31-2.52-5,3.36-9.59,6.21-14.07,9C67.14,36.14,53.65,44.51,28.37,67.81Z"/><path class="cls-6" d="M28.37,67.81c-1.42,1.3-2.62,2.49-3.81,3.78A78.48,78.48,0,0,0,13.94,86.39q.82,2.63,1.9,5.2l.94-1.77c6.57-11.94,12.47-18.1,14.41-20.12a70.91,70.91,0,0,1,5.4-5.11C68.65,37.37,87.19,26.06,99.81,20.81c-1.41-.9-2.85-1.75-4.31-2.52-5,3.36-9.59,6.21-14.07,9C67.14,36.14,53.65,44.51,28.37,67.81Z"/><path class="cls-5" d="M84.74,23.75c3.11-1.93,6.27-3.89,9.59-6q-1.18-.58-2.38-1.11c-6,5-11.12,9.09-15.42,12.3C79.34,27.1,82,25.42,84.74,23.75Z"/><path class="cls-6" d="M84.74,23.75c3.11-1.93,6.27-3.89,9.59-6q-1.18-.58-2.38-1.11c-6,5-11.12,9.09-15.42,12.3C79.34,27.1,82,25.42,84.74,23.75Z"/><path class="cls-7" d="M81,71.33c3.22-6.43,4.07-10.46,2.54-12a2.76,2.76,0,0,0-1.9-.71,9.81,9.81,0,0,0-3.3,1,35,35,0,0,0-3.46,1.85c-1.31.78-2.77,1.73-4.34,2.81l-.14.1c-1.6,1.22-3.09,2.29-4.53,3.33-2,1.41-4,2.87-6.4,4.78L57.8,73.78l-1.29,1.63c-1.06,1.34-2.27,2.8-3.54,4.34-2.48,3-5,6.1-6.66,8.48-1.6,2-3.07,3.94-4.38,5.67-1.42,1.89-2.7,3.62-3.79,5.18a64.42,64.42,0,0,0-3.53,5.51l0,0c-.69,1.62-.79,2.69-.3,3.18,2.21,2.21,15.85-6.88,35.58-23.72l.5-.43L71,83a76.41,76.41,0,0,0,9.89-11.6ZM71,82.85l-.21.21-.17.14c-19.47,16.62-32.91,25.58-35.1,23.4-.49-.49-.39-1.54.29-3.13A63.2,63.2,0,0,1,39.27,98c1.07-1.52,2.33-3.24,3.74-5.1s2.79-3.65,4.4-5.69c1.56-2.29,4.08-5.35,6.52-8.3,1.3-1.57,2.52-3,3.61-4.42L58,74l.54-.43c2.35-1.86,4.35-3.3,6.29-4.69,1.46-1,3-2.13,4.59-3.37s3-2,4.33-2.81a34.51,34.51,0,0,1,3.41-1.82,9.68,9.68,0,0,1,3.26-1c3.7.16,3.47,4.43-.64,12.64A67.25,67.25,0,0,1,71,82.85Z"/><path class="cls-7" d="M79.19,61.06A9.56,9.56,0,0,0,76,62a34,34,0,0,0-3.36,1.8c-1.27.76-2.69,1.68-4.22,2.73-1.62,1.24-3.14,2.33-4.61,3.39-1.76,1.27-3.58,2.57-5.64,4.19-1,1.27-2.14,2.63-3.23,4C52.51,81,50,84,48.54,86.19l-.05.07c-1.61,2-3.08,3.95-4.39,5.68s-2.63,3.54-3.69,5A62.35,62.35,0,0,0,37,102.32c-.66,1.55-.76,2.58-.28,3.06,2.15,2.15,15.34-6.63,34.45-22.93a58.38,58.38,0,0,0,7.41-8.86C82.63,65.48,82.86,61.22,79.19,61.06ZM77.37,74.73a51,51,0,0,1-5.86,7.16C53.16,97.51,40,106.24,37.93,104.17c-.47-.47-.38-1.48.27-3a61.64,61.64,0,0,1,3.34-5.22c1-1.48,2.27-3.15,3.64-5s2.76-3.6,4.34-5.62l.16-.22c1.43-2.11,3.74-4.9,6.18-7.86l2.35-2.86c1.58-1.21,3-2.25,4.53-3.33s3-2.14,4.64-3.41c1.48-1,2.86-1.91,4.1-2.65a33.61,33.61,0,0,1,3.32-1.77,9.46,9.46,0,0,1,3.17-1C81.62,62.44,81.41,66.65,77.37,74.73Z"/><path class="cls-4" d="M80.39,59.84a9.68,9.68,0,0,0-3.26,1,34.51,34.51,0,0,0-3.41,1.82q-1.93,1.15-4.33,2.81c-1.63,1.25-3.14,2.33-4.59,3.37-1.94,1.39-3.94,2.83-6.29,4.69L58,74l-.43.54c-1.09,1.38-2.31,2.86-3.61,4.42-2.44,3-5,6-6.52,8.3-1.61,2-3.09,4-4.4,5.69S40.35,96.5,39.27,98a63.2,63.2,0,0,0-3.48,5.44c-.68,1.59-.78,2.64-.29,3.13,2.19,2.18,15.63-6.78,35.1-23.4l.17-.14.21-.21a67.25,67.25,0,0,0,8.78-10.37C83.86,64.27,84.09,60,80.39,59.84ZM78.57,73.59a58.38,58.38,0,0,1-7.41,8.86c-19.11,16.3-32.3,25.08-34.45,22.93-.48-.48-.38-1.52.28-3.06A62.35,62.35,0,0,1,40.41,97c1.06-1.5,2.3-3.2,3.69-5s2.78-3.64,4.39-5.68l.05-.07c1.49-2.2,4-5.2,6.36-8.1,1.09-1.32,2.22-2.69,3.23-4C60.2,72.53,62,71.23,63.78,70c1.47-1.06,3-2.15,4.61-3.39,1.53-1.06,2.95-2,4.22-2.73A34,34,0,0,1,76,62a9.56,9.56,0,0,1,3.22-1C82.86,61.22,82.63,65.48,78.57,73.59Z"/><path class="cls-7" d="M29.54,105.09c.32-.78.57-1.5.8-2.15a10.48,10.48,0,0,0,1.2-6.38c-.29-3.71-.57-7.22,15.34-23.72,16.28-16.72,22.21-18.68,28-20.57a36.68,36.68,0,0,0,8.8-3.93,24.54,24.54,0,0,1,2.86-.93c2.48-.69,4.31-.62,5.45.2a3.58,3.58,0,0,1,.78.6,5.26,5.26,0,0,1,.41.46A7.87,7.87,0,0,0,94.8,51.1c3,3.3,6,6.71-14.87,32.28l-.1.13-.17.18c-2.32,2.45-4.83,4.85-7.44,7.14l-.15.12c-15,11.61-27.09,20.06-35.73,25l.34.34c8.58-5,20.25-13.23,34.45-24.25l.19-.15.25-.22c3-2.59,5.83-5.35,8.54-8.2l.5-.53.31-.39C102.08,56.63,99,53.2,96,49.88a7.84,7.84,0,0,1-1.67-2.41,5.29,5.29,0,0,0-.41-.47,3.58,3.58,0,0,0-.78-.6c-1.14-.83-3-.89-5.48-.21a25.35,25.35,0,0,0-2.84.91l-.11.06A36.41,36.41,0,0,1,76,51.06C70.12,53,64,55,46.52,73,29.74,90.4,30,94.14,30.32,97.77a10.38,10.38,0,0,1-1.18,6.31l0,0c-.22.65-.47,1.36-.8,2.15-.14.37-.3.76-.47,1.15l.45.45A29,29,0,0,0,29.54,105.09Z"/><path class="cls-7" d="M79,84.1C99.56,59,96.52,55.59,93.59,52.32a8,8,0,0,1-1.68-2.42,5.33,5.33,0,0,0-.41-.46,3.54,3.54,0,0,0-.78-.6c-1.13-.82-3-.89-5.43-.2a25.1,25.1,0,0,0-2.81.9,36.75,36.75,0,0,1-8.84,4c-5.59,1.84-11.37,3.75-26.45,19.24s-14.73,19-14.44,22.63a10.54,10.54,0,0,1-1.22,6.42c-.22.64-.47,1.36-.8,2.14a33,33,0,0,1-2.06,4.34l.34.34A37.16,37.16,0,0,0,32,102.75c.32-.78.58-1.5.8-2.15A10.61,10.61,0,0,0,34,94.15c-.28-3.56-.55-6.93,13.51-21.51,13.91-14.29,19.28-16.06,25-17.94a37.25,37.25,0,0,0,8.89-4,24.82,24.82,0,0,1,2.76-.88c2.45-.68,4.27-.61,5.4.2a3.54,3.54,0,0,1,.78.6,5.41,5.41,0,0,1,.4.46,8,8,0,0,0,1.68,2.42c2.91,3.24,5.91,6.59-14.08,31.14-1.38,1.43-2.87,2.84-4.53,4.3C57.24,101.8,44.2,110.71,35.6,115.17l.39.38c8.66-4.72,21.24-13.41,37-25.62C75.12,88,77.17,86.07,79,84.1Z"/><path class="cls-4" d="M72.22,90.82c2.61-2.29,5.11-4.69,7.44-7.14l.17-.18.1-.13C100.82,57.8,97.76,54.4,94.8,51.1a7.87,7.87,0,0,1-1.67-2.41,5.26,5.26,0,0,0-.41-.46,3.58,3.58,0,0,0-.78-.6c-1.14-.82-3-.89-5.45-.2a24.54,24.54,0,0,0-2.86.93,36.68,36.68,0,0,1-8.8,3.93c-5.74,1.89-11.68,3.85-28,20.57C31,89.34,31.25,92.85,31.54,96.56a10.48,10.48,0,0,1-1.2,6.38c-.22.65-.48,1.37-.8,2.15a29,29,0,0,1-1.23,2.78l.39.39a33,33,0,0,0,2.06-4.34c.32-.79.58-1.5.8-2.14a10.54,10.54,0,0,0,1.22-6.42c-.29-3.64-.56-7.07,14.44-22.63s20.86-17.4,26.45-19.24a36.75,36.75,0,0,0,8.84-4,25.1,25.1,0,0,1,2.81-.9c2.47-.68,4.29-.61,5.43.2a3.54,3.54,0,0,1,.78.6,5.33,5.33,0,0,1,.41.46,8,8,0,0,0,1.68,2.42C96.52,55.59,99.56,59,79,84.1c-1.88,2-3.92,3.92-6.09,5.83-15.73,12.2-28.31,20.9-37,25.62l.36.36c8.64-4.91,20.78-13.36,35.73-25Z"/><path class="cls-7" d="M80.15,90.09c16.95-20.5,22.51-30.71,25.46-37.31a34,34,0,0,0,1.17-3.45,20,20,0,0,0,.13-10.68l-.14-.69a8.85,8.85,0,0,1-.79-.57l-.42-.32A9.62,9.62,0,0,0,99,34.62a18.8,18.8,0,0,0-2.33.08c-9.52,2.47-22.55,5.86-56.55,33.53-10.83,13.58-17,23.09-20.76,30.33l.32.51c3.5-7.19,9.52-16.67,20.66-30.73,33-26.67,45.76-30,55.13-32.43a18.84,18.84,0,0,1,2.32-.08,9.6,9.6,0,0,1,6.54,2.45l.42.32c.25.19.5.39.78.57l.14.68a19.94,19.94,0,0,1-.13,10.66,33.71,33.71,0,0,1-1.16,3.43c-2.9,6.49-8.34,16.49-24.72,36.38-1.67,1.55-3.53,3.16-5.55,4.79-12.77,9.92-24,18-33.45,24.23l.37.21c9.19-6.09,20-13.94,32.19-23.42C75.7,94.14,78,92.1,80.15,90.09Z"/><path class="cls-7" d="M71.45,98.18c3.07-2.48,5.91-5,8.68-7.64l1.06-1,.66-.79C99.33,67.61,105,57.18,108,50.44A34.3,34.3,0,0,0,109.21,47a20.06,20.06,0,0,0,.13-10.72l-.15-.7h0a9.64,9.64,0,0,1-.79-.57l-.42-.32a9.65,9.65,0,0,0-6.58-2.46,18.74,18.74,0,0,0-2.36.08c-9.65,2.51-22.86,5.94-57.76,34.43L39.69,68l-1.22,1.52c-9.67,12.09-15.76,21-19.72,28L19,98c3.89-7.17,10.1-16.47,20.46-29.41l.41-.51.53-.44C75.09,39.39,88.25,36,97.86,33.47a18.89,18.89,0,0,1,2.34-.08,9.64,9.64,0,0,1,6.56,2.46l.42.32a9.63,9.63,0,0,0,.79.57l.15.7a20,20,0,0,1-.13,10.7,34,34,0,0,1-1.17,3.47c-3,6.69-8.63,17-25.93,37.93l-.22.26-.36.34c-2.5,2.4-5.12,4.7-8,7-11.64,9-22,16.6-30.92,22.58l.35.2c8.63-5.84,18.54-13.1,29.6-21.69Z"/><path class="cls-4" d="M80.31,90.15l.36-.34.22-.26c17.3-20.9,22.94-31.24,25.93-37.93A34,34,0,0,0,108,48.14a20,20,0,0,0,.13-10.7l-.15-.7a9.63,9.63,0,0,1-.79-.57l-.42-.32a9.64,9.64,0,0,0-6.56-2.46,18.89,18.89,0,0,0-2.34.08c-9.61,2.5-22.77,5.91-57.42,34.2l-.53.44-.41.51C29.15,81.55,22.93,90.85,19,98l.31.54c3.74-7.25,9.94-16.76,20.76-30.33,34-27.68,47-31.06,56.55-33.53A18.8,18.8,0,0,1,99,34.62a9.62,9.62,0,0,1,6.55,2.46l.42.32a8.85,8.85,0,0,0,.79.57l.14.69a20,20,0,0,1-.13,10.68,34,34,0,0,1-1.17,3.45c-3,6.61-8.51,16.81-25.46,37.31-2.11,2-4.44,4-6.92,6C61,105.61,50.23,113.46,41,119.55l.36.2c8.92-6,19.29-13.54,30.92-22.58C75.2,94.84,77.81,92.55,80.31,90.15Z"/><path class="cls-7" d="M116.46,40.57c-2.53,9.53-9.21,21.66-21,38.17-1.95,2.53-4,5.13-6.34,8C87,89.26,84.72,92,82.32,94.76c-1.65,1.47-3.44,3-5.34,4.52q-17.16,13-30.91,22.73l.35.15q13.28-9.4,29.66-21.85c2.29-1.85,4.49-3.73,6.51-5.56,2.66-3.08,5.17-6.08,7.49-8.9s4.49-5.56,6.48-8.14c11.86-16.58,18.58-28.77,21.13-38.34l.08-.31c-.2-.33-.41-.66-.62-1l-.42,1.52Z"/><path class="cls-7" d="M32,69.31A90.1,90.1,0,0,0,19.18,87.54q-1.34,2.54-2.8,5.27c.09.2.17.4.26.6q2-3.66,3.74-7C26.07,76,31,70.55,32.38,69.11a22.37,22.37,0,0,1,1.89-1.76c36.56-31,55.26-41,67.77-45l-.78-.55C88.71,26.25,70,36.76,35,66.45A38,38,0,0,0,32,69.31Z"/><path class="cls-7" d="M31.18,69.7c-1.94,2-7.83,8.18-14.41,20.12l-.94,1.77.27.61L18,88.68A91.65,91.65,0,0,1,31.58,69.5a53.7,53.7,0,0,1,4.21-4C69.28,37.1,87.94,26.14,100.53,21.27l-.72-.46C87.19,26.06,68.65,37.37,36.58,64.59A70.91,70.91,0,0,0,31.18,69.7Z"/><path class="cls-7" d="M91.06,85c-2.43,3-5.09,6.12-7.89,9.37l-.28.33-.38.34c-2.31,2.12-4.72,4.18-7.35,6.31q-15.59,11.86-28.39,21l.34.15q12.27-8.76,27-20l.14-.11c2.76-2.23,5.3-4.41,7.78-6.68l1.13-1,.85-1c2.84-3.3,5.54-6.49,8-9.5s4.62-5.71,6.65-8.36l.08-.11C109.2,61.14,115.68,50,118.88,41c-.17-.31-.33-.62-.51-.92-2.89,9.32-9.52,21.05-20.71,36.69C95.62,79.38,93.47,82.08,91.06,85Z"/><path class="cls-4" d="M31.58,69.5A91.65,91.65,0,0,0,18,88.68L16.11,92.2l.26.61q1.46-2.72,2.8-5.27A90.1,90.1,0,0,1,32,69.31a38,38,0,0,1,3-2.86c35-29.68,53.68-40.2,66.23-44.67l-.73-.51C87.94,26.14,69.28,37.1,35.8,65.53A53.7,53.7,0,0,0,31.58,69.5Z"/><path class="cls-4" d="M96.56,77.72c-2,2.58-4.1,5.24-6.48,8.14s-4.83,5.81-7.49,8.9c-2,1.83-4.22,3.71-6.51,5.56q-16.38,12.45-29.66,21.85l.35.15q12.79-9.1,28.39-21c2.63-2.13,5-4.19,7.35-6.31l.38-.34.28-.33C86,91.13,88.63,88,91.06,85s4.56-5.63,6.59-8.28C108.85,61.09,115.48,49.35,118.37,40c-.19-.33-.4-.64-.6-1l-.08.31C115.14,48.95,108.42,61.14,96.56,77.72Z"/><path class="cls-7" d="M119,48.4l0,.05c-1.46,3.35-3,6.81-3.13,9.08-.39,1.61-2.5,5.06-6.64,10.86-1.54,2.21-3.17,4.47-5,6.9-5.39,7.24-11.94,15.37-19.46,24.2-1.54,1.37-3.21,2.76-5,4.14-5.88,4.3-11.89,8.72-17.7,13l-10.2,7.51.35.11,8.85-6.51c5.83-4.29,11.86-8.73,17.75-13C81,103,83.08,101.26,85,99.51c7.87-9.21,14.7-17.69,20.3-25.2,1.82-2.45,3.47-4.72,5-7,4.19-5.86,6.32-9.36,6.72-11,.16-2.28,1.67-5.73,3.12-9.06l1-1.79L121,45l-.67,1.17Z"/><path class="cls-7" d="M76.52,28.9c-3,2.24-5.65,4.08-7.95,5.53-.83.53-1.62,1-2.4,1.42-9.57,6.75-21,15.76-36.51,30.09-2.42,2.22-4.75,4.53-6.92,6.88A89.75,89.75,0,0,0,13.44,84.7c0,.17.09.34.14.51A84.09,84.09,0,0,1,23.36,72.4c1.83-2,3.81-3.95,5.86-5.83,26.21-24.15,40.55-33,54.41-41.64,3.57-2.22,7.22-4.48,11.09-7l-.4-.2c-3.31,2.14-6.48,4.11-9.59,6C82,25.42,79.34,27.1,76.52,28.9Z"/><path class="cls-7" d="M118.28,55.16c-.41,1.68-2.57,5.23-6.81,11.16-1.56,2.24-3.22,4.53-5.06,7-5.72,7.68-12.72,16.36-20.8,25.8l-.29.34-.39.36c-2.25,2-4.56,4-7.06,6-5.94,4.34-12,8.78-17.79,13.07l-7.49,5.51.37.1,6.12-4.5c5.83-4.29,11.85-8.73,17.74-13l.14-.1c2.63-2.07,5.09-4.15,7.51-6.36l1.17-1.07.87-1c8.17-9.54,15.24-18.31,21-26.06,1.85-2.49,3.52-4.8,5.09-7,4.29-6,6.48-9.6,6.9-11.33.13-1.83,1.14-4.42,2.28-7.1l-.35-.8-.05.09C119.94,49.45,118.44,52.89,118.28,55.16Z"/><path class="cls-7" d="M28.79,67.2C27.05,68.79,25.48,70.35,24,72A80.44,80.44,0,0,0,13.74,85.79c.06.2.13.4.2.6A78.48,78.48,0,0,1,24.56,71.58c1.19-1.29,2.39-2.48,3.81-3.78,25.28-23.3,38.77-31.67,53.06-40.52,4.47-2.77,9.06-5.63,14.07-9l-.38-.19c-4.43,2.94-8.55,5.49-12.59,8C68.14,35,54.54,43.46,28.79,67.2Z"/><path class="cls-4" d="M117.06,56.35c-.4,1.65-2.53,5.14-6.72,11-1.56,2.23-3.2,4.51-5,7-5.6,7.51-12.42,16-20.3,25.2-1.93,1.75-4,3.51-6.18,5.21-5.9,4.31-11.92,8.75-17.75,13l-8.85,6.51.36.11,7.49-5.51c5.83-4.29,11.85-8.73,17.79-13.07,2.51-2,4.82-3.93,7.06-6l.39-.36.29-.34c8.08-9.44,15.08-18.12,20.8-25.8,1.84-2.47,3.5-4.76,5.06-7,4.24-5.93,6.4-9.47,6.81-11.16.16-2.27,1.66-5.71,3.1-9l.05-.09-.24-.55-1,1.79C118.72,50.63,117.22,54.08,117.06,56.35Z"/><path class="cls-4" d="M29.22,66.57c-2.06,1.89-4,3.85-5.86,5.83a84.09,84.09,0,0,0-9.78,12.81l.17.58A80.44,80.44,0,0,1,24,72c1.52-1.64,3.09-3.21,4.83-4.8C54.54,43.46,68.14,35,82.53,26.1c4-2.5,8.16-5.06,12.59-8l-.39-.2c-3.87,2.53-7.52,4.8-11.09,7C69.77,33.53,55.43,42.42,29.22,66.57Z"/><path class="cls-7" d="M120,61.14c-1.41,2.15-2.9,4.36-4.42,6.57-3.2,4.65-6.7,9.55-10.41,14.55s-8,10.64-12.54,16.34a121.87,121.87,0,0,1-10.54,9.85c-4.79,3.7-9.69,7.41-15,11.34q-4.22,3.13-8.22,6l.42.07q3.32-2.43,6.8-5c5.35-4,10.3-7.71,15.14-11.45a136.3,136.3,0,0,0,12.22-11.5c4.6-5.81,8.91-11.42,12.81-16.67,3.73-5,7.25-9.94,10.46-14.61,1.53-2.22,3-4.44,4.44-6.6,1.41-2,2.51-3.63,3.38-5.08-.05-.22-.12-.43-.17-.64A64.6,64.6,0,0,1,120,61.06Z"/><path class="cls-7" d="M117.85,65.6c-3.22,4.69-6.75,9.63-10.5,14.67-3.95,5.31-8.31,11-13,16.88l-.09.12-.16.17a153.33,153.33,0,0,1-13.79,13C75.42,114.27,70.45,118,65.08,122l-5.39,4,.41.07,4-2.93c5.39-4,10.37-7.76,15.24-11.53l.2-.16a168.39,168.39,0,0,0,15.13-14.3l.48-.52.28-.36c4.68-5.91,9.06-11.62,13-17,3.76-5.07,7.31-10,10.54-14.73,1.53-2.23,3-4.45,4.45-6.61.48-.67.92-1.3,1.34-1.91,0-.17-.07-.33-.11-.5-.68,1-1.47,2.2-2.38,3.48C120.88,61.14,119.39,63.37,117.85,65.6Z"/><path class="cls-7" d="M60.62,36.1c-6.07,2.16-11.8,4.2-21.94,13.59-3.38,3.13-7,6.79-10.63,10.9-6.2,6.92-11.43,13-15.88,18.42l0,.29c4.58-5.62,10-12,16.57-19.28,3.34-3.73,6.54-7,9.5-9.76,9.52-8.82,15.17-10.83,21.15-13a51.17,51.17,0,0,0,11.33-5.23c5-3.18,11.77-8.26,20.73-15.67l-.23-.1a205.9,205.9,0,0,1-19.41,14.6A50.89,50.89,0,0,1,60.62,36.1Z"/><path class="cls-7" d="M58.26,38.53c-5.63,2-11.46,4.07-20.37,12.33-2.6,2.4-5.33,5.22-8.37,8.61C22.64,67.15,17,73.79,12.27,79.61c0,.1,0,.21.05.31,4.82-6,10.7-12.94,17.94-21,2.69-3,5.06-5.44,7.24-7.46a49.43,49.43,0,0,1,19.58-11.7,57.27,57.27,0,0,0,9.09-3.9c3.67-2.59,7.08-4.85,10.35-6.94,4.3-3.21,9.4-7.27,15.42-12.3l-.22-.1C82.13,24.48,75,29.9,69.68,33.26A51.48,51.48,0,0,1,58.26,38.53Z"/><path class="cls-7" d="M76.52,28.9c-3.27,2.09-6.67,4.35-10.35,6.94.78-.43,1.57-.89,2.4-1.42C70.87,33,73.51,31.15,76.52,28.9Z"/><path class="cls-4" d="M59.44,37.31c-6,2.13-11.63,4.14-21.15,13-3,2.75-6.17,6-9.5,9.76-6.53,7.29-12,13.66-16.57,19.28l.05.31C17,73.79,22.64,67.15,29.52,59.47c3-3.39,5.78-6.21,8.37-8.61,8.91-8.25,14.73-10.32,20.37-12.33a51.48,51.48,0,0,0,11.41-5.28C75,29.9,82.13,24.48,91.73,16.51l-.22-.1c-9,7.41-15.68,12.49-20.73,15.67A51.17,51.17,0,0,1,59.44,37.31Z"/><path class="cls-4" d="M116.7,66.66c-3.21,4.67-6.73,9.59-10.46,14.61-3.9,5.25-8.21,10.86-12.81,16.67a136.3,136.3,0,0,1-12.22,11.5c-4.83,3.74-9.79,7.49-15.14,11.45q-3.48,2.58-6.8,5l.41.07,5.39-4c5.37-4,10.34-7.73,15.26-11.54a153.33,153.33,0,0,0,13.79-13l.16-.17.09-.12c4.66-5.88,9-11.56,13-16.88,3.75-5,7.28-10,10.5-14.67,1.53-2.23,3-4.46,4.44-6.6.91-1.28,1.7-2.43,2.38-3.48,0-.18-.1-.36-.15-.54-.87,1.44-2,3.11-3.38,5.08C119.73,62.22,118.23,64.44,116.7,66.66Z"/><path class="cls-7" d="M78.45,23c-.08-.08-.1-.23,0-.43A2.92,2.92,0,0,0,77.63,21c-3.51-3.51-18,3.07-48.08,32.06C22.14,60.23,16.22,66.46,11.38,72c0,.1,0,.19,0,.29,4.76-5.55,10.61-11.75,18-18.86,29.37-28.29,43.54-34.66,47-31.2a2.89,2.89,0,0,1,.77,1.52.47.47,0,0,0,.05.44c.67.67,5.6-2.76,12.36-8.6l-.21-.08C83.39,20.65,79.06,23.62,78.45,23Z"/><path class="cls-7" d="M80.88,20.58c-.07-.07-.09-.2,0-.38v0a2.94,2.94,0,0,0-.78-1.56C76.47,15,61.4,22,29.86,52.37c-7.47,7.19-13.51,13.48-18.5,19.1,0,.09,0,.19,0,.28,4.91-5.59,10.89-11.85,18.33-19C60.52,23.06,75.3,16.28,78.84,19.83a2.93,2.93,0,0,1,.78,1.55c0,.2,0,.34,0,.42.55.55,4.25-1.94,9.49-6.33l-.23-.09C84.46,19,81.37,21.07,80.88,20.58Z"/><path class="cls-7" d="M114.2,77.36c-5.41,7-11.72,14.87-19.29,24.12-3.81,4.12-7.63,8-11.37,11.46-5.8,4.78-11.44,9.33-17,13.72h.38c5.23-4.15,10.53-8.43,16-12.92,4.24-3.93,8.55-8.28,12.83-12.92,7.67-9.36,14.06-17.34,19.52-24.4,2-2.58,3.89-5.05,5.62-7.36s3.46-4.55,5-6.65l-.05-.43q-2.75,3.75-6.06,8.06C118.07,72.33,116.19,74.79,114.2,77.36Z"/><path class="cls-7" d="M116.33,75.47c-5.51,7.11-11.95,15.16-19.68,24.59l-.18.21c-4.68,5.08-9.41,9.84-14.07,14.17l-.22.2c-5.06,4.17-10,8.17-14.86,12h.38q6.71-5.35,13.65-11.08l.29-.24L82,115c5-4.64,10.08-9.75,15.08-15.17l.33-.35.22-.27c7.76-9.47,14.22-17.55,19.76-24.69,2-2.6,3.93-5.11,5.65-7.4,1-1.34,2-2.63,3-3.89,0-.14,0-.27,0-.41-1.26,1.68-2.57,3.42-4,5.26C120.24,70.39,118.34,72.88,116.33,75.47Z"/><path class="cls-4" d="M115.27,76.41c-5.47,7.06-11.86,15-19.52,24.4-4.28,4.64-8.6,9-12.83,12.92-5.45,4.49-10.75,8.78-16,12.92h.38c4.87-3.87,9.8-7.87,14.86-12l.22-.2c4.66-4.32,9.4-9.09,14.07-14.17l.18-.21c7.73-9.44,14.17-17.48,19.68-24.59,2-2.59,3.91-5.08,5.64-7.39,1.41-1.83,2.72-3.58,4-5.26,0-.14,0-.28-.05-.42-1.55,2.1-3.21,4.3-5,6.65S117.26,73.84,115.27,76.41Z"/><path class="cls-4" d="M79.66,21.79c-.08-.08-.09-.21,0-.42a2.93,2.93,0,0,0-.78-1.55c-3.55-3.55-18.32,3.24-49.14,32.91-7.45,7.16-13.42,13.42-18.33,19,0,.09,0,.19,0,.28,4.84-5.57,10.75-11.8,18.17-18.93,30.1-29,44.57-35.56,48.08-32.06a2.92,2.92,0,0,1,.77,1.53c0,.21,0,.35,0,.43.61.61,4.94-2.36,10.93-7.46l-.22-.08C83.91,19.86,80.21,22.34,79.66,21.79Z"/><path class="cls-7" d="M90.74,111.76l2.43-2.43,1.26-1.39C107,94,117.47,81.68,126.29,70.49c0-.14,0-.28,0-.42-8.94,11.44-19.67,24.08-32.58,38.4C92.71,109.61,91.72,110.7,90.74,111.76Z"/><path class="cls-7" d="M18.51,58.28l-.2.22-.27.26q-3.57,3.61-6.6,6.82c0,.08,0,.16,0,.23C16,60.91,21.57,55.34,28.27,48.88c18.95-18.29,32.72-29.2,43.8-37l-.5,0c-11,7.86-24.59,18.8-43.15,36.71C24.8,52,21.52,55.25,18.51,58.28Z"/><path class="cls-7" d="M11.41,66.08c0,.09,0,.18,0,.27C15.88,61.52,21.31,56,28,49.57,47.74,30.51,61.83,19.7,73.14,11.92l-.54,0C61.4,19.69,47.47,30.56,28.13,49.23,21.44,55.68,16,61.22,11.41,66.08Z"/><path class="cls-7" d="M87.72,114.55c-2.72,2.46-5.41,4.87-8,7.17q-2.71,2.4-5.39,4.72l.34,0,4.44-3.9c2.8-2.48,5.7-5.08,8.63-7.73C89.43,113,91.16,111.08,93,109c13.3-14.76,24.26-27.71,33.33-39.39,0-.15,0-.3,0-.44-9.19,11.93-20.37,25.19-34.09,40.42C90.68,111.34,89.17,113,87.72,114.55Z"/><path class="cls-7" d="M78.49,123.28,75,126.36l.32,0,2.57-2.26c1.68-1.49,3.41-3,5.15-4.59l2.39-2.39C83.07,119.2,80.75,121.29,78.49,123.28Z"/><path class="cls-4" d="M87.73,114.77c-2.93,2.65-5.83,5.25-8.63,7.73l-4.44,3.9.33,0,3.5-3.08c2.25-2,4.58-4.08,6.93-6.2l5.32-5.32c1-1.06,2-2.16,3-3.29,12.91-14.33,23.63-27,32.58-38.4,0-.15,0-.29,0-.44C117.24,81.32,106.29,94.27,93,109,91.16,111.08,89.43,113,87.73,114.77Z"/><path class="cls-4" d="M11.43,65.81c0,.09,0,.18,0,.27,4.56-4.86,10-10.4,16.72-16.85C47.47,30.56,61.4,19.69,72.59,11.89l-.52,0c-11.08,7.83-24.85,18.74-43.8,37C21.57,55.34,16,60.91,11.43,65.81Z"/><path class="cls-7" d="M64.77,11.91h-.1l-.4.4Z"/><path class="cls-7" d="M61,15.58q2.36-1.93,4.62-3.73l-.42,0-2.55,2.06Z"/><path class="cls-7" d="M124.54,78l1.32-1.61.05-.43-3,3.66Z"/><path class="cls-4" d="M125.82,76.7l0-.33L124.54,78Z"/><path class="cls-4" d="M62.63,13.94l2.55-2.06-.41,0-.5.41Z"/><ellipse class="cls-10" cx="68.82" cy="69.23" rx="50.71" ry="50.69"/><ellipse class="cls-11" cx="68.82" cy="69.23" rx="48.94" ry="48.92"/><path class="cls-11" d="M35.33,101.05c-.16-3.4-.31-6.81-.44-10.21q-.07-1.7-.12-3.41C34.22,68,35.21,49.08,39.59,30a49.19,49.19,0,0,0-4.48,3.79l0,.34q-.23,1.33-.47,2.67-.32,1.78-.67,3.55A351.05,351.05,0,0,1,22.37,84.66a48.94,48.94,0,0,0,13.13,20.4c0-.35,0-.7-.06-1.05Q35.36,102.53,35.33,101.05Z"/><path class="cls-12" d="M35.33,101.05c-.16-3.4-.31-6.81-.44-10.21q-.07-1.7-.12-3.41C34.22,68,35.21,49.08,39.59,30a49.19,49.19,0,0,0-4.48,3.79l0,.34q-.23,1.33-.47,2.67-.32,1.78-.67,3.55A351.05,351.05,0,0,1,22.37,84.66a48.94,48.94,0,0,0,13.13,20.4c0-.35,0-.7-.06-1.05Q35.36,102.53,35.33,101.05Z"/><path class="cls-13" d="M35.33,101.05c-.16-3.4-.31-6.81-.44-10.21q-.07-1.7-.12-3.41C34.22,68,35.21,49.08,39.59,30a49.19,49.19,0,0,0-4.48,3.79l0,.34q-.23,1.33-.47,2.67-.32,1.78-.67,3.55A351.05,351.05,0,0,1,22.37,84.66a48.94,48.94,0,0,0,13.13,20.4c0-.35,0-.7-.06-1.05Q35.36,102.53,35.33,101.05Z"/><path class="cls-14" d="M35.33,101.05c-.16-3.4-.31-6.81-.44-10.21q-.07-1.7-.12-3.41C34.22,68,35.21,49.08,39.59,30a49.19,49.19,0,0,0-4.48,3.79l0,.34q-.23,1.33-.47,2.67-.32,1.78-.67,3.55A351.05,351.05,0,0,1,22.37,84.66a48.94,48.94,0,0,0,13.13,20.4c0-.35,0-.7-.06-1.05Q35.36,102.53,35.33,101.05Z"/><path class="cls-15" d="M35.33,101.05c-.16-3.4-.31-6.81-.44-10.21q-.07-1.7-.12-3.41C34.22,68,35.21,49.08,39.59,30a49.19,49.19,0,0,0-4.48,3.79l0,.34q-.23,1.33-.47,2.67-.32,1.78-.67,3.55A351.05,351.05,0,0,1,22.37,84.66a48.94,48.94,0,0,0,13.13,20.4c0-.35,0-.7-.06-1.05Q35.36,102.53,35.33,101.05Z"/><path class="cls-15" d="M35.33,101.05c-.16-3.4-.31-6.81-.44-10.21q-.07-1.7-.12-3.41C34.22,68,35.21,49.08,39.59,30a49.19,49.19,0,0,0-4.48,3.79l0,.34q-.23,1.33-.47,2.67-.32,1.78-.67,3.55A351.05,351.05,0,0,1,22.37,84.66a48.94,48.94,0,0,0,13.13,20.4c0-.35,0-.7-.06-1.05Q35.36,102.53,35.33,101.05Z"/><path class="cls-11" d="M57.33,21.67a48.57,48.57,0,0,0-8.95,3.1c-4.54,18.82-5.6,38-5.49,57,0,1.29.07,2.5.12,3.73.37,5.7.91,11.37,1.6,17,.14,1.12.28,2.24.42,3.38.17,2.16.36,4.31.57,6.46q2,1.07,4.05,2C44.29,83.21,44.62,51.58,57.33,21.67Z"/><path class="cls-16" d="M57.33,21.67a48.57,48.57,0,0,0-8.95,3.1c-4.54,18.82-5.6,38-5.49,57,0,1.29.07,2.5.12,3.73.37,5.7.91,11.37,1.6,17,.14,1.12.28,2.24.42,3.38.17,2.16.36,4.31.57,6.46q2,1.07,4.05,2C44.29,83.21,44.62,51.58,57.33,21.67Z"/><path class="cls-17" d="M57.33,21.67a48.57,48.57,0,0,0-8.95,3.1c-4.54,18.82-5.6,38-5.49,57,0,1.29.07,2.5.12,3.73.37,5.7.91,11.37,1.6,17,.14,1.12.28,2.24.42,3.38.17,2.16.36,4.31.57,6.46q2,1.07,4.05,2C44.29,83.21,44.62,51.58,57.33,21.67Z"/><path class="cls-18" d="M57.33,21.67a48.57,48.57,0,0,0-8.95,3.1c-4.54,18.82-5.6,38-5.49,57,0,1.29.07,2.5.12,3.73.37,5.7.91,11.37,1.6,17,.14,1.12.28,2.24.42,3.38.17,2.16.36,4.31.57,6.46q2,1.07,4.05,2C44.29,83.21,44.62,51.58,57.33,21.67Z"/><path class="cls-15" d="M57.33,21.67a48.57,48.57,0,0,0-8.95,3.1c-4.54,18.82-5.6,38-5.49,57,0,1.29.07,2.5.12,3.73.37,5.7.91,11.37,1.6,17,.14,1.12.28,2.24.42,3.38.17,2.16.36,4.31.57,6.46q2,1.07,4.05,2C44.29,83.21,44.62,51.58,57.33,21.67Z"/><path class="cls-15" d="M57.33,21.67a48.57,48.57,0,0,0-8.95,3.1c-4.54,18.82-5.6,38-5.49,57,0,1.29.07,2.5.12,3.73.37,5.7.91,11.37,1.6,17,.14,1.12.28,2.24.42,3.38.17,2.16.36,4.31.57,6.46q2,1.07,4.05,2C44.29,83.21,44.62,51.58,57.33,21.67Z"/><path class="cls-11" d="M99.19,92a55.32,55.32,0,0,1-2.62-15.19q-.06-1.47-.05-2.94A47.79,47.79,0,0,1,97.2,66c.15-.87.33-1.73.54-2.6,1.86-6.45,5.12-14.94,13-19.39a49.18,49.18,0,0,0-12.6-13.95,38.76,38.76,0,0,0-8.63,10.4q-1,1.53-1.94,3.09a57.25,57.25,0,0,0-7.39,30.17q0,1.82.17,3.64c.38,10.9,2.6,22.05,8.45,32.39q.8,1.41,1.69,2.8c.06.14.14.27.21.41a49.08,49.08,0,0,0,13.47-10c-1.39-2.61-2.68-5.25-3.91-7.9C99.87,94.05,99.52,93,99.19,92Z"/><path class="cls-19" d="M99.19,92a55.32,55.32,0,0,1-2.62-15.19q-.06-1.47-.05-2.94A47.79,47.79,0,0,1,97.2,66c.15-.87.33-1.73.54-2.6,1.86-6.45,5.12-14.94,13-19.39a49.18,49.18,0,0,0-12.6-13.95,38.76,38.76,0,0,0-8.63,10.4q-1,1.53-1.94,3.09a57.25,57.25,0,0,0-7.39,30.17q0,1.82.17,3.64c.38,10.9,2.6,22.05,8.45,32.39q.8,1.41,1.69,2.8c.06.14.14.27.21.41a49.08,49.08,0,0,0,13.47-10c-1.39-2.61-2.68-5.25-3.91-7.9C99.87,94.05,99.52,93,99.19,92Z"/><path class="cls-20" d="M99.19,92a55.32,55.32,0,0,1-2.62-15.19q-.06-1.47-.05-2.94A47.79,47.79,0,0,1,97.2,66c.15-.87.33-1.73.54-2.6,1.86-6.45,5.12-14.94,13-19.39a49.18,49.18,0,0,0-12.6-13.95,38.76,38.76,0,0,0-8.63,10.4q-1,1.53-1.94,3.09a57.25,57.25,0,0,0-7.39,30.17q0,1.82.17,3.64c.38,10.9,2.6,22.05,8.45,32.39q.8,1.41,1.69,2.8c.06.14.14.27.21.41a49.08,49.08,0,0,0,13.47-10c-1.39-2.61-2.68-5.25-3.91-7.9C99.87,94.05,99.52,93,99.19,92Z"/><path class="cls-21" d="M99.19,92a55.32,55.32,0,0,1-2.62-15.19q-.06-1.47-.05-2.94A47.79,47.79,0,0,1,97.2,66c.15-.87.33-1.73.54-2.6,1.86-6.45,5.12-14.94,13-19.39a49.18,49.18,0,0,0-12.6-13.95,38.76,38.76,0,0,0-8.63,10.4q-1,1.53-1.94,3.09a57.25,57.25,0,0,0-7.39,30.17q0,1.82.17,3.64c.38,10.9,2.6,22.05,8.45,32.39q.8,1.41,1.69,2.8c.06.14.14.27.21.41a49.08,49.08,0,0,0,13.47-10c-1.39-2.61-2.68-5.25-3.91-7.9C99.87,94.05,99.52,93,99.19,92Z"/><path class="cls-15" d="M99.19,92a55.32,55.32,0,0,1-2.62-15.19q-.06-1.47-.05-2.94A47.79,47.79,0,0,1,97.2,66c.15-.87.33-1.73.54-2.6,1.86-6.45,5.12-14.94,13-19.39a49.18,49.18,0,0,0-12.6-13.95,38.76,38.76,0,0,0-8.63,10.4q-1,1.53-1.94,3.09a57.25,57.25,0,0,0-7.39,30.17q0,1.82.17,3.64c.38,10.9,2.6,22.05,8.45,32.39q.8,1.41,1.69,2.8c.06.14.14.27.21.41a49.08,49.08,0,0,0,13.47-10c-1.39-2.61-2.68-5.25-3.91-7.9C99.87,94.05,99.52,93,99.19,92Z"/><path class="cls-15" d="M99.19,92a55.32,55.32,0,0,1-2.62-15.19q-.06-1.47-.05-2.94A47.79,47.79,0,0,1,97.2,66c.15-.87.33-1.73.54-2.6,1.86-6.45,5.12-14.94,13-19.39a49.18,49.18,0,0,0-12.6-13.95,38.76,38.76,0,0,0-8.63,10.4q-1,1.53-1.94,3.09a57.25,57.25,0,0,0-7.39,30.17q0,1.82.17,3.64c.38,10.9,2.6,22.05,8.45,32.39q.8,1.41,1.69,2.8c.06.14.14.27.21.41a49.08,49.08,0,0,0,13.47-10c-1.39-2.61-2.68-5.25-3.91-7.9C99.87,94.05,99.52,93,99.19,92Z"/><path class="cls-11" d="M60.19,109.58C54.71,84.06,55.77,58,65.3,33.35l.82-2q2.48-5.55,5.5-11c-.93-.05-1.86-.09-2.8-.09-1.31,0-2.61.07-3.9.17C51.16,40.9,50.63,63.11,50.93,85c.07.79.15,1.59.23,2.44a145,145,0,0,0,5.06,29A48.73,48.73,0,0,0,62,117.67c-.34-1.49-.69-3-1-4.48C60.7,111.95,60.44,110.77,60.19,109.58Z"/><path class="cls-22" d="M60.19,109.58C54.71,84.06,55.77,58,65.3,33.35l.82-2q2.48-5.55,5.5-11c-.93-.05-1.86-.09-2.8-.09-1.31,0-2.61.07-3.9.17C51.16,40.9,50.63,63.11,50.93,85c.07.79.15,1.59.23,2.44a145,145,0,0,0,5.06,29A48.73,48.73,0,0,0,62,117.67c-.34-1.49-.69-3-1-4.48C60.7,111.95,60.44,110.77,60.19,109.58Z"/><path class="cls-23" d="M60.19,109.58C54.71,84.06,55.77,58,65.3,33.35l.82-2q2.48-5.55,5.5-11c-.93-.05-1.86-.09-2.8-.09-1.31,0-2.61.07-3.9.17C51.16,40.9,50.63,63.11,50.93,85c.07.79.15,1.59.23,2.44a145,145,0,0,0,5.06,29A48.73,48.73,0,0,0,62,117.67c-.34-1.49-.69-3-1-4.48C60.7,111.95,60.44,110.77,60.19,109.58Z"/><path class="cls-24" d="M60.19,109.58C54.71,84.06,55.77,58,65.3,33.35l.82-2q2.48-5.55,5.5-11c-.93-.05-1.86-.09-2.8-.09-1.31,0-2.61.07-3.9.17C51.16,40.9,50.63,63.11,50.93,85c.07.79.15,1.59.23,2.44a145,145,0,0,0,5.06,29A48.73,48.73,0,0,0,62,117.67c-.34-1.49-.69-3-1-4.48C60.7,111.95,60.44,110.77,60.19,109.58Z"/><path class="cls-15" d="M60.19,109.58C54.71,84.06,55.77,58,65.3,33.35l.82-2q2.48-5.55,5.5-11c-.93-.05-1.86-.09-2.8-.09-1.31,0-2.61.07-3.9.17C51.16,40.9,50.63,63.11,50.93,85c.07.79.15,1.59.23,2.44a145,145,0,0,0,5.06,29A48.73,48.73,0,0,0,62,117.67c-.34-1.49-.69-3-1-4.48C60.7,111.95,60.44,110.77,60.19,109.58Z"/><path class="cls-15" d="M60.19,109.58C54.71,84.06,55.77,58,65.3,33.35l.82-2q2.48-5.55,5.5-11c-.93-.05-1.86-.09-2.8-.09-1.31,0-2.61.07-3.9.17C51.16,40.9,50.63,63.11,50.93,85c.07.79.15,1.59.23,2.44a145,145,0,0,0,5.06,29A48.73,48.73,0,0,0,62,117.67c-.34-1.49-.69-3-1-4.48C60.7,111.95,60.44,110.77,60.19,109.58Z"/><path class="cls-11" d="M73.39,76.32q-.06-1.72,0-3.43a65.75,65.75,0,0,1,8.22-31.33q.82-1.49,1.73-3a48.43,48.43,0,0,1,9.07-12.28A48.62,48.62,0,0,0,75.5,20.77a83.89,83.89,0,0,0-7.33,17q-.53,1.74-1,3.49c-5.82,22.12-3,44.85,2.3,67.09.27,1.18.55,2.35.85,3.59.48,2,1,4.07,1.49,6.1a48.75,48.75,0,0,0,12.63-2.46c-.49-.84-1-1.67-1.43-2.52C76.7,101.25,73.28,88.77,73.39,76.32Z"/><path class="cls-25" d="M73.39,76.32q-.06-1.72,0-3.43a65.75,65.75,0,0,1,8.22-31.33q.82-1.49,1.73-3a48.43,48.43,0,0,1,9.07-12.28A48.62,48.62,0,0,0,75.5,20.77a83.89,83.89,0,0,0-7.33,17q-.53,1.74-1,3.49c-5.82,22.12-3,44.85,2.3,67.09.27,1.18.55,2.35.85,3.59.48,2,1,4.07,1.49,6.1a48.75,48.75,0,0,0,12.63-2.46c-.49-.84-1-1.67-1.43-2.52C76.7,101.25,73.28,88.77,73.39,76.32Z"/><path class="cls-26" d="M73.39,76.32q-.06-1.72,0-3.43a65.75,65.75,0,0,1,8.22-31.33q.82-1.49,1.73-3a48.43,48.43,0,0,1,9.07-12.28A48.62,48.62,0,0,0,75.5,20.77a83.89,83.89,0,0,0-7.33,17q-.53,1.74-1,3.49c-5.82,22.12-3,44.85,2.3,67.09.27,1.18.55,2.35.85,3.59.48,2,1,4.07,1.49,6.1a48.75,48.75,0,0,0,12.63-2.46c-.49-.84-1-1.67-1.43-2.52C76.7,101.25,73.28,88.77,73.39,76.32Z"/><path class="cls-27" d="M73.39,76.32q-.06-1.72,0-3.43a65.75,65.75,0,0,1,8.22-31.33q.82-1.49,1.73-3a48.43,48.43,0,0,1,9.07-12.28A48.62,48.62,0,0,0,75.5,20.77a83.89,83.89,0,0,0-7.33,17q-.53,1.74-1,3.49c-5.82,22.12-3,44.85,2.3,67.09.27,1.18.55,2.35.85,3.59.48,2,1,4.07,1.49,6.1a48.75,48.75,0,0,0,12.63-2.46c-.49-.84-1-1.67-1.43-2.52C76.7,101.25,73.28,88.77,73.39,76.32Z"/><path class="cls-15" d="M73.39,76.32q-.06-1.72,0-3.43a65.75,65.75,0,0,1,8.22-31.33q.82-1.49,1.73-3a48.43,48.43,0,0,1,9.07-12.28A48.62,48.62,0,0,0,75.5,20.77a83.89,83.89,0,0,0-7.33,17q-.53,1.74-1,3.49c-5.82,22.12-3,44.85,2.3,67.09.27,1.18.55,2.35.85,3.59.48,2,1,4.07,1.49,6.1a48.75,48.75,0,0,0,12.63-2.46c-.49-.84-1-1.67-1.43-2.52C76.7,101.25,73.28,88.77,73.39,76.32Z"/><path class="cls-15" d="M73.39,76.32q-.06-1.72,0-3.43a65.75,65.75,0,0,1,8.22-31.33q.82-1.49,1.73-3a48.43,48.43,0,0,1,9.07-12.28A48.62,48.62,0,0,0,75.5,20.77a83.89,83.89,0,0,0-7.33,17q-.53,1.74-1,3.49c-5.82,22.12-3,44.85,2.3,67.09.27,1.18.55,2.35.85,3.59.48,2,1,4.07,1.49,6.1a48.75,48.75,0,0,0,12.63-2.46c-.49-.84-1-1.67-1.43-2.52C76.7,101.25,73.28,88.77,73.39,76.32Z"/><path class="cls-11" d="M19.87,69.23a49.42,49.42,0,0,0,.29,5.28,181.16,181.16,0,0,0,8.21-32.82A48.68,48.68,0,0,0,19.87,69.23Z"/><path class="cls-28" d="M19.87,69.23a49.42,49.42,0,0,0,.29,5.28,181.16,181.16,0,0,0,8.21-32.82A48.68,48.68,0,0,0,19.87,69.23Z"/><path class="cls-29" d="M19.87,69.23a49.42,49.42,0,0,0,.29,5.28,181.16,181.16,0,0,0,8.21-32.82A48.68,48.68,0,0,0,19.87,69.23Z"/><path class="cls-30" d="M19.87,69.23a49.42,49.42,0,0,0,.29,5.28,181.16,181.16,0,0,0,8.21-32.82A48.68,48.68,0,0,0,19.87,69.23Z"/><path class="cls-15" d="M19.87,69.23a49.42,49.42,0,0,0,.29,5.28,181.16,181.16,0,0,0,8.21-32.82A48.68,48.68,0,0,0,19.87,69.23Z"/><path class="cls-15" d="M19.87,69.23a49.42,49.42,0,0,0,.29,5.28,181.16,181.16,0,0,0,8.21-32.82A48.68,48.68,0,0,0,19.87,69.23Z"/><path class="cls-11" d="M114.05,50.53c-4.86,4.58-6.59,10-7.68,15.38q-.31,1.47-.5,3a37.38,37.38,0,0,0-.27,6c0,1.09.12,2.19.25,3.29a42.81,42.81,0,0,0,2.29,10c.4,1.12.84,2.23,1.34,3.38q.61,1.45,1.3,2.88a48.63,48.63,0,0,0,5.31-12.52,22.77,22.77,0,0,1,1.4-11.11c.07-.11.16-.21.24-.31,0-.41,0-.83,0-1.24A48.75,48.75,0,0,0,114.05,50.53Z"/><path class="cls-31" d="M114.05,50.53c-4.86,4.58-6.59,10-7.68,15.38q-.31,1.47-.5,3a37.38,37.38,0,0,0-.27,6c0,1.09.12,2.19.25,3.29a42.81,42.81,0,0,0,2.29,10c.4,1.12.84,2.23,1.34,3.38q.61,1.45,1.3,2.88a48.63,48.63,0,0,0,5.31-12.52,22.77,22.77,0,0,1,1.4-11.11c.07-.11.16-.21.24-.31,0-.41,0-.83,0-1.24A48.75,48.75,0,0,0,114.05,50.53Z"/><path class="cls-32" d="M114.05,50.53c-4.86,4.58-6.59,10-7.68,15.38q-.31,1.47-.5,3a37.38,37.38,0,0,0-.27,6c0,1.09.12,2.19.25,3.29a42.81,42.81,0,0,0,2.29,10c.4,1.12.84,2.23,1.34,3.38q.61,1.45,1.3,2.88a48.63,48.63,0,0,0,5.31-12.52,22.77,22.77,0,0,1,1.4-11.11c.07-.11.16-.21.24-.31,0-.41,0-.83,0-1.24A48.75,48.75,0,0,0,114.05,50.53Z"/><path class="cls-33" d="M114.05,50.53c-4.86,4.58-6.59,10-7.68,15.38q-.31,1.47-.5,3a37.38,37.38,0,0,0-.27,6c0,1.09.12,2.19.25,3.29a42.81,42.81,0,0,0,2.29,10c.4,1.12.84,2.23,1.34,3.38q.61,1.45,1.3,2.88a48.63,48.63,0,0,0,5.31-12.52,22.77,22.77,0,0,1,1.4-11.11c.07-.11.16-.21.24-.31,0-.41,0-.83,0-1.24A48.75,48.75,0,0,0,114.05,50.53Z"/><path class="cls-15" d="M114.05,50.53c-4.86,4.58-6.59,10-7.68,15.38q-.31,1.47-.5,3a37.38,37.38,0,0,0-.27,6c0,1.09.12,2.19.25,3.29a42.81,42.81,0,0,0,2.29,10c.4,1.12.84,2.23,1.34,3.38q.61,1.45,1.3,2.88a48.63,48.63,0,0,0,5.31-12.52,22.77,22.77,0,0,1,1.4-11.11c.07-.11.16-.21.24-.31,0-.41,0-.83,0-1.24A48.75,48.75,0,0,0,114.05,50.53Z"/><path class="cls-15" d="M114.05,50.53c-4.86,4.58-6.59,10-7.68,15.38q-.31,1.47-.5,3a37.38,37.38,0,0,0-.27,6c0,1.09.12,2.19.25,3.29a42.81,42.81,0,0,0,2.29,10c.4,1.12.84,2.23,1.34,3.38q.61,1.45,1.3,2.88a48.63,48.63,0,0,0,5.31-12.52,22.77,22.77,0,0,1,1.4-11.11c.07-.11.16-.21.24-.31,0-.41,0-.83,0-1.24A48.75,48.75,0,0,0,114.05,50.53Z"/><path class="cls-11" d="M116.1,81.89a48.9,48.9,0,0,0,1.63-11.42c-.08.11-.16.21-.24.31A22.77,22.77,0,0,0,116.1,81.89Z"/><path class="cls-34" d="M116.1,81.89a48.9,48.9,0,0,0,1.63-11.42c-.08.11-.16.21-.24.31A22.77,22.77,0,0,0,116.1,81.89Z"/><path class="cls-34" d="M116.1,81.89a48.9,48.9,0,0,0,1.63-11.42c-.08.11-.16.21-.24.31A22.77,22.77,0,0,0,116.1,81.89Z"/><path class="cls-35" d="M116.1,81.89a48.9,48.9,0,0,0,1.63-11.42c-.08.11-.16.21-.24.31A22.77,22.77,0,0,0,116.1,81.89Z"/><path class="cls-36" d="M116.1,81.89a48.9,48.9,0,0,0,1.63-11.42c-.08.11-.16.21-.24.31A22.77,22.77,0,0,0,116.1,81.89Z"/><path class="cls-37" d="M116.1,81.89a48.9,48.9,0,0,0,1.63-11.42c-.08.11-.16.21-.24.31A22.77,22.77,0,0,0,116.1,81.89Z"/><path class="cls-15" d="M116.1,81.89a48.9,48.9,0,0,0,1.63-11.42c-.08.11-.16.21-.24.31A22.77,22.77,0,0,0,116.1,81.89Z"/><path class="cls-15" d="M116.1,81.89a48.9,48.9,0,0,0,1.63-11.42c-.08.11-.16.21-.24.31A22.77,22.77,0,0,0,116.1,81.89Z"/><path class="cls-11" d="M108.14,88.15a42.81,42.81,0,0,1-2.29-10c-.13-1.1-.21-2.2-.25-3.29a37.38,37.38,0,0,1,.27-6q.19-1.48.5-3c1.08-5.42,2.81-10.8,7.68-15.38A48.74,48.74,0,0,0,110.77,44c-7.91,4.45-11.17,12.94-13,19.39-.21.87-.39,1.73-.54,2.6a47.79,47.79,0,0,0-.69,7.86q0,1.47.05,2.94A55.32,55.32,0,0,0,99.19,92c.33,1,.69,2,1.1,3.11,1.24,2.65,2.52,5.29,3.91,7.9a49.1,49.1,0,0,0,6.59-8.61q-.69-1.42-1.3-2.88C109,90.38,108.54,89.27,108.14,88.15Z"/><path class="cls-34" d="M108.14,88.15a42.81,42.81,0,0,1-2.29-10c-.13-1.1-.21-2.2-.25-3.29a37.38,37.38,0,0,1,.27-6q.19-1.48.5-3c1.08-5.42,2.81-10.8,7.68-15.38A48.74,48.74,0,0,0,110.77,44c-7.91,4.45-11.17,12.94-13,19.39-.21.87-.39,1.73-.54,2.6a47.79,47.79,0,0,0-.69,7.86q0,1.47.05,2.94A55.32,55.32,0,0,0,99.19,92c.33,1,.69,2,1.1,3.11,1.24,2.65,2.52,5.29,3.91,7.9a49.1,49.1,0,0,0,6.59-8.61q-.69-1.42-1.3-2.88C109,90.38,108.54,89.27,108.14,88.15Z"/><path class="cls-34" d="M108.14,88.15a42.81,42.81,0,0,1-2.29-10c-.13-1.1-.21-2.2-.25-3.29a37.38,37.38,0,0,1,.27-6q.19-1.48.5-3c1.08-5.42,2.81-10.8,7.68-15.38A48.74,48.74,0,0,0,110.77,44c-7.91,4.45-11.17,12.94-13,19.39-.21.87-.39,1.73-.54,2.6a47.79,47.79,0,0,0-.69,7.86q0,1.47.05,2.94A55.32,55.32,0,0,0,99.19,92c.33,1,.69,2,1.1,3.11,1.24,2.65,2.52,5.29,3.91,7.9a49.1,49.1,0,0,0,6.59-8.61q-.69-1.42-1.3-2.88C109,90.38,108.54,89.27,108.14,88.15Z"/><path class="cls-38" d="M108.14,88.15a42.81,42.81,0,0,1-2.29-10c-.13-1.1-.21-2.2-.25-3.29a37.38,37.38,0,0,1,.27-6q.19-1.48.5-3c1.08-5.42,2.81-10.8,7.68-15.38A48.74,48.74,0,0,0,110.77,44c-7.91,4.45-11.17,12.94-13,19.39-.21.87-.39,1.73-.54,2.6a47.79,47.79,0,0,0-.69,7.86q0,1.47.05,2.94A55.32,55.32,0,0,0,99.19,92c.33,1,.69,2,1.1,3.11,1.24,2.65,2.52,5.29,3.91,7.9a49.1,49.1,0,0,0,6.59-8.61q-.69-1.42-1.3-2.88C109,90.38,108.54,89.27,108.14,88.15Z"/><path class="cls-39" d="M108.14,88.15a42.81,42.81,0,0,1-2.29-10c-.13-1.1-.21-2.2-.25-3.29a37.38,37.38,0,0,1,.27-6q.19-1.48.5-3c1.08-5.42,2.81-10.8,7.68-15.38A48.74,48.74,0,0,0,110.77,44c-7.91,4.45-11.17,12.94-13,19.39-.21.87-.39,1.73-.54,2.6a47.79,47.79,0,0,0-.69,7.86q0,1.47.05,2.94A55.32,55.32,0,0,0,99.19,92c.33,1,.69,2,1.1,3.11,1.24,2.65,2.52,5.29,3.91,7.9a49.1,49.1,0,0,0,6.59-8.61q-.69-1.42-1.3-2.88C109,90.38,108.54,89.27,108.14,88.15Z"/><path class="cls-40" d="M108.14,88.15a42.81,42.81,0,0,1-2.29-10c-.13-1.1-.21-2.2-.25-3.29a37.38,37.38,0,0,1,.27-6q.19-1.48.5-3c1.08-5.42,2.81-10.8,7.68-15.38A48.74,48.74,0,0,0,110.77,44c-7.91,4.45-11.17,12.94-13,19.39-.21.87-.39,1.73-.54,2.6a47.79,47.79,0,0,0-.69,7.86q0,1.47.05,2.94A55.32,55.32,0,0,0,99.19,92c.33,1,.69,2,1.1,3.11,1.24,2.65,2.52,5.29,3.91,7.9a49.1,49.1,0,0,0,6.59-8.61q-.69-1.42-1.3-2.88C109,90.38,108.54,89.27,108.14,88.15Z"/><path class="cls-15" d="M108.14,88.15a42.81,42.81,0,0,1-2.29-10c-.13-1.1-.21-2.2-.25-3.29a37.38,37.38,0,0,1,.27-6q.19-1.48.5-3c1.08-5.42,2.81-10.8,7.68-15.38A48.74,48.74,0,0,0,110.77,44c-7.91,4.45-11.17,12.94-13,19.39-.21.87-.39,1.73-.54,2.6a47.79,47.79,0,0,0-.69,7.86q0,1.47.05,2.94A55.32,55.32,0,0,0,99.19,92c.33,1,.69,2,1.1,3.11,1.24,2.65,2.52,5.29,3.91,7.9a49.1,49.1,0,0,0,6.59-8.61q-.69-1.42-1.3-2.88C109,90.38,108.54,89.27,108.14,88.15Z"/><path class="cls-15" d="M108.14,88.15a42.81,42.81,0,0,1-2.29-10c-.13-1.1-.21-2.2-.25-3.29a37.38,37.38,0,0,1,.27-6q.19-1.48.5-3c1.08-5.42,2.81-10.8,7.68-15.38A48.74,48.74,0,0,0,110.77,44c-7.91,4.45-11.17,12.94-13,19.39-.21.87-.39,1.73-.54,2.6a47.79,47.79,0,0,0-.69,7.86q0,1.47.05,2.94A55.32,55.32,0,0,0,99.19,92c.33,1,.69,2,1.1,3.11,1.24,2.65,2.52,5.29,3.91,7.9a49.1,49.1,0,0,0,6.59-8.61q-.69-1.42-1.3-2.88C109,90.38,108.54,89.27,108.14,88.15Z"/><path class="cls-11" d="M88.82,109.77C83,99.43,80.75,88.27,80.37,77.38q-.13-1.82-.17-3.64A57.25,57.25,0,0,1,87.6,43.56q.91-1.57,1.94-3.09a38.76,38.76,0,0,1,8.63-10.4,49,49,0,0,0-5.8-3.74A48.43,48.43,0,0,0,83.3,38.61q-.91,1.47-1.73,3a65.75,65.75,0,0,0-8.22,31.33q0,1.71,0,3.43c-.11,12.45,3.31,24.93,9.63,36.75.46.84.94,1.68,1.43,2.52A48.63,48.63,0,0,0,90.72,113c-.07-.14-.15-.27-.21-.41Q89.62,111.18,88.82,109.77Z"/><path class="cls-34" d="M88.82,109.77C83,99.43,80.75,88.27,80.37,77.38q-.13-1.82-.17-3.64A57.25,57.25,0,0,1,87.6,43.56q.91-1.57,1.94-3.09a38.76,38.76,0,0,1,8.63-10.4,49,49,0,0,0-5.8-3.74A48.43,48.43,0,0,0,83.3,38.61q-.91,1.47-1.73,3a65.75,65.75,0,0,0-8.22,31.33q0,1.71,0,3.43c-.11,12.45,3.31,24.93,9.63,36.75.46.84.94,1.68,1.43,2.52A48.63,48.63,0,0,0,90.72,113c-.07-.14-.15-.27-.21-.41Q89.62,111.18,88.82,109.77Z"/><path class="cls-34" d="M88.82,109.77C83,99.43,80.75,88.27,80.37,77.38q-.13-1.82-.17-3.64A57.25,57.25,0,0,1,87.6,43.56q.91-1.57,1.94-3.09a38.76,38.76,0,0,1,8.63-10.4,49,49,0,0,0-5.8-3.74A48.43,48.43,0,0,0,83.3,38.61q-.91,1.47-1.73,3a65.75,65.75,0,0,0-8.22,31.33q0,1.71,0,3.43c-.11,12.45,3.31,24.93,9.63,36.75.46.84.94,1.68,1.43,2.52A48.63,48.63,0,0,0,90.72,113c-.07-.14-.15-.27-.21-.41Q89.62,111.18,88.82,109.77Z"/><path class="cls-41" d="M88.82,109.77C83,99.43,80.75,88.27,80.37,77.38q-.13-1.82-.17-3.64A57.25,57.25,0,0,1,87.6,43.56q.91-1.57,1.94-3.09a38.76,38.76,0,0,1,8.63-10.4,49,49,0,0,0-5.8-3.74A48.43,48.43,0,0,0,83.3,38.61q-.91,1.47-1.73,3a65.75,65.75,0,0,0-8.22,31.33q0,1.71,0,3.43c-.11,12.45,3.31,24.93,9.63,36.75.46.84.94,1.68,1.43,2.52A48.63,48.63,0,0,0,90.72,113c-.07-.14-.15-.27-.21-.41Q89.62,111.18,88.82,109.77Z"/><path class="cls-42" d="M88.82,109.77C83,99.43,80.75,88.27,80.37,77.38q-.13-1.82-.17-3.64A57.25,57.25,0,0,1,87.6,43.56q.91-1.57,1.94-3.09a38.76,38.76,0,0,1,8.63-10.4,49,49,0,0,0-5.8-3.74A48.43,48.43,0,0,0,83.3,38.61q-.91,1.47-1.73,3a65.75,65.75,0,0,0-8.22,31.33q0,1.71,0,3.43c-.11,12.45,3.31,24.93,9.63,36.75.46.84.94,1.68,1.43,2.52A48.63,48.63,0,0,0,90.72,113c-.07-.14-.15-.27-.21-.41Q89.62,111.18,88.82,109.77Z"/><path class="cls-43" d="M88.82,109.77C83,99.43,80.75,88.27,80.37,77.38q-.13-1.82-.17-3.64A57.25,57.25,0,0,1,87.6,43.56q.91-1.57,1.94-3.09a38.76,38.76,0,0,1,8.63-10.4,49,49,0,0,0-5.8-3.74A48.43,48.43,0,0,0,83.3,38.61q-.91,1.47-1.73,3a65.75,65.75,0,0,0-8.22,31.33q0,1.71,0,3.43c-.11,12.45,3.31,24.93,9.63,36.75.46.84.94,1.68,1.43,2.52A48.63,48.63,0,0,0,90.72,113c-.07-.14-.15-.27-.21-.41Q89.62,111.18,88.82,109.77Z"/><path class="cls-15" d="M88.82,109.77C83,99.43,80.75,88.27,80.37,77.38q-.13-1.82-.17-3.64A57.25,57.25,0,0,1,87.6,43.56q.91-1.57,1.94-3.09a38.76,38.76,0,0,1,8.63-10.4,49,49,0,0,0-5.8-3.74A48.43,48.43,0,0,0,83.3,38.61q-.91,1.47-1.73,3a65.75,65.75,0,0,0-8.22,31.33q0,1.71,0,3.43c-.11,12.45,3.31,24.93,9.63,36.75.46.84.94,1.68,1.43,2.52A48.63,48.63,0,0,0,90.72,113c-.07-.14-.15-.27-.21-.41Q89.62,111.18,88.82,109.77Z"/><path class="cls-15" d="M88.82,109.77C83,99.43,80.75,88.27,80.37,77.38q-.13-1.82-.17-3.64A57.25,57.25,0,0,1,87.6,43.56q.91-1.57,1.94-3.09a38.76,38.76,0,0,1,8.63-10.4,49,49,0,0,0-5.8-3.74A48.43,48.43,0,0,0,83.3,38.61q-.91,1.47-1.73,3a65.75,65.75,0,0,0-8.22,31.33q0,1.71,0,3.43c-.11,12.45,3.31,24.93,9.63,36.75.46.84.94,1.68,1.43,2.52A48.63,48.63,0,0,0,90.72,113c-.07-.14-.15-.27-.21-.41Q89.62,111.18,88.82,109.77Z"/><path class="cls-11" d="M69.48,108.36c-5.31-22.24-8.12-45-2.3-67.09q.46-1.75,1-3.49a83.89,83.89,0,0,1,7.33-17c-1.28-.17-2.57-.31-3.88-.38q-3,5.44-5.5,11l-.82,2C55.77,58,54.71,84.06,60.19,109.58c.25,1.19.51,2.37.79,3.61.33,1.5.68,3,1,4.48a49.33,49.33,0,0,0,6.81.48c1,0,2,0,3-.1-.51-2-1-4.06-1.49-6.1C70,110.71,69.75,109.54,69.48,108.36Z"/><path class="cls-34" d="M69.48,108.36c-5.31-22.24-8.12-45-2.3-67.09q.46-1.75,1-3.49a83.89,83.89,0,0,1,7.33-17c-1.28-.17-2.57-.31-3.88-.38q-3,5.44-5.5,11l-.82,2C55.77,58,54.71,84.06,60.19,109.58c.25,1.19.51,2.37.79,3.61.33,1.5.68,3,1,4.48a49.33,49.33,0,0,0,6.81.48c1,0,2,0,3-.1-.51-2-1-4.06-1.49-6.1C70,110.71,69.75,109.54,69.48,108.36Z"/><path class="cls-34" d="M69.48,108.36c-5.31-22.24-8.12-45-2.3-67.09q.46-1.75,1-3.49a83.89,83.89,0,0,1,7.33-17c-1.28-.17-2.57-.31-3.88-.38q-3,5.44-5.5,11l-.82,2C55.77,58,54.71,84.06,60.19,109.58c.25,1.19.51,2.37.79,3.61.33,1.5.68,3,1,4.48a49.33,49.33,0,0,0,6.81.48c1,0,2,0,3-.1-.51-2-1-4.06-1.49-6.1C70,110.71,69.75,109.54,69.48,108.36Z"/><path class="cls-44" d="M69.48,108.36c-5.31-22.24-8.12-45-2.3-67.09q.46-1.75,1-3.49a83.89,83.89,0,0,1,7.33-17c-1.28-.17-2.57-.31-3.88-.38q-3,5.44-5.5,11l-.82,2C55.77,58,54.71,84.06,60.19,109.58c.25,1.19.51,2.37.79,3.61.33,1.5.68,3,1,4.48a49.33,49.33,0,0,0,6.81.48c1,0,2,0,3-.1-.51-2-1-4.06-1.49-6.1C70,110.71,69.75,109.54,69.48,108.36Z"/><path class="cls-45" d="M69.48,108.36c-5.31-22.24-8.12-45-2.3-67.09q.46-1.75,1-3.49a83.89,83.89,0,0,1,7.33-17c-1.28-.17-2.57-.31-3.88-.38q-3,5.44-5.5,11l-.82,2C55.77,58,54.71,84.06,60.19,109.58c.25,1.19.51,2.37.79,3.61.33,1.5.68,3,1,4.48a49.33,49.33,0,0,0,6.81.48c1,0,2,0,3-.1-.51-2-1-4.06-1.49-6.1C70,110.71,69.75,109.54,69.48,108.36Z"/><path class="cls-46" d="M69.48,108.36c-5.31-22.24-8.12-45-2.3-67.09q.46-1.75,1-3.49a83.89,83.89,0,0,1,7.33-17c-1.28-.17-2.57-.31-3.88-.38q-3,5.44-5.5,11l-.82,2C55.77,58,54.71,84.06,60.19,109.58c.25,1.19.51,2.37.79,3.61.33,1.5.68,3,1,4.48a49.33,49.33,0,0,0,6.81.48c1,0,2,0,3-.1-.51-2-1-4.06-1.49-6.1C70,110.71,69.75,109.54,69.48,108.36Z"/><path class="cls-15" d="M69.48,108.36c-5.31-22.24-8.12-45-2.3-67.09q.46-1.75,1-3.49a83.89,83.89,0,0,1,7.33-17c-1.28-.17-2.57-.31-3.88-.38q-3,5.44-5.5,11l-.82,2C55.77,58,54.71,84.06,60.19,109.58c.25,1.19.51,2.37.79,3.61.33,1.5.68,3,1,4.48a49.33,49.33,0,0,0,6.81.48c1,0,2,0,3-.1-.51-2-1-4.06-1.49-6.1C70,110.71,69.75,109.54,69.48,108.36Z"/><path class="cls-15" d="M69.48,108.36c-5.31-22.24-8.12-45-2.3-67.09q.46-1.75,1-3.49a83.89,83.89,0,0,1,7.33-17c-1.28-.17-2.57-.31-3.88-.38q-3,5.44-5.5,11l-.82,2C55.77,58,54.71,84.06,60.19,109.58c.25,1.19.51,2.37.79,3.61.33,1.5.68,3,1,4.48a49.33,49.33,0,0,0,6.81.48c1,0,2,0,3-.1-.51-2-1-4.06-1.49-6.1C70,110.71,69.75,109.54,69.48,108.36Z"/><path class="cls-11" d="M50.93,85c-.3-21.91.23-44.12,14-64.55a48.86,48.86,0,0,0-7.59,1.2c-12.71,29.91-13,61.54-7.68,92.59a48.59,48.59,0,0,0,6.57,2.25,145,145,0,0,1-5.06-29C51.07,86.62,51,85.81,50.93,85Z"/><path class="cls-34" d="M50.93,85c-.3-21.91.23-44.12,14-64.55a48.86,48.86,0,0,0-7.59,1.2c-12.71,29.91-13,61.54-7.68,92.59a48.59,48.59,0,0,0,6.57,2.25,145,145,0,0,1-5.06-29C51.07,86.62,51,85.81,50.93,85Z"/><path class="cls-34" d="M50.93,85c-.3-21.91.23-44.12,14-64.55a48.86,48.86,0,0,0-7.59,1.2c-12.71,29.91-13,61.54-7.68,92.59a48.59,48.59,0,0,0,6.57,2.25,145,145,0,0,1-5.06-29C51.07,86.62,51,85.81,50.93,85Z"/><path class="cls-47" d="M50.93,85c-.3-21.91.23-44.12,14-64.55a48.86,48.86,0,0,0-7.59,1.2c-12.71,29.91-13,61.54-7.68,92.59a48.59,48.59,0,0,0,6.57,2.25,145,145,0,0,1-5.06-29C51.07,86.62,51,85.81,50.93,85Z"/><path class="cls-48" d="M50.93,85c-.3-21.91.23-44.12,14-64.55a48.86,48.86,0,0,0-7.59,1.2c-12.71,29.91-13,61.54-7.68,92.59a48.59,48.59,0,0,0,6.57,2.25,145,145,0,0,1-5.06-29C51.07,86.62,51,85.81,50.93,85Z"/><path class="cls-49" d="M50.93,85c-.3-21.91.23-44.12,14-64.55a48.86,48.86,0,0,0-7.59,1.2c-12.71,29.91-13,61.54-7.68,92.59a48.59,48.59,0,0,0,6.57,2.25,145,145,0,0,1-5.06-29C51.07,86.62,51,85.81,50.93,85Z"/><path class="cls-15" d="M50.93,85c-.3-21.91.23-44.12,14-64.55a48.86,48.86,0,0,0-7.59,1.2c-12.71,29.91-13,61.54-7.68,92.59a48.59,48.59,0,0,0,6.57,2.25,145,145,0,0,1-5.06-29C51.07,86.62,51,85.81,50.93,85Z"/><path class="cls-15" d="M50.93,85c-.3-21.91.23-44.12,14-64.55a48.86,48.86,0,0,0-7.59,1.2c-12.71,29.91-13,61.54-7.68,92.59a48.59,48.59,0,0,0,6.57,2.25,145,145,0,0,1-5.06-29C51.07,86.62,51,85.81,50.93,85Z"/><path class="cls-11" d="M44.61,102.47c-.68-5.62-1.23-11.29-1.6-17-.05-1.23-.1-2.43-.12-3.73-.11-19,1-38.16,5.49-57A48.92,48.92,0,0,0,39.59,30c-4.38,19.1-5.37,38-4.82,57.45q.06,1.7.12,3.41c.13,3.41.29,6.81.44,10.21q0,1.48.11,2.95c0,.35,0,.7.06,1.05A49.07,49.07,0,0,0,45.6,112.3c-.2-2.15-.4-4.3-.57-6.46C44.89,104.72,44.75,103.59,44.61,102.47Z"/><path class="cls-34" d="M44.61,102.47c-.68-5.62-1.23-11.29-1.6-17-.05-1.23-.1-2.43-.12-3.73-.11-19,1-38.16,5.49-57A48.92,48.92,0,0,0,39.59,30c-4.38,19.1-5.37,38-4.82,57.45q.06,1.7.12,3.41c.13,3.41.29,6.81.44,10.21q0,1.48.11,2.95c0,.35,0,.7.06,1.05A49.07,49.07,0,0,0,45.6,112.3c-.2-2.15-.4-4.3-.57-6.46C44.89,104.72,44.75,103.59,44.61,102.47Z"/><path class="cls-34" d="M44.61,102.47c-.68-5.62-1.23-11.29-1.6-17-.05-1.23-.1-2.43-.12-3.73-.11-19,1-38.16,5.49-57A48.92,48.92,0,0,0,39.59,30c-4.38,19.1-5.37,38-4.82,57.45q.06,1.7.12,3.41c.13,3.41.29,6.81.44,10.21q0,1.48.11,2.95c0,.35,0,.7.06,1.05A49.07,49.07,0,0,0,45.6,112.3c-.2-2.15-.4-4.3-.57-6.46C44.89,104.72,44.75,103.59,44.61,102.47Z"/><path class="cls-50" d="M44.61,102.47c-.68-5.62-1.23-11.29-1.6-17-.05-1.23-.1-2.43-.12-3.73-.11-19,1-38.16,5.49-57A48.92,48.92,0,0,0,39.59,30c-4.38,19.1-5.37,38-4.82,57.45q.06,1.7.12,3.41c.13,3.41.29,6.81.44,10.21q0,1.48.11,2.95c0,.35,0,.7.06,1.05A49.07,49.07,0,0,0,45.6,112.3c-.2-2.15-.4-4.3-.57-6.46C44.89,104.72,44.75,103.59,44.61,102.47Z"/><path class="cls-51" d="M44.61,102.47c-.68-5.62-1.23-11.29-1.6-17-.05-1.23-.1-2.43-.12-3.73-.11-19,1-38.16,5.49-57A48.92,48.92,0,0,0,39.59,30c-4.38,19.1-5.37,38-4.82,57.45q.06,1.7.12,3.41c.13,3.41.29,6.81.44,10.21q0,1.48.11,2.95c0,.35,0,.7.06,1.05A49.07,49.07,0,0,0,45.6,112.3c-.2-2.15-.4-4.3-.57-6.46C44.89,104.72,44.75,103.59,44.61,102.47Z"/><path class="cls-52" d="M44.61,102.47c-.68-5.62-1.23-11.29-1.6-17-.05-1.23-.1-2.43-.12-3.73-.11-19,1-38.16,5.49-57A48.92,48.92,0,0,0,39.59,30c-4.38,19.1-5.37,38-4.82,57.45q.06,1.7.12,3.41c.13,3.41.29,6.81.44,10.21q0,1.48.11,2.95c0,.35,0,.7.06,1.05A49.07,49.07,0,0,0,45.6,112.3c-.2-2.15-.4-4.3-.57-6.46C44.89,104.72,44.75,103.59,44.61,102.47Z"/><path class="cls-15" d="M44.61,102.47c-.68-5.62-1.23-11.29-1.6-17-.05-1.23-.1-2.43-.12-3.73-.11-19,1-38.16,5.49-57A48.92,48.92,0,0,0,39.59,30c-4.38,19.1-5.37,38-4.82,57.45q.06,1.7.12,3.41c.13,3.41.29,6.81.44,10.21q0,1.48.11,2.95c0,.35,0,.7.06,1.05A49.07,49.07,0,0,0,45.6,112.3c-.2-2.15-.4-4.3-.57-6.46C44.89,104.72,44.75,103.59,44.61,102.47Z"/><path class="cls-15" d="M44.61,102.47c-.68-5.62-1.23-11.29-1.6-17-.05-1.23-.1-2.43-.12-3.73-.11-19,1-38.16,5.49-57A48.92,48.92,0,0,0,39.59,30c-4.38,19.1-5.37,38-4.82,57.45q.06,1.7.12,3.41c.13,3.41.29,6.81.44,10.21q0,1.48.11,2.95c0,.35,0,.7.06,1.05A49.07,49.07,0,0,0,45.6,112.3c-.2-2.15-.4-4.3-.57-6.46C44.89,104.72,44.75,103.59,44.61,102.47Z"/><path class="cls-11" d="M34.59,36.78q.24-1.33.47-2.67l0-.34a49.17,49.17,0,0,0-6.74,7.91,181.16,181.16,0,0,1-8.21,32.82,48.62,48.62,0,0,0,2.21,10.15A351.05,351.05,0,0,0,33.92,40.33Q34.27,38.55,34.59,36.78Z"/><path class="cls-34" d="M34.59,36.78q.24-1.33.47-2.67l0-.34a49.17,49.17,0,0,0-6.74,7.91,181.16,181.16,0,0,1-8.21,32.82,48.62,48.62,0,0,0,2.21,10.15A351.05,351.05,0,0,0,33.92,40.33Q34.27,38.55,34.59,36.78Z"/><path class="cls-34" d="M34.59,36.78q.24-1.33.47-2.67l0-.34a49.17,49.17,0,0,0-6.74,7.91,181.16,181.16,0,0,1-8.21,32.82,48.62,48.62,0,0,0,2.21,10.15A351.05,351.05,0,0,0,33.92,40.33Q34.27,38.55,34.59,36.78Z"/><path class="cls-53" d="M34.59,36.78q.24-1.33.47-2.67l0-.34a49.17,49.17,0,0,0-6.74,7.91,181.16,181.16,0,0,1-8.21,32.82,48.62,48.62,0,0,0,2.21,10.15A351.05,351.05,0,0,0,33.92,40.33Q34.27,38.55,34.59,36.78Z"/><path class="cls-54" d="M34.59,36.78q.24-1.33.47-2.67l0-.34a49.17,49.17,0,0,0-6.74,7.91,181.16,181.16,0,0,1-8.21,32.82,48.62,48.62,0,0,0,2.21,10.15A351.05,351.05,0,0,0,33.92,40.33Q34.27,38.55,34.59,36.78Z"/><path class="cls-55" d="M34.59,36.78q.24-1.33.47-2.67l0-.34a49.17,49.17,0,0,0-6.74,7.91,181.16,181.16,0,0,1-8.21,32.82,48.62,48.62,0,0,0,2.21,10.15A351.05,351.05,0,0,0,33.92,40.33Q34.27,38.55,34.59,36.78Z"/><path class="cls-15" d="M34.59,36.78q.24-1.33.47-2.67l0-.34a49.17,49.17,0,0,0-6.74,7.91,181.16,181.16,0,0,1-8.21,32.82,48.62,48.62,0,0,0,2.21,10.15A351.05,351.05,0,0,0,33.92,40.33Q34.27,38.55,34.59,36.78Z"/><path class="cls-15" d="M34.59,36.78q.24-1.33.47-2.67l0-.34a49.17,49.17,0,0,0-6.74,7.91,181.16,181.16,0,0,1-8.21,32.82,48.62,48.62,0,0,0,2.21,10.15A351.05,351.05,0,0,0,33.92,40.33Q34.27,38.55,34.59,36.78Z"/><path class="cls-56" d="M56.18,93a11.78,11.78,0,0,1-8.48-3.24l-.24-.24c-.49,2.08-2.22,3.32-4.77,3.32-3,0-4.91-1.76-4.91-4.58v-1.5a2.23,2.23,0,0,1-2.7,0v1.5c0,2.83-1.88,4.58-4.91,4.58s-4.91-1.76-4.91-4.58V74a4.79,4.79,0,0,1,.67-2.56,3.94,3.94,0,0,1,.28-.4l.23-.26a4,4,0,0,1,.4-.37,4.11,4.11,0,0,1,.51-.35l.34-.17a4.54,4.54,0,0,1,.51-.2l.24-.08a5.44,5.44,0,0,1,.73-.14l.22,0c.24,0,.47,0,.69,0h.09a6.06,6.06,0,0,1,1.16.12,5.17,5.17,0,0,1,3,1.79l2.08,2.48,2.06-2.47a5.46,5.46,0,0,1,.4-.44,5.27,5.27,0,0,1,3.8-1.48c3.2,0,4.28,1.93,4.6,2.76l.09.27.28-.29,0,0a11.3,11.3,0,0,1,1.8-1.42,11.13,11.13,0,0,1,2.06-1A12,12,0,0,1,53.71,69C51,62.26,51.55,54.76,55.32,49.26a15.93,15.93,0,0,1,7.95-6.17l2.19-.76.15,0a15.59,15.59,0,0,1,5-.8,18,18,0,0,1,12,4.83h0l.37.33h0a22.34,22.34,0,0,1,6.77,19.72s0,.1,0,.15l-.06.34A19.84,19.84,0,0,1,89,69.37h5a4.39,4.39,0,0,1,2.91,1l.33-.21a4.5,4.5,0,0,1,1.07-.44,6.33,6.33,0,0,1,1.64-.2,5.13,5.13,0,0,1,1.39.19,5.39,5.39,0,0,1,1.28.55,7.17,7.17,0,0,1,2,1.87l1.23,1.62,1.23-1.62a7.16,7.16,0,0,1,2-1.87,5.36,5.36,0,0,1,1.28-.55,5.13,5.13,0,0,1,1.39-.19,6.31,6.31,0,0,1,1.64.2,4.51,4.51,0,0,1,1.07.44,3.79,3.79,0,0,1,1.33,1.27c.13.21.25.42.35.63a4.81,4.81,0,0,1,.54,2.13c0,.12,0,.25,0,.37s0,.25,0,.37a6,6,0,0,1-.72,2.67,2.24,2.24,0,0,1-.22.36l-5.07,6.6v3.71c0,2.83-1.88,4.58-4.91,4.58s-4.91-1.76-4.91-4.58V84.54l-3.15-4.19c0,.11,0,.23,0,.35s0,.25,0,.37,0,.24,0,.37a4.63,4.63,0,0,1-.89,2.86,3.79,3.79,0,0,1,.83,1,4.78,4.78,0,0,1,.6,2.43c0,.13,0,.25,0,.37s0,.24,0,.37A4.07,4.07,0,0,1,94,92.85h-6.5a5.24,5.24,0,0,1-3.36-1,5.24,5.24,0,0,1-3.36,1A5.13,5.13,0,0,1,76.71,91l-2.09-2.48c-.12,2.66-2,4.3-4.9,4.3-2.56,0-4.29-1.25-4.77-3.34l-.27.27A11.88,11.88,0,0,1,56.18,93ZM54,80.94a2.91,2.91,0,0,0,.15.74,2.19,2.19,0,0,0,.46.75,1.9,1.9,0,0,0,.31.27,1.73,1.73,0,0,0,.53.25l.22.05a3.17,3.17,0,0,0,.57,0,2.07,2.07,0,0,0,1.46-.47l.15-.15a2.16,2.16,0,0,0,0-3,2,2,0,0,0-1.6-.61,2,2,0,0,0-1.62.62A2.47,2.47,0,0,0,54,80.94Z"/><path class="cls-57" d="M116,74.18a4.07,4.07,0,0,0-.46-1.8q-.14-.27-.32-.56a3.07,3.07,0,0,0-.3-.4,3.13,3.13,0,0,0-.77-.63,3.76,3.76,0,0,0-.89-.37,5.57,5.57,0,0,0-1.45-.17,4.39,4.39,0,0,0-1.19.16,4.63,4.63,0,0,0-1.1.48,6.43,6.43,0,0,0-1.81,1.68L105.86,75,104,72.57a6.44,6.44,0,0,0-1.81-1.68,4.64,4.64,0,0,0-1.1-.48,4.39,4.39,0,0,0-1.19-.16,5.59,5.59,0,0,0-1.45.17,3.76,3.76,0,0,0-.89.37,3.13,3.13,0,0,0-.74.6A3.43,3.43,0,0,0,94,70.12H88a19.07,19.07,0,0,0,.92-3.38L89,66.4s0-.08,0-.12A21.5,21.5,0,0,0,82.43,47.2h0l-.35-.31h0a17.3,17.3,0,0,0-11.51-4.66,14.84,14.84,0,0,0-4.75.77l-.12,0-2.2.76a15.19,15.19,0,0,0-7.58,5.88c-3.88,5.68-4.11,13.47-1.16,20a11.78,11.78,0,0,0-3,.68,10.41,10.41,0,0,0-1.92,1,10.61,10.61,0,0,0-1.69,1.34l0,0c-.16.16-.32.33-.48.5l-.07.08c-.15.17-.3.35-.44.53s-.23.32-.33.48V74a4.39,4.39,0,0,0-.26-1.56c-.32-.85-1.26-2.28-3.9-2.28a4.55,4.55,0,0,0-3.28,1.27,4.75,4.75,0,0,0-.35.38l-2.63,3.16-2.65-3.16a4.45,4.45,0,0,0-2.57-1.54,5.32,5.32,0,0,0-1-.11h-.09c-.2,0-.41,0-.62,0l-.2,0a4.77,4.77,0,0,0-.64.12l-.2.06a3.84,3.84,0,0,0-.43.17l-.28.14a3.39,3.39,0,0,0-.42.29,3.2,3.2,0,0,0-.33.3l-.19.22a3.24,3.24,0,0,0-.23.32A4.06,4.06,0,0,0,26,74V88.27c0,2.41,1.56,3.84,4.17,3.84s4.17-1.44,4.17-3.84V84.84l1,1.12a1.49,1.49,0,0,0,1.13.52h0A1.49,1.49,0,0,0,37.56,86l1-1.13v3.44c0,2.41,1.56,3.84,4.17,3.84s4.17-1.44,4.17-3.84v-.63a10.25,10.25,0,0,0,1.36,1.6,11.06,11.06,0,0,0,8,3,11.16,11.16,0,0,0,8-3,10.28,10.28,0,0,0,1.39-1.63v.65c0,2.41,1.56,3.84,4.17,3.84s4.17-1.44,4.17-3.84V86.52l3.39,4a4.41,4.41,0,0,0,3.49,1.56,4.17,4.17,0,0,0,3.36-1.34,4.17,4.17,0,0,0,3.36,1.34H94a3.34,3.34,0,0,0,3.57-3.64c0-.13,0-.25,0-.37s0-.24,0-.37a4.05,4.05,0,0,0-.49-2.06,3,3,0,0,0-1.37-1.24,3.54,3.54,0,0,0,1.32-3c0-.13,0-.25,0-.37s0-.24,0-.37a3.49,3.49,0,0,0-1.26-2.94,3.05,3.05,0,0,0,.66-.44,1.5,1.5,0,0,0,.11.17l5.12,6.81v4c0,2.41,1.56,3.84,4.17,3.84S110,90.67,110,88.27v-4l5.22-6.8a1.49,1.49,0,0,0,.15-.24,5.26,5.26,0,0,0,.64-2.34,3.34,3.34,0,0,0,0-.37A3.57,3.57,0,0,0,116,74.18ZM58.37,82.94l-.21.21a2.81,2.81,0,0,1-1.95.65,3.9,3.9,0,0,1-.7-.06l-.3-.07a2.48,2.48,0,0,1-.75-.35,2.64,2.64,0,0,1-.43-.37,2.92,2.92,0,0,1-.62-1,3.71,3.71,0,0,1-.2-1,3.24,3.24,0,0,1,.83-2,2.73,2.73,0,0,1,2.17-.86,2.7,2.7,0,0,1,2.15.85,2.89,2.89,0,0,1,0,4Z"/><path class="cls-58" d="M65.75,44.59,64,45.2a13.7,13.7,0,0,0-6.84,5.32c-5,7.36-3.42,18.54,3.61,25,4.53,4.15,10.19,5.31,15,3.65L78,78.38c-4.81,1.66-10.47.5-15-3.65-7-6.44-8.64-17.62-3.61-25a13.7,13.7,0,0,1,6.84-5.32Z"/><path class="cls-59" d="M65.87,76.9,64,77.83a14.29,14.29,0,0,0,11.8,1.31L78,78.38A14.34,14.34,0,0,1,65.87,76.9Z"/><path class="cls-60" d="M59.35,49.76c-5,7.36-3.42,18.54,3.61,25s16.8,5.69,21.84-1.67a16.79,16.79,0,0,0,2.64-6.59l.06-.32a16.34,16.34,0,0,1-2.57,6.4c-4.89,7.14-14.38,7.87-21.2,1.62s-8.39-17.1-3.5-24.25S74.31,42.07,81.1,48C74.08,41.66,64.36,42.43,59.35,49.76Zm21.84-1.67L81.1,48l.32.29Z"/><path class="cls-61" d="M60.22,49.92c4.89-7.14,14.38-7.87,21.2-1.62s8.39,17.11,3.5,24.25-14.38,7.87-21.2,1.62S55.33,57.06,60.22,49.92Z"/><path class="cls-62" d="M80.51,49.58C76.62,46,71.74,45,67.6,46.43q.57.71,1.11,1.43A11.58,11.58,0,0,1,79.8,50.8c5.4,5,6.65,13.55,2.77,19.21a10.6,10.6,0,0,1-4.68,3.86c0,.6,0,1.2,0,1.8a11.83,11.83,0,0,0,5.78-4.54C88,64.79,86.58,55.14,80.51,49.58Z"/><path class="cls-63" d="M65.77,71.3c-5.41-5-6.65-13.55-2.78-19.21a10.49,10.49,0,0,1,5.7-4.23q-.54-.72-1.11-1.43A11.82,11.82,0,0,0,61.66,51c-4.34,6.35-3,16,3.11,21.56,3.95,3.61,8.9,4.6,13.07,3.1,0-.6,0-1.2,0-1.8C74.08,75.47,69.44,74.65,65.77,71.3Z"/><path class="cls-64" d="M69.94,68.55a2.27,2.27,0,0,1-.07.85,1.94,1.94,0,0,1-.32.65,1.86,1.86,0,0,1-.5.45,1.93,1.93,0,0,1-.61.24L67.13,71l0-.19.17-.05.14-.06a.25.25,0,0,0,.09-.12.44.44,0,0,0,0-.17l-.25-2.78a.47.47,0,0,0,0-.16.2.2,0,0,0-.11-.1l-.16,0h-.14l0-.19,1.39-.22a1.49,1.49,0,0,1,.56,0,1.39,1.39,0,0,1,1,.75A2.3,2.3,0,0,1,69.94,68.55Zm-.52.1a2.56,2.56,0,0,0-.14-.67,1.56,1.56,0,0,0-.29-.49,1,1,0,0,0-.4-.28,1,1,0,0,0-.5,0l-.2,0-.17,0L68,70.17a.37.37,0,0,0,.15.32.54.54,0,0,0,.37,0,1.06,1.06,0,0,0,.47-.22,1.1,1.1,0,0,0,.3-.4,1.83,1.83,0,0,0,.15-.55A3.39,3.39,0,0,0,69.42,68.65Z"/><path class="cls-64" d="M72.51,66.66a1.74,1.74,0,0,1,.34.55A2.61,2.61,0,0,1,73,68a2.77,2.77,0,0,1,0,.8,2.1,2.1,0,0,1-.24.65,1.59,1.59,0,0,1-.39.47,1.23,1.23,0,0,1-.51.24,1.07,1.07,0,0,1-.57,0,1.17,1.17,0,0,1-.48-.31,1.73,1.73,0,0,1-.35-.56,2.59,2.59,0,0,1-.18-.75,2.73,2.73,0,0,1,0-.83,2.18,2.18,0,0,1,.25-.66,1.53,1.53,0,0,1,.42-.46,1.2,1.2,0,0,1,.52-.22,1.08,1.08,0,0,1,.55,0A1.19,1.19,0,0,1,72.51,66.66Zm-.06,2.61a2.17,2.17,0,0,0,.11-.56,3.92,3.92,0,0,0,0-.66,3.71,3.71,0,0,0-.12-.67,1.85,1.85,0,0,0-.21-.5.84.84,0,0,0-.31-.29.61.61,0,0,0-.39-.06.69.69,0,0,0-.4.21,1.17,1.17,0,0,0-.25.43,2.29,2.29,0,0,0-.1.56,4,4,0,0,0,0,.65,3.75,3.75,0,0,0,.12.67,1.81,1.81,0,0,0,.22.5.83.83,0,0,0,.31.3.6.6,0,0,0,.41,0,.72.72,0,0,0,.38-.21A1.09,1.09,0,0,0,72.45,69.27Z"/><path class="cls-64" d="M75.59,68.2l0,1-2.09.44,0-.18.13,0,.12-.06a.23.23,0,0,0,.07-.11.45.45,0,0,0,0-.17l-.23-2.54a.45.45,0,0,0,0-.15.18.18,0,0,0-.1-.09l-.13,0h-.14l0-.18,1.15-.19,0,.18-.13,0-.12.06a.18.18,0,0,0-.08.12.51.51,0,0,0,0,.16l.22,2.37a2,2,0,0,0,0,.25.22.22,0,0,0,.07.13.2.2,0,0,0,.13,0l.24,0,.14,0,.14,0,.12-.07a.23.23,0,0,0,.07-.08,2.66,2.66,0,0,0,.14-.38,3.13,3.13,0,0,0,.1-.4Z"/><path class="cls-64" d="M77.78,67.77l0,1-2,.41,0-.17L76,69l.11-.06a.22.22,0,0,0,.07-.11.44.44,0,0,0,0-.16l-.23-2.47a.45.45,0,0,0,0-.14.17.17,0,0,0-.09-.09l-.12,0h-.13l0-.17,1.08-.17,0,.17-.13,0-.11.06a.17.17,0,0,0-.07.11.5.5,0,0,0,0,.15l.21,2.3a2,2,0,0,0,0,.25.22.22,0,0,0,.07.12.19.19,0,0,0,.13,0l.23,0,.14,0,.13,0,.11-.06a.22.22,0,0,0,.07-.08,2.61,2.61,0,0,0,.14-.37,3.09,3.09,0,0,0,.1-.39Z"/><path class="cls-64" d="M80.24,68.28l-1,.2,0-.17a.84.84,0,0,0,.21-.09q.08-.05.08-.1V68l-.26-.7-.83.16q0,.17-.05.3l0,.24c0,.07,0,.13,0,.17a.82.82,0,0,0,0,.11.14.14,0,0,0,.12.12.62.62,0,0,0,.25,0l0,.17-.91.19,0-.17.11-.05a.37.37,0,0,0,.1-.08.61.61,0,0,0,.09-.16,1.13,1.13,0,0,0,.06-.21q.12-.67.27-1.49l.26-1.46.13,0,1,2.7a.58.58,0,0,0,.07.13.4.4,0,0,0,.1.09l.1,0h.1Zm-1.05-1.15-.48-1.22-.24,1.35Z"/><path class="cls-64" d="M82.47,67.81l-.58.12q-.24-.41-.42-.7l-.41-.61-.23,0,.09,1a.48.48,0,0,0,0,.14.13.13,0,0,0,.08.08h.22v.16l-1,.2V68.1l.11,0,.1-.05a.2.2,0,0,0,.06-.1.44.44,0,0,0,0-.15l-.21-2.34a.55.55,0,0,0,0-.14.13.13,0,0,0-.08-.08l-.11,0H80V65l1-.17a.81.81,0,0,1,.27,0,.57.57,0,0,1,.23.1.58.58,0,0,1,.17.21.91.91,0,0,1,.09.34,1.27,1.27,0,0,1,0,.33.81.81,0,0,1-.09.26.85.85,0,0,1-.15.2,1.22,1.22,0,0,1-.2.16l.32.47.31.47a.9.9,0,0,0,.14.17l.12.08.1,0h.1Zm-1-2.21a.76.76,0,0,0-.16-.44A.35.35,0,0,0,81,65l-.27,0,.13,1.38.21,0a.49.49,0,0,0,.34-.27A1,1,0,0,0,81.45,65.6Z"/><path class="cls-64" d="M77.5,62.42l-5.7.69-.08-.82.84-.19a4.07,4.07,0,0,0,.76-.24.85.85,0,0,0,.38-.41,1.61,1.61,0,0,0,.07-.78l-.72-7.92-2.24,0-.09-1h.51a3,3,0,0,0,1.69-.41,2.57,2.57,0,0,0,1-.93l.7,0q0,.72.1,1.67t.13,1.72l.6,6.54a1.76,1.76,0,0,0,.19.68.9.9,0,0,0,.41.41,2.48,2.48,0,0,0,.71.14,5,5,0,0,0,.71,0Z"/><path class="cls-65" d="M81.19,48.09,81.1,48l.32.29Z"/><path class="cls-66" d="M36.43,78l3.76-4.52a3.07,3.07,0,0,1,2.49-1.11q2.68,0,2.68,2.36V88.27q0,2.36-2.68,2.36T40,88.27V80.79L36.43,85l-3.58-4.17v7.45q0,2.36-2.68,2.36T27.5,88.27V74.7q0-2.4,2.68-2.36a3.09,3.09,0,0,1,2.46,1.11Z"/><path class="cls-66" d="M65.89,81.31a9,9,0,0,1-2.75,6.86,9.68,9.68,0,0,1-7,2.62,9.59,9.59,0,0,1-6.93-2.62,10,10,0,0,1,0-13.73,9.59,9.59,0,0,1,7-2.63,9.57,9.57,0,0,1,7,2.63A9.17,9.17,0,0,1,65.89,81.31Zm-6.42-3.4a4.62,4.62,0,0,0-6.51,0,4.84,4.84,0,0,0-1.23,3.4A4.77,4.77,0,0,0,53,84.69a4.63,4.63,0,0,0,6.51,0,5.3,5.3,0,0,0,0-6.77Z"/><path class="cls-66" d="M78.09,80.5V74.7q0-2.36,2.68-2.36t2.68,2.36V88.27q0,2.36-2.68,2.36a2.92,2.92,0,0,1-2.36-1l-6-7.15v5.82q0,2.36-2.68,2.36T67,88.27V74.7q0-2.34,2.68-2.36a2.71,2.71,0,0,1,2.46,1.11Z"/><path class="cls-66" d="M87.49,90.63q-2.68,0-2.68-2.36V74.7q0-2.36,2.68-2.36H94a2.15,2.15,0,0,1,0,4.31H90.17v2.63h3.28q2.09,0,2.09,2.17t-2.09,2.17H90.17v2.71H94a2.15,2.15,0,0,1,0,4.31Z"/><path class="cls-66" d="M105.86,78.17l3-4a3.7,3.7,0,0,1,2.93-1.73,2.36,2.36,0,0,1,2.16.87,3,3,0,0,1,.55,1.57A3.88,3.88,0,0,1,114,76.6l-5.53,7.2v4.47q0,2.36-2.68,2.36t-2.68-2.36V83.8l-5.42-7.2a3.88,3.88,0,0,1-.49-1.67,3,3,0,0,1,.55-1.57,2.36,2.36,0,0,1,2.16-.87,3.7,3.7,0,0,1,2.93,1.73Z"/><path class="cls-57" d="M42.69,90.25c-2.52,0-3.05-1.48-3.05-2.73V81.06l-2.92,3.43a.37.37,0,0,1-.28.13h0a.37.37,0,0,1-.28-.13l-2.92-3.41v6.44c0,1.24-.53,2.73-3.05,2.73s-3.05-1.48-3.05-2.73V74c0-1.24.51-2.73,3-2.73h.09a3.46,3.46,0,0,1,2.74,1.24l3.51,4.18,3.48-4.18a3.44,3.44,0,0,1,2.78-1.24c2.52,0,3.05,1.48,3.05,2.73V87.53C45.74,88.77,45.21,90.25,42.69,90.25Z"/><path class="cls-67" d="M36.43,77.23l3.76-4.52a3.07,3.07,0,0,1,2.49-1.11q2.68,0,2.68,2.36V87.53q0,2.36-2.68,2.36T40,87.53V80.05l-3.58,4.2-3.58-4.17v7.45q0,2.36-2.68,2.36T27.5,87.53V74q0-2.4,2.68-2.36a3.09,3.09,0,0,1,2.46,1.11Z"/><path class="cls-57" d="M56.18,90.42A10,10,0,0,1,49,87.69a10.41,10.41,0,0,1,0-14.26,10,10,0,0,1,7.24-2.74,10,10,0,0,1,7.23,2.74,9.57,9.57,0,0,1,2.81,7.14,9.44,9.44,0,0,1-2.86,7.13A10.08,10.08,0,0,1,56.18,90.42Zm0-14.22a3.82,3.82,0,0,0-3,1.23,4.45,4.45,0,0,0-1.14,3.15,4.37,4.37,0,0,0,1.13,3.13,4.26,4.26,0,0,0,6,0,4.43,4.43,0,0,0,1.13-3.13,4.5,4.5,0,0,0-1.12-3.14A3.79,3.79,0,0,0,56.22,76.2Z"/><path class="cls-67" d="M65.89,80.57a9,9,0,0,1-2.75,6.86,9.68,9.68,0,0,1-7,2.62,9.59,9.59,0,0,1-6.93-2.62,10,10,0,0,1,0-13.73,9.59,9.59,0,0,1,7-2.63,9.57,9.57,0,0,1,7,2.63A9.17,9.17,0,0,1,65.89,80.57Zm-6.42-3.4a4.62,4.62,0,0,0-6.51,0,4.84,4.84,0,0,0-1.23,3.4A4.77,4.77,0,0,0,53,84a4.63,4.63,0,0,0,6.51,0,5.3,5.3,0,0,0,0-6.77Z"/><path class="cls-57" d="M80.77,90.25a3.29,3.29,0,0,1-2.64-1.16l-5.36-6.37v4.8c0,1.24-.53,2.73-3.05,2.73s-3.05-1.48-3.05-2.73V74c0-1.24.53-2.71,3.05-2.73h0a3.06,3.06,0,0,1,2.72,1.26l5.24,6.24V74c0-1.24.53-2.73,3.05-2.73s3.05,1.48,3.05,2.73V87.53C83.82,88.77,83.29,90.25,80.77,90.25Z"/><path class="cls-67" d="M78.09,79.75V74q0-2.36,2.68-2.36T83.45,74V87.53q0,2.36-2.68,2.36a2.92,2.92,0,0,1-2.36-1l-6-7.15v5.82q0,2.36-2.68,2.36T67,87.53V74q0-2.34,2.68-2.36a2.71,2.71,0,0,1,2.46,1.11Z"/><path class="cls-57" d="M87.49,90.25c-2.52,0-3.05-1.48-3.05-2.73V74c0-1.24.53-2.73,3.05-2.73H94a2.53,2.53,0,0,1,0,5H90.54v1.88h2.91a2.54,2.54,0,0,1,0,5.08H90.54v2H94a2.53,2.53,0,0,1,0,5Z"/><path class="cls-67" d="M87.49,89.88q-2.68,0-2.68-2.36V74q0-2.36,2.68-2.36H94a2.15,2.15,0,0,1,0,4.31H90.17v2.63h3.28q2.09,0,2.09,2.17t-2.09,2.17H90.17v2.71H94a2.15,2.15,0,0,1,0,4.31Z"/><path class="cls-57" d="M105.81,90.25c-2.52,0-3.05-1.48-3.05-2.73V83.18l-5.34-7.11,0-.06a4.2,4.2,0,0,1-.53-1.84,3.41,3.41,0,0,1,.61-1.77,2.7,2.7,0,0,1,2.47-1,4.06,4.06,0,0,1,3.22,1.88l2.71,3.57,2.71-3.57a4.06,4.06,0,0,1,3.22-1.88,2.7,2.7,0,0,1,2.47,1,3.41,3.41,0,0,1,.61,1.77,4.2,4.2,0,0,1-.53,1.84l0,.06-5.45,7.1v4.34C108.86,88.77,108.33,90.25,105.81,90.25Z"/><path class="cls-67" d="M105.86,77.42l3-4a3.7,3.7,0,0,1,2.93-1.73,2.36,2.36,0,0,1,2.16.87,3,3,0,0,1,.55,1.57,3.88,3.88,0,0,1-.49,1.67l-5.53,7.2v4.47q0,2.36-2.68,2.36t-2.68-2.36V83.06l-5.42-7.2a3.88,3.88,0,0,1-.49-1.67,3,3,0,0,1,.55-1.57,2.36,2.36,0,0,1,2.16-.87,3.7,3.7,0,0,1,2.93,1.73Z"/><path class="cls-56" d="M42.69,71.6a3.07,3.07,0,0,0-2.49,1.11l-3.76,4.52-3.79-4.52a3.09,3.09,0,0,0-2.46-1.11,2.48,2.48,0,0,0-2.34,1,2.85,2.85,0,0,1,2-.6,3.09,3.09,0,0,1,2.46,1.11l3.79,4.52,3.76-4.52A3.07,3.07,0,0,1,42.39,72q2.68,0,2.68,2.36V87.9a2.54,2.54,0,0,1-.34,1.36,2.24,2.24,0,0,0,.64-1.73V74Q45.37,71.6,42.69,71.6Z"/><path class="cls-56" d="M32.56,80.45V87.9a2.54,2.54,0,0,1-.34,1.36,2.24,2.24,0,0,0,.64-1.73V80.8Z"/><path class="cls-56" d="M48.93,74.06a9.59,9.59,0,0,1,7-2.63,9.57,9.57,0,0,1,7,2.63,9.17,9.17,0,0,1,2.7,6.87,9.3,9.3,0,0,1-1.82,5.83,10.1,10.1,0,0,0-.58-13.07,9.57,9.57,0,0,0-7-2.63,9.59,9.59,0,0,0-7,2.63,8.94,8.94,0,0,0-.86,1C48.55,74.46,48.73,74.26,48.93,74.06Z"/><path class="cls-56" d="M51.42,80.94a4.77,4.77,0,0,0,1.23,3.38,4.63,4.63,0,0,0,6.51,0,4.64,4.64,0,0,0,.32-.39v0A4.63,4.63,0,0,1,53,84a4.77,4.77,0,0,1-1.23-3.38,4.94,4.94,0,0,1,.91-3A4.85,4.85,0,0,0,51.42,80.94Z"/><path class="cls-56" d="M69.42,72a2.71,2.71,0,0,1,2.46,1.11l5.9,7v-.73l-5.6-6.68a2.71,2.71,0,0,0-2.46-1.11,2.55,2.55,0,0,0-2.34,1A2.94,2.94,0,0,1,69.42,72Z"/><path class="cls-56" d="M80.77,71.6a2.53,2.53,0,0,0-2.34,1,2.92,2.92,0,0,1,2-.62q2.68,0,2.68,2.36V87.9a2.54,2.54,0,0,1-.34,1.36,2.24,2.24,0,0,0,.64-1.73V74Q83.45,71.6,80.77,71.6Z"/><path class="cls-56" d="M72.1,82.08V87.9a2.54,2.54,0,0,1-.34,1.36,2.24,2.24,0,0,0,.64-1.73V82.43Z"/><path class="cls-56" d="M87.19,72h6.5a1.87,1.87,0,0,1,2.09,2.15,2.6,2.6,0,0,1-.29,1.3,2.16,2.16,0,0,0,.59-1.67A1.87,1.87,0,0,0,94,71.6h-6.5a2.53,2.53,0,0,0-2.34,1A2.92,2.92,0,0,1,87.19,72Z"/><path class="cls-56" d="M95.53,80.7q0-2.17-2.09-2.17H90.17V76.28h-.3v2.63h3.28q2.09,0,2.09,2.17a2.63,2.63,0,0,1-.29,1.31A2.18,2.18,0,0,0,95.53,80.7Z"/><path class="cls-56" d="M94,85.58H90.17V83.24h-.3v2.71h3.82a1.87,1.87,0,0,1,2.09,2.15,2.6,2.6,0,0,1-.29,1.3,2.16,2.16,0,0,0,.59-1.67A1.87,1.87,0,0,0,94,85.58Z"/><path class="cls-56" d="M99.63,72.11a3.7,3.7,0,0,1,2.93,1.73l3,4,.29-.38-3-3.94a3.7,3.7,0,0,0-2.93-1.73,2.36,2.36,0,0,0-2.16.87l0,.06A2.73,2.73,0,0,1,99.63,72.11Z"/><path class="cls-56" d="M114,72.61a2.36,2.36,0,0,0-2.16-.87,3.7,3.7,0,0,0-2.93,1.73l0,0a3.5,3.5,0,0,1,2.66-1.41,2.36,2.36,0,0,1,2.16.87,3,3,0,0,1,.55,1.57,3.89,3.89,0,0,1-.49,1.67l-5.53,7.2V87.9a2.54,2.54,0,0,1-.34,1.36,2.24,2.24,0,0,0,.64-1.73V83.06l5.53-7.2a3.89,3.89,0,0,0,.49-1.67A3,3,0,0,0,114,72.61Z"/></g></g></svg>
