<svg id="Layer_1" data-name="Layer 1" xmlns="http://www.w3.org/2000/svg" viewBox="0 0 293.55 138.81"><defs><style>.cls-1{fill:#d6c598;}.cls-2{fill:#401f16;}.cls-3{fill:#290e0e;}.cls-4{fill:#433127;}.cls-5{fill:#b94626;}.cls-6{fill:#fcdbd0;}.cls-7{fill:#8b3424;}.cls-8{fill:#3d4345;}.cls-9{fill:#b2b2aa;}.cls-10{fill:#3f3835;}.cls-11{fill:#434138;}.cls-12{fill:#7f6848;}.cls-13{fill:#7a523a;}.cls-14{fill:#8c5442;}.cls-15{fill:#2a1e14;}.cls-16{fill:#a45926;}.cls-17{fill:#cab896;}.cls-18{fill:#947b67;}.cls-19{fill:#8a705b;}.cls-20{fill:#938774;}.cls-21{fill:#bfb29b;}</style></defs><title>big-cicadas</title><path class="cls-1" d="M126.36,91.12c3,.21,4.92.33,4.92.33l3.24.23q-4.37.66-8.76,1.22-12.16,1.57-24.38,2.55c-8.14.66-16.31,1.14-24.47,1.32-3.87.08-7.75.1-11.63,0l-.79,0a531.57,531.57,0,0,0,61.88-5.65"/><path class="cls-2" d="M222.49,40.63a1,1,0,0,1,0,.77c-.1.24-.26.45-.34.68a1.74,1.74,0,0,0,.12,1.44,3.65,3.65,0,0,0,1,1.12c.4.31.84.57,1.26.86a4.66,4.66,0,0,1,1.15,1,3.23,3.23,0,0,1,.58,1.44,6.37,6.37,0,0,1-.41,3.06A13.92,13.92,0,0,1,222.16,56a43.3,43.3,0,0,1-4.82,3.82,107.42,107.42,0,0,1-10.55,6.29c-3.62,1.92-7.3,3.71-11,5.43-7.43,3.43-15,6.57-22.62,9.54s-15.31,5.79-23.1,8.31l-1.47.46c-.5.15-1,.28-1.51.4-1,.24-2,.44-3,.64-2,.39-4,.74-6.05,1.07-4,.66-8.09,1.23-12.15,1.76-8.12,1-16.26,1.92-24.42,2.56s-16.34,1.1-24.52,1.25a231.27,231.27,0,0,1-24.55-.69,111.59,111.59,0,0,1-12.18-1.71,60.91,60.91,0,0,1-6-1.5,35.71,35.71,0,0,1-5.75-2.25,18.93,18.93,0,0,1-5.06-3.56,10.15,10.15,0,0,1-2.78-5.53c-.06-.52-.08-1-.1-1.55s0-1,.08-1.55.09-1,.18-1.54.16-1,.27-1.52A31.41,31.41,0,0,1,23,70.24,51.83,51.83,0,0,1,29.25,59.7a90.27,90.27,0,0,1,8.08-9.25A166.44,166.44,0,0,1,56,34.52,227.15,227.15,0,0,1,76.47,21c3.53-2.06,7.12-4,10.79-5.87,1.83-.92,3.68-1.8,5.56-2.61a46.79,46.79,0,0,1,5.77-2.17A38.47,38.47,0,0,1,110.84,9.2,67.84,67.84,0,0,1,123,11.06a106.12,106.12,0,0,1,23,8.62l-.24,0,1.72-.37,1.74-.24,1.75-.12c.58,0,1.16,0,1.75,0,1.16,0,2.33,0,3.48.15.58,0,1.16.09,1.73.16s1.15.12,1.73.21a101,101,0,0,1,13.57,3c4.45,1.27,8.84,2.75,13.17,4.37s8.62,3.37,12.83,5.29l-.05,0c1.76.27,3.52.56,5.27.91.87.18,1.75.36,2.61.57.43.11.87.22,1.29.37s.85.29,1.27.44c1.67.62,3.32,1.31,4.95,2s3.25,1.45,4.86,2.21h-.09l2.77-2.06.09-.07v.12l.29,4.08m-.07,0h0l-.33-4.08.1,0-2.74,2.1,0,0,0,0q-2.43-1.11-4.88-2.14c-1.64-.69-3.29-1.36-5-2-.42-.14-.84-.29-1.26-.42s-.84-.24-1.28-.35c-.87-.2-1.73-.37-2.61-.54q-2.62-.49-5.25-.88h-.05c-4.2-1.89-8.49-3.62-12.82-5.22s-8.71-3-13.16-4.29a100.49,100.49,0,0,0-13.5-2.9c-.57-.09-1.14-.13-1.71-.2s-1.14-.12-1.72-.15c-1.14-.1-2.29-.13-3.44-.14-.57,0-1.15,0-1.72,0l-1.71.13-1.69.24-1.67.37-.13,0-.11-.06a110.56,110.56,0,0,0-11.19-4.9,101.57,101.57,0,0,0-11.65-3.68,67.24,67.24,0,0,0-12-1.9,37.93,37.93,0,0,0-12.08,1.08A46.33,46.33,0,0,0,93,13c-1.87.81-3.72,1.67-5.55,2.58-3.66,1.81-7.25,3.76-10.79,5.8A226.79,226.79,0,0,0,56.15,34.74,153.38,153.38,0,0,0,37.54,50.66a90,90,0,0,0-8,9.25,51.47,51.47,0,0,0-6.21,10.5,31,31,0,0,0-1.84,5.8c-.11.49-.19,1-.26,1.5s-.12,1-.17,1.51,0,1-.07,1.52,0,1,.1,1.51a9.7,9.7,0,0,0,2.68,5.23,18.43,18.43,0,0,0,4.94,3.43,35.17,35.17,0,0,0,5.67,2.19,60.34,60.34,0,0,0,5.93,1.45,111,111,0,0,0,12.12,1.63,237.88,237.88,0,0,0,24.48.6c8.17-.18,16.33-.65,24.47-1.32s16.28-1.5,24.38-2.55c4.05-.52,8.1-1.1,12.13-1.75,2-.33,4-.67,6-1.06,1-.2,2-.4,3-.63.49-.12,1-.24,1.46-.39l1.46-.45c7.77-2.49,15.47-5.26,23.11-8.17s15.2-6,22.64-9.39c3.72-1.69,7.4-3.46,11-5.35a107.05,107.05,0,0,0,10.55-6.21A43.1,43.1,0,0,0,222,55.75,13.7,13.7,0,0,0,225.64,51a6.18,6.18,0,0,0,.44-3,3.05,3.05,0,0,0-.54-1.38,4.52,4.52,0,0,0-1.11-1c-.42-.29-.86-.56-1.26-.88a3.77,3.77,0,0,1-1-1.18,1.84,1.84,0,0,1-.11-1.52c.1-.25.25-.45.35-.68a.92.92,0,0,0,0-.72"/><path class="cls-2" d="M66.27,37a8.75,8.75,0,0,0,1.18,1.45c.22.23.44.44.68.65s.47.42.71.61c.48.4,1,.77,1.49,1.13s1,.71,1.54,1.06,1.05.66,1.59,1,1.07.63,1.61.93c1.08.61,2.18,1.19,3.29,1.74,2.23,1.09,4.51,2.07,6.79,3L92,51.53l-.06,0,4.54,5c1.52,1.68,3.06,3.33,4.6,5l.17.18.25-.08c1.08-.36,2.19-.68,3.29-1l1.67-.41.84-.18c.28-.06.56-.12.84-.16l.84-.14.85-.11c.28,0,.56-.06.85-.08a8.19,8.19,0,0,1,.85,0c.28,0,.57,0,.84,0l.83.07.81.16.76.28.3.11.1-.26,1.33-3.41c.43-1.14.87-2.28,1.29-3.42l-.07,0c-.53,1.1-1,2.2-1.56,3.31l-1.52,3.33.4-.14-.85-.36-.88-.21-.89-.11a5.28,5.28,0,0,0-.58,0h-.31a8.74,8.74,0,0,0-.89,0c-.29,0-.59,0-.88.06l-.88.09-.87.13c-.29,0-.58.1-.86.15l-.86.17c-.57.12-1.14.27-1.7.41-1.13.3-2.24.64-3.34,1l.42.1c-1.57-1.63-3.13-3.27-4.72-4.88l-4.77-4.83,0,0h0c-.58-.21-1.15-.45-1.72-.68l-1.71-.71q-1.71-.73-3.38-1.53c-2.23-1.07-4.42-2.21-6.61-3.35s-4.38-2.28-6.49-3.54c-.53-.32-1.06-.63-1.57-1s-1-.67-1.52-1-1-.72-1.45-1.13A10.56,10.56,0,0,1,66.33,37l-.06,0"/><path class="cls-2" d="M135.24,15.39c-1.21-.35-2.43-.63-3.65-.9s-2.46-.49-3.7-.7-2.48-.38-3.73-.52-2.5-.24-3.76-.3-2.52-.11-3.78-.09-2.52.1-3.78.23a29.26,29.26,0,0,0-3.74.61,26.36,26.36,0,0,0-3.62,1.12,18.25,18.25,0,0,0-3.35,1.79,2,2,0,0,0-.36.36,1.54,1.54,0,0,0-.22.47,1.88,1.88,0,0,0,0,1,5.49,5.49,0,0,0,1,1.65,21.86,21.86,0,0,0,2.69,2.65c1,.81,2,1.58,3,2.33s2,1.47,3.07,2.18,2.07,1.4,3,2.16a29.61,29.61,0,0,1,2.81,2.43,17.7,17.7,0,0,1,2.37,2.78l.06.09.07,0,1.06.54.53.27.56.21,1.12.41,1.16.29a8.18,8.18,0,0,0,1.17.22c.39,0,.78.14,1.18.14l1.19.05c.4,0,.79,0,1.19,0s.79-.06,1.18-.1.79-.09,1.17-.17.78-.12,1.16-.23.77-.17,1.15-.29.76-.21,1.13-.34.75-.25,1.11-.4.73-.29,1.09-.46.71-.34,1.07-.53l.18-.1V34l.12-2.15c0-.36.08-.71.12-1.07l.14-1.07c0-.36.14-.7.21-1.05l.23-1,.31-1,.16-.51.21-.49c.14-.32.26-.66.43-1l.52-.93c.19-.3.41-.58.61-.87s.47-.53.7-.8.52-.48.8-.71a7.79,7.79,0,0,1,.89-.58,6.13,6.13,0,0,1,1-.45,4.8,4.8,0,0,1,1-.25V20a4.88,4.88,0,0,0-1.08.2,6.28,6.28,0,0,0-1,.4,8,8,0,0,0-1,.55c-.29.22-.59.44-.86.69s-.54.51-.77.8-.46.58-.67.88l-.58.95c-.19.32-.32.66-.48,1l-.23.5-.18.52-.37,1c-.1.35-.18.71-.26,1.07s-.19.71-.24,1.08l-.17,1.09c0,.36-.13.72-.15,1.09L137.32,34l.19-.31a20,20,0,0,1-2.08.9c-.35.14-.72.25-1.08.38s-.73.22-1.09.33-.74.18-1.11.27-.75.14-1.12.21a11.35,11.35,0,0,1-1.13.15,11.2,11.2,0,0,1-1.13.09c-.38,0-.76,0-1.14,0L126.5,36a11.16,11.16,0,0,1-1.13-.12,7.6,7.6,0,0,1-1.12-.19l-1.1-.26-1.07-.38-.53-.19-.51-.25-1-.5.13.13a17.1,17.1,0,0,0-2.53-2.89A30.27,30.27,0,0,0,114.7,29c-1-.74-2.09-1.41-3.15-2.07s-2.1-1.36-3.12-2.08-2-1.46-3-2.26a18.57,18.57,0,0,1-2.67-2.6,5.26,5.26,0,0,1-.91-1.57,1.6,1.6,0,0,1,0-.85,1.25,1.25,0,0,1,.18-.37,1.61,1.61,0,0,1,.31-.29,16.79,16.79,0,0,1,3.32-1.63,26.17,26.17,0,0,1,3.59-1c.61-.11,1.22-.22,1.84-.29l.92-.13.93-.09c1.24-.12,2.48-.17,3.72-.19s2.49,0,3.73,0,2.49.14,3.73.25,2.48.24,3.72.4,2.47.35,3.71.54,2.46.43,3.69.68l0-.08"/><path class="cls-2" d="M102,19a7.36,7.36,0,0,0-1.35-.48A11.87,11.87,0,0,0,98,18.21h-.18c-.48,0-1,.05-1.43.08s-.94.16-1.42.24-.93.25-1.39.37-.9.33-1.35.49a10.51,10.51,0,0,0-1.31.58,13.81,13.81,0,0,0-1.27.66l-1.22.75a13.25,13.25,0,0,0-1.17.82l-1.15.85L85,24c-.36.32-.73.62-1.07.95-.67.67-1.33,1.36-2,2l.21-.11a20.29,20.29,0,0,0-2.39.51c-.39.1-.78.23-1.16.34l-1.14.41-1.12.46-1.1.52c-.37.17-.71.38-1.07.57s-.7.4-1,.62-.69.42-1,.66l-1,.71-.93.78a10.62,10.62,0,0,0-.9.81c-.29.28-.59.55-.86.85l-.8.91a9.06,9.06,0,0,0-.75.95l-.71,1,.06,0a23.67,23.67,0,0,0-3.92,1.76c-.32.17-.62.36-.93.55s-.61.39-.91.58-.6.4-.88.62-.58.42-.85.66l-.82.7-.78.75c-.27.24-.49.53-.73.8a9.24,9.24,0,0,0-.69.83L55.1,45c-.2.3-.38.62-.56.93l-.28.47-.23.5-.45,1,.21-.19c-.66.19-1.29.41-1.92.65s-1.25.5-1.86.8a22.25,22.25,0,0,0-3.49,2.05,14,14,0,0,0-3,2.82,9.6,9.6,0,0,0-.59.86,9.48,9.48,0,0,0-.5.92,8.77,8.77,0,0,0-.37,1,9.34,9.34,0,0,0-.26,1l.27-.31a7.7,7.7,0,0,0-.89.42c-.28.15-.55.32-.82.48s-.53.35-.78.54-.5.38-.74.59a9.44,9.44,0,0,0-.7.64,9.17,9.17,0,0,0-.66.68c-.21.24-.43.46-.62.71l-.58.74-.53.78a9.22,9.22,0,0,0-.49.81c-.15.27-.32.54-.45.82l-.4.85a8.19,8.19,0,0,0-.37.86l-.34.87c-.11.29-.19.59-.28.89l-.27.89,0-.09c-.63,1-1.2,2.09-1.73,3.18s-1,2.18-1.46,3.3c-.11.28-.22.56-.32.85s-.21.57-.29.85c-.18.58-.35,1.16-.47,1.75-.08.29-.13.59-.18.89a8.52,8.52,0,0,0-.13.89c0,.3-.07.6-.07.9v.9h.08l0-.89c0-.3.08-.59.11-.89a8.4,8.4,0,0,1,.17-.87c.06-.29.13-.58.22-.86s.16-.57.26-.85l.3-.84c.1-.28.21-.56.32-.83s.22-.55.34-.82c.47-1.1,1-2.16,1.56-3.21.28-.53.57-1,.87-1.56s.6-1,.92-1.52l0,0,0-.05.28-.86c.1-.29.18-.58.29-.86l.34-.84a7.79,7.79,0,0,1,.37-.83l.4-.81c.14-.27.3-.52.45-.78a8.67,8.67,0,0,1,.48-.76l.51-.74.56-.7c.18-.24.4-.45.59-.67a8.51,8.51,0,0,1,.63-.64,8.76,8.76,0,0,1,.67-.6q.34-.3.7-.56c.24-.18.49-.34.73-.51s.51-.31.77-.45a7.12,7.12,0,0,1,.78-.36l.21-.08.06-.23a8.54,8.54,0,0,1,.24-.91,8,8,0,0,1,.34-.88,9.47,9.47,0,0,1,.45-.84,8.78,8.78,0,0,1,.53-.8A13.26,13.26,0,0,1,47,51.82a21.52,21.52,0,0,1,3.35-2c.59-.29,1.19-.56,1.8-.81s1.23-.48,1.84-.67l.15,0,.06-.15.41-1,.21-.48.26-.46c.17-.3.33-.62.51-.92l.6-.87a8.89,8.89,0,0,1,.65-.83,10.54,10.54,0,0,1,.69-.8l.74-.76.79-.71c.26-.24.54-.45.82-.67s.56-.44.85-.63.57-.42.88-.6.6-.38.91-.55a23.44,23.44,0,0,1,3.86-1.78h0l0,0,.71-1a8.91,8.91,0,0,1,.75-.93l.8-.88c.27-.29.58-.55.86-.82a9.39,9.39,0,0,1,.9-.78l.94-.73,1-.66c.32-.23.67-.42,1-.62s.68-.4,1-.57.7-.36,1.07-.52l1.09-.47,1.11-.41c.75-.25,1.5-.49,2.27-.69a19.78,19.78,0,0,1,2.3-.47l.12,0,.09-.09c.66-.67,1.32-1.33,2-2,.33-.33.69-.63,1-.94l1-.94,1.12-.85a12.8,12.8,0,0,1,1.14-.82l1.18-.75c.39-.26.82-.44,1.23-.67a10.09,10.09,0,0,1,1.26-.61c.43-.17.85-.38,1.3-.52s.89-.28,1.34-.4.91-.2,1.37-.28.93-.13,1.39-.14a11.41,11.41,0,0,1,1.4,0,9.81,9.81,0,0,1,1.39.17,7.38,7.38,0,0,1,1.35.38l0-.07"/><path class="cls-2" d="M119.88,34.46a.71.71,0,0,0,0-.19.78.78,0,0,0-.3-.47,1,1,0,0,0-.38-.18,2.47,2.47,0,0,0-.48,0l-.51.08a5.23,5.23,0,0,0-.52.18,6.33,6.33,0,0,0-1.07.57,11.32,11.32,0,0,0-1,.87,11.82,11.82,0,0,1-1,.94,13.73,13.73,0,0,1-1.15.88,21.15,21.15,0,0,0-2.19,1.83c-.33.31-.64.62-.92.93s-.54.6-.77.88a19.75,19.75,0,0,0-1.42,2l.06.05A19.92,19.92,0,0,0,110,41.21l.85-.8c.3-.28.6-.59.91-.92s.62-.67,1-1,.63-.72,1-1.08a13.44,13.44,0,0,1,1-1,8.34,8.34,0,0,1,1.14-.79c.39-.23.78-.41,1.12-.63l.51-.28a3,3,0,0,1,.47-.26c.15-.07.3-.16.44-.21l.4-.14c.12,0,.24,0,.34,0s.2,0,.27,0a.64.64,0,0,1,.33.25.65.65,0,0,1,.08.14h.08"/><path class="cls-2" d="M200.25,32.45c1.23.73,2.47,1.43,3.71,2.14s2.49,1.4,3.73,2.1,2.49,1.41,3.74,2.09l3.75,2.06-.09-.51a5.9,5.9,0,0,0-1.34,2.46,2.17,2.17,0,0,0,.19,1.52c.24.48.78.78,1,1a1.49,1.49,0,0,1,.31,1,3.2,3.2,0,0,1-.26,1.16,4.41,4.41,0,0,1-1.52,1.9,3.5,3.5,0,0,1-2.33.62,4.27,4.27,0,0,1-1.21-.31l-1.21-.53-4.9-2q-2.45-1-4.88-2T194.06,43l-9.69-4.26c-3.23-1.42-6.46-2.84-9.67-4.29l-4.82-2.16-4.8-2.21c-1.6-.74-3.2-1.48-4.78-2.24s-3.16-1.55-4.73-2.35-3.12-1.63-4.63-2.53c-.75-.45-1.5-.91-2.21-1.43a6.43,6.43,0,0,1-1.86-1.81l-.07,0a3.89,3.89,0,0,0,.8,1.07,11.42,11.42,0,0,0,1,.88c.69.55,1.42,1.06,2.16,1.55,1.49,1,3,1.85,4.56,2.71s3.12,1.67,4.69,2.47,3.16,1.59,4.75,2.34,3.2,1.5,4.8,2.23,3.21,1.47,4.83,2.17c3.24,1.41,6.48,2.8,9.74,4.16s6.53,2.67,9.8,4q2.46,1,4.9,2c1.63.67,3.26,1.34,4.88,2s3.25,1.38,4.84,2.12l1.19.57a4.72,4.72,0,0,0,1.33.39,4,4,0,0,0,2.7-.62,4.79,4.79,0,0,0,1.8-2.13,3.85,3.85,0,0,0,.32-1.4,2.14,2.14,0,0,0-.47-1.46l-.15-.16-.13-.1-.08-.07-.05,0-.11-.09a.71.71,0,0,1-.19-.19c0-.07-.12-.13-.15-.22a1.57,1.57,0,0,1-.12-1.05,5.28,5.28,0,0,1,1.15-2.15l.27-.32-.35-.19-3.78-2c-1.26-.68-2.53-1.32-3.8-2s-2.53-1.32-3.81-2-2.54-1.3-3.83-1.93l0,.07"/><path class="cls-2" d="M209.53,49.72a8.2,8.2,0,0,0-.85.45,9.55,9.55,0,0,0-2.12,1.72,6.21,6.21,0,0,0-1.08,1.65,8.74,8.74,0,0,0-.36,1.05,3.82,3.82,0,0,1-.2.53c-.09.16-.17.32-.27.47a8.21,8.21,0,0,1-1.71,1.79,11.73,11.73,0,0,1-2.36,1.48,10.2,10.2,0,0,1-2.85.91l-.38.05H197a3.85,3.85,0,0,1-.76,0,1.45,1.45,0,0,1-.37-.08l-.38-.11c-.27-.09-.52-.19-.83-.26a31,31,0,0,0-3.5-.53,3.82,3.82,0,0,1-1.58-.57,2.62,2.62,0,0,1-.95-1.38l-.12-.43-.09-.46c-.05-.31-.1-.61-.13-.92-.08-.62-.06-1.26-.19-1.92a2.2,2.2,0,0,0-.42-.93,2.85,2.85,0,0,0-.77-.66,10.53,10.53,0,0,0-1.82-.78c-1.25-.41-2.52-.75-3.79-1.13l-3.81-1.16-7.57-2.35c-2.5-.77-5-1.54-7.32-2.31s-4.66-1.49-6.82-2.22-4.2-1.42-6.08-2.08-3.57-1.32-5.08-1.91-2.78-1.18-3.82-1.68a16.68,16.68,0,0,1-2.32-1.34,4.84,4.84,0,0,1-.55-.44l-.18-.16-.06.05.18.17a5,5,0,0,0,.53.48,16.87,16.87,0,0,0,2.26,1.5,70.27,70.27,0,0,0,8.81,4c1.86.72,3.89,1.47,6.06,2.2s4.45,1.51,6.83,2.24,4.85,1.47,7.37,2.2,5.08,1.43,7.65,2.11,5.15,1.35,7.64,2.1a8.6,8.6,0,0,1,1.76.77,2.09,2.09,0,0,1,1,1.43,17.75,17.75,0,0,1,.13,1.89c0,.32.05.65.09,1l.07.46.12.48a3.07,3.07,0,0,0,1.05,1.65,4.33,4.33,0,0,0,1.77.73c1.21.25,2.38.3,3.43.6a8,8,0,0,1,.79.26,5.45,5.45,0,0,0,.87.23,4.53,4.53,0,0,0,.88.05l.43,0,.42-.07a10.85,10.85,0,0,0,3-1,12.34,12.34,0,0,0,2.45-1.59,8,8,0,0,0,1.77-2c.11-.19.2-.39.29-.58a4.14,4.14,0,0,0,.18-.56,8.3,8.3,0,0,1,.3-1,6.5,6.5,0,0,1,.94-1.6,9.51,9.51,0,0,1,2-1.8,8.14,8.14,0,0,1,.8-.51l0-.07"/><path class="cls-2" d="M89.92,66.12l7.55,6.83.08-.27L83.72,74.83l-.53.08.4.37L93.09,84l.07.07h.1q6,.84,12.05,1.27,3,.21,6.06.24a57.79,57.79,0,0,0,6.08-.22,24.82,24.82,0,0,0,3-.47,9.09,9.09,0,0,0,2.91-1.12,3.94,3.94,0,0,0,.64-.52,3,3,0,0,0,.48-.68c.24-.44.48-.89.69-1.36.44-.92.81-1.86,1.25-2.75a13.06,13.06,0,0,1,3.73-4.57,33.35,33.35,0,0,1,5.05-3.25c.89-.48,1.77-.95,2.69-1.37l1.36-.65,1.38-.61c1.83-.83,3.7-1.6,5.52-2.47a55.53,55.53,0,0,0,5.37-2.81c.22-.12.42-.28.64-.42a7.59,7.59,0,0,0,.62-.44,10.86,10.86,0,0,0,1.13-1l.13-.08.15,0h.35l.75,0c.51,0,1,.08,1.52.08a11,11,0,0,0,1.52-.08c.51-.06,1-.11,1.51-.22,1-.16,2-.4,3-.63,2-.49,3.9-1.07,5.83-1.67q5.77-1.85,11.42-4l.81-.31-.87-.17c-.88-.18-1.77-.31-2.64-.56l-1.31-.34-1.3-.39c-.87-.26-1.74-.52-2.6-.8s-1.73-.55-2.59-.85Q167,50,164.43,49l-5.13-1.86c-3.41-1.25-6.81-2.54-10.21-3.84l-5.09-2-2.55-1-1.28-.49-.64-.24a6.93,6.93,0,0,0-.78-.24l.18,0-7.36-3.7-.07,0h-.07a16.16,16.16,0,0,0-2.47,0,8,8,0,0,0-2.48.5,3,3,0,0,0-1.13.79,2,2,0,0,0-.47,1.38,4.88,4.88,0,0,0,1,2.4,14.72,14.72,0,0,0,1.6,1.88c.29.29.57.58.87.85l.45.41.11.1.13.11.23.19a19.18,19.18,0,0,0,1.94,1.47c.34.23.68.47,1,.68l1.06.61c.69.42,1.44.75,2.16,1.12s1.48.66,2.22,1,1.5.6,2.27.85,1.53.53,2.3.76,1.55.46,2.32.67,1.56.41,2.35.59c1.57.37,3.15.68,4.75.93h0l14.15.58,14.15.51V54l-14.14-.8-14.14-.74h0c-1.57-.26-3.14-.59-4.69-1-.78-.19-1.55-.39-2.32-.61s-1.54-.44-2.29-.69-1.51-.51-2.27-.77-1.49-.58-2.23-.87-1.46-.64-2.17-1-1.43-.7-2.1-1.12l-1-.6c-.34-.21-.65-.44-1-.66s-.65-.42-1-.69l-.93-.76-.23-.19-.1-.08-.11-.1-.43-.41c-.3-.27-.57-.55-.85-.83a14,14,0,0,1-1.51-1.79,4.19,4.19,0,0,1-.85-2,1.19,1.19,0,0,1,.28-.84,2.2,2.2,0,0,1,.83-.56,7.25,7.25,0,0,1,2.22-.44,15.4,15.4,0,0,1,2.34,0l-.14,0,7.35,3.72.18,0,2.43.9,2.55,1,5.1,1.93c3.41,1.28,6.81,2.55,10.24,3.79,1.71.62,3.42,1.23,5.15,1.83s3.44,1.18,5.18,1.74c.86.29,1.74.55,2.6.83s1.74.53,2.62.78l1.32.37,1.33.33c.88.24,1.8.38,2.7.55l-.06-.49c-3.74,1.5-7.52,2.89-11.35,4.14-1.92.62-3.84,1.2-5.79,1.71-1,.24-2,.48-2.94.65-.49.11-1,.16-1.48.22a10.73,10.73,0,0,1-1.5.09c-.48,0-1,0-1.5-.06l-.76,0-.4,0-.22.06a1.57,1.57,0,0,0-.19.12,11,11,0,0,1-1.12,1,7.36,7.36,0,0,1-.6.44c-.21.14-.41.29-.63.42a46.63,46.63,0,0,1-5.34,2.79c-1.82.86-3.69,1.61-5.53,2.44l-1.39.61-1.37.65c-.92.42-1.82.88-2.72,1.34a33.71,33.71,0,0,0-5.16,3.21A13.52,13.52,0,0,0,126,78.29c-.47.91-.85,1.85-1.29,2.74-.21.45-.45.89-.7,1.33a2.48,2.48,0,0,1-.93,1,8.53,8.53,0,0,1-2.72,1,24.78,24.78,0,0,1-3,.44,80.79,80.79,0,0,1-12-.07c-4-.26-8-.66-12-1.2l.17.08L83.94,74.9l-.13.45L97.6,73l.32-.06-.25-.21L90,66.06l-.05.06"/><path class="cls-2" d="M151.7,52.68c-2.81-.68-5.66-1.19-8.52-1.63-.71-.11-1.43-.2-2.15-.29l-2.16-.25-2.16-.21c-.72-.07-1.44-.11-2.17-.15s-1.45-.07-2.17-.09-1.45,0-2.17,0-1.45,0-2.17.08-1.45.1-2.17.18-1.44.18-2.16.3c-.36,0-.71.13-1.07.2s-.71.15-1.06.26l-.53.14-.52.18-.52.18-.5.22a7.61,7.61,0,0,0-1.87,1.15h.19c-1.54-1.66-3.05-3.34-4.57-5L111,45.42l-2.3-2.5,0,0-.07,0c-1.16-.55-2.32-1.12-3.47-1.7l-3.44-1.75q-1.72-.87-3.43-1.77C97.1,37,96,36.41,94.84,35.79Q91.45,34,88.18,31.91c-.54-.35-1.08-.69-1.61-1.06s-1.05-.74-1.56-1.12-1-.78-1.49-1.21a10.39,10.39,0,0,1-1.32-1.39l-.06,0a10.53,10.53,0,0,0,1.24,1.5c.45.47.93.9,1.43,1.32s1,.82,1.52,1.21,1,.77,1.57,1.14c1.06.75,2.15,1.44,3.25,2.12s2.21,1.34,3.33,2c2.25,1.28,4.53,2.49,6.83,3.67,1.15.59,2.31,1.15,3.48,1.71s2.33,1.11,3.51,1.65l-.11-.08,2.36,2.44,2.37,2.43c1.58,1.62,3.18,3.22,4.74,4.86l.09.09.1-.09A7.36,7.36,0,0,1,119.62,52l.49-.22.51-.17.51-.17.52-.13q.52-.14,1-.23c.35-.07.7-.14,1.06-.18.71-.11,1.43-.16,2.14-.22s1.43-.07,2.15-.07,1.44,0,2.15,0,1.44.05,2.15.08,1.44.07,2.15.12l2.15.16,2.15.18c1.43.13,2.86.29,4.29.46s2.86.34,4.29.54,2.86.39,4.28.61l0-.08"/><path class="cls-2" d="M101.35,61.22l-1.46.52c-.48.18-1,.35-1.45.54L95.54,63.4c-1.92.77-3.83,1.55-5.72,2.37h.24c-1.61-.53-3.24-1-4.86-1.5-.81-.24-1.62-.5-2.42-.77s-1.61-.51-2.38-.86c-1.56-.65-3.1-1.37-4.63-2.1l-4.58-2.2-2.28-1.12-2.26-1.15L64.4,54.91l-2.24-1.19Q61,53.12,60,52.49T57.8,51.17c-.71-.46-1.4-.93-2.06-1.45A11.25,11.25,0,0,1,53.91,48l-.06,0A10.23,10.23,0,0,0,55.52,50a25.06,25.06,0,0,0,2,1.62c.68.51,1.39,1,2.11,1.45s1.44.91,2.18,1.34q2.2,1.29,4.49,2.43c1.52.76,3.06,1.47,4.61,2.18s3.11,1.37,4.68,2l4.73,1.89.59.23.61.2,1.2.42q1.2.43,2.38.88c1.59.6,3.16,1.22,4.76,1.79l.12,0,.12-.05c1.91-.78,3.8-1.62,5.69-2.46l2.82-1.3c.47-.21.93-.45,1.4-.67l1.39-.69,0-.07"/><path class="cls-2" d="M83.77,75.05q-1.82-.42-3.65-.76c-1.22-.24-2.44-.45-3.67-.66s-2.45-.4-3.68-.56-2.47-.29-3.7-.43h0c-.6-.22-1.21-.45-1.8-.69s-1.19-.49-1.78-.75l-1.76-.8L62,69.59,58.6,67.85c-1.14-.59-2.3-1.16-3.43-1.76s-2.27-1.2-3.39-1.82c-.56-.3-1.13-.61-1.69-.92l-1.67-.95c-.55-.33-1.1-.65-1.64-1s-1.08-.69-1.6-1.05-1-.75-1.53-1.15a10.29,10.29,0,0,1-1.37-1.34l-.06,0a8.92,8.92,0,0,0,1.23,1.52,16.31,16.31,0,0,0,1.45,1.31c.5.41,1,.82,1.55,1.18S47.5,62.64,48,63a62.07,62.07,0,0,0,6.77,3.78c1.16.57,2.32,1.13,3.5,1.65s2.37,1,3.56,1.52l1.79.74,1.78.76c.6.25,1.18.51,1.77.77L69,73h0c1.22.23,2.44.48,3.66.7s2.45.39,3.68.56,2.46.33,3.69.46,2.47.27,3.71.37v-.08"/><path class="cls-2" d="M93.29,83.77l-11.76.48-2.93.09-2.93.08c-.49,0-1,0-1.47,0s-1,0-1.46,0-1-.06-1.46-.11A10.31,10.31,0,0,1,69.86,84h-.08a18.57,18.57,0,0,1-5,.51,13,13,0,0,1-2.51-.33,10,10,0,0,1-2.35-.86c-3-1.54-6.09-3.08-9.1-4.69q-2.25-1.21-4.49-2.44c-1.49-.83-3-1.67-4.44-2.53q-1.1-.65-2.17-1.34c-.72-.46-1.43-.92-2.13-1.41s-1.38-1-2-1.53a12.45,12.45,0,0,1-1.81-1.78l-.06,0a11.31,11.31,0,0,0,1.68,2,25.22,25.22,0,0,0,2,1.68q1,.8,2.07,1.54t2.14,1.43q2.16,1.4,4.4,2.66t4.52,2.44c3,1.56,6.12,3.07,9.26,4.44a10.9,10.9,0,0,0,2.49.78,16,16,0,0,0,2.58.24,20.45,20.45,0,0,0,2.57-.13,23.21,23.21,0,0,0,2.55-.41h-.08a12.2,12.2,0,0,0,1.46.32c.49.08,1,.16,1.47.19s1,.1,1.48.12,1,.06,1.48.08l1.48,0h1.48c1,0,2,0,2.95-.09,2-.09,3.92-.22,5.88-.41s3.91-.39,5.86-.67v-.08"/><path class="cls-2" d="M193.92,59.51c-2.73,1.64-5.51,3.2-8.31,4.72s-5.62,3-8.46,4.45q-2.13,1.08-4.28,2.13c-1.43.7-2.87,1.38-4.31,2.05s-2.89,1.33-4.35,2-2.92,1.27-4.38,1.89a155,155,0,0,1-18,6.36l-2.3.63-2.31.56c-.77.2-1.55.33-2.33.5l-1.17.24-1.17.19c-1.56.28-3.14.46-4.71.62-.79.05-1.58.13-2.37.17l-2.37,0,.13,0-3.16-1.57-.46-.23.07.53a2.63,2.63,0,0,1-.26,1.34,4.63,4.63,0,0,1-.8,1.22,9.45,9.45,0,0,1-2.36,1.86c-.43.27-.9.48-1.35.71s-.93.43-1.41.6-1,.37-1.45.52-1,.32-1.47.45c-1,.29-2,.51-3,.73l-1.51.3-1.52.26c-1,.18-2,.28-3.06.43s-2,.23-3.08.31-2.05.18-3.08.23-2.06.13-3.09.16-2.06.08-3.09.1l-3.09,0L83,94c-.66,0-1.33,0-2,0l-1.1,0c-2.06,0-4.12-.14-6.18-.21h0q-7.68-2.31-15.41-4.43-3.86-1.06-7.75-2.07c-1.29-.33-2.59-.67-3.89-1s-2.62-.58-3.94-.81c-2.64-.48-5.29-.85-7.93-1.24A37.19,37.19,0,0,1,31,83.49l-.21-.06-.23-.09c-.15-.06-.32-.11-.46-.18l-.38-.22a3.27,3.27,0,0,1-.36-.27,3.47,3.47,0,0,1-1-1.48,7.79,7.79,0,0,1-.09-3.77,21.86,21.86,0,0,1,1.1-3.77c.47-1.23,1-2.44,1.62-3.62s1.24-2.35,1.94-3.46l0,0,0-.06.27-.86c.1-.29.17-.58.28-.86l.34-.84a7.73,7.73,0,0,1,.36-.83l.4-.81c.13-.27.3-.52.45-.78a8.69,8.69,0,0,1,.47-.77L36,60l.56-.7c.18-.24.39-.45.59-.68a8.53,8.53,0,0,1,.63-.64,8.76,8.76,0,0,1,.66-.6q.34-.3.7-.56c.23-.18.49-.35.73-.51s.5-.31.77-.45a7.16,7.16,0,0,1,.78-.37l.21-.08.05-.23a8.56,8.56,0,0,1,.24-.92,8,8,0,0,1,.34-.88,9.08,9.08,0,0,1,.45-.84,8.85,8.85,0,0,1,.53-.79A13.26,13.26,0,0,1,46,49a21.5,21.5,0,0,1,3.36-2q.88-.43,1.8-.79c.61-.24,1.23-.47,1.84-.65l.18-.05.08-.19.42-1,.21-.48.26-.45c.18-.3.34-.61.52-.9l.6-.85a8.79,8.79,0,0,1,.65-.82,10.41,10.41,0,0,1,.69-.78l.74-.75.79-.69c.26-.24.54-.44.82-.66s.56-.43.85-.62.57-.41.88-.58.59-.38.9-.54.61-.35.93-.5.63-.32.95-.46a19.22,19.22,0,0,1,1.94-.79l.1,0,.07-.09.7-1A8.76,8.76,0,0,1,67,32.5l.78-.89c.27-.29.56-.55.85-.83a9.79,9.79,0,0,1,.88-.79l.92-.75,1-.68c.32-.24.66-.43,1-.64s.67-.42,1-.59.69-.38,1.05-.54l1.08-.49,1.1-.44,1.12-.39c.38-.11.76-.23,1.14-.34a19.87,19.87,0,0,1,2.31-.49h.08l.06-.06,2.07-2.12,1.12-1c.38-.32.73-.67,1.13-1l1.2-.87c.2-.14.4-.29.6-.43l.64-.38c.43-.25.84-.51,1.28-.75l1.34-.63a12,12,0,0,1,1.38-.54l.7-.25c.24-.07.48-.13.72-.19A11.86,11.86,0,0,1,95,16.16,12.88,12.88,0,0,1,96.48,16a12.2,12.2,0,0,1,1.48,0h.26l.48,0,.74.07a7.32,7.32,0,0,1,.73.11c.24,0,.49.08.73.15a8.88,8.88,0,0,1,1.41.44l0-.07a9,9,0,0,0-1.42-.47c-.24-.07-.49-.12-.73-.16a7.43,7.43,0,0,0-.74-.12l-.74-.09-.75,0a12.37,12.37,0,0,0-1.5,0,13,13,0,0,0-1.49.16,12.06,12.06,0,0,0-1.47.3c-.24.06-.49.11-.73.18l-.71.24a12.19,12.19,0,0,0-1.41.52l-1.37.62c-.44.24-.87.49-1.31.74l-.65.38c-.21.14-.41.29-.62.43l-1.23.87c-.41.29-.77.64-1.16,1l-1.14,1-2.12,2.13.14-.07a20.24,20.24,0,0,0-2.38.48c-.39.1-.78.22-1.16.33l-1.15.39-1.13.44-1.11.49c-.37.16-.72.36-1.08.54s-.71.39-1.06.59-.7.4-1,.64l-1,.69-.95.76a10.2,10.2,0,0,0-.91.8c-.29.28-.6.55-.88.84l-.81.91a9.19,9.19,0,0,0-.76.95l-.73,1,.17-.13a19.74,19.74,0,0,0-2,.8c-.33.14-.65.31-1,.47s-.64.34-1,.51-.62.37-.93.55-.61.39-.91.59-.6.41-.88.63-.59.43-.85.67l-.82.71-.78.77c-.27.25-.49.54-.73.81a9.36,9.36,0,0,0-.69.85l-.64.89c-.19.31-.37.63-.55.95l-.27.48-.22.5-.44,1,.26-.24c-.66.2-1.29.42-1.92.67s-1.25.52-1.85.81a22.29,22.29,0,0,0-3.49,2.07,14.06,14.06,0,0,0-2.95,2.84,9.63,9.63,0,0,0-.58.86,9.86,9.86,0,0,0-.49.92,8.77,8.77,0,0,0-.38,1,9.33,9.33,0,0,0-.26,1l.26-.31a7.71,7.71,0,0,0-.89.41c-.28.15-.55.31-.82.48s-.53.35-.78.54-.5.38-.74.59a9.44,9.44,0,0,0-.7.63,9.2,9.2,0,0,0-.66.67c-.21.24-.44.46-.62.71l-.59.74-.53.78a9.28,9.28,0,0,0-.5.8c-.15.27-.32.54-.46.82l-.41.85a8.24,8.24,0,0,0-.37.86l-.35.87c-.11.29-.19.59-.29.89l-.28.89,0-.11c-.71,1.16-1.35,2.33-2,3.54s-1.16,2.43-1.64,3.7a22.6,22.6,0,0,0-1.13,3.91,8.48,8.48,0,0,0,.14,4.15,4.21,4.21,0,0,0,1.23,1.78,4,4,0,0,0,.44.33l.49.27c.16.08.32.12.47.19l.23.09.27.08a35.58,35.58,0,0,0,4,.73c2.65.37,5.29.71,7.92,1.16,1.31.22,2.62.48,3.92.77s2.59.61,3.89.93q3.89,1,7.76,2Q66,91.81,73.66,94.07h0c2.06.06,4.13.15,6.19.17l1.1,0c.67,0,1.33,0,2,0h3.1l3.1-.05c1,0,2.06-.06,3.1-.09s2.06-.1,3.09-.15,2.06-.15,3.09-.21,2.06-.2,3.09-.3,2.05-.24,3.07-.41l1.53-.24,1.53-.28c1-.21,2-.42,3-.7.5-.12,1-.28,1.49-.43s1-.33,1.47-.51,1-.4,1.45-.59.95-.44,1.39-.72a9.9,9.9,0,0,0,2.5-1.93,5.14,5.14,0,0,0,.9-1.34,3.07,3.07,0,0,0,.31-1.66l-.39.3L123,86.58l.06,0h2.47c.8,0,1.6-.09,2.4-.14,1.59-.15,3.19-.33,4.77-.61l1.19-.19,1.18-.23c.78-.17,1.57-.3,2.35-.49l2.33-.55,2.32-.62a154.45,154.45,0,0,0,18-6.47c1.47-.63,2.93-1.26,4.38-1.92s2.9-1.34,4.34-2,2.87-1.39,4.3-2.11,2.85-1.44,4.26-2.18q4.24-2.21,8.4-4.59c2.77-1.58,5.52-3.2,8.22-4.89l0-.07"/><path class="cls-2" d="M73.71,93.87l-2-.15-5.22-.33L63,93.21l-3.9-.13c-1.35,0-2.75-.12-4.16-.27l-2.13-.25-2.14-.33c-1.42-.24-2.84-.49-4.24-.75s-2.76-.54-4.07-.85-2.57-.64-3.74-1a32.91,32.91,0,0,1-3.26-1.14,14,14,0,0,1-2.54-1.37,5.89,5.89,0,0,1-1.56-1.54,3.57,3.57,0,0,1-.53-1.31c0-.33-.06-.51-.06-.51h-.08s0,.18,0,.53A3.72,3.72,0,0,0,31,85.75a5.91,5.91,0,0,0,1.52,1.78,12.19,12.19,0,0,0,2.56,1.59,24.57,24.57,0,0,0,3.3,1.3,37.38,37.38,0,0,0,3.81,1c1.33.28,2.72.53,4.13.74s2.85.37,4.3.5l4.3.39c1.42.13,2.81.29,4.16.45s2.65.3,3.89.39,2.42.13,3.5.16,2.08,0,3,0,1.65,0,2.28,0c1.27,0,2-.1,2-.1v-.08"/><path class="cls-2" d="M188.67,57.63l-3.5.82c-1.17.28-2.33.55-3.5.8l-3.51.76c-1.17.24-2.34.49-3.52.7-.59.11-1.17.24-1.76.33l-1.76.32-1.77.3c-.59.11-1.18.19-1.77.27s-1.18.17-1.78.22-1.19.13-1.78.16l-1.79.06-1.79-.09h0l0,0c-.81.43-1.63.84-2.45,1.25s-1.64.81-2.48,1.19c-1.66.77-3.34,1.52-5,2.24-.84.36-1.68.73-2.53,1.07l-2.54,1c-.85.34-1.71.65-2.56,1s-1.72.59-2.6.84-1.72.45-2.65.74a13,13,0,0,0-2.63,1c-.41.24-.83.45-1.22.72s-.77.54-1.14.84-.71.61-1,.94-.65.67-1,1-.6.72-.87,1.09-.54.76-.79,1.16a19.82,19.82,0,0,0-1.28,2.47c-.18.43-.36.85-.5,1.3a13,13,0,0,0-.39,1.33,9.71,9.71,0,0,0-.31,2.75h.08a10.35,10.35,0,0,1,.51-2.67c.14-.43.29-.86.47-1.28s.36-.83.56-1.24a19.29,19.29,0,0,1,1.37-2.34c.25-.38.53-.73.8-1.09s.58-.69.87-1,.64-.63,1-1,.69-.58,1-.86.74-.51,1.1-.77.78-.44,1.16-.66a13.31,13.31,0,0,1,2.49-.95c.83-.26,1.79-.45,2.65-.75s1.75-.59,2.62-.9,1.72-.66,2.57-1,1.7-.71,2.54-1.09,1.67-.77,2.51-1.15q2.48-1.2,4.93-2.46c1.63-.85,3.27-1.67,4.89-2.54h-.07l1.81.11H164c.6,0,1.2,0,1.8-.07s1.2-.08,1.8-.13,1.2-.1,1.8-.18,1.2-.14,1.79-.23l1.78-.29c.59-.1,1.18-.22,1.77-.33s1.18-.23,1.77-.37,1.18-.25,1.76-.39c1.17-.28,2.34-.56,3.5-.87s2.32-.63,3.47-1,2.3-.7,3.43-1.1l0-.07"/><path class="cls-3" d="M234.29,14.27c9.24,2.59,31.53,10.31,35.86,18.23S277.28,50.17,257.72,58c0,0-6.82,24.88-19.11,23.53,0,0-4.48-.09-5.91-3.1,0,0,2.84,7.89-7.6,6.95s-3.34-1.18-3.34-1.18-9.24-4.66-13.44.12c0,0-6.15,9.22-22.89,6.28,0,0-13.9,4.59-28,1.33L148,95.87l-2.17-3.4-14.54-1s-45.86-2.74-51.76-7c0,0,10.72-53.18,78.42-60.1,0,0,23.22-4,27-7.32s6.06-4.74,11.57.22c0,0,11.32-6.13,18.4-5.62,0,0,10.41,2.06,12.28,2.1a25.38,25.38,0,0,1,7.08.51"/><path class="cls-4" d="M242.6,89.27s3.19,3.76,7.1,4.34a15.35,15.35,0,0,1-5.35-4.74Z"/><path class="cls-4" d="M252.92,84.46s-1.65,6.5-1.51,6.79c0,0-2.18-3.45-4.79-3.79Z"/><ellipse class="cls-5" cx="253.15" cy="36.1" rx="9.14" ry="8.45" transform="translate(212.24 288.52) rotate(-88.91)"/><ellipse class="cls-6" cx="253.57" cy="34.44" rx="1.51" ry="1.47" transform="translate(25.33 150.16) rotate(-34.62)"/><ellipse class="cls-7" cx="252.96" cy="36.64" rx="1.85" ry="1.74" transform="translate(211.51 288.85) rotate(-88.91)"/><path class="cls-8" d="M241.68,20.21c1.24-.29,2.26.9,3.15,1.82A10.73,10.73,0,0,0,249.89,25l-.18-2.32c.62.13,1.06.69,1.66.89s1.44-.52,1-1a1.16,1.16,0,0,1,1.23.9,2.07,2.07,0,0,1-.35,1.59c-.85,1.33-2.46,1.91-3.76,2.8a8.74,8.74,0,0,0-3.71,6.08,1.57,1.57,0,0,1-.24.82,1.18,1.18,0,0,1-.94.35,5.05,5.05,0,0,1-3.49-1.86,23.14,23.14,0,0,0-2.8-2.93c-1.38-1-3.12-1.41-4.66-2.18s-3-2.21-2.85-3.92c4.43-.09,8.17,3,12.21,4.87a.5.5,0,0,0,.37.06c.18-.07.22-.3.23-.5l.08-1.79a2.85,2.85,0,0,1,2,.74,1.89,1.89,0,0,0-.25-2.09A12.27,12.27,0,0,0,243.73,24,6.76,6.76,0,0,1,241.68,20.21Z"/><path class="cls-8" d="M233.59,30.88c2.6,1.18,4.49,3.49,6.27,5.72,1.13,1.41,2.33,3.15,1.82,4.88l-3-.65a.85.85,0,0,0-.49,0,1.13,1.13,0,0,0-.4.37c-1.32,1.54-4.36,0-5.67,1.55a10.39,10.39,0,0,0-.71,1.27,2.58,2.58,0,0,1-2,1.18,1,1,0,0,1,.22-.62c-.56,0-.9-.66-.94-1.22s.14-1.11.12-1.67a2.53,2.53,0,0,0-1.48-2.18,2.17,2.17,0,0,1-.87-.47,1.56,1.56,0,0,1-.26-.87,27.51,27.51,0,0,0-1.94-7.76c1.32.58,2.05,2,2.68,3.29l2.76,5.75c.19.41.51.88,1,.82s1-.91,1.41-.54a2,2,0,0,0-.41-1.44,30.93,30.93,0,0,1-2.91-6.65,2.07,2.07,0,0,1,2.54,1,20.91,20.91,0,0,1,1.1,2.79,11.23,11.23,0,0,0,2.72,3.37c.18.17.44.35.65.22s.19-.34.34-.46.52,0,.79,0c.56,0,.74-.84.47-1.33A5.3,5.3,0,0,0,236.09,36a1.27,1.27,0,0,1-.45-1.48l1.14.68a.64.64,0,0,0,.07-.88,2.35,2.35,0,0,0-.78-.59A6,6,0,0,1,233.59,30.88Z"/><path class="cls-9" d="M225.62,16.68s-6.16-2.69-8.72-2.73l8.25,5.29Z"/><path class="cls-10" d="M271.35,39.71s18.83-4.15,22.2-4.05c0,0-6.23-1.58-23.64,2.9Z"/><path class="cls-10" d="M272.92,39s8.14-.27,12.34,3.87c0,0-6.15-2.9-12.15-2.37Z"/><path class="cls-2" d="M241.27,95.11c0,.47,2.38,1.1,2.78,1.39a5.78,5.78,0,0,1,2.38,3.81c-1.07-1.18-2.9-1.2-4.48-1s-3.28.56-4.69-.17a1.6,1.6,0,0,1-1-1.29,2.46,2.46,0,0,1,.33-1c1.53-3.31-.09-7.2.23-10.83.09-1.08.36-2.13.47-3.2a6.68,6.68,0,0,0,2.1-.36C241.76,82.13,241.19,93.1,241.27,95.11Z"/><path class="cls-11" d="M223.42,59.61a4.53,4.53,0,0,1-1.59-3,16.24,16.24,0,0,1-4-.34l-.69-1.76c2.31-.22,3.67-2.65,4.55-4.8.32-.78,1-1.73,1.78-1.36s.47,1.44.24,2.22A6.5,6.5,0,0,0,226,57.47a3.44,3.44,0,0,0,1.49.69,4.72,4.72,0,0,0,2.34-.44l5.1-1.9c-1-.13-1.11-1.82-.26-2.44a3.87,3.87,0,0,1,3-.25,4.36,4.36,0,0,0,3.08-.11,2,2,0,0,1-.11,1.53,3.08,3.08,0,0,1-3.67.12c.67,1.19-.39,2.67-1.6,3.3s-2.65.86-3.68,1.77c-.41.36-.73.81-1.16,1.14-1.4,1.05-3.38.47-5-.15-.56,1.14.48,2.37,1.39,3.26s1.82,2.29,1.05,3.3c-1.34.68-2.57-1-3.68-2-1.93-1.77-5.05-1.7-7.33-.42a13.48,13.48,0,0,0-5,5.88,24.16,24.16,0,0,0-2.33,6.71c-.59.56-1.57-.17-1.81-1s-.21-1.71-.81-2.27-1.28-.51-1.82-.93c-1-.77-.72-2.31-.44-3.54s.25-2.89-.93-3.32c3.59-.54,6.44-3.17,9.45-5.2s7.07-3.5,10.17-1.61"/><path class="cls-12" d="M248.75,70.56a3.33,3.33,0,0,0-2-.47c-.44-.8.34-1.74,1.12-2.21s1.76-.92,2-1.81l-1.7-.45,3-5.55a4.3,4.3,0,0,0,.67-1.93,1.48,1.48,0,0,0-1.11-1.53c-1.2-.16-1.69,1.51-2.66,2.24a4.61,4.61,0,0,1,2-4.24,8.09,8.09,0,0,0,1.14-.74,4.66,4.66,0,0,0,1.08-2.71,3.56,3.56,0,0,1,1.33-2.56c.85-.51,2.29.15,2.05,1.11a2.1,2.1,0,0,1-.46.77,12.19,12.19,0,0,0-1.52,2.46,4.72,4.72,0,0,0-.54,2.63,2.16,2.16,0,0,0,1.71,1.88c.38,0,.84,0,1.08.29a.81.81,0,0,1,.14.43c.16,1.77-1.88,2.87-2.65,4.47a8.35,8.35,0,0,0-.54,2.29,16.69,16.69,0,0,1-2.28,6.1,3.49,3.49,0,0,1-.73.9,6.2,6.2,0,0,1-1.09.61,5.28,5.28,0,0,0-2.18,2.13c-1-.19-1-1.7-.3-2.43S248,71.22,248.75,70.56Z"/><path class="cls-8" d="M223.38,66.71s10.19,4.47-1.19,17.74c0,0-3.07,3.79-7.53,2S211.87,64.57,223.38,66.71Z"/><path class="cls-13" d="M210.38,95.74a1.71,1.71,0,0,1-.57-1.32,8.54,8.54,0,0,1,2.71-6.93,1.91,1.91,0,0,0,.63-.8,2.23,2.23,0,0,0-.1-1.06A4.19,4.19,0,0,1,215,81.38a5.32,5.32,0,0,1,4.78-.27c1,.42,2,1.41,1.73,2.47a10.75,10.75,0,0,1-.71,1.33c-.47,1.08.13,2.3.31,3.47.29,1.81-.45,3.61-1.16,5.29a9.42,9.42,0,0,1-2.77,4.2.85.85,0,0,1-.62.21c-.45-.08-.51-.68-.67-1.11a2.24,2.24,0,0,0-2.07-1.21c-.85,0-1.68.18-2.53.19A1.59,1.59,0,0,1,210.38,95.74Z"/><path class="cls-14" d="M216.2,95.8a7.91,7.91,0,0,1-.81,1.18c-1.27,1.88-.45,4.37-.24,6.63a23.05,23.05,0,0,1-.13,4.2l-1.37,15a8.09,8.09,0,0,1-.77,3.27,2.44,2.44,0,0,1-4.71-.63,8.08,8.08,0,0,1,.07-3L210.1,110a37.87,37.87,0,0,0,.63-8.54,21.69,21.69,0,0,1-.22-4.93,4.2,4.2,0,0,1,2.9-3.64C215,92.58,216.86,94.28,216.2,95.8Z"/><path class="cls-15" d="M210.1,135.38c0-1.83-1.38-10.11.59-10.65s3.53,8.53,4.13,10.11a2.61,2.61,0,0,1,.23,1.79c-.18.49-.67,1-.44,1.45-.19.16-.48-.06-.53-.3s0-.49-.07-.73c-.19-.6-1.15-.56-1.53-.06a2.62,2.62,0,0,0-.29,1.82,2.85,2.85,0,0,1-1.93-1.91A5.61,5.61,0,0,1,210.1,135.38Z"/><path class="cls-2" d="M197.34,92a2.53,2.53,0,0,1-.59-1c-.82-2.13-1.58-4.7-.24-6.55-1.51,2-3.5,3.54-4.91,5.57a25.19,25.19,0,0,0-2.3,4.47l-3.9,9c-1.66,3.84-3.55,7.94-7.19,10a4.17,4.17,0,0,0-1.87,1.48,15.11,15.11,0,0,0-.44,1.89c-.57,1.64-3.07,1.94-4.33.74a4.31,4.31,0,0,1-.59-4.85,10.69,10.69,0,0,1,3.51-3.8,20,20,0,0,0,3.95-3.39c1.6-2,2.15-4.71,3.58-6.86.65-1,1.48-1.85,2.17-2.82,1.83-2.57,2.57-5.73,3.57-8.72A48.33,48.33,0,0,1,195.31,73c1-1.33,2.12-2.6,3.24-3.84.71-.79,1.86-1.62,2.71-1a2.76,2.76,0,0,1,.73,1.47,5.47,5.47,0,0,0,3.43,3.46,8.86,8.86,0,0,1,2.5.88c1.12.8,1.35,2.36,1.31,3.73A16.56,16.56,0,0,1,199.9,91.9C199.08,92.28,198,92.56,197.34,92Z"/><path class="cls-15" d="M172.47,114.16a1,1,0,0,0-.69,0,35.47,35.47,0,0,0-13.8,5.67,4.11,4.11,0,0,0-.85.71,4.36,4.36,0,0,0-.5.82c-.88,1.7-1.79,3.57-1.45,5.46l1.91-1.8a7.47,7.47,0,0,0,.87,2.51,8.8,8.8,0,0,1,3.41-5.76,25.65,25.65,0,0,1,6-3.33,7.28,7.28,0,0,1,3.27-.87c.76,0,1.61.29,2.2-.17.76-.6.43-1.81,0-2.69A1,1,0,0,0,172.47,114.16Z"/><path class="cls-2" d="M199.72,86.25c.89-.17,1.33,1,1.42,1.93l1.41,14.9q-3.62,1.21-7.18,2.58a30.81,30.81,0,0,0-3,1.29c-1.49.76-3.58,1.95-4.57,1.62,0,0,.56-1.35,1-1.34-.42-.05-1.23.79-1.45.43.43-1.38,7.37-5,11.2-6a1.71,1.71,0,0,0,.86-.41,1.68,1.68,0,0,0,.28-1.18,31.08,31.08,0,0,0-.29-4.44c-.46-2.8-1.67-5.71-.65-8.36A1.45,1.45,0,0,1,199.72,86.25Z"/><path class="cls-8" d="M223.93,23.71c.61-2-.13-2-1.11-2a2.38,2.38,0,0,1-2-.67,3,3,0,0,1-.41-1c-.53-1.53-2.24-2.31-3.84-2.57s-3.27-.19-4.77-.8a3.59,3.59,0,0,0-1.26-.39,3.12,3.12,0,0,0-1.39.48,21.32,21.32,0,0,1-6.31,1.68c-2.23.35-4.46.71-6.7,1a35,35,0,0,0,12,5.84,12.12,12.12,0,0,1,2.72.91,18.32,18.32,0,0,1,2.7,2.14,11.86,11.86,0,0,0,4.4,2.26c4.1,1.11,5-3.66,6-6.83"/><path class="cls-9" d="M187.49,18.86a10.33,10.33,0,0,1-2.19,0c-.14,1,1,1.63,2,2,2,.73,4,1.57,6,2.41l6.22,2.63-4.79-4a1.26,1.26,0,0,1-.46-.56,2.26,2.26,0,0,1,0-.68,2.84,2.84,0,0,0-.91-1.78l-1.89-2.17c-.53-.61-1.2-1.27-2-1.15a4.63,4.63,0,0,0,.34,2.49,1.15,1.15,0,0,1-1.46-1.2L186.31,16a2.88,2.88,0,0,0,1.18,2.87"/><path class="cls-9" d="M221.39,33.5a4.46,4.46,0,0,0,.78,3.93,13.1,13.1,0,0,0,3.06,2.8c.3.22.64.5.63.88a1.13,1.13,0,0,1-.31.66,9,9,0,0,1-4.23,2.9.94.94,0,0,1-.69,0c-.28-.14-.36-.5-.4-.81l-.47-3.32a2.81,2.81,0,0,0-.46-1.4c-.56-.69-1.47-.64-2.41-.6a5.55,5.55,0,0,1-1.7-.09l0-3.18L203,27.92c-.39-.24-.81-.52-.91-1a20.46,20.46,0,0,1,11.33,3.54c1.15.79,2.34,1.74,3.74,1.76a2.1,2.1,0,0,1,.86.09c.7.32.89,1.61,1.65,1.46s.71-2.08,1.57-1.87c.58.14.37,1,.18,1.56"/><path class="cls-16" d="M237.82,72.1s14.58-1.65,21.32,4.47c0,0,4.2,4.15-4.2,7s-11.74,9.62-19.09,2S236.8,72.18,237.82,72.1Z"/><path class="cls-10" d="M257.17,79.34s4.15-4.2,12.66,31.92c0,0,11.39-2.35,18.66,9.34l-2.35-.47s.38,2.58-1.78,3.39c0,0-.32-5.78-5-7.16s-8.73-2.09-12.61-1.1c0,0-1.65-3.24-3.42-11.41s-5.2-19.36-7.31-20.47C256,83.38,253.73,80.34,257.17,79.34Z"/><path class="cls-1" d="M146.24,11.09a30.8,30.8,0,0,0-8.35.84S116.82.68,97.4.31h0a37.74,37.74,0,0,0-13.74,2C62.16,10.27.41,47.94.24,78.88c-.07,13,22.32,17.45,49.31,18l3.65,0-.84-.07a111.59,111.59,0,0,1-12.18-1.71,60.89,60.89,0,0,1-6-1.5,35.71,35.71,0,0,1-5.75-2.25,18.93,18.93,0,0,1-5.06-3.56,10.15,10.15,0,0,1-2.78-5.53c-.06-.52-.08-1-.1-1.55s0-1,.08-1.55.09-1,.18-1.54.16-1,.27-1.52A31.41,31.41,0,0,1,23,70.24,51.83,51.83,0,0,1,29.25,59.7a90.28,90.28,0,0,1,8.08-9.25A166.45,166.45,0,0,1,56,34.52,227.15,227.15,0,0,1,76.47,21c3.53-2.06,7.12-4,10.79-5.87,1.83-.92,3.68-1.8,5.56-2.61a46.79,46.79,0,0,1,5.77-2.17,37.09,37.09,0,0,1,10.6-1.21l1.64.06A67.85,67.85,0,0,1,123,11.06a106.09,106.09,0,0,1,22.89,8.57l1.59-.34,1.74-.24,1.75-.12c.58,0,1.16,0,1.75,0h.55c1,0,2,.06,2.94.15.58,0,1.16.09,1.73.16s1.15.12,1.73.21a95.48,95.48,0,0,1,11.21,2.33c3.55-.82,7.17-1.76,9.92-2.71C170.49,15.32,157,11.29,146.24,11.09Z"/><path class="cls-17" d="M30.73,84.16l0,.12a3.57,3.57,0,0,0,.53,1.31,5.89,5.89,0,0,0,1.56,1.54,14,14,0,0,0,2.54,1.37,32.91,32.91,0,0,0,3.26,1.14c1.18.35,2.43.68,3.74,1s2.68.59,4.07.85,2.81.51,4.24.75l2.14.33,2.13.25c1.41.15,2.81.23,4.16.27l3.9.13,3.49.18,5.22.33,1,.07q-7.22-2.1-14.49-4-3.87-1-7.76-2c-1.3-.32-2.59-.64-3.89-.93s-2.6-.54-3.92-.77c-2.62-.46-5.27-.79-7.92-1.16a35.58,35.58,0,0,1-4-.73h0m3.38-15.88,0,.09-.28.86,0,.05,0,0c-.32.49-.62,1-.92,1.52s-.59,1-.87,1.56c-.56,1-1.09,2.12-1.56,3.21-.12.27-.24.55-.34.82s-.22.55-.32.83l-.3.84c-.1.28-.17.57-.26.85s-.16.57-.22.86a8.4,8.4,0,0,0-.17.87c0,.29-.1.59-.11.89V82a3.31,3.31,0,0,0,.63.72,3.27,3.27,0,0,0,.36.27l.38.22c.13.07.31.12.46.18l.23.09.21.06a37.19,37.19,0,0,0,3.89.74c2.64.4,5.29.76,7.93,1.24,1.32.24,2.63.51,3.94.81s2.6.64,3.89,1q3.88,1,7.75,2.07,7.72,2.13,15.39,4.42c2,.07,4,.17,5.93.21h.28L81,94l1,0H83l3.09,0,3.09,0c1,0,2.06-.07,3.09-.1s2.06-.11,3.09-.16,2.06-.16,3.08-.23,2.05-.21,3.08-.31,2-.25,3.06-.43l1.52-.26,1.51-.3c1-.22,2-.45,3-.73.5-.13,1-.29,1.47-.45s1-.33,1.45-.52c.28-.1.56-.22.83-.34-12.81-1.12-29-2.92-34-5.2l-1.79,0H77.14l-1.48,0c-.49,0-1-.05-1.48-.08s-1-.07-1.48-.12-1-.11-1.47-.19a11.47,11.47,0,0,1-1.42-.31,23.3,23.3,0,0,1-2.51.4,20.45,20.45,0,0,1-2.57.13h-.05a15.89,15.89,0,0,1-2.53-.24,10.9,10.9,0,0,1-2.49-.78c-3.14-1.37-6.21-2.88-9.26-4.44q-2.28-1.17-4.52-2.44t-4.4-2.66q-1.08-.7-2.14-1.43t-2.07-1.54a25.22,25.22,0,0,1-2-1.68,15,15,0,0,1-1.22-1.31m8.33-10-.06,0a7.12,7.12,0,0,0-.78.36c-.26.14-.52.29-.77.45s-.5.32-.73.51-.48.36-.7.56a8.76,8.76,0,0,0-.67.6,8.51,8.51,0,0,0-.63.64c-.2.22-.42.43-.59.67l-.56.7-.51.74a8.67,8.67,0,0,0-.48.76c-.15.26-.32.51-.45.78l-.4.81a7.79,7.79,0,0,0-.37.83l-.34.84c-.08.2-.14.4-.21.6a15.11,15.11,0,0,0,1.36,1.26c.65.54,1.34,1,2,1.53s1.41.95,2.13,1.41,1.44.9,2.17,1.34c1.47.87,2.95,1.7,4.44,2.53s3,1.64,4.49,2.44c3,1.61,6,3.16,9.1,4.69a10,10,0,0,0,2.35.86,13,13,0,0,0,2.51.33H65a18.49,18.49,0,0,0,4.8-.52h.08a10.31,10.31,0,0,0,1.42.26c.48.05,1,.1,1.45.11h0l1,0h.46c.49,0,1,0,1.47,0l2.93-.08,1,0A57.2,57.2,0,0,1,82.68,75q-1.32-.12-2.63-.28c-1.23-.14-2.47-.29-3.69-.46s-2.46-.34-3.68-.56S70.24,73.27,69,73h0l-1.76-.8c-.59-.26-1.18-.53-1.77-.77l-1.78-.76L61.87,70c-1.19-.49-2.38-1-3.56-1.52s-2.34-1.09-3.5-1.65A62.07,62.07,0,0,1,48,63c-.54-.36-1.08-.71-1.61-1.09s-1-.77-1.55-1.18a16.31,16.31,0,0,1-1.45-1.31,8.77,8.77,0,0,1-1-1.18M54,48.3l-.06,0c-.61.19-1.24.42-1.84.67s-1.21.52-1.8.81a21.52,21.52,0,0,0-3.35,2,13.26,13.26,0,0,0-2.76,2.7,8.78,8.78,0,0,0-.53.8,9.47,9.47,0,0,0-.45.84,8,8,0,0,0-.34.88,8.54,8.54,0,0,0-.24.91l-.06.23h0a9.14,9.14,0,0,0,1.07,1q.74.61,1.53,1.15c.52.37,1.06.71,1.6,1.05s1.09.67,1.64,1l1.67.95c.56.32,1.12.62,1.69.92,1.12.62,2.26,1.21,3.39,1.82s2.29,1.17,3.43,1.76L62,69.59l1.74.85,1.76.8c.59.27,1.18.51,1.78.75s1.18.46,1.78.68c1.23.14,2.46.27,3.69.42s2.46.36,3.68.56,2.45.42,3.67.66q1.33.25,2.65.53a78,78,0,0,1,4.73-9.29l-2.42-.92q-1.19-.46-2.38-.88l-1.2-.42-.61-.2-.59-.23L75.57,61c-1.58-.63-3.14-1.3-4.68-2s-3.09-1.42-4.61-2.18-3-1.57-4.49-2.43q-1.1-.65-2.18-1.34c-.71-.46-1.43-.94-2.11-1.45a25.06,25.06,0,0,1-2-1.62A11.41,11.41,0,0,1,54,48.3M66.33,37.12a23.45,23.45,0,0,0-3.85,1.78c-.31.17-.61.37-.91.55s-.59.4-.88.6-.58.41-.85.63-.56.43-.82.67l-.79.71-.74.76a10.54,10.54,0,0,0-.69.8,8.89,8.89,0,0,0-.65.83l-.6.87c-.18.3-.34.61-.51.92l-.26.46-.21.48-.41,1,0,.12a12.18,12.18,0,0,0,1.62,1.47c.66.52,1.36,1,2.06,1.45s1.43.89,2.15,1.32,1.47.83,2.21,1.23l2.24,1.19,2.25,1.16,2.26,1.15,2.28,1.12,4.58,2.2c1.53.73,3.06,1.45,4.63,2.1.77.35,1.58.58,2.38.86s1.61.52,2.42.77l2.59.79A79.79,79.79,0,0,1,95,54.94L92,51.51l-6.8-2.91c-2.28-1-4.57-1.94-6.79-3-1.11-.55-2.21-1.13-3.29-1.74-.54-.31-1.08-.61-1.61-.93s-1.06-.65-1.59-1-1-.69-1.54-1.06-1-.73-1.49-1.13c-.24-.19-.48-.39-.71-.61s-.46-.42-.68-.65a8.66,8.66,0,0,1-1.12-1.36M119.09,34l-.32,0-.4.14c-.14,0-.28.14-.44.21a3,3,0,0,0-.47.26L117,35c-.34.22-.74.4-1.12.63a8.34,8.34,0,0,0-1.14.79,13.44,13.44,0,0,0-1,1c-.32.36-.62.74-1,1.08s-.65.67-1,1-.61.64-.91.92l-.76.71A84.37,84.37,0,0,1,120.18,35l-.52-.26-.07,0-.06-.09c-.14-.21-.28-.41-.43-.62M82.38,27.52l0,0-.12,0a19.78,19.78,0,0,0-2.3.47c-.76.2-1.52.44-2.27.69l-1.11.41-1.09.47c-.36.16-.71.35-1.07.52s-.7.37-1,.57-.69.39-1,.62l-1,.66-.94.73a9.39,9.39,0,0,0-.9.78c-.29.27-.59.54-.86.82l-.8.88a8.91,8.91,0,0,0-.75.93l-.71.95a10.33,10.33,0,0,0,1.22,1.23c.46.41,1,.77,1.45,1.13s1,.7,1.52,1,1,.65,1.57,1c2.12,1.26,4.3,2.4,6.49,3.54s4.38,2.28,6.61,3.35q1.68.8,3.38,1.53l1.71.71c.57.23,1.14.47,1.72.68h0l0,0,3.23,3.27a79.73,79.73,0,0,1,12.05-11.43l-2.67-1.26c-1.16-.56-2.33-1.12-3.48-1.71C99,39,96.71,37.74,94.47,36.46c-1.12-.65-2.23-1.31-3.33-2s-2.19-1.38-3.25-2.12c-.53-.37-1.06-.75-1.57-1.14s-1-.79-1.52-1.21-1-.86-1.43-1.32a9.92,9.92,0,0,1-1-1.15m64.57-7.46-1,.22-.13,0-.11-.06-.35-.18a5.32,5.32,0,0,0-.86.23,6.13,6.13,0,0,0-1,.45,7.79,7.79,0,0,0-.89.58c-.27.23-.54.46-.8.71s-.49.52-.7.8-.42.57-.61.87l-.52.93c-.17.31-.28.65-.43,1l-.21.49-.16.51-.31,1,0,.21a115.53,115.53,0,0,1,14.61-3q-1.37-.8-2.7-1.65c-.74-.49-1.46-1-2.16-1.55a11.42,11.42,0,0,1-1-.88,5.2,5.2,0,0,1-.64-.77M98.8,18.51c-.32,0-.64,0-1,0s-.93.1-1.39.14-.92.18-1.37.28-.89.27-1.34.4-.87.35-1.3.52a10.09,10.09,0,0,0-1.26.61c-.41.23-.84.41-1.23.67l-1.18.75a12.8,12.8,0,0,0-1.14.82l-1.12.85-1,.94c-.35.32-.71.62-1,.94-.65.68-1.31,1.34-2,2a9.78,9.78,0,0,0,1.06,1.07c.47.43,1,.83,1.49,1.21s1,.76,1.56,1.12,1.07.71,1.61,1.06q3.26,2.05,6.66,3.88c1.13.62,2.26,1.23,3.39,1.84s2.28,1.19,3.43,1.77l3.44,1.75c1,.49,2,1,3,1.46l.16-.12a21.62,21.62,0,0,1,1.28-1.76c.23-.28.48-.58.77-.88s.59-.62.92-.93a21.15,21.15,0,0,1,2.19-1.83,13.73,13.73,0,0,0,1.15-.88,11.82,11.82,0,0,0,1-.94,11.32,11.32,0,0,1,1-.87,6.33,6.33,0,0,1,1.07-.57,5.23,5.23,0,0,1,.52-.18l.51-.08h0c-.48-.59-1-1.16-1.57-1.7a29.61,29.61,0,0,0-2.81-2.43c-1-.76-2-1.46-3-2.16s-2.06-1.43-3.07-2.18-2-1.52-3-2.33a21.86,21.86,0,0,1-2.69-2.65,6.67,6.67,0,0,1-.74-1.09,7.9,7.9,0,0,0-1.21-.32,9.81,9.81,0,0,0-1.39-.17l-.44,0m54.76,1h-.84c-.57,0-1.15,0-1.72,0l-1.71.13-1.69.24-.54.12a7.7,7.7,0,0,0,1.66,1.5c.71.51,1.46,1,2.21,1.43,1.09.65,2.19,1.26,3.31,1.85q1.82-.24,3.7-.43s5.63-1,11.8-2.36a92.74,92.74,0,0,0-10.15-2c-.57-.09-1.14-.13-1.71-.2s-1.14-.12-1.72-.15c-.86-.07-1.73-.11-2.59-.13m-55.8-3.62c-.43,0-.85,0-1.28.06a12.88,12.88,0,0,0-1.47.19,11.86,11.86,0,0,0-1.44.32c-.24.06-.48.12-.72.19l-.7.25a12,12,0,0,0-1.38.54l-1.34.63c-.43.24-.85.5-1.28.75l-.64.38c-.21.14-.4.29-.6.43l-1.2.87c-.4.29-.75.64-1.13,1l-1.12,1L81.4,24.57l-.06.06h-.08a19.87,19.87,0,0,0-2.31.49c-.38.1-.76.22-1.14.34l-1.12.39-1.1.44-1.08.49c-.36.16-.7.36-1.05.54s-.69.39-1,.59-.68.4-1,.64l-1,.68-.92.75a9.79,9.79,0,0,0-.88.79c-.28.28-.58.54-.85.83L67,32.5a8.76,8.76,0,0,0-.73.93l-.7,1-.07.09-.1,0a19.22,19.22,0,0,0-1.94.79c-.32.14-.63.31-.95.46s-.62.34-.93.5-.6.36-.9.54-.59.39-.88.58-.57.4-.85.62-.56.42-.82.66l-.79.69-.74.75a10.41,10.41,0,0,0-.69.78,8.79,8.79,0,0,0-.65.82l-.6.85c-.18.29-.35.6-.52.9l-.26.45-.21.48-.42,1-.08.19-.18.05c-.61.18-1.24.41-1.84.65s-1.21.51-1.8.79A21.5,21.5,0,0,0,46,49a13.26,13.26,0,0,0-2.78,2.68,8.85,8.85,0,0,0-.53.79,9.08,9.08,0,0,0-.45.84,8,8,0,0,0-.34.88,8.56,8.56,0,0,0-.24.92l-.05.23-.21.08a7.16,7.16,0,0,0-.78.37c-.26.14-.52.29-.77.45s-.5.33-.73.51-.48.36-.7.56a8.76,8.76,0,0,0-.66.6,8.53,8.53,0,0,0-.63.64c-.2.22-.41.43-.59.68L36,60l-.51.74a8.69,8.69,0,0,0-.47.77c-.15.26-.31.51-.45.78l-.4.81a7.73,7.73,0,0,0-.36.83l-.34.84c-.11.28-.19.57-.28.86l-.27.86,0,.06,0,0c-.69,1.11-1.34,2.28-1.94,3.46s-1.15,2.39-1.62,3.62a21.86,21.86,0,0,0-1.1,3.77,7.79,7.79,0,0,0,.09,3.77,3.73,3.73,0,0,0,.27.58V81.6c0-.3,0-.6.07-.9a8.52,8.52,0,0,1,.13-.89c0-.3.1-.6.18-.89.13-.59.3-1.17.47-1.75.09-.29.2-.57.29-.85s.2-.57.32-.85c.43-1.13.93-2.22,1.46-3.3S32.58,70.05,33.2,69l.26-.85c.09-.3.17-.6.28-.89l.34-.87a8.19,8.19,0,0,1,.37-.86l.4-.85c.14-.28.3-.55.45-.82a9.22,9.22,0,0,1,.49-.81l.53-.78.58-.74c.19-.25.41-.47.62-.71a9.17,9.17,0,0,1,.66-.68,9.44,9.44,0,0,1,.7-.64q.36-.31.74-.59c.25-.2.51-.37.78-.54s.54-.34.82-.48.44-.23.67-.33a6.74,6.74,0,0,1,.21-.79,8.77,8.77,0,0,1,.37-1,9.48,9.48,0,0,1,.5-.92,9.6,9.6,0,0,1,.59-.86,14,14,0,0,1,3-2.82A22.25,22.25,0,0,1,50,49.16c.61-.29,1.23-.55,1.86-.8s1.17-.43,1.78-.61l.38-.84.23-.5.28-.47c.19-.31.37-.63.56-.93l.64-.88a9.24,9.24,0,0,1,.69-.83c.24-.27.47-.55.73-.8l.78-.75.82-.7c.27-.24.57-.44.85-.66s.58-.43.88-.62.59-.4.91-.58.61-.38.93-.55a23.72,23.72,0,0,1,3.89-1.75l.69-.94a9.06,9.06,0,0,1,.75-.95l.8-.91c.27-.29.57-.56.86-.85a10.62,10.62,0,0,1,.9-.81l.93-.78,1-.71c.32-.25.67-.45,1-.66s.68-.43,1-.62.7-.4,1.07-.57l1.1-.52,1.12-.46,1.14-.41c.39-.11.77-.24,1.16-.34A20.55,20.55,0,0,1,82,26.9c.63-.66,1.26-1.31,1.91-2,.34-.33.72-.63,1.07-.95l1.08-.94,1.15-.85a13.25,13.25,0,0,1,1.17-.82l1.22-.75A13.81,13.81,0,0,1,90.92,20a10.51,10.51,0,0,1,1.31-.58c.45-.16.89-.36,1.35-.49s.92-.26,1.39-.37.94-.17,1.42-.24,1-.09,1.43-.08h.29a9.16,9.16,0,0,1,1.14.07,10,10,0,0,1,1.41.25,8.14,8.14,0,0,1,1.11.37,3.93,3.93,0,0,1-.18-.44,1.88,1.88,0,0,1,0-1,1.54,1.54,0,0,1,.22-.47,2,2,0,0,1,.36-.35,9.08,9.08,0,0,0-1.23-.37c-.24-.07-.48-.11-.73-.15a7.32,7.32,0,0,0-.73-.11l-.74-.07h-.94M119,13.57c-.78,0-1.57,0-2.35,0-1.24,0-2.49.07-3.72.19l-.93.09-.92.13c-.62.07-1.23.19-1.84.29a26.17,26.17,0,0,0-3.59,1,16.79,16.79,0,0,0-3.32,1.63,1.61,1.61,0,0,0-.31.29,1.25,1.25,0,0,0-.18.37,1.6,1.6,0,0,0,0,.85,5.26,5.26,0,0,0,.91,1.57,18.57,18.57,0,0,0,2.67,2.6q1.44,1.19,3,2.26t3.12,2.08c1.06.66,2.12,1.33,3.15,2.07a30.27,30.27,0,0,1,2.93,2.41,17.35,17.35,0,0,1,2.46,2.79l.92.45a95.48,95.48,0,0,1,17.17-6.57c0-.18.09-.37.14-.55l.37-1,.18-.52.23-.5c.16-.33.3-.67.48-1l.58-.95c.21-.3.45-.59.67-.88s.51-.53.77-.8.57-.47.86-.69a8,8,0,0,1,1-.55,6.28,6.28,0,0,1,1-.4,5.85,5.85,0,0,1,.76-.17,112.13,112.13,0,0,0-10.7-4.65l-.19-.07q-1.39-.27-2.78-.5c-1.24-.19-2.47-.39-3.71-.54s-2.48-.29-3.72-.4-2.49-.2-3.73-.25l-1.38,0M109,9.71a36.37,36.37,0,0,0-10.23,1.15A46.33,46.33,0,0,0,93,13c-1.87.81-3.72,1.67-5.55,2.58-3.66,1.81-7.25,3.76-10.79,5.8A226.79,226.79,0,0,0,56.15,34.74,153.38,153.38,0,0,0,37.54,50.66a90,90,0,0,0-8,9.25,51.47,51.47,0,0,0-6.21,10.5,31,31,0,0,0-1.84,5.8c-.11.49-.19,1-.26,1.5s-.12,1-.17,1.51,0,1-.07,1.52,0,1,.1,1.51a9.7,9.7,0,0,0,2.68,5.23,18.43,18.43,0,0,0,4.94,3.43,35.17,35.17,0,0,0,5.67,2.19,60.34,60.34,0,0,0,5.93,1.45,111,111,0,0,0,12.12,1.63c4,.33,8,.52,12.06.61a531.57,531.57,0,0,0,61.88-5.65c-2.86-.2-6.76-.49-11.09-.86l-.14.07c-.48.2-1,.43-1.45.59s-1,.36-1.47.51-1,.31-1.49.43c-1,.28-2,.49-3,.7l-1.53.28-1.53.24c-1,.18-2,.27-3.07.41s-2.06.22-3.09.3-2.06.17-3.09.21-2.06.12-3.09.15-2.06.07-3.1.09l-3.1.05H83l-1.7,0H79c-1.76,0-3.52-.11-5.28-.16h0l-.34-.1L71.72,94c-.63,0-1.4,0-2.28,0-.68,0-1.42,0-2.22,0l-.74,0c-1.08,0-2.26-.07-3.5-.16s-2.54-.24-3.89-.39-2.74-.32-4.16-.45l-4.3-.39c-1.44-.13-2.88-.29-4.3-.5s-2.8-.46-4.13-.74a37.38,37.38,0,0,1-3.81-1,24.57,24.57,0,0,1-3.3-1.3,12.19,12.19,0,0,1-2.56-1.59A5.91,5.91,0,0,1,31,85.75a3.72,3.72,0,0,1-.41-1.45c0-.06,0-.12,0-.17l-.11,0L30.26,84c-.16-.06-.31-.1-.47-.19l-.49-.27a4,4,0,0,1-.44-.33,4.21,4.21,0,0,1-1.23-1.78,8.48,8.48,0,0,1-.14-4.15,22.6,22.6,0,0,1,1.13-3.91c.48-1.26,1-2.49,1.64-3.7s1.23-2.35,1.93-3.49l.26-.83c.1-.3.18-.6.29-.89l.35-.87a8.24,8.24,0,0,1,.37-.86l.41-.85c.14-.28.31-.55.46-.82a9.28,9.28,0,0,1,.5-.8l.53-.78.59-.74c.19-.25.42-.47.62-.71a9.2,9.2,0,0,1,.66-.67,9.44,9.44,0,0,1,.7-.63q.36-.31.74-.59c.25-.19.52-.37.78-.54s.54-.33.82-.48.44-.23.68-.33a6.73,6.73,0,0,1,.21-.79,8.77,8.77,0,0,1,.38-1A9.86,9.86,0,0,1,42,52.1a9.63,9.63,0,0,1,.58-.86,14.06,14.06,0,0,1,2.95-2.84A22.29,22.29,0,0,1,49,46.32q.91-.44,1.85-.81c.57-.23,1.14-.43,1.74-.62l.36-.82.22-.5.27-.48c.19-.32.36-.64.55-.95l.64-.89a9.36,9.36,0,0,1,.69-.85c.24-.27.46-.56.73-.81l.78-.77.82-.71c.27-.24.57-.45.85-.67s.58-.44.88-.63.6-.41.91-.59.62-.38.93-.55.63-.35,1-.51.65-.33,1-.47a19.77,19.77,0,0,1,1.93-.77l.66-.88a9.19,9.19,0,0,1,.76-.95l.81-.91c.28-.29.59-.56.88-.84a10.2,10.2,0,0,1,.91-.8l.95-.76,1-.69c.33-.24.68-.43,1-.64s.69-.42,1.06-.59.71-.38,1.08-.54l1.11-.49,1.13-.44L77.67,25c.39-.11.77-.23,1.16-.33a20.41,20.41,0,0,1,2.3-.47l2.06-2.07,1.14-1c.39-.32.75-.67,1.16-1l1.23-.87c.21-.14.41-.29.62-.43l.65-.38c.43-.25.87-.5,1.31-.74l1.37-.62a12.19,12.19,0,0,1,1.41-.52l.71-.24c.24-.07.49-.12.73-.18a12.06,12.06,0,0,1,1.47-.3,13,13,0,0,1,1.49-.16c.39,0,.78,0,1.17,0H98l.75,0,.74.09a7.43,7.43,0,0,1,.74.12c.25,0,.49.09.73.16a9.09,9.09,0,0,1,1.29.42,18.29,18.29,0,0,1,3.27-1.74,26.36,26.36,0,0,1,3.62-1.12,29.26,29.26,0,0,1,3.74-.61c1.26-.13,2.52-.22,3.78-.23h1.54c.75,0,1.49,0,2.24.08,1.26.07,2.51.18,3.76.3s2.49.32,3.73.52,2.47.42,3.7.7l1.51.34a100.48,100.48,0,0,0-10.25-3.15,67.24,67.24,0,0,0-12-1.9q-.92-.05-1.84-.07"/><path class="cls-18" d="M109.19,9.14l1.64.06A67.84,67.84,0,0,1,123,11.06a106.09,106.09,0,0,1,22.89,8.57l1.59-.34,1.74-.24,1.75-.12c.58,0,1.16,0,1.75,0h.55c1,0,2,.06,2.94.15.58,0,1.16.09,1.73.16s1.15.12,1.73.21a95.48,95.48,0,0,1,11.21,2.33l-1.13.26a92.74,92.74,0,0,0-10.15-2c-.57-.09-1.14-.13-1.71-.2s-1.14-.12-1.72-.15c-.86-.07-1.73-.11-2.59-.13h-.84c-.57,0-1.15,0-1.72,0l-1.71.13-1.69.24-.54.12a3.23,3.23,0,0,1-.2-.31l-.07,0a2.27,2.27,0,0,0,.16.3l-1,.22-.13,0-.11-.06-.35-.18.18,0V20l-.32,0a112.13,112.13,0,0,0-10.7-4.65l-.19-.07.91.18,0-.08c-.71-.21-1.43-.39-2.14-.56a100.48,100.48,0,0,0-10.25-3.15,67.24,67.24,0,0,0-12-1.9q-.92-.05-1.84-.07a36.37,36.37,0,0,0-10.23,1.15A46.33,46.33,0,0,0,93,13c-1.87.81-3.72,1.67-5.55,2.58-3.66,1.81-7.25,3.76-10.79,5.8A226.79,226.79,0,0,0,56.15,34.74,153.38,153.38,0,0,0,37.54,50.66a90,90,0,0,0-8,9.25,51.47,51.47,0,0,0-6.21,10.5,31,31,0,0,0-1.84,5.8c-.11.49-.19,1-.26,1.5s-.12,1-.17,1.51,0,1-.07,1.52,0,1,.1,1.51a9.7,9.7,0,0,0,2.68,5.23,18.43,18.43,0,0,0,4.94,3.43,35.17,35.17,0,0,0,5.67,2.19,60.34,60.34,0,0,0,5.93,1.45,111,111,0,0,0,12.12,1.63c4,.33,8,.52,12.06.61-3.8.1-7.57.15-11.28.13l-.84-.07a111.59,111.59,0,0,1-12.18-1.71,60.91,60.91,0,0,1-6-1.5,35.71,35.71,0,0,1-5.75-2.25,18.93,18.93,0,0,1-5.06-3.56,10.15,10.15,0,0,1-2.78-5.53c-.06-.52-.08-1-.1-1.55s0-1,.08-1.55.09-1,.18-1.54.16-1,.27-1.52A31.41,31.41,0,0,1,23,70.24,51.83,51.83,0,0,1,29.25,59.7a90.27,90.27,0,0,1,8.08-9.25A166.44,166.44,0,0,1,56,34.52,227.15,227.15,0,0,1,76.47,21c3.53-2.06,7.12-4,10.79-5.87,1.83-.92,3.68-1.8,5.56-2.61a46.79,46.79,0,0,1,5.77-2.17,37.09,37.09,0,0,1,10.6-1.21"/><path class="cls-18" d="M91.93,51.49h0M66.41,37.06h0l0,0h0a8.66,8.66,0,0,0,1.12,1.36c.22.23.44.44.68.65s.47.42.71.61c.48.4,1,.77,1.49,1.13s1,.71,1.54,1.06,1.05.66,1.59,1,1.07.63,1.61.93c1.08.61,2.18,1.19,3.29,1.74,2.23,1.09,4.51,2.07,6.79,3L92,51.51,95,54.94l.34-.4-3.23-3.27,0,0h0c-.58-.21-1.15-.45-1.72-.68l-1.71-.71q-1.71-.73-3.38-1.53c-2.23-1.07-4.42-2.21-6.61-3.35s-4.38-2.28-6.49-3.54c-.53-.32-1.06-.63-1.57-1s-1-.67-1.52-1-1-.72-1.45-1.13a10.33,10.33,0,0,1-1.22-1.23"/><path class="cls-18" d="M145.52,20l-.32,0a5.85,5.85,0,0,0-.76.17,6.28,6.28,0,0,0-1,.4,8,8,0,0,0-1,.55c-.29.22-.59.44-.86.69s-.54.51-.77.8-.46.58-.67.88l-.58.95c-.19.32-.32.66-.48,1l-.23.5-.18.52-.37,1c0,.18-.09.36-.14.55l.65-.18,0-.21.31-1,.16-.51.21-.49c.14-.32.26-.66.43-1l.52-.93c.19-.3.41-.58.61-.87s.47-.53.7-.8.52-.48.8-.71a7.79,7.79,0,0,1,.89-.58,6.13,6.13,0,0,1,1-.45,5.32,5.32,0,0,1,.86-.23l.18,0V20M120,34.15h0m-1.86-21.26h-1.54c-1.26,0-2.52.1-3.78.23a29.26,29.26,0,0,0-3.74.61,26.36,26.36,0,0,0-3.62,1.12,18.29,18.29,0,0,0-3.27,1.74l.13.06,0,.07-.18-.07a2,2,0,0,0-.36.35,1.54,1.54,0,0,0-.22.47,1.88,1.88,0,0,0,0,1,3.93,3.93,0,0,0,.18.44L102,19l0,.07-.14-.05a6.67,6.67,0,0,0,.74,1.09,21.86,21.86,0,0,0,2.69,2.65c1,.81,2,1.58,3,2.33s2,1.47,3.07,2.18,2.07,1.4,3,2.16a29.61,29.61,0,0,1,2.81,2.43c.54.54,1.08,1.11,1.57,1.7a2.31,2.31,0,0,1,.46,0,1,1,0,0,1,.38.18.78.78,0,0,1,.3.47.71.71,0,0,1,0,.19h-.08a.65.65,0,0,0-.08-.14.64.64,0,0,0-.33-.25c-.07,0-.18,0-.27,0h0c.15.2.3.41.43.62l.06.09.07,0,.52.26.83-.42-.92-.45a17.35,17.35,0,0,0-2.46-2.79A30.27,30.27,0,0,0,114.7,29c-1-.74-2.09-1.41-3.15-2.07s-2.1-1.36-3.12-2.08-2-1.46-3-2.26a18.57,18.57,0,0,1-2.67-2.6,5.26,5.26,0,0,1-.91-1.57,1.6,1.6,0,0,1,0-.85,1.25,1.25,0,0,1,.18-.37,1.61,1.61,0,0,1,.31-.29,16.79,16.79,0,0,1,3.32-1.63,26.17,26.17,0,0,1,3.59-1c.61-.11,1.22-.22,1.84-.29l.92-.13.93-.09c1.24-.12,2.48-.17,3.72-.19.78,0,1.57,0,2.35,0l1.38,0c1.25,0,2.49.14,3.73.25s2.48.24,3.72.4,2.47.35,3.71.54q1.39.23,2.78.5l.91.18,0-.08c-.71-.21-1.43-.39-2.14-.56l-1.51-.34c-1.22-.27-2.46-.49-3.7-.7s-2.48-.38-3.73-.52-2.5-.24-3.76-.3c-.75,0-1.49-.07-2.24-.08"/><path class="cls-18" d="M98.12,18.21a9.16,9.16,0,0,1,1.14.07,10,10,0,0,1,1.41.25,8.14,8.14,0,0,1,1.11.37L102,19l0,.07-.14-.05a7.9,7.9,0,0,0-1.21-.32,9.81,9.81,0,0,0-1.39-.17l-.44,0c-.32,0-.64,0-1,0s-.93.1-1.39.14-.92.18-1.37.28-.89.27-1.34.4-.87.35-1.3.52a10.09,10.09,0,0,0-1.26.61c-.41.23-.84.41-1.23.67l-1.18.75a12.8,12.8,0,0,0-1.14.82l-1.12.85-1,.94c-.35.32-.71.62-1,.94-.65.68-1.31,1.34-2,2l-.26-.32-.06,0,.25.35,0,0-.12,0a19.78,19.78,0,0,0-2.3.47c-.76.2-1.52.44-2.27.69l-1.11.41-1.09.47c-.36.16-.71.35-1.07.52s-.7.37-1,.57-.69.39-1,.62l-1,.66-.94.73a9.39,9.39,0,0,0-.9.78c-.29.27-.59.54-.86.82l-.8.88a8.91,8.91,0,0,0-.75.93l-.71.95h0l0,0h0a23.45,23.45,0,0,0-3.85,1.78c-.31.17-.61.37-.91.55s-.59.4-.88.6-.58.41-.85.63-.56.43-.82.67l-.79.71-.74.76a10.54,10.54,0,0,0-.69.8,8.89,8.89,0,0,0-.65.83l-.6.87c-.18.3-.34.61-.51.92l-.26.46-.21.48-.41,1,0,.12L53.91,48l-.06,0,.17.26-.06,0c-.61.19-1.24.42-1.84.67s-1.21.52-1.8.81a21.52,21.52,0,0,0-3.35,2,13.26,13.26,0,0,0-2.76,2.7,8.78,8.78,0,0,0-.53.8,9.47,9.47,0,0,0-.45.84,8,8,0,0,0-.34.88,8.54,8.54,0,0,0-.24.91l-.06.23h0l-.3-.33-.06,0,.23.34-.06,0a7.12,7.12,0,0,0-.78.36c-.26.14-.52.29-.77.45s-.5.32-.73.51-.48.36-.7.56a8.76,8.76,0,0,0-.67.6,8.51,8.51,0,0,0-.63.64c-.2.22-.42.43-.59.67l-.56.7-.51.74a8.67,8.67,0,0,0-.48.76c-.15.26-.32.51-.45.78l-.4.81a7.79,7.79,0,0,0-.37.83l-.34.84c-.08.2-.14.4-.21.6-.16-.17-.31-.34-.45-.52l-.06,0a7.26,7.26,0,0,0,.46.65l0,.09-.28.86,0,.05,0,0c-.32.49-.62,1-.92,1.52s-.59,1-.87,1.56c-.56,1-1.09,2.12-1.56,3.21-.12.27-.24.55-.34.82s-.22.55-.32.83l-.3.84c-.1.28-.17.57-.26.85s-.16.57-.22.86a8.4,8.4,0,0,0-.17.87c0,.29-.1.59-.11.89V82l-.11-.18V81.6c0-.3,0-.6.07-.9a8.52,8.52,0,0,1,.13-.89c0-.3.1-.6.18-.89.13-.59.3-1.17.47-1.75.09-.29.2-.57.29-.85s.2-.57.32-.85c.43-1.13.93-2.22,1.46-3.3S32.58,70.05,33.2,69l.26-.85c.09-.3.17-.6.28-.89l.34-.87a8.19,8.19,0,0,1,.37-.86l.4-.85c.14-.28.3-.55.45-.82a9.22,9.22,0,0,1,.49-.81l.53-.78.58-.74c.19-.25.41-.47.62-.71a9.17,9.17,0,0,1,.66-.68,9.44,9.44,0,0,1,.7-.64q.36-.31.74-.59c.25-.2.51-.37.78-.54s.54-.34.82-.48.44-.23.67-.33a6.74,6.74,0,0,1,.21-.79,8.77,8.77,0,0,1,.37-1,9.48,9.48,0,0,1,.5-.92,9.6,9.6,0,0,1,.59-.86,14,14,0,0,1,3-2.82A22.25,22.25,0,0,1,50,49.16c.61-.29,1.23-.55,1.86-.8s1.17-.43,1.78-.61l.38-.84.23-.5.28-.47c.19-.31.37-.63.56-.93l.64-.88a9.24,9.24,0,0,1,.69-.83c.24-.27.47-.55.73-.8l.78-.75.82-.7c.27-.24.57-.44.85-.66s.58-.43.88-.62.59-.4.91-.58.61-.38.93-.55a23.72,23.72,0,0,1,3.89-1.75l.69-.94a9.06,9.06,0,0,1,.75-.95l.8-.91c.27-.29.57-.56.86-.85a10.62,10.62,0,0,1,.9-.81l.93-.78,1-.71c.32-.25.67-.45,1-.66s.68-.43,1-.62.7-.4,1.07-.57l1.1-.52,1.12-.46,1.14-.41c.39-.11.77-.24,1.16-.34A20.55,20.55,0,0,1,82,26.9c.63-.66,1.26-1.31,1.91-2,.34-.33.72-.63,1.07-.95l1.08-.94,1.15-.85a13.25,13.25,0,0,1,1.17-.82l1.22-.75A13.81,13.81,0,0,1,90.92,20a10.51,10.51,0,0,1,1.31-.58c.45-.16.89-.36,1.35-.49s.92-.26,1.39-.37.94-.17,1.42-.24,1-.09,1.43-.08h.29"/><path class="cls-18" d="M118.71,33.57h0a2.31,2.31,0,0,1,.46,0,1,1,0,0,1,.38.18.78.78,0,0,1,.3.47.71.71,0,0,1,0,.19h-.08a.65.65,0,0,0-.08-.14.64.64,0,0,0-.33-.25c-.07,0-.18,0-.27,0h0l-.32,0-.4.14c-.14,0-.28.14-.44.21a3,3,0,0,0-.47.26L117,35c-.34.22-.74.4-1.12.63a8.34,8.34,0,0,0-1.14.79,13.44,13.44,0,0,0-1,1c-.32.36-.62.74-1,1.08s-.65.67-1,1-.61.64-.91.92l-.76.71q-1,.67-1.88,1.36a21.62,21.62,0,0,1,1.28-1.76c.23-.28.48-.58.77-.88s.59-.62.92-.93a21.15,21.15,0,0,1,2.19-1.83,13.73,13.73,0,0,0,1.15-.88,11.82,11.82,0,0,0,1-.94,11.32,11.32,0,0,1,1-.87,6.33,6.33,0,0,1,1.07-.57,5.23,5.23,0,0,1,.52-.18l.51-.08"/><path class="cls-18" d="M146.86,19.73a3.23,3.23,0,0,0,.2.31,7.7,7.7,0,0,0,1.66,1.5c.71.51,1.46,1,2.21,1.43,1.09.65,2.19,1.26,3.31,1.85l-.8.11q-1.37-.8-2.7-1.65c-.74-.49-1.46-1-2.16-1.55a11.42,11.42,0,0,1-1-.88,5.2,5.2,0,0,1-.64-.77,2.27,2.27,0,0,1-.16-.3l.07,0"/><path class="cls-18" d="M82.19,27.13l.26.32a9.78,9.78,0,0,0,1.06,1.07c.47.43,1,.83,1.49,1.21s1,.76,1.56,1.12,1.07.71,1.61,1.06q3.26,2.05,6.66,3.88c1.13.62,2.26,1.23,3.39,1.84s2.28,1.19,3.43,1.77l3.44,1.75c1,.49,2,1,3,1.46l-.65.49-2.67-1.26c-1.16-.56-2.33-1.12-3.48-1.71C99,39,96.71,37.74,94.47,36.46c-1.12-.65-2.23-1.31-3.33-2s-2.19-1.38-3.25-2.12c-.53-.37-1.06-.75-1.57-1.14s-1-.79-1.52-1.21-1-.86-1.43-1.32a9.92,9.92,0,0,1-1-1.15l-.25-.35.06,0"/><path class="cls-18" d="M53.91,48l.21.25a12.18,12.18,0,0,0,1.62,1.47c.66.52,1.36,1,2.06,1.45s1.43.89,2.15,1.32,1.47.83,2.21,1.23l2.24,1.19,2.25,1.16,2.26,1.15,2.28,1.12,4.58,2.2c1.53.73,3.06,1.45,4.63,2.1.77.35,1.58.58,2.38.86s1.61.52,2.42.77l2.59.79-.29.48-2.42-.92q-1.19-.46-2.38-.88l-1.2-.42-.61-.2-.59-.23L75.57,61c-1.58-.63-3.14-1.3-4.68-2s-3.09-1.42-4.61-2.18-3-1.57-4.49-2.43q-1.1-.65-2.18-1.34c-.71-.46-1.43-.94-2.11-1.45a25.06,25.06,0,0,1-2-1.62A11.41,11.41,0,0,1,54,48.3L53.84,48l.06,0"/><path class="cls-18" d="M42.27,57.86l.3.33a9.14,9.14,0,0,0,1.07,1q.74.61,1.53,1.15c.52.37,1.06.71,1.6,1.05s1.09.67,1.64,1l1.67.95c.56.32,1.12.62,1.69.92,1.12.62,2.26,1.21,3.39,1.82s2.29,1.17,3.43,1.76L62,69.59l1.74.85,1.76.8c.59.27,1.18.51,1.78.75s1.18.46,1.78.68c1.23.14,2.46.27,3.69.42s2.46.36,3.68.56,2.45.42,3.67.66q1.33.25,2.65.53l-.09.21q-1.32-.12-2.63-.28c-1.23-.14-2.47-.29-3.69-.46s-2.46-.34-3.68-.56S70.24,73.27,69,73h0l-1.76-.8c-.59-.26-1.18-.53-1.77-.77l-1.78-.76L61.87,70c-1.19-.49-2.38-1-3.56-1.52s-2.34-1.09-3.5-1.65A62.07,62.07,0,0,1,48,63c-.54-.36-1.08-.71-1.61-1.09s-1-.77-1.55-1.18a16.31,16.31,0,0,1-1.45-1.31,8.77,8.77,0,0,1-1-1.18l-.23-.34.06,0"/><path class="cls-18" d="M69.78,84.26h0M33.72,67.6l-.06,0a7.26,7.26,0,0,0,.46.65,15,15,0,0,0,1.22,1.31,25.22,25.22,0,0,0,2,1.68q1,.8,2.07,1.54t2.14,1.43q2.16,1.4,4.4,2.66t4.52,2.44c3,1.56,6.12,3.07,9.26,4.44a10.9,10.9,0,0,0,2.49.78,15.89,15.89,0,0,0,2.53.24h.05a20.45,20.45,0,0,0,2.57-.13,23.3,23.3,0,0,0,2.51-.4,11.47,11.47,0,0,0,1.42.31c.49.08,1,.16,1.47.19s1,.1,1.48.12,1,.06,1.48.08l1.48,0h1.48l1.79,0a5.4,5.4,0,0,1-.88-.49l0-.18-1,0-2.93.08c-.49,0-1,0-1.47,0h-.46l-1,0h0c-.48,0-1-.06-1.44-.11A10.31,10.31,0,0,1,69.86,84h-.08a18.49,18.49,0,0,1-4.8.52h-.25a13,13,0,0,1-2.51-.33,10,10,0,0,1-2.35-.86c-3-1.54-6.09-3.08-9.1-4.69q-2.25-1.21-4.49-2.44c-1.49-.83-3-1.67-4.44-2.53q-1.1-.65-2.17-1.34c-.72-.46-1.43-.92-2.13-1.41s-1.38-1-2-1.53a15.11,15.11,0,0,1-1.36-1.26c-.16-.17-.31-.34-.45-.52"/><path class="cls-18" d="M73.72,93.74h0m23.93-78c-.39,0-.78,0-1.17,0a13,13,0,0,0-1.49.16,12.06,12.06,0,0,0-1.47.3c-.24.06-.49.11-.73.18l-.71.24a12.19,12.19,0,0,0-1.41.52l-1.37.62c-.44.24-.87.49-1.31.74l-.65.38c-.21.14-.41.29-.62.43l-1.23.87c-.41.29-.77.64-1.16,1l-1.14,1-2.06,2.07a20.41,20.41,0,0,0-2.3.47c-.39.1-.78.22-1.16.33l-1.15.39-1.13.44-1.11.49c-.37.16-.72.36-1.08.54s-.71.39-1.06.59-.7.4-1,.64l-1,.69-.95.76a10.2,10.2,0,0,0-.91.8c-.29.28-.6.55-.88.84l-.81.91a9.19,9.19,0,0,0-.76.95l-.66.88a19.77,19.77,0,0,0-1.93.77c-.33.14-.65.31-1,.47s-.64.34-1,.51-.62.37-.93.55-.61.39-.91.59-.6.41-.88.63-.59.43-.85.67l-.82.71-.78.77c-.27.25-.49.54-.73.81a9.36,9.36,0,0,0-.69.85l-.64.89c-.19.31-.37.63-.55.95l-.27.48-.22.5-.36.82c-.6.18-1.17.39-1.74.62s-1.25.52-1.85.81a22.29,22.29,0,0,0-3.49,2.07,14.06,14.06,0,0,0-2.95,2.84,9.63,9.63,0,0,0-.58.86,9.86,9.86,0,0,0-.49.92,8.77,8.77,0,0,0-.38,1,6.73,6.73,0,0,0-.21.79c-.24.1-.46.21-.68.33s-.55.31-.82.48-.53.35-.78.54-.5.38-.74.59a9.44,9.44,0,0,0-.7.63,9.2,9.2,0,0,0-.66.67c-.21.24-.44.46-.62.71l-.59.74-.53.78a9.28,9.28,0,0,0-.5.8c-.15.27-.32.54-.46.82l-.41.85a8.24,8.24,0,0,0-.37.86l-.35.87c-.11.29-.19.59-.29.89l-.26.83c-.7,1.14-1.33,2.3-1.93,3.49s-1.16,2.43-1.64,3.7a22.6,22.6,0,0,0-1.13,3.91,8.48,8.48,0,0,0,.14,4.15,4.21,4.21,0,0,0,1.23,1.78,4,4,0,0,0,.44.33l.49.27c.16.08.32.12.47.19l.23.09.11,0c0-.24,0-.36,0-.36h.08s0,.14,0,.39h0a35.58,35.58,0,0,0,4,.73c2.65.37,5.29.71,7.92,1.16,1.31.22,2.62.48,3.92.77s2.59.61,3.89.93q3.89,1,7.76,2,7.27,1.93,14.49,4l1,.07v.08l-.38,0,.34.1h0c1.76.05,3.52.13,5.28.16h2.31l1.7,0h3.1l3.1-.05c1,0,2.06-.06,3.1-.09s2.06-.1,3.09-.15,2.06-.15,3.09-.21,2.06-.2,3.09-.3,2.05-.24,3.07-.41l1.53-.24,1.53-.28c1-.21,2-.42,3-.7.5-.12,1-.28,1.49-.43s1-.33,1.47-.51,1-.4,1.45-.59l.14-.07-.91-.08c-.27.12-.55.24-.83.34-.48.18-1,.37-1.45.52s-1,.32-1.47.45c-1,.29-2,.51-3,.73l-1.51.3-1.52.26c-1,.18-2,.28-3.06.43s-2,.23-3.08.31-2.05.18-3.08.23-2.06.13-3.09.16-2.06.08-3.09.1l-3.09,0L83,94H82l-1,0-1.05,0h-.28c-2,0-4-.14-5.93-.21q-7.67-2.31-15.39-4.42-3.86-1.06-7.75-2.07c-1.29-.33-2.59-.67-3.89-1s-2.62-.58-3.94-.81c-2.64-.48-5.29-.85-7.93-1.24A37.19,37.19,0,0,1,31,83.49l-.21-.06-.23-.09c-.15-.06-.32-.11-.46-.18l-.38-.22a3.27,3.27,0,0,1-.36-.27,3.31,3.31,0,0,1-.63-.72l-.11-.18a3.73,3.73,0,0,1-.27-.58,7.79,7.79,0,0,1-.09-3.77,21.86,21.86,0,0,1,1.1-3.77c.47-1.23,1-2.44,1.62-3.62s1.24-2.35,1.94-3.46l0,0,0-.06.27-.86c.1-.29.17-.58.28-.86l.34-.84a7.73,7.73,0,0,1,.36-.83l.4-.81c.13-.27.3-.52.45-.78a8.69,8.69,0,0,1,.47-.77L36,60l.56-.7c.18-.24.39-.45.59-.68a8.53,8.53,0,0,1,.63-.64,8.76,8.76,0,0,1,.66-.6q.34-.3.7-.56c.23-.18.49-.35.73-.51s.5-.31.77-.45a7.16,7.16,0,0,1,.78-.37l.21-.08.05-.23a8.56,8.56,0,0,1,.24-.92,8,8,0,0,1,.34-.88,9.08,9.08,0,0,1,.45-.84,8.85,8.85,0,0,1,.53-.79A13.26,13.26,0,0,1,46,49a21.5,21.5,0,0,1,3.36-2q.88-.43,1.8-.79c.61-.24,1.23-.47,1.84-.65l.18-.05.08-.19.42-1,.21-.48.26-.45c.18-.3.34-.61.52-.9l.6-.85a8.79,8.79,0,0,1,.65-.82,10.41,10.41,0,0,1,.69-.78l.74-.75.79-.69c.26-.24.54-.44.82-.66s.56-.43.85-.62.57-.41.88-.58.59-.38.9-.54.61-.35.93-.5.63-.32.95-.46a19.22,19.22,0,0,1,1.94-.79l.1,0,.07-.09.7-1A8.76,8.76,0,0,1,67,32.5l.78-.89c.27-.29.56-.55.85-.83a9.79,9.79,0,0,1,.88-.79l.92-.75,1-.68c.32-.24.66-.43,1-.64s.67-.42,1-.59.69-.38,1.05-.54l1.08-.49,1.1-.44,1.12-.39c.38-.11.76-.23,1.14-.34a19.87,19.87,0,0,1,2.31-.49h.08l.06-.06,2.07-2.12,1.12-1c.38-.32.73-.67,1.13-1l1.2-.87c.2-.14.4-.29.6-.43l.64-.38c.43-.25.84-.51,1.28-.75l1.34-.63a12,12,0,0,1,1.38-.54l.7-.25c.24-.07.48-.13.72-.19A11.86,11.86,0,0,1,95,16.16,12.88,12.88,0,0,1,96.48,16c.43,0,.85-.07,1.28-.06h.94l.74.07a7.32,7.32,0,0,1,.73.11c.24,0,.49.08.73.15a9.08,9.08,0,0,1,1.23.37l.18.07,0-.07-.13-.06a9.09,9.09,0,0,0-1.29-.42c-.24-.07-.49-.12-.73-.16a7.43,7.43,0,0,0-.74-.12l-.74-.09-.75,0h-.32"/><path class="cls-18" d="M30.61,83.77h.08s0,.14,0,.39l0,.12a3.57,3.57,0,0,0,.53,1.31,5.89,5.89,0,0,0,1.56,1.54,14,14,0,0,0,2.54,1.37,32.91,32.91,0,0,0,3.26,1.14c1.18.35,2.43.68,3.74,1s2.68.59,4.07.85,2.81.51,4.24.75l2.14.33,2.13.25c1.41.15,2.81.23,4.16.27l3.9.13,3.49.18,5.22.33,1,.07,1,.07v.08l-.38,0L71.72,94c-.63,0-1.4,0-2.28,0-.68,0-1.42,0-2.22,0l-.74,0c-1.08,0-2.26-.07-3.5-.16s-2.54-.24-3.89-.39-2.74-.32-4.16-.45l-4.3-.39c-1.44-.13-2.88-.29-4.3-.5s-2.8-.46-4.13-.74a37.38,37.38,0,0,1-3.81-1,24.57,24.57,0,0,1-3.3-1.3,12.19,12.19,0,0,1-2.56-1.59A5.91,5.91,0,0,1,31,85.75a3.72,3.72,0,0,1-.41-1.45c0-.06,0-.12,0-.17,0-.24,0-.36,0-.36"/><path class="cls-19" d="M180.79,19c9.12,3.3,15.74,6.38,15.74,6.38s1.26.18,3,.48h0c1.76.3,4,.72,5.94,1.19a25.54,25.54,0,0,1,2.44.77,20.37,20.37,0,0,0-5.57-.9h-.25c.09.44.52.73.91,1l12.21,7.39,0,3.18a3.56,3.56,0,0,0,.86.11c.27,0,.55,0,.83,0s.55,0,.82,0a1.94,1.94,0,0,1,1.6.62,2.81,2.81,0,0,1,.46,1.4l.47,3.32c0,.31.12.67.4.81a.57.57,0,0,0,.24.06,1.42,1.42,0,0,0,.45-.08,9,9,0,0,0,4.23-2.9,1.85,1.85,0,0,0,.23-.35c.83,1.33.56,3.14,0,4.62a10.82,10.82,0,0,1-1.87,3.08.86.86,0,0,0-.47-.73.78.78,0,0,0-.33-.08c-.63,0-1.18.78-1.45,1.44a11.73,11.73,0,0,1-2,3.38q-.68.55-1.43,1.1a3.47,3.47,0,0,1-1.16.32l.16.41c-19.6,13.92-65.74,30.14-76.59,33.42a135.59,135.59,0,0,1-14.34,2.73c-2.86-.2-6.76-.49-11.09-.86l-.91-.08c-12.81-1.12-29-2.92-34-5.2a5.4,5.4,0,0,1-.88-.49l0-.18A57.2,57.2,0,0,1,82.68,75l.09-.21a78,78,0,0,1,4.73-9.29l.29-.48A79.79,79.79,0,0,1,95,54.94l.34-.4a79.73,79.73,0,0,1,12.05-11.43l.65-.49.16-.12q.92-.69,1.88-1.36A84.37,84.37,0,0,1,120.18,35l.83-.42a95.48,95.48,0,0,1,17.17-6.57l.65-.18a115.53,115.53,0,0,1,14.61-3l.8-.11q1.82-.24,3.7-.43s5.63-1,11.8-2.36l1.13-.26c3.55-.82,7.17-1.76,9.92-2.71"/><path class="cls-20" d="M218.3,54.24a3.47,3.47,0,0,1-1.16.32l.16.41,1-.73m4.84-5.92c-.63,0-1.18.78-1.45,1.44a11.73,11.73,0,0,1-2,3.38,28.47,28.47,0,0,0,4.21-4,.86.86,0,0,0-.47-.73.78.78,0,0,0-.33-.08"/><path class="cls-19" d="M210.51,28.85c4,1.6,8.3,3.62,8.3,3.62l3-2.29.34,4.49c.31.83-.37,1.12-.5,1.94a4.12,4.12,0,0,1-.29-3.1c.2-.56.4-1.42-.18-1.56l-.12,0c-.73,0-.62,1.72-1.45,1.88h-.13c-.65,0-.85-1.17-1.51-1.47a1.23,1.23,0,0,0-.5-.09h-.36c-1.4,0-2.58-1-3.73-1.76a20.13,20.13,0,0,0-2.91-1.65"/><polyline class="cls-21" points="199.52 25.9 199.52 25.9 199.52 25.9 199.52 25.9"/><path class="cls-21" d="M202.33,27a20.37,20.37,0,0,1,5.57.9c.81.29,1.7.63,2.6,1a20.13,20.13,0,0,1,2.91,1.65c1.15.79,2.33,1.73,3.73,1.76h.36a1.23,1.23,0,0,1,.5.09c.66.3.86,1.46,1.51,1.47h.13c.83-.17.72-1.9,1.45-1.88l.12,0c.58.14.37,1,.18,1.56a4.12,4.12,0,0,0,.29,3.1s0,.1,0,.15a3.18,3.18,0,0,0,1.6,2.58,9,9,0,0,1,2.45,2l.06.1a1.85,1.85,0,0,1-.23.35,9,9,0,0,1-4.23,2.9,1.42,1.42,0,0,1-.45.08.57.57,0,0,1-.24-.06c-.28-.14-.36-.5-.4-.81l-.47-3.32a2.81,2.81,0,0,0-.46-1.4,1.94,1.94,0,0,0-1.6-.62c-.26,0-.54,0-.82,0s-.56,0-.83,0a3.56,3.56,0,0,1-.86-.11l0-3.18L203,27.92c-.39-.24-.81-.52-.91-1h.25"/><path class="cls-2" d="M222.21,35.5c-.11.27-.28.49-.38.75a1.91,1.91,0,0,0,.13,1.58A4,4,0,0,0,223,39.07c.44.34.92.63,1.39.95a5.13,5.13,0,0,1,1.27,1.14,3.55,3.55,0,0,1,.64,1.59,7,7,0,0,1-.45,3.36,15.32,15.32,0,0,1-4,5.4,47.65,47.65,0,0,1-5.31,4.2,118.2,118.2,0,0,1-11.61,6.93c-4,2.11-8,4.08-12.12,6-8.18,3.78-16.5,7.23-24.89,10.5q-6.29,2.45-12.64,4.75c-4.24,1.53-8.48,3-12.78,4.4l-1.62.5c-.55.16-1.11.31-1.66.44-1.1.26-2.21.49-3.32.71-2.21.43-4.44.82-6.66,1.18-4.45.72-8.91,1.36-13.37,1.94C107,94.19,98,95.15,89,95.86s-18,1.21-27,1.38a254.46,254.46,0,0,1-27-.76,122.78,122.78,0,0,1-13.4-1.88,67,67,0,0,1-6.57-1.65,39.29,39.29,0,0,1-6.32-2.48,20.82,20.82,0,0,1-5.57-3.92A11.17,11.17,0,0,1,.11,80.47,7.43,7.43,0,0,1,0,79.62c0-.29,0-.54,0-.86,0-.57,0-1.14.09-1.7s.1-1.13.2-1.69.17-1.12.3-1.67a34.55,34.55,0,0,1,2.08-6.45A57,57,0,0,1,9.59,55.63a99.33,99.33,0,0,1,8.89-10.18A183.14,183.14,0,0,1,39,27.93,249.91,249.91,0,0,1,61.55,13.06c3.89-2.27,7.84-4.44,11.87-6.46,2-1,4.05-2,6.12-2.88,1-.46,2.08-.88,3.13-1.3.52-.2,1.05-.4,1.6-.57s1.07-.37,1.62-.51A42.33,42.33,0,0,1,99.37.07a74.65,74.65,0,0,1,13.38,2.05,116.76,116.76,0,0,1,25.31,9.49l-.26,0,1.89-.41,1.91-.26,1.92-.14c.64,0,1.28,0,1.92,0,1.28,0,2.56.05,3.83.17.64,0,1.27.1,1.91.18s1.27.13,1.9.23A111.17,111.17,0,0,1,168,14.61c4.9,1.4,9.73,3,14.49,4.8q3.58,1.34,7.11,2.79c2.35,1,4.69,2,7,3l-.06,0c1.94.3,3.87.62,5.79,1,1,.19,1.92.4,2.87.63.48.12,1,.25,1.42.4s.93.32,1.39.48c1.84.68,3.65,1.44,5.44,2.22s3.58,1.59,5.35,2.43h-.09l3-2.27.1-.08v.13l.31,4.49A1.1,1.1,0,0,1,222.21,35.5Zm-.07-.83-.37-4.49.11.05-3,2.31,0,0-.05,0q-2.67-1.22-5.37-2.36c-1.8-.76-3.62-1.5-5.45-2.15-.46-.16-.92-.32-1.39-.46s-.93-.27-1.4-.38c-1-.22-1.91-.41-2.87-.59q-2.88-.54-5.78-1h-.06c-2.31-1-4.65-2-7-3s-4.72-1.87-7.1-2.75c-4.76-1.76-9.59-3.35-14.47-4.72A110.58,110.58,0,0,0,153,12c-.63-.1-1.26-.15-1.88-.22s-1.26-.13-1.89-.17c-1.26-.11-2.52-.14-3.78-.15-.63,0-1.26,0-1.89,0l-1.88.14-1.86.26-1.83.4-.14,0-.12-.06a121.63,121.63,0,0,0-12.31-5.39,111.76,111.76,0,0,0-12.82-4A74,74,0,0,0,99.33.71,41.73,41.73,0,0,0,86,1.9c-.54.13-1.06.33-1.59.5s-1.05.35-1.58.56c-1,.4-2.08.82-3.11,1.27-2.06.89-4.09,1.84-6.11,2.84-4,2-8,4.13-11.87,6.38A249.55,249.55,0,0,0,39.19,28.18,168.77,168.77,0,0,0,18.72,45.69,99,99,0,0,0,9.9,55.86,56.63,56.63,0,0,0,3.07,67.41a34.1,34.1,0,0,0-2,6.38c-.05.27-.12.55-.17.82l-.12.83C.66,76,.62,76.54.57,77.1s0,1.11-.08,1.67c0,.25,0,.55,0,.82a7.19,7.19,0,0,0,.07.83,10.67,10.67,0,0,0,3,5.75A20.28,20.28,0,0,0,9,90a38.7,38.7,0,0,0,6.24,2.4A66.37,66.37,0,0,0,21.76,94,122.12,122.12,0,0,0,35.1,95.75,261.72,261.72,0,0,0,62,96.41c9-.2,18-.72,26.93-1.45s17.91-1.66,26.83-2.8c4.46-.58,8.91-1.21,13.35-1.92,2.22-.36,4.43-.74,6.63-1.17,1.1-.21,2.2-.44,3.28-.7.54-.13,1.08-.27,1.6-.42l1.61-.5c8.55-2.74,17-5.79,25.42-9s16.73-6.62,24.91-10.34c4.09-1.86,8.15-3.81,12.13-5.89a117.8,117.8,0,0,0,11.6-6.83,47.43,47.43,0,0,0,5.31-4.11,15.07,15.07,0,0,0,4-5.26,6.8,6.8,0,0,0,.48-3.25,3.36,3.36,0,0,0-.59-1.51,5,5,0,0,0-1.22-1.11c-.46-.32-.94-.61-1.39-1a4.15,4.15,0,0,1-1.11-1.29,2,2,0,0,1-.12-1.68c.11-.27.28-.5.39-.75a1,1,0,0,0,0-.79Z"/><path class="cls-2" d="M50.33,30.69a9.63,9.63,0,0,0,1.3,1.59c.24.25.49.49.74.71s.51.46.78.67c.53.44,1.08.84,1.64,1.24s1.12.78,1.69,1.16,1.16.73,1.75,1.08,1.18.69,1.78,1c1.19.67,2.4,1.31,3.62,1.91,2.45,1.2,5,2.28,7.48,3.33l7.52,3.22-.06,0c1.67,1.84,3.32,3.71,5,5.55s3.37,3.67,5.06,5.5l.19.2.28-.09c1.18-.4,2.4-.75,3.62-1.08s2.45-.61,3.68-.83a25.32,25.32,0,0,1,3.72-.42,11.79,11.79,0,0,1,1.84.09l.45.08.44.11.43.14.41.17.33.14.12-.3,1.46-3.75c.48-1.25,1-2.51,1.42-3.77l-.08,0c-.58,1.21-1.15,2.43-1.71,3.64l-1.67,3.66.44-.16-.46-.22L103,55l-.48-.13-.49-.1a12.51,12.51,0,0,0-2-.16,22.1,22.1,0,0,0-3.87.33,37.81,37.81,0,0,0-3.77.82c-1.24.33-2.46.7-3.68,1.15l.46.11c-1.73-1.79-3.45-3.59-5.19-5.37s-3.51-3.54-5.25-5.31l0,0h0c-.64-.23-1.27-.5-1.9-.75L75,44.79q-1.88-.8-3.72-1.68c-2.45-1.18-4.87-2.44-7.28-3.69s-4.82-2.51-7.15-3.89c-.58-.35-1.16-.69-1.73-1.06s-1.13-.74-1.68-1.14c-.27-.2-.55-.4-.81-.61s-.53-.41-.79-.64a11.63,11.63,0,0,1-1.42-1.44Z"/><path class="cls-2" d="M126.22,6.89c-1.33-.38-2.67-.7-4-1s-2.71-.54-4.07-.77-2.73-.42-4.11-.58-2.75-.26-4.14-.33-2.77-.12-4.15-.09-2.77.11-4.15.25a32.19,32.19,0,0,0-4.11.67,29,29,0,0,0-4,1.23,20.08,20.08,0,0,0-3.69,2,2.14,2.14,0,0,0-.4.39,1.69,1.69,0,0,0-.24.52,2.06,2.06,0,0,0,.05,1.1,6,6,0,0,0,1.08,1.81,24,24,0,0,0,3,2.92c1.06.89,2.15,1.73,3.26,2.56s2.24,1.62,3.37,2.4,2.28,1.54,3.36,2.38A32.6,32.6,0,0,1,106.32,25a19.48,19.48,0,0,1,2.6,3.06l.07.1.08,0,1.17.59.59.29.61.23,1.23.45,1.27.32a9,9,0,0,0,1.29.24,13.08,13.08,0,0,0,1.3.16l1.31.06c.44,0,.87,0,1.31,0s.87-.07,1.3-.11.86-.1,1.29-.18.86-.14,1.28-.25.85-.19,1.26-.32.83-.23,1.24-.38.82-.27,1.22-.44.8-.32,1.2-.5.78-.37,1.18-.59l.19-.11v-.23l.13-2.36c0-.4.09-.78.13-1.17l.15-1.17c0-.39.16-.77.23-1.16l.25-1.15.35-1.12.17-.56.23-.54c.16-.36.29-.73.47-1.08l.57-1c.21-.33.45-.64.68-1s.52-.58.77-.88.58-.53.88-.78a8.58,8.58,0,0,1,1-.64,6.74,6.74,0,0,1,1.07-.49,5.28,5.28,0,0,1,1.15-.28v-.09a5.37,5.37,0,0,0-1.19.22,6.92,6.92,0,0,0-1.13.44,8.81,8.81,0,0,0-1.05.61c-.32.24-.65.49-1,.76s-.59.56-.84.88-.51.64-.74,1l-.63,1c-.2.35-.35.73-.53,1.09l-.26.55-.2.57-.4,1.15c-.1.39-.19.78-.29,1.18s-.21.78-.26,1.18l-.19,1.2c-.05.4-.14.8-.16,1.2l-.19,2.41.21-.34a22,22,0,0,1-2.29,1c-.39.16-.79.28-1.19.42s-.8.24-1.2.36-.81.2-1.22.3-.82.16-1.23.23a12.5,12.5,0,0,1-1.24.17,12.34,12.34,0,0,1-1.25.1c-.42,0-.83,0-1.25,0l-1.25-.06a12.26,12.26,0,0,1-1.24-.13,8.36,8.36,0,0,1-1.23-.21L112.91,29l-1.18-.41-.59-.21-.56-.27-1.12-.55.15.14a18.81,18.81,0,0,0-2.78-3.18,33.29,33.29,0,0,0-3.22-2.66c-1.13-.82-2.3-1.55-3.47-2.28s-2.31-1.5-3.43-2.28-2.23-1.61-3.29-2.49a20.43,20.43,0,0,1-2.93-2.86,5.79,5.79,0,0,1-1-1.73,1.76,1.76,0,0,1,0-.93,1.38,1.38,0,0,1,.2-.41A1.77,1.77,0,0,1,90,8.52a18.48,18.48,0,0,1,3.65-1.79A28.81,28.81,0,0,1,97.6,5.66c.67-.12,1.34-.24,2-.32l1-.14,1-.1c1.36-.13,2.73-.19,4.1-.21s2.74,0,4.11,0,2.74.15,4.11.27,2.73.26,4.1.44,2.72.38,4.08.6,2.71.47,4.06.75Z"/><path class="cls-2" d="M89.66,10.87a8.09,8.09,0,0,0-1.48-.52,11,11,0,0,0-1.55-.27A12.85,12.85,0,0,0,85.05,10c-.53,0-1.05.06-1.58.09s-1,.17-1.56.26-1,.27-1.53.41-1,.36-1.49.53a11.57,11.57,0,0,0-1.45.64,15.22,15.22,0,0,0-1.4.73l-1.34.83a14.55,14.55,0,0,0-1.29.9l-1.27.94-1.19,1c-.39.35-.8.68-1.18,1-.74.74-1.47,1.5-2.2,2.25l.23-.12c-.46.07-.89.15-1.33.24s-.87.2-1.3.32-.85.25-1.28.38l-1.26.45-1.23.51L60.2,22c-.4.19-.78.42-1.18.62s-.77.44-1.15.68-.76.46-1.11.73l-1.08.78-1,.85a11.7,11.7,0,0,0-1,.89c-.32.31-.65.61-.95.93l-.88,1a10,10,0,0,0-.82,1l-.78,1.07.07-.05a21.51,21.51,0,0,0-2.2.87c-.36.16-.71.34-1.07.51s-.7.37-1,.56-.68.4-1,.6-.67.42-1,.64-.65.44-1,.68-.64.46-.94.73l-.91.77-.85.83c-.3.27-.54.58-.81.88a10.19,10.19,0,0,0-.76.92l-.71,1c-.22.33-.41.68-.62,1l-.3.52-.25.55-.5,1.09.23-.21c-.73.21-1.42.45-2.11.72s-1.37.55-2,.88a24.49,24.49,0,0,0-3.84,2.26,15.45,15.45,0,0,0-3.26,3.11,10.59,10.59,0,0,0-.64.94,10.46,10.46,0,0,0-.55,1,9.67,9.67,0,0,0-.41,1.08,10.28,10.28,0,0,0-.29,1.12l.29-.34a8.47,8.47,0,0,0-1,.46c-.31.16-.61.35-.9.53s-.58.38-.86.6-.55.42-.81.65a10.39,10.39,0,0,0-.77.7,10.09,10.09,0,0,0-.73.74c-.23.26-.48.5-.68.78l-.64.81-.58.86a10.15,10.15,0,0,0-.53.89c-.17.3-.35.59-.5.9l-.44.93a9,9,0,0,0-.4.95l-.37,1c-.12.32-.21.65-.31,1l-.3,1,0-.09c-.69,1.15-1.32,2.3-1.91,3.5-.3.59-.57,1.2-.85,1.8s-.53,1.22-.76,1.84c-.12.31-.24.62-.35.93s-.23.62-.32.94l-.28,1c-.09.32-.16.64-.24,1s-.14.65-.2,1a9.4,9.4,0,0,0-.14,1c0,.33-.07.66-.08,1v1h.09l0-1c0-.33.08-.65.12-1a9.22,9.22,0,0,1,.19-1c.07-.32.14-.64.24-1s.18-.63.28-.94l.33-.93c.11-.31.24-.61.35-.92s.24-.61.38-.91c.25-.6.54-1.2.82-1.79s.59-1.17.9-1.75.63-1.15,1-1.72.66-1.13,1-1.68l0,0,0-.06.31-1c.11-.31.2-.64.32-.95l.38-.92a8.54,8.54,0,0,1,.41-.91l.45-.89c.15-.3.33-.57.5-.86a9.6,9.6,0,0,1,.53-.84l.56-.82.62-.77c.2-.27.44-.49.65-.74a9.4,9.4,0,0,1,.69-.7,9.64,9.64,0,0,1,.73-.66q.37-.33.77-.61c.26-.2.54-.38.81-.56s.56-.34.84-.49a7.86,7.86,0,0,1,.86-.4l.23-.09.06-.25a9.41,9.41,0,0,1,.26-1,8.79,8.79,0,0,1,.38-1,10.44,10.44,0,0,1,.49-.93,9.69,9.69,0,0,1,.58-.88,14.6,14.6,0,0,1,3-3,23.68,23.68,0,0,1,3.69-2.23c.65-.32,1.31-.62,2-.89s1.35-.53,2-.74l.16,0L37,42.9l.46-1.06.23-.53.28-.5c.19-.33.37-.68.57-1l.66-1a9.77,9.77,0,0,1,.71-.92,11.6,11.6,0,0,1,.76-.88l.81-.84.87-.78c.28-.27.6-.5.9-.74s.61-.48.94-.7.63-.46,1-.66.66-.42,1-.6.68-.39,1-.56.69-.36,1.05-.52a21.29,21.29,0,0,1,2.16-.88h0l0,0,.79-1.05a9.8,9.8,0,0,1,.82-1l.88-1c.3-.32.63-.6.95-.9a10.34,10.34,0,0,1,1-.86l1-.8L57,24.4c.35-.25.74-.46,1.12-.68s.75-.44,1.15-.63.77-.4,1.17-.57l1.2-.52,1.22-.46,1.24-.4c.42-.12.83-.25,1.25-.35s.84-.21,1.27-.3.86-.16,1.27-.22l.13,0,.1-.1c.72-.74,1.45-1.47,2.17-2.21.37-.36.76-.69,1.14-1l1.15-1,1.23-.93a14.08,14.08,0,0,1,1.25-.9l1.3-.83c.43-.29.9-.48,1.35-.74a11.11,11.11,0,0,1,1.39-.67c.48-.19.94-.42,1.43-.57s1-.31,1.47-.44,1-.22,1.51-.3,1-.14,1.53-.16a12.55,12.55,0,0,1,1.54,0,10.78,10.78,0,0,1,1.53.19,8.13,8.13,0,0,1,1.49.42Z"/><path class="cls-2" d="M109.31,27.87a.78.78,0,0,0,0-.21.81.81,0,0,0-.09-.24l-.09-.15-.15-.13a1.1,1.1,0,0,0-.42-.2,2.71,2.71,0,0,0-.52,0l-.56.09a5.73,5.73,0,0,0-.58.19,7,7,0,0,0-1.18.63,11.63,11.63,0,0,0-1.11,1,13.72,13.72,0,0,1-1.14,1,15.12,15.12,0,0,1-1.26,1,23.21,23.21,0,0,0-2.41,2c-.36.35-.7.68-1,1s-.6.66-.85,1c-.5.62-.9,1.16-1.16,1.55s-.4.62-.4.62l.06.06s.22-.16.59-.45.88-.72,1.46-1.26l.93-.88c.33-.31.66-.65,1-1s.69-.73,1-1.11.69-.79,1-1.18A14.79,14.79,0,0,1,103.62,30a9.55,9.55,0,0,1,1.25-.87c.43-.25.86-.45,1.24-.69.19-.11.38-.2.56-.31a3.29,3.29,0,0,1,.52-.28c.17-.08.33-.18.48-.23l.44-.15c.13,0,.26,0,.38-.05s.23,0,.3,0a.7.7,0,0,1,.36.27.71.71,0,0,1,.09.16Z"/><path class="cls-2" d="M197.75,25.65c1.35.8,2.72,1.57,4.08,2.36s2.74,1.54,4.1,2.32,2.74,1.55,4.12,2.3l4.13,2.27-.1-.56a6.49,6.49,0,0,0-1.48,2.7,2.38,2.38,0,0,0,.21,1.67,1.63,1.63,0,0,0,.25.36,1.33,1.33,0,0,0,.3.3l.3.24.14.11.08.09a1.64,1.64,0,0,1,.34,1.1,3.52,3.52,0,0,1-.28,1.28,4.85,4.85,0,0,1-1.67,2.09,3.85,3.85,0,0,1-2.56.68,4.7,4.7,0,0,1-1.33-.34L207,44l-5.39-2.22q-2.7-1.09-5.37-2.24t-5.35-2.3l-10.66-4.69c-3.55-1.57-7.1-3.12-10.64-4.72l-5.31-2.38q-2.65-1.2-5.29-2.43c-1.76-.82-3.52-1.63-5.26-2.47s-3.48-1.7-5.21-2.58-3.43-1.79-5.09-2.78c-.83-.49-1.65-1-2.44-1.57a12.4,12.4,0,0,1-1.13-.9,4.17,4.17,0,0,1-.92-1.09l-.08,0a4.28,4.28,0,0,0,.88,1.17,12.58,12.58,0,0,0,1.1,1c.76.61,1.56,1.17,2.37,1.71,1.64,1.06,3.32,2,5,3s3.43,1.84,5.16,2.72,3.47,1.75,5.23,2.58,3.52,1.65,5.28,2.46,3.53,1.62,5.31,2.39c3.56,1.55,7.13,3.09,10.71,4.58,1.79.74,3.58,1.49,5.39,2.21l5.4,2.18q2.7,1.08,5.39,2.19c1.8.73,3.59,1.47,5.37,2.24s3.57,1.52,5.33,2.34l1.31.63a5.2,5.2,0,0,0,1.46.43,4.44,4.44,0,0,0,3-.69,5.27,5.27,0,0,0,2-2.34,4.23,4.23,0,0,0,.35-1.54,2.36,2.36,0,0,0-.51-1.61l-.17-.18-.14-.11-.09-.07-.06,0-.12-.1a.78.78,0,0,1-.21-.21c-.05-.08-.14-.14-.16-.24a1.72,1.72,0,0,1-.13-1.16,5.81,5.81,0,0,1,1.27-2.37l.29-.35-.39-.21L210.36,32c-1.38-.74-2.78-1.46-4.18-2.18S203.4,28.4,202,27.7s-2.8-1.43-4.21-2.12Z"/><path class="cls-2" d="M208,44.65a9,9,0,0,0-.94.49A10.51,10.51,0,0,0,204.69,47a6.83,6.83,0,0,0-1.19,1.82,4.25,4.25,0,0,0-.22.57l-.09.3,0,.15,0,.12a4.2,4.2,0,0,1-.22.58c-.1.17-.19.35-.29.52a9,9,0,0,1-1.88,2,12.9,12.9,0,0,1-2.59,1.62,11.23,11.23,0,0,1-3.14,1l-.42.06h-.42a4.23,4.23,0,0,1-.84,0,1.6,1.6,0,0,1-.41-.08l-.42-.12c-.3-.1-.58-.21-.91-.28a34.14,34.14,0,0,0-3.86-.58,4.21,4.21,0,0,1-1.74-.63,2.88,2.88,0,0,1-1-1.51l-.14-.47-.1-.51c-.06-.34-.11-.67-.14-1-.08-.68-.07-1.39-.21-2.11a2.42,2.42,0,0,0-.46-1,3.14,3.14,0,0,0-.84-.73,11.58,11.58,0,0,0-2-.86c-1.38-.45-2.77-.82-4.17-1.24l-4.19-1.27-8.33-2.59c-2.75-.85-5.45-1.7-8.05-2.54s-5.13-1.64-7.51-2.44-4.62-1.56-6.69-2.29-3.93-1.46-5.59-2.11-3.06-1.3-4.21-1.85A18.33,18.33,0,0,1,129.75,28a5.31,5.31,0,0,1-.6-.49l-.2-.17-.06.06.19.19a5.45,5.45,0,0,0,.58.53,18.55,18.55,0,0,0,2.49,1.65,77.3,77.3,0,0,0,9.69,4.36c2,.79,4.28,1.62,6.67,2.42S153.4,38.24,156,39s5.34,1.62,8.1,2.42,5.59,1.57,8.42,2.32,5.66,1.48,8.41,2.31a9.47,9.47,0,0,1,1.93.85A2.3,2.3,0,0,1,184,48.51a19.55,19.55,0,0,1,.15,2.08c0,.35.06.71.1,1.05l.08.51c0,.19.08.35.13.53a3.38,3.38,0,0,0,1.16,1.82,4.77,4.77,0,0,0,1.95.81c1.33.28,2.62.34,3.77.66a8.87,8.87,0,0,1,.87.28l.47.14a2.14,2.14,0,0,0,.49.11,5,5,0,0,0,1,.06l.48,0,.46-.07a11.94,11.94,0,0,0,3.33-1.12,13.57,13.57,0,0,0,2.7-1.75,8.81,8.81,0,0,0,1.95-2.18c.12-.21.22-.43.32-.64a4.56,4.56,0,0,0,.2-.61c.08-.25.1-.4.16-.6a3.81,3.81,0,0,1,.18-.54,7.16,7.16,0,0,1,1-1.76,10.47,10.47,0,0,1,2.15-2,8.93,8.93,0,0,1,.88-.56Z"/><path class="cls-2" d="M76.35,62.7l8.31,7.51.08-.29L69.53,72.29l-.58.09.44.4,10.45,9.63.08.07H80q6.61.93,13.26,1.39,3.33.23,6.67.27a63.57,63.57,0,0,0,6.69-.24,27.28,27.28,0,0,0,3.33-.51,10,10,0,0,0,3.2-1.23,4.34,4.34,0,0,0,.7-.57,3.25,3.25,0,0,0,.53-.75c.26-.49.53-1,.76-1.49.49-1,.89-2,1.38-3a14.37,14.37,0,0,1,4.1-5,36.7,36.7,0,0,1,5.56-3.57l1.47-.78c.49-.26,1-.48,1.49-.73l1.5-.72,1.52-.67,3-1.34c1-.44,2-.89,3-1.37a59.71,59.71,0,0,0,5.91-3.1c.24-.14.47-.31.7-.46a8.33,8.33,0,0,0,.68-.49A11.94,11.94,0,0,0,146.78,57l.14-.09.16,0h.39l.82,0c.56,0,1.1.09,1.67.08a12.13,12.13,0,0,0,1.67-.09c.56-.06,1.12-.13,1.66-.24,1.1-.18,2.18-.45,3.27-.7,2.16-.54,4.29-1.17,6.41-1.82q6.35-2,12.57-4.44l.89-.35-1-.19c-1-.19-1.94-.34-2.9-.62l-1.44-.37-1.43-.42c-1-.28-1.91-.57-2.86-.89s-1.9-.61-2.85-.94l-2.84-1-2.83-1-5.64-2c-3.76-1.38-7.5-2.8-11.23-4.22l-5.6-2.15-2.8-1.08-1.41-.53-.71-.26a7.63,7.63,0,0,0-.86-.26l.2,0-8.1-4.07-.08,0H122a17.77,17.77,0,0,0-2.72,0,8.8,8.8,0,0,0-2.73.55,3.27,3.27,0,0,0-1.25.87,2.2,2.2,0,0,0-.51,1.52,5.37,5.37,0,0,0,1.1,2.64,16.2,16.2,0,0,0,1.76,2.07c.32.32.63.64,1,.94l.49.46.12.11.14.12.26.21a21.08,21.08,0,0,0,2.13,1.61c.38.25.75.52,1.13.75l1.16.67c.76.47,1.58.82,2.38,1.23s1.63.72,2.44,1.08,1.65.66,2.5.94,1.68.58,2.53.83,1.7.5,2.56.74,1.72.45,2.58.65c1.73.4,3.46.75,5.23,1h0l15.57.64,15.57.57v-.09l-15.56-.88-15.56-.81h0c-1.73-.28-3.45-.65-5.16-1.07q-1.28-.31-2.55-.67c-.85-.24-1.69-.48-2.52-.76s-1.67-.56-2.49-.85-1.63-.64-2.45-1-1.61-.7-2.39-1.09-1.58-.77-2.31-1.23l-1.13-.66c-.37-.23-.71-.48-1.07-.73s-.72-.46-1.06-.75l-1-.84-.26-.21-.11-.09-.12-.11-.48-.45c-.32-.29-.62-.61-.93-.91a15.37,15.37,0,0,1-1.66-2,4.61,4.61,0,0,1-.94-2.18,1.31,1.31,0,0,1,.31-.93,2.42,2.42,0,0,1,.91-.62,8,8,0,0,1,2.45-.48,17,17,0,0,1,2.57,0l-.15,0,8.09,4.09.2,0,2.67,1,2.81,1.06,5.62,2.12c3.75,1.41,7.5,2.81,11.26,4.17,1.88.68,3.77,1.36,5.66,2l2.84,1,2.85.94c.95.32,1.91.61,2.87.91s1.92.59,2.88.86l1.45.41,1.46.36c1,.27,2,.41,3,.6l-.07-.54q-6.17,2.47-12.48,4.57c-2.11.68-4.23,1.33-6.37,1.89-1.07.26-2.15.53-3.24.71-.54.12-1.09.18-1.63.24a11.85,11.85,0,0,1-1.65.1c-.54,0-1.1,0-1.65-.07l-.84,0-.44,0-.24.07a1.74,1.74,0,0,0-.21.13,12.05,12.05,0,0,1-1.23,1.11,8.13,8.13,0,0,1-.67.48c-.23.15-.45.32-.69.46a52.35,52.35,0,0,1-5.88,3.07c-1,.47-2,.92-3,1.35L132,64.56l-1.53.67-1.51.71c-.5.24-1,.47-1.5.72l-1.49.76A37.09,37.09,0,0,0,120.34,71,14.87,14.87,0,0,0,116,76.09c-.52,1-.94,2-1.42,3-.23.49-.5,1-.77,1.46a2.73,2.73,0,0,1-1,1.07,9.38,9.38,0,0,1-3,1.09,27.29,27.29,0,0,1-3.25.48,62.88,62.88,0,0,1-6.61.21c-2.21,0-4.42-.14-6.63-.28-4.42-.28-8.83-.73-13.22-1.32l.18.09L69.77,72.36l-.15.49,15.18-2.6.35-.06L84.89,70l-8.48-7.32Z"/><path class="cls-2" d="M144.32,47.92c-3.09-.75-6.22-1.31-9.37-1.79-.79-.12-1.58-.22-2.36-.32l-2.37-.28c-.79-.08-1.58-.17-2.38-.24s-1.59-.12-2.38-.16-1.59-.08-2.39-.09-1.59,0-2.39,0-1.59,0-2.39.09-1.59.11-2.39.19-1.58.2-2.37.33c-.4.05-.79.14-1.18.22l-.59.12-.58.16-.58.16-.57.2-.57.2-.55.24a8.38,8.38,0,0,0-2.06,1.27h.21c-.85-.91-1.69-1.83-2.52-2.75L102,42.69l-2.51-2.76L97,37.18l0-.05-.07,0c-1.28-.61-2.55-1.23-3.81-1.87L89.27,33.3q-1.89-1-3.77-2c-1.25-.66-2.49-1.34-3.73-2q-3.73-2-7.33-4.27c-.59-.38-1.19-.76-1.77-1.16s-1.16-.81-1.72-1.23-1.12-.86-1.64-1.33a11.44,11.44,0,0,1-1.46-1.53l-.07,0a11.59,11.59,0,0,0,1.37,1.64c.5.51,1,1,1.57,1.46s1.1.9,1.68,1.33,1.15.84,1.73,1.26,1.17.81,1.77,1.19,1.2.77,1.8,1.14c1.21.75,2.43,1.48,3.66,2.19,2.47,1.41,5,2.74,7.51,4,1.26.65,2.55,1.26,3.82,1.88s2.56,1.22,3.86,1.81l-.12-.09L99,40.4l2.61,2.67,2.62,2.67c.87.89,1.74,1.78,2.6,2.68l.1.1.11-.09a8.1,8.1,0,0,1,2-1.24l.54-.24.56-.19.56-.18.57-.14.57-.14.58-.11c.39-.08.77-.15,1.17-.2.78-.13,1.57-.18,2.36-.24s1.58-.08,2.37-.08,1.58,0,2.37,0,1.58.06,2.37.09,1.58.08,2.37.13l2.37.17c.79.05,1.58.12,2.37.19,1.58.14,3.15.32,4.73.51s3.15.37,4.72.59,3.14.43,4.71.67Z"/><path class="cls-2" d="M88.92,57.31l-1.61.58c-.53.2-1.07.38-1.6.59l-3.18,1.23c-2.11.85-4.22,1.7-6.3,2.61h.27c-1.77-.58-3.56-1.1-5.35-1.66q-1.34-.4-2.67-.84c-.89-.31-1.77-.56-2.62-.95-1.72-.72-3.41-1.51-5.09-2.31l-5-2.42-2.51-1.23-2.49-1.26-2.48-1.28c-.82-.43-1.64-.87-2.46-1.31s-1.63-.89-2.43-1.36-1.59-1-2.37-1.45-1.54-1-2.27-1.6a12.37,12.37,0,0,1-2-1.9l-.07,0a11.25,11.25,0,0,0,1.85,2.13,27.56,27.56,0,0,0,2.18,1.78c.75.57,1.53,1.08,2.32,1.6s1.59,1,2.39,1.48,1.63.93,2.45,1.38,1.66.87,2.49,1.29c1.67.84,3.37,1.62,5.07,2.4s3.42,1.51,5.15,2.2l5.2,2.08.65.26.67.22,1.32.46q1.32.47,2.62,1c1.75.66,3.48,1.34,5.24,2l.13,0,.14-.06c2.1-.86,4.18-1.78,6.26-2.71l3.1-1.43c.52-.23,1-.49,1.54-.74L89,57.39Z"/><path class="cls-2" d="M69.58,72.53c-.67-.16-1.34-.29-2-.44s-1.34-.26-2-.39-1.34-.26-2-.38l-2-.35c-1.35-.22-2.69-.44-4-.61s-2.71-.31-4.07-.47h0c-.67-.24-1.33-.49-2-.76s-1.31-.53-2-.83l-1.93-.88-1.91-.93L41.88,64.6c-1.26-.65-2.53-1.27-3.77-1.94s-2.5-1.32-3.73-2c-.62-.33-1.24-.67-1.86-1l-1.84-1c-.61-.36-1.21-.72-1.8-1.1s-1.19-.75-1.76-1.16-1.14-.82-1.68-1.27a11.34,11.34,0,0,1-1.51-1.47l-.07,0a9.81,9.81,0,0,0,1.35,1.67,10.73,10.73,0,0,0,.78.74c.26.25.54.47.82.7.55.45,1.12.9,1.7,1.3s1.18.81,1.77,1.2,1.2.77,1.81,1.13,1.23.72,1.85,1.07c1.25.69,2.51,1.34,3.79,2s2.56,1.24,3.85,1.82,2.6,1.13,3.91,1.68l2,.81,2,.83c.66.27,1.3.57,1.95.85l1.94.88h0c1.34.26,2.68.52,4,.76s2.7.43,4,.62l2,.27c.68.09,1.36.16,2,.24s1.36.17,2,.22,1.36.13,2,.18Z"/><path class="cls-2" d="M80.06,82.12l-12.94.52-3.23.1-3.23.09c-.54,0-1.07,0-1.61,0s-1.07,0-1.61,0-1.07-.06-1.6-.12a11.35,11.35,0,0,1-1.57-.28H54.2a19.46,19.46,0,0,1-2.76.47,22.23,22.23,0,0,1-2.8.09,14.33,14.33,0,0,1-2.76-.36,11,11,0,0,1-2.59-.95c-3.35-1.69-6.7-3.39-10-5.16q-2.48-1.33-4.94-2.69c-1.64-.91-3.27-1.83-4.88-2.79q-1.21-.72-2.39-1.47c-.79-.51-1.57-1-2.34-1.55s-1.52-1.09-2.24-1.69a13.71,13.71,0,0,1-2-2l-.07,0a12.44,12.44,0,0,0,1.85,2.15,27.74,27.74,0,0,0,2.15,1.85q1.12.88,2.28,1.69t2.36,1.57q2.38,1.54,4.84,2.93t5,2.69c3.35,1.72,6.73,3.37,10.18,4.88A12,12,0,0,0,45.8,83a17.54,17.54,0,0,0,2.84.26,22.52,22.52,0,0,0,2.83-.14,25.54,25.54,0,0,0,2.8-.45h-.08A13.43,13.43,0,0,0,55.8,83c.54.09,1.08.17,1.62.21s1.08.11,1.62.13,1.08.07,1.62.08l1.63,0h1.62c1.08,0,2.16-.05,3.24-.1,2.16-.1,4.32-.25,6.47-.45,1.08-.1,2.15-.2,3.23-.32s2.15-.25,3.22-.41Z"/><path class="cls-2" d="M190.79,55.43c-3,1.8-6.07,3.52-9.14,5.19s-6.18,3.3-9.31,4.89q-2.34,1.19-4.71,2.34c-1.57.77-3.16,1.51-4.74,2.26s-3.18,1.46-4.79,2.16-3.21,1.4-4.82,2.08a170.58,170.58,0,0,1-19.78,7L131,82l-2.55.61c-.85.22-1.71.36-2.56.55l-1.28.26-1.29.21c-1.72.31-3.45.51-5.19.68-.87.06-1.74.14-2.61.18l-2.61,0,.14,0-3.48-1.73-.51-.25.08.58a2.9,2.9,0,0,1-.28,1.47A5.1,5.1,0,0,1,108,86a10.39,10.39,0,0,1-2.59,2c-.47.3-1,.53-1.48.79s-1,.47-1.55.66-1.05.4-1.59.57-1.07.35-1.62.49c-1.08.32-2.19.56-3.29.81l-1.67.33L92.48,92c-1.12.2-2.24.31-3.37.47s-2.25.25-3.38.34-2.26.2-3.39.25-2.26.14-3.4.18-2.27.09-3.4.11l-3.4,0-3.4,0c-1.13,0-2.27,0-3.4-.07s-2.27-.05-3.4-.1l-3.4-.13h0q-8.45-2.54-17-4.87-4.25-1.17-8.52-2.27c-1.42-.36-2.85-.74-4.28-1.07s-2.89-.63-4.33-.89c-2.9-.53-5.82-.93-8.72-1.37a40.88,40.88,0,0,1-4.28-.81l-.23-.06-.26-.1c-.17-.07-.36-.12-.5-.2l-.42-.24a3.59,3.59,0,0,1-.39-.3,3.82,3.82,0,0,1-1.11-1.62,6.82,6.82,0,0,1-.31-2,12.48,12.48,0,0,1,.21-2.12A24.06,24.06,0,0,1,9.66,71c.52-1.35,1.13-2.68,1.78-4s1.37-2.58,2.13-3.81l0,0,0-.07.3-.95c.11-.31.19-.64.31-.95l.37-.92a8.5,8.5,0,0,1,.4-.91l.44-.89c.15-.3.33-.57.49-.86a9.53,9.53,0,0,1,.52-.84l.56-.82.61-.78c.2-.27.43-.5.65-.74a9.37,9.37,0,0,1,.69-.71,9.64,9.64,0,0,1,.73-.66q.37-.33.77-.61c.26-.2.53-.38.81-.56s.56-.35.84-.5A7.86,7.86,0,0,1,23,51l.23-.09.06-.25a9.41,9.41,0,0,1,.26-1,8.79,8.79,0,0,1,.37-1,10,10,0,0,1,.49-.92,9.69,9.69,0,0,1,.59-.87,14.59,14.59,0,0,1,3.05-3,23.66,23.66,0,0,1,3.7-2.21q1-.47,2-.87c.67-.26,1.36-.51,2-.71l.2-.06.09-.2.46-1,.23-.52.29-.5c.19-.33.37-.67.58-1l.66-.94A9.65,9.65,0,0,1,39,35a11.46,11.46,0,0,1,.76-.86l.81-.82.87-.76c.28-.26.6-.49.9-.72s.61-.47.94-.68.63-.45,1-.64.65-.41,1-.6.67-.38,1-.56.69-.36,1-.51a21.13,21.13,0,0,1,2.14-.87l.11,0,.07-.1.77-1a9.66,9.66,0,0,1,.81-1l.86-1c.3-.32.62-.6.93-.91a10.76,10.76,0,0,1,1-.87l1-.82L56,21.38c.35-.26.73-.47,1.1-.7s.74-.46,1.13-.65.76-.42,1.16-.6l1.19-.54,1.21-.48L63,18c.42-.12.83-.26,1.25-.37a21.88,21.88,0,0,1,2.54-.54h.09L67,17l2.28-2.34,1.23-1.07c.42-.35.8-.73,1.25-1l1.32-1c.22-.16.44-.32.66-.47l.7-.41c.47-.27.93-.56,1.4-.83l1.47-.7a13.13,13.13,0,0,1,1.51-.6l.77-.28c.26-.08.52-.14.79-.21A13.05,13.05,0,0,1,82,7.73a14.17,14.17,0,0,1,1.62-.21,13.42,13.42,0,0,1,1.63-.05c.27,0,.54,0,.82,0l.81.08a8,8,0,0,1,.81.12c.27,0,.54.09.8.16A9.78,9.78,0,0,1,90,8.34l0-.08a9.86,9.86,0,0,0-1.56-.52c-.26-.08-.53-.13-.8-.18a8.15,8.15,0,0,0-.81-.14L86,7.33c-.27,0-.55,0-.82,0a13.61,13.61,0,0,0-1.65,0,14.37,14.37,0,0,0-1.64.18,13.28,13.28,0,0,0-1.62.33c-.27.07-.54.12-.8.2l-.78.27a13.4,13.4,0,0,0-1.55.58l-1.51.68c-.49.26-1,.54-1.44.81l-.72.41c-.23.15-.45.32-.68.47l-1.35,1c-.45.31-.85.7-1.27,1l-1.26,1.07-2.33,2.34.15-.08a22.27,22.27,0,0,0-2.62.53c-.43.11-.85.24-1.28.36l-1.26.42-1.24.48-1.22.54c-.41.18-.79.4-1.19.6s-.78.43-1.16.65-.77.44-1.13.71l-1.1.76-1,.83a11.21,11.21,0,0,0-1,.88c-.32.31-.66.6-1,.93l-.89,1a10.12,10.12,0,0,0-.84,1L49,27.39l.19-.14a21.72,21.72,0,0,0-2.23.88c-.37.16-.72.34-1.08.51s-.7.37-1.05.56-.69.4-1,.61-.67.43-1,.65-.66.45-1,.7-.64.47-.94.74l-.91.78-.85.84c-.29.27-.54.59-.81.89a10.31,10.31,0,0,0-.76.93l-.7,1c-.21.34-.41.69-.61,1l-.3.52-.25.55-.49,1.11.29-.26c-.73.22-1.42.47-2.11.74s-1.37.57-2,.89a24.52,24.52,0,0,0-3.84,2.28,15.46,15.46,0,0,0-3.24,3.13,10.6,10.6,0,0,0-.64.95,10.87,10.87,0,0,0-.54,1,9.68,9.68,0,0,0-.41,1.07,10.29,10.29,0,0,0-.29,1.12l.29-.34a8.49,8.49,0,0,0-1,.46c-.31.16-.61.34-.91.53s-.58.38-.86.6-.55.42-.82.65a10.38,10.38,0,0,0-.77.7,10.09,10.09,0,0,0-.73.74c-.23.26-.48.5-.69.78l-.65.81-.59.86a10.2,10.2,0,0,0-.55.88c-.17.3-.36.59-.51.9L14.2,59a9.06,9.06,0,0,0-.41.95l-.38,1c-.12.32-.21.65-.32,1l-.31,1,.05-.12c-.78,1.27-1.49,2.57-2.16,3.89S9.4,69.3,8.88,70.69A24.86,24.86,0,0,0,7.64,75a9.33,9.33,0,0,0,.16,4.57,4.63,4.63,0,0,0,1.36,2,4.35,4.35,0,0,0,.49.36l.54.3c.18.09.35.13.52.2l.26.1.3.08a39.14,39.14,0,0,0,4.38.8c2.92.41,5.83.78,8.71,1.28,1.45.24,2.88.53,4.31.84s2.85.68,4.28,1q4.28,1.05,8.54,2.19Q50,91,58.46,93.45h0l3.41.11c1.14,0,2.27.06,3.41.08s2.27.05,3.41,0h3.41l3.41-.06c1.14,0,2.27-.07,3.41-.1s2.27-.11,3.4-.16,2.27-.16,3.4-.24,2.26-.22,3.39-.33,2.26-.26,3.38-.45l1.69-.26,1.68-.31c1.11-.23,2.23-.47,3.33-.77.55-.14,1.1-.3,1.64-.48s1.08-.36,1.62-.56,1.06-.43,1.59-.65,1-.49,1.53-.79a10.9,10.9,0,0,0,2.75-2.13,5.66,5.66,0,0,0,1-1.48,3.37,3.37,0,0,0,.34-1.83l-.43.33,3.46,1.77.07,0h.07l2.65,0c.88,0,1.76-.1,2.64-.16,1.75-.16,3.51-.36,5.24-.67l1.3-.21,1.3-.26c.86-.18,1.73-.33,2.58-.54l2.57-.61,2.55-.69A170,170,0,0,0,153.54,75c1.61-.7,3.23-1.38,4.82-2.11s3.19-1.47,4.78-2.22,3.16-1.53,4.73-2.32,3.13-1.58,4.69-2.4q4.67-2.43,9.24-5c3-1.74,6.07-3.52,9-5.38Z"/><path class="cls-2" d="M58.51,93.23l-2.18-.16-2.5-.16-3.24-.2-3.84-.2-4.29-.14c-1.49,0-3-.14-4.58-.3l-2.34-.27-2.35-.36c-1.57-.27-3.13-.54-4.66-.83s-3-.59-4.48-.93-2.82-.71-4.12-1.09a36.24,36.24,0,0,1-3.58-1.26,15.44,15.44,0,0,1-2.79-1.51,6.48,6.48,0,0,1-1.71-1.69,3.92,3.92,0,0,1-.59-1.44c-.05-.36-.06-.56-.06-.56h-.09s0,.2,0,.58a4.1,4.1,0,0,0,.45,1.59,6.51,6.51,0,0,0,1.67,2A13.42,13.42,0,0,0,16,88a27,27,0,0,0,3.63,1.43,41.12,41.12,0,0,0,4.19,1.1c1.47.31,3,.58,4.55.81s3.14.41,4.73.55l4.73.43c1.56.15,3.09.32,4.57.49s2.92.33,4.28.43,2.66.14,3.85.18,2.29,0,3.26,0,1.82,0,2.51,0c1.39,0,2.19-.11,2.19-.11Z"/><path class="cls-2" d="M185,53.36l-3.85.9c-1.28.3-2.57.6-3.85.88l-3.86.84-1.93.39c-.64.13-1.29.25-1.94.37s-1.29.27-1.94.38l-1.94.35-1.94.33c-.65.12-1.3.2-1.95.29s-1.3.19-2,.24-1.31.14-2,.17l-2,.05-2-.09h0l0,0c-.89.48-1.79.92-2.69,1.37s-1.81.89-2.72,1.31c-1.83.85-3.67,1.67-5.52,2.46-.93.39-1.85.8-2.78,1.18s-1.86.76-2.8,1.13-1.88.71-2.82,1.05-1.9.65-2.86.93q-.71.23-1.44.41l-.72.19-.39.11-.36.11a15,15,0,0,0-2.89,1.13c-.45.26-.92.49-1.34.78s-.85.59-1.25.92-.78.67-1.15,1-.72.74-1.06,1.13-.66.79-1,1.2-.6.83-.86,1.27a21.79,21.79,0,0,0-1.41,2.72c-.2.47-.4.94-.55,1.43a14,14,0,0,0-.43,1.47,11.11,11.11,0,0,0-.35,3h.09a10.93,10.93,0,0,1,.56-2.94c.16-.47.32-.95.52-1.41s.39-.92.61-1.37a21.23,21.23,0,0,1,1.51-2.58c.27-.42.59-.8.88-1.2s.64-.75,1-1.13.7-.7,1-1,.76-.63,1.13-1,.81-.56,1.21-.85.85-.48,1.27-.73a13.94,13.94,0,0,1,2.74-1l.36-.11.16,0,.19,0,.74-.19c.5-.12,1-.25,1.47-.42,1-.3,1.93-.65,2.88-1s1.89-.72,2.83-1.11,1.87-.78,2.79-1.2,1.84-.84,2.76-1.27q2.73-1.32,5.42-2.71l2.69-1.39,2.68-1.4h-.08l2,.13h2c.66,0,1.32-.05,2-.08s1.32-.09,2-.15,1.32-.11,2-.2,1.32-.15,2-.25l2-.32c.65-.1,1.3-.23,2-.35s1.3-.26,1.94-.41l1.94-.43,1.93-.46c.64-.15,1.28-.33,1.92-.49,1.28-.34,2.55-.7,3.82-1.07s2.53-.77,3.78-1.21Z"/></svg>