<?xml version="1.0" encoding="utf-8"?>
<!-- Generator: Adobe Illustrator 20.1.0, SVG Export Plug-In . SVG Version: 6.00 Build 0)  -->
<svg version="1.1" id="Layer_1" xmlns="http://www.w3.org/2000/svg" xmlns:xlink="http://www.w3.org/1999/xlink" x="0px" y="0px"
	 viewBox="0 0 111.3 52.2" style="enable-background:new 0 0 111.3 52.2;" xml:space="preserve">
<g>
	<path style="fill:#D6C598;" d="M47.9,34.3c1.2,0.1,1.9,0.1,1.9,0.1l1.2,0.1c-1.1,0.2-2.2,0.3-3.3,0.5c-3.1,0.4-6.2,0.7-9.2,1
		c-3.1,0.2-6.2,0.4-9.3,0.5c-1.5,0-2.9,0-4.4,0c-0.1,0-0.2,0-0.3,0C33.2,36.2,42.2,35.1,47.9,34.3"/>
	<path style="fill:#401F16;" d="M84.4,15.3c0,0.1,0,0.2,0,0.3c0,0.1-0.1,0.2-0.1,0.3c-0.1,0.2,0,0.4,0,0.5c0.1,0.2,0.2,0.3,0.4,0.4
		c0.2,0.1,0.3,0.2,0.5,0.3c0.2,0.1,0.3,0.2,0.4,0.4c0.1,0.2,0.2,0.3,0.2,0.5c0.1,0.4,0,0.8-0.2,1.1c-0.3,0.7-0.8,1.3-1.4,1.8
		c-0.6,0.5-1.2,1-1.8,1.4c-1.3,0.9-2.6,1.6-4,2.4c-1.4,0.7-2.8,1.4-4.2,2c-2.8,1.3-5.7,2.5-8.6,3.6c-2.9,1.1-5.8,2.2-8.8,3.1
		l-0.6,0.2c-0.2,0.1-0.4,0.1-0.6,0.2c-0.4,0.1-0.8,0.2-1.1,0.2c-0.8,0.1-1.5,0.3-2.3,0.4c-1.5,0.2-3.1,0.5-4.6,0.7
		c-3.1,0.4-6.2,0.7-9.3,1c-3.1,0.2-6.2,0.4-9.3,0.5c-3.1,0.1-6.2,0-9.3-0.3c-1.5-0.1-3.1-0.3-4.6-0.6c-0.8-0.1-1.5-0.3-2.3-0.6
		c-0.7-0.2-1.5-0.5-2.2-0.8C10.1,34,9.4,33.6,8.9,33c-0.5-0.6-0.9-1.3-1.1-2.1c0-0.2,0-0.4,0-0.6c0-0.2,0-0.4,0-0.6
		c0-0.2,0-0.4,0.1-0.6c0-0.2,0.1-0.4,0.1-0.6c0.2-0.8,0.4-1.5,0.7-2.2c0.6-1.4,1.5-2.7,2.4-4c0.9-1.2,2-2.4,3.1-3.5
		c2.2-2.2,4.6-4.1,7.1-6c2.5-1.8,5.1-3.5,7.8-5.1c1.3-0.8,2.7-1.5,4.1-2.2c0.7-0.3,1.4-0.7,2.1-1c0.7-0.3,1.4-0.6,2.2-0.8
		c1.5-0.4,3.1-0.5,4.6-0.4c1.6,0.1,3.1,0.3,4.6,0.7c3,0.7,5.9,1.8,8.7,3.2l-0.1,0l0.7-0.1l0.7-0.1l0.7,0c0.2,0,0.4,0,0.7,0
		c0.4,0,0.9,0,1.3,0.1c0.2,0,0.4,0,0.7,0.1c0.2,0,0.4,0,0.7,0.1C62.3,7.6,64,8,65.7,8.4c1.7,0.5,3.4,1,5,1.6c1.6,0.6,3.3,1.3,4.9,2
		l0,0c0.7,0.1,1.3,0.2,2,0.3c0.3,0.1,0.7,0.1,1,0.2c0.2,0,0.3,0.1,0.5,0.1c0.2,0.1,0.3,0.1,0.5,0.2c0.6,0.2,1.3,0.5,1.9,0.8
		c0.6,0.3,1.2,0.5,1.8,0.8l0,0l1-0.8l0,0l0,0L84.4,15.3 M84.4,15.3L84.4,15.3l-0.1-1.5l0,0l-1,0.8l0,0l0,0c-0.6-0.3-1.2-0.5-1.9-0.8
		c-0.6-0.3-1.2-0.5-1.9-0.7c-0.2-0.1-0.3-0.1-0.5-0.2c-0.2-0.1-0.3-0.1-0.5-0.1c-0.3-0.1-0.7-0.1-1-0.2c-0.7-0.1-1.3-0.2-2-0.3l0,0
		l0,0c-1.6-0.7-3.2-1.4-4.9-2c-1.6-0.6-3.3-1.1-5-1.6c-1.7-0.5-3.4-0.9-5.1-1.1c-0.2,0-0.4-0.1-0.6-0.1c-0.2,0-0.4,0-0.7-0.1
		c-0.4,0-0.9,0-1.3-0.1c-0.2,0-0.4,0-0.7,0l-0.6,0L56,7.5l-0.6,0.1l0,0l0,0c-1.4-0.7-2.8-1.3-4.2-1.8c-1.4-0.5-2.9-1-4.4-1.4
		c-1.5-0.4-3-0.6-4.6-0.7c-1.5-0.1-3.1,0-4.6,0.4c-0.7,0.2-1.5,0.5-2.2,0.8c-0.7,0.3-1.4,0.6-2.1,1c-1.4,0.7-2.8,1.4-4.1,2.2
		c-2.7,1.5-5.3,3.2-7.8,5c-2.5,1.8-4.9,3.8-7.1,6c-1.1,1.1-2.1,2.2-3,3.5c-0.9,1.2-1.7,2.5-2.4,3.9c-0.3,0.7-0.5,1.4-0.7,2.2
		c0,0.2-0.1,0.4-0.1,0.6c0,0.2,0,0.4-0.1,0.6c0,0.2,0,0.4,0,0.6c0,0.2,0,0.4,0,0.6c0.1,0.7,0.5,1.4,1,2c0.5,0.5,1.2,1,1.9,1.3
		c0.7,0.3,1.4,0.6,2.2,0.8c0.7,0.2,1.5,0.4,2.2,0.5c1.5,0.3,3.1,0.5,4.6,0.6c3.1,0.3,6.2,0.3,9.3,0.2c3.1-0.1,6.2-0.2,9.3-0.5
		c3.1-0.3,6.2-0.6,9.2-1c1.5-0.2,3.1-0.4,4.6-0.7c0.8-0.1,1.5-0.3,2.3-0.4c0.4-0.1,0.8-0.2,1.1-0.2c0.2,0,0.4-0.1,0.6-0.1l0.6-0.2
		c2.9-0.9,5.9-2,8.8-3.1c2.9-1.1,5.8-2.3,8.6-3.5c1.4-0.6,2.8-1.3,4.2-2c1.4-0.7,2.7-1.5,4-2.3c0.6-0.4,1.3-0.9,1.8-1.4
		c0.6-0.5,1.1-1.1,1.4-1.8c0.1-0.4,0.2-0.7,0.2-1.1c0-0.2-0.1-0.4-0.2-0.5c-0.1-0.2-0.3-0.3-0.4-0.4c-0.2-0.1-0.3-0.2-0.5-0.3
		c-0.2-0.1-0.3-0.3-0.4-0.4c-0.1-0.2-0.1-0.4,0-0.6c0-0.1,0.1-0.2,0.1-0.3C84.4,15.5,84.4,15.4,84.4,15.3"/>
	<path style="fill:#401F16;" d="M25.1,13.9c0.1,0.2,0.3,0.4,0.4,0.5c0.1,0.1,0.2,0.2,0.3,0.2c0.1,0.1,0.2,0.2,0.3,0.2
		c0.2,0.1,0.4,0.3,0.6,0.4c0.2,0.1,0.4,0.3,0.6,0.4c0.2,0.1,0.4,0.2,0.6,0.4c0.2,0.1,0.4,0.2,0.6,0.4c0.4,0.2,0.8,0.4,1.2,0.7
		c0.8,0.4,1.7,0.8,2.6,1.1l2.6,1.1l0,0l1.7,1.9c0.6,0.6,1.2,1.3,1.7,1.9l0.1,0.1l0.1,0c0.4-0.1,0.8-0.3,1.2-0.4
		c0.2-0.1,0.4-0.1,0.6-0.2c0.1,0,0.2,0,0.3-0.1c0.1,0,0.2,0,0.3-0.1l0.3-0.1l0.3,0c0.1,0,0.2,0,0.3,0c0.1,0,0.2,0,0.3,0
		c0.1,0,0.2,0,0.3,0l0.3,0l0.3,0.1l0.3,0.1l0.1,0l0-0.1l0.5-1.3c0.2-0.4,0.3-0.9,0.5-1.3l0,0c-0.2,0.4-0.4,0.8-0.6,1.2l-0.6,1.3
		l0.2-0.1c-0.1,0-0.2-0.1-0.3-0.1L43,22.2c-0.1,0-0.2,0-0.3,0c-0.1,0-0.1,0-0.2,0c0,0-0.1,0-0.1,0c-0.1,0-0.2,0-0.3,0
		c-0.1,0-0.2,0-0.3,0l-0.3,0L41,22.2c-0.1,0-0.2,0-0.3,0.1c-0.1,0-0.2,0-0.3,0.1c-0.2,0-0.4,0.1-0.6,0.2c-0.4,0.1-0.8,0.2-1.3,0.4
		l0.2,0c-0.6-0.6-1.2-1.2-1.8-1.8L35,19.3l0,0l0,0c-0.2-0.1-0.4-0.2-0.7-0.3l-0.7-0.3c-0.4-0.2-0.9-0.4-1.3-0.6
		c-0.8-0.4-1.7-0.8-2.5-1.3c-0.8-0.4-1.7-0.9-2.5-1.3c-0.2-0.1-0.4-0.2-0.6-0.4c-0.2-0.1-0.4-0.3-0.6-0.4c-0.2-0.1-0.4-0.3-0.6-0.4
		C25.5,14.3,25.3,14.1,25.1,13.9L25.1,13.9"/>
	<path style="fill:#401F16;" d="M51.3,5.8c-0.5-0.1-0.9-0.2-1.4-0.3c-0.5-0.1-0.9-0.2-1.4-0.3C48,5.1,47.6,5,47.1,5
		c-0.5,0-0.9-0.1-1.4-0.1c-0.5,0-1,0-1.4,0c-0.5,0-1,0-1.4,0.1c-0.5,0-0.9,0.1-1.4,0.2c-0.5,0.1-0.9,0.2-1.4,0.4
		c-0.4,0.2-0.9,0.4-1.3,0.7c0,0-0.1,0.1-0.1,0.1c0,0.1-0.1,0.1-0.1,0.2c0,0.1,0,0.3,0,0.4c0.1,0.2,0.2,0.4,0.4,0.6
		c0.3,0.4,0.7,0.7,1,1c0.4,0.3,0.7,0.6,1.1,0.9c0.4,0.3,0.8,0.6,1.2,0.8c0.4,0.3,0.8,0.5,1.2,0.8c0.4,0.3,0.7,0.6,1.1,0.9
		c0.3,0.3,0.7,0.7,0.9,1l0,0l0,0l0.4,0.2l0.2,0.1c0.1,0,0.1,0.1,0.2,0.1l0.4,0.2l0.4,0.1c0.1,0,0.3,0.1,0.4,0.1
		c0.1,0,0.3,0.1,0.4,0.1l0.5,0c0.2,0,0.3,0,0.4,0c0.2,0,0.3,0,0.4,0c0.1,0,0.3,0,0.4-0.1c0.1,0,0.3,0,0.4-0.1c0.1,0,0.3-0.1,0.4-0.1
		c0.1,0,0.3-0.1,0.4-0.1c0.1,0,0.3-0.1,0.4-0.1c0.1-0.1,0.3-0.1,0.4-0.2c0.1-0.1,0.3-0.1,0.4-0.2l0.1,0l0-0.1l0-0.8
		c0-0.1,0-0.3,0-0.4l0.1-0.4c0-0.1,0.1-0.3,0.1-0.4l0.1-0.4l0.1-0.4l0.1-0.2l0.1-0.2C53,9.5,53,9.4,53.1,9.3l0.2-0.4
		c0.1-0.1,0.2-0.2,0.2-0.3c0.1-0.1,0.2-0.2,0.3-0.3C53.9,8.2,54,8.1,54.1,8c0.1-0.1,0.2-0.2,0.3-0.2c0.1-0.1,0.2-0.1,0.4-0.2
		c0.1,0,0.3-0.1,0.4-0.1l0,0c-0.1,0-0.3,0-0.4,0.1c-0.1,0-0.3,0.1-0.4,0.2c-0.1,0.1-0.2,0.1-0.4,0.2c-0.1,0.1-0.2,0.2-0.3,0.3
		c-0.1,0.1-0.2,0.2-0.3,0.3c-0.1,0.1-0.2,0.2-0.3,0.3l-0.2,0.4c-0.1,0.1-0.1,0.2-0.2,0.4l-0.1,0.2L52.6,10l-0.1,0.4
		c0,0.1-0.1,0.3-0.1,0.4c0,0.1-0.1,0.3-0.1,0.4l-0.1,0.4c0,0.1,0,0.3-0.1,0.4l-0.1,0.8l0.1-0.1c-0.2,0.1-0.5,0.2-0.8,0.3
		c-0.1,0.1-0.3,0.1-0.4,0.1c-0.1,0-0.3,0.1-0.4,0.1c-0.1,0-0.3,0.1-0.4,0.1c-0.1,0-0.3,0.1-0.4,0.1c-0.1,0-0.3,0-0.4,0.1
		c-0.1,0-0.3,0-0.4,0c-0.1,0-0.3,0-0.4,0l-0.4,0c-0.1,0-0.3,0-0.4,0c-0.1,0-0.3,0-0.4-0.1l-0.4-0.1l-0.4-0.1c-0.1,0-0.1,0-0.2-0.1
		L45.9,13l-0.4-0.2l0.1,0c-0.3-0.4-0.6-0.8-1-1.1c-0.4-0.3-0.7-0.6-1.1-0.9c-0.4-0.3-0.8-0.5-1.2-0.8c-0.4-0.3-0.8-0.5-1.2-0.8
		c-0.4-0.3-0.8-0.6-1.1-0.8c-0.4-0.3-0.7-0.6-1-1c-0.1-0.2-0.3-0.4-0.3-0.6c0-0.1,0-0.2,0-0.3c0-0.1,0-0.1,0.1-0.1
		c0,0,0.1-0.1,0.1-0.1c0.4-0.3,0.8-0.4,1.3-0.6c0.4-0.2,0.9-0.3,1.4-0.4c0.2,0,0.5-0.1,0.7-0.1l0.3,0l0.4,0c0.5,0,0.9-0.1,1.4-0.1
		c0.5,0,0.9,0,1.4,0c0.5,0,0.9,0.1,1.4,0.1c0.5,0,0.9,0.1,1.4,0.1c0.5,0.1,0.9,0.1,1.4,0.2C50.4,5.6,50.8,5.7,51.3,5.8L51.3,5.8"/>
	<path style="fill:#401F16;" d="M38.7,7.1C38.5,7.1,38.4,7,38.2,7c-0.2,0-0.4-0.1-0.5-0.1c-0.2,0-0.3,0-0.5,0c0,0,0,0-0.1,0
		c-0.2,0-0.4,0-0.5,0c-0.2,0-0.4,0.1-0.5,0.1c-0.2,0-0.4,0.1-0.5,0.1c-0.2,0-0.3,0.1-0.5,0.2c-0.2,0.1-0.3,0.1-0.5,0.2
		c-0.2,0.1-0.3,0.2-0.5,0.2L33.5,8c-0.2,0.1-0.3,0.2-0.4,0.3l-0.4,0.3L32.2,9c-0.1,0.1-0.3,0.2-0.4,0.4c-0.3,0.3-0.5,0.5-0.8,0.8
		l0.1,0c-0.3,0-0.6,0.1-0.9,0.2c-0.1,0-0.3,0.1-0.4,0.1l-0.4,0.2L29,10.8L28.5,11c-0.1,0.1-0.3,0.1-0.4,0.2
		c-0.1,0.1-0.3,0.2-0.4,0.2c-0.1,0.1-0.3,0.2-0.4,0.2L27,11.9l-0.4,0.3c-0.1,0.1-0.2,0.2-0.3,0.3c-0.1,0.1-0.2,0.2-0.3,0.3l-0.3,0.3
		c-0.1,0.1-0.2,0.2-0.3,0.4l-0.3,0.4l0,0c-0.5,0.2-1,0.4-1.5,0.7c-0.1,0.1-0.2,0.1-0.4,0.2c-0.1,0.1-0.2,0.1-0.3,0.2
		c-0.1,0.1-0.2,0.2-0.3,0.2c-0.1,0.1-0.2,0.2-0.3,0.2L22,15.7L21.7,16c-0.1,0.1-0.2,0.2-0.3,0.3c-0.1,0.1-0.2,0.2-0.3,0.3l-0.2,0.3
		c-0.1,0.1-0.1,0.2-0.2,0.4l-0.1,0.2l-0.1,0.2L20.3,18l0.1-0.1c-0.3,0.1-0.5,0.2-0.7,0.2c-0.2,0.1-0.5,0.2-0.7,0.3
		c-0.5,0.2-0.9,0.5-1.3,0.8c-0.4,0.3-0.8,0.6-1.1,1.1c-0.1,0.1-0.2,0.2-0.2,0.3c-0.1,0.1-0.1,0.2-0.2,0.3c-0.1,0.1-0.1,0.2-0.1,0.4
		c0,0.1-0.1,0.3-0.1,0.4l0.1-0.1c-0.1,0-0.2,0.1-0.3,0.2c-0.1,0.1-0.2,0.1-0.3,0.2c-0.1,0.1-0.2,0.1-0.3,0.2
		c-0.1,0.1-0.2,0.1-0.3,0.2c-0.1,0.1-0.2,0.2-0.3,0.2c-0.1,0.1-0.2,0.2-0.3,0.3c-0.1,0.1-0.2,0.2-0.2,0.3l-0.2,0.3l-0.2,0.3
		c-0.1,0.1-0.1,0.2-0.2,0.3c-0.1,0.1-0.1,0.2-0.2,0.3l-0.2,0.3C13,24.8,13,24.9,12.9,25l-0.1,0.3c0,0.1-0.1,0.2-0.1,0.3L12.6,26l0,0
		c-0.2,0.4-0.5,0.8-0.7,1.2c-0.2,0.4-0.4,0.8-0.6,1.2c0,0.1-0.1,0.2-0.1,0.3c0,0.1-0.1,0.2-0.1,0.3c-0.1,0.2-0.1,0.4-0.2,0.7
		c0,0.1,0,0.2-0.1,0.3c0,0.1,0,0.2,0,0.3c0,0.1,0,0.2,0,0.3l0,0.3l0,0l0-0.3c0-0.1,0-0.2,0-0.3c0-0.1,0-0.2,0.1-0.3
		c0-0.1,0-0.2,0.1-0.3c0-0.1,0.1-0.2,0.1-0.3l0.1-0.3c0-0.1,0.1-0.2,0.1-0.3c0-0.1,0.1-0.2,0.1-0.3c0.2-0.4,0.4-0.8,0.6-1.2
		c0.1-0.2,0.2-0.4,0.3-0.6c0.1-0.2,0.2-0.4,0.3-0.6l0,0l0,0l0.1-0.3c0-0.1,0.1-0.2,0.1-0.3l0.1-0.3c0-0.1,0.1-0.2,0.1-0.3l0.2-0.3
		c0.1-0.1,0.1-0.2,0.2-0.3c0.1-0.1,0.1-0.2,0.2-0.3l0.2-0.3l0.2-0.3c0.1-0.1,0.2-0.2,0.2-0.3c0.1-0.1,0.2-0.2,0.2-0.2
		c0.1-0.1,0.2-0.2,0.3-0.2c0.1-0.1,0.2-0.1,0.3-0.2c0.1-0.1,0.2-0.1,0.3-0.2c0.1-0.1,0.2-0.1,0.3-0.2c0.1-0.1,0.2-0.1,0.3-0.1l0.1,0
		l0-0.1c0-0.1,0.1-0.2,0.1-0.3c0-0.1,0.1-0.2,0.1-0.3c0.1-0.1,0.1-0.2,0.2-0.3c0.1-0.1,0.1-0.2,0.2-0.3c0.3-0.4,0.7-0.7,1-1
		c0.4-0.3,0.8-0.5,1.3-0.8c0.2-0.1,0.5-0.2,0.7-0.3c0.2-0.1,0.5-0.2,0.7-0.3l0.1,0l0-0.1l0.2-0.4l0.1-0.2l0.1-0.2
		c0.1-0.1,0.1-0.2,0.2-0.3l0.2-0.3c0.1-0.1,0.2-0.2,0.2-0.3c0.1-0.1,0.2-0.2,0.3-0.3l0.3-0.3l0.3-0.3c0.1-0.1,0.2-0.2,0.3-0.3
		c0.1-0.1,0.2-0.2,0.3-0.2c0.1-0.1,0.2-0.2,0.3-0.2c0.1-0.1,0.2-0.1,0.3-0.2c0.5-0.3,1-0.5,1.5-0.7l0,0l0,0l0.3-0.4
		c0.1-0.1,0.2-0.2,0.3-0.3l0.3-0.3c0.1-0.1,0.2-0.2,0.3-0.3c0.1-0.1,0.2-0.2,0.3-0.3l0.4-0.3l0.4-0.2c0.1-0.1,0.3-0.2,0.4-0.2
		c0.1-0.1,0.3-0.2,0.4-0.2c0.1-0.1,0.3-0.1,0.4-0.2L29,11l0.4-0.2c0.3-0.1,0.6-0.2,0.9-0.3c0.3-0.1,0.6-0.1,0.9-0.2l0,0l0,0
		c0.2-0.3,0.5-0.5,0.7-0.8c0.1-0.1,0.3-0.2,0.4-0.4l0.4-0.4l0.4-0.3c0.1-0.1,0.3-0.2,0.4-0.3l0.4-0.3c0.1-0.1,0.3-0.2,0.5-0.3
		c0.2-0.1,0.3-0.2,0.5-0.2c0.2-0.1,0.3-0.1,0.5-0.2c0.2-0.1,0.3-0.1,0.5-0.2c0.2,0,0.3-0.1,0.5-0.1c0.2,0,0.4,0,0.5-0.1
		c0.2,0,0.4,0,0.5,0C37.8,7,38,7,38.2,7C38.3,7.1,38.5,7.1,38.7,7.1L38.7,7.1"/>
	<path style="fill:#401F16;" d="M45.5,13C45.5,13,45.5,12.9,45.5,13c0-0.1,0-0.2-0.1-0.2c0,0-0.1,0-0.1-0.1c-0.1,0-0.1,0-0.2,0
		c-0.1,0-0.1,0-0.2,0c-0.1,0-0.1,0-0.2,0.1c-0.1,0-0.3,0.1-0.4,0.2c-0.1,0.1-0.3,0.2-0.4,0.3c-0.1,0.1-0.3,0.2-0.4,0.4
		c-0.1,0.1-0.3,0.2-0.4,0.3c-0.3,0.2-0.6,0.5-0.8,0.7c-0.1,0.1-0.2,0.2-0.3,0.3c-0.1,0.1-0.2,0.2-0.3,0.3c-0.3,0.4-0.5,0.7-0.5,0.7
		l0,0c0,0,0.3-0.2,0.7-0.6c0.1-0.1,0.2-0.2,0.3-0.3c0.1-0.1,0.2-0.2,0.3-0.3c0.1-0.1,0.2-0.3,0.4-0.4c0.1-0.1,0.2-0.3,0.4-0.4
		c0.1-0.1,0.2-0.3,0.4-0.4c0.1-0.1,0.3-0.2,0.4-0.3c0.1-0.1,0.3-0.2,0.4-0.2c0.1,0,0.1-0.1,0.2-0.1c0.1,0,0.1-0.1,0.2-0.1
		c0.1,0,0.1-0.1,0.2-0.1c0.1,0,0.1,0,0.2-0.1c0,0,0.1,0,0.1,0c0,0,0.1,0,0.1,0C45.3,12.8,45.4,12.9,45.5,13
		C45.4,12.9,45.4,13,45.5,13L45.5,13"/>
	<path style="fill:#401F16;" d="M76,12.2c0.5,0.3,0.9,0.5,1.4,0.8c0.5,0.3,0.9,0.5,1.4,0.8c0.5,0.3,0.9,0.5,1.4,0.8l1.4,0.8l0-0.2
		c-0.2,0.3-0.4,0.6-0.5,0.9c0,0.2,0,0.4,0.1,0.6c0.1,0.2,0.3,0.3,0.4,0.4c0.1,0.1,0.1,0.2,0.1,0.4c0,0.1,0,0.3-0.1,0.4
		c-0.1,0.3-0.3,0.5-0.6,0.7c-0.3,0.2-0.6,0.3-0.9,0.2c-0.2,0-0.3-0.1-0.5-0.1l-0.5-0.2l-1.9-0.8c-0.6-0.2-1.2-0.5-1.9-0.8
		c-0.6-0.3-1.2-0.5-1.8-0.8l-3.7-1.6c-1.2-0.5-2.4-1.1-3.7-1.6l-1.8-0.8l-1.8-0.8c-0.6-0.3-1.2-0.6-1.8-0.8
		c-0.6-0.3-1.2-0.6-1.8-0.9c-0.6-0.3-1.2-0.6-1.8-1c-0.3-0.2-0.6-0.3-0.8-0.5c-0.3-0.2-0.5-0.4-0.7-0.7l0,0c0.1,0.2,0.2,0.3,0.3,0.4
		c0.1,0.1,0.2,0.2,0.4,0.3c0.3,0.2,0.5,0.4,0.8,0.6c0.6,0.4,1.1,0.7,1.7,1c0.6,0.3,1.2,0.6,1.8,0.9c0.6,0.3,1.2,0.6,1.8,0.9
		c0.6,0.3,1.2,0.6,1.8,0.8c0.6,0.3,1.2,0.6,1.8,0.8c1.2,0.5,2.5,1.1,3.7,1.6c1.2,0.5,2.5,1,3.7,1.5c0.6,0.2,1.2,0.5,1.9,0.7
		c0.6,0.3,1.2,0.5,1.9,0.8c0.6,0.3,1.2,0.5,1.8,0.8l0.5,0.2c0.2,0.1,0.3,0.1,0.5,0.1c0.4,0,0.7,0,1-0.2c0.3-0.2,0.5-0.5,0.7-0.8
		c0.1-0.2,0.1-0.3,0.1-0.5c0-0.2,0-0.4-0.2-0.6l-0.1-0.1l0,0l0,0l0,0l0,0c0,0-0.1,0-0.1-0.1c0,0,0,0-0.1-0.1c-0.1-0.1-0.1-0.3,0-0.4
		c0.1-0.3,0.2-0.6,0.4-0.8l0.1-0.1l-0.1-0.1l-1.4-0.8c-0.5-0.3-1-0.5-1.4-0.7c-0.5-0.2-1-0.5-1.4-0.7C76.9,12.7,76.5,12.4,76,12.2
		L76,12.2"/>
	<path style="fill:#401F16;" d="M79.5,18.7c0,0-0.1,0-0.3,0.2c-0.2,0.1-0.5,0.3-0.8,0.6c-0.2,0.2-0.3,0.4-0.4,0.6
		c-0.1,0.1-0.1,0.3-0.1,0.4c0,0.1,0,0.1-0.1,0.2c0,0.1-0.1,0.1-0.1,0.2c-0.2,0.2-0.4,0.5-0.6,0.7c-0.3,0.2-0.6,0.4-0.9,0.6
		c-0.3,0.2-0.7,0.3-1.1,0.3l-0.1,0l-0.1,0c-0.1,0-0.2,0-0.3,0c0,0-0.1,0-0.1,0c0,0-0.1,0-0.1,0c-0.1,0-0.2-0.1-0.3-0.1
		c-0.4-0.1-0.9-0.1-1.3-0.2c-0.2,0-0.4-0.1-0.6-0.2c-0.2-0.1-0.3-0.3-0.4-0.5l0-0.2l0-0.2c0-0.1,0-0.2,0-0.3c0-0.2,0-0.5-0.1-0.7
		c0-0.1-0.1-0.2-0.2-0.3c-0.1-0.1-0.2-0.2-0.3-0.2c-0.2-0.1-0.5-0.2-0.7-0.3c-0.5-0.2-1-0.3-1.4-0.4c-0.5-0.1-1-0.3-1.4-0.4
		c-1-0.3-1.9-0.6-2.9-0.9c-0.9-0.3-1.9-0.6-2.8-0.9c-0.9-0.3-1.8-0.6-2.6-0.8c-0.8-0.3-1.6-0.5-2.3-0.8c-0.7-0.3-1.4-0.5-1.9-0.7
		c-0.6-0.2-1.1-0.4-1.4-0.6c-0.4-0.2-0.7-0.4-0.9-0.5c-0.1-0.1-0.2-0.1-0.2-0.2c0,0-0.1-0.1-0.1-0.1l0,0c0,0,0,0,0.1,0.1
		c0,0,0.1,0.1,0.2,0.2c0.2,0.2,0.5,0.3,0.9,0.6c0.8,0.4,1.9,1,3.3,1.5c0.7,0.3,1.5,0.6,2.3,0.8c0.8,0.3,1.7,0.6,2.6,0.8
		c0.9,0.3,1.8,0.6,2.8,0.8c1,0.3,1.9,0.5,2.9,0.8c1,0.3,2,0.5,2.9,0.8c0.2,0.1,0.5,0.2,0.7,0.3c0.2,0.1,0.4,0.3,0.4,0.5
		c0,0.2,0,0.5,0.1,0.7c0,0.1,0,0.2,0,0.4l0,0.2l0,0.2c0.1,0.2,0.2,0.5,0.4,0.6c0.2,0.2,0.4,0.2,0.7,0.3c0.5,0.1,0.9,0.1,1.3,0.2
		c0.1,0,0.2,0.1,0.3,0.1c0.1,0,0.2,0.1,0.3,0.1c0.1,0,0.2,0,0.3,0l0.2,0l0.2,0c0.4-0.1,0.8-0.2,1.1-0.4c0.3-0.2,0.7-0.4,0.9-0.6
		c0.3-0.2,0.5-0.5,0.7-0.7c0-0.1,0.1-0.1,0.1-0.2c0-0.1,0-0.1,0.1-0.2c0-0.2,0.1-0.3,0.1-0.4c0.1-0.2,0.2-0.4,0.4-0.6
		c0.3-0.3,0.6-0.5,0.7-0.7C79.4,18.8,79.5,18.7,79.5,18.7L79.5,18.7"/>
	<path style="fill:#401F16;" d="M34.1,24.9l2.9,2.6l0-0.1l-5.2,0.8l-0.2,0l0.2,0.1l3.6,3.3l0,0l0,0c1.5,0.2,3,0.4,4.6,0.5
		c0.8,0.1,1.5,0.1,2.3,0.1c0.8,0,1.5,0,2.3-0.1c0.4,0,0.8-0.1,1.1-0.2c0.4-0.1,0.8-0.2,1.1-0.4c0.1-0.1,0.2-0.1,0.2-0.2
		c0.1-0.1,0.1-0.2,0.2-0.3c0.1-0.2,0.2-0.3,0.3-0.5c0.2-0.3,0.3-0.7,0.5-1c0.3-0.7,0.8-1.3,1.4-1.7c0.6-0.5,1.2-0.9,1.9-1.2
		c0.3-0.2,0.7-0.4,1-0.5l0.5-0.2l0.5-0.2c0.7-0.3,1.4-0.6,2.1-0.9c0.7-0.3,1.4-0.7,2-1.1c0.1,0,0.2-0.1,0.2-0.2
		c0.1-0.1,0.2-0.1,0.2-0.2c0.2-0.1,0.3-0.3,0.4-0.4l0,0l0.1,0c0,0,0.1,0,0.1,0c0.1,0,0.2,0,0.3,0c0.2,0,0.4,0,0.6,0
		c0.2,0,0.4,0,0.6,0c0.2,0,0.4,0,0.6-0.1c0.4-0.1,0.8-0.2,1.1-0.2c0.7-0.2,1.5-0.4,2.2-0.6c1.5-0.5,2.9-1,4.3-1.5l0.3-0.1l-0.3-0.1
		c-0.3-0.1-0.7-0.1-1-0.2l-0.5-0.1l-0.5-0.1c-0.3-0.1-0.7-0.2-1-0.3c-0.3-0.1-0.7-0.2-1-0.3c-0.7-0.2-1.3-0.4-2-0.7l-1.9-0.7
		c-1.3-0.5-2.6-1-3.9-1.4l-1.9-0.7l-1-0.4L53.2,15l-0.2-0.1c-0.1,0-0.2-0.1-0.3-0.1l0.1,0l-2.8-1.4l0,0l0,0c-0.3,0-0.6,0-0.9,0
		c-0.3,0-0.6,0.1-0.9,0.2c-0.2,0.1-0.3,0.2-0.4,0.3c-0.1,0.1-0.2,0.3-0.2,0.5c0,0.4,0.2,0.6,0.4,0.9c0.2,0.3,0.4,0.5,0.6,0.7
		c0.1,0.1,0.2,0.2,0.3,0.3l0.2,0.2l0,0l0,0l0.1,0.1c0.2,0.2,0.5,0.4,0.7,0.6c0.1,0.1,0.3,0.2,0.4,0.3l0.4,0.2
		c0.3,0.2,0.5,0.3,0.8,0.4c0.3,0.1,0.6,0.2,0.8,0.4c0.3,0.1,0.6,0.2,0.9,0.3c0.3,0.1,0.6,0.2,0.9,0.3c0.3,0.1,0.6,0.2,0.9,0.3
		c0.3,0.1,0.6,0.2,0.9,0.2c0.6,0.1,1.2,0.3,1.8,0.3l0,0l0,0l5.4,0.2l5.4,0.2l0,0L62.9,20l-5.4-0.3l0,0c-0.6-0.1-1.2-0.2-1.8-0.4
		c-0.3-0.1-0.6-0.1-0.9-0.2c-0.3-0.1-0.6-0.2-0.9-0.3c-0.3-0.1-0.6-0.2-0.9-0.3c-0.3-0.1-0.6-0.2-0.8-0.3c-0.3-0.1-0.6-0.2-0.8-0.4
		c-0.3-0.1-0.5-0.3-0.8-0.4l-0.4-0.2c-0.1-0.1-0.2-0.2-0.4-0.2c-0.1-0.1-0.2-0.2-0.4-0.3l-0.4-0.3l-0.1-0.1l0,0l0,0l-0.2-0.2
		c-0.1-0.1-0.2-0.2-0.3-0.3c-0.2-0.2-0.4-0.4-0.6-0.7c-0.2-0.2-0.3-0.5-0.3-0.7c0-0.1,0-0.2,0.1-0.3c0.1-0.1,0.2-0.2,0.3-0.2
		c0.3-0.1,0.6-0.1,0.8-0.2c0.3,0,0.6,0,0.9,0l-0.1,0l2.8,1.4l0.1,0l0.9,0.3l1,0.4l1.9,0.7c1.3,0.5,2.6,1,3.9,1.4
		c0.6,0.2,1.3,0.5,2,0.7c0.7,0.2,1.3,0.4,2,0.7c0.3,0.1,0.7,0.2,1,0.3c0.3,0.1,0.7,0.2,1,0.3l0.5,0.1l0.5,0.1c0.3,0.1,0.7,0.1,1,0.2
		l0-0.2c-1.4,0.6-2.9,1.1-4.3,1.6c-0.7,0.2-1.5,0.5-2.2,0.6c-0.4,0.1-0.7,0.2-1.1,0.2c-0.2,0-0.4,0.1-0.6,0.1c-0.2,0-0.4,0-0.6,0
		c-0.2,0-0.4,0-0.6,0c-0.1,0-0.2,0-0.3,0c0,0-0.1,0-0.2,0l-0.1,0c0,0,0,0-0.1,0c-0.1,0.1-0.3,0.3-0.4,0.4c-0.1,0.1-0.2,0.1-0.2,0.2
		c-0.1,0.1-0.2,0.1-0.2,0.2c-0.6,0.4-1.3,0.7-2,1.1c-0.7,0.3-1.4,0.6-2.1,0.9l-0.5,0.2L52.3,26c-0.3,0.2-0.7,0.3-1,0.5
		c-0.7,0.4-1.3,0.7-2,1.2c-0.6,0.5-1.1,1.1-1.5,1.8c-0.2,0.3-0.3,0.7-0.5,1c-0.1,0.2-0.2,0.3-0.3,0.5c-0.1,0.2-0.2,0.3-0.4,0.4
		c-0.3,0.2-0.7,0.3-1,0.4c-0.4,0.1-0.7,0.1-1.1,0.2c-1.5,0.1-3,0.1-4.6,0c-1.5-0.1-3-0.2-4.6-0.5l0.1,0l-3.6-3.3l-0.1,0.2l5.2-0.9
		l0.1,0L37,27.3L34.1,24.9L34.1,24.9"/>
	<path style="fill:#401F16;" d="M57.5,19.8c-1.1-0.3-2.1-0.4-3.2-0.6c-0.3,0-0.5-0.1-0.8-0.1c-0.3,0-0.5-0.1-0.8-0.1
		c-0.3,0-0.5-0.1-0.8-0.1c-0.3,0-0.5,0-0.8-0.1c-0.3,0-0.5,0-0.8,0c-0.3,0-0.5,0-0.8,0c-0.3,0-0.5,0-0.8,0c-0.3,0-0.5,0-0.8,0.1
		c-0.3,0-0.5,0.1-0.8,0.1c-0.1,0-0.3,0-0.4,0.1c-0.1,0-0.3,0.1-0.4,0.1l-0.2,0.1l-0.2,0.1l-0.2,0.1l-0.2,0.1
		c-0.3,0.1-0.5,0.3-0.7,0.4l0.1,0c-0.6-0.6-1.2-1.3-1.7-1.9l-0.9-0.9l-0.9-0.9l0,0l0,0c-0.4-0.2-0.9-0.4-1.3-0.6l-1.3-0.7
		c-0.4-0.2-0.9-0.4-1.3-0.7c-0.4-0.2-0.9-0.5-1.3-0.7c-0.9-0.5-1.7-0.9-2.5-1.5c-0.2-0.1-0.4-0.3-0.6-0.4c-0.2-0.1-0.4-0.3-0.6-0.4
		c-0.2-0.1-0.4-0.3-0.6-0.5c-0.2-0.2-0.3-0.3-0.5-0.5l0,0c0.1,0.2,0.3,0.4,0.5,0.6c0.2,0.2,0.4,0.3,0.5,0.5c0.2,0.2,0.4,0.3,0.6,0.5
		c0.2,0.1,0.4,0.3,0.6,0.4c0.4,0.3,0.8,0.5,1.2,0.8c0.4,0.3,0.8,0.5,1.3,0.7c0.9,0.5,1.7,0.9,2.6,1.4c0.4,0.2,0.9,0.4,1.3,0.6
		c0.4,0.2,0.9,0.4,1.3,0.6l0,0l0.9,0.9l0.9,0.9c0.6,0.6,1.2,1.2,1.8,1.8l0,0l0,0c0.2-0.2,0.4-0.3,0.7-0.4l0.2-0.1
		c0.1,0,0.1,0,0.2-0.1l0.2-0.1l0.2,0c0.1,0,0.3-0.1,0.4-0.1c0.1,0,0.3-0.1,0.4-0.1c0.3,0,0.5-0.1,0.8-0.1c0.3,0,0.5,0,0.8,0
		c0.3,0,0.5,0,0.8,0c0.3,0,0.5,0,0.8,0c0.3,0,0.5,0,0.8,0l0.8,0.1c0.3,0,0.5,0,0.8,0.1c0.5,0,1.1,0.1,1.6,0.2
		c0.5,0.1,1.1,0.1,1.6,0.2C56.4,19.7,57,19.8,57.5,19.8L57.5,19.8"/>
	<path style="fill:#401F16;" d="M38.4,23c-0.2,0.1-0.4,0.1-0.6,0.2c-0.2,0.1-0.4,0.1-0.6,0.2l-1.1,0.4c-0.7,0.3-1.5,0.6-2.2,0.9
		l0.1,0c-0.6-0.2-1.2-0.4-1.8-0.6c-0.3-0.1-0.6-0.2-0.9-0.3c-0.3-0.1-0.6-0.2-0.9-0.3c-0.6-0.2-1.2-0.5-1.8-0.8L27,21.9l-0.9-0.4
		l-0.9-0.4l-0.9-0.4l-0.8-0.4c-0.3-0.2-0.6-0.3-0.8-0.5c-0.3-0.2-0.5-0.3-0.8-0.5c-0.3-0.2-0.5-0.4-0.8-0.5
		c-0.3-0.2-0.5-0.4-0.7-0.6l0,0c0.2,0.3,0.4,0.5,0.6,0.7c0.2,0.2,0.5,0.4,0.8,0.6c0.3,0.2,0.5,0.4,0.8,0.5c0.3,0.2,0.5,0.3,0.8,0.5
		c0.6,0.3,1.1,0.6,1.7,0.9c0.6,0.3,1.2,0.6,1.7,0.8c0.6,0.3,1.2,0.5,1.8,0.8l1.8,0.7l0.2,0.1l0.2,0.1l0.5,0.2
		c0.3,0.1,0.6,0.2,0.9,0.3c0.6,0.2,1.2,0.5,1.8,0.7l0,0l0,0c0.7-0.3,1.4-0.6,2.2-0.9l1.1-0.5c0.2-0.1,0.4-0.2,0.5-0.3
		C38.1,23.2,38.3,23.1,38.4,23L38.4,23"/>
	<path style="fill:#401F16;" d="M31.8,28.2c-0.5-0.1-0.9-0.2-1.4-0.3c-0.5-0.1-0.9-0.2-1.4-0.2c-0.5-0.1-0.9-0.2-1.4-0.2
		c-0.5-0.1-0.9-0.1-1.4-0.2l0,0c-0.2-0.1-0.5-0.2-0.7-0.3c-0.2-0.1-0.5-0.2-0.7-0.3l-0.7-0.3l-0.7-0.3l-1.3-0.7
		c-0.4-0.2-0.9-0.4-1.3-0.7c-0.4-0.2-0.9-0.5-1.3-0.7c-0.2-0.1-0.4-0.2-0.6-0.3l-0.6-0.4c-0.2-0.1-0.4-0.2-0.6-0.4
		c-0.2-0.1-0.4-0.3-0.6-0.4c-0.2-0.1-0.4-0.3-0.6-0.4c-0.2-0.1-0.4-0.3-0.5-0.5l0,0c0.1,0.2,0.3,0.4,0.5,0.6
		c0.2,0.2,0.4,0.3,0.5,0.5c0.2,0.2,0.4,0.3,0.6,0.4c0.2,0.1,0.4,0.3,0.6,0.4c0.8,0.5,1.7,1,2.6,1.4c0.4,0.2,0.9,0.4,1.3,0.6
		c0.4,0.2,0.9,0.4,1.3,0.6l0.7,0.3l0.7,0.3c0.2,0.1,0.4,0.2,0.7,0.3l0.7,0.3l0,0l0,0c0.5,0.1,0.9,0.2,1.4,0.3
		c0.5,0.1,0.9,0.1,1.4,0.2c0.5,0.1,0.9,0.1,1.4,0.2C30.8,28.2,31.3,28.2,31.8,28.2L31.8,28.2"/>
	<path style="fill:#401F16;" d="M35.4,31.5l-4.5,0.2l-1.1,0l-1.1,0c-0.2,0-0.4,0-0.6,0c-0.2,0-0.4,0-0.6,0c-0.2,0-0.4,0-0.6,0
		c-0.2,0-0.4-0.1-0.5-0.1l0,0l0,0c-0.6,0.2-1.3,0.2-1.9,0.2c-0.3,0-0.6-0.1-1-0.1c-0.3-0.1-0.6-0.2-0.9-0.3
		c-1.2-0.6-2.3-1.2-3.4-1.8c-0.6-0.3-1.1-0.6-1.7-0.9c-0.6-0.3-1.1-0.6-1.7-1c-0.3-0.2-0.6-0.3-0.8-0.5c-0.3-0.2-0.5-0.3-0.8-0.5
		c-0.3-0.2-0.5-0.4-0.8-0.6c-0.2-0.2-0.5-0.4-0.7-0.7l0,0c0.2,0.3,0.4,0.5,0.6,0.7c0.2,0.2,0.5,0.4,0.7,0.6c0.3,0.2,0.5,0.4,0.8,0.6
		c0.3,0.2,0.5,0.4,0.8,0.5c0.5,0.4,1.1,0.7,1.7,1c0.6,0.3,1.1,0.6,1.7,0.9c1.2,0.6,2.3,1.2,3.5,1.7c0.3,0.1,0.6,0.2,0.9,0.3
		c0.3,0.1,0.7,0.1,1,0.1c0.3,0,0.7,0,1,0c0.3,0,0.6-0.1,1-0.2l0,0c0.2,0,0.4,0.1,0.6,0.1c0.2,0,0.4,0.1,0.6,0.1c0.2,0,0.4,0,0.6,0
		c0.2,0,0.4,0,0.6,0l0.6,0l0.6,0c0.4,0,0.7,0,1.1,0c0.7,0,1.5-0.1,2.2-0.2C33.9,31.7,34.6,31.6,35.4,31.5L35.4,31.5"/>
	<path style="fill:#401F16;" d="M73.6,22.4c-1,0.6-2.1,1.2-3.2,1.8c-1.1,0.6-2.1,1.1-3.2,1.7c-0.5,0.3-1.1,0.5-1.6,0.8
		c-0.5,0.3-1.1,0.5-1.6,0.8c-0.5,0.2-1.1,0.5-1.7,0.7c-0.6,0.2-1.1,0.5-1.7,0.7c-2.2,0.9-4.5,1.7-6.8,2.4l-0.9,0.2l-0.9,0.2
		c-0.3,0.1-0.6,0.1-0.9,0.2L50.7,32L50.3,32c-0.6,0.1-1.2,0.2-1.8,0.2c-0.3,0-0.6,0-0.9,0.1l-0.9,0l0,0l-1.2-0.6l-0.2-0.1l0,0.2
		c0,0.1,0,0.3-0.1,0.5c-0.1,0.2-0.2,0.3-0.3,0.5c-0.2,0.3-0.6,0.5-0.9,0.7c-0.2,0.1-0.3,0.2-0.5,0.3c-0.2,0.1-0.4,0.2-0.5,0.2
		c-0.2,0.1-0.4,0.1-0.5,0.2c-0.2,0.1-0.4,0.1-0.6,0.2c-0.4,0.1-0.8,0.2-1.1,0.3l-0.6,0.1l-0.6,0.1C39.3,35,38.9,35,38.5,35
		c-0.4,0-0.8,0.1-1.2,0.1c-0.4,0-0.8,0.1-1.2,0.1c-0.4,0-0.8,0-1.2,0.1c-0.4,0-0.8,0-1.2,0l-1.2,0l-1.2,0c-0.3,0-0.5,0-0.8,0
		c-0.1,0-0.3,0-0.4,0c-0.8,0-1.6-0.1-2.3-0.1l0,0c-1.9-0.6-3.9-1.1-5.8-1.7c-1-0.3-2-0.5-2.9-0.8c-0.5-0.1-1-0.3-1.5-0.4
		c-0.5-0.1-1-0.2-1.5-0.3c-1-0.2-2-0.3-3-0.5c-0.5-0.1-1-0.1-1.5-0.3c0,0-0.1,0-0.1,0l-0.1,0c-0.1,0-0.1,0-0.2-0.1l-0.1-0.1
		c0,0-0.1-0.1-0.1-0.1c-0.2-0.1-0.3-0.3-0.4-0.6c-0.1-0.4-0.1-0.9,0-1.4c0.1-0.5,0.2-1,0.4-1.4c0.2-0.5,0.4-0.9,0.6-1.4
		c0.2-0.4,0.5-0.9,0.7-1.3l0,0l0,0l0.1-0.3c0-0.1,0.1-0.2,0.1-0.3l0.1-0.3c0-0.1,0.1-0.2,0.1-0.3l0.2-0.3c0.1-0.1,0.1-0.2,0.2-0.3
		c0.1-0.1,0.1-0.2,0.2-0.3l0.2-0.3l0.2-0.3c0.1-0.1,0.1-0.2,0.2-0.3c0.1-0.1,0.2-0.2,0.2-0.2c0.1-0.1,0.2-0.2,0.3-0.2
		c0.1-0.1,0.2-0.1,0.3-0.2c0.1-0.1,0.2-0.1,0.3-0.2c0.1-0.1,0.2-0.1,0.3-0.2c0.1-0.1,0.2-0.1,0.3-0.1l0.1,0l0-0.1
		c0-0.1,0-0.2,0.1-0.3c0-0.1,0.1-0.2,0.1-0.3c0.1-0.1,0.1-0.2,0.2-0.3c0.1-0.1,0.1-0.2,0.2-0.3c0.3-0.4,0.7-0.7,1.1-1
		c0.4-0.3,0.8-0.5,1.3-0.8c0.2-0.1,0.5-0.2,0.7-0.3c0.2-0.1,0.5-0.2,0.7-0.2l0.1,0l0-0.1l0.2-0.4l0.1-0.2l0.1-0.2
		c0.1-0.1,0.1-0.2,0.2-0.3l0.2-0.3c0.1-0.1,0.2-0.2,0.2-0.3c0.1-0.1,0.2-0.2,0.3-0.3l0.3-0.3l0.3-0.3c0.1-0.1,0.2-0.2,0.3-0.2
		c0.1-0.1,0.2-0.2,0.3-0.2c0.1-0.1,0.2-0.2,0.3-0.2c0.1-0.1,0.2-0.1,0.3-0.2c0.1-0.1,0.2-0.1,0.4-0.2c0.1-0.1,0.2-0.1,0.4-0.2
		c0.2-0.1,0.5-0.2,0.7-0.3l0,0l0,0l0.3-0.4c0.1-0.1,0.2-0.2,0.3-0.3l0.3-0.3c0.1-0.1,0.2-0.2,0.3-0.3c0.1-0.1,0.2-0.2,0.3-0.3
		l0.3-0.3l0.4-0.3c0.1-0.1,0.3-0.2,0.4-0.2c0.1-0.1,0.3-0.2,0.4-0.2c0.1-0.1,0.3-0.1,0.4-0.2l0.4-0.2l0.4-0.2l0.4-0.1
		c0.1,0,0.3-0.1,0.4-0.1c0.3-0.1,0.6-0.1,0.9-0.2l0,0l0,0l0.8-0.8l0.4-0.4c0.1-0.1,0.3-0.3,0.4-0.4L33,7.4c0.1-0.1,0.2-0.1,0.2-0.2
		l0.2-0.1c0.2-0.1,0.3-0.2,0.5-0.3l0.5-0.2c0.2-0.1,0.3-0.1,0.5-0.2l0.3-0.1c0.1,0,0.2,0,0.3-0.1c0.2,0,0.4-0.1,0.5-0.1
		c0.2,0,0.4-0.1,0.6-0.1c0.2,0,0.4,0,0.6,0c0,0,0.1,0,0.1,0c0.1,0,0.1,0,0.2,0l0.3,0c0.1,0,0.2,0,0.3,0c0.1,0,0.2,0,0.3,0.1
		c0.2,0,0.4,0.1,0.5,0.2l0,0c-0.2-0.1-0.4-0.1-0.5-0.2c-0.1,0-0.2,0-0.3-0.1c-0.1,0-0.2,0-0.3,0l-0.3,0c-0.1,0-0.2,0-0.3,0
		c-0.2,0-0.4,0-0.6,0c-0.2,0-0.4,0-0.6,0.1c-0.2,0-0.4,0.1-0.6,0.1c-0.1,0-0.2,0-0.3,0.1l-0.3,0.1c-0.2,0.1-0.4,0.1-0.5,0.2
		l-0.5,0.2c-0.2,0.1-0.3,0.2-0.5,0.3l-0.2,0.1C33,7.2,33,7.2,32.9,7.3l-0.5,0.3C32.3,7.7,32.1,7.8,32,8l-0.4,0.4l-0.8,0.8l0.1,0
		c-0.3,0-0.6,0.1-0.9,0.2c-0.1,0-0.3,0.1-0.4,0.1L29,9.6l-0.4,0.2l-0.4,0.2C28,10,27.9,10,27.8,10.1c-0.1,0.1-0.3,0.1-0.4,0.2
		c-0.1,0.1-0.3,0.2-0.4,0.2l-0.4,0.3l-0.4,0.3c-0.1,0.1-0.2,0.2-0.3,0.3c-0.1,0.1-0.2,0.2-0.3,0.3l-0.3,0.3
		c-0.1,0.1-0.2,0.2-0.3,0.4l-0.3,0.4l0.1,0c-0.3,0.1-0.5,0.2-0.8,0.3c-0.1,0.1-0.2,0.1-0.4,0.2c-0.1,0.1-0.2,0.1-0.4,0.2
		c-0.1,0.1-0.2,0.1-0.4,0.2c-0.1,0.1-0.2,0.1-0.3,0.2c-0.1,0.1-0.2,0.2-0.3,0.2c-0.1,0.1-0.2,0.2-0.3,0.3l-0.3,0.3l-0.3,0.3
		c-0.1,0.1-0.2,0.2-0.3,0.3c-0.1,0.1-0.2,0.2-0.3,0.3l-0.2,0.3c-0.1,0.1-0.1,0.2-0.2,0.4l-0.1,0.2l-0.1,0.2l-0.2,0.4l0.1-0.1
		c-0.3,0.1-0.5,0.2-0.7,0.3c-0.2,0.1-0.5,0.2-0.7,0.3c-0.5,0.2-0.9,0.5-1.3,0.8c-0.4,0.3-0.8,0.7-1.1,1.1c-0.1,0.1-0.2,0.2-0.2,0.3
		c-0.1,0.1-0.1,0.2-0.2,0.3c-0.1,0.1-0.1,0.2-0.1,0.4c0,0.1-0.1,0.3-0.1,0.4l0.1-0.1c-0.1,0-0.2,0.1-0.3,0.2
		c-0.1,0.1-0.2,0.1-0.3,0.2c-0.1,0.1-0.2,0.1-0.3,0.2c-0.1,0.1-0.2,0.1-0.3,0.2c-0.1,0.1-0.2,0.2-0.3,0.2c-0.1,0.1-0.2,0.2-0.3,0.3
		c-0.1,0.1-0.2,0.2-0.2,0.3l-0.2,0.3l-0.2,0.3c-0.1,0.1-0.1,0.2-0.2,0.3c-0.1,0.1-0.1,0.2-0.2,0.3l-0.2,0.3
		c-0.1,0.1-0.1,0.2-0.1,0.3l-0.1,0.3c0,0.1-0.1,0.2-0.1,0.3l-0.1,0.3l0,0c-0.3,0.4-0.5,0.9-0.7,1.3c-0.2,0.5-0.4,0.9-0.6,1.4
		c-0.2,0.5-0.3,1-0.4,1.5c-0.1,0.5-0.1,1,0.1,1.6c0.1,0.3,0.3,0.5,0.5,0.7c0.1,0,0.1,0.1,0.2,0.1l0.2,0.1c0.1,0,0.1,0,0.2,0.1l0.1,0
		c0,0,0.1,0,0.1,0c0.5,0.1,1,0.2,1.5,0.3c1,0.1,2,0.3,3,0.4c0.5,0.1,1,0.2,1.5,0.3c0.5,0.1,1,0.2,1.5,0.3c1,0.2,2,0.5,2.9,0.7
		c2,0.5,3.9,1.1,5.9,1.6l0,0l0,0c0.8,0,1.6,0.1,2.3,0.1c0.1,0,0.3,0,0.4,0c0.3,0,0.5,0,0.8,0l1.2,0l1.2,0c0.4,0,0.8,0,1.2,0
		c0.4,0,0.8,0,1.2-0.1c0.4,0,0.8-0.1,1.2-0.1c0.4,0,0.8-0.1,1.2-0.1c0.4-0.1,0.8-0.1,1.2-0.2l0.6-0.1l0.6-0.1
		c0.4-0.1,0.8-0.2,1.1-0.3c0.2,0,0.4-0.1,0.6-0.2c0.2-0.1,0.4-0.1,0.6-0.2c0.2-0.1,0.4-0.1,0.5-0.2c0.2-0.1,0.4-0.2,0.5-0.3
		c0.3-0.2,0.7-0.4,0.9-0.7c0.1-0.1,0.3-0.3,0.3-0.5c0.1-0.2,0.1-0.4,0.1-0.6l-0.1,0.1l1.2,0.6l0,0l0,0l0.9,0c0.3,0,0.6,0,0.9-0.1
		c0.6-0.1,1.2-0.1,1.8-0.2l0.4-0.1l0.4-0.1c0.3-0.1,0.6-0.1,0.9-0.2l0.9-0.2l0.9-0.2c2.3-0.7,4.6-1.5,6.8-2.4
		c0.6-0.2,1.1-0.5,1.7-0.7c0.6-0.2,1.1-0.5,1.6-0.8c0.5-0.3,1.1-0.5,1.6-0.8c0.5-0.3,1.1-0.5,1.6-0.8c1.1-0.6,2.1-1.1,3.2-1.7
		C71.5,23.6,72.5,23,73.6,22.4L73.6,22.4"/>
	<path style="fill:#401F16;" d="M28,35.3c0,0-0.3,0-0.8-0.1c-0.5,0-1.2-0.1-2-0.1c-0.4,0-0.9,0-1.3-0.1c-0.5,0-1,0-1.5,0
		c-0.5,0-1,0-1.6-0.1c-0.3,0-0.5-0.1-0.8-0.1c-0.3,0-0.5-0.1-0.8-0.1c-0.5-0.1-1.1-0.2-1.6-0.3c-0.5-0.1-1-0.2-1.5-0.3
		c-0.5-0.1-1-0.2-1.4-0.4c-0.4-0.1-0.9-0.3-1.2-0.4c-0.4-0.2-0.7-0.3-1-0.5c-0.3-0.2-0.5-0.4-0.6-0.6c-0.1-0.2-0.2-0.4-0.2-0.5
		c0-0.1,0-0.2,0-0.2l0,0c0,0,0,0.1,0,0.2c0,0.1,0,0.3,0.2,0.5c0.1,0.2,0.3,0.5,0.6,0.7c0.3,0.2,0.6,0.4,1,0.6
		c0.4,0.2,0.8,0.3,1.3,0.5c0.5,0.1,0.9,0.3,1.4,0.4c0.5,0.1,1,0.2,1.6,0.3c0.5,0.1,1.1,0.1,1.6,0.2c0.5,0,1.1,0.1,1.6,0.1
		c0.5,0,1.1,0.1,1.6,0.2c0.5,0.1,1,0.1,1.5,0.1c0.5,0,0.9,0,1.3,0.1c0.4,0,0.8,0,1.1,0c0.3,0,0.6,0,0.9,0C27.7,35.3,28,35.3,28,35.3
		L28,35.3"/>
	<path style="fill:#401F16;" d="M71.6,21.7L70.2,22c-0.4,0.1-0.9,0.2-1.3,0.3l-1.3,0.3c-0.4,0.1-0.9,0.2-1.3,0.3
		c-0.2,0-0.4,0.1-0.7,0.1l-0.7,0.1l-0.7,0.1c-0.2,0-0.4,0.1-0.7,0.1c-0.2,0-0.4,0.1-0.7,0.1c-0.2,0-0.5,0-0.7,0.1l-0.7,0l-0.7,0l0,0
		l0,0c-0.3,0.2-0.6,0.3-0.9,0.5c-0.3,0.2-0.6,0.3-0.9,0.4c-0.6,0.3-1.3,0.6-1.9,0.8c-0.3,0.1-0.6,0.3-1,0.4c-0.3,0.1-0.6,0.3-1,0.4
		c-0.3,0.1-0.6,0.2-1,0.4c-0.3,0.1-0.7,0.2-1,0.3c-0.3,0.1-0.7,0.2-1,0.3c-0.3,0.1-0.7,0.2-1,0.4c-0.2,0.1-0.3,0.2-0.5,0.3
		c-0.1,0.1-0.3,0.2-0.4,0.3c-0.1,0.1-0.3,0.2-0.4,0.4c-0.1,0.1-0.2,0.3-0.4,0.4c-0.1,0.1-0.2,0.3-0.3,0.4c-0.1,0.1-0.2,0.3-0.3,0.4
		c-0.2,0.3-0.3,0.6-0.5,0.9c-0.1,0.2-0.1,0.3-0.2,0.5c-0.1,0.2-0.1,0.3-0.1,0.5c-0.1,0.3-0.1,0.7-0.1,1l0,0c0-0.3,0.1-0.7,0.2-1
		c0.1-0.2,0.1-0.3,0.2-0.5c0.1-0.2,0.1-0.3,0.2-0.5c0.2-0.3,0.3-0.6,0.5-0.9c0.1-0.1,0.2-0.3,0.3-0.4c0.1-0.1,0.2-0.3,0.3-0.4
		c0.1-0.1,0.2-0.2,0.4-0.4c0.1-0.1,0.3-0.2,0.4-0.3c0.1-0.1,0.3-0.2,0.4-0.3c0.1-0.1,0.3-0.2,0.4-0.2c0.3-0.1,0.6-0.3,0.9-0.4
		c0.3-0.1,0.7-0.2,1-0.3c0.3-0.1,0.7-0.2,1-0.3c0.3-0.1,0.7-0.2,1-0.4c0.3-0.1,0.6-0.3,1-0.4c0.3-0.1,0.6-0.3,1-0.4
		c0.6-0.3,1.3-0.6,1.9-0.9c0.6-0.3,1.2-0.6,1.9-1l0,0l0.7,0l0.7,0c0.2,0,0.5,0,0.7,0c0.2,0,0.5,0,0.7,0c0.2,0,0.5,0,0.7-0.1
		c0.2,0,0.5-0.1,0.7-0.1l0.7-0.1c0.2,0,0.4-0.1,0.7-0.1c0.2,0,0.4-0.1,0.7-0.1c0.2,0,0.4-0.1,0.7-0.1c0.4-0.1,0.9-0.2,1.3-0.3
		c0.4-0.1,0.9-0.2,1.3-0.4C70.7,22,71.1,21.8,71.6,21.7L71.6,21.7"/>
	<path style="fill:#290E0E;" d="M88.9,5.4c3.5,1,12,3.9,13.6,6.9c1.6,3,2.7,6.6-4.7,9.6c0,0-2.6,9.4-7.2,8.8c0,0-1.7,0-2.2-1.2
		c0,0,1.1,3-2.9,2.6c-4-0.4-1.3-0.4-1.3-0.4s-3.5-1.8-5.1,0c0,0-2.3,3.5-8.7,2.4c0,0-5.3,1.7-10.6,0.5L56.1,36l-0.8-1.3l-5.5-0.4
		c0,0-17.4-1-19.6-2.6c0,0,4.1-20,29.7-22.6c0,0,8.8-1.5,10.2-2.8c1.4-1.2,2.3-1.8,4.4,0.1c0,0,4.3-2.3,7-2.1c0,0,3.9,0.8,4.7,0.8
		C86.2,5.2,87.8,5.1,88.9,5.4"/>
	<path style="fill:#433127;" d="M92,33.6c0,0,1.2,1.4,2.7,1.6c0,0-1.2-0.6-2-1.8L92,33.6z"/>
	<path style="fill:#433127;" d="M95.9,31.8c0,0-0.6,2.4-0.6,2.6c0,0-0.8-1.3-1.8-1.4L95.9,31.8z"/>
	
		<ellipse transform="matrix(1.889062e-02 -0.9998 0.9998 1.889062e-02 80.6293 109.3138)" style="fill:#B94626;" cx="96" cy="13.6" rx="3.4" ry="3.2"/>
	
		<ellipse transform="matrix(0.8252 -0.5648 0.5648 0.8252 9.4959 56.5848)" style="fill:#FCDBD0;" cx="96.2" cy="13" rx="0.6" ry="0.6"/>
	
		<ellipse transform="matrix(1.889062e-02 -0.9998 0.9998 1.889062e-02 80.3549 109.4405)" style="fill:#8B3424;" cx="95.9" cy="13.8" rx="0.7" ry="0.7"/>
	<path style="fill:#3D4345;" d="M91.7,7.6c0.5-0.1,0.9,0.3,1.2,0.7c0.5,0.5,1.2,0.9,1.9,1.1c0-0.3,0-0.6-0.1-0.9
		c0.2,0,0.4,0.3,0.6,0.3c0.2,0.1,0.5-0.2,0.4-0.4c0.2,0,0.4,0.1,0.5,0.3c0.1,0.2,0,0.4-0.1,0.6c-0.3,0.5-0.9,0.7-1.4,1.1
		c-0.8,0.5-1.3,1.4-1.4,2.3c0,0.1,0,0.2-0.1,0.3c-0.1,0.1-0.2,0.1-0.4,0.1c-0.5,0-1-0.3-1.3-0.7c-0.4-0.4-0.6-0.8-1.1-1.1
		c-0.5-0.4-1.2-0.5-1.8-0.8c-0.6-0.3-1.1-0.8-1.1-1.5c1.7,0,3.1,1.1,4.6,1.8c0,0,0.1,0,0.1,0c0.1,0,0.1-0.1,0.1-0.2
		c0-0.2,0-0.4,0-0.7c0.3,0,0.5,0.1,0.7,0.3c0.2-0.2,0.1-0.6-0.1-0.8c-0.2-0.2-0.4-0.4-0.6-0.6C92,8.6,91.8,8.1,91.7,7.6z"/>
	<path style="fill:#3D4345;" d="M88.6,11.6c1,0.4,1.7,1.3,2.4,2.2c0.4,0.5,0.9,1.2,0.7,1.8c-0.4-0.1-0.8-0.2-1.1-0.2
		c-0.1,0-0.1,0-0.2,0c-0.1,0-0.1,0.1-0.2,0.1c-0.5,0.6-1.7,0-2.2,0.6c-0.1,0.1-0.2,0.3-0.3,0.5C87.6,16.8,87.3,17,87,17
		c0-0.1,0-0.2,0.1-0.2c-0.2,0-0.3-0.2-0.4-0.5c0-0.2,0.1-0.4,0-0.6c0-0.3-0.2-0.7-0.6-0.8c-0.1,0-0.2-0.1-0.3-0.2
		c-0.1-0.1-0.1-0.2-0.1-0.3c-0.1-1-0.3-2-0.7-2.9c0.5,0.2,0.8,0.7,1,1.2c0.3,0.7,0.7,1.4,1,2.2c0.1,0.2,0.2,0.3,0.4,0.3
		c0.2,0,0.4-0.3,0.5-0.2c0-0.2-0.1-0.4-0.2-0.5c-0.5-0.8-0.8-1.6-1.1-2.5c0.3-0.2,0.8,0.1,1,0.4c0.2,0.3,0.3,0.7,0.4,1
		c0.2,0.5,0.6,0.9,1,1.3c0.1,0.1,0.2,0.1,0.2,0.1c0.1,0,0.1-0.1,0.1-0.2c0.1-0.1,0.2,0,0.3,0c0.2,0,0.3-0.3,0.2-0.5
		c-0.1-0.2-0.3-0.3-0.5-0.4c-0.2-0.1-0.3-0.4-0.2-0.6c0.1,0.1,0.3,0.2,0.4,0.3c0.1-0.1,0.1-0.2,0-0.3c-0.1-0.1-0.2-0.2-0.3-0.2
		C89.1,12.4,88.8,12.1,88.6,11.6z"/>
	<path style="fill:#B2B2AA;" d="M85.6,6.3c0,0-2.3-1-3.3-1l3.1,2L85.6,6.3z"/>
	<path style="fill:#3F3835;" d="M102.9,14.9c0,0,7.1-1.6,8.4-1.5c0,0-2.4-0.6-9,1.1L102.9,14.9z"/>
	<path style="fill:#3F3835;" d="M103.5,14.7c0,0,3.1-0.1,4.7,1.5c0,0-2.3-1.1-4.6-0.9L103.5,14.7z"/>
	<path style="fill:#401F16;" d="M91.5,35.8c0,0.2,0.9,0.4,1.1,0.5c0.5,0.3,0.8,0.8,0.9,1.4c-0.4-0.4-1.1-0.5-1.7-0.4
		c-0.6,0.1-1.2,0.2-1.8-0.1c-0.2-0.1-0.4-0.3-0.4-0.5c0-0.1,0.1-0.3,0.1-0.4c0.6-1.2,0-2.7,0.1-4.1c0-0.4,0.1-0.8,0.2-1.2
		c0.3,0,0.5-0.1,0.8-0.1C91.7,30.9,91.5,35,91.5,35.8z"/>
	<path style="fill:#434138;" d="M84.7,22.4c-0.3-0.3-0.6-0.7-0.6-1.1c-0.5,0-1,0-1.5-0.1c-0.1-0.2-0.2-0.4-0.3-0.7
		c0.9-0.1,1.4-1,1.7-1.8c0.1-0.3,0.4-0.7,0.7-0.5c0.3,0.1,0.2,0.5,0.1,0.8c-0.3,0.9,0.1,2,0.9,2.6c0.2,0.1,0.4,0.2,0.6,0.3
		c0.3,0,0.6-0.1,0.9-0.2c0.6-0.2,1.3-0.5,1.9-0.7c-0.4,0-0.4-0.7-0.1-0.9c0.3-0.2,0.8-0.2,1.2-0.1c0.4,0.1,0.8,0.2,1.2,0
		c0.1,0.2,0,0.4,0,0.6c-0.4,0.3-1,0.3-1.4,0c0.3,0.4-0.1,1-0.6,1.2c-0.5,0.2-1,0.3-1.4,0.7c-0.2,0.1-0.3,0.3-0.4,0.4
		c-0.5,0.4-1.3,0.2-1.9-0.1c-0.2,0.4,0.2,0.9,0.5,1.2c0.3,0.3,0.7,0.9,0.4,1.2c-0.5,0.3-1-0.4-1.4-0.8c-0.7-0.7-1.9-0.6-2.8-0.2
		c-0.9,0.5-1.5,1.3-1.9,2.2c-0.4,0.8-0.7,1.6-0.9,2.5c-0.2,0.2-0.6-0.1-0.7-0.4s-0.1-0.6-0.3-0.9c-0.2-0.2-0.5-0.2-0.7-0.3
		c-0.4-0.3-0.3-0.9-0.2-1.3c0.1-0.5,0.1-1.1-0.4-1.3c1.4-0.2,2.4-1.2,3.6-2C82,22.3,83.6,21.7,84.7,22.4"/>
	<path style="fill:#7F6848;" d="M94.3,26.5c-0.2-0.1-0.5-0.2-0.8-0.2c-0.2-0.3,0.1-0.7,0.4-0.8c0.3-0.2,0.7-0.3,0.7-0.7
		c-0.2-0.1-0.4-0.1-0.6-0.2c0.4-0.7,0.8-1.4,1.1-2.1c0.1-0.2,0.3-0.5,0.3-0.7c0-0.3-0.2-0.5-0.4-0.6c-0.5-0.1-0.6,0.6-1,0.8
		c-0.1-0.6,0.2-1.3,0.8-1.6c0.1-0.1,0.3-0.2,0.4-0.3c0.3-0.3,0.3-0.7,0.4-1c0.1-0.4,0.2-0.8,0.5-1c0.3-0.2,0.9,0.1,0.8,0.4
		c0,0.1-0.1,0.2-0.2,0.3c-0.2,0.3-0.4,0.6-0.6,0.9c-0.1,0.3-0.3,0.7-0.2,1c0.1,0.3,0.3,0.7,0.6,0.7c0.1,0,0.3,0,0.4,0.1
		c0,0,0,0.1,0.1,0.2c0.1,0.7-0.7,1.1-1,1.7c-0.1,0.3-0.2,0.6-0.2,0.9c-0.1,0.8-0.4,1.6-0.9,2.3C95,26.8,94.9,27,94.8,27
		c-0.1,0.1-0.3,0.2-0.4,0.2c-0.3,0.2-0.6,0.5-0.8,0.8c-0.4-0.1-0.4-0.6-0.1-0.9S94.1,26.8,94.3,26.5z"/>
	<path style="fill:#3D4345;" d="M84.7,25.1c0,0,3.9,1.7-0.5,6.7c0,0-1.2,1.4-2.9,0.8C79.7,31.8,80.4,24.3,84.7,25.1z"/>
	<path style="fill:#7A523A;" d="M79.8,36c-0.2-0.1-0.2-0.3-0.2-0.5c-0.1-1,0.3-2,1-2.6c0.1-0.1,0.2-0.2,0.2-0.3c0-0.1,0-0.3,0-0.4
		c-0.1-0.6,0.2-1.3,0.7-1.6s1.2-0.3,1.8-0.1c0.4,0.2,0.8,0.5,0.7,0.9c-0.1,0.2-0.2,0.3-0.3,0.5c-0.2,0.4,0,0.9,0.1,1.3
		c0.1,0.7-0.2,1.4-0.4,2c-0.3,0.6-0.5,1.2-1,1.6c-0.1,0-0.2,0.1-0.2,0.1c-0.2,0-0.2-0.3-0.3-0.4c-0.1-0.3-0.5-0.4-0.8-0.5
		c-0.3,0-0.6,0.1-1,0.1C80,36.1,79.9,36.1,79.8,36z"/>
	<path style="fill:#8C5442;" d="M82,36c-0.1,0.2-0.2,0.3-0.3,0.4c-0.5,0.7-0.2,1.6-0.1,2.5c0,0.5,0,1.1,0,1.6
		c-0.2,1.9-0.3,3.8-0.5,5.6c0,0.4-0.1,0.9-0.3,1.2c-0.2,0.4-0.6,0.7-1.1,0.6c-0.4-0.1-0.6-0.4-0.7-0.8c-0.1-0.4,0-0.8,0-1.1
		c0.2-1.6,0.5-3.1,0.7-4.7c0.2-1.1,0.3-2.1,0.2-3.2c0-0.6-0.2-1.2-0.1-1.9c0.1-0.6,0.5-1.2,1.1-1.4C81.5,34.8,82.2,35.5,82,36z"/>
	<path style="fill:#2A1E14;" d="M79.7,50.9c0-0.7-0.5-3.8,0.2-4c0.7-0.2,1.3,3.2,1.6,3.8c0.1,0.2,0.2,0.5,0.1,0.7
		c-0.1,0.2-0.3,0.4-0.2,0.5c-0.1,0.1-0.2,0-0.2-0.1c0-0.1,0-0.2,0-0.3c-0.1-0.2-0.4-0.2-0.6,0c-0.1,0.2-0.1,0.4-0.1,0.7
		c-0.3-0.1-0.6-0.4-0.7-0.7C79.7,51.3,79.7,51.1,79.7,50.9z"/>
	<path style="fill:#401F16;" d="M74.8,34.6c-0.1-0.1-0.2-0.2-0.2-0.4c-0.3-0.8-0.6-1.8-0.1-2.5c-0.6,0.7-1.3,1.3-1.9,2.1
		c-0.4,0.5-0.6,1.1-0.9,1.7c-0.5,1.1-1,2.3-1.5,3.4c-0.6,1.4-1.3,3-2.7,3.8c-0.3,0.2-0.6,0.3-0.7,0.6c-0.1,0.2-0.1,0.5-0.2,0.7
		c-0.2,0.6-1.2,0.7-1.6,0.3c-0.5-0.5-0.5-1.2-0.2-1.8c0.3-0.6,0.8-1,1.3-1.4c0.5-0.4,1.1-0.8,1.5-1.3c0.6-0.8,0.8-1.8,1.4-2.6
		c0.2-0.4,0.6-0.7,0.8-1.1c0.7-1,1-2.2,1.4-3.3c0.6-1.9,1.6-3.7,2.9-5.3c0.4-0.5,0.8-1,1.2-1.4c0.3-0.3,0.7-0.6,1-0.4
		c0.2,0.1,0.2,0.4,0.3,0.6c0.2,0.6,0.7,1.1,1.3,1.3c0.3,0.1,0.7,0.1,0.9,0.3c0.4,0.3,0.5,0.9,0.5,1.4c-0.1,2.2-1.5,4.4-3.5,5.3
		C75.5,34.7,75.1,34.8,74.8,34.6z"/>
	<path style="fill:#2A1E14;" d="M65.4,42.9c-0.1,0-0.2,0-0.3,0c-1.9,0.3-3.7,1.1-5.2,2.1c-0.1,0.1-0.2,0.2-0.3,0.3
		c-0.1,0.1-0.1,0.2-0.2,0.3c-0.3,0.6-0.7,1.3-0.6,2.1c0.2-0.2,0.5-0.5,0.7-0.7c0.1,0.3,0.2,0.7,0.3,0.9c0.1-0.9,0.6-1.6,1.3-2.2
		s1.5-0.9,2.3-1.3c0.4-0.2,0.8-0.4,1.2-0.3c0.3,0,0.6,0.1,0.8-0.1c0.3-0.2,0.2-0.7,0-1C65.5,43,65.5,43,65.4,42.9z"/>
	<path style="fill:#401F16;" d="M75.7,32.4c0.3-0.1,0.5,0.4,0.5,0.7c0.2,1.9,0.4,3.7,0.5,5.6c-0.9,0.3-1.8,0.6-2.7,1
		c-0.4,0.1-0.8,0.3-1.1,0.5c-0.6,0.3-1.4,0.7-1.7,0.6c0,0,0.2-0.5,0.4-0.5c-0.2,0-0.5,0.3-0.5,0.2c0.2-0.5,2.8-1.9,4.2-2.3
		c0.1,0,0.2-0.1,0.3-0.2c0.1-0.1,0.1-0.3,0.1-0.4c0-0.6,0-1.1-0.1-1.7c-0.2-1.1-0.6-2.1-0.2-3.1C75.5,32.6,75.6,32.5,75.7,32.4z"/>
	<path style="fill:#3D4345;" d="M84.9,8.9c0.2-0.8,0-0.8-0.4-0.8c-0.3,0-0.6,0-0.8-0.3c-0.1-0.1-0.1-0.2-0.2-0.4
		c-0.2-0.6-0.9-0.9-1.5-1c-0.6-0.1-1.2-0.1-1.8-0.3c-0.2-0.1-0.3-0.1-0.5-0.1c-0.2,0-0.4,0.1-0.5,0.2c-0.7,0.4-1.6,0.5-2.4,0.6
		c-0.8,0.1-1.7,0.3-2.5,0.4c1.4,1,2.9,1.8,4.6,2.2c0.4,0.1,0.7,0.2,1,0.3c0.4,0.2,0.7,0.5,1,0.8c0.5,0.4,1.1,0.7,1.7,0.8
		C84.2,11.9,84.6,10.1,84.9,8.9"/>
	<path style="fill:#B2B2AA;" d="M71.1,7.1c-0.3,0-0.6,0-0.8,0c-0.1,0.4,0.4,0.6,0.8,0.7c0.8,0.3,1.5,0.6,2.3,0.9
		c0.8,0.3,1.6,0.7,2.4,1c-0.6-0.5-1.2-1-1.8-1.5c-0.1-0.1-0.1-0.1-0.2-0.2c0-0.1,0-0.2,0-0.3c0-0.3-0.2-0.5-0.3-0.7
		c-0.2-0.3-0.5-0.5-0.7-0.8c-0.2-0.2-0.5-0.5-0.8-0.4c0,0.3,0,0.6,0.1,0.9c-0.3,0.1-0.6-0.2-0.6-0.4c-0.3-0.1-0.5-0.2-0.8-0.3
		C70.6,6.4,70.8,6.9,71.1,7.1"/>
	<path style="fill:#B2B2AA;" d="M84,12.6c-0.2,0.5,0,1.1,0.3,1.5c0.3,0.4,0.7,0.7,1.2,1.1c0.1,0.1,0.2,0.2,0.2,0.3
		c0,0.1-0.1,0.2-0.1,0.2c-0.4,0.5-1,0.9-1.6,1.1c-0.1,0-0.2,0.1-0.3,0c-0.1-0.1-0.1-0.2-0.2-0.3c-0.1-0.4-0.1-0.8-0.2-1.2
		c0-0.2-0.1-0.4-0.2-0.5c-0.2-0.3-0.6-0.2-0.9-0.2c-0.2,0-0.4,0-0.6,0c0-0.4,0-0.8,0-1.2c-1.5-0.9-3.1-1.9-4.6-2.8
		c-0.1-0.1-0.3-0.2-0.3-0.4c1.5,0,3,0.5,4.3,1.3c0.4,0.3,0.9,0.7,1.4,0.7c0.1,0,0.2,0,0.3,0c0.3,0.1,0.3,0.6,0.6,0.5
		c0.3-0.1,0.3-0.8,0.6-0.7C84.1,12.1,84,12.4,84,12.6"/>
	<path style="fill:#A45926;" d="M90.2,27.1c0,0,5.5-0.6,8.1,1.7c0,0,1.6,1.6-1.6,2.6c-3.2,1.1-4.5,3.6-7.2,0.7
		C86.7,29.3,89.8,27.1,90.2,27.1z"/>
	<path style="fill:#3F3835;" d="M97.5,29.8c0,0,1.6-1.6,4.8,12c0,0,4.3-0.9,7.1,3.5l-0.9-0.2c0,0,0.1,1-0.7,1.3c0,0-0.1-2.2-1.9-2.7
		s-3.3-0.8-4.8-0.4c0,0-0.6-1.2-1.3-4.3c-0.7-3.1-2-7.3-2.8-7.7C97.1,31.4,96.2,30.2,97.5,29.8z"/>
	<path style="fill:#D6C598;" d="M55.5,4.2c-1.2,0-2.2,0.1-3.2,0.3c0,0-8-4.2-15.4-4.4l0,0c-1.8,0-3.6,0.2-5.2,0.8
		C23.6,3.9,0.2,18,0.1,29.7c0,4.9,8.5,6.6,18.7,6.8c0.5,0,0.9,0,1.4,0c-0.1,0-0.2,0-0.3,0c-1.5-0.1-3.1-0.3-4.6-0.6
		c-0.8-0.1-1.5-0.3-2.3-0.6c-0.7-0.2-1.5-0.5-2.2-0.8C10.1,34,9.4,33.6,8.9,33c-0.5-0.6-0.9-1.3-1.1-2.1c0-0.2,0-0.4,0-0.6
		c0-0.2,0-0.4,0-0.6c0-0.2,0-0.4,0.1-0.6c0-0.2,0.1-0.4,0.1-0.6c0.2-0.8,0.4-1.5,0.7-2.2c0.6-1.4,1.5-2.7,2.4-4
		c0.9-1.2,2-2.4,3.1-3.5c2.2-2.2,4.6-4.1,7.1-6c2.5-1.8,5.1-3.5,7.8-5.1c1.3-0.8,2.7-1.5,4.1-2.2c0.7-0.3,1.4-0.7,2.1-1
		c0.7-0.3,1.4-0.6,2.2-0.8c1.3-0.4,2.7-0.5,4-0.5c0.2,0,0.4,0,0.6,0c1.6,0.1,3.1,0.3,4.6,0.7c3,0.7,5.9,1.8,8.7,3.2l0.6-0.1l0.7-0.1
		l0.7,0c0.2,0,0.4,0,0.7,0c0.1,0,0.1,0,0.2,0c0.4,0,0.7,0,1.1,0.1c0.2,0,0.4,0,0.7,0.1c0.2,0,0.4,0,0.7,0.1c1.4,0.2,2.9,0.5,4.3,0.9
		c1.3-0.3,2.7-0.7,3.8-1C64.7,5.8,59.5,4.2,55.5,4.2z"/>
	<path style="fill:#CAB896;" d="M11.7,31.6C11.7,31.7,11.7,31.7,11.7,31.6c0,0.2,0.1,0.3,0.2,0.5c0.1,0.2,0.3,0.4,0.6,0.6
		c0.3,0.2,0.6,0.4,1,0.5c0.4,0.2,0.8,0.3,1.2,0.4c0.4,0.1,0.9,0.3,1.4,0.4c0.5,0.1,1,0.2,1.5,0.3c0.5,0.1,1.1,0.2,1.6,0.3
		c0.3,0,0.5,0.1,0.8,0.1c0.3,0,0.5,0.1,0.8,0.1c0.5,0.1,1.1,0.1,1.6,0.1c0.5,0,1,0,1.5,0c0.5,0,0.9,0,1.3,0.1c0.8,0.1,1.5,0.1,2,0.1
		c0.1,0,0.3,0,0.4,0c-1.8-0.5-3.7-1-5.5-1.5c-1-0.3-2-0.5-2.9-0.7c-0.5-0.1-1-0.2-1.5-0.3c-0.5-0.1-1-0.2-1.5-0.3
		c-1-0.2-2-0.3-3-0.4C12.7,31.9,12.2,31.8,11.7,31.6C11.7,31.7,11.7,31.6,11.7,31.6 M12.9,25.7C12.9,25.7,12.9,25.7,12.9,25.7
		L12.8,26l0,0l0,0c-0.1,0.2-0.2,0.4-0.3,0.6c-0.1,0.2-0.2,0.4-0.3,0.6c-0.2,0.4-0.4,0.8-0.6,1.2c0,0.1-0.1,0.2-0.1,0.3
		c0,0.1-0.1,0.2-0.1,0.3l-0.1,0.3c0,0.1-0.1,0.2-0.1,0.3c0,0.1-0.1,0.2-0.1,0.3c0,0.1-0.1,0.2-0.1,0.3c0,0.1,0,0.2,0,0.3l0,0.1
		c0.1,0.1,0.1,0.2,0.2,0.3c0,0,0.1,0.1,0.1,0.1l0.1,0.1c0.1,0,0.1,0,0.2,0.1l0.1,0c0,0,0.1,0,0.1,0c0.5,0.1,1,0.2,1.5,0.3
		c1,0.1,2,0.3,3,0.5c0.5,0.1,1,0.2,1.5,0.3c0.5,0.1,1,0.2,1.5,0.4c1,0.2,2,0.5,2.9,0.8c2,0.5,3.9,1.1,5.8,1.7c0.7,0,1.5,0.1,2.2,0.1
		c0,0,0.1,0,0.1,0c0,0,0,0,0,0c0.1,0,0.3,0,0.4,0c0.1,0,0.3,0,0.4,0c0.1,0,0.2,0,0.4,0l1.2,0l1.2,0c0.4,0,0.8,0,1.2,0
		c0.4,0,0.8,0,1.2-0.1c0.4,0,0.8-0.1,1.2-0.1c0.4,0,0.8-0.1,1.2-0.1c0.4-0.1,0.8-0.1,1.2-0.2l0.6-0.1l0.6-0.1
		c0.4-0.1,0.8-0.2,1.1-0.3c0.2,0,0.4-0.1,0.6-0.2c0.2-0.1,0.4-0.1,0.5-0.2c0.1,0,0.2-0.1,0.3-0.1c-4.9-0.4-11-1.1-12.9-2
		c-0.2,0-0.5,0-0.7,0l-0.6,0l-0.6,0c-0.2,0-0.4,0-0.6,0c-0.2,0-0.4,0-0.6,0c-0.2,0-0.4,0-0.6-0.1c-0.2,0-0.4-0.1-0.5-0.1
		c-0.3,0.1-0.6,0.1-1,0.2c-0.3,0-0.6,0.1-1,0c0,0,0,0,0,0c-0.3,0-0.6,0-1-0.1c-0.3-0.1-0.6-0.2-0.9-0.3c-1.2-0.5-2.4-1.1-3.5-1.7
		c-0.6-0.3-1.1-0.6-1.7-0.9c-0.6-0.3-1.1-0.7-1.7-1c-0.3-0.2-0.5-0.4-0.8-0.5c-0.3-0.2-0.5-0.4-0.8-0.6c-0.3-0.2-0.5-0.4-0.7-0.6
		C13.2,26,13.1,25.9,12.9,25.7 M16.1,21.9L16.1,21.9c-0.1,0-0.2,0.1-0.3,0.1c-0.1,0.1-0.2,0.1-0.3,0.2c-0.1,0.1-0.2,0.1-0.3,0.2
		c-0.1,0.1-0.2,0.1-0.3,0.2c-0.1,0.1-0.2,0.1-0.3,0.2c-0.1,0.1-0.2,0.2-0.2,0.2c-0.1,0.1-0.2,0.2-0.2,0.3L14,23.6l-0.2,0.3
		c-0.1,0.1-0.1,0.2-0.2,0.3c-0.1,0.1-0.1,0.2-0.2,0.3l-0.2,0.3c-0.1,0.1-0.1,0.2-0.1,0.3L13,25.4c0,0.1-0.1,0.2-0.1,0.2
		c0.2,0.2,0.3,0.3,0.5,0.5c0.2,0.2,0.5,0.4,0.8,0.6c0.3,0.2,0.5,0.4,0.8,0.5c0.3,0.2,0.5,0.3,0.8,0.5c0.6,0.3,1.1,0.6,1.7,1
		c0.6,0.3,1.1,0.6,1.7,0.9c1.1,0.6,2.3,1.2,3.4,1.8c0.3,0.1,0.6,0.3,0.9,0.3c0.3,0.1,0.6,0.1,1,0.1c0,0,0.1,0,0.1,0
		c0.6,0,1.2,0,1.8-0.2l0,0l0,0c0.2,0,0.4,0.1,0.5,0.1c0.2,0,0.4,0,0.5,0c0,0,0,0,0,0c0.1,0,0.3,0,0.4,0c0.1,0,0.1,0,0.2,0
		c0.2,0,0.4,0,0.6,0l1.1,0l0.4,0c0.1-0.3,0.4-1.6,1.2-3.5c-0.3,0-0.7-0.1-1-0.1c-0.5-0.1-0.9-0.1-1.4-0.2c-0.5-0.1-0.9-0.1-1.4-0.2
		c-0.5-0.1-0.9-0.2-1.4-0.3l0,0l0,0l-0.7-0.3c-0.2-0.1-0.4-0.2-0.7-0.3l-0.7-0.3l-0.7-0.3c-0.5-0.2-0.9-0.4-1.3-0.6
		c-0.4-0.2-0.9-0.4-1.3-0.6c-0.9-0.4-1.7-0.9-2.6-1.4c-0.2-0.1-0.4-0.3-0.6-0.4c-0.2-0.1-0.4-0.3-0.6-0.4c-0.2-0.2-0.4-0.3-0.5-0.5
		C16.3,22.2,16.2,22.1,16.1,21.9 M20.5,18.2L20.5,18.2c-0.3,0.1-0.5,0.2-0.7,0.3c-0.2,0.1-0.5,0.2-0.7,0.3c-0.4,0.2-0.9,0.5-1.3,0.8
		c-0.4,0.3-0.8,0.6-1,1c-0.1,0.1-0.1,0.2-0.2,0.3c-0.1,0.1-0.1,0.2-0.2,0.3c0,0.1-0.1,0.2-0.1,0.3c0,0.1-0.1,0.2-0.1,0.3l0,0.1l0,0
		c0.1,0.1,0.3,0.3,0.4,0.4c0.2,0.2,0.4,0.3,0.6,0.4c0.2,0.1,0.4,0.3,0.6,0.4c0.2,0.1,0.4,0.3,0.6,0.4l0.6,0.4
		c0.2,0.1,0.4,0.2,0.6,0.3c0.4,0.2,0.9,0.5,1.3,0.7c0.4,0.2,0.9,0.4,1.3,0.7l1.3,0.7l0.7,0.3l0.7,0.3c0.2,0.1,0.4,0.2,0.7,0.3
		c0.2,0.1,0.4,0.2,0.7,0.3c0.5,0.1,0.9,0.1,1.4,0.2c0.5,0.1,0.9,0.1,1.4,0.2c0.5,0.1,0.9,0.2,1.4,0.2c0.3,0.1,0.7,0.1,1,0.2
		c0.4-1,1-2.2,1.8-3.5c-0.3-0.1-0.6-0.2-0.9-0.3c-0.3-0.1-0.6-0.2-0.9-0.3l-0.5-0.2l-0.2-0.1l-0.2-0.1l-1.8-0.7
		c-0.6-0.2-1.2-0.5-1.8-0.8c-0.6-0.3-1.2-0.5-1.7-0.8c-0.6-0.3-1.1-0.6-1.7-0.9c-0.3-0.2-0.6-0.3-0.8-0.5c-0.3-0.2-0.5-0.4-0.8-0.5
		c-0.3-0.2-0.5-0.4-0.8-0.6C20.9,18.6,20.6,18.4,20.5,18.2 M25.2,14c-0.5,0.2-1,0.4-1.5,0.7c-0.1,0.1-0.2,0.1-0.3,0.2
		c-0.1,0.1-0.2,0.1-0.3,0.2c-0.1,0.1-0.2,0.2-0.3,0.2c-0.1,0.1-0.2,0.2-0.3,0.3l-0.3,0.3l-0.3,0.3c-0.1,0.1-0.2,0.2-0.3,0.3
		c-0.1,0.1-0.2,0.2-0.2,0.3L21.1,17c-0.1,0.1-0.1,0.2-0.2,0.3l-0.1,0.2l-0.1,0.2l-0.2,0.4l0,0c0.2,0.2,0.4,0.4,0.6,0.6
		c0.3,0.2,0.5,0.4,0.8,0.5c0.3,0.2,0.5,0.3,0.8,0.5c0.3,0.2,0.6,0.3,0.8,0.5l0.8,0.4l0.9,0.4l0.9,0.4l0.9,0.4l1.7,0.8
		c0.6,0.3,1.2,0.5,1.8,0.8c0.3,0.1,0.6,0.2,0.9,0.3c0.3,0.1,0.6,0.2,0.9,0.3c0.3,0.1,0.7,0.2,1,0.3c0.7-1.2,1.7-2.5,2.8-3.8
		l-1.2-1.3l-2.6-1.1c-0.9-0.4-1.7-0.7-2.6-1.1c-0.4-0.2-0.8-0.4-1.2-0.7c-0.2-0.1-0.4-0.2-0.6-0.4c-0.2-0.1-0.4-0.2-0.6-0.4
		c-0.2-0.1-0.4-0.3-0.6-0.4c-0.2-0.1-0.4-0.3-0.6-0.4c-0.1-0.1-0.2-0.1-0.3-0.2c-0.1-0.1-0.2-0.2-0.3-0.2
		C25.4,14.3,25.3,14.1,25.2,14 M45.2,12.8c0,0-0.1,0-0.1,0c0,0-0.1,0-0.2,0.1c-0.1,0-0.1,0.1-0.2,0.1c-0.1,0-0.1,0.1-0.2,0.1
		c-0.1,0-0.1,0.1-0.2,0.1c-0.1,0.1-0.3,0.1-0.4,0.2c-0.1,0.1-0.3,0.2-0.4,0.3c-0.1,0.1-0.3,0.2-0.4,0.4c-0.1,0.1-0.2,0.3-0.4,0.4
		c-0.1,0.1-0.2,0.3-0.4,0.4c-0.1,0.1-0.2,0.2-0.3,0.3c-0.1,0.1-0.2,0.2-0.3,0.3c1.2-0.8,2.4-1.6,3.8-2.3l-0.2-0.1l0,0l0,0
		C45.3,13,45.2,12.9,45.2,12.8 M31.2,10.3L31.2,10.3L31.2,10.3c-0.3,0.1-0.6,0.1-0.9,0.2c-0.3,0.1-0.6,0.2-0.9,0.3L29,11l-0.4,0.2
		c-0.1,0.1-0.3,0.1-0.4,0.2c-0.1,0.1-0.3,0.1-0.4,0.2c-0.1,0.1-0.3,0.1-0.4,0.2L27.1,12l-0.4,0.3c-0.1,0.1-0.2,0.2-0.3,0.3
		c-0.1,0.1-0.2,0.2-0.3,0.3l-0.3,0.3c-0.1,0.1-0.2,0.2-0.3,0.3l-0.3,0.4c0.1,0.2,0.3,0.3,0.5,0.5c0.2,0.2,0.4,0.3,0.6,0.4
		c0.2,0.1,0.4,0.3,0.6,0.4c0.2,0.1,0.4,0.2,0.6,0.4c0.8,0.5,1.6,0.9,2.5,1.3c0.8,0.4,1.7,0.9,2.5,1.3c0.4,0.2,0.9,0.4,1.3,0.6
		l0.7,0.3c0.2,0.1,0.4,0.2,0.7,0.3l0,0l0,0l1.2,1.2c1.3-1.5,2.8-2.9,4.6-4.3c-0.3-0.2-0.7-0.3-1-0.5c-0.4-0.2-0.9-0.4-1.3-0.6
		c-0.9-0.4-1.7-0.9-2.6-1.4c-0.4-0.2-0.8-0.5-1.3-0.7c-0.4-0.3-0.8-0.5-1.2-0.8c-0.2-0.1-0.4-0.3-0.6-0.4c-0.2-0.1-0.4-0.3-0.6-0.5
		c-0.2-0.2-0.4-0.3-0.5-0.5C31.5,10.6,31.4,10.5,31.2,10.3 M55.7,7.5l-0.4,0.1l0,0l0,0c0,0-0.1,0-0.1-0.1c-0.1,0-0.2,0-0.3,0.1
		c-0.1,0-0.3,0.1-0.4,0.2C54.3,7.9,54.2,8,54.1,8c-0.1,0.1-0.2,0.2-0.3,0.3c-0.1,0.1-0.2,0.2-0.3,0.3c-0.1,0.1-0.2,0.2-0.2,0.3
		l-0.2,0.4C53,9.4,53,9.5,52.9,9.6l-0.1,0.2L52.8,10l-0.1,0.4l0,0.1c1.7-0.5,3.6-0.8,5.5-1.1c-0.3-0.2-0.7-0.4-1-0.6
		c-0.3-0.2-0.6-0.4-0.8-0.6C56.2,8.1,56.1,8,56,7.8C55.9,7.7,55.8,7.7,55.7,7.5 M37.5,7c-0.1,0-0.2,0-0.4,0c-0.2,0-0.4,0-0.5,0.1
		c-0.2,0-0.3,0.1-0.5,0.1c-0.2,0-0.3,0.1-0.5,0.2c-0.2,0.1-0.3,0.1-0.5,0.2c-0.2,0.1-0.3,0.1-0.5,0.2c-0.2,0.1-0.3,0.2-0.5,0.3
		l-0.4,0.3c-0.2,0.1-0.3,0.2-0.4,0.3l-0.4,0.3l-0.4,0.4c-0.1,0.1-0.3,0.2-0.4,0.4c-0.2,0.3-0.5,0.5-0.7,0.8c0.1,0.1,0.3,0.3,0.4,0.4
		c0.2,0.2,0.4,0.3,0.6,0.5c0.2,0.1,0.4,0.3,0.6,0.4c0.2,0.1,0.4,0.3,0.6,0.4c0.8,0.5,1.7,1,2.5,1.5c0.4,0.2,0.9,0.5,1.3,0.7
		c0.4,0.2,0.9,0.4,1.3,0.7l1.3,0.7c0.4,0.2,0.8,0.4,1.1,0.6c0,0,0,0,0.1,0c0.1-0.1,0.2-0.4,0.5-0.7c0.1-0.1,0.2-0.2,0.3-0.3
		c0.1-0.1,0.2-0.2,0.3-0.3c0.3-0.2,0.5-0.5,0.8-0.7c0.2-0.1,0.3-0.2,0.4-0.3c0.1-0.1,0.3-0.2,0.4-0.4c0.1-0.1,0.3-0.2,0.4-0.3
		c0.1-0.1,0.3-0.2,0.4-0.2c0.1,0,0.1-0.1,0.2-0.1c0.1,0,0.1,0,0.2,0c0,0,0,0,0,0c-0.2-0.2-0.4-0.4-0.6-0.6c-0.3-0.3-0.7-0.6-1.1-0.9
		c-0.4-0.3-0.8-0.5-1.2-0.8C41.8,10,41.4,9.7,41,9.4c-0.4-0.3-0.8-0.6-1.1-0.9c-0.4-0.3-0.7-0.6-1-1c-0.1-0.1-0.2-0.3-0.3-0.4
		c-0.1-0.1-0.3-0.1-0.5-0.1C38,7,37.8,7,37.6,7C37.6,7,37.5,7,37.5,7 M58.2,7.3c-0.1,0-0.2,0-0.3,0c-0.2,0-0.4,0-0.7,0l-0.6,0
		L56,7.5l-0.2,0c0.2,0.2,0.4,0.4,0.6,0.6c0.3,0.2,0.6,0.4,0.8,0.5c0.4,0.2,0.8,0.5,1.3,0.7c0.5-0.1,0.9-0.1,1.4-0.2
		c0,0,2.1-0.4,4.5-0.9c-1.3-0.3-2.6-0.6-3.9-0.8c-0.2,0-0.4-0.1-0.6-0.1c-0.2,0-0.4,0-0.7-0.1C58.9,7.4,58.6,7.3,58.2,7.3 M37.1,6
		c-0.2,0-0.3,0-0.5,0c-0.2,0-0.4,0-0.6,0.1c-0.2,0-0.4,0.1-0.5,0.1c-0.1,0-0.2,0-0.3,0.1L35,6.4c-0.2,0.1-0.4,0.1-0.5,0.2l-0.5,0.2
		c-0.2,0.1-0.3,0.2-0.5,0.3l-0.2,0.1C33.1,7.3,33,7.3,33,7.4l-0.5,0.3c-0.2,0.1-0.3,0.2-0.4,0.4l-0.4,0.4l-0.8,0.8l0,0l0,0
		c-0.3,0-0.6,0.1-0.9,0.2c-0.1,0-0.3,0.1-0.4,0.1l-0.4,0.1l-0.4,0.2l-0.4,0.2c-0.1,0.1-0.3,0.1-0.4,0.2c-0.1,0.1-0.3,0.1-0.4,0.2
		c-0.1,0.1-0.3,0.2-0.4,0.2L26.7,11l-0.3,0.3c-0.1,0.1-0.2,0.2-0.3,0.3c-0.1,0.1-0.2,0.2-0.3,0.3l-0.3,0.3c-0.1,0.1-0.2,0.2-0.3,0.3
		l-0.3,0.4l0,0l0,0c-0.2,0.1-0.5,0.2-0.7,0.3c-0.1,0.1-0.2,0.1-0.4,0.2c-0.1,0.1-0.2,0.1-0.4,0.2c-0.1,0.1-0.2,0.1-0.3,0.2
		c-0.1,0.1-0.2,0.1-0.3,0.2c-0.1,0.1-0.2,0.2-0.3,0.2c-0.1,0.1-0.2,0.2-0.3,0.2l-0.3,0.3l-0.3,0.3c-0.1,0.1-0.2,0.2-0.3,0.3
		c-0.1,0.1-0.2,0.2-0.2,0.3L20.7,16c-0.1,0.1-0.1,0.2-0.2,0.3l-0.1,0.2l-0.1,0.2l-0.2,0.4l0,0.1l-0.1,0c-0.2,0.1-0.5,0.2-0.7,0.2
		c-0.2,0.1-0.5,0.2-0.7,0.3c-0.4,0.2-0.9,0.5-1.3,0.8c-0.4,0.3-0.8,0.6-1.1,1c-0.1,0.1-0.1,0.2-0.2,0.3c-0.1,0.1-0.1,0.2-0.2,0.3
		c0,0.1-0.1,0.2-0.1,0.3c0,0.1-0.1,0.2-0.1,0.3l0,0.1l-0.1,0c-0.1,0-0.2,0.1-0.3,0.1c-0.1,0.1-0.2,0.1-0.3,0.2
		c-0.1,0.1-0.2,0.1-0.3,0.2c-0.1,0.1-0.2,0.1-0.3,0.2c-0.1,0.1-0.2,0.1-0.3,0.2c-0.1,0.1-0.2,0.2-0.2,0.2c-0.1,0.1-0.2,0.2-0.2,0.3
		l-0.2,0.3l-0.2,0.3c-0.1,0.1-0.1,0.2-0.2,0.3c-0.1,0.1-0.1,0.2-0.2,0.3L13,23.7c-0.1,0.1-0.1,0.2-0.1,0.3l-0.1,0.3
		c0,0.1-0.1,0.2-0.1,0.3L12.5,25l0,0l0,0c-0.3,0.4-0.5,0.9-0.7,1.3c-0.2,0.4-0.4,0.9-0.6,1.4c-0.2,0.5-0.3,0.9-0.4,1.4
		c-0.1,0.5-0.1,1,0,1.4c0,0.1,0.1,0.1,0.1,0.2l0-0.1c0-0.1,0-0.2,0-0.3c0-0.1,0-0.2,0-0.3c0-0.1,0-0.2,0.1-0.3
		c0-0.2,0.1-0.4,0.2-0.7c0-0.1,0.1-0.2,0.1-0.3c0-0.1,0.1-0.2,0.1-0.3c0.2-0.4,0.4-0.8,0.6-1.2c0.2-0.4,0.4-0.8,0.6-1.2l0.1-0.3
		c0-0.1,0.1-0.2,0.1-0.3l0.1-0.3c0-0.1,0.1-0.2,0.1-0.3l0.2-0.3c0.1-0.1,0.1-0.2,0.2-0.3c0.1-0.1,0.1-0.2,0.2-0.3l0.2-0.3l0.2-0.3
		c0.1-0.1,0.2-0.2,0.2-0.3c0.1-0.1,0.2-0.2,0.3-0.3c0.1-0.1,0.2-0.2,0.3-0.2c0.1-0.1,0.2-0.2,0.3-0.2c0.1-0.1,0.2-0.1,0.3-0.2
		c0.1-0.1,0.2-0.1,0.3-0.2c0.1,0,0.2-0.1,0.3-0.1c0-0.1,0-0.2,0.1-0.3c0-0.1,0.1-0.2,0.1-0.4c0.1-0.1,0.1-0.2,0.2-0.3
		c0.1-0.1,0.1-0.2,0.2-0.3c0.3-0.4,0.7-0.8,1.1-1.1c0.4-0.3,0.9-0.6,1.3-0.8c0.2-0.1,0.5-0.2,0.7-0.3c0.2-0.1,0.4-0.2,0.7-0.2
		l0.1-0.3l0.1-0.2l0.1-0.2c0.1-0.1,0.1-0.2,0.2-0.4l0.2-0.3c0.1-0.1,0.2-0.2,0.3-0.3c0.1-0.1,0.2-0.2,0.3-0.3l0.3-0.3l0.3-0.3
		c0.1-0.1,0.2-0.2,0.3-0.2c0.1-0.1,0.2-0.2,0.3-0.2c0.1-0.1,0.2-0.2,0.3-0.2c0.1-0.1,0.2-0.1,0.4-0.2c0.5-0.3,1-0.5,1.5-0.7l0.3-0.4
		c0.1-0.1,0.2-0.2,0.3-0.4l0.3-0.3c0.1-0.1,0.2-0.2,0.3-0.3c0.1-0.1,0.2-0.2,0.3-0.3l0.4-0.3l0.4-0.3c0.1-0.1,0.3-0.2,0.4-0.2
		c0.1-0.1,0.3-0.2,0.4-0.2c0.1-0.1,0.3-0.1,0.4-0.2l0.4-0.2l0.4-0.2l0.4-0.2c0.1,0,0.3-0.1,0.4-0.1c0.3-0.1,0.6-0.1,0.9-0.2
		c0.2-0.2,0.5-0.5,0.7-0.7C32,9.3,32.1,9.1,32.2,9l0.4-0.4l0.4-0.3c0.1-0.1,0.3-0.2,0.4-0.3L34,7.8c0.2-0.1,0.3-0.2,0.5-0.2
		c0.2-0.1,0.3-0.2,0.5-0.2c0.2-0.1,0.3-0.1,0.5-0.2C35.7,7.1,35.8,7,36,7c0.2,0,0.4-0.1,0.5-0.1c0.2,0,0.4,0,0.5,0l0,0c0,0,0,0,0,0
		c0,0,0,0,0,0c0,0,0,0,0,0c0.1,0,0.3,0,0.4,0c0.2,0,0.4,0.1,0.5,0.1c0.1,0,0.3,0.1,0.4,0.1c0-0.1,0-0.1-0.1-0.2c0-0.1-0.1-0.2,0-0.4
		c0-0.1,0-0.1,0.1-0.2c0-0.1,0.1-0.1,0.1-0.1c-0.2-0.1-0.3-0.1-0.5-0.1c-0.1,0-0.2,0-0.3-0.1c-0.1,0-0.2,0-0.3,0l-0.3,0
		c0,0-0.1,0-0.1,0c0,0,0,0-0.1,0c0,0,0,0-0.1,0C37.2,6,37.2,6,37.1,6C37.1,6,37.1,6,37.1,6 M45.1,5.1c-0.3,0-0.6,0-0.9,0
		c-0.5,0-0.9,0-1.4,0.1l-0.4,0l-0.3,0c-0.2,0-0.5,0.1-0.7,0.1c-0.5,0.1-0.9,0.2-1.4,0.4c-0.4,0.2-0.9,0.4-1.3,0.6
		c-0.1,0-0.1,0.1-0.1,0.1c0,0-0.1,0.1-0.1,0.1c0,0.1,0,0.2,0,0.3c0.1,0.2,0.2,0.4,0.3,0.6c0.3,0.4,0.7,0.7,1,1
		c0.4,0.3,0.7,0.6,1.1,0.8c0.4,0.3,0.8,0.5,1.2,0.8c0.4,0.2,0.8,0.5,1.2,0.8c0.4,0.3,0.8,0.6,1.1,0.9c0.3,0.3,0.7,0.7,0.9,1.1
		l0.3,0.2c1.9-1,4.1-1.8,6.5-2.5c0-0.1,0-0.1,0.1-0.2l0.1-0.4l0.1-0.2l0.1-0.2c0.1-0.1,0.1-0.3,0.2-0.4l0.2-0.4
		c0.1-0.1,0.2-0.2,0.3-0.3c0.1-0.1,0.2-0.2,0.3-0.3C53.8,8.1,53.9,8,54,7.9c0.1-0.1,0.2-0.2,0.4-0.2c0.1-0.1,0.3-0.1,0.4-0.2
		c0.1,0,0.2,0,0.3-0.1c-1.3-0.7-2.7-1.2-4.1-1.7c0,0,0,0-0.1,0c-0.4-0.1-0.7-0.1-1.1-0.2c-0.5-0.1-0.9-0.1-1.4-0.2
		c-0.5-0.1-0.9-0.1-1.4-0.1c-0.5,0-0.9-0.1-1.4-0.1C45.5,5.1,45.3,5.1,45.1,5.1 M41.3,3.7c-1.3,0-2.6,0.1-3.9,0.4
		c-0.7,0.2-1.5,0.5-2.2,0.8c-0.7,0.3-1.4,0.6-2.1,1c-1.4,0.7-2.8,1.4-4.1,2.2c-2.7,1.5-5.3,3.2-7.8,5c-2.5,1.8-4.9,3.8-7.1,6
		c-1.1,1.1-2.1,2.2-3,3.5c-0.9,1.2-1.7,2.5-2.4,3.9c-0.3,0.7-0.5,1.4-0.7,2.2c0,0.2-0.1,0.4-0.1,0.6c0,0.2,0,0.4-0.1,0.6
		c0,0.2,0,0.4,0,0.6c0,0.2,0,0.4,0,0.6c0.1,0.7,0.5,1.4,1,2c0.5,0.5,1.2,1,1.9,1.3c0.7,0.3,1.4,0.6,2.2,0.8c0.7,0.2,1.5,0.4,2.2,0.5
		c1.5,0.3,3.1,0.5,4.6,0.6c1.5,0.1,3,0.2,4.6,0.2c8.7-0.2,17.8-1.3,23.5-2.1c-1.1-0.1-2.6-0.2-4.2-0.3c0,0,0,0-0.1,0
		c-0.2,0.1-0.4,0.2-0.5,0.2c-0.2,0.1-0.4,0.1-0.6,0.2c-0.2,0.1-0.4,0.1-0.6,0.2c-0.4,0.1-0.8,0.2-1.1,0.3l-0.6,0.1L39.7,35
		c-0.4,0.1-0.8,0.1-1.2,0.2c-0.4,0-0.8,0.1-1.2,0.1c-0.4,0-0.8,0.1-1.2,0.1c-0.4,0-0.8,0-1.2,0.1c-0.4,0-0.8,0-1.2,0l-1.2,0l-1.2,0
		c-0.2,0-0.4,0-0.6,0c0,0-0.1,0-0.1,0c0,0-0.1,0-0.1,0c-0.1,0-0.2,0-0.3,0c-0.1,0-0.2,0-0.3,0c-0.7,0-1.3,0-2-0.1l0,0l0,0
		c0,0-0.1,0-0.1,0c-0.1,0-0.3,0-0.6,0c-0.2,0-0.5,0-0.9,0c-0.3,0-0.5,0-0.8,0c-0.1,0-0.2,0-0.3,0c-0.4,0-0.9,0-1.3-0.1
		c-0.5,0-1-0.1-1.5-0.1c-0.5-0.1-1-0.1-1.6-0.2c-0.5,0-1.1-0.1-1.6-0.1c-0.5,0-1.1-0.1-1.6-0.2c-0.5-0.1-1.1-0.2-1.6-0.3
		c-0.5-0.1-1-0.2-1.4-0.4c-0.5-0.1-0.9-0.3-1.3-0.5c-0.4-0.2-0.7-0.4-1-0.6c-0.3-0.2-0.5-0.4-0.6-0.7c-0.1-0.2-0.1-0.4-0.2-0.5
		c0,0,0,0,0-0.1c0,0,0,0,0,0l-0.1,0c-0.1,0-0.1,0-0.2-0.1l-0.2-0.1c-0.1,0-0.1-0.1-0.2-0.1c-0.2-0.2-0.4-0.4-0.5-0.7
		c-0.2-0.5-0.1-1.1-0.1-1.6c0.1-0.5,0.2-1,0.4-1.5c0.2-0.5,0.4-0.9,0.6-1.4c0.2-0.4,0.5-0.9,0.7-1.3l0.1-0.3c0-0.1,0.1-0.2,0.1-0.3
		l0.1-0.3c0-0.1,0.1-0.2,0.1-0.3l0.2-0.3c0.1-0.1,0.1-0.2,0.2-0.3c0.1-0.1,0.1-0.2,0.2-0.3l0.2-0.3l0.2-0.3c0.1-0.1,0.2-0.2,0.2-0.3
		c0.1-0.1,0.2-0.2,0.3-0.3c0.1-0.1,0.2-0.2,0.3-0.2c0.1-0.1,0.2-0.2,0.3-0.2c0.1-0.1,0.2-0.1,0.3-0.2c0.1-0.1,0.2-0.1,0.3-0.2
		c0.1,0,0.2-0.1,0.3-0.1c0-0.1,0-0.2,0.1-0.3c0-0.1,0.1-0.2,0.1-0.4c0.1-0.1,0.1-0.2,0.2-0.3c0.1-0.1,0.1-0.2,0.2-0.3
		c0.3-0.4,0.7-0.8,1.1-1.1c0.4-0.3,0.9-0.6,1.3-0.8c0.2-0.1,0.5-0.2,0.7-0.3c0.2-0.1,0.4-0.2,0.7-0.2l0.1-0.3l0.1-0.2l0.1-0.2
		c0.1-0.1,0.1-0.2,0.2-0.4l0.2-0.3c0.1-0.1,0.2-0.2,0.3-0.3c0.1-0.1,0.2-0.2,0.3-0.3l0.3-0.3l0.3-0.3c0.1-0.1,0.2-0.2,0.3-0.3
		c0.1-0.1,0.2-0.2,0.3-0.2c0.1-0.1,0.2-0.2,0.3-0.2c0.1-0.1,0.2-0.1,0.4-0.2c0.1-0.1,0.2-0.1,0.4-0.2c0.1-0.1,0.2-0.1,0.4-0.2
		c0.2-0.1,0.5-0.2,0.7-0.3l0.3-0.3c0.1-0.1,0.2-0.2,0.3-0.4l0.3-0.3c0.1-0.1,0.2-0.2,0.3-0.3c0.1-0.1,0.2-0.2,0.3-0.3l0.4-0.3
		l0.4-0.3c0.1-0.1,0.3-0.2,0.4-0.2c0.1-0.1,0.3-0.2,0.4-0.2C27.9,10,28,10,28.2,9.9l0.4-0.2L29,9.6l0.4-0.1c0.1,0,0.3-0.1,0.4-0.1
		c0.3-0.1,0.6-0.1,0.9-0.2l0.8-0.8L32,8c0.1-0.1,0.3-0.3,0.4-0.4l0.5-0.3C33,7.2,33,7.2,33.1,7.1L33.4,7c0.2-0.1,0.3-0.2,0.5-0.3
		l0.5-0.2c0.2-0.1,0.4-0.1,0.5-0.2l0.3-0.1c0.1,0,0.2,0,0.3-0.1C35.7,6.1,35.8,6,36,6c0.2,0,0.4-0.1,0.6-0.1c0.1,0,0.3,0,0.4,0
		c0,0,0.1,0,0.1,0c0.1,0,0.2,0,0.3,0l0.3,0c0.1,0,0.2,0,0.3,0c0.1,0,0.2,0,0.3,0.1c0.2,0,0.3,0.1,0.5,0.2C39.2,6,39.6,5.8,40,5.6
		c0.4-0.2,0.9-0.3,1.4-0.4c0.5-0.1,0.9-0.2,1.4-0.2c0.5,0,1-0.1,1.4-0.1c0.2,0,0.4,0,0.6,0c0.3,0,0.6,0,0.8,0c0.5,0,1,0.1,1.4,0.1
		C47.6,5,48,5.1,48.5,5.2c0.5,0.1,0.9,0.2,1.4,0.3c0.2,0,0.4,0.1,0.6,0.1c-1.3-0.5-2.6-0.9-3.9-1.2c-1.5-0.4-3-0.6-4.6-0.7
		C41.8,3.7,41.6,3.7,41.3,3.7"/>
	<path style="fill:#947B67;" d="M41.4,3.4c0.2,0,0.4,0,0.6,0c1.6,0.1,3.1,0.3,4.6,0.7c3,0.7,5.9,1.8,8.7,3.2l0.6-0.1l0.7-0.1l0.7,0
		c0.2,0,0.4,0,0.7,0c0.1,0,0.1,0,0.2,0c0.4,0,0.7,0,1.1,0.1c0.2,0,0.4,0,0.7,0.1c0.2,0,0.4,0,0.7,0.1c1.4,0.2,2.9,0.5,4.3,0.9
		c-0.1,0-0.3,0.1-0.4,0.1c-1.3-0.3-2.6-0.6-3.9-0.8c-0.2,0-0.4-0.1-0.6-0.1c-0.2,0-0.4,0-0.7-0.1c-0.3,0-0.7,0-1,0
		c-0.1,0-0.2,0-0.3,0c-0.2,0-0.4,0-0.7,0l-0.6,0L56,7.5l-0.2,0c0,0-0.1-0.1-0.1-0.1l0,0c0,0,0,0.1,0.1,0.1l-0.4,0.1l0,0l0,0
		c0,0-0.1,0-0.1-0.1c0,0,0,0,0.1,0l0,0c0,0-0.1,0-0.1,0c-1.3-0.7-2.7-1.2-4.1-1.7c0,0,0,0-0.1,0c0.1,0,0.2,0,0.3,0.1l0,0
		c-0.3-0.1-0.5-0.1-0.8-0.2c-1.3-0.5-2.6-0.9-3.9-1.2c-1.5-0.4-3-0.6-4.6-0.7c-0.2,0-0.5,0-0.7,0c-1.3,0-2.6,0.1-3.9,0.4
		c-0.7,0.2-1.5,0.5-2.2,0.8c-0.7,0.3-1.4,0.6-2.1,1c-1.4,0.7-2.8,1.4-4.1,2.2c-2.7,1.5-5.3,3.2-7.8,5c-2.5,1.8-4.9,3.8-7.1,6
		c-1.1,1.1-2.1,2.2-3,3.5c-0.9,1.2-1.7,2.5-2.4,3.9c-0.3,0.7-0.5,1.4-0.7,2.2c0,0.2-0.1,0.4-0.1,0.6c0,0.2,0,0.4-0.1,0.6
		c0,0.2,0,0.4,0,0.6c0,0.2,0,0.4,0,0.6c0.1,0.7,0.5,1.4,1,2c0.5,0.5,1.2,1,1.9,1.3c0.7,0.3,1.4,0.6,2.2,0.8c0.7,0.2,1.5,0.4,2.2,0.5
		c1.5,0.3,3.1,0.5,4.6,0.6c1.5,0.1,3,0.2,4.6,0.2c-1.4,0-2.9,0.1-4.3,0c-0.1,0-0.2,0-0.3,0c-1.5-0.1-3.1-0.3-4.6-0.6
		c-0.8-0.1-1.5-0.3-2.3-0.6c-0.7-0.2-1.5-0.5-2.2-0.8C10.1,34,9.4,33.6,8.9,33c-0.5-0.6-0.9-1.3-1.1-2.1c0-0.2,0-0.4,0-0.6
		c0-0.2,0-0.4,0-0.6c0-0.2,0-0.4,0.1-0.6c0-0.2,0.1-0.4,0.1-0.6c0.2-0.8,0.4-1.5,0.7-2.2c0.6-1.4,1.5-2.7,2.4-4
		c0.9-1.2,2-2.4,3.1-3.5c2.2-2.2,4.6-4.1,7.1-6c2.5-1.8,5.1-3.5,7.8-5.1c1.3-0.8,2.7-1.5,4.1-2.2c0.7-0.3,1.4-0.7,2.1-1
		c0.7-0.3,1.4-0.6,2.2-0.8C38.7,3.5,40.1,3.4,41.4,3.4"/>
	<path style="fill:#947B67;" d="M34.9,19.4L34.9,19.4 M25.2,13.9L25.2,13.9L25.2,13.9L25.2,13.9L25.2,13.9c0.1,0.2,0.2,0.4,0.4,0.5
		c0.1,0.1,0.2,0.2,0.3,0.2c0.1,0.1,0.2,0.2,0.3,0.2c0.2,0.1,0.4,0.3,0.6,0.4c0.2,0.1,0.4,0.3,0.6,0.4c0.2,0.1,0.4,0.2,0.6,0.4
		c0.2,0.1,0.4,0.2,0.6,0.4c0.4,0.2,0.8,0.4,1.2,0.7c0.8,0.4,1.7,0.8,2.6,1.1l2.6,1.1l1.2,1.3c0-0.1,0.1-0.1,0.1-0.2L35,19.3l0,0l0,0
		c-0.2-0.1-0.4-0.2-0.7-0.3l-0.7-0.3c-0.4-0.2-0.9-0.4-1.3-0.6c-0.8-0.4-1.7-0.8-2.5-1.3c-0.8-0.4-1.7-0.9-2.5-1.3
		c-0.2-0.1-0.4-0.2-0.6-0.4c-0.2-0.1-0.4-0.3-0.6-0.4c-0.2-0.1-0.4-0.3-0.6-0.4C25.5,14.3,25.3,14.1,25.2,13.9"/>
	<path style="fill:#947B67;" d="M55.2,7.5c0,0-0.1,0-0.1,0c-0.1,0-0.2,0-0.3,0.1c-0.1,0-0.3,0.1-0.4,0.2c-0.1,0.1-0.2,0.1-0.4,0.2
		c-0.1,0.1-0.2,0.2-0.3,0.3c-0.1,0.1-0.2,0.2-0.3,0.3c-0.1,0.1-0.2,0.2-0.3,0.3l-0.2,0.4c-0.1,0.1-0.1,0.2-0.2,0.4l-0.1,0.2L52.6,10
		l-0.1,0.4c0,0.1,0,0.1-0.1,0.2c0.1,0,0.2,0,0.2-0.1l0-0.1l0.1-0.4l0.1-0.2l0.1-0.2C53,9.5,53,9.4,53.1,9.3l0.2-0.4
		c0.1-0.1,0.2-0.2,0.2-0.3c0.1-0.1,0.2-0.2,0.3-0.3C53.9,8.2,54,8.1,54.1,8c0.1-0.1,0.2-0.2,0.3-0.2c0.1-0.1,0.2-0.1,0.4-0.2
		C54.9,7.6,55,7.6,55.2,7.5C55.1,7.5,55.2,7.5,55.2,7.5L55.2,7.5 M45.5,12.8L45.5,12.8 M44.8,4.8c-0.2,0-0.4,0-0.6,0
		c-0.5,0-1,0-1.4,0.1c-0.5,0-0.9,0.1-1.4,0.2c-0.5,0.1-0.9,0.2-1.4,0.4c-0.4,0.2-0.8,0.4-1.2,0.7c0,0,0,0,0.1,0l0,0c0,0,0,0-0.1,0
		c0,0-0.1,0.1-0.1,0.1c0,0.1-0.1,0.1-0.1,0.2c0,0.1,0,0.3,0,0.4c0,0.1,0,0.1,0.1,0.2c0,0,0.1,0,0.1,0l0,0c0,0,0,0-0.1,0
		c0.1,0.1,0.2,0.3,0.3,0.4c0.3,0.4,0.7,0.7,1,1c0.4,0.3,0.7,0.6,1.1,0.9c0.4,0.3,0.8,0.6,1.2,0.8c0.4,0.3,0.8,0.5,1.2,0.8
		c0.4,0.3,0.7,0.6,1.1,0.9c0.2,0.2,0.4,0.4,0.6,0.6c0.1,0,0.1,0,0.2,0c0.1,0,0.1,0,0.1,0.1c0.1,0.1,0.1,0.1,0.1,0.2c0,0,0,0.1,0,0.1
		l0,0c0,0,0,0,0-0.1c0,0-0.1-0.1-0.1-0.1c0,0-0.1,0-0.1,0c0,0,0,0,0,0c0.1,0.1,0.1,0.2,0.2,0.2l0,0l0,0l0.2,0.1
		c0.1-0.1,0.2-0.1,0.3-0.2l-0.3-0.2c-0.3-0.4-0.6-0.7-0.9-1.1c-0.4-0.3-0.7-0.6-1.1-0.9c-0.4-0.3-0.8-0.5-1.2-0.8
		c-0.4-0.3-0.8-0.5-1.2-0.8c-0.4-0.3-0.8-0.6-1.1-0.8c-0.4-0.3-0.7-0.6-1-1c-0.1-0.2-0.3-0.4-0.3-0.6c0-0.1,0-0.2,0-0.3
		c0-0.1,0-0.1,0.1-0.1c0,0,0.1-0.1,0.1-0.1c0.4-0.3,0.8-0.4,1.3-0.6c0.4-0.2,0.9-0.3,1.4-0.4c0.2,0,0.5-0.1,0.7-0.1l0.3,0l0.4,0
		c0.5,0,0.9-0.1,1.4-0.1c0.3,0,0.6,0,0.9,0c0.2,0,0.3,0,0.5,0c0.5,0,0.9,0.1,1.4,0.1c0.5,0,0.9,0.1,1.4,0.1c0.5,0.1,0.9,0.1,1.4,0.2
		c0.4,0.1,0.7,0.1,1.1,0.2c0.1,0,0.2,0,0.3,0.1l0,0c-0.3-0.1-0.5-0.1-0.8-0.2c-0.2,0-0.4-0.1-0.6-0.1c-0.5-0.1-0.9-0.2-1.4-0.3
		C48,5.1,47.6,5,47.1,5c-0.5,0-0.9-0.1-1.4-0.1C45.4,4.9,45.1,4.9,44.8,4.8"/>
	<path style="fill:#947B67;" d="M37.2,6.8c0.1,0,0.3,0,0.4,0c0.2,0,0.4,0.1,0.5,0.1c0.1,0,0.3,0.1,0.4,0.1c0,0,0.1,0,0.1,0l0,0
		c0,0,0,0-0.1,0c-0.1-0.1-0.3-0.1-0.5-0.1C38,7,37.8,7,37.6,7c-0.1,0-0.1,0-0.2,0c-0.1,0-0.2,0-0.4,0c-0.2,0-0.4,0-0.5,0.1
		c-0.2,0-0.3,0.1-0.5,0.1c-0.2,0-0.3,0.1-0.5,0.2c-0.2,0.1-0.3,0.1-0.5,0.2c-0.2,0.1-0.3,0.1-0.5,0.2c-0.2,0.1-0.3,0.2-0.5,0.3
		l-0.4,0.3c-0.2,0.1-0.3,0.2-0.4,0.3l-0.4,0.3l-0.4,0.4c-0.1,0.1-0.3,0.2-0.4,0.4c-0.2,0.3-0.5,0.5-0.7,0.8c0,0-0.1-0.1-0.1-0.1l0,0
		c0,0,0.1,0.1,0.1,0.1l0,0l0,0c-0.3,0-0.6,0.1-0.9,0.2c-0.3,0.1-0.6,0.2-0.9,0.3L29,11l-0.4,0.2c-0.1,0.1-0.3,0.1-0.4,0.2
		c-0.1,0.1-0.3,0.1-0.4,0.2c-0.1,0.1-0.3,0.1-0.4,0.2L27.1,12l-0.4,0.3c-0.1,0.1-0.2,0.2-0.3,0.3c-0.1,0.1-0.2,0.2-0.3,0.3l-0.3,0.3
		c-0.1,0.1-0.2,0.2-0.3,0.3l-0.3,0.4l0,0l0,0l0,0l0,0c-0.5,0.2-1,0.4-1.5,0.7c-0.1,0.1-0.2,0.1-0.3,0.2c-0.1,0.1-0.2,0.1-0.3,0.2
		c-0.1,0.1-0.2,0.2-0.3,0.2c-0.1,0.1-0.2,0.2-0.3,0.3l-0.3,0.3l-0.3,0.3c-0.1,0.1-0.2,0.2-0.3,0.3c-0.1,0.1-0.2,0.2-0.2,0.3L21.1,17
		c-0.1,0.1-0.1,0.2-0.2,0.3l-0.1,0.2l-0.1,0.2l-0.2,0.4l0,0c0,0-0.1-0.1-0.1-0.1l0,0c0,0,0,0.1,0.1,0.1l0,0
		c-0.2,0.1-0.5,0.2-0.7,0.3c-0.2,0.1-0.5,0.2-0.7,0.3c-0.4,0.2-0.9,0.5-1.3,0.8c-0.4,0.3-0.8,0.6-1,1c-0.1,0.1-0.1,0.2-0.2,0.3
		c-0.1,0.1-0.1,0.2-0.2,0.3c0,0.1-0.1,0.2-0.1,0.3c0,0.1-0.1,0.2-0.1,0.3l0,0.1l0,0c0,0-0.1-0.1-0.1-0.1l0,0c0,0,0.1,0.1,0.1,0.1
		l0,0c-0.1,0-0.2,0.1-0.3,0.1c-0.1,0.1-0.2,0.1-0.3,0.2c-0.1,0.1-0.2,0.1-0.3,0.2c-0.1,0.1-0.2,0.1-0.3,0.2
		c-0.1,0.1-0.2,0.1-0.3,0.2c-0.1,0.1-0.2,0.2-0.2,0.2c-0.1,0.1-0.2,0.2-0.2,0.3L14,23.6l-0.2,0.3c-0.1,0.1-0.1,0.2-0.2,0.3
		c-0.1,0.1-0.1,0.2-0.2,0.3l-0.2,0.3c-0.1,0.1-0.1,0.2-0.1,0.3L13,25.4c0,0.1-0.1,0.2-0.1,0.2c-0.1-0.1-0.1-0.1-0.2-0.2l0,0
		c0.1,0.1,0.1,0.2,0.2,0.2c0,0,0,0,0,0L12.8,26l0,0l0,0c-0.1,0.2-0.2,0.4-0.3,0.6c-0.1,0.2-0.2,0.4-0.3,0.6
		c-0.2,0.4-0.4,0.8-0.6,1.2c0,0.1-0.1,0.2-0.1,0.3c0,0.1-0.1,0.2-0.1,0.3l-0.1,0.3c0,0.1-0.1,0.2-0.1,0.3c0,0.1-0.1,0.2-0.1,0.3
		c0,0.1-0.1,0.2-0.1,0.3c0,0.1,0,0.2,0,0.3l0,0.1c0,0,0,0,0-0.1l0-0.1c0-0.1,0-0.2,0-0.3c0-0.1,0-0.2,0-0.3c0-0.1,0-0.2,0.1-0.3
		c0-0.2,0.1-0.4,0.2-0.7c0-0.1,0.1-0.2,0.1-0.3c0-0.1,0.1-0.2,0.1-0.3c0.2-0.4,0.4-0.8,0.6-1.2c0.2-0.4,0.4-0.8,0.6-1.2l0.1-0.3
		c0-0.1,0.1-0.2,0.1-0.3l0.1-0.3c0-0.1,0.1-0.2,0.1-0.3l0.2-0.3c0.1-0.1,0.1-0.2,0.2-0.3c0.1-0.1,0.1-0.2,0.2-0.3l0.2-0.3l0.2-0.3
		c0.1-0.1,0.2-0.2,0.2-0.3c0.1-0.1,0.2-0.2,0.3-0.3c0.1-0.1,0.2-0.2,0.3-0.2c0.1-0.1,0.2-0.2,0.3-0.2c0.1-0.1,0.2-0.1,0.3-0.2
		c0.1-0.1,0.2-0.1,0.3-0.2c0.1,0,0.2-0.1,0.3-0.1c0-0.1,0-0.2,0.1-0.3c0-0.1,0.1-0.2,0.1-0.4c0.1-0.1,0.1-0.2,0.2-0.3
		c0.1-0.1,0.1-0.2,0.2-0.3c0.3-0.4,0.7-0.8,1.1-1.1c0.4-0.3,0.9-0.6,1.3-0.8c0.2-0.1,0.5-0.2,0.7-0.3c0.2-0.1,0.4-0.2,0.7-0.2
		l0.1-0.3l0.1-0.2l0.1-0.2c0.1-0.1,0.1-0.2,0.2-0.4l0.2-0.3c0.1-0.1,0.2-0.2,0.3-0.3c0.1-0.1,0.2-0.2,0.3-0.3l0.3-0.3l0.3-0.3
		c0.1-0.1,0.2-0.2,0.3-0.2c0.1-0.1,0.2-0.2,0.3-0.2c0.1-0.1,0.2-0.2,0.3-0.2c0.1-0.1,0.2-0.1,0.4-0.2c0.5-0.3,1-0.5,1.5-0.7l0.3-0.4
		c0.1-0.1,0.2-0.2,0.3-0.4l0.3-0.3c0.1-0.1,0.2-0.2,0.3-0.3c0.1-0.1,0.2-0.2,0.3-0.3l0.4-0.3l0.4-0.3c0.1-0.1,0.3-0.2,0.4-0.2
		c0.1-0.1,0.3-0.2,0.4-0.2c0.1-0.1,0.3-0.1,0.4-0.2l0.4-0.2l0.4-0.2l0.4-0.2c0.1,0,0.3-0.1,0.4-0.1c0.3-0.1,0.6-0.1,0.9-0.2
		c0.2-0.2,0.5-0.5,0.7-0.7C32,9.3,32.1,9.1,32.2,9l0.4-0.4l0.4-0.3c0.1-0.1,0.3-0.2,0.4-0.3L34,7.8c0.2-0.1,0.3-0.2,0.5-0.2
		c0.2-0.1,0.3-0.2,0.5-0.2c0.2-0.1,0.3-0.1,0.5-0.2C35.7,7.1,35.8,7,36,7c0.2,0,0.4-0.1,0.5-0.1c0.2,0,0.4,0,0.5,0l0,0
		C37.1,6.8,37.1,6.8,37.2,6.8C37.1,6.8,37.2,6.8,37.2,6.8C37.2,6.8,37.2,6.8,37.2,6.8"/>
	<path style="fill:#947B67;" d="M45,12.6C45,12.6,45,12.6,45,12.6c0.1,0,0.1,0,0.2,0c0.1,0,0.1,0,0.1,0.1c0.1,0.1,0.1,0.1,0.1,0.2
		c0,0,0,0.1,0,0.1l0,0c0,0,0,0,0-0.1c0,0-0.1-0.1-0.1-0.1c0,0-0.1,0-0.1,0c0,0,0,0,0,0c0,0-0.1,0-0.1,0c0,0-0.1,0-0.2,0.1
		c-0.1,0-0.1,0.1-0.2,0.1c-0.1,0-0.1,0.1-0.2,0.1c-0.1,0-0.1,0.1-0.2,0.1c-0.1,0.1-0.3,0.1-0.4,0.2c-0.1,0.1-0.3,0.2-0.4,0.3
		c-0.1,0.1-0.3,0.2-0.4,0.4c-0.1,0.1-0.2,0.3-0.4,0.4c-0.1,0.1-0.2,0.3-0.4,0.4c-0.1,0.1-0.2,0.2-0.3,0.3c-0.1,0.1-0.2,0.2-0.3,0.3
		c-0.2,0.2-0.5,0.3-0.7,0.5c0.1-0.1,0.2-0.4,0.5-0.7c0.1-0.1,0.2-0.2,0.3-0.3c0.1-0.1,0.2-0.2,0.3-0.3c0.3-0.2,0.5-0.5,0.8-0.7
		c0.2-0.1,0.3-0.2,0.4-0.3c0.1-0.1,0.3-0.2,0.4-0.4c0.1-0.1,0.3-0.2,0.4-0.3c0.1-0.1,0.3-0.2,0.4-0.2c0.1,0,0.1-0.1,0.2-0.1
		C44.9,12.6,45,12.6,45,12.6"/>
	<path style="fill:#947B67;" d="M55.7,7.4c0,0,0,0.1,0.1,0.1c0.2,0.2,0.4,0.4,0.6,0.6c0.3,0.2,0.6,0.4,0.8,0.5
		c0.4,0.2,0.8,0.5,1.3,0.7c-0.1,0-0.2,0-0.3,0c-0.3-0.2-0.7-0.4-1-0.6c-0.3-0.2-0.6-0.4-0.8-0.6C56.2,8.1,56.1,8,56,7.8
		c-0.1-0.1-0.2-0.2-0.2-0.3C55.7,7.5,55.7,7.5,55.7,7.4L55.7,7.4"/>
	<path style="fill:#947B67;" d="M31.2,10.2c0,0,0.1,0.1,0.1,0.1c0.1,0.1,0.3,0.3,0.4,0.4c0.2,0.2,0.4,0.3,0.6,0.5
		c0.2,0.1,0.4,0.3,0.6,0.4c0.2,0.1,0.4,0.3,0.6,0.4c0.8,0.5,1.7,1,2.5,1.5c0.4,0.2,0.9,0.5,1.3,0.7c0.4,0.2,0.9,0.4,1.3,0.7l1.3,0.7
		c0.4,0.2,0.8,0.4,1.1,0.6c-0.1,0.1-0.2,0.1-0.2,0.2c-0.3-0.2-0.7-0.3-1-0.5c-0.4-0.2-0.9-0.4-1.3-0.6c-0.9-0.4-1.7-0.9-2.6-1.4
		c-0.4-0.2-0.8-0.5-1.3-0.7c-0.4-0.3-0.8-0.5-1.2-0.8c-0.2-0.1-0.4-0.3-0.6-0.4c-0.2-0.1-0.4-0.3-0.6-0.5c-0.2-0.2-0.4-0.3-0.5-0.5
		c-0.1-0.1-0.3-0.3-0.4-0.4C31.2,10.3,31.2,10.3,31.2,10.2L31.2,10.2"/>
	<path style="fill:#947B67;" d="M20.4,18C20.5,18.1,20.5,18.1,20.4,18c0.3,0.3,0.5,0.5,0.7,0.6c0.3,0.2,0.5,0.4,0.8,0.5
		c0.3,0.2,0.5,0.3,0.8,0.5c0.3,0.2,0.6,0.3,0.8,0.5l0.8,0.4l0.9,0.4l0.9,0.4l0.9,0.4l1.7,0.8c0.6,0.3,1.2,0.5,1.8,0.8
		c0.3,0.1,0.6,0.2,0.9,0.3c0.3,0.1,0.6,0.2,0.9,0.3c0.3,0.1,0.7,0.2,1,0.3c0,0.1-0.1,0.1-0.1,0.2c-0.3-0.1-0.6-0.2-0.9-0.3
		c-0.3-0.1-0.6-0.2-0.9-0.3l-0.5-0.2l-0.2-0.1l-0.2-0.1l-1.8-0.7c-0.6-0.2-1.2-0.5-1.8-0.8c-0.6-0.3-1.2-0.5-1.7-0.8
		c-0.6-0.3-1.1-0.6-1.7-0.9c-0.3-0.2-0.6-0.3-0.8-0.5c-0.3-0.2-0.5-0.4-0.8-0.5c-0.3-0.2-0.5-0.4-0.8-0.6c-0.2-0.2-0.4-0.4-0.6-0.6
		C20.5,18.1,20.4,18.1,20.4,18L20.4,18"/>
	<path style="fill:#947B67;" d="M16,21.8c0,0,0.1,0.1,0.1,0.1c0.1,0.1,0.3,0.3,0.4,0.4c0.2,0.2,0.4,0.3,0.6,0.4
		c0.2,0.1,0.4,0.3,0.6,0.4c0.2,0.1,0.4,0.3,0.6,0.4l0.6,0.4c0.2,0.1,0.4,0.2,0.6,0.3c0.4,0.2,0.9,0.5,1.3,0.7
		c0.4,0.2,0.9,0.4,1.3,0.7l1.3,0.7l0.7,0.3l0.7,0.3c0.2,0.1,0.4,0.2,0.7,0.3c0.2,0.1,0.4,0.2,0.7,0.3c0.5,0.1,0.9,0.1,1.4,0.2
		c0.5,0.1,0.9,0.1,1.4,0.2c0.5,0.1,0.9,0.2,1.4,0.2c0.3,0.1,0.7,0.1,1,0.2c0,0,0,0.1,0,0.1c-0.3,0-0.7-0.1-1-0.1
		c-0.5-0.1-0.9-0.1-1.4-0.2c-0.5-0.1-0.9-0.1-1.4-0.2c-0.5-0.1-0.9-0.2-1.4-0.3l0,0l0,0l-0.7-0.3c-0.2-0.1-0.4-0.2-0.7-0.3l-0.7-0.3
		l-0.7-0.3c-0.5-0.2-0.9-0.4-1.3-0.6c-0.4-0.2-0.9-0.4-1.3-0.6c-0.9-0.4-1.7-0.9-2.6-1.4c-0.2-0.1-0.4-0.3-0.6-0.4
		c-0.2-0.1-0.4-0.3-0.6-0.4c-0.2-0.2-0.4-0.3-0.5-0.5c-0.1-0.1-0.3-0.3-0.4-0.4C16.1,21.9,16,21.8,16,21.8L16,21.8"/>
	<path style="fill:#947B67;" d="M26.5,31.7L26.5,31.7 M12.8,25.4L12.8,25.4c0,0.1,0.1,0.2,0.2,0.3c0.1,0.2,0.3,0.3,0.5,0.5
		c0.2,0.2,0.5,0.4,0.7,0.6c0.3,0.2,0.5,0.4,0.8,0.6c0.3,0.2,0.5,0.4,0.8,0.5c0.5,0.4,1.1,0.7,1.7,1c0.6,0.3,1.1,0.6,1.7,0.9
		c1.2,0.6,2.3,1.2,3.5,1.7c0.3,0.1,0.6,0.2,0.9,0.3c0.3,0.1,0.6,0.1,1,0.1c0,0,0,0,0,0c0.3,0,0.7,0,1,0c0.3,0,0.6-0.1,1-0.2
		c0.2,0,0.4,0.1,0.5,0.1c0.2,0,0.4,0.1,0.6,0.1c0.2,0,0.4,0,0.6,0c0.2,0,0.4,0,0.6,0l0.6,0l0.6,0c0.2,0,0.5,0,0.7,0
		c-0.1-0.1-0.2-0.1-0.3-0.2c0,0,0,0,0-0.1l-0.4,0l-1.1,0c-0.2,0-0.4,0-0.6,0c-0.1,0-0.1,0-0.2,0c-0.1,0-0.3,0-0.4,0c0,0,0,0,0,0
		c-0.2,0-0.4,0-0.5,0c-0.2,0-0.4-0.1-0.5-0.1l0,0l0,0c-0.6,0.1-1.2,0.2-1.8,0.2c0,0-0.1,0-0.1,0c-0.3,0-0.6-0.1-1-0.1
		c-0.3-0.1-0.6-0.2-0.9-0.3c-1.2-0.6-2.3-1.2-3.4-1.8c-0.6-0.3-1.1-0.6-1.7-0.9c-0.6-0.3-1.1-0.6-1.7-1c-0.3-0.2-0.6-0.3-0.8-0.5
		c-0.3-0.2-0.5-0.3-0.8-0.5c-0.3-0.2-0.5-0.4-0.8-0.6c-0.2-0.1-0.4-0.3-0.5-0.5C12.9,25.6,12.8,25.5,12.8,25.4"/>
	<path style="fill:#947B67;" d="M28,35.2L28,35.2L28,35.2 M37,5.9c-0.1,0-0.3,0-0.4,0c-0.2,0-0.4,0-0.6,0.1c-0.2,0-0.4,0.1-0.6,0.1
		c-0.1,0-0.2,0-0.3,0.1l-0.3,0.1c-0.2,0.1-0.4,0.1-0.5,0.2l-0.5,0.2c-0.2,0.1-0.3,0.2-0.5,0.3l-0.2,0.1C33,7.2,33,7.2,32.9,7.3
		l-0.5,0.3C32.3,7.7,32.1,7.8,32,8l-0.4,0.4l-0.8,0.8c-0.3,0-0.6,0.1-0.9,0.2c-0.1,0-0.3,0.1-0.4,0.1L29,9.6l-0.4,0.2l-0.4,0.2
		C28,10,27.9,10,27.8,10.1c-0.1,0.1-0.3,0.1-0.4,0.2c-0.1,0.1-0.3,0.2-0.4,0.2l-0.4,0.3l-0.4,0.3c-0.1,0.1-0.2,0.2-0.3,0.3
		c-0.1,0.1-0.2,0.2-0.3,0.3l-0.3,0.3c-0.1,0.1-0.2,0.2-0.3,0.4l-0.3,0.3c-0.3,0.1-0.5,0.2-0.7,0.3c-0.1,0.1-0.2,0.1-0.4,0.2
		c-0.1,0.1-0.2,0.1-0.4,0.2c-0.1,0.1-0.2,0.1-0.4,0.2c-0.1,0.1-0.2,0.1-0.3,0.2c-0.1,0.1-0.2,0.2-0.3,0.2c-0.1,0.1-0.2,0.2-0.3,0.3
		l-0.3,0.3l-0.3,0.3c-0.1,0.1-0.2,0.2-0.3,0.3c-0.1,0.1-0.2,0.2-0.3,0.3l-0.2,0.3c-0.1,0.1-0.1,0.2-0.2,0.4l-0.1,0.2l-0.1,0.2
		L20,16.9c-0.2,0.1-0.4,0.1-0.7,0.2c-0.2,0.1-0.5,0.2-0.7,0.3c-0.5,0.2-0.9,0.5-1.3,0.8c-0.4,0.3-0.8,0.7-1.1,1.1
		c-0.1,0.1-0.2,0.2-0.2,0.3c-0.1,0.1-0.1,0.2-0.2,0.3c-0.1,0.1-0.1,0.2-0.1,0.4c0,0.1-0.1,0.2-0.1,0.3c-0.1,0-0.2,0.1-0.3,0.1
		c-0.1,0.1-0.2,0.1-0.3,0.2c-0.1,0.1-0.2,0.1-0.3,0.2c-0.1,0.1-0.2,0.1-0.3,0.2c-0.1,0.1-0.2,0.2-0.3,0.2c-0.1,0.1-0.2,0.2-0.3,0.3
		c-0.1,0.1-0.2,0.2-0.2,0.3l-0.2,0.3l-0.2,0.3c-0.1,0.1-0.1,0.2-0.2,0.3c-0.1,0.1-0.1,0.2-0.2,0.3l-0.2,0.3
		c-0.1,0.1-0.1,0.2-0.1,0.3l-0.1,0.3c0,0.1-0.1,0.2-0.1,0.3l-0.1,0.3c-0.3,0.4-0.5,0.9-0.7,1.3c-0.2,0.5-0.4,0.9-0.6,1.4
		c-0.2,0.5-0.3,1-0.4,1.5c-0.1,0.5-0.1,1,0.1,1.6c0.1,0.3,0.3,0.5,0.5,0.7c0.1,0,0.1,0.1,0.2,0.1l0.2,0.1c0.1,0,0.1,0,0.2,0.1l0.1,0
		c0,0,0,0,0,0c0-0.1,0-0.1,0-0.1l0,0c0,0,0,0.1,0,0.1c0,0,0,0,0,0c0.5,0.1,1,0.2,1.5,0.3c1,0.1,2,0.3,3,0.4c0.5,0.1,1,0.2,1.5,0.3
		c0.5,0.1,1,0.2,1.5,0.3c1,0.2,2,0.5,2.9,0.7c1.8,0.5,3.7,1,5.5,1.5c0.2,0,0.4,0,0.4,0l0,0c0,0-0.1,0-0.1,0c0,0,0.1,0,0.1,0l0,0l0,0
		c0.7,0,1.3,0,2,0.1c0.1,0,0.2,0,0.3,0c0.1,0,0.2,0,0.3,0c0,0,0.1,0,0.1,0c0,0,0.1,0,0.1,0c0.2,0,0.4,0,0.6,0l1.2,0l1.2,0
		c0.4,0,0.8,0,1.2,0c0.4,0,0.8,0,1.2-0.1c0.4,0,0.8-0.1,1.2-0.1c0.4,0,0.8-0.1,1.2-0.1c0.4-0.1,0.8-0.1,1.2-0.2l0.6-0.1l0.6-0.1
		c0.4-0.1,0.8-0.2,1.1-0.3c0.2,0,0.4-0.1,0.6-0.2c0.2-0.1,0.4-0.1,0.6-0.2c0.2-0.1,0.4-0.1,0.5-0.2c0,0,0,0,0.1,0
		c-0.1,0-0.2,0-0.3,0c-0.1,0-0.2,0.1-0.3,0.1c-0.2,0.1-0.4,0.1-0.5,0.2c-0.2,0.1-0.4,0.1-0.6,0.2c-0.4,0.1-0.8,0.2-1.1,0.3l-0.6,0.1
		l-0.6,0.1C39.3,35,38.9,35,38.5,35c-0.4,0-0.8,0.1-1.2,0.1c-0.4,0-0.8,0.1-1.2,0.1c-0.4,0-0.8,0-1.2,0.1c-0.4,0-0.8,0-1.2,0l-1.2,0
		l-1.2,0c-0.1,0-0.2,0-0.4,0c-0.1,0-0.3,0-0.4,0c-0.1,0-0.3,0-0.4,0c0,0,0,0,0,0c0,0-0.1,0-0.1,0c-0.7,0-1.5-0.1-2.2-0.1
		c-1.9-0.6-3.9-1.1-5.8-1.7c-1-0.3-2-0.5-2.9-0.8c-0.5-0.1-1-0.3-1.5-0.4c-0.5-0.1-1-0.2-1.5-0.3c-1-0.2-2-0.3-3-0.5
		c-0.5-0.1-1-0.1-1.5-0.3c0,0-0.1,0-0.1,0l-0.1,0c-0.1,0-0.1,0-0.2-0.1l-0.1-0.1c0,0-0.1-0.1-0.1-0.1c-0.1-0.1-0.2-0.2-0.2-0.3
		c0,0,0,0,0-0.1c0-0.1-0.1-0.1-0.1-0.2c-0.1-0.4-0.1-0.9,0-1.4c0.1-0.5,0.2-1,0.4-1.4c0.2-0.5,0.4-0.9,0.6-1.4
		c0.2-0.4,0.5-0.9,0.7-1.3l0,0l0,0l0.1-0.3c0-0.1,0.1-0.2,0.1-0.3l0.1-0.3c0-0.1,0.1-0.2,0.1-0.3l0.2-0.3c0.1-0.1,0.1-0.2,0.2-0.3
		c0.1-0.1,0.1-0.2,0.2-0.3l0.2-0.3l0.2-0.3c0.1-0.1,0.1-0.2,0.2-0.3c0.1-0.1,0.2-0.2,0.2-0.2c0.1-0.1,0.2-0.2,0.3-0.2
		c0.1-0.1,0.2-0.1,0.3-0.2c0.1-0.1,0.2-0.1,0.3-0.2c0.1-0.1,0.2-0.1,0.3-0.2c0.1-0.1,0.2-0.1,0.3-0.1l0.1,0l0-0.1
		c0-0.1,0-0.2,0.1-0.3c0-0.1,0.1-0.2,0.1-0.3c0.1-0.1,0.1-0.2,0.2-0.3c0.1-0.1,0.1-0.2,0.2-0.3c0.3-0.4,0.7-0.7,1.1-1
		c0.4-0.3,0.8-0.5,1.3-0.8c0.2-0.1,0.5-0.2,0.7-0.3c0.2-0.1,0.5-0.2,0.7-0.2l0.1,0l0-0.1l0.2-0.4l0.1-0.2l0.1-0.2
		c0.1-0.1,0.1-0.2,0.2-0.3l0.2-0.3c0.1-0.1,0.2-0.2,0.2-0.3c0.1-0.1,0.2-0.2,0.3-0.3l0.3-0.3l0.3-0.3c0.1-0.1,0.2-0.2,0.3-0.2
		c0.1-0.1,0.2-0.2,0.3-0.2c0.1-0.1,0.2-0.2,0.3-0.2c0.1-0.1,0.2-0.1,0.3-0.2c0.1-0.1,0.2-0.1,0.4-0.2c0.1-0.1,0.2-0.1,0.4-0.2
		c0.2-0.1,0.5-0.2,0.7-0.3l0,0l0,0l0.3-0.4c0.1-0.1,0.2-0.2,0.3-0.3l0.3-0.3c0.1-0.1,0.2-0.2,0.3-0.3c0.1-0.1,0.2-0.2,0.3-0.3
		l0.3-0.3l0.4-0.3c0.1-0.1,0.3-0.2,0.4-0.2c0.1-0.1,0.3-0.2,0.4-0.2c0.1-0.1,0.3-0.1,0.4-0.2l0.4-0.2l0.4-0.2l0.4-0.1
		c0.1,0,0.3-0.1,0.4-0.1c0.3-0.1,0.6-0.1,0.9-0.2l0,0l0,0l0.8-0.8l0.4-0.4c0.1-0.1,0.3-0.3,0.4-0.4L33,7.4c0.1-0.1,0.2-0.1,0.2-0.2
		l0.2-0.1c0.2-0.1,0.3-0.2,0.5-0.3l0.5-0.2c0.2-0.1,0.3-0.1,0.5-0.2l0.3-0.1c0.1,0,0.2,0,0.3-0.1c0.2,0,0.4-0.1,0.5-0.1
		c0.2,0,0.4-0.1,0.6-0.1C36.8,6,36.9,6,37,5.9C37.1,6,37.1,6,37.2,6c0,0,0,0,0,0c0,0,0,0,0.1,0c0,0,0,0,0.1,0c0,0,0.1,0,0.1,0l0.3,0
		c0.1,0,0.2,0,0.3,0c0.1,0,0.2,0,0.3,0.1c0.2,0,0.3,0.1,0.5,0.1c0,0,0,0,0.1,0l0,0c0,0,0,0-0.1,0c-0.2-0.1-0.3-0.1-0.5-0.2
		c-0.1,0-0.2,0-0.3-0.1c-0.1,0-0.2,0-0.3,0l-0.3,0c-0.1,0-0.2,0-0.3,0C37.1,5.9,37.1,5.9,37,5.9"/>
	<path style="fill:#947B67;" d="M11.6,31.5L11.6,31.5c0,0,0,0.1,0,0.1c0,0,0,0,0,0c0,0.1,0.1,0.3,0.2,0.5c0.1,0.2,0.3,0.4,0.6,0.6
		c0.3,0.2,0.6,0.4,1,0.5c0.4,0.2,0.8,0.3,1.2,0.4c0.4,0.1,0.9,0.3,1.4,0.4c0.5,0.1,1,0.2,1.5,0.3c0.5,0.1,1.1,0.2,1.6,0.3
		c0.3,0,0.5,0.1,0.8,0.1c0.3,0,0.5,0.1,0.8,0.1c0.5,0.1,1.1,0.1,1.6,0.1c0.5,0,1,0,1.5,0c0.5,0,0.9,0,1.3,0.1c0.8,0.1,1.5,0.1,2,0.1
		c0.1,0,0.3,0,0.4,0c0.2,0,0.4,0,0.4,0l0,0c0,0-0.1,0-0.1,0c-0.1,0-0.3,0-0.6,0c-0.2,0-0.5,0-0.9,0c-0.3,0-0.5,0-0.8,0
		c-0.1,0-0.2,0-0.3,0c-0.4,0-0.9,0-1.3-0.1c-0.5,0-1-0.1-1.5-0.1c-0.5-0.1-1-0.1-1.6-0.2c-0.5,0-1.1-0.1-1.6-0.1
		c-0.5,0-1.1-0.1-1.6-0.2c-0.5-0.1-1.1-0.2-1.6-0.3c-0.5-0.1-1-0.2-1.4-0.4c-0.5-0.1-0.9-0.3-1.3-0.5c-0.4-0.2-0.7-0.4-1-0.6
		c-0.3-0.2-0.5-0.4-0.6-0.7c-0.1-0.2-0.1-0.4-0.2-0.5c0,0,0,0,0-0.1C11.6,31.5,11.6,31.5,11.6,31.5"/>
	<path style="fill:#8A705B;" d="M68.6,7.2c3.5,1.2,6,2.4,6,2.4s0.5,0.1,1.1,0.2l0,0l0,0c0.7,0.1,1.5,0.3,2.3,0.4
		c0.3,0.1,0.6,0.2,0.9,0.3c-0.7-0.2-1.4-0.3-2.1-0.3c0,0-0.1,0-0.1,0c0,0.2,0.2,0.3,0.3,0.4c1.5,0.9,3.1,1.9,4.6,2.8
		c0,0.4,0,0.8,0,1.2c0.1,0,0.2,0,0.3,0c0.1,0,0.2,0,0.3,0s0.2,0,0.3,0c0.2,0,0.5,0,0.6,0.2c0.1,0.1,0.1,0.3,0.2,0.5
		c0.1,0.4,0.1,0.8,0.2,1.2c0,0.1,0,0.3,0.2,0.3c0,0,0.1,0,0.1,0c0.1,0,0.1,0,0.2,0c0.6-0.2,1.2-0.6,1.6-1.1c0,0,0.1-0.1,0.1-0.1
		c0.3,0.5,0.2,1.2,0,1.7c-0.1,0.4-0.4,0.8-0.7,1.2c0-0.1-0.1-0.2-0.2-0.3c0,0-0.1,0-0.1,0c-0.2,0-0.4,0.3-0.6,0.5
		c-0.2,0.4-0.4,0.9-0.7,1.3c-0.2,0.1-0.4,0.3-0.5,0.4c-0.1,0.1-0.3,0.1-0.4,0.1c0,0.1,0,0.1,0.1,0.2C75,25.9,57.5,32,53.4,33.2
		c-0.8,0.2-2.8,0.6-5.4,1c-1.1-0.1-2.6-0.2-4.2-0.3c-0.1,0-0.2,0-0.3,0c-4.9-0.4-11-1.1-12.9-2c-0.1-0.1-0.2-0.1-0.3-0.2
		c0,0,0,0,0-0.1c0.1-0.3,0.4-1.6,1.2-3.5c0,0,0-0.1,0-0.1c0.4-1,1-2.2,1.8-3.5c0-0.1,0.1-0.1,0.1-0.2c0.7-1.2,1.7-2.5,2.8-3.8
		c0-0.1,0.1-0.1,0.1-0.2c1.3-1.5,2.8-2.9,4.6-4.3c0.1-0.1,0.2-0.1,0.2-0.2c0,0,0,0,0.1,0c0.2-0.2,0.5-0.3,0.7-0.5
		c1.2-0.8,2.4-1.6,3.8-2.3c0.1-0.1,0.2-0.1,0.3-0.2c1.9-1,4.1-1.8,6.5-2.5c0.1,0,0.2,0,0.2-0.1c1.7-0.5,3.6-0.8,5.5-1.1
		c0.1,0,0.2,0,0.3,0c0.5-0.1,0.9-0.1,1.4-0.2c0,0,2.1-0.4,4.5-0.9c0.1,0,0.3-0.1,0.4-0.1C66.2,7.9,67.5,7.5,68.6,7.2"/>
	<path style="fill:#938774;" d="M82.8,20.4c-0.1,0.1-0.3,0.1-0.4,0.1c0,0.1,0,0.1,0.1,0.2C82.5,20.6,82.7,20.5,82.8,20.4 M84.6,18.2
		c-0.2,0-0.4,0.3-0.6,0.5c-0.2,0.4-0.4,0.9-0.7,1.3c0.7-0.5,1.2-1,1.6-1.5c0-0.1-0.1-0.2-0.2-0.3C84.7,18.2,84.7,18.2,84.6,18.2"/>
	<path style="fill:#8A705B;" d="M79.8,10.8c1.5,0.6,3.1,1.4,3.1,1.4l1.1-0.9l0.1,1.7c0.1,0.3-0.1,0.4-0.2,0.7
		c-0.2-0.4-0.2-0.8-0.1-1.2c0.1-0.2,0.2-0.5-0.1-0.6c0,0,0,0,0,0c-0.3,0-0.2,0.6-0.5,0.7c0,0,0,0,0,0c-0.2,0-0.3-0.4-0.6-0.6
		c-0.1,0-0.1,0-0.2,0c0,0-0.1,0-0.1,0l0,0c-0.5,0-1-0.4-1.4-0.7C80.6,11.2,80.2,11,79.8,10.8"/>
	<polyline style="fill:#BFB29B;" points="75.7,9.7 75.7,9.7 75.7,9.7 75.7,9.7 	"/>
	<path style="fill:#BFB29B;" d="M76.7,10.1c0.7,0,1.4,0.1,2.1,0.3c0.3,0.1,0.6,0.2,1,0.4c0.4,0.2,0.8,0.4,1.1,0.6
		c0.4,0.3,0.9,0.7,1.4,0.7l0,0c0,0,0.1,0,0.1,0c0.1,0,0.1,0,0.2,0c0.3,0.1,0.3,0.5,0.6,0.6c0,0,0,0,0,0c0.3-0.1,0.3-0.7,0.5-0.7
		c0,0,0,0,0,0c0.2,0.1,0.1,0.4,0.1,0.6c-0.1,0.4-0.1,0.8,0.1,1.2c0,0,0,0,0,0.1c0,0.4,0.3,0.7,0.6,1c0.3,0.2,0.7,0.4,0.9,0.8
		c0,0,0,0,0,0c0,0-0.1,0.1-0.1,0.1c-0.4,0.5-1,0.9-1.6,1.1c-0.1,0-0.1,0-0.2,0c0,0-0.1,0-0.1,0c-0.1-0.1-0.1-0.2-0.2-0.3
		c-0.1-0.4-0.1-0.8-0.2-1.2c0-0.2-0.1-0.4-0.2-0.5c-0.1-0.2-0.4-0.2-0.6-0.2c-0.1,0-0.2,0-0.3,0s-0.2,0-0.3,0c-0.1,0-0.2,0-0.3,0
		c0-0.4,0-0.8,0-1.2c-1.5-0.9-3.1-1.9-4.6-2.8C76.8,10.4,76.7,10.3,76.7,10.1C76.7,10.1,76.7,10.1,76.7,10.1"/>
	<path style="fill:#401F16;" d="M84.3,13.4c0,0.1-0.1,0.2-0.1,0.3c-0.1,0.2,0,0.4,0.1,0.6c0.1,0.2,0.2,0.3,0.4,0.5
		c0.2,0.1,0.4,0.2,0.5,0.4c0.2,0.1,0.4,0.3,0.5,0.4c0.1,0.2,0.2,0.4,0.2,0.6c0.1,0.4,0,0.9-0.2,1.3c-0.3,0.8-0.9,1.5-1.5,2
		c-0.6,0.6-1.3,1.1-2,1.6c-1.4,1-2.9,1.8-4.4,2.6c-1.5,0.8-3,1.5-4.6,2.2c-3.1,1.4-6.3,2.7-9.4,3.9c-1.6,0.6-3.2,1.2-4.8,1.8
		c-1.6,0.6-3.2,1.1-4.8,1.7l-0.6,0.2c-0.2,0.1-0.4,0.1-0.6,0.2c-0.4,0.1-0.8,0.2-1.3,0.3c-0.8,0.2-1.7,0.3-2.5,0.4
		c-1.7,0.3-3.4,0.5-5.1,0.7c-3.4,0.4-6.8,0.8-10.2,1.1c-3.4,0.3-6.8,0.5-10.2,0.5c-3.4,0.1-6.8,0-10.2-0.3c-1.7-0.2-3.4-0.4-5.1-0.7
		c-0.8-0.2-1.7-0.4-2.5-0.6c-0.8-0.2-1.6-0.5-2.4-0.9c-0.8-0.4-1.5-0.9-2.1-1.5c-0.6-0.6-1-1.4-1.2-2.3c0-0.1,0-0.2,0-0.3
		c0-0.1,0-0.2,0-0.3c0-0.2,0-0.4,0-0.6c0-0.2,0-0.4,0.1-0.6c0-0.2,0.1-0.4,0.1-0.6c0.2-0.8,0.5-1.6,0.8-2.4c0.7-1.6,1.6-3,2.6-4.4
		c1-1.4,2.2-2.6,3.4-3.8c2.4-2.4,5.1-4.6,7.8-6.6c2.7-2,5.6-3.9,8.5-5.6c1.5-0.9,3-1.7,4.5-2.4c0.8-0.4,1.5-0.7,2.3-1.1
		c0.4-0.2,0.8-0.3,1.2-0.5c0.2-0.1,0.4-0.2,0.6-0.2c0.2-0.1,0.4-0.1,0.6-0.2C34.2,0,36-0.1,37.7,0c1.7,0.1,3.4,0.4,5.1,0.8
		c3.3,0.8,6.5,2,9.6,3.6l-0.1,0L53,4.2l0.7-0.1l0.7-0.1c0.2,0,0.5,0,0.7,0c0.5,0,1,0,1.5,0.1c0.2,0,0.5,0,0.7,0.1
		c0.2,0,0.5,0.1,0.7,0.1C60,4.5,61.9,5,63.7,5.5c1.9,0.5,3.7,1.1,5.5,1.8c0.9,0.3,1.8,0.7,2.7,1c0.9,0.4,1.8,0.7,2.7,1.1l0,0
		c0.7,0.1,1.5,0.2,2.2,0.4c0.4,0.1,0.7,0.2,1.1,0.2c0.2,0,0.4,0.1,0.5,0.2c0.2,0.1,0.4,0.1,0.5,0.2c0.7,0.3,1.4,0.5,2.1,0.8
		c0.7,0.3,1.4,0.6,2,0.9l0,0l1.2-0.9l0,0l0,0l0.1,1.7C84.3,13.1,84.3,13.3,84.3,13.4z M84.2,13l-0.1-1.7l0,0L83,12.2l0,0l0,0
		c-0.7-0.3-1.4-0.6-2-0.9c-0.7-0.3-1.4-0.6-2.1-0.8c-0.2-0.1-0.3-0.1-0.5-0.2c-0.2-0.1-0.4-0.1-0.5-0.1c-0.4-0.1-0.7-0.2-1.1-0.2
		c-0.7-0.1-1.5-0.3-2.2-0.4l0,0l0,0c-0.9-0.4-1.8-0.8-2.7-1.1c-0.9-0.4-1.8-0.7-2.7-1c-1.8-0.7-3.6-1.3-5.5-1.8
		c-1.9-0.5-3.7-0.9-5.6-1.2c-0.2,0-0.5-0.1-0.7-0.1c-0.2,0-0.5,0-0.7-0.1c-0.5,0-1-0.1-1.4-0.1c-0.2,0-0.5,0-0.7,0l-0.7,0.1L53,4.5
		l-0.7,0.2l-0.1,0l0,0c-1.5-0.8-3.1-1.4-4.7-2C46,2,44.3,1.5,42.7,1.1c-1.7-0.4-3.3-0.7-5-0.8c-1.7-0.1-3.4,0-5,0.4
		c-0.2,0.1-0.4,0.1-0.6,0.2C31.8,1,31.6,1,31.4,1.1c-0.4,0.2-0.8,0.3-1.2,0.5c-0.8,0.3-1.6,0.7-2.3,1.1c-1.5,0.7-3,1.6-4.5,2.4
		c-3,1.7-5.8,3.5-8.6,5.5c-2.7,2-5.4,4.2-7.8,6.6c-1.2,1.2-2.3,2.5-3.3,3.8c-1,1.4-1.9,2.8-2.6,4.3c-0.3,0.8-0.6,1.6-0.8,2.4
		c0,0.1,0,0.2-0.1,0.3l0,0.3c0,0.2,0,0.4-0.1,0.6c0,0.2,0,0.4,0,0.6c0,0.1,0,0.2,0,0.3c0,0.1,0,0.2,0,0.3c0.1,0.8,0.5,1.6,1.1,2.2
		c0.6,0.6,1.3,1,2.1,1.4c0.8,0.4,1.6,0.7,2.4,0.9c0.8,0.2,1.6,0.4,2.5,0.6c1.7,0.3,3.4,0.5,5.1,0.7c3.4,0.3,6.8,0.3,10.2,0.2
		c3.4-0.1,6.8-0.3,10.2-0.5c3.4-0.3,6.8-0.6,10.2-1.1c1.7-0.2,3.4-0.5,5.1-0.7c0.8-0.1,1.7-0.3,2.5-0.4c0.4-0.1,0.8-0.2,1.2-0.3
		c0.2,0,0.4-0.1,0.6-0.2l0.6-0.2c3.2-1,6.5-2.2,9.6-3.4c3.2-1.2,6.3-2.5,9.4-3.9c1.6-0.7,3.1-1.4,4.6-2.2c1.5-0.8,3-1.6,4.4-2.6
		c0.7-0.5,1.4-1,2-1.5c0.6-0.6,1.2-1.2,1.5-2c0.1-0.4,0.2-0.8,0.2-1.2c0-0.2-0.1-0.4-0.2-0.6c-0.1-0.2-0.3-0.3-0.5-0.4
		c-0.2-0.1-0.4-0.2-0.5-0.4c-0.2-0.1-0.3-0.3-0.4-0.5c-0.1-0.2-0.1-0.4,0-0.6c0-0.1,0.1-0.2,0.1-0.3C84.3,13.2,84.3,13.1,84.2,13
		L84.2,13z"/>
	<path style="fill:#401F16;" d="M19.1,11.5c0.1,0.2,0.3,0.4,0.5,0.6c0.1,0.1,0.2,0.2,0.3,0.3c0.1,0.1,0.2,0.2,0.3,0.3
		c0.2,0.2,0.4,0.3,0.6,0.5c0.2,0.2,0.4,0.3,0.6,0.4c0.2,0.1,0.4,0.3,0.7,0.4c0.2,0.1,0.4,0.3,0.7,0.4c0.5,0.3,0.9,0.5,1.4,0.7
		c0.9,0.5,1.9,0.9,2.8,1.3l2.9,1.2l0,0c0.6,0.7,1.3,1.4,1.9,2.1c0.6,0.7,1.3,1.4,1.9,2.1l0.1,0.1l0.1,0c0.4-0.1,0.9-0.3,1.4-0.4
		c0.5-0.1,0.9-0.2,1.4-0.3c0.5-0.1,0.9-0.1,1.4-0.2c0.2,0,0.5,0,0.7,0l0.2,0l0.2,0l0.2,0.1l0.2,0.1l0.1,0.1l0-0.1l0.6-1.4
		c0.2-0.5,0.4-0.9,0.5-1.4l0,0c-0.2,0.5-0.4,0.9-0.6,1.4l-0.6,1.4l0.2-0.1l-0.2-0.1l-0.2-0.1l-0.2-0.1l-0.2,0
		c-0.2,0-0.5-0.1-0.7-0.1c-0.5,0-1,0-1.5,0.1c-0.5,0.1-1,0.2-1.4,0.3c-0.5,0.1-0.9,0.3-1.4,0.4l0.2,0c-0.7-0.7-1.3-1.4-2-2
		c-0.7-0.7-1.3-1.3-2-2l0,0l0,0c-0.2-0.1-0.5-0.2-0.7-0.3l-0.7-0.3c-0.5-0.2-0.9-0.4-1.4-0.6c-0.9-0.4-1.8-0.9-2.8-1.4
		c-0.9-0.5-1.8-0.9-2.7-1.5c-0.2-0.1-0.4-0.3-0.7-0.4c-0.2-0.1-0.4-0.3-0.6-0.4c-0.1-0.1-0.2-0.1-0.3-0.2c-0.1-0.1-0.2-0.2-0.3-0.2
		C19.5,11.9,19.3,11.7,19.1,11.5L19.1,11.5z"/>
	<path style="fill:#401F16;" d="M47.9,2.6c-0.5-0.1-1-0.3-1.5-0.4c-0.5-0.1-1-0.2-1.5-0.3c-0.5-0.1-1-0.2-1.6-0.2
		c-0.5-0.1-1-0.1-1.6-0.1c-0.5,0-1,0-1.6,0c-0.5,0-1.1,0-1.6,0.1c-0.5,0-1,0.1-1.6,0.3c-0.5,0.1-1,0.3-1.5,0.5
		c-0.5,0.2-1,0.4-1.4,0.7c-0.1,0-0.1,0.1-0.2,0.1c0,0.1-0.1,0.1-0.1,0.2c0,0.1,0,0.3,0,0.4c0.1,0.3,0.2,0.5,0.4,0.7
		c0.3,0.4,0.7,0.8,1.1,1.1c0.4,0.3,0.8,0.7,1.2,1c0.4,0.3,0.8,0.6,1.3,0.9c0.4,0.3,0.9,0.6,1.3,0.9c0.4,0.3,0.8,0.6,1.2,1
		c0.4,0.4,0.7,0.7,1,1.2l0,0l0,0l0.4,0.2l0.2,0.1c0.1,0,0.2,0.1,0.2,0.1l0.5,0.2l0.5,0.1c0.2,0,0.3,0.1,0.5,0.1
		c0.2,0,0.3,0.1,0.5,0.1l0.5,0c0.2,0,0.3,0,0.5,0c0.2,0,0.3,0,0.5,0c0.2,0,0.3,0,0.5-0.1c0.2,0,0.3-0.1,0.5-0.1
		c0.2,0,0.3-0.1,0.5-0.1c0.2,0,0.3-0.1,0.5-0.1c0.2-0.1,0.3-0.1,0.5-0.2c0.2-0.1,0.3-0.1,0.5-0.2c0.2-0.1,0.3-0.1,0.4-0.2l0.1,0
		l0-0.1l0-0.9c0-0.1,0-0.3,0.1-0.4l0.1-0.4c0-0.1,0.1-0.3,0.1-0.4l0.1-0.4l0.1-0.4L49.6,7l0.1-0.2c0.1-0.1,0.1-0.3,0.2-0.4L50.1,6
		c0.1-0.1,0.2-0.2,0.3-0.4c0.1-0.1,0.2-0.2,0.3-0.3c0.1-0.1,0.2-0.2,0.3-0.3c0.1-0.1,0.2-0.2,0.4-0.2c0.1-0.1,0.3-0.1,0.4-0.2
		c0.1,0,0.3-0.1,0.4-0.1l0,0c-0.2,0-0.3,0-0.5,0.1c-0.1,0-0.3,0.1-0.4,0.2C51.1,4.8,51,4.9,50.9,5c-0.1,0.1-0.2,0.2-0.4,0.3
		c-0.1,0.1-0.2,0.2-0.3,0.3c-0.1,0.1-0.2,0.2-0.3,0.4l-0.2,0.4c-0.1,0.1-0.1,0.3-0.2,0.4L49.4,7l-0.1,0.2l-0.2,0.4
		c0,0.1-0.1,0.3-0.1,0.4c0,0.1-0.1,0.3-0.1,0.4l-0.1,0.4c0,0.2-0.1,0.3-0.1,0.5l-0.1,0.9l0.1-0.1c-0.3,0.1-0.6,0.3-0.9,0.4
		c-0.1,0.1-0.3,0.1-0.4,0.2c-0.2,0.1-0.3,0.1-0.5,0.1c-0.2,0-0.3,0.1-0.5,0.1c-0.2,0-0.3,0.1-0.5,0.1c-0.2,0-0.3,0-0.5,0.1
		c-0.2,0-0.3,0-0.5,0c-0.2,0-0.3,0-0.5,0l-0.5,0c-0.2,0-0.3,0-0.5-0.1c-0.2,0-0.3,0-0.5-0.1l-0.5-0.1l-0.4-0.2
		c-0.1,0-0.1-0.1-0.2-0.1l-0.2-0.1l-0.4-0.2l0.1,0.1c-0.3-0.5-0.7-0.8-1.1-1.2c-0.4-0.4-0.8-0.7-1.2-1c-0.4-0.3-0.9-0.6-1.3-0.9
		c-0.4-0.3-0.9-0.6-1.3-0.9c-0.4-0.3-0.8-0.6-1.2-0.9c-0.4-0.3-0.8-0.7-1.1-1.1c-0.2-0.2-0.3-0.4-0.4-0.7c0-0.1,0-0.2,0-0.4
		c0-0.1,0-0.1,0.1-0.2c0,0,0.1-0.1,0.1-0.1c0.4-0.3,0.9-0.5,1.4-0.7c0.5-0.2,1-0.3,1.5-0.4c0.3,0,0.5-0.1,0.8-0.1L38.2,2l0.4,0
		c0.5,0,1-0.1,1.6-0.1c0.5,0,1,0,1.6,0c0.5,0,1,0.1,1.6,0.1c0.5,0,1,0.1,1.6,0.2c0.5,0.1,1,0.1,1.5,0.2C46.8,2.4,47.4,2.5,47.9,2.6
		L47.9,2.6z"/>
	<path style="fill:#401F16;" d="M34,4.1c-0.2-0.1-0.4-0.1-0.6-0.2c-0.2,0-0.4-0.1-0.6-0.1c-0.2,0-0.4,0-0.6,0c-0.2,0-0.4,0-0.6,0
		c-0.2,0-0.4,0.1-0.6,0.1c-0.2,0-0.4,0.1-0.6,0.2c-0.2,0.1-0.4,0.1-0.6,0.2c-0.2,0.1-0.4,0.2-0.5,0.2c-0.2,0.1-0.4,0.2-0.5,0.3
		l-0.5,0.3c-0.2,0.1-0.3,0.2-0.5,0.3l-0.5,0.4l-0.5,0.4c-0.1,0.1-0.3,0.3-0.4,0.4c-0.3,0.3-0.6,0.6-0.8,0.8l0.1,0
		c-0.2,0-0.3,0.1-0.5,0.1c-0.2,0-0.3,0.1-0.5,0.1c-0.2,0-0.3,0.1-0.5,0.1l-0.5,0.2l-0.5,0.2l-0.5,0.2c-0.2,0.1-0.3,0.2-0.4,0.2
		c-0.2,0.1-0.3,0.2-0.4,0.3c-0.1,0.1-0.3,0.2-0.4,0.3l-0.4,0.3l-0.4,0.3c-0.1,0.1-0.3,0.2-0.4,0.3c-0.1,0.1-0.2,0.2-0.4,0.3
		l-0.3,0.4c-0.1,0.1-0.2,0.3-0.3,0.4l-0.3,0.4l0,0c-0.3,0.1-0.6,0.2-0.8,0.3c-0.1,0.1-0.3,0.1-0.4,0.2c-0.1,0.1-0.3,0.1-0.4,0.2
		c-0.1,0.1-0.3,0.2-0.4,0.2c-0.1,0.1-0.3,0.2-0.4,0.2c-0.1,0.1-0.2,0.2-0.4,0.3c-0.1,0.1-0.2,0.2-0.4,0.3l-0.3,0.3l-0.3,0.3
		c-0.1,0.1-0.2,0.2-0.3,0.3c-0.1,0.1-0.2,0.2-0.3,0.3l-0.3,0.4c-0.1,0.1-0.2,0.3-0.2,0.4l-0.1,0.2L14,15.6L13.8,16l0.1-0.1
		c-0.3,0.1-0.5,0.2-0.8,0.3c-0.3,0.1-0.5,0.2-0.8,0.3c-0.5,0.2-1,0.5-1.5,0.8c-0.5,0.3-0.9,0.7-1.2,1.2c-0.1,0.1-0.2,0.2-0.2,0.4
		c-0.1,0.1-0.1,0.2-0.2,0.4C9.1,19.4,9,19.6,9,19.7c0,0.1-0.1,0.3-0.1,0.4L9,20c-0.1,0.1-0.3,0.1-0.4,0.2c-0.1,0.1-0.2,0.1-0.3,0.2
		c-0.1,0.1-0.2,0.1-0.3,0.2c-0.1,0.1-0.2,0.2-0.3,0.2c-0.1,0.1-0.2,0.2-0.3,0.3c-0.1,0.1-0.2,0.2-0.3,0.3c-0.1,0.1-0.2,0.2-0.3,0.3
		L6.6,22l-0.2,0.3c-0.1,0.1-0.1,0.2-0.2,0.3C6.1,22.8,6,22.9,6,23l-0.2,0.4c-0.1,0.1-0.1,0.2-0.2,0.4l-0.1,0.4
		c0,0.1-0.1,0.2-0.1,0.4l-0.1,0.4l0,0c-0.3,0.4-0.5,0.9-0.7,1.3c-0.1,0.2-0.2,0.4-0.3,0.7C4.2,27,4.1,27.2,4,27.4
		c0,0.1-0.1,0.2-0.1,0.4c0,0.1-0.1,0.2-0.1,0.4l-0.1,0.4c0,0.1-0.1,0.2-0.1,0.4c0,0.1-0.1,0.2-0.1,0.4c0,0.1,0,0.2-0.1,0.4
		c0,0.1,0,0.2,0,0.4l0,0.4l0,0l0-0.4c0-0.1,0-0.2,0-0.4c0-0.1,0-0.2,0.1-0.4c0-0.1,0.1-0.2,0.1-0.4c0-0.1,0.1-0.2,0.1-0.4l0.1-0.3
		c0-0.1,0.1-0.2,0.1-0.3c0-0.1,0.1-0.2,0.1-0.3c0.1-0.2,0.2-0.4,0.3-0.7c0.1-0.2,0.2-0.4,0.3-0.7C4.9,26,5,25.7,5.1,25.5
		c0.1-0.2,0.3-0.4,0.4-0.6l0,0l0,0l0.1-0.4c0-0.1,0.1-0.2,0.1-0.4l0.1-0.3c0-0.1,0.1-0.2,0.2-0.3l0.2-0.3c0.1-0.1,0.1-0.2,0.2-0.3
		c0.1-0.1,0.1-0.2,0.2-0.3l0.2-0.3l0.2-0.3c0.1-0.1,0.2-0.2,0.2-0.3c0.1-0.1,0.2-0.2,0.3-0.3c0.1-0.1,0.2-0.2,0.3-0.2
		C8,21,8.1,20.9,8.2,20.9c0.1-0.1,0.2-0.1,0.3-0.2c0.1-0.1,0.2-0.1,0.3-0.2c0.1-0.1,0.2-0.1,0.3-0.2l0.1,0l0-0.1
		c0-0.1,0.1-0.3,0.1-0.4c0-0.1,0.1-0.2,0.1-0.4c0.1-0.1,0.1-0.2,0.2-0.3c0.1-0.1,0.1-0.2,0.2-0.3c0.3-0.4,0.7-0.8,1.2-1.1
		c0.4-0.3,0.9-0.6,1.4-0.8c0.2-0.1,0.5-0.2,0.7-0.3c0.3-0.1,0.5-0.2,0.8-0.3l0.1,0l0-0.1l0.2-0.4l0.1-0.2l0.1-0.2
		c0.1-0.1,0.1-0.3,0.2-0.4l0.2-0.4c0.1-0.1,0.2-0.2,0.3-0.3c0.1-0.1,0.2-0.2,0.3-0.3l0.3-0.3l0.3-0.3c0.1-0.1,0.2-0.2,0.3-0.3
		c0.1-0.1,0.2-0.2,0.4-0.3c0.1-0.1,0.2-0.2,0.4-0.2c0.1-0.1,0.3-0.2,0.4-0.2c0.1-0.1,0.3-0.1,0.4-0.2c0.1-0.1,0.3-0.1,0.4-0.2
		c0.3-0.1,0.5-0.2,0.8-0.3l0,0l0,0l0.3-0.4c0.1-0.1,0.2-0.3,0.3-0.4l0.3-0.4c0.1-0.1,0.2-0.2,0.4-0.3c0.1-0.1,0.2-0.2,0.4-0.3
		l0.4-0.3l0.4-0.3C21.8,9.1,21.9,9,22,8.9c0.1-0.1,0.3-0.2,0.4-0.2c0.1-0.1,0.3-0.2,0.4-0.2l0.5-0.2l0.5-0.2L24.3,8
		c0.2,0,0.3-0.1,0.5-0.1c0.2,0,0.3-0.1,0.5-0.1c0.2,0,0.3-0.1,0.5-0.1l0.1,0l0,0c0.3-0.3,0.6-0.6,0.8-0.8c0.1-0.1,0.3-0.3,0.4-0.4
		L27.5,6L28,5.6c0.2-0.1,0.3-0.2,0.5-0.3L29,5c0.2-0.1,0.3-0.2,0.5-0.3c0.2-0.1,0.3-0.2,0.5-0.3c0.2-0.1,0.4-0.2,0.5-0.2
		c0.2-0.1,0.4-0.1,0.6-0.2c0.2,0,0.4-0.1,0.6-0.1c0.2,0,0.4-0.1,0.6-0.1c0.2,0,0.4,0,0.6,0c0.2,0,0.4,0,0.6,0.1
		C33.6,4,33.8,4,34,4.1L34,4.1z"/>
	<path style="fill:#401F16;" d="M41.5,10.5C41.5,10.5,41.5,10.5,41.5,10.5c0-0.1,0-0.1,0-0.2c0,0,0,0,0-0.1c0,0,0,0-0.1,0
		c0,0-0.1-0.1-0.2-0.1c-0.1,0-0.1,0-0.2,0c-0.1,0-0.1,0-0.2,0c-0.1,0-0.1,0-0.2,0.1c-0.2,0.1-0.3,0.1-0.4,0.2
		c-0.1,0.1-0.3,0.2-0.4,0.4c-0.1,0.1-0.3,0.3-0.4,0.4c-0.1,0.1-0.3,0.2-0.5,0.4c-0.3,0.2-0.6,0.5-0.9,0.8c-0.1,0.1-0.3,0.3-0.4,0.4
		c-0.1,0.1-0.2,0.2-0.3,0.4c-0.2,0.2-0.3,0.4-0.4,0.6c-0.1,0.1-0.2,0.2-0.2,0.2l0,0c0,0,0.1-0.1,0.2-0.2c0.1-0.1,0.3-0.3,0.6-0.5
		c0.1-0.1,0.2-0.2,0.4-0.3c0.1-0.1,0.3-0.2,0.4-0.4c0.1-0.1,0.3-0.3,0.4-0.4c0.1-0.1,0.3-0.3,0.4-0.4c0.1-0.1,0.3-0.3,0.4-0.4
		c0.2-0.1,0.3-0.2,0.5-0.3c0.2-0.1,0.3-0.2,0.5-0.3c0.1,0,0.1-0.1,0.2-0.1c0.1,0,0.1-0.1,0.2-0.1c0.1,0,0.1-0.1,0.2-0.1
		c0.1,0,0.1,0,0.2-0.1c0,0,0.1,0,0.1,0c0,0,0.1,0,0.1,0C41.3,10.3,41.4,10.4,41.5,10.5C41.4,10.5,41.4,10.5,41.5,10.5L41.5,10.5z"/>
	<path style="fill:#401F16;" d="M75,9.6c0.5,0.3,1,0.6,1.5,0.9c0.5,0.3,1,0.6,1.6,0.9c0.5,0.3,1,0.6,1.6,0.9l1.6,0.9l0-0.2
		c-0.3,0.3-0.5,0.6-0.6,1c0,0.2,0,0.4,0.1,0.6c0,0.1,0.1,0.1,0.1,0.1c0,0,0.1,0.1,0.1,0.1l0.1,0.1l0.1,0l0,0
		c0.1,0.1,0.1,0.3,0.1,0.4c0,0.2,0,0.3-0.1,0.5c-0.1,0.3-0.4,0.6-0.6,0.8c-0.3,0.2-0.6,0.3-1,0.3c-0.2,0-0.3-0.1-0.5-0.1l-0.5-0.2
		l-2-0.8c-0.7-0.3-1.4-0.6-2-0.8c-0.7-0.3-1.4-0.6-2-0.9l-4-1.8c-1.3-0.6-2.7-1.2-4-1.8l-2-0.9c-0.7-0.3-1.3-0.6-2-0.9
		c-0.7-0.3-1.3-0.6-2-0.9c-0.7-0.3-1.3-0.6-2-1c-0.7-0.3-1.3-0.7-1.9-1c-0.3-0.2-0.6-0.4-0.9-0.6c-0.1-0.1-0.3-0.2-0.4-0.3
		c-0.1-0.1-0.3-0.3-0.3-0.4l0,0c0.1,0.2,0.2,0.3,0.3,0.4c0.1,0.1,0.3,0.3,0.4,0.4c0.3,0.2,0.6,0.4,0.9,0.6C55,6.2,55.6,6.6,56.2,7
		c0.6,0.4,1.3,0.7,2,1c0.7,0.3,1.3,0.7,2,1c0.7,0.3,1.3,0.6,2,0.9c0.7,0.3,1.3,0.6,2,0.9c1.4,0.6,2.7,1.2,4.1,1.7
		c0.7,0.3,1.4,0.6,2,0.8l2,0.8c0.7,0.3,1.4,0.5,2,0.8c0.7,0.3,1.4,0.6,2,0.8c0.7,0.3,1.4,0.6,2,0.9l0.5,0.2c0.2,0.1,0.4,0.1,0.6,0.2
		c0.4,0.1,0.8,0,1.1-0.3c0.3-0.2,0.6-0.5,0.7-0.9c0.1-0.2,0.1-0.4,0.1-0.6c0-0.2,0-0.4-0.2-0.6l-0.1-0.1l-0.1,0l0,0l0,0l0,0
		c0,0-0.1,0-0.1-0.1c0,0-0.1-0.1-0.1-0.1c-0.1-0.1-0.1-0.3,0-0.4c0.1-0.3,0.3-0.6,0.5-0.9l0.1-0.1l-0.1-0.1L79.8,12
		c-0.5-0.3-1.1-0.5-1.6-0.8c-0.5-0.3-1.1-0.5-1.6-0.8C76.1,10.1,75.6,9.9,75,9.6L75,9.6z"/>
	<path style="fill:#401F16;" d="M78.9,16.8c0,0-0.1,0.1-0.4,0.2c-0.2,0.1-0.5,0.3-0.9,0.7c-0.2,0.2-0.3,0.4-0.5,0.7
		c0,0.1-0.1,0.1-0.1,0.2c0,0,0,0.1,0,0.1l0,0.1l0,0c0,0.1,0,0.2-0.1,0.2c0,0.1-0.1,0.1-0.1,0.2c-0.2,0.3-0.4,0.5-0.7,0.7
		c-0.3,0.2-0.6,0.4-1,0.6c-0.4,0.2-0.8,0.3-1.2,0.4l-0.2,0l-0.2,0c-0.1,0-0.2,0-0.3,0c-0.1,0-0.1,0-0.2,0c-0.1,0-0.1,0-0.2,0
		c-0.1,0-0.2-0.1-0.3-0.1c-0.5-0.1-1-0.1-1.5-0.2c-0.2,0-0.5-0.1-0.7-0.2c-0.2-0.1-0.3-0.3-0.4-0.6l-0.1-0.2l0-0.2
		c0-0.1,0-0.3-0.1-0.4c0-0.3,0-0.5-0.1-0.8c0-0.1-0.1-0.3-0.2-0.4c-0.1-0.1-0.2-0.2-0.3-0.3c-0.2-0.1-0.5-0.2-0.8-0.3
		c-0.5-0.2-1.1-0.3-1.6-0.5c-0.5-0.2-1.1-0.3-1.6-0.5c-1.1-0.3-2.1-0.7-3.2-1c-1-0.3-2.1-0.6-3.1-1c-1-0.3-1.9-0.6-2.8-0.9
		c-0.9-0.3-1.8-0.6-2.5-0.9c-0.8-0.3-1.5-0.5-2.1-0.8c-0.6-0.2-1.2-0.5-1.6-0.7c-0.4-0.2-0.8-0.4-1-0.6c-0.1-0.1-0.2-0.1-0.2-0.2
		c-0.1,0-0.1-0.1-0.1-0.1l0,0c0,0,0,0,0.1,0.1c0.1,0,0.1,0.1,0.2,0.2c0.2,0.2,0.5,0.4,0.9,0.6c0.8,0.5,2.1,1,3.7,1.6
		c0.8,0.3,1.6,0.6,2.5,0.9c0.9,0.3,1.9,0.6,2.9,0.9c1,0.3,2,0.6,3.1,0.9c1,0.3,2.1,0.6,3.2,0.9c1.1,0.3,2.1,0.6,3.2,0.9
		c0.3,0.1,0.5,0.2,0.7,0.3c0.2,0.1,0.4,0.3,0.4,0.6c0,0.3,0,0.5,0.1,0.8c0,0.1,0,0.3,0,0.4l0,0.2c0,0.1,0,0.1,0,0.2
		c0.1,0.3,0.2,0.5,0.4,0.7c0.2,0.2,0.5,0.3,0.7,0.3c0.5,0.1,1,0.1,1.4,0.2c0.1,0,0.2,0.1,0.3,0.1l0.2,0.1c0.1,0,0.1,0,0.2,0
		c0.1,0,0.2,0,0.4,0l0.2,0l0.2,0c0.5-0.1,0.9-0.2,1.3-0.4c0.4-0.2,0.7-0.4,1-0.7c0.3-0.2,0.6-0.5,0.7-0.8c0-0.1,0.1-0.2,0.1-0.2
		c0-0.1,0.1-0.2,0.1-0.2c0-0.1,0-0.1,0.1-0.2c0-0.1,0-0.1,0.1-0.2c0.1-0.3,0.2-0.5,0.4-0.7c0.3-0.4,0.6-0.6,0.8-0.7
		C78.8,16.9,78.9,16.8,78.9,16.8L78.9,16.8z"/>
	<path style="fill:#401F16;" d="M29,23.6l3.2,2.8l0-0.1l-5.8,0.9l-0.2,0l0.2,0.2l4,3.6l0,0l0,0c1.7,0.2,3.3,0.4,5,0.5
		c0.8,0.1,1.7,0.1,2.5,0.1c0.8,0,1.7,0,2.5-0.1c0.4,0,0.8-0.1,1.3-0.2c0.4-0.1,0.8-0.2,1.2-0.5c0.1-0.1,0.2-0.1,0.3-0.2
		c0.1-0.1,0.2-0.2,0.2-0.3c0.1-0.2,0.2-0.4,0.3-0.6c0.2-0.4,0.3-0.8,0.5-1.1c0.4-0.7,0.9-1.4,1.6-1.9c0.6-0.5,1.4-0.9,2.1-1.3
		l0.6-0.3c0.2-0.1,0.4-0.2,0.6-0.3l0.6-0.3l0.6-0.3l1.2-0.5c0.4-0.2,0.8-0.3,1.2-0.5c0.8-0.4,1.5-0.7,2.2-1.2
		c0.1-0.1,0.2-0.1,0.3-0.2c0.1-0.1,0.2-0.1,0.3-0.2c0.2-0.1,0.3-0.3,0.5-0.4c0,0,0,0,0.1,0l0.1,0c0,0,0.1,0,0.1,0c0.1,0,0.2,0,0.3,0
		c0.2,0,0.4,0,0.6,0c0.2,0,0.4,0,0.6,0c0.2,0,0.4,0,0.6-0.1c0.4-0.1,0.8-0.2,1.2-0.3c0.8-0.2,1.6-0.4,2.4-0.7
		c1.6-0.5,3.2-1.1,4.8-1.7l0.3-0.1l-0.4-0.1c-0.4-0.1-0.7-0.1-1.1-0.2l-0.5-0.1l-0.5-0.2c-0.4-0.1-0.7-0.2-1.1-0.3
		c-0.4-0.1-0.7-0.2-1.1-0.4l-1.1-0.4L60,16.5l-2.1-0.8c-1.4-0.5-2.8-1.1-4.3-1.6l-2.1-0.8l-1.1-0.4l-0.5-0.2l-0.3-0.1
		c-0.1,0-0.2-0.1-0.3-0.1l0.1,0L46.3,11l0,0l0,0c-0.3,0-0.7,0-1,0c-0.3,0-0.7,0.1-1,0.2c-0.2,0.1-0.3,0.2-0.5,0.3
		c-0.1,0.2-0.2,0.4-0.2,0.6c0,0.4,0.2,0.7,0.4,1c0.2,0.3,0.4,0.5,0.7,0.8c0.1,0.1,0.2,0.2,0.4,0.4l0.2,0.2l0,0l0.1,0l0.1,0.1
		c0.3,0.2,0.5,0.4,0.8,0.6c0.1,0.1,0.3,0.2,0.4,0.3l0.4,0.3c0.3,0.2,0.6,0.3,0.9,0.5c0.3,0.1,0.6,0.3,0.9,0.4
		c0.3,0.1,0.6,0.2,0.9,0.4c0.3,0.1,0.6,0.2,1,0.3c0.3,0.1,0.6,0.2,1,0.3c0.3,0.1,0.7,0.2,1,0.2c0.7,0.2,1.3,0.3,2,0.4l0,0l0,0
		l5.9,0.2l5.9,0.2l0,0l-5.9-0.3l-5.9-0.3l0,0c-0.7-0.1-1.3-0.2-2-0.4c-0.3-0.1-0.6-0.2-1-0.3c-0.3-0.1-0.6-0.2-1-0.3
		c-0.3-0.1-0.6-0.2-0.9-0.3c-0.3-0.1-0.6-0.2-0.9-0.4c-0.3-0.1-0.6-0.3-0.9-0.4c-0.3-0.2-0.6-0.3-0.9-0.5l-0.4-0.2
		c-0.1-0.1-0.3-0.2-0.4-0.3c-0.1-0.1-0.3-0.2-0.4-0.3l-0.4-0.3l-0.1-0.1l0,0l0,0L45.2,14c-0.1-0.1-0.2-0.2-0.4-0.3
		c-0.2-0.2-0.4-0.5-0.6-0.7c-0.2-0.3-0.3-0.5-0.4-0.8c0-0.1,0-0.3,0.1-0.3c0.1-0.1,0.2-0.2,0.3-0.2c0.3-0.1,0.6-0.2,0.9-0.2
		c0.3,0,0.7,0,1,0l-0.1,0l3.1,1.5l0.1,0l1,0.4l1.1,0.4l2.1,0.8c1.4,0.5,2.8,1.1,4.3,1.6c0.7,0.3,1.4,0.5,2.1,0.8l1.1,0.4l1.1,0.4
		c0.4,0.1,0.7,0.2,1.1,0.3c0.4,0.1,0.7,0.2,1.1,0.3l0.5,0.2l0.6,0.1c0.4,0.1,0.7,0.2,1.1,0.2l0-0.2c-1.6,0.6-3.1,1.2-4.7,1.7
		c-0.8,0.3-1.6,0.5-2.4,0.7c-0.4,0.1-0.8,0.2-1.2,0.3c-0.2,0-0.4,0.1-0.6,0.1c-0.2,0-0.4,0-0.6,0c-0.2,0-0.4,0-0.6,0
		c-0.1,0-0.2,0-0.3,0c-0.1,0-0.1,0-0.2,0l-0.1,0c0,0-0.1,0-0.1,0c-0.2,0.2-0.3,0.3-0.5,0.4c-0.1,0.1-0.2,0.1-0.3,0.2
		c-0.1,0.1-0.2,0.1-0.3,0.2c-0.7,0.4-1.5,0.8-2.2,1.2c-0.4,0.2-0.8,0.3-1.2,0.5l-1.2,0.5l-0.6,0.3l-0.6,0.3
		c-0.2,0.1-0.4,0.2-0.6,0.3l-0.6,0.3c-0.7,0.4-1.5,0.8-2.2,1.3c-0.7,0.5-1.3,1.2-1.6,1.9c-0.2,0.4-0.4,0.8-0.5,1.1
		c-0.1,0.2-0.2,0.4-0.3,0.5c-0.1,0.2-0.2,0.3-0.4,0.4c-0.3,0.2-0.7,0.3-1.1,0.4c-0.4,0.1-0.8,0.1-1.2,0.2c-0.8,0.1-1.7,0.1-2.5,0.1
		c-0.8,0-1.7-0.1-2.5-0.1c-1.7-0.1-3.3-0.3-5-0.5l0.1,0l-4-3.6l-0.1,0.2l5.8-1l0.1,0l-0.1-0.1L29,23.6L29,23.6z"/>
	<path style="fill:#401F16;" d="M54.7,18c-1.2-0.3-2.4-0.5-3.6-0.7c-0.3,0-0.6-0.1-0.9-0.1c-0.3,0-0.6-0.1-0.9-0.1
		c-0.3,0-0.6-0.1-0.9-0.1c-0.3,0-0.6,0-0.9-0.1c-0.3,0-0.6,0-0.9,0c-0.3,0-0.6,0-0.9,0c-0.3,0-0.6,0-0.9,0c-0.3,0-0.6,0-0.9,0.1
		c-0.3,0-0.6,0.1-0.9,0.1c-0.1,0-0.3,0.1-0.4,0.1l-0.2,0l-0.2,0.1l-0.2,0.1l-0.2,0.1l-0.2,0.1l-0.2,0.1c-0.3,0.1-0.5,0.3-0.8,0.5
		l0.1,0c-0.3-0.3-0.6-0.7-1-1l-1-1l-1-1l-1-1l0,0l0,0c-0.5-0.2-1-0.5-1.4-0.7l-1.4-0.7c-0.5-0.2-1-0.5-1.4-0.7
		C32,11.5,31.5,11.3,31,11c-0.9-0.5-1.9-1-2.8-1.6C28,9.3,27.8,9.1,27.6,9c-0.2-0.1-0.4-0.3-0.7-0.5c-0.2-0.2-0.4-0.3-0.6-0.5
		c-0.2-0.2-0.4-0.4-0.6-0.6l0,0c0.2,0.2,0.3,0.4,0.5,0.6c0.2,0.2,0.4,0.4,0.6,0.5C27,8.8,27.2,9,27.5,9.1c0.2,0.2,0.4,0.3,0.7,0.5
		c0.2,0.2,0.4,0.3,0.7,0.4c0.2,0.1,0.5,0.3,0.7,0.4c0.5,0.3,0.9,0.6,1.4,0.8c0.9,0.5,1.9,1,2.8,1.5c0.5,0.2,1,0.5,1.5,0.7
		c0.5,0.2,1,0.5,1.5,0.7l0,0l1,1l1,1l1,1c0.3,0.3,0.7,0.7,1,1l0,0l0,0c0.2-0.2,0.5-0.4,0.7-0.5l0.2-0.1c0.1,0,0.1,0,0.2-0.1l0.2-0.1
		l0.2-0.1l0.2-0.1l0.2,0c0.1,0,0.3-0.1,0.4-0.1c0.3,0,0.6-0.1,0.9-0.1c0.3,0,0.6,0,0.9,0c0.3,0,0.6,0,0.9,0c0.3,0,0.6,0,0.9,0
		c0.3,0,0.6,0,0.9,0l0.9,0.1c0.3,0,0.6,0,0.9,0.1c0.6,0.1,1.2,0.1,1.8,0.2c0.6,0.1,1.2,0.1,1.8,0.2C53.5,17.9,54.1,18,54.7,18
		L54.7,18z"/>
	<path style="fill:#401F16;" d="M33.7,21.6c-0.2,0.1-0.4,0.1-0.6,0.2c-0.2,0.1-0.4,0.1-0.6,0.2l-1.2,0.5c-0.8,0.3-1.6,0.6-2.4,1
		l0.1,0c-0.7-0.2-1.4-0.4-2-0.6c-0.3-0.1-0.7-0.2-1-0.3c-0.3-0.1-0.7-0.2-1-0.4c-0.7-0.3-1.3-0.6-1.9-0.9l-1.9-0.9l-1-0.5l-0.9-0.5
		l-0.9-0.5c-0.3-0.2-0.6-0.3-0.9-0.5c-0.3-0.2-0.6-0.3-0.9-0.5c-0.3-0.2-0.6-0.4-0.9-0.5c-0.3-0.2-0.6-0.4-0.9-0.6
		c-0.3-0.2-0.5-0.4-0.8-0.7l0,0c0.2,0.3,0.4,0.6,0.7,0.8c0.3,0.2,0.5,0.5,0.8,0.7c0.3,0.2,0.6,0.4,0.9,0.6c0.3,0.2,0.6,0.4,0.9,0.6
		c0.3,0.2,0.6,0.3,0.9,0.5c0.3,0.2,0.6,0.3,0.9,0.5c0.6,0.3,1.3,0.6,1.9,0.9c0.6,0.3,1.3,0.6,2,0.8l2,0.8l0.2,0.1l0.3,0.1l0.5,0.2
		c0.3,0.1,0.7,0.2,1,0.4c0.7,0.2,1.3,0.5,2,0.7l0,0l0.1,0c0.8-0.3,1.6-0.7,2.4-1l1.2-0.5c0.2-0.1,0.4-0.2,0.6-0.3
		C33.4,21.8,33.5,21.7,33.7,21.6L33.7,21.6z"/>
	<path style="fill:#401F16;" d="M26.4,27.3c-0.3-0.1-0.5-0.1-0.8-0.2c-0.3-0.1-0.5-0.1-0.8-0.1c-0.3,0-0.5-0.1-0.8-0.1l-0.8-0.1
		c-0.5-0.1-1-0.2-1.5-0.2c-0.5-0.1-1-0.1-1.5-0.2l0,0c-0.3-0.1-0.5-0.2-0.8-0.3c-0.2-0.1-0.5-0.2-0.7-0.3L18,25.4L17.3,25l-1.4-0.7
		c-0.5-0.2-1-0.5-1.4-0.7c-0.5-0.3-0.9-0.5-1.4-0.8c-0.2-0.1-0.5-0.3-0.7-0.4L11.6,22c-0.2-0.1-0.5-0.3-0.7-0.4
		c-0.2-0.1-0.5-0.3-0.7-0.4c-0.2-0.1-0.4-0.3-0.6-0.5c-0.2-0.2-0.4-0.4-0.6-0.6l0,0c0.1,0.2,0.3,0.4,0.5,0.6
		c0.1,0.1,0.2,0.2,0.3,0.3c0.1,0.1,0.2,0.2,0.3,0.3c0.2,0.2,0.4,0.3,0.6,0.5c0.2,0.2,0.4,0.3,0.7,0.5c0.2,0.1,0.5,0.3,0.7,0.4
		c0.2,0.1,0.5,0.3,0.7,0.4c0.5,0.3,1,0.5,1.4,0.7c0.5,0.2,1,0.5,1.5,0.7c0.5,0.2,1,0.4,1.5,0.6l0.7,0.3l0.7,0.3
		c0.2,0.1,0.5,0.2,0.7,0.3l0.7,0.3l0,0l0,0c0.5,0.1,1,0.2,1.5,0.3c0.5,0.1,1,0.2,1.5,0.2l0.8,0.1c0.3,0,0.5,0.1,0.8,0.1
		c0.3,0,0.5,0.1,0.8,0.1C25.9,27.3,26.1,27.3,26.4,27.3L26.4,27.3z"/>
	<path style="fill:#401F16;" d="M30.4,30.9l-4.9,0.2l-1.2,0l-1.2,0c-0.2,0-0.4,0-0.6,0c-0.2,0-0.4,0-0.6,0c-0.2,0-0.4,0-0.6,0
		c-0.2,0-0.4-0.1-0.6-0.1l0,0l0,0c-0.3,0.1-0.7,0.1-1,0.2c-0.4,0-0.7,0-1.1,0c-0.4,0-0.7-0.1-1-0.1c-0.3-0.1-0.7-0.2-1-0.4
		c-1.3-0.6-2.5-1.3-3.8-1.9c-0.6-0.3-1.3-0.7-1.9-1c-0.6-0.3-1.2-0.7-1.9-1c-0.3-0.2-0.6-0.4-0.9-0.6c-0.3-0.2-0.6-0.4-0.9-0.6
		c-0.3-0.2-0.6-0.4-0.8-0.6c-0.3-0.2-0.5-0.5-0.8-0.7l0,0c0.2,0.3,0.4,0.6,0.7,0.8c0.3,0.3,0.5,0.5,0.8,0.7c0.3,0.2,0.6,0.4,0.9,0.6
		c0.3,0.2,0.6,0.4,0.9,0.6c0.6,0.4,1.2,0.8,1.8,1.1c0.6,0.4,1.2,0.7,1.9,1c1.3,0.6,2.6,1.3,3.9,1.8c0.3,0.1,0.7,0.3,1,0.3
		c0.4,0.1,0.7,0.1,1.1,0.1c0.4,0,0.7,0,1.1-0.1c0.4,0,0.7-0.1,1.1-0.2l0,0c0.2,0,0.4,0.1,0.6,0.1c0.2,0,0.4,0.1,0.6,0.1
		c0.2,0,0.4,0,0.6,0.1c0.2,0,0.4,0,0.6,0l0.6,0l0.6,0c0.4,0,0.8,0,1.2,0c0.8,0,1.6-0.1,2.5-0.2c0.4,0,0.8-0.1,1.2-0.1
		C29.6,31,30,31,30.4,30.9L30.4,30.9z"/>
	<path style="fill:#401F16;" d="M72.4,20.8c-1.1,0.7-2.3,1.3-3.5,2c-1.2,0.6-2.3,1.2-3.5,1.8c-0.6,0.3-1.2,0.6-1.8,0.9
		c-0.6,0.3-1.2,0.6-1.8,0.8c-0.6,0.3-1.2,0.5-1.8,0.8c-0.6,0.3-1.2,0.5-1.8,0.8c-2.5,1-4.9,1.9-7.5,2.6l-1,0.3l-1,0.2
		c-0.3,0.1-0.6,0.1-1,0.2l-0.5,0.1l-0.5,0.1c-0.7,0.1-1.3,0.2-2,0.3c-0.3,0-0.7,0.1-1,0.1l-1,0l0.1,0l-1.3-0.7l-0.2-0.1l0,0.2
		c0,0.2,0,0.4-0.1,0.6c-0.1,0.2-0.2,0.4-0.3,0.5c-0.3,0.3-0.6,0.6-1,0.8c-0.2,0.1-0.4,0.2-0.6,0.3c-0.2,0.1-0.4,0.2-0.6,0.2
		c-0.2,0.1-0.4,0.2-0.6,0.2C38,34,37.8,34,37.6,34.1c-0.4,0.1-0.8,0.2-1.2,0.3l-0.6,0.1l-0.6,0.1c-0.4,0.1-0.9,0.1-1.3,0.2
		c-0.4,0-0.9,0.1-1.3,0.1c-0.4,0-0.9,0.1-1.3,0.1c-0.4,0-0.9,0.1-1.3,0.1c-0.4,0-0.9,0-1.3,0l-1.3,0l-1.3,0c-0.4,0-0.9,0-1.3,0
		c-0.4,0-0.9,0-1.3,0L22.2,35l0,0c-2.1-0.6-4.3-1.2-6.4-1.8c-1.1-0.3-2.2-0.6-3.2-0.9c-0.5-0.1-1.1-0.3-1.6-0.4
		c-0.5-0.1-1.1-0.2-1.6-0.3c-1.1-0.2-2.2-0.4-3.3-0.5c-0.5-0.1-1.1-0.2-1.6-0.3c0,0-0.1,0-0.1,0l-0.1,0c-0.1,0-0.1,0-0.2-0.1
		l-0.2-0.1c-0.1,0-0.1-0.1-0.1-0.1c-0.2-0.2-0.3-0.4-0.4-0.6c-0.1-0.2-0.1-0.5-0.1-0.8c0-0.3,0-0.5,0.1-0.8c0.1-0.5,0.3-1.1,0.5-1.6
		c0.2-0.5,0.4-1,0.7-1.5c0.3-0.5,0.5-1,0.8-1.4l0,0l0,0l0.1-0.4c0-0.1,0.1-0.2,0.1-0.4l0.1-0.3c0-0.1,0.1-0.2,0.2-0.3L5.9,22
		C5.9,21.9,6,21.8,6,21.7c0.1-0.1,0.1-0.2,0.2-0.3L6.5,21l0.2-0.3c0.1-0.1,0.2-0.2,0.2-0.3c0.1-0.1,0.2-0.2,0.3-0.3
		c0.1-0.1,0.2-0.2,0.3-0.2c0.1-0.1,0.2-0.2,0.3-0.2c0.1-0.1,0.2-0.1,0.3-0.2c0.1-0.1,0.2-0.1,0.3-0.2c0.1-0.1,0.2-0.1,0.3-0.2l0.1,0
		l0-0.1c0-0.1,0.1-0.3,0.1-0.4c0-0.1,0.1-0.2,0.1-0.4c0.1-0.1,0.1-0.2,0.2-0.3c0.1-0.1,0.1-0.2,0.2-0.3c0.3-0.4,0.7-0.8,1.2-1.1
		c0.4-0.3,0.9-0.6,1.4-0.8c0.2-0.1,0.5-0.2,0.8-0.3c0.3-0.1,0.5-0.2,0.8-0.3l0.1,0l0-0.1l0.2-0.4l0.1-0.2l0.1-0.2
		c0.1-0.1,0.1-0.3,0.2-0.4l0.3-0.4c0.1-0.1,0.2-0.2,0.3-0.3c0.1-0.1,0.2-0.2,0.3-0.3l0.3-0.3l0.3-0.3c0.1-0.1,0.2-0.2,0.3-0.3
		c0.1-0.1,0.2-0.2,0.4-0.3c0.1-0.1,0.2-0.2,0.4-0.2c0.1-0.1,0.2-0.2,0.4-0.2c0.1-0.1,0.3-0.1,0.4-0.2c0.1-0.1,0.3-0.1,0.4-0.2
		c0.3-0.1,0.5-0.2,0.8-0.3l0,0l0,0l0.3-0.4c0.1-0.1,0.2-0.3,0.3-0.4l0.3-0.4C19.8,9.2,20,9.1,20.1,9c0.1-0.1,0.2-0.2,0.4-0.3
		l0.4-0.3L21.2,8c0.1-0.1,0.3-0.2,0.4-0.3c0.1-0.1,0.3-0.2,0.4-0.2c0.1-0.1,0.3-0.2,0.4-0.2L23,7.1l0.5-0.2l0.5-0.2
		c0.2,0,0.3-0.1,0.5-0.1c0.3-0.1,0.6-0.2,1-0.2l0,0l0,0l0.9-0.9l0.5-0.4C26.9,5,27,4.8,27.2,4.7l0.5-0.4c0.1-0.1,0.2-0.1,0.3-0.2
		L28.2,4c0.2-0.1,0.4-0.2,0.5-0.3l0.6-0.3c0.2-0.1,0.4-0.2,0.6-0.2l0.3-0.1c0.1,0,0.2-0.1,0.3-0.1c0.2,0,0.4-0.1,0.6-0.1
		c0.2,0,0.4-0.1,0.6-0.1c0.2,0,0.4,0,0.6,0c0.1,0,0.2,0,0.3,0l0.3,0c0.1,0,0.2,0,0.3,0c0.1,0,0.2,0,0.3,0.1c0.2,0,0.4,0.1,0.6,0.2
		l0,0C34,3,33.8,3,33.6,2.9c-0.1,0-0.2,0-0.3-0.1c-0.1,0-0.2,0-0.3-0.1l-0.3,0c-0.1,0-0.2,0-0.3,0c-0.2,0-0.4,0-0.6,0
		c-0.2,0-0.4,0-0.6,0.1c-0.2,0-0.4,0.1-0.6,0.1c-0.1,0-0.2,0-0.3,0.1l-0.3,0.1c-0.2,0.1-0.4,0.1-0.6,0.2l-0.6,0.3
		c-0.2,0.1-0.4,0.2-0.5,0.3L27.9,4c-0.1,0.1-0.2,0.1-0.3,0.2l-0.5,0.4c-0.2,0.1-0.3,0.3-0.5,0.4l-0.5,0.4l-0.9,0.9l0.1,0
		c-0.3,0-0.7,0.1-1,0.2c-0.2,0-0.3,0.1-0.5,0.1l-0.5,0.2l-0.5,0.2l-0.5,0.2c-0.2,0.1-0.3,0.2-0.5,0.2c-0.2,0.1-0.3,0.2-0.4,0.2
		c-0.1,0.1-0.3,0.2-0.4,0.3l-0.4,0.3l-0.4,0.3c-0.1,0.1-0.3,0.2-0.4,0.3c-0.1,0.1-0.2,0.2-0.4,0.3l-0.3,0.4
		c-0.1,0.1-0.2,0.3-0.3,0.4l-0.3,0.4l0.1-0.1c-0.3,0.1-0.6,0.2-0.8,0.3c-0.1,0.1-0.3,0.1-0.4,0.2c-0.1,0.1-0.3,0.1-0.4,0.2
		c-0.1,0.1-0.3,0.2-0.4,0.2c-0.1,0.1-0.3,0.2-0.4,0.2c-0.1,0.1-0.2,0.2-0.4,0.3c-0.1,0.1-0.2,0.2-0.4,0.3l-0.3,0.3l-0.3,0.3
		c-0.1,0.1-0.2,0.2-0.3,0.3c-0.1,0.1-0.2,0.2-0.3,0.4L14,13.7c-0.1,0.1-0.2,0.3-0.2,0.4l-0.1,0.2l-0.1,0.2l-0.2,0.4l0.1-0.1
		c-0.3,0.1-0.5,0.2-0.8,0.3c-0.3,0.1-0.5,0.2-0.8,0.3c-0.5,0.2-1,0.5-1.5,0.9C10,16.6,9.6,17,9.2,17.4C9.1,17.5,9,17.7,9,17.8
		c-0.1,0.1-0.1,0.3-0.2,0.4c-0.1,0.1-0.1,0.3-0.2,0.4c0,0.1-0.1,0.3-0.1,0.4l0.1-0.1C8.5,18.9,8.4,19,8.2,19
		c-0.1,0.1-0.2,0.1-0.3,0.2c-0.1,0.1-0.2,0.1-0.3,0.2c-0.1,0.1-0.2,0.2-0.3,0.2C7.2,19.8,7.1,19.9,7,20c-0.1,0.1-0.2,0.2-0.3,0.3
		c-0.1,0.1-0.2,0.2-0.3,0.3l-0.2,0.3L6,21.2c-0.1,0.1-0.1,0.2-0.2,0.3c-0.1,0.1-0.1,0.2-0.2,0.3l-0.2,0.4c-0.1,0.1-0.1,0.2-0.2,0.4
		l-0.1,0.4C5,23,5,23.1,5,23.3l-0.1,0.4l0,0c-0.3,0.5-0.6,1-0.8,1.5c-0.3,0.5-0.5,1-0.7,1.5c-0.2,0.5-0.4,1.1-0.5,1.6
		c-0.1,0.6-0.1,1.1,0.1,1.7c0.1,0.3,0.3,0.5,0.5,0.7c0.1,0,0.1,0.1,0.2,0.1l0.2,0.1C3.9,30.9,4,31,4.1,31l0.1,0c0.1,0,0.1,0,0.1,0
		c0.6,0.1,1.1,0.2,1.7,0.3c1.1,0.2,2.2,0.3,3.3,0.5c0.5,0.1,1.1,0.2,1.6,0.3c0.5,0.1,1.1,0.3,1.6,0.4c1.1,0.3,2.2,0.5,3.2,0.8
		c2.2,0.6,4.3,1.2,6.4,1.8l0,0l0,0l1.3,0c0.4,0,0.9,0,1.3,0c0.4,0,0.9,0,1.3,0l1.3,0l1.3,0c0.4,0,0.9,0,1.3,0c0.4,0,0.9,0,1.3-0.1
		c0.4,0,0.9-0.1,1.3-0.1c0.4,0,0.9-0.1,1.3-0.1c0.4-0.1,0.9-0.1,1.3-0.2l0.6-0.1l0.6-0.1c0.4-0.1,0.8-0.2,1.3-0.3
		c0.2-0.1,0.4-0.1,0.6-0.2c0.2-0.1,0.4-0.1,0.6-0.2c0.2-0.1,0.4-0.2,0.6-0.2c0.2-0.1,0.4-0.2,0.6-0.3c0.4-0.2,0.7-0.5,1-0.8
		c0.2-0.2,0.3-0.3,0.4-0.6c0.1-0.2,0.2-0.4,0.1-0.7l-0.2,0.1l1.3,0.7l0,0l0,0l1,0c0.3,0,0.7,0,1-0.1c0.7-0.1,1.3-0.1,2-0.3l0.5-0.1
		l0.5-0.1c0.3-0.1,0.7-0.1,1-0.2l1-0.2l1-0.3c2.6-0.7,5.1-1.6,7.5-2.7c0.6-0.3,1.2-0.5,1.8-0.8c0.6-0.3,1.2-0.6,1.8-0.8
		c0.6-0.3,1.2-0.6,1.8-0.9c0.6-0.3,1.2-0.6,1.8-0.9c1.2-0.6,2.3-1.2,3.5-1.9C70.1,22.2,71.2,21.6,72.4,20.8L72.4,20.8z"/>
	<path style="fill:#401F16;" d="M22.2,35.1c0,0-0.3,0-0.8-0.1c-0.3,0-0.6,0-0.9-0.1c-0.4,0-0.8,0-1.2-0.1c-0.5,0-0.9,0-1.5-0.1
		c-0.5,0-1.1,0-1.6-0.1c-0.6,0-1.1-0.1-1.7-0.1c-0.3,0-0.6-0.1-0.9-0.1c-0.3,0-0.6-0.1-0.9-0.1c-0.6-0.1-1.2-0.2-1.8-0.3
		c-0.6-0.1-1.2-0.2-1.7-0.4c-0.5-0.1-1.1-0.3-1.6-0.4c-0.5-0.1-0.9-0.3-1.4-0.5c-0.4-0.2-0.8-0.4-1.1-0.6c-0.3-0.2-0.5-0.4-0.6-0.6
		c-0.1-0.2-0.2-0.4-0.2-0.5c0-0.1,0-0.2,0-0.2l0,0c0,0,0,0.1,0,0.2c0,0.1,0,0.4,0.2,0.6c0.1,0.2,0.3,0.5,0.6,0.7
		c0.3,0.2,0.7,0.5,1.1,0.7c0.4,0.2,0.9,0.4,1.4,0.5C8,33.8,8.5,33.9,9,34c0.6,0.1,1.1,0.2,1.7,0.3c0.6,0.1,1.2,0.2,1.8,0.2
		c0.6,0.1,1.2,0.1,1.8,0.2c0.6,0.1,1.2,0.1,1.7,0.2c0.6,0.1,1.1,0.1,1.6,0.2c0.5,0,1,0.1,1.5,0.1c0.5,0,0.9,0,1.2,0c0.4,0,0.7,0,1,0
		C21.9,35.1,22.2,35.1,22.2,35.1L22.2,35.1z"/>
	<path style="fill:#401F16;" d="M70.2,20.1l-1.5,0.3c-0.5,0.1-1,0.2-1.5,0.3l-1.5,0.3L65,21.2c-0.2,0.1-0.5,0.1-0.7,0.1
		c-0.2,0-0.5,0.1-0.7,0.1l-0.7,0.1l-0.7,0.1c-0.2,0-0.5,0.1-0.7,0.1c-0.2,0-0.5,0.1-0.7,0.1c-0.2,0-0.5,0.1-0.7,0.1l-0.7,0l-0.7,0
		l0,0l0,0c-0.3,0.2-0.7,0.3-1,0.5c-0.3,0.2-0.7,0.3-1,0.5c-0.7,0.3-1.4,0.6-2.1,0.9c-0.4,0.1-0.7,0.3-1.1,0.4
		c-0.4,0.1-0.7,0.3-1.1,0.4c-0.4,0.1-0.7,0.3-1.1,0.4c-0.4,0.1-0.7,0.2-1.1,0.3c-0.2,0.1-0.4,0.1-0.5,0.2l-0.3,0.1l-0.1,0l-0.1,0
		c-0.4,0.1-0.7,0.2-1.1,0.4c-0.2,0.1-0.3,0.2-0.5,0.3c-0.2,0.1-0.3,0.2-0.5,0.3c-0.1,0.1-0.3,0.3-0.4,0.4c-0.1,0.1-0.3,0.3-0.4,0.4
		c-0.1,0.2-0.2,0.3-0.4,0.5c-0.1,0.2-0.2,0.3-0.3,0.5c-0.2,0.3-0.4,0.7-0.5,1c-0.1,0.2-0.2,0.4-0.2,0.5c-0.1,0.2-0.1,0.4-0.2,0.6
		c-0.1,0.4-0.2,0.8-0.1,1.1l0,0c0-0.4,0.1-0.7,0.2-1.1c0.1-0.2,0.1-0.4,0.2-0.5c0.1-0.2,0.1-0.3,0.2-0.5c0.2-0.3,0.4-0.7,0.6-1
		c0.1-0.2,0.2-0.3,0.3-0.5c0.1-0.1,0.2-0.3,0.4-0.4c0.1-0.1,0.3-0.3,0.4-0.4c0.1-0.1,0.3-0.2,0.4-0.4c0.1-0.1,0.3-0.2,0.5-0.3
		c0.2-0.1,0.3-0.2,0.5-0.3c0.3-0.2,0.7-0.3,1-0.4l0.1,0l0.1,0l0.1,0l0.3-0.1c0.2,0,0.4-0.1,0.6-0.2c0.4-0.1,0.7-0.2,1.1-0.4
		c0.4-0.1,0.7-0.3,1.1-0.4c0.4-0.1,0.7-0.3,1.1-0.5c0.4-0.2,0.7-0.3,1-0.5c0.7-0.3,1.4-0.7,2.1-1l1-0.5l1-0.5l0,0l0.8,0l0.8,0
		c0.3,0,0.5,0,0.8,0c0.3,0,0.5,0,0.8-0.1c0.3,0,0.5,0,0.7-0.1c0.2,0,0.5-0.1,0.7-0.1l0.7-0.1c0.2,0,0.5-0.1,0.7-0.1
		c0.2,0,0.5-0.1,0.7-0.2l0.7-0.2l0.7-0.2c0.2-0.1,0.5-0.1,0.7-0.2c0.5-0.1,1-0.3,1.4-0.4C69.2,20.4,69.7,20.3,70.2,20.1L70.2,20.1z"
		/>
</g>
</svg>
