<svg id="Layer_1" data-name="Layer 1" xmlns="http://www.w3.org/2000/svg" viewBox="0 0 445.86 138.91"><defs><style>.cls-1{fill:#6a7238;}.cls-2{fill:#575e2a;}.cls-3{fill:#525b2f;}.cls-4{fill:#5c6635;}.cls-5{fill:#555e30;}.cls-6{fill:#8a9352;}.cls-7{fill:#232813;}.cls-8{fill:#918940;}.cls-9{fill:#495424;}.cls-10{fill:#a59e47;}.cls-11{fill:#414c1e;}.cls-12{fill:#384222;}.cls-13{fill:#505927;}.cls-14{fill:#726a33;}.cls-15{fill:#5c6631;}.cls-16{fill:#baae5b;}.cls-17{fill:#777c42;}.cls-18{fill:#81874c;}.cls-19{fill:#38421c;}.cls-20{fill:#616b34;}.cls-21{fill:#685f2e;}.cls-22{fill:#7a713b;}.cls-23{fill:#404928;}.cls-24{fill:#444c2b;}.cls-25{fill:#485127;}.cls-26{fill:#2a3316;}.cls-27{fill:#869b2c;}.cls-28{fill:#a8b240;}.cls-29{fill:#fff;}.cls-30{fill:#282424;}.cls-31{fill:#444c26;}.cls-32{fill:#7f743d;}.cls-33{fill:#7c7239;}.cls-34{fill:#666550;}.cls-35{fill:#8e8e78;}</style></defs><title>Crocodial</title><path class="cls-1" d="M161.24,11.84s-.07-5.56-5.49-6.66-14.46,3.09-21.2,18.18C149.19,24.93,161.24,11.84,161.24,11.84Z"/><path class="cls-2" d="M160.48,8.87a8.21,8.21,0,0,1,.75,3s-12.05,13.09-26.69,11.52c3.18-7.12,6.88-11.78,10.46-14.63C142.68,13.33,153.88,13.65,160.48,8.87Z"/><path class="cls-3" d="M268.79,14.76s2.12-.89,6.42-.16c0,0,2.37-2.18,6.95-1.69,0,0,2.53-2.88,8-2.62a20.75,20.75,0,0,1,11-1.73s4.76-3.06,13.53-3.11c0,0,16.69-5.88,22.38-5.42,10.44.84,23.25,2.1,40.18,8.83,5.21-.21,15.24,1.66,17.61,8.4C398,18.43,275.78,85.37,93.81,44c-31.15-7.08-18.86-25.7-18.86-25.7s2.68-1.4,4.13,2.43c1.39-.41,3.62.23,4.59,3.19.67-1,3.21-1.24,4.35,1.75.71-1.2,2.76-1.38,3.89.94,1-1.41,3.06-.31,3.83,1.36.63-1.45,3-2.28,4.72.14a2.52,2.52,0,0,1,4.1.16c.82-1.34,2.24-3,5.19-.5.76-1.48,2-3.09,6-1.26.79-1.74,2.67-3.13,7.52-2.17.71-1.85,3.58-3.09,7.16-2.35,2-2.79,6.32-2.32,8.29-1.36a5.34,5.34,0,0,1,5.42-2.35c.23-1.3,1.9-3.48,6-2.33.3-1,3.15-3.73,7-2.64.77-1.46,3.75-3.92,6.64-3.56C164.8,8,167.5,7,169,7.56c.87-1.56,3.64-2.23,5.6-2,1.1-1.33,3.43-2.41,8.09-1.73,1.86-1.61,5.09-1.86,7.54-1.29,1-.66,4.79-1.5,8.63-.54a12.31,12.31,0,0,1,7.11.08c2.08-1.28,5.81-1.29,8.57.18,2.76-1.13,6-1.09,9.79,1.12a12.72,12.72,0,0,1,9.39,1.36c2.15-.63,7.08.42,9.2,2.06A13.23,13.23,0,0,1,251,8.39a11.48,11.48,0,0,1,7.72,2A20.05,20.05,0,0,1,268.79,14.76Z"/><path class="cls-1" d="M268.79,14.76a10,10,0,0,0,6.42-.16s2.37-2.18,6.95-1.69c0,0,2.53-2.88,8-2.62a20.75,20.75,0,0,1,11-1.73s4.76-3.06,13.53-3.11c0,0,16.69-5.88,22.38-5.42,10.44.84,23.25,2.1,40.18,8.83,5.21-.21,15.24,1.66,17.61,8.4C398,18.43,275.78,85.37,93.81,44c-31.15-7.08-18.86-25.7-18.86-25.7s2.68-1.4,4.13,2.43c1.39-.41,3.62.23,4.59,3.19.67-1,3.21-1.24,4.35,1.75.71-1.2,2.76-1.38,3.89.94,1-1.41,3.06-.31,3.83,1.36.63-1.45,3-2.28,4.72.14a2.52,2.52,0,0,1,4.1.16c.82-1.34,2.24-3,5.19-.5.76-1.48,2-3.09,6-1.26.79-1.74,2.67-3.13,7.52-2.17.71-1.85,3.58-3.09,7.16-2.35,2-2.79,6.32-2.32,8.29-1.36a5.34,5.34,0,0,1,5.42-2.35c.23-1.3,1.9-3.48,6-2.33.3-1,3.15-3.73,7-2.64.77-1.46,3.75-3.92,6.64-3.56C164.8,8,167.5,7,169,7.56c.87-1.56,3.64-2.23,5.6-2,1.1-1.33,3.43-2.41,8.09-1.73,1.86-1.61,5.09-1.86,7.54-1.29A17.78,17.78,0,0,0,198.87,2a13.27,13.27,0,0,0,7.11.08,21.8,21.8,0,0,0,8.57.18,35.9,35.9,0,0,0,9.79,1.12c6.21,1.83,9.39,1.36,9.39,1.36a17.23,17.23,0,0,0,9.2,2.06c5.5,2.44,8.07,1.59,8.07,1.59a16.87,16.87,0,0,0,7.72,2C262.78,13.39,268.79,14.76,268.79,14.76Z"/><path class="cls-4" d="M235,5.26a45.83,45.83,0,0,0,7.93,1.53c5.5,2.44,8.07,1.59,8.07,1.59a16.87,16.87,0,0,0,7.72,2c4.09,3,10.1,4.34,10.1,4.34s6,4.6,13,20.5c-4.09.57-21.88,1.17-26.73,2.19C253.2,32.95,248.74,15.39,235,5.26Z"/><path class="cls-5" d="M258.69,10.42c4.09,3,10.1,4.34,10.1,4.34s7.86,6.26,13,20.5c-1.65.23-3.69-2.41-8.11-2.13C270.48,23.39,258.69,10.42,258.69,10.42Z"/><path class="cls-6" d="M332.69,4.36c-3.29-2.82-4.52-3-4.52-3s5.21-1.6,8.92-1.35A139.86,139.86,0,0,1,357.5,2.77c2.45,1.5-3.12,4.44-6.63,5.08-4.59.84-7.22,1.19-9.64,1.72C336.3,9.55,335.53,6.8,332.69,4.36Z"/><path class="cls-6" d="M282.16,12.9s2.53-2.88,8-2.62a20.75,20.75,0,0,1,11-1.73s5.63-3.09,10.28-2.95c0,0,5,3.15,6.39,5s1.24,2.74,1,3.58c-.42,1.64-2.53,2.81-6.11,3.9-11.86,3.62-26.65,7-29.5,4-5.61-5.93-7.66-7.79-7.66-7.79A9.31,9.31,0,0,1,282.16,12.9Z"/><path class="cls-6" d="M78.85,20.85c.27,1.67,3.64,3.37,4.82,3.09.07.56,2.92,2.34,4.35,1.75.51.67,2.81,1.81,3.89.94.94.79,2.43,1.7,3.83,1.36a9.94,9.94,0,0,0,4.72.14,10.18,10.18,0,0,0,4.1.16,24.3,24.3,0,0,0,5.19-.5,20.74,20.74,0,0,0,6-1.26c3.42,0,7.52-2.17,7.52-2.17A17.55,17.55,0,0,0,130.46,22a29.66,29.66,0,0,0,8.29-1.36,12,12,0,0,0,5.42-2.35,15.07,15.07,0,0,0,6-2.33s4.41-.38,7-2.64a13.25,13.25,0,0,0,6.64-3.56A8.94,8.94,0,0,0,169,7.56s3.61,0,5.6-2c0,0,5.5-.3,8.09-1.73,5,0,7.54-1.29,7.54-1.29s.27.1.22.09,8.42-1.31,13.22,3.12c1.46,1.35,1.2,1.78,3,2.85,2.07,1.26,4.22,2.69,4.8,4.13,1.49,3.72-7.84,5-7.84,5-5,.92-8.44.68-17,1.28-18.08,1.27-58.15,21.26-80.92,16-26.81-6.16-29-13.11-31-14.46A7.46,7.46,0,0,0,78.85,20.85Z"/><path class="cls-7" d="M440.45,45.59a13.65,13.65,0,0,1-3.12,6.32c-12.77-2.07-25.52-1-37.67-2.61-10.26-1.32-20.2-3.17-29.92-4.74a33.59,33.59,0,0,1,3.34-15.26c13.55,1.05,27.27,3.74,41.41,6.78,9.54,2.06,19.13,4.83,29.06,7.19C441.89,45.78,440.45,45.59,440.45,45.59Z"/><path class="cls-8" d="M6.84,34.17c3.58-2.94,34.46-14,107.61,22.22,8.42,4.17,202.39-11.73,225.27-13.65,10.6,9.06,20.77,18.62,21.86,20.2-7.44,6.57-17.09,14.41-49.69,17.73-17.94,1.83-29,2-29,2a94.42,94.42,0,0,1-64.14,7.68s-42.19-2.51-72.92-11.79c-10.15.46-25,4.45-53-4C67.52,66.85,50.1,49.57,33,45.1c-15.92-4.17-32,.24-32.67-.46S-.76,41.2,6.84,34.19Z"/><path class="cls-8" d="M360.06,33.59c19.42-1.1,36,.25,38.56-12.1a48.38,48.38,0,0,0,18.86,3.33c1.65-1.37,7.52-5.62,15.05-3s15.19,10.4,12.93,17.27c-1.26,3.82-3,6.57-5,6.59-5.93.3-9.74-1.54-16.43-3.09-2.28-.53-9,.66-15.92-.29-2.59-.35-4-1.56-11.16-1.89-5.21-.25-9.5-.13-12.22-.18-3.39-.07-9.61-2.44-10.33-2.89,0,0,2.7,3.39,10.3,4.77,3.73.68,7.31.47,12.84,1.23,7.78,1.07,12,2.52,16.3,3.09,5.84.77,9.81.27,13.83,1.23,7.52,1.8,11.53,1.6,11.53,1.6-3,7-9.11,4.85-18,5.84S405,56.19,398.12,58.41c-24,7.72-36.79,4.48-36.79,4.48a19.88,19.88,0,0,1-8.93-6.83c-2.1-3-3.16-6.07-2-9.27C352.52,41.15,353.83,35.51,360.06,33.59Z"/><path class="cls-9" d="M409.14,40.34c-2.59-.35-5.49-1.55-12.59-1.87-5.2-.23-9,.12-11.67,0-10.53-.66-15.09-2.89-20.21-3.8,6-3.06,33.24-4.63,35.46-15.26C404.56,21,410.44,23.9,418,23.53c1.65-1.37,14.52-1.68,14.52-1.68,7.68,2.7,17.21,10.9,11.66,20.51,0,0-1.08,1.29-5.46.74-5.7-.72-11.39-2.9-15.44-3.36C421,39.47,416,41.27,409.14,40.34Z"/><path class="cls-10" d="M360.78,36.42a13.76,13.76,0,0,1,11.78,1.8,35.9,35.9,0,0,0,5,3.43,28.11,28.11,0,0,0,6.9,2.26c3.73.69,8.29.83,13.83,1.61,7.8,1.09,10.19,2.26,14.49,2.84,5.83.78,5.81.22,10.53.55,2.41.17,7.73.73,9.38,1-.4,2-2.15,2.3-3.58,2.37-4,.18-5.64,0-9.55.47a113.6,113.6,0,0,0-22.47,4.54c-27.16,8.6-44.58-.6-44.58-.6L352,56c-2.1-3-2.74-6-1.56-9.2C352.32,41.68,360.67,36.38,360.78,36.42Z"/><path class="cls-11" d="M6.76,34.17l-.24-1.7c.12-.7,2.72-4.87,4.57-5.63a5.72,5.72,0,0,1,1.56,1,7.43,7.43,0,0,0-.2-2.41c.82-1.07,3.18-3.42,4.19-3.75a8,8,0,0,1,1.26,1.78,19.45,19.45,0,0,0,.2-2.87c.54-.86,3-3,4.45-2.93.29.46,1.13,2.77,1.13,2.77a13.17,13.17,0,0,0,0-3.43c.11-.41,3.08-2.59,4.69-2.37a20.91,20.91,0,0,1,1.43,2.43l.46-3.27a9,9,0,0,1,4.78-1.21,8.85,8.85,0,0,1,1.17,2.52s.51-2.35.64-3.25a7.78,7.78,0,0,1,4.49-.82A11.77,11.77,0,0,1,42.61,14l.67-3.2s2.83-.92,4.58-.44a10.86,10.86,0,0,1,1,2.93l.65-3a8.27,8.27,0,0,1,4.52.15,12.31,12.31,0,0,1,1.37,3l.8-3a8.66,8.66,0,0,1,5.34,1.42A8,8,0,0,1,62,14.07l.71-2.66a14.57,14.57,0,0,1,5,1.1,14.46,14.46,0,0,1,1.1,3.15l.83-2.58a12,12,0,0,1,3.61,1.47c2.4,1.66,1.92,5.31,1.92,5.31s4.9-1.43,6.08,5.43c1-.89,4.7-1.11,5.53,3.81.76-.52,4.13-1.29,5.38,3.7,1.9-.87,4.83.82,6,4.13a5.5,5.5,0,0,1,6.17,2.35c2.88-.65,5.87,1.82,5.87,1.82s3.74,2.34,6.37,1.56c0,0,3.83,2.17,6.75.72,0,0,4,1.93,7.3-.75,0,0,5,1.68,7.16-1.5,0,0,5.33.83,7.26-3.25,0,0,4.79,1.92,6.37-1.2a5.55,5.55,0,0,0,7.12-2.05,73.42,73.42,0,0,0,7.18-2.75s4.84-1.67,7.22-2.42c5.73-.48,8.11-.6,8.11-.6a59.3,59.3,0,0,0,8.38.25s5.32,2.36,8.41.83a10.76,10.76,0,0,0,8.59,1s4.58,2.84,7.34,1.2c0,0,5.19,2.55,8.27,1,0,0,4.65,2.7,8,.64,0,0,4.82,2.33,8.4.58,0,0,4.44,2,8.2-.64,0,0,4.61,1.44,7.31,0,0,0,5,1.15,6.9-.87,0,0,4,1.75,6.33.08a7.71,7.71,0,0,0,6.47-.31,11.15,11.15,0,0,0,3.74.08,8.84,8.84,0,0,0,2.89-1.08,8.72,8.72,0,0,0,6.58-.57C292,32,294.6,30,294.6,30a15.18,15.18,0,0,0,9.1-.92c7.6,1.25,11-4,11-4a18.61,18.61,0,0,0,11.55-2.74c16-5.23,32.78-5,32.78-5,9.43.59,13.59-1.37,16.55-3.45,6-4.25,15.78-3.74,19.26,3.31,0,0,6.38,2.54,6.38,2.54-2.47,5-7.93,15.18-31.83,14-25.87-1.22-19,23.43-19,23.43s-17.34,13.63-46.52,11c-15.27-1.36-31.17,3.49-31.17,3.49C261.66,84,240.6,90.51,220.36,80.84c0,0-42.33-10.59-66.74-20.92-9.81,3.39-35.33,5.86-55.72-1.38C61.92,45.78,55,35.09,37.58,31.91,24.82,29.57,6.76,34.17,6.76,34.17Z"/><path class="cls-12" d="M81.28,25.29c1-.89,4.7-1.11,5.53,3.81.76-.52,4.13-1.29,5.38,3.7,1.9-.87,4.62-.19,5.75,3.11,0,0-10.47.92-22.81-14.63l.07-1.41S80.1,18.43,81.28,25.29Z"/><path class="cls-13" d="M12.66,27.89l5.26-4.38,5.79-3,6.13-3.37,6.41-2L42.61,14l6.25-.72,6.54.15,6.62.68,6.83,1.59,6.36,4.2,6.08,5.43,5.53,3.81,5.38,3.7,6.29,3.34c3.38-.53,5.87,3,5.87,3,2.88-.65,5.85,2,5.85,2s3.74,2.34,6.37,1.56c0,0,3.83,2.17,6.75.72,0,0,4,1.93,7.3-.75,0,0,5.41.25,7.16-1.5,0,0,5.07-.15,7.26-3.25a7.47,7.47,0,0,0,6.44-1.31c2.34.62,6.69-1.81,6.69-1.81s4.49-1.68,7.55-2.88c0,0,4-1.24,7.22-2.42,5.54-.52,8.11-.6,8.11-.6s3.89.29,8.38.25c0,0,5.32,2.36,8.41.83a10.76,10.76,0,0,0,8.59,1s4.58,2.84,7.34,1.2c0,0,5.19,2.55,8.27,1,0,0,4.65,2.7,8,.64,0,0,4.82,2.33,8.4.58,0,0,4.44,2,8.2-.64,0,0,4.61,1.44,7.31,0,0,0,5,1.15,6.9-.87,0,0,4,1.75,6.33.08a7.71,7.71,0,0,0,6.47-.31,11.15,11.15,0,0,0,3.74.08,8.84,8.84,0,0,0,2.89-1.08,8.72,8.72,0,0,0,6.58-.57C292,32,294.6,30,294.6,30a15.18,15.18,0,0,0,9.1-.92c7.6,1.25,11-4,11-4a18.61,18.61,0,0,0,11.55-2.74c16-5.23,32.78-5,32.78-5,9.43.59,13.59-1.37,16.55-3.45,6-4.25,15.78-3.74,19.26,3.31,0,0,6.38,2.54,6.38,2.54-2.47,5-7.93,15.18-31.83,14-25.87-1.22-19,23.43-19,23.43s-17.34,13.63-46.52,11c-15.27-1.36-31.17,3.49-31.17,3.49C261.66,84,240.6,90.51,220.36,80.84c0,0-42.61-9.91-67-20.27-9.8,3.38-37,6.44-57.26-.82C60.31,46.93,56.43,38.53,38.89,35.25,26.56,33,5.68,37.7,1.09,40.66c0,0,1.34-2.38,5.67-6.49Z"/><path class="cls-10" d="M17.33,35.94s15-3.36,27.22.67c29.65,9.78,29,18.26,64,26.17,15.17,3.43,39.79-1.53,44.1-3.33,3-1.26,10.86-5.64,23.73-6.06,6.19-.21,26.17.57,26.17.57,6.55,8,26.77,18.23,56,11.64,14.87-3.35,29.93-15.66,29.93-15.66,4-1.79,36.54,6.88,60.89-4.47a25.29,25.29,0,0,0,2.43,12.38,5.2,5.2,0,0,0,1.42,1.75c-4.31,2.24-24.42,11.75-49,8.65-15.24-1.92-30.78,4-30.78,4-11.12,12.24-31.72,18.72-53.18,9.57,0,0-34.37,3.08-69.84-11.22-14,3.41-39.7,4.48-59.53-3.57C58,53.62,58.27,45.79,38.39,40.27,29.4,37.77,17.09,37.15,17.33,35.94Z"/><path class="cls-14" d="M277.45,60.12c5.32.71,4,15.49,4.85,22.66a47,47,0,0,1-8.79,3.83S267.57,70,277.45,60.12Z"/><path class="cls-14" d="M160,49.87c8.55,1.33,27.71,15.13,32.76,26.72,1.44,3.31-5.45,10.44-5.45,10.44a225.05,225.05,0,0,1-22.93-3.89C159.38,78.3,153.63,59,160,49.87Z"/><path class="cls-15" d="M403.31,36.71c-14.3-1.8-19.72,3.23-35.09-1.4-7.47-2.25-18.5,9.16-18.5,9.16s.25-4.26,4.21-9.37c.55-.72,6.7-7,7.46-7.48,3.93-2.71,10.72.3,14.86.61,5.05.38,12.21.88,16.21-2.41,2.44-2,4.74-5.21,3-8.5,4.17,2.28,12.87,5.16,22.9,4.64,3.69-.65,6.59-2.75,14.13-.11,6.54,2.3,12.31,7.37,10.54,12.8-.57,1.75-5.59,4.18-16.06,1.65C417.34,34,416.4,38.36,403.31,36.71Z"/><path class="cls-16" d="M373.46,38.74c3.18,3.16,10,5.63,18.07,5.72,4.4,0,12.28,1.47,18.21,3,5.21,1.38,6.49,1.13,10.44,1.27,1.63.06,4.61.27,4.61.27,0,1.52-5.71,1.48-7.64,1.57a78.81,78.81,0,0,0-20.6,3c-30.48,7.93-46.6-3.21-46.6-3.21s-1.19-3.85.12-7a13.74,13.74,0,0,1,4.09-5.61C355.47,36.59,365.39,30.74,373.46,38.74Z"/><path class="cls-17" d="M433.08,27.59c-5.13,1.51-9.5-1.05-13.1-1.55-10.82-1.5-15.91-2.75-18.65-4.47a6.28,6.28,0,0,1-2.51-2.72c4.78,1.59,12.5,3.48,19.58,3.11,3.69-.65,6.58-2.72,14.13-.11C436.89,23.36,437.7,26.23,433.08,27.59Z"/><path class="cls-18" d="M355.74,32c1.21-1.7,3.34-3.05,5.65-4.4,3.56-2.07,8.49-1.17,6.4,1.78-2.79,4-10.13.46-16.74,10.44A44.12,44.12,0,0,1,355.74,32Z"/><path class="cls-19" d="M274.57,70.3s1.21,6.52,10.87,15.67c-.84,5.88,7.08,19.37,15.19,21.94,1.57,2.92,2.25,4.22,2.25,4.22s-.82,5.61,2.94,7.11,6.12-1.16,5.67-4.15c2.19,2.9,9.52,9.36,13.48,9.37s-2.66-7.39-3.63-8.26c2.47,1.27,18.35,7.19,23,6.84s-1-5.32-3.49-6.17-12.69-4.69-12.69-4.69,11.93,3.54,12.62,1.27c.38-1.25-4.83-3.79-8.12-4.27-4.64-.68-15.71-3-17.62-5.23a9,9,0,0,0-2.83-5.65c-.31-4.17-.9-18.63-4.82-26.38S301.28,59.1,294,55.64C287,52.25,272.27,58.86,274.57,70.3Z"/><path class="cls-9" d="M275,64.16s-1.15,9.58,13.73,19c-.83,5.89,3.35,16.85,13.28,22a35.33,35.33,0,0,0,2.21,6.2s-.66,4.4,2.51,6.59,5.25.16,4.8-2.83c-2.56-6.53,6,6.21,13.09,8.05,4,1-2.27-6.07-3.24-6.94-6.8-4.79,14.33,5.5,22.09,5.65,4.74.09-.3-4.38-2.87-5.07-9.13-2.47-11.6-1.67-12.43-4.61-.41-1.45,11.34,2.32,12,.84.29-.66-2.78-3.11-7.48-3.84s-15.71-3-17.62-5.23a9,9,0,0,0-2.83-5.65c-.31-4.17-.9-18.63-4.82-26.38S301.28,59.1,294,55.64C287,52.25,276.78,57.9,275,64.16Z"/><path class="cls-20" d="M306.08,101.45a9.83,9.83,0,0,1,6.12-3.16,7.5,7.5,0,0,1,2.44,3.49,6.29,6.29,0,0,1,.39,2.16c1.91,2.24,13,4.52,17.62,5.23s7,2.51,7.18,3c.54,1.74-13.93-3.28-11.68,0,0,0,10.17,3.85,12.69,4.69s6.57,4.56,1.81,4c-9.53-1.21-31.8-13.19-21.29-4.63,1,.87,7.1,8,2.8,5.83-5.49-2.74-15.67-16.12-12.65-6.95.45,3-2.63,2.07-4.17.7s-1.17-3.11-1.47-5.11c0,0-1.12-2.8-1.25-3.5C304.2,104.89,304.33,103.39,306.08,101.45Z"/><path class="cls-20" d="M289.34,76.34c-8.43-6.08-12.73-12.28-11.08-17,4.39-4.1,11.5-5.73,15.79-3.68,7.23,3.46,10.79,10.22,13,15.53C309,76.07,300.17,84.15,289.34,76.34Z"/><path class="cls-18" d="M292,68.45c-5.48-3.79-9-9-7.39-11.63s7-2.42,9.73-1.11a16.74,16.74,0,0,1,8.57,9.81C304.09,69.45,299,73.27,292,68.45Z"/><path class="cls-19" d="M188.94,80.49s-8.16,1.71-20.62-6.27c-11.9-7.62-13.78-20.58-6.73-26.1s22-10.85,29.73-9.12c7.88,1.78,21.88,9.37,26.13,21.36,4.36,12.3,4.91,30.51-4.63,38.87,0,0,.57.22,3.44.94s8.5,5.72,10.92,8.56a34.82,34.82,0,0,1,10.22,7.8c4.19,2.27,9.49,6.06,9.49,9.48-.52,1.44-1.84,1.86-3.91.75,3.32,2.51,8.67,6.34,7.56,9s-5.56.49-13.19-3.86c.93,2.35-2.35,4.62-8.11,1.23-5.29-3.12-9.25-5.92-11.3-6.88s-14.86-4.81-23.42-15c-5.45-4.45-7-6.25-7.32-11.1S186,88.73,188.94,80.49Z"/><path class="cls-9" d="M193.18,71.37s4.15-3.27-21.75-7c-10-1.46-16.32-11.05-9.83-16.22,7.11-5.67,22-10.85,29.73-9.12,7.88,1.78,21.88,9.37,26.13,21.36,4.36,12.3,4.91,30.51-4.63,38.87,0,0,.57.22,3.44.94s8.5,5.72,10.92,8.56a34.82,34.82,0,0,1,10.22,7.8c4.19,2.27,8.73,5.62,8.72,9-.1.26-1.3.32-2.83-.44-4.9-2.44-13.13-9.76-15.82-10.76-2.43-.9-.2,1,15.51,12.4,3.32,2.51,8.07,5.6,7,8.29-.27.65-2.13.79-5-.74a100.37,100.37,0,0,1-11.14-7.39c-4.47-3.44-8.12-6.91-11-8.63-2.24-1.32.76,4,14.56,13.63,0,1.08-2,3.12-7.76-.26-5.3-3.1-9.35-6.49-11.4-7.45s-14.58-4.89-23.15-15c-6-4.63-6.47-7.46-6.56-12.3C188.39,92.59,186.37,86.48,193.18,71.37Z"/><path class="cls-1" d="M198.78,102.35s10.75,2.64,16.57-2.4c0,0,4.42.35,11.83,8.79a34.82,34.82,0,0,1,10.22,7.8c7.05,3.74,8.56,6.81,8.56,6.81-.35,1.09-1.61.56-5-1.73-5.35-3.64-16.28-10.33-15.21-8.45a101.23,101.23,0,0,1,11.85,9.59c4.46,2.65,10,7.25,11.65,9.36,0,0-.47,1.05-3.06-.48-7.25-4.29-25.94-17.85-25.37-15.46,0,0,6,6.61,8.5,8.67,5.17,4.26,6.59,4.8,6.94,6.2.06,1.34-2.55.65-7.49-2.83a130.54,130.54,0,0,0-12.4-7.7,75.47,75.47,0,0,1-19.48-15.59c-1.65-1.84-1.58-2.72-1.14-3.17S198.78,102.35,198.78,102.35Z"/><path class="cls-1" d="M161.59,48.12c7.15-5.6,22-10.85,29.73-9.12,7.88,1.78,22.59,10.59,26.13,21.36C223.12,77.6,210.22,75.2,206,70c-3.07-3.79-7.59-15.72-14.5-18C180.69,48.34,154.55,53.64,161.59,48.12Z"/><path class="cls-18" d="M207,57.05a70.93,70.93,0,0,0-8.19-7.4c-15.18-10.38-29.11-5.32-25.34-7.86C178,40,186.26,37.86,191.32,39c7.3,1.65,19.81,8.28,25,18.77C219.41,65.87,210.11,60.11,207,57.05Z"/><path class="cls-12" d="M116.06,26a19.58,19.58,0,0,1,5.87,1c2,.92,5.94,6.38,6.49,7.39a56.68,56.68,0,0,1,2.52,8.09c.57,2.46,1.45,18.35-.65,27a2.37,2.37,0,0,0-.68,0c2.09-8.36,1.25-24.46.71-26.83a56.63,56.63,0,0,0-2.45-7.9c-.5-.92-4.42-6.32-6.22-7.15a23.84,23.84,0,0,0-5.87-1.17Z"/><path class="cls-12" d="M123.62,23.75a36,36,0,0,1,5.05,1.71c2.12,1,6.38,6.49,6.93,7.46A57.06,57.06,0,0,1,138.1,41c.6,2.41,2.06,17.85.1,27.33a2.54,2.54,0,0,0-.72.18c2-9.18.57-24.93,0-27.24a57.52,57.52,0,0,0-2.42-7.89c-.52-.91-4.69-6.33-6.67-7.23a46.14,46.14,0,0,0-5.15-1.81Z"/><path class="cls-12" d="M110,27.31a18.63,18.63,0,0,1,5.47,1.21c1.9,1,5.66,6.43,6.18,7.44a56.77,56.77,0,0,1,2,7.3c.47,2.17.12,18.89-1.68,26.82a2.33,2.33,0,0,0-.62-.07c1.8-7.73,2.16-24.36,1.7-26.5a50.66,50.66,0,0,0-1.89-7.11c-.47-.91-4.2-6.3-5.94-7.2a22.82,22.82,0,0,0-5.45-1.4Z"/><path class="cls-12" d="M104.89,27.77a24.62,24.62,0,0,1,4.77,1.6c1.78.93,5.11,5.91,5.56,6.82a38.37,38.37,0,0,1,1.65,6.36c.43,2.21-.14,19.48-2.05,26.91a2.26,2.26,0,0,0-.63,0c1.93-7.16,2.51-24.47,2.09-26.66a38.51,38.51,0,0,0-1.58-6.17c-.42-.85-3.66-5.7-5.32-6.57a32.28,32.28,0,0,0-4.82-1.75Z"/><path class="cls-12" d="M100.72,27.73c.08,0,2,1,3.59,1.84s4.48,5.52,4.83,6.3A23.49,23.49,0,0,1,110.49,41c.36,2.22-1.07,20.11-3.1,27.42a2.52,2.52,0,0,0-.58-.15c1.95-7,3.44-24.92,3.09-27.06a22.76,22.76,0,0,0-1.29-4.94c-.41-.92-3.11-5.25-4.59-6s-3.56-2.1-3.58-2.11Z"/><path class="cls-12" d="M98.21,28.93a14.16,14.16,0,0,1,4.48,5l.27.57a16.72,16.72,0,0,1,1.65,4.64C105,41.47,102,60.25,99.8,67a2.45,2.45,0,0,0-.55-.19c2.25-6.77,5.1-25.51,4.79-27.44a16.17,16.17,0,0,0-1.59-4.44l-.28-.59a13.71,13.71,0,0,0-4.25-4.78A8.33,8.33,0,0,1,95.73,28l.14-.45A24.16,24.16,0,0,0,98.21,28.93Z"/><path class="cls-12" d="M91.34,64.58c2.23-6.31,6.71-25.8,6.56-28.53-.09-1.61-2.79-5.84-3.93-7-.34-.33-2.29-2-2.31-2L92,26.5c.08.07,2,1.68,2.34,2,1.07,1,4,5.44,4.12,7.39C98.64,39,94,58.69,91.87,64.78Z"/><path class="cls-12" d="M84,61.72c4.34-10.35,7.78-27.39,7.93-28.9a9.47,9.47,0,0,0-1.49-3.94c-.73-1.05-2.63-3.12-2.63-3.12l.22-.07a23.41,23.41,0,0,1,2.68,2.83c.75,1.09,1.82,3.2,1.78,4.28-.15,1.55-3.61,18.69-8,29.14Z"/><path class="cls-12" d="M77.24,58.64c4.93-11,9.52-29.35,9.56-29.54l.6-.26c0,.2-4.7,18.88-9.67,30Z"/><path class="cls-12" d="M70.8,55.28c4.54-9.72,10.41-29.77,10.47-30l.58-.33c-.26.92-6,20.76-10.59,30.57Z"/><path class="cls-12" d="M65,52.07c.67-1.36,1.4-3,2.21-5,4.54-11.16,7.94-27,8-27.18l.45-.09c0,.16-3.4,16.27-8,27.52-.81,2-1.54,3.64-2.21,5Z"/><path class="cls-12" d="M59.16,48.93c1.94-4.7,4.24-11.91,5.57-16.1a170.63,170.63,0,0,0,4.1-17.16l.83-2.58c0,.1-2.21,12.83-4.47,19.91-1.82,5.7-3.84,11.93-5.59,16.16Z"/><path class="cls-12" d="M53.56,46.08c2-5.26,5.27-15.56,6.34-19.8A121.88,121.88,0,0,0,62,14.07l.71-2.66c0,.07-1.1,10-2.36,15C59.3,30.64,56,41,54,46.3Z"/><path class="cls-12" d="M48,43.24c1.62-4.58,3.93-12.41,5.29-18.06a113.77,113.77,0,0,0,2.11-11.79l.8-3a133.14,133.14,0,0,1-2.26,14.07c-1.29,5.72-3.82,14.17-5.52,19Z"/><path class="cls-12" d="M7.18,38.58a1.66,1.66,0,0,0-.41.18,18.77,18.77,0,0,0-.11-4.51l-.14-1.78A14.42,14.42,0,0,1,7.18,38.58Z"/><path class="cls-12" d="M12.49,37a1.31,1.31,0,0,0-.41.05,38.62,38.62,0,0,0,.57-9.14l-.2-2.41C12.89,26.24,13.39,31.72,12.49,37Z"/><path class="cls-12" d="M27.85,34.68l-.41,0a108.85,108.85,0,0,0,2.4-17.59l.46-3.27A128.52,128.52,0,0,1,27.85,34.68Z"/><path class="cls-12" d="M23.17,33c-.15.74-.3,1.44-.45,2.1l-.44.05c.16-.69.31-1.43.47-2.21a49.75,49.75,0,0,0,1-12.46V17A46.35,46.35,0,0,1,23.17,33Z"/><path class="cls-12" d="M17.33,35.94,16.9,36a62,62,0,0,0,1-12.5l.2-2.87A66.88,66.88,0,0,1,17.33,35.94Z"/><path class="cls-12" d="M34.64,28.79c-.38,1.94-.8,4-1.28,5.9l-.46,0c.48-1.9.91-4,1.3-5.93,1.3-6.67,2-13.52,2-13.59l.64-3.25A140.88,140.88,0,0,1,34.64,28.79Z"/><path class="cls-12" d="M39.07,34.67c-.47,1.5-.89,2.77-1.28,3.87a1.65,1.65,0,0,0-.44-.12c.39-1.09.82-2.38,1.29-3.91,2.51-8,3.95-20.44,4-20.56l.67-3.2A126.51,126.51,0,0,1,39.07,34.67Z"/><path class="cls-12" d="M45.88,31.91c-1,3.61-1.85,6.49-2.69,8.76l-.41-.23c.83-2.23,1.7-5.08,2.66-8.65a126.17,126.17,0,0,0,3.42-18.55l.65-3A145.79,145.79,0,0,1,45.88,31.91Z"/><path class="cls-12" d="M130.87,21.51s3.77,1.55,5.07,2.06,5.61,5.07,6,5.73,3.07,7.62,3.37,8.42l0,.09c.09.77,1.83,19.61.85,25.16-.25,1.42-.55,2.95-.92,4.5a2.56,2.56,0,0,0-.75,0c.36-1.54.65-3.07.91-4.5.93-5.28-.62-23.94-.74-25-1.15-3.07-2.95-7.74-3.27-8.23s-4.54-5-5.78-5.52S130.43,22,130.39,22Z"/><path class="cls-14" d="M131.22,63.45a36.27,36.27,0,0,1-.94,6.1,2.37,2.37,0,0,0-.68,0,40.11,40.11,0,0,0,.95-6.09Z"/><path class="cls-14" d="M139,62.49a47.25,47.25,0,0,1-.77,5.84,2.54,2.54,0,0,0-.72.18,44.24,44.24,0,0,0,.8-5.92Z"/><path class="cls-14" d="M122.91,63.94a59.29,59.29,0,0,1-1,6.13,2.33,2.33,0,0,0-.62-.07,58.12,58.12,0,0,0,1-6Z"/><path class="cls-21" d="M115.83,63.8a52.58,52.58,0,0,1-1,5.65,2.26,2.26,0,0,0-.63,0,49,49,0,0,0,1-5.69Z"/><path class="cls-21" d="M108.55,62.78a44.22,44.22,0,0,1-1.16,5.63,2.52,2.52,0,0,0-.58-.15A55,55,0,0,0,108,62.65Z"/><path class="cls-21" d="M101.34,61c-.53,2.43-1,4.46-1.54,6a2.45,2.45,0,0,0-.55-.19,60.87,60.87,0,0,0,1.54-6Z"/><path class="cls-21" d="M93.66,58.78c-.69,2.55-1.3,4.57-1.8,6l-.53-.21c.51-1.46,1.11-3.46,1.78-6Z"/><path class="cls-21" d="M86.62,56.18a52.66,52.66,0,0,1-2.12,5.75L84,61.72c.78-1.85,1.4-3.59,2.1-5.76Z"/><path class="cls-21" d="M79.51,53.06l.48.24c-.78,2.12-1.44,3.75-2.25,5.58l-.49-.24C78.07,56.79,78.72,55.21,79.51,53.06Z"/><path class="cls-21" d="M73.16,49.7l.47.27c-.81,2.11-1.58,3.9-2.36,5.57l-.47-.25C71.58,53.62,72.34,51.82,73.16,49.7Z"/><path class="cls-21" d="M67.44,46.52l.46.25-.22.53c-.81,2-1.54,3.64-2.21,5L65,52.07c.67-1.36,1.4-3,2.21-5Z"/><path class="cls-21" d="M61.72,43.54c-.75,2.14-1.42,3.94-2.11,5.61l-.45-.23c.7-1.7,1.36-3.51,2.09-5.6Z"/><path class="cls-21" d="M55.91,40.88C55.18,43,54.59,44.72,54,46.3l-.44-.22c.58-1.54,1.19-3.27,1.91-5.38Z"/><path class="cls-21" d="M49.61,38.37l.44.16c-.58,1.84-1.15,3.55-1.63,4.93L48,43.24c.49-1.38,1-3.06,1.6-4.88Z"/><path class="cls-21" d="M38.89,35.25c-.43,1.36-.73,2.28-1.1,3.3a1.65,1.65,0,0,0-.44-.12c.36-1,.65-1.88,1.09-3.26Z"/><path class="cls-21" d="M44.54,36.61c-.46,1.51-.92,2.89-1.35,4.05l-.41-.23c.41-1.11.88-2.53,1.32-4Z"/><path class="cls-14" d="M146.43,61.14a16.36,16.36,0,0,1-.2,1.83c-.25,1.42-.55,2.95-.92,4.5a2.56,2.56,0,0,0-.75,0c.36-1.54.65-3.07.91-4.5.08-.45.15-1.09.19-1.72Z"/><path class="cls-12" d="M139.06,20.13a35.9,35.9,0,0,1,3.9,1.93c1.72,1,5.58,5.91,6.18,6.9a69.23,69.23,0,0,1,2.53,7c0,.18,2.51,18.83.19,29.44a2.8,2.8,0,0,0-.7,0c2.34-10.41-.14-29-.15-29.16a64.15,64.15,0,0,0-2.44-6.81c-.57-.94-4.35-5.74-6-6.7s-3.91-2.11-3.94-2.11Z"/><path class="cls-22" d="M152.66,59.45a32.83,32.83,0,0,1-.8,6,2.8,2.8,0,0,0-.7,0,40.78,40.78,0,0,0,.79-5.7Z"/><path class="cls-14" d="M124.34,79.81l-1.78,0c2.08-.07,4.25-2.82,6.36-8a17.44,17.44,0,0,0,.87-2.92l.67,0a18.65,18.65,0,0,1-1,3.29C127.67,76.57,125.91,79,124.34,79.81Z"/><path class="cls-14" d="M130.7,79.71c.78-.24,3.32-1.87,5.86-8.11a17.64,17.64,0,0,0,1-3.57l.7-.1a18.83,18.83,0,0,1-1.12,4c-2.11,5.18-3.87,7-5,7.71Z"/><path class="cls-14" d="M115.21,79.22c1.46-.21,3.72-2.06,5.58-7.35a17.7,17.7,0,0,0,.72-2.75h.63a18.73,18.73,0,0,1-.78,3c-1.49,4.23-3.39,6.51-4.88,7.21Z"/><path class="cls-21" d="M113.84,70.58a14,14,0,0,0,.51-1.76l.61,0a14.68,14.68,0,0,1-.56,2c-1.87,5.28-4.46,7.36-4.87,7.6l-1.11-.18C109.43,78.34,112,75.76,113.84,70.58Z"/><path class="cls-21" d="M106.45,69.41a15.38,15.38,0,0,0,.46-1.53l.59.1a17,17,0,0,1-.51,1.69c-1.89,5.25-4.69,7.11-5.06,7.27l-1-.23C101.77,76.76,104.54,74.73,106.45,69.41Z"/><path class="cls-21" d="M94.44,75l-1-.29h0c.9,0,3.83-2.33,5.65-7.38.12-.32.26-.76.38-1.15l.56.16c-.15.52-.26.84-.41,1.25C98,72,95.84,74.35,94.44,75Z"/><path class="cls-21" d="M91.27,64.77c.17-.48.26-.72.46-1.35l.53.2c-.21.67-.29.92-.47,1.4-1.79,5-5,6.94-5.67,7.19l-1-.37C86.07,71.88,89.5,69.68,91.27,64.77Z"/><path class="cls-21" d="M83.2,63.51c.42-.91.87-2,1.28-3l.52.22c-.42,1.08-.88,2.15-1.32,3.09-1.73,4.18-4.2,5.51-4.31,5.55l-.7-.33S81.38,68,83.2,63.51Z"/><path class="cls-21" d="M76.31,60.64c.53-1.07.9-1.87,1.43-3.12l.49.25c-.54,1.3-.93,2.11-1.48,3.22-1.35,2.5-2.83,4.42-4.22,5l-.69-.37C73.67,65,75,63,76.31,60.64Z"/><path class="cls-21" d="M69.35,58.1a32.72,32.72,0,0,0,1.86-3.69l.47.23a38.24,38.24,0,0,1-1.93,3.83c-2,3.32-3.53,3.89-3.6,3.92l-.6-.35A9.55,9.55,0,0,0,69.35,58.1Z"/><path class="cls-21" d="M65.35,51.36l.46.25c-2.78,6-4.82,7-5.81,7.14l-.85-.53C60.76,58.22,62.74,56.94,65.35,51.36Z"/><path class="cls-21" d="M58.06,51.38c.48-1,.88-1.87,1.42-3.27l.45.25c-.57,1.44-1,2.32-1.46,3.33-1.7,3.41-3.68,3.89-3.68,3.89l-.56-.34A7.41,7.41,0,0,0,58.06,51.38Z"/><path class="cls-21" d="M52.73,48.15c.35-.81.71-1.71,1.22-3.13l.43.25c-.52,1.45-.86,2.35-1.23,3.16-1.76,3.8-3.46,4.15-3.46,4.15l-.61-.35C49.14,52.21,51.11,51.82,52.73,48.15Z"/><path class="cls-21" d="M47.1,45.59c.4-.95.73-1.83,1.27-3.47l.43.22c-.54,1.58-.92,2.6-1.29,3.5-1.4,3.46-3,3.91-3,3.91l-.59-.34S45.66,49,47.1,45.59Z"/><path class="cls-21" d="M6.8,38.35l.4-.13A13.68,13.68,0,0,1,5.67,44.1l-.48.06A13.47,13.47,0,0,0,6.8,38.35Z"/><path class="cls-21" d="M11.69,38.9c.16-.65.3-1.3.42-1.93l.41-.09c-.12.71-.26,1.44-.44,2.12-.9,3.58-1.84,4.6-1.84,4.6l-.52,0A13.28,13.28,0,0,0,11.69,38.9Z"/><path class="cls-21" d="M25.93,39.94c.39-1,1.19-4.1,1.51-5.24l.41,0c-.32,1.22-1.16,4.34-1.55,5.41a8.29,8.29,0,0,1-2.22,3.45l-.53,0A7.24,7.24,0,0,0,25.93,39.94Z"/><path class="cls-21" d="M22.28,35.14l.44-.05c-.93,3.64-2.13,6.82-3.14,8.2H19C20.11,42,21.39,38.57,22.28,35.14Z"/><path class="cls-21" d="M16.06,39.6c.31-1.08.62-2.51.84-3.59l.43-.07c-.22,1.15-.55,2.66-.87,3.79a13.8,13.8,0,0,1-1.53,3.58l-.5,0A15.5,15.5,0,0,0,16.06,39.6Z"/><path class="cls-21" d="M32.91,34.67l.46,0c-1.43,5.65-3.43,8.74-4.7,9.47L28,44C29.74,43.28,31.47,39.85,32.91,34.67Z"/><path class="cls-21" d="M37.47,38.11l.43.12c-1.8,5.19-3.18,6.66-4,7.14l-.59-.18C34.45,44.53,35.6,43.49,37.47,38.11Z"/><path class="cls-21" d="M43,39.81l.43.16c-1.68,4.81-3.12,6.73-4.29,7.24l-.6-.25C40,46.46,41.44,44.31,43,39.81Z"/><path class="cls-14" d="M144.74,66.77l.78-.17c-1,4.77-2.28,9-5.6,12.39l-1,.08C142.16,76.07,143.77,71.32,144.74,66.77Z"/><path class="cls-22" d="M151.15,65.46l0-.21s.39-.38.73-.2c0,0,0,.3-.11.58-2.43,10.73-5.83,12.82-6,12.92h-1.07S148.81,75.83,151.15,65.46Z"/><path class="cls-23" d="M157.82,35l.77-.31a61.83,61.83,0,0,0-2.54-7.52A46.27,46.27,0,0,0,149.32,20a40.34,40.34,0,0,0-5-2.22l-.19.48a50.57,50.57,0,0,1,4.95,2.31,48.07,48.07,0,0,1,6.39,7A65.74,65.74,0,0,1,157.82,35Z"/><path class="cls-23" d="M165.08,32.2l.65-.32a39.31,39.31,0,0,0-2.05-6.14c-1-1.9-7.83-8.13-8.9-8.63s-4.25-1.54-4.4-1.58l-.3.4s3.46,1.27,4.45,1.73,7.6,6.75,8.53,8.51A41.25,41.25,0,0,1,165.08,32.2Z"/><path class="cls-23" d="M172.28,29.68l.67-.22s-1.34-4.57-1.86-5.64c-1.2-2.45-6.71-7.88-8.77-8.79s-4.88-2.13-4.92-2.14l-.28.42s3,1.39,4.93,2.26,7.27,6.35,8.4,8.66C171,25.26,172.27,29.65,172.28,29.68Z"/><path class="cls-23" d="M180.34,28.89l.73,0a60.56,60.56,0,0,0-1.78-7.23c-.57-1.23-4.67-5.31-4.85-5.49-.38-.41-.79-.9-1.14-1.29a12.73,12.73,0,0,0-2.58-2.47A62.62,62.62,0,0,0,164,9.43l-.23.33s4.49,1.95,6.67,3.17a12.65,12.65,0,0,1,2.42,2.35c.35.4.72.81,1.11,1.22A48,48,0,0,1,178.63,22,59.77,59.77,0,0,1,180.34,28.89Z"/><path class="cls-23" d="M188.56,29.11h.88a46.38,46.38,0,0,0-3.29-10.92A22.36,22.36,0,0,0,182,13.88a27.82,27.82,0,0,0-4.39-4.13,24.69,24.69,0,0,0-8.31-2.65l-.33.46a27.8,27.8,0,0,1,8.37,2.72,27.86,27.86,0,0,1,4.25,4.09,19.33,19.33,0,0,1,3.9,4.29A61.57,61.57,0,0,1,188.56,29.11Z"/><path class="cls-23" d="M197.42,30.12l.82,0c0-.27-1.1-6.8-2.18-9.4-.7-1.68-4.79-6.25-7.41-8.49-.09-.12-3.22-3.94-4.66-4.75-3.5-2-8.76-2.34-9-2.34l-.37.38s5.69.59,9,2.48c1.33.75,4.53,4.69,4.56,4.73,2.75,2.36,6.53,6.91,7.13,8.36C196.4,23.64,197.41,30.06,197.42,30.12Z"/><path class="cls-23" d="M206,31.12l.94.14a80.91,80.91,0,0,0-3.39-11.77c-1.6-4-6.59-7.69-7.21-8.16a19.65,19.65,0,0,0-5-5,18.06,18.06,0,0,0-8.14-3l-.52.39A21.73,21.73,0,0,1,191,7c3.63,2.73,4.74,4.73,4.75,4.75l.1.11c.05,0,5.35,4,6.94,8A71.35,71.35,0,0,1,206,31.12Z"/><path class="cls-23" d="M213.4,32.38h.85c-.18-2.12-1.61-11.44-3.71-15.09s-6.58-6.77-7.14-7.19c-.31-.47-2.4-3.48-4.76-4.72a76.2,76.2,0,0,0-7.84-3.13l-.65.24c.06,0,5.84,2.19,8.21,3.43s4.51,4.59,4.53,4.62l.09.09s4.82,3.55,6.87,7.11S213.22,30.3,213.4,32.38Z"/><path class="cls-23" d="M221.57,33.38l1,.06c-.08-.48-2.1-12.06-4.05-16s-7.6-8.05-7.84-8.23a37.3,37.3,0,0,0-5.14-4.46c-1.8-1-5.78-2.81-6-2.89l-.65.17c.05,0,5.09,2.44,6.33,3.26a55.28,55.28,0,0,1,5.06,4.42c.09.07,5.62,4.33,7.49,8.15S221.55,33.27,221.57,33.38Z"/><path class="cls-24" d="M229.53,34.11l1-.08c-.11-.51-2.77-12.62-4.13-15.55a30.22,30.22,0,0,0-8.56-9.85c-.47-.35-1.18-1-1.87-1.62a22.7,22.7,0,0,0-3.79-2.86,45.63,45.63,0,0,0-5.79-2.31l-.42.23A64.18,64.18,0,0,1,212,4.62a22.93,22.93,0,0,1,3.52,2.85c.7.64,1.37,1.25,1.86,1.62a29.49,29.49,0,0,1,8.25,9.78C227,21.72,229.5,34,229.53,34.11Z"/><path class="cls-24" d="M238,34.61l1,0c-.13-.44-3.23-10.84-5.34-15.59C230,10.8,220.5,4,215,2.09l-.42.16h0c10.91,5.08,16.11,12.58,18.24,17C235,23.81,238,34.5,238,34.61Z"/><path class="cls-24" d="M246.22,34l1-.14C246.15,30,242,20.79,241.28,19.18c-.84-1.76-7.8-11.66-16.38-15.94l-.58.12c8.39,4.19,15.35,14.49,16.17,16.21A142.4,142.4,0,0,1,246.22,34Z"/><path class="cls-25" d="M326.27,22.36l.79-.25a29.46,29.46,0,0,0-2.14-7.2c-1.8-4.45-9.74-9.62-9.74-9.62l-.48.17s8.15,5.23,9.8,9.65A25.47,25.47,0,0,1,326.27,22.36Z"/><path class="cls-25" d="M314.49,25.41l.9-.27s-1.3-5.05-2.86-7.16c-2.1-2.82-10.86-9.71-10.86-9.71l-.49.28s9.64,7.62,11,9.71C313.64,20.6,314.48,25.36,314.49,25.41Z"/><path class="cls-25" d="M303.34,29.32l.77-.15c-.05-.31-1.34-7.34-3.18-9.77C298.44,16.11,290.75,10,290.75,10l-.56.25c.08.06,7.88,6.19,10.28,9.47C302.15,22,303.32,29.25,303.34,29.32Z"/><path class="cls-25" d="M294.21,30.23l1-.11a55.59,55.59,0,0,0-2.71-7.38c-2.13-3.64-9.85-10.27-9.85-10.27l-.46.43s7.9,6.7,9.61,10A35.1,35.1,0,0,1,294.21,30.23Z"/><path class="cls-25" d="M286.9,31.06l.83.13a34.8,34.8,0,0,0-3.29-7.44c-2.38-3.83-8.84-9.45-8.84-9.45l-.39.29c.06.05,6.21,5.57,8.51,9.27A35.17,35.17,0,0,1,286.9,31.06Z"/><path class="cls-24" d="M253.35,34l1.06-.19c0-.08-3.35-8.39-5.43-12.36C247.5,18.61,240.81,8,234.28,4.63l-.57.1c6.36,3.29,13,14.35,14.48,17.15C250.24,25.82,253.32,33.93,253.35,34Z"/><path class="cls-25" d="M279.86,31.88l.63-.19a69.66,69.66,0,0,0-3.59-7.56c-1.76-2.94-7.36-9.18-7.65-9.51l-.56.06c.07.08,6.23,7.24,7.55,9.49A82.92,82.92,0,0,1,279.86,31.88Z"/><path class="cls-24" d="M273.14,32.88l.75-.22-2.8-6.21c-1.47-3.12-11.31-15.43-11.73-15.94l-.67-.09c.1.12,10.17,13.06,11.59,16.08Z"/><path class="cls-24" d="M266.74,33.22l.75-.17c-.14-.29-3.45-7.24-5-9.75-2.37-3.72-10.89-14.82-11-14.93l-.5,0c.09.11,8.47,11.7,10.81,15.38C263.36,26.25,266.71,33.15,266.74,33.22Z"/><path class="cls-24" d="M260.43,33.24l1-.16c0-.05-2.69-5.75-5.3-10.67-3.64-6.84-12.74-15.59-12.83-15.68l-.43.06c.09.09,8.88,9.32,12.45,16C258,27.74,260.41,33.19,260.43,33.24Z"/><path class="cls-9" d="M212.82,99.24a24.73,24.73,0,0,1-14,3.11c3.34,1.79,17.51,6,16.57-2.4C214.09,99.62,212.82,99.24,212.82,99.24Z"/><path class="cls-26" d="M188.72,81.11a105.84,105.84,0,0,1,4.45-9.74c-1.62,1.87-7.06,9.25-7.06,9.25Z"/><path class="cls-14" d="M361.58,62.94S347,58,350,42.78c-2,6.16-2.73,15.6,8.64,22.69C359.69,64.57,361.58,62.94,361.58,62.94Z"/><path class="cls-19" d="M383.54,13.49c-4.12,1.22-6.26,4.93-4.8,8.32s6,5.24,10.24,4.07,6.43-5,4.88-8.42S387.7,12.27,383.54,13.49Z"/><path class="cls-20" d="M384.27,13.54C380.58,14.63,378.66,18,380,21s5.41,4.68,9.16,3.62,5.74-4.45,4.37-7.53S388,12.45,384.27,13.54Z"/><path class="cls-6" d="M384.27,13.54c3.63-1.11,7.33.46,8.34,2.49.2.41.32,1.41-.21,1.74a5.84,5.84,0,0,0-3.52-2.44c-3-.87-6.08.25-7.3,2-.69-.68-.81-1.56.38-2.68A5.39,5.39,0,0,1,384.27,13.54Z"/><path class="cls-19" d="M385,15.4c-2.65.77-4,3.17-3.06,5.36s3.89,3.37,6.57,2.62,4.08-3.19,3.1-5.4S387.67,14.62,385,15.4Z"/><path class="cls-27" d="M382.54,17.93c-.81,2,.46,4.14,2.85,4.86s5-.3,5.86-2.29-.48-4.17-2.9-4.87S383.35,16,382.54,17.93Z"/><path class="cls-28" d="M383.79,17.5c-.59,1.43.34,3,2.08,3.53a3.51,3.51,0,0,0,4.25-1.67c.6-1.44-.35-3-2.1-3.54A3.51,3.51,0,0,0,383.79,17.5Z"/><path class="cls-29" d="M385.71,16.48a.64.64,0,0,0,.5.84.83.83,0,0,0,1-.4.64.64,0,0,0-.5-.84A.83.83,0,0,0,385.71,16.48Z"/><path class="cls-9" d="M315,103.94a12,12,0,0,0-7.68,3c2.33-3.55,7.52-4.37,7.52-4.37A2.9,2.9,0,0,1,315,103.94Z"/><path class="cls-29" d="M412,42.67a40.28,40.28,0,0,1-1.63,6.75c-.37,1,3.45-1.62,5.58-6.75C413.78,42.74,412,42.67,412,42.67Z"/><path class="cls-29" d="M417.72,42.64a20,20,0,0,1-1,2.78c-1,2.39,2.68.08,3.92-2.91C419.3,42.55,417.72,42.64,417.72,42.64Z"/><path class="cls-29" d="M422.15,42.48a14.11,14.11,0,0,1-.87,2.46c-.56,1.28,2.06.18,3.06-2.23A10.11,10.11,0,0,0,422.15,42.48Z"/><path class="cls-29" d="M424,47.15a30.29,30.29,0,0,0,4.2-5.68c1.24-2.52,2.56,1.68.1,6.39A35.76,35.76,0,0,0,424,47.15Z"/><path class="cls-29" d="M431.76,44.65a11.14,11.14,0,0,1-.37,3.72c-.55,1.89,2.31-.88,2.76-3.15C433.16,45,431.76,44.65,431.76,44.65Z"/><path class="cls-29" d="M436.31,45.57a7.13,7.13,0,0,1-.24,2.66c-.41,1.49,1.67-.15,2.23-2.5C437.58,45.69,436.31,45.57,436.31,45.57Z"/><path class="cls-29" d="M390.85,40.28s-.19,1.66.18,1.87,1.39-1.05,1.72-1.85C391.91,40.29,390.85,40.28,390.85,40.28Z"/><path class="cls-29" d="M396.91,40.44s-.34,2.21.2,2.17,1.39-1.18,1.94-2A19.28,19.28,0,0,0,396.91,40.44Z"/><path class="cls-29" d="M403.7,41.27s-.3,2.15.23,2.31,1.33-.8,1.74-1.79Z"/><path class="cls-29" d="M411.11,42.63s-.88,2-1.69,2.34c-.56.23-.66-.9-.25-2.5Z"/><path class="cls-29" d="M384.69,40.26s-.17,1.26.17,1.38S386,41,386.5,40.28C385.8,40.24,384.69,40.26,384.69,40.26Z"/><path class="cls-29" d="M378.3,38.88s-.1.94.34,1,.66,0,1-.61C379.22,39.17,378.3,38.88,378.3,38.88Z"/><path class="cls-29" d="M394.66,43s.38-1.24-.06-1.49-1.27.33-1.87,1.33Z"/><path class="cls-29" d="M401.6,44s.56-1.29-.2-1.52c-.53-.16-1.85,1.17-1.85,1.17C400.58,43.89,401.6,44,401.6,44Z"/><path class="cls-29" d="M405.65,44.82s1.45-2.51,2-2-.23,2.4-.23,2.4C406.2,45,405.65,44.82,405.65,44.82Z"/><path class="cls-29" d="M388.68,42.61s.49-1.14-.12-1.33-1.61,1.18-1.61,1.18C387.26,42.53,388.68,42.61,388.68,42.61Z"/><path class="cls-29" d="M382.34,41.62s.39-1,0-1.25-1,.18-1.46.78C381.7,41.44,382.34,41.62,382.34,41.62Z"/><path class="cls-30" d="M388.18,16.78s1.77,2.88-2.2,5.31C385,19,388.18,16.78,388.18,16.78Z"/><path class="cls-12" d="M247.53,21.38s-1.28-3.49-5.32-.52C245.9,21.85,247.53,21.38,247.53,21.38Z"/><path class="cls-12" d="M240.5,20.66s-1.74-4-5.94-.47C238.57,21.29,240.5,20.66,240.5,20.66Z"/><path class="cls-12" d="M232.8,20.08s-1.84-4-5.67-.37C231,20.78,232.8,20.08,232.8,20.08Z"/><path class="cls-12" d="M225.36,19.6s-1.74-3.86-5.51-.28C223.41,20.36,225.36,19.6,225.36,19.6Z"/><path class="cls-12" d="M218,19.26s-2.37-4-6.25-.2A12,12,0,0,0,218,19.26Z"/><path class="cls-12" d="M210.15,19s-2.4-4.25-6.42-.18A12.92,12.92,0,0,0,210.15,19Z"/><path class="cls-12" d="M201.91,18.82s-2.34-4.4-6.65-.08A13.59,13.59,0,0,0,201.91,18.82Z"/><path class="cls-12" d="M193.2,18.76s-2.3-4.31-6.33.25A13,13,0,0,0,193.2,18.76Z"/><path class="cls-12" d="M185.37,19.13s-3.69-4-6.57,1.17C181.91,20.92,185.37,19.13,185.37,19.13Z"/><path class="cls-12" d="M177.35,20.65s-4.16-3.28-6.65,1.81C173.32,23.24,177.35,20.65,177.35,20.65Z"/><path class="cls-12" d="M169.15,22.91s-3.4-3.53-5.84,1.78C166.12,25.22,169.15,22.91,169.15,22.91Z"/><path class="cls-12" d="M161.91,25.14S159.1,22,156.25,26.9C159.06,27.49,161.91,25.14,161.91,25.14Z"/><path class="cls-12" d="M155,27.31s-2.62-2.82-5.57,1.71A8.33,8.33,0,0,0,155,27.31Z"/><path class="cls-31" d="M170,13.23s-4-3.17-6.48,1.84C166.09,15.81,170,13.23,170,13.23Z"/><path class="cls-31" d="M162.17,16.2s-3.3-3.43-5.7,1.81C159.22,18.49,162.17,16.2,162.17,16.2Z"/><path class="cls-31" d="M155.64,19s-2.43-2.76-4.92,1.59C153.15,21.1,155.64,19,155.64,19Z"/><path class="cls-31" d="M149.68,21.48s-2.37-2.56-5.07,1.61A7.65,7.65,0,0,0,149.68,21.48Z"/><path class="cls-31" d="M143,23.69s-2-3.05-5.26.83A7.29,7.29,0,0,0,143,23.69Z"/><path class="cls-31" d="M135.42,25.31s-2-3-5.15.81A7.06,7.06,0,0,0,135.42,25.31Z"/><path class="cls-31" d="M128.66,27s-1.92-3-5,.79A6.85,6.85,0,0,0,128.66,27Z"/><path class="cls-31" d="M122,28.53s-1.85-3-4.94.73A6.63,6.63,0,0,0,122,28.53Z"/><path class="cls-31" d="M115.51,29.88s-1.45-2.84-4.37.28A5.63,5.63,0,0,0,115.51,29.88Z"/><path class="cls-31" d="M109.29,30.61s-1.06-2.65-3.77-.15A4.7,4.7,0,0,0,109.29,30.61Z"/><path class="cls-31" d="M104.11,30.57s-1-2.63-3.71-.15A4.58,4.58,0,0,0,104.11,30.57Z"/><path class="cls-31" d="M98.5,30.23s-.66-2.48-3.17-.61A3.86,3.86,0,0,0,98.5,30.23Z"/><path class="cls-31" d="M93.72,29.11s-.5-2.3-2.83-.71A3.44,3.44,0,0,0,93.72,29.11Z"/><path class="cls-31" d="M89.12,27.88s-.42-2.16-2.59-.72A3.15,3.15,0,0,0,89.12,27.88Z"/><path class="cls-12" d="M148.13,29.41s-2.52-2.81-5.13,1.49A8.63,8.63,0,0,0,148.13,29.41Z"/><path class="cls-12" d="M141.75,31.26s-3-2.86-5.77,1.49C138.47,33.23,141.75,31.26,141.75,31.26Z"/><path class="cls-12" d="M134.63,33.08s-3-3.64-5.87,1.26C131.38,35,134.63,33.08,134.63,33.08Z"/><path class="cls-12" d="M127.41,34.59s-2.87-4.2-5.74.86C124.23,36.11,127.41,34.59,127.41,34.59Z"/><path class="cls-12" d="M120.27,35.62s-2.38-4.61-5.07.3A9.59,9.59,0,0,0,120.27,35.62Z"/><path class="cls-12" d="M113.89,35.93s-1.84-4.74-4.66-.27A6.73,6.73,0,0,0,113.89,35.93Z"/><path class="cls-12" d="M107.87,35.48s-1.36-4.64-4.7-1A7.66,7.66,0,0,0,107.87,35.48Z"/><path class="cls-12" d="M101.6,34.08s-1.14-4.3-4.11-1.13A6.93,6.93,0,0,0,101.6,34.08Z"/><path class="cls-12" d="M92.22,31.33c2.92-2.76,3.91,1.24,3.91,1.24A9.79,9.79,0,0,1,92.22,31.33Z"/><path class="cls-12" d="M254.6,22.2s-1.26-3.57-5.18-.63A9.9,9.9,0,0,0,254.6,22.2Z"/><path class="cls-12" d="M261,23s-1.18-3.22-4.67-.62A9.56,9.56,0,0,0,261,23Z"/><path class="cls-12" d="M268,23.8s-1.67-3.06-5.18-.54A8.27,8.27,0,0,0,268,23.8Z"/><path class="cls-12" d="M275.13,24.07s-1.84-2.62-4.82-.19A8.89,8.89,0,0,0,275.13,24.07Z"/><path class="cls-31" d="M241.09,12.55s-.85-3.25-4.7-.83C239.59,12.88,241.09,12.55,241.09,12.55Z"/><path class="cls-31" d="M233.47,11.24s-1.26-3.84-5.37-.82C231.67,11.69,233.47,11.24,233.47,11.24Z"/><path class="cls-31" d="M224.82,9.57s-1.77-3.88-5.51-.28C223.1,10.28,224.82,9.57,224.82,9.57Z"/><path class="cls-31" d="M216.76,9s-1.75-3.92-5.6-.2C214.77,9.84,216.76,9,216.76,9Z"/><path class="cls-31" d="M209.06,8.83S206.78,5,203,8.73A11.6,11.6,0,0,0,209.06,8.83Z"/><path class="cls-31" d="M201.72,9.26s-2.61-3.9-6.25.4A12.71,12.71,0,0,0,201.72,9.26Z"/><path class="cls-31" d="M193.8,10s-2.25-4.28-6.46,0A13.14,13.14,0,0,0,193.8,10Z"/><path class="cls-31" d="M186.05,10.86s-2.12-4-5.88.3A12,12,0,0,0,186.05,10.86Z"/><path class="cls-31" d="M178.17,11.92s-3-4.44-6.42.3C174.64,13.23,178.17,11.92,178.17,11.92Z"/><path class="cls-31" d="M248.38,13.68s-1-3.33-4.72-.72A9,9,0,0,0,248.38,13.68Z"/><path class="cls-31" d="M255.21,15s-.92-3.17-4.43-.83A9,9,0,0,0,255.21,15Z"/><path class="cls-31" d="M262.48,16.51s-1.19-3-4.69-1A7.49,7.49,0,0,0,262.48,16.51Z"/><path class="cls-31" d="M269.95,18s-1.26-2.7-4.41-.85A8.15,8.15,0,0,0,269.95,18Z"/><path class="cls-12" d="M279.86,31.88s-3-2.68-6,.78A9.65,9.65,0,0,0,279.86,31.88Z"/><path class="cls-12" d="M286,31.45a5.19,5.19,0,0,0-5.54.24A6.72,6.72,0,0,0,286,31.45Z"/><path class="cls-12" d="M273.14,32.88s-2.11-2.88-5.64.17A7.56,7.56,0,0,0,273.14,32.88Z"/><path class="cls-12" d="M266.74,33.22s-1.57-3-5.27-.13C264.73,34.4,266.74,33.22,266.74,33.22Z"/><path class="cls-12" d="M260.43,33.24s-2.88-2.86-6,.58A7.58,7.58,0,0,0,260.43,33.24Z"/><path class="cls-12" d="M253.35,34s-2.07-3.57-6.13-.11A8.62,8.62,0,0,0,253.35,34Z"/><path class="cls-12" d="M246.22,34s-2.55-3.82-7.25.53A7.72,7.72,0,0,0,246.22,34Z"/><path class="cls-12" d="M238,34.62s-2.53-4.85-7.45-.59C235.11,36.09,238,34.62,238,34.62Z"/><path class="cls-12" d="M229.57,34.12s-2.47-4.61-7-.67C226.65,35.73,229.57,34.12,229.57,34.12Z"/><path class="cls-12" d="M221.57,33.38s-2.28-4.94-7.33-1C218.64,34.57,221.57,33.38,221.57,33.38Z"/><path class="cls-12" d="M213.5,32.4s-1.67-4.76-6.56-1.14C210.88,33.57,213.5,32.4,213.5,32.4Z"/><path class="cls-12" d="M206,31.11s-2.37-5-7.8-1A9.77,9.77,0,0,0,206,31.11Z"/><path class="cls-12" d="M197.47,30.11s-2.44-5.49-8-1C194.41,31.65,197.47,30.11,197.47,30.11Z"/><path class="cls-12" d="M188.56,29.11s-2.5-4.87-7.5-.25A7.09,7.09,0,0,0,188.56,29.11Z"/><path class="cls-12" d="M180.34,28.89s-3-4.76-7.38.57A8.44,8.44,0,0,0,180.34,28.89Z"/><path class="cls-12" d="M172.28,29.68s-4.15-3.69-6.55,2.21C170.32,32.32,172.28,29.68,172.28,29.68Z"/><path class="cls-12" d="M165.08,32.2s-3.9-3.1-6.54,2.43A8,8,0,0,0,165.08,32.2Z"/><path class="cls-12" d="M157.82,35s-3-3.2-6.14,1.7A6.84,6.84,0,0,0,157.82,35Z"/><path class="cls-12" d="M151.07,36.88s-2.72-3.6-5.71,1.08A6.69,6.69,0,0,0,151.07,36.88Z"/><path class="cls-12" d="M144.91,38.27s-3.47-2.85-6.76,2.9A9.14,9.14,0,0,0,144.91,38.27Z"/><path class="cls-12" d="M137.52,41.48s-3-4.05-6.54,1.25A8,8,0,0,0,137.52,41.48Z"/><path class="cls-12" d="M130.53,42.77s-3-4.15-6.86.75A6.41,6.41,0,0,0,130.53,42.77Z"/><path class="cls-12" d="M123,43.48s-2.31-4.53-6.12-.65C120.49,44.92,123,43.48,123,43.48Z"/><path class="cls-12" d="M116.27,42.77s-1.68-4.76-5.75-1.48A8.27,8.27,0,0,0,116.27,42.77Z"/><path class="cls-12" d="M109.87,41s-1.19-5.14-5.36-1.9C108.14,40.95,109.87,41,109.87,41Z"/><path class="cls-12" d="M103.94,38.85s-1.24-5.26-5.61-2.75A34.7,34.7,0,0,0,103.94,38.85Z"/><path class="cls-32" d="M413.82,46.46s-3.35,3.87-3.39,2.92c0-.19.79-2.68.89-3.33l-.21,0s-.49,1.92-.75,2.71-.68,2.12.85,1a22.24,22.24,0,0,0,3.23-3.19Z"/><path class="cls-33" d="M432.12,48.62s-1,.87-.76-.14l-.17,0s-.73,2.28,1.46.25Z"/><path class="cls-33" d="M429.6,44.09a7.55,7.55,0,0,0-.2-3,6.78,6.78,0,0,1,.82,3.22Z"/><path class="cls-19" d="M212.82,99.24s-5,3.52-13.92,3.17c2.3.46,14.6,3.15,14.79-2.92Z"/><path class="cls-34" d="M249.44,134.72s-1.53-1.36-1.59-2.62,3.54,1.14,4.56,2.8.88,3.37.22,4C252.17,139.27,253.31,137.21,249.44,134.72Z"/><path class="cls-35" d="M248.33,132.86a2,2,0,0,1-.47-.76c-.2-1.27,3.55.79,4.61,2.69s.6,3.62.47,3C252.69,136.68,252.09,135.3,248.33,132.86Z"/><path class="cls-34" d="M246.28,125.72a4.23,4.23,0,0,1-1.39-2.3c0-1.12,3.11,1,4,2.42s.76,3,.18,3.49C248.67,129.7,249.67,127.87,246.28,125.72Z"/><path class="cls-35" d="M245.3,124.08a1.7,1.7,0,0,1-.42-.66c-.17-1.12,3.13.66,4.06,2.32s.52,3.19.4,2.65C249.13,127.41,248.61,126.2,245.3,124.08Z"/><path class="cls-34" d="M236.36,132.72a3.76,3.76,0,0,1-1.19-2c0-1,2.69.87,3.45,2.16s.64,2.61.14,3.07C238.4,136.23,239.28,134.63,236.36,132.72Z"/><path class="cls-35" d="M235.52,131.27a1.54,1.54,0,0,1-.36-.59c-.14-1,2.7.61,3.5,2.07s.43,2.81.33,2.33C238.81,134.22,238.37,133.16,235.52,131.27Z"/><path class="cls-34" d="M345,121s-1.68-1-1.93-2.12,3.59.58,4.82,1.91,1.35,2.87.8,3.46C348.36,124.63,349.15,122.68,345,121Z"/><path class="cls-35" d="M343.69,119.45s-.48-.33-.57-.61c-.38-1.09,3.55.27,4.86,1.81s1.12,3.12.9,2.6C348.47,122.29,347.68,121.15,343.69,119.45Z"/><path class="cls-34" d="M324.92,123.1s-1.32-1.22-1.28-2.26,3.17,1.21,4,2.63.58,2.8-.06,3.22C327.13,127,328.3,125.41,324.92,123.1Z"/><path class="cls-35" d="M324,121.49a1.63,1.63,0,0,1-.39-.65c-.1-1,3.2.93,4,2.55s.31,3,.23,2.48C327.76,124.94,327.31,123.77,324,121.49Z"/><path class="cls-34" d="M309.29,118a3.32,3.32,0,0,1,.45-2.71c.9-1,2.52,2.36,2.24,4.07a3.89,3.89,0,0,1-2.75,3.15C308.51,122.68,311.12,121.56,309.29,118Z"/><path class="cls-35" d="M309.64,116.12a1.31,1.31,0,0,1,.11-.79c.76-1.07,2.79,2.09,2.38,4s-2.14,3.05-1.81,2.52C310.92,120.9,311.38,119.58,309.64,116.12Z"/><path class="cls-34" d="M339.8,113.19s-1.32-.47-1.68-1.23,2.54-.14,3.61.63,1.42,1.86,1.15,2.38C342.69,115.33,342.88,113.79,339.8,113.19Z"/><path class="cls-35" d="M338.61,112.31a1.38,1.38,0,0,1-.5-.35c-.45-.73,2.46-.36,3.62.55s1.31,2.08,1.07,1.73C342.35,113.62,341.62,112.92,338.61,112.31Z"/><ellipse class="cls-19" cx="235.81" cy="59.43" rx="2.06" ry="1.29" transform="translate(-3.61 16.82) rotate(-4.05)"/><path class="cls-19" d="M264.68,55.16c.07.83,1.25,1.43,2.64,1.34s2.48-.84,2.41-1.67-1.26-1.44-2.66-1.34S264.61,54.33,264.68,55.16Z"/><path class="cls-19" d="M225.28,55.23c0,1,1.3,1.77,2.89,1.74s2.87-.87,2.86-1.87-1.32-1.78-2.91-1.74S225.27,54.24,225.28,55.23Z"/><path class="cls-19" d="M248.29,52c.07.94,1.39,1.61,2.94,1.49s2.77-1,2.69-1.94-1.41-1.61-3-1.48S248.21,51.09,248.29,52Z"/><path class="cls-14" d="M251.73,71.87c.06.74,1.09,1.29,2.3,1.23s2.15-.72,2.09-1.46-1.1-1.3-2.31-1.23S251.68,71.12,251.73,71.87Z"/><path class="cls-14" d="M236.2,78c0,.59.83,1,1.77,1s1.66-.55,1.62-1.14-.84-1-1.78-1S236.16,77.39,236.2,78Z"/><path class="cls-14" d="M231.06,74.15c0,.63.89,1.1,1.89,1.05s1.78-.61,1.74-1.24-.89-1.1-1.9-1S231,73.52,231.06,74.15Z"/><path class="cls-14" d="M304.31,57c.06.48.78.82,1.62.76s1.48-.49,1.43-1-.79-.82-1.63-.76S304.26,56.54,304.31,57Z"/><path class="cls-14" d="M312.31,60.37c.05.42.7.73,1.45.68s1.32-.43,1.27-.85-.7-.73-1.45-.68S312.26,59.95,312.31,60.37Z"/><ellipse class="cls-19" cx="266.19" cy="41.16" rx="1.91" ry="1.13" transform="translate(-2.65 24.45) rotate(-5.23)"/><path class="cls-19" d="M218,46.69c0,.66.76,1.25,1.81,1.3s1.94-.44,2-1.1-.77-1.25-1.82-1.3S218,46,218,46.69Z"/><path class="cls-19" d="M209.75,42.44c0,.59.69,1.08,1.61,1.09s1.69-.45,1.72-1-.7-1.08-1.62-1.09S209.77,41.86,209.75,42.44Z"/><path class="cls-19" d="M271.18,43.1c0,.45.68.76,1.44.7s1.35-.47,1.31-.92-.69-.76-1.45-.7S271.14,42.65,271.18,43.1Z"/><path class="cls-19" d="M297,45.39c.08.76,1.23,1.29,2.57,1.18s2.36-.82,2.27-1.58-1.24-1.29-2.58-1.17S296.87,44.63,297,45.39Z"/><path class="cls-19" d="M305.68,40.81c.07.62,1,1.05,2.11,1s2-.66,1.88-1.28-1-1.05-2.12-1S305.61,40.2,305.68,40.81Z"/><path class="cls-19" d="M319.37,43.42c.06.53.89.91,1.86.84s1.7-.56,1.64-1.1-.9-.91-1.86-.84S319.31,42.89,319.37,43.42Z"/><path class="cls-19" d="M239.54,43.93c.07.92,1.34,1.56,2.86,1.43s2.69-1,2.62-1.93-1.36-1.56-2.87-1.42S239.47,43,239.54,43.93Z"/></svg>