<svg id="Layer_1" data-name="Layer 1" xmlns="http://www.w3.org/2000/svg" viewBox="0 0 172.61 52.1"><defs><style>.cls-1{fill:#6a7238;}.cls-2{fill:#575e2a;}.cls-3{fill:#525b2f;}.cls-4{fill:#5c6635;}.cls-5{fill:#555e30;}.cls-6{fill:#8a9352;}.cls-7{fill:#232813;}.cls-8{fill:#918940;}.cls-9{fill:#495424;}.cls-10{fill:#a59e47;}.cls-11{fill:#414c1e;}.cls-12{fill:#384222;}.cls-13{fill:#505927;}.cls-14{fill:#726a33;}.cls-15{fill:#5c6631;}.cls-16{fill:#baae5b;}.cls-17{fill:#777c42;}.cls-18{fill:#81874c;}.cls-19{fill:#38421c;}.cls-20{fill:#616b34;}.cls-21{fill:#685f2e;}.cls-22{fill:#7a713b;}.cls-23{fill:#404928;}.cls-24{fill:#444c2b;}.cls-25{fill:#485127;}.cls-26{fill:#2a3316;}.cls-27{fill:#869b2c;}.cls-28{fill:#a8b240;}.cls-29{fill:#fff;}.cls-30{fill:#282424;}.cls-31{fill:#444c26;}.cls-32{fill:#7f743d;}.cls-33{fill:#7c7239;}.cls-34{fill:#666550;}.cls-35{fill:#8e8e78;}</style></defs><title>CrocodileSmall</title><path class="cls-1" d="M62.75,3.45a2.62,2.62,0,0,0-2-2.56c-2-.47-5.63,1-8.41,6.56C57.94,8.21,62.75,3.45,62.75,3.45Z"/><path class="cls-2" d="M62.5,2.33a3,3,0,0,1,.26,1.12s-4.81,4.76-10.46,4A14.34,14.34,0,0,1,56.51,2.1C55.56,3.79,59.89,4,62.5,2.33Z"/><path class="cls-3" d="M104.34,5.81a5,5,0,0,1,2.49,0,3.61,3.61,0,0,1,2.71-.55,4,4,0,0,1,3.14-.88,8.27,8.27,0,0,1,4.27-.52,10.68,10.68,0,0,1,5.27-1s6.53-2,8.72-1.77a50.86,50.86,0,0,1,15.45,3.78c2,0,5.88.8,6.72,3.35,1.18.48-46.86,24.1-116.8,6.47-12-3-7-9.84-7-9.84s1.05-.49,1.57,1A1.52,1.52,0,0,1,32.6,7.06c.27-.35,1.26-.43,1.66.71.29-.44,1.08-.49,1.49.4.41-.52,1.19-.08,1.47.55A1,1,0,0,1,39,8.83a1,1,0,0,1,1.58.11c.33-.49.9-1.11,2-.12.31-.55.81-1.13,2.35-.4.32-.64,1.07-1.14,2.93-.72.3-.68,1.42-1.11,2.8-.8.81-1,2.47-.79,3.22-.41a2.09,2.09,0,0,1,2.12-.82c.1-.48.77-1.28,2.35-.8A2.4,2.4,0,0,1,61.15,4,3,3,0,0,1,63.76,2.7a2,2,0,0,1,2.05-.76A2.42,2.42,0,0,1,68,1.25C68.44.77,69.35.39,71.15.7A3.62,3.62,0,0,1,74.08.31a5.42,5.42,0,0,1,3.35-.1,4.92,4.92,0,0,1,2.75.12,3.76,3.76,0,0,1,3.31.17A4.22,4.22,0,0,1,87.26,1a5.07,5.07,0,0,1,3.62.62,5.44,5.44,0,0,1,3.53.88,5.26,5.26,0,0,1,3.1.69,4.54,4.54,0,0,1,3,.85A7.88,7.88,0,0,1,104.34,5.81Z"/><path class="cls-1" d="M104.34,5.81a4,4,0,0,0,2.49,0,3.61,3.61,0,0,1,2.71-.55,4,4,0,0,1,3.14-.88,8.27,8.27,0,0,1,4.27-.52,10.68,10.68,0,0,1,5.27-1s6.53-2,8.72-1.77a50.86,50.86,0,0,1,15.45,3.78c2,0,5.88.8,6.72,3.35,1.18.48-46.86,24.1-116.8,6.47-12-3-7-9.84-7-9.84s1.05-.49,1.57,1A1.52,1.52,0,0,1,32.6,7.06c.27-.35,1.26-.43,1.66.71.29-.44,1.08-.49,1.49.4.41-.52,1.19-.08,1.47.55A1,1,0,0,1,39,8.83a1,1,0,0,1,1.58.11c.33-.49.9-1.11,2-.12.31-.55.81-1.13,2.35-.4.32-.64,1.07-1.14,2.93-.72.3-.68,1.42-1.11,2.8-.8.81-1,2.47-.79,3.22-.41a2.09,2.09,0,0,1,2.12-.82c.1-.48.77-1.28,2.35-.8A2.4,2.4,0,0,1,61.15,4,3,3,0,0,1,63.76,2.7a2,2,0,0,1,2.05-.76A2.42,2.42,0,0,1,68,1.25C68.44.77,69.35.39,71.15.7A3.62,3.62,0,0,1,74.08.31a7.1,7.1,0,0,0,3.35-.1,5.3,5.3,0,0,0,2.75.12,8.72,8.72,0,0,0,3.31.17A14.35,14.35,0,0,0,87.26,1a9.79,9.79,0,0,0,3.62.62,6.86,6.86,0,0,0,3.53.88c2.1,1,3.1.69,3.1.69a6.71,6.71,0,0,0,3,.85A12.73,12.73,0,0,0,104.34,5.81Z"/><path class="cls-4" d="M91.37,1.86a18.28,18.28,0,0,0,3,.67c2.1,1,3.1.69,3.1.69a6.71,6.71,0,0,0,3,.85,12.73,12.73,0,0,0,3.86,1.74s2.27,1.79,4.8,7.83c-1.59.17-8.48.18-10.37.5C98.1,12.44,96.58,5.81,91.37,1.86Z"/><path class="cls-5" d="M100.48,4.07a12.73,12.73,0,0,0,3.86,1.74,18.12,18.12,0,0,1,4.8,7.83c-.64.07-1.4-.95-3.11-.89C104.89,9.07,100.48,4.07,100.48,4.07Z"/><path class="cls-6" d="M129.18,2.67c-1.24-1.09-1.72-1.17-1.72-1.17a12.43,12.43,0,0,1,3.47-.4,55.85,55.85,0,0,1,7.87,1.27c.93.59-1.26,1.63-2.62,1.83-1.79.26-2.81.36-3.75.53C130.52,4.66,130.26,3.62,129.18,2.67Z"/><path class="cls-6" d="M109.53,5.27a4,4,0,0,1,3.14-.88,8.27,8.27,0,0,1,4.27-.52,9.77,9.77,0,0,1,4-1,13,13,0,0,1,2.41,1.94,1.44,1.44,0,0,1,.35,1.35c-.18.61-1,1-2.41,1.39-4.63,1.22-10.39,2.32-11.46,1.16-2.1-2.29-2.87-3-2.87-3A3.69,3.69,0,0,1,109.53,5.27Z"/><path class="cls-6" d="M30.77,5.85c.09.63,1.37,1.3,1.83,1.21a1.92,1.92,0,0,0,1.66.71c.19.26,1.07.71,1.49.4a1.88,1.88,0,0,0,1.47.55A4,4,0,0,0,39,8.83a4.07,4.07,0,0,0,1.58.11,9.71,9.71,0,0,0,2-.12A8.26,8.26,0,0,0,45,8.41a7.73,7.73,0,0,0,2.93-.72,6.94,6.94,0,0,0,2.8-.8A11.83,11.83,0,0,0,54,6.48a4.71,4.71,0,0,0,2.12-.82,5.94,5.94,0,0,0,2.35-.8A5.56,5.56,0,0,0,61.15,4,5.17,5.17,0,0,0,63.76,2.7a3.51,3.51,0,0,0,2.05-.76A3.53,3.53,0,0,0,68,1.25,10,10,0,0,0,71.15.7,7.32,7.32,0,0,0,74.08.31s.1,0,.08,0S77.44,0,79.24,1.67c.55.52.44.68,1.11,1.1a4.62,4.62,0,0,1,1.81,1.6c.53,1.41-3.09,1.78-3.09,1.78a64.61,64.61,0,0,1-6.6.28c-7,.26-22.74,7.27-31.5,5C30.67,8.86,29.91,6.24,29.14,5.7A3,3,0,0,0,30.77,5.85Z"/><path class="cls-7" d="M170.41,19.38a5,5,0,0,1-1.28,2.33c-4.92-.93-9.86-.69-14.55-1.42-4-.61-7.78-1.42-11.52-2.13a12.24,12.24,0,0,1,1.47-5.67,125.36,125.36,0,0,1,15.94,3c3.67.88,7.35,2,11.16,3C171,19.47,170.41,19.38,170.41,19.38Z"/><path class="cls-8" d="M2.76,10c1.42-1.06,13.5-4.85,41.39,9.59,3.21,1.66,78.45-2,87.32-2.45a106.1,106.1,0,0,1,8.23,7.82c-3,2.37-6.78,5.19-19.43,6.05-7,.47-11.25.4-11.25.4a37.65,37.65,0,0,1-24.91,2.12S67.81,32.08,56,28.24c-3.93.05-9.74,1.37-20.46-2.13-9.7-3.17-16.24-9.84-22.8-11.72C6.65,12.64.4,14.1.13,13.83S-.27,12.53,2.76,10Z"/><path class="cls-8" d="M139.44,13.94c7.53-.18,13.92.52,15.06-4.07a19.29,19.29,0,0,0,7.26,1.47,6.18,6.18,0,0,1,5.86-.94c2.94,1.1,5.76,4.07,4.8,6.62-.53,1.42-1.24,2.42-2,2.41-2.3,0-3.75-.69-6.32-1.35-.88-.22-3.5.14-6.16-.29a20.15,20.15,0,0,0-4.3-.84c-2-.15-3.68-.16-4.73-.21a13.65,13.65,0,0,1-4-1.21s1,1.3,3.93,1.91c1.44.3,2.82.26,5,.61,3,.49,4.61,1.09,6.27,1.35,2.25.36,3.79.22,5.34.63a18.27,18.27,0,0,0,4.44.74c-1.24,2.59-3.58,1.71-7,2s-6.27.21-9,1c-9.36,2.61-14.29,1.24-14.29,1.24a7.7,7.7,0,0,1-3.38-2.66,3.58,3.58,0,0,1-.66-3.49C136.44,16.68,137,14.59,139.44,13.94Z"/><path class="cls-9" d="M158.36,17a29.09,29.09,0,0,0-4.85-.85c-2-.15-3.47-.06-4.52-.16-4.07-.37-5.81-1.26-7.78-1.66,2.35-1.07,12.92-1.34,13.9-5.3A16.78,16.78,0,0,0,162,10.86c.65-.49,5.64-.46,5.64-.46,2.94,1.1,6.53,4.28,4.28,7.82,0,0-.43.47-2.12.21-2.2-.34-4.37-1.22-5.94-1.44C162.94,16.86,161,17.48,158.36,17Z"/><path class="cls-10" d="M139.69,15a5.48,5.48,0,0,1,4.54.81,13.91,13.91,0,0,0,1.89,1.34,11.14,11.14,0,0,0,2.64.93c1.44.3,3.2.41,5.33.77,3,.5,3.92,1,5.58,1.23a38.65,38.65,0,0,0,4.07.33c.93.09,3,.36,3.62.47-.18.76-.86.84-1.41.84-1.54,0-2.18-.06-3.7.06a45.27,45.27,0,0,0-8.75,1.44c-10.61,2.9-17.24-.75-17.24-.75l-.19-.26a3.46,3.46,0,0,1-.5-3.46C136.35,16.88,139.65,15,139.69,15Z"/><path class="cls-11" d="M2.72,10l-.07-.64A5.11,5.11,0,0,1,4.48,7.3a2.22,2.22,0,0,1,.59.41,2.69,2.69,0,0,0,0-.9A6,6,0,0,1,6.69,5.45a3,3,0,0,1,.47.68,7.05,7.05,0,0,0,.11-1.07C7.49,4.74,8.48,4,9,4c.11.18.41,1,.41,1a4.78,4.78,0,0,0,0-1.28,2.93,2.93,0,0,1,1.84-.83,7.78,7.78,0,0,1,.53.93l.22-1.22a3.57,3.57,0,0,1,1.86-.4,3.26,3.26,0,0,1,.42,1s.22-.87.29-1.21a3.1,3.1,0,0,1,1.75-.25,4.33,4.33,0,0,1,.44,1.09l.3-1.19a4.08,4.08,0,0,1,1.78-.11,4,4,0,0,1,.35,1.11l.28-1.13a3.3,3.3,0,0,1,1.75.11,4.54,4.54,0,0,1,.5,1.15l.34-1.1a3.45,3.45,0,0,1,2,.6,2.92,2.92,0,0,1,.16.83l.31-1a5.81,5.81,0,0,1,1.93.47A5.3,5.3,0,0,1,27,3.79l.35-1a4.75,4.75,0,0,1,1.38.59,2.21,2.21,0,0,1,.68,2s1.91-.48,2.29,2.1c.41-.32,1.83-.36,2.1,1.49.3-.19,1.61-.44,2,1.45.74-.3,1.86.36,2.26,1.62a2.15,2.15,0,0,1,2.36,1,3.18,3.18,0,0,1,2.25.75,3.92,3.92,0,0,0,2.45.66,3.33,3.33,0,0,0,2.61.35,2.9,2.9,0,0,0,2.84-.19s1.91.69,2.79-.48c0,0,2.05.38,2.85-1.13,0,0,1.83.77,2.48-.37A2.18,2.18,0,0,0,61.45,12,29,29,0,0,0,64.26,11s1.89-.57,2.82-.82c2.22-.11,3.15-.13,3.15-.13a23.72,23.72,0,0,0,3.24.19s2,.95,3.25.41a4.28,4.28,0,0,0,3.31.49s1.74,1.12,2.83.54c0,0,2,1,3.19.47,0,0,1.77,1.07,3.1.34a4.46,4.46,0,0,0,3.24.31,3.61,3.61,0,0,0,3.18-.14,4.64,4.64,0,0,0,2.83.08s1.91.49,2.68-.25c0,0,1.52.7,2.45.1a3.07,3.07,0,0,0,2.51,0,4.46,4.46,0,0,0,1.45.07,3.49,3.49,0,0,0,1.13-.37,3.47,3.47,0,0,0,2.55-.13,4,4,0,0,0,3-.31,6.05,6.05,0,0,0,3.53-.24A4.28,4.28,0,0,0,122,10.23a7.38,7.38,0,0,0,4.5-.89,45.53,45.53,0,0,1,12.74-1.47c3.64.33,5.27-.35,6.44-1.1,2.38-1.52,6.15-1.22,7.42,1.47,0,0,2.44,1,2.44,1-1,1.83-3.24,5.59-12.48,4.88-10-.76-7.6,8.55-7.6,8.55s-6.87,4.9-18.13,3.58a37.65,37.65,0,0,0-12.1.94c-4.44,4.45-12.66,6.63-20.38,2.78,0,0-16.26-4.46-25.59-8.62-3.83,1.15-13.74,1.78-21.54-1.17C23.93,15,21.37,10.9,14.67,9.5,9.77,8.48,2.72,10,2.72,10Z"/><path class="cls-12" d="M31.66,7.54c.41-.32,1.83-.36,2.1,1.49.3-.19,1.61-.44,2,1.45A1.65,1.65,0,0,1,38,11.71s-4.06.22-8.66-5.75l0-.53S31.28,5,31.66,7.54Z"/><path class="cls-13" d="M5.08,7.71,7.16,6.13,9.44,5.06l2.41-1.19,2.5-.66,2.48-.37,2.42-.19,2.53.13,2.55.33L27,3.79l2.41,1.65,2.29,2.1L33.76,9l2,1.45,2.39,1.32A2.7,2.7,0,0,1,40.43,13a3.1,3.1,0,0,1,2.24.81,3.92,3.92,0,0,0,2.45.66,3.33,3.33,0,0,0,2.61.35,2.9,2.9,0,0,0,2.84-.19s2.09.16,2.79-.48A4.07,4.07,0,0,0,56.19,13a3,3,0,0,0,2.51-.42,5.09,5.09,0,0,0,2.61-.6s1.76-.58,3-1c0,0,1.58-.42,2.82-.82,2.15-.13,3.15-.13,3.15-.13s1.5.16,3.24.19c0,0,2,.95,3.25.41a4.28,4.28,0,0,0,3.31.49s1.74,1.12,2.83.54c0,0,2,1,3.19.47,0,0,1.77,1.07,3.1.34a4.46,4.46,0,0,0,3.24.31,3.61,3.61,0,0,0,3.18-.14,4.64,4.64,0,0,0,2.83.08s1.91.49,2.68-.25c0,0,1.52.7,2.45.1a3.07,3.07,0,0,0,2.51,0,4.46,4.46,0,0,0,1.45.07,3.49,3.49,0,0,0,1.13-.37,3.47,3.47,0,0,0,2.55-.13,4,4,0,0,0,3-.31,6.05,6.05,0,0,0,3.53-.24A4.28,4.28,0,0,0,122,10.23a7.38,7.38,0,0,0,4.5-.89,45.53,45.53,0,0,1,12.74-1.47c3.64.33,5.27-.35,6.44-1.1,2.38-1.52,6.15-1.22,7.42,1.47,0,0,2.44,1,2.44,1-1,1.83-3.24,5.59-12.48,4.88-10-.76-7.6,8.55-7.6,8.55s-6.87,4.9-18.13,3.58a37.65,37.65,0,0,0-12.1.94c-4.44,4.45-12.66,6.63-20.38,2.78,0,0-16.37-4.21-25.7-8.38-3.83,1.15-14.38,2-22.15-1-13.7-5.22-15.11-8.42-21.86-9.85-4.74-1-12.88.52-14.69,1.58A12.5,12.5,0,0,1,2.72,10Z"/><path class="cls-10" d="M6.79,10.78s5.84-1.08,10.52.57c11.36,4,11,7.18,24.47,10.55,5.83,1.46,15.42-.1,17.1-.73a22.72,22.72,0,0,1,9.25-2c2.4,0,10.12.52,10.12.52,2.44,3.08,10.15,7.14,21.55,5,5.79-1.08,11.76-5.51,11.76-5.51,1.57-.62,14.06,3,23.61-1a9.2,9.2,0,0,0,.8,4.66,2,2,0,0,0,.53.67,35.12,35.12,0,0,1-19.06,2.66,29.26,29.26,0,0,0-12,1.13c-4.44,4.45-12.49,6.63-20.69,3a67,67,0,0,1-26.9-5c-5.46,1.11-15.41,1.21-23-2-12.6-5.4-12.39-8.33-20-10.63C11.44,11.6,6.69,11.23,6.79,10.78Z"/><path class="cls-14" d="M107.17,22.9c2,.33,1.36,5.85,1.62,8.54a18.49,18.49,0,0,1-3.44,1.33S103.24,26.47,107.17,22.9Z"/><path class="cls-14" d="M61.83,17.68c3.29.6,10.55,6,12.37,10.39.52,1.26-2.23,3.84-2.23,3.84a89.78,89.78,0,0,1-8.83-1.73C61.28,28.31,59.27,21,61.83,17.68Z"/><path class="cls-15" d="M156.14,15.62c-5.51-.84-7.67,1-13.56-.94-2.86-.93-7.26,3.21-7.26,3.21a6.9,6.9,0,0,1,1.74-3.46c.22-.26,2.67-2.53,3-2.71,1.55-1,4.15.24,5.74.4,2,.2,4.71.47,6.3-.71,1-.72,1.9-1.9,1.27-3.15a18.35,18.35,0,0,0,8.81,2c1.44-.2,2.58-1,5.47.13,2.5.94,4.68,2.9,3.93,4.92-.24.65-2.21,1.5-6.23.43C161.6,14.75,161.19,16.39,156.14,15.62Z"/><path class="cls-16" d="M144.57,16c1.19,1.22,3.81,2.23,6.93,2.35a36.26,36.26,0,0,1,7,1.35,13.72,13.72,0,0,0,4,.6c.63,0,1.78.15,1.78.15,0,.57-2.23.49-3,.5a31.47,31.47,0,0,0-8,.86c-11.88,2.61-18-1.75-18-1.75a4.31,4.31,0,0,1,.13-2.63,5.16,5.16,0,0,1,1.65-2.05C137.63,15,141.54,12.94,144.57,16Z"/><path class="cls-17" d="M167.77,12.55c-2,.5-3.66-.51-5.05-.74-4.17-.69-6.13-1.22-7.17-1.89a2.38,2.38,0,0,1-.94-1,22.88,22.88,0,0,0,7.54,1.4c1.44-.2,2.58-.94,5.47.13C169.29,11,169.57,12.1,167.77,12.55Z"/><path class="cls-18" d="M137.79,13.3A6.93,6.93,0,0,1,140,11.72c1.4-.73,3.3-.34,2.46.74-1.12,1.45-3.92.05-6.6,3.71A16.4,16.4,0,0,1,137.79,13.3Z"/><path class="cls-19" d="M105.94,26.68s.39,2.45,4,6c-.39,2.19,2.52,7.34,5.63,8.39l.82,1.61s-.38,2.09,1.06,2.7,2.38-.36,2.24-1.49c.81,1.11,3.58,3.61,5.11,3.67s-.94-2.8-1.31-3.13c.94.51,7,2.91,8.81,2.83s-.31-2-1.28-2.35S126.19,43,126.19,43s4.58,1.47,4.87.62c.16-.46-1.83-1.48-3.09-1.69-1.79-.31-6-1.31-6.76-2.17a3.33,3.33,0,0,0-1-2.15c-.07-1.56-.14-7-1.56-9.93s-2.22-4.87-5-6.25S105.18,22.36,105.94,26.68Z"/><path class="cls-9" d="M106.17,24.38s-.55,3.57,5.1,7.27c-.39,2.19,1.1,6.35,4.89,8.39a13,13,0,0,0,.78,2.35,2.65,2.65,0,0,0,.9,2.5c1.2.85,2,.12,1.89-1-.91-2.47,2.26,2.4,5,3.17,1.53.44-.81-2.3-1.18-2.64-2.58-1.87,5.48,2.23,8.48,2.38,1.83.09-.07-1.64-1.05-1.93-3.51-1-4.47-.76-4.76-1.87-.14-.55,4.36,1,4.63.45.12-.24-1-1.2-2.85-1.52s-6-1.31-6.76-2.17a3.33,3.33,0,0,0-1-2.15c-.07-1.56-.14-7-1.56-9.93s-2.22-4.87-5-6.25S106.94,22.06,106.17,24.38Z"/><path class="cls-20" d="M117.78,38.71a3.86,3.86,0,0,1,2.41-1.11,2.81,2.81,0,0,1,.9,1.34,2.29,2.29,0,0,1,.13.81c.71.86,5,1.84,6.76,2.17s2.69,1,2.74,1.2c.19.66-5.35-1.39-4.52-.13,0,0,3.89,1.56,4.86,1.91s2.49,1.79.66,1.5c-3.67-.57-12.15-5.31-8.19-2,.37.34,2.66,3.07,1,2.22-2.09-1.09-5.88-6.22-4.81-2.75.14,1.13-1,.74-1.62.21s-.42-1.18-.51-1.93c0,0-.4-1.06-.44-1.33A2.11,2.11,0,0,1,117.78,38.71Z"/><path class="cls-20" d="M111.59,29.11c-3.19-2.38-4.79-4.75-4.09-6.5,1.74-1.48,4.51-2,6.15-1.19a10.48,10.48,0,0,1,4.84,6C119.21,29.24,115.69,32.16,111.59,29.11Z"/><path class="cls-18" d="M112.71,26.19c-2.08-1.48-3.4-3.47-2.73-4.44s2.72-.82,3.78-.3a6.33,6.33,0,0,1,3.2,3.77C117.37,26.71,115.34,28.07,112.71,26.19Z"/><path class="cls-19" d="M72.69,29.48s-3.18.54-7.91-2.59c-4.52-3-5.1-7.87-2.31-9.85s8.65-3.8,11.61-3.06,8.36,3.77,9.87,8.31,1.55,11.48-2.24,14.5c0,0,.22.09,1.32.39s3.23,2.24,4.13,3.33a13.44,13.44,0,0,1,3.87,3c1.59.9,3.6,2.38,3.56,3.66-.22.53-.73.67-1.52.24,1.26,1,3.28,2.48,2.82,3.47s-2.16.12-5.06-1.6c.33.89-1,1.7-3.15.36-2-1.23-3.51-2.32-4.29-2.71s-5.7-2-8.89-5.9c-2.06-1.73-2.63-2.42-2.7-4.24A15.81,15.81,0,0,1,72.69,29.48Z"/><path class="cls-9" d="M74.43,26.12s1.64-1.17-8.34-2.89c-3.87-.66-6.19-4.33-3.62-6.19,2.82-2,8.65-3.8,11.61-3.06s8.36,3.77,9.87,8.31,1.55,11.48-2.24,14.5c0,0,.22.09,1.32.39s3.23,2.24,4.13,3.33a13.44,13.44,0,0,1,3.87,3c1.59.9,3.31,2.21,3.27,3.49,0,.1-.51.1-1.09-.2-1.87-1-5-3.81-6-4.22s-.09.37,5.86,4.82c1.26,1,3.06,2.19,2.6,3.19-.11.24-.83.27-1.92-.34a39,39,0,0,1-4.23-2.9c-1.69-1.34-3.06-2.68-4.17-3.36-.85-.52.25,1.5,5.48,5.27,0,.41-.81,1.14-3-.19-2-1.22-3.54-2.54-4.33-2.92s-5.59-2-8.79-5.91c-2.29-1.8-2.42-2.87-2.4-4.68C72.34,34,71.63,31.69,74.43,26.12Z"/><path class="cls-1" d="M76.25,37.78s4.13,1.11,6.44-.7c0,0,1.71.18,4.48,3.43a13.44,13.44,0,0,1,3.87,3c2.69,1.48,3.23,2.65,3.23,2.65-.15.4-.63.19-1.91-.71-2-1.43-6.18-4.06-5.79-3.34A38.94,38.94,0,0,1,91,45.88a21.06,21.06,0,0,1,4.4,3.64s-.2.39-1.18-.22c-2.76-1.69-9.83-7-9.64-6.09,0,0,2.25,2.55,3.19,3.35,2,1.66,2.49,1.87,2.62,2.4s-1,.21-2.87-1.15a50.86,50.86,0,0,0-4.71-3,29.1,29.1,0,0,1-7.36-6.07c-.62-.71-.58-1-.4-1.2S76.25,37.78,76.25,37.78Z"/><path class="cls-1" d="M62.48,17c2.83-2,8.65-3.8,11.61-3.06S82.7,18.21,84,22.28c2,6.52-3,5.47-4.55,3.46-1.15-1.46-2.76-6-5.4-6.92C69.87,17.35,59.69,19,62.48,17Z"/><path class="cls-18" d="M79.94,20.92a27.17,27.17,0,0,0-3.08-2.87c-5.76-4.07-11.2-2.34-9.71-3.24,1.79-.6,5-1.32,6.94-.83,2.8.7,7.57,3.33,9.47,7.32C84.65,24.36,81.12,22.1,79.94,20.92Z"/><path class="cls-12" d="M45.11,8.22a7.81,7.81,0,0,1,2.26.45,10.76,10.76,0,0,1,2.43,2.84,20.73,20.73,0,0,1,.88,3.06,34.27,34.27,0,0,1-.56,10.12,1,1,0,0,0-.26,0,34.3,34.3,0,0,0,.58-10,20.72,20.72,0,0,0-.86-3,11,11,0,0,0-2.33-2.75A9.5,9.5,0,0,0,45,8.41Z"/><path class="cls-12" d="M48.06,7.47a14.28,14.28,0,0,1,1.94.7A11.38,11.38,0,0,1,52.59,11a20.87,20.87,0,0,1,.87,3.05,33.83,33.83,0,0,1-.27,10.23,1,1,0,0,0-.28.06,33.81,33.81,0,0,0,.31-10.2,21,21,0,0,0-.85-3,11.31,11.31,0,0,0-2.5-2.79,18.27,18.27,0,0,0-2-.74Z"/><path class="cls-12" d="M42.76,8.64a7.42,7.42,0,0,1,2.1.52A10.93,10.93,0,0,1,47.17,12a20.72,20.72,0,0,1,.67,2.75,44.86,44.86,0,0,1-1,10,.93.93,0,0,0-.24,0,43.9,43.9,0,0,0,1-9.9A18.49,18.49,0,0,0,47,12.17,11.14,11.14,0,0,0,44.74,9.4a9.08,9.08,0,0,0-2.09-.59Z"/><path class="cls-12" d="M40.77,8.75a9.76,9.76,0,0,1,1.83.65A9.53,9.53,0,0,1,44.67,12a14,14,0,0,1,.56,2.4,44.49,44.49,0,0,1-1.1,10.05.9.9,0,0,0-.24,0A43.36,43.36,0,0,0,45,14.5a14,14,0,0,0-.54-2.33,9.44,9.44,0,0,0-2-2.52,12.78,12.78,0,0,0-1.84-.71Z"/><path class="cls-12" d="M39.16,8.69s.78.4,1.37.73a8,8,0,0,1,1.8,2.41,8.57,8.57,0,0,1,.46,1.93A50.22,50.22,0,0,1,41.27,24L41,23.93a51,51,0,0,0,1.51-10.09A8.31,8.31,0,0,0,42.11,12a7.76,7.76,0,0,0-1.71-2.31c-.58-.32-1.35-.83-1.36-.83Z"/><path class="cls-12" d="M38.17,9.1A5.37,5.37,0,0,1,39.85,11l.1.22A6.13,6.13,0,0,1,40.53,13a53.45,53.45,0,0,1-2.18,10.37l-.21-.08a55,55,0,0,0,2.17-10.22,5.93,5.93,0,0,0-.56-1.68l-.1-.22a5.19,5.19,0,0,0-1.59-1.84,3.22,3.22,0,0,1-.83-.62l.06-.17A9.42,9.42,0,0,0,38.17,9.1Z"/><path class="cls-12" d="M35.1,22.37A68.23,68.23,0,0,0,38,11.77a6.89,6.89,0,0,0-1.44-2.65c-.13-.13-.86-.77-.87-.78l.14-.22s.75.65.88.79a7,7,0,0,1,1.51,2.82c0,1.16-2,8.48-2.89,10.73Z"/><path class="cls-12" d="M32.29,21.22a60.71,60.71,0,0,0,3.4-10.73A3.48,3.48,0,0,0,35.16,9c-.27-.4-1-1.2-1-1.2l.09,0a8.9,8.9,0,0,1,1,1.09,3.65,3.65,0,0,1,.64,1.62A61.33,61.33,0,0,1,32.49,21.3Z"/><path class="cls-12" d="M29.72,20A82.11,82.11,0,0,0,33.76,9L34,8.94A84.07,84.07,0,0,1,29.9,20.08Z"/><path class="cls-12" d="M27.27,18.65a105.24,105.24,0,0,0,4.4-11.11l.23-.12a104.33,104.33,0,0,1-4.45,11.32Z"/><path class="cls-12" d="M25.06,17.38c.27-.5.57-1.11.91-1.85A71.84,71.84,0,0,0,29.37,5.44l.18,0a70.66,70.66,0,0,1-3.4,10.21c-.34.74-.64,1.34-.91,1.85Z"/><path class="cls-12" d="M22.83,16.13c.8-1.74,1.78-4.41,2.34-6A62.17,62.17,0,0,0,27,3.79l.35-1a71.38,71.38,0,0,1-2,7.4c-.77,2.11-1.62,4.42-2.35,6Z"/><path class="cls-12" d="M20.7,15c.83-1.95,2.22-5.76,2.68-7.34a44.3,44.3,0,0,0,1-4.54l.31-1A56.18,56.18,0,0,1,23.56,7.7c-.46,1.58-1.85,5.42-2.69,7.38Z"/><path class="cls-12" d="M18.57,13.87c.68-1.69,1.66-4.6,2.25-6.7a41.36,41.36,0,0,0,.95-4.39l.34-1.1a48.37,48.37,0,0,1-1,5.24,73.05,73.05,0,0,1-2.35,7Z"/><path class="cls-12" d="M2.84,11.65l-.16.06a6.8,6.8,0,0,0,0-1.69l0-.67A5.24,5.24,0,0,1,2.84,11.65Z"/><path class="cls-12" d="M4.91,11.11H4.75a14,14,0,0,0,.32-3.41l0-.9A11,11,0,0,1,4.91,11.11Z"/><path class="cls-12" d="M10.88,10.43h-.16a39.52,39.52,0,0,0,1.13-6.56l.22-1.22A46.64,46.64,0,0,1,10.88,10.43Z"/><path class="cls-12" d="M9.09,9.74c-.07.28-.13.53-.2.78H8.72c.07-.25.14-.53.21-.82a18,18,0,0,0,.51-4.65l0-1.28A16.81,16.81,0,0,1,9.09,9.74Z"/><path class="cls-12" d="M6.79,10.78l-.17,0a22.49,22.49,0,0,0,.54-4.67l.11-1.07A24.25,24.25,0,0,1,6.79,10.78Z"/><path class="cls-12" d="M13.58,8.31C13.41,9,13.22,9.8,13,10.5h-.18c.21-.7.4-1.47.57-2.2.58-2.48.94-5,.94-5.06L14.63,2A51.15,51.15,0,0,1,13.58,8.31Z"/><path class="cls-12" d="M15.22,10.56c-.2.55-.38,1-.54,1.44l-.17-.05c.16-.4.34-.88.54-1.45a51.14,51.14,0,0,0,1.77-7.65l.3-1.19A46,46,0,0,1,15.22,10.56Z"/><path class="cls-12" d="M17.89,9.6c-.41,1.34-.79,2.41-1.14,3.25l-.16-.09c.35-.83.72-1.88,1.13-3.21a45.87,45.87,0,0,0,1.53-6.9l.28-1.13A53,53,0,0,1,17.89,9.6Z"/><path class="cls-12" d="M50.89,6.71l1.94.83a11.89,11.89,0,0,1,2.28,2.22c.18.27,1.1,2.89,1.21,3.19v0c0,.29.48,7.37,0,9.43-.11.53-.25,1.1-.41,1.67a1,1,0,0,0-.29,0c.16-.57.29-1.14.4-1.67.42-2,0-9,0-9.37-.41-1.16-1.05-2.93-1.17-3.12A12.29,12.29,0,0,0,52.72,7.8c-.49-.21-2-.91-2-.92Z"/><path class="cls-14" d="M50.55,22.42a13.18,13.18,0,0,1-.43,2.27,1,1,0,0,0-.26,0,14.58,14.58,0,0,0,.44-2.27Z"/><path class="cls-14" d="M53.56,22.15a17.16,17.16,0,0,1-.36,2.18,1,1,0,0,0-.28.06,16.06,16.06,0,0,0,.38-2.21Z"/><path class="cls-14" d="M47.33,22.51a21.54,21.54,0,0,1-.44,2.28.93.93,0,0,0-.24,0,21.12,21.12,0,0,0,.45-2.25Z"/><path class="cls-21" d="M44.59,22.37a19.12,19.12,0,0,1-.46,2.1.9.9,0,0,0-.24,0,17.84,17.84,0,0,0,.47-2.12Z"/><path class="cls-21" d="M41.79,21.9a16.09,16.09,0,0,1-.51,2.1L41,23.93a20,20,0,0,0,.51-2.09Z"/><path class="cls-21" d="M39,21.16c-.23.9-.46,1.66-.67,2.22l-.21-.08a22.21,22.21,0,0,0,.66-2.21Z"/><path class="cls-21" d="M36.07,20.23c-.29.95-.55,1.7-.76,2.23l-.2-.08c.22-.54.47-1.28.76-2.21Z"/><path class="cls-21" d="M33.37,19.17a19.32,19.32,0,0,1-.89,2.13l-.2-.08c.32-.68.58-1.33.88-2.13Z"/><path class="cls-21" d="M30.66,17.92l.18.09c-.33.79-.6,1.39-.94,2.06l-.18-.1C30.06,19.3,30.33,18.71,30.66,17.92Z"/><path class="cls-21" d="M28.24,16.59l.18.1c-.34.78-.66,1.44-1,2.06l-.18-.1C27.58,18,27.9,17.37,28.24,16.59Z"/><path class="cls-21" d="M26.06,15.33l.17.1-.09.2c-.34.74-.64,1.34-.91,1.85l-.17-.1c.27-.5.57-1.11.91-1.85Z"/><path class="cls-21" d="M23.88,14.15c-.31.79-.59,1.46-.88,2.08l-.17-.09c.29-.63.57-1.3.87-2.07Z"/><path class="cls-21" d="M21.67,13.08c-.31.8-.56,1.42-.8,2L20.7,15c.24-.57.5-1.21.8-2Z"/><path class="cls-21" d="M19.26,12.07l.17.06c-.24.68-.48,1.32-.69,1.83l-.16-.09c.2-.51.44-1.13.68-1.81Z"/><path class="cls-21" d="M15.14,10.77c-.18.5-.31.84-.46,1.22l-.17-.05c.15-.37.27-.7.46-1.21Z"/><path class="cls-21" d="M17.32,11.35c-.2.56-.39,1.07-.57,1.5l-.16-.09c.17-.41.37-.94.56-1.47Z"/><path class="cls-14" d="M56.46,21.73a5.94,5.94,0,0,1-.1.68c-.11.53-.25,1.1-.41,1.67a1,1,0,0,0-.29,0c.16-.57.29-1.14.4-1.67,0-.17.07-.41.09-.64Z"/><path class="cls-12" d="M54.08,6.29a14.1,14.1,0,0,1,1.49.77,13.22,13.22,0,0,1,2.31,2.66,25.38,25.38,0,0,1,.9,2.66c0,.07.76,7.08-.26,11a1.12,1.12,0,0,0-.27,0c1-3.87.28-10.88.28-10.92a23.52,23.52,0,0,0-.87-2.58,13.17,13.17,0,0,0-2.23-2.58c-.62-.38-1.49-.83-1.5-.84Z"/><path class="cls-22" d="M58.89,21.17a11.92,11.92,0,0,1-.38,2.23,1.12,1.12,0,0,0-.27,0,14.81,14.81,0,0,0,.37-2.13Z"/><path class="cls-14" d="M47.7,28.46l-.69,0c.81,0,1.68-1,2.55-2.91a6.37,6.37,0,0,0,.37-1.08h.26a6.82,6.82,0,0,1-.41,1.22C49,27.29,48.32,28.16,47.7,28.46Z"/><path class="cls-14" d="M50.16,28.5c.3-.08,1.3-.66,2.36-3A6.45,6.45,0,0,0,53,24.21l.27,0a6.88,6.88,0,0,1-.48,1.48c-.88,1.91-1.58,2.58-2,2.83Z"/><path class="cls-14" d="M44.17,28.14c.57-.06,1.46-.73,2.24-2.68a6.46,6.46,0,0,0,.31-1H47a6.83,6.83,0,0,1-.33,1.12,4.64,4.64,0,0,1-2,2.64Z"/><path class="cls-21" d="M43.74,24.88a5.11,5.11,0,0,0,.22-.65l.24,0A5.36,5.36,0,0,1,44,25a5.82,5.82,0,0,1-2,2.79l-.43-.08C41.95,27.74,43,26.8,43.74,24.88Z"/><path class="cls-21" d="M40.9,24.36a5.62,5.62,0,0,0,.2-.57l.23,0a6.22,6.22,0,0,1-.22.63,5,5,0,0,1-2,2.66l-.39-.1C39,27.05,40.1,26.33,40.9,24.36Z"/><path class="cls-21" d="M36.18,26.31l-.39-.12h0c.35,0,1.51-.83,2.27-2.7,0-.12.11-.28.16-.43l.21.07c-.07.19-.11.31-.17.46A5,5,0,0,1,36.18,26.31Z"/><path class="cls-21" d="M35.08,22.44c.07-.18.11-.26.19-.5l.2.08c-.09.25-.12.34-.2.52A4.68,4.68,0,0,1,33,25.17L32.63,25A4,4,0,0,0,35.08,22.44Z"/><path class="cls-21" d="M32,21.88c.17-.33.36-.72.53-1.11l.2.09c-.18.4-.37.79-.55,1.14a4,4,0,0,1-1.73,2l-.27-.13A3.6,3.6,0,0,0,32,21.88Z"/><path class="cls-21" d="M29.33,20.72c.22-.39.37-.69.59-1.15l.19.1c-.23.48-.39.78-.61,1.19a4.13,4.13,0,0,1-1.69,1.81l-.26-.15A3.57,3.57,0,0,0,29.33,20.72Z"/><path class="cls-21" d="M26.67,19.69a12.1,12.1,0,0,0,.76-1.36l.18.09a14.15,14.15,0,0,1-.79,1.41c-.8,1.22-1.41,1.41-1.44,1.42l-.23-.14A3.65,3.65,0,0,0,26.67,19.69Z"/><path class="cls-21" d="M25.2,17.12l.17.1c-1.14,2.2-1.94,2.57-2.33,2.61l-.32-.21C23.34,19.63,24.13,19.17,25.2,17.12Z"/><path class="cls-21" d="M22.38,17c.2-.35.36-.69.59-1.21l.17.1a13.61,13.61,0,0,1-.6,1.23c-.7,1.25-1.47,1.41-1.47,1.41l-.21-.13A2.84,2.84,0,0,0,22.38,17Z"/><path class="cls-21" d="M20.35,15.77c.15-.3.29-.63.51-1.16l.16.1c-.22.54-.36.87-.51,1.17-.72,1.4-1.39,1.51-1.39,1.51l-.23-.14S19.69,17.12,20.35,15.77Z"/><path class="cls-21" d="M18.2,14.74c.16-.35.3-.68.53-1.28l.16.09c-.23.59-.39,1-.54,1.3-.58,1.28-1.22,1.43-1.22,1.43l-.22-.13S17.61,16,18.2,14.74Z"/><path class="cls-21" d="M2.69,11.56l.16,0a5,5,0,0,1-.66,2.18l-.19,0A4.92,4.92,0,0,0,2.69,11.56Z"/><path class="cls-21" d="M4.58,11.82c.07-.24.13-.48.18-.72l.16,0c-.05.26-.12.54-.19.79A4.27,4.27,0,0,1,4,13.56h-.2A4.9,4.9,0,0,0,4.58,11.82Z"/><path class="cls-21" d="M10.07,12.38c.16-.38.51-1.52.64-1.95h.16c-.14.45-.5,1.61-.66,2a3.11,3.11,0,0,1-.9,1.27l-.2,0A2.72,2.72,0,0,0,10.07,12.38Z"/><path class="cls-21" d="M8.72,10.54h.17a10.38,10.38,0,0,1-1.31,3H7.36A9.11,9.11,0,0,0,8.72,10.54Z"/><path class="cls-21" d="M6.26,12.13c.13-.4.27-.93.37-1.33l.17,0c-.1.43-.24,1-.38,1.41a5.09,5.09,0,0,1-.63,1.32H5.58A5.72,5.72,0,0,0,6.26,12.13Z"/><path class="cls-21" d="M12.84,10.49H13c-.62,2.1-1.43,3.23-1.93,3.49l-.26-.05C11.51,13.67,12.22,12.41,12.84,10.49Z"/><path class="cls-21" d="M14.56,11.83l.17,0c-.75,1.92-1.31,2.46-1.63,2.62l-.23-.07C13.32,14.19,13.78,13.82,14.56,11.83Z"/><path class="cls-21" d="M16.69,12.53l.17.07c-.7,1.78-1.28,2.48-1.74,2.66l-.23-.1C15.44,15,16,14.19,16.69,12.53Z"/><path class="cls-14" d="M55.74,23.82l.3-.05a8.79,8.79,0,0,1-2.31,4.57l-.38,0A8.67,8.67,0,0,0,55.74,23.82Z"/><path class="cls-22" d="M58.24,23.41l0-.08s.16-.14.29-.07,0,.11,0,.22c-1.06,4-2.4,4.73-2.47,4.77h-.41S57.21,27.26,58.24,23.41Z"/><path class="cls-23" d="M61.17,12.07l.3-.11a22.65,22.65,0,0,0-.9-2.85,17.58,17.58,0,0,0-2.52-2.74,15.89,15.89,0,0,0-1.92-.89l-.08.18a19.89,19.89,0,0,1,1.89.92,18.24,18.24,0,0,1,2.39,2.68A24.06,24.06,0,0,1,61.17,12.07Z"/><path class="cls-23" d="M64,11.12l.25-.11a14.39,14.39,0,0,0-.72-2.32,18.53,18.53,0,0,0-3.35-3.33c-.4-.19-1.63-.63-1.68-.64l-.12.14s1.32.52,1.7.7A19,19,0,0,1,63.3,8.84,15.1,15.1,0,0,1,64,11.12Z"/><path class="cls-23" d="M66.83,10.26l.26-.07s-.47-1.73-.66-2.13a11.66,11.66,0,0,0-3.29-3.39L61.26,3.8,61.15,4s1.13.55,1.88.9A11.73,11.73,0,0,1,66.18,8.2C66.36,8.59,66.82,10.25,66.83,10.26Z"/><path class="cls-23" d="M70,10.06h.28a22.08,22.08,0,0,0-.61-2.73,17.13,17.13,0,0,0-1.81-2.11l-.43-.5a4.87,4.87,0,0,0-1-1,24.68,24.68,0,0,0-2.57-1.18l-.09.12S65.47,3.48,66.3,4a4.83,4.83,0,0,1,.91.91l.41.47a18.14,18.14,0,0,1,1.75,2.12A21.79,21.79,0,0,1,70,10.06Z"/><path class="cls-23" d="M73.13,10.24h.34a17,17,0,0,0-1.15-4.13,8.49,8.49,0,0,0-1.54-1.66,10.63,10.63,0,0,0-1.65-1.6,9.8,9.8,0,0,0-3.19-1.09l-.13.17A11,11,0,0,1,69,3.06a10.63,10.63,0,0,1,1.6,1.58,7.32,7.32,0,0,1,1.46,1.65A22.5,22.5,0,0,1,73.13,10.24Z"/><path class="cls-23" d="M76.55,10.72l.32,0a22.48,22.48,0,0,0-.74-3.55,14.7,14.7,0,0,0-2.77-3.26A11.48,11.48,0,0,0,71.61,2.1a9.82,9.82,0,0,0-3.46-1L68,1.25a11.38,11.38,0,0,1,3.47,1,12.15,12.15,0,0,1,1.71,1.82,14.36,14.36,0,0,1,2.66,3.21A21.49,21.49,0,0,1,76.55,10.72Z"/><path class="cls-23" d="M79.86,11.2l.36.06A29.54,29.54,0,0,0,79,6.82a8.94,8.94,0,0,0-2.7-3.14,7.48,7.48,0,0,0-1.88-1.91A7.16,7.16,0,0,0,71.35.56l-.2.14A8.6,8.6,0,0,1,74.34,2a6.71,6.71,0,0,1,1.78,1.84l0,0a9.25,9.25,0,0,1,2.6,3.08A26,26,0,0,1,79.86,11.2Z"/><path class="cls-23" d="M82.7,11.76H83a19.4,19.4,0,0,0-1.26-5.69,10.81,10.81,0,0,0-2.68-2.77A6.05,6.05,0,0,0,77.3,1.48a30.09,30.09,0,0,0-3-1.27L74,.3s2.23.89,3.14,1.38a6,6,0,0,1,1.7,1.78l0,0A11.29,11.29,0,0,1,81.5,6.24,18.69,18.69,0,0,1,82.7,11.76Z"/><path class="cls-23" d="M85.86,12.23l.37,0a33.69,33.69,0,0,0-1.39-6.06A11.24,11.24,0,0,0,81.9,3,14.31,14.31,0,0,0,80,1.3C79.28.9,77.76.18,77.68.15l-.25.06s1.94,1,2.41,1.29a21.2,21.2,0,0,1,1.91,1.71,11.88,11.88,0,0,1,2.81,3.14A32.46,32.46,0,0,1,85.86,12.23Z"/><path class="cls-24" d="M88.93,12.59l.39,0A52.84,52.84,0,0,0,87.9,6.71a11.43,11.43,0,0,0-3.2-3.79c-.18-.14-.44-.39-.71-.63a8.77,8.77,0,0,0-1.44-1.11A18,18,0,0,0,80.34.24l-.17.08s1.58.61,2.31,1a8.83,8.83,0,0,1,1.33,1.11c.26.25.52.48.7.63A11.14,11.14,0,0,1,87.6,6.84,50.66,50.66,0,0,1,88.93,12.59Z"/><path class="cls-24" d="M92.2,12.88h.38c0-.17-1.13-4.1-1.89-5.9-1.31-3.11-4.91-5.75-7-6.55l-.17.05h0a14.24,14.24,0,0,1,6.87,6.56A47.25,47.25,0,0,1,92.2,12.88Z"/><path class="cls-24" d="M95.39,12.77l.39,0a52.69,52.69,0,0,0-2.13-5.58A17.68,17.68,0,0,0,87.49,1l-.23,0c3.2,1.67,5.77,5.61,6.07,6.26A52.34,52.34,0,0,1,95.39,12.77Z"/><path class="cls-25" d="M126.5,9.34l.31-.09a10.76,10.76,0,0,0-.75-2.72c-.65-1.69-3.66-3.72-3.66-3.72l-.19.06s3.09,2.06,3.68,3.73A9.28,9.28,0,0,1,126.5,9.34Z"/><path class="cls-25" d="M121.9,10.34l.35-.09a10.2,10.2,0,0,0-1-2.71,37.4,37.4,0,0,0-4.09-3.76l-.19.1a39.66,39.66,0,0,1,4.13,3.76A9.28,9.28,0,0,1,121.9,10.34Z"/><path class="cls-25" d="M117.54,11.67l.3,0a12.05,12.05,0,0,0-1.12-3.7,31.63,31.63,0,0,0-3.83-3.63l-.22.09a30.18,30.18,0,0,1,3.87,3.67A12.26,12.26,0,0,1,117.54,11.67Z"/><path class="cls-25" d="M114,11.9l.37,0a20.39,20.39,0,0,0-1-2.8,25,25,0,0,0-3.7-4l-.18.16s3,2.6,3.6,3.87A12.85,12.85,0,0,1,114,11.9Z"/><path class="cls-25" d="M111.16,12.13l.32.06a12.81,12.81,0,0,0-1.19-2.82A22.65,22.65,0,0,0,107,5.72l-.15.1A23,23,0,0,1,110,9.4,13,13,0,0,1,111.16,12.13Z"/><path class="cls-24" d="M98.15,12.84l.41-.06s-1.2-3.18-2-4.69C96.06,7,93.59,3,91.1,1.61l-.22,0C93.3,3,95.76,7.17,96.29,8.24,97,9.74,98.13,12.81,98.15,12.84Z"/><path class="cls-25" d="M108.43,12.35l.25-.06a25.71,25.71,0,0,0-1.3-2.87,37.54,37.54,0,0,0-2.85-3.65l-.22,0s2.33,2.78,2.81,3.64A30.6,30.6,0,0,1,108.43,12.35Z"/><path class="cls-24" d="M105.81,12.65l.29-.07-1-2.36a69.41,69.41,0,0,0-4.36-6.11l-.26,0s3.78,5,4.3,6.16Z"/><path class="cls-24" d="M103.34,12.7l.29-.05c-.05-.11-1.25-2.75-1.84-3.71-.87-1.42-4-5.68-4.08-5.72h-.19s3.14,4.48,4,5.89C102.11,10.05,103.32,12.67,103.34,12.7Z"/><path class="cls-24" d="M100.89,12.63l.4,0s-1-2.18-1.93-4.06a31.29,31.29,0,0,0-4.78-6l-.17,0A36.46,36.46,0,0,1,99,8.68C100,10.55,100.89,12.61,100.89,12.63Z"/><path class="cls-9" d="M81.72,36.78a9.82,9.82,0,0,1-5.47,1c1.27.71,6.71,2.46,6.44-.7Z"/><path class="cls-26" d="M72.6,29.71a39,39,0,0,1,1.83-3.59c-.65.68-2.84,3.38-2.84,3.38Z"/><path class="cls-14" d="M139.69,24.94s-5.57-2-4.26-7.68c-.83,2.28-1.24,5.81,3.08,8.6Z"/><path class="cls-19" d="M148.76,6.69c-1.61.41-2.48,1.77-2,3.06a3.39,3.39,0,0,0,3.91,1.64c1.65-.4,2.54-1.79,2-3.1A3.41,3.41,0,0,0,148.76,6.69Z"/><path class="cls-20" d="M149,6.72c-1.44.36-2.22,1.58-1.75,2.74a3,3,0,0,0,3.5,1.46c1.47-.35,2.27-1.6,1.78-2.77A3,3,0,0,0,149,6.72Z"/><path class="cls-6" d="M149,6.72a2.89,2.89,0,0,1,3.2,1c.07.15.11.53-.1.65a2.26,2.26,0,0,0-1.33-1,2.71,2.71,0,0,0-2.85.67c-.26-.26-.3-.59.18-1A2.11,2.11,0,0,1,149,6.72Z"/><path class="cls-19" d="M149.3,7.42a1.5,1.5,0,0,0-1.25,2,2.18,2.18,0,0,0,2.51,1.06,1.5,1.5,0,0,0,1.26-2A2.18,2.18,0,0,0,149.3,7.42Z"/><path class="cls-27" d="M148.32,8.34a1.4,1.4,0,0,0,1,1.85,1.89,1.89,0,0,0,2.29-.79,1.4,1.4,0,0,0-1.07-1.86A1.89,1.89,0,0,0,148.32,8.34Z"/><path class="cls-28" d="M148.81,8.2a1,1,0,0,0,.76,1.35A1.38,1.38,0,0,0,151.24,9a1,1,0,0,0-.77-1.35A1.38,1.38,0,0,0,148.81,8.2Z"/><path class="cls-29" d="M149.56,7.84a.24.24,0,0,0,.18.32.33.33,0,0,0,.39-.14A.24.24,0,0,0,150,7.7.33.33,0,0,0,149.56,7.84Z"/><path class="cls-9" d="M121.21,39.75a4.74,4.74,0,0,0-3,1,4.81,4.81,0,0,1,3-1.55A1.05,1.05,0,0,1,121.21,39.75Z"/><path class="cls-29" d="M159.43,18a14.68,14.68,0,0,1-.71,2.51c-.15.37,1.36-.57,2.24-2.46C160.13,18,159.43,18,159.43,18Z"/><path class="cls-29" d="M161.65,18a7.33,7.33,0,0,1-.4,1c-.4.89,1,.06,1.55-1Z"/><path class="cls-29" d="M163.37,18a5.17,5.17,0,0,1-.36.91c-.23.47.8.09,1.21-.8A4,4,0,0,0,163.37,18Z"/><path class="cls-29" d="M164,19.77a11.39,11.39,0,0,0,1.69-2.08c.51-.93,1,.66,0,2.39A14.27,14.27,0,0,0,164,19.77Z"/><path class="cls-29" d="M167.06,18.93a4,4,0,0,1-.19,1.39c-.23.7.91-.3,1.1-1.15Z"/><path class="cls-29" d="M168.81,19.32a2.59,2.59,0,0,1-.12,1c-.18.55.65,0,.89-.91Z"/><path class="cls-29" d="M151.28,16.81s-.09.62,0,.7.55-.38.69-.67Z"/><path class="cls-29" d="M153.62,16.94s-.16.82.05.82.55-.43.77-.74A7.71,7.71,0,0,0,153.62,16.94Z"/><path class="cls-29" d="M156.24,17.33s-.14.8.06.87.52-.28.69-.65Z"/><path class="cls-29" d="M159.09,17.93s-.36.74-.68.86-.25-.34-.07-.94Z"/><path class="cls-29" d="M148.9,16.73s-.08.47.05.52.45-.23.65-.49C149.33,16.74,148.9,16.73,148.9,16.73Z"/><path class="cls-29" d="M146.44,16.14s0,.35.12.39.25,0,.4-.22Z"/><path class="cls-29" d="M152.72,17.88s.16-.46,0-.56-.49.11-.74.47Z"/><path class="cls-29" d="M155.4,18.33s.23-.48-.06-.57-.73.42-.73.42C155,18.27,155.4,18.33,155.4,18.33Z"/><path class="cls-29" d="M157,18.68s.59-.92.79-.73-.12.89-.12.89Z"/><path class="cls-29" d="M150.41,17.65s.2-.42,0-.5-.64.42-.64.42S150.41,17.65,150.41,17.65Z"/><path class="cls-29" d="M148,17.21s.16-.36,0-.47-.37.06-.57.27C147.73,17.13,148,17.21,148,17.21Z"/><path class="cls-30" d="M150.52,8s.65,1.1-.91,2C149.25,8.77,150.52,8,150.52,8Z"/><path class="cls-12" d="M96,8S95.58,6.72,94,7.78A4.41,4.41,0,0,0,96,8Z"/><path class="cls-12" d="M93.32,7.69S92.7,6.16,91,7.44A4.57,4.57,0,0,0,93.32,7.69Z"/><path class="cls-12" d="M90.35,7.38s-.67-1.52-2.19-.21A3.93,3.93,0,0,0,90.35,7.38Z"/><path class="cls-12" d="M87.48,7.11s-.63-1.47-2.13-.17A3.72,3.72,0,0,0,87.48,7.11Z"/><path class="cls-12" d="M84.64,6.9s-.87-1.52-2.42-.15A4.81,4.81,0,0,0,84.64,6.9Z"/><path class="cls-12" d="M81.6,6.72s-.88-1.62-2.48-.14A5.16,5.16,0,0,0,81.6,6.72Z"/><path class="cls-12" d="M78.41,6.54s-.86-1.68-2.57-.11A5.43,5.43,0,0,0,78.41,6.54Z"/><path class="cls-12" d="M75,6.42s-.84-1.64-2.45,0A5.18,5.18,0,0,0,75,6.42Z"/><path class="cls-12" d="M72,6.47a1.49,1.49,0,0,0-2.56.36A4.67,4.67,0,0,0,72,6.47Z"/><path class="cls-12" d="M68.89,6.94a1.63,1.63,0,0,0-2.59.6C67.3,7.86,68.89,6.94,68.89,6.94Z"/><path class="cls-12" d="M65.69,7.69s-1.27-1.36-2.28.6A3.47,3.47,0,0,0,65.69,7.69Z"/><path class="cls-12" d="M62.86,8.44S61.81,7.21,60.65,9A3.12,3.12,0,0,0,62.86,8.44Z"/><path class="cls-12" d="M60.16,9.17s-1-1.09-2.17.57A3.29,3.29,0,0,0,60.16,9.17Z"/><path class="cls-31" d="M66.14,4.08a1.59,1.59,0,0,0-2.53.61A4.11,4.11,0,0,0,66.14,4.08Z"/><path class="cls-31" d="M63.07,5.09s-1.24-1.32-2.22.61A3.41,3.41,0,0,0,63.07,5.09Z"/><path class="cls-31" d="M60.51,6.08S59.6,5,58.58,6.61A2.73,2.73,0,0,0,60.51,6.08Z"/><path class="cls-31" d="M58.17,6.93s-.89-1-2,.54A3,3,0,0,0,58.17,6.93Z"/><path class="cls-31" d="M55.55,7.67s-.75-1.17-2,.25A2.9,2.9,0,0,0,55.55,7.67Z"/><path class="cls-31" d="M52.61,8.19s-.73-1.16-2,.24A2.81,2.81,0,0,0,52.61,8.19Z"/><path class="cls-31" d="M50,8.75S49.27,7.6,48,9A2.72,2.72,0,0,0,50,8.75Z"/><path class="cls-31" d="M47.39,9.24s-.68-1.15-1.92.22A2.64,2.64,0,0,0,47.39,9.24Z"/><path class="cls-31" d="M44.85,9.67s-.53-1.08-1.69.05A2.25,2.25,0,0,0,44.85,9.67Z"/><path class="cls-31" d="M42.44,9.87s-.38-1-1.46-.1A1.88,1.88,0,0,0,42.44,9.87Z"/><path class="cls-31" d="M40.43,9.79s-.37-1-1.43-.1A1.83,1.83,0,0,0,40.43,9.79Z"/><path class="cls-31" d="M38.27,9.6S38,8.66,37,9.33A1.54,1.54,0,0,0,38.27,9.6Z"/><path class="cls-31" d="M36.43,9.12s-.17-.87-1.09-.3A1.37,1.37,0,0,0,36.43,9.12Z"/><path class="cls-31" d="M34.67,8.6s-.14-.81-1-.3A1.25,1.25,0,0,0,34.67,8.6Z"/><path class="cls-12" d="M57.48,9.87s-.94-1.08-2,.5A3.42,3.42,0,0,0,57.48,9.87Z"/><path class="cls-12" d="M55,10.49s-1.14-1.11-2.25.49A4.05,4.05,0,0,0,55,10.49Z"/><path class="cls-12" d="M52.22,11.09s-1.12-1.4-2.28.4A3.75,3.75,0,0,0,52.22,11.09Z"/><path class="cls-12" d="M49.4,11.57s-1.06-1.61-2.23.26A4,4,0,0,0,49.4,11.57Z"/><path class="cls-12" d="M46.63,11.87s-.87-1.76-2,.05A3.83,3.83,0,0,0,46.63,11.87Z"/><path class="cls-12" d="M44.16,11.91s-.66-1.79-1.8-.15A2.69,2.69,0,0,0,44.16,11.91Z"/><path class="cls-12" d="M41.84,11.67s-.47-1.75-1.81-.43A3.05,3.05,0,0,0,41.84,11.67Z"/><path class="cls-12" d="M39.43,11.07S39,9.45,37.85,10.6A2.76,2.76,0,0,0,39.43,11.07Z"/><path class="cls-12" d="M35.82,9.93c1.16-1,1.5.51,1.5.51A3.88,3.88,0,0,1,35.82,9.93Z"/><path class="cls-12" d="M98.77,8.43s-.45-1.35-2-.3A4,4,0,0,0,98.77,8.43Z"/><path class="cls-12" d="M101.23,8.82s-.42-1.22-1.8-.29A3.82,3.82,0,0,0,101.23,8.82Z"/><path class="cls-12" d="M103.93,9.19s-.61-1.16-2-.26A3.3,3.3,0,0,0,103.93,9.19Z"/><path class="cls-12" d="M106.69,9.37a1.23,1.23,0,0,0-1.86-.13A3.55,3.55,0,0,0,106.69,9.37Z"/><path class="cls-31" d="M93.65,4.66s-.29-1.23-1.81-.37A3.88,3.88,0,0,0,93.65,4.66Z"/><path class="cls-31" d="M90.71,4.08s-.44-1.45-2.07-.37A4.1,4.1,0,0,0,90.71,4.08Z"/><path class="cls-31" d="M87.38,3.35s-.64-1.47-2.13-.17A3.8,3.8,0,0,0,87.38,3.35Z"/><path class="cls-31" d="M84.27,3.06s-.63-1.49-2.16-.14A3.76,3.76,0,0,0,84.27,3.06Z"/><path class="cls-31" d="M81.29,2.89S80.46,1.42,79,2.78A4.63,4.63,0,0,0,81.29,2.89Z"/><path class="cls-31" d="M78.45,3S77.48,1.47,76,3A5.08,5.08,0,0,0,78.45,3Z"/><path class="cls-31" d="M75.37,3.15s-.82-1.63-2.5-.08A5.25,5.25,0,0,0,75.37,3.15Z"/><path class="cls-31" d="M72.37,3.38s-.77-1.52-2.28,0A4.8,4.8,0,0,0,72.37,3.38Z"/><path class="cls-31" d="M69.3,3.68a1.41,1.41,0,0,0-2.49,0A4.38,4.38,0,0,0,69.3,3.68Z"/><path class="cls-31" d="M96.45,5.17s-.35-1.26-1.82-.32A3.58,3.58,0,0,0,96.45,5.17Z"/><path class="cls-31" d="M99.08,5.76s-.32-1.2-1.7-.36A3.6,3.6,0,0,0,99.08,5.76Z"/><path class="cls-31" d="M101.88,6.39s-.43-1.13-1.8-.42A3,3,0,0,0,101.88,6.39Z"/><path class="cls-31" d="M104.75,7s-.46-1-1.7-.37A3.25,3.25,0,0,0,104.75,7Z"/><path class="cls-12" d="M108.43,12.35a1.6,1.6,0,0,0-2.32.22A3.84,3.84,0,0,0,108.43,12.35Z"/><path class="cls-12" d="M110.82,12.27a2.06,2.06,0,0,0-2.15,0A2.68,2.68,0,0,0,110.82,12.27Z"/><path class="cls-12" d="M105.81,12.65s-.78-1.1-2.19,0A3,3,0,0,0,105.81,12.65Z"/><path class="cls-12" d="M103.34,12.7s-.57-1.15-2-.11A2.49,2.49,0,0,0,103.34,12.7Z"/><path class="cls-12" d="M100.89,12.63a1.58,1.58,0,0,0-2.34.15A3,3,0,0,0,100.89,12.63Z"/><path class="cls-12" d="M98.15,12.84s-.76-1.36-2.37-.11A3.44,3.44,0,0,0,98.15,12.84Z"/><path class="cls-12" d="M95.39,12.77s-.95-1.46-2.81.11A3.07,3.07,0,0,0,95.39,12.77Z"/><path class="cls-12" d="M92.2,12.89s-.92-1.84-2.88-.31A3.61,3.61,0,0,0,92.2,12.89Z"/><path class="cls-12" d="M88.94,12.6s-.9-1.76-2.71-.33A3,3,0,0,0,88.94,12.6Z"/><path class="cls-12" d="M85.86,12.23S85,10.35,83,11.77A3.79,3.79,0,0,0,85.86,12.23Z"/><path class="cls-12" d="M82.74,11.77s-.59-1.8-2.53-.5A3,3,0,0,0,82.74,11.77Z"/><path class="cls-12" d="M79.87,11.19s-.86-1.91-3-.45A3.89,3.89,0,0,0,79.87,11.19Z"/><path class="cls-12" d="M76.57,10.72s-.88-2.08-3.1-.47A3.72,3.72,0,0,0,76.57,10.72Z"/><path class="cls-12" d="M73.13,10.24s-.91-1.85-2.9-.18A2.82,2.82,0,0,0,73.13,10.24Z"/><path class="cls-12" d="M70,10.06s-1.11-1.82-2.86.13A3.36,3.36,0,0,0,70,10.06Z"/><path class="cls-12" d="M66.83,10.26s-1.56-1.43-2.56.75A2.85,2.85,0,0,0,66.83,10.26Z"/><path class="cls-12" d="M64,11.12s-1.48-1.21-2.56.83A3.15,3.15,0,0,0,64,11.12Z"/><path class="cls-12" d="M61.17,12.07s-1.13-1.23-2.4.56A2.7,2.7,0,0,0,61.17,12.07Z"/><path class="cls-12" d="M58.53,12.71s-1-1.38-2.22.34A2.66,2.66,0,0,0,58.53,12.71Z"/><path class="cls-12" d="M56.14,13.15s-1.31-1.11-2.65,1A3.58,3.58,0,0,0,56.14,13.15Z"/><path class="cls-12" d="M53.24,14.27s-1.11-1.55-2.55.39A3.2,3.2,0,0,0,53.24,14.27Z"/><path class="cls-12" d="M50.52,14.67s-1.12-1.59-2.66.2A2.54,2.54,0,0,0,50.52,14.67Z"/><path class="cls-12" d="M47.61,14.85a1.37,1.37,0,0,0-2.36-.31A2.52,2.52,0,0,0,47.61,14.85Z"/><path class="cls-12" d="M45,14.5a1.31,1.31,0,0,0-2.21-.62A3.29,3.29,0,0,0,45,14.5Z"/><path class="cls-12" d="M42.55,13.77A1.21,1.21,0,0,0,40.49,13,6.06,6.06,0,0,0,42.55,13.77Z"/><path class="cls-12" d="M40.27,12.89s-.42-2-2.14-1.09A13.64,13.64,0,0,0,40.27,12.89Z"/><path class="cls-32" d="M160.1,19.39s-1.34,1.41-1.34,1.05c0-.07.34-1,.38-1.24l-.08,0s-.21.71-.32,1-.29.79.32.39a8.47,8.47,0,0,0,1.29-1.16Z"/><path class="cls-33" d="M167.16,20.42s-.4.31-.29-.06h-.07s-.31.85.56.11Z"/><path class="cls-33" d="M166.23,18.69a2.74,2.74,0,0,0,0-1.14,2.47,2.47,0,0,1,.28,1.21Z"/><path class="cls-19" d="M81.72,36.78a9.52,9.52,0,0,1-5.42,1c.88.2,5.61,1.35,5.76-.92Z"/><path class="cls-34" d="M95.48,50.5a1.83,1.83,0,0,1-.58-1c0-.47,1.36.47,1.73,1.1a1.24,1.24,0,0,1,0,1.48C96.49,52.23,97,51.48,95.48,50.5Z"/><path class="cls-35" d="M95.08,49.79a.74.74,0,0,1-.18-.29c-.06-.48,1.36.34,1.75,1.06s.19,1.36.15,1.13C96.72,51.27,96.5,50.75,95.08,49.79Z"/><path class="cls-34" d="M94.36,47.09s-.51-.46-.51-.88,1.19.4,1.52,1a1.1,1.1,0,0,1,0,1.31C95.24,48.61,95.65,47.94,94.36,47.09Z"/><path class="cls-35" d="M94,46.47a.63.63,0,0,1-.15-.25c-.05-.42,1.2.28,1.54.92s.16,1.2.13,1C95.44,47.76,95.26,47.3,94,46.47Z"/><path class="cls-34" d="M90.44,49.6a1.4,1.4,0,0,1-.44-.78c0-.37,1,.36,1.31.85a1,1,0,0,1,0,1.15C91.19,50.93,91.55,50.35,90.44,49.6Z"/><path class="cls-35" d="M90.14,49a.57.57,0,0,1-.13-.22c0-.37,1,.26,1.33.82s.14,1.06.1.88C91.38,50.19,91.22,49.78,90.14,49Z"/><path class="cls-34" d="M132.63,46.48s-.64-.4-.72-.82,1.38.26,1.84.77.49,1.09.27,1.31S134.2,47.17,132.63,46.48Z"/><path class="cls-35" d="M132.13,45.89s-.18-.13-.21-.24c-.14-.41,1.37.14,1.86.73s.4,1.18.32,1C133.94,47,133.65,46.58,132.13,45.89Z"/><path class="cls-34" d="M124.82,47s-.49-.47-.47-.86,1.21.49,1.51,1,.19,1.06-.06,1.21S126.1,47.94,124.82,47Z"/><path class="cls-35" d="M124.5,46.43a.61.61,0,0,1-.14-.25c0-.39,1.23.39,1.54,1s.09,1.12.06.93C125.9,47.76,125.74,47.32,124.5,46.43Z"/><path class="cls-34" d="M118.83,45a1.21,1.21,0,0,1,.21-1c.36-.37.95.91.82,1.55a1.48,1.48,0,0,1-1.1,1.15C118.48,46.69,119.5,46.3,118.83,45Z"/><path class="cls-35" d="M119,44.25A.47.47,0,0,1,119,44c.31-.39,1.06.82.87,1.53s-.86,1.12-.73.92C119.43,46,119.62,45.56,119,44.25Z"/><path class="cls-34" d="M130.69,43.5s-.51-.19-.64-.48,1,0,1.39.28.53.71.42.9S131.88,43.77,130.69,43.5Z"/><path class="cls-35" d="M130.24,43.16a.54.54,0,0,1-.19-.14c-.17-.28,1-.11,1.39.25s.48.79.39.66S131.4,43.42,130.24,43.16Z"/><ellipse class="cls-19" cx="91.07" cy="22.15" rx="0.8" ry="0.48" transform="translate(-0.78 3.47) rotate(-2.18)"/><path class="cls-19" d="M102.29,20.89c0,.31.47.55,1,.53s1-.28,1-.6-.47-.55-1-.53S102.27,20.58,102.29,20.89Z"/><path class="cls-19" d="M87,20.45c0,.37.48.68,1.1.69s1.12-.29,1.13-.66-.49-.68-1.11-.69S87,20.08,87,20.45Z"/><path class="cls-19" d="M96,19.53c0,.35.52.62,1.12.59s1.08-.34,1.06-.69-.53-.62-1.13-.59S96,19.17,96,19.53Z"/><path class="cls-14" d="M97.09,27c0,.28.41.5.88.49s.84-.24.83-.52-.41-.5-.88-.49S97.07,26.71,97.09,27Z"/><path class="cls-14" d="M91,29.1c0,.22.31.4.67.39s.65-.19.64-.41-.31-.4-.68-.39S91,28.88,91,29.1Z"/><path class="cls-14" d="M89.06,27.6c0,.24.33.42.72.42s.7-.21.69-.44-.33-.42-.72-.42S89.05,27.37,89.06,27.6Z"/><path class="cls-14" d="M117.6,22.05c0,.18.29.32.62.3s.58-.17.56-.35-.29-.32-.62-.3S117.59,21.87,117.6,22.05Z"/><path class="cls-14" d="M120.66,23.4c0,.16.26.28.55.27s.52-.15.5-.3-.26-.28-.56-.27S120.64,23.24,120.66,23.4Z"/><ellipse class="cls-19" cx="103.03" cy="15.67" rx="0.74" ry="0.42" transform="translate(-0.73 5.99) rotate(-3.32)"/><path class="cls-19" d="M84.31,17.17c0,.25.28.48.68.51s.76-.14.78-.39-.28-.48-.69-.51S84.34,16.92,84.31,17.17Z"/><path class="cls-19" d="M81.18,15.48c0,.22.26.41.61.43s.66-.15.68-.37-.26-.41-.61-.43S81.19,15.26,81.18,15.48Z"/><ellipse class="cls-19" cx="105.47" cy="16.43" rx="0.53" ry="0.3" transform="matrix(1, -0.05, 0.05, 1, -0.63, 4.77)"/><path class="cls-19" d="M114.89,17.61c0,.29.46.5,1,.47s.92-.28.9-.56-.47-.5-1-.47S114.86,17.33,114.89,17.61Z"/><path class="cls-19" d="M118.32,16c0,.23.38.41.81.39s.76-.22.74-.46-.38-.41-.81-.39S118.3,15.77,118.32,16Z"/><path class="cls-19" d="M123.59,17.14c0,.2.33.35.71.34s.67-.19.65-.39-.34-.35-.71-.34S123.57,16.94,123.59,17.14Z"/><path class="cls-19" d="M92.69,16.39c0,.35.5.6,1.09.57s1.05-.34,1-.69-.51-.6-1.1-.57S92.67,16,92.69,16.39Z"/></svg>