<svg id="Layer_1" data-name="Layer 1" xmlns="http://www.w3.org/2000/svg" viewBox="0 0 143.17 52.07"><defs><style>.cls-1{fill:#b0764a;}.cls-1,.cls-12,.cls-13,.cls-2,.cls-3,.cls-5,.cls-6,.cls-7,.cls-8{fill-rule:evenodd;}.cls-2{fill:#c18557;}.cls-3,.cls-4{fill:#875837;}.cls-11,.cls-5{fill:#44423f;}.cls-6{fill:#72635b;}.cls-7{fill:#83746d;}.cls-8{fill:#554d4a;}.cls-12,.cls-9{fill:#24211d;}.cls-10{fill:#fff;}.cls-13{fill:#fcc78c;}</style></defs><title>platypusSmall</title><path class="cls-1" d="M98.09,5.79C82.5-2.4,59-2.71,45.71,10.11c-7.45,7.16-9.41,23.66,4.92,28.61C59,41.63,65.18,40.11,75,36.3c10.33-4,18.3-3.44,31.48-.93,7.43,1.41,15.31.71,20.06-5.14,3.63-4.47,3.39-8.32,1.67-12.62-2.6-6.54-9.34-8.47-15.85-8.95C107.13,8.28,103.26,5.79,98.09,5.79Z"/><path class="cls-2" d="M98.31,6.92c-15.23-8.19-38.16-8.5-51.18,4.32a18.6,18.6,0,0,0-4,6.19l.81,0c5.77,0,10-4.19,15.06-4.19,8.67,0,15.6,4.36,24.07-.17.37-.2,10.28-5.19,10.6-2.27,1,8.62,12.74-.26,13,3,.18,2.64,13.84,3.09,16-1.13a23.26,23.26,0,0,0-10.39-2.87C107.15,9.41,103.37,6.92,98.31,6.92Z"/><path class="cls-3" d="M41.71,31.46a15.27,15.27,0,0,0,8.92,7.26C59,41.63,65.18,40.11,75,36.3c10.33-4,18.3-3.44,31.48-.93,5.24,1,10.71.94,15.15-1.24-7.32.12-12.84.19-20.89-3.55l1.16,1.5c-16.41-5.7-20.55,1.33-27-.91C75.73,22.67,69.34,19,59,20.82,54,29.26,51.91,37.37,41.71,31.46Z"/><ellipse class="cls-4" cx="125.32" cy="20.33" rx="2.06" ry="2.09"/><ellipse class="cls-4" cx="109.15" cy="22.81" rx="3.27" ry="3.31"/><path class="cls-5" d="M122.11,40.32a13.15,13.15,0,0,0-5-3.54c-2.31-.9-4.5-1.53-5-3.1-.29-.93-.14-1.38.66-1.75C118.4,34.74,119.83,34.58,122.11,40.32Z"/><path class="cls-6" d="M129.64,27.16c2,2.83,6.28,4.66,9.52,6.25,5.51,2.71,4.56,5.45,1.85,7.87a16.42,16.42,0,0,1-11.58,4.17c-4.46,0-6.59-.89-7.78-3.85-1.9-4.71-2.47-5.7-5.93-6.81-4.85-1.55-5.89-4.95-3-6.46a43.66,43.66,0,0,0,4.48-2.44c3-2.12,4.35-2.78,7.29-1.62S127.85,24.66,129.64,27.16Z"/><path class="cls-7" d="M124.55,24.76a18.8,18.8,0,0,0,2.32.73c1,.29,1.29.78,1,1-.86.89-2.95.69-3.93.4a22.86,22.86,0,0,1-3.91-1.7C118.68,24.08,123.23,24.24,124.55,24.76Z"/><path class="cls-7" d="M129.21,27.51c1.95,2.53,6.41,4.76,9.36,6.21A8.69,8.69,0,0,1,141.69,36c1.45,1.9.53,3.58-1.68,3.58-3,0-1.52-5.39-6.36-5.39-2.49,0-6.65-.27-6.65-3.29A3.5,3.5,0,0,1,129.21,27.51Z"/><path class="cls-8" d="M140.16,42a16.51,16.51,0,0,1-10.74,3.46c-4.46,0-6.59-.89-7.78-3.85-1.9-4.71-2.47-5.7-5.93-6.81-4.27-1.36-5.58-4.16-3.86-5.85,1.23,5.28,9.81,4.36,11.67,11C125.46,46.91,134.67,43.76,140.16,42Z"/><ellipse class="cls-9" cx="109.45" cy="22.51" rx="2.44" ry="2.47"/><ellipse class="cls-10" cx="108.94" cy="21.67" rx="0.96" ry="0.98"/><ellipse class="cls-9" cx="125.67" cy="20.14" rx="1.51" ry="1.53"/><ellipse class="cls-10" cx="125.35" cy="19.61" rx="0.6" ry="0.6"/><path class="cls-1" d="M41.32,17.11c-1.69,6.55-3.71,8.17-10.63,10-9.1,2.37-19.39,1.15-26.63,7.54C.48,37.79-1,41.48.67,47.53c1,3.82,3.35,5.86,9.15,3.6a91.87,91.87,0,0,1,8.67-3.26c7.47-2.12,16.11-3.43,20.08-6.06C43.63,38.47,44.46,32.51,41.32,17.11Z"/><path class="cls-2" d="M38.78,24.77c-1.57,1.33-3.75,2.15-7.05,3-9.1,2.37-19.39,1.15-26.63,7.54-1.48,1.3-3.07,2.88-3.35,5-.2,1.45,0,3.65,2.14,4.25,5.77,1.63,15.29-9.89,17.67-10.81C26.25,31.95,38.29,31.17,38.78,24.77Z"/><path class="cls-3" d="M.84,38.81c-1,2.32-1.15,5.1-.17,8.72,1,3.82,3.35,5.86,9.15,3.6a91.87,91.87,0,0,1,8.67-3.26c7.47-2.12,16.11-3.43,20.08-6.06a9.5,9.5,0,0,0,4.27-6.64,9.15,9.15,0,0,1-3.56,4.23c-4,2.63-12.61,3.93-20.08,6.06a91.77,91.77,0,0,0-8.67,3.26c-5.8,2.26-8.11.22-9.15-3.6A15.07,15.07,0,0,1,.84,38.81Z"/><path class="cls-8" d="M125.42,28.52c-1.47,1-2.48,1-4.36.8-1-.09-1.89-.24-2.86-.3a11.24,11.24,0,0,1-3.43-.3c1.35,1.05,1.7.91,3.39,1a11.63,11.63,0,0,1,2.64.43c2.53.72,3.92.66,5.67-1A8,8,0,0,1,128,27.73c.53-.3.52-.62.52-1.22-.22.48-.22.53-.7.71A10.21,10.21,0,0,0,125.42,28.52Z"/><path class="cls-1" d="M68.42,38.19c3.65.77,10.74,1.92,13.23,4.94l-3.08-.39a6,6,0,0,1,3.34,3.12,13.56,13.56,0,0,0-3.85-.78,8.79,8.79,0,0,1,3.08,2.08c-1.7-.16-3.3-.26-5-.26l3.21,1.3a13.91,13.91,0,0,1-6.76-.67c-1.47-.43-2.9-1-4.33-1.56a25.9,25.9,0,0,0-7.49-1.26c-4.49-.31-9.3-1.38-9.67-6.54-3.49-5.58-4.92-11.46,1.95-16,4.1-2.7,9.63-5.28,14-3.59,3.4,1.32,6.14,5.94,6.72,10.44A9.12,9.12,0,0,1,68.42,38.19Z"/><path class="cls-3" d="M81.65,43.14a7,7,0,0,0-4.46-.9l1.37.51,3.08.39Zm.26,2.73a6,6,0,0,0-5.51-1.38l1.66.6a13.57,13.57,0,0,1,3.85.78Zm-.77,1.3c-1.7-.16-3.3-.26-5-.26l-1.07-.36a8,8,0,0,1,6.07.62Zm-8.56.37c-1.47-.43-2.9-1-4.33-1.56a25.9,25.9,0,0,0-7.49-1.26c-4.49-.31-9.3-1.38-9.67-6.54-1.53-2-4-6.65-2.45-10.92,0,5.28,2.2,8.46,5,11.21l0-1.7c1.29,4.37,4.15,5.79,8.77,6.75a6,6,0,0,1-.86-1.35c3.84,1.35,7.45,3.25,11.25,4.62a22.54,22.54,0,0,0,6.48,1.4A13.91,13.91,0,0,1,72.57,47.54Z"/><path class="cls-6" d="M80.38,42c-.41.36-.46.67-.33.95l1.6.2A6.4,6.4,0,0,0,80.38,42Zm.3,2.11c-.54.5-.55.87-.33,1.31.49.12,1,.26,1.56.46a6.93,6.93,0,0,0-1.23-1.77Zm-.7,2c-.37.13-.53.35-.38.9l1.55.13a9.22,9.22,0,0,0-1.16-1ZM77.5,48.36c.55,0,1.15-.06,1.84-.15l-1.54-.62C77.43,47.77,77.33,48,77.5,48.36Z"/><path class="cls-8" d="M81.65,43.14a8.33,8.33,0,0,0-1.62-.7.58.58,0,0,0,0,.5l1.6.2Zm.26,2.73c-.57-.19-1.07-.34-1.56-.46a1,1,0,0,1-.12-.63,6.65,6.65,0,0,1,1.68,1.08Zm-.77,1.3L79.59,47a1.1,1.1,0,0,1,0-.47,15.68,15.68,0,0,1,1.59.6ZM77.5,48.36a.6.6,0,0,1-.07-.35c.61.09,1.24.16,1.91.21C78.65,48.3,78,48.34,77.5,48.36Z"/><path class="cls-5" d="M129.2,39.21c.12,2.64,5.46,2,3.72-.1C132.66,40.76,129.93,40.37,129.2,39.21Z"/><path class="cls-5" d="M136,37.51c.72,1.15-1.72,2.46-1.59,1.07C135,39.2,136,38.22,136,37.51Z"/><path class="cls-5" d="M131.18,37.48c-.84,0-1.45.54-1.19,1.29s2.21.54,2.41,0S132,37.48,131.18,37.48Z"/><ellipse class="cls-9" cx="131.18" cy="38.7" rx="1.2" ry="0.79"/><ellipse class="cls-11" cx="134.95" cy="37.21" rx="0.92" ry="0.7" transform="translate(49.01 147.71) rotate(-67.54)"/><path class="cls-12" d="M134.32,37.19a.69.69,0,0,0,.28,1,.82.82,0,0,0,1-.51.69.69,0,0,0-.28-1A.82.82,0,0,0,134.32,37.19Z"/><path class="cls-1" d="M84.86,24.2c.65,4.81.52,10.5,4.58,13.9a21,21,0,0,0,5.83,3.35,16.31,16.31,0,0,1,5.47,3.43,9.81,9.81,0,0,1,2,2.94,5.16,5.16,0,0,0,.56-2.54A16.17,16.17,0,0,1,105,48.15a7,7,0,0,0,.49-4,9.39,9.39,0,0,1,1,2.47,3.8,3.8,0,0,0,.77-3.06c.32.45.62.89.91,1.37.12-3-1.67-4.72-4.26-6.19-3.1-1.76-4.52-3.37-5-6.69l-.14-2.67C96,25.18,90.78,22.82,84.86,24.2Z"/><path class="cls-2" d="M100.6,37.25a6.92,6.92,0,0,1-2.07-4.32,9.34,9.34,0,0,0-1.05-3.43c-.81-1.58-2-2.31-4.11-3.2-1.21,0-2.15.76-2.19,2.55,0,1,.08,2.18.08,2.52,0,2.91,5.16,6.14,7.59,7C100.56,38.94,100.77,38.18,100.6,37.25Z"/><path class="cls-3" d="M85.14,26.6c1,5.6,4.25,10.25,9.06,12.23a6.31,6.31,0,0,1,.13-2.18,11.06,11.06,0,0,0,3.11,4c2.62,2.11,5,3.41,5.29,7.13a9.81,9.81,0,0,0-2-2.94,16.32,16.32,0,0,0-5.47-3.43c-2.67-1.14-4.82-1.87-6.48-3.26-3.4-2.85-3.95-7.39-3.66-11.59Zm18.14,18.68A16.17,16.17,0,0,1,105,48.15c-.07-2.26-.81-3.3-2.5-5.26a4.92,4.92,0,0,1,.83,2.4Zm2.16-1.11c-.2-.62-.45-1.24-.71-1.86,1.43,1.24,1.66,2,1.76,4.33a9.39,9.39,0,0,0-1-2.47Zm2.6.57A4.81,4.81,0,0,0,105.46,41a11.24,11.24,0,0,1,1.79,2.58C107.53,44,107.79,44.35,108,44.75Z"/><path class="cls-6" d="M101.92,46.34c.43-.5.7-.55,1.31-.22a4.39,4.39,0,0,1-.51,1.69,11.85,11.85,0,0,0-.8-1.48Zm2-.17a1.07,1.07,0,0,1,1.57.24,8.47,8.47,0,0,1-.5,1.74,17.72,17.72,0,0,0-1.07-2Zm2.11-.94a1.4,1.4,0,0,1,1.28-.49,3.66,3.66,0,0,1-.78,1.9,11.66,11.66,0,0,0-.49-1.42Zm2.09-1.58a6.24,6.24,0,0,1,.08,1.3c-.2-.33-.4-.64-.61-.95A.49.49,0,0,1,108.09,43.66Z"/><path class="cls-8" d="M101.92,46.34a1.46,1.46,0,0,1,.42-.37,7.64,7.64,0,0,1,.38,1.84,11.85,11.85,0,0,0-.8-1.48ZM108,44.75c-.16-.25-.32-.5-.49-.74a.5.5,0,0,1,.21-.28c.1.3.19.63.28,1Zm-1.55,1.9a11.66,11.66,0,0,0-.49-1.42,1,1,0,0,1,.35-.31,14.09,14.09,0,0,1,.15,1.72Zm-2.6-.48a1.35,1.35,0,0,1,.67-.24,6.47,6.47,0,0,1,.4,2.21A17.72,17.72,0,0,0,103.89,46.17Z"/><path class="cls-13" d="M119.56,11.34a19.37,19.37,0,0,0-8.7-1.75A33.71,33.71,0,0,0,119.56,11.34Z"/><path class="cls-13" d="M115,11.53a9.68,9.68,0,0,0-4.35-.87A16.85,16.85,0,0,0,115,11.53Z"/><path class="cls-13" d="M112.2,11.87a3.21,3.21,0,0,0-2.81-.56A10.89,10.89,0,0,0,112.2,11.87Z"/><path class="cls-13" d="M110.54,12.33a1.61,1.61,0,0,0-1.78-.49A5.31,5.31,0,0,0,110.54,12.33Z"/><path class="cls-13" d="M105.47,8.64c-2.48-1.22-3.85-1.26-7.33-1.28C101.09,8.47,102.35,8.3,105.47,8.64Z"/><path class="cls-13" d="M101.81,9.17A10.12,10.12,0,0,0,97.46,8,7.73,7.73,0,0,0,101.81,9.17Z"/><path class="cls-13" d="M96.8,8.9a3.21,3.21,0,0,0,2.72.89A10.92,10.92,0,0,0,96.8,8.9Z"/><path class="cls-13" d="M97.3,11a1.61,1.61,0,0,0-1.78-.49A5.28,5.28,0,0,0,97.3,11Z"/><path class="cls-13" d="M96.16,9.7a2.71,2.71,0,0,0,2.3.75A9.21,9.21,0,0,0,96.16,9.7Z"/><path class="cls-13" d="M80,1.71C77.54.49,68.72.41,65.25,1.52,68.28,2.1,76.89,1.36,80,1.71Z"/><path class="cls-13" d="M72.94,2.79c-1.26-.88-5.48-.79-7.25,0C67.31,3.27,72,3,72.94,2.79Z"/><path class="cls-13" d="M69.9,3.92a6.65,6.65,0,0,0-4.38-.08A16.53,16.53,0,0,0,69.9,3.92Z"/><path class="cls-13" d="M68.49,4.75a4.68,4.68,0,0,0-3.09-.06A11.64,11.64,0,0,0,68.49,4.75Z"/><path class="cls-13" d="M13.22,31.46c-3.95.69-5.61,1.82-9.74,4.78C7.88,35,9.23,33.74,13.22,31.46Z"/><path class="cls-13" d="M9.32,35.23A14.74,14.74,0,0,0,3.21,37.6,11.3,11.3,0,0,0,9.32,35.23Z"/><path class="cls-13" d="M3.16,39.21a4.67,4.67,0,0,0,4-1.28A15.88,15.88,0,0,0,3.16,39.21Z"/><path class="cls-13" d="M5.53,41.29A2.35,2.35,0,0,0,3,42.23,7.72,7.72,0,0,0,5.53,41.29Z"/><path class="cls-13" d="M3.07,40.71a3.94,3.94,0,0,0,3.34-1.08A13.37,13.37,0,0,0,3.07,40.71Z"/><path class="cls-3" d="M41.57,35.38c-1.94,1.85-3,2.7-5.59,5C39.55,38.82,40.55,37.76,41.57,35.38Z"/><path class="cls-3" d="M40.79,34.37c-1,.76-2.09,1.67-3.62,2.71A3.47,3.47,0,0,0,40.79,34.37Z"/><path class="cls-3" d="M37.56,35.57A3.23,3.23,0,0,0,40,34,11,11,0,0,0,37.56,35.57Z"/><path class="cls-3" d="M39.44,33.39a1.63,1.63,0,0,0-1.49,1.09A5.33,5.33,0,0,0,39.44,33.39Z"/><path class="cls-3" d="M84.32,29.81a9.61,9.61,0,0,1,.79-4.48A3.55,3.55,0,0,0,84.32,29.81Z"/><path class="cls-3" d="M83,29.07c.17-1,.29-2,.59-3.39A2.68,2.68,0,0,0,83,29.07Z"/><path class="cls-3" d="M82,28.44c.11-.59.18-1.25.37-2.09A1.65,1.65,0,0,0,82,28.44Z"/><path class="cls-3" d="M47.2,32.64A15.46,15.46,0,0,1,48,26.89,5.47,5.47,0,0,0,47.2,32.64Z"/><path class="cls-3" d="M45.84,31.69c.17-1.22.29-2.59.59-4.35A4.14,4.14,0,0,0,45.84,31.69Z"/><path class="cls-3" d="M44.87,30.89c.11-.75.18-1.6.37-2.68A2.55,2.55,0,0,0,44.87,30.89Z"/><path class="cls-2" d="M58.48,19.75c5.18,3.73,1.39,8.95,9,11.15,4.49,1.3,6.52-1.07,4.93-5.07-1.21-3.06-3.3-5.67-5.72-6.61S61.27,18.68,58.48,19.75Z"/></svg>