<svg id="Layer_1" data-name="Layer 1" xmlns="http://www.w3.org/2000/svg" viewBox="0 0 379.67 138.72"><defs><style>.cls-1{fill:#b0764a;}.cls-1,.cls-13,.cls-2,.cls-3,.cls-5,.cls-6,.cls-7,.cls-8,.cls-9{fill-rule:evenodd;}.cls-2{fill:#c18557;}.cls-3,.cls-4{fill:#875837;}.cls-12,.cls-5{fill:#44423f;}.cls-6{fill:#72635b;}.cls-7{fill:#83746d;}.cls-8{fill:#554d4a;}.cls-11,.cls-9{fill:#24211d;}.cls-10{fill:#fff;}.cls-13{fill:#fcc78c;}</style></defs><title>platypusBig</title><path class="cls-1" d="M260.12,15.42C218.78-6.39,156.54-7.21,121.21,26.92c-19.74,19.07-25,63,13,76.22,22.34,7.76,38.6,3.7,64.61-6.45,27.39-10.69,48.52-9.15,83.48-2.49,19.7,3.76,40.6,1.9,53.2-13.7,9.62-11.91,9-22.16,4.44-33.62-6.9-17.42-24.77-22.57-42-23.83C284.1,22.05,273.85,15.42,260.12,15.42Z"/><path class="cls-2" d="M260.71,18.45C220.32-3.37,159.51-4.19,125,29.95a49.58,49.58,0,0,0-10.74,16.49c.69,0,1.4,0,2.15,0,15.31,0,26.63-11.16,40-11.16,23,0,41.37,11.6,63.83-.47,1-.52,27.26-13.83,28.12-6,2.54,23,33.78-.69,34.37,7.9.48,7,36.71,8.22,42.56-3-7.95-4.9-17.85-6.91-27.55-7.63C284.15,25.08,274.13,18.45,260.71,18.45Z"/><path class="cls-3" d="M110.6,83.81c4.34,8.28,11.94,15.26,23.65,19.33,22.34,7.76,38.6,3.7,64.61-6.45,27.39-10.69,48.52-9.15,83.48-2.49,13.91,2.65,28.41,2.5,40.17-3.29-19.4.31-34.06.51-55.41-9.45l3.07,4C226.66,70.27,215.68,89,198.64,83c2.18-22.62-14.77-32.42-42.06-27.56C143.32,78,137.67,99.56,110.6,83.81Z"/><ellipse class="cls-4" cx="332.35" cy="54.16" rx="5.46" ry="5.56"/><path class="cls-3" d="M289.47,69.6a8.83,8.83,0,1,1,8.67-8.83A8.77,8.77,0,0,1,289.47,69.6Z"/><path class="cls-5" d="M323.82,107.42c-4.2-4.35-7.64-7.26-13.18-9.43-6.11-2.4-11.92-4.07-13.23-8.25-.78-2.49-.37-3.68,1.75-4.65C314,92.54,317.77,92.12,323.82,107.42Z"/><path class="cls-6" d="M343.78,72.35C349.14,79.88,360.44,84.77,369,89c14.62,7.22,12.09,14.51,4.89,21-9.51,8.53-20,11.16-30.71,11.1-11.82-.07-17.47-2.36-20.64-10.25-5-12.55-6.54-15.19-15.72-18.14-12.87-4.12-15.61-13.18-7.92-17.22,4.39-2.31,8.6-4.21,11.88-6.5,8-5.64,11.54-7.41,19.33-4.32S339,65.69,343.78,72.35Z"/><path class="cls-7" d="M330.28,66a49.7,49.7,0,0,0,6.15,1.94c2.75.76,3.42,2.07,2.74,2.79-2.27,2.38-7.82,1.84-10.43,1.06a60.48,60.48,0,0,1-10.37-4.53C314.72,64.14,326.79,64.58,330.28,66Z"/><path class="cls-7" d="M342.65,73.27c5.16,6.75,17,12.69,24.81,16.55,4.11,2,6.77,4.06,8.3,6.08,3.83,5.05,1.41,9.53-4.44,9.53-7.91,0-4-14.36-16.86-14.36-6.61,0-17.62-.72-17.62-8.76A9.33,9.33,0,0,1,342.65,73.27Z"/><path class="cls-8" d="M371.69,111.84c-8.91,7-18.62,9.29-28.49,9.23-11.82-.07-17.47-2.36-20.64-10.25-5-12.55-6.54-15.19-15.72-18.14C295.51,89.05,292,81.59,296.61,77.11c3.27,14.06,26,11.6,30.94,29.32C332.69,125,357.12,116.58,371.69,111.84Z"/><path class="cls-9" d="M290.26,66.56A6.59,6.59,0,1,1,296.73,60,6.54,6.54,0,0,1,290.26,66.56Z"/><ellipse class="cls-10" cx="288.89" cy="57.72" rx="2.55" ry="2.6"/><ellipse class="cls-11" cx="333.25" cy="53.64" rx="4" ry="4.07"/><ellipse class="cls-10" cx="332.41" cy="52.25" rx="1.58" ry="1.61"/><path class="cls-1" d="M109.58,45.59C105.1,63,99.75,67.36,81.4,72.16,57.26,78.48,30,75.22,10.78,92.24c-9.51,8.43-13.35,18.25-9,34.37,2.75,10.18,8.87,15.61,24.26,9.59,6.85-2.68,14.4-6.23,23-8.68,19.81-5.66,42.71-9.15,53.25-16.14C115.7,102.48,117.91,86.61,109.58,45.59Z"/><path class="cls-2" d="M102.85,66c-4.15,3.55-9.95,5.74-18.7,8C60,80.33,32.73,77.08,13.52,94.1c-3.91,3.46-8.13,7.67-8.9,13.32-.52,3.87,0,9.72,5.67,11.33C25.58,123.09,50.84,92.42,57.14,90,69.62,85.1,101.54,83,102.85,66Z"/><path class="cls-3" d="M2.23,103.38C-.49,109.57-.82,117,1.78,126.62c2.75,10.18,8.87,15.61,24.26,9.59,6.85-2.68,14.4-6.23,23-8.68,19.81-5.66,42.71-9.15,53.25-16.14,6-4,9.74-9.33,11.32-17.68A24.35,24.35,0,0,1,104.15,105c-10.54,7-33.44,10.48-53.25,16.14-8.58,2.45-16.14,6-23,8.68-15.38,6-21.51.59-24.26-9.59C1.89,113.67,1.48,108.17,2.23,103.38Z"/><path class="cls-8" d="M332.59,76c-3.91,2.79-6.56,2.58-11.56,2.13-2.78-.25-5-.65-7.58-.79-3.39-.18-5.79.32-9.09-.8,3.58,2.81,4.51,2.44,9,2.68a30.7,30.7,0,0,1,7,1.16c6.7,1.9,10.4,1.77,15-2.71,1.53-1.48,2.37-2.8,4.06-3.77,1.42-.81,1.37-1.65,1.37-3.24-.59,1.28-.57,1.41-1.86,1.89A27,27,0,0,0,332.59,76Z"/><path class="cls-1" d="M181.44,101.74c9.68,2,28.49,5.12,35.08,13.17l-8.17-1c4.72,2.4,6.37,3.64,8.85,8.32A35.82,35.82,0,0,0,207,120.11c3.61,1.72,5.31,2.63,8.17,5.55-4.51-.42-8.74-.69-13.28-.69l8.51,3.47c-7.71.94-11.31.17-17.93-1.78-3.89-1.15-7.69-2.67-11.48-4.15-6.12-2.39-13.15-2.88-19.88-3.35-11.9-.82-24.68-3.68-25.64-17.41-9.26-14.86-13.06-30.54,5.16-42.62,10.86-7.2,25.54-14.06,37.14-9.55,9,3.51,16.27,15.83,17.83,27.8C196.48,84.1,193.27,96.67,181.44,101.74Z"/><path class="cls-3" d="M216.52,114.92c-4.38-2.38-6.82-2.67-11.82-2.41l3.64,1.37,8.17,1Zm.68,7.28c-4.65-4-8.95-4.63-14.61-3.68l4.39,1.6a35.85,35.85,0,0,1,10.22,2.08Zm-2,3.47c-4.51-.42-8.74-.69-13.28-.69l-2.83-1c5.86-1.86,10.5-.77,16.11,1.66Zm-22.7,1c-3.89-1.15-7.69-2.67-11.48-4.15-6.12-2.39-13.15-2.88-19.88-3.35-11.9-.82-24.68-3.68-25.64-17.41C131.4,96.5,124.73,84,129,72.65c0,14.07,5.84,22.53,13.29,29.87l.11-4.53c3.42,11.65,11,15.42,23.26,18a15.85,15.85,0,0,1-2.28-3.6c10.19,3.61,19.75,8.66,29.84,12.32a59.54,59.54,0,0,0,17.19,3.73C202.68,129.38,199.08,128.61,192.46,126.65Z"/><path class="cls-6" d="M213.15,111.86c-1.08,1-1.23,1.79-.86,2.52l4.24.54a17,17,0,0,0-3.37-3.06Zm.79,5.63c-1.44,1.32-1.46,2.31-.87,3.49,1.3.31,2.62.7,4.14,1.21a18.46,18.46,0,0,0-3.27-4.71Zm-1.87,5.45c-1,.34-1.41.94-1,2.39,1.35.1,2.72.21,4.11.34a24.49,24.49,0,0,0-3.09-2.73Zm-6.56,5.89c1.46,0,3.06-.16,4.88-.39l-4.08-1.66C205.34,127.26,205.08,127.93,205.51,128.82Z"/><path class="cls-8" d="M216.52,114.92a22,22,0,0,0-4.3-1.86,1.55,1.55,0,0,0,.06,1.32l4.24.54Zm.68,7.28c-1.51-.51-2.83-.91-4.14-1.21a2.62,2.62,0,0,1-.33-1.67,17.63,17.63,0,0,1,4.46,2.89Zm-2,3.47c-1.39-.13-2.75-.24-4.11-.34a3,3,0,0,1-.11-1.26,41.47,41.47,0,0,1,4.22,1.6Zm-9.65,3.16a1.62,1.62,0,0,1-.19-.93c1.62.24,3.29.43,5.07.55C208.57,128.66,207,128.79,205.51,128.82Z"/><path class="cls-5" d="M342.61,104.47c.31,7,14.48,5.22,9.86-.26C351.8,108.58,344.56,107.55,342.61,104.47Z"/><path class="cls-5" d="M360.65,99.93c1.91,3.05-4.57,6.55-4.22,2.86C358,104.43,360.72,101.81,360.65,99.93Z"/><path class="cls-5" d="M347.86,99.83c-2.23,0-3.84,1.44-3.16,3.45.55,1.62,5.86,1.43,6.39-.13C351.69,101.38,350.09,99.83,347.86,99.83Z"/><ellipse class="cls-11" cx="347.86" cy="103.11" rx="3.18" ry="2.1"/><ellipse class="cls-12" cx="357.88" cy="99.12" rx="2.46" ry="1.87" transform="matrix(0.38, -0.92, 0.92, 0.38, 129.09, 391.63)"/><path class="cls-9" d="M356.2,99.07a1.85,1.85,0,0,0,.74,2.6,2.17,2.17,0,0,0,2.55-1.35,1.85,1.85,0,0,0-.74-2.6A2.16,2.16,0,0,0,356.2,99.07Z"/><path class="cls-1" d="M225,64.48c1.73,12.82,1.37,28,12.14,37,4.39,3.7,8.38,5.88,15.46,8.92,5.4,2.32,10.53,5,14.5,9.13a26.15,26.15,0,0,1,5.26,7.82c1.28-2.58,1.36-4,1.48-6.76a43.11,43.11,0,0,1,4.44,7.63c1.64-4.3,1.72-6.19,1.3-10.57a25.07,25.07,0,0,1,2.78,6.59c2.24-3.5,2.19-4.25,2-8.14.85,1.2,1.66,2.38,2.41,3.64.32-7.94-4.42-12.58-11.3-16.5-8.23-4.68-12-9-13.31-17.82l-.37-7.11C254.68,67.09,240.74,60.78,225,64.48Z"/><path class="cls-2" d="M266.78,99.24c-3.05-2.93-4.72-6.37-5.49-11.5a25,25,0,0,0-2.79-9.14c-2.14-4.22-5.21-6.14-10.89-8.52-3.21,0-5.71,2-5.82,6.8-.06,2.69.22,5.81.22,6.71,0,7.76,13.68,16.36,20.13,18.59C266.66,103.75,267.23,101.72,266.78,99.24Z"/><path class="cls-3" d="M225.77,70.87c2.71,14.93,11.26,27.31,24,32.58a16.9,16.9,0,0,1,.34-5.8c2.42,4.61,4.19,7.47,8.24,10.75,6.95,5.62,13.15,9.09,14,19a26.15,26.15,0,0,0-5.25-7.82c-4-4.12-9.11-6.81-14.5-9.13-7.08-3-12.78-5-17.17-8.69-9-7.6-10.47-19.69-9.7-30.88Zm48.11,49.77a43.11,43.11,0,0,1,4.44,7.63c-.17-6-2.14-8.79-6.63-14a13.14,13.14,0,0,1,2.19,6.39Zm5.73-2.95c-.53-1.65-1.18-3.3-1.88-5,3.8,3.31,4.4,5.26,4.66,11.54a25.07,25.07,0,0,0-2.78-6.59Zm6.88,1.53c-1.44-6.32-3.39-7.73-6.83-10,2.32,3.15,4,4.65,4.75,6.88C285.16,117.15,285.85,118.16,286.5,119.21Z"/><path class="cls-6" d="M270.27,123.46c1.15-1.33,1.86-1.47,3.48-.58a11.73,11.73,0,0,1-1.34,4.51,31.61,31.61,0,0,0-2.13-3.94Zm5.23-.46a2.82,2.82,0,0,1,4.17.63,22.64,22.64,0,0,1-1.34,4.63A47.26,47.26,0,0,0,275.5,123Zm5.59-2.5c.65-.91,1.65-1.31,3.39-1.3-.11,1.63-.58,2.74-2.07,5.07a31.16,31.16,0,0,0-1.31-3.77Zm5.55-4.2a16.7,16.7,0,0,1,.2,3.46c-.52-.87-1.06-1.7-1.63-2.53A1.3,1.3,0,0,1,286.63,116.3Z"/><path class="cls-8" d="M270.27,123.46a3.86,3.86,0,0,1,1.12-1,20.44,20.44,0,0,1,1,4.91,31.61,31.61,0,0,0-2.13-3.94Zm16.23-4.24c-.42-.67-.85-1.33-1.29-2a1.33,1.33,0,0,1,.55-.74c.26.79.51,1.69.75,2.72Zm-4.11,5.06a31.16,31.16,0,0,0-1.31-3.77,2.74,2.74,0,0,1,.92-.82,37.71,37.71,0,0,1,.39,4.6ZM275.5,123a3.57,3.57,0,0,1,1.76-.64,17.29,17.29,0,0,1,1.06,5.9A47.26,47.26,0,0,0,275.5,123Z"/><path class="cls-13" d="M317.07,30.22C310.5,27,303.21,25.63,294,25.57,301.8,28.51,308.78,29.3,317.07,30.22Z"/><path class="cls-13" d="M305.07,30.71a25.58,25.58,0,0,0-11.54-2.33A44.51,44.51,0,0,0,305.07,30.71Z"/><path class="cls-13" d="M297.54,31.61a8.47,8.47,0,0,0-7.44-1.5A28.76,28.76,0,0,0,297.54,31.61Z"/><path class="cls-13" d="M293.14,32.83a4.27,4.27,0,0,0-4.72-1.31A14,14,0,0,0,293.14,32.83Z"/><path class="cls-13" d="M279.7,23c-6.57-3.24-10.22-3.35-19.43-3.41C268.07,22.56,271.42,22.11,279.7,23Z"/><path class="cls-13" d="M270,24.43a26.73,26.73,0,0,0-11.54-3.07A20.42,20.42,0,0,0,270,24.43Z"/><path class="cls-13" d="M256.69,23.7a8.49,8.49,0,0,0,7.22,2.37A28.86,28.86,0,0,0,256.69,23.7Z"/><path class="cls-13" d="M258,29.35A4.27,4.27,0,0,0,253.32,28,14,14,0,0,0,258,29.35Z"/><path class="cls-13" d="M255,25.83a7.16,7.16,0,0,0,6.09,2A24.35,24.35,0,0,0,255,25.83Z"/><path class="cls-13" d="M212.19,4.55C205.62,1.31,182.24,1.09,173,4,181.06,5.59,203.9,3.64,212.19,4.55Z"/><path class="cls-13" d="M193.43,7.42c-3.35-2.35-14.53-2.11-19.23,0C178.49,8.72,190.92,7.93,193.43,7.42Z"/><path class="cls-13" d="M185.36,10.44c-1.95-1.37-8.89-1.46-11.62-.21C176.31,11,184,10.72,185.36,10.44Z"/><path class="cls-13" d="M181.64,12.65c-1.37-1-6.26-1-8.18-.15C175.26,13,180.65,12.85,181.64,12.65Z"/><path class="cls-13" d="M35,83.82C24.57,85.65,20.16,88.67,9.21,96.55,20.9,93.3,24.48,89.88,35,83.82Z"/><path class="cls-13" d="M24.72,93.85c-5.41.66-10.48,2.73-16.2,6.32C15.32,99.42,20.27,97.38,24.72,93.85Z"/><path class="cls-13" d="M8.38,104.47c4.08.56,7.34-.61,10.52-3.42A42,42,0,0,0,8.38,104.47Z"/><path class="cls-13" d="M14.67,110A6.23,6.23,0,0,0,8,112.51,20.41,20.41,0,0,0,14.67,110Z"/><path class="cls-13" d="M8.15,108.45A10.42,10.42,0,0,0,17,105.57,35.35,35.35,0,0,0,8.15,108.45Z"/><path class="cls-3" d="M110.24,94.25c-5.15,4.92-8,7.19-14.81,13.25C104.88,103.43,107.53,100.6,110.24,94.25Z"/><path class="cls-3" d="M108.17,91.56c-2.71,2-5.54,4.45-9.59,7.21C104,98.62,106.75,96.07,108.17,91.56Z"/><path class="cls-3" d="M99.6,94.76a8.57,8.57,0,0,0,6.35-4.23A29.25,29.25,0,0,0,99.6,94.76Z"/><path class="cls-3" d="M104.58,89a4.33,4.33,0,0,0-4,2.91A14.15,14.15,0,0,0,104.58,89Z"/><path class="cls-3" d="M223.61,79.4c-.18-2.73-.14-6.18,2.09-11.95C221.84,71.38,221.58,75.14,223.61,79.4Z"/><path class="cls-3" d="M220,77.43c.46-2.54.77-5.38,1.58-9C218.67,71.36,218.47,74.21,220,77.43Z"/><path class="cls-3" d="M217.43,75.77c.28-1.57.47-3.32,1-5.58A4.42,4.42,0,0,0,217.43,75.77Z"/><path class="cls-3" d="M125.16,86.94C125,83.45,125,79,127.25,71.64,123.4,76.66,123.14,81.49,125.16,86.94Z"/><path class="cls-3" d="M121.56,84.42c.46-3.26.77-6.89,1.58-11.58C120.22,76.65,120,80.29,121.56,84.42Z"/><path class="cls-3" d="M119,82.29c.28-2,.47-4.25,1-7.15A6.83,6.83,0,0,0,119,82.29Z"/><path class="cls-2" d="M155.08,52.61c13.73,9.94,3.69,23.84,23.86,29.72,11.91,3.47,17.29-2.86,13.09-13.51-3.21-8.14-8.74-15.12-15.17-17.62C170.18,48.61,162.48,49.78,155.08,52.61Z"/></svg>