<svg id="Layer_1" data-name="Layer 1" xmlns="http://www.w3.org/2000/svg" viewBox="0 0 281.93 138.75"><defs><style>.cls-1{fill:#080307;}.cls-2,.cls-8{fill:#fff;}.cls-2{opacity:0.25;}.cls-3{fill:#2a304a;}.cls-4{fill:#161416;}.cls-5{fill:#e3793d;}.cls-6{fill:#50311f;}.cls-7{fill:#2c73e7;}.cls-8{opacity:0.37;}</style></defs><title>SkinksBig</title><path class="cls-1" d="M225.82,73.86a24.73,24.73,0,0,0,8.53,1.41,80.81,80.81,0,0,0-11.3-4.54A6.67,6.67,0,0,0,228,69.45l-10.75-1.67a19.57,19.57,0,0,0-6.6-.27c-1,.2-2.57.25-2.7-.8a1.78,1.78,0,0,1,.17-.84l3.13-8.17c1-2.64,2.85-5,2.77-7.88a4.07,4.07,0,0,0-.46-2c-.48-.8-2.21-.79-3.13-.66C207.54,55.2,200,61.07,197.79,69.31c-.39,1.44-.53,3.2.57,4.22.91.84,2.3.81,3.53.73l3.4-.22,1.26-.08c2.69-.18,5.55-.32,7.91,1a10.06,10.06,0,0,1,3,2.81c1.4,1.83,2.54,4,4.21,5.57a13.09,13.09,0,0,0-2.65-7.07c5.59,2,9.32,7.27,14.21,10.66-1.51-4.77-7.64-6.79-9.34-11.49a69.31,69.31,0,0,0,13.86,4.81,6.53,6.53,0,0,0-3-2.17Z"/><path class="cls-2" d="M206.08,64.81a8.66,8.66,0,0,1-2.56,6.82,3.35,3.35,0,0,1-1.8,1,1.55,1.55,0,0,1-1.7-.94,2.3,2.3,0,0,1,.65-1.95,19.74,19.74,0,0,0,2.84-4.21c.32-.79.51-1.63.86-2.41a3.05,3.05,0,0,1,1.7-1.77c.45.51.14.87,0,1.42A7,7,0,0,0,206.08,64.81Z"/><path class="cls-3" d="M125.85,50.59A10.82,10.82,0,0,0,124.26,48h0A4.67,4.67,0,0,0,123,47a8.14,8.14,0,0,0-2.63-.71l-5.07-.77a2.52,2.52,0,0,0-1.79.17c-.92.63-.61,2-.2,3.08l.08.19,2.22,5.64,1.4,3.55h0l0,.11a8.66,8.66,0,0,0-5.57-2c-2-.1-4,.21-6,.32-5,.26-10.06-.76-15-1.78a15.26,15.26,0,0,1-5.78-2,3.56,3.56,0,0,0,.25,1.21h0a5.2,5.2,0,0,0,2.34,2.56,13.85,13.85,0,0,0,4.57,1.31l10.85,1.79-.07.1c-1.44,2.24-3.86,3.32-6.2,4.6a46.5,46.5,0,0,1-9.45,4.1,58.78,58.78,0,0,0-15.16,7.06,4,4,0,0,1-2.53.89,3.85,3.85,0,0,0,1.54.57,6.1,6.1,0,0,0,2.89-.33,34.35,34.35,0,0,0,4.09-2.08,34,34,0,0,1,7.09-2.41q4.79-1.22,9.6-2.32a6.09,6.09,0,0,0-2.15,1.28c-.89.72-1.75,1.56-2.39,2L85.13,76.6c-.91.68-3.38,1.84-3.25,3.19a1.4,1.4,0,0,0,.29.78c.66.81,2.26.36,3.08-.09a42.23,42.23,0,0,0,6.4-4.3l.07-.06a1.2,1.2,0,0,0,.29.14,2.73,2.73,0,0,0,2.12-.58l5.31-3.35a1.54,1.54,0,0,1,.86-.32,3,3,0,0,1,.71.22c1.06.33,2.09-.51,2.87-1.3l3.88-3.86,1.51-1.5c3,.09,5.74,1.75,8.39,3.26h0l.46.26a15.31,15.31,0,0,0,7.1,2.38,7.16,7.16,0,0,0,2-.27,3.4,3.4,0,0,0,2.45-2c1.51-3.15.49-6.89-.62-10.2A74.12,74.12,0,0,0,125.85,50.59Z"/><path class="cls-2" d="M120.4,67.38c-.15-.16-.29-.42-.15-.6s.26-.14.4-.18a1.27,1.27,0,0,0,.8-1.14,3.4,3.4,0,0,0-.29-1.43,49.59,49.59,0,0,0-2.75-5.82,12.29,12.29,0,0,0-1.13-1.87,24.52,24.52,0,0,0-1.87-1.92,12.33,12.33,0,0,1-2.25-3.2,2.88,2.88,0,0,1-.36-1.25,1.15,1.15,0,0,1,.63-1.07c.55-.23,1.16.15,1.64.5l1.69,1.26c.53.4,1.13.93,1,1.59,0,.18-.1.35-.13.54a2,2,0,0,0,.7,1.47,25.54,25.54,0,0,1,2.75,3.81l-1.39-.94c-.1.53.33,1,.69,1.4,1.85,2.05,2.63,4.83,3.12,7.55a3.25,3.25,0,0,1,.06,1.19C123.24,69.08,121.27,68.33,120.4,67.38Z"/><path class="cls-1" d="M125.85,50.59A10.82,10.82,0,0,0,124.26,48h0l-5.23.63a9.69,9.69,0,0,0,2,3,31.08,31.08,0,0,1,6.47,14.46,5.55,5.55,0,0,1-.46,4,3.68,3.68,0,0,1-1.75,1.31,7.16,7.16,0,0,0,2-.27,3.4,3.4,0,0,0,2.45-2c1.51-3.15.49-6.89-.62-10.2A74.12,74.12,0,0,0,125.85,50.59Z"/><path class="cls-1" d="M117,58.14l0,.11a8.66,8.66,0,0,0-5.57-2c-2-.1-4,.21-6,.32-5,.26-10.06-.76-15-1.78a15.26,15.26,0,0,1-5.78-2,3.56,3.56,0,0,0,.25,1.21h0c2.09,1.51,4.82,1.94,7.4,2.31l3.89.55,4.35.62a22.19,22.19,0,0,0,6.61.28,8.46,8.46,0,0,1,1.85-.21,6.06,6.06,0,0,1,1.47.34,21.64,21.64,0,0,1,4.33,1.75,7.34,7.34,0,0,1,3.16,3.34c.29.69.5,1.51,1.16,1.85a.57.57,0,0,0,.61,0,.72.72,0,0,0,.13-.7A13,13,0,0,0,117,58.14Z"/><path class="cls-1" d="M81.88,79.79a1.4,1.4,0,0,0,.29.78,24.45,24.45,0,0,1,5.3-3.75,50.61,50.61,0,0,0,9.75-7.73,28.78,28.78,0,0,0-4.94,2c-.89.72-1.75,1.56-2.39,2L85.13,76.6C84.22,77.28,81.75,78.44,81.88,79.79Z"/><path class="cls-1" d="M98,71.81a17.42,17.42,0,0,0-6.35,4.37l.07-.06a1.2,1.2,0,0,0,.29.14,2.51,2.51,0,0,1,.44-.67,8.59,8.59,0,0,1,2.36-1.5A16.35,16.35,0,0,0,98,71.81Z"/><path class="cls-1" d="M103.62,59.94a2.65,2.65,0,0,0-1.06-.26c-1.44,2.24-3.86,3.32-6.2,4.6a46.5,46.5,0,0,1-9.45,4.1,58.78,58.78,0,0,0-15.16,7.06,4,4,0,0,1-2.53.89,3.85,3.85,0,0,0,1.54.57c3.32-1.67,6.65-3.34,10-4.94a33.71,33.71,0,0,1,4-1.7c1.4-.46,2.85-.74,4.27-1.14a38.77,38.77,0,0,0,9-4C100.3,63.82,102.54,62.27,103.62,59.94Z"/><path class="cls-2" d="M117.68,68.83a17,17,0,0,0-5.26-4.39,19.56,19.56,0,0,0-2.7-1,8.63,8.63,0,0,0-2.16-.47,6.94,6.94,0,0,0-2.08.29,31.85,31.85,0,0,0-8.61,4.33c1.45.21,2.84-.8,4.3-.68a.85.85,0,0,1,.51.18.76.76,0,0,1,.18.7,3,3,0,0,1-1.56,1.78l-2,1.27c1.82-.1,3.26-1.71,5.06-2a3.26,3.26,0,0,1-.88,1.81c0,.14.23.11.36,0a10.64,10.64,0,0,0,2.44-2.23,4.24,4.24,0,0,1,2.45-1.41l1.51-1.5C112.32,65.66,115,67.32,117.68,68.83Z"/><path class="cls-2" d="M218.4,71.3a7.74,7.74,0,0,0-4-.86c-2,.29-3.44,2-5.33,2.72a24.26,24.26,0,0,1-2.93.64,6,6,0,0,0-.81.24l1.26-.08c2.69-.18,5.55-.32,7.91,1a10.06,10.06,0,0,1,3,2.81c0-.64-.06-1.28,0-1.79s.11-1.1.58-1.28c-.26-.07-.27-.48-.06-.63a.69.69,0,0,1,.75,0,7.21,7.21,0,0,1,.62.49,1.87,1.87,0,0,0,1.58.29c-.34-.72-1.13-1.08-1.77-1.55S218,72,218.4,71.3Z"/><path class="cls-4" d="M266.43,51.64c-4-1.72-7.19-2.78-7.19-2.78l-.14-.09c-7.15-4.24-20-7.86-20-7.86A50.45,50.45,0,0,1,220,36.33l-.66-.31c-1.53-.74-2.36-1.26-2.36-1.26s4.13-4.83-1.56-4.61a16.86,16.86,0,0,1-2-.08c-8.13-.74-30-5.78-47.53-8.94-9.33-1.68-20.41.36-29.38,2.92-2,.58-3.94,1.18-5.7,1.77-4.16,1.4-7.47,2.74-9.36,3.55-1.12.47-1.74.76-1.74.76s-2.3-.2-6.23-.36c-14.73-.59-52.3-.55-76.49,13.29C25.49,49.63,17.73,56,12.41,62.49,3.53,73.24,1.44,84.09.17,95.9c-2,18.89,15,31.52,15,31.52a56.48,56.48,0,0,0,51.61,8.49c26.62-8.57,30.56-21,30.56-21s2-6.35-3.19-.82-15.45,17.64-41.51,19.19a45.65,45.65,0,0,1-39.17-17.62S1.63,98.78,11.41,80.54c4.33-8.06,8.13-13,12.62-16.75,5.67-4.72,12.46-7.52,22.84-12.28C65.5,43,87.74,45.13,100.46,48.13c4.09,1,7.94,1.76,11.62,2.45l.86.16,1.18.22,3.51.62,3.76.63,5.55.89c2.14.34,4.25.68,6.35,1l.37.06c10.05,1.71,26,3.4,38.06,2.74a173.47,173.47,0,0,1,19.94.24c2.85.17,5.15.32,6.76.31a14.7,14.7,0,0,1,2.38.25c.86.14,1.84.35,2.91.61,1.92.47,4.15,1.12,6.51,1.91a85.5,85.5,0,0,1,17.46,8c9.58,6.05,24.32,7.91,24.32,7.91,6.78,3.25,12.1.42,13.5-.7a26.92,26.92,0,0,1,4.73-2.18c2.39-1,5.21-2,7.36-2.85l1.35-.54c2.56-1.06,3-3.74,3-5.42a8.73,8.73,0,0,0-.13-1.46C280.94,58.63,272.7,54.33,266.43,51.64Z"/><path class="cls-5" d="M280.55,65.94a.94.94,0,0,0-.67-.92c-.53-.12-1,.33-1.52.52a2.85,2.85,0,0,1-2.3-.4,7.68,7.68,0,0,0-2.16-1,5.65,5.65,0,0,0-3.21.72c-3.9,1.68-8.33,2.92-12.35,1.52a4.6,4.6,0,0,0-1.12-.31,6.61,6.61,0,0,0-1.17.1,4.39,4.39,0,0,1-3.44-1.2,1.56,1.56,0,0,0-.59-.44c-.54-.16-1,.37-1.52.58-.95.38-1.94-.33-2.9-.68-2-.71-4.15.21-6.06,1.1l7.77.43a3.45,3.45,0,0,1,.85.12c.8.25,1.32,1.05,2.1,1.39,1.2.52,2.56-.21,3.87-.14a7.67,7.67,0,0,1,1.48.3,18.81,18.81,0,0,0,10.88-.51c1.57-.56,3.19-1.35,4.84-1.06a23.12,23.12,0,0,1,2.8,1,2.64,2.64,0,0,0,2.78-.47c.08-.09,1,.44,1.15.38S280.55,66.21,280.55,65.94Z"/><path class="cls-5" d="M277.62,70.38l-.92,0c-2.68,0-5.19,1.48-7.87,1.44a19.86,19.86,0,0,1-3.42-.54,21.6,21.6,0,0,0-6.8-.19,10.62,10.62,0,0,1-4.59.1,7.17,7.17,0,0,0-1.25-.38,4,4,0,0,0-1.08.06l-3.12.47a.33.33,0,0,0-.25.12.3.3,0,0,0,.05.29,2.38,2.38,0,0,0,2.28.83,17.1,17.1,0,0,1,2.52-.32c.55,0,1.09.2,1.65.27,1.79.23,3.55-.57,5.35-.75a15.71,15.71,0,0,1,4.59.44c1.11.22,2.23.44,3.33.68a12.33,12.33,0,0,0,2.05.35h.12C272.65,72.28,275.47,71.23,277.62,70.38Z"/><path class="cls-5" d="M243.25,68.84a5,5,0,0,0-1-.77.47.47,0,0,0-.3-.07.36.36,0,0,0-.25.36,1,1,0,0,0,.14.45q.31.64.68,1.25a1.64,1.64,0,0,0,.33.42,1.51,1.51,0,0,0,.39.22,6.21,6.21,0,0,0,1.73.46c1.22.14.88-.35.15-.86A19.16,19.16,0,0,1,243.25,68.84Z"/><path class="cls-5" d="M239,67.66a1.29,1.29,0,0,0,.4.16,1.33,1.33,0,0,0,.93,0,1.27,1.27,0,0,0,.55-1,6.33,6.33,0,0,0,.1-1,1.16,1.16,0,0,0-.15-.71,1.19,1.19,0,0,0-1.09-.32c-.75.06-1.76-.32-1.8.85A3.93,3.93,0,0,0,239,67.66Z"/><path class="cls-5" d="M259.54,58a4.29,4.29,0,0,0-1.4-.23c-.36,0-.71.13-1.07.14a4.25,4.25,0,0,1-1.23-.24c-2.93-.83-6-.66-9-1.1a41.85,41.85,0,0,1-8.2-2.32q-2-.72-3.93-1.46a.81.81,0,0,0,0,1,2.54,2.54,0,0,0,.95.61,20.18,20.18,0,0,1,3.35,2,8.67,8.67,0,0,0,1.19.78,7.13,7.13,0,0,0,1.41.47,26.11,26.11,0,0,0,3.5.73c2.22.26,4.48-.06,6.69.25a27.92,27.92,0,0,0,3.07.45c.67,0,1.34-.07,2-.05,3.73.08,6.87,3.24,10.6,3.33a13.28,13.28,0,0,0,1.82-.12c.69-.08,2.8-.56,1.24-1.17-1.18-.46-2.5-.69-3.71-1Z"/><path class="cls-6" d="M266.43,51.64,262,50.44c-.49-.13-1-.27-1.49-.36a7.61,7.61,0,0,0-5.14.77,3.28,3.28,0,0,0-2.83-1.29c-.94.07-1.92.55-2.78.15-.56-.26-1-.87-1.62-.82-.36,0-.68.3-1,.31-.83,0-1.33-1.24-2.15-1.07-.21.43-.62.79-.62,1.26,0,.66.78,1.06,1.44,1a18.24,18.24,0,0,1,2-.25,14.65,14.65,0,0,1,2,.57,12.68,12.68,0,0,0,1.4.12,22.62,22.62,0,0,1,2.57.57c3.38.72,7-.42,10.32.56a8.36,8.36,0,0,1,3.7,2.28c1.09,1.16,1.85,2.64,3.1,3.64,1.76,1.42,4.18,1.65,6.27,2.51a11.09,11.09,0,0,1,4.9,4,8.73,8.73,0,0,0-.13-1.46C280.94,58.63,272.7,54.33,266.43,51.64Z"/><path class="cls-5" d="M240.5,47.47s-1.73-.36-4.72-1.13c-1.49-.39-3.3-.88-5.36-1.5s-4.35-1.4-6.82-2.33c-1.23-.47-2.5-1-3.8-1.58l-1-.45c-.33-.15-.66-.3-1-.48l-2-1c-1.33-.72-2.74-1.41-4.19-2.09l-2.21-1-2.28-.94c-.38-.16-.77-.31-1.16-.46L204.85,34l-1.19-.45-1.21-.42L200,32.32l-2.49-.77c-.42-.13-.83-.26-1.25-.38L195,30.81l-2.54-.7-2.57-.63-1.29-.32c-.43-.1-.86-.19-1.3-.28l-2.6-.55-.65-.14-.65-.12-1.3-.23-2.6-.46-2.6-.37c-.86-.12-1.72-.25-2.58-.36l-2.56-.27c-.85-.08-1.69-.19-2.53-.26l-2.5-.17-2.46-.17-2.42-.08c-1.6,0-3.15-.11-4.67-.08l-2.25,0H153l-.27,0c-1.43.11-2.8.27-4.12.44-2.63.34-5,.77-7.13,1.24s-3.92.94-5.39,1.4l-1,.32-.91.32-.78.28-.64.26-1.18.47,1.2-.42.65-.23.79-.24.92-.28,1.05-.29c1.48-.42,3.31-.83,5.41-1.23s4.5-.75,7.12-1c1.31-.14,2.68-.27,4.09-.36H155l2.24,0c1.51,0,3.06.09,4.65.17l2.4.11,2.44.2,2.48.2c.83.08,1.67.19,2.51.28l2.54.29c.85.11,1.7.24,2.56.37l2.58.38,2.58.46,1.29.23.65.12.64.14,2.58.55c.43.09.86.17,1.29.28l1.28.31,2.56.62,2.53.69,1.26.35c.42.12.83.25,1.24.38l2.47.76,2.43.81,1.2.41,1.18.44,1.17.43c.39.14.78.29,1.16.44l2.27.91,2.21,1c1.45.64,2.84,1.3,4.2,2l2,1c.33.17.67.32,1,.46l1,.44q2,.84,3.86,1.52c2.5.9,4.83,1.6,6.91,2.17s3.9,1,5.41,1.34,2.7.56,3.51.72Z"/><path class="cls-5" d="M240.44,55.36c-.27-.11-26.57-11.36-35.4-14.45s-44.15-10.3-57-7.15c-9.69,2.36-30,1.13-38.16.51-2.13-.16-3.43-.29-3.49-.29a161.54,161.54,0,0,0-35,1.44,123.63,123.63,0,0,0-28.9,7.77l-1.57.67c-11.21,4.89-20.4,11.46-27.3,19.55l1.13,1C30,46.42,54,39.52,71.5,36.88a160.28,160.28,0,0,1,34.72-1.43c.26,0,1.72.16,4,.34,8.51.66,28.31,1.82,38.14-.59,12.4-3,47.73,4.14,56.19,7.11,8.78,3.08,35,14.3,35.3,14.42Z"/><path class="cls-5" d="M239.31,65.53c-.13,0-13.09-4.55-18-8-5.39-3.78-26.12-9.67-38.91-11.05-2.07-.22-4-.46-6-.68a212.67,212.67,0,0,0-38.22-1.65A183.16,183.16,0,0,1,107.65,43c-1.71-.23-2.59-.41-2.62-.41A121,121,0,0,0,83.8,40.76c-10.59-.06-25.86,1.18-40.25,7.15q-1.58.66-3.15,1.39C25.13,56.48,17.6,63.73,14,68.56c-3.25,4.32-4.05,7.52-4.25,8.65,0,.26-.06.41-.06.44l1.07.08.41,0s.31-3.44,4.12-8.45C18.8,64.66,26.14,57.64,41,50.64s31.52-8.46,42.72-8.4a119.92,119.92,0,0,1,21,1.84s1,.2,2.9.45a185.56,185.56,0,0,0,30.6,1.08,211.38,211.38,0,0,1,38,1.64c1.91.22,3.89.46,6,.68,13.66,1.48,33.43,7.44,38.22,10.79,5.11,3.58,17.85,8,18.39,8.2Z"/><path class="cls-5" d="M200.82,57.73a88.29,88.29,0,0,0-16.51-3c-5.32-.38-8.69-.91-11.65-1.38-5.39-.86-9.65-1.53-22.13-.64-12.14.86-28.35-.81-38.44-2.13C119.71,52,126.6,53,133.3,54.13a139.49,139.49,0,0,0,17.34.07c12.31-.88,16.29-.24,21.79.63,3,.48,6.39,1,11.78,1.4a71.94,71.94,0,0,1,7.47,1c2.85.17,5.15.32,6.76.31A14.7,14.7,0,0,1,200.82,57.73Z"/><path class="cls-7" d="M94.19,114.07c-5.18,5.54-15.45,17.64-41.51,19.19a45.65,45.65,0,0,1-39.17-17.62S1.63,98.78,11.41,80.54c4.33-8.06,8.13-13,12.62-16.75a33.49,33.49,0,0,0-6.33,4.56c2.47-5.21,8.67-7.74,11.52-12.75L17.66,63.49c-.4-1.65.86-3.22,2.13-4.34s2.76-2.28,3-4a39.71,39.71,0,0,1-10,7.08l-.45.22C3.53,73.24,1.44,84.09.17,95.9c-2,18.89,15,31.52,15,31.52a56.48,56.48,0,0,0,51.61,8.49c26.62-8.57,30.56-21,30.56-21S99.37,108.54,94.19,114.07Z"/><path class="cls-6" d="M259.09,48.78c-7.15-4.24-20-7.86-20-7.86A50.45,50.45,0,0,1,220,36.33a.26.26,0,0,0,0,0c.07.68.74,1.1,1.34,1.42a31,31,0,0,0,8.41,3.46c3.38.69,7.11.38,10,2.29a1.73,1.73,0,0,0,.69.34c.44.06.83-.25,1.25-.38a2.74,2.74,0,0,1,2.16.4,15.6,15.6,0,0,0,2,1.13c1.09.42,2.45.34,3.22,1.21a.72.72,0,0,1,.21.72c0,.12-.14.21-.18.32-.11.35.33.63.69.71,2,.45,4.21-.23,6.07.65,0-.28,0-.55,0-.83A4.05,4.05,0,0,0,259.09,48.78Z"/><path class="cls-1" d="M251.59,27.42l-.71-.23c2.35.43,4.58-1.57,5.31-3.84.54-1.69.31-3.84-1.19-4.79a9.06,9.06,0,0,1-1.64,5.12,3.55,3.55,0,0,1-1.68,1.43,4.17,4.17,0,0,1-1.91,0,40,40,0,0,1-8.87-2.37,20.36,20.36,0,0,1,4.26,0,7.72,7.72,0,0,0,4.15-.76A3.33,3.33,0,0,0,251,18.39c-.13-.12-.34,0-.39.17a2.25,2.25,0,0,0,0,.52c0,.58-.64.83-1.26.91a4,4,0,0,1-.69,0,61.28,61.28,0,0,0-10.42.4,12.25,12.25,0,0,1-1.79.14,4.47,4.47,0,0,1-.87-.1c-.47-.11-.92-.31-1.39-.42a12.73,12.73,0,0,0-2.61-.13,21.39,21.39,0,0,1-4.92-1c-.69-.19-1.39-.36-2.09-.5-2.35-.44-5.1-.2-6.65,1.62a10.14,10.14,0,0,0-1.61,3.58,31.83,31.83,0,0,1-5.13,9.7,2.25,2.25,0,0,0-.49.87,2.09,2.09,0,0,0,.75,1.69c1.42,1.54,3.48,3,5.47,2.33,1.77-.57,2.64-2.49,3.5-4.14a25.88,25.88,0,0,1,3-4.49,4.88,4.88,0,0,1,1.73-1.49,3.72,3.72,0,0,1,1.75-.24c.58,0,1.17.15,1.75.23,2,.29,3.89-.11,5.87-.08s3.54.92,5.24,1.88A21.69,21.69,0,0,0,245.16,32c-.55-1.52-2.07-2.43-3.48-3.21l9.49,2.49a5.27,5.27,0,0,0,2.14.25,2.17,2.17,0,0,0,.62-.2,1.67,1.67,0,0,0,.87-.94,1.29,1.29,0,0,0,.05-.19l3.15.24a2.79,2.79,0,0,0,1.75-.25,1.11,1.11,0,0,0,.44-.61.79.79,0,0,0-.24-.91A28.66,28.66,0,0,1,251.59,27.42Z"/><path class="cls-2" d="M256.19,23.35c.54-1.69.31-3.84-1.19-4.79a9.06,9.06,0,0,1-1.64,5.12,3.55,3.55,0,0,1-1.68,1.43,4.17,4.17,0,0,1-1.91,0,40,40,0,0,1-8.87-2.37,20.36,20.36,0,0,1,4.26,0,7.72,7.72,0,0,0,4.15-.76A3.33,3.33,0,0,0,251,18.39c-.13-.12-.34,0-.39.17a2.25,2.25,0,0,0,0,.52c0,.58-.64.83-1.26.91a1.38,1.38,0,0,1-.75,1.28,3.29,3.29,0,0,1-1.5,0,6.87,6.87,0,0,0-1.79.22,18.65,18.65,0,0,1-7.21,0,2.37,2.37,0,0,1-1.55-.78l-.1-.16a4.47,4.47,0,0,1-.87-.1c-.47-.11-.92-.31-1.39-.42a12.73,12.73,0,0,0-2.61-.13,21.39,21.39,0,0,1-4.92-1h-.2c-1.19-.05-2.52-.52-3.48.18-.74.54-.93,1.57-1.5,2.28l-.12.15c-.45.48-1.11.74-1.54,1.24a2.1,2.1,0,0,0,.3,2.92,1.31,1.31,0,0,0,.68.29c.95.08,1.47-1.16,2.38-1.44a1.3,1.3,0,0,1,.53,0c.87.09,1.61,1,2.12,1.85q.49.77,1,1.52c.58,0,1.17.15,1.75.23,2,.29,3.89-.11,5.87-.08s3.54.92,5.24,1.88A21.69,21.69,0,0,0,245.16,32c-.55-1.52-2.07-2.43-3.48-3.21l9.49,2.49a5.27,5.27,0,0,0,2.14.25,2.17,2.17,0,0,0,.62-.2,3,3,0,0,0-1.1-.47,79.57,79.57,0,0,1-10-3.57c3,.16,5.72,1.86,8.67,2.43.94.19,1.91.25,2.84.51l.51.16a1.29,1.29,0,0,0,.05-.19l3.15.24a2.79,2.79,0,0,0,1.75-.25,1.11,1.11,0,0,0,.44-.61,4.28,4.28,0,0,0-1.2,0c-4.55.36-9-1.13-13.35-2.6a20.61,20.61,0,0,1-3.12-1.26,63.69,63.69,0,0,0,7.33,1.52,8.52,8.52,0,0,0,1.74.13l-.71-.23C253.23,27.62,255.46,25.62,256.19,23.35Z"/><path class="cls-2" d="M237.5,24.94a4.17,4.17,0,0,1-.88,0,1.64,1.64,0,0,1-1.25-1.17.72.72,0,0,1,.06-.58.85.85,0,0,1,.41-.28,4.81,4.81,0,0,1,2.83-.23,1.82,1.82,0,0,1,.54.19c.41.24.62.72,1,1.06s.91.57,1,1-.21.51-.6.47A24.09,24.09,0,0,0,237.5,24.94Z"/><path class="cls-2" d="M231.55,24a10.39,10.39,0,0,0-6.85-2.94,14.64,14.64,0,0,0-1.74.06,10.24,10.24,0,0,0-1.48.21l-.12.15c-.45.48-1.11.74-1.54,1.24a2.1,2.1,0,0,0,.3,2.92,1.31,1.31,0,0,0,.68.29c.95.08,1.47-1.16,2.38-1.44a1.3,1.3,0,0,1,.53,0,1.43,1.43,0,0,1,1-.6,3.88,3.88,0,0,1,1.4.15,6.22,6.22,0,0,1,1.6.54c.55.3,1,.76,1.53,1.09a1.87,1.87,0,0,0,1.78.24,1.66,1.66,0,0,0,.75-.9.88.88,0,0,0,.08-.51A1,1,0,0,0,231.55,24Z"/><path class="cls-8" d="M222.87,50.91c5.24,4,12.49,3.51,19,4.33a85.4,85.4,0,0,1,15.17,3.83,4.6,4.6,0,0,1,2.59,1.53c.57.85.24,2.32-.77,2.45a2.13,2.13,0,0,0-2.61-1.89,3.71,3.71,0,0,1-2.91,2.54c1.3-.64.54-2.83-.83-3.31s-2.87,0-4.31,0a19.57,19.57,0,0,0-3.32-.17c-1.1.17-2.22,1.09-2,2.19a7.3,7.3,0,0,0-.43-3.48l-2,2.68a3.39,3.39,0,0,0-.22-3.66,7.16,7.16,0,0,0-2.29,3.69,6,6,0,0,0-.84-4.24,8.25,8.25,0,0,1-2,3.23,6.93,6.93,0,0,0-.15-3.42,9.55,9.55,0,0,1-2.2,3.3l.17-2.8-2.76,2.21.39-2.76a7.82,7.82,0,0,1-2.74,1.46l-.17-1.16-10-3.72a129,129,0,0,0-13.74-4.51c-3.68-.91-7.44-1.49-11.18-2.08l-39-6.07a80.27,80.27,0,0,0-11.35-1.22c-12.56-.15-24.91,1.61-37.47,1.21-3.87-.12-7.73-.33-11.6-.44-18.39-.5-37.26,1.54-53.78,9.6S8.91,73.09,5.31,91.15a46.1,46.1,0,0,0-.3,8.8,29.2,29.2,0,0,0,.33,4.69,22.76,22.76,0,0,0,1.36,4.42c4.41,11,13.26,20.67,24.68,23.76A34.28,34.28,0,0,1,6.62,113.91,39.5,39.5,0,0,1,9.1,76.39C17.61,63.2,29,52.09,43.51,46.07s30.29-8.12,45.94-9.31a85,85,0,0,1,10.84-.31c3.27.17,6.53.68,9.81.73,7.29.1,14.41-2.09,21.69-2.58,6.78-.45,13.54-1.36,20.27-2.28a95.16,95.16,0,0,1,10.27-1c8-.22,15.92,1.58,23.73,3.37a88.85,88.85,0,0,1,12.22,3.42C207.14,41.52,215.33,45.1,222.87,50.91Z"/><path class="cls-7" d="M40.41,49.3C25.13,56.48,17.6,63.73,14,68.56c-3.25,4.32-4.05,7.52-4.25,8.65a5.72,5.72,0,0,0,1,.52l.41,0s.31-3.44,4.12-8.45C18.8,64.66,26.14,57.64,41,50.64s31.52-8.46,42.72-8.4a119.92,119.92,0,0,1,21,1.84s1,.2,2.9.45a8.33,8.33,0,0,1,0-1.49c-1.71-.23-2.59-.41-2.62-.41A121,121,0,0,0,83.8,40.76c-10.59-.06-25.86,1.18-40.25,7.15Q42,48.57,40.41,49.3Z"/><path class="cls-7" d="M109.85,34.26c-2.13-.16-3.43-.29-3.49-.29a161.54,161.54,0,0,0-35,1.44,123.63,123.63,0,0,0-28.9,7.77l-1.57.67c-11.21,4.89-20.4,11.46-27.3,19.55l1.13,1C30,46.42,54,39.52,71.5,36.88a160.28,160.28,0,0,1,34.72-1.43c.26,0,1.72.16,4,.34A4.53,4.53,0,0,0,109.85,34.26Z"/><path class="cls-1" d="M137.72,17.31a11.75,11.75,0,0,0-3.91-4.15,29.31,29.31,0,0,0-4.5-2.6A40.21,40.21,0,0,0,122.1,8a8.8,8.8,0,0,1-3.18-1.24,14,14,0,0,1-2.41-3A9.7,9.7,0,0,0,109.86,0a1.44,1.44,0,0,1,.66.79,14.68,14.68,0,0,0-12.6,2.26L100,2.91,87.92,7.5l14.52-2.34c1.44-.23,3.12-.4,4.18.61-2.89.14-5.6,1.42-8.17,2.75A141.43,141.43,0,0,0,85,16.45c-1.76,1.17-3.68,2.71-3.7,4.83A16.29,16.29,0,0,0,86.13,19l7.48-4.52c2.86-1.73,5.8-3.49,9.08-4.1s7,.18,9.12,2.8A23.9,23.9,0,0,0,99.69,23.45l8.43-5.66c1.86-1.25,3.94-2.56,6.17-2.3a8.82,8.82,0,0,1,2.8,1c.49.24,1,.48,1.44.73A57.79,57.79,0,0,1,124.81,21a5.41,5.41,0,0,0-2.26,1.05,65.85,65.85,0,0,1-6.92,4.6c-1.56.78-3,2.12-1.71,4.1a5.31,5.31,0,0,0,4.45,1.93c4.31.06,8.23-2.33,11.87-4.63l4.66-2.94a8.68,8.68,0,0,0,2.75-2.34A5.6,5.6,0,0,0,137.72,17.31Z"/><path class="cls-3" d="M132,14a15.64,15.64,0,0,1-2.74-3.45A40.21,40.21,0,0,0,122.1,8a8.8,8.8,0,0,1-3.18-1.24,14,14,0,0,1-2.41-3A9.7,9.7,0,0,0,109.86,0a1.44,1.44,0,0,1,.66.79,14.68,14.68,0,0,0-12.6,2.26L100,2.91,87.92,7.5l14.52-2.34c1.44-.23,3.12-.4,4.18.61-2.89.14-5.6,1.42-8.17,2.75A141.43,141.43,0,0,0,85,16.45c-1.76,1.17-3.68,2.71-3.7,4.83A16.29,16.29,0,0,0,86.13,19l7.48-4.52c2.86-1.73,5.8-3.49,9.08-4.1s7,.18,9.12,2.8A23.9,23.9,0,0,0,99.69,23.45l8.43-5.66c1.86-1.25,3.94-2.56,6.17-2.3a8.82,8.82,0,0,1,2.8,1c.49.24,1,.48,1.44.73a7.18,7.18,0,0,1,4.1,0,19,19,0,0,1,4.22,1.29,7.32,7.32,0,0,1,3.27,2.87c.29.51.93.45.74,1a6.8,6.8,0,0,1-3.17,3.71c-1.21.65-2.58.91-3.85,1.44A4.5,4.5,0,0,0,121,30.31a11.55,11.55,0,0,0,6.34-2.07,32.5,32.5,0,0,0,6.08-4.78c1.38-1.39,2.73-3.21,2.33-5.13S133.48,15.31,132,14Z"/><path class="cls-1" d="M128.57,14.81a25.76,25.76,0,0,0-4.82-1.94,11,11,0,0,1-4.48-2.56c-.44-.47-.87-1-1.51-1.14-.94-.16-1.73.92-1.61,1.86a3.51,3.51,0,0,0,1.63,2.25c2.42,1.71,5.51,2.14,8.16,3.46.77.38,5.21,3.62,5.9,3C133,18.61,129.26,15.22,128.57,14.81Z"/></svg>