<svg id="Layer_1" data-name="Layer 1" xmlns="http://www.w3.org/2000/svg" viewBox="0 0 105.76 51.99"><defs><style>.cls-1{fill:#080307;}.cls-2,.cls-8{fill:#fff;}.cls-2{opacity:0.25;}.cls-3{fill:#2a304a;}.cls-4{fill:#161416;}.cls-5{fill:#e3793d;}.cls-6{fill:#50311f;}.cls-7{fill:#2c73e7;}.cls-8{opacity:0.37;}</style></defs><title>SkinksSmall</title><path class="cls-1" d="M84.71,24.35a9.28,9.28,0,0,1,3.2-.53,30.29,30.29,0,0,1-4.24,1.7,2.51,2.51,0,0,1,1.85.48l-4,.62a7.35,7.35,0,0,1-2.48.1c-.39-.07-1-.1-1,.3a.67.67,0,0,0,.06.32l1.17,3.06c.38,1,1.07,1.89,1,3a1.52,1.52,0,0,1-.17.75c-.18.3-.83.3-1.18.25-1.08-3-3.89-5.22-4.74-8.31a1.57,1.57,0,0,1,.21-1.58,1.75,1.75,0,0,1,1.33-.27l1.28.08.47,0a5.33,5.33,0,0,0,3-.37,3.77,3.77,0,0,0,1.14-1.05,17,17,0,0,1,1.58-2.09,4.89,4.89,0,0,1-1,2.65c2.1-.77,3.49-2.72,5.33-4-.57,1.79-2.86,2.54-3.5,4.3A26,26,0,0,1,89.2,22a2.45,2.45,0,0,1-1.11.81Z"/><path class="cls-2" d="M77.3,27.74a3.25,3.25,0,0,0-1-2.56,1.26,1.26,0,0,0-.68-.38.58.58,0,0,0-.64.35.86.86,0,0,0,.24.73,7.41,7.41,0,0,1,1.07,1.58c.12.3.19.61.32.9a1.15,1.15,0,0,0,.64.67c.17-.19.05-.32,0-.53A2.61,2.61,0,0,1,77.3,27.74Z"/><path class="cls-3" d="M47.21,33a4,4,0,0,1-.59,1h0a1.75,1.75,0,0,1-.49.39,3.05,3.05,0,0,1-1,.27l-1.9.29a.94.94,0,0,1-.67-.06c-.35-.23-.23-.76-.08-1.15l0-.07.83-2.11.52-1.33h0l0,0a3.25,3.25,0,0,1-2.09.76c-.76,0-1.51-.08-2.26-.12a22.33,22.33,0,0,0-5.63.66,5.72,5.72,0,0,0-2.17.76,1.33,1.33,0,0,1,.09-.45h0a2,2,0,0,1,.88-1,5.19,5.19,0,0,1,1.71-.49l4.07-.67,0,0a5.81,5.81,0,0,0-2.33-1.73,17.48,17.48,0,0,0-3.55-1.54,22.09,22.09,0,0,1-5.69-2.65,1.49,1.49,0,0,0-.95-.34,1.44,1.44,0,0,1,.58-.21,2.29,2.29,0,0,1,1.08.12,12.91,12.91,0,0,1,1.54.78,12.79,12.79,0,0,0,2.66.9q1.8.46,3.6.87a2.29,2.29,0,0,1-.81-.48c-.33-.27-.66-.59-.9-.76l-1.79-1.32c-.34-.26-1.27-.69-1.22-1.2a.52.52,0,0,1,.11-.29c.25-.3.85-.13,1.16,0a15.87,15.87,0,0,1,2.4,1.61l0,0,.11-.05a1,1,0,0,1,.79.22l2,1.26a.58.58,0,0,0,.32.12,1.13,1.13,0,0,0,.27-.08c.4-.12.78.19,1.08.49l1.46,1.45.57.56a7,7,0,0,0,3.15-1.22h0l.17-.1A5.74,5.74,0,0,1,47,25.22a2.69,2.69,0,0,1,.76.1,1.28,1.28,0,0,1,.92.76,5.17,5.17,0,0,1-.23,3.82A27.71,27.71,0,0,1,47.21,33Z"/><path class="cls-2" d="M45.17,26.75c-.06.06-.11.16-.06.22s.1.05.15.07a.48.48,0,0,1,.3.43,1.27,1.27,0,0,1-.11.54,18.54,18.54,0,0,1-1,2.18,4.59,4.59,0,0,1-.42.7,9.17,9.17,0,0,1-.7.72,4.61,4.61,0,0,0-.84,1.2,1.08,1.08,0,0,0-.14.47.43.43,0,0,0,.24.4c.21.09.43-.05.61-.19L43.8,33c.2-.15.42-.35.39-.6,0-.07,0-.13,0-.2a.75.75,0,0,1,.26-.55,9.55,9.55,0,0,0,1-1.43l-.52.35c0-.2.12-.37.26-.52a5.6,5.6,0,0,0,1.17-2.83,1.22,1.22,0,0,0,0-.45C46.23,26.12,45.49,26.4,45.17,26.75Z"/><path class="cls-1" d="M47.21,33a4,4,0,0,1-.59,1h0l-2-.24a3.62,3.62,0,0,1,.73-1.13,11.62,11.62,0,0,0,2.42-5.42,2.08,2.08,0,0,0-.17-1.51,1.38,1.38,0,0,0-.65-.49,2.69,2.69,0,0,1,.76.1,1.28,1.28,0,0,1,.92.76,5.17,5.17,0,0,1-.23,3.82A27.71,27.71,0,0,1,47.21,33Z"/><path class="cls-1" d="M43.88,30.22l0,0a3.25,3.25,0,0,1-2.09.76c-.76,0-1.51-.08-2.26-.12a22.33,22.33,0,0,0-5.63.66,5.72,5.72,0,0,0-2.17.76,1.33,1.33,0,0,1,.09-.45h0a6.16,6.16,0,0,1,2.77-.86l1.46-.21,1.63-.23a8.33,8.33,0,0,1,2.48-.1,3.18,3.18,0,0,0,.69.08,2.27,2.27,0,0,0,.55-.13A8.11,8.11,0,0,0,43,29.68a2.75,2.75,0,0,0,1.19-1.25c.11-.26.19-.56.44-.69a.21.21,0,0,1,.23,0,.27.27,0,0,1,0,.26A4.84,4.84,0,0,1,43.88,30.22Z"/><path class="cls-1" d="M30.72,22.09a.52.52,0,0,1,.11-.29,9.19,9.19,0,0,0,2,1.41,19,19,0,0,1,3.66,2.9,10.82,10.82,0,0,1-1.85-.74c-.33-.27-.66-.59-.9-.76l-1.79-1.32C31.59,23,30.67,22.6,30.72,22.09Z"/><path class="cls-1" d="M36.77,25.09a6.54,6.54,0,0,1-2.38-1.64l0,0,.11-.05a.94.94,0,0,0,.17.25,3.23,3.23,0,0,0,.89.56A6.14,6.14,0,0,1,36.77,25.09Z"/><path class="cls-1" d="M38.88,29.53a1,1,0,0,1-.4.1,5.81,5.81,0,0,0-2.33-1.73,17.48,17.48,0,0,0-3.55-1.54,22.09,22.09,0,0,1-5.69-2.65,1.49,1.49,0,0,0-.95-.34,1.44,1.44,0,0,1,.58-.21c1.25.63,2.5,1.25,3.76,1.85a12.67,12.67,0,0,0,1.52.64c.52.17,1.07.28,1.6.43a14.57,14.57,0,0,1,3.38,1.5A4.81,4.81,0,0,1,38.88,29.53Z"/><path class="cls-2" d="M44.15,26.21a6.37,6.37,0,0,1-2,1.64,7.33,7.33,0,0,1-1,.37,3.24,3.24,0,0,1-.81.18,2.61,2.61,0,0,1-.78-.11,12,12,0,0,1-3.23-1.62c.54-.08,1.07.3,1.61.26a.32.32,0,0,0,.19-.07.28.28,0,0,0,.07-.26,1.13,1.13,0,0,0-.59-.67l-.73-.48c.68,0,1.22.64,1.9.75a1.22,1.22,0,0,0-.33-.68c0-.05.09,0,.13,0a4,4,0,0,1,.92.84,1.59,1.59,0,0,0,.92.53l.57.56A7,7,0,0,0,44.15,26.21Z"/><path class="cls-2" d="M81.92,25.31a2.9,2.9,0,0,1-1.51.32c-.75-.11-1.29-.76-2-1a9.12,9.12,0,0,0-1.1-.24L77,24.28l.47,0a5.33,5.33,0,0,0,3-.37,3.77,3.77,0,0,0,1.14-1.05c0,.24,0,.48,0,.67s0,.41.22.48c-.1,0-.1.18,0,.24a.26.26,0,0,0,.28,0,2.7,2.7,0,0,0,.23-.18.7.7,0,0,1,.59-.11c-.13.27-.42.4-.66.58S81.77,25.06,81.92,25.31Z"/><path class="cls-4" d="M99.94,32.68c-1.5.64-2.7,1-2.7,1l-.05,0A39.79,39.79,0,0,1,89.7,36.7a18.92,18.92,0,0,0-7.16,1.71l-.25.12c-.57.28-.89.47-.89.47s1.55,1.81-.58,1.73a6.33,6.33,0,0,0-.76,0C77,41,68.81,42.91,62.23,44.09c-3.5.63-7.66-.14-11-1.1-.76-.22-1.48-.44-2.14-.67-1.56-.53-2.8-1-3.51-1.33l-.65-.29s-.86.08-2.33.13c-5.52.22-19.62.19-28.69-5a32.8,32.8,0,0,1-9.22-7.28C1.33,24.53.54,20.46.06,16-.7,9,5.7,4.24,5.7,4.24A21.19,21.19,0,0,1,25.05,1.07C35,4.29,36.52,9,36.52,9s.75,2.38-1.2.31-5.8-6.61-15.57-7.2A17.1,17.1,0,0,0,5.07,8.65S.61,15,4.29,21.8A20,20,0,0,0,9,28.07c2.13,1.77,4.68,2.82,8.57,4.61,7,3.2,15.33,2.4,20.1,1.28,1.53-.36,3-.66,4.36-.91l.32-.06.44-.08,1.32-.23,1.41-.23,2.08-.33L50,31.72l.14,0a72.84,72.84,0,0,1,14.28-1,65.15,65.15,0,0,0,7.48-.08c1.07-.06,1.93-.12,2.53-.12a5.52,5.52,0,0,0,.89-.09c.32-.05.69-.13,1.09-.23.72-.18,1.56-.42,2.44-.71a32,32,0,0,0,6.55-3c3.59-2.26,9.12-3,9.12-3a4.91,4.91,0,0,1,5.06.27,10.12,10.12,0,0,0,1.77.82c.9.36,2,.75,2.76,1.07l.51.2a2,2,0,0,1,1.11,2,3.27,3.27,0,0,1,0,.55C105.38,30.07,102.3,31.68,99.94,32.68Z"/><path class="cls-5" d="M105.24,27.33a.35.35,0,0,1-.25.34c-.2,0-.38-.12-.57-.19a1.07,1.07,0,0,0-.86.15,2.88,2.88,0,0,1-.81.39,2.12,2.12,0,0,1-1.2-.27,6.53,6.53,0,0,0-4.63-.57,1.73,1.73,0,0,1-.42.12,2.48,2.48,0,0,1-.44,0,1.65,1.65,0,0,0-1.29.45.58.58,0,0,1-.22.16c-.2.06-.38-.14-.57-.22-.36-.14-.73.12-1.09.25a3.08,3.08,0,0,1-2.27-.42l2.92-.16a1.3,1.3,0,0,0,.32,0c.3-.09.5-.39.79-.52.45-.19,1,.08,1.45.05a2.88,2.88,0,0,0,.56-.11,7.07,7.07,0,0,1,4.08.19,3.68,3.68,0,0,0,1.81.4,8.67,8.67,0,0,0,1.05-.38,1,1,0,0,1,1,.18s.36-.17.43-.14S105.24,27.23,105.24,27.33Z"/><path class="cls-5" d="M104.14,25.67l-.34,0c-1,0-1.95-.55-3-.54a7.45,7.45,0,0,0-1.28.2,8.11,8.11,0,0,1-2.55.07,4,4,0,0,0-1.72,0,2.69,2.69,0,0,1-.47.14,1.49,1.49,0,0,1-.41,0l-1.17-.18a.12.12,0,0,1-.09,0,.11.11,0,0,1,0-.11.89.89,0,0,1,.85-.31A6.43,6.43,0,0,0,95,25c.21,0,.41-.07.62-.1a9,9,0,0,1,2,.28A5.9,5.9,0,0,0,99.31,25l1.25-.26a4.63,4.63,0,0,1,.77-.13h0C102.27,25,103.33,25.35,104.14,25.67Z"/><path class="cls-5" d="M91.25,26.23a1.86,1.86,0,0,1-.38.29.18.18,0,0,1-.11,0,.14.14,0,0,1-.1-.13.38.38,0,0,1,.05-.17q.12-.24.26-.47a.61.61,0,0,1,.12-.16.57.57,0,0,1,.14-.08,2.33,2.33,0,0,1,.65-.17c.46-.05.33.13.05.32A7.17,7.17,0,0,0,91.25,26.23Z"/><path class="cls-5" d="M89.67,26.68a.48.48,0,0,1,.15-.06.5.5,0,0,1,.35,0,.48.48,0,0,1,.21.36,2.37,2.37,0,0,1,0,.37.43.43,0,0,1-.06.27.45.45,0,0,1-.41.12c-.28,0-.66.12-.67-.32A1.47,1.47,0,0,1,89.67,26.68Z"/><path class="cls-5" d="M97.36,30.29a1.61,1.61,0,0,1-.52.08c-.13,0-.27-.05-.4-.05a1.6,1.6,0,0,0-.46.09,25.94,25.94,0,0,1-3.39.41,15.7,15.7,0,0,0-3.08.87L88,32.24a.3.3,0,0,1,0-.39,1,1,0,0,1,.36-.23,7.56,7.56,0,0,0,1.26-.73,3.25,3.25,0,0,1,.45-.29,2.67,2.67,0,0,1,.53-.18,9.8,9.8,0,0,1,1.31-.27c.83-.1,1.68,0,2.51-.09a10.48,10.48,0,0,1,1.15-.17c.25,0,.5,0,.76,0,1.4,0,2.57-1.21,4-1.25a5,5,0,0,1,.68,0c.26,0,1,.21.46.44s-.94.26-1.39.39Z"/><path class="cls-6" d="M99.94,32.68l-1.66.45c-.19.05-.37.1-.56.13A2.86,2.86,0,0,1,95.8,33a1.23,1.23,0,0,1-1.06.48c-.35,0-.72-.21-1-.06s-.38.33-.61.31-.26-.11-.39-.12c-.31,0-.5.46-.8.4-.08-.16-.23-.29-.23-.47s.29-.4.54-.39a6.85,6.85,0,0,0,.74.1,5.49,5.49,0,0,0,.73-.21,4.76,4.76,0,0,1,.53,0,8.49,8.49,0,0,0,1-.21c1.27-.27,2.63.16,3.87-.21a3.13,3.13,0,0,0,1.39-.85,13.08,13.08,0,0,1,1.16-1.36,8.87,8.87,0,0,1,2.35-.94,4.15,4.15,0,0,0,1.84-1.49,3.27,3.27,0,0,1,0,.55C105.38,30.07,102.3,31.68,99.94,32.68Z"/><path class="cls-5" d="M90.22,34.24s-.65.13-1.77.42c-.56.14-1.24.33-2,.56s-1.63.52-2.56.87c-.46.17-.94.37-1.42.59l-.36.17-.37.18-.74.39c-.5.27-1,.53-1.57.78l-.83.37-.86.35-.44.17-.44.17-.45.17-.45.16L75,39.9l-.93.29-.47.14-.47.13-1,.26-1,.24-.48.12-.49.11-1,.2-.24.05-.24,0-.49.09-1,.17-1,.14-1,.13-1,.1-.95.1-.94.06-.92.06-.91,0c-.6,0-1.18,0-1.75,0H57.31c-.54,0-1.05-.1-1.54-.16-1-.13-1.89-.29-2.67-.47s-1.47-.35-2-.53l-.39-.12L50.34,41l-.29-.1-.24-.1-.44-.18.45.16.24.09.3.09.35.11.4.11c.56.16,1.24.31,2,.46s1.69.28,2.67.39c.49.05,1,.1,1.54.13H59c.57,0,1.15,0,1.74-.06l.9,0,.92-.07.93-.07.94-.1,1-.11,1-.14,1-.14,1-.17.49-.09.24,0,.24-.05,1-.2.48-.1.48-.12,1-.23.95-.26.47-.13.47-.14.93-.28.91-.3.45-.15.44-.16.44-.16.43-.17.85-.34.83-.36c.54-.24,1.07-.49,1.57-.75l.76-.37.38-.17.37-.16q.74-.32,1.45-.57c.94-.34,1.81-.6,2.59-.81s1.46-.37,2-.5,1-.21,1.32-.27Z"/><path class="cls-5" d="M90.19,31.28c-.1,0-10,4.25-13.27,5.41s-16.56,3.85-21.39,2.67c-3.63-.89-11.26-.43-14.31-.2l-1.31.11a60.68,60.68,0,0,1-13.15-.55A46.46,46.46,0,0,1,15.92,35.8l-.59-.25A28,28,0,0,1,5.09,28.22l.42-.36c5.75,6.72,14.77,9.31,21.32,10.31a60.2,60.2,0,0,0,13,.55l1.5-.13c3.19-.24,10.62-.67,14.31.23,4.65,1.14,17.9-1.54,21.08-2.65S89.88,30.82,90,30.77Z"/><path class="cls-5" d="M89.77,27.48a39.63,39.63,0,0,0-6.76,3c-2,1.41-9.79,3.61-14.59,4.13l-2.23.25a79.86,79.86,0,0,1-14.34.61,68.78,68.78,0,0,0-11.45.4c-.64.09-1,.15-1,.15a45.4,45.4,0,0,1-8,.7A39.78,39.78,0,0,1,16.35,34q-.59-.25-1.18-.52c-5.73-2.69-8.56-5.41-9.92-7.22A7.87,7.87,0,0,1,3.66,23c0-.1,0-.16,0-.17l.4,0h.15A6.93,6.93,0,0,0,5.73,26c1.33,1.74,4.08,4.37,9.67,7a38.21,38.21,0,0,0,16,3.16,45,45,0,0,0,7.87-.68s.38-.07,1.09-.17a69.68,69.68,0,0,1,11.48-.4,79.37,79.37,0,0,0,14.25-.6l2.24-.25c5.12-.55,12.54-2.78,14.33-4A39.25,39.25,0,0,1,89.59,27Z"/><path class="cls-5" d="M75.33,30.39a33.13,33.13,0,0,1-6.19,1.12c-2,.14-3.26.34-4.37.52a29.86,29.86,0,0,1-8.3.24A81,81,0,0,0,42.05,33c2.86-.53,5.44-.9,8-1.32a52.39,52.39,0,0,1,6.5,0,29.09,29.09,0,0,0,8.17-.23c1.12-.18,2.4-.38,4.42-.52a27,27,0,0,0,2.8-.36c1.07-.06,1.93-.12,2.53-.12A5.52,5.52,0,0,0,75.33,30.39Z"/><path class="cls-7" d="M35.33,9.26c-1.94-2.08-5.8-6.61-15.57-7.2A17.1,17.1,0,0,0,5.07,8.65S.61,15,4.29,21.8A20,20,0,0,0,9,28.07a12.58,12.58,0,0,1-2.38-1.71c.93,2,3.25,2.9,4.32,4.78l-4.34-3a1.8,1.8,0,0,0,.8,1.63A2.77,2.77,0,0,1,8.57,31.3a14.92,14.92,0,0,0-3.73-2.65l-.17-.08C1.33,24.53.54,20.46.06,16-.7,9,5.7,4.24,5.7,4.24A21.19,21.19,0,0,1,25.05,1.07C35,4.29,36.52,9,36.52,9S37.27,11.33,35.33,9.26Z"/><path class="cls-6" d="M97.19,33.75A39.79,39.79,0,0,1,89.7,36.7a18.92,18.92,0,0,0-7.16,1.71.1.1,0,0,1,0,0c0-.25.28-.41.5-.53a11.64,11.64,0,0,1,3.15-1.29c1.27-.26,2.67-.14,3.74-.86a.65.65,0,0,1,.26-.13c.16,0,.31.09.47.14a1,1,0,0,0,.81-.15,5.84,5.84,0,0,1,.73-.42c.41-.16.92-.13,1.21-.45a.27.27,0,0,0,.08-.27s-.05-.08-.07-.12.12-.23.26-.27c.75-.17,1.58.09,2.28-.24,0,.1,0,.21,0,.31A1.52,1.52,0,0,1,97.19,33.75Z"/><path class="cls-1" d="M94.39,41.75l-.27.09a1.93,1.93,0,0,1,2,1.44,1.56,1.56,0,0,1-.44,1.8,3.39,3.39,0,0,0-.62-1.92,1.33,1.33,0,0,0-.63-.53,1.57,1.57,0,0,0-.72,0,15,15,0,0,0-3.33.89,7.65,7.65,0,0,0,1.6,0,2.9,2.9,0,0,1,1.56.29,1.25,1.25,0,0,1,.65,1.34s-.13,0-.15-.07a.84.84,0,0,1,0-.19c0-.22-.24-.31-.47-.34h-.26a23,23,0,0,1-3.91-.15,4.6,4.6,0,0,0-.67-.05,1.68,1.68,0,0,0-.33,0c-.18,0-.35.12-.52.16a4.78,4.78,0,0,1-1,0,8,8,0,0,0-1.85.36c-.26.07-.52.14-.78.19a2.63,2.63,0,0,1-2.5-.61,3.8,3.8,0,0,1-.6-1.34,11.94,11.94,0,0,0-1.93-3.64.84.84,0,0,1-.18-.33.78.78,0,0,1,.28-.63,2.13,2.13,0,0,1,2.05-.87c.66.22,1,.94,1.31,1.55a9.71,9.71,0,0,0,1.11,1.68,1.83,1.83,0,0,0,.65.56,1.4,1.4,0,0,0,.66.09c.22,0,.44-.06.65-.09a16.6,16.6,0,0,1,2.2,0,4,4,0,0,0,2-.7A8.13,8.13,0,0,1,92,40a2.56,2.56,0,0,1-1.31,1.2l3.56-.93a2,2,0,0,1,.8-.09.82.82,0,0,1,.23.07.63.63,0,0,1,.33.35l0,.07,1.18-.09a1,1,0,0,1,.66.09.42.42,0,0,1,.16.23.3.3,0,0,1-.09.34A10.76,10.76,0,0,0,94.39,41.75Z"/><path class="cls-2" d="M96.11,43.28a1.56,1.56,0,0,1-.44,1.8,3.39,3.39,0,0,0-.62-1.92,1.33,1.33,0,0,0-.63-.53,1.57,1.57,0,0,0-.72,0,15,15,0,0,0-3.33.89,7.65,7.65,0,0,0,1.6,0,2.9,2.9,0,0,1,1.56.29,1.25,1.25,0,0,1,.65,1.34s-.13,0-.15-.07a.84.84,0,0,1,0-.19c0-.22-.24-.31-.47-.34a.52.52,0,0,0-.28-.48,1.23,1.23,0,0,0-.56,0A2.58,2.58,0,0,1,92,44a7,7,0,0,0-2.7,0,.89.89,0,0,0-.58.29l0,.06a1.68,1.68,0,0,0-.33,0c-.18,0-.35.12-.52.16a4.78,4.78,0,0,1-1,0,8,8,0,0,0-1.85.36H85c-.45,0-.95.19-1.31-.07s-.35-.59-.56-.86L83,44c-.17-.18-.41-.28-.58-.47a.79.79,0,0,1,.11-1.09.49.49,0,0,1,.25-.11c.36,0,.55.43.89.54a.49.49,0,0,0,.2,0c.33,0,.6-.39.8-.69l.38-.57c.22,0,.44-.06.65-.09a16.6,16.6,0,0,1,2.2,0,4,4,0,0,0,2-.7A8.13,8.13,0,0,1,92,40a2.56,2.56,0,0,1-1.31,1.2l3.56-.93a2,2,0,0,1,.8-.09.82.82,0,0,1,.23.07,1.13,1.13,0,0,1-.41.18,29.83,29.83,0,0,0-3.77,1.34,24.44,24.44,0,0,0,3.25-.91c.35-.07.72-.09,1.07-.19l.19-.06,0,.07,1.18-.09a1,1,0,0,1,.66.09.42.42,0,0,1,.16.23,1.61,1.61,0,0,1-.45,0,12.73,12.73,0,0,0-5,1,7.73,7.73,0,0,0-1.17.47,23.9,23.9,0,0,1,2.75-.57,3.2,3.2,0,0,1,.65,0l-.27.09A1.93,1.93,0,0,1,96.11,43.28Z"/><path class="cls-2" d="M89.1,42.68a1.57,1.57,0,0,0-.33,0,.61.61,0,0,0-.47.44.27.27,0,0,0,0,.22.32.32,0,0,0,.15.1,1.81,1.81,0,0,0,1.06.09.68.68,0,0,0,.2-.07c.15-.09.23-.27.36-.4s.34-.21.38-.39-.08-.19-.22-.18A9,9,0,0,1,89.1,42.68Z"/><path class="cls-2" d="M86.87,43a3.89,3.89,0,0,1-2.57,1.1,5.5,5.5,0,0,1-.65,0,3.85,3.85,0,0,1-.56-.08L83,44c-.17-.18-.41-.28-.58-.47a.79.79,0,0,1,.11-1.09.49.49,0,0,1,.25-.11c.36,0,.55.43.89.54a.49.49,0,0,0,.2,0,.54.54,0,0,0,.38.22,1.46,1.46,0,0,0,.53-.06,2.33,2.33,0,0,0,.6-.2c.21-.11.37-.28.57-.41a.7.7,0,0,1,.67-.09.62.62,0,0,1,.28.34.33.33,0,0,1,0,.19A.37.37,0,0,1,86.87,43Z"/><path class="cls-8" d="M83.61,32.95c2-1.51,4.68-1.31,7.14-1.62a32,32,0,0,0,5.69-1.43,1.72,1.72,0,0,0,1-.57c.21-.32.09-.87-.29-.92a.8.8,0,0,1-1,.71,1.39,1.39,0,0,0-1.09-1c.49.24.2,1.06-.31,1.24a5.13,5.13,0,0,1-1.62,0,7.35,7.35,0,0,1-1.24.06c-.41-.06-.83-.41-.77-.82a2.73,2.73,0,0,1-.16,1.3l-.75-1a1.27,1.27,0,0,1-.08,1.37,2.69,2.69,0,0,1-.86-1.38,2.25,2.25,0,0,1-.32,1.59,3.09,3.09,0,0,0-.76-1.21,2.59,2.59,0,0,1-.05,1.28,3.58,3.58,0,0,0-.83-1.24l.06,1-1-.83.15,1a2.94,2.94,0,0,0-1-.55l-.06.44L81.6,31.9a48.37,48.37,0,0,1-5.15,1.69c-1.38.34-2.79.56-4.19.78L57.61,36.63a30.13,30.13,0,0,1-4.26.45c-4.71.05-9.34-.61-14.06-.46-1.45,0-2.9.12-4.35.16-6.9.18-14-.58-20.18-3.61S3.35,24.59,2,17.82a17.25,17.25,0,0,1-.12-3.3A10.92,10.92,0,0,1,2,12.77a8.51,8.51,0,0,1,.51-1.66c1.65-4.12,5-7.74,9.25-8.89A12.83,12.83,0,0,0,2.48,9.3a14.78,14.78,0,0,0,.94,14.05A28.89,28.89,0,0,0,16.33,34.72c5.44,2.26,11.36,3,17.23,3.5a31.91,31.91,0,0,0,4.07.12c1.23-.06,2.45-.25,3.68-.27,2.73,0,5.41.79,8.13,1,2.54.17,5.08.51,7.6.86a35.75,35.75,0,0,0,3.85.39A35.81,35.81,0,0,0,69.8,39a33.33,33.33,0,0,0,4.58-1.28A35.51,35.51,0,0,0,83.61,32.95Z"/><path class="cls-7" d="M15.17,33.51c-5.73-2.69-8.56-5.41-9.92-7.22A7.87,7.87,0,0,1,3.66,23,2.14,2.14,0,0,1,4,22.85h.15A6.93,6.93,0,0,0,5.73,26c1.33,1.74,4.08,4.37,9.67,7a38.21,38.21,0,0,0,16,3.16,45,45,0,0,0,7.87-.68s.38-.07,1.09-.17a3.12,3.12,0,0,0,0,.56c-.64.09-1,.15-1,.15a45.4,45.4,0,0,1-8,.7A39.78,39.78,0,0,1,16.35,34Q15.76,33.78,15.17,33.51Z"/><path class="cls-7" d="M41.22,39.16l-1.31.11a60.68,60.68,0,0,1-13.15-.55A46.46,46.46,0,0,1,15.92,35.8l-.59-.25A28,28,0,0,1,5.09,28.22l.42-.36c5.75,6.72,14.77,9.31,21.32,10.31a60.2,60.2,0,0,0,13,.55l1.5-.13A1.69,1.69,0,0,1,41.22,39.16Z"/><path class="cls-1" d="M51.68,45.51a4.39,4.39,0,0,1-1.47,1.55,11,11,0,0,1-1.69,1,15.08,15.08,0,0,1-2.7.95,3.3,3.3,0,0,0-1.19.46,5.22,5.22,0,0,0-.9,1.13A3.63,3.63,0,0,1,41.23,52a.54.54,0,0,0,.25-.3,5.52,5.52,0,0,1-4.73-.85l.77.05L33,49.17l5.45.88A1.83,1.83,0,0,0,40,49.83a7.69,7.69,0,0,1-3.07-1,53.16,53.16,0,0,1-5.05-3c-.66-.44-1.38-1-1.39-1.81a6.12,6.12,0,0,1,1.82.84l2.81,1.7a10.46,10.46,0,0,0,3.41,1.54A3.55,3.55,0,0,0,42,47a9,9,0,0,1-4.55-3.84l3.16,2.12a3.62,3.62,0,0,0,2.31.86,3.31,3.31,0,0,0,1.05-.36l.54-.27a21.64,21.64,0,0,0,2.36-1.43,2,2,0,0,1-.85-.39A24.75,24.75,0,0,0,43.39,42c-.59-.29-1.14-.79-.64-1.54a2,2,0,0,1,1.67-.72,8.51,8.51,0,0,1,4.45,1.74l1.75,1.1a3.26,3.26,0,0,1,1,.88A2.1,2.1,0,0,1,51.68,45.51Z"/><path class="cls-3" d="M49.55,46.75a5.85,5.85,0,0,0-1,1.29,15.08,15.08,0,0,1-2.7.95,3.3,3.3,0,0,0-1.19.46,5.22,5.22,0,0,0-.9,1.13A3.63,3.63,0,0,1,41.23,52a.54.54,0,0,0,.25-.3,5.52,5.52,0,0,1-4.73-.85l.77.05L33,49.17l5.45.88A1.83,1.83,0,0,0,40,49.83a7.69,7.69,0,0,1-3.07-1,53.16,53.16,0,0,1-5.05-3c-.66-.44-1.38-1-1.39-1.81a6.12,6.12,0,0,1,1.82.84l2.81,1.7a10.46,10.46,0,0,0,3.41,1.54A3.55,3.55,0,0,0,42,47a9,9,0,0,1-4.55-3.84l3.16,2.12a3.62,3.62,0,0,0,2.31.86,3.31,3.31,0,0,0,1.05-.36l.54-.27a2.7,2.7,0,0,0,1.54,0,7.12,7.12,0,0,0,1.58-.48A2.74,2.74,0,0,0,48.82,44c.11-.19.35-.17.28-.38a2.55,2.55,0,0,0-1.19-1.39c-.45-.24-1-.34-1.44-.54a1.69,1.69,0,0,1-1.06-1,4.34,4.34,0,0,1,2.38.78,12.21,12.21,0,0,1,2.28,1.79,2.28,2.28,0,0,1,.88,1.92C50.79,45.84,50.08,46.26,49.55,46.75Z"/><path class="cls-1" d="M48.25,46.45a9.65,9.65,0,0,1-1.81.73,4.13,4.13,0,0,0-1.68,1c-.17.17-.33.39-.56.43s-.65-.34-.6-.7A1.31,1.31,0,0,1,44.2,47a21.87,21.87,0,0,1,3.06-1.29c.29-.14,2-1.36,2.21-1.1C49.89,45,48.5,46.29,48.25,46.45Z"/></svg>