<svg xmlns="http://www.w3.org/2000/svg" viewBox="0 0 87.79 110.09"><defs><style>.cls-1{isolation:isolate;}.cls-2{fill:#42200e;}.cls-3{fill:#6b3517;}.cls-4{fill:#804d1b;}.cls-5{fill:#ad6825;}.cls-17,.cls-6{fill:#dcceb4;}.cls-19,.cls-7,.cls-8{fill:#d97f8b;}.cls-12,.cls-8{opacity:0.5;}.cls-12,.cls-15,.cls-19,.cls-8{mix-blend-mode:multiply;}.cls-10,.cls-9{fill:#776966;}.cls-10{opacity:0.2;}.cls-10,.cls-17{mix-blend-mode:screen;}.cls-11{fill:#5c514f;}.cls-13{fill:#5f5451;}.cls-14{fill:#3a1800;}.cls-15{fill:#1d1d1b;}.cls-16{fill:#fefefe;}.cls-17{opacity:0.4;}.cls-18{fill:#d96a79;}.cls-19{opacity:0.3;}</style></defs><title>possum</title><g class="cls-1"><g id="Layer_1" data-name="Layer 1"><path class="cls-2" d="M18.09,38.57a48.38,48.38,0,0,1-7.48,1,30.78,30.78,0,0,0-4.88.22,6,6,0,0,0-2.51,1C2.54,41.28,2,41.92,1.15,42a7.07,7.07,0,0,0,.62,2.72,2.14,2.14,0,0,0-1.55.92,2.1,2.1,0,0,0-.14.86L0,50a1.46,1.46,0,0,0,.05.53A3.2,3.2,0,0,0,.33,51a2.8,2.8,0,0,1,.24,1.39c0,.85.19,1.68,1.16,1.83.8.13,1.57-.49,2.22-.9a21.06,21.06,0,0,1,5.6-2.19A205,205,0,0,1,33.4,45.38c3.64-.58,7.3-1,11-1.27,6.36-.54,12.85-.85,19,.66a32.93,32.93,0,0,1,7.22,2.7,4.16,4.16,0,0,0-.36-4.76c1.57-.81,3.24-1.7,4.07-3.27a3.35,3.35,0,0,0-.4-3.74c-1.06-1-3.37-.63-4.74-.68q-6.2-.27-12.4-.2a229.06,229.06,0,0,0-24.75,1.62Q25,37.29,18.09,38.57Z"/><path class="cls-3" d="M18.09,38.57a48.38,48.38,0,0,1-7.48,1,30.78,30.78,0,0,0-4.88.22,5.39,5.39,0,0,0-2.24.82C2.74,41.2,3,42.16,3.36,43a10.65,10.65,0,0,1,.86,1.9.83.83,0,0,1,0,.28,1,1,0,0,1-.14.35L3.22,47.1a2,2,0,0,0-.28.71c0,.19,0,.37,0,.56-.11.95-1.42,1.46-1.41,2.41a2.71,2.71,0,0,0,.26.9,3.45,3.45,0,0,1-.18,2.77,9.8,9.8,0,0,0,1.1-.38c.43-.23.83-.46,1.25-.72a21.06,21.06,0,0,1,5.6-2.19A205,205,0,0,1,33.4,45.38c3.64-.58,7.3-1,11-1.27,6.36-.54,12.85-.85,19,.66a32.92,32.92,0,0,1,4.1,1.29q1,.38,1.95.83c.61.28,1.18.52,1.81.75V46.06a6.56,6.56,0,0,1,0-.79,8.18,8.18,0,0,1,.32-1.85,6.27,6.27,0,0,1,1.06-2.1,9.35,9.35,0,0,0,1.67-1.88,3.35,3.35,0,0,0-.4-3.74c-1.06-1-3.37-.63-4.74-.68q-6.2-.27-12.4-.2a229.06,229.06,0,0,0-24.75,1.62Q25,37.29,18.09,38.57Z"/><path class="cls-4" d="M72.68,41.33a6.27,6.27,0,0,0-1.06,2.1,4,4,0,0,0-.18.68,32.59,32.59,0,0,0-14.09-3.73A63.38,63.38,0,0,0,41.53,42c-2.46.59-4.89,1.25-7.37,1.77-1.4.3-2.81.54-4.22.75l-1.12.16-.36,0-1.64.21c-2.9.37-5.8.72-8.67,1.26a59.61,59.61,0,0,0-7.59,2.07C8.15,49.05,5.82,50,3.45,51c-.57.23-1.14.45-1.71.65a2.41,2.41,0,0,1-.24-.84c0-1,1.3-1.46,1.41-2.41,0-.19,0-.37,0-.56a2,2,0,0,1,.28-.71l.89-1.61a1,1,0,0,0,.14-.35.83.83,0,0,0,0-.28A10.65,10.65,0,0,0,3.36,43c-.37-.79-.62-1.75.13-2.33a5.39,5.39,0,0,1,2.24-.82,30.78,30.78,0,0,1,4.88-.22,48.38,48.38,0,0,0,7.48-1q7-1.28,14-2.12a229,229,0,0,1,24.75-1.62q6.2-.07,12.4.2c1.37.06,3.68-.32,4.74.68a3.35,3.35,0,0,1,.4,3.74A9.34,9.34,0,0,1,72.68,41.33Z"/><path class="cls-5" d="M59.86,35.67a58.07,58.07,0,0,0-16.32,1.21c-3,.62-6,1.38-9,2a36.52,36.52,0,0,1-4.07.6c-1.47.13-2.93.13-4.41.15-3,.05-6,.13-9,.33s-6,1.21-9,2c-.46.12-.93.24-1.4.34a.55.55,0,0,0-.35,0c-.34,0-.79.1-.88.11a8.3,8.3,0,0,0-2.13.49C2.86,42.23,2.59,41.6,3,41c2-1.68,5-1.35,7.65-1.42a48.38,48.38,0,0,0,7.48-1q7-1.28,14-2.12a229,229,0,0,1,24.75-1.62q6.2-.07,12.4.2c1.37.06,3.68-.32,4.74.68a3.27,3.27,0,0,1,.6,3.28A47.64,47.64,0,0,0,59.86,35.67Z"/><path class="cls-6" d="M10.22,71.94,11,68.43c-.57,2.56,0,5.16.38,7.7.49,3.13.18,6.15,1.13,9.2s.7,6.45,1.21,9.56l.31-3a33.66,33.66,0,0,0,3.65,13c1.25,2.4,3.51,5.14,6.43,5.21a5.5,5.5,0,0,0,2.75-.59c3-1.62,1.95-5.2,1.85-7.91a49.34,49.34,0,0,0-.6-5.84q-.27-1.72-.58-3.44c-.1-.56-.15-2.48-.55-2.85l.64.59A43.53,43.53,0,0,1,24.9,72.8a5.72,5.72,0,0,0,1.28,1.74c-1.25-4-.42-7.78-.33-11.83.09-4.32.06-8.63,0-13a5.34,5.34,0,0,1,.89,2.64A23,23,0,0,0,27,43.18l.79,1.19c-.17-.26.36-1.16.44-1.43A11.39,11.39,0,0,0,28.66,41c.08-.66-.29-2.28.21-2.79.32-.32.84.28,1.09.45a9.89,9.89,0,0,0,3.24.89,4.18,4.18,0,0,1,2.33,1.81,4.29,4.29,0,0,0,1.71,1.78.75.75,0,0,0,.76,0,.72.72,0,0,0,.12-.78,2.38,2.38,0,0,0-.2-.33s-.12-.37-.12-.38l.81.58a2,2,0,0,0,.65.35.67.67,0,0,0,.68-.18.81.81,0,0,0,.11-.64,6.08,6.08,0,0,0-.52-1.43.57.57,0,0,1,.41.21l.54.51a1.36,1.36,0,0,0,.45.32.46.46,0,0,0,.51-.1.54.54,0,0,0,.09-.38,1.28,1.28,0,0,0-.24-.65,2.55,2.55,0,0,0-.44-.44A5.63,5.63,0,0,0,39.75,39a3.11,3.11,0,0,1-.86-.52,1.25,1.25,0,0,1-.21-1.72c.68-1,2.15-1.39,3.14-2a5.68,5.68,0,0,0,2.51-2.46c.34-.86.14-2.12,1.55-1.2a4.33,4.33,0,0,0,.79.47,2.38,2.38,0,0,0,.81.12c1.36,0,1.13-.89,2-1.31a4.6,4.6,0,0,1,3.18,0c.56.35,1,1.12,1.44,1.58a11.38,11.38,0,0,0,6,3,5.52,5.52,0,0,1,1.81.47,6.47,6.47,0,0,1,1.47,1.43,7.14,7.14,0,0,0,5.88,2.24c1.05-.11,2.34-.36,3,.47.48.61.55,1.73,1.32,1.76A1.75,1.75,0,0,0,74.33,40c0-.51-.34-1.21,0-1.66A2.24,2.24,0,0,0,74.71,37a.76.76,0,0,0,0-.28.59.59,0,0,0-.23-.28,1.36,1.36,0,0,0-.74-.25c.16.05.37.09.48,0s0-.34-.06-.48a3.1,3.1,0,0,0-1.8-1A7.26,7.26,0,0,0,71,34.61a6.92,6.92,0,0,1-5.38-3.9c-.39-.82-1-2.15-.35-2.93.33-.43,1.05-.73,1.45-1.14s.79-.9,1.17-1.36c.88-1,2-2.08,3.41-2,.92.05,1.79.63,2.71.54a3.87,3.87,0,0,1,1.42-.12c.44.13.73.55,1.12.79a3.17,3.17,0,0,0,2.46,0A2.06,2.06,0,0,0,80.17,24a2.21,2.21,0,0,0,.27-1.57A12.62,12.62,0,0,1,81.21,17a9.25,9.25,0,0,0,.6-1.68,12.8,12.8,0,0,0,0-2.1,6.37,6.37,0,0,1,.39-2.07,7.44,7.44,0,0,1,1.9-2,4.56,4.56,0,0,0,1.12-1,3.48,3.48,0,0,0,.38-.79l1.83-4.86c-2.53-.27-4.59,2.67-7.11,2.32-1.15-.16-2.1-1-3.23-1.25s-2.2,0-3.28-.16c-1.35-.21-2.54-1.07-3.9-1.27-1-.15-2,.09-3-.06C65.52,1.87,64.34,1,63,.55A12.13,12.13,0,0,0,60.54,0a1.54,1.54,0,0,0-.75,0c-.54.21-.67.9-.69,1.47a9.37,9.37,0,0,0,.12,2c-2-.47-3.73-1.33-5.69-1.79l1.17.89a33.3,33.3,0,0,0-6.9-1.53l.78.58-7.5-1a9,9,0,0,0-3.86.07,15.18,15.18,0,0,0-3.88.55c-1.76.4-3.5,1.12-5.22,1.67l2-.12c-3.57.22-6.71,2.63-9.38,4.81A8.44,8.44,0,0,0,19,9.46l2-.68a11.6,11.6,0,0,0-3.18,2.37,5.15,5.15,0,0,0-.83,1.54c-.36.73-.88,1.41-1.26,2.13-.74,1.39-1.29,2.88-2,4.3A6.66,6.66,0,0,0,15,17.58a41.69,41.69,0,0,0-2,5.23A18.81,18.81,0,0,0,12.07,27c-.07,1.08-.17,2.15-.24,3.23a8.64,8.64,0,0,0,0,3.11c.08.25.21.49.28.75a3.68,3.68,0,0,1,0,1.41c-.45,4-1.47,7.9-2,11.92A5.52,5.52,0,0,1,11.67,45,48.26,48.26,0,0,0,10.32,58.6l1.06-1.73c-1.1,1.79-.74,5.32-.82,7.35q0,.27,0,.54C10.41,67.15,10.15,69.53,10.22,71.94Zm72.13-61.1a6.3,6.3,0,0,1,.49-.95Zm-45-10a1.06,1.06,0,0,1,.56.17A1.34,1.34,0,0,0,37.34.83Z"/><path class="cls-7" d="M70,38a3.25,3.25,0,0,0,1-1.24c.26-.6.65-1.71,0-2.17H71a7.26,7.26,0,0,1,1.28.11,3.1,3.1,0,0,1,1.8,1c.1.14.18.35.06.48a.27.27,0,0,1-.19.09,1.36,1.36,0,0,1,.45.2.59.59,0,0,1,.23.28.76.76,0,0,1,0,.28,2.24,2.24,0,0,1-.42,1.28c-.31.45.06,1.15,0,1.66a1.75,1.75,0,0,1-.75,1.43c-.77,0-.85-1.15-1.32-1.76-.65-.83-1.94-.58-3-.47l-.57,0C69.15,38.81,69.58,38.4,70,38Z"/><path class="cls-8" d="M70,38,70.1,38a2.84,2.84,0,0,1,1.94.7,10.07,10.07,0,0,0,.93,1c.31.22.84.35,1-.13a.44.44,0,0,0-.09-.4,1.18,1.18,0,0,0-.25-.19,1.17,1.17,0,0,1-.45-.53.73.73,0,0,1,.06-.67,1,1,0,0,1,.33-.27,2.28,2.28,0,0,1,.51-.21.58.58,0,0,0,.21-.08.38.38,0,0,0,0-.52,2.73,2.73,0,0,0-.45-.36.58.58,0,0,1-.23-.38c0-.15.1-.2.13-.34s-.1-.24-.21-.3A5.78,5.78,0,0,0,72,34.84c-.2-.06-.38-.14-.57-.21a3.64,3.64,0,0,1,.9.09,3.1,3.1,0,0,1,1.8,1c.1.14.18.35.06.48a.27.27,0,0,1-.19.09,1.36,1.36,0,0,1,.45.2.59.59,0,0,1,.23.28.76.76,0,0,1,0,.28,2.24,2.24,0,0,1-.42,1.28c-.31.45.06,1.15,0,1.66a1.75,1.75,0,0,1-.75,1.43c-.77,0-.85-1.15-1.32-1.76-.65-.83-1.94-.58-3-.47l-.57,0C69.15,38.81,69.58,38.4,70,38Z"/><path class="cls-7" d="M38.33,40.24c1.36-.56-.79-2.89.13-3a1.25,1.25,0,0,0,.43,1.21,3.11,3.11,0,0,0,.86.52,5.63,5.63,0,0,1,1.12.83,2.55,2.55,0,0,1,.44.44,1.28,1.28,0,0,1,.24.65.54.54,0,0,1-.09.38.46.46,0,0,1-.51.11A1.36,1.36,0,0,1,40.5,41L40,40.54a.57.57,0,0,0-.41-.21,6.07,6.07,0,0,1,.52,1.43.81.81,0,0,1-.11.64.67.67,0,0,1-.68.18,2,2,0,0,1-.65-.35l-.81-.58s.1.33.12.38a2.37,2.37,0,0,1,.2.33.72.72,0,0,1-.12.78.75.75,0,0,1-.76,0,4.29,4.29,0,0,1-1.71-1.78,4.18,4.18,0,0,0-2.33-1.81l-.48-.1C33.93,37.57,36.55,41,38.33,40.24Z"/><path class="cls-9" d="M70.33,22.08l.29.58a2.93,2.93,0,0,0,.15.29l0,.07L70,21.64C70,21.74,70.23,22,70.33,22.08Z"/><path class="cls-9" d="M10.54,64.75c-.12,2.4-.38,4.77-.32,7.19L11,68.43c-.57,2.56,0,5.16.38,7.7.49,3.13.18,6.15,1.13,9.2s.7,6.45,1.21,9.56l.31-3a33.66,33.66,0,0,0,3.65,13c1.25,2.4,3.51,5.14,6.43,5.21a5.5,5.5,0,0,0,2.75-.59c3-1.62,1.95-5.2,1.85-7.91a49.34,49.34,0,0,0-.6-5.84q-.27-1.72-.58-3.44c-.1-.56-.15-2.49-.55-2.85l.64.59A43.53,43.53,0,0,1,24.9,72.8a5.72,5.72,0,0,0,1.28,1.74c-1.25-4-.42-7.78-.33-11.83.09-4.32.06-8.63,0-13a5.34,5.34,0,0,1,.89,2.64A23,23,0,0,0,27,43.18l.79,1.19c-.17-.26.36-1.16.44-1.43A11.39,11.39,0,0,0,28.66,41a9.41,9.41,0,0,0-.12-2.2,4.36,4.36,0,0,1,0-1.65.52.52,0,0,1,.19-.31.59.59,0,0,1,.34-.05,4.12,4.12,0,0,1,1.67.34q.82.36,1.62.75l1.59.8c.36.19,1.1.78,1.5.78a8,8,0,0,0,2.14-.23.3.3,0,0,1,0-.1,2,2,0,0,0,.19-1.8,2.32,2.32,0,0,1,.3-2.71c.91-1.23,2.44-1.46,3.75-2.06,1-.44,1.06-.81,1.4-2.07a1.94,1.94,0,0,1,2.36-1.34,3.74,3.74,0,0,1,1.85,1.25c-.38-.47,1.76-1.41,2-1.44a12,12,0,0,1,2.88.21c1.53.25,2.39,1.86,3.67,2.73,1.67,1.12,4,.92,5.65,2s3.33,3.79,5.58,2.87c1.52-.62,2.12-2.24.68-3.34a7.59,7.59,0,0,1-2.33-2.74,4.35,4.35,0,0,1-.59-2.38c0-.12-.08-.23-.11-.35a12,12,0,0,1-.23-5.15c.22-1.69,1.55-3.59.11-5.09a27.87,27.87,0,0,1-2.48-2.33,11.89,11.89,0,0,1-1.72-3.22,19.11,19.11,0,0,1-.91-4.1c-.14-1.18.09-2.81-.29-3.92-.31-.91-1.48-1-2.31-1.25-.62-.21-1.24-.45-1.87-.66a7.4,7.4,0,0,1-1.74-.51l1.17.89a33.3,33.3,0,0,0-6.9-1.53l.78.58-7.5-1a9,9,0,0,0-3.86.07,15.18,15.18,0,0,0-3.88.55c-1.76.4-3.5,1.12-5.22,1.67l2-.12c-3.57.22-6.71,2.63-9.38,4.81A8.44,8.44,0,0,0,19,9.46l2-.68a11.6,11.6,0,0,0-3.18,2.37,5.15,5.15,0,0,0-.83,1.54c-.36.73-.88,1.41-1.26,2.13-.74,1.39-1.29,2.88-2,4.3A6.66,6.66,0,0,0,15,17.58a41.69,41.69,0,0,0-2,5.23A18.81,18.81,0,0,0,12.07,27c-.07,1.08-.17,2.15-.24,3.23a8.64,8.64,0,0,0,0,3.11c.08.25.21.49.28.75a3.68,3.68,0,0,1,0,1.41c-.45,4-1.47,7.9-2,11.92A5.52,5.52,0,0,1,11.67,45,48.26,48.26,0,0,0,10.32,58.6l1.06-1.73c-1.1,1.79-.74,5.32-.82,7.35Q10.55,64.49,10.54,64.75ZM37.34.83a1.06,1.06,0,0,1,.56.17A1.34,1.34,0,0,0,37.34.83Z"/><path class="cls-9" d="M10.54,64.75c-.12,2.4-.38,4.77-.32,7.19L11,68.43c-.57,2.56,0,5.16.38,7.7.49,3.13.18,6.15,1.13,9.2s.7,6.45,1.21,9.56l.31-3a33.66,33.66,0,0,0,3.65,13c1.25,2.4,3.51,5.14,6.43,5.21a5.5,5.5,0,0,0,2.75-.59c3-1.62,1.95-5.2,1.85-7.91a49.34,49.34,0,0,0-.6-5.84q-.27-1.72-.58-3.44c-.1-.56-.15-2.49-.55-2.85l.64.59A43.53,43.53,0,0,1,24.9,72.8a5.72,5.72,0,0,0,1.28,1.74c-1.25-4-.42-7.78-.33-11.83.09-4.32.06-8.63,0-13a5.34,5.34,0,0,1,.89,2.64A23,23,0,0,0,27,43.18l.79,1.19c-.17-.26.36-1.16.44-1.43A11.39,11.39,0,0,0,28.66,41a9.41,9.41,0,0,0-.12-2.2,4.36,4.36,0,0,1,0-1.65.52.52,0,0,1,.19-.31.59.59,0,0,1,.34-.05,4.12,4.12,0,0,1,1.67.34q.82.36,1.62.75l1.59.8c.36.19,1.1.78,1.5.78a7.86,7.86,0,0,0,2.6-.36l0-.06A1.61,1.61,0,0,0,38,37.61a2.33,2.33,0,0,1,.14-3c.91-1.23,2.44-1.46,3.75-2.06,1-.44,1.06-.81,1.4-2.07a1.94,1.94,0,0,1,2.36-1.34,3.74,3.74,0,0,1,1.85,1.25c-.38-.47,1.76-1.41,2-1.44a12,12,0,0,1,2.88.21c1.53.25,2.39,1.86,3.67,2.73,1.67,1.12,4,.92,5.65,2s3.33,3.79,5.58,2.87c1.52-.62,2.12-2.24.68-3.34a7.59,7.59,0,0,1-2.33-2.74,4.35,4.35,0,0,1-.59-2.38c0-.12-.08-.23-.11-.35a12,12,0,0,1-.23-5.15c.19-1.44,1.55-3.67.36-5-.26-.28-.6-.48-.86-.76a2.06,2.06,0,0,1-.55-1.6c-.06-.06-.16,0-.18.09s0,.17,0,.24-.25.1-.38.05a3.43,3.43,0,0,1-.78-.38.6.6,0,0,1-.22-.21A1,1,0,0,1,62,14.9c0-.54-.51-1.06-.3-1.56-.27-.05-.57,0-.83-.06s-.43-1.55-.55-2a20.54,20.54,0,0,1-.63-3.21c-.14-1.18.09-2.81-.29-3.92-.31-.91-1.48-1-2.31-1.25-.62-.21-1.24-.45-1.87-.66a7.4,7.4,0,0,1-1.74-.51l1.17.89a33.3,33.3,0,0,0-6.9-1.53l.78.58-7.5-1a9,9,0,0,0-3.86.07,15.18,15.18,0,0,0-3.88.55c-1.76.4-3.5,1.12-5.22,1.67l2-.12c-3.57.22-6.71,2.63-9.38,4.81A8.44,8.44,0,0,0,19,9.46l2-.68a11.6,11.6,0,0,0-3.18,2.37,5.15,5.15,0,0,0-.83,1.54c-.36.73-.88,1.41-1.26,2.13-.74,1.39-1.29,2.88-2,4.3A6.66,6.66,0,0,0,15,17.58a41.69,41.69,0,0,0-2,5.23A18.81,18.81,0,0,0,12.07,27c-.07,1.08-.17,2.15-.24,3.23a8.64,8.64,0,0,0,0,3.11c.08.25.21.49.28.75a3.68,3.68,0,0,1,0,1.41c-.45,4-1.47,7.9-2,11.92A5.52,5.52,0,0,1,11.67,45,48.26,48.26,0,0,0,10.32,58.6l1.06-1.73c-1.1,1.79-.74,5.32-.82,7.35Q10.55,64.49,10.54,64.75ZM37.34.83a1.06,1.06,0,0,1,.56.17A1.34,1.34,0,0,0,37.34.83Z"/><path class="cls-10" d="M24.19,106.55c-1,0-2.37-1.38-3.37-3.31a30.13,30.13,0,0,1-3.26-11.58h-.63l-.05-.77a28.52,28.52,0,0,0-1-6.58c-.73-1.47-.37-3.37-.69-4.93a37.14,37.14,0,0,1-.59-4.71c0-.33.14-.81.44-.68a19.83,19.83,0,0,1-.67-3.45A2.77,2.77,0,0,1,14,71.83a34.7,34.7,0,0,1,1.7-9.54,23.51,23.51,0,0,0-1.92,6.18c-.62-2.79,0-5.61.83-8.29.38-1.31-.47-1.17-.94-2.23-.39-.87.07-2,.19-2.85q.39-2.82.64-5.66l-.79,2.06.13-1.81a2,2,0,0,1-.66.92,22.56,22.56,0,0,1,1.17-6.31.84.84,0,0,0-.35.56l2.33-5.22L15.55,41q.72-2,1.28-4a24.79,24.79,0,0,0-1.88,3c.08-2.3,1.19-4.69.55-7a6.94,6.94,0,0,0-.29-.81h0a9.09,9.09,0,0,1,.07-.95A26.75,26.75,0,0,1,16,25.93a23.45,23.45,0,0,1,2.33-5.18l-2.7,4.35,1.07-3.3c.5-1.54,1.14-3.25,2.61-3.93a2,2,0,0,1-1.23.31,12.5,12.5,0,0,1,2.53-2.73L19,16.38a18.05,18.05,0,0,1,2.88-2.57,7.68,7.68,0,0,0-3.37,2.66c.36-1.86,2.09-3,3.36-4.21a13.59,13.59,0,0,0,1.36-1.93,15.68,15.68,0,0,1,2.48-2c.27-.23.45-.62.71-.82.42-.33.67-.2,1.11-.33-.21.06-.33-.29-.18-.45A.77.77,0,0,1,28,6.58l1.84.06a4.62,4.62,0,0,1-1.25-.81A11.2,11.2,0,0,1,34,6.19a8,8,0,0,1-3.35-1A21.34,21.34,0,0,1,38.1,6.61,13.81,13.81,0,0,0,32.4,4.36c2.8-.35,6.38-.73,9.12.08a5.61,5.61,0,0,0,1,.34c.21,0,1.33-.24,1.41-.16l-.85-.74,2.54,1.2a5.3,5.3,0,0,1-1.27-.84l2.88,1a17.5,17.5,0,0,1-2.08-1.41q1.81.89,3.66,1.68L47.51,4.06a21.77,21.77,0,0,1,4.14,2.29L50.22,4.76l3.49,2.65A9.79,9.79,0,0,0,51.46,4a9,9,0,0,1,4.42,3.59,8.12,8.12,0,0,1,.61,2.7,20.6,20.6,0,0,0,.81,3.06,15.37,15.37,0,0,0,2.24,4.18c.44.58,3.59,2.93,1.64,3.65a.92.92,0,0,1-.94-.29,2.69,2.69,0,0,1-.49-.91L60,21.53A8.54,8.54,0,0,0,57.19,18c1.33,2.63,2,5.85.72,8.49a7.5,7.5,0,0,0-1.69-4.38L56.15,25a2.91,2.91,0,0,0-.43-1.47l-.07,1.6a2.81,2.81,0,0,1-1.51-1.47c-.19-.44-.33-1-.78-1.15l-.12,2.17a.49.49,0,0,1-.53.58,25.75,25.75,0,0,1-2.6.19c-.91,0-.79-.1-1-.95a11.78,11.78,0,0,0-.78-2.05,11.48,11.48,0,0,0-2.65-3.48c.66,2,1.32,4,.84,6l-1-2.23v1.48a5.84,5.84,0,0,0-1-1.25,1.44,1.44,0,0,0-.11.68l-1-.5a3.53,3.53,0,0,0-.1,1.2,2.75,2.75,0,0,1-.83-.52,1,1,0,0,0-.45.62l-.64-.12c.55.1-.05,2.41-.18,2.7a6.41,6.41,0,0,1-1.64,2.45c-.48-1-.32-2.66-.52-3.79a12.38,12.38,0,0,0-1.37-4q.18,2.49.3,5a4.86,4.86,0,0,1-.56,3.12,13.67,13.67,0,0,0-.75-4.16,8.92,8.92,0,0,1-.24,2.69,2.44,2.44,0,0,1-.56-1.17l-.05,2a4.84,4.84,0,0,1-.87-1.38c.18.71.3,1.59-.28,2a2.05,2.05,0,0,0-.4.31c-.21.28-.08.67,0,1s0,.81-.32.88a6.27,6.27,0,0,0-1-2.86q-.09,1.42-.21,2.84l-.3-.64a2.15,2.15,0,0,1-.07.85.89.89,0,0,1-.45-.34l-.23.65c-.14-.25-.53-.16-.76,0s-.46.42-.75.38-.55-.42-.84-.54c-.26,1.1-1.71.93-2.52,1.45a4,4,0,0,0-1.71,2.36,7.59,7.59,0,0,0-.13,3l.05.43a5.51,5.51,0,0,1,.07,1,7.44,7.44,0,0,1-.26,1.14l0,.09c.19-.4-2.25-3.35-2.58-3.86-.59,3.28,2.1,6.32,1.42,9.66a17.73,17.73,0,0,0-2.07-4.3l.84,4.46-.78-1.21.67,2.8L20.67,48q.71,1.56,1.41,3.12c-.19-.05-.37.13-.4.32a1,1,0,0,0,.12.56l.76,1.76a3.87,3.87,0,0,0-.86-.1c.57.9.12,2.1.2,3.1a22.9,22.9,0,0,1,.12,5.1,11.28,11.28,0,0,0-2.47-5.57c.42,2.11,1.49,4,1.87,6.15a9.74,9.74,0,0,1-.09,3.87L20.88,66l.55,1.88-.63-.1a3.34,3.34,0,0,0,.42,1.41l-.48-.06c.35,0,.68,5.14.67,5.66a37.94,37.94,0,0,0,.2,5.33,47.12,47.12,0,0,0,2.69,11.2l2.61-1.76-2.33,2.54a2.73,2.73,0,0,1-.79-1.2c.05.2.11.8.13,1.09s.06.69.12,1c.2,1.11.39,2.24.56,3.35a45.5,45.5,0,0,1,.56,5.43c0,.6.08,1.19.13,1.77a8.31,8.31,0,0,1,0,2.83.53.53,0,0,1-.12.08,1.9,1.9,0,0,1-.89.16ZM36.86,4.34a2.36,2.36,0,0,1-.94-.39L37,2.29Z"/><path class="cls-10" d="M16.16,28.37a13,13,0,0,1,.43-3.06,20.38,20.38,0,0,1,2-4.49l-1-.6c.3-.77.5-1,.63-1.11l-.37-.73.17-.47.22.46a9.4,9.4,0,0,1,1.91-2.06L19.93,16a15,15,0,0,1,1.45-1.18l-.56-1c.3-.26.6-.53.9-.83a8.45,8.45,0,0,0,1.36-1.79c.12-.2.22-.37.32-.49a6.1,6.1,0,0,1,.8-.6,13,13,0,0,0,1.25-.93,4.53,4.53,0,0,0,.46-.46l.16,0,0-.12.21-.28,0-.07,1.11,0,.22-1,.63,0a8.21,8.21,0,0,1,1,.06l.13-.57A23.2,23.2,0,0,1,34.84,8l1.22-2.48a9.9,9.9,0,0,1,2.25.33l.08,0a5.05,5.05,0,0,0,1.48.42l.4,0a6.81,6.81,0,0,0,1.15-.13l.24,0,.36.17L42.17,6l1.75.62.16-.34,1.24.54.43-.61c.63.35,1.23.77,1.85,1.12.06-.11.18-.18.24-.29,1.25,1,2.7,1.36,3.66,2.65a19.12,19.12,0,0,1,1.8,3c.45.91.56,2.25,1.07,3.06a25.52,25.52,0,0,0-3.61-4.52,3.59,3.59,0,0,0,.71,1.71,12.11,12.11,0,0,1,1.73,6.48l-.76-1.92c-.88-2.2-1.83-4.51-3.67-6a17.09,17.09,0,0,1,1.59,5c-.33-.5-.64-1-1-1.51,0,.87.12.88-.56.69a8,8,0,0,1-1.86-1l1.12,2a12.34,12.34,0,0,1-1.7-1.54l.7,1.12a2.88,2.88,0,0,1-1.38-.62l.53.64a6.81,6.81,0,0,0-2.89-2.1l.64,2a3.89,3.89,0,0,1-1.77-1.49A8,8,0,0,0,40.65,13a2,2,0,0,0-2.2-.26,7.89,7.89,0,0,0,1.42,2.39,2.61,2.61,0,0,1,.44,2.62A4.48,4.48,0,0,0,38.5,15l1,2.72c-.19-.5-1,1-1,1-.69.81-.81-.05-1.27-.8a8.72,8.72,0,0,0-3.63-3.62c1.56,2.17,3.18,4.56,3.09,7.23A17,17,0,0,0,33.09,16l1,4.62a17.48,17.48,0,0,0-2.33-4.43,1.47,1.47,0,0,0,0,1l1,4.26-1.89-3.09a22.41,22.41,0,0,1,1.06,3.79A2.71,2.71,0,0,1,31.63,24c.29-.44-2.17-3.69-2.5-4.15-1.24-1.75-1.08.56-1.15,1.61l-.25,3.9c0,.66-.16,2.53-1,1.3-.56-.86-.7-2.29-1.17-3.25a15.15,15.15,0,0,0-2-3A21,21,0,0,1,24.29,28a16.72,16.72,0,0,0-1.06-3.37,11.58,11.58,0,0,0,.13,2.55A.34.34,0,0,1,23,27.1v.79l-.3-.23v.68l-.62,0c.12.24-.16.47-.38.63s-.35.56-.09.64a.38.38,0,0,0-.25.62l-.58-.12a1.23,1.23,0,0,1,.23.84c-.31,1.31-1.54-.84-1.7-1.1s-1.06-1.28-1-1.57L17,35.65l-.39.27-.4-.19a10.82,10.82,0,0,0,0-5c0-.16-.1-.32-.14-.46l0-.15C16.09,29.52,16.12,28.94,16.16,28.37Z"/><path class="cls-10" d="M14.58,54c.14-1,.27-2,.39-3.07L16.6,53.5c0,.12,0,.28,0,.4s0,.25,0,.39l-2.17,1,0,0,.06-.29C14.46,54.69,14.53,54.36,14.58,54Z"/><path class="cls-10" d="M15.23,43l1.61-3.59-.25-.13.27-.81a16.74,16.74,0,0,0,.8,3.38l-1.36.55.6,3.19-.5.22.28,1.16-1.1.86.4.88-.76-.09,0-.4L14,47.89A19.46,19.46,0,0,1,15,43.76Z"/><path class="cls-11" d="M38.14,33.52c.91-1.23,2.44-1.46,3.75-2.06,1-.44,1.06-.81,1.4-2.07A1.94,1.94,0,0,1,45.65,28,3.74,3.74,0,0,1,47.5,29.3c-.38-.47,1.76-1.41,2-1.44a12,12,0,0,1,2.88.21c1.53.25,2.39,1.86,3.67,2.73s3.32,1,4.9,1.62a7.66,7.66,0,0,0,1.77,2c.54.43,1.09.82,1.65,1.22l.53.39c.18.15.35.3.51.46l.12.1.17.35c-1.51-.43-2.77-2.17-4-3-1.69-1.09-4-.88-5.65-2-1.28-.86-2.14-2.48-3.67-2.73A12,12,0,0,0,49.53,29c-.27,0-2.41,1-2,1.44a3.74,3.74,0,0,0-1.85-1.25,1.94,1.94,0,0,0-2.36,1.34c-.34,1.27-.44,1.63-1.4,2.07-1.31.6-2.84.83-3.75,2.06a3.13,3.13,0,0,0-.53,1A2.42,2.42,0,0,1,38.14,33.52Z"/><path class="cls-11" d="M11.81,78.73a19.57,19.57,0,0,1,.7,3.22l.12-1.77a10.17,10.17,0,0,1,.9,2.56l.16-.78a12.77,12.77,0,0,0,1.6,2.58A23.92,23.92,0,0,0,15.4,81a14.2,14.2,0,0,0,1.32,4.55,10.18,10.18,0,0,1-.2-4.45,2.25,2.25,0,0,1,1.2,1.2c0,.1.09.22.2.25s.29-.13.34-.29a2.31,2.31,0,0,0,.12-1,3.14,3.14,0,0,1,.53,1.29q.15-1.31.4-2.6a15.79,15.79,0,0,0,1.42,5.85,20.29,20.29,0,0,0-.38-4.51,17.54,17.54,0,0,0,2.09,3.63q.17-.89.37-1.78l.37.61a17.2,17.2,0,0,0,.2-2.53l.9,2.8a15.85,15.85,0,0,1,0-3.92c.07-.53.19-1.35.72-1.6.49,1.85.5,3.92.93,5.81A43.1,43.1,0,0,0,27.62,90L27,89.45c.4.37.45,2.29.55,2.85q.31,1.72.58,3.44a49.34,49.34,0,0,1,.6,5.84c.1,2.71,1.14,6.29-1.85,7.91a5.5,5.5,0,0,1-2.75.59c-2.92-.07-5.18-2.81-6.43-5.21A33.66,33.66,0,0,1,14,91.9l-.31,3c-.51-3.1-.29-6.58-1.21-9.56a18.15,18.15,0,0,1-.68-3.84c-.07-.87-.43-2,0-2.85Z"/><g class="cls-12"><path class="cls-11" d="M10.54,64.75c-.12,2.4-.38,4.77-.32,7.19L11,68.43c-.57,2.56,0,5.16.38,7.7.49,3.13.18,6.15,1.13,9.2s.7,6.45,1.21,9.56l.31-3a33.66,33.66,0,0,0,3.65,13,12.43,12.43,0,0,0,2.89,3.74,14.39,14.39,0,0,1-1.24-2,33.66,33.66,0,0,1-3.65-13l-.31,3c-.51-3.1-.29-6.58-1.21-9.56S13.52,81,13,77.9c-.4-2.54-.95-5.14-.38-7.7l-.77,3.51c-.07-2.41.19-4.79.32-7.19q0-.27,0-.54c.08-2-.28-5.55.82-7.35L12,60.37a48.26,48.26,0,0,1,1.35-13.58,5.52,5.52,0,0,0-1.54,2.38c.52-4,1.54-7.9,2-11.92a3.68,3.68,0,0,0,0-1.41c-.07-.26-.2-.49-.28-.75a8.64,8.64,0,0,1,0-3.11c.07-1.08.17-2.15.24-3.23,0-.29.05-.59.1-.9a2.36,2.36,0,0,1-.56-2.22,45.1,45.1,0,0,1,3.6-10.74,17.52,17.52,0,0,1,3.49-4.56,2.12,2.12,0,0,1,1.24-1.87c1.15-.6,2.26-1.27,3.37-2l0,0a3.61,3.61,0,0,1,.68-.41C27,5.29,28.24,4.51,29.6,3.84a17.63,17.63,0,0,1,8-2c1.65-.34,3.31-.64,5-1L41.09.75a9,9,0,0,0-3.86.07,15.18,15.18,0,0,0-3.88.55c-1.76.4-3.5,1.12-5.22,1.67l2-.12c-3.57.22-6.71,2.63-9.38,4.81A8.44,8.44,0,0,0,19,9.46l2-.68a11.6,11.6,0,0,0-3.18,2.37,5.15,5.15,0,0,0-.83,1.54c-.36.73-.88,1.41-1.26,2.13-.74,1.39-1.29,2.88-2,4.3A6.66,6.66,0,0,0,15,17.58a41.69,41.69,0,0,0-2,5.23A18.8,18.8,0,0,0,12.07,27c-.07,1.08-.17,2.15-.24,3.23a8.64,8.64,0,0,0,0,3.11c.08.25.21.49.28.75a3.68,3.68,0,0,1,0,1.41c-.45,4-1.47,7.9-2,11.92A5.52,5.52,0,0,1,11.67,45,48.26,48.26,0,0,0,10.32,58.6l1.06-1.73c-1.1,1.79-.74,5.32-.82,7.35Q10.55,64.49,10.54,64.75ZM37.34.83a1.06,1.06,0,0,1,.56.17A1.34,1.34,0,0,0,37.34.83Z"/></g><path class="cls-13" d="M72.42,7.34l-1.79-.56a11.76,11.76,0,0,1,3,2l-1.14-.3a6.71,6.71,0,0,1,2.24,2.31l-.92-.47c1.44,1.17,1.51,3.32,1.34,5.17a44.39,44.39,0,0,1-.71,4.78c-.73-1.21-2.53-1.44-3.23-2.67a2.94,2.94,0,0,0-.47-.78c-.28-.26-.71-.52-.76,0a2,2,0,0,0,.3,1.23.66.66,0,0,1-.25-.4l-.4-1.25a5.32,5.32,0,0,1-.27-1.17c0-.2-.33-1-.56-.68a7,7,0,0,0-.6,1.12,12.16,12.16,0,0,1,.44-1.77c.14-.44.54-1.05.07-1.42s-1,0-1.36-.28-.28-.9,0-1.27.75-.6,1-1a2.45,2.45,0,0,0,.39-1.38c0-.84-.89-2.83.23-3.2C70,5.1,71.75,6.77,72.42,7.34Z"/><path class="cls-13" d="M80.09,12.81a14.47,14.47,0,0,0,1.22-4.66,8.45,8.45,0,0,1,.22,2.28,2.18,2.18,0,0,0,0,.61,3.06,3.06,0,0,0,.25.57c.55,1.15.07,2.48-.51,3.61l-.06.12c-.43.85-.26,1.91-.77,2.71,0-1-.91-1.88-1-2.91A4.56,4.56,0,0,1,80.09,12.81Z"/><path class="cls-13" d="M73.24,4.65A4,4,0,0,0,72.83,4a1.84,1.84,0,0,0-.59-.46A15,15,0,0,1,70,2.28l.84,0a20.07,20.07,0,0,0,3,1.06,7.9,7.9,0,0,0,1.4.05,18.78,18.78,0,0,1,3,2.33,1.22,1.22,0,0,0-.64-.33c.38.07.88.82,1.08,1.12A6.45,6.45,0,0,1,79.28,8l-.44-.6a10.08,10.08,0,0,1,0,2.47,4.1,4.1,0,0,0-.17-.6,7,7,0,0,1,.08,1.9q.07,1.16,0,2.32a3.53,3.53,0,0,0-.27-1,27.36,27.36,0,0,1-.19,4.83c-.05,1.12-.18,2.26-.23,3.39A4.75,4.75,0,0,0,78,19.39,35.94,35.94,0,0,1,77.6,14a6.41,6.41,0,0,0-.21-1.65q-.15-.55-.32-1.08a5,5,0,0,1-.32-.94l.06.74a17.58,17.58,0,0,0-1.16-3.17l.29,1a25.23,25.23,0,0,0-2.14-3.64l.27,1Z"/><path class="cls-7" d="M87.79,2.52l-1.5,2.35a4.41,4.41,0,0,0-.51,1c-.09.28-.13.57-.21.85a4.91,4.91,0,0,1-.85,1.49,5.19,5.19,0,0,1-1.37,1.4,1.4,1.4,0,0,1-1,.23,1.46,1.46,0,0,1-1-1.08A3.16,3.16,0,0,1,81.82,6a6.24,6.24,0,0,1,1.43-1.32l1-.75a8.84,8.84,0,0,1,2.6-1.51,1,1,0,0,1,.51-.05.39.39,0,0,1,.31.36.58.58,0,0,1-.09.24L87,4"/><circle class="cls-14" cx="72.39" cy="14.78" r="1.61"/><circle class="cls-15" cx="72.39" cy="14.78" r="1.18"/><circle class="cls-16" cx="72.39" cy="13.91" r="0.47"/><path class="cls-17" d="M68.93,19.65l.25,1.13a11,11,0,0,1-.84-5.17A18.25,18.25,0,0,0,67.93,18l-.37-.76a.44.44,0,0,1-.15.44,33.43,33.43,0,0,1-.3-4.2l-.33.27a1.84,1.84,0,0,1,.45-.84l-.4.15.27-2.1A29.58,29.58,0,0,1,61,9.71c-.1.68,1.42.61,1.39,1.3,0,.38-.58.71-.36,1,.09.13.27.15.4.24.36.25.18.8.18,1.23a2.44,2.44,0,0,0,.6,1.32,37.47,37.47,0,0,0,4.71,5.62c.81.74,3.74,3.4,4.89,2.71C71.23,22.63,69.31,21.39,68.93,19.65Z"/><ellipse class="cls-14" cx="80.75" cy="14.37" rx="1.47" ry="0.93" transform="matrix(0.07, -1, 1, 0.07, 61.01, 93.97)"/><ellipse class="cls-15" cx="80.9" cy="14.37" rx="1.08" ry="0.79" transform="translate(61.13 94.13) rotate(-86.16)"/><ellipse class="cls-16" cx="80.95" cy="13.59" rx="0.43" ry="0.32" transform="matrix(0.07, -1, 1, 0.07, 61.97, 93.44)"/><path class="cls-14" d="M75.4,23.21a.91.91,0,0,0,.26.57,2.52,2.52,0,0,0,.54.39.93.93,0,0,1,.24.17.87.87,0,0,1,.16.42c.12,0,.24.08.31.18a1.3,1.3,0,0,0,1.24.47,3.31,3.31,0,0,0,1.11-.19c.27-.1.73-.25.85-.54a2,2,0,0,1,.13-.29,1.24,1.24,0,0,0,.18-.26c.16-.47-.15-1-.13-1.51a.7.7,0,0,0-.06-.45.6.6,0,0,1-.07-.09.5.5,0,0,1,0-.21c0-.34-.53-.56-.79-.66A3.3,3.3,0,0,0,78.14,21a3,3,0,0,0-2.16.85A1.92,1.92,0,0,0,75.4,23.21Z"/><path class="cls-18" d="M75.4,23.21a.71.71,0,0,0,.35.69,3.18,3.18,0,0,1,.61.58c.07.09.19.29.31.29s.28-.17.41-.19a.52.52,0,0,1,.49.18c.37.46.11.71.85.65a1.93,1.93,0,0,0,.88-.2c.16-.12.13-.4.33-.48a.61.61,0,0,1,.17,0c.39,0,.56-.28.65-.64a6.27,6.27,0,0,0,0-1.44,1.9,1.9,0,0,0,0-.51c-.09-.31-.44-.51-.7-.67A3.19,3.19,0,0,0,78.14,21,2.52,2.52,0,0,0,75.4,23.21Z"/><path class="cls-7" d="M76.5,22.76a2,2,0,0,0,2.19,1.77,2.51,2.51,0,0,0,1.46-.45c.48-.34.39-1,.39-1.57a1.63,1.63,0,0,0-.17-.89A2.21,2.21,0,0,0,78.69,21,2,2,0,0,0,76.5,22.76Z"/><path class="cls-7" d="M59.27,4.84c0-.32.37-4.6.28-4.63a20.34,20.34,0,0,1,5.67,2.89c1.27.92,3.82,2.63,4,4.32a4.19,4.19,0,0,1-.14,2,3.83,3.83,0,0,1-.81,1.21,6.29,6.29,0,0,1-4.12,1.11,5,5,0,0,1-3.78-1.64C59.2,8.65,59.21,6.66,59.27,4.84Z"/><path class="cls-19" d="M59.46,7.43a2.8,2.8,0,0,0,1,1.78c.36.24.74.28,1.95.26A1.49,1.49,0,0,1,63.2,8.3c.7-.41,1.48-.13,2.17-.44a.36.36,0,0,0,.14-.11.41.41,0,0,0,.07-.18,1.08,1.08,0,0,0-.22-.84,2.29,2.29,0,0,1,.84,1c.14.31.11.79.32,1-.46-.76,1.14-1.46,1.12-2.23,0-.6-1-1.27-1.27-2.22-.13-.44.53,0,.86.3a10.35,10.35,0,0,1,.95.9,3.5,3.5,0,0,1,1,1.9,4.19,4.19,0,0,1-.14,2,3.83,3.83,0,0,1-.81,1.21,6.29,6.29,0,0,1-4.12,1.11,5,5,0,0,1-3.78-1.64,4.72,4.72,0,0,1-1-2.66S59.45,7.39,59.46,7.43Z"/></g></g></svg>