<svg id="Layer_1" data-name="Layer 1" xmlns="http://www.w3.org/2000/svg" viewBox="0 0 99.7 94.99"><title>22</title><g id="Layer_1-2" data-name="Layer 1"><path d="M53.9,3l8.8,27.3a4.29,4.29,0,0,0,4.1,3H95.4a4.27,4.27,0,0,1,4.3,4.3,4.36,4.36,0,0,1-1.8,3.5L74.8,57.49a4.42,4.42,0,0,0-1.6,4.8L82,89.39a4.33,4.33,0,0,1-2.7,5.4,4.28,4.28,0,0,1-3.8-.6L52.3,77.29a4.2,4.2,0,0,0-5,0L24.1,94.09a4.25,4.25,0,0,1-6.6-4.7l8.8-27a4.27,4.27,0,0,0-1.6-4.8L1.8,40.89a4.31,4.31,0,0,1-1-6,4.36,4.36,0,0,1,3.5-1.8H32.9a4.29,4.29,0,0,0,4.1-3L45.7,3A4.35,4.35,0,0,1,51.1.19,4.83,4.83,0,0,1,53.9,3Z" fill="#00e800"/></g></svg>