<svg xmlns="http://www.w3.org/2000/svg" xmlns:xlink="http://www.w3.org/1999/xlink" viewBox="0 0 75.34 74.23"><defs><filter id="AI_GaussianBlur_4" name="AI_GaussianBlur_4"><feGaussianBlur stdDeviation="4"/></filter><radialGradient id="radial-gradient" cx="45.65" cy="43.53" r="48.64" gradientUnits="userSpaceOnUse"><stop offset="0" stop-color="#fff200"/><stop offset="0.44" stop-color="#fff002"/><stop offset="0.6" stop-color="#feea09"/><stop offset="0.72" stop-color="#fedf14"/><stop offset="0.81" stop-color="#fdd025"/><stop offset="0.89" stop-color="#fbbc3b"/><stop offset="0.9" stop-color="#fbb840"/></radialGradient><linearGradient id="linear-gradient" x1="37.67" y1="61.84" x2="37.67" y2="12.39" gradientUnits="userSpaceOnUse"><stop offset="0" stop-color="#fbb840"/><stop offset="0.37" stop-color="#fdd223"/><stop offset="0.76" stop-color="#fee909"/><stop offset="1" stop-color="#fff200"/></linearGradient><radialGradient id="radial-gradient-2" cx="39.27" cy="37.75" r="32.17" xlink:href="#radial-gradient"/><linearGradient id="linear-gradient-2" x1="43.2" y1="18.8" x2="43.2" y2="36.44" gradientUnits="userSpaceOnUse"><stop offset="0" stop-color="#a7a9ac"/><stop offset="0.15" stop-color="#a3a5a8"/><stop offset="0.3" stop-color="#97999b"/><stop offset="0.46" stop-color="#838487"/><stop offset="0.62" stop-color="#666869"/><stop offset="0.78" stop-color="#424344"/><stop offset="0.94" stop-color="#161617"/><stop offset="1" stop-color="#050505"/></linearGradient><linearGradient id="linear-gradient-3" x1="43.12" y1="18.8" x2="43.12" y2="28.65" gradientUnits="userSpaceOnUse"><stop offset="0" stop-color="#a7a9ac"/><stop offset="0.16" stop-color="#a3a5a8"/><stop offset="0.33" stop-color="#97999b"/><stop offset="0.51" stop-color="#848487"/><stop offset="0.68" stop-color="#686769"/><stop offset="0.86" stop-color="#454344"/><stop offset="1" stop-color="#231f20"/></linearGradient></defs><title>sun</title><g style="isolation:isolate"><g id="Layer_1" data-name="Layer 1"><g opacity="0.2" filter="url(#AI_GaussianBlur_4)"><path d="M79.21,42.57c0-1.91-7.77-3.11-8.08-4.93S77.68,32,77,30.25,68.69,30,67.76,28.4s4.23-7.54,3-9-7.93,2.63-9.36,1.43,1.41-8.53-.21-9.47-6.54,5.18-8.31,4.54S51.32,7.43,49.45,7.1s-4.34,7.12-6.25,7.12S38.77,6.79,37,7.1s-1.71,8.18-3.45,8.82-6.7-5.47-8.31-4.54,1.22,8.27-.21,9.47S16.83,18,15.62,19.42s4,7.35,3,9-8.64.08-9.29,1.85,6.25,5.52,5.92,7.39-8.08,3-8.08,4.93S15,45.68,15.29,47.5s-6.56,5.65-5.92,7.39,8.35.24,9.29,1.85-4.23,7.54-3,9,7.93-2.63,9.36-1.43-1.41,8.53.21,9.47,6.54-5.18,8.31-4.54S35.09,77.7,37,78s4.34-7.12,6.25-7.12,4.43,7.44,6.25,7.12,1.71-8.18,3.45-8.82,6.7,5.47,8.31,4.54-1.22-8.27.21-9.47,8.16,2.86,9.36,1.43-4-7.35-3-9,8.64-.08,9.29-1.85-6.25-5.52-5.92-7.39S79.21,44.47,79.21,42.57Z" transform="translate(-5.53 -5.45)"/></g><path d="M80.87,42.57c0,2-8.13,3.26-8.46,5.16s6.86,5.91,6.2,7.73-8.74.26-9.72,1.94,4.42,7.89,3.17,9.39-8.29-2.76-9.79-1.5,1.48,8.92-.22,9.91-6.84-5.42-8.69-4.75-1.66,8.88-3.61,9.23-4.54-7.45-6.54-7.45S38.57,80,36.67,79.67s-1.79-8.56-3.61-9.23-7,5.72-8.69,4.75,1.27-8.65-.22-9.91-8.53,3-9.79,1.5,4.15-7.69,3.17-9.39-9-.09-9.72-1.94,6.54-5.78,6.2-7.73-8.46-3.16-8.46-5.16,8.13-3.26,8.46-5.16S7.13,31.5,7.8,29.68s8.74-.25,9.72-1.94-4.42-7.89-3.17-9.39,8.29,2.76,9.79,1.49-1.48-8.92.22-9.91,6.84,5.42,8.69,4.75,1.66-8.88,3.61-9.23,4.54,7.45,6.54,7.45,4.64-7.78,6.54-7.45,1.79,8.56,3.61,9.23S60.36,9,62,9.94s-1.27,8.65.22,9.91,8.53-3,9.79-1.49S67.91,26,68.9,27.74s9,.09,9.72,1.94-6.54,5.78-6.2,7.73S80.87,40.57,80.87,42.57Z" transform="translate(-5.53 -5.45)" fill="url(#radial-gradient)"/><circle cx="37.93" cy="37.11" r="26.73" fill="#fff"/><circle cx="37.67" cy="37.11" r="24.72" fill="url(#linear-gradient)"/><circle cx="37.67" cy="37.11" r="24.72" fill="url(#radial-gradient-2)" style="mix-blend-mode:multiply"/><path d="M62.52,36.44C62.1,26.63,53.61,18.8,43.21,18.8S24.31,26.63,23.89,36.44Z" transform="translate(-5.53 -5.45)" fill="url(#linear-gradient-2)" style="mix-blend-mode:screen"/><path d="M56.73,28.65c-.3-5.47-6.28-9.84-13.61-9.84S29.8,23.17,29.5,28.65Z" transform="translate(-5.53 -5.45)" fill="url(#linear-gradient-3)" style="mix-blend-mode:screen"/><g opacity="0.5"><text transform="translate(28.16 48.61) scale(0.99 1)" font-size="39.12" fill="#d96e4c" font-family="ABeeZee-Regular, ABeeZee Regular">?</text></g></g></g></svg>