<svg id="Layer_1" data-name="Layer 1" xmlns="http://www.w3.org/2000/svg" xmlns:xlink="http://www.w3.org/1999/xlink" viewBox="0 0 137.99 139.36"><defs><style>.cls-1{fill:url(#linear-gradient);}.cls-2{fill:url(#linear-gradient-2);}.cls-3{fill:url(#linear-gradient-3);}.cls-4{fill:url(#linear-gradient-4);}.cls-5{fill:#33bcff;}.cls-6{fill:url(#linear-gradient-5);}.cls-7{fill:url(#linear-gradient-6);}.cls-8{fill:url(#linear-gradient-7);}.cls-9{fill:url(#linear-gradient-8);}.cls-10{fill:url(#linear-gradient-9);}.cls-11{fill:#a8e2ff;}</style><linearGradient id="linear-gradient" x1="-500.92" y1="286.52" x2="-500.21" y2="344.91" gradientTransform="matrix(-0.71, -0.71, -0.71, 0.71, -108.41, -549.57)" gradientUnits="userSpaceOnUse"><stop offset="0" stop-color="#77bd4b"/><stop offset="0.2" stop-color="#74b947"/><stop offset="0.4" stop-color="#69ae3b"/><stop offset="0.6" stop-color="#589a28"/><stop offset="0.79" stop-color="#417f0c"/><stop offset="0.81" stop-color="#3e7c09"/></linearGradient><linearGradient id="linear-gradient-2" x1="-483.28" y1="326.3" x2="-504.35" y2="316.5" gradientTransform="matrix(-0.71, -0.71, -0.71, 0.71, -108.41, -549.57)" gradientUnits="userSpaceOnUse"><stop offset="0" stop-color="#f2f9ee"/><stop offset="0.09" stop-color="#e1f1d7"/><stop offset="0.31" stop-color="#bbdea5"/><stop offset="0.52" stop-color="#9ed07e"/><stop offset="0.71" stop-color="#88c662"/><stop offset="0.88" stop-color="#7cbf51"/><stop offset="1" stop-color="#77bd4b"/></linearGradient><linearGradient id="linear-gradient-3" x1="-612.38" y1="286.67" x2="-581.07" y2="286.67" xlink:href="#linear-gradient"/><linearGradient id="linear-gradient-4" x1="-612.38" y1="286.67" x2="-581.07" y2="286.67" xlink:href="#linear-gradient-2"/><linearGradient id="linear-gradient-5" x1="-578.49" y1="330.18" x2="-514.38" y2="330.84" gradientTransform="matrix(-0.71, -0.71, -0.71, 0.71, -108.41, -549.57)" gradientUnits="userSpaceOnUse"><stop offset="0" stop-color="#77bd4b"/><stop offset="0.15" stop-color="#71b644"/><stop offset="0.36" stop-color="#60a330"/><stop offset="0.61" stop-color="#448310"/><stop offset="0.71" stop-color="#387502"/><stop offset="0.79" stop-color="#3d7a08"/><stop offset="0.9" stop-color="#4b8a18"/><stop offset="1" stop-color="#5d9f2d"/></linearGradient><linearGradient id="linear-gradient-6" x1="-571.71" y1="330.97" x2="-561.42" y2="330.97" xlink:href="#linear-gradient-2"/><linearGradient id="linear-gradient-7" x1="-612.71" y1="312.15" x2="-581.82" y2="312.15" xlink:href="#linear-gradient-5"/><linearGradient id="linear-gradient-8" x1="-503.74" y1="286.67" x2="-587.05" y2="286.67" gradientTransform="matrix(0, -1, -1, 0, 361.2, -506.6)" gradientUnits="userSpaceOnUse"><stop offset="0.01" stop-color="#458411"/><stop offset="1" stop-color="#a2d284"/></linearGradient><linearGradient id="linear-gradient-9" x1="-578.82" y1="277.86" x2="-515.83" y2="294.45" gradientTransform="matrix(-0.71, -0.71, -0.71, 0.71, -108.41, -549.57)" gradientUnits="userSpaceOnUse"><stop offset="0.19" stop-color="#3e7c09"/><stop offset="0.21" stop-color="#417f0c"/><stop offset="0.4" stop-color="#589a28"/><stop offset="0.6" stop-color="#69ae3b"/><stop offset="0.8" stop-color="#74b947"/><stop offset="1" stop-color="#77bd4b"/></linearGradient></defs><title>jug-anim-1</title><path class="cls-1" d="M45.16,9.41l-5.28,8.75S25.1-4.36,20.59,22.08c0,0-3.15,27.86-2.28,30.81l-5,7.36S10.16-9.66,34.46,1.13C34.46,1.13,41.41,4.62,45.16,9.41Z"/><path class="cls-2" d="M45.16,9.41l-5.28,8.75S25.1-4.36,20.59,22.08c0,0-3.15,27.86-2.28,30.81l-5,7.36S10.16-9.66,34.46,1.13C34.46,1.13,41.41,4.62,45.16,9.41Z"/><path class="cls-3" d="M103.8,61.28l15.08,27.9L97.57,68.57S97.82,63.8,103.8,61.28Z"/><path class="cls-4" d="M103.8,61.28l15.08,27.9L97.57,68.57S97.82,63.8,103.8,61.28Z"/><path class="cls-5" d="M103.8,61.28l15.08,27.9L97.57,68.57S97.82,63.8,103.8,61.28Z"/><path class="cls-6" d="M45,9.24.56,80.35s-2.19,3.46,2.14,8.26c0,0,11.43,18.36,25.35,24.77,0,0,4,2.95,9.47-1.5l65.79-43Z"/><path class="cls-7" d="M43.73,88.89c15-11.28,28.8-24,42.32-36.95l.43-.41,8.06,8.23q-1.47,1.53-3,3.05c-4,4-8.22,7.73-12.54,11.37a276,276,0,0,1-47.33,32.69q-4,2.15-8.12,4a5.64,5.64,0,0,0-.54-.33,6.6,6.6,0,0,0-.9-.71,39.75,39.75,0,0,1-4.45-3.43l-.54-.58A194,194,0,0,0,43.73,88.89Z"/><path class="cls-8" d="M118.88,89.19,64.27,94.52S81.11,71.05,98.09,68.4Z"/><ellipse class="cls-9" cx="74.53" cy="38.77" rx="9.92" ry="41.77" transform="translate(-5.59 64.06) rotate(-45)"/><path class="cls-10" d="M68.21,45.1C76,52.93,84.13,59.57,91,63.79c7.41,4.56,11.27,5,12.41,3.83s.73-5-3.83-12.41c-4.21-6.84-10.85-14.92-18.69-22.76S64.93,18,58.09,13.76c-7.41-4.56-11.27-5-12.41-3.83s-.73,5,3.83,12.41C53.73,29.18,60.37,37.26,68.21,45.1Z"/><path class="cls-5" d="M116.31,86.51a13.72,13.72,0,0,1,1.08,3.6c.83,4.11,9.67,45.11,10.4,49.25H138c0-.26-1.52-7.64-1.56-7.9-.78-3.55-8.27-36.82-9.26-40.31A165.93,165.93,0,0,0,118.37,71c-2.87-5.84-5.88-11.87-10.93-16s-11.63-5.84-18.1-6.48a64.21,64.21,0,0,0-17,.59c2.17,2.29,5,4.2,7.35,6.37a77.36,77.36,0,0,0,6,4.94c.52.39,1,.8,1.56,1.16a5.56,5.56,0,0,0,1,.39,7.5,7.5,0,0,1,1.09.75l.37.25.55.38a23.48,23.48,0,0,0,2.27,1.43l.79.4.67.3c.2.09.35.2.54.3.44.23.9.41,1.36.61l.43.21,1.31.57a5.24,5.24,0,0,1,1.13.73,5.06,5.06,0,0,1,.51.42c.67.61.92,1.56,1.51,2.15l12.85,12.69A13.73,13.73,0,0,1,116.31,86.51Z"/><path class="cls-11" d="M120.11,81.89c2.27,4.55,1.25,7.61.23,11.69,2-5.1-1-10.2-.5-15.65C119.81,79.13,120,80.68,120.11,81.89Z"/><path class="cls-11" d="M125.91,96.11a23.45,23.45,0,0,0,1.82,6.27l0,.1h.78c-.42-1.22-1.07-2.37-1.46-3.6a17.09,17.09,0,0,1-.55-2.75c-.3-2.09-.42-4.32-.92-6.37a9.16,9.16,0,0,0,0,3.11A31.71,31.71,0,0,0,125.91,96.11Z"/><path class="cls-11" d="M122,102.48h0V100a9.34,9.34,0,0,0-.05-1.12,3,3,0,0,0-.56-1.48,1.49,1.49,0,0,0-.8-.56,13.54,13.54,0,0,0,.88,2.21A11.1,11.1,0,0,1,122,102.48Z"/><path class="cls-11" d="M114.24,76.31l0-2.87a9.33,9.33,0,0,0-.05-1.12,3,3,0,0,0-.56-1.48,1.49,1.49,0,0,0-.8-.56,13.54,13.54,0,0,0,.88,2.21A11.32,11.32,0,0,1,114.24,76.31Z"/><path class="cls-11" d="M97.91,58.58a30.46,30.46,0,0,1,15,9.9,11.62,11.62,0,0,0-2.11-4.94A11.62,11.62,0,0,0,106,60.72l-6.71-2.53A16.2,16.2,0,0,0,94.77,57a5.09,5.09,0,0,0-3.23.66C93.4,58.3,95.89,58,97.91,58.58Z"/><path class="cls-11" d="M100.78,54.6l-4-1.66a10.33,10.33,0,0,0-3.89-1l-2.46-.25a24.73,24.73,0,0,0-2.53-.17,11.07,11.07,0,0,0-4.1.72A37,37,0,0,1,100.78,54.6Z"/></svg>