<?xml version="1.0" encoding="utf-8"?>
<!-- Generator: Adobe Illustrator 20.1.0, SVG Export Plug-In . SVG Version: 6.00 Build 0)  -->
<svg version="1.1" id="Layer_1" xmlns="http://www.w3.org/2000/svg" xmlns:xlink="http://www.w3.org/1999/xlink" x="0px" y="0px"
	 viewBox="0 0 85 82" style="enable-background:new 0 0 85 82;" xml:space="preserve">
<g id="Sprite_sprite_98_1_">
	<path style="fill:#6666FF;" d="M75.9,28.1c0-1.9-1.8-3-5.4-3.3l-4.1,0.4l-0.3-0.4c-7.8,0.8-14.2,4-19.1,9.5l-1.4,1.8l0.3,0.1
		l0.3,0.1l0.3,0l-0.1,0.1l-0.3-0.1l-0.2,0.2l0.3,0.4l-0.4,0.3l12.3,4.1L47,38.1l0.2,0.7l0.1,0.1l0.6,0.8l2.5,2.5l0.1,0.1l1,0.8
		l0.4,0.2l0.1-0.1l9,2.6l2.3,0.2c-0.9-1.7-2.1-3-3.8-3.9l-0.8-0.4L62,43l0.8-0.3l0.4-1.8L63,40.7c1.8,0.1,2.5-0.7,2.2-2.4L65.1,38
		l1.8-0.7c0.4-0.5,0.5-1.1,0.3-1.8l-0.7-1.3l0.5,0l0.5,0.2l0.5-0.1l1.8-0.5l-0.6-2l3.5,0l-0.3-0.7l-3.9-1.5L65.4,29l-1,1.6l-0.4,1
		l-0.1,0c-0.9,0.4-1.7,0.2-2.3-0.3l-0.7-0.6l1-3.5l0.4-0.3C71.4,29.6,75.9,30,75.9,28.1"/>
	<path d="M70.5,24.8c3.6,0.3,5.3,1.4,5.4,3.3c0,1.9-4.5,1.5-13.6-1.1l-0.4,0.3l-1,3.5l0.7,0.6c0.6,0.5,1.4,0.6,2.3,0.3l0.6-1l1-1.6
		l3.1,0.6l3.9,1.5l0.3,0.7l-3.5,0l0.6,2l-1.8,0.5l-0.5,0.1l-0.5-0.2l-0.5,0l0.7,1.3c0.2,0.7,0.1,1.3-0.3,1.8l-1.8,0.7l0.1,0.2
		c0.3,1.7-0.4,2.5-2.2,2.4l0.2,0.2l-0.4,1.8L62,43l-3.3-1.4l0.8,0.4c1.7,0.9,3,2.2,3.8,3.9l-0.2,0.5l-2.1-0.7l-9-2.6l0.4,0.3
		l0.6,0.7l-0.4,1.2c1.9,0.8,3.4,1.9,4.3,3.3c0.9,1.4,1.1,2.8,0.6,4l0.4,0.9c0.7,2.6-0.3,4-3.3,4.1l-1,2.3l-0.7,0.9l-2.2-0.4
		l-0.4,0.5c-1,1.3-2.3,1.7-3.9,1.2l-0.2-0.7c-1.1,0.5-2,0.3-2.7-0.5l-0.2-0.2l-1.2,0.3l-1.4-0.5l0.4-3.4l0.1-0.9l0.2-0.4L40.7,56
		l-0.6-0.5l-0.5-6.3c-0.9,5.1-1.4,10.5-1.3,16l-0.1,0.1l1.1,1.9l0.7,2.1l0,0.4l0.4,0.3l1.6,0.3l0.3,0l0.5,0.2l0.4-0.2l0.4,0.3
		c0.6,0.4,1.3,0.5,2,0.2l0.4,0.3l2.1,0.7l1.2-0.6l0.1-0.3l0.3,0.1l0.8,2.3l-0.4,3c-1,2.5-0.3,4.4,2,5.5l0.4-0.2l1.1-1.4
		c-2.5-4.5-2.6-8.9-0.2-13.3l0.7,0l1.3,0.1l0.6-0.7l0.2-0.4l0.4-0.2l0.2-0.5l0.8-0.3l0.1-0.1l0.8-0.4l0.4-0.9c0.5-1,1.4-1.3,2.5-1
		l1-0.8l0.1-0.7l0-0.4l0.1,0.1l0.2-0.1l0.5,0l0.6-1l-0.3-0.4c-0.1-1,0.3-1.9,1.1-2.6l0.4-1l0.1-2.5l0.2-0.5L65,50l0.2-1.3l0.4-0.3
		c1-0.3,2.1-0.4,3.2-0.3l0.1-0.1l0.9-0.2l0.6-0.4l1.6-1.6l0.2-0.2l0.8-1.8l0.5-0.4l0.2-0.1l0.5-0.5l0.4-0.9l0.8-1
		c0.8-0.7,1.1-1.5,0.9-2.5l1-0.9l0.3-0.8l0.5-0.1c1.2-0.6,2-1.6,2.2-2.9l0-0.3l0.4-0.2l0.8-0.3c0.8-0.6,1.2-1.4,1.4-2.5l0-0.4
		l0.4-0.2c1.8-1.2,2.1-2.6,0.9-4.3c-1.1-1.7-2.7-2.9-4.9-3.4c-2-0.6-4.8-0.8-8.3-0.6l-9.6,1.9L55,26.4l-10.2,7.8l-0.3,0
		c0.2-0.7,0.5-1.3,0.9-1.7L45,32l-0.5-0.2l-0.5,0l-0.6-0.2l-0.2-0.2L43,31.2l-0.4-0.2l-0.7,0c-0.1,0.5-0.4,1.1-0.8,1.8l-0.1-0.2
		l-1.5-12.3L37,14.1l-5.7-7.9C28.9,3.7,26.8,2,25,1.1c-1.9-1-3.9-1.3-6-0.8c-2.1,0.4-2.9,1.6-2.4,3.7l0,0.3l-0.2,0.4
		c-0.8,0.8-1.1,1.7-1,2.6L15.8,8L16,8.3l-0.2,0.2c-0.7,1.1-0.8,2.3-0.4,3.6l0.2,0.4l-0.3,0.8l0,1.4c-0.8,0.6-1.1,1.4-1.1,2.4
		l-0.4,1.2l-0.4,0.9l0,0.7l0.1,0.2l0,0.3l0.2,0.4l-0.8,1.8l0,0.3l0,2.2l0,0.6l0.5,0.8l0.1,0.2c0.8,0.6,1.5,1.4,2.1,2.3l0.1,0.5
		l-0.8,1l-0.4,0.2l-2.1,1.6l-0.2,0.5l-1.8,1.9l-0.4,1c0.1,1-0.3,1.9-1.1,2.6l-0.5,0.1l-0.2,1.1l0.4,0.3l0.1,0.2l0.1,0.1l-0.3,0.3
		L8,40.8l0,1.2c1.2,0.6,1.6,1.4,1.2,2.4l-0.4,0.9L9,46.1L9,46.2l0.3,0.7l-0.2,0.5l0,0.3l-0.2,0.4L9,49.1l1.3,1.2
		c-1.5,4.8-4.9,7.9-10,9.4L0,61.4l0.2,0.4c2.6,0.7,4.4-0.2,5.5-2.6l2-2.4l2.3-1.1l0.3,0.1L10.1,56l0.4,1.2l2.2,1l0.5,0
		c0.2,0.7,0.7,1.1,1.6,1.2l0.3,0l0.3,0.4l0.4,0.2l0.2,0.2l1.4,0.9l0.5,0l0.3-0.3l2.1-1l2.4-0.6l0.1-0.1c4.2-3.9,7.8-8.1,10.8-12.3
		L28.5,51l-0.8,0l-0.3-0.7l-0.2,0.4l-0.6,0.7L24.3,54l-1.4-0.5l-0.5-1l-0.5,0c-1.1,0.1-1.8-0.4-2.1-1.4l-0.8,0.3
		c-1.5-0.7-2.1-1.8-1.8-3.4l0.1-0.6l-2-1.2l0.3-1.1l1-2.3c-2-2.1-1.7-3.8,0.7-5.1l0.8-0.4c0.5-1.2,1.6-2,3.3-2.4
		c1.8-0.4,3.6-0.2,5.6,0.5l0.8-1l1-0.1l0.3,0l-8.4-4.2l-2-0.9l0.2-0.5c1.9-0.6,3.7-0.7,5.6-0.2l1,0.2l-3.5-1.2l-0.2-0.7l0.9-1.6
		l0.3,0c-1.4-1.1-1.2-2.2,0.4-3.1l0.1-0.1l-0.8-1.6c0.1-0.7,0.5-1.2,1.1-1.5l1.6-0.4L25.2,18l-0.7-0.3l-0.3-0.4l-0.8-1.5l1.8-1.1
		l-2.4-2.3l0.6-0.4l4,1.6l2.5,1.6L29.5,17l-0.3,1.1c0.5,0.9,1.2,1.3,2,1.4l0.9,0.1l1.7-3.2l0.1-0.4C25.5,11.7,22,9,23.4,7.6
		c1.5-1.3,3.6-0.9,6.4,1.3l2.6,3l0.5-0.1c4.8,5.8,7,12.3,6.5,19.5L39,33.5l-0.3-0.1l-0.2,0.2l-0.4,0.2l0.1,0.5l-11.9-5.4L36.5,34
		l-0.6,0.4l-0.2,0.4l0.7,0.3l1,0.2l0.3,0l0.8,0.8l0.1,0.2l-2.3,6.7l0.3-0.3l0.1-0.1l0.5-0.4l-0.4,0.5l0.1,0.1l-0.5,1.2l-0.2,0.4
		l-0.4,0.5L35.3,46l-0.1,0.3c-0.8,1.5-1.1,3-0.7,4.7l0.2,0.5l-0.1,0.1l0.1,0.1L34.6,52l0.2-0.1l0.2,0.2l0.2-0.5l0.6-0.2
		c1.5-0.9,2.6-2.1,3.1-3.7l0.1-0.3l0.6-1.4l0.1-0.6l0.2-0.4l0.4-1.2l0.3,0.1l0.1-0.6l0,0.6l-0.1,0.1l0,0.4l3.4-6.3l0.1-0.1l1.1,0
		l0.4,0.3l0.8,0.4l0.7,0.3l0.2-0.4l-0.2-0.7l11.1,3.1l-12.3-4.1l0.4-0.3l-0.3-0.4l0-0.3l-0.1-0.1l1.4-1.8c5-5.5,11.3-8.7,19.1-9.5
		l0.3,0.4L70.5,24.8"/>
	<path style="fill:#0038DB;" d="M43.3,32.7l-0.3,0.6l0.1,0.1l0.3-0.6L43.3,32.7"/>
	<path style="fill:#0039DB;" d="M45.1,35.9l1.6-2.2l-2.6,2.6L45.1,35.9"/>
	<path style="fill:#0039DB;" d="M39.7,33.8l0.4,0.9L40,31.1L39.7,33.8"/>
	<path style="fill:#0038DA;" d="M64,31.7l0.4-1l-0.6,1L64,31.7"/>
	<path d="M53.6,21.5l0.1,0.8l1,0.2l0.1-1l-0.5-0.3L53.6,21.5"/>
	<path style="fill:#0038DA;" d="M46.2,36.3l-0.3-0.1l0,0.3L46.2,36.3"/>
	<path style="fill:#0038DA;" d="M46.4,36.4l0.1-0.1l-0.3,0L46.4,36.4"/>
	<path style="fill:#0038DB;" d="M47,39.2l-0.7-0.3l0,0.3l0.7,0.9l0.2-1.3l-0.1-0.1L47,39.2"/>
	<path style="fill:#0038DB;" d="M46.3,38.9l-0.8-0.4l0.8,0.8L46.3,38.9"/>
	<path style="fill:#6666FF;" d="M46.4,39.2l-0.8-0.8l-0.4-0.3l-1.1,0l-0.1,0.1l-3.4,6.3l-1,4.5l0.5,6.3l0.6,0.5l0.6-0.4l-0.2,0.4
		l0.4-0.2l-0.4,1l-0.4,3.4l1.4,0.5l1.2-0.3l0.2,0.2c0.7,0.8,1.6,0.9,2.7,0.5l0.2,0.7c1.6,0.5,2.9,0.1,3.9-1.2l0.4-0.5l2.2,0.4
		l0.7-0.9l1-2.3c2.9-0.2,3.9-1.6,3.3-4.1l-0.4-0.9c0.5-1.2,0.3-2.5-0.6-4c-1-1.5-2.4-2.6-4.3-3.3l-1.5-1.7l-0.7-0.1l0.1-1.3
		l-2.5-2.5l-0.1,0.9l-0.8-0.4L47,42.2l0.3,2.4l0.7,0.6l-0.3,0.9L47.6,46l1,1.7l3.2,2.3l0.2-0.2l0.1,0.1l0.2,0.2l0.1,0.2l-0.5,0.4
		l-1.9,2.5l0.1,0.2l-0.1-0.1l-1.8-0.3l-2-0.9l-0.4-2.1l0.1-0.1l0.2-5.7l0.1-0.7l0.1-2.1L46.4,39.2"/>
	<path style="fill:#0039DB;" d="M44.1,43.3l0.2,0.7l0-0.6L44.1,43.3"/>
	<path style="fill:#0039DB;" d="M50.3,43.5l0.7,0.1l-0.5-1.4l-0.1-0.1L50.3,43.5"/>
	<path style="fill:#0039DB;" d="M50.5,42.2l0.5,1.4l0.4-0.6L50.5,42.2"/>
	<path style="fill:#0038DA;" d="M51.5,43l-0.4,0.6l1.5,1.7l0.4-1.2l-0.6-0.7L52,43.2L51.5,43"/>
	<path style="fill:#0038DA;" d="M51.9,43.2l0.4,0.2L52,43.1L51.9,43.2"/>
	<path style="fill:#0039DB;" d="M47,42.2l0.1-2.1l-0.7-0.9l0,2.2L47,42.2"/>
	<path style="fill:#0038DA;" d="M47,42.2l-0.6-0.7l-0.1,2.1l1,1L47,42.2"/>
	<path style="fill:#0038DB;" d="M47.9,40.6l0.1-0.9l-0.6-0.8l-0.2,1.3L47.9,40.6"/>
	<path style="fill:#0039DB;" d="M47.8,46.1l0.3-0.9l-0.7-0.6l0.3,1l0,0.3L47.8,46.1"/>
	<path style="fill:#0038DA;" d="M47.6,46l0.1,0.1l-0.1-0.2L47.6,46"/>
	<path style="fill:#0038DA;" d="M47.6,46l0.1-0.1l-1.5-1.7L45.9,50L46,50l0.8-0.3l1.8-2L47.6,46"/>
	<path style="fill:#0039DB;" d="M47.7,45.9l0-0.3l-0.3-1l-1-1l-0.1,0.7L47.7,45.9"/>
	<path style="fill:#0038DB;" d="M63.3,45.9L61,45.7l2.1,0.7L63.3,45.9"/>
	<path style="fill:#646464;" d="M83.4,30.3l0.1-0.3l-0.4,0.2L83.4,30.3"/>
	<path style="fill:#BFBFBF;" d="M83.1,30.6l0.3-0.3l-0.3-0.1L83.1,30.6"/>
	<path style="fill:#434343;" d="M81,33.4l-0.4,0.2l0.3,0.1L81,33.4"/>
	<path style="fill:#CECECE;" d="M80.7,33.8l0.2-0.2l-0.3-0.1L80.7,33.8"/>
	<path style="fill:#2F2F2F;" d="M62.8,60.8l-0.2,0.1l0.1,0.1L62.8,60.8"/>
	<path style="fill:#A8A8A8;" d="M62.5,61.2l0.3-0.3l-0.1-0.1l-0.1-0.1L62.5,61.2"/>
	<path style="fill:#0039DB;" d="M51.8,50l0.1,0.1l0.5,0l-0.2-0.2l-0.1-0.1L51.8,50"/>
	<path d="M52,50.1L51.8,50l-2.1,1l-0.5,0.7L46,50l-0.2,0.1l0.4,2.1l2,0.9l1.8,0.3l0.1-0.1l1.3-2.3l0.6-0.2L52,50.1"/>
	<path style="fill:#0039DB;" d="M52,50.1l0,0.6l0.5-0.4l-0.1-0.2L52,50.1"/>
	<path style="fill:#0038DA;" d="M52,50.7l-0.6,0.2l-1.3,2.3L52,50.7"/>
	<path style="fill:#0038DA;" d="M50.1,53.4l0.1,0.1l-0.1-0.2L50.1,53.4"/>
	<path style="fill:#7E7E7D;" d="M56.1,66.4l0.4-0.3l-0.3-0.1L56.1,66.4"/>
	<path style="fill:#4C4D4C;" d="M56.5,66.2l0.1-0.3l-0.4,0.2L56.5,66.2"/>
	<path style="fill:#0038DA;" d="M49.3,51.7l0.5-0.7l2.1-1l-3.2-2.3l-1.8,2L46.1,50L49.3,51.7"/>
	<path style="fill:#0038DA;" d="M45.8,50.1L46,50L45.9,50L45.8,50.1"/>
	<path style="fill:#9C9B9C;" d="M39.7,46l0.1,0.1l0.2-0.5l-0.3-0.1L39.7,46"/>
	<path style="fill:#726F73;" d="M39.8,46.1L39.7,46l-0.6,1.4L39.8,46.1"/>
	<path style="fill:#E5D8C6;" d="M40,45.6l-0.1-0.5l-0.2,0.4L40,45.6"/>
	<path style="fill:#0039DB;" d="M41.2,56l-0.1,0.9l0.4-1L41.2,56"/>
	<path style="fill:#BFBFBF;" d="M16.5,4.2l0,0.4l0.2-0.4L16.5,4.2"/>
	<path style="fill:#646464;" d="M16.6,3.9l-0.1,0.3l0.1,0.1L16.6,3.9"/>
	<path style="fill:#CECECE;" d="M15.8,8.5L16,8.3l-0.3-0.1L15.8,8.5"/>
	<path style="fill:#434343;" d="M15.8,8l-0.1,0.3L16,8.3L15.8,8"/>
	<path d="M44.2,17.8l-0.3-0.7l-0.5,0l-0.7,0.8l0.8,0.4L44.2,17.8"/>
	<path style="fill:#6666FF;" d="M34,16.4l-1.7,3.2l-0.9-0.1c-0.8,0-1.5-0.5-2-1.4l-0.2-0.1l0.4-1l0.4-1.8l-2.5-1.6l-4-1.6l-0.6,0.4
		l2.4,2.3l-1.8,1.1l0.8,1.5l0.3,0.4l0.7,0.3l0.4,0.3L24,18.8c-0.7,0.3-1,0.8-1.1,1.5l0.8,1.6L23.6,22c-1.6,1-1.7,2-0.4,3.1l-0.3,0
		L22,26.8l0.2,0.7l3.5,1.2l-1-0.2c-1.8-0.5-3.7-0.4-5.6,0.2l1.8,1.4l8.4,4.2l-0.1,0.1l0.4,0.2l1.4,0.1l3.8,0l1-0.2l0.6-0.4
		l-10.2-5.2l11.9,5.4l-0.1-0.5l0.4-0.2l0.1-0.3l-0.4-0.2l0.1-0.1l0.4,0.3l0.1,0.1l0.3,0.1l0.5-2.2c0.5-7.3-1.7-13.8-6.5-19.5
		l-0.5,0.1l-2.6-3c-2.7-2.1-4.8-2.6-6.4-1.3C22,9,25.5,11.7,33.9,15.9L34,16.4"/>
	<path style="fill:#0038DA;" d="M29.6,17.1l-0.4,1l0.1,0.1L29.6,17.1"/>
	<path style="fill:#0038DB;" d="M19.2,28.6l-0.2,0.5l2,0.9L19.2,28.6"/>
	<path style="fill:#0038DA;" d="M38.5,33.6l0.2-0.2l-0.1-0.1L38.5,33.6"/>
	<path style="fill:#0038DA;" d="M38.2,33.1l-0.1,0.1l0.4,0.2L38.2,33.1"/>
	<path style="fill:#6666FF;" d="M31.1,34.6l-0.9,1l-0.5-0.3l-2.5,0.1c-1.9-0.8-3.8-0.9-5.6-0.5c-1.7,0.4-2.8,1.2-3.3,2.4l-0.8,0.4
		c-2.5,1.3-2.8,3-0.7,5.1l-1,2.3l-0.3,1.1l2,1.2L17.5,48c-0.4,1.6,0.3,2.7,1.8,3.4l0.8-0.3c0.3,1,1,1.5,2.1,1.4l0.5,0l0.5,1l1.4,0.5
		l2.3-2.7l0.4-1l0.2,0.4l0.2-0.4l0.3,0.7l0.8,0l4.9-4.2l2.8-3.8l2.3-6.7L38.5,36l-0.8-0.8l-0.3,0l-1.3-0.1l-1.5,1.7l-1.5,1.5
		l-0.5,0.5l-4,4.3l-0.1,0.1l-1.8,1.2l-2.1-0.7L23,42.8l-0.1-0.1l0.2-0.1l0.5-3.1l0.1-0.6l0.2-0.1l0.2-0.1l0.1,0.1l0.2,0.4l3.9,0.5
		l2-0.6l-0.1-0.1l0.7-0.8l0.9,0.1l1.8-1.5l1.6-1.5l-1-0.2l0.7-0.6L31.1,34.6"/>
	<path style="fill:#0039DB;" d="M34.6,39.6L34.1,40l0.6-0.4L34.6,39.6"/>
	<path style="fill:#0039DB;" d="M30.1,35.6l0.9-1l-1.4,0.7L30.1,35.6"/>
	<path style="fill:#0038DA;" d="M29.3,34.4l0.1-0.1l-0.3,0L29.3,34.4"/>
	<path style="fill:#0039DB;" d="M29.7,34.5l0,0.7l1.4-0.7L29.7,34.5"/>
	<path style="fill:#0038DA;" d="M29.7,35.3l0-0.7l-0.4-0.2L29,34.3l-1,0.1l-0.8,1L29.7,35.3"/>
	<path style="fill:#0038DA;" d="M30.3,39.1l-0.1,0.1l-2,0.6L28,42.4l0.3,0.7l0.3,0.1l4-4.3L30.3,39.1L30.3,39.1"/>
	<path style="fill:#0038DA;" d="M30.2,39.2l0.1-0.1l-0.2,0.1L30.2,39.2"/>
	<path style="fill:#0039DB;" d="M30.3,39.1l0.1,0.1l0.2-0.2L30.3,39.1"/>
	<path style="fill:#0039DB;" d="M30.1,39.2l0.2-0.1l0.4-0.2l1-0.5l-0.9-0.1L30.1,39.2"/>
	<path style="fill:#0039DB;" d="M30.6,38.9l-0.2,0.2l2.2-0.2l0.5-0.5l-1.5,0L30.6,38.9"/>
	<path style="fill:#0038DB;" d="M36.1,35.3l0.2-0.2l-0.7-0.3l0.2-0.4l-0.8,1L36.1,35.3"/>
	<path style="fill:#0038DB;" d="M36.4,35l-0.2,0.2l1.3,0.1L36.4,35"/>
	<path style="fill:#0038DB;" d="M35.1,35.4l0.8-1l-1,0.2l-0.7,0.6L35.1,35.4"/>
	<path style="fill:#0039DB;" d="M35.1,35.4l-1.6,1.5l1.1,0l1.5-1.7L35.1,35.4"/>
	<path style="fill:#0038DA;" d="M34.6,36.9l-1.1,0l-1.8,1.5l1.5,0L34.6,36.9"/>
	<path style="fill:#9C9B9C;" d="M35.8,44.5l0.1,0.1l0.4-0.5L36,44L35.8,44.5"/>
	<path style="fill:#726F73;" d="M35.9,44.6l-0.1-0.1L35.3,46L35.9,44.6"/>
	<path style="fill:#E5D8C6;" d="M36.5,43.8L36.1,44l0.3,0.1L36.5,43.8"/>
	<path style="fill:#0038DA;" d="M28.4,43.1l0.2,0.2l0.1-0.1L28.4,43.1"/>
	<path d="M28.6,43.4l-0.2-0.2l-3.5-0.9l0.2-0.8l-0.7-2.1l-0.3-0.1l-0.5,0.4l0.1,0.2l0.3,0.4L23,42.7L23,42.8l1.6,1.1l2.1,0.7
		L28.6,43.4"/>
	<path style="fill:#0038DA;" d="M28,42.4l0.2-2.6l-3.9-0.5l0.7,2.1l-0.2,0.8l3.5,0.9L28,42.4"/>
	<path style="fill:#0039DB;" d="M24.2,39l-0.1-0.1L23.9,39l0.2,0.2l0.3,0.1L24.2,39"/>
	<path style="fill:#0039DB;" d="M23.9,39l-0.2,0.1l-0.1,0.6l0.5-0.4L23.9,39"/>
	<path style="fill:#0038DA;" d="M23.7,39.8l-0.1-0.2l-0.5,3.1l0.9-2.5L23.7,39.8"/>
	<path style="fill:#0038DA;" d="M23.1,42.7l-0.2,0.1l0.1,0.1L23.1,42.7"/>
	<path style="fill:#0039DB;" d="M27.2,50.3l-0.4,1l0.6-0.7L27.2,50.3"/>
	<path style="fill:#A8A8A8;" d="M8.5,40.2l0.3-0.3l-0.1-0.1l-0.1-0.1L8.5,40.2"/>
	<path style="fill:#2F2F2F;" d="M8.5,39.7l0.1,0.1l-0.1-0.2L8.5,39.7"/>
	<path style="fill:#4C4D4C;" d="M9.3,47.7l0-0.3l-0.1,0.3L9.3,47.7"/>
	<path style="fill:#7E7E7D;" d="M9.1,48.1l0.2-0.4l-0.1-0.1L9.1,48.1"/>
	
		<path vector-effect="non-scaling-stroke" style="fill:none;stroke:#000000;stroke-width:0.5;stroke-linecap:round;stroke-linejoin:round;" d="
		M52.3,23.1l1.3-0.8 M44.4,31.8c2.1-3.4,4.8-6.3,8-8.7 M43.8,19.8l-0.3-1.5 M43,31.3c1-3.8,1.2-7.6,0.7-11.5"/>
	
		<path vector-effect="non-scaling-stroke" style="fill:none;stroke:#000000;stroke-width:0.5;stroke-linecap:round;stroke-linejoin:round;" d="
		M45.6,36.1l0.3,0.1l0.3,0.1l0.3,0 M46.4,36.4l-0.3-0.1l-0.2,0.2 M47.2,38.8l0.1,0.1l0.6,0.8l2.5,2.5l0.1,0.1l1,0.8l0.4,0.2
		 M66.4,34.3l0.5,0 M67.5,34.5l0.5-0.1 M65.4,29.1l-1,1.6l-0.4,1l-0.1-0.1"/>
	
		<path vector-effect="non-scaling-stroke" style="fill:none;stroke:#000000;stroke-width:0.5;stroke-linecap:round;stroke-linejoin:round;" d="
		M25.7,18.4l-0.4-0.3 M24.6,17.8l-0.3-0.4 M30.1,15.3l-0.4,1.8 M39,33.5l-0.3-0.1 M38.5,36l0.1,0.2 M44,38.3l0.1-0.1"/>
	
		<path vector-effect="non-scaling-stroke" style="fill:none;stroke:#000000;stroke-width:0.5;stroke-linecap:round;stroke-linejoin:round;" d="
		M46.3,38.9l0,0.3 M47.1,40.1l0.2-1.3"/>
	
		<path vector-effect="non-scaling-stroke" style="fill:none;stroke:#000000;stroke-width:0.5;stroke-linecap:round;stroke-linejoin:round;" d="
		M41.2,56l0.4-0.2 M52.6,45.3l-1.5-1.7 M50.3,43.5l0.1-1.3 M47.1,40.1L47,42.2l0.3,2.4 M47.6,46l1,1.7l3.2,2.3 M52.1,49.8l0.1,0.1
		l0.2,0.2l0.1,0.2L52,50.7l-1.9,2.5l0.1,0.2l-0.1-0.1 M45.8,50.1l0.1-0.1l0.2-5.7l0.1-0.7l0.1-2.1l0-2.2"/>
	
		<path vector-effect="non-scaling-stroke" style="fill:none;stroke:#000000;stroke-width:0.5;stroke-linecap:round;stroke-linejoin:round;" d="
		M51.1,43.6l-0.5-1.4"/>
	
		<path vector-effect="non-scaling-stroke" style="fill:none;stroke:#000000;stroke-width:0.5;stroke-linecap:round;stroke-linejoin:round;" d="
		M52.3,43.4l-0.4-0.2"/>
	
		<path vector-effect="non-scaling-stroke" style="fill:none;stroke:#000000;stroke-width:0.5;stroke-linecap:round;stroke-linejoin:round;" d="
		M47.3,44.5l0.3,1l0,0.3"/>
	
		<path vector-effect="non-scaling-stroke" style="fill:none;stroke:#000000;stroke-width:0.5;stroke-linecap:round;stroke-linejoin:round;" d="
		M47.7,45.9L47.6,46"/>
	
		<path vector-effect="non-scaling-stroke" style="fill:none;stroke:#000000;stroke-width:0.5;stroke-linecap:round;stroke-linejoin:round;" d="
		M45.9,50L46,50l0.8-0.3l1.8-2"/>
	
		<path vector-effect="non-scaling-stroke" style="fill:none;stroke:#000000;stroke-width:0.5;stroke-linecap:round;stroke-linejoin:round;" d="
		M52,50.1l0.5,0"/>
	
		<path vector-effect="non-scaling-stroke" style="fill:none;stroke:#000000;stroke-width:0.5;stroke-linecap:round;stroke-linejoin:round;" d="
		M29.3,18.2l-0.1-0.1l0.4-1 M29.3,34.4l0.4,0.2l1.4,0.1l3.8,0l1-0.2 M38.5,33.6l0.1-0.3l-0.4-0.2 M38.2,33.1l0.4,0.3l0.1,0.1"/>
	
		<path vector-effect="non-scaling-stroke" style="fill:none;stroke:#000000;stroke-width:0.5;stroke-linecap:round;stroke-linejoin:round;" d="
		M31.1,34.6l-0.9,1 M29.7,35.3l-2.5,0.1 M27.2,50.3l0.2,0.4 M36.1,35.3l-1.5,1.7l-1.5,1.5L32.6,39l-4,4.3l-0.1,0.1 M23,42.8
		l-0.1-0.1l0.2-0.1l0.5-3.1l0.1-0.6l0.2-0.1l0.2-0.1l0.1,0.1 M24.4,39.3l3.9,0.5l2-0.6 M31.7,38.5l1.8-1.5l1.6-1.5"/>
	
		<path vector-effect="non-scaling-stroke" style="fill:none;stroke:#000000;stroke-width:0.5;stroke-linecap:round;stroke-linejoin:round;" d="
		M31.1,34.6l-1.4,0.7"/>
	
		<path vector-effect="non-scaling-stroke" style="fill:none;stroke:#000000;stroke-width:0.5;stroke-linecap:round;stroke-linejoin:round;" d="
		M29,34.3l0.3,0.1"/>
	
		<path vector-effect="non-scaling-stroke" style="fill:none;stroke:#000000;stroke-width:0.5;stroke-linecap:round;stroke-linejoin:round;" d="
		M30.3,39.1l-0.1,0.1 M28.2,39.8L28,42.4l0.3,0.7l0.3,0.1"/>
	
		<path vector-effect="non-scaling-stroke" style="fill:none;stroke:#000000;stroke-width:0.5;stroke-linecap:round;stroke-linejoin:round;" d="
		M30.4,39.1l0.2-0.2l-0.4,0.2"/>
	
		<path vector-effect="non-scaling-stroke" style="fill:none;stroke:#000000;stroke-width:0.5;stroke-linecap:round;stroke-linejoin:round;" d="
		M30.6,38.9l1-0.5"/>
	
		<path vector-effect="non-scaling-stroke" style="fill:none;stroke:#000000;stroke-width:0.5;stroke-linecap:round;stroke-linejoin:round;" d="
		M36.1,35.3l0.2-0.2 M35.9,34.4l-0.8,1"/>
	
		<path vector-effect="non-scaling-stroke" style="fill:none;stroke:#000000;stroke-width:0.5;stroke-linecap:round;stroke-linejoin:round;" d="
		M23.9,39l0.2,0.2"/>
</g>
</svg>
