<?xml version="1.0" encoding="utf-8"?>
<!-- Generator: Adobe Illustrator 20.1.0, SVG Export Plug-In . SVG Version: 6.00 Build 0)  -->
<svg version="1.1" id="Layer_1" xmlns="http://www.w3.org/2000/svg" xmlns:xlink="http://www.w3.org/1999/xlink" x="0px" y="0px"
	 viewBox="0 0 59.1 54" style="enable-background:new 0 0 59.1 54;" xml:space="preserve">
<g id="cross">
	<g id="Layer_12">
		<g id="Scene_1_f11">
			<g id="MovieClip_sprite_39_1_">
				<path style="fill:#FF0000;" d="M48.4,6.7c-4.8,0-11.2,4.9-19.2,14.6L27,24.4l-1.3-1.7c-5.5-7.1-9.2-14.5-11-22.7
					c-4.1,4.2-6.2,7.7-6.2,10.5c0,3.5,3.9,10,11.7,19.4l1.5,1.7l-2.2,2.8C13.1,42.8,7.3,47.1,2.4,47.1L0,46.8C3,51.6,5.9,54,8.9,54
					c4,0,9.6-4.7,17.1-14.1l1.3-1.7l3,2.8c7.7,8.5,14,12.7,18.6,12.7l5.4-1.7l4.8-8l-4.8,0.8c-5.9,0-12.5-3.8-19.4-11.5L33,31.2
					l2.2-2.4c7.5-8.5,14.1-14,20.1-16.5L54,10.5L48.4,6.7"/>
			</g>
		</g>
	</g>
</g>
</svg>
