<svg id="Layer_1" data-name="Layer 1" xmlns="http://www.w3.org/2000/svg" xmlns:xlink="http://www.w3.org/1999/xlink" viewBox="0 0 154.12 116.48"><defs><style>.cls-1{opacity:0.2;filter:url(#AI_GaussianBlur_4);}.cls-2{fill:#010101;}.cls-3{fill:#5db6e6;}.cls-4{fill:#1e74bb;}.cls-5{fill:#278acb;opacity:0.95;}.cls-5,.cls-6{isolation:isolate;}.cls-6{fill:#1da9e1;opacity:0.9;}.cls-7{fill:#fff;}</style><filter id="AI_GaussianBlur_4" name="AI_GaussianBlur_4"><feGaussianBlur stdDeviation="4"/></filter></defs><title>mathletics-logo</title><g id="math_logo" data-name="math logo"><g class="cls-1"><path class="cls-2" d="M167.6,43.46a8,8,0,0,0-2.36-2.28c.24-1.2.39-1.94.41-2a10.72,10.72,0,0,0-3.07-9.08,8.1,8.1,0,0,0-3.4-2.09,10.92,10.92,0,0,0-4.6-8.11,8,8,0,0,0-3.23-1.38,11,11,0,0,0-5.73-6.84c-4.92-2.5-10.22,1.21-10.22,1.21L87.65,42.69l-.85.19-63.76,3a5.8,5.8,0,0,0-5,2.67,10.59,10.59,0,0,0-1.48,8.24l.52,3.42a7.38,7.38,0,0,0-.79,1.28,10.51,10.51,0,0,0,0,8.39l1.15,3.38A6.5,6.5,0,0,0,15.92,76a10.56,10.56,0,0,0,1.44,8.26l1.22,2.22a6.64,6.64,0,0,0-.87,2.71,10.54,10.54,0,0,0,2.72,7.92l13.34,17.07a10.92,10.92,0,0,0,5.39,4,8.71,8.71,0,0,0,6.24.12l54.78-26.85c21.55,1.19,39.66,2.18,40.07,2.18,1.06,0,4.65.25,9.85-2.82a18,18,0,0,0,7.15-7.89s11.53-29.46,11.75-30A10.71,10.71,0,0,0,167.6,43.46Z" transform="translate(-15.41 -2.32)"/></g><path class="cls-3" d="M33.77,105.73,20.43,88.66a10.54,10.54,0,0,1-2.72-7.92,5.78,5.78,0,0,1,3-4.75L135.4,4.4s5.3-3.71,10.22-1.21a10.84,10.84,0,0,1,5.89,7.57c.07.57,4.4,31.89,4.4,31.89A18,18,0,0,1,153.54,53c-3,5.22-6.29,6.78-7.2,7.27S45.4,109.81,45.4,109.81a8.71,8.71,0,0,1-6.24-.12,10.92,10.92,0,0,1-5.39-4" transform="translate(-15.41 -2.32)"/><path class="cls-4" d="M27.8,94.79l-10.44-19a10.56,10.56,0,0,1-1.44-8.26,5.77,5.77,0,0,1,3.74-4.21L144.31,11s5.82-2.82,10.27.42a10.81,10.81,0,0,1,4.6,8.41c0,.57-.74,32.19-.74,32.19a18,18,0,0,1-4,9.87c-3.84,4.65-7.28,5.69-8.27,6S38.59,100.66,38.59,100.66a8.71,8.71,0,0,1-6.14-1.11,11.11,11.11,0,0,1-4.65-4.75" transform="translate(-15.41 -2.32)"/><path class="cls-5" d="M23.3,81.88l-7-20.48a10.51,10.51,0,0,1,0-8.39,5.87,5.87,0,0,1,4.4-3.51l131.8-30.11s6.21-1.78,10,2.2a10.72,10.72,0,0,1,3.07,9.08c-.12.54-6.29,31.57-6.29,31.57a17.92,17.92,0,0,1-5.64,9c-4.58,3.93-8.17,4.35-9.18,4.53S32.93,89.52,32.93,89.52a8.86,8.86,0,0,1-5.86-2.15,11.07,11.07,0,0,1-3.76-5.49" transform="translate(-15.41 -2.32)"/><path class="cls-6" d="M19.86,69.73,16.59,48.31a10.59,10.59,0,0,1,1.48-8.24,5.8,5.8,0,0,1,5-2.67l135-6.36s6.43-.64,9.5,3.93A10.71,10.71,0,0,1,169,44.45c-.22.52-11.75,30-11.75,30a18,18,0,0,1-7.15,7.89c-5.2,3.07-8.79,2.85-9.85,2.82S28,79,28,79a8.81,8.81,0,0,1-5.39-3.17,11.34,11.34,0,0,1-2.72-6.06" transform="translate(-15.41 -2.32)"/><path class="cls-7" d="M47.28,45.59a1.17,1.17,0,0,0-1.11.74L38,63.77,29.83,46.33a1.18,1.18,0,0,0-2.28.42V66.12a1.15,1.15,0,1,0,2.3,0V51.5l7,15.07a1.13,1.13,0,0,0,1.11.72,1.12,1.12,0,0,0,1.11-.72l7-15.07V66.12a1.15,1.15,0,1,0,2.3,0V46.77A1.14,1.14,0,0,0,47.28,45.59Z" transform="translate(-15.41 -2.32)"/><path class="cls-7" d="M58.59,52.66A7.12,7.12,0,0,0,51.21,60c0,3.54,2.28,7.37,7.3,7.37a6.43,6.43,0,0,0,5-2.15v.84a1.19,1.19,0,0,0,2.38,0v-6A7.08,7.08,0,0,0,58.59,52.66Zm0,12.59a4.89,4.89,0,0,1-5-5.22,5,5,0,1,1,9.92,0A5,5,0,0,1,58.59,65.25Z" transform="translate(-15.41 -2.32)"/><path class="cls-7" d="M75.32,53H72.45V49a1.19,1.19,0,0,0-2.38,0V53h-2.5a1,1,0,1,0,0,2.08h2.5v11a1.19,1.19,0,0,0,2.38,0v-11h2.87a1,1,0,1,0,0-2.08Z" transform="translate(-15.41 -2.32)"/><path class="cls-7" d="M84.4,52.66a6,6,0,0,0-4.8,2.08v-8a1.19,1.19,0,0,0-2.38,0v19.3a1.19,1.19,0,0,0,2.38,0V59.59c0-2.77,1.81-4.7,4.38-4.7s4.08,1.53,4.08,4.3v6.88a1.19,1.19,0,0,0,2.38,0V59.14C90.46,55.28,88,52.66,84.4,52.66Z" transform="translate(-15.41 -2.32)"/><path class="cls-7" d="M94.69,45.59a1.17,1.17,0,0,0-1.19,1.19v19.3a1.19,1.19,0,0,0,2.38,0V46.77A1.16,1.16,0,0,0,94.69,45.59Z" transform="translate(-15.41 -2.32)"/><path class="cls-7" d="M105.41,52.66a7.37,7.37,0,0,0,.2,14.74,7.11,7.11,0,0,0,5.74-2.72,1.12,1.12,0,0,0,.22-.72,1,1,0,0,0-1-1,1.2,1.2,0,0,0-.92.49,4.89,4.89,0,0,1-4,1.86,4.74,4.74,0,0,1-4.92-4.38h10.49a1,1,0,0,0,1-1C112.19,55.71,109.34,52.66,105.41,52.66Zm0,2.08a4.52,4.52,0,0,1,4.5,4.08h-9.18A4.72,4.72,0,0,1,105.41,54.74Z" transform="translate(-15.41 -2.32)"/><path class="cls-7" d="M121.1,53h-2.87V49a1.19,1.19,0,0,0-2.38,0V53h-2.5a1,1,0,1,0,0,2.08h2.5v11a1.19,1.19,0,0,0,2.38,0v-11h2.87a1,1,0,1,0,0-2.08Z" transform="translate(-15.41 -2.32)"/><circle class="cls-7" cx="108.8" cy="46.88" r="1.44"/><path class="cls-7" d="M124.22,52.79A1.17,1.17,0,0,0,123,54v12.1a1.19,1.19,0,0,0,2.38,0V54A1.18,1.18,0,0,0,124.22,52.79Z" transform="translate(-15.41 -2.32)"/><path class="cls-7" d="M135.13,54.81A4.53,4.53,0,0,1,139,56.67a1.12,1.12,0,0,0,.87.47,1.08,1.08,0,0,0,1.16-1,1.35,1.35,0,0,0-.22-.72,6.74,6.74,0,0,0-5.69-2.72,7.37,7.37,0,1,0,0,14.74,6.81,6.81,0,0,0,5.69-2.72A1.1,1.1,0,0,0,141,64a1.08,1.08,0,0,0-1.16-1,1.17,1.17,0,0,0-.87.47,4.53,4.53,0,0,1-3.89,1.86,5.24,5.24,0,0,1,0-10.46Z" transform="translate(-15.41 -2.32)"/><path class="cls-7" d="M148.69,59c-3-.87-3.59-1.51-3.59-2.5,0-1.53,2-1.76,3.24-1.76a7.54,7.54,0,0,1,3.44.92,1.65,1.65,0,0,0,.84.3,1,1,0,0,0,1-1c0-.59-.52-.94-1-1.16a9.15,9.15,0,0,0-4.31-1.11c-3.56,0-5.59,1.41-5.59,3.86,0,2.2,1.58,3.51,5.62,4.63,2.1.59,3.37,1,3.37,2.33s-1.24,2-3.22,2a6.83,6.83,0,0,1-4.08-1.39,1.35,1.35,0,0,0-.89-.35.94.94,0,0,0-1,.94,1.16,1.16,0,0,0,.47.92,8.32,8.32,0,0,0,5.39,1.83c3.42,0,5.64-1.58,5.64-4C154.11,60.75,151.86,59.91,148.69,59Z" transform="translate(-15.41 -2.32)"/></g></svg>