<svg xmlns="http://www.w3.org/2000/svg" xmlns:xlink="http://www.w3.org/1999/xlink" viewBox="0 0 62.65 62.65"><defs><style>.cls-1{isolation:isolate;}.cls-2{fill:#73adff;}.cls-3{fill:#808184;}.cls-4{fill:url(#linear-gradient);}.cls-5{fill:#d4cedb;}.cls-6{fill:#000009;}.cls-7{fill:#bcdef7;}.cls-8{fill:url(#linear-gradient-2);}.cls-10,.cls-9{opacity:0.5;}.cls-9{fill:url(#linear-gradient-3);}.cls-10{fill:url(#linear-gradient-4);}.cls-11{fill:#45c63c;}.cls-12{opacity:0.8;mix-blend-mode:screen;fill:url(#radial-gradient);}.cls-13{fill:url(#radial-gradient-2);}.cls-14{fill:url(#linear-gradient-5);}.cls-15{fill:url(#linear-gradient-6);}.cls-16{opacity:0.1;}.cls-17{fill:url(#radial-gradient-3);}.cls-18{fill:url(#linear-gradient-7);}.cls-19{fill:url(#linear-gradient-8);}</style><linearGradient id="linear-gradient" x1="9.33" y1="53.32" x2="52.39" y2="10.26" gradientUnits="userSpaceOnUse"><stop offset="0" stop-color="#babcbf" stop-opacity="0"/><stop offset="1" stop-color="#b8bcc1"/></linearGradient><linearGradient id="linear-gradient-2" x1="31.33" y1="4.07" x2="31.33" y2="52.18" gradientUnits="userSpaceOnUse"><stop offset="0" stop-color="#89b8e4" stop-opacity="0"/><stop offset="1" stop-color="#a0c3e4"/></linearGradient><linearGradient id="linear-gradient-3" x1="28.65" y1="28.74" x2="12.07" y2="10.57" gradientUnits="userSpaceOnUse"><stop offset="0" stop-color="#e2f3ff" stop-opacity="0.1"/><stop offset="1" stop-color="#e2f3ff"/></linearGradient><linearGradient id="linear-gradient-4" x1="36.51" y1="36.51" x2="59.07" y2="59.07" xlink:href="#linear-gradient-3"/><radialGradient id="radial-gradient" cx="22.33" cy="36.6" r="6.52" gradientUnits="userSpaceOnUse"><stop offset="0" stop-color="#45fceb" stop-opacity="0.8"/><stop offset="0.19" stop-color="#45fceb" stop-opacity="0.61"/><stop offset="0.47" stop-color="#45fceb" stop-opacity="0.35"/><stop offset="0.71" stop-color="#45fceb" stop-opacity="0.16"/><stop offset="0.9" stop-color="#45fceb" stop-opacity="0.04"/><stop offset="1" stop-color="#45fceb" stop-opacity="0"/></radialGradient><radialGradient id="radial-gradient-2" cx="-39.03" cy="-1446.33" r="12.84" gradientTransform="translate(-1419.39 64.41) rotate(90)" gradientUnits="userSpaceOnUse"><stop offset="0" stop-color="#afce22"/><stop offset="1" stop-color="#81bf2e"/></radialGradient><linearGradient id="linear-gradient-5" x1="-53.25" y1="-1449.1" x2="-47.63" y2="-1448.41" gradientTransform="translate(-1419.39 64.41) rotate(90)" gradientUnits="userSpaceOnUse"><stop offset="0" stop-color="#81bf2e"/><stop offset="0.36" stop-color="#98c728"/><stop offset="0.72" stop-color="#a9cc24"/><stop offset="1" stop-color="#afce22"/></linearGradient><linearGradient id="linear-gradient-6" x1="-41.76" y1="-1460.52" x2="-41.3" y2="-1454.67" xlink:href="#linear-gradient-5"/><radialGradient id="radial-gradient-3" cx="-152.29" cy="-224.12" r="13.25" gradientTransform="matrix(0.91, 0.4, -0.4, 0.91, 87, 301.68)" gradientUnits="userSpaceOnUse"><stop offset="0" stop-color="#fe0010"/><stop offset="1" stop-color="#bf2424"/></radialGradient><linearGradient id="linear-gradient-7" x1="-156.47" y1="-218.34" x2="-135.47" y2="-218.34" gradientTransform="matrix(0.91, 0.4, -0.4, 0.91, 87, 301.68)" xlink:href="#radial-gradient-3"/><linearGradient id="linear-gradient-8" x1="-167.69" y1="-214.12" x2="-155.04" y2="-214.12" gradientTransform="matrix(0.91, 0.4, -0.4, 0.91, 87, 301.68)" xlink:href="#radial-gradient-3"/></defs><title>shorting-icon</title><g class="cls-1"><g id="Layer_1" data-name="Layer 1"><path class="cls-2" d="M31.33,58.35a27,27,0,1,1,27-27A27.05,27.05,0,0,1,31.33,58.35Z"/><path class="cls-3" d="M31.33,62.65A31.33,31.33,0,1,1,62.65,31.33,31.36,31.36,0,0,1,31.33,62.65Z"/><path class="cls-4" d="M31.33,62.65A31.33,31.33,0,1,1,62.65,31.33,31.36,31.36,0,0,1,31.33,62.65Z"/><path class="cls-5" d="M31.33,59.78A28.46,28.46,0,1,1,59.78,31.33,28.49,28.49,0,0,1,31.33,59.78Z"/><path class="cls-6" d="M31.33,59.3a28,28,0,1,1,28-28A28,28,0,0,1,31.33,59.3Z"/><path class="cls-7" d="M31.33,58.59A27.26,27.26,0,1,1,58.59,31.33,27.29,27.29,0,0,1,31.33,58.59Z"/><circle class="cls-8" cx="31.33" cy="31.33" r="26.78"/><path class="cls-9" d="M30.14,28.55V7.2A24.16,24.16,0,0,0,7.33,28.55Z"/><path class="cls-10" d="M47.17,13.09A24.15,24.15,0,0,1,13.09,47.17,24.15,24.15,0,1,0,47.17,13.09Z"/><circle class="cls-11" cx="20.42" cy="39.65" r="10.67"/><circle class="cls-12" cx="22.33" cy="36.6" r="6.52"/><rect class="cls-13" x="18.12" y="16.57" width="17.62" height="17.62"/><polygon class="cls-14" points="22.95 11.58 18.13 16.57 35.74 16.57 40.56 11.58 22.95 11.58"/><polygon class="cls-15" points="40.56 11.58 35.74 16.57 35.74 34.19 40.56 29.2 40.56 11.58"/><g id="_4" data-name="4"><polygon class="cls-16" points="53.9 37.52 53.16 42.74 29.24 48.48 29.97 43.26 53.9 37.52"/><polygon class="cls-16" points="29.97 43.26 29.24 48.48 21.59 38.03 22.33 32.81 29.97 43.26"/><polygon class="cls-17" points="53.9 37.52 29.97 43.26 22.33 32.81 46.25 27.07 53.9 37.52"/></g><polygon class="cls-18" points="53.9 37.52 53.16 42.74 29.24 48.48 29.97 43.26 53.9 37.52"/><polygon class="cls-19" points="29.97 43.26 29.24 48.48 21.59 38.03 22.33 32.81 29.97 43.26"/><polygon class="cls-16" points="53.9 37.52 53.16 42.74 29.24 48.48 29.97 43.26 53.9 37.52"/><polygon class="cls-16" points="29.97 43.26 29.24 48.48 21.59 38.03 22.33 32.81 29.97 43.26"/><polygon class="cls-16" points="53.9 37.52 53.16 42.74 29.24 48.48 29.97 43.26 53.9 37.52"/><polygon class="cls-16" points="29.97 43.26 29.24 48.48 21.59 38.03 22.33 32.81 29.97 43.26"/></g></g></svg>