<svg id="Layer_1" data-name="Layer 1" xmlns="http://www.w3.org/2000/svg" xmlns:xlink="http://www.w3.org/1999/xlink" viewBox="0 0 72 84.98"><defs><style>.cls-1{fill:#73adff;}.cls-2{fill:#808184;}.cls-3{fill:url(#linear-gradient);}.cls-4{fill:#d4cedb;}.cls-5{fill:#000009;}.cls-6{fill:#bcdef7;}.cls-7{fill:url(#linear-gradient-2);}.cls-8,.cls-9{opacity:0.5;}.cls-8{fill:url(#linear-gradient-3);}.cls-9{fill:url(#linear-gradient-4);}.cls-10{fill:url(#linear-gradient-5);}.cls-11{fill:url(#linear-gradient-6);}.cls-12{fill:url(#radial-gradient);}.cls-13{fill:url(#linear-gradient-7);}.cls-14{fill:url(#radial-gradient-2);}.cls-15{fill:#0cac16;}.cls-16{fill:#2bbf2b;}.cls-17{fill:url(#linear-gradient-8);}.cls-18{fill:url(#radial-gradient-3);}.cls-19{fill:#d96e4c;}</style><linearGradient id="linear-gradient" x1="14.01" y1="53.31" x2="57.06" y2="10.25" gradientUnits="userSpaceOnUse"><stop offset="0" stop-color="#babcbf" stop-opacity="0"/><stop offset="1" stop-color="#b8bcc1"/></linearGradient><linearGradient id="linear-gradient-2" x1="36" y1="4.07" x2="36" y2="52.16" gradientUnits="userSpaceOnUse"><stop offset="0" stop-color="#89b8e4" stop-opacity="0"/><stop offset="1" stop-color="#a0c3e4"/></linearGradient><linearGradient id="linear-gradient-3" x1="33.33" y1="28.73" x2="16.75" y2="10.56" gradientUnits="userSpaceOnUse"><stop offset="0" stop-color="#e2f3ff" stop-opacity="0.1"/><stop offset="1" stop-color="#e2f3ff"/></linearGradient><linearGradient id="linear-gradient-4" x1="41.18" y1="36.49" x2="63.74" y2="59.05" xlink:href="#linear-gradient-3"/><linearGradient id="linear-gradient-5" x1="-111.7" y1="-174.83" x2="-89.12" y2="-174.83" gradientTransform="translate(70.59 234.11) rotate(22.99)" gradientUnits="userSpaceOnUse"><stop offset="0" stop-color="#995ed1"/><stop offset="0.99" stop-color="#8600e9"/></linearGradient><linearGradient id="linear-gradient-6" x1="-118.58" y1="-177.48" x2="-111.66" y2="-177.48" gradientTransform="translate(70.59 234.11) rotate(22.99)" gradientUnits="userSpaceOnUse"><stop offset="0" stop-color="#ecb24a"/><stop offset="0.16" stop-color="#f1aa47"/><stop offset="0.63" stop-color="#fb9840"/><stop offset="0.97" stop-color="#ff923e"/><stop offset="0.98" stop-color="#ffaa3e"/><stop offset="0.99" stop-color="#ffbb3e"/><stop offset="1" stop-color="#ffc13e"/></linearGradient><radialGradient id="radial-gradient" cx="-103.83" cy="-179.72" r="12.14" gradientTransform="translate(70.59 234.11) rotate(22.99)" gradientUnits="userSpaceOnUse"><stop offset="0" stop-color="#9980bb"/><stop offset="1" stop-color="#994dd1"/></radialGradient><linearGradient id="linear-gradient-7" x1="22.34" y1="30.6" x2="22.34" y2="35.49" gradientUnits="userSpaceOnUse"><stop offset="0" stop-color="#fe6300"/><stop offset="0.28" stop-color="#f86100"/><stop offset="0.64" stop-color="#e75c00"/><stop offset="1" stop-color="#d05400"/></linearGradient><radialGradient id="radial-gradient-2" cx="22.35" cy="24.49" r="8.56" gradientUnits="userSpaceOnUse"><stop offset="0" stop-color="#fe6300"/><stop offset="1" stop-color="#d05400"/></radialGradient><linearGradient id="linear-gradient-8" x1="18.91" y1="32.26" x2="52.7" y2="32.26" gradientUnits="userSpaceOnUse"><stop offset="0" stop-color="#0b5b00"/><stop offset="1" stop-color="#009444"/></linearGradient><radialGradient id="radial-gradient-3" cx="36.04" cy="31.2" r="18.64" gradientUnits="userSpaceOnUse"><stop offset="0" stop-color="#ff8400"/><stop offset="0.66" stop-color="#ffea00"/></radialGradient></defs><title>3D-shape-icons</title><path class="cls-1" d="M36,58.33a27,27,0,1,1,27-27A27,27,0,0,1,36,58.33Z"/><path class="cls-2" d="M36,62.63A31.31,31.31,0,1,1,67.31,31.31,31.35,31.35,0,0,1,36,62.63Z"/><path class="cls-3" d="M36,62.63A31.31,31.31,0,1,1,67.31,31.31,31.35,31.35,0,0,1,36,62.63Z"/><path class="cls-4" d="M36,59.76A28.45,28.45,0,1,1,64.45,31.31,28.48,28.48,0,0,1,36,59.76Z"/><path class="cls-5" d="M36,59.28a28,28,0,1,1,28-28A28,28,0,0,1,36,59.28Z"/><path class="cls-6" d="M36,58.57A27.25,27.25,0,1,1,63.25,31.31,27.28,27.28,0,0,1,36,58.57Z"/><circle class="cls-7" cx="36" cy="31.31" r="26.77"/><path class="cls-8" d="M34.82,28.54V7.2A24.15,24.15,0,0,0,12,28.54Z"/><path class="cls-9" d="M51.83,13.09A24.14,24.14,0,0,1,17.77,47.15,24.14,24.14,0,1,0,51.83,13.09Z"/><g id="_4" data-name="4"><polygon class="cls-10" points="60.14 30.57 58.22 35 32.75 37.33 34.67 32.9 60.14 30.57"/><polygon class="cls-11" points="34.67 32.9 32.75 37.33 33.07 18.96 35.13 14.2 34.67 32.9"/><polygon class="cls-12" points="60.14 30.57 34.58 33.23 35.13 14.2 60.14 30.57"/></g><path class="cls-13" d="M32.82,24.61a3.58,3.58,0,0,1-.07.6,3.81,3.81,0,0,1-.17.59,4.24,4.24,0,0,1-.28.6,4.94,4.94,0,0,1-.42.63,6,6,0,0,1-.65.7,8.12,8.12,0,0,1-1.33,1l-.13.08a11.84,11.84,0,0,1-2.3,1,15.17,15.17,0,0,1-2,.49c-.44.08-.89.14-1.34.19s-.77.06-1.16.08-.72,0-1.07,0l-1-.06q-.51,0-1-.11t-1-.18q-.56-.12-1.09-.27c-.44-.12-.86-.27-1.27-.43A11.38,11.38,0,0,1,15,28.78c-2.07-1.19-3.1-2.76-3.09-4.32v4.79c0,1.56,1,3.13,3.09,4.32a11.39,11.39,0,0,0,1.51.72c.41.16.84.31,1.27.43s.72.19,1.09.27.69.13,1,.18.68.09,1,.11l1,.06q.54,0,1.07,0t1.16-.08c.45,0,.9-.11,1.34-.19a15.16,15.16,0,0,0,2-.49,11.84,11.84,0,0,0,2.3-1l.13-.08a8.11,8.11,0,0,0,1.33-1,6,6,0,0,0,.65-.7,4.94,4.94,0,0,0,.42-.63,4.24,4.24,0,0,0,.28-.6,3.81,3.81,0,0,0,.17-.59,3.58,3.58,0,0,0,.07-.6s0-.06,0-.09V24.52S32.82,24.58,32.82,24.61Z"/><path class="cls-14" d="M29.73,20.2c4.1,2.37,4.13,6.21,0,8.58a16.32,16.32,0,0,1-14.81,0c-4.1-2.37-4.13-6.21,0-8.58A16.32,16.32,0,0,1,29.73,20.2Z"/><g id="_4-2" data-name="4"><polygon class="cls-15" points="52.7 32.26 52.69 38.17 35.84 47.96 35.86 42.05 52.7 32.26"/><polygon class="cls-16" points="35.86 42.05 35.84 47.96 18.89 38.17 18.91 32.26 35.86 42.05"/><polygon class="cls-17" points="52.7 32.26 35.86 42.05 18.91 32.26 35.75 22.48 52.7 32.26"/></g><polygon class="cls-18" points="35.72 11.73 40.23 25.61 54.82 25.61 43.02 34.19 47.53 48.07 35.72 39.49 23.91 48.07 28.42 34.19 16.61 25.61 31.21 25.61 35.72 11.73"/><path class="cls-19" d="M8.29,78.4l-.81-2.28H2.87L2.06,78.4H.66L4.44,68h1.5L9.71,78.4ZM3.25,75H7.1L5.17,69.67Z"/><path class="cls-19" d="M14.19,77.29h1.13V78.4H13.93a1.88,1.88,0,0,1-2.15-2.12v-5H10.72V70.16h1.06v-2h1.38v2H15.3v1.11H13.17v5a1.09,1.09,0,0,0,.22.78A1.11,1.11,0,0,0,14.19,77.29Z"/><path class="cls-19" d="M19.52,77.29h1.13V78.4H19.26a1.88,1.88,0,0,1-2.15-2.12v-5H16V70.16h1.06v-2H18.5v2h2.13v1.11H18.5v5a1.09,1.09,0,0,0,.22.78A1.11,1.11,0,0,0,19.52,77.29Z"/><path class="cls-19" d="M23.5,70.16v1.4A2.56,2.56,0,0,1,26,70v1.43h-.36a2.16,2.16,0,0,0-1.6.55,2.64,2.64,0,0,0-.55,1.9v4.5H22.14V70.16Z"/><path class="cls-19" d="M29,68.57a.9.9,0,0,1-.66.27.87.87,0,0,1-.65-.27.91.91,0,0,1-.26-.66.9.9,0,0,1,.27-.66.92.92,0,0,1,1.31,0,.94.94,0,0,1,0,1.32ZM27.66,78.4V70.16H29V78.4Z"/><path class="cls-19" d="M35.69,70a3.74,3.74,0,0,1,2.81,1.16,4.21,4.21,0,0,1,1.12,3,4.35,4.35,0,0,1-1.12,3.09,3.68,3.68,0,0,1-2.8,1.21,3.34,3.34,0,0,1-1.84-.5,3.38,3.38,0,0,1-1.21-1.31V78.4H31.27V67.3h1.37v4.52a3.35,3.35,0,0,1,3-1.79Zm-.26,7.33a2.61,2.61,0,0,0,2-.86,3.16,3.16,0,0,0,.82-2.27A3,3,0,0,0,37.39,72a2.69,2.69,0,0,0-2-.81,2.64,2.64,0,0,0-2,.84,3.45,3.45,0,0,0,0,4.46A2.63,2.63,0,0,0,35.42,77.36Z"/><path class="cls-19" d="M47.13,70.16h1.36V78.4H47.13V77.08a2.85,2.85,0,0,1-2.69,1.45,3.11,3.11,0,0,1-2.28-.91,3.46,3.46,0,0,1-.92-2.57V70.16H42.6v4.67a2.66,2.66,0,0,0,.61,1.88,2.43,2.43,0,0,0,3.31,0,2.66,2.66,0,0,0,.61-1.88Z"/><path class="cls-19" d="M53.44,77.29h1.13V78.4H53.19A1.88,1.88,0,0,1,51,76.28v-5H50V70.16H51v-2h1.38v2h2.13v1.11H52.42v5a1.09,1.09,0,0,0,.22.78A1.11,1.11,0,0,0,53.44,77.29Z"/><path class="cls-19" d="M59.52,78.53a3.79,3.79,0,0,1-2.88-1.17,4.3,4.3,0,0,1-1.11-3.09,4.24,4.24,0,0,1,1.13-3.08,4.28,4.28,0,0,1,5.8-.06,3.84,3.84,0,0,1,1.09,2.81,5.19,5.19,0,0,1-.06.81H56.92a2.83,2.83,0,0,0,.77,1.94,2.47,2.47,0,0,0,1.82.71A2.55,2.55,0,0,0,60.94,77a2.22,2.22,0,0,0,.85-1h1.47a3.78,3.78,0,0,1-1.34,1.79A3.91,3.91,0,0,1,59.52,78.53Zm1.84-6.67a2.52,2.52,0,0,0-1.82-.71,2.49,2.49,0,0,0-1.81.7,2.79,2.79,0,0,0-.79,1.91h5.17A2.57,2.57,0,0,0,61.36,71.86Z"/><path class="cls-19" d="M64.93,72.49a2.19,2.19,0,0,1,.86-1.75A3.4,3.4,0,0,1,68,70a3.11,3.11,0,0,1,2.15.7A2.67,2.67,0,0,1,71,72.64H69.63a1.58,1.58,0,0,0-.46-1.11A1.67,1.67,0,0,0,68,71.11a1.85,1.85,0,0,0-1.22.37,1.17,1.17,0,0,0-.44.94,1,1,0,0,0,.5.89,3.61,3.61,0,0,0,1.22.46q.71.14,1.42.33a2.57,2.57,0,0,1,1.21.71,2,2,0,0,1,.5,1.47,2,2,0,0,1-.86,1.6,3.62,3.62,0,0,1-2.24.65,3.35,3.35,0,0,1-2.21-.69,2.56,2.56,0,0,1-.91-1.9h1.41a1.5,1.5,0,0,0,.49,1.1,1.81,1.81,0,0,0,1.26.41,2.05,2.05,0,0,0,1.26-.35,1.06,1.06,0,0,0,.46-.88,1.07,1.07,0,0,0-.36-.85,2,2,0,0,0-.9-.44l-1.18-.28q-.64-.16-1.18-.35a1.91,1.91,0,0,1-.9-.65A1.85,1.85,0,0,1,64.93,72.49Z"/></svg>