<svg id="Layer_1" data-name="Layer 1" xmlns="http://www.w3.org/2000/svg" xmlns:xlink="http://www.w3.org/1999/xlink" viewBox="0 0 72 84.98"><defs><style>.cls-1{fill:#73adff;}.cls-2{fill:#808184;}.cls-3{fill:url(#linear-gradient);}.cls-4{fill:#d4cedb;}.cls-5{fill:#000009;}.cls-6{fill:#bcdef7;}.cls-7{fill:url(#linear-gradient-2);}.cls-8,.cls-9{opacity:0.5;}.cls-8{fill:url(#linear-gradient-3);}.cls-9{fill:url(#linear-gradient-4);}.cls-10{fill:url(#linear-gradient-5);}.cls-11{fill:url(#radial-gradient);}.cls-12{fill:url(#linear-gradient-6);}.cls-13{fill:url(#linear-gradient-7);}.cls-14{fill:url(#radial-gradient-2);}.cls-15{fill:url(#linear-gradient-8);}.cls-16{fill:#119400;}.cls-17{fill:#d96e4c;}</style><linearGradient id="linear-gradient" x1="14" y1="53.32" x2="57.07" y2="10.26" gradientUnits="userSpaceOnUse"><stop offset="0" stop-color="#babcbf" stop-opacity="0"/><stop offset="1" stop-color="#b8bcc1"/></linearGradient><linearGradient id="linear-gradient-2" x1="36" y1="4.07" x2="36" y2="52.18" gradientUnits="userSpaceOnUse"><stop offset="0" stop-color="#89b8e4" stop-opacity="0"/><stop offset="1" stop-color="#a0c3e4"/></linearGradient><linearGradient id="linear-gradient-3" x1="33.33" y1="28.74" x2="16.75" y2="10.57" gradientUnits="userSpaceOnUse"><stop offset="0" stop-color="#e2f3ff" stop-opacity="0.1"/><stop offset="1" stop-color="#e2f3ff"/></linearGradient><linearGradient id="linear-gradient-4" x1="41.18" y1="36.51" x2="63.75" y2="59.07" xlink:href="#linear-gradient-3"/><linearGradient id="linear-gradient-5" x1="26.64" y1="40.19" x2="26.64" y2="47.55" gradientUnits="userSpaceOnUse"><stop offset="0" stop-color="#a6e8ff"/><stop offset="0.08" stop-color="#86dfff"/><stop offset="0.21" stop-color="#54d2ff"/><stop offset="0.31" stop-color="#35caff"/><stop offset="0.37" stop-color="#29c7ff"/><stop offset="1" stop-color="#007ed1"/></linearGradient><radialGradient id="radial-gradient" cx="26.64" cy="30.35" r="12.5" xlink:href="#linear-gradient-5"/><linearGradient id="linear-gradient-6" x1="2717.46" y1="918.84" x2="2718.7" y2="911.77" gradientTransform="translate(2771.53 955.43) rotate(180)" gradientUnits="userSpaceOnUse"><stop offset="0" stop-color="#ff0"/><stop offset="1" stop-color="#99690e"/></linearGradient><linearGradient id="linear-gradient-7" x1="2708.61" y1="926.08" x2="2727.69" y2="926.08" gradientTransform="translate(2595.15 -1288.6) rotate(133.79)" xlink:href="#linear-gradient-6"/><radialGradient id="radial-gradient-2" cx="-191.81" cy="17.08" r="10.04" gradientTransform="matrix(0, 1, 1, 0, 23.11, 232.52)" gradientUnits="userSpaceOnUse"><stop offset="0" stop-color="#3ac122"/><stop offset="0.09" stop-color="#3ebd25"/><stop offset="0.58" stop-color="#4bb02f"/><stop offset="1" stop-color="#50ab33"/></radialGradient><linearGradient id="linear-gradient-8" x1="-202.92" y1="14.91" x2="-198.53" y2="15.45" gradientTransform="matrix(0, 1, 1, 0, 23.11, 232.52)" gradientUnits="userSpaceOnUse"><stop offset="0" stop-color="#66b13b"/><stop offset="1" stop-color="#77ce22"/></linearGradient></defs><title>3D-shape-icons</title><path class="cls-1" d="M36,58.35a27,27,0,1,1,27-27A27.05,27.05,0,0,1,36,58.35Z"/><path class="cls-2" d="M36,62.65A31.33,31.33,0,1,1,67.32,31.33,31.36,31.36,0,0,1,36,62.65Z"/><path class="cls-3" d="M36,62.65A31.33,31.33,0,1,1,67.32,31.33,31.36,31.36,0,0,1,36,62.65Z"/><path class="cls-4" d="M36,59.78A28.46,28.46,0,1,1,64.46,31.33,28.49,28.49,0,0,1,36,59.78Z"/><path class="cls-5" d="M36,59.3a28,28,0,1,1,28-28A28,28,0,0,1,36,59.3Z"/><path class="cls-6" d="M36,58.59A27.26,27.26,0,1,1,63.26,31.33,27.29,27.29,0,0,1,36,58.59Z"/><circle class="cls-7" cx="36" cy="31.33" r="26.78"/><path class="cls-8" d="M34.82,28.55V7.2A24.16,24.16,0,0,0,12,28.55Z"/><path class="cls-9" d="M51.84,13.09A24.15,24.15,0,0,1,17.77,47.17,24.15,24.15,0,1,0,51.84,13.09Z"/><ellipse class="cls-10" cx="26.64" cy="43.54" rx="13.05" ry="3.64"/><path class="cls-11" d="M35.5,43l-8.83-28-8.76,27.8a.32.32,0,0,0-.13.22c0,.79,3.13,2.58,8.86,2.58s8.86-1.79,8.86-2.58c0,0,0,0,0,0Z"/><ellipse class="cls-12" cx="53.45" cy="40.13" rx="9.47" ry="3.24" transform="translate(-12.51 50.94) rotate(-46.21)"/><path class="cls-13" d="M46.9,47,33.68,34.3c-1.29-1.24.6-5.3,4.22-9.08s7.6-5.83,8.89-4.6L60,33.29c-1.29-1.24-5.27.82-8.89,4.6S45.61,45.73,46.9,47Z"/><rect class="cls-14" x="33.3" y="33.82" width="13.77" height="13.77"/><polygon class="cls-15" points="43.31 29.92 47.07 33.82 33.3 33.82 29.53 29.92 43.31 29.92"/><polygon class="cls-16" points="29.53 29.92 33.3 33.82 33.3 47.6 29.53 43.7 29.53 29.92"/><path class="cls-17" d="M12.13,70.78a1.42,1.42,0,0,0,.31.95,1.87,1.87,0,0,0,.81.55,8.8,8.8,0,0,0,1.1.31q.61.14,1.21.31a5.37,5.37,0,0,1,1.1.44,2.1,2.1,0,0,1,.81.81,2.61,2.61,0,0,1,.32,1.33,2.85,2.85,0,0,1-.93,2.12,3.46,3.46,0,0,1-2.51.9,4.23,4.23,0,0,1-2.57-.73,2.32,2.32,0,0,1-1-2h1.46a1.63,1.63,0,0,0,.56,1.14,2.22,2.22,0,0,0,1.49.44,2.31,2.31,0,0,0,1.58-.51,1.54,1.54,0,0,0,.58-1.19,1.57,1.57,0,0,0-.32-1,1.89,1.89,0,0,0-.81-.55,8.07,8.07,0,0,0-1.1-.31q-.61-.13-1.21-.31a5.36,5.36,0,0,1-1.1-.46,2.14,2.14,0,0,1-.81-.82,2.69,2.69,0,0,1-.31-1.36,2.65,2.65,0,0,1,.94-2.12,3.63,3.63,0,0,1,2.45-.8,3.79,3.79,0,0,1,2.4.7,2.71,2.71,0,0,1,1,1.93H16.09a1.53,1.53,0,0,0-.58-1,2.1,2.1,0,0,0-1.4-.44,2.23,2.23,0,0,0-1.43.44A1.56,1.56,0,0,0,12.13,70.78Z"/><path class="cls-17" d="M20.41,77.36a4.23,4.23,0,0,1-1.13-3.07,4.15,4.15,0,0,1,1.19-3.08,4.33,4.33,0,0,1,5.94,0,4.14,4.14,0,0,1,1.19,3.07,4.05,4.05,0,0,1-1.24,3.08,4.22,4.22,0,0,1-3,1.18A3.88,3.88,0,0,1,20.41,77.36Zm2.92,0a2.76,2.76,0,0,0,2-.83,3.08,3.08,0,0,0,.85-2.3A3.14,3.14,0,0,0,25.37,72a2.66,2.66,0,0,0-2-.83,2.57,2.57,0,0,0-1.94.83,3.22,3.22,0,0,0-.78,2.3,3.3,3.3,0,0,0,.75,2.3A2.46,2.46,0,0,0,23.33,77.41Z"/><path class="cls-17" d="M30.67,70.16v1.4A2.56,2.56,0,0,1,33.17,70v1.43h-.36a2.17,2.17,0,0,0-1.6.55,2.64,2.64,0,0,0-.55,1.9v4.5H29.3V70.16Z"/><path class="cls-17" d="M37.52,77.29h1.13V78.4H37.27a1.88,1.88,0,0,1-2.15-2.12v-5H34.06V70.16h1.06v-2H36.5v2h2.13v1.11H36.5v5a1.08,1.08,0,0,0,.22.78A1.11,1.11,0,0,0,37.52,77.29Z"/><path class="cls-17" d="M41.5,68.57a.9.9,0,0,1-.66.27.87.87,0,0,1-.65-.27.91.91,0,0,1-.26-.66.9.9,0,0,1,.27-.66.92.92,0,0,1,1.3,0,.94.94,0,0,1,0,1.32ZM40.15,78.4V70.16h1.37V78.4Z"/><path class="cls-17" d="M45.13,70.16V71.5A2.86,2.86,0,0,1,47.81,70a3.11,3.11,0,0,1,2.28.91A3.49,3.49,0,0,1,51,73.52V78.4H49.66V73.75a2.68,2.68,0,0,0-.6-1.89,2.15,2.15,0,0,0-1.66-.65,2.18,2.18,0,0,0-1.67.65,2.66,2.66,0,0,0-.61,1.89V78.4H43.76V70.16Z"/><path class="cls-17" d="M53.77,77.33a4.35,4.35,0,0,1-1.12-3.09,4.21,4.21,0,0,1,1.12-3A3.74,3.74,0,0,1,56.57,70a3.38,3.38,0,0,1,1.84.5,3.25,3.25,0,0,1,1.19,1.29V70.16H61v8.44a3.71,3.71,0,0,1-1.09,2.77,3.8,3.8,0,0,1-2.78,1.07,4.7,4.7,0,0,1-2.78-.78,2.83,2.83,0,0,1-1.25-2h1.33a2,2,0,0,0,.92,1.17,3.22,3.22,0,0,0,1.79.46,2.44,2.44,0,0,0,1.78-.7,2.62,2.62,0,0,0,.71-2V76.72A3.28,3.28,0,0,1,58.41,78a3.34,3.34,0,0,1-1.84.5A3.68,3.68,0,0,1,53.77,77.33Zm5-.8a3.46,3.46,0,0,0,0-4.47,2.65,2.65,0,0,0-2-.84,2.69,2.69,0,0,0-2,.81A3,3,0,0,0,54,74.23a3.16,3.16,0,0,0,.83,2.27,2.68,2.68,0,0,0,3.92,0Z"/></svg>