<svg id="Layer_1" data-name="Layer 1" xmlns="http://www.w3.org/2000/svg" xmlns:xlink="http://www.w3.org/1999/xlink" viewBox="0 0 62.65 62.65"><defs><style>.cls-1{fill:#73adff;}.cls-2{fill:#808184;}.cls-3{fill:url(#linear-gradient);}.cls-4{fill:#d4cedb;}.cls-5{fill:#000009;}.cls-6{fill:#bcdef7;}.cls-7{fill:url(#linear-gradient-2);}.cls-8,.cls-9{opacity:0.5;}.cls-8{fill:url(#linear-gradient-3);}.cls-9{fill:url(#linear-gradient-4);}.cls-10{fill:url(#radial-gradient);}.cls-11{fill:url(#linear-gradient-5);}.cls-12{fill:url(#linear-gradient-6);}</style><linearGradient id="linear-gradient" x1="9.33" y1="53.32" x2="52.39" y2="10.26" gradientUnits="userSpaceOnUse"><stop offset="0" stop-color="#babcbf" stop-opacity="0"/><stop offset="1" stop-color="#b8bcc1"/></linearGradient><linearGradient id="linear-gradient-2" x1="31.33" y1="4.07" x2="31.33" y2="52.18" gradientUnits="userSpaceOnUse"><stop offset="0" stop-color="#89b8e4" stop-opacity="0"/><stop offset="1" stop-color="#a0c3e4"/></linearGradient><linearGradient id="linear-gradient-3" x1="28.65" y1="28.74" x2="12.07" y2="10.57" gradientUnits="userSpaceOnUse"><stop offset="0" stop-color="#e2f3ff" stop-opacity="0.1"/><stop offset="1" stop-color="#e2f3ff"/></linearGradient><linearGradient id="linear-gradient-4" x1="36.51" y1="36.51" x2="59.07" y2="59.07" xlink:href="#linear-gradient-3"/><radialGradient id="radial-gradient" cx="-26.88" cy="-139.66" r="17.36" gradientTransform="translate(-114.91 64.89) rotate(90)" gradientUnits="userSpaceOnUse"><stop offset="0" stop-color="#afce22"/><stop offset="1" stop-color="#81bf2e"/></radialGradient><linearGradient id="linear-gradient-5" x1="-52.23" y1="-147.06" x2="-39.22" y2="-145.47" gradientTransform="translate(-114.91 64.89) rotate(90)" gradientUnits="userSpaceOnUse"><stop offset="0" stop-color="#81bf2e"/><stop offset="0.36" stop-color="#98c728"/><stop offset="0.72" stop-color="#a9cc24"/><stop offset="1" stop-color="#afce22"/></linearGradient><linearGradient id="linear-gradient-6" x1="-34.14" y1="-165.4" x2="-33.02" y2="-151.15" xlink:href="#linear-gradient-5"/></defs><title>view-icon</title><path class="cls-1" d="M31.33,58.35a27,27,0,1,1,27-27A27.05,27.05,0,0,1,31.33,58.35Z"/><path class="cls-2" d="M31.33,62.65A31.33,31.33,0,1,1,62.65,31.33,31.36,31.36,0,0,1,31.33,62.65Z"/><path class="cls-3" d="M31.33,62.65A31.33,31.33,0,1,1,62.65,31.33,31.36,31.36,0,0,1,31.33,62.65Z"/><path class="cls-4" d="M31.33,59.78A28.46,28.46,0,1,1,59.78,31.33,28.49,28.49,0,0,1,31.33,59.78Z"/><path class="cls-5" d="M31.33,59.3a28,28,0,1,1,28-28A28,28,0,0,1,31.33,59.3Z"/><path class="cls-6" d="M31.33,58.59A27.26,27.26,0,1,1,58.59,31.33,27.29,27.29,0,0,1,31.33,58.59Z"/><circle class="cls-7" cx="31.33" cy="31.33" r="26.78"/><path class="cls-8" d="M30.14,28.55V7.2A24.16,24.16,0,0,0,7.33,28.55Z"/><path class="cls-9" d="M47.17,13.09A24.15,24.15,0,0,1,13.09,47.17,24.15,24.15,0,1,0,47.17,13.09Z"/><rect class="cls-10" x="12.84" y="26.1" width="23.83" height="23.83"/><polygon class="cls-11" points="25.98 12.72 12.84 26.1 36.66 26.1 49.81 12.72 25.98 12.72"/><polygon class="cls-12" points="49.81 12.72 36.66 26.1 36.66 49.93 49.81 36.55 49.81 12.72"/><path d="M23.9,17.28v-.56h3.44v.56H26V22h-.69V17.28Z"/><path d="M28.54,21.47A2.16,2.16,0,0,1,28,19.91a2.12,2.12,0,0,1,.6-1.56,2.16,2.16,0,0,1,3,0,2.11,2.11,0,0,1,.59,1.56,2.06,2.06,0,0,1-.62,1.56,2.11,2.11,0,0,1-1.52.6A1.94,1.94,0,0,1,28.54,21.47Zm1.46,0a1.38,1.38,0,0,0,1-.42,1.57,1.57,0,0,0,.43-1.17A1.6,1.6,0,0,0,31,18.74a1.33,1.33,0,0,0-1-.42,1.28,1.28,0,0,0-1,.42,1.64,1.64,0,0,0-.39,1.17A1.68,1.68,0,0,0,29,21.07,1.23,1.23,0,0,0,30,21.49Z"/><path d="M35.21,17.75a1.87,1.87,0,0,1,1.41.59,2.15,2.15,0,0,1,.56,1.54,2.22,2.22,0,0,1-.56,1.57,1.84,1.84,0,0,1-1.41.61,1.66,1.66,0,0,1-.92-.25,1.7,1.7,0,0,1-.61-.67V24H33V17.82h.69v.84a1.68,1.68,0,0,1,1.53-.91Zm-.13,3.72a1.3,1.3,0,0,0,1-.44,1.61,1.61,0,0,0,.41-1.15,1.52,1.52,0,0,0-.41-1.12,1.34,1.34,0,0,0-1-.41,1.32,1.32,0,0,0-1,.43,1.77,1.77,0,0,0,0,2.26A1.31,1.31,0,0,0,35.08,21.47Z"/><path d="M15.94,41.24V36h2.94v.55H16.62v1.79H18.4v.55H16.62v2.38Z"/><path d="M20.31,37.06v.71A1.29,1.29,0,0,1,21.57,37v.72h-.18a1.08,1.08,0,0,0-.8.28,1.35,1.35,0,0,0-.27,1v2.28h-.69V37.06Z"/><path d="M22.7,40.71a2.16,2.16,0,0,1-.57-1.56,2.12,2.12,0,0,1,.6-1.56,2.16,2.16,0,0,1,3,0,2.11,2.11,0,0,1,.59,1.56,2.07,2.07,0,0,1-.62,1.56,2.11,2.11,0,0,1-1.52.6A1.94,1.94,0,0,1,22.7,40.71Zm1.46,0a1.38,1.38,0,0,0,1-.42,1.57,1.57,0,0,0,.43-1.17A1.6,1.6,0,0,0,25.18,38a1.33,1.33,0,0,0-1-.42,1.28,1.28,0,0,0-1,.42,1.64,1.64,0,0,0-.39,1.17,1.68,1.68,0,0,0,.38,1.17A1.23,1.23,0,0,0,24.16,40.74Z"/><path d="M27.84,37.06v.68A1.43,1.43,0,0,1,29.19,37a1.55,1.55,0,0,1,1.14.46,1.78,1.78,0,0,1,.46,1.31v2.47h-.68V38.88a1.37,1.37,0,0,0-.3-1A1.08,1.08,0,0,0,29,37.6a1.09,1.09,0,0,0-.84.33,1.36,1.36,0,0,0-.3,1v2.36h-.69V37.06Z"/><path d="M33.24,40.68h.57v.56h-.69A1,1,0,0,1,32,40.17V37.63H31.5v-.56H32V36h.69v1H33.8v.56H32.73v2.54a.43.43,0,0,0,.51.51Z"/><path d="M42.34,37.79a.73.73,0,0,0,.47-.19,1,1,0,0,0,.26-.42,4.69,4.69,0,0,0,.13-.56q0-.31.12-.62a2.64,2.64,0,0,1,.19-.57,1.05,1.05,0,0,1,.38-.43,1.34,1.34,0,0,1,.67-.2,1.45,1.45,0,0,1,1.1.4,1.72,1.72,0,0,1,.53,1.23,2.11,2.11,0,0,1-.29,1.31,1.18,1.18,0,0,1-1,.56l0-.73a.83.83,0,0,0,.56-.32,1.11,1.11,0,0,0,.18-.76,1.16,1.16,0,0,0-.31-.77.78.78,0,0,0-.62-.26.8.8,0,0,0-.52.19,1,1,0,0,0-.25.42,4.16,4.16,0,0,0-.12.56c0,.21-.07.41-.12.62a2.61,2.61,0,0,1-.2.57,1.06,1.06,0,0,1-.39.43,1.5,1.5,0,0,1-1.78-.2,1.81,1.81,0,0,1-.48-1.2,1.89,1.89,0,0,1,.28-1.22,1.37,1.37,0,0,1,.94-.57l0,.76a.78.78,0,0,0-.51.32,1,1,0,0,0-.18.71,1.11,1.11,0,0,0,.27.7A.8.8,0,0,0,42.34,37.79Z"/><path d="M40.95,33.33a.44.44,0,0,1,.16.32A.43.43,0,0,1,41,34a.49.49,0,0,1-.67,0,.45.45,0,0,1-.16-.32.44.44,0,0,1,.12-.33.48.48,0,0,1,.67,0Zm5,.38L41.79,34l0-.68L45.92,33Z"/><path d="M45.29,31.63a2.21,2.21,0,0,1-1.53.66,2.14,2.14,0,0,1-1.57-.47,1.86,1.86,0,0,1-.67-1.37,1.68,1.68,0,0,1,.2-.93,1.63,1.63,0,0,1,.62-.64L40,29l0-.69L45.62,28l0,.69-.85.05a1.63,1.63,0,0,1,.7.56,1.67,1.67,0,0,1,.31.9A1.84,1.84,0,0,1,45.29,31.63Zm-.56-2.49a1.77,1.77,0,0,0-2.26.14,1.32,1.32,0,0,0-.37,1,1.35,1.35,0,0,0,.47,1,1.52,1.52,0,0,0,1.14.34,1.61,1.61,0,0,0,1.12-.48,1.33,1.33,0,0,0-.1-2Z"/><path d="M45.51,25.12A1.9,1.9,0,0,1,45,26.6a2.2,2.2,0,0,1-1.53.65,2.16,2.16,0,0,1-1.59-.47,2.13,2.13,0,0,1-.21-2.9,2,2,0,0,1,1.39-.63,2.72,2.72,0,0,1,.41,0l.2,3.28a1.44,1.44,0,0,0,1-.45,1.23,1.23,0,0,0,.31-.94,1.28,1.28,0,0,0-.23-.7,1.14,1.14,0,0,0-.53-.4l0-.74a1.9,1.9,0,0,1,.94.62A2,2,0,0,1,45.51,25.12Zm-3.43-.72a1.34,1.34,0,0,0,.1,1.82,1.43,1.43,0,0,0,1,.34L43,24A1.31,1.31,0,0,0,42.08,24.4Z"/></svg>