<svg id="Layer_1" data-name="Layer 1" xmlns="http://www.w3.org/2000/svg" xmlns:xlink="http://www.w3.org/1999/xlink" viewBox="0 0 62.65 62.65"><defs><style>.cls-1{fill:#73adff;}.cls-2{fill:#808184;}.cls-3{fill:url(#linear-gradient);}.cls-4{fill:#d4cedb;}.cls-5{fill:#000009;}.cls-6{fill:#bcdef7;}.cls-7{fill:url(#linear-gradient-2);}.cls-8,.cls-9{opacity:0.5;}.cls-8{fill:url(#linear-gradient-3);}.cls-9{fill:url(#linear-gradient-4);}.cls-10{fill:#225173;}.cls-11{fill:#ed5d54;}.cls-12,.cls-17{fill:#d8423f;}.cls-13,.cls-15{fill:#7c0704;}.cls-13{opacity:0.35;}.cls-14{fill:#eef3cc;}.cls-15,.cls-16{opacity:0.2;}.cls-16{fill:#fff;}.cls-17{font-size:5.36px;font-family:Poppins-Regular, Poppins;}.cls-18{fill:#e73f00;}.cls-19{fill:#2f3232;}.cls-20{fill:#f7b318;}</style><linearGradient id="linear-gradient" x1="9.33" y1="53.32" x2="52.39" y2="10.26" gradientUnits="userSpaceOnUse"><stop offset="0" stop-color="#babcbf" stop-opacity="0"/><stop offset="1" stop-color="#b8bcc1"/></linearGradient><linearGradient id="linear-gradient-2" x1="31.33" y1="4.07" x2="31.33" y2="52.18" gradientUnits="userSpaceOnUse"><stop offset="0" stop-color="#89b8e4" stop-opacity="0"/><stop offset="1" stop-color="#a0c3e4"/></linearGradient><linearGradient id="linear-gradient-3" x1="28.65" y1="28.74" x2="12.07" y2="10.57" gradientUnits="userSpaceOnUse"><stop offset="0" stop-color="#e2f3ff" stop-opacity="0.1"/><stop offset="1" stop-color="#e2f3ff"/></linearGradient><linearGradient id="linear-gradient-4" x1="36.51" y1="36.51" x2="59.07" y2="59.07" xlink:href="#linear-gradient-3"/></defs><title>snake-icon</title><path class="cls-1" d="M31.33,58.35a27,27,0,1,1,27-27A27.05,27.05,0,0,1,31.33,58.35Z"/><path class="cls-2" d="M31.33,62.65A31.33,31.33,0,1,1,62.65,31.33,31.36,31.36,0,0,1,31.33,62.65Z"/><path class="cls-3" d="M31.33,62.65A31.33,31.33,0,1,1,62.65,31.33,31.36,31.36,0,0,1,31.33,62.65Z"/><path class="cls-4" d="M31.33,59.78A28.46,28.46,0,1,1,59.78,31.33,28.49,28.49,0,0,1,31.33,59.78Z"/><path class="cls-5" d="M31.33,59.3a28,28,0,1,1,28-28A28,28,0,0,1,31.33,59.3Z"/><path class="cls-6" d="M31.33,58.59A27.26,27.26,0,1,1,58.59,31.33,27.29,27.29,0,0,1,31.33,58.59Z"/><circle class="cls-7" cx="31.33" cy="31.33" r="26.78"/><path class="cls-8" d="M30.14,28.55V7.2A24.16,24.16,0,0,0,7.33,28.55Z"/><path class="cls-9" d="M47.17,13.09A24.15,24.15,0,0,1,13.09,47.17,24.15,24.15,0,1,0,47.17,13.09Z"/><path class="cls-10" d="M12.06,46.25a.5.5,0,0,1-.5-.5,2.18,2.18,0,0,0-2.18-2.18.5.5,0,0,1-.5-.5V41.51a.5.5,0,0,1,.5-.5.82.82,0,0,0,.68-.38.71.71,0,0,0,0-.91.82.82,0,0,0-.68-.39.5.5,0,0,1-.5-.5V38a.5.5,0,0,1,.5-.5.84.84,0,1,0,0-1.68.5.5,0,0,1-.5-.5v-.86a.5.5,0,0,1,.5-.5.84.84,0,0,0,.84-.84.82.82,0,0,0-.07-.33.84.84,0,0,0-.77-.51.5.5,0,0,1-.5-.5V30.9a.5.5,0,0,1,.5-.5.84.84,0,1,0,0-1.68.5.5,0,0,1-.5-.5v-.86a.5.5,0,0,1,.5-.5.84.84,0,1,0,0-1.68.5.5,0,0,1-.5-.5v-.86a.5.5,0,0,1,.5-.5.84.84,0,1,0,0-1.68.5.5,0,0,1-.5-.5V19.58a.5.5,0,0,1,.5-.5,2.18,2.18,0,0,0,2.18-2.18.5.5,0,0,1,.5-.5H50.6a.5.5,0,0,1,.5.5,2.18,2.18,0,0,0,2.18,2.18.5.5,0,0,1,.5.5v1.56a.5.5,0,0,1-.5.5.84.84,0,1,0,0,1.68.5.5,0,0,1,.5.5v.86a.5.5,0,0,1-.5.5.84.84,0,1,0,0,1.68.5.5,0,0,1,.5.5v.86a.5.5,0,0,1-.5.5.84.84,0,1,0,0,1.68.5.5,0,0,1,.5.5v.86a.5.5,0,0,1-.5.5.84.84,0,0,0-.33.07.85.85,0,0,0-.45.45.84.84,0,0,0,.77,1.17.5.5,0,0,1,.5.5v.86a.5.5,0,0,1-.5.5.84.84,0,1,0,0,1.68.5.5,0,0,1,.5.5v.86a.5.5,0,0,1-.5.5.82.82,0,0,0-.68.39.71.71,0,0,0,0,.91.82.82,0,0,0,.68.38.5.5,0,0,1,.5.5v1.56a.5.5,0,0,1-.5.5,2.18,2.18,0,0,0-2.18,2.18.5.5,0,0,1-.5.5Z"/><path class="cls-11" d="M50.6,16.9H12.06a2.68,2.68,0,0,1-2.68,2.68v1.56a1.34,1.34,0,1,1,0,2.68v.86a1.34,1.34,0,1,1,0,2.68v.86a1.34,1.34,0,1,1,0,2.68v.86a1.34,1.34,0,1,1,0,2.68v.86a1.34,1.34,0,1,1,0,2.68v.86a1.34,1.34,0,1,1,0,2.68v1.56a2.68,2.68,0,0,1,2.68,2.68H50.6a2.68,2.68,0,0,1,2.68-2.68V41.51a1.34,1.34,0,1,1,0-2.68V38a1.34,1.34,0,1,1,0-2.68v-.86a1.34,1.34,0,1,1,0-2.68V30.9a1.34,1.34,0,1,1,0-2.68v-.86a1.34,1.34,0,1,1,0-2.68v-.86a1.34,1.34,0,1,1,0-2.68V19.58A2.68,2.68,0,0,1,50.6,16.9Z"/><path class="cls-12" d="M9.38,31.76a1.34,1.34,0,1,1,0,2.68v.86a1.34,1.34,0,1,1,0,2.68v.86a1.34,1.34,0,1,1,0,2.68v1.56a2.68,2.68,0,0,1,2.68,2.68H50.6a2.68,2.68,0,0,1,2.68-2.68V41.51a1.34,1.34,0,1,1,0-2.68V38a1.34,1.34,0,1,1,0-2.68v-.86a1.34,1.34,0,1,1,0-2.68v-.43H9.38Z"/><path class="cls-13" d="M13.16,20.32v22H49.49v-22ZM49.15,42H13.5V20.66H49.15Z"/><rect class="cls-14" x="13.5" y="20.66" width="35.65" height="21.33"/><polygon class="cls-15" points="49.15 31.33 49.15 41.99 13.5 41.99 13.5 31.33 13.16 31.33 13.16 42.34 49.49 42.34 49.49 31.33 49.15 31.33"/><polygon class="cls-16" points="23.09 20.32 18.82 20.32 20.54 16.9 24.82 16.9 23.09 20.32"/><polygon class="cls-16" points="25.41 20.32 24.23 20.32 25.95 16.9 27.13 16.9 25.41 20.32"/><text class="cls-17" transform="translate(41.83 25.34) scale(1.01 1)">2c</text><path class="cls-18" d="M43.21,30s0,0,0-.12c.06-.29.26-1,.85-.85A1.37,1.37,0,0,1,45,30Z"/><path class="cls-18" d="M44.66,33.16l.08.1c.19.22.7.72,1.16.32a1.37,1.37,0,0,0,.38-1.29Z"/><path class="cls-19" d="M45.71,29.53a3.3,3.3,0,0,0-2.78.66C40,32.82,42,36.23,40.19,36c-1.37-.21,0-2.48.56-5.37a1.65,1.65,0,0,1-.81-.75c-.25-.51.09-.79-.21-1.17s-1-.24-.84-1.05c.13-.6,1.16-1.35,1.7-1.94-1.27-3.63-5.14-4.38-7.17-2.26C31.9,25,31.72,27.6,31.83,30a.72.72,0,0,1,.55-.31c.85,0,.19-1.43.81-1.55s1.48.66,1.81,1.6S34.17,31.3,33.47,32A14.81,14.81,0,0,1,32,33.12c.14,2,.08,3.39-1.17,3.06-2.26-.6,1.27-5.91.19-10-.83-3.11-5.37-5.28-7.9-1.64s.22,10.09-1.82,10c.27.39.73,1.23.32,1.84-.56.83-1.15.64-1.69.18s-1.32-.24-1.39-1.09c-.05-.63,1.21-1.41,2-1.45a4.12,4.12,0,0,1,.35-1.72c-.3.34-.69.88-1.41.51s-.31-1.54.17-2.18,1.23-1,1.46-.79-.5.88-.41,1.14.36.35.32.92a7.89,7.89,0,0,0,.5-4.61,3.54,3.54,0,0,0-6-1.8C12.47,28.1,14,30.87,15,32.33a6.66,6.66,0,0,1,.59,3.91c1.89-1.9,1.22-3.63.51-5.42a3.83,3.83,0,0,1-.23-1.42c-.13.49-.64.38-1,.08s.09-1,.24-1.32.2-1.33.59-1.18.3,1,.25,1.65a2.11,2.11,0,0,1,.9-1.49,2.32,2.32,0,0,1-.42-.79c-.13-.9.57-1.22,1.34-1.23s2.18.14,2,.53a1,1,0,0,1-1.1.58c-.34,0-.6.38-.91.8l.25.07c2,.7.81,2.88.18,5.47s-.14,5.21,2.71,5.66c1.95.31,3.35-1.27,3.89-3.17.49-1.73-.37-7.05,1.3-7.39a4.65,4.65,0,0,1,.22-3.08A2,2,0,0,1,29,24.48c.93.61.34,1.58.42,2s.35.49.26,1.14-1.87.75-2.34.78c.42,1.43-1.07,4.52-1.47,6.3a5.5,5.5,0,0,0,4.51,6.69c2.91.53,4.54-.7,5.34-3.23,0-.49-.11-1.06-.49-1.26-.79-.41-1.67.08-2-.28s-.69-1.9,0-2.39,1.31.1,2-.12a4.3,4.3,0,0,1,1-.25c-.25-2.75-1.09-5.89-.05-6.75a.65.65,0,0,0-.56-.32c-.84,0-.84.18-1.42-.26s-1.35-1.79-.65-2.28,2-1,2.52-1.34a1.37,1.37,0,0,1,2.08,1,7.67,7.67,0,0,1-.52,3.13c1,.44.63,1.74.11,3.45.37-.68.85-1.33,1.27-1,.7.5.55,1.1.94,2.09S39.7,33.35,38.77,33c-.28-.12-.43-.62-1.08-.54a.61.61,0,0,1-.55-.15,14.75,14.75,0,0,0-.49,2.48A3.65,3.65,0,0,0,39.92,39c3.7.67,3.89-5.7,3.89-5.7a3.54,3.54,0,0,0,2.61-.63c.75-.69,2.47-1.67,2.24-2.32S47,29.85,45.71,29.53ZM19.87,26.62c.33-.34.57.15.89.64s.89.78.62,1.25-1,1.13-1.4,1,.19-1.08,0-1.57S19.47,27,19.87,26.62Zm5,2.46c-.32.77-.44,1.28-1.23,1s-1.21-2.29-1-3.29,1.73-1.26,1.87-.7-.61,1.1-.08,1.42A1.27,1.27,0,0,1,24.91,29.08Zm-.39,3.44a4.47,4.47,0,0,1-.72,4c-1.05,1.19-1.57,0-1.54-.18.12-.86,1.11-1.42,1.36-2.11s-.39-1-.11-1.71S24.29,32.05,24.53,32.52Zm5.47,1c-.15.39-.71,1.16-1.16,1-.84-.32-1.71-.91-1.45-1.49s1.17-.57,1.32-1.31-.68-1.3-.23-1.94,2.15-1.1,2.31.6A14,14,0,0,1,30,33.49Zm2.08,4.15a1.28,1.28,0,0,1,.35,1.51A1.21,1.21,0,0,1,31,40.22c-.42-.16-.66-.7-1.3-.66s-1.29,1-1.84.39.6-5.25,1.47-4.4.43,1.84,1.1,2S31.52,37,32.08,37.64Zm9.5-.63c0,1-.09,2-1.17,1.93s-2.91-.88-3.33-2.06-.48-3.29.5-3.76c.47-.22.42,1.18.39,2.19s.63,1.18,1.41,1.31S41.58,36,41.58,37Zm.69-.95c-.66.27-1.27-.82-.77-2.37s.23-2.45,1-2.21.81.83.55,1.24S43.19,35.69,42.27,36.07Z"/><path class="cls-20" d="M32.43,39.15A1.21,1.21,0,0,1,31,40.22c-.42-.16-.66-.7-1.3-.66s-1.29,1-1.84.39.6-5.25,1.47-4.4.43,1.84,1.1,2,1.1-.58,1.66.1A1.28,1.28,0,0,1,32.43,39.15Z"/><path class="cls-20" d="M28.84,34.48c-.84-.32-1.71-.91-1.45-1.49s1.17-.57,1.32-1.31-.68-1.3-.23-1.94,2.15-1.1,2.31.6A14,14,0,0,1,30,33.49C29.85,33.88,29.29,34.65,28.84,34.48Z"/><path class="cls-20" d="M23.69,30.09c-.79-.27-1.21-2.29-1-3.29s1.73-1.26,1.87-.7-.61,1.1-.08,1.42a1.27,1.27,0,0,1,.41,1.56C24.6,29.85,24.47,30.36,23.69,30.09Z"/><path class="cls-20" d="M23.81,36.51c-1.05,1.19-1.57,0-1.54-.18.12-.86,1.11-1.42,1.36-2.11s-.39-1-.11-1.71.78-.47,1,0A4.47,4.47,0,0,1,23.81,36.51Z"/><path class="cls-20" d="M21.66,36.41c-.56.83-1.15.64-1.69.18s-1.32-.24-1.39-1.09c-.05-.63,1.21-1.41,2-1.45a.56.56,0,0,0,.43.47,1.38,1.38,0,0,0,.33.06C21.62,35,22.08,35.79,21.66,36.41Z"/><path class="cls-20" d="M19.53,32.83c-.79-.41-.31-1.54.17-2.18s1.23-1,1.46-.79-.5.88-.41,1.14.36.35.32.92l-.13.39C20.64,32.66,20.25,33.2,19.53,32.83Z"/><path class="cls-20" d="M19.87,26.62c.33-.34.57.15.89.64s.89.78.62,1.25-1,1.13-1.4,1,.19-1.08,0-1.57S19.47,27,19.87,26.62Z"/><path class="cls-20" d="M26.36,24.59A2,2,0,0,1,29,24.48c.93.61.34,1.58.42,2s.35.49.26,1.14-1.87.75-2.34.78a1,1,0,0,0-.63-.69,1.13,1.13,0,0,0-.59-.06A4.65,4.65,0,0,1,26.36,24.59Z"/><path class="cls-20" d="M14.88,29.48c-.39-.33.09-1,.24-1.32s.2-1.33.59-1.18.3,1,.25,1.65a4.28,4.28,0,0,0-.08.76C15.76,29.89,15.25,29.79,14.88,29.48Z"/><path class="cls-20" d="M16.44,26.37c-.13-.9.57-1.22,1.34-1.23s2.18.14,2,.53a1,1,0,0,1-1.1.58c-.34,0-.6.38-.91.8a1.32,1.32,0,0,0-.94.11A2.32,2.32,0,0,1,16.44,26.37Z"/><path class="cls-20" d="M32.38,29.74c.85,0,.19-1.43.81-1.55s1.48.66,1.81,1.6S34.17,31.3,33.47,32A14.81,14.81,0,0,1,32,33.12c-.06-.93-.17-2-.21-3.08A.72.72,0,0,1,32.38,29.74Z"/><path class="cls-20" d="M35.25,36.93c-.79-.41-1.67.08-2-.28s-.69-1.9,0-2.39,1.31.1,2-.12a4.3,4.3,0,0,1,1-.25,10.41,10.41,0,0,1,0,2.26,12.24,12.24,0,0,1-.44,2C35.71,37.69,35.62,37.12,35.25,36.93Z"/><path class="cls-20" d="M41.58,37c0,1-.09,2-1.17,1.93s-2.91-.88-3.33-2.06-.48-3.29.5-3.76c.47-.22.42,1.18.39,2.19s.63,1.18,1.41,1.31S41.58,36,41.58,37Z"/><path class="cls-20" d="M42.27,36.07c-.66.27-1.27-.82-.77-2.37s.23-2.45,1-2.21.81.83.55,1.24S43.19,35.69,42.27,36.07Z"/><path class="cls-20" d="M39.95,29.83c-.25-.51.09-.79-.21-1.17s-1-.24-.84-1.05c.13-.6,1.16-1.35,1.7-1.94A7.71,7.71,0,0,1,41,27.93a10.93,10.93,0,0,1-.25,2.65A1.65,1.65,0,0,1,39.95,29.83Z"/><path class="cls-20" d="M38.93,29.48c.7.5.55,1.1.94,2.09S39.7,33.35,38.77,33c-.28-.12-.43-.62-1.08-.54a.61.61,0,0,1-.55-.15c.17-.62.36-1.21.52-1.76C38,29.84,38.51,29.18,38.93,29.48Z"/><path class="cls-20" d="M35.55,26.81c-.84,0-.84.18-1.42-.26s-1.35-1.79-.65-2.28,2-1,2.52-1.34a1.37,1.37,0,0,1,2.08,1,7.67,7.67,0,0,1-.52,3.13,1.67,1.67,0,0,0-.46-.13,1.2,1.2,0,0,0-1,.2A.65.65,0,0,0,35.55,26.81Z"/></svg>