<svg id="Layer_1" data-name="Layer 1" xmlns="http://www.w3.org/2000/svg" xmlns:xlink="http://www.w3.org/1999/xlink" viewBox="0 0 62.65 62.65"><defs><style>.cls-1{fill:#73adff;}.cls-2{fill:#808184;}.cls-3{fill:url(#linear-gradient);}.cls-4{fill:#d4cedb;}.cls-5{fill:#000009;}.cls-6{fill:#bcdef7;}.cls-7{fill:url(#linear-gradient-2);}.cls-8,.cls-9{opacity:0.5;}.cls-8{fill:url(#linear-gradient-3);}.cls-9{fill:url(#linear-gradient-4);}.cls-10{fill:#225173;}.cls-11{fill:#ed5d54;}.cls-12,.cls-17{fill:#d8423f;}.cls-13,.cls-15{fill:#7c0704;}.cls-13{opacity:0.35;}.cls-14{fill:#eef3cc;}.cls-15,.cls-16{opacity:0.2;}.cls-16,.cls-44{fill:#fff;}.cls-17{font-size:5.69px;font-family:Poppins-Regular, Poppins;}.cls-18{fill:url(#linear-gradient-5);}.cls-19{fill:url(#linear-gradient-6);}.cls-20{fill:url(#linear-gradient-7);}.cls-21{fill:url(#linear-gradient-8);}.cls-22{fill:url(#linear-gradient-9);}.cls-23{fill:url(#linear-gradient-10);}.cls-24{fill:url(#linear-gradient-11);}.cls-25{fill:url(#linear-gradient-12);}.cls-26{fill:url(#linear-gradient-13);}.cls-27{fill:url(#linear-gradient-14);}.cls-28{fill:url(#linear-gradient-15);}.cls-29{fill:url(#linear-gradient-16);}.cls-30{fill:url(#linear-gradient-17);}.cls-31{fill:url(#linear-gradient-18);}.cls-32{fill:url(#linear-gradient-19);}.cls-33{fill:url(#linear-gradient-20);}.cls-34{fill:url(#linear-gradient-21);}.cls-35{fill:url(#radial-gradient);}.cls-36{fill:url(#radial-gradient-2);}.cls-37{fill:url(#linear-gradient-22);}.cls-38{fill:url(#linear-gradient-23);}.cls-39{fill:url(#linear-gradient-24);}.cls-40{fill:url(#linear-gradient-25);}.cls-41{fill:url(#linear-gradient-26);}.cls-42{fill:url(#linear-gradient-27);}.cls-43{fill:#231f20;}</style><linearGradient id="linear-gradient" x1="9.33" y1="53.32" x2="52.39" y2="10.26" gradientUnits="userSpaceOnUse"><stop offset="0" stop-color="#babcbf" stop-opacity="0"/><stop offset="1" stop-color="#b8bcc1"/></linearGradient><linearGradient id="linear-gradient-2" x1="31.33" y1="4.07" x2="31.33" y2="52.18" gradientUnits="userSpaceOnUse"><stop offset="0" stop-color="#89b8e4" stop-opacity="0"/><stop offset="1" stop-color="#a0c3e4"/></linearGradient><linearGradient id="linear-gradient-3" x1="28.65" y1="28.74" x2="12.07" y2="10.57" gradientUnits="userSpaceOnUse"><stop offset="0" stop-color="#e2f3ff" stop-opacity="0.1"/><stop offset="1" stop-color="#e2f3ff"/></linearGradient><linearGradient id="linear-gradient-4" x1="36.51" y1="36.51" x2="59.07" y2="59.07" xlink:href="#linear-gradient-3"/><linearGradient id="linear-gradient-5" x1="-85.2" y1="283.27" x2="-84.78" y2="285.33" gradientTransform="matrix(-0.96, 0.26, 0.26, 0.96, -120.42, -225.41)" gradientUnits="userSpaceOnUse"><stop offset="0" stop-color="#85c340"/><stop offset="0.02" stop-color="#8ac540"/><stop offset="0.17" stop-color="#a4ce43"/><stop offset="0.3" stop-color="#b4d344"/><stop offset="0.4" stop-color="#bad545"/><stop offset="1" stop-color="#436e1e"/></linearGradient><linearGradient id="linear-gradient-6" x1="-85.57" y1="289.9" x2="-83.72" y2="290.36" gradientTransform="matrix(-0.96, 0.26, 0.26, 0.96, -120.42, -225.41)" gradientUnits="userSpaceOnUse"><stop offset="0" stop-color="#436e1e"/><stop offset="0.6" stop-color="#bad545"/><stop offset="0.7" stop-color="#b4d344"/><stop offset="0.83" stop-color="#a4ce43"/><stop offset="0.98" stop-color="#8ac540"/><stop offset="1" stop-color="#85c340"/></linearGradient><linearGradient id="linear-gradient-7" x1="-85.32" y1="290.45" x2="-85.96" y2="293.31" gradientTransform="matrix(-0.96, 0.26, 0.26, 0.96, -120.42, -225.41)" gradientUnits="userSpaceOnUse"><stop offset="0" stop-color="#bad545"/><stop offset="0.23" stop-color="#d5b238"/><stop offset="0.47" stop-color="#ec932d"/><stop offset="0.61" stop-color="#f58829"/><stop offset="1" stop-color="#975410"/></linearGradient><linearGradient id="linear-gradient-8" x1="-73.62" y1="286.43" x2="-72.22" y2="286.43" gradientTransform="matrix(-0.96, 0.26, 0.26, 0.96, -120.42, -225.41)" gradientUnits="userSpaceOnUse"><stop offset="0" stop-color="#254a9d"/><stop offset="1" stop-color="#00bff2"/></linearGradient><linearGradient id="linear-gradient-9" x1="-71.8" y1="287.09" x2="-70.28" y2="287.09" xlink:href="#linear-gradient-8"/><linearGradient id="linear-gradient-10" x1="-73.24" y1="286.73" x2="-69.63" y2="286.36" xlink:href="#linear-gradient-6"/><linearGradient id="linear-gradient-11" x1="-85.95" y1="288.32" x2="-85.57" y2="286.96" xlink:href="#linear-gradient-6"/><linearGradient id="linear-gradient-12" x1="-85.84" y1="287.8" x2="-84.74" y2="283.92" xlink:href="#linear-gradient-6"/><linearGradient id="linear-gradient-13" x1="-79.06" y1="291.67" x2="-77.22" y2="285.17" xlink:href="#linear-gradient-6"/><linearGradient id="linear-gradient-14" x1="-77.08" y1="292.05" x2="-76.73" y2="288.9" xlink:href="#linear-gradient-8"/><linearGradient id="linear-gradient-15" x1="-9061.92" y1="291.51" x2="-9057.55" y2="291.51" gradientTransform="translate(8690.5 -2626.79) rotate(-15.25)" xlink:href="#linear-gradient-8"/><linearGradient id="linear-gradient-16" x1="-73.44" y1="295.99" x2="-75.82" y2="296.99" xlink:href="#linear-gradient-7"/><linearGradient id="linear-gradient-17" x1="-73.64" y1="295.95" x2="-75.62" y2="294.59" xlink:href="#linear-gradient-7"/><linearGradient id="linear-gradient-18" x1="-74.41" y1="290.94" x2="-72.33" y2="292.21" xlink:href="#linear-gradient-6"/><linearGradient id="linear-gradient-19" x1="-70.6" y1="293.85" x2="-69.35" y2="295.92" xlink:href="#linear-gradient-6"/><linearGradient id="linear-gradient-20" x1="-71.28" y1="291.96" x2="-70.54" y2="293.88" xlink:href="#linear-gradient-6"/><linearGradient id="linear-gradient-21" x1="-9048.67" y1="285.76" x2="-9045.42" y2="285.76" gradientTransform="translate(8690.5 -2626.79) rotate(-15.25)" xlink:href="#linear-gradient-5"/><radialGradient id="radial-gradient" cx="-9022.6" cy="289.02" r="1.38" gradientTransform="matrix(1.17, -0.32, 0.26, 0.96, 10517.4, -3169.27)" gradientUnits="userSpaceOnUse"><stop offset="0" stop-color="#3165af"/><stop offset="0.64" stop-color="#2b60ac"/><stop offset="1" stop-color="#255ba9"/></radialGradient><radialGradient id="radial-gradient-2" cx="-9022.57" cy="289.09" r="1.29" gradientTransform="matrix(1.17, -0.32, 0.26, 0.96, 10517.4, -3169.27)" gradientUnits="userSpaceOnUse"><stop offset="0" stop-color="#ee4323"/><stop offset="0.13" stop-color="#e84122"/><stop offset="0.3" stop-color="#d83a1e"/><stop offset="0.49" stop-color="#bc2f18"/><stop offset="0.7" stop-color="#96200f"/><stop offset="0.92" stop-color="#660c05"/><stop offset="1" stop-color="#520400"/></radialGradient><linearGradient id="linear-gradient-22" x1="-77.57" y1="288.73" x2="-78.1" y2="291.16" gradientTransform="matrix(-0.96, 0.26, 0.26, 0.96, -120.42, -225.41)" gradientUnits="userSpaceOnUse"><stop offset="0" stop-color="#fff229"/><stop offset="0.2" stop-color="#eae931"/><stop offset="0.51" stop-color="#d0de3c"/><stop offset="0.79" stop-color="#c0d743"/><stop offset="1" stop-color="#bad545"/></linearGradient><linearGradient id="linear-gradient-23" x1="-9060.65" y1="291.13" x2="-9056.29" y2="291.13" gradientTransform="translate(8690.5 -2626.79) rotate(-15.25)" xlink:href="#linear-gradient-8"/><linearGradient id="linear-gradient-24" x1="-80.47" y1="295.74" x2="-83.48" y2="297.79" xlink:href="#linear-gradient-7"/><linearGradient id="linear-gradient-25" x1="-82.34" y1="290.78" x2="-78.61" y2="289.72" xlink:href="#linear-gradient-6"/><linearGradient id="linear-gradient-26" x1="-80.8" y1="293.6" x2="-78.66" y2="294.51" xlink:href="#linear-gradient-6"/><linearGradient id="linear-gradient-27" x1="-80.72" y1="291.23" x2="-78.98" y2="289.54" xlink:href="#linear-gradient-8"/></defs><title>frog-icon</title><path class="cls-1" d="M31.33,58.35a27,27,0,1,1,27-27A27.05,27.05,0,0,1,31.33,58.35Z"/><path class="cls-2" d="M31.33,62.65A31.33,31.33,0,1,1,62.65,31.33,31.36,31.36,0,0,1,31.33,62.65Z"/><path class="cls-3" d="M31.33,62.65A31.33,31.33,0,1,1,62.65,31.33,31.36,31.36,0,0,1,31.33,62.65Z"/><path class="cls-4" d="M31.33,59.78A28.46,28.46,0,1,1,59.78,31.33,28.49,28.49,0,0,1,31.33,59.78Z"/><path class="cls-5" d="M31.33,59.3a28,28,0,1,1,28-28A28,28,0,0,1,31.33,59.3Z"/><path class="cls-6" d="M31.33,58.59A27.26,27.26,0,1,1,58.59,31.33,27.29,27.29,0,0,1,31.33,58.59Z"/><circle class="cls-7" cx="31.33" cy="31.33" r="26.78"/><path class="cls-8" d="M30.14,28.55V7.2A24.16,24.16,0,0,0,7.33,28.55Z"/><path class="cls-9" d="M47.17,13.09A24.15,24.15,0,0,1,13.09,47.17,24.15,24.15,0,1,0,47.17,13.09Z"/><path class="cls-10" d="M16.73,52.33a.5.5,0,0,1-.5-.5,2.35,2.35,0,0,0-2.35-2.35.5.5,0,0,1-.5-.5V47.31a.5.5,0,0,1,.5-.5,1.14,1.14,0,0,0,0-2.29.5.5,0,0,1-.5-.5v-.81a.5.5,0,0,1,.5-.5,1.14,1.14,0,0,0,0-2.29.5.5,0,0,1-.5-.5v-.81a.5.5,0,0,1,.5-.5,1.14,1.14,0,0,0,0-2.29.5.5,0,0,1-.5-.5V35a.5.5,0,0,1,.5-.5,1.14,1.14,0,0,0,0-2.29.5.5,0,0,1-.5-.5v-.81a.5.5,0,0,1,.5-.5,1.14,1.14,0,0,0,0-2.29.5.5,0,0,1-.5-.5v-.81a.5.5,0,0,1,.5-.5,1.14,1.14,0,0,0,0-2.29.5.5,0,0,1-.5-.5v-.81a.5.5,0,0,1,.5-.5,1.14,1.14,0,0,0,0-2.29.5.5,0,0,1-.5-.5v-.81a.5.5,0,0,1,.5-.5,1.14,1.14,0,0,0,0-2.29.5.5,0,0,1-.5-.5V13.67a.5.5,0,0,1,.5-.5,2.35,2.35,0,0,0,2.35-2.35.5.5,0,0,1,.5-.5H45.92a.5.5,0,0,1,.5.5,2.35,2.35,0,0,0,2.35,2.35.5.5,0,0,1,.5.5v1.67a.5.5,0,0,1-.5.5,1.14,1.14,0,1,0,0,2.29.5.5,0,0,1,.5.5v.81a.5.5,0,0,1-.5.5,1.14,1.14,0,1,0,0,2.29.5.5,0,0,1,.5.5v.81a.5.5,0,0,1-.5.5,1.14,1.14,0,0,0,0,2.29.5.5,0,0,1,.5.5v.81a.5.5,0,0,1-.5.5,1.14,1.14,0,1,0,0,2.29.5.5,0,0,1,.5.5v.81a.5.5,0,0,1-.5.5,1.14,1.14,0,1,0,0,2.29.5.5,0,0,1,.5.5v.81a.5.5,0,0,1-.5.5,1.14,1.14,0,1,0,0,2.29.5.5,0,0,1,.5.5v.81a.5.5,0,0,1-.5.5,1.14,1.14,0,1,0,0,2.29.5.5,0,0,1,.5.5V44a.5.5,0,0,1-.5.5,1.14,1.14,0,1,0,0,2.29.5.5,0,0,1,.5.5V49a.5.5,0,0,1-.5.5,2.35,2.35,0,0,0-2.35,2.35.5.5,0,0,1-.5.5Z"/><path class="cls-11" d="M48.77,49V47.31a1.64,1.64,0,1,1,0-3.29v-.81a1.64,1.64,0,1,1,0-3.29v-.81a1.64,1.64,0,0,1,0-3.29V35a1.64,1.64,0,0,1,0-3.29v-.81a1.64,1.64,0,1,1,0-3.29v-.81a1.64,1.64,0,0,1,0-3.29v-.81a1.64,1.64,0,0,1,0-3.29v-.81a1.64,1.64,0,1,1,0-3.29V13.67a2.85,2.85,0,0,1-2.85-2.85H16.73a2.85,2.85,0,0,1-2.85,2.85v1.67a1.64,1.64,0,1,1,0,3.29v.81a1.64,1.64,0,0,1,0,3.29v.81a1.64,1.64,0,0,1,0,3.29v.81a1.64,1.64,0,1,1,0,3.29v.81a1.64,1.64,0,1,1,0,3.29v.81a1.64,1.64,0,1,1,0,3.29v.81a1.64,1.64,0,1,1,0,3.29V44a1.64,1.64,0,1,1,0,3.29V49a2.85,2.85,0,0,1,2.85,2.85H45.92A2.85,2.85,0,0,1,48.77,49Z"/><path class="cls-12" d="M48.77,31.73v-.37H13.88v.37a1.64,1.64,0,1,1,0,3.29v.81a1.64,1.64,0,1,1,0,3.29v.81a1.64,1.64,0,1,1,0,3.29V44a1.64,1.64,0,1,1,0,3.29V49a2.85,2.85,0,0,1,2.85,2.85H45.92A2.85,2.85,0,0,1,48.77,49V47.31a1.64,1.64,0,1,1,0-3.29v-.81a1.64,1.64,0,1,1,0-3.29v-.81a1.64,1.64,0,0,1,0-3.29V35a1.64,1.64,0,0,1,0-3.29Z"/><path class="cls-13" d="M17.89,14.47V48.18H44.76V14.47Zm26.5,33.35H18.26v-33H44.39Z"/><rect class="cls-14" x="18.26" y="14.83" width="26.13" height="32.98"/><polygon class="cls-15" points="44.39 31.36 44.39 47.82 18.26 47.82 18.26 31.36 17.89 31.36 17.89 48.18 44.76 48.18 44.76 31.36 44.39 31.36"/><polygon class="cls-16" points="26.68 14.47 21.88 14.47 23.71 10.82 28.51 10.82 26.68 14.47"/><polygon class="cls-16" points="28.56 14.47 27.65 14.47 29.48 10.82 30.39 10.82 28.56 14.47"/><text class="cls-17" transform="translate(38.23 20.31) scale(1.01 1)">1c</text><path class="cls-18" d="M37.91,26.82A1.8,1.8,0,0,1,36,28a1.24,1.24,0,0,1-1.22-1.5,1.8,1.8,0,0,1,1.91-1.2A1.24,1.24,0,0,1,37.91,26.82Z"/><path class="cls-19" d="M37.85,32.71a1.12,1.12,0,0,0-.76.42,1,1,0,0,0-.21-.28,2.47,2.47,0,0,1-.22-.31l-.3-.43,0,0,1-1,0,.06.7,1a1.91,1.91,0,0,0,.36.39,1.1,1.1,0,0,0,.37.15l.12,0C38.55,33,38.18,32.77,37.85,32.71Z"/><path class="cls-20" d="M35.6,34.22a.58.58,0,0,1,.63-.37l.17,0c.29-.17.65-.3.71-.59a.3.3,0,0,0,0-.18,1.12,1.12,0,0,1,.76-.42c.33.06.69.25,1.05,0,.51.13,1.13.08,1.65.21a3.39,3.39,0,0,1,1,.39,1.73,1.73,0,0,1,.58.42.76.76,0,0,1,.33,0c.32,0,.52.25.46.49a.63.63,0,0,1-.68.39c-.31,0-.51-.24-.46-.48a3.76,3.76,0,0,1-.57-.38,3.36,3.36,0,0,0-1.05-.51c-.13,0-.87-.16-.78.18,0,.1.22.17.29.23A3.85,3.85,0,0,1,40,34a2.39,2.39,0,0,1,.53.83h.16a.46.46,0,0,1,.46.55.67.67,0,0,1-.71.44A.46.46,0,0,1,40,35.3a.49.49,0,0,1,.05-.12,2.92,2.92,0,0,1-.56-.88,2.13,2.13,0,0,0-.5-.56.78.78,0,0,0-.52-.28,1.48,1.48,0,0,0,0,.86,2.4,2.4,0,0,1,.06.48c.26.07.42.26.37.46a.68.68,0,0,1-.74.38c-.35,0-.58-.25-.52-.49a.55.55,0,0,1,.4-.34l0-.18c0-.24-.07-.87-.37-1s-.31.06-.42.15a5.64,5.64,0,0,1-.49.32l-.09.05a.33.33,0,0,1,0,.14.58.58,0,0,1-.63.37C35.73,34.65,35.55,34.45,35.6,34.22Z"/><path class="cls-21" d="M25.9,31.48s-.6.45-1.19,1A9,9,0,0,0,25,31.3,3.07,3.07,0,0,1,25.9,31.48Z"/><path class="cls-22" d="M23.16,34.11a3.75,3.75,0,0,1,.91-2.43,5.7,5.7,0,0,0,0,1.36c-.12.12-.22.23-.31.34Z"/><path class="cls-23" d="M24.34,31.46a1.17,1.17,0,0,1,.7-.16,9,9,0,0,1-.33,1.14c-.23.2-.46.41-.65.6a5.7,5.7,0,0,1,0-1.36A2,2,0,0,1,24.34,31.46Z"/><path class="cls-24" d="M38.86,29.79a4,4,0,0,0-.46.36h0c-1.16.09-2.2.67-3.4.6h-.38a20.23,20.23,0,0,0,6.51-2.84A9.35,9.35,0,0,1,38.86,29.79Z"/><path class="cls-25" d="M34.14,30.58c-.43-1.15.18-2.45.71-3.67a15.71,15.71,0,0,1,1.81-.25A11.51,11.51,0,0,1,39,26.37c1.39,0,2.25.73,2.13,1.35a.63.63,0,0,1-.09.21,20.23,20.23,0,0,1-6.51,2.84C34.37,30.75,34.17,30.71,34.14,30.58Z"/><path class="cls-26" d="M23.33,34.61a.71.71,0,0,1-.17-.5h0l.59-.73a31.43,31.43,0,0,1,3.13-2.66,9,9,0,0,1,2.64-1.22,4.87,4.87,0,0,0,3-1.61,4.86,4.86,0,0,1,2.37-1c-.52,1.22-1.14,2.52-.71,3.67.06.21.54.19.82.18,1.21.07,2.24-.5,3.4-.6h0c-.3.25-.7.6-1.09,1l-1,1a3.21,3.21,0,0,0-.31.4,13.79,13.79,0,0,1-1.39,1.64,13.15,13.15,0,0,0,.67-2.49,4.05,4.05,0,0,0-.65.21c.08-.15,0-.23,0-.4A38.68,38.68,0,0,0,25,35.92l-.36-.12A2.23,2.23,0,0,1,23.33,34.61Z"/><path class="cls-27" d="M34.67,31.84c-1.71.71-2.44,2.45-3.18,3.9l0-.1c-.23.44-2.74.64-3,.66A10.27,10.27,0,0,1,25,35.92a38.16,38.16,0,0,1,9.61-4.45C34.56,31.63,34.75,31.69,34.67,31.84Z"/><path class="cls-28" d="M23.71,35.79c.06-.45.19-.77.7-.53a13.39,13.39,0,0,1,4.5,3c-.81-.22-1.7-.23-2.54-.42l.3,0S24.2,36.73,23.71,35.79Z"/><path class="cls-29" d="M29.66,40a7.69,7.69,0,0,1,1.14-.15.83.83,0,0,1,.65-.41c.39-.06.73.11.75.37s-.29.51-.68.57a.72.72,0,0,1-.69-.21c-.36.17-.94.38-1.2.55-.41.26-.69.59-.32.92a.89.89,0,0,1,.19.23h0a.58.58,0,0,1,.72.45.68.68,0,0,1-.64.64.58.58,0,0,1-.72-.45.46.46,0,0,1,0-.2l-.22-.14a2.74,2.74,0,0,1,.87-1.74C29.54,40.31,29.64,40.13,29.66,40Z"/><path class="cls-30" d="M29.62,39.75c-.36-.17-.69,0-1,.13.11-.1.26-.23.42-.35a9.89,9.89,0,0,0,.9-.8.4.4,0,0,1,.44.33c0,.22-.21.43-.49.47h0a1.13,1.13,0,0,1-.17.38A.25.25,0,0,0,29.62,39.75Z"/><path class="cls-31" d="M28.86,38.17a13.45,13.45,0,0,0-4.46-2.92c-.5-.23-.63.08-.7.53a.67.67,0,0,1-.08-.29,1.14,1.14,0,0,1,1-1.13c1.65,1.19,4.07,2,5.45,3.39a.64.64,0,0,1,0,.69l-.2.28-.25.24A1.28,1.28,0,0,0,28.86,38.17Z"/><path class="cls-32" d="M26.24,40.72c.58-.22,2.2-.68,2.2-.68l.16-.16c.34-.11.67-.3,1-.13a.25.25,0,0,1,0,.15l0,.07h0c0,.17-.12.34-.12.41a2.74,2.74,0,0,0-.87,1.74c-.43-.28-.87-.68-1.17-.64a3.74,3.74,0,0,1-3.1-.15c-1.55-.81-4.1-1.59-4.14-2.24a4.69,4.69,0,0,1,1.75.12C22.35,39.37,25.69,40.93,26.24,40.72Z"/><path class="cls-33" d="M22.44,37.51c1.33,0,3.2.2,3.93.28s1.72.2,2.54.42l0,0a1.28,1.28,0,0,1,.81.79,6,6,0,0,1-.66.57,3.32,3.32,0,0,1-1.84.26c-1.36-.1-5.19-.59-5.19-.59h0a4.69,4.69,0,0,0-1.75-.12.3.3,0,0,1,0,0C20.29,38.41,20.76,37.51,22.44,37.51Z"/><path class="cls-34" d="M38.54,28a1.8,1.8,0,0,1-1.91,1.2,1.24,1.24,0,0,1-1.22-1.5,1.8,1.8,0,0,1,1.91-1.2A1.24,1.24,0,0,1,38.54,28Z"/><path class="cls-35" d="M38.47,28.07a1.63,1.63,0,0,1-1.73,1.09,1.12,1.12,0,0,1-1.11-1.36,1.64,1.64,0,0,1,1.74-1.09A1.12,1.12,0,0,1,38.47,28.07Z"/><path class="cls-36" d="M38.44,28.09a1.52,1.52,0,0,1-1.62,1,1,1,0,0,1-1-1.27,1.52,1.52,0,0,1,1.62-1A1,1,0,0,1,38.44,28.09Z"/><path class="cls-37" d="M26.63,34.88a12.49,12.49,0,0,0,1.14-.59c.23-.14.48-.25.7-.4s.23-.12.35-.18.25-.16.38-.22c.35-.18.69-.34,1.06-.49s.45-.18.67-.29.4-.24.61-.36a3.68,3.68,0,0,1,.82-.32c.21-.06.41-.06.62-.14s.27-.16.41-.22a7.35,7.35,0,0,1,.83-.23,1.19,1.19,0,0,1,.64,0c.14,0,.21.09.19.22a.36.36,0,0,1-.19.24c-.11.07-.16.07-.21,0s0-.28-.08-.25a2.11,2.11,0,0,0-.82.17h0a.6.6,0,0,0-.16.12s0,.09,0,.14,0,.22,0,.33-.09.35-.21.34-.11-.31-.11-.38,0-.26-.22-.2-.4.11-.41.36,0,.47,0,.71a2.31,2.31,0,0,1-.07.58c0,.11-.12.37-.3.4s-.07-.22-.05-.28a4.28,4.28,0,0,0,.07-.49,1.44,1.44,0,0,0-.08-.48.48.48,0,0,0-.35-.4A.62.62,0,0,0,31,33a1.54,1.54,0,0,0,.22,1.17,1.33,1.33,0,0,1,.19.9.31.31,0,0,1-.27.22c-.13,0-.13,0-.17-.15-.11-.28-.16-.58-.26-.87a2.58,2.58,0,0,0-.4-.74c-.13-.16-.32-.32-.55-.15-.42.3-.25.77-.12,1.12.05.14.61,1.13.37,1.22s-.31-.12-.38-.19-.26-.27-.39-.42-.38-.55-.61-.8-.26-.18-.37,0a.56.56,0,0,0,0,.39c0,.23.12.45.18.67s.1.31,0,.4-.18,0-.25-.06a4.62,4.62,0,0,1-.38-.34,3,3,0,0,0-.2-.26c-.27-.23-.7,0-1,.12-.11,0-.29.08-.35,0S26.52,34.93,26.63,34.88Z"/><path class="cls-38" d="M24.64,34.37a1.57,1.57,0,0,1,1,.15s3.69,1.91,4.41,3.24C28.71,36.37,26.29,35.56,24.64,34.37Z"/><path class="cls-39" d="M36.15,38.86c.19-.2-.21-.45-.35-.77l.17,0a8.12,8.12,0,0,1,.36-.79.31.31,0,0,1-.11-.32.52.52,0,0,1,.56-.33c.25,0,.42.21.36.42a.5.5,0,0,1-.44.33,7.92,7.92,0,0,1-.41,1.05,7.19,7.19,0,0,1,2.29-.71l.13,0a.7.7,0,0,1,.47-.12c.3,0,.5.25.44.49a.61.61,0,0,1-.66.38.46.46,0,0,1-.44-.34c-.73-.17-2,.76-2,.76a2.49,2.49,0,0,1,2.3.86h0a.52.52,0,0,1,.18,0,.34.34,0,0,1,.34.42.5.5,0,0,1-.53.34.34.34,0,0,1-.34-.42.38.38,0,0,1,.06-.13,2.1,2.1,0,0,0-.55-.55c-.6-.49-1.84,0-1.84,0a3.91,3.91,0,0,1,.36,1.29.91.91,0,0,1,0,.28.36.36,0,0,1,.23.42.6.6,0,0,1-.65.37c-.3,0-.49-.24-.43-.47a.58.58,0,0,1,.57-.37h0c.2-.78-.63-1.67-.63-1.67l-.38-.16A1.81,1.81,0,0,0,36.15,38.86Z"/><path class="cls-40" d="M32.18,35.26l.1-.15c.89-1.19,2.21-2.11,2.76-3.41l.28-.08a13.15,13.15,0,0,1-.67,2.49c-.54.57-1,1-1,1l.09.16A2.26,2.26,0,0,0,32.18,35.26Z"/><path class="cls-41" d="M33.72,35.32c.3.55,1.26,2.29,1.36,2.45a1.7,1.7,0,0,0,.73.32c.13.32.54.57.35.77a1.81,1.81,0,0,1-1,.27c-.4-.17-1.06-.48-1.81-.86a4.51,4.51,0,0,1-1.65-2,3.77,3.77,0,0,1,.46-1A2.26,2.26,0,0,1,33.72,35.32Z"/><path class="cls-42" d="M35,31.71c-.55,1.29-1.87,2.22-2.76,3.41a3.85,3.85,0,0,0-.57,1.15c-.11-.23-.19-.42-.23-.52C32.27,34.19,33.06,32.31,35,31.71Z"/><path class="cls-43" d="M37.64,28.44,37,27.16A1.83,1.83,0,0,1,37.64,28.44Z"/><ellipse class="cls-44" cx="36.6" cy="27.61" rx="0.15" ry="0.12" transform="translate(-6.04 10.75) rotate(-15.46)"/><path class="cls-44" d="M35,27.23l-.14,0-.38.12L34,27.6a6.77,6.77,0,0,0-.73.34,3.52,3.52,0,0,0-.77.55l-.09.09-.08.08-.08.07-.09.07a2.82,2.82,0,0,1-.44.24,11.07,11.07,0,0,1-1,.38c-.36.12-.74.24-1.11.38a8,8,0,0,0-1.06.5,5.14,5.14,0,0,0-.48.31l-.44.32-.83.61L26,32.1l-.33.24-.29.23-.47.37-.3.24-.11.08.11-.08.32-.22.5-.34.3-.21.34-.23.76-.52.85-.58.45-.31c.15-.1.3-.2.46-.29a7.75,7.75,0,0,1,1-.48c.36-.14.72-.26,1.09-.39a9.91,9.91,0,0,0,1.07-.41,2.81,2.81,0,0,0,.48-.28l.11-.08.1-.09.08-.09.08-.08a3.54,3.54,0,0,1,.7-.54c.24-.15.48-.27.69-.37l.56-.25.37-.15Z"/></svg>