<?xml version="1.0" encoding="utf-8"?>
<!-- Generator: Adobe Illustrator 20.1.0, SVG Export Plug-In . SVG Version: 6.00 Build 0)  -->
<svg version="1.1" id="Layer_1" xmlns="http://www.w3.org/2000/svg" xmlns:xlink="http://www.w3.org/1999/xlink" x="0px" y="0px"
	 viewBox="0 0 97.1 96" style="enable-background:new 0 0 97.1 96;" xml:space="preserve">
<g transform="matrix( 1, 0, 0, 1, 245.1,167.6) ">
	<g transform="matrix( 1, 0, 0, 1, 0,0) ">
		<g>
			<g id="Symbol_1_0_Layer0_0_FILL">
				<path style="fill:#FFFFFF;" d="M-201.9-85.9l2.9-1.4c0.7-0.4,1.4-1.1,1.8-2c-6.3,1.4-13.1,1.7-20.2,0.7l11.3,3.4l1.8-0.2
					L-201.9-85.9 M-192.7-78.8c-0.8-0.4-1.8-0.4-3.1-0.2c-0.3,0.1-0.6,0.2-0.9,0.3C-195.4-78.7-194-78.7-192.7-78.8 M-195.9-109.5
					c0.5,0.3,1.1,0.3,1.8,0.2c-0.1-1.1,0.1-2.2,0.5-3.3l0.2-0.7c-3.5,2.2-7.7,3-12.4,2.3l6.1,3.4c0.1-0.3,0.3-0.5,0.5-0.4h0.6
					c0.3,0.1,0.5-0.1,0.5-0.3c0-0.6,0.2-1.1,0.6-1.4c0.1-0.2,0.2-0.3,0.4-0.3L-195.9-109.5 M-193.3-113.6l-0.2,0.4h0.1L-193.3-113.6
					 M-213.6-156.9c-4.5,2-8.6,4.8-12.4,8.6c-7.9,8-11.8,17.6-11.8,29c0,8.7,2.4,16.5,7.2,23.3l0.4-0.2c5.8-1.7,11.3-2.8,16.5-3.4
					h0.1v-0.6c-0.8-1.3-2-2.6-3.5-3.8l-9.4-6.4l-0.7-0.4c-0.7-0.6-1.3-1.4-1.8-2.3c-1.1-2.4-1.6-4.9-1.7-7.6
					c-0.5-0.1-0.5-1.1,0.1-3.2l-2.6,2.7c-0.3,0.3-0.6,0.6-1,0.7c-0.3,0.1-0.7,0.1-1.1,0.1c-0.9-0.2-1.3-0.7-1.4-1.4l-0.1-0.3
					l0.7-2.4c5.4-7,10.4-12.8,15-17.4C-217.8-147.7-215.3-152.7-213.6-156.9 M-166-118.8l-0.1-0.1l-2.1-1.5l-4,2
					c-1.3,0.6-2.7,1.1-4.4,1.4c-1.7,0.3-4.3,0.5-7.7,0.6c-1,2.9-2.4,5.6-4.2,7.9l-0.6,0.8l0.8,0.5c0.9,0.5,0.9,1.1,0,1.9l-0.2,0.2
					l-1,0.9c-0.5,0.4-1.1,0.6-1.7,0.4c-0.6,0.6-0.8,1.1-0.6,1.4c1.9,1.4,3.8,3,5.6,4.7c1.1,1.8,0.7,3.8-1,6.1l-0.9,0.8l-0.7,0.4
					c-0.2,1.2,0.2,2.3,1.2,3.4l2,0.8c1.6,0.7,2.7,1.7,3.4,3l0.4,0.3c-0.7,0.1-1.3,0.7-1.8,2.1c5.6-2,10.7-5.2,15.2-9.8
					c7.2-7.2,11.2-15.7,11.9-25.4C-160.2-116-163.4-116.9-166-118.8 M-177.5-145.2l1.5,0.6l9.1,4.2l2.8,1.3l0.3-0.2
					c0.6-0.3,1.2-0.5,1.8-0.6c-1.8-2.9-3.9-5.7-6.6-8.3c-7.9-8-17.5-11.9-28.7-11.9c-3.6,0-7.1,0.4-10.4,1.2c0,0.4-0.1,0.9-0.2,1.4
					c0.5-0.2,1-0.1,1.7,0.2l0.2,0.1l0.3,0.5c0.4,0.4,0.5,0.8,0.3,1.4l1.5,0.3c0.7,0.3,0.9,0.7,0.7,1.4l1.5,0.3
					c0.5,0.2,0.8,0.7,1,1.4c0.1,0.6-0.1,1-0.6,1.1c-0.5,0.2-1.1,0.1-1.6-0.3l0.1,0.5c-0.6,1.2-2.1,3.3-4.4,6.3l0.4-0.3
					c0.9-0.6,2.5-1.2,4.9-1.8l3.8-0.9c-0.1-0.4,0.1-0.8,0.6-1.2c0.4-0.4,0.8-0.9,1.2-1.5c0.8-1.3,1.9-1.9,3.2-1.8l1.5,0.5
					c1,0.7,1.9,1.8,2.6,3.3c2.4,0.2,5,0.7,7.7,1.5L-177.5-145.2z"/>
				<path style="fill:#FF6633;" d="M-186.6-72.4c1.2,0.7,2.3,0.6,3.3-0.4l-7.8-5.2C-189.5-75.1-188-73.2-186.6-72.4 M-183.7-80.7
					C-183.7-80.8-183.7-80.8-183.7-80.7c0.6-1.4,1.2-2.1,1.9-2.2l-0.4-0.3c-1.8-1.7-4-2.6-6.7-2.9c-2.7-0.3-5.3-0.2-7.7,0.2
					c-1.1,0.2-2.1,0.3-2.8,0.6l-2.2,0.6c1.9,0.3,3.8,0.2,5.8-0.2c0.4-0.1,0.8-0.1,1.2,0c1.8,0.1,3.6,0.3,5.4,0.6l3.5,1.5
					C-184.9-82.3-184.2-81.6-183.7-80.7L-183.7-80.7 M-188.9-90.4h-0.2l-8.2,1.2c-0.5,0.9-1.1,1.6-1.8,2l-2.9,1.4l-2.4,0.6l1.4,0.4
					c1.7-0.4,3.4-1,5.1-1.8c1.4-0.6,2.8-1,4.2-1c2-0.2,4,0.1,6,0.7C-188.6-88.1-189-89.3-188.9-90.4 M-227.3-110.7l0.7,0.4l9.4,6.4
					c1.5,1.2,2.7,2.4,3.5,3.8v0.5l7.7-1c-8.3-4-12.1-8.4-11.4-13.1c9.2,2.4,17.3,6.9,24.2,13.6c2.5,0.5,4.8,1.3,6.8,2.4
					c-1.8-1.7-3.7-3.2-5.6-4.7c-0.2-0.3,0.1-0.8,0.6-1.4c0.6,0.2,1.1,0,1.7-0.4l1-0.9c-0.4,0.2-0.7,0.2-1,0c-1.7-1-2.8-2.1-3.4-3.4
					l-0.2-0.7l-0.2-2.8l0.1-1.2h-0.1l-0.2,0.7c-0.4,1.1-0.5,2.2-0.5,3.3c-0.7,0.1-1.3,0-1.8-0.2l-1.3-0.6c-0.2,0.1-0.3,0.2-0.4,0.3
					c-0.4,0.4-0.6,0.9-0.6,1.4c0,0.3-0.2,0.4-0.5,0.3h-0.6c-0.2-0.1-0.4,0.1-0.5,0.4l-6.1-3.4c4.7,0.6,8.9-0.1,12.4-2.3
					c-10.7-0.6-21-2.4-31-5.4l-0.4,0.2c-1.8-0.6-3,0.2-3.6,2.6C-228.5-113.9-228.1-112.2-227.3-110.7 M-201.5-153.4l-1.5-0.3
					l-1.4,0.2l0.9,0.5c0.4,0.4,0.7,0.8,0.8,1.3l0.1,0.5c0.5,0.4,1.1,0.5,1.6,0.3c0.4-0.2,0.6-0.5,0.6-1.1
					C-200.7-152.7-201-153.2-201.5-153.4 M-205.7-154.5l0.5-0.9c0.2-0.5,0.1-1-0.3-1.4l-0.3-0.5h-0.3c-0.6-0.4-1.2-0.5-1.7-0.2
					l-1,0.5v0.1c-0.5,0.9-0.6,1.5-0.2,1.9c-0.7,0-1.4,0.1-2.2,0.4l-0.4,0.2c-1.8,1.4-3.5,4.2-5.1,8.4l4.4-3.6l0.6-0.8
					c0.6-0.9,1.3-1.7,2.2-2.5c0.4-0.3,0.8-0.7,1.1-1.3l0.7,0.4C-206.9-153.6-206.2-153.8-205.7-154.5 M-209.5-163.7
					c-0.5-0.3-1.1-0.3-1.7-0.2c-0.6,0.3-1,0.7-1.3,1.2c-0.3,0.5-0.3,1.1-0.1,1.7l0.3,0.6l0.8,0.7l1,0.2l0.7-0.1c0.6-0.2,1-0.5,1.3-1
					l0.2-0.3c0.2-0.5,0.2-1,0-1.4C-208.6-163-209-163.4-209.5-163.7z"/>
				<path style="fill:#CC6633;" d="M-186.2-79.1l-2-1l3.6,2.8c0.9,0.6,1.5,1.4,1.9,2.2c-0.4-0.9-0.2-1.7,0.6-2.4
					C-183.5-77.7-184.8-78.2-186.2-79.1 M-185.7-86.2l-2-0.8c-2-0.6-4-0.9-6-0.7c-1.3,0.1-2.7,0.4-4.2,1c-1.8,0.7-3.5,1.3-5.1,1.8
					l1.3,0.2l2.2-0.6c0.7-0.2,1.7-0.4,2.8-0.6c2.4-0.4,5-0.5,7.7-0.2s5,1.2,6.7,2.9C-182.9-84.5-184.1-85.4-185.7-86.2
					 M-205.3-155.4l-0.5,0.9c-0.5,0.7-1.1,0.9-1.9,0.6l-0.7-0.4c-0.3,0.5-0.7,1-1.1,1.3c-0.9,0.7-1.7,1.6-2.2,2.5l-0.6,0.8
					c1.8-1.3,3.5-2.5,5.2-3.4l1.4-0.6h0.8l0.6,0.2l1.4-0.2c0.2-0.6,0-1.1-0.7-1.4L-205.3-155.4 M-209.8-159.6l-0.7,0.1l-1,3l1.5-0.2
					l1.2-0.3v-0.1l1-0.5c0.2-0.5,0.2-1,0.2-1.4c0-0.7-0.3-1.4-0.8-1.9l-0.1,0.3C-208.8-160.1-209.2-159.7-209.8-159.6 M-168.2-120.4
					l-3.9-2.7l-5,2.3l-3.5,1.2c-1.5,0.3-3.2,0.4-4.9,0.2c0.7,1,1.1,2,1.2,3.1c3.4-0.1,6-0.3,7.7-0.6c1.7-0.4,3.1-0.9,4.4-1.4
					L-168.2-120.4z"/>
				<path style="fill:#FFCC00;" d="M-183.7-80.7L-183.7-80.7c-0.5-0.9-1.2-1.5-2.1-2l-3.5-1.5c-1.8-0.3-3.5-0.5-5.4-0.6
					c-0.4-0.1-0.8-0.1-1.2,0c-2,0.4-3.9,0.4-5.8,0.2l-1.3-0.2l-1.4-0.4h-1.7c6.3,1.5,9.8,3.6,10.2,6.2c1.3-0.3,2.3-0.2,3.1,0.2
					c0.2,0,0.3,0.1,0.4,0.2l1.1,0.6l7.8,5.2l1.3,0.6c0-0.5,0-0.9-0.1-1.4c-0.2-0.6-0.3-1.1-0.6-1.6c-0.4-0.8-1-1.5-1.9-2.2l-3.6-2.8
					l2,1c1.4,0.9,2.7,1.4,4.1,1.5C-182.1-78.8-182.7-79.9-183.7-80.7 M-231.6-95.8c0.4,0,0.8,0,1.2,0.1c19,0.6,33.7-0.1,44-1.9
					c-11.8-2.9-26.5-2.4-43.8,1.4l-0.4,0.2L-231.6-95.8z"/>
				<path style="fill:#9900FF;" d="M-206-100.6c4.3-0.4,8.6-0.2,12.8,0.6c-6.9-6.7-15-11.3-24.2-13.6
					C-218.1-109-214.2-104.6-206-100.6 M-210.5-142c2.8-4,3.8-6.1,3-6.4c-1.5-1.4-7.6,4.9-18.1,18.9
					C-221.1-133.8-216.1-138-210.5-142 M-149.3-126.1l-1.4-0.2l-1.5,0.1c-0.9,0.1-1.7,0.6-2.5,1.6c0.6-0.2,1.3,0,2.2,0.7
					c0.9-0.3,1.9-0.1,3.1,0.6c0.1,0,0.1,0,0.2,0.1c0.4,0.2,0.7,0.6,1,1.2C-147.8-123.9-148.2-125.2-149.3-126.1z"/>
				<path style="fill:#66CC00;" d="M-190.6-108.2c-0.6-0.5-1.4-0.6-2.4-0.3c0.5,1.3,1.7,2.5,3.4,3.4c0.3,0.2,0.7,0.2,1,0l0.2-0.2
					c0.9-0.8,0.9-1.4,0-1.9l-0.8-0.5L-190.6-108.2 M-230.4-95.7c-0.4-0.1-0.8-0.1-1.2-0.1c-1.2,0.4-2,1.3-2.5,2.6l-0.2,1
					c0.1,0.6,0.4,1.1,1,1.5l1.2,0.6l0.2,0.2h0.2c2.4,0.2,4.8,0.3,7.1,0.6c2.4,0.2,4.8,0.5,7.1,0.7c7.1,1,13.9,0.7,20.2-0.7l8.2-1.2
					h0.2l0.7-0.4l0.8-0.7c1.7-2.2,2-4.3,1-6.1C-196.7-95.8-211.3-95.2-230.4-95.7 M-210.5-159.5l-1-0.2l-0.8-0.7
					c-0.4,1.1-0.8,2.3-1.3,3.5c-1.7,4.3-4.2,9.3-7.5,15l4.4-4.2c1.6-4.2,3.3-7,5.1-8.4l0.4-0.2c0.7-0.3,1.5-0.4,2.2-0.4
					c-0.3-0.4-0.2-1.1,0.2-1.9l-1.2,0.3l-1.5,0.2L-210.5-159.5 M-189-148c-0.7-1.4-1.6-2.5-2.6-3.3l-1.5-0.5
					c-1.3-0.1-2.4,0.5-3.2,1.8c-0.4,0.6-0.8,1.1-1.2,1.5c-0.5,0.4-0.7,0.8-0.6,1.2l-3.8,0.9c-2.4,0.5-4,1.1-4.9,1.8l-0.4,0.3
					l-3.3,2.2c-5.6,4-10.6,8.2-15,12.5l-0.2,0.3l-5,5.3c-0.6,2.1-0.6,3.2-0.1,3.2c13.6-17.8,31.4-26,53.3-24.4l-3.8-1.2
					C-184.1-147.3-186.6-147.8-189-148 M-155-133.4l-9-5.9l-2.8-1.3c-21.2-9-42.5-2.4-63.9,19.8c0.1,2.7,0.6,5.3,1.7,7.6
					c0.4,0.9,1,1.7,1.8,2.3c-0.8-1.4-1.1-3.1-1-5.1c0.6-2.4,1.8-3.3,3.6-2.6l0.4-0.2c3.7-1.4,7.4-2.6,11.2-3.7c4.3-1.2,8.6-2.2,13-3
					c8.6-1.5,17.2-1,25.6,1.4l1-0.5l1.3-0.9c1.1-0.7,2.3-1.3,3.6-1.7l1.1-0.2c2.1-0.4,4.4-0.4,7,0.2l1.8,0.5
					c0.6,0.2,1.3,0.3,1.8,0.4c0.5,0.1,1.1,0,1.7-0.2c1.4-0.5,2.9-0.5,4.5-0.1l1.4,0.2l-0.2-0.2l-2.2-1.4l-0.3-0.2
					C-154.1-129.3-155.1-131.1-155-133.4z"/>
				<path style="fill:#669900;" d="M-185.5-119.5l-1-0.4c-1.9-0.7-3.5-0.3-4.6,1c-0.5,0.6-1,1.4-1.4,2.3l-0.2,0.7
					c-0.2,0.7-0.4,1.5-0.5,2.2l-0.1,0.4l-0.1,1.2l0.2,2.8l0.2,0.7c1-0.3,1.8-0.2,2.4,0.3l1.4,0.5l0.6-0.8c1.9-2.3,3.3-4.9,4.2-7.9
					C-184.4-117.5-184.8-118.5-185.5-119.5 M-202.8-150.6l-2.6,2.2l-1.2,1.4c-0.3,0.6-0.4,1.2-0.4,1.6l-0.2,1
					C-204.9-147.3-203.4-149.4-202.8-150.6 M-176-144.7l-1.5-0.6c-21.9-1.5-39.7,6.7-53.3,24.6c21.4-22.2,42.7-28.8,63.9-19.8
					L-176-144.7z"/>
				<path style="fill:#FF9900;" d="M-213.7-99.6L-213.7-99.6c-5.3,0.6-10.8,1.7-16.6,3.4c17.4-3.8,32-4.3,43.8-1.4
					c-2-1.1-4.3-1.9-6.8-2.4c-4.2-0.8-8.5-1-12.8-0.6L-213.7-99.6 M-202.6-151.2l-0.1-0.5c-0.1-0.5-0.4-0.9-0.8-1.3
					c-2.8,0.1-9,4.7-18.4,13.8c-4.6,5.2-7.6,10.3-8.8,15.3l5-5.3l0.2-0.3c10.5-14,16.5-20.3,18.1-18.9c0.8,0.3-0.2,2.4-3,6.4
					l3.3-2.2l0.2-1c0-0.4,0.1-1,0.4-1.6l1.2-1.4l2.6-2.2L-202.6-151.2z"/>
				<path style="fill:#66FF00;" d="M-231.7-89.8L-231.7-89.8c15.4,9.9,27.1,13.6,35,11.1c0.3-0.1,0.6-0.2,0.9-0.3
					c-0.5-2.6-3.9-4.7-10.2-6.2l-11.4-3.4c-2.3-0.3-4.7-0.5-7.1-0.7C-226.9-89.5-229.3-89.6-231.7-89.8 M-152.5-123.9
					c-0.9-0.7-1.6-0.9-2.2-0.7c0.8-1,1.6-1.5,2.4-1.7l1.5-0.1c-1.6-0.4-3.1-0.4-4.5,0.1c-0.5,0.2-1.1,0.3-1.7,0.2
					c-0.6-0.1-1.2-0.2-1.8-0.4l-1.8-0.5c-2.6-0.5-5-0.6-7-0.2l-1.1,0.2c-1.3,0.4-2.5,0.9-3.6,1.7l-1.3,0.9l-1,0.5
					c-8.4-2.4-17-2.9-25.6-1.4c-4.3,0.7-8.6,1.7-13,3c10.3,3,17.6,4.2,22,3.4c1.2-1.4,2.7-1.7,4.6-1l1,0.4c1.7,0.2,3.3,0.2,4.9-0.2
					l3.6-1.1l5-2.3l0.4-0.2c1.9-0.9,3.6-1.7,5.3-2.2c2.5-0.9,5.1-0.8,7.7,0.4l3,1.8c-0.3,0.5-0.6,1.1-0.7,1.6
					c-0.3,0.6-0.4,1.3-0.3,1.9c0.1,0.3,0.2,0.5,0.3,0.7c0.3,0.4,0.9,0.6,1.8,0.6C-154.9-121.7-154.2-123.5-152.5-123.9
					 M-158.6-139.3c-1.1-0.6-2.2-0.8-3.3-0.7c-0.6,0.1-1.3,0.2-1.8,0.6l-0.4,0.2l9,5.9c0.7-1.2,0.6-2.3-0.5-3.4L-158.6-139.3z"/>
				<path style="fill:#00FF00;" d="M-233.3-121.2l2.6-2.7c1.2-5,4.2-10.1,8.8-15.3c-4.1,4-8.9,8.9-14.2,14.7l-0.9,2.5l0.1,0.3
					c0.1,0.7,0.6,1.1,1.4,1.4c0.4,0.1,0.8,0,1.1-0.1C-234-120.6-233.6-120.8-233.3-121.2z"/>
				<path style="fill:#FF9933;" d="M-213.2-122.3c-3.8,1.1-7.5,2.3-11.2,3.7c10,2.9,20.3,4.7,31,5.4l0.2-0.4
					c0.1-0.7,0.3-1.4,0.5-2.2l0.2-0.7c0.4-1,0.8-1.7,1.4-2.3C-195.6-118.1-202.9-119.2-213.2-122.3z"/>
				<path style="fill:#336600;" d="M-204.9-153.7h-0.8l-1.4,0.6c-1.7,0.9-3.4,2-5.2,3.4l-4.4,3.6l-4.4,4.2
					c-4.6,4.6-9.7,10.4-15,17.4c5.4-5.8,10.1-10.7,14.2-14.7c9.4-9.1,15.6-13.7,18.4-13.8l-0.9-0.5L-204.9-153.7 M-157.2-118.1
					c-1.1,0.2-2.1,0-3.2-0.6c0,0.4,0.2,0.8,0.6,1.1c-1,0.2-1.9,0-2.9-0.6c-1.1-0.5-2.2-0.7-3.3-0.6c2.6,1.9,5.8,2.9,9.4,2.8
					c1.2-0.1,2.4-0.2,3.8-0.5c0.5-0.2,0.8-0.5,1-0.7c-1.6,0.3-3.1,0.1-4.6-0.6C-156.7-117.9-157-118-157.2-118.1z"/>
				<path style="fill:#339900;" d="M-151.3-119c-1.3,0.5-2.5,0.7-3.4,0.6c-0.9-0.1-1.4-0.3-1.8-0.6c-0.2-0.2-0.3-0.5-0.3-0.7
					c-0.1-0.6,0.1-1.3,0.3-1.9c0.2-0.5,0.4-1.1,0.7-1.6l-3-1.8c-2.6-1.2-5.2-1.3-7.7-0.4c-1.7,0.6-3.4,1.3-5.3,2.2l-0.3,0.1l3.8,2.6
					l2.1,1.5l0.2,0.1c1.1-0.1,2.2,0.1,3.3,0.6c1,0.6,1.9,0.8,2.9,0.6c-0.4-0.3-0.6-0.7-0.6-1.1c1.1,0.6,2.1,0.9,3.2,0.6
					c0.2,0.1,0.5,0.2,0.7,0.3c1.5,0.6,3,0.8,4.6,0.6L-151.3-119z"/>
				<path style="fill:#330000;" d="M-150.3-119.3l1-0.7l0.2-0.2l0.2-0.3c-0.1-0.1-0.1-0.1-0.2-0.1c-1.3-1-2.6-1.5-4-1.5
					C-152.5-121.1-151.6-120.1-150.3-119.3z"/>
				<path d="M-150.3-119.3l-1,0.3l-0.5,1.8c-0.2,0.3-0.5,0.5-1,0.7c-1.3,0.3-2.6,0.4-3.8,0.5c-0.7,9.7-4.7,18.2-11.9,25.4
					c-4.5,4.5-9.6,7.8-15.2,9.8c-0.1,0-0.1,0-0.1,0.1c1.1,0.9,1.6,1.9,1.6,3.2c-0.7,0.7-0.9,1.6-0.6,2.4c0.2,0.5,0.4,1,0.6,1.6
					c7-2.3,13.3-6.3,19-11.9c9.3-9.5,14-20.8,14.1-34c0-0.3,0-0.6,0-0.9l-0.2,0.2L-150.3-119.3 M-161.9-140c1.1-0.1,2.2,0.1,3.3,0.7
					l3.1,2.6c1.1,1.1,1.2,2.2,0.5,3.4c-0.1,2.2,1,4.1,3,5.5l0.3,0.2l2.2,1.4c-1.4-10.4-6-19.4-13.7-27.2
					c-9.4-9.5-20.7-14.2-33.9-14.2s-24.6,4.7-34,14.1c-9.3,9.4-14,20.8-14,34.1c0,13.2,4.7,24.5,14,34c8.1,8.1,17.6,12.7,28.6,13.8
					h10.8c1.7-0.2,3.4-0.4,5.1-0.8c-1.4-0.8-2.9-2.7-4.6-5.6l-1.1-0.6c-0.1-0.1-0.2-0.2-0.4-0.2c-1.3,0.1-2.7,0.2-4,0.2
					c-7.9,2.5-19.5-1.2-35-11.1v-0.1h-0.2l-0.2-0.2l-1.2-0.6c-0.6-0.4-0.9-0.9-1-1.5l0.2-1c0.5-1.4,1.3-2.3,2.5-2.6l1-0.2
					c-4.8-6.8-7.2-14.6-7.2-23.3c0-11.3,3.9-21,11.8-29c3.8-3.7,7.9-6.6,12.4-8.6c0.5-1.2,0.9-2.4,1.3-3.5l-0.3-0.6
					c-0.2-0.7-0.1-1.2,0.1-1.7s0.7-0.9,1.3-1.2c0.6-0.2,1.1-0.1,1.7,0.2c0.5,0.3,0.9,0.7,1.1,1.3c0.2,0.5,0.2,1,0,1.4
					c0.5,0.5,0.8,1.2,0.8,1.9c3.3-0.8,6.8-1.2,10.4-1.2c11.3-0.1,20.8,3.9,28.7,11.9C-165.9-145.7-163.7-143-161.9-140z"/>
				<path style="fill:#FF6600;" d="M-149.3-123.2c-0.1-0.1-0.1-0.1-0.2-0.1c-1.2-0.7-2.3-0.9-3.1-0.6c-1.7,0.4-2.4,2.2-2.2,5.5
					c0.9,0.1,2-0.1,3.4-0.6l1-0.3c-1.3-0.8-2.2-1.8-2.8-2.9c1.4,0.1,2.7,0.6,4,1.5c0.1,0,0.1,0,0.2,0.1c0.4-0.7,0.6-1.2,0.6-1.4
					C-148.5-122.6-148.8-123-149.3-123.2z"/>
			</g>
		</g>
		<g>
			<path id="Symbol_1_0_Layer0_0_1_STROKES" style="fill:none;stroke:#00CC00;stroke-miterlimit:3;" d="M-177.5-145.2l1.5,0.6
				 M-164.1-139.2l-2.8-1.3 M-177.5-145.2c-21.9-1.6-39.7,6.6-53.3,24.5c21.4-22.2,42.7-28.8,63.9-19.8 M-150.8-126.4
				c-1.6-0.4-3.1-0.4-4.5,0.1c-0.5,0.2-1.1,0.3-1.7,0.2c-0.6-0.1-1.2-0.2-1.8-0.4l-1.8-0.5c-2.6-0.5-5-0.6-7-0.2l-1.1,0.2
				c-1.3,0.4-2.5,0.9-3.6,1.7l-1.3,0.9l-1,0.5 M-166-118.8c1.1-0.1,2.2,0.1,3.3,0.6c1,0.6,1.9,0.8,2.9,0.6c-0.4-0.3-0.6-0.7-0.6-1.1
				c1.1,0.6,2.1,0.9,3.2,0.6c0.2,0.1,0.5,0.2,0.7,0.3c1.5,0.6,3,0.8,4.6,0.6 M-195.8-79c-0.5-2.6-3.9-4.7-10.2-6.2"/>
		</g>
	</g>
</g>
</svg>
