<svg id="Layer_1" data-name="Layer 1" xmlns="http://www.w3.org/2000/svg" viewBox="0 0 675.99 56.07"><title>scale</title><text transform="translate(1.61 51.07) scale(0.99 1)" font-size="20" fill="#d96e4c" font-family="ABeeZee-Regular, ABeeZee Regular">0</text><text transform="translate(56.61 51.07) scale(0.99 1)" font-size="20" fill="#d96e4c" font-family="ABeeZee-Regular, ABeeZee Regular">1</text><text transform="translate(111.61 51.07) scale(0.99 1)" font-size="20" fill="#d96e4c" font-family="ABeeZee-Regular, ABeeZee Regular">2</text><text transform="translate(166.61 51.07) scale(0.99 1)" font-size="20" fill="#d96e4c" font-family="ABeeZee-Regular, ABeeZee Regular">3</text><text transform="translate(221.61 51.07) scale(0.99 1)" font-size="20" fill="#d96e4c" font-family="ABeeZee-Regular, ABeeZee Regular">4</text><text transform="translate(276.61 51.07) scale(0.99 1)" font-size="20" fill="#d96e4c" font-family="ABeeZee-Regular, ABeeZee Regular">5</text><text transform="translate(331.61 51.07) scale(0.99 1)" font-size="20" fill="#d96e4c" font-family="ABeeZee-Regular, ABeeZee Regular">6</text><text transform="translate(386.61 51.07) scale(0.99 1)" font-size="20" fill="#d96e4c" font-family="ABeeZee-Regular, ABeeZee Regular">7</text><text transform="translate(441.61 51.07) scale(0.99 1)" font-size="20" fill="#d96e4c" font-family="ABeeZee-Regular, ABeeZee Regular">8</text><text transform="translate(496.61 51.07) scale(0.99 1)" font-size="20" fill="#d96e4c" font-family="ABeeZee-Regular, ABeeZee Regular">9</text><text transform="translate(545.67 51.07) scale(0.99 1)" font-size="20" fill="#d96e4c" font-family="ABeeZee-Regular, ABeeZee Regular">10</text><text transform="translate(600.67 51.07) scale(0.99 1)" font-size="20" fill="#d96e4c" font-family="ABeeZee-Regular, ABeeZee Regular">11</text><text transform="translate(655.67 51.07) scale(0.99 1)" font-size="20" fill="#d96e4c" font-family="ABeeZee-Regular, ABeeZee Regular">12</text><rect y="21.18" width="670.59" height="6.22" fill="#525731"/><path d="M5.3,0h0A5.29,5.29,0,0,1,10.6,5.29V22.86a0,0,0,0,1,0,0H0a0,0,0,0,1,0,0V5.29A5.29,5.29,0,0,1,5.3,0Z" fill="#525731"/><path d="M60.3,0h0A5.29,5.29,0,0,1,65.6,5.29V22.86a0,0,0,0,1,0,0H55a0,0,0,0,1,0,0V5.29A5.29,5.29,0,0,1,60.3,0Z" fill="#525731"/><path d="M115.3,0h0a5.29,5.29,0,0,1,5.29,5.29V22.86a0,0,0,0,1,0,0H110a0,0,0,0,1,0,0V5.29A5.29,5.29,0,0,1,115.3,0Z" fill="#525731"/><path d="M170.3,0h0a5.29,5.29,0,0,1,5.29,5.29V22.86a0,0,0,0,1,0,0H165a0,0,0,0,1,0,0V5.29A5.29,5.29,0,0,1,170.3,0Z" fill="#525731"/><path d="M225.3,0h0a5.29,5.29,0,0,1,5.29,5.29V22.86a0,0,0,0,1,0,0H220a0,0,0,0,1,0,0V5.29A5.29,5.29,0,0,1,225.3,0Z" fill="#525731"/><path d="M280.3,0h0a5.29,5.29,0,0,1,5.29,5.29V22.86a0,0,0,0,1,0,0H275a0,0,0,0,1,0,0V5.29A5.29,5.29,0,0,1,280.3,0Z" fill="#525731"/><path d="M335.3,0h0a5.29,5.29,0,0,1,5.29,5.29V22.86a0,0,0,0,1,0,0H330a0,0,0,0,1,0,0V5.29A5.29,5.29,0,0,1,335.3,0Z" fill="#525731"/><path d="M390.3,0h0a5.29,5.29,0,0,1,5.29,5.29V22.86a0,0,0,0,1,0,0H385a0,0,0,0,1,0,0V5.29A5.29,5.29,0,0,1,390.3,0Z" fill="#525731"/><path d="M445.3,0h0a5.29,5.29,0,0,1,5.29,5.29V22.86a0,0,0,0,1,0,0H440a0,0,0,0,1,0,0V5.29A5.29,5.29,0,0,1,445.3,0Z" fill="#525731"/><path d="M500.3,0h0a5.29,5.29,0,0,1,5.29,5.29V22.86a0,0,0,0,1,0,0H495a0,0,0,0,1,0,0V5.29A5.29,5.29,0,0,1,500.3,0Z" fill="#525731"/><path d="M555.3,0h0a5.29,5.29,0,0,1,5.29,5.29V22.86a0,0,0,0,1,0,0H550a0,0,0,0,1,0,0V5.29A5.29,5.29,0,0,1,555.3,0Z" fill="#525731"/><path d="M610.3,0h0a5.29,5.29,0,0,1,5.29,5.29V22.86a0,0,0,0,1,0,0H605a0,0,0,0,1,0,0V5.29A5.29,5.29,0,0,1,610.3,0Z" fill="#525731"/><path d="M665.3,0h0a5.29,5.29,0,0,1,5.29,5.29V22.86a0,0,0,0,1,0,0H660a0,0,0,0,1,0,0V5.29A5.29,5.29,0,0,1,665.3,0Z" fill="#525731"/></svg>