<svg id="Layer_1" data-name="Layer 1" xmlns="http://www.w3.org/2000/svg" xmlns:xlink="http://www.w3.org/1999/xlink" viewBox="0 0 94.12 110.1"><defs><style>.cls-1{fill:url(#linear-gradient);}.cls-2{fill:url(#radial-gradient);}.cls-3{fill:url(#linear-gradient-2);}.cls-4{fill:url(#linear-gradient-3);}.cls-5{fill:url(#linear-gradient-4);}.cls-6{fill:url(#linear-gradient-5);}.cls-7{fill:#fff;opacity:0.3;}.cls-8{fill:url(#linear-gradient-6);}.cls-9{fill:url(#radial-gradient-2);}</style><linearGradient id="linear-gradient" y1="53.4" x2="94.12" y2="53.4" gradientUnits="userSpaceOnUse"><stop offset="0" stop-color="#77bd4b"/><stop offset="0.15" stop-color="#71b644"/><stop offset="0.36" stop-color="#60a330"/><stop offset="0.61" stop-color="#448310"/><stop offset="0.71" stop-color="#387502"/><stop offset="0.79" stop-color="#3d7a08"/><stop offset="0.9" stop-color="#4b8a18"/><stop offset="1" stop-color="#5d9f2d"/></linearGradient><radialGradient id="radial-gradient" cx="54.2" cy="-713.97" r="76.47" gradientTransform="translate(0 574.61) scale(1 0.73)" gradientUnits="userSpaceOnUse"><stop offset="0" stop-color="#77bd4b"/><stop offset="0.21" stop-color="#71b644"/><stop offset="0.51" stop-color="#60a330"/><stop offset="0.87" stop-color="#448310"/><stop offset="1" stop-color="#387502"/></radialGradient><linearGradient id="linear-gradient-2" x1="-0.26" y1="35.35" x2="71.53" y2="53.3" gradientUnits="userSpaceOnUse"><stop offset="0" stop-color="#f2f9ee"/><stop offset="0.09" stop-color="#e1f1d7"/><stop offset="0.31" stop-color="#bbdea5"/><stop offset="0.52" stop-color="#9ed07e"/><stop offset="0.71" stop-color="#88c662"/><stop offset="0.88" stop-color="#7cbf51"/><stop offset="1" stop-color="#77bd4b"/></linearGradient><linearGradient id="linear-gradient-3" x1="128.43" y1="31.91" x2="56.21" y2="32.15" gradientTransform="translate(-7.99 62.82) rotate(-13.47)" xlink:href="#linear-gradient-2"/><linearGradient id="linear-gradient-4" x1="2.82" y1="33.7" x2="65.11" y2="49.27" xlink:href="#linear-gradient-2"/><linearGradient id="linear-gradient-5" x1="1.7" y1="37.06" x2="63.99" y2="52.63" xlink:href="#linear-gradient-2"/><linearGradient id="linear-gradient-6" x1="35.02" y1="4.85" x2="45.42" y2="4.85" xlink:href="#linear-gradient-2"/><radialGradient id="radial-gradient-2" cx="45.78" cy="108.44" r="14.24" gradientTransform="translate(1.69) scale(0.99 1)" gradientUnits="userSpaceOnUse"><stop offset="0" stop-color="#77bd4b"/><stop offset="0.17" stop-color="#72b646"/><stop offset="0.41" stop-color="#62a237"/><stop offset="0.7" stop-color="#49821f"/><stop offset="1" stop-color="#2a5901"/></radialGradient></defs><title>screen9-holds-more</title><path class="cls-1" d="M31.62,106.79C13.94,100.65,1.16,83.31,1.16,62.92a44.83,44.83,0,0,1,3-16.17c5.52-2.61,22.62-4.51,42.87-4.51s37.35,1.9,42.87,4.51a44.83,44.83,0,0,1,3,16.17c0,20.39-12.78,37.73-30.45,43.87H67A47.6,47.6,0,0,0,94.12,63.45,48.83,48.83,0,0,0,91.61,48h0l0-.1q-.22-.66-.46-1.32l-.05-.14q-.77-2.07-1.72-4l-.07-.14Q89,41.6,88.66,41l-.09-.17q-1-1.9-2.16-3.7l-.1-.16q-.36-.55-.73-1.09l-.2-.29q-1.16-1.65-2.45-3.2l-.22-.26L82,31.26l-.38-.42L80.82,30l-.4-.4q-.67-.69-1.37-1.34l-.51-.47-.71-.63-.61-.52-.7-.58-.72-.57L75.19,25q-.64-.48-1.29-.93l-.6-.41-.87-.58-.62-.4-1-.59-.53-.31q-.73-.42-1.48-.81l-.45-.23-1.15-.56L66.66,20l-1.15-.5L65,19.25c-.54-.22-1.09-.43-1.64-.63l-.26-.09L61.68,18l-.54-.16-1.25-.36-.52-.14c-.58-.15-1.16-.29-1.75-.41V10.38c1.05-.77,5.23-4,4.74-6.73C61.82.65,57.44,0,57.2,0H36.87c-.19,0-4.57.64-5.11,3.64-.49,2.7,3.69,6,4.74,6.73V17c-.59.13-1.17.27-1.75.41l-.52.14L33,17.88l-.55.17L31,18.52l-.29.1c-.55.2-1.09.41-1.63.63l-.51.22-1.12.49-.59.27-1.1.54L25.3,21q-.74.38-1.46.8l-.57.34-.92.55-.66.42-.81.54-.66.45-1.08.79-.88.67-.64.5-.75.62-.53.46-.77.69-.34.32q-.83.77-1.62,1.58l-.27.27-.82.88-.29.33-.82.94-.09.11q-1.38,1.63-2.61,3.4l-.11.16A48.39,48.39,0,0,0,0,63.45a47.6,47.6,0,0,0,27.17,43.35Z"/><path class="cls-2" d="M67,106.79A47.6,47.6,0,0,0,94.12,63.45a48.85,48.85,0,0,0-2.31-14.86h0c-.07-.43-.13-.86-.2-1.29a5.56,5.56,0,0,0-.81-1.55A46.48,46.48,0,0,0,59.94,17.58a6.23,6.23,0,0,1-2,.32,6,6,0,0,1-2.71-.61c-4.76-1-11.16-.7-16-.06a6,6,0,0,1-1.39.33,6.42,6.42,0,0,1-3.5,0,46.45,46.45,0,0,0-31,28.2,5.56,5.56,0,0,0-.81,1.55q-.1.65-.2,1.29h0A48.89,48.89,0,0,0,0,63.45a47.6,47.6,0,0,0,27.17,43.35Z"/><path class="cls-3" d="M37.89,20.09c-20,4.54-33.16,20.82-34.2,41C8.21,41.68,23.09,26.33,37.89,20.09Z"/><path class="cls-4" d="M61.92,98.26c19.15-7.15,30-25,28.15-45.17C88.32,72.94,75.73,90.12,61.92,98.26Z"/><ellipse class="cls-5" cx="27.28" cy="39.81" rx="3.95" ry="4.1"/><ellipse class="cls-6" cx="31.76" cy="44.58" rx="1.73" ry="1.8"/><path class="cls-7" d="M61.66,4.54c0,3.35-4.3,5.72-15.15,5.72-9.75,0-14.16-2.71-14.16-6C32.35,0,38.57.59,46.79.59S61.65-.44,61.66,4.54Z"/><path class="cls-8" d="M45.42,4.79c0,1-2.33,1.42-5.2,1.34S35,5.38,35,4.1c0-.62,2.18-.59,5.2-.46C43.64,3.79,45.42,4.17,45.42,4.79Z"/><rect class="cls-9" x="27.16" y="106.79" width="39.8" height="3.3"/></svg>