<svg id="Layer_1" data-name="Layer 1" xmlns="http://www.w3.org/2000/svg" viewBox="0 0 101.2 111.13"><defs><style>.cls-1{fill:#55c58f;}.cls-2{fill:#40946b;}.cls-3{fill:#2b6348;}.cls-4{fill:#b3d4c4;}.cls-5{fill:#4db181;}.cls-6{fill:#95b1a3;}.cls-7{fill:#357b59;}.cls-8{fill:#85baa0;}.cls-9{fill:#48a578;}.cls-10{fill:#69ab8b;}.cls-11{fill:#367e5b;}.cls-12{fill:#e1f5eb;}.cls-13{fill:#5ba983;}.cls-14{fill:#99dcbc;}.cls-15{fill:#d6f1e4;}.cls-16{fill:#64b18b;}.cls-17{fill:#70cea1;}.cls-18{fill:#96c2ad;}.cls-19{fill:#5da281;}.cls-20{fill:#5ea482;}.cls-21{fill:#8d8c8e;}.cls-22{fill:#306f50;}.cls-23{fill:#77d1a5;}.cls-24{fill:#bbe8d2;}.cls-25{fill:#58595b;}.cls-26{fill:#414042;}.cls-27{fill:#b3b3b3;}.cls-28{fill:#917054;}.cls-29{fill:#754c29;}.cls-30{fill:#ac947f;}.cls-31{fill:#58391f;}.cls-32{fill:#313032;}</style></defs><title>screen5-holds-more</title><path class="cls-1" d="M96.11,8.72c0-3.28-.93-5.94-2.07-5.94S92,5.44,92,8.72s.93,5.94,2.07,5.94S96.11,12,96.11,8.72"/><polyline class="cls-1" points="94.04 2.77 93.13 2.77 93.13 14.66 94.04 14.66 94.04 2.77"/><path class="cls-2" d="M95.2,8.72c0-3.28-.93-5.94-2.07-5.94s-2.07,2.66-2.07,5.94.92,5.94,2.07,5.94S95.2,12,95.2,8.72"/><path class="cls-3" d="M94.11,8.72c0-1.48-.44-2.68-1-2.68s-1,1.2-1,2.68.44,2.68,1,2.68,1-1.2,1-2.68"/><path class="cls-2" d="M4.55,20.59c7,5.49,24.28,9.37,44.51,9.37,20,0,37.18-3.81,44.31-9.22-7-5.49-24.29-9.37-44.51-9.37C28.83,11.38,11.69,15.18,4.55,20.59Z"/><path class="cls-2" d="M4.88,21.82c7.1-5.43,24.29-9.26,44.37-9.26C69.62,12.56,87,16.49,93.91,22c2.25-1.72,3.49-3.59,3.49-5.55C97.41,8.31,76,1.67,49.54,1.67S1.68,8.31,1.68,16.49c0,1.88,1.14,3.68,3.21,5.33"/><path class="cls-1" d="M49.45,31.14c-25.19,0-45.83-6-47.71-13.67l11,80.82c0,7.09,16.83,12.84,37.59,12.84s37.59-5.75,37.59-12.84l9.29-81C95.62,25,74.85,31.14,49.45,31.14"/><path class="cls-4" d="M94.2,26.15c-1.57,7.62-22.4,13.59-47.43,13.59-2.85,0-5.75-.08-8.61-.24l-.05.67c4.69.46,9.56.69,14.47.69,17.08,0,32.52-2.72,41.3-7.28L94,33.5l.83-7.24-.66-.1"/><path class="cls-4" d="M24.76,89.93,20.41,42l-.32-8c-3.52-1.82-9.52-2.55-10.08-4.85l-.66.13,9.76,70.34a5.23,5.23,0,0,0,.65,2.46l.05.09.1,0c2.57,1.28,10.22,4.46,12.75,4.54l.88,0-.64-.61c-1.37-1.3-8.14-14.81-8.14-16.27"/><path class="cls-4" d="M50.29,111.13h0m0,0h0m0,0h0m0,0h0m0,0h0m0,0h0m-.08,0h0m0,0h0m0,0h0m0,0h0m0,0h0m0,0h0m0,0h0m-.07,0h0m0,0h0m0,0h0m0,0h0m0,0h0"/><path class="cls-5" d="M96.47,22c-3.61,4.25-11.68,7.43-21.61,9.39q1,2.51,1.81,5.14c10-2.47,16.67-6.16,17.54-10.35l.66.1L94,33.5l-.16.08a61.34,61.34,0,0,1-16.59,5.18,55.44,55.44,0,0,1,1.66,13.49c0,26.56-18.67,48.67-43.36,53.42a110.43,110.43,0,0,0,13.71.83C70.67,106.5,88,100.75,88,93.66L96.47,22m.24-.29-.16.2L87.79,98.26c0,7.09-16.83,12.84-37.59,12.84a95.49,95.49,0,0,1-20.86-2.16,94.58,94.58,0,0,0,20.31,2.19h.69c20.76,0,37.59-5.75,37.59-12.84L96.7,21.68"/><path class="cls-6" d="M5,21.76H5m0,0H5m0,0H5m0,0H5m0,0H5m0,0h0m0,0h0m0,0h0M1.68,16.47h0m0,0h0m0,0h0m0,0h0m0,0h0m0,0h0m0,0h0m0,0h0m0,0h0m0,0h0m19.7-1C14.23,16.92,8.55,19.1,5.11,21.65c3.45-2.54,9.13-4.73,16.28-6.31h0"/><path class="cls-7" d="M19.72,4.9c-10.87,2.68-17.89,6.8-18,11.47,0,0,0,0,0,.11a5,5,0,0,0,.56,2.27,7.92,7.92,0,0,0,2.83,2.92h0c1.44-1.5,3.35-2.51,5.11-1.25l4.57,3.27a8.39,8.39,0,0,0,2.71,1.47,6.37,6.37,0,0,0,1.68.16,2.48,2.48,0,0,0,2.07-.77,2.56,2.56,0,0,0,.35-1.28,26.84,26.84,0,0,0,0-4.33c-.08-.93-.78-3-.23-3.63C19.76,13.38,20,10.84,20,8.52c0-1.35-.94-2.35-.33-3.62"/><path class="cls-2" d="M2.24,18.75a9.55,9.55,0,0,0,2.64,3.06l.05,0a9.86,9.86,0,0,1-2.7-3"/><path class="cls-6" d="M93.66,21.84h0l.11.08h0l-.11-.09"/><path class="cls-2" d="M93.77,21.93h0l.14.11-.14-.11"/><path class="cls-8" d="M94.2,26.15C93.34,30.34,86.66,34,76.66,36.5q.33,1.12.62,2.25a61.34,61.34,0,0,0,16.59-5.18L94,33.5l.83-7.24-.66-.1"/><path class="cls-4" d="M12.53,97.69l.08.57c0,4.39,6.44,8.26,16.27,10.58-9.76-2.32-16.14-6.18-16.14-10.54l-.06-.45-.15-.15"/><path class="cls-5" d="M32.15,105.17a7.67,7.67,0,0,0,.68,1c.92-.13,1.84-.28,2.75-.46q-1.76-.22-3.43-.5M12.68,97.84l.06.45c0,4.37,6.39,8.22,16.14,10.54l.45.1a50.83,50.83,0,0,1-8.11-2.52c1.45.12,2.92.2,4.4.2q2.49,0,4.92-.23a75.16,75.16,0,0,1-10.66-4.15l-.1,0-.05-.09-.09-.17a21.52,21.52,0,0,1-7-4.08"/><path class="cls-8" d="M19.67,101.92l.09.17.05.09.1,0a75.16,75.16,0,0,0,10.66,4.15c.76-.07,1.52-.16,2.27-.26a7.67,7.67,0,0,1-.68-1,62,62,0,0,1-12.48-3.25"/><path class="cls-9" d="M96.54,21.88l-.08.09L88,93.66c0,7.09-17.33,12.84-38.71,12.84a110.43,110.43,0,0,1-13.71-.83c-.91.18-1.83.33-2.75.46l.07.08.64.61-.88,0a10.08,10.08,0,0,1-2.1-.39q-2.43.23-4.92.23c-1.48,0-2.95-.08-4.4-.2a50.83,50.83,0,0,0,8.11,2.52A95.49,95.49,0,0,0,50.2,111.1c20.76,0,37.59-5.75,37.59-12.84l8.76-76.38"/><path class="cls-10" d="M32.82,106.12c-.75.1-1.51.19-2.27.26a10.08,10.08,0,0,0,2.1.39l.88,0-.64-.61-.07-.08"/><path class="cls-11" d="M97.07,17.25c0,.1-.06.2-.09.31L96.47,22l.08-.09.53-4.62"/><path class="cls-12" d="M62.33,13.13c3.89.34,7.58.83,11,1.44h0c-3.37-.61-7-1.09-10.84-1.43h-.15"/><path class="cls-13" d="M62.72,2.25a4.16,4.16,0,0,0,.35.5,21.67,21.67,0,0,1,.66,5.35A8.79,8.79,0,0,1,63,12.58c-.88,1.62-1.8,3.25-1.49,5.17a14.46,14.46,0,0,0,.65,2.15,13,13,0,0,1,.36,6.69c.95-1.39,1.26-3.14,2.24-4.5a10.8,10.8,0,0,1,3-2.53l2.78-1.8a7,7,0,0,0,2-1.63c1.51-2.06-.12-6.43-.12-8.82a28.8,28.8,0,0,1,.25-3.81c-3.11-.53-6.43-1-9.91-1.26"/><path class="cls-12" d="M53.22,12.61h0c2.17.05,4.29.16,6.36.3h0q-3.11-.21-6.36-.3"/><path class="cls-13" d="M53.26,1.72a21.64,21.64,0,0,1,.66,5.36,28,28,0,0,1-.64,4.8,25.92,25.92,0,0,0,.06,4.94,36.11,36.11,0,0,1-1,10.84c.23-2,1.64-3.75,2.12-5.74.33-1.37.23-2.84.77-4.14.72-1.73,2.37-2.75,3.53-4.15,1.45-1.75,1.54-4,1.54-6.16a21.68,21.68,0,0,0-.66-5.36c1,0,2,.06,2.94.1-3-.26-6.08-.44-9.28-.51"/><path class="cls-14" d="M78.86,4.21V4.12A131.93,131.93,0,0,0,62.61,2.45,4.19,4.19,0,0,0,63,3h0A140,140,0,0,1,78.86,4.21Z"/><path class="cls-15" d="M83.74,17.1h0a33.51,33.51,0,0,1,9.92,4.74,33.48,33.48,0,0,0-9.92-4.74m13.66-.63h0m0,0h0m0,0h0m0,0h0m0,0h0m0,0h0m0,0h0m0,0h0m0,0h0"/><path class="cls-16" d="M85.53,6.73a14.47,14.47,0,0,1,.3,2.91c0,5.53-2.81,11.56-6.52,15.58.43-.47,2.88-.71,3.59-1,1.34-.49,2.63-1.07,4-1.57a18.4,18.4,0,0,1,4-1.13c1-.14,2.63.41,3.36,0a8.9,8.9,0,0,0,2.7-3.33l.08-.69c0-.1.07-.2.09-.31l-.09.81a5.33,5.33,0,0,0,.23-.78l-.1.86a5,5,0,0,0,.3-1.75c-.08-3.7-4.55-7.08-11.88-9.66"/><path class="cls-17" d="M96.9,18.25a8.9,8.9,0,0,1-2.7,3.33l.62-.3c-.28.26-.58.51-.91.76a9.87,9.87,0,0,0,2.93-3.29l.06-.5m.3-1a5.33,5.33,0,0,1-.23.78l-.06.54c.07-.15.13-.3.19-.46l.1-.86"/><path class="cls-18" d="M93.66,21.84h0l.11.09-.11-.09"/><path class="cls-19" d="M94.21,21.58l-.55.26.11.09.44-.34"/><path class="cls-16" d="M94.82,21.28l-.62.3-.44.34.14.11c.33-.25.63-.5.91-.76"/><path class="cls-20" d="M97.07,17.25c0,.1-.06.2-.09.31l-.08.69-.06.5.07-.15.06-.54.09-.81"/><path class="cls-21" d="M8.66,23.36C8.24,20.11,7,17.59,5.85,17.74l-.9.12C3.81,18,3.24,20.76,3.67,24s1.69,5.77,2.82,5.62l.9-.12C8.52,29.37,9.09,26.61,8.66,23.36Z"/><path class="cls-2" d="M49.54,33C25.52,33,0,27.19,0,16.49S25.52,0,49.54,0,99.08,5.78,99.08,16.49,73.56,33,49.54,33m0-29.62c-27.22,0-46.19,6.92-46.19,13.14s19,13.14,46.19,13.14S95.73,22.7,95.73,16.49,76.76,3.35,49.54,3.35"/><path class="cls-22" d="M49.72,33.67C25.7,33.67.18,27.89.18,17.19S25.7.7,49.72.7,98.5,6.19,98.5,16.9,73.73,33.67,49.72,33.67M49.72,4C22.5,4,3.53,11,3.53,17.19s19,13.14,46.19,13.14S95.91,23.4,95.91,17.19,76.94,4,49.72,4"/><path class="cls-23" d="M49.54,32.64c-12.92,0-25.08-1.56-34.24-4.4-9.79-3-15-7.09-15-11.75s5.17-8.72,15-11.75C24.46,1.9,36.62.33,49.54.33S74.62,1.9,83.78,4.73c9.79,3,15,7.09,15,11.75s-5.17,8.72-15,11.75C74.62,31.08,62.46,32.64,49.54,32.64ZM49.54,3C22.12,3,3,10.11,3,16.49S22.12,30,49.54,30s46.53-7.1,46.53-13.47S77,3,49.54,3Z"/><path class="cls-24" d="M49.54,32C22.32,32,1,25.17,1,16.49S22.32,1,49.54,1,98.08,7.8,98.08,16.49,76.76,32,49.54,32Zm0-29.62C24,2.34,2.35,8.82,2.35,16.49S24,30.63,49.54,30.63s47.2-6.48,47.2-14.14S75.12,2.34,49.54,2.34Z"/><path class="cls-2" d="M6,16.32l-.9.12.08.6a10.21,10.21,0,0,0-.46,5.44,10.21,10.21,0,0,0,1.84,5.14l.08.6.9-.12C8.65,28,9.23,25.2,8.8,21.95S7.11,16.18,6,16.32Z"/><ellipse class="cls-1" cx="5.85" cy="22.33" rx="2.07" ry="5.94" transform="translate(-2.85 0.95) rotate(-7.45)"/><ellipse class="cls-3" cx="5.85" cy="22.33" rx="0.98" ry="2.68" transform="translate(-2.85 0.95) rotate(-7.46)"/><path class="cls-25" d="M97.13,21.34a1.6,1.6,0,0,1-.2.27l-.09.09-.07.08a.68.68,0,0,1-.17.22v0c0,.4-.08.8-.13,1.19s-.09.52-.14.78c0,.41-.07.81-.13,1.21,4.25,14.38,4.39,22.19-2.42,25.39-10.3,4.85-24.91,7.32-25.07,7.34a1,1,0,1,0,.23,2c.7-.08,15.1-2.53,25.7-7.52C103.85,48.08,102.07,36.88,97.13,21.34Z"/><path class="cls-26" d="M96.3,24.29q0,.46-.1.91c4.25,14.38,4.39,22.19-2.42,25.39-10.3,4.85-24.91,7.32-25.07,7.34a1,1,0,0,0-.27,1.92.83.83,0,0,1,0-.1,1,1,0,0,1,.88-1.12c.17,0,14.78-2.49,25.07-7.34C101.43,48,101,39.7,96.3,24.29Z"/><path class="cls-27" d="M97.13,21.34a1.55,1.55,0,0,1-.27.35h0c4.78,15.18,6.38,26.13-2.71,30.41-10.6,5-25,7.44-25.7,7.52a1,1,0,0,1-.37,0,1,1,0,0,0,.87.33c.7-.08,15.1-2.53,25.7-7.52C103.85,48.08,102.07,36.88,97.13,21.34Z"/><rect class="cls-28" x="44.5" y="56.57" width="24.37" height="7.79" transform="translate(-4.08 4.1) rotate(-4)"/><path class="cls-29" d="M69.11,63.5l-1.16.08c-4.52-2.72-11.22-4.19-18.57-3.68a40.77,40.77,0,0,0-4.9.64l-.22-3.12,24.31-1.7c.83-.06,1.62,1.63,1.77,3.78S69.94,63.44,69.11,63.5Z"/><ellipse class="cls-30" cx="44.53" cy="61.31" rx="1.5" ry="3.89" transform="translate(-4.16 3.25) rotate(-3.99)"/><ellipse class="cls-28" cx="44.53" cy="61.31" rx="0.66" ry="1.72" transform="translate(-4.18 3.27) rotate(-4.01)"/><ellipse class="cls-29" cx="44.53" cy="61.31" rx="0.42" ry="1.09" transform="translate(-4.17 3.25) rotate(-4)"/><path class="cls-31" d="M70.2,61.87h0A3.57,3.57,0,0,1,69.76,63l0,0-.11.15,0,0-.11.1,0,0-.11.06,0,0-.17,0-1.16.08q-.43-.26-.88-.5a20.9,20.9,0,0,0,2.09-.73,7.9,7.9,0,0,0,.25-2.78,9.66,9.66,0,0,0-.13-1c-3-.87-8.38-1.21-14.52-.78A66.11,66.11,0,0,0,45.6,59c-.34-1-.83-1.6-1.34-1.57l24.31-1.7a.61.61,0,0,1,.26,0h0a1,1,0,0,1,.24.15l0,0a1.72,1.72,0,0,1,.23.25l0,0a3,3,0,0,1,.22.35h0a6.14,6.14,0,0,1,.55,1.61h0c0,.21.08.43.11.66s.05.41.07.63A8.52,8.52,0,0,1,70.2,61.87Z"/><path class="cls-25" d="M14,57c9.34,6.22,28.94,3.51,30.57,3.24a1.91,1.91,0,0,1,.23.94,1.77,1.77,0,0,1-.1.94c-.84.15-21.42,3.46-31.81-3.46-7.44-5-9.92-16.43-8-37.2a1,1,0,0,1,2,.18C5,41.63,7.21,52.53,14,57Z"/><path class="cls-21" d="M43.59,61c-1.63.26-21.11,3.15-30.45-3.07-6.76-4.5-9-15.4-7.15-35.35a1,1,0,0,0-.91-1.09,1,1,0,0,0-.27,0,1,1,0,0,1,2,.19C5,41.63,7.21,52.53,14,57c9.34,6.22,28.94,3.51,30.57,3.24a1.47,1.47,0,0,1,.19.61"/><path class="cls-32" d="M12.78,58.42c10.39,6.92,31,3.6,31.81,3.46a1.76,1.76,0,0,0,.1-.94,3.69,3.69,0,0,0,0-.41,2.94,2.94,0,0,1,.12.69,1.77,1.77,0,0,1-.1.94c-.84.15-21.42,3.46-31.81-3.46-3.54-2.36-6-6.19-7.31-11.79C6.91,52.36,9.3,56.1,12.78,58.42Z"/></svg>