<svg id="Layer_1" data-name="Layer 1" xmlns="http://www.w3.org/2000/svg" xmlns:xlink="http://www.w3.org/1999/xlink" viewBox="0 0 43.89 69.82"><defs><style>.cls-1{fill:url(#linear-gradient);}.cls-2{fill:url(#radial-gradient);}.cls-3{fill:url(#linear-gradient-2);}.cls-4{fill:url(#linear-gradient-3);}.cls-5{fill:url(#linear-gradient-4);}.cls-6{fill:url(#linear-gradient-5);}.cls-7{fill:#fff;opacity:0.3;}.cls-8{fill:url(#linear-gradient-6);}.cls-9{fill:url(#linear-gradient-7);}</style><linearGradient id="linear-gradient" y1="33.84" x2="43.89" y2="33.84" gradientUnits="userSpaceOnUse"><stop offset="0" stop-color="#77bd4b"/><stop offset="0.15" stop-color="#71b644"/><stop offset="0.36" stop-color="#60a330"/><stop offset="0.61" stop-color="#448310"/><stop offset="0.71" stop-color="#387502"/><stop offset="0.79" stop-color="#3d7a08"/><stop offset="0.9" stop-color="#4b8a18"/><stop offset="1" stop-color="#5d9f2d"/></linearGradient><radialGradient id="radial-gradient" cx="25.27" cy="31.96" r="35.66" gradientUnits="userSpaceOnUse"><stop offset="0" stop-color="#77bd4b"/><stop offset="0.21" stop-color="#71b644"/><stop offset="0.51" stop-color="#60a330"/><stop offset="0.87" stop-color="#448310"/><stop offset="1" stop-color="#387502"/></radialGradient><linearGradient id="linear-gradient-2" x1="0.71" y1="23.54" x2="30.53" y2="31" gradientUnits="userSpaceOnUse"><stop offset="0" stop-color="#f2f9ee"/><stop offset="0.09" stop-color="#e1f1d7"/><stop offset="0.31" stop-color="#bbdea5"/><stop offset="0.52" stop-color="#9ed07e"/><stop offset="0.71" stop-color="#88c662"/><stop offset="0.88" stop-color="#7cbf51"/><stop offset="1" stop-color="#77bd4b"/></linearGradient><linearGradient id="linear-gradient-3" x1="52.02" y1="78.06" x2="18.3" y2="78.18" gradientTransform="translate(-10.63 -22.1) rotate(-13.66)" xlink:href="#linear-gradient-2"/><linearGradient id="linear-gradient-4" x1="1.01" y1="22.35" x2="30.83" y2="29.81" xlink:href="#linear-gradient-2"/><linearGradient id="linear-gradient-5" x1="0.42" y1="24.71" x2="30.24" y2="32.16" xlink:href="#linear-gradient-2"/><linearGradient id="linear-gradient-6" x1="16.33" y1="3.08" x2="21.18" y2="3.08" xlink:href="#linear-gradient-2"/><linearGradient id="linear-gradient-7" x1="10.95" y1="68.75" x2="34.21" y2="68.75" gradientUnits="userSpaceOnUse"><stop offset="0" stop-color="#77bd4b"/><stop offset="0.17" stop-color="#72b646"/><stop offset="0.42" stop-color="#62a237"/><stop offset="0.71" stop-color="#49821e"/><stop offset="1" stop-color="#2c5c01"/></linearGradient></defs><title>screen10-holds-less</title><path class="cls-1" d="M12.44,67.67h2C6.35,63.64.54,52.74.54,40A37.71,37.71,0,0,1,2,29.69c2.57-1.66,10.55-2.87,20-2.87s17.42,1.21,20,2.87A37.71,37.71,0,0,1,43.35,40c0,12.79-5.81,23.69-13.9,27.71h2c7.34-4.77,12.44-15.24,12.44-27.38a41.36,41.36,0,0,0-1.17-9.83h0l0-.06q-.1-.42-.22-.84l0-.09q-.36-1.31-.8-2.57l0-.09-.29-.8,0-.11q-.47-1.21-1-2.35l0-.1-.34-.69-.09-.18q-.54-1-1.14-2l-.1-.17-.35-.55L38,19.58l-.35-.51-.18-.26q-.31-.44-.64-.85l-.24-.3-.33-.4L36,16.93l-.33-.37-.34-.36-.29-.31-.6-.59L34.18,15l-.41-.37-.29-.25L33,14l-.25-.2-.69-.51-.21-.14-.53-.36-.26-.16-.54-.32-.23-.13-.76-.4-.12-.06-.67-.3-.25-.1-.58-.23L27.69,11l-.82-.26V6.59c.49-.49,2.44-2.56,2.21-4.28A2.94,2.94,0,0,0,26.67,0H17.19a2.94,2.94,0,0,0-2.38,2.31C14.58,4,16.53,6.1,17,6.59v4.19l-.82.26-.24.09-.58.22-.25.11-.66.3-.13.06-.76.4-.24.14-.52.31-.27.17-.51.34-.23.16-.68.5-.27.21-.43.35-.31.27L9.73,15l-.31.28-.51.5-.41.43-.3.32-.35.4-.25.29-.36.44-.16.2q-.39.49-.75,1l-.12.17-.38.56-.14.21-.38.6,0,.07q-.64,1-1.22,2.16l-.05.1A38.9,38.9,0,0,0,0,40.29C0,52.43,5.11,62.9,12.44,67.67Z"/><path class="cls-2" d="M12.44,67.67h19c7.34-4.77,12.44-15.24,12.44-27.38a41.45,41.45,0,0,0-1.07-9.44h0L42.72,30a4.11,4.11,0,0,0-.38-1C39.84,20.29,34.51,13.59,28,11.17a2.21,2.21,0,0,1-.95.21A2.19,2.19,0,0,1,25.74,11a18,18,0,0,0-7.45,0,2.21,2.21,0,0,1-.65.21,2.23,2.23,0,0,1-1.63,0c-6.59,2.4-12,9.12-14.47,17.9a4.11,4.11,0,0,0-.38,1l-.09.82h0A41.5,41.5,0,0,0,0,40.29C0,52.43,5.11,62.9,12.44,67.67Z"/><path class="cls-3" d="M17.67,12.76C8.36,15.64,2.21,26,1.72,38.82,3.83,26.47,10.76,16.72,17.67,12.76Z"/><path class="cls-4" d="M30,60.64c8.82-3.77,13.24-14.56,11.57-27.23C41.56,45.77,36.26,56.05,30,60.64Z"/><ellipse class="cls-5" cx="12.72" cy="25.28" rx="1.84" ry="2.6"/><ellipse class="cls-6" cx="14.81" cy="28.31" rx="0.81" ry="1.14"/><path class="cls-7" d="M28.75,2.88c0,2.12-2,3.63-7.06,3.63-4.55,0-6.6-1.72-6.6-3.84C15.08,0,18,.37,21.82.37S28.75-.28,28.75,2.88Z"/><path class="cls-8" d="M21.18,3c0,.63-1.09.9-2.42.85s-2.42-.48-2.42-1.29c0-.4,1-.38,2.42-.29C20.35,2.4,21.18,2.65,21.18,3Z"/><rect class="cls-9" x="12.41" y="67.67" width="19.04" height="2.15"/></svg>