<svg id="Layer_1" data-name="Layer 1" xmlns="http://www.w3.org/2000/svg" xmlns:xlink="http://www.w3.org/1999/xlink" viewBox="0 0 40.47 111.01"><defs><style>.cls-1,.cls-10,.cls-11,.cls-2,.cls-3,.cls-4,.cls-5,.cls-6,.cls-8,.cls-9{fill-rule:evenodd;}.cls-1{fill:url(#linear-gradient);}.cls-10,.cls-2{fill:#fffffb;}.cls-2{opacity:0.6;}.cls-3{fill:url(#radial-gradient);}.cls-4{fill:url(#GradientFill_43);}.cls-5{fill:url(#GradientFill_44);}.cls-6{fill:url(#GradientFill_45);}.cls-7{fill:#c6e9fa;}.cls-8{fill:url(#GradientFill_46);}.cls-9{fill:#c7dae4;}.cls-10{opacity:0.8;}.cls-11{opacity:0.58;fill:url(#GradientFill_15);}.cls-12{fill:#489ce0;}.cls-13{fill:url(#linear-gradient-2);}</style><linearGradient id="linear-gradient" y1="58.48" x2="40.47" y2="58.48" gradientUnits="userSpaceOnUse"><stop offset="0" stop-color="#e1fbff"/><stop offset="1" stop-color="#c5e8f6"/></linearGradient><radialGradient id="radial-gradient" cx="19.88" cy="103.72" r="14.29" gradientUnits="userSpaceOnUse"><stop offset="0" stop-color="#b7e2f5"/><stop offset="0.33" stop-color="#bde6f7"/><stop offset="0.75" stop-color="#cdf0fb"/><stop offset="1" stop-color="#daf8ff"/></radialGradient><linearGradient id="GradientFill_43" x1="8.35" y1="13.1" x2="33.37" y2="13.1" gradientUnits="userSpaceOnUse"><stop offset="0" stop-color="#0060a1"/><stop offset="0.27" stop-color="#39a6dd"/><stop offset="1" stop-color="#0e1e62"/></linearGradient><linearGradient id="GradientFill_44" x1="7.6" y1="6.73" x2="34.2" y2="6.73" gradientUnits="userSpaceOnUse"><stop offset="0" stop-color="#0094d9"/><stop offset="0.27" stop-color="#6dcef5"/><stop offset="1" stop-color="#0071bb"/></linearGradient><linearGradient id="GradientFill_45" x1="7.6" y1="7.52" x2="34.2" y2="7.52" gradientUnits="userSpaceOnUse"><stop offset="0" stop-color="#0071bb"/><stop offset="0.33" stop-color="#00adee"/><stop offset="1" stop-color="#034ea1"/></linearGradient><linearGradient id="GradientFill_46" x1="20.32" y1="2.96" x2="20.7" y2="7.36" gradientUnits="userSpaceOnUse"><stop offset="0" stop-color="#00adee"/><stop offset="1" stop-color="#a2ddf8"/></linearGradient><linearGradient id="GradientFill_15" y1="80.52" x2="40.47" y2="80.52" gradientUnits="userSpaceOnUse"><stop offset="0" stop-color="#2e78c1"/><stop offset="0.37" stop-color="#2e8edb"/><stop offset="0.63" stop-color="#2e99e3"/><stop offset="1" stop-color="#2e7ac6"/></linearGradient><linearGradient id="linear-gradient-2" x1="0.73" y1="50.36" x2="39.74" y2="50.36" gradientUnits="userSpaceOnUse"><stop offset="0" stop-color="#2f92e0"/><stop offset="0.48" stop-color="#72b5e3"/><stop offset="1" stop-color="#2f92e0"/></linearGradient></defs><title>screen2-holds-more</title><path class="cls-1" d="M9.85,9.4a2.73,2.73,0,0,1-.77-3.09L9.27,6H30.92l.18.15a1.67,1.67,0,0,1,.4.46,2.06,2.06,0,0,1,.06,1.83,2.24,2.24,0,0,1-.94,1.07,127.82,127.82,0,0,0,5.72,25.16c.93,2.87,2,5.72,2.87,8.6a21.26,21.26,0,0,1,1.26,5.65V89.27a3.08,3.08,0,0,1-.54,1.6.83.83,0,0,0-.11.38,1,1,0,0,0,.09.41c.1.24.23.46.33.7a3.1,3.1,0,0,1,.23,1.18v7a8.56,8.56,0,0,1-.91,3.89c-5.48,9.23-34.82,8.8-39.1-1.29A7.53,7.53,0,0,1,0,100.5V93.45a2.78,2.78,0,0,1,.61-1.77.72.72,0,0,0,.13-.42.65.65,0,0,0-.14-.42A2.53,2.53,0,0,1,0,89.15V48.89a21.31,21.31,0,0,1,1.26-5.66c.92-2.88,1.94-5.74,2.87-8.62A128.12,128.12,0,0,0,9.85,9.4Z"/><path class="cls-2" d="M31.72,7.69a1.91,1.91,0,0,0-.23-1.13,1.68,1.68,0,0,0-.4-.46L30.92,6h-.44A5.78,5.78,0,0,1,31.72,7.69Z"/><path class="cls-3" d="M26.72,104.24c-8.44-.11-16.37-2.28-24.1-5.54a7.13,7.13,0,0,1-2-1.22v3c0,11,33.16,13,38.44,2.89A83.87,83.87,0,0,1,26.72,104.24Z"/><path class="cls-4" d="M9.05,12.78a4.11,4.11,0,0,1-.21-1.16c3.13,2,19.44,1.56,22.81.08a7.57,7.57,0,0,1-.11,1.23C31,14.81,9.82,15.47,9.05,12.78Z"/><path class="cls-5" d="M8.35,11.33c-.49-1-.38-8.75-.09-9.52,0-2.15,23.83-2,23.89-.08.31.53.38,8.78.11,9.76C31.71,13.49,9.16,14.19,8.35,11.33Z"/><path class="cls-6" d="M8.35,11.33a9,9,0,0,1-.29-2.41V4.06a12.52,12.52,0,0,1,.2-2.25h0a.53.53,0,0,0,.2.25v9.49a.7.7,0,0,1-.11-.22Zm.88-8.92v9.68a3.06,3.06,0,0,1-.39-.2V2.27l.39.15Zm.77.21v9.75l-.37-.12V2.53l.37.09Zm.77.16v9.78l-.35-.08V2.72l.35.07Zm.77.13v9.8l-.34-.06V2.86l.34.05Zm.77.11v9.82l-.32,0V3l.32,0Zm.77.09v9.82l-.3,0V3.08l.3,0Zm.77.08V13l-.28,0V3.16l.28,0Zm.77.06v9.82l-.27,0V3.23l.27,0Zm.77.05v9.82h-.25V3.29l.25,0Zm.77,0v9.82H16V3.34Zm.77,0V13.2h-.21V3.38Zm.78,0v9.81h-.2V3.41Zm.77,0v9.8h-.18V3.43Zm.77,0v9.79h-.16V3.44Zm.77,0v9.79h-.15V3.45Zm1,0v9.78h-.15V3.45Zm.79,0V13.2h-.16V3.44Zm.79,0v9.76h-.18V3.42Zm.79,0v9.75h-.2V3.39Zm.79,0V13.1H24V3.36Zm.79,0V13l-.23,0V3.32Zm.79-.05V13l-.25,0V3.27l.25,0Zm.79-.07v9.74l-.27,0V3.21l.27,0Zm.79-.08v9.73l-.28,0V3.13l.28,0ZM28.15,3v9.73l-.3,0V3l.3,0Zm.79-.11v9.73l-.32,0V2.95l.32,0Zm.79-.14v9.73l-.34.06V2.82l.34-.06Zm.79-.17v9.74l-.35.08V2.67l.35-.08Zm.79-.23V12.1l-.37.11V2.48l.37-.12Zm.79-.49V11.7a1.58,1.58,0,0,1-.39.24V2.18A.91.91,0,0,0,32.11,1.86Z"/><ellipse class="cls-7" cx="20.19" cy="1.72" rx="11.95" ry="1.72"/><path class="cls-8" d="M20.19,0C26.44,0,31.56.69,32.1,1.57c-.54.88-5.66,1.57-11.91,1.57S8.83,2.45,8.29,1.57C8.83.69,14,0,20.19,0Z"/><path class="cls-9" d="M39.48,90.31a1.85,1.85,0,0,0-.32.94,1.57,1.57,0,0,0,0,.16C28.82,97,11.84,96.11,1.4,91.28v0a1.74,1.74,0,0,0-.46-1.09C11.26,95.29,29.55,96.4,39.48,90.31Z"/><path class="cls-10" d="M10.73,22.81A48.3,48.3,0,0,1,9.55,16C6.59,32.91.66,44.41.66,48.89V89.15c0,1.16.74,1.18.74,2.1s-.74,1-.74,2.19v7.05c0,3.27,2.92,5.74,7.17,7.34-.61-6.59-.5-13.23-.65-19.87-.23-10.08.18-20.14.19-30.22,0-9.82-.22-19.62,2-29.26C9.79,26.64,10.24,24.73,10.73,22.81Z"/><path class="cls-11" d="M40.47,89.27V50.35H21.33c-7.08,0-14.23-.45-21.33-.29v39.1a2.53,2.53,0,0,0,.61,1.68.65.65,0,0,1,.14.42.72.72,0,0,1-.13.42A2.78,2.78,0,0,0,0,93.45v7.05a7.53,7.53,0,0,0,.46,2.6c4.28,10.1,33.62,10.53,39.1,1.29a8.56,8.56,0,0,0,.91-3.89v-7a3.1,3.1,0,0,0-.23-1.18c-.1-.24-.23-.46-.33-.7a1,1,0,0,1-.09-.41.83.83,0,0,1,.11-.38A3.08,3.08,0,0,0,40.47,89.27Z"/><ellipse class="cls-12" cx="20.23" cy="50.36" rx="20.23" ry="3.02"/><path class="cls-13" d="M20.23,52.71c-11.47,0-18.68-1.36-19.5-2.35.83-1,8-2.35,19.5-2.35s18.68,1.36,19.5,2.35C38.91,51.35,31.7,52.71,20.23,52.71Z"/></svg>