<svg id="Layer_1" data-name="Layer 1" xmlns="http://www.w3.org/2000/svg" viewBox="0 0 139.07 32.49"><defs><style>.cls-1{fill:#e7e6e6;}.cls-2{fill:#f5f3f3;}.cls-2,.cls-3,.cls-4,.cls-5{fill-rule:evenodd;}.cls-3{fill:#cdcccb;}.cls-4{fill:#fff;}.cls-5{fill:#b2b2b2;}</style></defs><title>screen1-holds-less</title><path class="cls-1" d="M132.71,24c-21.91-.83-43.65-2.79-65.48-3.81-7-.33-16.78-.14-21.76,4.64-2.12,2-3.79,4.05-6.62,5.61-3.66,2-7.88,2.35-12.55,1.76C18.41,31.24-.29,27.54,0,15.75S19.17.87,27.1.14c4.7-.43,8.9,0,12.45,2.18C42.29,4,43.82,6,45.88,8.15c4.72,4.92,14.52,5.43,21.51,5.34C89.26,13.21,111.08,12,133,11.87,141.29,11.83,141,24.33,132.71,24Z"/><path class="cls-2" d="M132.74,23.21c-21.9-.83-43.65-2.79-65.47-3.81-9-.42-17.66.35-22.37,4.87-1.91,1.84-3.71,4-6.44,5.49s-6.4,2.38-12.06,1.67C17.88,30.35.55,26.59.82,15.76S18.59,1.74,27.17,1c5.69-.52,9.31.47,12,2.07s4.17,3.61,6.16,5.7c4.46,4.65,13.07,5.71,22.1,5.59C89.25,14,111.07,12.79,133,12.69,140.19,12.65,139.92,23.48,132.74,23.21Z"/><path class="cls-3" d="M2.61,13.28a8.14,8.14,0,0,0-.45,2.5,8.29,8.29,0,0,0,2.15,5.73s2.81,2.89,9.22,4.86,14.89,3.94,19.94,2.73S44,23.54,45.26,18.47v-.05l0-.08,0-.17a7.49,7.49,0,0,0,.14-1A42.6,42.6,0,0,1,37,15.47C28.64,13.29,16.32,10.08,2.61,13.28Z"/><path class="cls-4" d="M37.65,2.25C35.15,1.13,31.86.53,27.17,1c-7,.64-20,2.9-24.66,9.64a70,70,0,0,1,25-3.83,76.26,76.26,0,0,1,17,2.15A20.3,20.3,0,0,0,37.65,2.25Z"/><path class="cls-5" d="M46.46,16.5c.06-2.4-1.38-4.94-3.5-7.18,3.72,8.16.68,14-7,18.12a16.31,16.31,0,0,1-4.16.9,27.79,27.79,0,0,1-5.9-.15C20.81,27.58,9,25.57,3.47,20.4c4.25,6.61,17.65,9,23.11,9.7a25.56,25.56,0,0,0,5.66.14C38.24,29.66,46.31,22.61,46.46,16.5Z"/><path class="cls-5" d="M133,12.69c-21.93.1-43.76,1.34-65.61,1.62-9,.12-17.64-.94-22.1-5.59-2-2.08-3.53-4.11-6.16-5.7a14,14,0,0,0-1.48-.77,21.13,21.13,0,0,1,5.87,5.17c.57.64,1.14,1.29,1.76,2,4.45,4.79,13.06,6.1,22.08,6.25,23.25.39,63.57-.49,70.9,2.3A5,5,0,0,0,133,12.69Z"/></svg>