<svg id="Layer_1" data-name="Layer 1" xmlns="http://www.w3.org/2000/svg" viewBox="0 0 162.84 83.27"><defs><style>.cls-1{fill:#0072ab;}.cls-1,.cls-10,.cls-11,.cls-12,.cls-2,.cls-3,.cls-6,.cls-7,.cls-8,.cls-9{fill-rule:evenodd;}.cls-2{fill:#007fc7;}.cls-3{fill:#009add;}.cls-12,.cls-4{fill:#0f80b8;}.cls-5{fill:#008cd1;}.cls-6{fill:#4ab1e5;}.cls-7{fill:#0089cf;}.cls-8{fill:#00a6e3;}.cls-9{fill:#44b7e9;}.cls-10{fill:#6acff6;}.cls-11,.cls-13{fill:#fff;}.cls-14{fill:#a2d3f2;}</style></defs><title>screen6-holds-more</title><path class="cls-1" d="M123.07,71.89c0-5.26-18.65-9.52-41.65-9.52s-41.65,4.26-41.65,9.52S58.42,83.27,81.42,83.27,123.07,77.15,123.07,71.89Z"/><path class="cls-2" d="M116.61,71.7c0-5.15-17-9.33-37.86-9.33S40.89,66.54,40.89,71.7s17,11.15,37.87,11.15S116.61,76.85,116.61,71.7Z"/><path class="cls-3" d="M102.92,71.58c0-4.66-13.15-8.44-29.37-8.44s-29.38,3.78-29.38,8.44S57.32,81.67,73.54,81.67,102.92,76.24,102.92,71.58Z"/><ellipse class="cls-4" cx="81.42" cy="13.01" rx="80.4" ry="13.01"/><ellipse class="cls-5" cx="92.18" cy="14.35" rx="66.91" ry="11.23"/><path class="cls-6" d="M125.78,29.74C132.65,27.26,136,13.1,136,6c0,0,0-.05,0-.08-9.54-1.39-26.11-2.44-39.23-2.74,0,.36,0,.73,0,1.09,0,8,0,20.47-6.16,27.53C85,38.16,117.5,32.73,125.78,29.74Z"/><path class="cls-7" d="M161.82,13s0,0,0,0c0,7.19-36,13-80.4,13S1,20.2,1,13c0,0,0,0,0,0H.14c0,31.89,21.71,66.43,81.28,66.43S162.7,44.87,162.7,13Z"/><path class="cls-8" d="M81.42,26C44.21,26,12.9,21.93,3.75,16.37c1.43,30.9,22.62,63,74.55,63,49.22,0,63.38-28.87,65.46-58.18C129,24.15,106.57,26,81.42,26Z"/><path class="cls-9" d="M55.08,30.21c.18-2.19.5-1.78.9-3-18-1-34.39-3-44.71-5.91A19.66,19.66,0,0,0,11.65,24C21.46,26.87,36.8,29.1,55.08,30.21Z"/><path class="cls-9" d="M54.93,37.24C37.06,36.06,22,33.72,12.19,30.73c4.22,24,22.92,44.72,62.71,46.6C59.15,68.06,54.94,49.8,54.93,37.24Z"/><path class="cls-10" d="M81.42,32.07c-42.27,0-77-5.77-81-12.79A3.17,3.17,0,0,0,0,20.77c0,8.36,36.46,15.41,81.42,15.41s81.42-7.05,81.42-15.41a3.17,3.17,0,0,0-.39-1.48C158.44,26.31,123.7,32.07,81.42,32.07Z"/><path class="cls-11" d="M81.42,33.78c-42.77,0-77.81-6.38-81.14-14.2a3.56,3.56,0,0,0-.19.51C2,28.14,37.68,34.82,81.42,34.82s79.41-6.67,81.32-14.73a3.38,3.38,0,0,0-.19-.51C159.23,27.39,124.19,33.78,81.42,33.78Z"/><path class="cls-12" d="M81.42,35.29c-44.16,0-80.09-6.8-81.36-15a2.61,2.61,0,0,0-.06.45c0,8.36,36.46,15.41,81.42,15.41s81.42-7.05,81.42-15.41a2.62,2.62,0,0,0-.06-.45C161.51,28.48,125.59,35.29,81.42,35.29Z"/><path class="cls-13" d="M21.84,44.65C24.7,58,49.4,71.73,53.8,70.89c1.66-.7-13.45-5.13-18.33-23.79C34.76,44.38,21.33,42.24,21.84,44.65Z"/><path class="cls-13" d="M19.16,34.81c5.28,1.36,17.09,5.58,14.56,6.26-.93.25-9.16-.61-13-1.07C18.83,39.79,18.14,34.55,19.16,34.81Z"/><path class="cls-14" d="M81.42,26.84C42,26.84.14,22,.14,13,.14,5.26,42,0,81.42,0S162.7,5.27,162.7,13C162.7,22,120.82,26.84,81.42,26.84Zm0-25.58c-44.56,0-75.62,6.11-75.62,11.6S36.86,24.45,81.42,24.45,157,18.34,157,12.86,126,1.26,81.42,1.26Z"/><path class="cls-13" d="M19.73,24c2.87.72,10.21,1.51,9.8,2.8-.24.51-5.38-.2-8.93-1.09C18.53,25.22,19.13,23.87,19.73,24Z"/><path class="cls-13" d="M17.77,24.06c0,1.56-2.78.53-2.27-.26a1.68,1.68,0,0,1,1.35-.66C17.53,23.06,17.77,23.65,17.77,24.06Z"/></svg>