<svg xmlns="http://www.w3.org/2000/svg" xmlns:xlink="http://www.w3.org/1999/xlink" viewBox="0 0 62.65 62.65"><defs><style>.cls-1{isolation:isolate;}.cls-2{fill:#3a3d22;}.cls-3{fill:#525731;}.cls-4{opacity:0.22;mix-blend-mode:multiply;}.cls-5{fill:#005921;}.cls-6{fill:url(#radial-gradient);}.cls-7{fill:url(#linear-gradient);}.cls-8{fill:url(#linear-gradient-2);}.cls-9{fill:#334c3d;}.cls-10{fill:url(#radial-gradient-2);}.cls-11{fill:url(#linear-gradient-3);}.cls-12{fill:url(#linear-gradient-4);}.cls-13{fill:url(#radial-gradient-3);}.cls-14{fill:url(#linear-gradient-5);}.cls-15{fill:url(#linear-gradient-6);}.cls-16,.cls-17,.cls-18,.cls-19,.cls-20,.cls-21,.cls-22,.cls-23,.cls-24,.cls-25,.cls-26,.cls-27,.cls-28,.cls-29,.cls-30,.cls-31,.cls-32,.cls-33,.cls-34,.cls-35,.cls-36,.cls-37,.cls-38,.cls-39,.cls-40,.cls-41,.cls-42,.cls-43,.cls-44,.cls-45,.cls-46,.cls-47,.cls-48,.cls-49,.cls-50,.cls-51,.cls-52,.cls-53,.cls-54,.cls-55,.cls-56,.cls-57,.cls-58,.cls-59,.cls-60,.cls-61,.cls-62,.cls-63,.cls-64,.cls-65,.cls-66,.cls-67{fill:#171900;}.cls-16{opacity:0;}.cls-17{opacity:0.02;}.cls-18{opacity:0.04;}.cls-19{opacity:0.06;}.cls-20{opacity:0.08;}.cls-21{opacity:0.1;}.cls-22{opacity:0.12;}.cls-23{opacity:0.14;}.cls-24{opacity:0.16;}.cls-25{opacity:0.18;}.cls-26{opacity:0.2;}.cls-27{opacity:0.22;}.cls-28{opacity:0.24;}.cls-29{opacity:0.25;}.cls-30{opacity:0.27;}.cls-31{opacity:0.29;}.cls-32{opacity:0.31;}.cls-33{opacity:0.33;}.cls-34{opacity:0.35;}.cls-35{opacity:0.37;}.cls-36{opacity:0.39;}.cls-37{opacity:0.41;}.cls-38{opacity:0.43;}.cls-39{opacity:0.45;}.cls-40{opacity:0.47;}.cls-41{opacity:0.49;}.cls-42{opacity:0.51;}.cls-43{opacity:0.53;}.cls-44{opacity:0.55;}.cls-45{opacity:0.57;}.cls-46{opacity:0.59;}.cls-47{opacity:0.61;}.cls-48{opacity:0.63;}.cls-49{opacity:0.65;}.cls-50{opacity:0.67;}.cls-51{opacity:0.69;}.cls-52{opacity:0.71;}.cls-53{opacity:0.73;}.cls-54{opacity:0.75;}.cls-55{opacity:0.76;}.cls-56{opacity:0.78;}.cls-57{opacity:0.8;}.cls-58{opacity:0.82;}.cls-59{opacity:0.84;}.cls-60{opacity:0.86;}.cls-61{opacity:0.88;}.cls-62{opacity:0.9;}.cls-63{opacity:0.92;}.cls-64{opacity:0.94;}.cls-65{opacity:0.96;}.cls-66{opacity:0.98;}.cls-68{fill:url(#radial-gradient-4);}.cls-69{fill:url(#linear-gradient-7);}.cls-70{fill:url(#linear-gradient-8);}.cls-71{fill:#0033bf;}.cls-72{fill:url(#radial-gradient-5);}.cls-73{fill:url(#linear-gradient-9);}.cls-74{fill:url(#linear-gradient-10);}.cls-75{fill:url(#radial-gradient-6);}.cls-76{fill:url(#linear-gradient-11);}.cls-77{fill:url(#linear-gradient-12);}.cls-78{fill:#170054;}.cls-79{fill:url(#radial-gradient-7);}.cls-80{fill:url(#linear-gradient-13);}.cls-81{fill:url(#linear-gradient-14);}.cls-82{fill:url(#radial-gradient-8);}.cls-83{fill:url(#linear-gradient-15);}.cls-84{fill:url(#linear-gradient-16);}.cls-85{fill:url(#radial-gradient-9);}.cls-86{fill:url(#linear-gradient-17);}.cls-87{fill:url(#linear-gradient-18);}.cls-88{fill:url(#radial-gradient-10);}.cls-89{fill:url(#linear-gradient-19);}.cls-90{fill:url(#linear-gradient-20);}.cls-91{fill:url(#radial-gradient-11);}.cls-92{fill:url(#linear-gradient-21);}.cls-93{fill:url(#linear-gradient-22);}.cls-94{fill:url(#radial-gradient-12);}.cls-95{fill:url(#linear-gradient-23);}.cls-96{fill:url(#linear-gradient-24);}.cls-97{fill:url(#radial-gradient-13);}.cls-98{fill:url(#linear-gradient-25);}.cls-99{fill:url(#linear-gradient-26);}.cls-100{fill:url(#radial-gradient-14);}.cls-101{fill:url(#linear-gradient-27);}.cls-102{fill:url(#linear-gradient-28);}.cls-103{fill:url(#radial-gradient-15);}.cls-104{fill:url(#linear-gradient-29);}.cls-105{fill:url(#linear-gradient-30);}.cls-106{fill:url(#radial-gradient-16);}.cls-107{fill:url(#linear-gradient-31);}.cls-108{fill:url(#linear-gradient-32);}.cls-109{fill:url(#radial-gradient-17);}.cls-110{fill:url(#linear-gradient-33);}.cls-111{fill:url(#linear-gradient-34);}.cls-112{fill:url(#radial-gradient-18);}.cls-113{fill:url(#linear-gradient-35);}.cls-114{fill:url(#linear-gradient-36);}.cls-115{fill:url(#radial-gradient-19);}.cls-116{fill:url(#linear-gradient-37);}.cls-117{fill:url(#linear-gradient-38);}.cls-118{fill:url(#radial-gradient-20);}.cls-119{fill:url(#linear-gradient-39);}.cls-120{fill:url(#linear-gradient-40);}.cls-121{fill:url(#radial-gradient-21);}.cls-122{fill:url(#linear-gradient-41);}.cls-123{fill:url(#linear-gradient-42);}.cls-124{fill:url(#radial-gradient-22);}.cls-125{fill:url(#linear-gradient-43);}.cls-126{fill:url(#linear-gradient-44);}.cls-127{fill:url(#radial-gradient-23);}.cls-128{fill:url(#linear-gradient-45);}.cls-129{fill:url(#linear-gradient-46);}.cls-130{fill:url(#radial-gradient-24);}.cls-131{fill:url(#linear-gradient-47);}.cls-132{fill:url(#linear-gradient-48);}.cls-133{fill:url(#radial-gradient-25);}.cls-134{fill:url(#linear-gradient-49);}.cls-135{fill:url(#linear-gradient-50);}.cls-136{fill:url(#radial-gradient-26);}.cls-137{fill:url(#linear-gradient-51);}.cls-138{fill:url(#linear-gradient-52);}.cls-139{fill:url(#radial-gradient-27);}.cls-140{fill:url(#linear-gradient-53);}.cls-141{fill:url(#linear-gradient-54);}.cls-142{fill:url(#radial-gradient-28);}.cls-143{fill:url(#linear-gradient-55);}.cls-144{fill:url(#linear-gradient-56);}.cls-145{fill:url(#radial-gradient-29);}.cls-146{fill:url(#linear-gradient-57);}.cls-147{fill:url(#linear-gradient-58);}.cls-148{fill:url(#radial-gradient-30);}.cls-149{fill:url(#linear-gradient-59);}.cls-150{fill:url(#linear-gradient-60);}.cls-151{fill:url(#radial-gradient-31);}.cls-152{fill:url(#linear-gradient-61);}.cls-153{fill:url(#linear-gradient-62);}.cls-154{fill:url(#radial-gradient-32);}.cls-155{fill:url(#linear-gradient-63);}.cls-156{fill:url(#linear-gradient-64);}.cls-157{fill:url(#radial-gradient-33);}.cls-158{fill:url(#linear-gradient-65);}.cls-159{fill:url(#linear-gradient-66);}.cls-160{fill:url(#radial-gradient-34);}.cls-161{fill:url(#linear-gradient-67);}.cls-162{fill:url(#linear-gradient-68);}.cls-163{fill:url(#radial-gradient-35);}.cls-164{fill:url(#linear-gradient-69);}.cls-165{fill:url(#linear-gradient-70);}.cls-166{fill:url(#radial-gradient-36);}.cls-167{fill:url(#linear-gradient-71);}.cls-168{fill:url(#linear-gradient-72);}.cls-169{fill:url(#radial-gradient-37);}.cls-170{fill:url(#linear-gradient-73);}.cls-171{fill:url(#linear-gradient-74);}.cls-172{fill:url(#radial-gradient-38);}.cls-173{fill:url(#linear-gradient-75);}.cls-174{fill:url(#linear-gradient-76);}.cls-175{fill:url(#radial-gradient-39);}.cls-176{fill:url(#linear-gradient-77);}.cls-177{fill:url(#linear-gradient-78);}.cls-178{fill:url(#radial-gradient-40);}.cls-179{fill:url(#linear-gradient-79);}.cls-180{fill:url(#linear-gradient-80);}.cls-181{fill:url(#radial-gradient-41);}.cls-182{fill:url(#linear-gradient-81);}.cls-183{fill:url(#linear-gradient-82);}.cls-184{fill:url(#radial-gradient-42);}.cls-185{fill:url(#linear-gradient-83);}.cls-186{fill:url(#linear-gradient-84);}.cls-187{fill:url(#radial-gradient-43);}.cls-188{fill:url(#linear-gradient-85);}.cls-189{fill:url(#linear-gradient-86);}.cls-190{fill:url(#radial-gradient-44);}.cls-191{fill:url(#linear-gradient-87);}.cls-192{fill:url(#linear-gradient-88);}.cls-193{fill:url(#radial-gradient-45);}.cls-194{fill:url(#linear-gradient-89);}.cls-195{fill:url(#linear-gradient-90);}.cls-196{fill:url(#radial-gradient-46);}.cls-197{fill:url(#linear-gradient-91);}.cls-198{fill:url(#linear-gradient-92);}.cls-199{fill:url(#radial-gradient-47);}.cls-200{fill:url(#linear-gradient-93);}.cls-201{fill:url(#linear-gradient-94);}.cls-202{fill:url(#radial-gradient-48);}.cls-203{fill:url(#linear-gradient-95);}.cls-204{fill:url(#linear-gradient-96);}.cls-205{fill:url(#radial-gradient-49);}.cls-206{fill:url(#linear-gradient-97);}.cls-207{fill:url(#linear-gradient-98);}.cls-208{fill:url(#radial-gradient-50);}.cls-209{fill:url(#linear-gradient-99);}.cls-210{fill:url(#linear-gradient-100);}.cls-211{fill:url(#radial-gradient-51);}.cls-212{fill:url(#linear-gradient-101);}.cls-213{fill:url(#linear-gradient-102);}.cls-214{fill:url(#radial-gradient-52);}.cls-215{fill:url(#linear-gradient-103);}.cls-216{fill:url(#linear-gradient-104);}.cls-217{fill:url(#radial-gradient-53);}.cls-218{fill:url(#linear-gradient-105);}.cls-219{fill:url(#linear-gradient-106);}.cls-220{fill:url(#radial-gradient-54);}.cls-221{fill:url(#linear-gradient-107);}.cls-222{fill:url(#linear-gradient-108);}.cls-223{fill:url(#radial-gradient-55);}.cls-224{fill:url(#linear-gradient-109);}.cls-225{fill:url(#linear-gradient-110);}.cls-226{fill:url(#linear-gradient-111);}.cls-227{fill:url(#radial-gradient-56);}.cls-228{fill:url(#linear-gradient-112);}.cls-229{fill:url(#linear-gradient-113);}.cls-230{fill:url(#radial-gradient-57);}.cls-231{fill:url(#linear-gradient-114);}.cls-232{fill:url(#linear-gradient-115);}.cls-233{fill:url(#radial-gradient-58);}.cls-234{fill:url(#linear-gradient-116);}.cls-235{fill:url(#linear-gradient-117);}.cls-236{fill:url(#radial-gradient-59);}.cls-237{fill:url(#linear-gradient-118);}.cls-238{fill:url(#radial-gradient-60);}.cls-239{fill:url(#linear-gradient-119);}.cls-240{fill:url(#linear-gradient-120);}.cls-241{fill:url(#radial-gradient-61);}.cls-242{fill:url(#radial-gradient-62);}.cls-243{fill:#2a2f78;}.cls-244{fill:url(#linear-gradient-121);}.cls-245{fill:url(#linear-gradient-122);}.cls-246{fill:url(#linear-gradient-123);}.cls-247{fill:url(#linear-gradient-124);}.cls-248{fill:url(#linear-gradient-125);}.cls-249{fill:url(#linear-gradient-126);}.cls-250{fill:url(#linear-gradient-127);}.cls-251{fill:url(#linear-gradient-128);}.cls-252{opacity:0.5;fill:url(#radial-gradient-63);}</style><radialGradient id="radial-gradient" cx="-16.57" cy="-506.88" r="2.94" gradientTransform="translate(-494.03 65.79) rotate(90) scale(1.01 1.03)" gradientUnits="userSpaceOnUse"><stop offset="0" stop-color="#fe6300"/><stop offset="1" stop-color="#d05400"/></radialGradient><linearGradient id="linear-gradient" x1="-20.18" y1="-517.01" x2="-18.88" y2="-516.85" gradientTransform="translate(-488.72 66.03) rotate(90)" gradientUnits="userSpaceOnUse"><stop offset="0" stop-color="#d05400"/><stop offset="0.36" stop-color="#e75c00"/><stop offset="0.72" stop-color="#f86100"/><stop offset="1" stop-color="#fe6300"/></linearGradient><linearGradient id="linear-gradient-2" x1="-17.53" y1="-519.7" x2="-17.43" y2="-518.33" xlink:href="#linear-gradient"/><radialGradient id="radial-gradient-2" cx="-20.75" cy="-506.88" r="2.94" xlink:href="#radial-gradient"/><linearGradient id="linear-gradient-3" x1="-24.39" y1="-517.01" x2="-23.09" y2="-516.85" xlink:href="#linear-gradient"/><linearGradient id="linear-gradient-4" x1="-21.74" y1="-519.7" x2="-21.64" y2="-518.33" xlink:href="#linear-gradient"/><radialGradient id="radial-gradient-3" cx="-24.94" cy="-506.88" r="2.94" xlink:href="#radial-gradient"/><linearGradient id="linear-gradient-5" x1="-28.6" y1="-517.01" x2="-27.3" y2="-516.85" xlink:href="#linear-gradient"/><linearGradient id="linear-gradient-6" x1="-25.95" y1="-519.7" x2="-25.84" y2="-518.33" xlink:href="#linear-gradient"/><radialGradient id="radial-gradient-4" cx="-29.12" cy="-506.88" r="2.94" xlink:href="#radial-gradient"/><linearGradient id="linear-gradient-7" x1="-32.81" y1="-517.01" x2="-31.51" y2="-516.85" xlink:href="#linear-gradient"/><linearGradient id="linear-gradient-8" x1="-30.16" y1="-519.7" x2="-30.05" y2="-518.33" xlink:href="#linear-gradient"/><radialGradient id="radial-gradient-5" cx="-33.31" cy="-506.88" r="2.94" xlink:href="#radial-gradient"/><linearGradient id="linear-gradient-9" x1="-37.02" y1="-517.01" x2="-35.71" y2="-516.85" xlink:href="#linear-gradient"/><linearGradient id="linear-gradient-10" x1="-34.37" y1="-519.7" x2="-34.26" y2="-518.33" xlink:href="#linear-gradient"/><radialGradient id="radial-gradient-6" cx="-37.49" cy="-506.88" r="2.94" xlink:href="#radial-gradient"/><linearGradient id="linear-gradient-11" x1="-41.23" y1="-517.01" x2="-39.92" y2="-516.85" xlink:href="#linear-gradient"/><linearGradient id="linear-gradient-12" x1="-38.58" y1="-519.7" x2="-38.47" y2="-518.33" xlink:href="#linear-gradient"/><radialGradient id="radial-gradient-7" cx="-41.68" cy="-506.88" r="2.94" xlink:href="#radial-gradient"/><linearGradient id="linear-gradient-13" x1="-45.44" y1="-517.01" x2="-44.13" y2="-516.85" xlink:href="#linear-gradient"/><linearGradient id="linear-gradient-14" x1="-42.79" y1="-519.7" x2="-42.68" y2="-518.33" xlink:href="#linear-gradient"/><radialGradient id="radial-gradient-8" cx="-45.86" cy="-506.88" r="2.94" xlink:href="#radial-gradient"/><linearGradient id="linear-gradient-15" x1="-49.65" y1="-517.01" x2="-48.34" y2="-516.85" xlink:href="#linear-gradient"/><linearGradient id="linear-gradient-16" x1="-47" y1="-519.7" x2="-46.89" y2="-518.33" xlink:href="#linear-gradient"/><radialGradient id="radial-gradient-9" cx="-50.04" cy="-506.88" r="2.94" xlink:href="#radial-gradient"/><linearGradient id="linear-gradient-17" x1="-53.85" y1="-517.01" x2="-52.55" y2="-516.85" xlink:href="#linear-gradient"/><linearGradient id="linear-gradient-18" x1="-51.21" y1="-519.7" x2="-51.1" y2="-518.33" xlink:href="#linear-gradient"/><radialGradient id="radial-gradient-10" cx="-54.23" cy="-506.88" r="2.94" xlink:href="#radial-gradient"/><linearGradient id="linear-gradient-19" x1="-58.06" y1="-517.01" x2="-56.76" y2="-516.85" xlink:href="#linear-gradient"/><linearGradient id="linear-gradient-20" x1="-55.41" y1="-519.7" x2="-55.31" y2="-518.33" xlink:href="#linear-gradient"/><radialGradient id="radial-gradient-11" cx="-16.57" cy="-526.99" r="2.94" gradientTransform="translate(-494.03 65.79) rotate(90) scale(1.01 1.03)" gradientUnits="userSpaceOnUse"><stop offset="0" stop-color="#7077b9"/><stop offset="1" stop-color="#705daf"/></radialGradient><linearGradient id="linear-gradient-21" x1="-20.18" y1="-537.7" x2="-18.88" y2="-537.54" gradientTransform="translate(-488.72 66.03) rotate(90)" gradientUnits="userSpaceOnUse"><stop offset="0" stop-color="#7068bc"/><stop offset="0.44" stop-color="#7071ba"/><stop offset="1" stop-color="#7077b9"/></linearGradient><linearGradient id="linear-gradient-22" x1="-17.53" y1="-540.39" x2="-17.43" y2="-539.02" xlink:href="#linear-gradient-21"/><radialGradient id="radial-gradient-12" cx="-20.75" cy="-526.99" r="2.94" xlink:href="#radial-gradient-11"/><linearGradient id="linear-gradient-23" x1="-24.39" y1="-537.7" x2="-23.09" y2="-537.54" xlink:href="#linear-gradient-21"/><linearGradient id="linear-gradient-24" x1="-21.74" y1="-540.39" x2="-21.64" y2="-539.02" xlink:href="#linear-gradient-21"/><radialGradient id="radial-gradient-13" cx="-24.94" cy="-526.99" r="2.94" xlink:href="#radial-gradient-11"/><linearGradient id="linear-gradient-25" x1="-28.6" y1="-537.7" x2="-27.3" y2="-537.54" xlink:href="#linear-gradient-21"/><linearGradient id="linear-gradient-26" x1="-25.95" y1="-540.39" x2="-25.84" y2="-539.02" xlink:href="#linear-gradient-21"/><radialGradient id="radial-gradient-14" cx="-29.12" cy="-526.99" r="2.94" xlink:href="#radial-gradient-11"/><linearGradient id="linear-gradient-27" x1="-32.81" y1="-537.7" x2="-31.51" y2="-537.54" xlink:href="#linear-gradient-21"/><linearGradient id="linear-gradient-28" x1="-30.16" y1="-540.39" x2="-30.05" y2="-539.02" xlink:href="#linear-gradient-21"/><radialGradient id="radial-gradient-15" cx="-33.31" cy="-526.99" r="2.94" xlink:href="#radial-gradient-11"/><linearGradient id="linear-gradient-29" x1="-37.02" y1="-537.7" x2="-35.71" y2="-537.54" xlink:href="#linear-gradient-21"/><linearGradient id="linear-gradient-30" x1="-34.37" y1="-540.39" x2="-34.26" y2="-539.02" xlink:href="#linear-gradient-21"/><radialGradient id="radial-gradient-16" cx="-37.49" cy="-526.99" r="2.94" xlink:href="#radial-gradient-11"/><linearGradient id="linear-gradient-31" x1="-41.23" y1="-537.7" x2="-39.92" y2="-537.54" xlink:href="#linear-gradient-21"/><linearGradient id="linear-gradient-32" x1="-38.58" y1="-540.39" x2="-38.47" y2="-539.02" xlink:href="#linear-gradient-21"/><radialGradient id="radial-gradient-17" cx="-41.68" cy="-526.99" r="2.94" xlink:href="#radial-gradient-11"/><linearGradient id="linear-gradient-33" x1="-45.44" y1="-537.7" x2="-44.13" y2="-537.54" xlink:href="#linear-gradient-21"/><linearGradient id="linear-gradient-34" x1="-42.79" y1="-540.39" x2="-42.68" y2="-539.02" xlink:href="#linear-gradient-21"/><radialGradient id="radial-gradient-18" cx="-45.86" cy="-526.99" r="2.94" xlink:href="#radial-gradient-11"/><linearGradient id="linear-gradient-35" x1="-49.65" y1="-537.7" x2="-48.34" y2="-537.54" xlink:href="#linear-gradient-21"/><linearGradient id="linear-gradient-36" x1="-47" y1="-540.39" x2="-46.89" y2="-539.02" xlink:href="#linear-gradient-21"/><radialGradient id="radial-gradient-19" cx="-50.04" cy="-526.99" r="2.94" xlink:href="#radial-gradient-11"/><linearGradient id="linear-gradient-37" x1="-53.85" y1="-537.7" x2="-52.55" y2="-537.54" xlink:href="#linear-gradient-21"/><linearGradient id="linear-gradient-38" x1="-51.21" y1="-540.39" x2="-51.1" y2="-539.02" xlink:href="#linear-gradient-21"/><radialGradient id="radial-gradient-20" cx="-54.23" cy="-526.99" r="2.94" xlink:href="#radial-gradient-11"/><linearGradient id="linear-gradient-39" x1="-58.06" y1="-537.7" x2="-56.76" y2="-537.54" xlink:href="#linear-gradient-21"/><linearGradient id="linear-gradient-40" x1="-55.41" y1="-540.39" x2="-55.31" y2="-539.02" xlink:href="#linear-gradient-21"/><radialGradient id="radial-gradient-21" cx="-16.57" cy="-520.29" r="2.94" gradientTransform="translate(-494.03 65.79) rotate(90) scale(1.01 1.03)" gradientUnits="userSpaceOnUse"><stop offset="0" stop-color="#ffc13e"/><stop offset="1" stop-color="#ecb24a"/></radialGradient><linearGradient id="linear-gradient-41" x1="-20.18" y1="-530.81" x2="-18.88" y2="-530.65" gradientTransform="translate(-488.72 66.03) rotate(90)" gradientUnits="userSpaceOnUse"><stop offset="0" stop-color="#ecb24a"/><stop offset="0.52" stop-color="#f9bc42"/><stop offset="1" stop-color="#ffc13e"/></linearGradient><linearGradient id="linear-gradient-42" x1="-17.53" y1="-533.49" x2="-17.43" y2="-532.12" xlink:href="#linear-gradient-41"/><radialGradient id="radial-gradient-22" cx="-20.75" cy="-520.29" r="2.94" xlink:href="#radial-gradient-21"/><linearGradient id="linear-gradient-43" x1="-24.39" y1="-530.81" x2="-23.09" y2="-530.65" xlink:href="#linear-gradient-41"/><linearGradient id="linear-gradient-44" x1="-21.74" y1="-533.49" x2="-21.64" y2="-532.12" xlink:href="#linear-gradient-41"/><radialGradient id="radial-gradient-23" cx="-24.94" cy="-520.29" r="2.94" xlink:href="#radial-gradient-21"/><linearGradient id="linear-gradient-45" x1="-28.6" y1="-530.81" x2="-27.3" y2="-530.65" xlink:href="#linear-gradient-41"/><linearGradient id="linear-gradient-46" x1="-25.95" y1="-533.49" x2="-25.84" y2="-532.12" xlink:href="#linear-gradient-41"/><radialGradient id="radial-gradient-24" cx="-29.12" cy="-520.29" r="2.94" xlink:href="#radial-gradient-21"/><linearGradient id="linear-gradient-47" x1="-32.81" y1="-530.81" x2="-31.51" y2="-530.65" xlink:href="#linear-gradient-41"/><linearGradient id="linear-gradient-48" x1="-30.16" y1="-533.49" x2="-30.05" y2="-532.12" xlink:href="#linear-gradient-41"/><radialGradient id="radial-gradient-25" cx="-33.31" cy="-520.29" r="2.94" xlink:href="#radial-gradient-21"/><linearGradient id="linear-gradient-49" x1="-37.02" y1="-530.81" x2="-35.71" y2="-530.65" xlink:href="#linear-gradient-41"/><linearGradient id="linear-gradient-50" x1="-34.37" y1="-533.49" x2="-34.26" y2="-532.12" xlink:href="#linear-gradient-41"/><radialGradient id="radial-gradient-26" cx="-37.49" cy="-520.29" r="2.94" xlink:href="#radial-gradient-21"/><linearGradient id="linear-gradient-51" x1="-41.23" y1="-530.81" x2="-39.92" y2="-530.65" xlink:href="#linear-gradient-41"/><linearGradient id="linear-gradient-52" x1="-38.58" y1="-533.49" x2="-38.47" y2="-532.12" xlink:href="#linear-gradient-41"/><radialGradient id="radial-gradient-27" cx="-41.68" cy="-520.29" r="2.94" xlink:href="#radial-gradient-21"/><linearGradient id="linear-gradient-53" x1="-45.44" y1="-530.81" x2="-44.13" y2="-530.65" xlink:href="#linear-gradient-41"/><linearGradient id="linear-gradient-54" x1="-42.79" y1="-533.49" x2="-42.68" y2="-532.12" xlink:href="#linear-gradient-41"/><radialGradient id="radial-gradient-28" cx="-45.86" cy="-520.29" r="2.94" xlink:href="#radial-gradient-21"/><linearGradient id="linear-gradient-55" x1="-49.65" y1="-530.81" x2="-48.34" y2="-530.65" xlink:href="#linear-gradient-41"/><linearGradient id="linear-gradient-56" x1="-47" y1="-533.49" x2="-46.89" y2="-532.12" xlink:href="#linear-gradient-41"/><radialGradient id="radial-gradient-29" cx="-50.04" cy="-520.29" r="2.94" xlink:href="#radial-gradient-21"/><linearGradient id="linear-gradient-57" x1="-53.85" y1="-530.81" x2="-52.55" y2="-530.65" xlink:href="#linear-gradient-41"/><linearGradient id="linear-gradient-58" x1="-51.21" y1="-533.49" x2="-51.1" y2="-532.12" xlink:href="#linear-gradient-41"/><radialGradient id="radial-gradient-30" cx="-54.23" cy="-520.29" r="2.94" xlink:href="#radial-gradient-21"/><linearGradient id="linear-gradient-59" x1="-58.06" y1="-530.81" x2="-56.76" y2="-530.65" xlink:href="#linear-gradient-41"/><linearGradient id="linear-gradient-60" x1="-55.41" y1="-533.49" x2="-55.31" y2="-532.12" xlink:href="#linear-gradient-41"/><radialGradient id="radial-gradient-31" cx="-16.57" cy="-513.59" r="2.94" gradientTransform="translate(-494.03 65.79) rotate(90) scale(1.01 1.03)" gradientUnits="userSpaceOnUse"><stop offset="0" stop-color="#afce22"/><stop offset="1" stop-color="#81bf2e"/></radialGradient><linearGradient id="linear-gradient-61" x1="-20.18" y1="-523.91" x2="-18.88" y2="-523.75" gradientTransform="translate(-488.72 66.03) rotate(90)" gradientUnits="userSpaceOnUse"><stop offset="0" stop-color="#81bf2e"/><stop offset="0.36" stop-color="#98c728"/><stop offset="0.72" stop-color="#a9cc24"/><stop offset="1" stop-color="#afce22"/></linearGradient><linearGradient id="linear-gradient-62" x1="-17.53" y1="-526.59" x2="-17.43" y2="-525.23" xlink:href="#linear-gradient-61"/><radialGradient id="radial-gradient-32" cx="-20.75" cy="-513.59" r="2.94" xlink:href="#radial-gradient-31"/><linearGradient id="linear-gradient-63" x1="-24.39" y1="-523.91" x2="-23.09" y2="-523.75" xlink:href="#linear-gradient-61"/><linearGradient id="linear-gradient-64" x1="-21.74" y1="-526.59" x2="-21.64" y2="-525.23" xlink:href="#linear-gradient-61"/><radialGradient id="radial-gradient-33" cx="-24.94" cy="-513.59" r="2.94" xlink:href="#radial-gradient-31"/><linearGradient id="linear-gradient-65" x1="-28.6" y1="-523.91" x2="-27.3" y2="-523.75" xlink:href="#linear-gradient-61"/><linearGradient id="linear-gradient-66" x1="-25.95" y1="-526.59" x2="-25.84" y2="-525.23" xlink:href="#linear-gradient-61"/><radialGradient id="radial-gradient-34" cx="-29.12" cy="-513.59" r="2.94" xlink:href="#radial-gradient-31"/><linearGradient id="linear-gradient-67" x1="-32.81" y1="-523.91" x2="-31.51" y2="-523.75" xlink:href="#linear-gradient-61"/><linearGradient id="linear-gradient-68" x1="-30.16" y1="-526.59" x2="-30.05" y2="-525.23" xlink:href="#linear-gradient-61"/><radialGradient id="radial-gradient-35" cx="-33.31" cy="-513.59" r="2.94" xlink:href="#radial-gradient-31"/><linearGradient id="linear-gradient-69" x1="-37.02" y1="-523.91" x2="-35.71" y2="-523.75" xlink:href="#linear-gradient-61"/><linearGradient id="linear-gradient-70" x1="-34.37" y1="-526.59" x2="-34.26" y2="-525.23" xlink:href="#linear-gradient-61"/><radialGradient id="radial-gradient-36" cx="-37.49" cy="-513.59" r="2.94" xlink:href="#radial-gradient-31"/><linearGradient id="linear-gradient-71" x1="-41.23" y1="-523.91" x2="-39.92" y2="-523.75" xlink:href="#linear-gradient-61"/><linearGradient id="linear-gradient-72" x1="-38.58" y1="-526.59" x2="-38.47" y2="-525.23" xlink:href="#linear-gradient-61"/><radialGradient id="radial-gradient-37" cx="-41.68" cy="-513.59" r="2.94" xlink:href="#radial-gradient-31"/><linearGradient id="linear-gradient-73" x1="-45.44" y1="-523.91" x2="-44.13" y2="-523.75" xlink:href="#linear-gradient-61"/><linearGradient id="linear-gradient-74" x1="-42.79" y1="-526.59" x2="-42.68" y2="-525.23" xlink:href="#linear-gradient-61"/><radialGradient id="radial-gradient-38" cx="-45.86" cy="-513.59" r="2.94" xlink:href="#radial-gradient-31"/><linearGradient id="linear-gradient-75" x1="-49.65" y1="-523.91" x2="-48.34" y2="-523.75" xlink:href="#linear-gradient-61"/><linearGradient id="linear-gradient-76" x1="-47" y1="-526.59" x2="-46.89" y2="-525.23" xlink:href="#linear-gradient-61"/><radialGradient id="radial-gradient-39" cx="-50.04" cy="-513.59" r="2.94" xlink:href="#radial-gradient-31"/><linearGradient id="linear-gradient-77" x1="-53.85" y1="-523.91" x2="-52.55" y2="-523.75" xlink:href="#linear-gradient-61"/><linearGradient id="linear-gradient-78" x1="-51.21" y1="-526.59" x2="-51.1" y2="-525.23" xlink:href="#linear-gradient-61"/><radialGradient id="radial-gradient-40" cx="-54.23" cy="-513.59" r="2.94" xlink:href="#radial-gradient-31"/><linearGradient id="linear-gradient-79" x1="-58.06" y1="-523.91" x2="-56.76" y2="-523.75" xlink:href="#linear-gradient-61"/><linearGradient id="linear-gradient-80" x1="-55.41" y1="-526.59" x2="-55.31" y2="-525.23" xlink:href="#linear-gradient-61"/><radialGradient id="radial-gradient-41" cx="-16.57" cy="-500.18" r="2.94" gradientTransform="translate(-494.03 65.79) rotate(90) scale(1.01 1.03)" gradientUnits="userSpaceOnUse"><stop offset="0" stop-color="#00a3bf"/><stop offset="1" stop-color="#0089b5"/></radialGradient><linearGradient id="linear-gradient-81" x1="-20.18" y1="-510.11" x2="-18.88" y2="-509.95" gradientTransform="translate(-488.72 66.03) rotate(90)" gradientUnits="userSpaceOnUse"><stop offset="0" stop-color="#0094c2"/><stop offset="0.44" stop-color="#009dc0"/><stop offset="1" stop-color="#00a3bf"/></linearGradient><linearGradient id="linear-gradient-82" x1="-17.53" y1="-512.8" x2="-17.43" y2="-511.43" xlink:href="#linear-gradient-81"/><radialGradient id="radial-gradient-42" cx="-20.75" cy="-500.18" r="2.94" xlink:href="#radial-gradient-41"/><linearGradient id="linear-gradient-83" x1="-24.39" y1="-510.11" x2="-23.09" y2="-509.95" xlink:href="#linear-gradient-81"/><linearGradient id="linear-gradient-84" x1="-21.74" y1="-512.8" x2="-21.64" y2="-511.43" xlink:href="#linear-gradient-81"/><radialGradient id="radial-gradient-43" cx="-24.94" cy="-500.18" r="2.94" xlink:href="#radial-gradient-41"/><linearGradient id="linear-gradient-85" x1="-28.6" y1="-510.11" x2="-27.3" y2="-509.95" xlink:href="#linear-gradient-81"/><linearGradient id="linear-gradient-86" x1="-25.95" y1="-512.8" x2="-25.84" y2="-511.43" xlink:href="#linear-gradient-81"/><radialGradient id="radial-gradient-44" cx="-29.12" cy="-500.18" r="2.94" xlink:href="#radial-gradient-41"/><linearGradient id="linear-gradient-87" x1="-32.81" y1="-510.11" x2="-31.51" y2="-509.95" xlink:href="#linear-gradient-81"/><linearGradient id="linear-gradient-88" x1="-30.16" y1="-512.8" x2="-30.05" y2="-511.43" xlink:href="#linear-gradient-81"/><radialGradient id="radial-gradient-45" cx="-33.31" cy="-500.18" r="2.94" xlink:href="#radial-gradient-41"/><linearGradient id="linear-gradient-89" x1="-37.02" y1="-510.11" x2="-35.71" y2="-509.95" xlink:href="#linear-gradient-81"/><linearGradient id="linear-gradient-90" x1="-34.37" y1="-512.8" x2="-34.26" y2="-511.43" xlink:href="#linear-gradient-81"/><radialGradient id="radial-gradient-46" cx="-37.49" cy="-500.18" r="2.94" xlink:href="#radial-gradient-41"/><linearGradient id="linear-gradient-91" x1="-41.23" y1="-510.11" x2="-39.92" y2="-509.95" xlink:href="#linear-gradient-81"/><linearGradient id="linear-gradient-92" x1="-38.58" y1="-512.8" x2="-38.47" y2="-511.43" xlink:href="#linear-gradient-81"/><radialGradient id="radial-gradient-47" cx="-41.68" cy="-500.18" r="2.94" xlink:href="#radial-gradient-41"/><linearGradient id="linear-gradient-93" x1="-45.44" y1="-510.11" x2="-44.13" y2="-509.95" xlink:href="#linear-gradient-81"/><linearGradient id="linear-gradient-94" x1="-42.79" y1="-512.8" x2="-42.68" y2="-511.43" xlink:href="#linear-gradient-81"/><radialGradient id="radial-gradient-48" cx="-45.86" cy="-500.18" r="2.94" xlink:href="#radial-gradient-41"/><linearGradient id="linear-gradient-95" x1="-49.65" y1="-510.11" x2="-48.34" y2="-509.95" xlink:href="#linear-gradient-81"/><linearGradient id="linear-gradient-96" x1="-47" y1="-512.8" x2="-46.89" y2="-511.43" xlink:href="#linear-gradient-81"/><radialGradient id="radial-gradient-49" cx="-50.04" cy="-500.18" r="2.94" xlink:href="#radial-gradient-41"/><linearGradient id="linear-gradient-97" x1="-53.85" y1="-510.11" x2="-52.55" y2="-509.95" xlink:href="#linear-gradient-81"/><linearGradient id="linear-gradient-98" x1="-51.21" y1="-512.8" x2="-51.1" y2="-511.43" xlink:href="#linear-gradient-81"/><radialGradient id="radial-gradient-50" cx="-54.23" cy="-500.18" r="2.94" xlink:href="#radial-gradient-41"/><linearGradient id="linear-gradient-99" x1="-58.06" y1="-510.11" x2="-56.76" y2="-509.95" xlink:href="#linear-gradient-81"/><linearGradient id="linear-gradient-100" x1="-55.41" y1="-512.8" x2="-55.31" y2="-511.43" xlink:href="#linear-gradient-81"/><radialGradient id="radial-gradient-51" cx="-16.57" cy="-493.48" r="2.94" gradientTransform="translate(-494.03 65.79) rotate(90) scale(1.01 1.03)" gradientUnits="userSpaceOnUse"><stop offset="0" stop-color="#f175b1"/><stop offset="1" stop-color="#c366bd"/></radialGradient><linearGradient id="linear-gradient-101" x1="-20.18" y1="-503.21" x2="-18.88" y2="-503.05" gradientTransform="translate(-488.72 66.03) rotate(90)" gradientUnits="userSpaceOnUse"><stop offset="0" stop-color="#c366bd"/><stop offset="0.36" stop-color="#da6eb7"/><stop offset="0.72" stop-color="#eb73b3"/><stop offset="1" stop-color="#f175b1"/></linearGradient><linearGradient id="linear-gradient-102" x1="-17.53" y1="-505.9" x2="-17.43" y2="-504.53" xlink:href="#linear-gradient-101"/><radialGradient id="radial-gradient-52" cx="-20.75" cy="-493.48" r="2.94" xlink:href="#radial-gradient-51"/><linearGradient id="linear-gradient-103" x1="-24.39" y1="-503.21" x2="-23.09" y2="-503.05" xlink:href="#linear-gradient-101"/><linearGradient id="linear-gradient-104" x1="-21.74" y1="-505.9" x2="-21.64" y2="-504.53" xlink:href="#linear-gradient-101"/><radialGradient id="radial-gradient-53" cx="-24.94" cy="-493.48" r="2.94" xlink:href="#radial-gradient-51"/><linearGradient id="linear-gradient-105" x1="-28.6" y1="-503.21" x2="-27.3" y2="-503.05" xlink:href="#linear-gradient-101"/><linearGradient id="linear-gradient-106" x1="-25.95" y1="-505.9" x2="-25.84" y2="-504.53" xlink:href="#linear-gradient-101"/><radialGradient id="radial-gradient-54" cx="-29.12" cy="-493.48" r="2.94" xlink:href="#radial-gradient-51"/><linearGradient id="linear-gradient-107" x1="-32.81" y1="-503.21" x2="-31.51" y2="-503.05" xlink:href="#linear-gradient-101"/><linearGradient id="linear-gradient-108" x1="-30.16" y1="-505.9" x2="-30.05" y2="-504.53" xlink:href="#linear-gradient-101"/><radialGradient id="radial-gradient-55" cx="-33.31" cy="-493.48" r="2.94" xlink:href="#radial-gradient-51"/><linearGradient id="linear-gradient-109" x1="-37.02" y1="-503.21" x2="-35.71" y2="-503.05" xlink:href="#linear-gradient-101"/><linearGradient id="linear-gradient-110" x1="-34.37" y1="-505.9" x2="-34.26" y2="-504.53" xlink:href="#linear-gradient-101"/><linearGradient id="linear-gradient-111" x1="-41.23" y1="-503.21" x2="-39.92" y2="-503.05" xlink:href="#linear-gradient-101"/><radialGradient id="radial-gradient-56" cx="-37.49" cy="-493.48" r="2.94" xlink:href="#radial-gradient-51"/><linearGradient id="linear-gradient-112" x1="-38.58" y1="-505.9" x2="-38.47" y2="-504.53" xlink:href="#linear-gradient-101"/><linearGradient id="linear-gradient-113" x1="-45.44" y1="-503.21" x2="-44.13" y2="-503.05" xlink:href="#linear-gradient-101"/><radialGradient id="radial-gradient-57" cx="-41.68" cy="-493.48" r="2.94" xlink:href="#radial-gradient-51"/><linearGradient id="linear-gradient-114" x1="-42.79" y1="-505.9" x2="-42.68" y2="-504.53" xlink:href="#linear-gradient-101"/><linearGradient id="linear-gradient-115" x1="-49.65" y1="-503.21" x2="-48.34" y2="-503.05" xlink:href="#linear-gradient-101"/><radialGradient id="radial-gradient-58" cx="-45.86" cy="-493.48" r="2.94" xlink:href="#radial-gradient-51"/><linearGradient id="linear-gradient-116" x1="-47" y1="-505.9" x2="-46.89" y2="-504.53" xlink:href="#linear-gradient-101"/><linearGradient id="linear-gradient-117" x1="-53.85" y1="-503.21" x2="-52.55" y2="-503.05" xlink:href="#linear-gradient-101"/><radialGradient id="radial-gradient-59" cx="-50.04" cy="-493.48" r="2.94" xlink:href="#radial-gradient-51"/><linearGradient id="linear-gradient-118" x1="-51.21" y1="-505.9" x2="-51.1" y2="-504.53" xlink:href="#linear-gradient-101"/><radialGradient id="radial-gradient-60" cx="-54.23" cy="-493.48" r="2.94" xlink:href="#radial-gradient-51"/><linearGradient id="linear-gradient-119" x1="-58.06" y1="-503.21" x2="-56.76" y2="-503.05" xlink:href="#linear-gradient-101"/><linearGradient id="linear-gradient-120" x1="-55.41" y1="-505.9" x2="-55.31" y2="-504.53" xlink:href="#linear-gradient-101"/><radialGradient id="radial-gradient-61" cx="-230.92" cy="-240.64" r="0.61" gradientTransform="translate(-193.26 270.08) rotate(90.91)" gradientUnits="userSpaceOnUse"><stop offset="0" stop-color="#ff6b4a"/><stop offset="0.39" stop-color="#f88e51"/><stop offset="0.78" stop-color="#f3ab57"/><stop offset="1" stop-color="#f1b659"/></radialGradient><radialGradient id="radial-gradient-62" cx="-226.98" cy="-240.4" r="0.57" gradientTransform="translate(-193.29 269.98) rotate(90.93)" xlink:href="#radial-gradient-61"/><linearGradient id="linear-gradient-121" x1="-227.26" y1="-206.15" x2="-221.08" y2="-206.15" gradientTransform="translate(-189.64 273.91) rotate(90)" gradientUnits="userSpaceOnUse"><stop offset="0" stop-color="#ff7500"/><stop offset="1" stop-color="#d62700"/></linearGradient><linearGradient id="linear-gradient-122" x1="-227.26" y1="-214.83" x2="-220.46" y2="-214.83" xlink:href="#linear-gradient-121"/><linearGradient id="linear-gradient-123" x1="-227.26" y1="-223.26" x2="-221.22" y2="-223.26" xlink:href="#linear-gradient-121"/><linearGradient id="linear-gradient-124" x1="-227.84" y1="-231.45" x2="-223.39" y2="-231.45" xlink:href="#linear-gradient-121"/><linearGradient id="linear-gradient-125" x1="1462.4" y1="-206.15" x2="1468.58" y2="-206.15" gradientTransform="matrix(0, -1, -1, 0, -189.64, 1505.62)" xlink:href="#linear-gradient-121"/><linearGradient id="linear-gradient-126" x1="1462.4" y1="-214.83" x2="1469.2" y2="-214.83" gradientTransform="matrix(0, -1, -1, 0, -189.64, 1505.62)" xlink:href="#linear-gradient-121"/><linearGradient id="linear-gradient-127" x1="1462.4" y1="-223.26" x2="1468.43" y2="-223.26" gradientTransform="matrix(0, -1, -1, 0, -189.64, 1505.62)" xlink:href="#linear-gradient-121"/><linearGradient id="linear-gradient-128" x1="1461.82" y1="-231.45" x2="1466.27" y2="-231.45" gradientTransform="matrix(0, -1, -1, 0, -189.64, 1505.62)" xlink:href="#linear-gradient-121"/><radialGradient id="radial-gradient-63" cx="-28.94" cy="-17.65" r="15.24" gradientTransform="translate(10.36 73.91) rotate(90)" gradientUnits="userSpaceOnUse"><stop offset="0" stop-color="#fff"/><stop offset="0.06" stop-color="#fff" stop-opacity="0.92"/><stop offset="0.33" stop-color="#fff" stop-opacity="0.6"/><stop offset="0.57" stop-color="#fff" stop-opacity="0.34"/><stop offset="0.76" stop-color="#fff" stop-opacity="0.16"/><stop offset="0.91" stop-color="#fff" stop-opacity="0.04"/><stop offset="1" stop-color="#fff" stop-opacity="0"/></radialGradient></defs><title>left bugs-icon</title><g class="cls-1"><g id="Layer_1" data-name="Layer 1"><circle class="cls-2" cx="31.33" cy="31.33" r="31.33"/><path class="cls-3" d="M31.33,61.65A30.33,30.33,0,1,1,61.65,31.33,30.36,30.36,0,0,1,31.33,61.65Z"/><g class="cls-4"><polygon class="cls-5" points="25.57 47.1 26.94 45.65 26.94 45.95 26.78 45.95 25.57 47.1"/></g><rect class="cls-6" x="25.57" y="47.1" width="4.15" height="4.05"/><polygon class="cls-7" points="26.7 45.95 25.57 47.1 29.71 47.1 30.85 45.95 26.7 45.95"/><polygon class="cls-8" points="30.85 45.95 29.71 47.1 29.71 51.15 30.85 50 30.85 45.95"/><g class="cls-4"><polygon class="cls-9" points="25.57 42.89 26.94 41.44 26.94 41.74 26.78 41.74 25.57 42.89"/></g><rect class="cls-10" x="25.57" y="42.89" width="4.15" height="4.05"/><polygon class="cls-11" points="26.7 41.74 25.57 42.89 29.71 42.89 30.85 41.74 26.7 41.74"/><polygon class="cls-12" points="30.85 41.74 29.71 42.89 29.71 46.94 30.85 45.79 30.85 41.74"/><rect class="cls-13" x="25.57" y="38.68" width="4.15" height="4.05"/><polygon class="cls-14" points="26.7 37.53 25.57 38.68 29.71 38.68 30.85 37.53 26.7 37.53"/><polygon class="cls-15" points="30.85 37.53 29.71 38.68 29.71 42.73 30.85 41.59 30.85 37.53"/><g class="cls-4"><polygon class="cls-16" points="25.57 34.47 27.39 31.74 27.39 33.32 26.78 33.32 25.57 34.47"/><polygon class="cls-17" points="25.57 34.47 27.38 31.77 27.38 33.32 26.78 33.32 25.57 34.47"/><polygon class="cls-18" points="25.57 34.47 27.38 31.79 27.38 33.32 26.78 33.32 25.57 34.47"/><polygon class="cls-19" points="25.57 34.47 27.37 31.82 27.37 33.32 26.78 33.32 25.57 34.47"/><polygon class="cls-20" points="25.57 34.47 27.36 31.84 27.36 33.32 26.78 33.32 25.57 34.47"/><polygon class="cls-21" points="25.57 34.47 27.35 31.87 27.35 33.32 26.78 33.32 25.57 34.47"/><polygon class="cls-22" points="25.57 34.47 27.34 31.89 27.34 33.32 26.78 33.32 25.57 34.47"/><polygon class="cls-23" points="25.57 34.47 27.33 31.92 27.33 33.32 26.78 33.32 25.57 34.47"/><polygon class="cls-24" points="25.57 34.47 27.32 31.94 27.32 33.32 26.78 33.32 25.57 34.47"/><polygon class="cls-25" points="25.57 34.47 27.31 31.97 27.31 33.32 26.78 33.32 25.57 34.47"/><polygon class="cls-26" points="25.57 34.47 27.3 31.99 27.3 33.32 26.78 33.32 25.57 34.47"/><polygon class="cls-27" points="25.57 34.47 27.3 32.02 27.3 33.32 26.78 33.32 25.57 34.47"/><polygon class="cls-28" points="25.57 34.47 27.29 32.04 27.29 33.32 26.78 33.32 25.57 34.47"/><polygon class="cls-29" points="25.57 34.47 27.28 32.07 27.28 33.32 26.78 33.32 25.57 34.47"/><polygon class="cls-30" points="25.57 34.47 27.27 32.09 27.27 33.32 26.78 33.32 25.57 34.47"/><polygon class="cls-31" points="25.57 34.47 27.26 32.12 27.26 33.32 26.78 33.32 25.57 34.47"/><polygon class="cls-32" points="25.57 34.47 27.25 32.14 27.25 33.32 26.78 33.32 25.57 34.47"/><polygon class="cls-33" points="25.57 34.47 27.24 32.17 27.24 33.32 26.78 33.32 25.57 34.47"/><polygon class="cls-34" points="25.57 34.47 27.23 32.19 27.23 33.32 26.78 33.32 25.57 34.47"/><polygon class="cls-35" points="25.57 34.47 27.22 32.22 27.22 33.32 26.78 33.32 25.57 34.47"/><polygon class="cls-36" points="25.57 34.47 27.21 32.24 27.21 33.32 26.78 33.32 25.57 34.47"/><polygon class="cls-37" points="25.57 34.47 27.21 32.27 27.21 33.32 26.78 33.32 25.57 34.47"/><polygon class="cls-38" points="25.57 34.47 27.2 32.29 27.2 33.32 26.78 33.32 25.57 34.47"/><polygon class="cls-39" points="25.57 34.47 27.19 32.32 27.19 33.32 26.78 33.32 25.57 34.47"/><polygon class="cls-40" points="25.57 34.47 27.18 32.34 27.18 33.32 26.78 33.32 25.57 34.47"/><polygon class="cls-41" points="25.57 34.47 27.17 32.37 27.17 33.32 26.78 33.32 25.57 34.47"/><polygon class="cls-42" points="25.57 34.47 27.16 32.4 27.16 33.32 26.78 33.32 25.57 34.47"/><polygon class="cls-43" points="25.57 34.47 27.15 32.42 27.15 33.32 26.78 33.32 25.57 34.47"/><polygon class="cls-44" points="25.57 34.47 27.14 32.45 27.14 33.32 26.78 33.32 25.57 34.47"/><polygon class="cls-45" points="25.57 34.47 27.14 32.47 27.14 33.32 26.78 33.32 25.57 34.47"/><polygon class="cls-46" points="25.57 34.47 27.13 32.5 27.13 33.32 26.78 33.32 25.57 34.47"/><polygon class="cls-47" points="25.57 34.47 27.12 32.52 27.12 33.32 26.78 33.32 25.57 34.47"/><polygon class="cls-48" points="25.57 34.47 27.11 32.55 27.11 33.32 26.78 33.32 25.57 34.47"/><polygon class="cls-49" points="25.57 34.47 27.1 32.57 27.1 33.32 26.78 33.32 25.57 34.47"/><polygon class="cls-50" points="25.57 34.47 27.09 32.6 27.09 33.32 26.78 33.32 25.57 34.47"/><polygon class="cls-51" points="25.57 34.47 27.08 32.62 27.08 33.32 26.78 33.32 25.57 34.47"/><polygon class="cls-52" points="25.57 34.47 27.07 32.65 27.07 33.32 26.78 33.32 25.57 34.47"/><polygon class="cls-53" points="25.57 34.47 27.06 32.67 27.06 33.32 26.78 33.32 25.57 34.47"/><polygon class="cls-54" points="25.57 34.47 27.05 32.7 27.05 33.32 26.78 33.32 25.57 34.47"/><polygon class="cls-55" points="25.57 34.47 27.05 32.72 27.05 33.32 26.78 33.32 25.57 34.47"/><polygon class="cls-56" points="25.57 34.47 27.04 32.75 27.04 33.32 26.78 33.32 25.57 34.47"/><polygon class="cls-57" points="25.57 34.47 27.03 32.77 27.03 33.32 26.78 33.32 25.57 34.47"/><polygon class="cls-58" points="25.57 34.47 27.02 32.8 27.02 33.32 26.78 33.32 25.57 34.47"/><polygon class="cls-59" points="25.57 34.47 27.01 32.82 27.01 33.32 26.78 33.32 25.57 34.47"/><polygon class="cls-60" points="25.57 34.47 27 32.85 27 33.32 26.78 33.32 25.57 34.47"/><polygon class="cls-61" points="25.57 34.47 26.99 32.87 26.99 33.32 26.78 33.32 25.57 34.47"/><polygon class="cls-62" points="25.57 34.47 26.98 32.9 26.98 33.32 26.78 33.32 25.57 34.47"/><polygon class="cls-63" points="25.57 34.47 26.97 32.92 26.97 33.32 26.78 33.32 25.57 34.47"/><polygon class="cls-64" points="25.57 34.47 26.96 32.95 26.96 33.32 26.78 33.32 25.57 34.47"/><polygon class="cls-65" points="25.57 34.47 26.96 32.97 26.96 33.32 26.78 33.32 25.57 34.47"/><polygon class="cls-66" points="25.57 34.47 26.95 33 26.95 33.32 26.78 33.32 25.57 34.47"/><polygon class="cls-67" points="25.57 34.47 26.94 33.02 26.94 33.32 26.78 33.32 25.57 34.47"/></g><rect class="cls-68" x="25.57" y="34.47" width="4.15" height="4.05"/><polygon class="cls-69" points="26.7 33.32 25.57 34.47 29.71 34.47 30.85 33.32 26.7 33.32"/><polygon class="cls-70" points="30.85 33.32 29.71 34.47 29.71 38.52 30.85 37.38 30.85 33.32"/><g class="cls-4"><polygon class="cls-71" points="25.57 30.26 26.94 28.82 26.94 29.11 26.78 29.11 25.57 30.26"/></g><rect class="cls-72" x="25.57" y="30.26" width="4.15" height="4.05"/><polygon class="cls-73" points="26.7 29.11 25.57 30.26 29.71 30.26 30.85 29.11 26.7 29.11"/><polygon class="cls-74" points="30.85 29.11 29.71 30.26 29.71 34.31 30.85 33.17 30.85 29.11"/><g class="cls-4"><polygon class="cls-9" points="25.57 26.05 26.94 24.61 26.94 24.9 26.78 24.9 25.57 26.05"/></g><rect class="cls-75" x="25.57" y="26.05" width="4.15" height="4.05"/><polygon class="cls-76" points="26.7 24.9 25.57 26.05 29.71 26.05 30.85 24.9 26.7 24.9"/><polygon class="cls-77" points="30.85 24.9 29.71 26.05 29.71 30.11 30.85 28.96 30.85 24.9"/><g class="cls-4"><polygon class="cls-78" points="25.57 21.84 26.94 20.4 26.94 20.7 26.78 20.7 25.57 21.84"/></g><rect class="cls-79" x="25.57" y="21.84" width="4.15" height="4.05"/><polygon class="cls-80" points="26.7 20.7 25.57 21.84 29.71 21.84 30.85 20.7 26.7 20.7"/><polygon class="cls-81" points="30.85 20.7 29.71 21.84 29.71 25.9 30.85 24.75 30.85 20.7"/><g class="cls-4"><polygon class="cls-5" points="25.57 17.63 26.94 16.19 26.94 16.49 26.78 16.49 25.57 17.63"/></g><rect class="cls-82" x="25.57" y="17.63" width="4.15" height="4.05"/><polygon class="cls-83" points="26.7 16.49 25.57 17.63 29.71 17.63 30.85 16.49 26.7 16.49"/><polygon class="cls-84" points="30.85 16.49 29.71 17.63 29.71 21.69 30.85 20.54 30.85 16.49"/><rect class="cls-85" x="25.57" y="13.42" width="4.15" height="4.05"/><polygon class="cls-86" points="26.7 12.28 25.57 13.43 29.71 13.43 30.85 12.28 26.7 12.28"/><polygon class="cls-87" points="30.85 12.28 29.71 13.43 29.71 17.48 30.85 16.33 30.85 12.28"/><g class="cls-4"><polygon class="cls-78" points="25.57 13.43 26.94 11.98 26.94 12.28 26.78 12.28 25.57 13.43"/></g><rect class="cls-88" x="25.57" y="9.22" width="4.15" height="4.05"/><polygon class="cls-89" points="26.7 8.07 25.57 9.22 29.71 9.22 30.85 8.07 26.7 8.07"/><polygon class="cls-90" points="30.85 8.07 29.71 9.22 29.71 13.27 30.85 12.12 30.85 8.07"/><g class="cls-4"><polygon class="cls-5" points="46.26 47.1 47.63 45.65 47.63 45.95 47.47 45.95 46.26 47.1"/></g><rect class="cls-91" x="46.26" y="47.1" width="4.15" height="4.05"/><polygon class="cls-92" points="47.4 45.95 46.26 47.1 50.41 47.1 51.55 45.95 47.4 45.95"/><polygon class="cls-93" points="51.55 45.95 50.41 47.1 50.41 51.15 51.55 50 51.55 45.95"/><rect class="cls-94" x="46.26" y="42.89" width="4.15" height="4.05"/><polygon class="cls-95" points="47.4 41.74 46.26 42.89 50.41 42.89 51.55 41.74 47.4 41.74"/><polygon class="cls-96" points="51.55 41.74 50.41 42.89 50.41 46.94 51.55 45.79 51.55 41.74"/><g class="cls-4"><polygon class="cls-9" points="46.26 42.89 47.63 41.44 47.63 41.74 47.47 41.74 46.26 42.89"/></g><rect class="cls-97" x="46.26" y="38.68" width="4.15" height="4.05"/><polygon class="cls-98" points="47.4 37.53 46.26 38.68 50.41 38.68 51.55 37.53 47.4 37.53"/><polygon class="cls-99" points="51.55 37.53 50.41 38.68 50.41 42.73 51.55 41.59 51.55 37.53"/><rect class="cls-100" x="46.26" y="34.47" width="4.15" height="4.05"/><polygon class="cls-101" points="47.4 33.32 46.26 34.47 50.41 34.47 51.55 33.32 47.4 33.32"/><polygon class="cls-102" points="51.55 33.32 50.41 34.47 50.41 38.52 51.55 37.38 51.55 33.32"/><g class="cls-4"><polygon class="cls-16" points="46.26 34.47 48.09 31.74 48.09 33.32 47.47 33.32 46.26 34.47"/><polygon class="cls-17" points="46.26 34.47 48.08 31.77 48.08 33.32 47.47 33.32 46.26 34.47"/><polygon class="cls-18" points="46.26 34.47 48.07 31.79 48.07 33.32 47.47 33.32 46.26 34.47"/><polygon class="cls-19" points="46.26 34.47 48.06 31.82 48.06 33.32 47.47 33.32 46.26 34.47"/><polygon class="cls-20" points="46.26 34.47 48.05 31.84 48.05 33.32 47.47 33.32 46.26 34.47"/><polygon class="cls-21" points="46.26 34.47 48.05 31.87 48.05 33.32 47.47 33.32 46.26 34.47"/><polygon class="cls-22" points="46.26 34.47 48.04 31.89 48.04 33.32 47.47 33.32 46.26 34.47"/><polygon class="cls-23" points="46.26 34.47 48.03 31.92 48.03 33.32 47.47 33.32 46.26 34.47"/><polygon class="cls-24" points="46.26 34.47 48.02 31.94 48.02 33.32 47.47 33.32 46.26 34.47"/><polygon class="cls-25" points="46.26 34.47 48.01 31.97 48.01 33.32 47.47 33.32 46.26 34.47"/><polygon class="cls-26" points="46.26 34.47 48 31.99 48 33.32 47.47 33.32 46.26 34.47"/><polygon class="cls-27" points="46.26 34.47 47.99 32.02 47.99 33.32 47.47 33.32 46.26 34.47"/><polygon class="cls-28" points="46.26 34.47 47.98 32.04 47.98 33.32 47.47 33.32 46.26 34.47"/><polygon class="cls-29" points="46.26 34.47 47.97 32.07 47.97 33.32 47.47 33.32 46.26 34.47"/><polygon class="cls-30" points="46.26 34.47 47.96 32.09 47.96 33.32 47.47 33.32 46.26 34.47"/><polygon class="cls-31" points="46.26 34.47 47.95 32.12 47.95 33.32 47.47 33.32 46.26 34.47"/><polygon class="cls-32" points="46.26 34.47 47.95 32.14 47.95 33.32 47.47 33.32 46.26 34.47"/><polygon class="cls-33" points="46.26 34.47 47.94 32.17 47.94 33.32 47.47 33.32 46.26 34.47"/><polygon class="cls-34" points="46.26 34.47 47.93 32.19 47.93 33.32 47.47 33.32 46.26 34.47"/><polygon class="cls-35" points="46.26 34.47 47.92 32.22 47.92 33.32 47.47 33.32 46.26 34.47"/><polygon class="cls-36" points="46.26 34.47 47.91 32.24 47.91 33.32 47.47 33.32 46.26 34.47"/><polygon class="cls-37" points="46.26 34.47 47.9 32.27 47.9 33.32 47.47 33.32 46.26 34.47"/><polygon class="cls-38" points="46.26 34.47 47.89 32.29 47.89 33.32 47.47 33.32 46.26 34.47"/><polygon class="cls-39" points="46.26 34.47 47.88 32.32 47.88 33.32 47.47 33.32 46.26 34.47"/><polygon class="cls-40" points="46.26 34.47 47.88 32.34 47.88 33.32 47.47 33.32 46.26 34.47"/><polygon class="cls-41" points="46.26 34.47 47.87 32.37 47.87 33.32 47.47 33.32 46.26 34.47"/><polygon class="cls-42" points="46.26 34.47 47.86 32.4 47.86 33.32 47.47 33.32 46.26 34.47"/><polygon class="cls-43" points="46.26 34.47 47.85 32.42 47.85 33.32 47.47 33.32 46.26 34.47"/><polygon class="cls-44" points="46.26 34.47 47.84 32.45 47.84 33.32 47.47 33.32 46.26 34.47"/><polygon class="cls-45" points="46.26 34.47 47.83 32.47 47.83 33.32 47.47 33.32 46.26 34.47"/><polygon class="cls-46" points="46.26 34.47 47.82 32.5 47.82 33.32 47.47 33.32 46.26 34.47"/><polygon class="cls-47" points="46.26 34.47 47.81 32.52 47.81 33.32 47.47 33.32 46.26 34.47"/><polygon class="cls-48" points="46.26 34.47 47.8 32.55 47.8 33.32 47.47 33.32 46.26 34.47"/><polygon class="cls-49" points="46.26 34.47 47.8 32.57 47.8 33.32 47.47 33.32 46.26 34.47"/><polygon class="cls-50" points="46.26 34.47 47.79 32.6 47.79 33.32 47.47 33.32 46.26 34.47"/><polygon class="cls-51" points="46.26 34.47 47.78 32.62 47.78 33.32 47.47 33.32 46.26 34.47"/><polygon class="cls-52" points="46.26 34.47 47.77 32.65 47.77 33.32 47.47 33.32 46.26 34.47"/><polygon class="cls-53" points="46.26 34.47 47.76 32.67 47.76 33.32 47.47 33.32 46.26 34.47"/><polygon class="cls-54" points="46.26 34.47 47.75 32.7 47.75 33.32 47.47 33.32 46.26 34.47"/><polygon class="cls-55" points="46.26 34.47 47.74 32.72 47.74 33.32 47.47 33.32 46.26 34.47"/><polygon class="cls-56" points="46.26 34.47 47.73 32.75 47.73 33.32 47.47 33.32 46.26 34.47"/><polygon class="cls-57" points="46.26 34.47 47.72 32.77 47.72 33.32 47.47 33.32 46.26 34.47"/><polygon class="cls-58" points="46.26 34.47 47.72 32.8 47.72 33.32 47.47 33.32 46.26 34.47"/><polygon class="cls-59" points="46.26 34.47 47.71 32.82 47.71 33.32 47.47 33.32 46.26 34.47"/><polygon class="cls-60" points="46.26 34.47 47.7 32.85 47.7 33.32 47.47 33.32 46.26 34.47"/><polygon class="cls-61" points="46.26 34.47 47.69 32.87 47.69 33.32 47.47 33.32 46.26 34.47"/><polygon class="cls-62" points="46.26 34.47 47.68 32.9 47.68 33.32 47.47 33.32 46.26 34.47"/><polygon class="cls-63" points="46.26 34.47 47.67 32.92 47.67 33.32 47.47 33.32 46.26 34.47"/><polygon class="cls-64" points="46.26 34.47 47.66 32.95 47.66 33.32 47.47 33.32 46.26 34.47"/><polygon class="cls-65" points="46.26 34.47 47.65 32.97 47.65 33.32 47.47 33.32 46.26 34.47"/><polygon class="cls-66" points="46.26 34.47 47.64 33 47.64 33.32 47.47 33.32 46.26 34.47"/><polygon class="cls-67" points="46.26 34.47 47.63 33.02 47.63 33.32 47.47 33.32 46.26 34.47"/></g><g class="cls-4"><polygon class="cls-71" points="46.26 30.26 47.63 28.82 47.63 29.11 47.47 29.11 46.26 30.26"/></g><rect class="cls-103" x="46.26" y="30.26" width="4.15" height="4.05"/><polygon class="cls-104" points="47.4 29.11 46.26 30.26 50.41 30.26 51.55 29.11 47.4 29.11"/><polygon class="cls-105" points="51.55 29.11 50.41 30.26 50.41 34.31 51.55 33.17 51.55 29.11"/><g class="cls-4"><polygon class="cls-9" points="46.26 26.05 47.63 24.61 47.63 24.9 47.47 24.9 46.26 26.05"/></g><rect class="cls-106" x="46.26" y="26.05" width="4.15" height="4.05"/><polygon class="cls-107" points="47.4 24.9 46.26 26.05 50.41 26.05 51.55 24.9 47.4 24.9"/><polygon class="cls-108" points="51.55 24.9 50.41 26.05 50.41 30.11 51.55 28.96 51.55 24.9"/><rect class="cls-109" x="46.26" y="21.84" width="4.15" height="4.05"/><polygon class="cls-110" points="47.4 20.7 46.26 21.84 50.41 21.84 51.55 20.7 47.4 20.7"/><polygon class="cls-111" points="51.55 20.7 50.41 21.84 50.41 25.9 51.55 24.75 51.55 20.7"/><g class="cls-4"><polygon class="cls-78" points="46.26 21.84 47.63 20.4 47.63 20.7 47.47 20.7 46.26 21.84"/></g><rect class="cls-112" x="46.26" y="17.63" width="4.15" height="4.05"/><polygon class="cls-113" points="47.4 16.49 46.26 17.63 50.41 17.63 51.55 16.49 47.4 16.49"/><polygon class="cls-114" points="51.55 16.49 50.41 17.63 50.41 21.69 51.55 20.54 51.55 16.49"/><g class="cls-4"><polygon class="cls-5" points="46.26 17.63 47.63 16.19 47.63 16.49 47.47 16.49 46.26 17.63"/></g><rect class="cls-115" x="46.26" y="13.42" width="4.15" height="4.05"/><polygon class="cls-116" points="47.4 12.28 46.26 13.43 50.41 13.43 51.55 12.28 47.4 12.28"/><polygon class="cls-117" points="51.55 12.28 50.41 13.43 50.41 17.48 51.55 16.33 51.55 12.28"/><g class="cls-4"><polygon class="cls-78" points="46.26 13.43 47.63 11.98 47.63 12.28 47.47 12.28 46.26 13.43"/></g><rect class="cls-118" x="46.26" y="9.22" width="4.15" height="4.05"/><polygon class="cls-119" points="47.4 8.07 46.26 9.22 50.41 9.22 51.55 8.07 47.4 8.07"/><polygon class="cls-120" points="51.55 8.07 50.41 9.22 50.41 13.27 51.55 12.12 51.55 8.07"/><g class="cls-4"><polygon class="cls-5" points="39.36 47.1 40.74 45.65 40.74 45.95 40.57 45.95 39.36 47.1"/></g><rect class="cls-121" x="39.36" y="47.1" width="4.15" height="4.05"/><polygon class="cls-122" points="40.5 45.95 39.36 47.1 43.51 47.1 44.65 45.95 40.5 45.95"/><polygon class="cls-123" points="44.65 45.95 43.51 47.1 43.51 51.15 44.65 50 44.65 45.95"/><rect class="cls-124" x="39.36" y="42.89" width="4.15" height="4.05"/><polygon class="cls-125" points="40.5 41.74 39.36 42.89 43.51 42.89 44.65 41.74 40.5 41.74"/><polygon class="cls-126" points="44.65 41.74 43.51 42.89 43.51 46.94 44.65 45.79 44.65 41.74"/><g class="cls-4"><polygon class="cls-9" points="39.36 42.89 40.74 41.44 40.74 41.74 40.57 41.74 39.36 42.89"/></g><rect class="cls-127" x="39.36" y="38.68" width="4.15" height="4.05"/><polygon class="cls-128" points="40.5 37.53 39.36 38.68 43.51 38.68 44.65 37.53 40.5 37.53"/><polygon class="cls-129" points="44.65 37.53 43.51 38.68 43.51 42.73 44.65 41.59 44.65 37.53"/><g class="cls-4"><polygon class="cls-16" points="39.36 34.47 41.19 31.74 41.19 33.32 40.57 33.32 39.36 34.47"/><polygon class="cls-17" points="39.36 34.47 41.18 31.77 41.18 33.32 40.57 33.32 39.36 34.47"/><polygon class="cls-18" points="39.36 34.47 41.17 31.79 41.17 33.32 40.57 33.32 39.36 34.47"/><polygon class="cls-19" points="39.36 34.47 41.16 31.82 41.16 33.32 40.57 33.32 39.36 34.47"/><polygon class="cls-20" points="39.36 34.47 41.16 31.84 41.16 33.32 40.57 33.32 39.36 34.47"/><polygon class="cls-21" points="39.36 34.47 41.15 31.87 41.15 33.32 40.57 33.32 39.36 34.47"/><polygon class="cls-22" points="39.36 34.47 41.14 31.89 41.14 33.32 40.57 33.32 39.36 34.47"/><polygon class="cls-23" points="39.36 34.47 41.13 31.92 41.13 33.32 40.57 33.32 39.36 34.47"/><polygon class="cls-24" points="39.36 34.47 41.12 31.94 41.12 33.32 40.57 33.32 39.36 34.47"/><polygon class="cls-25" points="39.36 34.47 41.11 31.97 41.11 33.32 40.57 33.32 39.36 34.47"/><polygon class="cls-26" points="39.36 34.47 41.1 31.99 41.1 33.32 40.57 33.32 39.36 34.47"/><polygon class="cls-27" points="39.36 34.47 41.09 32.02 41.09 33.32 40.57 33.32 39.36 34.47"/><polygon class="cls-28" points="39.36 34.47 41.08 32.04 41.08 33.32 40.57 33.32 39.36 34.47"/><polygon class="cls-29" points="39.36 34.47 41.08 32.07 41.08 33.32 40.57 33.32 39.36 34.47"/><polygon class="cls-30" points="39.36 34.47 41.07 32.09 41.07 33.32 40.57 33.32 39.36 34.47"/><polygon class="cls-31" points="39.36 34.47 41.06 32.12 41.06 33.32 40.57 33.32 39.36 34.47"/><polygon class="cls-32" points="39.36 34.47 41.05 32.14 41.05 33.32 40.57 33.32 39.36 34.47"/><polygon class="cls-33" points="39.36 34.47 41.04 32.17 41.04 33.32 40.57 33.32 39.36 34.47"/><polygon class="cls-34" points="39.36 34.47 41.03 32.19 41.03 33.32 40.57 33.32 39.36 34.47"/><polygon class="cls-35" points="39.36 34.47 41.02 32.22 41.02 33.32 40.57 33.32 39.36 34.47"/><polygon class="cls-36" points="39.36 34.47 41.01 32.24 41.01 33.32 40.57 33.32 39.36 34.47"/><polygon class="cls-37" points="39.36 34.47 41 32.27 41 33.32 40.57 33.32 39.36 34.47"/><polygon class="cls-38" points="39.36 34.47 40.99 32.29 40.99 33.32 40.57 33.32 39.36 34.47"/><polygon class="cls-39" points="39.36 34.47 40.98 32.32 40.98 33.32 40.57 33.32 39.36 34.47"/><polygon class="cls-40" points="39.36 34.47 40.98 32.34 40.98 33.32 40.57 33.32 39.36 34.47"/><polygon class="cls-41" points="39.36 34.47 40.97 32.37 40.97 33.32 40.57 33.32 39.36 34.47"/><polygon class="cls-42" points="39.36 34.47 40.96 32.4 40.96 33.32 40.57 33.32 39.36 34.47"/><polygon class="cls-43" points="39.36 34.47 40.95 32.42 40.95 33.32 40.57 33.32 39.36 34.47"/><polygon class="cls-44" points="39.36 34.47 40.94 32.45 40.94 33.32 40.57 33.32 39.36 34.47"/><polygon class="cls-45" points="39.36 34.47 40.93 32.47 40.93 33.32 40.57 33.32 39.36 34.47"/><polygon class="cls-46" points="39.36 34.47 40.92 32.5 40.92 33.32 40.57 33.32 39.36 34.47"/><polygon class="cls-47" points="39.36 34.47 40.91 32.52 40.91 33.32 40.57 33.32 39.36 34.47"/><polygon class="cls-48" points="39.36 34.47 40.91 32.55 40.91 33.32 40.57 33.32 39.36 34.47"/><polygon class="cls-49" points="39.36 34.47 40.9 32.57 40.9 33.32 40.57 33.32 39.36 34.47"/><polygon class="cls-50" points="39.36 34.47 40.89 32.6 40.89 33.32 40.57 33.32 39.36 34.47"/><polygon class="cls-51" points="39.36 34.47 40.88 32.62 40.88 33.32 40.57 33.32 39.36 34.47"/><polygon class="cls-52" points="39.36 34.47 40.87 32.65 40.87 33.32 40.57 33.32 39.36 34.47"/><polygon class="cls-53" points="39.36 34.47 40.86 32.67 40.86 33.32 40.57 33.32 39.36 34.47"/><polygon class="cls-54" points="39.36 34.47 40.85 32.7 40.85 33.32 40.57 33.32 39.36 34.47"/><polygon class="cls-55" points="39.36 34.47 40.84 32.72 40.84 33.32 40.57 33.32 39.36 34.47"/><polygon class="cls-56" points="39.36 34.47 40.83 32.75 40.83 33.32 40.57 33.32 39.36 34.47"/><polygon class="cls-57" points="39.36 34.47 40.83 32.77 40.83 33.32 40.57 33.32 39.36 34.47"/><polygon class="cls-58" points="39.36 34.47 40.82 32.8 40.82 33.32 40.57 33.32 39.36 34.47"/><polygon class="cls-59" points="39.36 34.47 40.81 32.82 40.81 33.32 40.57 33.32 39.36 34.47"/><polygon class="cls-60" points="39.36 34.47 40.8 32.85 40.8 33.32 40.57 33.32 39.36 34.47"/><polygon class="cls-61" points="39.36 34.47 40.79 32.87 40.79 33.32 40.57 33.32 39.36 34.47"/><polygon class="cls-62" points="39.36 34.47 40.78 32.9 40.78 33.32 40.57 33.32 39.36 34.47"/><polygon class="cls-63" points="39.36 34.47 40.77 32.92 40.77 33.32 40.57 33.32 39.36 34.47"/><polygon class="cls-64" points="39.36 34.47 40.76 32.95 40.76 33.32 40.57 33.32 39.36 34.47"/><polygon class="cls-65" points="39.36 34.47 40.75 32.97 40.75 33.32 40.57 33.32 39.36 34.47"/><polygon class="cls-66" points="39.36 34.47 40.74 33 40.74 33.32 40.57 33.32 39.36 34.47"/><polygon class="cls-67" points="39.36 34.47 40.74 33.02 40.74 33.32 40.57 33.32 39.36 34.47"/></g><rect class="cls-130" x="39.36" y="34.47" width="4.15" height="4.05"/><polygon class="cls-131" points="40.5 33.32 39.36 34.47 43.51 34.47 44.65 33.32 40.5 33.32"/><polygon class="cls-132" points="44.65 33.32 43.51 34.47 43.51 38.52 44.65 37.38 44.65 33.32"/><g class="cls-4"><polygon class="cls-71" points="39.36 30.26 40.74 28.82 40.74 29.11 40.57 29.11 39.36 30.26"/></g><rect class="cls-133" x="39.36" y="30.26" width="4.15" height="4.05"/><polygon class="cls-134" points="40.5 29.11 39.36 30.26 43.51 30.26 44.65 29.11 40.5 29.11"/><polygon class="cls-135" points="44.65 29.11 43.51 30.26 43.51 34.31 44.65 33.17 44.65 29.11"/><g class="cls-4"><polygon class="cls-9" points="39.36 26.05 40.74 24.61 40.74 24.9 40.57 24.9 39.36 26.05"/></g><rect class="cls-136" x="39.36" y="26.05" width="4.15" height="4.05"/><polygon class="cls-137" points="40.5 24.9 39.36 26.05 43.51 26.05 44.65 24.9 40.5 24.9"/><polygon class="cls-138" points="44.65 24.9 43.51 26.05 43.51 30.11 44.65 28.96 44.65 24.9"/><rect class="cls-139" x="39.36" y="21.84" width="4.15" height="4.05"/><polygon class="cls-140" points="40.5 20.7 39.36 21.84 43.51 21.84 44.65 20.7 40.5 20.7"/><polygon class="cls-141" points="44.65 20.7 43.51 21.84 43.51 25.9 44.65 24.75 44.65 20.7"/><g class="cls-4"><polygon class="cls-78" points="39.36 21.84 40.74 20.4 40.74 20.7 40.57 20.7 39.36 21.84"/></g><g class="cls-4"><polygon class="cls-5" points="39.36 17.63 40.74 16.19 40.74 16.49 40.57 16.49 39.36 17.63"/></g><rect class="cls-142" x="39.36" y="17.63" width="4.15" height="4.05"/><polygon class="cls-143" points="40.5 16.49 39.36 17.63 43.51 17.63 44.65 16.49 40.5 16.49"/><polygon class="cls-144" points="44.65 16.49 43.51 17.63 43.51 21.69 44.65 20.54 44.65 16.49"/><rect class="cls-145" x="39.36" y="13.42" width="4.15" height="4.05"/><polygon class="cls-146" points="40.5 12.28 39.36 13.43 43.51 13.43 44.65 12.28 40.5 12.28"/><polygon class="cls-147" points="44.65 12.28 43.51 13.43 43.51 17.48 44.65 16.33 44.65 12.28"/><g class="cls-4"><polygon class="cls-78" points="39.36 13.43 40.74 11.98 40.74 12.28 40.57 12.28 39.36 13.43"/></g><rect class="cls-148" x="39.36" y="9.22" width="4.15" height="4.05"/><polygon class="cls-149" points="40.5 8.07 39.36 9.22 43.51 9.22 44.65 8.07 40.5 8.07"/><polygon class="cls-150" points="44.65 8.07 43.51 9.22 43.51 13.27 44.65 12.12 44.65 8.07"/><g class="cls-4"><polygon class="cls-5" points="32.46 47.1 33.84 45.65 33.84 45.95 33.67 45.95 32.46 47.1"/></g><rect class="cls-151" x="32.46" y="47.1" width="4.15" height="4.05"/><polygon class="cls-152" points="33.6 45.95 32.46 47.1 36.61 47.1 37.75 45.95 33.6 45.95"/><polygon class="cls-153" points="37.75 45.95 36.61 47.1 36.61 51.15 37.75 50 37.75 45.95"/><g class="cls-4"><polygon class="cls-9" points="32.46 42.89 33.84 41.44 33.84 41.74 33.67 41.74 32.46 42.89"/></g><rect class="cls-154" x="32.46" y="42.89" width="4.15" height="4.05"/><polygon class="cls-155" points="33.6 41.74 32.46 42.89 36.61 42.89 37.75 41.74 33.6 41.74"/><polygon class="cls-156" points="37.75 41.74 36.61 42.89 36.61 46.94 37.75 45.79 37.75 41.74"/><rect class="cls-157" x="32.46" y="38.68" width="4.15" height="4.05"/><polygon class="cls-158" points="33.6 37.53 32.46 38.68 36.61 38.68 37.75 37.53 33.6 37.53"/><polygon class="cls-159" points="37.75 37.53 36.61 38.68 36.61 42.73 37.75 41.59 37.75 37.53"/><rect class="cls-160" x="32.46" y="34.47" width="4.15" height="4.05"/><polygon class="cls-161" points="33.6 33.32 32.46 34.47 36.61 34.47 37.75 33.32 33.6 33.32"/><polygon class="cls-162" points="37.75 33.32 36.61 34.47 36.61 38.52 37.75 37.38 37.75 33.32"/><g class="cls-4"><polygon class="cls-16" points="32.46 34.47 34.29 31.74 34.29 33.32 33.67 33.32 32.46 34.47"/><polygon class="cls-17" points="32.46 34.47 34.28 31.77 34.28 33.32 33.67 33.32 32.46 34.47"/><polygon class="cls-18" points="32.46 34.47 34.27 31.79 34.27 33.32 33.67 33.32 32.46 34.47"/><polygon class="cls-19" points="32.46 34.47 34.27 31.82 34.27 33.32 33.67 33.32 32.46 34.47"/><polygon class="cls-20" points="32.46 34.47 34.26 31.84 34.26 33.32 33.67 33.32 32.46 34.47"/><polygon class="cls-21" points="32.46 34.47 34.25 31.87 34.25 33.32 33.67 33.32 32.46 34.47"/><polygon class="cls-22" points="32.46 34.47 34.24 31.89 34.24 33.32 33.67 33.32 32.46 34.47"/><polygon class="cls-23" points="32.46 34.47 34.23 31.92 34.23 33.32 33.67 33.32 32.46 34.47"/><polygon class="cls-24" points="32.46 34.47 34.22 31.94 34.22 33.32 33.67 33.32 32.46 34.47"/><polygon class="cls-25" points="32.46 34.47 34.21 31.97 34.21 33.32 33.67 33.32 32.46 34.47"/><polygon class="cls-26" points="32.46 34.47 34.2 31.99 34.2 33.32 33.67 33.32 32.46 34.47"/><polygon class="cls-27" points="32.46 34.47 34.19 32.02 34.19 33.32 33.67 33.32 32.46 34.47"/><polygon class="cls-28" points="32.46 34.47 34.19 32.04 34.19 33.32 33.67 33.32 32.46 34.47"/><polygon class="cls-29" points="32.46 34.47 34.18 32.07 34.18 33.32 33.67 33.32 32.46 34.47"/><polygon class="cls-30" points="32.46 34.47 34.17 32.09 34.17 33.32 33.67 33.32 32.46 34.47"/><polygon class="cls-31" points="32.46 34.47 34.16 32.12 34.16 33.32 33.67 33.32 32.46 34.47"/><polygon class="cls-32" points="32.46 34.47 34.15 32.14 34.15 33.32 33.67 33.32 32.46 34.47"/><polygon class="cls-33" points="32.46 34.47 34.14 32.17 34.14 33.32 33.67 33.32 32.46 34.47"/><polygon class="cls-34" points="32.46 34.47 34.13 32.19 34.13 33.32 33.67 33.32 32.46 34.47"/><polygon class="cls-35" points="32.46 34.47 34.12 32.22 34.12 33.32 33.67 33.32 32.46 34.47"/><polygon class="cls-36" points="32.46 34.47 34.11 32.24 34.11 33.32 33.67 33.32 32.46 34.47"/><polygon class="cls-37" points="32.46 34.47 34.1 32.27 34.1 33.32 33.67 33.32 32.46 34.47"/><polygon class="cls-38" points="32.46 34.47 34.1 32.29 34.1 33.32 33.67 33.32 32.46 34.47"/><polygon class="cls-39" points="32.46 34.47 34.09 32.32 34.09 33.32 33.67 33.32 32.46 34.47"/><polygon class="cls-40" points="32.46 34.47 34.08 32.34 34.08 33.32 33.67 33.32 32.46 34.47"/><polygon class="cls-41" points="32.46 34.47 34.07 32.37 34.07 33.32 33.67 33.32 32.46 34.47"/><polygon class="cls-42" points="32.46 34.47 34.06 32.4 34.06 33.32 33.67 33.32 32.46 34.47"/><polygon class="cls-43" points="32.46 34.47 34.05 32.42 34.05 33.32 33.67 33.32 32.46 34.47"/><polygon class="cls-44" points="32.46 34.47 34.04 32.45 34.04 33.32 33.67 33.32 32.46 34.47"/><polygon class="cls-45" points="32.46 34.47 34.03 32.47 34.03 33.32 33.67 33.32 32.46 34.47"/><polygon class="cls-46" points="32.46 34.47 34.02 32.5 34.02 33.32 33.67 33.32 32.46 34.47"/><polygon class="cls-47" points="32.46 34.47 34.02 32.52 34.02 33.32 33.67 33.32 32.46 34.47"/><polygon class="cls-48" points="32.46 34.47 34.01 32.55 34.01 33.32 33.67 33.32 32.46 34.47"/><polygon class="cls-49" points="32.46 34.47 34 32.57 34 33.32 33.67 33.32 32.46 34.47"/><polygon class="cls-50" points="32.46 34.47 33.99 32.6 33.99 33.32 33.67 33.32 32.46 34.47"/><polygon class="cls-51" points="32.46 34.47 33.98 32.62 33.98 33.32 33.67 33.32 32.46 34.47"/><polygon class="cls-52" points="32.46 34.47 33.97 32.65 33.97 33.32 33.67 33.32 32.46 34.47"/><polygon class="cls-53" points="32.46 34.47 33.96 32.67 33.96 33.32 33.67 33.32 32.46 34.47"/><polygon class="cls-54" points="32.46 34.47 33.95 32.7 33.95 33.32 33.67 33.32 32.46 34.47"/><polygon class="cls-55" points="32.46 34.47 33.94 32.72 33.94 33.32 33.67 33.32 32.46 34.47"/><polygon class="cls-56" points="32.46 34.47 33.94 32.75 33.94 33.32 33.67 33.32 32.46 34.47"/><polygon class="cls-57" points="32.46 34.47 33.93 32.77 33.93 33.32 33.67 33.32 32.46 34.47"/><polygon class="cls-58" points="32.46 34.47 33.92 32.8 33.92 33.32 33.67 33.32 32.46 34.47"/><polygon class="cls-59" points="32.46 34.47 33.91 32.82 33.91 33.32 33.67 33.32 32.46 34.47"/><polygon class="cls-60" points="32.46 34.47 33.9 32.85 33.9 33.32 33.67 33.32 32.46 34.47"/><polygon class="cls-61" points="32.46 34.47 33.89 32.87 33.89 33.32 33.67 33.32 32.46 34.47"/><polygon class="cls-62" points="32.46 34.47 33.88 32.9 33.88 33.32 33.67 33.32 32.46 34.47"/><polygon class="cls-63" points="32.46 34.47 33.87 32.92 33.87 33.32 33.67 33.32 32.46 34.47"/><polygon class="cls-64" points="32.46 34.47 33.86 32.95 33.86 33.32 33.67 33.32 32.46 34.47"/><polygon class="cls-65" points="32.46 34.47 33.85 32.97 33.85 33.32 33.67 33.32 32.46 34.47"/><polygon class="cls-66" points="32.46 34.47 33.85 33 33.85 33.32 33.67 33.32 32.46 34.47"/><polygon class="cls-67" points="32.46 34.47 33.84 33.02 33.84 33.32 33.67 33.32 32.46 34.47"/></g><g class="cls-4"><polygon class="cls-71" points="32.46 30.26 33.84 28.82 33.84 29.11 33.67 29.11 32.46 30.26"/></g><rect class="cls-163" x="32.46" y="30.26" width="4.15" height="4.05"/><polygon class="cls-164" points="33.6 29.11 32.46 30.26 36.61 30.26 37.75 29.11 33.6 29.11"/><polygon class="cls-165" points="37.75 29.11 36.61 30.26 36.61 34.31 37.75 33.17 37.75 29.11"/><g class="cls-4"><polygon class="cls-9" points="32.46 26.05 33.84 24.61 33.84 24.9 33.67 24.9 32.46 26.05"/></g><rect class="cls-166" x="32.46" y="26.05" width="4.15" height="4.05"/><polygon class="cls-167" points="33.6 24.9 32.46 26.05 36.61 26.05 37.75 24.9 33.6 24.9"/><polygon class="cls-168" points="37.75 24.9 36.61 26.05 36.61 30.11 37.75 28.96 37.75 24.9"/><g class="cls-4"><polygon class="cls-78" points="32.46 21.84 33.84 20.4 33.84 20.7 33.67 20.7 32.46 21.84"/></g><rect class="cls-169" x="32.46" y="21.84" width="4.15" height="4.05"/><polygon class="cls-170" points="33.6 20.7 32.46 21.84 36.61 21.84 37.75 20.7 33.6 20.7"/><polygon class="cls-171" points="37.75 20.7 36.61 21.84 36.61 25.9 37.75 24.75 37.75 20.7"/><rect class="cls-172" x="32.46" y="17.63" width="4.15" height="4.05"/><polygon class="cls-173" points="33.6 16.49 32.46 17.63 36.61 17.63 37.75 16.49 33.6 16.49"/><polygon class="cls-174" points="37.75 16.49 36.61 17.63 36.61 21.69 37.75 20.54 37.75 16.49"/><g class="cls-4"><polygon class="cls-5" points="32.46 17.63 33.84 16.19 33.84 16.49 33.67 16.49 32.46 17.63"/></g><rect class="cls-175" x="32.46" y="13.42" width="4.15" height="4.05"/><polygon class="cls-176" points="33.6 12.28 32.46 13.43 36.61 13.43 37.75 12.28 33.6 12.28"/><polygon class="cls-177" points="37.75 12.28 36.61 13.43 36.61 17.48 37.75 16.33 37.75 12.28"/><g class="cls-4"><polygon class="cls-78" points="32.46 13.43 33.84 11.98 33.84 12.28 33.67 12.28 32.46 13.43"/></g><rect class="cls-178" x="32.46" y="9.22" width="4.15" height="4.05"/><polygon class="cls-179" points="33.6 8.07 32.46 9.22 36.61 9.22 37.75 8.07 33.6 8.07"/><polygon class="cls-180" points="37.75 8.07 36.61 9.22 36.61 13.27 37.75 12.12 37.75 8.07"/><g class="cls-4"><polygon class="cls-5" points="18.67 47.1 20.04 45.65 20.04 45.95 19.88 45.95 18.67 47.1"/></g><rect class="cls-181" x="18.67" y="47.1" width="4.15" height="4.05"/><polygon class="cls-182" points="19.8 45.95 18.67 47.1 22.82 47.1 23.95 45.95 19.8 45.95"/><polygon class="cls-183" points="23.95 45.95 22.82 47.1 22.82 51.15 23.95 50 23.95 45.95"/><g class="cls-4"><polygon class="cls-9" points="18.67 42.89 20.04 41.44 20.04 41.74 19.88 41.74 18.67 42.89"/></g><rect class="cls-184" x="18.67" y="42.89" width="4.15" height="4.05"/><polygon class="cls-185" points="19.8 41.74 18.67 42.89 22.82 42.89 23.95 41.74 19.8 41.74"/><polygon class="cls-186" points="23.95 41.74 22.82 42.89 22.82 46.94 23.95 45.79 23.95 41.74"/><rect class="cls-187" x="18.67" y="38.68" width="4.15" height="4.05"/><polygon class="cls-188" points="19.8 37.53 18.67 38.68 22.82 38.68 23.95 37.53 19.8 37.53"/><polygon class="cls-189" points="23.95 37.53 22.82 38.68 22.82 42.73 23.95 41.59 23.95 37.53"/><rect class="cls-190" x="18.67" y="34.47" width="4.15" height="4.05"/><polygon class="cls-191" points="19.8 33.32 18.67 34.47 22.82 34.47 23.95 33.32 19.8 33.32"/><polygon class="cls-192" points="23.95 33.32 22.82 34.47 22.82 38.52 23.95 37.38 23.95 33.32"/><g class="cls-4"><polygon class="cls-16" points="18.67 34.47 20.49 31.74 20.49 33.32 19.88 33.32 18.67 34.47"/><polygon class="cls-17" points="18.67 34.47 20.48 31.77 20.48 33.32 19.88 33.32 18.67 34.47"/><polygon class="cls-18" points="18.67 34.47 20.48 31.79 20.48 33.32 19.88 33.32 18.67 34.47"/><polygon class="cls-19" points="18.67 34.47 20.47 31.82 20.47 33.32 19.88 33.32 18.67 34.47"/><polygon class="cls-20" points="18.67 34.47 20.46 31.84 20.46 33.32 19.88 33.32 18.67 34.47"/><polygon class="cls-21" points="18.67 34.47 20.45 31.87 20.45 33.32 19.88 33.32 18.67 34.47"/><polygon class="cls-22" points="18.67 34.47 20.44 31.89 20.44 33.32 19.88 33.32 18.67 34.47"/><polygon class="cls-23" points="18.67 34.47 20.43 31.92 20.43 33.32 19.88 33.32 18.67 34.47"/><polygon class="cls-24" points="18.67 34.47 20.42 31.94 20.42 33.32 19.88 33.32 18.67 34.47"/><polygon class="cls-25" points="18.67 34.47 20.41 31.97 20.41 33.32 19.88 33.32 18.67 34.47"/><polygon class="cls-26" points="18.67 34.47 20.41 31.99 20.41 33.32 19.88 33.32 18.67 34.47"/><polygon class="cls-27" points="18.67 34.47 20.4 32.02 20.4 33.32 19.88 33.32 18.67 34.47"/><polygon class="cls-28" points="18.67 34.47 20.39 32.04 20.39 33.32 19.88 33.32 18.67 34.47"/><polygon class="cls-29" points="18.67 34.47 20.38 32.07 20.38 33.32 19.88 33.32 18.67 34.47"/><polygon class="cls-30" points="18.67 34.47 20.37 32.09 20.37 33.32 19.88 33.32 18.67 34.47"/><polygon class="cls-31" points="18.67 34.47 20.36 32.12 20.36 33.32 19.88 33.32 18.67 34.47"/><polygon class="cls-32" points="18.67 34.47 20.35 32.14 20.35 33.32 19.88 33.32 18.67 34.47"/><polygon class="cls-33" points="18.67 34.47 20.34 32.17 20.34 33.32 19.88 33.32 18.67 34.47"/><polygon class="cls-34" points="18.67 34.47 20.33 32.19 20.33 33.32 19.88 33.32 18.67 34.47"/><polygon class="cls-35" points="18.67 34.47 20.32 32.22 20.32 33.32 19.88 33.32 18.67 34.47"/><polygon class="cls-36" points="18.67 34.47 20.32 32.24 20.32 33.32 19.88 33.32 18.67 34.47"/><polygon class="cls-37" points="18.67 34.47 20.31 32.27 20.31 33.32 19.88 33.32 18.67 34.47"/><polygon class="cls-38" points="18.67 34.47 20.3 32.29 20.3 33.32 19.88 33.32 18.67 34.47"/><polygon class="cls-39" points="18.67 34.47 20.29 32.32 20.29 33.32 19.88 33.32 18.67 34.47"/><polygon class="cls-40" points="18.67 34.47 20.28 32.34 20.28 33.32 19.88 33.32 18.67 34.47"/><polygon class="cls-41" points="18.67 34.47 20.27 32.37 20.27 33.32 19.88 33.32 18.67 34.47"/><polygon class="cls-42" points="18.67 34.47 20.26 32.4 20.26 33.32 19.88 33.32 18.67 34.47"/><polygon class="cls-43" points="18.67 34.47 20.25 32.42 20.25 33.32 19.88 33.32 18.67 34.47"/><polygon class="cls-44" points="18.67 34.47 20.25 32.45 20.25 33.32 19.88 33.32 18.67 34.47"/><polygon class="cls-45" points="18.67 34.47 20.24 32.47 20.24 33.32 19.88 33.32 18.67 34.47"/><polygon class="cls-46" points="18.67 34.47 20.23 32.5 20.23 33.32 19.88 33.32 18.67 34.47"/><polygon class="cls-47" points="18.67 34.47 20.22 32.52 20.22 33.32 19.88 33.32 18.67 34.47"/><polygon class="cls-48" points="18.67 34.47 20.21 32.55 20.21 33.32 19.88 33.32 18.67 34.47"/><polygon class="cls-49" points="18.67 34.47 20.2 32.57 20.2 33.32 19.88 33.32 18.67 34.47"/><polygon class="cls-50" points="18.67 34.47 20.19 32.6 20.19 33.32 19.88 33.32 18.67 34.47"/><polygon class="cls-51" points="18.67 34.47 20.18 32.62 20.18 33.32 19.88 33.32 18.67 34.47"/><polygon class="cls-52" points="18.67 34.47 20.17 32.65 20.17 33.32 19.88 33.32 18.67 34.47"/><polygon class="cls-53" points="18.67 34.47 20.16 32.67 20.16 33.32 19.88 33.32 18.67 34.47"/><polygon class="cls-54" points="18.67 34.47 20.16 32.7 20.16 33.32 19.88 33.32 18.67 34.47"/><polygon class="cls-55" points="18.67 34.47 20.15 32.72 20.15 33.32 19.88 33.32 18.67 34.47"/><polygon class="cls-56" points="18.67 34.47 20.14 32.75 20.14 33.32 19.88 33.32 18.67 34.47"/><polygon class="cls-57" points="18.67 34.47 20.13 32.77 20.13 33.32 19.88 33.32 18.67 34.47"/><polygon class="cls-58" points="18.67 34.47 20.12 32.8 20.12 33.32 19.88 33.32 18.67 34.47"/><polygon class="cls-59" points="18.67 34.47 20.11 32.82 20.11 33.32 19.88 33.32 18.67 34.47"/><polygon class="cls-60" points="18.67 34.47 20.1 32.85 20.1 33.32 19.88 33.32 18.67 34.47"/><polygon class="cls-61" points="18.67 34.47 20.09 32.87 20.09 33.32 19.88 33.32 18.67 34.47"/><polygon class="cls-62" points="18.67 34.47 20.08 32.9 20.08 33.32 19.88 33.32 18.67 34.47"/><polygon class="cls-63" points="18.67 34.47 20.07 32.92 20.07 33.32 19.88 33.32 18.67 34.47"/><polygon class="cls-64" points="18.67 34.47 20.07 32.95 20.07 33.32 19.88 33.32 18.67 34.47"/><polygon class="cls-65" points="18.67 34.47 20.06 32.97 20.06 33.32 19.88 33.32 18.67 34.47"/><polygon class="cls-66" points="18.67 34.47 20.05 33 20.05 33.32 19.88 33.32 18.67 34.47"/><polygon class="cls-67" points="18.67 34.47 20.04 33.02 20.04 33.32 19.88 33.32 18.67 34.47"/></g><g class="cls-4"><polygon class="cls-71" points="18.67 30.26 20.04 28.82 20.04 29.11 19.88 29.11 18.67 30.26"/></g><rect class="cls-193" x="18.67" y="30.26" width="4.15" height="4.05"/><polygon class="cls-194" points="19.8 29.11 18.67 30.26 22.82 30.26 23.95 29.11 19.8 29.11"/><polygon class="cls-195" points="23.95 29.11 22.82 30.26 22.82 34.31 23.95 33.17 23.95 29.11"/><g class="cls-4"><polygon class="cls-9" points="18.67 26.05 20.04 24.61 20.04 24.9 19.88 24.9 18.67 26.05"/></g><rect class="cls-196" x="18.67" y="26.05" width="4.15" height="4.05"/><polygon class="cls-197" points="19.8 24.9 18.67 26.05 22.82 26.05 23.95 24.9 19.8 24.9"/><polygon class="cls-198" points="23.95 24.9 22.82 26.05 22.82 30.11 23.95 28.96 23.95 24.9"/><g class="cls-4"><polygon class="cls-78" points="18.67 21.84 20.04 20.4 20.04 20.7 19.88 20.7 18.67 21.84"/></g><rect class="cls-199" x="18.67" y="21.84" width="4.15" height="4.05"/><polygon class="cls-200" points="19.8 20.7 18.67 21.84 22.82 21.84 23.95 20.7 19.8 20.7"/><polygon class="cls-201" points="23.95 20.7 22.82 21.84 22.82 25.9 23.95 24.75 23.95 20.7"/><rect class="cls-202" x="18.67" y="17.63" width="4.15" height="4.05"/><polygon class="cls-203" points="19.8 16.49 18.67 17.63 22.82 17.63 23.95 16.49 19.8 16.49"/><polygon class="cls-204" points="23.95 16.49 22.82 17.63 22.82 21.69 23.95 20.54 23.95 16.49"/><g class="cls-4"><polygon class="cls-5" points="18.67 17.63 20.04 16.19 20.04 16.49 19.88 16.49 18.67 17.63"/></g><g class="cls-4"><polygon class="cls-78" points="18.67 13.43 20.04 11.98 20.04 12.28 19.88 12.28 18.67 13.43"/></g><rect class="cls-205" x="18.67" y="13.42" width="4.15" height="4.05"/><polygon class="cls-206" points="19.8 12.28 18.67 13.43 22.82 13.43 23.95 12.28 19.8 12.28"/><polygon class="cls-207" points="23.95 12.28 22.82 13.43 22.82 17.48 23.95 16.33 23.95 12.28"/><rect class="cls-208" x="18.67" y="9.22" width="4.15" height="4.05"/><polygon class="cls-209" points="19.8 8.07 18.67 9.22 22.82 9.22 23.95 8.07 19.8 8.07"/><polygon class="cls-210" points="23.95 8.07 22.82 9.22 22.82 13.27 23.95 12.12 23.95 8.07"/><g class="cls-4"><polygon class="cls-5" points="11.77 47.1 13.14 45.65 13.14 45.95 12.98 45.95 11.77 47.1"/></g><rect class="cls-211" x="11.77" y="47.1" width="4.15" height="4.05"/><polygon class="cls-212" points="12.9 45.95 11.77 47.1 15.92 47.1 17.05 45.95 12.9 45.95"/><polygon class="cls-213" points="17.05 45.95 15.92 47.1 15.92 51.15 17.05 50 17.05 45.95"/><g class="cls-4"><polygon class="cls-9" points="11.77 42.89 13.14 41.44 13.14 41.74 12.98 41.74 11.77 42.89"/></g><rect class="cls-214" x="11.77" y="42.89" width="4.15" height="4.05"/><polygon class="cls-215" points="12.9 41.74 11.77 42.89 15.92 42.89 17.05 41.74 12.9 41.74"/><polygon class="cls-216" points="17.05 41.74 15.92 42.89 15.92 46.94 17.05 45.79 17.05 41.74"/><rect class="cls-217" x="11.77" y="38.68" width="4.15" height="4.05"/><polygon class="cls-218" points="12.9 37.53 11.77 38.68 15.92 38.68 17.05 37.53 12.9 37.53"/><polygon class="cls-219" points="17.05 37.53 15.92 38.68 15.92 42.73 17.05 41.59 17.05 37.53"/><rect class="cls-220" x="11.77" y="34.47" width="4.15" height="4.05"/><polygon class="cls-221" points="12.9 33.32 11.77 34.47 15.92 34.47 17.05 33.32 12.9 33.32"/><polygon class="cls-222" points="17.05 33.32 15.92 34.47 15.92 38.52 17.05 37.38 17.05 33.32"/><g class="cls-4"><polygon class="cls-16" points="11.77 34.47 13.6 31.74 13.6 33.32 12.98 33.32 11.77 34.47"/><polygon class="cls-17" points="11.77 34.47 13.59 31.77 13.59 33.32 12.98 33.32 11.77 34.47"/><polygon class="cls-18" points="11.77 34.47 13.58 31.79 13.58 33.32 12.98 33.32 11.77 34.47"/><polygon class="cls-19" points="11.77 34.47 13.57 31.82 13.57 33.32 12.98 33.32 11.77 34.47"/><polygon class="cls-20" points="11.77 34.47 13.56 31.84 13.56 33.32 12.98 33.32 11.77 34.47"/><polygon class="cls-21" points="11.77 34.47 13.55 31.87 13.55 33.32 12.98 33.32 11.77 34.47"/><polygon class="cls-22" points="11.77 34.47 13.54 31.89 13.54 33.32 12.98 33.32 11.77 34.47"/><polygon class="cls-23" points="11.77 34.47 13.53 31.92 13.53 33.32 12.98 33.32 11.77 34.47"/><polygon class="cls-24" points="11.77 34.47 13.52 31.94 13.52 33.32 12.98 33.32 11.77 34.47"/><polygon class="cls-25" points="11.77 34.47 13.52 31.97 13.52 33.32 12.98 33.32 11.77 34.47"/><polygon class="cls-26" points="11.77 34.47 13.51 31.99 13.51 33.32 12.98 33.32 11.77 34.47"/><polygon class="cls-27" points="11.77 34.47 13.5 32.02 13.5 33.32 12.98 33.32 11.77 34.47"/><polygon class="cls-28" points="11.77 34.47 13.49 32.04 13.49 33.32 12.98 33.32 11.77 34.47"/><polygon class="cls-29" points="11.77 34.47 13.48 32.07 13.48 33.32 12.98 33.32 11.77 34.47"/><polygon class="cls-30" points="11.77 34.47 13.47 32.09 13.47 33.32 12.98 33.32 11.77 34.47"/><polygon class="cls-31" points="11.77 34.47 13.46 32.12 13.46 33.32 12.98 33.32 11.77 34.47"/><polygon class="cls-32" points="11.77 34.47 13.45 32.14 13.45 33.32 12.98 33.32 11.77 34.47"/><polygon class="cls-33" points="11.77 34.47 13.44 32.17 13.44 33.32 12.98 33.32 11.77 34.47"/><polygon class="cls-34" points="11.77 34.47 13.44 32.19 13.44 33.32 12.98 33.32 11.77 34.47"/><polygon class="cls-35" points="11.77 34.47 13.43 32.22 13.43 33.32 12.98 33.32 11.77 34.47"/><polygon class="cls-36" points="11.77 34.47 13.42 32.24 13.42 33.32 12.98 33.32 11.77 34.47"/><polygon class="cls-37" points="11.77 34.47 13.41 32.27 13.41 33.32 12.98 33.32 11.77 34.47"/><polygon class="cls-38" points="11.77 34.47 13.4 32.29 13.4 33.32 12.98 33.32 11.77 34.47"/><polygon class="cls-39" points="11.77 34.47 13.39 32.32 13.39 33.32 12.98 33.32 11.77 34.47"/><polygon class="cls-40" points="11.77 34.47 13.38 32.34 13.38 33.32 12.98 33.32 11.77 34.47"/><polygon class="cls-41" points="11.77 34.47 13.37 32.37 13.37 33.32 12.98 33.32 11.77 34.47"/><polygon class="cls-42" points="11.77 34.47 13.36 32.4 13.36 33.32 12.98 33.32 11.77 34.47"/><polygon class="cls-43" points="11.77 34.47 13.36 32.42 13.36 33.32 12.98 33.32 11.77 34.47"/><polygon class="cls-44" points="11.77 34.47 13.35 32.45 13.35 33.32 12.98 33.32 11.77 34.47"/><polygon class="cls-45" points="11.77 34.47 13.34 32.47 13.34 33.32 12.98 33.32 11.77 34.47"/><polygon class="cls-46" points="11.77 34.47 13.33 32.5 13.33 33.32 12.98 33.32 11.77 34.47"/><polygon class="cls-47" points="11.77 34.47 13.32 32.52 13.32 33.32 12.98 33.32 11.77 34.47"/><polygon class="cls-48" points="11.77 34.47 13.31 32.55 13.31 33.32 12.98 33.32 11.77 34.47"/><polygon class="cls-49" points="11.77 34.47 13.3 32.57 13.3 33.32 12.98 33.32 11.77 34.47"/><polygon class="cls-50" points="11.77 34.47 13.29 32.6 13.29 33.32 12.98 33.32 11.77 34.47"/><polygon class="cls-51" points="11.77 34.47 13.28 32.62 13.28 33.32 12.98 33.32 11.77 34.47"/><polygon class="cls-52" points="11.77 34.47 13.28 32.65 13.28 33.32 12.98 33.32 11.77 34.47"/><polygon class="cls-53" points="11.77 34.47 13.27 32.67 13.27 33.32 12.98 33.32 11.77 34.47"/><polygon class="cls-54" points="11.77 34.47 13.26 32.7 13.26 33.32 12.98 33.32 11.77 34.47"/><polygon class="cls-55" points="11.77 34.47 13.25 32.72 13.25 33.32 12.98 33.32 11.77 34.47"/><polygon class="cls-56" points="11.77 34.47 13.24 32.75 13.24 33.32 12.98 33.32 11.77 34.47"/><polygon class="cls-57" points="11.77 34.47 13.23 32.77 13.23 33.32 12.98 33.32 11.77 34.47"/><polygon class="cls-58" points="11.77 34.47 13.22 32.8 13.22 33.32 12.98 33.32 11.77 34.47"/><polygon class="cls-59" points="11.77 34.47 13.21 32.82 13.21 33.32 12.98 33.32 11.77 34.47"/><polygon class="cls-60" points="11.77 34.47 13.2 32.85 13.2 33.32 12.98 33.32 11.77 34.47"/><polygon class="cls-61" points="11.77 34.47 13.2 32.87 13.2 33.32 12.98 33.32 11.77 34.47"/><polygon class="cls-62" points="11.77 34.47 13.19 32.9 13.19 33.32 12.98 33.32 11.77 34.47"/><polygon class="cls-63" points="11.77 34.47 13.18 32.92 13.18 33.32 12.98 33.32 11.77 34.47"/><polygon class="cls-64" points="11.77 34.47 13.17 32.95 13.17 33.32 12.98 33.32 11.77 34.47"/><polygon class="cls-65" points="11.77 34.47 13.16 32.97 13.16 33.32 12.98 33.32 11.77 34.47"/><polygon class="cls-66" points="11.77 34.47 13.15 33 13.15 33.32 12.98 33.32 11.77 34.47"/><polygon class="cls-67" points="11.77 34.47 13.14 33.02 13.14 33.32 12.98 33.32 11.77 34.47"/></g><rect class="cls-223" x="11.77" y="30.26" width="4.15" height="4.05"/><polygon class="cls-224" points="12.9 29.11 11.77 30.26 15.92 30.26 17.05 29.11 12.9 29.11"/><polygon class="cls-225" points="17.05 29.11 15.92 30.26 15.92 34.31 17.05 33.17 17.05 29.11"/><g class="cls-4"><polygon class="cls-71" points="11.77 30.26 13.14 28.82 13.14 29.11 12.98 29.11 11.77 30.26"/></g><polygon class="cls-226" points="12.9 24.9 11.77 26.05 15.92 26.05 17.05 24.9 12.9 24.9"/><rect class="cls-227" x="11.77" y="26.05" width="4.15" height="4.05"/><polygon class="cls-228" points="17.05 24.9 15.92 26.05 15.92 30.11 17.05 28.96 17.05 24.9"/><g class="cls-4"><polygon class="cls-9" points="11.77 26.05 13.14 24.61 13.14 24.9 12.98 24.9 11.77 26.05"/></g><polygon class="cls-229" points="12.9 20.7 11.77 21.84 15.92 21.84 17.05 20.7 12.9 20.7"/><rect class="cls-230" x="11.77" y="21.84" width="4.15" height="4.05"/><polygon class="cls-231" points="17.05 20.7 15.92 21.84 15.92 25.9 17.05 24.75 17.05 20.7"/><g class="cls-4"><polygon class="cls-78" points="11.77 21.84 13.14 20.4 13.14 20.7 12.98 20.7 11.77 21.84"/></g><polygon class="cls-232" points="12.9 16.49 11.77 17.63 15.92 17.63 17.05 16.49 12.9 16.49"/><rect class="cls-233" x="11.77" y="17.63" width="4.15" height="4.05"/><polygon class="cls-234" points="17.05 16.49 15.92 17.63 15.92 21.69 17.05 20.54 17.05 16.49"/><g class="cls-4"><polygon class="cls-5" points="11.77 17.63 13.14 16.19 13.14 16.49 12.98 16.49 11.77 17.63"/></g><g class="cls-4"><polygon class="cls-78" points="11.77 13.43 13.14 11.98 13.14 12.28 12.98 12.28 11.77 13.43"/></g><polygon class="cls-235" points="12.9 12.28 11.77 13.43 15.92 13.43 17.05 12.28 12.9 12.28"/><rect class="cls-236" x="11.77" y="13.42" width="4.15" height="4.05"/><polygon class="cls-237" points="17.05 12.28 15.92 13.43 15.92 17.48 17.05 16.33 17.05 12.28"/><rect class="cls-238" x="11.77" y="9.22" width="4.15" height="4.05"/><polygon class="cls-239" points="12.9 8.07 11.77 9.22 15.92 9.22 17.05 8.07 12.9 8.07"/><polygon class="cls-240" points="17.05 8.07 15.92 9.22 15.92 13.27 17.05 12.12 17.05 8.07"/><path d="M13.59,44.42a12.35,12.35,0,0,0,2.25.17l.29-1.18c0-.18.09-.36.15-.54a8.59,8.59,0,0,0-2.05-.14,2.1,2.1,0,0,0-.1-.52A1.13,1.13,0,0,0,14,42a1.48,1.48,0,0,0,.06-.78A.49.49,0,0,0,14,41a.5.5,0,0,0-.14-.58l.09-.19A.45.45,0,0,0,14,40a13.32,13.32,0,0,1,4.22-.47c.35,0,.43-.56.09-.61-3.36-.5-11,.76-11.31,5.42C6.6,49.54,13.81,51.83,18,51.39a.66.66,0,0,0,.55-.95,3.42,3.42,0,0,0-2-1.41,14.76,14.76,0,0,1-3.17-1.79,2.54,2.54,0,0,0-.1-.33,3.41,3.41,0,0,0,.87-.06.56.56,0,0,0,.25-.92,7.08,7.08,0,0,0-1.29-1,1.17,1.17,0,0,0,0-.13A3.3,3.3,0,0,0,13.59,44.42ZM16,50.17l-.48,0a.45.45,0,0,0-.11-.23l.26.13Z"/><path d="M54.58,39.2a3.61,3.61,0,0,0-2,1.54,8.68,8.68,0,0,1-1.17,1.44,2.17,2.17,0,0,0-.75-.85c-1.26-.82-3,0-4.1.78a1,1,0,0,0-.27,1.24,9.63,9.63,0,0,0,.09,1.86,1.28,1.28,0,0,0-.08.38l0,0-.81-.17a.31.31,0,0,0,.06-.5c-1.07-.8-3.33-.5-4.58-.59l-2.05-.1a19.55,19.55,0,0,0-6.24-.45.37.37,0,0,0-.15.06,31.57,31.57,0,0,0-5.32-.15c-1.3,0-2.6.06-3.89.17a20.26,20.26,0,0,0-9.89-.66c0,.27-.06.55-.1.81s-.06.56-.09.84a30.33,30.33,0,0,0,5.17.32.54.54,0,0,0,.53.47c4.35.09,8.69,0,13,.24,2.17.13,4.35.3,6.52.4a25.25,25.25,0,0,0,4.76.15,28.68,28.68,0,0,0,2.94,0h0v0a.83.83,0,0,0,.31,1.12,14.13,14.13,0,0,0,1.89.92,1.73,1.73,0,0,0,1.72-.14,3.05,3.05,0,0,0,1.13-1.15c.58.6,1,1.4,1.54,2A6.09,6.09,0,0,0,54.6,50.6c.85.37,1.57-.87.72-1.26a8.47,8.47,0,0,1-3.76-3,7.66,7.66,0,0,0,.24-1.78,6.55,6.55,0,0,0-.11-1.66c1.09-1,2.41-1.73,3.51-2.71C55.7,39.8,55.15,39.05,54.58,39.2Z"/><path d="M53.19,52.36a3.2,3.2,0,0,0-2.88-1.43c-.66,0-1.31.17-2,.21-1.66.1-1.85-1.34-2.62-2.44-.27-.38-1-.27-1,.27.14,1.5.6,3.31,2.38,3.24,1.57-.06,4.54-1.25,5.47.49C52.83,53.08,53.43,52.72,53.19,52.36Z"/><path d="M45.79,40.46a5.31,5.31,0,0,0,.34-1l.11-.44a1.7,1.7,0,0,0,.08-.2,11,11,0,0,0,2-.13,4.86,4.86,0,0,0,2.06-.94,22.38,22.38,0,0,1,2.18-2c.53-.31-.14-1.08-.5-.63a9,9,0,0,1-2.59,2,4.88,4.88,0,0,1-3.39.3c-1.33-.22-1.4,1.85-1.49,2.7C44.5,40.8,45.53,41,45.79,40.46Z"/><path d="M46.69,53.83c-.38.06-.73-.31-1.06-.41-.52-.15-1-.1-1.56-.23a20.67,20.67,0,0,0-2.79-.37A3.09,3.09,0,0,0,41,51.4c-.21-.48-1-.21-1,.27s-.16,1.13-.09,1.71a.65.65,0,0,0,.82.6c1-.16,1.9,0,2.87-.06s2.09-.25,2.75.58S47.74,53.65,46.69,53.83Z"/><path d="M38,38.23c.54-.51.47-1.05.55-1.65a18.26,18.26,0,0,0,3.33-.32A22.32,22.32,0,0,0,46,35.42c.5-.2.16-.94-.3-.67-1,.63-3.16.62-4.4.72-.7,0-1.47.35-2.14,0A1.94,1.94,0,0,0,38,35.24a.68.68,0,0,0-.64.5c-.18.65,0,1.35-.19,2A.49.49,0,0,0,38,38.23Z"/><path d="M26.73,37.57c.66-.74.54-2.45-.5-2.83s-2-.16-2.93-.45a9.24,9.24,0,0,1-3.69-2.41c-.53-.52-1.26.4-.62.83A26.8,26.8,0,0,0,23,35a9.54,9.54,0,0,0,1.74.56c1,.22,1.14.74,1.08,1.65A.53.53,0,0,0,26.73,37.57Z"/><path d="M21.56,58.32a5.63,5.63,0,0,1,1.23-.63,8.39,8.39,0,0,1,1.89-1c1.15-.23,2.25-.42,3.41-.56,1.63-.19,1-2.51.13-3.23a.34.34,0,0,0-.56.16c0,.24-.12,1.82.09,1.8a13.91,13.91,0,0,0-2.06.52,13,13,0,0,0-2.17.82,16.46,16.46,0,0,0-2.4,1.35C20.66,57.9,21.12,58.66,21.56,58.32Z"/><path d="M25,53.41A.59.59,0,0,0,24,53c-.55.79-1.22.5-2,.38-.66-.09-1.37,0-2,0a25.92,25.92,0,0,1-3-.14.47.47,0,0,0-.45.13l0,0a.42.42,0,0,0,0,.58l0,0a.46.46,0,0,0,.45.11,8.65,8.65,0,0,1,5.24.16C23.31,54.7,24.68,55,25,53.41Z"/><path d="M10.19,38.83a17.51,17.51,0,0,0,4.71-1.24A5.23,5.23,0,0,1,17,37c.54,0,.5,1,.92,1.42a.18.18,0,0,0,.25,0c.89-1,.22-2.85-1.19-2.67-2.1.26-3.94,3-6.29,2C10.2,36.87,8.79,39,10.19,38.83Z"/><path d="M47,41.12a.87.87,0,0,0-.44-.21,10.43,10.43,0,0,0-3.15-2.07c-3.3-1.57-7.34-1.89-10.92-2.21-4.33-.39-8.61.13-12.93.47a18.34,18.34,0,0,0-5.45,1.49c-.6.25-1.21.45-1.83.66-.89.63-2.85,1.45-3.59,3.5a2.61,2.61,0,0,1-.15.29,1.78,1.78,0,0,0,.06.8,6.25,6.25,0,0,0,1,0c.39.1.8.15,1.14.21,3.87.7,7.81.26,11.72.52A95.66,95.66,0,0,0,34.63,45c1.93-.11,3.88-.15,5.82-.18a29.85,29.85,0,0,1,3.88.37l-.82.19a18,18,0,0,1-4.23.23c-3-.07-6.08-.26-9.11-.35-5.89-.17-11.76-.06-17.64-.5-1.28-.09-2.55-.2-3.83-.28H8.65C6.83,46.5,11,49.78,12.77,51.16l.63.25A39.94,39.94,0,0,0,22,53.08a44.52,44.52,0,0,0,16.55-.94,44.06,44.06,0,0,0,6.92-2.38c1.19-.51,2.42-1.6,2-2.89a1.5,1.5,0,0,0,0-.28,1.52,1.52,0,0,0-1-1.35,1.13,1.13,0,0,0,.93-.71C48.22,43.75,47.75,41.8,47,41.12ZM9.61,46.61l-.45-.33.48,0A1.12,1.12,0,0,0,9.61,46.61Z"/><path d="M16.31,46.66a31.43,31.43,0,0,0,17.36,3.72c1.52-.09,3-.41,4.54-.5s3.32-.06,5-.27a4,4,0,0,0,3.61-3.89,1.18,1.18,0,0,0,.07-.25,1.15,1.15,0,0,0-.43-.23,1.14,1.14,0,0,0,.45-.15,1.16,1.16,0,0,0,0-.15,1.12,1.12,0,0,0,.28-.47c1-3.23-9.27-4.43-10.7-4.61a56.17,56.17,0,0,0-10.06-.51c-1.83.09-3.6.44-5.4.7a31,31,0,0,0-3.85,1c-.72.2-1.53.43-1.79,1.22a1.55,1.55,0,0,0,.44,1.65,1.26,1.26,0,0,0-.4.55c2.36.05,4.73,0,7.08.12A95.66,95.66,0,0,0,34.63,45c1.93-.11,3.88-.15,5.82-.18a29.85,29.85,0,0,1,3.88.37l-.82.19a18,18,0,0,1-4.23.23c-3-.07-6.08-.26-9.11-.35-5-.14-9.93-.09-14.89-.34A2,2,0,0,0,16.31,46.66Z"/><path d="M42.53,47.22A9,9,0,0,0,46.9,46,.65.65,0,0,0,47,45a.49.49,0,0,0-.11-.53c-2-1.69-5.76-1.55-8.24-1.73a90,90,0,0,0-10.44-.64c-3.38.15-6.81-.08-10.2,0-2.75,0-5.18,1.17-7.77,1.88h0c-.47-.59-1.3.26-.82.84s1.37.56,2,.65c1.22.17,2.41.47,3.62.61,3.58.41,7.17.92,10.76,1.21,3.77.31,7.51.27,11.29.33A50.2,50.2,0,0,0,42.53,47.22Zm-15.35-.91c-3.17-.23-6.29-.88-9.45-1.2a45.58,45.58,0,0,1-5.21-.67,8.33,8.33,0,0,0-.87-.09c.47-.18.93-.37,1.39-.53A17.13,17.13,0,0,1,17.41,43c3.35-.19,6.77.16,10.12.19a65.72,65.72,0,0,1,10.93,1.31c1.57.28,3.18.23,4.75.54.37.07.73.18,1.08.27-2.23.36-4.53.54-6.74.91A44.46,44.46,0,0,1,27.18,46.31Z"/><circle class="cls-241" cx="51" cy="42.99" r="0.61" transform="translate(-0.67 0.81) rotate(-0.91)"/><circle class="cls-242" cx="50.76" cy="46.93" r="0.57" transform="translate(-0.76 0.83) rotate(-0.93)"/><path class="cls-243" d="M46.87,45.47a1.2,1.2,0,0,0,0-.38,1.14,1.14,0,0,1-.45.15A1.15,1.15,0,0,1,46.87,45.47Z"/><path d="M35.2,45l.07,0-.64,0-.43,0a.29.29,0,0,0,.09.28l.17.13,1.58.07A9.71,9.71,0,0,0,35.2,45Z"/><path d="M24.73,45a.32.32,0,0,1-.07-.28l-.73,0-.1.18a.34.34,0,0,0,0,.24h1Z"/><path d="M20.92,44.84a.28.28,0,0,0,.27-.31l-.83,0h0a.4.4,0,0,0-.13.53l1.19,0A.55.55,0,0,0,20.92,44.84Z"/><path d="M14.5,44.61s0-.1,0-.15l-1.16-.06c0,.13-.07.25-.11.38l1.14.07Z"/><path class="cls-244" d="M18.66,50.33a4.18,4.18,0,0,0-1-2.13,3.44,3.44,0,0,0-1.17-1.39,2.61,2.61,0,0,0-2.14.24A2.45,2.45,0,0,0,13,48a2.52,2.52,0,0,0,0,1.68q.84.23,1.68.5a.74.74,0,0,1,.35.19,1.29,1.29,0,0,1,.17.46,1.56,1.56,0,0,0,1.26.84,3.12,3.12,0,0,1,1.49.5c.09.07.15.17.23.25a.6.6,0,0,0,.2.14l.11,0,.14,0c.06,0,.13,0,.19,0l.16,0c.13,0,.26,0,.39,0l.46.05.19,0c.05,0,.08,0,.08-.06a.93.93,0,0,1,0-.16,1,1,0,0,0,0-.17C20,51.49,18.65,51.49,18.66,50.33Z"/><path class="cls-245" d="M27.56,50.7a4.6,4.6,0,0,0-1.12-2.35,3.79,3.79,0,0,0-1.29-1.53,2.87,2.87,0,0,0-2.35.26,2.69,2.69,0,0,0-1.45,1.09,2.78,2.78,0,0,0,0,1.85q.93.25,1.84.55a.81.81,0,0,1,.38.2,1.42,1.42,0,0,1,.19.51,1.71,1.71,0,0,0,1.39.93,3.43,3.43,0,0,1,1.64.55c.09.08.17.19.26.27a.66.66,0,0,0,.22.15l.12,0,.16,0c.07,0,.14,0,.21,0l.17.05c.14,0,.29,0,.43,0l.51.06.21,0c.06,0,.09,0,.09-.07a1,1,0,0,1,0-.17,1.1,1.1,0,0,0,0-.19C29.08,52,27.54,52,27.56,50.7Z"/><path class="cls-246" d="M35.65,50.12a3.94,3.94,0,0,0-1-2,3.24,3.24,0,0,0-1.1-1.31,2.46,2.46,0,0,0-2,.22,2.3,2.3,0,0,0-1.24.94,2.38,2.38,0,0,0,0,1.58q.79.22,1.58.47a.69.69,0,0,1,.33.18,1.21,1.21,0,0,1,.16.43,1.47,1.47,0,0,0,1.19.79,2.94,2.94,0,0,1,1.4.47c.08.07.14.16.22.23a1.17,1.17,0,0,0,.22.15.59.59,0,0,1,.18.24.31.31,0,0,0,.22.18l.12,0c.14,0,1.08-.09,1.07-.26a.88.88,0,0,1,0-.15.94.94,0,0,0,0-.16C36.95,51.21,35.63,51.21,35.65,50.12Z"/><path class="cls-247" d="M43.3,48.63a2.9,2.9,0,0,0-.7-1.48,2.39,2.39,0,0,0-.81-1,1.81,1.81,0,0,0-1.48.17,1.7,1.7,0,0,0-.91.69,1.75,1.75,0,0,0,0,1.17l1.16.35a.51.51,0,0,1,.24.13.89.89,0,0,1,.12.32,1.08,1.08,0,0,0,.88.58,2.16,2.16,0,0,1,1,.35c.06.05.1.12.16.17a.86.86,0,0,0,.17.11.43.43,0,0,1,.13.18.23.23,0,0,0,.17.14h.09c.11,0,.8-.06.79-.19a.65.65,0,0,1,0-.11.69.69,0,0,0,0-.12C44.26,49.43,43.29,49.43,43.3,48.63Z"/><path class="cls-248" d="M18.66,39.55a4.18,4.18,0,0,1-1,2.13,3.44,3.44,0,0,1-1.17,1.39,2.61,2.61,0,0,1-2.14-.24,2.45,2.45,0,0,1-1.32-1,2.52,2.52,0,0,1,0-1.68q.84-.23,1.68-.5a.74.74,0,0,0,.35-.19,1.29,1.29,0,0,0,.17-.46,1.56,1.56,0,0,1,1.26-.84,3.12,3.12,0,0,0,1.49-.5c.09-.07.15-.17.23-.25a.6.6,0,0,1,.2-.14l.11,0,.14,0c.06,0,.13,0,.19,0l.16,0c.13,0,.26,0,.39,0l.46-.05L20,37c.05,0,.08,0,.08.06a.93.93,0,0,0,0,.16,1,1,0,0,1,0,.17C20,38.39,18.65,38.39,18.66,39.55Z"/><path class="cls-249" d="M27.56,39.18a4.6,4.6,0,0,1-1.12,2.35,3.79,3.79,0,0,1-1.29,1.53,2.87,2.87,0,0,1-2.35-.26,2.69,2.69,0,0,1-1.45-1.09,2.78,2.78,0,0,1,0-1.85q.93-.25,1.84-.55a.81.81,0,0,0,.38-.2,1.42,1.42,0,0,0,.19-.51,1.71,1.71,0,0,1,1.39-.93,3.43,3.43,0,0,0,1.64-.55c.09-.08.17-.19.26-.27a.66.66,0,0,1,.22-.15l.12,0,.16,0c.07,0,.14,0,.21,0l.17-.05c.14,0,.29,0,.43,0l.51-.06.21,0c.06,0,.09,0,.09.07a1,1,0,0,0,0,.17,1.1,1.1,0,0,1,0,.19C29.08,37.9,27.54,37.9,27.56,39.18Z"/><path class="cls-250" d="M35.65,39.76a3.94,3.94,0,0,1-1,2,3.24,3.24,0,0,1-1.1,1.31,2.46,2.46,0,0,1-2-.22,2.3,2.3,0,0,1-1.24-.94,2.38,2.38,0,0,1,0-1.58q.79-.22,1.58-.47a.69.69,0,0,0,.33-.18,1.21,1.21,0,0,0,.16-.43,1.47,1.47,0,0,1,1.19-.79A2.94,2.94,0,0,0,35,38c.08-.07.14-.16.22-.23a1.17,1.17,0,0,1,.22-.15.59.59,0,0,0,.18-.24.31.31,0,0,1,.22-.18l.12,0c.14,0,1.08.09,1.07.26a.88.88,0,0,0,0,.15.94.94,0,0,1,0,.16C36.95,38.67,35.63,38.67,35.65,39.76Z"/><path class="cls-251" d="M43.3,41.25a2.9,2.9,0,0,1-.7,1.48,2.39,2.39,0,0,1-.81,1,1.81,1.81,0,0,1-1.48-.17,1.7,1.7,0,0,1-.91-.69,1.75,1.75,0,0,1,0-1.17l1.16-.35a.51.51,0,0,0,.24-.13.89.89,0,0,0,.12-.32,1.08,1.08,0,0,1,.88-.58,2.16,2.16,0,0,0,1-.35c.06-.05.1-.12.16-.17a.86.86,0,0,1,.17-.11.43.43,0,0,0,.13-.18.23.23,0,0,1,.17-.14h.09c.11,0,.8.06.79.19a.65.65,0,0,0,0,.11.69.69,0,0,1,0,.12C44.26,40.45,43.29,40.44,43.3,41.25Z"/><path class="cls-252" d="M38.5,52.13a44.06,44.06,0,0,0,6.92-2.38c1.19-.51,2.42-1.6,2-2.89a1.5,1.5,0,0,0,0-.28,1.76,1.76,0,0,0-.34-.87A.64.64,0,0,0,47,45v0a1.13,1.13,0,0,0,.33-.46c.86-.77.39-2.73-.37-3.4a.87.87,0,0,0-.44-.21,10.42,10.42,0,0,0-3.15-2.07c-3.3-1.57-7.34-1.89-10.92-2.21-4.33-.39-8.61.13-12.93.47a18.34,18.34,0,0,0-5.45,1.49c-.6.25-1.21.45-1.83.66-.89.63-2.85,1.45-3.59,3.5a2.61,2.61,0,0,1-.15.29,1.78,1.78,0,0,0,.06.8,6.37,6.37,0,0,0,.95,0,.67.67,0,0,0-.26.63l-.59,0H8.65C6.83,46.5,11,49.78,12.77,51.16l.63.25A39.94,39.94,0,0,0,22,53.08,44.52,44.52,0,0,0,38.5,52.13ZM11.65,44.36l.29-.11a60.64,60.64,0,0,0,7.25.25H20.8c.55,0,1.1,0,1.65.07A95.66,95.66,0,0,0,34.63,45c1.93-.11,3.88-.15,5.82-.18a19.41,19.41,0,0,1,2.89.24l.74.19-.57.14a18,18,0,0,1-4.23.23c-3-.07-6.08-.26-9.11-.35l-3.4-.07c-3.76-.06-7.51-.08-11.27-.26a27.62,27.62,0,0,1-3-.45A8.34,8.34,0,0,0,11.65,44.36ZM9.16,46.28l.48,0a1.12,1.12,0,0,0,0,.29Z"/></g></g></svg>