<svg id="Layer_1" data-name="Layer 1" xmlns="http://www.w3.org/2000/svg" xmlns:xlink="http://www.w3.org/1999/xlink" viewBox="0 0 62.65 62.65"><defs><style>.cls-1{fill:#3a3d22;}.cls-2{fill:#525731;}.cls-3{fill:#fde151;}.cls-4{fill:#ac0;}.cls-5{fill:#faba01;}.cls-6{fill:#8aa600;}.cls-7{fill:#3a2615;}.cls-8{fill:url(#radial-gradient);}.cls-9{fill:url(#radial-gradient-2);}.cls-10{fill:#871f06;}.cls-11{fill:#af0704;}.cls-12{fill:#fff;}.cls-13{fill:#ffc800;}.cls-14{fill:#ffea00;}.cls-15{fill:#86b300;}.cls-16{fill:#7d8f17;}.cls-17,.cls-19,.cls-21,.cls-22,.cls-23,.cls-24,.cls-25,.cls-26,.cls-27,.cls-28,.cls-29,.cls-30,.cls-31,.cls-32,.cls-33,.cls-34,.cls-35,.cls-36,.cls-37,.cls-38{fill:#21273d;}.cls-18{fill:#4b5378;}.cls-19{opacity:0.92;}.cls-20{fill:#d4e4f3;}.cls-21{opacity:0.88;}.cls-22{opacity:0.78;}.cls-23{opacity:0.77;}.cls-24{opacity:0.71;}.cls-25{opacity:0.81;}.cls-26{opacity:0.97;}.cls-27{opacity:0.84;}.cls-28{opacity:0.9;}.cls-29{opacity:0.72;}.cls-30{opacity:0.83;}.cls-31{opacity:0.82;}.cls-32{opacity:0.76;}.cls-33{opacity:0.99;}.cls-34{opacity:0.73;}.cls-35{opacity:0.95;}.cls-36{opacity:0.93;}.cls-37{opacity:0.98;}.cls-38{opacity:0.96;}.cls-39{fill:url(#radial-gradient-3);}.cls-40{fill:url(#radial-gradient-4);}.cls-41{fill:url(#radial-gradient-5);}.cls-42{fill:url(#radial-gradient-6);}</style><radialGradient id="radial-gradient" cx="9.53" cy="12.76" r="11.88" gradientUnits="userSpaceOnUse"><stop offset="0" stop-color="#8cb300"/><stop offset="0.32" stop-color="#bd7400"/><stop offset="0.6" stop-color="#e63f00"/><stop offset="1" stop-color="#ad1100"/></radialGradient><radialGradient id="radial-gradient-2" cx="9.13" cy="12.55" r="10.72" gradientUnits="userSpaceOnUse"><stop offset="0" stop-color="#b2d62f"/><stop offset="0.09" stop-color="#c6bd30"/><stop offset="0.22" stop-color="#de9c31"/><stop offset="0.34" stop-color="#f08532"/><stop offset="0.46" stop-color="#fb7733"/><stop offset="0.56" stop-color="#ff7233"/><stop offset="1" stop-color="#e04433"/></radialGradient><radialGradient id="radial-gradient-3" cx="9.53" cy="29.66" r="11.88" xlink:href="#radial-gradient"/><radialGradient id="radial-gradient-4" cx="9.13" cy="29.46" r="10.72" xlink:href="#radial-gradient-2"/><radialGradient id="radial-gradient-5" cx="9.53" cy="46.57" r="11.88" xlink:href="#radial-gradient"/><radialGradient id="radial-gradient-6" cx="9.13" cy="46.36" r="10.72" xlink:href="#radial-gradient-2"/></defs><title>left fruit-icon</title><circle class="cls-1" cx="31.33" cy="31.33" r="31.33"/><path class="cls-2" d="M31.33,61.65A30.33,30.33,0,1,1,61.65,31.33,30.36,30.36,0,0,1,31.33,61.65Z"/><path class="cls-3" d="M37.42,10.5A2.09,2.09,0,0,1,37.19,9a1.43,1.43,0,0,0,.17-.41,2.2,2.2,0,0,0-.45-.5.79.79,0,0,0-.85-.15.59.59,0,0,0-.19.17l0,.1c-.15.76.19.88.32,1.15s.34,1.35-.14,1.81c-1.27,1.2-.72,3.79-4.08,5.14a7.89,7.89,0,0,1-4.44.21,14.83,14.83,0,0,0-2.21-.24c-.23,0-.33-.07-.43,0l-.36.59c-.08.14,0,.22.19.49a3.42,3.42,0,0,0,2.35,2.19c5.44,2,11-1.72,11.39-6.2A3.9,3.9,0,0,0,37.42,10.5Z"/><path class="cls-4" d="M37.19,9a1.43,1.43,0,0,0,.17-.41,2.2,2.2,0,0,0-.45-.5A1.21,1.21,0,0,0,36.69,8c0,.5-.26,1.2-.71,1.12a2.37,2.37,0,0,1,.2.28,2.26,2.26,0,0,1,.14,1.24c.07-.25.34-.21.47,0s0-.72.63-.11A2.09,2.09,0,0,1,37.19,9Z"/><path class="cls-4" d="M36.31,10.65h0v0Z"/><path class="cls-4" d="M25,16.82a.89.89,0,0,0,.14-.55c-.13,0-.2,0-.28,0l-.36.59c-.06.1,0,.18.08.33A.85.85,0,0,0,25,16.82Z"/><path class="cls-5" d="M37.42,10.5A2.09,2.09,0,0,1,37.19,9a1.43,1.43,0,0,0,.17-.41,2.2,2.2,0,0,0-.45-.5,1.11,1.11,0,0,0-.41-.2c0,.1,0,.21-.07.36-.16.82.16.84.27,1.15a2.42,2.42,0,0,1-.11,1.84c-.69,1.41,0,4.37-4.42,6.12a8.58,8.58,0,0,1-4.77.22,17.38,17.38,0,0,1-2.48-.94,1.09,1.09,0,0,1-.24,0l-.17.28c-.08.14,0,.22.19.49a3.42,3.42,0,0,0,2.35,2.19c5.44,2,11-1.72,11.39-6.2A3.9,3.9,0,0,0,37.42,10.5Z"/><path class="cls-6" d="M37.19,9a1.43,1.43,0,0,0,.17-.41,2.2,2.2,0,0,0-.45-.5,1.11,1.11,0,0,0-.41-.2c0,.1,0,.21-.07.36-.16.82.16.84.27,1.15a2.34,2.34,0,0,1,.09,1.22h0c.14.25,0-.72.63-.11A2.09,2.09,0,0,1,37.19,9Z"/><path class="cls-6" d="M24.91,16.63a1.09,1.09,0,0,1-.24,0l-.17.28c-.06.1,0,.18.08.33a.85.85,0,0,0,.43-.4l.07-.15A.44.44,0,0,0,24.91,16.63Z"/><ellipse class="cls-7" cx="24.75" cy="16.67" rx="0.36" ry="0.14" transform="translate(-2.01 29.87) rotate(-60.22)"/><path class="cls-8" d="M8.76,13.18c.18-1.83,3.17-1.4,4.13-2.06,1.86-1.27,3.2-2.82,5.46-2.5a3,3,0,0,1,2.86,2.52c.18.78,3,4.11-2.86,6.1C12.67,19.14,8.53,15.57,8.76,13.18Z"/><path class="cls-9" d="M16.34,13.42c3.49-1.31,4.47-4.28,2.2-4.63s-3.79,1.65-5.38,2.53c-1.22.67-4,.21-4.21,2C8.8,14.88,12.81,14.75,16.34,13.42Z"/><path class="cls-10" d="M21.32,11.56c-.14-.31-.23-.64-.42-.56s-.23.4-.09.71.4.49.59.41S21.45,11.87,21.32,11.56Z"/><path class="cls-11" d="M22.17,11.1c0-.09-.16-.26-.26-.1a.65.65,0,0,1-.78.34c-.1,0-.12.21,0,.37s.29.32.3.21.72-.23.89-.57C22.35,11.22,22.2,11.17,22.17,11.1Z"/><ellipse class="cls-12" cx="17.38" cy="9.55" rx="0.6" ry="0.45" transform="translate(-1.94 5.08) rotate(-15.77)"/><ellipse class="cls-12" cx="9.66" cy="12.85" rx="0.38" ry="0.28" transform="translate(-5.81 8.48) rotate(-37.27)"/><path class="cls-11" d="M8.32,17.64A6.17,6.17,0,0,0,14.92,19a6.17,6.17,0,0,0,4.41-5.1Z"/><path class="cls-13" d="M8.32,17.64c1.37,1.48,4,2,6.52,1.13s4.3-2.85,4.5-4.85Z"/><path class="cls-14" d="M8.32,17.64c1.07.61,3.45.5,6-.36s4.51-2.22,5-3.35A111.87,111.87,0,0,0,8.32,17.64Z"/><path class="cls-15" d="M50.45,26.49a3.74,3.74,0,0,0,.24.45l0-.22.26.47.14-.09.27.46-.07-.46.19.39v-.12l.23.31,0-.33s.29.29.29.25a1.22,1.22,0,0,1,0-.16l.12,0,.06-.08.13,0L52.22,27l.42-.07-.08-.1h.27v-.11l.13,0-.08-.1.42.11v-.11l.24.13,0-.18.28.11-.24-.32.12-.15-.25-.33.32,0,0-.17.33-.26L54,25.39l.38-.27L54.1,25,54,24.87h-.21l-.15-.21h-.25l-.08-.14h-.25l-.1-.14-.29.18-.14-.1-.25.21,0-.21-.08,0v-.35l-.29,0,0-.21-.28.26L51.63,24l-.31.29-.06-.13-.18.23L51,24.33l-.28.34h0c-.09.13-.6.66,0,1A.67.67,0,0,0,50.45,26.49Z"/><path class="cls-4" d="M50.61,25.59c.36,0,.74.14,1.09.12A9.74,9.74,0,0,0,53,25.53a4.39,4.39,0,0,0,1.35-.42h0L54.1,25,54,24.87h-.21l-.15-.21h-.25l-.08-.14h-.25l-.1-.14-.29.18-.14-.1-.25.21,0-.21-.08,0v-.35l-.29,0,0-.21-.28.26L51.63,24l-.31.29-.06-.13-.18.23L51,24.33l-.28.34h0C50.59,24.79,50.13,25.27,50.61,25.59Z"/><path class="cls-16" d="M50.35,27.49a6.73,6.73,0,0,1-.22-1.71A7.08,7.08,0,0,1,50.22,24c0-.06,0,0-.09,0-.6-.3-.39.47-.39.85a8.72,8.72,0,0,1,.08,1,1.18,1.18,0,0,1-.5.28c-.39.1-.35,0-.8,0a7.62,7.62,0,0,1-.77-.19,1.75,1.75,0,0,0-1,0,.43.43,0,0,0-.09-.09.42.42,0,1,0,.18.33l.25,0a2.41,2.41,0,0,1,.66,0c.38.06.75.14,1.13.18l-.29.11a2.41,2.41,0,0,0-1.22.94s0,.11.07.08a8.14,8.14,0,0,1,1.89-1,1.11,1.11,0,0,0,.51-.29,3.07,3.07,0,0,0,0,.42,5.7,5.7,0,0,0,.29,1.21,3.59,3.59,0,0,1,0,1.62s0,.07.08,0C50.72,29,50.49,28.09,50.35,27.49Z"/><path class="cls-17" d="M47.55,30.9a.94.94,0,0,1,0-1.26c.32-.46.86-.66,1.19-.44a.94.94,0,0,1,0,1.26C48.42,30.92,47.88,31.12,47.55,30.9Z"/><path class="cls-17" d="M45.91,29.63a.94.94,0,0,1,0-1.26c.32-.46.86-.66,1.18-.44a.94.94,0,0,1,0,1.26C46.78,29.65,46.23,29.85,45.91,29.63Z"/><path class="cls-17" d="M45.6,31.86a.94.94,0,0,1,0-1.26c.32-.46.86-.66,1.18-.44a.94.94,0,0,1,0,1.26C46.47,31.88,45.92,32.08,45.6,31.86Z"/><path class="cls-17" d="M46.25,34.37a.94.94,0,0,1,0-1.26c.32-.46.86-.66,1.18-.44a.94.94,0,0,1,0,1.26C47.11,34.4,46.57,34.6,46.25,34.37Z"/><path class="cls-17" d="M43.42,33.87a.94.94,0,0,1,0-1.26c.32-.46.86-.66,1.18-.44a.94.94,0,0,1,0,1.26C44.29,33.89,43.74,34.09,43.42,33.87Z"/><path class="cls-17" d="M42.48,36.32a.94.94,0,0,1,0-1.26c.32-.46.86-.66,1.19-.44a.94.94,0,0,1,0,1.26C43.35,36.34,42.81,36.54,42.48,36.32Z"/><ellipse class="cls-18" cx="44.61" cy="34.98" rx="1.37" ry="1.06" transform="translate(-9.49 51.93) rotate(-55.5)"/><path class="cls-19" d="M44.07,36.07a.94.94,0,0,1,0-1.26c.32-.46.86-.66,1.18-.44a.94.94,0,0,1,0,1.26C44.93,36.09,44.39,36.29,44.07,36.07Z"/><path class="cls-20" d="M44.2,34.68a.34.34,0,1,1,.36-.14A.34.34,0,0,1,44.2,34.68Z"/><ellipse class="cls-18" cx="47.2" cy="27.36" rx="1.37" ry="1.06" transform="translate(-2.08 50.76) rotate(-55.5)"/><path class="cls-21" d="M46.66,28.45a.94.94,0,0,1,0-1.26c.32-.46.86-.66,1.19-.44a.94.94,0,0,1,0,1.26C47.52,28.47,47,28.67,46.66,28.45Z"/><path class="cls-20" d="M46.79,27.06a.34.34,0,1,1,.36-.14A.34.34,0,0,1,46.79,27.06Z"/><ellipse class="cls-18" cx="49.65" cy="28.64" rx="1.37" ry="1.06" transform="translate(-2.07 53.33) rotate(-55.5)"/><path class="cls-22" d="M49.1,29.72a.94.94,0,0,1,0-1.26c.32-.46.86-.66,1.19-.44a.94.94,0,0,1,0,1.26C50,29.74,49.43,29.95,49.1,29.72Z"/><path class="cls-20" d="M49.24,28.34a.34.34,0,1,1,.36-.14A.34.34,0,0,1,49.24,28.34Z"/><ellipse class="cls-18" cx="42.14" cy="36.6" rx="1.37" ry="1.06" transform="translate(-11.9 50.6) rotate(-55.5)"/><path class="cls-23" d="M41.59,37.69a.94.94,0,0,1,0-1.26c.32-.46.86-.66,1.19-.44a.94.94,0,0,1,0,1.26C42.46,37.71,41.92,37.91,41.59,37.69Z"/><path class="cls-20" d="M41.73,36.31a.34.34,0,1,1,.36-.14A.34.34,0,0,1,41.73,36.31Z"/><ellipse class="cls-18" cx="42.08" cy="34.91" rx="1.37" ry="1.06" transform="translate(-10.52 49.82) rotate(-55.5)"/><path class="cls-24" d="M41.54,36a.94.94,0,0,1,0-1.26c.32-.46.86-.66,1.18-.44a.94.94,0,0,1,0,1.26C42.41,36,41.86,36.21,41.54,36Z"/><path class="cls-20" d="M41.68,34.61a.34.34,0,1,1,.36-.14A.34.34,0,0,1,41.68,34.61Z"/><ellipse class="cls-18" cx="43.73" cy="36.55" rx="1.12" ry="0.87" transform="translate(-11.67 49.93) rotate(-53.47)"/><ellipse class="cls-25" cx="43.76" cy="36.74" rx="0.85" ry="0.59" transform="translate(-11.81 50.04) rotate(-53.48)"/><path class="cls-20" d="M43.41,36.29a.28.28,0,1,1,.3-.1A.28.28,0,0,1,43.41,36.29Z"/><ellipse class="cls-18" cx="42.6" cy="32.72" rx="1.37" ry="1.06" transform="translate(-8.49 49.29) rotate(-55.5)"/><path class="cls-26" d="M42.06,33.8a.94.94,0,0,1,0-1.26c.32-.46.86-.66,1.18-.44a.94.94,0,0,1,0,1.26C42.93,33.82,42.38,34,42.06,33.8Z"/><path class="cls-20" d="M42.2,32.42a.34.34,0,1,1,.36-.14A.34.34,0,0,1,42.2,32.42Z"/><ellipse class="cls-18" cx="45.98" cy="34.77" rx="1.37" ry="1.06" transform="translate(-8.72 52.97) rotate(-55.5)"/><path class="cls-27" d="M45.43,35.85a.94.94,0,0,1,0-1.26c.32-.46.86-.66,1.19-.44a.94.94,0,0,1,0,1.26C46.3,35.87,45.76,36.08,45.43,35.85Z"/><path class="cls-20" d="M45.57,34.47a.34.34,0,1,1,.36-.14A.34.34,0,0,1,45.57,34.47Z"/><ellipse class="cls-18" cx="43.01" cy="30.59" rx="1.37" ry="1.06" transform="translate(-6.56 48.71) rotate(-55.5)"/><path class="cls-28" d="M42.47,31.68a.94.94,0,0,1,0-1.26c.32-.46.86-.66,1.19-.44a.94.94,0,0,1,0,1.26C43.34,31.7,42.79,31.9,42.47,31.68Z"/><path class="cls-20" d="M42.61,30.29a.34.34,0,1,1,.36-.14A.34.34,0,0,1,42.61,30.29Z"/><ellipse class="cls-18" cx="48.67" cy="33.12" rx="1.37" ry="1.06" transform="translate(-6.19 54.47) rotate(-55.5)"/><path class="cls-29" d="M48.13,34.21a.94.94,0,0,1,0-1.26c.32-.46.86-.66,1.19-.44a.94.94,0,0,1,0,1.26C49,34.23,48.45,34.43,48.13,34.21Z"/><path class="cls-20" d="M48.26,32.82a.34.34,0,1,1,.36-.14A.34.34,0,0,1,48.26,32.82Z"/><ellipse class="cls-18" cx="44.15" cy="28.74" rx="1.37" ry="1.06" transform="translate(-4.55 48.84) rotate(-55.5)"/><path class="cls-30" d="M43.6,29.83a.94.94,0,0,1,0-1.26c.32-.46.86-.66,1.18-.44a.94.94,0,0,1,0,1.26C44.47,29.85,43.93,30.05,43.6,29.83Z"/><path class="cls-20" d="M43.74,28.44a.34.34,0,1,1,.36-.14A.34.34,0,0,1,43.74,28.44Z"/><ellipse class="cls-18" cx="47.71" cy="34.12" rx="1.37" ry="1.06" transform="translate(-7.44 54.11) rotate(-55.5)"/><path class="cls-22" d="M47.17,35.21a.94.94,0,0,1,0-1.26c.32-.46.86-.66,1.19-.44a.94.94,0,0,1,0,1.26C48,35.23,47.49,35.43,47.17,35.21Z"/><path class="cls-20" d="M47.3,33.82a.34.34,0,1,1,.36-.14A.34.34,0,0,1,47.3,33.82Z"/><ellipse class="cls-18" cx="50.53" cy="32.09" rx="1.37" ry="1.06" transform="translate(-4.54 55.56) rotate(-55.5)"/><path class="cls-23" d="M50,33.18a.94.94,0,0,1,0-1.26c.32-.46.86-.66,1.19-.44a.94.94,0,0,1,0,1.26C50.85,33.2,50.31,33.4,50,33.18Z"/><path class="cls-20" d="M50.12,31.79a.34.34,0,1,1,.36-.14A.34.34,0,0,1,50.12,31.79Z"/><ellipse class="cls-18" cx="44.73" cy="26.85" rx="1.37" ry="1.06" transform="translate(-2.74 48.51) rotate(-55.5)"/><path class="cls-31" d="M44.19,27.94a.94.94,0,0,1,0-1.26c.32-.46.86-.66,1.19-.44a.94.94,0,0,1,0,1.26C45.06,28,44.51,28.16,44.19,27.94Z"/><path class="cls-20" d="M44.33,26.55a.34.34,0,1,1,.36-.14A.34.34,0,0,1,44.33,26.55Z"/><ellipse class="cls-18" cx="49.64" cy="29.44" rx="1.37" ry="1.06" transform="translate(-2.74 53.67) rotate(-55.5)"/><path class="cls-32" d="M49.09,30.53a.94.94,0,0,1,0-1.26c.32-.46.86-.66,1.19-.44a.94.94,0,0,1,0,1.26C50,30.55,49.42,30.75,49.09,30.53Z"/><path class="cls-20" d="M49.23,29.14a.34.34,0,1,1,.36-.14A.34.34,0,0,1,49.23,29.14Z"/><ellipse class="cls-18" cx="50.96" cy="30.18" rx="1.37" ry="1.06" transform="translate(-2.78 55.08) rotate(-55.5)"/><path class="cls-27" d="M50.42,31.27a.94.94,0,0,1,0-1.26c.32-.46.86-.66,1.18-.44a.94.94,0,0,1,0,1.26C51.28,31.29,50.74,31.49,50.42,31.27Z"/><path class="cls-20" d="M50.55,29.88a.34.34,0,1,1,.36-.14A.34.34,0,0,1,50.55,29.88Z"/><ellipse class="cls-18" cx="46.52" cy="26.18" rx="1.37" ry="1.06" transform="translate(-1.41 49.69) rotate(-55.5)"/><path class="cls-19" d="M46,27.27A.94.94,0,0,1,46,26c.32-.46.86-.66,1.19-.44a.94.94,0,0,1,0,1.26C46.84,27.29,46.3,27.49,46,27.27Z"/><path class="cls-20" d="M46.11,25.88a.34.34,0,1,1,.36-.14A.34.34,0,0,1,46.11,25.88Z"/><ellipse class="cls-18" cx="43.64" cy="34.11" rx="1.37" ry="1.06" transform="translate(-9.19 50.76) rotate(-55.5)"/><path class="cls-24" d="M43.1,35.2a.94.94,0,0,1,0-1.26c.32-.46.86-.66,1.19-.44a.94.94,0,0,1,0,1.26C44,35.22,43.43,35.42,43.1,35.2Z"/><path class="cls-20" d="M43.24,33.81a.34.34,0,1,1,.36-.14A.34.34,0,0,1,43.24,33.81Z"/><ellipse class="cls-18" cx="43.67" cy="31.51" rx="1.37" ry="1.06" transform="translate(-7.04 49.65) rotate(-55.5)"/><path class="cls-33" d="M43.12,32.6a.94.94,0,0,1,0-1.26c.32-.46.86-.66,1.18-.44a.94.94,0,0,1,0,1.26C44,32.62,43.45,32.82,43.12,32.6Z"/><path class="cls-20" d="M43.26,31.22a.34.34,0,1,1,.36-.14A.34.34,0,0,1,43.26,31.22Z"/><ellipse class="cls-18" cx="45.75" cy="33.22" rx="1.37" ry="1.06" transform="matrix(0.57, -0.82, 0.82, 0.57, -7.54, 52.11)"/><path class="cls-19" d="M45.21,34.31a.94.94,0,0,1,0-1.26c.32-.46.86-.66,1.18-.44a.94.94,0,0,1,0,1.26C46.08,34.33,45.53,34.53,45.21,34.31Z"/><path class="cls-20" d="M45.35,32.92a.34.34,0,1,1,.36-.14A.34.34,0,0,1,45.35,32.92Z"/><ellipse class="cls-18" cx="48.97" cy="31.19" rx="1.37" ry="1.06" transform="translate(-4.47 53.89) rotate(-55.5)"/><path class="cls-34" d="M48.43,32.28a.94.94,0,0,1,0-1.26c.32-.46.86-.66,1.18-.44a.94.94,0,0,1,0,1.26C49.3,32.3,48.76,32.5,48.43,32.28Z"/><path class="cls-20" d="M48.57,30.9a.34.34,0,1,1,.36-.14A.34.34,0,0,1,48.57,30.9Z"/><ellipse class="cls-18" cx="44.95" cy="30.09" rx="1.37" ry="1.06" transform="translate(-5.31 50.09) rotate(-55.5)"/><path class="cls-27" d="M44.41,31.18a.94.94,0,0,1,0-1.26c.32-.46.86-.66,1.18-.44a.94.94,0,0,1,0,1.26C45.27,31.2,44.73,31.4,44.41,31.18Z"/><path class="cls-20" d="M44.54,29.79a.34.34,0,1,1,.36-.14A.34.34,0,0,1,44.54,29.79Z"/><ellipse class="cls-18" cx="45.3" cy="32" rx="1.37" ry="1.06" transform="translate(-6.73 51.21) rotate(-55.5)"/><path class="cls-35" d="M44.76,33.08a.94.94,0,0,1,0-1.26c.32-.46.86-.66,1.18-.44a.94.94,0,0,1,0,1.26C45.63,33.1,45.08,33.3,44.76,33.08Z"/><path class="cls-20" d="M44.9,31.7a.34.34,0,1,1,.36-.14A.34.34,0,0,1,44.9,31.7Z"/><ellipse class="cls-18" cx="47.38" cy="31.93" rx="1.37" ry="1.06" transform="translate(-5.77 52.89) rotate(-55.5)"/><path class="cls-36" d="M46.84,33a.94.94,0,0,1,0-1.26c.32-.46.86-.66,1.19-.44a.94.94,0,0,1,0,1.26C47.71,33,47.16,33.24,46.84,33Z"/><path class="cls-20" d="M47,31.63a.34.34,0,1,1,.36-.14A.34.34,0,0,1,47,31.63Z"/><ellipse class="cls-18" cx="47.04" cy="29.86" rx="1.37" ry="1.06" transform="translate(-4.22 51.72) rotate(-55.5)"/><path class="cls-37" d="M46.5,31a.94.94,0,0,1,0-1.26c.32-.46.86-.66,1.19-.44a.94.94,0,0,1,0,1.26C47.36,31,46.82,31.17,46.5,31Z"/><path class="cls-20" d="M46.63,29.57a.34.34,0,1,1,.36-.14A.34.34,0,0,1,46.63,29.57Z"/><ellipse class="cls-18" cx="45.69" cy="28.22" rx="1.37" ry="1.06" transform="translate(-3.45 49.89) rotate(-55.5)"/><path class="cls-38" d="M45.15,29.31a.94.94,0,0,1,0-1.26c.32-.46.86-.66,1.19-.44a.94.94,0,0,1,0,1.26C46,29.33,45.47,29.53,45.15,29.31Z"/><path class="cls-20" d="M45.28,27.93a.34.34,0,1,1,.36-.14A.34.34,0,0,1,45.28,27.93Z"/><ellipse class="cls-18" cx="48.2" cy="28.18" rx="1.37" ry="1.06" transform="translate(-2.33 51.94) rotate(-55.5)"/><path class="cls-34" d="M47.65,29.27a.94.94,0,0,1,0-1.26c.32-.46.86-.66,1.19-.44a.94.94,0,0,1,0,1.26C48.52,29.29,48,29.49,47.65,29.27Z"/><path class="cls-20" d="M47.79,27.88a.34.34,0,1,1,.36-.14A.34.34,0,0,1,47.79,27.88Z"/><path class="cls-3" d="M37.42,27.4a2.09,2.09,0,0,1-.24-1.51,1.43,1.43,0,0,0,.17-.41,2.2,2.2,0,0,0-.45-.5.79.79,0,0,0-.85-.15.59.59,0,0,0-.19.17l0,.1c-.15.76.19.88.32,1.15s.34,1.35-.14,1.81c-1.27,1.2-.72,3.79-4.08,5.14a7.89,7.89,0,0,1-4.44.21,14.83,14.83,0,0,0-2.21-.24c-.23,0-.33-.07-.43,0l-.36.59c-.08.14,0,.22.19.49a3.42,3.42,0,0,0,2.35,2.19c5.44,2,11-1.72,11.39-6.2A3.9,3.9,0,0,0,37.42,27.4Z"/><path class="cls-4" d="M37.19,25.9a1.43,1.43,0,0,0,.17-.41,2.2,2.2,0,0,0-.45-.5,1.21,1.21,0,0,0-.22-.14c0,.5-.26,1.2-.71,1.12a2.37,2.37,0,0,1,.2.28,2.26,2.26,0,0,1,.14,1.24c.07-.25.34-.21.47,0s0-.72.63-.11A2.09,2.09,0,0,1,37.19,25.9Z"/><path class="cls-4" d="M36.31,27.55h0v0Z"/><path class="cls-4" d="M25,33.72a.89.89,0,0,0,.14-.55c-.13,0-.2,0-.28,0l-.36.59c-.06.1,0,.18.08.33A.85.85,0,0,0,25,33.72Z"/><path class="cls-5" d="M37.42,27.4a2.09,2.09,0,0,1-.24-1.51,1.43,1.43,0,0,0,.17-.41,2.2,2.2,0,0,0-.45-.5,1.11,1.11,0,0,0-.41-.2c0,.1,0,.21-.07.36-.16.82.16.84.27,1.15a2.42,2.42,0,0,1-.11,1.84c-.69,1.41,0,4.37-4.42,6.12a8.58,8.58,0,0,1-4.77.22,17.38,17.38,0,0,1-2.48-.94,1.09,1.09,0,0,1-.24,0l-.17.28c-.08.14,0,.22.19.49a3.42,3.42,0,0,0,2.35,2.19c5.44,2,11-1.72,11.39-6.2A3.9,3.9,0,0,0,37.42,27.4Z"/><path class="cls-6" d="M37.19,25.9a1.43,1.43,0,0,0,.17-.41,2.2,2.2,0,0,0-.45-.5,1.11,1.11,0,0,0-.41-.2c0,.1,0,.21-.07.36-.16.82.16.84.27,1.15a2.34,2.34,0,0,1,.09,1.22h0c.14.25,0-.72.63-.11A2.09,2.09,0,0,1,37.19,25.9Z"/><path class="cls-6" d="M24.91,33.53a1.09,1.09,0,0,1-.24,0l-.17.28c-.06.1,0,.18.08.33a.85.85,0,0,0,.43-.4l.07-.15A.44.44,0,0,0,24.91,33.53Z"/><ellipse class="cls-7" cx="24.75" cy="33.57" rx="0.36" ry="0.14" transform="translate(-16.68 38.37) rotate(-60.22)"/><path class="cls-39" d="M8.76,30.08c.18-1.83,3.17-1.4,4.13-2.06,1.86-1.27,3.2-2.82,5.46-2.5A3,3,0,0,1,21.22,28c.18.78,3,4.11-2.86,6.1C12.67,36,8.53,32.47,8.76,30.08Z"/><path class="cls-40" d="M16.34,30.33C19.83,29,20.81,26,18.54,25.7s-3.79,1.65-5.38,2.53c-1.22.67-4,.21-4.21,2C8.8,31.78,12.81,31.65,16.34,30.33Z"/><path class="cls-10" d="M21.32,28.46c-.14-.31-.23-.64-.42-.56s-.23.4-.09.71.4.49.59.41S21.45,28.77,21.32,28.46Z"/><path class="cls-11" d="M22.17,28c0-.09-.16-.26-.26-.1a.65.65,0,0,1-.78.34c-.1,0-.12.21,0,.37s.29.32.3.21.72-.23.89-.57C22.35,28.12,22.2,28.07,22.17,28Z"/><ellipse class="cls-12" cx="17.38" cy="26.45" rx="0.6" ry="0.45" transform="translate(-6.54 5.72) rotate(-15.77)"/><ellipse class="cls-12" cx="9.66" cy="29.76" rx="0.38" ry="0.28" transform="translate(-16.05 11.93) rotate(-37.27)"/><path class="cls-11" d="M8.32,34.54a6.17,6.17,0,0,0,6.6,1.38,6.17,6.17,0,0,0,4.41-5.1Z"/><path class="cls-13" d="M8.32,34.54c1.37,1.48,4,2,6.52,1.13s4.3-2.85,4.5-4.85Z"/><path class="cls-14" d="M8.32,34.54c1.07.61,3.45.5,6-.36s4.51-2.22,5-3.35A111.87,111.87,0,0,0,8.32,34.54Z"/><path class="cls-15" d="M50.45,43.4a3.74,3.74,0,0,0,.24.45l0-.22.26.47.14-.09.27.46L51.31,44l.19.39v-.12l.23.31,0-.33s.29.29.29.25a1.22,1.22,0,0,1,0-.16l.12,0,.06-.08.13,0-.08-.35.42-.07-.08-.1h.27v-.11l.13,0-.08-.1.42.11v-.11l.24.13,0-.18.28.11-.24-.32.12-.15-.25-.33.32,0,0-.17.33-.26L54,42.29l.38-.27-.24-.08L54,41.77h-.21l-.15-.21h-.25l-.08-.14h-.25l-.1-.14-.29.18-.14-.1-.25.21,0-.21-.08,0V41L52,41l0-.21-.28.26-.05-.19-.31.29-.06-.13-.18.23L51,41.23l-.28.34h0c-.09.13-.6.66,0,1A.67.67,0,0,0,50.45,43.4Z"/><path class="cls-4" d="M50.61,42.49c.36,0,.74.14,1.09.12A9.74,9.74,0,0,0,53,42.43,4.39,4.39,0,0,0,54.31,42h0l-.21-.07L54,41.77h-.21l-.15-.21h-.25l-.08-.14h-.25l-.1-.14-.29.18-.14-.1-.25.21,0-.21-.08,0V41L52,41l0-.21-.28.26-.05-.19-.31.29-.06-.13-.18.23L51,41.23l-.28.34h0C50.59,41.69,50.13,42.17,50.61,42.49Z"/><path class="cls-16" d="M50.35,44.39a6.73,6.73,0,0,1-.22-1.71,7.08,7.08,0,0,1,.09-1.77c0-.06,0,0-.09,0-.6-.3-.39.47-.39.85a8.72,8.72,0,0,1,.08,1,1.18,1.18,0,0,1-.5.28c-.39.1-.35,0-.8,0a7.62,7.62,0,0,1-.77-.19,1.75,1.75,0,0,0-1,0,.43.43,0,0,0-.09-.09.42.42,0,1,0,.18.33l.25,0a2.41,2.41,0,0,1,.66,0c.38.06.75.14,1.13.18l-.29.11a2.41,2.41,0,0,0-1.22.94s0,.11.07.08a8.14,8.14,0,0,1,1.89-1,1.11,1.11,0,0,0,.51-.29,3.07,3.07,0,0,0,0,.42,5.7,5.7,0,0,0,.29,1.21,3.59,3.59,0,0,1,0,1.62s0,.07.08,0C50.72,45.9,50.49,45,50.35,44.39Z"/><path class="cls-17" d="M47.55,47.8a.94.94,0,0,1,0-1.26c.32-.46.86-.66,1.19-.44a.94.94,0,0,1,0,1.26C48.42,47.82,47.88,48,47.55,47.8Z"/><path class="cls-17" d="M45.91,46.53a.94.94,0,0,1,0-1.26c.32-.46.86-.66,1.18-.44a.94.94,0,0,1,0,1.26C46.78,46.55,46.23,46.76,45.91,46.53Z"/><path class="cls-17" d="M45.6,48.76a.94.94,0,0,1,0-1.26c.32-.46.86-.66,1.18-.44a.94.94,0,0,1,0,1.26C46.47,48.78,45.92,49,45.6,48.76Z"/><path class="cls-17" d="M46.25,51.28a.94.94,0,0,1,0-1.26c.32-.46.86-.66,1.18-.44a.94.94,0,0,1,0,1.26C47.11,51.3,46.57,51.5,46.25,51.28Z"/><path class="cls-17" d="M43.42,50.77a.94.94,0,0,1,0-1.26c.32-.46.86-.66,1.18-.44a.94.94,0,0,1,0,1.26C44.29,50.79,43.74,51,43.42,50.77Z"/><path class="cls-17" d="M42.48,53.22a.94.94,0,0,1,0-1.26c.32-.46.86-.66,1.19-.44a.94.94,0,0,1,0,1.26C43.35,53.24,42.81,53.44,42.48,53.22Z"/><ellipse class="cls-18" cx="44.61" cy="51.88" rx="1.37" ry="1.06" transform="translate(-23.41 59.26) rotate(-55.5)"/><path class="cls-19" d="M44.07,53a.94.94,0,0,1,0-1.26c.32-.46.86-.66,1.18-.44a.94.94,0,0,1,0,1.26C44.93,53,44.39,53.19,44.07,53Z"/><path class="cls-20" d="M44.2,51.58a.34.34,0,1,1,.36-.14A.34.34,0,0,1,44.2,51.58Z"/><ellipse class="cls-18" cx="47.2" cy="44.26" rx="1.37" ry="1.06" transform="translate(-16.01 58.09) rotate(-55.5)"/><path class="cls-21" d="M46.66,45.35a.94.94,0,0,1,0-1.26c.32-.46.86-.66,1.19-.44a.94.94,0,0,1,0,1.26C47.52,45.37,47,45.57,46.66,45.35Z"/><path class="cls-20" d="M46.79,44a.34.34,0,1,1,.36-.14A.34.34,0,0,1,46.79,44Z"/><ellipse class="cls-18" cx="49.65" cy="45.54" rx="1.37" ry="1.06" transform="translate(-16 60.66) rotate(-55.5)"/><path class="cls-22" d="M49.1,46.62a.94.94,0,0,1,0-1.26c.32-.46.86-.66,1.19-.44a.94.94,0,0,1,0,1.26C50,46.65,49.43,46.85,49.1,46.62Z"/><path class="cls-20" d="M49.24,45.24a.34.34,0,1,1,.36-.14A.34.34,0,0,1,49.24,45.24Z"/><ellipse class="cls-18" cx="42.14" cy="53.51" rx="1.37" ry="1.06" transform="translate(-25.83 57.92) rotate(-55.5)"/><path class="cls-23" d="M41.59,54.59a.94.94,0,0,1,0-1.26c.32-.46.86-.66,1.19-.44a.94.94,0,0,1,0,1.26C42.46,54.61,41.92,54.82,41.59,54.59Z"/><path class="cls-20" d="M41.73,53.21a.34.34,0,1,1,.36-.14A.34.34,0,0,1,41.73,53.21Z"/><ellipse class="cls-18" cx="42.08" cy="51.81" rx="1.37" ry="1.06" transform="translate(-24.45 57.14) rotate(-55.5)"/><path class="cls-24" d="M41.54,52.89a.94.94,0,0,1,0-1.26c.32-.46.86-.66,1.18-.44a.94.94,0,0,1,0,1.26C42.41,52.91,41.86,53.12,41.54,52.89Z"/><path class="cls-20" d="M41.68,51.51a.34.34,0,1,1,.36-.14A.34.34,0,0,1,41.68,51.51Z"/><ellipse class="cls-18" cx="43.73" cy="53.45" rx="1.12" ry="0.87" transform="translate(-25.25 56.77) rotate(-53.47)"/><ellipse class="cls-25" cx="43.76" cy="53.64" rx="0.85" ry="0.59" transform="translate(-25.39 56.88) rotate(-53.48)"/><path class="cls-20" d="M43.41,53.2a.28.28,0,1,1,.3-.1A.28.28,0,0,1,43.41,53.2Z"/><ellipse class="cls-18" cx="42.6" cy="49.62" rx="1.37" ry="1.06" transform="translate(-22.42 56.62) rotate(-55.5)"/><path class="cls-26" d="M42.06,50.71a.94.94,0,0,1,0-1.26c.32-.46.86-.66,1.18-.44a.94.94,0,0,1,0,1.26C42.93,50.73,42.38,50.93,42.06,50.71Z"/><path class="cls-20" d="M42.2,49.32a.34.34,0,1,1,.36-.14A.34.34,0,0,1,42.2,49.32Z"/><ellipse class="cls-18" cx="45.98" cy="51.67" rx="1.37" ry="1.06" transform="translate(-22.65 60.29) rotate(-55.5)"/><path class="cls-27" d="M45.43,52.75a.94.94,0,0,1,0-1.26c.32-.46.86-.66,1.19-.44a.94.94,0,0,1,0,1.26C46.3,52.78,45.76,53,45.43,52.75Z"/><path class="cls-20" d="M45.57,51.37a.34.34,0,1,1,.36-.14A.34.34,0,0,1,45.57,51.37Z"/><ellipse class="cls-18" cx="43.01" cy="47.49" rx="1.37" ry="1.06" transform="translate(-20.49 56.04) rotate(-55.5)"/><path class="cls-28" d="M42.47,48.58a.94.94,0,0,1,0-1.26c.32-.46.86-.66,1.19-.44a.94.94,0,0,1,0,1.26C43.34,48.6,42.79,48.8,42.47,48.58Z"/><path class="cls-20" d="M42.61,47.19a.34.34,0,1,1,.36-.14A.34.34,0,0,1,42.61,47.19Z"/><ellipse class="cls-18" cx="48.67" cy="50.02" rx="1.37" ry="1.06" transform="translate(-20.12 61.8) rotate(-55.5)"/><path class="cls-29" d="M48.13,51.11a.94.94,0,0,1,0-1.26c.32-.46.86-.66,1.19-.44a.94.94,0,0,1,0,1.26C49,51.13,48.45,51.33,48.13,51.11Z"/><path class="cls-20" d="M48.26,49.72a.34.34,0,1,1,.36-.14A.34.34,0,0,1,48.26,49.72Z"/><ellipse class="cls-18" cx="44.15" cy="45.65" rx="1.37" ry="1.06" transform="translate(-18.48 56.17) rotate(-55.5)"/><path class="cls-30" d="M43.6,46.73a.94.94,0,0,1,0-1.26c.32-.46.86-.66,1.18-.44a.94.94,0,0,1,0,1.26C44.47,46.75,43.93,47,43.6,46.73Z"/><path class="cls-20" d="M43.74,45.35a.34.34,0,1,1,.36-.14A.34.34,0,0,1,43.74,45.35Z"/><ellipse class="cls-18" cx="47.71" cy="51.03" rx="1.37" ry="1.06" transform="translate(-21.37 61.44) rotate(-55.5)"/><path class="cls-22" d="M47.17,52.11a.94.94,0,0,1,0-1.26c.32-.46.86-.66,1.19-.44a.94.94,0,0,1,0,1.26C48,52.13,47.49,52.33,47.17,52.11Z"/><path class="cls-20" d="M47.3,50.73a.34.34,0,1,1,.36-.14A.34.34,0,0,1,47.3,50.73Z"/><ellipse class="cls-18" cx="50.53" cy="48.99" rx="1.37" ry="1.06" transform="translate(-18.47 62.89) rotate(-55.5)"/><path class="cls-23" d="M50,50.08a.94.94,0,0,1,0-1.26c.32-.46.86-.66,1.19-.44a.94.94,0,0,1,0,1.26C50.85,50.1,50.31,50.3,50,50.08Z"/><path class="cls-20" d="M50.12,48.7a.34.34,0,1,1,.36-.14A.34.34,0,0,1,50.12,48.7Z"/><ellipse class="cls-18" cx="44.73" cy="43.76" rx="1.37" ry="1.06" transform="translate(-16.66 55.84) rotate(-55.5)"/><path class="cls-31" d="M44.19,44.84a.94.94,0,0,1,0-1.26c.32-.46.86-.66,1.19-.44a.94.94,0,0,1,0,1.26C45.06,44.86,44.51,45.06,44.19,44.84Z"/><path class="cls-20" d="M44.33,43.46a.34.34,0,1,1,.36-.14A.34.34,0,0,1,44.33,43.46Z"/><ellipse class="cls-18" cx="49.64" cy="46.35" rx="1.37" ry="1.06" transform="matrix(0.57, -0.82, 0.82, 0.57, -16.67, 61)"/><path class="cls-32" d="M49.09,47.43a.94.94,0,0,1,0-1.26c.32-.46.86-.66,1.19-.44a.94.94,0,0,1,0,1.26C50,47.45,49.42,47.65,49.09,47.43Z"/><path class="cls-20" d="M49.23,46a.34.34,0,1,1,.36-.14A.34.34,0,0,1,49.23,46Z"/><ellipse class="cls-18" cx="50.96" cy="47.09" rx="1.37" ry="1.06" transform="translate(-16.71 62.41) rotate(-55.5)"/><path class="cls-27" d="M50.42,48.17a.94.94,0,0,1,0-1.26c.32-.46.86-.66,1.18-.44a.94.94,0,0,1,0,1.26C51.28,48.19,50.74,48.39,50.42,48.17Z"/><path class="cls-20" d="M50.55,46.79a.34.34,0,1,1,.36-.14A.34.34,0,0,1,50.55,46.79Z"/><ellipse class="cls-18" cx="46.52" cy="43.08" rx="1.37" ry="1.06" transform="translate(-15.34 57.02) rotate(-55.5)"/><path class="cls-19" d="M46,44.17a.94.94,0,0,1,0-1.26c.32-.46.86-.66,1.19-.44a.94.94,0,0,1,0,1.26C46.84,44.19,46.3,44.39,46,44.17Z"/><path class="cls-20" d="M46.11,42.78a.34.34,0,1,1,.36-.14A.34.34,0,0,1,46.11,42.78Z"/><ellipse class="cls-18" cx="43.64" cy="51.01" rx="1.37" ry="1.06" transform="matrix(0.57, -0.82, 0.82, 0.57, -23.12, 58.09)"/><path class="cls-24" d="M43.1,52.1a.94.94,0,0,1,0-1.26c.32-.46.86-.66,1.19-.44a.94.94,0,0,1,0,1.26C44,52.12,43.43,52.32,43.1,52.1Z"/><path class="cls-20" d="M43.24,50.72a.34.34,0,1,1,.36-.14A.34.34,0,0,1,43.24,50.72Z"/><ellipse class="cls-18" cx="43.67" cy="48.42" rx="1.37" ry="1.06" transform="translate(-20.97 56.98) rotate(-55.5)"/><path class="cls-33" d="M43.12,49.5a.94.94,0,0,1,0-1.26c.32-.46.86-.66,1.18-.44a.94.94,0,0,1,0,1.26C44,49.52,43.45,49.73,43.12,49.5Z"/><path class="cls-20" d="M43.26,48.12a.34.34,0,1,1,.36-.14A.34.34,0,0,1,43.26,48.12Z"/><ellipse class="cls-18" cx="45.75" cy="50.12" rx="1.37" ry="1.06" transform="translate(-21.47 59.44) rotate(-55.5)"/><path class="cls-19" d="M45.21,51.21a.94.94,0,0,1,0-1.26c.32-.46.86-.66,1.18-.44a.94.94,0,0,1,0,1.26C46.08,51.23,45.53,51.43,45.21,51.21Z"/><path class="cls-20" d="M45.35,49.82a.34.34,0,1,1,.36-.14A.34.34,0,0,1,45.35,49.82Z"/><ellipse class="cls-18" cx="48.97" cy="48.1" rx="1.37" ry="1.06" transform="translate(-18.4 61.22) rotate(-55.5)"/><path class="cls-34" d="M48.43,49.18a.94.94,0,0,1,0-1.26c.32-.46.86-.66,1.18-.44a.94.94,0,0,1,0,1.26C49.3,49.2,48.76,49.41,48.43,49.18Z"/><path class="cls-20" d="M48.57,47.8a.34.34,0,1,1,.36-.14A.34.34,0,0,1,48.57,47.8Z"/><ellipse class="cls-18" cx="44.95" cy="46.99" rx="1.37" ry="1.06" transform="translate(-19.24 57.42) rotate(-55.5)"/><path class="cls-27" d="M44.41,48.08a.94.94,0,0,1,0-1.26c.32-.46.86-.66,1.18-.44a.94.94,0,0,1,0,1.26C45.27,48.1,44.73,48.3,44.41,48.08Z"/><path class="cls-20" d="M44.54,46.69a.34.34,0,1,1,.36-.14A.34.34,0,0,1,44.54,46.69Z"/><ellipse class="cls-18" cx="45.3" cy="48.9" rx="1.37" ry="1.06" transform="translate(-20.65 58.54) rotate(-55.5)"/><path class="cls-35" d="M44.76,50a.94.94,0,0,1,0-1.26c.32-.46.86-.66,1.18-.44a.94.94,0,0,1,0,1.26C45.63,50,45.08,50.21,44.76,50Z"/><path class="cls-20" d="M44.9,48.6a.34.34,0,1,1,.36-.14A.34.34,0,0,1,44.9,48.6Z"/><ellipse class="cls-18" cx="47.38" cy="48.83" rx="1.37" ry="1.06" transform="translate(-19.7 60.22) rotate(-55.5)"/><path class="cls-36" d="M46.84,49.92a.94.94,0,0,1,0-1.26c.32-.46.86-.66,1.19-.44a.94.94,0,0,1,0,1.26C47.71,49.94,47.16,50.14,46.84,49.92Z"/><path class="cls-20" d="M47,48.53a.34.34,0,1,1,.36-.14A.34.34,0,0,1,47,48.53Z"/><ellipse class="cls-18" cx="47.04" cy="46.77" rx="1.37" ry="1.06" transform="translate(-18.15 59.04) rotate(-55.5)"/><path class="cls-37" d="M46.5,47.85a.94.94,0,0,1,0-1.26c.32-.46.86-.66,1.19-.44a.94.94,0,0,1,0,1.26C47.36,47.87,46.82,48.08,46.5,47.85Z"/><path class="cls-20" d="M46.63,46.47a.34.34,0,1,1,.36-.14A.34.34,0,0,1,46.63,46.47Z"/><ellipse class="cls-18" cx="45.69" cy="45.13" rx="1.37" ry="1.06" transform="matrix(0.57, -0.82, 0.82, 0.57, -17.38, 57.22)"/><path class="cls-38" d="M45.15,46.21a.94.94,0,0,1,0-1.26c.32-.46.86-.66,1.19-.44a.94.94,0,0,1,0,1.26C46,46.23,45.47,46.44,45.15,46.21Z"/><path class="cls-20" d="M45.28,44.83a.34.34,0,1,1,.36-.14A.34.34,0,0,1,45.28,44.83Z"/><ellipse class="cls-18" cx="48.2" cy="45.08" rx="1.37" ry="1.06" transform="translate(-16.26 59.27) rotate(-55.5)"/><path class="cls-34" d="M47.65,46.17a.94.94,0,0,1,0-1.26c.32-.46.86-.66,1.19-.44a.94.94,0,0,1,0,1.26C48.52,46.19,48,46.39,47.65,46.17Z"/><path class="cls-20" d="M47.79,44.79a.34.34,0,1,1,.36-.14A.34.34,0,0,1,47.79,44.79Z"/><path class="cls-3" d="M37.42,44.31a2.09,2.09,0,0,1-.24-1.51,1.43,1.43,0,0,0,.17-.41,2.2,2.2,0,0,0-.45-.5.79.79,0,0,0-.85-.15.59.59,0,0,0-.19.17l0,.1c-.15.76.19.88.32,1.15S36.52,44.51,36,45c-1.27,1.2-.72,3.79-4.08,5.14a7.89,7.89,0,0,1-4.44.21,14.83,14.83,0,0,0-2.21-.24c-.23,0-.33-.07-.43,0l-.36.59c-.08.14,0,.22.19.49a3.42,3.42,0,0,0,2.35,2.19c5.44,2,11-1.72,11.39-6.2A3.9,3.9,0,0,0,37.42,44.31Z"/><path class="cls-4" d="M37.19,42.8a1.43,1.43,0,0,0,.17-.41,2.2,2.2,0,0,0-.45-.5,1.21,1.21,0,0,0-.22-.14c0,.5-.26,1.2-.71,1.12a2.37,2.37,0,0,1,.2.28,2.26,2.26,0,0,1,.14,1.24c.07-.25.34-.21.47,0s0-.72.63-.11A2.09,2.09,0,0,1,37.19,42.8Z"/><path class="cls-4" d="M36.31,44.46h0v0Z"/><path class="cls-4" d="M25,50.62a.89.89,0,0,0,.14-.55c-.13,0-.2,0-.28,0l-.36.59c-.06.1,0,.18.08.33A.85.85,0,0,0,25,50.62Z"/><path class="cls-5" d="M37.42,44.31a2.09,2.09,0,0,1-.24-1.51,1.43,1.43,0,0,0,.17-.41,2.2,2.2,0,0,0-.45-.5,1.11,1.11,0,0,0-.41-.2c0,.1,0,.21-.07.36-.16.82.16.84.27,1.15A2.42,2.42,0,0,1,36.59,45c-.69,1.41,0,4.37-4.42,6.12a8.58,8.58,0,0,1-4.77.22,17.38,17.38,0,0,1-2.48-.94,1.09,1.09,0,0,1-.24,0l-.17.28c-.08.14,0,.22.19.49a3.42,3.42,0,0,0,2.35,2.19c5.44,2,11-1.72,11.39-6.2A3.9,3.9,0,0,0,37.42,44.31Z"/><path class="cls-6" d="M37.19,42.8a1.43,1.43,0,0,0,.17-.41,2.2,2.2,0,0,0-.45-.5,1.11,1.11,0,0,0-.41-.2c0,.1,0,.21-.07.36-.16.82.16.84.27,1.15a2.34,2.34,0,0,1,.09,1.22h0c.14.25,0-.72.63-.11A2.09,2.09,0,0,1,37.19,42.8Z"/><path class="cls-6" d="M24.91,50.44a1.09,1.09,0,0,1-.24,0l-.17.28c-.06.1,0,.18.08.33a.85.85,0,0,0,.43-.4l.07-.15A.44.44,0,0,0,24.91,50.44Z"/><ellipse class="cls-7" cx="24.75" cy="50.47" rx="0.36" ry="0.14" transform="translate(-31.35 46.88) rotate(-60.22)"/><path class="cls-41" d="M8.76,47c.18-1.83,3.17-1.4,4.13-2.06,1.86-1.27,3.2-2.82,5.46-2.5a3,3,0,0,1,2.86,2.52c.18.78,3,4.11-2.86,6.1C12.67,52.95,8.53,49.37,8.76,47Z"/><path class="cls-42" d="M16.34,47.23c3.49-1.31,4.47-4.28,2.2-4.63s-3.79,1.65-5.38,2.53c-1.22.67-4,.21-4.21,2C8.8,48.68,12.81,48.55,16.34,47.23Z"/><path class="cls-10" d="M21.32,45.37c-.14-.31-.23-.64-.42-.56s-.23.4-.09.71.4.49.59.41S21.45,45.67,21.32,45.37Z"/><path class="cls-11" d="M22.17,44.91c0-.09-.16-.26-.26-.1a.65.65,0,0,1-.78.34c-.1,0-.12.21,0,.37s.29.32.3.21.72-.23.89-.57C22.35,45,22.2,45,22.17,44.91Z"/><ellipse class="cls-12" cx="17.38" cy="43.35" rx="0.6" ry="0.45" transform="translate(-11.13 6.36) rotate(-15.77)"/><ellipse class="cls-12" cx="9.66" cy="46.66" rx="0.38" ry="0.28" transform="translate(-26.28 15.38) rotate(-37.27)"/><path class="cls-11" d="M8.32,51.44a6.17,6.17,0,0,0,6.6,1.38,6.17,6.17,0,0,0,4.41-5.1Z"/><path class="cls-13" d="M8.32,51.44c1.37,1.48,4,2,6.52,1.13s4.3-2.85,4.5-4.85Z"/><path class="cls-14" d="M8.32,51.44c1.07.61,3.45.5,6-.36s4.51-2.22,5-3.35A111.87,111.87,0,0,0,8.32,51.44Z"/></svg>