<svg id="Layer_1" data-name="Layer 1" xmlns="http://www.w3.org/2000/svg" xmlns:xlink="http://www.w3.org/1999/xlink" viewBox="0 0 94.76 95.22"><defs><style>.cls-1{fill:url(#radial-gradient);}.cls-2{fill:url(#linear-gradient);}.cls-3{fill:url(#linear-gradient-2);}.cls-4{fill:#78866c;}.cls-10,.cls-11,.cls-12,.cls-13,.cls-14,.cls-15,.cls-16,.cls-17,.cls-18,.cls-19,.cls-20,.cls-4,.cls-54,.cls-55,.cls-56,.cls-57,.cls-58,.cls-59,.cls-6,.cls-60,.cls-61,.cls-62,.cls-63,.cls-7,.cls-8,.cls-9{fill-rule:evenodd;}.cls-10,.cls-5{fill:#303c36;}.cls-6{fill:#84a18f;}.cls-7{fill:#9dad90;}.cls-8{fill:#192121;}.cls-9{fill:#333633;}.cls-11{fill:#384240;}.cls-12{fill:#242424;}.cls-13{fill:#4b5c5a;}.cls-14,.cls-50{fill:#fff;}.cls-15{fill:#3e4b4a;}.cls-16{fill:#151515;}.cls-18{fill:#f9fae8;}.cls-19{fill:#0e1f26;}.cls-20{fill:#c9e8e7;}.cls-21{fill:url(#radial-gradient-2);}.cls-22{fill:url(#linear-gradient-3);}.cls-23{fill:url(#linear-gradient-4);}.cls-24{fill:url(#linear-gradient-5);}.cls-25{fill:url(#linear-gradient-6);}.cls-26{fill:url(#linear-gradient-7);}.cls-27{fill:url(#linear-gradient-8);}.cls-28{fill:url(#linear-gradient-9);}.cls-29{fill:url(#linear-gradient-10);}.cls-30{fill:url(#linear-gradient-11);}.cls-31{fill:url(#linear-gradient-12);}.cls-32{fill:url(#linear-gradient-13);}.cls-33{fill:url(#linear-gradient-14);}.cls-34{fill:url(#linear-gradient-15);}.cls-35{fill:url(#linear-gradient-16);}.cls-36{fill:url(#linear-gradient-17);}.cls-37{fill:url(#linear-gradient-18);}.cls-38{fill:url(#linear-gradient-19);}.cls-39{fill:url(#linear-gradient-20);}.cls-40{fill:url(#linear-gradient-21);}.cls-41{fill:url(#radial-gradient-3);}.cls-42{fill:url(#radial-gradient-4);}.cls-43{fill:url(#linear-gradient-22);}.cls-44{fill:url(#linear-gradient-23);}.cls-45{fill:url(#linear-gradient-24);}.cls-46{fill:url(#linear-gradient-25);}.cls-47{fill:url(#linear-gradient-26);}.cls-48{fill:url(#linear-gradient-27);}.cls-49{fill:#221f1f;}.cls-51{fill:url(#radial-gradient-5);}.cls-52{fill:url(#linear-gradient-28);}.cls-53{fill:url(#linear-gradient-29);}.cls-54{fill:#2c2b2a;}.cls-55{fill:url(#radial-gradient-6);}.cls-56{fill:#ff9341;}.cls-57{fill:#9a4800;}.cls-58{fill:#6f3207;}.cls-59{fill:#333;}.cls-60{fill:#ccc;}.cls-61{fill:#1a1a1a;}.cls-62{fill:#ff9898;}.cls-63{fill:#4d4d4d;}</style><radialGradient id="radial-gradient" cx="5.24" cy="-510.04" r="29.82" gradientTransform="translate(-498.89 69.02) rotate(90) scale(1.02 1.02)" gradientUnits="userSpaceOnUse"><stop offset="0" stop-color="#afce22"/><stop offset="1" stop-color="#81bf2e"/></radialGradient><linearGradient id="linear-gradient" x1="-25.91" y1="-486.26" x2="-12.61" y2="-484.64" gradientTransform="translate(-458.86 66.61) rotate(90)" gradientUnits="userSpaceOnUse"><stop offset="0" stop-color="#81bf2e"/><stop offset="0.36" stop-color="#98c728"/><stop offset="0.72" stop-color="#a9cc24"/><stop offset="1" stop-color="#afce22"/></linearGradient><linearGradient id="linear-gradient-2" x1="1.3" y1="-513.32" x2="2.38" y2="-499.47" xlink:href="#linear-gradient"/><radialGradient id="radial-gradient-2" cx="5.24" cy="-550.91" r="29.82" gradientTransform="translate(-498.89 69.02) rotate(90) scale(1.02 1.02)" gradientUnits="userSpaceOnUse"><stop offset="0" stop-color="#ffe035"/><stop offset="1" stop-color="#ffc62b"/></radialGradient><linearGradient id="linear-gradient-3" x1="-25.91" y1="-527.91" x2="-12.6" y2="-526.28" gradientTransform="translate(-458.86 66.61) rotate(90)" gradientUnits="userSpaceOnUse"><stop offset="0" stop-color="#ffd138"/><stop offset="0.44" stop-color="#ffda36"/><stop offset="1" stop-color="#ffe035"/></linearGradient><linearGradient id="linear-gradient-4" x1="1.3" y1="-554.96" x2="2.38" y2="-541.11" xlink:href="#linear-gradient-3"/><linearGradient id="linear-gradient-5" x1="-1930.98" y1="61.28" x2="-1930.27" y2="64.74" gradientTransform="translate(1981)" gradientUnits="userSpaceOnUse"><stop offset="0" stop-color="#84c241"/><stop offset="0.02" stop-color="#89c441"/><stop offset="0.17" stop-color="#a3cd43"/><stop offset="0.3" stop-color="#b3d345"/><stop offset="0.4" stop-color="#b9d545"/><stop offset="1" stop-color="#456f34"/></linearGradient><linearGradient id="linear-gradient-6" x1="-1931.65" y1="72.44" x2="-1928.53" y2="73.22" gradientTransform="translate(1981)" gradientUnits="userSpaceOnUse"><stop offset="0" stop-color="#456f34"/><stop offset="0.6" stop-color="#b9d545"/><stop offset="0.7" stop-color="#b3d345"/><stop offset="0.83" stop-color="#a3cd43"/><stop offset="0.98" stop-color="#89c441"/><stop offset="1" stop-color="#84c241"/></linearGradient><linearGradient id="linear-gradient-7" x1="-1931.25" y1="73.34" x2="-1932.33" y2="78.17" gradientTransform="translate(1981)" gradientUnits="userSpaceOnUse"><stop offset="0" stop-color="#b9d545"/><stop offset="0.24" stop-color="#d5b136"/><stop offset="0.47" stop-color="#ec922a"/><stop offset="0.61" stop-color="#f58725"/><stop offset="1" stop-color="#965624"/></linearGradient><linearGradient id="linear-gradient-8" x1="-1911.44" y1="66.52" x2="-1909.07" y2="66.52" gradientTransform="translate(1981)" gradientUnits="userSpaceOnUse"><stop offset="0" stop-color="#264b9b"/><stop offset="1" stop-color="#10bef0"/></linearGradient><linearGradient id="linear-gradient-9" x1="-1908.35" y1="67.62" x2="-1905.8" y2="67.62" xlink:href="#linear-gradient-8"/><linearGradient id="linear-gradient-10" x1="-1910.78" y1="67.02" x2="-1904.7" y2="66.4" xlink:href="#linear-gradient-6"/><linearGradient id="linear-gradient-11" x1="-1932.28" y1="69.78" x2="-1931.62" y2="67.46" xlink:href="#linear-gradient-6"/><linearGradient id="linear-gradient-12" x1="-1932.09" y1="68.92" x2="-1930.23" y2="62.35" xlink:href="#linear-gradient-6"/><linearGradient id="linear-gradient-13" x1="-1920.64" y1="75.39" x2="-1917.53" y2="64.4" xlink:href="#linear-gradient-6"/><linearGradient id="linear-gradient-14" x1="-1917.29" y1="76.01" x2="-1916.71" y2="70.71" xlink:href="#linear-gradient-8"/><linearGradient id="linear-gradient-15" x1="-7194.38" y1="75.06" x2="-7186.96" y2="75.06" gradientTransform="matrix(-1, 0, 0, 1, -7119.35, 0)" xlink:href="#linear-gradient-8"/><linearGradient id="linear-gradient-16" x1="-1911.19" y1="82.62" x2="-1915.21" y2="84.3" xlink:href="#linear-gradient-7"/><linearGradient id="linear-gradient-17" x1="-1911.53" y1="82.56" x2="-1914.85" y2="80.25" xlink:href="#linear-gradient-7"/><linearGradient id="linear-gradient-18" x1="-1912.8" y1="74.1" x2="-1909.27" y2="76.26" xlink:href="#linear-gradient-6"/><linearGradient id="linear-gradient-19" x1="-1906.38" y1="78.98" x2="-1904.28" y2="82.46" xlink:href="#linear-gradient-6"/><linearGradient id="linear-gradient-20" x1="-1907.51" y1="75.82" x2="-1906.27" y2="79.03" xlink:href="#linear-gradient-6"/><linearGradient id="linear-gradient-21" x1="-7172.01" y1="65.47" x2="-7166.51" y2="65.47" gradientTransform="matrix(-1, 0, 0, 1, -7119.35, 0)" xlink:href="#linear-gradient-5"/><radialGradient id="radial-gradient-3" cx="-7516.74" cy="62.68" r="2.27" gradientTransform="matrix(-1.25, 0, 0, 1.02, -9337.11, 1.13)" gradientUnits="userSpaceOnUse"><stop offset="0" stop-color="#3066af"/><stop offset="0.71" stop-color="#2b60ab"/><stop offset="1" stop-color="#285ca8"/></radialGradient><radialGradient id="radial-gradient-4" cx="-7516.68" cy="62.8" r="2.12" gradientTransform="matrix(-1.25, 0, 0, 1.02, -9337.11, 1.13)" gradientUnits="userSpaceOnUse"><stop offset="0" stop-color="#ed4523"/><stop offset="0.13" stop-color="#e74322"/><stop offset="0.3" stop-color="#d73e20"/><stop offset="0.49" stop-color="#bb351d"/><stop offset="0.69" stop-color="#952918"/><stop offset="0.91" stop-color="#651912"/><stop offset="1" stop-color="#4e120f"/></radialGradient><linearGradient id="linear-gradient-22" x1="-1918.12" y1="70.41" x2="-1919.02" y2="74.51" gradientTransform="translate(1981)" gradientUnits="userSpaceOnUse"><stop offset="0" stop-color="#fbed34"/><stop offset="0.17" stop-color="#e9e739"/><stop offset="0.49" stop-color="#cfdd3f"/><stop offset="0.78" stop-color="#bfd744"/><stop offset="1" stop-color="#b9d545"/></linearGradient><linearGradient id="linear-gradient-23" x1="-7192.24" y1="74.44" x2="-7184.83" y2="74.44" gradientTransform="matrix(-1, 0, 0, 1, -7119.35, 0)" xlink:href="#linear-gradient-8"/><linearGradient id="linear-gradient-24" x1="-1923.06" y1="82.23" x2="-1928.17" y2="85.69" xlink:href="#linear-gradient-7"/><linearGradient id="linear-gradient-25" x1="-1926.19" y1="73.89" x2="-1919.89" y2="72.1" xlink:href="#linear-gradient-6"/><linearGradient id="linear-gradient-26" x1="-1923.6" y1="78.63" x2="-1920" y2="80.16" xlink:href="#linear-gradient-6"/><linearGradient id="linear-gradient-27" x1="-1923.47" y1="74.66" x2="-1920.51" y2="71.77" xlink:href="#linear-gradient-8"/><radialGradient id="radial-gradient-5" cx="-35.72" cy="-530.26" r="29.85" gradientTransform="translate(-498.24 68.99) rotate(90) scale(1.02 1.02)" gradientUnits="userSpaceOnUse"><stop offset="0" stop-color="#29e26f"/><stop offset="1" stop-color="#29c865"/></radialGradient><linearGradient id="linear-gradient-28" x1="-67.61" y1="-507.09" x2="-54.31" y2="-505.46" gradientTransform="translate(-458.86 66.61) rotate(90)" gradientUnits="userSpaceOnUse"><stop offset="0" stop-color="#29d372"/><stop offset="0.44" stop-color="#29dc70"/><stop offset="1" stop-color="#29e26f"/></linearGradient><linearGradient id="linear-gradient-29" x1="-40.42" y1="-534.14" x2="-39.33" y2="-520.3" xlink:href="#linear-gradient-28"/><radialGradient id="radial-gradient-6" cx="44.14" cy="36.76" r="21.45" gradientTransform="translate(0.01 0.05)" gradientUnits="userSpaceOnUse"><stop offset="0" stop-color="#f45500"/><stop offset="0.05" stop-color="#e85400"/><stop offset="0.22" stop-color="#c95200"/><stop offset="0.39" stop-color="#b05000"/><stop offset="0.58" stop-color="#9f4e00"/><stop offset="0.77" stop-color="#944d00"/><stop offset="1" stop-color="#914d00"/></radialGradient></defs><title>group-three</title><rect class="cls-1" y="53.5" width="41.71" height="41.72"/><polygon class="cls-2" points="11.41 41.7 0 53.5 41.71 53.5 53.12 41.7 11.41 41.7"/><polygon class="cls-3" points="53.12 41.7 41.71 53.5 41.71 95.22 53.12 83.41 53.12 41.7"/><path class="cls-4" d="M28.76,76.69C25.95,80.83,19.24,86.16,13,88.25c-4.67,1.56-10.39,6-11,5.54-2.23-1.51,1.67-8.85,6.35-13,2.23-2,6.23-9.31,9.95-13.86S30.5,58.26,30.71,58c7.6,2.2,4.32,9.43-2,18.66"/><path class="cls-5" d="M21.88,83.63a33.43,33.43,0,0,1-8.83,4.74,42.75,42.75,0,0,0-7.61,3.87C3.63,93.32,2.28,94.13,2,93.9a1.37,1.37,0,0,1-.26-.23,3.09,3.09,0,0,1-.21-2.78,16.45,16.45,0,0,1,1.85-4.1,27.22,27.22,0,0,1,5-6.05c1.17-1,2.85-3.6,4.72-6.43,1.66-2.52,3.47-5.27,5.22-7.42a26.5,26.5,0,0,1,5.51-4.73c2.41-1.64,4.31-2.48,6.37-4.51A10,10,0,0,1,34.41,55a5.75,5.75,0,0,1,4.28.43l.37.2.34.24a3.72,3.72,0,0,1,.84.74.64.64,0,0,1,.17.63l0,.06,0,0a7.12,7.12,0,0,1-.62,3.19c-.09.28-.19.55-.28.83l-.15.49a9.2,9.2,0,0,1-2.06,4,16.22,16.22,0,0,1-1.39,1.25c-2.93,2.3-2.11,1.85-4.09,5.18-.85,1.42-1.82,2.92-2.87,4.47a30.57,30.57,0,0,1-7,6.85m9.74-11.4a39.77,39.77,0,0,0,2.13-4v0h0a7.47,7.47,0,0,0,2-1.15,16.14,16.14,0,0,0,1.37-1.24,9.1,9.1,0,0,0,2-4l.15-.49c.09-.28.19-.56.28-.84a6.94,6.94,0,0,0,.61-3.14v0l0-.06,0-.06c.06-.12,0-.29-.15-.47a3.56,3.56,0,0,0-.8-.7h0L39,55.76l-.36-.19h0a5.18,5.18,0,0,0-4-.31,10.17,10.17,0,0,0-4.36,2.61q-.28.27-.52.55t-.48.58h0c-1.34.73-3.38,1.88-5.43,3.27A26.38,26.38,0,0,0,18.34,67c-1.74,2.14-3.55,4.89-5.21,7.41-1.87,2.85-3.55,5.4-4.74,6.46a27.09,27.09,0,0,0-4.93,6,16.32,16.32,0,0,0-1.84,4.06,3,3,0,0,0,.18,2.63,1.2,1.2,0,0,0,.23.2c.25.17,1.57-.61,3.34-1.67A42.84,42.84,0,0,1,13,88.23a33.31,33.31,0,0,0,8.79-4.72,30.43,30.43,0,0,0,7-6.82C29.81,75.14,30.78,73.64,31.63,72.22Z"/><path class="cls-6" d="M27.35,75.21A48.93,48.93,0,0,1,12.15,87.39c-4.22,2-9.76,6.64-10.26,6.36C.2,92.82,4.61,86,9.23,81.76c2.2-2,6.69-8.82,10.54-13.24s11.77-9.17,12-9.4c6.18.71,2.31,7.32-4.41,16.08"/><path class="cls-7" d="M27.39,75.25A62,62,0,0,1,12.48,87.75C8.49,90,2.52,93.21,2.1,93c-1.41-.65,3.79-5.67,8.37-9.95,2.18-2,6.93-8.57,10.85-12.92s11.51-9.44,11.73-9.67c5.46-.05,1.28,6.25-5.66,14.77"/><path class="cls-8" d="M3.81,91.38c-.64.43-1,1.08-1.72,1.66C6.82,86.9,14.5,81.56,19.83,73.57c1.07-1.61,7.53-9.18,7.35-10.14a9.8,9.8,0,0,1,3-5.66c2.73-2.69,6.28-3.59,8.45-2.3-2.19-.86-5.39.1-7.9,2.57a9.79,9.79,0,0,0-3,5.66c.18,1-6.27,8.53-7.35,10.14C15.57,81.05,8.6,86,3.81,91.38"/><path class="cls-9" d="M31,68.25A84.06,84.06,0,0,0,20.05,79.12a41.56,41.56,0,0,1-10.4,9.1C7.38,89.65,5.11,90.61,2.09,93c4.73-6.14,12.72-11.32,18-19.31a109.81,109.81,0,0,1,7.47-9.59q-.07-.27-.13-.55a9.79,9.79,0,0,1,3-5.66c2.9-2.86,6.72-3.69,8.84-2,.6.41,1.13.94,1,1.27l-.06.12c.2,1.12-.42,2.53-.9,4a10.31,10.31,0,0,1-2.2,4.49C36,66.84,33.62,69.21,31,68.25"/><path class="cls-10" d="M32,68.45l-.12,0,0,0H32M21,73.88a109.73,109.73,0,0,1,7.48-9.59q-.07-.27-.13-.55a9.79,9.79,0,0,1,3-5.66A8.88,8.88,0,0,1,38,55.22c-2.17-.65-5.18.34-7.56,2.68a9.79,9.79,0,0,0-3,5.66c.18,1-6.27,8.53-7.35,10.14C14.82,81.7,6.83,86.88,2.1,93A31.79,31.79,0,0,1,4.77,91.1C9.55,85.82,16.34,80.95,21,73.88Z"/><path class="cls-11" d="M30.93,68.29a83,83,0,0,0-10.86,10.8,41.09,41.09,0,0,1-10.34,9C7.46,89.55,5.21,90.5,2.2,92.91A38.54,38.54,0,0,1,5,89.68c1.6-1,3-1.7,4.43-2.6A41.09,41.09,0,0,0,19.8,78a83.07,83.07,0,0,1,10.86-10.8c2.64,1,5-1.39,6.12-2.45A10.22,10.22,0,0,0,39,60.32c.89-2.8.91-1.9,1-1.59s0,.31-.69,2.63A10.22,10.22,0,0,1,37,65.84c-1.07,1.05-3.47,3.4-6.12,2.45"/><path class="cls-12" d="M35.73,66.75c-2.33,1.87-5.27,1.59-6.57-.63s-.45-5.52,1.88-7.39,5.27-1.59,6.57.63.45,5.52-1.88,7.39"/><path class="cls-13" d="M29.31,61.06c-.09.51,0,1.36-.17,1.35s-.32-.86-.23-1.37.42-1.06.63-1-.13.52-.23,1"/><path class="cls-14" d="M29.18,60.71c.06,0,.08,0,.12-.05a.63.63,0,0,0,.09-.23c-.12-.21-.52.21-.21.28"/><path class="cls-14" d="M29,60.86s0,0,0,0a.18.18,0,0,0,0-.07c-.05,0-.11.11,0,.1"/><path class="cls-9" d="M36,65c-1.79,1.78-4.27,1.8-5.53,0s-.84-4.65,1-6.44,4.27-1.8,5.53,0,.83,4.65-1,6.44"/><path class="cls-15" d="M36,63.73c-1.54,1.54-3.68,1.55-4.77,0a4.51,4.51,0,0,1,.83-5.55c1.55-1.54,3.68-1.55,4.77,0A4.51,4.51,0,0,1,36,63.73"/><path class="cls-13" d="M33.88,61.22c-.74,1.11-1.8,1.65-2.36,1.21s-.42-1.7.33-2.81,1.8-1.65,2.36-1.21.41,1.7-.33,2.81"/><path class="cls-13" d="M39.43,58.64a1.77,1.77,0,0,1,.69-.19,3.33,3.33,0,0,1-.06.48h0a2.6,2.6,0,0,0-.6,0,2.29,2.29,0,0,0,0-.26"/><path class="cls-13" d="M39.13,58.08a2,2,0,0,0,1.07-.91c.26-.54-1.42-1.57-1.92-1.51.94.42,1.52,1.14,1.32,1.55-.36.74-.22.3-.47.87"/><path class="cls-16" d="M39.12,56.74c-.12,0-.23,0-.23.1s.1.13.23.14.23,0,.23-.1-.1-.13-.23-.14"/><path class="cls-17" d="M39.14,58.65a3.32,3.32,0,0,0,1.17-1.51.56.56,0,0,0,0-.17h0a3.72,3.72,0,0,1-1.51,1.76l0,0c.28.2.78-.3,1.45-.4V58.3a3.36,3.36,0,0,0-1.09.35"/><path class="cls-18" d="M35.57,56.11a1.23,1.23,0,0,0-.63,1.66,1.33,1.33,0,0,0,1.78.41,1.23,1.23,0,0,0,.63-1.66,1.33,1.33,0,0,0-1.78-.41"/><path class="cls-13" d="M35.59,56.25A1.1,1.1,0,0,0,35,57.7a1.19,1.19,0,0,0,1.6.31,1.1,1.1,0,0,0,.61-1.45,1.19,1.19,0,0,0-1.6-.31"/><path class="cls-19" d="M35.78,56.45a.86.86,0,0,0-.47,1.13.92.92,0,0,0,1.24.24A.86.86,0,0,0,37,56.7a.92.92,0,0,0-1.24-.24"/><path class="cls-18" d="M36.29,56.21a.25.25,0,0,0-.08.36.27.27,0,0,0,.35.14.25.25,0,0,0,.08-.36.27.27,0,0,0-.35-.14"/><path class="cls-18" d="M37,57.26a.13.13,0,0,0,0,.19.14.14,0,0,0,.18.08.13.13,0,0,0,0-.19.14.14,0,0,0-.18-.08"/><path class="cls-18" d="M35.57,57.55a.36.36,0,0,0-.08.51.39.39,0,0,0,.48.21.36.36,0,0,0,.08-.51.39.39,0,0,0-.48-.21"/><path class="cls-13" d="M35,55.53a.47.47,0,0,0-.25.59c.08.14.22,0,.49-.09s.57-.17.49-.31a.7.7,0,0,0-.73-.19"/><path class="cls-20" d="M35.1,55.59a.23.23,0,0,0-.12.28c0,.07.1,0,.23,0s.27-.08.23-.15a.33.33,0,0,0-.35-.09"/><path class="cls-10" d="M23.59,63.22a.16.16,0,0,1,.18-.15.19.19,0,0,1,.16.19.15.15,0,0,1-.18.15.19.19,0,0,1-.16-.19m.61-1a.1.1,0,0,1,.11.08.08.08,0,0,1-.07.1.1.1,0,0,1-.11-.08A.09.09,0,0,1,24.2,62.18Zm-1.84,1.48a.13.13,0,0,1,.11.14.11.11,0,0,1-.13.1.13.13,0,0,1-.11-.14A.11.11,0,0,1,22.36,63.66Zm-.05,1.24a.14.14,0,0,1,0,.19.12.12,0,0,1-.18,0,.14.14,0,0,1,0-.19A.12.12,0,0,1,22.31,64.89Zm-.78-.4a.16.16,0,0,1,.14.17.13.13,0,0,1-.15.13.16.16,0,0,1-.14-.17A.13.13,0,0,1,21.53,64.5ZM25.44,62a.23.23,0,0,1,.06.31.21.21,0,0,1-.3,0,.23.23,0,0,1-.06-.31A.21.21,0,0,1,25.44,62Zm.58-.9a.22.22,0,0,1,.19.23.18.18,0,0,1-.21.17.22.22,0,0,1-.19-.23A.18.18,0,0,1,26,61.1Zm1.23-.47a.16.16,0,0,1,.09.19.13.13,0,0,1-.18.08.16.16,0,0,1-.09-.19A.13.13,0,0,1,27.25,60.63Zm-7.18,5.28a.13.13,0,0,1,.07.15.11.11,0,0,1-.14.06.13.13,0,0,1-.07-.15A.11.11,0,0,1,20.07,65.91Zm.77,0a.2.2,0,0,1,.17.2.16.16,0,0,1-.19.16.2.2,0,0,1-.17-.2A.16.16,0,0,1,20.84,65.88Zm-1.64,1a.21.21,0,0,1,.23.17.18.18,0,0,1-.15.22.21.21,0,0,1-.23-.17A.18.18,0,0,1,19.2,66.93Zm-1.1.84a.15.15,0,0,1,.13.16.12.12,0,0,1-.14.12.15.15,0,0,1-.13-.16A.12.12,0,0,1,18.1,67.77Zm.48.89a.13.13,0,0,1,.11.13.1.1,0,0,1-.12.1.13.13,0,0,1-.11-.13A.1.1,0,0,1,18.58,68.66Zm0-1.76a.1.1,0,0,1,.06.12.08.08,0,0,1-.11,0,.1.1,0,0,1-.06-.12A.08.08,0,0,1,18.57,66.9Zm-1.27,2.56a.22.22,0,0,1,.24.18.18.18,0,0,1-.15.23.22.22,0,0,1-.24-.18A.18.18,0,0,1,17.31,69.46ZM17,68.62a.17.17,0,0,1,.14.17.14.14,0,0,1-.16.13.17.17,0,0,1-.14-.17A.14.14,0,0,1,17,68.62Zm-1.38,3.31a.38.38,0,0,1,.11.51.34.34,0,0,1-.49.07.38.38,0,0,1-.11-.51A.34.34,0,0,1,15.65,71.93Zm.09-.88a.18.18,0,0,1,.16.19.15.15,0,0,1-.17.14.18.18,0,0,1-.16-.19A.15.15,0,0,1,15.74,71ZM13.8,74.23a.16.16,0,0,1,0,.22.15.15,0,0,1-.21,0,.16.16,0,0,1,0-.22A.15.15,0,0,1,13.8,74.23Zm-1.52,2.71a.27.27,0,0,1,.16.32.22.22,0,0,1-.31.13.27.27,0,0,1-.16-.32A.22.22,0,0,1,12.29,76.95Zm.47-1.56a.24.24,0,0,1,.3.12.21.21,0,0,1-.1.3.24.24,0,0,1-.3-.12A.22.22,0,0,1,12.76,75.39ZM23.33,63.87a.2.2,0,0,1,.21.16.16.16,0,0,1-.14.2.19.19,0,0,1-.21-.16A.16.16,0,0,1,23.33,63.87Z"/><path class="cls-10" d="M27.93,76.53a.16.16,0,0,0,.16-.17.19.19,0,0,0-.18-.18.16.16,0,0,0-.16.17.19.19,0,0,0,.18.18M29,76a.1.1,0,0,0-.07-.12.08.08,0,0,0-.11.06.1.1,0,0,0,.07.12A.08.08,0,0,0,29,76Zm-1.58,1.76a.13.13,0,0,0-.13-.12.11.11,0,0,0-.11.12.13.13,0,0,0,.13.12A.11.11,0,0,0,27.41,77.74Zm-1.22,0a.14.14,0,0,0-.18-.05.13.13,0,0,0,0,.18.14.14,0,0,0,.18.05A.13.13,0,0,0,26.19,77.7Zm.34.81a.16.16,0,0,0-.16-.15.13.13,0,0,0-.14.15.16.16,0,0,0,.15.15A.13.13,0,0,0,26.53,78.52Zm2.73-3.77a.23.23,0,0,0-.3-.09.21.21,0,0,0-.06.3.23.23,0,0,0,.3.09A.21.21,0,0,0,29.26,74.74Zm.93-.52A.22.22,0,0,0,30,74a.18.18,0,0,0-.18.2.22.22,0,0,0,.21.2A.18.18,0,0,0,30.19,74.22ZM30.73,73a.16.16,0,0,0-.18-.11.14.14,0,0,0-.09.18.16.16,0,0,0,.18.11A.14.14,0,0,0,30.73,73ZM25,79.9a.12.12,0,0,0-.15-.09.11.11,0,0,0-.07.14A.12.12,0,0,0,25,80,.11.11,0,0,0,25,79.9Zm.08-.78a.2.2,0,0,0-.19-.18.16.16,0,0,0-.17.18.2.2,0,0,0,.19.18A.16.16,0,0,0,25.12,79.12ZM24,80.71a.21.21,0,0,0-.15-.24.18.18,0,0,0-.23.13.21.21,0,0,0,.15.24A.17.17,0,0,0,24,80.71Zm-.9,1.06a.15.15,0,0,0-.14-.14.12.12,0,0,0-.13.14.15.15,0,0,0,.14.14A.12.12,0,0,0,23.07,81.77Zm-.84-.55a.13.13,0,0,0-.12-.12.1.1,0,0,0-.11.11.13.13,0,0,0,.12.12A.1.1,0,0,0,22.23,81.22Zm1.73.13a.1.1,0,0,0-.12-.07.09.09,0,0,0-.06.11.1.1,0,0,0,.11.07A.09.09,0,0,0,24,81.34Zm-2.61,1.1a.22.22,0,0,0-.16-.25.18.18,0,0,0-.23.14.22.22,0,0,0,.16.25A.18.18,0,0,0,21.35,82.44Zm.81.34a.17.17,0,0,0-.16-.16.14.14,0,0,0-.14.15.17.17,0,0,0,.16.16A.14.14,0,0,0,22.16,82.79Zm-3.35,1.16a.37.37,0,0,0-.5-.14.35.35,0,0,0-.1.5.37.37,0,0,0,.5.14A.35.35,0,0,0,18.81,83.95Zm.88,0a.18.18,0,0,0-.17-.17.15.15,0,0,0-.15.16.18.18,0,0,0,.17.17A.15.15,0,0,0,19.68,83.92Zm-3.27,1.73a.16.16,0,0,0-.21-.06.15.15,0,0,0,0,.21.16.16,0,0,0,.21.06A.15.15,0,0,0,16.41,85.66ZM13.63,87a.26.26,0,0,0-.31-.18.23.23,0,0,0-.15.3.26.26,0,0,0,.31.18A.23.23,0,0,0,13.63,87Zm1.57-.37a.24.24,0,0,0-.1-.31.21.21,0,0,0-.3.08.24.24,0,0,0,.1.31A.21.21,0,0,0,15.2,86.63Zm12.08-9.89a.2.2,0,0,0-.14-.22.16.16,0,0,0-.21.12.2.2,0,0,0,.14.22A.16.16,0,0,0,27.28,76.75Z"/><path class="cls-10" d="M10.1,81.92a.15.15,0,0,1-.17.16.19.19,0,0,1-.17-.19.15.15,0,0,1,.17-.16.19.19,0,0,1,.17.19M9.53,83a.1.1,0,0,1-.11-.08.09.09,0,0,1,.07-.11.1.1,0,0,1,.11.08A.09.09,0,0,1,9.53,83Zm1.78-1.55a.13.13,0,0,1-.12-.13.11.11,0,0,1,.12-.11.13.13,0,0,1,.12.13A.11.11,0,0,1,11.31,81.44Zm0-1.24a.14.14,0,0,1,0-.19.12.12,0,0,1,.18,0,.14.14,0,0,1,0,.19A.12.12,0,0,1,11.32,80.2Zm.79.37a.16.16,0,0,1-.14-.16.13.13,0,0,1,.15-.13.16.16,0,0,1,.14.16A.13.13,0,0,1,12.11,80.57ZM8.3,83.21a.23.23,0,0,1-.08-.31.21.21,0,0,1,.3-.05.23.23,0,0,1,.08.31A.21.21,0,0,1,8.3,83.21Zm-.54.93a.22.22,0,0,1-.19-.22.18.18,0,0,1,.2-.18A.22.22,0,0,1,8,84,.18.18,0,0,1,7.76,84.14Zm-1.21.51a.16.16,0,0,1-.1-.19.13.13,0,0,1,.18-.09.16.16,0,0,1,.1.19A.13.13,0,0,1,6.55,84.65Zm7-5.56a.13.13,0,0,1-.08-.15.11.11,0,0,1,.14-.07.13.13,0,0,1,.08.15A.11.11,0,0,1,13.52,79.1Zm-.77.06a.2.2,0,0,1-.17-.2.16.16,0,0,1,.18-.16.2.2,0,0,1,.17.2A.16.16,0,0,1,12.75,79.15ZM14.35,78a.21.21,0,0,1-.23-.16.18.18,0,0,1,.14-.22.21.21,0,0,1,.23.16A.18.18,0,0,1,14.35,78Zm1.07-.88a.15.15,0,0,1-.13-.15.12.12,0,0,1,.14-.12.15.15,0,0,1,.13.15A.12.12,0,0,1,15.42,77.16Zm-.51-.87a.13.13,0,0,1-.11-.13.1.1,0,0,1,.11-.1.13.13,0,0,1,.11.13A.1.1,0,0,1,14.9,76.29ZM15,78.06a.1.1,0,0,1-.06-.12.08.08,0,0,1,.11-.05.1.1,0,0,1,.06.12A.08.08,0,0,1,15,78.06Zm1.17-2.62a.22.22,0,0,1-.24-.17A.19.19,0,0,1,16,75a.22.22,0,0,1,.24.17A.19.19,0,0,1,16.14,75.44Zm.31.83a.17.17,0,0,1-.15-.17.14.14,0,0,1,.15-.14.17.17,0,0,1,.15.17A.14.14,0,0,1,16.45,76.27Zm1.25-3.37a.38.38,0,0,1-.12-.51.34.34,0,0,1,.49-.08.38.38,0,0,1,.12.51A.34.34,0,0,1,17.71,72.9Zm-.05.89a.18.18,0,0,1-.16-.18.15.15,0,0,1,.17-.15.18.18,0,0,1,.16.18A.15.15,0,0,1,17.65,73.79Zm1.81-3.26a.16.16,0,0,1-.05-.22.14.14,0,0,1,.21,0,.16.16,0,0,1,.05.22A.14.14,0,0,1,19.46,70.53Zm1.41-2.78a.27.27,0,0,1-.17-.32.22.22,0,0,1,.3-.14.27.27,0,0,1,.17.32A.22.22,0,0,1,20.88,67.75Zm-.41,1.58a.24.24,0,0,1-.3-.11.22.22,0,0,1,.09-.3.24.24,0,0,1,.3.11A.22.22,0,0,1,20.46,69.33ZM10.34,81.27a.19.19,0,0,1-.21-.15.16.16,0,0,1,.13-.21.19.19,0,0,1,.21.15A.16.16,0,0,1,10.34,81.27Z"/><path class="cls-10" d="M18.24,82.17a.16.16,0,0,1-.19.13.19.19,0,0,1-.15-.21A.15.15,0,0,1,18.1,82a.19.19,0,0,1,.15.21m-.7,1a.1.1,0,0,1-.1-.09.08.08,0,0,1,.08-.1.1.1,0,0,1,.1.09A.08.08,0,0,1,17.54,83.16Zm2-1.31a.13.13,0,0,1-.1-.15.11.11,0,0,1,.13-.09.13.13,0,0,1,.1.15A.11.11,0,0,1,19.51,81.85Zm.15-1.22a.14.14,0,0,1,0-.19.13.13,0,0,1,.18,0,.14.14,0,0,1,0,.19A.13.13,0,0,1,19.66,80.63Zm.75.46a.16.16,0,0,1-.13-.18.13.13,0,0,1,.16-.11.16.16,0,0,1,.13.18A.13.13,0,0,1,20.41,81.09Zm-4.12,2.14a.23.23,0,0,1,0-.31.21.21,0,0,1,.3,0,.23.23,0,0,1,0,.31A.21.21,0,0,1,16.29,83.22Zm-.65.85a.22.22,0,0,1-.17-.24.18.18,0,0,1,.22-.15.22.22,0,0,1,.17.24A.18.18,0,0,1,15.64,84.07Zm-1.28.36a.16.16,0,0,1-.08-.2.13.13,0,0,1,.19-.06.16.16,0,0,1,.08.2A.13.13,0,0,1,14.36,84.43ZM22,79.81a.13.13,0,0,1-.06-.16.11.11,0,0,1,.15-.05.13.13,0,0,1,.06.16A.11.11,0,0,1,22,79.81Zm-.78,0a.2.2,0,0,1-.15-.21.16.16,0,0,1,.2-.14.2.2,0,0,1,.15.21A.16.16,0,0,1,21.22,79.78Zm1.73-.9a.21.21,0,0,1-.21-.19.18.18,0,0,1,.16-.2.21.21,0,0,1,.22.19A.18.18,0,0,1,23,78.88Zm1.18-.74A.15.15,0,0,1,24,78a.12.12,0,0,1,.15-.11.15.15,0,0,1,.12.16A.12.12,0,0,1,24.13,78.14Zm-.41-.92a.13.13,0,0,1-.1-.14.1.1,0,0,1,.13-.09.13.13,0,0,1,.1.14A.1.1,0,0,1,23.72,77.22ZM23.58,79a.1.1,0,0,1,0-.13.08.08,0,0,1,.12,0,.1.1,0,0,1,0,.13A.08.08,0,0,1,23.58,79Zm1.48-2.43a.22.22,0,0,1-.22-.19.18.18,0,0,1,.17-.21.22.22,0,0,1,.22.19A.18.18,0,0,1,25.06,76.54Zm.21.85a.17.17,0,0,1-.13-.18.14.14,0,0,1,.17-.12.17.17,0,0,1,.13.18A.14.14,0,0,1,25.27,77.39Zm1.65-3.16a.38.38,0,0,1-.07-.52.35.35,0,0,1,.5,0,.38.38,0,0,1,.07.52A.35.35,0,0,1,26.92,74.23Zm-.16.87a.18.18,0,0,1-.14-.2.15.15,0,0,1,.18-.13.18.18,0,0,1,.14.2A.15.15,0,0,1,26.76,75.1Zm2.2-3a.16.16,0,0,1,0-.22.15.15,0,0,1,.21,0,.16.16,0,0,1,0,.22A.15.15,0,0,1,29,72.11Zm1.74-2.56a.27.27,0,0,1-.13-.33.23.23,0,0,1,.32-.11.27.27,0,0,1,.13.33A.23.23,0,0,1,30.71,69.55Zm-.6,1.5a.24.24,0,0,1-.29-.15.21.21,0,0,1,.12-.29.24.24,0,0,1,.29.15A.21.21,0,0,1,30.11,71.05ZM18.56,81.56a.2.2,0,0,1-.2-.17.16.16,0,0,1,.15-.19.2.2,0,0,1,.2.17A.16.16,0,0,1,18.56,81.56Z"/><rect class="cls-21" x="41.64" y="53.5" width="41.71" height="41.72"/><polygon class="cls-22" points="53.05 41.7 41.64 53.5 83.35 53.5 94.76 41.7 53.05 41.7"/><polygon class="cls-23" points="94.76 41.7 83.35 53.5 83.35 95.22 94.76 83.41 94.76 41.7"/><path class="cls-24" d="M47.92,64.17a3,3,0,0,0,3.64,1.1,2.09,2.09,0,0,0,1.34-3,3,3,0,0,0-3.64-1.1A2.09,2.09,0,0,0,47.92,64.17Z"/><path class="cls-25" d="M50.59,73.7A1.88,1.88,0,0,1,52,74a1.6,1.6,0,0,1,.22-.55,4.17,4.17,0,0,0,.22-.6c.1-.27.2-.55.3-.83l0-.06-2-1.13,0,.12c-.23.65-.46,1.3-.7,2a3.25,3.25,0,0,1-.42.79,1.88,1.88,0,0,1-.53.41l-.19.11C49.57,74.42,50.08,73.95,50.59,73.7Z"/><path class="cls-26" d="M54.92,75.13a1,1,0,0,0-1.18-.32,1,1,0,0,0-.26.15c-.55-.14-1.2-.19-1.42-.64A.5.5,0,0,1,52,74a1.88,1.88,0,0,0-1.42-.33c-.51.25-1,.72-1.7.55-.78.45-1.81.63-2.6,1.08a5.79,5.79,0,0,0-1.39,1.06c-.25.27-.67.59-.77.94a1.3,1.3,0,0,0-.55.08c-.5.19-.74.64-.53,1a1.07,1.07,0,0,0,1.29.32c.49-.18.73-.62.54-1a6.4,6.4,0,0,0,.77-.87,5.73,5.73,0,0,1,1.5-1.29c.2-.11,1.35-.64,1.35-.06,0,.17-.28.37-.38.51a6.53,6.53,0,0,0-.48.76,4,4,0,0,0-.5,1.59,1.22,1.22,0,0,0-.27.06.78.78,0,0,0-.51,1.1,1.13,1.13,0,0,0,1.36.4.78.78,0,0,0,.51-1.1.82.82,0,0,0-.13-.17A4.92,4.92,0,0,0,48.62,77a3.62,3.62,0,0,1,.58-1.13c.21-.31.32-.55.73-.69a2.47,2.47,0,0,1,.35,1.41,4,4,0,0,0,.11.8c-.39.24-.57.61-.4.92a1.15,1.15,0,0,0,1.37.28c.55-.21.84-.67.63-1a.92.92,0,0,0-.81-.38c0-.1,0-.2,0-.31,0-.42-.26-1.44.18-1.73.23-.15.53,0,.76,0a9.51,9.51,0,0,0,.94.3l.17,0a.56.56,0,0,0,.07.23,1,1,0,0,0,1.18.32C54.91,75.9,55.12,75.48,54.92,75.13Z"/><path class="cls-27" d="M69.56,66.35s1.17.46,2.37,1a15,15,0,0,1-1-1.7A5.24,5.24,0,0,0,69.56,66.35Z"/><path class="cls-28" d="M75.19,69.38a6.25,6.25,0,0,0-2.55-3.53,9.49,9.49,0,0,1,.61,2.2c.24.14.47.28.65.41Z"/><path class="cls-29" d="M72.1,65.62a2,2,0,0,0-1.21.06,15,15,0,0,0,1,1.7c.46.22.93.45,1.33.68a9.49,9.49,0,0,0-.61-2.2A3.44,3.44,0,0,0,72.1,65.62Z"/><path class="cls-30" d="M47.66,69.42a6.8,6.8,0,0,1,.92.38h.07c1.94-.37,3.88.09,5.82-.56a5.73,5.73,0,0,0,.62-.16,34.23,34.23,0,0,1-11.87-1.68A15.71,15.71,0,0,0,47.66,69.42Z"/><path class="cls-31" d="M55.72,68.58c.2-2.05-1.37-3.89-2.77-5.64a26.74,26.74,0,0,0-3.07.4,19.59,19.59,0,0,0-4,.61c-2.27.58-3.34,2.2-2.88,3.14a1.05,1.05,0,0,0,.24.29,34.23,34.23,0,0,0,11.87,1.68C55.43,69,55.72,68.81,55.72,68.58Z"/><path class="cls-32" d="M75.13,70.27a1.19,1.19,0,0,0,.06-.89h0l-1.28-.92a52.79,52.79,0,0,0-6.27-2.91,15.12,15.12,0,0,0-4.84-.8,8.22,8.22,0,0,1-5.54-1.28,8.22,8.22,0,0,0-4.3-.53c1.39,1.75,3,3.58,2.77,5.64,0,.37-.8.56-1.25.65-1.94.65-3.88.19-5.82.56h-.07c.59.27,1.4.65,2.2,1.07l2,1.13a5.37,5.37,0,0,1,.69.51,23.06,23.06,0,0,0,3,2,21.88,21.88,0,0,1-2.19-3.74,6.87,6.87,0,0,1,1.15,0c-.2-.21,0-.39-.17-.64,6.25,0,11.85,1.28,17.76,2.91l.53-.36A3.79,3.79,0,0,0,75.13,70.27Z"/><path class="cls-33" d="M55.41,70.86c3.1.39,5.06,2.88,6.9,4.89,0-.12,0-.19,0-.19.57.62,4.76-.19,5.19-.28A17.53,17.53,0,0,0,73,73.12c-5.91-1.63-11.39-2.91-17.64-2.91C55.49,70.47,55.21,70.65,55.41,70.86Z"/><path class="cls-34" d="M75,72.35c-.3-.7-.65-1.16-1.37-.56a22.8,22.8,0,0,0-6,6.81c1.23-.72,2.67-1.13,4-1.82l-.48.19S74.64,74.09,75,72.35Z"/><path class="cls-35" d="M67.14,81.79a13.1,13.1,0,0,0-1.92.27A1.39,1.39,0,0,0,64,81.69c-.67.09-1.14.5-1.06.93s.69.7,1.36.61a1.22,1.22,0,0,0,1-.66c.66.12,1.71.2,2.2.35.79.24,1.39.65.93,1.34a1.5,1.5,0,0,0-.2.46h0c-.63.08-1.07.55-1,1a1.14,1.14,0,0,0,1.32.75c.63-.08,1.07-.55,1-1a.76.76,0,0,0-.14-.31l.3-.32a4.57,4.57,0,0,0-2.19-2.43C67.49,82.29,67.25,82,67.14,81.79Z"/><path class="cls-36" d="M67.11,81.42c.51-.43,1.13-.28,1.72-.25-.22-.11-.52-.26-.83-.38a16.6,16.6,0,0,1-1.83-.9.69.69,0,0,0-.57.73.86.86,0,0,0,1,.53h0a1.88,1.88,0,0,0,.45.54A.42.42,0,0,1,67.11,81.42Z"/><path class="cls-37" d="M67.66,78.52a22.91,22.91,0,0,1,6-6.73c.72-.61,1.07-.15,1.37.56a1.12,1.12,0,0,0,0-.51,1.91,1.91,0,0,0-2.15-1.37c-2.17,2.67-5.77,5.07-7.41,7.94a1.07,1.07,0,0,0,.25,1.13l.45.36.51.27A2.17,2.17,0,0,1,67.66,78.52Z"/><path class="cls-38" d="M73.05,81.48c-1-.09-3.89-.12-3.89-.12l-.34-.18c-.6,0-1.22-.18-1.72.25a.42.42,0,0,0,0,.27l.11.09h-.08c.11.26.35.5.37.62a4.57,4.57,0,0,1,2.19,2.43c.57-.65,1.13-1.49,1.64-1.56a6.37,6.37,0,0,0,5-1.63c2.17-2,6-4.42,5.77-5.49a8,8,0,0,0-2.81,1C78.82,77.54,74,81.57,73.05,81.48Z"/><path class="cls-39" d="M77.85,74.57c-2.16.6-5.14,1.76-6.29,2.21-1.29.7-2.72,1.1-4,1.82l0-.08a2.17,2.17,0,0,0-1,1.65,10,10,0,0,0,1.32.62,5.64,5.64,0,0,0,3.12-.41c2.17-.77,8.21-3.28,8.21-3.28l0,0a8,8,0,0,1,2.81-1,.51.51,0,0,0,0-.05C81.75,75.06,80.59,73.81,77.85,74.57Z"/><path class="cls-40" d="M47.41,66.41a3,3,0,0,0,3.64,1.1,2.09,2.09,0,0,0,1.34-3,3,3,0,0,0-3.64-1.1A2.09,2.09,0,0,0,47.41,66.41Z"/><path class="cls-41" d="M47.54,66.45a2.75,2.75,0,0,0,3.31,1,1.9,1.9,0,0,0,1.22-2.7,2.76,2.76,0,0,0-3.31-1A1.9,1.9,0,0,0,47.54,66.45Z"/><path class="cls-42" d="M47.61,66.47a2.57,2.57,0,0,0,3.09.93,1.77,1.77,0,0,0,1.14-2.52A2.57,2.57,0,0,0,48.75,64,1.77,1.77,0,0,0,47.61,66.47Z"/><path class="cls-43" d="M69.87,72.19a21.1,21.1,0,0,1-2.11-.44c-.44-.11-.89-.2-1.32-.34-.21-.07-.43-.09-.65-.14s-.48-.14-.72-.19c-.65-.13-1.28-.23-1.94-.32-.41-.05-.82-.09-1.23-.16s-.76-.22-1.16-.31a6.22,6.22,0,0,0-1.48-.16c-.36,0-.69.09-1.07.06s-.51-.14-.77-.17A12.49,12.49,0,0,0,56,70a2,2,0,0,0-1,.27c-.21.12-.3.24-.21.43a.6.6,0,0,0,.42.31c.21.07.29,0,.34-.07s-.17-.44,0-.44a3.59,3.59,0,0,1,1.42-.09h0a1,1,0,0,1,.32.12c.09.06.09.13.13.22s.13.35.21.51.3.52.49.45,0-.55,0-.67-.13-.42.26-.42.7,0,.83.4.13.78.25,1.16a3.84,3.84,0,0,0,.37.9c.1.16.36.54.66.51s0-.39,0-.49a7.12,7.12,0,0,1-.32-.76,2.4,2.4,0,0,1-.08-.81.81.81,0,0,1,.39-.8,1.05,1.05,0,0,1,1.37.34,2.57,2.57,0,0,1,.16,2,2.23,2.23,0,0,0,.08,1.55.53.53,0,0,0,.54.23c.22,0,.2-.13.22-.31.06-.5,0-1,0-1.52a4.35,4.35,0,0,1,.32-1.38c.14-.32.38-.66.84-.49.81.29.74,1.14.69,1.75,0,.25-.5,2.1-.07,2.14.23,0,.45-.34.53-.48s.31-.56.45-.85c.24-.52.38-1.06.64-1.57.11-.22.35-.41.6-.18a.94.94,0,0,1,.22.62c0,.39,0,.78,0,1.17,0,.16,0,.54.17.66s.3-.08.39-.21a7.84,7.84,0,0,0,.47-.73,5.15,5.15,0,0,1,.22-.51c.34-.5,1.15-.28,1.7-.25.2,0,.51,0,.56-.22S70.06,72.22,69.87,72.19Z"/><path class="cls-44" d="M72.88,70.47a2.67,2.67,0,0,0-1.63.72s-5.19,4.75-5.78,7.22C67.11,75.54,70.71,73.14,72.88,70.47Z"/><path class="cls-45" d="M56.06,82.91c-.39-.24.15-.83.23-1.41l-.26.15a13.53,13.53,0,0,0-.94-1.12.52.52,0,0,0,0-.57.87.87,0,0,0-1.05-.29.6.6,0,0,0-.41.84.84.84,0,0,0,.87.34,13.19,13.19,0,0,0,1.14,1.52s-3.05-.53-4-.13l-.2.1a1.2,1.2,0,0,0-.81,0c-.48.18-.71.62-.5,1a1,1,0,0,0,1.25.33.78.78,0,0,0,.57-.76c1.11-.6,3.59.33,3.59.33a4.25,4.25,0,0,0-3.37,2.42l0,0a.89.89,0,0,0-.3.06.58.58,0,0,0-.37.83.84.84,0,0,0,1,.31.58.58,0,0,0,.37-.83.63.63,0,0,0-.16-.18,3.57,3.57,0,0,1,.65-1.14c.77-1.07,3-.87,3-.87a6.55,6.55,0,0,0,0,2.26,1.51,1.51,0,0,0,.2.43.61.61,0,0,0-.2.79,1,1,0,0,0,1.22.31c.47-.18.7-.61.5-1a1,1,0,0,0-1.1-.35v0c-.67-1.18.3-3,.3-3l.55-.44A3.07,3.07,0,0,1,56.06,82.91Z"/><path class="cls-46" d="M61,75.29l-.23-.2c-2-1.53-4.53-2.44-6-4.29h-.49a21.88,21.88,0,0,0,2.19,3.74c1.12.68,2.1,1.23,2.1,1.23l-.07.3A3.85,3.85,0,0,1,61,75.29Z"/><path class="cls-47" d="M58.48,76.08c-.25,1-1,4.29-1.14,4.58s-.68.63-1,.84c-.08.58-.62,1.17-.23,1.41a3.07,3.07,0,0,0,1.71,0c.57-.46,1.53-1.25,2.58-2.21a7.63,7.63,0,0,0,1.82-4A6.28,6.28,0,0,0,61,75.29,3.85,3.85,0,0,0,58.48,76.08Z"/><path class="cls-48" d="M54.74,70.81c1.47,1.85,4,2.76,6,4.29a6.42,6.42,0,0,1,1.43,1.61c.08-.42.13-.76.15-1C60.34,73.6,58.24,70.9,54.74,70.81Z"/><path class="cls-49" d="M49.07,66.68l.56-2.39A3.08,3.08,0,0,0,49.07,66.68Z"/><ellipse class="cls-50" cx="50.41" cy="64.87" rx="0.26" ry="0.21"/><path class="cls-50" d="M52.77,63.56H53l.67,0c.29,0,.64,0,1,.09a11.45,11.45,0,0,1,1.33.23,5.93,5.93,0,0,1,1.5.54l.18.1.17.1.17.08.19.07a4.76,4.76,0,0,0,.83.2c.59.09,1.22.11,1.87.15s1.31.06,2,.13a13.51,13.51,0,0,1,2,.34,8.66,8.66,0,0,1,.92.29l.85.32,1.62.61,1.44.56.64.25.57.24.93.39.59.25.21.09-.22-.07-.62-.2-1-.33-.59-.2-.66-.22-1.47-.5-1.64-.57-.86-.3c-.29-.1-.58-.19-.88-.26a13.11,13.11,0,0,0-1.89-.31c-.64-.07-1.3-.1-1.94-.14A16.78,16.78,0,0,1,59,65.3a4.73,4.73,0,0,1-.9-.24L57.89,65l-.2-.11-.18-.11-.16-.1A6,6,0,0,0,56,64.09c-.46-.13-.89-.22-1.28-.29l-1-.15L53,63.57Z"/><rect class="cls-51" x="20.81" y="11.8" width="41.72" height="41.69"/><polygon class="cls-52" points="32.23 0 20.81 11.8 62.53 11.8 73.95 0 32.23 0"/><polygon class="cls-53" points="73.95 0 62.53 11.8 62.53 53.48 73.95 41.69 73.95 0"/><path class="cls-54" d="M32.81,42a9.16,9.16,0,0,0,1.88,1.53,9.47,9.47,0,0,0,2.16,1L41.35,36,47,25.28l-7.95,9.37Z"/><path class="cls-17" d="M32.81,42a9.14,9.14,0,0,0,1,.88L45.21,28.72,47,25.28l-7.95,9.37Z"/><path class="cls-17" d="M53.79,25.62a3.5,3.5,0,0,1,1.53,1c.7-1,2.17-1.19,3.26-1.79a.67.67,0,0,1,.61-.12l0,.4a1,1,0,0,1,.6-.23l0,.31a3.72,3.72,0,0,1,1.43.28c-.26.08-.48.17-.56.36a1.67,1.67,0,0,1,.69.63,9.59,9.59,0,0,1-1.61-.92l-.11.23a.62.62,0,0,1-.49-.25l-.1.23a.67.67,0,0,1-.5-.36c-1.27.37-2.12,1.58-3.26,1.83a2.76,2.76,0,0,1-1.61-.52Z"/><path class="cls-17" d="M43.82,19.5a3.52,3.52,0,0,0-1.58-.92c.66-1,.24-2.38.36-3.56a.59.59,0,0,0-.14-.58l-.37.19a.89.89,0,0,0,0-.61l-.29.15A3.41,3.41,0,0,0,40.91,13a.75.75,0,0,1-.11.64,1.75,1.75,0,0,0-.89-.34,9.51,9.51,0,0,0,1.54,1l-.18.19a.6.6,0,0,0,.44.33l-.17.18a.68.68,0,0,0,.55.29c.17,1.26-.63,2.49-.41,3.59a2.6,2.6,0,0,0,1.16,1.19Z"/><path class="cls-17" d="M53,34.53a7,7,0,0,1,2.15,2.34c-.5.9-.52,1.86-1.49,2.7l.57.2-.29.31a.48.48,0,0,1,.55.19l-.23.27a2.36,2.36,0,0,1,1.1.91c-.29-.08-.64-.16-.66,0s.21.63.25,1.05a2.94,2.94,0,0,1-.88-1.71l-.23.27a.86.86,0,0,1-.23-.55l-.16.16a1.89,1.89,0,0,1-.6-1.18c0-.68,1.25-1.58,1.65-2.48a4.17,4.17,0,0,1-1.79-1.53Z"/><path class="cls-17" d="M35.85,24a7.44,7.44,0,0,0-3.13-.9c-.66.8-1.56,1.21-2,2.41-.11-.12-.26-.26-.42-.41l-.18.38c0-.2-.16-.33-.4-.4l-.16.31a2.45,2.45,0,0,0-1.32-.58c.2.22.42.49.3.56s-.68.08-1.11.22a3.29,3.29,0,0,0,2,.06l-.16.31a1,1,0,0,0,.62,0l-.09.2a2.11,2.11,0,0,0,1.38,0c.63-.32,1-1.74,1.69-2.46a4.34,4.34,0,0,0,2.21.92Z"/><path class="cls-17" d="M49.06,41.13a7.68,7.68,0,0,1,0,3.57c-.7.77-2.9,3.8-4.24,4.39.14.08.47.24.66.37l-.35.24c.21,0,.36.08.49.3l-.29.21a2.31,2.31,0,0,1,.85,1.13c-.26-.15-.58-.3-.63-.18s.05.66,0,1.08a2.94,2.94,0,0,1-.44-1.87l-.29.21a.87.87,0,0,1-.09-.59l-.19.12a1.89,1.89,0,0,1-.3-1.29c.2-.65,3.79-3.75,4.38-4.55a2,2,0,0,1-.62-2Z"/><path class="cls-17" d="M31.24,30.18a8.64,8.64,0,0,0-3.43,1.45c-.45.92-2.43,4.08-2.45,5.49-.14-.09-.43-.31-.62-.42l-.08.4c-.05-.19-.23-.28-.49-.3l-.08.34a2.52,2.52,0,0,0-1.43-.27c.25.16.53.38.43.48s-.65.23-1,.46a3.34,3.34,0,0,0,2-.39l-.08.34a1,1,0,0,0,.6-.16l0,.21a2.14,2.14,0,0,0,1.36-.27c.54-.45,2-4.83,2.54-5.68a2.25,2.25,0,0,0,2.14-.28Z"/><path class="cls-55" d="M40.28,21.12,47,25.28l-8.34,10L32.1,43.1c-3.39-3.71-3.42-10.2.29-15.67a16.51,16.51,0,0,1,7.89-6.31Zm10.8,17.8a15.34,15.34,0,0,0,2.78-9.45L47,25.28,41,36.62l-4.81,9C41.1,47.07,47.36,44.41,51.08,38.92Z"/><path class="cls-56" d="M40.32,22.67a14.65,14.65,0,0,0-7,5.59c-2.62,3.87-3.86,9.66-1.06,11.91C34.81,42.23,31.13,32.41,40.32,22.67Z"/><path class="cls-57" d="M36.14,45.6c5,1.46,11.22-1.19,14.94-6.69a15.34,15.34,0,0,0,2.78-9.45l-2-1.24a15.34,15.34,0,0,1-2.78,9.45c-3.12,4.61-8,7.22-12.46,7.08Z"/><path class="cls-58" d="M36.14,45.6c5,1.46,11.22-1.19,14.94-6.69a15.34,15.34,0,0,0,2.78-9.45L53.11,29a15.34,15.34,0,0,1-2.78,9.45c-3.5,5.17-9.26,7.83-14.06,6.9Z"/><path class="cls-17" d="M52.6,32.54c-.35,1.27,0,2.11-1.75,2s-3-.9-2.8-1.72.19-2,1.14-2.33a4.72,4.72,0,0,1,2.31-.25,2,2,0,0,1,1.13,1.13A2.44,2.44,0,0,1,52.6,32.54Z"/><path class="cls-17" d="M45.88,37.64c-1.07,1.65-1.55,2-2.16,1.56a2,2,0,0,1-1-1.49c-.07-.63-.11-1.09.24-1.47a2.82,2.82,0,0,1,1.62-.77c.29.08,1.41.42,1.56.86S45.88,37.64,45.88,37.64Z"/><path class="cls-17" d="M42.77,42.72c-.2.71,0,1.19-1,1.14s-1.68-.51-1.58-1,.11-1.15.64-1.31a2.66,2.66,0,0,1,1.3-.14,1.1,1.1,0,0,1,.63.63A1.37,1.37,0,0,1,42.77,42.72Z"/><path class="cls-17" d="M56.33,17.68A9.89,9.89,0,0,1,51,19.94C55,18.35,55.19,17.72,56.1,17,56.5,16.86,56.69,17.26,56.33,17.68Z"/><path class="cls-17" d="M50.44,14.06a8.8,8.8,0,0,0,0,5.54c-.11-4.07.4-4.53.72-5.63C51.15,13.57,50.69,13.57,50.44,14.06Z"/><path class="cls-17" d="M46.14,19a9,9,0,0,0-5.88,2.09,82.54,82.54,0,0,0,13.55,8.33,8,8,0,0,0-.43-6,2.4,2.4,0,0,0,.31-1.83.93.93,0,0,0,.74-.38A1,1,0,0,0,54,19.88a1.26,1.26,0,0,0-1.25-.08,5.59,5.59,0,0,0-1.27-1.05,5.8,5.8,0,0,0-1.53-.66,1.25,1.25,0,0,0-2.12-.88.84.84,0,0,0-.06.8A2.64,2.64,0,0,0,46.14,19Z"/><path class="cls-59" d="M46.67,19.75a6.19,6.19,0,0,0-3.88,1c-1,.83-1.29,1.71,1,1.09,1.67-.45,3.61-.9,4.06-1.39,1.17-1,1.64-1.8.63-1.84A3.57,3.57,0,0,0,46.67,19.75Z"/><path class="cls-60" d="M44.36,21c-.3-.32-1.88-.13-1.43,1C43.09,22.38,44.73,22,44.36,21Z"/><path class="cls-17" d="M43.43,26.48c-1.08,1.67-1.57,2-2.18,1.58a2,2,0,0,1-1-1.51c-.07-.64-.11-1.11.25-1.48a2.86,2.86,0,0,1,1.64-.78c.3.08,1.43.43,1.58.87S43.43,26.48,43.43,26.48Z"/><path class="cls-17" d="M37.41,28.22c-.2.71,0,1.19-1,1.14s-1.68-.51-1.58-1,.11-1.15.64-1.31a2.66,2.66,0,0,1,1.3-.14,1.1,1.1,0,0,1,.63.63A1.37,1.37,0,0,1,37.41,28.22Z"/><path class="cls-17" d="M34.56,34.32c-1.07,1.65-1.55,2-2.16,1.56a2,2,0,0,1-1-1.49c-.07-.63-.11-1.09.24-1.47a2.82,2.82,0,0,1,1.62-.77c.29.08,1.41.42,1.56.86S34.56,34.32,34.56,34.32Z"/><path class="cls-61" d="M33.89,35.28a25.64,25.64,0,0,1,.61-2.62,5.09,5.09,0,0,0-1.22-.5,2.82,2.82,0,0,0-1.62.77c-.35.37-.32.83-.24,1.47a2,2,0,0,0,1,1.49C32.87,36.21,33.26,36.09,33.89,35.28Z"/><path class="cls-62" d="M33.87,34.18c-1.37-.14-4.76,3.33-1.37,5C33.66,39.75,36.88,35.8,33.87,34.18Z"/><path class="cls-63" d="M33.87,34.18a2.94,2.94,0,0,0-2,1.2,2.9,2.9,0,0,0,.57.5c.58.4,1,.11,2-1.33A2.89,2.89,0,0,0,33.87,34.18Z"/></svg>