<svg id="Layer_1" data-name="Layer 1" xmlns="http://www.w3.org/2000/svg" xmlns:xlink="http://www.w3.org/1999/xlink" viewBox="0 0 53.12 95.24"><defs><style>.cls-1{fill:url(#radial-gradient);}.cls-2{fill:url(#linear-gradient);}.cls-3{fill:url(#linear-gradient-2);}.cls-4{fill:url(#linear-gradient-3);}.cls-5{fill:url(#linear-gradient-4);}.cls-6{fill:url(#linear-gradient-5);}.cls-7{fill:url(#linear-gradient-6);}.cls-8{fill:url(#linear-gradient-7);}.cls-9{fill:url(#linear-gradient-8);}.cls-10{fill:url(#linear-gradient-9);}.cls-11{fill:url(#linear-gradient-10);}.cls-12{fill:url(#linear-gradient-11);}.cls-13{fill:url(#linear-gradient-12);}.cls-14{fill:url(#linear-gradient-13);}.cls-15{fill:url(#linear-gradient-14);}.cls-16{fill:url(#linear-gradient-15);}.cls-17{fill:url(#linear-gradient-16);}.cls-18{fill:url(#linear-gradient-17);}.cls-19{fill:url(#linear-gradient-18);}.cls-20{fill:url(#linear-gradient-19);}.cls-21{fill:url(#radial-gradient-2);}.cls-22{fill:url(#radial-gradient-3);}.cls-23{fill:url(#linear-gradient-20);}.cls-24{fill:url(#linear-gradient-21);}.cls-25{fill:url(#linear-gradient-22);}.cls-26{fill:url(#linear-gradient-23);}.cls-27{fill:url(#linear-gradient-24);}.cls-28{fill:url(#linear-gradient-25);}.cls-29{fill:#221f1f;}.cls-30,.cls-44{fill:#fff;}.cls-31{fill:url(#radial-gradient-4);}.cls-32{fill:url(#linear-gradient-26);}.cls-33{fill:url(#linear-gradient-27);}.cls-34{fill:#78866c;}.cls-34,.cls-36,.cls-37,.cls-38,.cls-39,.cls-40,.cls-41,.cls-42,.cls-43,.cls-44,.cls-45,.cls-46,.cls-47,.cls-48,.cls-49,.cls-50{fill-rule:evenodd;}.cls-35,.cls-40{fill:#303c36;}.cls-36{fill:#84a18f;}.cls-37{fill:#9dad90;}.cls-38{fill:#192121;}.cls-39{fill:#333633;}.cls-41{fill:#384240;}.cls-42{fill:#242424;}.cls-43{fill:#4b5c5a;}.cls-45{fill:#3e4b4a;}.cls-46{fill:#151515;}.cls-48{fill:#f9fae8;}.cls-49{fill:#0e1f26;}.cls-50{fill:#c9e8e7;}</style><radialGradient id="radial-gradient" cx="-15.03" cy="-529.91" r="29.82" gradientTransform="translate(-519.14 89.7) rotate(90) scale(1.02 1.02)" gradientUnits="userSpaceOnUse"><stop offset="0" stop-color="#ffe035"/><stop offset="1" stop-color="#ffc62b"/></radialGradient><linearGradient id="linear-gradient" x1="-46.18" y1="-506.52" x2="-32.87" y2="-504.89" gradientTransform="translate(-479.11 86.9) rotate(90)" gradientUnits="userSpaceOnUse"><stop offset="0" stop-color="#ffd138"/><stop offset="0.44" stop-color="#ffda36"/><stop offset="1" stop-color="#ffe035"/></linearGradient><linearGradient id="linear-gradient-2" x1="-18.97" y1="-533.57" x2="-17.89" y2="-519.72" xlink:href="#linear-gradient"/><linearGradient id="linear-gradient-3" x1="-1972.62" y1="61.3" x2="-1971.92" y2="64.76" gradientTransform="translate(1981)" gradientUnits="userSpaceOnUse"><stop offset="0" stop-color="#84c241"/><stop offset="0.02" stop-color="#89c441"/><stop offset="0.17" stop-color="#a3cd43"/><stop offset="0.3" stop-color="#b3d345"/><stop offset="0.4" stop-color="#b9d545"/><stop offset="1" stop-color="#456f34"/></linearGradient><linearGradient id="linear-gradient-4" x1="-1973.29" y1="72.46" x2="-1970.17" y2="73.24" gradientTransform="translate(1981)" gradientUnits="userSpaceOnUse"><stop offset="0" stop-color="#456f34"/><stop offset="0.6" stop-color="#b9d545"/><stop offset="0.7" stop-color="#b3d345"/><stop offset="0.83" stop-color="#a3cd43"/><stop offset="0.98" stop-color="#89c441"/><stop offset="1" stop-color="#84c241"/></linearGradient><linearGradient id="linear-gradient-5" x1="-1972.89" y1="73.36" x2="-1973.97" y2="78.19" gradientTransform="translate(1981)" gradientUnits="userSpaceOnUse"><stop offset="0" stop-color="#b9d545"/><stop offset="0.24" stop-color="#d5b136"/><stop offset="0.47" stop-color="#ec922a"/><stop offset="0.61" stop-color="#f58725"/><stop offset="1" stop-color="#965624"/></linearGradient><linearGradient id="linear-gradient-6" x1="-1953.08" y1="66.54" x2="-1950.71" y2="66.54" gradientTransform="translate(1981)" gradientUnits="userSpaceOnUse"><stop offset="0" stop-color="#264b9b"/><stop offset="1" stop-color="#10bef0"/></linearGradient><linearGradient id="linear-gradient-7" x1="-1949.99" y1="67.64" x2="-1947.45" y2="67.64" xlink:href="#linear-gradient-6"/><linearGradient id="linear-gradient-8" x1="-1952.42" y1="67.04" x2="-1946.34" y2="66.42" xlink:href="#linear-gradient-4"/><linearGradient id="linear-gradient-9" x1="-1973.92" y1="69.81" x2="-1973.26" y2="67.48" xlink:href="#linear-gradient-4"/><linearGradient id="linear-gradient-10" x1="-1973.73" y1="68.94" x2="-1971.87" y2="62.37" xlink:href="#linear-gradient-4"/><linearGradient id="linear-gradient-11" x1="-1962.29" y1="75.41" x2="-1959.17" y2="64.42" xlink:href="#linear-gradient-4"/><linearGradient id="linear-gradient-12" x1="-1958.93" y1="76.03" x2="-1958.35" y2="70.73" xlink:href="#linear-gradient-6"/><linearGradient id="linear-gradient-13" x1="-7193.27" y1="75.08" x2="-7185.86" y2="75.08" gradientTransform="matrix(-1, 0, 0, 1, -7159.89, 0)" xlink:href="#linear-gradient-6"/><linearGradient id="linear-gradient-14" x1="-1952.83" y1="82.64" x2="-1956.86" y2="84.32" xlink:href="#linear-gradient-5"/><linearGradient id="linear-gradient-15" x1="-1953.17" y1="82.58" x2="-1956.5" y2="80.27" xlink:href="#linear-gradient-5"/><linearGradient id="linear-gradient-16" x1="-1954.44" y1="74.12" x2="-1950.91" y2="76.28" xlink:href="#linear-gradient-4"/><linearGradient id="linear-gradient-17" x1="-1948.02" y1="79" x2="-1945.92" y2="82.48" xlink:href="#linear-gradient-4"/><linearGradient id="linear-gradient-18" x1="-1949.15" y1="75.84" x2="-1947.91" y2="79.05" xlink:href="#linear-gradient-4"/><linearGradient id="linear-gradient-19" x1="-7170.91" y1="65.49" x2="-7165.41" y2="65.49" gradientTransform="matrix(-1, 0, 0, 1, -7159.89, 0)" xlink:href="#linear-gradient-3"/><radialGradient id="radial-gradient-2" cx="-7519.89" cy="62.7" r="2.27" gradientTransform="matrix(-1.25, 0, 0, 1.02, -9382.69, 1.13)" gradientUnits="userSpaceOnUse"><stop offset="0" stop-color="#3066af"/><stop offset="0.71" stop-color="#2b60ab"/><stop offset="1" stop-color="#285ca8"/></radialGradient><radialGradient id="radial-gradient-3" cx="-7519.84" cy="62.82" r="2.12" gradientTransform="matrix(-1.25, 0, 0, 1.02, -9382.69, 1.13)" gradientUnits="userSpaceOnUse"><stop offset="0" stop-color="#ed4523"/><stop offset="0.13" stop-color="#e74322"/><stop offset="0.3" stop-color="#d73e20"/><stop offset="0.49" stop-color="#bb351d"/><stop offset="0.69" stop-color="#952918"/><stop offset="0.91" stop-color="#651912"/><stop offset="1" stop-color="#4e120f"/></radialGradient><linearGradient id="linear-gradient-20" x1="-1959.76" y1="70.44" x2="-1960.66" y2="74.53" gradientTransform="translate(1981)" gradientUnits="userSpaceOnUse"><stop offset="0" stop-color="#fbed34"/><stop offset="0.17" stop-color="#e9e739"/><stop offset="0.49" stop-color="#cfdd3f"/><stop offset="0.78" stop-color="#bfd744"/><stop offset="1" stop-color="#b9d545"/></linearGradient><linearGradient id="linear-gradient-21" x1="-7191.14" y1="74.46" x2="-7183.73" y2="74.46" gradientTransform="matrix(-1, 0, 0, 1, -7159.89, 0)" xlink:href="#linear-gradient-6"/><linearGradient id="linear-gradient-22" x1="-1964.71" y1="82.25" x2="-1969.81" y2="85.71" xlink:href="#linear-gradient-5"/><linearGradient id="linear-gradient-23" x1="-1967.83" y1="73.91" x2="-1961.53" y2="72.12" xlink:href="#linear-gradient-4"/><linearGradient id="linear-gradient-24" x1="-1965.24" y1="78.65" x2="-1961.64" y2="80.18" xlink:href="#linear-gradient-4"/><linearGradient id="linear-gradient-25" x1="-1965.11" y1="74.68" x2="-1962.15" y2="71.79" xlink:href="#linear-gradient-6"/><radialGradient id="radial-gradient-4" cx="-55.96" cy="-529.91" r="29.82" gradientTransform="translate(-519.14 89.7) rotate(90) scale(1.02 1.02)" gradientUnits="userSpaceOnUse"><stop offset="0" stop-color="#afce22"/><stop offset="1" stop-color="#81bf2e"/></radialGradient><linearGradient id="linear-gradient-26" x1="-87.9" y1="-506.52" x2="-74.59" y2="-504.89" gradientTransform="translate(-479.11 86.9) rotate(90)" gradientUnits="userSpaceOnUse"><stop offset="0" stop-color="#81bf2e"/><stop offset="0.36" stop-color="#98c728"/><stop offset="0.72" stop-color="#a9cc24"/><stop offset="1" stop-color="#afce22"/></linearGradient><linearGradient id="linear-gradient-27" x1="-60.69" y1="-533.57" x2="-59.6" y2="-519.72" xlink:href="#linear-gradient-26"/></defs><title>group-two</title><rect class="cls-1" y="53.52" width="41.71" height="41.72"/><polygon class="cls-2" points="11.41 41.72 0 53.52 41.71 53.52 53.12 41.72 11.41 41.72"/><polygon class="cls-3" points="53.12 41.72 41.71 53.52 41.71 95.24 53.12 83.43 53.12 41.72"/><path class="cls-4" d="M6.28,64.19a3,3,0,0,0,3.64,1.1,2.09,2.09,0,0,0,1.34-3,3,3,0,0,0-3.64-1.1A2.09,2.09,0,0,0,6.28,64.19Z"/><path class="cls-5" d="M8.95,73.72a1.88,1.88,0,0,1,1.42.33,1.6,1.6,0,0,1,.22-.55,4.17,4.17,0,0,0,.22-.6c.1-.27.2-.55.3-.83l0-.06-2-1.13,0,.12c-.23.65-.46,1.3-.7,2a3.25,3.25,0,0,1-.42.79,1.88,1.88,0,0,1-.53.41l-.19.11C7.93,74.44,8.44,74,8.95,73.72Z"/><path class="cls-6" d="M13.28,75.15a1,1,0,0,0-1.18-.32,1,1,0,0,0-.26.15c-.55-.14-1.2-.19-1.42-.64a.5.5,0,0,1,0-.29,1.88,1.88,0,0,0-1.42-.33c-.51.25-1,.72-1.7.55-.78.45-1.81.63-2.6,1.08a5.79,5.79,0,0,0-1.39,1.06c-.25.27-.67.59-.77.94a1.3,1.3,0,0,0-.55.08c-.5.19-.74.64-.53,1a1.07,1.07,0,0,0,1.29.32c.49-.18.73-.62.54-1A6.4,6.4,0,0,0,4,76.9a5.73,5.73,0,0,1,1.5-1.29c.2-.11,1.35-.64,1.35-.06,0,.17-.28.37-.38.51a6.53,6.53,0,0,0-.48.76,4,4,0,0,0-.5,1.59,1.22,1.22,0,0,0-.27.06.78.78,0,0,0-.51,1.1,1.13,1.13,0,0,0,1.36.4.78.78,0,0,0,.51-1.1.82.82,0,0,0-.13-.17A4.92,4.92,0,0,0,7,77a3.62,3.62,0,0,1,.58-1.13c.21-.31.32-.55.73-.69a2.47,2.47,0,0,1,.35,1.41,4,4,0,0,0,.11.8c-.39.24-.57.61-.4.92a1.15,1.15,0,0,0,1.37.28c.55-.21.84-.67.63-1a.92.92,0,0,0-.81-.38c0-.1,0-.2,0-.31,0-.42-.26-1.44.18-1.73.23-.15.53,0,.76,0a9.51,9.51,0,0,0,.94.3l.17,0a.56.56,0,0,0,.07.23,1,1,0,0,0,1.18.32C13.26,75.92,13.48,75.5,13.28,75.15Z"/><path class="cls-7" d="M27.92,66.37s1.17.46,2.37,1a15,15,0,0,1-1-1.7A5.24,5.24,0,0,0,27.92,66.37Z"/><path class="cls-8" d="M33.55,69.4A6.25,6.25,0,0,0,31,65.88a9.49,9.49,0,0,1,.61,2.2c.24.14.47.28.65.41Z"/><path class="cls-9" d="M30.46,65.64a2,2,0,0,0-1.21.06,15,15,0,0,0,1,1.7c.46.22.93.45,1.33.68a9.49,9.49,0,0,0-.61-2.2A3.44,3.44,0,0,0,30.46,65.64Z"/><path class="cls-10" d="M6,69.45a6.8,6.8,0,0,1,.92.38H7c1.94-.37,3.88.09,5.82-.56a5.73,5.73,0,0,0,.62-.16A34.23,34.23,0,0,1,1.58,67.41,15.71,15.71,0,0,0,6,69.45Z"/><path class="cls-11" d="M14.08,68.6c.2-2.05-1.37-3.89-2.77-5.64a26.74,26.74,0,0,0-3.07.4,19.59,19.59,0,0,0-4,.61C2,64.55.88,66.17,1.34,67.12a1.05,1.05,0,0,0,.24.29,34.23,34.23,0,0,0,11.87,1.68C13.78,69,14.08,68.83,14.08,68.6Z"/><path class="cls-12" d="M33.49,70.29a1.19,1.19,0,0,0,.06-.89h0l-1.28-.92A52.79,52.79,0,0,0,26,65.57a15.12,15.12,0,0,0-4.84-.8,8.22,8.22,0,0,1-5.54-1.28,8.22,8.22,0,0,0-4.3-.53c1.39,1.75,3,3.58,2.77,5.64,0,.37-.8.56-1.25.65-1.94.65-3.88.19-5.82.56H6.94c.59.27,1.4.65,2.2,1.07l2,1.13a5.37,5.37,0,0,1,.69.51,23.06,23.06,0,0,0,3,2,21.88,21.88,0,0,1-2.19-3.74,6.87,6.87,0,0,1,1.15,0c-.2-.21,0-.39-.17-.64,6.25,0,11.85,1.28,17.76,2.91l.53-.36A3.79,3.79,0,0,0,33.49,70.29Z"/><path class="cls-13" d="M13.77,70.88c3.1.39,5.06,2.88,6.9,4.89,0-.12,0-.19,0-.19.57.62,4.76-.19,5.19-.28a17.53,17.53,0,0,0,5.48-2.17C25.45,71.52,20,70.24,13.72,70.24,13.84,70.49,13.57,70.67,13.77,70.88Z"/><path class="cls-14" d="M33.38,72.37c-.3-.7-.65-1.16-1.37-.56a22.8,22.8,0,0,0-6,6.81c1.23-.72,2.67-1.13,4-1.82l-.48.19S33,74.11,33.38,72.37Z"/><path class="cls-15" d="M25.5,81.81a13.1,13.1,0,0,0-1.92.27,1.39,1.39,0,0,0-1.24-.37c-.67.09-1.14.5-1.06.93s.69.7,1.36.61a1.22,1.22,0,0,0,1-.66c.66.12,1.71.2,2.2.35.79.24,1.39.65.93,1.34a1.5,1.5,0,0,0-.2.46h0c-.63.08-1.07.55-1,1a1.14,1.14,0,0,0,1.32.75c.63-.08,1.07-.55,1-1a.76.76,0,0,0-.14-.31l.3-.32a4.57,4.57,0,0,0-2.19-2.43C25.85,82.31,25.61,82.07,25.5,81.81Z"/><path class="cls-16" d="M25.47,81.44c.51-.43,1.13-.28,1.72-.25-.22-.11-.52-.26-.83-.38a16.6,16.6,0,0,1-1.83-.9.69.69,0,0,0-.57.73.86.86,0,0,0,1,.53h0a1.88,1.88,0,0,0,.45.54A.42.42,0,0,1,25.47,81.44Z"/><path class="cls-17" d="M26,78.54a22.91,22.91,0,0,1,6-6.73c.72-.61,1.07-.15,1.37.56a1.12,1.12,0,0,0,0-.51,1.91,1.91,0,0,0-2.15-1.37c-2.17,2.67-5.77,5.07-7.41,7.94a1.07,1.07,0,0,0,.25,1.13l.45.36.51.27A2.17,2.17,0,0,1,26,78.54Z"/><path class="cls-18" d="M31.41,81.5c-1-.09-3.89-.12-3.89-.12l-.34-.18c-.6,0-1.22-.18-1.72.25a.42.42,0,0,0,0,.27l.11.09H25.5c.11.26.35.5.37.62a4.57,4.57,0,0,1,2.19,2.43c.57-.65,1.13-1.49,1.64-1.56a6.37,6.37,0,0,0,5-1.63c2.17-2,6-4.42,5.77-5.49a8,8,0,0,0-2.81,1C37.18,77.56,32.39,81.59,31.41,81.5Z"/><path class="cls-19" d="M36.21,74.59c-2.16.6-5.14,1.76-6.29,2.21-1.29.7-2.72,1.1-4,1.82l0-.08a2.17,2.17,0,0,0-1,1.65,10,10,0,0,0,1.32.62,5.64,5.64,0,0,0,3.12-.41c2.17-.77,8.21-3.28,8.21-3.28l0,0a8,8,0,0,1,2.81-1,.51.51,0,0,0,0-.05C40.1,75.08,38.94,73.83,36.21,74.59Z"/><path class="cls-20" d="M5.77,66.43a3,3,0,0,0,3.64,1.1,2.09,2.09,0,0,0,1.34-3,3,3,0,0,0-3.64-1.1A2.09,2.09,0,0,0,5.77,66.43Z"/><path class="cls-21" d="M5.9,66.47a2.75,2.75,0,0,0,3.31,1,1.9,1.9,0,0,0,1.22-2.7,2.76,2.76,0,0,0-3.31-1A1.9,1.9,0,0,0,5.9,66.47Z"/><path class="cls-22" d="M6,66.49a2.57,2.57,0,0,0,3.09.93,1.77,1.77,0,0,0,1.14-2.52A2.57,2.57,0,0,0,7.11,64,1.77,1.77,0,0,0,6,66.49Z"/><path class="cls-23" d="M28.22,72.21a21.1,21.1,0,0,1-2.11-.44c-.44-.11-.89-.2-1.32-.34-.21-.07-.43-.09-.65-.14s-.48-.14-.72-.19c-.65-.13-1.28-.23-1.94-.32-.41-.05-.82-.09-1.23-.16s-.76-.22-1.16-.31a6.22,6.22,0,0,0-1.48-.16c-.36,0-.69.09-1.07.06s-.51-.14-.77-.17a12.49,12.49,0,0,0-1.46,0,2,2,0,0,0-1,.27c-.21.12-.3.24-.21.43a.6.6,0,0,0,.42.31c.21.07.29,0,.34-.07s-.17-.44,0-.44a3.59,3.59,0,0,1,1.42-.09h0a1,1,0,0,1,.32.12c.09.06.09.13.13.22s.13.35.21.51.3.52.49.45,0-.55,0-.67-.13-.42.26-.42.7,0,.83.4.13.78.25,1.16a3.84,3.84,0,0,0,.37.9c.1.16.36.54.66.51s0-.39,0-.49a7.12,7.12,0,0,1-.32-.76,2.4,2.4,0,0,1-.08-.81.81.81,0,0,1,.39-.8,1.05,1.05,0,0,1,1.37.34,2.57,2.57,0,0,1,.16,2,2.23,2.23,0,0,0,.08,1.55.53.53,0,0,0,.54.23c.22,0,.2-.13.22-.31.06-.5,0-1,0-1.52a4.35,4.35,0,0,1,.32-1.38c.14-.32.38-.66.84-.49.81.29.74,1.14.69,1.75,0,.25-.5,2.1-.07,2.14.23,0,.45-.34.53-.48s.31-.56.45-.85c.24-.52.38-1.06.64-1.57.11-.22.35-.41.6-.18a.94.94,0,0,1,.22.62c0,.39,0,.78,0,1.17,0,.16,0,.54.17.66s.3-.08.39-.21a7.84,7.84,0,0,0,.47-.73,5.15,5.15,0,0,1,.22-.51c.34-.5,1.15-.28,1.7-.25.2,0,.51,0,.56-.22S28.41,72.24,28.22,72.21Z"/><path class="cls-24" d="M31.24,70.49a2.67,2.67,0,0,0-1.63.72S24.42,76,23.83,78.43C25.47,75.56,29.07,73.16,31.24,70.49Z"/><path class="cls-25" d="M14.42,82.93c-.39-.24.15-.83.23-1.41l-.26.15a13.53,13.53,0,0,0-.94-1.12.52.52,0,0,0,0-.57.87.87,0,0,0-1.05-.29.6.6,0,0,0-.41.84.84.84,0,0,0,.87.34A13.19,13.19,0,0,0,14,82.4s-3.05-.53-4-.13l-.2.1a1.2,1.2,0,0,0-.81,0c-.48.18-.71.62-.5,1a1,1,0,0,0,1.25.33.78.78,0,0,0,.57-.76c1.11-.6,3.59.33,3.59.33a4.25,4.25,0,0,0-3.37,2.42l0,0a.89.89,0,0,0-.3.06.58.58,0,0,0-.37.83.84.84,0,0,0,1,.31.58.58,0,0,0,.37-.83.63.63,0,0,0-.16-.18,3.57,3.57,0,0,1,.65-1.14c.77-1.07,3-.87,3-.87a6.55,6.55,0,0,0,0,2.26,1.51,1.51,0,0,0,.2.43.61.61,0,0,0-.2.79,1,1,0,0,0,1.22.31c.47-.18.7-.61.5-1a1,1,0,0,0-1.1-.35v0c-.67-1.18.3-3,.3-3l.55-.44A3.07,3.07,0,0,1,14.42,82.93Z"/><path class="cls-26" d="M19.33,75.32l-.23-.2c-2-1.53-4.53-2.44-6-4.29h-.49a21.88,21.88,0,0,0,2.19,3.74c1.12.68,2.1,1.23,2.1,1.23l-.07.3A3.85,3.85,0,0,1,19.33,75.32Z"/><path class="cls-27" d="M16.84,76.1c-.25,1-1,4.29-1.14,4.58s-.68.63-1,.84c-.08.58-.62,1.17-.23,1.41a3.07,3.07,0,0,0,1.71,0c.57-.46,1.53-1.25,2.58-2.21a7.63,7.63,0,0,0,1.82-4,6.28,6.28,0,0,0-1.19-1.41A3.85,3.85,0,0,0,16.84,76.1Z"/><path class="cls-28" d="M13.1,70.83c1.47,1.85,4,2.76,6,4.29a6.42,6.42,0,0,1,1.43,1.61c.08-.42.13-.76.15-1C18.7,73.62,16.6,70.92,13.1,70.83Z"/><path class="cls-29" d="M7.42,66.7,8,64.31A3.08,3.08,0,0,0,7.42,66.7Z"/><ellipse class="cls-30" cx="8.76" cy="64.89" rx="0.26" ry="0.21"/><path class="cls-30" d="M11.13,63.58h.24l.67,0c.29,0,.64,0,1,.09a11.45,11.45,0,0,1,1.33.23,5.93,5.93,0,0,1,1.5.54l.18.1.17.1.17.08.19.07a4.76,4.76,0,0,0,.83.2c.59.09,1.22.11,1.87.15s1.31.06,2,.13a13.51,13.51,0,0,1,2,.34,8.66,8.66,0,0,1,.92.29l.85.32,1.62.61,1.44.56.64.25.57.24.93.39.59.25.21.09-.22-.07-.62-.2-1-.33-.59-.2L28,67.59l-1.47-.5-1.64-.57-.86-.3c-.29-.1-.58-.19-.88-.26a13.11,13.11,0,0,0-1.89-.31c-.64-.07-1.3-.1-1.94-.14a16.78,16.78,0,0,1-1.92-.19,4.73,4.73,0,0,1-.9-.24L16.25,65l-.2-.11-.18-.11-.16-.1a6,6,0,0,0-1.38-.56c-.46-.13-.89-.22-1.28-.29l-1-.15-.66-.07Z"/><rect class="cls-31" y="11.81" width="41.71" height="41.72"/><polygon class="cls-32" points="11.41 0 0 11.81 41.71 11.81 53.12 0 11.41 0"/><polygon class="cls-33" points="53.12 0 41.71 11.81 41.71 53.52 53.12 41.72 53.12 0"/><path class="cls-34" d="M28.76,35C25.95,39.13,19.24,44.46,13,46.56c-4.67,1.56-10.39,6-11,5.54-2.23-1.51,1.67-8.85,6.35-13,2.23-2,6.23-9.31,9.95-13.86s12.28-8.64,12.49-8.87c7.6,2.2,4.32,9.43-2,18.66"/><path class="cls-35" d="M21.88,41.93a33.43,33.43,0,0,1-8.83,4.74,42.75,42.75,0,0,0-7.61,3.87C3.63,51.63,2.28,52.43,2,52.21A1.37,1.37,0,0,1,1.69,52a3.09,3.09,0,0,1-.21-2.78,16.45,16.45,0,0,1,1.85-4.1,27.22,27.22,0,0,1,5-6.05c1.17-1,2.85-3.6,4.72-6.43,1.66-2.52,3.47-5.27,5.22-7.42a26.5,26.5,0,0,1,5.51-4.73C26.14,18.82,28,18,30.1,15.95a10,10,0,0,1,4.31-2.64,5.75,5.75,0,0,1,4.28.43l.37.2.34.24a3.72,3.72,0,0,1,.84.74.64.64,0,0,1,.17.63l0,.06,0,0a7.12,7.12,0,0,1-.62,3.19c-.09.28-.19.55-.28.83l-.15.49a9.2,9.2,0,0,1-2.06,4,16.22,16.22,0,0,1-1.39,1.25c-2.93,2.3-2.11,1.85-4.09,5.18-.85,1.42-1.82,2.92-2.87,4.47a30.57,30.57,0,0,1-7,6.85m9.74-11.4a39.77,39.77,0,0,0,2.13-4v0h0a7.47,7.47,0,0,0,2-1.15,16.14,16.14,0,0,0,1.37-1.24,9.1,9.1,0,0,0,2-4l.15-.49c.09-.28.19-.56.28-.84a6.94,6.94,0,0,0,.61-3.14v0l0-.06,0-.06c.06-.12,0-.29-.15-.47a3.56,3.56,0,0,0-.8-.7h0L39,14.07l-.36-.19h0a5.18,5.18,0,0,0-4-.31,10.17,10.17,0,0,0-4.36,2.61q-.28.27-.52.55t-.48.58h0c-1.34.73-3.38,1.88-5.43,3.27a26.38,26.38,0,0,0-5.48,4.71c-1.74,2.14-3.55,4.89-5.21,7.41-1.87,2.85-3.55,5.4-4.74,6.46a27.09,27.09,0,0,0-4.93,6,16.32,16.32,0,0,0-1.84,4.06,3,3,0,0,0,.18,2.63,1.2,1.2,0,0,0,.23.2c.25.17,1.57-.61,3.34-1.67A42.84,42.84,0,0,1,13,46.53a33.31,33.31,0,0,0,8.79-4.72,30.43,30.43,0,0,0,7-6.82C29.81,33.44,30.78,32,31.63,30.53Z"/><path class="cls-36" d="M27.35,33.52A48.93,48.93,0,0,1,12.15,45.7c-4.22,2-9.76,6.64-10.26,6.36-1.69-.94,2.73-7.75,7.34-12,2.2-2,6.69-8.82,10.54-13.24s11.77-9.17,12-9.4c6.18.71,2.31,7.32-4.41,16.08"/><path class="cls-37" d="M27.39,33.56A62,62,0,0,1,12.48,46.05c-4,2.27-10,5.46-10.38,5.27-1.41-.65,3.79-5.67,8.37-9.95,2.18-2,6.93-8.57,10.85-12.92S32.83,19,33.05,18.79c5.46-.05,1.28,6.25-5.66,14.77"/><path class="cls-38" d="M3.81,49.69c-.64.43-1,1.08-1.72,1.66C6.82,45.2,14.5,39.86,19.83,31.87c1.07-1.61,7.53-9.18,7.35-10.14a9.8,9.8,0,0,1,3-5.66c2.73-2.69,6.28-3.59,8.45-2.3-2.19-.86-5.39.1-7.9,2.57a9.79,9.79,0,0,0-3,5.66c.18,1-6.27,8.53-7.35,10.14C15.57,39.36,8.6,44.28,3.81,49.69"/><path class="cls-39" d="M31,26.56A84.06,84.06,0,0,0,20.05,37.42a41.56,41.56,0,0,1-10.4,9.1C7.38,48,5.11,48.92,2.09,51.34,6.82,45.2,14.8,40,20.13,32a109.81,109.81,0,0,1,7.47-9.59q-.07-.27-.13-.55a9.79,9.79,0,0,1,3-5.66c2.9-2.86,6.72-3.69,8.84-2,.6.41,1.13.94,1,1.27l-.06.12c.2,1.12-.42,2.53-.9,4a10.31,10.31,0,0,1-2.2,4.49C36,25.15,33.62,27.51,31,26.56"/><path class="cls-40" d="M32,26.75l-.12,0,0,0H32M21,32.18a109.73,109.73,0,0,1,7.48-9.59q-.07-.27-.13-.55a9.79,9.79,0,0,1,3-5.66A8.88,8.88,0,0,1,38,13.52c-2.17-.65-5.18.34-7.56,2.68a9.79,9.79,0,0,0-3,5.66c.18,1-6.27,8.53-7.35,10.14-5.32,8-13.31,13.17-18,19.31A31.79,31.79,0,0,1,4.77,49.4C9.55,44.12,16.34,39.25,21,32.18Z"/><path class="cls-41" d="M30.93,26.59a83,83,0,0,0-10.86,10.8,41.09,41.09,0,0,1-10.34,9c-2.26,1.42-4.52,2.38-7.52,4.79A38.54,38.54,0,0,1,5,48c1.6-1,3-1.7,4.43-2.6a41.09,41.09,0,0,0,10.34-9,83.07,83.07,0,0,1,10.86-10.8c2.64,1,5-1.39,6.12-2.45A10.22,10.22,0,0,0,39,18.63c.89-2.8.91-1.9,1-1.59s0,.31-.69,2.63A10.22,10.22,0,0,1,37,24.15c-1.07,1.05-3.47,3.4-6.12,2.45"/><path class="cls-42" d="M35.73,25.05c-2.33,1.87-5.27,1.59-6.57-.63S28.71,18.9,31,17s5.27-1.59,6.57.63.45,5.52-1.88,7.39"/><path class="cls-43" d="M29.31,19.36c-.09.51,0,1.36-.17,1.35s-.32-.86-.23-1.37.42-1.06.63-1-.13.52-.23,1"/><path class="cls-44" d="M29.18,19c.06,0,.08,0,.12-.05a.63.63,0,0,0,.09-.23c-.12-.21-.52.21-.21.28"/><path class="cls-44" d="M29,19.16s0,0,0,0a.18.18,0,0,0,0-.07c-.05,0-.11.11,0,.1"/><path class="cls-39" d="M36,23.28c-1.79,1.78-4.27,1.8-5.53,0s-.84-4.65,1-6.44,4.27-1.8,5.53,0,.83,4.65-1,6.44"/><path class="cls-45" d="M36,22c-1.54,1.54-3.68,1.55-4.77,0a4.51,4.51,0,0,1,.83-5.55c1.55-1.54,3.68-1.55,4.77,0A4.51,4.51,0,0,1,36,22"/><path class="cls-43" d="M33.88,19.52c-.74,1.11-1.8,1.65-2.36,1.21s-.42-1.7.33-2.81,1.8-1.65,2.36-1.21.41,1.7-.33,2.81"/><path class="cls-43" d="M39.43,16.94a1.77,1.77,0,0,1,.69-.19,3.33,3.33,0,0,1-.06.48h0a2.6,2.6,0,0,0-.6,0,2.29,2.29,0,0,0,0-.26"/><path class="cls-43" d="M39.13,16.39a2,2,0,0,0,1.07-.91c.26-.54-1.42-1.57-1.92-1.51.94.42,1.52,1.14,1.32,1.55-.36.74-.22.3-.47.87"/><path class="cls-46" d="M39.12,15c-.12,0-.23,0-.23.1s.1.13.23.14.23,0,.23-.1-.1-.13-.23-.14"/><path class="cls-47" d="M39.14,17a3.32,3.32,0,0,0,1.17-1.51.56.56,0,0,0,0-.17h0A3.72,3.72,0,0,1,38.82,17l0,0c.28.2.78-.3,1.45-.4V16.6a3.36,3.36,0,0,0-1.09.35"/><path class="cls-48" d="M35.57,14.42a1.23,1.23,0,0,0-.63,1.66,1.33,1.33,0,0,0,1.78.41,1.23,1.23,0,0,0,.63-1.66,1.33,1.33,0,0,0-1.78-.41"/><path class="cls-43" d="M35.59,14.55A1.1,1.1,0,0,0,35,16a1.19,1.19,0,0,0,1.6.31,1.1,1.1,0,0,0,.61-1.45,1.19,1.19,0,0,0-1.6-.31"/><path class="cls-49" d="M35.78,14.76a.86.86,0,0,0-.47,1.13.92.92,0,0,0,1.24.24A.86.86,0,0,0,37,15a.92.92,0,0,0-1.24-.24"/><path class="cls-48" d="M36.29,14.51a.25.25,0,0,0-.08.36.27.27,0,0,0,.35.14.25.25,0,0,0,.08-.36.27.27,0,0,0-.35-.14"/><path class="cls-48" d="M37,15.57a.13.13,0,0,0,0,.19.14.14,0,0,0,.18.08.13.13,0,0,0,0-.19.14.14,0,0,0-.18-.08"/><path class="cls-48" d="M35.57,15.85a.36.36,0,0,0-.08.51.39.39,0,0,0,.48.21.36.36,0,0,0,.08-.51.39.39,0,0,0-.48-.21"/><path class="cls-43" d="M35,13.83a.47.47,0,0,0-.25.59c.08.14.22,0,.49-.09s.57-.17.49-.31a.7.7,0,0,0-.73-.19"/><path class="cls-50" d="M35.1,13.9a.23.23,0,0,0-.12.28c0,.07.1,0,.23,0s.27-.08.23-.15a.33.33,0,0,0-.35-.09"/><path class="cls-40" d="M23.59,21.53a.16.16,0,0,1,.18-.15.19.19,0,0,1,.16.19.15.15,0,0,1-.18.15.19.19,0,0,1-.16-.19m.61-1a.1.1,0,0,1,.11.08.08.08,0,0,1-.07.1.1.1,0,0,1-.11-.08A.09.09,0,0,1,24.2,20.48ZM22.36,22a.13.13,0,0,1,.11.14.11.11,0,0,1-.13.1.13.13,0,0,1-.11-.14A.11.11,0,0,1,22.36,22Zm-.05,1.24a.14.14,0,0,1,0,.19.12.12,0,0,1-.18,0,.14.14,0,0,1,0-.19A.12.12,0,0,1,22.31,23.2Zm-.78-.4a.16.16,0,0,1,.14.17.13.13,0,0,1-.15.13.16.16,0,0,1-.14-.17A.13.13,0,0,1,21.53,22.8Zm3.91-2.49a.23.23,0,0,1,.06.31.21.21,0,0,1-.3,0,.23.23,0,0,1-.06-.31A.21.21,0,0,1,25.44,20.31Zm.58-.9a.22.22,0,0,1,.19.23.18.18,0,0,1-.21.17.22.22,0,0,1-.19-.23A.18.18,0,0,1,26,19.41Zm1.23-.47a.16.16,0,0,1,.09.19.13.13,0,0,1-.18.08.16.16,0,0,1-.09-.19A.13.13,0,0,1,27.25,18.94Zm-7.18,5.28a.13.13,0,0,1,.07.15.11.11,0,0,1-.14.06.13.13,0,0,1-.07-.15A.11.11,0,0,1,20.07,24.22Zm.77,0a.2.2,0,0,1,.17.2.16.16,0,0,1-.19.16.2.2,0,0,1-.17-.2A.16.16,0,0,1,20.84,24.19Zm-1.64,1a.21.21,0,0,1,.23.17.18.18,0,0,1-.15.22.21.21,0,0,1-.23-.17A.18.18,0,0,1,19.2,25.23Zm-1.1.84a.15.15,0,0,1,.13.16.12.12,0,0,1-.14.12.15.15,0,0,1-.13-.16A.12.12,0,0,1,18.1,26.07Zm.48.89a.13.13,0,0,1,.11.13.1.1,0,0,1-.12.1.13.13,0,0,1-.11-.13A.1.1,0,0,1,18.58,27Zm0-1.76a.1.1,0,0,1,.06.12.08.08,0,0,1-.11,0,.1.1,0,0,1-.06-.12A.08.08,0,0,1,18.57,25.2Zm-1.27,2.56a.22.22,0,0,1,.24.18.18.18,0,0,1-.15.23.22.22,0,0,1-.24-.18A.18.18,0,0,1,17.31,27.77ZM17,26.93a.17.17,0,0,1,.14.17.14.14,0,0,1-.16.13.17.17,0,0,1-.14-.17A.14.14,0,0,1,17,26.93Zm-1.38,3.31a.38.38,0,0,1,.11.51.34.34,0,0,1-.49.07.38.38,0,0,1-.11-.51A.34.34,0,0,1,15.65,30.23Zm.09-.88a.18.18,0,0,1,.16.19.15.15,0,0,1-.17.14.18.18,0,0,1-.16-.19A.15.15,0,0,1,15.74,29.35ZM13.8,32.54a.16.16,0,0,1,0,.22.15.15,0,0,1-.21,0,.16.16,0,0,1,0-.22A.15.15,0,0,1,13.8,32.54Zm-1.52,2.71a.27.27,0,0,1,.16.32.22.22,0,0,1-.31.13.27.27,0,0,1-.16-.32A.22.22,0,0,1,12.29,35.25Zm.47-1.56a.24.24,0,0,1,.3.12.21.21,0,0,1-.1.3.24.24,0,0,1-.3-.12A.22.22,0,0,1,12.76,33.7ZM23.33,22.17a.2.2,0,0,1,.21.16.16.16,0,0,1-.14.2.19.19,0,0,1-.21-.16A.16.16,0,0,1,23.33,22.17Z"/><path class="cls-40" d="M27.93,34.83a.16.16,0,0,0,.16-.17.19.19,0,0,0-.18-.18.16.16,0,0,0-.16.17.19.19,0,0,0,.18.18M29,34.29a.1.1,0,0,0-.07-.12.08.08,0,0,0-.11.06.1.1,0,0,0,.07.12A.08.08,0,0,0,29,34.29ZM27.41,36a.13.13,0,0,0-.13-.12.11.11,0,0,0-.11.12.13.13,0,0,0,.13.12A.11.11,0,0,0,27.41,36Zm-1.22,0A.14.14,0,0,0,26,36a.13.13,0,0,0,0,.18.14.14,0,0,0,.18.05A.13.13,0,0,0,26.19,36Zm.34.81a.16.16,0,0,0-.16-.15.13.13,0,0,0-.14.15.16.16,0,0,0,.15.15A.13.13,0,0,0,26.53,36.82ZM29.26,33A.23.23,0,0,0,29,33a.21.21,0,0,0-.06.3.23.23,0,0,0,.3.09A.21.21,0,0,0,29.26,33Zm.93-.52a.22.22,0,0,0-.21-.21.18.18,0,0,0-.18.2.22.22,0,0,0,.21.2A.18.18,0,0,0,30.19,32.53Zm.55-1.21a.16.16,0,0,0-.18-.11.14.14,0,0,0-.09.18.16.16,0,0,0,.18.11A.14.14,0,0,0,30.73,31.31ZM25,38.21a.12.12,0,0,0-.15-.09.11.11,0,0,0-.07.14.12.12,0,0,0,.15.09A.11.11,0,0,0,25,38.21Zm.08-.78a.2.2,0,0,0-.19-.18.16.16,0,0,0-.17.18.2.2,0,0,0,.19.18A.16.16,0,0,0,25.12,37.43ZM24,39a.21.21,0,0,0-.15-.24.18.18,0,0,0-.23.13.21.21,0,0,0,.15.24A.17.17,0,0,0,24,39Zm-.9,1.06a.15.15,0,0,0-.14-.14.12.12,0,0,0-.13.14.15.15,0,0,0,.14.14A.12.12,0,0,0,23.07,40.07Zm-.84-.55a.13.13,0,0,0-.12-.12.1.1,0,0,0-.11.11.13.13,0,0,0,.12.12A.1.1,0,0,0,22.23,39.52Zm1.73.13a.1.1,0,0,0-.12-.07.09.09,0,0,0-.06.11.1.1,0,0,0,.11.07A.09.09,0,0,0,24,39.65Zm-2.61,1.1a.22.22,0,0,0-.16-.25.18.18,0,0,0-.23.14.22.22,0,0,0,.16.25A.18.18,0,0,0,21.35,40.75Zm.81.34a.17.17,0,0,0-.16-.16.14.14,0,0,0-.14.15.17.17,0,0,0,.16.16A.14.14,0,0,0,22.16,41.09Zm-3.35,1.16a.37.37,0,0,0-.5-.14.35.35,0,0,0-.1.5.37.37,0,0,0,.5.14A.35.35,0,0,0,18.81,42.25Zm.88,0a.18.18,0,0,0-.17-.17.15.15,0,0,0-.15.16.18.18,0,0,0,.17.17A.15.15,0,0,0,19.68,42.23ZM16.41,44a.16.16,0,0,0-.21-.06.15.15,0,0,0,0,.21.16.16,0,0,0,.21.06A.15.15,0,0,0,16.41,44Zm-2.78,1.35a.26.26,0,0,0-.31-.18.23.23,0,0,0-.15.3.26.26,0,0,0,.31.18A.23.23,0,0,0,13.63,45.31Zm1.57-.37a.24.24,0,0,0-.1-.31.21.21,0,0,0-.3.08.24.24,0,0,0,.1.31A.21.21,0,0,0,15.2,44.94Zm12.08-9.89a.2.2,0,0,0-.14-.22.16.16,0,0,0-.21.12.2.2,0,0,0,.14.22A.16.16,0,0,0,27.28,35.05Z"/><path class="cls-40" d="M10.1,40.23a.15.15,0,0,1-.17.16.19.19,0,0,1-.17-.19A.15.15,0,0,1,9.93,40a.19.19,0,0,1,.17.19M9.53,41.3a.1.1,0,0,1-.11-.08.09.09,0,0,1,.07-.11.1.1,0,0,1,.11.08A.09.09,0,0,1,9.53,41.3Zm1.78-1.55a.13.13,0,0,1-.12-.13.11.11,0,0,1,.12-.11.13.13,0,0,1,.12.13A.11.11,0,0,1,11.31,39.74Zm0-1.24a.14.14,0,0,1,0-.19.12.12,0,0,1,.18,0,.14.14,0,0,1,0,.19A.12.12,0,0,1,11.32,38.5Zm.79.37a.16.16,0,0,1-.14-.16.13.13,0,0,1,.15-.13.16.16,0,0,1,.14.16A.13.13,0,0,1,12.11,38.87ZM8.3,41.52a.23.23,0,0,1-.08-.31.21.21,0,0,1,.3-.05.23.23,0,0,1,.08.31A.21.21,0,0,1,8.3,41.52Zm-.54.93a.22.22,0,0,1-.19-.22.18.18,0,0,1,.2-.18.22.22,0,0,1,.2.22A.18.18,0,0,1,7.76,42.44ZM6.55,43a.16.16,0,0,1-.1-.19.13.13,0,0,1,.18-.09.16.16,0,0,1,.1.19A.13.13,0,0,1,6.55,43Zm7-5.56a.13.13,0,0,1-.08-.15.11.11,0,0,1,.14-.07.13.13,0,0,1,.08.15A.11.11,0,0,1,13.52,37.4Zm-.77.06a.2.2,0,0,1-.17-.2.16.16,0,0,1,.18-.16.2.2,0,0,1,.17.2A.16.16,0,0,1,12.75,37.46Zm1.6-1.11a.21.21,0,0,1-.23-.16.18.18,0,0,1,.14-.22.21.21,0,0,1,.23.16A.18.18,0,0,1,14.35,36.35Zm1.07-.88a.15.15,0,0,1-.13-.15.12.12,0,0,1,.14-.12.15.15,0,0,1,.13.15A.12.12,0,0,1,15.42,35.47Zm-.51-.87a.13.13,0,0,1-.11-.13.1.1,0,0,1,.11-.1.13.13,0,0,1,.11.13A.1.1,0,0,1,14.9,34.6ZM15,36.36a.1.1,0,0,1-.06-.12.08.08,0,0,1,.11-.05.1.1,0,0,1,.06.12A.08.08,0,0,1,15,36.36Zm1.17-2.62a.22.22,0,0,1-.24-.17.19.19,0,0,1,.14-.23.22.22,0,0,1,.24.17A.19.19,0,0,1,16.14,33.74Zm.31.83a.17.17,0,0,1-.15-.17.14.14,0,0,1,.15-.14.17.17,0,0,1,.15.17A.14.14,0,0,1,16.45,34.57Zm1.25-3.37a.38.38,0,0,1-.12-.51.34.34,0,0,1,.49-.08.38.38,0,0,1,.12.51A.34.34,0,0,1,17.71,31.21Zm-.05.89a.18.18,0,0,1-.16-.18.15.15,0,0,1,.17-.15.18.18,0,0,1,.16.18A.15.15,0,0,1,17.65,32.1Zm1.81-3.26a.16.16,0,0,1-.05-.22.14.14,0,0,1,.21,0,.16.16,0,0,1,.05.22A.14.14,0,0,1,19.46,28.83Zm1.41-2.78a.27.27,0,0,1-.17-.32.22.22,0,0,1,.3-.14.27.27,0,0,1,.17.32A.22.22,0,0,1,20.88,26.05Zm-.41,1.58a.24.24,0,0,1-.3-.11.22.22,0,0,1,.09-.3.24.24,0,0,1,.3.11A.22.22,0,0,1,20.46,27.63ZM10.34,39.57a.19.19,0,0,1-.21-.15.16.16,0,0,1,.13-.21.19.19,0,0,1,.21.15A.16.16,0,0,1,10.34,39.57Z"/><path class="cls-40" d="M18.24,40.48a.16.16,0,0,1-.19.13.19.19,0,0,1-.15-.21.15.15,0,0,1,.19-.13.19.19,0,0,1,.15.21m-.7,1a.1.1,0,0,1-.1-.09.08.08,0,0,1,.08-.1.1.1,0,0,1,.1.09A.08.08,0,0,1,17.54,41.46Zm2-1.31a.13.13,0,0,1-.1-.15.11.11,0,0,1,.13-.09.13.13,0,0,1,.1.15A.11.11,0,0,1,19.51,40.15Zm.15-1.22a.14.14,0,0,1,0-.19.13.13,0,0,1,.18,0,.14.14,0,0,1,0,.19A.13.13,0,0,1,19.66,38.94Zm.75.46a.16.16,0,0,1-.13-.18.13.13,0,0,1,.16-.11.16.16,0,0,1,.13.18A.13.13,0,0,1,20.41,39.39Zm-4.12,2.14a.23.23,0,0,1,0-.31.21.21,0,0,1,.3,0,.23.23,0,0,1,0,.31A.21.21,0,0,1,16.29,41.53Zm-.65.85a.22.22,0,0,1-.17-.24.18.18,0,0,1,.22-.15.22.22,0,0,1,.17.24A.18.18,0,0,1,15.64,42.37Zm-1.28.36a.16.16,0,0,1-.08-.2.13.13,0,0,1,.19-.06.16.16,0,0,1,.08.2A.13.13,0,0,1,14.36,42.73ZM22,38.12a.13.13,0,0,1-.06-.16.11.11,0,0,1,.15-.05.13.13,0,0,1,.06.16A.11.11,0,0,1,22,38.12Zm-.78,0a.2.2,0,0,1-.15-.21.16.16,0,0,1,.2-.14.2.2,0,0,1,.15.21A.16.16,0,0,1,21.22,38.08Zm1.73-.9a.21.21,0,0,1-.21-.19.18.18,0,0,1,.16-.2.21.21,0,0,1,.22.19A.18.18,0,0,1,23,37.19Zm1.18-.74a.15.15,0,0,1-.12-.16.12.12,0,0,1,.15-.11.15.15,0,0,1,.12.16A.12.12,0,0,1,24.13,36.45Zm-.41-.92a.13.13,0,0,1-.1-.14.1.1,0,0,1,.13-.09.13.13,0,0,1,.1.14A.1.1,0,0,1,23.72,35.53Zm-.14,1.74a.1.1,0,0,1,0-.13.08.08,0,0,1,.12,0,.1.1,0,0,1,0,.13A.08.08,0,0,1,23.58,37.27Zm1.48-2.43a.22.22,0,0,1-.22-.19.18.18,0,0,1,.17-.21.22.22,0,0,1,.22.19A.18.18,0,0,1,25.06,34.84Zm.21.85a.17.17,0,0,1-.13-.18.14.14,0,0,1,.17-.12.17.17,0,0,1,.13.18A.14.14,0,0,1,25.27,35.69Zm1.65-3.16a.38.38,0,0,1-.07-.52.35.35,0,0,1,.5,0,.38.38,0,0,1,.07.52A.35.35,0,0,1,26.92,32.54Zm-.16.87a.18.18,0,0,1-.14-.2.15.15,0,0,1,.18-.13.18.18,0,0,1,.14.2A.15.15,0,0,1,26.76,33.4Zm2.2-3a.16.16,0,0,1,0-.22.15.15,0,0,1,.21,0,.16.16,0,0,1,0,.22A.15.15,0,0,1,29,30.42Zm1.74-2.56a.27.27,0,0,1-.13-.33.23.23,0,0,1,.32-.11.27.27,0,0,1,.13.33A.23.23,0,0,1,30.71,27.86Zm-.6,1.5a.24.24,0,0,1-.29-.15.21.21,0,0,1,.12-.29.24.24,0,0,1,.29.15A.21.21,0,0,1,30.11,29.36ZM18.56,39.87a.2.2,0,0,1-.2-.17.16.16,0,0,1,.15-.19.2.2,0,0,1,.2.17A.16.16,0,0,1,18.56,39.87Z"/></svg>