<svg id="Layer_1" data-name="Layer 1" xmlns="http://www.w3.org/2000/svg" viewBox="0 0 33.9 24.6"><defs><style>.cls-1,.cls-9{fill:orange;}.cls-2{fill:#39f;}.cls-10,.cls-11,.cls-2,.cls-3,.cls-4,.cls-5,.cls-6,.cls-7,.cls-8,.cls-9{fill-rule:evenodd;}.cls-3{fill:#090052;}.cls-4,.cls-7,.cls-8{fill:#0d0072;}.cls-5{fill:#4026d3;}.cls-6{fill:#ffed17;}.cls-7,.cls-8{stroke:#0d0072;stroke-miterlimit:22.93;}.cls-7{stroke-width:1.42px;}.cls-8{stroke-width:0.57px;}.cls-10{fill:#d10072;}.cls-11{fill:#5a00bf;}</style></defs><title>caterpillar</title><path class="cls-1" d="M32.4,2.5c0-.1,0-.2,0-.3a.7.7,0,0,1,.2-.5h.2v.2a1.5,1.5,0,0,0-.2.5l.2-.2s0,.2,0,.2v.2h-.2C32.4,2.7,32.4,2.5,32.4,2.5Z"/><path class="cls-1" d="M30.1,0l.6.7V.9a.4.4,0,0,1,0,.2l-.3.9c-.1-.3-.1-.6-.1-.9A3,3,0,0,0,30.1,0Z"/><path class="cls-1" d="M26.3,1.1l.5-.5a.3.3,0,0,1,.1.3.2.2,0,0,0,0,.1h.2V.8a.1.1,0,0,1,.1.2h.5v.2a1.1,1.1,0,0,1,0,.7l-.2.2c-.2.1-.4-.1-.6-.2h-.5C26.2,1.8,26.2,1.4,26.3,1.1Z"/><path class="cls-1" d="M22.2,3.2a1.3,1.3,0,0,1-.5-.7.1.1,0,0,1,0,0h.1l.3.2.4.3h.2a.1.1,0,0,0,0-.1L22.3,2c0-.1,0-.1,0-.2h.1a1.2,1.2,0,0,1,.5.8V3a1.7,1.7,0,0,1,.1.4.3.3,0,0,1-.1.2h-.2Z"/><path class="cls-1" d="M2.3,10.6h.1l.9.6h.1c.1,0,.1-.1,0-.2a3.4,3.4,0,0,1-.2-.9c0-.1,0-.2.1-.2h.1l.6.8.4.6a.7.7,0,0,1-.7,1c-.2,0-.4-.2-.6-.4a7.4,7.4,0,0,1-1.3-1.3l.4-.2Z"/><path class="cls-1" d="M6.5,9.4h.1l.8.6h.1c.1,0,0-.1,0-.2a4.1,4.1,0,0,1-.3-.8c0-.1,0-.2.1-.2h.1l.6.8.4.6c.2.5,0,.9-.5.8s-.4-.3-.5-.4L6.2,9.4h.3Z"/><path class="cls-1" d="M10,8.4h.1l.6.5h.1s0-.1,0-.1l-.2-.6c0-.1,0-.2,0-.1h.1l.5.6.3.5c.2.4,0,.7-.3.6l-.4-.3L9.8,8.4H10Z"/><path class="cls-1" d="M12.8,6.9h.1l.6.5h.1s0-.1,0-.1l-.2-.6c0-.1,0-.2,0-.1h.1l.5.6.3.5c.2.4,0,.7-.3.6L13.5,8,12.6,7h.2Z"/><path class="cls-1" d="M15.7,6.1H16a.2.2,0,0,0,0-.1V5.6a.3.3,0,0,1,0-.2h.3l.3.4.3.5c.2.4,0,.7-.3.6l-.4-.3-.4-.5c0-.1-.1-.2,0-.2Z"/><path class="cls-1" d="M18.8,3.9h.4V3.9l.2-.3h.2a.1.1,0,0,1,0,.2h-.1c0,.2.2.4.3.5s0,.7-.3.6a2.2,2.2,0,0,1-.8-.6L18.4,4a.5.5,0,0,1,.1-.5A1.1,1.1,0,0,1,18.8,3.9Z"/><path class="cls-2" d="M1.5,24.5c.5.5,6.1-.7,5.3-1.8S-.4,22.6,1.5,24.5Z"/><path class="cls-3" d="M2.3,24.6A11.9,11.9,0,0,0,5,24.1l-1.2-.3c-1-.2-1.9,0-1.9.3S2,24.5,2.3,24.6Z"/><path class="cls-4" d="M27.3,9.8s-1.6.7-1.3,1.1S28.3,10.1,27.3,9.8Z"/><path class="cls-4" d="M9.3,21.3c.1.2-.5.7-.6.7s-.7.5-1.1.1S8.9,20.3,9.3,21.3Z"/><path class="cls-4" d="M10.2,21c.3-.2.8-.4.9-.8s-.2-.4-.4-.5S9.3,21.7,10.2,21Z"/><path class="cls-4" d="M11.8,19.7a2.3,2.3,0,0,1,1-.3c1,0,.7,1.1,0,1.1s.1.2-.5-.1h-.5c-.2,0-.4-.2-.4-.4S11.1,19.6,11.8,19.7Z"/><path class="cls-4" d="M17.8,17s1.7-2.1,2.2-1.7S17.7,18.6,17.8,17Z"/><path class="cls-4" d="M20.8,14.6s1.4-1.9,1.9-1.5S20.8,16.1,20.8,14.6Z"/><path class="cls-4" d="M25.2,11.2s-2.3,1.1-2,1.6S26.7,11.5,25.2,11.2Z"/><path class="cls-2" d="M15,7.5c.2-.1.5.1.9.5s4.5,5.7,4.7,6.5-1.8,3.1-3.4,3.1-3.8-7.1-4.5-8.1-.1-.5.1-.7.8-.3,1.1-.5Z"/><path class="cls-2" d="M9.7,11a3.4,3.4,0,0,1,2.8-1.9c.2,0,.1.4.5.8a34.1,34.1,0,0,1,4.2,7.6c0,.4-1.3,1.7-3.1,2.1S11,13,9.7,11.4A.4.4,0,0,1,9.7,11Z"/><path class="cls-5" d="M11,9.5c-.5.5-1.2.6,1.3,5.2s1,5.1,2.9,4.5l-1.2.4c-1.1.2-3-6.6-4.2-8.2a.4.4,0,0,1-.1-.5A3.2,3.2,0,0,1,11,9.5Z"/><path class="cls-2" d="M17.5,6c.2,0,.4.1.8.5s4.3,5.4,4.5,6.2-.9,2.4-2.3,2.2-.4-.1-.6-.5-3.5-5.2-4.4-6.5S17.1,6.1,17.5,6Z"/><path class="cls-5" d="M20.6,9.5h-.2c-.6-.6-2.2-3.4-3-3.5s-1.8.9-1.8,1.3,3.4,6,4.6,6.5.9.5,1.3.2a3.8,3.8,0,0,0,1.1-1.3c-.2.6-1,2.1-2.3,2s-.4-.1-.6-.5-3.5-5.2-4.4-6.5S17.1,6.1,17.5,6s.4.1.8.5Z"/><path class="cls-2" d="M18,6a3.2,3.2,0,0,1,2.6-1.8.9.9,0,0,1,.8.4c1.1,1.3,4.9,5.9,4.3,6.4A9.5,9.5,0,0,1,22.8,13c-.2.1-.4-.1-.6-.4S19,7.6,18.1,6.4A.4.4,0,0,1,18,6Z"/><path class="cls-6" d="M18.6,5.1a3.3,3.3,0,0,1,1.5-.8c.2.2.5.2.6,1s-1.1-.3-1.6.4S18.8,5.5,18.6,5.1Z"/><path class="cls-5" d="M18,6l.5-.7a1.6,1.6,0,0,0,.3,1.5c2.1,3.2,2.5,5.3,4.4,5.5s1-.4,1.9-.7A10.5,10.5,0,0,1,22.8,13c-.2.1-.4-.1-.6-.4S19,7.6,18.1,6.4A.4.4,0,0,1,18,6Z"/><path class="cls-2" d="M25.4,2.9c1.1,1.2,2.5,5.7,2.5,6.4s-.7,1-2,1.6-3.8-5.6-5-6.5-.1-.3.1-.4a10.1,10.1,0,0,1,1.7-.7c.5-.2.8-.6,1.3-.6A1.7,1.7,0,0,1,25.4,2.9Z"/><path class="cls-5" d="M27.8,8.8v.6c0,.3-.7,1-2,1.6s-3.8-5.6-5-6.5-.1-.3.1-.4a10.1,10.1,0,0,1,1.7-.7h.1c-.6.4-1.3.4-.9,1.4a33.8,33.8,0,0,0,2.7,4.5c.5.9.8,1.6,2.1,1l1-.6c.2-.2-.3-.8-.3-1.2Z"/><path class="cls-2" d="M24.6,2.6c.5-.9,4.4-1.4,5.2-.4s.8,4.1.8,4.8-1.2,1.6-2.7,2.4-2.4-5.3-3.3-6.4A.3.3,0,0,1,24.6,2.6Z"/><path class="cls-6" d="M25.9,1.8a7.7,7.7,0,0,1,2.4-.2,2.6,2.6,0,0,0,0,.6c0,1-.5-.6-2.1.4S25.7,2.4,25.9,1.8Z"/><path class="cls-5" d="M28.3,1.6a2.2,2.2,0,0,1,1.5.5c1,1.1.8,4.1.8,4.8s-.3.6-.9,1.1a.9.9,0,0,1,.4-.7c.5-.4.1-1.7-.1-2.8a13.9,13.9,0,0,0-.3-1.9A1.9,1.9,0,0,0,28.3,1.6Z"/><path class="cls-2" d="M9.8,10.7c1,.4,3.6,7.6,3.7,8.7s0,.5-.3.4-.8-.4-1.6.2a.8.8,0,0,1-1-.2c-.7-.9-3.3-2.6-4.2-4.4S6.4,12.6,6,12,9.4,10.5,9.8,10.7Z"/><path class="cls-5" d="M13.5,19.2v.2c0,.1,0,.5-.3.4s-.7-.3-1.1-.1h0c.2-.1.1-.1.8-.1s.5.1.5-.2Z"/><path class="cls-5" d="M8,10.8c-.9.5-1.9.8-1.2,1.8s3.3,5.9,4.4,7.2a.4.4,0,0,0,.5.1h-.1a.8.8,0,0,1-1-.2c-.7-.9-3.3-2.6-4.2-4.4S6.4,12.6,6,12s.8-.9,1.9-1.1H8Z"/><path class="cls-2" d="M2.5,13.1a3.1,3.1,0,0,1,1.4-1.2c1.3-.5,2.4-1,2.3,0s5.1,7.7,4.6,8.1l-.7.5-.5.6c-.2.2-.5.1-.8-.2s-5.8-5.2-6.8-6.6S2.4,13.2,2.5,13.1Z"/><path class="cls-6" d="M3.1,12.5l.8-.5,1.5-.5c0,2.2-2.2,1.2-2.2,1.2Z"/><path class="cls-5" d="M2.5,13.1l.2-.3c-.3,1.2.5,2.1,1.5,2.9s4.8,5,5.3,5,.4-.2.6-.4.4-.1.6-.7h.1c0,.1,0,.2,0,.3l-.7.5-.5.6c-.2.2-.5.1-.8-.2s-5.8-5.2-6.8-6.6S2.4,13.2,2.5,13.1Z"/><path class="cls-2" d="M.9,20.1c.5-1-.5-5.7.9-5.9a1,1,0,0,1,1,.4c1.3,1.5,6.4,5.7,6.5,6.6l-1,.5c-.2.1-.4.5-.7.6s-.6-.2-1.2-.3C4.2,21.5.7,20.3.9,20.1Z"/><path class="cls-5" d="M1,16c0,.6.2,1.9.2,2.2A3.6,3.6,0,0,0,3,20.1a18.1,18.1,0,0,1,3.1,1.5c.2.2.5.2,1,.6l-.7-.2C4.2,21.5.7,20.3.9,20.1S.9,17.5,1,16Z"/><path class="cls-2" d="M1.4,19.2c1.5,1.4,4.4,1.9,4.6,2.7s-1.6,1.4-3.1,1.2-2,0-2.1-.5C.4,19.4,1.4,19.1,1.4,19.2Z"/><path class="cls-5" d="M5.6,21.5a.8.8,0,0,1,.4.4c.1.4-1.6,1.4-3.1,1.2s-2,0-2.1-.5v-.4c1,1.3,4.9.7,5-.2A.9.9,0,0,0,5.6,21.5Z"/><path class="cls-7" d="M.8,22.1a6.6,6.6,0,0,1,0-1.9c1,.5,2.6,1.3,1.9,1.8s-.7-.3-1.5.1Z"/><path class="cls-2" d="M29.9,1.8c.6-.2,1.7-.4,2.1.3a6.6,6.6,0,0,1-.4,4c-.3.7-.8,1.1-1,.9s-.4-3.7-.9-4.8S29.6,1.9,29.9,1.8Z"/><path class="cls-5" d="M30.6,1.6c.5-.1,1.1-.1,1.4.5a6.6,6.6,0,0,1-.4,4c-.3.7-.8,1.1-1,.9s-.1-.2-.2-.5.8.1.8-.1a9.9,9.9,0,0,1,.1-1.9,18.5,18.5,0,0,0,.2-2.4C31.5,1.6,31.2,1.6,30.6,1.6Z"/><path class="cls-2" d="M32.1,6c-.1.4-.7.5-.7.1s.3-3.1.3-3.9.4-.2.7,0,1.2.6,1,1.4S32.2,5.3,32.1,6Z"/><path class="cls-5" d="M32.1,6c-.1.4-.7.5-.7.1s0-.1,0-.2h.1c.3.3.5.1.5-.2s2.1-2.3.5-3.5c.5.3,1,.5.9,1.3S32.2,5.3,32.1,6Z"/><path class="cls-5" d="M25.8,1.9c-.2.3-1.1.4-.8.9,2.8,5.7,1.8,6.7,5.5,4.4h.1a7.4,7.4,0,0,1-2.6,2.2c-.2.1-2.4-5.3-3.3-6.4a.3.3,0,0,1-.1-.3A2,2,0,0,1,25.8,1.9Z"/><path class="cls-5" d="M8,21.7c.3-.3.9-.6.9-.8a.9.9,0,0,0-.1-.6,2,2,0,0,1,.5.8l-1,.5c-.2.1-.4.5-.7.6s-.5-.1-.9-.2h0C7.2,22,7.5,22.3,8,21.7Z"/><path class="cls-6" d="M24.6,5.3c.3.6-.1.4.5,1.4s.2,1.2-.7,0-.5-.6-.2-1.3S24.4,5.1,24.6,5.3Z"/><path class="cls-6" d="M21.3,7.3c-.3-.2-.7.3-.5.6s.6,1.3,1.4.6S21.6,7.5,21.3,7.3Z"/><path class="cls-6" d="M18.4,9c.8.4.4.6,1,1.6s-.3.3-.8-.4-1.2-.7-.3-1.2Z"/><path class="cls-6" d="M15.9,10.8c.3.5.2.1.3.6s.6,1,.2.9-.4-.7-.8-.9S15.4,10.4,15.9,10.8Z"/><path class="cls-6" d="M13.5,12.8a17.8,17.8,0,0,0,.6,1.7c.4.6-.8.8-1.3-1.1-.1-.2-.6-.5,0-.9S13.4,12.7,13.5,12.8Z"/><path class="cls-6" d="M10.7,15.8c-.3.3-.5-.2-.9-.7s.1-.8.4-1.2S11.2,15.2,10.7,15.8Z"/><path class="cls-6" d="M5.7,14.6l-.3.4c-.1.1.6.4,1.1,1s1.3,1.9,1.2.8-1-.7-1.1-1.7S6,14.4,5.7,14.6Z"/><path class="cls-6" d="M3.2,17.6c-.1.9.4.7,1.1,1.1s1.1.2-.1-.6S3.6,17,3.2,17.6Z"/><path class="cls-6" d="M27.4,4.1c1.2-.8,1,1.5.7,1.5l-.8-.7C26.8,4.5,27.1,4.2,27.4,4.1Z"/><path class="cls-6" d="M30.9,4.2c0,.2.1.7-.2.4s0-.4-.3-.8-.1-.5.3-.4S30.9,4,30.9,4.2Z"/><path class="cls-6" d="M32,4.2a.4.4,0,0,1,.2-.5C32.5,3.5,32.1,4.7,32,4.2Z"/><path class="cls-4" d="M32.2,3.5c0-.1.1-.3.1-.1s.3.1.1.2S32.1,3.6,32.2,3.5Z"/><path class="cls-4" d="M30.3,3.1c0-.1.3-.1.4-.1s.2.3.1.2h-.5Z"/><path class="cls-4" d="M28.2,2.9c-.2.1-.8-.3-1.4.4s-1.3.2-.3-.4A1.3,1.3,0,0,1,28.2,2.9Z"/><path class="cls-4" d="M24.2,4.3c-.5.1-.6.7-.7.8s-.5.3-.4-.1-.7-.3.2-.7l.6-.2C23.9,4,24.4,4.3,24.2,4.3Z"/><path class="cls-4" d="M20,6.8c-.1.2-.2.2-.3-.1s-.2-1,.4-.8S20.2,6.1,20,6.8Z"/><path class="cls-4" d="M17.8,7.9c-.5.3-.8,1-.9.5s.1-.3.1-.5S18.3,7.7,17.8,7.9Z"/><path class="cls-4" d="M15,9.1c.2.1.2.3-.1.3s-.7.8-.8.4S14.4,8.7,15,9.1Z"/><path class="cls-4" d="M12.5,10.9c.1.1.3-.4-.4-.5s-.2.3-.6.3-.3.6-.2.8S11.8,10.6,12.5,10.9Z"/><path class="cls-4" d="M9.7,12.1c0,.2.4.2.3.5l-.3.2a1.9,1.9,0,0,1-1.4.5c-.1,0-.4,0-.3-.4s1.1-.6,1.5-.8S9.7,11.9,9.7,12.1Z"/><path class="cls-4" d="M6,13.4c.1.2-.2.3-.4.3a2.2,2.2,0,0,0-.9.6c-.2.2-.2.5-.4.3s-.1-1.3,1.2-1.6S6,13.2,6,13.4Z"/><path class="cls-4" d="M2.9,16.5l-.3.4c-.1.2-.2.3-.3.1a1.2,1.2,0,0,1-.3-.7C2,15.9,3.1,16.2,2.9,16.5Z"/><path class="cls-4" d="M27.8,6.2c0,.1.6.3.7.6s.4.1,0,.3-.3-.4-.7-.4-.6-.4-.5-.5S27.8,6.1,27.8,6.2Z"/><path class="cls-4" d="M25.3,8.3s-.1.4.3.1.3.1.4-.6-.1-.4-.2-.4S25.7,8.1,25.3,8.3Z"/><path class="cls-4" d="M30.7,4.8c.5.3,0,.1.2.4s-.1.2-.1,0S30.6,4.7,30.7,4.8Z"/><path class="cls-4" d="M31.9,4.4c.3.1.1.4,0,.3S31.9,4.4,31.9,4.4Z"/><path class="cls-4" d="M23.6,9.8c0,.1,0,.5-.4.4s-.3.2-.7.3-.9-.3-.2-.6S23.1,8.4,23.6,9.8Z"/><path class="cls-8" d="M19.8,11.9c-.1,0-.8.1.1.4l.7.4c0-.4-.3-.2-.2-.7s-.1-.4-.2-.3A.4.4,0,0,1,19.8,11.9Z"/><path class="cls-4" d="M17.4,13.1c0,.5-.5.4-.2.9s.1.5.2.4.1-.9.1-1S17.6,13,17.4,13.1Z"/><path class="cls-4" d="M14.1,16.3c.5.5,1.2-.7,1.1.6s-.7-.2-1-.3S13.9,16.1,14.1,16.3Z"/><path class="cls-4" d="M11.5,16.8c.3-.3.4,1.3-.8,1s-.5-.6-.2-.5S11.1,17.3,11.5,16.8Z"/><path class="cls-4" d="M7.6,17.9c1,.4.7-.8,1-.1s-.1.5.1.8-.4-.4-.7-.3S7.2,17.7,7.6,17.9Z"/><path class="cls-8" d="M5,19.5c.4,0,.7-.2.9-.2s.8.6,0,.7a1.8,1.8,0,0,1-1.1-.4C4.7,19.5,4.8,19.5,5,19.5Z"/><path class="cls-9" d="M28.1,6.9l.3.4c-.2.2-.3-.1-.5-.3s.1-.2.1-.1Z"/><path class="cls-9" d="M25.6,8.6c.2-.1.5-.4.4.1S25.2,8.8,25.6,8.6Z"/><path class="cls-9" d="M31.9,4.9c.1.1,0,0,0,.2s-.1-.1-.1-.1S31.8,4.8,31.9,4.9Z"/><path class="cls-9" d="M23.1,10.4c.3.1.7-.1.1.4S22.5,10.8,23.1,10.4Z"/><path class="cls-9" d="M20.1,12.7c.1.1.6.3.3.3s-.8-.2-.3-.4Z"/><path class="cls-9" d="M17.8,14.3c0,.2-.3.5.1.7s.2.2.2-.1-.2-.7-.3-.6Z"/><path class="cls-9" d="M14.5,17.1s1.4.6.1.3S14.1,17.1,14.5,17.1Z"/><path class="cls-9" d="M11.1,18c.2.2.6-.2.6.1s-.3.5-.5.1-.4-.2-.1-.3Z"/><path class="cls-9" d="M8.4,18.8c.1.1.7.2.4.4S8.2,18.6,8.4,18.8Z"/><path class="cls-9" d="M6.1,20.2c.4,0,.1,0,.4.1H6.3C6,20.5,6,20.2,6.1,20.2Z"/><path class="cls-9" d="M30.7,5.4c.1.1,0,.1.1.2s0,0-.1,0-.1-.1-.1-.2Z"/><path class="cls-6" d="M32.8,2.5c-.1.6-.3,1.3-.6.2a.7.7,0,0,1,.1-.6h.1Z"/><path class="cls-6" d="M32.8,2.5h0l-.3-.2h.3Z"/><path class="cls-2" d="M32.9,4.1c-.2.2-1.4,2.5-.2,1.5s1.3-.7,1.2-1.3S33.5,3.4,32.9,4.1Z"/><path class="cls-6" d="M15.9,6.8l1-.6.3.5c.4.5.5.4-.1.8s-.2-.2-.3.2S16.2,7.3,15.9,6.8Z"/><path class="cls-6" d="M21.9,3.6l.7-.3,1-.6a1.1,1.1,0,0,1,0,.8c-.3.8-.3.1-1.1.8S22.2,4,21.9,3.6Z"/><path class="cls-6" d="M21.9,3.6h.8l-.7.4Z"/><path class="cls-5" d="M14.3,8c-.8.7-1.6.4-1,1.8s3.5,6.3,4.9,6.8,2-1.4,2.1-1.4-1.9,2.4-3.1,2.4-3.8-7.1-4.5-8.1-.1-.5.1-.7.8-.3,1.1-.5Z"/><path class="cls-6" d="M10.6,9.8l1.2-.6c.2.6.5,1.2-.6,1.2S10.8,10.1,10.6,9.8Z"/><path class="cls-6" d="M7.1,11.1l2-.4a2.1,2.1,0,0,1-.2.9c-.2.3-.1.6-.8.7S7.3,11.5,7.1,11.1Z"/><path class="cls-6" d="M7.1,11.1H8l-.8.4Z"/><path class="cls-6" d="M.9,16.6a6.6,6.6,0,0,1,.2-1.7c.6.3.9.2.4,1.6S1.2,16.7.9,16.6Z"/><path class="cls-6" d="M13.6,8.4h.3l.7-.4c.2.4.4.9-.1.9s-.5,1-.8-.2Z"/><path class="cls-6" d="M11,9.5l-.3.3h0Z"/><path class="cls-10" d="M1,16v.6h0c0-.1,0-.2,0-.2H1Z"/><path class="cls-6" d="M16.9,6.3A2.6,2.6,0,0,0,16,7h.9Z"/><path class="cls-6" d="M30.2,1.7h.6a5.4,5.4,0,0,0-.1,1c.1.5-.8.6-.6-.8Z"/><path class="cls-6" d="M30.9,1.6h0Z"/><path class="cls-4" d="M12,21.9A2.2,2.2,0,0,1,12,20c.4-.7.7-.1.6.8a2.2,2.2,0,0,1-.4.9C12.1,21.7,12.1,22.3,12,21.9Z"/><path class="cls-11" d="M12,21.9h.1C12.1,22,12.1,22.2,12,21.9Z"/><path class="cls-4" d="M10.8,21.5s.7,1.1.2.6l-.7-.9C9.7,20.7,10.6,19.4,10.8,21.5Z"/><path class="cls-11" d="M11,22c.1.2.2.5-.1.2H11Z"/><path class="cls-4" d="M9.2,21.9c.1.1.1.3.2.4s.5.5.3.4a3.5,3.5,0,0,1-1.3-.8C8.6,21.6,8.4,21.2,9.2,21.9Z"/><path class="cls-11" d="M9.7,22.7c.1.1.2.2,0,.1h0Z"/><path class="cls-6" d="M14.3,8l-.8.5h.8Z"/><path class="cls-9" d="M3.3,21.7c.2,0,.7,0,.4.4s-.3-.1-.6-.2-.1-.2.1-.1Z"/></svg>