<svg id="Layer_1" data-name="Layer 1" xmlns="http://www.w3.org/2000/svg" xmlns:xlink="http://www.w3.org/1999/xlink" viewBox="0 0 18.74 12.78"><defs><style>.cls-1{fill:url(#linear-gradient);}.cls-2{fill:url(#linear-gradient-2);}.cls-3{fill:url(#linear-gradient-3);}.cls-4{fill:url(#linear-gradient-4);}.cls-5{fill:url(#linear-gradient-5);}.cls-6{fill:url(#linear-gradient-6);}.cls-7{fill:url(#linear-gradient-7);}.cls-8{fill:url(#linear-gradient-8);}.cls-9{fill:url(#linear-gradient-9);}.cls-10{fill:url(#linear-gradient-10);}.cls-11{fill:url(#linear-gradient-11);}.cls-12{fill:url(#linear-gradient-12);}.cls-13{fill:url(#linear-gradient-13);}.cls-14{fill:url(#linear-gradient-14);}.cls-15{fill:url(#linear-gradient-15);}.cls-16{fill:url(#linear-gradient-16);}.cls-17{fill:url(#linear-gradient-17);}.cls-18{fill:url(#radial-gradient);}.cls-19{fill:url(#radial-gradient-2);}.cls-20{fill:url(#linear-gradient-18);}.cls-21{fill:url(#linear-gradient-19);}.cls-22{fill:url(#linear-gradient-20);}.cls-23{fill:url(#linear-gradient-21);}.cls-24{fill:url(#linear-gradient-22);}.cls-25{fill:url(#linear-gradient-23);}.cls-26{fill:#221f1f;}.cls-27{fill:#fff;}</style><linearGradient id="linear-gradient" x1="-2036.68" y1="0.14" x2="-2036.35" y2="1.79" gradientTransform="matrix(-1, 0, 0, 1, -2021.35, 0)" gradientUnits="userSpaceOnUse"><stop offset="0" stop-color="#84c241"/><stop offset="0.02" stop-color="#89c441"/><stop offset="0.17" stop-color="#a3cd43"/><stop offset="0.3" stop-color="#b3d345"/><stop offset="0.4" stop-color="#b9d545"/><stop offset="1" stop-color="#456f34"/></linearGradient><linearGradient id="linear-gradient-2" x1="-2037" y1="5.47" x2="-2035.51" y2="5.84" gradientTransform="matrix(-1, 0, 0, 1, -2021.35, 0)" gradientUnits="userSpaceOnUse"><stop offset="0" stop-color="#456f34"/><stop offset="0.6" stop-color="#b9d545"/><stop offset="0.7" stop-color="#b3d345"/><stop offset="0.83" stop-color="#a3cd43"/><stop offset="0.98" stop-color="#89c441"/><stop offset="1" stop-color="#84c241"/></linearGradient><linearGradient id="linear-gradient-3" x1="-2036.81" y1="5.9" x2="-2037.33" y2="8.21" gradientTransform="matrix(-1, 0, 0, 1, -2021.35, 0)" gradientUnits="userSpaceOnUse"><stop offset="0" stop-color="#b9d545"/><stop offset="0.24" stop-color="#d5b136"/><stop offset="0.47" stop-color="#ec922a"/><stop offset="0.61" stop-color="#f58725"/><stop offset="1" stop-color="#965624"/></linearGradient><linearGradient id="linear-gradient-4" x1="-2027.35" y1="2.64" x2="-2026.22" y2="2.64" gradientTransform="matrix(-1, 0, 0, 1, -2021.35, 0)" gradientUnits="userSpaceOnUse"><stop offset="0" stop-color="#264b9b"/><stop offset="1" stop-color="#10bef0"/></linearGradient><linearGradient id="linear-gradient-5" x1="-2025.87" y1="3.17" x2="-2024.66" y2="3.17" xlink:href="#linear-gradient-4"/><linearGradient id="linear-gradient-6" x1="-2027.04" y1="2.88" x2="-2024.13" y2="2.58" xlink:href="#linear-gradient-2"/><linearGradient id="linear-gradient-7" x1="-2037.31" y1="4.2" x2="-2036.99" y2="3.09" xlink:href="#linear-gradient-2"/><linearGradient id="linear-gradient-8" x1="-2037.22" y1="3.79" x2="-2036.33" y2="0.65" xlink:href="#linear-gradient-2"/><linearGradient id="linear-gradient-9" x1="-2031.75" y1="6.88" x2="-2030.26" y2="1.63" xlink:href="#linear-gradient-2"/><linearGradient id="linear-gradient-10" x1="-2030.15" y1="7.18" x2="-2029.87" y2="4.64" xlink:href="#linear-gradient-4"/><linearGradient id="linear-gradient-11" x1="-7151.52" y1="6.72" x2="-7147.98" y2="6.72" gradientTransform="translate(7154.91)" xlink:href="#linear-gradient-4"/><linearGradient id="linear-gradient-12" x1="-2027.23" y1="10.33" x2="-2029.15" y2="11.13" xlink:href="#linear-gradient-3"/><linearGradient id="linear-gradient-13" x1="-2027.39" y1="10.3" x2="-2028.98" y2="9.2" xlink:href="#linear-gradient-3"/><linearGradient id="linear-gradient-14" x1="-2028" y1="6.26" x2="-2026.32" y2="7.29" xlink:href="#linear-gradient-2"/><linearGradient id="linear-gradient-15" x1="-2024.93" y1="8.6" x2="-2023.93" y2="10.26" xlink:href="#linear-gradient-2"/><linearGradient id="linear-gradient-16" x1="-2025.47" y1="7.08" x2="-2024.88" y2="8.62" xlink:href="#linear-gradient-2"/><linearGradient id="linear-gradient-17" x1="-7140.84" y1="2.14" x2="-7138.21" y2="2.14" gradientTransform="translate(7154.91)" xlink:href="#linear-gradient"/><radialGradient id="radial-gradient" cx="-7500.66" cy="-0.01" r="1.09" gradientTransform="translate(9382.1 1.93) scale(1.25 1.02)" gradientUnits="userSpaceOnUse"><stop offset="0" stop-color="#3066af"/><stop offset="0.71" stop-color="#2b60ab"/><stop offset="1" stop-color="#285ca8"/></radialGradient><radialGradient id="radial-gradient-2" cx="-7500.64" cy="0.05" r="1.01" gradientTransform="translate(9382.1 1.93) scale(1.25 1.02)" gradientUnits="userSpaceOnUse"><stop offset="0" stop-color="#ed4523"/><stop offset="0.13" stop-color="#e74322"/><stop offset="0.3" stop-color="#d73e20"/><stop offset="0.49" stop-color="#bb351d"/><stop offset="0.69" stop-color="#952918"/><stop offset="0.91" stop-color="#651912"/><stop offset="1" stop-color="#4e120f"/></radialGradient><linearGradient id="linear-gradient-18" x1="-2030.54" y1="4.5" x2="-2030.97" y2="6.46" gradientTransform="matrix(-1, 0, 0, 1, -2021.35, 0)" gradientUnits="userSpaceOnUse"><stop offset="0" stop-color="#fbed34"/><stop offset="0.17" stop-color="#e9e739"/><stop offset="0.49" stop-color="#cfdd3f"/><stop offset="0.78" stop-color="#bfd744"/><stop offset="1" stop-color="#b9d545"/></linearGradient><linearGradient id="linear-gradient-19" x1="-7150.5" y1="6.43" x2="-7146.96" y2="6.43" gradientTransform="translate(7154.91)" xlink:href="#linear-gradient-4"/><linearGradient id="linear-gradient-20" x1="-2032.9" y1="10.15" x2="-2035.34" y2="11.8" xlink:href="#linear-gradient-3"/><linearGradient id="linear-gradient-21" x1="-2034.4" y1="6.16" x2="-2031.39" y2="5.31" xlink:href="#linear-gradient-2"/><linearGradient id="linear-gradient-22" x1="-2033.16" y1="8.43" x2="-2031.44" y2="9.16" xlink:href="#linear-gradient-2"/><linearGradient id="linear-gradient-23" x1="-2033.1" y1="6.53" x2="-2031.68" y2="5.15" xlink:href="#linear-gradient-4"/></defs><title>frog</title><path class="cls-1" d="M16.33,1.52A1.45,1.45,0,0,1,14.59,2,1,1,0,0,1,13.95.62,1.45,1.45,0,0,1,15.69.1,1,1,0,0,1,16.33,1.52Z"/><path class="cls-2" d="M15.06,6.07a.9.9,0,0,0-.68.16A.76.76,0,0,0,14.27,6a2,2,0,0,1-.11-.29L14,5.29v0l1-.54,0,.06.34.93a1.55,1.55,0,0,0,.2.38.9.9,0,0,0,.25.2l.09.05C15.54,6.42,15.3,6.19,15.06,6.07Z"/><path class="cls-3" d="M13,6.76a.47.47,0,0,1,.56-.15l.12.07c.26-.07.57-.09.68-.3a.24.24,0,0,0,0-.14.9.9,0,0,1,.68-.16c.24.12.49.35.81.26.37.21.86.3,1.24.51a2.77,2.77,0,0,1,.67.5c.12.13.32.28.37.45a.62.62,0,0,1,.26,0c.24.09.35.31.25.48a.51.51,0,0,1-.61.15c-.23-.09-.35-.3-.26-.47a3.06,3.06,0,0,1-.37-.42A2.74,2.74,0,0,0,16.7,7c-.1-.05-.64-.31-.64,0,0,.08.13.18.18.24a3.12,3.12,0,0,1,.23.36,1.92,1.92,0,0,1,.24.76l.13,0a.37.37,0,0,1,.24.53.54.54,0,0,1-.65.19.37.37,0,0,1-.24-.53l.06-.08a2.35,2.35,0,0,1-.25-.8,1.73,1.73,0,0,0-.28-.54c-.1-.15-.15-.26-.35-.33a1.18,1.18,0,0,0-.17.67,1.91,1.91,0,0,1-.05.38c.19.11.27.29.19.44a.55.55,0,0,1-.66.13c-.26-.1-.4-.32-.3-.49a.44.44,0,0,1,.39-.18s0-.1,0-.15.13-.69-.08-.83-.25,0-.36,0l-.45.14-.08,0a.27.27,0,0,1,0,.11.47.47,0,0,1-.56.15C13,7.12,12.89,6.92,13,6.76Z"/><path class="cls-4" d="M6,2.56s-.56.22-1.13.49a7.17,7.17,0,0,0,.49-.81A2.5,2.5,0,0,1,6,2.56Z"/><path class="cls-5" d="M3.3,4A3,3,0,0,1,4.52,2.32a4.54,4.54,0,0,0-.29,1l-.31.2Z"/><path class="cls-6" d="M4.78,2.21a1,1,0,0,1,.58,0A7.17,7.17,0,0,1,4.86,3c-.22.1-.44.22-.64.33a4.54,4.54,0,0,1,.29-1Z"/><path class="cls-7" d="M16.45,4a3.25,3.25,0,0,0-.44.18h0a19.58,19.58,0,0,1-2.78-.27l-.3-.08a16.35,16.35,0,0,0,5.67-.8A7.5,7.5,0,0,1,16.45,4Z"/><path class="cls-8" d="M12.6,3.63c-.1-1,.66-1.86,1.32-2.69a12.77,12.77,0,0,1,1.47.19,9.36,9.36,0,0,1,1.92.29c1.09.27,1.6,1,1.38,1.5a.5.5,0,0,1-.11.14,16.35,16.35,0,0,1-5.67.8C12.75,3.81,12.6,3.73,12.6,3.63Z"/><path class="cls-9" d="M3.33,4.43A.57.57,0,0,1,3.3,4h0l.61-.44a25.22,25.22,0,0,1,3-1.39A7.22,7.22,0,0,1,9.23,1.8a3.93,3.93,0,0,0,2.65-.61A3.93,3.93,0,0,1,13.93.93c-.66.83-1.42,1.71-1.32,2.69,0,.18.38.27.6.31A19.58,19.58,0,0,0,16,4.2h0c-.28.13-.67.31-1,.51l-1,.54a2.57,2.57,0,0,0-.33.25,11,11,0,0,1-1.43,1,10.45,10.45,0,0,0,1-1.78,3.28,3.28,0,0,0-.55,0c.09-.1,0-.19.08-.31A31.24,31.24,0,0,0,4.35,5.8L4.1,5.63A1.81,1.81,0,0,1,3.33,4.43Z"/><path class="cls-10" d="M12.75,4.71c-1.48.19-2.42,1.38-3.3,2.34V7c-.27.29-2.27-.09-2.48-.13a8.37,8.37,0,0,1-2.62-1,30.82,30.82,0,0,1,8.43-1.39C12.72,4.53,12.85,4.61,12.75,4.71Z"/><path class="cls-11" d="M3.39,5.43c.14-.34.31-.55.65-.27A10.89,10.89,0,0,1,6.93,8.42C6.34,8.07,5.65,7.88,5,7.54l.23.09S3.57,6.26,3.39,5.43Z"/><path class="cls-12" d="M7.15,9.94a6.26,6.26,0,0,1,.92.13.67.67,0,0,1,.59-.18c.32,0,.54.24.5.44s-.33.33-.65.29A.58.58,0,0,1,8,10.31c-.32.06-.82.09-1.05.17s-.67.31-.44.64a.72.72,0,0,1,.1.22h0c.3,0,.51.26.46.5a.54.54,0,0,1-.63.36c-.3,0-.51-.26-.46-.5a.36.36,0,0,1,.07-.15l-.14-.15a2.18,2.18,0,0,1,1-1.16C7,10.18,7.1,10.06,7.15,9.94Z"/><path class="cls-13" d="M7.17,9.76c-.24-.2-.54-.13-.82-.12l.4-.18A7.93,7.93,0,0,0,7.61,9a.33.33,0,0,1,.27.35.41.41,0,0,1-.48.26h0a.9.9,0,0,1-.22.26A.2.2,0,0,0,7.17,9.76Z"/><path class="cls-14" d="M6.9,8.37A11,11,0,0,0,4,5.16c-.34-.29-.51-.07-.65.27a.53.53,0,0,1,0-.24.91.91,0,0,1,1-.65c1,1.28,2.76,2.42,3.54,3.79a.51.51,0,0,1-.12.54L7.61,9l-.24.13A1,1,0,0,0,6.9,8.37Z"/><path class="cls-15" d="M4.33,9.79c.49,0,1.86-.06,1.86-.06l.16-.09c.28,0,.58-.09.82.12a.2.2,0,0,1,0,.13l-.05,0h0c-.05.12-.17.24-.18.29a2.18,2.18,0,0,0-1,1.16c-.27-.31-.54-.71-.78-.74a3,3,0,0,1-2.38-.78C1.73,8.91-.1,7.76,0,7.25a3.82,3.82,0,0,1,1.34.47C1.57,7.91,3.86,9.83,4.33,9.79Z"/><path class="cls-16" d="M2,6.49c1,.29,2.45.84,3,1.06s1.3.53,1.89.87l0,0a1,1,0,0,1,.47.79,4.77,4.77,0,0,1-.63.3,2.7,2.7,0,0,1-1.49-.2C4.21,8.9,1.33,7.7,1.33,7.7l0,0A3.82,3.82,0,0,0,0,7.25v0C.17,6.72.73,6.12,2,6.49Z"/><path class="cls-17" d="M16.57,2.59a1.45,1.45,0,0,1-1.74.52,1,1,0,0,1-.64-1.42,1.45,1.45,0,0,1,1.74-.52A1,1,0,0,1,16.57,2.59Z"/><path class="cls-18" d="M16.51,2.61a1.32,1.32,0,0,1-1.58.48.91.91,0,0,1-.58-1.29,1.32,1.32,0,0,1,1.58-.48A.91.91,0,0,1,16.51,2.61Z"/><path class="cls-19" d="M16.48,2.62A1.23,1.23,0,0,1,15,3.06a.85.85,0,0,1-.54-1.2,1.23,1.23,0,0,1,1.47-.44A.85.85,0,0,1,16.48,2.62Z"/><path class="cls-20" d="M5.85,5.35a10.08,10.08,0,0,0,1-.21c.21-.05.43-.09.63-.16s.21,0,.31-.07l.35-.09c.31-.06.61-.11.93-.15l.59-.08c.2,0,.36-.1.55-.15a3,3,0,0,1,.71-.08c.17,0,.33,0,.51,0s.24-.07.37-.08a6,6,0,0,1,.7,0,1,1,0,0,1,.5.13c.1.06.15.11.1.21a.29.29,0,0,1-.2.15c-.1,0-.14,0-.16,0s.08-.21,0-.21a1.72,1.72,0,0,0-.68,0h0a.48.48,0,0,0-.15.06s0,.06-.06.1-.06.17-.1.24-.14.25-.24.22,0-.26,0-.32.06-.2-.13-.2-.33,0-.4.19-.06.37-.12.56a1.83,1.83,0,0,1-.18.43c0,.08-.17.26-.31.24s0-.18,0-.23a3.4,3.4,0,0,0,.15-.37,1.15,1.15,0,0,0,0-.39.39.39,0,0,0-.19-.38.5.5,0,0,0-.66.16,1.23,1.23,0,0,0-.08,1,1.06,1.06,0,0,1,0,.74.25.25,0,0,1-.26.11c-.1,0-.09-.06-.1-.15,0-.24,0-.49,0-.73A2.08,2.08,0,0,0,9,5.09c-.07-.15-.18-.31-.4-.23-.39.14-.35.55-.33.84,0,.12.24,1,0,1s-.22-.16-.25-.23-.15-.27-.21-.4-.18-.51-.3-.75-.17-.19-.29-.09a.45.45,0,0,0-.11.29c0,.19,0,.37,0,.56s0,.26-.08.31-.14,0-.18-.1A3.74,3.74,0,0,1,6.69,6a2.46,2.46,0,0,0-.1-.25c-.16-.24-.55-.13-.81-.12-.09,0-.24,0-.27-.1S5.76,5.36,5.85,5.35Z"/><path class="cls-21" d="M4.41,4.53a1.28,1.28,0,0,1,.78.34S7.67,7.14,7.95,8.32C7.16,6.95,5.44,5.8,4.41,4.53Z"/><path class="cls-22" d="M12.44,10.47c.19-.12-.07-.4-.11-.67l.13.07a6.46,6.46,0,0,1,.45-.54.25.25,0,0,1,0-.27.42.42,0,0,1,.5-.14.29.29,0,0,1,.2.4.4.4,0,0,1-.42.16,6.3,6.3,0,0,1-.54.73,5.82,5.82,0,0,1,1.93-.06l.1,0a.57.57,0,0,1,.39,0c.23.09.34.3.24.47a.49.49,0,0,1-.59.16.37.37,0,0,1-.27-.36c-.53-.29-1.72.16-1.72.16a2,2,0,0,1,1.61,1.16h0l.14,0a.28.28,0,0,1,.18.4.4.4,0,0,1-.48.15A.28.28,0,0,1,14,12a.3.3,0,0,1,.07-.09,1.7,1.7,0,0,0-.31-.54c-.37-.51-1.43-.42-1.43-.42a3.13,3.13,0,0,1,0,1.08.72.72,0,0,1-.1.2.29.29,0,0,1,.09.38.48.48,0,0,1-.58.15c-.23-.09-.33-.29-.24-.46a.47.47,0,0,1,.52-.17h0c.32-.57-.14-1.43-.14-1.43l-.26-.21A1.47,1.47,0,0,0,12.44,10.47Z"/><path class="cls-23" d="M10.1,6.83l.11-.1c.95-.73,2.16-1.17,2.87-2h.23a10.45,10.45,0,0,1-1,1.78c-.54.32-1,.59-1,.59l0,.15A1.84,1.84,0,0,0,10.1,6.83Z"/><path class="cls-24" d="M11.29,7.21c.12.49.5,2,.54,2.19s.33.3.5.4c0,.28.3.56.11.67a1.47,1.47,0,0,1-.82,0c-.27-.22-.73-.6-1.23-1.06a3.65,3.65,0,0,1-.87-1.91,3,3,0,0,1,.57-.67A1.84,1.84,0,0,1,11.29,7.21Z"/><path class="cls-25" d="M13.07,4.69c-.7.88-1.92,1.32-2.87,2a3.07,3.07,0,0,0-.68.77c0-.2-.06-.36-.07-.46C10.4,6,11.4,4.73,13.07,4.69Z"/><path class="cls-26" d="M15.78,2.72l-.27-1.14A1.47,1.47,0,0,1,15.78,2.72Z"/><ellipse class="cls-27" cx="15.14" cy="1.85" rx="0.12" ry="0.1"/><path class="cls-27" d="M14,1.23h-.43l-.5,0a5.47,5.47,0,0,0-.64.11,2.83,2.83,0,0,0-.72.26l-.09.05-.08,0-.08,0-.09,0a2.27,2.27,0,0,1-.4.09c-.28,0-.58.05-.89.07S9.48,2,9.16,2a6.45,6.45,0,0,0-.94.16l-.44.14-.41.15-.77.29-.69.27-.31.12-.27.11-.44.19-.28.12-.1,0,.11,0,.3-.1.46-.16.28-.1L6,3.15l.7-.24.78-.27.41-.14.42-.12a6.26,6.26,0,0,1,.9-.15c.31,0,.62,0,.93-.07A8,8,0,0,0,11,2.06a2.26,2.26,0,0,0,.43-.12l.1,0,.1-.05.08-.05.08,0a2.84,2.84,0,0,1,.66-.27c.22-.06.43-.11.61-.14l.49-.07.32,0Z"/></svg>