<svg id="Layer_1" data-name="Layer 1" xmlns="http://www.w3.org/2000/svg" xmlns:xlink="http://www.w3.org/1999/xlink" viewBox="0 0 60.46 99.59"><defs><linearGradient id="linear-gradient" x1="0.7" y1="55.6" x2="59.97" y2="55.6" gradientUnits="userSpaceOnUse"><stop offset="0.05" stop-color="#fff"/><stop offset="0.09" stop-color="#fafafa"/><stop offset="0.13" stop-color="#ececec"/><stop offset="0.18" stop-color="#d5d5d5"/><stop offset="0.22" stop-color="#b4b4b4"/><stop offset="0.27" stop-color="#8a8a8a"/><stop offset="0.32" stop-color="#575757"/><stop offset="0.46"/><stop offset="0.55"/><stop offset="0.61" stop-color="#232222"/><stop offset="0.69" stop-color="#4e4c4b"/><stop offset="0.93" stop-color="#fff"/></linearGradient><linearGradient id="linear-gradient-2" x1="42.73" y1="80.01" x2="42.73" y2="85.83" gradientUnits="userSpaceOnUse"><stop offset="0.28"/><stop offset="0.39" stop-color="#030303"/><stop offset="0.49" stop-color="#0e0e0e"/><stop offset="0.57" stop-color="#1f1f1f"/><stop offset="0.66" stop-color="#373737"/><stop offset="0.73" stop-color="#575757"/><stop offset="0.81" stop-color="#7d7d7d"/><stop offset="0.89" stop-color="#ababab"/><stop offset="0.96" stop-color="#dfdfdf"/><stop offset="1" stop-color="#fff"/></linearGradient><linearGradient id="Neutral_4" x1="31.65" y1="27.41" x2="49.84" y2="27.41" gradientUnits="userSpaceOnUse"><stop offset="0.03" stop-color="#231f20"/><stop offset="1" stop-color="#fff"/></linearGradient><linearGradient id="linear-gradient-3" x1="-720.65" y1="80.01" x2="-720.65" y2="85.83" gradientTransform="matrix(-1, 0, 0, 1, -702.71, 0)" xlink:href="#linear-gradient-2"/><linearGradient id="linear-gradient-4" x1="-730.03" y1="20.67" x2="-711.93" y2="20.67" gradientTransform="matrix(-1, 0, 0, 1, -702.71, 0)" gradientUnits="userSpaceOnUse"><stop offset="0.07"/><stop offset="0.88" stop-color="#fff"/><stop offset="0.99"/></linearGradient><linearGradient id="Neutral_4-2" x1="34.36" y1="87" x2="52.55" y2="87" xlink:href="#Neutral_4"/><linearGradient id="linear-gradient-5" x1="31.31" y1="17.56" x2="48.81" y2="17.56" gradientUnits="userSpaceOnUse"><stop offset="0.03"/><stop offset="0.89" stop-color="#fff"/><stop offset="1"/></linearGradient><mask id="mask" x="0.7" y="25.38" width="59.27" height="60.45" maskUnits="userSpaceOnUse"><path d="M52.63,31.56c-.34-.5-.79-6.18-.79-6.18h-43S8.39,31.06,8,31.56C6.73,33.47.7,34,.7,38.86V83.69a2.42,2.42,0,0,0,2.62,2.14h54A2.42,2.42,0,0,0,60,83.69V38.86C60,34,53.94,33.47,52.63,31.56Z" fill="url(#linear-gradient)"/></mask><mask id="mask-2" x="25.49" y="80.01" width="34.48" height="5.82" maskUnits="userSpaceOnUse"><g opacity="0.59"><path d="M59.91,80.39c0,1.18-1.29,4.28-2.89,4.28,0,0-15.23-1.4-31.54-1.4v2.56h31.6c1.59,0,2.89-1,2.89-2.14V80A2.48,2.48,0,0,0,59.91,80.39Z" fill="url(#linear-gradient-2)"/></g></mask><mask id="mask-3" x="31.65" y="27.02" width="18.19" height="0.78" maskUnits="userSpaceOnUse"><path d="M49.84,27.41c0-.22-.25-.39-.56-.39H32.21c-.31,0-.56.18-.56.39s.25.39.56.39H49.28C49.59,27.8,49.84,27.63,49.84,27.41Z" fill="url(#Neutral_4)"/></mask><mask id="mask-4" x="0.7" y="80.01" width="34.48" height="5.82" maskUnits="userSpaceOnUse"><g opacity="0.59"><path d="M.77,80.39c0,1.18,1.29,4.28,2.89,4.28,0,0,15.23-1.4,31.54-1.4v2.56H3.59C2,85.83.7,84.87.7,83.69V80A2.48,2.48,0,0,1,.77,80.39Z" fill="url(#linear-gradient-3)"/></g></mask><linearGradient id="linear-gradient-6" x1="30.34" y1="85.83" x2="30.34" y2="86.33" gradientUnits="userSpaceOnUse"><stop offset="0" stop-color="#5e5e5e"/><stop offset="1" stop-color="#a5a7aa"/></linearGradient><mask id="mask-5" x="9.23" y="20.45" width="18.09" height="0.43" maskUnits="userSpaceOnUse"><path d="M27.32,20.67a.24.24,0,0,1-.26.21H9.49a.24.24,0,0,1-.26-.21h0a.24.24,0,0,1,.26-.21H27.06a.24.24,0,0,1,.26.21Z" fill="url(#linear-gradient-4)"/></mask><mask id="mask-6" x="34.36" y="86.73" width="18.19" height="0.55" maskUnits="userSpaceOnUse"><path d="M52.55,87c0-.15-.25-.27-.56-.27H34.92c-.31,0-.56.12-.56.27s.25.27.56.27H52C52.3,87.27,52.55,87.15,52.55,87Z" fill="url(#Neutral_4-2)"/></mask><mask id="mask-7" x="31.31" y="17.22" width="17.5" height="0.68" maskUnits="userSpaceOnUse"><path d="M31.31,17.56c0,.19.11.34.25.34h17c.14,0,.25-.15.25-.34h0c0-.19-.11-.34-.25-.34h-17c-.14,0-.25.15-.25.34Z" fill="url(#linear-gradient-5)"/></mask><linearGradient id="linear-gradient-7" x1="44.06" y1="46.11" x2="44.06" y2="71.71" gradientUnits="userSpaceOnUse"><stop offset="0" stop-color="#f96f69"/><stop offset="1" stop-color="#f9382f"/></linearGradient><linearGradient id="linear-gradient-8" x1="44.06" y1="70.14" x2="44.06" y2="46.16" xlink:href="#linear-gradient-7"/><radialGradient id="radial-gradient" cx="47.44" cy="58.25" r="10.01" gradientTransform="translate(-4.08 -0.25) scale(1.01 1.01)" gradientUnits="userSpaceOnUse"><stop offset="0" stop-color="#eb6963"/><stop offset="1" stop-color="#f96f69"/></radialGradient><linearGradient id="linear-gradient-9" x1="16.62" y1="46.93" x2="16.62" y2="72.87" gradientUnits="userSpaceOnUse"><stop offset="0" stop-color="#13aff0"/><stop offset="1" stop-color="#4d8da7"/></linearGradient><linearGradient id="linear-gradient-10" x1="16.62" y1="70.57" x2="16.62" y2="46.23" xlink:href="#linear-gradient-9"/><radialGradient id="radial-gradient-2" cx="20.4" cy="58.25" r="10.01" gradientTransform="translate(-4.08 -0.25) scale(1.01 1.01)" gradientUnits="userSpaceOnUse"><stop offset="0" stop-color="#5eaccc"/><stop offset="1" stop-color="#13aff0"/></radialGradient></defs><title>5</title><path d="M18.24,92.35a2.12,2.12,0,0,1,1,.25,2.07,2.07,0,0,1,.75.71,3.56,3.56,0,0,1,.46,1.14A6.91,6.91,0,0,1,20.63,96,4.83,4.83,0,0,1,20,98.66a2,2,0,0,1-1.79.94,2,2,0,0,1-1.78-1A5,5,0,0,1,15.83,96a4.83,4.83,0,0,1,.62-2.67A2,2,0,0,1,18.24,92.35Zm0,.82a1.25,1.25,0,0,0-.6.14,1.2,1.2,0,0,0-.46.47,2.69,2.69,0,0,0-.29.85,7.25,7.25,0,0,0-.1,1.31,4.6,4.6,0,0,0,.38,2.1,1.17,1.17,0,0,0,1.07.71,1.25,1.25,0,0,0,.6-.14,1.21,1.21,0,0,0,.46-.47,2.69,2.69,0,0,0,.29-.85,7.25,7.25,0,0,0,.1-1.31,4.6,4.6,0,0,0-.38-2.1A1.17,1.17,0,0,0,18.23,93.17Z" fill="#e55942"/><path d="M22.53,96.45v-.82h3.4v.82Z" fill="#e55942"/><path d="M31,92.47v6.2h1.19v.8H28.67v-.8H30.1v-5l-1.34,1L28.27,94l2.07-1.49Z" fill="#e55942"/><path d="M36.24,92.35a2.12,2.12,0,0,1,1,.25,2.07,2.07,0,0,1,.75.71,3.56,3.56,0,0,1,.46,1.14A6.91,6.91,0,0,1,38.63,96,4.83,4.83,0,0,1,38,98.66a2,2,0,0,1-1.79.94,2,2,0,0,1-1.78-1A5,5,0,0,1,33.83,96a4.83,4.83,0,0,1,.62-2.67A2,2,0,0,1,36.24,92.35Zm0,.82a1.25,1.25,0,0,0-.6.14,1.2,1.2,0,0,0-.46.47,2.69,2.69,0,0,0-.29.85,7.25,7.25,0,0,0-.1,1.31,4.6,4.6,0,0,0,.38,2.1,1.17,1.17,0,0,0,1.07.71,1.25,1.25,0,0,0,.6-.14,1.21,1.21,0,0,0,.46-.47,2.69,2.69,0,0,0,.29-.85,7.25,7.25,0,0,0,.1-1.31,4.6,4.6,0,0,0-.38-2.1A1.17,1.17,0,0,0,36.23,93.17Z" fill="#e55942"/><path d="M42.24,92.35a2.12,2.12,0,0,1,1,.25,2.07,2.07,0,0,1,.75.71,3.56,3.56,0,0,1,.46,1.14A6.91,6.91,0,0,1,44.63,96,4.83,4.83,0,0,1,44,98.66a2,2,0,0,1-1.79.94,2,2,0,0,1-1.78-1A5,5,0,0,1,39.83,96a4.83,4.83,0,0,1,.62-2.67A2,2,0,0,1,42.24,92.35Zm0,.82a1.25,1.25,0,0,0-.6.14,1.2,1.2,0,0,0-.46.47,2.69,2.69,0,0,0-.29.85,7.25,7.25,0,0,0-.1,1.31,4.6,4.6,0,0,0,.38,2.1,1.17,1.17,0,0,0,1.07.71,1.25,1.25,0,0,0,.6-.14,1.21,1.21,0,0,0,.46-.47,2.69,2.69,0,0,0,.29-.85,7.25,7.25,0,0,0,.1-1.31,4.6,4.6,0,0,0-.38-2.1A1.17,1.17,0,0,0,42.23,93.17Z" fill="#e55942"/><path d="M1.46,5.42A5.6,5.6,0,0,0,1.7,7.13a4.12,4.12,0,0,0,.69,1.33A3,3,0,0,0,4.8,9.61a4.2,4.2,0,0,0,1.28-.17,5.17,5.17,0,0,0,1-.47l.44,1.18a6.24,6.24,0,0,1-1.27.5,6.1,6.1,0,0,1-1.66.2,4.6,4.6,0,0,1-1.88-.37A4.18,4.18,0,0,1,1.29,9.41a4.89,4.89,0,0,1-1-1.7A7,7,0,0,1,0,5.47,6.89,6.89,0,0,1,.34,3.27a5.08,5.08,0,0,1,1-1.73A4.4,4.4,0,0,1,2.83.4a4.76,4.76,0,0,1,2-.4A6,6,0,0,1,6.19.14a5.75,5.75,0,0,1,1.15.4L6.9,1.74a5.67,5.67,0,0,0-1-.36A4.33,4.33,0,0,0,4.8,1.25a3.2,3.2,0,0,0-1.33.28,3,3,0,0,0-1.06.82,3.87,3.87,0,0,0-.7,1.31A5.77,5.77,0,0,0,1.46,5.42Z" fill="#e55942"/><path d="M8.31,6.78a4.58,4.58,0,0,1,.3-1.7,3.79,3.79,0,0,1,.82-1.28A3.57,3.57,0,0,1,10.66,3a4.11,4.11,0,0,1,1.54-.29A4.07,4.07,0,0,1,13.72,3,3.64,3.64,0,0,1,15,3.79a3.75,3.75,0,0,1,.82,1.27,4.49,4.49,0,0,1,.3,1.68,4.65,4.65,0,0,1-.29,1.69A3.8,3.8,0,0,1,15,9.73a3.63,3.63,0,0,1-1.24.83,4,4,0,0,1-1.54.29,4,4,0,0,1-1.55-.3,3.63,3.63,0,0,1-1.23-.84A3.87,3.87,0,0,1,8.6,8.43,4.5,4.5,0,0,1,8.31,6.78Zm6.39,0a3.28,3.28,0,0,0-.19-1.11A2.84,2.84,0,0,0,14,4.75a2.6,2.6,0,0,0-.79-.62,2.18,2.18,0,0,0-1-.23,2.29,2.29,0,0,0-1.84.78,3.1,3.1,0,0,0-.66,2.07,3.34,3.34,0,0,0,.19,1.12,2.91,2.91,0,0,0,.52.93,2.53,2.53,0,0,0,.79.63,2.17,2.17,0,0,0,1,.23,2.52,2.52,0,0,0,1.05-.21A2.2,2.2,0,0,0,14,8.86a2.68,2.68,0,0,0,.5-.91A3.74,3.74,0,0,0,14.7,6.78Z" fill="#e55942"/><path d="M24.85,10.75a2,2,0,0,1-1.14-.29,1.48,1.48,0,0,1-.58-.83,4.4,4.4,0,0,1-1.21.88,3.33,3.33,0,0,1-1.49.34,3.07,3.07,0,0,1-1-.16,2.24,2.24,0,0,1-.84-.5A2.41,2.41,0,0,1,18,9.3a3.71,3.71,0,0,1-.22-1.35V2.88h1.35V7.77a2.23,2.23,0,0,0,.38,1.4,1.37,1.37,0,0,0,1.15.49,3,3,0,0,0,1.2-.25,3.58,3.58,0,0,0,1-.67V2.88h1.35V8.65a1.56,1.56,0,0,0,.07.53.8.8,0,0,0,.2.31.67.67,0,0,0,.28.16,1.28,1.28,0,0,0,.33,0Z" fill="#e55942"/><path d="M28.24,4.18a3.73,3.73,0,0,1,1.07-1.06,2.77,2.77,0,0,1,1.55-.43,2.4,2.4,0,0,1,2,.8,3.2,3.2,0,0,1,.65,2.1v5.08H32.14V5.75a2.16,2.16,0,0,0-.39-1.36,1.33,1.33,0,0,0-1.11-.5A1.88,1.88,0,0,0,30,4a2.83,2.83,0,0,0-.64.35,3.51,3.51,0,0,0-.57.53,5.25,5.25,0,0,0-.47.63v5.16H26.94V2.88h1.3Z" fill="#e55942"/><path d="M36.43.71h1V3.17h2.16V4.33H37.47V8.1a2.41,2.41,0,0,0,.1.74,1.28,1.28,0,0,0,.26.48,1,1,0,0,0,.4.26,1.45,1.45,0,0,0,.49.08,2,2,0,0,0,.7-.12A4.46,4.46,0,0,0,40,9.25l.38,1.08a4.28,4.28,0,0,1-.81.35,3.32,3.32,0,0,1-1.06.17,2.26,2.26,0,0,1-1.78-.73A3.11,3.11,0,0,1,36.12,8V4.33H34.77V3.17h1.38Z" fill="#e55942"/><path d="M42.33,7.33A2.78,2.78,0,0,0,43.09,9a2.28,2.28,0,0,0,1.67.62A4.78,4.78,0,0,0,46,9.52a6.55,6.55,0,0,0,1-.37l.31,1.16a5.8,5.8,0,0,1-1.21.41,7,7,0,0,1-1.52.15,3.94,3.94,0,0,1-1.51-.28,3.15,3.15,0,0,1-1.15-.79,3.52,3.52,0,0,1-.73-1.28,5.4,5.4,0,0,1-.26-1.73,5,5,0,0,1,.26-1.62,3.94,3.94,0,0,1,.72-1.3A3.25,3.25,0,0,1,44.47,2.7,3.55,3.55,0,0,1,45.94,3,3,3,0,0,1,47,3.76a3.32,3.32,0,0,1,.63,1.16,4.58,4.58,0,0,1,.21,1.39q0,.53,0,1Zm2.11-3.46a1.9,1.9,0,0,0-1.45.6,3,3,0,0,0-.68,1.77h4.27A2.49,2.49,0,0,0,46,4.48,2,2,0,0,0,44.44,3.87Z" fill="#e55942"/><path d="M53.86,4.18a1.73,1.73,0,0,0-.68-.12,2,2,0,0,0-.82.18,2,2,0,0,0-.71.54,2.72,2.72,0,0,0-.5.92A4.21,4.21,0,0,0,51,7v3.64H49.63V2.88h1.3V4.57a3.61,3.61,0,0,1,.36-.7,2.65,2.65,0,0,1,.53-.6,2.55,2.55,0,0,1,.71-.41,2.46,2.46,0,0,1,.9-.16l.44,0a2.35,2.35,0,0,1,.38.07Z" fill="#e55942"/><path d="M55.14,8.92a2.93,2.93,0,0,0,1,.55,3.75,3.75,0,0,0,1.27.21,2.34,2.34,0,0,0,1.27-.28.82.82,0,0,0,.43-.71A1.08,1.08,0,0,0,59,8.28a1,1,0,0,0-.3-.37,2.78,2.78,0,0,0-.59-.35q-.37-.17-1-.38a4.43,4.43,0,0,1-1.65-.89,1.89,1.89,0,0,1-.54-1.43,1.79,1.79,0,0,1,.2-.84,2,2,0,0,1,.58-.68,2.89,2.89,0,0,1,.93-.46,4.36,4.36,0,0,1,1.25-.17,5.1,5.1,0,0,1,1.34.16,5.29,5.29,0,0,1,1,.4l-.37,1.11A4,4,0,0,0,59,4a4.13,4.13,0,0,0-1.15-.15,1.9,1.9,0,0,0-1.19.32.88.88,0,0,0-.4.69.8.8,0,0,0,.07.33.76.76,0,0,0,.25.28,2.49,2.49,0,0,0,.48.27q.3.13.75.29a9.71,9.71,0,0,1,1.24.52,3.28,3.28,0,0,1,.83.58,1.89,1.89,0,0,1,.45.68,2.36,2.36,0,0,1,.13.82,2,2,0,0,1-.23.95,2.09,2.09,0,0,1-.63.71,3,3,0,0,1-1,.45,4.85,4.85,0,0,1-1.28.16,5.26,5.26,0,0,1-1.6-.22A3.77,3.77,0,0,1,54.57,10Z" fill="#e55942"/><g mask="url(#mask)"><path d="M52.63,31.56c-.34-.5-.79-6.18-.79-6.18h-43S8.39,31.06,8,31.56C6.73,33.47.7,34,.7,38.86V83.69a2.42,2.42,0,0,0,2.62,2.14h54A2.42,2.42,0,0,0,60,83.69V38.86C60,34,53.94,33.47,52.63,31.56Z" fill="#7f7f7f"/></g><path d="M50.53,31.56c-.34-.5-.79-6.18-.79-6.18H10.93s-.45,5.68-.79,6.18C8.83,33.47,2.8,34,2.8,38.86V83.69a2.42,2.42,0,0,0,2.62,2.14H55.25a2.42,2.42,0,0,0,2.62-2.14V38.86C57.87,34,51.85,33.47,50.53,31.56Z" fill="#bbbcbe" opacity="0.27"/><path d="M51.84,25.8h0l0-.43H30.34v.43Z" fill="#595b5c"/><path d="M30.34,29.44h21.9c0-.25-.07-.52-.1-.78H30.34Z" fill="#6b6d6f"/><g opacity="0.59"><path d="M59.91,80.39c0,1.18-1.29,4.28-2.89,4.28a221.35,221.35,0,0,0-26.68-1.4v2.56H57.08c1.59,0,2.89-1,2.89-2.14V80A2.48,2.48,0,0,0,59.91,80.39Z" fill="#aaadb0"/></g><g mask="url(#mask-2)"><path d="M59.91,80.39c0,1.18-1.29,4.28-2.89,4.28a221.35,221.35,0,0,0-26.68-1.4v2.56H57.08c1.59,0,2.89-1,2.89-2.14V80A2.48,2.48,0,0,0,59.91,80.39Z" fill="#7d7f81"/></g><path d="M47.8,84.67a154.76,154.76,0,0,0-17.46-.75v1.38h17.5C49,85.29,48.93,84.67,47.8,84.67Z" fill="#fff" opacity="0.16"/><path d="M30.34,26.37H51.92l-.06-.57H30.34Z" fill="#797c7e" opacity="0.71"/><path d="M52.77,26.35H30.34v2.3H52.77a1.16,1.16,0,0,0,0-2.3Z" fill="#7d7f81"/><path d="M52.11,26.37H30.34v2H52.11a1,1,0,1,0,0-2Z" fill="#aeafb0"/><path d="M50.57,26.7H30.34v1.55H50.57a.78.78,0,1,0,0-1.55Z" fill="#e1e2e3" opacity="0.66"/><g mask="url(#mask-3)"><path d="M49.84,27.41c0-.22-.25-.39-.56-.39H32.21c-.31,0-.56.18-.56.39s.25.39.56.39H49.28C49.59,27.8,49.84,27.63,49.84,27.41Z" fill="#fff"/></g><path d="M8.84,25.8h0l0-.43h21.5v.43Z" fill="#595b5c"/><path d="M3.81,85.83c.22,1.52.78,2.6,1.42,2.6h50.2c.65,0,1.2-1.08,1.42-2.6Z" fill="#a5a7aa"/><path d="M4.8,86.57a1.48,1.48,0,0,0,1.38,1H54.49a1.48,1.48,0,0,0,1.38-1Z" fill="#b4b6b8"/><path d="M30.34,29.44H8.44c0-.25.07-.52.1-.78h21.8Z" fill="#6b6d6f"/><g opacity="0.59"><path d="M.77,80.39c0,1.18,1.29,4.28,2.89,4.28a221.36,221.36,0,0,1,26.68-1.4v2.56H3.59C2,85.83.7,84.87.7,83.69V80A2.48,2.48,0,0,1,.77,80.39Z" fill="#aaadb0"/></g><g mask="url(#mask-4)"><path d="M.77,80.39c0,1.18,1.29,4.28,2.89,4.28a221.36,221.36,0,0,1,26.68-1.4v2.56H3.59C2,85.83.7,84.87.7,83.69V80A2.48,2.48,0,0,1,.77,80.39Z" fill="#7d7f81"/></g><path d="M12.88,84.67a154.75,154.75,0,0,1,17.46-.75v1.38H12.83C11.7,85.29,11.75,84.67,12.88,84.67Z" fill="#fff" opacity="0.16"/><path d="M30.34,26.37H8.75l.06-.57H30.34Z" fill="#797c7e" opacity="0.71"/><path d="M3.81,85.83a3,3,0,0,0,.18.5H56.68a2.94,2.94,0,0,0,.18-.5Z" fill="url(#linear-gradient-6)"/><g mask="url(#mask-5)"><path d="M27.32,20.67a.24.24,0,0,1-.26.21H9.49a.24.24,0,0,1-.26-.21h0a.24.24,0,0,1,.26-.21H27.06a.24.24,0,0,1,.26.21Z" fill="#fff" opacity="0.32"/></g><path d="M7.9,26.35H30.34v2.3H7.9a1.16,1.16,0,0,1,0-2.3Z" fill="#7d7f81"/><path d="M8.56,26.37H30.34v2H8.56a1,1,0,1,1,0-2Z" fill="#aeafb0"/><path d="M10.1,26.7H30.34v1.55H10.1a.78.78,0,1,1,0-1.55Z" fill="#e1e2e3" opacity="0.66"/><g mask="url(#mask-6)"><path d="M52.55,87c0-.15-.25-.27-.43-.27H35c-.44,0-.69.12-.69.27s.25.27.56.27H52C52.3,87.27,52.55,87.15,52.55,87Z" fill="#d6d6d6"/></g><path d="M53.25,18.84H30.34v8.55H53.25C54.79,27.39,56,25.86,56,24V22.26C56,20.37,54.79,18.84,53.25,18.84Z" fill="#a16733"/><path d="M51.87,19.27H30.34V27H51.87a2.88,2.88,0,0,0,2.64-3.08V22.35A2.88,2.88,0,0,0,51.87,19.27Z" fill="#a16733"/><g mask="url(#mask-7)"><path d="M31.31,17.56c0,.19.11.34.25.34h17c.14,0,.25-.15.25-.34h0c0-.19-.11-.34-.25-.34h-17c-.14,0-.25.15-.25.34Z" fill="#fff" opacity="0.71"/></g><path d="M7.42,18.84H30.34v8.55H7.42c-1.53,0-2.78-1.53-2.78-3.42V22.26C4.64,20.37,5.89,18.84,7.42,18.84Z" fill="#a16733"/><path d="M8.8,19.27H30.34V27H8.8a2.88,2.88,0,0,1-2.64-3.08V22.35A2.88,2.88,0,0,1,8.8,19.27Z" fill="#a16733"/><path d="M49.07,16.94H11.61c-1.33,0-2.4,1.86-2.4,4.15v2.08c0,2.29,1.08,4.15,2.4,4.15H49.07c1.33,0,2.4-1.86,2.4-4.15V21.09C51.47,18.8,50.39,16.94,49.07,16.94Z" fill="#ba773b"/><ellipse cx="44.06" cy="59.14" rx="13.74" ry="13.85" fill="#753431" opacity="0"/><ellipse cx="44.06" cy="59.11" rx="13.7" ry="13.81" fill="#753431" opacity="0.02"/><ellipse cx="44.06" cy="59.07" rx="13.67" ry="13.77" fill="#753431" opacity="0.04"/><ellipse cx="44.06" cy="59.04" rx="13.63" ry="13.72" fill="#753431" opacity="0.06"/><ellipse cx="44.06" cy="59" rx="13.6" ry="13.68" fill="#753431" opacity="0.08"/><ellipse cx="44.06" cy="58.96" rx="13.56" ry="13.63" fill="#753431" opacity="0.1"/><ellipse cx="44.06" cy="58.93" rx="13.53" ry="13.59" fill="#753431" opacity="0.11"/><ellipse cx="44.06" cy="58.89" rx="13.5" ry="13.54" fill="#753431" opacity="0.13"/><ellipse cx="44.06" cy="58.86" rx="13.46" ry="13.5" fill="#753431" opacity="0.15"/><ellipse cx="44.06" cy="58.82" rx="13.43" ry="13.45" fill="#753431" opacity="0.17"/><ellipse cx="44.06" cy="58.79" rx="13.39" ry="13.41" fill="#753431" opacity="0.19"/><circle cx="44.06" cy="58.75" r="13.36" fill="#753431" opacity="0.21"/><ellipse cx="44.06" cy="58.71" rx="13.33" ry="13.32" fill="#753431" opacity="0.23"/><ellipse cx="44.06" cy="58.68" rx="13.29" ry="13.27" fill="#753431" opacity="0.25"/><ellipse cx="44.06" cy="58.64" rx="13.26" ry="13.23" fill="#753431" opacity="0.27"/><ellipse cx="44.06" cy="58.61" rx="13.22" ry="13.18" fill="#753431" opacity="0.29"/><ellipse cx="44.06" cy="58.57" rx="13.19" ry="13.14" fill="#753431" opacity="0.3"/><ellipse cx="44.06" cy="58.54" rx="13.15" ry="13.09" fill="#753431" opacity="0.32"/><ellipse cx="44.06" cy="58.5" rx="13.12" ry="13.05" fill="#753431" opacity="0.34"/><ellipse cx="44.06" cy="58.46" rx="13.09" ry="13.01" fill="#753431" opacity="0.36"/><ellipse cx="44.06" cy="58.43" rx="13.05" ry="12.96" fill="#753431" opacity="0.38"/><ellipse cx="44.06" cy="58.39" rx="13.02" ry="12.92" fill="#753431" opacity="0.4"/><ellipse cx="44.06" cy="58.39" rx="13.02" ry="12.92" fill="url(#linear-gradient-7)"/><path d="M44.06,70.68A12.28,12.28,0,1,1,56.44,58.39,12.35,12.35,0,0,1,44.06,70.68Z" fill="url(#linear-gradient-8)"/><path d="M44.06,68.47A10.07,10.07,0,1,1,54.21,58.39,10.13,10.13,0,0,1,44.06,68.47Z" fill="url(#radial-gradient)"/><ellipse cx="16.62" cy="59.14" rx="13.74" ry="13.85" fill="#1d1d1b" opacity="0"/><ellipse cx="16.62" cy="59.11" rx="13.7" ry="13.81" fill="#1d1d1b" opacity="0.02"/><ellipse cx="16.62" cy="59.07" rx="13.67" ry="13.77" fill="#1d1d1b" opacity="0.04"/><ellipse cx="16.62" cy="59.04" rx="13.63" ry="13.72" fill="#1d1d1b" opacity="0.06"/><ellipse cx="16.62" cy="59" rx="13.6" ry="13.68" fill="#1d1d1b" opacity="0.08"/><ellipse cx="16.62" cy="58.96" rx="13.56" ry="13.63" fill="#1d1d1b" opacity="0.1"/><ellipse cx="16.62" cy="58.93" rx="13.53" ry="13.59" fill="#1d1d1b" opacity="0.11"/><ellipse cx="16.62" cy="58.89" rx="13.5" ry="13.54" fill="#1d1d1b" opacity="0.13"/><ellipse cx="16.62" cy="58.86" rx="13.46" ry="13.5" fill="#1d1d1b" opacity="0.15"/><ellipse cx="16.62" cy="58.82" rx="13.43" ry="13.45" fill="#1d1d1b" opacity="0.17"/><ellipse cx="16.62" cy="58.79" rx="13.39" ry="13.41" fill="#1d1d1b" opacity="0.19"/><circle cx="16.62" cy="58.75" r="13.36" fill="#1d1d1b" opacity="0.21"/><ellipse cx="16.62" cy="58.71" rx="13.33" ry="13.32" fill="#1d1d1b" opacity="0.23"/><ellipse cx="16.62" cy="58.68" rx="13.29" ry="13.27" fill="#1d1d1b" opacity="0.25"/><ellipse cx="16.62" cy="58.64" rx="13.26" ry="13.23" fill="#1d1d1b" opacity="0.27"/><ellipse cx="16.62" cy="58.61" rx="13.22" ry="13.18" fill="#1d1d1b" opacity="0.29"/><ellipse cx="16.62" cy="58.57" rx="13.19" ry="13.14" fill="#1d1d1b" opacity="0.3"/><ellipse cx="16.62" cy="58.54" rx="13.15" ry="13.09" fill="#1d1d1b" opacity="0.32"/><ellipse cx="16.62" cy="58.5" rx="13.12" ry="13.05" fill="#1d1d1b" opacity="0.34"/><ellipse cx="16.62" cy="58.46" rx="13.09" ry="13.01" fill="#1d1d1b" opacity="0.36"/><ellipse cx="16.62" cy="58.43" rx="13.05" ry="12.96" fill="#1d1d1b" opacity="0.38"/><ellipse cx="16.62" cy="58.39" rx="13.02" ry="12.92" fill="#1d1d1b" opacity="0.4"/><ellipse cx="16.62" cy="58.39" rx="13.02" ry="12.92" fill="url(#linear-gradient-9)"/><path d="M16.62,70.68A12.28,12.28,0,1,1,29,58.39,12.35,12.35,0,0,1,16.62,70.68Z" fill="url(#linear-gradient-10)"/><path d="M16.62,68.47A10.07,10.07,0,1,1,26.77,58.39,10.13,10.13,0,0,1,16.62,68.47Z" fill="url(#radial-gradient-2)"/><text transform="translate(13.15 62.1) scale(1.01 1)" font-size="10.04" fill="#4000b0" font-family="ABeeZee-Regular, ABeeZee Regular">1 </text><text transform="translate(41.21 62.1) scale(1.01 1)" font-size="10.04" fill="#4000b0" font-family="ABeeZee-Regular, ABeeZee Regular">2 </text></svg>