<svg id="Layer_1" data-name="Layer 1" xmlns="http://www.w3.org/2000/svg" viewBox="0 0 246.32 143.99"><title>stampParrot</title><path d="M246.32,134v-5.84a5.67,5.67,0,0,1,0-11.33v-3.09a5.67,5.67,0,0,1,0-11.33V99.3a5.67,5.67,0,1,1,0-11.33V84.87a5.67,5.67,0,0,1,0-11.33V70.45a5.67,5.67,0,0,1,0-11.33V56a5.67,5.67,0,0,1,0-11.33V41.59a5.67,5.67,0,0,1,0-11.33V27.17a5.67,5.67,0,0,1,0-11.33V10a10,10,0,0,1-10-10H10A10,10,0,0,1,0,10v5.84A5.67,5.67,0,0,1,5.67,21.5,5.67,5.67,0,0,1,0,27.17v3.09A5.67,5.67,0,0,1,0,41.59v3.09A5.67,5.67,0,0,1,0,56v3.09a5.67,5.67,0,0,1,5.67,5.67A5.67,5.67,0,0,1,0,70.45v3.09A5.67,5.67,0,0,1,0,84.87V88a5.67,5.67,0,0,1,5.67,5.67A5.67,5.67,0,0,1,0,99.3v3.09a5.67,5.67,0,0,1,5.67,5.67A5.67,5.67,0,0,1,0,113.73v3.09a5.67,5.67,0,0,1,5.67,5.67A5.67,5.67,0,0,1,0,128.16V134a10,10,0,0,1,10,10H236.32A10,10,0,0,1,246.32,134Z" fill="#ed5d54"/><polygon points="230.95 71.36 230.95 129.87 15.37 129.87 15.37 71.36 14.09 71.36 14.09 131.16 232.23 131.16 232.23 71.36 230.95 71.36" fill="#7c0704" opacity="0.35"/><path d="M0,73.54A5.67,5.67,0,0,1,0,84.87V88a5.67,5.67,0,0,1,5.67,5.67A5.67,5.67,0,0,1,0,99.3v3.09a5.67,5.67,0,0,1,5.67,5.67A5.67,5.67,0,0,1,0,113.73v3.09a5.67,5.67,0,0,1,5.67,5.67A5.67,5.67,0,0,1,0,128.16V134a10,10,0,0,1,10,10H236.32a10,10,0,0,1,10-10v-5.84a5.67,5.67,0,0,1,0-11.33v-3.09a5.67,5.67,0,0,1,0-11.33V99.3a5.67,5.67,0,1,1,0-11.33V84.87a5.67,5.67,0,0,1,0-11.33V71.35H0Z" fill="#d8423f"/><path d="M14.09,12.83V131.16H232.23V12.83Zm216.86,117H15.37V14.12H230.95Z" fill="#7c0704" opacity="0.2"/><rect x="15.37" y="14.12" width="215.57" height="115.76" fill="#eef3cc"/><polygon points="60.73 12.83 44.53 12.83 50.96 0 67.16 0 60.73 12.83" fill="#fff" opacity="0.2"/><polygon points="69.77 12.83 65.32 12.83 71.75 0 76.2 0 69.77 12.83" fill="#fff" opacity="0.2"/><text transform="translate(195.75 31.53) scale(0.99 1)" font-size="19.29" fill="#d8423f" font-family="ABeeZee-Regular, ABeeZee Regular">10c</text><path d="M60.35,119.57l1.51.86a8.07,8.07,0,0,1,1.66,1.49c.2.45,11.57.69,14.39,1s14.79.29,14.79.29l16.5,1.15c2.39.17,13.72,1.3,17.94,1.73l.33-4.54-2,0L113.1,119.9l-15.29-1.1L87.12,118l-16.21.54-13.88-1L61.25,119Z" fill="#a87c4f"/><path d="M59.61,120l1.28,1.3-.64.93-.52,1.24,1.41,1.09s6.37.28,8.94.46,7.58.81,9.73.64,9.81-.51,12.2-.35,15,1.32,15,1.32l19.94,2.5.22-3c-4.22-.43-15.55-1.56-17.94-1.73L92.7,123.2s-12,0-14.79-.29-14.19-.54-14.39-1a8.07,8.07,0,0,0-1.66-1.49l-1.51-.86.9-.52L57,117.62l2.35,1.88Z" fill="#8a5d3b"/><path d="M79,119.63a10.64,10.64,0,0,0-1.91-.05l-2,0-2.51-.09c-3.56-.16-6.47-.33-6.49-.23a43.72,43.72,0,0,0,6.51.6c.9,0,1.76,0,2.55.07l2.07,0A8.31,8.31,0,0,0,79,119.63Z" fill="#8a5d3b"/><path d="M106.41,122.77a39.81,39.81,0,0,0-4.66-.64c-2.9-.3-6.92-.72-11.44-.85-8.84.15-16,0-16,.13a42.56,42.56,0,0,0,4.73.28c1.46,0,3.19.07,5.12.1s4.08,0,6.19,0c4.36.13,8.4.49,11.3.71S106.39,122.84,106.41,122.77Z" fill="#8a5d3b"/><path d="M111.18,121.87c0-.1-3.85-.58-8.68-1.08-2.41-.27-4.61-.41-6.2-.52a18.31,18.31,0,0,0-2.58-.09,18.34,18.34,0,0,0,2.55.35c1.58.17,3.76.36,6.16.62C107.22,121.64,111.15,122,111.18,121.87Z" fill="#8a5d3b"/><path d="M125.46,124.74a33,33,0,0,0-5.6-.79,34.35,34.35,0,0,0-5.7-.31,33,33,0,0,0,5.6.79A34.25,34.25,0,0,0,125.46,124.74Z" fill="#8a5d3b"/><path d="M124.85,122.15a45.59,45.59,0,0,0-4.72-.66,34.75,34.75,0,0,0-4.8-.4,29,29,0,0,0,4.69.76A25.16,25.16,0,0,0,124.85,122.15Z" fill="#8a5d3b"/><path d="M101.25,129.85c-2.23-1.43-5.78-2.91-8.24,0Z" fill="#be1e2d"/><path d="M105.66,91.21a11,11,0,0,0-1.53-2.76c.65,6.62-2.33,5.6-2.33,5.6-.35,4.29-2.13,3-2.13,3-.62,3.54-2.48.53-2.48.53C96,103.45,93.12,100,93.12,100c-1.42,4.59-3.28,1-3.28,1-.53,2.77-2.75-.09-2.75-.09-.62,3.38-3.63.21-3.63.21-.09,3.33-4.52-2.51-4.52-2.51.27,6.62-4.61-1.94-4.61-1.94.18,2.77-2.66,2.68-4.43-1a13.08,13.08,0,0,1-1.06-4.24,27.8,27.8,0,0,0,.83,10.3,19.62,19.62,0,0,0,3.65,4.29c1.79,1.1,3.52,2.08,3.39,0,0,0,5.05,6.11,5.05,3.44,0,0,2.19,3.44,2.73,1.95,0,0,4.81,4.29,5.43,2.27,0,0,2.48,2.34,2.81,1,0,0,2.19,1.62,2.26-1.56,0,0,2.73,1.82,3.12-.45,0,0,2.33,1.43,2.73-2.86,0,0,2.26,1.23,3.06-2.4A57.56,57.56,0,0,0,106,92.72C105.87,92.21,105.77,91.71,105.66,91.21Z" fill="#fff100"/><path d="M75.28,114c2.46,2.84,6.1,6.8,9,8.85,1.79,1.28,6,4.09,10.56,7h5.3c-2.78-2-5.63-4.35-5.63-4.35s3.18,2.3,6.53,4.35h3.11c-.66-.45-1.09-.77-1.09-.77l-2.92-2.16a14.45,14.45,0,0,0,6.85,2.93h0a2.61,2.61,0,0,0-.23-1,4.94,4.94,0,0,0-2.57-1.95s-7.76-2.88-10-4.57a33.22,33.22,0,0,1-3.08-2.55s4,3.54,13.22,6.28a129.55,129.55,0,0,0,2.31-27c0-1.24-.15-2.42-.29-3.57,0,18.74-3.35,15.09-3.35,15.09-.62,3.9-2.92,2.86-2.92,2.86-.8,3-2.39,1.56-2.39,1.56-.62,3.2-2.39,1.47-2.39,1.47.35,3.9-2.75-.17-2.75-.17,0,2.34-3.24-1.47-3.24-1.47s.23,1.39-1.54.87-4-3.2-4-3.2.09,2.17-2.57.61a21.44,21.44,0,0,1-5.05-4.68c0,.87.44,2.34-2.75,0a12.79,12.79,0,0,1-2.5-2.68h0A45.87,45.87,0,0,0,75.28,114Z" fill="#284da0"/><path d="M94.22,122.35c2.22,1.69,10,4.57,10,4.57s.06-.3.17-.84c-9.2-2.75-13.22-6.28-13.22-6.28A33.23,33.23,0,0,0,94.22,122.35Z" fill="#223369"/><path d="M104.13,88.45a11,11,0,0,1,1.53,2.76,33.18,33.18,0,0,0-2.06-6.16,22.87,22.87,0,0,0-8.89-10.52s-1.27-9.3-7.37-14.34S75.56,54.53,69.89,54.7s-7.67,2.53-8.3,4.55A9.27,9.27,0,0,0,62.1,65S68.57,71,71,74.36a7.92,7.92,0,0,1,2.64-1.47,9.83,9.83,0,0,0,4.29-1.54s-.06,3.7-1.39,5.43-4.52,4.94-5.45,7a23.68,23.68,0,0,0-2.26,7.71,13.08,13.08,0,0,0,1.06,4.24c1.77,3.64,4.61,3.72,4.43,1,0,0,4.87,8.56,4.61,1.94,0,0,4.43,5.84,4.52,2.51,0,0,3,3.17,3.63-.21,0,0,2.22,2.86,2.75.09,0,0,1.86,3.55,3.28-1,0,0,2.92,3.46,4.08-2.42,0,0,1.86,3,2.48-.53,0,0,1.77,1.3,2.13-3,0,0,3,1,2.33-5.6Z" fill="#dd1f26"/><path d="M69.36,101.38h0c-.38-.55-.73-1.08-1-1.53l-.06-.08-.16-.25L68,99.34l-.11-.16-.19-.3a27.89,27.89,0,0,0,.75,2.9,39,39,0,0,0,2.5,3.93,35.73,35.73,0,0,1-1.28-3.91Z" fill="#098442"/><path d="M68.83,91.51a28.14,28.14,0,0,1-.14-3.2v0c0-.14,0-.28,0-.41v-.05c0-.15,0-.29,0-.43a25.09,25.09,0,0,0-1.39,8.18,17.12,17.12,0,0,0,.37,3.31c.42.65,1.15,1.76,2,2.93A27.8,27.8,0,0,1,68.83,91.51Z" fill="#dbcc23"/><path d="M76.54,76.78c1.33-1.73,1.39-5.43,1.39-5.43a9.83,9.83,0,0,1-4.29,1.54A7.92,7.92,0,0,0,71,74.36l.08.11c2.37,3.36,0,8,0,8a21.56,21.56,0,0,0-2.37,5,29.82,29.82,0,0,0,.12,4.11,23.68,23.68,0,0,1,2.26-7.71C72,81.72,75.21,78.51,76.54,76.78Z" fill="#be1e2d"/><path d="M84.82,129.85H96.33c-5.33-4.74-12.86-11.06-12.16-8.28A39.37,39.37,0,0,1,84.82,129.85Z" fill="#284da0"/><path d="M101.38,125.06a47.2,47.2,0,0,0,.51-5.63c0-2.38-.27,1.17-.84,4.76l-.11.7-.68-.24a27.08,27.08,0,0,0,.61-3.07c.13-1.32-.27-.41-.42.71-.07.49-.31,1.45-.49,2.25-.61-.2-1.11-.34-1.52-.44a18.7,18.7,0,0,0,.26-2.2c0-.74-.31-.17-.58,1.26,0,.26-.11.56-.17.85a5.72,5.72,0,0,0-.79-.11,54.92,54.92,0,0,1,7,3l.11-.56C103.2,125.81,102.23,125.39,101.38,125.06Z" fill="#223369"/><path d="M68.29,65.15s-.75-4.72.94-5.46a7.21,7.21,0,0,1,6.17,0c2.79,1.08,4.23,1.41,4.23,4.55s-1.1,7.69-3.47,8.93a5.68,5.68,0,0,1-5.17,0C70.24,72.85,68.24,69.36,68.29,65.15Z" fill="#fff"/><ellipse cx="73.06" cy="62.73" rx="2.6" ry="2.54" fill="#f9ec31"/><ellipse cx="72.59" cy="62.73" rx="1.56" ry="1.52" fill="#231f20"/><ellipse cx="73.37" cy="61.31" rx="0.78" ry="0.76" fill="#fff"/><path d="M65.5,72.68s4.06,2.4,8.3,1.74c0,0,1.52-1.08-.59-4.3s-3.73-3.81-4.91-3.23A5.6,5.6,0,0,0,65.5,72.68Z" fill="#2d2926"/><path d="M105.39,129.85H107a14.45,14.45,0,0,1-6.85-2.93l2.92,2.16A23.86,23.86,0,0,0,105.39,129.85Z" fill="#223369"/><path d="M101,129.85c-3.35-2.05-6.53-4.35-6.53-4.35s2.84,2.39,5.63,4.35Z" fill="#223369"/><path d="M87,126.05l.68.44c0,.72,0,2.07,0,3.36h.69a16.09,16.09,0,0,0,.58-2.52l3,1.86,0,.67h.83c0-.06,0-.12,0-.17l.28.17h1.79c-4.6-2.87-8.78-5.68-10.56-7-2.88-2.06-6.52-6-9-8.87a45.89,45.89,0,0,1-4.33-8.32h0c-.46-.62-.91-1.29-1.33-2h0l-.6-1v0l-.55-1a44,44,0,0,0,4.11,9A45,45,0,0,0,87,126.05Z" fill="#223369"/><path d="M72.83,111.12l-.15-.18Z" fill="#223369"/><path d="M74.7,113.36l-.84-1Z" fill="#223369"/><path d="M73.78,112.27l-.63-.76Z" fill="#223369"/><path d="M73.08,111.43l-.2-.25Z" fill="#223369"/><path d="M65.35,74.53a2.89,2.89,0,0,1,.06-1.64,9.26,9.26,0,0,1,1.92-4.68c1.53-1.9,1.52-2.88,1.34-3.33a9.08,9.08,0,0,0-6.55-3.36s-5.42,9.35,4.49,16a11.14,11.14,0,0,1-1.25-3h0Z" fill="#e8c270"/><polygon points="65.35 74.53 65.35 74.53 65.35 74.53 65.35 74.53" fill="#2d2926"/><path d="M67.32,68.21a9.26,9.26,0,0,0-1.92,4.68,1.49,1.49,0,0,1,.09-.21c.93-1.57,3.89-3.81,3.73-6.29a3.18,3.18,0,0,0-.56-1.52C68.84,65.32,68.86,66.31,67.32,68.21Z" fill="#2d2926"/><path d="M69.72,67.95a38.24,38.24,0,0,1-2.22,3.68c-.75,1,2.48,1,3,1s2.17-.39,1.86-1.65S70.42,66.67,69.72,67.95Z" fill="#404041"/><path d="M62.18,62.42a17.76,17.76,0,0,0-.88,5.44c.17,2.25,1.5,5.28,1.76,4.42s-.35-4.08,1.15-5.87,1.56-2.79.47-3.44S62.42,61.6,62.18,62.42Z" fill="#f7d593"/><path d="M106,92.72a57.56,57.56,0,0,1-2.08,14.73c-.8,3.64-3.06,2.4-3.06,2.4-.4,4.29-2.73,2.86-2.73,2.86-.4,2.27-3.12.45-3.12.45-.07,3.18-2.26,1.56-2.26,1.56-.33,1.36-2.81-1-2.81-1-.62,2-5.43-2.27-5.43-2.27-.53,1.49-2.73-1.95-2.73-1.95,0,2.66-5.05-3.44-5.05-3.44.13,2.08-1.6,1.1-3.39,0a19.62,19.62,0,0,1-3.65-4.29,35.73,35.73,0,0,0,1.28,3.91,12.81,12.81,0,0,0,2.5,2.68c3.19,2.34,2.75.87,2.75,0a21.44,21.44,0,0,0,5.05,4.68c2.66,1.56,2.57-.61,2.57-.61s2.22,2.68,4,3.2,1.54-.87,1.54-.87,3.24,3.81,3.24,1.47c0,0,3.1,4.07,2.75.17,0,0,1.77,1.73,2.39-1.47,0,0,1.6,1.47,2.39-1.56,0,0,2.3,1,2.92-2.86,0,0,3.32,3.65,3.35-15.09C106.28,94.52,106.14,93.61,106,92.72Z" fill="#00a14b"/><path d="M68.32,99.83c.3.46.65,1,1,1.53C69,100.81,68.62,100.29,68.32,99.83Z" fill="#f7d593"/><path d="M68.44,101.78l.55,1Z" fill="#f7d593"/><path d="M180.56,114.75,178.37,116a11.74,11.74,0,0,0-2.41,2.17c-.28.65-16.81,1-20.92,1.44s-21.5.42-21.5.42l-24,1.67c-3.47.24-19.95,1.89-26.08,2.51l-.48-6.6,3,0,17.91-2.35,22.23-1.61,15.55-1.08,23.56.79,20.18-1.41L179.25,114Z" fill="#a87c4f"/><path d="M181.63,115.31l-1.86,1.89.94,1.35.75,1.8-2.05,1.59s-9.26.41-13,.67-11,1.17-14.14.93-14.26-.74-17.73-.5S112.78,125,112.78,125l-29,3.64-.32-4.39c6.13-.62,22.61-2.27,26.08-2.51l24-1.67s17.39,0,21.5-.42,20.63-.79,20.92-1.44a11.74,11.74,0,0,1,2.41-2.17l2.19-1.25-1.3-.76,6.13-2.07L182,114.65Z" fill="#8a5d3b"/><path d="M153.44,114.84a15.47,15.47,0,0,1,2.77-.08l3-.06,3.65-.14c5.18-.23,9.41-.48,9.43-.34a63.56,63.56,0,0,1-9.46.87c-1.31.06-2.57.07-3.7.1l-3-.05A12.07,12.07,0,0,1,153.44,114.84Z" fill="#8a5d3b"/><path d="M113.61,119.41a57.88,57.88,0,0,1,6.77-.93c4.22-.44,10.06-1,16.63-1.24,12.85.22,23.2,0,23.2.2a61.86,61.86,0,0,1-6.88.4c-2.12.06-4.64.11-7.44.15s-5.94-.07-9,0c-6.34.18-12.21.71-16.42,1S113.63,119.5,113.61,119.41Z" fill="#8a5d3b"/><path d="M106.67,118.1c-.06-.14,5.6-.84,12.62-1.57,3.51-.39,6.7-.6,9-.76a26.61,26.61,0,0,1,3.75-.14,26.67,26.67,0,0,1-3.7.5c-2.29.25-5.47.52-9,.91C112.42,117.77,106.72,118.24,106.67,118.1Z" fill="#8a5d3b"/><path d="M85.92,122.26c0-.19,3.6-.7,8.13-1.14s8.24-.65,8.28-.46-3.6.7-8.13,1.14S86,122.45,85.92,122.26Z" fill="#8a5d3b"/><path d="M86.81,118.5a66.27,66.27,0,0,1,6.86-1,50.52,50.52,0,0,1,7-.59,42.19,42.19,0,0,1-6.82,1.1A36.58,36.58,0,0,1,86.81,118.5Z" fill="#8a5d3b"/><path d="M133.22,129.85c-3.66-4.54-9.08-2.15-12.34,0Z" fill="#be1e2d"/><path d="M114.7,73.53a15.94,15.94,0,0,1,2.22-4c-.94,9.63,3.38,8.14,3.38,8.14.51,6.23,3.09,4.33,3.09,4.33.9,5.15,3.61.77,3.61.77,1.68,8.56,5.93,3.52,5.93,3.52C135,93,137.7,87.8,137.7,87.8c.77,4,4-.13,4-.13.9,4.91,5.28.31,5.28.31.13,4.84,6.57-3.65,6.57-3.65-.39,9.62,6.7-2.82,6.7-2.82-.26,4,3.87,3.9,6.44-1.39A19,19,0,0,0,168.23,74a40.42,40.42,0,0,1-1.2,15c-1.84,2.62-4,5.43-5.3,6.23-2.61,1.6-5.12,3-4.93,0,0,0-7.34,8.88-7.34,5,0,0-3.19,5-4,2.83,0,0-7,6.23-7.89,3.3,0,0-3.61,3.4-4.09,1.42,0,0-3.19,2.36-3.29-2.27,0,0-4,2.64-4.54-.66,0,0-3.38,2.08-4-4.15,0,0-3.29,1.79-4.45-3.49-.9-4.09-2.91-10.24-3-21.42C114.39,75,114.53,74.25,114.7,73.53Z" fill="#fff100"/><path d="M122.75,125.44l-4.25,3.15s-.73.54-1.82,1.27h4.51c5-3,9.74-6.48,9.74-6.48s-4.28,3.6-8.39,6.48h7.68c6.78-4.23,13-8.39,15.6-10.27,4.17-3,9.47-8.74,13-12.87a66.7,66.7,0,0,0,6.31-12.11h0a18.6,18.6,0,0,1-3.63,3.9c-4.64,3.4-4,1.26-4,0a31.17,31.17,0,0,1-7.34,6.8c-3.86,2.27-3.74-.88-3.74-.88s-3.22,3.9-5.8,4.66-2.25-1.26-2.25-1.26-4.71,5.54-4.71,2.14c0,0-4.51,5.92-4,.25,0,0-2.58,2.52-3.48-2.14,0,0-2.32,2.14-3.48-2.27,0,0-3.35,1.51-4.25-4.15,0,0-4.83,5.31-4.86-21.93-.2,1.66-.35,3.38-.42,5.19-.66,17,2.46,34.62,3.36,39.31,13.37-4,19.21-9.13,19.21-9.13a48.28,48.28,0,0,1-4.47,3.71c-3.22,2.45-14.5,6.64-14.5,6.64a7.18,7.18,0,0,0-3.74,2.83,3.8,3.8,0,0,0-.34,1.43A20.85,20.85,0,0,0,122.75,125.44Z" fill="#284da0"/><path d="M131.32,118.8c-3.22,2.45-14.5,6.64-14.5,6.64s-.09-.44-.25-1.22c13.37-4,19.21-9.13,19.21-9.13A48.3,48.3,0,0,1,131.32,118.8Z" fill="#223369"/><path d="M116.92,69.52a15.94,15.94,0,0,0-2.22,4,48.24,48.24,0,0,1,3-9c3.49-7.71,8.45-12.7,12.92-15.29,0,0,1.85-13.52,10.71-20.85s17.13-8.22,25.37-8,11.14,3.68,12.07,6.62c1.26,4-.74,8.43-.74,8.43s-9.4,8.61-12.94,13.53a11.51,11.51,0,0,0-3.83-2.13A14.29,14.29,0,0,1,155,44.65s.09,5.38,2,7.9,6.58,7.18,7.93,10.2A34.42,34.42,0,0,1,168.23,74a19,19,0,0,1-1.55,6.16c-2.57,5.29-6.71,5.41-6.44,1.39,0,0-7.08,12.44-6.7,2.82,0,0-6.44,8.49-6.57,3.65,0,0-4.38,4.6-5.28-.31,0,0-3.22,4.15-4,.13,0,0-2.71,5.16-4.77-1.51,0,0-4.25,5-5.93-3.52,0,0-2.71,4.38-3.61-.77,0,0-2.58,1.9-3.09-4.33,0,0-4.33,1.49-3.38-8.15Z" fill="#dd1f26"/><path d="M167.47,88.3v0c.56-.8,1.07-1.56,1.51-2.23l.08-.12.24-.36.15-.24.16-.24.28-.43a40.55,40.55,0,0,1-1.09,4.22,56.62,56.62,0,0,1-3.63,5.71A51.94,51.94,0,0,0,167,88.93Z" fill="#098442"/><path d="M168.23,74a40.91,40.91,0,0,0,.2-4.65v0c0-.21,0-.41,0-.6,0,0,0-.05,0-.07,0-.22,0-.42,0-.62a36.47,36.47,0,0,1,2,11.89,24.88,24.88,0,0,1-.54,4.81c-.61.94-1.67,2.56-2.86,4.25A40.42,40.42,0,0,0,168.23,74Z" fill="#dbcc23"/><path d="M157,52.55c-1.93-2.52-2-7.9-2-7.9a14.29,14.29,0,0,0,6.24,2.24A11.51,11.51,0,0,1,165.07,49l-.12.16c-3.45,4.88,0,11.59,0,11.59A31.33,31.33,0,0,1,168.4,68a43.35,43.35,0,0,1-.17,6A34.42,34.42,0,0,0,165,62.75C163.6,59.72,159,55.07,157,52.55Z" fill="#be1e2d"/><path d="M145,129.85c0-4.68.22-9.26.95-12.19,1-4.07-10.11,5.29-17.86,12.19Z" fill="#284da0"/><path d="M120.91,122.73a68.62,68.62,0,0,1-.74-8.19c0-3.46.39,1.7,1.22,6.92l.16,1,1-.35a39.37,39.37,0,0,1-.89-4.46c-.19-1.92.39-.6.61,1,.1.72.45,2.11.72,3.27.88-.29,1.62-.5,2.2-.63a27.18,27.18,0,0,1-.38-3.21c0-1.07.45-.25.84,1.82.07.38.16.81.24,1.23A8.31,8.31,0,0,1,127,121a79.84,79.84,0,0,0-10.21,4.41l-.17-.81C118.28,123.83,119.69,123.22,120.91,122.73Z" fill="#223369"/><path d="M169,35.65s1.09-6.85-1.36-7.94-4.91-1.56-9,0-6.15,2-6.15,6.61,1.6,11.18,5,13a8.25,8.25,0,0,0,7.51,0C166.18,46.83,169.1,41.76,169,35.65Z" fill="#fff"/><ellipse cx="162.08" cy="32.12" rx="3.77" ry="3.69" fill="#f9ec31"/><ellipse cx="162.77" cy="32.12" rx="2.26" ry="2.21" fill="#231f20"/><ellipse cx="161.64" cy="30.06" rx="1.13" ry="1.11" fill="#fff"/><path d="M173.08,46.59s-5.91,3.49-12.06,2.53c0,0-2.22-1.56.86-6.25s5.42-5.53,7.14-4.69S173.57,41.69,173.08,46.59Z" fill="#2d2926"/><path d="M114.42,129.85a30.76,30.76,0,0,0,4.08-1.27l4.25-3.15a20.85,20.85,0,0,1-10,4.27.28.28,0,0,0,.11.15Z" fill="#223369"/><path d="M122.54,129.85c4.11-2.88,8.39-6.48,8.39-6.48s-4.78,3.45-9.74,6.48Z" fill="#223369"/><path d="M132.81,129.85l.65-.4c0,.12,0,.26,0,.4h1.21c0-.5,0-.89-.06-1.12,1.66-1,3.12-2,4.3-2.7a24.25,24.25,0,0,0,.89,3.82h1c0-1.92,0-4,.07-5l1-.63c8.85-5.47,16-13.82,21-22.21a63.91,63.91,0,0,0,6-13.08c-.25.45-.52.92-.8,1.39l0,0q-.42.71-.87,1.43h0c-.61,1-1.26,1.94-1.93,2.85h0a66.68,66.68,0,0,1-6.31,12.11c-3.57,4.13-8.87,9.89-13,12.87-2.63,1.88-8.82,6-15.6,10.27Zm26.76-24-.71.82Z" fill="#223369"/><path d="M162.63,102.21l-.21.26Z" fill="#223369"/><path d="M160.92,104.28l-1.22,1.44Z" fill="#223369"/><path d="M162,103l-.92,1.11Z" fill="#223369"/><path d="M162.35,102.55l-.3.36Z" fill="#223369"/><path d="M173.3,49.28a4.2,4.2,0,0,0-.08-2.39,13.46,13.46,0,0,0-2.79-6.81c-2.23-2.76-2.21-4.19-2-4.84,1.74-2.63,5.93-4.7,9.53-4.89,0,0,7.88,13.59-6.52,23.33a16.2,16.2,0,0,0,1.82-4.4h0Z" fill="#e8c270"/><polygon points="173.3 49.28 173.3 49.28 173.3 49.28 173.3 49.28" fill="#2d2926"/><path d="M170.43,40.09a13.46,13.46,0,0,1,2.79,6.81,2.16,2.16,0,0,0-.14-.3c-1.35-2.29-5.66-5.53-5.42-9.14a4.62,4.62,0,0,1,.81-2.21C168.21,35.89,168.2,37.32,170.43,40.09Z" fill="#2d2926"/><path d="M166.95,39.71a55.6,55.6,0,0,0,3.22,5.35c1.1,1.38-3.61,1.45-4.38,1.45s-3.16-.57-2.71-2.39S165.92,37.85,166.95,39.71Z" fill="#404041"/><path d="M177.9,31.68s1.51,4.63,1.27,7.9S177,47.26,176.61,46s.51-5.92-1.68-8.53-2.27-4.06-.68-5S177.55,30.48,177.9,31.68Z" fill="#f7d593"/><path d="M114.25,75.73c.12,11.18,2.13,17.32,3,21.42,1.16,5.29,4.45,3.49,4.45,3.49.58,6.23,4,4.15,4,4.15.58,3.3,4.54.66,4.54.66.1,4.63,3.29,2.27,3.29,2.27.48,2,4.09-1.42,4.09-1.42.9,2.93,7.89-3.3,7.89-3.3.77,2.17,4-2.83,4-2.83,0,3.87,7.34-5,7.34-5-.19,3,2.32,1.6,4.93,0,1.3-.8,3.46-3.61,5.3-6.23a51.94,51.94,0,0,1-1.87,5.68,18.61,18.61,0,0,1-3.63,3.89c-4.64,3.4-4,1.26-4,0a31.17,31.17,0,0,1-7.34,6.8c-3.86,2.27-3.74-.88-3.74-.88s-3.22,3.9-5.8,4.66-2.25-1.26-2.25-1.26-4.71,5.54-4.71,2.14c0,0-4.51,5.92-4,.25,0,0-2.58,2.52-3.48-2.14,0,0-2.32,2.14-3.48-2.27,0,0-3.35,1.51-4.25-4.15,0,0-4.83,5.31-4.86-21.93C113.8,78.34,114,77,114.25,75.73Z" fill="#00a14b"/><path d="M169,86.06c-.44.66-1,1.42-1.51,2.23C168,87.49,168.54,86.72,169,86.06Z" fill="#f7d593"/><path d="M168.8,88.89c-.25.45-.52.92-.8,1.39C168.27,89.81,168.54,89.35,168.8,88.89Z" fill="#f7d593"/></svg>