<svg id="Layer_1" data-name="Layer 1" xmlns="http://www.w3.org/2000/svg" viewBox="0 0 692.9 162.91"><defs><style>.cls-1{fill:#00a7ee;}.cls-2{fill:#010101;}.cls-3{fill:#1e0e00;}.cls-4{fill:#0088c6;}.cls-5{fill:#31100d;}.cls-6{fill:#031825;}.cls-7{fill:#cdcac5;}.cls-8{fill:#1a1119;}</style></defs><title>butterfly(1)</title><g id="_Group_" data-name=" Group "><path class="cls-1" d="M69,68.27c1.93.4,3.85-.77,5.89-.58a69.87,69.87,0,0,1,9.65,1.53C95,80.55,92.2,92,106.95,97.12a17.34,17.34,0,0,0-1.72,3.35c-.85,3.26,3.65,5.5,2.8,8.55-.51,1.77-5.57-2.08-6.87,2.88-.58,2.15.38,4.67.17,7-4.6-.16-11-1.78-13.12,4.19a1.54,1.54,0,0,1-1.77,1.26l-.28-.07c-1.57-.45-3.6-2.26-5-2.6-1.72-.45-4.19,5.23-5.86,4.78-1.87-.48-2.21-5.91-5.95-7.18-.41-.14-.53-.68-.53-1a13,13,0,0,0-2.56-8.11c-3.79-16.8,5.51-27.81,2.6-41.56C59.54,79.1,62,93.21,50.3,105.92a13.19,13.19,0,0,0-6.3,5.77c-.18.31-.55.72-1,.63-3.87-.76-6.89,3.78-8.76,3.28-1.66-.41-1-6.6-2.68-7-1.34-.34-4.06.19-5.57-.17a1.52,1.52,0,0,1-1.21-2c1.25-6.21-5.18-8-9.26-10.11,1-2.07,3-3.79,3.65-5.95,1.32-4.92-5-4.12-4.52-5.88.84-3.11,5.87-2.83,6.77-6.06a17.25,17.25,0,0,0,.2-3.74C37,77.47,40.38,66.17,55.07,61.47a69.69,69.69,0,0,1,9.12,3.39C66.08,65.71,67.16,67.67,69,68.27Z"/><path class="cls-2" d="M117.93,103.75c-.82,3-5.19,1.18-5.86,3.65-.49,1.82,3.41,4.13,2.41,7.9-1.26,4.67-7.44.26-8.3,3.63-.42,1.65.39,4.73-.33,7.42-1.08,4-4.63-.51-7.81,6.78-.37.87-2.56.78-2.82,1.63-3,11.29,2.07,19.52.94,23.68-.43,1.61-1.1,2.8-3.44,2.17-4.32-1.14-2.68-6.67-1.32-11.61l.62-2.28c.71-2.62-1.41-7.46-4.56-8.3s-4.54,3.42-5.9,3.06c-.93-.25-.92-2.07-2.6-2.52-2.87-.76-3.94,3.21-7.14,2.35-3.41-.91,1.17-8.65-1.82-9.42-.6-.16-1.46-.19-2.2-.37-4.19-1.11,2.32-9.55-.33-17.37-.41-1.36-.81-2.65-1.1-3.92a13,13,0,0,1,2.56,8.11c0,.35.13.89.53,1,3.74,1.26,4.07,6.67,5.95,7.18,1.66.41,4.16-5.24,5.86-4.78,1.34.35,3.38,2.21,5,2.6a1.54,1.54,0,0,0,2.05-1.19c2.07-6,8.5-4.35,13.12-4.19.18-2.23-.74-4.81-.17-7,1.32-4.92,6.39-1.11,6.87-2.88.84-3.11-3.71-5.32-2.8-8.55A17.34,17.34,0,0,1,107,97.24C92.27,92.1,95,80.65,84.61,69.34l1.67.41C115.19,77.35,118.6,101.33,117.93,103.75Z"/><path class="cls-2" d="M8.82,74.86c-.82,3,3.91,3.58,3.25,6.05C11.59,82.74,7,82.8,6,86.59c-1.26,4.67,6.3,3.87,5.35,7.27-.42,1.65-2.72,4-3.44,6.61-1.08,4,4.27,1.84,3.37,9.73-.11.94,1.85,1.91,1.62,2.8C9.95,124.27,1.34,128.89.22,133c-.43,1.61-.45,3,1.92,3.6,4.32,1.14,5.66-4.49,7-9.44l.62-2.28c.71-2.62,5-5.77,8.12-4.94s2.22,5.21,3.59,5.58c.93.25,1.84-1.34,3.53-.9,2.87.76,1.79,4.68,5,5.54,3.41.91,3.33-8.07,6.3-7.29.6.16,1.35.53,2.09.74,4.19,1.11,2.82-9.4,9.05-14.9q1.6-1.42,2.93-2.86a13.19,13.19,0,0,0-6.3,5.77c-.18.31-.55.72-1,.63-3.87-.76-6.89,3.78-8.76,3.28-1.66-.41-1-6.6-2.68-7-1.34-.29-4.1.28-5.59-.12a1.52,1.52,0,0,1-1.24-2c1.25-6.21-5.18-8-9.26-10.11,1-2.07,3-3.79,3.65-5.95,1.32-4.92-5-4.12-4.52-5.88.84-3.11,5.87-2.83,6.77-6.06a17.25,17.25,0,0,0,.2-3.74C37,77.47,40.38,66.17,55.07,61.47l-1.62-.41C24.45,53.35,9.48,72.43,8.82,74.86Z"/></g><path class="cls-3" d="M69.18,79.27c-.63,11,3.44,4.42,1.38,32.24-.19,2.37-.75,7.84-2.45,9.51l-.24-.1a5.27,5.27,0,0,1,.38-1.73c2.14-7.32,2.56-23.78,2.21-26.69s-1.94-7.66-1.54-13.2Z"/><path class="cls-3" d="M63.64,77.82c-4.33,8.84-8,5.93-18.16,30.41a20.2,20.2,0,0,0-1.42,4.52,5.27,5.27,0,0,1-.52,1.73l-.26,0c-1-3.68,5.64-15.46,7.88-19.54,4.85-8.42,3.29-5.63,8.54-11.74a26.2,26.2,0,0,0,3.65-5.44Z"/><path class="cls-3" d="M69.56,77.06c1.66,3.4,2.93,3.62,3.73,5.92,2.19,6.2,6.52,17.34,11.88,13.33.4-.3.27-.33.43-.79l.59-1.91c1.53-4.71-4.75-6.28-5.64-12.36l.27,0c.9,6,7.21,7.47,5.67,12.46-.79,2.62-.54,2.73-2,3.37-7,2.82-10.82-13.55-13.1-16.23a8.07,8.07,0,0,1-2-3.7Z"/><path class="cls-3" d="M64.33,75.82A8.17,8.17,0,0,1,60.76,78c-3,1.1-2.67,2-8.12,5.77-4.25,2.84-9.94,5.62-12,.92-.23-.58-.1-.56,0-1,.46-1.94.54-2.69,1.27-3.74,2.46-3,7.11-2.09,10.38-6.18l.19.13C48.15,79.4,41.67,76,40.86,84.25a2.71,2.71,0,0,0,.62,1.25C45.08,89.94,53.62,82.7,58,79c1.8-1.59,3.08-1.24,6.22-3.3Z"/><path class="cls-3" d="M86.22,90.09c12.11,4.41,19.32,11.74,21,14.21l-.19.18C103.83,102.39,99.19,95.76,86.22,90.09Z"/><path class="cls-3" d="M43.17,78.71C29,77.21,21.82,80.67,17.89,81l-.08-.25C20.89,79.13,31.29,76.68,43.17,78.71Z"/><path class="cls-3" d="M85.86,95.09c12.19,13.21,5.62,6.46,17.3,20a2.14,2.14,0,0,1,.61,1l-.19.17a2.12,2.12,0,0,1-.92-.76C92,102.7,99.83,111.49,85.86,95.09Z"/><path class="cls-3" d="M41,83.2c-20.72,7.47-9.57,3.71-24.83,9.42a2.13,2.13,0,0,1-1.19.22l-.08-.25A2.16,2.16,0,0,1,15.93,92C33.21,85.91,23.48,88.71,41,83.2Z"/><path class="cls-3" d="M83.36,97.36c1.52,6.48,5.81,14.83,8.6,25.77l-.92.18C88.63,112.28,84.68,103.9,83.36,97.36Z"/><path class="cls-3" d="M42,86.42c-4.6,5.17-11.9,10.16-19.7,18.69l-.71-.61C29.78,96.1,37.19,91.46,42,86.42Z"/><path class="cls-3" d="M80.54,96.25c.52,6.34-1.25,4.16,0,14.47.81,6.69.48,3.47,1.5,14.48l-.81,0c-.7-11.13-.4-7.3-1.33-17.2C79.32,103,80.78,101.42,80.54,96.25Z"/><path class="cls-3" d="M45,86.85c-2.35,3.63-2.16,5-3.94,8.3,0,0-6.1,8.77-11.24,16.49l-.68-.43C43.71,90.62,39.08,99,43.6,89.14A15,15,0,0,1,45,86.85Z"/><path class="cls-3" d="M76.25,90.7c-2,12.12,0,27.51-5.11,35l-.24-.08a14.69,14.69,0,0,1,.59-3.25C76,106.25,72.94,104.82,76.25,90.7Z"/><path class="cls-3" d="M51.47,84.09c-4.09,13.5-7.69,14.1-11.82,29.85a14.73,14.73,0,0,1-1.08,3.13l-.25,0C37.74,108.34,47.43,95.08,51.47,84.09Z"/><g id="_Group_2" data-name=" Group 2"><path class="cls-4" d="M93.19,62.69c-1-.55-1.63-.87-1.44-.69A8.89,8.89,0,0,0,93.19,62.69ZM52.47,51.61c.25-.08-.45-.09-1.59-.11C51.82,51.56,52.33,51.65,52.47,51.61ZM70.64,62.31Q71.75,60.79,73,59.2c9.89-.44,20.8-4.69,24.11-15.08,1.79-5.46,8.4-5.6,13.52-7.09a6.7,6.7,0,0,0-.47,1.19c-.56,2.05.84,2.76,2.68,3.23,8.33,2.21-8.16,1,6.25,7.51-2.7,1.18-5.81,1.51-8.72,2.42,1.57,2.08,4.77,1.74,6,4.2a18.85,18.85,0,0,1-8.19-.22c-1-.25-.78-.14-.83-.09a57.85,57.85,0,0,1,6.16,3.92c1.18.94,3,2.54,3.3,2.72,3.35,1.94-5.74.8-14.28-1.52a15.06,15.06,0,0,1-3-1.17h0S122,71.54,114,69.43c-6.29-1.66-5-.66-13.33-2.57-.17,0-2.5-1.33-4.73-2.66a26.85,26.85,0,0,0-2.78-1.55c.77.43,1.75,1,2.78,1.55.52.33,1.09.71,1.69,1.16.24.18,17.66,12.46,12.64,11.09-3.51-.93-7.36-.15-10.84-1a9.37,9.37,0,0,1-2.6-1.11c5.41,3.58,10.46,8.09,16,11.4l-.68-.18c-8.75-2.31-16.47-6.42-22.79-8.09-3.33-.88-6.73-1.51-10.12-2.35A26.89,26.89,0,0,1,68.48,70a27,27,0,0,1-11.94-.89c-3.29-.84-6.6-2-9.92-2.93-6.33-1.67-15.09-1.92-23.85-4.24l-.67-.18c6.52-.09,13.13-1.5,19.68-2A9.4,9.4,0,0,1,39,59.47C35.49,58.55,32.52,56,29,55c-5-1.32,16.27-3.37,16.57-3.42.74-.08,1.43-.13,2-.16l3.14,0a27,27,0,0,0-3.14,0c-2.61,0-5.28,0-5.41,0-8.24-2.48-6.59-2.74-12.83-4.37-8-2.08,17.73-1.73,17.73-1.73h0a15.11,15.11,0,0,1-3.2-.49c-8.57-2.21-17-5.71-13.14-5.73.33,0,2.73-.5,4.22-.72a58.29,58.29,0,0,1,7.27-.33c0-.06.18-.06-.78-.33a18.74,18.74,0,0,1-7.35-3.81c2.31-1.52,4.9.35,7.27-.66-2-2.19-4.61-4.06-6.37-6.42,15.79,1.47.88-5.63,9.19-3.45,1.86.48,3.45.54,4-1.5a6.68,6.68,0,0,0,.2-1.25c3.7,3.84,9.37,7.23,8.2,12.87-2.29,10.62,5,19.73,13.41,25A26.82,26.82,0,0,1,70.64,62.31Z"/><path class="cls-2" d="M102.58,60.42c8.53,2.32,17.62,3.47,14.28,1.51-.28-.17-2.12-1.78-3.3-2.72a53.78,53.78,0,0,0-6.13-3.87s-.17-.17.83.09a18.85,18.85,0,0,0,8.19.22c-1.24-2.47-4.43-2.12-6-4.2,2.87-.87,6-1.26,8.72-2.42-14.37-6.49,2.12-5.29-6.25-7.51-1.86-.48-3.24-1.21-2.68-3.23a6.7,6.7,0,0,1,.47-1.19C105.56,38.6,99,38.75,97.2,44.2,93.82,54.55,82.91,58.81,73.09,59.27c13.56-16.67,41.54-36.08,64.32-30,6.92,1.82,14.45,8.47,13.11,13.49-.9,3.21-9.32,8.35-12.16,19a49.76,49.76,0,0,0-.94,4.89c-.88,3.17-4.35,5-6.25,8-3.93,6.33-4.29,14.65-18.22,11.25-5.63-3.29-10.67-7.77-16-11.4a9.37,9.37,0,0,0,2.6,1.11c3.47.92,7.36.14,10.84,1,5,1.32-12.42-11-12.64-11.09-.6-.43-5.64-3.31-6.16-3.64a59.65,59.65,0,0,0,9.34,4.24c6.4,2.52,6.92,1.81,13.19,3.48,8,2.08-14.51-10.22-14.51-10.22h0A15.06,15.06,0,0,0,102.58,60.42Z"/><path class="cls-2" d="M43.9,44.9c-8.57-2.21-17-5.71-13.14-5.73.33,0,2.73-.5,4.22-.72a54.19,54.19,0,0,1,7.27-.33s.22-.07-.78-.33a18.74,18.74,0,0,1-7.23-3.87c2.31-1.52,4.9.35,7.27-.66-2-2.19-4.61-4.06-6.37-6.42,15.79,1.47.88-5.63,9.19-3.45,1.86.48,3.45.54,4-1.5a6.68,6.68,0,0,0,.2-1.25c3.7,3.84,9.37,7.23,8.2,12.87-2.29,10.62,5,19.73,13.41,25C66.73,37.32,52.21,6.68,29.45.66,22.53-1.16,12.66.86,11.3,5.89c-.86,3.21,3.84,11.83,1,22.43-.55,2-1.61,4.57-1.65,4.68-.88,3.17,1.31,6.44,1.42,10,.23,7.45-3.66,14.83,10.14,18.75,6.52-.09,13.13-1.5,19.68-2A9.4,9.4,0,0,1,39,59.49c-3.47-.92-6.44-3.5-10-4.42-5-1.32,16.27-3.37,16.57-3.42.74-.08,6.55-.09,7.18-.1a59.93,59.93,0,0,1-10.23-.93c-6.83-1-6.94-1.82-13.2-3.48-8-2.08,17.73-1.73,17.73-1.73h0A15.11,15.11,0,0,1,43.9,44.9Z"/></g><path class="cls-3" d="M96,43.7c2.85-4.38,9.25-.82,10.36-2.17,1.62-4,2-5.36,4.92-6.29l.07.24a4.44,4.44,0,0,0-2.41,1.59c-3.93,6.31.12,5.34-7.35,4.81-4.38-.39-5.37,1.91-5.37,1.91Z"/><path class="cls-3" d="M57.76,33.68a4,4,0,0,0-1.17-2.62c-1.45-1.58-4.14-2.25-5.85-3-2.19-1.12-.52-1.3-.62-6.41-.56-1.84-.3-1.4-1.3-2.57l.17-.2c2.11,2.24,1.74,3.56,1.13,7.86.27,1.67,7.61,1.8,7.9,7Z"/><path class="cls-3" d="M106.59,41.49c.45.1.72,0,1.32.36,2.53,2,3,8.58,2.69,9.79-2.36,7.53-23.09,11.09-34.89,15.08-6.65,2.2-6.48,3.5-9.41-.39C57.53,55.43,41.66,43.43,41.23,35.18c-.23-1.8.26-2.84,2.6-5.61,1.68-2,3.9-4.15,6.08-3l-.1.23c-1.91-1.17-4.33,1.24-5.76,3-5.33,6.52-2.79,8.79,15.41,28.3,1.58,1.77,3.24,3.52,4.77,5.36,2.81,3.39,3.09,4.48,4.65,5.39h0a8.31,8.31,0,0,0,3.41-1c13.27-5.81,34.43-8.84,37.64-15.44,1.06-1.69.16-9.12-2.53-10.43-.2-.14-.56-.1-.84-.15Z"/><path class="cls-3" d="M99.3,75.77c-.62-.27-6.7-3-7.32-3.22-12.19-4.93-14.39-1.41-23.49-2.26-1.82-.82-2.45-1-6.9-4.17-7.15-4.78-8.71-4.89-22.56-6.29l0-.08c23.42.45,19.16,5.1,29.65,10.07h0c11.26.87,10.4-5.17,30.75,5.88Z"/><path class="cls-3" d="M71.76,69.91a4.64,4.64,0,0,1,1.73.52c4.6,1.39,6.73,1.5,7.71,5.13-1.79-4.88-8-3.45-9.56-5.45Z"/><path class="cls-3" d="M65.84,68.63c-2.26.91-7-3.34-11,0,2.3-2.34,4.36-1.84,7.49-1a26.54,26.54,0,0,0,3.12.59,1.79,1.79,0,0,1,.49.2Z"/><path class="cls-3" d="M69.74,73c4.91,7.07,2.48,6,17.72,10.13,10.48,2.81,15.33,5.09,20,8.15l-.15.21c-4.24-2.82-9-5.25-19.87-8-15.48-4.06-13.94-3.07-17.86-10.24Z"/><path class="cls-3" d="M66.17,72.23c-6.83,4.17-5.15,4.22-20.65.09-11-3-16.36-3.13-21.26-2.85v-.3c16.57-1,30.53,7.58,37,5.19,2.45-1.24,3.29-1.63,4.79-2.35Z"/><path class="cls-5" d="M70.83,60.79c-.13,3.46,1.53,7.9,1.09,11.85,0,.09-3.63,9.76-3.63,9.76-.16.6-5.85,17.11-7.77,16.59s1.69-17.24,1.88-17.86c0,0,1.51-10.5,1.54-10.6C65.56,66.85,69.2,63.85,70.83,60.79Z"/><path class="cls-6" d="M73.89,49.46c1.18.43,1.84,3.41,1.56,4.47-.19.69-.59.86-2.26.42L73,54.3l-.41-.12-.39-.11L72.05,54c-1.67-.41-1.94-.78-1.75-1.45C70.57,51.51,72.67,49.27,73.89,49.46Z"/><path class="cls-7" d="M74.9,50.9a2.64,2.64,0,0,0-.1.31,1.51,1.51,0,0,0,.41,1.72c.25.07.59.07.76-.55a1.22,1.22,0,0,0-.85-1.48Z"/><path class="cls-7" d="M72.28,50.21a2.63,2.63,0,0,1-.07.31c-.25.93-1,1.34-1.21,1.29s-.55-.23-.35-.87a1.23,1.23,0,0,1,1.49-.81Z"/><path class="cls-8" d="M72.74,53.68l.6.12a2.74,2.74,0,0,1,1,.46c2.17,1.65,2.49,4.23,1.79,6.77-1,3.71-4.34,7.27-4.46,7.39-.94.91-5.16,0-5.46-1.48-.12-.63-1.15-4.88-.13-8.56.69-2.57,2.35-4.57,5.05-4.94a2.76,2.76,0,0,1,1.07.07A2,2,0,0,1,72.74,53.68Z"/><path class="cls-8" d="M73.77,50.74C74.2,44.47,94,42,98.23,34.94c1.09-1.86.7-2.71.37-2.54l-.06.08.06-.08a.22.22,0,0,1,.25.05c.18.19.09.58,0,1-2.07,8.26-21.79,9.83-24.74,17.31Z"/><path class="cls-8" d="M73.24,50c.61-5.75-13.71-20.74-14.12-25.58,0-.41,0-.81.24-.89s.17.26.19.22,0-.21-.19-.22c-2.12.57,6,11.19,7.17,12.87,4.87,6.75,7.54,10.74,7.29,13.64Z"/><g id="_Group_3" data-name=" Group 3"><path class="cls-1" d="M254.92,69.84c1.89.48,3.82-.6,5.82-.32a68.76,68.76,0,0,1,9.43,2c9.91,11.72,6.87,23,21.27,28.71a17,17,0,0,0-1.81,3.22c-1,3.23,3.44,5.62,2.51,8.65-.48,1.72-5.4-2.25-6.85,2.57-.64,2.11.21,4.68,0,6.92-4.54-.34-10.81-2.2-13,3.63a1.5,1.5,0,0,1-2.06,1.09c-1.52-.47-3.52-2.38-4.78-2.81-1.67-.49-4.29,5-5.93,4.52s-2-6-5.65-7.38a1,1,0,0,1-.49-1,13.19,13.19,0,0,0-2.29-8.18c-3.22-16.85,6.29-27.32,3.8-41.16-9.62,10-7.5,24.18-19.43,36.32A12.81,12.81,0,0,0,229,112a1,1,0,0,1-1,.58c-3.8-.91-6.89,3.47-8.73,2.94s-.77-6.6-2.4-7.13c-1.35-.42-4,.08-5.51-.4a1.54,1.54,0,0,1-1.1-2.09c1.37-6.11-4.85-8.14-8.79-10.44,1-2,3.13-3.65,3.74-5.75,1.45-4.82-4.77-4.26-4.27-6,.91-3.05,5.88-2.53,6.84-5.75a17.28,17.28,0,0,0,.3-3.71c15,3.48,18.7-7.64,33.32-11.69a69.21,69.21,0,0,1,8.89,3.76C252.09,67.22,253.09,69.16,254.92,69.84Z"/><path class="cls-2" d="M302.05,107.14c-.89,3-5.15,1-5.88,3.38-.54,1.79,3.24,4.25,2.11,7.93-1.38,4.59-7.31-.07-8.31,3.27-.5,1.65.24,4.74-.54,7.38-1.17,3.93-4.55-.7-7.91,6.45-.4.84-2.56.63-2.83,1.5-3.33,11.11,1.48,19.55.26,23.62-.47,1.57-1.18,2.75-3.46,2-4.21-1.32-2.44-6.74-1-11.6l.68-2.27c.78-2.58-1.18-7.48-4.26-8.44s-4.57,3.22-5.91,2.8c-.91-.29-.85-2.11-2.51-2.6-2.8-.87-4,3-7.11,2s1.4-8.55-1.49-9.46c-.58-.18-1.42-.25-2.14-.47-4.06-1.25,2.52-9.38.19-17.28a39.26,39.26,0,0,1-1-4,13.19,13.19,0,0,1,2.29,8.18c0,.35.09.89.49,1,3.64,1.41,3.81,6.81,5.65,7.38s4.24-5,5.93-4.52c1.35.42,3.26,2.33,4.78,2.81a1.5,1.5,0,0,0,2.06-1.09c2.25-5.85,8.51-3.92,13-3.63.29-2.26-.57-4.82,0-6.92,1.45-4.82,6.34-.85,6.85-2.57.91-3.05-3.49-5.45-2.51-8.65a17,17,0,0,1,1.81-3.22c-14.34-5.73-11.33-17-21.27-28.71q.83.23,1.65.5C300.12,80.78,302.77,104.74,302.05,107.14Z"/><path class="cls-2" d="M195.41,73.89c-.89,3,3.76,3.73,3,6.16-.54,1.79-5,1.68-6.13,5.4-1.38,4.59,6.09,4.11,5.09,7.49-.5,1.65-2.81,3.75-3.59,6.43-1.17,3.93,4.15,2,3,9.83-.13.93,1.73,2,1.51,2.86-3.33,11.11-11.9,15.35-13.14,19.4-.47,1.57-.53,3,1.77,3.63,4.21,1.32,5.69-4.23,7.15-9.07l.68-2.25c.78-2.58,5.07-5.54,8.15-4.58s2,5.27,3.36,5.69c.91.29,1.85-1.27,3.51-.73,2.8.87,1.61,4.8,4.78,5.78s3.52-7.9,6.41-7c.58.18,1.32.61,2,.82,4.06,1.25,3-9.22,9.33-14.44,1.08-.9,2.06-1.8,3-2.71a12.81,12.81,0,0,0-6.37,5.48,1,1,0,0,1-1,.58c-3.8-.91-6.89,3.47-8.73,2.94s-.77-6.6-2.4-7.13c-1.35-.42-4,.08-5.51-.4a1.54,1.54,0,0,1-1.1-2.09c1.37-6.11-4.85-8.14-8.79-10.44,1-2,3.13-3.65,3.74-5.75,1.45-4.82-4.77-4.26-4.27-6,.91-3.05,5.88-2.53,6.84-5.75a17.28,17.28,0,0,0,.3-3.71c15,3.48,18.7-7.64,33.32-11.69q-.8-.28-1.62-.51C211.44,53.15,196.15,71.5,195.41,73.89Z"/></g><path class="cls-3" d="M254.74,80.75c-1,10.89,3.22,4.55.42,32.12-.25,2.39-1,7.71-2.69,9.35l-.22-.12a5.24,5.24,0,0,1,.48-1.72c2.31-7.22,3.23-23.5,3-26.46s-1.8-7.67-1.23-13.21Z"/><path class="cls-3" d="M249.35,79.1c-4.49,8.59-8.06,5.56-18.76,29.53A20,20,0,0,0,229.1,113a5.22,5.22,0,0,1-.55,1.68l-.25,0c-.89-3.71,6-15.13,8.34-19.12,5-8.2,3.46-5.39,8.72-11.3A25.62,25.62,0,0,0,249.12,79Z"/><path class="cls-3" d="M255.2,78.59c1.54,3.46,2.78,3.72,3.51,6.07,2,6.26,5.9,17.52,11.31,13.75.4-.28.28-.32.45-.76l.63-1.88c1.61-4.61-4.54-6.43-5.2-12.53h.25c.71,6,6.89,7.74,5.22,12.62-.89,2.6-.61,2.7-2.12,3.28-7,2.48-10.3-13.91-12.44-16.69A8.18,8.18,0,0,1,255,78.7Z"/><path class="cls-3" d="M250.07,77.15a7.91,7.91,0,0,1-3.54,2c-2.95,1-2.69,2-8.16,5.45-4.24,2.68-10,5.14-11.79.41-.2-.6-.07-.57,0-1.07.52-1.91.6-2.66,1.35-3.69,2.51-3,7.08-1.78,10.41-5.73l.21.15c-4.53,5.35-10.8,1.62-11.78,9.8a2.75,2.75,0,0,0,.58,1.27c3.42,4.56,12-2.29,16.42-5.81,1.84-1.49,3.1-1,6.21-3Z"/><path class="cls-3" d="M271.21,92.27c11.79,4.88,18.69,12.49,20.26,15.05l-.2.17C288.21,105.22,283.82,98.46,271.21,92.27Z"/><path class="cls-3" d="M229.14,79.17c-13.89-2.06-21.11,1.06-25,1.18l-.08-.25C207.18,78.67,217.48,76.64,229.14,79.17Z"/><path class="cls-3" d="M270.71,97.2c11.62,13.64,5.34,6.64,16.44,20.61a2.17,2.17,0,0,1,.56,1.06l-.2.16a2.13,2.13,0,0,1-.88-.76C276.58,105,284,114.13,270.71,97.2Z"/><path class="cls-3" d="M226.84,83.53c-20.59,6.54-9.57,3.3-24.74,8.33a2.08,2.08,0,0,1-1.18.16l-.08-.24a2.1,2.1,0,0,1,1-.55C219.14,85.89,209.42,88.3,226.84,83.53Z"/><path class="cls-3" d="M268.21,99.38c1.34,6.5,5.29,15,7.69,26l-.91.14C273,114.45,269.34,105.93,268.21,99.38Z"/><path class="cls-3" d="M227.74,86.76c-4.67,4.95-12,9.61-20,17.81l-.68-.64C215.44,95.89,222.87,91.58,227.74,86.76Z"/><path class="cls-3" d="M265.44,98.16c.33,6.33-1.33,4.1-.43,14.4.6,6.69.37,3.47,1,14.49h-.8c-.37-11.12-.2-7.32-.81-17.16C264,104.8,265.56,103.28,265.44,98.16Z"/><path class="cls-3" d="M230.69,87.33c-2.43,3.49-2.28,4.84-4.11,8.13,0,0-6.27,8.44-11.52,15.92l-.66-.45c15-19.91,10.15-11.77,14.86-21.39A14.71,14.71,0,0,1,230.69,87.33Z"/><path class="cls-3" d="M261.38,92.41c-2.32,11.9-.83,27.38-6,34.62l-.24-.09a14.63,14.63,0,0,1,.72-3.2C260.65,107.92,257.71,106.35,261.38,92.41Z"/><path class="cls-3" d="M237.22,84.88c-4.45,13.19-8,13.66-12.55,29.15a14.57,14.57,0,0,1-1.15,3.07l-.24-.07C222.91,108.39,232.86,95.61,237.22,84.88Z"/><g id="_Group_4" data-name=" Group 4"><path class="cls-4" d="M278.89,65.3c-1-.61-1.62-.92-1.39-.75S278.08,64.86,278.89,65.3ZM239.1,52.6c.25-.08-.43-.11-1.57-.18A13.94,13.94,0,0,0,239.1,52.6ZM256.67,64q1.13-1.44,2.44-3c9.76,0,20.62-3.78,24.28-14,1.92-5.35,8.45-5.22,13.54-6.47a6.62,6.62,0,0,0-.5,1.22c-.61,2,.73,2.78,2.56,3.36,8.13,2.54-8.07.67,5.91,7.71-2.69,1.06-5.84,1.28-8.69,2.06,1.5,2.13,4.65,1.93,5.78,4.38a18.45,18.45,0,0,1-8.07-.55c-.93-.29-.77-.17-.82-.14A58,58,0,0,1,299,62.75c1.14,1,2.9,2.65,3.18,2.84,3.25,2.07-5.68.56-14-2.11a15,15,0,0,1-2.94-1.27h0S307,75.4,299.25,73c-6.14-1.91-4.84-.83-13.06-3.1-.16,0-2.41-1.48-4.59-2.85a26.86,26.86,0,0,0-2.67-1.66L281.6,67c.51.36,1.06.75,1.64,1.21.23.19,17.07,13.11,12.14,11.59-3.43-1.07-7.26-.47-10.66-1.52a9.32,9.32,0,0,1-2.53-1.26c5.23,3.81,10.07,8.49,15.49,12l-.66-.2c-8.55-2.67-16-7.08-22.23-9-3.25-1-6.6-1.78-9.85-2.77a26.81,26.81,0,0,1-10.48-5.5,26.5,26.5,0,0,1-11.71-1.42c-3.24-1-6.44-2.31-9.68-3.33-6.19-1.93-14.8-2.54-23.36-5.2l-.66-.21c6.39.19,13-.94,19.41-1.12a9.23,9.23,0,0,1-2.77-.45c-3.41-1.06-6.24-3.74-9.68-4.81-4.89-1.52,16.13-2.68,16.43-2.7.74,0,1.41-.06,2-.08l3.12.14a26.43,26.43,0,0,0-3.12-.14c-2.56-.11-5.21-.2-5.36-.25-8-2.81-6.41-3-12.54-4.87-7.74-2.39,17.51-.92,17.51-.92h0a14.86,14.86,0,0,1-3.13-.6c-8.38-2.56-16.61-6.4-12.78-6.25.32,0,2.71-.38,4.23-.57a56.9,56.9,0,0,1,7.17,0c0-.06.18-.06-.75-.36a18.72,18.72,0,0,1-7-4.13c2.33-1.43,4.82.55,7.27-.34-1.94-2.27-4.42-4.24-6.08-6.66,15.48,2.11,1-5.6,9.11-3.07,1.83.57,3.39.67,4-1.33a6.66,6.66,0,0,0,.23-1.25c3.56,4,9,7.58,7.69,13.11-2.56,10.49,4.39,19.84,12.48,25.41q.08,2,.23,3.88Z"/><path class="cls-2" d="M288.19,63.43c8.34,2.66,17.24,4.19,14,2.11-.27-.18-2-1.86-3.18-2.84a53.88,53.88,0,0,0-5.94-4.11s-.16-.18.82.14a18.45,18.45,0,0,0,8.08.55c-1.16-2.5-4.29-2.26-5.78-4.38,2.85-.78,6-1,8.69-2.06-14-7.11,2.25-5.2-5.9-7.73-1.83-.57-3.16-1.33-2.56-3.36a6.62,6.62,0,0,1,.5-1.22c-5.13,1.26-11.66,1.14-13.54,6.47-3.66,10.18-14.5,13.93-24.28,14,13.85-16,42-34.18,64.24-27.23,6.76,2.08,14,9,12.52,14-.94,3.16-9.38,7.93-12.5,18.37a49.21,49.21,0,0,0-1.06,4.83c-.94,3.11-4.45,4.72-6.39,7.67-4,6.12-4.65,14.41-18.25,10.42-5.41-3.52-10.24-8.16-15.49-12a9.32,9.32,0,0,0,2.53,1.26c3.41,1.06,7.22.45,10.66,1.52,4.89,1.52-11.91-11.42-12.14-11.59-.59-.46-5.46-3.52-6-3.88a59.45,59.45,0,0,0,9,4.68c6.27,2.75,6.76,2.08,12.89,4,7.75,2.41-14-10.78-14-10.78h0A15,15,0,0,0,288.19,63.43Z"/><path class="cls-2" d="M230.83,45.56c-8.38-2.56-16.61-6.4-12.78-6.25.32,0,2.71-.38,4.23-.57a52.89,52.89,0,0,1,7.17,0s.22-.07-.75-.36a18.72,18.72,0,0,1-7-4.16c2.33-1.43,4.82.55,7.27-.34-1.94-2.27-4.42-4.24-6.08-6.66,15.48,2.11,1-5.6,9.11-3.07,1.83.57,3.39.67,4-1.33a6.66,6.66,0,0,0,.23-1.25c3.58,4,9,7.61,7.71,13.13-2.56,10.49,4.39,19.84,12.48,25.41C253.64,38.89,240.24,7.84,218,.91c-6.76-2.08-16.55-.49-18,4.44-.94,3.16,3.44,11.92.32,22.35-.59,2-1.72,4.48-1.76,4.61-.94,3.11,1.11,6.44,1.1,10,0,7.39-4,14.59,9.44,19.07,6.39.19,13-.94,19.41-1.12a9.23,9.23,0,0,1-2.77-.45c-3.41-1.06-6.24-3.74-9.68-4.81-4.89-1.52,16.13-2.68,16.43-2.7.74,0,6.46.19,7.07.18a58.78,58.78,0,0,1-10.11-1.33c-6.7-1.28-6.76-2.08-12.89-4-7.73-2.42,17.54-1,17.54-1h0A14.86,14.86,0,0,1,230.83,45.56Z"/></g><path class="cls-3" d="M282.21,46.53c3-4.26,9.14-.43,10.27-1.73,1.72-3.92,2.09-5.25,5-6l.08.24a4.3,4.3,0,0,0-2.42,1.49c-4,6.1-.05,5.29-7.39,4.48-4.3-.56-5.34,1.69-5.34,1.69Z"/><path class="cls-3" d="M244.82,35a4,4,0,0,0-1.07-2.66c-1.39-1.64-4-2.42-5.67-3.28-2.14-1.21-.45-1.34-.43-6.41-.52-1.85-.27-1.4-1.2-2.61l.17-.18c2,2.32,1.61,3.6.89,7.87.22,1.67,7.45,2.11,7.59,7.3Z"/><path class="cls-3" d="M292.74,44.79a2.24,2.24,0,0,1,1.3.45c2.43,2.11,2.73,8.66,2.37,9.85-2.57,7.41-23.08,10.07-34.81,13.52-6.58,1.9-6.49,3.24-9.26-.76C244,56.61,228.72,44,228.58,35.76c-.18-1.81.34-2.82,2.75-5.49,1.71-1.87,3.95-3.95,6.08-2.78l-.1.22c-1.87-1.27-4.31,1.06-5.76,2.72-5.43,6.27-3,8.63,14.37,28.81q2.34,2.71,4.54,5.52c2.66,3.49,2.92,4.57,4.43,5.58h0a8.06,8.06,0,0,0,3.39-.87c13.24-5.22,34.18-7.35,37.56-13.79,1.11-1.64.43-9.07-2.16-10.5-.18-.14-.55-.11-.82-.19Z"/><path class="cls-3" d="M284.53,78.55c-.6-.3-6.52-3.24-7.13-3.49-11.91-5.39-14.13-2-23.08-3.23-1.76-.88-2.35-1-6.68-4.45-6.91-5.06-8.41-5.2-22.05-7.18l0-.07c23,1.39,18.71,5.87,28.87,11.27h0c11.06,1.29,10.4-4.71,30.13,7.12Z"/><path class="cls-3" d="M257.55,71.58c.65,0,1.08.42,1.69.6,4.49,1.65,6.6,1.77,7.4,5.44-1.66-4.92-7.82-3.78-9.25-5.79Z"/><path class="cls-3" d="M251.79,70c-2.25.84-6.82-3.62-10.84-.46,2.34-2.23,4.34-1.64,7.42-.72a26.15,26.15,0,0,0,3,.69,1.78,1.78,0,0,1,.46.21Z"/><path class="cls-3" d="M255.47,74.52c4.62,7.23,2.26,6.09,17.16,10.79,10.23,3.22,14.94,5.67,19.42,8.89l-.15.21c-4.1-3-8.73-5.57-19.37-8.8C257.37,81,258.89,82,255.25,74.69Z"/><path class="cls-3" d="M252,73.67c-6.84,3.88-5.21,4-20.31-.78-10.77-3.45-16.06-3.84-20.87-3.73v-.25c16.38-.34,29.9,8.77,36.33,6.66,2.45-1.13,3.29-1.48,4.79-2.13Z"/><path class="cls-5" d="M256.9,62.43c-.23,3.43,1.26,7.89.72,11.84,0,.09-3.82,9.55-3.82,9.55-.17.59-6.27,16.77-8.13,16.18s2.16-17.09,2.34-17.67c0,0,1.78-10.39,1.83-10.47C251.54,68.3,255.23,65.46,256.9,62.43Z"/><path class="cls-6" d="M260.25,51.33c1.11.48,1.72,3.47,1.4,4.51-.2.68-.59.83-2.25.31l-.16-.05-.39-.11-.38-.13-.16-.05c-1.65-.5-1.89-.85-1.69-1.54C256.94,53.23,259.07,51.1,260.25,51.33Z"/><path class="cls-7" d="M261.2,52.81l-.11.31a1.53,1.53,0,0,0,.35,1.72c.25.08.58.1.76-.51a1.23,1.23,0,0,0-.79-1.49Z"/><path class="cls-7" d="M258.66,52a2.62,2.62,0,0,1-.07.32c-.27.91-1,1.3-1.23,1.23s-.54-.25-.35-.85a1.2,1.2,0,0,1,1.47-.78Z"/><path class="cls-8" d="M259,55.49a4.49,4.49,0,0,1,.58.15,2.73,2.73,0,0,1,1,.5c2.06,1.76,2.29,4.33,1.57,6.86-1.1,3.66-4.49,7.05-4.61,7.17-.94.88-5.09-.24-5.32-1.71-.1-.62-1-4.94.1-8.57.76-2.54,2.45-4.45,5.13-4.69a2.7,2.7,0,0,1,1.09.11C258.61,55.34,258.77,55.42,259,55.49Z"/><path class="cls-8" d="M260.11,52.61c.61-6.22,20.22-7.86,24.55-14.65,1.12-1.8.76-2.66.44-2.5h0a.22.22,0,0,1,.24.07c.18.19.08.58,0,1-2.29,8.16-21.76,8.87-24.89,16.19Z"/><path class="cls-8" d="M259.59,51.86c.77-5.69-12.9-21.18-13.17-26,0-.4,0-.82.28-.87s.15.29.19.23S247,25,246.7,25c-2.1.47,5.55,11.37,6.7,13.1,4.61,6.89,7.06,11,6.78,13.87Z"/><g id="_Group_5" data-name=" Group 5"><path class="cls-1" d="M442.8,70c1.75.41,3.58-.7,5.45-.48a58,58,0,0,1,8.73,1.7c8.84,11.47,5.64,22.88,18.85,28.17a18.92,18.92,0,0,0-1.78,3.32c-1,3.26,3,5.54,2.06,8.64-.55,1.75-5-2.11-6.44,2.76-.66,2.14.06,4.68-.26,7-4.22-.22-10-1.92-12.28,4-.44,1.23-1.16,1.41-2,1.15-1.4-.44-3.16-2.32-4.35-2.64-1.55-.49-4.17,5.16-5.71,4.71-1.69-.53-1.69-5.93-5-7.25a.94.94,0,0,1-.39-1,13.38,13.38,0,0,0-1.87-8.14c-2.46-16.85,6.72-27.64,4.9-41.45-9.31,10.35-7.81,24.47-19.35,37a13.38,13.38,0,0,0-6.13,5.67c-.19.29-.55.71-.92.64-3.51-.82-6.55,3.67-8.25,3.15s-.5-6.6-2.05-7.1c-1.21-.38-3.73.16-5.11-.22-.81-.24-1.26-.82-1-2.05,1.48-6.16-4.27-8-7.89-10.23,1-2.06,3-3.75,3.7-5.88,1.5-4.83-4.34-4.18-3.76-5.9,1-3.11,5.6-2.68,6.59-6a18.92,18.92,0,0,0,.41-3.74c13.94,3,17.71-8.24,31.53-12.74a58,58,0,0,1,8.18,3.52C440.23,67.32,441.1,69.29,442.8,70Z"/><path class="cls-2" d="M485.56,106.06c-.93,3-4.84,1.1-5.61,3.56-.56,1.81,2.89,4.16,1.71,7.9-1.46,4.66-6.82.13-7.85,3.51-.51,1.65.08,4.73-.75,7.42-1.22,4-4.21-.56-7.56,6.64-.4.87-2.41.7-2.68,1.58-3.47,11.25.72,19.53-.58,23.71-.48,1.56-1.2,2.79-3.33,2.12-3.89-1.2-2-6.72-.51-11.62l.71-2.29c.81-2.61-.85-7.47-3.71-8.38s-4.38,3.36-5.61,3c-.84-.26-.72-2.09-2.24-2.56-2.58-.79-3.81,3.15-6.71,2.23-3.1-1,1.6-8.62-1.08-9.44-.54-.16-1.36-.2-2-.42-3.78-1.17,2.67-9.49.74-17.37a34.3,34.3,0,0,1-.79-4,13.38,13.38,0,0,1,1.87,8.14c0,.36.06.9.39,1,3.36,1.32,3.33,6.73,5,7.25s4.13-5.17,5.71-4.71c1.21.38,3,2.25,4.35,2.64.81.24,1.5,0,2-1.15,2.26-5.93,8-4.2,12.28-4,.33-2.26-.4-4.82.26-7,1.5-4.83,5.94-1,6.44-2.76,1-3.11-3.08-5.37-2.06-8.64a18.92,18.92,0,0,1,1.78-3.32c-13.22-5.3-10-16.74-18.85-28.17l1.52.44C484.64,79.64,486.29,103.62,485.56,106.06Z"/><path class="cls-2" d="M387.12,75.62c-.93,3,3.38,3.63,2.62,6.1-.56,1.81-4.75,1.78-5.87,5.57-1.46,4.66,5.55,4,4.51,7.32-.51,1.65-2.73,3.86-3.55,6.56-1.22,4,3.78,1.93,2.49,9.75-.15.93,1.59,1.93,1.32,2.81C385.16,125,377,129.44,375.78,133.56c-.48,1.56-.6,3,1.54,3.63,3.89,1.2,5.46-4.41,6.94-9.28l.7-2.29c.81-2.61,4.92-5.7,7.8-4.84s1.73,5.23,3,5.62c.84.26,1.77-1.32,3.29-.85,2.58.79,1.37,4.74,4.25,5.64,3.1,1,3.55-8,6.22-7.19.54.16,1.22.61,1.87.77,3.78,1.17,3.14-9.34,9.18-14.74a32.58,32.58,0,0,0,2.9-2.84,13.38,13.38,0,0,0-6.13,5.67c-.19.29-.55.71-.92.64-3.51-.82-6.55,3.67-8.25,3.15s-.5-6.6-2.05-7.1c-1.21-.38-3.73.16-5.11-.22-.81-.24-1.26-.82-1-2.05,1.48-6.16-4.27-8-7.89-10.23,1-2.06,3-3.75,3.7-5.88,1.5-4.83-4.34-4.18-3.76-5.9,1-3.11,5.6-2.68,6.59-6a18.92,18.92,0,0,0,.41-3.74c13.85,3.09,17.65-8.17,31.42-12.65q-.75-.25-1.55-.49C402.77,54.37,387.86,73.2,387.12,75.62Z"/></g><path class="cls-3" d="M442.25,80.84c-1.23,11,2.86,4.48-.66,32.21-.32,2.36-1.15,7.81-2.85,9.49l-.21-.11a5.82,5.82,0,0,1,.49-1.73c2.39-7.3,3.79-23.68,3.67-26.63s-1.4-7.66-.69-13.24Z"/><path class="cls-3" d="M437.26,79.38c-4.51,8.77-7.69,5.8-18.5,30.1a22.34,22.34,0,0,0-1.53,4.47,5.82,5.82,0,0,1-.58,1.71l-.23,0c-.7-3.7,6.09-15.35,8.43-19.42,5-8.33,3.36-5.53,8.55-11.6a28.07,28.07,0,0,0,3.68-5.39Z"/><path class="cls-3" d="M442.74,78.7c1.29,3.44,2.45,3.68,3.06,6,1.61,6.19,4.93,17.38,10.1,13.48.4-.28.27-.34.44-.77l.65-1.9c1.69-4.68-4-6.33-4.44-12.43h.23c.46,6,6.17,7.57,4.45,12.52-.89,2.62-.66,2.72-2.09,3.35-6.65,2.7-9.14-13.66-11.05-16.4a7.9,7.9,0,0,1-1.63-3.74Z"/><path class="cls-3" d="M438,77.39a7.89,7.89,0,0,1-3.39,2.13c-2.81,1.05-2.57,2-7.81,5.65-4.05,2.81-9.48,5.44-11,.75-.21-.57,0-.56.07-1.09.55-1.93.66-2.68,1.39-3.73,2.43-3,6.66-2,9.91-6l.19.15C423,80.7,417.23,77.14,416,85.4a2.68,2.68,0,0,0,.47,1.26c3,4.48,11.32-2.63,15.52-6.28,1.76-1.55,2.91-1.16,5.89-3.19Z"/><path class="cls-3" d="M457.26,92c10.85,4.57,17,12,18.4,14.56l-.2.14C472.68,104.49,468.81,97.83,457.26,92Z"/><path class="cls-3" d="M418.41,80c-12.9-1.69-19.74,1.65-23.36,1.88L395,81.6C397.94,80.08,407.64,77.8,418.41,80Z"/><path class="cls-3" d="M456.64,96.94c10.36,13.38,4.76,6.54,14.69,20.23a2.09,2.09,0,0,1,.5,1l-.2.14a1.85,1.85,0,0,1-.82-.81C461.83,104.64,468.46,113.54,456.64,96.94Z"/><path class="cls-3" d="M416.12,84.42c-19.41,7.12-9,3.56-23.32,9a1.85,1.85,0,0,1-1.08.18l-.09-.23a2.09,2.09,0,0,1,1-.59C408.85,87,399.73,89.69,416.12,84.42Z"/><path class="cls-3" d="M454.21,99.18c1,6.49,4.44,14.9,6.35,25.87l-.85.17C458.13,114.16,455,105.73,454.21,99.18Z"/><path class="cls-3" d="M416.87,87.64c-4.5,5.09-11.54,10-19.21,18.38l-.62-.62C405.08,97.13,412.15,92.61,416.87,87.64Z"/><path class="cls-3" d="M451.67,98c.1,6.37-1.39,4.14-.89,14.48.37,6.69.24,3.49.48,14.5l-.75,0c0-11.13,0-7.34-.17-17.2C450.15,104.74,451.6,103.18,451.67,98Z"/><path class="cls-3" d="M419.6,88.12c-2.39,3.58-2.28,4.92-4.11,8.27,0,0-6.13,8.71-11.31,16.3l-.61-.44c14.61-20.43,9.86-12.09,14.58-21.87A16.19,16.19,0,0,1,419.6,88.12Z"/><path class="cls-3" d="M448.06,92.38c-2.6,12-1.68,27.49-6.79,34.91l-.21-.08a16.25,16.25,0,0,1,.78-3.23C446.85,108,444.19,106.46,448.06,92.38Z"/><path class="cls-3" d="M425.75,85.5c-4.61,13.35-7.91,13.93-12.68,29.6a16.25,16.25,0,0,1-1.17,3.11l-.24-.06C411.62,109.49,421.34,96.37,425.75,85.5Z"/><g id="_Group_6" data-name=" Group 6"><path class="cls-4" d="M465.32,64.72c-.9-.59-1.41-.9-1.28-.72A9.83,9.83,0,0,0,465.32,64.72Zm-36.7-11.65c.23-.09-.4-.1-1.46-.14C428,53,428.43,53.09,428.62,53.07Zm16,11q1.11-1.48,2.38-3c9.14-.22,19.37-4.38,23.11-14.67,2-5.43,8.06-5.48,12.87-6.88a7.38,7.38,0,0,0-.5,1.19c-.62,2,.59,2.77,2.3,3.28,7.53,2.33-7.55.9,5.26,7.57-2.55,1.14-5.52,1.4-8.16,2.29,1.32,2.1,4.28,1.8,5.27,4.28a15.87,15.87,0,0,1-7.55-.37c-.86-.27-.71-.15-.76-.12a49.46,49.46,0,0,1,5.39,4c1,.95,2.61,2.59,2.87,2.76,3,2-5.33.72-13-1.72a12.56,12.56,0,0,1-2.73-1.21h0S491.25,74,484.1,71.8c-5.67-1.75-4.54-.71-12.09-2.76-.15,0-2.2-1.42-4.21-2.69a22.78,22.78,0,0,0-2.41-1.66l2.44,1.6c.46.34,1,.71,1.51,1.17.21.18,15.44,12.71,10.95,11.31-3.12-1-6.77-.27-9.89-1.23a7.84,7.84,0,0,1-2.33-1.14c4.75,3.68,9.14,8.27,14.05,11.62l-.61-.19c-7.89-2.44-14.74-6.66-20.46-8.41-3-.93-6.12-1.59-9.07-2.54a22.63,22.63,0,0,1-9.6-5.23,22.63,22.63,0,0,1-10.89-1.1c-3-.92-5.94-2.13-8.93-3.06-5.71-1.77-13.74-2.14-21.64-4.58l-.61-.2c6,0,12.14-1.35,18.16-1.66a7.84,7.84,0,0,1-2.57-.37c-3.11-1-5.7-3.58-8.87-4.57C402.47,54.76,422.11,53,422.43,53q1-.1,1.91-.11l2.77,0a22.78,22.78,0,0,0-2.93-.1c-2.37,0-4.89,0-5-.14-7.43-2.55-5.89-2.78-11.57-4.56C400.5,46,424,46.73,424,46.73h0a12.56,12.56,0,0,1-2.9-.53c-7.72-2.35-15.29-5.95-11.73-5.92.3,0,2.53-.46,3.93-.66a49.46,49.46,0,0,1,6.69-.22c0-.06.16-.06-.69-.34a15.87,15.87,0,0,1-6.41-4c2.19-1.53,4.45.47,6.75-.57-1.73-2.22-4-4.13-5.45-6.5,14.33,1.71,1.09-5.63,8.66-3.32,1.69.52,3.11.61,3.75-1.4a7.38,7.38,0,0,0,.25-1.26c3.18,3.88,8.19,7.36,6.76,13-2.72,10.63,3.44,19.77,10.8,25.15q.11,2,.16,3.85Z"/><path class="cls-2" d="M474.06,62.56c7.7,2.45,16,3.71,13,1.72-.25-.16-1.84-1.8-2.87-2.76a46,46,0,0,0-5.41-4s-.12-.18.76.12a15.87,15.87,0,0,0,7.55.37c-1-2.48-3.92-2.15-5.27-4.28,2.68-.86,5.62-1.16,8.16-2.29-12.8-6.68,2.31-5.24-5.26-7.57-1.69-.52-2.91-1.26-2.3-3.28a7.38,7.38,0,0,1,.5-1.19c-4.82,1.4-10.89,1.48-12.87,6.88-3.72,10.29-14,14.39-23.11,14.67,13.45-16.44,40.31-35.41,60.86-29.05C514,33.83,520.58,40.56,519,45.55c-.95,3.17-9,8.21-12.28,18.77-.62,2-1.12,4.74-1.16,4.87-1,3.12-4.32,4.82-6.22,7.87-4,6.25-4.8,14.62-17.41,11-4.94-3.37-9.29-7.93-14.05-11.62a7.84,7.84,0,0,0,2.33,1.14c3.11,1,6.7.21,9.89,1.23,4.49,1.4-10.72-11.13-10.94-11.26-.53-.45-5-3.38-5.44-3.73a50.06,50.06,0,0,0,8.32,4.36c5.75,2.58,6.22,1.94,11.89,3.67C491.13,74,471.27,61.4,471.27,61.4h0A12.56,12.56,0,0,0,474.06,62.56Z"/><path class="cls-2" d="M421.11,46.21c-7.72-2.35-15.29-5.95-11.73-5.92.3,0,2.53-.46,3.93-.66a46,46,0,0,1,6.69-.22s.21-.08-.69-.34a15.87,15.87,0,0,1-6.41-4c2.19-1.53,4.45.47,6.75-.57-1.73-2.22-4-4.13-5.45-6.5,14.33,1.71,1.09-5.63,8.66-3.32,1.69.52,3.11.61,3.75-1.4a7.38,7.38,0,0,0,.25-1.26c3.18,3.88,8.19,7.36,6.76,13-2.72,10.63,3.44,19.77,10.8,25.15-1.84-21.16-13.32-52-33.87-58.32-6.22-1.94-15.44,0-17,5-1.05,3.15,2.73,11.79-.5,22.39a49,49,0,0,1-1.8,4.67c-1,3.12.82,6.44.7,10-.24,7.42-4.26,14.76,8.15,18.89,6,0,12.14-1.35,18.16-1.66a7.84,7.84,0,0,1-2.57-.37c-3.11-1-5.7-3.58-8.87-4.57C402.32,54.71,422,53,422.25,52.95c.69-.07,6,0,6.59,0a50.06,50.06,0,0,1-9.3-1c-6.21-1.1-6.22-1.94-11.89-3.69C400.52,46,424,46.77,424,46.77h0A12.56,12.56,0,0,1,421.11,46.21Z"/></g><path class="cls-3" d="M467.73,53c3.53-3.85,8.54.64,9.84-.48,2.32-3.66,2.93-4.93,5.79-5.38v.26a4.33,4.33,0,0,0-2.51,1.22c-4.87,5.54-1,5.26-7.68,3.55-3.85-1.07-5.27,1-5.27,1Z"/><path class="cls-3" d="M434.51,35.2a4,4,0,0,0-.91-2.64c-1.23-1.58-3.67-2.32-5.18-3.14-2-1.16-.36-1.33-.19-6.41-.42-1.84-.19-1.4-1-2.58l.17-.19c1.8,2.26,1.35,3.6.59,7.85.15,1.67,6.89,1.91,6.81,7.06Z"/><path class="cls-3" d="M478.88,43.73c.41.1.66,0,1.21.38,2.19,2.05,2.26,8.62,1.89,9.82-2.65,7.5-21.87,10.74-32.94,14.49-6.2,2.08-6.2,3.39-8.62-.52-7.46-11.09-21.26-23.25-21.16-31.5-.11-1.8.44-2.87,2.73-5.55,1.67-1.94,3.81-4.07,5.76-2.94l-.11.23c-1.69-1.2-4.05,1.18-5.48,2.89-5.28,6.42-3.12,8.76,12.49,28.49,1.39,1.77,2.76,3.56,4.06,5.42,2.34,3.39,2.57,4.5,3.95,5.45h0a7.46,7.46,0,0,0,3.18-1c12.53-5.61,32.13-8.31,35.47-14.9,1.08-1.68.7-9.12-1.69-10.45-.17-.14-.51-.11-.76-.17Z"/><path class="cls-3" d="M470.13,77.86c-.54-.28-6-3.09-6.53-3.32-10.87-5.12-13.13-1.62-21.43-2.64-1.62-.84-2.18-1-6.09-4.3-6.28-4.87-7.67-5-20.33-6.58l0-.07c21.42.81,17.27,5.4,26.58,10.53h0c10.28,1,9.86-5,27.86,6.32Z"/><path class="cls-3" d="M445.19,71.59c.61,0,1,.39,1.59.54,4.13,1.51,6.12,1.58,6.77,5.24-1.35-4.91-7.15-3.55-8.49-5.54Z"/><path class="cls-3" d="M439.83,70.21c-2.13.9-6.25-3.46-10.1-.17,2.25-2.31,4.1-1.76,6.93-.93a22,22,0,0,0,2.77.65,1.5,1.5,0,0,1,.43.2Z"/><path class="cls-3" d="M443.16,74.64c4.07,7.13,1.91,6,15.7,10.33,9.45,3,13.74,5.31,17.82,8.39l-.14.21c-3.74-2.87-8-5.4-17.79-8.34-13.94-4.29-12.62-3.3-15.83-10.5Z"/><path class="cls-3" d="M439.93,73.83c-6.52,4.08-5,4.14-19-.22-9.94-3.16-14.84-3.42-19.34-3.17v-.25c15.29-.79,27.62,8,33.68,5.68,2.32-1.2,3.12-1.59,4.5-2.24Z"/><path class="cls-5" d="M444.88,62.48c-.33,3.46.92,7.88.27,11.85,0,.1-3.85,9.67-3.85,9.67-.18.6-6.44,17-8.12,16.46s2.58-17.2,2.79-17.77c0,0,2-10.47,2.05-10.56C439.65,68.48,443.19,65.54,444.88,62.48Z"/><path class="cls-6" d="M448.38,51.19c1.06.48,1.49,3.44,1.16,4.48-.21.7-.61.87-2.1.37l-.16,0-.36-.1-.36-.12-.16,0c-1.55-.49-1.77-.78-1.51-1.5C445.21,53.2,447.27,51,448.38,51.19Z"/><path class="cls-7" d="M449.22,52.66l-.11.31c-.29.93,0,1.64.27,1.71s.53.09.74-.51a1.18,1.18,0,0,0-.7-1.46Z"/><path class="cls-7" d="M446.86,51.93l-.08.32c-.29.93-1,1.33-1.19,1.27s-.49-.23-.32-.84a1.18,1.18,0,0,1,1.39-.81Z"/><path class="cls-8" d="M447.09,55.39l.54.14a2.31,2.31,0,0,1,.87.47c1.89,1.68,2,4.25,1.23,6.82a22.1,22.1,0,0,1-4.55,7.3c-.91.9-4.75-.1-4.92-1.57a21.32,21.32,0,0,1,.37-8.6c.79-2.56,2.42-4.53,4.94-4.85a2.31,2.31,0,0,1,1,.1A5.43,5.43,0,0,1,447.09,55.39Z"/><path class="cls-8" d="M448.2,52.48c.77-6.26,19.12-8.42,23.41-15.38,1.14-1.86.8-2.7.49-2.53l-.08,0,.08,0a.19.19,0,0,1,.23.06c.14.2.05.59-.06,1-2.4,8.22-20.63,9.47-23.76,16.92Z"/><path class="cls-8" d="M447.74,51.74c.91-5.68-11.34-20.91-11.43-25.77,0-.39,0-.83.29-.88s.17.25.16.23.07-.22-.16-.23c-1.94.52,4.8,11.27,5.83,13,4,6.77,6.19,10.81,5.81,13.71Z"/><g id="_Group_7" data-name=" Group 7"><path class="cls-1" d="M627.65,68.18c1.37.4,3-.71,4.48-.51a36.74,36.74,0,0,1,6.87,1.6c5.84,11.1,1.81,22.3,11.91,27.38a23.41,23.41,0,0,0-1.84,3.25c-1.21,3.18,1.8,5.38.64,8.41-.66,1.71-3.78-2-5.59,2.75-.8,2.09-.52,4.56-1,6.79-3.4-.18-7.89-1.8-10.45,4-.51,1.17-1.09,1.42-1.73,1.14-1.1-.43-2.28-2.24-3.22-2.6-1.21-.45-4,5.07-5.17,4.63s-.65-5.79-3.21-7c-.29-.14-.23-.68-.2-1a14.46,14.46,0,0,0-.55-7.92c0-16.42,8.85-27.05,9-40.48-8.81,10.17-9.29,23.94-20.16,36.24a14.46,14.46,0,0,0-5.66,5.58c-.19.29-.54.7-.85.6-2.75-.77-5.76,3.64-7.08,3.14s.38-6.46-.8-6.9c-.93-.35-3.09.22-4.13-.21-.62-.24-.92-.75-.54-2,1.94-6-2.51-7.81-5.17-9.93,1.07-2,2.92-3.68,3.72-5.77,1.8-4.82-3-4-2.35-5.78,1.15-3,4.85-2.68,6.06-5.87a23.41,23.41,0,0,0,.78-3.65C602.23,77,606.68,66,618.44,61.51a36.74,36.74,0,0,1,6.17,3.4C625.9,65.66,626.36,67.57,627.65,68.18Z"/><path class="cls-2" d="M658,103.1c-1.12,2.95-4.06,1.11-5,3.51-.7,1.74,1.84,4,.48,7.72-1.73,4.54-5.55.19-6.81,3.48-.59,1.66-.55,4.65-1.5,7.25-1.47,3.88-3.34-.53-7,6.55-.43.84-2,.69-2.37,1.57-4.18,11-1.77,19.07-3.31,23.1-.58,1.56-1.3,2.73-2.94,2.13-3-1.1-.83-6.53,1-11.34l.85-2.24c1-2.55.21-7.29-2-8.12s-4,3.31-4.91,2.94c-.65-.25-.32-2-1.51-2.48-2-.76-3.47,3.1-5.71,2.25s2.33-8.43.26-9.21c-.42-.15-1.05-.21-1.53-.41-2.93-1.13,3.32-9.28,2.7-16.94q-.16-2-.15-3.84a14.46,14.46,0,0,1,.55,7.92c-.07.34-.06.87.2,1,2.53,1.26,1.9,6.54,3.21,7s4-5.08,5.17-4.63c.93.35,2.12,2.17,3.22,2.6.62.24,1.24,0,1.73-1.14,2.56-5.81,7-4.18,10.45-4,.53-2.21.28-4.72,1-6.79,1.8-4.82,4.93-1,5.59-2.75,1.15-3-1.85-5.22-.64-8.41A23.41,23.41,0,0,1,651,96.59c-10.07-5.06-6.1-16.26-11.91-27.38l1.19.39C660.42,77.37,658.88,100.74,658,103.1Z"/><path class="cls-2" d="M581.81,74.15c-1.12,2.94,2.24,3.54,1.37,5.94-.7,1.74-4.07,1.81-5.46,5.48-1.73,4.54,4,3.83,2.77,7.12-.59,1.66-2.68,3.79-3.71,6.39-1.47,3.88,2.87,1.82.85,9.51-.24.91,1.05,1.88.75,2.73-4.18,11-11.33,15.41-12.86,19.48-.58,1.56-.85,2.91.82,3.53,3,1.1,5-4.33,6.79-9.13l.81-2.24c1-2.55,4.68-5.59,6.85-4.75s.76,5.1,1.72,5.46c.65.25,1.6-1.3,2.77-.86,2,.76.5,4.63,2.74,5.49s3.85-7.85,5.92-7.06c.42.15.93.56,1.43.74,2.93,1.13,3.68-9.14,9.26-14.49,1-.91,1.83-1.83,2.67-2.77a14.46,14.46,0,0,0-5.66,5.58c-.19.29-.54.7-.85.6-2.75-.77-5.76,3.64-7.08,3.14s.38-6.46-.8-6.9c-.93-.35-3.09.22-4.13-.21-.62-.24-.92-.75-.54-2,1.94-6-2.51-7.81-5.17-9.93,1.07-2,2.92-3.68,3.72-5.77,1.8-4.82-3-4-2.35-5.78,1.15-3,4.85-2.68,6.06-5.87a23.41,23.41,0,0,0,.78-3.65c10.91,3,15.35-8,27.12-12.45L617.22,61C597.06,53.28,582.7,71.82,581.81,74.15Z"/></g><path class="cls-3" d="M625.91,78.85c-2.35,10.72,1.77,4.34-4.41,31.43-.55,2.29-1.88,7.63-3.43,9.26l-.15-.11a7.33,7.33,0,0,1,.62-1.68c2.87-7.17,6-23.1,6.2-26s-.21-7.46,1-12.89Z"/><path class="cls-3" d="M622,77.43c-4.73,8.59-7,5.73-18.63,29.55a28.19,28.19,0,0,0-1.77,4.37,7.33,7.33,0,0,1-.65,1.71l-.19,0c-.15-3.6,6.8-15,9.17-19,5-8.2,3.45-5.44,8.34-11.39a33.7,33.7,0,0,0,3.63-5.27Z"/><path class="cls-3" d="M626.56,76.73c.67,3.33,1.56,3.56,1.74,5.82.58,6.06,1.9,17,6.57,13.08.37-.26.26-.32.45-.76l.75-1.87c1.93-4.58-2.47-6.16-2.08-12.08l.18-.06c-.35,5.88,4.09,7.35,2.1,12.2-1,2.55-.87,2.66-2.07,3.27-5.7,2.67-5.77-13.27-7-15.92a7.69,7.69,0,0,1-.85-3.6Z"/><path class="cls-3" d="M622.89,75.51a7.68,7.68,0,0,1-3,2.11c-2.4,1.06-2.29,1.94-7.05,5.61-3.63,2.78-8.35,5.38-9,.8-.07-.57,0-.55.18-1.05a13.71,13.71,0,0,1,1.6-3.63c2.37-2.91,5.66-2,8.77-6l.11.15c-4.21,5.38-8.46,2-10.44,10a2.67,2.67,0,0,0,.24,1.22c1.92,4.36,9.5-2.64,13.36-6.25,1.6-1.52,2.51-1.15,5.14-3.14Z"/><path class="cls-3" d="M636.73,89.54c8.25,4.38,12.34,11.61,13.16,14.07l-.2.14C647.73,101.67,645.41,95.21,636.73,89.54Z"/><path class="cls-3" d="M606.66,78.16c-10.26-1.56-16.22,1.75-19.18,2l0-.24C590,78.43,598.22,76.1,606.66,78.16Z"/><path class="cls-3" d="M635.62,94.43c6.82,13,3.08,6.35,9.47,19.62a2,2,0,0,1,.29,1l-.21.12a1.35,1.35,0,0,1-.55-.76C638.92,101.92,643.23,110.57,635.62,94.43Z"/><path class="cls-3" d="M604.27,82.51c-16.6,7.1-7.74,3.54-20,9a1.35,1.35,0,0,1-.92.19l0-.24a2,2,0,0,1,.86-.57C598.07,85.1,590.32,87.79,604.27,82.51Z"/><path class="cls-3" d="M633.38,96.65c0,6.32,1.8,14.51,2,25.2l-.71.18C634.81,111.28,633.27,103,633.38,96.65Z"/><path class="cls-3" d="M604.47,85.67c-4.3,5-10.55,9.87-17.78,18.07l-.43-.6C593.77,95,600,90.55,604.47,85.67Z"/><path class="cls-3" d="M631.46,95.53c-.68,6.19-1.63,4.06-2.45,14.11-.53,6.51-.23,3.39-1.36,14.17l-.61,0c1.36-10.87.94-7.13,1.93-16.79C629.41,102.1,630.77,100.58,631.46,95.53Z"/><path class="cls-3" d="M606.63,86.1c-2.39,3.52-2.43,4.82-4.34,8.08,0,0-6,8.51-11.15,16l-.44-.42c14.28-20,9.48-11.84,14.51-21.39A19.66,19.66,0,0,1,606.63,86.1Z"/><path class="cls-3" d="M629.22,90.06c-3.57,11.75-4.68,26.89-9.73,34.12l-.16-.08a20.46,20.46,0,0,1,1-3.21C626.37,105.28,624.37,103.84,629.22,90.06Z"/><path class="cls-3" d="M611.95,83.48c-5.35,13.07-8.08,13.64-13.87,29a20.47,20.47,0,0,1-1.33,3l-.18-.06C597.61,107,607.06,94.16,611.95,83.48Z"/><g id="_Group_8" data-name=" Group 8"><path class="cls-4" d="M646.6,62.9c-.66-.55-1.06-.88-.95-.68A10,10,0,0,0,646.6,62.9ZM618.19,51.81c.2-.07-.32-.09-1.17-.11A10,10,0,0,0,618.19,51.81Zm11.68,10.57q1.08-1.48,2.29-3a23.23,23.23,0,0,0,20.53-14.5c2.24-5.33,7.2-5.4,11.29-6.82a9.27,9.27,0,0,0-.55,1.16c-.76,2,.14,2.71,1.45,3.21,5.84,2.26-6.24.93,3.33,7.32-2.2,1.14-4.63,1.45-6.95,2.33.82,2,3.25,1.74,3.75,4.14a10.57,10.57,0,0,1-6-.29c-.67-.26-.55-.14-.6-.1a33.83,33.83,0,0,1,3.91,3.82l2,2.7c2.16,1.91-4.41.72-10.36-1.58a8,8,0,0,1-2-1.12h0s14.64,12.17,9.06,10.08c-4.39-1.69-3.56-.68-9.48-2.61-.12,0-1.62-1.36-3.07-2.63A15.22,15.22,0,0,0,646.57,63c.5.41,1.14,1,1.77,1.51.32.33.7.73,1.07,1.13.14.19,11,12.27,7.52,10.94-2.42-.94-5.45-.22-7.88-1.13a5,5,0,0,1-1.76-1c3.41,3.56,6.4,8,10,11.27l-.47-.18c-6.12-2.32-11.15-6.38-15.57-8.07-2.32-.89-4.78-1.48-7.13-2.38A14.78,14.78,0,0,1,627,69.9a14.78,14.78,0,0,1-8.7-1c-2.32-.88-4.57-2-6.89-3-4.43-1.68-10.9-2-17-4.31l-.47-.19c4.89-.07,10-1.37,14.93-1.77a5,5,0,0,1-2-.37c-2.42-.92-4.2-3.45-6.64-4.38-3.49-1.33,12.64-3.19,12.91-3.17.57-.06,1.09-.12,1.54-.15l2.35,0a15.23,15.23,0,0,0-2.35,0c-1.93,0-3.93,0-4-.07-5.7-2.49-4.43-2.73-8.84-4.34-5.56-2.14,13.46-1.53,13.46-1.53h0a8,8,0,0,1-2.41-.49c-6-2.2-11.69-5.69-8.8-5.69.24,0,2.13-.47,3.23-.65a33.83,33.83,0,0,1,5.47-.26s.14,0-.52-.33a10.57,10.57,0,0,1-4.71-3.81c2-1.44,3.59.38,5.56-.6-1.12-2.15-2.74-4-3.64-6.32,11.46,1.58,1.56-5.49,7.39-3.28,1.31.5,2.45.56,3.21-1.44a9.27,9.27,0,0,0,.35-1.22c2.12,3.76,5.75,7.12,3.92,12.59A23.23,23.23,0,0,0,630,58.62q-.05,1.85-.22,3.7Z"/><path class="cls-2" d="M653.92,60.75c5.95,2.32,12.52,3.5,10.36,1.58-.18-.16-1.26-1.75-2-2.7a31.45,31.45,0,0,0-3.91-3.82s-.11-.15.6.1a10.57,10.57,0,0,0,6.05.28c-.51-2.41-2.93-2.1-3.75-4.14,2.27-.86,4.71-1.17,6.95-2.33-9.54-6.43,2.49-5.15-3.33-7.32-1.31-.5-2.21-1.2-1.45-3.21A9.27,9.27,0,0,1,664,38c-4.09,1.37-9,1.49-11.29,6.82a23.23,23.23,0,0,1-20.53,14.5C645.05,43.24,669.15,24.54,685,30.6c4.84,1.84,9.31,8.37,7.46,13.26-1.19,3.12-8.31,8.07-12.24,18.41A45.29,45.29,0,0,0,678.75,67c-1.17,3.08-4.08,4.78-6,7.73-4,6.15-5.74,14.31-15.44,10.84-3.6-3.27-6.58-7.67-10-11.27A5,5,0,0,0,649,75.4c2.42.92,5.42.19,7.88,1.13,3.49,1.33-7.37-10.77-7.52-10.94-.38-.43-3.61-3.28-4-3.6a32.39,32.39,0,0,0,6.23,4.24c4.36,2.48,4.83,1.83,9.22,3.49,5.59,2.13-9.06-10.09-9.06-10.09h0A8,8,0,0,0,653.92,60.75Z"/><path class="cls-2" d="M612.9,45.21c-6-2.2-11.69-5.69-8.8-5.69.24,0,2.13-.47,3.23-.65a31.45,31.45,0,0,1,5.47-.26s.18-.06-.52-.33a10.57,10.57,0,0,1-4.71-3.81c2-1.44,3.59.38,5.56-.6-1.12-2.15-2.74-4-3.64-6.32,11.46,1.58,1.56-5.49,7.39-3.28,1.31.5,2.45.56,3.21-1.44a9.27,9.27,0,0,0,.35-1.22c2.12,3.76,5.75,7.12,3.92,12.59a23.23,23.23,0,0,0,5.72,24.45C631.18,38,625.52,8,609.65,2c-4.84-1.84-12.52.08-14.37,5-1.19,3.12.84,11.56-3.07,21.89-.74,2-2,4.45-2,4.57-1.17,3.08-.13,6.27-.65,9.76-1.09,7.23-5.24,14.42,4.36,18.37,4.89-.07,10-1.37,14.93-1.77a5,5,0,0,1-2-.37c-2.42-.92-4.2-3.45-6.64-4.38-3.49-1.33,12.64-3.19,12.91-3.17.57-.06,4.9,0,5.35-.06a32.39,32.39,0,0,1-7.44-1c-4.92-1-4.84-1.84-9.2-3.5-5.56-2.14,13.46-1.53,13.46-1.53h0A8,8,0,0,1,612.9,45.21Z"/></g><path class="cls-3" d="M651.83,44.39c2.87-4.27,7-.73,8.06-2,1.89-3.8,2.39-5.22,4.73-6.07v.25A4.31,4.31,0,0,0,662.55,38c-4,6.12-.82,5.23-6.27,4.63A4.08,4.08,0,0,0,652,44.55Z"/><path class="cls-3" d="M625.14,34.36a4.22,4.22,0,0,0-.43-2.57c-.81-1.53-2.7-2.26-3.82-3-1.43-1.12-.14-1.29.62-6.25-.08-1.82,0-1.37-.52-2.53l.16-.19c1.19,2.2.69,3.48-.49,7.68-.07,1.62,5.36,1.81,4.68,6.87Z"/><path class="cls-3" d="M660.12,42.35c.32.1.55,0,.92.36,1.53,2,.79,8.39.33,9.57-3,7.35-19.05,10.62-28.47,14.44-5.29,2.07-5.41,3.37-6.93-.44-4.66-10.74-14.44-22.52-13.36-30.59.14-1.76.67-2.77,2.87-5.46,1.58-1.9,3.61-4,5-2.92l-.11.23c-1.23-1.16-3.44,1.16-4.79,2.86-5.07,6.29-3.54,8.52,6.66,27.72.91,1.72,1.82,3.45,2.6,5.29,1.51,3.32,1.54,4.38,2.58,5.27h0a6,6,0,0,0,2.7-1C641,62.2,657.25,59.37,660.77,53c1.08-1.65,1.66-8.9-.11-10.19-.1-.15-.4-.1-.6-.16Z"/><path class="cls-3" d="M648.88,75.7c-.41-.27-4.47-2.94-4.9-3.19-8.23-4.91-10.45-1.48-17.07-2.38-1.2-.81-1.65-1-4.42-4.14-4.5-4.7-5.62-4.81-15.69-6.33l0-.08c17.31.61,13.33,5.14,20.24,10h0c8.22.89,8.6-5,21.85,6Z"/><path class="cls-3" d="M629.41,69.79c.49,0,.76.37,1.23.52,3.16,1.42,4.78,1.48,4.86,5.06-.55-4.77-5.38-3.47-6.2-5.39Z"/><path class="cls-3" d="M625.26,68.47c-1.81.88-4.65-3.32-8.17-.09,2.07-2.25,3.55-1.76,5.74-1A13.87,13.87,0,0,0,625,68a1,1,0,0,1,.33.2Z"/><path class="cls-3" d="M627.39,72.77c2.42,6.89.82,5.89,11.46,10,7.28,2.83,10.54,5.07,13.45,8l-.15.21c-2.68-2.76-5.82-5.18-13.41-8-10.86-4.06-9.84-3.12-11.55-10.16Z"/><path class="cls-3" d="M624.89,72c-5.73,4-4.55,4.08-15.38-.11-7.69-3-11.63-3.23-15.32-2.94l0-.25c12.49-.87,21.44,7.57,26.63,5.31,2-1.19,2.73-1.57,4-2.24Z"/><path class="cls-5" d="M630.27,60.89c-.68,3.39-.2,7.68-1.2,11.56,0,.09-4.33,9.48-4.33,9.48-.22.58-7.24,16.63-8.6,16.11s4.18-16.81,4.4-17.4c0,0,2.89-10.23,2.95-10.32C625.31,66.77,628.54,63.87,630.27,60.89Z"/><path class="cls-6" d="M634.48,49.89c.78.43.79,3.34.41,4.37-.26.68-.61.86-1.76.39l-.12,0-.28-.1-.28-.11-.12,0c-1.2-.44-1.31-.77-1.06-1.46C631.65,51.83,633.59,49.67,634.48,49.89Z"/><path class="cls-7" d="M635,51.26l-.13.31c-.35.91-.17,1.61,0,1.69s.43.09.68-.49a1.08,1.08,0,0,0-.39-1.42Z"/><path class="cls-7" d="M633.14,50.59l-.06.32c-.35.91-.94,1.31-1.12,1.24s-.37-.22-.14-.83a1.1,1.1,0,0,1,1.24-.8Z"/><path class="cls-8" d="M632.9,54l.42.12a1.51,1.51,0,0,1,.64.46c1.35,1.66,1.12,4.13.19,6.65a26.69,26.69,0,0,1-4.57,7.18c-.85.89-3.84-.06-3.81-1.51a25.75,25.75,0,0,1,1.34-8.38c1-2.5,2.53-4.45,4.59-4.77a1.51,1.51,0,0,1,.79.08A3.4,3.4,0,0,1,632.9,54Z"/><path class="cls-8" d="M634.19,51.09C635.58,45,650.76,42.79,655,35.9c1.15-1.82,1-2.64.68-2.46l-.09,0,.09,0a.12.12,0,0,1,.17,0h0c.12.17,0,.56-.17,1-2.95,8-17.87,9.42-21.35,16.66Z"/><path class="cls-8" d="M633.88,50.41c1.43-5.61-6.67-20.31-6.16-25.06,0-.38.13-.8.34-.86s.09.26.14.2.09-.21-.14-.2c-1.67.56,2.53,11,3.19,12.64,2.49,6.6,3.75,10.55,3.07,13.37Z"/></svg>