<svg id="Layer_1" data-name="Layer 1" xmlns="http://www.w3.org/2000/svg" viewBox="0 0 197.11 218.4"><defs><style>.cls-1{fill:#342c29;}.cls-2{fill:#4e423e;}.cls-3{fill:#8b756d;}.cls-4{fill:#685852;}.cls-5{fill:#8e423e;}.cls-6{fill:#ff756d;}.cls-7{fill:#e86767;}.cls-8{fill:#04173c;}.cls-9{fill:#2b90f3;}.cls-10{fill:#98e2ea;}.cls-11{fill:#97dadd;}.cls-12{fill:#b77748;}.cls-13{fill:#895936;}.cls-14{fill:#1c1308;}.cls-15{fill:#060608;}.cls-16{fill:#206eb6;}.cls-17{fill:#515657;}.cls-18{fill:#292b2c;}.cls-19{fill:#151616;}.cls-20{fill:#72aab0;}.cls-21{fill:#0b1314;}.cls-22{fill:#395558;}.cls-23{fill:#3d4141;}.cls-24{fill:#212325;}.cls-25{fill:#293133;}.cls-26{fill:#1f2526;}</style></defs><title>cassowary-right</title><path class="cls-1" d="M102.55,206.34c-1.31,1-1.7,1.83-4.72,1.85s-6.26.5-7.42,1.82A10.18,10.18,0,0,0,89,211.9c-.44.66.38.35,1.12-.2a6.83,6.83,0,0,1,1.78-.25,44.23,44.23,0,0,1,5-.19c2.43,0,7.66,1.21,7.88,0S103.61,205.55,102.55,206.34Z"/><path class="cls-2" d="M117,127.61c2.44,1.85,0,8.21,1.81,12.07s3.07,6.26,2.51,10.12-4.91,21.27-4.51,27-.91,20.92,0,24.3.84,5.79-1,7.82c-1.2,1.31-1.67,3.55-3.24,3.75-2.28.29-4,1-5.62,1.18-3,.3-8.8-2.61-11.41-1.56s-6.2.85-7.59,1.53-.81-.6-.09-1.42,3.68-3.14,5.8-3.56,5.8.3,8.68-2.31,3.13-2.41,3.72-5.38,2.13-15.35,1.8-19.69,1.66-15.64,1.23-18.21-5-9.41-5.78-13.28-4.1-8-8-10.13S113.36,124.83,117,127.61Z"/><path d="M126,129.51c-4.6,1.08-5.9,4.12-6.78,7s2.67,14-2.55,12.47c-2.88-.86-4.56.93-6.84,2.34-1.58,1-4.45,1.47-5,2.56s-3.91-3.88-5.68-6.14a37.71,37.71,0,0,1-5-9.13c-1.56-4.41-3.42-8.24-6.24-10.17-3-2.08-1.58-10.81,9.47-11S128.65,128.88,126,129.51Z"/><path class="cls-2" d="M104.69,210.23c-3.15,0-6.26.5-7.42,1.82a10.27,10.27,0,0,0-1.43,1.89c-.45.66.38.35,1.12-.2a6.89,6.89,0,0,1,1.79-.25,20.3,20.3,0,0,1,5.16,0C106.29,213.85,107.71,210.21,104.69,210.23Z"/><path class="cls-3" d="M31.24,18.45c.48-.8,1.43-2.09.35-3.72s-3-6.36-5.27-7.62-1.76-2.28-2.86-3.69S19.1-.86,17.5.25s-6.36,5.87-7,9.55a32.33,32.33,0,0,0,0,9.87c.34,1.23-.22.88-1.4,1.21s-3.84.8-4.31,1.8,5.38,1.69,7.12,1S25.58,22.87,28,21.25,30.76,19.26,31.24,18.45Z"/><path class="cls-2" d="M4.8,22.68c.47-1,3.14-1.47,4.31-1.8s1.73,0,1.4-1.21a32.33,32.33,0,0,1,0-9.87c.64-3.68,5.39-8.44,7-9.55l.17-.1c-1.31,1.33-4.36,5.27-5.2,8.39-1,3.55-.13,6.24-.52,7.73-.56,2.13.15,6.74,3.32,7a18.93,18.93,0,0,0-3.35.47C10.18,24.36,4.33,23.67,4.8,22.68Z"/><path class="cls-4" d="M19,1.3c1.23.66,4,2.48,4.07,3.8a5.88,5.88,0,0,0,3.25,4.24c1.66.55,5,7,3.94,6.71-2.12-.59-7.44-1.12-10.77.13-1.56.59-3.89,1.43-4.17.26-.37-1.52-1.3-3.9-1-6.49C14.59,6.74,17.26.36,19,1.3Z"/><path class="cls-2" d="M4.8,22.68A1.61,1.61,0,0,1,5.47,22a39.42,39.42,0,0,1,6.24-1,6.39,6.39,0,0,0,2.65-.4c.5-.29,1.9-1.76,3.31-2.72s4.15-1.14,5.72-1.14h5.13c.9,0,3.29.76,2.94,1.26l-.23.37c-.48.8-.77,1.18-3.21,2.8s-14.37,1.8-16.11,2.46S4.33,23.67,4.8,22.68Z"/><path class="cls-5" d="M27.53,70.11c.59,2.35,2.3,8.84,1.09,9.61s-3-2-3.26-4.35.12-7.76.72-8.7S27.09,68.36,27.53,70.11Z"/><path class="cls-6" d="M21.53,59.48a28.53,28.53,0,0,1,1.09,7.18c-.11,2.15-.45,5.51-.69,7.39s-.78,6.94.7,6.89,2.6-.17,3.09-3.47-1-7,.49-9.28c1.28-2-.39-3.4-1.38-5.49S21.19,58.25,21.53,59.48Z"/><path class="cls-7" d="M23.55,65c.26-1.2-1.3-2.83-.07-4.29a9.6,9.6,0,0,1,1.34,2c1,2.09,2.66,3.53,1.38,5.49-1.14,1.75-.56,4.27-.42,6.82a12.34,12.34,0,0,1-.5,3.34c-.39,1.25-2.11,2-2.54,1a10.63,10.63,0,0,1-.07-4.08c.11-1,.42-3,.56-5S23.33,66,23.55,65Z"/><path class="cls-8" d="M14.14,26.35A31.44,31.44,0,0,0,19.6,29.7c1.72.77,2,2.41,3.1,2.1s1.88-1.44.7-2.77-.82-2.09-3.09-2.63S13.16,25.57,14.14,26.35Z"/><path class="cls-9" d="M1,24.21a19.57,19.57,0,0,1,6.86-2.45c2.4-.3,4.78-.35,5.84-.46S16.07,19,18.56,18s4.31-.52,7.24-.8,4.24.33,6.44,1.61,2.35,4.37,3.86,6.87c1.31,2.19,1.11,7.69,1,9.1-.28,2.94-1.49,3.83-2.74,7.42s-.6,8,2.2,10,14,10.6,8.36,17.38S32.76,80.7,30.51,78s-5.29-12.49-7.6-15.6-2.78-10-2.13-14.3,3-12.46,2.46-14.39c-.54-1.69-2-4.73-3.31-5.79-1.58-1.24-4.28-1-5.88-1.35A34.24,34.24,0,0,0,7,26c-2.08.05-5.44.3-5.93.22-.27,0-.46-.27-.7-.23S0,26.17,0,25.82A2.37,2.37,0,0,1,1,24.21Z"/><path class="cls-10" d="M2.83,26.23a9.57,9.57,0,0,1-1-2.47,20.83,20.83,0,0,1,6.11-2c2.4-.3,4.78-.35,5.84-.46S16.07,19,18.56,18s4.31-.52,7.24-.8,4.24.33,6.44,1.61,2.35,4.37,3.86,6.87c1.31,2.19,1.11,7.69,1,9.1l0,.14c-.32-4.56-3-7.84-5.82-7.21a9.72,9.72,0,0,1-6.58-1.12c-1-.61-.86-2.26-2.6-2-1.37.24-6.54-.16-10.48,1.61A43.06,43.06,0,0,0,7,26C5.79,26.08,4.1,26.18,2.83,26.23Z"/><path class="cls-11" d="M18.6,22.65A8,8,0,0,0,20,21.28c.63-.77.88-1.39,1.86-1.19s1.82,1.51,3.26,1.63,1.69.81,1,1.52S23,24.41,21.93,24.41s-2.89,0-3.66-.47S18.28,22.91,18.6,22.65Z"/><path class="cls-11" d="M13.74,21.31C14.81,21.2,16.07,19,18.56,18s4.31-.52,7.24-.8,4.24.33,6.44,1.61c1.72,1,2.19,3.1,3,5.17-.21-.53-.57-1.13-.71-1.45A9.78,9.78,0,0,0,30,18.3c-1.85-.69-4,.11-4.84.22s-.91-.5-2.43-.58-4.45.61-5.47,1.54-1.6,1.13-2.27,2.18c-.15.24-1.29.29-1.81.59-.29.16-.88-.29-1.23-.83C12.73,21.38,13.33,21.34,13.74,21.31Z"/><path class="cls-9" d="M19.35,22.8a1.82,1.82,0,0,0,.62-.64,2,2,0,0,1,1.19-1.11,1.79,1.79,0,0,1,1.83.59c.31.52.63,1.09.17,1.68s-.66,1-1.57.93-1.5-1.12-1.77-1S19.16,23,19.35,22.8Z"/><path class="cls-12" d="M20.32,22.24a1.32,1.32,0,0,0,1,1.61A1.31,1.31,0,1,0,22,21.32,1.32,1.32,0,0,0,20.32,22.24Z"/><path class="cls-13" d="M23,22.51c-.28.56-2,.69-2.62-.4A1.33,1.33,0,0,1,22,21.32,1.37,1.37,0,0,1,23,22.51Z"/><path class="cls-14" d="M20.53,21.75a1.38,1.38,0,0,1,.91-.56,1.46,1.46,0,0,1,.55,0,1.45,1.45,0,0,1,.87.66A1.37,1.37,0,0,1,23,23a1.27,1.27,0,0,1-.25.49,1.45,1.45,0,0,1-.42.34,1.54,1.54,0,0,1-1.07.15,1.36,1.36,0,0,1-.5-.24,1.27,1.27,0,0,1-.35-.42,1.43,1.43,0,0,1-.11-1A1.54,1.54,0,0,1,20.53,21.75Zm0,1.46a1.34,1.34,0,0,0,.78.55,1.36,1.36,0,0,0,1-.1,1.12,1.12,0,0,0,.59-.75,1.24,1.24,0,0,0-.16-.94,1.28,1.28,0,0,0-.76-.56,1.38,1.38,0,0,0-.48,0,1.49,1.49,0,0,0-.47.12,1.13,1.13,0,0,0-.64.75A1.23,1.23,0,0,0,20.55,23.22Z"/><path class="cls-15" d="M21,22.44a.54.54,0,0,0,.39.65.48.48,0,0,0,.58-.41.5.5,0,0,0-1-.24Z"/><path class="cls-11" d="M13.28,22.22c-.23.16-.49.58.18,1a12.86,12.86,0,0,0,3.35,1.15,16,16,0,0,1-4.45-.52c-.9-.49-1.51-.23-1-1S13.52,22.06,13.28,22.22Z"/><path class="cls-16" d="M13.92,26.54c.14-.74,1.38-1.38,2.32-1.4.66,0,1.23.19,1.89.23s.87.74,1.17,1c.51.53.18.85,1.14,2a4.07,4.07,0,0,0-.51-.48c-1.58-1.24-4.28-1-5.88-1.35Z"/><path class="cls-17" d="M0,25.82a2.37,2.37,0,0,1,1-1.6,19.57,19.57,0,0,1,6.86-2.45c1.92-.24,3.82-.32,5-.4.4.14.1.34.35.59s-.45.27-.8.79,0,.74,1,1a31.88,31.88,0,0,0,5.62.87c1.5,0,3.64.23,3.64.6s-.79.36-1.25.36-5.41-.48-6.23-.2c-.63.21-.22,1.07-1,1.22l-.19,0A34.24,34.24,0,0,0,7,26c-2.08.05-5.44.3-5.93.22-.27,0-.46-.27-.7-.23S0,26.17,0,25.82Z"/><path class="cls-18" d="M2.15,25.74c.81-.2,2.61-.45,3.5-.75a8.65,8.65,0,0,1,2.74-.5A30.22,30.22,0,0,1,14.1,25a13.6,13.6,0,0,0,2.14.36,3.73,3.73,0,0,0-.94.09c-.63.21-.22,1.07-1,1.22l-.19,0A34.24,34.24,0,0,0,7,26c-2.08.05-5.44.3-5.93.22a1.6,1.6,0,0,1-.41-.17S1.62,25.87,2.15,25.74Z"/><path class="cls-19" d="M.68,26.08c.05,0,.11,0,.16-.05.33-.11.67-.19,1-.27l1.35-.31c.9-.2,1.79-.42,2.69-.65a21,21,0,0,1,2.76-.41c.92-.08,1.85-.13,2.78-.12l.7,0c.23,0,.47,0,.69.07.46.06.92.11,1.38.15.92.09,1.84.17,2.76.24,1.84.15,3.68.31,5.52.54h0v0c-.93,0-1.85-.08-2.77-.14s-1.85-.12-2.77-.21-1.84-.22-2.75-.33c-.46-.06-.92-.11-1.38-.15-.23,0-.46,0-.69,0h-.69c-.92,0-1.84.09-2.76.18A24.37,24.37,0,0,0,6,25c-.45.1-.9.22-1.35.31l-1.36.27-1.36.25-1,.2s-.11.06-.15,0Z"/><path class="cls-16" d="M29.76,29.84c1.22-.81-1.7,1.8-3.33,4.68-.8,1.41-.46,2.74-.77,4.06-.94,4-2.35,5.84-2.67,8.54s-1.14,3.52-1.06,2.12,1.14-7.48,1.47-9.43a11.1,11.1,0,0,0-.22-3.71,7.32,7.32,0,0,0,.08-2.4,18.1,18.1,0,0,0-2.58-5C23.14,31.52,23,30.48,25,30.93A6,6,0,0,0,29.76,29.84Z"/><path class="cls-11" d="M30.44,20.39a3.34,3.34,0,0,1,.62,1.68c0,.55.52,2.13-.31,2.67s-1.64,1.21-2.54.15-1.11-1.44-1.07-2.3-.4-1.62.2-2.2S29.9,19.76,30.44,20.39Z"/><path class="cls-20" d="M30.26,21.37a3.22,3.22,0,0,1,.33,2.77c-.5,1.1-1.71,1.35-2,.47s-.61-1.06-.44-2,1-1.6,1.3-1.57S30.14,21.11,30.26,21.37Z"/><path class="cls-21" d="M30,22.89c.25.09.29.23.18.73s-.75.91-.91.52a1.68,1.68,0,0,1-.26-.76C29.11,22.79,29.68,22.77,30,22.89Z"/><path class="cls-20" d="M30.44,21.18A1.2,1.2,0,0,0,29,21c-.53.36-.9.77-.9,1.11s-.24.66-.22.37-.19-.66.14-1.11.28-.69.8-.73,1.13,0,1.37.21S30.58,21.3,30.44,21.18Z"/><path class="cls-22" d="M30.26,23.63c0-.15.16-.46.06-.62s-.13-.23-.36-.24-.44-.09-.27-.11a.87.87,0,0,1,.56.07c.11.1.19.07.19.41S30.23,23.81,30.26,23.63Z"/><path class="cls-23" d="M3.88,24a1.51,1.51,0,0,1,.53-.8c.29-.15.51-.47,1-.44a1.7,1.7,0,0,1,1.08.33c.17.21.22.82-.23.92a3.44,3.44,0,0,1-1.5.21C4.29,24.06,3.82,24.12,3.88,24Z"/><path class="cls-24" d="M4.4,23.18c.29-.15.51-.47,1-.44a1.7,1.7,0,0,1,1.08.33c.17.21.22.82-.23.92l-.12,0c-.13,0-.42-.18-.83-.29S3.88,24,4,23.78A1.19,1.19,0,0,1,4.4,23.18Z"/><path class="cls-24" d="M6.65,23.57c0-.14.06-.46-.09-.55A1.13,1.13,0,0,0,6,22.73a2.34,2.34,0,0,0-.9,0c-.26.09-.14,0-.08,0s.38,0,.51-.07a.9.9,0,0,1,.39,0,2.75,2.75,0,0,0,.44.1.42.42,0,0,1,.31.21,1,1,0,0,1,.1.45C6.71,23.5,6.64,23.65,6.65,23.57Z"/><path class="cls-23" d="M5.4,24.28a2.08,2.08,0,0,1-.63,0,3.32,3.32,0,0,0-.59-.12c-.19,0-.32.08-.15.07a.85.85,0,0,1,.4.08,1.41,1.41,0,0,0,.44,0C5.06,24.33,5.68,24.27,5.4,24.28Z"/><path class="cls-9" d="M31.67,25a2.2,2.2,0,0,0,.27,1.69c.39.39.2.77,1.06,1.1,1.53.58-2,1.31-3.5,1.08-2.4-.37-4.42-1.92-3.35-1.62.8.22,1.4.27,1.15-.64s-1.53-1.71-.71-1.6,2,.7,2.95.76C31.3,25.87,31.83,24.53,31.67,25Z"/><path class="cls-11" d="M36.1,25.64A5.47,5.47,0,0,1,36.63,27a.76.76,0,0,1-.35.86c-.62.47-.63.25-.48-.68a6.74,6.74,0,0,0-.47-3.08A11.8,11.8,0,0,0,36.1,25.64Z"/><path class="cls-16" d="M22.91,62.39a12.28,12.28,0,0,1-1.85-4.72c1.11,3,4.14-4.17,5.18-6.46,1.44-3.16,3.94-.15,4.93,1.65S33,55.62,33.31,54s5,1.87,5,1.87S40.6,59,43.12,63.19,39.48,72,33.33,72.67c-2.42.24-4.85-1.17-6.95-3.15A41.21,41.21,0,0,0,22.91,62.39Z"/><path class="cls-6" d="M32.43,42.71c1-2.14,2.76-6,3.1-7.25a12.7,12.7,0,0,0,.8-3c.11-1.35.12-2.88.17-3.59,0-.49.4-.6.47-.1a31.64,31.64,0,0,1,.1,5.95c-.28,2.94-1.49,3.83-2.74,7.42s-.6,8,2.2,10c2,1.46,8.48,6.4,9.71,11.59-4.11-1.65-11.48-9.79-13.35-11.66C30.79,49.95,31.48,44.85,32.43,42.71Z"/><path class="cls-7" d="M33,47.09c.06-.52.54-2,1-3.84-.78,3.34,0,7.07,2.52,8.88a40.48,40.48,0,0,1,5.1,4.34,2.59,2.59,0,0,1-.38.51c-.37.26-4.58-3.32-6.53-5.16A4.92,4.92,0,0,1,33,47.09Z"/><path class="cls-25" d="M35.7,66.11c-1.6-1.7-5-2.66-5-5.24s-.15-9.26-1.69-8.08-4.44,5-4.44,7.91c0,3.21.19,5,2.07,10.65.51,1.54,4.34,5.35,6.72,9.59,3.58,6.39,8.84,13.52,11.42,19.4,2.39,5.44,14.44,14.11,22.39,18.52s25.74,14.89,41.32,14.23,39.77,0,49.05,6,18.2,8.92,19.23,11.71,1.77,4.41,4,3.82,3.54-.05,4.86.12,2.65-.41,4.27-2.33,4.13-2.94,4.86-2.06,1.47-5.14,1-11.32-1.21-15,.13-14.7,2.08-4-.87-7.94-1.91-5-2.21-7.94-4-7.94-7.37-10.14-1-3.68-3.39-5.58-3.39-9-9.87-12.49-31.82-18.37-40.66-20.58S97.08,54.26,83.4,53.45s-32.37.33-35,.33-9.2-.35-9.38.25c0,0,.07.08.11.12.54.63-2,1.57-3,1.53s-.68,2.48-.24,3.69a26.94,26.94,0,0,1,1.45,5.76C37.28,66.94,36.35,66.79,35.7,66.11Z"/><path class="cls-26" d="M141.15,106.8c-3.54-4.56-7.51-10.73-3.39-11.9s9.28-.44,8.54-3.23,7.81-1.76,10.31-.88,8.69-1.18,8.54-2.79-1.33-3.82,2.5-4.56,5.6,2.21,3.68-1.62c-.62-1.24-2.56-3-4.88-4.84,2.47,1.39,4.49,2.53,5.76,3.22,6.48,3.53,7.51,10.58,9.87,12.49s0,3.38,3.39,5.58,7.07,7.2,7.37,10.14-.74,4,2.21,7.94,2.21,8.23.87,7.94-.58,8.52-.13,14.7-.29,12.2-1,11.32-3.24.15-4.86,2.06-2.95,2.5-4.27,2.33-2.65-.71-4.86-.12-2.95-1-4-3.82-10-5.76-19.23-11.71a25.76,25.76,0,0,0-6.53-2.78c-.5-2.28-2-4.72-3.7-8.58C144.53,121.35,144.68,111.36,141.15,106.8Z"/><path class="cls-26" d="M104.61,80.93c-2.06,4.26-3.09,2.79-7.07,11.61s-8.84,12.93-8.84,18.81,1.18,15.44,1.55,18.52h0c-9.54-3.3-18.16-8.31-23.06-11-8-4.41-20-13.08-22.39-18.52a79.45,79.45,0,0,0-5.46-9.72A21.38,21.38,0,0,0,43,85.34c1.62-3.82,2.21-5,6.19-2.94s8.1-2.5,14.44,1.76,9,5.07,13,3.35,8.1,1.65,10,2.53,20-13.37,18-9.11"/><path class="cls-26" d="M75.89,53.19c2.59,0,5.13.12,7.51.26,13.68.81,39.33,4,48.17,6.17s34.18,17,40.66,20.58a14.23,14.23,0,0,1,3.65,2.85c-.35,5.15-2.31,8.17-4.09,4.94-4-7.2-16.65-10.43-19.3-14.83s-16.65-5.6-19-8S118.61,62.56,113,59.14C109.47,57,89.84,54.63,75.89,53.19Z"/><path class="cls-26" d="M26.67,71.34a41.61,41.61,0,0,1-1.85-6.9c1.6,6.15,4.6,7.17,6.7,8.72,3.21,2.37,9.2,16.15,10.74,13.66C43,85.58,43.33,94,43,96.67c-2.78-5-6.71-10.63-9.58-15.74C31,76.7,27.18,72.88,26.67,71.34Z"/><path class="cls-26" d="M89.2,120.14c.91,5,9.38,4,15.58,6.65s17.66,2.42,27.83,3.09,14.18-1.44,13.63-5.33c-.51-3.64,13.09,8.76,12.11,15l-.78-.5c-9.28-6-33.48-6.61-49.05-6-13.15.56-27.86-6.82-36.92-11.78C75,118.79,88.9,118.51,89.2,120.14Z"/><path class="cls-4" d="M115.87,210.67c-1.31,1-1.57,1.59-4.59,1.61s-6.26.5-7.42,1.82a10.25,10.25,0,0,0-1.43,1.89c-.45.66.38.35,1.12-.2a6.9,6.9,0,0,1,1.78-.25,44.21,44.21,0,0,1,5-.19c2.43,0,7.66,1.21,7.88,0S116.93,209.87,115.87,210.67Z"/><path class="cls-3" d="M130.53,131.79c2.44,1.85,0,8.21,1.81,12.07s3.07,6.26,2.51,10.12-4.91,21.27-4.51,27-.91,20.92,0,24.3.84,5.79-1,7.82c-1.2,1.31-1.67,3.55-3.24,3.75-2.28.29-4,1-5.62,1.18-3,.3-8.8-2.61-11.41-1.56s-6.2.85-7.59,1.53-.81-.6-.09-1.42,3.68-3.14,5.8-3.56,5.8.3,8.68-2.31,3.13-2.41,3.72-5.38,2.13-15.35,1.8-19.69,1.66-15.64,1.23-18.21-5-9.4-5.78-13.28-4.1-8-8-10.13S126.85,129,130.53,131.79Z"/><path class="cls-4" d="M126.2,214.86c1.66-2.23,3.53-6.39,2.31-9.48s.44-12.68.77-16.53-.44-11,.52-15.21,2.14-13.93,3.31-18.11,1-3.68,0-5.07-2.26-3.52-5.38-4.59c-.66-.23-.6-3.77,4.33-2.66a5.74,5.74,0,0,0,.27.66c1.85,3.85,3.07,6.26,2.51,10.12s-4.91,21.27-4.51,27-.91,20.92,0,24.3.84,5.79-1,7.82c-1.2,1.31-1.67,3.55-3.24,3.75-2.28.29-4,1-5.62,1.18a6,6,0,0,1-1.09,0C121.56,217.32,124.94,216.55,126.2,214.86Z"/><path class="cls-26" d="M138.62,133.91c-3.64-.06-6.4,4.16-5.81,7.1.33,1.65.18,6.91-2.1,8.6-1.68,1.24-10.12,6-10.83,8.16-1.78,5.51-12.23-10.58-13.8-15S99,132.28,95.47,131.47s2.8-9.68,13.85-9.83S141.39,134,138.62,133.91Z"/><path class="cls-3" d="M117.61,214.32c-3.15,0-6.26.5-7.42,1.82a10.21,10.21,0,0,0-1.43,1.89c-.45.66.38.35,1.12-.2a6.86,6.86,0,0,1,1.79-.25,33.81,33.81,0,0,1,5.76.06c2.41.32,5-.74,5.18-2S120.63,214.3,117.61,214.32Z"/><path class="cls-1" d="M65.74,206.34c-1.31,1-1.7,1.83-4.72,1.85s-6.26.5-7.42,1.82a10.18,10.18,0,0,0-1.43,1.89c-.44.66.38.35,1.12-.2a6.83,6.83,0,0,1,1.78-.25,44.23,44.23,0,0,1,5-.19c2.43,0,7.66,1.21,7.88,0S66.8,205.55,65.74,206.34Z"/><path class="cls-2" d="M80.23,127.61c2.44,1.85,0,8.21,1.81,12.07s3.07,6.26,2.51,10.12-4.91,21.27-4.51,27-.91,20.92,0,24.3.84,5.79-1,7.82c-1.2,1.31-1.67,3.55-3.24,3.75-2.28.29-4,1-5.62,1.18-3,.3-8.8-2.61-11.41-1.56s-6.2.85-7.59,1.53-.81-.6-.09-1.42,3.68-3.14,5.8-3.56,5.8.3,8.68-2.31,3.13-2.41,3.72-5.38,2.13-15.35,1.8-19.69,1.66-15.64,1.23-18.21-5-9.41-5.78-13.28-4.1-8-8-10.13S76.56,124.83,80.23,127.61Z"/><path d="M89.15,129.51c-4.6,1.08-5.9,4.12-6.78,7s2.67,14-2.55,12.47c-2.88-.86-4.56.93-6.84,2.34-1.58,1-4.45,1.47-5,2.56s-3.91-3.88-5.68-6.14a37.71,37.71,0,0,1-5-9.13c-1.56-4.41-3.42-8.24-6.24-10.17-3.36-2.3-.84-6,.33-8.69s1.34-6,3.17-8.41a2.12,2.12,0,0,1,2.09-.76c2,.74,3.59,2.27,5.6,2.92a12.3,12.3,0,0,1,1.43.47,4.06,4.06,0,0,1,1.85,1.9c.82,1.63.24,2.34,2.11,2.94s3.8.83,5.63,1.52a79.46,79.46,0,0,1,8.51,3.78,42.45,42.45,0,0,1,6,3.56C88,127.78,90.06,129.3,89.15,129.51Z"/><path class="cls-2" d="M67.88,210.23c-3.15,0-6.26.5-7.42,1.82A10.27,10.27,0,0,0,59,213.94c-.45.66.38.35,1.12-.2a6.89,6.89,0,0,1,1.79-.25,20.3,20.3,0,0,1,5.16,0C69.49,213.85,70.9,210.21,67.88,210.23Z"/><path class="cls-4" d="M79.07,210.67c-1.31,1-1.57,1.59-4.59,1.61s-6.26.5-7.42,1.82A10.25,10.25,0,0,0,65.62,216c-.45.66.38.35,1.12-.2a6.9,6.9,0,0,1,1.78-.25,44.21,44.21,0,0,1,5-.19c2.43,0,7.66,1.21,7.88,0S80.13,209.87,79.07,210.67Z"/><path class="cls-3" d="M93.73,131.79c2.44,1.85,0,8.21,1.81,12.07S98.6,150.11,98,154s-4.91,21.27-4.51,27-.91,20.92,0,24.3.84,5.79-1,7.82c-1.2,1.31-1.67,3.55-3.24,3.75-2.28.29-4,1-5.62,1.18-3,.3-8.8-2.61-11.41-1.56s-6.2.85-7.59,1.53-.81-.6-.09-1.42,3.68-3.14,5.8-3.56,5.8.3,8.68-2.31,3.13-2.41,3.72-5.38,2.13-15.35,1.8-19.69,1.66-15.64,1.23-18.21-5-9.4-5.78-13.28-4.1-8-8-10.13S90,129,93.73,131.79Z"/><path class="cls-4" d="M89.39,214.86c1.66-2.23,3.53-6.39,2.31-9.48s.44-12.68.77-16.53-.44-11,.52-15.21,2.14-13.93,3.31-18.11,1-3.68,0-5.07-2.26-3.52-5.38-4.59c-.66-.23-.6-3.77,4.33-2.66a5.74,5.74,0,0,0,.27.66c1.85,3.85,3.07,6.26,2.51,10.12s-4.91,21.27-4.51,27-.91,20.92,0,24.3.84,5.79-1,7.82c-1.2,1.31-1.67,3.55-3.24,3.75-2.28.29-4,1-5.62,1.18a6,6,0,0,1-1.09,0C84.75,217.32,88.14,216.55,89.39,214.86Z"/><path class="cls-26" d="M101.82,133.91c-3.64-.06-6.4,4.16-5.81,7.1.33,1.65.18,6.91-2.1,8.6-1.68,1.24-10.12,6-10.83,8.16-1.78,5.51-12.23-10.58-13.8-15a22,22,0,0,0-7.11-9.38c-2.7-2.1-5.86-4-4.23-8.25A9.59,9.59,0,0,1,60,122.39a18.77,18.77,0,0,0,4.44-8.84c1.59.85,1.6,3.09,2.42,4.69a1.53,1.53,0,0,0,.68.75c.43.19.76,0,1.18,0a5.14,5.14,0,0,1,1.35.35l3,.88,1.15.34,3.22,1a2.51,2.51,0,0,1,1.21.69,2,2,0,0,0,1.23.62c1.19.33,2.37.7,3.54,1.11,2.33.82,4.61,1.79,6.86,2.83a71,71,0,0,1,9.11,4.86C99.59,131.75,102.57,133.92,101.82,133.91Z"/><path class="cls-3" d="M80.8,214.32c-3.15,0-6.26.5-7.42,1.82A10.21,10.21,0,0,0,71.94,218c-.45.66.38.35,1.12-.2a6.86,6.86,0,0,1,1.79-.25,33.81,33.81,0,0,1,5.76.06c2.41.32,5-.74,5.18-2S83.82,214.3,80.8,214.32Z"/></svg>