<svg id="Layer_1" data-name="Layer 1" xmlns="http://www.w3.org/2000/svg" viewBox="0 0 102.54 113.61"><defs><style>.cls-1{fill:#342c29;}.cls-2{fill:#4e423e;}.cls-3{fill:#8b756d;}.cls-4{fill:#685852;}.cls-5{fill:#8e423e;}.cls-6{fill:#ff756d;}.cls-7{fill:#e86767;}.cls-8{fill:#04173c;}.cls-9{fill:#2b90f3;}.cls-10{fill:#98e2ea;}.cls-11{fill:#97dadd;}.cls-12{fill:#b77748;}.cls-13{fill:#895936;}.cls-14{fill:#1c1308;}.cls-15{fill:#060608;}.cls-16{fill:#206eb6;}.cls-17{fill:#515657;}.cls-18{fill:#292b2c;}.cls-19{fill:#151616;}.cls-20{fill:#72aab0;}.cls-21{fill:#0b1314;}.cls-22{fill:#395558;}.cls-23{fill:#3d4141;}.cls-24{fill:#212325;}.cls-25{fill:#293133;}.cls-26{fill:#1f2526;}</style></defs><title>cassowary</title><path class="cls-1" d="M49.19,107.34a3,3,0,0,0,2.46,1c1.64,0,3.26.26,3.86.95a5.29,5.29,0,0,1,.75,1c.23.34-.2.18-.58-.11a3.56,3.56,0,0,0-.93-.13,23,23,0,0,0-2.59-.1c-1.26,0-4,.63-4.1,0S48.64,106.93,49.19,107.34Z"/><path class="cls-2" d="M41.65,66.38c-1.27,1,0,4.27-.94,6.28s-1.6,3.26-1.31,5.27S42,89,41.75,92s.48,10.88,0,12.64-.43,3,.53,4.07c.62.68.87,1.84,1.69,1.95,1.19.15,2.06.53,2.92.62,1.57.16,4.58-1.36,5.94-.81s3.23.44,3.95.8.42-.31,0-.74a7.57,7.57,0,0,0-3-1.85c-1.1-.22-3,.16-4.51-1.2s-1.63-1.25-1.94-2.8a65.08,65.08,0,0,1-.93-10.24c.17-2.26-.86-8.14-.64-9.47s2.58-4.89,3-6.91a8.62,8.62,0,0,1,4.14-5.27C54.93,71.63,43.56,64.94,41.65,66.38Z"/><path d="M37,67.37A4.54,4.54,0,0,1,40.54,71c.46,1.49-1.39,7.3,1.33,6.49,1.5-.45,2.37.48,3.56,1.22.82.51,2.32.76,2.59,1.33s2-2,3-3.19a19.62,19.62,0,0,0,2.59-4.75c.81-2.29,1.78-4.28,3.25-5.29s.82-5.62-4.93-5.7S35.61,67,37,67.37Z"/><path class="cls-2" d="M48.08,109.36c1.64,0,3.26.26,3.86.95a5.34,5.34,0,0,1,.75,1c.23.34-.2.18-.58-.11a3.58,3.58,0,0,0-.93-.13,10.56,10.56,0,0,0-2.68,0C47.24,111.25,46.5,109.35,48.08,109.36Z"/><path class="cls-3" d="M86.29,9.6a1.62,1.62,0,0,1-.18-1.94c.56-.85,1.54-3.31,2.74-4s.91-1.19,1.49-1.92S92.6-.45,93.44.13s3.31,3.05,3.64,5a16.82,16.82,0,0,1,0,5.13c-.18.64.12.46.73.63s2,.42,2.24.93-2.8.88-3.7.54S89.23,11.9,88,11.05,86.53,10,86.29,9.6Z"/><path class="cls-2" d="M100,11.8c-.24-.52-1.63-.76-2.24-.93s-.9,0-.73-.63a16.82,16.82,0,0,0,0-5.13c-.33-1.92-2.81-4.39-3.64-5L93.34.08A12.59,12.59,0,0,1,96,4.44c.5,1.85.07,3.25.27,4,.29,1.11-.08,3.51-1.73,3.62a9.85,9.85,0,0,1,1.74.25C97.24,12.67,100.29,12.31,100,11.8Z"/><path class="cls-4" d="M92.65.67C92,1,90.59,2,90.54,2.65a3.06,3.06,0,0,1-1.69,2.21c-.86.29-2.58,3.64-2.05,3.49a11.15,11.15,0,0,1,5.6.07c.81.3,2,.74,2.17.14a9.46,9.46,0,0,0,.54-3.38C94.95,3.51,93.56.19,92.65.67Z"/><path class="cls-2" d="M100,11.8a.84.84,0,0,0-.35-.33,20.5,20.5,0,0,0-3.24-.5,3.33,3.33,0,0,1-1.38-.21c-.26-.15-1-.92-1.72-1.41a6.19,6.19,0,0,0-3-.59H87.7c-.47,0-1.71.4-1.53.66l.12.19c.25.42.4.61,1.67,1.46s7.47.94,8.38,1.28S100.29,12.31,100,11.8Z"/><path class="cls-5" d="M88.22,36.47c-.31,1.22-1.2,4.6-.56,5s1.58-1.06,1.7-2.27A14.08,14.08,0,0,0,89,34.68C88.66,34.19,88.45,35.56,88.22,36.47Z"/><path class="cls-6" d="M91.34,30.94a14.84,14.84,0,0,0-.56,3.74c.06,1.12.23,2.87.36,3.84s.41,3.61-.36,3.58S89.42,42,89.16,40.3s.53-3.62-.26-4.83c-.67-1,.2-1.77.72-2.86S91.51,30.3,91.34,30.94Z"/><path class="cls-7" d="M90.29,33.81c-.13-.62.68-1.47,0-2.23a5,5,0,0,0-.7,1c-.52,1.09-1.39,1.84-.72,2.86s.29,2.22.22,3.55a6.42,6.42,0,0,0,.26,1.74c.21.65,1.1,1,1.32.53a5.53,5.53,0,0,0,0-2.12c-.06-.54-.22-1.57-.29-2.63S90.4,34.35,90.29,33.81Z"/><path class="cls-8" d="M95.18,13.71a16.36,16.36,0,0,1-2.84,1.75c-.89.4-1,1.25-1.61,1.09a.81.81,0,0,1-.36-1.44c.62-.69.42-1.09,1.61-1.37S95.69,13.3,95.18,13.71Z"/><path class="cls-9" d="M102,12.6a10.18,10.18,0,0,0-3.57-1.27c-1.25-.16-2.49-.18-3-.24s-1.21-1.21-2.51-1.74-2.24-.27-3.77-.42a4.68,4.68,0,0,0-3.35.84c-1.15.67-1.22,2.27-2,3.58-.68,1.14-.58,4-.51,4.73.14,1.53.77,2,1.43,3.86s.31,4.14-1.15,5.19-7.26,5.51-4.35,9,6.32,5.82,7.49,4.42,2.75-6.5,4-8.12,1.45-5.21,1.11-7.44-1.54-6.48-1.28-7.48a7.72,7.72,0,0,1,1.72-3c.82-.65,2.22-.49,3.06-.7a17.81,17.81,0,0,1,3.66-.27c1.08,0,2.83.16,3.08.11s.24-.14.36-.12.23.07.21-.11A1.23,1.23,0,0,0,102,12.6Z"/><path class="cls-10" d="M101.07,13.65a5,5,0,0,0,.54-1.29,10.84,10.84,0,0,0-3.18-1c-1.25-.16-2.49-.18-3-.24s-1.21-1.21-2.51-1.74-2.24-.27-3.77-.42a4.68,4.68,0,0,0-3.35.84c-1.15.67-1.22,2.27-2,3.58-.68,1.14-.58,4-.51,4.73v.07c.17-2.37,1.54-4.08,3-3.75a5.06,5.06,0,0,0,3.42-.58c.54-.32.45-1.17,1.35-1,.71.12,3.4-.08,5.45.84a22.4,22.4,0,0,1,2.36-.08C99.52,13.57,100.41,13.62,101.07,13.65Z"/><path class="cls-11" d="M92.86,11.78a4.18,4.18,0,0,1-.73-.71c-.33-.4-.46-.72-1-.62s-.95.78-1.7.85-.88.42-.51.79a4.15,4.15,0,0,0,2.16.6A4.7,4.7,0,0,0,93,12.45C93.44,12.21,93,11.92,92.86,11.78Z"/><path class="cls-11" d="M95.39,11.08c-.56-.06-1.21-1.21-2.51-1.74s-2.24-.27-3.77-.42a4.68,4.68,0,0,0-3.35.84c-.89.52-1.14,1.61-1.57,2.69.11-.28.3-.59.37-.76a5.09,5.09,0,0,1,2.35-2.18,4.81,4.81,0,0,1,2.52.11c.46.06.47-.26,1.26-.3a5.12,5.12,0,0,1,2.85.8c.53.49.83.59,1.18,1.13.08.12.67.15.94.31s.46-.15.64-.43Z"/><path class="cls-9" d="M92.47,11.86a1,1,0,0,1-.32-.33,1.06,1.06,0,0,0-.62-.58.93.93,0,0,0-1,.31c-.16.27-.33.57-.09.87s.34.54.82.48.78-.58.92-.53S92.57,12,92.47,11.86Z"/><path class="cls-12" d="M92,11.57a.69.69,0,0,1-.5.84.68.68,0,1,1-.35-1.31A.69.69,0,0,1,92,11.57Z"/><path class="cls-13" d="M90.58,11.71c.15.29,1,.36,1.36-.21a.69.69,0,0,0-.83-.41A.71.71,0,0,0,90.58,11.71Z"/><path class="cls-14" d="M92,11.57a.74.74,0,0,1-.06.54.66.66,0,0,1-.18.22.71.71,0,0,1-.26.12.8.8,0,0,1-.55-.08.76.76,0,0,1-.22-.18.66.66,0,0,1-.13-.25.71.71,0,0,1,.08-.55A.75.75,0,0,1,91.1,11a.76.76,0,0,1,.29,0,.72.72,0,0,1,.47.29A.8.8,0,0,1,92,11.57Zm0,0a.59.59,0,0,0-.33-.39.78.78,0,0,0-.25-.06.72.72,0,0,0-.25,0,.66.66,0,0,0-.4.29.64.64,0,0,0-.08.49.58.58,0,0,0,.31.39.71.71,0,0,0,.5.05.7.7,0,0,0,.41-.28A.64.64,0,0,0,91.94,11.57Z"/><path class="cls-15" d="M91.6,11.67a.28.28,0,0,1-.2.34.25.25,0,0,1-.3-.21.26.26,0,0,1,.5-.13Z"/><path class="cls-11" d="M95.63,11.56c.12.08.25.3-.09.54a6.69,6.69,0,0,1-1.74.6,8.3,8.3,0,0,0,2.32-.27c.47-.26.78-.12.5-.52S95.5,11.47,95.63,11.56Z"/><path class="cls-16" d="M95.29,13.81c-.07-.39-.72-.72-1.21-.73s-.64.1-1,.12-.46.38-.61.54-.09.44-.59,1a2.12,2.12,0,0,1,.26-.25c.82-.65,2.22-.49,3.06-.7Z"/><path class="cls-17" d="M102.54,13.43a1.23,1.23,0,0,0-.54-.83,10.18,10.18,0,0,0-3.57-1.27c-1-.12-2-.17-2.63-.21-.21.07-.05.17-.18.31s.23.14.41.41,0,.38-.54.53a16.58,16.58,0,0,1-2.92.45c-.78,0-1.89.12-1.89.31s.41.19.65.18a23.19,23.19,0,0,1,3.24-.1c.33.11.12.56.55.63l.1,0a17.81,17.81,0,0,1,3.66-.27c1.08,0,2.83.16,3.08.11s.24-.14.36-.12S102.55,13.61,102.54,13.43Z"/><path class="cls-18" d="M101.42,13.39c-.42-.11-1.36-.24-1.82-.39a4.5,4.5,0,0,0-1.43-.26,15.72,15.72,0,0,0-3,.24,7.07,7.07,0,0,1-1.11.19,1.94,1.94,0,0,1,.49,0c.33.11.12.56.55.63l.1,0a17.81,17.81,0,0,1,3.66-.27c1.08,0,2.83.16,3.08.11a.83.83,0,0,0,.21-.09Z"/><path class="cls-19" d="M102.18,13.57s-.06,0-.09,0l-.53-.14-.7-.16-1.4-.34A10.93,10.93,0,0,0,98,12.68c-.48,0-1-.07-1.45-.06h-.36l-.36,0-.72.08-1.44.13c-1,.08-1.92.16-2.87.28h0l1.44-.07L93.72,13l1.43-.17.72-.08.36,0h.36c.48,0,1,0,1.43.09a12.68,12.68,0,0,1,1.42.23l.7.16.71.14.71.13.52.1s.06,0,.08,0Z"/><path class="cls-16" d="M87.06,15.52c-.64-.42.89.94,1.73,2.44a6.43,6.43,0,0,1,.4,2.11c.49,2.09,1.22,3,1.39,4.44s.59,1.83.55,1.1-.59-3.89-.76-4.9a5.78,5.78,0,0,1,.11-1.93,3.81,3.81,0,0,1,0-1.25,9.41,9.41,0,0,1,1.34-2.62c-1.29,1.48-1.23.94-2.25,1.18A3.1,3.1,0,0,1,87.06,15.52Z"/><path class="cls-11" d="M86.7,10.61a1.74,1.74,0,0,0-.32.87c0,.29-.27,1.11.16,1.39s.85.63,1.32.08.57-.75.56-1.2.21-.84-.11-1.14A1.49,1.49,0,0,0,86.7,10.61Z"/><path class="cls-20" d="M86.79,11.11a1.67,1.67,0,0,0-.17,1.44c.26.57.89.7,1.06.24s.32-.55.23-1.06-.5-.83-.68-.82S86.86,11,86.79,11.11Z"/><path class="cls-21" d="M86.92,11.91c-.13,0-.15.12-.1.38s.39.47.47.27a.87.87,0,0,0,.13-.39C87.39,11.85,87.1,11.85,86.92,11.91Z"/><path class="cls-20" d="M86.7,11a.63.63,0,0,1,.73-.1c.28.19.47.4.47.58s.12.35.12.19.1-.34-.07-.58-.15-.36-.41-.38-.59,0-.71.11S86.63,11.08,86.7,11Z"/><path class="cls-22" d="M86.79,12.29c0-.08-.08-.24,0-.32s.07-.12.19-.12.23,0,.14-.06a.45.45,0,0,0-.29,0c-.06.05-.1,0-.1.21S86.81,12.38,86.79,12.29Z"/><path class="cls-23" d="M100.52,12.47a.79.79,0,0,0-.27-.42c-.15-.08-.27-.24-.5-.23a.88.88,0,0,0-.56.17c-.09.11-.12.42.12.48a1.79,1.79,0,0,0,.78.11C100.3,12.52,100.55,12.55,100.52,12.47Z"/><path class="cls-24" d="M100.25,12.06c-.15-.08-.27-.24-.5-.23a.88.88,0,0,0-.56.17c-.09.11-.12.42.12.48l.06,0c.07,0,.22-.09.43-.15s.72.13.68,0A.62.62,0,0,0,100.25,12.06Z"/><path class="cls-24" d="M99.08,12.26c0-.07,0-.24,0-.29a.59.59,0,0,1,.32-.15,1.22,1.22,0,0,1,.47,0c.14,0,.08,0,0,0l-.26,0a.47.47,0,0,0-.2,0,1.43,1.43,0,0,1-.23.05.22.22,0,0,0-.16.11.52.52,0,0,0-.05.23C99,12.23,99.08,12.3,99.08,12.26Z"/><path class="cls-23" d="M99.73,12.63a1.08,1.08,0,0,0,.33,0,1.73,1.73,0,0,1,.31-.06c.1,0,.17,0,.08,0a.44.44,0,0,0-.21,0,.74.74,0,0,1-.23,0C99.9,12.66,99.58,12.63,99.73,12.63Z"/><path class="cls-9" d="M86.06,13a1.14,1.14,0,0,1-.14.88c-.2.2-.1.4-.55.57-.8.3,1.05.68,1.82.56,1.25-.19,2.3-1,1.74-.84s-.73.14-.6-.33.8-.89.37-.83-1.06.36-1.53.39C86.25,13.46,86,12.76,86.06,13Z"/><path class="cls-11" d="M83.76,13.34a2.85,2.85,0,0,0-.28.69.39.39,0,0,0,.18.45c.32.24.33.13.25-.35a3.51,3.51,0,0,1,.25-1.6A6.14,6.14,0,0,1,83.76,13.34Z"/><path class="cls-16" d="M90.62,32.46a6.39,6.39,0,0,0,1-2.46c-.58,1.57-2.15-2.17-2.69-3.36-.75-1.64-2-.08-2.57.86s-.94,1.43-1.11.61-2.62,1-2.62,1-1.17,1.59-2.48,3.78S82,37.48,85.2,37.8a4.86,4.86,0,0,0,3.61-1.64A21.44,21.44,0,0,1,90.62,32.46Z"/><path class="cls-6" d="M85.66,22.22c-.5-1.11-1.44-3.13-1.61-3.77a6.61,6.61,0,0,1-.42-1.55c-.06-.7-.06-1.5-.09-1.87s-.21-.31-.24-.05a16.46,16.46,0,0,0,0,3.09c.14,1.53.77,2,1.43,3.86s.31,4.14-1.15,5.19c-1.06.76-4.41,3.33-5,6,2.14-.86,6-5.09,6.94-6.07S86.16,23.33,85.66,22.22Z"/><path class="cls-7" d="M85.37,24.5c0-.27-.28-1-.53-2a4.45,4.45,0,0,1-1.31,4.62,21.06,21.06,0,0,0-2.65,2.26,1.34,1.34,0,0,0,.2.26c.19.13,2.38-1.73,3.4-2.68A2.56,2.56,0,0,0,85.37,24.5Z"/><path class="cls-25" d="M84,34.39c.83-.89,2.59-1.39,2.59-2.72s.08-4.82.88-4.21,2.31,2.58,2.31,4.11a14.4,14.4,0,0,1-1.08,5.54c-.27.8-2.26,2.78-3.49,5-1.86,3.32-4.6,7-5.94,10.09C78,55,71.72,59.53,67.58,61.83s-13.39,7.74-21.49,7.4-20.69,0-25.52,3.1-9.47,4.64-10,6.09-.92,2.29-2.07,2A5.22,5.22,0,0,0,6,80.47c-.69.09-1.38-.22-2.22-1.21S1.6,77.73,1.22,78.19.45,75.51.68,72.3s.63-7.8-.07-7.65-1.08-2.06.45-4.13,1-2.6,1.15-4.13S4.28,52.27,6,51.12s.54-1.91,1.76-2.91,1.76-4.66,5.13-6.5S29.49,32.16,34.09,31,52,28.22,59.15,27.81,76,28,77.35,28s4.78-.18,4.88.13c0,0,0,0-.06.06-.28.33,1,.82,1.58.8s.35,1.29.12,1.92a14,14,0,0,0-.76,3C83.14,34.82,83.63,34.75,84,34.39Z"/><path class="cls-26" d="M29.11,55.56C31,53.19,33,50,30.87,49.37s-4.83-.23-4.44-1.68-4.06-.92-5.36-.46-4.52-.61-4.44-1.45.69-2-1.3-2.37-2.91,1.15-1.92-.84A10.21,10.21,0,0,1,15.94,40l-3,1.68c-3.37,1.83-3.91,5.5-5.13,6.5S7.81,50,6,51.12,2.37,54.87,2.21,56.4s.38,2.06-1.15,4.13S-.09,64.81.61,64.66s.3,4.43.07,7.65.15,6.35.54,5.89,1.69.08,2.53,1.07S5.28,80.56,6,80.47a5.22,5.22,0,0,1,2.53-.06c1.15.31,1.53-.53,2.07-2s5.18-3,10-6.09A13.4,13.4,0,0,1,24,70.88a30.24,30.24,0,0,1,1.92-4.46C27.35,63.13,27.27,57.93,29.11,55.56Z"/><path class="cls-26" d="M48.12,42.1c1.07,2.22,1.61,1.45,3.68,6s4.6,6.73,4.6,9.79-.61,8-.81,9.64h0a75.69,75.69,0,0,0,12-5.74C71.72,59.53,78,55,79.23,52.19a41.33,41.33,0,0,1,2.84-5.05,11.12,11.12,0,0,1-1.92-2.74c-.84-2-1.15-2.6-3.22-1.53s-4.22-1.3-7.51.92-4.67,2.64-6.74,1.74-4.21.86-5.21,1.32-10.42-7-9.35-4.74"/><path class="cls-26" d="M63.06,27.67c-1.35,0-2.67.06-3.91.13C52,28.22,38.69,29.87,34.09,31s-17.78,8.87-21.15,10.7A7.4,7.4,0,0,0,11,43.2c.18,2.68,1.2,4.25,2.13,2.57,2.07-3.75,8.66-5.43,10-7.71s8.66-2.91,9.89-4.14,7.74-1.38,10.65-3.16C45.59,29.64,55.8,28.42,63.06,27.67Z"/><path class="cls-26" d="M88.66,37.11a21.65,21.65,0,0,0,1-3.59c-.83,3.2-2.39,3.73-3.48,4.53-1.67,1.23-4.79,8.4-5.59,7.11-.4-.64-.56,3.72-.37,5.12,1.45-2.62,3.49-5.53,5-8.19C86.41,39.9,88.4,37.91,88.66,37.11Z"/><path class="cls-26" d="M56.14,62.5c-.47,2.62-4.88,2.08-8.1,3.46s-9.19,1.26-14.48,1.61-7.38-.75-7.09-2.77-6.81,4.56-6.3,7.79l.41-.26c4.83-3.1,17.41-3.44,25.52-3.1,6.84.29,14.49-3.55,19.21-6.13C63.54,61.79,56.29,61.65,56.14,62.5Z"/><path class="cls-4" d="M42.26,109.59a2.82,2.82,0,0,0,2.39.84c1.64,0,3.26.26,3.86.95a5.33,5.33,0,0,1,.75,1c.23.34-.2.18-.58-.11a3.59,3.59,0,0,0-.93-.13,23,23,0,0,0-2.59-.1c-1.26,0-4,.63-4.1,0S41.71,109.17,42.26,109.59Z"/><path class="cls-3" d="M34.63,68.56c-1.27,1,0,4.27-.94,6.28s-1.6,3.26-1.3,5.27,2.55,11.07,2.34,14,.47,10.88,0,12.64-.43,3,.53,4.07c.63.68.87,1.84,1.69,1.95,1.19.15,2.06.53,2.92.62,1.57.16,4.58-1.36,5.94-.81s3.23.44,3.95.8.42-.31,0-.74a7.58,7.58,0,0,0-3-1.85c-1.1-.22-3,.16-4.51-1.2s-1.63-1.25-1.94-2.8a65.07,65.07,0,0,1-.93-10.24c.17-2.26-.86-8.14-.64-9.47s2.58-4.89,3-6.91A8.62,8.62,0,0,1,45.9,74.9C47.91,73.8,36.55,67.11,34.63,68.56Z"/><path class="cls-4" d="M36.89,111.77c-.86-1.16-1.84-3.33-1.2-4.93s-.23-6.59-.4-8.6.23-5.73-.27-7.91-1.11-7.24-1.72-9.42-.54-1.91,0-2.64a5.46,5.46,0,0,1,2.8-2.39c.34-.12.31-2-2.25-1.39a3,3,0,0,1-.14.34c-1,2-1.6,3.26-1.3,5.27s2.55,11.07,2.34,14,.47,10.88,0,12.64-.43,3,.53,4.07c.63.68.87,1.84,1.69,1.95,1.19.15,2.06.53,2.92.62a3.13,3.13,0,0,0,.57,0C39.3,113.05,37.54,112.65,36.89,111.77Z"/><path class="cls-26" d="M30.42,69.66a3.32,3.32,0,0,1,3,3.69c-.17.86-.1,3.6,1.09,4.47.87.64,5.26,3.1,5.63,4.24.93,2.87,6.36-5.5,7.18-7.8s3.68-5.46,5.52-5.88-1.45-5-7.2-5.11S29,69.68,30.42,69.66Z"/><path class="cls-3" d="M41.36,111.49c1.64,0,3.26.26,3.86.95a5.31,5.31,0,0,1,.75,1c.23.34-.2.18-.58-.11a3.57,3.57,0,0,0-.93-.13,17.59,17.59,0,0,0-3,0c-1.25.17-2.58-.39-2.7-1S39.78,111.48,41.36,111.49Z"/></svg>