<svg id="Layer_1" data-name="Layer 1" xmlns="http://www.w3.org/2000/svg" xmlns:xlink="http://www.w3.org/1999/xlink" viewBox="0 0 224.67 90.39"><defs><style>.cls-1{fill:#263032;}.cls-2{fill:url(#radial-gradient);}.cls-3{fill:url(#radial-gradient-2);}.cls-4{fill:#94a7af;}.cls-5{fill:url(#radial-gradient-3);}.cls-6{fill:url(#radial-gradient-4);}.cls-7{fill:url(#radial-gradient-5);}.cls-8{fill:url(#radial-gradient-6);}</style><radialGradient id="radial-gradient" cx="747.04" cy="-91.27" r="130.22" gradientTransform="translate(909.25 19.52) rotate(180)" gradientUnits="userSpaceOnUse"><stop offset="0" stop-color="#9eb2c4"/><stop offset="0.16" stop-color="#91a4b4"/><stop offset="0.46" stop-color="#6e7e8a"/><stop offset="0.88" stop-color="#364246"/><stop offset="1" stop-color="#263032"/></radialGradient><radialGradient id="radial-gradient-2" cx="764.38" cy="-114.92" r="145.4" xlink:href="#radial-gradient"/><radialGradient id="radial-gradient-3" cx="771.85" cy="-67.59" r="102.05" gradientTransform="translate(909.25 19.52) rotate(180)" gradientUnits="userSpaceOnUse"><stop offset="0" stop-color="#f4f5f9"/><stop offset="0.09" stop-color="#eff1f6"/><stop offset="0.2" stop-color="#e2e7ee"/><stop offset="0.31" stop-color="#ccd5e0"/><stop offset="0.42" stop-color="#acbdcd"/><stop offset="0.46" stop-color="#9eb2c4"/><stop offset="0.55" stop-color="#91a4b4"/><stop offset="0.71" stop-color="#6e7e8a"/><stop offset="0.94" stop-color="#364246"/><stop offset="1" stop-color="#263032"/></radialGradient><radialGradient id="radial-gradient-4" cx="785.44" cy="-86.13" r="113.95" xlink:href="#radial-gradient-3"/><radialGradient id="radial-gradient-5" cx="841.03" cy="-84.63" r="152.52" xlink:href="#radial-gradient"/><radialGradient id="radial-gradient-6" cx="861.33" cy="-112.34" r="170.3" xlink:href="#radial-gradient"/></defs><title>cloud-right</title><path class="cls-1" d="M165.85,21.86c6.45,0,12.28,2.57,15.83,6.91a10.6,10.6,0,0,1,7.73-3.33,10.85,10.85,0,0,1,1.87.16,10.74,10.74,0,0,1,7.47,5.31,18,18,0,0,1,8.61-2.17c9.54,0,17.31,7.3,17.31,16.28,0,8.18-6.34,15-14.85,16.12A10.74,10.74,0,0,1,199,71.07a11.06,11.06,0,0,1-2.77-.36c.71,9-7.73,17.49-19.35,19.32a28.81,28.81,0,0,1-4.45.35,23.39,23.39,0,0,1-14.3-4.49,15.32,15.32,0,0,1-3.35.36,23.25,23.25,0,0,1-11.89-3.64c-6-3.71-10-9.47-10.19-14.56l-.48-.06a23.14,23.14,0,0,1-11.85-5.11c-3.09-2.71-4.54-6-4.08-9.16a7.68,7.68,0,0,1,.38-1.53c-8.19-2.26-13.47-7.86-12.64-13.58.8-5.56,7.17-9.44,15.49-9.44a27.14,27.14,0,0,1,3.84.28,25.78,25.78,0,0,1,7.85,2.45,10.69,10.69,0,0,1,15.21.49c3-5.29,8.86-9.16,15.63-10.22a24.66,24.66,0,0,1,3.79-.3Z"/><path class="cls-2" d="M117.77,51.64a7.38,7.38,0,0,0-.68,2.19c-.88,6,6,12,15.25,13.37.39.06.78.09,1.16.13-.22,4.87,3.53,10.74,9.81,14.6,5.19,3.19,10.82,4.19,15,3.09,4.47,3.6,11.25,5.35,18.44,4.22,11.66-1.84,20-10.54,18.57-19.44,0-.09,0-.17-.05-.25a10.18,10.18,0,0,0,3.73.72,9.91,9.91,0,0,0,10-9.79v-.06c8.34-.78,14.84-7.38,14.84-15.41,0-8.55-7.39-15.48-16.51-15.48A17.22,17.22,0,0,0,198.42,32a9.88,9.88,0,0,0-16.78-2c-3.84-5.36-11.39-8.35-19.45-7.09-7.26,1.14-13,5.45-15.6,10.87a9.9,9.9,0,0,0-15.22-.94,24.39,24.39,0,0,0-8.1-2.64c-9.3-1.35-17.55,2.45-18.42,8.49C104,44.25,109.69,49.71,117.77,51.64Z"/><path class="cls-3" d="M191.28,68.19a11,11,0,0,0-.46-1.8,11.25,11.25,0,0,1,1.77,4.48c1.22,7.77-6,15.37-16.21,17-9.37,1.47-13.26-.91-17.18-6.19,5,3.12,7.82,4.78,15.87,3.51C185.25,83.56,192.5,76,191.28,68.19ZM144,80.63c7,4.32,15,4.13,17.83-.44a6.86,6.86,0,0,0,1-3.56,6.28,6.28,0,0,1-.77,2.19c-2.65,4.31-10.17,4.49-16.8.42S135.3,68.36,138,64a6.89,6.89,0,0,1,4.15-2.9,7.84,7.84,0,0,0-5.81,3.38C133.47,69.1,136.91,76.31,144,80.63ZM131.39,65.26a20.88,20.88,0,0,0,4.91.13c-.53,0-1.08-.1-1.62-.18-8.95-1.3-15.53-7.06-14.68-12.87a7.14,7.14,0,0,1,.37-1.4,6.39,6.39,0,0,0-1.55,3.29C118.07,59.21,123.72,64.15,131.39,65.26Zm74.68-32.2a13.2,13.2,0,0,0-3,.35,14.21,14.21,0,0,1,5.32-1c7.48,0,13.55,5.69,13.55,12.7s-6.06,12.7-13.55,12.7a14.24,14.24,0,0,1-2.27-.19c7.08,0,12.81-5.5,12.81-12.27S213.16,33.06,206.07,33.06Zm-15.74-3.84c4.18.74,7.07,5.53,7,9.62a8.57,8.57,0,0,0,.49-1.7A8.5,8.5,0,1,0,181,35.48C182.45,31.86,186.3,28.51,190.33,29.23Zm-42.69,12a12.08,12.08,0,0,0,.86,2.91c0-.2-.1-.39-.13-.59-1.22-7.72,5.17-15.15,14.27-16.58s17.46,3.67,18.67,11.4c0,.22,0,.44.07.66a11.76,11.76,0,0,0-.07-3.1c-1.21-7.72-9.73-12.8-19-11.34S146.42,33.51,147.64,41.23Zm-7.72-9.37a10.16,10.16,0,0,1,6.31,3.88,9.09,9.09,0,0,0-16.17,0A10.16,10.16,0,0,1,139.92,31.86Zm57.34,36.4a11,11,0,0,1-2.91-.44,8.57,8.57,0,0,0,5,1.61,8.4,8.4,0,0,0,8.5-8.3,7.94,7.94,0,0,0-.13-1.28A10.58,10.58,0,0,1,197.25,68.26Zm-78.51-18c-6.54-2.34-10.76-6.38-10.12-10.37.83-5.29,9.92-8.46,20.27-7.09h0a25.73,25.73,0,0,0-5-1.19c-8.84-1.17-16.7,2.13-17.52,7.38C105.58,43.84,111,48.61,118.74,50.27Zm61-11.34a12.16,12.16,0,0,1-2.48,9.2c3.55-3,5.51-7.25,4.82-11.6-1.14-7.23-9.11-12-17.82-10.61a18.31,18.31,0,0,0-7.61,3,21.7,21.7,0,0,1,3.77-1C169.87,26.48,178.51,31.39,179.7,38.93Z"/><path class="cls-4" d="M140.25,17.42a15.88,15.88,0,0,1,12.4,5.42,8.3,8.3,0,0,1,6.06-2.61A8.36,8.36,0,0,1,166,24.52a14.09,14.09,0,0,1,6.75-1.71c7.48,0,13.56,5.72,13.56,12.76,0,6.41-5,11.74-11.64,12.63A8.42,8.42,0,0,1,166.24,56a8.65,8.65,0,0,1-2.17-.28c.56,7-6.06,13.71-15.17,15.15a22.72,22.72,0,0,1-3.49.27A18.33,18.33,0,0,1,134.2,67.6a11.93,11.93,0,0,1-2.62.28A18.22,18.22,0,0,1,122.26,65c-4.72-2.91-7.86-7.42-8-11.41l-.37-.05a18.13,18.13,0,0,1-9.29-4c-2.43-2.13-3.56-4.67-3.2-7.18a6.23,6.23,0,0,1,.3-1.2C95.3,39.42,91.17,35,91.81,30.54s5.62-7.4,12.14-7.4a22,22,0,0,1,3,.22,20.22,20.22,0,0,1,6.15,1.92A8.41,8.41,0,0,1,118.88,23a8.63,8.63,0,0,1,1.48.13A8.37,8.37,0,0,1,125,25.66a17,17,0,0,1,12.25-8,19.1,19.1,0,0,1,3-.23Z"/><path class="cls-5" d="M102.57,40.76a5.83,5.83,0,0,0-.53,1.72c-.69,4.73,4.67,9.42,12,10.48l.91.1c-.17,3.81,2.76,8.42,7.68,11.44,4.07,2.5,8.48,3.28,11.77,2.42,3.5,2.82,8.81,4.19,14.45,3.31C157.95,68.8,164.46,62,163.36,55c0-.07,0-.13,0-.2a8,8,0,0,0,2.92.56,7.77,7.77,0,0,0,7.86-7.67v0c6.53-.61,11.63-5.78,11.63-12.07,0-6.7-5.79-12.13-12.94-12.13a13.51,13.51,0,0,0-7,1.94,7.74,7.74,0,0,0-13.15-1.55c-3-4.2-8.93-6.55-15.25-5.56-5.69.89-10.22,4.27-12.22,8.52a7.76,7.76,0,0,0-11.93-.74A19.17,19.17,0,0,0,106.87,24c-7.29-1.06-13.76,1.92-14.44,6.65C91.8,35,96.24,39.25,102.57,40.76Z"/><path class="cls-6" d="M160.18,53.73a8.57,8.57,0,0,0-.36-1.41,8.81,8.81,0,0,1,1.39,3.51c1,6.09-4.72,12-12.7,13.3-7.34,1.15-10.39-.72-13.47-4.85C139,66.72,141.17,68,147.48,67,155.46,65.77,161.14,59.82,160.18,53.73Zm-37.1,9.75c5.52,3.39,11.77,3.24,14-.34a5.36,5.36,0,0,0,.75-2.79,4.71,4.71,0,0,1-.6,1.71c-2.08,3.38-8,3.52-13.17.33s-7.73-8.52-5.66-11.9a5.4,5.4,0,0,1,3.26-2.27,6.16,6.16,0,0,0-4.56,2.65C114.88,54.44,117.58,60.09,123.09,63.48Zm-9.85-12a16.63,16.63,0,0,0,3.84.1c-.42,0-.84-.08-1.27-.14-7-1-12.17-5.53-11.5-10.09a5.63,5.63,0,0,1,.29-1.1,5,5,0,0,0-1.21,2.58C102.81,46.69,107.23,50.56,113.24,51.43ZM171.77,26.2a10.29,10.29,0,0,0-2.37.28,11.15,11.15,0,0,1,4.17-.8c5.86,0,10.62,4.45,10.62,10s-4.75,10-10.62,10a11.56,11.56,0,0,1-1.78-.15,9.85,9.85,0,0,0,10-9.62A9.85,9.85,0,0,0,171.77,26.2Zm-12.34-3c3.27.59,5.54,4.34,5.47,7.54a6.47,6.47,0,0,0,.39-1.33,6.66,6.66,0,0,0-13.11-2.33,6.86,6.86,0,0,0-.08,1C153.26,25.26,156.28,22.63,159.44,23.19ZM126,32.6a9.19,9.19,0,0,0,.67,2.28c0-.15-.08-.31-.1-.46-1-6.06,4-11.87,11.18-13s13.68,2.88,14.63,8.93c0,.17,0,.34.05.51a9.12,9.12,0,0,0-.06-2.43c-1-6.05-7.63-10-14.92-8.88S125,26.55,126,32.6Zm-6.05-7.34a7.94,7.94,0,0,1,4.94,3,7.13,7.13,0,0,0-12.67,0A8,8,0,0,1,119.93,25.26Zm44.94,28.53a8.54,8.54,0,0,1-2.28-.34,6.73,6.73,0,0,0,3.92,1.26,6.58,6.58,0,0,0,6.66-6.5,6.43,6.43,0,0,0-.1-1A8.29,8.29,0,0,1,164.86,53.78Zm-61.53-14.1c-5.12-1.83-8.43-5-7.93-8.12.65-4.14,7.77-6.63,15.89-5.56h0a20.17,20.17,0,0,0-4-.93c-6.93-.92-13.09,1.67-13.73,5.79C93,34.64,97.27,38.38,103.33,39.68Zm47.77-8.89A9.54,9.54,0,0,1,149.16,38a10,10,0,0,0,3.78-9.09c-.89-5.67-7.14-9.39-14-8.32A14.38,14.38,0,0,0,133,23a17.19,17.19,0,0,1,3-.75C143.4,21,150.18,24.88,151.11,30.8Z"/><path class="cls-1" d="M72.49,0C80,0,86.87,3,91,8.09a12.42,12.42,0,0,1,9.05-3.9,12.71,12.71,0,0,1,2.19.19A12.57,12.57,0,0,1,111,10.61a21.08,21.08,0,0,1,10.08-2.54c11.18,0,20.27,8.55,20.27,19.07,0,9.58-7.42,17.56-17.4,18.87a12.58,12.58,0,0,1-12.65,11.64,13,13,0,0,1-3.24-.42c.83,10.49-9,20.48-22.67,22.63a33.75,33.75,0,0,1-5.21.41A27.4,27.4,0,0,1,63.46,75a17.94,17.94,0,0,1-3.92.42,27.24,27.24,0,0,1-13.93-4.26C38.55,66.82,33.86,60.07,33.67,54.1L33.11,54a27.1,27.1,0,0,1-13.88-6c-3.63-3.18-5.32-7-4.78-10.73a9,9,0,0,1,.45-1.79C5.31,32.88-.87,26.31.1,19.61,1,13.1,8.5,8.56,18.24,8.56a31.78,31.78,0,0,1,4.5.32,30.19,30.19,0,0,1,9.19,2.87,12.52,12.52,0,0,1,17.82.57c3.49-6.2,10.37-10.72,18.3-12A28.88,28.88,0,0,1,72.49,0Z"/><path class="cls-7" d="M16.18,34.88a8.64,8.64,0,0,0-.8,2.57c-1,7.08,7,14.08,17.86,15.66.46.07.91.11,1.36.15-.26,5.7,4.13,12.58,11.49,17.1,6.08,3.74,12.67,4.9,17.58,3.63,5.24,4.21,13.17,6.27,21.6,4.94C98.93,76.78,108.67,66.59,107,56.17c0-.1,0-.2-.06-.3a11.93,11.93,0,0,0,4.37.84,11.61,11.61,0,0,0,11.75-11.47v-.07c9.76-.91,17.38-8.65,17.38-18,0-10-8.66-18.14-19.34-18.14a20.17,20.17,0,0,0-10.47,2.91A11.58,11.58,0,0,0,91,9.57C86.48,3.3,77.64-.21,68.2,1.27,59.7,2.61,52.92,7.65,49.92,14a11.59,11.59,0,0,0-17.83-1.1A28.56,28.56,0,0,0,22.6,9.81C11.71,8.23,2,12.68,1,19.75.08,26.22,6.71,32.62,16.18,34.88Z"/><path class="cls-8" d="M102.28,54.26a12.89,12.89,0,0,0-.54-2.1,13.17,13.17,0,0,1,2.08,5.24c1.43,9.1-7.06,18-19,19.87C73.86,79,69.3,76.21,64.71,70c5.89,3.65,9.16,5.6,18.58,4.11C95.22,72.26,103.71,63.36,102.28,54.26ZM46.84,68.83c8.24,5.06,17.59,4.84,20.88-.51a8,8,0,0,0,1.13-4.17,7.36,7.36,0,0,1-.9,2.56c-3.1,5-11.91,5.25-19.68.49S36.71,54.46,39.82,49.41A8.07,8.07,0,0,1,44.68,46c-3,.43-5.44,1.72-6.81,4C34.57,55.32,38.6,63.77,46.84,68.83Zm-14.72-18a24.46,24.46,0,0,0,5.75.15c-.63,0-1.26-.12-1.9-.21C25.49,49.25,17.78,42.5,18.77,35.7a8.36,8.36,0,0,1,.43-1.64,7.49,7.49,0,0,0-1.82,3.86C16.53,43.74,23.14,49.53,32.12,50.83ZM119.6,13.12a15.46,15.46,0,0,0-3.54.41,16.65,16.65,0,0,1,6.24-1.19c8.77,0,15.87,6.66,15.87,14.88S131.06,42.1,122.3,42.1a16.68,16.68,0,0,1-2.66-.23c8.29,0,15-6.44,15-14.37S127.9,13.12,119.6,13.12Zm-18.44-4.5c4.89.87,8.28,6.48,8.18,11.27a10,10,0,0,0,.58-2,10,10,0,0,0-19.59-3.48A10,10,0,0,0,90.21,16C91.93,11.71,96.45,7.79,101.16,8.63Zm-50,14.06a14.15,14.15,0,0,0,1,3.41c0-.24-.11-.46-.15-.69C50.59,16.36,58.06,7.66,68.73,6s20.45,4.3,21.87,13.35c0,.26,0,.52.08.77a13.78,13.78,0,0,0-.08-3.63c-1.42-9-11.4-15-22.29-13.28S49.73,13.64,51.16,22.69Zm-9-11a11.9,11.9,0,0,1,7.39,4.54,10.65,10.65,0,0,0-18.94,0A11.9,11.9,0,0,1,42.11,11.71Zm67.16,42.64a12.94,12.94,0,0,1-3.41-.52,10,10,0,0,0,5.85,1.89,9.84,9.84,0,0,0,10-9.72,9.3,9.3,0,0,0-.15-1.5A12.4,12.4,0,0,1,109.27,54.35Zm-92-21.07C9.66,30.53,4.72,25.8,5.47,21.13c1-6.2,11.61-9.91,23.75-8.31h0a30.13,30.13,0,0,0-5.91-1.39C13,10.07,3.76,13.93,2.8,20.09,1.9,25.74,8.25,31.33,17.32,33.27ZM88.71,20a14.25,14.25,0,0,1-2.9,10.77c4.16-3.52,6.45-8.49,5.65-13.58-1.33-8.47-10.67-14-20.87-12.43a21.44,21.44,0,0,0-8.91,3.53,25.42,25.42,0,0,1,4.41-1.12C77.2,5.41,87.32,11.16,88.71,20Z"/></svg>