<svg id="Layer_1" data-name="Layer 1" xmlns="http://www.w3.org/2000/svg" xmlns:xlink="http://www.w3.org/1999/xlink" viewBox="0 0 223.67 89.99"><defs><style>.cls-1{fill:#263032;}.cls-2{fill:url(#radial-gradient);}.cls-3{fill:url(#radial-gradient-2);}.cls-4{fill:#94a7af;}.cls-5{fill:url(#radial-gradient-3);}.cls-6{fill:url(#radial-gradient-4);}.cls-7{fill:url(#radial-gradient-5);}.cls-8{fill:url(#radial-gradient-6);}</style><radialGradient id="radial-gradient" cx="510.79" cy="-20.3" r="129.64" gradientTransform="translate(-448.61)" gradientUnits="userSpaceOnUse"><stop offset="0" stop-color="#9eb2c4"/><stop offset="0.16" stop-color="#91a4b4"/><stop offset="0.46" stop-color="#6e7e8a"/><stop offset="0.88" stop-color="#364246"/><stop offset="1" stop-color="#263032"/></radialGradient><radialGradient id="radial-gradient-2" cx="528.05" cy="-43.85" r="144.75" xlink:href="#radial-gradient"/><radialGradient id="radial-gradient-3" cx="535.49" cy="3.27" r="101.6" gradientTransform="translate(-448.61)" gradientUnits="userSpaceOnUse"><stop offset="0" stop-color="#f4f5f9"/><stop offset="0.09" stop-color="#eff1f6"/><stop offset="0.2" stop-color="#e2e7ee"/><stop offset="0.31" stop-color="#ccd5e0"/><stop offset="0.42" stop-color="#acbdcd"/><stop offset="0.46" stop-color="#9eb2c4"/><stop offset="0.55" stop-color="#91a4b4"/><stop offset="0.71" stop-color="#6e7e8a"/><stop offset="0.94" stop-color="#364246"/><stop offset="1" stop-color="#263032"/></radialGradient><radialGradient id="radial-gradient-4" cx="549.02" cy="-15.19" r="113.44" xlink:href="#radial-gradient-3"/><radialGradient id="radial-gradient-5" cx="604.36" cy="-13.7" r="151.84" xlink:href="#radial-gradient"/><radialGradient id="radial-gradient-6" cx="624.57" cy="-41.28" r="169.55" xlink:href="#radial-gradient"/></defs><title>cloud-left</title><path class="cls-1" d="M58.56,68.22c-6.42,0-12.23-2.55-15.76-6.88a10.56,10.56,0,0,1-7.7,3.31,10.8,10.8,0,0,1-1.86-.16,10.69,10.69,0,0,1-7.44-5.29,17.92,17.92,0,0,1-8.57,2.16C7.73,61.37,0,54.1,0,45.16c0-8.14,6.31-14.92,14.79-16a10.7,10.7,0,0,1,10.76-9.89,11,11,0,0,1,2.75.36C27.59,10.67,36,2.18,47.57.35A28.69,28.69,0,0,1,52,0,23.29,23.29,0,0,1,66.23,4.47a15.25,15.25,0,0,1,3.33-.35A23.15,23.15,0,0,1,81.41,7.74c6,3.69,10,9.43,10.15,14.5l.47.06a23,23,0,0,1,11.8,5.09c3.08,2.7,4.52,5.94,4.06,9.12A7.64,7.64,0,0,1,107.5,38c8.16,2.25,13.41,7.83,12.58,13.52-.8,5.53-7.14,9.39-15.42,9.39a27,27,0,0,1-3.82-.28A25.66,25.66,0,0,1,93,58.24a10.64,10.64,0,0,1-15.15-.49c-3,5.27-8.82,9.12-15.56,10.18a24.55,24.55,0,0,1-3.77.3Z"/><path class="cls-2" d="M106.42,38.58a7.34,7.34,0,0,0,.68-2.18c.88-6-5.93-12-15.18-13.31-.39-.06-.78-.09-1.16-.13C91,18.11,87.25,12.26,81,8.42,75.82,5.24,70.23,4.25,66,5.33,61.6,1.75,54.85,0,47.69,1.13,36.08,3,27.81,11.62,29.21,20.48c0,.09,0,.17.05.25A10.14,10.14,0,0,0,25.55,20a9.86,9.86,0,0,0-10,9.75v.06C7.27,30.6.79,37.17.79,45.16c0,8.51,7.36,15.42,16.44,15.42a17.14,17.14,0,0,0,8.9-2.47,9.84,9.84,0,0,0,16.7,2c3.83,5.33,11.34,8.32,19.37,7.05,7.22-1.14,13-5.42,15.53-10.82a9.85,9.85,0,0,0,15.15.94A24.28,24.28,0,0,0,101,59.89c9.26,1.34,17.47-2.44,18.34-8.45C120.1,45.93,114.47,40.49,106.42,38.58Z"/><path class="cls-3" d="M33.24,22.1a11,11,0,0,0,.46,1.79,11.2,11.2,0,0,1-1.76-4.46c-1.22-7.73,6-15.3,16.13-16.89,9.33-1.47,13.2.91,17.11,6.16-5-3.1-7.78-4.76-15.8-3.5C39.24,6.8,32,14.37,33.24,22.1ZM80.36,9.72c-7-4.3-15-4.12-17.75.44a6.83,6.83,0,0,0-1,3.55,6.26,6.26,0,0,1,.77-2.18c2.64-4.29,10.13-4.47,16.73-.41S89,21.94,86.33,26.22a6.86,6.86,0,0,1-4.14,2.89A7.8,7.8,0,0,0,88,25.74C90.79,21.2,87.36,14,80.36,9.72ZM92.87,25A20.79,20.79,0,0,0,88,24.89c.53,0,1.07.1,1.62.18,8.91,1.3,15.46,7,14.62,12.82a7.11,7.11,0,0,1-.37,1.39A6.36,6.36,0,0,0,105.39,36C106.12,31,100.5,26.13,92.87,25ZM18.52,57.07a13.14,13.14,0,0,0,3-.35,14.15,14.15,0,0,1-5.3,1c-7.45,0-13.49-5.66-13.49-12.65s6-12.65,13.49-12.65a14.18,14.18,0,0,1,2.26.19c-7,0-12.75,5.48-12.75,12.22S11.45,57.07,18.52,57.07Zm15.67,3.82c-4.16-.74-7-5.51-7-9.58A8.53,8.53,0,0,0,26.74,53,8.46,8.46,0,1,0,43.5,54.66C42,58.27,38.19,61.6,34.19,60.89Zm42.5-12a12,12,0,0,0-.85-2.9c0,.2.1.39.13.59,1.21,7.69-5.14,15.08-14.21,16.51S44.37,59.48,43.17,51.79c0-.22,0-.44-.07-.66a11.71,11.71,0,0,0,.07,3.09C44.38,61.91,52.86,67,62.12,65.51S77.9,56.63,76.69,48.94Zm7.69,9.33a10.12,10.12,0,0,1-6.28-3.86,9,9,0,0,0,16.1,0A10.11,10.11,0,0,1,84.37,58.27ZM27.29,22a11,11,0,0,1,2.9.44,8.53,8.53,0,0,0-5-1.61,8.36,8.36,0,0,0-8.46,8.26,7.91,7.91,0,0,0,.13,1.27A10.54,10.54,0,0,1,27.29,22Zm78.16,17.91c6.51,2.33,10.71,6.36,10.07,10.32-.83,5.27-9.87,8.43-20.18,7.06h0a25.61,25.61,0,0,0,5,1.19c8.8,1.17,16.62-2.12,17.44-7.35C118.56,46.34,113.16,41.59,105.45,39.94ZM44.77,51.23a12.11,12.11,0,0,1,2.47-9.15c-3.54,3-5.48,7.22-4.8,11.55,1.13,7.2,9.07,11.93,17.74,10.56a18.23,18.23,0,0,0,7.57-3,21.61,21.61,0,0,1-3.75.95C54.55,63.63,45.95,58.74,44.77,51.23Z"/><path class="cls-4" d="M84,72.64a15.81,15.81,0,0,1-12.35-5.39,8.26,8.26,0,0,1-6,2.6,8.33,8.33,0,0,1-7.29-4.27,14,14,0,0,1-6.72,1.7c-7.44,0-13.5-5.7-13.5-12.7,0-6.38,4.94-11.69,11.59-12.57a8.38,8.38,0,0,1,8.43-7.75,8.61,8.61,0,0,1,2.16.28c-.55-7,6-13.65,15.1-15.08a22.62,22.62,0,0,1,3.47-.27,18.24,18.24,0,0,1,11.16,3.51,11.87,11.87,0,0,1,2.61-.28,18.14,18.14,0,0,1,9.28,2.84c4.7,2.89,7.82,7.39,8,11.36l.37.05a18,18,0,0,1,9.25,4c2.42,2.12,3.54,4.65,3.18,7.15a6.2,6.2,0,0,1-.3,1.19c6.39,1.76,10.51,6.13,9.86,10.59s-5.6,7.36-12.09,7.36a21.89,21.89,0,0,1-3-.21,20.13,20.13,0,0,1-6.12-1.91,8.38,8.38,0,0,1-5.74,2.3,8.59,8.59,0,0,1-1.47-.13,8.33,8.33,0,0,1-4.66-2.55,17,17,0,0,1-12.19,8,19,19,0,0,1-3,.23Z"/><path class="cls-5" d="M121.55,49.41a5.8,5.8,0,0,0,.53-1.71c.69-4.71-4.65-9.38-11.9-10.43l-.91-.1c.17-3.79-2.75-8.38-7.65-11.39-4.05-2.49-8.44-3.27-11.72-2.41-3.49-2.81-8.77-4.17-14.39-3.29C66.42,21.5,59.94,28.29,61,35.23c0,.07,0,.13,0,.2a8,8,0,0,0-2.91-.56,7.73,7.73,0,0,0-7.83,7.64v0c-6.5.61-11.58,5.76-11.58,12,0,6.67,5.77,12.08,12.88,12.08a13.45,13.45,0,0,0,7-1.93,7.71,7.71,0,0,0,13.09,1.55c3,4.18,8.89,6.52,15.18,5.53,5.66-.89,10.18-4.25,12.17-8.48a7.72,7.72,0,0,0,11.88.74,19.08,19.08,0,0,0,6.32,2.06c7.26,1.05,13.7-1.91,14.37-6.62C132.27,55.18,127.86,50.91,121.55,49.41Z"/><path class="cls-6" d="M64.2,36.5a8.53,8.53,0,0,0,.36,1.4,8.77,8.77,0,0,1-1.38-3.49c-1-6.06,4.7-12,12.65-13.24C83.13,20,86.16,21.88,89.22,26c-3.92-2.43-6.1-3.72-12.38-2.74C68.9,24.51,63.24,30.44,64.2,36.5Zm36.93-9.71c-5.49-3.37-11.72-3.23-13.91.34a5.34,5.34,0,0,0-.75,2.78,4.69,4.69,0,0,1,.6-1.7c2.07-3.36,7.94-3.5,13.11-.33s7.7,8.48,5.63,11.84A5.37,5.37,0,0,1,102.56,42a6.13,6.13,0,0,0,4.54-2.64C109.3,35.79,106.61,30.17,101.13,26.79Zm9.8,12a16.55,16.55,0,0,0-3.83-.1c.42,0,.84.08,1.27.14,7,1,12.12,5.51,11.45,10a5.6,5.6,0,0,1-.29,1.09,5,5,0,0,0,1.21-2.57C121.31,43.51,116.91,39.65,110.93,38.78ZM52.66,63.91A10.25,10.25,0,0,0,55,63.63a11.1,11.1,0,0,1-4.15.8C45,64.42,40.29,60,40.29,54.51S45,44.6,50.86,44.6a11.51,11.51,0,0,1,1.77.15,9.59,9.59,0,1,0,0,19.16Zm12.28,3c-3.26-.58-5.51-4.32-5.45-7.51a6.44,6.44,0,0,0-.38,1.32A6.63,6.63,0,0,0,72.16,63a6.83,6.83,0,0,0,.08-1C71.09,64.84,68.08,67.46,64.94,66.9Zm33.31-9.37a9.15,9.15,0,0,0-.67-2.27c0,.15.08.3.1.46,1,6-4,11.82-11.14,12.94S72.92,65.79,72,59.76c0-.17,0-.34-.05-.51A9.08,9.08,0,0,0,72,61.67c.95,6,7.59,10,14.85,8.84S99.2,63.56,98.25,57.53Zm6,7.31a7.91,7.91,0,0,1-4.92-3,7.09,7.09,0,0,0,12.62,0A7.92,7.92,0,0,1,104.27,64.84ZM59.54,36.44a8.5,8.5,0,0,1,2.27.34,6.7,6.7,0,0,0-3.9-1.26A6.55,6.55,0,0,0,51.28,42a6.4,6.4,0,0,0,.1,1A8.26,8.26,0,0,1,59.54,36.44Zm61.26,14c5.1,1.83,8.39,5,7.89,8.09-.65,4.12-7.73,6.6-15.82,5.53h0a20.08,20.08,0,0,0,3.94.93c6.9.91,13-1.66,13.67-5.76C131.06,55.5,126.83,51.77,120.79,50.48ZM73.23,59.33a9.49,9.49,0,0,1,1.93-7.17,9.91,9.91,0,0,0-3.76,9c.89,5.64,7.11,9.35,13.9,8.28a14.32,14.32,0,0,0,5.94-2.35,17.11,17.11,0,0,1-2.94.75C80.9,69,74.16,65.21,73.23,59.33Z"/><path class="cls-1" d="M151.5,90C144,90,137.18,87,133,81.93a12.36,12.36,0,0,1-9,3.88,12.65,12.65,0,0,1-2.18-.19,12.52,12.52,0,0,1-8.71-6.2,21,21,0,0,1-10,2.53C92,82,82.92,73.45,82.92,63c0-9.53,7.39-17.48,17.32-18.79a12.53,12.53,0,0,1,12.6-11.58,12.9,12.9,0,0,1,3.23.42c-.83-10.44,9-20.39,22.57-22.53a33.6,33.6,0,0,1,5.19-.41,27.28,27.28,0,0,1,16.68,5.24,17.86,17.86,0,0,1,3.9-.42,27.11,27.11,0,0,1,13.87,4.24c7,4.32,11.69,11,11.88,17l.56.07a27,27,0,0,1,13.82,6c3.61,3.16,5.29,7,4.75,10.68a9,9,0,0,1-.45,1.79c9.55,2.63,15.7,9.17,14.74,15.84-.94,6.48-8.36,11-18.06,11a31.64,31.64,0,0,1-4.48-.32,30.06,30.06,0,0,1-9.15-2.85,12.46,12.46,0,0,1-17.74-.57c-3.47,6.17-10.33,10.68-18.22,11.92a28.76,28.76,0,0,1-4.42.35Z"/><path class="cls-7" d="M207.56,55.26a8.6,8.6,0,0,0,.79-2.56c1-7-6.95-14-17.78-15.59-.46-.07-.91-.11-1.35-.15.25-5.67-4.11-12.52-11.44-17-6.06-3.72-12.61-4.88-17.51-3.61-5.21-4.19-13.11-6.24-21.5-4.92-13.6,2.14-23.29,12.29-21.65,22.67,0,.1,0,.2.06.3a11.87,11.87,0,0,0-4.35-.83,11.55,11.55,0,0,0-11.7,11.41V45c-9.72.91-17.31,8.61-17.31,18,0,10,8.62,18.06,19.26,18.06a20.08,20.08,0,0,0,10.43-2.89,11.53,11.53,0,0,0,19.56,2.32c4.48,6.25,13.28,9.74,22.68,8.26C164.23,87.39,171,82.37,174,76a11.54,11.54,0,0,0,17.75,1.1,28.44,28.44,0,0,0,9.45,3.07c10.84,1.57,20.46-2.86,21.48-9.9C223.59,63.88,217,57.51,207.56,55.26Z"/><path class="cls-8" d="M121.85,36a12.84,12.84,0,0,0,.53,2.09,13.12,13.12,0,0,1-2.07-5.22c-1.43-9.06,7-17.92,18.9-19.79,10.92-1.72,15.47,1.06,20,7.22-5.86-3.64-9.12-5.57-18.5-4.1C128.87,18,120.42,26.91,121.85,36ZM177,21.46c-8.2-5-17.51-4.82-20.79.51a8,8,0,0,0-1.13,4.15,7.33,7.33,0,0,1,.9-2.55c3.09-5,11.86-5.23,19.59-.48s11.51,12.68,8.42,17.7a8,8,0,0,1-4.84,3.38c3-.43,5.42-1.72,6.78-3.95C189.25,34.91,185.24,26.5,177,21.46Zm14.65,17.92a24.35,24.35,0,0,0-5.72-.15c.62,0,1.26.11,1.89.21C198.29,41,206,47.68,205,54.45a8.33,8.33,0,0,1-.43,1.63,7.45,7.45,0,0,0,1.81-3.84C207.21,46.44,200.63,40.68,191.69,39.38ZM104.6,76.92a15.39,15.39,0,0,0,3.52-.41,16.57,16.57,0,0,1-6.21,1.19c-8.73,0-15.8-6.63-15.8-14.81s7.07-14.81,15.8-14.81a16.61,16.61,0,0,1,2.65.23c-8.26,0-14.94,6.41-14.94,14.31S96.33,76.92,104.6,76.92ZM123,81.4c-4.87-.86-8.24-6.45-8.15-11.22a10,10,0,0,0-.57,2,9.91,9.91,0,1,0,19.62,1.95C132.14,78.33,127.65,82.23,123,81.4Zm49.78-14a14.09,14.09,0,0,0-1-3.4c0,.24.11.46.15.69,1.42,9-6,17.66-16.64,19.34s-20.35-4.28-21.77-13.29c0-.26,0-.52-.08-.77a13.72,13.72,0,0,0,.08,3.61c1.42,9,11.35,14.93,22.19,13.22S174.16,76.41,172.74,67.4Zm9,10.93a11.85,11.85,0,0,1-7.35-4.52,10.6,10.6,0,0,0,18.85,0A11.84,11.84,0,0,1,181.74,78.33ZM114.88,35.88a12.88,12.88,0,0,1,3.4.51,10,10,0,0,0-5.83-1.88,9.79,9.79,0,0,0-9.91,9.67,9.26,9.26,0,0,0,.15,1.49A12.34,12.34,0,0,1,114.88,35.88Zm91.55,21C214,59.6,219,64.31,218.22,68.95c-1,6.17-11.56,9.87-23.64,8.27h0a30,30,0,0,0,5.89,1.39C210.76,80,219.92,76.12,220.88,70,221.78,64.36,215.45,58.8,206.42,56.86ZM135.35,70.09a14.18,14.18,0,0,1,2.89-10.72c-4.14,3.5-6.42,8.45-5.62,13.52,1.33,8.43,10.62,14,20.77,12.37a21.35,21.35,0,0,0,8.87-3.51,25.31,25.31,0,0,1-4.39,1.11C146.81,84.6,136.73,78.88,135.35,70.09Z"/></svg>