<svg xmlns="http://www.w3.org/2000/svg" xmlns:xlink="http://www.w3.org/1999/xlink" viewBox="0 0 225 198.29"><defs><style>.cls-1{isolation:isolate;}.cls-2{fill:#00e1e7;}.cls-3{fill:url(#radial-gradient);}.cls-4{fill:#fff;}.cls-5{fill:url(#linear-gradient);}.cls-6{mix-blend-mode:multiply;fill:url(#radial-gradient-2);}.cls-7,.cls-8{mix-blend-mode:screen;}.cls-7{fill:url(#linear-gradient-2);}.cls-8{fill:url(#linear-gradient-3);}</style><radialGradient id="radial-gradient" cx="114.51" cy="40.29" r="39.96" gradientUnits="userSpaceOnUse"><stop offset="0" stop-color="#fff200"/><stop offset="0.44" stop-color="#fff002"/><stop offset="0.6" stop-color="#feea09"/><stop offset="0.72" stop-color="#fedf14"/><stop offset="0.81" stop-color="#fdd025"/><stop offset="0.89" stop-color="#fbbc3b"/><stop offset="0.9" stop-color="#fbb840"/></radialGradient><linearGradient id="linear-gradient" x1="112.5" y1="59.81" x2="112.5" y2="19.18" gradientUnits="userSpaceOnUse"><stop offset="0" stop-color="#fbb840"/><stop offset="0.37" stop-color="#fdd223"/><stop offset="0.76" stop-color="#fee909"/><stop offset="1" stop-color="#fff200"/></linearGradient><radialGradient id="radial-gradient-2" cx="113.82" cy="40.02" r="26.43" xlink:href="#radial-gradient"/><linearGradient id="linear-gradient-2" x1="112.5" y1="19.97" x2="112.5" y2="34.46" gradientUnits="userSpaceOnUse"><stop offset="0" stop-color="#a7a9ac"/><stop offset="0.15" stop-color="#a3a5a8"/><stop offset="0.3" stop-color="#97999b"/><stop offset="0.46" stop-color="#838487"/><stop offset="0.62" stop-color="#666869"/><stop offset="0.78" stop-color="#424344"/><stop offset="0.94" stop-color="#161617"/><stop offset="1" stop-color="#050505"/></linearGradient><linearGradient id="linear-gradient-3" x1="112.43" y1="19.97" x2="112.43" y2="28.06" gradientUnits="userSpaceOnUse"><stop offset="0" stop-color="#a7a9ac"/><stop offset="0.16" stop-color="#a3a5a8"/><stop offset="0.33" stop-color="#97999b"/><stop offset="0.51" stop-color="#848487"/><stop offset="0.68" stop-color="#686769"/><stop offset="0.86" stop-color="#454344"/><stop offset="1" stop-color="#231f20"/></linearGradient></defs><title>day</title><g class="cls-1"><g id="Layer_1" data-name="Layer 1"><rect class="cls-2" width="225" height="198.29"/><path d="M100.48,168.53a7.18,7.18,0,0,1,5.25,1.88,6.84,6.84,0,0,1,1.92,5.12,6.61,6.61,0,0,1-1.92,5.05,7.35,7.35,0,0,1-5.25,1.81H96.15V168.53ZM97.95,181h2.53a5.2,5.2,0,0,0,4-1.44,6.6,6.6,0,0,0,0-8,5.2,5.2,0,0,0-4-1.44H97.95Z"/><path d="M110.7,181a5.84,5.84,0,0,1-1.49-4.12,5.65,5.65,0,0,1,1.48-4.06,4.91,4.91,0,0,1,3.71-1.55,4.42,4.42,0,0,1,2.43.66,4.31,4.31,0,0,1,1.57,1.72v-2.2h1.82v11H118.4v-2.24a4.34,4.34,0,0,1-4,2.42A4.83,4.83,0,0,1,110.7,181Zm6.62-1.07a4.65,4.65,0,0,0,0-6,3.47,3.47,0,0,0-2.59-1.12,3.54,3.54,0,0,0-2.59,1.08,4,4,0,0,0-1.08,2.94,4.23,4.23,0,0,0,1.09,3,3.51,3.51,0,0,0,5.18,0Z"/><path d="M126.24,182.22l-4.3-10.8h2l3.33,8.88,3.39-8.88h1.86l-6.55,16.12h-1.86Z"/><path class="cls-3" d="M143.45,39.5c0,1.64-6.68,2.68-7,4.24s5.64,4.86,5.09,6.35-7.18.21-8,1.59,3.63,6.48,2.6,7.71-6.81-2.26-8-1.23,1.22,7.33-.18,8.14-5.62-4.46-7.14-3.9-1.36,7.3-3,7.58-3.73-6.12-5.37-6.12-3.81,6.39-5.37,6.12-1.47-7-3-7.58S98.41,67.1,97,66.3s1-7.11-.18-8.14-7,2.46-8,1.23,3.41-6.32,2.6-7.71-7.43-.07-8-1.59,5.37-4.75,5.09-6.35-7-2.6-7-4.24,6.68-2.68,7-4.24-5.64-4.86-5.09-6.35,7.18-.21,8-1.59-3.63-6.48-2.6-7.71,6.81,2.26,8,1.23-1.22-7.33.18-8.14,5.62,4.46,7.14,3.9,1.36-7.3,3-7.58,3.73,6.12,5.37,6.12,3.81-6.39,5.37-6.12,1.47,7,3,7.58,5.76-4.7,7.14-3.9-1,7.11.18,8.14,7-2.46,8-1.23-3.41,6.32-2.6,7.71,7.43.07,8,1.59-5.37,4.75-5.09,6.35S143.45,37.86,143.45,39.5Z"/><circle class="cls-4" cx="112.71" cy="39.5" r="21.96"/><circle class="cls-5" cx="112.5" cy="39.49" r="20.31"/><circle class="cls-6" cx="112.5" cy="39.49" r="20.31"/><path class="cls-7" d="M128.37,34.46C128,26.4,121.05,20,112.5,20S97,26.4,96.63,34.46Z"/><path class="cls-8" d="M123.61,28.06c-.24-4.5-5.16-8.09-11.18-8.09s-10.94,3.59-11.18,8.09Z"/></g></g></svg>