<svg id="Layer_1" data-name="Layer 1" xmlns="http://www.w3.org/2000/svg" xmlns:xlink="http://www.w3.org/1999/xlink" viewBox="0 0 156.23 106.55"><defs><style>.cls-1{fill:url(#linear-gradient);}.cls-2{fill:url(#linear-gradient-2);}.cls-3{fill:url(#linear-gradient-3);}.cls-4{fill:url(#linear-gradient-4);}.cls-5{fill:url(#linear-gradient-5);}.cls-6{fill:url(#linear-gradient-6);}.cls-7{fill:url(#linear-gradient-7);}.cls-8{fill:url(#linear-gradient-8);}.cls-9{fill:url(#linear-gradient-9);}.cls-10{fill:url(#linear-gradient-10);}.cls-11{fill:url(#linear-gradient-11);}.cls-12{fill:url(#linear-gradient-12);}.cls-13{fill:url(#linear-gradient-13);}.cls-14{fill:url(#linear-gradient-14);}.cls-15{fill:url(#linear-gradient-15);}.cls-16{fill:url(#linear-gradient-16);}.cls-17{fill:url(#linear-gradient-17);}.cls-18{fill:url(#radial-gradient);}.cls-19{fill:url(#radial-gradient-2);}.cls-20{fill:url(#linear-gradient-18);}.cls-21{fill:url(#linear-gradient-19);}.cls-22{fill:url(#linear-gradient-20);}.cls-23{fill:url(#linear-gradient-21);}.cls-24{fill:url(#linear-gradient-22);}.cls-25{fill:url(#linear-gradient-23);}.cls-26{fill:#221f1f;}.cls-27{fill:#fff;}</style><linearGradient id="linear-gradient" x1="-742.57" y1="1.17" x2="-739.76" y2="14.93" gradientTransform="matrix(-1, 0, 0, 1, -614.76, 0)" gradientUnits="userSpaceOnUse"><stop offset="0" stop-color="#84c241"/><stop offset="0.02" stop-color="#89c441"/><stop offset="0.17" stop-color="#a3cd43"/><stop offset="0.3" stop-color="#b3d345"/><stop offset="0.4" stop-color="#b9d545"/><stop offset="1" stop-color="#456f34"/></linearGradient><linearGradient id="linear-gradient-2" x1="-745.24" y1="45.6" x2="-732.8" y2="48.7" gradientTransform="matrix(-1, 0, 0, 1, -614.76, 0)" gradientUnits="userSpaceOnUse"><stop offset="0" stop-color="#456f34"/><stop offset="0.6" stop-color="#b9d545"/><stop offset="0.7" stop-color="#b3d345"/><stop offset="0.83" stop-color="#a3cd43"/><stop offset="0.98" stop-color="#89c441"/><stop offset="1" stop-color="#84c241"/></linearGradient><linearGradient id="linear-gradient-3" x1="-743.64" y1="49.2" x2="-747.94" y2="68.43" gradientTransform="matrix(-1, 0, 0, 1, -614.76, 0)" gradientUnits="userSpaceOnUse"><stop offset="0" stop-color="#b9d545"/><stop offset="0.24" stop-color="#d5b136"/><stop offset="0.47" stop-color="#ec922a"/><stop offset="0.61" stop-color="#f58725"/><stop offset="1" stop-color="#965624"/></linearGradient><linearGradient id="linear-gradient-4" x1="-664.74" y1="22.03" x2="-655.3" y2="22.03" gradientTransform="matrix(-1, 0, 0, 1, -614.76, 0)" gradientUnits="userSpaceOnUse"><stop offset="0" stop-color="#264b9b"/><stop offset="1" stop-color="#10bef0"/></linearGradient><linearGradient id="linear-gradient-5" x1="-652.44" y1="26.4" x2="-642.3" y2="26.4" xlink:href="#linear-gradient-4"/><linearGradient id="linear-gradient-6" x1="-662.13" y1="24.03" x2="-637.9" y2="21.55" xlink:href="#linear-gradient-2"/><linearGradient id="linear-gradient-7" x1="-747.74" y1="35.03" x2="-745.12" y2="25.79" xlink:href="#linear-gradient-2"/><linearGradient id="linear-gradient-8" x1="-746.99" y1="31.59" x2="-739.58" y2="5.42" xlink:href="#linear-gradient-2"/><linearGradient id="linear-gradient-9" x1="-701.41" y1="57.35" x2="-689.02" y2="13.58" xlink:href="#linear-gradient-2"/><linearGradient id="linear-gradient-10" x1="-688.06" y1="59.83" x2="-685.74" y2="38.71" xlink:href="#linear-gradient-4"/><linearGradient id="linear-gradient-11" x1="-8395.57" y1="56.03" x2="-8366.04" y2="56.03" gradientTransform="translate(8423.79)" xlink:href="#linear-gradient-4"/><linearGradient id="linear-gradient-12" x1="-663.75" y1="86.14" x2="-679.78" y2="92.83" xlink:href="#linear-gradient-3"/><linearGradient id="linear-gradient-13" x1="-665.1" y1="85.9" x2="-678.34" y2="76.73" xlink:href="#linear-gradient-3"/><linearGradient id="linear-gradient-14" x1="-670.18" y1="52.21" x2="-656.12" y2="60.81" xlink:href="#linear-gradient-2"/><linearGradient id="linear-gradient-15" x1="-644.59" y1="71.67" x2="-636.22" y2="85.52" xlink:href="#linear-gradient-2"/><linearGradient id="linear-gradient-16" x1="-649.1" y1="59.07" x2="-644.14" y2="71.86" xlink:href="#linear-gradient-2"/><linearGradient id="linear-gradient-17" x1="-8306.47" y1="17.86" x2="-8284.6" y2="17.86" gradientTransform="translate(8423.79)" xlink:href="#linear-gradient"/><radialGradient id="radial-gradient" cx="-8411.49" cy="14.73" r="9.05" gradientTransform="translate(10633.86 1.04) scale(1.25 1.02)" gradientUnits="userSpaceOnUse"><stop offset="0" stop-color="#3066af"/><stop offset="0.71" stop-color="#2b60ab"/><stop offset="1" stop-color="#285ca8"/></radialGradient><radialGradient id="radial-gradient-2" cx="-8411.28" cy="15.21" r="8.43" gradientTransform="translate(10633.86 1.04) scale(1.25 1.02)" gradientUnits="userSpaceOnUse"><stop offset="0" stop-color="#ed4523"/><stop offset="0.13" stop-color="#e74322"/><stop offset="0.3" stop-color="#d73e20"/><stop offset="0.49" stop-color="#bb351d"/><stop offset="0.69" stop-color="#952918"/><stop offset="0.91" stop-color="#651912"/><stop offset="1" stop-color="#4e120f"/></radialGradient><linearGradient id="linear-gradient-18" x1="-691.35" y1="37.54" x2="-694.94" y2="53.86" gradientTransform="matrix(-1, 0, 0, 1, -614.76, 0)" gradientUnits="userSpaceOnUse"><stop offset="0" stop-color="#fbed34"/><stop offset="0.17" stop-color="#e9e739"/><stop offset="0.49" stop-color="#cfdd3f"/><stop offset="0.78" stop-color="#bfd744"/><stop offset="1" stop-color="#b9d545"/></linearGradient><linearGradient id="linear-gradient-19" x1="-8387.05" y1="53.57" x2="-8357.54" y2="53.57" gradientTransform="translate(8423.79)" xlink:href="#linear-gradient-4"/><linearGradient id="linear-gradient-20" x1="-711.05" y1="84.59" x2="-731.38" y2="98.38" xlink:href="#linear-gradient-3"/><linearGradient id="linear-gradient-21" x1="-723.49" y1="51.37" x2="-698.41" y2="44.26" xlink:href="#linear-gradient-2"/><linearGradient id="linear-gradient-22" x1="-713.18" y1="70.26" x2="-698.84" y2="76.35" xlink:href="#linear-gradient-2"/><linearGradient id="linear-gradient-23" x1="-712.65" y1="54.46" x2="-700.87" y2="42.94" xlink:href="#linear-gradient-4"/></defs><title>frog</title><path class="cls-1" d="M136.16,12.67c-2.53,4.48-9,6.43-14.51,4.37s-7.88-7.37-5.35-11.85,9-6.43,14.51-4.37S138.69,8.19,136.16,12.67Z"/><path class="cls-2" d="M125.53,50.62c-2-.62-3.79.39-5.66,1.33a6.37,6.37,0,0,0-.89-2.18,16.59,16.59,0,0,1-.88-2.4c-.41-1.1-.82-2.18-1.19-3.29l-.07-.23,7.94-4.51.17.46c.92,2.59,1.84,5.18,2.8,7.77a12.93,12.93,0,0,0,1.67,3.15,7.48,7.48,0,0,0,2.11,1.65c.24.16.49.31.74.45C129.6,53.51,127.56,51.62,125.53,50.62Z"/><path class="cls-3" d="M108.28,56.33c.78-1.38,2.89-1.94,4.71-1.26a4,4,0,0,1,1,.58c2.2-.54,4.78-.77,5.66-2.53a2,2,0,0,0,.19-1.17c1.87-.94,3.62-2,5.66-1.33,2,1,4.07,2.88,6.75,2.2,3.1,1.77,7.2,2.52,10.34,4.29a23.06,23.06,0,0,1,5.55,4.21c1,1.07,2.66,2.36,3.06,3.75a5.17,5.17,0,0,1,2.21.31c2,.75,3,2.55,2.13,4s-3.12,2-5.12,1.29-2.9-2.47-2.17-3.91a25.49,25.49,0,0,1-3.06-3.46,22.82,22.82,0,0,0-6-5.15c-.79-.45-5.36-2.57-5.37-.22,0,.67,1.11,1.49,1.5,2a26,26,0,0,1,1.89,3,16,16,0,0,1,2,6.32,4.84,4.84,0,0,1,1.07.25c2.05.77,3,2.74,2,4.4a4.5,4.5,0,0,1-5.41,1.6c-2.05-.77-3-2.74-2-4.4a3.26,3.26,0,0,1,.54-.68c-1.4-1.9-1.55-4.71-2.09-6.7a14.4,14.4,0,0,0-2.3-4.51c-.82-1.22-1.27-2.2-2.89-2.75-1.27,1.42-1.24,3.91-1.38,5.62a15.93,15.93,0,0,1-.45,3.2c1.56.94,2.27,2.43,1.58,3.65-.82,1.44-3.27,1.94-5.48,1.11s-3.34-2.68-2.52-4.12a3.65,3.65,0,0,1,3.23-1.5c0-.39.06-.8.1-1.24.11-1.66,1.05-5.72-.7-6.9-.9-.61-2.12-.15-3,.19a37.86,37.86,0,0,1-3.74,1.19l-.67.18a2.22,2.22,0,0,1-.27.9c-.78,1.38-2.89,1.94-4.71,1.26S107.5,57.71,108.28,56.33Z"/><path class="cls-4" d="M50,21.33s-4.67,1.82-9.44,4.08a59.77,59.77,0,0,0,4.12-6.76A20.86,20.86,0,0,1,50,21.33Z"/><path class="cls-5" d="M27.54,33.43s2.66-10,10.14-14a37.82,37.82,0,0,0-2.44,8.75c-1,.55-1.85,1.1-2.59,1.63Z"/><path class="cls-6" d="M39.86,18.43a7.93,7.93,0,0,1,4.8.22,59.77,59.77,0,0,1-4.12,6.76c-1.84.87-3.69,1.8-5.3,2.72a37.82,37.82,0,0,1,2.44-8.75A13.68,13.68,0,0,1,39.86,18.43Z"/><path class="cls-7" d="M137.19,33.6a27.07,27.07,0,0,0-3.65,1.5l-.29,0c-7.72-1.48-15.44.37-23.16-2.22a22.84,22.84,0,0,1-2.49-.63c16.18-.05,32.59-1.18,47.26-6.69C150.91,29.17,137.69,33.68,137.19,33.6Z"/><path class="cls-8" d="M105.09,30.23c-.8-8.18,5.47-15.49,11-22.45a106.51,106.51,0,0,1,12.24,1.61,78,78,0,0,1,16,2.42c9.06,2.29,13.32,8.74,11.49,12.53a4.2,4.2,0,0,1-.95,1.17C140.19,31,123.79,32.15,107.6,32.2,106.27,31.76,105.09,31.14,105.09,30.23Z"/><path class="cls-9" d="M27.79,37a4.73,4.73,0,0,1-.25-3.54h0l5.11-3.66c5.12-3.66,25-11.59,25-11.59S68.92,14.35,76.93,15,91.08,14.74,99,9.89c3.85-2.36,10.89-2.54,17.12-2.1-5.54,7-11.81,14.27-11,22.45,0,1.48,3.18,2.23,5,2.6,7.72,2.6,15.44.74,23.16,2.22l.29,0c-2.36,1.07-5.57,2.6-8.75,4.24l-7.94,4.51a21.4,21.4,0,0,0-2.74,2c-2.26,2.09-7.37,5.36-11.9,8.1a87.13,87.13,0,0,0,8.73-14.88,27.38,27.38,0,0,0-4.59.19c.78-.85.19-1.55.69-2.56-24.88,0-47.2,5.1-70.75,11.58-.7-.45-1.41-.92-2.13-1.42A15.08,15.08,0,0,1,27.79,37Z"/><path class="cls-10" d="M106.34,39.31C94,40.87,86.17,50.78,78.84,58.8c-.05-.47-.07-.74-.07-.74-2.25,2.45-19-.76-20.67-1.1-11.18-3-16.45-5.18-21.82-8.62,23.54-6.48,45.38-11.58,70.26-11.58C106,37.76,107.12,38.46,106.34,39.31Z"/><path class="cls-11" d="M28.22,45.23c1.18-2.8,2.6-4.63,5.45-2.21C43.83,51.2,52.22,59.84,57.75,70.16,52.84,67.28,47.13,65.67,42,62.9l1.92.77S29.77,52.18,28.22,45.23Z"/><path class="cls-12" d="M59.63,82.84a52.16,52.16,0,0,1,7.66,1.08c.89-1.11,2.84-1.74,4.95-1.47,2.66.35,4.54,2,4.21,3.69S73.69,88.92,71,88.58C69,88.3,67.35,87.23,66.91,86c-2.63.48-6.8.79-8.75,1.39-3.13,1-5.55,2.59-3.71,5.34a6,6,0,0,1,.8,1.82h.1c2.52.33,4.26,2.19,3.87,4.16s-2.75,3.3-5.27,3-4.26-2.19-3.87-4.16a3,3,0,0,1,.55-1.23c-.4-.39-.8-.82-1.2-1.28,1.07-3.9,4.69-7.32,8.71-9.7C58.23,84.84,59.19,83.87,59.63,82.84Z"/><path class="cls-13" d="M59.74,81.39c-2-1.7-4.49-1.12-6.87-1,.87-.45,2.08-1,3.32-1.52,1.57-.41,7.29-3.57,7.29-3.57C65,75.77,66,77,65.76,78.2c-.28,1.43-2.08,2.38-4,2.13l-.18,0a7.48,7.48,0,0,1-1.79,2.16A1.69,1.69,0,0,0,59.74,81.39Z"/><path class="cls-14" d="M57.56,69.82C52,59.65,43.72,51.11,33.68,43c-2.86-2.41-4.27-.59-5.45,2.21a4.45,4.45,0,0,1,0-2c1-4,4.72-5.76,8.56-5.46,8.65,10.64,23,20.18,29.51,31.62.45,1.91.22,3.48-1,4.5-.61.52-1.2,1-1.79,1.43,0,0-.86.48-2,1.09A8.63,8.63,0,0,0,57.56,69.82Z"/><path class="cls-15" d="M36.06,81.61c4.12-.37,15.48-.49,15.48-.49s.53-.3,1.34-.71c2.38-.13,4.85-.72,6.87,1a1.69,1.69,0,0,1,0,1.07c-.26.22-.44.36-.44.36l.3,0c-.44,1-1.4,2-1.49,2.45-4,2.38-7.64,5.8-8.71,9.7-2.28-2.6-4.49-5.94-6.53-6.21C40,88.41,31.8,90.42,23,82.3S-.81,64.69,0,60.42A31.85,31.85,0,0,1,11.21,64.3C13.11,65.91,32.15,82,36.06,81.61Z"/><path class="cls-16" d="M17,54.09c8.61,2.39,20.46,7,25,8.81,5.14,2.77,10.85,4.39,15.76,7.26l-.19-.33a8.63,8.63,0,0,1,3.91,6.58,39.76,39.76,0,0,1-5.27,2.48c-3.75.81-7.6.08-12.44-1.64-8.63-3.07-32.71-13.07-32.71-13.07l.16.13A31.85,31.85,0,0,0,0,60.42a2,2,0,0,1,0-.2C1.45,56.06,6.07,51.06,17,54.09Z"/><path class="cls-17" d="M138.19,21.6c-2.53,4.48-9,6.43-14.51,4.37s-7.88-7.37-5.35-11.85,9-6.43,14.51-4.37S140.72,17.12,138.19,21.6Z"/><path class="cls-18" d="M137.68,21.74c-2.3,4.07-8.2,5.85-13.19,4s-7.16-6.7-4.86-10.77,8.21-5.84,13.19-4S140,17.67,137.68,21.74Z"/><path class="cls-19" d="M137.41,21.84c-2.14,3.79-7.65,5.45-12.3,3.7s-6.67-6.24-4.53-10,7.65-5.45,12.29-3.7S139.55,18,137.41,21.84Z"/><path class="cls-20" d="M48.76,44.61a84,84,0,0,0,8.42-1.77c1.76-.45,3.55-.79,5.24-1.37.85-.29,1.71-.34,2.59-.55s1.9-.56,2.88-.75c2.59-.5,5.1-.93,7.73-1.28,1.62-.22,3.27-.37,4.88-.64s3-.86,4.61-1.25A24.78,24.78,0,0,1,91,36.37c1.43,0,2.76.36,4.26.23,1-.09,2-.54,3-.67a49.73,49.73,0,0,1,5.8,0A8.06,8.06,0,0,1,108.27,37c.83.49,1.21.94.83,1.73A2.4,2.4,0,0,1,107.44,40c-.84.28-1.15.18-1.36-.27.2-.76.66-1.74-.08-1.74-1.56-.25-4-.86-5.65-.37l-.13,0A4,4,0,0,0,99,38c-.34.23-.37.53-.52.86-.31.67-.51,1.39-.84,2-.21.42-1.19,2.08-2,1.8-.62-.22-.15-2.17-.08-2.65.16-1,.52-1.69-1-1.68-1.83,0-2.78,0-3.32,1.6s-.54,3.11-1,4.64a15.29,15.29,0,0,1-1.47,3.6c-.39.64-1.43,2.15-2.61,2s-.05-1.53.14-1.93a28.36,28.36,0,0,0,1.29-3,9.56,9.56,0,0,0,.3-3.24,3.22,3.22,0,0,0-1.57-3.17,4.19,4.19,0,0,0-5.46,1.34c-1.66,2.23-1.15,5.51-.65,8,.37,1.8.8,4.5-.32,6.18a2.1,2.1,0,0,1-2.14.91c-.87-.15-.79-.53-.87-1.25-.22-2,0-4-.18-6.06a17.32,17.32,0,0,0-1.28-5.51c-.57-1.26-1.5-2.61-3.34-1.95-3.22,1.17-3,4.55-2.74,7,.09,1,2,8.38.26,8.52-.92.08-1.81-1.35-2.11-1.91-.61-1.11-1.24-2.24-1.78-3.38-1-2.06-1.5-4.24-2.53-6.27-.43-.86-1.41-1.62-2.39-.73a3.74,3.74,0,0,0-.89,2.46c-.11,1.55,0,3.12,0,4.67,0,.64.09,2.15-.66,2.62s-1.18-.32-1.54-.84a31.22,31.22,0,0,1-1.87-2.91,20.51,20.51,0,0,0-.87-2.05c-1.37-2-4.57-1.1-6.78-1-.79,0-2,0-2.22-.87C45.72,45.12,48,44.73,48.76,44.61Z"/><path class="cls-21" d="M36.74,37.76a10.65,10.65,0,0,1,6.51,2.86s20.66,18.91,23,28.77C59.72,57.94,45.39,48.4,36.74,37.76Z"/><path class="cls-22" d="M103.73,87.32c1.57-1-.6-3.32-.92-5.62.62.36,1.05.6,1.05.6a53.88,53.88,0,0,1,3.72-4.47,2.05,2.05,0,0,1-.15-2.25,3.48,3.48,0,0,1,4.2-1.17c1.61.61,2.34,2.11,1.64,3.37a3.33,3.33,0,0,1-3.47,1.36,52.52,52.52,0,0,1-4.53,6.05s12.16-2.13,16.12-.51a6.56,6.56,0,0,1,.81.4,4.76,4.76,0,0,1,3.24,0c1.92.72,2.82,2.48,2,3.92s-3,2-5,1.3a3.1,3.1,0,0,1-2.28-3c-4.42-2.39-14.31,1.33-14.31,1.33,9.23,1.51,11.77,6.92,13.42,9.65l.06.12a3.55,3.55,0,0,1,1.18.22A2.32,2.32,0,0,1,122,102a3.36,3.36,0,0,1-4,1.23,2.32,2.32,0,0,1-1.47-3.3,2.52,2.52,0,0,1,.62-.71c-.09-.48-.55-1.68-2.61-4.52-3.07-4.26-11.88-3.48-11.88-3.48s1,5.73.1,9a6,6,0,0,1-.81,1.7,2.45,2.45,0,0,1,.79,3.14c-.79,1.4-3,2-4.85,1.25s-2.77-2.42-2-3.82,2.6-1.85,4.37-1.39l0-.06c2.66-4.71-1.2-11.88-1.2-11.88s-.82-.63-2.19-1.74C99.42,87.72,102,88.23,103.73,87.32Z"/><path class="cls-23" d="M84.18,57c.3-.27.61-.54.93-.79,7.88-6.1,18-9.72,23.89-17.08.64,0,1.28,0,1.94,0A87.13,87.13,0,0,1,102.21,54c-4.48,2.71-8.38,4.89-8.38,4.89l.29,1.21C91.64,58,88,57,84.18,57Z"/><path class="cls-24" d="M94.12,60.1c1,4.07,4.17,17.07,4.53,18.25.3,1,2.73,2.52,4.17,3.36.31,2.3,2.49,4.65.92,5.62-1.78.9-4.31.4-6.8,0-2.28-1.83-6.08-5-10.27-8.8S80.33,67.34,79.43,62.6A25,25,0,0,1,84.18,57C88,57,91.64,58,94.12,60.1Z"/><path class="cls-25" d="M109,39.11c-5.85,7.36-16,11-23.89,17.08a25.57,25.57,0,0,0-5.68,6.42c-.32-1.67-.5-3-.59-3.8C86.69,50.22,95.07,39.47,109,39.11Z"/><path class="cls-26" d="M131.6,22.67l-2.24-9.52S132.81,17.5,131.6,22.67Z"/><ellipse class="cls-27" cx="126.27" cy="15.45" rx="1.02" ry="0.83"/><path class="cls-27" d="M116.84,10.22h-.94c-.62,0-1.52,0-2.67.08s-2.54.16-4.14.34a45.59,45.59,0,0,0-5.31.91,23.62,23.62,0,0,0-6,2.15l-.73.42-.68.4c-.23.11-.43.22-.67.32s-.48.21-.74.29a19,19,0,0,1-3.3.79c-2.34.37-4.86.45-7.43.59S79,16.75,76.4,17a53.79,53.79,0,0,0-7.8,1.35,34.47,34.47,0,0,0-3.68,1.15l-3.4,1.28c-2.24.83-4.39,1.66-6.43,2.44s-4,1.53-5.75,2.22l-2.55,1-2.28.94-3.69,1.54-2.36,1-.84.36L38.5,30,41,29.2l3.83-1.3,2.34-.8,2.62-.88c1.82-.61,3.79-1.27,5.87-2S59.9,22.78,62.16,22l3.44-1.21c1.14-.38,2.31-.74,3.51-1a52.22,52.22,0,0,1,7.51-1.25c2.56-.28,5.16-.41,7.74-.55A66.84,66.84,0,0,0,92,17.19a18.85,18.85,0,0,0,3.6-1c.29-.1.56-.24.83-.36s.55-.29.81-.43L98,15l.64-.4a23.7,23.7,0,0,1,5.5-2.24c1.83-.51,3.56-.89,5.12-1.16s2.92-.47,4.05-.61,2-.23,2.64-.29Z"/></svg>