<svg id="Layer_1" data-name="Layer 1" xmlns="http://www.w3.org/2000/svg" viewBox="0 0 159.76 145.19"><defs><style>.cls-1{fill:#6b5036;}.cls-2{fill:#a0815d;}.cls-3{fill:#7f6242;}.cls-4{fill:#997d67;}.cls-5{fill:#ad9076;}.cls-6{fill:#846a4e;}.cls-7{fill:#a3886f;}.cls-8{fill:#bc9f82;}.cls-9{fill:#826245;}.cls-10{fill:#a88960;}.cls-11{fill:#8c6e49;}.cls-12{fill:#b79a76;}.cls-13{fill:#967c62;}.cls-14{fill:#ccae87;}.cls-15{fill:#8c6d4d;}.cls-16{fill:#aa8e75;}.cls-17{fill:#d6bb9a;}.cls-18{fill:#9e7d56;}.cls-19{fill:#826443;}.cls-20{fill:#9e8574;}.cls-21{fill:#7f644f;}.cls-22{fill:#8e7565;}.cls-23{fill:#775d4b;}.cls-24{fill:#bfa07b;}.cls-25{fill:#725944;}.cls-26{fill:#af906b;}.cls-27{fill:#775b3c;}.cls-28{fill:#634b33;}.cls-29{fill:#6d5237;}.cls-30{fill:#3d2d1f;}.cls-31{fill:#fff;}.cls-32{fill:#e0c3a6;}.cls-33{fill:#281710;}.cls-34{fill:#492d1d;}.cls-35{fill:#603d25;}.cls-36{fill:#8e6e59;}.cls-37{fill:#6d5138;}.cls-38{fill:#8e735b;}.cls-39{fill:#6d5239;}</style></defs><title>kangaroo</title><path class="cls-1" d="M11,122.43c2.7.17,36.95,6.31,44.34-2.93,8.41-8.21,11.92-28,12-27.8A14.48,14.48,0,0,0,75,99.29c-1.12,6.21-6.77,18.14-14.72,24.86s-17.69,6.55-22.84,5.49-21.22-3-27.66-2.74-9.23.49-9.74-1.23C-.3,124.63,6.9,123.16,11,122.43Z"/><path class="cls-2" d="M11.55,122.37c2.35-.61,14.06-1.75,24.47-1.16,11.84.67,15.12-1.34,19.65-6.8s8-23.37,9-28.25c.59-2.86.79-6.09,1.74-10,0,0-2.07,9.55,1,15.51a20.63,20.63,0,0,0,3.54,5.15c-1.18,5.37-6,17.05-14,23.77s-16.8,5.33-22,4.59C26.6,124,11.94,122.94,11.55,122.37Z"/><path class="cls-3" d="M10.77,122.47s6-.85,7.58-1c0,0-1.49.77,1.51,1,3.82.24,9.5.49,16.15,1.06,13.33,1.13,16.85-3,20.46-8.49,3.91-5.92,6.19-16.38,7.19-23,.44-2.89,1.13-6.83,1.13-6.83a30.21,30.21,0,0,0,2.59,6.47,21.69,21.69,0,0,0,3.54,5.15c-1.18,5.37-6.42,18.37-14.37,25.09S42,127.71,36.82,127c-8.34-1.18-11.69-2-18.12-2.48C8.52,123.78,10.77,122.47,10.77,122.47Z"/><path class="cls-3" d="M114.1,129.81c5.77,0,16.64.47,18.83,1.27,2.74,1,9.52,1.62,10.08,1.62s2.28,1.74,1.74,2.62c-.84,1.43-7.12,1.3-11.69.87a214.36,214.36,0,0,0-21.75-1.08C112,133.49,114.1,129.81,114.1,129.81Z"/><path class="cls-4" d="M99.61,90.44s4.48,8.48,3.47,16.38-3.78,20.32-4,23.18-.6,5.15,10.13,4.62a204.76,204.76,0,0,1,22.45.64c4.14.36,6-.32,7.53-1s1.26-1.8.7-1.8a31.88,31.88,0,0,1-6.94-1.33c-2.74-1-18.9-2.18-21.81-2-1.84.3-2.21-1-3.11-.81.06-2.24.9-6.35,2.13-13s1.9-11,3.36-14.5,4.59-6.1,5.26-15.84Z"/><path class="cls-5" d="M112.49,103.79c-.77,2.9-1.5,7-2.36,11.56a70.86,70.86,0,0,0-1.38,12.48c1.46.23,1.77,1.39,2.69,1.27,2.91-.22,18.14,1,21.47,2a51.74,51.74,0,0,0,5.44,1.13c.55.09-.2,2-5.08,2-2.14,0-13.67-1-20.25-1,0,0-4-.65-6.5-1-.75-.19-1.78-1.69-3.37-2,0,0-1.57-4.76-1.57-7.24a100.44,100.44,0,0,0,3.11-15.05A10.43,10.43,0,0,1,112.49,103.79Z"/><path class="cls-6" d="M102.35,88.7,119,84c-.67,9.74-4.4,14.72-4.4,14.73s-1.44,1.94-3.54-1.38C109.11,94.24,107.83,89.89,102.35,88.7Z"/><path class="cls-7" d="M145.62,97.29c-1.12,0-2.31-.72-1.68-1.69a3.42,3.42,0,0,1,.54-.31c0-.52-.48-1-.08-2.06s1.68-2.52,1.76-3.59a96,96,0,0,0-.87-10.82c-.34-1.18-2.14-3.5-2.55-5.28a29.66,29.66,0,0,1-1-6.05c1.18-8.62,9.77-22.73,9.77-22.73a17.26,17.26,0,0,1,1.78,9.07c-.42,5.17-3.24,12-3.15,13.78a13.25,13.25,0,0,1-.92,6.75c-.25.62-.14,4.2-.08,6.33a77.44,77.44,0,0,0,.36,8.09,9.93,9.93,0,0,1,.29,4.18,21.44,21.44,0,0,0-.19,3.63,13.23,13.23,0,0,1-.56,3.12s-1.73,1.72-2-.79C147.06,98.9,144,100,145.62,97.29Z"/><path class="cls-8" d="M149.44,74.67a34.77,34.77,0,0,0-.34,6,77.44,77.44,0,0,0,.36,8.09,9.93,9.93,0,0,1,.29,4.18c0,.29-.15,1.4-.17,1.64-.07,1.6-.9,1.39-1.26,1.34-1.23-.2-3.3-1.25-2.14-3.81A8.76,8.76,0,0,0,147,89.6a112.12,112.12,0,0,0-.5-11.8c-.34-1.18-2.27-2.92-2.69-4.7S142.08,68.53,142,66c1.18-8.62,9.51-21.28,9.51-21.28a17.26,17.26,0,0,1,1.78,9.07c-.42,5.17-3.24,12-3.15,13.78A21.28,21.28,0,0,1,149.44,74.67Z"/><path class="cls-3" d="M144.49,95.29c-.81,2.12,1.57,1.72,1.57,1.72-1,1.51.59,2.21,1.4,1.59a1.15,1.15,0,0,0,.35.62c.37.38,1.29.31,1.6-1.18a5.14,5.14,0,0,1-1.64,3.46c-1.26.88-2.55.23-1.95-.77a11.32,11.32,0,0,1,.88-1.31s-1.48,1.46-2.52.69,1.23-2.65,1.23-2.65-1.66.21-2.1-.27C142.59,96.4,144.09,95.46,144.49,95.29Z"/><path class="cls-9" d="M150,72c-2,3.68-6.72-1.74-7.12-7.35,1.22-8.63,8.63-19.95,8.63-19.95a17.26,17.26,0,0,1,1.78,9.07c-.42,5.17-3.24,12-3.15,13.78A19.09,19.09,0,0,1,150,72Z"/><path class="cls-4" d="M108.76,127.84a7.69,7.69,0,0,0-4.48,3,7.51,7.51,0,0,1,4.52-4.19Z"/><path class="cls-10" d="M66,78a39.69,39.69,0,0,1,3.93-11c4.42-8.4,17.47-15.73,29.45-18.76s27.71-2.55,28.78-3.77c2.44-2.77,6.33-3.18,7.05-4.54.48-.9.54-3.7.51-5.89a23.85,23.85,0,0,0,3.39,2.82l0,0C135.4,71.25,77.67,79.63,66,78Z"/><path class="cls-11" d="M77.12,100a15.06,15.06,0,0,1-6.61-2.27c-5.06-3.61-5.72-8.9-5.72-12.48.83-4.69.77-9.2,4.92-17.07,4.42-8.4,18.92-15,30.91-18s26.52-2.56,27.91-4.07c2.76-3,6.3-3.78,7.06-4.91,1-1.46,0-9.94,0-9.94l16.26,7a105,105,0,0,1-1.34,14.22c-1.18,6.33-6.61,13.24-13.33,21.89A51,51,0,0,1,114.11,90.5c-7.45,2.41-19.2,4.25-24.8,7.56C84.69,100.78,77.12,100,77.12,100Z"/><path class="cls-12" d="M90,97.6c-1.67-2.11-3.47-4.05-5.27-6,6.28-5.05,14.54-9.3,19.53-10.84,0,0,12.14,1.55,21-6.06,2.91-2.49,6.35-4.26,8.49-7.43s4.72-5.82,5.79-9.62a30.87,30.87,0,0,0,1-12.56,56,56,0,0,1-.06-11.76l11.33,4.87a105,105,0,0,1-1.34,14.22c-1.18,6.33-6.61,13.24-13.33,21.89A51,51,0,0,1,114.11,90.5c-7.13,2.3-18.2,4.1-24,7.14Z"/><path class="cls-13" d="M140.21,40.2l0-7L151.93,38c0,3.07-.68,9.15-.68,9.15-.18-1.28-1.82-3.82-6-4.87A28.83,28.83,0,0,1,140.21,40.2Z"/><path class="cls-14" d="M133.91,69.45c.94-2.53,4.37-6.93,5.71-11.8a31.7,31.7,0,0,0,1-12.56c-.17-1.23-.37-4.89-.37-4.89s5.85,2.71,6.35,7.33a22.93,22.93,0,0,1-.93,7.72,48.62,48.62,0,0,1-12.16,20.18A9.08,9.08,0,0,1,133.91,69.45Z"/><path class="cls-14" d="M106.08,80.91s10.88.47,19.26-6.22c1.53-1.22,3.12-2.36,4.64-3.55,0,.24,0,.47,0,.71,0,.7,0,1.4.08,2.09,0,.34.06.67.1,1q.16,2,.45,3.93c-8.34,7.08-13.72,8.73-19.37,7.1C107.76,85,106.08,80.91,106.08,80.91Z"/><path class="cls-15" d="M87.37,100a5.59,5.59,0,0,1,3.3,4c.67,3,1.24,17.92.82,23.71s-2.09,9.59,2.1,11.17c3.19,1.2,12.15,2.19,17.56,3.13,5.05.88,17.41,5,19.7,2.41,2.24.78,5.91,1,6.48-.52,1.46-.34,2-.76,1.13-2.45-.45-.85-2.38-1.41-2.45-1.42-5.26-.86-24-4.62-31.87-5.76,0-.84-2.36-2.13-3.58-2.22a43.94,43.94,0,0,1-1-4.5c-.39-2.3-1.65-13.45-1.74-17.14s.5-19.15.5-19.15S75.83,65.38,70.52,74.71c-3.11,5.46-9.93,19.39,2.32,24.24C78.73,101.28,85.68,99.4,87.37,100Z"/><path class="cls-16" d="M70.52,74.71C75.83,65.38,98.38,91.2,98.38,91.2s-.59,15.45-.5,19.15,1.34,14.85,1.74,17.14a43.94,43.94,0,0,0,1,4.5c1.22.08,3.58,1.38,3.58,2.22,6.14.89,17.67,4.58,23.46,5.64l5.86-.48A25.39,25.39,0,0,1,136,140c.92.83-1.15,1.11-2.45,1,.67,1.21-3.26,1.51-5.5.73,1.53,3-9.76.37-15.64-.4-4.47-.59-15.74-1.52-18.93-2.72-4.19-1.58-2.42-5.15-2-10.94s-.15-20.69-.82-23.71a5.59,5.59,0,0,0-3.3-4c-1.69-.57-8.62,1.25-14.53-1C60.23,94.09,67.41,80.17,70.52,74.71Z"/><path class="cls-17" d="M69.23,76.22,103.53,92c-1.67,5.59-3.3,13.63-3.22,17.33s.36,14,.76,16.26,1,3.64,1.38,5.32c1.84.53,2.77,1.81,3.58,2.09,8.39,1.67,21.46,5.13,24.23,5.77s3.24.54,4,.8c.52.17.22.83-1.38.74l-1.33.15c.7.45-.68,1.17-3.22.67a2.75,2.75,0,0,1-1.57,0c.65,2.44-10.62-.34-15.67-1.24-5.2-.92-13.38-1.84-16.52-3.17s-2.52-3.13-2.1-8.92.05-22.09-.62-25.11S90,97.6,87.58,96.93c-1.72-.46-7.5,1.67-11.86,1.1C68.15,97,61.43,93.13,69.23,76.22Z"/><path class="cls-3" d="M91.13,94.1c-5.17-3.78-9.35.72-11.91,1.71-14.66,5.7-19.76-10-5.76-28.3C73.47,67.51,101.82,101.92,91.13,94.1Z"/><path class="cls-18" d="M73,67.93c3.71-4.93,9.66-5.71,12.58-5.71,3.86,0,12.77,3.92,15.9,10.64S105.14,84,104.5,88C98,90.1,82,82.49,73,67.93Z"/><path class="cls-11" d="M70.93,71.65C72.72,66.41,76,64.31,81.5,65,88.28,65.81,95,78.19,100,85c3,4.08,4.77.54,4.77.54.19,2.71-2.54,11.73-3,13.58-1.27,4.06-4.88,4.91-7.88-1.2-2.77-5.64-7.37-8-12.26-7.57C67.39,91.7,68.7,78.19,70.93,71.65Z"/><path class="cls-19" d="M145.54,15.64a6.32,6.32,0,0,1-1.89-3.94A19.76,19.76,0,0,0,141.82,5s-.48,11.07-.28,12.33A32.46,32.46,0,0,1,145.54,15.64Z"/><path class="cls-20" d="M139,20.69s-1.34-1.67-2.06-2.47A12,12,0,0,1,132.86,9c0-6.63.69-8,1.57-8.76s3.25.16,6,2.75c0,0,3.08,2.73,1.57,9.84a23.35,23.35,0,0,0-.21,3.82S140.79,18.23,139,20.69Z"/><path class="cls-21" d="M139,19.21s-2.79-3.18-2.79-6.75c0-10,5.12-4.83,5.12-4.83a15.17,15.17,0,0,1,.18,5.54,14.83,14.83,0,0,0,.29,3.48A15.5,15.5,0,0,0,139,19.21Z"/><path class="cls-14" d="M141.13,8.45A7.87,7.87,0,0,0,140.39,3c1.91,1.9,2.66,4.79,2,9.76a30,30,0,0,0,0,4,8.88,8.88,0,0,0-2.27,1.68,8.5,8.5,0,0,1-.75-5.08C139.68,11.58,140.65,10.22,141.13,8.45Z"/><path class="cls-19" d="M147.69,15.9A7.06,7.06,0,0,0,150,12.33a27.37,27.37,0,0,1,2.74-6.11s-1.6,10.49-2,11.7A8.2,8.2,0,0,0,147.69,15.9Z"/><path class="cls-22" d="M152.54,21.46a13.21,13.21,0,0,1,1.6-2.15c.71-.67,3-1.29,4.48-7.83s1.25-8,.76-8.91-2.47-.39-5.06,1.72c0,0-2.9,2.18-3.34,9.45a31.09,31.09,0,0,1-.68,3.8A8.52,8.52,0,0,1,152.54,21.46Z"/><path class="cls-23" d="M152.15,20.37s2.72-3.37,3.24-6c1.94-9.88-2.76-5.62-2.76-5.62a20.16,20.16,0,0,0-1.35,5.44,19.66,19.66,0,0,1-1,3.39A6.27,6.27,0,0,1,152.15,20.37Z"/><path class="cls-24" d="M152.57,9.54a10.25,10.25,0,0,1,1.75-5.25c-1.84,1.56-3.05,4.12-3.34,9.45a29.69,29.69,0,0,1-.68,3.8,7.28,7.28,0,0,1,1.58,2.23,20.42,20.42,0,0,0,1.21-4.86C153.25,13.07,152.53,11.37,152.57,9.54Z"/><path class="cls-12" d="M125.59,61.27a22.89,22.89,0,0,0,1.54-4.42,36.66,36.66,0,0,1,1.24-4.59c1.29,2.4,4.06,17.8,4.06,17.8-1.55,2.44.72,10.86,1.76,13a39.71,39.71,0,0,1,2.21,5.51,44.36,44.36,0,0,0,2.26,5.51,4.55,4.55,0,0,1,.46,2.59,10.14,10.14,0,0,1,1.09,2.44,21.16,21.16,0,0,0-1.49,3.43c-.29,1.17-2.65.42-5.73-2A8.64,8.64,0,0,1,134,97c-.4-2.48-.81-5.35-1.2-7s-2.85-6.68-5.46-11.17a26.1,26.1,0,0,1-3.82-11.67C123.28,63.65,125,62.28,125.59,61.27Z"/><path class="cls-17" d="M126.63,61.63a7.88,7.88,0,0,0,.81-2.63s5.5,10,5,11.06c-1.14,2.32.72,10.86,1.76,13a39.71,39.71,0,0,1,2.21,5.51,55.15,55.15,0,0,0,2.26,5.51c.58,1.26-3.37,2.52-3.87.11-.36-1.74-.84-3.88-1.09-5a61.49,61.49,0,0,0-5.25-11.59c-2.6-4.49-3.44-6.58-3.7-10.11C124.56,64.91,125.8,63.16,126.63,61.63Z"/><path class="cls-15" d="M133.21,99.17c-.13,1.61,1.13,2.8,1.92,1.53,0,0,.17,1.27.71,1.6s1.27-.37,1.27-.37c.89.92,1.48.61,1.7-.06a4.84,4.84,0,0,0,.08-1.77c1.12.61,1.21-1.13.89-2.17,1.28,2.8.1,4.19-.53,3.33.22,2-.25,4.55-1.07,4.72s-1.16-1.1-1.16-1.1-.23.9-1,.92c-1.36,0-1.09-3.82-1.09-3.82s-.53,1.65-1.18,1.6S132.69,101.77,133.21,99.17Z"/><path class="cls-18" d="M136.82,62.28c-3.21-.22-6.4-.71-9.61-.87.18-2,.38-3.73.4-4.28.22-6.49,3.07-10.9,6-12,2.41-1,4.6,1.94,5.55,6.45.89,4.19-1.24,8.85-1.24,8.85Z"/><path class="cls-11" d="M127.61,57.13a18.18,18.18,0,0,1,2.12-8.28c-.49,4.68-.57,9.82,3.16,12,.94.55,3.77,1.27,5.14-.79,0,0-1.63,3.08-2.11,3.83-1.81,2.82-2.58,4.59-3.49,6.19-2.42,3-5.54-.2-5.54-3.1C126.89,63.43,127.57,58.17,127.61,57.13Z"/><path class="cls-12" d="M92.75,98.51c.17,2.61.78,7.09,1.18,13.72.46,7.82,0,18.54.8,19,1.22.73,1.43-3.18,1-11.58a169.14,169.14,0,0,0-2.22-19.76C93.11,97.89,92.65,96.92,92.75,98.51Z"/><path class="cls-7" d="M102.45,130.92s-3.76,2.22-4.91,4.35a9.31,9.31,0,0,1,4.59-5.56A8.35,8.35,0,0,1,102.45,130.92Z"/><path class="cls-25" d="M130.85,144.36s-.64-2.67-6.83-4c-.25-.17-.21-.61,2.45.11s5.27,2.55,5.73,4.29A10.36,10.36,0,0,1,130.85,144.36Z"/><path class="cls-25" d="M137.34,143.84s0-1.33-2-2.2a34.47,34.47,0,0,0-6.63-1.78c-1.72-.38-.35-.65,2.53.06s6.28,1.1,6.84,3.69A5.56,5.56,0,0,1,137.34,143.84Z"/><path class="cls-26" d="M143.92,32.2c-1.52-1.31-3.16-2.54-4.56-4-1-1-2-1-3.19-1.87.49-5.56,2.79-10.31,9.75-10.74,0,0,3.78-.14,6.13,2S154,20.49,155,21c.73.4,1.93,2.53.8,4a2.87,2.87,0,0,0-.33,2.54s1.26,1.26.64,4.54-1.77,3.79-1.77,3.79S146.1,34.08,143.92,32.2Z"/><path class="cls-11" d="M143.92,32.2c-1.52-1.31-3.16-2.54-4.56-4-1-1-2-1-3.19-1.87.49-5.56,4.44-9.84,9.86-9.84A8.55,8.55,0,0,1,151.5,18c1.5,1,2.35,2.81,3.15,3.09S157,23.42,155.79,25a2.87,2.87,0,0,0-.33,2.54s1.26,1.26.64,4.54-1.77,3.79-1.77,3.79S146.1,34.08,143.92,32.2Z"/><path class="cls-27" d="M152.42,24.51c.45-1.36,3.33-1.9,3.83-.79a2,2,0,0,1-.46,1.3,2.87,2.87,0,0,0-.33,2.54s1.26,1.26.64,4.54-1.75,3.9-1.75,3.9S150.89,29.11,152.42,24.51Z"/><path class="cls-28" d="M155.65,27.81a1.47,1.47,0,0,1-1.26.79,2.28,2.28,0,0,0-1.85,2c-.69-1.58-.78-5.45.08-6.61s3.14-1.35,3.63-.23a2.6,2.6,0,0,1-.53,1.47A3.71,3.71,0,0,0,155.65,27.81Z"/><path class="cls-12" d="M136.17,26.35s6.82,4.46,8.43,4.74c1.33.23,1,9.34,1,9.34a21.86,21.86,0,0,1-6.47-2.32C137.19,36.88,133.91,35.89,136.17,26.35Z"/><path class="cls-11" d="M136.17,26.35c.68-3.74,1.21-4.2,2.63-4.72a19.6,19.6,0,0,0,4.54-1.4,7.81,7.81,0,0,1,2.18-.7c0,6.2.16,12.4,0,18.6a12.48,12.48,0,0,1-5.94-1.25C137.27,35.39,134.52,33.18,136.17,26.35Z"/><path class="cls-29" d="M141.7,28.17c-1.68.06-2.73-.82-2.94-1.82-.09-.44-.15-2.08.5-2.39a3.55,3.55,0,0,1,3.68.28,8.77,8.77,0,0,1,1.85,5C143.9,28.31,143.43,28.11,141.7,28.17Z"/><path class="cls-10" d="M145.26,31.6c.53-11.23-6.64-8.31-6.82-8.32-.79,0-.11-1.46.36-1.64.92-.37,2.41-.31,4.54-1.4a10.19,10.19,0,0,1,6-.71c1,.25,1.46,1.46,4.79,1.85a1.17,1.17,0,0,1,1.05,1.18,3.09,3.09,0,0,0-3,1.3c-1.05,1.36-.53,4.17-.53,4.17C151.41,28.67,145.15,34,145.26,31.6Z"/><path class="cls-12" d="M148,25.75c.69-1,2.33-1.24,3.74,2.51.4,1.07.91,2.56,1.31,3.76s1.18,3.53,1.33,4a2.54,2.54,0,0,1-1.85,2.87A3.55,3.55,0,0,1,149,41.69a4.08,4.08,0,0,1-3.07-1,4.66,4.66,0,0,1-2.18-3.8C143.78,34.9,146.67,27.64,148,25.75Z"/><path class="cls-14" d="M148,25.75c.69-1,2.33-1.24,3.74,2.51.4,1.07.91,2.56,1.31,3.76s1.18,3.53,1.33,4a2.54,2.54,0,0,1-1.85,2.87A3.55,3.55,0,0,1,149,41.69a4.08,4.08,0,0,1-3.07-1,23,23,0,0,1-.53-3.53C145.15,34.5,146.67,27.64,148,25.75Z"/><path class="cls-12" d="M143.73,36.86c.21.06,2.11,1.52,2.41,1.7.77,2.24,3.83,3,5.23,1.46a1.58,1.58,0,0,0,.33-.75l.8-.41A3.55,3.55,0,0,1,149,41.69a5.08,5.08,0,0,1-3.57-1.25S143.35,38.86,143.73,36.86Z"/><path class="cls-12" d="M145.4,35.58c0,2.58,3.76,3.28,4.75,2.17a2.75,2.75,0,0,0,1.85.41A2.41,2.41,0,0,0,154.36,36a2.54,2.54,0,0,1-1.85,2.87,6.18,6.18,0,0,1-4.26.64,5.63,5.63,0,0,1-3.76-2.13C144.41,37.11,145.4,35.58,145.4,35.58Z"/><circle cx="141.21" cy="25.8" r="1.84"/><ellipse cx="154.39" cy="26.07" rx="1.47" ry="1.83" transform="translate(-0.45 2.82) rotate(-1.04)"/><path class="cls-30" d="M150.06,39.39a15.38,15.38,0,0,0,.18-4.16l-.13.11a17.47,17.47,0,0,1-.36,3.94Z"/><path class="cls-30" d="M145.43,37.74S147.8,40.25,150,39a3.35,3.35,0,0,0,2.48-.14l-.11.33a2.55,2.55,0,0,1-2.47.31c-1.22.4-2,.56-3.87-.72C144.71,38.1,144.51,37.17,145.43,37.74Z"/><path class="cls-30" d="M151.22,39.66a2.6,2.6,0,0,1-3,.13A3.56,3.56,0,0,1,151.22,39.66Z"/><circle class="cls-31" cx="140.7" cy="24.96" r="0.59"/><circle class="cls-31" cx="153.89" cy="25.2" r="0.5"/><path class="cls-32" d="M147.39,32.14c.35-2.22,1.15-5.38,2.08-5.51s2.33,3.31,3.11,5.51A5.76,5.76,0,0,0,147.39,32.14Z"/><path class="cls-33" d="M150.2,36.36A7.21,7.21,0,0,0,148.13,35c-1.58-.43-1.31-1.64-.23-2.31,1.44-.89,4.4-.64,5,.55C153.86,35,151.23,35.21,150.2,36.36Z"/><path class="cls-34" d="M147.69,32.69c1.62-.94,4.61-.66,5.22.53a1.13,1.13,0,0,1,0,1.3,2.09,2.09,0,0,0-2.3,1.48l-.42.37-.39-.31a2.63,2.63,0,0,0-2.69-1.73A1.25,1.25,0,0,1,147.69,32.69Z"/><path class="cls-35" d="M150.22,34c-1.78,0-2.52-.5-2.52-.84a.65.65,0,0,1,.31-.65c1.31-.78,4.58-.43,4.61.55C152.64,33.61,151.58,34.06,150.22,34Z"/><ellipse class="cls-36" cx="150.24" cy="32.75" rx="1.61" ry="0.43"/><path class="cls-27" d="M140.23,38.74l0,1.46s-3.43-1.64-4.23-3.93c0-.7-.07-1.27-.07-1.27a8.14,8.14,0,0,0,.75,1.28A13.49,13.49,0,0,0,140.23,38.74Z"/><path class="cls-11" d="M136,36.27a4.91,4.91,0,0,1-.29-.94c0-.34,0-1,0-1s.18.59.23.68S136,36.27,136,36.27Z"/><path class="cls-37" d="M151.08,48.68s-.51,3.62-.88,5.08c-.43,1.72-2.62,6.9-7.07,12.76a18.32,18.32,0,0,0,1,2.85,93.67,93.67,0,0,0,5.28-10.65A29.65,29.65,0,0,0,151.08,48.68Z"/><path class="cls-38" d="M144.16,69.37s-1.23,2-1.69,3a26.7,26.7,0,0,1-.69-4l1.36-1.83S143.64,68.14,144.16,69.37Z"/><path class="cls-13" d="M129.23,82.23s-2-3.56-2.34-4.2-1.59-3.32-1.59-3.32L123,76.35s1.83,5.77,2.93,8.3C127,84,129.23,82.23,129.23,82.23Z"/><path class="cls-39" d="M125.3,74.71a23.8,23.8,0,0,1-1.5-5.22c-.42-2.75-.36-3.5.13-5.17a13.41,13.41,0,0,1,1.72-3.15c1.47-2.41,1.54-5.89,2.9-9.63-.64,1.42-2.19,5.86-2.69,7S123.55,61.86,123,63s-2.62,4.95,0,13.35C123.88,75.75,125.3,74.71,125.3,74.71Z"/><path class="cls-1" d="M75,99.6s-9.76-2.44-9.69-12C65,91.41,65.65,97,70.93,101Z"/><path class="cls-13" d="M145.41,40.43a6.53,6.53,0,0,1-1.73-2.87,6.13,6.13,0,0,0,.86,2.64Z"/><path class="cls-3" d="M104.3,80.75l1.78.16a55.25,55.25,0,0,0-5.45-9.65C100.89,71.87,103.54,77,104.3,80.75Z"/></svg>