<svg id="Layer_1" data-name="Layer 1" xmlns="http://www.w3.org/2000/svg" viewBox="0 0 23.23 90.44"><defs><style>.cls-1{fill:#2a304a;}.cls-2,.cls-8{fill:#fff;}.cls-2{opacity:0.25;}.cls-3{fill:#080307;}.cls-4{fill:#161416;}.cls-5{fill:#2c73e7;}.cls-6{fill:#e3793d;}.cls-7{fill:#50311f;}.cls-8{opacity:0.37;}</style></defs><title>lizard</title><path class="cls-1" d="M8.88,36a2.24,2.24,0,0,1,.58-.44h0a.73.73,0,0,1,.36-.08,1.36,1.36,0,0,1,.57.23l1,.6a.61.61,0,0,1,.31.33,1,1,0,0,1-.3.87l0,0-1,1.18-.65.74h0l0,0a1.39,1.39,0,0,1,1.26.33,13.74,13.74,0,0,1,1.08,1A11,11,0,0,0,15,42.69a2.34,2.34,0,0,0,1.27.35,1.09,1.09,0,0,1-.18.29h0a.9.9,0,0,1-.7.32,2.21,2.21,0,0,1-1-.36l-2.19-1.21v0a6.06,6.06,0,0,0,.64,2.21,15.11,15.11,0,0,0,1.28,2.56,19.28,19.28,0,0,1,2,4.19,1.16,1.16,0,0,0,.36.62.58.58,0,0,1-.34-.08,1.4,1.4,0,0,1-.49-.52,11.57,11.57,0,0,1-.52-1.17,10,10,0,0,0-1-1.72q-.74-1.06-1.51-2.1a2.19,2.19,0,0,1,.26.67c.08.33.15.69.22.91l.49,1.67c.09.32.42,1,.25,1.35a.37.37,0,0,1-.14.17c-.21.12-.45-.25-.55-.49a15.81,15.81,0,0,1-.71-2.13v0h-.07c-.15,0-.25-.27-.33-.48L11.4,46a.47.47,0,0,0-.12-.22.48.48,0,0,0-.16-.05c-.23-.07-.33-.46-.39-.8l-.3-1.65-.12-.64a2.94,2.94,0,0,0-1.92-.43H8.28a2.48,2.48,0,0,1-1.6-.47,1.79,1.79,0,0,1-.35-.39,1.36,1.36,0,0,1-.22-.49,1.75,1.75,0,0,1,0-.45,4.8,4.8,0,0,1,1.24-2.69A19,19,0,0,1,8.88,36Z"/><path class="cls-2" d="M8.05,41.42a.15.15,0,0,0,.09-.14.24.24,0,0,0-.05-.11.55.55,0,0,1,0-.43,1,1,0,0,1,.21-.34,11.76,11.76,0,0,1,1.15-1.15,2.59,2.59,0,0,1,.42-.33,4.11,4.11,0,0,1,.56-.23,2.41,2.41,0,0,0,.77-.51.81.81,0,0,0,.2-.28.51.51,0,0,0,0-.39c-.08-.15-.23-.14-.36-.12l-.45.07a.4.4,0,0,0-.37.27c0,.05,0,.11,0,.17a.48.48,0,0,1-.29.29,4.92,4.92,0,0,0-.93.6l.36,0A.42.42,0,0,1,9,39,3.75,3.75,0,0,0,7.6,40.57a1.15,1.15,0,0,0-.14.32C7.33,41.43,7.78,41.54,8.05,41.42Z"/><path class="cls-3" d="M8.88,36a2.24,2.24,0,0,1,.58-.44h0l.91,1a2,2,0,0,1-.7.51A7.53,7.53,0,0,0,6.86,40a2.19,2.19,0,0,0-.36,1.17,1.45,1.45,0,0,0,.18.63,1.79,1.79,0,0,1-.35-.39,1.36,1.36,0,0,1-.22-.49,1.75,1.75,0,0,1,0-.45,4.8,4.8,0,0,1,1.24-2.69A19,19,0,0,1,8.88,36Z"/><path class="cls-3" d="M9.71,39.45l0,0a1.39,1.39,0,0,1,1.26.33,13.74,13.74,0,0,1,1.08,1A11,11,0,0,0,15,42.69a2.34,2.34,0,0,0,1.27.35,1.09,1.09,0,0,1-.18.29h0a2.59,2.59,0,0,1-1.6-.53l-.77-.46-.87-.51a4.48,4.48,0,0,1-1.25-1,2,2,0,0,0-.32-.35A1,1,0,0,0,11,40.4a3.32,3.32,0,0,0-1-.21,1.27,1.27,0,0,0-1,.41c-.13.14-.26.33-.42.32a.12.12,0,0,1-.11-.09.29.29,0,0,1,.05-.21A3.05,3.05,0,0,1,9.71,39.45Z"/><path class="cls-3" d="M13.81,50.72a.37.37,0,0,1-.14.17,9.29,9.29,0,0,0-.56-1.81,20.09,20.09,0,0,1-.95-3.58,9.08,9.08,0,0,1,.69,1.29c.08.33.15.69.22.91l.49,1.67C13.66,49.69,14,50.38,13.81,50.72Z"/><path class="cls-3" d="M11.73,46.11a6.59,6.59,0,0,1,.69,2.15v0h-.07a1.12,1.12,0,0,0,0-.25,3.17,3.17,0,0,0-.27-.77A6.32,6.32,0,0,1,11.73,46.11Z"/><path class="cls-3" d="M12,42a.44.44,0,0,1,.23.09,6.06,6.06,0,0,0,.64,2.21,15.11,15.11,0,0,0,1.28,2.56,19.28,19.28,0,0,1,2,4.19,1.16,1.16,0,0,0,.36.62.58.58,0,0,1-.34-.08c-.42-.95-.84-1.9-1.28-2.84a10.73,10.73,0,0,0-.55-1.07c-.21-.34-.44-.64-.66-1a12.71,12.71,0,0,1-1.22-2.47A5.33,5.33,0,0,1,12,42Z"/><path class="cls-2" d="M8.4,42.24a2.7,2.7,0,0,1,1.46-.37,3,3,0,0,1,.61.15,1.48,1.48,0,0,1,.45.21,1.72,1.72,0,0,1,.35.4,11,11,0,0,1,1.11,2.51c-.29-.17-.44-.66-.72-.85a.13.13,0,0,0-.11,0c-.05,0-.09.09-.11.16a1.29,1.29,0,0,0,.09.72l.22.64c-.32-.31-.41-1-.72-1.32a1.45,1.45,0,0,0,0,.63s-.06,0-.07,0a4.43,4.43,0,0,1-.21-1,1.52,1.52,0,0,0-.3-.76l-.12-.64A2.94,2.94,0,0,0,8.4,42.24Z"/><path class="cls-3" d="M8.09,14.87A5.14,5.14,0,0,1,9.2,13a14.18,14.18,0,0,1-.73,2.82A2.09,2.09,0,0,1,9.7,15L8.27,17.32a4.51,4.51,0,0,1-1.08,1.34c-.24.18-.52.47-.25.63a.75.75,0,0,0,.27.07l2.82.39a9.7,9.7,0,0,1,2.69.42,1.21,1.21,0,0,1,.48.34c.14.19-.17.53-.37.69-2.75-.42-5.69.32-8.37-.24-.47-.1-1-.29-1.07-.63s.17-.55.41-.78l.65-.64.24-.24A3,3,0,0,0,5.79,17,1.76,1.76,0,0,0,5.53,16a9,9,0,0,1-.82-1.52,3.44,3.44,0,0,1,1.51,1.4c.41-1.36-.4-2.75-.49-4.16,1.07.89.56,2.37,1.58,3.29a12.57,12.57,0,0,1,1.1-3.37,1.12,1.12,0,0,1,.08.87Z"/><path class="cls-2" d="M7.15,19.88a3.83,3.83,0,0,0-2.34-.33,1.29,1.29,0,0,0-.6.23.28.28,0,0,0,0,.45,1,1,0,0,0,.65.11,9.17,9.17,0,0,1,1.66,0c.28,0,.54.1.82.13a1.36,1.36,0,0,0,.79-.12c-.06-.15-.22-.13-.39-.18A2.58,2.58,0,0,1,7.15,19.88Z"/><path class="cls-2" d="M7.49,16.66a1.53,1.53,0,0,1-.46.9,11.38,11.38,0,0,1-1.69.72,7.23,7.23,0,0,0-.69.5l-.21.13.24-.24A3,3,0,0,0,5.79,17,1.76,1.76,0,0,0,5.53,16l.49.23a.58.58,0,0,0,.46,0c0,.06.09.11.17.09a.16.16,0,0,0,.12-.15,1.21,1.21,0,0,0,0-.18.38.38,0,0,1,.2-.35c.14.16.1.36.12.54A.44.44,0,0,0,7.49,16.66Z"/><path class="cls-4" d="M7.86,3.1a1.61,1.61,0,0,1,0,.22c.11.76.15,1.51.24,2.27A5.12,5.12,0,0,0,8.89,8a9.32,9.32,0,0,0,1.51,1.5,4.15,4.15,0,0,1,.6.66,6,6,0,0,1,.73,1.83,6.85,6.85,0,0,0,1.4,2.77s1.36-1.61,1.33-.07a4,4,0,0,0,0,.53c.25,2.07,1.78,7.26,2.74,11.45.5,2.2,0,5.21-.7,7.71-.15.56-.31,1.1-.47,1.6-.37,1.17-.72,2.13-.94,2.67l-.2.5s.07.55.13,1.49c.23,3.52.38,12.48-3.21,19.46A39.21,39.21,0,0,1,9.6,64c-.71,1.06-1.63,1.9-2.33,3a43,43,0,0,0-3.85,7.27,11.6,11.6,0,0,0-.74,2.3c-.38,2.17.18,3.84.58,5.66a30.93,30.93,0,0,1,.47,6.37,7.5,7.5,0,0,1-.16,1.92A32.2,32.2,0,0,0,2,84.16C1.4,82.26.38,80.49.45,78.22c.1-3.42,2-7.32,4.41-10.85A47,47,0,0,0,9.53,58.6a19.19,19.19,0,0,0,.57-13c-.29-.89-.53-1.75-.75-2.57l0-.19-.07-.27L9,41.77l-.2-.86-.29-1.28c-.11-.49-.22-1-.33-1.46l0-.09A40.17,40.17,0,0,1,7.14,28.8a39.71,39.71,0,0,0-.23-5.11C6.85,23,6.78,22.38,6.77,22a3.14,3.14,0,0,0-.09-.6c0-.21-.11-.44-.2-.7a15,15,0,0,0-.6-1.51,14.5,14.5,0,0,0-2.44-3.8A8.4,8.4,0,0,1,1.88,12.8,13.11,13.11,0,0,0,.8,10.12a7.32,7.32,0,0,1-.59-.8,2.53,2.53,0,0,1,.1-2.19c.23-.51.54-1,.8-1.48a9.22,9.22,0,0,0,.45-1.33c.25-.76.53-1.66.76-2.34l.15-.43A2.46,2.46,0,0,1,4,.14,3,3,0,0,1,4.46,0c1.1-.19,2,1,2.62,1.77A4.46,4.46,0,0,1,7.86,3.1Z"/><path class="cls-5" d="M7.07,67a.35.35,0,0,0-.16.07l-.17.12c-.16.09-.35,0-.37-.1a5,5,0,0,0-1,1.56,4.6,4.6,0,0,1-1.08,1.54s-.07.05-.1,0a0,0,0,0,1,0,0,1.31,1.31,0,0,1,.06-.65.91.91,0,0,0,0-.54c-.06-.14-.2-.08-.36-.09C1.92,72,.53,75.3.45,78.22c-.06,2.27,1,4,1.6,5.94a32.2,32.2,0,0,1,1.54,6.28,7.5,7.5,0,0,0,.16-1.92,30.93,30.93,0,0,0-.47-6.37c-.4-1.82-1-3.49-.58-5.66a11.6,11.6,0,0,1,.74-2.3q.43-1.05.94-2.11Q5,70.76,5.74,69.44q.37-.66.77-1.31l.41-.65c.06-.1.36-.45.17-.46Z"/><path class="cls-6" d="M3.59.69c.12,0,.25,0,.28.09s-.09.32-.14.48a.63.63,0,0,0,.14.6,1.38,1.38,0,0,1,.32.49,1.82,1.82,0,0,1-.18,1,5,5,0,0,0-.33,3.56.9.9,0,0,1,.1.27,1.83,1.83,0,0,1,0,.33.84.84,0,0,0,.38.81c.05,0,.11.06.13.11s-.1.31-.16.48.12.49.22.72a2.45,2.45,0,0,1-.26,1.76L3.9,9.29a.75.75,0,0,0,0-.22c-.08-.19-.32-.25-.42-.42s0-.72,0-1.07a1.6,1.6,0,0,0-.1-.37,5.05,5.05,0,0,1,0-3A3.14,3.14,0,0,0,3.64,2.7,4.38,4.38,0,0,0,3.32,2a.81.81,0,0,1,.11-.82S3.29,1,3.3.93,3.51.72,3.59.69Z"/><path class="cls-6" d="M2.31,2c0,.08,0,.17,0,.25C2.38,3,2,3.83,2,4.57a4.36,4.36,0,0,0,.19.89A5.36,5.36,0,0,1,2.31,7.3a2.75,2.75,0,0,0,0,1.26,1.37,1.37,0,0,1,.12.3,1.06,1.06,0,0,1,0,.3l-.11.9a.12.12,0,0,1,0,.08.09.09,0,0,1-.09,0c-.21,0-.28-.29-.26-.53A4.9,4.9,0,0,0,2,8.91c0-.15-.07-.28-.1-.42a7,7,0,0,1,.16-1.54,3.64,3.64,0,0,0-.18-1.21c-.08-.28-.15-.57-.23-.85a2.68,2.68,0,0,1-.12-.53v0C1.81,3.56,2.09,2.67,2.31,2Z"/><path class="cls-6" d="M3.11,11.24a.84.84,0,0,1,.23.19.1.1,0,0,1,0,.07.16.16,0,0,1-.1.11.28.28,0,0,1-.13,0l-.37-.05a.32.32,0,0,1-.13,0,.26.26,0,0,1-.07-.08A1.21,1.21,0,0,1,2.42,11c-.05-.31.09-.28.25-.13A3.26,3.26,0,0,0,3.11,11.24Z"/><path class="cls-6" d="M3.49,12.26a.23.23,0,0,1-.05-.09.33.33,0,0,1,0-.25.58.58,0,0,1,.27-.25L4,11.53a.35.35,0,0,1,.21,0c.1,0,.11.15.1.26s.11.44-.23.57A.9.9,0,0,1,3.49,12.26Z"/><path class="cls-6" d="M6.11,5.66A.93.93,0,0,1,6.18,6c0,.1,0,.21,0,.31a.89.89,0,0,0,.08.31A15.41,15.41,0,0,1,6.63,9a8,8,0,0,0,.74,2l.45.9a.28.28,0,0,1-.3.1.43.43,0,0,1-.18-.19,3.37,3.37,0,0,0-.59-.7,1.44,1.44,0,0,1-.24-.24,1.32,1.32,0,0,1-.15-.33,5.31,5.31,0,0,1-.24-.87C6,9.07,6.1,8.42,6,7.85a6.1,6.1,0,0,1-.16-.79c0-.18,0-.37,0-.56-.06-1-1-1.54-1.07-2.56a3.68,3.68,0,0,1,0-.52c0-.2.14-.84.33-.47a7.88,7.88,0,0,1,.34.92Z"/><path class="cls-7" d="M7.91,3.09,8.3,4.18a3.73,3.73,0,0,1,.12.37A2.27,2.27,0,0,1,8.23,6a.61.61,0,0,1,.4.64c0,.26-.14.58,0,.78s.26.18.25.35-.07.3-.24.27A.23.23,0,0,1,8.46,8a2.52,2.52,0,0,1-.15-.36,2.94,2.94,0,0,1,0-.37,4.61,4.61,0,0,0-.19-.64c-.24-.85.07-2-.24-2.77A1.45,1.45,0,0,0,7.13,3,6.58,6.58,0,0,1,6,2.56c-.43-.34-.52-1-.79-1.48A2,2,0,0,0,4,.14,3,3,0,0,1,4.46,0C5.74-.2,7.08,1.64,7.91,3.09Z"/><path class="cls-6" d="M9.32,9.74s.12.43.36,1.16c.12.36.28.8.47,1.28s.43,1,.72,1.58c.14.28.3.56.48.85l.14.21.14.21.31.42c.21.28.42.58.62.89l.3.48.28.5.14.26.13.26.13.27.13.27.25.55.23.57.12.29.11.29.21.59.19.6.1.3c0,.1.06.21.09.31l.17.62,0,.15,0,.16.07.31.14.62.12.63c0,.21.08.42.11.63l.09.63c0,.21.06.41.08.62l.06.62.06.61,0,.61c0,.4,0,.79,0,1.18v1s0,0,0,0v.11c0,.37-.06.73-.1,1.08-.08.7-.19,1.34-.31,1.92s-.24,1.07-.37,1.49l-.09.29-.08.26-.07.22-.07.19-.12.34.11-.34.06-.19.06-.22.07-.26.08-.29c.11-.41.22-.91.32-1.48s.19-1.2.26-1.89c0-.34.06-.7.08-1.07v-.54l0-.56c0-.38,0-.77-.07-1.16l0-.6-.07-.6-.07-.62c0-.21-.06-.41-.09-.62l-.09-.62c0-.21-.08-.41-.11-.62l-.12-.63L15,23.28,14.93,23l0-.16,0-.15-.17-.61c0-.1-.05-.21-.08-.31l-.09-.3-.19-.6-.21-.59L14,20l-.11-.29-.23-.57-.24-.55-.12-.27L13.17,18,13,17.75l-.13-.26L12.63,17l-.28-.48c-.19-.32-.39-.62-.6-.9l-.3-.43-.14-.22-.13-.22q-.25-.44-.46-.87a16.42,16.42,0,0,1-.67-1.62c-.18-.5-.31-.95-.42-1.32s-.18-.67-.23-.87Z"/><path class="cls-6" d="M7,10.59c0,.06,3.46,5.92,4.41,7.93s3.15,10.35,2.34,13.93c-.61,2.66-.16,7.57.05,9.5.06.5.1.81.1.82a35,35,0,0,1-.22,8.55,34.09,34.09,0,0,1-1.93,7.52l-.17.43a27.81,27.81,0,0,1-5,8.12l-.26-.16a30.05,30.05,0,0,0,7-15.8,34.76,34.76,0,0,0,.21-8.47c0-.06-.05-.4-.11-.94-.22-2-.65-6.8,0-9.5.78-3.44-1.43-11.81-2.33-13.71s-4.36-7.84-4.4-7.9Z"/><path class="cls-6" d="M4.11,12a18.31,18.31,0,0,0,2.47,4c1.13,1,3,5.87,3.44,9,.08.51.16,1,.23,1.46A45.77,45.77,0,0,1,11,36a37.93,37.93,0,0,0,.49,7.4c.07.39.13.59.13.6a22.79,22.79,0,0,1,.63,4.92A26.3,26.3,0,0,1,10.51,59q-.17.43-.35.86a25.91,25.91,0,0,1-4.93,7.89,6.08,6.08,0,0,0-1.43,1.81,5.42,5.42,0,0,1-.53,1.11A5.44,5.44,0,0,0,3.56,70a12.29,12.29,0,0,1,.51-1.27,3,3,0,0,1,.38-.63c.17-.2.4-.38.58-.57A25.46,25.46,0,0,0,9.8,59.87,25.71,25.71,0,0,0,11.8,49a22.59,22.59,0,0,0-.63-4.86s-.06-.23-.14-.66a38.44,38.44,0,0,1-.49-7.42,45.46,45.46,0,0,0-.71-9.44c-.08-.47-.16-1-.23-1.47-.52-3.39-2.36-8-3.37-8.88a18.12,18.12,0,0,1-2.53-4.06Z"/><path class="cls-6" d="M6.68,21.36a17.27,17.27,0,0,1,1,4,24.89,24.89,0,0,0,.48,2.85,17.3,17.3,0,0,1,.34,5.54A44.36,44.36,0,0,0,9.34,43c-.45-1.72-.76-3.31-1.13-4.85a30.79,30.79,0,0,1-.15-4.32,16.85,16.85,0,0,0-.34-5.46,25,25,0,0,1-.49-2.88,14.72,14.72,0,0,0-.33-1.83C6.85,23,6.78,22.38,6.77,22A3.14,3.14,0,0,0,6.68,21.36Z"/><path class="cls-7" d="M11.1,10.87a.32.32,0,0,1,.19,0l.07.08.07.09a.34.34,0,0,1,0,.14l0,.17.09.32a9.63,9.63,0,0,0,.52,1.39q.13.27.27.54l.24.43c-.19.05-.32-.08-.42-.21a5.38,5.38,0,0,1-1-1.89,5.69,5.69,0,0,1-.11-.57A.68.68,0,0,1,11.1,10.87Z"/><path class="cls-3" d="M15.07,4.6l.07.17c-.14-.6.43-1.42,1.09-1.86.49-.33,1.12-.49,1.4-.18a4.07,4.07,0,0,0-1.48,1,1.62,1.62,0,0,0-.41.61,1.09,1.09,0,0,0,0,.53A7.78,7.78,0,0,0,16.47,7a5.23,5.23,0,0,0,0-1.16,2.4,2.4,0,0,1,.2-1.21,1.51,1.51,0,0,1,1-.85s0,.1,0,.13A.86.86,0,0,1,17.5,4a.52.52,0,0,0-.26.44,1.06,1.06,0,0,0,0,.19,16.3,16.3,0,0,1-.07,2.88,3.38,3.38,0,0,0,0,.5,1,1,0,0,0,0,.22c0,.12.09.22.13.33a3,3,0,0,1,0,.69,4.34,4.34,0,0,0,.3,1.22c.06.17.11.34.15.51a2.22,2.22,0,0,1-.44,1.95,4.74,4.74,0,0,1-1,.8,15,15,0,0,0-2.75,2.37,1.06,1.06,0,0,1-.25.22.51.51,0,0,1-.49,0,1,1,0,0,1-.7-1.21,3.38,3.38,0,0,1,1.17-1.36,12.37,12.37,0,0,0,1.27-1.26,2.2,2.2,0,0,0,.42-.62,1.07,1.07,0,0,0,.06-.5c0-.15,0-.3-.08-.44a11.24,11.24,0,0,1,0-1.59,2,2,0,0,0-.57-1.22,3.85,3.85,0,0,1-.66-1.25,1.2,1.2,0,0,1,.95.61l-.77-2.33a1.19,1.19,0,0,1-.08-.56.77.77,0,0,1,.05-.19A.78.78,0,0,1,14.18,4l.06,0-.09-.84a.84.84,0,0,1,.06-.51.53.53,0,0,1,.17-.18c.1-.06.21-.09.27,0A6.27,6.27,0,0,0,15.07,4.6Z"/><path class="cls-2" d="M16.24,2.91c.49-.33,1.12-.49,1.4-.18a4.07,4.07,0,0,0-1.48,1,1.62,1.62,0,0,0-.41.61,1.09,1.09,0,0,0,0,.53A7.78,7.78,0,0,0,16.47,7a5.23,5.23,0,0,0,0-1.16,2.4,2.4,0,0,1,.2-1.21,1.51,1.51,0,0,1,1-.85s0,.1,0,.13A.86.86,0,0,1,17.5,4a.52.52,0,0,0-.26.44.64.64,0,0,0-.37.34.84.84,0,0,0,0,.41,2,2,0,0,1-.06.51,4.74,4.74,0,0,0,0,2c0,.15.09.3.23.34h0a1,1,0,0,0,0,.22c0,.12.09.22.13.33a3,3,0,0,1,0,.69,4.34,4.34,0,0,0,.3,1.22.44.44,0,0,0,0,.05c0,.31.16.62,0,1s-.45.41-.65.64l0,0c-.14.17-.21.37-.35.54s-.64.39-.84.22a.23.23,0,0,1-.09-.15c0-.25.33-.51.4-.79a.36.36,0,0,0,0-.15c0-.22-.3-.32-.54-.38l-.44-.11c0-.15,0-.3-.08-.44a11.24,11.24,0,0,1,0-1.59,2,2,0,0,0-.57-1.22,3.85,3.85,0,0,1-.66-1.25,1.2,1.2,0,0,1,.95.61l-.77-2.33a1.19,1.19,0,0,1-.08-.56.77.77,0,0,1,.05-.19.54.54,0,0,1,.14.25A14.54,14.54,0,0,0,15.14,7a12.58,12.58,0,0,0-.75-2.11c-.06-.24-.08-.5-.16-.72l0-.12.06,0-.09-.84a.84.84,0,0,1,.06-.51.53.53,0,0,1,.17-.18,1.11,1.11,0,0,1,0,.33,7.13,7.13,0,0,0,.82,3.38,3.64,3.64,0,0,0,.38.72,13.08,13.08,0,0,1-.48-1.84,2,2,0,0,1,0-.46l.07.17C15,4.17,15.58,3.35,16.24,2.91Z"/><path class="cls-2" d="M15.85,8.18a1,1,0,0,0,0,.23.3.3,0,0,0,.34.22.29.29,0,0,0,.17-.08.37.37,0,0,0,.08-.14,1.33,1.33,0,0,0,.06-.79.33.33,0,0,0-.06-.13c-.07-.09-.21-.09-.31-.15s-.17-.19-.31-.17-.15.11-.13.21A5.18,5.18,0,0,1,15.85,8.18Z"/><path class="cls-2" d="M16.14,9.69A1.83,1.83,0,0,1,17,11.23a3.79,3.79,0,0,1,0,.47,3,3,0,0,1-.05.42l0,0c-.14.17-.21.37-.35.54s-.64.39-.84.22a.23.23,0,0,1-.09-.15c0-.25.33-.51.4-.79a.36.36,0,0,0,0-.15.58.58,0,0,0,.17-.34.86.86,0,0,0,0-.36,1.13,1.13,0,0,0-.16-.37c-.09-.12-.22-.19-.32-.3A.41.41,0,0,1,15.6,10a.78.78,0,0,1,.26-.3A.36.36,0,0,1,16,9.66.2.2,0,0,1,16.14,9.69Z"/><path class="cls-8" d="M13.33,22.83a16,16,0,0,0-1-2.83,15.55,15.55,0,0,0-3.83-5.16c-1.2-1-1.11-3-1.4-4.66A16.9,16.9,0,0,0,5.82,6.45c-.1-.23-.21-.48-.47-.55a.65.65,0,0,0-.71.47.42.42,0,0,1,.57.52A1.62,1.62,0,0,0,4.51,8a.57.57,0,0,1,1-.12A3.41,3.41,0,0,1,5.53,9a4.67,4.67,0,0,1,.08.88,1,1,0,0,1-.62.78,2.41,2.41,0,0,1,1-.25l-.76.82a1.16,1.16,0,0,1,1.06-.33,3.35,3.35,0,0,1-1,1,1.84,1.84,0,0,1,1.23-.22,3.88,3.88,0,0,0-.92.89,2.46,2.46,0,0,1,1-.32,4.5,4.5,0,0,0-.93.94l.81-.34-.61,1,.79-.39a3.06,3.06,0,0,0-.4.89l.34-.08L7.7,16.54A23,23,0,0,1,9.09,19.7a25.3,25.3,0,0,1,.67,2.71l2,9.38a16,16,0,0,1,.41,2.73c.11,3.11-.3,6.33-.12,9.35.06.92.14,1.84.19,2.76a28.91,28.91,0,0,1-2.27,13.6,25.13,25.13,0,0,1-2,3.63,26.72,26.72,0,0,1-2.66,3.39,10.5,10.5,0,0,0-1.4,1.67,5,5,0,0,0-.25.51,23.85,23.85,0,0,1-1,2.58,10.46,10.46,0,0,0-1.39,5,20.2,20.2,0,0,0,.56,4.5,1.48,1.48,0,0,0,.46,1l-.3-2.63a14.49,14.49,0,0,1,0-4.9,20.84,20.84,0,0,1,.88-2.74,14.38,14.38,0,0,1,1.57-3.67c.14-.19.32-.31.47-.49s.34-.44.53-.65l.73-.81q.71-.82,1.37-1.67a27.71,27.71,0,0,0,2.31-3.51A21.6,21.6,0,0,0,11,58.85a38.29,38.29,0,0,0,2.25-11.73,18.55,18.55,0,0,0,0-2.64c-.06-.78-.22-1.52-.25-2.31-.07-1.77.5-3.74.6-5.59s.31-3.51.53-5.3a24.31,24.31,0,0,0,.24-2.7A19.06,19.06,0,0,0,13.33,22.83Z"/><path class="cls-5" d="M10.16,59.88q-.31.72-.65,1.43A29.05,29.05,0,0,1,7,65.63l-.34.46A26.46,26.46,0,0,1,4.56,68.5a5.28,5.28,0,0,0-.72,1.17q-.19.33-.4.66c-.13.2-.31.42-.42.62a9.33,9.33,0,0,0,.5-1.38,3.34,3.34,0,0,1,.59-1.1c.3-.35.66-.68,1-1A18,18,0,0,0,7.25,64.7,32,32,0,0,0,9.8,59.87,25.71,25.71,0,0,0,11.8,49a22.59,22.59,0,0,0-.63-4.86s-.06-.23-.14-.66a3.1,3.1,0,0,0,.41-.15c.07.39.13.59.13.6a22.79,22.79,0,0,1,.63,4.92A26.3,26.3,0,0,1,10.51,59Q10.35,59.45,10.16,59.88Z"/><path class="cls-5" d="M13.84,41.94c.06.5.1.81.1.82a35,35,0,0,1-.22,8.55,34.09,34.09,0,0,1-1.93,7.52l-.17.43a27.81,27.81,0,0,1-5,8.12l-.26-.16a30.05,30.05,0,0,0,7-15.8,34.76,34.76,0,0,0,.21-8.47c0-.06-.05-.4-.11-.94A1.33,1.33,0,0,1,13.84,41.94Z"/><path class="cls-3" d="M18.4,33.35a2,2,0,0,1,1.16.56,4.33,4.33,0,0,1,.73.86A6.36,6.36,0,0,1,21,36.3a1.37,1.37,0,0,0,.35.66,2.47,2.47,0,0,0,.84.29,1.47,1.47,0,0,1,1,1.26.25.25,0,0,0-.22-.08,3.91,3.91,0,0,1-.6,3.3l0-.51-1.23,3.37.61-3.75c.06-.37.1-.8-.17-1a6.41,6.41,0,0,1-.73,2.26q-1,2-2.12,4a3,3,0,0,1-1.3,1.36,5.56,5.56,0,0,1,.59-1.38l1.21-2.25A9.57,9.57,0,0,0,20.4,41.3c.16-.86-.07-1.7-.79-1.95a10,10,0,0,1-2.76,4l1.52-2.61A3.09,3.09,0,0,0,19,39a1.39,1.39,0,0,0-.28-.59l-.21-.28a8.48,8.48,0,0,0-1.08-1.17,1.9,1.9,0,0,1-.28.67c-.41.71-.92,1.45-1.24,2.16-.21.46-.57,1-1.12.83-.39-.09-.54-.49-.55-.9a7.43,7.43,0,0,1,1.22-3.4l.79-1.45a3.71,3.71,0,0,1,.64-.92A2,2,0,0,1,18.4,33.35Z"/><path class="cls-1" d="M19.33,34.43a2.8,2.8,0,0,0,1,.33A6.36,6.36,0,0,1,21,36.3a1.37,1.37,0,0,0,.35.66,2.47,2.47,0,0,0,.84.29,1.47,1.47,0,0,1,1,1.26.25.25,0,0,0-.22-.08,3.91,3.91,0,0,1-.6,3.3l0-.51-1.23,3.37.61-3.75c.06-.37.1-.8-.17-1a6.41,6.41,0,0,1-.73,2.26q-1,2-2.12,4a3,3,0,0,1-1.3,1.36,5.56,5.56,0,0,1,.59-1.38l1.21-2.25A9.57,9.57,0,0,0,20.4,41.3c.16-.86-.07-1.7-.79-1.95a10,10,0,0,1-2.76,4l1.52-2.61A3.09,3.09,0,0,0,19,39a1.39,1.39,0,0,0-.28-.59l-.21-.28a1.58,1.58,0,0,0,0-1,3.09,3.09,0,0,0-.37-.91,1.16,1.16,0,0,0-.81-.52c-.14,0-.13-.19-.28-.08a3,3,0,0,0-1,1.16c-.17.36-.24.73-.38,1.1a1.93,1.93,0,0,1-.75,1A3.59,3.59,0,0,1,15.41,37a13.62,13.62,0,0,1,1.3-2,2.72,2.72,0,0,1,1.41-1.1C18.65,33.85,19,34.21,19.33,34.43Z"/><path class="cls-3" d="M19.12,35.38a4,4,0,0,1,.55,1,1.64,1.64,0,0,0,.72.85c.13.06.29.11.32.26s-.25.52-.51.58a.67.67,0,0,1-.62-.18c-.48-.42-.61-1.14-1-1.67-.11-.15-1-.93-.84-1.17S19,35.25,19.12,35.38Z"/></svg>