<svg id="Layer_1" data-name="Layer 1" xmlns="http://www.w3.org/2000/svg" xmlns:xlink="http://www.w3.org/1999/xlink" viewBox="0 0 225 198.67"><defs><style>.cls-1{fill:url(#radial-gradient);}.cls-2{fill:#fff;}.cls-3{fill:url(#linear-gradient);}.cls-4{fill:url(#radial-gradient-2);}.cls-5{isolation:isolate;}</style><radialGradient id="radial-gradient" cx="114.51" cy="159.68" r="39.96" gradientTransform="matrix(1, 0, 0, -1, 0, 200)" gradientUnits="userSpaceOnUse"><stop offset="0" stop-color="#fff200"/><stop offset="0.44" stop-color="#fff002"/><stop offset="0.6" stop-color="#feea09"/><stop offset="0.72" stop-color="#fedf14"/><stop offset="0.81" stop-color="#fdd025"/><stop offset="0.89" stop-color="#fbbc3b"/><stop offset="0.9" stop-color="#fbb840"/></radialGradient><linearGradient id="linear-gradient" x1="112.5" y1="140.16" x2="112.5" y2="180.78" gradientTransform="matrix(1, 0, 0, -1, 0, 200)" gradientUnits="userSpaceOnUse"><stop offset="0" stop-color="#fbb840"/><stop offset="0.37" stop-color="#fdd223"/><stop offset="0.76" stop-color="#fee909"/><stop offset="1" stop-color="#fff200"/></linearGradient><radialGradient id="radial-gradient-2" cx="113.82" cy="159.94" r="26.43" xlink:href="#radial-gradient"/></defs><title>night</title><g id="Layer_1-2" data-name="Layer 1"><rect width="225" height="198.67"/><path class="cls-1" d="M143.45,39.53c0,1.64-6.68,2.68-7,4.24s5.64,4.86,5.09,6.35-7.18.21-8,1.59,3.63,6.48,2.6,7.71-6.81-2.26-8-1.23,1.22,7.33-.18,8.14-5.62-4.46-7.14-3.9-1.36,7.3-3,7.58-3.73-6.12-5.37-6.12-3.81,6.39-5.37,6.12-1.47-7-3-7.58-5.76,4.7-7.14,3.9,1-7.11-.18-8.14-7,2.46-8,1.23,3.41-6.32,2.6-7.71-7.43-.07-8-1.59,5.37-4.75,5.09-6.35-7-2.6-7-4.24,6.68-2.68,7-4.24-5.64-4.86-5.09-6.35,7.18-.21,8-1.59-3.63-6.48-2.6-7.71,6.81,2.26,8,1.23-1.22-7.33.18-8.14,5.62,4.46,7.14,3.9,1.36-7.3,3-7.58,3.73,6.12,5.37,6.12,3.81-6.39,5.37-6.12,1.47,7,3,7.58,5.76-4.7,7.14-3.9-1,7.11.18,8.14,7-2.46,8-1.23-3.41,6.32-2.6,7.71,7.43.07,8,1.59-5.37,4.75-5.09,6.35S143.45,37.9,143.45,39.53Z"/><circle class="cls-2" cx="112.71" cy="39.53" r="21.96"/><circle class="cls-3" cx="112.5" cy="39.53" r="20.31"/><circle class="cls-4" cx="112.5" cy="39.53" r="20.31"/><g class="cls-5"><path class="cls-2" d="M98,168.57h1.8v13.86H98l-7.25-11v11h-1.8V168.57h1.8l7.25,11Z"/><path class="cls-2" d="M104.55,169.33a1.18,1.18,0,0,1-.87.36,1.14,1.14,0,0,1-.86-.36,1.22,1.22,0,0,1-.35-.88,1.2,1.2,0,0,1,.36-.88,1.21,1.21,0,0,1,1.72,0,1.26,1.26,0,0,1,0,1.76Zm-1.78,13.1v-11h1.8v11Z"/><path class="cls-2" d="M108.31,181a5.83,5.83,0,0,1-1.49-4.12,5.65,5.65,0,0,1,1.48-4.06,4.91,4.91,0,0,1,3.71-1.55,4.43,4.43,0,0,1,2.43.66,4.31,4.31,0,0,1,1.57,1.72v-2.2h1.82v11.26a4.92,4.92,0,0,1-5.11,5.12,6.16,6.16,0,0,1-3.67-1,3.78,3.78,0,0,1-1.65-2.72h1.76a2.71,2.71,0,0,0,1.21,1.56,4.23,4.23,0,0,0,2.36.62,3.21,3.21,0,0,0,2.35-.93,3.51,3.51,0,0,0,.94-2.61v-2.52a4.33,4.33,0,0,1-1.57,1.75,4.37,4.37,0,0,1-2.43.67A4.83,4.83,0,0,1,108.31,181Zm6.62-1.07a4.65,4.65,0,0,0,0-6,3.47,3.47,0,0,0-2.59-1.12,3.54,3.54,0,0,0-2.59,1.08,4,4,0,0,0-1.08,2.94,4.23,4.23,0,0,0,1.09,3,3.51,3.51,0,0,0,5.18,0Z"/><path class="cls-2" d="M122.6,167.63v5.6a3.77,3.77,0,0,1,3.54-2,4.08,4.08,0,0,1,3,1.21,4.67,4.67,0,0,1,1.21,3.45v6.5h-1.78v-6.2a3.6,3.6,0,0,0-.79-2.52,2.83,2.83,0,0,0-2.19-.86,2.86,2.86,0,0,0-2.2.86,3.57,3.57,0,0,0-.8,2.52v6.2h-1.8v-14.8Z"/><path class="cls-2" d="M136.8,181h1.49v1.48h-1.82a2.5,2.5,0,0,1-2.83-2.82v-6.68h-1.41v-1.48h1.41v-2.72h1.82v2.72h2.81v1.48h-2.81v6.68A1.12,1.12,0,0,0,136.8,181Z"/></g></g></svg>