<svg id="Layer_1" data-name="Layer 1" xmlns="http://www.w3.org/2000/svg" viewBox="0 0 125.17 75.89"><defs><style>.cls-1,.cls-2,.cls-3,.cls-4,.cls-5,.cls-6,.cls-7,.cls-8,.cls-9{fill-rule:evenodd;}.cls-2,.cls-9{fill:#7b7c81;}.cls-3,.cls-7{fill:#717076;}.cls-4,.cls-7,.cls-9{stroke:#2b2a29;stroke-miterlimit:22.93;stroke-width:0.22px;}.cls-5{fill:#ca5506;}.cls-6{fill:#d77757;}.cls-8{fill:#050100;}</style></defs><title>spider</title><path class="cls-1" d="M77.1,35.14c.36,2.51-.32,4.78.41,7.42s-.2,3.1.9,6.06,1.2,5,4.09,6.93c-2.19.07-5.22-3-6.29-5.48s-.73-6.14-.88-8.85-1.41-5.82-.85-6.6S77.1,35.14,77.1,35.14Z"/><path class="cls-2" d="M79.44,53.22c-1.3-.67-2.1-1.64-2.67-4.07s-1.13-4-.89-6.53.68-2.62.85-1,.49,2.66.49,3.55-.52,1-.48,1.95.37,1.15,1.08,2S78.46,51.92,79.44,53.22Z"/><path class="cls-1" d="M64.82,29.58A33.39,33.39,0,0,0,66.6,21.9c.3-3.1.64-5.94,0-7.87s-1.33-1.6-2.85-1.6a11,11,0,0,0-5.49,1.2c-1.67,1-2.46,2-4.63,3.2A36.44,36.44,0,0,0,48.15,21c-.94.79-2.17,1.59-2.52,2.76A7,7,0,0,0,45,27.23a18.08,18.08,0,0,0,1.48,5.59c.7,1.91,2.53,6.33,3.2,8.07a48.1,48.1,0,0,1,2.18,6.75,9.56,9.56,0,0,0,3.82,5.93,23,23,0,0,1-2.15-5.81c-.25-1-1.34-5.39-2.1-7.66S49,33.86,48.48,31.44s-2-3.1-1-4.82.62-1.77,2.72-3.32,5.94-4.17,8-5.55,5-4.42,4.47-2.58.06,4.61-.13,7S61,26,60.93,28.15s-.09,4-.09,4Z"/><path class="cls-2" d="M62.09,29.37A10.22,10.22,0,0,0,63,26.68a24.32,24.32,0,0,1,.81-4c.5-1.3,1.13-1.63,1.4-3.42a7.11,7.11,0,0,0-.06-3.14c-.19-1.52.11-1.74-.73-2.25a2,2,0,0,0-1.75-.3c-.59.1-1.31.3-2.79.53s-3-.23-3.09.94.65.52-.86,1.63S51.6,19.44,53.27,19a9.53,9.53,0,0,0,4.36-2.28C59.46,15.25,61,14.33,62,14.3s1.22.49.88,2a14.35,14.35,0,0,0,0,4.44,8.32,8.32,0,0,1-.65,3.8,14.77,14.77,0,0,0-1.06,4c.06.89.16,1.74.16,1.74Z"/><path class="cls-2" d="M47.19,23.55a16.14,16.14,0,0,0,2.39-1.89C51.1,20.2,50.87,20,51.8,19.16s-.76-.31-1.64.48-2.94,2-3.4,2.77A.76.76,0,0,0,47.19,23.55Z"/><path class="cls-2" d="M49.27,37.28a2,2,0,0,0-.44-1.14c-.4-.63-.38.21-.63-1.13s-.46-1-.5-2.48,1.19-.54.52-1.91-1.75-2.56-1.88-1.2-.35.52.41,2.36.94,3.62,1.5,4.74S49.27,37.28,49.27,37.28Z"/><path class="cls-2" d="M50.75,41.36a6.14,6.14,0,0,0,.66,2.7c.57,1.5.49,1.57,1,3.1s.39,3.31,1.79,4.36c-.79-1.52-.8-3-1.66-5.45s-.85-2.23-.91-3.58S50.9,41.39,50.75,41.36Z"/><path class="cls-1" d="M100.87,34.68c.37,2.51,1.67,4.49,1.72,7.23s1.07,2.91.87,6.07.27,5.11-1.94,7.8c2.12-.56,4.15-4.36,4.46-7s-1.05-6.09-1.68-8.73-.31-6-1.07-6.57S100.87,34.68,100.87,34.68Z"/><path class="cls-3" d="M105.56,47.2c-.12-1.47-.47-.81-.71-2.64s-.69-2.26-.72-3.79-.92-3.19-.89-4.11-1.09-1.84-1.1-.61a17,17,0,0,0,.73,4c.41,1.7,1.08,3.4,1.27,4.8a13.16,13.16,0,0,1,.17,2.07s.26.19-.09,1.29c-.77,2.47.7,1.71-.51,4.5C104.91,51.92,105.8,50,105.56,47.2Z"/><path class="cls-4" d="M83.17,35.56a51.65,51.65,0,0,1,11,2.26c4.06,1.27,3.66.56,6.16.22s7.89,1.2,10-.57,4.74-3.24,5.9-6.59S121.66,10.37,105.12,3,75.71,4,71.24,8.82s-2.44,15.76,1.57,20,6.06,4.67,6.06,4.67Z"/><path class="cls-3" d="M93.2,25.42c.43-.9-3.42,2.22-2.67,1.16s2.1-2.72.83-1.56-4,2.56-3.09,1.47,1.72-1.34,1.74-2-1.25.7-2,1.47-1.55,1.28-1.64.76-.52-.71-.78.13-.53,1-.23-.71.21-2.8-.2-1.76-.73.9-.55,2.53,0,1.69-.54,1.06-.78-1.26-.78-.16.07,1.49-.65.41-1.48,0-1.51-1.75-.07-3.68.32-2.36,1,1.71.89.22.72-2.21-.39-1.62-1.54,2.09-1.8.74-1.32-2.69-1-.74a11.83,11.83,0,0,0,1.46,4.57c.81,1.31.89,3-.51.3s-1.66-3-1.76-4-1.67-2.07-.39.87,3.42,6.35,1.74,4.36A11.54,11.54,0,0,1,77,24.43c-.39-1.33-1.06-2.74-.93-1.66s-.64,1.42.48,2.94,2,3.3.23,1.51-2.22-2.62-2.52-3.72-.56-3-.8-2,.53,2.61,0,2.41-.49.14-.86-1S72,21,71.3,20.65s-.14,1.2.07,2.29-.14,1.5-.64,0a14.72,14.72,0,0,1-1-3.44c-.28-1.77.62-2.44.77-3.64s.24-1.86,1.36.25,1.39,3.38,2,1.86-.2-4.76.63-2.23.49,3.45,1,2.77.3-.88.64-1.42.27.46.74,1.51,1.07,1.56,1.51.86,0-.34,1.48,0,1.52,1.37,3,.55.25-1.65,1.29-2.12.57.38,1.36,1.35,1.45,3.26,2.23,2.24.62-1.55,1.7-2.27,1.32-.6.33,1.15-.87,1.81.23,1,2.38-2.85,1.76-1.29-1,2.5.1,1.83a25.82,25.82,0,0,1,2.89-1.25c1.14-.54,2.27-.5,1.8.36s-.4,1.25.43.78a7.51,7.51,0,0,1,2.77-.72c.51,0-1.41,2.87-2.42,3.68s-4.47,4.39-5,3.8S92.77,26.32,93.2,25.42Z"/><path class="cls-5" d="M69,13.7a19.05,19.05,0,0,0,.16,7.17,12.52,12.52,0,0,0,2.91,1.59c1.58.38.59.16,2.94.79s2.71,1.43,4.39,1.14.77-.56,2.69-.2,1.87,1.1,3.1.68a3.8,3.8,0,0,1,2.78-.39c1.6.24.51.21,2.22.61s2.55,2,3.62,1.23,1.79-.14,2.86-.93,4.6-3.38,5.56-2.56,1.91,1.31,1.24,2.16-.92,1.15.33,1.41,1,.56,2,1.12,0,1.29,1.09,1.32,2.32.42,3.06.47,1.09,1.8,1.82,1,1.83-.4,2.87-1.88,1.93-1.07,2.26-4.15.16-3.31-.36-4.82-.87-.54-1.21,1.72-.27,4-1.34,3-1.31-.81-1.08-2.27a6.46,6.46,0,0,0-.52-3.75,26.07,26.07,0,0,1-2-4.66c-.86-1.49-.53-2.33-1.65-2.57s-.4.42-.27,2.68-.21,2.28.5,3.41.53,1.85-.72,1.59-1.28,2.12-2.16-.53.2-3.58-2-4.59a6.44,6.44,0,0,1-3.21-2.6c-1-1.25-1.17-.79-2.24-1s-1.87.67-1.39,2,.94,1,.45,2.86A29.32,29.32,0,0,0,97,18.64c-.14.93.12,1.92-1,1.42s-.75.91-2.37-1S92.21,16.61,91.33,17s-.67.85-2.12,1-2,.17-2.45-.44.1-.67-1.29-.94-1.05.66-2.34.19-1.07.79-2.35.66-1.38,1-2.63.28a11.31,11.31,0,0,0-2.41-1.18,6.36,6.36,0,0,1-2.12-1.28,3.08,3.08,0,0,0-2-.65c-.82,0-1.26.22-1.71-.4S70.5,14.11,69,13.7Z"/><path class="cls-5" d="M114.84,11.31a.79.79,0,0,1-1-.11,14,14,0,0,0-2.45-2.69c-.78-.5-.62-.83-.07-1.51a18.46,18.46,0,0,1,3.5,4.31Zm-9.5-7.19c-.5,1.08,0,1.16-.55,1.82s-2-1.12-3-1.61a19,19,0,0,1-2.47-2.08c-1.1-.85-1.08,0-4,1.09s-1.63-.45-3.53-.95-.92,1.11.6,1.89,2.73.87,2.84,2.79S94,6.41,92.57,6.19s-.71.16-2.06.57-1.33-.68-3.64-2.05-1.71-.4-3.25-.09a32.57,32.57,0,0,0-4,1c-2.14.63-1,.52-3.54,2.25s-1.53.65-1-1.25.58-.66,2.22-1.64,1-.6,2.75-1.55c1-.52,1.2-.88,1.36-1.25C87.52-.28,95.73-1.15,105.12,3l.42.2A2.49,2.49,0,0,1,105.34,4.12Z"/><path class="cls-6" d="M70.23,21.55a10.19,10.19,0,0,1-.48-2c-.28-1.77.62-2.44.77-3.64s.24-1.86,1.36.25,1.39,3.38,2,1.86A7,7,0,0,0,74,15.62a4.69,4.69,0,0,0,.47.34c.76,2.39.44,3.24,1,2.58s.3-.88.64-1.42.27.46.74,1.51,1.07,1.56,1.51.86,0-.34,1.48,0,1.52,1.37,3,.55.25-1.65,1.29-2.12.57.38,1.36,1.35,1.45,3.26,2.23,2.24.62-1.55,1.7-2.27,1.32-.6.33,1.15-.87,1.81.23,1,2.38-2.85,1.76-1.29-1,2.5.1,1.83a25.82,25.82,0,0,1,2.89-1.25c1.14-.54,2.27-.5,1.8.36s-.4,1.25.43.78a7.51,7.51,0,0,1,2.77-.72c.51,0-1.41,2.87-2.42,3.68-.16.13-.39.33-.66.58l0,0c-1.07.79-1.79.14-2.86.93a1,1,0,0,1-1.07.11c.17-.37.34-.73.48-1s-.53,0-1.29.53c-.2-.13-.4-.27-.63-.4.58-.78,1-1.35.08-.54l-.42.35a3.69,3.69,0,0,0-.78-.28L89.79,25a.84.84,0,0,0,.22-.53c0-.38-.38-.11-.86.32a2.74,2.74,0,0,0-1.21-.32,3.29,3.29,0,0,0-2.4.25c0-.78-.09-1.07-.37-.37a5.44,5.44,0,0,1-.27.58c-.91.22-1-.35-2.55-.7,0-1.45.7-2.14-.38-1.56s-1.54,2.09-1.8.74-1.32-2.69-1-.74c.11.62.21,1.17.33,1.68l-.13,0a3.59,3.59,0,0,1-.83.06,3.4,3.4,0,0,1-.18-.87c-.1-1-1.63-2-.43.76a8.9,8.9,0,0,1-1.09-.43c-.39-1.13-.88-2.08-.76-1.14a2.46,2.46,0,0,1,0,.81c-.3-.11-.64-.22-1-.33L74.17,23c-.25-1.07-.48-2.34-.68-1.5a3.46,3.46,0,0,0,.05,1.32c-.44-.13-.45-.14-1-.28a3.38,3.38,0,0,0-1.2-1.92c-.51-.31-.31.58-.1,1.5a9,9,0,0,1-1-.6Zm11.23,2.53c-.18-.61-.27-.51-.31,0Z"/><path class="cls-7" d="M92.28,33.42c1.58.45,3,1.81,2.8.72S94.2,33,94.16,32.7s.49-.14,1.81.57,2.61,2,1.82.78-2.41-1.89-.93-1.37,2.19,1.39,2.75,1.05.17-.57-.76-1.13-2.58-1.32-.69-.74,3.9,1.52,2.22.42S97.17,30.41,99,31.11s3.66,1.19,2.42.2-2.74-1.94-.79-1.18,3.5,1.38,2.21.21-3.46-2.22-1.58-1.84,3.46-.27,1.76-.49-2.56-.68-.91-.65,1.67-1,.46-1.36-2.22-.13-.88-.6,1.25-.7.14-.61-3.22.1-4.22.83-4.09,3.6-4.31,4.2S92.28,33.42,92.28,33.42Z"/><path class="cls-1" d="M62.36,45.66c-.42-.7-1.3.49-2.53.2a4,4,0,0,0-2.83,0c-.91.39-2.12.26-1.68,1.61s.09,1.13,1.57,1.89,1.12,1.39,0,1.28a3,3,0,0,1-2.19-1.34c-.63-.74-.53-.72-.34-2s-.33-1.33.14-1.95,1.78-.47.87-.83-1.34-.31-1.73-.85-2.12-6-1.72-6.86,2.92-3.44,2.88-4.24-.41-.81,1-1.55,1.77-.1,3-.76.29-.49,2.2-1.16,3.11-.54,4.59-1.16,1.5-1.1,3.27-.83a31.48,31.48,0,0,1,5.93,1.27c2.22.76,4.78,1.47,6.38,3.15s3.27,1.93,3.07,3.93-3.6,3.39-6.06,4.19-3.79,1.13-5.27,2.12-6.28,4.9-7.47,5.41S64,49,63.08,48.27,62.79,46.36,62.36,45.66Z"/><path class="cls-8" d="M52.84,38.78a31.09,31.09,0,0,0-2.9-4.25c-2.19-3-4.61-6.12-6.38-8.52S41,21.76,39,20.5s-1.75-2.07-2.95-1-3.38,2.71-4.94,4.08-6.85,5.15-9.2,6.66a27.42,27.42,0,0,0-3.89,3.08c-1.62,1.3-.58,1.08-2.29,1.79a6.8,6.8,0,0,0-3.3,3.62c-.73,1.44-3.73,7.16-4.85,9.44S5.82,53.68,5,54.07s-.86,1.42-1.29,3-2.17,4.51-2.12,5.48S1.2,64,2,65.29c-1.22-1-2.34-2.42-2-4.36s2.62-6.18,3.32-8.26,5.13-10.7,6.23-13a26.88,26.88,0,0,1,3.17-5.13,11.84,11.84,0,0,0,1.49-1.77A23.91,23.91,0,0,1,19,27.87c3.52-2.72,8.14-5.16,8.6-5.56.82-.71,1.55-1.7,2.44-2.47s6.77-4.64,8.4-3.49,1.41-.38,1.86.09,5.81,5,7.35,6.79a98.43,98.43,0,0,1,6.59,10.48c1.26,2.32,1.54,3,2.64,5.11s.49,3.56-.46,2.57A26.17,26.17,0,0,0,52.84,38.78Z"/><path class="cls-2" d="M53.44,37.6a8.62,8.62,0,0,1-2.76-2.66c-1.19-1.62-2.3-3.22-4.28-6s-2.84-4.06-4.2-5.7S40.1,20.45,39,19.82,36.83,18.9,37,18.47s.61-.67,1.81-.53,1.27.83,2.81,2.33,2.85,2.37,4.37,4,5.94,9,6.84,10.5,1.85,2.81,2.08,3.23S54.22,38.05,53.44,37.6Z"/><path class="cls-2" d="M32.61,21.42c-.18.35-1.63-.92-2.61-.35s-2,2.09-2.75,2.24.71-1,1.35-1.65.12-1,1.43-1.34,1.26,0,2.3-.16a6.65,6.65,0,0,0,1.75-.41c.94-.32-.2.22-.62.75S32.79,21.07,32.61,21.42Z"/><path class="cls-2" d="M13.2,35.62A14.12,14.12,0,0,1,14.86,35c.47,0,.53,0,.41-.55s-.64-.78-.23-1.33.38-.84-.12-.41-.14,1.17-.49,1.55,0-.14-.9.48-1.31.78-1.75,1.79-2.33,3.4-2.69,4.86.78-.39,1.32-1.53a5.9,5.9,0,0,1,1.11-2.07C12.35,36.68,12.68,35.76,13.2,35.62Z"/><path class="cls-2" d="M16.73,33.88c-.26.14-.74.55-1,.18s-.69-.16-.36-.77.26-.14,1-.39.3.4,1-.08a6.85,6.85,0,0,0,1.43-1c.93-.79,2.44-1.69,1.82-1.13s-.89.7-1.7,1.36a11.67,11.67,0,0,0-1.7,1.72C17,34,17,33.74,16.73,33.88Z"/><path class="cls-2" d="M.59,62.19c-.56-.94,1.16-5.42,2-6.85a7.19,7.19,0,0,0,1.06-2.8c.1-.64,2.4-4.72,2.94-5.9s1.23-2.15,1.05-1.4-1.52,4.08-1.88,5-1,1.14-1.14,2.13-.15,1.14-.06,1.4,0,.06-.44.11-.78.21-1.16,1.53a15.92,15.92,0,0,0-.69,3.31C2.1,60.15,1.35,59.86.59,62.19Z"/><path class="cls-1" d="M68,42.16c-1-.1-1.91,2.47-4.4,3.77-2.33,1-6.25,6.08-6.46,6.49-.5.55-3.22,5-3.4,7.32-1,0-5.81,7.79-5.63,9.11-1,.5-2.13,5.42.63,7-.2-2.09-.26-4.6,1.39-5.24s6-7.59,6.16-8.88a14.64,14.64,0,0,0,4.28-7.17c.93.31,4-4,5.75-5.3s3.78-3.07,4.62-3.7c1.38-.54,2,0,2.62-1.57s1.49-2.16.62-3.17a2.58,2.58,0,0,0-3.44-.66C69.45,40.92,69,42.26,68,42.16Z"/><path class="cls-1" d="M84.55,41.33c1.84-1.21,2.45-.59,4.85-3.11a72.22,72.22,0,0,0,5.42-6.87c2.18-2.82,5.59-6.84,7.11-7.05s2.07-.08,4.6,2.23,2,1.53,3.81,3.12a81.5,81.5,0,0,1,7.27,7.1c2.23,2.61,3.76,3.46,4.38,5.13s-.22,8.36-.25,10.81-.34,6-.34,7.38,1.38,3.66.36,5.65c2.25-.89,1.72-3.85,2-6.34s.42-6.38.56-11.75c.11-4,.7-6.1.75-7.5,0-.47.18-.94,0-1.28-.84-1.35-.53-.52-3.17-3.28s-5.94-5.8-8.1-7.7-2.34-3-3.88-3.83-4.2-2.83-6.21-2.87-1.68-1-3.22-.67S95.73,24.15,94.55,25s-6.17,6.06-7.11,7.05-1.27,2.6-2.47,3-2.85,1.49-3.7,1.36-3,2.52-1.79,3.75S84.55,41.33,84.55,41.33Z"/><path class="cls-3" d="M84.57,40.31a3.84,3.84,0,0,0,2.94-1.15,28.71,28.71,0,0,0,4.56-4.47c1.46-1.91,2.51-3.88,3.26-4.61a45.46,45.46,0,0,0-6,5.15c-1.61,1.83-2.81,3.46-4.62,3.77s-1.93.77-1.93.77Z"/><path class="cls-3" d="M86.77,35.27c-.23.44,1.18,0,2.74-1.55a28.37,28.37,0,0,1,4.87-4c2.19-1.42.29.25,2.93-2.53s2.61-1.85,2.63-2.59a10.73,10.73,0,0,1-.12-2c.14-.94.26-1-1.48.25s-5.51,5.07-7.14,6.36a13.83,13.83,0,0,0-3,3.22A16.66,16.66,0,0,0,86.77,35.27Z"/><path class="cls-3" d="M109.33,27.36c-.73-.08-.56.3-1.23-.16a14.34,14.34,0,0,1-1.67-1.06c-.4-.33-1.08-.9-1.76-1.37-.53-.37-1.07-.64-1.37-.91-.68-.62-.86-.65-1.27-.74-.1.24.3.17.15.51s-.33.46-.73.15-.08.34-.3.5-.48.26-1.09.7c.15-.56.37-.46.32-1.14s-.26-1-.12-1.31.38.89.82.51-.13-.63.38-.78.52-.27,1.64.25,2.87,1.47,3.9,2a8.1,8.1,0,0,1,2.77,1.87c.52.79-.14,1.11-.14,1.11Z"/><path class="cls-3" d="M124,39.78c-.14,0-1.11.75-1.65,0s-2.57-3-3.93-4.54-2-2.3-4.31-4.59-2.39-2.62-2.9-2.77-.4.09-1.22,0-1.5-.42-.22.43,8.59,8.34,10,9.85a14.83,14.83,0,0,1,2.23,2.67,7.54,7.54,0,0,1,.63,2.74c.17,3.15-.15,7.92-.1,8.81.07,1.27-.48,7.65-.29,8.71a23.08,23.08,0,0,1,.48,2.37,17.26,17.26,0,0,0,.27-4,53,53,0,0,1,.2-5.86c.12-1.55.26-5,.31-6.34s-.31-3.75,0-4.9-.28-1.19.24-1.57S124.1,39.81,124,39.78Z"/><path class="cls-1" d="M75.73,38c-.26.47-1.81,2,.35,3.87s.62.17,2.79,1.07,9.94.94,12,1.18,2.18,1.38,2,2.84a3.19,3.19,0,0,0,.53,2.8c.64,1.19-.48,4.49.37,6.93s.62,4.42.12,5a15.26,15.26,0,0,0-2.27,5.06c-.46,2.11-1.08,4-1.08,4A1.92,1.92,0,0,1,89,72.71,2.71,2.71,0,0,0,92.51,71c.68-1.8,1.71-5.87,2.75-7.34s1.25-1,2.12-2.74-.26-5-.5-7.43a54.32,54.32,0,0,0-1.09-7.58c-.7-3,.26-3.5-1.22-4.07s-2-1.26-3.31-1.93-3.86-.59-5.45-.83-2.9.72-4.48.34-1.83-.07-2.33-1.24S76,37.56,75.73,38Z"/><path class="cls-3" d="M91.15,71.29c.67-.3.28-.2.89-1.26a11.69,11.69,0,0,0,1-2.4c.46-1.19.32-1.63,1.1-2.63a8,8,0,0,0,1.42-2.44c.35-.92.66-.91.58-1.52a6.27,6.27,0,0,1,0-1.82,12.24,12.24,0,0,0,0-2.75c-.11-1.31-.29-1.79-.37-3.06a10.59,10.59,0,0,1-.12-2c0-1.36-.33-1.27-.43-2.65s0-2.86-.25-3,0,1.77-.53.37-.85-1.56-1.12-2.51-1,.51-.62,1.06,1.19,1.61,1.12,2.27-.37.82-.26,1.46A6.66,6.66,0,0,0,94,50.08a3.37,3.37,0,0,1,.19,2.4c-.24,1.15-.59,1.34-.31,2.47s.65,2.13.79,3.05.65,2.86.22,3.35a9.91,9.91,0,0,0-2,2.9c-.52,1.35-.58,2.18-.89,3.08a25.35,25.35,0,0,0-.81,2.78C91.05,70.82,91.39,70.63,91.15,71.29Z"/><path class="cls-2" d="M92.48,42.47a5.76,5.76,0,0,0-2.24-.67A24.93,24.93,0,0,1,87,41a10.61,10.61,0,0,0-2.39-.25,6.17,6.17,0,0,0-2.21-.11c-.89.15-1.09.42-1.79.47s-1,.48-.42.54a5.22,5.22,0,0,1,2.2.09c1.06.38.3.25-.64.24s-1.13.36-1.92,0-.93-.21-.76.17.21,1,.82.64a1.46,1.46,0,0,1,1.45,0,3.43,3.43,0,0,0,1.61.4c.8,0,2.14-.39,3-.44s1.58.15,2.19.13,2.26,1.1,2.8,1,.92.41,1.16.15S93.16,42.85,92.48,42.47Z"/><path class="cls-2" d="M78.13,42.34c.1,0,.69-.1.65-.59s0-.74-.28-.47-.12.47-.54.58-.57.51-.78.13a1.37,1.37,0,0,1-.31-1c0-.63-.49-.67-.49-1.31a2.42,2.42,0,0,1,.23-1.2c.17-.45-.11-.39-.42-.1s-.47.32-.62.87a1.82,1.82,0,0,0,.1,1.77,2.42,2.42,0,0,0,1.1.92c.32.2.25.66.67.52A2.92,2.92,0,0,1,78.13,42.34Z"/><path class="cls-2" d="M77.88,40.49c.37.14.41.26.93-.42s.32-.79.19-1.11-.47-1-.74-.39,0,.86-.52,1S77.52,40.35,77.88,40.49Z"/><path class="cls-2" d="M68.94,46.61c-.86.71.64-.15,1.12-.78s.41-1.21.9-1.14.49.39,1,.24.81.19,1.07-.59.26-1-.22-1.53-.36-.64-1-.85-.66,0-.25.58,1.26,1.24.52,1.19-.63-.37-1-.52-.12.37-.83.37-.6-.07-1.2-.3-.22-.51-1.12-.12a11.31,11.31,0,0,0-2.16,1.35c-.81.56-1.27,1.49-.47.86s.57-.73,1.52-1.16a2,2,0,0,1,1.79-.14c.59.16.76.55,1.19.66s.69-.08.24.38S69.8,45.9,68.94,46.61Z"/><path class="cls-2" d="M70.28,41.66c.13.18.14-.42,1-.48s.78-.35,1.45.06.82.75,1,.26,0-.91-.65-1.19a3.28,3.28,0,0,0-2.69.58c-.84.57-1,.72-1.2,1.25S70.15,41.48,70.28,41.66Z"/><path class="cls-9" d="M60.29,54.54c.17-.28.39.07.65-.14s.6-.24.4-.54a2.76,2.76,0,0,0-.91-1c-.59-.41-1.49-1.15-1.82-1.15s-.4-.09-.7.16-.61.41-.69.78-.26.64.19.26.35-.48.92-.41a3.57,3.57,0,0,1,1.42.64c.24.18.53.45.21.53s-.5.17-.28.43S60.11,54.82,60.29,54.54Z"/><path class="cls-9" d="M50.81,69.7c.11-.35-2.41-.16-1.42-1.49.73-1,1.43,1,2.16-.77a24.84,24.84,0,0,1,3.36-5.76c.21-1.24,2.32-1.53,2.68-2.88s.8-1.67.73-2.25-.18-.36-.6-.51-1.22,1-1.08.43.33-.6.3-1.31-.5-.8-1.11.27a29.06,29.06,0,0,0-1.59,4.46c-.34.44-1.31,2.59-2.79,4.7-1,1.44-2.62,2.65-3,4.16-.39.82-1.69,2.37-.45,6C48.4,70.1,50.16,70.11,50.81,69.7Z"/><path class="cls-9" d="M59.79,38.74c0-.09,2-.78,1.07-1s-1.44.54-1.77-.3.21-1-.07-1.73-.57-.15-.94-.57-.25-1.19-.07-2-.05-1.16-.57-1a2.07,2.07,0,0,0-1.26.7c-.48.52-1.1.69-1,1.74s-.06.85.3,1.73a8.86,8.86,0,0,0,.92,2.42c.67,1,1,1.87,1.35.67s-.4-1.48.59-1.06S59.74,38.83,59.79,38.74Z"/><path class="cls-1" d="M65.61,40.67c.33,1.89,1,3.76-1,4.14a8,8,0,0,1-4.76,0c-2.09-.59-5-1-6.7-1.57s-10.63-3-11.87-3-.72-1.95-1.94-.23-1.93,3.31-3,3.76-.81,1.31-1.44,1.89S24,56,22.64,56.93s-1.76.82-2,1.47a14,14,0,0,0-1,7.13c.36,4.24.47,7.22,1.09,8.06s.34,1.22,1.69,2.3c-1.29.05-2.31-.73-3.38-2.83a24.39,24.39,0,0,1-1.69-7.72,31.25,31.25,0,0,1,.76-7.19c.25-1.79-.68-2.21.91-3.74s8.59-7.27,9.75-8.59,2.87-1.88,3.32-3,.54-.87,2.48-2.89a17.39,17.39,0,0,1,4.87-3.82c1.17-.5,1.15-1.32,2.83-1.14s8.37,2.23,9.87,2.66a36.35,36.35,0,0,1,7.17,3c1.29.94.78.25,2.17-.42s2.45-1.33,3.22-.6A4,4,0,0,1,65.61,40.67Z"/><path class="cls-2" d="M61.77,44.44c.55-.25.9.43,1.07-.64s-.19-1.55-.5-1.17,0,1-.6,1.17-1.38,1-1,1A2.66,2.66,0,0,0,61.77,44.44Z"/><path class="cls-2" d="M63.41,44.14c.19.33.39.54,1.19,0s.83-.08.78-1.1.14-1.81-.29-1.44.22,1-.43,1.26-1.12,0-1.28.59S63.22,43.8,63.41,44.14Z"/><path class="cls-2" d="M60.07,44.24a43.29,43.29,0,0,1-7.91-1.61A81.31,81.31,0,0,0,42.81,40c-.57-.05,1.67-.93,3.16-.44s2.66,1.05,4.85,1.86a23.71,23.71,0,0,0,5,1A19.16,19.16,0,0,1,60.07,44.24Z"/><path class="cls-2" d="M42.59,39.46a1.49,1.49,0,0,1-1.35.45c-.37-.17-.41-.29-.7-.68s-.09,0,.22-.71.7-.46.32-1.18-.4-1.14-.77-1.31-.54-.2,0-.4.86-.58,1.12-.43-.54,0-.36.66a6.55,6.55,0,0,0,.45,1.89A14.29,14.29,0,0,0,42.3,39C42.51,39.28,42.63,39.24,42.59,39.46Z"/><path class="cls-2" d="M33.78,43.52c0-.08,1.26.16,1.85-.18s.65.21,1.23-.56.77-1.31.06-1.33-2,1.07-2.72,1-.92-.71-1.34-.4-.36.52-.7,1,0,.4-.92,1.17a38.61,38.61,0,0,1-4.34,5.47c-1.71,1.64-4.28,2.74-5.65,4.15-.62.64.64.47.1,1-1.34,1.25-2.46.46-2.56.76a5.75,5.75,0,0,0-.22,2.59,34.47,34.47,0,0,0-.41,7.38c.1,2.33.11,5.16,1.46,7.55.2.46.49.8.67.74a8.78,8.78,0,0,1-.77-2.15c-1.08-2.62-.48-12.17,0-12.89s.36-.23,1-.87.59-.62,1.69-1.62c.5-.45,0-1.6,2.43-3.64,1.17-1,.56,1.35,1.88,0,2.23-2.31,7-6.09,7.32-6.42.84-.92,1.2-1.87.72-2.12S33.75,43.6,33.78,43.52Z"/><path class="cls-9" d="M56.46,49.47c-.31-.09-.42.31-.72-.27s-.37-1.05-.6-1-.68.18-.34.57,0,.3.56.75.32.77,1,.89,1,.23,1.15,0C57.68,49.89,56.8,49.58,56.46,49.47Z"/><path class="cls-9" d="M54.54,48c0,.28.57,0,.5-.26s-.24-.09-.11-.5,0-.49.24-.69.56-.33.68-.56,0,0-.35-.09-.58,0-.37-.3-.4,0-.38.74A8.45,8.45,0,0,1,54.54,48Z"/><path class="cls-2" d="M56,45.48c-.39-.09-.91.07-.3-.28a2.39,2.39,0,0,1,1.69-.33,6.84,6.84,0,0,0,1.83,0c.62-.09,2.45.25,1.5.53a3.83,3.83,0,0,1-1.85.05c-.53,0-1.06-.37-1.64-.22a4.43,4.43,0,0,0-1,.41C56.12,45.71,56,45.48,56,45.48Z"/><path class="cls-9" d="M73.21,38.32a1.54,1.54,0,0,1-1.55.93c-1.15-.11-1.32.23-2-.24s-1.07-1-1.66.05-2.29,1.36-1.48.45.31-1.61,1.78-1.63,2.31.11,2.52-.47-2.42.61-3.55.81-1.23.06-2.37-.48-2.37-.91-1.74-.2.76,1.46-.27,1.37-2.9.54-2.19-.09,2.2-1.19,1.35-1.63-2.12-.14-1.58-.85,1.27-.72,3.39-.16,2.25.89,4.43.67,2.5-.35,4.18-.53,2.48.62,3.78.09,2.5-.35,3.41-.7-1.35,1.2-2.63,1.19a5,5,0,0,0-3.07.88Z"/></svg>