<svg id="Layer_1" data-name="Layer 1" xmlns="http://www.w3.org/2000/svg" xmlns:xlink="http://www.w3.org/1999/xlink" viewBox="0 0 192.73 228.51"><defs><style>.cls-1{fill:url(#linear-gradient);}.cls-2{fill:url(#linear-gradient-2);}.cls-3{fill:url(#linear-gradient-3);}.cls-4{fill:url(#linear-gradient-4);}.cls-5{fill:url(#linear-gradient-5);}.cls-6{fill:url(#linear-gradient-6);}.cls-7{fill:url(#linear-gradient-7);}.cls-8{fill:url(#linear-gradient-8);}.cls-9{fill:#33bcff;}.cls-10{fill:url(#linear-gradient-9);}.cls-11{fill:url(#linear-gradient-10);}.cls-12{fill:url(#linear-gradient-11);}.cls-13{fill:url(#linear-gradient-12);}.cls-14{fill:url(#linear-gradient-13);}.cls-15{fill:#a8e2ff;}</style><linearGradient id="linear-gradient" x1="1399.75" y1="298.6" x2="1467.16" y2="298.6" gradientTransform="translate(-1274.55 -110.38)" gradientUnits="userSpaceOnUse"><stop offset="0" stop-color="#77bd4b"/><stop offset="0.15" stop-color="#71b644"/><stop offset="0.36" stop-color="#60a330"/><stop offset="0.61" stop-color="#448310"/><stop offset="0.71" stop-color="#387502"/><stop offset="0.79" stop-color="#3d7a08"/><stop offset="0.9" stop-color="#4b8a18"/><stop offset="1" stop-color="#5d9f2d"/></linearGradient><linearGradient id="linear-gradient-2" x1="1404.92" y1="298.87" x2="1427.16" y2="298.87" gradientTransform="translate(-1274.55 -110.38)" gradientUnits="userSpaceOnUse"><stop offset="0" stop-color="#f2f9ee"/><stop offset="0.09" stop-color="#e1f1d7"/><stop offset="0.31" stop-color="#bbdea5"/><stop offset="0.52" stop-color="#9ed07e"/><stop offset="0.71" stop-color="#88c662"/><stop offset="0.88" stop-color="#7cbf51"/><stop offset="1" stop-color="#77bd4b"/></linearGradient><linearGradient id="linear-gradient-3" x1="-1882.02" y1="576.67" x2="-1814.27" y2="576.67" gradientTransform="matrix(-0.99, 0, 0, -1.02, -1678.6, 735.57)" gradientUnits="userSpaceOnUse"><stop offset="0.01" stop-color="#458411"/><stop offset="1" stop-color="#a2d284"/></linearGradient><linearGradient id="linear-gradient-4" x1="1400.83" y1="258.08" x2="1466.45" y2="258.08" gradientTransform="translate(-1274.55 -110.38)" gradientUnits="userSpaceOnUse"><stop offset="0.01" stop-color="#387502"/><stop offset="1" stop-color="#77bd4b"/></linearGradient><linearGradient id="linear-gradient-5" x1="165.49" y1="55.22" x2="166.38" y2="128.24" gradientTransform="matrix(-0.71, -0.71, -0.71, 0.71, 210.09, 87.02)" gradientUnits="userSpaceOnUse"><stop offset="0" stop-color="#77bd4b"/><stop offset="0.2" stop-color="#74b947"/><stop offset="0.4" stop-color="#69ae3b"/><stop offset="0.6" stop-color="#589a28"/><stop offset="0.79" stop-color="#417f0c"/><stop offset="0.81" stop-color="#3e7c09"/></linearGradient><linearGradient id="linear-gradient-6" x1="187.54" y1="104.97" x2="161.19" y2="92.71" gradientTransform="matrix(-0.71, -0.71, -0.71, 0.71, 210.09, 87.02)" xlink:href="#linear-gradient-2"/><linearGradient id="linear-gradient-7" x1="26.09" y1="55.4" x2="65.25" y2="55.4" xlink:href="#linear-gradient-5"/><linearGradient id="linear-gradient-8" x1="26.09" y1="55.4" x2="65.25" y2="55.4" gradientTransform="matrix(-0.71, -0.71, -0.71, 0.71, 210.09, 87.02)" xlink:href="#linear-gradient-2"/><linearGradient id="linear-gradient-9" x1="68.48" y1="109.83" x2="148.65" y2="110.64" gradientTransform="matrix(-0.71, -0.71, -0.71, 0.71, 210.09, 87.02)" xlink:href="#linear-gradient"/><linearGradient id="linear-gradient-10" x1="76.95" y1="110.81" x2="89.82" y2="110.81" gradientTransform="matrix(-0.71, -0.71, -0.71, 0.71, 210.09, 87.02)" xlink:href="#linear-gradient-2"/><linearGradient id="linear-gradient-11" x1="25.68" y1="87.27" x2="64.31" y2="87.27" gradientTransform="matrix(-0.71, -0.71, -0.71, 0.71, 210.09, 87.02)" xlink:href="#linear-gradient"/><linearGradient id="linear-gradient-12" x1="161.97" y1="55.4" x2="57.77" y2="55.4" gradientTransform="matrix(0, -1, -1, 0, 148.61, 158.38)" xlink:href="#linear-gradient-3"/><linearGradient id="linear-gradient-13" x1="68.06" y1="44.38" x2="146.84" y2="65.13" gradientTransform="matrix(-0.71, -0.71, -0.71, 0.71, 210.09, 87.02)" gradientUnits="userSpaceOnUse"><stop offset="0.19" stop-color="#3e7c09"/><stop offset="0.21" stop-color="#417f0c"/><stop offset="0.4" stop-color="#589a28"/><stop offset="0.6" stop-color="#69ae3b"/><stop offset="0.8" stop-color="#74b947"/><stop offset="1" stop-color="#77bd4b"/></linearGradient></defs><title>water-left-one</title><path class="cls-1" d="M125.19,147.94c7.24,1.28,30.16,1.77,33.7,1.84s26.47-.56,33.7-1.84c0,0-1.85,58.17-12.93,76.18,0,0-6.63,4.19-20.32,4.38h-.92c-13.68-.18-20.32-4.38-20.32-4.38C127,206.12,125.19,147.94,125.19,147.94Z"/><path class="cls-2" d="M147.62,152.16s-6.71,57.69,5,74.56c0,0-3.64.57-10.93-2.49,0,0-10.35-24-11.31-74C130.36,149.92,145.32,153.7,147.62,152.16Z"/><ellipse class="cls-3" cx="159.04" cy="147.92" rx="33.69" ry="5.06" transform="translate(-1.04 1.12) rotate(-0.4)"/><ellipse class="cls-4" cx="159.09" cy="147.7" rx="32.81" ry="4.08"/><path class="cls-5" d="M56.48,11.77,49.88,22.71S31.39-5.46,25.76,27.62c0,0-3.94,34.85-2.85,38.53l-6.2,9.21s-4-87.44,26.4-73.94C43.1,1.42,51.79,5.77,56.48,11.77Z"/><path class="cls-6" d="M56.48,11.77,49.88,22.71S31.39-5.46,25.76,27.62c0,0-3.94,34.85-2.85,38.53l-6.2,9.21s-4-87.44,26.4-73.94C43.1,1.42,51.79,5.77,56.48,11.77Z"/><path class="cls-7" d="M129.81,76.64l18.86,34.89L122,85.76S122.34,79.79,129.81,76.64Z"/><path class="cls-8" d="M129.81,76.64l18.86,34.89L122,85.76S122.34,79.79,129.81,76.64Z"/><path class="cls-9" d="M129.81,76.64l18.86,34.89L122,85.76S122.34,79.79,129.81,76.64Z"/><path class="cls-10" d="M56.27,11.55.7,100.49S-2,104.82,3.37,110.82c0,0,14.3,23,31.7,31,0,0,5,3.68,11.84-1.88L129.2,86.1Z"/><path class="cls-11" d="M54.69,111.17c18.7-14.1,36-30,52.93-46.21l.54-.51,10.07,10.3q-1.84,1.92-3.7,3.82c-5,5-10.28,9.66-15.68,14.22-18.36,15.48-38,29.54-59.19,40.88q-5,2.69-10.16,5a7.05,7.05,0,0,0-.68-.42,8.26,8.26,0,0,0-1.12-.88,49.72,49.72,0,0,1-5.57-4.29l-.67-.72A242.67,242.67,0,0,0,54.69,111.17Z"/><path class="cls-12" d="M148.67,111.54l-68.3,6.68s21.07-29.35,42.3-32.68Z"/><ellipse class="cls-13" cx="93.21" cy="48.49" rx="12.41" ry="52.24" transform="translate(-6.99 80.11) rotate(-45)"/><path class="cls-14" d="M85.3,56.4c9.8,9.8,19.91,18.1,28.47,23.37,9.26,5.71,14.09,6.22,15.51,4.79s.92-6.25-4.79-15.51c-5.27-8.56-13.57-18.67-23.37-28.47S81.21,22.48,72.65,17.21C63.39,11.5,58.56,11,57.13,12.42s-.92,6.25,4.79,15.51C67.2,36.49,75.5,46.6,85.3,56.4Z"/><path class="cls-9" d="M164.64,140.58c-.92-4.4-1.48-8.92-2.26-13.38-1-4.44-2.11-8.83-3.35-13.2-2.9-8.66-7-17-11-25.2-3.59-7.3-7.36-14.84-13.67-20s-14.54-7.3-22.63-8.1a80.3,80.3,0,0,0-21.25.74c2.71,2.87,6.27,5.26,9.2,8a96.71,96.71,0,0,0,7.47,6.18c.64.49,1.28,1,2,1.45a7,7,0,0,0,1.21.49,9.38,9.38,0,0,1,1.36.93l.46.32.68.47a29.37,29.37,0,0,0,2.83,1.79c.33.17.66.33,1,.49l.83.37c.25.11.44.25.68.37.55.29,1.13.52,1.7.76.19.08.36.18.54.26q.81.37,1.64.72a6.55,6.55,0,0,1,1.42.91,6.31,6.31,0,0,1,.63.53c.83.76,1.15,2,1.89,2.69L142.05,104a17.17,17.17,0,0,1,3.42,4.17,17.16,17.16,0,0,1,1.35,4.5c1.62,8,3.21,16,4.36,24,0,4.36.08,9.58.12,15,4.7,0,9.41,0,14.11-.1C165.24,148,165,144.27,164.64,140.58Z"/><path class="cls-15" d="M156.16,151.76h.34c.11-1.32.16-2.68.17-4,0-2.48,0-5,0-7.44,0-.85,0-1.71,0-2.54,0-.65-.15-1.26-.25-1.86s-.54-3.7-.66-1.35c-.08,1.53.1,3.5.16,5C156.06,143.62,156.19,147.69,156.16,151.76Z"/><path class="cls-15" d="M150.21,102.41c2.84,5.69,1.57,9.52.29,14.62,2.55-6.38-1.28-12.76-.63-19.58C149.84,99,150.09,100.9,150.21,102.41Z"/><path class="cls-15" d="M162.68,148.69c.15,1,.37,2,.61,3h.76a24.84,24.84,0,0,1-.57-3c-.37-2.62-.53-5.4-1.15-8-.39,1.08-.1,2.75,0,3.89A39.66,39.66,0,0,0,162.68,148.69Z"/><path class="cls-15" d="M159.75,128a19.27,19.27,0,0,1,1.11,2.62,14,14,0,0,1,.24,4.83,18.17,18.17,0,0,0-.08-6.63c-.48-1.81-1.5-3.42-2.06-5.21a21.37,21.37,0,0,1-.68-3.44c-.37-2.62-.53-5.4-1.15-8-.39,1.08-.1,2.75,0,3.89a39.66,39.66,0,0,0,.4,4.05A29.33,29.33,0,0,0,159.75,128Z"/><path class="cls-15" d="M152.55,128.61l0-3.59a11.66,11.66,0,0,0-.06-1.4,3.8,3.8,0,0,0-.7-1.85,1.86,1.86,0,0,0-1-.7,16.93,16.93,0,0,0,1.1,2.77A14.15,14.15,0,0,1,152.55,128.61Z"/><path class="cls-15" d="M142.87,95.44l0-3.59a11.66,11.66,0,0,0-.06-1.4,3.8,3.8,0,0,0-.7-1.85,1.86,1.86,0,0,0-1-.7,16.93,16.93,0,0,0,1.1,2.77A14.15,14.15,0,0,1,142.87,95.44Z"/><path class="cls-15" d="M122.44,73.26a38.09,38.09,0,0,1,18.8,12.38c-.55-2.19-1.15-4.47-2.64-6.17s-3.87-2.69-6.09-3.52l-8.39-3.17a20.26,20.26,0,0,0-5.6-1.52,6.37,6.37,0,0,0-4,.82C116.81,72.91,119.92,72.53,122.44,73.26Z"/><path class="cls-15" d="M126,68.28l-5-2.07A12.92,12.92,0,0,0,116.21,65l-3.08-.32a30.93,30.93,0,0,0-3.17-.22,13.84,13.84,0,0,0-5.13.9A46.26,46.26,0,0,1,126,68.28Z"/></svg>