<svg id="Layer_1" data-name="Layer 1" xmlns="http://www.w3.org/2000/svg" viewBox="0 0 119.87 149.01"><defs><style>.cls-1{fill:#5d3c1c;}.cls-1,.cls-10,.cls-12,.cls-13,.cls-14,.cls-15,.cls-16,.cls-17,.cls-18,.cls-19,.cls-2,.cls-3,.cls-4,.cls-5,.cls-6,.cls-7,.cls-8,.cls-9{fill-rule:evenodd;}.cls-2{fill:#6e4920;}.cls-3{fill:#83592b;}.cls-4{fill:#7c5324;}.cls-5{fill:#5f3f1e;}.cls-6{fill:#6c4921;}.cls-7{fill:#e1d4b1;}.cls-8{fill:#d5c69a;}.cls-11,.cls-9{fill:#fff;}.cls-10{fill:#010101;}.cls-12{fill:#bb9c66;}.cls-13{fill:#936836;}.cls-14{fill:#c8b188;}.cls-15{fill:#54371c;}.cls-16{fill:#442c19;}.cls-17{fill:#b5954a;}.cls-18{fill:#cfb36a;}.cls-19{fill:#dcd5b2;}</style></defs><title>monkey</title><path class="cls-1" d="M67.12,48.27c0-.23-.08-.45-.12-.68-.18-.49-.41-1-.65-1.5a5.15,5.15,0,0,1,.48.56q-1-5.25-1.54-10.54-.44-3.17-.79-6.34v0c-2.73,5.61-5,10.86-9.94,18.2-5.16,7.65-18.45-1.6-29.23-3.56,5.14-33.1-12,3.12-14,6.78,2.06-1.65,4.32-5.92,8-6.9-2.65,2.59-6.94,6.93-7.21,9.38,2.42-3.35,3.86-2.48,7.51-8.43-1.34,3.95-5.35,8-6.36,11.15,2.16-.89,4.88-5.3,5.94-7.42-.59,3.17-3.89,7.12-4.58,9.55.64-.47,2.78-5.41,3.75-5.39-1,.8-2.07,6.94-2.06,7.17.88-1.77,3.53-7.52,5.29-8-1.13,2.74-3.9,9.52-5.83,11,3.27-.43,4.11-7.32,7.78-9.17-3.76,3.21-1.28,7.51-4.49,8.92.68-.08,3.71-1.26,3.67-4,.38.61.28,3.22-2.12,4.61,2.46-.91,5.9-4.77,7.16-8.41.1.28-.44,6.7-5.26,9.68,4.51-1.52,8.63-6.67,9-8,.1.27-2.69,7.31-6.75,8.47,4.89.29,6.47-6,9.33-8.24.13.27-3,7-7.09,9.81.66-.19,5.29-4,6.66-7.21a9.16,9.16,0,0,1-3,5.52c2.73-.77,4.8-4.87,9.16-10.47-3.34,5.05-3.07,8-8,11.39,2-.36,5.08-3.1,6.25-6.51.82,1-.81,5.06-3,7.17a16.34,16.34,0,0,0,6.43-8.9c-.15,2.55-.92,5.43-4,9.41.57-.36,6.31-8.53,6.8-11.23,2.18,2.95-1.63,6.75-2.24,8.26,5.07-3.56,6.34-7.66,7.43-11.19a4.18,4.18,0,0,1,.18-.57l-.18.57c-.53,2.1-.89,7.07-5.19,10.53a9.69,9.69,0,0,0,4.78-6.25c.91.79-1.21,4.29-2.66,6.11.35-.43,4.8-4.12,5.17-7.88,1,1.35-.9,4.88-1.79,6.32.87-.68,3.42-4.35,3.38-6,.52.5.39,2-.35,3.71a4.51,4.51,0,0,0,1.38-3.36,1.78,1.78,0,0,1,.23,2.1c1-.45.93-2.61.44-3.19a1.93,1.93,0,0,0-.28-.15.34.34,0,0,1,.28.15c1.55.79,1.32,3.15.24,4.36,2.22-1.32,1.41-3.73,1.24-4.73a2.16,2.16,0,0,1,.93,3.35c1.64-1.12,1.39-2.25,1-4.51,1.57.78,2.37,2.06,1.31,3.67,2.17-1.36.55-4.63.79-4.75,1.37,1.32,1,2.35.81,4,.7-1.12,2-4.27.55-4.87,1.7-.71.94,1.83.76,3.3.23-.85,2.54-3.37-.52-5,2,.27,2.2,1.48,2.63,3.76.59-.86-.41-3.7-1-3.92,1,.32,1.86,1.4,2.47,3.28.61-1,0-3.53-.13-5.18a9.08,9.08,0,0,1,1.27,3.61,4.91,4.91,0,0,0,.06-2.21A4.31,4.31,0,0,1,67.12,48.27Z"/><path class="cls-2" d="M66.2,42.89c-.09-.16-.14-.27-.09-.3l0,0q-.5-3.26-.87-6.52t-.79-6.34c-.33-2.27-.6-4.55-.8-6.83-1.3,2.37-2.81,4.92-4.75,7.78-5.16,7.65-18.45-1.6-29.23-3.56-11-3.57-16.79,9.46-18.49,12.59C13.3,38.09,14.69,34,18.37,33c-2.65,2.59-6.07,6.79-6.34,9.24,2.42-3.35,4.64-3,8.29-9-1.33,4-5.46,7.06-6.47,10.21,1.9-.78,3.42-4.5,5.74-4.32-2.63.73-1.48,3.43-3.66,5.22,1.78-.21,4.84-5.47,7-7.46-.65,2.94-4.43,7.2-5.33,9.9,2.13-2.65,3.23-1.44,5-5.05C22,44.89,20.19,48,19.5,50.41c.63-.47,2.77-5.41,3.75-5.39-1,.8-2.07,6.93-2.06,7.16.88-1.77,3.53-7.52,5.28-8-1.13,2.74-3.9,9.52-5.83,11,3.27-.44,4.11-7.32,7.77-9.18-3.75,3.21-1.28,7.51-4.49,8.92.68-.07,3.71-1.26,3.66-3.95.38.61.28,3.21-2.12,4.61a9.93,9.93,0,0,0,6-6.48c.1.27.74,4.77-4.08,7.74,4.51-1.52,7.45-4.73,7.87-6.06.1.27-1.5,5.38-5.57,6.54,4.89.29,5.29-4.07,8.14-6.3.14.26-1.78,5.07-5.9,7.87a11.28,11.28,0,0,0,5.47-5.28,9.11,9.11,0,0,1-3,5.52c2.74-.76,4.8-4.87,9.16-10.47-3.34,5.05-3.07,8-8,11.39,2-.35,5.08-3.09,6.25-6.51.81,1-.82,5.06-3,7.17a16.39,16.39,0,0,0,6.44-8.9c-.16,2.54-.92,5.43-4,9.41.57-.37,3.7-3.26,4.19-6,2.18,2.95,1,1.49.37,3,5.35-3.75,5.21-4.1,6.15-7.12.22,1.15.85,2.64-3.9,6.45a9.69,9.69,0,0,0,4.78-6.25c.9.79-1.22,4.28-2.66,6.11.35-.42,4.8-4.11,5.18-7.88,1,1.36-.9,4.88-1.79,6.32.88-.68,3.42-4.35,3.37-6,.52.5.4,2-.35,3.7a6.1,6.1,0,0,0,1.26-6.19c1.54.49,1.6,4.07.36,4.94l.13-.11c2.3-1.2,2.54-6.41,2.22-7.34l-.09-.15s.06.07.09.15a6.6,6.6,0,0,1,.58,5.11c.72-1.07,2-4.47,1.08-6.67a2.15,2.15,0,0,1,.94,3.35c1.63-1.12,1.39-2.25,1-4.5,1.57.77,2.38,2.06,1.31,3.67a2.27,2.27,0,0,0,.94-1Q66.34,43.84,66.2,42.89Z"/><path class="cls-3" d="M64.91,33l0-.23a2.47,2.47,0,0,1-2,.15,13.48,13.48,0,0,0,1.79-1.5c0-.2-.05-.41-.08-.61a15,15,0,0,1-1.82.4,5.16,5.16,0,0,1,1.7-1.43v0l0-.23c-.3.1-.65.24-1.09.44.27-.24.64-.55,1-.86,0-.3-.08-.61-.12-.91-.16,0-.27,0-.27,0l.26-.1a86,86,0,0,1-.83-9.77C61,23,58.56,27.13,56.36,28.7c-5.45,3.88-13.55,1.1-20.55-.83-.08,0-9.37-1.89-11.3-1.46,2.13.24,3.68.3,4,1a2.29,2.29,0,0,0-2.94,1,5,5,0,0,1,2.73-.65c-.69.16-1.2,1-1.38,1.23a6.63,6.63,0,0,1,4.81-.37c-1.26.23-4,.86-4.36,2.29.51-.12,4.34-1.71,6.2-1.1-1.18.06-3.82.73-5,2.1,1.25-.52,5.65-1.7,7.16-1.47-1.74.46-4.36,1-5.82,2.24,1.17-.09,4.23-.94,5.32-.37-1.13.54-3.63,1.07-4.31,2.3A26.91,26.91,0,0,1,36.31,33c-.54.26-2.75,1-3.26,2.85.43-.34,1.9-1.74,2.53-1.68a9.39,9.39,0,0,0-1.47,3.1c.62-1.32,2.88-4,4-4.37a10.55,10.55,0,0,1-3.37,4.46c2.15-.21,2.65-2.77,5.08-4.06-2.53,2.31-1.81,4.65-3.93,5.6A3.12,3.12,0,0,0,38.43,36a3.3,3.3,0,0,1-1.5,3.45c1.63-.6,3.15-2,4.06-4.72a6.15,6.15,0,0,1-2.85,5.76c3-1,5-3.33,5.28-4.32.06.21-1.11,4.05-3.79,4.78,3.19.41,3.56-2.9,5.47-4.5a11.65,11.65,0,0,1-4,5.79,7.64,7.64,0,0,0,3.71-3.82,7.26,7.26,0,0,1-2.12,4.11c1.81-.48,3.25-3.54,6.23-7.65-2.3,3.74-2.19,6-5.48,8.4,1.3-.19,3.4-2.17,4.24-4.73.51.8-.65,3.84-2.1,5.37A12.13,12.13,0,0,0,50,37.38a13.41,13.41,0,0,1-2.81,7A9.16,9.16,0,0,0,50,40c1.36,2.34-.49,3.32-.93,4.44,3.39-2.52,4.32-5.59,5.11-8.25-.4,1.6-.75,5.37-3.63,7.83a7.19,7.19,0,0,0,3.27-4.6C54.44,40.1,53,42.7,52,44c.24-.31,3.24-3,3.57-5.82.63,1.08-.71,3.7-1.32,4.76.59-.48,2.34-3.19,2.35-4.47.32.4.21,1.54-.31,2.82a5.18,5.18,0,0,0,1-4.69c1,.44,1,3.18.12,3.8l.09-.08c1.53-.82,1.81-4.79,1.62-5.53L59,34.7a.22.22,0,0,1,.05.12,5.79,5.79,0,0,1,.26,3.93,7.56,7.56,0,0,0,.86-5.06,1.8,1.8,0,0,1,.53,2.6c1.1-.79,1-1.66.78-3.4a2,2,0,0,1,.77,2.86c1.45-1,.28-2.33.44-2.42C63.41,34.18,64.19,33.71,64.91,33Z"/><path class="cls-4" d="M57,127.92c.28.37.62.79,1,1.33l-.1.62c.65-.2,1.87,1.19,1.88,1.89-.61-.41-.86-.62-1-.17.32-.13,1,.76,1.48,1.74-.44-.23-.66-.34-.87.09.41,0,1,.14,1.62,2.67-.63-1.2-.76-.89-1.26-.89a2.9,2.9,0,0,1,1.45,2.56c-.6-1-.63-.85-1.24-1a3.4,3.4,0,0,1,1.32,3.38c-.11-.59-.76-2.09-1.28-.94,1.67.21.83,2.4,1.16,2.74-.65-.7-.06-2.41-1.19-1.75a4.61,4.61,0,0,1,.74,3.53c0-1-.41-2.16-.83-2,.27.35.36,3.07.63,3.43-.39.26-.4-1.4-.84-1.74.17.37.64,3.09.2,4,.14-1.17-.07-2-.53-2.19.08.41-.74,2.73-.09,3.19-.68.34-.39-.79-1-1.33-.29.34-.29,1.57-.59,1.91a1.84,1.84,0,0,0-.27-1.67c-.16.41-.07,1.23-1.23,1.06.31-.09.85-.57.48-1.65,0,.83-.72,1.15-.76,1.07.47-1-.1-.81-.42-1.19-.44,0,0,1-.41,1,.21-.87-.76-1.42-1.13-2.16-.23,0,0,1-.54.94.64-.66-.6-1.86-.9-1.63l-.25-.49c-.11.29.1.93-.38,1,.55-.71-.61-1.78-.91-1.74.23.44-.33,1-.28.84.17-.69-1.3-3.07-1.59-3.55a2.14,2.14,0,0,1-.4,1.49,3.34,3.34,0,0,0-.64-2.66c0,.33.24,1.39-.37,1.58.46-.89-.24-2-.51-2.46,0,.48.35,1.65-.76,1.93.79-.94-.26-2.29-.49-2.66-.35-.08-.37,1.58-1.41.9,1.21.23.73-1.74,0-2.44,0,.32-.91,1.78-1.73,1.26a1.19,1.19,0,0,0,.37-2.19c-.37-.1-.94,1.16-2.4,1.45a3.21,3.21,0,0,0,1.2-2.3c-.41-.09-1.39.38-1.8.29.49-.72-.36-.84-.38-1.25l-1.12-.41c0-.2,0-.4,0-.6v0l0,0a17.81,17.81,0,0,1-2.51-4.59c-.38-1.74,13.39-5.2,13.39-5.2S57.42,127.53,57,127.92Z"/><path class="cls-5" d="M6.55,46.75C8,44.64,12,42.46,13.23,41.91c-1.66-.16-3.42,1.45-4.48,1.65a21.73,21.73,0,0,0,3.37-3.31A14,14,0,0,0,8,42.55c1-1.6,6.24-4.22,7.34-5.08a18.5,18.5,0,0,0-5.5,2.38c.14-.91,1.47-3.54,4.86-5.09-1.13-.1-4.27,2.59-4.87,2.88-.06-1,5.56-6.32,8-6.44-2-.71-6,2.8-7.5,4.29.25-1,2.84-3.61,6-6.07-.68-.17-1,.21-1.66-.06,2.74-.84,4.87-4.55,7.12-3.89-.95-.75-2.18-.39-4.44,1.65.94-2.44,4.76-4.71,5.78-5.36-.86,0-2.15,0-4.06,2A8.5,8.5,0,0,1,24,19.47c-.95-.51-1.74,0-2.84.27a12.84,12.84,0,0,1,5.34-3.28c2.11-.56,2.32-2.63,3.48-2.37.3-.06,7.93-4.83,15.32-.89,7.21,3.84,5.51,19.24,7.06,30.54.83,6,6.89,10.24,6.15,12.38-.42,1.6,1.61,6.89.11,9.64C59,63.67,57.86,64,58,63c-1,1.71.51,3.89,1.85,4.94-1.54-.63-1.42-.54-2.36-2,.3,1.86,2,2.62,1.82,4a2.91,2.91,0,0,0-2.15-1.4C61,71.13,59.72,73.13,59,74c0-1.05.35-1.66-1.16-2.1a3.36,3.36,0,0,1,.83,3.78c-.3-1.22-.61-1.64-1.32-1.83.08,2.76,3.07,1.35,1.91,5.39,0-2.54-1.84-3.13-2.51-4.07,2.24,3.26,3.07,5.28.08,8.38,2.47-4.84-2.16-7.3-2.62-9.11-.36,1.38,1.24,3,.51,4.83-.05-3.26-1.28-4.41-2.54-5a7.29,7.29,0,0,1,.37,8c.89-5.52-2.15-8.62-3.86-8.84,1.58.9,1.61,2.86,3.33,5.95-1.1-.95-2.63-4.34-4.2-6.43.32.84.69,2.59,0,3.53A7.22,7.22,0,0,0,45.88,71c.66,1.53,1.74,5-.87,6,1.09-1.38.59-5.67-.5-6,.53.55.7,3,.36,4.25-.34-.45-.44-4.54-1.79-4.52,1.21,1.16.08,5.22-.47,6.1.26-1.37-.11-6.26-.51-6.62.1,1.49-1,4-2.11,5.51.31-.88,1.65-8.11.84-9,.14,1.4-1.35,5.34-2.82,7.36.43-2,2.23-6.07,1.36-7.49a6.33,6.33,0,0,1-1.58,4.24c.22-1,1.27-5.21.76-5.8-.07,1-2.9,4.36-4.59,4.81A5.17,5.17,0,0,0,35.87,66c-1.27.84-1.53,1.85-4.79,2.52,1.7-1.4,4-1.73,5.77-7.57-.85.53-3.28,2.27-3.72,4.55-.58-.09.17-4.41,1.06-4.94-1.56-.14-2.34,6.12-5.44,7.59,1-.91,2-3.75,2.27-5.42a5,5,0,0,1-2.67,3.6,14.25,14.25,0,0,0,2.14-5.28,11.7,11.7,0,0,1-4.08,5.08c2.42-2.79.06-3.34,2.88-5.16-2.28-.17-3.4,4.81-5,6.23,1.72-3.08,2.42-6.75,4-7.64a9.93,9.93,0,0,0-6.59,2.63c1.05-1.4,3-3.07,2.19-4.23,0,1.72-1.56,2.09-2.63,3.24.37-1.13,1.27-3.22.92-4.6-.47,1.8-3.63,5.86-6.56,7,.91-.72,3.87-4.06,4.28-6.45a16.31,16.31,0,0,1-4.29,4.2c2.63-2.67,5.75-9.08,5.81-10.87-1.62,3.08-4.18,6.51-6.79,8A18.75,18.75,0,0,0,17.33,53c-1.41,2.25-2.11,3.64-4.32,4.87,1.7-1.92,1.89-2.86,1.78-3.76-.42,1.3-.52,2.26-3.77,4.21,1.57-2.12,1.33-2.51.81-4.16.74,2.54-2,4.95-3.45,5.77,1.34-1,2.89-3.22,1.86-4.93.19,1-1.1,3.79-3,4.67.44-.52,2.24-2.45,1.83-4.05-.18.44-.51,1-1.82,1.26.12,0,2-1.41,1.7-2.15-1.41.59-2.41,1.54-2.81,4.45-.64-3.21,2.43-4.57,3.9-6.89a17.85,17.85,0,0,1-3.72,2.64C8,53,9,52,8.39,51.68c-.65.81-1.36,1-2.71,1.7C7,51.94,9.62,50.21,10,48.48a2.43,2.43,0,0,1-2.29,1,2.59,2.59,0,0,0,1.09-2.45c-.51.3-1-.26-1.4,1.79-.38-1.15.86-2.13,1.1-3.08A3.94,3.94,0,0,0,6.55,46.75Z"/><path class="cls-6" d="M14.93,110.05c-.7,4.32-.6,4.66,1.08,7.89-1-2.82-.79-3.13-.49-5.13-.41,3.59,2.08,6.48,3.26,8.39a8.93,8.93,0,0,1-.76-4.82c1.53,6.92,2.25,4.76,3.11,7.18.11-1.63-1.23-3.23-1.18-3.27,2.5,1.55,1.22,5.14,2.84,7.09-.21-1.68-.49-3.07-.26-3.26,2,3.87.73,8.37,0,10,1.29-1,1.54-4.55,2.28-5.18-1,3-.28,6.64-1.41,8.09,1.61.1,1-5.59,3.18-7.18-1.11,4.45,0,6.34-1.46,10.33,2-1.27.73-8.26,3-9.23-1.29,5.8.4,7,1,7.31-1.76-3,1.06-4.79-1-9.3,2.51,3.25,0,8.47,2.74,10.26-1.11-2.15.8-6.51-.65-10.58,1.36,1.22,1.38,7.68,1.42,9.66.11-.21,1.75-6.22,1.22-7.36a7.5,7.5,0,0,1,1.6,2.67c-.58-2.42-2.28-5.76-2.21-8.61L44.6,103.11l-30-1.36Z"/><path class="cls-5" d="M1.82,85.81C3.32,83.7,7.26,81.52,8.5,81,6.83,80.82,5.08,82.42,4,82.62a21.74,21.74,0,0,0,3.37-3.31,14,14,0,0,0-4.1,2.3c1-1.6,6.24-4.23,7.34-5.09a18.48,18.48,0,0,0-5.5,2.38C5.27,78,6.59,75.37,10,73.81c-1.14-.1-4.28,2.59-4.88,2.88-.07-1,7.3-6.06,8-6.44-1.16-.13-6.59,3.55-7.5,4.29.52-2.09,5.62-8,11.84-6.67,8.82-1.81,12.94,8.88,24.86,16.42l-.23-1.74c8,.86,5.61,2.74,7.57,6.14L54,96.23c-.42,1.6,1.38,5.85-.12,8.59.34-2.1-.77-1.77-.59-2.77-1,1.71.51,3.89,1.85,4.94-1.54-.63-1.41-.54-2.36-2,.3,1.86,2,2.62,1.82,4a2.92,2.92,0,0,0-2.15-1.4c3.79,2.59,2.52,4.59,1.8,5.51,0-1.05.35-1.66-1.16-2.1,1.3,1.46,1.19,2.29.82,3.78-.29-1.22-.61-1.64-1.32-1.83.08,2.76,3.07,1.35,1.91,5.39,0-2.54-1.84-3.13-2.51-4.07,2.24,3.26,3.07,5.29.08,8.38,2.47-4.85-2.16-7.3-2.62-9.1-.36,1.38,1.24,3,.51,4.82-.05-3.25-1.28-4.41-2.54-5a7.29,7.29,0,0,1,.37,8c.89-5.52-2.15-8.62-3.86-8.84,1.58.89,1.61,2.85,3.32,5.95-1.1-1-2.63-4.34-4.2-6.44.32.84.69,2.59,0,3.53a7.21,7.21,0,0,0-1.91-5.48c.66,1.53,1.74,5-.87,6,1.09-1.38.59-5.67-.5-6,.53.55.7,3,.36,4.25-.33-.45-.44-4.54-1.79-4.52,1.21,1.16.08,5.22-.47,6.09.27-1.37-.12-6.25-.51-6.62.11,1.5-1,4-2.11,5.51.31-.88,1.65-8.11.84-9,.14,1.4-1.35,5.34-2.82,7.36.43-2,2.23-6.07,1.36-7.49a6.34,6.34,0,0,1-1.59,4.24c.23-1,.53,3.73,0,3.14-.07,1-4,2.63-4.54,6.22-1.41-1.95,1.81-5,1.75-7.14-1.67.4-1.81,2.85-3.37,5.59.93-1.65,0-3.36,2.86-8.45-.85.53-3.26,4.71-3.7,7.48-.19-3.34,1.73-7.65,2.62-8.18-1.57-.14-3.5,2.93-4.28,5.88,0-1.43.62-2.73,1.55-5a8.52,8.52,0,0,0-3.46,6.81c-1.47-2,.17-5.31,1.13-7.17-2.27.84-3,4.76-1.69,7.62-1.82-2.34-2.18-3.57-1.51-5.79-1.68,2.68.53,5.62-1.38,7.3,1.22-2.48-.78-3.78-.43-5.64-1.77,1.42-1.14,3.62,0,5-1.71-.68-1.6-2.79-2.38-4,0,1.72-.33,3,1.37,4.63-1.7-.48-2.54-4.1-2.89-5.48-.59.42-.17,1.87.31,2.82-2.07-1.07-1.67-3.91-1.25-5.3-.84.31-1.13.16-.79,2.92a13.41,13.41,0,0,1-1.23-6.68c-1.06,1.79-.12,3.88-.41,4.81-.29-1.69-2-4.77-1.4-7.08-1,1.28-.65,2.74-.87,3.53-.7-2.88-.12-3.28-.31-6.42-.42,1.3-1.24.45-1.58,3.66-.48-2.15-1.43-5.68-.9-8.49C6,98,5.24,98.55,6,102c-2.05-3.44.55-6.19-.48-7.9.19,1-1.09,3.79-3,4.67.44-.52,2.24-2.44,1.83-4.06-.18.44-.52,1-1.82,1.26.11,0,2-1.41,1.7-2.15-1.41.6-2.42,1.54-2.81,4.45C.79,95,3.86,93.67,5.33,91.35A17.93,17.93,0,0,1,1.6,94c1.71-1.9,2.65-3,2.05-3.26-.65.8-1.35,1-2.71,1.7C2.28,91,4.89,89.27,5.3,87.54a2.43,2.43,0,0,1-2.29,1A2.62,2.62,0,0,0,4.1,86.11c-.51.3-1-.25-1.41,1.79-.38-1.15.86-2.12,1.1-3.08A4,4,0,0,0,1.82,85.81Z"/><path class="cls-6" d="M15.26,68.18C25.95,70.59,40.74,64.92,44.32,73l6.4,14.41a74.52,74.52,0,0,1,3.64,9.38c.41,1,.49,6.55-1,6-.15-2.27.65-4-.85-6.46.65,1.78.85,2.43-.88,4.39.62-.56.93-2.44.25-4.58,0,3.65-.44,4.81-1.46,6,1.82-4.51.3-5.94.08-7.26-.24.12.82,1.58-1.41,2.85,1.13-1.57,1.13-5.06-.4-5.89.26,2.27,0,7.53-2.71,9.63.91-1.24,2.06-8,.69-8.56.8,2.23-2.53,6.86-3.3,7.89,1-3.18,1.86-4.38,1.49-6.56-.7,3.47-2.24,4.07-4.77,5.26-.07.29,3.42-2.69,3.56-4.77.29-1.14.22-4.71-1.07-5.2A6.09,6.09,0,0,1,41,95.64c.82-1.67,1-3.16.51-3.68,0,1.67-2.72,5.24-3.63,5.88.94-1.41,3-4.85,2.05-6.24-.53,3.75-5.13,7.25-5.5,7.66,1.52-1.76,3.79-5.16,2.91-6a9.72,9.72,0,0,1-5,6c4.9-3.62,5.07-9.28,5.82-10.86-1.3,3.61-2.6,7.91-8.1,11.43.68-1.48,5.22-6.82,3.17-9.86-.61,2.68-4.64,11.48-7.84,12.64,2.91-3.31,4.19-9.31,4.45-11.85-1.4,4.15-3.92,9.15-6.91,11.24,2.23-2,4-6,3.25-7-1.31,3.37-4.54,6-6.52,6.25,5-3.23,6.11-9,5.44-14.53,0,8.85-3.82,12.91-6.59,13.56,2.59-1.82,4.27-7.65,4.24-7.71-1.51,3.11-3.86,2.85-6.66,7.36,1.14-5.34,5.43-7.5,5.3-7.77-3.81,1.63-6.67,6.16-8.11,10.94-1.46-4.34,6-10.09,5-12.59-.86,2.42-2.08,5.85-6.66,7.18,4.95-2.77,4.49-7.29,4.4-7.57-1.41,3.58-6.71,6-6.64,11.25-1.72-3,3.06-8.92,2.71-9.55C12.06,94.52,9,95.58,8.3,95.63c3.27-1.27,1-5.67,4.86-8.73-3.74,1.71-6.61,8.74-6.08,14.22C4.92,92.33,10,87.71,11.29,85c-1.77.45-4.66,6.08-5.62,7.81C5.69,92.6,7,86.51,8,85.75c-1-.06-3.31,4.79-4,5.23.79-2.4,2.72-5.41,3.44-8.56-1.95,3.53-3,2.28-5.23,4.84,1-2.66.74-7.2,3.31-9.72C2.31,79.6,2.86,84.27.94,85.69c1-2.94-.18-5.45,3.73-9-2.31-.28-2,3.19-3.92,3.89C1.11,77.19,4.1,75.91,5.6,72c-3.89,5-3.29,3.83-5.6,7.59.14-2.57,3.26-8,6.43-10.17-3.71.83-4.3,5-6.43,6.61C1.37,73.76,1.88,65.85,7.2,64.88,9,64.55,12.49,67.16,15.26,68.18Z"/><path class="cls-5" d="M2.83,63.76c1.49-2.11,5.44-4.29,6.68-4.84C7.85,58.77,6.09,60.38,5,60.57A21.84,21.84,0,0,0,8.4,57.26a14,14,0,0,0-4.1,2.3c1-1.6,6.24-4.22,7.34-5.09a18.45,18.45,0,0,0-5.5,2.38C6.28,56,7.6,53.32,11,51.77c-1.13-.1-4.28,2.59-4.88,2.88-.06-1,7.3-6.06,8-6.43-1.16-.13-6.59,3.54-7.5,4.28.52-2.1,5.62-8,11.85-6.67C27.33,44,31.45,54.71,43.37,62.25l-.22-1.74c8,.86,15.7.82,14.43,4.53l-2.77,8.1c-.42,1.6,1.61,6.9.1,9.64.34-2.09-.78-1.77-.58-2.77-1,1.7.51,3.89,1.84,4.93-1.55-.63-1.42-.53-2.36-2,.3,1.86,2,2.62,1.82,4a2.9,2.9,0,0,0-2.15-1.39c3.78,2.59,2.52,4.59,1.8,5.51,0-1.06.35-1.66-1.15-2.11,1.3,1.46,1.19,2.29.83,3.77-.29-1.22-.61-1.64-1.32-1.82.08,2.76,3.07,1.34,1.91,5.38,0-2.54-1.84-3.13-2.51-4.07,2.24,3.26,3.07,5.29.08,8.39C55.59,95.76,51,93.3,50.5,91.5c-.36,1.38,1.24,3,.5,4.82,0-3.25-1.28-4.41-2.54-5a7.29,7.29,0,0,1,.37,8c.89-5.52-2.15-8.63-3.86-8.84,1.58.89,1.61,2.85,3.32,5.95-1.1-1-2.63-4.34-4.2-6.44.32.84.69,2.59,0,3.53A7.22,7.22,0,0,0,42.16,88c.66,1.53,1.75,5-.86,6,1.09-1.38.58-5.67-.5-6,.54.55.7,3,.36,4.24-.34-.45-.44-4.54-1.79-4.51,1.22,1.16.08,5.22-.47,6.1.27-1.37-.11-6.26-.51-6.62.11,1.49-1,4-2.1,5.51.31-.88,1.65-8.11.84-9,.14,1.4-1.35,5.33-2.82,7.36.43-2,2.23-6.07,1.37-7.49a6.33,6.33,0,0,1-1.59,4.24c.22-1,1.27-5.21.77-5.8-.08,1-2.91,4.36-4.59,4.81A5.17,5.17,0,0,0,32.15,83c-1.27.84-1.53,1.85-4.8,2.52,1.71-1.4,4-1.73,5.78-7.57-.85.53-3.28,2.27-3.72,4.55-.58-.09.17-4.41,1.07-4.94-1.56-.14-2.34,6.13-5.44,7.59,1-.91,2-3.74,2.27-5.42a4.93,4.93,0,0,1-2.67,3.6,14.33,14.33,0,0,0,2.14-5.28,11.65,11.65,0,0,1-4.09,5.08c2.42-2.78.06-3.34,2.88-5.15-2.28-.17-3.4,4.81-5,6.23,1.73-3.08,2.43-6.75,4-7.64a9.88,9.88,0,0,0-6.59,2.62c1.05-1.4,3-3.07,2.2-4.24,0,1.72-1.57,2.09-2.63,3.24.37-1.13,1.27-3.22.92-4.6-.47,1.81-3.63,5.86-6.57,7,.92-.72,3.87-4.06,4.28-6.45a16.29,16.29,0,0,1-4.29,4.19c2.63-2.66,5.75-9.08,5.81-10.87-1.62,3.07-4.18,6.51-6.79,8A18.7,18.7,0,0,0,13.61,70c-1.41,2.25-2.11,3.63-4.32,4.87C11,73,11.18,72,11.07,71.11c-.42,1.3-.52,2.26-3.77,4.21,1.56-2.12,1.33-2.52.81-4.16.74,2.53-2,4.95-3.44,5.77C6,75.89,7.56,73.72,6.53,72c.18,1-1.1,3.79-3,4.67.44-.52,2.24-2.44,1.83-4.06-.18.44-.52,1-1.82,1.26.11,0,2-1.41,1.7-2.15-1.41.6-2.41,1.54-2.81,4.45C1.8,73,4.87,71.62,6.34,69.31a17.9,17.9,0,0,1-3.72,2.64c1.71-1.9,2.64-3,2-3.26-.65.8-1.36,1-2.71,1.7,1.34-1.44,3.94-3.16,4.36-4.9a2.43,2.43,0,0,1-2.29,1,2.61,2.61,0,0,0,1.09-2.45c-.51.3-1-.25-1.4,1.79-.38-1.15.86-2.12,1.1-3.07A4,4,0,0,0,2.83,63.76Z"/><path class="cls-6" d="M33.06,4.28A8.74,8.74,0,0,0,31.21,5c.38.06.5-.11.87.28A2.9,2.9,0,0,0,29.9,6c.64-.21,1-.12,1.19.09a4.2,4.2,0,0,0-2.5,1.41c.48-.11.67-.54,1.39-.21a3.9,3.9,0,0,0-2.32,1.44c.39-.13.68-.16.89.12A4.6,4.6,0,0,0,25.8,10.5c.37,0,1.21.08,1.39.37a3.44,3.44,0,0,0-2.79,1.57c.4-.19,1.67-.43,1.72,0a2.32,2.32,0,0,0-2.07.86,1.48,1.48,0,0,1,1.24-.12,3.19,3.19,0,0,0-2,1.7c.51-.41.83-.77,1.53-.54a4.84,4.84,0,0,0-2.13,2.09c.59-.32,1.57-1.15,1.81-.74a5,5,0,0,0-2.58,2.87c.51-.76,1.66-2,2.29-2.05-.88.84-2,2.09-1.85,2.92a3.57,3.57,0,0,1,1.58-1.7c-.24.7-1.47,2-1.55,3.3.54-1,1.06-1.34,1.34-1.14a4.58,4.58,0,0,0-1.43,2.91c.39-.64,1.36-1.39,1.71-1.08-.59.7-1.06.62-1.12,2,.47-.7.72-.65,1.11-.39-.53.18-2,1.58-1.82,2.68,1-1.36,1.63-1.27,2-1a5.4,5.4,0,0,0-2,3.38c1.09-2.13,2.16-2,2.16-2a3.62,3.62,0,0,0-1.05,2.59c.52-.46,1.13-1.4,1.66-1.2a1.56,1.56,0,0,0-.39,2c.19-.4.51-.64.85-.28-.74.73.32,2.11.57,2.39-.09-1.28,1.32-2.08,1.39-1.66-.77.74-.52,1.52-.49,2.87.63-1.38.69-1.19.8-2.31.63,1.8-.52,1.29-.31,4,.5-2,1.2-1.88,1.75-2.17-.78,1.28-1.19,2-.38,3.17-.35-1.33.81-1.49,1.17-2.1a4.37,4.37,0,0,0,0,3.91c-.46-1.27.85-1.91.54-3.55.71,1.74-.07,4.23,1.26,5-.77-1.21.44-3.26.33-4.2,1,2,.22,2.36,1.49,3.76-.5-.91-.69-2.54.21-3a4.24,4.24,0,0,0,.13,1.73c.35-.51.35-.45.9-.27-.29,3.54.86,5.05,1.49,5.66-1.11-1.64.63-3.3-.82-6.39a4,4,0,0,1,1,3.86c1-1.08.55-2.87.92-3.63,1.71,2.55.87,4.09.26,6,1.07-.74,1.49-4.07,3.1-5-.18.51,1.26,2.13.41,4.08,1.58-1,.92-3.51,1.42-3.33.58.82,1.48,2.57,2.84,2.58-1.48-1-1.63-2-1.82-3.85.25-.11.94,3,3.35,2.14-1.93-.15-2.45-1.58-2.1-3.29,1.58,1.67,2.31,2.55,4.2,2A2.16,2.16,0,0,1,46.88,35c1.19,2.05,4,3.89,5.28,4A3.52,3.52,0,0,1,50,34.76,2.88,2.88,0,0,0,51.25,37c-.08-.15-.3-2,.11-2.21a6.69,6.69,0,0,0,2.31,4.09c-1.18-1.94-1.78-2.9-1.22-4.41.49,2.56,2.58,5.24,4.08,5-1.81-.46-2.88-3.78-3-4.5.67,2.2,3.21,3.42,5,5.06-.64-1.2-5.41-5.82-5.34-7.58,1.88,3.68,6.44,5,10.21,5.59-2.33,0-9.7-6.35-9.77-7.55,1,.56,5.08,6,8,4.1-3.51-.21-3.64-3.09-4.12-3.14,1.88,1.52,1.8,2.52,4.31,2-1.57-.43-1.39,0-2.67-2.18,1.11,0,1.15.87,2,1.57-.4-.76-.15-1.66-2.26-3.1a3.39,3.39,0,0,1,2.5,2.17c.36-1.87-2.16-3.15-2.45-4.41,1.56,1.92,1.68,1.32,2.32,2.58-.69-3.67-1.61-4-3.21-5.91.62-.18,1.25.33,1.87.94a7.23,7.23,0,0,0-2.47-3.1c.45-.16,1,.2,1.72.86-.07-.74-2.5-3.25-2.38-3.45a3.21,3.21,0,0,1,1.54,1.3,6.56,6.56,0,0,0-2.24-2.92c.59-.09,1.05.19,1.88.94a5,5,0,0,0-2.33-2.91c.4-.17,1.1.2,1.8.89.08-.21-1.31-1.75-1.23-2s.44.05.89.58a3.25,3.25,0,0,0-1.65-2c.45-.18.88.19,1.41.86a3.16,3.16,0,0,0-1.72-1.9c.05-.21.64-.12,1,0-.13-.35-1.2-1.06-1.51-1.22,0-.2.59-.18,1.25,0a3.13,3.13,0,0,0-1.78-1.14.62.62,0,0,1,.94-.38c-.64-.69-1.55-.8-1.85-1.06-.1-.38.65-.47,1.24-.27-1-.68-2.09-.42-2.1-.62S53,7,53.64,7.25a3.1,3.1,0,0,0-2.17-.71c0-.2.5-.78,1.43-.84-1.14-.46-2.52.08-2.54-.12-.4-.08.61-.53.77-.58a2.57,2.57,0,0,0-1.73-.07c0-.51,1-.87,1.5-.91-1.12-.51-2.13.15-2.56.14.06-.54.53-.75,1-.86-.72-.45-2,.07-2-.13-.42,0,.52-.6,1-.58-1-.52-2.15.15-2.22,0s.29-.81,1-1a6.09,6.09,0,0,0-2.06.55c-.1-.19.2-.6.71-.65-.8-.39-2,.13-2.23,0-.4.17.24-.52.67-.53-.53-.32-1.76.46-1.88.29s.47-1,1.05-.92a2.58,2.58,0,0,0-2,.83C41.25,1,40.94.2,40.42,0c.15.46.49.72.38,1.05C40.34.33,38.88-.1,38.57.22a1.49,1.49,0,0,1,1.37.67C39.69.77,38.23.33,37.65.71c.39,0,1,.56.82.48a3.69,3.69,0,0,0-3,.43c.6-.13,1.16,0,.94.41a2.28,2.28,0,0,0-2.37.72c.68-.36.79,0,1,0a3.15,3.15,0,0,0-1.91,1c.24-.14.66-.46.91-.25-.63.46-1.32.45-1.62.71A.63.63,0,0,1,33.06,4.28Z"/><path class="cls-7" d="M33.58,7.58a5.84,5.84,0,0,0-1.29.51c.27,0,.34-.07.61.2a2,2,0,0,0-1.52.48c.45-.15.68-.08.83.06a2.94,2.94,0,0,0-1.75,1c.34-.08.47-.38,1-.14a2.73,2.73,0,0,0-1.63,1c.28-.09.48-.11.63.08a3.16,3.16,0,0,0-1.92,1.17c.26,0,.84.06,1,.26a2.42,2.42,0,0,0-1.94,1.09c.28-.14,1.16-.3,1.2,0a1.61,1.61,0,0,0-1.44.61,1,1,0,0,1,.87-.08A2.25,2.25,0,0,0,26.74,15c.36-.28.59-.54,1.07-.38A3.39,3.39,0,0,0,26.32,16c.41-.22,1.1-.8,1.26-.51a3.45,3.45,0,0,0-1.8,2c.36-.53,1.16-1.36,1.6-1.43-.61.58-1.4,1.46-1.3,2a2.53,2.53,0,0,1,1.1-1.18c-.16.49-1,1.36-1.08,2.31.38-.7.74-.94.94-.8a3.22,3.22,0,0,0-1,2c.27-.45,1-1,1.19-.76-.41.49-.74.43-.78,1.4.32-.49.5-.46.78-.27C26.86,21,25.87,22,26,22.74c.68-1,1.13-.89,1.39-.73a3.81,3.81,0,0,0-1.42,2.37c.76-1.49,1.51-1.4,1.51-1.38a2.49,2.49,0,0,0-.74,1.81c.36-.32.79-1,1.16-.84a1.08,1.08,0,0,0-.27,1.38c.12-.28.36-.45.59-.2-.52.51.23,1.47.41,1.67-.07-.89.92-1.45,1-1.16-.54.51-.36,1.07-.34,2,.43-1,.47-.83.56-1.61.44,1.26-.36.91-.21,2.81.35-1.37.84-1.31,1.22-1.51-.54.89-.83,1.42-.27,2.21-.24-.93.56-1,.82-1.47a3.06,3.06,0,0,0,0,2.73c-.32-.89.59-1.34.38-2.48.5,1.21,0,3,.88,3.51-.53-.84.31-2.28.23-2.93.68,1.39.16,1.65,1,2.62-.35-.64-.48-1.77.14-2.08-.1.18.77,2.22.84,2.65.1-.14-.16-1.72.13-2.05.53.61,1.4.5.93,2.61.69-.76.38-2,.64-2.54,1.19,1.79,1,1.82.57,3.12.75-.52.65-1.81,1.78-2.44-.12.35.88,1.49.29,2.85,1.1-.69.64-2.46,1-2.33.41.57.83,1.44,1.78,1.44-1-.67-.93-1-1.07-2.33.17-.07.66,2.1,2.34,1.5A1.73,1.73,0,0,1,42,30.11c1.1,1.16,1.37,1.33,2.69.92a1.51,1.51,0,0,1-1.45-2,3.58,3.58,0,0,0,2.85,2c-2.15-.91-1.55-1.57-1.44-1.93.69.87,1,.74,1.65,1.3-.06-.1-.21-1.41.08-1.55A4.63,4.63,0,0,0,48,31.74c-.82-1.36-1.24-2-.85-3.09.33,1.79,1.8,3.67,2.85,3.47-1.26-.33-2-2.64-2.07-3.14.47,1.53,1.18.78,2.44,1.93-.45-.84-1.61-1-1.57-2.27.93.47,2.08,1.95,2.92,1.28-1.14,0-1.33-1.3-1.38-2.14.5.52,1.55,1.79,2.4,1.36-.69-.51-.73-.8-.8-1.68,1.08,1,1.74,2.8,3.49,2.43-1.1-.31-1.61-1.52-2.5-3,.77,0,1.32,1.09,1.92,1.57a5.67,5.67,0,0,0-2.09-2.64,2.38,2.38,0,0,1,1.75,1.52c.25-1.31-1.51-2.2-1.71-3.08,1.09,1.34,1.17.92,1.62,1.8-.48-2.56-1.12-2.83-2.25-4.13.43-.12.88.23,1.31.66a6.72,6.72,0,0,0-2-2.41c.31-.11.71.14,1.2.6,0-.52-2.52-2.52-2.44-2.66.31.17,1.11.21,1.48.81-.2-.91-1.73-1.77-2-2,.42-.06.74.14,1.32.65a3.53,3.53,0,0,0-1.62-2c.27-.12.77.14,1.26.62.05-.14-.92-1.22-.87-1.37s.31,0,.62.41a2.28,2.28,0,0,0-1.15-1.4c.31-.12.61.13,1,.6a2.21,2.21,0,0,0-1.2-1.33c0-.14.45-.08.7,0a3.33,3.33,0,0,0-1.06-.84c0-.14.41-.13.87,0a2.24,2.24,0,0,0-1.24-.8.44.44,0,0,1,.66-.26c-.45-.48-1.08-.56-1.29-.74s.45-.33.86-.18c-.71-.48-1.46-.3-1.47-.43s.44-.36.86-.2a2.23,2.23,0,0,0-1.52-.5c0-.14.36-.54,1-.58-.8-.32-1.76.06-1.78-.08-.28-.06.42-.37.54-.41A1.78,1.78,0,0,0,45,8c0-.36.7-.61,1-.64-.78-.36-1.49.1-1.79.1,0-.38.37-.52.72-.61-.5-.32-1.36,0-1.41-.09-.29,0,.37-.42.69-.41-.71-.36-1.51.1-1.55,0s.2-.56.71-.67A4.3,4.3,0,0,0,42,6.07c-.06-.13.14-.42.5-.46-.56-.27-1.37.09-1.56,0-.28.12.17-.36.47-.37-.37-.22-1.23.32-1.31.2s.33-.69.73-.64a1.81,1.81,0,0,0-1.4.58c-.1-.12-.32-.65-.68-.79.1.32.34.5.26.74-.32-.5-1.34-.8-1.56-.58a1,1,0,0,1,1,.47c-.18-.08-1.19-.39-1.6-.13.27,0,.7.4.57.33a2.58,2.58,0,0,0-2.09.31c.42-.09.81,0,.66.29a1.59,1.59,0,0,0-1.66.5c.47-.25.55,0,.71,0a2.22,2.22,0,0,0-1.33.73c.17-.09.46-.32.63-.18-.44.32-.92.32-1.13.5A.43.43,0,0,1,33.58,7.58Z"/><path class="cls-5" d="M53.45,30.23c0-1.71-1.2-3.47-1.55-4.89-.21-.82.29-.69.47-.33A7.66,7.66,0,0,0,50.2,20.9c.07-.26.15-.39.69.06-.41-.93-2.36-2.58-2.63-3.12.41-.05.51,0,1.09.51A10.47,10.47,0,0,0,46,15.5c-2.24-.93-3.93.35-2.92,2.8a5.52,5.52,0,0,0,1.51,3c-.31-.54-.36-.78-.24-1A8.66,8.66,0,0,0,46.19,23c-.42-.71-.7-1.52-.39-1.72,1.25,2.13,2,2.4,2.16,2.49-.4-.82-.27-1,0-1.31a15.16,15.16,0,0,0,1.31,2.93,3.22,3.22,0,0,1,.08-1.85c.69,1.47,2.58,5.72,2.41,6.93A1.11,1.11,0,0,0,52,29.31a5.18,5.18,0,0,1,1,3.17c.63-1.34-.24-3.56-.47-4A6.13,6.13,0,0,1,53.45,30.23Z"/><path class="cls-5" d="M26.41,14c.38-1.18.24-.61.79-1.52.32-.53,0-.72-.17-.51a6.38,6.38,0,0,1,3.71-2.84,1.19,1.19,0,0,0-.94,0c.91-.71,3.13-.7,3.43-1A2.07,2.07,0,0,0,32,7.94c1-.44,1.11-.3,1.5-.17,1.76-.17,2.31.17,2.84,1.63a6.47,6.47,0,0,0-2.51,1.94c-.73.84-1.33.56-2.13.63a3,3,0,0,0-1.91,1.23,1,1,0,0,1,.2-.75,9.28,9.28,0,0,0-.94,1c-.79.81-1.13.18-2.78,2.83-.26-.06.06-1.35.42-1.66-.16.05-.38-.24-.65.4A3.14,3.14,0,0,1,27,13.53,1.83,1.83,0,0,0,26.41,14Z"/><path class="cls-8" d="M46.43,16.42c-1.09-.4-2.44-.23-2.76.63s.52,2.1,1.61,2.5,2.63.17,2.94-.69S47.52,16.82,46.43,16.42Z"/><path class="cls-9" d="M47,17.45a1.76,1.76,0,0,0-2.49-.77c-1.89,1.24.65,4.06,2.63,3.31A1.22,1.22,0,0,0,48,18.6C47.46,17.74,47.58,18.39,47,17.45Z"/><path class="cls-10" d="M46.39,16.56c-1-.36-2.23-.21-2.52.58s.48,1.91,1.47,2.27,2.39.16,2.68-.63S47.38,16.92,46.39,16.56Z"/><circle class="cls-11" cx="46.03" cy="17.49" r="0.63" transform="translate(-2.03 28.23) rotate(-33.4)"/><path class="cls-8" d="M34.23,8.42A2.67,2.67,0,0,1,35.74,9.7a7.37,7.37,0,0,0-1.87,1.63,2,2,0,0,1-.36.33,1.89,1.89,0,0,1-.4-.1c-1-.37-2-1.48-1.67-2.35S33.21,8.06,34.23,8.42Z"/><path class="cls-9" d="M33.22,8.89c1-.35,2-.06,2.24.93v0a7.59,7.59,0,0,0-1.6,1.46,1.9,1.9,0,0,1-.64.49,2.1,2.1,0,0,1-1.69-1,1.27,1.27,0,0,1,.2-1.66C32.69,8.81,32.2,9.24,33.22,8.89Z"/><path class="cls-10" d="M34.18,8.56A2.37,2.37,0,0,1,35.59,9.8a7.72,7.72,0,0,0-1.71,1.54l-.19.19a2,2,0,0,1-.52-.11c-.93-.33-1.8-1.35-1.52-2.14S33.25,8.22,34.18,8.56Z"/><path class="cls-9" d="M33.69,8.91a.56.56,0,0,1,.73.4.66.66,0,0,1-.41.79.56.56,0,0,1-.73-.4A.66.66,0,0,1,33.69,8.91Z"/><path class="cls-12" d="M44,15.15a2.49,2.49,0,0,1,1.21-.45.76.76,0,0,0-.92-.43,3.22,3.22,0,0,1,2.11-.93,2.25,2.25,0,0,0-1.71-.3c0-.33.3-.56.76-.7a1.45,1.45,0,0,0-1.32.11,7.11,7.11,0,0,1,1.67-2,5.31,5.31,0,0,0-2.29.75,2.38,2.38,0,0,1,.77-1.38,2.72,2.72,0,0,0-1.64.32,3.06,3.06,0,0,1,.9-1.8c-.81.15-1.2.45-1.23.86a2.53,2.53,0,0,1,.09-1.62,2.49,2.49,0,0,0-1,1.15,2.23,2.23,0,0,0-.11-1.66,1.2,1.2,0,0,1-.72,1.11,2,2,0,0,0-.48-2.14,1.44,1.44,0,0,1-.44,1.71s0-1.14-.69-1.14a.86.86,0,0,1-.17,1.24,1.86,1.86,0,0,0-1.22-1.57c.36.56.4.74.13,1.07a4,4,0,0,0-.92-1.13c.45.94,0,1.25-.22,1.77-.18-.09-.14-.6-.34-.73.11,1.06-.26,1.18-.29,1.55.12,0,.22.45.34.44.29,0,.6-.5.88-.52.22.13.44.27.45.55.29-.1.48-.26.49-.53.34.3.41.49.43.64a1.57,1.57,0,0,0,.79-.55c.51.39.52.65.51.91a1,1,0,0,1,.78-.13c-.2.2-.08.44.05.69a2.64,2.64,0,0,1,1,0,1,1,0,0,0-.25,1c.27-.08.58.06.9.36a.87.87,0,0,0-.53.69c.31-.08.66.07,1.05.59-.49-.15-.81,0-.9.57.2-.21.45-.08.77.59a.8.8,0,0,0-.89.58c.39-.35.93-.25,1.57.19a.76.76,0,0,0-.57.72c.26-.19.71-.47,1-.19C43.91,15.36,44,15.12,44,15.15Z"/><path class="cls-13" d="M41.76,21.39a9.42,9.42,0,0,1,2.63,4.06,5.74,5.74,0,0,0-3.07-2.62,2.19,2.19,0,0,1,.54,2.45c-.72-2.34-1.4-2.38-2-3.2-.58.3-.6,1.16-.41,2.2a5,5,0,0,1-1.16-1.93c-.64,1.07-.09,2.19,0,3.29a3.55,3.55,0,0,1-1.28-2.29c-.53.35-.56,1.17-.71,1.74a4.14,4.14,0,0,1-.63-2.19c-.8.25-1,1.11-1.3,1.9-.24-.8-1-2.16,0-3-.53.14-1.25,1.26-1.62,1.76a3.7,3.7,0,0,1-.17-2.64,2.14,2.14,0,0,0-1.14,1.35,3.07,3.07,0,0,1,.28-2c-.43,0-.8.1-.94.33A4.15,4.15,0,0,1,32,18.26a2,2,0,0,0-1.55.9,4.4,4.4,0,0,1,1.24-2.26c-.42-.21-.84.08-1.17.25.07-.66,1.26-1.28,1.67-1.78-.6-.2-1.22.39-1.61,1,.05-.71,1-1.5,1.35-1.91-.52.09-1.23-.21-2.06.51.74-.93,1.95-1.12,2.91-1.68a.52.52,0,0,0-.59-.19,5.58,5.58,0,0,1,2.28-.77.62.62,0,0,0-.4-.17c1.85-1.11,2.49-.89,3.09-.43a.73.73,0,0,0-.4-.54c.76,0,1.25.64,1,1,.46-.17.72-.26,1.67.2-.56.05-.67.16-.8.48a4.21,4.21,0,0,1,2.31.51c-.68-.08-1.09,0-1.23.29a5.53,5.53,0,0,1,2.2,1.27c-.44-.27-.85-.45-1.14-.32a3.47,3.47,0,0,1,1.07,1.58c-.27-.33-.53-.54-.74-.55a6.68,6.68,0,0,1,.45,3c-.21-.33-.43-.65-.8-.69,0,2,1.06,2.2,1.88,3.81C42.57,21.73,42,21.24,41.76,21.39Z"/><path class="cls-14" d="M35,12.35c.59.21.92,1.61.7,2.19s-.63.12-1.22-.09a1.11,1.11,0,0,1-.75-1.39A1,1,0,0,1,35,12.35Z"/><path class="cls-14" d="M37.69,19.61a1.91,1.91,0,0,1,.46,1.27,9.7,9.7,0,0,0-1.45-1.63,1.51,1.51,0,0,1,.15.89,2.07,2.07,0,0,0-1.08-1.32.8.8,0,0,1,0,.78,1.66,1.66,0,0,0-.68-1.11c-.44.17,0,.73,0,1.14a2.86,2.86,0,0,1-.74-1.87,1.2,1.2,0,0,0-.65.63,1,1,0,0,1,0-.92,2.37,2.37,0,0,0-1.15.5c.15-.39.31-.76.76-.88a1.23,1.23,0,0,0-.74-.3.63.63,0,0,1,.56-.19,1.65,1.65,0,0,0-.77-.68A7.73,7.73,0,0,1,35.12,17l1.57,1.11S37.65,19.63,37.69,19.61Z"/><path class="cls-10" d="M34.84,12.76c.34.13.52.92.4,1.25s-.36.07-.7-.05a.63.63,0,0,1-.43-.8A.55.55,0,0,1,34.84,12.76Z"/><path class="cls-5" d="M36.74,17c-.13-.38.6-1.81,1.44-1.9s0-1.52-.84-1.85-1.54.08-1.59.58a3.13,3.13,0,0,1-1.65,1.72c-.55.09,1.29,1,1.29,1l1,.69Z"/><path class="cls-10" d="M41.18,20.3c-1.07.22-2.34-.88-3.18-2a7.61,7.61,0,0,0-2.87-2.38c-.86-.37-2.26-.39-3.6-1.73A4.34,4.34,0,0,0,34.39,17,7.29,7.29,0,0,1,37,19.05C37.89,20,40,21.56,41.18,20.3Z"/><path class="cls-14" d="M40,15.84c-.37-.55-1.89-.54-2.45-.18s0,.68.39,1.23a1.18,1.18,0,0,0,1.63.42A1,1,0,0,0,40,15.84Z"/><path class="cls-10" d="M39.51,16c-.22-.33-1.12-.32-1.45-.11s0,.4.23.73a.7.7,0,0,0,1,.25A.59.59,0,0,0,39.51,16Z"/><path class="cls-15" d="M109.34,123.62c6.64,0,4.64,7.74,2.89,9.48a2.48,2.48,0,0,1-3.16.59c-.2-.1-.22.47-.75.56.2-.48-.39-1.23-.65-1.4-.09.19,0,.57-.38.84a1.27,1.27,0,0,0-.42-1.22c-.35-.13.16.78-1,1,.13-.83-1.18-1.39-1.73-1.39s-.84,1.55-2.11,1.66c.79-.65.2-1.51-.11-1.44-.14,0-.28.63-.66.71.28-.46-.17-.57-.38-.54s-.46.59-1,.73c.47-.57-1-.62-1.53-.7-.16,0,.3,1.16-.45,1.65.29-1.17-1-2-1.46-2.2-1.74-.78-.29,1.11-2,.14s-3-1.55-3.29-2.13-1.54-4.65-1.54-4.65l15.52-2.2S109.53,123.33,109.34,123.62Z"/><path class="cls-16" d="M96.76,128.7c6.64,0,4.64,7.75,2.89,9.48a2.49,2.49,0,0,1-3.16.59c-.2-.09-.22.47-.74.57.21-.48-.39-1.24-.65-1.41-.09.2,0,.57-.37.84a1.27,1.27,0,0,0-.43-1.22c-.35-.12.16.78-1,1,.13-.83-1.19-1.39-1.73-1.39s-.84,1.56-2.12,1.67c.79-.65.2-1.51-.12-1.45-.13,0-.27.63-.66.71.29-.46-.17-.58-.38-.54s-.46.59-1,.72c.47-.57-1-.62-1.52-.69-.17,0,.3,1.15-.45,1.65.29-1.17-1-2-1.46-2.2-1.74-.78-1.68-1.45-1.8,0s-3.81-4.57-4.1-5.15-8.52-7-8.52-7l23.07,3.33S97,128.41,96.76,128.7Z"/><path class="cls-5" d="M32.61,112.25c8.82-1.81,26.29-2.12,38.21,5.42l-.22-1.74c8,.86,13.27-1.81,16.76,0,2.22,1.14,2.94,3.72,4.93,5,1.51,1,2.05,1.38,5.47-.16,1.12-.5,8,.08,12.83,2.48,2.3.23,3.57,2.55,4.08,4.62-1.45-2.63-4.44-3.69-4.41-2,2.3.28,4.75,3.48,4.46,4.72-.42-.92-1.56-2.38-4.23-2-.39-.1,3.49,1.65,2.69,3.82-.8-1.42-1.41-1.31-2.62-1.5-.61-.22,2.06,2.49,1.05,3.83,0-1.82-2.17-3.27-3.11-3.9.71,1.2,1.32,2.5.5,3.77.3-2.29-1.41-4.81-3.66-5.9-.5-.25-.73-1-1.17-1.15.62.94.43,1,.7,2.16-1-1.7-2.7-3-5.86-3.2,1.86,1,2.83,2.4,2.45,4.26a5.21,5.21,0,0,0-4.76-3.16c1.74.6,3.33,3.17,2.69,6.37-.49-3.52-2-4.45-3.81-4.6,1.66,2,2.07,3.55,1.19,4.6-.18-1.28-.43-2.14-1.71-2,.73.89.8,1.56,0,2.3a1.23,1.23,0,0,0-1-1.8c-.42,1.6-.22,2.61-1.85,3,1.57-1.2.9-2.38,1.07-3.49-1,1.71-1.14,3.4-4.29,4.27,2.8-1.27,2.64-3.38,2.32-5.27-1.66.94.23,3.46-2.11,4.16.79-.2,2-3.57-3-6.06,3.78,2.59,3.41,6,1.29,7,1.79-2.53.14-4.43-1.59-5,1.31,1.46.39,2.36-.7,4.28.78-2.38.54-3.08-1.09-3.83a4.05,4.05,0,0,1-1.35,5c2.94-3.5-1.69-6.92-2.36-7.87,1.5,2.38,1,5.8.42,6.14.19-1.47-.35-1.91-.81-3.72-.36,1.38-.52.26-.8,2.62-1.74-2.76-.63-3.91-2.42-4.82.24.94,1.33,1.06.28,3.73-.05-1.67-.46-2.74-1.21-3.14.35,1.31-.28,3-1.32,2.81a1.59,1.59,0,0,0-.3-2.88c1,2-1.37,2.4-2.77,1.58,1.78.39,2.55-.2,1-2.29.31.84-1.24,1.18-2,2.12.07-1.48,1.79-2.14,0-4.07.66,1.53,1.22,1.92-1.39,2.86,1.09-1.38,1.11-2.57,0-2.88.87,1.17-.05,3.68-1.26,3.3,1.48-.42,1.18-3.59-.17-3.57,1.22,1.17-.08,2-.63,2.85.27-1.36.34-2.53-.05-2.89.1,1.49-.29,3-1.71,3.45.59-.48,1.52-1.84.53-3,.14,1.4-.38,2.78-2.05,2.84,1.57-.68,2-2.5.78-3.28.32.87.23,2.91-2.36,2.06,1.63.12,2.24-1.53.22-1.62a1.81,1.81,0,0,1-2.32,1.75,1.67,1.67,0,0,0,1.4-2.14c-.56.68-1,1.37-2.1,1,1.33-.27,1.08-1.32.57-1.68-.29,1.49-1.9,1.83-3,2,1.29-.26,1.87-.91,1.92-1.58-.59.6-1.06.62-2.17,1,.82-.79.57-1.64-.35-1.42a2.8,2.8,0,0,0-.13,2.9c-.74-.05-1.12-1-1.44-2.74,0,.62-.59,3.93-2.41,4.64a12.11,12.11,0,0,0,1.22-4.56,8.24,8.24,0,0,1-3.16,4.35c2.42-2.78.79-2.42,1.52-3.8-2.11.8-1.41,3.51-3.39,5.14.78-1.16.21-1.75,1-2.79-1.71.21-1.65,5.37-4.85,8,1.05-1.4,2.41-4.23,1.62-5.4a6.69,6.69,0,0,1-2.05,4.4c.5-1.11,1.06-2.35.38-3.78-.43,2-1.06,2.35-2.43,2.43.91-.73,1.14-.59,1.56-3-.5.7-1.81,1.23-4.62,2,2.72-1.6,3-2.77,3-4.57-1.62,3.08-2.5,3.38-4.72,3.21,1.52-.3,3.41-1.32,2.72-5.11-.2,1.72.08,3.85-3.66,4.49,1.12-.81.8-1.8.39-1.9.24.92-.3,1.71-2.27.88,2.48-.64.86-1.6.35-3.25.46,1.24.1,2.17-.93,2.25a1.49,1.49,0,0,0-.19-2.32c.19,1-.22,1.88-2.25,2.16.73-.27,1.71-1.06,1.35-2.09a1.23,1.23,0,0,1-1.27,1.16,1.33,1.33,0,0,0,.88-1.5c-1.41.6-2.41,1.54-2.81,4.45-.64-3.21,1-4.33,2.45-6.65C31,126.26,29,128.63,29,128.48,31.83,121.22,21.07,114,32.61,112.25Z"/><path class="cls-4" d="M28.85,113.23a10.11,10.11,0,0,1,4.78-3.34c-1.66-.15-3.42,1.46-4.48,1.65a9.73,9.73,0,0,0,2.4-2.2c-1.25.48-1.5-.1-3.12,1.19,1-1.6,3.47-2.44,4.57-3.3a7.52,7.52,0,0,0-3.51,1.42c.14-.91.68-1.22,1.21-1.86a3.26,3.26,0,0,0-2.16.66c-.06-1,2.35-2.68,3.09-3.06a2.88,2.88,0,0,0-2.55.91c.52-2.09,4.64-2,5.29-2.14,8.82-1.81,26.3-2.12,38.2,5.42l-.22-1.73a33.25,33.25,0,0,1,14.43,4.53c2.22,1.14,3.51,7.39,5.5,8.69,2.55,1.66,7.4-1.14,10.8,1.78-1.49-.7-4.86-1.11-5.77-.43,1.33.1,2.69-.06,3.72,1.31-1.76-1-1.91-.31-2.83-.35,1.07,1,1.83.44,2.94,2.53-1.7-1.56-2.37-.63-3.78-2.26.93,1.88.6,3,2.52,4.51C98,126,97.13,125,96.82,122.87a2.72,2.72,0,0,0,.89,3.08,3,3,0,0,1-1.84-2.58c-.41,1.61,1.38,3.54,1.82,4.06-1.9-.89-3.17-3.69-3-4.68-1,1.7.51,3.89,1.84,4.94-1.54-.63-3.37-3.44-3.42-5.79-1.66.94,1.12,5.18,3.37,7.09-4.2-2.44-6.38-10.28-9.4-10.72a10.94,10.94,0,0,1,4.26,10.51c-.08-3.35-2-7.5-3.72-8.07,1.3,1.46,3,4.49,1.87,6.41-1.07-5.54-4.29-5.88-5.9-9,.08,2.76,7.54,6.33,4.09,13.08,2.12-7.42-4.16-8.69-4.83-9.64,2.86,3.49,5,6.6,1.58,9.55,2.47-4.85-2.16-7.3-2.62-9.11-.35,1.38,1.24,3,.5,4.82a6.84,6.84,0,0,0-3.7-5.86,7.29,7.29,0,0,1,.36,8c.89-5.52-2.15-8.63-3.86-8.84,1.58.9,1.61,2.86,3.32,5.95-1.1-.94-2.63-4.34-4.2-6.43.31.84.69,2.59,0,3.52a7.19,7.19,0,0,0-1.92-5.47c.66,1.52,1.75,5-.86,6,1.09-1.38.58-5.67-.5-6,.53.55.7,3,.36,4.24-.34-.45-.44-4.54-1.79-4.52,1.21,1.16.06,3.75-.49,4.62.26-1.37.19-4.3-.2-4.66a4.38,4.38,0,0,1-1,3.65c.31-.88.62-2.28-.19-3.15A8.75,8.75,0,0,1,66,123.58c.43-2,1.5-4.82.63-6.23a6.12,6.12,0,0,1-1.59,4.14c.22-1,.54-2.55,0-3.14-.07,1-2.76,4.61-4.44,5.05.57-.68,3.78-3.45,3.74-5.59-1.27.85-4.16,5.37-7.42,6,1.71-1.4,4.32-1.8,6.14-7.64a3.12,3.12,0,0,0-3,4.09c-.58-.1-.9-3.88,0-4.41-1.56-.14-2.34,6.12-5.45,7.59,1-.92,2-3.75,2.27-5.42a5,5,0,0,1-2.67,3.6,14.3,14.3,0,0,0,2.14-5.28,11.7,11.7,0,0,1-4.09,5.08c2.42-2.79.06-3.34,2.88-5.15-2.28-.17-3.4,4.81-5,6.23,1.72-3.08,2.42-6.75,4-7.64-1.71.21-3.78,8.07-7,10.65,1.05-1.4,3.63-6.93,2.83-8.1,0,1.72-2.2,6-3.27,7.11.36-1.13,1.27-3.22.92-4.61-.47,1.81-3.63,5.86-6.56,7,.91-.72,3.87-4.06,4.28-6.45a16.16,16.16,0,0,1-4.29,4.19c2.63-2.67,5.75-9.07,5.81-10.87-1.62,3.08-4.18,6.51-6.79,8a18.74,18.74,0,0,0,2.74-5.47c-1.41,2.25-2.11,3.64-4.32,4.87,1.7-1.92,1.89-2.86,1.78-3.76-.41,1.3-.52,2.26-3.77,4.21,1.57-2.12,1.33-2.51.82-4.16.74,2.54-2,4.95-3.45,5.77,1.34-1,2.89-3.22,1.87-4.93.19,1-1.1,3.79-3,4.67.44-.53,2.24-2.45,1.83-4.06-.18.44-.52,1-1.82,1.26.11,0,2-1.41,1.7-2.15-1.41.59-2.41,1.54-2.81,4.45-.57-2.43-.22-1.73,1.18-4.81a23.18,23.18,0,0,0-3,4.67c-.86-2.92,3.62-6,3-6.26-.65.81-1.36,1-2.71,1.71,1.34-1.44,2.54-2.1,3-3.83a5.47,5.47,0,0,1-3,2,2.6,2.6,0,0,0,1.09-2.44c-.52.29-1-.26-1.4,1.79-.38-1.15.86-2.12,1.1-3.08A4,4,0,0,0,28.85,113.23Z"/><path class="cls-13" d="M32.25,105.06c1.75-2.85,2.83-2.23,4.31-2.54,9.7-2,31.15-10,42.83.41,10.46,9.69,10.81,12.46,11.55,15.31-.49-.72-3.07-6.14-5.28-6.83,1.35,1.45,3.93,5.31,3.61,6.7-.91-2.52-4.47-5.29-5.27-6.33.84,2.13,3,2.39,3.1,5.93-.18-.68-1.2-3.51-2.94-4.16.36.84,1.52,1.62,1.35,4,0-.35-1.36-3.92-2.3-3.8.76.31,1.68,3.77.93,4.46.38-.85-.61-4.32-1.89-4.92a7,7,0,0,1,1,3.87c0-.44-.93-4.33-2.94-5.5.6,1.72,1.57,3.91,1.07,5.22a16.22,16.22,0,0,0-2.28-5.1,5.7,5.7,0,0,0,.69,3.81c-1-.31-1.23-4-2.33-4.22.32.65.93,2.59.13,3.65a7.19,7.19,0,0,0-1.91-5.47c.66,1.52,1.74,5-.87,6,1.09-1.38.58-5.66-.5-6,.53.55.7,3,.36,4.24-.33-.45-.44-4.54-1.78-4.51,1.21,1.16.05,3.74-.49,4.62.27-1.37.19-4.29-.2-4.66a4.4,4.4,0,0,1-1,3.65c.31-.89.62-2.29-.19-3.16a8.75,8.75,0,0,1-1.65,5.72c.43-2,1.5-4.82.63-6.23a6.11,6.11,0,0,1-1.59,4.14c.22-1,.54-2.55,0-3.14-.08,1-2.76,4.61-4.44,5.05.58-.68,3-4.92,2.93-7.06-1.27.84-3.35,6.84-6.62,7.52,1.71-1.4,2.94-2.13,4.76-8-.73.14-3,3-3,4.41-.59-.1.45-3.87,1.35-4.41-1.56-.13-2.34,6.13-5.44,7.59,1-.91,3.28-6.17,3.59-7.84,0,.63-2.17,5.32-4,6a14.38,14.38,0,0,0,2.14-5.29,11.6,11.6,0,0,1-4.09,5.08,24.67,24.67,0,0,0,4.4-7c-2.28-.17-4.91,6.7-6.56,8.11,1.73-3.08,2.42-6.74,4-7.64-1.71.21-2.79,5.79-6,8.38,1.06-1.4,2.63-4.66,1.84-5.83a8,8,0,0,1-2.27,4.84c.37-1.13,1.27-3.22.92-4.6-.47,1.81-4.63,8.13-7.56,9.24.91-.72,3.87-4.06,4.28-6.45a16.22,16.22,0,0,1-4.29,4.2c2.63-2.66,5.75-9.08,5.81-10.87-1.62,3.08-4.18,6.52-6.79,8a18.65,18.65,0,0,0,2.75-5.48c-1.73.56-3.32,6.67-5.53,7.9,2.6-4.19,2.3-7.76,6.09-10.34-3,.43-5.23,8.26-9.44,10.68,2.25-1.91,5.05-6.14,3.39-7.08-.06,2.35-1.89,5.15-3.44,5.78,1.34-1,2.89-3.22,1.86-4.93.19,1-1.1,3.79-3,4.67.44-.52,2.24-2.44,1.83-4.05-.18.44-.52,1-1.82,1.26.11,0,2-1.41,1.7-2.15-1.4.6-2.41,1.54-2.81,4.45-.64-3.2,2.43-4.57,3.9-6.89a45.85,45.85,0,0,1-4.79,3.75c1.71-1.9,2.65-3,2-3.26-.65.81-1.36,1-2.71,1.7,1.34-1.44,2.53-2.11,2.95-3.83a5.51,5.51,0,0,1-3,2,2.62,2.62,0,0,0,1.09-2.45c-.51.3-1-.25-1.41,1.79-.38-1.15.86-2.13,1.11-3.08A3.93,3.93,0,0,0,32.25,105.06Z"/><path class="cls-17" d="M119.87,132.3c-3,.79-7.79,0-8.67-.27s-1.4-2.45.62-2S116.21,131.55,119.87,132.3Z"/><path class="cls-17" d="M119.87,132.3a39.22,39.22,0,0,0-7.54-4.45,1.14,1.14,0,1,0-.51,2.18C113.82,130.47,116.21,131.55,119.87,132.3Z"/><path class="cls-17" d="M118.81,131.51a40.58,40.58,0,0,0-6.48-3.66c-1.49-.56-1-2.73.82-1.85C115.68,127.21,118.49,130.49,118.81,131.51Z"/><path class="cls-18" d="M117.15,131.84a15.5,15.5,0,0,1-6-.18c-.64-.17-1-1.69.43-1.39S114.62,131.32,117.15,131.84Z"/><path class="cls-19" d="M114.53,131.27a10.36,10.36,0,0,1-3.23.19.53.53,0,1,1,.27-1C112.31,130.59,113.19,131,114.53,131.27Z"/><path class="cls-18" d="M118.45,131.56a31.58,31.58,0,0,0-6-3.54.91.91,0,1,0-.41,1.74C113.63,130.11,115.53,131,118.45,131.56Z"/><path class="cls-19" d="M115.06,129.87a9.74,9.74,0,0,0-2.55-1.47.54.54,0,1,0-.26,1.05A24.44,24.44,0,0,0,115.06,129.87Z"/><path class="cls-18" d="M116.93,130a28.13,28.13,0,0,0-4.48-2.54c-1-.38-.72-1.89.56-1.28A10.13,10.13,0,0,1,116.93,130Z"/><path class="cls-19" d="M114.31,128.09c-.8-.33-1.76-.73-2-.85-.61-.37-.35-1.12.22-.85A4.51,4.51,0,0,1,114.31,128.09Z"/><path class="cls-17" d="M96.7,32c3.94,2.86,11.49,4.4,12.92,4.55s3.46-2.81.24-3.31S102.53,32.94,96.7,32Z"/><path class="cls-18" d="M101,32.83c2.72,2,7.95,3,8.94,3.15s2.39-1.94.16-2.28S105,33.51,101,32.83Z"/><path class="cls-19" d="M105.16,33.49a16.45,16.45,0,0,0,4.64,2.12.84.84,0,1,0,.19-1.67C108.82,33.76,107.3,33.85,105.16,33.49Z"/><path class="cls-17" d="M97.41,31.5a62.11,62.11,0,0,1,13.8-1.12c2.51.23,2.38,4.21-.79,3.45S103.13,33,97.41,31.5Z"/><path class="cls-18" d="M99.94,31.43a49.86,49.86,0,0,1,11-.89,1.44,1.44,0,1,1-.63,2.75C107.8,32.69,104.5,32.59,99.94,31.43Z"/><path class="cls-19" d="M105.93,31.37a15.33,15.33,0,0,1,4.64-.33.86.86,0,1,1-.36,1.67A37.25,37.25,0,0,1,105.93,31.37Z"/><path class="cls-17" d="M98.52,31a63.29,63.29,0,0,1,11.74-.74c2.51.23,3.39-3.16.12-3.19C106,27.08,99.69,29.81,98.52,31Z"/><path class="cls-18" d="M102.28,30.12a43.88,43.88,0,0,1,8.12-.51c1.74.16,2.35-2.19.09-2.21C107.43,27.38,103.09,29.27,102.28,30.12Z"/><path class="cls-19" d="M107.29,29.29c1.37.08,3,.18,3.39.15,1.12-.1,1.27-1.35.27-1.36A7.19,7.19,0,0,0,107.29,29.29Z"/><path class="cls-6" d="M24.33,52.09C33.9,57.4,43.49,70.43,50.84,64.84c12-9.13,14.64-15,26.67-24.14,5.07-1.55,21-14.74,22-14.81.84-.05,1.47-.12,2.76-.27a8.42,8.42,0,0,0,1.44.1c7-.52,8.66,5.77,7,8.41-.68,1.09-2.11,2.73-3.84,2.2-10-3.1-12.42,3.26-14.5,3.06.31,1.19-2.31,6.51-3.68,8.55,1-3.12,1.16-5.64.21-6.59.62,3.85-1.72,7.17-1.92,8.91-.39-1.78.86-7-.05-7.33.29,1.24-1.24,6.95-1.53,8.58,0-1.51,0-3.22-.54-3.77,0,1.85.27,4.21-.58,5.8a6.59,6.59,0,0,0-.19-3.63,13.66,13.66,0,0,1-2.54,6.8,8.62,8.62,0,0,0,.67-5.84A9.24,9.24,0,0,1,81,56.33a8.35,8.35,0,0,0-.22-4.2,11.57,11.57,0,0,1-.59,4.1,5.08,5.08,0,0,0-.53-2.29,12.55,12.55,0,0,1-1.29,5.65,11.79,11.79,0,0,0,0-4.83,13.25,13.25,0,0,1-1.84,6.66,21.1,21.1,0,0,0,.34-5.06c-.48,2.73-1,5.15-1.82,6.13a8.16,8.16,0,0,0,0-4.68,22.27,22.27,0,0,1-1.27,5.8c.06-1.42.4-4.19.13-5a14.29,14.29,0,0,1-.77,3.87,9.76,9.76,0,0,0-.3-2.72,15.67,15.67,0,0,1-.78,4.82,10.14,10.14,0,0,0-.56-3.64c-.21,2.71-.32,5.57-1.33,7a14.53,14.53,0,0,0,.24-5.18A19.2,19.2,0,0,1,69.29,68a20.1,20.1,0,0,0,0-3.45c-.19,2.08-1.2,2.61-2,4.69.24-2,.86-1.87.59-3.05A6.72,6.72,0,0,1,65.17,70c.81-1.41.75-4.61.55-5.37-.05,1.39-.8,3.22-.85,4.61-.29-1.44.11-3.34-.19-4.78,0,2.15-.05,5.2-1.34,6.7,1-2.21.47-4,.12-5.86a8,8,0,0,1-.2,5,8.11,8.11,0,0,0-.67-3.4c.28,2.2.21,4.15-.73,5.5a9.19,9.19,0,0,0,0-3.82c-.44,1.6-.65,4.17-1.55,4.95,0-2-.4-3.27-1.28-3.9.52.4.55,3.41-.29,4,.32-2.29.53-3.5-1.29-4.4,2.35,2.57-.64,4.21-1.13,4.94.63-1.33,2.18-3.49.34-3.37,1.13,1-1.07,3.6-2.1,4.44.67-1.51,1.4-2.36.52-4-.27,0,.21,3.65-2.29,4.25,1.53-1.19,1.18-2.66-.05-3.9-.4,2.25-.53,3.4-2.44,3.94a2.16,2.16,0,0,0,.2-3.47c-.16,1-.17,3.54-2.7,4.08,1.49-.86,2.55-3.25,1-4.44.69.17.07,3-1.23,3.11A1.77,1.77,0,0,0,48,72.72a4.47,4.47,0,0,1-2.39,2.73c1.26-1.37,1.86-2.75,1.53-3.39-.5,1.6-4.1,4.26-5.14,4.62,1.3-1.08,4.24-3.81,3.73-5.41-1.57,3.45-7,5.51-7.45,5.8,2-1.26,5.09-3.89,4.48-4.93a9.7,9.7,0,0,1-6.54,4.39c5.73-2.09,7.49-7.48,8.66-8.78-2.26,3.1-4.73,6.85-11,8.69,1.07-1.23,5.9-3.61,4.79-7.1-1.34,2.4-9.41,8.28-10.07,8.45,4.16-2.78,5.82-5.27,6.79-7.64a16.39,16.39,0,0,1-9,6.36c2.71-1.31,5.56-4.63,5.12-5.84-2.22,2.86-6,4.46-8,4.16,5.74-1.67,6.43-4.51,11.22-8.22-5.93,3.9-9.21,7.12-12.05,7a9.13,9.13,0,0,0,4.66-4.25C25,71.87,19.38,74,18.7,74c4.8-1.34,9.92-6.72,9.88-7-3.42,1.2-7,6.65-11.49,4.8,4.22.21,9.14-5.56,9.13-5.85-.82,1.12-6.39,4.67-11.15,4.66,5.53-1.27,8.11-7.18,8.11-7.47-2.37,3-6.88,5.58-9.5,5.66,2.72-.56,3.66-3,3.5-3.69-.84,2.56-4.08,2.71-4.75,2.56,3.49-.3,2.54-5.17,7.13-7-4.07.59-7.09,6.83-10.33,6.19,2.3-.76,7.11-6.29,9.07-8.52-1.83-.07-6.19,4.51-7.59,5.91.07-.22,3.09-5.68,4.26-6.13-.92-.33-4.54,3.66-5.29,3.9,1.44-2.08,5.84-4.76,7.43-7.58-1.68,1.66-5.69,5-8,5.11,2-2.67,7.08-5.2,9.62-8.51-5.38,4.46-6.46,3.18-9.83,5.57,1-2.22,6.51-5,9.86-6.55-3.8-.25-7.31,3.06-9.79,4C12,51.2,39.89,22.4,24.33,52.09Z"/><path class="cls-4" d="M34.05,37.22C43.62,42.53,53.22,55.56,60.57,50c12-9.14,14.65-15,26.67-24.14,5.07-1.55,6.6-1.72,7.66-1.78.84-.06,1.46-.12,2.76-.27a9.54,9.54,0,0,0,1.43.09c7.09-.53,10.91.91,11.71,2.92-1.48-.79-2.11-.87-2.55-.81,1.24.76,2.33,1,2.78,2.17a13,13,0,0,0-4.74-1.34c2.24,1.37,2.56,1.41,3.76,3a12,12,0,0,0-5.64-2.41,18.48,18.48,0,0,1,4.39,4.72,19.06,19.06,0,0,0-5.55-3.25A10,10,0,0,1,106.69,34c-1.79-1.89-3.46-3.36-4.8-3.76a11,11,0,0,1,.71,4.48,8.44,8.44,0,0,0-2.43-3.59,5.06,5.06,0,0,1-.42,3.49,9.56,9.56,0,0,0-2.46-4.13,12.34,12.34,0,0,1,.47,4.9c-.39-1.77-1-3-1.9-3.32a9.76,9.76,0,0,1,.22,4.18,3.66,3.66,0,0,0-1-2.75A10.54,10.54,0,0,1,94,38.66,6.54,6.54,0,0,0,93.84,35a13.64,13.64,0,0,1-2.54,6.8A8.55,8.55,0,0,0,92,36a9.19,9.19,0,0,1-1.2,5.45,8.38,8.38,0,0,0-.22-4.2,11.42,11.42,0,0,1-.58,4.1,5.13,5.13,0,0,0-.53-2.29,12.63,12.63,0,0,1-1.29,5.65,11.87,11.87,0,0,0,0-4.83,13.3,13.3,0,0,1-1.84,6.66,21.28,21.28,0,0,0,.34-5.06c-.48,2.73-1,5.15-1.82,6.13a8.12,8.12,0,0,0,0-4.67,10,10,0,0,1-.68,3.92,8.26,8.26,0,0,0-.46-3.14,14.22,14.22,0,0,1-.77,3.87,9.63,9.63,0,0,0-.3-2.71,16,16,0,0,1-.78,4.82A10.2,10.2,0,0,0,81.25,46c-.21,2.71-.32,5.57-1.33,7a14.47,14.47,0,0,0,.24-5.18A19.21,19.21,0,0,1,79,53.11a19.89,19.89,0,0,0,0-3.45,21.35,21.35,0,0,1-1.29,6.23,12.79,12.79,0,0,0-.16-4.61c-.51,1.65-.95,4.61-2.15,5.26.81-1.41.22-1.82,0-2.59-.05,1.39-.8,3.22-.85,4.61-.29-1.45.11-3.34-.19-4.79-.05,2.16,0,5.21-1.34,6.7,1-2.21.48-4,.12-5.86a8,8,0,0,1-.21,5,8.17,8.17,0,0,0-.66-3.4c.27,2.2.21,4.14-.74,5.5a9.22,9.22,0,0,0,0-3.82c-.45,1.6-.65,4.17-1.55,4.95,0-2-.4-3.27-1.28-3.9.52.39.55,3.41-.29,4,.33-2.3-.67-3.22-2-2.64,3.48.27,0,4-.53,4.68.63-1.33,2.18-3.49.34-3.37,1.13.86-1.07,3.14-2.1,4.44-.4-1.27.23-.86-.64-2.55-.27,0,.94,2.25-1.56,2.85,1.53-1.19,1.18-2.66-.05-3.9-.4,2.25-.53,3.4-2.44,3.94a2.16,2.16,0,0,0,.2-3.47c.14,2.36-2.14,5.19-3.18,6a6.55,6.55,0,0,0,1.07-5.2c.34.33-1.67,6-4.44,6.41l-.16.06c1.46-.43,2.56-3.84,1.26-4.8A6.11,6.11,0,0,1,51,70.82c1.26-1.37,1.86-2.75,1.53-3.39-.5,1.6-4.09,4.26-5.14,4.62,1.3-1.08,4.24-3.8,3.73-5.41-1.58,3.45-7,5.51-7.45,5.8,2-1.26,5.09-3.89,4.49-4.93a9.72,9.72,0,0,1-6.54,4.39c5.72-2.09,7.49-7.48,8.65-8.78C48,66.21,45.56,70,39.3,71.8c1.07-1.22,1.72.54.61-2.94C38.57,71.25,34.68,73,34,73.15c4.17-2.78,5.82-5.27,6.79-7.64a16.39,16.39,0,0,1-9,6.36C34.55,70.56,37.4,67.24,37,66c-2.22,2.86-6,4.46-8,4.16,5.74-1.67,6.42-4.51,11.22-8.22-5.94,3.9-9.22,7.13-12.05,7a9.18,9.18,0,0,0,4.66-4.25,11.36,11.36,0,0,1-6.89,3.24c4.81-1.33,8.17-5.27,8.13-5.56-3.42,1.19-5.2,5.2-9.74,3.35,4.22.2,7.39-4.11,7.38-4.41-.82,1.12-4.63,3.22-9.4,3.21,5.52-1.27,6.36-5.73,6.35-6a9.91,9.91,0,0,1-7.75,4.22c2.72-.55,3.66-3,3.5-3.69-.83,2.56-4.08,2.71-4.75,2.57,3.49-.3,2.54-5.17,7.13-7-4.07.59-7.09,6.83-10.33,6.2,2.31-.77,7.12-6.3,9.07-8.53-1.83-.07-6.19,4.52-7.6,5.91C18,57.94,21,52.48,22.15,52c-.91-.33-4.54,3.66-5.3,3.9,1.44-2.08,4.15-4.42,5.73-7.24-2.86,2.84-3.52,1.35-6.39,3.17,1.71-2.27,6.67-5.09,8.24-7.66-2.65,1.21-7.24,5.2-9,4.83,2.63-1,2.41-3.92,5.14-3.77-2.14-.92-4.78,2.12-6.82,2.25,2-2.67,6.88-4.28,9.42-7.6-5.38,4.46-7.38,3.47-10.76,5.86,1-2.22,5.64-5.11,9-6.71-3.8-.25-6.44,3.21-8.92,4.12C15.11,40.78,24.78,30.3,34.05,37.22Z"/><path class="cls-13" d="M39.57,39.84c6,4.07,12.78,9.3,19.19,7.38S78,28.89,84.2,26.58c5.36-2,12.45-3.41,15.91-2.76a5.19,5.19,0,0,1,.78.2,2.93,2.93,0,0,0-1.27.12c1,0,2.08.59,1.83.94-.4-.59-2.41-.78-2.81-.68.76.13,1.71,1.07,1.44,1.39-.44-1.06-2-.76-3.4-1.78.52,1,2,1,2.38,1.59-1.09-.5-2.31-.28-4.47-1.34,1.4,1,2.61,1,3.31,2.17-1.67-1.44-4.65-1.66-4.84-1.72a33.75,33.75,0,0,0,3.63,1.34c-1.64.32-3-.51-5.41-.68,2.28,1,2.8.68,4.21,1.68a11,11,0,0,0-4.55-.79c1.68.12,3.52,1.22,3.47,1.82-1.86-1.94-5.17-.77-5.39-.82,1.5,0,3.34,0,3.62,1.39-.88-1.34-5-.34-5.09.06,2.32-.73,2.9.29,2.68.55-.53-.91-3.69.18-3.72.64,1.79-.87,4.08.39,3.7.93-1.08-1.21-4-.51-4.86.22,1.56-.59,4.78,0,5.16.52a14.38,14.38,0,0,0-6.82.31c2.44-.48,4.59,1.09,4.46,1.43-1.61-1.16-5.56-.78-6.28-.34,1.36.68,4.63.6,5.22.7-1.17.77-4.52-.05-6.61.42a17.74,17.74,0,0,1,5.79.87,7.89,7.89,0,0,0-3.43.23c1.49-.1,2.69.68,2.63,1.08-1.22-.89-3.63-.4-3.84-.38s2.79.39,2.64.58c-.83-.13-4.62,0-4.39.57,1.24-.22,3.33.09,3.54.7a5.81,5.81,0,0,0-3.9.42c1.11-.32,3,.38,3.1.91-1.17-.77-3.56-.56-4.84-.35,1.68.06,3.31,1,3.24,1.42a7.37,7.37,0,0,0-4.69-.78c1.35.09,3.22.83,3.33,2A5,5,0,0,0,76,40.47c1.07-.11,1.91,1.09,2.09,1.52-1.34-1.64-4.65-1-4.68-1,2.44.2,4,.8,4,1.55-1-.84-4.26,0-4.53.76,1.37-.91,3.57.05,3.73.6-2.17-1.23-6.06.36-5.88.34,2.21-.29,4.8.61,4.47.89-.51-.35-3.86-.35-4.8.45,2-.28,3.89.41,3.74.73-2.52-1.14-5.53.07-5.7.13s3.45-.62,4.62.14c-1.08-.2-3.76.15-3.89.51,1.32-.19,3,.25,2.93.67-1.4-.85-4.07.29-4.28.28,1.56.52,3.46.56,3.38,1-1.36-.55-3,.25-5,.18-.11.39,3.78-.32,3.45,1-.4-1.22-3.33-.08-4.63.47,1.73-.14,2.24-.05,2.63.37-1.25-.58-2.9.16-3.58.63,1.75.33,3.21.12,3.52.53-1.59-.19-1.7.47-4,1.12a2.9,2.9,0,0,0,2.48.4c-1.08.59-2.33,1.18-2.81-.1-.18,0,.49,1.71-1.2,2.15a1.94,1.94,0,0,0,.2-3c-.4,1.71-.55,2.57-1.84,3a1.81,1.81,0,0,0,.34-2.64c0,1.79-1.72,3.93-2.45,4.51a5.74,5.74,0,0,0,1-3.93c.21.25-1.46,4.53-3.31,4.84l-.11,0c1-.32,1.91-2.9,1.11-3.63a5.19,5.19,0,0,1-2.43,4.13c.92-1,1.39-2.08,1.21-2.57-.42,1.21-3,3.22-3.66,3.48.92-.81,3-2.87,2.78-4.09-1.24,2.61-4.93,4.15-5.26,4.37,1.37-.95,3.59-2.93,3.25-3.72a7.21,7.21,0,0,1-4.57,3.3c3.9-1.56,5.39-5.64,6.24-6.63C52.9,55.62,51,58.47,46.8,59.83c.78-.92,2.84-1.25,2.31-3.91A9.22,9.22,0,0,1,45,59.16a13.46,13.46,0,0,0,4.93-5.76,12.14,12.14,0,0,1-6.29,4.79c1.86-1,3.94-3.49,3.72-4.41-1.63,2.16-4.25,3.35-5.54,3.12,3.89-1.25,4.51-3.39,7.89-6.2-4.15,2.94-6.51,5.37-8.37,5.24a7.26,7.26,0,0,0,3.33-3.21,7.65,7.65,0,0,1-4.74,2.43A11.63,11.63,0,0,0,45.6,51c-2.33.9-3.75,3.92-6.63,2.5,2.78.17,5.12-3.09,5.13-3.31-.61.85-3.25,2.43-6.4,2.4A6.16,6.16,0,0,0,42.26,48c-1.74,2.3-3.63,3.12-5.36,3.17a3.29,3.29,0,0,0,2.52-2.78,3.11,3.11,0,0,1-3.28,1.93c2.32-.22,2.39-2.66,5.53-4-2.72.43-4,2.7-6.12,2.2a10.57,10.57,0,0,0,4.62-3.14C39,45.3,36,47.15,34.95,48.2a9.37,9.37,0,0,1,2.4-2.47c-.58-.25-2.43.6-2.95.78,1.08-1.58,3.4-1.57,4-1.65a27.13,27.13,0,0,0-5.67-.24c1-.95,3.59-.65,4.82-.8-.85-.88-4-1.07-5.16-1.35,1.8-.74,4.44-.37,6.23-.25-1.36-.7-5.89-1-7.25-.91,1.6-.92,4.31-.69,5.45-.37-1.57-1.17-5.7-.9-6.22-1,.79-1.24,3.6-1,4.87-.77A6.64,6.64,0,0,0,30.79,38a2.84,2.84,0,0,1,1.71-.71A5,5,0,0,0,29.71,37a2.28,2.28,0,0,1,3.1,0c-.08-.76-1.52-1.31-3.46-2.22C31.32,35,39.49,39.84,39.57,39.84Z"/></svg>