<svg id="Layer_1" data-name="Layer 1" xmlns="http://www.w3.org/2000/svg" xmlns:xlink="http://www.w3.org/1999/xlink" viewBox="0 0 48 82.84"><defs><style>.cls-1{fill:url(#linear-gradient);}.cls-2{fill:url(#linear-gradient-2);}.cls-3{fill:url(#linear-gradient-3);}.cls-4{fill:url(#linear-gradient-4);}.cls-5{fill:url(#Neutral_4);}.cls-6{fill:url(#linear-gradient-5);}.cls-7{opacity:0.59;}.cls-8{fill:url(#linear-gradient-6);}.cls-9{fill:url(#Neutral_4-2);}.cls-10{fill:url(#linear-gradient-7);}.cls-11{fill:url(#linear-gradient-8);}.cls-12{fill:url(#Neutral_4-3);}.cls-13{fill:url(#Neutral_4-4);}.cls-14{mask:url(#mask);}.cls-15{fill:#7f7f7f;}.cls-16{fill:#bbbcbe;opacity:0.27;}.cls-17{mask:url(#mask-2);}.cls-18,.cls-21,.cls-23,.cls-28,.cls-42,.cls-45{fill:#fff;}.cls-18{opacity:0.54;}.cls-19{fill:#595b5c;}.cls-20{mask:url(#mask-3);}.cls-22{fill:#6b6d6f;}.cls-23{opacity:0.51;}.cls-24{mask:url(#mask-4);}.cls-25{fill:#aaadb0;}.cls-26{mask:url(#mask-5);}.cls-27{fill:#7d7f81;}.cls-28{opacity:0.16;}.cls-29{fill:#797c7e;}.cls-29,.cls-45{opacity:0.71;}.cls-30{fill:#aeafb0;}.cls-31{fill:#e1e2e3;opacity:0.66;}.cls-32{mask:url(#mask-6);}.cls-33{mask:url(#mask-7);}.cls-34{fill:#a5a7aa;}.cls-35{fill:#b4b6b8;}.cls-36{mask:url(#mask-8);}.cls-37{fill:url(#linear-gradient-9);}.cls-38{mask:url(#mask-9);}.cls-39{fill:#d6d6d6;}.cls-40{mask:url(#mask-10);}.cls-41{mask:url(#mask-11);}.cls-42{opacity:0.32;}.cls-43{fill:#a16733;}.cls-44{mask:url(#mask-12);}.cls-46{fill:#ba773b;}.cls-47{fill:#56300a;}.cls-48{fill:#ff9d1f;}.cls-49{fill:#195b75;}.cls-50{fill:#60c5ff;}.cls-51{fill:#e55942;}</style><linearGradient id="linear-gradient" y1="41.86" x2="48" y2="41.86" gradientUnits="userSpaceOnUse"><stop offset="0.05" stop-color="#fff"/><stop offset="0.09" stop-color="#fafafa"/><stop offset="0.13" stop-color="#ececec"/><stop offset="0.18" stop-color="#d5d5d5"/><stop offset="0.22" stop-color="#b4b4b4"/><stop offset="0.27" stop-color="#8a8a8a"/><stop offset="0.32" stop-color="#575757"/><stop offset="0.46"/><stop offset="0.55"/><stop offset="0.61" stop-color="#232222"/><stop offset="0.69" stop-color="#4e4c4b"/><stop offset="0.93" stop-color="#fff"/></linearGradient><linearGradient id="linear-gradient-2" x1="20.07" y1="44.25" x2="45.45" y2="44.25" gradientUnits="userSpaceOnUse"><stop offset="0.03"/><stop offset="1" stop-color="#fff"/></linearGradient><linearGradient id="linear-gradient-3" x1="-867.53" y1="13.55" x2="-852.88" y2="13.55" gradientTransform="matrix(-1, 0, 0, 1, -846.07, 0)" gradientUnits="userSpaceOnUse"><stop offset="0.07"/><stop offset="0.88" stop-color="#fff"/><stop offset="0.99"/></linearGradient><linearGradient id="linear-gradient-4" x1="24.69" y1="11" x2="38.86" y2="11" gradientUnits="userSpaceOnUse"><stop offset="0.03"/><stop offset="0.89" stop-color="#fff"/><stop offset="1"/></linearGradient><linearGradient id="Neutral_4" x1="33.13" y1="45.26" x2="44.3" y2="45.26" gradientUnits="userSpaceOnUse"><stop offset="0.03" stop-color="#231f20"/><stop offset="1" stop-color="#fff"/></linearGradient><linearGradient id="linear-gradient-5" x1="38.76" y1="45.26" x2="42.11" y2="45.26" gradientUnits="userSpaceOnUse"><stop offset="0.03" stop-color="gray"/><stop offset="0.72" stop-color="#fff"/></linearGradient><linearGradient id="linear-gradient-6" x1="34.04" y1="61.65" x2="34.04" y2="66.37" gradientUnits="userSpaceOnUse"><stop offset="0.28"/><stop offset="0.39" stop-color="#030303"/><stop offset="0.49" stop-color="#0e0e0e"/><stop offset="0.57" stop-color="#1f1f1f"/><stop offset="0.66" stop-color="#373737"/><stop offset="0.73" stop-color="#575757"/><stop offset="0.81" stop-color="#7d7d7d"/><stop offset="0.89" stop-color="#ababab"/><stop offset="0.96" stop-color="#dfdfdf"/><stop offset="1" stop-color="#fff"/></linearGradient><linearGradient id="Neutral_4-2" x1="25.06" y1="19" x2="39.8" y2="19" xlink:href="#Neutral_4"/><linearGradient id="linear-gradient-7" x1="-874" y1="44.25" x2="-848.62" y2="44.25" gradientTransform="matrix(-1, 0, 0, 1, -846.07, 0)" xlink:href="#linear-gradient-2"/><linearGradient id="linear-gradient-8" x1="-860.04" y1="61.65" x2="-860.04" y2="66.37" gradientTransform="matrix(-1, 0, 0, 1, -846.07, 0)" xlink:href="#linear-gradient-6"/><linearGradient id="Neutral_4-3" x1="27.26" y1="67.32" x2="41.99" y2="67.32" xlink:href="#Neutral_4"/><linearGradient id="Neutral_4-4" x1="-339.94" y1="-48.3" x2="-333.09" y2="-48.3" gradientTransform="translate(-328.46 -3.05) rotate(180)" xlink:href="#Neutral_4"/><mask id="mask" x="0" y="17.35" width="48" height="49.03" maskUnits="userSpaceOnUse"><path class="cls-1" d="M42.05,22.36a37.86,37.86,0,0,1-.64-5H6.58a37.86,37.86,0,0,1-.64,5C4.88,23.91,0,24.38,0,28.28V64.64a2,2,0,0,0,2.12,1.74H45.88A2,2,0,0,0,48,64.64V28.28C48,24.38,43.12,23.91,42.05,22.36Z"/></mask><mask id="mask-2" x="20.07" y="22.11" width="25.38" height="44.26" maskUnits="userSpaceOnUse"><path class="cls-2" d="M39.51,22.36c-.28-.4-18.79-.14-18.79-.14l-.65,0v44.2H43.33a2,2,0,0,0,2.12-1.74V28.28C45.45,24.38,40.57,23.91,39.51,22.36Z"/></mask><mask id="mask-3" x="33.13" y="26.81" width="11.17" height="36.9" maskUnits="userSpaceOnUse"><path class="cls-5" d="M44.3,62a2,2,0,0,1-2.12,1.74H35.26A2,2,0,0,1,33.13,62V28.54a2,2,0,0,1,2.12-1.74h6.92a2,2,0,0,1,2.12,1.74Z"/></mask><mask id="mask-4" x="37.91" y="26.81" width="5.31" height="36.9" maskUnits="userSpaceOnUse"><path class="cls-6" d="M42.11,62c0,1-.29,1.74-.64,1.74H39.4c-.35,0-.64-.78-.64-1.74V28.54c0-1,.29-1.74.64-1.74h2.08c.35,0,.64.78.64,1.74Z"/></mask><mask id="mask-5" x="20.07" y="61.65" width="27.93" height="4.72" maskUnits="userSpaceOnUse"><g class="cls-7"><path class="cls-8" d="M47.95,62c0,1-1,3.47-2.34,3.47,0,0-12.34-1.13-25.54-1.13v2.07H45.66C47,66.37,48,65.6,48,64.64v-3A2,2,0,0,0,47.95,62Z"/></g></mask><mask id="mask-6" x="25.06" y="18.68" width="14.74" height="0.64" maskUnits="userSpaceOnUse"><path class="cls-9" d="M39.8,19c0-.18-.2-.32-.45-.32H25.52c-.25,0-.45.14-.45.32s.2.32.45.32H39.34C39.59,19.32,39.8,19.17,39.8,19Z"/></mask><mask id="mask-7" x="2.55" y="22.11" width="25.38" height="44.26" maskUnits="userSpaceOnUse"><path class="cls-10" d="M8.49,22.36c.28-.4,18.79-.14,18.79-.14l.65,0v44.2H4.67a2,2,0,0,1-2.12-1.74V28.28C2.55,24.38,7.43,23.91,8.49,22.36Z"/></mask><mask id="mask-8" x="0" y="61.65" width="27.93" height="4.72" maskUnits="userSpaceOnUse"><g class="cls-7"><path class="cls-11" d="M.05,62c0,1,1,3.47,2.34,3.47,0,0,12.34-1.13,25.54-1.13v2.07H2.34C1,66.37,0,65.6,0,64.64v-3A2,2,0,0,1,.05,62Z"/></g></mask><linearGradient id="linear-gradient-9" x1="24" y1="66.37" x2="24" y2="66.78" gradientUnits="userSpaceOnUse"><stop offset="0" stop-color="#5e5e5e"/><stop offset="1" stop-color="#a5a7aa"/></linearGradient><mask id="mask-9" x="27.26" y="67.1" width="14.74" height="0.44" maskUnits="userSpaceOnUse"><path class="cls-12" d="M42,67.32c0-.12-.2-.22-.45-.22H27.71c-.25,0-.45.1-.45.22s.2.22.45.22H41.54C41.79,67.55,42,67.45,42,67.32Z"/></mask><mask id="mask-10" x="4.62" y="26.81" width="6.86" height="36.9" maskUnits="userSpaceOnUse"><path class="cls-13" d="M4.62,28.54c0-1,.58-1.74,1.3-1.74h4.25c.72,0,1.3.78,1.3,1.74V62c0,1-.58,1.74-1.3,1.74H5.92c-.72,0-1.3-.78-1.3-1.74Z"/></mask><mask id="mask-11" x="6.81" y="13.37" width="14.65" height="0.35" maskUnits="userSpaceOnUse"><path class="cls-3" d="M21.46,13.55a.2.2,0,0,1-.21.18H7a.2.2,0,0,1-.21-.18h0A.2.2,0,0,1,7,13.37H21.25a.2.2,0,0,1,.21.18Z"/></mask><mask id="mask-12" x="24.69" y="10.72" width="14.17" height="0.56" maskUnits="userSpaceOnUse"><path class="cls-4" d="M24.69,11c0,.16.09.28.21.28H38.65c.11,0,.21-.13.21-.28h0c0-.16-.09-.28-.21-.28H24.89c-.11,0-.21.13-.21.28Z"/></mask></defs><title>active-jar Original file</title><g class="cls-14"><path class="cls-15" d="M42.05,22.36a37.86,37.86,0,0,1-.64-5H6.58a37.86,37.86,0,0,1-.64,5C4.88,23.91,0,24.38,0,28.28V64.64a2,2,0,0,0,2.12,1.74H45.88A2,2,0,0,0,48,64.64V28.28C48,24.38,43.12,23.91,42.05,22.36Z"/></g><path class="cls-16" d="M40.36,22.36a37.88,37.88,0,0,1-.64-5H8.28a37.86,37.86,0,0,1-.64,5c-1.07,1.55-5.95,2-5.95,5.92V64.64a2,2,0,0,0,2.12,1.74H44.18a2,2,0,0,0,2.12-1.74V28.28C46.3,24.38,41.42,23.91,40.36,22.36Z"/><g class="cls-17"><path class="cls-18" d="M39.51,22.36C39.23,22,24,22.17,24,22.17v44.2H43.33a2,2,0,0,0,2.12-1.74V28.28C45.45,24.38,40.57,23.91,39.51,22.36Z"/></g><path class="cls-19" d="M41.41,17.7h0l0-.35H24v.35Z"/><g class="cls-20"><path class="cls-21" d="M44.3,62a2,2,0,0,1-2.12,1.74H35.26A2,2,0,0,1,33.13,62V28.54a2,2,0,0,1,2.12-1.74h6.92a2,2,0,0,1,2.12,1.74Z"/></g><path class="cls-22" d="M24,20.65H41.74c0-.21-.06-.42-.08-.64H24Z"/><path class="cls-23" d="M39.51,22.36a5.93,5.93,0,0,1-.29-1.45H33.91a6,6,0,0,0,.29,1.45c1.07,1.55,5.95,2,5.95,5.92V64.64A2,2,0,0,1,38,66.37h5.31a2,2,0,0,0,2.12-1.74V28.28C45.45,24.38,40.57,23.91,39.51,22.36Z"/><g class="cls-24"><path class="cls-21" d="M43.22,62c0,1-.45,1.74-1,1.74H38.92c-.56,0-1-.78-1-1.74V28.54c0-1,.45-1.74,1-1.74h3.29c.56,0,1,.78,1,1.74Z"/></g><g class="cls-7"><path class="cls-25" d="M47.95,62c0,1-1,3.47-2.34,3.47A179,179,0,0,0,24,64.3v2.07H45.66C47,66.37,48,65.6,48,64.64v-3A2,2,0,0,0,47.95,62Z"/></g><g class="cls-26"><path class="cls-27" d="M47.95,62c0,1-1,3.47-2.34,3.47A179,179,0,0,0,24,64.3v2.07H45.66C47,66.37,48,65.6,48,64.64v-3A2,2,0,0,0,47.95,62Z"/></g><path class="cls-28" d="M38.14,65.43A125.18,125.18,0,0,0,24,64.82v1.12H38.18C39.09,65.94,39.06,65.43,38.14,65.43Z"/><path class="cls-29" d="M24,18.16H41.48l0-.46H24Z"/><path class="cls-27" d="M42.17,18.14H24V20H42.17a.94.94,0,0,0,0-1.86Z"/><path class="cls-30" d="M41.64,18.16H24v1.58H41.64a.79.79,0,1,0,0-1.58Z"/><path class="cls-31" d="M40.39,18.42H24v1.26H40.39a.63.63,0,1,0,0-1.26Z"/><g class="cls-32"><path class="cls-21" d="M39.8,19c0-.18-.2-.32-.45-.32H25.52c-.25,0-.45.14-.45.32s.2.32.45.32H39.34C39.59,19.32,39.8,19.17,39.8,19Z"/></g><g class="cls-33"><path class="cls-18" d="M8.49,22.36C8.77,22,24,22.17,24,22.17v44.2H4.67a2,2,0,0,1-2.12-1.74V28.28C2.55,24.38,7.43,23.91,8.49,22.36Z"/></g><path class="cls-19" d="M6.59,17.7h0l0-.35H24v.35Z"/><path class="cls-34" d="M2.52,66.37c.18,1.24.63,2.11,1.15,2.11H44.33c.52,0,1-.88,1.15-2.11Z"/><path class="cls-35" d="M3.32,67a1.2,1.2,0,0,0,1.12.8H43.57a1.2,1.2,0,0,0,1.12-.8Z"/><path class="cls-22" d="M24,20.65H6.26c0-.21.06-.42.08-.64H24Z"/><g class="cls-7"><path class="cls-25" d="M.05,62c0,1,1,3.47,2.34,3.47A179,179,0,0,1,24,64.3v2.07H2.34C1,66.37,0,65.6,0,64.64v-3A2,2,0,0,1,.05,62Z"/></g><g class="cls-36"><path class="cls-27" d="M.05,62c0,1,1,3.47,2.34,3.47A179,179,0,0,1,24,64.3v2.07H2.34C1,66.37,0,65.6,0,64.64v-3A2,2,0,0,1,.05,62Z"/></g><path class="cls-28" d="M9.86,65.43A125.18,125.18,0,0,1,24,64.82v1.12H9.82C8.91,65.94,8.94,65.43,9.86,65.43Z"/><path class="cls-29" d="M24,18.16H6.52l0-.46H24Z"/><path class="cls-37" d="M2.52,66.37a2.4,2.4,0,0,0,.14.41H45.34a2.39,2.39,0,0,0,.14-.41Z"/><path class="cls-27" d="M5.83,18.14H24V20H5.83a.94.94,0,0,1,0-1.86Z"/><path class="cls-30" d="M6.36,18.16H24v1.58H6.36a.79.79,0,1,1,0-1.58Z"/><path class="cls-31" d="M7.61,18.42H24v1.26H7.61a.63.63,0,1,1,0-1.26Z"/><g class="cls-38"><path class="cls-39" d="M42,67.32c0-.12-.2-.22-.35-.22H27.82c-.36,0-.56.1-.56.22s.2.22.45.22H41.54C41.79,67.55,42,67.45,42,67.32Z"/></g><g class="cls-40"><path class="cls-21" d="M4.62,28.54c0-1,.58-1.74,1.3-1.74h4.25c.72,0,1.3.78,1.3,1.74V62c0,1-.58,1.74-1.3,1.74H5.92c-.72,0-1.3-.78-1.3-1.74Z"/></g><path class="cls-23" d="M20.89,22.56H11.71a4.94,4.94,0,0,0-1.44.91,5.72,5.72,0,0,0-1.22,1.25H20.76A19.84,19.84,0,0,1,20.89,22.56Z"/><path class="cls-19" d="M41.31,17.77h0l0-.35H23.9v.35Z"/><path class="cls-29" d="M23.9,18.24H41.38l0-.47H23.9Z"/><path class="cls-19" d="M6.49,17.77h0l0-.35H23.9v.35Z"/><path class="cls-29" d="M23.9,18.24H6.42l0-.47H23.9Z"/><g class="cls-41"><path class="cls-42" d="M21.46,13.55a.2.2,0,0,1-.21.18H7a.2.2,0,0,1-.21-.18h0A.2.2,0,0,1,7,13.37H21.25a.2.2,0,0,1,.21.18Z"/></g><path class="cls-43" d="M42.46,12.05H23.9v7H42.46a2.58,2.58,0,0,0,2.25-2.81v-1.4A2.58,2.58,0,0,0,42.46,12.05Z"/><path class="cls-43" d="M41.34,12.4H23.9v6.32H41.34a2.36,2.36,0,0,0,2.14-2.53V14.93A2.36,2.36,0,0,0,41.34,12.4Z"/><g class="cls-44"><path class="cls-45" d="M24.69,11c0,.16.09.28.21.28H38.65c.11,0,.21-.13.21-.28h0c0-.16-.09-.28-.21-.28H24.89c-.11,0-.21.13-.21.28Z"/></g><path class="cls-43" d="M5.34,12.05H23.9v7H5.34a2.58,2.58,0,0,1-2.25-2.81v-1.4A2.58,2.58,0,0,1,5.34,12.05Z"/><path class="cls-43" d="M6.46,12.4H23.9v6.32H6.46a2.36,2.36,0,0,1-2.14-2.53V14.93A2.36,2.36,0,0,1,6.46,12.4Z"/><path class="cls-46" d="M39.07,10.49H8.73c-1.08,0-1.95,1.53-1.95,3.41V15.6c0,1.88.87,3.41,1.95,3.41H39.07C40.14,19,41,17.49,41,15.6V13.9C41,12,40.14,10.49,39.07,10.49Z"/><ellipse class="cls-47" cx="13.77" cy="43.39" rx="10.17" ry="10.21"/><ellipse class="cls-48" cx="13.77" cy="42.57" rx="10.17" ry="10.21"/><ellipse class="cls-49" cx="34.84" cy="43.88" rx="10.17" ry="10.21"/><ellipse class="cls-50" cx="34.84" cy="43.07" rx="10.17" ry="10.21"/><path d="M13.74,46.05V39.88h-.8v-.79h1.67v7Z"/><path d="M32.5,46.62V46l.74-.64.75-.65.64-.6a7.31,7.31,0,0,0,.61-.63q.21-.25.43-.59a2.23,2.23,0,0,0,.42-1.24,1.47,1.47,0,0,0-.32-1,1.24,1.24,0,0,0-1-.37,1.3,1.3,0,0,0-1,.42,1.75,1.75,0,0,0-.39,1.1H32.5a2.35,2.35,0,0,1,.66-1.69,2.5,2.5,0,0,1,3.2,0,2,2,0,0,1,.6,1.53A3.63,3.63,0,0,1,35.83,44q-.41.44-.63.65-.63.61-1.34,1.21h3.32v.75Z"/><path class="cls-51" d="M11.23,1.86a2,2,0,0,1,.73-.5,2.88,2.88,0,0,1,1.12-.19,2.44,2.44,0,0,1,1.18.27,1.87,1.87,0,0,1,.78.79,5.68,5.68,0,0,1,.49,2.58,4.56,4.56,0,0,1-.75,3,2.25,2.25,0,0,1-1.79.7q-2.15,0-2.47-2.49a10.22,10.22,0,0,1-.06-1.17,9.4,9.4,0,0,1,.07-1.16,4.57,4.57,0,0,1,.24-1A2.51,2.51,0,0,1,11.23,1.86Zm3.15,1a1.27,1.27,0,0,0-.5-.66A1.48,1.48,0,0,0,13,2a1.68,1.68,0,0,0-.78.16,1.28,1.28,0,0,0-.48.41,2,2,0,0,0-.27.65,4.33,4.33,0,0,0-.13.76q0,.36,0,.86t0,.87a4.32,4.32,0,0,0,.13.76,2,2,0,0,0,.27.65,1.28,1.28,0,0,0,.48.41,1.75,1.75,0,0,0,1.46,0,1.33,1.33,0,0,0,.48-.41,1.83,1.83,0,0,0,.27-.65A6,6,0,0,0,14.64,5a10.64,10.64,0,0,0-.06-1.25A4.09,4.09,0,0,0,14.37,2.86Z"/><path class="cls-51" d="M17.16,5.21V4.43h4v.78Z"/><path class="cls-51" d="M23.49,8.48V2.19h-.83V1.38h1.72v7.1Z"/><path class="cls-51" d="M26.8,1.86a2,2,0,0,1,.73-.5,2.89,2.89,0,0,1,1.12-.19,2.45,2.45,0,0,1,1.18.27,1.87,1.87,0,0,1,.78.79,5.68,5.68,0,0,1,.49,2.58,4.56,4.56,0,0,1-.75,3,2.25,2.25,0,0,1-1.79.7Q26.42,8.47,26.1,6A10.22,10.22,0,0,1,26,4.81a9.22,9.22,0,0,1,.07-1.16,4.51,4.51,0,0,1,.24-1A2.47,2.47,0,0,1,26.8,1.86Zm3.15,1a1.27,1.27,0,0,0-.5-.66A1.48,1.48,0,0,0,28.62,2a1.68,1.68,0,0,0-.78.16,1.28,1.28,0,0,0-.48.41,2,2,0,0,0-.27.65A4.24,4.24,0,0,0,27,4q0,.36,0,.86t0,.87a4.23,4.23,0,0,0,.13.76,2,2,0,0,0,.27.65,1.28,1.28,0,0,0,.48.41,1.75,1.75,0,0,0,1.46,0,1.33,1.33,0,0,0,.48-.41,1.83,1.83,0,0,0,.27-.65A6,6,0,0,0,30.21,5a10.91,10.91,0,0,0-.05-1.25A4.15,4.15,0,0,0,29.95,2.86Z"/><path class="cls-51" d="M33.21,1.86a2,2,0,0,1,.73-.5,2.89,2.89,0,0,1,1.12-.19,2.45,2.45,0,0,1,1.18.27,1.87,1.87,0,0,1,.78.79,5.68,5.68,0,0,1,.49,2.58,4.56,4.56,0,0,1-.75,3,2.25,2.25,0,0,1-1.79.7q-2.15,0-2.47-2.49a10.22,10.22,0,0,1-.06-1.17,9.22,9.22,0,0,1,.07-1.16,4.51,4.51,0,0,1,.24-1A2.47,2.47,0,0,1,33.21,1.86Zm3.15,1a1.27,1.27,0,0,0-.5-.66A1.48,1.48,0,0,0,35,2a1.68,1.68,0,0,0-.78.16,1.28,1.28,0,0,0-.48.41,2,2,0,0,0-.27.65,4.24,4.24,0,0,0-.13.76q0,.36,0,.86t0,.87a4.23,4.23,0,0,0,.13.76,2,2,0,0,0,.27.65,1.28,1.28,0,0,0,.48.41,1.75,1.75,0,0,0,1.46,0,1.33,1.33,0,0,0,.48-.41,1.83,1.83,0,0,0,.27-.65A6,6,0,0,0,36.63,5a10.91,10.91,0,0,0-.05-1.25A4.15,4.15,0,0,0,36.36,2.86Z"/><path class="cls-51" d="M1.85,77.53a3.64,3.64,0,0,1,0-5.09,3.52,3.52,0,0,1,2.54-1,3.68,3.68,0,0,1,2,.54,3.1,3.1,0,0,1,1.27,1.54H6.26a2,2,0,0,0-1.88-1,2.31,2.31,0,0,0-1.73.69,2.82,2.82,0,0,0,0,3.65,2.31,2.31,0,0,0,1.73.69,2,2,0,0,0,1.88-1H7.64A3.07,3.07,0,0,1,6.38,78a3.7,3.7,0,0,1-2,.54A3.53,3.53,0,0,1,1.85,77.53Z"/><path class="cls-51" d="M11.4,78.56a2.71,2.71,0,0,1-2-.79,2.78,2.78,0,0,1-.79-2.06,2.74,2.74,0,0,1,.81-2.06,2.79,2.79,0,0,1,2-.79,2.79,2.79,0,0,1,2,.79,3,3,0,0,1,0,4.12A2.86,2.86,0,0,1,11.4,78.56Zm1.2-1.46a1.87,1.87,0,0,0,.5-1.39,1.89,1.89,0,0,0-.49-1.39,1.61,1.61,0,0,0-1.19-.5,1.56,1.56,0,0,0-1.17.5,1.93,1.93,0,0,0-.47,1.39,2,2,0,0,0,.46,1.39,1.52,1.52,0,0,0,1.15.5A1.64,1.64,0,0,0,12.6,77.1Z"/><path class="cls-51" d="M19.3,73h1.15v5.51H19.3V77.6a1.89,1.89,0,0,1-1.78,1A2.09,2.09,0,0,1,16,77.93a2.34,2.34,0,0,1-.61-1.72V73h1.14V76a1.59,1.59,0,0,0,.37,1.14,1.34,1.34,0,0,0,1,.39,1.36,1.36,0,0,0,1-.39A1.58,1.58,0,0,0,19.3,76Z"/><path class="cls-51" d="M23.12,73v.87a1.9,1.9,0,0,1,1.78-1,2.08,2.08,0,0,1,1.55.62A2.36,2.36,0,0,1,27,75.22v3.25H25.91V75.39a1.59,1.59,0,0,0-.37-1.13,1.33,1.33,0,0,0-1-.4,1.35,1.35,0,0,0-1,.4,1.58,1.58,0,0,0-.38,1.13v3.08H22V73Z"/><path class="cls-51" d="M31.2,73.89H29.85v3a.58.58,0,0,0,.15.45.73.73,0,0,0,.5.13h.71v1H30.3q-1.6,0-1.6-1.53v-3H28V73h.66V71.59h1.16V73H31.2Z"/><path class="cls-51" d="M34.6,78.56a2.62,2.62,0,0,1-2-.78,2.85,2.85,0,0,1-.76-2.07,2.81,2.81,0,0,1,.77-2.07,2.95,2.95,0,0,1,4,0,2.61,2.61,0,0,1,.76,1.95,3.34,3.34,0,0,1,0,.54H33.06a1.57,1.57,0,0,0,.47,1.09,1.5,1.5,0,0,0,1.07.41,1.35,1.35,0,0,0,1.32-.77h1.24a2.47,2.47,0,0,1-.92,1.25A2.72,2.72,0,0,1,34.6,78.56Zm1.1-4.33a1.55,1.55,0,0,0-1.08-.41,1.49,1.49,0,0,0-1.06.41,1.63,1.63,0,0,0-.49,1.08h3.09A1.43,1.43,0,0,0,35.7,74.23Z"/><path class="cls-51" d="M39.63,73v1a1.76,1.76,0,0,1,1.66-1.05V74H41a1.41,1.41,0,0,0-1,.34,1.62,1.62,0,0,0-.35,1.18v2.9H38.49V73Z"/><path class="cls-51" d="M42.11,74.54a1.48,1.48,0,0,1,.59-1.18,2.4,2.4,0,0,1,1.56-.49,2.33,2.33,0,0,1,1.54.48,1.71,1.71,0,0,1,.61,1.29H45.23a.92.92,0,0,0-.29-.64,1.05,1.05,0,0,0-.72-.23,1.15,1.15,0,0,0-.73.21.65.65,0,0,0-.26.54.58.58,0,0,0,.33.52,2.58,2.58,0,0,0,.81.28q.48.09,1,.22a1.74,1.74,0,0,1,.81.48,1.28,1.28,0,0,1,.33.92,1.39,1.39,0,0,1-.61,1.17,2.58,2.58,0,0,1-1.57.45,2.47,2.47,0,0,1-1.55-.46,1.72,1.72,0,0,1-.66-1.31h1.19a.89.89,0,0,0,.3.64,1.11,1.11,0,0,0,.74.23,1.23,1.23,0,0,0,.75-.21.64.64,0,0,0,.28-.54.58.58,0,0,0-.33-.53,2.68,2.68,0,0,0-.81-.29q-.48-.1-1-.22a1.77,1.77,0,0,1-.81-.45A1.19,1.19,0,0,1,42.11,74.54Z"/></svg>