<?xml version="1.0" encoding="utf-8"?>
<svg version="1.1" id="Layer_1"  xmlns="http://www.w3.org/2000/svg"
	 x="0px" y="0px" viewBox="0 0 170 170" enable-background="new -0.5 -0.5 170 170" xml:space="preserve">
<g id="moreCountersButtons">
	<g id="Scene_1_f2_1_">
		<g id="MovieClip_sprite_38_1_">
			<path fill="#999999" d="M154,129.953v-63.15c-0.491-11.928-6.476-18.343-17.758-19.245c-2.751-4.31-2.848-9.021-0.199-14.033l0,0
				l0.295-1.103c0-0.501-0.096-0.802-0.295-1.202l-0.59-0.601l-0.193-0.202l-1.081-0.3L22.117,30.016l-0.786,0.101l-0.491,0.2
				l-0.588,0.401c-0.295,0.2-0.491,0.501-0.588,0.901v0.101l0,0c-0.098,0.3-0.098,0.701,0,1.002v0.1l0.293,0.801
				c2.551,5.012,2.551,9.723-0.196,14.034C8.379,48.56,2.491,54.976,2,66.904v63.15c0.393,10.724,6.28,16.236,17.664,16.437v10.225
				c0.098,0.399,0.293,0.803,0.588,1.104l0.295,0.299l0.687,0.301h0.098c37.092,9.523,74.775,9.523,113.141,0l0.981-0.399
				l0.298-0.302l0.491-0.701l0.096-0.501v-0.603v-9.622C147.72,146.189,153.608,140.676,154,129.953"/>
			<path fill="#FFFFFF" d="M149.487,129.852V67.004c-0.394-9.523-5.301-14.534-14.622-14.936l-0.981-0.301l-0.786-0.601
				c-3.727-5.112-4.612-10.524-2.55-16.438l-105.39-0.101c2.061,5.915,1.275,11.427-2.551,16.539l-0.688,0.601l-0.981,0.301
				C11.617,52.57,6.71,57.582,6.318,67.004v62.848c0.489,8.318,5.593,12.328,15.308,11.928l1.177,0.302l0.883,0.9
				c0.196,0.302,0.294,0.701,0.294,1.104v10.325c35.424,8.819,71.34,8.819,107.845,0v-10.325c0-0.403,0.097-0.803,0.292-1.104
				l0.882-0.9l1.18-0.302C143.894,142.18,148.997,138.17,149.487,129.852"/>
			<path fill="#00CC00" d="M143.012,11.773v-0.401c-0.099-2.906-6.279-5.312-18.745-7.417c-12.46-2.005-27.572-3.107-45.236-3.107
				c-17.663,0-32.775,1.002-45.237,3.107C21.429,5.96,15.149,8.466,15.051,11.372v0.101c0,0.801,0.491,1.504,1.472,2.205
				c2.452,1.905,8.243,3.608,17.271,5.112c12.461,2.105,27.574,3.107,45.237,3.107l14.424-0.202
				c11.58-0.4,21.883-1.402,30.812-2.906C136.633,16.786,142.913,14.479,143.012,11.773"/>
			<path fill="#00CC00" d="M143.012,11.773c-0.099,2.706-6.379,5.112-18.745,7.117c-8.929,1.504-19.232,2.406-30.812,2.908
				l-14.424,0.2c-17.663,0-32.775-1.002-45.237-3.107c-9.028-1.503-14.818-3.207-17.271-5.112c-0.883-0.701-1.374-1.404-1.472-2.205
				L14.854,36.23c0.197,0.703,0.688,1.404,1.571,2.105c2.452,1.905,8.242,3.71,17.368,5.112c12.461,2.104,27.574,3.107,45.237,3.107
				l14.424-0.2c11.58-0.401,21.884-1.404,30.812-2.907c12.366-2.003,18.646-4.51,18.745-7.317V11.773"/>
			<path vector-effect="non-scaling-stroke" fill="none" stroke="#009900" stroke-linecap="round" stroke-linejoin="round" d="
				M143.012,11.372c-0.099-2.906-6.279-5.312-18.745-7.417c-12.46-2.005-27.572-3.107-45.236-3.107
				c-17.663,0-32.775,1.002-45.237,3.107C21.429,5.96,15.149,8.466,15.051,11.372v0.101L14.854,36.13
				c0.197,0.703,0.688,1.404,1.57,2.105c2.454,1.905,8.244,3.71,17.37,5.112c12.461,2.105,27.574,3.107,45.237,3.107l14.424-0.2
				c11.58-0.401,21.883-1.403,30.812-2.907c12.366-2.005,18.646-4.511,18.745-7.317V11.673V11.372"/>
			<path vector-effect="non-scaling-stroke" fill="none" stroke="#009900" stroke-linecap="round" stroke-linejoin="round" d="
				M15.051,11.573c0,0.801,0.491,1.504,1.472,2.205c2.452,1.905,8.243,3.608,17.271,5.112c12.461,2.105,27.574,3.107,45.237,3.107
				l14.424-0.2c11.58-0.401,21.884-1.404,30.812-2.908c12.366-2.005,18.646-4.411,18.745-7.117"/>
			<g id="MovieClip_sprite_41_31_">
				<path fill="#009900" d="M20.547,18.791v18.042h2.256V18.791H20.547"/>
			</g>
			<g id="MovieClip_sprite_41_30_">
				<path fill="#009900" d="M28.103,21.696v18.043h2.256V21.696H28.103"/>
			</g>
			<g id="MovieClip_sprite_41_29_">
				<path fill="#009900" d="M35.757,22.8v18.041h2.256V22.8H35.757"/>
			</g>
			<g id="MovieClip_sprite_41_28_">
				<path fill="#009900" d="M43.312,24.002v18.043h2.258V24.002H43.312"/>
			</g>
			<g id="MovieClip_sprite_41_27_">
				<path fill="#009900" d="M50.868,24.704v18.043h2.257V24.704H50.868"/>
			</g>
			<g id="MovieClip_sprite_41_26_">
				<path fill="#009900" d="M58.423,25.606v18.042h2.258V25.606H58.423"/>
			</g>
			<g id="MovieClip_sprite_41_25_">
				<path fill="#009900" d="M66.078,25.806v18.043h2.257V25.806H66.078"/>
			</g>
			<g id="MovieClip_sprite_41_24_">
				<path fill="#009900" d="M73.536,26.308V44.35h2.258V26.308H73.536"/>
			</g>
			<g id="MovieClip_sprite_41_23_">
				<path fill="#009900" d="M137.124,18.791v18.042h-2.258V18.791H137.124"/>
			</g>
			<g id="MovieClip_sprite_41_22_">
				<path fill="#009900" d="M129.468,21.696v18.043h-2.258V21.696H129.468"/>
			</g>
			<g id="MovieClip_sprite_41_21_">
				<path fill="#009900" d="M121.913,22.8v18.041h-2.255V22.8H121.913"/>
			</g>
			<g id="MovieClip_sprite_41_20_">
				<path fill="#009900" d="M114.358,24.002v18.043H112.1V24.002H114.358"/>
			</g>
			<g id="MovieClip_sprite_41_19_">
				<path fill="#009900" d="M106.899,24.704v18.043h-2.258V24.704H106.899"/>
			</g>
			<g id="MovieClip_sprite_41_18_">
				<path fill="#009900" d="M99.246,25.606v18.042h-2.258V25.606H99.246"/>
			</g>
			<g id="MovieClip_sprite_41_17_">
				<path fill="#009900" d="M91.689,25.806v18.043h-2.257V25.806H91.689"/>
			</g>
			<g id="MovieClip_sprite_41_16_">
				<path fill="#009900" d="M84.134,26.308V44.35h-2.256V26.308H84.134"/>
			</g>
			<g id="MovieClip_sprite_40_5_">
				<path fill="#CC33FF" d="M77.068,60.188c-5.201,0-9.715,1.903-13.345,5.613c-3.729,3.708-5.495,8.218-5.495,13.532
					c0,5.313,1.865,9.823,5.495,13.532c3.63,3.708,8.145,5.613,13.345,5.613c5.2,0,9.714-1.905,13.345-5.613
					c3.632-3.709,5.496-8.22,5.496-13.532c0-5.313-1.863-9.823-5.496-13.532C86.783,62.091,82.269,60.188,77.068,60.188"/>
			</g>
			<g id="MovieClip_sprite_40_4_">
				<path fill="#FF9900" d="M105.035,74.822c-5.201,0-9.714,1.904-13.345,5.613c-3.728,3.709-5.495,8.22-5.495,13.531
					c0,5.313,1.865,9.823,5.495,13.532c3.729,3.708,8.145,5.613,13.345,5.613s9.714-1.905,13.346-5.613
					c3.73-3.709,5.494-8.22,5.494-13.532c0-5.312-1.863-9.822-5.494-13.531C114.651,76.727,110.235,74.822,105.035,74.822"/>
			</g>
			<g id="MovieClip_sprite_40_3_">
				<path fill="#00CC00" d="M46.453,84.845c-5.202,0-9.716,1.905-13.346,5.614c-3.729,3.708-5.494,8.219-5.494,13.531
					c0,5.313,1.863,9.823,5.494,13.533c3.729,3.709,8.145,5.612,13.346,5.612c5.201,0,9.714-1.903,13.345-5.612
					c3.728-3.71,5.495-8.22,5.495-13.533c0-5.313-1.865-9.823-5.495-13.531C56.167,86.75,51.653,84.845,46.453,84.845"/>
			</g>
			<g id="MovieClip_sprite_39_1_">
				<path fill="#999999" d="M123.092,133.059l-0.789-0.2H33.892c-0.295,0-0.589,0.102-0.786,0.2
					c-0.196,0.102-0.294,0.302-0.294,0.603v36.384c0,0.203,0.098,0.403,0.294,0.603l0.786,0.2h88.511l0.689-0.2l0.096-0.102v-37.287
					L123.092,133.059"/>
				<path fill="#FFFFFF" d="M121.129,169.245v-34.883H34.971v34.883H121.129"/>
			</g>
			<g id="Graphic_text_214">
				<path d="M113.67,148.594c0-0.6-0.196-1.002-0.588-1.199c-0.294-0.203-0.785-0.305-1.375-0.305c-1.57,0-2.747,0.102-3.533,0.403
					c-1.275,0.402-1.961,1.304-1.961,2.506c0,0.903,0.392,1.603,1.275,2.306c0.295,0.2,1.177,0.604,2.453,1.203
					c0.884,0.402,1.275,0.802,1.275,1.101c0,0.501-0.686,0.704-1.863,0.704c-0.295,0-0.688-0.102-1.276-0.302
					c-0.491-0.199-0.883-0.199-1.177-0.199c-0.687,0-1.079,0.298-1.079,0.9c0,0.701,0.491,1.203,1.373,1.504
					c0.688,0.2,1.472,0.4,2.257,0.4c1.177,0,2.159-0.2,2.944-0.601c0.981-0.603,1.472-1.404,1.472-2.506
					c0-0.803-0.491-1.504-1.375-2.205c-0.393-0.301-1.276-0.802-2.453-1.402c-0.884-0.402-1.275-0.703-1.275-1.002
					c0-0.402,0.686-0.603,2.158-0.603c0.293,0,0.491,0,0.784,0.102c0.1,0.501,0.491,0.8,1.081,0.8
					C113.376,150.199,113.67,149.697,113.67,148.594"/>
				<path d="M103.661,151.804c0.786,0,1.276-0.501,1.276-1.504c0-0.101,0-0.301,0-0.603c0-1.604-0.589-2.506-1.865-2.506
					c-1.275,0-2.551,0.4-3.63,1.205c-0.098-0.704-0.491-1.002-1.177-1.002c-0.393,0-0.688,0.099-0.883,0.298
					c-0.196,0.203-0.295,0.502-0.295,0.901c0,0.203,0,0.501,0,0.904c0,0.402,0,0.701,0,0.903v6.113c0,0.302,0.099,0.6,0.295,0.901
					c0.196,0.2,0.491,0.402,0.883,0.402c0.393,0,0.687-0.102,0.981-0.402c0.196-0.2,0.393-0.501,0.393-0.901v-4.711
					c0.588-1.205,1.57-1.903,2.942-2.207v1.002C102.483,151.404,102.876,151.804,103.661,151.804"/>
				<path d="M85.508,148.295c0-0.603-0.197-1.002-0.688-1.104c-0.293-0.102-0.784-0.102-1.472-0.102c-0.196,0-0.589,0-0.882,0
					v-0.698c0-1.504-0.491-2.306-1.374-2.306c-0.393,0-0.687,0.099-0.981,0.301c-0.196,0.2-0.393,0.501-0.393,0.901
					c0,0.2,0,0.501,0,0.901c0,0.501,0,0.802,0,1.002c-0.784-0.102-1.373-0.102-1.57-0.102c-0.393,0-0.687,0.102-0.883,0.403
					c-0.196,0.199-0.392,0.501-0.392,0.903c0,0.698,0.392,1.102,1.177,1.2c0.786,0.101,1.374,0.101,1.667,0.101
					c0.098,2.507,0.197,4.111,0.197,4.813c0,0.2,0,0.6,0,1.003c0,0.399,0,0.802,0,1.002c0,0.302,0.098,0.6,0.392,0.803
					c0.197,0.2,0.491,0.299,0.883,0.299c0.883,0,1.374-0.701,1.374-2.104c0-0.2,0-0.302,0-0.502c0-0.199,0-0.402,0-0.501
					c0-0.803-0.098-2.407-0.195-4.913c0.293-0.099,0.588-0.099,0.882-0.099c0.197,0,0.295,0,0.491,0c0.197,0,0.295,0,0.491,0
					c0.393,0,0.688-0.099,0.883-0.403C85.409,148.897,85.508,148.695,85.508,148.295"/>
				<path d="M91.003,147.293c-1.571,0-2.749,0.603-3.73,1.802c-0.784,1.104-1.177,2.408-1.177,4.01c0,1.405,0.491,2.507,1.57,3.309
					c0.884,0.701,2.159,1.003,3.631,1.003c0.981,0,1.865-0.2,2.749-0.501c0.981-0.502,1.57-1.003,1.57-1.704
					c0-0.603-0.295-1.002-0.981-1.002c-0.295,0-0.688,0.202-1.179,0.501c-0.588,0.399-1.275,0.501-2.158,0.501
					c-0.589,0-0.981-0.102-1.472-0.298c-0.393-0.203-0.784-0.403-1.079-0.704l3.14-1.402c0.981-0.502,1.669-0.901,2.061-1.104
					c0.786-0.501,1.081-1.104,1.081-1.802c0-1.003-0.491-1.706-1.374-2.106C92.964,147.493,92.083,147.293,91.003,147.293
					 M88.55,151.905c0.293-0.806,0.588-1.307,0.981-1.706c0.391-0.4,0.882-0.603,1.472-0.603c0.686,0,1.177,0.101,1.667,0.402
					c-0.491,0.301-1.178,0.701-1.963,1.002C90.022,151.303,89.334,151.602,88.55,151.905"/>
				<path d="M73.143,147.09c-0.981,0-1.962,0.502-2.845,1.405v-0.2c-0.098-1.002-0.491-1.503-1.276-1.503
					c-0.393,0-0.687,0.101-0.883,0.399c-0.294,0.203-0.392,0.501-0.392,0.901c0,0.202,0,0.501,0,0.903c0,0.403,0,0.601,0,0.803
					c0,0.603,0,1.504-0.099,2.607c-0.098,1.102-0.098,1.903-0.098,2.507c0,0.196,0,0.399,0,0.799c0,0.4,0,0.603,0,0.803
					c0,0.4,0.098,0.701,0.393,0.901c0.196,0.2,0.588,0.402,0.981,0.402c0.393,0,0.686-0.102,0.883-0.402
					c0.196-0.2,0.393-0.501,0.393-0.901c0-0.2,0-0.501,0.098-0.803c0-0.399,0-0.603,0-0.799c0-0.305,0-0.502,0-0.806
					c0-0.4,0.098-0.698,0.098-0.901c0.295-1.002,0.687-1.903,1.177-2.607c0.491-0.698,1.079-1.002,1.57-1.002
					c0.197,0,0.393,0.304,0.393,0.805c0,0.099,0,0.197,0,0.4c0,0.199,0,0.298,0,0.298c0,0.203,0,0.502,0,0.904s0,0.701,0,0.803
					c0,0.603,0,1.202,0.098,1.903c0.098,0.701,0.197,1.304,0.197,2.005c0.098,0.803,0.491,1.104,1.275,1.104
					c0.393,0,0.688-0.102,0.883-0.402c0.196-0.2,0.393-0.501,0.393-0.901c0-0.501-0.098-1.104-0.197-1.906
					c-0.196-0.8-0.196-1.402-0.196-1.903c0-0.102,0-0.299,0-0.603v-0.6c0-1.304-0.098-2.307-0.393-3.008
					C75.105,147.592,74.321,147.09,73.143,147.09"/>
				<path d="M66.177,148.396c0-0.304-0.099-0.603-0.393-0.903c-0.197-0.2-0.588-0.302-0.883-0.302c-0.784,0-1.177,0.4-1.275,1.104
					c-0.1,0.901-0.197,2.005-0.197,3.307c0,0.304,0,0.805,0,1.503c0,0.603,0,1.205,0,1.605c-0.883,0.203-1.57,0.301-2.256,0.301
					c-0.197,0-0.295,0-0.491-0.098c-0.197,0-0.295-0.102-0.491-0.102c-0.098-0.4-0.197-1.003-0.197-1.605
					c-0.098-0.603-0.098-1.402-0.098-2.304c0-0.304,0.098-0.703,0.197-1.306c0.098-0.601,0.098-1.003,0.098-1.302
					c0-0.399-0.098-0.703-0.393-0.9c-0.196-0.203-0.589-0.305-0.884-0.305c-0.686,0-1.177,0.305-1.275,1.003
					c-0.197,1.002-0.295,1.906-0.295,2.709c0,1.202,0.098,2.607,0.393,4.111c0.098,0.799,0.491,1.401,1.177,1.903
					c0.589,0.399,1.276,0.6,2.159,0.6c0.883,0,1.669-0.2,2.453-0.501c0.197,0.501,0.59,0.701,1.081,0.701
					c0.391,0,0.686-0.099,0.882-0.299c0.197-0.203,0.393-0.501,0.393-0.904c0-0.099,0-0.301,0-0.6c0-0.202,0-0.402,0-0.603
					c0-0.399,0-1.002,0-1.903s0-1.504,0-1.903L66.177,148.396"/>
				<path d="M55.479,148.897c-0.784-1.002-1.766-1.503-2.943-1.503c-1.669,0-2.944,0.6-3.828,1.903
					c-0.784,1.104-1.177,2.304-1.079,3.708c0,1.504,0.491,2.605,1.374,3.509c0.784,0.803,1.766,1.202,2.944,1.202
					c1.471,0,2.551-0.603,3.433-1.703c0.786-1.003,1.08-2.307,1.08-3.709C56.363,150.902,56.069,149.799,55.479,148.897
					 M53.223,154.608c-0.393,0.402-0.884,0.501-1.375,0.501c-0.391,0-0.784-0.196-1.079-0.501c-0.393-0.399-0.588-1.002-0.588-1.7
					c0-0.806,0.196-1.504,0.588-2.106c0.393-0.704,0.981-1.003,1.767-1.003c1.079,0,1.668,1.003,1.57,3.109
					C53.91,153.606,53.616,154.209,53.223,154.608"/>
				<path d="M44.686,147.592c-0.883-0.299-1.57-0.502-2.158-0.502c-1.276,0-2.454,0.806-3.435,2.31
					c-0.883,1.301-1.275,2.604-1.275,3.807c0,1.304,0.491,2.405,1.472,3.207c0.882,0.803,2.061,1.203,3.335,1.203
					c0.588,0,1.374-0.2,2.258-0.601c1.079-0.501,1.57-1.002,1.57-1.503c0-0.302-0.098-0.6-0.393-0.803
					c-0.196-0.2-0.491-0.4-0.884-0.4c-0.196,0-0.491,0.2-1.079,0.502c-0.588,0.298-1.079,0.501-1.57,0.501
					c-0.687,0-1.276-0.203-1.767-0.501c-0.489-0.4-0.687-0.901-0.687-1.504c0-0.704,0.295-1.504,0.786-2.405
					c0.588-0.903,1.079-1.404,1.57-1.404c0.687,0,1.275,0.199,1.668,0.501c0.393,0.301,0.687,0.402,0.981,0.402
					c0.393,0,0.686-0.102,0.883-0.402c0.196-0.2,0.293-0.501,0.293-0.803C46.255,148.594,45.667,148.093,44.686,147.592"/>
			</g>
			<g id="Graphic_text_213">
				<path fill="#006600" d="M105.035,4.556c-0.883-1.302-2.159-2.005-3.729-2.005c-1.667,0-3.042,0.703-3.925,2.206
					c-0.784,1.203-1.177,2.606-1.177,4.21c0,1.905,0.293,3.407,0.884,4.611c0.882,1.604,2.158,2.405,4.023,2.405
					c1.668,0,2.943-0.601,3.827-1.903c0.883-1.304,1.276-3.208,1.276-5.614C106.114,6.962,105.723,5.659,105.035,4.556 M103.17,5.76
					c0.393,0.701,0.59,1.704,0.59,3.006c0,1.705-0.197,3.007-0.688,3.81c-0.491,0.801-1.177,1.203-2.061,1.203
					c-1.079,0-1.863-0.602-2.256-1.804c-0.197-0.803-0.393-1.805-0.393-3.208c0-1.002,0.195-1.904,0.686-2.706
					c0.59-0.903,1.276-1.402,2.16-1.402C102.19,4.757,102.778,5.157,103.17,5.76"/>
				<path fill="#006600" d="M95.713,8.566c0-1.503-0.393-2.907-1.079-4.01c-0.884-1.302-2.16-2.005-3.73-2.005
					c-1.667,0-3.042,0.703-3.924,2.206c-0.786,1.203-1.179,2.606-1.179,4.21c0,1.905,0.295,3.407,0.884,4.611
					c0.883,1.604,2.158,2.405,4.023,2.405c1.668,0,2.944-0.601,3.828-1.903C95.222,12.875,95.713,11.072,95.713,8.566 M92.671,5.76
					c0.393,0.701,0.589,1.704,0.589,3.006c0,1.705-0.196,3.007-0.687,3.81c-0.491,0.801-1.179,1.203-2.061,1.203
					c-1.081,0-1.865-0.602-2.258-1.804c-0.196-0.803-0.393-1.805-0.393-3.208c0-1.002,0.197-1.904,0.688-2.706
					c0.588-0.903,1.275-1.402,2.158-1.402C91.689,4.757,92.278,5.157,92.671,5.76"/>
				<path fill="#006600" d="M78.245,6.661c0.197,0,0.491-0.2,0.981-0.501v7.519c-0.098,0-0.196,0-0.391,0
					c-1.179,0-1.767,0.401-1.767,1.103s0.491,1.002,1.57,1.002h3.337c0.293,0,0.588-0.1,0.784-0.301
					c0.197-0.2,0.295-0.501,0.295-0.801c0-0.301-0.098-0.601-0.295-0.803c-0.196-0.2-0.491-0.3-0.784-0.3h-0.588v-2.005
					c0-2.205,0-4.01,0.098-5.212c0.098-1.204,0.098-2.205,0.098-2.808c0-0.601-0.295-0.901-0.786-0.901
					c-0.392,0-0.785,0.2-1.177,0.501l-1.963,1.502c-0.393,0.301-0.588,0.703-0.588,1.002c0,0.301,0.098,0.603,0.393,0.802
					C77.657,6.461,77.854,6.661,78.245,6.661"/>
				<path fill="#006600" d="M66.177,8.265c-0.688-0.901-1.57-1.302-2.651-1.302c-1.472,0-2.649,0.601-3.532,1.704
					c-0.687,1.002-0.981,2.105-0.981,3.409c0,1.302,0.491,2.305,1.276,3.107c0.784,0.701,1.667,1.103,2.649,1.103
					c1.276,0,2.355-0.501,3.14-1.503c0.688-0.903,1.079-2.005,1.079-3.308C67.059,10.169,66.765,9.167,66.177,8.265 M64.116,13.477
					c-0.295,0.301-0.786,0.501-1.276,0.501c-0.393,0-0.687-0.1-1.08-0.4c-0.393-0.401-0.588-0.902-0.588-1.503
					c0-0.703,0.196-1.404,0.588-1.905c0.393-0.601,0.884-0.902,1.668-0.902c0.981,0,1.472,0.902,1.374,2.708
					C64.802,12.576,64.607,13.077,64.116,13.477"/>
				<path fill="#006600" d="M53.518,4.256c-0.197,0.2-0.295,0.501-0.295,0.801c0,0.201,0,0.501,0,0.802c0,0.401,0,0.701,0,0.902
					c-0.687-0.101-1.177-0.101-1.375-0.101c-0.293,0-0.588,0.101-0.784,0.301c-0.197,0.2-0.295,0.501-0.295,0.801
					c0,0.603,0.393,1.002,1.079,1.104c0.688,0.1,1.179,0.1,1.57,0.1c0.099,2.205,0.099,3.708,0.099,4.41c0,0.201,0,0.501,0,0.902
					s0,0.701,0,0.902c0,0.3,0.098,0.602,0.392,0.801c0.197,0.201,0.491,0.301,0.786,0.301c0.784,0,1.177-0.701,1.177-2.005
					c0-0.1,0-0.301,0-0.501c0-0.2,0-0.401,0-0.401c0-0.701,0-2.205-0.098-4.51c0.295-0.101,0.588-0.101,0.786-0.101
					c0.098,0,0.196,0,0.392,0c0.197,0,0.295,0,0.393,0c0.295,0,0.588-0.1,0.786-0.3c0.196-0.201,0.393-0.501,0.393-0.802
					c0-0.501-0.197-0.901-0.688-1.002c-0.196-0.1-0.687-0.1-1.275-0.1c-0.197,0-0.491,0-0.884,0V5.86
					c0-1.404-0.393-2.105-1.177-2.105C54.106,3.955,53.812,4.055,53.518,4.256"/>
			</g>
		</g>
		<g id="Graphic_shape_61">
			<path fill="#FFFFFF" d="M36.443,169.145h80.661v-34.281H36.443V169.145"/>
		</g>
		<g id="Graphic_text_212">
			<path d="M96.006,159.621c-0.098-0.502-0.391-0.8-0.882-0.8c-0.295,0-0.491,0.099-0.688,0.298c-0.196,0.203-0.293,0.4-0.293,0.704
				c0,0.099,0,0.4,0,0.698c0,0.305,0,0.502,0,0.704v4.612c0,0.299,0.098,0.502,0.196,0.698c0.197,0.203,0.393,0.305,0.688,0.305
				c0.294,0,0.49-0.102,0.687-0.305c0.196-0.196,0.293-0.399,0.293-0.698v-3.609c0.491-0.901,1.276-1.504,2.258-1.605l0.098,0.704
				c0,0.6,0.295,0.901,0.883,0.901s0.981-0.4,0.981-1.104c0-0.101,0-0.298,0-0.501c0-1.202-0.491-1.802-1.374-1.802
				C97.773,158.618,96.792,159.021,96.006,159.621"/>
			<path d="M104.741,160.325c0.196,0,0.391,0,0.588,0c0.098,0.399,0.393,0.6,0.883,0.6c0.392,0,0.687-0.403,0.687-1.304
				c0-0.4-0.196-0.701-0.491-0.901c-0.196-0.102-0.588-0.2-1.079-0.2c-1.178,0-2.061,0.099-2.649,0.302
				c-0.981,0.298-1.472,0.9-1.472,1.903c0,0.701,0.293,1.202,0.981,1.703c0.293,0.2,0.98,0.502,1.863,0.904
				c0.688,0.299,0.981,0.6,0.981,0.8c0,0.399-0.491,0.603-1.472,0.603c-0.196,0-0.491-0.102-0.882-0.203
				c-0.393-0.098-0.786-0.196-0.981-0.196c-0.491,0-0.786,0.196-0.786,0.698c0,0.501,0.393,0.903,1.079,1.205
				c0.491,0.2,1.079,0.298,1.668,0.298c0.883,0,1.571-0.196,2.257-0.501c0.786-0.399,1.08-1.101,1.08-1.802
				c0-0.603-0.393-1.205-1.08-1.707c-0.295-0.196-0.883-0.501-1.865-1.002c-0.687-0.299-1.079-0.501-1.079-0.698
				C102.974,160.423,103.563,160.325,104.741,160.325"/>
			<path d="M93.064,138.975c-0.491-0.304-1.179-0.402-2.061-0.402c-1.179,0-2.062,0.501-2.847,1.405
				c-0.588,0.8-0.883,1.802-0.883,3.004c0,1.104,0.393,1.906,1.179,2.507c0.686,0.501,1.57,0.802,2.747,0.802
				c0.785,0,1.472-0.199,2.061-0.501c0.786-0.301,1.177-0.701,1.177-1.304c0-0.501-0.196-0.701-0.687-0.701
				c-0.295,0-0.588,0.102-0.981,0.302c-0.393,0.301-0.981,0.399-1.57,0.399c-0.393,0-0.786-0.099-1.079-0.2
				c-0.295-0.101-0.588-0.301-0.786-0.501l2.355-1.104c0.785-0.4,1.275-0.6,1.57-0.901c0.588-0.399,0.883-0.901,0.883-1.402
				C94.045,139.774,93.75,139.273,93.064,138.975 M90.806,141.278c-0.491,0.202-1.079,0.399-1.57,0.704
				c0.196-0.603,0.393-1.003,0.686-1.307c0.295-0.299,0.688-0.4,1.081-0.4c0.489,0,0.98,0.102,1.275,0.302
				C91.885,140.777,91.395,140.979,90.806,141.278"/>
			<path d="M85.311,138.474c-1.079,0-1.962,0.299-2.845,0.901c-0.098-0.502-0.393-0.803-0.883-0.803
				c-0.295,0-0.491,0.099-0.687,0.301c-0.197,0.2-0.295,0.4-0.295,0.701c0,0.099,0,0.403,0,0.701c0,0.302,0,0.502,0,0.704v4.609
				c0,0.302,0.098,0.502,0.196,0.701c0.197,0.2,0.393,0.302,0.688,0.302c0.293,0,0.491-0.102,0.687-0.302
				c0.197-0.199,0.295-0.399,0.295-0.701v-3.606c0.491-0.904,1.275-1.504,2.256-1.605l0.098,0.701c0,0.6,0.295,0.904,0.884,0.904
				c0.588,0,0.981-0.403,0.981-1.104c0-0.101,0-0.301,0-0.501C86.685,139.073,86.194,138.474,85.311,138.474"/>
			<path d="M78.835,139.774c-0.491-0.701-1.276-1.104-2.258-1.104c-1.275,0-2.256,0.501-2.944,1.405
				c-0.588,0.802-0.882,1.703-0.882,2.807c0,1.102,0.391,2.005,1.079,2.605c0.588,0.603,1.373,0.903,2.256,0.903
				c1.079,0,1.963-0.402,2.649-1.304c0.589-0.803,0.884-1.703,0.884-2.808C79.62,141.278,79.424,140.377,78.835,139.774
				 M75.203,141.278c0.295-0.501,0.786-0.8,1.375-0.8c0.786,0,1.177,0.8,1.177,2.304c0,0.501-0.196,1.002-0.589,1.304
				c-0.293,0.301-0.588,0.399-1.079,0.399c-0.393,0-0.588-0.099-0.884-0.301c-0.391-0.299-0.49-0.701-0.49-1.302
				C74.713,142.18,74.91,141.678,75.203,141.278"/>
			<path d="M68.433,138.671c-0.393,0.102-0.687,0.304-0.884,0.603c-0.393-0.603-0.882-0.901-1.57-0.901
				c-0.687,0-1.275,0.4-2.061,1.301l0.098-0.6c0-0.301-0.098-0.501-0.293-0.701c-0.197-0.202-0.491-0.301-0.688-0.301
				c-0.294,0-0.589,0.199-0.785,0.6c-0.098,0.402-0.197,0.704-0.197,1.205c0,0.2,0,0.603,0,1.104c0,0.4,0.099,0.8,0.099,1.003v2.604
				c0,0.501,0,0.901,0.098,1.101c0.098,0.403,0.393,0.502,0.785,0.502c0.295,0,0.59-0.099,0.688-0.2
				c0.196-0.099,0.293-0.302,0.293-0.6c0-0.102,0-0.302,0-0.502c0-0.202,0-0.402,0-0.501c0-0.501,0-1.304,0.1-2.207l0.098-0.099
				c0.491-0.701,1.079-1.304,1.668-1.603c0,0.197,0.098,0.399,0.098,0.698c0,0.501,0,1.307,0.098,2.407
				c0.099,1.102,0.197,1.806,0.197,2.405c0,0.301,0.098,0.501,0.293,0.701c0.197,0.202,0.393,0.301,0.688,0.301
				c0.293,0,0.491-0.099,0.687-0.301c0.196-0.2,0.295-0.4,0.295-0.701c0-0.501-0.099-1.304-0.197-2.307
				c-0.098-1.002-0.196-1.802-0.196-2.303c0.196-0.203,0.491-0.4,0.884-0.603c0.391-0.2,0.588-0.299,0.687-0.299
				c0.195,0,0.295,0.399,0.491,1.301c0.098,0.4,0.195,1.104,0.295,2.106c0.098,0.901,0.195,1.603,0.293,2.005
				c0.098,0.501,0.393,0.8,0.883,0.8c0.294,0,0.589-0.099,0.687-0.299c0.197-0.202,0.295-0.402,0.295-0.704
				c-0.197-1.802-0.295-3.007-0.491-3.807c-0.098-1.104-0.197-1.706-0.295-1.903c-0.293-0.904-0.981-1.405-1.863-1.405
				C69.119,138.474,68.826,138.572,68.433,138.671"/>
			<path d="M73.928,159.621L73.928,159.621c0-0.8-0.393-1.203-0.981-1.203c-0.295,0-0.589,0.102-0.687,0.302
				c-0.197,0.2-0.295,0.399-0.295,0.701c0,0.099,0,0.402,0,0.701c0,0.301,0,0.501,0,0.603c0,0.501,0,1.104-0.098,2.005
				c-0.098,0.8-0.098,1.402-0.098,1.903c0,0.102,0,0.302,0.098,0.603c0,0.299,0.098,0.502,0.098,0.603
				c0,0.299,0.098,0.502,0.295,0.698c0.196,0.203,0.391,0.305,0.687,0.305c0.293,0,0.588-0.102,0.686-0.305
				c0.197-0.196,0.295-0.501,0.295-0.698c0-0.101,0-0.304,0.098-0.603c0-0.301,0.098-0.501,0.098-0.603c0-0.199,0-0.399,0-0.701
				c0-0.301,0.098-0.501,0.098-0.701c0.197-0.803,0.491-1.402,0.883-2.005c0.393-0.603,0.786-0.803,1.179-0.803
				c0.195,0,0.293,0.2,0.293,0.601c0,0.101,0,0.202,0,0.304c0,0.099,0,0.197,0,0.299c0,0.101,0,0.399,0,0.704
				c0,0.298-0.098,0.501-0.098,0.6c0,0.501,0,1.002,0.098,1.405c0,0.501,0.098,1.002,0.197,1.503c0,0.601,0.392,0.901,0.98,0.901
				c0.295,0,0.49-0.102,0.688-0.301c0.196-0.2,0.293-0.403,0.293-0.701c0-0.4-0.098-0.901-0.195-1.402
				c-0.098-0.603-0.098-1.003-0.098-1.405c0-0.099,0-0.2,0-0.502v-0.501c0-1.002-0.098-1.805-0.295-2.205
				c-0.393-0.703-0.981-1.104-1.863-1.104C75.303,158.52,74.517,158.92,73.928,159.621"/>
			<path d="M69.905,158.618c-0.589,0-0.884,0.302-0.981,0.901c-0.098,0.704-0.098,1.504-0.098,2.506c0,0.203,0,0.603,0.098,1.205
				c0,0.502,0,0.901,0,1.301c-0.687,0.102-1.177,0.203-1.668,0.203c-0.099,0-0.197,0-0.295,0s-0.293-0.102-0.393-0.102
				c-0.098-0.399-0.195-0.8-0.195-1.301s-0.098-1.104-0.098-1.706c0-0.2,0-0.502,0.098-1.003c0-0.399,0.098-0.8,0.098-1.002
				c0-0.299-0.098-0.502-0.293-0.701c-0.197-0.2-0.393-0.302-0.688-0.302c-0.491,0-0.784,0.302-0.882,0.803
				c-0.1,0.803-0.197,1.504-0.197,2.104c0,0.903,0.098,2.005,0.295,3.21c0.098,0.603,0.392,1.104,0.882,1.402
				c0.393,0.302,0.981,0.501,1.669,0.501c0.588,0,1.177-0.102,1.863-0.298c0.197,0.399,0.491,0.501,0.884,0.501
				c0.295,0,0.491-0.102,0.688-0.305c0.195-0.196,0.293-0.399,0.293-0.698c0-0.101,0-0.304,0-0.501c0-0.203-0.098-0.304-0.098-0.501
				c0-0.305,0-0.806,0-1.405c0-0.701,0-1.101,0-1.405l0.098-2.506c0-0.299-0.098-0.499-0.293-0.698
				C70.396,158.72,70.101,158.618,69.905,158.618"/>
			<path d="M79.031,159.421c0,0.501,0.294,0.803,0.884,0.904c0.588,0,1.079,0.098,1.275,0.098c0.098,1.806,0.098,3.008,0.098,3.607
				c0,0.203,0,0.403,0,0.806c0,0.399,0,0.6,0,0.8c0,0.202,0.1,0.399,0.295,0.603c0.195,0.2,0.49,0.298,0.686,0.298
				c0.688,0,0.981-0.501,0.981-1.602c0-0.099,0-0.2,0-0.403c0-0.196,0-0.298,0-0.298c0-0.603,0-1.903-0.098-3.811
				c0.295,0,0.491-0.098,0.687-0.098c0.099,0,0.197,0,0.393,0c0.098,0,0.197,0.098,0.295,0.098c0.293,0,0.491-0.098,0.687-0.301
				c0.196-0.2,0.295-0.4,0.295-0.701c0-0.4-0.197-0.701-0.59-0.901c-0.196,0-0.589-0.102-1.079-0.102c-0.196,0-0.392,0-0.687,0
				l0.098-0.501c0-1.202-0.392-1.805-1.079-1.805c-0.293,0-0.588,0.102-0.687,0.301c-0.197,0.2-0.295,0.403-0.295,0.701
				c0,0.203,0,0.403,0,0.704c0,0.299,0,0.502,0.098,0.701c-0.686,0-1.079-0.102-1.275-0.102c-0.295,0-0.491,0.102-0.688,0.302
				C79.031,159.021,79.031,159.221,79.031,159.421"/>
			<path d="M86.783,160.122c-0.588,0.803-0.883,1.805-0.883,3.007c0,1.104,0.393,1.904,1.178,2.507
				c0.687,0.501,1.57,0.803,2.747,0.803c0.786,0,1.472-0.2,2.061-0.502c0.786-0.301,1.179-0.701,1.179-1.304
				c0-0.501-0.197-0.701-0.688-0.701c-0.293,0-0.588,0.099-0.981,0.302c-0.391,0.298-0.981,0.399-1.57,0.399
				c-0.393,0-0.784-0.102-1.079-0.199c-0.293-0.099-0.589-0.302-0.784-0.502l2.354-1.101c0.786-0.403,1.276-0.603,1.57-0.904
				c0.589-0.402,0.884-0.903,0.884-1.405c0-0.698-0.393-1.199-1.08-1.602c-0.491-0.302-1.177-0.4-2.061-0.4
				C88.452,158.72,87.471,159.221,86.783,160.122 M87.764,162.127c0.197-0.603,0.393-1.003,0.688-1.301
				c0.293-0.305,0.686-0.403,1.079-0.403c0.491,0,0.981,0.099,1.275,0.302c-0.393,0.2-0.884,0.501-1.472,0.8
				C88.843,161.727,88.255,161.927,87.764,162.127"/>
			<path d="M51.555,164.434c-0.393-0.302-0.491-0.701-0.491-1.203c0-0.501,0.196-1.104,0.589-1.805
				c0.393-0.701,0.786-1.101,1.177-1.101c0.589,0,0.981,0.098,1.276,0.298c0.294,0.203,0.491,0.302,0.687,0.302
				c0.295,0,0.491-0.099,0.687-0.302c0.099-0.2,0.197-0.399,0.197-0.603c0-0.399-0.393-0.8-1.177-1.101
				c-0.688-0.302-1.179-0.4-1.669-0.4c-0.981,0-1.863,0.6-2.649,1.704c-0.687,1.002-0.981,2.005-0.981,2.905
				c0,1.003,0.393,1.806,1.079,2.405c0.688,0.603,1.57,0.904,2.551,0.904c0.491,0,1.08-0.2,1.767-0.502
				c0.784-0.402,1.177-0.701,1.177-1.101c0-0.305-0.098-0.501-0.295-0.704c-0.196-0.2-0.392-0.299-0.687-0.299
				c-0.098,0-0.393,0.099-0.883,0.299c-0.392,0.302-0.785,0.399-1.177,0.399C52.339,164.836,51.948,164.633,51.555,164.434"/>
			<path d="M60.386,158.821c-1.275,0-2.256,0.501-2.944,1.402c-0.588,0.8-0.882,1.703-0.882,2.805c0,1.104,0.392,2.005,1.079,2.607
				c0.589,0.603,1.373,0.9,2.256,0.9c1.079,0,1.963-0.399,2.649-1.301c0.59-0.802,0.883-1.706,0.883-2.808
				c0-1.002-0.293-1.805-0.784-2.506S61.368,158.821,60.386,158.821 M60.386,160.623c0.786,0,1.177,0.803,1.177,2.307
				c0,0.501-0.196,1.002-0.589,1.304c-0.293,0.298-0.588,0.399-1.079,0.399c-0.393,0-0.588-0.102-0.883-0.298
				c-0.392-0.305-0.489-0.704-0.489-1.307c0-0.601,0.195-1.102,0.489-1.603C59.307,160.925,59.798,160.623,60.386,160.623"/>
		</g>
	</g>
</g>
</svg>