<svg id="Layer_1" data-name="Layer 1" xmlns="http://www.w3.org/2000/svg" xmlns:xlink="http://www.w3.org/1999/xlink" viewBox="0 0 439.11 178.18"><defs><style>.cls-1{fill:url(#radial-gradient);}.cls-2{fill:url(#linear-gradient);}.cls-3{opacity:0.1;}.cls-4{fill:url(#linear-gradient-2);}.cls-5{fill:url(#radial-gradient-2);}.cls-6{fill:url(#linear-gradient-3);}.cls-7{fill:url(#linear-gradient-4);}.cls-8{fill:url(#radial-gradient-3);}.cls-9{fill:url(#linear-gradient-5);}.cls-10{fill:url(#linear-gradient-6);}.cls-11{fill:url(#radial-gradient-4);}.cls-12{fill:url(#linear-gradient-7);}.cls-13{fill:url(#linear-gradient-8);}</style><radialGradient id="radial-gradient" cx="223.26" cy="26.22" r="156.67" gradientTransform="translate(-3.5 104.82) rotate(0.37)" gradientUnits="userSpaceOnUse"><stop offset="0" stop-color="#9d50d6"/><stop offset="1" stop-color="#893fbf"/></radialGradient><linearGradient id="linear-gradient" x1="3.95" y1="64.21" x2="413.57" y2="64.21" gradientTransform="translate(-3.91 106.16)" gradientUnits="userSpaceOnUse"><stop offset="0" stop-color="#893fbf"/><stop offset="1" stop-color="#9d50d6"/></linearGradient><linearGradient id="linear-gradient-2" x1="413.57" y1="32.99" x2="442.63" y2="32.99" gradientTransform="translate(-3.5 104.82) rotate(0.37)" xlink:href="#linear-gradient"/><radialGradient id="radial-gradient-2" cx="40.51" cy="-1787.99" r="76.57" gradientTransform="translate(115.94 -1667.43) rotate(180)" gradientUnits="userSpaceOnUse"><stop offset="0" stop-color="#ff6300"/><stop offset="0.25" stop-color="#f96100"/><stop offset="0.57" stop-color="#e95c00"/><stop offset="0.93" stop-color="#cf5300"/><stop offset="1" stop-color="#c95100"/></radialGradient><linearGradient id="linear-gradient-3" x1="-63.87" y1="-1822.75" x2="-5.12" y2="-1815.55" gradientTransform="translate(-1712.27 68.58) rotate(90.37)" gradientUnits="userSpaceOnUse"><stop offset="0" stop-color="#d45500"/><stop offset="0.32" stop-color="#e75b00"/><stop offset="0.71" stop-color="#f86100"/><stop offset="1" stop-color="#fe6300"/></linearGradient><linearGradient id="linear-gradient-4" x1="6.48" y1="-1894.72" x2="11.6" y2="-1829.39" gradientTransform="translate(-1712.27 68.58) rotate(90.37)" gradientUnits="userSpaceOnUse"><stop offset="0" stop-color="#d05400"/><stop offset="0.36" stop-color="#e75c00"/><stop offset="0.72" stop-color="#f86100"/><stop offset="1" stop-color="#fe6300"/></linearGradient><radialGradient id="radial-gradient-3" cx="50.6" cy="-2044.89" r="43.14" gradientTransform="translate(382.86 -1912.57) rotate(180)" gradientUnits="userSpaceOnUse"><stop offset="0" stop-color="#00a3bf"/><stop offset="1" stop-color="#0089b5"/></radialGradient><linearGradient id="linear-gradient-5" x1="-17.22" y1="-2064.36" x2="17.19" y2="-2060.15" gradientTransform="translate(-1712.27 68.58) rotate(90.37)" gradientUnits="userSpaceOnUse"><stop offset="0" stop-color="#0094c2"/><stop offset="0.44" stop-color="#009dc0"/><stop offset="1" stop-color="#00a3bf"/></linearGradient><linearGradient id="linear-gradient-6" x1="31.51" y1="-2113.7" x2="34.46" y2="-2076.07" xlink:href="#linear-gradient-5"/><radialGradient id="radial-gradient-4" cx="-14.16" cy="-2044.89" r="39.73" gradientTransform="translate(318.51 -1977.33) rotate(180)" gradientUnits="userSpaceOnUse"><stop offset="0" stop-color="#afce22"/><stop offset="1" stop-color="#81bf2e"/></radialGradient><linearGradient id="linear-gradient-7" x1="-81.98" y1="-2064.36" x2="-47.57" y2="-2060.15" gradientTransform="translate(-1712.27 68.58) rotate(90.37)" gradientUnits="userSpaceOnUse"><stop offset="0" stop-color="#81bf2e"/><stop offset="0.36" stop-color="#98c728"/><stop offset="0.72" stop-color="#a9cc24"/><stop offset="1" stop-color="#afce22"/></linearGradient><linearGradient id="linear-gradient-8" x1="-33.25" y1="-2113.7" x2="-30.3" y2="-2076.07" xlink:href="#linear-gradient-7"/></defs><title>balance</title><polygon class="cls-1" points="409.69 165.2 0.08 162.56 50.57 99.89 439.11 102.93 409.69 165.2"/><rect class="cls-2" x="0.04" y="163.88" width="409.62" height="12.98" transform="translate(1.1 -1.31) rotate(0.37)"/><rect class="cls-3" x="0.04" y="163.88" width="409.62" height="12.98" transform="translate(1.1 -1.31) rotate(0.37)"/><polygon class="cls-4" points="439.08 114.4 409.61 178.18 409.69 165.2 439.11 102.93 439.08 114.4"/><polygon class="cls-3" points="439.08 114.4 409.61 178.18 409.69 165.2 439.11 102.93 439.08 114.4"/><polygon class="cls-3" points="439.08 114.4 409.61 178.18 409.69 165.2 439.11 102.93 439.08 114.4"/><rect class="cls-5" x="32.95" y="78.09" width="84.96" height="84.96" transform="translate(-45.62 195.23) rotate(-89.63)"/><polygon class="cls-6" points="95.67 15.37 33.23 77.82 118.19 78.36 180.63 15.92 95.67 15.37"/><polygon class="cls-7" points="180.63 15.92 118.19 78.36 117.64 163.32 180.09 100.88 180.63 15.92"/><rect class="cls-8" x="299.88" y="99.94" width="64.76" height="64.76" transform="translate(197.81 463.72) rotate(-89.63)"/><polygon class="cls-9" points="334.89 64.76 300.08 99.73 364.85 100.14 399.65 65.18 334.89 64.76"/><polygon class="cls-10" points="399.65 65.18 364.85 100.14 364.43 164.91 399.23 129.94 399.65 65.18"/><rect class="cls-11" x="300.29" y="35.17" width="64.76" height="64.76" transform="translate(262.98 399.79) rotate(-89.63)"/><polygon class="cls-12" points="335.31 0 300.5 34.97 365.26 35.38 400.07 0.42 335.31 0"/><polygon class="cls-13" points="400.07 0.42 365.26 35.38 364.85 100.14 399.65 65.18 400.07 0.42"/></svg>