<svg id="Layer_1" data-name="Layer 1" xmlns="http://www.w3.org/2000/svg" xmlns:xlink="http://www.w3.org/1999/xlink" viewBox="0 0 439.11 257.46"><defs><radialGradient id="radial-gradient" cx="196.5" cy="32.38" r="30.86" gradientTransform="matrix(1, 0, 0, -1, 0, 260)" gradientUnits="userSpaceOnUse"><stop offset="0" stop-color="#9d50d6"/><stop offset="1" stop-color="#893fbf"/></radialGradient><linearGradient id="linear-gradient" x1="263.31" y1="97.36" x2="220.19" y2="40.36" gradientTransform="matrix(1, 0, 0, -1, 0, 260)" gradientUnits="userSpaceOnUse"><stop offset="0" stop-color="#893fbf"/><stop offset="1" stop-color="#9d50d6"/></linearGradient><radialGradient id="radial-gradient-2" cx="224.99" cy="234.35" r="156.67" gradientTransform="matrix(1, 0.01, 0.01, -1, -6.9, 365.37)" xlink:href="#radial-gradient"/><linearGradient id="linear-gradient-2" x1="5.68" y1="196.35" x2="415.3" y2="196.35" gradientTransform="matrix(0, 1, 1, 0, 8.49, -40.11)" xlink:href="#linear-gradient"/><linearGradient id="linear-gradient-3" x1="415.29" y1="227.59" x2="444.35" y2="227.59" gradientTransform="matrix(1, 0.01, 0.01, -1, -6.9, 365.37)" xlink:href="#linear-gradient"/><radialGradient id="radial-gradient-3" cx="220.45" cy="2403.71" r="76.55" gradientTransform="matrix(-1, 0, 0, 1, 295.88, -2283.13)" gradientUnits="userSpaceOnUse"><stop offset="0" stop-color="#ff6300"/><stop offset="0.25" stop-color="#f96100"/><stop offset="0.57" stop-color="#e95c00"/><stop offset="0.93" stop-color="#cf5300"/><stop offset="1" stop-color="#c95100"/></radialGradient><linearGradient id="linear-gradient-4" x1="116.07" y1="2438.45" x2="174.81" y2="2431.25" gradientTransform="matrix(-0.01, 1, 1, 0.01, -2326.8, -115.33)" gradientUnits="userSpaceOnUse"><stop offset="0" stop-color="#d45500"/><stop offset="0.32" stop-color="#e75b00"/><stop offset="0.71" stop-color="#f86100"/><stop offset="1" stop-color="#fe6300"/></linearGradient><linearGradient id="linear-gradient-5" x1="186.35" y1="2510.42" x2="191.48" y2="2445.09" gradientTransform="matrix(-0.01, 1, 1, 0.01, -2326.8, -115.33)" gradientUnits="userSpaceOnUse"><stop offset="0" stop-color="#d05400"/><stop offset="0.36" stop-color="#e75c00"/><stop offset="0.72" stop-color="#f86100"/><stop offset="1" stop-color="#fe6300"/></linearGradient><radialGradient id="radial-gradient-4" cx="230.54" cy="2660.6" r="43.14" gradientTransform="matrix(-1, 0, 0, 1, 562.81, -2528.27)" gradientUnits="userSpaceOnUse"><stop offset="0" stop-color="#00a3bf"/><stop offset="1" stop-color="#0089b5"/></radialGradient><linearGradient id="linear-gradient-6" x1="162.71" y1="2680.06" x2="197.11" y2="2675.85" gradientTransform="matrix(-0.01, 1, 1, 0.01, -2326.8, -115.33)" gradientUnits="userSpaceOnUse"><stop offset="0" stop-color="#0094c2"/><stop offset="0.44" stop-color="#009dc0"/><stop offset="1" stop-color="#00a3bf"/></linearGradient><linearGradient id="linear-gradient-7" x1="211.37" y1="2729.4" x2="214.33" y2="2691.76" xlink:href="#linear-gradient-6"/><radialGradient id="radial-gradient-5" cx="165.78" cy="2660.59" r="39.74" gradientTransform="matrix(-1, 0, 0, 1, 498.45, -2593.02)" gradientUnits="userSpaceOnUse"><stop offset="0" stop-color="#afce22"/><stop offset="1" stop-color="#81bf2e"/></radialGradient><linearGradient id="linear-gradient-8" x1="97.95" y1="2680.06" x2="132.36" y2="2675.85" gradientTransform="matrix(-0.01, 1, 1, 0.01, -2326.8, -115.33)" gradientUnits="userSpaceOnUse"><stop offset="0" stop-color="#81bf2e"/><stop offset="0.36" stop-color="#98c728"/><stop offset="0.72" stop-color="#a9cc24"/><stop offset="1" stop-color="#afce22"/></linearGradient><linearGradient id="linear-gradient-9" x1="146.61" y1="2729.4" x2="149.56" y2="2691.76" xlink:href="#linear-gradient-8"/></defs><title>balanceEmpty</title><polygon points="197.57 177.33 244.6 257.46 147.01 257.46 197.57 177.33" fill="url(#radial-gradient)"/><polygon points="292.41 196.38 244.6 257.46 197.57 177.33 247.43 138.94 292.41 196.38" fill="url(#linear-gradient)"/><polygon points="409.69 165.2 0.08 162.56 50.57 99.89 439.11 102.93 409.69 165.2" fill="url(#radial-gradient-2)"/><rect x="198.36" y="-34.43" width="12.98" height="409.62" transform="matrix(0.01, -1, 1, 0.01, 33.15, 374.12)" fill="url(#linear-gradient-2)"/><rect x="198.36" y="-34.43" width="12.98" height="409.62" transform="matrix(0.01, -1, 1, 0.01, 33.15, 374.12)" opacity="0.1" style="isolation:isolate"/><polygon points="439.08 114.4 409.61 178.18 409.69 165.2 439.11 102.93 439.08 114.4" fill="url(#linear-gradient-3)"/><polygon points="439.08 114.4 409.61 178.18 409.69 165.2 439.11 102.93 439.08 114.4" opacity="0.1" style="isolation:isolate"/><polygon points="439.08 114.4 409.61 178.18 409.69 165.2 439.11 102.93 439.08 114.4" opacity="0.1" style="isolation:isolate"/><rect x="32.95" y="78.1" width="84.96" height="84.96" transform="translate(-45.63 195.23) rotate(-89.63)" fill="url(#radial-gradient-3)"/><polygon points="95.67 15.37 33.23 77.82 118.19 78.36 180.63 15.92 95.67 15.37" fill="url(#linear-gradient-4)"/><polygon points="180.63 15.92 118.19 78.36 117.64 163.32 180.09 100.88 180.63 15.92" fill="url(#linear-gradient-5)"/><rect x="299.89" y="99.94" width="64.76" height="64.76" transform="translate(197.81 463.73) rotate(-89.63)" fill="url(#radial-gradient-4)"/><polygon points="334.89 64.76 300.08 99.73 364.85 100.14 399.65 65.18 334.89 64.76" fill="url(#linear-gradient-6)"/><polygon points="399.65 65.18 364.85 100.14 364.43 164.91 399.23 129.94 399.65 65.18" fill="url(#linear-gradient-7)"/><rect x="300.3" y="35.18" width="64.76" height="64.76" transform="translate(262.97 399.8) rotate(-89.63)" fill="url(#radial-gradient-5)"/><path d="M304.55,39.07l-.36,56.61L360.8,96l.36-56.61ZM359.78,95l-54.57-.35.35-54.57,54.57.35Z" transform="translate(0)" opacity="0.5" style="isolation:isolate"/><polygon points="335.31 0 300.5 34.97 365.26 35.38 400.07 0.42 335.31 0" fill="url(#linear-gradient-8)"/><polygon points="400.07 0.42 365.26 35.38 364.85 100.14 399.65 65.18 400.07 0.42" fill="url(#linear-gradient-9)"/></svg>