<svg id="Layer_1" data-name="Layer 1" xmlns="http://www.w3.org/2000/svg" xmlns:xlink="http://www.w3.org/1999/xlink" viewBox="0 0 62.65 62.65"><defs><style>.cls-1{fill:#73adff;}.cls-2{fill:#808184;}.cls-3{fill:url(#linear-gradient);}.cls-4{fill:#d4cedb;}.cls-5{fill:#000009;}.cls-6{fill:#bcdef7;}.cls-7{fill:url(#linear-gradient-2);}.cls-8,.cls-9{opacity:0.5;}.cls-8{fill:url(#linear-gradient-3);}.cls-9{fill:url(#linear-gradient-4);}.cls-10{font-size:10px;font-family:Poppins-Regular, Poppins;}.cls-11{fill:#fff;}.cls-12{fill:#fbfbfb;}.cls-13{fill:#f8f8f8;}.cls-14{fill:#f4f4f4;}.cls-15{fill:#f1f1f1;}.cls-16{fill:#ededed;}.cls-17{fill:#e9e9e9;}.cls-18{fill:#e6e6e6;}.cls-19{fill:#e2e2e2;}.cls-20{fill:#dedede;}.cls-21{fill:#dbdbdb;}.cls-22{fill:#d7d7d7;}.cls-23{fill:#d4d4d4;}.cls-24{fill:#d0d0d0;}.cls-25{fill:#ccc;}.cls-26{fill:#c9c9c9;}.cls-27{fill:#c5c5c5;}.cls-28{fill:#c1c1c1;}.cls-29{fill:#bebebe;}.cls-30{fill:#bababa;}.cls-31{fill:#b7b7b7;}.cls-32{fill:#b3b3b3;}.cls-33{fill:url(#linear-gradient-5);}.cls-34{fill:url(#linear-gradient-6);}.cls-35{fill:url(#linear-gradient-7);}.cls-36{fill:url(#linear-gradient-8);}.cls-37{fill:#202020;}.cls-38{fill:url(#linear-gradient-9);}.cls-39{fill:url(#linear-gradient-10);}.cls-40{fill:url(#linear-gradient-11);}.cls-41{fill:url(#linear-gradient-12);}.cls-42{fill:url(#linear-gradient-13);}.cls-43{fill:url(#linear-gradient-14);}.cls-44{fill:url(#linear-gradient-15);}.cls-45{fill:url(#linear-gradient-16);}.cls-46{fill:#303030;}.cls-47{fill:url(#linear-gradient-17);}.cls-48{fill:url(#linear-gradient-18);}.cls-49{fill:#101010;}.cls-50{fill:url(#linear-gradient-19);}.cls-51{fill:url(#linear-gradient-20);}.cls-52{fill:url(#linear-gradient-21);}.cls-53{fill:url(#linear-gradient-22);}.cls-54{fill:url(#linear-gradient-23);}.cls-55{fill:url(#linear-gradient-24);}.cls-56{fill:none;}.cls-57{fill:url(#radial-gradient);}.cls-58{fill:url(#radial-gradient-2);}.cls-59{fill:url(#radial-gradient-3);}.cls-60{fill:url(#radial-gradient-4);}.cls-61{fill:url(#radial-gradient-5);}.cls-62{fill:url(#radial-gradient-6);}.cls-63{fill:url(#radial-gradient-7);}.cls-64{fill:url(#radial-gradient-8);}.cls-65{fill:url(#radial-gradient-9);}.cls-66{fill:url(#radial-gradient-10);}.cls-67{fill:url(#radial-gradient-11);}.cls-68{fill:url(#radial-gradient-12);}.cls-69{fill:url(#radial-gradient-13);}.cls-70{fill:url(#radial-gradient-14);}.cls-71{fill:url(#radial-gradient-15);}.cls-72{fill:url(#radial-gradient-16);}.cls-73{fill:url(#radial-gradient-17);}.cls-74{fill:url(#radial-gradient-18);}.cls-75{fill:url(#radial-gradient-19);}.cls-76{fill:url(#radial-gradient-20);}.cls-77{fill:url(#radial-gradient-21);}.cls-78{fill:url(#radial-gradient-22);}</style><linearGradient id="linear-gradient" x1="9.33" y1="53.32" x2="52.39" y2="10.26" gradientUnits="userSpaceOnUse"><stop offset="0" stop-color="#babcbf" stop-opacity="0"/><stop offset="1" stop-color="#b8bcc1"/></linearGradient><linearGradient id="linear-gradient-2" x1="31.33" y1="4.07" x2="31.33" y2="52.18" gradientUnits="userSpaceOnUse"><stop offset="0" stop-color="#89b8e4" stop-opacity="0"/><stop offset="1" stop-color="#a0c3e4"/></linearGradient><linearGradient id="linear-gradient-3" x1="28.65" y1="28.74" x2="12.07" y2="10.57" gradientUnits="userSpaceOnUse"><stop offset="0" stop-color="#e2f3ff" stop-opacity="0.1"/><stop offset="1" stop-color="#e2f3ff"/></linearGradient><linearGradient id="linear-gradient-4" x1="36.51" y1="36.51" x2="59.07" y2="59.07" xlink:href="#linear-gradient-3"/><linearGradient id="linear-gradient-5" x1="-1681.91" y1="12.71" x2="-1679.24" y2="8.28" gradientTransform="translate(9.87 1692.71) rotate(90.63)" gradientUnits="userSpaceOnUse"><stop offset="0" stop-color="#505050"/><stop offset="1" stop-color="#303030"/></linearGradient><linearGradient id="linear-gradient-6" x1="-1498.82" y1="-45.32" x2="-1495.49" y2="-48.78" gradientTransform="translate(215.32 1497.04) rotate(80.63)" gradientUnits="userSpaceOnUse"><stop offset="0" stop-color="#a7a7a7"/><stop offset="1" stop-color="#404040"/></linearGradient><linearGradient id="linear-gradient-7" x1="-1679.38" y1="8.34" x2="-1677.28" y2="1.88" gradientTransform="translate(9.87 1692.71) rotate(90.63)" gradientUnits="userSpaceOnUse"><stop offset="0" stop-color="#404040"/><stop offset="1" stop-color="#202020"/></linearGradient><linearGradient id="linear-gradient-8" x1="-1679.47" y1="7.9" x2="-1677.38" y2="1.66" gradientTransform="translate(9.87 1692.71) rotate(90.63)" gradientUnits="userSpaceOnUse"><stop offset="0" stop-color="#9f9f9f"/><stop offset="1" stop-color="#303030"/></linearGradient><linearGradient id="linear-gradient-9" x1="-1678.7" y1="-16.75" x2="-1677.27" y2="-13.99" xlink:href="#linear-gradient-5"/><linearGradient id="linear-gradient-10" x1="-1678.51" y1="-16.73" x2="-1677.17" y2="-13.77" gradientTransform="translate(9.87 1692.71) rotate(90.63)" xlink:href="#linear-gradient-6"/><linearGradient id="linear-gradient-11" x1="-1677.59" y1="-14.08" x2="-1675.67" y2="-9.36" xlink:href="#linear-gradient-7"/><linearGradient id="linear-gradient-12" x1="-1624.99" y1="-37.17" x2="-1623.95" y2="-32.8" gradientTransform="matrix(0.05, 1, -1, 0.05, 88.15, 1640.57)" xlink:href="#linear-gradient-8"/><linearGradient id="linear-gradient-13" x1="-1682.99" y1="1.19" x2="-1679.94" y2="-1.55" xlink:href="#linear-gradient-5"/><linearGradient id="linear-gradient-14" x1="-1601.29" y1="-31.87" x2="-1598.3" y2="-33.97" gradientTransform="translate(117.71 1609.1) rotate(85.63)" xlink:href="#linear-gradient-6"/><linearGradient id="linear-gradient-15" x1="-1679.88" y1="-1.44" x2="-1676.84" y2="-4.01" xlink:href="#linear-gradient-7"/><linearGradient id="linear-gradient-16" x1="-1680.03" y1="-1.78" x2="-1676.83" y2="-4.1" xlink:href="#linear-gradient-8"/><linearGradient id="linear-gradient-17" x1="-1821.94" y1="138.9" x2="-1825.28" y2="135.54" gradientTransform="translate(-183.86 1853.84) rotate(100.63)" gradientUnits="userSpaceOnUse"><stop offset="0" stop-color="#979797"/><stop offset="1" stop-color="#303030"/></linearGradient><linearGradient id="linear-gradient-18" x1="-1657.4" y1="8.04" x2="-1659.63" y2="1.75" gradientTransform="translate(9.87 1692.71) rotate(90.63)" gradientUnits="userSpaceOnUse"><stop offset="0" stop-color="#6a6a6a"/><stop offset="1" stop-color="#202020"/></linearGradient><linearGradient id="linear-gradient-19" x1="-1658.53" y1="-16.75" x2="-1659.89" y2="-13.94" gradientTransform="translate(9.87 1692.71) rotate(90.63)" xlink:href="#linear-gradient-17"/><linearGradient id="linear-gradient-20" x1="-1679.87" y1="0.8" x2="-1681.4" y2="5.29" gradientTransform="translate(-17.71 1712.26) rotate(92.06)" xlink:href="#linear-gradient-18"/><linearGradient id="linear-gradient-21" x1="-1731.74" y1="53.3" x2="-1735.03" y2="51" gradientTransform="translate(-89.85 1767.4) rotate(95.63)" xlink:href="#linear-gradient-17"/><linearGradient id="linear-gradient-22" x1="-1656.98" y1="-2.19" x2="-1660.12" y2="-4.02" xlink:href="#linear-gradient-18"/><linearGradient id="linear-gradient-23" x1="-1663.5" y1="-18.62" x2="-1666.36" y2="-15.9" gradientTransform="translate(9.87 1692.71) rotate(90.63)" gradientUnits="userSpaceOnUse"><stop offset="0" stop-color="#404040"/><stop offset="1" stop-color="#303030"/></linearGradient><linearGradient id="linear-gradient-24" x1="-1672.81" y1="-18.47" x2="-1670.46" y2="-15.87" xlink:href="#linear-gradient-23"/><radialGradient id="radial-gradient" cx="-2241.77" cy="71.27" r="8" gradientTransform="matrix(-0.01, 0.68, -1.04, -0.01, 97.11, 1558.11)" gradientUnits="userSpaceOnUse"><stop offset="0" stop-color="#484848"/><stop offset="0.17" stop-color="#444"/><stop offset="0.35" stop-color="#373737"/><stop offset="0.53" stop-color="#232323"/><stop offset="0.72" stop-color="#060606"/><stop offset="0.75"/><stop offset="0.83" stop-color="#070707"/><stop offset="0.95" stop-color="#1b1b1b"/><stop offset="1" stop-color="#242424"/></radialGradient><radialGradient id="radial-gradient-2" cx="-2241.77" cy="71.27" r="8" gradientTransform="matrix(-0.01, 0.68, -1.04, -0.01, 97.11, 1558.11)" gradientUnits="userSpaceOnUse"><stop offset="0" stop-color="#fff"/><stop offset="0.75"/><stop offset="0.83" stop-color="#070707"/><stop offset="0.95" stop-color="#1b1b1b"/><stop offset="1" stop-color="#242424"/></radialGradient><radialGradient id="radial-gradient-3" cx="-2241.77" cy="71.27" r="8" gradientTransform="matrix(-0.01, 0.68, -1.04, -0.01, 97.11, 1558.11)" gradientUnits="userSpaceOnUse"><stop offset="0" stop-color="#484848"/><stop offset="0.21" stop-color="#444"/><stop offset="0.43" stop-color="#373737"/><stop offset="0.66" stop-color="#232323"/><stop offset="0.75" stop-color="#181818"/><stop offset="0.8" stop-color="#1f1f1f"/><stop offset="0.88" stop-color="#333"/><stop offset="0.97" stop-color="#535353"/><stop offset="1" stop-color="#606060"/></radialGradient><radialGradient id="radial-gradient-4" cx="-140.75" cy="252.35" r="0.09" gradientTransform="matrix(-0.63, 57.73, 87.74, 0.96, -22189.53, 7904.87)" gradientUnits="userSpaceOnUse"><stop offset="0" stop-color="#ddd"/><stop offset="0.4" stop-color="#d9d9d9"/><stop offset="0.75" stop-color="#cfcfcf"/><stop offset="1" stop-color="#d6d6d6"/><stop offset="1" stop-color="#d6d6d6"/></radialGradient><radialGradient id="radial-gradient-5" cx="-140.75" cy="252.35" r="0.09" gradientTransform="matrix(-0.63, 57.73, 87.74, 0.96, -22189.53, 7904.87)" gradientUnits="userSpaceOnUse"><stop offset="0" stop-color="#e9e9e9"/><stop offset="0.5" stop-color="#e5e5e5"/><stop offset="0.75" stop-color="#e0e0e0"/><stop offset="1" stop-color="#e4e4e4"/></radialGradient><radialGradient id="radial-gradient-6" cx="-140.74" cy="252.34" r="0.09" gradientTransform="matrix(-0.63, 57.73, 87.74, 0.96, -22189.32, 7904.18)" gradientUnits="userSpaceOnUse"><stop offset="0" stop-color="#e1e1e1"/><stop offset="0.57" stop-color="#ddd"/><stop offset="0.75" stop-color="#dadada"/><stop offset="0.93" stop-color="#e1e1e1"/><stop offset="1" stop-color="#e5e5e5"/></radialGradient><radialGradient id="radial-gradient-7" cx="-140.75" cy="252.34" r="0.1" gradientTransform="matrix(-0.63, 57.73, 87.74, 0.96, -22189.53, 7904.87)" gradientUnits="userSpaceOnUse"><stop offset="0" stop-color="#fff"/><stop offset="0.75" stop-color="#f0f0f0"/><stop offset="1" stop-color="#f2f2f2"/></radialGradient><radialGradient id="radial-gradient-8" cx="-2243.87" cy="-296.84" r="16.44" gradientTransform="matrix(-0.01, 0.68, -0.69, -0.01, -193.72, 1554.91)" gradientUnits="userSpaceOnUse"><stop offset="0" stop-color="#3f3f3f"/><stop offset="0.19" stop-color="#3b3b3b"/><stop offset="0.38" stop-color="#2e2e2e"/><stop offset="0.57" stop-color="#1a1a1a"/><stop offset="0.75"/><stop offset="0.81" stop-color="#070707"/><stop offset="0.9" stop-color="#1b1b1b"/><stop offset="1" stop-color="#383838"/></radialGradient><radialGradient id="radial-gradient-9" cx="-156.43" cy="253.59" r="0.09" gradientTransform="matrix(-1.3, 118.7, 120.27, 1.32, -30675.5, 18254.22)" gradientUnits="userSpaceOnUse"><stop offset="0" stop-color="#202020"/><stop offset="0.26" stop-color="#1c1c1c"/><stop offset="0.54" stop-color="#0f0f0f"/><stop offset="0.75"/><stop offset="0.83" stop-color="#070707"/><stop offset="0.95" stop-color="#191919"/><stop offset="1" stop-color="#242424"/></radialGradient><radialGradient id="radial-gradient-10" cx="-2244.52" cy="-306.72" r="16.39" gradientTransform="matrix(-0.01, 0.68, -0.69, -0.01, -193.72, 1554.91)" gradientUnits="userSpaceOnUse"><stop offset="0" stop-color="#606060"/><stop offset="0.15" stop-color="#5c5c5c"/><stop offset="0.3" stop-color="#4f4f4f"/><stop offset="0.46" stop-color="#3b3b3b"/><stop offset="0.62" stop-color="#1e1e1e"/><stop offset="0.75"/><stop offset="0.82" stop-color="#070707"/><stop offset="0.92" stop-color="#1b1b1b"/><stop offset="1" stop-color="#303030"/></radialGradient><radialGradient id="radial-gradient-11" cx="-2244.52" cy="-306.72" r="16.39" gradientTransform="matrix(-0.01, 0.68, -0.69, -0.01, -193.72, 1554.91)" gradientUnits="userSpaceOnUse"><stop offset="0" stop-color="#606060"/><stop offset="0.17" stop-color="#5c5c5c"/><stop offset="0.35" stop-color="#4f4f4f"/><stop offset="0.53" stop-color="#3b3b3b"/><stop offset="0.72" stop-color="#1e1e1e"/><stop offset="0.75" stop-color="#181818"/><stop offset="0.8" stop-color="#1f1f1f"/><stop offset="0.88" stop-color="#333"/><stop offset="0.97" stop-color="#535353"/><stop offset="1" stop-color="#606060"/></radialGradient><radialGradient id="radial-gradient-12" cx="-2244.52" cy="-306.72" r="16.39" gradientTransform="matrix(-0.01, 0.68, -0.69, -0.01, -193.72, 1554.91)" gradientUnits="userSpaceOnUse"><stop offset="0.05" stop-color="#fff"/><stop offset="0.75"/><stop offset="0.82" stop-color="#070707"/><stop offset="0.92" stop-color="#1b1b1b"/><stop offset="1" stop-color="#303030"/></radialGradient><radialGradient id="radial-gradient-13" cx="-2244.52" cy="-306.72" r="16.39" gradientTransform="matrix(-0.01, 0.68, -0.69, -0.01, -193.72, 1554.91)" gradientUnits="userSpaceOnUse"><stop offset="0" stop-color="#606060"/><stop offset="0.17" stop-color="#5c5c5c"/><stop offset="0.35" stop-color="#4f4f4f"/><stop offset="0.53" stop-color="#3b3b3b"/><stop offset="0.72" stop-color="#1e1e1e"/><stop offset="0.75" stop-color="#181818"/><stop offset="0.86" stop-color="#1f1f1f"/><stop offset="1" stop-color="#303030"/></radialGradient><radialGradient id="radial-gradient-14" cx="-2203.85" cy="-17.42" r="16.39" gradientTransform="matrix(-0.01, 0.73, -0.89, -0.01, -3.34, 1620.14)" gradientUnits="userSpaceOnUse"><stop offset="0" stop-color="#4d4d4d"/><stop offset="0.23" stop-color="#494949"/><stop offset="0.47" stop-color="#3c3c3c"/><stop offset="0.7" stop-color="#282828"/><stop offset="0.75" stop-color="#232323"/><stop offset="0.86" stop-color="#2a2a2a"/><stop offset="1" stop-color="#3c3c3c"/></radialGradient><radialGradient id="radial-gradient-15" cx="-2203.85" cy="-17.42" r="16.39" gradientTransform="matrix(-0.01, 0.73, -0.89, -0.01, -3.34, 1620.14)" gradientUnits="userSpaceOnUse"><stop offset="0.05" stop-color="#9e9e9e"/><stop offset="0.75" stop-color="#232323"/><stop offset="0.86" stop-color="#2a2a2a"/><stop offset="1" stop-color="#3c3c3c"/></radialGradient><radialGradient id="radial-gradient-16" cx="-2134.14" cy="163.42" r="16.39" gradientTransform="matrix(0.04, 0.73, -0.89, 0.04, 251.69, 1560.81)" gradientUnits="userSpaceOnUse"><stop offset="0" stop-color="#292929"/><stop offset="0.35" stop-color="#252525"/><stop offset="0.72" stop-color="#181818"/><stop offset="0.75" stop-color="#171717"/><stop offset="0.87" stop-color="#1e1e1e"/><stop offset="1" stop-color="#2b2b2b"/></radialGradient><radialGradient id="radial-gradient-17" cx="-2134.14" cy="163.42" r="16.39" gradientTransform="matrix(0.04, 0.73, -0.89, 0.04, 251.69, 1560.81)" gradientUnits="userSpaceOnUse"><stop offset="0.05" stop-color="#bcbcbc"/><stop offset="0.75" stop-color="#232323"/><stop offset="0.86" stop-color="#2a2a2a"/><stop offset="1" stop-color="#3c3c3c"/></radialGradient><radialGradient id="radial-gradient-18" cx="-2134.14" cy="163.42" r="16.39" gradientTransform="matrix(0.04, 0.73, -0.89, 0.04, 251.69, 1560.81)" gradientUnits="userSpaceOnUse"><stop offset="0" stop-color="#363636"/><stop offset="0.33" stop-color="#323232"/><stop offset="0.66" stop-color="#252525"/><stop offset="0.75" stop-color="#212121"/><stop offset="0.98" stop-color="#282828"/><stop offset="1" stop-color="#292929"/></radialGradient><radialGradient id="radial-gradient-19" cx="-2134.14" cy="163.42" r="16.39" gradientTransform="matrix(0.04, 0.73, -0.89, 0.04, 251.69, 1560.81)" gradientUnits="userSpaceOnUse"><stop offset="0" stop-color="#565656"/><stop offset="0.24" stop-color="#525252"/><stop offset="0.49" stop-color="#454545"/><stop offset="0.74" stop-color="#313131"/><stop offset="0.75" stop-color="#303030"/><stop offset="0.92" stop-color="#373737"/><stop offset="1" stop-color="#3c3c3c"/></radialGradient><radialGradient id="radial-gradient-20" cx="-2134.29" cy="163.61" r="16.59" xlink:href="#radial-gradient-19"/><radialGradient id="radial-gradient-21" cx="-2287.07" cy="-198.42" r="16.39" gradientTransform="matrix(-0.05, 0.72, -0.88, -0.06, -265.41, 1663.61)" gradientUnits="userSpaceOnUse"><stop offset="0" stop-color="#383838"/><stop offset="0.26" stop-color="#343434"/><stop offset="0.53" stop-color="#272727"/><stop offset="0.75" stop-color="#171717"/><stop offset="0.87" stop-color="#1e1e1e"/><stop offset="1" stop-color="#2b2b2b"/></radialGradient><radialGradient id="radial-gradient-22" cx="-2287.07" cy="-198.42" r="16.39" gradientTransform="matrix(-0.05, 0.72, -0.88, -0.06, -265.41, 1663.61)" xlink:href="#radial-gradient-17"/></defs><title>left-icon-after</title><path class="cls-1" d="M31.33,58.35a27,27,0,1,1,27-27A27.05,27.05,0,0,1,31.33,58.35Z"/><path class="cls-2" d="M31.33,62.65A31.33,31.33,0,1,1,62.65,31.33,31.36,31.36,0,0,1,31.33,62.65Z"/><path class="cls-3" d="M31.33,62.65A31.33,31.33,0,1,1,62.65,31.33,31.36,31.36,0,0,1,31.33,62.65Z"/><path class="cls-4" d="M31.33,59.78A28.46,28.46,0,1,1,59.78,31.33,28.49,28.49,0,0,1,31.33,59.78Z"/><path class="cls-5" d="M31.33,59.3a28,28,0,1,1,28-28A28,28,0,0,1,31.33,59.3Z"/><path class="cls-6" d="M31.33,58.59A27.26,27.26,0,1,1,58.59,31.33,27.29,27.29,0,0,1,31.33,58.59Z"/><circle class="cls-7" cx="31.33" cy="31.33" r="26.78"/><path class="cls-8" d="M30.14,28.55V7.2A24.16,24.16,0,0,0,7.33,28.55Z"/><path class="cls-9" d="M47.17,13.09A24.15,24.15,0,0,1,13.09,47.17,24.15,24.15,0,1,0,47.17,13.09Z"/><text class="cls-10" transform="translate(12.43 48.29) scale(0.99 1)">In order</text><ellipse class="cls-11" cx="17.43" cy="12.59" rx="0.44" ry="2.57" transform="translate(-3.87 15.53) rotate(-43.69)"/><ellipse class="cls-12" cx="17.4" cy="12.55" rx="0.43" ry="2.52" transform="translate(-3.85 15.49) rotate(-43.69)"/><ellipse class="cls-13" cx="17.37" cy="12.52" rx="0.42" ry="2.47" transform="translate(-3.84 15.46) rotate(-43.69)"/><ellipse class="cls-14" cx="17.33" cy="12.48" rx="0.41" ry="2.43" transform="translate(-3.82 15.43) rotate(-43.69)"/><ellipse class="cls-15" cx="17.3" cy="12.45" rx="0.41" ry="2.38" transform="translate(-3.81 15.4) rotate(-43.69)"/><ellipse class="cls-16" cx="17.27" cy="12.41" rx="0.4" ry="2.33" transform="translate(-3.79 15.36) rotate(-43.69)"/><ellipse class="cls-17" cx="17.23" cy="12.38" rx="0.39" ry="2.28" transform="translate(-3.78 15.33) rotate(-43.69)"/><ellipse class="cls-18" cx="17.2" cy="12.34" rx="0.39" ry="2.23" transform="translate(-3.76 15.3) rotate(-43.69)"/><ellipse class="cls-19" cx="17.17" cy="12.31" rx="0.38" ry="2.18" transform="translate(-3.75 15.27) rotate(-43.69)"/><ellipse class="cls-20" cx="17.13" cy="12.27" rx="0.37" ry="2.14" transform="translate(-3.73 15.23) rotate(-43.69)"/><ellipse class="cls-21" cx="17.1" cy="12.24" rx="0.36" ry="2.09" transform="translate(-3.72 15.2) rotate(-43.69)"/><ellipse class="cls-22" cx="17.07" cy="12.2" rx="0.36" ry="2.04" transform="translate(-3.7 15.17) rotate(-43.69)"/><ellipse class="cls-23" cx="17.03" cy="12.17" rx="0.35" ry="1.99" transform="translate(-3.69 15.13) rotate(-43.69)"/><ellipse class="cls-24" cx="17" cy="12.13" rx="0.34" ry="1.94" transform="translate(-3.67 15.1) rotate(-43.69)"/><ellipse class="cls-25" cx="16.96" cy="12.1" rx="0.34" ry="1.89" transform="translate(-3.66 15.07) rotate(-43.69)"/><ellipse class="cls-26" cx="16.93" cy="12.06" rx="0.33" ry="1.85" transform="translate(-3.64 15.04) rotate(-43.69)"/><ellipse class="cls-27" cx="16.9" cy="12.03" rx="0.32" ry="1.8" transform="translate(-3.63 15) rotate(-43.69)"/><ellipse class="cls-28" cx="16.86" cy="11.99" rx="0.31" ry="1.75" transform="translate(-3.61 14.97) rotate(-43.69)"/><ellipse class="cls-29" cx="16.83" cy="11.96" rx="0.31" ry="1.7" transform="translate(-3.6 14.94) rotate(-43.69)"/><ellipse class="cls-30" cx="16.8" cy="11.92" rx="0.3" ry="1.65" transform="translate(-3.58 14.91) rotate(-43.69)"/><ellipse class="cls-31" cx="16.76" cy="11.89" rx="0.29" ry="1.6" transform="translate(-3.57 14.87) rotate(-43.69)"/><ellipse class="cls-32" cx="16.73" cy="11.85" rx="0.29" ry="1.56" transform="translate(-3.55 14.84) rotate(-43.69)"/><path class="cls-33" d="M21.09,14.08s0,0,0,0l-.45.12-.09,0c-.18,0-.22-.25-.36-.37l-.06,0-.08,0-.78-.2a3.45,3.45,0,0,1-.87-.36L17.9,13l-.42-.28a4.28,4.28,0,0,1-.72-.6l-1.19-1.23a.12.12,0,0,1,.07-.21.24.24,0,0,0,.17-.12l.05-.1a.28.28,0,0,1,.48,0l.86,1.24a2,2,0,0,0,.31.35l.59.52.5.31A1.65,1.65,0,0,0,19,13l1.8.5a.37.37,0,0,1,.28.39.68.68,0,0,1,0,.14Z"/><path class="cls-34" d="M20.42,13.48l-.26,0-.57-.13A4.25,4.25,0,0,1,18.7,13l-.21-.1-.31-.21a4.45,4.45,0,0,1-.72-.6l-.38-.4-.77-1.06a.18.18,0,0,0-.27,0,.21.21,0,0,0,0,.3l.82.85.18.19A6.9,6.9,0,0,0,18.5,13.1h0l.61.26,1.45.34a.1.1,0,0,0,.12-.09.12.12,0,0,0-.11-.12Z"/><path class="cls-35" d="M27.34,16.31a.36.36,0,0,0-.11-.49c-.15-.1.05,0-.17-.18a1.36,1.36,0,0,1-.3-.32.87.87,0,0,0-.33-.26.66.66,0,0,1-.33-.27L26,14.52a.17.17,0,0,0-.29,0c-.07.1-.19,0-.24-.11s-.12-.26-.18-.38-.16,0-.25,0h0a.27.27,0,0,1-.2,0c-.13,0-.27-.08-.4-.14-.29-.14-.65-.26-.71-.29s-.27-.09-.39-.16c-.29-.16-.42-.54-.69-.74s-.27,0-.28.2V13a.21.21,0,0,1-.23.17,4.24,4.24,0,0,1-1.24-.34l-.65-.3a.24.24,0,0,0-.34.29l.08.45a.62.62,0,0,1-.09.46,1.41,1.41,0,0,1-.53.43.21.21,0,0,0,0,.36l.1.05.36,0c.1,0,.22.06.22.18s.06.19.13.16a5.78,5.78,0,0,1,.77-.29H21a7.22,7.22,0,0,1,1.6,0c.44.09,1.26.37,1.66.5a2,2,0,0,1,.43.2,20.39,20.39,0,0,0,2.17,1.19A.38.38,0,0,0,27.34,16.31Z"/><path class="cls-36" d="M27.06,16.3a.19.19,0,0,0,0-.27c-.37-.32-.33-.45-.69-.79a1.43,1.43,0,0,0-.26-.19.4.4,0,0,1-.13-.12l0,0c-.06-.09-.21,0-.29-.11h0l-.22-.14a.86.86,0,0,1-.22-.24s-.09-.16-.17-.11a.11.11,0,0,1-.14,0,4.82,4.82,0,0,0-.46-.2L24.16,14a4.45,4.45,0,0,0-.48-.19l-.23-.07a.74.74,0,0,1-.21-.07,1.56,1.56,0,0,1-.16-.14l-.16-.13a1.06,1.06,0,0,0-.12-.13s-.09-.07-.11,0,0,.07,0,.09-.06.16-.16.15l-.86-.18c-.15,0-.32-.07-.61-.16a2.12,2.12,0,0,1-.66-.3c-.07-.05-.15,0-.09.12a.51.51,0,0,1,0,.52.58.58,0,0,1-.16.21c-.12.11,0,.32.16.32h.12a.17.17,0,0,1,.13.06.19.19,0,0,0,.21.06l.59-.22a1.22,1.22,0,0,1,.74,0l1.13.29,1.12.38a4,4,0,0,1,.85.38l.3.18a3.67,3.67,0,0,1,.73.55c.31.31.23.4.55.69A.19.19,0,0,0,27.06,16.3Z"/><path class="cls-37" d="M28.28,18.17a.44.44,0,0,1-.31.57l-.33.09a.61.61,0,0,1-.69-.29l-1.27-2.26a.27.27,0,0,1,.24-.41h.21a.57.57,0,0,0,.4-.16l.36-.35a.29.29,0,0,1,.48.12Z"/><ellipse class="cls-11" cx="43.69" cy="15.65" rx="1.73" ry="0.3" transform="translate(-0.72 29.11) rotate(-36.57)"/><ellipse class="cls-12" cx="43.72" cy="15.63" rx="1.69" ry="0.3" transform="translate(-0.71 29.13) rotate(-36.57)"/><ellipse class="cls-13" cx="43.75" cy="15.61" rx="1.66" ry="0.29" transform="translate(-0.69 29.14) rotate(-36.57)"/><ellipse class="cls-14" cx="43.77" cy="15.59" rx="1.63" ry="0.29" transform="translate(-0.67 29.15) rotate(-36.57)"/><ellipse class="cls-15" cx="43.8" cy="15.57" rx="1.6" ry="0.28" transform="translate(-0.66 29.16) rotate(-36.57)"/><ellipse class="cls-16" cx="43.82" cy="15.55" rx="1.56" ry="0.28" transform="translate(-0.64 29.17) rotate(-36.57)"/><ellipse class="cls-17" cx="43.85" cy="15.53" rx="1.53" ry="0.27" transform="matrix(0.8, -0.6, 0.6, 0.8, -0.62, 29.18)"/><ellipse class="cls-18" cx="43.88" cy="15.52" rx="1.5" ry="0.27" transform="matrix(0.8, -0.6, 0.6, 0.8, -0.61, 29.2)"/><ellipse class="cls-19" cx="43.9" cy="15.5" rx="1.47" ry="0.26" transform="translate(-0.59 29.21) rotate(-36.57)"/><ellipse class="cls-20" cx="43.93" cy="15.48" rx="1.43" ry="0.26" transform="translate(-0.57 29.22) rotate(-36.57)"/><ellipse class="cls-21" cx="43.95" cy="15.46" rx="1.4" ry="0.25" transform="translate(-0.56 29.23) rotate(-36.57)"/><ellipse class="cls-22" cx="43.98" cy="15.44" rx="1.37" ry="0.25" transform="translate(-0.54 29.24) rotate(-36.57)"/><ellipse class="cls-23" cx="44.01" cy="15.42" rx="1.34" ry="0.24" transform="translate(-0.52 29.25) rotate(-36.57)"/><ellipse class="cls-24" cx="44.03" cy="15.4" rx="1.3" ry="0.24" transform="translate(-0.51 29.27) rotate(-36.57)"/><ellipse class="cls-25" cx="44.06" cy="15.38" rx="1.27" ry="0.23" transform="translate(-0.49 29.28) rotate(-36.57)"/><ellipse class="cls-26" cx="44.08" cy="15.36" rx="1.24" ry="0.23" transform="translate(-0.47 29.29) rotate(-36.57)"/><ellipse class="cls-27" cx="44.11" cy="15.34" rx="1.21" ry="0.22" transform="translate(-0.46 29.3) rotate(-36.57)"/><ellipse class="cls-28" cx="44.14" cy="15.32" rx="1.17" ry="0.22" transform="matrix(0.8, -0.6, 0.6, 0.8, -0.44, 29.31)"/><ellipse class="cls-29" cx="44.16" cy="15.3" rx="1.14" ry="0.21" transform="translate(-0.42 29.32) rotate(-36.57)"/><ellipse class="cls-30" cx="44.19" cy="15.28" rx="1.11" ry="0.21" transform="translate(-0.41 29.34) rotate(-36.57)"/><ellipse class="cls-31" cx="44.21" cy="15.26" rx="1.08" ry="0.2" transform="translate(-0.39 29.35) rotate(-36.57)"/><ellipse class="cls-32" cx="44.24" cy="15.24" rx="1.04" ry="0.2" transform="translate(-0.37 29.36) rotate(-36.57)"/><path class="cls-38" d="M45,14.22a.55.55,0,0,0,.21.22.2.2,0,0,1,0,.34l-1,.67-.78.39a2.31,2.31,0,0,1-.89.24l-1.56.1a.29.29,0,0,1-.3-.28.31.31,0,0,1,.29-.32l1.53-.09a1.39,1.39,0,0,0,.45-.1l.61-.26a1,1,0,0,0,.37-.27l.6-.7a.24.24,0,0,1,.4,0Z"/><path class="cls-39" d="M45,14.75a.09.09,0,0,0,0-.14.16.16,0,0,1-.06-.09v0a.09.09,0,0,0-.14,0l-.45.44a2.13,2.13,0,0,1-.64.43l-.38.16a2.43,2.43,0,0,1-.9.2l-1.51,0a.14.14,0,0,0-.14.16A.16.16,0,0,0,41,16L42.28,16a3.26,3.26,0,0,0,.8-.14,3.74,3.74,0,0,0,.75-.32l.6-.34Z"/><path class="cls-40" d="M42.19,15.72c-.05.16-.07.34,0,.44a.9.9,0,0,0,.27.15c.1,0,.13.28,0,.3a.5.5,0,0,0-.39.17.17.17,0,0,0,0,.07.06.06,0,0,1-.06,0c-.33-.06-.5-.09-.84-.18a6.51,6.51,0,0,0-.73-.09c-.27,0-.68,0-.68,0a3.89,3.89,0,0,0-.71.07,4.44,4.44,0,0,0-1,.34,11.73,11.73,0,0,0-1.22.89c-.17.11-.48,0-.65-.25l-.1-.13c-.18-.26-.18-.52,0-.6a4.34,4.34,0,0,0,.81-.41l.06,0c.26-.12.26-.5.64-.38l0,0a7.23,7.23,0,0,1,1-.4c.32-.11.26-.12.52-.37.08-.08.25-.27.3-.05s.28.15.39.08a1.09,1.09,0,0,0,.29-.33c.09-.14.26,0,.29.15a.17.17,0,0,0,.15.15h0a3.84,3.84,0,0,0,1.07-.3c.43-.22.53-.63.67-.39s-.07.57-.16.9l0,.06Z"/><path class="cls-41" d="M37.08,17.59l.28-.27a2.13,2.13,0,0,1,.61-.42l.3-.15.27-.1.46-.14a2.42,2.42,0,0,1,.9-.12h.18c.29,0,.58,0,.87.09l.32,0a1.39,1.39,0,0,1,.32.06l.16,0c.09,0,.16-.1.16-.2a2.76,2.76,0,0,1-.08-.36,1.65,1.65,0,0,1,.05-.46c0-.12-.08-.21-.15-.11a.66.66,0,0,1-.41.21c-.27.06-.55.1-.55.1h-.29c-.1,0-.24,0-.28-.08s-.1-.13-.16-.08l-.2.17,0,0h0l-.15,0c-.09,0-.21,0-.23-.05s-.2-.11-.31,0a1.54,1.54,0,0,0-.22.19.54.54,0,0,1-.14.12,10.93,10.93,0,0,0-1.51.78c-.73.47-.39.32-.65.44-.09,0-.08.17,0,.26a.33.33,0,0,0,.37.07Z"/><path class="cls-37" d="M35.33,18.92a.65.65,0,0,1-.08-.76l.91-1.61a.35.35,0,0,1,.56-.07l.23.25a1,1,0,0,0,.38.26l.58.23a.28.28,0,0,1,.08.48l-1.77,1.52a.48.48,0,0,1-.67,0Z"/><ellipse class="cls-11" cx="28.4" cy="12.04" rx="0.44" ry="2.57" transform="translate(-1.74 18.62) rotate(-35.29)"/><ellipse class="cls-12" cx="28.38" cy="12" rx="0.43" ry="2.52" transform="matrix(0.82, -0.58, 0.58, 0.82, -1.72, 18.6)"/><ellipse class="cls-13" cx="28.35" cy="11.96" rx="0.42" ry="2.47" transform="translate(-1.7 18.58) rotate(-35.29)"/><ellipse class="cls-14" cx="28.32" cy="11.92" rx="0.41" ry="2.43" transform="translate(-1.68 18.55) rotate(-35.29)"/><ellipse class="cls-15" cx="28.29" cy="11.88" rx="0.41" ry="2.38" transform="translate(-1.67 18.53) rotate(-35.29)"/><ellipse class="cls-16" cx="28.27" cy="11.84" rx="0.4" ry="2.33" transform="translate(-1.65 18.51) rotate(-35.29)"/><ellipse class="cls-17" cx="28.24" cy="11.8" rx="0.39" ry="2.28" transform="matrix(0.82, -0.58, 0.58, 0.82, -1.63, 18.48)"/><ellipse class="cls-18" cx="28.21" cy="11.77" rx="0.39" ry="2.23" transform="translate(-1.61 18.46) rotate(-35.29)"/><ellipse class="cls-19" cx="28.18" cy="11.73" rx="0.38" ry="2.18" transform="translate(-1.6 18.44) rotate(-35.29)"/><ellipse class="cls-20" cx="28.15" cy="11.69" rx="0.37" ry="2.14" transform="translate(-1.58 18.41) rotate(-35.29)"/><ellipse class="cls-21" cx="28.13" cy="11.65" rx="0.36" ry="2.09" transform="translate(-1.56 18.39) rotate(-35.29)"/><ellipse class="cls-22" cx="28.1" cy="11.61" rx="0.36" ry="2.04" transform="translate(-1.54 18.37) rotate(-35.29)"/><ellipse class="cls-23" cx="28.07" cy="11.57" rx="0.35" ry="1.99" transform="translate(-1.52 18.34) rotate(-35.29)"/><ellipse class="cls-24" cx="28.04" cy="11.53" rx="0.34" ry="1.94" transform="translate(-1.51 18.32) rotate(-35.29)"/><ellipse class="cls-25" cx="28.01" cy="11.49" rx="0.34" ry="1.89" transform="translate(-1.49 18.3) rotate(-35.29)"/><ellipse class="cls-26" cx="27.99" cy="11.45" rx="0.33" ry="1.85" transform="translate(-1.47 18.27) rotate(-35.29)"/><ellipse class="cls-27" cx="27.96" cy="11.41" rx="0.32" ry="1.8" transform="translate(-1.45 18.25) rotate(-35.29)"/><ellipse class="cls-28" cx="27.93" cy="11.37" rx="0.31" ry="1.75" transform="translate(-1.44 18.23) rotate(-35.29)"/><ellipse class="cls-29" cx="27.9" cy="11.33" rx="0.31" ry="1.7" transform="translate(-1.42 18.2) rotate(-35.29)"/><ellipse class="cls-30" cx="27.87" cy="11.29" rx="0.3" ry="1.65" transform="translate(-1.4 18.18) rotate(-35.3)"/><ellipse class="cls-31" cx="27.85" cy="11.25" rx="0.29" ry="1.6" transform="translate(-1.38 18.16) rotate(-35.3)"/><ellipse class="cls-32" cx="27.82" cy="11.21" rx="0.29" ry="1.56" transform="translate(-1.37 18.13) rotate(-35.3)"/><path class="cls-42" d="M28.21,10.85a1.92,1.92,0,0,0,.25.4l.85,1a1.83,1.83,0,0,0,.34.32c.34.25,1.05.77,1.52,1.1a.62.62,0,0,0,.24.09.18.18,0,0,1,.15.11.05.05,0,0,1,0,.07s-.06,0-.09.07l0,0-.05,0a.3.3,0,0,1-.27,0l-1.46-.84a2.93,2.93,0,0,1-.72-.58l-1.16-1.3-.84-1.12A.22.22,0,0,1,27,9.89a.52.52,0,0,0,.3-.16.24.24,0,0,1,.4.06Z"/><path class="cls-43" d="M30.77,13.55a.24.24,0,0,0-.13-.19l-.7-.36a2.47,2.47,0,0,1-.71-.56l-.15-.17-.52-.63a3.9,3.9,0,0,1-.5-.79l-.35-.73a.33.33,0,0,0-.36-.18.16.16,0,0,0-.09.25l.28.36.53.85.75.92a4.13,4.13,0,0,0,1.26,1l.59.32A.07.07,0,0,0,30.77,13.55Z"/><path class="cls-44" d="M32.78,17.45A.35.35,0,0,0,33,17c-.17-.33-.21-.44-.43-1l0-.06c-.11-.32-.12-.7-.22-.89s-.2-.19-.25-.31a1.94,1.94,0,0,1-.11-.41,2.55,2.55,0,0,1,0-.4.11.11,0,0,0-.16-.1c-.13.08-.2-.12-.25-.26a6.09,6.09,0,0,1-.2-.59c0-.12-.19-.09-.3-.06s-.1,0-.18-.07l0-.05-.37-.42a.32.32,0,0,0-.53.1l-.28.51a.66.66,0,0,1-.18.21c-.15.12-.27.31-.45.36h0c-.13,0-.14.23,0,.29a3.7,3.7,0,0,0,.62.14,2.31,2.31,0,0,1,.77.37,2.75,2.75,0,0,1,.68.77,23.19,23.19,0,0,0,1.18,2.15A.49.49,0,0,0,32.78,17.45Z"/><path class="cls-45" d="M32.67,17.14a.29.29,0,0,0,0-.29c-.07-.17-.18-.45-.27-.71a3.43,3.43,0,0,0-.33-.86l0,0a2.79,2.79,0,0,1-.28-.83.43.43,0,0,0-.08-.15c-.12-.14-.28-.23-.37-.39l0-.08a.74.74,0,0,1-.1-.37c0-.19-.26-.2-.38-.34l0,0-.4-.36a.2.2,0,0,0-.3,0,1.79,1.79,0,0,1-.31.34l0,0c-.14.12,0,.33.13.36H30a1,1,0,0,1,.4.05l.06,0a.84.84,0,0,1,.39.36q.27.48.57,1t.51,1q.2.55.43,1.08l.11.2A.12.12,0,0,0,32.67,17.14Z"/><path class="cls-37" d="M32.83,20a.7.7,0,0,0,.39-.67L33,16a.26.26,0,0,0-.41-.19l-.5.37a.54.54,0,0,1-.39.1.31.31,0,0,0-.34.37L32,19.87a.37.37,0,0,0,.52.26Z"/><ellipse class="cls-11" cx="17.11" cy="35.83" rx="2.57" ry="0.44" transform="translate(-20.34 22.63) rotate(-45.05)"/><ellipse class="cls-12" cx="17.07" cy="35.87" rx="2.52" ry="0.43" transform="translate(-20.37 22.61) rotate(-45.05)"/><ellipse class="cls-13" cx="17.04" cy="35.9" rx="2.47" ry="0.42" transform="translate(-20.41 22.6) rotate(-45.05)"/><ellipse class="cls-14" cx="17.01" cy="35.93" rx="2.43" ry="0.41" transform="translate(-20.44 22.58) rotate(-45.05)"/><ellipse class="cls-15" cx="16.97" cy="35.97" rx="2.38" ry="0.41" transform="translate(-20.47 22.57) rotate(-45.05)"/><ellipse class="cls-16" cx="16.94" cy="36" rx="2.33" ry="0.4" transform="translate(-20.51 22.56) rotate(-45.05)"/><ellipse class="cls-17" cx="16.9" cy="36.04" rx="2.28" ry="0.39" transform="translate(-20.54 22.54) rotate(-45.05)"/><ellipse class="cls-18" cx="16.87" cy="36.07" rx="2.23" ry="0.39" transform="translate(-20.58 22.53) rotate(-45.05)"/><ellipse class="cls-19" cx="16.84" cy="36.1" rx="2.18" ry="0.38" transform="translate(-20.61 22.51) rotate(-45.05)"/><ellipse class="cls-20" cx="16.8" cy="36.14" rx="2.14" ry="0.37" transform="translate(-20.65 22.5) rotate(-45.05)"/><ellipse class="cls-21" cx="16.77" cy="36.17" rx="2.09" ry="0.36" transform="translate(-20.68 22.49) rotate(-45.05)"/><ellipse class="cls-22" cx="16.73" cy="36.21" rx="2.04" ry="0.36" transform="translate(-20.71 22.47) rotate(-45.05)"/><ellipse class="cls-23" cx="16.7" cy="36.24" rx="1.99" ry="0.35" transform="translate(-20.75 22.46) rotate(-45.05)"/><ellipse class="cls-24" cx="16.66" cy="36.28" rx="1.94" ry="0.34" transform="translate(-20.78 22.44) rotate(-45.05)"/><ellipse class="cls-25" cx="16.63" cy="36.31" rx="1.89" ry="0.34" transform="translate(-20.82 22.43) rotate(-45.05)"/><ellipse class="cls-26" cx="16.6" cy="36.34" rx="1.85" ry="0.33" transform="translate(-20.85 22.41) rotate(-45.05)"/><ellipse class="cls-27" cx="16.56" cy="36.38" rx="1.8" ry="0.32" transform="translate(-20.89 22.4) rotate(-45.05)"/><ellipse class="cls-28" cx="16.53" cy="36.41" rx="1.75" ry="0.31" transform="translate(-20.92 22.39) rotate(-45.05)"/><ellipse class="cls-29" cx="16.49" cy="36.45" rx="1.7" ry="0.31" transform="translate(-20.95 22.37) rotate(-45.05)"/><ellipse class="cls-30" cx="16.46" cy="36.48" rx="1.65" ry="0.3" transform="translate(-20.99 22.36) rotate(-45.05)"/><ellipse class="cls-31" cx="16.42" cy="36.52" rx="1.6" ry="0.29" transform="translate(-21.02 22.34) rotate(-45.05)"/><ellipse class="cls-32" cx="16.39" cy="36.55" rx="1.56" ry="0.29" transform="translate(-21.06 22.33) rotate(-45.05)"/><path class="cls-46" d="M20.79,34.41s0,0,0,0l-.44-.12-.09,0c-.18,0-.22.25-.37.36l-.06,0-.08,0-.78.19a3.45,3.45,0,0,0-.87.34l-.47.26-.43.27a4.29,4.29,0,0,0-.73.58L15.31,37.4a.2.2,0,0,0,.1.33h0a.43.43,0,0,1,.25.14.25.25,0,0,0,.38,0L17,36.64a2.61,2.61,0,0,1,.32-.34l.27-.24a2.39,2.39,0,0,1,.38-.28l.3-.18a1.64,1.64,0,0,1,.43-.18L20.53,35a.37.37,0,0,0,.29-.38.69.69,0,0,0,0-.14Z"/><path class="cls-47" d="M15.88,37.73a.14.14,0,0,0,.2,0l.42-.58a4.9,4.9,0,0,1,.56-.65l.3-.29a4,4,0,0,1,.75-.57l.37-.21.93-.28a1.5,1.5,0,0,1,.41-.07h.31a.08.08,0,0,0,.07-.1.13.13,0,0,0-.14-.09l-.41.06a4.91,4.91,0,0,0-1,.25l-.09,0a4.15,4.15,0,0,0-1.08.58l-.38.29-.75.72-.65.68a.12.12,0,0,0,.05.19h0Z"/><path class="cls-37" d="M27.15,32.43c.09.19.09.47-.07.57l-.22.14a4.12,4.12,0,0,0-1,.75,1.59,1.59,0,0,0-.13.26.17.17,0,0,1-.29,0c-.07-.1-.24.1-.4.2a3.64,3.64,0,0,1-.51.23,1,1,0,0,0-.38.16,3.15,3.15,0,0,0-.28.41c-.07.09-.18,0-.23-.13a.1.1,0,0,0,0,0,.24.24,0,0,0-.19,0,3.82,3.82,0,0,1-.4.11l-1.26.32c-.28.09-.42.35-.58.58a.13.13,0,0,1-.24-.11.25.25,0,0,0,0-.15c-.06-.14-.24-.11-.39-.06l-.66.28a.24.24,0,0,1-.33-.29l.09-.44a.6.6,0,0,0-.07-.46.87.87,0,0,0-.4-.37.18.18,0,0,1,0-.32h0a.27.27,0,0,0,.17-.32.55.55,0,0,0-.08-.13c-.07-.08.06-.2.15-.15a3.44,3.44,0,0,0,.63.26h0l.27.08a2.07,2.07,0,0,0,.44.08,7,7,0,0,0,1.49,0,6.63,6.63,0,0,0,1.93-.5c.75-.32,1.84-.9,2.46-1.19A.35.35,0,0,1,27.15,32.43Z"/><path class="cls-48" d="M26.7,33c-.38.28-.66.44-.83.55s-.19.15-.23.26l0,.06c0,.05-.09.11-.11.06s-.11,0-.17,0a1.91,1.91,0,0,1-.24.22,4.33,4.33,0,0,1-.43.22l-.37.13-.2.05c-.06,0-.13,0-.16.07s0,.29-.2.21l-.12,0h-.13q-.66.14-1.3.31a3.23,3.23,0,0,1-.53.1.51.51,0,0,0-.25.09c-.18.13-.25.22-.37.13a.41.41,0,0,0-.3-.11c-.22,0-.41.08-.58.09s0-.22,0-.47-.33-.65.12-.52a2.62,2.62,0,0,0,.9.17h.17a8.14,8.14,0,0,0,.87-.06,3.17,3.17,0,0,0,.86-.15c.37-.13,1.31-.41,1.43-.44a4.79,4.79,0,0,0,1.6-.9l.08-.06c.31-.26.56-.49.56-.49S27.13,32.7,26.7,33Z"/><path class="cls-49" d="M28.14,30.48a.44.44,0,0,0-.29-.57l-.33-.09a.61.61,0,0,0-.69.28l-1.32,2.23a.27.27,0,0,0,.23.41H26a.57.57,0,0,1,.4.17l.35.36a.29.29,0,0,0,.49-.11Z"/><ellipse class="cls-11" cx="43.77" cy="33.37" rx="0.3" ry="1.73" transform="translate(-9.43 47.48) rotate(-52.17)"/><ellipse class="cls-12" cx="43.79" cy="33.39" rx="0.3" ry="1.69" transform="translate(-9.44 47.5) rotate(-52.17)"/><ellipse class="cls-13" cx="43.82" cy="33.41" rx="0.29" ry="1.66" transform="matrix(0.61, -0.79, 0.79, 0.61, -9.45, 47.53)"/><ellipse class="cls-14" cx="43.84" cy="33.43" rx="0.29" ry="1.63" transform="translate(-9.45 47.56) rotate(-52.17)"/><ellipse class="cls-15" cx="43.87" cy="33.45" rx="0.28" ry="1.6" transform="translate(-9.46 47.59) rotate(-52.17)"/><ellipse class="cls-16" cx="43.9" cy="33.47" rx="0.28" ry="1.56" transform="translate(-9.46 47.62) rotate(-52.17)"/><ellipse class="cls-17" cx="43.92" cy="33.49" rx="0.27" ry="1.53" transform="translate(-9.47 47.64) rotate(-52.17)"/><ellipse class="cls-18" cx="43.95" cy="33.51" rx="0.27" ry="1.5" transform="translate(-9.47 47.67) rotate(-52.17)"/><ellipse class="cls-19" cx="43.97" cy="33.53" rx="0.26" ry="1.47" transform="translate(-9.48 47.7) rotate(-52.17)"/><ellipse class="cls-20" cx="44" cy="33.55" rx="0.26" ry="1.43" transform="translate(-9.49 47.73) rotate(-52.17)"/><ellipse class="cls-21" cx="44.02" cy="33.57" rx="0.25" ry="1.4" transform="translate(-9.49 47.76) rotate(-52.17)"/><ellipse class="cls-22" cx="44.05" cy="33.59" rx="0.25" ry="1.37" transform="translate(-9.5 47.78) rotate(-52.17)"/><ellipse class="cls-23" cx="44.08" cy="33.61" rx="0.24" ry="1.34" transform="translate(-9.5 47.81) rotate(-52.17)"/><ellipse class="cls-24" cx="44.1" cy="33.63" rx="0.24" ry="1.3" transform="translate(-9.51 47.84) rotate(-52.17)"/><ellipse class="cls-25" cx="44.13" cy="33.65" rx="0.23" ry="1.27" transform="translate(-9.51 47.87) rotate(-52.17)"/><ellipse class="cls-26" cx="44.15" cy="33.67" rx="0.23" ry="1.24" transform="translate(-9.52 47.9) rotate(-52.18)"/><ellipse class="cls-27" cx="44.18" cy="33.69" rx="0.22" ry="1.21" transform="translate(-9.53 47.93) rotate(-52.18)"/><ellipse class="cls-28" cx="44.2" cy="33.71" rx="0.22" ry="1.17" transform="translate(-9.53 47.95) rotate(-52.18)"/><ellipse class="cls-29" cx="44.23" cy="33.73" rx="0.21" ry="1.14" transform="translate(-9.54 47.98) rotate(-52.18)"/><ellipse class="cls-30" cx="44.25" cy="33.75" rx="0.21" ry="1.11" transform="translate(-9.54 48.01) rotate(-52.18)"/><ellipse class="cls-31" cx="44.28" cy="33.77" rx="0.2" ry="1.08" transform="translate(-9.55 48.04) rotate(-52.18)"/><ellipse class="cls-32" cx="44.31" cy="33.79" rx="0.2" ry="1.04" transform="translate(-9.55 48.07) rotate(-52.18)"/><path class="cls-46" d="M44.86,34.8a.42.42,0,0,1,.19-.22.22.22,0,0,0,0-.36l-.41-.36a4,4,0,0,0-.77-.53l-.36-.19a2.31,2.31,0,0,0-.88-.26L41,32.75a.22.22,0,0,0-.24.21.25.25,0,0,0,.22.27l1.59.24a1.45,1.45,0,0,1,.44.14l.62.31a1,1,0,0,1,.35.3l.48.67a.2.2,0,0,0,.35,0Z"/><path class="cls-50" d="M44.64,34.52a.09.09,0,0,0,.16,0v0a.18.18,0,0,1,.07-.08.09.09,0,0,0,0-.14L44.64,34a3.21,3.21,0,0,0-.74-.54l-.35-.18a4.42,4.42,0,0,0-1.66-.37L41,32.85a.08.08,0,0,0-.09.1.17.17,0,0,0,.15.13l1.62.18.49.13a2.87,2.87,0,0,1,.64.26h0a2,2,0,0,1,.5.39l.12.13a1.25,1.25,0,0,1,.17.23Z"/><path class="cls-37" d="M42,33.47A1,1,0,0,1,42,33a.84.84,0,0,0,0-.61.14.14,0,0,0-.14-.1,6.49,6.49,0,0,1-1,.16c-.27,0-.66,0-1,0a4.48,4.48,0,0,1-1-.18L38.21,32a1.14,1.14,0,0,1-.42-.21,7.6,7.6,0,0,0-1.39-1c-.19-.11-.17.13-.35.36l-.1.12c-.19.23-.19.47,0,.56a6.33,6.33,0,0,1,1,.68l0,0a.81.81,0,0,1,.17.48c0,.13.21.13.3,0s.06-.15.16-.15h0l0,0c.09.05.45.2.79.33a9.77,9.77,0,0,0,1.2.31,2.68,2.68,0,0,1,.35.36c.13.13.19,0,.23-.11a.17.17,0,0,1,.17-.13h0l0,0a4.56,4.56,0,0,0,.48.43c.15.1.19.08.23,0v0c.07-.12.24,0,.37,0l0,0c.28.15.45.58.59.39s-.11-.59-.2-.91l0-.06Z"/><path class="cls-51" d="M41.55,33.57c.13.06.31.15.19-.19a.6.6,0,0,1,0-.34c.1-.38-.13-.38-.3-.38H41a4.48,4.48,0,0,1-.75,0l-.37,0a4.78,4.78,0,0,1-.91-.15l-.09,0c-.26-.07-.53-.15-.79-.25a1.77,1.77,0,0,1-.66-.41c-.2-.2-.29-.29-.49-.47l-.29-.21a.29.29,0,0,0-.16,0c-.65,0,.7,1,1.25,1.32a1.31,1.31,0,0,1,.27.22c.14.15.4.16.61.22h0a1.38,1.38,0,0,1,.54.28l.09.07c.19.13.47-.07.62.1s.43-.12.65,0,.3.29.42.31.27-.09.41,0Z"/><path class="cls-49" d="M35.21,29.89a.65.65,0,0,0-.1.76L36,32.27a.35.35,0,0,0,.55.08l.24-.24a1,1,0,0,1,.39-.25l.59-.21a.28.28,0,0,0,.09-.47l-1.74-1.55a.48.48,0,0,0-.67,0Z"/><ellipse class="cls-11" cx="28.13" cy="36.65" rx="2.57" ry="0.44" transform="translate(-18.07 37.42) rotate(-53.45)"/><ellipse class="cls-12" cx="28.1" cy="36.69" rx="2.52" ry="0.43" transform="translate(-18.11 37.42) rotate(-53.45)"/><ellipse class="cls-13" cx="28.07" cy="36.73" rx="2.47" ry="0.42" transform="translate(-18.15 37.41) rotate(-53.45)"/><ellipse class="cls-14" cx="28.04" cy="36.77" rx="2.43" ry="0.41" transform="translate(-18.2 37.4) rotate(-53.45)"/><ellipse class="cls-15" cx="28.01" cy="36.81" rx="2.38" ry="0.41" transform="translate(-18.24 37.39) rotate(-53.45)"/><ellipse class="cls-16" cx="27.98" cy="36.85" rx="2.33" ry="0.4" transform="translate(-18.28 37.39) rotate(-53.45)"/><ellipse class="cls-17" cx="27.96" cy="36.89" rx="2.28" ry="0.39" transform="translate(-18.32 37.38) rotate(-53.45)"/><ellipse class="cls-18" cx="27.93" cy="36.93" rx="2.23" ry="0.39" transform="translate(-18.37 37.37) rotate(-53.45)"/><ellipse class="cls-19" cx="27.9" cy="36.96" rx="2.18" ry="0.38" transform="translate(-18.41 37.36) rotate(-53.45)"/><ellipse class="cls-20" cx="27.87" cy="37" rx="2.14" ry="0.37" transform="translate(-18.45 37.36) rotate(-53.45)"/><ellipse class="cls-21" cx="27.84" cy="37.04" rx="2.09" ry="0.36" transform="translate(-18.5 37.35) rotate(-53.45)"/><ellipse class="cls-22" cx="27.81" cy="37.08" rx="2.04" ry="0.36" transform="translate(-18.54 37.34) rotate(-53.45)"/><ellipse class="cls-23" cx="27.78" cy="37.12" rx="1.99" ry="0.35" transform="translate(-18.58 37.33) rotate(-53.45)"/><ellipse class="cls-24" cx="27.75" cy="37.16" rx="1.94" ry="0.34" transform="translate(-18.62 37.33) rotate(-53.45)"/><ellipse class="cls-25" cx="27.73" cy="37.2" rx="1.89" ry="0.34" transform="translate(-18.67 37.32) rotate(-53.45)"/><ellipse class="cls-26" cx="27.7" cy="37.24" rx="1.85" ry="0.33" transform="translate(-18.71 37.31) rotate(-53.45)"/><ellipse class="cls-27" cx="27.67" cy="37.27" rx="1.8" ry="0.32" transform="translate(-18.75 37.3) rotate(-53.45)"/><ellipse class="cls-28" cx="27.64" cy="37.31" rx="1.75" ry="0.31" transform="translate(-18.8 37.3) rotate(-53.45)"/><ellipse class="cls-29" cx="27.61" cy="37.35" rx="1.7" ry="0.31" transform="translate(-18.84 37.29) rotate(-53.45)"/><ellipse class="cls-30" cx="27.58" cy="37.39" rx="1.65" ry="0.3" transform="translate(-18.88 37.28) rotate(-53.45)"/><ellipse class="cls-31" cx="27.55" cy="37.43" rx="1.6" ry="0.29" transform="translate(-18.92 37.27) rotate(-53.45)"/><ellipse class="cls-32" cx="27.52" cy="37.47" rx="1.56" ry="0.29" transform="translate(-18.97 37.27) rotate(-53.45)"/><path class="cls-46" d="M28,37.8a1.71,1.71,0,0,1,.25-.4l.81-1a1.77,1.77,0,0,1,.34-.32c.34-.24,1.07-.75,1.54-1.06a.61.61,0,0,1,.24-.09.18.18,0,0,0,.16-.11.05.05,0,0,0,0-.07s-.06,0-.09-.07l0,0-.05,0a.3.3,0,0,0-.27,0l-1.47.8a3.1,3.1,0,0,0-.74.56l-.87.9a4.77,4.77,0,0,0-.58.73l-.54.84a.17.17,0,0,0,.14.27.42.42,0,0,1,.27.11l0,0a.29.29,0,0,0,.46-.09Z"/><path class="cls-52" d="M30.17,35.28a.39.39,0,0,1-.17.27l-.56.37a3,3,0,0,0-.62.55l-.4.47-.32.42a3.44,3.44,0,0,0-.41.68l-.25.56a.21.21,0,0,1-.25.12h0l-.14,0a.08.08,0,0,1-.06-.13l.66-1,.74-.86.17-.2a5.73,5.73,0,0,1,1.05-1l.44-.31A.08.08,0,0,1,30.17,35.28Z"/><path class="cls-37" d="M32.63,31.12a.35.35,0,0,1,.22.49,9.46,9.46,0,0,0-.47,1l0,.06a2.58,2.58,0,0,0,.1,1c0,.12-.14.16-.23.08s-.21,0-.26.13c-.21.56-.48,1.08-.53,1.23s-.12.36-.17.55-.19.11-.31.08-.09,0-.17.07l0,.05-.36.44a.31.31,0,0,1-.53-.08l-.29-.5a.66.66,0,0,0-.18-.21c-.11-.08-.22-.18-.32-.27a.17.17,0,0,1,0-.32l.41-.19a2.7,2.7,0,0,0,.63-.34,4.6,4.6,0,0,0,1-1.26,16.43,16.43,0,0,1,1-1.77C32.29,31.18,32.42,31,32.63,31.12Z"/><path class="cls-53" d="M32.67,31.21a.4.4,0,0,1,.06.47c-.12.22-.28.54-.41.8a1,1,0,0,0-.1.45,1.58,1.58,0,0,1,0,.31c0,.1-.13.14-.23.17a.19.19,0,0,0-.11.13c-.08.21-.16.43-.21.6a2.05,2.05,0,0,1-.25.5.77.77,0,0,0-.12.26c-.05.23-.06.41-.18.53s-.33.18-.47.31l0,0c-.37.46-.43,0-.55-.2s-.09-.43.09-.48h0a.7.7,0,0,0,.43-.33q.27-.45.56-.89l.31-.55a4.71,4.71,0,0,0,.39-.84q.21-.61.45-1.2A.2.2,0,0,1,32.67,31.21Z"/><path class="cls-49" d="M32.74,28.76a.7.7,0,0,1,.38.68l-.3,3.28a.26.26,0,0,1-.41.18l-.49-.38a.54.54,0,0,0-.39-.11.31.31,0,0,1-.33-.38l.74-3.17a.37.37,0,0,1,.53-.24Z"/><path class="cls-54" d="M43.53,26.73a5.65,5.65,0,0,1,1.09,1.52,6.65,6.65,0,0,0,.5.75,4.2,4.2,0,0,0,.58.71c.26.19.86.48,1.15.21a1.3,1.3,0,0,0,.38-1.09c-.12-.75-.88.43-.84.81s.33.14.4-.06a3.13,3.13,0,0,0,.12-.89c0-.32-.23-.13-.24.09s0,.6-.09.54l.05.18c0-.14.21-.32.3-.42s.05-.07.07,0a.43.43,0,0,1-.43.48c-.56,0-.83-.41-1.14-.79-.61-.73-1-1.75-1.76-2.33C43.53,26.32,43.41,26.63,43.53,26.73Z"/><path class="cls-55" d="M43.54,22.63a2.37,2.37,0,0,0,1-.81,5.16,5.16,0,0,0,.36-.59,3.47,3.47,0,0,1,.74-.85,3.06,3.06,0,0,1,.81-.44c.42-.19.6.16.66.5a.41.41,0,0,1-.17-.21,2.16,2.16,0,0,1-.21-.4c0-.15-.08-.22-.23-.26s-.1.06-.12.1c-.19.43.2.91.34,1.3s.26-.17.21-.3-.1-.22-.15-.33l-.12-.27-.08-.22q0-.18-.05.09l-.12.1c.1,0,.33.57.36.65a.48.48,0,0,0,.31.3.08.08,0,0,0,.06,0,.89.89,0,0,0,.17-.88c-.11-.49-.31-.72-.85-.6A3,3,0,0,0,45,20.58c-.48.6-.68,1.37-1.47,1.66C43.4,22.29,43.38,22.69,43.54,22.63Z"/><path class="cls-46" d="M41.86,27.48a4.64,4.64,0,0,0,2.08-.74,2.28,2.28,0,0,0,.92-1.54c-.2,0-.35-.34-.34-.69s.16-.64.36-.68A2.28,2.28,0,0,0,44,22.26a4.64,4.64,0,0,0-2.06-.78,1,1,0,0,0-1.17,1.08v.09c0,.5,0,1.1,0,1.82s0,1.32-.08,1.82v.09A1,1,0,0,0,41.86,27.48Z"/><path class="cls-56" d="M44.37,24.53v0h0Z"/><path class="cls-57" d="M43.6,21.8a3.28,3.28,0,0,0-1.72-.93.91.91,0,0,0-1,1c0,.12-.28,1.69-.29,2.55s.24,2.44.24,2.56a.91.91,0,0,0,1,1.05,3.28,3.28,0,0,0,1.74-.89,3.78,3.78,0,0,0,.83-2.65v0A3.8,3.8,0,0,0,43.6,21.8Z"/><path class="cls-58" d="M44.19,24.5a3,3,0,0,0-.73-2.28,3.25,3.25,0,0,0-1.64-.79h-.17c-.24,0-.37.26-.35.5,0,.66.06,1.51,0,2.55q0,.14,0,.28a.53.53,0,0,0,.53.55,8.59,8.59,0,0,0,1.56-.19C44,25,44.19,24.73,44.19,24.5Z"/><path class="cls-59" d="M41.8,28.08a3.28,3.28,0,0,0,1.74-.89,3.8,3.8,0,0,0,.83-2.68,2.49,2.49,0,0,1-.82,2.06,3.67,3.67,0,0,1-1.74.68h-.12c-.22,0-.47.14-.41.35a1,1,0,0,0,.3.48A.77.77,0,0,0,41.8,28.08Z"/><path class="cls-60" d="M43.83,26.77c-.56.3-1.15-.2-1.78-.58-.43-.26-.76.05-.79.56,0,.17,0,.21,0,.37s0,.06,0,.08a1.09,1.09,0,0,0,.36.84.75.75,0,0,0,.22,0,3.28,3.28,0,0,0,1.74-.89A2.44,2.44,0,0,0,43.83,26.77Z"/><path class="cls-61" d="M43.88,22.22a2.5,2.5,0,0,0-.28-.38,3.28,3.28,0,0,0-1.72-.93.78.78,0,0,0-.22,0,1.1,1.1,0,0,0-.38.84s0,.05,0,.08,0,.2,0,.37c0,.5.34.83.78.57C42.72,22.4,43.33,21.91,43.88,22.22Z"/><path class="cls-62" d="M43.83,26.77a.83.83,0,0,1-.66,0,4.05,4.05,0,0,1-1.36.43h-.12c-.2,0-.41.1-.42.27a1,1,0,0,0,.32.52.75.75,0,0,0,.22,0,3.28,3.28,0,0,0,1.74-.89A2.44,2.44,0,0,0,43.83,26.77Z"/><path class="cls-63" d="M43.37,22.13a3.32,3.32,0,0,0-1.55-.71h-.17c-.23,0-.35.23-.35.46,0,0,0,0,0,0s0,.24,0,.36c.05.45.36.73.77.49A4.31,4.31,0,0,1,43.37,22.13Z"/><path class="cls-64" d="M30.54,30.93c-3.23,0-12-.3-11.94-6.71s8.85-6.48,12.08-6.45,5.81,3.46,5.78,6.64S33.77,31,30.54,30.93Z"/><path class="cls-65" d="M36.46,24.42a7,7,0,0,0-1.2-3.87c-.56-.23-.63-.51-1.49-1s-.62-.56-.62-1v0a4.93,4.93,0,0,0-2.47-.72c-3.17,0-11.7,0-12.07,6.12l11.85.37a.44.44,0,0,0,.37-.25,1.22,1.22,0,0,1,.37-.43l.6-.52c.38-.34.74-.62,1-.89L33,22a2.83,2.83,0,0,1-.21.27c-.26.29-.61.58-1,.94l-.58.54a.91.91,0,0,0-.41.68h0a.92.92,0,0,0,.39.69l.57.55c.36.36.7.66,1,1a2.26,2.26,0,0,1,.55,1.1l0,2.06A6.49,6.49,0,0,0,36.46,24.42Z"/><path d="M40.73,28a17.17,17.17,0,0,0,.39-3.58,17.17,17.17,0,0,0-.31-3.59h0c0,.13,0,1.68-.07,3.58s0,3.45,0,3.58Z"/><path class="cls-56" d="M34.4,31.87h0Z"/><path class="cls-66" d="M39.75,29.82a2.63,2.63,0,0,0,1-1.77,33.81,33.81,0,0,0,.2-3.58,33.79,33.79,0,0,0-.12-3.59,2.64,2.64,0,0,0-.94-1.79,9.4,9.4,0,0,0-5.18-2.16A.9.9,0,0,0,33.77,18L34,19.3a5.35,5.35,0,0,1-.26,2.59l-.53,1.47a3.09,3.09,0,0,0,0,2l.5,1.48a5.35,5.35,0,0,1,.2,2.6l-.22,1.3a.92.92,0,0,0,.77,1.08h.13A9.4,9.4,0,0,0,39.75,29.82Z"/><path class="cls-67" d="M34.81,31.85a9.51,9.51,0,0,0,4.93-2c.55-.43.57-1.84,0-1.53a11.63,11.63,0,0,1-5.21,1.45h-.13a.33.33,0,0,0-.32.27l-.13.77a.93.93,0,0,0,.58,1A.64.64,0,0,0,34.81,31.85Z"/><path class="cls-68" d="M40.23,24.69a10.16,10.16,0,0,0,.18-2,10.17,10.17,0,0,0-.14-2c-.07-.38-.67-.8-1-1a8.42,8.42,0,0,0-3.82-1.4,1.1,1.1,0,0,0-1.16,1.25A5.35,5.35,0,0,1,34,21.9l-.53,1.47a3.09,3.09,0,0,0,0,2l.11.32a1.1,1.1,0,0,0,1.06.76,11.87,11.87,0,0,0,4.6-.83A1.49,1.49,0,0,0,40.23,24.69Z"/><path class="cls-69" d="M37.72,31.06c0-.56-.41-.11-.4-.64a3.51,3.51,0,0,1,.4-1.25c-.34.11-.71.22-1.11.3,0,.14-.08.29-.11.43a2.7,2.7,0,0,1-.19.66.44.44,0,0,1-.25.25c-.16.07-.22.1-.27.23a1.77,1.77,0,0,0-.1.68A8.9,8.9,0,0,0,37.72,31.06Z"/><path class="cls-70" d="M32.75,25.53a3.87,3.87,0,0,1,0-2.31l.51-1.58a4.4,4.4,0,0,0,.14-.54,2.26,2.26,0,0,1-.57,1.09c-.26.29-.61.58-1,.94l-.58.54a.92.92,0,0,0-.41.68h0a.91.91,0,0,0,.39.69l.57.55c.36.36.7.66,1,1a2.26,2.26,0,0,1,.55,1.1,4.38,4.38,0,0,0-.13-.54Z"/><path class="cls-71" d="M32.36,25.61a1.26,1.26,0,0,0,0-.41,3.87,3.87,0,0,1,.11-2l.13-.4a.07.07,0,0,0-.11-.07L31.2,23.9a.63.63,0,0,0,0,.91l.91.88A.15.15,0,0,0,32.36,25.61Z"/><path class="cls-56" d="M28.68,32.55h0Z"/><path class="cls-72" d="M32,32.14a1.56,1.56,0,0,0,1.24-1.27l.21-1.67a4.39,4.39,0,0,0,0-1.28,2.22,2.22,0,0,0-.69-1.3c-.27-.27-.64-.55-1-.88l-.61-.51a1.22,1.22,0,0,1-.38-.42.43.43,0,0,0-.38-.25l-11.91.6a.26.26,0,0,0-.25.28c.35,3.67,3.85,7.44,10.48,7.12h.06A27.1,27.1,0,0,0,32,32.14Z"/><path class="cls-73" d="M31.32,26.73a1,1,0,0,0,.62-.31.27.27,0,0,0,0-.39l-1-.88a.88.88,0,0,1-.2-.25.41.41,0,0,0-.36-.24l-8.82.44a.13.13,0,0,0-.1.22c1,1.16,3.46,1.82,7.74,1.6C29.87,26.89,30.66,26.81,31.32,26.73Z"/><path class="cls-74" d="M31.67,32.19a1.6,1.6,0,0,0,1.24-1.31l.1-.81a.22.22,0,0,0-.24-.24l-.88.1c-.86.12-2.12.28-3.3.34-5.29.27-8.55-1.35-9.81-3.34-.08-.12-.28-.05-.23.08,1.08,3.09,4.46,5.8,10.13,5.52h.07a26.08,26.08,0,0,0,2.92-.35Z"/><path class="cls-75" d="M27.4,32c0-.19-.16-.22-.29-.24a.49.49,0,0,1-.42-.42,4,4,0,0,1-.07-1q-.7,0-1.35-.11h0c.16.29.34.66.51,1a.48.48,0,0,1-.09.58c-.06.06-.06.1-.1.23l-.1.34a13.5,13.5,0,0,0,1.91.19A3.81,3.81,0,0,0,27.4,32Z"/><path class="cls-76" d="M31.21,30c.08.15.41.72.52,1s-.16.6-.21.68-.29.58-.29.58l.43-.07h0A1.59,1.59,0,0,0,32.89,31a.4.4,0,0,1-.43-.33,2,2,0,0,1,0-.76l-.54.07Z"/><path class="cls-56" d="M28.91,16.12h0Z"/><path class="cls-77" d="M18.22,23a.26.26,0,0,0,.24.28l11.89.86a.43.43,0,0,0,.38-.24,1.22,1.22,0,0,1,.39-.41l.62-.5c.39-.32.76-.59,1-.85a2.22,2.22,0,0,0,.72-1.29,4.39,4.39,0,0,0,.05-1.28l-.18-1.67a1.56,1.56,0,0,0-1.21-1.3,27.08,27.08,0,0,0-3.26-.48h-.05C22.23,15.64,18.65,19.34,18.22,23Z"/><path class="cls-78" d="M30.31,24a.41.41,0,0,0,.37-.23.89.89,0,0,1,.21-.24l1.6-1.3.14-.12a1.16,1.16,0,0,0,.29-.44l0-.08a4.4,4.4,0,0,0,.29-2A1.74,1.74,0,0,0,31.76,18c-.68-.1-1.52-.19-2.31-.25-5.87-.42-8.39,2.48-8.54,4.53a2.44,2.44,0,0,0,.07.81.39.39,0,0,0,.35.28Z"/></svg>