<svg id="Layer_1" data-name="Layer 1" xmlns="http://www.w3.org/2000/svg" viewBox="0 0 62.65 62.65"><defs><style>.cls-1{fill:#2f331d;}.cls-2{fill:#525731;}.cls-3{fill:#00a7ee;}.cls-4{fill:#010101;}.cls-5{fill:#1e0e00;}.cls-6{fill:#0088c6;}.cls-7{fill:#31100d;}.cls-8{fill:#031825;}.cls-9{fill:#cdcac5;}.cls-10{fill:#1a1119;}</style></defs><title>butterfly-icon</title><circle class="cls-1" cx="31.33" cy="31.33" r="31.33"/><path class="cls-2" d="M31.33,61.65A30.33,30.33,0,1,1,61.65,31.33,30.36,30.36,0,0,1,31.33,61.65Z"/><g id="_Group_" data-name="&lt;Group&gt;"><path class="cls-3" d="M31.31,27.26c.57,0,1-.5,1.61-.6a20.25,20.25,0,0,1,2.82-.27c3.76,2.42,3.86,5.85,8.38,6.2a5,5,0,0,0-.23,1.07c0,1,1.44,1.28,1.44,2.21,0,.53-1.71-.16-1.71,1.32a12.56,12.56,0,0,0,.57,1.95c-1.3.3-3.23.32-3.36,2.15,0,.37-.22.49-.49.49-.47,0-1.18-.37-1.58-.37s-.78,1.78-1.29,1.78-1.07-1.5-2.21-1.58c-.12,0-.2-.15-.23-.25a3.82,3.82,0,0,0-1.33-2.09c-2.33-4.45-.53-8.22-2.39-11.88-1.86,3.65-.09,7.43-2.42,11.88a3.82,3.82,0,0,0-1.34,2.09c0,.1-.1.24-.23.25-1.14.07-1.65,1.57-2.21,1.57s-.77-1.78-1.28-1.79-1.12.37-1.58.37c-.27,0-.46-.12-.49-.49-.13-1.83-2.05-1.86-3.36-2.16A12.56,12.56,0,0,0,19,37.15c0-1.48-1.71-.79-1.71-1.32,0-.94,1.44-1.22,1.44-2.21a5,5,0,0,0-.23-1.07c4.52-.33,4.63-3.76,8.4-6.17a20.25,20.25,0,0,1,2.82.28C30.28,26.76,30.73,27.23,31.31,27.26Z"/><path class="cls-4" d="M47.69,33.62c0,.91-1.37.72-1.37,1.46,0,.55,1.27.91,1.27,2,0,1.4-2.06.62-2.06,1.64,0,.5.47,1.31.46,2.12,0,1.2-1.34.2-1.69,2.49,0,.27-.67.4-.67.67,0,3.41,2,5.34,2,6.59,0,.48-.1.87-.81.87-1.3,0-1.24-1.69-1.24-3.17,0-.23,0-.46,0-.69a2.29,2.29,0,0,0-1.9-2c-1,0-1,1.3-1.43,1.3s-.42-.52-.92-.52c-.86,0-.86,1.19-1.83,1.19s-.32-2.52-1.21-2.52c-.18,0-.42.05-.64.05-1.26,0-.08-2.85-1.4-4.86-.23-.35-.43-.69-.6-1A3.82,3.82,0,0,1,35,41.35c0,.1.1.24.23.25,1.14.08,1.64,1.58,2.21,1.58s.77-1.78,1.29-1.78,1.11.37,1.58.37c.27,0,.46-.12.49-.49.13-1.83,2.06-1.85,3.36-2.15a12.56,12.56,0,0,1-.57-1.95c0-1.48,1.71-.79,1.71-1.32,0-.94-1.44-1.23-1.44-2.21a5,5,0,0,1,.23-1.07c-4.52-.34-4.62-3.78-8.38-6.2h.5C44.94,26.4,47.7,32.89,47.69,33.62Z"/><path class="cls-4" d="M14.9,33.57c0,.91,1.37.72,1.37,1.46,0,.55-1.27.9-1.27,2,0,1.4,2.06.62,2.06,1.64,0,.5-.47,1.3-.47,2.12,0,1.2,1.34.2,1.68,2.49,0,.27.67.4.67.67,0,3.41-2.06,5.34-2.07,6.59,0,.48.1.87.81.87,1.3,0,1.25-1.68,1.25-3.17,0-.23,0-.46,0-.69a2.29,2.29,0,0,1,1.91-2c1,0,1,1.3,1.42,1.3s.42-.52.92-.51c.86,0,.86,1.2,1.83,1.2s.33-2.52,1.22-2.52c.18,0,.42.05.64.05,1.26,0,.08-2.85,1.41-4.86.23-.34.43-.69.61-1a3.82,3.82,0,0,0-1.34,2.09c0,.1-.1.24-.23.25-1.14.07-1.65,1.57-2.21,1.57s-.77-1.78-1.28-1.79-1.12.37-1.58.37c-.27,0-.46-.12-.49-.49-.13-1.83-2.05-1.86-3.36-2.16A12.56,12.56,0,0,0,19,37.15c0-1.48-1.71-.79-1.71-1.32,0-.94,1.44-1.22,1.44-2.21a5,5,0,0,0-.23-1.07c4.52-.33,4.63-3.76,8.4-6.17h-.5C17.67,26.35,14.9,32.84,14.9,33.57Z"/></g><path class="cls-5" d="M32.17,30.33c.64,3.14,1.29,1,2.81,9,.12.68.38,2.26,0,2.86h-.07a1.54,1.54,0,0,1,0-.52,33.22,33.22,0,0,0-1.38-7.68,16.34,16.34,0,0,1-1.45-3.6Z"/><path class="cls-5" d="M30.51,30.34c-.55,2.81-1.8,2.26-2.81,9.9a5.88,5.88,0,0,0,0,1.37,1.54,1.54,0,0,1,0,.52h-.07c-.56-1,.42-4.76.74-6.08a12.25,12.25,0,0,1,1.52-3.94,7.6,7.6,0,0,0,.62-1.8Z"/><path class="cls-5" d="M32.11,29.69c.73.84,1.1.8,1.49,1.39,1.08,1.58,3.13,4.4,4.33,2.87.09-.11.05-.11.06-.25l0-.58c.08-1.44-1.81-1.42-2.51-3.06l.07,0c.7,1.63,2.59,1.57,2.53,3.09,0,.8.05.81-.32,1.1-1.76,1.31-4.06-3-4.9-3.6a2.36,2.36,0,0,1-.83-.89Z"/><path class="cls-5" d="M30.55,29.73a2.36,2.36,0,0,1-.84.89c-.75.53-.6.77-1.85,2.23-1,1.12-2.38,2.31-3.29,1.14-.11-.15-.07-.15-.08-.31a2.88,2.88,0,0,1,.07-1.15c.46-1,1.84-1.11,2.45-2.51l.07,0c-.81,1.89-2.9,1.39-2.5,3.78,0,.1.18.24.27.31,1.34,1,3.2-1.69,4.14-3.06.39-.58.78-.57,1.49-1.39Z"/><path class="cls-5" d="M37.77,32.13a13.61,13.61,0,0,1,7,2.46l0,.06C43.64,34.29,41.84,32.76,37.77,32.13Z"/><path class="cls-5" d="M24.83,32.11c-4.08.63-5.85,2.13-6.93,2.5l0-.06A14,14,0,0,1,24.83,32.11Z"/><path class="cls-5" d="M38,33.56c4.41,2.82,2.06,1.4,6.36,4.35a.63.63,0,0,1,.25.25l0,.06a.62.62,0,0,1-.32-.15C40.35,35.25,43.2,37.15,38,33.56Z"/><path class="cls-5" d="M24.55,33.54c-5.25,3.63-2.41,1.75-6.26,4.49a.62.62,0,0,1-.32.15l0-.06a.63.63,0,0,1,.25-.25C22.58,34.87,20.05,36.39,24.55,33.54Z"/><path class="cls-5" d="M37.52,34.38c.92,1.71,2.75,3.75,4.35,6.62l-.25.12C40.12,38.2,38.38,36.12,37.52,34.38Z"/><path class="cls-5" d="M25.07,34.36c-.9,1.8-2.58,3.74-4.13,6.72L20.7,41C22.38,38,24.11,36.14,25.07,34.36Z"/><path class="cls-5" d="M36.64,34.28c.62,1.75,0,1.26,1.09,4.07.73,1.82.4.94,1.5,4L39,42.4c-1-3.08-.66-2-1.66-4.74C36.8,36.26,37.1,35.71,36.64,34.28Z"/><path class="cls-5" d="M26,34.27a18.82,18.82,0,0,0-.48,2.64s-1.05,2.92-1.92,5.47l-.23-.07c2.54-6.88,1.87-4.18,2.39-7.29A4.36,4.36,0,0,1,26,34.27Z"/><path class="cls-5" d="M35,33c.33,3.55,2.06,7.75,1.2,10.23h-.08a4.28,4.28,0,0,1-.06-1C36.1,37.44,35.15,37.25,35,33Z"/><path class="cls-5" d="M27.58,33c-.15,4.08-1.11,4.53-1.09,9.27a4.29,4.29,0,0,1-.07,1h-.08C25.53,40.85,27.25,36.4,27.58,33Z"/><g id="_Group_2" data-name="&lt;Group&gt;"><path class="cls-6" d="M37.67,23.9c-.32-.08-.52-.13-.46-.09S37.4,23.85,37.67,23.9Zm-12.26-.11c.07,0-.13,0-.46.09C25.22,23.83,25.37,23.81,25.41,23.79Zm5.9,1.67q.19-.51.44-1c2.74-.85,5.49-2.86,5.66-6,.09-1.67,1.94-2.2,3.28-3a2,2,0,0,0,0,.37c0,.62.44.72,1,.72,2.51,0-2.21.89,2.31,1.65a25.25,25.25,0,0,1-2.27,1.33c.6.47,1.47.14,2,.74a5.46,5.46,0,0,1-2.32.54c-.29,0-.23,0-.24,0a16.86,16.86,0,0,1,2,.64c.4.18,1,.49,1.13.52,1.09.3-1.55.65-4.12.63a4.38,4.38,0,0,1-.94-.1h0s7.23,1.81,4.84,1.81c-1.89,0-1.44.18-3.94.26,0,0-.8-.2-1.53-.4a7.82,7.82,0,0,0-.89-.23l.89.23.56.2c.08,0,5.89,2.2,4.39,2.2-1.06,0-2.08.5-3.13.5a2.72,2.72,0,0,1-.82-.12c1.79.61,3.54,1.51,5.36,2h-.2c-2.63,0-5.11-.59-7-.59-1,0-2,.08-3,.08a7.83,7.83,0,0,1-3.41-.63,7.83,7.83,0,0,1-3.41.62c-1,0-2-.09-3-.09-1.9,0-4.38.58-7,.57h-.2c1.82-.51,3.58-1.4,5.37-2a2.72,2.72,0,0,1-.82.12c-1,0-2.07-.51-3.13-.51-1.5,0,4.32-2.15,4.4-2.18l.56-.2.89-.23a7.82,7.82,0,0,0-.89.23c-.73.19-1.48.4-1.53.39-2.5-.09-2.05-.27-3.94-.28-2.38,0,4.85-1.79,4.85-1.79h0a4.38,4.38,0,0,1-.94.1c-2.57,0-5.21-.35-4.12-.64.09,0,.73-.34,1.13-.52a16.86,16.86,0,0,1,2-.63s0,0-.24,0A5.46,5.46,0,0,1,19,20.16c.53-.6,1.4-.26,2-.73a25.25,25.25,0,0,1-2.27-1.34c4.52-.75-.19-1.65,2.31-1.64.56,0,1-.1,1-.72a2,2,0,0,0,0-.37c1.33.8,3.18,1.34,3.27,3,.16,3.16,2.9,5.18,5.64,6Q31.12,24.95,31.31,25.46Z"/><path class="cls-4" d="M40.13,22.56c2.57,0,5.21-.33,4.12-.63-.09,0-.73-.34-1.13-.52a15.67,15.67,0,0,0-2-.64s-.06,0,.24,0a5.46,5.46,0,0,0,2.32-.54c-.53-.6-1.4-.27-2-.74a25.25,25.25,0,0,0,2.27-1.33c-4.52-.76.2-1.65-2.31-1.65-.56,0-1-.1-1-.72a2,2,0,0,1,0-.37c-1.34.8-3.18,1.33-3.28,3-.17,3.16-2.91,5.17-5.66,6,2.56-5.69,9-13.22,15.8-13.21,2.08,0,4.7,1.31,4.69,2.83,0,1-2,3-2,6.24,0,.61.1,1.41.1,1.45,0,1-.86,1.71-1.16,2.71-.63,2.07-.1,4.45-4.27,4.51-1.82-.51-3.57-1.41-5.36-2a2.72,2.72,0,0,0,.82.12c1,0,2.07-.5,3.13-.5,1.5,0-4.31-2.17-4.39-2.2s-1.83-.51-2-.57a17.36,17.36,0,0,0,2.94.5,23.3,23.3,0,0,0,4,0c2.38,0-4.84-1.81-4.84-1.81h0A4.38,4.38,0,0,0,40.13,22.56Z"/><path class="cls-4" d="M22.49,22.54c-2.57,0-5.21-.35-4.12-.64.09,0,.73-.34,1.13-.52a15.67,15.67,0,0,1,2-.63s.06,0-.24,0A5.46,5.46,0,0,1,19,20.16c.53-.6,1.4-.26,2-.73a25.25,25.25,0,0,1-2.27-1.34c4.52-.75-.19-1.65,2.31-1.64.56,0,1-.1,1-.72a2,2,0,0,0,0-.37c1.33.8,3.18,1.34,3.27,3,.16,3.16,2.9,5.18,5.64,6C28.34,18.71,22,11.16,15.11,11.15c-2.08,0-4.7,1.3-4.7,2.81,0,1,2,3,2,6.24,0,.61-.11,1.41-.11,1.45,0,1,.85,1.71,1.15,2.71.62,2.07.09,4.45,4.26,4.53,1.82-.51,3.58-1.4,5.37-2a2.72,2.72,0,0,1-.82.12c-1,0-2.07-.51-3.13-.51-1.5,0,4.32-2.15,4.4-2.18s1.83-.51,2-.56a17.36,17.36,0,0,1-2.94.49,23.3,23.3,0,0,1-4,0c-2.38,0,4.85-1.79,4.85-1.79h0A4.38,4.38,0,0,1,22.49,22.54Z"/></g><path class="cls-5" d="M37,18.35c.47-1.45,2.54-.92,2.75-1.37.15-1.25.15-1.66.91-2.13l0,.07c-.43.3-.32.26-.56.63-.62,2.06.44,1.5-1.7,1.9-1.26.22-1.36.93-1.36.93Z"/><path class="cls-5" d="M25.54,18.36A1.17,1.17,0,0,0,25,17.7a5.4,5.4,0,0,0-1.87-.43c-.7-.15-.24-.34-.66-1.76-.3-.47-.19-.37-.56-.63l0-.07c.76.47.76.87.91,2.13.2.45,2.27-.06,2.74,1.38Z"/><path class="cls-5" d="M39.84,16.95a.7.7,0,0,1,.4,0c.86.38,1.49,2.19,1.49,2.56-.1,2.3-5.65,4.83-8.66,6.82-1.69,1.1-1.56,1.46-2.67.59C27.1,24.49,21.76,22.29,21,20c-.2-.49-.14-.82.31-1.77.33-.68.79-1.46,1.48-1.31V17c-.63-.19-1.12.67-1.39,1.27-1,2.23-.12,2.68,6.46,6.83.59.37,1.18.75,1.74,1.16,1,.75,1.2,1,1.71,1.17h0a2.4,2.4,0,0,0,.88-.54c3.29-2.61,9-5,9.41-7.13.17-.55-.64-2.58-1.49-2.75-.06,0-.17,0-.25,0Z"/><path class="cls-5" d="M40.37,27.13l-2.3-.36c-3.79-.49-4.15.67-6.76,1.1a8.25,8.25,0,0,1-2.25-.67c-2.37-.81-2.8-.73-6.81-.1v0c6.6-1.6,5.76,0,9.07.65h0c3.22-.6,2.53-2.23,9.07-.62Z"/><path class="cls-5" d="M32.19,27.52c.18-.06.34,0,.53,0,1.4.07,2-.08,2.55.87-.87-1.24-2.51-.38-3.09-.82Z"/><path class="cls-5" d="M30.43,27.59c-.56.43-2.22-.42-3.09.81.47-.83,1.09-.84,2-.85a7.7,7.7,0,0,0,.9-.06.52.52,0,0,1,.15,0Z"/><path class="cls-5" d="M31.86,28.53C33.77,30.16,33,30,37.59,30.06a18.13,18.13,0,0,1,6.21.81l0,.07a17.21,17.21,0,0,0-6.18-.79c-4.65,0-4.15.16-5.79-1.57Z"/><path class="cls-5" d="M30.8,28.58c-1.6,1.68-1.13,1.57-5.79,1.55a17.15,17.15,0,0,0-6.19.77l0-.07c4.58-1.52,9.15-.14,10.78-1.29.59-.53.8-.7,1.17-1Z"/><path class="cls-7" d="M31.25,25c.22,1,1,2.1,1.19,3.26,0,0-.28,3-.28,3,0,.18-.36,5.25-.93,5.24s-.82-5-.82-5.16c0,0-.37-3.07-.36-3.1C30.22,27.12,31,26,31.25,25Z"/><path class="cls-8" d="M31.25,21.6c.35,0,.77.82.77,1.14s-.1.29-.6.28h-.34c-.51,0-.6-.08-.6-.29S30.9,21.64,31.25,21.6Z"/><path class="cls-9" d="M31.65,21.93a.77.77,0,0,0,0,.1c0,.28.17.45.24.45s.17,0,.17-.21a.36.36,0,0,0-.35-.34Z"/><path class="cls-9" d="M30.86,21.93a.77.77,0,0,1,0,.1c0,.28-.17.45-.24.45s-.17,0-.17-.21a.36.36,0,0,1,.35-.34Z"/><path class="cls-10" d="M31.25,22.87h.18a.8.8,0,0,1,.31.06,1.77,1.77,0,0,1,1,1.78,6,6,0,0,1-.7,2.41c-.19.33-1.45.38-1.64,0a5.75,5.75,0,0,1-.69-2.41,1.77,1.77,0,0,1,1-1.76.8.8,0,0,1,.31-.06Z"/><path class="cls-10" d="M31.32,22c-.35-1.8,5-3.95,5.68-6.24.17-.6,0-.81-.09-.74v0A.06.06,0,0,1,37,15c.07,0,.07.16.08.28,0,2.48-5.38,4.38-5.65,6.7Z"/><path class="cls-10" d="M31.11,21.81c-.26-1.66-5.41-4.82-5.89-6.16,0-.11-.06-.23,0-.27s.07.06.07,0,0-.07-.07,0c-.55.32,2.51,2.71,3,3.09,1.88,1.53,2.92,2.47,3.06,3.31Z"/></svg>