<svg id="Layer_1" data-name="Layer 1" xmlns="http://www.w3.org/2000/svg" xmlns:xlink="http://www.w3.org/1999/xlink" viewBox="0 0 62.65 62.65"><defs><style>.cls-1{fill:#2f331d;}.cls-2{fill:#525731;}.cls-3{fill:none;stroke:#fff;stroke-linecap:round;stroke-miterlimit:10;}.cls-4{fill:#1d1d1b;opacity:0.4;}.cls-5{fill:url(#linear-gradient);}.cls-6{fill:url(#linear-gradient-2);}.cls-7{fill:url(#radial-gradient);}.cls-8{fill:#d96e4c;}.cls-9{fill:url(#linear-gradient-3);}.cls-10{fill:url(#linear-gradient-4);}.cls-11{fill:url(#radial-gradient-2);}.cls-12{fill:url(#linear-gradient-5);}.cls-13{fill:url(#linear-gradient-6);}.cls-14{fill:url(#radial-gradient-3);}.cls-15{fill:url(#linear-gradient-7);}.cls-16{fill:url(#linear-gradient-8);}.cls-17{fill:url(#radial-gradient-4);}.cls-18{fill:url(#linear-gradient-9);}.cls-19{fill:url(#linear-gradient-10);}.cls-20{fill:url(#radial-gradient-5);}.cls-21{fill:url(#linear-gradient-11);}.cls-22{fill:url(#linear-gradient-12);}.cls-23{fill:url(#radial-gradient-6);}.cls-24{fill:url(#linear-gradient-13);}.cls-25{fill:url(#linear-gradient-14);}.cls-26{fill:url(#radial-gradient-7);}.cls-27{fill:url(#linear-gradient-15);}.cls-28{fill:url(#linear-gradient-16);}.cls-29{fill:url(#radial-gradient-8);}.cls-30{fill:url(#linear-gradient-17);}.cls-31{fill:url(#linear-gradient-18);}.cls-32{fill:url(#radial-gradient-9);}.cls-33{fill:url(#linear-gradient-19);}.cls-34{fill:url(#linear-gradient-20);}.cls-35{fill:url(#radial-gradient-10);}</style><linearGradient id="linear-gradient" x1="53.59" y1="32.32" x2="53.59" y2="38.92" gradientUnits="userSpaceOnUse"><stop offset="0" stop-color="#88e856"/><stop offset="1" stop-color="#2b7308"/></linearGradient><linearGradient id="linear-gradient-2" x1="53.59" y1="38.39" x2="53.59" y2="32.49" xlink:href="#linear-gradient"/><radialGradient id="radial-gradient" cx="49.17" cy="33.64" r="2.41" gradientTransform="translate(3.81 1.25) scale(1.01 1.02)" gradientUnits="userSpaceOnUse"><stop offset="0" stop-color="#49c40e"/><stop offset="1" stop-color="#88e856"/></radialGradient><linearGradient id="linear-gradient-3" x1="42.46" y1="32.32" x2="42.46" y2="38.92" xlink:href="#linear-gradient"/><linearGradient id="linear-gradient-4" x1="42.46" y1="38.39" x2="42.46" y2="32.49" xlink:href="#linear-gradient"/><radialGradient id="radial-gradient-2" cx="38.17" cy="33.64" r="2.41" xlink:href="#radial-gradient"/><linearGradient id="linear-gradient-5" x1="31.33" y1="32.32" x2="31.33" y2="38.92" xlink:href="#linear-gradient"/><linearGradient id="linear-gradient-6" x1="31.33" y1="38.39" x2="31.33" y2="32.49" xlink:href="#linear-gradient"/><radialGradient id="radial-gradient-3" cx="27.18" cy="33.64" r="2.41" xlink:href="#radial-gradient"/><linearGradient id="linear-gradient-7" x1="20.19" y1="32.32" x2="20.19" y2="38.92" xlink:href="#linear-gradient"/><linearGradient id="linear-gradient-8" x1="20.19" y1="38.39" x2="20.19" y2="32.49" xlink:href="#linear-gradient"/><radialGradient id="radial-gradient-4" cx="16.18" cy="33.64" r="2.41" xlink:href="#radial-gradient"/><linearGradient id="linear-gradient-9" x1="9.06" y1="32.32" x2="9.06" y2="38.92" xlink:href="#linear-gradient"/><linearGradient id="linear-gradient-10" x1="9.06" y1="38.39" x2="9.06" y2="32.49" xlink:href="#linear-gradient"/><radialGradient id="radial-gradient-5" cx="5.19" cy="33.64" r="2.41" xlink:href="#radial-gradient"/><linearGradient id="linear-gradient-11" x1="53.59" y1="23.73" x2="53.59" y2="30.33" xlink:href="#linear-gradient"/><linearGradient id="linear-gradient-12" x1="53.59" y1="29.8" x2="53.59" y2="23.9" xlink:href="#linear-gradient"/><radialGradient id="radial-gradient-6" cx="49.17" cy="25.19" r="2.41" xlink:href="#radial-gradient"/><linearGradient id="linear-gradient-13" x1="42.46" y1="23.73" x2="42.46" y2="30.33" xlink:href="#linear-gradient"/><linearGradient id="linear-gradient-14" x1="42.46" y1="29.8" x2="42.46" y2="23.9" xlink:href="#linear-gradient"/><radialGradient id="radial-gradient-7" cx="38.17" cy="25.19" r="2.41" xlink:href="#radial-gradient"/><linearGradient id="linear-gradient-15" x1="31.33" y1="23.73" x2="31.33" y2="30.33" xlink:href="#linear-gradient"/><linearGradient id="linear-gradient-16" x1="31.33" y1="29.8" x2="31.33" y2="23.9" xlink:href="#linear-gradient"/><radialGradient id="radial-gradient-8" cx="27.18" cy="25.19" r="2.41" xlink:href="#radial-gradient"/><linearGradient id="linear-gradient-17" x1="20.19" y1="23.73" x2="20.19" y2="30.33" xlink:href="#linear-gradient"/><linearGradient id="linear-gradient-18" x1="20.19" y1="29.8" x2="20.19" y2="23.9" xlink:href="#linear-gradient"/><radialGradient id="radial-gradient-9" cx="16.18" cy="25.19" r="2.41" xlink:href="#radial-gradient"/><linearGradient id="linear-gradient-19" x1="9.06" y1="23.73" x2="9.06" y2="30.33" xlink:href="#linear-gradient"/><linearGradient id="linear-gradient-20" x1="9.06" y1="29.8" x2="9.06" y2="23.9" xlink:href="#linear-gradient"/><radialGradient id="radial-gradient-10" cx="5.19" cy="25.19" r="2.41" xlink:href="#radial-gradient"/></defs><title>circle-icon</title><circle class="cls-1" cx="31.33" cy="31.33" r="31.33"/><path class="cls-2" d="M31.33,61.65A30.33,30.33,0,1,1,61.65,31.33,30.36,30.36,0,0,1,31.33,61.65Z"/><rect class="cls-3" x="3.5" y="22.74" width="11.13" height="8.59"/><rect class="cls-3" x="14.63" y="22.74" width="11.13" height="8.59"/><rect class="cls-3" x="25.76" y="31.33" width="11.13" height="8.59"/><rect class="cls-3" x="36.89" y="31.33" width="11.13" height="8.59"/><rect class="cls-3" x="36.89" y="22.74" width="11.13" height="8.59"/><rect class="cls-3" x="48.02" y="22.74" width="11.13" height="8.59"/><rect class="cls-3" x="48.02" y="31.33" width="11.13" height="8.59"/><rect class="cls-3" x="25.76" y="22.74" width="11.13" height="8.59"/><rect class="cls-3" x="3.5" y="31.33" width="11.13" height="8.59"/><rect class="cls-3" x="14.63" y="31.33" width="11.13" height="8.59"/><ellipse class="cls-4" cx="53.59" cy="35.44" rx="3.12" ry="3.13"/><ellipse class="cls-5" cx="53.59" cy="35.44" rx="3.12" ry="3.13"/><ellipse class="cls-6" cx="53.59" cy="35.44" rx="2.97" ry="2.98"/><ellipse class="cls-7" cx="53.59" cy="35.44" rx="2.44" ry="2.44"/><path class="cls-8" d="M55.17,34.2l-1.25,1.25,1.2,1.2L54.8,37l-1.2-1.2L52.35,37,52,36.68l1.26-1.26-1.2-1.2.32-.32,1.2,1.2,1.25-1.25Z"/><ellipse class="cls-4" cx="42.46" cy="35.44" rx="3.12" ry="3.13"/><ellipse class="cls-9" cx="42.46" cy="35.44" rx="3.12" ry="3.13"/><ellipse class="cls-10" cx="42.46" cy="35.44" rx="2.97" ry="2.98"/><ellipse class="cls-11" cx="42.46" cy="35.44" rx="2.44" ry="2.44"/><path class="cls-8" d="M44,34.2l-1.25,1.25,1.2,1.2-.32.32-1.2-1.2L41.21,37l-.34-.34,1.26-1.26-1.2-1.2.32-.32,1.2,1.2,1.25-1.25Z"/><ellipse class="cls-4" cx="31.33" cy="35.44" rx="3.12" ry="3.13"/><ellipse class="cls-12" cx="31.33" cy="35.44" rx="3.12" ry="3.13"/><ellipse class="cls-13" cx="31.33" cy="35.44" rx="2.97" ry="2.98"/><ellipse class="cls-14" cx="31.33" cy="35.44" rx="2.44" ry="2.44"/><path class="cls-8" d="M32.91,34.2l-1.25,1.25,1.2,1.2-.32.32-1.2-1.2L30.08,37l-.34-.34L31,35.42l-1.2-1.2.32-.32,1.2,1.2,1.25-1.25Z"/><ellipse class="cls-4" cx="20.19" cy="35.44" rx="3.12" ry="3.13"/><ellipse class="cls-15" cx="20.19" cy="35.44" rx="3.12" ry="3.13"/><ellipse class="cls-16" cx="20.19" cy="35.44" rx="2.97" ry="2.98"/><ellipse class="cls-17" cx="20.19" cy="35.44" rx="2.44" ry="2.44"/><path class="cls-8" d="M21.78,34.2l-1.25,1.25,1.2,1.2-.32.32-1.2-1.2L19,37l-.34-.34,1.26-1.26-1.2-1.2L19,33.9l1.2,1.2,1.25-1.25Z"/><ellipse class="cls-4" cx="9.06" cy="35.44" rx="3.12" ry="3.13"/><ellipse class="cls-18" cx="9.06" cy="35.44" rx="3.12" ry="3.13"/><ellipse class="cls-19" cx="9.06" cy="35.44" rx="2.97" ry="2.98"/><ellipse class="cls-20" cx="9.06" cy="35.44" rx="2.44" ry="2.44"/><ellipse class="cls-4" cx="53.59" cy="26.85" rx="3.12" ry="3.13"/><ellipse class="cls-21" cx="53.59" cy="26.85" rx="3.12" ry="3.13"/><ellipse class="cls-22" cx="53.59" cy="26.85" rx="2.97" ry="2.98"/><ellipse class="cls-23" cx="53.59" cy="26.85" rx="2.44" ry="2.44"/><ellipse class="cls-4" cx="42.46" cy="26.85" rx="3.12" ry="3.13"/><ellipse class="cls-24" cx="42.46" cy="26.85" rx="3.12" ry="3.13"/><ellipse class="cls-25" cx="42.46" cy="26.85" rx="2.97" ry="2.98"/><ellipse class="cls-26" cx="42.46" cy="26.85" rx="2.44" ry="2.44"/><ellipse class="cls-4" cx="31.33" cy="26.85" rx="3.12" ry="3.13"/><ellipse class="cls-27" cx="31.33" cy="26.85" rx="3.12" ry="3.13"/><ellipse class="cls-28" cx="31.33" cy="26.85" rx="2.97" ry="2.98"/><ellipse class="cls-29" cx="31.33" cy="26.85" rx="2.44" ry="2.44"/><ellipse class="cls-4" cx="20.19" cy="26.85" rx="3.12" ry="3.13"/><ellipse class="cls-30" cx="20.19" cy="26.85" rx="3.12" ry="3.13"/><ellipse class="cls-31" cx="20.19" cy="26.85" rx="2.97" ry="2.98"/><ellipse class="cls-32" cx="20.19" cy="26.85" rx="2.44" ry="2.44"/><ellipse class="cls-4" cx="9.06" cy="26.85" rx="3.12" ry="3.13"/><ellipse class="cls-33" cx="9.06" cy="26.85" rx="3.12" ry="3.13"/><ellipse class="cls-34" cx="9.06" cy="26.85" rx="2.97" ry="2.98"/><ellipse class="cls-35" cx="9.06" cy="26.85" rx="2.44" ry="2.44"/></svg>