<svg id="Layer_1" data-name="Layer 1" xmlns="http://www.w3.org/2000/svg" xmlns:xlink="http://www.w3.org/1999/xlink" viewBox="0 0 62.65 62.65"><defs><style>.cls-1{fill:#2f331d;}.cls-2{fill:#525731;}.cls-3{fill:#d96e4c;}.cls-4{fill:#fff;}.cls-5{fill:url(#linear-gradient);}.cls-6{fill:url(#linear-gradient-2);}.cls-7{fill:url(#linear-gradient-3);}.cls-8{fill:url(#linear-gradient-4);}.cls-9{fill:url(#linear-gradient-5);}.cls-10{fill:url(#linear-gradient-6);}.cls-11{fill:url(#linear-gradient-7);}.cls-12{fill:url(#linear-gradient-8);}.cls-13{fill:url(#linear-gradient-9);}.cls-14{fill:url(#linear-gradient-10);}.cls-15{fill:url(#linear-gradient-11);}.cls-16{fill:url(#linear-gradient-12);}.cls-17{fill:url(#linear-gradient-13);}.cls-18{fill:url(#linear-gradient-14);}.cls-19{fill:url(#linear-gradient-15);}.cls-20{fill:url(#linear-gradient-16);}.cls-21{fill:url(#linear-gradient-17);}.cls-22{fill:url(#radial-gradient);}.cls-23{fill:url(#radial-gradient-2);}.cls-24{fill:url(#linear-gradient-18);}.cls-25{fill:url(#linear-gradient-19);}.cls-26{fill:url(#linear-gradient-20);}.cls-27{fill:url(#linear-gradient-21);}.cls-28{fill:url(#linear-gradient-22);}.cls-29{fill:url(#linear-gradient-23);}.cls-30{fill:#221f1f;}.cls-31{fill:#7ae700;}</style><linearGradient id="linear-gradient" x1="-16.35" y1="21.75" x2="-16.23" y2="22.34" gradientTransform="translate(21.05)" gradientUnits="userSpaceOnUse"><stop offset="0" stop-color="#84c241"/><stop offset="0.02" stop-color="#89c441"/><stop offset="0.17" stop-color="#a3cd43"/><stop offset="0.3" stop-color="#b3d345"/><stop offset="0.4" stop-color="#b9d545"/><stop offset="1" stop-color="#456f34"/></linearGradient><linearGradient id="linear-gradient-2" x1="-16.47" y1="23.67" x2="-15.93" y2="23.8" gradientTransform="translate(21.05)" gradientUnits="userSpaceOnUse"><stop offset="0" stop-color="#456f34"/><stop offset="0.6" stop-color="#b9d545"/><stop offset="0.7" stop-color="#b3d345"/><stop offset="0.83" stop-color="#a3cd43"/><stop offset="0.98" stop-color="#89c441"/><stop offset="1" stop-color="#84c241"/></linearGradient><linearGradient id="linear-gradient-3" x1="-16.4" y1="23.82" x2="-16.58" y2="24.65" gradientTransform="translate(21.05)" gradientUnits="userSpaceOnUse"><stop offset="0" stop-color="#b9d545"/><stop offset="0.24" stop-color="#d5b136"/><stop offset="0.47" stop-color="#ec922a"/><stop offset="0.61" stop-color="#f58725"/><stop offset="1" stop-color="#965624"/></linearGradient><linearGradient id="linear-gradient-4" x1="-12.99" y1="22.65" x2="-12.58" y2="22.65" gradientTransform="translate(21.05)" gradientUnits="userSpaceOnUse"><stop offset="0" stop-color="#264b9b"/><stop offset="1" stop-color="#10bef0"/></linearGradient><linearGradient id="linear-gradient-5" x1="-12.46" y1="22.84" x2="-12.02" y2="22.84" xlink:href="#linear-gradient-4"/><linearGradient id="linear-gradient-6" x1="-12.88" y1="22.74" x2="-11.83" y2="22.63" xlink:href="#linear-gradient-2"/><linearGradient id="linear-gradient-7" x1="-16.58" y1="23.21" x2="-16.46" y2="22.81" xlink:href="#linear-gradient-2"/><linearGradient id="linear-gradient-8" x1="-16.54" y1="23.06" x2="-16.22" y2="21.93" xlink:href="#linear-gradient-2"/><linearGradient id="linear-gradient-9" x1="-14.57" y1="24.17" x2="-14.04" y2="22.28" xlink:href="#linear-gradient-2"/><linearGradient id="linear-gradient-10" x1="-14" y1="24.28" x2="-13.9" y2="23.37" xlink:href="#linear-gradient-4"/><linearGradient id="linear-gradient-11" x1="-9119.65" y1="24.12" x2="-9118.38" y2="24.12" gradientTransform="matrix(-1, 0, 0, 1, -9110.65, 0)" xlink:href="#linear-gradient-4"/><linearGradient id="linear-gradient-12" x1="-12.95" y1="25.42" x2="-13.64" y2="25.71" xlink:href="#linear-gradient-3"/><linearGradient id="linear-gradient-13" x1="-13" y1="25.41" x2="-13.58" y2="25.01" xlink:href="#linear-gradient-3"/><linearGradient id="linear-gradient-14" x1="-13.22" y1="23.95" x2="-12.62" y2="24.32" xlink:href="#linear-gradient-2"/><linearGradient id="linear-gradient-15" x1="-12.12" y1="24.79" x2="-11.76" y2="25.39" xlink:href="#linear-gradient-2"/><linearGradient id="linear-gradient-16" x1="-12.31" y1="24.25" x2="-12.1" y2="24.8" xlink:href="#linear-gradient-2"/><linearGradient id="linear-gradient-17" x1="-9115.8" y1="22.47" x2="-9114.86" y2="22.47" gradientTransform="matrix(-1, 0, 0, 1, -9110.65, 0)" xlink:href="#linear-gradient"/><radialGradient id="radial-gradient" cx="-9083.65" cy="22.39" r="0.4" gradientTransform="matrix(-1.23, 0, 0, 1, -11126.86, 0)" gradientUnits="userSpaceOnUse"><stop offset="0" stop-color="#3066af"/><stop offset="0.71" stop-color="#2b60ab"/><stop offset="1" stop-color="#285ca8"/></radialGradient><radialGradient id="radial-gradient-2" cx="-9083.64" cy="22.41" r="0.37" gradientTransform="matrix(-1.23, 0, 0, 1, -11126.86, 0)" gradientUnits="userSpaceOnUse"><stop offset="0" stop-color="#ed4523"/><stop offset="0.13" stop-color="#e74322"/><stop offset="0.3" stop-color="#d73e20"/><stop offset="0.49" stop-color="#bb351d"/><stop offset="0.69" stop-color="#952918"/><stop offset="0.91" stop-color="#651912"/><stop offset="1" stop-color="#4e120f"/></radialGradient><linearGradient id="linear-gradient-18" x1="-14.14" y1="23.32" x2="-14.29" y2="24.02" gradientTransform="translate(21.05)" gradientUnits="userSpaceOnUse"><stop offset="0" stop-color="#fbed34"/><stop offset="0.17" stop-color="#e9e739"/><stop offset="0.49" stop-color="#cfdd3f"/><stop offset="0.78" stop-color="#bfd744"/><stop offset="1" stop-color="#b9d545"/></linearGradient><linearGradient id="linear-gradient-19" x1="-9119.28" y1="24.01" x2="-9118.01" y2="24.01" gradientTransform="matrix(-1, 0, 0, 1, -9110.65, 0)" xlink:href="#linear-gradient-4"/><linearGradient id="linear-gradient-20" x1="-14.99" y1="25.35" x2="-15.87" y2="25.95" xlink:href="#linear-gradient-3"/><linearGradient id="linear-gradient-21" x1="-15.53" y1="23.92" x2="-14.44" y2="23.61" xlink:href="#linear-gradient-2"/><linearGradient id="linear-gradient-22" x1="-15.08" y1="24.73" x2="-14.46" y2="25" xlink:href="#linear-gradient-2"/><linearGradient id="linear-gradient-23" x1="-15.06" y1="24.05" x2="-14.55" y2="23.55" xlink:href="#linear-gradient-4"/></defs><title>numberline-icon</title><circle class="cls-1" cx="31.33" cy="31.33" r="31.33"/><path class="cls-2" d="M31.33,61.65A30.33,30.33,0,1,1,61.65,31.33,30.36,30.36,0,0,1,31.33,61.65Z"/><path class="cls-3" d="M5.53,37.89A1.19,1.19,0,0,1,6,37.58a1.71,1.71,0,0,1,.68-.12,1.45,1.45,0,0,1,.71.17,1.14,1.14,0,0,1,.47.49,3.56,3.56,0,0,1,.3,1.59,2.85,2.85,0,0,1-.45,1.82A1.35,1.35,0,0,1,6.6,42q-1.3,0-1.5-1.54a6.37,6.37,0,0,1,0-.72,5.84,5.84,0,0,1,0-.72,2.84,2.84,0,0,1,.15-.61A1.53,1.53,0,0,1,5.53,37.89Zm1.9.62a.78.78,0,0,0-.3-.41.89.89,0,0,0-.5-.14,1,1,0,0,0-.47.1.79.79,0,0,0-.29.25,1.25,1.25,0,0,0-.16.4,2.65,2.65,0,0,0-.08.47q0,.22,0,.53t0,.53a2.67,2.67,0,0,0,.08.47,1.25,1.25,0,0,0,.16.4.78.78,0,0,0,.29.25,1,1,0,0,0,.88,0,.81.81,0,0,0,.29-.25,1.14,1.14,0,0,0,.16-.4,3.73,3.73,0,0,0,.1-.89,6.67,6.67,0,0,0,0-.77A2.54,2.54,0,0,0,7.44,38.5Z"/><path class="cls-3" d="M22.44,42V38.09h-.5v-.5h1V42Z"/><path class="cls-3" d="M38.91,41.9v-.4l.46-.4.47-.41.4-.38a4.28,4.28,0,0,0,.38-.4c.09-.11.18-.23.27-.37a1.41,1.41,0,0,0,.26-.78.93.93,0,0,0-.2-.62.77.77,0,0,0-.62-.23.81.81,0,0,0-.65.26,1.1,1.1,0,0,0-.24.69h-.53a1.49,1.49,0,0,1,.41-1.06,1.56,1.56,0,0,1,2,0,1.26,1.26,0,0,1,.38,1A2.29,2.29,0,0,1,41,40.26q-.26.28-.4.41-.39.38-.84.76h2.08v.47Z"/><path class="cls-3" d="M56.33,37.67a1.59,1.59,0,0,1,1-.31,1.38,1.38,0,0,1,1,.33,1.08,1.08,0,0,1,.36.83,1,1,0,0,1-.2.64,1,1,0,0,1-.52.37v0a1,1,0,0,1,.59.41,1.37,1.37,0,0,1,.21.81,1.14,1.14,0,0,1-.37.86,1.42,1.42,0,0,1-1,.35,1.64,1.64,0,0,1-1.06-.33,1.26,1.26,0,0,1-.46-.94h.52a.83.83,0,0,0,.29.58,1,1,0,0,0,.69.22.89.89,0,0,0,.66-.23.81.81,0,0,0,.23-.6.77.77,0,0,0-.3-.69,1.71,1.71,0,0,0-.93-.2h-.15v-.47H57q1.15,0,1.15-.75a.69.69,0,0,0-.22-.54.87.87,0,0,0-.61-.2,1,1,0,0,0-.62.18.75.75,0,0,0-.27.48h-.54A1.14,1.14,0,0,1,56.33,37.67Z"/><rect class="cls-4" x="4.17" y="32.75" width="54.11" height="1.92"/><path class="cls-4" d="M5.81,26.22h0a1.63,1.63,0,0,1,1.63,1.63v5.41a0,0,0,0,1,0,0H4.18a0,0,0,0,1,0,0V27.86A1.63,1.63,0,0,1,5.81,26.22Z"/><path class="cls-4" d="M22.76,26.22h0a1.63,1.63,0,0,1,1.63,1.63v5.41a0,0,0,0,1,0,0H21.13a0,0,0,0,1,0,0V27.86A1.63,1.63,0,0,1,22.76,26.22Z"/><path class="cls-4" d="M39.71,26.22h0a1.63,1.63,0,0,1,1.63,1.63v5.41a0,0,0,0,1,0,0H38.08a0,0,0,0,1,0,0V27.86A1.63,1.63,0,0,1,39.71,26.22Z"/><path class="cls-4" d="M58.28,27.76a1.62,1.62,0,0,0-1.62-1.53h0A1.63,1.63,0,0,0,55,27.85v5.42h3.25Z"/><path class="cls-5" d="M4.34,22.24a.52.52,0,0,0,.63.19.36.36,0,0,0,.23-.51.52.52,0,0,0-.63-.19A.36.36,0,0,0,4.34,22.24Z"/><path class="cls-6" d="M4.8,23.88a.32.32,0,0,1,.24.06.28.28,0,0,1,0-.09.72.72,0,0,0,0-.1l.05-.14h0l-.34-.2v0l-.12.34a.56.56,0,0,1-.07.14.32.32,0,0,1-.09.07l0,0C4.62,24,4.71,23.93,4.8,23.88Z"/><path class="cls-7" d="M5.54,24.13a.17.17,0,0,0-.2-.05l0,0c-.09,0-.21,0-.24-.11a.09.09,0,0,1,0-.05.32.32,0,0,0-.24-.06c-.09,0-.18.12-.29.1s-.31.11-.45.19a1,1,0,0,0-.24.18s-.11.1-.13.16h-.1c-.09,0-.13.11-.09.17a.18.18,0,0,0,.22.06c.08,0,.13-.11.09-.17a1.1,1.1,0,0,0,.13-.15,1,1,0,0,1,.26-.22s.23-.11.23,0,0,.06-.06.09l-.08.13a.69.69,0,0,0-.09.27h0a.13.13,0,0,0-.09.19A.19.19,0,0,0,4.3,25a.13.13,0,0,0,.09-.19l0,0a.85.85,0,0,0,.09-.29.62.62,0,0,1,.1-.19c0-.05.05-.1.12-.12a.42.42,0,0,1,.06.24.69.69,0,0,0,0,.14c-.07,0-.1.11-.07.16a.2.2,0,0,0,.24,0c.1,0,.14-.12.11-.18a.16.16,0,0,0-.14-.06v-.05c0-.07,0-.25,0-.3s.09,0,.13,0l.16.05h0a.1.1,0,0,0,0,0,.17.17,0,0,0,.2.05C5.54,24.26,5.57,24.19,5.54,24.13Z"/><path class="cls-8" d="M8.06,22.62l.41.18a2.58,2.58,0,0,1-.18-.29A.9.9,0,0,0,8.06,22.62Z"/><path class="cls-9" d="M9,23.14a1.08,1.08,0,0,0-.44-.61,1.63,1.63,0,0,1,.11.38l.11.07Z"/><path class="cls-10" d="M8.5,22.49a.34.34,0,0,0-.21,0,2.58,2.58,0,0,0,.18.29l.23.12a1.63,1.63,0,0,0-.11-.38Z"/><path class="cls-11" d="M4.29,23.15l.16.06h0a7.06,7.06,0,0,0,1-.1l.11,0a5.89,5.89,0,0,1-2-.29A2.7,2.7,0,0,0,4.29,23.15Z"/><path class="cls-12" d="M5.68,23a1.49,1.49,0,0,0-.48-1,4.6,4.6,0,0,0-.53.07,3.37,3.37,0,0,0-.69.1c-.39.1-.58.38-.5.54l0,.05a5.89,5.89,0,0,0,2,.29C5.63,23.07,5.68,23,5.68,23Z"/><path class="cls-13" d="M9,23.29a.2.2,0,0,0,0-.15H9L8.81,23a9.09,9.09,0,0,0-1.08-.5,2.6,2.6,0,0,0-.83-.14,1.42,1.42,0,0,1-1-.22A1.42,1.42,0,0,0,5.2,22a1.49,1.49,0,0,1,.48,1c0,.06-.14.1-.22.11a7.06,7.06,0,0,1-1,.1h0l.38.18.34.2.12.09A4,4,0,0,0,5.8,24a3.76,3.76,0,0,1-.38-.64h.2s0-.07,0-.11a11.26,11.26,0,0,1,3.06.5l.09-.06A.65.65,0,0,0,9,23.29Z"/><path class="cls-14" d="M5.63,23.4a2.07,2.07,0,0,1,1.19.84v0c.1.11.82,0,.89,0a3,3,0,0,0,.94-.37,11.11,11.11,0,0,0-3-.5S5.59,23.36,5.63,23.4Z"/><path class="cls-15" d="M9,23.65c-.05-.12-.11-.2-.24-.1a3.92,3.92,0,0,0-1,1.17c.21-.12.46-.19.68-.31l-.08,0S8.93,24,9,23.65Z"/><path class="cls-16" d="M7.64,25.28a2.26,2.26,0,0,0-.33,0,.24.24,0,0,0-.21-.06c-.11,0-.2.09-.18.16s.12.12.23.11a.21.21,0,0,0,.18-.11c.11,0,.29,0,.38.06s.24.11.16.23a.26.26,0,0,0,0,.08h0c-.11,0-.18.09-.17.18a.2.2,0,0,0,.23.13c.11,0,.18-.09.17-.18a.13.13,0,0,0,0-.05l.05-.06a.79.79,0,0,0-.38-.42S7.66,25.32,7.64,25.28Z"/><path class="cls-17" d="M7.64,25.21c.09-.07.19,0,.3,0l-.14-.07A2.86,2.86,0,0,1,7.48,25a.12.12,0,0,0-.1.12.15.15,0,0,0,.17.09h0a.32.32,0,0,0,.08.09A.07.07,0,0,1,7.64,25.21Z"/><path class="cls-18" d="M7.73,24.71a3.94,3.94,0,0,1,1-1.16c.12-.1.18,0,.24.1a.19.19,0,0,0,0-.09.33.33,0,0,0-.37-.24,12.86,12.86,0,0,0-1.28,1.37.18.18,0,0,0,0,.19l.08.06.09,0A.37.37,0,0,1,7.73,24.71Z"/><path class="cls-19" d="M8.66,25.22c-.18,0-.67,0-.67,0l-.06,0c-.1,0-.21,0-.3,0a.07.07,0,0,0,0,0l0,0h0s.06.09.06.11a.79.79,0,0,1,.38.42c.1-.11.19-.26.28-.27a1.1,1.1,0,0,0,.86-.28c.37-.35,1-.76,1-.95a1.38,1.38,0,0,0-.48.17C9.65,24.54,8.83,25.24,8.66,25.22Z"/><path class="cls-20" d="M9.49,24c-.37.1-.88.3-1.08.38s-.47.19-.68.31h0a.37.37,0,0,0-.17.28l.23.11A1,1,0,0,0,8.33,25c.37-.13,1.41-.56,1.41-.56h0a1.38,1.38,0,0,1,.48-.17h0C10.16,24.12,10,23.9,9.49,24Z"/><path class="cls-21" d="M4.25,22.63a.52.52,0,0,0,.63.19.36.36,0,0,0,.23-.51.52.52,0,0,0-.63-.19A.36.36,0,0,0,4.25,22.63Z"/><path class="cls-22" d="M4.27,22.64a.47.47,0,0,0,.57.17.33.33,0,0,0,.21-.47.47.47,0,0,0-.57-.17A.33.33,0,0,0,4.27,22.64Z"/><path class="cls-23" d="M4.28,22.64a.44.44,0,0,0,.53.16.3.3,0,0,0,.2-.43.44.44,0,0,0-.53-.16A.3.3,0,0,0,4.28,22.64Z"/><path class="cls-24" d="M8.11,23.62l-.36-.08-.23-.06-.11,0-.12,0L7,23.38l-.21,0-.2-.05a1.07,1.07,0,0,0-.25,0H6.1l-.13,0H5.72a.35.35,0,0,0-.18,0s-.05,0,0,.07a.1.1,0,0,0,.07.05s0,0,.06,0,0-.08,0-.08a.62.62,0,0,1,.24,0h0l.05,0s0,0,0,0l0,.09s.05.09.09.08,0-.09,0-.11,0-.07,0-.07.12,0,.14.07,0,.13,0,.2a.66.66,0,0,0,.06.16s.06.09.11.09,0-.07,0-.08l-.06-.13a.41.41,0,0,1,0-.14.14.14,0,0,1,.07-.14.18.18,0,0,1,.24.06.44.44,0,0,1,0,.34.38.38,0,0,0,0,.27.09.09,0,0,0,.09,0s0,0,0-.05,0-.17,0-.26A.75.75,0,0,1,7,23.53c0-.05.06-.11.14-.08s.13.2.12.3-.09.36,0,.37.08-.06.09-.08l.08-.15c0-.09.06-.18.11-.27s.06-.07.1,0a.16.16,0,0,1,0,.11c0,.07,0,.13,0,.2s0,.09,0,.11.05,0,.07,0l.08-.13a.89.89,0,0,1,0-.09c.06-.09.2,0,.29,0s.09,0,.1,0S8.15,23.63,8.11,23.62Z"/><path class="cls-25" d="M8.63,23.33a.46.46,0,0,0-.28.12s-.89.82-1,1.24A12.86,12.86,0,0,1,8.63,23.33Z"/><path class="cls-26" d="M5.74,25.47c-.07,0,0-.14,0-.24l0,0a2.33,2.33,0,0,0-.16-.19.09.09,0,0,0,0-.1.15.15,0,0,0-.18-.05.1.1,0,0,0-.07.15.14.14,0,0,0,.15.06,2.27,2.27,0,0,0,.2.26,2.1,2.1,0,0,0-.7,0l0,0a.21.21,0,0,0-.14,0c-.08,0-.12.11-.09.17a.18.18,0,0,0,.21.06.13.13,0,0,0,.1-.13c.19-.1.62.06.62.06a.73.73,0,0,0-.58.42H5a.1.1,0,0,0-.06.14.15.15,0,0,0,.17.05A.1.1,0,0,0,5.18,26l0,0a.61.61,0,0,1,.11-.2c.13-.18.51-.15.51-.15a1.13,1.13,0,0,0,0,.39.26.26,0,0,0,0,.07.11.11,0,0,0,0,.14.17.17,0,0,0,.21.05c.08,0,.12-.1.09-.17a.17.17,0,0,0-.19-.06h0c-.12-.2.05-.51.05-.51L6,25.47A.53.53,0,0,1,5.74,25.47Z"/><path class="cls-27" d="M6.58,24.16l0,0a5.64,5.64,0,0,1-1-.74H5.43A3.76,3.76,0,0,0,5.8,24l.36.21v.05A.66.66,0,0,1,6.58,24.16Z"/><path class="cls-28" d="M6.15,24.29c0,.18-.18.74-.2.79s-.12.11-.18.15-.11.2,0,.24a.53.53,0,0,0,.29,0c.1-.08.26-.22.44-.38a1.31,1.31,0,0,0,.31-.69,1.08,1.08,0,0,0-.21-.24A.66.66,0,0,0,6.15,24.29Z"/><path class="cls-29" d="M5.51,23.39a5.64,5.64,0,0,0,1,.74,1.11,1.11,0,0,1,.25.28c0-.07,0-.13,0-.16A1.91,1.91,0,0,0,5.51,23.39Z"/><path class="cls-30" d="M4.53,22.68l.1-.41A.53.53,0,0,0,4.53,22.68Z"/><ellipse class="cls-4" cx="4.76" cy="22.36" rx="0.04" ry="0.04"/><path class="cls-4" d="M5.17,22.14h.34l.23,0a1,1,0,0,1,.26.09l0,0,0,0h.06l.14,0,.32,0,.34,0,.34.06.16,0,.15.06.28.11.25.1.11,0,.1,0,.16.07.1,0,0,0h0l-.11,0-.17-.06-.1,0-.11,0-.25-.09-.28-.1-.15-.05-.15,0-.32-.05-.33,0-.33,0-.16,0,0,0,0,0,0,0,0,0a1,1,0,0,0-.24-.1l-.22-.05-.18,0H5.17Z"/><path class="cls-31" d="M6.6,25.66h.07a.31.31,0,0,0,.3-.24,7.56,7.56,0,0,1,.65-1.71.31.31,0,1,0-.55-.29,8.17,8.17,0,0,0-.7,1.85A.31.31,0,0,0,6.6,25.66Z"/><path class="cls-31" d="M8.42,22.31a.31.31,0,0,0,.23-.1A7.65,7.65,0,0,1,10,21a.31.31,0,0,0-.35-.51A8.28,8.28,0,0,0,8.19,21.8a.31.31,0,0,0,.23.51Z"/><path class="cls-31" d="M11.53,20.15l.11,0a7.56,7.56,0,0,1,1.78-.44.31.31,0,0,0-.08-.61,8.19,8.19,0,0,0-1.92.48.31.31,0,0,0,.11.6Z"/><path class="cls-31" d="M21.73,25.39a.31.31,0,0,0,.3.23h.07a.31.31,0,0,0,.22-.37,8.18,8.18,0,0,0-.71-1.85.31.31,0,0,0-.54.29A7.56,7.56,0,0,1,21.73,25.39Z"/><path class="cls-31" d="M15.25,19.69a7.58,7.58,0,0,1,1.78.43l.11,0a.31.31,0,0,0,.11-.6,8.2,8.2,0,0,0-1.93-.47.31.31,0,0,0-.07.61Z"/><path class="cls-31" d="M20,22.17a.31.31,0,0,0,.46-.41A8.28,8.28,0,0,0,19,20.46a.31.31,0,1,0-.35.51A7.64,7.64,0,0,1,20,22.17Z"/><path class="cls-31" d="M23.55,25.66h.07a.31.31,0,0,0,.3-.24,7.56,7.56,0,0,1,.65-1.71.31.31,0,1,0-.55-.29,8.17,8.17,0,0,0-.7,1.85A.31.31,0,0,0,23.55,25.66Z"/><path class="cls-31" d="M25.37,22.31a.31.31,0,0,0,.23-.1A7.65,7.65,0,0,1,27,21a.31.31,0,0,0-.35-.51,8.28,8.28,0,0,0-1.48,1.32.31.31,0,0,0,.23.51Z"/><path class="cls-31" d="M28.48,20.15l.11,0a7.56,7.56,0,0,1,1.78-.44.31.31,0,0,0-.08-.61,8.19,8.19,0,0,0-1.92.48.31.31,0,0,0,.11.6Z"/><path class="cls-31" d="M38.68,25.39a.31.31,0,0,0,.3.23h.07a.31.31,0,0,0,.22-.37,8.18,8.18,0,0,0-.71-1.85.31.31,0,0,0-.54.29A7.56,7.56,0,0,1,38.68,25.39Z"/><path class="cls-31" d="M32.2,19.69a7.58,7.58,0,0,1,1.78.43l.11,0a.31.31,0,0,0,.11-.6,8.2,8.2,0,0,0-1.93-.47.31.31,0,1,0-.07.61Z"/><path class="cls-31" d="M37,22.17a.31.31,0,0,0,.46-.41A8.28,8.28,0,0,0,36,20.46a.31.31,0,1,0-.35.51A7.64,7.64,0,0,1,37,22.17Z"/><path class="cls-31" d="M40.5,25.66h.07a.31.31,0,0,0,.3-.24,7.56,7.56,0,0,1,.65-1.71.31.31,0,1,0-.55-.29,8.17,8.17,0,0,0-.7,1.85A.31.31,0,0,0,40.5,25.66Z"/><path class="cls-31" d="M42.33,22.31a.31.31,0,0,0,.23-.1A7.65,7.65,0,0,1,43.92,21a.31.31,0,0,0-.35-.51,8.28,8.28,0,0,0-1.48,1.32.31.31,0,0,0,.23.51Z"/><path class="cls-31" d="M45.43,20.15l.11,0a7.56,7.56,0,0,1,1.78-.44.31.31,0,0,0-.08-.61,8.19,8.19,0,0,0-1.92.48.31.31,0,0,0,.11.6Z"/><path class="cls-31" d="M55.64,25.39a.31.31,0,0,0,.3.23H56a.31.31,0,0,0,.22-.37,8.18,8.18,0,0,0-.71-1.85.31.31,0,0,0-.54.29A7.56,7.56,0,0,1,55.64,25.39Z"/><path class="cls-31" d="M49.15,19.69a7.58,7.58,0,0,1,1.78.43l.11,0a.31.31,0,0,0,.11-.6,8.2,8.2,0,0,0-1.93-.47.31.31,0,0,0-.07.61Z"/><path class="cls-31" d="M53.93,22.17a.31.31,0,0,0,.46-.41,8.28,8.28,0,0,0-1.49-1.31.31.31,0,0,0-.35.51A7.64,7.64,0,0,1,53.93,22.17Z"/></svg>