<svg id="Layer_1" data-name="Layer 1" xmlns="http://www.w3.org/2000/svg" xmlns:xlink="http://www.w3.org/1999/xlink" viewBox="0 0 62.65 62.65"><defs><style>.cls-1{fill:none;}.cls-2{fill:#31331c;}.cls-3{fill:#525731;}.cls-4{fill:#d47624;}.cls-10,.cls-12,.cls-13,.cls-15,.cls-16,.cls-18,.cls-22,.cls-23,.cls-26,.cls-28,.cls-32,.cls-33,.cls-37,.cls-38,.cls-4,.cls-42,.cls-43,.cls-47,.cls-48,.cls-5,.cls-52,.cls-54,.cls-57,.cls-60,.cls-61,.cls-65,.cls-67,.cls-7,.cls-71,.cls-73{fill-rule:evenodd;}.cls-11,.cls-5{fill:#ffcc02;}.cls-6{fill:#b16827;}.cls-7,.cls-8{fill:#fcb813;}.cls-9{fill:#efa41f;}.cls-10{fill:#f29b2d;}.cls-12{fill:#e6c195;}.cls-13{fill:#ffeed6;}.cls-14{fill:#dfaf7a;}.cls-15,.cls-51{fill:#ce9476;}.cls-16,.cls-17{fill:#f3783b;}.cls-18{fill:#fcc895;}.cls-19{fill:#f37721;}.cls-20{fill:#d4732e;}.cls-21{fill:#f9ab64;}.cls-22,.cls-24{fill:#231f20;}.cls-23,.cls-25{fill:#929497;}.cls-26,.cls-27{fill:#e41661;}.cls-28,.cls-30{fill:#f5bbbe;}.cls-29{fill:#ec798d;}.cls-31{fill:#ed8291;}.cls-32,.cls-34{fill:#29569a;}.cls-33{fill:#abcdec;}.cls-35{fill:#2b2954;}.cls-36{fill:#7885b8;}.cls-37,.cls-39{fill:#009cdd;}.cls-38{fill:#b7daf3;}.cls-40{fill:#0071bb;}.cls-41{fill:#54b5e6;}.cls-42,.cls-44{fill:#bb216f;}.cls-43{fill:#f6ccd1;}.cls-45{fill:#8b2e5b;}.cls-46{fill:#e1a4ac;}.cls-47,.cls-49{fill:#8a4324;}.cls-48{fill:#ddb7a0;}.cls-50{fill:#57182c;}.cls-52,.cls-53{fill:#009342;}.cls-54,.cls-56{fill:#a2d294;}.cls-55{fill:#5eba59;}.cls-57,.cls-59{fill:#ffeeab;}.cls-58{fill:#fd0;}.cls-60,.cls-62{fill:#6c2c8e;}.cls-61{fill:#cbb4ce;}.cls-63{fill:#42166a;}.cls-64{fill:#9282bd;}.cls-65,.cls-66{fill:#00a9b4;}.cls-67{fill:#a8dce1;}.cls-68{fill:#00bac3;}.cls-69{fill:#8dd3d9;}.cls-70{fill:#3ec0c9;}.cls-71,.cls-72{fill:#ce3f2b;}.cls-73{fill:#f8b7b3;}.cls-74{fill:#991633;}.cls-75{fill:#f48d7d;}.cls-76{fill:#f1b11c;}.cls-77{clip-path:url(#clip-path);}</style><clipPath id="clip-path"><path class="cls-1" d="M45.23,41.82a1.65,1.65,0,0,1-1.42,1.61L28.4,45.12A1.27,1.27,0,0,1,27,43.83l0-6.66a1.65,1.65,0,0,1,1.42-1.61l15.41-1.7a1.27,1.27,0,0,1,1.43,1.29Z"/></clipPath></defs><title>left pencil-icon</title><circle class="cls-2" cx="31.33" cy="31.33" r="31.33"/><path class="cls-3" d="M31.33,61.65A30.33,30.33,0,1,1,61.65,31.33,30.36,30.36,0,0,1,31.33,61.65Z"/><polygon class="cls-4" points="35.63 15.22 36.57 19.49 16.34 21.75 15.4 17.41 35.63 15.22"/><polygon class="cls-5" points="19.67 17.79 43.95 15.14 42.18 7.35 17.9 10.02 19.67 17.79"/><path class="cls-6" d="M19.67,18.32a.53.53,0,0,1-.52-.41l-1.77-7.77a.53.53,0,0,1,.46-.65L42.12,6.82a.53.53,0,0,1,.58.41L44.47,15a.53.53,0,0,1-.46.65L19.73,18.31Zm-1.12-7.84,1.53,6.72L43.3,14.67,41.77,7.93Z"/><polygon class="cls-7" points="17.9 10.02 14.75 14.01 16.41 21.59 19.57 17.74 17.9 10.02"/><path class="cls-6" d="M16.41,22.12h-.12a.53.53,0,0,1-.4-.4l-1.66-7.58a.53.53,0,0,1,.1-.44l3.15-4a.53.53,0,0,1,.94.22l1.67,7.72a.53.53,0,0,1-.11.45l-3.16,3.85A.53.53,0,0,1,16.41,22.12Zm-1.09-8L16.7,20.4,19,17.6l-1.37-6.37Z"/><polygon class="cls-1" points="16.64 20.55 19.11 17.65 17.67 10.97 15.21 14.12 16.64 20.55"/><polygon class="cls-8" points="24.89 29.71 35.57 28.5 36.92 26.86 24.55 28.25 24.89 29.71"/><path class="cls-9" d="M24.42,30.36l-.62-2.63L38.32,26.1l-2.44,3Zm.86-1.59.06.28,9.91-1.12.25-.3Z"/><path class="cls-6" d="M18.72,13.94a.52.52,0,0,1-.51-.4l-.83-3.39a.52.52,0,0,1,.45-.65L42,6.89a.52.52,0,0,1,.46.85l-3.11,3.81a.52.52,0,0,1-.35.19L18.78,13.93Zm-.17-3.46.58,2.37,19.56-2.12,2.17-2.65Z"/><polygon class="cls-10" points="38.95 11.22 39.9 15.49 19.67 17.76 18.72 13.41 38.95 11.22"/><path class="cls-6" d="M19.25,18.34l-1.17-5.39,21.29-2.3L40.55,16Zm.12-4.46.72,3.3L39.25,15l-.71-3.23Z"/><polygon class="cls-11" points="19.55 17.98 19.43 48.47 23.31 55.25 47.63 52.7 47.94 22.25 43.98 15.32 19.55 17.98"/><path class="cls-6" d="M23.31,55.75a.5.5,0,0,1-.43-.25L19,48.71a.5.5,0,0,1-.07-.25L19.06,18a.5.5,0,0,1,.44-.49l24.42-2.65a.5.5,0,0,1,.49.25l4,6.92a.5.5,0,0,1,.07.25l-.31,30.46a.5.5,0,0,1-.45.49L23.36,55.75Zm-3.38-7.42,3.65,6.39,23.55-2.47.3-29.88L43.7,15.85,20.05,18.42Z"/><polygon class="cls-6" points="47.94 22.25 36.82 30.11 23.47 24.99 19.55 17.98 43.98 15.32 47.94 22.25"/><path class="cls-12" d="M41.64,9.21a1.06,1.06,0,0,0-.27,0h0l-.86,5.39,2.09,0-.92-5.39Z"/><path class="cls-13" d="M43.45,13.61,42,9.29a1.48,1.48,0,0,0-.37-.07l.92,5.36Z"/><path class="cls-14" d="M42.51,14.76l-1-5.64h.11A1.55,1.55,0,0,1,42,9.2h0l1.46,4.42Zm-.76-5.45.87,5.07.73-.79-1.4-4.23Z"/><polygon class="cls-15" points="41.1 9.31 39.65 13.59 40.5 14.6 41.34 9.23 41.1 9.31"/><path class="cls-16" d="M42.11,9.62a.8.8,0,0,1-1.11,0,11.12,11.12,0,0,1,.52-1.75c0-.14.1,0,.16.21S42.11,9.62,42.11,9.62Z"/><path class="cls-17" d="M41.6,10a1.11,1.11,0,0,1-.71-.27l-.08-.07,0-.1A10,10,0,0,1,41.3,8l.05-.14a.22.22,0,0,1,.2-.18c.16,0,.22.15.28.34s.43,1.54.45,1.6l0,.09-.06.07a.81.81,0,0,1-.57.28Zm-.4-.48a.75.75,0,0,0,.44.12.49.49,0,0,0,.26-.09c-.09-.35-.26-1-.35-1.27A9.34,9.34,0,0,0,41.2,9.54Z"/><path class="cls-18" d="M42.06,9.74a.65.65,0,0,1-.3.13c-.07-.93-.18-1.92-.19-2.06s.12.31.16.48Z"/><rect class="cls-19" x="40.49" y="14.6" width="2.08" height="30.72"/><polygon class="cls-20" points="40.49 45.33 39.65 44.18 39.65 13.58 40.49 14.6 40.49 45.33"/><polygon class="cls-21" points="43.46 44.18 42.57 45.3 42.56 14.6 43.46 13.63 43.46 44.18"/><path class="cls-19" d="M42.49,45.51V14.58l1-1.13V44.21Zm.15-30.87V45.09l.75-.93V13.82Z"/><path class="cls-12" d="M30.15,10.62a1.07,1.07,0,0,0-.27,0h0L29,16l2.09,0-.92-5.39Z"/><path class="cls-13" d="M32,15,30.52,10.7a1.48,1.48,0,0,0-.37-.07L31.08,16Z"/><path class="cls-14" d="M31,16.17l-1-5.64h.11a1.57,1.57,0,0,1,.39.08h0l1.46,4.44Zm-.76-5.45.88,5.07.72-.77-1.4-4.26Z"/><polygon class="cls-15" points="29.61 10.72 28.16 15 29 16.01 29.85 10.64 29.61 10.72"/><path class="cls-22" d="M30.62,11a.81.81,0,0,1-1.11,0A11.14,11.14,0,0,1,30,9.27c0-.14.1,0,.16.21S30.62,11,30.62,11Z"/><path class="cls-23" d="M30.52,11.14a.55.55,0,0,1-.26.14c-.06-.93-.16-1.92-.17-2.06s.11.31.14.48Z"/><rect class="cls-24" x="29" y="16.01" width="2.08" height="30.72"/><polygon class="cls-24" points="29 46.74 28.16 45.59 28.16 14.99 29 16.01 29 46.74"/><polygon class="cls-25" points="31.97 45.59 31.07 46.71 31.07 16.01 31.97 15.04 31.97 45.59"/><path class="cls-24" d="M31.07,46.76h0a0,0,0,0,1,0,0V16a0,0,0,0,1,0,0l.9-1A0,0,0,0,1,32,15V45.59a0,0,0,0,1,0,0l-.9,1.12Zm0-30.72V46.58l.81-1V15.15Z"/><path class="cls-12" d="M26.29,11A1.07,1.07,0,0,0,26,11h0l-.86,5.39,2.09,0L26.29,11Z"/><path class="cls-13" d="M28.09,15.41l-1.44-4.33a1.48,1.48,0,0,0-.37-.07l.92,5.36Z"/><path class="cls-14" d="M27.15,16.56l-1-5.65h.11a1.55,1.55,0,0,1,.39.08h0l1.47,4.42ZM26.4,11.1l.87,5.08.73-.79-1.41-4.24Z"/><polygon class="cls-15" points="25.75 11.1 24.29 15.38 25.14 16.4 25.98 11.03 25.75 11.1"/><path class="cls-26" d="M26.76,11.41a.8.8,0,0,1-1.11,0,11.15,11.15,0,0,1,.52-1.75c0-.14.1,0,.16.21S26.76,11.41,26.76,11.41Z"/><path class="cls-27" d="M26.25,11.81a1.11,1.11,0,0,1-.71-.27l-.08-.07,0-.1a10.08,10.08,0,0,1,.47-1.63L26,9.6a.22.22,0,0,1,.2-.18c.18,0,.22.15.28.34s.43,1.54.45,1.6l0,.09-.06.07a.81.81,0,0,1-.57.28Zm-.4-.48a.74.74,0,0,0,.44.12.49.49,0,0,0,.26-.09c-.09-.35-.26-1-.35-1.27A9.37,9.37,0,0,0,25.85,11.33Z"/><path class="cls-28" d="M26.7,11.53a.65.65,0,0,1-.3.13c-.07-.93-.18-1.92-.18-2.06s.12.31.16.48Z"/><rect class="cls-29" x="25.14" y="16.4" width="2.08" height="30.72"/><polygon class="cls-27" points="25.14 47.12 24.29 45.97 24.29 15.37 25.14 16.4 25.14 47.12"/><polygon class="cls-30" points="28.11 45.97 27.22 47.1 27.21 16.4 28.11 15.42 28.11 45.97"/><path class="cls-31" d="M27.22,47.19h0a.09.09,0,0,1-.06-.08V16.4a.09.09,0,0,1,0-.06l.9-1a.09.09,0,0,1,.1,0,.09.09,0,0,1,.06.08V46a.09.09,0,0,1,0,.05l-.89,1.13A.09.09,0,0,1,27.22,47.19Zm.08-30.76V46.85l.72-.91V15.65Z"/><path class="cls-12" d="M22.41,11.47a1.07,1.07,0,0,0-.27,0h0l-.86,5.39,2.09,0-.92-5.39Z"/><path class="cls-13" d="M24.22,15.88l-1.44-4.33a1.48,1.48,0,0,0-.37-.07l.92,5.36Z"/><path class="cls-14" d="M23.27,17l-1-5.64h.11a1.58,1.58,0,0,1,.39.08h0l1.47,4.42Zm-.76-5.45.87,5.07.73-.79-1.41-4.24Z"/><polygon class="cls-15" points="21.87 11.57 20.41 15.85 21.26 16.86 22.11 11.49 21.87 11.57"/><path class="cls-32" d="M22.88,11.88a.8.8,0,0,1-1.11,0,11.15,11.15,0,0,1,.52-1.75c0-.14.1,0,.16.21S22.88,11.88,22.88,11.88Z"/><path class="cls-33" d="M22.77,12a.54.54,0,0,1-.26.1c-.07-1-.18-2-.18-2Z"/><rect class="cls-34" x="21.26" y="16.86" width="2.08" height="30.72"/><polygon class="cls-35" points="21.26 47.59 20.41 46.44 20.41 15.84 21.26 16.86 21.26 47.59"/><polygon class="cls-36" points="24.23 46.44 23.33 47.57 23.33 16.86 24.23 15.89 24.23 46.44"/><path class="cls-34" d="M23.26,47.78V16.84l1-1.13V46.47Zm.15-30.89V47.36l.75-.94V16.08Z"/><path class="cls-12" d="M37.79,9.67a1.07,1.07,0,0,0-.27,0h0l-.86,5.39,2.09,0L37.8,9.67Z"/><path class="cls-13" d="M39.62,14.09,38.17,9.75a1.48,1.48,0,0,0-.37-.07l.92,5.39Z"/><path class="cls-14" d="M38.66,15.25l-1-5.68h.11a1.57,1.57,0,0,1,.39.08h0l1.48,4.43ZM37.9,9.77l.87,5.1.74-.81L38.1,9.82Z"/><polygon class="cls-15" points="37.26 9.77 35.8 14.05 36.65 15.06 37.49 9.69 37.26 9.77"/><path class="cls-37" d="M38.28,10.08a.8.8,0,0,1-1.11,0,11.16,11.16,0,0,1,.52-1.75c0-.14.1,0,.16.21S38.28,10.08,38.28,10.08Z"/><path class="cls-38" d="M38.19,10.17a.54.54,0,0,1-.26.13c-.06-.91-.17-2-.17-2S37.91,8.76,38.19,10.17Z"/><rect class="cls-39" x="36.64" y="15.06" width="2.07" height="30.72"/><polygon class="cls-40" points="36.64 45.79 35.8 44.64 35.8 14.04 36.64 15.06 36.64 45.79"/><polygon class="cls-41" points="39.62 44.64 38.72 45.78 38.72 15.06 39.62 14.09 39.62 44.64"/><path class="cls-39" d="M38.72,45.87h0a.09.09,0,0,1-.06-.08V15.06a.09.09,0,0,1,0-.06l.9-1a.09.09,0,0,1,.1,0,.09.09,0,0,1,.06.08V44.64a.09.09,0,0,1,0,.05l-.9,1.14A.09.09,0,0,1,38.72,45.87Zm.09-30.77V45.53l.72-.92V14.31Z"/><path class="cls-12" d="M34,10.12a1.06,1.06,0,0,0-.27,0h0l-.86,5.39,2.09,0L34,10.12Z"/><path class="cls-13" d="M35.79,14.53l-1.43-4.34a1.48,1.48,0,0,0-.37-.07l.92,5.37Z"/><path class="cls-14" d="M34.86,15.67l-1-5.65H34a1.57,1.57,0,0,1,.39.08h0v0l1.44,4.38Zm-.75-5.46L35,15.29l.73-.79-1.4-4.24Z"/><polygon class="cls-15" points="33.45 10.21 32 14.49 32.85 15.51 33.69 10.14 33.45 10.21"/><path class="cls-42" d="M34.46,10.52a.8.8,0,0,1-1.11,0,11.13,11.13,0,0,1,.52-1.75c0-.14.1,0,.16.21S34.46,10.52,34.46,10.52Z"/><path class="cls-43" d="M34.39,10.61a.64.64,0,0,1-.29.13c-.07-.88-.18-1.83-.18-2s.12.3.15.45Z"/><rect class="cls-44" x="32.84" y="15.51" width="2.08" height="30.72"/><polygon class="cls-45" points="32.84 46.23 32 45.08 32 14.48 32.84 15.51 32.84 46.23"/><polygon class="cls-46" points="35.81 45.08 34.92 46.21 34.92 15.51 35.81 14.54 35.81 45.08"/><path class="cls-45" d="M34.92,46.29h0a.07.07,0,0,1,0-.07V15.51a.07.07,0,0,1,0-.05l.9-1a.07.07,0,0,1,.08,0,.07.07,0,0,1,0,.07V45.08a.07.07,0,0,1,0,0L35,46.26A.07.07,0,0,1,34.92,46.29ZM35,15.54V46l.75-.94V14.72Z"/><path class="cls-12" d="M45.22,14.46a1.06,1.06,0,0,0-.27,0h0l-.86,5.39,2.09,0-.92-5.39Z"/><path class="cls-13" d="M47,18.88l-1.43-4.35a1.48,1.48,0,0,0-.37-.07l.93,5.36Z"/><path class="cls-14" d="M46.09,20l-1-5.64h.11a1.55,1.55,0,0,1,.39.08h0l1.46,4.44Zm-.76-5.45.88,5.07.72-.77-1.4-4.26Z"/><polygon class="cls-15" points="44.68 14.55 43.23 18.84 44.08 19.85 44.92 14.48 44.68 14.55"/><path class="cls-47" d="M45.69,14.86a.81.81,0,0,1-1.11,0,11.14,11.14,0,0,1,.52-1.75c0-.14.1,0,.16.21S45.69,14.86,45.69,14.86Z"/><path class="cls-48" d="M45.64,15a.64.64,0,0,1-.3.14c-.07-.93-.18-1.92-.19-2.06s.12.31.16.48Z"/><rect class="cls-49" x="44.07" y="19.85" width="2.08" height="30.72"/><polygon class="cls-50" points="44.07 50.58 43.23 49.43 43.23 18.82 44.07 19.85 44.07 50.58"/><polygon class="cls-51" points="47.04 49.43 46.15 50.55 46.15 19.85 47.04 18.88 47.04 49.43"/><path class="cls-49" d="M46.15,50.62h0a.07.07,0,0,1,0-.07V19.85a.07.07,0,0,1,0-.05l.9-1a.07.07,0,0,1,.08,0,.07.07,0,0,1,0,.07V49.43a.08.08,0,0,1,0,0l-.9,1.12A.07.07,0,0,1,46.15,50.62Zm.07-30.74V50.34L47,49.4V19.07Z"/><path class="cls-12" d="M41.34,15a1.07,1.07,0,0,0-.27,0h0l-.86,5.39,2.09,0L41.34,15Z"/><path class="cls-13" d="M43.14,19.4l-1.43-4.34a1.48,1.48,0,0,0-.37-.07l.92,5.35Z"/><path class="cls-14" d="M42.21,20.52l-1-5.64h.11a1.55,1.55,0,0,1,.39.08h0v0l1.44,4.39Zm-.76-5.44.87,5.07.72-.77-1.4-4.25Z"/><polygon class="cls-15" points="40.8 15.07 39.34 19.36 40.19 20.37 41.04 15 40.8 15.07"/><path class="cls-52" d="M41.81,15.39a.8.8,0,0,1-1.11,0,11.16,11.16,0,0,1,.52-1.75c0-.14.1,0,.16.21S41.81,15.39,41.81,15.39Z"/><path class="cls-53" d="M41.3,15.78a1.1,1.1,0,0,1-.71-.26l-.07-.06,0-.1A10.05,10.05,0,0,1,41,13.73l.05-.14a.21.21,0,0,1,.19-.17c.15,0,.21.15.28.34s.43,1.54.45,1.59l0,.09-.06.07a.81.81,0,0,1-.57.28Zm-.41-.46a.75.75,0,0,0,.45.12.5.5,0,0,0,.27-.1c-.1-.35-.27-1-.36-1.3A9.43,9.43,0,0,0,40.89,15.31Z"/><path class="cls-54" d="M41.75,15.5a.64.64,0,0,1-.3.13c-.07-.93-.18-1.92-.19-2.06s.12.31.16.48Z"/><rect class="cls-55" x="40.19" y="20.37" width="2.08" height="30.72"/><polygon class="cls-53" points="40.19 51.09 39.34 49.95 39.34 19.34 40.19 20.37 40.19 51.09"/><polygon class="cls-56" points="43.16 49.95 42.27 51.08 42.26 20.37 43.16 19.4 43.16 49.95"/><path class="cls-55" d="M42.27,51.16h0a.09.09,0,0,1-.06-.08V20.37a.09.09,0,0,1,0-.06l.9-1a.09.09,0,0,1,.15.06V49.95a.09.09,0,0,1,0,.05l-.89,1.13A.09.09,0,0,1,42.27,51.16Zm.08-30.76V50.82l.72-.91V19.62Z"/><path class="cls-12" d="M37.48,15.56a1.07,1.07,0,0,0-.27,0h0L36.31,21l2.09,0-.92-5.39Z"/><path class="cls-13" d="M39.27,20l-1.43-4.34a1.48,1.48,0,0,0-.37-.07l.92,5.37Z"/><path class="cls-14" d="M38.34,21.12l-1-5.65h.11a1.55,1.55,0,0,1,.39.08h0v0L39.37,20Zm-.75-5.46.87,5.08.73-.79-1.4-4.24Z"/><polygon class="cls-15" points="36.94 15.66 35.48 19.94 36.33 20.95 37.17 15.58 36.94 15.66"/><path class="cls-7" d="M37.95,16a.8.8,0,0,1-1.11,0,11.14,11.14,0,0,1,.52-1.75c0-.14.1,0,.16.21S37.95,16,37.95,16Z"/><path class="cls-8" d="M37.44,16.36a1.1,1.1,0,0,1-.71-.26L36.65,16l0-.1a10,10,0,0,1,.47-1.62l.05-.14a.21.21,0,0,1,.19-.17h0c.15,0,.21.15.27.34s.43,1.54.44,1.59l0,.09-.06.07a.81.81,0,0,1-.57.28ZM37,15.89a.77.77,0,0,0,.45.12.5.5,0,0,0,.27-.1c-.1-.35-.27-1-.36-1.3A9.42,9.42,0,0,0,37,15.89Z"/><path class="cls-57" d="M37.89,16.08a.64.64,0,0,1-.3.13c-.07-.93-.18-1.92-.18-2.06s.12.31.16.48Z"/><rect class="cls-58" x="36.32" y="20.95" width="2.08" height="30.72"/><polygon class="cls-8" points="36.33 51.68 35.48 50.53 35.48 19.93 36.33 20.95 36.33 51.68"/><polygon class="cls-59" points="39.3 50.53 38.4 51.66 38.4 20.95 39.3 19.98 39.3 50.53"/><path class="cls-58" d="M38.4,51.75h0a.09.09,0,0,1-.06-.08V21a.09.09,0,0,1,0-.06l.9-1a.09.09,0,0,1,.1,0,.09.09,0,0,1,.06.08V50.53a.09.09,0,0,1,0,.05l-.9,1.13A.09.09,0,0,1,38.4,51.75ZM38.49,21V51.41l.72-.91V20.2Z"/><path class="cls-12" d="M33.6,15.89a1.07,1.07,0,0,0-.27,0h0l-.86,5.39,2.09,0-.92-5.39Z"/><path class="cls-13" d="M35.4,20.31,34,16a1.48,1.48,0,0,0-.37-.07l.92,5.35Z"/><path class="cls-14" d="M34.47,21.44l-1-5.63h.11a1.55,1.55,0,0,1,.39.08h0v0l1.44,4.39ZM33.71,16l.87,5.07.72-.77L33.9,16Z"/><polygon class="cls-15" points="33.06 15.99 31.6 20.27 32.45 21.29 33.29 15.92 33.06 15.99"/><path class="cls-60" d="M34.07,16.3a.8.8,0,0,1-1.11,0,11.15,11.15,0,0,1,.52-1.75c0-.14.1,0,.16.21S34.07,16.3,34.07,16.3Z"/><path class="cls-61" d="M34,16.37a.58.58,0,0,1-.27.12c-.06-.88-.17-1.83-.17-2s.11.3.15.45Z"/><rect class="cls-62" x="32.45" y="21.29" width="2.08" height="30.72"/><polygon class="cls-63" points="32.45 52.01 31.6 50.86 31.6 20.26 32.45 21.29 32.45 52.01"/><polygon class="cls-64" points="35.42 50.86 34.53 51.99 34.52 21.29 35.42 20.31 35.42 50.86"/><path class="cls-62" d="M34.53,52.06h0a.07.07,0,0,1,0-.07V21.29a.07.07,0,0,1,0-.05l.9-1a.07.07,0,0,1,.08,0,.07.07,0,0,1,0,.07V50.86a.07.07,0,0,1,0,0L34.59,52A.07.07,0,0,1,34.53,52.06Zm.07-30.75V51.78l.74-.94V20.5Z"/><path class="cls-12" d="M29.71,16.35a1.06,1.06,0,0,0-.27,0h0l-.86,5.39,2.09,0-.92-5.39Z"/><path class="cls-13" d="M31.52,20.78l-1.43-4.35a1.48,1.48,0,0,0-.37-.07l.93,5.36Z"/><path class="cls-14" d="M30.59,21.9l-1-5.64h.11a1.57,1.57,0,0,1,.39.08h0l1.46,4.44Zm-.76-5.45.88,5.07.72-.77L30,16.5Z"/><polygon class="cls-15" points="29.17 16.45 27.72 20.73 28.57 21.75 29.41 16.38 29.17 16.45"/><path class="cls-65" d="M30.18,16.76a.81.81,0,0,1-1.11,0A11.14,11.14,0,0,1,29.6,15c0-.14.1,0,.16.21S30.18,16.76,30.18,16.76Z"/><path class="cls-66" d="M29.67,17.16a1.11,1.11,0,0,1-.71-.27l-.08-.07,0-.1a10.06,10.06,0,0,1,.47-1.63l.05-.14a.22.22,0,0,1,.2-.18c.17,0,.22.15.28.34s.43,1.54.45,1.59l0,.09-.06.07a.81.81,0,0,1-.57.28Zm-.4-.48a.75.75,0,0,0,.45.12A.49.49,0,0,0,30,16.7c-.09-.35-.26-1-.35-1.27A9.37,9.37,0,0,0,29.28,16.68Z"/><path class="cls-67" d="M30.13,16.87a.64.64,0,0,1-.3.14c-.07-.93-.18-1.92-.19-2.06s.12.31.16.48Z"/><rect class="cls-68" x="28.56" y="21.75" width="2.08" height="30.72"/><polygon class="cls-66" points="28.56 52.47 27.72 51.32 27.72 20.72 28.56 21.75 28.56 52.47"/><polygon class="cls-69" points="31.54 51.32 30.64 52.45 30.64 21.75 31.54 20.77 31.54 51.32"/><path class="cls-70" d="M30.64,52.53h0a.09.09,0,0,1-.06-.08V21.75a.09.09,0,0,1,0-.06l.9-1a.09.09,0,0,1,.1,0,.09.09,0,0,1,.06.08V51.32a.09.09,0,0,1,0,.05l-.9,1.12A.09.09,0,0,1,30.64,52.53Zm.09-30.75V52.2l.72-.9V21Z"/><path class="cls-12" d="M25.88,16.95a1.06,1.06,0,0,0-.27,0h0l-.86,5.39,2.09,0-.92-5.39Z"/><path class="cls-13" d="M27.69,21.35,26.25,17a1.48,1.48,0,0,0-.37-.07l.92,5.36Z"/><path class="cls-14" d="M26.74,22.5l-1-5.64h.11a1.55,1.55,0,0,1,.39.08h0l1.47,4.42ZM26,17l.87,5.07.73-.79-1.41-4.24Z"/><polygon class="cls-15" points="25.34 17.04 23.88 21.33 24.73 22.34 25.57 16.97 25.34 17.04"/><path class="cls-71" d="M26.35,17.35a.8.8,0,0,1-1.11,0,11.16,11.16,0,0,1,.52-1.75c0-.14.1,0,.16.21S26.35,17.35,26.35,17.35Z"/><path class="cls-72" d="M25.84,17.75a1.1,1.1,0,0,1-.71-.27L25,17.42l0-.1a10.07,10.07,0,0,1,.47-1.63l.05-.14a.22.22,0,0,1,.2-.18h0c.16,0,.21.15.28.34s.43,1.54.45,1.6l0,.09-.06.07a.81.81,0,0,1-.57.28Zm-.4-.48a.75.75,0,0,0,.44.12.49.49,0,0,0,.26-.09c-.09-.35-.26-1-.35-1.27A9.36,9.36,0,0,0,25.44,17.28Z"/><path class="cls-73" d="M26.29,17.47a.65.65,0,0,1-.3.13c-.08-1-.18-1.9-.18-2.06s.12.31.16.48Z"/><rect class="cls-72" x="24.73" y="22.34" width="2.08" height="30.72"/><polygon class="cls-74" points="24.73 53.06 23.88 51.91 23.88 21.31 24.73 22.34 24.73 53.06"/><polygon class="cls-75" points="27.7 51.91 26.8 53.04 26.8 22.34 27.7 21.37 27.7 51.91"/><path class="cls-72" d="M26.8,53.13h0a.09.09,0,0,1-.06-.08V22.34a.09.09,0,0,1,0-.06l.9-1a.09.09,0,0,1,.15.06V51.92a.09.09,0,0,1,0,.05l-.9,1.13A.09.09,0,0,1,26.8,53.13Zm.09-30.76V52.79l.72-.91V21.59Z"/><polygon class="cls-8" points="23.35 25.04 19.55 17.98 19.44 48.33 23.35 55.3 23.35 25.04"/><path class="cls-6" d="M23.35,55.8a.5.5,0,0,1-.43-.25l-3.91-7a.5.5,0,0,1-.06-.25L19.06,18a.5.5,0,0,1,.94-.23l3.8,7.07a.5.5,0,0,1,.06.24V55.3a.5.5,0,0,1-.37.48Zm-3.41-7.6,2.92,5.19V25.17L20,19.94Z"/><path class="cls-8" d="M19.81,48.23,23,53.88V25.13c-.06-.12-2-3.26-3-5.42C20,22.7,19.8,48.05,19.81,48.23Z"/><path class="cls-11" d="M47.68,52.7,23.35,55.3V25l5.4-.57s.86,2.54,7.2,2.28C43.2,26.46,43,22.92,43,22.92l4.88-.55Z"/><path class="cls-6" d="M23.35,55.83a.53.53,0,0,1-.53-.53V25a.53.53,0,0,1,.47-.53l5.4-.57a.52.52,0,0,1,.56.36s.91,2.16,6.68,1.92c6.56-.26,6.58-3.16,6.57-3.29A.54.54,0,0,1,43,22.4l4.88-.55a.53.53,0,0,1,.59.53l-.23,30.34a.53.53,0,0,1-.47.52l-24.33,2.6Zm.53-30.31v29.2l23.28-2.49L47.37,23l-3.87.44a3.49,3.49,0,0,1-.88,1.65c-1.24,1.35-3.48,2.1-6.66,2.23-5.23.21-7-1.46-7.51-2.25Z"/><path class="cls-1" d="M43.36,23.22c-.09.76-.72,3.65-7.37,3.91-2.82.11-5.73-.29-6.63-1.1a3.07,3.07,0,0,1-.9-1.14l-4.74.5v29.5l23.59-2.52c0-.63.21-28.78.22-29.58Z"/><path class="cls-76" d="M28.26,46.63a2.73,2.73,0,0,1-1.85-.71,2.78,2.78,0,0,1-.92-2.09l0-6.66a3.13,3.13,0,0,1,2.75-3.1l15.41-1.7a2.77,2.77,0,0,1,3.09,2.78l0,6.66A3.14,3.14,0,0,1,44,44.91l-15.41,1.7Zm15.63-11.9-15.41,1.7a.78.78,0,0,0-.64.74l0,6.66a.43.43,0,0,0,.14.33.4.4,0,0,0,.33.09l15.41-1.7a.78.78,0,0,0,.64-.74l0-6.66a.43.43,0,0,0-.14-.34.4.4,0,0,0-.33-.1Z"/><path class="cls-6" d="M28.27,46a2.17,2.17,0,0,1-1.45-.54,2.21,2.21,0,0,1-.72-1.64l0-6.66a2.52,2.52,0,0,1,2.21-2.49L43.7,33a2.19,2.19,0,0,1,1.69.53,2.21,2.21,0,0,1,.72,1.64l0,6.66a2.52,2.52,0,0,1-2.21,2.49L28.52,46ZM44,34.74h-.06l-15.41,1.7a.76.76,0,0,0-.63.72l0,6.66a.42.42,0,0,0,.13.32.4.4,0,0,0,.32.09l15.41-1.7a.76.76,0,0,0,.63-.72l0-6.66a.42.42,0,0,0-.13-.32A.38.38,0,0,0,44,34.74Z"/><g class="cls-77"><rect class="cls-19" x="40.49" y="15.91" width="2.08" height="30.72"/><polygon class="cls-20" points="40.49 46.63 39.65 45.48 39.65 14.88 40.49 15.91 40.49 46.63"/><polygon class="cls-21" points="43.46 45.48 42.57 46.6 42.56 15.91 43.46 14.94 43.46 45.48"/><path class="cls-19" d="M42.49,46.81V15.88l1-1.13V45.51Zm.15-30.87V46.39l.75-.93V15.13Z"/><rect class="cls-24" x="29" y="17.32" width="2.08" height="30.72"/><polygon class="cls-24" points="29 48.04 28.16 46.89 28.16 16.29 29 17.32 29 48.04"/><polygon class="cls-25" points="31.97 46.89 31.07 48.02 31.07 17.32 31.97 16.34 31.97 46.89"/><path class="cls-24" d="M31.07,48.06h0a0,0,0,0,1,0,0V17.32a0,0,0,0,1,0,0l.9-1a0,0,0,0,1,.08,0V46.89a0,0,0,0,1,0,0L31.11,48Zm0-30.72V47.89l.81-1V16.46Z"/><rect class="cls-29" x="25.14" y="17.7" width="2.08" height="30.72"/><polygon class="cls-27" points="25.14 48.42 24.29 47.28 24.29 16.67 25.14 17.7 25.14 48.42"/><polygon class="cls-30" points="28.11 47.28 27.22 48.4 27.21 17.7 28.11 16.73 28.11 47.28"/><path class="cls-31" d="M27.22,48.49h0a.09.09,0,0,1-.06-.08V17.7a.09.09,0,0,1,0-.06l.9-1a.09.09,0,0,1,.1,0,.09.09,0,0,1,.06.08V47.28a.09.09,0,0,1,0,.05l-.89,1.13A.09.09,0,0,1,27.22,48.49Zm.08-30.76V48.15l.72-.91V17Z"/><rect class="cls-34" x="21.26" y="18.17" width="2.08" height="30.72"/><polygon class="cls-35" points="21.26 48.89 20.41 47.75 20.41 17.14 21.26 18.17 21.26 48.89"/><polygon class="cls-36" points="24.23 47.75 23.33 48.87 23.33 18.17 24.23 17.2 24.23 47.75"/><path class="cls-34" d="M23.26,49.08V18.14l1-1.13V47.77Zm.15-30.89V48.66l.75-.94V17.39Z"/><rect class="cls-39" x="36.64" y="16.37" width="2.07" height="30.72"/><polygon class="cls-40" points="36.64 47.09 35.8 45.94 35.8 15.34 36.64 16.37 36.64 47.09"/><polygon class="cls-41" points="39.62 45.94 38.72 47.09 38.72 16.37 39.62 15.39 39.62 45.94"/><path class="cls-39" d="M38.72,47.17h0a.09.09,0,0,1-.06-.08V16.37a.09.09,0,0,1,0-.06l.9-1a.09.09,0,0,1,.1,0,.09.09,0,0,1,.06.08V45.94a.09.09,0,0,1,0,.05l-.9,1.14A.09.09,0,0,1,38.72,47.17Zm.09-30.77V46.83l.72-.92V15.62Z"/><rect class="cls-44" x="32.84" y="16.81" width="2.08" height="30.72"/><polygon class="cls-45" points="32.84 47.54 32 46.39 32 15.79 32.84 16.81 32.84 47.54"/><polygon class="cls-46" points="35.81 46.39 34.92 47.52 34.92 16.81 35.81 15.84 35.81 46.39"/><path class="cls-45" d="M34.92,47.59h0a.07.07,0,0,1,0-.07V16.81a.07.07,0,0,1,0-.05l.9-1a.07.07,0,0,1,.08,0,.07.07,0,0,1,0,.07V46.39a.07.07,0,0,1,0,0L35,47.56A.07.07,0,0,1,34.92,47.59ZM35,16.84V47.3l.75-.94V16Z"/><rect class="cls-49" x="44.07" y="21.16" width="2.08" height="30.73"/><polygon class="cls-50" points="44.07 51.88 43.23 50.73 43.23 20.13 44.07 21.16 44.07 51.88"/><polygon class="cls-51" points="47.04 50.73 46.15 51.85 46.15 21.16 47.04 20.18 47.04 50.73"/><path class="cls-49" d="M46.15,51.93h0a.07.07,0,0,1,0-.07V21.16a.07.07,0,0,1,0-.05l.9-1a.07.07,0,0,1,.08,0,.07.07,0,0,1,0,.07V50.73a.08.08,0,0,1,0,0l-.9,1.12A.07.07,0,0,1,46.15,51.93Zm.07-30.74V51.64l.75-.94V20.37Z"/><rect class="cls-55" x="40.19" y="21.68" width="2.08" height="30.72"/><polygon class="cls-53" points="40.19 52.4 39.34 51.25 39.34 20.65 40.19 21.68 40.19 52.4"/><polygon class="cls-56" points="43.16 51.25 42.27 52.38 42.26 21.68 43.16 20.7 43.16 51.25"/><path class="cls-55" d="M42.27,52.47h0a.09.09,0,0,1-.06-.08V21.68a.09.09,0,0,1,0-.06l.9-1a.09.09,0,0,1,.15.06V51.25a.09.09,0,0,1,0,.05l-.89,1.13A.09.09,0,0,1,42.27,52.47Zm.08-30.76V52.13l.72-.91V20.93Z"/><rect class="cls-58" x="36.32" y="22.26" width="2.08" height="30.72"/><polygon class="cls-8" points="36.33 52.98 35.48 51.84 35.48 21.23 36.33 22.26 36.33 52.98"/><polygon class="cls-59" points="39.3 51.84 38.4 52.96 38.4 22.26 39.3 21.29 39.3 51.84"/><path class="cls-58" d="M38.4,53.05h0a.09.09,0,0,1-.06-.08V22.26a.09.09,0,0,1,0-.06l.9-1a.09.09,0,0,1,.1,0,.09.09,0,0,1,.06.08V51.84a.09.09,0,0,1,0,.05L38.47,53A.09.09,0,0,1,38.4,53.05Zm.09-30.76V52.71l.72-.91V21.51Z"/><rect class="cls-62" x="32.45" y="22.59" width="2.08" height="30.72"/><polygon class="cls-63" points="32.45 53.32 31.6 52.17 31.6 21.56 32.45 22.59 32.45 53.32"/><polygon class="cls-64" points="35.42 52.17 34.53 53.3 34.52 22.59 35.42 21.62 35.42 52.17"/><path class="cls-62" d="M34.53,53.37h0a.07.07,0,0,1,0-.07V22.59a.07.07,0,0,1,0-.05l.9-1a.07.07,0,0,1,.08,0,.07.07,0,0,1,0,.07V52.17a.07.07,0,0,1,0,0l-.89,1.13A.07.07,0,0,1,34.53,53.37Zm.07-30.75V53.08l.74-.94V21.81Z"/><rect class="cls-68" x="28.56" y="23.05" width="2.08" height="30.72"/><polygon class="cls-66" points="28.56 53.78 27.72 52.63 27.72 22.02 28.56 23.05 28.56 53.78"/><polygon class="cls-69" points="31.54 52.63 30.64 53.75 30.64 23.05 31.54 22.08 31.54 52.63"/><path class="cls-70" d="M30.64,53.84h0a.09.09,0,0,1-.06-.08V23.05a.09.09,0,0,1,0-.06l.9-1a.09.09,0,0,1,.15.06V52.63a.09.09,0,0,1,0,.05l-.9,1.12A.09.09,0,0,1,30.64,53.84Zm.09-30.75V53.5l.72-.9V22.3Z"/><rect class="cls-72" x="24.73" y="23.64" width="2.08" height="30.72"/><polygon class="cls-74" points="24.73 54.37 23.88 53.22 23.88 22.62 24.73 23.64 24.73 54.37"/><polygon class="cls-75" points="27.7 53.22 26.8 54.35 26.8 23.64 27.7 22.67 27.7 53.22"/><path class="cls-72" d="M26.8,54.43h0a.09.09,0,0,1-.06-.08V23.64a.09.09,0,0,1,0-.06l.9-1a.09.09,0,0,1,.1,0,.09.09,0,0,1,.06.08V53.22a.09.09,0,0,1,0,.05l-.9,1.13A.09.09,0,0,1,26.8,54.43Zm.09-30.76V54.1l.72-.91V22.89Z"/></g></svg>