<svg id="Layer_1" data-name="Layer 1" xmlns="http://www.w3.org/2000/svg" xmlns:xlink="http://www.w3.org/1999/xlink" viewBox="0 0 62.65 62.65"><defs><style>.cls-1{fill:#31331c;}.cls-2{fill:#525731;}.cls-10,.cls-11,.cls-12,.cls-13,.cls-14,.cls-15,.cls-16,.cls-17,.cls-18,.cls-19,.cls-20,.cls-21,.cls-22,.cls-23,.cls-24,.cls-3,.cls-4,.cls-5,.cls-6,.cls-7,.cls-8,.cls-9{fill:#753431;}.cls-28,.cls-3{opacity:0;}.cls-29,.cls-4{opacity:0.02;}.cls-30,.cls-5{opacity:0.04;}.cls-31,.cls-6{opacity:0.06;}.cls-32,.cls-7{opacity:0.08;}.cls-33,.cls-8{opacity:0.1;}.cls-34,.cls-9{opacity:0.11;}.cls-10,.cls-35{opacity:0.13;}.cls-11,.cls-36{opacity:0.15;}.cls-12,.cls-37{opacity:0.17;}.cls-13,.cls-38{opacity:0.19;}.cls-14,.cls-39{opacity:0.21;}.cls-15,.cls-40{opacity:0.23;}.cls-16,.cls-41{opacity:0.25;}.cls-17,.cls-42{opacity:0.27;}.cls-18,.cls-43{opacity:0.29;}.cls-19,.cls-44{opacity:0.3;}.cls-20,.cls-45{opacity:0.32;}.cls-21,.cls-46{opacity:0.34;}.cls-22,.cls-47{opacity:0.36;}.cls-23,.cls-48{opacity:0.38;}.cls-24,.cls-49{opacity:0.4;}.cls-25{fill:url(#linear-gradient);}.cls-26{fill:url(#linear-gradient-2);}.cls-27{fill:url(#radial-gradient);}.cls-28,.cls-29,.cls-30,.cls-31,.cls-32,.cls-33,.cls-34,.cls-35,.cls-36,.cls-37,.cls-38,.cls-39,.cls-40,.cls-41,.cls-42,.cls-43,.cls-44,.cls-45,.cls-46,.cls-47,.cls-48,.cls-49{fill:#1d1d1b;}.cls-50{fill:url(#linear-gradient-3);}.cls-51{fill:url(#linear-gradient-4);}.cls-52{fill:url(#radial-gradient-2);}.cls-53{fill:url(#linear-gradient-5);}.cls-54{fill:url(#linear-gradient-6);}.cls-55{fill:url(#radial-gradient-3);}.cls-56{fill:url(#linear-gradient-7);}.cls-57{fill:url(#linear-gradient-8);}.cls-58{fill:url(#radial-gradient-4);}.cls-59{fill:url(#linear-gradient-9);}.cls-60{fill:url(#linear-gradient-10);}.cls-61{fill:url(#radial-gradient-5);}.cls-62{fill:url(#linear-gradient-11);}.cls-63{fill:url(#linear-gradient-12);}.cls-64{fill:url(#radial-gradient-6);}.cls-65{fill:url(#linear-gradient-13);}.cls-66{fill:url(#linear-gradient-14);}.cls-67{fill:url(#radial-gradient-7);}.cls-68{fill:url(#linear-gradient-15);}.cls-69{fill:url(#linear-gradient-16);}.cls-70{fill:url(#radial-gradient-8);}.cls-71{fill:url(#linear-gradient-17);}.cls-72{fill:url(#linear-gradient-18);}.cls-73{fill:url(#radial-gradient-9);}.cls-74{fill:url(#linear-gradient-19);}.cls-75{fill:url(#linear-gradient-20);}.cls-76{fill:url(#radial-gradient-10);}.cls-77{fill:url(#linear-gradient-21);}.cls-78{fill:url(#linear-gradient-22);}.cls-79{fill:url(#radial-gradient-11);}.cls-80{fill:url(#linear-gradient-23);}.cls-81{fill:url(#linear-gradient-24);}.cls-82{fill:url(#radial-gradient-12);}.cls-83{fill:url(#linear-gradient-25);}.cls-84{fill:url(#linear-gradient-26);}.cls-85{fill:url(#radial-gradient-13);}.cls-86{fill:url(#linear-gradient-27);}.cls-87{fill:url(#linear-gradient-28);}.cls-88{fill:url(#radial-gradient-14);}.cls-89{fill:url(#linear-gradient-29);}.cls-90{fill:url(#linear-gradient-30);}.cls-91{fill:url(#radial-gradient-15);}.cls-92{fill:url(#linear-gradient-31);}.cls-93{fill:url(#linear-gradient-32);}.cls-94{fill:url(#radial-gradient-16);}.cls-95{fill:url(#linear-gradient-33);}.cls-96{fill:url(#linear-gradient-34);}.cls-97{fill:url(#radial-gradient-17);}.cls-98{fill:url(#linear-gradient-35);}.cls-99{fill:url(#linear-gradient-36);}.cls-100{fill:url(#radial-gradient-18);}.cls-101{fill:url(#linear-gradient-37);}.cls-102{fill:url(#linear-gradient-38);}.cls-103{fill:url(#radial-gradient-19);}.cls-104{fill:url(#linear-gradient-39);}.cls-105{fill:url(#linear-gradient-40);}.cls-106{fill:url(#radial-gradient-20);}.cls-107{fill:url(#linear-gradient-41);}.cls-108{fill:url(#linear-gradient-42);}.cls-109{fill:url(#radial-gradient-21);}</style><linearGradient id="linear-gradient" x1="6.78" y1="16.37" x2="6.78" y2="21.72" gradientUnits="userSpaceOnUse"><stop offset="0" stop-color="#f96f69"/><stop offset="1" stop-color="#f9382f"/></linearGradient><linearGradient id="linear-gradient-2" x1="6.78" y1="21.39" x2="6.78" y2="16.38" xlink:href="#linear-gradient"/><radialGradient id="radial-gradient" cx="2.93" cy="17.4" r="2.07" gradientTransform="translate(3.81 1.25) scale(1.01 1.02)" gradientUnits="userSpaceOnUse"><stop offset="0" stop-color="#eb6963"/><stop offset="1" stop-color="#f96f69"/></radialGradient><linearGradient id="linear-gradient-3" x1="6.78" y1="22.23" x2="6.78" y2="27.66" gradientUnits="userSpaceOnUse"><stop offset="0" stop-color="#13aff0"/><stop offset="1" stop-color="#4d8da7"/></linearGradient><linearGradient id="linear-gradient-4" x1="6.78" y1="27.18" x2="6.78" y2="22.09" xlink:href="#linear-gradient-3"/><radialGradient id="radial-gradient-2" cx="2.93" cy="23.01" r="2.07" gradientTransform="translate(3.81 1.25) scale(1.01 1.02)" gradientUnits="userSpaceOnUse"><stop offset="0" stop-color="#5eaccc"/><stop offset="1" stop-color="#13aff0"/></radialGradient><linearGradient id="linear-gradient-5" x1="12.92" y1="22.23" x2="12.92" y2="27.66" xlink:href="#linear-gradient-3"/><linearGradient id="linear-gradient-6" x1="12.92" y1="27.18" x2="12.92" y2="22.09" xlink:href="#linear-gradient-3"/><radialGradient id="radial-gradient-3" cx="9" cy="23.01" r="2.07" xlink:href="#radial-gradient-2"/><linearGradient id="linear-gradient-7" x1="19.05" y1="22.23" x2="19.05" y2="27.66" xlink:href="#linear-gradient-3"/><linearGradient id="linear-gradient-8" x1="19.05" y1="27.18" x2="19.05" y2="22.09" xlink:href="#linear-gradient-3"/><radialGradient id="radial-gradient-4" cx="15.06" cy="23.01" r="2.07" xlink:href="#radial-gradient-2"/><linearGradient id="linear-gradient-9" x1="25.19" y1="22.23" x2="25.19" y2="27.66" xlink:href="#linear-gradient-3"/><linearGradient id="linear-gradient-10" x1="25.19" y1="27.18" x2="25.19" y2="22.09" xlink:href="#linear-gradient-3"/><radialGradient id="radial-gradient-5" cx="21.12" cy="23.01" r="2.07" xlink:href="#radial-gradient-2"/><linearGradient id="linear-gradient-11" x1="31.33" y1="22.23" x2="31.33" y2="27.66" xlink:href="#linear-gradient-3"/><linearGradient id="linear-gradient-12" x1="31.33" y1="27.18" x2="31.33" y2="22.09" xlink:href="#linear-gradient-3"/><radialGradient id="radial-gradient-6" cx="27.18" cy="23.01" r="2.07" xlink:href="#radial-gradient-2"/><linearGradient id="linear-gradient-13" x1="37.46" y1="22.23" x2="37.46" y2="27.66" xlink:href="#linear-gradient-3"/><linearGradient id="linear-gradient-14" x1="37.46" y1="27.18" x2="37.46" y2="22.09" xlink:href="#linear-gradient-3"/><radialGradient id="radial-gradient-7" cx="33.24" cy="23.01" r="2.07" xlink:href="#radial-gradient-2"/><linearGradient id="linear-gradient-15" x1="43.6" y1="22.23" x2="43.6" y2="27.66" xlink:href="#linear-gradient-3"/><linearGradient id="linear-gradient-16" x1="43.6" y1="27.18" x2="43.6" y2="22.09" xlink:href="#linear-gradient-3"/><radialGradient id="radial-gradient-8" cx="39.3" cy="23.01" r="2.07" xlink:href="#radial-gradient-2"/><linearGradient id="linear-gradient-17" x1="49.73" y1="22.23" x2="49.73" y2="27.66" xlink:href="#linear-gradient-3"/><linearGradient id="linear-gradient-18" x1="49.73" y1="27.18" x2="49.73" y2="22.09" xlink:href="#linear-gradient-3"/><radialGradient id="radial-gradient-9" cx="45.36" cy="23.01" r="2.07" xlink:href="#radial-gradient-2"/><linearGradient id="linear-gradient-19" x1="55.87" y1="22.23" x2="55.87" y2="27.66" xlink:href="#linear-gradient-3"/><linearGradient id="linear-gradient-20" x1="55.87" y1="27.18" x2="55.87" y2="22.09" xlink:href="#linear-gradient-3"/><radialGradient id="radial-gradient-10" cx="51.42" cy="23.01" r="2.07" xlink:href="#radial-gradient-2"/><linearGradient id="linear-gradient-21" x1="12.92" y1="16.37" x2="12.92" y2="21.72" xlink:href="#linear-gradient"/><linearGradient id="linear-gradient-22" x1="12.92" y1="21.39" x2="12.92" y2="16.38" xlink:href="#linear-gradient"/><radialGradient id="radial-gradient-11" cx="9" cy="17.4" r="2.07" xlink:href="#radial-gradient"/><linearGradient id="linear-gradient-23" x1="19.05" y1="16.37" x2="19.05" y2="21.72" xlink:href="#linear-gradient"/><linearGradient id="linear-gradient-24" x1="19.05" y1="21.39" x2="19.05" y2="16.38" xlink:href="#linear-gradient"/><radialGradient id="radial-gradient-12" cx="15.06" cy="17.4" r="2.07" xlink:href="#radial-gradient"/><linearGradient id="linear-gradient-25" x1="25.19" y1="16.37" x2="25.19" y2="21.72" xlink:href="#linear-gradient"/><linearGradient id="linear-gradient-26" x1="25.19" y1="21.39" x2="25.19" y2="16.38" xlink:href="#linear-gradient"/><radialGradient id="radial-gradient-13" cx="21.12" cy="17.4" r="2.07" xlink:href="#radial-gradient"/><linearGradient id="linear-gradient-27" x1="31.33" y1="16.37" x2="31.33" y2="21.72" xlink:href="#linear-gradient"/><linearGradient id="linear-gradient-28" x1="31.33" y1="21.39" x2="31.33" y2="16.38" xlink:href="#linear-gradient"/><radialGradient id="radial-gradient-14" cx="27.18" cy="17.4" r="2.07" xlink:href="#radial-gradient"/><linearGradient id="linear-gradient-29" x1="37.46" y1="16.37" x2="37.46" y2="21.72" xlink:href="#linear-gradient"/><linearGradient id="linear-gradient-30" x1="37.46" y1="21.39" x2="37.46" y2="16.38" xlink:href="#linear-gradient"/><radialGradient id="radial-gradient-15" cx="33.24" cy="17.4" r="2.07" xlink:href="#radial-gradient"/><linearGradient id="linear-gradient-31" x1="43.6" y1="16.37" x2="43.6" y2="21.72" xlink:href="#linear-gradient"/><linearGradient id="linear-gradient-32" x1="43.6" y1="21.39" x2="43.6" y2="16.38" xlink:href="#linear-gradient"/><radialGradient id="radial-gradient-16" cx="39.3" cy="17.4" r="2.07" xlink:href="#radial-gradient"/><linearGradient id="linear-gradient-33" x1="49.73" y1="16.37" x2="49.73" y2="21.72" xlink:href="#linear-gradient"/><linearGradient id="linear-gradient-34" x1="49.73" y1="21.39" x2="49.73" y2="16.38" xlink:href="#linear-gradient"/><radialGradient id="radial-gradient-17" cx="45.36" cy="17.4" r="2.07" xlink:href="#radial-gradient"/><linearGradient id="linear-gradient-35" x1="55.87" y1="16.37" x2="55.87" y2="21.72" xlink:href="#linear-gradient"/><linearGradient id="linear-gradient-36" x1="55.87" y1="21.39" x2="55.87" y2="16.38" xlink:href="#linear-gradient"/><radialGradient id="radial-gradient-18" cx="51.42" cy="17.4" r="2.07" xlink:href="#radial-gradient"/><linearGradient id="linear-gradient-37" x1="44.89" y1="34.95" x2="44.89" y2="47.53" gradientUnits="userSpaceOnUse"><stop offset="0" stop-color="#88e856"/><stop offset="1" stop-color="#2b7308"/></linearGradient><linearGradient id="linear-gradient-38" x1="44.89" y1="46.52" x2="44.89" y2="35.27" xlink:href="#linear-gradient-37"/><radialGradient id="radial-gradient-19" cx="40.57" cy="39" r="4.58" gradientTransform="translate(3.81 1.25) scale(1.01 1.02)" gradientUnits="userSpaceOnUse"><stop offset="0" stop-color="#49c40e"/><stop offset="1" stop-color="#88e856"/></radialGradient><linearGradient id="linear-gradient-39" x1="31.33" y1="34.95" x2="31.33" y2="47.53" xlink:href="#linear-gradient-37"/><linearGradient id="linear-gradient-40" x1="31.33" y1="46.52" x2="31.33" y2="35.27" xlink:href="#linear-gradient-37"/><radialGradient id="radial-gradient-20" cx="27.18" cy="39" r="4.58" xlink:href="#radial-gradient-19"/><linearGradient id="linear-gradient-41" x1="17.77" y1="34.95" x2="17.77" y2="47.53" xlink:href="#linear-gradient-37"/><linearGradient id="linear-gradient-42" x1="17.77" y1="46.52" x2="17.77" y2="35.27" xlink:href="#linear-gradient-37"/><radialGradient id="radial-gradient-21" cx="13.78" cy="39" r="4.58" xlink:href="#radial-gradient-19"/></defs><title>left grid-icon</title><circle class="cls-1" cx="31.33" cy="31.33" r="31.33"/><path class="cls-2" d="M31.33,61.65A30.33,30.33,0,1,1,61.65,31.33,30.36,30.36,0,0,1,31.33,61.65Z"/><ellipse class="cls-3" cx="6.78" cy="19.09" rx="2.84" ry="2.9"/><ellipse class="cls-4" cx="6.78" cy="19.09" rx="2.83" ry="2.89"/><ellipse class="cls-5" cx="6.78" cy="19.08" rx="2.82" ry="2.88"/><ellipse class="cls-6" cx="6.78" cy="19.07" rx="2.82" ry="2.87"/><ellipse class="cls-7" cx="6.78" cy="19.06" rx="2.81" ry="2.86"/><ellipse class="cls-8" cx="6.78" cy="19.06" rx="2.8" ry="2.85"/><ellipse class="cls-9" cx="6.78" cy="19.05" rx="2.8" ry="2.84"/><ellipse class="cls-10" cx="6.78" cy="19.04" rx="2.79" ry="2.83"/><ellipse class="cls-11" cx="6.78" cy="19.03" rx="2.78" ry="2.82"/><ellipse class="cls-12" cx="6.78" cy="19.03" rx="2.77" ry="2.81"/><ellipse class="cls-13" cx="6.78" cy="19.02" rx="2.77" ry="2.8"/><ellipse class="cls-14" cx="6.78" cy="19.01" rx="2.76" ry="2.79"/><ellipse class="cls-15" cx="6.78" cy="19" rx="2.75" ry="2.78"/><ellipse class="cls-16" cx="6.78" cy="19" rx="2.75" ry="2.78"/><ellipse class="cls-17" cx="6.78" cy="18.99" rx="2.74" ry="2.77"/><ellipse class="cls-18" cx="6.78" cy="18.98" rx="2.73" ry="2.76"/><ellipse class="cls-19" cx="6.78" cy="18.97" rx="2.73" ry="2.75"/><ellipse class="cls-20" cx="6.78" cy="18.97" rx="2.72" ry="2.74"/><ellipse class="cls-21" cx="6.78" cy="18.96" rx="2.71" ry="2.73"/><ellipse class="cls-22" cx="6.78" cy="18.95" rx="2.7" ry="2.72"/><ellipse class="cls-23" cx="6.78" cy="18.94" rx="2.7" ry="2.71"/><ellipse class="cls-24" cx="6.78" cy="18.94" rx="2.69" ry="2.7"/><ellipse class="cls-25" cx="6.78" cy="18.94" rx="2.69" ry="2.7"/><ellipse class="cls-26" cx="6.78" cy="18.94" rx="2.56" ry="2.57"/><ellipse class="cls-27" cx="6.78" cy="18.94" rx="2.1" ry="2.11"/><ellipse class="cls-28" cx="6.78" cy="24.79" rx="2.84" ry="2.9"/><ellipse class="cls-29" cx="6.78" cy="24.78" rx="2.83" ry="2.89"/><ellipse class="cls-30" cx="6.78" cy="24.77" rx="2.82" ry="2.88"/><ellipse class="cls-31" cx="6.78" cy="24.76" rx="2.82" ry="2.87"/><ellipse class="cls-32" cx="6.78" cy="24.76" rx="2.81" ry="2.86"/><ellipse class="cls-33" cx="6.78" cy="24.75" rx="2.8" ry="2.85"/><ellipse class="cls-34" cx="6.78" cy="24.74" rx="2.8" ry="2.84"/><ellipse class="cls-35" cx="6.78" cy="24.73" rx="2.79" ry="2.83"/><ellipse class="cls-36" cx="6.78" cy="24.73" rx="2.78" ry="2.82"/><ellipse class="cls-37" cx="6.78" cy="24.72" rx="2.77" ry="2.81"/><ellipse class="cls-38" cx="6.78" cy="24.71" rx="2.77" ry="2.8"/><ellipse class="cls-39" cx="6.78" cy="24.7" rx="2.76" ry="2.79"/><ellipse class="cls-40" cx="6.78" cy="24.7" rx="2.75" ry="2.78"/><ellipse class="cls-41" cx="6.78" cy="24.69" rx="2.75" ry="2.78"/><ellipse class="cls-42" cx="6.78" cy="24.68" rx="2.74" ry="2.77"/><ellipse class="cls-43" cx="6.78" cy="24.67" rx="2.73" ry="2.76"/><ellipse class="cls-44" cx="6.78" cy="24.67" rx="2.73" ry="2.75"/><ellipse class="cls-45" cx="6.78" cy="24.66" rx="2.72" ry="2.74"/><ellipse class="cls-46" cx="6.78" cy="24.65" rx="2.71" ry="2.73"/><ellipse class="cls-47" cx="6.78" cy="24.64" rx="2.7" ry="2.72"/><ellipse class="cls-48" cx="6.78" cy="24.64" rx="2.7" ry="2.71"/><ellipse class="cls-49" cx="6.78" cy="24.63" rx="2.69" ry="2.7"/><ellipse class="cls-50" cx="6.78" cy="24.63" rx="2.69" ry="2.7"/><ellipse class="cls-51" cx="6.78" cy="24.63" rx="2.56" ry="2.57"/><ellipse class="cls-52" cx="6.78" cy="24.63" rx="2.1" ry="2.11"/><ellipse class="cls-28" cx="12.92" cy="24.79" rx="2.84" ry="2.9"/><ellipse class="cls-29" cx="12.92" cy="24.78" rx="2.83" ry="2.89"/><ellipse class="cls-30" cx="12.92" cy="24.77" rx="2.82" ry="2.88"/><ellipse class="cls-31" cx="12.92" cy="24.76" rx="2.82" ry="2.87"/><ellipse class="cls-32" cx="12.92" cy="24.76" rx="2.81" ry="2.86"/><ellipse class="cls-33" cx="12.92" cy="24.75" rx="2.8" ry="2.85"/><ellipse class="cls-34" cx="12.92" cy="24.74" rx="2.8" ry="2.84"/><ellipse class="cls-35" cx="12.92" cy="24.73" rx="2.79" ry="2.83"/><ellipse class="cls-36" cx="12.92" cy="24.73" rx="2.78" ry="2.82"/><ellipse class="cls-37" cx="12.92" cy="24.72" rx="2.77" ry="2.81"/><ellipse class="cls-38" cx="12.92" cy="24.71" rx="2.77" ry="2.8"/><ellipse class="cls-39" cx="12.92" cy="24.7" rx="2.76" ry="2.79"/><ellipse class="cls-40" cx="12.92" cy="24.7" rx="2.75" ry="2.78"/><ellipse class="cls-41" cx="12.92" cy="24.69" rx="2.75" ry="2.78"/><ellipse class="cls-42" cx="12.92" cy="24.68" rx="2.74" ry="2.77"/><ellipse class="cls-43" cx="12.92" cy="24.67" rx="2.73" ry="2.76"/><ellipse class="cls-44" cx="12.92" cy="24.67" rx="2.73" ry="2.75"/><ellipse class="cls-45" cx="12.92" cy="24.66" rx="2.72" ry="2.74"/><ellipse class="cls-46" cx="12.92" cy="24.65" rx="2.71" ry="2.73"/><ellipse class="cls-47" cx="12.92" cy="24.64" rx="2.7" ry="2.72"/><ellipse class="cls-48" cx="12.92" cy="24.64" rx="2.7" ry="2.71"/><ellipse class="cls-49" cx="12.92" cy="24.63" rx="2.69" ry="2.7"/><ellipse class="cls-53" cx="12.92" cy="24.63" rx="2.69" ry="2.7"/><ellipse class="cls-54" cx="12.92" cy="24.63" rx="2.56" ry="2.57"/><ellipse class="cls-55" cx="12.92" cy="24.63" rx="2.1" ry="2.11"/><ellipse class="cls-28" cx="19.05" cy="24.79" rx="2.84" ry="2.9"/><ellipse class="cls-29" cx="19.05" cy="24.78" rx="2.83" ry="2.89"/><ellipse class="cls-30" cx="19.05" cy="24.77" rx="2.82" ry="2.88"/><ellipse class="cls-31" cx="19.05" cy="24.76" rx="2.82" ry="2.87"/><ellipse class="cls-32" cx="19.05" cy="24.76" rx="2.81" ry="2.86"/><ellipse class="cls-33" cx="19.05" cy="24.75" rx="2.8" ry="2.85"/><ellipse class="cls-34" cx="19.05" cy="24.74" rx="2.8" ry="2.84"/><ellipse class="cls-35" cx="19.05" cy="24.73" rx="2.79" ry="2.83"/><ellipse class="cls-36" cx="19.05" cy="24.73" rx="2.78" ry="2.82"/><ellipse class="cls-37" cx="19.05" cy="24.72" rx="2.77" ry="2.81"/><ellipse class="cls-38" cx="19.05" cy="24.71" rx="2.77" ry="2.8"/><ellipse class="cls-39" cx="19.05" cy="24.7" rx="2.76" ry="2.79"/><ellipse class="cls-40" cx="19.05" cy="24.7" rx="2.75" ry="2.78"/><ellipse class="cls-41" cx="19.05" cy="24.69" rx="2.75" ry="2.78"/><ellipse class="cls-42" cx="19.05" cy="24.68" rx="2.74" ry="2.77"/><ellipse class="cls-43" cx="19.05" cy="24.67" rx="2.73" ry="2.76"/><ellipse class="cls-44" cx="19.05" cy="24.67" rx="2.73" ry="2.75"/><ellipse class="cls-45" cx="19.05" cy="24.66" rx="2.72" ry="2.74"/><ellipse class="cls-46" cx="19.05" cy="24.65" rx="2.71" ry="2.73"/><ellipse class="cls-47" cx="19.05" cy="24.64" rx="2.7" ry="2.72"/><ellipse class="cls-48" cx="19.05" cy="24.64" rx="2.7" ry="2.71"/><ellipse class="cls-49" cx="19.05" cy="24.63" rx="2.69" ry="2.7"/><ellipse class="cls-56" cx="19.05" cy="24.63" rx="2.69" ry="2.7"/><ellipse class="cls-57" cx="19.05" cy="24.63" rx="2.56" ry="2.57"/><ellipse class="cls-58" cx="19.05" cy="24.63" rx="2.1" ry="2.11"/><ellipse class="cls-28" cx="25.19" cy="24.79" rx="2.84" ry="2.9"/><ellipse class="cls-29" cx="25.19" cy="24.78" rx="2.83" ry="2.89"/><ellipse class="cls-30" cx="25.19" cy="24.77" rx="2.82" ry="2.88"/><ellipse class="cls-31" cx="25.19" cy="24.76" rx="2.82" ry="2.87"/><ellipse class="cls-32" cx="25.19" cy="24.76" rx="2.81" ry="2.86"/><ellipse class="cls-33" cx="25.19" cy="24.75" rx="2.8" ry="2.85"/><ellipse class="cls-34" cx="25.19" cy="24.74" rx="2.8" ry="2.84"/><ellipse class="cls-35" cx="25.19" cy="24.73" rx="2.79" ry="2.83"/><ellipse class="cls-36" cx="25.19" cy="24.73" rx="2.78" ry="2.82"/><ellipse class="cls-37" cx="25.19" cy="24.72" rx="2.77" ry="2.81"/><ellipse class="cls-38" cx="25.19" cy="24.71" rx="2.77" ry="2.8"/><ellipse class="cls-39" cx="25.19" cy="24.7" rx="2.76" ry="2.79"/><ellipse class="cls-40" cx="25.19" cy="24.7" rx="2.75" ry="2.78"/><ellipse class="cls-41" cx="25.19" cy="24.69" rx="2.75" ry="2.78"/><ellipse class="cls-42" cx="25.19" cy="24.68" rx="2.74" ry="2.77"/><ellipse class="cls-43" cx="25.19" cy="24.67" rx="2.73" ry="2.76"/><ellipse class="cls-44" cx="25.19" cy="24.67" rx="2.73" ry="2.75"/><ellipse class="cls-45" cx="25.19" cy="24.66" rx="2.72" ry="2.74"/><ellipse class="cls-46" cx="25.19" cy="24.65" rx="2.71" ry="2.73"/><ellipse class="cls-47" cx="25.19" cy="24.64" rx="2.7" ry="2.72"/><ellipse class="cls-48" cx="25.19" cy="24.64" rx="2.7" ry="2.71"/><ellipse class="cls-49" cx="25.19" cy="24.63" rx="2.69" ry="2.7"/><ellipse class="cls-59" cx="25.19" cy="24.63" rx="2.69" ry="2.7"/><ellipse class="cls-60" cx="25.19" cy="24.63" rx="2.56" ry="2.57"/><ellipse class="cls-61" cx="25.19" cy="24.63" rx="2.1" ry="2.11"/><ellipse class="cls-28" cx="31.33" cy="24.79" rx="2.84" ry="2.9"/><ellipse class="cls-29" cx="31.33" cy="24.78" rx="2.83" ry="2.89"/><ellipse class="cls-30" cx="31.33" cy="24.77" rx="2.82" ry="2.88"/><ellipse class="cls-31" cx="31.33" cy="24.76" rx="2.82" ry="2.87"/><ellipse class="cls-32" cx="31.33" cy="24.76" rx="2.81" ry="2.86"/><ellipse class="cls-33" cx="31.33" cy="24.75" rx="2.8" ry="2.85"/><ellipse class="cls-34" cx="31.33" cy="24.74" rx="2.8" ry="2.84"/><ellipse class="cls-35" cx="31.33" cy="24.73" rx="2.79" ry="2.83"/><ellipse class="cls-36" cx="31.33" cy="24.73" rx="2.78" ry="2.82"/><ellipse class="cls-37" cx="31.33" cy="24.72" rx="2.77" ry="2.81"/><ellipse class="cls-38" cx="31.33" cy="24.71" rx="2.77" ry="2.8"/><ellipse class="cls-39" cx="31.33" cy="24.7" rx="2.76" ry="2.79"/><ellipse class="cls-40" cx="31.33" cy="24.7" rx="2.75" ry="2.78"/><ellipse class="cls-41" cx="31.33" cy="24.69" rx="2.75" ry="2.78"/><ellipse class="cls-42" cx="31.33" cy="24.68" rx="2.74" ry="2.77"/><ellipse class="cls-43" cx="31.33" cy="24.67" rx="2.73" ry="2.76"/><ellipse class="cls-44" cx="31.33" cy="24.67" rx="2.73" ry="2.75"/><ellipse class="cls-45" cx="31.33" cy="24.66" rx="2.72" ry="2.74"/><ellipse class="cls-46" cx="31.33" cy="24.65" rx="2.71" ry="2.73"/><ellipse class="cls-47" cx="31.33" cy="24.64" rx="2.7" ry="2.72"/><ellipse class="cls-48" cx="31.33" cy="24.64" rx="2.7" ry="2.71"/><ellipse class="cls-49" cx="31.33" cy="24.63" rx="2.69" ry="2.7"/><ellipse class="cls-62" cx="31.33" cy="24.63" rx="2.69" ry="2.7"/><ellipse class="cls-63" cx="31.33" cy="24.63" rx="2.56" ry="2.57"/><ellipse class="cls-64" cx="31.33" cy="24.63" rx="2.1" ry="2.11"/><ellipse class="cls-28" cx="37.46" cy="24.79" rx="2.84" ry="2.9"/><ellipse class="cls-29" cx="37.46" cy="24.78" rx="2.83" ry="2.89"/><ellipse class="cls-30" cx="37.46" cy="24.77" rx="2.82" ry="2.88"/><ellipse class="cls-31" cx="37.46" cy="24.76" rx="2.82" ry="2.87"/><ellipse class="cls-32" cx="37.46" cy="24.76" rx="2.81" ry="2.86"/><ellipse class="cls-33" cx="37.46" cy="24.75" rx="2.8" ry="2.85"/><ellipse class="cls-34" cx="37.46" cy="24.74" rx="2.8" ry="2.84"/><ellipse class="cls-35" cx="37.46" cy="24.73" rx="2.79" ry="2.83"/><ellipse class="cls-36" cx="37.46" cy="24.73" rx="2.78" ry="2.82"/><ellipse class="cls-37" cx="37.46" cy="24.72" rx="2.77" ry="2.81"/><ellipse class="cls-38" cx="37.46" cy="24.71" rx="2.77" ry="2.8"/><ellipse class="cls-39" cx="37.46" cy="24.7" rx="2.76" ry="2.79"/><ellipse class="cls-40" cx="37.46" cy="24.7" rx="2.75" ry="2.78"/><ellipse class="cls-41" cx="37.46" cy="24.69" rx="2.75" ry="2.78"/><ellipse class="cls-42" cx="37.46" cy="24.68" rx="2.74" ry="2.77"/><ellipse class="cls-43" cx="37.46" cy="24.67" rx="2.73" ry="2.76"/><ellipse class="cls-44" cx="37.46" cy="24.67" rx="2.73" ry="2.75"/><ellipse class="cls-45" cx="37.46" cy="24.66" rx="2.72" ry="2.74"/><ellipse class="cls-46" cx="37.46" cy="24.65" rx="2.71" ry="2.73"/><ellipse class="cls-47" cx="37.46" cy="24.64" rx="2.7" ry="2.72"/><ellipse class="cls-48" cx="37.46" cy="24.64" rx="2.7" ry="2.71"/><ellipse class="cls-49" cx="37.46" cy="24.63" rx="2.69" ry="2.7"/><ellipse class="cls-65" cx="37.46" cy="24.63" rx="2.69" ry="2.7"/><ellipse class="cls-66" cx="37.46" cy="24.63" rx="2.56" ry="2.57"/><ellipse class="cls-67" cx="37.46" cy="24.63" rx="2.1" ry="2.11"/><ellipse class="cls-28" cx="43.6" cy="24.79" rx="2.84" ry="2.9"/><ellipse class="cls-29" cx="43.6" cy="24.78" rx="2.83" ry="2.89"/><ellipse class="cls-30" cx="43.6" cy="24.77" rx="2.82" ry="2.88"/><ellipse class="cls-31" cx="43.6" cy="24.76" rx="2.82" ry="2.87"/><ellipse class="cls-32" cx="43.6" cy="24.76" rx="2.81" ry="2.86"/><ellipse class="cls-33" cx="43.6" cy="24.75" rx="2.8" ry="2.85"/><ellipse class="cls-34" cx="43.6" cy="24.74" rx="2.8" ry="2.84"/><ellipse class="cls-35" cx="43.6" cy="24.73" rx="2.79" ry="2.83"/><ellipse class="cls-36" cx="43.6" cy="24.73" rx="2.78" ry="2.82"/><ellipse class="cls-37" cx="43.6" cy="24.72" rx="2.77" ry="2.81"/><ellipse class="cls-38" cx="43.6" cy="24.71" rx="2.77" ry="2.8"/><ellipse class="cls-39" cx="43.6" cy="24.7" rx="2.76" ry="2.79"/><ellipse class="cls-40" cx="43.6" cy="24.7" rx="2.75" ry="2.78"/><ellipse class="cls-41" cx="43.6" cy="24.69" rx="2.75" ry="2.78"/><ellipse class="cls-42" cx="43.6" cy="24.68" rx="2.74" ry="2.77"/><ellipse class="cls-43" cx="43.6" cy="24.67" rx="2.73" ry="2.76"/><ellipse class="cls-44" cx="43.6" cy="24.67" rx="2.73" ry="2.75"/><ellipse class="cls-45" cx="43.6" cy="24.66" rx="2.72" ry="2.74"/><ellipse class="cls-46" cx="43.6" cy="24.65" rx="2.71" ry="2.73"/><ellipse class="cls-47" cx="43.6" cy="24.64" rx="2.7" ry="2.72"/><ellipse class="cls-48" cx="43.6" cy="24.64" rx="2.7" ry="2.71"/><ellipse class="cls-49" cx="43.6" cy="24.63" rx="2.69" ry="2.7"/><ellipse class="cls-68" cx="43.6" cy="24.63" rx="2.69" ry="2.7"/><ellipse class="cls-69" cx="43.6" cy="24.63" rx="2.56" ry="2.57"/><ellipse class="cls-70" cx="43.6" cy="24.63" rx="2.1" ry="2.11"/><ellipse class="cls-28" cx="49.73" cy="24.79" rx="2.84" ry="2.9"/><ellipse class="cls-29" cx="49.73" cy="24.78" rx="2.83" ry="2.89"/><ellipse class="cls-30" cx="49.73" cy="24.77" rx="2.82" ry="2.88"/><ellipse class="cls-31" cx="49.73" cy="24.76" rx="2.82" ry="2.87"/><ellipse class="cls-32" cx="49.73" cy="24.76" rx="2.81" ry="2.86"/><ellipse class="cls-33" cx="49.73" cy="24.75" rx="2.8" ry="2.85"/><ellipse class="cls-34" cx="49.73" cy="24.74" rx="2.8" ry="2.84"/><ellipse class="cls-35" cx="49.73" cy="24.73" rx="2.79" ry="2.83"/><ellipse class="cls-36" cx="49.73" cy="24.73" rx="2.78" ry="2.82"/><ellipse class="cls-37" cx="49.73" cy="24.72" rx="2.77" ry="2.81"/><ellipse class="cls-38" cx="49.73" cy="24.71" rx="2.77" ry="2.8"/><ellipse class="cls-39" cx="49.73" cy="24.7" rx="2.76" ry="2.79"/><ellipse class="cls-40" cx="49.73" cy="24.7" rx="2.75" ry="2.78"/><ellipse class="cls-41" cx="49.73" cy="24.69" rx="2.75" ry="2.78"/><ellipse class="cls-42" cx="49.73" cy="24.68" rx="2.74" ry="2.77"/><ellipse class="cls-43" cx="49.73" cy="24.67" rx="2.73" ry="2.76"/><ellipse class="cls-44" cx="49.73" cy="24.67" rx="2.73" ry="2.75"/><ellipse class="cls-45" cx="49.73" cy="24.66" rx="2.72" ry="2.74"/><ellipse class="cls-46" cx="49.73" cy="24.65" rx="2.71" ry="2.73"/><ellipse class="cls-47" cx="49.73" cy="24.64" rx="2.7" ry="2.72"/><ellipse class="cls-48" cx="49.73" cy="24.64" rx="2.7" ry="2.71"/><ellipse class="cls-49" cx="49.73" cy="24.63" rx="2.69" ry="2.7"/><ellipse class="cls-71" cx="49.73" cy="24.63" rx="2.69" ry="2.7"/><ellipse class="cls-72" cx="49.73" cy="24.63" rx="2.56" ry="2.57"/><ellipse class="cls-73" cx="49.73" cy="24.63" rx="2.1" ry="2.11"/><ellipse class="cls-28" cx="55.87" cy="24.79" rx="2.84" ry="2.9"/><ellipse class="cls-29" cx="55.87" cy="24.78" rx="2.83" ry="2.89"/><ellipse class="cls-30" cx="55.87" cy="24.77" rx="2.82" ry="2.88"/><ellipse class="cls-31" cx="55.87" cy="24.76" rx="2.82" ry="2.87"/><ellipse class="cls-32" cx="55.87" cy="24.76" rx="2.81" ry="2.86"/><ellipse class="cls-33" cx="55.87" cy="24.75" rx="2.8" ry="2.85"/><ellipse class="cls-34" cx="55.87" cy="24.74" rx="2.8" ry="2.84"/><ellipse class="cls-35" cx="55.87" cy="24.73" rx="2.79" ry="2.83"/><ellipse class="cls-36" cx="55.87" cy="24.73" rx="2.78" ry="2.82"/><ellipse class="cls-37" cx="55.87" cy="24.72" rx="2.77" ry="2.81"/><ellipse class="cls-38" cx="55.87" cy="24.71" rx="2.77" ry="2.8"/><ellipse class="cls-39" cx="55.87" cy="24.7" rx="2.76" ry="2.79"/><ellipse class="cls-40" cx="55.87" cy="24.7" rx="2.75" ry="2.78"/><ellipse class="cls-41" cx="55.87" cy="24.69" rx="2.75" ry="2.78"/><ellipse class="cls-42" cx="55.87" cy="24.68" rx="2.74" ry="2.77"/><ellipse class="cls-43" cx="55.87" cy="24.67" rx="2.73" ry="2.76"/><ellipse class="cls-44" cx="55.87" cy="24.67" rx="2.73" ry="2.75"/><ellipse class="cls-45" cx="55.87" cy="24.66" rx="2.72" ry="2.74"/><ellipse class="cls-46" cx="55.87" cy="24.65" rx="2.71" ry="2.73"/><ellipse class="cls-47" cx="55.87" cy="24.64" rx="2.7" ry="2.72"/><ellipse class="cls-48" cx="55.87" cy="24.64" rx="2.7" ry="2.71"/><ellipse class="cls-49" cx="55.87" cy="24.63" rx="2.69" ry="2.7"/><ellipse class="cls-74" cx="55.87" cy="24.63" rx="2.69" ry="2.7"/><ellipse class="cls-75" cx="55.87" cy="24.63" rx="2.56" ry="2.57"/><ellipse class="cls-76" cx="55.87" cy="24.63" rx="2.1" ry="2.11"/><ellipse class="cls-3" cx="12.92" cy="19.09" rx="2.84" ry="2.9"/><ellipse class="cls-4" cx="12.92" cy="19.09" rx="2.83" ry="2.89"/><ellipse class="cls-5" cx="12.92" cy="19.08" rx="2.82" ry="2.88"/><ellipse class="cls-6" cx="12.92" cy="19.07" rx="2.82" ry="2.87"/><ellipse class="cls-7" cx="12.92" cy="19.06" rx="2.81" ry="2.86"/><ellipse class="cls-8" cx="12.92" cy="19.06" rx="2.8" ry="2.85"/><ellipse class="cls-9" cx="12.92" cy="19.05" rx="2.8" ry="2.84"/><ellipse class="cls-10" cx="12.92" cy="19.04" rx="2.79" ry="2.83"/><ellipse class="cls-11" cx="12.92" cy="19.03" rx="2.78" ry="2.82"/><ellipse class="cls-12" cx="12.92" cy="19.03" rx="2.77" ry="2.81"/><ellipse class="cls-13" cx="12.92" cy="19.02" rx="2.77" ry="2.8"/><ellipse class="cls-14" cx="12.92" cy="19.01" rx="2.76" ry="2.79"/><ellipse class="cls-15" cx="12.92" cy="19" rx="2.75" ry="2.78"/><ellipse class="cls-16" cx="12.92" cy="19" rx="2.75" ry="2.78"/><ellipse class="cls-17" cx="12.92" cy="18.99" rx="2.74" ry="2.77"/><ellipse class="cls-18" cx="12.92" cy="18.98" rx="2.73" ry="2.76"/><ellipse class="cls-19" cx="12.92" cy="18.97" rx="2.73" ry="2.75"/><ellipse class="cls-20" cx="12.92" cy="18.97" rx="2.72" ry="2.74"/><ellipse class="cls-21" cx="12.92" cy="18.96" rx="2.71" ry="2.73"/><ellipse class="cls-22" cx="12.92" cy="18.95" rx="2.7" ry="2.72"/><ellipse class="cls-23" cx="12.92" cy="18.94" rx="2.7" ry="2.71"/><ellipse class="cls-24" cx="12.92" cy="18.94" rx="2.69" ry="2.7"/><ellipse class="cls-77" cx="12.92" cy="18.94" rx="2.69" ry="2.7"/><ellipse class="cls-78" cx="12.92" cy="18.94" rx="2.56" ry="2.57"/><ellipse class="cls-79" cx="12.92" cy="18.94" rx="2.1" ry="2.11"/><ellipse class="cls-3" cx="19.05" cy="19.09" rx="2.84" ry="2.9"/><ellipse class="cls-4" cx="19.05" cy="19.09" rx="2.83" ry="2.89"/><ellipse class="cls-5" cx="19.05" cy="19.08" rx="2.82" ry="2.88"/><ellipse class="cls-6" cx="19.05" cy="19.07" rx="2.82" ry="2.87"/><ellipse class="cls-7" cx="19.05" cy="19.06" rx="2.81" ry="2.86"/><ellipse class="cls-8" cx="19.05" cy="19.06" rx="2.8" ry="2.85"/><ellipse class="cls-9" cx="19.05" cy="19.05" rx="2.8" ry="2.84"/><ellipse class="cls-10" cx="19.05" cy="19.04" rx="2.79" ry="2.83"/><ellipse class="cls-11" cx="19.05" cy="19.03" rx="2.78" ry="2.82"/><ellipse class="cls-12" cx="19.05" cy="19.03" rx="2.77" ry="2.81"/><ellipse class="cls-13" cx="19.05" cy="19.02" rx="2.77" ry="2.8"/><ellipse class="cls-14" cx="19.05" cy="19.01" rx="2.76" ry="2.79"/><ellipse class="cls-15" cx="19.05" cy="19" rx="2.75" ry="2.78"/><ellipse class="cls-16" cx="19.05" cy="19" rx="2.75" ry="2.78"/><ellipse class="cls-17" cx="19.05" cy="18.99" rx="2.74" ry="2.77"/><ellipse class="cls-18" cx="19.05" cy="18.98" rx="2.73" ry="2.76"/><ellipse class="cls-19" cx="19.05" cy="18.97" rx="2.73" ry="2.75"/><ellipse class="cls-20" cx="19.05" cy="18.97" rx="2.72" ry="2.74"/><ellipse class="cls-21" cx="19.05" cy="18.96" rx="2.71" ry="2.73"/><ellipse class="cls-22" cx="19.05" cy="18.95" rx="2.7" ry="2.72"/><ellipse class="cls-23" cx="19.05" cy="18.94" rx="2.7" ry="2.71"/><ellipse class="cls-24" cx="19.05" cy="18.94" rx="2.69" ry="2.7"/><ellipse class="cls-80" cx="19.05" cy="18.94" rx="2.69" ry="2.7"/><ellipse class="cls-81" cx="19.05" cy="18.94" rx="2.56" ry="2.57"/><ellipse class="cls-82" cx="19.05" cy="18.94" rx="2.1" ry="2.11"/><ellipse class="cls-3" cx="25.19" cy="19.09" rx="2.84" ry="2.9"/><ellipse class="cls-4" cx="25.19" cy="19.09" rx="2.83" ry="2.89"/><ellipse class="cls-5" cx="25.19" cy="19.08" rx="2.82" ry="2.88"/><ellipse class="cls-6" cx="25.19" cy="19.07" rx="2.82" ry="2.87"/><ellipse class="cls-7" cx="25.19" cy="19.06" rx="2.81" ry="2.86"/><ellipse class="cls-8" cx="25.19" cy="19.06" rx="2.8" ry="2.85"/><ellipse class="cls-9" cx="25.19" cy="19.05" rx="2.8" ry="2.84"/><ellipse class="cls-10" cx="25.19" cy="19.04" rx="2.79" ry="2.83"/><ellipse class="cls-11" cx="25.19" cy="19.03" rx="2.78" ry="2.82"/><ellipse class="cls-12" cx="25.19" cy="19.03" rx="2.77" ry="2.81"/><ellipse class="cls-13" cx="25.19" cy="19.02" rx="2.77" ry="2.8"/><ellipse class="cls-14" cx="25.19" cy="19.01" rx="2.76" ry="2.79"/><ellipse class="cls-15" cx="25.19" cy="19" rx="2.75" ry="2.78"/><ellipse class="cls-16" cx="25.19" cy="19" rx="2.75" ry="2.78"/><ellipse class="cls-17" cx="25.19" cy="18.99" rx="2.74" ry="2.77"/><ellipse class="cls-18" cx="25.19" cy="18.98" rx="2.73" ry="2.76"/><ellipse class="cls-19" cx="25.19" cy="18.97" rx="2.73" ry="2.75"/><ellipse class="cls-20" cx="25.19" cy="18.97" rx="2.72" ry="2.74"/><ellipse class="cls-21" cx="25.19" cy="18.96" rx="2.71" ry="2.73"/><ellipse class="cls-22" cx="25.19" cy="18.95" rx="2.7" ry="2.72"/><ellipse class="cls-23" cx="25.19" cy="18.94" rx="2.7" ry="2.71"/><ellipse class="cls-24" cx="25.19" cy="18.94" rx="2.69" ry="2.7"/><ellipse class="cls-83" cx="25.19" cy="18.94" rx="2.69" ry="2.7"/><ellipse class="cls-84" cx="25.19" cy="18.94" rx="2.56" ry="2.57"/><ellipse class="cls-85" cx="25.19" cy="18.94" rx="2.1" ry="2.11"/><ellipse class="cls-3" cx="31.33" cy="19.09" rx="2.84" ry="2.9"/><ellipse class="cls-4" cx="31.33" cy="19.09" rx="2.83" ry="2.89"/><ellipse class="cls-5" cx="31.33" cy="19.08" rx="2.82" ry="2.88"/><ellipse class="cls-6" cx="31.33" cy="19.07" rx="2.82" ry="2.87"/><ellipse class="cls-7" cx="31.33" cy="19.06" rx="2.81" ry="2.86"/><ellipse class="cls-8" cx="31.33" cy="19.06" rx="2.8" ry="2.85"/><ellipse class="cls-9" cx="31.33" cy="19.05" rx="2.8" ry="2.84"/><ellipse class="cls-10" cx="31.33" cy="19.04" rx="2.79" ry="2.83"/><ellipse class="cls-11" cx="31.33" cy="19.03" rx="2.78" ry="2.82"/><ellipse class="cls-12" cx="31.33" cy="19.03" rx="2.77" ry="2.81"/><ellipse class="cls-13" cx="31.33" cy="19.02" rx="2.77" ry="2.8"/><ellipse class="cls-14" cx="31.33" cy="19.01" rx="2.76" ry="2.79"/><ellipse class="cls-15" cx="31.33" cy="19" rx="2.75" ry="2.78"/><ellipse class="cls-16" cx="31.33" cy="19" rx="2.75" ry="2.78"/><ellipse class="cls-17" cx="31.33" cy="18.99" rx="2.74" ry="2.77"/><ellipse class="cls-18" cx="31.33" cy="18.98" rx="2.73" ry="2.76"/><ellipse class="cls-19" cx="31.33" cy="18.97" rx="2.73" ry="2.75"/><ellipse class="cls-20" cx="31.33" cy="18.97" rx="2.72" ry="2.74"/><ellipse class="cls-21" cx="31.33" cy="18.96" rx="2.71" ry="2.73"/><ellipse class="cls-22" cx="31.33" cy="18.95" rx="2.7" ry="2.72"/><ellipse class="cls-23" cx="31.33" cy="18.94" rx="2.7" ry="2.71"/><ellipse class="cls-24" cx="31.33" cy="18.94" rx="2.69" ry="2.7"/><ellipse class="cls-86" cx="31.33" cy="18.94" rx="2.69" ry="2.7"/><ellipse class="cls-87" cx="31.33" cy="18.94" rx="2.56" ry="2.57"/><ellipse class="cls-88" cx="31.33" cy="18.94" rx="2.1" ry="2.11"/><ellipse class="cls-3" cx="37.46" cy="19.09" rx="2.84" ry="2.9"/><ellipse class="cls-4" cx="37.46" cy="19.09" rx="2.83" ry="2.89"/><ellipse class="cls-5" cx="37.46" cy="19.08" rx="2.82" ry="2.88"/><ellipse class="cls-6" cx="37.46" cy="19.07" rx="2.82" ry="2.87"/><ellipse class="cls-7" cx="37.46" cy="19.06" rx="2.81" ry="2.86"/><ellipse class="cls-8" cx="37.46" cy="19.06" rx="2.8" ry="2.85"/><ellipse class="cls-9" cx="37.46" cy="19.05" rx="2.8" ry="2.84"/><ellipse class="cls-10" cx="37.46" cy="19.04" rx="2.79" ry="2.83"/><ellipse class="cls-11" cx="37.46" cy="19.03" rx="2.78" ry="2.82"/><ellipse class="cls-12" cx="37.46" cy="19.03" rx="2.77" ry="2.81"/><ellipse class="cls-13" cx="37.46" cy="19.02" rx="2.77" ry="2.8"/><ellipse class="cls-14" cx="37.46" cy="19.01" rx="2.76" ry="2.79"/><ellipse class="cls-15" cx="37.46" cy="19" rx="2.75" ry="2.78"/><ellipse class="cls-16" cx="37.46" cy="19" rx="2.75" ry="2.78"/><ellipse class="cls-17" cx="37.46" cy="18.99" rx="2.74" ry="2.77"/><ellipse class="cls-18" cx="37.46" cy="18.98" rx="2.73" ry="2.76"/><ellipse class="cls-19" cx="37.46" cy="18.97" rx="2.73" ry="2.75"/><ellipse class="cls-20" cx="37.46" cy="18.97" rx="2.72" ry="2.74"/><ellipse class="cls-21" cx="37.46" cy="18.96" rx="2.71" ry="2.73"/><ellipse class="cls-22" cx="37.46" cy="18.95" rx="2.7" ry="2.72"/><ellipse class="cls-23" cx="37.46" cy="18.94" rx="2.7" ry="2.71"/><ellipse class="cls-24" cx="37.46" cy="18.94" rx="2.69" ry="2.7"/><ellipse class="cls-89" cx="37.46" cy="18.94" rx="2.69" ry="2.7"/><ellipse class="cls-90" cx="37.46" cy="18.94" rx="2.56" ry="2.57"/><ellipse class="cls-91" cx="37.46" cy="18.94" rx="2.1" ry="2.11"/><ellipse class="cls-3" cx="43.6" cy="19.09" rx="2.84" ry="2.9"/><ellipse class="cls-4" cx="43.6" cy="19.09" rx="2.83" ry="2.89"/><ellipse class="cls-5" cx="43.6" cy="19.08" rx="2.82" ry="2.88"/><ellipse class="cls-6" cx="43.6" cy="19.07" rx="2.82" ry="2.87"/><ellipse class="cls-7" cx="43.6" cy="19.06" rx="2.81" ry="2.86"/><ellipse class="cls-8" cx="43.6" cy="19.06" rx="2.8" ry="2.85"/><ellipse class="cls-9" cx="43.6" cy="19.05" rx="2.8" ry="2.84"/><ellipse class="cls-10" cx="43.6" cy="19.04" rx="2.79" ry="2.83"/><ellipse class="cls-11" cx="43.6" cy="19.03" rx="2.78" ry="2.82"/><ellipse class="cls-12" cx="43.6" cy="19.03" rx="2.77" ry="2.81"/><ellipse class="cls-13" cx="43.6" cy="19.02" rx="2.77" ry="2.8"/><ellipse class="cls-14" cx="43.6" cy="19.01" rx="2.76" ry="2.79"/><ellipse class="cls-15" cx="43.6" cy="19" rx="2.75" ry="2.78"/><ellipse class="cls-16" cx="43.6" cy="19" rx="2.75" ry="2.78"/><ellipse class="cls-17" cx="43.6" cy="18.99" rx="2.74" ry="2.77"/><ellipse class="cls-18" cx="43.6" cy="18.98" rx="2.73" ry="2.76"/><ellipse class="cls-19" cx="43.6" cy="18.97" rx="2.73" ry="2.75"/><ellipse class="cls-20" cx="43.6" cy="18.97" rx="2.72" ry="2.74"/><ellipse class="cls-21" cx="43.6" cy="18.96" rx="2.71" ry="2.73"/><ellipse class="cls-22" cx="43.6" cy="18.95" rx="2.7" ry="2.72"/><ellipse class="cls-23" cx="43.6" cy="18.94" rx="2.7" ry="2.71"/><ellipse class="cls-24" cx="43.6" cy="18.94" rx="2.69" ry="2.7"/><ellipse class="cls-92" cx="43.6" cy="18.94" rx="2.69" ry="2.7"/><ellipse class="cls-93" cx="43.6" cy="18.94" rx="2.56" ry="2.57"/><ellipse class="cls-94" cx="43.6" cy="18.94" rx="2.1" ry="2.11"/><ellipse class="cls-3" cx="49.73" cy="19.09" rx="2.84" ry="2.9"/><ellipse class="cls-4" cx="49.73" cy="19.09" rx="2.83" ry="2.89"/><ellipse class="cls-5" cx="49.73" cy="19.08" rx="2.82" ry="2.88"/><ellipse class="cls-6" cx="49.73" cy="19.07" rx="2.82" ry="2.87"/><ellipse class="cls-7" cx="49.73" cy="19.06" rx="2.81" ry="2.86"/><ellipse class="cls-8" cx="49.73" cy="19.06" rx="2.8" ry="2.85"/><ellipse class="cls-9" cx="49.73" cy="19.05" rx="2.8" ry="2.84"/><ellipse class="cls-10" cx="49.73" cy="19.04" rx="2.79" ry="2.83"/><ellipse class="cls-11" cx="49.73" cy="19.03" rx="2.78" ry="2.82"/><ellipse class="cls-12" cx="49.73" cy="19.03" rx="2.77" ry="2.81"/><ellipse class="cls-13" cx="49.73" cy="19.02" rx="2.77" ry="2.8"/><ellipse class="cls-14" cx="49.73" cy="19.01" rx="2.76" ry="2.79"/><ellipse class="cls-15" cx="49.73" cy="19" rx="2.75" ry="2.78"/><ellipse class="cls-16" cx="49.73" cy="19" rx="2.75" ry="2.78"/><ellipse class="cls-17" cx="49.73" cy="18.99" rx="2.74" ry="2.77"/><ellipse class="cls-18" cx="49.73" cy="18.98" rx="2.73" ry="2.76"/><ellipse class="cls-19" cx="49.73" cy="18.97" rx="2.73" ry="2.75"/><ellipse class="cls-20" cx="49.73" cy="18.97" rx="2.72" ry="2.74"/><ellipse class="cls-21" cx="49.73" cy="18.96" rx="2.71" ry="2.73"/><ellipse class="cls-22" cx="49.73" cy="18.95" rx="2.7" ry="2.72"/><ellipse class="cls-23" cx="49.73" cy="18.94" rx="2.7" ry="2.71"/><ellipse class="cls-24" cx="49.73" cy="18.94" rx="2.69" ry="2.7"/><ellipse class="cls-95" cx="49.73" cy="18.94" rx="2.69" ry="2.7"/><ellipse class="cls-96" cx="49.73" cy="18.94" rx="2.56" ry="2.57"/><ellipse class="cls-97" cx="49.73" cy="18.94" rx="2.1" ry="2.11"/><ellipse class="cls-3" cx="55.87" cy="19.09" rx="2.84" ry="2.9"/><ellipse class="cls-4" cx="55.87" cy="19.09" rx="2.83" ry="2.89"/><ellipse class="cls-5" cx="55.87" cy="19.08" rx="2.82" ry="2.88"/><ellipse class="cls-6" cx="55.87" cy="19.07" rx="2.82" ry="2.87"/><ellipse class="cls-7" cx="55.87" cy="19.06" rx="2.81" ry="2.86"/><ellipse class="cls-8" cx="55.87" cy="19.06" rx="2.8" ry="2.85"/><ellipse class="cls-9" cx="55.87" cy="19.05" rx="2.8" ry="2.84"/><ellipse class="cls-10" cx="55.87" cy="19.04" rx="2.79" ry="2.83"/><ellipse class="cls-11" cx="55.87" cy="19.03" rx="2.78" ry="2.82"/><ellipse class="cls-12" cx="55.87" cy="19.03" rx="2.77" ry="2.81"/><ellipse class="cls-13" cx="55.87" cy="19.02" rx="2.77" ry="2.8"/><ellipse class="cls-14" cx="55.87" cy="19.01" rx="2.76" ry="2.79"/><ellipse class="cls-15" cx="55.87" cy="19" rx="2.75" ry="2.78"/><ellipse class="cls-16" cx="55.87" cy="19" rx="2.75" ry="2.78"/><ellipse class="cls-17" cx="55.87" cy="18.99" rx="2.74" ry="2.77"/><ellipse class="cls-18" cx="55.87" cy="18.98" rx="2.73" ry="2.76"/><ellipse class="cls-19" cx="55.87" cy="18.97" rx="2.73" ry="2.75"/><ellipse class="cls-20" cx="55.87" cy="18.97" rx="2.72" ry="2.74"/><ellipse class="cls-21" cx="55.87" cy="18.96" rx="2.71" ry="2.73"/><ellipse class="cls-22" cx="55.87" cy="18.95" rx="2.7" ry="2.72"/><ellipse class="cls-23" cx="55.87" cy="18.94" rx="2.7" ry="2.71"/><ellipse class="cls-24" cx="55.87" cy="18.94" rx="2.69" ry="2.7"/><ellipse class="cls-98" cx="55.87" cy="18.94" rx="2.69" ry="2.7"/><ellipse class="cls-99" cx="55.87" cy="18.94" rx="2.56" ry="2.57"/><ellipse class="cls-100" cx="55.87" cy="18.94" rx="2.1" ry="2.11"/><ellipse class="cls-28" cx="44.89" cy="41.24" rx="6.27" ry="6.4"/><ellipse class="cls-29" cx="44.89" cy="41.22" rx="6.26" ry="6.38"/><ellipse class="cls-30" cx="44.89" cy="41.2" rx="6.24" ry="6.36"/><ellipse class="cls-31" cx="44.89" cy="41.19" rx="6.23" ry="6.34"/><ellipse class="cls-32" cx="44.89" cy="41.17" rx="6.21" ry="6.32"/><ellipse class="cls-33" cx="44.89" cy="41.15" rx="6.19" ry="6.3"/><ellipse class="cls-34" cx="44.89" cy="41.14" rx="6.18" ry="6.28"/><ellipse class="cls-35" cx="44.89" cy="41.12" rx="6.16" ry="6.26"/><ellipse class="cls-36" cx="44.89" cy="41.1" rx="6.15" ry="6.24"/><ellipse class="cls-37" cx="44.89" cy="41.09" rx="6.13" ry="6.22"/><ellipse class="cls-38" cx="44.89" cy="41.07" rx="6.12" ry="6.2"/><ellipse class="cls-39" cx="44.89" cy="41.05" rx="6.1" ry="6.17"/><ellipse class="cls-40" cx="44.89" cy="41.04" rx="6.09" ry="6.15"/><ellipse class="cls-41" cx="44.89" cy="41.02" rx="6.07" ry="6.13"/><ellipse class="cls-42" cx="44.89" cy="41" rx="6.05" ry="6.11"/><ellipse class="cls-43" cx="44.89" cy="40.99" rx="6.04" ry="6.09"/><ellipse class="cls-44" cx="44.89" cy="40.97" rx="6.02" ry="6.07"/><ellipse class="cls-45" cx="44.89" cy="40.96" rx="6.01" ry="6.05"/><ellipse class="cls-46" cx="44.89" cy="40.94" rx="5.99" ry="6.03"/><ellipse class="cls-47" cx="44.89" cy="40.92" rx="5.98" ry="6.01"/><ellipse class="cls-48" cx="44.89" cy="40.91" rx="5.96" ry="5.99"/><ellipse class="cls-49" cx="44.89" cy="40.89" rx="5.94" ry="5.97"/><ellipse class="cls-101" cx="44.89" cy="40.89" rx="5.94" ry="5.97"/><ellipse class="cls-102" cx="44.89" cy="40.89" rx="5.65" ry="5.68"/><ellipse class="cls-103" cx="44.89" cy="40.89" rx="4.64" ry="4.65"/><ellipse class="cls-28" cx="31.33" cy="41.24" rx="6.27" ry="6.4"/><ellipse class="cls-29" cx="31.33" cy="41.22" rx="6.26" ry="6.38"/><ellipse class="cls-30" cx="31.33" cy="41.2" rx="6.24" ry="6.36"/><ellipse class="cls-31" cx="31.33" cy="41.19" rx="6.23" ry="6.34"/><ellipse class="cls-32" cx="31.33" cy="41.17" rx="6.21" ry="6.32"/><ellipse class="cls-33" cx="31.33" cy="41.15" rx="6.19" ry="6.3"/><ellipse class="cls-34" cx="31.33" cy="41.14" rx="6.18" ry="6.28"/><ellipse class="cls-35" cx="31.33" cy="41.12" rx="6.16" ry="6.26"/><ellipse class="cls-36" cx="31.33" cy="41.1" rx="6.15" ry="6.24"/><ellipse class="cls-37" cx="31.33" cy="41.09" rx="6.13" ry="6.22"/><ellipse class="cls-38" cx="31.33" cy="41.07" rx="6.12" ry="6.2"/><ellipse class="cls-39" cx="31.33" cy="41.05" rx="6.1" ry="6.17"/><ellipse class="cls-40" cx="31.33" cy="41.04" rx="6.09" ry="6.15"/><ellipse class="cls-41" cx="31.33" cy="41.02" rx="6.07" ry="6.13"/><ellipse class="cls-42" cx="31.33" cy="41" rx="6.05" ry="6.11"/><ellipse class="cls-43" cx="31.33" cy="40.99" rx="6.04" ry="6.09"/><ellipse class="cls-44" cx="31.33" cy="40.97" rx="6.02" ry="6.07"/><ellipse class="cls-45" cx="31.33" cy="40.96" rx="6.01" ry="6.05"/><ellipse class="cls-46" cx="31.33" cy="40.94" rx="5.99" ry="6.03"/><ellipse class="cls-47" cx="31.33" cy="40.92" rx="5.98" ry="6.01"/><ellipse class="cls-48" cx="31.33" cy="40.91" rx="5.96" ry="5.99"/><ellipse class="cls-49" cx="31.33" cy="40.89" rx="5.94" ry="5.97"/><ellipse class="cls-104" cx="31.33" cy="40.89" rx="5.94" ry="5.97"/><ellipse class="cls-105" cx="31.33" cy="40.89" rx="5.65" ry="5.68"/><ellipse class="cls-106" cx="31.33" cy="40.89" rx="4.64" ry="4.65"/><ellipse class="cls-28" cx="17.77" cy="41.24" rx="6.27" ry="6.4"/><ellipse class="cls-29" cx="17.77" cy="41.22" rx="6.26" ry="6.38"/><ellipse class="cls-30" cx="17.77" cy="41.2" rx="6.24" ry="6.36"/><ellipse class="cls-31" cx="17.77" cy="41.19" rx="6.23" ry="6.34"/><ellipse class="cls-32" cx="17.77" cy="41.17" rx="6.21" ry="6.32"/><ellipse class="cls-33" cx="17.77" cy="41.15" rx="6.19" ry="6.3"/><ellipse class="cls-34" cx="17.77" cy="41.14" rx="6.18" ry="6.28"/><ellipse class="cls-35" cx="17.77" cy="41.12" rx="6.16" ry="6.26"/><ellipse class="cls-36" cx="17.77" cy="41.1" rx="6.15" ry="6.24"/><ellipse class="cls-37" cx="17.77" cy="41.09" rx="6.13" ry="6.22"/><ellipse class="cls-38" cx="17.77" cy="41.07" rx="6.12" ry="6.2"/><ellipse class="cls-39" cx="17.77" cy="41.05" rx="6.1" ry="6.17"/><ellipse class="cls-40" cx="17.77" cy="41.04" rx="6.09" ry="6.15"/><ellipse class="cls-41" cx="17.77" cy="41.02" rx="6.07" ry="6.13"/><ellipse class="cls-42" cx="17.77" cy="41" rx="6.05" ry="6.11"/><ellipse class="cls-43" cx="17.77" cy="40.99" rx="6.04" ry="6.09"/><ellipse class="cls-44" cx="17.77" cy="40.97" rx="6.02" ry="6.07"/><ellipse class="cls-45" cx="17.77" cy="40.96" rx="6.01" ry="6.05"/><ellipse class="cls-46" cx="17.77" cy="40.94" rx="5.99" ry="6.03"/><ellipse class="cls-47" cx="17.77" cy="40.92" rx="5.98" ry="6.01"/><ellipse class="cls-48" cx="17.77" cy="40.91" rx="5.96" ry="5.99"/><ellipse class="cls-49" cx="17.77" cy="40.89" rx="5.94" ry="5.97"/><ellipse class="cls-107" cx="17.77" cy="40.89" rx="5.94" ry="5.97"/><ellipse class="cls-108" cx="17.77" cy="40.89" rx="5.65" ry="5.68"/><ellipse class="cls-109" cx="17.77" cy="40.89" rx="4.64" ry="4.65"/></svg>