<svg id="Layer_1" data-name="Layer 1" xmlns="http://www.w3.org/2000/svg" viewBox="0 0 205.01 144"><title>butterfly</title><path d="M205,134v-5.87a5.77,5.77,0,0,1,0-11.54v-2.85a5.77,5.77,0,0,1,0-11.54V99.36a5.77,5.77,0,0,1,0-11.54V85a5.77,5.77,0,0,1,0-11.54V70.58A5.77,5.77,0,0,1,205,59V56.19a5.77,5.77,0,0,1,0-11.54V41.8a5.77,5.77,0,0,1,0-11.54V27.41a5.77,5.77,0,0,1,0-11.54V10A10,10,0,0,1,195,0H10A10,10,0,0,1,0,10v5.87a5.77,5.77,0,0,1,5.77,5.77A5.77,5.77,0,0,1,0,27.41v2.84A5.77,5.77,0,0,1,5.77,36,5.77,5.77,0,0,1,0,41.8v2.84a5.77,5.77,0,0,1,5.77,5.77A5.77,5.77,0,0,1,0,56.19V59a5.77,5.77,0,0,1,5.77,5.77A5.77,5.77,0,0,1,0,70.58v2.85A5.77,5.77,0,0,1,5.77,79.2,5.77,5.77,0,0,1,0,85v2.85a5.77,5.77,0,0,1,5.77,5.77A5.77,5.77,0,0,1,0,99.36v2.85A5.77,5.77,0,0,1,5.77,108,5.77,5.77,0,0,1,0,113.75v2.85a5.77,5.77,0,0,1,5.77,5.77A5.77,5.77,0,0,1,0,128.13V134a10,10,0,0,1,10,10H195A10,10,0,0,1,205,134Z" fill="#ed5d54"/><path d="M0,73.42A5.77,5.77,0,0,1,5.77,79.2,5.77,5.77,0,0,1,0,85v2.85a5.77,5.77,0,0,1,5.77,5.77A5.77,5.77,0,0,1,0,99.36v2.85A5.77,5.77,0,0,1,5.77,108,5.77,5.77,0,0,1,0,113.75v2.85a5.77,5.77,0,0,1,5.77,5.77A5.77,5.77,0,0,1,0,128.13V134a10,10,0,0,1,10,10H195a10,10,0,0,1,10-10v-5.87a5.77,5.77,0,0,1,0-11.54v-2.85a5.77,5.77,0,0,1,0-11.54V99.36a5.77,5.77,0,0,1,0-11.54V85a5.77,5.77,0,0,1,0-11.54V72.11H0Z" fill="#d8423f"/><path d="M14.08,12.79V131.21H190.93V12.79ZM189.64,129.92H15.37V14.08H189.64Z" fill="#7c0704" opacity="0.35"/><rect x="15.37" y="14.08" width="174.27" height="115.85" fill="#eef3cc"/><polygon points="189.64 72.11 189.64 129.92 15.37 129.92 15.37 72.11 14.08 72.11 14.08 131.21 190.93 131.21 190.93 72.11 189.64 72.11" fill="#7c0704" opacity="0.2"/><polygon points="71.42 12.79 54.59 12.79 61.02 0 77.84 0 71.42 12.79" fill="#fff" opacity="0.2"/><polygon points="78.02 12.79 74.84 12.79 81.27 0 84.45 0 78.02 12.79" fill="#fff" opacity="0.2"/><text transform="translate(154.41 31.3) scale(0.99 1)" font-size="19.29" fill="#d8423f" font-family="ABeeZee-Regular, ABeeZee Regular">10c</text><g id="g3193"><g id="path3409"><path d="M127.14,118.65c-1.55-.3-4.39-1.76-7.47-3.83a40.1,40.1,0,0,1-8.11-7A19.77,19.77,0,0,1,106.93,99c-1.54-5.58-2-10.42-1.27-14.36a22.84,22.84,0,0,0,.34-2.78v-.83l2.7-.15c3-.16,5.77-.5,18.09-2.19,13.15-1.81,12.78-1.78,14.78-1.06,3.5,1.26,6.31,3.5,7.54,6a6.06,6.06,0,0,1,.66,3.53,6.05,6.05,0,0,1-.64,3.48,7.72,7.72,0,0,1-1.9,2.38c-1.69,1.44-2.07,2.28-2.48,5.45-.48,3.72-1,4.52-3.81,6.44-1.41.95-1.76,1.7-1.92,4.05-.22,3.47-.93,4.45-3,4.23a3.33,3.33,0,0,0-3.71,2.22c-1.5,3.22-2.35,3.75-5.14,3.21Z" fill="#fff"/><path d="M128.71,119a8.51,8.51,0,0,1-1.61-.19h0c-1.56-.31-4.46-1.78-7.54-3.86a40.12,40.12,0,0,1-8.15-7,20,20,0,0,1-4.68-8.87c-1.55-5.61-2-10.48-1.28-14.45a22.61,22.61,0,0,0,.34-2.74v-1l2.89-.16c2.95-.16,5.82-.51,18.08-2.19l.92-.13c12-1.64,12-1.64,13.81-1l.14.05c3.54,1.28,6.4,3.56,7.65,6.11a6.27,6.27,0,0,1,.68,3.62,6.21,6.21,0,0,1-.66,3.57,7.93,7.93,0,0,1-2,2.44c-1.65,1.41-2,2.2-2.41,5.33-.49,3.77-1,4.63-3.9,6.58-1.35.91-1.68,1.6-1.83,3.9s-.49,3.38-1.18,4a2.62,2.62,0,0,1-2.07.45,3.14,3.14,0,0,0-3.5,2.1C131.26,118.11,130.42,119,128.71,119ZM106.2,81.24v.64a23,23,0,0,1-.35,2.81c-.69,3.92-.26,8.72,1.27,14.28a19.65,19.65,0,0,0,4.59,8.71,39.76,39.76,0,0,0,8.07,7c3,2,5.88,3.5,7.4,3.79h0c2.69.53,3.47,0,4.92-3.1A3.53,3.53,0,0,1,136,113a2.24,2.24,0,0,0,1.77-.36c.6-.5.91-1.61,1-3.69.16-2.4.55-3.22,2-4.2,2.79-1.88,3.25-2.65,3.72-6.3.42-3.22.82-4.1,2.55-5.58A7.53,7.53,0,0,0,149,90.58a5.85,5.85,0,0,0,.62-3.39,5.85,5.85,0,0,0-.64-3.44c-1.21-2.46-4-4.67-7.43-5.91l-.14-.05c-1.75-.64-1.75-.64-13.62,1l-.92.13c-12.27,1.69-15.15,2-18.11,2.2Z"/></g><g id="path3411"><path d="M133.78,82.37a1,1,0,0,0-.57.27,6.44,6.44,0,0,1-1.37,1.14c-.44.22-1,1.27-1.3,1.36s-1.08.27-1.2.5c-.38.69-.66,1.66-1.37,2.06a2.12,2.12,0,0,0-1.32,1.83c-.2,1.43-.13,2.53-1.15,3.62-.79.84-1.38,1.81-2.18,2.63s-2.31,1.3-2.8,2.1c-.62,1-.86,2.76-1.74,3.58-1,1-1.46,0-2.13.35-1.07.53-2.06,2-3.27,2.51s-2.4-.7-3.35-.35a5.55,5.55,0,0,0-.94.46,19.22,19.22,0,0,0,2.49,3.38,39.48,39.48,0,0,0,7,6.25c.32-.73.57-1.47,1.4-1.69a4.4,4.4,0,0,0,2-.82,4.6,4.6,0,0,1,1.71-.92c.62-.27.95-1.2,1.35-1.38a7,7,0,0,0,1.41-.47c.27-.3.67-1.27,1.07-1.39s1.59-.21,1.84-.74.64-.57.85-.9c.47-.71.36-1.46.71-2.16.45-.9.56-.49,1.37-.92a2.72,2.72,0,0,0,1.5-1.83c.26-1,.66-.56,1.49-1.17s1-1.35,1.18-2.48c.1-.69.81-1.21.83-1.88,0-.91-.39-1.81-.34-2.68a9.53,9.53,0,0,0-.43-2.53,6.77,6.77,0,0,1-.26-3.18c.19-.63.7-1.94.1-2.5-.4-.38-.75-.77-1.13-1.17S134.34,82.32,133.78,82.37Z" fill="#0197fd"/></g><g id="path3413"><path d="M128.54,115.74c-6.76-2.55-12.37-11.08-15.89-17.79-3.77-7.18-6.15-14.21-6-14.58l.27-.12-.07.19h0l.18,0c0,1.06,9.14,27.17,21.67,31.9Zm-21.72-32.3-.07.18Z"/></g><g id="path3415"><path d="M129.75,112.15c-5.51-3.37-9.49-5.8-19.49-28.41l.37-.16c10,22.5,13.89,24.91,19.33,28.23Z"/></g><g id="path3417"><path d="M136.13,108.2a103.71,103.71,0,0,1-25-24.92l.33-.23a103.32,103.32,0,0,0,24.94,24.83Z"/></g><g id="path3419"><path d="M138.62,103.42c-.92-3.47-14-14.51-25.6-20.64l.19-.35C124,88.13,138,99.45,139,103.32Z"/></g><g id="path3421"><path d="M142.37,95.75c-5.11-5-13.85-9.58-26.73-14l.13-.38c12.94,4.45,21.73,9.07,26.88,14.11Z"/></g><g id="path3423"><path d="M146.71,89.28c-10.27-5.82-19.58-8.4-28.47-7.89l0-.4c9-.51,18.35,2.08,28.69,7.94Z"/></g><g id="path3425"><path d="M139,77.19c-.59,0-1.38.09-2.45.21.17.16.32.28.42.39.43.46-.09,1.63-.13,2.24s.81,1.53.92,2.08c.16.84-.27.73.77,1.52.75.57,1,.69.71,1.54a5.56,5.56,0,0,0,.21,1.76c.08.84-.41.64,0,1.41a17,17,0,0,1,1,1.46c.29.64.71,1.17,1,1.84.15.37-.77,1.73-.84,2-.18.69.62,1.2,0,2.26a11.26,11.26,0,0,1-1.54,1.71,18.18,18.18,0,0,1-1.32,1.29,3.83,3.83,0,0,0-.94,1.11c-.07.12-1.46.54-1.67.7a8.72,8.72,0,0,1-.71,1.86c-.88.93-1.47.73-1,2.05.27.72-1,1.76-1.47,2.09s.21,1.23.29,1.56A29,29,0,0,1,129,109.6a24.41,24.41,0,0,1-2,1.66c-.79.43-1.07,1.19-1.94,1.68-1.73,1-1.23,1.21-2.43,2.08-.43.31-.91.56-1.35.83a21.47,21.47,0,0,0,5.85,2.79c2.79.55,3.65,0,5.14-3.21a3.33,3.33,0,0,1,3.71-2.22c2.11.22,2.81-.76,3-4.23.15-2.35.51-3.11,1.92-4.05,2.85-1.92,3.33-2.72,3.81-6.44.41-3.18.79-4,2.48-5.45a7.75,7.75,0,0,0,1.9-2.38,6,6,0,0,0,.64-3.48,6,6,0,0,0-.66-3.52c-1.23-2.51-4-4.75-7.54-6A5.39,5.39,0,0,0,139,77.19Z" fill="#0197fd"/></g><g id="path3176"><path d="M123.94,79.1c-9.62,1.31-12.54,1.65-15.23,1.8L106,81v.83a22.85,22.85,0,0,1-.35,2.77,31.3,31.3,0,0,0,.78,12.42,3.24,3.24,0,0,1,.41-.18c.67-.23,1.17.06,1.76-.08.37-.09,1.29-.77,1.56-.69s.94.51,1.24.54c.51.06.57-.17.92-.2.57,0,1.67.62,1.71.05,0-.36-.1-1.11.07-1.27.64-.61.54-1.55,1-2.06s1.34-.67,1.54-1c.33-.57.5-1.87,1-2.24a13.94,13.94,0,0,0,1.32-.69,1.45,1.45,0,0,0,.45-1.83c-.25-.74-.59-1.41.07-2,.31-.29.91-1.18,1.29-1.31A1.8,1.8,0,0,0,122.14,83a3.34,3.34,0,0,1,.72-1.66c.33-.35.84-.74.9-1.26A6.72,6.72,0,0,1,123.94,79.1Z" fill="#0197fd"/></g></g><g id="path3429"><path d="M105.94,79.91c.4-3.54,3-9.64,5.76-13.77q5.59-8.22,19.85-21.75c5-4.78,7.17-6.43,10.1-7.8,5.31-2.5,9.83-3.49,12.43-2.74a5.23,5.23,0,0,1,3.19,2.76c.66,1.74,0,4-1.62,5.79-.93,1-1,1.1-1,2.73-.06,2-.39,2.61-1.92,3.44S151,49.61,151,52s-.32,3.13-1.75,4.69c-1.13,1.23-1.14,1.81-.11,5.07,1.24,3.92,1.21,4.91-.21,7a3.65,3.65,0,0,0-.8,2.88,5,5,0,0,1-1.47,4.08c-.87.92-1.89,1.17-6.26,1.51-1.75.14-4.88.51-7,.82s-6.17.88-9.07,1.25-6.58.88-8.16,1.13c-2.36.38-8.19.92-10,.93-.38,0-.41-.13-.26-1.43Z" fill="#0197fd"/><path d="M106.19,81.54a.5.5,0,0,1-.4-.14c-.18-.2-.15-.55,0-1.52.41-3.59,3-9.68,5.79-13.86,3.71-5.46,10.4-12.79,19.88-21.78,5-4.78,7.22-6.46,10.15-7.84,5.35-2.51,9.93-3.52,12.57-2.75a5.39,5.39,0,0,1,3.32,2.88c.68,1.81,0,4.16-1.66,6-.9,1-.91,1-1,2.6-.07,2.1-.43,2.74-2,3.61s-1.61.94-1.65,3.27-.35,3.23-1.8,4.82c-1,1.13-1.12,1.55-.06,4.87,1.26,4,1.22,5-.24,7.16a3.47,3.47,0,0,0-.77,2.77,5.24,5.24,0,0,1-1.53,4.22c-.92,1-1.93,1.22-6.39,1.57-1.74.14-4.86.5-7,.82s-6.17.88-9.08,1.25-6.58.88-8.15,1.13c-2.34.37-8.22.92-10,.93Zm-.11-.41a.24.24,0,0,0,.12,0c1.75,0,7.6-.56,9.93-.93,1.57-.25,5.23-.76,8.16-1.13s7-.93,9.07-1.25,5.23-.69,7-.82c4.28-.34,5.31-.58,6.13-1.45a4.85,4.85,0,0,0,1.42-3.94,3.83,3.83,0,0,1,.84-3c1.38-2,1.41-3,.19-6.81-1.06-3.32-1-4,.15-5.26,1.4-1.53,1.65-2.21,1.7-4.56s.17-2.69,1.86-3.61c1.47-.8,1.76-1.32,1.82-3.27.05-1.67.1-1.81,1.07-2.86,1.59-1.72,2.21-3.91,1.58-5.58A5,5,0,0,0,154,34c-2.55-.74-7,.25-12.29,2.73-2.89,1.36-5,3-10,7.77-9.46,9-16.13,16.28-19.82,21.72-2.76,4.06-5.33,10.2-5.73,13.68a4.37,4.37,0,0,0-.06,1.2Z"/></g><path d="M137,47.82h-.15a5.62,5.62,0,0,0-1.52.72,19.24,19.24,0,0,1-2.59,1.19c-.57.17-2.35.58-2.32,1.49,0,.38.15,1.65.77,1.74,1.25.18,2.46-.95,3.44-.84.29.3.55,1,.92.84a2.16,2.16,0,0,0,1.13-.87,7.37,7.37,0,0,0,1.11-2.46C137.85,49.2,137.79,47.85,137,47.82Zm-1.62,9.09a.34.34,0,0,0-.18.05,4.08,4.08,0,0,0-1,.77A5.18,5.18,0,0,1,132.83,59c-.62.3-2.22,1-2.57,1.63-.22.4-.65,1.06,0,1.44s1.92.57,2.4.94c.22,0,.44,0,.66,0a2.26,2.26,0,0,0,1.05,0c.54-.15,1.06-.2,1.19-.85s.25-1.08.39-1.64.64-1.88.32-2.57C136.16,57.78,135.85,56.92,135.43,56.91Zm-6.55,7.92a1.79,1.79,0,0,0-1.12.54c-.66.64-.57.63-.26,1.44s2,2.26,1.18,2.85a2.69,2.69,0,0,1,.68.27.7.7,0,0,0,.13.1,3.53,3.53,0,0,0,.94.32c.37.07.71.13,1.07.22a4.26,4.26,0,0,0,1.13.25,3.24,3.24,0,0,0,2-.9c.47-.4,1.57-1.46,1.37-2.21-.15-.58-.31-.93-1.07-1.09-.55-.11-1-.51-1.5-.62a12.94,12.94,0,0,1-2.69-.65A4.05,4.05,0,0,0,128.88,64.83Zm2.92,7c-.43,0-.48.25-1.1.59s-.73,0-1.5.15a4.69,4.69,0,0,1-1.43.18c-1-.11-.67,0-1.15.52a2.58,2.58,0,0,0-.79,1c-.18.67-.78,1.61-.45,2.29l.34.69c-.24.2-.45.42-.71.6s-.69.44-1,.69a8.92,8.92,0,0,0-1.35,1l1.7-.22c2.37-.3,5.46-.73,7.68-1a1.53,1.53,0,0,0-.06-.32,2.73,2.73,0,0,1,0-1.32c.06-.68.15-.69.65-1.29s1.19-.89,1.68-1.46.5-.85-.19-1.32a4.59,4.59,0,0,0-1.65-.67A2.56,2.56,0,0,0,131.8,71.78Z" fill="#fff"/><path id="path3219" d="M107.7,79.73c-.5-1.69,1.19-3.17,1.89-4.63a48.5,48.5,0,0,1,7.85-10.52c6.86-7.33,16-12,25.15-15.76a48.36,48.36,0,0,1,7.66-2.6c-2.18,1.08-4.63,1.58-6.86,2.56A112.41,112.41,0,0,0,130.17,55c1.36-.79-1.55.92-2,1.23a53.79,53.79,0,0,0-13.67,12.36c-2.12,3-4,6.15-5.95,9.25C108.13,78.36,108.05,79.21,107.7,79.73Z"/><path id="path3434" d="M107.5,79.53c.67-1.37,2.06-2.34,3-3.53a55.74,55.74,0,0,1,20.87-13.38,43.7,43.7,0,0,1,14.93-2.17c.53.6-2.15.34-2.8.44a41.55,41.55,0,0,0-18.09,4.45c-1.1.53-2.17,1.11-3.23,1.71,1-.58-.79.45-1.24.77A59.75,59.75,0,0,0,109,77.93C108.49,78.43,108,79,107.5,79.53Z"/><path id="path3225" d="M107.69,79a21.16,21.16,0,0,1,4.06-2.77,68.63,68.63,0,0,1,14.05-6.9,46.11,46.11,0,0,1,17.11-1.69,32.86,32.86,0,0,1,4.85.7c.59.72-1.66.3-2.12.23a49.31,49.31,0,0,0-17.9.55,49.1,49.1,0,0,0-12.24,5.08l-2.09,1.21C111.47,76.57,109.52,77.75,107.69,79Z"/><path id="path3437" d="M108.25,78.7c0-.15.29-.21.37-.25a2.65,2.65,0,0,1,.4-.11c.19,0,.38-.07.57-.09l.7-.06.82-.06L112,78l1.06-.1,1.15-.13,1.19-.17,1.21-.21,1.22-.23,1.23-.25,1.25-.27,1.28-.28,1.31-.29,1.32-.3,1.33-.31,1.34-.32,1.34-.31,1.36-.31,1.37-.31,1.37-.3,1.35-.3,1.32-.28,1.28-.27,1.23-.26,1.18-.26,1.12-.25,1.06-.25,1-.25,1-.25.9-.25.85-.26.78-.26a.86.86,0,0,1,.39,0l-.19.15c-.27.14-.55.28-.83.39l-.81.28-.85.26-.9.25-1,.25-1,.25-1.06.24-1.12.25-1.18.26-1.22.26-1.28.27-1.32.28-1.35.29-1.37.3-1.37.3-1.36.31-1.35.32-1.34.32-1.33.31-1.32.3-1.31.29-1.28.28-1.25.27-1.23.25-1.22.23-1.21.2-1.18.16-1.14.12-1,.08-.9,0-.77,0-.66,0-.49,0a1.25,1.25,0,0,0-.27,0c.52-.32.24-.17.14-.08Z"/><path id="path3230" d="M107.35,80.74c0-2.55,1-5,1.91-7.39a46.2,46.2,0,0,1,8-13.12A92.62,92.62,0,0,1,133.9,44.77c5.73-3.93,12.61-6.73,19.66-6.24,1.21.62-2.24.18-2.76.29a30.93,30.93,0,0,0-14,4.22,50.72,50.72,0,0,0-4.28,2.87,93.76,93.76,0,0,0-17.72,17.85,48.19,48.19,0,0,0-6.34,12.73C108,77.86,107.9,79.52,107.35,80.74Z"/><g id="g3285"><g id="path3443"><path d="M77.87,118.65c1.55-.3,4.39-1.76,7.47-3.83a40.12,40.12,0,0,0,8.11-7A19.76,19.76,0,0,0,98.08,99c1.54-5.58,2-10.42,1.28-14.36A22.74,22.74,0,0,1,99,81.88v-.83l-2.7-.15c-3-.16-5.77-.5-18.09-2.19-13.15-1.81-12.78-1.78-14.78-1.06-3.5,1.26-6.31,3.5-7.54,6a6.06,6.06,0,0,0-.66,3.53,6.05,6.05,0,0,0,.64,3.48A7.72,7.72,0,0,0,57.78,93c1.69,1.44,2.07,2.28,2.48,5.45.48,3.72,1,4.52,3.81,6.44,1.41.95,1.76,1.7,1.92,4.05.22,3.47.93,4.45,3,4.23a3.33,3.33,0,0,1,3.71,2.22c1.5,3.22,2.35,3.75,5.14,3.21Z" fill="#fff"/><path d="M76.3,119c-1.71,0-2.55-.92-3.75-3.51a3.14,3.14,0,0,0-3.5-2.1A2.62,2.62,0,0,1,67,113c-.7-.59-1-1.74-1.19-4s-.47-3-1.83-3.9c-2.89-1.95-3.4-2.81-3.9-6.58-.41-3.12-.77-3.92-2.41-5.33a7.93,7.93,0,0,1-2-2.44A6.21,6.21,0,0,1,55,87.19a6.27,6.27,0,0,1,.68-3.62C57,81,59.83,78.74,63.37,77.46l.14-.05c1.85-.67,1.85-.67,13.81,1l.92.13c12.26,1.68,15.13,2,18.08,2.19l2.89.16v1a22.93,22.93,0,0,0,.34,2.74c.7,4,.27,8.83-1.28,14.45a20,20,0,0,1-4.68,8.87,40.14,40.14,0,0,1-8.14,7c-3.14,2.1-6,3.54-7.54,3.86A8.52,8.52,0,0,1,76.3,119Zm-6.76-6a3.51,3.51,0,0,1,3.37,2.36c1.45,3.13,2.23,3.62,4.92,3.1h0c1.52-.3,4.35-1.75,7.4-3.79a39.76,39.76,0,0,0,8.07-7A19.64,19.64,0,0,0,97.88,99c1.53-5.56,2-10.36,1.27-14.27a22.91,22.91,0,0,1-.35-2.81v-.64L96.3,81.1c-3-.16-5.84-.51-18.11-2.2l-.92-.13c-11.87-1.63-11.87-1.63-13.62-1l-.14.05c-3.44,1.24-6.22,3.45-7.43,5.91a5.85,5.85,0,0,0-.64,3.44,5.85,5.85,0,0,0,.62,3.39,7.53,7.53,0,0,0,1.85,2.32c1.73,1.47,2.13,2.36,2.55,5.58.48,3.66.93,4.42,3.72,6.3,1.45,1,1.85,1.8,2,4.2.13,2.08.45,3.18,1,3.69A2.24,2.24,0,0,0,69,113Z"/></g><g id="path3445"><path d="M71.24,82.37a1,1,0,0,1,.57.27,6.44,6.44,0,0,0,1.37,1.14c.44.22,1,1.27,1.3,1.36s1.08.27,1.2.5c.38.69.66,1.66,1.37,2.06a2.12,2.12,0,0,1,1.32,1.83c.2,1.43.13,2.53,1.15,3.62.79.84,1.38,1.81,2.18,2.63s2.31,1.3,2.8,2.1c.62,1,.86,2.76,1.74,3.58,1,1,1.47,0,2.13.35,1.07.53,2.06,2,3.27,2.51s2.4-.7,3.35-.35a5.5,5.5,0,0,1,.94.46,19.22,19.22,0,0,1-2.49,3.38,39.49,39.49,0,0,1-7,6.25c-.32-.73-.56-1.47-1.4-1.69a4.4,4.4,0,0,1-2-.82,4.6,4.6,0,0,0-1.71-.92c-.62-.27-.95-1.2-1.35-1.38a7,7,0,0,1-1.41-.47c-.27-.3-.67-1.27-1.07-1.39s-1.59-.21-1.84-.74-.64-.57-.85-.9c-.47-.71-.36-1.46-.71-2.16-.44-.9-.56-.49-1.37-.92a2.72,2.72,0,0,1-1.5-1.83c-.26-1-.66-.56-1.49-1.17s-1-1.35-1.18-2.48c-.1-.69-.81-1.21-.83-1.88,0-.91.39-1.81.34-2.68a9.53,9.53,0,0,1,.43-2.53,6.78,6.78,0,0,0,.26-3.18c-.19-.63-.7-1.94-.1-2.5.4-.38.75-.77,1.13-1.17S70.68,82.32,71.24,82.37Z" fill="#0197fd"/></g><g id="path3447"><path d="M76.47,115.74l-.14-.37C88.85,110.63,98,84.52,98,83.46h.17l0,0-.07-.19.27.12c.14.37-2.25,7.4-6,14.58C88.84,104.65,83.22,113.18,76.47,115.74Z"/></g><g id="path3449"><path d="M75.26,112.15l-.21-.34c5.44-3.33,9.38-5.73,19.33-28.23l.37.16C84.74,106.35,80.77,108.78,75.26,112.15Z"/></g><g id="path3451"><path d="M68.88,108.2l-.23-.33A103.29,103.29,0,0,0,93.59,83l.33.23A103.68,103.68,0,0,1,68.88,108.2Z"/></g><g id="path3453"><path d="M66.39,103.42l-.39-.1c1-3.87,15-15.19,25.79-20.89l.19.35C80.38,88.91,67.31,100,66.39,103.42Z"/></g><g id="path3455"><path d="M62.64,95.75l-.28-.29c5.15-5,13.94-9.66,26.88-14.11l.13.38C76.49,86.17,67.75,90.75,62.64,95.75Z"/></g><g id="path3457"><path d="M58.3,89.28l-.2-.35C68.44,83.08,77.83,80.49,86.8,81l0,.4C77.88,80.89,68.57,83.47,58.3,89.28Z"/></g><g id="path3459"><path d="M66,77.19c.59,0,1.38.09,2.45.21-.17.16-.32.28-.42.39-.43.46.09,1.63.12,2.24s-.81,1.53-.92,2.08c-.16.84.27.73-.76,1.52-.75.57-1,.69-.71,1.54a5.58,5.58,0,0,1-.21,1.76c-.08.84.41.64,0,1.41a17.15,17.15,0,0,0-1,1.46c-.29.64-.71,1.17-1,1.84-.15.37.77,1.73.84,2,.18.69-.62,1.2,0,2.26a11.3,11.3,0,0,0,1.54,1.71,18.32,18.32,0,0,0,1.32,1.29A3.83,3.83,0,0,1,68.2,100c.07.12,1.46.54,1.67.7a8.79,8.79,0,0,0,.71,1.86c.88.93,1.47.73,1,2.05-.27.72,1,1.76,1.47,2.09s-.21,1.23-.29,1.56A29,29,0,0,0,76,109.6a24.66,24.66,0,0,0,2,1.66c.79.43,1.07,1.19,1.94,1.68,1.73,1,1.23,1.21,2.43,2.08.43.31.91.56,1.35.83a21.46,21.46,0,0,1-5.85,2.79c-2.79.55-3.65,0-5.14-3.21A3.33,3.33,0,0,0,69,113.22c-2.11.22-2.81-.76-3-4.23-.15-2.35-.51-3.11-1.92-4.05-2.85-1.92-3.33-2.72-3.81-6.44-.41-3.18-.79-4-2.48-5.45a7.73,7.73,0,0,1-1.9-2.38,6,6,0,0,1-.64-3.48,6,6,0,0,1,.66-3.52c1.23-2.51,4-4.75,7.54-6A5.4,5.4,0,0,1,66,77.19Z" fill="#0197fd"/></g><g id="path3461"><path d="M81.08,79.1c9.62,1.31,12.54,1.65,15.23,1.8L99,81v.83a22.75,22.75,0,0,0,.35,2.77,31.33,31.33,0,0,1-.78,12.42,3.33,3.33,0,0,0-.41-.18c-.67-.23-1.17.06-1.76-.08-.37-.09-1.29-.77-1.56-.69s-.94.51-1.24.54c-.52.06-.57-.17-.92-.2-.57,0-1.66.62-1.71.05,0-.36.1-1.11-.07-1.27-.64-.61-.54-1.55-1-2.06s-1.34-.67-1.54-1c-.33-.57-.5-1.87-1-2.24A14,14,0,0,1,86,89.26a1.45,1.45,0,0,1-.45-1.83c.25-.74.59-1.41-.07-2-.31-.29-.91-1.18-1.29-1.31A1.8,1.8,0,0,1,82.87,83a3.34,3.34,0,0,0-.72-1.66c-.33-.35-.84-.74-.9-1.26A6.6,6.6,0,0,0,81.08,79.1Z" fill="#0197fd"/></g></g><g id="g3307"><g id="path3464"><path d="M99.07,79.91c-.4-3.54-3-9.64-5.76-13.77q-5.59-8.22-19.85-21.75c-5-4.78-7.17-6.43-10.1-7.8-5.31-2.5-9.83-3.49-12.43-2.74a5.23,5.23,0,0,0-3.19,2.76c-.66,1.74,0,4,1.62,5.79.93,1,1,1.1,1,2.73.06,2,.39,2.61,1.92,3.44s1.71,1,1.75,3.44.32,3.13,1.75,4.69c1.13,1.23,1.14,1.81.11,5.07-1.24,3.92-1.21,4.91.21,7a3.65,3.65,0,0,1,.8,2.88,5,5,0,0,0,1.47,4.08c.87.92,1.89,1.17,6.26,1.51,1.75.14,4.88.51,7,.82s6.17.88,9.07,1.25,6.58.88,8.16,1.13c2.36.38,8.19.92,10,.93.38,0,.41-.13.26-1.43Z" fill="#0197fd"/><path d="M98.82,81.54h0c-1.77,0-7.65-.56-10-.93-1.57-.25-5.22-.76-8.15-1.13s-7-.93-9.08-1.25-5.21-.68-7-.82c-4.46-.35-5.47-.6-6.39-1.57a5.24,5.24,0,0,1-1.53-4.22A3.47,3.47,0,0,0,56,68.86c-1.46-2.12-1.5-3.19-.24-7.16,1.05-3.32,1-3.75-.06-4.87-1.45-1.59-1.76-2.4-1.8-4.82s-.09-2.42-1.65-3.27-2-1.51-2-3.61c0-1.58-.07-1.63-1-2.6-1.69-1.83-2.34-4.18-1.66-6a5.39,5.39,0,0,1,3.32-2.88c2.64-.77,7.22.23,12.57,2.75,2.93,1.38,5.11,3.07,10.15,7.84,9.48,9,16.16,16.32,19.88,21.78,2.84,4.18,5.38,10.26,5.79,13.86h0c.11,1,.13,1.32,0,1.52A.5.5,0,0,1,98.82,81.54ZM52.91,33.8A6.91,6.91,0,0,0,51,34a5,5,0,0,0-3.06,2.63c-.63,1.67,0,3.86,1.58,5.58,1,1.05,1,1.18,1.07,2.86.06,2,.35,2.47,1.82,3.27,1.69.92,1.81,1.16,1.86,3.61s.3,3,1.7,4.56c1.19,1.3,1.2,1.94.15,5.26-1.22,3.85-1.2,4.8.19,6.81a3.83,3.83,0,0,1,.84,3,4.84,4.84,0,0,0,1.42,3.94c.82.87,1.85,1.11,6.13,1.45,1.75.14,4.88.51,7,.82s6.16.88,9.07,1.25,6.59.88,8.16,1.13c2.33.37,8.18.92,9.93.93h.12a4.59,4.59,0,0,0-.06-1.2c-.4-3.48-3-9.61-5.73-13.68-3.7-5.44-10.37-12.75-19.82-21.72-5-4.74-7.16-6.41-10-7.77C59.16,34.83,55.52,33.8,52.91,33.8Z"/></g><path d="M68,47.82h.15a5.64,5.64,0,0,1,1.52.72,19.21,19.21,0,0,0,2.59,1.19c.57.17,2.35.58,2.32,1.49,0,.38-.15,1.65-.77,1.74-1.25.18-2.46-.95-3.44-.84-.29.3-.55,1-.92.84a2.16,2.16,0,0,1-1.13-.87,7.37,7.37,0,0,1-1.11-2.46C67.16,49.2,67.22,47.85,68,47.82Zm1.62,9.09a.34.34,0,0,1,.18.05,4.08,4.08,0,0,1,1,.77A5.19,5.19,0,0,0,72.18,59c.62.3,2.22,1,2.57,1.63.22.4.65,1.06,0,1.44s-1.92.57-2.4.94c-.22,0-.44,0-.66,0a2.26,2.26,0,0,1-1.05,0c-.54-.15-1.06-.2-1.19-.85s-.25-1.08-.39-1.64-.64-1.88-.32-2.57C68.85,57.78,69.16,56.92,69.58,56.91Zm6.55,7.92a1.79,1.79,0,0,1,1.12.54c.66.64.57.63.26,1.44s-2,2.26-1.18,2.85a2.69,2.69,0,0,0-.68.27.7.7,0,0,1-.13.1,3.52,3.52,0,0,1-.94.32c-.37.07-.71.13-1.07.22a4.26,4.26,0,0,1-1.13.25,3.24,3.24,0,0,1-2-.9c-.47-.4-1.57-1.46-1.37-2.21.15-.58.31-.93,1.07-1.09.55-.11,1-.51,1.5-.62a12.94,12.94,0,0,0,2.69-.65A4,4,0,0,1,76.13,64.83Zm-2.92,7c.43,0,.48.25,1.1.59s.73,0,1.5.15a4.69,4.69,0,0,0,1.43.18c1-.11.67,0,1.15.52a2.59,2.59,0,0,1,.79,1c.18.67.78,1.61.45,2.29l-.34.69c.24.2.45.42.71.6s.69.44,1,.69a8.92,8.92,0,0,1,1.35,1l-1.7-.22c-2.37-.3-5.46-.73-7.68-1a1.53,1.53,0,0,1,.06-.32,2.72,2.72,0,0,0,0-1.32c-.06-.68-.15-.69-.65-1.29s-1.19-.89-1.68-1.46-.5-.85.19-1.32a4.59,4.59,0,0,1,1.65-.67A2.56,2.56,0,0,1,73.21,71.78Z" fill="#fff"/><g id="path3468"><path d="M97.31,79.73c.5-1.69-1.19-3.17-1.89-4.63a48.52,48.52,0,0,0-7.85-10.52c-6.86-7.33-16-12-25.15-15.76a48.31,48.31,0,0,0-7.66-2.6C57,47.3,59.4,47.8,61.63,48.78A112.36,112.36,0,0,1,74.84,55c-1.36-.79,1.55.92,2,1.23A53.8,53.8,0,0,1,90.5,68.55c2.12,3,4,6.15,5.95,9.25C96.88,78.36,97,79.21,97.31,79.73Z"/></g><g id="path3470"><path d="M97.51,79.53c-.67-1.37-2.06-2.34-3-3.53A55.74,55.74,0,0,0,73.6,62.62a43.69,43.69,0,0,0-14.93-2.17c-.53.6,2.15.34,2.8.44a41.55,41.55,0,0,1,18.09,4.45c1.1.53,2.17,1.11,3.23,1.71-1-.58.79.45,1.24.77A59.75,59.75,0,0,1,96,77.93C96.52,78.43,97,79,97.51,79.53Z"/></g><g id="path3472"><path d="M97.32,79a21.15,21.15,0,0,0-4.06-2.77,68.62,68.62,0,0,0-14.05-6.9A46.11,46.11,0,0,0,62.1,67.68a32.84,32.84,0,0,0-4.85.7c-.59.72,1.66.3,2.12.23a49.32,49.32,0,0,1,17.9.55A49.12,49.12,0,0,1,89.5,74.24l2.09,1.21C93.55,76.57,95.49,77.75,97.32,79Z"/></g><g id="path3474"><path d="M96.76,78.7c0-.15-.29-.21-.37-.25a2.7,2.7,0,0,0-.4-.11c-.19,0-.38-.07-.57-.09l-.7-.06-.82-.06L93,78l-1.06-.1-1.15-.13-1.19-.17-1.21-.21-1.22-.23L85.92,77l-1.25-.27-1.28-.28-1.31-.29-1.32-.3-1.33-.31-1.34-.32-1.35-.31-1.36-.31L74,74.26,72.66,74l-1.35-.3L70,73.38l-1.28-.27-1.23-.26-1.18-.26-1.12-.25-1.06-.25-1-.25-1-.25-.9-.25-.85-.26-.78-.26a.86.86,0,0,0-.39,0l.19.15c.27.14.55.28.83.39l.81.28.85.26.9.25,1,.25,1,.25,1.06.24,1.12.25,1.18.26,1.22.26,1.28.27,1.32.28,1.35.29,1.37.3,1.37.3,1.36.31,1.35.32,1.34.32,1.33.31,1.32.3,1.31.29,1.28.28,1.25.27,1.23.25,1.22.23,1.21.2,1.18.16,1.14.12,1,.08.9,0,.77,0,.66,0,.49,0a1.25,1.25,0,0,1,.27,0c-.52-.32-.24-.17-.14-.08Z"/></g><g id="path3476"><path d="M97.66,80.74c0-2.55-1-5-1.91-7.39a46.21,46.21,0,0,0-8-13.12A92.6,92.6,0,0,0,71.11,44.77C65.38,40.84,58.5,38,51.45,38.53c-1.21.62,2.24.18,2.76.29a30.94,30.94,0,0,1,14,4.22,50.75,50.75,0,0,1,4.28,2.87A93.74,93.74,0,0,1,90.19,63.77,48.19,48.19,0,0,1,96.53,76.5C97,77.86,97.11,79.52,97.66,80.74Z"/></g></g><path id="path3478" d="M102.5,72.47c-1.65,0-3,2.39-3,5.33a6.63,6.63,0,0,0,1.61,4.72c-1,2-1.61,6-1.61,10.64,0,6.63,1.34,12,3,12s3-5.37,3-12c0-4.62-.65-8.63-1.61-10.64a6.63,6.63,0,0,0,1.61-4.72C105.5,74.86,104.16,72.47,102.5,72.47Z"/><path id="path3370" d="M103.41,73.58c-1-3.11,11.54-27.85,13.65-24.24" fill="none" stroke="#000" stroke-width="1.01"/><path id="path3372" d="M102.29,74.76a57.61,57.61,0,0,0-14.43-26" fill="none" stroke="#000" stroke-width="1.01"/></svg>