<svg id="Layer_1" data-name="Layer 1" xmlns="http://www.w3.org/2000/svg" xmlns:xlink="http://www.w3.org/1999/xlink" viewBox="0 0 244.31 178.29"><defs><style>.cls-1{fill:#ed5d54;}.cls-2,.cls-4{fill:#7c0704;}.cls-2{opacity:0.35;}.cls-3,.cls-7{fill:#d8423f;}.cls-4,.cls-6{opacity:0.2;}.cls-5{fill:#eef3cc;}.cls-6{fill:#fff;}.cls-7{font-size:23.89px;font-family:ABeeZee-Regular, ABeeZee Regular;}.cls-100,.cls-101,.cls-102,.cls-103,.cls-105,.cls-106,.cls-107,.cls-108,.cls-109,.cls-110,.cls-111,.cls-112,.cls-113,.cls-12,.cls-13,.cls-14,.cls-15,.cls-16,.cls-17,.cls-18,.cls-19,.cls-20,.cls-21,.cls-22,.cls-23,.cls-24,.cls-25,.cls-26,.cls-27,.cls-28,.cls-29,.cls-30,.cls-31,.cls-32,.cls-33,.cls-34,.cls-35,.cls-36,.cls-37,.cls-38,.cls-39,.cls-46,.cls-47,.cls-48,.cls-49,.cls-50,.cls-51,.cls-52,.cls-53,.cls-54,.cls-55,.cls-56,.cls-57,.cls-58,.cls-59,.cls-60,.cls-61,.cls-62,.cls-64,.cls-65,.cls-66,.cls-67,.cls-68,.cls-69,.cls-70,.cls-71,.cls-72,.cls-73,.cls-74,.cls-75,.cls-76,.cls-77,.cls-78,.cls-79,.cls-8,.cls-80,.cls-81,.cls-82,.cls-83,.cls-84,.cls-85,.cls-86,.cls-9,.cls-93,.cls-94,.cls-95,.cls-96,.cls-97,.cls-98,.cls-99{fill-rule:evenodd;}.cls-8{fill:url(#GradientFill_251);}.cls-9{fill:url(#GradientFill_252);}.cls-10,.cls-50{fill:#8c2004;}.cls-11{fill:url(#GradientFill_253);}.cls-12{fill:url(#GradientFill_254);}.cls-13{fill:url(#GradientFill_255);}.cls-14{fill:url(#GradientFill_256);}.cls-15{fill:url(#GradientFill_256-2);}.cls-16{fill:url(#GradientFill_256-3);}.cls-17{fill:url(#GradientFill_257);}.cls-18{fill:url(#GradientFill_258);}.cls-19{fill:url(#GradientFill_259);}.cls-20{fill:url(#GradientFill_259-2);}.cls-21{fill:url(#GradientFill_259-3);}.cls-22{fill:url(#GradientFill_259-4);}.cls-23{fill:url(#GradientFill_259-5);}.cls-24{fill:url(#GradientFill_259-6);}.cls-25{fill:#740000;}.cls-26{fill:#972a0a;}.cls-27{fill:#a3360f;}.cls-28{fill:#b14314;}.cls-29{fill:#722f2c;}.cls-30{fill:url(#GradientFill_260);}.cls-31{fill:url(#GradientFill_260-2);}.cls-32{fill:url(#GradientFill_260-3);}.cls-33{fill:url(#GradientFill_260-4);}.cls-34{fill:url(#GradientFill_260-5);}.cls-35{fill:url(#GradientFill_260-6);}.cls-36{fill:url(#GradientFill_261);}.cls-37{fill:url(#GradientFill_262);}.cls-38{fill:url(#GradientFill_256-4);}.cls-39{fill:url(#GradientFill_256-5);}.cls-40{fill:url(#GradientFill_263);}.cls-41{fill:url(#GradientFill_263-2);}.cls-42{fill:url(#GradientFill_263-3);}.cls-43{fill:url(#GradientFill_263-4);}.cls-44{fill:url(#GradientFill_263-5);}.cls-45{fill:url(#GradientFill_263-6);}.cls-46{fill:url(#GradientFill_264);}.cls-47{fill:#ca5c1a;}.cls-48{fill:url(#GradientFill_265);}.cls-49{fill:url(#GradientFill_265-2);}.cls-51{fill:#640000;}.cls-52{fill:#4e0000;}.cls-53{fill:url(#GradientFill_266);}.cls-54{fill:url(#GradientFill_260-7);}.cls-55{fill:url(#GradientFill_260-8);}.cls-56{fill:url(#GradientFill_260-9);}.cls-57{fill:url(#GradientFill_260-10);}.cls-58{fill:url(#GradientFill_260-11);}.cls-59{fill:url(#GradientFill_260-12);}.cls-60{fill:url(#GradientFill_260-13);}.cls-61{fill:url(#GradientFill_251-2);}.cls-62{fill:url(#GradientFill_252-2);}.cls-63{fill:url(#GradientFill_253-2);}.cls-64{fill:url(#GradientFill_254-2);}.cls-65{fill:url(#GradientFill_255-2);}.cls-66{fill:url(#GradientFill_256-6);}.cls-67{fill:url(#GradientFill_256-7);}.cls-68{fill:url(#GradientFill_256-8);}.cls-69{fill:url(#GradientFill_257-2);}.cls-70{fill:url(#GradientFill_258-2);}.cls-71{fill:url(#GradientFill_259-7);}.cls-72{fill:url(#GradientFill_259-8);}.cls-73{fill:url(#GradientFill_259-9);}.cls-74{fill:url(#GradientFill_259-10);}.cls-75{fill:url(#GradientFill_259-11);}.cls-76{fill:url(#GradientFill_259-12);}.cls-77{fill:url(#GradientFill_260-14);}.cls-78{fill:url(#GradientFill_260-15);}.cls-79{fill:url(#GradientFill_260-16);}.cls-80{fill:url(#GradientFill_260-17);}.cls-81{fill:url(#GradientFill_260-18);}.cls-82{fill:url(#GradientFill_260-19);}.cls-83{fill:url(#GradientFill_261-2);}.cls-84{fill:url(#GradientFill_262-2);}.cls-85{fill:url(#GradientFill_256-9);}.cls-86{fill:url(#GradientFill_256-10);}.cls-87{fill:url(#GradientFill_263-7);}.cls-88{fill:url(#GradientFill_263-8);}.cls-89{fill:url(#GradientFill_263-9);}.cls-90{fill:url(#GradientFill_263-10);}.cls-91{fill:url(#GradientFill_263-11);}.cls-92{fill:url(#GradientFill_263-12);}.cls-93{fill:url(#GradientFill_264-2);}.cls-94{fill:url(#GradientFill_265-3);}.cls-95{fill:url(#GradientFill_265-4);}.cls-96{fill:url(#GradientFill_266-2);}.cls-97{fill:url(#GradientFill_260-20);}.cls-98{fill:url(#GradientFill_260-21);}.cls-99{fill:url(#GradientFill_260-22);}.cls-100{fill:url(#GradientFill_260-23);}.cls-101{fill:url(#GradientFill_260-24);}.cls-102{fill:url(#GradientFill_260-25);}.cls-103{fill:url(#GradientFill_260-26);}.cls-104,.cls-105{fill:#231f20;}.cls-106{fill:#ad8178;}.cls-107{fill:url(#GradientFill_93);}.cls-108{fill:url(#GradientFill_93-2);}.cls-109{fill:url(#GradientFill_41);}.cls-110{fill:url(#GradientFill_41-2);}.cls-111{fill:url(#GradientFill_42);}.cls-112{fill:url(#GradientFill_41-3);}.cls-113{fill:url(#GradientFill_42-2);}</style><linearGradient id="GradientFill_251" x1="87.86" y1="69.02" x2="86.71" y2="52.52" gradientUnits="userSpaceOnUse"><stop offset="0" stop-color="#972a0a"/><stop offset="1" stop-color="#5e0000"/></linearGradient><linearGradient id="GradientFill_252" x1="89.63" y1="73.9" x2="89.07" y2="41.86" gradientUnits="userSpaceOnUse"><stop offset="0" stop-color="#d7661c"/><stop offset="1" stop-color="#be4f18"/></linearGradient><linearGradient id="GradientFill_253" x1="107.52" y1="134.11" x2="84.18" y2="93.69" gradientUnits="userSpaceOnUse"><stop offset="0" stop-color="#740000"/><stop offset="1" stop-color="#b14314"/></linearGradient><linearGradient id="GradientFill_254" x1="108.77" y1="134.4" x2="85.52" y2="90.67" gradientUnits="userSpaceOnUse"><stop offset="0" stop-color="#ca5c1a"/><stop offset="1" stop-color="#e5741e"/></linearGradient><linearGradient id="GradientFill_255" x1="76.14" y1="127.06" x2="111.17" y2="97.66" gradientUnits="userSpaceOnUse"><stop offset="0" stop-color="#fbaa34"/><stop offset="0.44" stop-color="#f78f35"/><stop offset="1" stop-color="#be4f18"/></linearGradient><linearGradient id="GradientFill_256" x1="97.09" y1="105.22" x2="114.85" y2="98.04" gradientUnits="userSpaceOnUse"><stop offset="0" stop-color="#f99d2c"/><stop offset="1" stop-color="#ca5c1a"/></linearGradient><linearGradient id="GradientFill_256-2" x1="95.12" y1="97.28" x2="114.09" y2="95.29" xlink:href="#GradientFill_256"/><linearGradient id="GradientFill_256-3" x1="95.94" y1="101.48" x2="114.43" y2="96.53" xlink:href="#GradientFill_256"/><linearGradient id="GradientFill_257" x1="120.26" y1="95.23" x2="100.21" y2="131.41" gradientUnits="userSpaceOnUse"><stop offset="0" stop-color="#f26922"/><stop offset="1" stop-color="#ffc643"/></linearGradient><linearGradient id="GradientFill_258" x1="91.82" y1="138.63" x2="74.44" y2="97.7" gradientUnits="userSpaceOnUse"><stop offset="0" stop-color="#ffe17f"/><stop offset="0.66" stop-color="#ffc643"/><stop offset="1" stop-color="#f78f35"/></linearGradient><linearGradient id="GradientFill_259" x1="72.66" y1="118.25" x2="104.94" y2="89.19" gradientUnits="userSpaceOnUse"><stop offset="0" stop-color="#e5741e"/><stop offset="1" stop-color="#b14314"/></linearGradient><linearGradient id="GradientFill_259-2" x1="74.42" y1="120.81" x2="107.28" y2="91.22" xlink:href="#GradientFill_259"/><linearGradient id="GradientFill_259-3" x1="76.85" y1="123.74" x2="109.49" y2="94.35" xlink:href="#GradientFill_259"/><linearGradient id="GradientFill_259-4" x1="79.24" y1="126.63" x2="112.24" y2="96.91" xlink:href="#GradientFill_259"/><linearGradient id="GradientFill_259-5" x1="82.32" y1="129.65" x2="114.86" y2="100.35" xlink:href="#GradientFill_259"/><linearGradient id="GradientFill_259-6" x1="84.88" y1="132.72" x2="117.43" y2="103.42" xlink:href="#GradientFill_259"/><linearGradient id="GradientFill_260" x1="68.61" y1="124.8" x2="105.42" y2="135.35" gradientUnits="userSpaceOnUse"><stop offset="0" stop-color="#8c2004"/><stop offset="1" stop-color="#e5741e"/></linearGradient><linearGradient id="GradientFill_260-2" x1="62.81" y1="112.48" x2="99.08" y2="136.94" xlink:href="#GradientFill_260"/><linearGradient id="GradientFill_260-3" x1="64.89" y1="106.04" x2="86.84" y2="132.21" xlink:href="#GradientFill_260"/><linearGradient id="GradientFill_260-4" x1="72.9" y1="94.77" x2="76.53" y2="129.37" xlink:href="#GradientFill_260"/><linearGradient id="GradientFill_260-5" x1="80.81" y1="88.89" x2="72.25" y2="118.75" xlink:href="#GradientFill_260"/><linearGradient id="GradientFill_260-6" x1="80.9" y1="129.42" x2="111.26" y2="138.13" xlink:href="#GradientFill_260"/><linearGradient id="GradientFill_261" x1="68.39" y1="64.95" x2="108.29" y2="81.07" gradientUnits="userSpaceOnUse"><stop offset="0" stop-color="#fbaa34"/><stop offset="0.44" stop-color="#f78f35"/><stop offset="1" stop-color="#ca5c1a"/></linearGradient><linearGradient id="GradientFill_262" x1="75.06" y1="89.74" x2="66.54" y2="45.88" gradientUnits="userSpaceOnUse"><stop offset="0" stop-color="#ffe17f"/><stop offset="0.48" stop-color="#ffc643"/><stop offset="1" stop-color="#fbaa34"/></linearGradient><linearGradient id="GradientFill_256-4" x1="91.94" y1="76.14" x2="112.27" y2="80.83" xlink:href="#GradientFill_256"/><linearGradient id="GradientFill_256-5" x1="93.44" y1="83.1" x2="112.82" y2="85.83" xlink:href="#GradientFill_256"/><linearGradient id="GradientFill_263" x1="89.46" y1="52.38" x2="71.39" y2="48.21" gradientUnits="userSpaceOnUse"><stop offset="0" stop-color="#ca5c1a"/><stop offset="1" stop-color="#f58220"/></linearGradient><linearGradient id="GradientFill_263-2" x1="90.65" y1="57.81" x2="67.5" y2="52.46" xlink:href="#GradientFill_263"/><linearGradient id="GradientFill_263-3" x1="93.07" y1="64.71" x2="67.05" y2="58.71" xlink:href="#GradientFill_263"/><linearGradient id="GradientFill_263-4" x1="99.16" y1="73.83" x2="67.76" y2="66.58" xlink:href="#GradientFill_263"/><linearGradient id="GradientFill_263-5" x1="102.83" y1="83.31" x2="76.51" y2="77.23" xlink:href="#GradientFill_263"/><linearGradient id="GradientFill_263-6" x1="98.79" y1="89.22" x2="72.12" y2="89.68" xlink:href="#GradientFill_263"/><linearGradient id="GradientFill_264" x1="85.47" y1="88.28" x2="118.58" y2="88.28" gradientUnits="userSpaceOnUse"><stop offset="0" stop-color="#a1490c"/><stop offset="1" stop-color="#8c2004"/></linearGradient><linearGradient id="GradientFill_265" x1="88.27" y1="61.22" x2="77.85" y2="55.91" gradientUnits="userSpaceOnUse"><stop offset="0" stop-color="#ffcb05"/><stop offset="1" stop-color="#ffda69"/></linearGradient><linearGradient id="GradientFill_265-2" x1="90.54" y1="58.04" x2="81.97" y2="52.69" xlink:href="#GradientFill_265"/><linearGradient id="GradientFill_266" x1="77.19" y1="48.82" x2="72.84" y2="47.32" gradientUnits="userSpaceOnUse"><stop offset="0" stop-color="#ffcb05"/><stop offset="1" stop-color="#ffe694"/></linearGradient><linearGradient id="GradientFill_260-7" x1="67.7" y1="48.99" x2="73.49" y2="90.19" xlink:href="#GradientFill_260"/><linearGradient id="GradientFill_260-8" x1="67.01" y1="49.08" x2="72.85" y2="90.6" xlink:href="#GradientFill_260"/><linearGradient id="GradientFill_260-9" x1="66.99" y1="48.77" x2="72.86" y2="90.55" xlink:href="#GradientFill_260"/><linearGradient id="GradientFill_260-10" x1="66.73" y1="49.14" x2="72.53" y2="90.44" xlink:href="#GradientFill_260"/><linearGradient id="GradientFill_260-11" x1="65.91" y1="49.25" x2="71.76" y2="90.92" xlink:href="#GradientFill_260"/><linearGradient id="GradientFill_260-12" x1="65.74" y1="48.96" x2="71.63" y2="90.9" xlink:href="#GradientFill_260"/><linearGradient id="GradientFill_260-13" x1="68.31" y1="48.91" x2="74.17" y2="90.59" xlink:href="#GradientFill_260"/><linearGradient id="GradientFill_251-2" x1="156.46" y1="68.58" x2="157.9" y2="52.11" xlink:href="#GradientFill_251"/><linearGradient id="GradientFill_252-2" x1="154.55" y1="73.58" x2="155.67" y2="41.57" xlink:href="#GradientFill_252"/><linearGradient id="GradientFill_253-2" x1="136.48" y1="133.7" x2="160.51" y2="93.72" xlink:href="#GradientFill_253"/><linearGradient id="GradientFill_254-2" x1="135.15" y1="133.94" x2="159.15" y2="90.64" xlink:href="#GradientFill_254"/><linearGradient id="GradientFill_255-2" x1="167.99" y1="127.31" x2="133.47" y2="97.3" xlink:href="#GradientFill_255"/><linearGradient id="GradientFill_256-6" x1="147.27" y1="105.24" x2="129.51" y2="98.07" xlink:href="#GradientFill_256"/><linearGradient id="GradientFill_256-7" x1="149.25" y1="97.29" x2="130.28" y2="95.29" xlink:href="#GradientFill_256"/><linearGradient id="GradientFill_256-8" x1="148.42" y1="101.5" x2="129.94" y2="96.55" xlink:href="#GradientFill_256"/><linearGradient id="GradientFill_257-2" x1="123.56" y1="95.36" x2="144.23" y2="131.16" xlink:href="#GradientFill_257"/><linearGradient id="GradientFill_258-2" x1="152.2" y1="138.73" x2="170.28" y2="98.13" xlink:href="#GradientFill_258"/><linearGradient id="GradientFill_259-7" x1="171.34" y1="118.71" x2="139.57" y2="89.08" xlink:href="#GradientFill_259"/><linearGradient id="GradientFill_259-8" x1="169.75" y1="121.34" x2="137.4" y2="91.18" xlink:href="#GradientFill_259"/><linearGradient id="GradientFill_259-9" x1="167.31" y1="124.21" x2="135.17" y2="94.24" xlink:href="#GradientFill_259"/><linearGradient id="GradientFill_259-10" x1="164.84" y1="127.07" x2="132.36" y2="96.78" xlink:href="#GradientFill_259"/><linearGradient id="GradientFill_259-11" x1="161.85" y1="129.88" x2="129.82" y2="100.01" xlink:href="#GradientFill_259"/><linearGradient id="GradientFill_259-12" x1="159.14" y1="133.03" x2="127.09" y2="103.15" xlink:href="#GradientFill_259"/><linearGradient id="GradientFill_260-14" x1="175.43" y1="124.49" x2="138.81" y2="135.69" xlink:href="#GradientFill_260"/><linearGradient id="GradientFill_260-15" x1="181.17" y1="112.23" x2="145.32" y2="137.33" xlink:href="#GradientFill_260"/><linearGradient id="GradientFill_260-16" x1="179.25" y1="105.75" x2="157.75" y2="132.31" xlink:href="#GradientFill_260"/><linearGradient id="GradientFill_260-17" x1="171.09" y1="94.66" x2="168.06" y2="129.33" xlink:href="#GradientFill_260"/><linearGradient id="GradientFill_260-18" x1="163.2" y1="88.93" x2="172.28" y2="118.63" xlink:href="#GradientFill_260"/><linearGradient id="GradientFill_260-19" x1="163.43" y1="129.1" x2="133.22" y2="138.34" xlink:href="#GradientFill_260"/><linearGradient id="GradientFill_261-2" x1="175.74" y1="64.85" x2="136.12" y2="81.67" xlink:href="#GradientFill_261"/><linearGradient id="GradientFill_262-2" x1="168.77" y1="89.64" x2="178.05" y2="45.94" xlink:href="#GradientFill_262"/><linearGradient id="GradientFill_256-9" x1="152.35" y1="75.9" x2="132.11" y2="80.94" xlink:href="#GradientFill_256"/><linearGradient id="GradientFill_256-10" x1="150.87" y1="82.86" x2="131.54" y2="85.92" xlink:href="#GradientFill_256"/><linearGradient id="GradientFill_263-7" x1="154.88" y1="52.22" x2="173.02" y2="48.37" xlink:href="#GradientFill_263"/><linearGradient id="GradientFill_263-8" x1="153.67" y1="57.59" x2="176.9" y2="52.65" xlink:href="#GradientFill_263"/><linearGradient id="GradientFill_263-9" x1="151.25" y1="64.47" x2="177.37" y2="58.92" xlink:href="#GradientFill_263"/><linearGradient id="GradientFill_263-10" x1="144.89" y1="73.73" x2="176.41" y2="67.04" xlink:href="#GradientFill_263"/><linearGradient id="GradientFill_263-11" x1="141.18" y1="83.01" x2="167.61" y2="77.4" xlink:href="#GradientFill_263"/><linearGradient id="GradientFill_263-12" x1="145.3" y1="89.29" x2="171.97" y2="89.29" xlink:href="#GradientFill_263"/><linearGradient id="GradientFill_264-2" x1="158.9" y1="88.28" x2="125.79" y2="88.28" xlink:href="#GradientFill_264"/><linearGradient id="GradientFill_265-3" x1="156.07" y1="61.17" x2="166.58" y2="56.04" xlink:href="#GradientFill_265"/><linearGradient id="GradientFill_265-4" x1="153.79" y1="57.98" x2="162.45" y2="52.78" xlink:href="#GradientFill_265"/><linearGradient id="GradientFill_266-2" x1="167.15" y1="48.76" x2="171.52" y2="47.34" xlink:href="#GradientFill_266"/><linearGradient id="GradientFill_260-20" x1="175.96" y1="48.83" x2="170.89" y2="90.14" xlink:href="#GradientFill_260"/><linearGradient id="GradientFill_260-21" x1="176.77" y1="48.93" x2="171.66" y2="90.55" xlink:href="#GradientFill_260"/><linearGradient id="GradientFill_260-22" x1="176.92" y1="48.63" x2="171.78" y2="90.51" xlink:href="#GradientFill_260"/><linearGradient id="GradientFill_260-23" x1="177.35" y1="49.02" x2="172.27" y2="90.42" xlink:href="#GradientFill_260"/><linearGradient id="GradientFill_260-24" x1="178.25" y1="49.12" x2="173.12" y2="90.89" xlink:href="#GradientFill_260"/><linearGradient id="GradientFill_260-25" x1="178.53" y1="48.84" x2="173.37" y2="90.87" xlink:href="#GradientFill_260"/><linearGradient id="GradientFill_260-26" x1="176.04" y1="48.85" x2="170.91" y2="90.62" xlink:href="#GradientFill_260"/><linearGradient id="GradientFill_93" x1="125.61" y1="76.42" x2="125.61" y2="73.36" gradientUnits="userSpaceOnUse"><stop offset="0" stop-color="#231f20"/><stop offset="1" stop-color="#945f56"/></linearGradient><linearGradient id="GradientFill_93-2" x1="118.69" y1="76.42" x2="118.69" y2="73.36" xlink:href="#GradientFill_93"/><linearGradient id="GradientFill_41" x1="122.14" y1="69.2" x2="122.14" y2="73.89" gradientUnits="userSpaceOnUse"><stop offset="0" stop-color="#99655b"/><stop offset="1" stop-color="#722f2c"/></linearGradient><linearGradient id="GradientFill_41-2" x1="122.14" y1="107.2" x2="122.14" y2="130.25" xlink:href="#GradientFill_41"/><linearGradient id="GradientFill_42" x1="120.98" y1="129.81" x2="120.98" y2="103.72" gradientUnits="userSpaceOnUse"><stop offset="0" stop-color="#945f56"/><stop offset="1" stop-color="#e4d7d3"/></linearGradient><linearGradient id="GradientFill_41-3" x1="122.15" y1="79.56" x2="122.15" y2="101.6" xlink:href="#GradientFill_41"/><linearGradient id="GradientFill_42-2" x1="119.01" y1="100.29" x2="119.01" y2="78.53" xlink:href="#GradientFill_42"/></defs><title>stampButterfly50c</title><path class="cls-1" d="M244.31,165.92v-7.23a7,7,0,0,1,0-14v-3.83a7,7,0,0,1,0-14V123a7,7,0,0,1,0-14V105.1a7,7,0,0,1,0-14V87.23a7,7,0,0,1,0-14V69.37a7,7,0,0,1,0-14V51.5a7,7,0,0,1,0-14V33.64a7,7,0,0,1,0-14V12.38A12.15,12.15,0,0,1,232.4,0H11.91A12.15,12.15,0,0,1,0,12.38v7.23a6.89,6.89,0,0,1,6.75,7,6.89,6.89,0,0,1-6.75,7v3.83a6.89,6.89,0,0,1,6.75,7A6.89,6.89,0,0,1,0,51.5v3.83a6.89,6.89,0,0,1,6.75,7,6.89,6.89,0,0,1-6.75,7V73.2a6.89,6.89,0,0,1,6.75,7,6.89,6.89,0,0,1-6.75,7v3.83a6.89,6.89,0,0,1,6.75,7,6.89,6.89,0,0,1-6.75,7v3.83a6.89,6.89,0,0,1,6.75,7A6.89,6.89,0,0,1,0,123v3.83a6.89,6.89,0,0,1,6.75,7,6.89,6.89,0,0,1-6.75,7v3.83a6.89,6.89,0,0,1,6.75,7,6.89,6.89,0,0,1-6.75,7v7.23a12.15,12.15,0,0,1,11.91,12.38H232.4A12.15,12.15,0,0,1,244.31,165.92Z"/><polygon class="cls-2" points="225.94 88.36 225.94 160.82 18.36 160.82 18.36 88.36 16.83 88.36 16.83 162.41 227.47 162.41 227.47 88.36 225.94 88.36"/><path class="cls-3" d="M0,91.06a6.89,6.89,0,0,1,6.75,7,6.89,6.89,0,0,1-6.75,7v3.83a6.89,6.89,0,0,1,6.75,7A6.89,6.89,0,0,1,0,123v3.83a6.89,6.89,0,0,1,6.75,7,6.89,6.89,0,0,1-6.75,7v3.83a6.89,6.89,0,0,1,6.75,7,6.89,6.89,0,0,1-6.75,7v7.23a12.15,12.15,0,0,1,11.91,12.38H232.4a12.15,12.15,0,0,1,11.91-12.38v-7.23a7,7,0,0,1,0-14v-3.83a7,7,0,0,1,0-14V123a7,7,0,0,1,0-14V105.1a7,7,0,0,1,0-14V88.36H0Z"/><path class="cls-4" d="M16.83,15.89V162.41H227.47V15.89ZM225.94,160.82H18.36V17.48H225.94Z"/><rect class="cls-5" x="18.36" y="17.48" width="207.57" height="143.34"/><polygon class="cls-6" points="75.44 15.89 56.15 15.89 63.81 0 83.11 0 75.44 15.89"/><polygon class="cls-6" points="86.22 15.89 80.92 15.89 88.58 0 93.88 0 86.22 15.89"/><text class="cls-7" transform="translate(184.37 38.81) scale(0.95 1)">50c</text><path class="cls-8" d="M118,83.66c-4.79-10.4-15.53-21.84-26.72-31.27-6.16-5.18-14.86-9.95-21-10.88-7.81-1.18-11.33,1.33-12.47,6-.83,3.3.09,7.82,1.52,11.8,2.22,6.15,3.35,7.85,4.13,17.25.89,10.9,3.2,15.06,13.05,15.06,4.87,0,23.39-2.42,40.29.95.24,0,.7.25.94.25Z"/><path class="cls-9" d="M119.1,83.77C114.33,73.34,104.24,61,92.4,52.49c-6.87-4.93-15.12-8.73-21.23-9.66-17.86-2.69-9.7,15-7.18,23.36.85,2.83.78,6.74,1.07,10.58.74,9.72,2,14.88,12.6,14.88,4.85,0,23.39-2.35,40.29,1,.24,0,.7.25.94.25Z"/><path class="cls-10" d="M90.73,56.88a61.62,61.62,0,0,0-13-9.18c-3.22-1.79-6.72-3.48-10.36-5.11a11.24,11.24,0,0,1,1.5,0c3.2,1.45,6.27,3,9.14,4.57a62.43,62.43,0,0,1,13.1,9.27Z"/><path class="cls-10" d="M93.42,63.66a71.46,71.46,0,0,0-15.9-10.61c-5.11-2.62-10.75-5-16.64-7.33a2.43,2.43,0,0,1,.33-.5c5.85,2.28,11.47,4.68,16.58,7.28a72.21,72.21,0,0,1,16,10.7Z"/><path class="cls-10" d="M96.06,69.61A71.43,71.43,0,0,0,79.5,60.16a192.09,192.09,0,0,0-19.25-6.81,6.42,6.42,0,0,1-.11-.63,187.66,187.66,0,0,1,19.58,6.9A71.73,71.73,0,0,1,96.4,69.14Z"/><path class="cls-10" d="M99.91,75.51A70.06,70.06,0,0,0,82,69.16a178,178,0,0,0-18.06-3l-.2-.63a178.26,178.26,0,0,1,18.38,3.05,70.23,70.23,0,0,1,18,6.42Z"/><path class="cls-10" d="M110.81,84.79c-6.57-2.83-14.25-4.59-22.69-5.7-5.53-.7-11.36-1.27-17.4-1.49-1.85-.09-3.72,0-5.59-.07a5.78,5.78,0,0,1,0-.59c1.89,0,3.76,0,5.61,0,6.07.25,11.94.79,17.49,1.52A86.46,86.46,0,0,1,111,84.24Z"/><path class="cls-10" d="M117.66,92.63c-6-2.44-13.08-3.93-21-4.82A222.26,222.26,0,0,0,73,86.55c-2,0-4,.18-6,.2l-.26-.61c2.13,0,4.24-.2,6.31-.2a222.28,222.28,0,0,1,23.63,1.29c8.48.93,15.95,2.56,22.21,5.27v.43c-.24,0-.7-.25-.94-.25Z"/><path class="cls-11" d="M71.1,98.6a4.43,4.43,0,0,1,1.5-3.05c3.46-3,12.64-2.85,19.71-2.71,2.85,0,5.33.11,6.87,0h0l.07,0h0l16.49.07h.54l.24.52,3,6.67.59,1.29h-1.37c-2.39,0-3.89,1.56-4.79,3.89a27.23,27.23,0,0,0-1.31,9.41c0,5.65-3.24,8.28-6.85,11.17A38.71,38.71,0,0,0,102,129.2c-1.07,1.11-.89,2.78-.7,4.57a12.14,12.14,0,0,1-.2,5.07,4.71,4.71,0,0,1-1.61,2.4,3.58,3.58,0,0,1-1.52.68,3.24,3.24,0,0,1-1.68-.11,4.21,4.21,0,0,1-2-1.58l-.54-.81c-.46-.72-.52-.81-2,0a6.1,6.1,0,0,1-2.07.72,3.41,3.41,0,0,1-2-.32,3.32,3.32,0,0,1-1.33-1.38,3.61,3.61,0,0,1-.41-1.4c-.17-1.45-1.11-1.31-2.33-1.13l-1.24.18h0c-3.26.29-3.61-1.13-4.22-3.64a5.81,5.81,0,0,1-.15-.68,1.49,1.49,0,0,0-.76-.93,5.15,5.15,0,0,0-2.46-.45,1,1,0,0,1-.28,0h0a3.5,3.5,0,0,1-2.13-1,3,3,0,0,1-.91-2.08v-.18c0-.14,0-.29.07-.72.13-1.38.26-2.69-.46-2.8a6,6,0,0,1-1.7-.54h0a3.32,3.32,0,0,1-1.35-1.36,3.21,3.21,0,0,1-.28-2.06,6.19,6.19,0,0,1,.63-1.88,5.45,5.45,0,0,0,.74-2.17c0-.38-.26-.7-.78-1.06a5.69,5.69,0,0,1-1.07-.93,3.48,3.48,0,0,1-.89-2.08h0a3.69,3.69,0,0,1,.61-2.13,5.22,5.22,0,0,1,.91-1.09,5.21,5.21,0,0,0,1.07-1.29.84.84,0,0,0-.22-1,4.39,4.39,0,0,1-.74-1,3,3,0,0,1-.26-1.81h0a2.87,2.87,0,0,1,.83-1.54,3.7,3.7,0,0,1,1-.75A2.64,2.64,0,0,0,71.1,98.6Z"/><path class="cls-12" d="M76.28,94.35c-5.44,2.06-1.63,4.7-5.42,6.69a2.15,2.15,0,0,0-.65,3.71c1.31,1.4,0,2.71-.89,3.57-1.63,1.54-1.74,3.39.35,4.79,1.57,1.06,1.41,2.24.33,4.41-1.39,2.74-.17,4.16,2.07,4.52,1.72.29,1.28,2.44,1.13,4.5a2.36,2.36,0,0,0,2.44,2.26c2.57,0,3.74.79,4.07,2.08.61,2.44.65,3.87,3.48,3.62,2.28-.2,4.16-1.13,4.5,1.76.24,1.92,1.5,3,3.74,1.81,2.61-1.4,3.09-1.11,4.48.9,1.68,2.35,4.76,1.54,5.59-1.13,1.13-3.6,0-6,2.41-8.46,4.57-4.75,5.18-10.2,5.18-17.41,0-7,7-11,12.66-11L117,90,94.25,93C88.49,93.58,81.76,92.27,76.28,94.35Z"/><path class="cls-10" d="M69.6,102.49A142.24,142.24,0,0,1,92.84,96a186.53,186.53,0,0,1,25.85-3.12l.2.59a182.48,182.48,0,0,0-26,3.12,143.65,143.65,0,0,0-23.47,6.58A1.54,1.54,0,0,1,69.6,102.49Z"/><path class="cls-10" d="M68.27,111.67c.78-.45,1.54-.9,2.33-1.33,3-1.72,6.14-3.28,9.25-4.68A163.1,163.1,0,0,1,119.07,94l.2.54a164.89,164.89,0,0,0-39.2,11.67c-3.09,1.4-6.18,2.94-9.2,4.64l-2.31,1.36A1.73,1.73,0,0,1,68.27,111.67Z"/><path class="cls-10" d="M69.49,120.27c1.33-1.13,2.72-2.24,4.13-3.3,2.63-2,5.37-3.8,8.16-5.52a168.61,168.61,0,0,1,37.55-16.73l.2.57a167.86,167.86,0,0,0-37.46,16.67c-2.78,1.72-5.5,3.55-8.11,5.5-1.46,1.11-2.87,2.24-4.26,3.41A2.31,2.31,0,0,1,69.49,120.27Z"/><path class="cls-10" d="M73.58,127.93c1.22-1.42,2.5-2.83,3.83-4.18,2.2-2.24,4.55-4.36,7-6.42C96.8,106.86,111.26,99,118.05,95.69l.24.52c-6.77,3.32-21.19,11.15-33.57,21.6-2.39,2-4.72,4.14-6.9,6.35q-2,2.07-3.85,4.21A2.39,2.39,0,0,1,73.58,127.93Z"/><path class="cls-10" d="M80.87,134.17c.78-1.31,1.61-2.62,2.48-3.89,1.68-2.49,3.5-4.91,5.42-7.26a167.71,167.71,0,0,1,27.91-26.34l.33.47a167.66,167.66,0,0,0-27.8,26.25c-1.89,2.33-3.72,4.75-5.4,7.21-.87,1.27-1.7,2.58-2.48,3.87A1.67,1.67,0,0,1,80.87,134.17Z"/><path class="cls-10" d="M88.36,138.13c.28-.75.61-1.49.91-2.24,1.17-2.69,2.5-5.36,3.94-8A161,161,0,0,1,115.33,97.7l.41.41a163,163,0,0,0-22.06,30.12c-1.41,2.58-2.72,5.22-3.89,7.91q-.52,1.19-1,2.37A1.5,1.5,0,0,1,88.36,138.13Z"/><path class="cls-13" d="M101.6,137.5c1-3.32,1.07-4.48,3.37-6.87,4.57-4.73,7.83-9.48,7.83-16.71,0-7,3.7-11.28,9.33-11.28l-5-14.07-2.37.84c-6.81-.07-23.54,1.13-35.5,4l-.52.2c-5.35,1.92-2.28,6-6,7.87-1.5.75-2,2.08-.63,3.44s0,2.53-.87,3.32c-1.61,1.42-1.72,3.17.33,4.45,1.54,1,1.39,2.1.33,4.09-1.37,2.56-.15,3.87,2,4.21,1.7.27,1.28,2.26,1.11,4.18a2.29,2.29,0,0,0,2.41,2.1c2.52,0,3.68.72,4,1.92.61,2.28.65,3.6,3.42,3.37,2.26-.18,4.09-1.06,4.44,1.63.24,1.79,1.5,2.8,3.68,1.7,2.59-1.31,3-1,4.42.81A3,3,0,0,0,101.6,137.5Z"/><path class="cls-14" d="M94.9,107.15c.24.34,1,.47,2,0,5.66-2.92,12.27-6.6,18.73-9.54A11.39,11.39,0,0,0,118,96.34c.46-.38-.83-.34-1.85-.18-4,.68-16.19,6.17-19.8,8.89C95.34,105.79,94.56,106.61,94.9,107.15Z"/><path class="cls-15" d="M92.42,98.53c.13.38.8.75,1.91.52,6.2-1.24,13.53-3,20.49-4a11.19,11.19,0,0,0,2.57-.54c.54-.25-.7-.57-1.72-.68-4-.45-17.19,1.42-21.36,3.05C93.18,97.36,92.21,97.92,92.42,98.53Z"/><path class="cls-16" d="M93.66,103.1c.17.38.91.61,2,.23,5.94-2.22,12.92-5.09,19.67-7.21a11.5,11.5,0,0,0,2.44-.95c.5-.34-.76-.43-1.78-.38-4,.18-16.77,4.16-20.67,6.44C94.25,101.84,93.36,102.54,93.66,103.1Z"/><path class="cls-17" d="M117.62,98.42c-3,4.34-6.29,6.33-6.4,15.11-.07,5.45-.78,9.95-6.5,14.95-3.48,3-3,5.65-3.85,8-.74,1.92-1.87,1.29-2.33.16a10.61,10.61,0,0,1-.3-4.77C101.54,115.74,115.07,99.89,117.62,98.42Z"/><path class="cls-18" d="M101.6,137.5c.35-1.09.57-1.92.8-2.67a91.65,91.65,0,0,1-12.18-3.48c-4.83-1.65-6.27-4-10.27-7.12-9.53-7.39-3.85-21.62.44-30.66l.61-.5c-.57.11-1.13.23-1.7.36l-.52.2c-5.35,1.92-2.28,6-6,7.87-1.5.75-2,2.08-.63,3.44s0,2.53-.87,3.32c-1.61,1.42-1.72,3.17.33,4.45,1.54,1,1.39,2.1.33,4.09-1.37,2.56-.15,3.87,2,4.21,1.7.27,1.28,2.26,1.11,4.18a2.29,2.29,0,0,0,2.41,2.1c2.52,0,3.68.72,4,1.92.61,2.28.65,3.6,3.42,3.37,2.26-.18,4.09-1.06,4.44,1.63.24,1.79,1.5,2.8,3.68,1.7,2.59-1.31,3-1,4.42.81A3,3,0,0,0,101.6,137.5Z"/><path class="cls-19" d="M73.41,101.14c-.2.11-.39.25-.63.36a3,3,0,0,0-1.07.84,142.42,142.42,0,0,1,21.21-5.74,182.48,182.48,0,0,1,26-3.12l-.2-.59A186.53,186.53,0,0,0,92.84,96,145.16,145.16,0,0,0,73.41,101.14Z"/><path class="cls-20" d="M70.06,110.63a2,2,0,0,0,.15.59l.65-.38c3-1.7,6.11-3.23,9.2-4.64a164.89,164.89,0,0,1,39.2-11.67l-.2-.54a163.1,163.1,0,0,0-39.23,11.67c-3.11,1.4-6.22,3-9.25,4.68Z"/><path class="cls-21" d="M71.34,118.73a2.21,2.21,0,0,0,.11.68c.83-.68,1.65-1.33,2.5-2,2.61-1.94,5.33-3.78,8.11-5.5a167.86,167.86,0,0,1,37.46-16.67l-.2-.57a168.61,168.61,0,0,0-37.55,16.73C79,113.17,76.26,115,73.63,117Z"/><path class="cls-22" d="M75.26,126a1.47,1.47,0,0,0,.35.47c.72-.79,1.46-1.56,2.22-2.35,2.18-2.22,4.5-4.34,6.9-6.35,12.38-10.45,26.8-18.27,33.57-21.6l-.24-.52C111.26,99,96.8,106.86,84.37,117.33c-2.41,2.06-4.76,4.18-7,6.42C76.67,124.5,76,125.26,75.26,126Z"/><path class="cls-23" d="M82.35,131.8a2.39,2.39,0,0,0,.39.43c.35-.54.7-1.09,1.07-1.61,1.68-2.46,3.5-4.88,5.4-7.21A167.66,167.66,0,0,1,117,97.16l-.33-.47A167.71,167.71,0,0,0,88.77,123c-1.91,2.35-3.74,4.77-5.42,7.26C83,130.78,82.68,131.28,82.35,131.8Z"/><path class="cls-24" d="M89.6,135.19a1.67,1.67,0,0,0,.37.57c1.11-2.56,2.37-5.07,3.72-7.53a163,163,0,0,1,22.06-30.12l-.41-.41a161,161,0,0,0-22.13,30.23C91.9,130.31,90.68,132.73,89.6,135.19Z"/><path class="cls-25" d="M93.82,93.76c-.39,1.63-2,2.28-3.61,2.58a2.39,2.39,0,0,0-1.74,1.33,2.9,2.9,0,0,0,.59,3.71c1.85,2.06,1.59,3.14,1,4.14a3.92,3.92,0,0,0-.87,2.06c.07,1,.87,1.88,2.2.5.8-.81,1-2.89,1-4a4.09,4.09,0,0,0-1.81-3.64c-1.39-1.22-.91-2.33.13-2.92s2.2-.45,3.07-1.09a2.8,2.8,0,0,0,1.39-2.46C95.19,93.18,94.12,92.47,93.82,93.76Z"/><path class="cls-25" d="M96.62,102.4a3.87,3.87,0,0,0-1.22,4.41c.57,1.58,1.35,1.42,1.24,3.35-.07,1.4.59,1.58,1.11,1.15,1.33-1.06.63-2.87-.37-4.21a2.14,2.14,0,0,1-.24-2.53c.41-.72,1.15-.95,1.07-1.85C98.15,102.2,97.82,101.61,96.62,102.4Z"/><path class="cls-26" d="M84,109.73a5.9,5.9,0,0,1-1.87.61c-3.07.63-4.35-.79-1.63-3.26.67-.63,1.37-1.42,2.18-1.4C84.44,105.68,85.51,108.8,84,109.73Z"/><path class="cls-27" d="M83.66,117a5.8,5.8,0,0,1-1.91.81c-3.18.9-4.59-.47-2-3.28.67-.72,1.35-1.61,2.18-1.65C83.83,112.71,85.18,115.88,83.66,117Z"/><path class="cls-28" d="M84.18,118.53c1.37-1.11,3-1.27,3.72-.34s.11,2.56-1.26,3.64-3,1.27-3.72.34S82.81,119.61,84.18,118.53Z"/><path class="cls-28" d="M90,123.12c.85-1,1.89-1.18,2.31-.32a3.71,3.71,0,0,1-.78,3.46c-.85,1-1.89,1.2-2.31.32A3.72,3.72,0,0,1,90,123.12Z"/><path class="cls-29" d="M84.07,102.24a1.4,1.4,0,0,1-1,1.58,1.32,1.32,0,0,1-1.76-.57,1.4,1.4,0,0,1,1-1.58A1.33,1.33,0,0,1,84.07,102.24Z"/><path class="cls-25" d="M94,116.11a6.3,6.3,0,0,1,.85,4c-.37,1.63.63,2.1,1.11.77s0-4.66-1.17-5.61C94.29,114.91,93.6,115.18,94,116.11Z"/><path class="cls-25" d="M89.66,115.43c.72.93.07,2.71.91,3a1.08,1.08,0,0,0,1.35-.45,3.35,3.35,0,0,0-.83-4.18C89.23,112.4,88.55,114,89.66,115.43Z"/><path class="cls-25" d="M85.88,111.79c0,.81.44,1.24,1.78,1,3.61-.72,1.54-4.23-.5-3.35A2.15,2.15,0,0,0,85.88,111.79Z"/><path class="cls-30" d="M87,128.59a3.73,3.73,0,0,1,2.7,1.22,2,2,0,0,1,.57,2.28c-.3.45-1,.5-1.48-.32a1.86,1.86,0,0,0-2.44-1c-.76.2-1.52-.18-1.5-.77C84.83,129.13,85.59,128.59,87,128.59Z"/><path class="cls-31" d="M81.2,123.12a4.43,4.43,0,0,1,2.52,2.31c1.15,2.44.07,2.94-1.85,1.81a16.45,16.45,0,0,1-2.7-1.94C77.39,123.57,79.26,122.51,81.2,123.12Z"/><path class="cls-32" d="M76.63,117.78A2.88,2.88,0,0,1,78,120.09c.11,2.28-1,2.58-2.22,1.33a9.48,9.48,0,0,1-1.61-2.06C73.24,117.67,75.21,117,76.63,117.78Z"/><path class="cls-33" d="M76.09,111.42a3,3,0,0,1-.15,2.69c-1.11,2-2.2,1.56-2.55-.18a10.92,10.92,0,0,1-.24-2.62C73.3,109.34,75.32,109.93,76.09,111.42Z"/><path class="cls-34" d="M77.85,103.8a2.51,2.51,0,0,1-1,2.19c-1.57,1.24-2.33.54-2.07-1a9.33,9.33,0,0,1,.65-2.26C76.22,101.14,77.69,102.31,77.85,103.8Z"/><path class="cls-35" d="M95.93,132.5a2.87,2.87,0,0,1,1.35.36,3.31,3.31,0,0,1,.89.66,1.64,1.64,0,0,1,.46,1.88c-.24.38-.8.43-1.22-.25a1.54,1.54,0,0,0-2-.86c-.61.18-1.24-.16-1.22-.63C94.19,133,94.79,132.52,95.93,132.5Z"/><path class="cls-36" d="M119.1,83.61c-4.72-10.29-14.68-22.5-26.37-30.89a63.73,63.73,0,0,0-12.42-7,29,29,0,0,0-9-1.83c-4.33-1.15-7,.45-7.11,3.1-2,1.7-2.28,4.18-.72,7.12a14.93,14.93,0,0,0,3.44,12.1A12.53,12.53,0,0,0,68.34,77.3a9.73,9.73,0,0,0,1.35,9c.09,2.44,1.41,3.71,3.7,4.68a20.65,20.65,0,0,0,4.76.47c4.81,0,23.1-2.37,39.81.95.22,0,.67.25.91.25Z"/><path class="cls-37" d="M71.82,43.95l-.48,0c-4.33-1.15-7,.45-7.11,3.1-2,1.7-2.28,4.18-.72,7.12a14.93,14.93,0,0,0,3.44,12.1A12.53,12.53,0,0,0,68.34,77.3a9.73,9.73,0,0,0,1.35,9c.09,2.44,1.41,3.71,3.7,4.68a21.08,21.08,0,0,0,4.48.47,6.21,6.21,0,0,1-4.16-2.89c-2.87-4.86-2.07-11.4-4.07-20.15-1.09-4.68-3.57-9.11-3.37-15.94C66.36,48.76,66.9,46.52,71.82,43.95Z"/><path class="cls-38" d="M89,75a2.35,2.35,0,0,0,1.68,2.35c6.7,1.94,14.73,3.78,22.1,6.65a7.06,7.06,0,0,0,2.76.79c.65-.14-.44-1.58-1.39-2.53-3.79-3.71-17.69-9.27-22.54-9.07C90.33,73.23,89.09,73.64,89,75Z"/><path class="cls-39" d="M90.38,83a2.15,2.15,0,0,0,1.78,2c6.48,1,14.18,1.63,21.36,3.41a6.41,6.41,0,0,0,2.68.36c.61-.2-.54-1.42-1.54-2.22-3.87-3-17.43-6.44-22-5.61C91.44,81.17,90.33,81.71,90.38,83Z"/><path class="cls-40" d="M91.07,57.06A60.31,60.31,0,0,0,78.26,48q-4.18-2.31-8.81-4.41a10.11,10.11,0,0,1,1.89.34l.26,0c2.39,1.13,4.72,2.31,6.92,3.53a61,61,0,0,1,12.94,9.16Z"/><path class="cls-41" d="M93.73,63.76A70,70,0,0,0,78,53.29c-4.31-2.22-9-4.25-13.88-6.22,0,0,0,0,.07,0a4.56,4.56,0,0,1,0-.54c4.94,2,9.66,4,14,6.29A71.84,71.84,0,0,1,94.12,63.3Z"/><path class="cls-42" d="M96.34,69.63A69.75,69.75,0,0,0,80,60.3c-5.11-2.17-10.68-4.12-16.51-5.95,0-.07,0-.14,0-.2a4.85,4.85,0,0,1-.24-.47A176.22,176.22,0,0,1,80.2,59.75a70.06,70.06,0,0,1,16.49,9.41Z"/><path class="cls-43" d="M100.12,75.47a68.21,68.21,0,0,0-17.64-6.29c-4.89-1.13-10.14-2-15.58-2.69a1,1,0,0,0,0-.25l-.3-.38c5.59.72,10.94,1.61,16,2.74a70.55,70.55,0,0,1,17.8,6.33Z"/><path class="cls-44" d="M110.89,84.63c-6.46-2.8-14.08-4.55-22.41-5.63a201.19,201.19,0,0,0-20.21-1.47c0-.09,0-.16.07-.23s-.11-.25-.15-.38c7.09.23,13.95.66,20.38,1.49a85.25,85.25,0,0,1,22.54,5.65Z"/><path class="cls-45" d="M117.68,92.36a78.53,78.53,0,0,0-20.8-4.75,242.1,242.1,0,0,0-27.19-1.09V86.3a2.05,2.05,0,0,1-.24-.36A242.36,242.36,0,0,1,96.95,87c8.38.93,15.75,2.53,21.93,5.2v.43c-.24,0-.7-.25-.91-.25a.89.89,0,0,1-.24,0h0Z"/><path class="cls-46" d="M119.1,83.77l-.07-.14-.15,6.6c-.24,0-.7-.23-.91-.23-14.95-3-33.81.86-41.05,1.7h.74c4.85,0,23.39-2.4,40.29,1,.24,0,.7.25.94.25Z"/><path class="cls-47" d="M118.57,90.08C107.89,87.3,90.81,68.26,90.81,56.61c9.7,0,24.39,23.13,30.41,32.09Z"/><path class="cls-48" d="M77.28,56a1.52,1.52,0,0,0,.63,1.76c2.15,1.4,4.44,1.83,7.16,3.41,2.07,1.2,3.57,2.22,5.5,3.17.15.09,1,.81,1.61.79.41,0,0-1.13-.44-1.85-1-1.76-3.42-3.26-5-4.3-2.18-1.38-4.85-3.73-7.46-4C78.41,54.94,77.56,55.12,77.28,56Z"/><path class="cls-49" d="M81.37,52.52a.94.94,0,0,0,.37,1.24c1.63,1.31,3.46,2.08,5.53,3.57,1.59,1.15,2.72,2.08,4.22,3,.13.07.8.75,1.24.77s.09-.9-.2-1.54a12.63,12.63,0,0,0-3.61-3.89c-1.65-1.29-4-3.41-5.9-3.84A1.32,1.32,0,0,0,81.37,52.52Z"/><path class="cls-50" d="M85.55,68.26c-1.7-2.31,1.44-5,3.76-1.85.7.95,4.61,5.7.7,6a11.65,11.65,0,0,1-5.26-.45A1.9,1.9,0,0,1,85.55,68.26Z"/><path class="cls-28" d="M76.59,68.37c0,1.06.13,2.49,1.59,2.49S83,70.34,83,67.74c0-1.11-1.17-1.54-3.37-1.94A2.39,2.39,0,0,0,76.59,68.37Z"/><path class="cls-28" d="M78.67,73.66a9.92,9.92,0,0,1,2.72-.23c4.29.11,5.4,2,.87,4-1.15.52-2.35,1.22-3.42,1C76.52,78,76.32,74.27,78.67,73.66Z"/><path class="cls-47" d="M88.86,81.46c1-.63,1.37-1.33,0-1.47a11,11,0,0,0-4,.34c-2.2.7-2.44,2.62-1.39,3.91a4.37,4.37,0,0,0,2.72,1.38,13.55,13.55,0,0,0,2.63.14c1.11-.07,1.89-.38.63-1-.76-.38-1.13-.66-1.35-1.22A1.56,1.56,0,0,1,88.86,81.46Z"/><path class="cls-50" d="M92.08,79a1.82,1.82,0,0,1,.3-2.44c1-1.22,1.74-2.42,3.13-.93C96,76.15,97.17,77,96,78c-.35.32-.8.7-1.24,1C93.55,80,93,80.67,92.08,79Z"/><path class="cls-28" d="M77.56,81.39c1.61-.63,3.22-.27,3.61.79s-.59,2.44-2.2,3.08-3.22.29-3.61-.77S76,82,77.56,81.39Z"/><path class="cls-50" d="M85.88,64.64c.8-.66,2.74-2.24,1.76-3.35S84,60,82.61,59.8c-2.26-.36-3.37-.14-1.74,2.62C81.92,64.21,83.81,66.38,85.88,64.64Z"/><path class="cls-27" d="M76.65,63.24c.65-.34,2.2-1.15,1.89-1.94s-1.81-1.13-2.59-1.4c-1.24-.43-2-.41-1.7,1.49C74.43,62.6,75,64.14,76.65,63.24Z"/><path class="cls-26" d="M71.34,56.54c.09.95.3,2.22,1.48,2.22s3.85-.45,3.65-2.76c-.09-1-1.07-1.38-2.87-1.74C72.26,54,71.17,54.69,71.34,56.54Z"/><path class="cls-50" d="M87.35,57.9c.5,0,2.94.88,3.09.63.35-.59.07-1.18.28-1.92s1.11-.79,1.87-.61c2.78.63,2.57,1.85,2.85,5s-1.2,3.51-4,2.85A8.77,8.77,0,0,1,86.57,61a3.43,3.43,0,0,1-.67-1.47A1.32,1.32,0,0,1,87.35,57.9Z"/><path class="cls-25" d="M97.14,72.55a8.45,8.45,0,0,1-2.39-1.83c-.91-1-.83-2-.83-3.32,0-.86.59-1.11,1.33-1.11a7.21,7.21,0,0,0,1.37-.09c1.39-.2,2-1.36,1.94-2.8-.13-2.1,1-.86,1.89-.25s2.85,3.17.89,3.75c-.85.25-2.39.36-2.39,1.61-.33.16-.37,1.27-.37,2.37S98.69,74.16,97.14,72.55Z"/><path class="cls-51" d="M100.1,74.52c0-2.35,1.2-6.38,4.07-6.38,1.5,0,2.61.45,2.92,1.92.24,1.13-.7,1.24-1.5,1.2A3.23,3.23,0,0,0,102,74.41v.77C102,76.92,100.1,76.51,100.1,74.52Z"/><path class="cls-52" d="M107.83,72.44c.54-1,.91.11,1.11,1,.39,1.83-1,4.36-3,3.12.61,1.65-.76,2.28-1.94,2.17a1.48,1.48,0,0,1-.35-2.85C105.78,75,106.28,75.22,107.83,72.44Z"/><path class="cls-29" d="M110.92,78.82c.33,0,.59-.36.59-.81s-.26-.81-.59-.81-.57.36-.57.81S110.61,78.82,110.92,78.82Z"/><path class="cls-53" d="M75.15,46.52c1.44.34,2.46,1.27,2.28,2.1s-1.5,1.2-2.94.86-2.46-1.27-2.28-2.1S73.71,46.18,75.15,46.52Z"/><path class="cls-50" d="M75.61,52.2c.41-.45,1.74-.43,2.37-.43,1.17-.14,1-.81,1.22-1.7.09-.54.39-1,1.24-.41,1.5,1.06.72,2.74-.11,3.64a4,4,0,0,1-3.15,1.18C76.17,54.48,74.48,53.38,75.61,52.2Z"/><path class="cls-54" d="M74.06,83.81a5.45,5.45,0,0,1,.39,3.89c-.44,1.42-1.35,2.15-2.07,2.08s-1.15-.81-.61-1.9a2.56,2.56,0,0,0-.41-3.46c-.72-.72-.76-1.88-.15-2.19C72.13,81.73,73.17,82.23,74.06,83.81Z"/><path class="cls-55" d="M72.36,76.37a4.68,4.68,0,0,1,0,3.39c-.48,1.22-1.35,1.74-2,1.63s-.91-.81-.35-1.7A2.27,2.27,0,0,0,70,76.65c-.54-.68-.5-1.67.07-1.9C70.89,74.41,71.76,74.93,72.36,76.37Z"/><path class="cls-56" d="M71.28,68.89a4.48,4.48,0,0,1,0,3.23c-.46,1.15-1.28,1.63-1.87,1.52s-.87-.75-.35-1.61A2.14,2.14,0,0,0,69,69.14c-.52-.66-.48-1.61.07-1.81C69.86,67,70.69,67.51,71.28,68.89Z"/><path class="cls-57" d="M69.45,61.7a3.81,3.81,0,0,1,.7,2.67c-.15,1.06-.72,1.65-1.22,1.7s-.89-.43-.63-1.24a1.85,1.85,0,0,0-.67-2.4c-.57-.41-.74-1.2-.35-1.52C67.86,60.45,68.67,60.68,69.45,61.7Z"/><path class="cls-58" d="M68,55.89a3.72,3.72,0,0,1,.09,2.78c-.37,1-1.07,1.47-1.57,1.38s-.78-.63-.35-1.38a1.84,1.84,0,0,0-.11-2.49c-.48-.57-.46-1.38,0-1.58C66.77,54.3,67.49,54.71,68,55.89Z"/><path class="cls-59" d="M67.4,50.32a3.48,3.48,0,0,1-.59,2.4c-.57.75-1.26.95-1.65.75s-.52-.72,0-1.24a1.65,1.65,0,0,0,.48-2.15c-.28-.59-.07-1.29.37-1.33C66.71,48.65,67.21,49.19,67.4,50.32Z"/><path class="cls-60" d="M69.15,45.87A2.31,2.31,0,0,1,68,47.27c-.61.32-1.15.23-1.35,0s-.11-.68.41-.84a1.18,1.18,0,0,0,1-1.29c0-.47.37-.86.67-.75C69.21,44.51,69.38,45.05,69.15,45.87Z"/><path class="cls-61" d="M126.32,83.66c4.79-10.4,15.53-21.84,26.72-31.27,6.14-5.18,14.86-9.95,21-10.88,7.81-1.18,11.31,1.33,12.47,6,.83,3.3-.09,7.82-1.52,11.8-2.22,6.15-3.37,7.85-4.13,17.25-.89,10.9-3.2,15.06-13.05,15.06-4.87,0-23.41-2.42-40.31.95-.22,0-.7.25-.91.25Z"/><path class="cls-62" d="M125.19,83.77C130,73.34,140.07,61,151.9,52.49c6.87-4.93,15.1-8.73,21.23-9.66,17.86-2.69,9.7,15,7.18,23.36-.85,2.83-.78,6.74-1.07,10.58-.74,9.72-2,14.88-12.6,14.88-4.85,0-23.39-2.35-40.29,1-.24,0-.7.25-.94.25Z"/><path class="cls-10" d="M153.58,56.88a62,62,0,0,1,13-9.18c3.24-1.79,6.72-3.48,10.38-5.11a11.19,11.19,0,0,0-1.5,0c-3.2,1.45-6.27,3-9.14,4.57a61.86,61.86,0,0,0-13.1,9.27Z"/><path class="cls-10" d="M150.88,63.66a71.46,71.46,0,0,1,15.9-10.61c5.11-2.62,10.75-5,16.64-7.33a3.86,3.86,0,0,0-.33-.5c-5.87,2.28-11.47,4.68-16.58,7.28a71.87,71.87,0,0,0-16,10.7Z"/><path class="cls-10" d="M148.25,69.61a71,71,0,0,1,16.56-9.45,188.31,188.31,0,0,1,19.25-6.81c0-.2.07-.43.11-.63a184.18,184.18,0,0,0-19.58,6.9,70.84,70.84,0,0,0-16.69,9.52Z"/><path class="cls-10" d="M144.4,75.51a69.76,69.76,0,0,1,17.88-6.35,178,178,0,0,1,18.06-3l.2-.63a178.26,178.26,0,0,0-18.38,3.05,69.93,69.93,0,0,0-18,6.42Z"/><path class="cls-10" d="M133.5,84.79c6.55-2.83,14.25-4.59,22.69-5.7,5.53-.7,11.36-1.27,17.38-1.49,1.85-.09,3.72,0,5.61-.07,0-.2,0-.41,0-.59-1.89,0-3.76,0-5.63,0-6,.25-11.92.79-17.47,1.52a86.46,86.46,0,0,0-22.84,5.74Z"/><path class="cls-10" d="M126.62,92.63a79.4,79.4,0,0,1,21.06-4.82,221.94,221.94,0,0,1,23.63-1.27c2,0,4,.18,6,.2l.26-.61c-2.13,0-4.24-.2-6.31-.2a222.38,222.38,0,0,0-23.65,1.29c-8.46.93-15.95,2.56-22.19,5.27v.43c.24,0,.7-.25.94-.25Z"/><path class="cls-63" d="M173.18,98.6a4.3,4.3,0,0,0-1.48-3.05c-3.46-3-12.64-2.85-19.73-2.71-2.83,0-5.31.11-6.85,0h0l-.07,0h0l-16.49.07H128l-.24.52-3,6.67-.59,1.29h1.37c2.39,0,3.89,1.56,4.79,3.89a27.76,27.76,0,0,1,1.31,9.41c0,5.65,3.24,8.28,6.85,11.17a41.28,41.28,0,0,1,3.87,3.41c1.07,1.11.89,2.78.7,4.57a12.13,12.13,0,0,0,.17,5.07,4.85,4.85,0,0,0,1.61,2.4,3.78,3.78,0,0,0,1.54.68,3.26,3.26,0,0,0,1.68-.11,4.07,4.07,0,0,0,2-1.58c.26-.38.44-.61.57-.81.46-.72.52-.81,2,0a6.16,6.16,0,0,0,2,.72,3.41,3.41,0,0,0,2-.32,3.24,3.24,0,0,0,1.35-1.38,4,4,0,0,0,.41-1.4c.17-1.45,1.09-1.31,2.33-1.13l1.24.18h0c3.26.29,3.61-1.13,4.22-3.64,0-.25.11-.5.15-.68a1.49,1.49,0,0,1,.76-.93,5.15,5.15,0,0,1,2.46-.45,1,1,0,0,0,.28,0h0a3.5,3.5,0,0,0,2.13-1,3,3,0,0,0,.91-2.08v-.18c0-.14,0-.29-.09-.72-.13-1.38-.24-2.69.48-2.8a6.28,6.28,0,0,0,1.7-.54h0a3.32,3.32,0,0,0,1.35-1.36,3.21,3.21,0,0,0,.28-2.06,6.85,6.85,0,0,0-.63-1.88,5.12,5.12,0,0,1-.74-2.17c0-.38.24-.7.76-1.06a5.07,5.07,0,0,0,1.07-.93,3.35,3.35,0,0,0,.89-2.08h0a3.51,3.51,0,0,0-.59-2.13,5.22,5.22,0,0,0-.91-1.09,5.21,5.21,0,0,1-1.07-1.29.84.84,0,0,1,.22-1,4.26,4.26,0,0,0,.72-1,2.85,2.85,0,0,0,.28-1.81h0a2.87,2.87,0,0,0-.83-1.54,4.44,4.44,0,0,0-1-.75A2.66,2.66,0,0,1,173.18,98.6Z"/><path class="cls-64" d="M168,94.35c5.44,2.06,1.63,4.7,5.42,6.69,1.52.79,2,2.24.63,3.71s0,2.71.91,3.57c1.63,1.54,1.74,3.39-.35,4.79-1.59,1.06-1.41,2.24-.33,4.41,1.39,2.74.15,4.16-2.07,4.52-1.72.29-1.28,2.44-1.13,4.5a2.38,2.38,0,0,1-2.46,2.26c-2.57,0-3.72.79-4,2.08-.63,2.44-.67,3.87-3.48,3.62-2.31-.2-4.16-1.13-4.5,1.76-.24,1.92-1.52,3-3.74,1.81-2.61-1.4-3.09-1.11-4.5.9-1.65,2.35-4.74,1.54-5.59-1.13-1.11-3.6,0-6-2.41-8.46-4.55-4.75-5.16-10.2-5.16-17.41,0-7-7-11-12.66-11L127.32,90l22.73,3C155.82,93.58,162.52,92.27,168,94.35Z"/><path class="cls-10" d="M174.7,102.49A142.24,142.24,0,0,0,151.47,96a186.92,186.92,0,0,0-25.85-3.12l-.2.59a181.87,181.87,0,0,1,25.93,3.12,143.28,143.28,0,0,1,23.5,6.58A1.91,1.91,0,0,0,174.7,102.49Z"/><path class="cls-10" d="M176,111.67c-.76-.45-1.52-.9-2.31-1.33q-4.57-2.58-9.25-4.68A163.1,163.1,0,0,0,125.23,94l-.2.54a165.18,165.18,0,0,1,39.2,11.67c3.09,1.4,6.18,2.94,9.18,4.64l2.33,1.36A2.31,2.31,0,0,0,176,111.67Z"/><path class="cls-10" d="M174.81,120.27c-1.35-1.13-2.72-2.24-4.16-3.3-2.61-2-5.35-3.8-8.14-5.52A169,169,0,0,0,125,94.71l-.2.57a168.29,168.29,0,0,1,37.46,16.67c2.76,1.72,5.48,3.55,8.09,5.5,1.46,1.11,2.89,2.24,4.26,3.41A1.72,1.72,0,0,0,174.81,120.27Z"/><path class="cls-10" d="M170.72,127.93c-1.22-1.42-2.5-2.83-3.85-4.18-2.18-2.24-4.53-4.36-6.94-6.42C147.51,106.86,133,99,126.25,95.69l-.24.52c6.74,3.32,21.19,11.15,33.57,21.6,2.39,2,4.72,4.14,6.9,6.35q2,2.07,3.85,4.21C170.46,128.23,170.59,128.09,170.72,127.93Z"/><path class="cls-10" d="M163.43,134.17c-.78-1.31-1.61-2.62-2.48-3.89-1.68-2.49-3.52-4.91-5.44-7.26A166,166,0,0,0,127.6,96.68l-.33.47a166,166,0,0,1,27.8,26.25c1.91,2.33,3.74,4.75,5.42,7.21.87,1.27,1.7,2.58,2.46,3.87A1.5,1.5,0,0,0,163.43,134.17Z"/><path class="cls-10" d="M155.95,138.13c-.3-.75-.61-1.49-.94-2.24-1.17-2.69-2.48-5.36-3.92-8C143.79,114.59,133.89,103,129,97.7l-.41.41a163,163,0,0,1,22.06,30.12c1.41,2.58,2.72,5.22,3.89,7.91l1,2.37A1.5,1.5,0,0,0,155.95,138.13Z"/><path class="cls-65" d="M142.68,137.5c-1-3.32-1-4.48-3.35-6.87-4.57-4.73-7.83-9.48-7.83-16.71,0-7-3.7-11.28-9.35-11.28l5-14.07,2.35.84c6.81-.07,23.56,1.13,35.5,4l.54.2c5.35,1.92,2.26,6,6,7.87,1.5.75,2,2.08.63,3.44s0,2.53.87,3.32c1.61,1.42,1.72,3.17-.33,4.45-1.57,1-1.41,2.1-.33,4.09,1.37,2.56.15,3.87-2,4.21-1.72.27-1.28,2.26-1.13,4.18a2.28,2.28,0,0,1-2.41,2.1c-2.52,0-3.65.72-4,1.92-.61,2.28-.65,3.6-3.42,3.37-2.28-.18-4.11-1.06-4.44,1.63-.24,1.79-1.5,2.8-3.7,1.7-2.57-1.31-3-1-4.42.81A3,3,0,0,1,142.68,137.5Z"/><path class="cls-66" d="M149.4,107.15c-.24.34-1,.47-2,0-5.66-2.92-12.27-6.6-18.73-9.54a11.39,11.39,0,0,1-2.33-1.22c-.46-.38.8-.34,1.83-.18,4,.68,16.21,6.17,19.82,8.89C148.94,105.79,149.75,106.61,149.4,107.15Z"/><path class="cls-67" d="M151.88,98.53c-.13.38-.83.75-1.94.52-6.2-1.24-13.51-3-20.49-4a11.43,11.43,0,0,1-2.57-.54c-.54-.25.7-.57,1.74-.68,4-.45,17.19,1.42,21.36,3.05C151.12,97.36,152.08,97.92,151.88,98.53Z"/><path class="cls-68" d="M150.64,103.1c-.2.38-.91.61-2,.23-5.94-2.22-12.92-5.09-19.67-7.21a11.59,11.59,0,0,1-2.46-.95c-.5-.34.78-.43,1.81-.38,4,.18,16.77,4.16,20.67,6.44C150.05,101.84,150.92,102.54,150.64,103.1Z"/><path class="cls-69" d="M126.69,98.42c2.94,4.34,6.29,6.33,6.37,15.11.07,5.45.8,9.95,6.53,14.95,3.46,3,3,5.65,3.85,8,.72,1.92,1.85,1.29,2.33.16a10.56,10.56,0,0,0,.28-4.77C142.77,115.74,129.23,99.89,126.69,98.42Z"/><path class="cls-70" d="M142.68,137.5c-.33-1.09-.54-1.92-.78-2.67a92.6,92.6,0,0,0,12.18-3.48c4.83-1.65,6.27-4,10.25-7.12,9.55-7.39,3.85-21.62-.41-30.66l-.61-.5c.57.11,1.13.23,1.68.36l.54.2c5.35,1.92,2.26,6,6,7.87,1.5.75,2,2.08.63,3.44s0,2.53.87,3.32c1.61,1.42,1.72,3.17-.33,4.45-1.57,1-1.41,2.1-.33,4.09,1.37,2.56.15,3.87-2,4.21-1.72.27-1.28,2.26-1.13,4.18a2.28,2.28,0,0,1-2.41,2.1c-2.52,0-3.65.72-4,1.92-.61,2.28-.65,3.6-3.42,3.37-2.28-.18-4.11-1.06-4.44,1.63-.24,1.79-1.5,2.8-3.7,1.7-2.57-1.31-3-1-4.42.81A3,3,0,0,1,142.68,137.5Z"/><path class="cls-71" d="M170.9,101.14c.2.11.39.25.63.36a3,3,0,0,1,1.07.84,142,142,0,0,0-21.23-5.74,181.87,181.87,0,0,0-25.93-3.12l.2-.59A186.92,186.92,0,0,1,151.47,96,146,146,0,0,1,170.9,101.14Z"/><path class="cls-72" d="M174.22,110.63a2.85,2.85,0,0,1-.13.59c-.22-.14-.46-.25-.67-.38-3-1.7-6.09-3.23-9.18-4.64A165.18,165.18,0,0,0,125,94.53l.2-.54a163.1,163.1,0,0,1,39.23,11.67q4.67,2.1,9.25,4.68C173.88,110.43,174,110.52,174.22,110.63Z"/><path class="cls-73" d="M172.94,118.73a2.22,2.22,0,0,1-.09.68c-.83-.68-1.68-1.33-2.52-2-2.61-1.94-5.33-3.78-8.09-5.5a168.29,168.29,0,0,0-37.46-16.67l.2-.57a169,169,0,0,1,37.55,16.73c2.78,1.72,5.53,3.55,8.14,5.52Q171.83,117.85,172.94,118.73Z"/><path class="cls-74" d="M169,126a1.88,1.88,0,0,1-.35.47c-.72-.79-1.46-1.56-2.22-2.35-2.18-2.22-4.5-4.34-6.9-6.35C147.2,107.35,132.76,99.53,126,96.21l.24-.52c6.77,3.32,21.26,11.17,33.68,21.64,2.41,2.06,4.76,4.18,6.94,6.42C167.61,124.5,168.33,125.26,169,126Z"/><path class="cls-75" d="M162,131.8a1.9,1.9,0,0,1-.41.43c-.35-.54-.7-1.09-1-1.61-1.68-2.46-3.5-4.88-5.42-7.21a166.8,166.8,0,0,0-27.8-26.25l.33-.47A166,166,0,0,1,155.51,123c1.91,2.35,3.76,4.77,5.44,7.26C161.3,130.78,161.63,131.28,162,131.8Z"/><path class="cls-76" d="M154.71,135.19a2.08,2.08,0,0,1-.37.57c-1.13-2.56-2.39-5.07-3.72-7.53a163,163,0,0,0-22.06-30.12l.41-.41c4.92,5.31,14.82,16.89,22.13,30.23C152.4,130.31,153.62,132.73,154.71,135.19Z"/><path class="cls-25" d="M150.49,93.76c.39,1.63,2,2.28,3.61,2.58a2.44,2.44,0,0,1,1.74,1.33,2.9,2.9,0,0,1-.61,3.71c-1.85,2.06-1.59,3.14-1,4.14a3.89,3.89,0,0,1,.85,2.06c0,1-.87,1.88-2.18.5-.8-.81-1-2.89-1-4a4.09,4.09,0,0,1,1.81-3.64c1.39-1.22.91-2.33-.15-2.92s-2.18-.45-3.07-1.09a2.78,2.78,0,0,1-1.37-2.46C149.12,93.18,150.18,92.47,150.49,93.76Z"/><path class="cls-25" d="M147.66,102.4a3.81,3.81,0,0,1,1.22,4.41c-.54,1.58-1.35,1.42-1.24,3.35.09,1.4-.59,1.58-1.11,1.15-1.31-1.06-.61-2.87.39-4.21a2.14,2.14,0,0,0,.24-2.53c-.44-.72-1.17-.95-1.07-1.85C146.14,102.2,146.49,101.61,147.66,102.4Z"/><path class="cls-26" d="M160.32,109.73a5.9,5.9,0,0,0,1.87.61c3.07.63,4.33-.79,1.63-3.26-.7-.63-1.37-1.42-2.18-1.4C159.87,105.68,158.8,108.8,160.32,109.73Z"/><path class="cls-27" d="M160.63,117a5.91,5.91,0,0,0,1.94.81c3.15.9,4.59-.47,1.94-3.28-.67-.72-1.33-1.61-2.18-1.65C160.47,112.71,159.1,115.88,160.63,117Z"/><path class="cls-28" d="M160.13,118.53c-1.37-1.11-3-1.27-3.72-.34s-.13,2.56,1.24,3.64,3,1.27,3.72.34S161.5,119.61,160.13,118.53Z"/><path class="cls-28" d="M154.34,123.12c-.85-1-1.89-1.18-2.31-.32a3.59,3.59,0,0,0,.78,3.46c.85,1,1.87,1.2,2.31.32A3.72,3.72,0,0,0,154.34,123.12Z"/><path class="cls-29" d="M160.24,102.24a1.38,1.38,0,0,0,1,1.58,1.33,1.33,0,0,0,1.76-.57,1.4,1.4,0,0,0-1-1.58A1.32,1.32,0,0,0,160.24,102.24Z"/><path class="cls-25" d="M150.27,116.11a6.44,6.44,0,0,0-.83,4c.37,1.63-.65,2.1-1.13.77s0-4.66,1.17-5.61C150,114.91,150.71,115.18,150.27,116.11Z"/><path class="cls-25" d="M154.64,115.43c-.74.93-.09,2.71-.94,3a1.09,1.09,0,0,1-1.35-.45,3.36,3.36,0,0,1,.85-4.18C155.06,112.4,155.73,114,154.64,115.43Z"/><path class="cls-25" d="M158.43,111.79c0,.81-.44,1.24-1.78,1-3.63-.72-1.54-4.23.48-3.35A2.14,2.14,0,0,1,158.43,111.79Z"/><path class="cls-77" d="M157.34,128.59a3.81,3.81,0,0,0-2.72,1.22,2,2,0,0,0-.57,2.28c.3.45,1,.5,1.48-.32a1.89,1.89,0,0,1,2.46-1c.74.2,1.52-.18,1.5-.77C159.45,129.13,158.71,128.59,157.34,128.59Z"/><path class="cls-78" d="M163.11,123.12a4.53,4.53,0,0,0-2.55,2.31c-1.15,2.44-.07,2.94,1.85,1.81a16.65,16.65,0,0,0,2.72-1.94C166.91,123.57,165,122.51,163.11,123.12Z"/><path class="cls-79" d="M167.68,117.78a2.78,2.78,0,0,0-1.35,2.31c-.11,2.28,1,2.58,2.22,1.33a10.2,10.2,0,0,0,1.61-2.06C171.07,117.67,169.09,117,167.68,117.78Z"/><path class="cls-80" d="M168.22,111.42a2.89,2.89,0,0,0,.13,2.69c1.13,2,2.2,1.56,2.55-.18a9.91,9.91,0,0,0,.24-2.62C171,109.34,169,109.93,168.22,111.42Z"/><path class="cls-81" d="M166.46,103.8a2.51,2.51,0,0,0,1,2.19c1.57,1.24,2.33.54,2-1a9.33,9.33,0,0,0-.65-2.26C168.07,101.14,166.59,102.31,166.46,103.8Z"/><path class="cls-82" d="M148.36,132.5a3,3,0,0,0-1.35.36,3.2,3.2,0,0,0-.87.66c-.65.72-.74,1.49-.48,1.88s.83.43,1.22-.25a1.56,1.56,0,0,1,2-.86c.63.18,1.26-.16,1.24-.63C150.12,133,149.51,132.52,148.36,132.5Z"/><path class="cls-83" d="M125.19,83.61c4.72-10.29,14.68-22.5,26.39-30.89a63.73,63.73,0,0,1,12.42-7,29,29,0,0,1,8.94-1.83c4.35-1.15,7,.45,7.14,3.1,1.94,1.7,2.26,4.18.72,7.12a14.94,14.94,0,0,1-3.46,12.1,12.53,12.53,0,0,1-1.39,11.06,9.66,9.66,0,0,1-1.33,9c-.09,2.44-1.41,3.71-3.7,4.68a20.78,20.78,0,0,1-4.76.47c-4.81,0-23.1-2.37-39.81.95-.22,0-.67.25-.91.25Z"/><path class="cls-84" d="M172.46,43.95l.48,0c4.35-1.15,7,.45,7.14,3.1,1.94,1.7,2.26,4.18.72,7.12a14.94,14.94,0,0,1-3.46,12.1,12.53,12.53,0,0,1-1.39,11.06,9.66,9.66,0,0,1-1.33,9c-.09,2.44-1.41,3.71-3.7,4.68a21.08,21.08,0,0,1-4.48.47,6.21,6.21,0,0,0,4.16-2.89c2.85-4.86,2-11.4,4.07-20.15,1.09-4.68,3.55-9.11,3.37-15.94C177.92,48.76,177.38,46.52,172.46,43.95Z"/><path class="cls-85" d="M155.27,75a2.38,2.38,0,0,1-1.7,2.35C146.9,79.27,138.87,81.1,131.5,84a7.06,7.06,0,0,1-2.78.79c-.63-.14.46-1.58,1.41-2.53,3.79-3.71,17.67-9.27,22.54-9.07C154,73.23,155.19,73.64,155.27,75Z"/><path class="cls-86" d="M153.9,83a2.13,2.13,0,0,1-1.78,2c-6.46,1-14.16,1.63-21.34,3.41a6.47,6.47,0,0,1-2.7.36c-.59-.2.57-1.42,1.54-2.22,3.87-3,17.43-6.44,22-5.61C152.86,81.17,154,81.71,153.9,83Z"/><path class="cls-87" d="M153.23,57.06A59.76,59.76,0,0,1,166,48c2.76-1.54,5.72-3,8.79-4.41a10.43,10.43,0,0,0-1.89.34l-.24,0q-3.62,1.7-6.92,3.53a61,61,0,0,0-12.94,9.16Z"/><path class="cls-88" d="M150.55,63.76a70.71,70.71,0,0,1,15.71-10.47c4.31-2.22,9-4.25,13.88-6.22,0,0,0,0-.07,0a2.31,2.31,0,0,0-.07-.54c-4.94,2-9.64,4-14,6.29A71.33,71.33,0,0,0,150.18,63.3Z"/><path class="cls-89" d="M148,69.63A70,70,0,0,1,164.3,60.3c5.11-2.17,10.68-4.12,16.51-5.95,0-.07,0-.14,0-.2s.15-.32.24-.47a174.12,174.12,0,0,0-16.93,6.08,70.06,70.06,0,0,0-16.49,9.41Z"/><path class="cls-90" d="M144.16,75.47a68.67,68.67,0,0,1,17.67-6.29c4.89-1.13,10.12-2,15.58-2.69l-.07-.25a2.58,2.58,0,0,0,.3-.38c-5.57.72-10.94,1.61-15.95,2.74a70.55,70.55,0,0,0-17.8,6.33Z"/><path class="cls-91" d="M133.39,84.63c6.48-2.8,14.08-4.55,22.41-5.63A201.63,201.63,0,0,1,176,77.53a.69.69,0,0,0-.09-.23,2,2,0,0,0,.17-.38c-7.09.23-13.95.66-20.38,1.49a85.42,85.42,0,0,0-22.56,5.65Z"/><path class="cls-92" d="M126.62,92.36a78.36,78.36,0,0,1,20.78-4.75,242.32,242.32,0,0,1,27.19-1.09.72.72,0,0,0,0-.23c.09-.11.15-.23.24-.36A242.36,242.36,0,0,0,147.36,87c-8.38.93-15.75,2.53-21.93,5.2v.43c.24,0,.7-.25.91-.25a.89.89,0,0,0,.24,0h0Z"/><path class="cls-93" d="M125.19,83.77l.07-.14.17,6.6c.24,0,.7-.23.91-.23,14.95-3,33.81.86,41.05,1.7h-.74c-4.85,0-23.39-2.4-40.29,1-.24,0-.7.25-.94.25Z"/><path class="cls-47" d="M125.73,90.08c10.66-2.78,27.74-21.82,27.74-33.47-9.7,0-24.37,23.13-30.41,32.09Z"/><path class="cls-94" d="M167,56a1.55,1.55,0,0,1-.63,1.76c-2.15,1.4-4.44,1.83-7.16,3.41-2.07,1.2-3.57,2.22-5.5,3.17-.17.09-1,.81-1.61.79s0-1.13.44-1.85c1-1.76,3.42-3.26,5-4.3,2.18-1.38,4.85-3.73,7.46-4C165.89,54.94,166.74,55.12,167,56Z"/><path class="cls-95" d="M162.93,52.52a1,1,0,0,1-.37,1.24c-1.65,1.31-3.46,2.08-5.55,3.57-1.59,1.15-2.72,2.08-4.22,3-.11.07-.78.75-1.22.77s-.11-.9.2-1.54a12.37,12.37,0,0,1,3.61-3.89c1.65-1.29,4-3.41,5.9-3.84A1.33,1.33,0,0,1,162.93,52.52Z"/><path class="cls-50" d="M158.76,68.26c1.7-2.31-1.44-5-3.79-1.85-.67.95-4.59,5.7-.7,6a11.61,11.61,0,0,0,5.26-.45A1.9,1.9,0,0,0,158.76,68.26Z"/><path class="cls-28" d="M167.72,68.37c0,1.06-.15,2.49-1.59,2.49-1.59,0-4.89-.52-4.89-3.12,0-1.11,1.2-1.54,3.39-1.94A2.39,2.39,0,0,1,167.72,68.37Z"/><path class="cls-28" d="M165.63,73.66a10.06,10.06,0,0,0-2.72-.23c-4.29.11-5.4,2-.89,4,1.15.52,2.37,1.22,3.42,1C167.78,78,168,74.27,165.63,73.66Z"/><path class="cls-47" d="M155.45,81.46c-1-.63-1.37-1.33,0-1.47a11,11,0,0,1,4,.34c2.22.7,2.46,2.62,1.39,3.91a4.32,4.32,0,0,1-2.72,1.38,13.28,13.28,0,0,1-2.61.14c-1.11-.07-1.89-.38-.63-1,.76-.38,1.13-.66,1.35-1.22A1.61,1.61,0,0,0,155.45,81.46Z"/><path class="cls-50" d="M152.21,79a1.79,1.79,0,0,0-.3-2.44c-1-1.22-1.72-2.42-3.13-.93-.44.47-1.65,1.31-.5,2.35a13.09,13.09,0,0,0,1.24,1C150.75,80,151.32,80.67,152.21,79Z"/><path class="cls-28" d="M166.74,81.39c-1.61-.63-3.22-.27-3.61.79s.59,2.44,2.18,3.08,3.22.29,3.61-.77S168.33,82,166.74,81.39Z"/><path class="cls-50" d="M158.41,64.64c-.8-.66-2.74-2.24-1.76-3.35s3.61-1.27,5-1.49c2.26-.36,3.37-.14,1.74,2.62C162.37,64.21,160.5,66.38,158.41,64.64Z"/><path class="cls-27" d="M167.65,63.24c-.65-.34-2.2-1.15-1.89-1.94s1.78-1.13,2.59-1.4c1.24-.43,1.94-.41,1.7,1.49C169.87,62.6,169.31,64.14,167.65,63.24Z"/><path class="cls-26" d="M173,56.54c-.09.95-.3,2.22-1.48,2.22s-3.87-.45-3.65-2.76c.09-1,1.07-1.38,2.85-1.74C172,54,173.11,54.69,173,56.54Z"/><path class="cls-50" d="M156.93,57.9c-.5,0-2.94.88-3.09.63-.35-.59,0-1.18-.26-1.92s-1.13-.79-1.87-.61c-2.78.63-2.59,1.85-2.87,5s1.22,3.51,4.07,2.85a8.93,8.93,0,0,0,4.83-2.8,3.37,3.37,0,0,0,.65-1.47A1.32,1.32,0,0,0,156.93,57.9Z"/><path class="cls-25" d="M147.16,72.55a8.06,8.06,0,0,0,2.37-1.83c.91-1,.85-2,.85-3.32,0-.86-.59-1.11-1.33-1.11a7.21,7.21,0,0,1-1.37-.09c-1.39-.2-2-1.36-1.94-2.8.11-2.1-1-.86-1.89-.25S141,66.31,143,66.9c.83.25,2.37.36,2.37,1.61.33.16.39,1.27.39,2.37S145.59,74.16,147.16,72.55Z"/><path class="cls-51" d="M144.18,74.52c0-2.35-1.17-6.38-4.07-6.38-1.48,0-2.59.45-2.92,1.92-.24,1.13.72,1.24,1.52,1.2a3.21,3.21,0,0,1,3.52,3.14v.77C142.24,76.92,144.18,76.51,144.18,74.52Z"/><path class="cls-52" d="M136.46,72.44c-.52-1-.91.11-1.09,1-.41,1.83,1,4.36,3,3.12-.61,1.65.76,2.28,1.94,2.17a1.48,1.48,0,0,0,.33-2.85C138.52,75,138,75.22,136.46,72.44Z"/><path class="cls-29" d="M133.39,78.82c.3,0,.57-.36.57-.81s-.26-.81-.57-.81-.59.36-.59.81S133.06,78.82,133.39,78.82Z"/><path class="cls-96" d="M169.15,46.52c-1.44.34-2.46,1.27-2.28,2.1s1.5,1.2,2.94.86,2.46-1.27,2.28-2.1S170.59,46.18,169.15,46.52Z"/><path class="cls-50" d="M168.7,52.2c-.44-.45-1.76-.43-2.37-.43-1.2-.14-1-.81-1.22-1.7-.09-.54-.39-1-1.26-.41-1.48,1.06-.72,2.74.11,3.64a4,4,0,0,0,3.18,1.18C168.13,54.48,169.83,53.38,168.7,52.2Z"/><path class="cls-97" d="M170.24,83.81a5.34,5.34,0,0,0-.39,3.89c.41,1.42,1.35,2.15,2,2.08s1.15-.81.61-1.9a2.59,2.59,0,0,1,.44-3.46c.7-.72.76-1.88.13-2.19C172.16,81.73,171.11,82.23,170.24,83.81Z"/><path class="cls-98" d="M171.92,76.37a4.57,4.57,0,0,0,0,3.39c.48,1.22,1.33,1.74,1.94,1.63s.94-.81.37-1.7a2.27,2.27,0,0,1,.09-3.05c.54-.68.5-1.67-.07-1.9C173.4,74.41,172.55,74.93,171.92,76.37Z"/><path class="cls-99" d="M173,68.89a4.37,4.37,0,0,0,0,3.23c.46,1.15,1.28,1.63,1.85,1.52s.89-.75.35-1.61a2.14,2.14,0,0,1,.07-2.89c.52-.66.48-1.61-.07-1.81C174.44,67,173.61,67.51,173,68.89Z"/><path class="cls-100" d="M174.85,61.7a3.81,3.81,0,0,0-.7,2.67c.13,1.06.72,1.65,1.22,1.7s.89-.43.63-1.24a1.85,1.85,0,0,1,.67-2.4c.57-.41.74-1.2.33-1.52C176.42,60.45,175.64,60.68,174.85,61.7Z"/><path class="cls-101" d="M176.25,55.89a3.83,3.83,0,0,0-.07,2.78c.37,1,1.07,1.47,1.57,1.38s.78-.63.33-1.38a1.84,1.84,0,0,1,.13-2.49c.46-.57.46-1.38,0-1.58C177.51,54.3,176.79,54.71,176.25,55.89Z"/><path class="cls-102" d="M176.9,50.32a3.37,3.37,0,0,0,.59,2.4c.54.75,1.24.95,1.65.75s.52-.72,0-1.24a1.65,1.65,0,0,1-.48-2.15c.26-.59.07-1.29-.37-1.33C177.6,48.65,177.07,49.19,176.9,50.32Z"/><path class="cls-103" d="M175.14,45.87a2.43,2.43,0,0,0,1.15,1.4c.61.32,1.13.23,1.35,0s.11-.68-.41-.84a1.15,1.15,0,0,1-1-1.29c0-.47-.37-.86-.67-.75C175.07,44.51,174.9,45.05,175.14,45.87Z"/><polygon class="cls-104" points="119.75 71.58 102.54 41.87 103.04 41.55 120.25 71.26 119.75 71.58"/><path class="cls-105" d="M104,43.83c-.52-1.33-1.17-4.39-2-6.08-.28-.63-1.07-1.79-1.91-1.31-.52.27-.48,1.29-.24,1.9C100.63,40.24,103.61,43.22,104,43.83Z"/><polygon class="cls-104" points="124.56 71.58 141.76 41.87 141.24 41.55 124.03 71.26 124.56 71.58"/><path class="cls-105" d="M140.29,43.83c.52-1.33,1.15-4.39,1.94-6.08.3-.63,1.09-1.79,1.94-1.31.52.27.48,1.29.24,1.9C143.68,40.24,140.7,43.22,140.29,43.83Z"/><path class="cls-106" d="M124.47,74l-1.52-3.55V63.08A26.5,26.5,0,0,1,124.47,74Z"/><path class="cls-106" d="M119.84,74l1.52-3.55V63.08A26.14,26.14,0,0,0,119.84,74Z"/><path class="cls-105" d="M125.62,72.89a2.31,2.31,0,1,0,2.22,2.31A2.28,2.28,0,0,0,125.62,72.89Z"/><path class="cls-107" d="M125.62,73.28a1.91,1.91,0,1,0,1.83,1.92A1.89,1.89,0,0,0,125.62,73.28Z"/><ellipse class="cls-104" cx="118.68" cy="75.2" rx="2.22" ry="2.31"/><path class="cls-108" d="M118.68,73.28a1.91,1.91,0,1,1-1.83,1.92A1.89,1.89,0,0,1,118.68,73.28Z"/><path class="cls-106" d="M117.81,75.08a.47.47,0,1,0-.48-.47A.47.47,0,0,0,117.81,75.08Z"/><path class="cls-106" d="M126.49,75.08a.48.48,0,1,0-.46-.47A.46.46,0,0,0,126.49,75.08Z"/><path class="cls-109" d="M123.12,70.13h-1.94a2.45,2.45,0,0,0-2.39,2.49V78a2.44,2.44,0,0,0,2.39,2.46h1.94A2.43,2.43,0,0,0,125.49,78V72.62A2.43,2.43,0,0,0,123.12,70.13Z"/><path class="cls-110" d="M125.27,105h-6.7c-2.13,10.7-1.89,19.61,0,27.29.46,1.85,1.52,3.48,3.35,3.48h0c1.85,0,2.83-1.65,3.35-3.48A48.62,48.62,0,0,0,125.27,105Z"/><path class="cls-111" d="M122.58,103.42l-2.11-.09c-2,10.45-1.17,27.59,1.5,31C119.44,130.53,121.18,109,122.58,103.42Z"/><path class="cls-112" d="M122.14,77.32c-4.5,0-8.2,6.63-8.2,14.72s3.7,14.72,8.2,14.72,8.22-6.63,8.22-14.72S126.67,77.32,122.14,77.32Z"/><path class="cls-113" d="M119.88,104.05c.33-.07,1.22-.18.48-2.28-.52-1.42-1-2.74-1.33-3.91-1.63-5.72-2-16.3,3-19.67-6.83,2.74-6.83,14.22-4.74,21.6C117.86,101.88,119.07,104.23,119.88,104.05Z"/></svg>