<svg id="Layer_1" data-name="Layer 1" xmlns="http://www.w3.org/2000/svg" viewBox="0 0 244.31 178.29"><title>colorGrid</title><rect width="39.05" height="34.06" fill="#e700a9"/><rect x="41.05" width="39.05" height="34.06" fill="#0049e7"/><rect x="82.1" width="39.05" height="34.06" fill="#e7c286"/><rect x="123.15" width="39.05" height="34.06" fill="#34ab26"/><rect x="164.2" width="39.05" height="34.06" fill="#c771e7"/><rect x="205.25" width="39.05" height="34.06" fill="#e70064"/><rect y="36.06" width="39.05" height="34.06" fill="#dfe700"/><rect x="41.05" y="36.06" width="39.05" height="34.06" fill="#00e7a9"/><rect x="82.1" y="36.06" width="39.05" height="34.06" fill="#e700a9"/><rect x="123.15" y="36.06" width="39.05" height="34.06" fill="#8e00e7"/><rect x="164.2" y="36.06" width="39.05" height="34.06" fill="#d4e700"/><rect x="205.25" y="36.06" width="39.05" height="34.06" fill="#304fff"/><rect y="72.12" width="39.05" height="34.06" fill="#5cff65"/><rect x="41.05" y="72.12" width="39.05" height="34.06" fill="#ff8a05"/><rect x="82.1" y="72.12" width="39.05" height="34.06" fill="#f7ff45"/><rect x="123.15" y="72.12" width="39.05" height="34.06" fill="#fd7f85"/><rect x="164.2" y="72.12" width="39.05" height="34.06" fill="#00bde7"/><rect x="205.25" y="72.12" width="39.05" height="34.06" fill="#7100e0"/><rect y="108.18" width="39.05" height="34.06" fill="#4e00b9"/><rect x="41.05" y="108.18" width="39.05" height="34.06" fill="#00e7d7"/><rect x="82.1" y="108.18" width="39.05" height="34.06" fill="#68e700"/><rect x="123.15" y="108.18" width="39.05" height="34.06" fill="#384cff"/><rect x="164.2" y="108.18" width="39.05" height="34.06" fill="#ff2b58"/><rect x="205.25" y="108.18" width="39.05" height="34.06" fill="#f0f"/><rect y="144.24" width="39.05" height="34.06" fill="#2a7ab6"/><rect x="41.05" y="144.24" width="39.05" height="34.06" fill="#fd1924"/><rect x="82.1" y="144.24" width="39.05" height="34.06" fill="#ff9f40"/><rect x="123.15" y="144.24" width="39.05" height="34.06" fill="#7100e0"/><rect x="164.2" y="144.24" width="39.05" height="34.06" fill="#ff30ff"/><rect x="205.25" y="144.24" width="39.05" height="34.06" fill="#75c8ff"/></svg>