<svg xmlns="http://www.w3.org/2000/svg" xmlns:xlink="http://www.w3.org/1999/xlink" viewBox="0 0 80.43 54.08"><defs><style>.cls-1{isolation:isolate;}.cls-2{fill:#9e5a10;}.cls-3{fill:url(#linear-gradient);}.cls-4{opacity:0.75;}.cls-5{fill:#cf974d;opacity:0.63;mix-blend-mode:multiply;}.cls-6{mix-blend-mode:screen;}.cls-7{fill:#ffbb43;}.cls-8{fill:url(#linear-gradient-2);}</style><linearGradient id="linear-gradient" x1="39.02" x2="39.02" y2="52" gradientUnits="userSpaceOnUse"><stop offset="0" stop-color="#ffcd6a"/><stop offset="0.99" stop-color="#ffac00"/></linearGradient><linearGradient id="linear-gradient-2" x1="40.81" y1="5.21" x2="40.81" y2="18.05" gradientUnits="userSpaceOnUse"><stop offset="0" stop-color="#bb260c"/><stop offset="0.99" stop-color="#7f0003"/></linearGradient></defs><title>score-btn</title><g class="cls-1"><g id="Layer_1" data-name="Layer 1"><path class="cls-2" d="M80.33,12.3c0,1.69.27,2.43-.67,3.33a3.47,3.47,0,0,1,.77.78s-1.08,2-1.08,2c1.35.19,1,2.37,1,3.23,0,2.79-.06,5.58,0,8.37-1.24.18-4.09.24-5.22.76.43.14,2.62.74,3,.88a13.59,13.59,0,0,1,2,1.2,6.88,6.88,0,0,1,.08,1.2c-.06,3.9.07,16,.1,19.92C56,54,26.5,54.16,1.84,54A20.18,20.18,0,0,1,0,51.49c.07-2.24,3.52-15,3.36-17.26a.88.88,0,0,1,0-.38c.17-.43.86-.34,1.14-.71-.5-.68-1.79-.4-2.11-1.17-.09-.21-2.09-1.1-2.07-1.33.07-.93,2.15-1.2,2.22-2.13A45.39,45.39,0,0,0,9.41,27a7.53,7.53,0,0,0-2.47-.73C5.14,26,2.86,25.88,1,25.56c-.3-.37-.54-.29-1-.76,0,0,1.78-6.57,1.83-9.23,0-.85.28-2,1.12-2a14.86,14.86,0,0,1,.11-6.11c.07-.47.31-1.08.78-1L5.23,2c15.06-.91,30.19,1.2,45.28,1.66C59.71,3.93,78,.08,78,.08S80,3,80.29,3.43C80.21,6,80.38,9.82,80.33,12.3Z"/><path class="cls-3" d="M77.93,36.77v-.45s0,0,0,0c0-1.47,0-3,0-4.44a.82.82,0,0,0-.16-.38.56.56,0,0,0-.31-.19c-.78-.27-3.09-.54-3.87-.81a17.89,17.89,0,0,1,4.34-1.1c0-2.9-.19-5.7,0-8.49.06-.89-.21-2.13-1-2.33.43-.66.68-1.34,1.12-2-.6-.34-1-.67-1.62-1,1.22-1,1.38-2.8,1.43-4.41.08-2.68,0-8.34.11-11C68.49,0,58.42,0,48.7,0,33.7.1,15.54.1,0,.1-.06,1.7.19,3.49,0,5c0,.63.22,1.61.15,2.09-.32,2.1.22,3.24.74,5.29-.83,0-.9,2-.91,2.92C0,18.61.11,21.53,0,24.8c1.79.33,3.73.43,5.52.76A7.23,7.23,0,0,1,8,26.32a58.93,58.93,0,0,1-8,1.32c-.07,1,.08,2.11,0,3.07a1.58,1.58,0,0,0,.05.69c.32.8,2.6.52,3.09,1.21-.28.38-3,.29-3.13.74a.94.94,0,0,0,0,.4c.19,2.74,0,15,0,17.74,24.42.19,53.64.13,77.88.51,0-2.36.06-12.66,0-15C77.93,37,77.93,36.8,77.93,36.77Z"/><g class="cls-4"><path class="cls-5" d="M76.92,18.53c-3.78-1.19-7-1.72-10.81-2.55a83.93,83.93,0,0,0-16.66-1.61C38.18,14.24,27,17.29,16,19.59c-3,.64-6.08.93-9.12,1.42A29.45,29.45,0,0,1,0,21.72a1.77,1.77,0,0,1,0,.25A17.88,17.88,0,0,0,4,21.65c2.57-.39,5.14-.79,7.72-1.13,5.52-.72,10.93-2.29,16.41-3.3a134.72,134.72,0,0,1,17.55-2.52,86.08,86.08,0,0,1,17.46,1c3,.48,6,1.29,9,1.93,2,.42,3.51.76,5.42,1.34A1.8,1.8,0,0,0,76.92,18.53Z"/><path class="cls-5" d="M77.89,21.7c-1-.32-1.81-.52-2.76-.85a75.57,75.57,0,0,0-8.19-2.3,69.48,69.48,0,0,0-16.21-1.86c-11.26.18-22.25,3.17-33.29,5.15a73.58,73.58,0,0,1-9.54,1.41c-2.56.12-5.29-.14-7.85-.2a1,1,0,0,1,0,.27c2.05.1,4.29.19,6.34.18a50.89,50.89,0,0,0,8.47-1c5.46-.94,10.88-2,16.32-3.08a129.45,129.45,0,0,1,16.05-2.31,65.78,65.78,0,0,1,16.88,1.27,85.59,85.59,0,0,1,9.3,2.31c1.46.45,2.91.79,4.46,1.35C77.87,22,77.89,21.84,77.89,21.7Z"/><path class="cls-5" d="M77.83,24.12c-8.61-3.59-18.09-5.8-27.3-5.2-2.63.17-5.24.65-7.86.93s-5.52.54-8.25,1.05S29,22.16,26.32,22.55s-5.2,1.14-7.83,1.49a84,84,0,0,1-9.7.77c-1.79,0-3.59-.06-5.38-.14L5.64,25l1.74.05c2.88,0,5.74-.27,8.61-.51a76.58,76.58,0,0,0,8-1.35c2.45-.46,4.9-.8,7.33-1.35,5.42-1.21,10.94-1.65,16.44-2.35a49.94,49.94,0,0,1,16.82.88,90.31,90.31,0,0,1,13.28,4.35C77.86,24.58,77.85,24.38,77.83,24.12Z"/><path class="cls-5" d="M61,35.44a79.67,79.67,0,0,1-14.32-2.13c-4.54-1-9.14-1.84-13.72-2.62s-9.42-1.07-14.13-1.6a46.54,46.54,0,0,0-6.51-.39,13.14,13.14,0,0,1-2.23.11c-.33,0-2-.54-1.67-1A2.83,2.83,0,0,1,9.95,27a17.87,17.87,0,0,1,4.86-.36A60.94,60.94,0,0,0,21.49,26c4.6-.6,9-1.66,13.56-2.62a119.2,119.2,0,0,1,14.27-1.8,44.21,44.21,0,0,1,16.3,1.5,108.44,108.44,0,0,1,12.3,4.61c-.05-.12,0-.06,0-.31-8.48-3.63-17-6.8-26.36-6.27-2.73.15-5.44.51-8.16.84s-5.32.57-8,1.13-5.29,1.29-8,1.84-5.23.85-7.85,1.15c-2.41.28-4.79.32-7.2.43a11.35,11.35,0,0,0-2.46.3,4.4,4.4,0,0,0-1.16.48c-.18.11-.91.56-.84.82a.34.34,0,0,0,.15.18,4.32,4.32,0,0,0,2.64.68,59.13,59.13,0,0,1,6.53.18c4.88.49,9.82.88,14.66,1.68s10,1.81,14.88,2.94a75.26,75.26,0,0,0,14,2.12c5.14.21,12,.17,17.12-1.17,0-.15,0-.31,0-.46h0C72.95,35.59,66.07,35.65,61,35.44Z"/><path class="cls-5" d="M71.9,37.19a49.23,49.23,0,0,1-8.11.71,40.82,40.82,0,0,1-8.13-.44c-2.7-.47-5.35-1.2-8-1.77s-5.34-.85-8-1.28-5.32-1.26-8-1.91a26.57,26.57,0,0,0-6.84-.89c-2.82.06-5.57.44-8.4.23a39.58,39.58,0,0,1-8.29-1.1,20.72,20.72,0,0,1-3.39-1.5c-1-.52-1.66-.74-2.17-1.84-.06,0,.32,1.07,1.91,1.84a19.44,19.44,0,0,0,5.61,2.13,72,72,0,0,0,7.88.78c3.16.12,6.31-.52,9.47-.18a62.11,62.11,0,0,1,8.69,2c2.68.69,5.38.93,8.09,1.4,5.66,1,11.09,2.86,16.87,3a60.28,60.28,0,0,0,9.58-.48,53.82,53.82,0,0,0,7.26-1.09l0-.32a1.4,1.4,0,0,1,0-.16C75.86,36.84,74,36.77,71.9,37.19Z"/><path class="cls-5" d="M78,39s0,0,0,0c-4.28,1.6-8.71,1.79-13.26,1.55-5.24-.27-10.52-.88-15.7-1.68A132.28,132.28,0,0,1,32.9,34.92,56.73,56.73,0,0,0,17.82,33.2a71,71,0,0,1-9.53-.51c-1.74-.26-6.53-2-8.21-2.48.08.07,3.12,1.19,3.19,1.27s.58.17.6.19a44.39,44.39,0,0,0,10.46,1.71c6.14.19,12.17,0,18.13,1.77a132.56,132.56,0,0,0,15.69,4c5.26.85,10.59,1.45,15.91,1.78,4.74.3,9.42.19,13.9-1.39,0,0,0-.14,0-.17a1.82,1.82,0,0,1,0-.23S78,39,78,39Z"/><path class="cls-5" d="M38.39,41.81c.07,0,.82.39.89.39A79.91,79.91,0,0,0,53.83,45c9.28.67,24-1.71,24.13-1.71s-14.24,2.06-23.72,1.24a102.85,102.85,0,0,1-15.4-2.88,20.87,20.87,0,0,1-4-2.18,21.21,21.21,0,0,0-4.46-1.82,43.43,43.43,0,0,0-9.74-1.26,90.85,90.85,0,0,1-10.28-.85C7,34.92,3.71,34,.27,34.45c0,0,0,.09,0,.13,3.39-.18,6.67.71,10,1.31a83.33,83.33,0,0,0,10.27.91c3.53.2,7.19.39,10.57,1.54a19.34,19.34,0,0,1,4,1.83,17,17,0,0,0,2.12,1.28A10.2,10.2,0,0,1,38.39,41.81Z"/><path class="cls-5" d="M25.19,41.25A247.45,247.45,0,0,0,52,48.9C62.88,51.16,78,50.39,78,50.33s-14.14.85-24.47-1.43a270.59,270.59,0,0,1-26.77-7.72c-2.87-1-6.11-1.21-9-1.56a50.22,50.22,0,0,1-9.15-1.87C5.94,36.93,3.23,36,.45,36c-.06,0-.1.07,0,.08A39.92,39.92,0,0,1,8.9,38.14a47.49,47.49,0,0,0,8.7,1.75,54.92,54.92,0,0,1,7.58,1.36Z"/><path class="cls-5" d="M41.46,51.72c-1.88-.39-3.74-.85-5.49-1.4a270.62,270.62,0,0,1-26-10C7.22,39,4,38.56,1.15,38l-1-.24c0,.1,0,.19,0,.28l1,.22a54.92,54.92,0,0,1,7.43,2h0a247.45,247.45,0,0,0,26.07,10c1.93.58,4,1.08,6.13,1.5Z"/><path class="cls-5" d="M0,46.92c1.62.76,3,2.27,4.43,2.85a31.26,31.26,0,0,0,6.72,1.79c-.94-.51-3.8-.75-6.13-1.79C3.44,49.06,2,47.28,0,46.35A1.52,1.52,0,0,1,0,46.92Z"/><path class="cls-5" d="M2.15,1.49c3,2,10.63-.45,13.94-1.4a14.17,14.17,0,0,0-1.72,0C10.8,1,5.3,3.28,2.19,1.31.78.42,0,0,2.15,1.49Z"/><path class="cls-5" d="M69.34,5.4A39.82,39.82,0,0,1,61.1,2.78C59.28,2,57.83.75,56.2,0c-.32,0-1.33,0-1.66,0,3.52,1.51,7.53,4.34,13.18,5.54.59.12,4.46.54,2.82,1.31-.72.34-6.37.11-7.52.28a53.29,53.29,0,0,0-7.75,1.75c-2.78.84-5.65,1.37-8.46,2.1a50.29,50.29,0,0,1-8.86,1.53c-5.92.46-11.85.69-17.78,1a63.76,63.76,0,0,0-9.38,1.07C7.57,15.26,3.25,16.27,0,16.84c0,.07,0,.26,0,.33s.25-.09.3-.1c4.72-.77,10.26-2.31,15-2.84,4.61-.51,9.26-.56,13.88-.78a99.8,99.8,0,0,0,13.6-1.1c2.18-.41,4.33-1,6.48-1.57s4.5-1,6.72-1.66a43.55,43.55,0,0,1,6.83-1.55c2-.28,6.91.35,8.59-.83a.14.14,0,0,0,0-.13C71.1,5.71,70.2,5.52,69.34,5.4Z"/><path class="cls-5" d="M72.34,3C70.19,2.13,68,.9,65.83.08c-.4,0-1.35,0-1.75-.06,2,.76,4.55,1.93,6.5,2.73A24.24,24.24,0,0,1,74.44,4.4c1,.52,2.75,1.55,2.76,2.85,0,1.82-3.73,2.06-5,2.16-3.17.25-6.32.29-9.48.71-7.27,1-14.49,2.29-21.77,3.23s-14.43,1.81-21.69,2.4c-6.42.52-13,1.05-19.26,2.8,0,.06,0,.21,0,.26a101.7,101.7,0,0,1,19.2-2.76c8-.57,15.92-1.6,23.86-2.61s15.81-2.68,23.77-3.34c2.59-.21,5.27,0,7.82-.65,1-.26,2.7-.75,2.9-2C77.92,5,73.86,3.59,72.34,3Z"/><path class="cls-5" d="M64.05,13.88c-.35-.05-2-.18-1.85-.63s1.82-.5,2.14-.52c2.45-.15,4.85.56,7.28.52a18,18,0,0,0,4.41-1c.63-.17,1.09-.26,1.75-.39,0,0,0-.1,0-.13s0,0,0,0a.53.53,0,0,1,0-.11c-1.15.28-2.14.55-3.29.89a12.5,12.5,0,0,1-5.18.41c-2.26-.25-6.34-1.21-7.74.47-.07.08.06.15.11.17,3,.91,6.08.64,9.12,1.07a38.69,38.69,0,0,1,7.13,2c0-.07,0-.1-.17-.15a33.48,33.48,0,0,0-7.73-2.1C68.07,14.11,66,14.17,64.05,13.88Z"/><path class="cls-5" d="M56,4.56C53.08,4,49.81,1.2,47,0l-1.24,0C48,1.06,51.66,3.55,54,4.35c1.38.47,2.85.61,4.24,1.06a3.36,3.36,0,0,1,1.16.5c.38.34.48.12.17.56-.17.24-.4.26-.64.36a12.52,12.52,0,0,1-3.74.69c-2.35.18-4.7,0-7,.06-5.3.1-10.43,1.63-15.66,2.34a150.22,150.22,0,0,1-16,1.28,52,52,0,0,0-8.74,1c-1.28.26-2.57.48-3.85.75a32.77,32.77,0,0,1-3.73.61c0,.06,0,.24-.07.3a45.35,45.35,0,0,0,5.69-1.07A65.79,65.79,0,0,1,14,11.54c5.6-.34,11.17-.51,16.76-1.14s11-2.27,16.66-2.52c4.29-.2,8.86.6,12.91-1.28a.11.11,0,0,0,.06-.13C59.81,5,57.17,4.82,56,4.56Z"/><path class="cls-5" d="M47.85,3.52A41.34,41.34,0,0,0,42.32.08H41.16A48.51,48.51,0,0,1,47.63,3.8a3.81,3.81,0,0,1,1.12.92c.74,1.4-.46,1.24-1,1.2-.86-.06-1.71-.24-2.58-.3A66.05,66.05,0,0,0,30.48,6.7c-2.58.41-5.16.88-7.74,1.29a51.67,51.67,0,0,1-7.65.47C10.16,8.5,5.39,9.79.47,9.94c0,.06-.16.16-.15.22,4.32.3,8.84-1.19,13.16-1.31,2.16-.06,4.32,0,6.47-.14,2.32-.17,4.62-.65,6.9-1a101.75,101.75,0,0,1,14.3-1.74A35.47,35.47,0,0,1,47,6.23c.69.1,2,.38,2.3-.54S48.46,4,47.85,3.52Z"/><path class="cls-5" d="M34.32,1.17C33.91.91,33.06.29,32.62.08h-.3c-.18,0-.32,0-.5,0C33.88.94,37.32,3.3,34.42,4c-4.29,1-9,.7-13.33,1-4.22.25-8.36,1.12-12.56,1.45-1.42.11-2.8.25-4.21.45a11.1,11.1,0,0,1-3.91.2s-.21,0-.22.07a8.68,8.68,0,0,0,2.15.14c1.76-.09,3.5-.46,5.26-.56,2.88-.17,5.73-.58,8.58-1a81.33,81.33,0,0,1,9-.66,79.36,79.36,0,0,0,8-.55c.75-.1,2.86-.16,2.92-1.35C36.14,2.28,34.9,1.53,34.32,1.17Z"/><path class="cls-5" d="M21.46,2.26a3,3,0,0,0-2-1.93c-.24,0-.68-.22-.92-.24H17.38c.08,0,.61.4.69.42.87.26,2.8.69,3.11,1.75C21.69,4,16.9,3.91,16,3.93c-1.65,0-3.31-.11-5,0-1.88.1-3.77.18-5.64.41a24.34,24.34,0,0,1-5.35.34l0,.23c1.65.37,4.37-.15,5.88-.29,2-.19,4-.37,6-.38a57.07,57.07,0,0,0,6.79-.08C19.69,4,21.83,3.78,21.46,2.26Z"/><path class="cls-5" d="M77.58,32.28c-1.73,1.44-4.74,1.24-6.84,1.24-3.31,0-6.64-.08-9.95-.36-6.67-.56-13-3-19.64-4-1.65-.26-3.31-.47-5-.7-.69-.1-3.73-.17-2.56-1.33,1-1,3.3-1.41,4.61-1.59a68.29,68.29,0,0,1,10.43-.18,99.34,99.34,0,0,1,10.11.14A106.52,106.52,0,0,1,70,27.61c2,.44,5,1.31,7,1.89l.76-.13.14,0s0-.22,0-.22-1.38-.16-1.24-.19c-2-.62-4.11-1.12-6.12-1.57-3.58-.81-7.15-1.65-10.79-2.13-4-.53-7.93-.1-12-.23a46.58,46.58,0,0,0-10.24.28c-1.35.26-3.47.68-4.48,1.73s.86,1.36,1.56,1.48c4,.67,8,1.05,11.92,2,3.77.87,7.51,2,11.34,2.56a79.06,79.06,0,0,0,12.58.69c2.23,0,5.56.07,7.38-1.51C78,32.13,77.67,32.21,77.58,32.28Z"/><path class="cls-5" d="M77.58,31.47c-2.43-.13-4.78.05-7.21.15a39.26,39.26,0,0,1-7.8-.61c-2.42-.38-4.83-.84-7.23-1.35-1.12-.24-2.24-.51-3.38-.67-.59-.08-1.19-.13-1.78-.22s-1.54-.08-1.89-.41c-.65-.61.43-.58,1-.61a13.12,13.12,0,0,1,1.74,0c1.18.09,2.36.16,3.53.33,2.42.36,4.78.81,7.22,1,4.8.37,11.24.83,12.76,1l.13,0c.42-.15.17,0-.48-.19a1.25,1.25,0,0,1-.44-.12c-1.57-.14-3.4-.35-4.93-.47-2.7-.21-5.41-.28-8.11-.53-2.52-.23-5-.83-7.5-1.06-2-.18-4.23-.58-6.12.26a.13.13,0,0,0,0,.24c1.93,1,4.07.91,6.13,1.32,2.76.55,5.5,1.17,8.28,1.63A44.18,44.18,0,0,0,69.4,32c2.76,0,5.1-.54,8.22-.44C77.77,31.52,77.69,31.48,77.58,31.47Z"/><path class="cls-5" d="M27.39,50.95a.81.81,0,0,1-.4-.23c-1.49-.51-3.21-1.16-4.67-1.65-2.57-.86-5.18-1.59-7.74-2.49-2.39-.84-4.63-2-7-2.85-1.89-.66-4-1.59-6-1.23a.13.13,0,0,0-.05.24c1.64,1.4,3.72,1.87,5.63,2.77C9.7,46.71,12.2,48,14.78,49.1a48.64,48.64,0,0,0,6.72,2.5c.41,0,.81,0,1.21,0a41.25,41.25,0,0,1-6.85-2.35c-2.26-1-4.48-2-6.68-3.07-1-.5-2.05-1-3.12-1.47-.56-.22-1.12-.42-1.67-.64s-1.48-.45-1.73-.85c-.48-.75.56-.46,1.09-.36a13.12,13.12,0,0,1,1.68.47c1.12.37,2.25.73,3.34,1.18,2.26.93,4.45,1.94,6.77,2.72,4.57,1.53,10.7,3.53,12.15,4,.16,0,1.66.39,1.75.38C29.87,51.59,29.73,51.63,27.39,50.95Z"/></g><g class="cls-6"><path d="M20.25,7.87a2.29,2.29,0,0,0-1.49.47,1.65,1.65,0,0,0-.58,1.36,1.55,1.55,0,0,0,.68,1.36,4.72,4.72,0,0,0,1.66.68q1,.22,1.94.5a3.51,3.51,0,0,1,1.66,1,3.09,3.09,0,0,1,.68,2.14,3.33,3.33,0,0,1-1.17,2.48A4.39,4.39,0,0,1,20.51,19a5.17,5.17,0,0,1-3.19-.92,3,3,0,0,1-1.22-2.54h2.2a1.92,1.92,0,0,0,.61,1.31,2.3,2.3,0,0,0,1.58.49,2.38,2.38,0,0,0,1.65-.54,1.79,1.79,0,0,0,.23-2.43,2.27,2.27,0,0,0-1-.62,12.08,12.08,0,0,0-1.29-.37q-.7-.16-1.41-.38a6,6,0,0,1-1.3-.56,2.58,2.58,0,0,1-1-1,3.24,3.24,0,0,1-.37-1.61,3.29,3.29,0,0,1,1.18-2.64,4.57,4.57,0,0,1,3.06-1,4.81,4.81,0,0,1,3,.86,3.31,3.31,0,0,1,1.25,2.5H22.32a1.82,1.82,0,0,0-.61-1.21A2.1,2.1,0,0,0,20.25,7.87Z"/><path d="M27.9,17.62a5.14,5.14,0,0,1-1.35-3.72,5.12,5.12,0,0,1,1.36-3.72,4.66,4.66,0,0,1,3.5-1.4,4.94,4.94,0,0,1,3,.86A4.21,4.21,0,0,1,36,12.08H33.77a2.26,2.26,0,0,0-2.36-1.57,2.48,2.48,0,0,0-2,.89,3.77,3.77,0,0,0-.75,2.49,3.8,3.8,0,0,0,.75,2.5,2.47,2.47,0,0,0,2,.9,2.28,2.28,0,0,0,2.36-1.57H36a4.44,4.44,0,0,1-1.62,2.4,4.78,4.78,0,0,1-3,.89A4.65,4.65,0,0,1,27.9,17.62Z"/><path d="M42.35,19a4.82,4.82,0,0,1-3.57-1.41,5,5,0,0,1-1.4-3.71,5.06,5.06,0,1,1,10.12,0A4.9,4.9,0,0,1,46,17.61,5.08,5.08,0,0,1,42.35,19Zm2.13-2.63a3.38,3.38,0,0,0,.9-2.5,3.41,3.41,0,0,0-.87-2.49,2.85,2.85,0,0,0-2.12-.89,2.76,2.76,0,0,0-2.09.89,3.49,3.49,0,0,0-.85,2.5,3.54,3.54,0,0,0,.83,2.5,2.7,2.7,0,0,0,2.06.89A2.91,2.91,0,0,0,44.48,16.4Z"/><path d="M51.57,8.95v1.73a3.13,3.13,0,0,1,3-1.89v2.12H54a2.5,2.5,0,0,0-1.83.61,2.93,2.93,0,0,0-.62,2.12v5.22H49.52V8.95Z"/><path d="M60.61,19a4.65,4.65,0,0,1-3.51-1.4,5.15,5.15,0,0,1-1.35-3.73,5.08,5.08,0,0,1,1.37-3.72,4.86,4.86,0,0,1,8.41,3.45,6.18,6.18,0,0,1-.07,1h-7.6a2.82,2.82,0,0,0,.84,2,2.67,2.67,0,0,0,1.92.73A2.41,2.41,0,0,0,63,15.91h2.21a4.45,4.45,0,0,1-1.64,2.24A4.82,4.82,0,0,1,60.61,19Zm2-7.79a2.74,2.74,0,0,0-1.93-.73,2.65,2.65,0,0,0-1.9.73,3,3,0,0,0-.87,2h5.51A2.58,2.58,0,0,0,62.57,11.24Z"/><path class="cls-7" d="M20.25,7.87a2.29,2.29,0,0,0-1.49.47,1.65,1.65,0,0,0-.58,1.36,1.55,1.55,0,0,0,.68,1.36,4.72,4.72,0,0,0,1.66.68q1,.22,1.94.5a3.51,3.51,0,0,1,1.66,1,3.09,3.09,0,0,1,.68,2.14,3.33,3.33,0,0,1-1.17,2.48A4.39,4.39,0,0,1,20.51,19a5.17,5.17,0,0,1-3.19-.92,3,3,0,0,1-1.22-2.54h2.2a1.92,1.92,0,0,0,.61,1.31,2.3,2.3,0,0,0,1.58.49,2.38,2.38,0,0,0,1.65-.54,1.79,1.79,0,0,0,.23-2.43,2.27,2.27,0,0,0-1-.62,12.08,12.08,0,0,0-1.29-.37q-.7-.16-1.41-.38a6,6,0,0,1-1.3-.56,2.58,2.58,0,0,1-1-1,3.24,3.24,0,0,1-.37-1.61,3.29,3.29,0,0,1,1.18-2.64,4.57,4.57,0,0,1,3.06-1,4.81,4.81,0,0,1,3,.86,3.31,3.31,0,0,1,1.25,2.5H22.32a1.82,1.82,0,0,0-.61-1.21A2.1,2.1,0,0,0,20.25,7.87Z"/><path class="cls-7" d="M27.9,17.62a5.14,5.14,0,0,1-1.35-3.72,5.12,5.12,0,0,1,1.36-3.72,4.66,4.66,0,0,1,3.5-1.4,4.94,4.94,0,0,1,3,.86A4.21,4.21,0,0,1,36,12.08H33.77a2.26,2.26,0,0,0-2.36-1.57,2.48,2.48,0,0,0-2,.89,3.77,3.77,0,0,0-.75,2.49,3.8,3.8,0,0,0,.75,2.5,2.47,2.47,0,0,0,2,.9,2.28,2.28,0,0,0,2.36-1.57H36a4.44,4.44,0,0,1-1.62,2.4,4.78,4.78,0,0,1-3,.89A4.65,4.65,0,0,1,27.9,17.62Z"/><path class="cls-7" d="M42.35,19a4.82,4.82,0,0,1-3.57-1.41,5,5,0,0,1-1.4-3.71,5.06,5.06,0,1,1,10.12,0A4.9,4.9,0,0,1,46,17.61,5.08,5.08,0,0,1,42.35,19Zm2.13-2.63a3.38,3.38,0,0,0,.9-2.5,3.41,3.41,0,0,0-.87-2.49,2.85,2.85,0,0,0-2.12-.89,2.76,2.76,0,0,0-2.09.89,3.49,3.49,0,0,0-.85,2.5,3.54,3.54,0,0,0,.83,2.5,2.7,2.7,0,0,0,2.06.89A2.91,2.91,0,0,0,44.48,16.4Z"/><path class="cls-7" d="M51.57,8.95v1.73a3.13,3.13,0,0,1,3-1.89v2.12H54a2.5,2.5,0,0,0-1.83.61,2.93,2.93,0,0,0-.62,2.12v5.22H49.52V8.95Z"/><path class="cls-7" d="M60.61,19a4.65,4.65,0,0,1-3.51-1.4,5.15,5.15,0,0,1-1.35-3.73,5.08,5.08,0,0,1,1.37-3.72,4.86,4.86,0,0,1,8.41,3.45,6.18,6.18,0,0,1-.07,1h-7.6a2.82,2.82,0,0,0,.84,2,2.67,2.67,0,0,0,1.92.73A2.41,2.41,0,0,0,63,15.91h2.21a4.45,4.45,0,0,1-1.64,2.24A4.82,4.82,0,0,1,60.61,19Zm2-7.79a2.74,2.74,0,0,0-1.93-.73,2.65,2.65,0,0,0-1.9.73,3,3,0,0,0-.87,2h5.51A2.58,2.58,0,0,0,62.57,11.24Z"/></g><path d="M20.25,6.89a2.29,2.29,0,0,0-1.49.47,1.65,1.65,0,0,0-.58,1.36,1.55,1.55,0,0,0,.68,1.36,4.72,4.72,0,0,0,1.66.68q1,.22,1.94.5a3.51,3.51,0,0,1,1.66,1,3.09,3.09,0,0,1,.68,2.14,3.33,3.33,0,0,1-1.17,2.48A4.39,4.39,0,0,1,20.51,18a5.17,5.17,0,0,1-3.19-.92,3,3,0,0,1-1.22-2.54h2.2a1.92,1.92,0,0,0,.61,1.31,2.3,2.3,0,0,0,1.58.49,2.38,2.38,0,0,0,1.65-.54,1.79,1.79,0,0,0,.23-2.43,2.27,2.27,0,0,0-1-.62,12.08,12.08,0,0,0-1.29-.37q-.7-.16-1.41-.38a6,6,0,0,1-1.3-.56,2.58,2.58,0,0,1-1-1,3.24,3.24,0,0,1-.37-1.61,3.29,3.29,0,0,1,1.18-2.64,4.57,4.57,0,0,1,3.06-1,4.81,4.81,0,0,1,3,.86,3.31,3.31,0,0,1,1.25,2.5H22.32a1.82,1.82,0,0,0-.61-1.21A2.1,2.1,0,0,0,20.25,6.89Z"/><path d="M27.9,16.64a5.14,5.14,0,0,1-1.35-3.72,5.12,5.12,0,0,1,1.36-3.72,4.66,4.66,0,0,1,3.5-1.4,4.94,4.94,0,0,1,3,.86A4.21,4.21,0,0,1,36,11.1H33.77a2.26,2.26,0,0,0-2.36-1.57,2.48,2.48,0,0,0-2,.89,3.77,3.77,0,0,0-.75,2.49,3.8,3.8,0,0,0,.75,2.5,2.47,2.47,0,0,0,2,.9,2.28,2.28,0,0,0,2.36-1.57H36a4.44,4.44,0,0,1-1.62,2.4,4.78,4.78,0,0,1-3,.89A4.65,4.65,0,0,1,27.9,16.64Z"/><path d="M42.35,18a4.82,4.82,0,0,1-3.57-1.41,5,5,0,0,1-1.4-3.71,5.06,5.06,0,1,1,10.12,0A4.9,4.9,0,0,1,46,16.62,5.08,5.08,0,0,1,42.35,18Zm2.13-2.63a3.38,3.38,0,0,0,.9-2.5,3.41,3.41,0,0,0-.87-2.49,2.85,2.85,0,0,0-2.12-.89,2.76,2.76,0,0,0-2.09.89,3.49,3.49,0,0,0-.85,2.5,3.54,3.54,0,0,0,.83,2.5,2.7,2.7,0,0,0,2.06.89A2.91,2.91,0,0,0,44.48,15.42Z"/><path d="M51.57,8V9.69a3.13,3.13,0,0,1,3-1.89V9.93H54a2.5,2.5,0,0,0-1.83.61,2.93,2.93,0,0,0-.62,2.12v5.22H49.52V8Z"/><path d="M60.61,18a4.65,4.65,0,0,1-3.51-1.4,5.15,5.15,0,0,1-1.35-3.73A5.08,5.08,0,0,1,57.12,9.2a4.86,4.86,0,0,1,8.41,3.45,6.18,6.18,0,0,1-.07,1h-7.6a2.82,2.82,0,0,0,.84,2,2.67,2.67,0,0,0,1.92.73A2.41,2.41,0,0,0,63,14.93h2.21a4.45,4.45,0,0,1-1.64,2.24A4.82,4.82,0,0,1,60.61,18Zm2-7.79a2.74,2.74,0,0,0-1.93-.73,2.65,2.65,0,0,0-1.9.73,3,3,0,0,0-.87,2h5.51A2.58,2.58,0,0,0,62.57,10.26Z"/><path class="cls-8" d="M20.25,6.89a2.29,2.29,0,0,0-1.49.47,1.65,1.65,0,0,0-.58,1.36,1.55,1.55,0,0,0,.68,1.36,4.72,4.72,0,0,0,1.66.68q1,.22,1.94.5a3.51,3.51,0,0,1,1.66,1,3.09,3.09,0,0,1,.68,2.14,3.33,3.33,0,0,1-1.17,2.48A4.39,4.39,0,0,1,20.51,18a5.17,5.17,0,0,1-3.19-.92,3,3,0,0,1-1.22-2.54h2.2a1.92,1.92,0,0,0,.61,1.31,2.3,2.3,0,0,0,1.58.49,2.38,2.38,0,0,0,1.65-.54,1.79,1.79,0,0,0,.23-2.43,2.27,2.27,0,0,0-1-.62,12.08,12.08,0,0,0-1.29-.37q-.7-.16-1.41-.38a6,6,0,0,1-1.3-.56,2.58,2.58,0,0,1-1-1,3.24,3.24,0,0,1-.37-1.61,3.29,3.29,0,0,1,1.18-2.64,4.57,4.57,0,0,1,3.06-1,4.81,4.81,0,0,1,3,.86,3.31,3.31,0,0,1,1.25,2.5H22.32a1.82,1.82,0,0,0-.61-1.21A2.1,2.1,0,0,0,20.25,6.89Z"/><path class="cls-8" d="M27.9,16.64a5.14,5.14,0,0,1-1.35-3.72,5.12,5.12,0,0,1,1.36-3.72,4.66,4.66,0,0,1,3.5-1.4,4.94,4.94,0,0,1,3,.86A4.21,4.21,0,0,1,36,11.1H33.77a2.26,2.26,0,0,0-2.36-1.57,2.48,2.48,0,0,0-2,.89,3.77,3.77,0,0,0-.75,2.49,3.8,3.8,0,0,0,.75,2.5,2.47,2.47,0,0,0,2,.9,2.28,2.28,0,0,0,2.36-1.57H36a4.44,4.44,0,0,1-1.62,2.4,4.78,4.78,0,0,1-3,.89A4.65,4.65,0,0,1,27.9,16.64Z"/><path class="cls-8" d="M42.35,18a4.82,4.82,0,0,1-3.57-1.41,5,5,0,0,1-1.4-3.71,5.06,5.06,0,1,1,10.12,0A4.9,4.9,0,0,1,46,16.62,5.08,5.08,0,0,1,42.35,18Zm2.13-2.63a3.38,3.38,0,0,0,.9-2.5,3.41,3.41,0,0,0-.87-2.49,2.85,2.85,0,0,0-2.12-.89,2.76,2.76,0,0,0-2.09.89,3.49,3.49,0,0,0-.85,2.5,3.54,3.54,0,0,0,.83,2.5,2.7,2.7,0,0,0,2.06.89A2.91,2.91,0,0,0,44.48,15.42Z"/><path class="cls-8" d="M51.57,8V9.69a3.13,3.13,0,0,1,3-1.89V9.93H54a2.5,2.5,0,0,0-1.83.61,2.93,2.93,0,0,0-.62,2.12v5.22H49.52V8Z"/><path class="cls-8" d="M60.61,18a4.65,4.65,0,0,1-3.51-1.4,5.15,5.15,0,0,1-1.35-3.73A5.08,5.08,0,0,1,57.12,9.2a4.86,4.86,0,0,1,8.41,3.45,6.18,6.18,0,0,1-.07,1h-7.6a2.82,2.82,0,0,0,.84,2,2.67,2.67,0,0,0,1.92.73A2.41,2.41,0,0,0,63,14.93h2.21a4.45,4.45,0,0,1-1.64,2.24A4.82,4.82,0,0,1,60.61,18Zm2-7.79a2.74,2.74,0,0,0-1.93-.73,2.65,2.65,0,0,0-1.9.73,3,3,0,0,0-.87,2h5.51A2.58,2.58,0,0,0,62.57,10.26Z"/></g></g></svg>