<svg id="Layer_1" data-name="Layer 1" xmlns="http://www.w3.org/2000/svg" viewBox="0 0 43.63 63.75">
<defs>
    <style>.cls-1{fill:#c0de94;}.cls-2{fill:#1b4123;}</style>
</defs>
<title>one-half</title>
<rect class="cls-1" width="43.63" height="63.75" rx="6" ry="6"/>
<path class="cls-2" d="M19.37,27.85V9H16.93V6.55H22v21.3Z"/>
<path class="cls-2" d="M6.86,32.74V30H36.47v2.72Z"/>
<path class="cls-2"
      d="M13.92,57.29v-2l2.24-2q1.53-1.32,2.27-2t2-1.83a22.28,22.28,0,0,0,1.86-1.93q.64-.78,1.32-1.8A6.83,6.83,0,0,0,24.85,42a4.51,4.51,0,0,0-1-3,3.75,3.75,0,0,0-3-1.14,3.94,3.94,0,0,0-3.16,1.28,5.35,5.35,0,0,0-1.19,3.38H13.92a7.22,7.22,0,0,1,2-5.18,6.77,6.77,0,0,1,4.9-1.81,6.77,6.77,0,0,1,4.84,1.72A6.15,6.15,0,0,1,27.49,42q0,3.57-3.45,7.35-1.25,1.35-1.93,2Q20.22,53.15,18,55h10.1v2.31Z"/>
</svg>