<svg id="Layer_1" data-name="Layer 1" xmlns="http://www.w3.org/2000/svg" viewBox="0 0 682.14 306.99"><defs><style>.cls-1{fill:#b8b801;}.cls-2{fill:#5f5e01;}.cls-3{opacity:0.5;}.cls-4{fill:#838201;}.cls-5{opacity:0.3;}.cls-6{fill:#458787;}.cls-7{fill:#990;}.cls-8{fill:#3da33d;}.cls-9{fill:#70a8a8;}.cls-10{fill:#fff;}.cls-11{fill:#fc0;}.cls-12{fill:#595801;}.cls-13{fill:#f90;}.cls-14{fill:#747401;}.cls-15{fill:#3f3f01;}.cls-16{fill:#416967;}.cls-17{fill:#e8e802;}.cls-18{fill:#737201;}.cls-19{fill:#330;}.cls-20{fill:#89992f;}.cls-21{fill:#542e00;}.cls-22{fill:#3b0b00;}.cls-23{fill:#ffbf00;}.cls-24{fill:#99d800;}</style></defs><title>big-dragon</title><path class="cls-1" d="M463.34,88s-36.21,11.92-46,51.66c0,0-4.61,14,17.07,9.75,0,0,24.25-5.58,26.45-43.61Z"/><path class="cls-2" d="M427,150.43c-4,0-7-1-8.67-2.93-2.83-3.2-1.37-7.77-1.31-8a75.76,75.76,0,0,1,46.21-51.82l.38-.13-2.57,18.2c-.63,10.87-3.59,26-14.13,36.21-6.32,6.13-12.46,7.6-12.52,7.61A38.57,38.57,0,0,1,427,150.43Zm36-62.1c-3.91,1.44-36.35,14.39-45.5,51.35,0,.06-1.43,4.52,1.21,7.5s7.75,3.49,15.58,1.94c.05,0,6.08-1.46,12.3-7.5,10.4-10.11,13.33-25.09,14-35.88Z"/><path class="cls-1" d="M459.77,108.81c-8.16,23.82-8.83,40.63-7.67,51.17-.13.61-3.45,17.38,19.4,23.9h.24c.3-1.18,4-5.9,5.42-6.39-.3-1.17,10.56-7.9,11.38-8.78l1.85-8.43-18.45,1.23-2.37-.19.2-.3s-4.08-8.7,3.24-27,2.44-39.73,2.44-39.73c-4.83-11.23-15.58-5-15.58-5"/><path class="cls-2" d="M471.94,184.15l-.5,0c-22.7-6.47-19.82-23-19.59-24.15-1.1-10-.65-26.91,7.68-51.23l.47.16c-8.31,24.27-8.75,41.16-7.65,51.06V160c-.15.7-3.35,17.15,19.2,23.6h0c.57-1.43,3.84-5.57,5.36-6.3.25-.93,2.86-2.84,8.21-6.49,1.51-1,2.83-1.93,3.17-2.24l1.76-8L472,161.77l-2.83-.22.36-.54c-.5-1.19-3.59-9.86,3.29-27,7.21-18,2.47-39.36,2.43-39.58-1.37-3.17-3.37-5.23-5.95-6.08-4.48-1.48-9.21,1.22-9.26,1.25l-.25-.43c.2-.12,5-2.84,9.67-1.29,2.71.9,4.82,3.05,6.26,6.4.06.26,4.83,21.79-2.43,39.92-7.18,17.93-3.29,26.69-3.24,26.77l.06.13,0,.06,1.95.15L490.71,160l-1.93,8.82,0,.05a36.47,36.47,0,0,1-3.3,2.36c-2.6,1.77-8,5.44-8,6.19l.06.22-.22.06c-1.32.46-5,5.11-5.25,6.21Z"/><path class="cls-2" d="M469.46,119.57a51.29,51.29,0,0,1,1.18-7.5,23.43,23.43,0,0,0-11.51-.68l-.24,0q-1.46,4.46-2.57,8.58a33.24,33.24,0,0,1,13.06.19C469.41,120,469.45,119.78,469.46,119.57Z"/><path class="cls-2" d="M451.8,156.35a4.31,4.31,0,0,1,.46-.57A46.18,46.18,0,0,0,459.8,145q-2.53.09-5.11.33a4.06,4.06,0,0,1-2.77-.71A88.34,88.34,0,0,0,451.8,156.35Z"/><path class="cls-2" d="M463.42,137.31c.61-1.44,1.21-2.88,1.8-4.3.71-1.73,1.48-3.47,2.17-5.24a25.93,25.93,0,0,0-11.76.41,4,4,0,0,1-1.32.14c-.71,3.35-1.26,6.51-1.66,9.47l.35-.05A90.66,90.66,0,0,1,463.42,137.31Z"/><g class="cls-3"><path class="cls-4" d="M477.34,163.11a26.59,26.59,0,0,1,4.51,2.81l.31-.4c-1.3-1.53-2.67-3-4-4.29l-.12-.11-2.52.17c.23.53.47,1.06.69,1.6A2.74,2.74,0,0,1,477.34,163.11Z"/></g><g class="cls-3"><path class="cls-4" d="M455.2,173.46a21.19,21.19,0,0,0,4.09,4.4h0c-.2-.26-.4-.55-.59-.84Z"/></g><g class="cls-3"><path class="cls-4" d="M462.18,104c-5.68,1.14-10.9,6.28-15.08,10-9.47,8.48-17.46,18.45-27,26.86a3.6,3.6,0,0,1-3.2.91c-.25,3.77,1.33,10.72,17.46,7.53,0,0,10.92-2.52,18.77-15.67.75-3,1.53-6.08,2-9.2.34-2.25.77-4.49,1.17-6.73.14-.78,1-2.63,1-3.31-.16-2.11,2.14-3.83,4.07-3.74a72.55,72.55,0,0,1,9.35,1.07C470.6,106.8,467.69,102.93,462.18,104Z"/></g><g class="cls-3"><path class="cls-4" d="M452.26,141q-.2,1.83-.33,3.55c.28-.9.56-1.81.8-2.72A4.11,4.11,0,0,1,452.26,141Z"/></g><path class="cls-1" d="M470.93,183.57s6.47.12,10.4,4.09c0,0,7.59,5.56,9.84,10.86,0,0,4.11,4.05,3.63-3.51,0,0-5.77-13.84-18.91-17"/><path class="cls-2" d="M493.28,199.85A4,4,0,0,1,491,198.7l-.05-.08c-2.2-5.18-9.69-10.71-9.76-10.76-3.85-3.88-10.19-4-10.26-4v-.5c.27,0,6.62.17,10.58,4.16.28.2,7.6,5.6,9.88,10.9.42.39,1.53,1.24,2.27.9.52-.24,1.09-1.16.9-4.21-.35-.8-6.19-13.8-18.72-16.83l.12-.49c13.12,3.17,19,17,19.08,17.16l0,.08c.18,2.74-.21,4.29-1.19,4.74A1.39,1.39,0,0,1,493.28,199.85Z"/><path class="cls-1" d="M487.67,171.15s-.47,8-17.62,5.59a12.07,12.07,0,0,1,9.88-8.08l7.73-4S489.26,168.15,487.67,171.15Z"/><path class="cls-2" d="M475.87,177.43A42.8,42.8,0,0,1,470,177l-.29,0,.08-.28a12.42,12.42,0,0,1,10-8.25l7.93-4.08.11.24c.07.15,1.61,3.57,0,6.64a5.68,5.68,0,0,1-2.2,3.6C484.14,176.11,481.23,177.43,475.87,177.43Zm-5.49-.89c8.84,1.17,13-.49,15-2.1a5.15,5.15,0,0,0,2-3.3l0-.1a7.67,7.67,0,0,0,.08-6L480,168.92A11.88,11.88,0,0,0,470.38,176.54Z"/><path class="cls-1" d="M501.31,173.44s-8.19-1.17-12.94-4.15c0,0-2-6.47,3.92-6,0,0,10.94,3.93,12,7,0,0,7.11,1.66,11,5.82,0,0,5.08-.25,10.52,4.21,0,0,16,1.43,17.64,7.35,0,0,.66,2.48-4.49,1.66,0,0-12.83-2.87-14.35-4.6,0,0-5.93-1.69-9.54-5.35C515,179.31,510.61,181.43,501.31,173.44Z"/><path class="cls-2" d="M540.79,189.68a12.24,12.24,0,0,1-1.9-.17c-.54-.12-12.68-2.85-14.45-4.63-.66-.2-6-1.91-9.46-5.28-.91.31-5.37,1.27-13.78-5.92-.83-.13-8.46-1.35-13-4.18l-.08,0,0-.09c0-.13-1-3.28.49-5.12A4.06,4.06,0,0,1,492.3,163h.07c.44.16,10.77,3.9,12.09,7,1,.25,7.26,1.93,10.91,5.78.8,0,5.47.12,10.51,4.22,1.35.13,16.15,1.66,17.78,7.52a1.54,1.54,0,0,1-.36,1.36A3.29,3.29,0,0,1,540.79,189.68ZM515.09,179l.13.12c3.52,3.57,9.37,5.27,9.43,5.29l.07,0,0,.06c1.21,1.38,10.67,3.73,14.22,4.53,2.54.41,3.55,0,3.94-.45a1,1,0,0,0,.25-.9c-1.58-5.68-17.26-7.15-17.42-7.16h-.08l-.06,0c-5.3-4.33-10.3-4.16-10.35-4.15h-.12l-.08-.08c-3.78-4.06-10.79-5.73-10.86-5.74l-.13,0,0-.13c-1-2.82-11.15-6.57-11.8-6.8a3.57,3.57,0,0,0-3.23,1.05c-1.18,1.48-.57,4.06-.43,4.57,4.67,2.89,12.68,4.06,12.77,4.07h.07l.06,0c9,7.75,13.42,5.85,13.46,5.83Z"/><path class="cls-1" d="M460,171.21s4.28-9.46,10.18-9.65c0,0,3.65-3.41,9.61-1.29,0,0,1-4.66,8.1-2.61l.47,2.44a27.72,27.72,0,0,1,9.12,2.09s1.51-4.72,12.78-.9l9.86-4.12s6.32-.89,2.8,3.61c0,0-6.48,3.33-11.83,2.45,0,0-.51,4.83-15.1,1.61,0,0-5-.05-7-1.39"/><path class="cls-2" d="M460.18,171.32l-.46-.21c.18-.39,4.37-9.51,10.31-9.79a9.93,9.93,0,0,1,9.54-1.37,4.46,4.46,0,0,1,1.94-2.31c1.57-.92,3.72-1,6.39-.22l.15,0,.46,2.4a27.65,27.65,0,0,1,8.79,2A3.86,3.86,0,0,1,499,160.3c1.64-.83,4.92-1.37,11.17.74l9.84-4.11c.32,0,3.21-.41,4,.92.42.72.1,1.76-.94,3.09L523,161c-.26.14-6.44,3.27-11.75,2.51a2.89,2.89,0,0,1-1.11,1.39c-1.61,1.16-5.39,2.14-14.23.19-.14,0-5-.06-7.12-1.42l.27-.42c2,1.28,6.86,1.35,6.91,1.35,8.66,1.91,12.3,1,13.85-.08a2.14,2.14,0,0,0,1-1.31l0-.26.26,0c5,.82,11-2.11,11.62-2.41.86-1.11,1.16-2,.87-2.49-.5-.87-2.62-.79-3.44-.68l-9.92,4.15-.09,0c-6.15-2.09-9.31-1.59-10.88-.8a3,3,0,0,0-1.59,1.53l-.09.27-.26-.13a27.66,27.66,0,0,0-9-2.07h-.2l-.48-2.48c-2.47-.7-4.44-.62-5.85.21a3.9,3.9,0,0,0-1.79,2.25l-.06.28-.27-.09c-5.73-2-9.32,1.21-9.35,1.24l-.07.06h-.09C464.47,162,460.22,171.22,460.18,171.32Z"/><path class="cls-1" d="M488.41,159.1s7.34-5.35,9.13-8.32,5.55-2.38,4.42,2.46c0,0-5.7,8-11.84,10.57"/><path class="cls-2" d="M490.22,164l-.2-.46c5.78-2.46,11.26-9.84,11.7-10.45.53-2.31-.13-3.48-.93-3.8-1-.4-2.26.27-3,1.58-1.79,3-8.89,8.17-9.19,8.39l-.29-.4c.07-.05,7.32-5.35,9.06-8.25.92-1.52,2.46-2.27,3.66-1.78s1.74,2.18,1.21,4.43l0,.09C502.1,153.47,496.35,161.44,490.22,164Z"/><path class="cls-1" d="M482.51,158.67s-4.57,6.45-6,.57c0,0,1.83-4.41,4.4-4.63,0,0,2.76-7,6.42-6.89,0,0,3.13-8,7.27-7.87a12.51,12.51,0,0,1-5.47,9.91S486.52,158.5,482.51,158.67Z"/><path class="cls-2" d="M478.53,162a1.73,1.73,0,0,1-.33,0c-.91-.17-1.57-1.06-2-2.63l0-.08,0-.08c.08-.18,1.85-4.39,4.46-4.76.42-1,3-6.84,6.43-6.91.48-1.16,3.43-7.87,7.38-7.87h.3v.24a12.88,12.88,0,0,1-5.51,10.07c-.29.95-2.79,8.68-6.69,9C482.24,159.45,480.29,162,478.53,162Zm-1.77-2.7c.34,1.32.85,2,1.54,2.18,1.41.26,3.37-2,4-2.92l.07-.1h.12c3.79-.16,6.36-8.65,6.38-8.74l0-.08.07-.05a12.47,12.47,0,0,0,5.36-9.45c-3.8.24-6.75,7.63-6.78,7.71l-.06.16h-.27c-3.4,0-6.06,6.67-6.09,6.74l-.06.14h-.15C478.71,155,477,158.69,476.76,159.26Z"/><g class="cls-5"><path d="M543.41,187.6c-1.64-5.92-17.64-7.35-17.64-7.35-5.44-4.45-10.52-4.21-10.52-4.21-3.87-4.16-11-5.82-11-5.82-.61-1.77-4.57-3.84-7.78-5.26,14,3,14.54-1.73,14.54-1.73,5.34.88,11.83-2.45,11.83-2.45,3.52-4.49-2.8-3.61-2.8-3.61l-9.86,4.12c-11.27-3.82-12.78.9-12.78.9a17.47,17.47,0,0,0-2.94-1.08,44.65,44.65,0,0,0,7.48-7.88c1.14-4.84-2.63-5.43-4.42-2.46s-9.13,8.32-9.13,8.32l.38,1-.49,0-.47-2.44a12.58,12.58,0,0,0-2.58-.49c2.41-2.54,3.87-7.43,3.87-7.43a12.51,12.51,0,0,0,5.47-9.91c-4.14-.08-7.27,7.87-7.27,7.87-3.66-.13-6.42,6.89-6.42,6.89-2.57.22-4.4,4.63-4.4,4.63s.07.25.1.37a9.22,9.22,0,0,0-6.27,1.79l-.76-.06.2-.3s-4.08-8.7,3.24-27,2.44-39.73,2.44-39.73c-3.08-7.16-8.55-7.22-12.12-6.33V88l-.65.23a14.41,14.41,0,0,0-2.82,1.15h0c-9.29,4.12-34.6,18-42.58,50.28a10.33,10.33,0,0,0-.41,2.83c0,.06,0,.12,0,.18s0,.17,0,.25,0,.15,0,.23,0,.16,0,.24,0,.29.05.44,0,.12,0,.18,0,.21.06.32l0,.2c0,.11.06.23.09.34l0,.17c.05.16.11.33.18.49l.06.13q.08.19.18.38l.08.16q.11.19.23.39l.07.11q.16.24.35.48l.08.1.34.37.13.13q.2.19.42.36l.08.07q.27.21.58.4l.13.08.53.29.19.09c.21.1.43.19.66.28l.1,0c.27.1.55.19.85.27l.21.05.74.17.27.05c.3.05.62.1.95.14h.1c.37,0,.75.07,1.15.09h1.66c.42,0,.85,0,1.3-.05H429c.48,0,1-.08,1.5-.14l.44-.05,1.22-.17.49-.08c.57-.09,1.15-.19,1.76-.31h.09l.11,0,.14,0,.18-.05.17-.05.18-.06.39-.13.19-.07.32-.12.17-.07.75-.31.09,0,.47-.21.13-.06c.52-.24,1.08-.52,1.68-.85l.09-.05q.93-.51,2-1.17l.08,0q1-.68,2.15-1.52l.09-.07q1.1-.85,2.23-1.89l.14-.13q1.11-1,2.22-2.25l.2-.22q1.08-1.21,2.13-2.61l.27-.37c.46-.63.91-1.28,1.36-2l0,0c.2-.3.39-.62.58-.94l.16-.26v0l.21-.35q-.2,1.14-.37,2.25c-.09.56-.16,1.1-.24,1.64,0,.19-.06.39-.08.57h0q-.22,1.64-.39,3.2h0c0,.21,0,.42-.06.63-.05.53-.11,1-.15,1.56s-.08.92-.11,1.36v.13h0c0,.07,0,.12,0,.19q-.11,1.47-.16,2.87c0,.06,0,.13,0,.2-.08,2.06-.09,4,0,5.8v0c0,.86.06,1.69.1,2.49,0,0,0,.07,0,.11h0c.08,1.28.17,2.5.3,3.63-.13.61-3.45,17.38,19.4,23.9h.24a1.67,1.67,0,0,1,.09-.26c1.91.19,6.45,1,9.49,4,0,0,7.59,5.56,9.84,10.86,0,0,4.11,4.05,3.63-3.51,0,0-5.66-13.57-18.54-16.91a3.28,3.28,0,0,1,.9-.59.5.5,0,0,1,.11-.35c10.05-.46,10.39-6,10.39-6a6,6,0,0,0,.64-2.06l.05.2c4.76,3,12.94,4.15,12.94,4.15,9.31,8,13.73,5.86,13.73,5.86,3.61,3.66,9.54,5.35,9.54,5.35,1.52,1.74,14.35,4.6,14.35,4.6C544.08,190.08,543.41,187.6,543.41,187.6Z"/></g><path class="cls-1" d="M643.18,153.58s-7.48,2-13.7-1.07c0,0,5.41-3.41,10.53-4.35,0,0,.73,1.77,3.32.2s-.87-4.78-2-4.92-7.72,2.27-10.38,3.24-8.73,3-8.88,2-1.36-3.09,2-5.36l1.22-.81s.62,4.79,2.84,2.78-.49-4.09-1.69-5.09-5.6-1.75-9.86,3.72a11.61,11.61,0,0,0-9.33-1.07s-1.66-.76-3.68-1.74c-15.25-10.4-38.78-16.54-38.78-16.54,2.2-11.68-.73-32.29-.73-32.29-6.5-16.65-14.14-10.41-14.14-10.41-17.1,4.95.66,40,.66,40-4.32,11.78,3.35,16.76,3.35,16.76,9.75,8.93,40.54,14,40.54,14s-.72-.49.78-.56a1.06,1.06,0,0,0,.3-.08s3,4.81,5.19,6.51,7.74,1,7.74,1,3.57,3.31,5.59,5.09c0,0,5,8,6.18,7.67s9.13.28-5.54-14.75c0,0,8,1.32,10.66,4.31a7,7,0,0,1,3.42,3.35,27.09,27.09,0,0,0,7.4,3.57l3.3,3.16a9.43,9.43,0,0,1,3.31,3.16s4.4,1.9,3-4.5c0,0-5.91-7.35-12.56-8.9a10.76,10.76,0,0,1-3.55-3.35,31.4,31.4,0,0,0,12.83.21s2-.25,2.41-1c0,0,1.25-.06,3.39,3.76,0,0,4.81,3.09,3.24-3.61C651.55,157.75,649,151.5,643.18,153.58Z"/><path class="cls-2" d="M644.08,175.64a3.91,3.91,0,0,1-1.4-.29l-.08,0,0-.07a9.23,9.23,0,0,0-3.21-3.06l-.05,0L636,169a27.14,27.14,0,0,1-7.41-3.59l-.08-.09a6.78,6.78,0,0,0-3.28-3.23l-.1-.07c-2.12-2.35-7.69-3.66-9.74-4.08,6.24,6.47,8.91,10.69,8.15,12.89-.46,1.32-2,1.53-2.84,1.64a3.87,3.87,0,0,0-.43.07c-1.26.33-5.22-5.8-6.44-7.75-1.83-1.61-4.93-4.48-5.48-5-.84.1-5.75.59-7.81-1s-4.57-5.54-5.14-6.41l-.18,0a2.37,2.37,0,0,0-.67.1h0l.93.64-1.11-.19c-.31-.05-31-5.23-40.66-14.1a10.92,10.92,0,0,1-3.35-4c-1.27-2.51-2.32-6.78-.1-12.9-.94-1.87-11.65-23.71-6.86-34.73a9.54,9.54,0,0,1,6.35-5.54,6.22,6.22,0,0,1,5.23-1c3.53.93,6.65,4.8,9.26,11.51,0,.26,2.89,20.57.79,32.2,2.45.66,24.32,6.74,38.63,16.51,1.7.82,3.19,1.51,3.56,1.68a11.81,11.81,0,0,1,9.26,1c2.58-3.23,5.09-4.13,6.76-4.31a4.63,4.63,0,0,1,3.32.72l.14.12c.92.76,2.45,2,2.48,3.47a2.45,2.45,0,0,1-.93,1.88,1.53,1.53,0,0,1-1.57.49c-1-.38-1.47-2.19-1.62-3l-.89.59c-2.75,1.85-2.28,3.59-2,4.63,0,.18.09.34.11.48.39.35,4.31-.65,8.55-2.21s9.45-3.4,10.5-3.26a5.12,5.12,0,0,1,3.09,3.24,1.91,1.91,0,0,1-1,2.15,3.25,3.25,0,0,1-2.64.59,1.76,1.76,0,0,1-.94-.73,35,35,0,0,0-9.88,4c5.87,2.66,12.8.93,13.1.86,5.92-2.12,8.65,4.25,8.68,4.32.56,2.37.41,3.8-.43,4.39-1.15.82-3.1-.42-3.18-.47l-.08-.09c-1.63-2.92-2.72-3.49-3.05-3.6a4.8,4.8,0,0,1-2.5.94,32.82,32.82,0,0,1-12.3-.07,10.9,10.9,0,0,0,3.07,2.73c6.64,1.57,12.42,8.67,12.66,9l0,.1c.51,2.34.32,3.89-.56,4.62A2.12,2.12,0,0,1,644.08,175.64Zm-1.13-.72a2.41,2.41,0,0,0,2.19-.12c.71-.59.85-2,.41-4.07-.51-.62-6.17-7.32-12.38-8.77l-.06,0a10.9,10.9,0,0,1-3.64-3.44l-.34-.54.61.17a31.47,31.47,0,0,0,12.72.21c.76-.09,2-.4,2.24-.83l.07-.13h.15c.15,0,1.46.05,3.58,3.83.53.32,1.87.95,2.57.45s.72-1.78.24-3.83c-.09-.21-2.56-6-8-4h0c-.08,0-7.64,2-13.87-1.09l-.4-.2.38-.24c.05,0,5.51-3.45,10.62-4.39l.2,0,.08.19a1.24,1.24,0,0,0,.74.63,2.86,2.86,0,0,0,2.22-.55,1.42,1.42,0,0,0,.78-1.62,4.66,4.66,0,0,0-2.67-2.85c-.71-.09-4.16,1-10.27,3.23-.8.29-7.81,2.84-9,2.15a.46.46,0,0,1-.24-.33c0-.12-.06-.27-.1-.43-.29-1.09-.84-3.12,2.21-5.18l1.55-1,.05.4c.1.73.53,2.71,1.36,3,.3.11.66,0,1.06-.39a2,2,0,0,0,.76-1.5c0-1.22-1.45-2.39-2.3-3.09l-.15-.12a4.21,4.21,0,0,0-2.95-.61c-1.6.17-4,1.06-6.56,4.29l-.14.18-.19-.13a11.46,11.46,0,0,0-9.12-1l-.09,0-.09,0s-1.69-.78-3.68-1.74c-15.07-10.28-38.5-16.46-38.74-16.52l-.23-.06,0-.23c2.16-11.5-.71-32-.74-32.21-2.5-6.4-5.58-10.27-8.9-11.15a5.78,5.78,0,0,0-4.83.9l-.09,0a9.07,9.07,0,0,0-6.08,5.27c-2.5,5.76-.5,14.8,1.62,21.36a101.71,101.71,0,0,0,5.28,13l0,.1,0,.1c-2.2,6-1.19,10.16,0,12.6a10.63,10.63,0,0,0,3.21,3.87c9,8.21,36.12,13.24,40,13.92v0c.08-.29.43-.43,1.18-.46a.81.81,0,0,0,.22-.06l.19-.07.11.17c.13.2,3.06,4.81,5.13,6.45s7.5.93,7.55.93l.12,0,.09.08s3.59,3.33,5.58,5.09l0,.06c2.65,4.25,5.36,7.68,5.9,7.56a4.43,4.43,0,0,1,.49-.08c.78-.1,2.08-.28,2.44-1.31.48-1.4-.61-4.78-8.58-12.94l-.53-.55.75.13c.33.05,8,1.36,10.76,4.34a7.24,7.24,0,0,1,3.47,3.39,26.67,26.67,0,0,0,7.26,3.49l.07,0,3.33,3.18A9.61,9.61,0,0,1,643,174.92Z"/><g class="cls-3"><path class="cls-4" d="M651.75,159.25c-3.24-2.79-9.74-4-14-4.77a4.54,4.54,0,0,1-2.93-.43,18.08,18.08,0,0,1-3.23-.69,44.87,44.87,0,0,1-8-2.24,38.35,38.35,0,0,0-15.27-2.57c-2.64,0-5.15.38-7.35-.44a4.48,4.48,0,0,1-1.26,1.08,5.26,5.26,0,0,1-.46.36,4.72,4.72,0,0,1-1,.77h0a5.72,5.72,0,0,1-.47.33,4.83,4.83,0,0,1-.87.62l-.12.06a5,5,0,0,1-.55.36,4.94,4.94,0,0,1-.77.35l0,0s3,4.81,5.19,6.51,7.74,1,7.74,1,3.57,3.31,5.59,5.09c0,0,5,8,6.18,7.67s9.13.28-5.54-14.75c0,0,8,1.32,10.66,4.31a7,7,0,0,1,3.42,3.35,27.09,27.09,0,0,0,7.4,3.57l3.3,3.16a9.43,9.43,0,0,1,3.31,3.16s4.4,1.9,3-4.5c0,0-5.91-7.35-12.56-8.9a10.76,10.76,0,0,1-3.55-3.35,31.4,31.4,0,0,0,12.83.21s2-.25,2.41-1c0,0,1.25-.06,3.39,3.76,0,0,4,2.56,3.51-2.06Z"/></g><g class="cls-3"><path class="cls-4" d="M589.81,139.81c-8.46-6.35-18.58-13.28-29.7-11.69H560a1.91,1.91,0,0,1-2.43-.73,2.26,2.26,0,0,1-.73-2.15,1.78,1.78,0,0,1,.53-1.26,1.65,1.65,0,0,1,.37-1.41c2-2.59,1.5-7.89,1.56-11a53.6,53.6,0,0,0-1.57-13C556.43,92.74,556,86.81,555,81a6,6,0,0,0-5.1.93c-17.1,4.95.66,40,.66,40-4.32,11.78,3.35,16.76,3.35,16.76,9.75,8.93,40.54,14,40.54,14s-.72-.49.78-.56c.67,0,3-1.76,5.47-3.66C597.18,145.48,593.53,142.6,589.81,139.81Z"/></g><g class="cls-5"><path d="M651.48,161.58a1.59,1.59,0,0,0,.11-.21,1.63,1.63,0,0,0,.09-.18,2.54,2.54,0,0,0,.07-.27c0-.08,0-.16.06-.26s0-.22,0-.34,0-.22,0-.34,0-.27,0-.42,0-.16,0-.25h0a12,12,0,0,0-.26-1.54s-2.6-6.25-8.37-4.18a24.48,24.48,0,0,1-8.34.47h0a18.09,18.09,0,0,1-3.23-.69h0a15,15,0,0,1-2.13-.84s5.41-3.41,10.53-4.35c0,0,.73,1.77,3.32.2s-.87-4.78-2-4.92-7.72,2.27-10.38,3.24-8.73,3-8.88,2-1.36-3.09,2-5.36l1.22-.81s.62,4.79,2.84,2.78-.49-4.09-1.69-5.09-5.6-1.75-9.86,3.72a11.61,11.61,0,0,0-9.33-1.07s-1.66-.76-3.68-1.74c-15.25-10.4-38.78-16.54-38.78-16.54,2.2-11.68-.73-32.29-.73-32.29C561,84.44,557.68,81.68,555,81h0a6.05,6.05,0,0,0-1-.19h-.05a5.87,5.87,0,0,0-.92,0h-.06a6,6,0,0,0-.8.13h-.06a6.18,6.18,0,0,0-.68.21l-.05,0c-.21.08-.39.16-.56.24l0,0-.42.23h0l-.27.18h0l-.09.07c-17.1,4.95.66,40,.66,40-4.32,11.78,3.35,16.76,3.35,16.76,9.75,8.93,40.54,14,40.54,14s-.72-.49.78-.56a1.06,1.06,0,0,0,.3-.08s.3.47.77,1.17l.14.21.16.24.2.29.14.2.26.36.11.16.22.3.17.24.16.21.26.34.24.3.19.24.43.52h0a16.5,16.5,0,0,0,1.15,1.23c.19.18.38.36.57.5,2.15,1.71,7.74,1,7.74,1s3.57,3.31,5.59,5.09c0,0,5,8,6.18,7.67s9.13.28-5.54-14.75c0,0,8,1.32,10.66,4.31a7,7,0,0,1,3.42,3.35,27.08,27.08,0,0,0,7.4,3.57l3.3,3.16a9.42,9.42,0,0,1,3.31,3.16s4.4,1.9,3-4.5c0,0-5.91-7.35-12.56-8.9a10.75,10.75,0,0,1-3.55-3.35,31.4,31.4,0,0,0,12.83.21s2-.25,2.41-1c0,0,1.25-.06,3.39,3.76l0,0,0,0,.09.05.09,0,.12.06.13.06.14.07.16.07.16.06.18.06.16,0,.2.05.16,0,.21,0h.37l.15,0,.2,0,.12-.06a1.16,1.16,0,0,0,.39-.3Z"/></g><path class="cls-6" d="M548.44,54.73s-4.67-7.67-9-7.67-.83,1.5-.83,1.5,5.33,5,4.25,7.83C542.86,56.39,547.94,56.89,548.44,54.73Z"/><path class="cls-2" d="M544.07,56.7c-.68,0-1.17,0-1.24-.05l-.33,0,.12-.31c1-2.54-3.73-7.12-4.16-7.53-.6-.26-1.55-.77-1.44-1.31s.79-.65,2.41-.65c4.42,0,9,7.47,9.21,7.79l.05.09,0,.1C548.3,56.44,545.68,56.7,544.07,56.7Zm-.89-.53c1.49.1,4.53,0,5-1.4-.54-.86-4.84-7.46-8.73-7.46-1.73,0-1.92.25-1.92.26a3.18,3.18,0,0,0,1.19.76l.07,0C539,48.58,543.86,53.19,543.18,56.17Z"/><path class="cls-6" d="M542.32,55.48s-5.5-7.12-10.25-7.5c0,0,4.63,5,3.88,9.13C535.94,57.1,541.94,59.35,542.32,55.48Z"/><path class="cls-2" d="M539.33,58a11.27,11.27,0,0,1-3.47-.67l-.2-.07,0-.21c.72-4-3.77-8.86-3.81-8.91l-.43-.47.64.05c4.81.38,10.2,7.3,10.43,7.6l.06.08v.1a2.51,2.51,0,0,1-1.15,2A4,4,0,0,1,539.33,58Zm-3.1-1.07c.75.25,3.48,1.06,4.93.15a2,2,0,0,0,.9-1.53c-.59-.74-5.2-6.38-9.36-7.23C533.83,49.69,536.7,53.52,536.22,56.94Z"/><path class="cls-6" d="M534.82,56.73s-3.37-6.37-9.75-8c0,0,4.75,7.5,2.88,9.5C527.94,58.23,534.32,58.1,534.82,56.73Z"/><path class="cls-2" d="M527.35,58.49l.41-.43c1.43-1.52-1.61-7.15-2.9-9.2l-.34-.53.61.16c6.41,1.63,9.88,8.06,9.91,8.13l.05.1,0,.1c-.53,1.46-6,1.64-7.1,1.66Zm-1.74-9.35c1,1.74,3.8,6.67,2.8,8.82,2.44-.09,5.62-.5,6.12-1.23C534.07,55.92,531,50.82,525.61,49.14Z"/><path class="cls-6" d="M527.63,58.81s-4.5-6.62-12-9.12c0,0,4.5,7.63,4.88,10.75C520.5,60.44,527.13,59.94,527.63,58.81Z"/><path class="cls-2" d="M520.28,60.7l0-.24c-.36-3-4.8-10.58-4.84-10.65l-.34-.58.63.21c7.49,2.5,12.08,9.15,12.13,9.22l.08.12-.06.13c-.53,1.2-6.2,1.69-7.33,1.77Zm-4.1-10.56c1,1.81,4.07,7.27,4.53,10,2.53-.21,6-.74,6.61-1.35A26.39,26.39,0,0,0,516.18,50.15Z"/><path class="cls-6" d="M520.27,59.92a16.43,16.43,0,0,0-12.58-9.42s-1.67-.25-1.08.92c0,0,5.92,5.08,5,9.83Z"/><path class="cls-2" d="M511.29,61.56l.07-.35c.88-4.55-4.86-9.55-4.92-9.6l-.06-.08a.87.87,0,0,1,0-.94c.34-.46,1.2-.36,1.37-.33a16.83,16.83,0,0,1,12.78,9.58l.11.29Zm-4.48-10.29c.55.48,5.68,5.12,5.1,9.69l8-1.23a16.43,16.43,0,0,0-12.27-9c-.28,0-.77,0-.89.14S506.76,51.15,506.81,51.27Z"/><path class="cls-6" d="M510.77,61.81s-3.25-6.67-10.25-7.75c0,0-1.25-.17-.58.83,0,0,4.83,4.83,3.83,8.17Z"/><path class="cls-2" d="M503.42,63.38l.12-.39c.95-3.15-3.72-7.87-3.77-7.92-.28-.41-.33-.72-.19-1s.86-.32,1-.3C507.61,54.91,511,61.63,511,61.7l.15.3Zm-3.07-9.08c-.16,0-.32,0-.35.08s0,.13.15.38,4.55,4.59,4,8l6.29-1.12c-.73-1.29-4-6.4-9.9-7.32Z"/><path class="cls-6" d="M503.52,62.79s-6.42-7-12.5-7.67c0,0-1.33-.17-.83,1.25a21.14,21.14,0,0,1,5.33,8.75Z"/><path class="cls-2" d="M495.35,65.43l-.07-.24A21.07,21.07,0,0,0,490,56.56l-.07-.1a1.24,1.24,0,0,1,.06-1.23,1.22,1.22,0,0,1,1-.35c6.1.67,12.39,7.46,12.65,7.75l.27.3Zm-4.95-9.2a21.7,21.7,0,0,1,5.28,8.58l7.37-2.15c-1.3-1.33-6.85-6.72-12.06-7.29a.73.73,0,0,0-.59.17A.81.81,0,0,0,490.4,56.23Z"/><path class="cls-6" d="M495.11,64.56s-6.67-9.83-14.5-8.58c0,0-1,.5,0,1.33,0,0,6.42,3.92,6.33,9.17C486.94,66.48,494.69,65.23,495.11,64.56Z"/><path class="cls-2" d="M486.69,66.77v-.3c.08-5-6.15-8.91-6.21-8.95a1.19,1.19,0,0,1-.56-1,1.07,1.07,0,0,1,.58-.75l.07,0c3.28-.52,6.87.82,10.39,3.88a28.28,28.28,0,0,1,4.36,4.81l.09.13-.09.14c-.43.69-6,1.65-8.34,2Zm-6-10.55a.56.56,0,0,0-.28.35c0,.2.18.41.35.55S487,61,487.19,66.18a46.63,46.63,0,0,0,7.58-1.67C493.79,63.17,487.67,55.15,480.69,56.22Z"/><path class="cls-6" d="M487.11,66.81s-4.75-7.83-14.33-8.58c0,0-.92-.08-.33,1,0,0,5.75,6.58,5.42,10.08Z"/><path class="cls-2" d="M477.57,69.65l0-.36c.32-3.35-5.3-9.83-5.36-9.9-.28-.51-.32-.87-.15-1.12a.78.78,0,0,1,.7-.29c9.6.75,14.48,8.62,14.52,8.7l.17.28Zm-4.84-11.17c-.07,0-.18,0-.22.07s0,.25.15.56,5.43,6.25,5.46,9.87l8.59-2.32c-1-1.4-5.64-7.53-14-8.18Z"/><path class="cls-6" d="M477.61,69.06s-6.33-9.17-14.75-9.83c0,0-1.08-.08-.5,1.67,0,0,6.58,6.67,6.5,10.75l8.25-2.33Z"/><path class="cls-2" d="M468.6,72v-.34c.08-3.93-6.36-10.5-6.43-10.57l-.06-.1a1.8,1.8,0,0,1,0-1.67.88.88,0,0,1,.73-.33c8.44.67,14.87,9.85,14.94,9.94l.16.24-.76.38Zm-6-11.22c.6.61,6.29,6.54,6.52,10.55L477,69.07l.19-.1c-1.05-1.42-6.94-8.9-14.4-9.49a.38.38,0,0,0-.3.14C462.45,59.73,462.34,60,462.58,60.76Z"/><path class="cls-6" d="M468.44,71.89s-6.67-8.67-13.83-8.5c0,0-1.17-.33-.33.83,0,0,5.5,5.5,5.58,10.5C459.86,74.73,467.61,73.39,468.44,71.89Z"/><path class="cls-2" d="M459.61,75v-.29c-.08-4.84-5.46-10.27-5.51-10.33-.25-.34-.51-.78-.29-1.09s.67-.21.83-.17h.18c7.13,0,13.55,8.25,13.82,8.6l.1.13-.08.14c-.87,1.56-8,2.82-8.76,3Zm-5.4-11.41a2.18,2.18,0,0,0,.27.47c.2.19,5.34,5.39,5.62,10.35,2.94-.52,7.18-1.57,8-2.53-.9-1.11-6.94-8.26-13.32-8.26h-.27A.77.77,0,0,0,454.21,63.61Z"/><path class="cls-6" d="M458.27,74.39s-.12-.17-.34-.46c-1.27-1.64-5.95-7.07-11.82-6.79,0,0-1.25.08-.5,1.42,0,0,5.42,4.17,5.42,8Z"/><path class="cls-2" d="M450.77,76.9v-.34c0-3.67-5.27-7.76-5.32-7.8l-.07-.08a1.32,1.32,0,0,1-.17-1.28,1.14,1.14,0,0,1,.87-.51c6-.28,10.73,5.2,12,6.88.23.3.35.47.35.47l.2.28Zm-5-8.5c.53.42,5.19,4.16,5.46,7.83l6.6-2-.13-.17c-1.27-1.64-5.9-7-11.61-6.69h0s-.35,0-.46.25S445.62,68.06,445.8,68.4Z"/><path class="cls-6" d="M450.52,76.64s-5.58-8.42-12.58-6.42c0,0-1,.33-.08,1.33,0,0,5.17,3.25,4.75,7.33C442.61,78.89,449.86,79.23,450.52,76.64Z"/><path class="cls-2" d="M443.43,79.16l-.84,0h-.26l0-.26c.4-3.88-4.58-7.06-4.63-7.1l-.05,0a1.24,1.24,0,0,1-.43-1.12,1,1,0,0,1,.62-.62c7.11-2,12.81,6.43,12.87,6.52l.06.09,0,.11C450.19,78.93,445.41,79.16,443.43,79.16Zm-.56-.51c2.07.06,6.74-.19,7.37-2-.64-.92-5.9-8-12.24-6.22h0s-.24.09-.28.27.06.38.29.63C438.48,71.66,443.06,74.71,442.88,78.65Z"/><path class="cls-6" d="M441,79.39a11.59,11.59,0,0,0-10.75-6s4.92,3.83,4.08,8.25C434.36,81.64,440.19,81.39,441,79.39Z"/><path class="cls-2" d="M434.05,81.91l.06-.31c.79-4.21-3.94-8-4-8l-.54-.42.69,0a12,12,0,0,1,11,6.14l0,.1,0,.1c-.88,2.12-6.64,2.39-6.89,2.4Zm-3.11-8.27c1.23,1.12,4.18,4.19,3.71,7.74,1.72-.11,5.36-.62,6.09-2A11.43,11.43,0,0,0,430.95,73.64Z"/><path class="cls-6" d="M433.61,82.31A15.48,15.48,0,0,0,420.77,76s-.92,0-.33,1.08c0,0,3,7.33,6.49,8.5C426.93,85.56,433,84.48,433.61,82.31Z"/><path class="cls-2" d="M426.91,85.82l-.06,0c-3.58-1.19-6.52-8.34-6.64-8.64a1.08,1.08,0,0,1-.12-1.07.82.82,0,0,1,.68-.35,15.91,15.91,0,0,1,13,6.45l.06.09,0,.11c-.62,2.29-6.62,3.39-6.88,3.43Zm-5.67-9.6h-.46c-.06,0-.21,0-.26.11s0,.33.14.6c0,.1,2.95,7.18,6.29,8.36,1.66-.3,5.79-1.38,6.38-3A15.37,15.37,0,0,0,421.24,76.22Z"/><path class="cls-6" d="M426.27,86.06s-5.08-6.42-12.42-5.92c0,0,5.67,5.25,6.21,9.42C420.07,89.56,426,88.39,426.27,86.06Z"/><path class="cls-2" d="M419.85,89.86l0-.26c-.52-4-6.07-9.21-6.13-9.27l-.42-.39.58,0c7.38-.5,12.58,5.95,12.63,6l.06.08v.1c-.27,2.49-6.16,3.67-6.41,3.72Zm-5.4-9.49c1.31,1.29,5.2,5.37,5.82,8.89,1.72-.37,5.42-1.51,5.74-3.13-.6-.71-5.09-5.77-11.35-5.77Z"/><path class="cls-6" d="M417.86,89.06s-5.08-5.25-10.17-2.92c0,0-.42.74,0,1.16,0,0,4.06,1.42,5,4.51C412.68,91.81,417.27,91.64,417.86,89.06Z"/><path class="cls-2" d="M412.5,92.07l-.06-.19c-.88-2.93-4.79-4.33-4.83-4.34l-.1-.06c-.54-.55-.06-1.42,0-1.46l0-.07.07,0c5.19-2.38,10.4,2.92,10.45,3l.09.1,0,.13c-.62,2.74-5.21,2.94-5.41,2.94Zm-4.66-5c.54.2,4,1.59,5,4.46.83-.06,4.14-.44,4.72-2.41-.72-.69-5.24-4.78-9.7-2.8C407.81,86.49,407.67,86.86,407.84,87.09Z"/><path class="cls-6" d="M411.15,92.73s-1.25-4.08-9.33-3.17c0,0-1.17.53-.17,1.1,0,0,4.1,1.4,4.55,4.82C406.2,95.48,410.9,95,411.15,92.73Z"/><path class="cls-2" d="M406,95.75l0-.24c-.43-3.23-4.34-4.6-4.38-4.61-.41-.23-.59-.47-.57-.75,0-.47.6-.76.72-.81l.08,0c8.2-.93,9.55,3.17,9.6,3.34l0,0v.05c-.27,2.42-5,2.95-5.17,3Zm-4.09-5.95c-.17.09-.39.25-.39.37s.07.15.28.27,4,1.4,4.63,4.75c.92-.13,4.23-.73,4.49-2.44C410.72,92.32,409.14,89,401.89,89.8Z"/><path class="cls-6" d="M405.27,95.89s-1.92-4-10.08-3.33c0,0-.75.25,0,.75,0,0,4.58,2.67,5.25,4.83C400.44,98.14,404.36,98.14,405.27,95.89Z"/><path class="cls-2" d="M400.44,98.39h-.18l-.05-.18c-.63-2.05-5.09-4.67-5.14-4.69-.34-.22-.49-.46-.45-.7s.45-.49.5-.51c8.3-.68,10.31,3.29,10.39,3.46l0,.1,0,.1C404.54,98.37,400.61,98.39,400.44,98.39Zm-5.33-5.49a.74.74,0,0,0,.22.2c.17.1,4.42,2.59,5.29,4.79.74,0,3.57-.27,4.38-2-.36-.59-2.62-3.68-9.78-3.1,0,0-.09.06-.1.09Z"/><path class="cls-6" d="M399.73,99.19s-4.33-4.25-8.92-3c0,0,5.33,3.25,4.46,6.08Z"/><path class="cls-2" d="M394.82,102.89l.21-.69c.81-2.62-4.3-5.76-4.35-5.8l-.5-.3.56-.15c4.67-1.27,9,2.89,9.16,3.06l.22.21Zm-3.37-6.59c1.23.84,4.27,3.14,4.17,5.43l3.71-2.57C398.44,98.38,395.05,95.68,391.45,96.3Z"/><path class="cls-6" d="M388.41,105.5s-3.88-4.67-8.56-3.89c0,0,5,3.78,3.82,6.51Z"/><path class="cls-2" d="M383.15,108.68l.28-.67c1.07-2.52-3.69-6.17-3.74-6.21l-.46-.35.57-.09c4.77-.79,8.64,3.78,8.8,4l.19.23Zm-2.68-6.89c1.14,1,3.92,3.56,3.59,5.82l4-2.18C387.21,104.56,384.12,101.53,380.46,101.78Z"/><path class="cls-6" d="M394.1,102.5s-1.93-3.28-7.06-4.39c0,0,3.57,5.35,2.17,7.31C389.2,105.42,393.88,103.65,394.1,102.5Z"/><path class="cls-2" d="M388.52,105.94l.48-.67c1.07-1.49-1.2-5.57-2.17-7l-.34-.51.6.13c5.18,1.12,7.15,4.37,7.23,4.51l0,.08,0,.09c-.24,1.22-4.25,2.8-5.06,3.1Zm-.94-7.45c.78,1.28,2.62,4.56,2.11,6.46,1.74-.71,3.86-1.78,4.14-2.42A10.85,10.85,0,0,0,387.58,98.5Z"/><path class="cls-6" d="M382.41,107.75s-3.49-3.88-7.94-2.94c0,0-1.14.16-.32,1,0,0,3.77,2.28,3.7,4.78C377.84,110.63,381.68,110.15,382.41,107.75Z"/><path class="cls-2" d="M377.58,110.91v-.29c.07-2.33-3.54-4.53-3.58-4.56l-.05,0a.92.92,0,0,1-.33-.93c.15-.43.73-.52.8-.53,4.52-1,8,2.85,8.16,3l.09.1,0,.14c-.77,2.52-4.61,3-4.77,3Zm-3.28-5.26c.38.23,3.58,2.28,3.78,4.68.84-.16,3.39-.77,4-2.52-.59-.6-3.75-3.57-7.6-2.76-.16,0-.38.11-.41.2S374.13,105.46,374.31,105.66Z"/><path class="cls-6" d="M375.84,111.64s-3-4.83-8.42-3c0,0-1,.83,0,1.29,0,0,4.08.62,4.42,3.46C371.84,113.39,375.26,114.39,375.84,111.64Z"/><path class="cls-2" d="M373.19,113.82a5.51,5.51,0,0,1-1.42-.19l-.16,0,0-.16c-.31-2.61-4.17-3.23-4.21-3.24l-.07,0a.88.88,0,0,1-.58-.67,1.36,1.36,0,0,1,.53-1l.08,0c5.54-1.87,8.68,3.06,8.71,3.1l.05.09,0,.1a2.49,2.49,0,0,1-1.15,1.7A3.41,3.41,0,0,1,373.19,113.82Zm-1.12-.63a3.88,3.88,0,0,0,2.61-.22,2,2,0,0,0,.89-1.28,7,7,0,0,0-8-2.83c-.13.12-.35.38-.32.56s.1.19.27.27C367.94,109.76,371.6,110.46,372.07,113.19Z"/><path class="cls-6" d="M370.44,113.76a5.74,5.74,0,0,0-5.75-2.42s2.17,2.25,2.25,4.5C366.94,115.84,370.19,116.34,370.44,113.76Z"/><path class="cls-2" d="M367.57,116.13a4.67,4.67,0,0,1-.66,0l-.2,0v-.21c-.08-2.13-2.16-4.31-2.18-4.34l-.33-.34.46-.08a6,6,0,0,1,6,2.53l0,.07v.08a2.35,2.35,0,0,1-.89,1.71A3.71,3.71,0,0,1,367.57,116.13Zm-.39-.52a3.57,3.57,0,0,0,2.32-.52,1.84,1.84,0,0,0,.68-1.27,5.44,5.44,0,0,0-5-2.29A8.24,8.24,0,0,1,367.18,115.62Z"/><path class="cls-6" d="M365.51,115.62s-2.58-4.25-6.25-2.5c0,0,1.92,2.5,2.08,4C361.34,117.12,365.09,117.54,365.51,115.62Z"/><path class="cls-2" d="M362.18,117.41a8.6,8.6,0,0,1-.87,0l-.2,0,0-.2c-.16-1.41-2-3.85-2-3.87l-.19-.25.28-.13c3.83-1.83,6.54,2.55,6.57,2.6l.05.09,0,.1C365.43,117.19,363.38,117.41,362.18,117.41Zm-.62-.52c.72,0,3.27.12,3.68-1.22-.38-.58-2.56-3.65-5.59-2.44A11.69,11.69,0,0,1,361.56,116.89Z"/><path class="cls-7" d="M550.82,54.61s-112,14-156.33,47.67c0,0-25.33,13.33-36.33,14.67l33.91,39.15a4.73,4.73,0,0,0,2,2.85,1.3,1.3,0,0,0,.69.26l.06.07-.05-.07a1.92,1.92,0,0,0,.72-.2c.86-.35,1.73-.69,2.6-1a8.92,8.92,0,0,1,2.37-.86l.92-.33c2.92-1,5.88-1.91,8.87-2.73a28.69,28.69,0,0,1,5.68-1.45c3.16-.72,6.35-1.33,9.55-1.78a81,81,0,0,1,14.76-.81,48.81,48.81,0,0,1,14.26,2.59s99.67-4,124.33-45.5C578.82,107.11,584.82,62.28,550.82,54.61Z"/><path class="cls-7" d="M397.26,149.48a37.24,37.24,0,0,0-.75-4.9,18.45,18.45,0,0,0-1.88-5.81c-1.33-2.25-3.72-3.13-5.22-5.05-1-1.29-1.33-3.52-2.11-5.05a25.07,25.07,0,0,0-28.72-12.82l-.47.12-.59.15-1.25.3-2.6.62-5.32,1.21c-3.59.77-7.2,1.59-10.84,2.33-7.28,1.48-14.63,2.92-22,4.26-3.69.66-7.4,1.31-11.11,1.92l-11.28,1.9C285.6,129.9,278.27,131,271,132s-14.54,1.61-21.79,2.06c-1.81.09-3.63.24-5.43.3l-5.43.21c-1.81.05-3.62,0-5.43.07l-2.72,0-2.71-.05c-7.25-.05-14.47-.56-21.7-1.25l-5.41-.62-1.36-.15-1.4-.21-2.8-.42-2.8-.42-1.4-.21-.51-.08-.62-.1-.29,0H189L188,131c-1.33-.08-2.57-.13-3.73-.12s-2.32,0-3.45.06a121.67,121.67,0,0,0-13,1.21c-2.11.27-4.16.65-6.22,1s-4.08.8-6.1,1.21-4,.9-6,1.39-4,1-5.92,1.54-3.92,1.08-5.85,1.67L132,140.76c-1.93.58-3.81,1.28-5.7,1.94s-3.78,1.31-5.65,2L115,146.88c-1.86.72-3.72,1.44-5.47,2.21l-5.33,2.28-1.33.57a12.71,12.71,0,0,1-1.3.52l-2.46.81c-.84.26-1.61.56-2.51.8L94,154.8c-1.75.53-3.54.91-5.33,1.35a129.1,129.1,0,0,1-44.31,2.22c-3.74-.43-7.48-1-11.19-1.79s-7.41-1.65-11.07-2.71A116.75,116.75,0,0,1,.76,145.51h0a.5.5,0,0,0-.52.85,119.17,119.17,0,0,0,20.42,11.5q5.37,2.43,11,4.39c3.72,1.32,7.5,2.5,11.35,3.5a137.29,137.29,0,0,0,23.59,4.11,135,135,0,0,0,24.25,0c2-.21,4.06-.36,6.07-.68s4-.54,6.16-1l3.16-.59c1-.2,1.92-.45,2.88-.67l5.66-1.36c1.9-.48,3.75-.86,5.59-1.23l5.52-1.14c1.84-.36,3.69-.65,5.53-1s3.68-.67,5.52-.9a212,212,0,0,1,21.94-2.19c1.81-.06,3.61-.18,5.39-.15s3.57,0,5.32,0a93,93,0,0,1,10.19.77c.8.11,1.6.22,2.33.36s1.45.29,2,.43l.34.11h-.07l-.26,0c-.15,0,0,0,0,0l.18.05,1.43.41,2.86.81,2.86.81,1.43.41,1.49.37,6,1.47c8,1.83,16.08,3.44,24.23,4.55a316.33,316.33,0,0,0,49,3.08c8.11-.07,16.15-.37,24-.73,4-.19,7.72-.36,11.74-.59s7.92-.51,11.89-.8c7.93-.58,15.87-1.29,23.84-2.23,4-.45,8-.94,12-1.52l6.06-.91,3.08-.51,1.58-.28,1.77-.33.14,0q.84-.16,1.69-.38a25.36,25.36,0,0,0,2.43-.78c.94-.12,1.87-.27,2.8-.45,2-.4,3.92-1,5.86-1.46a32.68,32.68,0,0,1,5.74-1.33,5.2,5.2,0,0,0,.76-.08,8.69,8.69,0,0,0,.84-.28c1.24-.41,2.6-.21,3.87-.54a2.05,2.05,0,0,0,.7-.3c.22-.16.39-.39.61-.55s.7-.32.95-.6a1.76,1.76,0,0,0,.32-.73A23.48,23.48,0,0,0,397.26,149.48Z"/><path class="cls-2" d="M275.3,160.54a12,12,0,0,0,.66-1.82c-.35-1-.67-2-.93-3.06-1.72-7-3.58-17.4.06-24.24L271,132q-8.19,1.05-16.31,1.68a3.73,3.73,0,0,1-.89,1.42c-2.59,2.64-.84,10.19-.3,13.43A36,36,0,0,0,258,161.75c.11.19.24.36.36.54a3.5,3.5,0,0,1,4.56.37c1.38,1.32,5.59-1.68,7.24-2.07A13.9,13.9,0,0,1,275.3,160.54Z"/><path class="cls-2" d="M228.27,136.4c-2.9,2.38,2,12.73,3,15.72a33.16,33.16,0,0,0,1.11,3.62c1.08,2.28,1.5,1.13,3.87.49,4.25-1.16,8.22.91,10.35-4l0-.07c-.39-1.93-.69-3.89-.93-5.86-.45-3.73-.89-8.27.28-12.1-.76,0-1.51.09-2.26.12l-5.43.21c-1.81.05-3.62,0-5.43.07l-2.72,0h-.73A3.26,3.26,0,0,1,228.27,136.4Z"/><path class="cls-2" d="M186.78,143.16c-.87,1.27-2.76,3.18-2.87,4.78-.26,4,4.24,4.73,6.82,4.61,2.15-.1,4.56-2,6.7-1.18,2.84,1.05,2.06,6.21,6.33,4.76,2.47-.84,2.13-5.88,2.61-8a59.52,59.52,0,0,0,1.6-10.78,11.8,11.8,0,0,1,.56-3.74l-2.76-.25-5.41-.62h-.09a52.16,52.16,0,0,0-7.85,3.57C189.36,137.93,188.66,140.41,186.78,143.16Z"/><path class="cls-2" d="M160.59,136.44c-1.81,3.77-1.42,8.58-1.13,12.63.19,2.73.23,6,1.47,8.59.93-5.37.63-11.12,1.54-16.5.52-3.09,1.57-7,4.32-8.89-1,.15-2,.3-3,.48A10.06,10.06,0,0,0,160.59,136.44Z"/><path class="cls-2" d="M153.7,137.36c-6,2.36-7.48,10-8.42,15.66-.41,2.45-.76,4.88-1.05,7.29q3.5-.41,7-.7C148,152.42,150.82,144.41,153.7,137.36Z"/><path class="cls-2" d="M118.42,147.79c-.67,1.46-.3,2.33.36,3.65.52,1,.47,2.26.94,3.29.94,2.07,2.42,1.28,4,.28,1.41-.9,1.68-1.94,1.95-3.53.48-2.87,1.16-5.93.84-8.86l-.25.09c-1.63.58-3.27,1.15-4.9,1.74A9.45,9.45,0,0,0,118.42,147.79Z"/><path class="cls-2" d="M99.86,153c-2.33,4.11-1.84,9.09.35,13.14-.06-4.46-.8-9.38.86-13.53Z"/><path class="cls-2" d="M85.24,158.83c-1,1.83-.46,4.18-.25,6.18.17,1.71.27,3.45.33,5.19l2.61-.15C87.65,166.67,88.57,160.88,85.24,158.83Z"/><path class="cls-2" d="M72.52,160.48c-.77.6-3.38,2.94-3.27,4.25.25,2.79,4.55-2.18,5.13-2.89A26.76,26.76,0,0,0,77,158.24l-1.77.22C74.34,159.16,73.41,159.78,72.52,160.48Z"/><path class="cls-2" d="M61.75,164a17.74,17.74,0,0,0,2-1.35c.57-.46,1.6-.88.36-1.16s-4.17,2.11-5.38,2.7c-3.42,1.66-7.18,2.23-10.92,2.72q2.32.53,4.66,1A47.11,47.11,0,0,0,61.75,164Z"/><path class="cls-2" d="M31.4,156.2a12.4,12.4,0,0,0-6.14.68c2,3.25,8.17,2.19,11.33,2,.76,0,1.51-.09,2.27-.07,1,0,2.2,0,1.29-1q-3.5-.52-7-1.23Z"/><path class="cls-2" d="M319.64,150.64a27.33,27.33,0,0,1-3.62-6.29c-2.42-6.09-1.91-13.08.06-19.22a4,4,0,0,1,.19-.43l-.78.15c-3.69.66-7.4,1.31-11.11,1.92l-11.28,1.9L291,129c-4,7,2.19,15.21,6.3,21.58a7.67,7.67,0,0,1,1.53,1.33,4.62,4.62,0,0,1,.76,1.25,7.46,7.46,0,0,1,2.23,7.63l.22.13a4.17,4.17,0,0,1,.42.32,43.8,43.8,0,0,1,4-3.63c2.75-2.29,5.37-1.63,8.59-1,2,.38,5,1,5.51-1.81A9.47,9.47,0,0,0,319.64,150.64Z"/><path class="cls-2" d="M397.26,149.48a37.24,37.24,0,0,0-.75-4.9,18.45,18.45,0,0,0-1.88-5.81c-1.33-2.25-3.72-3.13-5.22-5.05-1-1.29-1.33-3.52-2.11-5.05a25.07,25.07,0,0,0-28.72-12.82l-.47.12-.59.15-1.25.3-2.6.62-5.32,1.21c-3.59.77-7.2,1.59-10.84,2.33l-4,.8a3.87,3.87,0,0,1,.24,2.05c-.88,6,4.5,12.74,7.27,17.66,2.45,4.37,5.13,8.84,8.66,12.47-2.48-4.69-5-9.7-5.76-14.73-.48-3.06-.06-6.15-.25-9.23-.13-2.11-.46-4.29.28-6.29A.46.46,0,0,1,344,123c0-.08.06-.16.09-.24.26-.53,1-.15.9.36,6.11,5.26,9,13.23,15,18.47,2.9,2.52,5.9,4.28,7.84,7.74,2.08,3.71,3.27,7.85,5.13,11.68a.53.53,0,0,1-.36.74q.07.88.19,1.75l.73.09.25-.09c.94-.12,1.87-.27,2.8-.45,2-.4,3.92-1,5.86-1.46a32.68,32.68,0,0,1,5.74-1.33,5.2,5.2,0,0,0,.76-.08,8.71,8.71,0,0,0,.84-.28c1.24-.41,2.6-.21,3.87-.54a2.05,2.05,0,0,0,.7-.3c.22-.16.39-.39.61-.55s.7-.32.95-.6a1.76,1.76,0,0,0,.32-.73A23.49,23.49,0,0,0,397.26,149.48Z"/><path class="cls-2" d="M582,82.67c-2.77-6.1-9.82-9.19-21-9.19l-1.58,0H559c-5.35,0-56.07,1.7-186.1,60.72l-4.61,2.09,29.29,22a9.71,9.71,0,0,1,4-1.37c1-.28,1.94-.54,2.91-.78,1.5-.56,3-1,4.07-1.45a29.77,29.77,0,0,1,8.16-2.16c24.05-10.81,75.45-30.27,133.89-30.27,4.58,0,9.18.12,13.67.36l1.46.08,1-1.1C569,119,588.25,96.38,582,82.67Z"/><path class="cls-8" d="M559.48,76.5s-43.8-3.42-172.4,53.66c5.74,5,6,12.21,5.46,19.59l8.28,7.2s75.31-42,163.66-37.33C564.47,119.61,603.15,75.39,559.48,76.5Z"/><path class="cls-9" d="M649.83,39.26a.76.76,0,0,0,.47.18,25.9,25.9,0,0,0,4.23-.15c.48-.06.43-.38.41-.77-1-9.33-14.75-6-14.75-6a6.23,6.23,0,0,1,4.47,1.19,15.43,15.43,0,0,1,3.44,3.18q.58.7,1.09,1.44A4.77,4.77,0,0,0,649.83,39.26Z"/><path class="cls-2" d="M651.48,39.72l-1.2,0a1,1,0,0,1-.62-.24h0a2.26,2.26,0,0,1-.47-.65c-.06-.11-.13-.23-.2-.33-.34-.49-.71-1-1.08-1.42a15.06,15.06,0,0,0-3.39-3.13c-.73-.47-2.58-1.52-4.2-1.17l-.07,0-.12-.49c.32-.08,7.91-1.87,12.24,1.17a6.74,6.74,0,0,1,2.82,5v.1c0,.34,0,.86-.64.94A26.12,26.12,0,0,1,651.48,39.72Zm-1.5-.65a.51.51,0,0,0,.32.12A25.69,25.69,0,0,0,654.5,39c.2,0,.22,0,.2-.42v-.09a6.25,6.25,0,0,0-2.6-4.67c-2.76-1.94-7.06-1.79-9.65-1.47a9.12,9.12,0,0,1,2.35,1.11,15.54,15.54,0,0,1,3.5,3.23c.38.46.76,1,1.11,1.45.08.12.16.25.23.37a1.88,1.88,0,0,0,.36.51Z"/><path class="cls-10" d="M651.07,90.95s1.58.25-3,4.08a10.87,10.87,0,0,1-2.33-4.75Z"/><path class="cls-2" d="M648.06,95.16,648,95.1a10.88,10.88,0,0,1-2.36-4.8l0-.14.15,0,5.34.67a.43.43,0,0,1,.33.31c.18.65-.92,2-3.28,4Zm-2.19-4.77a11.21,11.21,0,0,0,2.21,4.49c3-2.55,3.21-3.43,3.15-3.68a.22.22,0,0,0-.17-.16Z"/><path class="cls-10" d="M644.57,90.11s.33,2.67-4.92,4.5c0,0,.58-4.92,0-5.75C639.65,88.86,644.23,89.2,644.57,90.11Z"/><path class="cls-2" d="M639.53,94.76l0-.16c.16-1.36.48-5,0-5.68l-.12-.17.21,0c.48,0,4.66.37,5,1.32v0c0,.11.28,2.77-5,4.61Zm.29-5.78c.41,1.07,0,4.67-.05,5.49,2.56-.92,3.71-2,4.21-2.83a2.59,2.59,0,0,0,.49-1.5C644.19,89.47,641.18,89.09,639.82,89Z"/><path class="cls-10" d="M637.65,88.95a7.19,7.19,0,0,1-3.75,6.17s-2.42-.33-4.67-6.17Z"/><path class="cls-2" d="M633.92,95.22h0c-.1,0-2.5-.41-4.75-6.23l-.05-.14h8.66v.1a7.35,7.35,0,0,1-3.8,6.26ZM629.38,89c2,5.21,4.22,5.89,4.5,6a7.16,7.16,0,0,0,3.67-6Z"/><path class="cls-10" d="M628.4,89.28a11.84,11.84,0,0,1-3.58,8.42s-5.83-1.92-5.92-8Z"/><path class="cls-2" d="M624.84,97.81l-.06,0c-.06,0-5.9-2-6-8.09v-.1h.1l9.6-.42v.1a12,12,0,0,1-3.62,8.49Zm-5.84-8c.13,5.56,5.21,7.58,5.79,7.79a11.81,11.81,0,0,0,3.51-8.2Z"/><path class="cls-10" d="M618,91.61s1.08,3.08-1.5,7.5a10.65,10.65,0,0,1-8.92-4S616.32,89.78,618,91.61Z"/><path class="cls-2" d="M615.93,99.23a10.85,10.85,0,0,1-8.45-4.06l-.07-.09.1-.06c.36-.22,8.84-5.35,10.54-3.48l0,0s1.07,3.18-1.51,7.58l0,0h0S616.28,99.23,615.93,99.23Zm-8.22-4.09A10.64,10.64,0,0,0,616.42,99c2.39-4.12,1.55-7.09,1.47-7.35-.66-.69-2.63-.31-5.7,1.1C610.11,93.72,608.17,94.87,607.72,95.14Z"/><path class="cls-10" d="M610.15,94.11a16.48,16.48,0,0,1-1.67,8.08s-1.25.42-1.42-.42a12.29,12.29,0,0,1-4.83-6S609.07,91.36,610.15,94.11Z"/><path class="cls-2" d="M607.84,102.4a1.08,1.08,0,0,1-.54-.12.67.67,0,0,1-.32-.43,12.52,12.52,0,0,1-4.84-6l0-.07.07,0c.2-.13,5-3.19,7.14-2.48a1.41,1.41,0,0,1,.92.86v0a16.71,16.71,0,0,1-1.68,8.14l0,0h0A2.38,2.38,0,0,1,607.84,102.4Zm-5.48-6.58a12.3,12.3,0,0,0,4.76,5.87l0,0v0a.48.48,0,0,0,.23.34,1.51,1.51,0,0,0,1,0,16.49,16.49,0,0,0,1.64-8,1.21,1.21,0,0,0-.79-.73C607.3,92.77,602.95,95.45,602.35,95.82Z"/><path class="cls-10" d="M601.48,97.95a9.07,9.07,0,0,1,0,5s-1.67.75-4.33-3.58C597.15,99.36,601.24,96.9,601.48,97.95Z"/><path class="cls-2" d="M601.16,103.1c-.64,0-2.1-.44-4.09-3.68l-.05-.09.09-.05c.34-.21,3.38-2,4.24-1.64a.39.39,0,0,1,.24.28,9.12,9.12,0,0,1,0,5.05v0l0,0A.94.94,0,0,1,601.16,103.1Zm-3.87-3.7c2.31,3.72,3.84,3.54,4.11,3.47a9,9,0,0,0,0-4.89h0a.19.19,0,0,0-.12-.15C600.63,97.56,598.26,98.82,597.29,99.4Z"/><path class="cls-10" d="M596.9,100.11a12.19,12.19,0,0,1,.42,4.5s-4,.33-5.83-1.83C591.48,102.78,595.57,98.86,596.9,100.11Z"/><path class="cls-2" d="M596.7,104.73c-1.21,0-3.87-.21-5.29-1.89l-.06-.07.07-.06c.17-.16,4.17-4,5.55-2.67l0,0a12.18,12.18,0,0,1,.42,4.54v.09h-.09S597.06,104.73,596.7,104.73Zm-5.08-1.95c1.66,1.86,5,1.76,5.6,1.73a12.44,12.44,0,0,0-.41-4.35c-.65-.57-2,.17-3.07.89A20.52,20.52,0,0,0,591.62,102.79Z"/><path class="cls-11" d="M651.75,90.68s-38.6-6.91-65.27,17.26l-2.17-5.33s2.67,11.33-3.5,13c0,0-8.67,7.5-10-6.33,0,0,.33-15.76,1.83-19.21,0,0,6.17-7.88,5.83-13.17Z"/><path class="cls-12" d="M576,117.89a4.1,4.1,0,0,1-1.53-.29c-2.17-.87-3.49-3.66-3.94-8.31,0-.67.35-15.88,1.85-19.34l0-.05c.06-.08,6.1-7.87,5.78-13l0-.32L651.8,90.44l-.09.49c-.39-.07-38.79-6.6-65.06,17.2l-.27.24L585,104.85c.44,3.46.55,9.7-4,11A8.72,8.72,0,0,1,576,117.89Zm-3.18-27.7c-1.45,3.43-1.8,18.93-1.8,19.09.43,4.41,1.65,7.07,3.63,7.86,2.68,1.07,5.93-1.69,6-1.72l.1-.05c5.87-1.59,3.35-12.59,3.32-12.7l.47-.15,2,5c20-18,47-18.54,59-17.75L578.75,77.2C578.83,82.41,573.31,89.62,572.87,90.19Z"/><path class="cls-13" d="M594.82,87.2a17.24,17.24,0,0,0-9.52,9.52s7.76-9.52,10.52-8.19Z"/><path class="cls-2" d="M584.39,98.23l.68-1.61A17.66,17.66,0,0,1,594.74,87l.17-.06,1.72,2.3-.93-.45c-2.12-1-8.09,5.52-10.22,8.12Zm10.34-10.74A17.14,17.14,0,0,0,586.39,95c2.16-2.46,6.39-6.88,8.83-6.89Z"/><path class="cls-13" d="M607,88.43s-13.9,4.22-19.8,11.43c0,0,19.05-11.69,22.63-10.69Z"/><path class="cls-2" d="M586,100.85l.94-1.15c5.88-7.19,19.78-11.47,19.92-11.51l.07,0,2.85.75h0l-.13.48h0c-2.83-.69-15.86,6.67-22.39,10.67ZM607,88.69c-1,.31-12.45,4-18.48,10.08,4-2.38,14.9-8.74,19.69-9.76Z"/><path class="cls-13" d="M623.75,89.15s-19.5,2.75-30,9.63c0,0,25.63-9.37,30.75-8.5S623.75,89.15,623.75,89.15Z"/><path class="cls-2" d="M591.79,99.76l1.82-1.19c10.43-6.83,29.91-9.64,30.1-9.66h.06l.06,0c3.14,1.07,3.07,1.35,3,1.57s-.33.39-2.38,0c-5-.86-30.37,8.39-30.62,8.49Zm31.93-10.35c-1.11.16-17.29,2.62-27.63,8.26,6.56-2.32,24.21-8.36,28.45-7.64.59.1,1,.16,1.29.19C625.3,90,624.48,89.67,623.72,89.41Z"/><path class="cls-9" d="M561.53,35.36s-2.33-6.35-7.24-6.25c0,0,7.28-2.73,11.07,1Z"/><path class="cls-2" d="M561.45,35.88l-.16-.44c0-.06-2.29-6.09-6.89-6.09h-.11l-1.47,0,1.37-.51c.3-.11,7.47-2.74,11.34,1.05l.15.15ZM555.58,29c3.51.73,5.45,4.57,6,5.87L565,30.13C562.28,27.63,557.73,28.41,555.58,29Z"/><path class="cls-9" d="M564.94,30.9S564.44,22,562.57,19c0,0-.69-1.12,1.19-.81,0,0,5.75.38,9.44,7.06Z"/><path class="cls-2" d="M564.72,31.36l0-.44c0-.09-.52-8.85-2.34-11.76a.9.9,0,0,1-.05-.91c.22-.32.71-.41,1.49-.28,0,0,5.9.46,9.62,7.19l.11.2Zm-1.54-12.95c-.36,0-.45.09-.46.12s0,.28.06.37c1.67,2.67,2.25,9.7,2.38,11.55l7.7-5.25c-3.58-6.3-9.07-6.73-9.12-6.74A3.5,3.5,0,0,0,563.18,18.41Z"/><path class="cls-9" d="M574.07,24.28a28.2,28.2,0,0,1-3.75-18s.81-2.38,2.88,0c0,0,9.81,10.19,14.25,11.62Z"/><path class="cls-2" d="M574,24.6l-.12-.18a28.7,28.7,0,0,1-3.79-18.17c0-.09.37-1.08,1.22-1.25.64-.12,1.34.25,2.09,1.12.09.09,9.81,10.15,14.14,11.55l.6.19ZM571.53,5.47h-.14c-.56.11-.83.87-.84.87A28.13,28.13,0,0,0,574.16,24l12.65-6c-4.63-2-13.41-11.08-13.8-11.48A2.29,2.29,0,0,0,571.53,5.47Z"/><path class="cls-9" d="M588.44,17.48S590.73,4,590.24,1.71c0,0,.18-2.68,2.26-.78,0,0,5.89,5.44,7.25,12.64Z"/><path class="cls-2" d="M588.12,17.86l.07-.42c0-.13,2.28-13.43,1.8-15.68V1.7c0-.13.11-1.32.88-1.63.49-.2,1.1,0,1.8.68.06.06,6,5.58,7.32,12.78l0,.21ZM590.49,1.7c.42,2.22-1.35,13.1-1.74,15.41l10.7-3.7c-1.4-6.93-7.07-12.24-7.13-12.29-.54-.5-1-.7-1.28-.58S590.51,1.41,590.49,1.7Z"/><path class="cls-14" d="M640.19,32.53s-2.25-8.62-12.12-7.5c0,0-32.75,2.13-36,35.13,0,0-13,7.62-7.5,19.75,0,0,1.5,7.88,14.38,9,0,0,62.63.63,66.88,3.38,0,0,12.17,0,12.83-3.5,0,0,8.83-4.5-2.67-17.17,0,0-2.67-4.17-4-15.67,0,0-3.83-19.5-22.17-16.67C649.82,39.28,645.4,31.78,640.19,32.53Z"/><path class="cls-14" d="M640.19,32.53s-2.25-8.62-12.12-7.5c0,0-32.75,2.13-36,35.13,0,0-13,7.62-7.5,19.75,0,0,1.5,7.88,14.38,9,0,0,62.63.63,66.88,3.38,0,0,12.17,0,12.83-3.5,0,0,8.83-4.5-2.67-17.17,0,0-2.67-4.17-4-15.67,0,0-3.83-19.5-22.17-16.67C649.82,39.28,645.4,31.78,640.19,32.53Z"/><path class="cls-2" d="M665.82,92.53h-.07l-.06,0c-4.14-2.68-66.12-3.33-66.74-3.33-6.75-.59-10.35-3-12.2-5a9.3,9.3,0,0,1-2.42-4.2c-5.24-11.54,6.25-19.15,7.51-19.94,1.72-17.08,11.46-25.74,19.34-30a46,46,0,0,1,16.88-5.22c5.2-.59,8.29,1.53,10,3.41a11.69,11.69,0,0,1,2.35,4.06c4.88-.51,8.91,5.68,9.57,6.75,18.23-2.7,22.25,16.69,22.28,16.89,1.31,11.33,3.94,15.54,4,15.58,4.51,5,6.48,9.31,5.83,12.89a6.75,6.75,0,0,1-3.15,4.58C677.94,92.49,666.32,92.53,665.82,92.53Zm-36-67.35a15.25,15.25,0,0,0-1.72.1,45.48,45.48,0,0,0-16.71,5.17c-7.78,4.22-17.41,12.8-19.07,29.73v.13l-.11.06a22.14,22.14,0,0,0-5.75,5.27,13.16,13.16,0,0,0-1.65,14.16c0,.13,1.65,7.76,14.17,8.86,2.53,0,62.14.65,66.92,3.37,3.38,0,12-.61,12.52-3.3l0-.12.11-.06a6.33,6.33,0,0,0,3-4.29c.62-3.41-1.31-7.61-5.73-12.49-.14-.21-2.74-4.38-4.06-15.81,0-.17-4-19.21-21.88-16.45l-.17,0-.09-.15c0-.07-4.39-7.34-9.37-6.63l-.22,0-.06-.22a11.13,11.13,0,0,0-2.32-4.08A10,10,0,0,0,629.82,25.18Z"/><path class="cls-15" d="M551.15,52.11s0,.35-.06,1c-.13,4.25.77,21.25,21.73,36,0,0,7.83-3.67,7.67-20.83,0,0,2.83-10.17,10.17-8.83,0,0,4.43-11.74,9.09-17.57,0,0-12.26-11.43-34.93,3.07a7.78,7.78,0,0,0-3.67,1.33S555.32,54.95,551.15,52.11Z"/><path class="cls-2" d="M572.79,89.4l-.12-.08c-20.84-14.66-22-31.42-21.84-36.21,0-.65.06-1,.07-1l.05-.41.34.23a3.05,3.05,0,0,0,2.37.46c3.51-.68,7.24-6.17,7.28-6.22l.05-.06a7.89,7.89,0,0,1,3.74-1.38c6.5-4.15,16.29-8.71,26.09-7a18.73,18.73,0,0,1,9.09,4l.17.16-.14.18c-4.59,5.74-9,17.39-9.05,17.51l-.07.19-.21,0c-6.82-1.24-9.69,8-9.87,8.62.15,17.1-7.49,20.87-7.81,21ZM551.36,52.53c0,.15,0,.35,0,.59-.15,4.71,1,21.2,21.5,35.7,1-.57,7.55-4.95,7.4-20.54v-.07c0-.1,2.92-10.18,10.25-9,.59-1.53,4.65-11.82,8.91-17.26-1.58-1.28-13.66-10-34.45,3.25l-.12,0a7.62,7.62,0,0,0-3.5,1.26c-.35.52-4,5.71-7.57,6.4A3.55,3.55,0,0,1,551.36,52.53Z"/><path class="cls-10" d="M566.71,69c5,.33,8.27.81,12.89-1.5l1.4-.69c.77-1.92,2.45-5.23,5.28-6.72a90,90,0,0,0-16-1A39,39,0,0,0,560,61c-2.48.8-4.62,2.37-7,3.48a42.12,42.12,0,0,0,4.37,9A11,11,0,0,1,566.71,69Z"/><path class="cls-16" d="M560.48,47.28s-4.33-12.17,9.17-20.83c0,0,36.67-27.67,61.5-2.33,0,0,18.83,10.83-3.5,20.83,0,0-29.33.83-32-3.17S560.48,47.28,560.48,47.28Z"/><path class="cls-2" d="M560.33,47.58l-.08-.22c0-.12-4.24-12.45,9.27-21.13A77.85,77.85,0,0,1,591,15.54c11.26-3.44,27.38-4.78,40.29,8.37.61.35,7.8,4.69,7.51,10.46-.2,4-3.92,7.61-11.06,10.8l-.09,0c-1.2,0-29.5.79-32.22-3.28-2.1-3.16-25.9,3-34.89,5.6Zm45.33-33.87A50,50,0,0,0,591.17,16,77.34,77.34,0,0,0,569.8,26.64c-12.18,7.82-9.64,18.64-9.15,20.33,3.19-.92,32.56-9.3,35.21-5.33,2,3.07,21.62,3.34,31.74,3.06,6.92-3.11,10.53-6.59,10.72-10.35.28-5.6-7.21-10-7.29-10l-.05,0A34.28,34.28,0,0,0,605.66,13.71Z"/><path class="cls-9" d="M603,14.07s17.88-1.92,29.58,11.71c0,0-49.5,10.37-58.37,1C574.19,26.78,600.48,19.57,603,14.07Z"/><path class="cls-2" d="M591.66,31c-8,0-14.81-1-17.65-4l-.29-.3.4-.11c.26-.07,26.21-7.24,28.63-12.57l.06-.13.14,0c.18,0,18.14-1.77,29.8,11.79l.28.32-.41.09C631.24,26.31,608.71,31,591.66,31Zm-17-4.07c9,8.22,52.65-.32,57.42-1.28-11-12.41-27.29-11.45-29-11.31C600.45,19.51,578.15,25.93,574.68,26.9Z"/><path class="cls-2" d="M603.74,60.48c5.63,1.24,11.46,3,17.2,3.51a72.78,72.78,0,0,0,9.86,0c2.69-.15,7,.23,9.24-1.5l0,0a6.49,6.49,0,0,1,1.09-1.3c1.69-3,.41-8.14-.07-11.55a3.58,3.58,0,0,1-.06-.47c0-.17,0-.33-.06-.49a3.13,3.13,0,0,1,.67-2.4l.34-1a3.57,3.57,0,0,1,.16-.38,3.25,3.25,0,0,1-.29-.39,5.86,5.86,0,0,1-.42-.76,9.94,9.94,0,0,1-.58-1.38,3.33,3.33,0,0,1-.17-.93,6.92,6.92,0,0,1-1.25-1.06,4.15,4.15,0,0,1-.52-.69,40.41,40.41,0,0,1-13.88,0c-2.47.48-4.93,1-7.38,1.59a30.51,30.51,0,0,0-8,2.77,23.38,23.38,0,0,1-2.17,1.09c-4.14,2-8.93,3.09-12.35,6.18l0,0a3.11,3.11,0,0,1-1.7,1.16,45,45,0,0,0-1.36,7.28C595.85,58.62,600,59.65,603.74,60.48Z"/><path class="cls-6" d="M639.94,33.4s0-.14-.09-.38c-.56-2.1-4.09-11.91-19.66-5.87,0,0-14,5.5-19.12,11.25,0,0-3.62,3.75,1.13,3.88,0,0,32.63-4,36.88-1.87,0,0,5.25-.87,5.92-2.79C645,37.61,646.57,34,639.94,33.4Z"/><path class="cls-2" d="M602.22,42.53c-1.47,0-2.34-.41-2.63-1.11-.52-1.28,1.22-3.11,1.29-3.19,5.1-5.72,18.64-11.08,19.21-11.31,6-2.34,10.94-2.59,14.6-.74A10.91,10.91,0,0,1,640.09,33l.05.22c2.55.27,4.19,1,4.89,2.2a2.71,2.71,0,0,1,.17,2.34c-.7,2-5.88,2.9-6.1,2.94H639l-.07,0C634.82,38.56,602.55,42.49,602.22,42.53Zm26.91-17.07a24.88,24.88,0,0,0-8.85,1.93c-.14.05-14,5.54-19,11.18-.45.47-1.53,1.84-1.2,2.66.2.49.94.77,2.14.8,1.29-.16,32.35-3.94,36.9-1.88,1.48-.26,5.15-1.18,5.64-2.61a2.21,2.21,0,0,0-.14-1.91c-.63-1.06-2.25-1.74-4.69-2l-.19,0,0-.19s0-.14-.09-.36a10.4,10.4,0,0,0-5.13-6.45A11.67,11.67,0,0,0,629.14,25.46Z"/><path class="cls-9" d="M608.67,64.12a2.34,2.34,0,0,1-.69-.71,6.35,6.35,0,0,1-1.05-2.49,1.07,1.07,0,0,0-.13-.52.81.81,0,0,0-.25-.21,7.8,7.8,0,0,0-3-.79c-1.73-.25-3.45-.65-5.19-.81a11,11,0,0,0-5.17.58,2.53,2.53,0,0,0-1.14.86,1.27,1.27,0,0,1-.18.22,4.71,4.71,0,0,1-.54.36A22.38,22.38,0,0,0,589.5,62a19.85,19.85,0,0,0-4.6,5.54,13.28,13.28,0,0,0-1.48,8.68,15.36,15.36,0,0,0,1.15,3.63s1.5,7.88,14.38,9c0,0,9.11.09,20.61.36l.09-.21a.62.62,0,0,0-.16.06,1.57,1.57,0,0,0,.26-.46,13,13,0,0,0,.61-1.31,15.25,15.25,0,0,0,1.07-4.67,15,15,0,0,0-1.08-6.61,20.92,20.92,0,0,0-5.58-7.57A33.57,33.57,0,0,0,611.54,66q-.94-.66-1.92-1.26C609.3,64.49,609,64.33,608.67,64.12Z"/><path class="cls-2" d="M619.73,89.51h-.18c-11.37-.26-20.52-.35-20.61-.36-6.75-.59-10.35-3-12.2-5a9.3,9.3,0,0,1-2.42-4.2,15.18,15.18,0,0,1-1.15-3.63,13.44,13.44,0,0,1,1.51-8.84,20,20,0,0,1,4.66-5.61,22.68,22.68,0,0,1,1.88-1.45l.21-.13a1.79,1.79,0,0,0,.3-.2.46.46,0,0,0,.09-.1l.06-.09a2.79,2.79,0,0,1,1.25-.94,11,11,0,0,1,5.29-.6c1.09.1,2.19.3,3.25.48.65.12,1.3.23,2,.33l.27,0a7.23,7.23,0,0,1,2.79.79,1.06,1.06,0,0,1,.32.27,1.15,1.15,0,0,1,.17.58,6.19,6.19,0,0,0,1,2.44,2.07,2.07,0,0,0,.62.63h0c.18.12.37.23.56.35l.37.22c.67.42,1.32.84,1.93,1.27a33.9,33.9,0,0,1,3.25,2.56A21.08,21.08,0,0,1,620.58,76a15.19,15.19,0,0,1,0,11.47,13.4,13.4,0,0,1-.56,1.22h0l-.23.57,0,.12ZM596.91,58.78a9.39,9.39,0,0,0-3.6.63,2.29,2.29,0,0,0-1,.78l0,.07a1,1,0,0,1-.16.19,2.2,2.2,0,0,1-.38.26l-.18.11a22.15,22.15,0,0,0-1.84,1.42,19.53,19.53,0,0,0-4.55,5.47,13,13,0,0,0-1.45,8.52,15.16,15.16,0,0,0,1.13,3.57c0,.13,1.65,7.76,14.17,8.86.07,0,9.13.09,20.42.35h0l-.06-.08h0a1.15,1.15,0,0,0,.13-.24l.07-.14a12.62,12.62,0,0,0,.6-1.28,15,15,0,0,0,1.06-4.6,14.79,14.79,0,0,0-1.06-6.5,20.57,20.57,0,0,0-5.51-7.48,33.4,33.4,0,0,0-3.21-2.52c-.6-.42-1.25-.84-1.91-1.25l-.36-.21c-.21-.12-.41-.24-.6-.37a2.57,2.57,0,0,1-.76-.79A6.58,6.58,0,0,1,606.68,61v-.06a.75.75,0,0,0-.08-.34.6.6,0,0,0-.17-.14,6.87,6.87,0,0,0-2.6-.72l-.27,0c-.66-.1-1.32-.21-2-.33-1-.19-2.13-.38-3.2-.48Q597.6,58.78,596.91,58.78Z"/><path class="cls-17" d="M681.27,85.47c-.74,1-4.44,3.84-21.37-3.78,0,0-22-8.24-34-11.54,0,0-8.87.15-1.62,4,0,0,25,10.74,26.63,16.11l-.56,0,.2.14c8,.47,14,1.09,15.23,1.88,0,0,12.17,0,12.83-3.5a6.52,6.52,0,0,0,2.78-3.26Z"/><path class="cls-2" d="M665.82,92.53h-.07l-.06,0c-.73-.47-3.94-1.17-15.11-1.84h-.08l-.06,0-.19-.13-.74-.49,1.07,0c-2.47-5.31-26.11-15.52-26.35-15.62-2.24-1.19-3.17-2.13-3-3,.34-1.4,4-1.53,4.69-1.54H626c11.83,3.26,33.76,11.47,34,11.55,3,1.36,18.2,7.92,21.08,3.87l.11-.16.18.07.07,0,.33.11-.09.24a6.8,6.8,0,0,1-2.8,3.33C677.94,92.49,666.32,92.53,665.82,92.53Zm-14.64-2.34c8.65.53,13.47,1.13,14.71,1.84,3.38,0,12-.61,12.52-3.3l0-.12.11-.06a6.3,6.3,0,0,0,2.26-2.29c-1.8,1.23-6.86,2-21-4.35-.21-.08-22.07-8.26-33.89-11.52-1.64,0-4,.41-4.18,1.16-.06.25.08,1,2.71,2.38C625.44,74.37,649.48,84.76,651.17,90.19Z"/><path class="cls-2" d="M584.57,79.9a15.37,15.37,0,0,1-1.15-3.63,13.28,13.28,0,0,1,1.48-8.68A19.85,19.85,0,0,1,589.5,62a22.36,22.36,0,0,1,1.86-1.43,4.72,4.72,0,0,0,.54-.36,1.28,1.28,0,0,0,.18-.22,2.48,2.48,0,0,1,1-.78,4.57,4.57,0,0,0-.74-2.1s-.48.11-1.27.37c-.27,1.19-.4,1.92-.4,1.92-7.33-1.33-10.17,8.83-10.17,8.83a36.11,36.11,0,0,1-2,13.36c.7,2.59,2,5.47,4.25,5.33a6.19,6.19,0,0,0,5.18-2.09A9.72,9.72,0,0,1,584.57,79.9Z"/><path class="cls-18" d="M583.23,87.25a4.09,4.09,0,0,1-.57,0c-1.85.14-3.44-1.78-4.45-5.51l0-.08,0-.08a36.23,36.23,0,0,0,2-13.27v-.07c0-.1,2.91-10.15,10.21-9.05.06-.31.18-.9.35-1.69l0-.14.14,0c.79-.25,1.27-.37,1.29-.37l.16,0,.1.13a4.72,4.72,0,0,1,.79,2.22l0,.18-.17.08a2.23,2.23,0,0,0-.89.7l0,.07a1,1,0,0,1-.16.19,2.2,2.2,0,0,1-.38.26l-.18.11a22,22,0,0,0-1.84,1.42,19.52,19.52,0,0,0-4.55,5.47,13,13,0,0,0-1.45,8.52,15.16,15.16,0,0,0,1.13,3.57l0,.06A9.58,9.58,0,0,0,588,84.69l.19.17-.17.19A6.46,6.46,0,0,1,583.23,87.25Zm-.55-.53a6,6,0,0,0,4.84-1.82A9.89,9.89,0,0,1,584.33,80a15.63,15.63,0,0,1-1.16-3.66,13.44,13.44,0,0,1,1.51-8.84,20,20,0,0,1,4.66-5.61,22.59,22.59,0,0,1,1.88-1.45l.21-.13a1.79,1.79,0,0,0,.3-.2.48.48,0,0,0,.09-.1l.06-.09a2.68,2.68,0,0,1,.9-.77,4.47,4.47,0,0,0-.57-1.68l-1,.28c-.24,1.1-.37,1.77-.37,1.77l0,.25-.25,0c-6.82-1.24-9.69,8-9.87,8.62a36.81,36.81,0,0,1-2,13.34C579.37,84.05,580.59,86.85,582.68,86.72Z"/><path class="cls-11" d="M621.2,63.6s5.74-7.19.12-13.82c0,0-3.62-5.62,2.5-8.5h13.13s8.38.63,3.13,9.5c0,0-1,10.26.13,12.38C640.19,63.16,637.2,67.6,621.2,63.6Z"/><path class="cls-12" d="M632.67,65.53a48.3,48.3,0,0,1-11.53-1.69l-.38-.09.24-.3c.06-.07,5.55-7.11.12-13.5a7,7,0,0,1-.93-5.22,6,6,0,0,1,3.51-3.67l.11,0h13.13c.16,0,3.39.28,4.63,2.67.92,1.76.49,4.17-1.27,7.16-.08.81-.93,10.24.1,12.19l.07.13-.08.12C640.31,63.43,638.8,65.53,632.67,65.53Zm-11.05-2.08c13.88,3.41,17.69.3,18.28-.32-1-2.44-.12-12-.08-12.37l0-.1c1.69-2.85,2.12-5.12,1.28-6.72-1.12-2.15-4.18-2.4-4.21-2.4H623.87a5.48,5.48,0,0,0-3.19,3.33,6.62,6.62,0,0,0,.85,4.79C626.54,55.54,622.64,62,621.62,63.44Z"/><path class="cls-1" d="M606.82,61.65c1.63,2.75,9.5,8.88,9.5,8.88,9.69,9.58,2.88,18.58,2.88,18.58l31.75,1.17c-1.62-5.37-26.62-16.11-26.62-16.11-7.25-3.86,1.63-4,1.63-4,12,3.3,34,11.54,34,11.54,20,9,21.54,3.46,21.54,3.46,2.5-12-17-16.5-17-16.5a113.92,113.92,0,0,0-24.57-6c-6.62,2.88-22.3.53-22.3.53a8.9,8.9,0,0,1-1.28,0,11,11,0,0,0,2.43-1.26,10.29,10.29,0,0,0,4-5.38,7,7,0,0,0-7-9.31,10.47,10.47,0,0,0-5.88,1.91,10.29,10.29,0,0,0-4,5.38,7.27,7.27,0,0,0,.84,6.29c0,.22,0,.44.07.66S606.76,61.55,606.82,61.65Z"/><path class="cls-2" d="M651.28,90.54l-32.58-1.2L619,89c.27-.36,6.56-8.94-2.85-18.25-.3-.23-7.91-6.17-9.54-8.93l0,0a.44.44,0,0,1-.09-.26c0-.11,0-.21,0-.32s0-.18,0-.27a7.53,7.53,0,0,1-.84-6.45,10.54,10.54,0,0,1,4.14-5.52,10.73,10.73,0,0,1,6-2A7.25,7.25,0,0,1,623,56.59a10.54,10.54,0,0,1-4.14,5.52,11,11,0,0,1-1.37.81h.05c.22,0,15.74,2.31,22.23-.51l.06,0h.07a115.17,115.17,0,0,1,24.63,6c.16,0,19.68,4.68,17.16,16.78a2.35,2.35,0,0,1-1.37,1.33c-2.3,1.08-7.72,1.15-20.51-4.61-.21-.08-22.07-8.26-33.89-11.52-1.64,0-4,.41-4.18,1.16-.06.25.08,1,2.71,2.38,1,.43,25.11,10.84,26.75,16.26Zm-31.63-1.66L650.57,90c-2.47-5.31-26.11-15.52-26.35-15.62-2.24-1.19-3.17-2.13-3-3,.34-1.4,4-1.53,4.69-1.54H626c11.83,3.26,33.76,11.47,34,11.55,13.22,5.95,18.25,5.46,20.06,4.64,1-.43,1.14-1,1.15-1,1-4.84-1.5-9-7.45-12.46a39,39,0,0,0-9.37-3.72,114.91,114.91,0,0,0-24.48-6c-6.65,2.84-21.74.62-22.38.52a7.78,7.78,0,0,1-1.26,0l-1.2-.06,1.13-.42a10.73,10.73,0,0,0,2.38-1.23,10,10,0,0,0,3.95-5.25,6.75,6.75,0,0,0-6.77-9A10.23,10.23,0,0,0,610,49.33a10,10,0,0,0-3.95,5.25,7,7,0,0,0,.81,6.07l0,.06v.07c0,.11,0,.21,0,.32s0,.23,0,.34l.05.09h0c1.58,2.68,9.36,8.74,9.44,8.8C625.09,78.86,620.8,87,619.65,88.88Z"/><path class="cls-19" d="M611,51.35c-3.3,2.29-4.51,6.27-2.7,8.89s6,2.89,9.27.6a8.53,8.53,0,0,0,3-3.53,4.35,4.35,0,0,0,.43-2c0-.76.52-1.42.47-2.18a2.9,2.9,0,0,0-.14-.63L621,51.6a.44.44,0,0,0-.37-.37c-.87-.28-1.68-.61-2.52-1a6.17,6.17,0,0,0-2.27-.46A8.39,8.39,0,0,0,611,51.35Z"/><ellipse class="cls-20" cx="654.07" cy="56.61" rx="12.58" ry="16.33"/><ellipse class="cls-9" cx="654.07" cy="57.5" rx="12.58" ry="15.45"/><ellipse class="cls-21" cx="654.07" cy="57.96" rx="10.54" ry="12.94"/><path class="cls-1" d="M654.07,68.91c-4.71,0-8.54-4.91-8.54-10.94S649.36,47,654.07,47s8.54,4.91,8.54,10.94S658.78,68.91,654.07,68.91Z"/><ellipse class="cls-22" cx="654.07" cy="59.38" rx="7.04" ry="8.1"/><ellipse class="cls-23" cx="654.07" cy="59.38" rx="6.04" ry="7.1"/><circle class="cls-22" cx="652.78" cy="59.65" r="4.09"/><ellipse class="cls-22" cx="676.05" cy="80.64" rx="1.06" ry="1.68"/><ellipse class="cls-10" cx="628.24" cy="83.71" rx="1.31" ry="2.72" transform="translate(409.95 678.73) rotate(-77.44)"/><path class="cls-2" d="M629.1,85.22a5.41,5.41,0,0,1-1.17-.13c-1.54-.34-2.62-1.22-2.45-2s1.51-1.11,3.06-.77a4.64,4.64,0,0,1,1.83.81,1.24,1.24,0,0,1,.61,1.18C630.87,84.89,630.11,85.22,629.1,85.22Zm-1.7-2.82c-.91,0-1.61.28-1.71.74-.14.64.91,1.44,2.29,1.75s2.68,0,2.82-.61c.07-.3-.12-.65-.54-1a4.44,4.44,0,0,0-1.75-.77A5.12,5.12,0,0,0,627.4,82.4Z"/><ellipse class="cls-10" cx="633.87" cy="85.46" rx="1.04" ry="2.17" transform="translate(412.65 685.59) rotate(-77.44)"/><path class="cls-2" d="M634.55,86.69a4.31,4.31,0,0,1-.93-.11,3.71,3.71,0,0,1-1.47-.65,1,1,0,0,1-.49-1c.07-.31.37-.55.85-.66a4.08,4.08,0,0,1,3.07.69,1,1,0,0,1,.49,1c-.07.31-.37.55-.85.66A3,3,0,0,1,634.55,86.69Zm-1.36-2.25a2.78,2.78,0,0,0-.63.07c-.4.09-.65.28-.71.51s.1.51.42.76a3.89,3.89,0,0,0,2.9.65c.4-.09.65-.28.71-.51s-.1-.51-.42-.76a3.51,3.51,0,0,0-1.39-.61A4.1,4.1,0,0,0,633.19,84.44Z"/><ellipse class="cls-10" cx="639.64" cy="86.75" rx="0.91" ry="1.9" transform="translate(415.91 692.23) rotate(-77.44)"/><path class="cls-2" d="M640.24,87.83a3.8,3.8,0,0,1-.82-.09,3.26,3.26,0,0,1-1.29-.57.89.89,0,0,1-.44-.85c.12-.56,1.07-.8,2.17-.56a3.27,3.27,0,0,1,1.29.57.89.89,0,0,1,.44.85h0C641.5,87.59,641,87.83,640.24,87.83Zm-1.19-2c-.61,0-1.09.18-1.16.49s.09.43.37.65a3.06,3.06,0,0,0,1.21.53c.95.21,1.83,0,1.93-.4h0c0-.2-.09-.43-.37-.65a3.06,3.06,0,0,0-1.21-.53A3.57,3.57,0,0,0,639,85.87Z"/><ellipse class="cls-10" cx="595.73" cy="74.05" rx="2.67" ry="1.98"/><path class="cls-2" d="M595.73,76.13c-1.53,0-2.77-.93-2.77-2.08S594.2,72,595.73,72s2.77.93,2.77,2.08S597.26,76.13,595.73,76.13Zm0-4c-1.42,0-2.57.84-2.57,1.88s1.15,1.88,2.57,1.88,2.57-.84,2.57-1.88S597.15,72.17,595.73,72.17Z"/><ellipse class="cls-10" cx="613.42" cy="74.66" rx="2.67" ry="1.98" transform="translate(69.18 367.33) rotate(-35.21)"/><path class="cls-2" d="M612.74,77a1.88,1.88,0,0,1-1.58-.73c-.66-.94-.18-2.42,1.07-3.3a3.33,3.33,0,0,1,1.94-.63,1.85,1.85,0,0,1,1.52.73h0a1.85,1.85,0,0,1,.18,1.68A3.47,3.47,0,0,1,612.74,77Zm1.36-4.46a3.11,3.11,0,0,0-1.76.6c-1.16.82-1.62,2.17-1,3s2,.87,3.18.05a3.09,3.09,0,0,0,1.17-1.51,1.65,1.65,0,0,0-.15-1.5h0a1.65,1.65,0,0,0-1.37-.65Z"/><ellipse class="cls-10" cx="614.8" cy="81.22" rx="1.98" ry="2.67" transform="translate(144.44 485.36) rotate(-48.2)"/><path class="cls-2" d="M615.5,83.63h-.23a3.29,3.29,0,0,1-1.85-.85c-1.14-1-1.45-2.54-.68-3.4s2.31-.72,3.45.3a3.29,3.29,0,0,1,1.05,1.75,1.85,1.85,0,0,1-.37,1.65h0A1.78,1.78,0,0,1,615.5,83.63ZM614.1,79a1.59,1.59,0,0,0-1.22.5c-.69.77-.39,2.17.67,3.11a3.08,3.08,0,0,0,1.74.8,1.65,1.65,0,0,0,1.43-.49h0a1.65,1.65,0,0,0,.33-1.48,3.08,3.08,0,0,0-1-1.64A3,3,0,0,0,614.1,79Z"/><ellipse class="cls-10" cx="591.86" cy="79.99" rx="2.63" ry="2.13"/><path class="cls-2" d="M591.86,82.21A2.27,2.27,0,1,1,594.58,80,2.52,2.52,0,0,1,591.86,82.21Zm0-4.25a2.07,2.07,0,1,0,2.52,2A2.32,2.32,0,0,0,591.86,78Z"/><ellipse class="cls-10" cx="588.7" cy="71.5" rx="3.4" ry="2.75"/><path class="cls-2" d="M588.7,74.36c-1.93,0-3.5-1.28-3.5-2.85s1.57-2.85,3.5-2.85,3.5,1.28,3.5,2.85S590.63,74.36,588.7,74.36Zm0-5.51c-1.82,0-3.3,1.19-3.3,2.65s1.48,2.65,3.3,2.65S592,73,592,71.5,590.52,68.85,588.7,68.85Z"/><ellipse class="cls-10" cx="606.89" cy="70.43" rx="2.33" ry="2.88" transform="translate(177.92 505.47) rotate(-52.02)"/><path class="cls-2" d="M607.43,73.08a3.34,3.34,0,0,1-2-.74,2.75,2.75,0,0,1-.85-3.75,2.22,2.22,0,0,1,1.76-.82h.05a3.34,3.34,0,0,1,2,.74,2.75,2.75,0,0,1,.85,3.75h0a2.22,2.22,0,0,1-1.76.82ZM606.35,68h0a2,2,0,0,0-1.6.74,2.56,2.56,0,0,0,.82,3.47,3.15,3.15,0,0,0,1.92.69h0a2,2,0,0,0,1.6-.74h0a2.56,2.56,0,0,0-.82-3.47A3.15,3.15,0,0,0,606.35,68Z"/><ellipse class="cls-10" cx="596.11" cy="62.4" rx="1.92" ry="1.62" transform="translate(22.22 235.29) rotate(-22.74)"/><path class="cls-2" d="M595.89,64.17a2,2,0,0,1-.62-.09,1.56,1.56,0,0,1-.95-2.26,2.19,2.19,0,0,1,1.12-1A1.75,1.75,0,1,1,596.78,64,2.3,2.3,0,0,1,595.89,64.17Zm.44-3.34a2.1,2.1,0,0,0-.81.17,2,2,0,0,0-1,.92,1.36,1.36,0,0,0,.83,2,2,2,0,0,0,1.37-.08,1.69,1.69,0,0,0,1.09-2.11A1.53,1.53,0,0,0,596.33,60.82Z"/><ellipse class="cls-10" cx="595.41" cy="66.48" rx="1.46" ry="1.72" transform="translate(298.3 586.72) rotate(-66.64)"/><path class="cls-2" d="M595.61,68.08a2.07,2.07,0,0,1-.82-.17,2,2,0,0,1-1-.92,1.44,1.44,0,0,1-.06-1.23A1.7,1.7,0,0,1,596,65a2,2,0,0,1,1,.92,1.41,1.41,0,0,1-.88,2A1.83,1.83,0,0,1,595.61,68.08Zm-.4-3a1.35,1.35,0,0,0-1.29.76A1.25,1.25,0,0,0,594,66.9a1.84,1.84,0,0,0,2.11.91,1.21,1.21,0,0,0,.76-1.75,1.77,1.77,0,0,0-.9-.83A1.86,1.86,0,0,0,595.21,65.07Z"/><ellipse class="cls-10" cx="600.45" cy="62.4" rx="1.46" ry="1.72" transform="translate(305.09 588.89) rotate(-66.64)"/><path class="cls-2" d="M600.65,64a2.07,2.07,0,0,1-.82-.17h0a2,2,0,0,1-1-.92,1.44,1.44,0,0,1-.06-1.23,1.84,1.84,0,0,1,3.34,1.44,1.44,1.44,0,0,1-.93.8A1.83,1.83,0,0,1,600.65,64Zm-.74-.36a1.78,1.78,0,0,0,1.22.09,1.25,1.25,0,0,0,.81-.69,1.64,1.64,0,0,0-3-1.28,1.25,1.25,0,0,0,.05,1.06,1.77,1.77,0,0,0,.9.83Z"/><ellipse class="cls-10" cx="599.74" cy="66.24" rx="1.72" ry="1.46" transform="translate(128.82 443.48) rotate(-45)"/><path class="cls-2" d="M599.48,67.94a1.42,1.42,0,0,1-1-.41,1.44,1.44,0,0,1-.4-1.16,2,2,0,0,1,.59-1.22A1.71,1.71,0,0,1,601,65a1.44,1.44,0,0,1,.4,1.16,2,2,0,0,1-.59,1.22h0a2,2,0,0,1-1.22.59Zm.52-3.18a1.75,1.75,0,0,0-1.22.53,1.77,1.77,0,0,0-.53,1.1,1.21,1.21,0,0,0,1.35,1.35,1.77,1.77,0,0,0,1.1-.53h0a1.77,1.77,0,0,0,.53-1.1,1.25,1.25,0,0,0-.34-1A1.23,1.23,0,0,0,600,64.75Z"/><ellipse class="cls-10" cx="602.63" cy="83.73" rx="2.8" ry="3.93" transform="translate(345.93 635.35) rotate(-72.95)"/><path class="cls-2" d="M603.36,86.75a5.41,5.41,0,0,1-1.58-.24,4.9,4.9,0,0,1-2.46-1.63,2.38,2.38,0,0,1,1.21-3.94,5.21,5.21,0,0,1,5.42,1.66,2.38,2.38,0,0,1-1.21,3.94A4.35,4.35,0,0,1,603.36,86.75Zm-1.46-5.84a4.17,4.17,0,0,0-1.31.2,2.18,2.18,0,0,0-1.11,3.63,5,5,0,0,0,5.2,1.59,2.18,2.18,0,0,0,1.11-3.63,4.7,4.7,0,0,0-2.36-1.56A5.2,5.2,0,0,0,601.9,80.91Z"/><circle class="cls-10" cx="605.62" cy="80.41" r="0.68"/><path class="cls-2" d="M605.62,81.18a.78.78,0,1,1,.78-.78A.78.78,0,0,1,605.62,81.18Zm0-1.35a.58.58,0,1,0,.58.58A.58.58,0,0,0,605.62,79.83Z"/><circle class="cls-10" cx="602.63" cy="79.27" r="0.64"/><path class="cls-2" d="M602.63,80a.74.74,0,1,1,.74-.74A.74.74,0,0,1,602.63,80Zm0-1.27a.54.54,0,1,0,.54.54A.54.54,0,0,0,602.63,78.73Z"/><circle class="cls-10" cx="599.54" cy="79.94" r="0.66"/><path class="cls-2" d="M599.54,80.7a.76.76,0,1,1,.76-.76A.76.76,0,0,1,599.54,80.7Zm0-1.33a.56.56,0,1,0,.56.56A.56.56,0,0,0,599.54,79.37Z"/><path class="cls-13" d="M582.82,99.53s-.12,12.13-5.5,15.88c0,0,3.75-10.87.88-18.63Z"/><path class="cls-2" d="M576.83,116l.25-.73c0-.11,3.69-10.88.88-18.46l-.25-.66,5.36,3.19v.14c0,.5-.19,12.3-5.61,16.08Zm1.82-18.71c2.06,6.46-.09,14.8-.85,17.36,4.31-3.85,4.73-13.73,4.77-15Z"/><path class="cls-13" d="M577.19,96.78s-5.37,10-4.12,19.75c0,0,.94.81,2.63-.56,0,0,8.44-14.37,7.31-18.19Z"/><path class="cls-2" d="M573.86,117a1.51,1.51,0,0,1-1-.3l-.07-.06v-.09c-1.25-9.72,4.1-19.8,4.15-19.9l.09-.16,6.14,1.06,0,.15c1.14,3.87-7,17.79-7.34,18.38l-.06.07A3.19,3.19,0,0,1,573.86,117Zm-.56-.63c.22.13,1,.4,2.2-.59.48-.82,8.11-14,7.3-17.8l-5.47-.94C576.66,98.37,572.21,107.53,573.3,116.39Z"/><path class="cls-13" d="M580.32,90.95s1.5,13.83-3.17,19.83c0,0-.46-17-1.83-19.83Z"/><path class="cls-2" d="M576.92,111.48l0-.7c0-.17-.47-17-1.81-19.73l-.18-.36h5.63l0,.22c.06.57,1.46,14-3.22,20ZM575.69,91.2c1.13,3.22,1.59,15.62,1.69,18.84,3.74-5.69,2.87-17.1,2.71-18.84Z"/><path class="cls-13" d="M581.61,93.64a2.22,2.22,0,0,0,1.31-1.18A28.21,28.21,0,0,0,585.14,88a2.39,2.39,0,0,0,.23-1.21c0-.32-2.11.17-2.33.33a2.38,2.38,0,0,0-.65,1.48C582,90.27,582.29,92.06,581.61,93.64Z"/><path class="cls-2" d="M581.19,94l.19-.43a8.71,8.71,0,0,0,.53-2.92,13.85,13.85,0,0,1,.24-2.06l0-.17a2.28,2.28,0,0,1,.7-1.45,5.17,5.17,0,0,1,2.5-.44.35.35,0,0,1,.23.27,2.6,2.6,0,0,1-.25,1.34,28.48,28.48,0,0,1-2.24,4.49,2.4,2.4,0,0,1-1.48,1.29Zm3.86-7a6.81,6.81,0,0,0-1.86.4,1.89,1.89,0,0,0-.51,1.15l0,.18a13.55,13.55,0,0,0-.23,2,11.39,11.39,0,0,1-.36,2.5,3.25,3.25,0,0,0,.66-.82,28,28,0,0,0,2.2-4.41,2.44,2.44,0,0,0,.23-1Z"/><path class="cls-1" d="M616.19,213.53s-8.37-2.12-12.75-8.5c0,0,7.13-.37,12.63,1.5,0,0-.25,2.13,3.13,2s1.75-5.12.75-5.87-8.75-2-11.87-2.5-10.1-1.87-9.74-2.87.36-3.75,4.86-4.12l1.63-.12s-2,5,1.25,4.25,1.75-4.25,1.13-5.87-4.5-4.75-11.62-1.75a13,13,0,0,0-8.5-6.12s-1.2-1.65-2.63-3.7c-9.17-18.43-28.74-37.22-28.74-37.22,8.5-10.17,16.88-31.83,16.88-31.83,2.75-19.75-8.09-17.83-8.09-17.83-19.34-4.5-21.16,39.32-21.16,39.32-10.62,9.11-5.87,18.14-5.87,18.14,4.63,14,31.81,35.75,31.81,35.75s-.43-.87,1.07-.12a1.19,1.19,0,0,0,.33.08s.33,6.34,1.5,9.17,7,5.17,7,5.17,1.67,5.17,2.67,8c0,0,.5,10.5,1.83,10.83s8.74,5.25,2.64-17.37c0,0,7,5.63,8,10a7.76,7.76,0,0,1,1.5,5.13s2.39,4.88,5.26,7.5l1.49,4.88a10.52,10.52,0,0,1,1.5,4.88s3.25,4.25,5.38-2.75c0,0-1.75-10.37-7.37-15.5a12,12,0,0,1-1.62-5.19A35,35,0,0,0,612.82,218s2.13.88,2.88.38c0,0,1.25.63,1.25,5.5,0,0,3,5.63,5.13-1.75C622.07,222.15,622.94,214.65,616.19,213.53Z"/><path class="cls-2" d="M606.27,235.81a3.53,3.53,0,0,1-2.41-1.38l-.05-.07v-.08a10.31,10.31,0,0,0-1.46-4.74l0-.06-1.47-4.81a30.22,30.22,0,0,1-5.26-7.53l0-.06V217a7.55,7.55,0,0,0-1.44-5l-.05-.11c-.8-3.5-5.63-7.89-7.34-9.36,2.57,9.74,2.88,15.32.94,17-1.15,1-2.76.39-3.63,0a4.34,4.34,0,0,0-.46-.17c-1.4-.35-1.9-8.48-2-11-.91-2.58-2.37-7.1-2.62-7.86-.84-.35-5.91-2.54-7-5.26s-1.44-7.94-1.51-9.05l-.21-.07a2.28,2.28,0,0,0-.75-.28l0,.07.5,1-.88-.71c-.27-.22-27.3-22-31.89-35.87,0-.05-4.68-9.23,5.87-18.34a114.78,114.78,0,0,1,2-15.54c2.23-11.11,5.68-18.51,10.26-22a10.61,10.61,0,0,1,9.18-1.92,6.89,6.89,0,0,1,5.59,1.9c2.92,2.82,3.85,8.28,2.74,16.22-.1.27-8.4,21.62-16.78,31.78,1.93,1.89,20,19.77,28.63,37.13,1.22,1.75,2.3,3.24,2.56,3.58a13.38,13.38,0,0,1,8.46,6c4.27-1.75,7.21-1.25,8.93-.52a5.13,5.13,0,0,1,2.82,2.5l.08.19c.48,1.23,1.28,3.29.53,4.7a2.7,2.7,0,0,1-1.91,1.31,1.68,1.68,0,0,1-1.77-.37c-.8-.93-.21-3,.09-3.84l-1.24.1c-3.7.31-4.2,2.27-4.5,3.44-.05.2-.1.38-.15.52.13.56,4.5,1.74,9.54,2.54s11,1.84,12,2.55a5.67,5.67,0,0,1,1.24,4.81,2.1,2.1,0,0,1-2.13,1.52,3.6,3.6,0,0,1-2.88-.85,1.93,1.93,0,0,1-.51-1.22,39,39,0,0,0-11.9-1.45c4.27,5.84,12,7.94,12.33,8,6.89,1.16,6.08,8.82,6.07,8.9-.73,2.56-1.67,3.9-2.78,4-1.56.16-2.76-2.08-2.81-2.18l0-.12c0-3.79-.77-4.93-1-5.2-.91.37-2.72-.35-2.94-.44a36.54,36.54,0,0,1-12-6.81,12.11,12.11,0,0,0,1.52,4.42c5.6,5.13,7.41,15.51,7.43,15.62v.06l0,.06c-.77,2.54-1.8,3.95-3,4.17A2,2,0,0,1,606.27,235.81Zm-2-1.62a2.72,2.72,0,0,0,2.23,1.09c1-.19,1.94-1.49,2.64-3.77-.15-.83-2-10.49-7.29-15.3l0-.05a12.14,12.14,0,0,1-1.66-5.32l0-.64.45.45a35.12,35.12,0,0,0,12.28,7.14c.79.32,2.19.71,2.66.4l.12-.08.13.06c.14.07,1.38.83,1.39,5.66.18.32,1.2,2,2.29,1.86.88-.09,1.69-1.34,2.35-3.62,0-.26.76-7.24-5.68-8.31h0c-.08,0-8.52-2.22-12.89-8.6l-.25-.37.45,0c.07,0,7.24-.36,12.72,1.51l.19.07,0,.2a1.41,1.41,0,0,0,.38,1,3.21,3.21,0,0,0,2.48.69,1.63,1.63,0,0,0,1.67-1.17,5.23,5.23,0,0,0-1.06-4.26c-.64-.48-4.6-1.31-11.76-2.45-.93-.15-9.13-1.5-9.89-2.78a.49.49,0,0,1,0-.43c0-.13.09-.29.13-.47.31-1.21.88-3.48,4.94-3.81l2-.16-.15.37c-.31.77-1,2.94-.31,3.7.24.28.67.35,1.27.21a2.2,2.2,0,0,0,1.58-1.06c.64-1.21-.11-3.14-.55-4.29l-.08-.2a4.63,4.63,0,0,0-2.55-2.22c-1.65-.7-4.52-1.17-8.74.61l-.21.09-.11-.21a12.82,12.82,0,0,0-8.33-6l-.09,0-.06-.08s-1.22-1.67-2.64-3.7c-9.07-18.21-28.51-37-28.71-37.18l-.17-.16.15-.18c8.38-10,16.75-31.54,16.83-31.76,1.05-7.61.16-13.06-2.6-15.73a6.49,6.49,0,0,0-5.22-1.77h-.1A10.15,10.15,0,0,0,555.6,95c-10.71,8.15-12,37-12,37.26v.11l-.08.07c-10.34,8.86-5.86,17.75-5.82,17.83,4.27,12.91,28.06,32.66,31.36,35.36l0,0c.23-.23.63-.17,1.36.2a1,1,0,0,0,.26.06l.2,0v.2c0,.26.36,6.35,1.48,9.08s6.8,5,6.86,5l.11,0,0,.11c0,.05,1.68,5.2,2.66,8v.07c.24,5,.93,10.42,1.64,10.6a4.89,4.89,0,0,1,.52.19c.82.33,2.2.87,3.11.05,1.24-1.1,2-5-1.3-17.3l-.2-.74.6.48c.29.23,7,5.68,8.1,10.08a8,8,0,0,1,1.52,5.18,29.78,29.78,0,0,0,5.17,7.37l.05,0,1.5,4.91A10.69,10.69,0,0,1,604.32,234.19Z"/><g class="cls-3"><path class="cls-4" d="M621.44,223.71c-1.63-4.48-7.3-9.21-11-12.26a5.06,5.06,0,0,1-2.62-2,20.17,20.17,0,0,1-2.77-2.43,50.05,50.05,0,0,1-6.53-6.51,42.78,42.78,0,0,0-13.46-10.82c-2.58-1.42-5.22-2.44-6.92-4.43a5,5,0,0,1-1.81.36,5.87,5.87,0,0,1-.64.1,5.26,5.26,0,0,1-1.42.19h0a6.38,6.38,0,0,1-.64.07,5.39,5.39,0,0,1-1.19.13h-.15a5.58,5.58,0,0,1-.73.05,5.51,5.51,0,0,1-.94-.08l0,.05s.33,6.33,1.5,9.17,7,5.17,7,5.17,1.67,5.17,2.67,8c0,0,.5,10.5,1.83,10.83s8.74,5.25,2.64-17.37c0,0,7,5.63,8,10a7.76,7.76,0,0,1,1.5,5.13s2.39,4.88,5.26,7.5l1.49,4.88a10.52,10.52,0,0,1,1.5,4.88s3.25,4.25,5.38-2.75c0,0-1.75-10.37-7.37-15.5a12,12,0,0,1-1.62-5.19A35,35,0,0,0,612.82,218s2.13.88,2.88.38c0,0,1.25.63,1.25,5.5,0,0,2.49,4.67,4.54-.09Z"/></g><g class="cls-3"><path class="cls-4" d="M571.75,171.05c-4.77-10.79-10.85-23-22.54-27.56l-.12-.07a2.13,2.13,0,0,1-2-2,2.52,2.52,0,0,1,.46-2.49,2,2,0,0,1,1.2-.93,1.85,1.85,0,0,1,1.13-1.17c3.36-1.43,5.75-6.86,7.53-9.89A59.79,59.79,0,0,0,563,113.42c1.92-6.37,4.72-12.38,7-18.61a6.69,6.69,0,0,0-5.47-1.87c-19.34-4.5-21.16,39.32-21.16,39.32-10.62,9.11-5.87,18.14-5.87,18.14,4.63,14,31.81,35.75,31.81,35.75s-.43-.87,1.07-.12c.67.33,3.92-.05,7.32-.58C575.83,180.59,573.84,175.8,571.75,171.05Z"/></g><path class="cls-1" d="M477.07,172s-28.25-38.87-79.75-35.37c0,0-18.62-.12-5.12,24.25,0,0,16,27,62.54,15Z"/><path class="cls-2" d="M432.26,179.16c-8.76,0-18-1.57-26.36-6.05C396.14,167.89,392,161.1,392,161c-5-9-6.21-15.72-3.66-20,2.71-4.57,8.85-4.61,9-4.61h0a95.44,95.44,0,0,1,80,35.48l.24.33-22.73,3.9A91.27,91.27,0,0,1,432.26,179.16Zm-28.52-42.47q-3.14,0-6.41.22c-.08,0-6,0-8.59,4.37-2.45,4.13-1.22,10.69,3.67,19.51,0,.06,4.1,6.75,13.76,11.9,16.16,8.61,35.29,6.35,48.5,2.94l21.95-3.77a93.62,93.62,0,0,0-20.27-18.63A92.64,92.64,0,0,0,403.75,136.68Z"/><path class="cls-1" d="M450.65,175.78c-31.74-.62-52.18,5-64.37,10.5-.78.08-22.19,2.55-21.21,32.5l.08.29c1.53-.1,8.62,2.54,9.75,4,1.28-.81,13.55,9.63,14.92,10.28l10.83-1-8.58-21.67-.69-2.92.44.13s8.88-8.25,33.63-6.5S474.07,189,474.07,189c11.63-10.12,0-20.62,0-20.62"/><path class="cls-2" d="M389.77,233.65l-.06,0a48.05,48.05,0,0,1-4.09-3c-3.17-2.48-9.79-7.64-10.58-7.24l-.2.12-.14-.19c-1.07-1.42-8.1-4-9.54-3.94H365l-.13-.49c-1-29.82,20-32.66,21.39-32.81,11.52-5.15,32-11.14,64.44-10.51v.5c-32.34-.63-52.8,5.35-64.26,10.48l-.08,0c-.9.09-22,2.59-21,32.24l0,.05c1.86.09,8.24,2.46,9.66,4h.08c1.21,0,4.61,2.47,10.86,7.35,1.84,1.44,3.44,2.69,3.94,3l10.43-1-8.46-21.36-.8-3.37.72.21c1.1-.92,10.57-8.11,33.7-6.47,24.37,1.72,48.24-12.2,48.48-12.34,3.3-2.88,5-6.1,5-9.53.06-6-5-10.64-5.08-10.69l.33-.37c.05,0,5.3,4.86,5.25,11.06,0,3.59-1.8,6.93-5.25,9.94-.28.17-24.27,14.16-48.81,12.44-12.72-.9-21.13.9-26,2.57-5.22,1.8-7.46,3.85-7.48,3.87l-.1.1-.16,0,.59,2.5,8.7,21.94Z"/><path class="cls-2" d="M441.47,191.56a64.66,64.66,0,0,1,9.46-1.47A29.53,29.53,0,0,0,447.31,176c-.05-.09-.09-.18-.14-.28q-5.92,0-11.29.22a41.9,41.9,0,0,1,4.8,15.75C440.95,191.66,441.21,191.62,441.47,191.56Z"/><path class="cls-2" d="M390.52,184.52a5.44,5.44,0,0,1,.86.34,58.22,58.22,0,0,0,15.8,4.9q-1.08-3-2.37-6a5.12,5.12,0,0,1-.22-3.6A111.36,111.36,0,0,0,390.52,184.52Z"/><path class="cls-2" d="M417.85,191.14c2,.18,3.92.34,5.86.5,2.35.19,4.74.44,7.12.59a32.69,32.69,0,0,0-5-14,5.1,5.1,0,0,1-.68-1.52c-4.3.44-8.3,1-12,1.65.07.13.13.26.19.4A114.3,114.3,0,0,1,417.85,191.14Z"/><g class="cls-3"><path class="cls-4" d="M392.68,217a33.52,33.52,0,0,1-1.63,6.5l.6.22c1.33-2.14,2.53-4.35,3.61-6.45l.09-.18-1.17-3c-.55.48-1.1,1-1.66,1.44A3.45,3.45,0,0,1,392.68,217Z"/></g><g class="cls-3"><path class="cls-4" d="M371.29,195.19a26.71,26.71,0,0,0-3.71,6.6h0c.24-.34.5-.69.78-1Z"/></g><g class="cls-3"><path class="cls-4" d="M457.31,176.83c-3.55-6.38-11.74-10.67-17.84-14.24-13.83-8.1-28.87-13.85-42.64-22.06A4.54,4.54,0,0,1,394.5,137c-4.62,1.15-12.35,5.73-2.31,23.86,0,0,7.23,12.13,26,16.49,3.94-.28,7.88-.51,11.82-1.14,2.83-.46,5.69-.8,8.53-1.19,1-.14,3.55.2,4.34-.12,2.47-1,5.42,1.09,6.06,3.44A91.46,91.46,0,0,1,451.29,190C457.23,188,460.76,183,457.31,176.83Z"/></g><g class="cls-3"><path class="cls-4" d="M409.15,179.15q-2.27.47-4.39,1c1.19,0,2.39,0,3.57-.09A5.18,5.18,0,0,1,409.15,179.15Z"/></g><path class="cls-1" d="M365.22,218s2.35,7.81-.9,14.06c0,0-3.75,11.25-9.25,16,0,0-3.28,6.5,5.61,3,0,0,15.44-12.31,14.19-29.31"/><path class="cls-2" d="M356.51,252.32a2.34,2.34,0,0,1-1.82-.65c-1.11-1.22.1-3.66.15-3.76l.06-.08c5.38-4.65,9.14-15.78,9.18-15.89,3.18-6.12.92-13.83.9-13.91l.48-.14c0,.08,2.34,8-.92,14.25,0,.08-3.8,11.28-9.27,16-.15.31-1,2.26-.2,3.15.5.55,1.85.9,5.48-.53.74-.61,15.27-12.75,14.07-29.08l.5,0c1.25,16.94-14.13,29.4-14.28,29.53l-.06,0A12.48,12.48,0,0,1,356.51,252.32Z"/><path class="cls-1" d="M386.57,233.28s-9.75,2.5-13.5-19a15.22,15.22,0,0,1,13.5,8.75l7.75,7.75S390.78,234,386.57,233.28Z"/><path class="cls-2" d="M387.86,233.64a7.57,7.57,0,0,1-1.29-.11,7.07,7.07,0,0,1-5.14-1.25c-2.82-1.82-6.6-6.42-8.62-18l0-.29h.29a15.6,15.6,0,0,1,13.71,8.85l7.9,7.9-.19.18A10.84,10.84,0,0,1,387.86,233.64Zm-1.31-.62h.05c3.49.62,6.54-1.62,7.34-2.27l-7.61-7.63a15,15,0,0,0-13-8.6c2,11.15,5.63,15.58,8.34,17.33a6.57,6.57,0,0,0,4.8,1.17Z"/><path class="cls-1" d="M389.07,250.53s-1.75-10.28,0-17.14c0,0,7-4.86,8.75,2.39,0,0-.5,14.64-3.75,17.07,0,0,.75,9.18-2.75,15.43,0,0,2.25,6-1,14.25,0,0,4.44,19.75-2,24,0,0-2.72,1.75-3.72-4.75,0,0-1.5-16.5,0-19,0,0-.25-7.77,2.75-13.51C387.32,269.27,383.07,264.78,389.07,250.53Z"/><path class="cls-2" d="M387.48,307a1.83,1.83,0,0,1-.76-.17c-1.16-.52-2-2.21-2.4-5-.06-.69-1.47-16.36,0-19.1,0-.79-.06-8,2.7-13.41-.67-.87-3.67-5.79,1.79-18.8-.15-.94-1.65-10.64,0-17.17l0-.09.08-.05c.14-.1,3.53-2.42,6.27-1.37,1.4.53,2.37,1.85,2.87,3.91v.07c0,.6-.53,14.48-3.74,17.18.07,1.16.47,9.51-2.74,15.34.28.87,2,6.65-1,14.25.34,1.54,4.25,20-2.15,24.19A1.88,1.88,0,0,1,387.48,307Zm1.81-73.45c-1.68,6.73,0,16.84,0,16.94v.07l0,.07c-5.85,13.88-1.84,18.43-1.8,18.47l.12.13-.08.16c-2.93,5.61-2.72,13.31-2.72,13.39v.07l0,.06c-1.15,1.92-.48,13.17,0,18.85.5,3.24,1.42,4.3,2.1,4.61a1.37,1.37,0,0,0,1.24-.05c6.25-4.11,2-23.54,1.92-23.73l0-.07,0-.07c3.17-8.05,1-14,1-14.07l0-.11.06-.1c3.42-6.11,2.73-15.2,2.72-15.29v-.14l.11-.08c3-2.28,3.62-16.06,3.65-16.85-.46-1.87-1.32-3.05-2.55-3.52C392.73,231.41,389.79,233.21,389.29,233.55Z"/><path class="cls-1" d="M375.82,200s13,1.5,15.5,8.5c0,0,5.5,3.07,5.25,11,0,0,6-.54,6.25,8.71l-2.75,1.5s1.75,6.5,1,11.75c0,0,6.25,0,6,15l8.75,10.25s3.5,7.25-3.25,4.75c0,0-6.5-6.5-7.5-13.25,0,0-6,1.25-7.75-17.5,0,0-1.84-6-1-9"/><path class="cls-2" d="M414.92,272.3a7.3,7.3,0,0,1-2.44-.54l-.09-.06c-.06-.06-6.42-6.49-7.53-13.16a3.48,3.48,0,0,1-2.11-.79c-2-1.48-4.62-5.63-5.68-17-.07-.2-1.84-6-1-9.07l.48.13c-.77,2.91,1,8.79,1,8.85,1.05,11.2,3.56,15.23,5.49,16.65a2.72,2.72,0,0,0,2,.68l.26-.05,0,.26c.94,6.33,6.86,12.53,7.39,13.07,1.71.62,2.88.65,3.4.07.88-1-.05-3.53-.5-4.47l-8.79-10.3v-.09c.14-8.21-1.69-11.83-3.25-13.41a3.92,3.92,0,0,0-2.5-1.33h-.29l0-.29c.73-5.14-1-11.59-1-11.65l-.05-.19,2.79-1.52c-.11-3.27-1-5.63-2.53-7a5,5,0,0,0-3.44-1.29l-.28,0v-.28c.24-7.71-5.07-10.78-5.12-10.81l-.08,0,0-.09c-2.42-6.77-15.17-8.32-15.29-8.34l.06-.5c.53.06,13.08,1.59,15.68,8.58.69.43,5.42,3.65,5.3,10.95a5.54,5.54,0,0,1,3.54,1.42c1.7,1.51,2.61,4,2.7,7.54v.15l-2.71,1.48c.27,1.1,1.58,6.71,1,11.4a4.74,4.74,0,0,1,2.57,1.46c1.62,1.65,3.52,5.36,3.4,13.68L416,266.67c.07.15,1.73,3.63.44,5.05A2,2,0,0,1,414.92,272.3Z"/><path class="cls-1" d="M401.32,229.53s9.25,6.75,13.5,7.75,5,5.75-1.25,6.25c0,0-11.75-3.78-17.25-10.14"/><path class="cls-2" d="M413.54,243.78l0,0c-.12,0-11.88-3.87-17.36-10.21l.38-.33c5.22,6,16.28,9.78,17.09,10,2.57-.22,4.17-1.2,4.28-2.64s-1.21-2.67-3.12-3.12c-4.25-1-13.21-7.51-13.59-7.79l.29-.4c.09.07,9.26,6.73,13.41,7.71,2.15.51,3.62,2,3.5,3.64s-1.92,2.87-4.79,3.1Z"/><path class="cls-1" d="M399.57,222.28s-9.5-3-3-7c0,0,6,.5,7.25,3.5,0,0,9.5.61,10.75,5.06,0,0,10.75.69,12.25,5.69a15.78,15.78,0,0,1-14-2.75S401.32,227,399.57,222.28Z"/><path class="cls-2" d="M422.64,230.36a16.42,16.42,0,0,1-9.91-3.33c-1.14,0-11.5,0-13.36-4.55-.78-.26-5-1.79-5.32-4.12-.14-1.13.66-2.24,2.38-3.29l.07,0h.08c.25,0,6,.53,7.4,3.51,1.26.1,9.39.9,10.77,5.06,1.45.12,10.86,1,12.3,5.86l.07.23-.22.08A14.11,14.11,0,0,1,422.64,230.36Zm-9.75-3.83.07.05a15.76,15.76,0,0,0,13.53,2.79c-1.7-4.57-11.84-5.27-11.95-5.28h-.18l0-.17c-1.19-4.22-10.43-4.87-10.53-4.87h-.15l-.06-.14c-1.1-2.64-6.25-3.27-7-3.34-1.49.93-2.18,1.86-2.07,2.76.27,2.19,5,3.73,5.09,3.74l.12,0,0,.12c1.67,4.53,12.9,4.34,13,4.34Z"/><circle class="cls-24" cx="507.51" cy="130.22" r="3.99"/><circle class="cls-11" cx="507.51" cy="130.22" r="2.99"/><circle class="cls-24" cx="504.4" cy="110.75" r="4.66"/><circle class="cls-11" cx="504.4" cy="110.75" r="3.66"/><circle class="cls-24" cx="525.07" cy="113.57" r="4.66"/><circle class="cls-11" cx="525.07" cy="113.57" r="3.66"/><circle class="cls-24" cx="482.69" cy="124.14" r="2.53"/><circle class="cls-11" cx="482.69" cy="124.14" r="1.53"/><circle class="cls-24" cx="542.32" cy="110.75" r="2.53"/><circle class="cls-11" cx="542.32" cy="110.75" r="1.53"/><circle class="cls-24" cx="464.74" cy="136.76" r="2.56"/><circle class="cls-11" cx="464.74" cy="136.76" r="1.56"/><circle class="cls-24" cx="467.99" cy="120.89" r="3.25"/><circle class="cls-11" cx="467.99" cy="120.89" r="2.25"/><circle class="cls-24" cx="498.36" cy="98.14" r="3.25"/><circle class="cls-11" cx="498.36" cy="98.14" r="2.25"/><circle class="cls-24" cx="445.37" cy="136.76" r="3.25"/><circle class="cls-11" cx="445.37" cy="136.76" r="2.25"/><circle class="cls-24" cx="474.49" cy="106.09" r="3.25"/><circle class="cls-11" cx="474.49" cy="106.09" r="2.25"/><circle class="cls-24" cx="486.75" cy="144.13" r="1.52"/><circle class="cls-11" cx="486.75" cy="144.13" r="0.52"/><circle class="cls-24" cx="522.64" cy="99.15" r="2.37"/><circle class="cls-11" cx="522.64" cy="99.15" r="1.37"/><circle class="cls-24" cx="434.84" cy="123.56" r="2.67"/><circle class="cls-11" cx="434.84" cy="123.56" r="1.67"/><circle class="cls-24" cx="535.08" cy="129.69" r="3.01"/><circle class="cls-11" cx="535.08" cy="129.69" r="2.01"/><circle class="cls-24" cx="475.78" cy="143.82" r="3.89"/><circle class="cls-11" cx="475.78" cy="143.82" r="2.89"/></svg>