<svg id="Layer_1" data-name="Layer 1" xmlns="http://www.w3.org/2000/svg" viewBox="0 0 50.73 46.91"><defs><style>.cls-1{fill:#00a7ee;}.cls-2{fill:#010101;}.cls-3{fill:#1e0e00;}.cls-4{fill:#0088c6;}.cls-5{fill:#31100d;}.cls-6{fill:#031825;}.cls-7{fill:#cdcac5;}.cls-8{fill:#1a1119;}</style></defs><title>butterfly</title><g id="_Group_" data-name="&lt;Group&gt;"><path class="cls-1" d="M25.39,18.72c.69,0,1.24-.58,2-.7a25.58,25.58,0,0,1,3.42-.32c4.57,2.81,4.7,6.8,10.18,7.19a5.65,5.65,0,0,0-.27,1.24c0,1.15,1.75,1.48,1.75,2.57,0,.62-2.08-.18-2.07,1.54,0,.75.56,1.5.7,2.26-1.58.35-3.92.38-4.07,2.51a.53.53,0,0,1-.59.57c-.57,0-1.43-.43-1.92-.43s-.95,2.08-1.56,2.08-1.3-1.74-2.69-1.83c-.15,0-.24-.18-.27-.29a4.43,4.43,0,0,0-1.62-2.43c-2.84-5.17-.68-9.57-2.94-13.82-2.25,4.26-.08,8.65-2.9,13.82a4.42,4.42,0,0,0-1.61,2.43c0,.12-.12.28-.27.29-1.39.09-2,1.83-2.68,1.84s-.94-2.07-1.56-2.07-1.35.43-1.92.43a.53.53,0,0,1-.59-.57c-.16-2.13-2.5-2.16-4.08-2.51.14-.76.69-1.51.69-2.26,0-1.72-2.08-.92-2.08-1.53,0-1.09,1.75-1.42,1.74-2.57a5.66,5.66,0,0,0-.28-1.24c5.48-.4,5.6-4.39,10.16-7.2a25.59,25.59,0,0,1,3.42.32C24.14,18.14,24.69,18.69,25.39,18.72Z"/><path class="cls-2" d="M45.29,26.07c0,1.06-1.66.84-1.66,1.7,0,.64,1.54,1.05,1.54,2.38,0,1.63-2.5.72-2.5,1.91,0,.59.57,1.52.57,2.46,0,1.4-1.62.23-2,2.9,0,.32-.81.47-.81.78,0,4,2.5,6.21,2.5,7.67,0,.56-.12,1-1,1-1.57,0-1.51-2-1.52-3.68,0-.27,0-.54,0-.81a2.72,2.72,0,0,0-2.32-2.32c-1.18,0-1.23,1.51-1.73,1.52-.34,0-.51-.6-1.12-.6-1,0-1,1.39-2.21,1.39s-.4-2.93-1.48-2.93c-.22,0-.51.06-.78.06-1.53,0-.1-3.32-1.71-5.65a13.9,13.9,0,0,1-.74-1.19,4.43,4.43,0,0,1,1.62,2.43c0,.12.12.28.27.29,1.39.09,2,1.83,2.69,1.83s.93-2.08,1.56-2.08,1.35.43,1.92.43A.53.53,0,0,0,37,35c.16-2.13,2.49-2.16,4.07-2.51-.14-.76-.7-1.51-.7-2.26,0-1.72,2.07-.92,2.07-1.54,0-1.09-1.75-1.42-1.75-2.57a5.65,5.65,0,0,1,.27-1.24c-5.48-.39-5.61-4.38-10.18-7.19h.61C41.92,17.68,45.29,25.22,45.29,26.07Z"/><path class="cls-2" d="M5.51,26.1c0,1.06,1.66.83,1.66,1.7,0,.64-1.54,1.05-1.54,2.38,0,1.63,2.5.72,2.5,1.91,0,.59-.57,1.52-.56,2.46,0,1.4,1.62.23,2,2.89,0,.32.81.46.81.78,0,4-2.49,6.21-2.48,7.67,0,.56.12,1,1,1,1.57,0,1.51-2,1.51-3.69,0-.27,0-.54,0-.81a2.72,2.72,0,0,1,2.31-2.32c1.18,0,1.23,1.51,1.73,1.51.34,0,.5-.6,1.12-.6,1,0,1,1.39,2.22,1.39s.39-2.93,1.47-2.93c.22,0,.51.06.78.06,1.53,0,.09-3.32,1.7-5.66a13.88,13.88,0,0,0,.73-1.19,4.42,4.42,0,0,0-1.61,2.43c0,.12-.12.28-.27.29-1.39.09-2,1.83-2.68,1.84s-.94-2.07-1.56-2.07-1.35.43-1.92.43a.53.53,0,0,1-.59-.57c-.16-2.13-2.5-2.16-4.08-2.51.14-.76.69-1.51.69-2.26,0-1.72-2.08-.92-2.08-1.53,0-1.09,1.75-1.42,1.74-2.57a5.66,5.66,0,0,0-.28-1.24c5.48-.4,5.6-4.39,10.16-7.2h-.61C8.85,17.71,5.5,25.25,5.51,26.1Z"/></g><path class="cls-3" d="M26.44,22.29c.79,3.65,1.57,1.15,3.44,10.43.15.79.47,2.63,0,3.32l-.09,0a1.72,1.72,0,0,1,0-.61,37.24,37.24,0,0,0-1.69-8.93,18.59,18.59,0,0,1-1.77-4.18Z"/><path class="cls-3" d="M24.43,22.31c-.66,3.27-2.17,2.63-3.38,11.53A6.57,6.57,0,0,0,21,35.43,1.71,1.71,0,0,1,21,36l-.09,0c-.69-1.12.49-5.54.88-7.08a13.9,13.9,0,0,1,1.83-4.58,8.59,8.59,0,0,0,.74-2.1Z"/><path class="cls-3" d="M26.37,21.55c.88,1,1.33.93,1.81,1.61C29.5,25,32,28.27,33.45,26.49c.11-.13.06-.13.07-.29l0-.68c.09-1.67-2.2-1.64-3.06-3.56l.09,0c.86,1.89,3.14,1.82,3.08,3.58,0,.93.07.94-.39,1.28-2.14,1.52-4.94-3.48-6-4.17a2.8,2.8,0,0,1-1-1Z"/><path class="cls-3" d="M24.48,21.6a2.79,2.79,0,0,1-1,1c-.91.62-.72.9-2.23,2.6-1.17,1.31-2.87,2.69-4,1.34-.13-.17-.08-.17-.1-.36a3.21,3.21,0,0,1,.08-1.34c.56-1.21,2.23-1.3,3-2.93l.09,0c-1,2.2-3.51,1.63-3,4.41,0,.12.22.28.32.35,1.63,1.14,3.87-2,5-3.57.47-.67.94-.66,1.81-1.62Z"/><path class="cls-3" d="M33.24,24.37a16.94,16.94,0,0,1,8.45,2.84l0,.07C40.37,26.86,38.18,25.1,33.24,24.37Z"/><path class="cls-3" d="M17.54,24.38c-5,.74-7.09,2.5-8.4,2.93l0-.07A17.43,17.43,0,0,1,17.54,24.38Z"/><path class="cls-3" d="M33.58,26c5.36,3.26,2.51,1.63,7.73,5a.74.74,0,0,1,.3.29l-.05.07a.77.77,0,0,1-.39-.17C36.38,28,39.85,30.19,33.58,26Z"/><path class="cls-3" d="M17.21,26c-6.35,4.23-2.91,2-7.58,5.24a.77.77,0,0,1-.38.17l-.05-.07a.74.74,0,0,1,.3-.29C14.83,27.6,11.77,29.37,17.21,26Z"/><path class="cls-3" d="M32.94,27c1.13,2,3.34,4.35,5.3,7.69l-.3.14C36.11,31.43,34,29,32.94,27Z"/><path class="cls-3" d="M17.85,27c-1.09,2.09-3.11,4.36-5,7.83l-.3-.14C14.59,31.23,16.68,29.07,17.85,27Z"/><path class="cls-3" d="M31.88,26.88c.76,2,0,1.47,1.34,4.73.89,2.12.48,1.09,1.84,4.62l-.27.08c-1.26-3.58-.81-2.35-2-5.51C32.08,29.18,32.45,28.54,31.88,26.88Z"/><path class="cls-3" d="M18.92,26.89A21.08,21.08,0,0,0,18.35,30s-1.27,3.4-2.31,6.37l-.27-.08c3.06-8,2.25-4.87,2.87-8.49A4.91,4.91,0,0,1,18.92,26.89Z"/><path class="cls-3" d="M29.9,25.42c.42,4.13,2.53,9,1.49,11.9H31.3a4.78,4.78,0,0,1-.08-1.12C31.24,30.55,30.08,30.34,29.9,25.42Z"/><path class="cls-3" d="M20.89,25.43c-.16,4.75-1.33,5.27-1.29,10.78a4.79,4.79,0,0,1-.08,1.12h-.09C18.43,34.55,20.5,29.37,20.89,25.43Z"/><g id="_Group_2" data-name="&lt;Group&gt;"><path class="cls-4" d="M33.1,14.8c-.39-.09-.64-.14-.55-.1S32.77,14.74,33.1,14.8Zm-14.87-.09c.08,0-.16,0-.55.1C18,14.75,18.17,14.73,18.22,14.71Zm7.16,1.92q.23-.59.52-1.22c3.33-1,6.65-3.34,6.84-7,.1-1.94,2.35-2.56,4-3.5a2.18,2.18,0,0,0,0,.43c0,.72.53.83,1.22.83,3,0-2.68,1,2.81,1.91a30.93,30.93,0,0,1-2.75,1.56c.73.54,1.78.15,2.43.85a6.85,6.85,0,0,1-2.81.64c-.35,0-.28,0-.29,0a21.11,21.11,0,0,1,2.44.74c.49.2,1.26.57,1.37.6,1.32.34-1.88.76-5,.74a5.53,5.53,0,0,1-1.14-.11h0s8.77,2.09,5.88,2.09c-2.29,0-1.74.22-4.78.32-.06,0-1-.24-1.86-.46a9.82,9.82,0,0,0-1.08-.27l1.08.27.68.23c.1,0,7.16,2.54,5.33,2.54-1.28,0-2.52.59-3.79.59a3.44,3.44,0,0,1-1-.14c2.18.71,4.3,1.74,6.51,2.33h-.25c-3.19,0-6.2-.67-8.5-.67-1.21,0-2.44.1-3.65.1a9.85,9.85,0,0,1-4.14-.73,9.85,9.85,0,0,1-4.14.73c-1.21,0-2.43-.1-3.65-.09-2.31,0-5.31.68-8.5.68H8.85c2.21-.6,4.33-1.63,6.5-2.34a3.43,3.43,0,0,1-1,.14c-1.27,0-2.51-.58-3.79-.58-1.82,0,5.23-2.52,5.33-2.55l.68-.23,1.08-.27a9.81,9.81,0,0,0-1.08.27c-.88.23-1.8.47-1.85.46-3-.1-2.49-.31-4.78-.31-2.89,0,5.88-2.1,5.88-2.1h0a5.53,5.53,0,0,1-1.13.12c-3.12,0-6.32-.39-5-.74.11,0,.88-.4,1.37-.6a21.1,21.1,0,0,1,2.44-.74s.05,0-.29,0a6.85,6.85,0,0,1-2.81-.63c.65-.7,1.7-.31,2.43-.86A31,31,0,0,1,10.06,8.1c5.48-.88-.24-1.92,2.8-1.92.68,0,1.22-.12,1.21-.84A2.18,2.18,0,0,0,14,4.91c1.62.93,3.86,1.55,4,3.49.21,3.68,3.53,6,6.86,7Q25.15,16,25.38,16.63Z"/><path class="cls-2" d="M36.08,13.24c3.12,0,6.32-.4,5-.74-.11,0-.88-.4-1.37-.6a19.63,19.63,0,0,0-2.44-.74s-.07,0,.29,0a6.85,6.85,0,0,0,2.81-.64c-.65-.7-1.7-.31-2.43-.85a30.93,30.93,0,0,0,2.75-1.56c-5.49-.87.23-1.92-2.81-1.91-.68,0-1.22-.11-1.22-.83a2.18,2.18,0,0,1,0-.43c-1.62.93-3.86,1.56-4,3.5-.2,3.68-3.52,6-6.84,7C29,8.78,36.73,0,45,0c2.52,0,5.7,1.52,5.7,3.28,0,1.13-2.39,3.54-2.38,7.26,0,.71.13,1.64.13,1.68,0,1.11-1,2-1.39,3.15-.75,2.41-.11,5.17-5.16,5.26C39.72,20,37.59,19,35.42,18.29a3.44,3.44,0,0,0,1,.14c1.27,0,2.51-.59,3.79-.59,1.82,0-5.23-2.51-5.33-2.54s-2.22-.59-2.43-.66a21.87,21.87,0,0,0,3.57.58,29.47,29.47,0,0,0,4.81,0c2.89,0-5.88-2.09-5.88-2.09h0A5.53,5.53,0,0,0,36.08,13.24Z"/><path class="cls-2" d="M14.68,13.25c-3.12,0-6.32-.39-5-.74.11,0,.88-.4,1.37-.6a19.61,19.61,0,0,1,2.44-.74s.07,0-.29,0a6.85,6.85,0,0,1-2.81-.63c.65-.7,1.7-.31,2.43-.86A31,31,0,0,1,10.06,8.1c5.48-.88-.24-1.92,2.8-1.92.68,0,1.22-.12,1.21-.84A2.18,2.18,0,0,0,14,4.91c1.62.93,3.86,1.55,4,3.49.21,3.68,3.53,6,6.86,7C21.76,8.79,14,0,5.69,0,3.17,0,0,1.55,0,3.31c0,1.13,2.4,3.54,2.4,7.26,0,.71-.13,1.64-.13,1.68,0,1.11,1,2,1.4,3.15.76,2.41.12,5.17,5.18,5.25,2.21-.6,4.33-1.63,6.5-2.34a3.43,3.43,0,0,1-1,.14c-1.27,0-2.51-.58-3.79-.58-1.82,0,5.23-2.52,5.33-2.55s2.22-.6,2.43-.66a21.86,21.86,0,0,1-3.57.58,29.47,29.47,0,0,1-4.81,0c-2.89,0,5.88-2.1,5.88-2.1h0A5.53,5.53,0,0,1,14.68,13.25Z"/></g><path class="cls-3" d="M32.3,8.34c.57-1.69,3.07-1.07,3.32-1.61.18-1.45.18-1.93,1.1-2.48l0,.08c-.52.35-.39.31-.67.73-.74,2.4.54,1.74-2.06,2.21-1.52.26-1.65,1.09-1.65,1.09Z"/><path class="cls-3" d="M18.36,8.38a1.37,1.37,0,0,0-.64-.76,6.79,6.79,0,0,0-2.27-.49c-.85-.18-.29-.39-.8-2-.37-.55-.23-.43-.68-.73l0-.08c.93.55.92,1,1.11,2.47.25.52,2.76-.07,3.33,1.6Z"/><path class="cls-3" d="M35.71,6.71a.88.88,0,0,1,.48,0c1,.44,1.82,2.54,1.82,3-.12,2.68-6.84,5.63-10.49,8-2,1.29-1.88,1.71-3.24.69-4-2.81-10.5-5.36-11.41-8-.25-.57-.17-1,.37-2.06.39-.79.95-1.7,1.79-1.52v.09c-.76-.22-1.36.78-1.69,1.48-1.22,2.59-.14,3.12,7.86,7.93.72.43,1.43.87,2.12,1.34,1.27.87,1.46,1.19,2.08,1.36h0a2.93,2.93,0,0,0,1.07-.63c4-3,10.9-5.88,11.39-8.32.21-.65-.79-3-1.82-3.2a1,1,0,0,0-.3,0Z"/><path class="cls-3" d="M36.38,18.54c-.23,0-2.55-.39-2.79-.41-4.6-.56-5,.79-8.2,1.3a10.35,10.35,0,0,1-2.73-.77c-2.87-.94-3.4-.84-8.26-.09v0c8-1.88,7,0,11,.73h0c3.9-.71,3.06-2.6,11-.75Z"/><path class="cls-3" d="M26.46,19c.22-.07.41,0,.64,0,1.7.07,2.44-.1,3.1,1-1.06-1.44-3-.43-3.75-.95Z"/><path class="cls-3" d="M24.33,19.11c-.68.5-2.7-.49-3.75,1,.57-1,1.31-1,2.45-1a9.73,9.73,0,0,0,1.1-.07.66.66,0,0,1,.18,0Z"/><path class="cls-3" d="M26.06,20.2c2.32,1.89,1.4,1.75,7,1.77a22.87,22.87,0,0,1,7.53.92l0,.08a21.71,21.71,0,0,0-7.5-.9c-5.64,0-5,.2-7-1.81Z"/><path class="cls-3" d="M24.78,20.26c-1.94,2-1.37,1.83-7,1.82a21.62,21.62,0,0,0-7.5.91l0-.08c5.55-1.78,11.1-.19,13.07-1.53.72-.62,1-.82,1.41-1.18Z"/><path class="cls-5" d="M25.31,16.12c.27,1.14,1.24,2.44,1.46,3.78,0,0-.33,3.5-.33,3.5,0,.21-.42,6.1-1.11,6.1s-1-5.79-1-6c0,0-.46-3.57-.45-3.6C24.07,18.56,25,17.26,25.31,16.12Z"/><path class="cls-6" d="M25.3,12.14c.43,0,.94,1,.94,1.33s-.12.33-.73.33H25.1c-.61,0-.73-.09-.73-.33S24.88,12.19,25.3,12.14Z"/><path class="cls-7" d="M25.78,12.53a.86.86,0,0,0,0,.11c0,.33.2.53.3.53s.21,0,.21-.24a.42.42,0,0,0-.43-.4Z"/><path class="cls-7" d="M24.83,12.53a.86.86,0,0,1,0,.11c0,.33-.2.53-.29.53s-.21,0-.21-.24a.42.42,0,0,1,.42-.4Z"/><path class="cls-8" d="M25.31,13.62h.21a1,1,0,0,1,.37.07,2,2,0,0,1,1.24,2.07,6.73,6.73,0,0,1-.84,2.8c-.23.38-1.76.44-2,0a6.5,6.5,0,0,1-.84-2.8,2.05,2.05,0,0,1,1.27-2.05,1,1,0,0,1,.37-.07Z"/><path class="cls-8" d="M25.39,12.57C25,10.48,31.48,8,32.26,5.3c.2-.7,0-.95-.11-.86v0a.08.08,0,0,1,.09,0c.08,0,.09.18.09.33.05,2.88-6.51,5.11-6.83,7.81Z"/><path class="cls-8" d="M25.13,12.38c-.32-1.94-6.58-5.59-7.16-7.15,0-.13-.08-.27,0-.31s.08.07.09.06,0-.08-.09-.05C17.31,5.3,21,8.07,21.6,8.51c2.28,1.78,3.54,2.87,3.72,3.84Z"/></svg>