<svg id="Layer_1" data-name="Layer 1" xmlns="http://www.w3.org/2000/svg" viewBox="0 0 82.32 84.19"><defs><style>.cls-1{fill:#f4c859;}.cls-2{fill:#f4d987;}.cls-3{fill:#ffe199;}.cls-4{fill:#ffe38f;}.cls-5{fill:#eda300;}.cls-6{fill:#e39600;}.cls-7{fill:#f0b130;}.cls-8{fill:#eb9c00;}.cls-9{fill:#ffd14f;}.cls-10{fill:#753d05;}.cls-11{fill:#572d04;}.cls-12{fill:#a65b06;}</style></defs><title>Dias Assets</title><path class="cls-1" d="M82.2,19.79v0a8.07,8.07,0,0,0-5.77-7.64l-.56-.21L40.86.32a8.65,8.65,0,0,0-4.74,0L3.81,14.15a7.52,7.52,0,0,0-3.79,6v0L.13,58.58a8,8,0,0,0,3.2,5.75l37,18.76h0s4.6,2.53,8.49-.08l.4-.25,30.32-21a9.74,9.74,0,0,0,2.73-7c0-.34,0-.63,0-.88Z"/><path class="cls-2" d="M42.66,83.92a8.46,8.46,0,0,0,4.23,0Q44.78,83.92,42.66,83.92Z"/><path class="cls-2" d="M38.73,4.75c-3.95,11.09,6.16,6.58,11.66,5.83,5.22-.71,8,3,13,3,3.71.05,6.79-1.3,10-2.57L40.86.32c-.24-.07-.47-.12-.7-.16A23.68,23.68,0,0,1,38.73,4.75Z"/><path class="cls-3" d="M4.75,16.79s-1.81-1.51,1.43-3S34.69,1.47,34.69,1.47,38.5-.19,41.76.68l.62.14L40.86.32a8.65,8.65,0,0,0-4.74,0L3.81,14.15a6.54,6.54,0,0,0-2.36,2C1.61,16.28,6.38,18.79,4.75,16.79Z"/><path class="cls-4" d="M76.42,12.1l-.56-.21L41.62.57l.14.11S75.35,12.26,77,13.17a1.72,1.72,0,0,1,.53,2.56c-1.92,2.49,3.05-.72,3.05-.72h0A8.41,8.41,0,0,0,76.42,12.1Z"/><path class="cls-5" d="M45,33.75,1.44,16.18A8.18,8.18,0,0,0,.09,20V57.63A8.18,8.18,0,0,0,3,64.05l28.8,14.74,8.56,4.29h0A10.3,10.3,0,0,0,45,84.18Z"/><path class="cls-6" d="M43.57,63.42a30.48,30.48,0,0,1-16.1-10.57c-4.73-5.76-8.6-11.2-15.66-14.32C7.66,36.69,3.68,36.24.08,37.45V57.63A8.18,8.18,0,0,0,3,64.05l28.8,14.74,8.56,4.29h0A10.3,10.3,0,0,0,45,84.18V63.75Q44.31,63.62,43.57,63.42Z"/><path class="cls-5" d="M3.62,63.63A6.9,6.9,0,0,1,.13,58.51,8.07,8.07,0,0,0,3,64.05l28.8,14.74,8.56,4.29h0a10.4,10.4,0,0,0,4.38,1.1l-1.44-.64C43.44,83.54,3.62,63.63,3.62,63.63Z"/><path class="cls-7" d="M82.27,19.88A8.17,8.17,0,0,0,80.59,15L45,33.75V84.18a7.11,7.11,0,0,0,3.3-.86l30.86-21.2a9.52,9.52,0,0,0,3.1-7.23v-35Z"/><path class="cls-8" d="M77.1,52.16a20.91,20.91,0,0,1-10.2,2.47c-4.66-.14-8.8-1.7-13.09-3.38-3.49-1.37-6-2.71-8.79-.47v33.4a7.11,7.11,0,0,0,3.3-.86l30.86-21.2a9.52,9.52,0,0,0,3.1-7.23V50.56A11.54,11.54,0,0,0,77.1,52.16Z"/><path class="cls-9" d="M79.18,62.12a9.52,9.52,0,0,0,3.1-7.23v-.11a9.66,9.66,0,0,1-4,7c-.21.07-27.71,19.11-32.42,22.38a6.92,6.92,0,0,0,2.46-.8Z"/><path class="cls-9" d="M45,38.81s.21-5.1-6.47-7.69c0,0,7.32,2.17,12.35-.46C50.88,30.66,45.09,34.38,45,38.81Z"/><path class="cls-3" d="M6.86,18.39S1.7,15.32,4.4,13.89l-.59.25a6.54,6.54,0,0,0-2.36,2h0l-.08.12-.13.21,0,0A8.22,8.22,0,0,0,0,20.12V22C.24,20.71,1.43,16.2,6.86,18.39Z"/><ellipse class="cls-4" cx="66.35" cy="22.44" rx="15.7" ry="0.24" transform="translate(-2.81 33.53) rotate(-27.8)"/><ellipse class="cls-3" cx="22.89" cy="24.68" rx="0.55" ry="22.75" transform="translate(-8.54 36.72) rotate(-68.12)"/><ellipse class="cls-3" cx="45.06" cy="56.27" rx="0.6" ry="23.91"/><path class="cls-4" d="M80.89,15.43a8.05,8.05,0,0,0-3.68-3c3,1.36-1.23,5-1.23,5,4.89-2.57,6.05,1.25,6.28,2.4A8.2,8.2,0,0,0,80.89,15.43Z"/><path class="cls-4" d="M45,80.64s-1,3.45-3.05,3.1a8.11,8.11,0,0,0,6.53-.51C45.57,84.76,45,80.64,45,80.64Z"/><path class="cls-10" d="M68.71,44.22c-1.08-2.79-3.4-3.47-5.16-1.51s-2.3,5.84-1.2,8.68,3.41,3.52,5.16,1.51S69.79,47,68.71,44.22Z"/><path class="cls-11" d="M63.55,42.71A7.18,7.18,0,0,0,62,46a9,9,0,0,0,.57,3.14c1.1,2.83,3.41,3.51,5.16,1.51a7.42,7.42,0,0,0,1.54-3.35,8.86,8.86,0,0,0-.56-3.11C67.62,41.43,65.31,40.75,63.55,42.71Z"/><path class="cls-12" d="M68.12,44.39c-.94-2.42-2.94-3-4.47-1.31s-2,5.06-1,7.51,3,3,4.47,1.31A8.06,8.06,0,0,0,68.12,44.39Z"/><path class="cls-10" d="M25.88,51.36a9.17,9.17,0,0,0-5-7.78c-2.78-1.21-5,.28-5,3.33a9.25,9.25,0,0,0,5,7.78C23.62,55.93,25.88,54.44,25.88,51.36Z"/><path class="cls-11" d="M20.84,43.58a3.89,3.89,0,0,0-3.13-.16A4.27,4.27,0,0,0,17,45.94a9.24,9.24,0,0,0,5,7.78,3.86,3.86,0,0,0,3.13.18,4.32,4.32,0,0,0,.72-2.54A9.17,9.17,0,0,0,20.84,43.58Z"/><path class="cls-12" d="M25.42,50.82a7.94,7.94,0,0,0-4.36-6.73C18.65,43,16.7,44.32,16.7,47a8,8,0,0,0,4.36,6.73C23.47,54.77,25.42,53.48,25.42,50.82Z"/><path class="cls-10" d="M45.2,12.18a13.71,13.71,0,0,0-9.23.34c-2.28,1.15-1.83,2.89,1,3.88s7,.84,9.23-.34S48,13.14,45.2,12.18Z"/><path class="cls-11" d="M36,12.52c-1,.49-1.44,1.08-1.45,1.68a4.8,4.8,0,0,0,2,1.22c2.83,1,7,.84,9.23-.34,1-.5,1.43-1.1,1.44-1.7a4.71,4.71,0,0,0-2-1.2A13.71,13.71,0,0,0,36,12.52Z"/><path class="cls-12" d="M44.65,12.46a11.85,11.85,0,0,0-8,.29c-2,1-1.58,2.5.87,3.36a11.6,11.6,0,0,0,8-.29C47.48,14.8,47.09,13.3,44.65,12.46Z"/><path class="cls-1" d="M82.2,19.79v0a8.07,8.07,0,0,0-5.77-7.64l-.56-.21L40.86.32a8.65,8.65,0,0,0-4.74,0L3.81,14.15a7.52,7.52,0,0,0-3.79,6v0L.13,58.58a8,8,0,0,0,3.2,5.75l37,18.76h0s4.6,2.53,8.49-.08l.4-.25,30.32-21a9.74,9.74,0,0,0,2.73-7c0-.34,0-.63,0-.88Z"/><path class="cls-2" d="M42.66,83.92a8.46,8.46,0,0,0,4.23,0Q44.78,83.92,42.66,83.92Z"/><path class="cls-2" d="M38.73,4.75c-3.95,11.09,6.16,6.58,11.66,5.83,5.22-.71,8,3,13,3,3.71.05,6.79-1.3,10-2.57L40.86.32c-.24-.07-.47-.12-.7-.16A23.68,23.68,0,0,1,38.73,4.75Z"/><path class="cls-3" d="M4.75,16.79s-1.81-1.51,1.43-3S34.69,1.47,34.69,1.47,38.5-.19,41.76.68l.62.14L40.86.32a8.65,8.65,0,0,0-4.74,0L3.81,14.15a6.54,6.54,0,0,0-2.36,2C1.61,16.28,6.38,18.79,4.75,16.79Z"/><path class="cls-4" d="M76.42,12.1l-.56-.21L41.62.57l.14.11S75.35,12.26,77,13.17a1.72,1.72,0,0,1,.53,2.56c-1.92,2.49,3.05-.72,3.05-.72h0A8.41,8.41,0,0,0,76.42,12.1Z"/><path class="cls-5" d="M45,33.75,1.44,16.18A8.18,8.18,0,0,0,.09,20V57.63A8.18,8.18,0,0,0,3,64.05l28.8,14.74,8.56,4.29h0A10.3,10.3,0,0,0,45,84.18Z"/><path class="cls-6" d="M43.57,63.42a30.48,30.48,0,0,1-16.1-10.57c-4.73-5.76-8.6-11.2-15.66-14.32C7.66,36.69,3.68,36.24.08,37.45V57.63A8.18,8.18,0,0,0,3,64.05l28.8,14.74,8.56,4.29h0A10.3,10.3,0,0,0,45,84.18V63.75Q44.31,63.62,43.57,63.42Z"/><path class="cls-5" d="M3.62,63.63A6.9,6.9,0,0,1,.13,58.51,8.07,8.07,0,0,0,3,64.05l28.8,14.74,8.56,4.29h0a10.4,10.4,0,0,0,4.38,1.1l-1.44-.64C43.44,83.54,3.62,63.63,3.62,63.63Z"/><path class="cls-7" d="M82.27,19.88A8.17,8.17,0,0,0,80.59,15L45,33.75V84.18a7.11,7.11,0,0,0,3.3-.86l30.86-21.2a9.52,9.52,0,0,0,3.1-7.23v-35Z"/><path class="cls-8" d="M77.1,52.16a20.91,20.91,0,0,1-10.2,2.47c-4.66-.14-8.8-1.7-13.09-3.38-3.49-1.37-6-2.71-8.79-.47v33.4a7.11,7.11,0,0,0,3.3-.86l30.86-21.2a9.52,9.52,0,0,0,3.1-7.23V50.56A11.54,11.54,0,0,0,77.1,52.16Z"/><path class="cls-9" d="M79.18,62.12a9.52,9.52,0,0,0,3.1-7.23v-.11a9.66,9.66,0,0,1-4,7c-.21.07-27.71,19.11-32.42,22.38a6.92,6.92,0,0,0,2.46-.8Z"/><path class="cls-9" d="M45,38.81s.21-5.1-6.47-7.69c0,0,7.32,2.17,12.35-.46C50.88,30.66,45.09,34.38,45,38.81Z"/><path class="cls-3" d="M6.86,18.39S1.7,15.32,4.4,13.89l-.59.25a6.54,6.54,0,0,0-2.36,2h0l-.08.12-.13.21,0,0A8.22,8.22,0,0,0,0,20.12V22C.24,20.71,1.43,16.2,6.86,18.39Z"/><ellipse class="cls-4" cx="66.35" cy="22.44" rx="15.7" ry="0.24" transform="translate(-2.81 33.53) rotate(-27.8)"/><ellipse class="cls-3" cx="22.89" cy="24.68" rx="0.55" ry="22.75" transform="translate(-8.54 36.72) rotate(-68.12)"/><ellipse class="cls-3" cx="45.06" cy="56.27" rx="0.6" ry="23.91"/><path class="cls-4" d="M80.89,15.43a8.05,8.05,0,0,0-3.68-3c3,1.36-1.23,5-1.23,5,4.89-2.57,6.05,1.25,6.28,2.4A8.2,8.2,0,0,0,80.89,15.43Z"/><path class="cls-4" d="M45,80.64s-1,3.45-3.05,3.1a8.11,8.11,0,0,0,6.53-.51C45.57,84.76,45,80.64,45,80.64Z"/><path class="cls-10" d="M57.88,36c-1.08-2.79-3.4-3.47-5.16-1.51s-2.3,5.84-1.2,8.68,3.41,3.52,5.16,1.51S59,38.76,57.88,36Z"/><path class="cls-11" d="M52.71,34.46a7.18,7.18,0,0,0-1.55,3.31,9,9,0,0,0,.57,3.14c1.1,2.83,3.41,3.51,5.16,1.51a7.42,7.42,0,0,0,1.54-3.35A8.86,8.86,0,0,0,57.88,36C56.79,33.18,54.48,32.5,52.71,34.46Z"/><path class="cls-12" d="M57.29,36.14c-.94-2.42-2.94-3-4.47-1.31s-2,5.06-1,7.51,3,3,4.47,1.31A8.06,8.06,0,0,0,57.29,36.14Z"/><path class="cls-10" d="M78.8,51.09c-.94-2.71-3.16-3.28-5-1.27a9.55,9.55,0,0,0-1.52,8.64c1,2.76,3.18,3.33,5,1.27A9.7,9.7,0,0,0,78.8,51.09Z"/><path class="cls-11" d="M73.84,49.82a7.91,7.91,0,0,0-1.65,3.35,8.71,8.71,0,0,0,.42,3.08c1,2.75,3.17,3.32,5,1.28a8.18,8.18,0,0,0,1.63-3.38,8.54,8.54,0,0,0-.41-3.05C77.86,48.38,75.64,47.81,73.84,49.82Z"/><path class="cls-12" d="M78.14,51.29c-.82-2.35-2.74-2.84-4.29-1.1a8.27,8.27,0,0,0-1.31,7.48c.83,2.39,2.75,2.88,4.29,1.1A8.39,8.39,0,0,0,78.14,51.29Z"/><path class="cls-10" d="M39,71.1a9.17,9.17,0,0,0-5-7.78c-2.78-1.21-5,.28-5,3.33a9.25,9.25,0,0,0,5,7.78C36.75,75.67,39,74.18,39,71.1Z"/><path class="cls-11" d="M34,63.33a3.89,3.89,0,0,0-3.13-.16,4.27,4.27,0,0,0-.72,2.53,9.24,9.24,0,0,0,5,7.78,3.86,3.86,0,0,0,3.13.18A4.32,4.32,0,0,0,39,71.1,9.17,9.17,0,0,0,34,63.33Z"/><path class="cls-12" d="M38.56,70.56a7.94,7.94,0,0,0-4.36-6.73c-2.41-1.05-4.36.24-4.36,2.88a8,8,0,0,0,4.36,6.73C36.6,74.52,38.56,73.23,38.56,70.56Z"/><path class="cls-10" d="M12.74,29.69a9.17,9.17,0,0,0-5-7.78c-2.78-1.21-5,.28-5,3.33A9.25,9.25,0,0,0,7.7,33C10.49,34.26,12.74,32.77,12.74,29.69Z"/><path class="cls-11" d="M7.7,21.91a3.89,3.89,0,0,0-3.13-.16,4.27,4.27,0,0,0-.72,2.53,9.24,9.24,0,0,0,5,7.78,3.86,3.86,0,0,0,3.13.18,4.32,4.32,0,0,0,.72-2.54A9.17,9.17,0,0,0,7.7,21.91Z"/><path class="cls-12" d="M12.29,29.15a7.94,7.94,0,0,0-4.36-6.73c-2.41-1.05-4.36.24-4.36,2.88A8,8,0,0,0,7.93,32C10.34,33.1,12.29,31.81,12.29,29.15Z"/><path class="cls-10" d="M20.57,12.59a13.71,13.71,0,0,0-9.23.34c-2.28,1.15-1.83,2.89,1,3.88s7,.84,9.23-.34S23.39,13.55,20.57,12.59Z"/><path class="cls-11" d="M11.34,12.93c-1,.49-1.44,1.08-1.45,1.68a4.8,4.8,0,0,0,2,1.22c2.83,1,7,.84,9.23-.34,1-.5,1.43-1.1,1.44-1.7a4.71,4.71,0,0,0-2-1.2A13.71,13.71,0,0,0,11.34,12.93Z"/><path class="cls-12" d="M20,12.87a11.85,11.85,0,0,0-8,.29c-2,1-1.58,2.5.87,3.36a11.6,11.6,0,0,0,8-.29C22.84,15.21,22.45,13.71,20,12.87Z"/><path class="cls-10" d="M69.84,12.67a13.71,13.71,0,0,0-9.23.34c-2.28,1.15-1.83,2.89,1,3.88s7,.84,9.23-.34S72.66,13.63,69.84,12.67Z"/><path class="cls-11" d="M60.62,13c-1,.49-1.44,1.08-1.45,1.68a4.8,4.8,0,0,0,2,1.22c2.83,1,7,.84,9.23-.34,1-.5,1.43-1.1,1.44-1.7a4.71,4.71,0,0,0-2-1.2A13.71,13.71,0,0,0,60.62,13Z"/><path class="cls-12" d="M69.29,13a11.85,11.85,0,0,0-8,.29c-2,1-1.58,2.5.87,3.36a11.6,11.6,0,0,0,8-.29C72.12,15.29,71.73,13.79,69.29,13Z"/><path class="cls-1" d="M82.2,19.79v0a8.07,8.07,0,0,0-5.77-7.64l-.56-.21L40.86.32a8.65,8.65,0,0,0-4.74,0L3.81,14.15a7.52,7.52,0,0,0-3.79,6v0L.13,58.58a8,8,0,0,0,3.2,5.75l37,18.76h0s4.6,2.53,8.49-.08l.4-.25,30.32-21a9.74,9.74,0,0,0,2.73-7c0-.34,0-.63,0-.88Z"/><path class="cls-2" d="M42.66,83.92a8.46,8.46,0,0,0,4.23,0Q44.78,83.92,42.66,83.92Z"/><path class="cls-2" d="M38.73,4.75c-3.95,11.09,6.16,6.58,11.66,5.83,5.22-.71,8,3,13,3,3.71.05,6.79-1.3,10-2.57L40.86.32c-.24-.07-.47-.12-.7-.16A23.68,23.68,0,0,1,38.73,4.75Z"/><path class="cls-3" d="M4.75,16.79s-1.81-1.51,1.43-3S34.69,1.47,34.69,1.47,38.5-.19,41.76.68l.62.14L40.86.32a8.65,8.65,0,0,0-4.74,0L3.81,14.15a6.54,6.54,0,0,0-2.36,2C1.61,16.28,6.38,18.79,4.75,16.79Z"/><path class="cls-4" d="M76.42,12.1l-.56-.21L41.62.57l.14.11S75.35,12.26,77,13.17a1.72,1.72,0,0,1,.53,2.56c-1.92,2.49,3.05-.72,3.05-.72h0A8.41,8.41,0,0,0,76.42,12.1Z"/><path class="cls-5" d="M45,33.75,1.44,16.18A8.18,8.18,0,0,0,.09,20V57.63A8.18,8.18,0,0,0,3,64.05l28.8,14.74,8.56,4.29h0A10.3,10.3,0,0,0,45,84.18Z"/><path class="cls-6" d="M43.57,63.42a30.48,30.48,0,0,1-16.1-10.57c-4.73-5.76-8.6-11.2-15.66-14.32C7.66,36.69,3.68,36.24.08,37.45V57.63A8.18,8.18,0,0,0,3,64.05l28.8,14.74,8.56,4.29h0A10.3,10.3,0,0,0,45,84.18V63.75Q44.31,63.62,43.57,63.42Z"/><path class="cls-5" d="M3.62,63.63A6.9,6.9,0,0,1,.13,58.51,8.07,8.07,0,0,0,3,64.05l28.8,14.74,8.56,4.29h0a10.4,10.4,0,0,0,4.38,1.1l-1.44-.64C43.44,83.54,3.62,63.63,3.62,63.63Z"/><path class="cls-7" d="M82.27,19.88A8.17,8.17,0,0,0,80.59,15L45,33.75V84.18a7.11,7.11,0,0,0,3.3-.86l30.86-21.2a9.52,9.52,0,0,0,3.1-7.23v-35Z"/><path class="cls-8" d="M77.1,52.16a20.91,20.91,0,0,1-10.2,2.47c-4.66-.14-8.8-1.7-13.09-3.38-3.49-1.37-6-2.71-8.79-.47v33.4a7.11,7.11,0,0,0,3.3-.86l30.86-21.2a9.52,9.52,0,0,0,3.1-7.23V50.56A11.54,11.54,0,0,0,77.1,52.16Z"/><path class="cls-9" d="M79.18,62.12a9.52,9.52,0,0,0,3.1-7.23v-.11a9.66,9.66,0,0,1-4,7c-.21.07-27.71,19.11-32.42,22.38a6.92,6.92,0,0,0,2.46-.8Z"/><path class="cls-9" d="M45,38.81s.21-5.1-6.47-7.69c0,0,7.32,2.17,12.35-.46C50.88,30.66,45.09,34.38,45,38.81Z"/><path class="cls-3" d="M6.86,18.39S1.7,15.32,4.4,13.89l-.59.25a6.54,6.54,0,0,0-2.36,2h0l-.08.12-.13.21,0,0A8.22,8.22,0,0,0,0,20.12V22C.24,20.71,1.43,16.2,6.86,18.39Z"/><ellipse class="cls-4" cx="66.35" cy="22.44" rx="15.7" ry="0.24" transform="translate(-2.81 33.53) rotate(-27.8)"/><ellipse class="cls-3" cx="22.89" cy="24.68" rx="0.55" ry="22.75" transform="translate(-8.54 36.72) rotate(-68.12)"/><ellipse class="cls-3" cx="45.06" cy="56.27" rx="0.6" ry="23.91"/><path class="cls-4" d="M80.89,15.43a8.05,8.05,0,0,0-3.68-3c3,1.36-1.23,5-1.23,5,4.89-2.57,6.05,1.25,6.28,2.4A8.2,8.2,0,0,0,80.89,15.43Z"/><path class="cls-4" d="M45,80.64s-1,3.45-3.05,3.1a8.11,8.11,0,0,0,6.53-.51C45.57,84.76,45,80.64,45,80.64Z"/><path class="cls-10" d="M57.88,36c-1.08-2.79-3.4-3.47-5.16-1.51s-2.3,5.84-1.2,8.68,3.41,3.52,5.16,1.51S59,38.76,57.88,36Z"/><path class="cls-11" d="M52.71,34.46a7.18,7.18,0,0,0-1.55,3.31,9,9,0,0,0,.57,3.14c1.1,2.83,3.41,3.51,5.16,1.51a7.42,7.42,0,0,0,1.54-3.35A8.86,8.86,0,0,0,57.88,36C56.79,33.18,54.48,32.5,52.71,34.46Z"/><path class="cls-12" d="M57.29,36.14c-.94-2.42-2.94-3-4.47-1.31s-2,5.06-1,7.51,3,3,4.47,1.31A8.06,8.06,0,0,0,57.29,36.14Z"/><path class="cls-10" d="M68.71,44.22c-1.08-2.79-3.4-3.47-5.16-1.51s-2.3,5.84-1.2,8.68,3.41,3.52,5.16,1.51S69.79,47,68.71,44.22Z"/><path class="cls-11" d="M63.55,42.71A7.18,7.18,0,0,0,62,46a9,9,0,0,0,.57,3.14c1.1,2.83,3.41,3.51,5.16,1.51a7.42,7.42,0,0,0,1.54-3.35,8.86,8.86,0,0,0-.56-3.11C67.62,41.43,65.31,40.75,63.55,42.71Z"/><path class="cls-12" d="M68.12,44.39c-.94-2.42-2.94-3-4.47-1.31s-2,5.06-1,7.51,3,3,4.47,1.31A8.06,8.06,0,0,0,68.12,44.39Z"/><path class="cls-10" d="M78.8,51.09c-.94-2.71-3.16-3.28-5-1.27a9.55,9.55,0,0,0-1.52,8.64c1,2.76,3.18,3.33,5,1.27A9.7,9.7,0,0,0,78.8,51.09Z"/><path class="cls-11" d="M73.84,49.82a7.91,7.91,0,0,0-1.65,3.35,8.71,8.71,0,0,0,.42,3.08c1,2.75,3.17,3.32,5,1.28a8.18,8.18,0,0,0,1.63-3.38,8.54,8.54,0,0,0-.41-3.05C77.86,48.38,75.64,47.81,73.84,49.82Z"/><path class="cls-12" d="M78.14,51.29c-.82-2.35-2.74-2.84-4.29-1.1a8.27,8.27,0,0,0-1.31,7.48c.83,2.39,2.75,2.88,4.29,1.1A8.39,8.39,0,0,0,78.14,51.29Z"/><path class="cls-10" d="M39,71.1a9.17,9.17,0,0,0-5-7.78c-2.78-1.21-5,.28-5,3.33a9.25,9.25,0,0,0,5,7.78C36.75,75.67,39,74.18,39,71.1Z"/><path class="cls-11" d="M34,63.33a3.89,3.89,0,0,0-3.13-.16,4.27,4.27,0,0,0-.72,2.53,9.24,9.24,0,0,0,5,7.78,3.86,3.86,0,0,0,3.13.18A4.32,4.32,0,0,0,39,71.1,9.17,9.17,0,0,0,34,63.33Z"/><path class="cls-12" d="M38.56,70.56a7.94,7.94,0,0,0-4.36-6.73c-2.41-1.05-4.36.24-4.36,2.88a8,8,0,0,0,4.36,6.73C36.6,74.52,38.56,73.23,38.56,70.56Z"/><path class="cls-10" d="M25.88,51.36a9.17,9.17,0,0,0-5-7.78c-2.78-1.21-5,.28-5,3.33a9.25,9.25,0,0,0,5,7.78C23.62,55.93,25.88,54.44,25.88,51.36Z"/><path class="cls-11" d="M20.84,43.58a3.89,3.89,0,0,0-3.13-.16A4.27,4.27,0,0,0,17,45.94a9.24,9.24,0,0,0,5,7.78,3.86,3.86,0,0,0,3.13.18,4.32,4.32,0,0,0,.72-2.54A9.17,9.17,0,0,0,20.84,43.58Z"/><path class="cls-12" d="M25.42,50.82a7.94,7.94,0,0,0-4.36-6.73C18.65,43,16.7,44.32,16.7,47a8,8,0,0,0,4.36,6.73C23.47,54.77,25.42,53.48,25.42,50.82Z"/><path class="cls-10" d="M12.74,29.69a9.17,9.17,0,0,0-5-7.78c-2.78-1.21-5,.28-5,3.33A9.25,9.25,0,0,0,7.7,33C10.49,34.26,12.74,32.77,12.74,29.69Z"/><path class="cls-11" d="M7.7,21.91a3.89,3.89,0,0,0-3.13-.16,4.27,4.27,0,0,0-.72,2.53,9.24,9.24,0,0,0,5,7.78,3.86,3.86,0,0,0,3.13.18,4.32,4.32,0,0,0,.72-2.54A9.17,9.17,0,0,0,7.7,21.91Z"/><path class="cls-12" d="M12.29,29.15a7.94,7.94,0,0,0-4.36-6.73c-2.41-1.05-4.36.24-4.36,2.88A8,8,0,0,0,7.93,32C10.34,33.1,12.29,31.81,12.29,29.15Z"/><path class="cls-10" d="M20.57,12.59a13.71,13.71,0,0,0-9.23.34c-2.28,1.15-1.83,2.89,1,3.88s7,.84,9.23-.34S23.39,13.55,20.57,12.59Z"/><path class="cls-11" d="M11.34,12.93c-1,.49-1.44,1.08-1.45,1.68a4.8,4.8,0,0,0,2,1.22c2.83,1,7,.84,9.23-.34,1-.5,1.43-1.1,1.44-1.7a4.71,4.71,0,0,0-2-1.2A13.71,13.71,0,0,0,11.34,12.93Z"/><path class="cls-12" d="M20,12.87a11.85,11.85,0,0,0-8,.29c-2,1-1.58,2.5.87,3.36a11.6,11.6,0,0,0,8-.29C22.84,15.21,22.45,13.71,20,12.87Z"/><path class="cls-10" d="M45.2,12.18a13.71,13.71,0,0,0-9.23.34c-2.28,1.15-1.83,2.89,1,3.88s7,.84,9.23-.34S48,13.14,45.2,12.18Z"/><path class="cls-11" d="M36,12.52c-1,.49-1.44,1.08-1.45,1.68a4.8,4.8,0,0,0,2,1.22c2.83,1,7,.84,9.23-.34,1-.5,1.43-1.1,1.44-1.7a4.71,4.71,0,0,0-2-1.2A13.71,13.71,0,0,0,36,12.52Z"/><path class="cls-12" d="M44.65,12.46a11.85,11.85,0,0,0-8,.29c-2,1-1.58,2.5.87,3.36a11.6,11.6,0,0,0,8-.29C47.48,14.8,47.09,13.3,44.65,12.46Z"/><path class="cls-10" d="M69.84,12.67a13.71,13.71,0,0,0-9.23.34c-2.28,1.15-1.83,2.89,1,3.88s7,.84,9.23-.34S72.66,13.63,69.84,12.67Z"/><path class="cls-11" d="M60.62,13c-1,.49-1.44,1.08-1.45,1.68a4.8,4.8,0,0,0,2,1.22c2.83,1,7,.84,9.23-.34,1-.5,1.43-1.1,1.44-1.7a4.71,4.71,0,0,0-2-1.2A13.71,13.71,0,0,0,60.62,13Z"/><path class="cls-12" d="M69.29,13a11.85,11.85,0,0,0-8,.29c-2,1-1.58,2.5.87,3.36a11.6,11.6,0,0,0,8-.29C72.12,15.29,71.73,13.79,69.29,13Z"/><path class="cls-1" d="M82.2,19.79v0a8.07,8.07,0,0,0-5.77-7.64l-.56-.21L40.86.32a8.65,8.65,0,0,0-4.74,0L3.81,14.15a7.52,7.52,0,0,0-3.79,6v0L.13,58.58a8,8,0,0,0,3.2,5.75l37,18.76h0s4.6,2.53,8.49-.08l.4-.25,30.32-21a9.74,9.74,0,0,0,2.73-7c0-.34,0-.63,0-.88Z"/><path class="cls-2" d="M42.66,83.92a8.46,8.46,0,0,0,4.23,0Q44.78,83.92,42.66,83.92Z"/><path class="cls-2" d="M38.73,4.75c-3.95,11.09,6.16,6.58,11.66,5.83,5.22-.71,8,3,13,3,3.71.05,6.79-1.3,10-2.57L40.86.32c-.24-.07-.47-.12-.7-.16A23.68,23.68,0,0,1,38.73,4.75Z"/><path class="cls-3" d="M4.75,16.79s-1.81-1.51,1.43-3S34.69,1.47,34.69,1.47,38.5-.19,41.76.68l.62.14L40.86.32a8.65,8.65,0,0,0-4.74,0L3.81,14.15a6.54,6.54,0,0,0-2.36,2C1.61,16.28,6.38,18.79,4.75,16.79Z"/><path class="cls-4" d="M76.42,12.1l-.56-.21L41.62.57l.14.11S75.35,12.26,77,13.17a1.72,1.72,0,0,1,.53,2.56c-1.92,2.49,3.05-.72,3.05-.72h0A8.41,8.41,0,0,0,76.42,12.1Z"/><path class="cls-5" d="M45,33.75,1.44,16.18A8.18,8.18,0,0,0,.09,20V57.63A8.18,8.18,0,0,0,3,64.05l28.8,14.74,8.56,4.29h0A10.3,10.3,0,0,0,45,84.18Z"/><path class="cls-6" d="M43.57,63.42a30.48,30.48,0,0,1-16.1-10.57c-4.73-5.76-8.6-11.2-15.66-14.32C7.66,36.69,3.68,36.24.08,37.45V57.63A8.18,8.18,0,0,0,3,64.05l28.8,14.74,8.56,4.29h0A10.3,10.3,0,0,0,45,84.18V63.75Q44.31,63.62,43.57,63.42Z"/><path class="cls-5" d="M3.62,63.63A6.9,6.9,0,0,1,.13,58.51,8.07,8.07,0,0,0,3,64.05l28.8,14.74,8.56,4.29h0a10.4,10.4,0,0,0,4.38,1.1l-1.44-.64C43.44,83.54,3.62,63.63,3.62,63.63Z"/><path class="cls-7" d="M82.27,19.88A8.17,8.17,0,0,0,80.59,15L45,33.75V84.18a7.11,7.11,0,0,0,3.3-.86l30.86-21.2a9.52,9.52,0,0,0,3.1-7.23v-35Z"/><path class="cls-8" d="M77.1,52.16a20.91,20.91,0,0,1-10.2,2.47c-4.66-.14-8.8-1.7-13.09-3.38-3.49-1.37-6-2.71-8.79-.47v33.4a7.11,7.11,0,0,0,3.3-.86l30.86-21.2a9.52,9.52,0,0,0,3.1-7.23V50.56A11.54,11.54,0,0,0,77.1,52.16Z"/><path class="cls-9" d="M79.18,62.12a9.52,9.52,0,0,0,3.1-7.23v-.11a9.66,9.66,0,0,1-4,7c-.21.07-27.71,19.11-32.42,22.38a6.92,6.92,0,0,0,2.46-.8Z"/><path class="cls-9" d="M45,38.81s.21-5.1-6.47-7.69c0,0,7.32,2.17,12.35-.46C50.88,30.66,45.09,34.38,45,38.81Z"/><path class="cls-3" d="M6.86,18.39S1.7,15.32,4.4,13.89l-.59.25a6.54,6.54,0,0,0-2.36,2h0l-.08.12-.13.21,0,0A8.22,8.22,0,0,0,0,20.12V22C.24,20.71,1.43,16.2,6.86,18.39Z"/><ellipse class="cls-4" cx="66.35" cy="22.44" rx="15.7" ry="0.24" transform="translate(-2.81 33.53) rotate(-27.8)"/><ellipse class="cls-3" cx="22.89" cy="24.68" rx="0.55" ry="22.75" transform="translate(-8.54 36.72) rotate(-68.12)"/><ellipse class="cls-3" cx="45.06" cy="56.27" rx="0.6" ry="23.91"/><path class="cls-4" d="M80.89,15.43a8.05,8.05,0,0,0-3.68-3c3,1.36-1.23,5-1.23,5,4.89-2.57,6.05,1.25,6.28,2.4A8.2,8.2,0,0,0,80.89,15.43Z"/><path class="cls-4" d="M45,80.64s-1,3.45-3.05,3.1a8.11,8.11,0,0,0,6.53-.51C45.57,84.76,45,80.64,45,80.64Z"/><path class="cls-10" d="M57.88,36c-1.08-2.79-3.4-3.47-5.16-1.51s-2.3,5.84-1.2,8.68,3.41,3.52,5.16,1.51S59,38.76,57.88,36Z"/><path class="cls-11" d="M52.71,34.46a7.18,7.18,0,0,0-1.55,3.31,9,9,0,0,0,.57,3.14c1.1,2.83,3.41,3.51,5.16,1.51a7.42,7.42,0,0,0,1.54-3.35A8.86,8.86,0,0,0,57.88,36C56.79,33.18,54.48,32.5,52.71,34.46Z"/><path class="cls-12" d="M57.29,36.14c-.94-2.42-2.94-3-4.47-1.31s-2,5.06-1,7.51,3,3,4.47,1.31A8.06,8.06,0,0,0,57.29,36.14Z"/><path class="cls-10" d="M58.15,62.72c-1.18-2.79-3.58-3.28-5.37-1.09a9.76,9.76,0,0,0-1.08,9.1c1.2,2.84,3.6,3.33,5.38,1.09A9.91,9.91,0,0,0,58.15,62.72Z"/><path class="cls-11" d="M52.77,61.63a8.06,8.06,0,0,0-1.55,3.58,9,9,0,0,0,.65,3.2c1.19,2.83,3.6,3.32,5.37,1.09a8.31,8.31,0,0,0,1.53-3.61,8.82,8.82,0,0,0-.63-3.17C57,59.93,54.56,59.44,52.77,61.63Z"/><path class="cls-12" d="M57.56,62.8c-1-2.42-3.1-2.84-4.65-.94A8.46,8.46,0,0,0,52,69.73c1,2.45,3.12,2.87,4.65.94A8.56,8.56,0,0,0,57.56,62.8Z"/><path class="cls-10" d="M78.62,24.86c-1.13-2.64-3.43-3.14-5.12-1.13s-2.14,5.83-1,8.52,3.45,3.19,5.13,1.13A9.1,9.1,0,0,0,78.62,24.86Z"/><path class="cls-11" d="M73.49,23.74A7.31,7.31,0,0,0,72,27.06a8.44,8.44,0,0,0,.63,3c1.15,2.68,3.45,3.19,5.13,1.13a7.56,7.56,0,0,0,1.44-3.36,8.33,8.33,0,0,0-.62-3C77.48,22.22,75.19,21.72,73.49,23.74Z"/><path class="cls-12" d="M78,25c-1-2.29-3-2.72-4.43-1a7.76,7.76,0,0,0-.85,7.37c1,2.32,3,2.76,4.44,1A7.86,7.86,0,0,0,78,25Z"/><path class="cls-10" d="M78.8,51.09c-.94-2.71-3.16-3.28-5-1.27a9.55,9.55,0,0,0-1.52,8.64c1,2.76,3.18,3.33,5,1.27A9.7,9.7,0,0,0,78.8,51.09Z"/><path class="cls-11" d="M73.84,49.82a7.91,7.91,0,0,0-1.65,3.35,8.71,8.71,0,0,0,.42,3.08c1,2.75,3.17,3.32,5,1.28a8.18,8.18,0,0,0,1.63-3.38,8.54,8.54,0,0,0-.41-3.05C77.86,48.38,75.64,47.81,73.84,49.82Z"/><path class="cls-12" d="M78.14,51.29c-.82-2.35-2.74-2.84-4.29-1.1a8.27,8.27,0,0,0-1.31,7.48c.83,2.39,2.75,2.88,4.29,1.1A8.39,8.39,0,0,0,78.14,51.29Z"/><path class="cls-10" d="M39,71.1a9.17,9.17,0,0,0-5-7.78c-2.78-1.21-5,.28-5,3.33a9.25,9.25,0,0,0,5,7.78C36.75,75.67,39,74.18,39,71.1Z"/><path class="cls-11" d="M34,63.33a3.89,3.89,0,0,0-3.13-.16,4.27,4.27,0,0,0-.72,2.53,9.24,9.24,0,0,0,5,7.78,3.86,3.86,0,0,0,3.13.18A4.32,4.32,0,0,0,39,71.1,9.17,9.17,0,0,0,34,63.33Z"/><path class="cls-12" d="M38.56,70.56a7.94,7.94,0,0,0-4.36-6.73c-2.41-1.05-4.36.24-4.36,2.88a8,8,0,0,0,4.36,6.73C36.6,74.52,38.56,73.23,38.56,70.56Z"/><path class="cls-10" d="M12.74,58.6a9.17,9.17,0,0,0-5-7.78c-2.78-1.21-5,.28-5,3.33a9.25,9.25,0,0,0,5,7.78C10.49,63.17,12.74,61.68,12.74,58.6Z"/><path class="cls-11" d="M7.7,50.82a3.89,3.89,0,0,0-3.13-.16,4.27,4.27,0,0,0-.72,2.53,9.24,9.24,0,0,0,5,7.78,3.86,3.86,0,0,0,3.13.18,4.32,4.32,0,0,0,.72-2.54A9.17,9.17,0,0,0,7.7,50.82Z"/><path class="cls-12" d="M12.29,58.06a7.94,7.94,0,0,0-4.36-6.73c-2.41-1.05-4.36.24-4.36,2.88a8,8,0,0,0,4.36,6.73C10.34,62,12.29,60.72,12.29,58.06Z"/><path class="cls-10" d="M39,42.2a9.17,9.17,0,0,0-5-7.78c-2.78-1.21-5,.28-5,3.33a9.25,9.25,0,0,0,5,7.78C36.75,46.77,39,45.28,39,42.2Z"/><path class="cls-11" d="M34,34.42a3.89,3.89,0,0,0-3.13-.16,4.27,4.27,0,0,0-.72,2.53,9.24,9.24,0,0,0,5,7.78,3.86,3.86,0,0,0,3.13.18A4.32,4.32,0,0,0,39,42.2,9.17,9.17,0,0,0,34,34.42Z"/><path class="cls-12" d="M38.56,41.65a7.94,7.94,0,0,0-4.36-6.73c-2.41-1.05-4.36.24-4.36,2.88a8,8,0,0,0,4.36,6.73C36.6,45.61,38.56,44.32,38.56,41.65Z"/><path class="cls-10" d="M12.74,29.69a9.17,9.17,0,0,0-5-7.78c-2.78-1.21-5,.28-5,3.33A9.25,9.25,0,0,0,7.7,33C10.49,34.26,12.74,32.77,12.74,29.69Z"/><path class="cls-11" d="M7.7,21.91a3.89,3.89,0,0,0-3.13-.16,4.27,4.27,0,0,0-.72,2.53,9.24,9.24,0,0,0,5,7.78,3.86,3.86,0,0,0,3.13.18,4.32,4.32,0,0,0,.72-2.54A9.17,9.17,0,0,0,7.7,21.91Z"/><path class="cls-12" d="M12.29,29.15a7.94,7.94,0,0,0-4.36-6.73c-2.41-1.05-4.36.24-4.36,2.88A8,8,0,0,0,7.93,32C10.34,33.1,12.29,31.81,12.29,29.15Z"/><path class="cls-10" d="M20.57,12.59a13.71,13.71,0,0,0-9.23.34c-2.28,1.15-1.83,2.89,1,3.88s7,.84,9.23-.34S23.39,13.55,20.57,12.59Z"/><path class="cls-11" d="M11.34,12.93c-1,.49-1.44,1.08-1.45,1.68a4.8,4.8,0,0,0,2,1.22c2.83,1,7,.84,9.23-.34,1-.5,1.43-1.1,1.44-1.7a4.71,4.71,0,0,0-2-1.2A13.71,13.71,0,0,0,11.34,12.93Z"/><path class="cls-12" d="M20,12.87a11.85,11.85,0,0,0-8,.29c-2,1-1.58,2.5.87,3.36a11.6,11.6,0,0,0,8-.29C22.84,15.21,22.45,13.71,20,12.87Z"/><path class="cls-10" d="M44.37,2.35a13.71,13.71,0,0,0-9.23.34c-2.28,1.15-1.83,2.89,1,3.88s7,.84,9.23-.34S47.19,3.31,44.37,2.35Z"/><path class="cls-11" d="M35.14,2.69c-1,.49-1.44,1.08-1.45,1.68a4.8,4.8,0,0,0,2,1.22c2.83,1,7,.84,9.23-.34,1-.5,1.43-1.1,1.44-1.7a4.71,4.71,0,0,0-2-1.2A13.71,13.71,0,0,0,35.14,2.69Z"/><path class="cls-12" d="M43.81,2.63a11.85,11.85,0,0,0-8,.29c-2,1-1.58,2.5.87,3.36a11.6,11.6,0,0,0,8-.29C46.64,5,46.25,3.47,43.81,2.63Z"/><path class="cls-10" d="M46,22.91a13.71,13.71,0,0,0-9.23.34c-2.28,1.15-1.83,2.89,1,3.88s7,.84,9.23-.34S48.86,23.87,46,22.91Z"/><path class="cls-11" d="M36.81,23.25c-1,.49-1.44,1.08-1.45,1.68a4.8,4.8,0,0,0,2,1.22c2.83,1,7,.84,9.23-.34,1-.5,1.43-1.1,1.44-1.7a4.71,4.71,0,0,0-2-1.2A13.71,13.71,0,0,0,36.81,23.25Z"/><path class="cls-12" d="M45.49,23.19a11.85,11.85,0,0,0-8,.29c-2,1-1.58,2.5.87,3.36a11.6,11.6,0,0,0,8-.29C48.32,25.53,47.93,24,45.49,23.19Z"/><path class="cls-10" d="M69.84,12.67a13.71,13.71,0,0,0-9.23.34c-2.28,1.15-1.83,2.89,1,3.88s7,.84,9.23-.34S72.66,13.63,69.84,12.67Z"/><path class="cls-11" d="M60.62,13c-1,.49-1.44,1.08-1.45,1.68a4.8,4.8,0,0,0,2,1.22c2.83,1,7,.84,9.23-.34,1-.5,1.43-1.1,1.44-1.7a4.71,4.71,0,0,0-2-1.2A13.71,13.71,0,0,0,60.62,13Z"/><path class="cls-12" d="M69.29,13a11.85,11.85,0,0,0-8,.29c-2,1-1.58,2.5.87,3.36a11.6,11.6,0,0,0,8-.29C72.12,15.29,71.73,13.79,69.29,13Z"/><path class="cls-10" d="M57.88,36c-1.08-2.79-3.4-3.47-5.16-1.51s-2.3,5.84-1.2,8.68,3.41,3.52,5.16,1.51S59,38.76,57.88,36Z"/><path class="cls-11" d="M52.71,34.46a7.18,7.18,0,0,0-1.55,3.31,9,9,0,0,0,.57,3.14c1.1,2.83,3.41,3.51,5.16,1.51a7.42,7.42,0,0,0,1.54-3.35A8.86,8.86,0,0,0,57.88,36C56.79,33.18,54.48,32.5,52.71,34.46Z"/><path class="cls-12" d="M57.29,36.14c-.94-2.42-2.94-3-4.47-1.31s-2,5.06-1,7.51,3,3,4.47,1.31A8.06,8.06,0,0,0,57.29,36.14Z"/><path class="cls-10" d="M58.15,62.72c-1.18-2.79-3.58-3.28-5.37-1.09a9.76,9.76,0,0,0-1.08,9.1c1.2,2.84,3.6,3.33,5.38,1.09A9.91,9.91,0,0,0,58.15,62.72Z"/><path class="cls-11" d="M52.77,61.63a8.06,8.06,0,0,0-1.55,3.58,9,9,0,0,0,.65,3.2c1.19,2.83,3.6,3.32,5.37,1.09a8.31,8.31,0,0,0,1.53-3.61,8.82,8.82,0,0,0-.63-3.17C57,59.93,54.56,59.44,52.77,61.63Z"/><path class="cls-12" d="M57.56,62.8c-1-2.42-3.1-2.84-4.65-.94A8.46,8.46,0,0,0,52,69.73c1,2.45,3.12,2.87,4.65.94A8.56,8.56,0,0,0,57.56,62.8Z"/><path class="cls-10" d="M78.62,24.86c-1.13-2.64-3.43-3.14-5.12-1.13s-2.14,5.83-1,8.52,3.45,3.19,5.13,1.13A9.1,9.1,0,0,0,78.62,24.86Z"/><path class="cls-11" d="M73.49,23.74A7.31,7.31,0,0,0,72,27.06a8.44,8.44,0,0,0,.63,3c1.15,2.68,3.45,3.19,5.13,1.13a7.56,7.56,0,0,0,1.44-3.36,8.33,8.33,0,0,0-.62-3C77.48,22.22,75.19,21.72,73.49,23.74Z"/><path class="cls-12" d="M78,25c-1-2.29-3-2.72-4.43-1a7.76,7.76,0,0,0-.85,7.37c1,2.32,3,2.76,4.44,1A7.86,7.86,0,0,0,78,25Z"/><path class="cls-10" d="M78.8,51.09c-.94-2.71-3.16-3.28-5-1.27a9.55,9.55,0,0,0-1.52,8.64c1,2.76,3.18,3.33,5,1.27A9.7,9.7,0,0,0,78.8,51.09Z"/><path class="cls-11" d="M73.84,49.82a7.91,7.91,0,0,0-1.65,3.35,8.71,8.71,0,0,0,.42,3.08c1,2.75,3.17,3.32,5,1.28a8.18,8.18,0,0,0,1.63-3.38,8.54,8.54,0,0,0-.41-3.05C77.86,48.38,75.64,47.81,73.84,49.82Z"/><path class="cls-12" d="M78.14,51.29c-.82-2.35-2.74-2.84-4.29-1.1a8.27,8.27,0,0,0-1.31,7.48c.83,2.39,2.75,2.88,4.29,1.1A8.39,8.39,0,0,0,78.14,51.29Z"/><path class="cls-10" d="M39,71.1a9.17,9.17,0,0,0-5-7.78c-2.78-1.21-5,.28-5,3.33a9.25,9.25,0,0,0,5,7.78C36.75,75.67,39,74.18,39,71.1Z"/><path class="cls-11" d="M34,63.33a3.89,3.89,0,0,0-3.13-.16,4.27,4.27,0,0,0-.72,2.53,9.24,9.24,0,0,0,5,7.78,3.86,3.86,0,0,0,3.13.18A4.32,4.32,0,0,0,39,71.1,9.17,9.17,0,0,0,34,63.33Z"/><path class="cls-12" d="M38.56,70.56a7.94,7.94,0,0,0-4.36-6.73c-2.41-1.05-4.36.24-4.36,2.88a8,8,0,0,0,4.36,6.73C36.6,74.52,38.56,73.23,38.56,70.56Z"/><path class="cls-10" d="M12.74,58.6a9.17,9.17,0,0,0-5-7.78c-2.78-1.21-5,.28-5,3.33a9.25,9.25,0,0,0,5,7.78C10.49,63.17,12.74,61.68,12.74,58.6Z"/><path class="cls-11" d="M7.7,50.82a3.89,3.89,0,0,0-3.13-.16,4.27,4.27,0,0,0-.72,2.53,9.24,9.24,0,0,0,5,7.78,3.86,3.86,0,0,0,3.13.18,4.32,4.32,0,0,0,.72-2.54A9.17,9.17,0,0,0,7.7,50.82Z"/><path class="cls-12" d="M12.29,58.06a7.94,7.94,0,0,0-4.36-6.73c-2.41-1.05-4.36.24-4.36,2.88a8,8,0,0,0,4.36,6.73C10.34,62,12.29,60.72,12.29,58.06Z"/><path class="cls-10" d="M39,42.2a9.17,9.17,0,0,0-5-7.78c-2.78-1.21-5,.28-5,3.33a9.25,9.25,0,0,0,5,7.78C36.75,46.77,39,45.28,39,42.2Z"/><path class="cls-11" d="M34,34.42a3.89,3.89,0,0,0-3.13-.16,4.27,4.27,0,0,0-.72,2.53,9.24,9.24,0,0,0,5,7.78,3.86,3.86,0,0,0,3.13.18A4.32,4.32,0,0,0,39,42.2,9.17,9.17,0,0,0,34,34.42Z"/><path class="cls-12" d="M38.56,41.65a7.94,7.94,0,0,0-4.36-6.73c-2.41-1.05-4.36.24-4.36,2.88a8,8,0,0,0,4.36,6.73C36.6,45.61,38.56,44.32,38.56,41.65Z"/><path class="cls-10" d="M12.74,29.69a9.17,9.17,0,0,0-5-7.78c-2.78-1.21-5,.28-5,3.33A9.25,9.25,0,0,0,7.7,33C10.49,34.26,12.74,32.77,12.74,29.69Z"/><path class="cls-11" d="M7.7,21.91a3.89,3.89,0,0,0-3.13-.16,4.27,4.27,0,0,0-.72,2.53,9.24,9.24,0,0,0,5,7.78,3.86,3.86,0,0,0,3.13.18,4.32,4.32,0,0,0,.72-2.54A9.17,9.17,0,0,0,7.7,21.91Z"/><path class="cls-12" d="M12.29,29.15a7.94,7.94,0,0,0-4.36-6.73c-2.41-1.05-4.36.24-4.36,2.88A8,8,0,0,0,7.93,32C10.34,33.1,12.29,31.81,12.29,29.15Z"/><path class="cls-10" d="M20.57,12.59a13.71,13.71,0,0,0-9.23.34c-2.28,1.15-1.83,2.89,1,3.88s7,.84,9.23-.34S23.39,13.55,20.57,12.59Z"/><path class="cls-11" d="M11.34,12.93c-1,.49-1.44,1.08-1.45,1.68a4.8,4.8,0,0,0,2,1.22c2.83,1,7,.84,9.23-.34,1-.5,1.43-1.1,1.44-1.7a4.71,4.71,0,0,0-2-1.2A13.71,13.71,0,0,0,11.34,12.93Z"/><path class="cls-12" d="M20,12.87a11.85,11.85,0,0,0-8,.29c-2,1-1.58,2.5.87,3.36a11.6,11.6,0,0,0,8-.29C22.84,15.21,22.45,13.71,20,12.87Z"/><path class="cls-10" d="M44.37,2.35a13.71,13.71,0,0,0-9.23.34c-2.28,1.15-1.83,2.89,1,3.88s7,.84,9.23-.34S47.19,3.31,44.37,2.35Z"/><path class="cls-11" d="M35.14,2.69c-1,.49-1.44,1.08-1.45,1.68a4.8,4.8,0,0,0,2,1.22c2.83,1,7,.84,9.23-.34,1-.5,1.43-1.1,1.44-1.7a4.71,4.71,0,0,0-2-1.2A13.71,13.71,0,0,0,35.14,2.69Z"/><path class="cls-12" d="M43.81,2.63a11.85,11.85,0,0,0-8,.29c-2,1-1.58,2.5.87,3.36a11.6,11.6,0,0,0,8-.29C46.64,5,46.25,3.47,43.81,2.63Z"/><path class="cls-10" d="M46,22.91a13.71,13.71,0,0,0-9.23.34c-2.28,1.15-1.83,2.89,1,3.88s7,.84,9.23-.34S48.86,23.87,46,22.91Z"/><path class="cls-11" d="M36.81,23.25c-1,.49-1.44,1.08-1.45,1.68a4.8,4.8,0,0,0,2,1.22c2.83,1,7,.84,9.23-.34,1-.5,1.43-1.1,1.44-1.7a4.71,4.71,0,0,0-2-1.2A13.71,13.71,0,0,0,36.81,23.25Z"/><path class="cls-12" d="M45.49,23.19a11.85,11.85,0,0,0-8,.29c-2,1-1.58,2.5.87,3.36a11.6,11.6,0,0,0,8-.29C48.32,25.53,47.93,24,45.49,23.19Z"/><path class="cls-10" d="M69.84,12.67a13.71,13.71,0,0,0-9.23.34c-2.28,1.15-1.83,2.89,1,3.88s7,.84,9.23-.34S72.66,13.63,69.84,12.67Z"/><path class="cls-11" d="M60.62,13c-1,.49-1.44,1.08-1.45,1.68a4.8,4.8,0,0,0,2,1.22c2.83,1,7,.84,9.23-.34,1-.5,1.43-1.1,1.44-1.7a4.71,4.71,0,0,0-2-1.2A13.71,13.71,0,0,0,60.62,13Z"/><path class="cls-12" d="M69.29,13a11.85,11.85,0,0,0-8,.29c-2,1-1.58,2.5.87,3.36a11.6,11.6,0,0,0,8-.29C72.12,15.29,71.73,13.79,69.29,13Z"/><path class="cls-1" d="M82.2,19.79v0a8.07,8.07,0,0,0-5.77-7.64l-.56-.21L40.86.32a8.65,8.65,0,0,0-4.74,0L3.81,14.15a7.52,7.52,0,0,0-3.79,6v0L.13,58.58a8,8,0,0,0,3.2,5.75l37,18.76h0s4.6,2.53,8.49-.08l.4-.25,30.32-21a9.74,9.74,0,0,0,2.73-7c0-.34,0-.63,0-.88Z"/><path class="cls-2" d="M42.66,83.92a8.46,8.46,0,0,0,4.23,0Q44.78,83.92,42.66,83.92Z"/><path class="cls-2" d="M38.73,4.75c-3.95,11.09,6.16,6.58,11.66,5.83,5.22-.71,8,3,13,3,3.71.05,6.79-1.3,10-2.57L40.86.32c-.24-.07-.47-.12-.7-.16A23.68,23.68,0,0,1,38.73,4.75Z"/><path class="cls-3" d="M4.75,16.79s-1.81-1.51,1.43-3S34.69,1.47,34.69,1.47,38.5-.19,41.76.68l.62.14L40.86.32a8.65,8.65,0,0,0-4.74,0L3.81,14.15a6.54,6.54,0,0,0-2.36,2C1.61,16.28,6.38,18.79,4.75,16.79Z"/><path class="cls-4" d="M76.42,12.1l-.56-.21L41.62.57l.14.11S75.35,12.26,77,13.17a1.72,1.72,0,0,1,.53,2.56c-1.92,2.49,3.05-.72,3.05-.72h0A8.41,8.41,0,0,0,76.42,12.1Z"/><path class="cls-5" d="M45,33.75,1.44,16.18A8.18,8.18,0,0,0,.09,20V57.63A8.18,8.18,0,0,0,3,64.05l28.8,14.74,8.56,4.29h0A10.3,10.3,0,0,0,45,84.18Z"/><path class="cls-6" d="M43.57,63.42a30.48,30.48,0,0,1-16.1-10.57c-4.73-5.76-8.6-11.2-15.66-14.32C7.66,36.69,3.68,36.24.08,37.45V57.63A8.18,8.18,0,0,0,3,64.05l28.8,14.74,8.56,4.29h0A10.3,10.3,0,0,0,45,84.18V63.75Q44.31,63.62,43.57,63.42Z"/><path class="cls-5" d="M3.62,63.63A6.9,6.9,0,0,1,.13,58.51,8.07,8.07,0,0,0,3,64.05l28.8,14.74,8.56,4.29h0a10.4,10.4,0,0,0,4.38,1.1l-1.44-.64C43.44,83.54,3.62,63.63,3.62,63.63Z"/><path class="cls-7" d="M82.27,19.88A8.17,8.17,0,0,0,80.59,15L45,33.75V84.18a7.11,7.11,0,0,0,3.3-.86l30.86-21.2a9.52,9.52,0,0,0,3.1-7.23v-35Z"/><path class="cls-8" d="M77.1,52.16a20.91,20.91,0,0,1-10.2,2.47c-4.66-.14-8.8-1.7-13.09-3.38-3.49-1.37-6-2.71-8.79-.47v33.4a7.11,7.11,0,0,0,3.3-.86l30.86-21.2a9.52,9.52,0,0,0,3.1-7.23V50.56A11.54,11.54,0,0,0,77.1,52.16Z"/><path class="cls-9" d="M79.18,62.12a9.52,9.52,0,0,0,3.1-7.23v-.11a9.66,9.66,0,0,1-4,7c-.21.07-27.71,19.11-32.42,22.38a6.92,6.92,0,0,0,2.46-.8Z"/><path class="cls-9" d="M45,38.81s.21-5.1-6.47-7.69c0,0,7.32,2.17,12.35-.46C50.88,30.66,45.09,34.38,45,38.81Z"/><path class="cls-3" d="M6.86,18.39S1.7,15.32,4.4,13.89l-.59.25a6.54,6.54,0,0,0-2.36,2h0l-.08.12-.13.21,0,0A8.22,8.22,0,0,0,0,20.12V22C.24,20.71,1.43,16.2,6.86,18.39Z"/><ellipse class="cls-4" cx="66.35" cy="22.44" rx="15.7" ry="0.24" transform="translate(-2.81 33.53) rotate(-27.8)"/><ellipse class="cls-3" cx="22.89" cy="24.68" rx="0.55" ry="22.75" transform="translate(-8.54 36.72) rotate(-68.12)"/><ellipse class="cls-3" cx="45.06" cy="56.27" rx="0.6" ry="23.91"/><path class="cls-4" d="M80.89,15.43a8.05,8.05,0,0,0-3.68-3c3,1.36-1.23,5-1.23,5,4.89-2.57,6.05,1.25,6.28,2.4A8.2,8.2,0,0,0,80.89,15.43Z"/><path class="cls-4" d="M45,80.64s-1,3.45-3.05,3.1a8.11,8.11,0,0,0,6.53-.51C45.57,84.76,45,80.64,45,80.64Z"/><path class="cls-10" d="M57.88,36c-1.08-2.79-3.4-3.47-5.16-1.51s-2.3,5.84-1.2,8.68,3.41,3.52,5.16,1.51S59,38.76,57.88,36Z"/><path class="cls-11" d="M52.71,34.46a7.18,7.18,0,0,0-1.55,3.31,9,9,0,0,0,.57,3.14c1.1,2.83,3.41,3.51,5.16,1.51a7.42,7.42,0,0,0,1.54-3.35A8.86,8.86,0,0,0,57.88,36C56.79,33.18,54.48,32.5,52.71,34.46Z"/><path class="cls-12" d="M57.29,36.14c-.94-2.42-2.94-3-4.47-1.31s-2,5.06-1,7.51,3,3,4.47,1.31A8.06,8.06,0,0,0,57.29,36.14Z"/><path class="cls-10" d="M68.71,44.22c-1.08-2.79-3.4-3.47-5.16-1.51s-2.3,5.84-1.2,8.68,3.41,3.52,5.16,1.51S69.79,47,68.71,44.22Z"/><path class="cls-11" d="M63.55,42.71A7.18,7.18,0,0,0,62,46a9,9,0,0,0,.57,3.14c1.1,2.83,3.41,3.51,5.16,1.51a7.42,7.42,0,0,0,1.54-3.35,8.86,8.86,0,0,0-.56-3.11C67.62,41.43,65.31,40.75,63.55,42.71Z"/><path class="cls-12" d="M68.12,44.39c-.94-2.42-2.94-3-4.47-1.31s-2,5.06-1,7.51,3,3,4.47,1.31A8.06,8.06,0,0,0,68.12,44.39Z"/><path class="cls-10" d="M58.15,62.72c-1.18-2.79-3.58-3.28-5.37-1.09a9.76,9.76,0,0,0-1.08,9.1c1.2,2.84,3.6,3.33,5.38,1.09A9.91,9.91,0,0,0,58.15,62.72Z"/><path class="cls-11" d="M52.77,61.63a8.06,8.06,0,0,0-1.55,3.58,9,9,0,0,0,.65,3.2c1.19,2.83,3.6,3.32,5.37,1.09a8.31,8.31,0,0,0,1.53-3.61,8.82,8.82,0,0,0-.63-3.17C57,59.93,54.56,59.44,52.77,61.63Z"/><path class="cls-12" d="M57.56,62.8c-1-2.42-3.1-2.84-4.65-.94A8.46,8.46,0,0,0,52,69.73c1,2.45,3.12,2.87,4.65.94A8.56,8.56,0,0,0,57.56,62.8Z"/><path class="cls-10" d="M78.62,24.86c-1.13-2.64-3.43-3.14-5.12-1.13s-2.14,5.83-1,8.52,3.45,3.19,5.13,1.13A9.1,9.1,0,0,0,78.62,24.86Z"/><path class="cls-11" d="M73.49,23.74A7.31,7.31,0,0,0,72,27.06a8.44,8.44,0,0,0,.63,3c1.15,2.68,3.45,3.19,5.13,1.13a7.56,7.56,0,0,0,1.44-3.36,8.33,8.33,0,0,0-.62-3C77.48,22.22,75.19,21.72,73.49,23.74Z"/><path class="cls-12" d="M78,25c-1-2.29-3-2.72-4.43-1a7.76,7.76,0,0,0-.85,7.37c1,2.32,3,2.76,4.44,1A7.86,7.86,0,0,0,78,25Z"/><path class="cls-10" d="M78.8,51.09c-.94-2.71-3.16-3.28-5-1.27a9.55,9.55,0,0,0-1.52,8.64c1,2.76,3.18,3.33,5,1.27A9.7,9.7,0,0,0,78.8,51.09Z"/><path class="cls-11" d="M73.84,49.82a7.91,7.91,0,0,0-1.65,3.35,8.71,8.71,0,0,0,.42,3.08c1,2.75,3.17,3.32,5,1.28a8.18,8.18,0,0,0,1.63-3.38,8.54,8.54,0,0,0-.41-3.05C77.86,48.38,75.64,47.81,73.84,49.82Z"/><path class="cls-12" d="M78.14,51.29c-.82-2.35-2.74-2.84-4.29-1.1a8.27,8.27,0,0,0-1.31,7.48c.83,2.39,2.75,2.88,4.29,1.1A8.39,8.39,0,0,0,78.14,51.29Z"/><path class="cls-10" d="M39,71.1a9.17,9.17,0,0,0-5-7.78c-2.78-1.21-5,.28-5,3.33a9.25,9.25,0,0,0,5,7.78C36.75,75.67,39,74.18,39,71.1Z"/><path class="cls-11" d="M34,63.33a3.89,3.89,0,0,0-3.13-.16,4.27,4.27,0,0,0-.72,2.53,9.24,9.24,0,0,0,5,7.78,3.86,3.86,0,0,0,3.13.18A4.32,4.32,0,0,0,39,71.1,9.17,9.17,0,0,0,34,63.33Z"/><path class="cls-12" d="M38.56,70.56a7.94,7.94,0,0,0-4.36-6.73c-2.41-1.05-4.36.24-4.36,2.88a8,8,0,0,0,4.36,6.73C36.6,74.52,38.56,73.23,38.56,70.56Z"/><path class="cls-10" d="M12.74,58.6a9.17,9.17,0,0,0-5-7.78c-2.78-1.21-5,.28-5,3.33a9.25,9.25,0,0,0,5,7.78C10.49,63.17,12.74,61.68,12.74,58.6Z"/><path class="cls-11" d="M7.7,50.82a3.89,3.89,0,0,0-3.13-.16,4.27,4.27,0,0,0-.72,2.53,9.24,9.24,0,0,0,5,7.78,3.86,3.86,0,0,0,3.13.18,4.32,4.32,0,0,0,.72-2.54A9.17,9.17,0,0,0,7.7,50.82Z"/><path class="cls-12" d="M12.29,58.06a7.94,7.94,0,0,0-4.36-6.73c-2.41-1.05-4.36.24-4.36,2.88a8,8,0,0,0,4.36,6.73C10.34,62,12.29,60.72,12.29,58.06Z"/><path class="cls-10" d="M25.88,51.36a9.17,9.17,0,0,0-5-7.78c-2.78-1.21-5,.28-5,3.33a9.25,9.25,0,0,0,5,7.78C23.62,55.93,25.88,54.44,25.88,51.36Z"/><path class="cls-11" d="M20.84,43.58a3.89,3.89,0,0,0-3.13-.16A4.27,4.27,0,0,0,17,45.94a9.24,9.24,0,0,0,5,7.78,3.86,3.86,0,0,0,3.13.18,4.32,4.32,0,0,0,.72-2.54A9.17,9.17,0,0,0,20.84,43.58Z"/><path class="cls-12" d="M25.42,50.82a7.94,7.94,0,0,0-4.36-6.73C18.65,43,16.7,44.32,16.7,47a8,8,0,0,0,4.36,6.73C23.47,54.77,25.42,53.48,25.42,50.82Z"/><path class="cls-10" d="M39,42.2a9.17,9.17,0,0,0-5-7.78c-2.78-1.21-5,.28-5,3.33a9.25,9.25,0,0,0,5,7.78C36.75,46.77,39,45.28,39,42.2Z"/><path class="cls-11" d="M34,34.42a3.89,3.89,0,0,0-3.13-.16,4.27,4.27,0,0,0-.72,2.53,9.24,9.24,0,0,0,5,7.78,3.86,3.86,0,0,0,3.13.18A4.32,4.32,0,0,0,39,42.2,9.17,9.17,0,0,0,34,34.42Z"/><path class="cls-12" d="M38.56,41.65a7.94,7.94,0,0,0-4.36-6.73c-2.41-1.05-4.36.24-4.36,2.88a8,8,0,0,0,4.36,6.73C36.6,45.61,38.56,44.32,38.56,41.65Z"/><path class="cls-10" d="M12.74,29.69a9.17,9.17,0,0,0-5-7.78c-2.78-1.21-5,.28-5,3.33A9.25,9.25,0,0,0,7.7,33C10.49,34.26,12.74,32.77,12.74,29.69Z"/><path class="cls-11" d="M7.7,21.91a3.89,3.89,0,0,0-3.13-.16,4.27,4.27,0,0,0-.72,2.53,9.24,9.24,0,0,0,5,7.78,3.86,3.86,0,0,0,3.13.18,4.32,4.32,0,0,0,.72-2.54A9.17,9.17,0,0,0,7.7,21.91Z"/><path class="cls-12" d="M12.29,29.15a7.94,7.94,0,0,0-4.36-6.73c-2.41-1.05-4.36.24-4.36,2.88A8,8,0,0,0,7.93,32C10.34,33.1,12.29,31.81,12.29,29.15Z"/><path class="cls-10" d="M20.57,12.59a13.71,13.71,0,0,0-9.23.34c-2.28,1.15-1.83,2.89,1,3.88s7,.84,9.23-.34S23.39,13.55,20.57,12.59Z"/><path class="cls-11" d="M11.34,12.93c-1,.49-1.44,1.08-1.45,1.68a4.8,4.8,0,0,0,2,1.22c2.83,1,7,.84,9.23-.34,1-.5,1.43-1.1,1.44-1.7a4.71,4.71,0,0,0-2-1.2A13.71,13.71,0,0,0,11.34,12.93Z"/><path class="cls-12" d="M20,12.87a11.85,11.85,0,0,0-8,.29c-2,1-1.58,2.5.87,3.36a11.6,11.6,0,0,0,8-.29C22.84,15.21,22.45,13.71,20,12.87Z"/><path class="cls-10" d="M44.37,2.35a13.71,13.71,0,0,0-9.23.34c-2.28,1.15-1.83,2.89,1,3.88s7,.84,9.23-.34S47.19,3.31,44.37,2.35Z"/><path class="cls-11" d="M35.14,2.69c-1,.49-1.44,1.08-1.45,1.68a4.8,4.8,0,0,0,2,1.22c2.83,1,7,.84,9.23-.34,1-.5,1.43-1.1,1.44-1.7a4.71,4.71,0,0,0-2-1.2A13.71,13.71,0,0,0,35.14,2.69Z"/><path class="cls-12" d="M43.81,2.63a11.85,11.85,0,0,0-8,.29c-2,1-1.58,2.5.87,3.36a11.6,11.6,0,0,0,8-.29C46.64,5,46.25,3.47,43.81,2.63Z"/><path class="cls-10" d="M46,22.91a13.71,13.71,0,0,0-9.23.34c-2.28,1.15-1.83,2.89,1,3.88s7,.84,9.23-.34S48.86,23.87,46,22.91Z"/><path class="cls-11" d="M36.81,23.25c-1,.49-1.44,1.08-1.45,1.68a4.8,4.8,0,0,0,2,1.22c2.83,1,7,.84,9.23-.34,1-.5,1.43-1.1,1.44-1.7a4.71,4.71,0,0,0-2-1.2A13.71,13.71,0,0,0,36.81,23.25Z"/><path class="cls-12" d="M45.49,23.19a11.85,11.85,0,0,0-8,.29c-2,1-1.58,2.5.87,3.36a11.6,11.6,0,0,0,8-.29C48.32,25.53,47.93,24,45.49,23.19Z"/><path class="cls-10" d="M45.2,12.18a13.71,13.71,0,0,0-9.23.34c-2.28,1.15-1.83,2.89,1,3.88s7,.84,9.23-.34S48,13.14,45.2,12.18Z"/><path class="cls-11" d="M36,12.52c-1,.49-1.44,1.08-1.45,1.68a4.8,4.8,0,0,0,2,1.22c2.83,1,7,.84,9.23-.34,1-.5,1.43-1.1,1.44-1.7a4.71,4.71,0,0,0-2-1.2A13.71,13.71,0,0,0,36,12.52Z"/><path class="cls-12" d="M44.65,12.46a11.85,11.85,0,0,0-8,.29c-2,1-1.58,2.5.87,3.36a11.6,11.6,0,0,0,8-.29C47.48,14.8,47.09,13.3,44.65,12.46Z"/><path class="cls-10" d="M69.84,12.67a13.71,13.71,0,0,0-9.23.34c-2.28,1.15-1.83,2.89,1,3.88s7,.84,9.23-.34S72.66,13.63,69.84,12.67Z"/><path class="cls-11" d="M60.62,13c-1,.49-1.44,1.08-1.45,1.68a4.8,4.8,0,0,0,2,1.22c2.83,1,7,.84,9.23-.34,1-.5,1.43-1.1,1.44-1.7a4.71,4.71,0,0,0-2-1.2A13.71,13.71,0,0,0,60.62,13Z"/><path class="cls-12" d="M69.29,13a11.85,11.85,0,0,0-8,.29c-2,1-1.58,2.5.87,3.36a11.6,11.6,0,0,0,8-.29C72.12,15.29,71.73,13.79,69.29,13Z"/><path class="cls-1" d="M82.2,19.79v0a8.07,8.07,0,0,0-5.77-7.64l-.56-.21L40.86.32a8.65,8.65,0,0,0-4.74,0L3.81,14.15a7.52,7.52,0,0,0-3.79,6v0L.13,58.58a8,8,0,0,0,3.2,5.75l37,18.76h0s4.6,2.53,8.49-.08l.4-.25,30.32-21a9.74,9.74,0,0,0,2.73-7c0-.34,0-.63,0-.88Z"/><path class="cls-2" d="M42.66,83.92a8.46,8.46,0,0,0,4.23,0Q44.78,83.92,42.66,83.92Z"/><path class="cls-2" d="M38.73,4.75c-3.95,11.09,6.16,6.58,11.66,5.83,5.22-.71,8,3,13,3,3.71.05,6.79-1.3,10-2.57L40.86.32c-.24-.07-.47-.12-.7-.16A23.68,23.68,0,0,1,38.73,4.75Z"/><path class="cls-3" d="M4.75,16.79s-1.81-1.51,1.43-3S34.69,1.47,34.69,1.47,38.5-.19,41.76.68l.62.14L40.86.32a8.65,8.65,0,0,0-4.74,0L3.81,14.15a6.54,6.54,0,0,0-2.36,2C1.61,16.28,6.38,18.79,4.75,16.79Z"/><path class="cls-4" d="M76.42,12.1l-.56-.21L41.62.57l.14.11S75.35,12.26,77,13.17a1.72,1.72,0,0,1,.53,2.56c-1.92,2.49,3.05-.72,3.05-.72h0A8.41,8.41,0,0,0,76.42,12.1Z"/><path class="cls-5" d="M45,33.75,1.44,16.18A8.18,8.18,0,0,0,.09,20V57.63A8.18,8.18,0,0,0,3,64.05l28.8,14.74,8.56,4.29h0A10.3,10.3,0,0,0,45,84.18Z"/><path class="cls-6" d="M43.57,63.42a30.48,30.48,0,0,1-16.1-10.57c-4.73-5.76-8.6-11.2-15.66-14.32C7.66,36.69,3.68,36.24.08,37.45V57.63A8.18,8.18,0,0,0,3,64.05l28.8,14.74,8.56,4.29h0A10.3,10.3,0,0,0,45,84.18V63.75Q44.31,63.62,43.57,63.42Z"/><path class="cls-5" d="M3.62,63.63A6.9,6.9,0,0,1,.13,58.51,8.07,8.07,0,0,0,3,64.05l28.8,14.74,8.56,4.29h0a10.4,10.4,0,0,0,4.38,1.1l-1.44-.64C43.44,83.54,3.62,63.63,3.62,63.63Z"/><path class="cls-7" d="M82.27,19.88A8.17,8.17,0,0,0,80.59,15L45,33.75V84.18a7.11,7.11,0,0,0,3.3-.86l30.86-21.2a9.52,9.52,0,0,0,3.1-7.23v-35Z"/><path class="cls-8" d="M77.1,52.16a20.91,20.91,0,0,1-10.2,2.47c-4.66-.14-8.8-1.7-13.09-3.38-3.49-1.37-6-2.71-8.79-.47v33.4a7.11,7.11,0,0,0,3.3-.86l30.86-21.2a9.52,9.52,0,0,0,3.1-7.23V50.56A11.54,11.54,0,0,0,77.1,52.16Z"/><path class="cls-9" d="M79.18,62.12a9.52,9.52,0,0,0,3.1-7.23v-.11a9.66,9.66,0,0,1-4,7c-.21.07-27.71,19.11-32.42,22.38a6.92,6.92,0,0,0,2.46-.8Z"/><path class="cls-9" d="M45,38.81s.21-5.1-6.47-7.69c0,0,7.32,2.17,12.35-.46C50.88,30.66,45.09,34.38,45,38.81Z"/><path class="cls-3" d="M6.86,18.39S1.7,15.32,4.4,13.89l-.59.25a6.54,6.54,0,0,0-2.36,2h0l-.08.12-.13.21,0,0A8.22,8.22,0,0,0,0,20.12V22C.24,20.71,1.43,16.2,6.86,18.39Z"/><ellipse class="cls-4" cx="66.35" cy="22.44" rx="15.7" ry="0.24" transform="translate(-2.81 33.53) rotate(-27.8)"/><ellipse class="cls-3" cx="22.89" cy="24.68" rx="0.55" ry="22.75" transform="translate(-8.54 36.72) rotate(-68.12)"/><ellipse class="cls-3" cx="45.06" cy="56.27" rx="0.6" ry="23.91"/><path class="cls-4" d="M80.89,15.43a8.05,8.05,0,0,0-3.68-3c3,1.36-1.23,5-1.23,5,4.89-2.57,6.05,1.25,6.28,2.4A8.2,8.2,0,0,0,80.89,15.43Z"/><path class="cls-4" d="M45,80.64s-1,3.45-3.05,3.1a8.11,8.11,0,0,0,6.53-.51C45.57,84.76,45,80.64,45,80.64Z"/><path class="cls-10" d="M68.88,44.5C67.79,41.71,65.48,41,63.71,43s-2.3,5.84-1.2,8.68,3.41,3.52,5.16,1.51S70,47.29,68.88,44.5Z"/><path class="cls-11" d="M63.71,43a7.18,7.18,0,0,0-1.55,3.31,9,9,0,0,0,.57,3.14c1.1,2.83,3.41,3.51,5.16,1.51a7.42,7.42,0,0,0,1.54-3.35,8.86,8.86,0,0,0-.56-3.11C67.79,41.71,65.48,41,63.71,43Z"/><path class="cls-12" d="M68.29,44.67c-.94-2.42-2.94-3-4.47-1.31s-2,5.06-1,7.51,3,3,4.47,1.31A8.06,8.06,0,0,0,68.29,44.67Z"/><path class="cls-10" d="M12.74,58.6a9.17,9.17,0,0,0-5-7.78c-2.78-1.21-5,.28-5,3.33a9.25,9.25,0,0,0,5,7.78C10.49,63.17,12.74,61.68,12.74,58.6Z"/><path class="cls-11" d="M7.7,50.82a3.89,3.89,0,0,0-3.13-.16,4.27,4.27,0,0,0-.72,2.53,9.24,9.24,0,0,0,5,7.78,3.86,3.86,0,0,0,3.13.18,4.32,4.32,0,0,0,.72-2.54A9.17,9.17,0,0,0,7.7,50.82Z"/><path class="cls-12" d="M12.29,58.06a7.94,7.94,0,0,0-4.36-6.73c-2.41-1.05-4.36.24-4.36,2.88a8,8,0,0,0,4.36,6.73C10.34,62,12.29,60.72,12.29,58.06Z"/><path class="cls-10" d="M25.74,49.05a9.17,9.17,0,0,0-5-7.78c-2.78-1.21-5,.28-5,3.33a9.25,9.25,0,0,0,5,7.78C23.49,53.63,25.74,52.14,25.74,49.05Z"/><path class="cls-11" d="M20.7,41.28a3.89,3.89,0,0,0-3.13-.16,4.27,4.27,0,0,0-.72,2.53,9.24,9.24,0,0,0,5,7.78A3.86,3.86,0,0,0,25,51.6a4.32,4.32,0,0,0,.72-2.54A9.17,9.17,0,0,0,20.7,41.28Z"/><path class="cls-12" d="M25.29,48.51a7.94,7.94,0,0,0-4.36-6.73c-2.41-1.05-4.36.24-4.36,2.88a8,8,0,0,0,4.36,6.73C23.34,52.47,25.29,51.18,25.29,48.51Z"/><path class="cls-10" d="M39,42.2a9.17,9.17,0,0,0-5-7.78c-2.78-1.21-5,.28-5,3.33a9.25,9.25,0,0,0,5,7.78C36.75,46.77,39,45.28,39,42.2Z"/><path class="cls-11" d="M34,34.42a3.89,3.89,0,0,0-3.13-.16,4.27,4.27,0,0,0-.72,2.53,9.24,9.24,0,0,0,5,7.78,3.86,3.86,0,0,0,3.13.18A4.32,4.32,0,0,0,39,42.2,9.17,9.17,0,0,0,34,34.42Z"/><path class="cls-12" d="M38.56,41.65a7.94,7.94,0,0,0-4.36-6.73c-2.41-1.05-4.36.24-4.36,2.88a8,8,0,0,0,4.36,6.73C36.6,45.61,38.56,44.32,38.56,41.65Z"/><path class="cls-10" d="M44.37,2.35a13.71,13.71,0,0,0-9.23.34c-2.28,1.15-1.83,2.89,1,3.88s7,.84,9.23-.34S47.19,3.31,44.37,2.35Z"/><path class="cls-11" d="M35.14,2.69c-1,.49-1.44,1.08-1.45,1.68a4.8,4.8,0,0,0,2,1.22c2.83,1,7,.84,9.23-.34,1-.5,1.43-1.1,1.44-1.7a4.71,4.71,0,0,0-2-1.2A13.71,13.71,0,0,0,35.14,2.69Z"/><path class="cls-12" d="M43.81,2.63a11.85,11.85,0,0,0-8,.29c-2,1-1.58,2.5.87,3.36a11.6,11.6,0,0,0,8-.29C46.64,5,46.25,3.47,43.81,2.63Z"/><path class="cls-10" d="M46,22.91a13.71,13.71,0,0,0-9.23.34c-2.28,1.15-1.83,2.89,1,3.88s7,.84,9.23-.34S48.86,23.87,46,22.91Z"/><path class="cls-11" d="M36.81,23.25c-1,.49-1.44,1.08-1.45,1.68a4.8,4.8,0,0,0,2,1.22c2.83,1,7,.84,9.23-.34,1-.5,1.43-1.1,1.44-1.7a4.71,4.71,0,0,0-2-1.2A13.71,13.71,0,0,0,36.81,23.25Z"/><path class="cls-12" d="M45.49,23.19a11.85,11.85,0,0,0-8,.29c-2,1-1.58,2.5.87,3.36a11.6,11.6,0,0,0,8-.29C48.32,25.53,47.93,24,45.49,23.19Z"/></svg>