<svg xmlns="http://www.w3.org/2000/svg" xmlns:xlink="http://www.w3.org/1999/xlink" viewBox="0 0 675.8 170.37"><defs><style>.cls-1{isolation:isolate;}.cls-2{fill:#bb642f;}.cls-3{fill:#482620;}.cls-4{fill:#8e4b20;stroke:#000;stroke-miterlimit:10;stroke-width:0.09px;}.cls-5{fill:#a45727;}.cls-6{opacity:0.3;}.cls-7{fill:#aa6e0d;}.cls-10,.cls-8{fill:#aa800d;}.cls-8{opacity:0.4;}.cls-9{fill:none;}.cls-11,.cls-16{opacity:0.5;}.cls-11{mix-blend-mode:screen;fill:url(#radial-gradient);}.cls-12{fill:#d1d3d4;}.cls-13{fill:#bcbec0;}.cls-14{fill:#f5f5f5;}.cls-15{opacity:0.7;}</style><radialGradient id="radial-gradient" cx="-422.23" cy="85.18" r="219.55" gradientTransform="translate(789.49) scale(1.07 1)" gradientUnits="userSpaceOnUse"><stop offset="0" stop-color="#ae721f"/><stop offset="0.17" stop-color="#96621b"/><stop offset="0.54" stop-color="#57390f"/><stop offset="1"/></radialGradient></defs><title>dice-container</title><g class="cls-1"><g id="Layer_1" data-name="Layer 1"><path class="cls-2" d="M83.67,10.61a14.23,14.23,0,0,1,8.41.48c12.88-1.66,25.73-3,38.85-4A180.94,180.94,0,0,0,149.78,4.7H94.58A40.11,40.11,0,0,1,83.12,8.35,15.09,15.09,0,0,1,83.67,10.61Z"/><path class="cls-3" d="M30.46,0H642.74A33.06,33.06,0,0,1,675.8,33.06V137.31a33.06,33.06,0,0,1-33.06,33.06H33.06A33.06,33.06,0,0,1,0,137.31V30.46A30.46,30.46,0,0,1,30.46,0Z"/><path class="cls-4" d="M641.78,4.7H28.34C15.47,4.7,5,14.65,5,26.91V138.55c0,14.95,13,27.11,29,27.11H641.78c16,0,29-12.16,29-27.11V31.81C670.77,16.86,657.77,4.7,641.78,4.7Z"/><path class="cls-5" d="M638.38,143a23,23,0,0,1-9-5.68,13.67,13.67,0,0,1-1.28-.75c-20.74-14-147.43,13-171.59,6.69-23.44-6.15-144.63-12.52-169-7.86-23.22,4.43-43.4-42.81-66.21-37.13-24.44,6.09-52,6.71-77.21,6.39a327.62,327.62,0,0,1-42-3.26c-1.12-.16-2.2-.38-3.27-.6,2.81,8.4-.3,47.76-11.93,50.83-16.67,4.4-33.8,3.72-50.9,4.52-2,.1-4.08.21-6.11.4-1.79.16.9-.26-2,.23-1.89.32-3.77.7-5.62,1.19-.47.12-3.56,1.24-3.46,1.11q-1.08.5-2,1c.71.42,1.42.83,2.14,1.23,1.75,1,3.54,1.87,5.34,2.75A30.59,30.59,0,0,0,34,165.66H641.78a29.51,29.51,0,0,0,24.35-12.45c-1.34-.68-2.67-1.33-3.68-1.79C655.9,148.48,646.21,145.79,638.38,143Z"/><path class="cls-5" d="M658.82,142.48c-2.34-72.74,10,6.37,10.06-4.5,0-1.71.78-32.11,1.89-32.91V34.5c-.49-1.13-1-2.27-1.62-3.42q-1.06-2-2.1-4c-1.75,8.65-3.74-14-5.75-5.34.25,10,.6,20.07.28,30.07-.83,25.57-6.49-27-10.06-1.74-.76,5.4-10.12,8-11.29,1.43-.11-.63-.19-1.25-.29-1.87a29.61,29.61,0,0,1-14.39,9.13c-12.1,3.66-126-2.47-132.14-12.48-5.5-8.91-7.65,24-6.54,13.8.48-4.4,1.46-8.77,2-13.16-.11.39-.14-.76-.05-2.38.1-1.91.31-3.81.46-5.71,1.51-18.14,102.94,29.36,107.51,11.65a29.12,29.12,0,0,1,6.6-19.26c9-11.08,21.95-16.33,35.8-11.39,1.54-3.93,1.31-8,2.49-12.05a52.72,52.72,0,0,0-9.46-3H96.37c-6.12,3.17-13.23,3.92-20.12,5-3.64.56-14.82,1.35-15.18,6.41-.4,5.71,14.47,9.51,18.86,10.81,20.16,6,42.92,9.84,64.15,10,7.41.06,7.4,10.8,0,10.75-11.41-.09-23-1.8-34.24-3.48C96.11,42.12,82,39.59,69.1,34.64c.11.38.2.77.27,1.15A12.67,12.67,0,0,1,70.65,37c5.33,5.78,2.91-16.26-4.41-13.08-7.48,3.25-16.68-.21-23.8-2.82a11,11,0,0,1-3.65,2c-2.87,6.56-7.27,12.27-14.59,10.46C18.29,32.08,14.59,25.61,12,21c-.28-.49-.52,30.26-.78,29.76A57.82,57.82,0,0,1,5,48.45V81.57c2.94-1.2,7.38.33,8.48,3.42,4.9,13.84,16.09-5.75,21,8,12.28-.64,24.62-.3,36.05-2.2-8.91-3.33-14.74,19.37-12,10.14C61,92.5,71.72,85.87,81,89c12.9,4.32,22.24,9.5,36.09,10.87a343.68,343.68,0,0,0,45.17,1.24c23.76-.78,46.71-2.65,68.79-11.38,24.08-9.52,46.21-19,72.94-19,28.72,0,150.58,7.65,178,14.63C504.39,91,627.43,125,646.62,137.89a23.35,23.35,0,0,1,4.62,4.08l8.31,2.93A4.77,4.77,0,0,1,658.82,142.48Z"/><path class="cls-2" d="M647.68,156.8a6.22,6.22,0,0,1-1-.5,4.28,4.28,0,0,1-2.79-.79c-7.26-5.24-15.06-7.51-23.85-9.57-1.38-.32-2.85-.82-4.36-1.34a106.38,106.38,0,0,1-14.69-.26l-3.24-.28c-.35.07-.69.14-1,.2a4.65,4.65,0,0,1-.35.69A144,144,0,0,1,612,147.87a5,5,0,0,1,3.31,7.14c11.19,3.32,23.76,12.87,34.46,7.87a5.56,5.56,0,0,1,4.84,0,29.24,29.24,0,0,0,3.58-2C654.54,159.56,651,158.07,647.68,156.8Z"/><path class="cls-2" d="M304.52,161.55c19.7-.61,136.89,2.29,155.3-5.35,3.27-1.36,6.43-2.62,9.63-3.68-7.3-.37-14.57-.61-21.6-1-21.13-1-137.12-.67-158.26.06-44.69,1.56-89,5.41-133.78,4.18a5.21,5.21,0,0,1-3.73-1.68l-.51.08c-11.67,2.14-23.15,4-34.85,5.08q13.14.83,26.34,1.13c26.88.65,53.69,2.64,80.43,5.25h7.7C255.61,163.82,280,162.31,304.52,161.55Z"/><path class="cls-2" d="M11.8,38.72l0-.06C5.27,43,9.3,60.92,9.56,66.54c1,20.28,0-2.57,0,17.74,0,21,.45-34.8-.12-13.82C9.08,86,3.78,61.24,8.4,76.79c1.25-12.11,2-24.32,4.22-36.3-9.5,51.12,3.17,151.33,7.3,58.12.86-19.46-1.41-38-4-57.24C14,26.55,8,53.63,11.8,38.72Z"/><path class="cls-2" d="M101.29,15.05a170,170,0,0,0,20,4.81c18.57,2.82,37.61,1.76,56.34,1.69,33.46-.12,66.13-6.6,99.35-8.83-12.32-3.35-25.91-1.54-38.71-1.94-12.47-.39-24.45-4.12-36.67-6.07H176.49c-6.2,1.13-12.34,2.83-18.46,4A208,208,0,0,1,133.4,12C122.58,12.74,111.93,13.8,101.29,15.05Z"/><path class="cls-2" d="M289.27,12.44a11.57,11.57,0,0,1,2.65,0c6.69.84,13.86,1.95,20.35-.25,6.77-2.29,12.64-5,19.85-5.93,11.5-1.52,118.24.6,129.57-1.57H229.13a95.72,95.72,0,0,0,15.2,1.21C259.62,5.77,275.74,4.59,289.27,12.44Z"/><path class="cls-2" d="M661.57,51.79c-.29,9.1-1.21-16.27-2.41-7.25,1.64,9.82,4.27,19.55,4.9,29.42.66,10.39,1.82-22.76,2.68-12.38,1.21,14.55,1.15,29,4,43V34.5c-.49-1.13-1-2.27-1.62-3.42q-1.06-2-2.1-4c-1.75,8.65-3.74-14-5.75-5.34C661.54,31.74,661.89,41.78,661.57,51.79Z"/><path class="cls-2" d="M651.13,62.36a127.88,127.88,0,0,1,8.4,23.2c1.61-22,5.26-.54,7.5-22.53a14.08,14.08,0,0,1-1.93.67c-.3.08-.59.12-.88.18a17.76,17.76,0,0,1-2.57,2c-5.8,3.65-9.33,5.84-10.65,11.24-1.66,6.82-3.11-27.41-.45-20.78A11,11,0,0,1,651.13,62.36Z"/><g class="cls-6"><path class="cls-7" d="M667.67,34.44l-.84,0v.33Z"/><path class="cls-8" d="M3.91,82.51l3.22-.11v-.24Z"/><path class="cls-9" d="M640,166.71a27.59,27.59,0,0,0,13.08-3.28c-10.49.67-20.79,1.68-30.73,3.28Z"/><path class="cls-9" d="M100.75,43.45Q106.38,45,112,46.55l14.79,0q-4.26-1.18-8.49-2.41Z"/><path class="cls-9" d="M25.69,16,23,15.92c4.5,2,9,4.17,13.51,6.47l-3.64-3.81-1.32,0A10,10,0,0,1,25.69,16Z"/><path class="cls-9" d="M9.24,47.19,7.14,47V21.52q2.73.22,5.43.51C11.46,20.08,10.35,49.3,9.24,47.19Z"/><path class="cls-9" d="M123.24,19.53q3,1.4,6.06,2.73C241.12,27,546.7,33.1,658.61,37.17l8.21.28V35c-85.06-3-363.95-7.34-448.84-11.33Q170.64,21.47,123.24,19.53Z"/><path class="cls-9" d="M187.38,94.12l-18,0c-3.11.29-6.22.57-9.32.88-52,5.15-101.38,44.34-152.25,51.63q.2.86.46,1.69c48.78-7,96.21-45.91,146-51Q170.75,95.57,187.38,94.12Z"/><path class="cls-9" d="M7.14,94.67v1.09l6.44-1.18Z"/><path class="cls-9" d="M129.3,22.25l-11.85-.49C136.7,31,155.92,37.56,175.08,37.84c99.24,1.46,392.48,1.93,491.75,2.32V38.23c-96.12-.39-386.22-.85-482.31-2.18C166.16,35.79,147.75,30.28,129.3,22.25Z"/><path class="cls-9" d="M468,143.11c-20.64.6-135.89,1.29-156.47,2Q242.2,147.43,173,150.43c11.24-2.74,22.66-5.33,34.36-7.76,33.32-6.92,67.2-41.81,101.78-45.89-3.19-.34-6.35-.75-9.5-1.21-30.54,3.87-60.53,38.2-90.06,44.19Q184.26,144.9,160.37,151q-36.82,1.6-73.64,3.32a11,11,0,0,0,.77-1.55c.21-.49.16-1.33-1-1.53-24.09-4.38-50.74-1-75.56,3a25.72,25.72,0,0,0,1.67,2.35c7-1,14-2,21-2.85a271.43,271.43,0,0,1,32.09-2c4,0,7.93.27,11.84.62,5.28.46,6.38.86,5.47,2.11q-34.68,1.61-69.35,3.35a26.56,26.56,0,0,0,2.38,2.31l35.63-1.75L80.51,157c-4,3.78-10.11,6.94-16.9,9.69h6.06c6.21-2.81,11.79-6.08,15.19-9.9q32.53-1.56,65.08-3.09-22,5.91-42.83,13h8.6q22.6-7.44,46.55-13.57c47.18-2.17,94.41-4.23,141.68-5.86-41.12,2.91-82.09,7-120.61,14.37-7,1.34-15.33,2.8-20.59,5.06h7.46c1.49-.34,3-.64,4.24-.91,15.42-3.25,31.19-5.8,47.26-7.91,32.87-4.29,66.67-6.82,100.16-9.16,19.11-1.33,132.89-2.54,152.06-3.62,31.15-.73,161.64-1.22,192.77-1.36.09-.78.12-1.58.13-2.38-4.77,0-9.54,0-14.31.06,4.77-.17,9.55-.3,14.32-.44v-2.31c-30.12.93-159.53,2.25-189.55,3.92Z"/><path class="cls-9" d="M79.58,20.25q-20.65-.78-41.31-1.47c11.29,7.58,22.59,15.88,33.88,23.7,8,4.78,16.1-21.64,24.15-17,125.31,5,445.08,5.19,570.53,8.94V32c-100.89-3.13-396-4.17-497-6.62C139.71,24.68,109.63,38.84,79.58,20.25Z"/><path class="cls-9" d="M266.21,15.25c5.82,3.13,15.58,4.29,23.2,5.29,13.25,1.74,26.89,2.62,40.43,3.36,46.26,2.53,287,2.6,333.46,2.31l3.15,0q-.2-1.2-.52-2.35c-28,.21-155.35.12-183.34-.38C450.36,22.9,322.5,22.27,291,18.29c-7.55-1-18.22-2.15-23.4-5.62-6.3-4.23,10.13-7.05,16.32-8H273.41C264.3,7.08,257.67,10.65,266.21,15.25Z"/><path class="cls-9" d="M288.46,166.71h23.41c18.67-1.8,132.38-2.44,151.24-3.19,32.18-1.29,163.62-2.9,195.75-4.27a26.31,26.31,0,0,0,2.27-2.47c-32.34,1.36-164,3-196.35,4.31C439.85,162.11,314.6,162.21,288.46,166.71Z"/><path class="cls-8" d="M311.87,166.71H622.33c9.93-1.61,20.24-2.62,30.73-3.28a27,27,0,0,0,5.81-4.18c-32.13,1.37-163.57,3-195.75,4.27C444.25,164.27,330.54,164.9,311.87,166.71Z"/><path class="cls-10" d="M51.73,158.36,16.1,160.11A27.42,27.42,0,0,0,34,166.71H63.61c6.79-2.75,12.9-5.91,16.9-9.69Z"/><path class="cls-10" d="M84.85,156.8c-3.39,3.82-9,7.09-15.19,9.9h37.44q20.86-7.12,42.83-13Q117.36,155.22,84.85,156.8Z"/><path class="cls-8" d="M303.93,147.27c-47.27,1.63-94.51,3.68-141.68,5.86q-24,6.17-46.55,13.57h47c5.26-2.26,13.6-3.72,20.59-5.06C221.84,154.26,262.81,150.18,303.93,147.27Z"/><path class="cls-10" d="M321.86,148.72c-33.49,2.34-67.29,4.87-100.16,9.16-16.07,2.11-31.85,4.66-47.26,7.91-1.28.27-2.75.57-4.24.91H288.46c26.14-4.5,151.39-4.59,176.33-5.62,32.37-1.34,164-3,196.35-4.31a24.85,24.85,0,0,0,5.54-13c-31.13.15-161.61.63-192.77,1.36C454.74,146.19,341,147.39,321.86,148.72Z"/><path class="cls-10" d="M666.81,141.35c0-.09,0-.18,0-.27V141c-4.77.14-9.55.27-14.32.44C657.27,141.37,662,141.37,666.81,141.35Z"/><path class="cls-10" d="M478.51,96.56q-21.93.79-43.91,1.44c-10.53.3-115.45-.15-125.5-1.21-34.58,4.08-68.46,39-101.78,45.89-11.7,2.42-23.13,5-34.36,7.76q69.26-2.94,138.56-5.34c20.58-.69,135.83-1.38,156.47-2l9.29-.52c30-1.67,159.43-3,189.55-3.92V95.06c-22.4.93-44.77,2-67.16,3C592.4,98.41,485.79,97.83,478.51,96.56Z"/><path class="cls-10" d="M77.59,152.35c-3.91-.35-7.86-.62-11.84-.62a271.43,271.43,0,0,0-32.09,2c-7.06.83-14.06,1.81-21,2.85.34.43.7.86,1.07,1.27q34.67-1.71,69.35-3.35C84,153.2,82.87,152.81,77.59,152.35Z"/><path class="cls-10" d="M86.54,151.2c1.13.2,1.17,1,1,1.53a11,11,0,0,1-.77,1.55q36.81-1.72,73.64-3.32,23.93-6.1,49.17-11.19c29.54-6,59.52-40.32,90.06-44.19q-5.55-.81-11-1.86c-33.73.38-67.47.44-101.2.41q-16.62,1.47-33.18,3.15c-49.74,5.12-97.17,44.05-146,51a24.89,24.89,0,0,0,2.73,5.9C35.79,150.21,62.45,146.82,86.54,151.2Z"/><path class="cls-8" d="M169.35,94.1,130.65,94q-58.56-.09-117.08.55L7.14,95.75v45.33a24.32,24.32,0,0,0,.65,5.52C58.65,139.32,108.06,100.13,160,95,163.14,94.67,166.25,94.39,169.35,94.1Z"/><path class="cls-10" d="M205,96.48c29.79-2.87,59.8-5,89.91-6.54l-4.24-2.22c-30.25,1.63-60.4,3.76-90.35,6.62Z"/><path class="cls-10" d="M437.52,143.3l-2.13-1c-9.24.49-113.12,1-122.36,1.5l13-.25C331.65,143.49,431.9,143.41,437.52,143.3Z"/><path class="cls-10" d="M161.33,75.43l3.73,1.85q49-1.55,98-3-2.26-1-4.52-1.94l-11,.32Q204.45,74,161.33,75.43Z"/><path class="cls-10" d="M260.78,147c-30.57,2-61.06-55.75-91.43-52.87l18,0c25.95-2.29,52,55.86,78.09,54.2Q263.11,147.66,260.78,147Z"/><path class="cls-10" d="M42.9,149.3c-6.42.15-12.84-59.76-19.26-59.61l-16.51,3v2l6.44-.09C23.34,92.79,33.12,151.06,42.9,149.3Z"/><path class="cls-10" d="M492.86,62.37c-63.24-1.17-221.11-2.49-284.24-4.78l-7.25.05c-27,.17-51.24-4.63-74.55-11.07l-14.79,0c28.22,7.61,57.31,13.92,90.6,13.12,18.62-.45,37.27,4.83,55.93,12.66,71.4-2.13,336.81-4,408.27-5.41V56.38c-15.33-.33-30.64-.56-45.94-.6C611.29,59.76,502.39,62.55,492.86,62.37Z"/><path class="cls-10" d="M187.38,94.12c33.74,0,67.48,0,101.2-.41-7.82-1.49-15.52,56.73-23.12,54.6C239.36,150,213.32,91.83,187.38,94.12Z"/><path class="cls-10" d="M208.16,97.9q50.18-.12,100.34-.81c-4.52-2.38-9-4.78-13.57-7.16-30.11,1.59-60.13,3.68-89.91,6.54Z"/><path class="cls-10" d="M254.27,145,313,143.85c9.24-.51,113.12-1,122.36-1.5l-2.08-.95c-30,.56-154.62,1.14-184.61,1.73Q251.48,144.07,254.27,145Z"/><path class="cls-10" d="M254.27,145q-105.7,2-211.37,4.34c-9.78,1.77-19.56-56.51-29.33-54.72q58.52-.69,117.08-.55l38.7.07C199.72,91.22,230.21,149,260.78,147Q257.51,146,254.27,145Z"/><path class="cls-10" d="M7.14,90.08v2.63l16.51-3Z"/><path class="cls-10" d="M200.33,94.33c30-2.86,60.1-5,90.35-6.62-9.2-4.78-18.4-9.39-27.6-13.44q-49,1.44-98,3C176.75,83.09,188.48,88.86,200.33,94.33Z"/><path class="cls-10" d="M248.71,143.13c30-.59,154.62-1.18,184.61-1.73-10.06-4.64-114.76-39-124.83-44.31q-50.16.77-100.34.81C221.46,103.84,234.94,138.47,248.71,143.13Z"/><path class="cls-10" d="M7.14,43.1V47l2.11.23Q8.19,45.18,7.14,43.1Z"/><path class="cls-10" d="M133.86,44.77l-15.53-.61q4.23,1.24,8.49,2.41l11.42,0C136.78,46,135.32,45.39,133.86,44.77Z"/><path class="cls-10" d="M133.86,44.77q26.78,1,53.61,1.82,33,0,65.94-.21-22.87-.72-45.74-1.5-31.61-.63-63.21-1.65c-2.13-.07-4.27-.26-6.4-.54q-6-.44-11.7-1.28Q130.11,43.17,133.86,44.77Z"/><path class="cls-10" d="M459.06,48.17c-37,.28-168.67-.63-205.65-1.79q-33,.2-65.94.21,31.11.91,62.35,1.38c64,.88,321.95.84,385.93,1l4.74-2.35-29.27-.06C593.7,47.42,476.78,48,459.06,48.17Z"/><path class="cls-10" d="M138.24,46.59l-11.42,0c23.31,6.44,47.55,11.24,74.55,11.07l7.25-.05q-14.21-.52-28.41-1.1C166.21,55.92,152.23,52.19,138.24,46.59Z"/><path class="cls-10" d="M635.75,48.93c-5,2.45-9.91,4.81-14.86,6.86,15.29,0,30.61.27,45.94.6V49h-3.25Z"/><path class="cls-10" d="M138.06,42.69a86.51,86.51,0,0,1-19.45-5.05q3.87,2,7.74,3.77Q132.07,42.25,138.06,42.69Z"/><path class="cls-8" d="M138.06,42.69a86.51,86.51,0,0,1-19.45-5.05q3.87,2,7.74,3.77Q132.07,42.25,138.06,42.69Z"/><path class="cls-10" d="M294.29,46Q251,45.7,207.67,44.87q22.87.76,45.74,1.5Q273.85,46.25,294.29,46Z"/><path class="cls-8" d="M294.29,46Q251,45.7,207.67,44.87q22.87.76,45.74,1.5Q273.85,46.25,294.29,46Z"/><path class="cls-10" d="M459.06,48.17c17.72-.13,134.64-.75,152.15-1.65-41-.07-275.95-.15-316.92-.48q-20.44.22-40.88.34C290.39,47.54,422,48.44,459.06,48.17Z"/><path class="cls-8" d="M459.06,48.17c17.72-.13,134.64-.75,152.15-1.65-41-.07-275.95-.15-316.92-.48q-20.44.22-40.88.34C290.39,47.54,422,48.44,459.06,48.17Z"/><path class="cls-10" d="M103.79,30.92q-5-2.58-9.9-5.54L87,25.11c-16.85-.71-33.69,14.76-50.52-2.72-4.5-2.3-9-4.47-13.51-6.47l-11.22-.35A24.55,24.55,0,0,0,8.44,22c31.94,13,51.65,7,92.66,8.84Z"/><path class="cls-10" d="M100.75,43.45l17.58.72c-9.54-2.8-19-5.82-28.39-8.82-15.46-1-27.6-5.66-38.6-11.46-13.55-3.52-27.47,24.88-42.1,23.3,1.11,2.11,2.22-27.1,3.32-25.16A268.25,268.25,0,0,1,69.29,34.72C79.84,37.5,90.27,40.51,100.75,43.45Z"/><path class="cls-10" d="M96.49,35.6l3.92,0c-26.55-7.85-50,11.21-76.33,3.56,9.19,5.16,17.81-20.27,27.26-15.29,13.09,3.4,25.86,7.41,38.6,11.46C92.07,35.49,94.23,35.59,96.49,35.6Z"/><path class="cls-10" d="M96.29,25.48c-8-4.64-16.1,21.79-24.15,17,7.25,5,14.5-21.41,21.75-17.1Z"/><path class="cls-10" d="M208.62,57.59c63.14,2.29,221,3.61,284.24,4.78,9.53.18,118.43-2.61,128-6.58-2.19,0-4.38,0-6.57,0C543.73,55.92,279.2,57.09,208.62,57.59Z"/><path class="cls-10" d="M126.36,41.41a186.46,186.46,0,0,1-25.95-5.78l-3.92,0c-2.26,0-4.42-.1-6.54-.25,9.43,3,18.85,6,28.39,8.82l15.53.61Q130.11,43.17,126.36,41.41Z"/><path class="cls-10" d="M138.24,46.59q24.61,0,49.22,0-26.83-.79-53.61-1.82C135.32,45.39,136.78,46,138.24,46.59Z"/><path class="cls-10" d="M51.34,23.89c11,5.8,23.14,10.41,38.6,11.46C77.2,31.3,64.44,27.3,51.34,23.89Z"/><path class="cls-10" d="M51.34,23.89c-9.45-5-18.07,20.45-27.26,15.29-5.5-1.6-11.14-3-16.95-4.11v8q1.05,2.07,2.11,4.08C23.87,48.77,37.79,20.37,51.34,23.89Z"/><path class="cls-10" d="M187.46,46.59q-24.61,0-49.22,0c14,5.6,28,9.32,42,9.9q14.2.59,28.41,1.1c70.58-.5,335.12-1.67,405.7-1.83,2.19,0,4.38,0,6.57,0,4.95-2,9.9-4.41,14.86-6.86-64-.12-322-.07-385.93-1Q218.56,47.55,187.46,46.59Z"/><path class="cls-10" d="M635.75,48.93l27.83.06h3.25V46.64l-26.34-.07Z"/><path class="cls-10" d="M113.88,35.73q-5-2.16-10.08-4.8l-2.7-.12C60.09,29,40.38,35,8.44,22a24,24,0,0,0-1.31,7.79v1.41a120.14,120.14,0,0,1,16.95,8c26.33,7.65,49.78-11.41,76.33-3.56C104.9,35.64,109.39,35.68,113.88,35.73Z"/><path class="cls-10" d="M118.61,37.64q-2.37-.9-4.73-1.91c-4.49,0-9-.09-13.47-.1a186.46,186.46,0,0,0,25.95,5.78Q122.48,39.59,118.61,37.64Z"/><path class="cls-10" d="M7.14,35.08c5.81,1.12,11.45,2.51,16.95,4.11a120.14,120.14,0,0,0-16.95-8Z"/><path class="cls-7" d="M317.59,38.76c26.35.61,147.41,1.3,173.86,1.89,8.52-.26,116.36-.61,124.86-1.06,15.37-.81,30.68-1.92,46-3.14q2.28-.91,4.57-1.71v-.33c-125.45-3.75-445.22-3.93-570.53-8.94q4.91,2.83,9.83,5.55C176.59,34.12,246.92,37.13,317.59,38.76Z"/><path class="cls-7" d="M36.48,22.39c11.89,6.07,23.78,13,35.66,20.09-11.3-7.82-22.59-16.12-33.88-23.7l-5.42-.19Z"/><path class="cls-7" d="M662.26,36.45c-15.28,1.22-30.58,2.33-46,3.14-8.5.45-116.34.79-124.86,1.06,19.86.44,139.07.82,158.94,1.06C654.35,39.81,658.3,38,662.26,36.45Z"/><path class="cls-7" d="M207.67,44.87c-20.48-.68-41-1.32-61.43-1.77-2.78-.06-5.49-.22-8.18-.41,2.13.28,4.27.47,6.4.54Q176.05,44.26,207.67,44.87Z"/><path class="cls-7" d="M643.48,45.08l1.23-.61-8.14.55Z"/><path class="cls-7" d="M611.21,46.52l29.27.06,3-1.49L636.57,45Q623.91,45.87,611.21,46.52Z"/><path class="cls-7" d="M314.68,41c27.38.45,149.43.5,176.77-.34-26.45-.59-147.51-1.28-173.86-1.89-70.67-1.62-141-4.64-211.47-7.73q4.39,2.42,8.78,4.71C181.56,36.38,248,39.87,314.68,41Z"/><path class="cls-7" d="M314.68,41C248,39.87,181.56,36.38,114.9,35.73q1.85,1,3.71,1.9a86.51,86.51,0,0,0,19.45,5.05c2.68.2,5.4.35,8.18.41,20.48.45,41,1.09,61.43,1.77q43.3.87,86.62,1.17l3,0c48.37-.52,290.85-1.36,339.27-1l8.14-.55q2.84-1.41,5.68-2.77c-19.87-.24-139.08-.61-158.94-1.06C464.11,41.49,342.07,41.44,314.68,41Z"/><path class="cls-7" d="M636.57,45c-48.42-.38-290.89.47-339.27,1l-3,0c41,.33,275.93.4,316.92.48Q623.91,45.86,636.57,45Z"/><path class="cls-7" d="M662.26,36.45l4.57-.36V34.74Q664.54,35.54,662.26,36.45Z"/><path class="cls-7" d="M87,25.11l6.9.27c-7.25-4.31-14.5,22.12-21.75,17.1-11.89-7.07-23.78-14-35.66-20.09C53.31,39.87,70.15,24.4,87,25.11Z"/><path class="cls-7" d="M103.79,30.92l2.33.1q-4.91-2.71-9.83-5.55l-2.4-.09Q98.84,28.33,103.79,30.92Z"/><path class="cls-7" d="M643.48,45.08q10.05.1,20.1.28l3.25.07V42.84q-11,.86-22.12,1.64Z"/><path class="cls-7" d="M650.39,41.7q8.22.1,16.43.16V36.08l-4.57.36C658.3,38,654.35,39.81,650.39,41.7Z"/><path class="cls-7" d="M643.48,45.08l-3,1.49,26.34.07V45.43l-3.25-.07Q653.53,45.18,643.48,45.08Z"/><path class="cls-7" d="M114.9,35.73q-4.39-2.29-8.78-4.71l-2.33-.1q5,2.63,10.08,4.8Z"/><path class="cls-7" d="M644.71,44.47q11.07-.77,22.12-1.64v-1q-8.21-.06-16.43-.16Q647.55,43.06,644.71,44.47Z"/><path class="cls-7" d="M114.9,35.73h-1q2.37,1,4.73,1.91Q116.76,36.7,114.9,35.73Z"/><path class="cls-10" d="M34.51,16.29q1.88,1.23,3.75,2.49,20.66.69,41.31,1.47l-4.13-2.56Q55,16.94,34.51,16.29Z"/><path class="cls-10" d="M117.45,21.77l11.85.49q-3-1.32-6.06-2.73l-11.3-.47Q114.7,20.45,117.45,21.77Z"/><path class="cls-10" d="M129.3,22.25c18.45,8,36.86,13.54,55.21,13.79,96.1,1.33,386.19,1.79,482.31,2.18v-.78l-8.21-.28C546.7,33.1,241.12,27,129.3,22.25Z"/><path class="cls-10" d="M31.52,18.54l1.32,0-2.31-2.42L25.69,16A10,10,0,0,0,31.52,18.54Z"/><path class="cls-10" d="M30.53,16.16l2.31,2.42,5.42.19q-1.88-1.26-3.75-2.49Z"/><path class="cls-8" d="M117.45,21.77Q98.52,21,79.58,20.25c30.05,18.59,60.14,4.43,90.28,5.16,101,2.45,396.08,3.49,497,6.62v8.13c-99.27-.39-392.51-.86-491.75-2.32C155.92,37.56,136.7,31,117.45,21.77Z"/><path class="cls-10" d="M75.45,17.69l4.13,2.56q18.94.72,37.87,1.52-2.76-1.32-5.51-2.71Q93.7,18.33,75.45,17.69Z"/><path class="cls-8" d="M75.45,17.69l4.13,2.56q18.94.72,37.87,1.52-2.76-1.32-5.51-2.71Q93.7,18.33,75.45,17.69Z"/><path class="cls-10" d="M267.58,12.67c5.18,3.47,15.85,4.67,23.4,5.62,31.52,4,159.39,4.61,191.61,5.18,28,.5,155.34.59,183.34.38-3-11-13.51-19.19-26-19.19H283.9C277.71,5.61,261.28,8.44,267.58,12.67Z"/><path class="cls-10" d="M329.84,23.91c-13.54-.74-27.18-1.63-40.43-3.36-7.63-1-17.38-2.16-23.2-5.29-8.54-4.6-1.91-8.17,7.2-10.6H94.16c9.7,5.3,19.39,10.39,29.08,14.88q47.4,1.94,94.75,4.17c84.89,4,363.78,8.37,448.84,11.33V30.27a24.28,24.28,0,0,0-.38-4.08l-3.15,0C616.86,26.51,376.09,26.43,329.84,23.91Z"/><path class="cls-10" d="M25.69,16a35.08,35.08,0,0,1-6.45-7.36,26.17,26.17,0,0,0-4.75,3.73Q18.73,14,23,15.92Z"/><path class="cls-10" d="M14.49,12.37a25.47,25.47,0,0,0-2.74,3.2L23,15.92Q18.73,14,14.49,12.37Z"/><path class="cls-10" d="M111.94,19.06l11.3.47C113.55,15,103.86,10,94.16,4.65H85.62C94.4,9.72,103.17,14.63,111.94,19.06Z"/><path class="cls-10" d="M25.69,16l4.84.15q-2.86-3-5.71-6-2-1.23-4.07-2.4c-.52.27-1,.57-1.52.88A35.08,35.08,0,0,0,25.69,16Z"/><path class="cls-10" d="M33.43,4.65A27.18,27.18,0,0,0,22,7.2l2.87,3q4.84,2.93,9.69,6.12,20.47.66,40.94,1.4c-7-4.36-14-8.77-21-13Z"/><path class="cls-10" d="M30.53,16.16l4,.12q-4.84-3.18-9.69-6.12Q27.67,13.15,30.53,16.16Z"/><path class="cls-10" d="M20.75,7.77q2,1.17,4.07,2.4L22,7.2C21.55,7.38,21.14,7.56,20.75,7.77Z"/><path class="cls-10" d="M75.45,17.69q18.25.67,36.49,1.37c-8.77-4.43-17.54-9.34-26.32-14.4H54.4C61.42,8.92,68.43,13.32,75.45,17.69Z"/><path class="cls-8" d="M61.18,80.63q-3-.85-6.15-1.61L24.83,80q-8.75,1.2-17.69,2.16v.24l31.23-1Z"/><path class="cls-8" d="M444.76,92.63c-10.29.26-115.22.47-125.51.65q-9.86,1.05-19.64,2.29c3.15.46,6.31.87,9.5,1.21,14.58-1.72,123.92-3.14,138.77-4.22Z"/><path class="cls-8" d="M22.39,98.29l4,0c1.12-.64,2.24-1.29,3.28-2s0-1.75-1.6-2c-6.91-1-13.91-1.76-21-2.29v2c6.58.45,13.12,1.07,19.6,1.93C25.35,96.75,23.89,97.53,22.39,98.29Z"/><path class="cls-8" d="M12.57,22q-2.71-.28-5.43-.51v1.91q3.31.24,6.57.56C13.33,23.35,12.95,22.7,12.57,22Z"/><path class="cls-10" d="M447.87,92.56C433,93.64,323.68,95.06,309.1,96.78c10.06,1.06,115,1.51,125.5,1.21q22-.62,43.91-1.44a139.07,139.07,0,0,1-17.24-4.24Q454.54,92.41,447.87,92.56Z"/><path class="cls-8" d="M447.87,92.56C433,93.64,323.68,95.06,309.1,96.78c10.06,1.06,115,1.51,125.5,1.21q22-.62,43.91-1.44a139.07,139.07,0,0,1-17.24-4.24Q454.54,92.41,447.87,92.56Z"/><path class="cls-10" d="M288.58,93.72q5.47,1,11,1.86,9.78-1.24,19.64-2.29Q303.92,93.55,288.58,93.72Z"/><path class="cls-8" d="M288.58,93.72q5.47,1,11,1.86,9.78-1.24,19.64-2.29Q303.92,93.55,288.58,93.72Z"/><path class="cls-7" d="M29.71,96.27c-1,.69-2.16,1.34-3.28,2Q50.71,98.07,75,98c3.59-2.32,5.81-5.1,4.4-8.27-1.86-4.18-10.58-6.93-17-8.78l-1.24-.34-22.81.75-31.23,1V92c7.06.54,14.06,1.27,21,2.29C29.67,94.52,30.9,95.5,29.71,96.27Z"/><path class="cls-8" d="M29.71,96.27c-1,.69-2.16,1.34-3.28,2Q50.71,98.07,75,98c3.59-2.32,5.81-5.1,4.4-8.27-1.86-4.18-10.58-6.93-17-8.78l-1.24-.34-22.81.75-31.23,1V92c7.06.54,14.06,1.27,21,2.29C29.67,94.52,30.9,95.5,29.71,96.27Z"/><path class="cls-8" d="M26.74,95.93c-6.48-.86-13-1.48-19.6-1.93v4.43l15.25-.14C23.89,97.53,25.35,96.75,26.74,95.93Z"/><path class="cls-8" d="M26.74,95.93c-6.48-.86-13-1.48-19.6-1.93v4.43l15.25-.14C23.89,97.53,25.35,96.75,26.74,95.93Z"/><path class="cls-10" d="M22.39,98.29a109.66,109.66,0,0,1-15.25,6.14v31.22c7.14-2.31,13.68-34.17,19.29-37.4Z"/><path class="cls-8" d="M22.39,98.29a109.66,109.66,0,0,1-15.25,6.14v31.22c7.14-2.31,13.68-34.17,19.29-37.4Z"/><path class="cls-10" d="M67.09,101.87A44.47,44.47,0,0,0,75,98q-24.29.06-48.57.24c-5.62,3.23-12.15,35.09-19.29,37.4V142q4-.41,8.08-.86C32.69,139.13,52.26,107.57,67.09,101.87Z"/><path class="cls-8" d="M67.09,101.87A44.47,44.47,0,0,0,75,98q-24.29.06-48.57.24c-5.62,3.23-12.15,35.09-19.29,37.4V142q4-.41,8.08-.86C32.69,139.13,52.26,107.57,67.09,101.87Z"/><path class="cls-10" d="M7.14,98.43v6a109.66,109.66,0,0,0,15.25-6.14Z"/><path class="cls-8" d="M7.14,98.43v6a109.66,109.66,0,0,0,15.25-6.14Z"/><path class="cls-8" d="M7.14,80.59v1.58q8.93-1,17.69-2.16Z"/><path class="cls-8" d="M7.14,80.59v1.58q8.93-1,17.69-2.16Z"/><path class="cls-10" d="M39.27,146.91c-5.21.94-10.42-58.17-15.62-57.22,6.42-.15,12.84,59.76,19.26,59.61l15.68-2.81Q48.92,146.68,39.27,146.91Z"/><path class="cls-8" d="M39.27,146.91c-5.21.94-10.42-58.17-15.62-57.22,6.42-.15,12.84,59.76,19.26,59.61l15.68-2.81Q48.92,146.68,39.27,146.91Z"/><path class="cls-10" d="M444.76,92.63l3.11-.07q5.84-.43,11.7-.78-2.79-.9-5.59-1.91c-13.48.84-121.48,2-134.74,3.41C329.54,93.1,434.47,92.89,444.76,92.63Z"/><path class="cls-8" d="M444.76,92.63l3.11-.07q5.84-.43,11.7-.78-2.79-.9-5.59-1.91c-13.48.84-121.48,2-134.74,3.41C329.54,93.1,434.47,92.89,444.76,92.63Z"/><path class="cls-10" d="M326,143.6l-13,.25q-26.15,1.45-52.26,3.12,2.34.69,4.69,1.35c26.17-1.67,147-3.11,173.29-4.48l-1.23-.54C431.9,143.41,331.65,143.49,326,143.6Z"/><path class="cls-8" d="M326,143.6l-13,.25q-26.15,1.45-52.26,3.12,2.34.69,4.69,1.35c26.17-1.67,147-3.11,173.29-4.48l-1.23-.54C431.9,143.41,331.65,143.49,326,143.6Z"/><path class="cls-10" d="M161.33,75.43Q108.18,77.2,55,79q3.12.77,6.15,1.61,51.94-1.7,103.88-3.35Z"/><path class="cls-8" d="M161.33,75.43Q108.18,77.2,55,79q3.12.77,6.15,1.61,51.94-1.7,103.88-3.35Z"/><path class="cls-10" d="M205,96.48l-4.68-2.14q-11.06,1.06-22.08,2.24-6.07.66-12.12,1.37l24.44,0Q197.79,97.17,205,96.48Z"/><path class="cls-8" d="M205,96.48l-4.68-2.14q-11.06,1.06-22.08,2.24-6.07.66-12.12,1.37l24.44,0Q197.79,97.17,205,96.48Z"/><path class="cls-10" d="M461.27,92.32l-1.7-.53q-5.86.35-11.7.78Q454.54,92.41,461.27,92.32Z"/><path class="cls-8" d="M461.27,92.32l-1.7-.53q-5.86.35-11.7.78Q454.54,92.41,461.27,92.32Z"/><path class="cls-10" d="M454,89.88c-5.08-1.82-10.15,56.19-15.23,54-26.25,1.37-147.11,2.81-173.29,4.48,7.6,2.13,15.3-56.1,23.12-54.6q15.34-.17,30.67-.43C332.51,91.87,440.51,90.72,454,89.88Z"/><path class="cls-8" d="M454,89.88c-5.08-1.82-10.15,56.19-15.23,54-26.25,1.37-147.11,2.81-173.29,4.48,7.6,2.13,15.3-56.1,23.12-54.6q15.34-.17,30.67-.43C332.51,91.87,440.51,90.72,454,89.88Z"/><path class="cls-10" d="M254.27,145q3.24,1,6.51,2,26.1-1.7,52.26-3.12Z"/><path class="cls-8" d="M254.27,145q3.24,1,6.51,2,26.1-1.7,52.26-3.12Z"/><path class="cls-10" d="M248.71,143.13l-26.25.52c-54.59,1.1-109.27,1.72-163.88,2.83L42.9,149.3q105.66-2.42,211.37-4.34Q251.48,144.07,248.71,143.13Z"/><path class="cls-8" d="M248.71,143.13l-26.25.52c-54.59,1.1-109.27,1.72-163.88,2.83L42.9,149.3q105.66-2.42,211.37-4.34Q251.48,144.07,248.71,143.13Z"/><path class="cls-10" d="M208.16,97.9,205,96.48q-7.23.7-14.44,1.45Z"/><path class="cls-8" d="M208.16,97.9,205,96.48q-7.23.7-14.44,1.45Z"/><path class="cls-10" d="M7.14,147.71V90.08l16.51-.39c5.21-1,10.41,58.16,15.62,57.22Q23.19,147.27,7.14,147.71Z"/><path class="cls-8" d="M7.14,147.71V90.08l16.51-.39c5.21-1,10.41,58.16,15.62,57.22Q23.19,147.27,7.14,147.71Z"/><path class="cls-10" d="M200.33,94.33c-11.85-5.47-23.58-11.24-35.27-17.06q-51.94,1.64-103.88,3.35l1.24.34c6.4,1.84,15.11,4.6,17,8.78,1.42,3.17-.81,5.95-4.4,8.27q45.57-.12,91.14-.07,6-.71,12.12-1.37Q189.27,95.38,200.33,94.33Z"/><path class="cls-8" d="M200.33,94.33c-11.85-5.47-23.58-11.24-35.27-17.06q-51.94,1.64-103.88,3.35l1.24.34c6.4,1.84,15.11,4.6,17,8.78,1.42,3.17-.81,5.95-4.4,8.27q45.57-.12,91.14-.07,6-.71,12.12-1.37Q189.27,95.38,200.33,94.33Z"/><path class="cls-10" d="M190.58,97.93l-24.44,0c-43.06,5.09-85.07,41.4-126.87,49q9.66-.22,19.32-.42c39.2-7,78.66-42.56,119.07-47.14Q184.11,98.61,190.58,97.93Z"/><path class="cls-8" d="M190.58,97.93l-24.44,0c-43.06,5.09-85.07,41.4-126.87,49q9.66-.22,19.32-.42c39.2-7,78.66-42.56,119.07-47.14Q184.11,98.61,190.58,97.93Z"/><path class="cls-10" d="M190.58,97.93q-6.47.68-12.92,1.42c-40.41,4.59-79.88,40.18-119.07,47.14,54.61-1.11,109.29-1.74,163.88-2.83l26.25-.52c-13.78-4.66-27.26-39.29-40.56-45.24Z"/><path class="cls-8" d="M190.58,97.93q-6.47.68-12.92,1.42c-40.41,4.59-79.88,40.18-119.07,47.14,54.61-1.11,109.29-1.74,163.88-2.83l26.25-.52c-13.78-4.66-27.26-39.29-40.56-45.24Z"/><path class="cls-10" d="M166.13,97.95Q120.57,98,75,98a44.47,44.47,0,0,1-7.91,3.85c-14.83,5.71-34.4,37.27-51.88,39.24q-4,.46-8.08.86v5.74q16.06-.44,32.13-.8C81.06,139.35,123.07,103,166.13,97.95Z"/><path class="cls-8" d="M166.13,97.95Q120.57,98,75,98a44.47,44.47,0,0,1-7.91,3.85c-14.83,5.71-34.4,37.27-51.88,39.24q-4,.46-8.08.86v5.74q16.06-.44,32.13-.8C81.06,139.35,123.07,103,166.13,97.95Z"/><path class="cls-10" d="M12.57,22c.38.67.76,1.32,1.14,2,19.43,1.92,37.67,6,55.59,10.73A268.25,268.25,0,0,0,12.57,22Z"/><path class="cls-8" d="M12.57,22c.38.67.76,1.32,1.14,2,19.43,1.92,37.67,6,55.59,10.73A268.25,268.25,0,0,0,12.57,22Z"/><path class="cls-10" d="M100.75,43.45,92,43.08q4.19,1.68,8.35,3.46l11.7,0Q106.37,45,100.75,43.45Z"/><path class="cls-10" d="M662.84,93.16c-28.36,1.19-156,2.37-184.33,3.39,7.28,1.28,113.89,1.85,121.15,1.54,22.39-1,44.76-2.1,67.16-3V93Z"/><path class="cls-10" d="M483.09,83.88c-32.64.9-159.9,2.08-192.41,3.83l4.24,2.22c30.88-1.63,156.49-2.73,187.43-3.62,28.3-.82,156.06-.5,184.46-.33V83.61C638.68,83.46,511.16,83.1,483.09,83.88Z"/><path class="cls-10" d="M263.08,74.27c69.9-2.06,333.79-3.9,403.74-5.34v-2C595.37,68.37,330,70.2,258.56,72.33Q260.82,73.28,263.08,74.27Z"/><path class="cls-10" d="M247.58,72.65l11-.32c-18.66-7.83-37.31-13.11-55.93-12.66-33.29.8-62.38-5.51-90.6-13.12l-11.7,0c20.58,8.73,40.76,18.82,61,28.89Q204.46,74,247.58,72.65Z"/><path class="cls-10" d="M437.52,143.3l17.89-.32c19.28-1,137.89-2,157.16-3-16.29.26-131.92.54-148.21.83l-29,1.51Z"/><path class="cls-10" d="M612.57,140c-19.27,1-137.88,2-157.16,3,37.36-.68,174.05-1.29,211.41-1.8v-2Q639.7,139.58,612.57,140Z"/><path class="cls-10" d="M482.36,86.31c-30.94.89-156.56,2-187.43,3.62,4.52,2.37,9,4.77,13.57,7.16,11.29-.17,117.21-.37,128.5-.62,33.14-.73,165.63-1,198.77-1.7,10.34-.22,20.72-.58,31.06-1.13V86C638.42,85.81,510.66,85.48,482.36,86.31Z"/><path class="cls-10" d="M464.36,140.84l-31,.56,2.08.95Z"/><path class="cls-10" d="M290.68,87.72C323.2,86,450.46,84.78,483.09,83.88c28.07-.78,155.58-.43,183.73-.27V68.93c-70,1.44-333.84,3.29-403.74,5.34C272.28,78.32,281.48,82.93,290.68,87.72Z"/><path class="cls-10" d="M612.57,140q27.15-1.43,54.26-3v-1.72c-34.33,2.08-168.07,3.83-202.46,5.6C480.65,140.55,596.28,140.27,612.57,140Z"/><path class="cls-10" d="M666.82,139.22V137q-27.1,1.64-54.26,3Q639.7,139.57,666.82,139.22Z"/><path class="cls-10" d="M437,96.47c-11.29.25-117.21.45-128.5.62,10.07,5.31,114.77,39.67,124.83,44.31l31-.56c34.4-1.77,168.13-3.53,202.46-5.6V93.64c-10.34.54-20.72.9-31.06,1.13C602.63,95.47,470.14,95.74,437,96.47Z"/><path class="cls-10" d="M69.29,34.72c7.64,2.54,15.19,5.35,22.69,8.36l8.77.37C90.27,40.51,79.84,37.5,69.29,34.72Z"/><path class="cls-10" d="M44.38,76.9C38,78.08,31.45,79.1,24.83,80L55,79q-4.91-1.21-10-2.23Z"/><path class="cls-10" d="M100.33,46.54Q96.17,44.77,92,43.08q-30.76-1.3-61.57-2.65c-5.57-.24-11.13-7-16.7-16.43q-3.26-.32-6.57-.56V44.1c6.41.68,12.8,1.45,19.11,2.35Q63.29,46.46,100.33,46.54Z"/><path class="cls-10" d="M478.51,96.56c28.34-1,156-2.2,184.33-3.39l4-.16V90.26c-35.1,2.08-170.54,1.58-205.55,2.06A139.07,139.07,0,0,0,478.51,96.56Z"/><path class="cls-10" d="M26.25,46.44c-6.31-.9-12.71-1.66-19.11-2.35v2.35Z"/><path class="cls-10" d="M44.38,76.9l.64-.12c-12.14-2.44-25-4.16-37.88-5.54v9.34L24.83,80C31.45,79.1,38,78.08,44.38,76.9Z"/><path class="cls-10" d="M454,89.88q2.79,1,5.59,1.91c5.67-.34,11.36-.65,17.08-.89,30.22-1.27,159.89,58.81,190.17,58.45v-2.06c-32,.42-163.32.38-195.18,1.73C465.73,149.25,459.85,89.51,454,89.88Z"/><path class="cls-10" d="M438.75,143.84l16.66-.86-17.89.32Z"/><path class="cls-10" d="M78.3,63.13c.57,7.5-23,11.78-33.28,13.66q5.1,1,10,2.23,53.15-1.79,106.3-3.59c-20.24-10.07-40.42-20.16-61-28.89q-37-.06-74.08-.09a263.29,263.29,0,0,1,38.26,7.95C70.54,56.2,78,59,78.3,63.13Z"/><path class="cls-10" d="M459.57,91.78l1.7.53c35-.48,170.46,0,205.55-2.06v59.08c-30.28.36-160-59.71-190.17-58.45C470.94,91.13,465.25,91.44,459.57,91.78Z"/><path class="cls-10" d="M438.75,143.84c5.08,2.23,10.16-55.78,15.23-54,5.87-.37,11.75,59.37,17.66,59.12,31.86-1.34,163.22-1.3,195.18-1.73v-6.09c-37.36.51-174.06,1.12-211.41,1.8Z"/><path class="cls-10" d="M78.3,63.13C78,59,70.54,56.2,64.51,54.39a263.29,263.29,0,0,0-38.26-7.95H7.14v24.8C20,72.63,32.88,74.35,45,76.79,55.35,74.9,78.87,70.63,78.3,63.13Z"/><path class="cls-10" d="M13.71,24c5.57,9.44,11.14,16.19,16.7,16.43Q61.24,41.76,92,43.08c-7.49-3-15-5.82-22.69-8.36C51.38,30,33.14,25.92,13.71,24Z"/></g><path class="cls-11" d="M33.17,154.74c-10.4,0-18.91-8-18.91-17.68V32.8c0-9.49,8.23-17.18,18.37-17.18h610c10.4,0,18.91,8,18.91,17.68V137.06c0,9.72-8.51,17.68-18.91,17.68Z"/><path class="cls-12" d="M11.5,14.55c2,0,3.54,2.06,3.54,4.54s-1.56,4.48-3.54,4.48-3.56-2-3.56-4.48S9.45,14.55,11.5,14.55Z"/><path class="cls-13" d="M11.5,24.32c-2.35,0-4.17-2.34-4.17-5.24s1.82-5.3,4.17-5.3,4.2,2.43,4.2,5.3S13.78,24.32,11.5,24.32Zm0-9c-1.64,0-3,1.76-3,3.78s1.32,3.65,3,3.65,2.88-1.67,2.88-3.65S13.12,15.3,11.5,15.3Z"/><path class="cls-14" d="M11.8,19.39c-.3,1.22-1.21,2-1.94,1.67s-1.07-1.51-.77-2.72,1.08-2,1.8-1.73S12,18,11.8,19.39Z"/><path class="cls-15" d="M33.17,154.74c-10.4,0-18.91-8-18.91-17.68V32.8c0-9.49,8.23-17.18,18.37-17.18h610c10.4,0,18.91,8,18.91,17.68V137.06c0,9.72-8.51,17.68-18.91,17.68Z"/><path class="cls-16" d="M642.63,15.62h-610c-10.15,0-18.37,7.69-18.37,17.18V137.06c0,9.72,8.51,17.68,18.91,17.68H642.63c10.4,0,18.91-8,18.91-17.68V33.3C661.54,23.58,653,15.62,642.63,15.62Zm11.12,86.54c0,9.39-8.22,46.22-18.26,46.22H40.31c-10,0-18.26-36.83-18.26-46.22V38.57C22.05,29.41,30,22,39.8,22h595.7c10,0,18.26,7.68,18.26,17.07Z"/><path class="cls-12" d="M662.07,14.55c2,0,3.54,2.06,3.54,4.54s-1.56,4.48-3.54,4.48-3.56-2-3.56-4.48S660,14.55,662.07,14.55Z"/><path class="cls-13" d="M662.07,24.32c-2.35,0-4.17-2.34-4.17-5.24s1.82-5.3,4.17-5.3,4.2,2.43,4.2,5.3S664.34,24.32,662.07,24.32Zm0-9c-1.64,0-3,1.76-3,3.78s1.32,3.65,3,3.65S665,21.06,665,19.08,663.69,15.3,662.07,15.3Z"/><path class="cls-14" d="M662.36,19.39c-.3,1.22-1.21,2-1.94,1.67s-1.07-1.51-.77-2.72,1.08-2,1.8-1.73S662.6,18,662.36,19.39Z"/><path class="cls-12" d="M662.07,145.77c2,0,3.54,2.06,3.54,4.54s-1.56,4.48-3.54,4.48-3.56-2-3.56-4.48S660,145.77,662.07,145.77Z"/><path class="cls-13" d="M662.07,155.54c-2.35,0-4.17-2.34-4.17-5.24s1.82-5.3,4.17-5.3,4.2,2.43,4.2,5.3S664.34,155.54,662.07,155.54Zm0-9c-1.64,0-3,1.76-3,3.78s1.32,3.65,3,3.65,2.88-1.67,2.88-3.65S663.69,146.52,662.07,146.52Z"/><path class="cls-14" d="M662.36,150.61c-.3,1.22-1.21,2-1.94,1.67s-1.07-1.51-.77-2.72,1.08-2,1.8-1.73S662.6,149.26,662.36,150.61Z"/><path class="cls-12" d="M12.75,145.77c2,0,3.54,2.06,3.54,4.54s-1.56,4.48-3.54,4.48-3.56-2-3.56-4.48S10.7,145.77,12.75,145.77Z"/><path class="cls-13" d="M12.75,155.54c-2.35,0-4.17-2.34-4.17-5.24s1.82-5.3,4.17-5.3,4.2,2.43,4.2,5.3S15,155.54,12.75,155.54Zm0-9c-1.64,0-3,1.76-3,3.78s1.32,3.65,3,3.65,2.88-1.67,2.88-3.65S14.38,146.52,12.75,146.52Z"/><path class="cls-14" d="M13,150.61c-.3,1.22-1.21,2-1.94,1.67s-1.07-1.51-.77-2.72,1.08-2,1.8-1.73S13.28,149.26,13,150.61Z"/></g></g></svg>