<svg id="Layer_1" data-name="Layer 1" xmlns="http://www.w3.org/2000/svg" viewBox="0 0 86.31 77.49"><defs><style>.cls-1{fill:#70a8a8;}.cls-2{fill:#5f5e01;}.cls-3{fill:#fff;}.cls-4{fill:#fc0;}.cls-5{fill:#595801;}.cls-6{fill:#f90;}.cls-7{fill:#747401;}.cls-8{fill:#3f3f01;}.cls-9{fill:#416967;}.cls-10{fill:#458787;}.cls-11{fill:#e8e802;}.cls-12{fill:#737201;}.cls-13{fill:#b8b801;}.cls-14{fill:#330;}.cls-15{fill:#89992f;}.cls-16{fill:#542e00;}.cls-17{fill:#3b0b00;}.cls-18{fill:#ffbf00;}</style></defs><title>dragon</title><path class="cls-1" d="M65.07,25.81a.5.5,0,0,0,.31.12,17,17,0,0,0,2.78-.1c.32,0,.28-.25.27-.5-.66-6.13-9.69-3.94-9.69-3.94a4.09,4.09,0,0,1,2.94.78,10.14,10.14,0,0,1,2.26,2.09q.38.46.72.94A3.13,3.13,0,0,0,65.07,25.81Z"/><path class="cls-2" d="M66.16,26.11l-.79,0a.67.67,0,0,1-.41-.16h0a1.48,1.48,0,0,1-.31-.42c0-.07-.08-.15-.13-.22-.22-.32-.46-.64-.71-.93a9.9,9.9,0,0,0-2.23-2.06,4.14,4.14,0,0,0-2.76-.77h0l-.08-.32c.21-.05,5.2-1.23,8,.77a4.43,4.43,0,0,1,1.85,3.31v.07c0,.23,0,.57-.42.62A17.17,17.17,0,0,1,66.16,26.11Zm-1-.43a.34.34,0,0,0,.21.08,16.89,16.89,0,0,0,2.75-.1c.13,0,.14,0,.13-.28v-.06a4.11,4.11,0,0,0-1.71-3.07c-1.81-1.28-4.64-1.18-6.34-1a6,6,0,0,1,1.55.73,10.22,10.22,0,0,1,2.3,2.12c.25.3.5.63.73,1,.05.08.1.16.15.25a1.23,1.23,0,0,0,.24.34Z"/><path class="cls-3" d="M65.89,59.78s1,.16-2,2.68a7.15,7.15,0,0,1-1.53-3.12Z"/><path class="cls-2" d="M63.91,62.55l0,0a7.15,7.15,0,0,1-1.55-3.15l0-.09h.1l3.51.44a.28.28,0,0,1,.22.2c.12.43-.61,1.3-2.16,2.6Zm-1.44-3.13a7.37,7.37,0,0,0,1.45,3c2-1.68,2.11-2.25,2.07-2.42a.15.15,0,0,0-.11-.11Z"/><path class="cls-3" d="M61.61,59.23s.22,1.75-3.23,3c0,0,.38-3.23,0-3.78C58.38,58.41,61.4,58.63,61.61,59.23Z"/><path class="cls-2" d="M58.3,62.28v-.1c.11-.89.31-3.3,0-3.73l-.08-.11h.14c.31,0,3.06.24,3.29.86h0c0,.07.19,1.82-3.27,3Zm.19-3.8a13.19,13.19,0,0,1,0,3.61,5.24,5.24,0,0,0,2.77-1.86,1.7,1.7,0,0,0,.32-1C61.37,58.81,59.39,58.56,58.49,58.48Z"/><path class="cls-3" d="M57.07,58.46a4.73,4.73,0,0,1-2.46,4.05S53,62.3,51.54,58.46Z"/><path class="cls-2" d="M54.62,62.58h0c-.07,0-1.64-.27-3.12-4.09l0-.09h5.69v.06a4.83,4.83,0,0,1-2.5,4.11Zm-3-4.06c1.34,3.43,2.77,3.87,3,3.92A4.71,4.71,0,0,0,57,58.53Z"/><path class="cls-3" d="M51,58.68a7.78,7.78,0,0,1-2.36,5.53A5.83,5.83,0,0,1,44.74,59Z"/><path class="cls-2" d="M48.65,64.29h0S44.73,63,44.68,59v-.06h.06l6.31-.28v.07a7.91,7.91,0,0,1-2.38,5.58ZM44.81,59a5.78,5.78,0,0,0,3.81,5.12,7.77,7.77,0,0,0,2.31-5.39Z"/><path class="cls-3" d="M44.14,60.21s.71,2-1,4.93a7,7,0,0,1-5.86-2.63S43,59,44.14,60.21Z"/><path class="cls-2" d="M42.79,65.22a7.13,7.13,0,0,1-5.55-2.67l0-.06.06,0c.24-.14,5.81-3.52,6.93-2.29v0s.7,2.09-1,5l0,0h-.4Zm-5.4-2.69a7,7,0,0,0,5.72,2.55,6.33,6.33,0,0,0,1-4.83c-.44-.46-1.73-.21-3.75.72C39,61.6,37.69,62.36,37.39,62.53Z"/><path class="cls-3" d="M39,61.86a10.83,10.83,0,0,1-1.1,5.31s-.82.27-.93-.27A8.08,8.08,0,0,1,33.79,63S38.28,60.05,39,61.86Z"/><path class="cls-2" d="M37.47,67.31a.71.71,0,0,1-.36-.08.44.44,0,0,1-.21-.29,8.23,8.23,0,0,1-3.18-4l0,0,0,0c.13-.09,3.26-2.09,4.69-1.63a.93.93,0,0,1,.61.57v0A11,11,0,0,1,38,67.2v0h0A1.56,1.56,0,0,1,37.47,67.31ZM33.87,63A8.08,8.08,0,0,0,37,66.84l0,0v0a.32.32,0,0,0,.15.23,1,1,0,0,0,.67,0,10.84,10.84,0,0,0,1.08-5.24.79.79,0,0,0-.52-.48C37.12,61,34.26,62.74,33.87,63Z"/><path class="cls-3" d="M33.3,64.38a6,6,0,0,1,0,3.29s-1.1.49-2.85-2.36C30.45,65.31,33.14,63.69,33.3,64.38Z"/><path class="cls-2" d="M33.08,67.76c-.42,0-1.38-.29-2.69-2.42l0-.06.06,0c.23-.14,2.22-1.32,2.79-1.08a.26.26,0,0,1,.16.18,6,6,0,0,1,0,3.32v0h0A.62.62,0,0,1,33.08,67.76Zm-2.54-2.43c1.52,2.44,2.52,2.33,2.7,2.28a6,6,0,0,0,0-3.21h0a.13.13,0,0,0-.08-.1C32.74,64.12,31.18,65,30.54,65.33Z"/><path class="cls-3" d="M30.28,65.8a8,8,0,0,1,.27,3s-2.63.22-3.83-1.21C26.72,67.55,29.41,65,30.28,65.8Z"/><path class="cls-2" d="M30.15,68.84a4.71,4.71,0,0,1-3.48-1.24l0,0,0,0c.11-.11,2.74-2.61,3.65-1.75l0,0a8,8,0,0,1,.28,3v.06h-.47Zm-3.34-1.28c1.09,1.22,3.3,1.16,3.68,1.14a8.18,8.18,0,0,0-.27-2.86c-.43-.37-1.33.11-2,.59A13.49,13.49,0,0,0,26.81,67.56Z"/><path class="cls-4" d="M66.34,59.61S41,55.07,23.44,71L22,67.44s1.75,7.45-2.3,8.54c0,0-5.7,4.93-6.57-4.16,0,0,.22-10.36,1.21-12.63,0,0,4.05-5.18,3.83-8.65Z"/><path class="cls-5" d="M16.57,77.49a2.7,2.7,0,0,1-1-.19c-1.42-.57-2.3-2.41-2.59-5.46,0-.44.23-10.44,1.22-12.71l0,0c0-.05,4-5.17,3.8-8.54v-.21l48.37,9.1-.06.32c-.25,0-25.5-4.34-42.76,11.3l-.17.16-.94-2.31c.29,2.27.36,6.38-2.64,7.22A5.73,5.73,0,0,1,16.57,77.49ZM14.49,59.28c-1,2.25-1.18,12.44-1.18,12.55.28,2.9,1.08,4.64,2.38,5.17,1.76.71,3.9-1.11,3.92-1.13l.06,0c3.86-1,2.2-8.28,2.18-8.35l.31-.1,1.34,3.29C36.68,58.87,54.36,58.48,62.26,59L18.35,50.74C18.41,54.16,14.78,58.91,14.49,59.28Z"/><path class="cls-6" d="M28.91,57.31a11.33,11.33,0,0,0-6.26,6.26s5.1-6.26,6.91-5.38Z"/><path class="cls-2" d="M22.06,64.57l.45-1.06a11.61,11.61,0,0,1,6.36-6.35l.11,0,1.13,1.51-.61-.29c-1.39-.67-5.32,3.63-6.71,5.34Zm6.8-7.06a11.27,11.27,0,0,0-5.48,5c1.42-1.62,4.2-4.53,5.81-4.53Z"/><path class="cls-6" d="M36.89,58.12s-9.14,2.77-13,7.52c0,0,12.52-7.68,14.87-7Z"/><path class="cls-2" d="M23.13,66.29l.62-.75c3.87-4.72,13-7.54,13.1-7.57h0l1.88.49h0l-.09.32h0c-1.86-.46-10.43,4.38-14.72,7Zm13.76-8c-.65.2-8.18,2.63-12.15,6.62,2.62-1.56,9.79-5.74,12.94-6.42Z"/><path class="cls-6" d="M47.93,58.6s-12.82,1.81-19.72,6.33c0,0,16.84-6.16,20.21-5.59S47.93,58.6,47.93,58.6Z"/><path class="cls-2" d="M26.93,65.57l1.2-.78C35,60.3,47.78,58.45,47.91,58.44H48c2.06.7,2,.89,2,1s-.22.25-1.57,0c-3.3-.56-20,5.52-20.13,5.58Zm21-6.8c-.73.11-11.36,1.72-18.16,5.43,4.31-1.53,15.91-5.5,18.7-5l.85.12C49,59.14,48.41,58.94,47.91,58.77Z"/><path class="cls-1" d="M7,23.24S5.5,19.06,2.27,19.13c0,0,4.79-1.79,7.28.66Z"/><path class="cls-2" d="M7,23.58l-.11-.29s-1.51-4-4.53-4H2.28l-1,0,.9-.34c.2-.08,4.91-1.8,7.45.69l.1.1ZM3.12,19c2.31.48,3.58,3,4,3.86l2.26-3.1C7.53,18.16,4.54,18.67,3.12,19Z"/><path class="cls-1" d="M9.28,20.31s-.33-5.83-1.56-7.81c0,0-.45-.74.78-.53,0,0,3.78.25,6.2,4.64Z"/><path class="cls-2" d="M9.13,20.61l0-.29c0-.06-.34-5.81-1.54-7.73a.59.59,0,0,1,0-.6c.14-.21.47-.27,1-.19a8.59,8.59,0,0,1,6.32,4.72l.07.13Zm-1-8.51c-.23,0-.29.06-.3.08s0,.19,0,.24C9,14.17,9.34,18.8,9.42,20l5.06-3.45a8.21,8.21,0,0,0-6-4.43A2.3,2.3,0,0,0,8.12,12.1Z"/><path class="cls-1" d="M15.28,16A18.53,18.53,0,0,1,12.81,4.13s.53-1.56,1.89,0c0,0,6.45,6.7,9.37,7.64Z"/><path class="cls-2" d="M15.22,16.17,15.14,16A18.86,18.86,0,0,1,12.65,4.1c0-.06.25-.71.8-.82s.88.17,1.37.74c.06.06,6.45,6.67,9.29,7.59l.39.13ZM13.61,3.6h-.09c-.37.07-.55.57-.55.57a18.49,18.49,0,0,0,2.37,11.57l8.31-4c-3-1.31-8.81-7.28-9.07-7.54A1.51,1.51,0,0,0,13.61,3.6Z"/><path class="cls-1" d="M24.72,11.49S26.23,2.65,25.9,1.13c0,0,.12-1.76,1.49-.51,0,0,3.87,3.58,4.76,8.31Z"/><path class="cls-2" d="M24.51,11.74l0-.27c0-.09,1.5-8.83,1.19-10.31v0c0-.09.07-.87.58-1.07.32-.13.72,0,1.18.45,0,0,3.92,3.67,4.81,8.4l0,.14ZM26.07,1.12c.28,1.46-.89,8.61-1.14,10.13l7-2.43A17.34,17.34,0,0,0,27.28.73c-.36-.33-.65-.46-.84-.38S26.09.93,26.07,1.12Z"/><path class="cls-7" d="M58.74,21.38a7,7,0,0,0-8-4.93s-21.53,1.4-23.66,23.09c0,0-8.54,5-4.93,13,0,0,1,5.18,9.45,5.92,0,0,41.16.41,44,2.22,0,0,8,0,8.44-2.3,0,0,5.81-3-1.75-11.28,0,0-1.75-2.74-2.63-10.3,0,0-2.52-12.82-14.57-11C65.06,25.82,62.16,20.89,58.74,21.38Z"/><path class="cls-7" d="M58.74,21.38a7,7,0,0,0-8-4.93s-21.53,1.4-23.66,23.09c0,0-8.54,5-4.93,13,0,0,1,5.18,9.45,5.92,0,0,41.16.41,44,2.22,0,0,8,0,8.44-2.3,0,0,5.81-3-1.75-11.28,0,0-1.75-2.74-2.63-10.3,0,0-2.52-12.82-14.57-11C65.06,25.82,62.16,20.89,58.74,21.38Z"/><path class="cls-2" d="M75.58,60.82h0l0,0C72.77,59,32,58.6,31.62,58.6c-4.44-.39-6.81-2-8-3.29A6.12,6.12,0,0,1,22,52.55C18.57,45,26.12,40,27,39.44c1.13-11.22,7.53-16.92,12.71-19.72a30.24,30.24,0,0,1,11.1-3.43,7.22,7.22,0,0,1,6.55,2.24,7.68,7.68,0,0,1,1.55,2.67c3.21-.33,5.86,3.74,6.29,4.44,12-1.77,14.62,11,14.65,11.1C80.66,44.19,82.38,47,82.4,47c3,3.26,4.26,6.12,3.83,8.47a4.44,4.44,0,0,1-2.07,3C83.55,60.79,75.91,60.82,75.58,60.82ZM51.92,16.55a10,10,0,0,0-1.13.07,29.9,29.9,0,0,0-11,3.4c-5.11,2.77-11.44,8.42-12.54,19.54v.08l-.07,0a14.55,14.55,0,0,0-3.78,3.47,8.65,8.65,0,0,0-1.09,9.3c0,.09,1.09,5.1,9.31,5.82,1.66,0,40.84.43,44,2.22,2.22,0,7.89-.4,8.23-2.17l0-.08.07,0a4.16,4.16,0,0,0,2-2.82c.41-2.24-.86-5-3.77-8.21-.09-.14-1.8-2.88-2.67-10.39,0-.11-2.63-12.62-14.38-10.81L65,26l-.06-.1S62,21.07,58.76,21.54l-.15,0,0-.14a7.32,7.32,0,0,0-1.52-2.68A6.59,6.59,0,0,0,51.92,16.55Z"/><path class="cls-8" d="M.21,34.25s0,.23,0,.66c-.09,2.79.5,14,14.28,23.66,0,0,5.15-2.41,5-13.69,0,0,1.86-6.68,6.68-5.81,0,0,2.91-7.72,6-11.55,0,0-8.06-7.51-23,2a5.11,5.11,0,0,0-2.41.88S3,36.11.21,34.25Z"/><path class="cls-2" d="M14.44,58.76l-.08-.05C.66,49.07-.09,38.05,0,34.9c0-.43,0-.66,0-.67l0-.27.22.15a2,2,0,0,0,1.56.3c2.31-.44,4.76-4.05,4.78-4.09l0,0a5.19,5.19,0,0,1,2.46-.91c4.27-2.73,10.71-5.73,17.15-4.59a12.31,12.31,0,0,1,6,2.61l.11.1-.09.12c-3,3.77-5.92,11.43-6,11.51l0,.13-.13,0c-4.48-.82-6.37,5.25-6.49,5.67.1,11.24-4.92,13.72-5.13,13.82ZM.35,34.53c0,.1,0,.23,0,.39C.24,38,1,48.85,14.47,58.38c.65-.38,5-3.25,4.86-13.5v0c0-.07,1.92-6.69,6.74-5.95.39-1,3.06-7.77,5.85-11.34-1-.84-9-6.6-22.64,2.14l-.08,0a5,5,0,0,0-2.3.83c-.23.34-2.61,3.75-5,4.21A2.34,2.34,0,0,1,.35,34.53Z"/><path class="cls-3" d="M10.44,45.35c3.27.22,5.44.53,8.47-1l.92-.45A8.67,8.67,0,0,1,23.3,39.5a59.17,59.17,0,0,0-10.51-.66A25.61,25.61,0,0,0,6,40.09a41.11,41.11,0,0,0-4.59,2.29,27.68,27.68,0,0,0,2.88,5.9A7.21,7.21,0,0,1,10.44,45.35Z"/><path class="cls-9" d="M6.35,31.08s-2.85-8,6-13.69c0,0,24.1-18.18,40.42-1.53,0,0,12.38,7.12-2.3,13.69,0,0-19.28.55-21-2.08S6.35,31.08,6.35,31.08Z"/><path class="cls-2" d="M6.24,31.28l-.05-.15c0-.08-2.79-8.19,6.09-13.89a51.17,51.17,0,0,1,14.13-7c7.4-2.26,18-3.14,26.48,5.5.4.23,5.13,3.08,4.94,6.87-.13,2.61-2.58,5-7.27,7.1H50.5c-.79,0-19.39.52-21.17-2.15-1.38-2.07-17,2-22.93,3.68ZM36,9a32.87,32.87,0,0,0-9.52,1.51,50.83,50.83,0,0,0-14,7c-8,5.14-6.34,12.25-6,13.36,2.09-.61,21.4-6.11,23.14-3.5,1.34,2,14.21,2.2,20.86,2,4.55-2,6.92-4.33,7-6.8C57.69,18.9,52.76,16,52.71,16l0,0A22.53,22.53,0,0,0,36,9Z"/><path class="cls-1" d="M34.28,9.25S46,8,53.73,16.94c0,0-32.54,6.82-38.37.66C15.36,17.6,32.64,12.86,34.28,9.25Z"/><path class="cls-2" d="M26.84,20.36c-5.27,0-9.74-.68-11.6-2.64l-.19-.2.26-.07c.17,0,17.23-4.76,18.82-8.26l0-.09h.09c.12,0,11.92-1.17,19.59,7.75L54,17l-.27.06C52.85,17.29,38,20.36,26.84,20.36ZM15.68,17.68c5.9,5.4,34.61-.21,37.74-.84-7.2-8.16-17.94-7.52-19-7.44C32.62,12.82,18,17,15.68,17.68Z"/><path class="cls-2" d="M34.78,39.75c3.7.81,7.53,2,11.31,2.3a47.84,47.84,0,0,0,6.48,0c1.77-.1,4.6.15,6.07-1l0,0a4.26,4.26,0,0,1,.72-.85c1.11-2,.27-5.35,0-7.59a2.35,2.35,0,0,1,0-.31c0-.11,0-.22,0-.32a2.06,2.06,0,0,1,.44-1.58l.22-.63a2.34,2.34,0,0,1,.11-.25,2.14,2.14,0,0,1-.19-.26,3.85,3.85,0,0,1-.27-.5,6.53,6.53,0,0,1-.38-.9,2.19,2.19,0,0,1-.11-.61,4.55,4.55,0,0,1-.82-.69,2.73,2.73,0,0,1-.34-.45,26.56,26.56,0,0,1-9.12,0c-1.62.32-3.24.66-4.85,1A20.05,20.05,0,0,0,38.7,29a15.37,15.37,0,0,1-1.42.72c-2.72,1.31-5.87,2-8.12,4.06h0a2,2,0,0,1-1.12.76,29.59,29.59,0,0,0-.9,4.78C29.59,38.53,32.32,39.21,34.78,39.75Z"/><path class="cls-10" d="M58.57,22s0-.09-.06-.25c-.37-1.38-2.69-7.83-12.92-3.86,0,0-9.2,3.62-12.57,7.39,0,0-2.38,2.46.74,2.55,0,0,21.44-2.63,24.24-1.23,0,0,3.45-.58,3.89-1.83C61.89,24.72,62.93,22.37,58.57,22Z"/><path class="cls-2" d="M33.78,28c-1,0-1.54-.27-1.73-.73-.35-.84.8-2,.85-2.09,3.35-3.76,12.25-7.28,12.63-7.43,4-1.54,7.19-1.7,9.6-.48a7.17,7.17,0,0,1,3.54,4.45l0,.14c1.67.18,2.75.66,3.22,1.45A1.78,1.78,0,0,1,62,24.79c-.46,1.32-3.87,1.91-4,1.93H58l0,0C55.21,25.34,34,27.93,33.78,28ZM51.47,16.73A16.35,16.35,0,0,0,45.65,18c-.09,0-9.2,3.64-12.51,7.35-.3.31-1,1.21-.79,1.75.13.32.62.51,1.41.53S55,25,58,26.39c1-.17,3.38-.78,3.71-1.72a1.45,1.45,0,0,0-.09-1.25c-.41-.7-1.48-1.14-3.08-1.29h-.12l0-.12s0-.09-.06-.24A6.83,6.83,0,0,0,55,17.5,7.67,7.67,0,0,0,51.47,16.73Z"/><path class="cls-1" d="M38,42.15a1.54,1.54,0,0,1-.45-.47A4.17,4.17,0,0,1,36.87,40a.7.7,0,0,0-.09-.34.53.53,0,0,0-.16-.14A5.13,5.13,0,0,0,34.67,39c-1.14-.17-2.27-.43-3.41-.53a7.21,7.21,0,0,0-3.4.38,1.66,1.66,0,0,0-.75.56.84.84,0,0,1-.12.15,3.1,3.1,0,0,1-.35.23,14.71,14.71,0,0,0-1.22.94,13,13,0,0,0-3,3.64,8.73,8.73,0,0,0-1,5.71,10.1,10.1,0,0,0,.76,2.39s1,5.18,9.45,5.92c0,0,6,.06,13.55.23l.06-.14-.1,0a1,1,0,0,0,.17-.3,8.54,8.54,0,0,0,.4-.86,10,10,0,0,0,.71-3.07A9.84,9.84,0,0,0,45.7,50,13.75,13.75,0,0,0,42,45a22.07,22.07,0,0,0-2.12-1.67q-.62-.43-1.26-.83C38.43,42.39,38.22,42.28,38,42.15Z"/><path class="cls-2" d="M45.29,58.84h-.12c-7.47-.17-13.49-.23-13.55-.23-4.44-.39-6.81-2-8-3.29A6.12,6.12,0,0,1,22,52.55a10,10,0,0,1-.76-2.39,8.84,8.84,0,0,1,1-5.81,13.16,13.16,0,0,1,3.06-3.69,14.91,14.91,0,0,1,1.24-1l.14-.09a1.18,1.18,0,0,0,.2-.13l.06-.07,0-.06a1.84,1.84,0,0,1,.82-.62,7.26,7.26,0,0,1,3.48-.39c.72.07,1.44.19,2.13.32l1.29.21.18,0a4.75,4.75,0,0,1,1.83.52.69.69,0,0,1,.21.18A.76.76,0,0,1,37,40a4.07,4.07,0,0,0,.67,1.61,1.36,1.36,0,0,0,.41.42h0l.37.23.24.14c.44.27.87.55,1.27.83a22.28,22.28,0,0,1,2.14,1.68,13.85,13.85,0,0,1,3.71,5,10,10,0,0,1,0,7.54,8.81,8.81,0,0,1-.37.8h0l-.15.38,0,.08Zm-15-20.2a6.17,6.17,0,0,0-2.36.42,1.51,1.51,0,0,0-.68.51l0,0a.64.64,0,0,1-.1.12,1.44,1.44,0,0,1-.25.17l-.12.07a14.56,14.56,0,0,0-1.21.93,12.83,12.83,0,0,0-3,3.6,8.51,8.51,0,0,0-1,5.6,10,10,0,0,0,.74,2.35c0,.09,1.09,5.1,9.31,5.82,0,0,6,.06,13.42.23h0l0-.05h0a.76.76,0,0,0,.08-.16l0-.09a8.3,8.3,0,0,0,.39-.84,9.83,9.83,0,0,0,.69-3,9.72,9.72,0,0,0-.7-4.27,13.52,13.52,0,0,0-3.62-4.91,22,22,0,0,0-2.11-1.66c-.4-.28-.82-.55-1.26-.82l-.24-.14c-.14-.08-.27-.16-.39-.24a1.69,1.69,0,0,1-.5-.52,4.32,4.32,0,0,1-.72-1.7v0a.49.49,0,0,0-.05-.22.39.39,0,0,0-.11-.09,4.51,4.51,0,0,0-1.71-.47l-.18,0L33.35,39c-.69-.12-1.4-.25-2.11-.31Q30.75,38.63,30.29,38.63Z"/><path class="cls-11" d="M85.74,56.18c-.48.68-2.92,2.53-14-2.48,0,0-14.46-5.42-22.32-7.59,0,0-5.83.1-1.07,2.64,0,0,16.43,7.06,17.5,10.59h-.37l.13.09c5.24.31,9.21.72,10,1.23,0,0,8,0,8.44-2.3a4.29,4.29,0,0,0,1.83-2.14Z"/><path class="cls-2" d="M75.58,60.82h0l0,0c-.48-.31-2.59-.77-9.93-1.21h0l0,0-.12-.09-.49-.32.7,0C63.94,55.67,48.4,49,48.24,48.9c-1.47-.78-2.09-1.4-2-1.94.22-.92,2.61-1,3.09-1h0c7.78,2.14,22.19,7.54,22.33,7.59,2,.89,12,5.21,13.85,2.54l.07-.1.12,0h0l.21.07-.06.16a4.47,4.47,0,0,1-1.84,2.19C83.55,60.79,75.91,60.82,75.58,60.82ZM66,59.28c5.69.35,8.86.74,9.67,1.21,2.22,0,7.89-.4,8.23-2.17l0-.08.07,0a4.14,4.14,0,0,0,1.49-1.5c-1.18.81-4.51,1.33-13.8-2.86-.13-.05-14.51-5.43-22.27-7.57-1.08,0-2.63.27-2.75.76,0,.16.05.65,1.78,1.57C49,48.89,64.84,55.71,66,59.28Z"/><path class="cls-2" d="M22.18,52.52a10.1,10.1,0,0,1-.76-2.39,8.73,8.73,0,0,1,1-5.71,13,13,0,0,1,3-3.64,14.7,14.7,0,0,1,1.22-.94,3.1,3.1,0,0,0,.35-.23.84.84,0,0,0,.12-.15,1.63,1.63,0,0,1,.64-.51,3,3,0,0,0-.49-1.38s-.31.08-.83.24c-.17.78-.26,1.26-.26,1.26-4.82-.88-6.68,5.81-6.68,5.81a23.73,23.73,0,0,1-1.34,8.78c.46,1.7,1.31,3.59,2.79,3.5a4.07,4.07,0,0,0,3.41-1.37A6.39,6.39,0,0,1,22.18,52.52Z"/><path class="cls-12" d="M21.3,57.35a2.69,2.69,0,0,1-.38,0c-1.22.09-2.26-1.17-2.93-3.62v-.05l0-.05a23.82,23.82,0,0,0,1.33-8.72v0c0-.07,1.91-6.67,6.71-6,0-.2.12-.59.23-1.11l0-.09.09,0c.52-.17.83-.24.84-.24l.1,0,.07.08a3.1,3.1,0,0,1,.52,1.46l0,.12-.11.05a1.46,1.46,0,0,0-.58.46l0,0a.66.66,0,0,1-.1.12,1.44,1.44,0,0,1-.25.17l-.12.07a14.48,14.48,0,0,0-1.21.93,12.83,12.83,0,0,0-3,3.6,8.51,8.51,0,0,0-1,5.6,10,10,0,0,0,.74,2.35v0a6.3,6.3,0,0,0,2.12,3.18l.13.11-.11.13A4.25,4.25,0,0,1,21.3,57.35ZM20.93,57a4,4,0,0,0,3.18-1.2A6.5,6.5,0,0,1,22,52.57a10.28,10.28,0,0,1-.76-2.41,8.84,8.84,0,0,1,1-5.81,13.16,13.16,0,0,1,3.06-3.69,14.85,14.85,0,0,1,1.24-1l.14-.09a1.18,1.18,0,0,0,.2-.13l.06-.07,0-.06a1.76,1.76,0,0,1,.59-.51,2.94,2.94,0,0,0-.37-1.1l-.63.18c-.16.72-.24,1.16-.24,1.17l0,.16-.16,0c-4.48-.82-6.37,5.25-6.49,5.67a24.19,24.19,0,0,1-1.33,8.77C18.76,55.25,19.56,57.09,20.93,57Z"/><path class="cls-4" d="M46.25,41.8s3.78-4.73.08-9.08c0,0-2.38-3.7,1.64-5.59H56.6s5.5.41,2.05,6.24c0,0-.66,6.75.08,8.14C58.74,41.51,56.77,44.44,46.25,41.8Z"/><path class="cls-5" d="M53.79,43.07A31.75,31.75,0,0,1,46.21,42L46,41.9l.16-.2s3.65-4.68.08-8.87a4.61,4.61,0,0,1-.61-3.43A3.93,3.93,0,0,1,47.91,27L48,27H56.6a4,4,0,0,1,3,1.75c.6,1.16.32,2.74-.83,4.71-.05.53-.61,6.73.07,8l0,.09-.05.08C58.82,41.69,57.82,43.07,53.79,43.07ZM46.53,41.7c9.12,2.24,11.62.19,12-.21-.68-1.61-.08-7.86-.05-8.13l0-.07c1.11-1.88,1.39-3.36.84-4.42a3.71,3.71,0,0,0-2.77-1.58H48a3.6,3.6,0,0,0-2.1,2.19,4.35,4.35,0,0,0,.56,3.15C49.77,36.51,47.2,40.74,46.53,41.7Z"/><path class="cls-13" d="M36.8,40.52C37.87,42.33,43,46.36,43,46.36c6.37,6.3,1.89,12.21,1.89,12.21l20.87.77c-1.07-3.53-17.5-10.59-17.5-10.59-4.77-2.54,1.07-2.64,1.07-2.64,7.86,2.17,22.32,7.59,22.32,7.59C84.84,59.61,85.85,56,85.85,56c1.64-7.89-11.17-10.85-11.17-10.85a74.87,74.87,0,0,0-16.15-4c-4.35,1.89-14.66.35-14.66.35a5.85,5.85,0,0,1-.84,0,7.24,7.24,0,0,0,1.6-.83,6.76,6.76,0,0,0,2.66-3.54A4.6,4.6,0,0,0,42.67,31a6.88,6.88,0,0,0-3.87,1.26,6.76,6.76,0,0,0-2.66,3.54A4.78,4.78,0,0,0,36.7,40c0,.14,0,.29,0,.43S36.76,40.46,36.8,40.52Z"/><path class="cls-2" d="M66,59.51l-21.41-.79.19-.25c.18-.24,4.31-5.88-1.87-12-.2-.15-5.2-4.05-6.27-5.87l0,0a.29.29,0,0,1-.06-.17c0-.07,0-.14,0-.21l0-.18A5,5,0,0,1,36,35.78a6.93,6.93,0,0,1,2.72-3.63,7,7,0,0,1,4-1.28,4.76,4.76,0,0,1,4.77,6.33,6.93,6.93,0,0,1-2.72,3.63,7.25,7.25,0,0,1-.9.53h0c.14,0,10.35,1.52,14.61-.34l0,0h0a75.7,75.7,0,0,1,16.19,4c.11,0,12.93,3.08,11.28,11a1.54,1.54,0,0,1-.9.87c-1.51.71-5.07.76-13.48-3-.13-.05-14.51-5.43-22.27-7.57-1.08,0-2.63.27-2.75.76,0,.16.05.65,1.78,1.57.66.28,16.5,7.12,17.58,10.69ZM45.24,58.42l20.33.75C63.94,55.67,48.4,49,48.24,48.9c-1.47-.78-2.09-1.4-2-1.94.22-.92,2.61-1,3.09-1h0c7.78,2.14,22.19,7.54,22.33,7.59,8.69,3.91,12,3.59,13.19,3,.63-.29.75-.65.76-.67.66-3.18-1-5.94-4.89-8.19a25.67,25.67,0,0,0-6.16-2.45,75.53,75.53,0,0,0-16.09-4c-4.37,1.87-14.29.41-14.71.34a5.11,5.11,0,0,1-.83,0l-.79,0,.74-.28a7.05,7.05,0,0,0,1.56-.81,6.6,6.6,0,0,0,2.59-3.45,4.44,4.44,0,0,0-4.45-5.9,6.72,6.72,0,0,0-3.77,1.23,6.6,6.6,0,0,0-2.59,3.45,4.61,4.61,0,0,0,.53,4l0,0v0c0,.07,0,.14,0,.21s0,.15,0,.22l0,.06h0c1,1.76,6.15,5.75,6.2,5.79C48.82,51.83,46,57.21,45.24,58.42Z"/><path class="cls-14" d="M39.56,33.75c-2.17,1.5-3,4.12-1.77,5.84s3.92,1.9,6.09.4a5.61,5.61,0,0,0,2-2.32,2.86,2.86,0,0,0,.28-1.29c0-.5.34-.93.31-1.43a1.9,1.9,0,0,0-.09-.42l-.18-.62a.29.29,0,0,0-.24-.25c-.57-.19-1.1-.4-1.65-.63a4.06,4.06,0,0,0-1.49-.3A5.52,5.52,0,0,0,39.56,33.75Z"/><ellipse class="cls-15" cx="67.86" cy="37.21" rx="8.27" ry="10.74"/><ellipse class="cls-1" cx="67.86" cy="37.79" rx="8.27" ry="10.15"/><ellipse class="cls-16" cx="67.86" cy="38.1" rx="6.93" ry="8.51"/><ellipse class="cls-13" cx="67.86" cy="38.1" rx="5.61" ry="7.19"/><ellipse class="cls-17" cx="67.86" cy="39.03" rx="4.63" ry="5.33"/><ellipse class="cls-18" cx="67.86" cy="39.03" rx="3.97" ry="4.67"/><circle class="cls-17" cx="67.01" cy="39.21" r="2.69"/><ellipse class="cls-17" cx="82.3" cy="53.01" rx="0.7" ry="1.1"/><ellipse class="cls-3" cx="50.88" cy="55.02" rx="0.86" ry="1.79" transform="translate(-13.88 92.73) rotate(-77.44)"/><path class="cls-2" d="M51.45,56a3.56,3.56,0,0,1-.77-.09c-1-.23-1.72-.8-1.61-1.31s1-.73,2-.5a3.05,3.05,0,0,1,1.21.53.82.82,0,0,1,.4.78C52.61,55.8,52.11,56,51.45,56Zm-1.12-1.86c-.6,0-1.06.18-1.13.49s.6.95,1.51,1.15,1.76,0,1.85-.4c0-.2-.08-.43-.35-.64a2.92,2.92,0,0,0-1.15-.51A3.37,3.37,0,0,0,50.33,54.16Z"/><ellipse class="cls-3" cx="54.58" cy="56.17" rx="0.69" ry="1.42" transform="translate(-12.11 97.24) rotate(-77.44)"/><path class="cls-2" d="M55,57a2.83,2.83,0,0,1-.61-.07,2.44,2.44,0,0,1-1-.43.66.66,0,0,1-.32-.63c0-.21.25-.36.56-.43a2.68,2.68,0,0,1,2,.45.66.66,0,0,1,.32.63c0,.21-.25.36-.56.43A2,2,0,0,1,55,57Zm-.89-1.48a1.83,1.83,0,0,0-.42,0c-.26.06-.43.18-.46.33s.07.33.28.5a2.56,2.56,0,0,0,1.91.43c.26-.06.43-.18.46-.33s-.07-.33-.28-.5a2.31,2.31,0,0,0-.91-.4A2.7,2.7,0,0,0,54.14,55.5Z"/><ellipse class="cls-3" cx="58.38" cy="57.02" rx="0.6" ry="1.25" transform="translate(-9.97 101.6) rotate(-77.44)"/><path class="cls-2" d="M58.77,57.73a2.5,2.5,0,0,1-.54-.06,2.15,2.15,0,0,1-.85-.38.59.59,0,0,1-.29-.56c.08-.37.71-.53,1.42-.37a2.15,2.15,0,0,1,.85.38.59.59,0,0,1,.29.56h0C59.6,57.57,59.24,57.73,58.77,57.73ZM58,56.44c-.4,0-.72.12-.76.32s.06.28.24.43a2,2,0,0,0,.79.35c.62.14,1.2,0,1.27-.27h0c0-.13-.06-.28-.24-.43a2,2,0,0,0-.8-.35A2.35,2.35,0,0,0,58,56.44Z"/><ellipse class="cls-3" cx="29.51" cy="48.67" rx="1.76" ry="1.3"/><path class="cls-2" d="M29.51,50c-1,0-1.82-.61-1.82-1.37s.82-1.37,1.82-1.37,1.82.61,1.82,1.37S30.52,50,29.51,50Zm0-2.6c-.93,0-1.69.55-1.69,1.23s.76,1.23,1.69,1.23,1.69-.55,1.69-1.23S30.45,47.44,29.51,47.44Z"/><ellipse class="cls-3" cx="41.14" cy="49.07" rx="1.76" ry="1.3" transform="translate(-20.77 32.7) rotate(-35.21)"/><path class="cls-2" d="M40.69,50.6a1.23,1.23,0,0,1-1-.48,1.65,1.65,0,0,1,.7-2.17,2.19,2.19,0,0,1,1.27-.42,1.21,1.21,0,0,1,1,.48h0a1.21,1.21,0,0,1,.12,1.11,2.28,2.28,0,0,1-2.05,1.48Zm.89-2.93a2,2,0,0,0-1.16.39,1.3,1.3,0,1,0,1.42,2,2,2,0,0,0,.77-1,1.09,1.09,0,0,0-.1-1h0a1.09,1.09,0,0,0-.9-.43Z"/><ellipse class="cls-3" cx="42.05" cy="53.38" rx="1.3" ry="1.76" transform="translate(-25.77 49.14) rotate(-48.2)"/><path class="cls-2" d="M42.51,55h-.15a2.16,2.16,0,0,1-1.22-.56,1.42,1.42,0,1,1,1.82-2,2.16,2.16,0,0,1,.69,1.15,1.22,1.22,0,0,1-.24,1.09h0A1.17,1.17,0,0,1,42.51,55Zm-.92-3a1,1,0,0,0-.8.33,1.52,1.52,0,0,0,.44,2,2,2,0,0,0,1.14.53,1.08,1.08,0,0,0,.94-.32h0a1.09,1.09,0,0,0,.21-1,2,2,0,0,0-.65-1.08A2,2,0,0,0,41.59,51.93Z"/><ellipse class="cls-3" cx="26.97" cy="52.57" rx="1.73" ry="1.4"/><path class="cls-2" d="M27,54a1.49,1.49,0,1,1,0-2.93A1.49,1.49,0,1,1,27,54Zm0-2.79a1.36,1.36,0,1,0,0,2.66,1.36,1.36,0,1,0,0-2.66Z"/><ellipse class="cls-3" cx="24.89" cy="47" rx="2.24" ry="1.81"/><path class="cls-2" d="M24.89,48.87A2.12,2.12,0,0,1,22.59,47a2.12,2.12,0,0,1,2.3-1.88A2.12,2.12,0,0,1,27.2,47,2.12,2.12,0,0,1,24.89,48.87Zm0-3.62A2,2,0,0,0,22.72,47a2,2,0,0,0,2.17,1.74A2,2,0,0,0,27.06,47,2,2,0,0,0,24.89,45.25Z"/><ellipse class="cls-3" cx="36.85" cy="46.29" rx="1.53" ry="1.89" transform="translate(-22.31 46.85) rotate(-52.02)"/><path class="cls-2" d="M37.21,48a2.2,2.2,0,0,1-1.34-.48,1.81,1.81,0,0,1-.56-2.47,1.46,1.46,0,0,1,1.15-.54h0a2.2,2.2,0,0,1,1.34.48,1.81,1.81,0,0,1,.56,2.47h0a1.46,1.46,0,0,1-1.15.54Zm-.71-3.36h0a1.33,1.33,0,0,0-1.05.49,1.68,1.68,0,0,0,.54,2.28,2.07,2.07,0,0,0,1.26.46h0a1.33,1.33,0,0,0,1.05-.49h0a1.68,1.68,0,0,0-.54-2.28A2.07,2.07,0,0,0,36.49,44.68Z"/><ellipse class="cls-3" cx="29.76" cy="41.01" rx="1.26" ry="1.07" transform="translate(-13.54 14.69) rotate(-22.74)"/><path class="cls-2" d="M29.62,42.18a1.35,1.35,0,0,1-.41-.06,1,1,0,0,1-.62-1.49,1.44,1.44,0,0,1,.73-.66,1.15,1.15,0,1,1,.88,2.09A1.51,1.51,0,0,1,29.62,42.18Zm.29-2.2a1.38,1.38,0,0,0-.53.11,1.31,1.31,0,0,0-.67.6.89.89,0,0,0,.54,1.3,1.31,1.31,0,0,0,.9-.05,1.11,1.11,0,0,0,.71-1.39A1,1,0,0,0,29.91,40Z"/><ellipse class="cls-3" cx="29.3" cy="43.69" rx="0.96" ry="1.13" transform="translate(-22.43 53.27) rotate(-66.64)"/><path class="cls-2" d="M29.43,44.75a1.36,1.36,0,0,1-.54-.11,1.3,1.3,0,0,1-.65-.6,1,1,0,0,1,0-.81,1.12,1.12,0,0,1,1.5-.47,1.3,1.3,0,0,1,.65.6.92.92,0,0,1-.58,1.34A1.2,1.2,0,0,1,29.43,44.75Zm-.26-2a.89.89,0,0,0-.85.5.82.82,0,0,0,0,.7,1.21,1.21,0,0,0,1.39.6.79.79,0,0,0,.5-1.15,1.17,1.17,0,0,0-.59-.54A1.22,1.22,0,0,0,29.17,42.77Z"/><ellipse class="cls-3" cx="32.62" cy="41.01" rx="0.96" ry="1.13" transform="translate(-17.97 54.69) rotate(-66.64)"/><path class="cls-2" d="M32.75,42.06a1.36,1.36,0,0,1-.54-.11h0a1.3,1.3,0,0,1-.65-.6,1,1,0,0,1,0-.81,1.21,1.21,0,0,1,2.19.95,1,1,0,0,1-.61.53A1.2,1.2,0,0,1,32.75,42.06Zm-.48-.23a1.17,1.17,0,0,0,.8.06.82.82,0,0,0,.53-.45,1.08,1.08,0,0,0-2-.84.82.82,0,0,0,0,.7,1.16,1.16,0,0,0,.59.54Z"/><ellipse class="cls-3" cx="32.15" cy="43.54" rx="1.13" ry="0.96" transform="translate(-21.37 35.49) rotate(-45)"/><path class="cls-2" d="M32,44.65a.93.93,0,0,1-.67-.27,1,1,0,0,1-.26-.76,1.29,1.29,0,0,1,.39-.8A1.12,1.12,0,0,1,33,42.7a1,1,0,0,1,.26.76,1.3,1.3,0,0,1-.39.8h0a1.29,1.29,0,0,1-.8.39Zm.34-2.09a1.15,1.15,0,0,0-.8.35,1.16,1.16,0,0,0-.35.72.79.79,0,0,0,.89.89,1.16,1.16,0,0,0,.72-.35h0a1.16,1.16,0,0,0,.35-.72.82.82,0,0,0-.23-.66A.81.81,0,0,0,32.32,42.56Z"/><ellipse class="cls-3" cx="34.05" cy="55.04" rx="1.84" ry="2.58" transform="translate(-28.55 71.46) rotate(-72.95)"/><path class="cls-2" d="M34.53,57a3.55,3.55,0,0,1-1-.16,3.22,3.22,0,0,1-1.62-1.07,1.57,1.57,0,0,1,.79-2.59,3.42,3.42,0,0,1,3.56,1.09,1.57,1.57,0,0,1-.79,2.59A2.86,2.86,0,0,1,34.53,57Zm-1-3.84a2.74,2.74,0,0,0-.86.13A1.44,1.44,0,0,0,32,55.71a3.29,3.29,0,0,0,3.42,1,1.44,1.44,0,0,0,.73-2.39,3.09,3.09,0,0,0-1.55-1A3.42,3.42,0,0,0,33.57,53.18Z"/><circle class="cls-3" cx="36.02" cy="52.85" r="0.44"/><path class="cls-2" d="M36,53.36a.51.51,0,1,1,.51-.51A.51.51,0,0,1,36,53.36Zm0-.89a.38.38,0,1,0,.38.38A.38.38,0,0,0,36,52.47Z"/><circle class="cls-3" cx="34.05" cy="52.1" r="0.42"/><path class="cls-2" d="M34,52.59a.48.48,0,1,1,.48-.48A.49.49,0,0,1,34,52.59Zm0-.84a.35.35,0,1,0,.35.35A.35.35,0,0,0,34,51.75Z"/><circle class="cls-3" cx="32.02" cy="52.54" r="0.44"/><path class="cls-2" d="M32,53a.5.5,0,1,1,.5-.5A.5.5,0,0,1,32,53Zm0-.87a.37.37,0,1,0,.37.37A.37.37,0,0,0,32,52.17Z"/><path class="cls-6" d="M21,65.42s-.08,8-3.62,10.43c0,0,2.46-7.15.58-12.24Z"/><path class="cls-2" d="M17.09,76.28l.16-.48c0-.07,2.42-7.15.58-12.13l-.16-.44,3.52,2.09v.09c0,.33-.12,8.08-3.69,10.57ZM18.29,64c1.35,4.25-.06,9.73-.56,11.41,2.84-2.53,3.11-9,3.13-9.88Z"/><path class="cls-6" d="M17.33,63.61s-3.53,6.57-2.71,13c0,0,.62.53,1.73-.37,0,0,5.55-9.45,4.81-12Z"/><path class="cls-2" d="M15.14,76.91a1,1,0,0,1-.63-.2l0,0v-.06c-.82-6.39,2.69-13,2.73-13.08l.06-.1,4,.69,0,.1c.75,2.55-4.59,11.7-4.82,12.08l0,0A2.1,2.1,0,0,1,15.14,76.91Zm-.37-.42c.15.08.64.26,1.44-.38.31-.54,5.33-9.22,4.8-11.7l-3.6-.62C17,64.65,14.06,70.68,14.77,76.5Z"/><path class="cls-6" d="M19.38,59.78s1,9.09-2.08,13c0,0-.3-11.2-1.21-13Z"/><path class="cls-2" d="M17.15,73.28v-.46c0-.11-.31-11.19-1.19-13l-.12-.24h3.7l0,.15c0,.37,1,9.2-2.11,13.15Zm-.81-13.33c.74,2.12,1,10.27,1.11,12.38,2.46-3.74,1.89-11.24,1.78-12.38Z"/><path class="cls-6" d="M20.23,61.55a1.46,1.46,0,0,0,.86-.77,18.54,18.54,0,0,0,1.46-2.92,1.57,1.57,0,0,0,.15-.79c0-.21-1.39.11-1.53.22a1.56,1.56,0,0,0-.43,1C20.51,59.33,20.68,60.51,20.23,61.55Z"/><path class="cls-2" d="M20,61.77l.12-.28a5.73,5.73,0,0,0,.35-1.92,9.1,9.1,0,0,1,.16-1.35l0-.11a1.5,1.5,0,0,1,.46-1,3.4,3.4,0,0,1,1.64-.29.23.23,0,0,1,.15.18,1.71,1.71,0,0,1-.16.88,18.72,18.72,0,0,1-1.47,3,1.58,1.58,0,0,1-1,.85Zm2.54-4.62a4.48,4.48,0,0,0-1.22.26,1.24,1.24,0,0,0-.34.76l0,.12a8.9,8.9,0,0,0-.15,1.3,7.48,7.48,0,0,1-.24,1.64,2.14,2.14,0,0,0,.43-.54,18.41,18.41,0,0,0,1.44-2.9,1.6,1.6,0,0,0,.15-.64Z"/></svg>