<svg xmlns="http://www.w3.org/2000/svg" xmlns:xlink="http://www.w3.org/1999/xlink" viewBox="0 0 63.1 57.12"><defs><style>.cls-1{fill:none;}.cls-2{isolation:isolate;}.cls-3{fill:#1a381b;}.cls-10,.cls-11,.cls-12,.cls-124,.cls-125,.cls-126,.cls-127,.cls-128,.cls-129,.cls-13,.cls-130,.cls-131,.cls-3,.cls-4,.cls-5,.cls-6,.cls-7,.cls-8,.cls-9{fill-rule:evenodd;}.cls-4{fill:#162b17;}.cls-5{fill:#176433;}.cls-6{fill:#1e582c;}.cls-7{fill:#204a23;}.cls-8{fill:#1e4721;}.cls-9{fill:#086c37;}.cls-10{fill:#176232;}.cls-11{fill:#0e7e3f;}.cls-12{fill:#097039;}.cls-13{fill:#1b5d2f;}.cls-14{clip-path:url(#clip-path);}.cls-15{fill:#fffef2;}.cls-106,.cls-123,.cls-16,.cls-17,.cls-18,.cls-20,.cls-21,.cls-22,.cls-24,.cls-25,.cls-26,.cls-28,.cls-29,.cls-30,.cls-32,.cls-33,.cls-34,.cls-35,.cls-55,.cls-72,.cls-89{mix-blend-mode:multiply;}.cls-16{fill:url(#radial-gradient);}.cls-17{fill:url(#radial-gradient-2);}.cls-18{fill:url(#radial-gradient-3);}.cls-19{clip-path:url(#clip-path-2);}.cls-20{fill:url(#radial-gradient-4);}.cls-21{fill:url(#radial-gradient-5);}.cls-22{fill:url(#radial-gradient-6);}.cls-23{clip-path:url(#clip-path-3);}.cls-24{fill:url(#radial-gradient-7);}.cls-25{fill:url(#radial-gradient-8);}.cls-26{fill:url(#radial-gradient-9);}.cls-27{clip-path:url(#clip-path-4);}.cls-28{fill:url(#radial-gradient-10);}.cls-29{fill:url(#radial-gradient-11);}.cls-30{fill:url(#radial-gradient-12);}.cls-31{clip-path:url(#clip-path-5);}.cls-32{fill:url(#radial-gradient-13);}.cls-33{fill:url(#radial-gradient-14);}.cls-34{fill:url(#radial-gradient-15);}.cls-35{fill:url(#radial-gradient-16);}.cls-36{clip-path:url(#clip-path-6);}.cls-37{fill:#689f24;}.cls-38,.cls-54{fill:#80d12f;}.cls-38{opacity:0.7;}.cls-109,.cls-110,.cls-39,.cls-40,.cls-57,.cls-58,.cls-74,.cls-75,.cls-91,.cls-92{mix-blend-mode:soft-light;}.cls-39{fill:url(#linear-gradient);}.cls-40{fill:url(#linear-gradient-2);}.cls-101,.cls-102,.cls-103,.cls-105,.cls-111,.cls-112,.cls-113,.cls-115,.cls-116,.cls-117,.cls-119,.cls-120,.cls-121,.cls-41,.cls-42,.cls-43,.cls-45,.cls-46,.cls-47,.cls-49,.cls-50,.cls-51,.cls-53,.cls-59,.cls-60,.cls-61,.cls-63,.cls-64,.cls-65,.cls-67,.cls-68,.cls-69,.cls-71,.cls-76,.cls-77,.cls-78,.cls-80,.cls-81,.cls-82,.cls-84,.cls-85,.cls-86,.cls-88,.cls-93,.cls-94,.cls-95,.cls-97,.cls-98,.cls-99{opacity:0.5;}.cls-101,.cls-102,.cls-103,.cls-111,.cls-112,.cls-113,.cls-115,.cls-116,.cls-117,.cls-119,.cls-120,.cls-121,.cls-41,.cls-42,.cls-43,.cls-45,.cls-46,.cls-47,.cls-49,.cls-50,.cls-51,.cls-59,.cls-60,.cls-61,.cls-63,.cls-64,.cls-65,.cls-67,.cls-68,.cls-69,.cls-76,.cls-77,.cls-78,.cls-80,.cls-81,.cls-82,.cls-84,.cls-85,.cls-86,.cls-93,.cls-94,.cls-95,.cls-97,.cls-98,.cls-99{mix-blend-mode:screen;}.cls-41{fill:url(#radial-gradient-17);}.cls-42{fill:url(#radial-gradient-18);}.cls-43{fill:url(#radial-gradient-19);}.cls-100,.cls-104,.cls-105,.cls-114,.cls-118,.cls-122,.cls-44,.cls-48,.cls-52,.cls-53,.cls-62,.cls-66,.cls-70,.cls-71,.cls-79,.cls-83,.cls-87,.cls-88,.cls-96{mix-blend-mode:color-dodge;}.cls-44{fill:url(#radial-gradient-20);}.cls-45{fill:url(#radial-gradient-21);}.cls-46{fill:url(#radial-gradient-22);}.cls-47{fill:url(#radial-gradient-23);}.cls-48{fill:url(#radial-gradient-24);}.cls-49{fill:url(#radial-gradient-25);}.cls-50{fill:url(#radial-gradient-26);}.cls-51{fill:url(#radial-gradient-27);}.cls-52{fill:url(#radial-gradient-28);}.cls-53{fill:url(#radial-gradient-29);}.cls-55{fill:url(#linear-gradient-3);}.cls-56{clip-path:url(#clip-path-7);}.cls-57{fill:url(#linear-gradient-4);}.cls-58{fill:url(#linear-gradient-5);}.cls-59{fill:url(#radial-gradient-30);}.cls-60{fill:url(#radial-gradient-31);}.cls-61{fill:url(#radial-gradient-32);}.cls-62{fill:url(#radial-gradient-33);}.cls-63{fill:url(#radial-gradient-34);}.cls-64{fill:url(#radial-gradient-35);}.cls-65{fill:url(#radial-gradient-36);}.cls-66{fill:url(#radial-gradient-37);}.cls-67{fill:url(#radial-gradient-38);}.cls-68{fill:url(#radial-gradient-39);}.cls-69{fill:url(#radial-gradient-40);}.cls-70{fill:url(#radial-gradient-41);}.cls-71{fill:url(#radial-gradient-42);}.cls-72{fill:url(#linear-gradient-6);}.cls-73{clip-path:url(#clip-path-8);}.cls-74{fill:url(#linear-gradient-7);}.cls-75{fill:url(#linear-gradient-8);}.cls-76{fill:url(#radial-gradient-43);}.cls-77{fill:url(#radial-gradient-44);}.cls-78{fill:url(#radial-gradient-45);}.cls-79{fill:url(#radial-gradient-46);}.cls-80{fill:url(#radial-gradient-47);}.cls-81{fill:url(#radial-gradient-48);}.cls-82{fill:url(#radial-gradient-49);}.cls-83{fill:url(#radial-gradient-50);}.cls-84{fill:url(#radial-gradient-51);}.cls-85{fill:url(#radial-gradient-52);}.cls-86{fill:url(#radial-gradient-53);}.cls-87{fill:url(#radial-gradient-54);}.cls-88{fill:url(#radial-gradient-55);}.cls-89{fill:url(#linear-gradient-9);}.cls-90{clip-path:url(#clip-path-9);}.cls-91{fill:url(#linear-gradient-10);}.cls-92{fill:url(#linear-gradient-11);}.cls-93{fill:url(#radial-gradient-56);}.cls-94{fill:url(#radial-gradient-57);}.cls-95{fill:url(#radial-gradient-58);}.cls-96{fill:url(#radial-gradient-59);}.cls-97{fill:url(#radial-gradient-60);}.cls-98{fill:url(#radial-gradient-61);}.cls-99{fill:url(#radial-gradient-62);}.cls-100{fill:url(#radial-gradient-63);}.cls-101{fill:url(#radial-gradient-64);}.cls-102{fill:url(#radial-gradient-65);}.cls-103{fill:url(#radial-gradient-66);}.cls-104{fill:url(#radial-gradient-67);}.cls-105{fill:url(#radial-gradient-68);}.cls-106{fill:url(#linear-gradient-12);}.cls-107{clip-path:url(#clip-path-10);}.cls-108{fill:#528520;}.cls-109{fill:url(#linear-gradient-13);}.cls-110{fill:url(#linear-gradient-14);}.cls-111{fill:url(#radial-gradient-69);}.cls-112{fill:url(#radial-gradient-70);}.cls-113{fill:url(#radial-gradient-71);}.cls-114{fill:url(#radial-gradient-72);}.cls-115{fill:url(#radial-gradient-73);}.cls-116{fill:url(#radial-gradient-74);}.cls-117{fill:url(#radial-gradient-75);}.cls-118{fill:url(#radial-gradient-76);}.cls-119{fill:url(#radial-gradient-77);}.cls-120{fill:url(#radial-gradient-78);}.cls-121{fill:url(#radial-gradient-79);}.cls-122{fill:url(#radial-gradient-80);}.cls-123{fill:url(#linear-gradient-15);}.cls-124{fill:#ebd5cb;}.cls-125{fill:#f1e6e0;}.cls-126{fill:#e2cdbe;}.cls-127{fill:#c51638;}.cls-128{fill:#cf324f;}.cls-129{fill:#d44661;}.cls-130{fill:#fff100;}.cls-131{fill:#fff79d;}</style><clipPath id="clip-path" transform="translate(0 4.9)"><path class="cls-1" d="M19.44,10.61c-2-.69-9.86,2.94-10.3,6.13s2.27,5.37,7.82,4.81c5.79-.58,10-1.84,11.3-3.33C25.72,15.52,23.62,12.06,19.44,10.61Z"/></clipPath><radialGradient id="radial-gradient" cx="5.78" cy="596.57" r="11.49" gradientTransform="matrix(0, -0.97, 1.37, 0, -793.48, 17.47)" gradientUnits="userSpaceOnUse"><stop offset="0" stop-color="#ced4e0"/><stop offset="0.15" stop-color="#dde1e9"/><stop offset="0.41" stop-color="#f0f2f5"/><stop offset="0.68" stop-color="#fbfcfd"/><stop offset="0.97" stop-color="#fff"/></radialGradient><radialGradient id="radial-gradient-2" cx="-151.42" cy="550.09" r="11.49" gradientTransform="matrix(-1.11, 0, 0, -0.53, -152.21, 312.22)" gradientUnits="userSpaceOnUse"><stop offset="0" stop-color="#ced4e0"/><stop offset="0.18" stop-color="#e1e5ec"/><stop offset="0.41" stop-color="#f2f3f7"/><stop offset="0.66" stop-color="#fcfcfd"/><stop offset="0.97" stop-color="#fff"/></radialGradient><radialGradient id="radial-gradient-3" cx="-161.21" cy="660.68" r="13.04" gradientTransform="matrix(0, -1, 0.27, 0, -149.16, -142.13)" gradientUnits="userSpaceOnUse"><stop offset="0" stop-color="#d58406"/><stop offset="0.12" stop-color="#de9f04"/><stop offset="0.32" stop-color="#ecc900"/><stop offset="0.65" stop-color="#f6ef9f"/><stop offset="0.65" stop-color="#f6efa0"/><stop offset="0.71" stop-color="#f9f5c2"/><stop offset="0.77" stop-color="#fcf9dd"/><stop offset="0.84" stop-color="#fefcf0"/><stop offset="0.9" stop-color="#fffefb"/><stop offset="0.97" stop-color="#fff"/></radialGradient><clipPath id="clip-path-2" transform="translate(0 4.9)"><path class="cls-1" d="M32,7.69C31.84,5.6,27.9-.83,24.6.09S18.91,4.31,20.28,10a12.61,12.61,0,0,0,7.88,8.94C29.77,15.47,32.28,12.12,32,7.69Z"/></clipPath><radialGradient id="radial-gradient-4" cx="-100.44" cy="787.07" r="14.24" gradientTransform="matrix(0, -1, 0.44, 0, -326.35, -90.82)" xlink:href="#radial-gradient-2"/><radialGradient id="radial-gradient-5" cx="-102.97" cy="712.27" r="14.24" gradientTransform="matrix(0, -1, 0.94, 0, -637.79, -93.59)" xlink:href="#radial-gradient"/><radialGradient id="radial-gradient-6" cx="-99.02" cy="775.7" r="13.04" gradientTransform="matrix(0, -1, 0.35, 0, -246.86, -79.99)" xlink:href="#radial-gradient-3"/><clipPath id="clip-path-3" transform="translate(0 4.9)"><path class="cls-1" d="M39.93,18.25c2-.92,6.91-7.21,4.77-10.14s-6.29-4-11.38-.59a13.33,13.33,0,0,0-5.91,11.12C31.41,19,35.67,20.19,39.93,18.25Z"/></clipPath><radialGradient id="radial-gradient-7" cx="-169.23" cy="576.23" r="16.16" gradientTransform="matrix(0, -1, 1, 0, -539.85, -149.3)" xlink:href="#radial-gradient"/><radialGradient id="radial-gradient-8" cx="-219.46" cy="638.63" r="16.16" gradientTransform="matrix(0, -0.41, 1, 0, -604.55, -83.36)" xlink:href="#radial-gradient-2"/><radialGradient id="radial-gradient-9" cx="-149.42" cy="410.49" r="13.03" gradientTransform="matrix(-1, 0, 0, -0.4, -121.9, 181.96)" xlink:href="#radial-gradient-3"/><clipPath id="clip-path-4" transform="translate(0 4.9)"><path class="cls-1" d="M30.87,30.65c4.56,3.44,8.09,3,10.3.11s2.22-7-2.3-10.45A12.69,12.69,0,0,0,27,18.5C27.67,22.21,27.4,28,30.87,30.65Z"/></clipPath><radialGradient id="radial-gradient-10" cx="-178.32" cy="568.45" r="11.49" gradientTransform="matrix(0, -1, 1.09, 0, -578.72, -150.74)" xlink:href="#radial-gradient"/><radialGradient id="radial-gradient-11" cx="-163.87" cy="639.48" r="14.9" gradientTransform="matrix(0, -1, 0.41, 0, -224.13, -143.49)" xlink:href="#radial-gradient-2"/><radialGradient id="radial-gradient-12" cx="-144.18" cy="733.89" r="13.03" gradientTransform="matrix(0, -1, 0.3, 0, -191.43, -125.15)" xlink:href="#radial-gradient-3"/><clipPath id="clip-path-5" transform="translate(0 4.9)"><path class="cls-1" d="M17,21.56l-.36,0a6.22,6.22,0,0,0-1.16,1.23c-3.28,4.67-2.7,8.18.23,10.29s7,2,10.37-2.64a12.74,12.74,0,0,0,1.54-11.66C25.78,20,22,21.05,17,21.56Z"/></clipPath><radialGradient id="radial-gradient-13" cx="-255.06" cy="551.77" r="11.49" gradientTransform="matrix(0, -0.41, 1.37, 0, -727.97, -77.1)" xlink:href="#radial-gradient-2"/><radialGradient id="radial-gradient-14" cx="-1.88" cy="591.92" r="11.49" gradientTransform="matrix(0, -0.97, 1.37, 0, -791.94, 18.5)" xlink:href="#radial-gradient"/><radialGradient id="radial-gradient-15" cx="-291.57" cy="597.7" r="13.04" gradientTransform="matrix(0, -0.31, 1, 0, -569.96, -71.19)" xlink:href="#radial-gradient-3"/><radialGradient id="radial-gradient-16" cx="-290.7" cy="648.99" r="13.04" gradientTransform="matrix(0, -0.31, 0.33, 0, -187.2, -71.31)" xlink:href="#radial-gradient-3"/><clipPath id="clip-path-6" transform="translate(0 4.9)"><path class="cls-1" d="M48.8,29.48a11.4,11.4,0,0,0,6.36.82,10.05,10.05,0,0,0-4.26-4.45A11.4,11.4,0,0,0,44.54,25,10.06,10.06,0,0,0,48.8,29.48Z"/></clipPath><linearGradient id="linear-gradient" x1="-320.6" y1="-158.4" x2="-318.13" y2="-158.4" gradientTransform="translate(-241.16 235.15) rotate(118.2)" gradientUnits="userSpaceOnUse"><stop offset="0" stop-color="#00244d"/><stop offset="1" stop-color="#adbd22"/></linearGradient><linearGradient id="linear-gradient-2" x1="-322.49" y1="-158.4" x2="-320.22" y2="-158.4" gradientTransform="translate(-241.16 235.15) rotate(118.2)" gradientUnits="userSpaceOnUse"><stop offset="0" stop-color="#37589b"/><stop offset="0.14" stop-color="#405f9d"/><stop offset="0.38" stop-color="#5971a2"/><stop offset="0.68" stop-color="#8290ab"/><stop offset="1" stop-color="#b5b5b5"/></linearGradient><radialGradient id="radial-gradient-17" cx="-1190.56" cy="55.2" r="1.69" gradientTransform="matrix(-0.2, 0.26, -0.82, -0.54, -142.11, 367.22)" gradientUnits="userSpaceOnUse"><stop offset="0" stop-color="#00384e"/><stop offset="0.02" stop-color="#00354a"/><stop offset="0.15" stop-color="#00222f"/><stop offset="0.29" stop-color="#00131a"/><stop offset="0.46" stop-color="#00080b"/><stop offset="0.65" stop-color="#000203"/><stop offset="0.95"/></radialGradient><radialGradient id="radial-gradient-18" cx="-913.43" cy="69.8" r="2.34" gradientTransform="matrix(-0.27, 0.28, -1.19, -0.98, -116.73, 350.64)" gradientUnits="userSpaceOnUse"><stop offset="0.23" stop-color="#00384e"/><stop offset="0.24" stop-color="#00374d"/><stop offset="0.55" stop-color="#001923"/><stop offset="0.8" stop-color="#00070a"/><stop offset="0.95"/></radialGradient><radialGradient id="radial-gradient-19" cx="-1187.36" cy="104.24" r="1.67" gradientTransform="matrix(-0.23, 0.24, -0.75, -0.62, -148.84, 372.54)" gradientUnits="userSpaceOnUse"><stop offset="0.18" stop-color="#00384e"/><stop offset="0.19" stop-color="#00354a"/><stop offset="0.3" stop-color="#00222f"/><stop offset="0.42" stop-color="#00131a"/><stop offset="0.55" stop-color="#00080b"/><stop offset="0.7" stop-color="#000203"/><stop offset="0.95"/></radialGradient><radialGradient id="radial-gradient-20" cx="-1190.89" cy="55.83" r="7.28" gradientTransform="matrix(-0.2, 0.26, -0.82, -0.54, -142.11, 367.22)" gradientUnits="userSpaceOnUse"><stop offset="0" stop-color="#804d82"/><stop offset="0.06" stop-color="#693f6b"/><stop offset="0.17" stop-color="#492c4a"/><stop offset="0.28" stop-color="#2e1c2f"/><stop offset="0.4" stop-color="#1a0f1a"/><stop offset="0.53" stop-color="#0b070b"/><stop offset="0.69" stop-color="#030203"/><stop offset="0.95"/></radialGradient><radialGradient id="radial-gradient-21" cx="-859.69" cy="-267.26" r="1.69" gradientTransform="matrix(-0.32, 0, -0.01, -1, -220.69, -237.98)" xlink:href="#radial-gradient-17"/><radialGradient id="radial-gradient-22" cx="-722.33" cy="-140.29" r="2.34" gradientTransform="matrix(-0.06, 0.37, -1.58, -0.23, -215.62, 264.98)" xlink:href="#radial-gradient-18"/><radialGradient id="radial-gradient-23" cx="-967.45" cy="-228.97" r="1.67" gradientTransform="matrix(-0.06, 0.31, -0.99, -0.15, -228.53, 298.74)" xlink:href="#radial-gradient-19"/><radialGradient id="radial-gradient-24" cx="-860.02" cy="-266.62" r="7.28" gradientTransform="matrix(-0.01, 0.32, -1, -0.04, -226.68, 292.58)" xlink:href="#radial-gradient-20"/><radialGradient id="radial-gradient-25" cx="-1220.41" cy="44.67" r="1.69" gradientTransform="matrix(-0.17, 0.28, -2.47, -1.29, -45.51, 422.27)" xlink:href="#radial-gradient-17"/><radialGradient id="radial-gradient-26" cx="-911.56" cy="-35.33" r="2.34" gradientTransform="matrix(-0.19, 0.33, -1.41, -0.68, -166.27, 308)" xlink:href="#radial-gradient-18"/><radialGradient id="radial-gradient-27" cx="-1179.04" cy="-71.58" r="2.94" gradientTransform="matrix(-0.15, 0.29, -0.9, -0.41, -195.78, 332.78)" xlink:href="#radial-gradient-19"/><radialGradient id="radial-gradient-28" cx="-1463.32" cy="-21.92" r="7.28" gradientTransform="matrix(-0.14, 0.24, -0.88, -0.46, -181.37, 364.03)" xlink:href="#radial-gradient-20"/><radialGradient id="radial-gradient-29" cx="-1463.5" cy="-27.5" r="7.28" gradientTransform="matrix(-0.14, 0.24, -0.88, -0.46, -181.37, 364.03)" xlink:href="#radial-gradient-20"/><linearGradient id="linear-gradient-3" x1="-320.57" y1="-158.13" x2="-320.04" y2="-158.13" gradientTransform="translate(-241.16 235.15) rotate(118.2)" gradientUnits="userSpaceOnUse"><stop offset="0" stop-color="#4c8534"/><stop offset="0.14" stop-color="#78a365"/><stop offset="0.29" stop-color="#a1bf94"/><stop offset="0.44" stop-color="#c3d6ba"/><stop offset="0.58" stop-color="#dde8d8"/><stop offset="0.73" stop-color="#f0f5ee"/><stop offset="0.87" stop-color="#fbfcfb"/><stop offset="1" stop-color="#fff"/></linearGradient><clipPath id="clip-path-7" transform="translate(0 4.9)"><path class="cls-1" d="M40.85,28.14a11.38,11.38,0,0,1-6.39-.59,10.59,10.59,0,0,1,5.27-3.39,11.38,11.38,0,0,1,6.39.59A10.6,10.6,0,0,1,40.85,28.14Z"/></clipPath><linearGradient id="linear-gradient-4" x1="-127.16" y1="208.83" x2="-124.81" y2="208.83" gradientTransform="matrix(0.25, 0.97, 0.97, -0.25, -129.93, 201.57)" xlink:href="#linear-gradient"/><linearGradient id="linear-gradient-5" x1="-129.1" y1="208.83" x2="-126.94" y2="208.83" gradientTransform="matrix(0.25, 0.97, 0.97, -0.25, -129.93, 201.57)" xlink:href="#linear-gradient-2"/><radialGradient id="radial-gradient-30" cx="-682.97" cy="301.23" r="1.69" gradientTransform="matrix(0.13, 0.3, 0.93, -0.34, -153.51, 332.32)" xlink:href="#radial-gradient-17"/><radialGradient id="radial-gradient-31" cx="-414.28" cy="211.51" r="2.34" gradientTransform="matrix(0.19, 0.33, 1.41, -0.69, -174.4, 309.79)" xlink:href="#radial-gradient-18"/><radialGradient id="radial-gradient-32" cx="-592.37" cy="327.16" r="1.67" gradientTransform="matrix(0.16, 0.28, 0.88, -0.44, -148.59, 337.24)" xlink:href="#radial-gradient-19"/><radialGradient id="radial-gradient-33" cx="-683.31" cy="301.86" r="7.28" gradientTransform="matrix(0.13, 0.3, 0.93, -0.34, -153.51, 332.32)" xlink:href="#radial-gradient-20"/><radialGradient id="radial-gradient-34" cx="-821.34" cy="35.19" r="1.69" gradientTransform="matrix(-0.07, 0.31, 0.99, 0.18, -54.1, 277.57)" xlink:href="#radial-gradient-17"/><radialGradient id="radial-gradient-35" cx="-601.34" cy="47.83" r="2.34" gradientTransform="matrix(-0.03, 0.37, 1.59, 0.12, -57.35, 246.73)" xlink:href="#radial-gradient-18"/><radialGradient id="radial-gradient-36" cx="-821.96" cy="68.15" r="1.67" gradientTransform="matrix(-0.03, 0.32, 1, 0.07, -52.14, 283.81)" xlink:href="#radial-gradient-19"/><radialGradient id="radial-gradient-37" cx="-821.67" cy="35.82" r="7.28" gradientTransform="matrix(-0.07, 0.31, 0.99, 0.18, -54.1, 277.57)" xlink:href="#radial-gradient-20"/><radialGradient id="radial-gradient-38" cx="-785.1" cy="137.74" r="1.69" gradientTransform="matrix(0.09, 0.31, 2.73, -0.71, -262.25, 363.52)" xlink:href="#radial-gradient-17"/><radialGradient id="radial-gradient-39" cx="-563.68" cy="132.14" r="2.34" gradientTransform="matrix(0.1, 0.36, 1.55, -0.35, -114.18, 278.9)" xlink:href="#radial-gradient-18"/><radialGradient id="radial-gradient-40" cx="-790.48" cy="198.12" r="2.94" gradientTransform="matrix(0.07, 0.31, 0.98, -0.2, -91.88, 309.83)" xlink:href="#radial-gradient-19"/><radialGradient id="radial-gradient-41" cx="-953.13" cy="240.46" r="7.28" gradientTransform="matrix(0.08, 0.26, 0.97, -0.25, -115.09, 335.87)" xlink:href="#radial-gradient-20"/><radialGradient id="radial-gradient-42" cx="-953.32" cy="234.88" r="7.28" gradientTransform="matrix(0.08, 0.26, 0.97, -0.25, -115.09, 335.87)" xlink:href="#radial-gradient-20"/><linearGradient id="linear-gradient-6" x1="-127.16" y1="209.11" x2="-126.76" y2="209.11" gradientTransform="matrix(0.25, 0.97, 0.97, -0.25, -129.93, 201.57)" xlink:href="#linear-gradient-3"/><clipPath id="clip-path-8" transform="translate(0 4.9)"><path class="cls-1" d="M45.4,29.18a11.1,11.1,0,0,1-5.87,2.42,9.51,9.51,0,0,1,2.76-5.37,11.1,11.1,0,0,1,5.86-2.42A9.5,9.5,0,0,1,45.4,29.18Z"/></clipPath><linearGradient id="linear-gradient-7" x1="61.05" y1="336.81" x2="63.6" y2="336.81" gradientTransform="matrix(0.7, 0.72, 0.72, -0.7, -240.16, 218.89)" xlink:href="#linear-gradient"/><linearGradient id="linear-gradient-8" x1="59.15" y1="336.81" x2="61.5" y2="336.81" gradientTransform="matrix(0.7, 0.72, 0.72, -0.7, -240.16, 218.89)" xlink:href="#linear-gradient-2"/><radialGradient id="radial-gradient-43" cx="-6.51" cy="468.52" r="1.69" gradientTransform="matrix(0.27, 0.2, 0.63, -0.73, -246.81, 369.64)" xlink:href="#radial-gradient-17"/><radialGradient id="radial-gradient-44" cx="202.07" cy="298.9" r="2.34" gradientTransform="matrix(0.34, 0.2, 0.85, -1.25, -275.84, 358.62)" xlink:href="#radial-gradient-18"/><radialGradient id="radial-gradient-45" cx="133.66" cy="465.84" r="1.67" gradientTransform="matrix(0.29, 0.17, 0.53, -0.79, -238.8, 372.62)" xlink:href="#radial-gradient-19"/><radialGradient id="radial-gradient-46" cx="-6.84" cy="469.16" r="7.28" gradientTransform="matrix(0.27, 0.2, 0.63, -0.73, -246.81, 369.64)" xlink:href="#radial-gradient-20"/><radialGradient id="radial-gradient-47" cx="-513.8" cy="298.28" r="1.69" gradientTransform="matrix(0.11, 0.3, 0.95, -0.3, -187.72, 274.57)" xlink:href="#radial-gradient-17"/><radialGradient id="radial-gradient-48" cx="-274.13" cy="205.92" r="2.34" gradientTransform="matrix(0.17, 0.34, 1.45, -0.62, -207.42, 251.85)" xlink:href="#radial-gradient-18"/><radialGradient id="radial-gradient-49" cx="-428.29" cy="318.42" r="1.67" gradientTransform="matrix(0.15, 0.29, 0.91, -0.4, -183.61, 281.01)" xlink:href="#radial-gradient-19"/><radialGradient id="radial-gradient-50" cx="-514.13" cy="298.91" r="7.28" gradientTransform="matrix(0.11, 0.3, 0.95, -0.3, -187.72, 274.57)" xlink:href="#radial-gradient-20"/><radialGradient id="radial-gradient-51" cx="-165.03" cy="204.93" r="1.69" gradientTransform="matrix(0.24, 0.22, 1.99, -1.87, -323.74, 447.2)" xlink:href="#radial-gradient-17"/><radialGradient id="radial-gradient-52" cx="-50.7" cy="255.84" r="2.34" gradientTransform="matrix(0.28, 0.27, 1.16, -1.02, -240.91, 305.22)" xlink:href="#radial-gradient-18"/><radialGradient id="radial-gradient-53" cx="-203.02" cy="400.65" r="2.94" gradientTransform="matrix(0.23, 0.24, 0.74, -0.62, -205.2, 322.92)" xlink:href="#radial-gradient-19"/><radialGradient id="radial-gradient-54" cx="-230.77" cy="430.99" r="7.28" gradientTransform="matrix(0.21, 0.19, 0.71, -0.66, -211.04, 356.15)" xlink:href="#radial-gradient-20"/><radialGradient id="radial-gradient-55" cx="-230.95" cy="425.42" r="7.28" gradientTransform="matrix(0.21, 0.19, 0.71, -0.66, -211.04, 356.15)" xlink:href="#radial-gradient-20"/><linearGradient id="linear-gradient-9" x1="61.08" y1="337.08" x2="61.69" y2="337.08" gradientTransform="matrix(0.7, 0.72, 0.72, -0.7, -240.16, 218.89)" xlink:href="#linear-gradient-3"/><clipPath id="clip-path-9" transform="translate(0 4.9)"><path class="cls-1" d="M42.48,24.55a9.23,9.23,0,0,1-1.4-5.8,10.67,10.67,0,0,1,5.14,3.57,9.23,9.23,0,0,1,1.4,5.8A10.67,10.67,0,0,1,42.48,24.55Z"/></clipPath><linearGradient id="linear-gradient-10" x1="-188" y1="-264.24" x2="-185.43" y2="-264.24" gradientTransform="matrix(-0.84, 0.54, 0.54, 0.84, 30.21, 347.28)" xlink:href="#linear-gradient"/><linearGradient id="linear-gradient-11" x1="-189.95" y1="-264.24" x2="-187.59" y2="-264.24" gradientTransform="matrix(-0.84, 0.54, 0.54, 0.84, 30.21, 347.28)" xlink:href="#linear-gradient-2"/><radialGradient id="radial-gradient-56" cx="-815.67" cy="-306.58" r="1.69" gradientTransform="matrix(-0.26, 0.2, 0.64, 0.71, 26.47, 410.41)" xlink:href="#radial-gradient-17"/><radialGradient id="radial-gradient-57" cx="-697.57" cy="-165.61" r="2.34" gradientTransform="matrix(-0.28, 0.27, 1.15, 1.02, 42.56, 385.54)" xlink:href="#radial-gradient-18"/><radialGradient id="radial-gradient-58" cx="-937.8" cy="-270.44" r="1.67" gradientTransform="matrix(-0.23, 0.23, 0.73, 0.64, 22.73, 416)" xlink:href="#radial-gradient-19"/><radialGradient id="radial-gradient-59" cx="-816" cy="-305.95" r="7.28" gradientTransform="matrix(-0.26, 0.2, 0.64, 0.71, 26.47, 410.41)" xlink:href="#radial-gradient-20"/><radialGradient id="radial-gradient-60" cx="34.96" cy="-501.17" r="1.69" gradientTransform="matrix(-0.34, 0.04, 0.13, 0.92, 115.77, 480.91)" xlink:href="#radial-gradient-17"/><radialGradient id="radial-gradient-61" cx="-34.93" cy="-308.08" r="2.34" gradientTransform="matrix(-0.39, 0.09, 0.38, 1.44, 143.74, 468.49)" xlink:href="#radial-gradient-18"/><radialGradient id="radial-gradient-62" cx="-165.04" cy="-498.86" r="1.67" gradientTransform="matrix(-0.33, 0.08, 0.24, 0.9, 108.39, 484.4)" xlink:href="#radial-gradient-19"/><radialGradient id="radial-gradient-63" cx="34.63" cy="-500.53" r="7.28" gradientTransform="matrix(-0.34, 0.04, 0.13, 0.92, 115.77, 480.91)" xlink:href="#radial-gradient-20"/><radialGradient id="radial-gradient-64" cx="-736.71" cy="-77.62" r="1.69" gradientTransform="matrix(-0.28, 0.18, 1.59, 2.18, -40.78, 324.17)" xlink:href="#radial-gradient-17"/><radialGradient id="radial-gradient-65" cx="-475.07" cy="-251.24" r="2.34" gradientTransform="matrix(-0.34, 0.2, 0.85, 1.25, 93.42, 428.93)" xlink:href="#radial-gradient-18"/><radialGradient id="radial-gradient-66" cx="-639.34" cy="-408.03" r="2.94" gradientTransform="matrix(-0.29, 0.16, 0.51, 0.8, 68.22, 456.59)" xlink:href="#radial-gradient-19"/><radialGradient id="radial-gradient-67" cx="-895.06" cy="-368.65" r="7.28" gradientTransform="matrix(-0.24, 0.15, 0.56, 0.77, 34.86, 445.25)" xlink:href="#radial-gradient-20"/><radialGradient id="radial-gradient-68" cx="-895.24" cy="-374.23" r="7.28" gradientTransform="matrix(-0.24, 0.15, 0.56, 0.77, 34.86, 445.25)" xlink:href="#radial-gradient-20"/><linearGradient id="linear-gradient-12" x1="-188.15" y1="-263.98" x2="-187.57" y2="-263.98" gradientTransform="matrix(-0.84, 0.54, 0.54, 0.84, 30.21, 347.28)" xlink:href="#linear-gradient-3"/><clipPath id="clip-path-10" transform="translate(0 4.9)"><path class="cls-1" d="M49.33,26a7.08,7.08,0,0,0,3.47-3.59,7.93,7.93,0,0,0-5.18-.21,7.08,7.08,0,0,0-3.47,3.59A7.93,7.93,0,0,0,49.33,26Z"/></clipPath><linearGradient id="linear-gradient-13" x1="-158.4" y1="-391.7" x2="-156.02" y2="-391.7" gradientTransform="matrix(0.39, 0.92, -0.92, 0.39, -251.74, 321.36)" xlink:href="#linear-gradient"/><linearGradient id="linear-gradient-14" x1="-160.34" y1="-391.7" x2="-158.17" y2="-391.7" gradientTransform="matrix(0.39, 0.92, -0.92, 0.39, -251.74, 321.36)" xlink:href="#linear-gradient-2"/><radialGradient id="radial-gradient-69" cx="-986.41" cy="-442.65" r="1.69" gradientTransform="matrix(0.1, 0.3, -0.76, 0.17, -190, 402.18)" xlink:href="#radial-gradient-17"/><radialGradient id="radial-gradient-70" cx="-880.8" cy="-247.31" r="2.34" gradientTransform="matrix(0.08, 0.36, -1.26, 0.12, -191.72, 374.87)" xlink:href="#radial-gradient-18"/><radialGradient id="radial-gradient-71" cx="-1158.3" cy="-398.02" r="1.67" gradientTransform="matrix(0.07, 0.31, -0.79, 0.07, -189.05, 409.52)" xlink:href="#radial-gradient-19"/><radialGradient id="radial-gradient-72" cx="-986.75" cy="-442.01" r="7.28" gradientTransform="matrix(0.1, 0.3, -0.76, 0.17, -190, 402.18)" xlink:href="#radial-gradient-20"/><radialGradient id="radial-gradient-73" cx="102.91" cy="-647.34" r="1.69" gradientTransform="matrix(0.23, 0.22, -0.48, 0.63, -282.79, 406)" xlink:href="#radial-gradient-17"/><radialGradient id="radial-gradient-74" cx="-17.74" cy="-401.66" r="2.34" gradientTransform="matrix(0.24, 0.29, -0.88, 0.87, -298.04, 381.02)" xlink:href="#radial-gradient-18"/><radialGradient id="radial-gradient-75" cx="-147.43" cy="-647.38" r="1.67" gradientTransform="matrix(0.2, 0.25, -0.56, 0.54, -279.69, 412.76)" xlink:href="#radial-gradient-19"/><radialGradient id="radial-gradient-76" cx="102.57" cy="-646.7" r="7.28" gradientTransform="matrix(0.23, 0.22, -0.48, 0.63, -282.79, 406)" xlink:href="#radial-gradient-20"/><radialGradient id="radial-gradient-77" cx="-869.07" cy="-127.95" r="1.69" gradientTransform="matrix(0.13, 0.3, -2.06, 0.75, -105.69, 376.34)" xlink:href="#radial-gradient-17"/><radialGradient id="radial-gradient-78" cx="-575.18" cy="-340.83" r="2.34" gradientTransform="matrix(0.16, 0.34, -1.14, 0.46, -245.05, 378.8)" xlink:href="#radial-gradient-18"/><radialGradient id="radial-gradient-79" cx="-746.55" cy="-552.94" r="2.94" gradientTransform="matrix(0.14, 0.29, -0.71, 0.31, -240.1, 414.47)" xlink:href="#radial-gradient-19"/><radialGradient id="radial-gradient-80" cx="-1049.73" cy="-509.87" r="7.28" gradientTransform="matrix(0.11, 0.25, -0.73, 0.26, -210.27, 424.87)" xlink:href="#radial-gradient-20"/><linearGradient id="linear-gradient-15" x1="-158.53" y1="-391.48" x2="-158.13" y2="-391.48" gradientTransform="matrix(0.39, 0.92, -0.92, 0.39, -251.74, 321.36)" xlink:href="#linear-gradient-3"/></defs><title>flower</title><g class="cls-2"><g id="Layer_1" data-name="Layer 1"><path class="cls-3" d="M36.59,30c2.69,5.72-8.65,12.48-14.77,3.67-12.14-5-4.3-18.05,5.75-15.1,5.76-2.43,13.44,6.35,9,11.43Z" transform="translate(0 4.9)"/><path class="cls-4" d="M36.2,29.66c-1.53-1.94-2.61-5.53-.85-6.71-.83-.3-2.57,1.92-2.2,3.65-1-1.33-1.89-4.2-.46-5.28-.78,0-2.07.83-.74,4.43-1.18-1.25-2.8-5.71-2-6.43-2.58.09.27,4.76.8,5.74-1.24-1-3.83-4.45-6.35-4.18,1.19.17,4,2.37,5.21,4.82-1.13-1.19-5.92-4.44-8.7-3.77,2.48,0,7.17,2.68,7.93,4.14-2.76-1.09-9-.83-10.77.25,2.15-.3,10-.86,11.79,1.7-2.67-.28-8.74,2.54-8.66,4.39,1.12-1.72,6-3.69,8.33-3.2-3.68,1.67-5.21,4.76-4.95,6.46C26.3,32.4,29,30,30.4,29.62a9.25,9.25,0,0,0-.72,5.31c.71-2.28,3.58-6.84,6.52-5.26Z" transform="translate(0 4.9)"/><path class="cls-5" d="M23.68,20.23c3.13,3.2,3.57,5.66,4.4,8.44-.23.15-1.39.76-1.62.91-.53-3.47-1.43-6.81-3.94-8.42l1.15-.92Z" transform="translate(0 4.9)"/><path class="cls-6" d="M21.61,20.44c.22.06,1.84-.11,2,0a11.36,11.36,0,0,1,3.27,6.91c-1.55-4.76-4.13-6.38-4-6.32,3.62,2.52-1.77,10.48-11.54,9.35-13.44,4-14.9-7-4.51-10.92,3.38-4.38,15.39-4,14.79,1Z" transform="translate(0 4.9)"/><path class="cls-7" d="M21.05,20.46c-2.51-.18-5.67-1.44-4.9-3-.89.29-1,2.38.4,3.08-1.65-.16-4.22-1.15-3.68-2.48-.63.45-1.24,1.55,2.13,2.69-1.78,0-5.94-1.44-5.73-2.22C7.13,20,12.46,20.83,13.52,21c-1.7.14-6-.22-8,1.29A14.89,14.89,0,0,1,12.95,22c-1.71,0-7.81.92-9.75,2.77,2.12-1.34,7.77-2.51,9.33-2.16-3,.93-8.19,4.47-9,6,1.64-1.32,8-5.86,11.09-5.52-2.45,1.3-5.86,6.05-4.64,7-.12-1.5,2.82-5.17,5.09-6.17-2.09,2.86-1.47,5.28-.19,6-.54-2.63.22-5.33,1.22-6.29,0,.79,1.65,2.76,2.69,3.13-.82-1.56-1.21-5.48,2.27-6.25Z" transform="translate(0 4.9)"/><path class="cls-6" d="M48.52,27.33c-4.5,1.5-2.31,11.14,5.64,9.91,9,4,12-7,5.23-10.92-1.65-4.38-10.39-4-10.87,1Z" transform="translate(0 4.9)"/><path class="cls-7" d="M48.92,27.36c1.84-.18,4.36-1.44,4.08-3,.59.29.28,2.39-.84,3.08,1.22-.16,3.26-1.15,3.11-2.48.38.45.61,1.55-2,2.69,1.29,0,4.55-1.44,4.54-2.23,1.28,1.45-2.73,2.31-3.54,2.53,1.2.14,4.4-.22,5.56,1.29-.7-.56-3.36-1-5.31-.34,1.23,0,5.48.92,6.54,2.77-1.29-1.34-5.16-2.51-6.35-2.16,2,.93,5.11,4.47,5.43,6-.95-1.32-4.69-5.86-7-5.52,1.53,1.3,3.14,6.05,2.09,7,.36-1.5-1.1-5.17-2.57-6.17,1,2.86.1,5.28-1,6,.87-2.63.8-5.33.26-6.29a6.94,6.94,0,0,1-2.51,3.13c.87-1.56,1.87-5.48-.51-6.25Z" transform="translate(0 4.9)"/><path class="cls-8" d="M29.89,37.1c4.87-.83,7.59,9.11-.32,11.86-6.3,8.08-14.49-.54-10.17-7.48-.63-4.83,7.59-8.77,10.49-4.39Z" transform="translate(0 4.9)"/><path class="cls-3" d="M29.54,37.31c-1.78.74-4.71.81-5.23-.77-.4.56.91,2.33,2.28,2.42-1.2.45-3.56.54-4.08-.76-.13.6.2,1.73,3.18,1.48-1.19.62-4.89.91-5.27.18-.47,2,3.64.79,4.49.59-1,.72-4.15,2-4.47,3.9.37-.86,2.63-2.52,4.72-2.91C24,42.05,20.58,45,20.5,47.2c.53-1.86,3.51-4.83,4.78-5.09-1.4,1.85-2.51,6.61-2.06,8.15.22-1.68,1.44-7.68,3.74-8.51-.77,1.95.08,7.1,1.5,7.43-1.06-1.2-1.52-5.29-.67-6.93.49,3.12,2.5,4.91,3.83,5.07-2.09-2-3.35-4.51-3.32-5.65a7.24,7.24,0,0,0,3.85,1.65c-1.57-1-4.4-4.12-2.6-6Z" transform="translate(0 4.9)"/><path class="cls-8" d="M32.25,31.26c-2.34,5,7.54,10.87,12.87,3.2,10.58-4.35,3.75-15.73-5-13.16-5-2.12-11.71,5.53-7.85,10Z" transform="translate(0 4.9)"/><path class="cls-3" d="M32.59,30.94c1.33-1.69,2.28-4.82.74-5.85.72-.26,2.24,1.67,1.92,3.18.85-1.16,1.65-3.66.4-4.6.68,0,1.8.73.65,3.85,1-1.08,2.44-5,1.77-5.6,2.25.08-.24,4.15-.7,5C38.44,26,40.7,23,42.89,23.28c-1,.14-3.5,2.07-4.54,4.2,1-1,5.16-3.87,7.58-3.28-2.16,0-6.25,2.33-6.91,3.61,2.41-1,7.86-.72,9.38.22-1.87-.26-8.7-.75-10.28,1.48,2.33-.25,7.62,2.21,7.55,3.82-1-1.5-5.24-3.21-7.25-2.79C41.63,32,43,34.68,42.73,36.16c-1.52-2.84-3.85-5-5.09-5.26a8.08,8.08,0,0,1,.63,4.63c-.62-2-3.12-6-5.68-4.58Z" transform="translate(0 4.9)"/><path class="cls-9" d="M27.11,18.64a22.18,22.18,0,0,1,1.45,13c-.37.08-2.18.28-2.54.36,1.29-5,1.41-9.75-.85-12.74l1.95-.61Z" transform="translate(0 4.9)"/><path class="cls-10" d="M27.73,17.83A7.5,7.5,0,0,1,27,19c-.13.17,1.88,2.33.88,10.53-.51-6.39-1.6-9.75-1.76-9.61-6.67,5.82-22.58-3-18.72-8C-3,2.47,18.64-2.79,26.88,4.28c8.13-.11,15.87,11,.85,13.55Z" transform="translate(0 4.9)"/><path class="cls-6" d="M27.59,17.35c-.14-2.3,1.4-5.75,4.11-5.9-.64-.63-4.09.39-5,2,0-1.54,1.17-4.32,3.45-4.55-.85-.32-2.76-.27-4.06,3.29-.29-1.57,1.35-6,2.68-6.22C26,4.83,25.53,10,25.35,11c-.53-1.42-.67-5.43-3.48-6.37,1.11.69,2.4,3.81,1.82,6.36-.29-1.5-2.84-6.39-6.22-7.12C20,5.06,22.92,9.42,22.62,11,20.56,8.8,13.87,6.12,11.26,6.2c2.45.75,11,3.92,11,6.85-2.56-1.47-11-2-12.25-.41,2.45-.9,9-.24,11,1.23-5.06-.33-8.94,1.49-9.94,3,4.23-1.86,8.81-2.62,10.55-2.25-1.3.41-4.25,2.91-4.7,4,2.44-1.55,8.81-4,10.67-1.3Z" transform="translate(0 4.9)"/><path class="cls-11" d="M31.58,23c-1,4.31-1.5,6.6-1.45,9.46.37.06,2.18.2,2.54.26a28.9,28.9,0,0,1,.85-9.27L31.58,23Z" transform="translate(0 4.9)"/><path class="cls-10" d="M31.15,40.78c-.35,8.86,16.18,7.79,15.5,2.35C57.07,39.57,45,28.4,36.91,30.94c-5.24-2.8-14.56,2.94-5.76,9.84Z" transform="translate(0 4.9)"/><path class="cls-6" d="M31.42,40.47c1-1.67,1.3-4.76-.41-5.78.66-.26,2.51,1.66,2.49,3.14.61-1.14.9-3.62-.5-4.55.68,0,1.9.72,1.38,3.81.79-1.08,1.42-4.92.65-5.54,2.21.08.57,4.1.28,4.94.89-.88,2.52-3.83,4.71-3.6-1,.14-3,2-3.63,4.15.77-1,4.3-3.82,6.78-3.25-2.11,0-5.66,2.3-6.06,3.57,2.17-.94,7.55-.71,9.22.22-1.88-.26-8.66-.74-9.77,1.46,2.23-.24,7.88,2.19,8.13,3.78-1.25-1.49-5.75-3.18-7.64-2.76,3.42,1.44,5.24,4.1,5.31,5.56-2-2.8-4.73-4.89-6-5.2A9.08,9.08,0,0,1,37.87,45c-1-2-4.21-5.9-6.44-4.53Z" transform="translate(0 4.9)"/><path class="cls-12" d="M31.06,30.62c.45-4.38,1.1-6,1.16-5.85,3.55,12,26.14,4.17,23.08-3.27C68.88,12.29,47.11,1,36.49,7.77,28,5.83,17,17.34,31.36,23.88c.23.1-.6,3.73-.3,6.74Z" transform="translate(0 4.9)"/><path class="cls-13" d="M32.33,23.63c.75-2.79,0-7.36-2.86-8.16.84-.63,4.27,1.4,4.82,3.54.42-1.88-.12-5.56-2.5-6.35,1-.2,3,.29,3.48,4.95C36,15.75,35.38,10,34,9.38c3.22-.75,2.43,5.68,2.35,7,.93-1.62,2.12-6.5,5.37-7-1.36.59-3.55,4.12-3.6,7.39.7-1.78,4.69-7.19,8.49-7.33-3,.84-7.25,5.53-7.33,7.51,2.76-2.21,10.59-4,13.36-3.3C49.85,14,39.9,16,39.17,19.56c3.11-1.22,12.2.06,13.18,2.26-2.38-1.65-9.52-2.32-12.08-1,5.49.73,9.15,3.85,9.82,5.92-4-3.24-8.73-5.19-10.68-5.13,1.28.79,3.78,4.52,4,6-2.2-2.44-8.38-6.84-11.05-4Z" transform="translate(0 4.9)"/><path class="cls-12" d="M27.13,30.33c7.17,2.39,3.68,17.75-9,15.78C3.83,52.48-1,35,9.81,28.71c2.63-7,16.56-6.38,17.32,1.62Z" transform="translate(0 4.9)"/><path class="cls-13" d="M26.49,30.36c-2.94-.28-6.94-2.3-6.51-4.79-.94.47-.45,3.8,1.34,4.9-2-.25-5.19-1.83-5-4-.6.72-1,2.47,3.22,4.28-2.05,0-7.25-2.29-7.24-3.54-2,2.3,4.35,3.68,5.63,4-1.91.23-7-.35-8.85,2,1.12-.89,5.36-1.52,8.46-.54-2,0-8.72,1.46-10.43,4.41,2.05-2.13,8.22-4,10.12-3.44-3.22,1.49-8.14,7.12-8.65,9.51,1.51-2.1,7.48-9.33,11.18-8.79-2.44,2.07-5,9.64-3.33,11.1-.57-2.39,1.76-8.23,4.09-9.83-1.59,4.56-.17,8.42,1.51,9.59-1.38-4.18-1.28-8.5-.41-10,.22,1.26,2.69,4.39,4,5-1.39-2.49-3-8.73.81-10Z" transform="translate(0 4.9)"/><g class="cls-14"><path class="cls-15" d="M19.44,10.61c-2-.69-9.86,2.94-10.3,6.13s2.27,5.37,7.82,4.81c5.79-.58,10-1.84,11.3-3.33C25.72,15.52,23.62,12.06,19.44,10.61Z" transform="translate(0 4.9)"/><ellipse class="cls-16" cx="21.68" cy="11.9" rx="15.7" ry="11.13" transform="translate(-1.88 9.29) rotate(-11.1)"/><ellipse class="cls-17" cx="16.37" cy="19.97" rx="12.79" ry="6.1" transform="matrix(1, -0.01, 0.01, 1, -0.18, 5.05)"/><ellipse class="cls-18" cx="27.38" cy="19" rx="3.48" ry="13.03" transform="translate(-0.08 42.78) rotate(-69.27)"/><path class="cls-15" d="M16,20.39a13.6,13.6,0,0,1-6.13-.71C11,21.13,13.37,21.92,17,21.56c5.79-.58,10-1.84,11.3-3.33l-.37-.4C25.91,19,21.64,20,16,20.39Z" transform="translate(0 4.9)"/></g><g class="cls-19"><path class="cls-15" d="M32,7.69C31.84,5.6,27.9-.83,24.6.09S18.91,4.31,20.28,10a12.61,12.61,0,0,0,7.88,8.94C29.77,15.47,32.28,12.12,32,7.69Z" transform="translate(0 4.9)"/><ellipse class="cls-20" cx="21.72" cy="9.53" rx="6.3" ry="14.23" transform="translate(-1.68 10.53) rotate(-14.25)"/><ellipse class="cls-21" cx="33.76" cy="9.29" rx="13.42" ry="14.23" transform="translate(-1.25 13.49) rotate(-14.24)"/><ellipse class="cls-22" cx="27.39" cy="19" rx="4.61" ry="13.03" transform="translate(-3.38 11.08) rotate(-12.14)"/><path class="cls-15" d="M20.8,7.76a15.89,15.89,0,0,1-.25-4.23A9.91,9.91,0,0,0,20.28,10a12.61,12.61,0,0,0,7.88,8.94l.15-.33A15.13,15.13,0,0,1,20.8,7.76Z" transform="translate(0 4.9)"/></g><g class="cls-23"><path class="cls-15" d="M39.93,18.25c2-.92,6.91-7.21,4.77-10.14s-6.29-4-11.38-.59a13.33,13.33,0,0,0-5.91,11.12C31.41,19,35.67,20.19,39.93,18.25Z" transform="translate(0 4.9)"/><circle class="cls-24" cx="36.01" cy="19.94" r="16.15" transform="translate(4.62 51.46) rotate(-69.27)"/><ellipse class="cls-25" cx="33.72" cy="7.75" rx="16.15" ry="6.7" transform="translate(-0.12 19.84) rotate(-24.95)"/><ellipse class="cls-26" cx="27.38" cy="19" rx="13.03" ry="5.17" transform="translate(-5.82 26.73) rotate(-39.63)"/><path class="cls-15" d="M35.7,7.21a16.92,16.92,0,0,1,4.09-1.82,10.48,10.48,0,0,0-6.47,2.13,13.33,13.33,0,0,0-5.91,11.12l.38,0A16,16,0,0,1,35.7,7.21Z" transform="translate(0 4.9)"/></g><g class="cls-27"><path class="cls-15" d="M30.87,30.65c4.56,3.44,8.09,3,10.3.11s2.22-7-2.3-10.45A12.69,12.69,0,0,0,27,18.5C27.67,22.21,27.4,28,30.87,30.65Z" transform="translate(0 4.9)"/><ellipse class="cls-28" cx="43.29" cy="27.54" rx="12.58" ry="11.49" transform="translate(2.21 63.18) rotate(-69.27)"/><ellipse class="cls-29" cx="36.88" cy="20.35" rx="6.08" ry="14.89" transform="translate(0.95 47.22) rotate(-60.33)"/><ellipse class="cls-30" cx="27.38" cy="19" rx="3.89" ry="13.03" transform="translate(-5.06 31.53) rotate(-47.99)"/><path class="cls-15" d="M39.75,22.35a14.43,14.43,0,0,1,2.73,3.11,9,9,0,0,0-3.61-5.16A12.69,12.69,0,0,0,27,18.5l.07.35A14.86,14.86,0,0,1,39.75,22.35Z" transform="translate(0 4.9)"/></g><g class="cls-31"><path class="cls-15" d="M15.43,22.82c-3.28,4.67-2.7,8.18.23,10.29s7,2,10.37-2.64a12.69,12.69,0,0,0,1.42-12C23.76,19.35,17.93,19.27,15.43,22.82Z" transform="translate(0 4.9)"/><ellipse class="cls-32" cx="25.84" cy="27.7" rx="15.7" ry="4.72" transform="translate(-10.13 44.47) rotate(-65.25)"/><ellipse class="cls-33" cx="16.87" cy="20.4" rx="15.7" ry="11.14" transform="translate(-3.61 8.53) rotate(-11.11)"/><ellipse class="cls-34" cx="27.38" cy="19" rx="13.03" ry="4.03" transform="matrix(0.63, -0.78, 0.78, 0.63, -4.6, 33.28)"/><path class="cls-15" d="M24,31.42a14.52,14.52,0,0,1-3,2.83,9,9,0,0,0,5-3.78,12.69,12.69,0,0,0,1.42-12l-.35.08A14.85,14.85,0,0,1,24,31.42Z" transform="translate(0 4.9)"/></g><ellipse class="cls-35" cx="27.39" cy="18.64" rx="4.31" ry="4.03" transform="translate(-4.31 33.16) rotate(-51.13)"/><g class="cls-36"><path class="cls-37" d="M48.8,29.48a11.4,11.4,0,0,0,6.36.82,10.05,10.05,0,0,0-4.26-4.45A11.4,11.4,0,0,0,44.54,25,10.06,10.06,0,0,0,48.8,29.48Z" transform="translate(0 4.9)"/><path class="cls-38" d="M51.42,28.45c.78-.81,1.27-1.3,1.27-1.3s-.42.53-1.12,1.37Zm-.61-.3c.77-.92,1.23-1.5,1.23-1.5s-.54.54-1.39,1.42Zm1.53.76.91-1.11-1,1.05Zm.77.38.7-.85-.79.81Zm-3-1.51c.8-1,1.29-1.56,1.29-1.56s-.57.56-1.45,1.48Zm3.8,1.89.54-.66-.61.62Zm-6.62-3.29c.61-.73,1-1.17,1-1.17l-1.09,1.11Zm-1.36-.68.59-.72-.67.68Zm.67.34.8-1-.91.93Zm1.37.68c.7-.84,1.12-1.37,1.12-1.37s-.49.49-1.27,1.3Zm1.41.7c.8-1,1.29-1.56,1.29-1.56s-.57.56-1.44,1.48Zm-.71-.35c.77-.92,1.23-1.5,1.23-1.5s-.54.54-1.39,1.42Z" transform="translate(0 4.9)"/><path class="cls-38" d="M51.19,28.32c-.37,1-.61,1.63-.61,1.63s.17-.65.46-1.7Zm-.91-.45c-.32,1.14-.51,1.86-.51,1.86s.26-.68.66-1.78Zm1.56.78c-.24.86-.37,1.38-.37,1.38s.19-.49.49-1.32Zm.8.4c-.18.67-.29,1.06-.29,1.06s.14-.37.38-1Zm-3.1-1.54c-.34,1.19-.53,1.94-.53,1.94s.28-.71.69-1.86Zm3.88,1.93-.22.82.3-.78Zm-6.67-3.32c-.25.9-.36,1.39-.36,1.39l.48-1.32Zm-1.32-.66a1.73,1.73,0,0,0-.12.69,2.89,2.89,0,0,1,.2-.64Zm.65.32a8.33,8.33,0,0,0-.25,1.08s.09-.29.36-1Zm1.34.66c-.3,1-.42,1.63-.42,1.63l.57-1.55Zm1.4.69c-.34,1.19-.53,1.94-.53,1.94s.28-.71.69-1.86Zm-.71-.35c-.32,1.14-.51,1.86-.51,1.86s.26-.68.66-1.78Z" transform="translate(0 4.9)"/><path class="cls-39" d="M55.16,30.3v0L44.57,25h0a10.06,10.06,0,0,0,4.26,4.45A11.4,11.4,0,0,0,55.16,30.3Z" transform="translate(0 4.9)"/><path class="cls-40" d="M55.15,30.27a10,10,0,0,0-4.25-4.42A11.36,11.36,0,0,0,44.57,25Z" transform="translate(0 4.9)"/><path class="cls-41" d="M47.68,29.07c.77.5,1.54.71,1.72.47s-.29-.84-1.05-1.34-1.53-.71-1.72-.47S46.92,28.57,47.68,29.07Z" transform="translate(0 4.9)"/><path class="cls-42" d="M44.63,27.18c1.54,1.27,3.07,2,3.42,1.65s-.62-1.68-2.16-3-3.07-2-3.42-1.65S43.09,25.91,44.63,27.18Z" transform="translate(0 4.9)"/><path class="cls-43" d="M46.15,27.86c.69.57,1.41.86,1.63.65s-.17-.86-.86-1.43-1.41-.86-1.63-.65S45.47,27.28,46.15,27.86Z" transform="translate(0 4.9)"/><path class="cls-44" d="M46.12,30.1c3.3,2.16,6.62,3.06,7.41,2S52.3,28.47,49,26.32s-6.62-3.06-7.41-2S42.82,27.94,46.12,30.1Z" transform="translate(0 4.9)"/><ellipse class="cls-45" cx="54.35" cy="30.45" rx="0.54" ry="1.7" transform="translate(21.39 88.21) rotate(-87.31)"/><path class="cls-46" d="M50.66,30.92c2,.3,3.76.15,3.84-.33S53,29.49,51,29.19s-3.75-.15-3.84.33S48.62,30.63,50.66,30.92Z" transform="translate(0 4.9)"/><path class="cls-47" d="M52.33,30.73c.91.14,1.69,0,1.75-.27s-.65-.64-1.56-.78-1.69,0-1.75.27S51.42,30.59,52.33,30.73Z" transform="translate(0 4.9)"/><path class="cls-48" d="M53.61,32.62c4,.16,7.35-.74,7.41-2s-3.16-2.44-7.2-2.6-7.35.74-7.41,2S49.58,32.46,53.61,32.62Z" transform="translate(0 4.9)"/><path class="cls-49" d="M48.87,27.31c2.31,1.2,4.3,2,4.46,1.71s-1.59-1.44-3.89-2.64-4.3-2-4.46-1.71S46.56,26.11,48.87,27.31Z" transform="translate(0 4.9)"/><path class="cls-50" d="M53.45,30.41c1.83.88,3.51,1.25,3.75.82s-1-1.49-2.87-2.38S50.82,27.6,50.58,28,51.62,29.52,53.45,30.41Z" transform="translate(0 4.9)"/><path class="cls-51" d="M46,26.43c1.47.66,2.85.83,3.1.36s-.74-1.38-2.21-2-2.85-.83-3.1-.36S44.58,25.77,46,26.43Z" transform="translate(0 4.9)"/><path class="cls-52" d="M47.63,28.33c3.52,1.83,6.84,2.55,7.42,1.59s-1.8-3.21-5.32-5-6.84-2.55-7.42-1.59S44.11,26.5,47.63,28.33Z" transform="translate(0 4.9)"/><path class="cls-53" d="M52.54,30.84c3.52,1.83,6.84,2.55,7.42,1.59s-1.8-3.21-5.32-5-6.84-2.55-7.42-1.59S49,29,52.54,30.84Z" transform="translate(0 4.9)"/></g><path class="cls-54" d="M44,24.92l1.68.84c5.2,2.58,9.49,4.54,9.49,4.54S51,28.07,45.82,25.49l-1.69-.83Z" transform="translate(0 4.9)"/><path class="cls-55" d="M44,24.92l1.68.84c5.2,2.58,9.49,4.54,9.49,4.54S51,28.07,45.82,25.49l-1.69-.83Z" transform="translate(0 4.9)"/><g class="cls-56"><path class="cls-37" d="M40.85,28.14a11.38,11.38,0,0,1-6.39-.59,10.59,10.59,0,0,1,5.27-3.39,11.38,11.38,0,0,1,6.39.59A10.6,10.6,0,0,1,40.85,28.14Z" transform="translate(0 4.9)"/><path class="cls-38" d="M38.41,26.61c-.47-1-.74-1.58-.74-1.58s.35.58.9,1.54Zm1-.24c-.6-1-1-1.68-1-1.68s.3.67.82,1.72Zm-1.71.41C37.24,26,37,25.54,37,25.54s.22.48.6,1.28Zm-.88.21-.56-1s.17.36.46,1Zm3.41-.82c-.62-1.08-1-1.76-1-1.76s.32.7.85,1.8ZM36,27.2l-.44-.74.35.76Zm7.33-1.76c-.48-.82-.78-1.32-.78-1.32s.23.51.64,1.35Zm1.45-.35-.48-.81.39.83Zm-.71.17c-.4-.69-.65-1.1-.65-1.1s.19.42.53,1.13Zm-1.47.35c-.55-1-.9-1.54-.9-1.54s.28.6.74,1.58ZM41,26c-.62-1.08-1-1.76-1-1.76s.32.7.85,1.8Zm.78-.19c-.6-1-1-1.68-1-1.68s.3.67.82,1.72Z" transform="translate(0 4.9)"/><path class="cls-38" d="M39,26.46c0,1.08,0,1.75,0,1.75s-.08-.65-.18-1.71Zm.67-.16c.11,1.16.19,1.87.19,1.87s0-.74,0-1.92ZM38,26.7c.08.87.15,1.39.15,1.39s0-.53,0-1.42Zm-.85.2c.07.67.11,1.06.11,1.06s0-.4,0-1.09Zm3.34-.8c.11,1.2.2,2,.2,2s0-.77,0-2Zm-4.17,1c.05.52.09.82.09.82s0-.31,0-.84Zm7.27-1.75c.09.92.13,1.39.13,1.39s0-.49,0-1.42Zm1.5-.36a2.79,2.79,0,0,1,0,.67,1.73,1.73,0,0,0,.06-.69Zm-.74.18c.08.77.09,1.07.09,1.07a8.18,8.18,0,0,0,0-1.1Zm-1.51.36L43,27.17s0-.59,0-1.67Zm-1.55.37c.11,1.2.2,2,.2,2s0-.77,0-2Zm.78-.19c.11,1.16.19,1.87.19,1.87s0-.74,0-1.92Z" transform="translate(0 4.9)"/><path class="cls-57" d="M34.46,27.55l0,0,11.61-2.79h0a10.6,10.6,0,0,1-5.27,3.4A11.38,11.38,0,0,1,34.46,27.55Z" transform="translate(0 4.9)"/><path class="cls-58" d="M34.48,27.53a10.57,10.57,0,0,1,5.25-3.37,11.35,11.35,0,0,1,6.36.58Z" transform="translate(0 4.9)"/><path class="cls-59" d="M42,28c-.87.32-1.67.35-1.79.08s.49-.76,1.36-1.08,1.67-.35,1.79-.08S42.91,27.67,42,28Z" transform="translate(0 4.9)"/><path class="cls-60" d="M45.49,26.82c-1.82.9-3.5,1.28-3.74.85s1-1.5,2.85-2.4,3.5-1.28,3.74-.85S47.31,25.93,45.49,26.82Z" transform="translate(0 4.9)"/><path class="cls-61" d="M43.83,27.15c-.81.41-1.59.53-1.75.27s.39-.8,1.2-1.21,1.59-.53,1.74-.27S44.65,26.74,43.83,27.15Z" transform="translate(0 4.9)"/><path class="cls-62" d="M43.29,29.33c-3.76,1.37-7.21,1.53-7.72.34S37.7,26.4,41.46,25s7.21-1.53,7.72-.34S47,28,43.29,29.33Z" transform="translate(0 4.9)"/><path class="cls-63" d="M35.09,28.39c-.92-.17-1.61-.54-1.55-.83s.86-.39,1.78-.22,1.61.54,1.55.83S36,28.56,35.09,28.39Z" transform="translate(0 4.9)"/><path class="cls-64" d="M38.68,29.14C36.62,29,35,28.46,35,28s1.74-.75,3.8-.59,3.69.68,3.64,1.16S40.73,29.3,38.68,29.14Z" transform="translate(0 4.9)"/><path class="cls-65" d="M37.1,28.58c-.92-.06-1.65-.35-1.63-.64s.79-.48,1.71-.41,1.65.35,1.63.64S38,28.65,37.1,28.58Z" transform="translate(0 4.9)"/><path class="cls-66" d="M35.37,30.15c-4-.72-7-2.33-6.69-3.58s3.7-1.68,7.66-1,7,2.33,6.69,3.58S39.33,30.87,35.37,30.15Z" transform="translate(0 4.9)"/><path class="cls-67" d="M41.33,26c-2.55.66-4.68,1-4.77.68S38.47,25.65,41,25s4.68-1,4.77-.68S43.88,25.35,41.33,26Z" transform="translate(0 4.9)"/><path class="cls-68" d="M36.09,28c-2,.46-3.73.45-3.85,0s1.4-1.22,3.4-1.68,3.73-.45,3.85,0S38.09,27.57,36.09,28Z" transform="translate(0 4.9)"/><path class="cls-69" d="M44.31,25.78c-1.59.33-3,.18-3.1-.32s1.07-1.18,2.67-1.5,3-.18,3.1.32S45.9,25.46,44.31,25.78Z" transform="translate(0 4.9)"/><path class="cls-70" d="M42.28,27.29c-3.89,1-7.3,1-7.62-.08s2.57-2.73,6.46-3.74,7.3-1,7.62.08S46.16,26.27,42.28,27.29Z" transform="translate(0 4.9)"/><path class="cls-71" d="M36.87,28.64c-3.89,1-7.3,1-7.62-.08s2.57-2.73,6.46-3.74,7.3-1,7.62.08S40.75,27.63,36.87,28.64Z" transform="translate(0 4.9)"/></g><path class="cls-54" d="M46.69,24.76l-1.85.45c-5.71,1.37-10.38,2.34-10.38,2.34s4.59-1.26,10.3-2.64l1.85-.44Z" transform="translate(0 4.9)"/><path class="cls-72" d="M46.69,24.76l-1.85.45c-5.71,1.37-10.38,2.34-10.38,2.34s4.59-1.26,10.3-2.64l1.85-.44Z" transform="translate(0 4.9)"/><g class="cls-73"><path class="cls-37" d="M45.4,29.18a11.1,11.1,0,0,1-5.87,2.42,9.51,9.51,0,0,1,2.76-5.37,11.1,11.1,0,0,1,5.86-2.42A9.5,9.5,0,0,1,45.4,29.18Z" transform="translate(0 4.9)"/><path class="cls-38" d="M42.46,29c-.93-.63-1.49-1-1.49-1s.62.34,1.61.92Zm.74-.66c-1.08-.63-1.76-1-1.76-1s.62.44,1.63,1.12Zm-1.27,1.15-1.3-.75,1.21.83Zm-.65.59-1-.57.92.64Zm2.52-2.28C42.68,27.1,42,26.7,42,26.7s.65.46,1.7,1.17Zm-3.16,2.85-.77-.44.71.5Zm5.42-4.9-1.38-.79L46,25.8Zm1.07-1-.85-.48.78.54Zm-.53.48-1.15-.66,1.06.74Zm-1.09,1c-1-.58-1.61-.92-1.61-.92l1.49,1Zm-1.13,1c-1.12-.66-1.83-1.05-1.83-1.05s.65.46,1.7,1.17Zm.57-.52c-1.08-.63-1.76-1-1.76-1s.62.44,1.63,1.12Z" transform="translate(0 4.9)"/><path class="cls-38" d="M42.88,28.57c.6.93,1,1.51,1,1.51s-.41-.53-1.07-1.41Zm.49-.45c.71,1,1.17,1.54,1.17,1.54s-.39-.64-1-1.65Zm-1.24,1.12L43,30.39s-.28-.46-.77-1.23Zm-.63.57.67.87-.59-.94ZM44,27.59c.74,1,1.22,1.61,1.22,1.61s-.41-.67-1.09-1.72Zm-3.09,2.79.52.67-.45-.73Zm5.38-4.86.86,1.15s-.24-.44-.76-1.24Zm1.11-1a3,3,0,0,1,.39.57s0-.12-.32-.63Zm-.55.5c.48.63.65.89.65.89a8.67,8.67,0,0,0-.56-1Zm-1.12,1,1,1.35s-.3-.52-.89-1.45Zm-1.15,1c.74,1,1.22,1.61,1.22,1.61s-.41-.67-1.09-1.72Zm.58-.52c.71,1,1.17,1.54,1.17,1.54s-.39-.64-1-1.65Z" transform="translate(0 4.9)"/><path class="cls-74" d="M39.54,31.6v0l8.59-7.76h0a9.5,9.5,0,0,1-2.76,5.37A11.1,11.1,0,0,1,39.54,31.6Z" transform="translate(0 4.9)"/><path class="cls-75" d="M39.54,31.57a9.49,9.49,0,0,1,2.76-5.34,11.05,11.05,0,0,1,5.83-2.42Z" transform="translate(0 4.9)"/><path class="cls-76" d="M46.35,28.5c-.59.68-1.26,1.08-1.51.89s0-.89.61-1.56,1.26-1.08,1.51-.89S46.94,27.82,46.35,28.5Z" transform="translate(0 4.9)"/><path class="cls-77" d="M48.72,25.9c-1.1,1.62-2.35,2.72-2.79,2.46S46,26.58,47.12,25s2.35-2.72,2.79-2.46S49.82,24.29,48.72,25.9Z" transform="translate(0 4.9)"/><path class="cls-78" d="M47.46,26.94c-.49.73-1.1,1.19-1.37,1s-.09-.87.4-1.6,1.1-1.19,1.37-1S47.95,26.21,47.46,26.94Z" transform="translate(0 4.9)"/><path class="cls-79" d="M48.16,29.08c-2.53,2.92-5.45,4.64-6.52,3.84s.1-3.81,2.63-6.73,5.45-4.64,6.52-3.84S50.68,26.17,48.16,29.08Z" transform="translate(0 4.9)"/><path class="cls-80" d="M40.54,32c-.89.28-1.69.27-1.79,0s.54-.73,1.42-1,1.69-.27,1.79,0S41.42,31.76,40.54,32Z" transform="translate(0 4.9)"/><path class="cls-81" d="M44,31c-1.87.81-3.56,1.11-3.78.67s1.12-1.45,3-2.25,3.56-1.11,3.79-.67S45.91,30.23,44,31Z" transform="translate(0 4.9)"/><path class="cls-82" d="M42.38,31.28c-.83.37-1.62.45-1.76.19s.43-.78,1.27-1.15,1.62-.45,1.76-.19S43.21,30.92,42.38,31.28Z" transform="translate(0 4.9)"/><path class="cls-83" d="M41.71,33.43c-3.83,1.19-7.29,1.17-7.72,0S36.3,30.24,40.12,29s7.29-1.17,7.73,0S45.54,32.24,41.71,33.43Z" transform="translate(0 4.9)"/><path class="cls-84" d="M44.68,27.11c-1.86,1.75-3.55,3-3.78,2.78s1.09-1.79,3-3.54,3.55-3,3.78-2.78S46.54,25.36,44.68,27.11Z" transform="translate(0 4.9)"/><path class="cls-85" d="M41.21,31.26c-1.49,1.32-3,2.1-3.36,1.75s.56-1.7,2.05-3,3-2.1,3.36-1.75S42.7,29.95,41.21,31.26Z" transform="translate(0 4.9)"/><path class="cls-86" d="M47.14,25.54c-1.21,1-2.49,1.53-2.87,1.14s.3-1.52,1.51-2.53,2.49-1.53,2.87-1.14S48.35,24.53,47.14,25.54Z" transform="translate(0 4.9)"/><path class="cls-87" d="M46.18,27.78c-2.84,2.66-5.82,4.2-6.66,3.43s.77-3.55,3.61-6.22,5.82-4.2,6.66-3.43S49,25.11,46.18,27.78Z" transform="translate(0 4.9)"/><path class="cls-88" d="M42.21,31.44c-2.83,2.66-5.82,4.2-6.66,3.43s.77-3.55,3.61-6.22,5.82-4.2,6.66-3.43S45,28.78,42.21,31.44Z" transform="translate(0 4.9)"/></g><path class="cls-54" d="M48.67,23.56,47.3,24.8c-4.23,3.82-7.77,6.8-7.77,6.8s3.31-3.2,7.54-7l1.37-1.23Z" transform="translate(0 4.9)"/><path class="cls-89" d="M48.67,23.56,47.3,24.8c-4.23,3.82-7.77,6.8-7.77,6.8s3.31-3.2,7.54-7l1.37-1.23Z" transform="translate(0 4.9)"/><g class="cls-90"><path class="cls-37" d="M42.48,24.55a9.23,9.23,0,0,1-1.4-5.8,10.67,10.67,0,0,1,5.14,3.57,9.23,9.23,0,0,1,1.4,5.8A10.67,10.67,0,0,1,42.48,24.55Z" transform="translate(0 4.9)"/><path class="cls-38" d="M43.28,21.92c.85-.72,1.38-1.15,1.38-1.15s-.49.49-1.29,1.28Zm.56.8c.88-.85,1.41-1.4,1.41-1.4s-.59.48-1.51,1.26Zm-1-1.38,1-1-1.12.93Zm-.49-.71.8-.8-.86.71Zm1.91,2.74c.92-.89,1.48-1.46,1.48-1.46s-.61.5-1.57,1.32Zm-2.39-3.43.62-.62-.66.55ZM46,25.84l1.11-1.1-1.19,1ZM46.83,27l.68-.68-.73.6Zm-.4-.57.92-.92-1,.82Zm-.82-1.18C46.41,24.47,46.9,24,46.9,24s-.53.43-1.38,1.15ZM44.75,24c.92-.89,1.48-1.46,1.48-1.46s-.61.5-1.57,1.32Zm.44.62c.88-.85,1.41-1.4,1.41-1.4s-.59.48-1.51,1.26Z" transform="translate(0 4.9)"/><path class="cls-38" d="M43.62,22.38l-1.79.57,1.7-.69Zm.37.54c-1.15.46-1.86.76-1.86.76s.75-.23,2-.62Zm-.94-1.35-1.38.56,1.45-.46Zm-.48-.68-1.05.43L42.64,21Zm1.87,2.68c-1.2.48-1.94.79-1.94.79s.79-.24,2-.65Zm-2.34-3.35-.81.34.86-.27Zm4.08,5.85-1.38.55s.51-.13,1.46-.44Zm.84,1.2a3.48,3.48,0,0,1-.68.24,2.14,2.14,0,0,0,.73-.17Zm-.42-.6c-.77.31-1.07.41-1.07.41a10.19,10.19,0,0,0,1.14-.32Zm-.85-1.21-1.63.65s.61-.16,1.71-.52Zm-.87-1.25C43.7,24.68,43,25,43,25s.79-.24,2-.65Zm.44.63c-1.15.46-1.86.76-1.86.76s.75-.23,2-.62Z" transform="translate(0 4.9)"/><path class="cls-91" d="M41.08,18.75h0l6.52,9.33v0a10.67,10.67,0,0,1-5.14-3.57A9.23,9.23,0,0,1,41.08,18.75Z" transform="translate(0 4.9)"/><path class="cls-92" d="M41.11,18.76a10.62,10.62,0,0,1,5.11,3.56,9.2,9.2,0,0,1,1.41,5.77Z" transform="translate(0 4.9)"/><path class="cls-93" d="M43,25.55c-.6-.67-.89-1.36-.64-1.55s.93.2,1.53.86.89,1.36.64,1.55S43.61,26.22,43,25.55Z" transform="translate(0 4.9)"/><path class="cls-94" d="M45.29,28.21c-1.49-1.32-2.41-2.67-2-3s1.86.44,3.35,1.75,2.41,2.67,2,3S46.79,29.53,45.29,28.21Z" transform="translate(0 4.9)"/><path class="cls-95" d="M44.44,26.86c-.67-.59-1-1.23-.83-1.45s.94.09,1.61.68,1,1.23.83,1.45S45.12,27.45,44.44,26.86Z" transform="translate(0 4.9)"/><path class="cls-96" d="M42,27.07c-2.59-2.87-3.83-5.86-2.78-6.68s4,.84,6.6,3.71S49.7,30,48.64,30.79,44.63,29.94,42,27.07Z" transform="translate(0 4.9)"/><path class="cls-97" d="M40.41,19.57c-.12-.86,0-1.59.36-1.63s.67.63.79,1.49,0,1.59-.36,1.63S40.53,20.43,40.41,19.57Z" transform="translate(0 4.9)"/><path class="cls-98" d="M40.78,23c-.49-1.86-.47-3.45,0-3.57s1.31,1.3,1.8,3.16.47,3.46,0,3.57S41.26,24.81,40.78,23Z" transform="translate(0 4.9)"/><path class="cls-99" d="M40.85,21.39c-.23-.83-.16-1.56.15-1.63s.74.55,1,1.38.16,1.56-.15,1.63S41.07,22.22,40.85,21.39Z" transform="translate(0 4.9)"/><path class="cls-100" d="M38.71,20.36c-.5-3.71.2-6.85,1.56-7s2.89,2.72,3.39,6.43-.2,6.85-1.56,7S39.21,24.07,38.71,20.36Z" transform="translate(0 4.9)"/><path class="cls-101" d="M44.81,24.31c-1.48-2-2.47-3.81-2.2-4s1.68,1.35,3.16,3.38,2.47,3.81,2.2,4S46.29,26.34,44.81,24.31Z" transform="translate(0 4.9)"/><path class="cls-102" d="M41.1,20.33c-1.1-1.62-1.63-3.14-1.19-3.39s1.69.84,2.79,2.46,1.63,3.14,1.19,3.39S42.2,21.95,41.1,20.33Z" transform="translate(0 4.9)"/><path class="cls-103" d="M46,26.85c-.84-1.3-1.12-2.57-.65-2.83s1.54.58,2.38,1.88,1.12,2.57.65,2.83S46.82,28.15,46,26.85Z" transform="translate(0 4.9)"/><path class="cls-104" d="M43.81,25.54c-2.26-3.1-3.3-6.11-2.32-6.72s3.61,1.4,5.87,4.5,3.3,6.11,2.32,6.72S46.07,28.64,43.81,25.54Z" transform="translate(0 4.9)"/><path class="cls-105" d="M40.72,21.21c-2.26-3.1-3.3-6.11-2.32-6.72S42,15.89,44.26,19s3.3,6.11,2.32,6.72S43,24.31,40.72,21.21Z" transform="translate(0 4.9)"/></g><path class="cls-54" d="M47.78,28.63l-1-1.48c-3.2-4.59-5.66-8.4-5.66-8.4S43.81,22.39,47,27l1,1.49Z" transform="translate(0 4.9)"/><path class="cls-106" d="M47.78,28.63l-1-1.48c-3.2-4.59-5.66-8.4-5.66-8.4S43.81,22.39,47,27l1,1.49Z" transform="translate(0 4.9)"/><g class="cls-107"><path class="cls-108" d="M49.33,26a7.08,7.08,0,0,0,3.47-3.59,7.93,7.93,0,0,0-5.18-.21,7.08,7.08,0,0,0-3.47,3.59A7.93,7.93,0,0,0,49.33,26Z" transform="translate(0 4.9)"/><path class="cls-38" d="M49.76,23.65c-.24-1-.38-1.7-.38-1.7s.19.63.49,1.65Zm-.49.19c-.32-1.12-.54-1.81-.54-1.81s.15.71.41,1.86Zm1.24-.49c-.25-.84-.4-1.34-.4-1.34s.11.52.3,1.38Zm.63-.25c-.19-.65-.31-1-.31-1s.08.39.23,1.06Zm-2.48,1c-.34-1.16-.56-1.88-.56-1.88s.16.75.43,1.94Zm3.1-1.21-.24-.79s.06.3.18.82ZM46.37,25c-.26-.88-.43-1.42-.43-1.42s.12.55.32,1.46Zm-1.11.43L45,24.55s.07.33.2.9Zm.55-.21c-.22-.74-.36-1.18-.36-1.18s.1.45.27,1.22Zm1.12-.44c-.3-1-.49-1.65-.49-1.65s.14.65.38,1.7Zm1.15-.45c-.34-1.16-.56-1.88-.56-1.88s.16.75.43,1.94Zm-.58.23c-.32-1.11-.54-1.81-.54-1.81s.15.71.41,1.86Z" transform="translate(0 4.9)"/><path class="cls-38" d="M49.57,23.72c.57.92.91,1.49.91,1.49s-.4-.54-1-1.44Zm-.74.29c.69,1,1.13,1.58,1.13,1.58S49.58,25,49,24Zm1.27-.5.84,1.17s-.27-.46-.74-1.21Zm.65-.25.64.9-.57-.93Zm-2.53,1c.72,1,1.18,1.64,1.18,1.64s-.4-.66-1-1.7ZM51.39,23l.5.69L51.45,23ZM46,25.13c.55.77.85,1.16.85,1.16l-.75-1.2Zm-1.07.42a2.24,2.24,0,0,0,.45.54,3.75,3.75,0,0,1-.38-.56Zm.53-.21a10.59,10.59,0,0,0,.67.88s-.17-.25-.59-.92Zm1.09-.43c.63.9,1,1.37,1,1.37l-.88-1.41Zm1.14-.44c.72,1,1.18,1.64,1.18,1.64s-.39-.66-1-1.7Zm-.57.22c.69,1,1.13,1.58,1.13,1.58s-.38-.63-1-1.63Z" transform="translate(0 4.9)"/><path class="cls-109" d="M52.8,22.46h0l-8.61,3.37v0a7.93,7.93,0,0,0,5.18.21A7.08,7.08,0,0,0,52.8,22.46Z" transform="translate(0 4.9)"/><path class="cls-110" d="M52.78,22.45a7.87,7.87,0,0,0-5.15-.2,7,7,0,0,0-3.46,3.57Z" transform="translate(0 4.9)"/><path class="cls-111" d="M48.53,26.5c.71-.16,1.21-.52,1.12-.81s-.75-.38-1.46-.22-1.21.52-1.12.81S47.82,26.67,48.53,26.5Z" transform="translate(0 4.9)"/><path class="cls-112" d="M45.77,27.23c1.62-.15,2.85-.66,2.74-1.12s-1.51-.72-3.14-.57-2.85.66-2.75,1.12S44.15,27.38,45.77,27.23Z" transform="translate(0 4.9)"/><path class="cls-113" d="M47,26.69c.73-.06,1.27-.34,1.21-.63s-.71-.46-1.44-.4-1.27.34-1.21.63S46.23,26.75,47,26.69Z" transform="translate(0 4.9)"/><path class="cls-114" d="M48.58,28.2c3.07-.7,5.22-2.26,4.82-3.48s-3.22-1.63-6.28-.93-5.22,2.26-4.82,3.48S45.51,28.91,48.58,28.2Z" transform="translate(0 4.9)"/><path class="cls-115" d="M52.93,23.45c.45-.58.64-1.23.43-1.43s-.75.1-1.19.68-.64,1.23-.43,1.43S52.48,24,52.93,23.45Z" transform="translate(0 4.9)"/><path class="cls-116" d="M51.23,25.81c1.14-1.13,1.8-2.35,1.49-2.72s-1.49.24-2.62,1.37-1.8,2.35-1.49,2.72S50.09,26.93,51.23,25.81Z" transform="translate(0 4.9)"/><path class="cls-117" d="M51.84,24.58c.51-.5.78-1.09.59-1.32s-.76,0-1.27.5-.78,1.09-.59,1.32S51.33,25.08,51.84,24.58Z" transform="translate(0 4.9)"/><path class="cls-118" d="M53.81,25c1.94-2.52,2.77-5.29,1.87-6.18s-3.21.42-5.15,2.94S47.75,27.07,48.66,28,51.87,27.54,53.81,25Z" transform="translate(0 4.9)"/><path class="cls-119" d="M47.78,24.54c1.92-.7,3.38-1.49,3.26-1.76s-1.77.07-3.69.76S44,25,44.09,25.31,45.86,25.24,47.78,24.54Z" transform="translate(0 4.9)"/><path class="cls-120" d="M52.11,23.64c1.47-.6,2.5-1.45,2.29-1.89s-1.56-.32-3,.28-2.5,1.44-2.29,1.89S50.64,24.24,52.11,23.64Z" transform="translate(0 4.9)"/><path class="cls-121" d="M45.86,25.8c1.15-.51,1.89-1.3,1.66-1.77s-1.34-.44-2.49.07-1.89,1.3-1.66,1.77S44.71,26.31,45.86,25.8Z" transform="translate(0 4.9)"/><path class="cls-122" d="M48,26c2.93-1.06,4.95-2.75,4.51-3.77s-3.16-1-6.09.08-4.95,2.75-4.51,3.77S45,27.11,48,26Z" transform="translate(0 4.9)"/></g><path class="cls-54" d="M43.83,26.13l1.37-.53c4.24-1.66,7.6-3.14,7.6-3.14s-3.5,1.2-7.73,2.86l-1.37.54Z" transform="translate(0 4.9)"/><path class="cls-123" d="M43.83,26.13l1.37-.53c4.24-1.66,7.6-3.14,7.6-3.14s-3.5,1.2-7.73,2.86l-1.37.54Z" transform="translate(0 4.9)"/><path class="cls-124" d="M45.75,23.58l1.08-1,.15-.12a1,1,0,0,1-.18.3l-.07.07a3.74,3.74,0,0,1-.83.7l-.15.05Z" transform="translate(0 4.9)"/><path class="cls-125" d="M47.37,22.25c.39-.17,1.3-.06,1.41.42.2.88.57.51,1,1.14a1.27,1.27,0,0,1,.26.78A5,5,0,0,0,49.64,26c0,.28.14.08.1.44,0,.12-.36.43-.4.46-.52.33-.52.21-1.11.23-.35,0-.22-.12-.64.08a.9.9,0,0,1-.69.13s-.13-.09-.18-.09c-.11-.24-.22,0-.4-.84-.09-.39,0-.27-.2-.66h0c-.17-.36-.35-.29-.67-.29-.09,0-.49-.06-.51-.16s.14-.92.28-1.06.19-.22.19-.29,1.33-1.21,1.44-1.32.49-.37.54-.34Z" transform="translate(0 4.9)"/><path class="cls-124" d="M47.37,22.25c.39-.17,1.3-.06,1.41.42.19.86.56.53,1,1.1a1.81,1.81,0,0,1-.63-.25h0l-.15-.17c-.24-.24-.4-.9-.56-.9s-.36-.13-.42-.16c-.32-.12-.35.07-.61,0Z" transform="translate(0 4.9)"/><path class="cls-124" d="M49.75,26.23a.79.79,0,0,1,0,.18c0,.12-.36.43-.4.46-.52.33-.52.21-1.11.23-.35,0-.22-.12-.64.08a.9.9,0,0,1-.69.13s-.13-.09-.18-.09c-.11-.24-.22,0-.4-.84,0,0,0-.08,0-.11.22.4.26.83.6.92.56.16.35-.05.75-.14a3.29,3.29,0,0,1,.65,0c.12,0,.3.1.56,0a1.8,1.8,0,0,0,.49-.27c.26-.17.17-.27.39-.48Z" transform="translate(0 4.9)"/><path class="cls-124" d="M50,24.54s0,0,0,0A5,5,0,0,0,49.64,26c0,.19.07.16.1.24a.53.53,0,0,1-.21-.52c0-.24.07-.43.13-.68a.79.79,0,0,1,.37-.46Z" transform="translate(0 4.9)"/><path class="cls-125" d="M42.47,22.25c-.12-.42.1-1.32.58-1.38.88-.09.57-.52,1.23-.86a1.21,1.21,0,0,1,.79-.17,4.59,4.59,0,0,0,1.29.56c.27,0,.1-.13.44,0,.12,0,.37.41.39.46.26.57.14.56.08,1.15,0,.36-.14.2,0,.66a1,1,0,0,1,0,.72s-.1.12-.11.17c-.26.08-.05.22-.87.3-.39,0-.26,0-.66.12v0c-.38.13-.62.26-.65.59-.09.09-.14.54-.25.55s-.56-.25-.68-.42c-.08,0-.18-.22-.26-.23s-1-1.5-1.11-1.63-.3-.54-.26-.6Z" transform="translate(0 4.9)"/><path class="cls-124" d="M42.47,22.25c-.12-.42.1-1.32.58-1.38.86-.09.58-.5,1.19-.84a2,2,0,0,1-.32.6s0-.06,0,0l-.18.13c-.26.21-.93.29-.94.45s-.17.35-.21.41c-.15.31,0,.37-.12.62a0,0,0,0,1,0,0Z" transform="translate(0 4.9)"/><path class="cls-124" d="M46.63,20.34l.18,0c.12,0,.37.41.39.46.26.57.14.56.08,1.15,0,.36-.14.2,0,.66a1,1,0,0,1,0,.72s-.1.12-.11.17c-.26.08-.05.22-.87.3h-.11c.41-.18.83-.17,1-.49.22-.55,0-.36,0-.78a4,4,0,0,1,0-.66c0-.12.13-.29,0-.57a2,2,0,0,0-.2-.54c-.13-.28-.25-.2-.42-.45Z" transform="translate(0 4.9)"/><path class="cls-124" d="M45,19.85h0a4.59,4.59,0,0,0,1.29.56c.18,0,.16-.05.24-.07a.5.5,0,0,1-.53.15l-.64-.21a.79.79,0,0,1-.4-.43Z" transform="translate(0 4.9)"/><path class="cls-126" d="M42.47,22.25a1.63,1.63,0,0,1,.15-1h0c.08,0,.28.14.33.19.59.51.25.38.44.67s.11.32.13.38c.13.33-.05.64.09.94a2.1,2.1,0,0,0-.26.4l-.66-1c-.06-.08-.3-.54-.26-.6Z" transform="translate(0 4.9)"/><path class="cls-124" d="M43.57,24.07c-.31-.45-.77-1.14-.84-1.22l-.1-.17a1,1,0,0,1,.27.22L43,23a3.69,3.69,0,0,1,.57.93,1.29,1.29,0,0,1,0,.16Z" transform="translate(0 4.9)"/><path class="cls-125" d="M41.91,27.13c-.41.11-1.29-.13-1.33-.62-.07-.9-.5-.59-.82-1.27a1.29,1.29,0,0,1-.14-.81,4.72,4.72,0,0,0,.57-1.31c0-.27-.13-.1,0-.45,0-.12.41-.37.46-.39.56-.25.55-.13,1.13-.06.35,0,.2.15.64,0a.89.89,0,0,1,.7,0s.12.11.17.11c.07.26.21.06.27.89,0,.4,0,.26.11.68h0c.12.38.19.54.51.58.1,0,.28.35.29.46a.51.51,0,0,1-.13.58c0,.08-.21.18-.23.25s-1.49,1-1.61,1.1-.54.3-.59.25Z" transform="translate(0 4.9)"/><path class="cls-124" d="M41.91,27.13c-.41.11-1.29-.13-1.33-.62-.07-.88-.48-.6-.8-1.23.23.1.57.27.58.34h0l.13.19c.2.27.27,1,.43,1s.33.18.39.22c.3.17.36,0,.6.13Z" transform="translate(0 4.9)"/><path class="cls-124" d="M40.12,22.84a.67.67,0,0,1,0-.18c0-.12.41-.37.46-.39.56-.25.55-.13,1.13-.06.35,0,.2.15.64,0a.89.89,0,0,1,.7,0s.12.11.17.11c.07.26.21.06.27.89,0,0,0,.08,0,.12-.16-.42-.15-.86-.46-1-.53-.24-.36,0-.77,0a3.19,3.19,0,0,1-.65-.07c-.13,0-.29-.13-.56-.06a1.93,1.93,0,0,0-.52.19c-.28.13-.21.24-.45.42Z" transform="translate(0 4.9)"/><path class="cls-124" d="M39.6,24.46v0a4.72,4.72,0,0,0,.57-1.31c0-.18,0-.17-.06-.24a.53.53,0,0,1,.13.55c-.08.24-.13.41-.22.65a.77.77,0,0,1-.43.4Z" transform="translate(0 4.9)"/><path class="cls-126" d="M41.69,27.15c-.45,0-1.08-.24-1.11-.65a1.22,1.22,0,0,0-.13-.52c.26,0,.51,0,.64-.23a.78.78,0,0,1,.76-.38s.23.36.26.42c.16.26-.1,1-.41,1.36Z" transform="translate(0 4.9)"/><path class="cls-124" d="M43.7,26l-1.21.83-.17.1a1.09,1.09,0,0,1,.22-.27l.08-.06a3.5,3.5,0,0,1,.92-.56l.15,0Z" transform="translate(0 4.9)"/><path class="cls-124" d="M45.07,27c0,.55,0,1.38,0,1.49a1.41,1.41,0,0,1,0,.2,1.06,1.06,0,0,1-.09-.34v-.1a3.63,3.63,0,0,1,.09-1.1l.07-.15Z" transform="translate(0 4.9)"/><path class="cls-125" d="M44.89,29.16c-.15.41-.86,1-1.27.75-.76-.47-.76.06-1.49-.06a1.23,1.23,0,0,1-.73-.35,4.79,4.79,0,0,0-.71-1.24c-.2-.19-.15,0-.39-.24a1.5,1.5,0,0,1,0-.61c.13-.61.22-.54.61-1,.24-.27.24-.08.39-.53a1,1,0,0,1,.39-.6s.15,0,.19-.07c.25.09.17-.14.87.29.34.21.19.19.61.31l0,0c.37.12.45-.06.66-.3.06-.07.38-.32.47-.27s.55.74.55.95c.06.05,0,.28.07.34s-.07,1.82-.06,2a1.7,1.7,0,0,1-.14.64Z" transform="translate(0 4.9)"/><path class="cls-124" d="M44.89,29.16c-.15.41-.86,1-1.27.75-.74-.45-.76,0-1.44-.06a1.9,1.9,0,0,1,.61-.29l0,0H43c.33,0,.91.33,1,.21.09,0,.34-.17.4-.2.3-.15.19-.31.46-.42l0,0Z" transform="translate(0 4.9)"/><path class="cls-124" d="M40.44,28.15a.56.56,0,0,1-.13-.13,1.5,1.5,0,0,1,0-.61c.13-.61.22-.54.61-1,.24-.27.24-.08.39-.53a1,1,0,0,1,.39-.6s.15,0,.19-.07c.25.09.17-.14.87.29l.1.06c-.43-.11-.77-.37-1.06-.19-.5.3-.21.3-.41.66a3.32,3.32,0,0,1-.43.49c-.06.12-.27.16-.37.44a1.84,1.84,0,0,0-.15.55c-.06.3.08.31.07.62Z" transform="translate(0 4.9)"/><path class="cls-124" d="M41.44,29.53l0,0a4.79,4.79,0,0,0-.71-1.24c-.13-.13-.16-.06-.23-.09a.5.5,0,0,1,.51.21l.39.56a.83.83,0,0,1,.07.59Z" transform="translate(0 4.9)"/><path class="cls-127" d="M45.66,25.54c-.13-.08-.27-.05-.49,0a1.62,1.62,0,0,1-.37-.06,1.58,1.58,0,0,0-.17-.2,2,2,0,0,1,.31-1c0-.08.19-.21.19-.29l.26-.23s0,0,0,0a2.46,2.46,0,0,0-.14.41s.35-.3.36-.36,0,.13,0,.18,0,0,0-.05.41-.26.43-.26S45.95,24,46,24a4.08,4.08,0,0,1,.45-.23c0,.05-.24.28-.24.28a.16.16,0,0,0,0,0c0-.08.25-.08.31-.06s-.24.21-.24.22a1.76,1.76,0,0,1,.72,0l-.34.12s.26,0,.26,0l-.17.07.07,0s0,.07-.06.12.16.09.13.14c-.31,0-.11.1-.45.13.12,0,.51.06.37.16a.71.71,0,0,0-.4,0,.64.64,0,0,1,.28.06c0,.08-.16,0-.19,0s.09.12.1.16-.32-.08-.39,0a.47.47,0,0,1,.27.11s-.19,0-.22,0,.06,0,.09.08-.08,0-.1,0a.32.32,0,0,1,.07.17,1.47,1.47,0,0,0-.61-.07Z" transform="translate(0 4.9)"/><path class="cls-127" d="M45.42,23.84a1.27,1.27,0,0,0-.4.72c-.09.09-.14.54-.25.55s-.56-.25-.68-.42c-.08,0-.18-.22-.26-.23s-.15-.24-.34-.51v0c.1,0,.22.19.26.19a5.16,5.16,0,0,1-.13-.5c.05,0,.22.29.23.3l0,0c-.07,0,.08-.56.1-.61s.16.28.17.28a2,2,0,0,1,.15-.72s.06.36.05.37,0-.26.05-.26,0,.12,0,.19a.42.42,0,0,0,0-.07s.06.06.11.08.12-.14.16-.09c0,.32.07.12,0,.48,0-.12.15-.49.22-.34a.76.76,0,0,0-.11.4c0-.09,0-.21.11-.27s0,.17,0,.2.14-.06.17-.06-.13.3-.06.39a.45.45,0,0,1,.16-.25s-.07.18-.06.21,0-.06.1-.07,0,.07,0,.09a.34.34,0,0,1,.13,0Z" transform="translate(0 4.9)"/><path class="cls-127" d="M43.87,24.35a.5.5,0,0,0,.3.12c.1,0,.28.35.29.46a.51.51,0,0,1-.13.58.06.06,0,0,1,0,0h0l0,0c-.06.06-.17.13-.18.18l-.66.44s0-.07.05-.09a.26.26,0,0,1-.23,0,.09.09,0,0,1,0,0c.06-.07.28-.24.3-.31a3.68,3.68,0,0,0-.47.18c-.13,0,0-.12,0-.18s0,0,0,0l-.5.06c0-.1.24-.18.24-.21a4.61,4.61,0,0,1-.51,0,1.16,1.16,0,0,1,.34-.16l0,0c0,.06-.26,0-.31-.08s.3-.09.3-.1a1.77,1.77,0,0,1-.65-.32l.36,0s-.25-.07-.24-.11h.19l-.06,0c0-.05.07,0,.11-.08s-.11-.15-.06-.18c.3.1.14,0,.46.07-.11,0-.43-.26-.27-.3a.71.71,0,0,0,.36.2c-.08-.05-.19-.09-.24-.17s.15.05.19,0,0-.15,0-.18.26.2.36.15a.45.45,0,0,1-.2-.22s.16.12.19.12,0-.06,0-.12.06.06.09,0a.4.4,0,0,1,0-.18c.12.06.26.29.54.32a.16.16,0,0,0,.11,0Z" transform="translate(0 4.9)"/><path class="cls-127" d="M43.15,25.79l.15,0,0,0c.37.12.45-.06.66-.3.06-.07.38-.32.47-.27s.55.74.55.95c.06.05,0,.28.07.34s0,.1,0,.24a.26.26,0,0,1-.07.07,1.22,1.22,0,0,1-.06-.18.24.24,0,0,1,0,.18s0-.07-.05-.09-.09.17-.13.18,0,0,0,0a3.07,3.07,0,0,0-.09-.43,3.33,3.33,0,0,0-.13.5c-.08.1-.08-.1-.12-.13s0,0,0,.05-.22.45-.23.45,0-.3,0-.32-.21.42-.27.44a1.32,1.32,0,0,1,.06-.37l0,0c0,.07-.17.2-.23.22s.09-.3.08-.31c-.26.29-.52.3-.62.38l.23-.29s-.19.17-.23.14l.12-.16-.07,0s0-.08,0-.13-.18,0-.18-.06c.25-.19,0-.14.31-.36-.09.07-.46.23-.39.06a.68.68,0,0,0,.36-.19c-.08,0-.17.11-.26.11s.13-.1.14-.13-.14-.06-.16-.08.31-.1.33-.22a.46.46,0,0,1-.29.06s.18-.07.2-.1-.07,0-.12,0,.08,0,.07-.06a.35.35,0,0,1-.14-.11l.1,0Z" transform="translate(0 4.9)"/><path class="cls-127" d="M44.81,26.61c.13-.21,0-.36-.06-.61a1.56,1.56,0,0,1-.06-.38,2.41,2.41,0,0,0,.23-.25,1.88,1.88,0,0,1,.9,0c.07,0,.26.11.32.09l.26.16h-.1a.23.23,0,0,1,.17.07s-.08,0-.11,0,.12.15.12.2h0a2.63,2.63,0,0,0-.42-.09s.33.31.4.31-.13,0-.17.06,0,0,0,0,.31.38.31.4-.27-.11-.3-.09.29.36.29.43-.3-.2-.31-.21h0c.08,0,.11.24.1.31s-.24-.21-.25-.21a2,2,0,0,1,.09.73L46,27.25s.07.24,0,.26L46,27.35a.38.38,0,0,0,0,.07s-.08,0-.13,0-.07.18-.13.15c-.07-.31-.11-.1-.19-.44,0,.12,0,.52-.1.39a.73.73,0,0,0,0-.41.65.65,0,0,1,0,.29c-.08,0,0-.16-.06-.19s-.11.11-.13.12,0-.33-.06-.39a.48.48,0,0,1-.08.3s0-.2,0-.23,0,.07-.07.1,0-.09,0-.09a.32.32,0,0,1-.15.09,4.41,4.41,0,0,0,0-.45Z" transform="translate(0 4.9)"/><path class="cls-125" d="M48.31,26.88c.28.33.47,1.24.06,1.5-.76.48-.29.72-.74,1.32a1.24,1.24,0,0,1-.64.5,4.65,4.65,0,0,0-1.4.07c-.26.1,0,.16-.38.24a1.43,1.43,0,0,1-.55-.24c-.47-.4-.36-.44-.56-1-.12-.34,0-.24-.27-.59a1,1,0,0,1-.34-.63s0-.16,0-.2c.19-.19,0-.22.65-.66.34-.21.25-.08.55-.41v0c.28-.28.16-.43,0-.74,0-.09-.1-.49,0-.55s.9-.15,1.07-.06.26.11.32.09,1.55.9,1.69,1,.5.36.49.42Z" transform="translate(0 4.9)"/><path class="cls-124" d="M48.31,26.88c.28.33.47,1.24.06,1.5-.74.47-.31.71-.72,1.28a1.94,1.94,0,0,1,0-.68v0l.11-.2c.15-.3.71-.68.66-.83s0-.39,0-.46c0-.35-.18-.32-.15-.6a0,0,0,0,1,0,0Z" transform="translate(0 4.9)"/><path class="cls-124" d="M46.56,25.73l1.27.73.16.11a1,1,0,0,1-.34-.07l-.09,0a3.51,3.51,0,0,1-.91-.59l-.1-.13Z" transform="translate(0 4.9)"/><path class="cls-124" d="M45.38,30.45a.61.61,0,0,1-.17.06,1.43,1.43,0,0,1-.55-.24c-.47-.4-.36-.44-.56-1-.12-.34,0-.24-.27-.59a1,1,0,0,1-.34-.63s0-.16,0-.2c.19-.19,0-.22.65-.66l.1-.06c-.3.34-.68.52-.66.87,0,.6.16.33.38.68a4.37,4.37,0,0,1,.24.62c.07.1,0,.32.2.54a1.92,1.92,0,0,0,.41.4c.24.19.3.07.57.22Z" transform="translate(0 4.9)"/><path class="cls-124" d="M47,30.18h0a4.65,4.65,0,0,0-1.4.07c-.17.06-.13.12-.19.17a.52.52,0,0,1,.42-.37l.67-.09a.77.77,0,0,1,.54.21Z" transform="translate(0 4.9)"/><path class="cls-128" d="M45.52,25.53c-.11-.07-.23,0-.4,0a1.46,1.46,0,0,1-.31-.05l-.13-.16a1.55,1.55,0,0,1,.26-.79c0-.06.15-.18.15-.24l.22-.19a.06.06,0,0,1,0,0,2.31,2.31,0,0,0-.12.34s.28-.24.29-.3,0,.11,0,.15,0,0,0,0l.35-.21c0,.08-.12.21-.11.24a4,4,0,0,1,.38-.19s-.2.23-.2.24,0,0,0,0,.21-.06.26-.05-.19.17-.19.18a1.53,1.53,0,0,1,.6,0l-.28.1s.21,0,.22,0l-.14.06h.06s0,.06,0,.1.13.07.1.12c-.26,0-.09.08-.37.11.1,0,.41,0,.3.13a.58.58,0,0,0-.33,0c.07,0,.17,0,.23,0s-.13,0-.16,0,.07.11.08.13-.26-.06-.32,0a.38.38,0,0,1,.23.09s-.16,0-.18,0,0,0,.07.07-.07,0-.08,0a.29.29,0,0,1,.05.14c-.11,0-.28-.11-.5-.06Z" transform="translate(0 4.9)"/><path class="cls-128" d="M45.32,24.13a1,1,0,0,0-.33.6c-.07.08-.12.45-.2.46s-.46-.21-.56-.34-.15-.18-.21-.19l-.28-.42v0c.08,0,.18.16.21.15s-.13-.36-.11-.41.18.24.18.24l0,0c-.06,0,.06-.46.09-.51s.13.23.13.23a1.5,1.5,0,0,1,.13-.6l0,.3s0-.22,0-.22,0,.11,0,.16l0-.06s.05,0,.09.07.1-.12.13-.08c0,.26.06.1,0,.39,0-.1.13-.41.18-.28a.59.59,0,0,0-.09.33.59.59,0,0,1,.09-.23c.06,0,0,.14,0,.17s.12-.06.14-.06-.11.24-.05.32a.34.34,0,0,1,.13-.21s-.06.15-.06.17,0,0,.08-.06,0,.06,0,.08l.11,0Z" transform="translate(0 4.9)"/><path class="cls-128" d="M44,24.55a.4.4,0,0,0,.25.1c.08,0,.23.29.24.38a.42.42,0,0,1-.1.48,0,0,0,0,1,0,0h0l0,0c-.05.05-.14.1-.14.14l-.55.36s0-.06,0-.07a.24.24,0,0,1-.19,0s0,0,0,0,.23-.2.24-.26a2.81,2.81,0,0,0-.39.14c-.1,0,0-.1,0-.14s0,0,0,0-.39.05-.4,0,.19-.15.2-.17a4.18,4.18,0,0,1-.42,0,1.12,1.12,0,0,1,.27-.13l0,0c0,.05-.22,0-.26-.06s.25-.07.25-.08a1.43,1.43,0,0,1-.53-.26l.3,0s-.2-.06-.2-.09h.16l0,0s.05,0,.08-.07-.09-.12,0-.15c.25.08.11,0,.38.06-.09,0-.36-.22-.22-.24a.57.57,0,0,0,.29.16c-.06,0-.15-.07-.19-.14s.13,0,.15,0,0-.12,0-.15.21.17.29.12a.41.41,0,0,1-.17-.18s.13.1.15.09,0-.05,0-.09.05,0,.07,0a.3.3,0,0,1,0-.15c.1,0,.22.23.45.26a.17.17,0,0,0,.09,0Z" transform="translate(0 4.9)"/><path class="cls-128" d="M43.46,25.74l.13,0h0c.31.1.37,0,.54-.24s.31-.27.39-.22.45.61.45.78,0,.23.06.28a1.39,1.39,0,0,0,0,.2l0,.06s0-.14-.05-.15a.18.18,0,0,1,0,.16s0-.06,0-.08-.07.14-.11.15,0,0,0,0a2.25,2.25,0,0,0-.08-.35,4.07,4.07,0,0,0-.1.41c-.06.08-.06-.08-.09-.11s0,0,0,0-.18.36-.19.37,0-.24,0-.26-.17.34-.22.36a1.1,1.1,0,0,1,0-.3s0,0,0,0-.14.17-.19.18.08-.25.07-.26c-.21.24-.43.24-.51.31l.18-.24s-.16.14-.18.12l.09-.13-.06,0s0-.07,0-.11-.15,0-.14,0c.21-.16,0-.12.26-.29-.07.06-.37.18-.32.05a.57.57,0,0,0,.29-.15.65.65,0,0,1-.22.09c0-.06.11-.09.12-.11s-.12-.05-.13-.07.26-.08.27-.18a.38.38,0,0,1-.24,0s.15-.06.16-.08-.06,0-.1,0,.07,0,.06-.05a.25.25,0,0,1-.12-.09l.08,0Z" transform="translate(0 4.9)"/><path class="cls-128" d="M44.82,26.41c.11-.17,0-.29,0-.5a1.71,1.71,0,0,1,0-.31,1.58,1.58,0,0,0,.18-.21,1.53,1.53,0,0,1,.74,0c.06,0,.21.09.27.07l.22.13H46s.11,0,.14.06-.07,0-.09,0,.1.13.1.17h0a2.14,2.14,0,0,0-.35-.07s.27.25.33.26-.1,0-.13,0,0,0,0,0,.26.31.26.33-.22-.09-.25-.08.24.3.24.36-.25-.17-.25-.17h0c.06,0,.09.2.08.25s-.19-.17-.2-.17a1.6,1.6,0,0,1,.07.6l-.14-.26s.06.2,0,.21L45.76,27v.06s-.06,0-.11,0-.05.14-.1.12c-.06-.26-.09-.08-.15-.36,0,.1,0,.42-.08.32a.61.61,0,0,0,0-.34.57.57,0,0,1,0,.24c-.07,0,0-.13,0-.15s-.09.09-.12.1,0-.27-.05-.32a.42.42,0,0,1-.06.24s0-.17,0-.18,0,.06-.06.08,0-.07,0-.07a.26.26,0,0,1-.13.07c0-.08,0-.22,0-.37Z" transform="translate(0 4.9)"/><path class="cls-129" d="M45.39,25.52c-.08-.06-.18,0-.32,0a.85.85,0,0,1-.25,0l-.11-.13a1.27,1.27,0,0,1,.21-.63c0-.06.12-.14.13-.19l.17-.15v0a2.05,2.05,0,0,0-.1.27,2.89,2.89,0,0,0,.24-.24c.08,0,0,.09,0,.12s0,0,0,0,.27-.17.28-.17-.1.17-.09.19a2.53,2.53,0,0,1,.3-.15,1,1,0,0,1-.16.18s0,0,0,0,.17-.06.21,0-.15.13-.15.14a1.24,1.24,0,0,1,.48,0l-.23.08s.16,0,.17,0l-.12,0h0s0,.05,0,.08.1.06.08.09c-.2,0-.07.06-.29.09.08,0,.33,0,.24.1a.48.48,0,0,0-.26,0c.06,0,.13,0,.18,0s-.11,0-.13,0,.06.08.07.1-.21-.05-.26,0a.31.31,0,0,1,.18.07s-.13,0-.14,0,0,0,.06.06-.05,0-.06,0a.21.21,0,0,1,0,.11c-.09,0-.23-.09-.39,0Z" transform="translate(0 4.9)"/><path class="cls-129" d="M45.23,24.4a.82.82,0,0,0-.27.48c-.05.06-.09.36-.16.36s-.37-.17-.44-.27-.12-.14-.17-.15L44,24.48h0c.06,0,.14.12.16.12s-.1-.29-.09-.33a.85.85,0,0,1,.15.2h0s0-.36.07-.4.1.18.11.18a1.17,1.17,0,0,1,.1-.48l0,.24s0-.17,0-.17,0,.08,0,.12l0,0s0,0,.07.06.08-.1.11-.06c0,.21,0,.08,0,.31,0-.08.1-.32.14-.22a.49.49,0,0,0-.07.26c0-.06,0-.14.07-.18s0,.11,0,.13.09,0,.11,0-.09.2,0,.26a.28.28,0,0,1,.11-.17s0,.12,0,.14,0,0,.06,0,0,.05,0,.06l.09,0Z" transform="translate(0 4.9)"/><path class="cls-129" d="M44.21,24.74a.29.29,0,0,0,.19.08c.06,0,.19.23.19.3a.33.33,0,0,1-.08.38v0h0l0,0s-.11.08-.12.12l-.44.29s0,0,0-.06-.13,0-.15,0a0,0,0,0,1,0,0s.18-.16.19-.2a1.88,1.88,0,0,0-.31.12c-.09,0,0-.08,0-.12s0,0,0,0l-.33,0c0-.06.15-.12.16-.14a2.67,2.67,0,0,1-.34,0,.78.78,0,0,1,.22-.1l0,0s-.17,0-.21-.05.2-.06.2-.07a1.18,1.18,0,0,1-.43-.21l.24,0s-.16,0-.16-.07h.13l0,0s0,0,.07-.06-.07-.1,0-.12c.19.07.09,0,.3,0-.07,0-.28-.17-.17-.19a.42.42,0,0,0,.23.13c-.05,0-.13-.06-.15-.11s.1,0,.13,0,0-.1,0-.12.17.13.24.1a.28.28,0,0,1-.13-.14s.11.07.13.07,0,0,0-.07,0,0,.06,0a.2.2,0,0,1,0-.12c.08,0,.17.18.36.21,0,0,0,0,.07,0Z" transform="translate(0 4.9)"/><path class="cls-129" d="M43.74,25.68l.1,0h0c.25.08.29,0,.44-.19s.25-.21.31-.18.36.49.36.62,0,.19,0,.23,0,.06,0,.16l0,.05a.67.67,0,0,1,0-.12.16.16,0,0,1,0,.12s0-.05,0-.06-.06.12-.09.12a0,0,0,0,1,0,0,2.07,2.07,0,0,0-.06-.28,2.32,2.32,0,0,0-.08.33c-.05.06-.05-.07-.08-.09s0,0,0,0-.14.29-.15.3,0-.19,0-.21a3.15,3.15,0,0,1-.18.29.86.86,0,0,1,0-.24v0s-.11.13-.15.14.06-.2.06-.21c-.17.19-.34.19-.41.25l.15-.19s-.13.11-.15.09l.08-.1,0,0s0-.06,0-.09-.12,0-.12,0c.16-.12,0-.09.21-.23-.06,0-.3.15-.26,0a.43.43,0,0,0,.24-.12.39.39,0,0,1-.18.07s.09-.06.1-.09-.09,0-.11-.05.2-.07.21-.14a.28.28,0,0,1-.19,0s.12,0,.13-.06,0,0-.08,0,.05,0,0,0a.2.2,0,0,1-.1-.07l.07,0Z" transform="translate(0 4.9)"/><path class="cls-129" d="M44.83,26.22c.09-.14,0-.24,0-.4a1,1,0,0,1,0-.25,1.4,1.4,0,0,0,.14-.17,1.23,1.23,0,0,1,.59,0s.17.07.21.06l.17.11h-.07s.09,0,.11,0-.05,0-.07,0,.08.1.07.13h0a1.35,1.35,0,0,0-.27-.06,2.11,2.11,0,0,0,.26.21c0,.07-.08,0-.11,0s0,0,0,0,.2.25.2.26-.18-.07-.2-.06a2.43,2.43,0,0,1,.19.28.84.84,0,0,1-.2-.14h0c.05,0,.07.16.07.2s-.15-.14-.16-.14a1.25,1.25,0,0,1,.05.48l-.11-.22s.05.16,0,.18l-.06-.11v.05s0,0-.08,0,0,.12-.08.1c0-.21-.07-.06-.13-.29,0,.07,0,.34-.06.25a.5.5,0,0,0,0-.27.5.5,0,0,1,0,.19c-.06,0,0-.11,0-.12s-.07.07-.09.08,0-.22,0-.26a.33.33,0,0,1,0,.19s0-.13,0-.15,0,0,0,.06,0-.06,0-.06a.23.23,0,0,1-.1.06c0-.07,0-.18,0-.3Z" transform="translate(0 4.9)"/><path class="cls-130" d="M45.22,26.15c-.05,0,0,0-.07,0s0,.1-.16,0-.05.06-.13,0a1,1,0,0,1-.24.12s0,0,0,0c-.2,0-.14-.07-.32-.13,0,0,0,0,0,0s-.13-.1-.2-.18c.08-.34.08.19,0-.14,0-.12.12.06,0-.2s.17.07-.06-.21a.23.23,0,0,1,.05-.08c-.09-.12-.13,0,0-.16,0-.09,0-.07.08-.14a1,1,0,0,1,.09-.09c-.12-.25.17-.17.17-.17h0c.12.07.19-.19.38-.1,0,0,0,0,0,0s.36-.24.27-.06,0,.06.06.07.16,0,.18.06,0,0,0,0,.14,0,.22.07,0,0,0,.06c.16.17.19,0,.2.22,0,.09.27,0,0,.18-.07,0,.07.11.09.16s-.06,0-.08.06a.79.79,0,0,1,.08.19c0,.06-.17,0-.13.14-.26.26-.2,0-.24.27,0,.06-.08.08-.13.11Z" transform="translate(0 4.9)"/><path class="cls-131" d="M45.14,26s0,0,0,0,0,.06-.11,0,0,0-.09,0a.72.72,0,0,1-.16.08l0,0c-.13,0-.1,0-.22-.09s0,0,0,0-.09-.07-.13-.12c.05-.23.06.13,0-.1s.08,0,0-.14.12,0,0-.14l0-.06c-.06-.08-.09,0,0-.11s0-.05,0-.1l.06-.06c-.08-.18.12-.12.12-.12h0c.08,0,.13-.13.26-.07s0,0,0,0,.25-.16.19,0,0,0,0,.05.11,0,.13,0,0,0,0,0,.09,0,.15,0,0,0,0,0,.13,0,.13.15.19,0,0,.12,0,.08.06.12,0,0-.05,0,0,0,.06.12-.12,0-.09.1c-.18.18-.13,0-.16.18,0,0-.06.06-.09.07Z" transform="translate(0 4.9)"/><path class="cls-130" d="M45,25.77s0,0,0,0,0,0-.07,0,0,0-.06,0a.55.55,0,0,1-.11.05v0c-.09,0-.06,0-.14-.06h0c.05-.05-.06,0-.09-.08s0,.08,0-.07.05,0,0-.09.08,0,0-.09l0,0c0-.05-.06,0,0-.07s0,0,0-.06l0,0c-.05-.12.08-.08.08-.08h0c.05,0,.08-.09.17,0s0,0,0,0S45,25,45,25s0,0,0,0,.07,0,.08,0,0,0,0,0,.06,0,.1,0,0,0,0,0,.09,0,.09.1.13,0,0,.08,0,.05,0,.07l0,0s0,0,0,.08-.08,0-.06.06-.09,0-.11.12,0,0-.06.05Z" transform="translate(0 4.9)"/></g></g></svg>