<svg id="Layer_1" data-name="Layer 1" xmlns="http://www.w3.org/2000/svg" viewBox="0 0 54.62 59.78"><title>chair</title><rect x="7.82" y="26.78" width="12.45" height="23.62" fill="#2a9dd1"/><rect x="7.82" y="26.78" width="12.45" height="5.7" fill="#2895c7"/><polygon points="53.83 40.29 20.18 40.29 23.54 0 50.46 0 53.83 40.29" fill="#2485b0"/><polygon points="20.18 50.41 20.18 40.29 53.83 40.29 53.83 50.41 20.18 50.41 20.18 50.41" fill="#45a8a5"/><polygon points="2.93 46.7 1.96 59.78 3.62 59.78 8.81 46.7 2.93 46.7" fill="#240e01"/><polygon points="1.46 46.7 0.48 59.78 2.14 59.78 7.34 46.7 1.46 46.7" fill="#451b01"/><polygon points="15.76 46.7 14.79 59.78 16.44 59.78 21.64 46.7 15.76 46.7" fill="#120700"/><polygon points="14.28 46.7 13.31 59.78 14.97 59.78 20.17 46.7 14.28 46.7" fill="#331400"/><polygon points="41.49 46.7 42.47 59.78 40.81 59.78 35.61 46.7 41.49 46.7" fill="#240e01"/><polygon points="40.02 46.7 40.99 59.78 39.34 59.78 34.14 46.7 40.02 46.7" fill="#451b01"/><polygon points="53.65 46.7 54.62 59.78 52.96 59.78 47.76 46.7 53.65 46.7" fill="#120700"/><polygon points="52.47 46.7 53.44 59.78 51.79 59.78 46.59 46.7 52.47 46.7" fill="#331400"/><polygon points="48.82 40.29 15.17 40.29 18.53 0 47.64 0 48.82 40.29" fill="#4fbef0"/><polygon points="22.36 2.7 47.72 2.7 47.64 0 18.53 0 15.17 40.29 19.3 40.29 22.36 2.7" fill="#54caff"/><rect x="41.47" y="26.78" width="12.45" height="23.62" fill="#2a9dd1"/><rect x="41.47" y="26.78" width="12.45" height="5.7" fill="#2895c7"/><polygon points="0 50.41 0 40.29 33.65 40.29 33.65 50.41 0 50.41 0 50.41" fill="#2eabe3"/><polygon points="10.27 42.51 33.65 42.51 33.65 40.29 0 40.29 0 50.41 10.27 50.41 10.27 42.51" fill="#2485b0"/><rect x="33.65" y="26.78" width="7.82" height="23.62" fill="#71cff3"/><rect y="26.78" width="7.82" height="23.62" fill="#71cff3"/></svg>