<svg id="Layer_1" data-name="Layer 1" xmlns="http://www.w3.org/2000/svg" xmlns:xlink="http://www.w3.org/1999/xlink" viewBox="0 0 64.4 64.37"><defs><linearGradient id="linear-gradient" x1="-887.25" y1="819.32" x2="-870.18" y2="823.43" gradientTransform="translate(-973.21 -653.28) rotate(-103.54)" gradientUnits="userSpaceOnUse"><stop offset="0.34" stop-color="#9fde18"/><stop offset="1" stop-color="#5d9245"/></linearGradient><linearGradient id="linear-gradient-2" x1="31.02" y1="16.17" x2="31.02" gradientUnits="userSpaceOnUse"><stop offset="0.24" stop-color="#bf0"/><stop offset="0.41" stop-color="#aff710"/><stop offset="0.72" stop-color="#90e438"/><stop offset="1" stop-color="#6fcf62"/></linearGradient><linearGradient id="linear-gradient-3" x1="-932.35" y1="806.59" x2="-886.68" y2="817.2" gradientTransform="translate(-973.21 -653.28) rotate(-103.54)" gradientUnits="userSpaceOnUse"><stop offset="0" stop-color="#bc0a00"/><stop offset="1" stop-color="#ff2929"/></linearGradient><linearGradient id="linear-gradient-4" x1="-932.32" y1="806.47" x2="-888.38" y2="816.68" gradientTransform="translate(-973.21 -653.28) rotate(-103.54)" gradientUnits="userSpaceOnUse"><stop offset="0" stop-color="#bc0a00"/><stop offset="0.13" stop-color="#d91712"/><stop offset="0.26" stop-color="#ee211f"/><stop offset="0.39" stop-color="#fb2726"/><stop offset="0.51" stop-color="#ff2929"/><stop offset="1" stop-color="#ffb45e"/></linearGradient><linearGradient id="linear-gradient-5" x1="-897.03" y1="813.43" x2="-890.12" y2="847.54" gradientTransform="translate(-973.21 -653.28) rotate(-103.54)" gradientUnits="userSpaceOnUse"><stop offset="0" stop-color="#fcee21"/><stop offset="1" stop-color="#fbb03b"/></linearGradient><linearGradient id="linear-gradient-6" x1="28.4" y1="27.88" x2="59.06" y2="13.59" gradientUnits="userSpaceOnUse"><stop offset="0" stop-color="#fcf8b0"/><stop offset="0.46" stop-color="#fcee00"/><stop offset="1" stop-color="#fbc53b"/></linearGradient><linearGradient id="linear-gradient-7" x1="-899.51" y1="803.29" x2="-921.18" y2="843.13" gradientTransform="translate(-973.21 -653.28) rotate(-103.54)" gradientUnits="userSpaceOnUse"><stop offset="0.34" stop-color="#80de18"/><stop offset="1" stop-color="#4f9245"/></linearGradient><linearGradient id="linear-gradient-8" x1="19.24" y1="33.55" x2="62.09" y2="45.03" gradientUnits="userSpaceOnUse"><stop offset="0.24" stop-color="#b3ff00"/><stop offset="0.37" stop-color="#aaf506"/><stop offset="0.57" stop-color="#92dc16"/><stop offset="0.83" stop-color="#6cb231"/><stop offset="1" stop-color="#4f9245"/></linearGradient><linearGradient id="linear-gradient-9" x1="-876" y1="792.47" x2="-883.05" y2="811.84" gradientTransform="translate(-973.21 -653.28) rotate(-103.54)" gradientUnits="userSpaceOnUse"><stop offset="0" stop-color="#0071bc"/><stop offset="1" stop-color="#29c7ff"/></linearGradient><linearGradient id="linear-gradient-10" x1="2.82" y1="12.54" x2="21.98" y2="14.79" gradientUnits="userSpaceOnUse"><stop offset="0" stop-color="#007ed1"/><stop offset="0.63" stop-color="#29c7ff"/><stop offset="0.69" stop-color="#35caff"/><stop offset="0.79" stop-color="#54d2ff"/><stop offset="0.92" stop-color="#86dfff"/><stop offset="1" stop-color="#a6e8ff"/></linearGradient><linearGradient id="linear-gradient-11" x1="-914.92" y1="782.76" x2="-882.99" y2="808.2" gradientTransform="translate(-973.21 -653.28) rotate(-103.54)" gradientUnits="userSpaceOnUse"><stop offset="0" stop-color="#fbb03b"/><stop offset="1" stop-color="#fcee21"/></linearGradient><linearGradient id="linear-gradient-12" x1="0.92" y1="49.5" x2="22.37" y2="18.87" gradientUnits="userSpaceOnUse"><stop offset="0" stop-color="#fbc53b"/><stop offset="0.54" stop-color="#fcee00"/><stop offset="1" stop-color="#fcf8b0"/></linearGradient><linearGradient id="linear-gradient-13" x1="19.15" y1="17.56" x2="25.85" y2="17.56" gradientUnits="userSpaceOnUse"><stop offset="0" stop-color="#5d9245"/><stop offset="0.66" stop-color="#9fde18"/></linearGradient><linearGradient id="linear-gradient-14" x1="19.45" y1="17.56" x2="25.55" y2="17.56" gradientUnits="userSpaceOnUse"><stop offset="0" stop-color="#bf0"/><stop offset="0.22" stop-color="#aff710"/><stop offset="0.63" stop-color="#90e438"/><stop offset="1" stop-color="#6fcf62"/></linearGradient></defs><title>beachBall</title><path d="M18.51,3.07h0a32.28,32.28,0,0,1,25-1h0c-5.73.62-14,6.1-21,15.5C20.28,11.65,18.82,6.49,18.51,3.07Z" fill="url(#linear-gradient)"/><path d="M24.69.9q-1.41.34-2.76.8t-2.51,1h0a54.69,54.69,0,0,0,3.41,13.43C29.32,7.46,37.31,2.38,42.63,1.8h0q-1.2-.45-2.43-.8A32,32,0,0,0,24.69.9Z" fill="url(#linear-gradient-2)"/><path d="M39.75,63.47a32.1,32.1,0,0,1-26-5c-6.17-12.59.19-29.38,8.8-40.94h0C28,32.31,38.29,51.76,47,60.77A32.2,32.2,0,0,1,39.75,63.47Z" fill="url(#linear-gradient-3)"/><path d="M39.08,63.52a30.26,30.26,0,0,1-24.56-4.68C8.7,47,14.1,30.24,22.22,19.34h0C27.44,33.24,37.7,52.48,45.91,61A30.35,30.35,0,0,1,39.08,63.52Z" fill="url(#linear-gradient-4)"/><path d="M22.5,17.56c7-9.4,15.3-14.87,21-15.5h0a32.24,32.24,0,0,1,20.85,29C55.71,22,37.49,17.28,22.5,17.56Z" fill="url(#linear-gradient-5)"/><path d="M64.35,30.3A32.23,32.23,0,0,0,44,2.23c-5.53.69-13.88,6-20.57,14.93h0C37.83,16.89,55.94,21.56,64.35,30.3Z" fill="url(#linear-gradient-6)"/><path d="M22.5,17.56c15-.28,33.2,4.43,41.88,13.54h0A32.22,32.22,0,0,1,47,60.77C38.29,51.76,28,32.31,22.5,17.56Z" fill="url(#linear-gradient-7)"/><path d="M23.37,18.14c5.26,14,16.13,33.47,24.45,42.2A32.23,32.23,0,0,0,64.4,31.9C56,23.32,37.58,17.87,23.37,18.14Z" fill="url(#linear-gradient-8)"/><path d="M1,24.44A32.22,32.22,0,0,1,18.51,3.07c.31,3.42,1.77,8.58,4,14.49h0C12.87,17.74,4.56,20,1,24.44Z" fill="url(#linear-gradient-9)"/><path d="M4,16.72a30.67,30.67,0,0,0-2.46,6.64h0C4.89,19.14,12.68,17,21.73,16.89h0A61.84,61.84,0,0,1,18,3.34,32.13,32.13,0,0,0,4,16.72Z" fill="url(#linear-gradient-10)"/><path d="M.93,39.72A32,32,0,0,1,1,24.44H1C4.56,20,12.87,17.74,22.5,17.56c-8.61,11.56-15,28.35-8.8,40.94A32.06,32.06,0,0,1,.93,39.72Z" fill="url(#linear-gradient-11)"/><path d="M.85,25A30.83,30.83,0,0,0,.93,39.72,32,32,0,0,0,12.48,57.6c-5.22-11.8,1-28.75,8.92-39.4C13,18.13,5.08,20.6.85,25Z" fill="url(#linear-gradient-12)"/><ellipse cx="22.5" cy="17.56" rx="3.35" ry="3.34" fill="url(#linear-gradient-13)"/><ellipse cx="22.5" cy="17.56" rx="3.05" ry="3.04" fill="url(#linear-gradient-14)"/></svg>