<svg id="Layer_1" data-name="Layer 1" xmlns="http://www.w3.org/2000/svg" viewBox="0 0 170.42 170.42"><defs><style>.cls-1{fill:#525731;}.cls-2{fill:#81875d;}</style></defs><title>curved</title><path class="cls-1" d="M85.21,0C38.15,0,0,10.17,0,22.71V170.42c0-12.54,38.15-22.71,85.21-22.71s85.21,10.17,85.21,22.71V22.71C170.42,10.17,132.27,0,85.21,0Z"/><path class="cls-2" d="M168.42,162.61c-5.12-4.7-14.31-8-22.44-10.18-16.26-4.33-37.84-6.72-60.77-6.72s-44.51,2.39-60.77,6.72C16.31,154.59,7.12,157.91,2,162.61V22.71C2,12.91,36.17,2,85.21,2,107.8,2,129,4.34,144.95,8.58c14.7,3.92,23.47,9.2,23.47,14.12Z"/></svg>