<svg xmlns="http://www.w3.org/2000/svg" xmlns:xlink="http://www.w3.org/1999/xlink" viewBox="0 0 43.24 59.36"><defs><linearGradient id="linear-gradient" x1="-4.52" y1="63.99" x2="54.33" y2="63.99" gradientTransform="translate(21.72 -39.97) rotate(21.49)" gradientUnits="userSpaceOnUse"><stop offset="0" stop-color="#8fc8e9"/><stop offset="0.01" stop-color="#80c1e6"/><stop offset="0.03" stop-color="#64b5e1"/><stop offset="0.05" stop-color="#53addd"/><stop offset="0.06" stop-color="#4daadc"/><stop offset="0.19" stop-color="#7fc2e6"/><stop offset="0.43" stop-color="#7dc1e5"/><stop offset="0.7" stop-color="#2d9cd6"/><stop offset="0.74" stop-color="#288bc0"/><stop offset="0.85" stop-color="#288cc2"/><stop offset="0.88" stop-color="#2891c9"/><stop offset="0.88" stop-color="#2891c9"/><stop offset="0.91" stop-color="#359ed6"/><stop offset="1" stop-color="#7abfe4"/></linearGradient><linearGradient id="linear-gradient-2" x1="10.5" y1="4.89" x2="20.17" y2="4.89" gradientTransform="matrix(1, -0.01, 0.01, 1, -1.8, 20.65)" gradientUnits="userSpaceOnUse"><stop offset="0"/><stop offset="0.15" stop-color="#99cdea"/><stop offset="0.85" stop-color="#99cdea"/><stop offset="1"/></linearGradient><linearGradient id="linear-gradient-3" x1="23.37" y1="-15.58" x2="23.37" y2="-20.5" gradientTransform="matrix(1, -0.01, 0.01, 1, -1.8, 20.65)" gradientUnits="userSpaceOnUse"><stop offset="0.04" stop-color="#fff"/><stop offset="0.11" stop-color="#f5f4f6"/><stop offset="0.3" stop-color="#dedde1"/><stop offset="0.5" stop-color="#ceccd2"/><stop offset="0.72" stop-color="#c5c2ca"/><stop offset="1" stop-color="#c2bfc7"/></linearGradient><radialGradient id="radial-gradient" cx="1204.07" cy="19330.25" r="71.37" gradientTransform="matrix(0.39, 0, 0, 0.04, -457.87, -844)" gradientUnits="userSpaceOnUse"><stop offset="0" stop-color="#e1e1e7"/><stop offset="0.19" stop-color="#dcdce2"/><stop offset="0.43" stop-color="#cdcdd4"/><stop offset="0.69" stop-color="#b5b5bc"/><stop offset="0.96" stop-color="#92939b"/><stop offset="1" stop-color="#8d8e96"/></radialGradient><linearGradient id="linear-gradient-4" x1="-368.16" y1="25.68" x2="-367.52" y2="28.8" gradientTransform="matrix(-1, 0, 0, 1, -334.72, 0)" gradientUnits="userSpaceOnUse"><stop offset="0" stop-color="#84c241"/><stop offset="0.02" stop-color="#89c441"/><stop offset="0.17" stop-color="#a3cd43"/><stop offset="0.3" stop-color="#b3d345"/><stop offset="0.4" stop-color="#b9d545"/><stop offset="1" stop-color="#456f34"/></linearGradient><linearGradient id="linear-gradient-5" x1="-368.76" y1="35.75" x2="-365.94" y2="36.45" gradientTransform="matrix(-1, 0, 0, 1, -334.72, 0)" gradientUnits="userSpaceOnUse"><stop offset="0" stop-color="#456f34"/><stop offset="0.6" stop-color="#b9d545"/><stop offset="0.7" stop-color="#b3d345"/><stop offset="0.83" stop-color="#a3cd43"/><stop offset="0.98" stop-color="#89c441"/><stop offset="1" stop-color="#84c241"/></linearGradient><linearGradient id="linear-gradient-6" x1="-368.4" y1="36.56" x2="-369.37" y2="40.92" gradientTransform="matrix(-1, 0, 0, 1, -334.72, 0)" gradientUnits="userSpaceOnUse"><stop offset="0" stop-color="#b9d545"/><stop offset="0.24" stop-color="#d5b136"/><stop offset="0.47" stop-color="#ec922a"/><stop offset="0.61" stop-color="#f58725"/><stop offset="1" stop-color="#965624"/></linearGradient><linearGradient id="linear-gradient-7" x1="-350.52" y1="30.41" x2="-348.38" y2="30.41" gradientTransform="matrix(-1, 0, 0, 1, -334.72, 0)" gradientUnits="userSpaceOnUse"><stop offset="0" stop-color="#264b9b"/><stop offset="1" stop-color="#10bef0"/></linearGradient><linearGradient id="linear-gradient-8" x1="-347.74" y1="31.4" x2="-345.44" y2="31.4" xlink:href="#linear-gradient-7"/><linearGradient id="linear-gradient-9" x1="-349.93" y1="30.86" x2="-344.44" y2="30.3" xlink:href="#linear-gradient-5"/><linearGradient id="linear-gradient-10" x1="-369.33" y1="33.35" x2="-368.74" y2="31.26" xlink:href="#linear-gradient-5"/><linearGradient id="linear-gradient-11" x1="-369.16" y1="32.57" x2="-367.48" y2="26.65" xlink:href="#linear-gradient-5"/><linearGradient id="linear-gradient-12" x1="-358.83" y1="38.41" x2="-356.02" y2="28.49" xlink:href="#linear-gradient-5"/><linearGradient id="linear-gradient-13" x1="-355.81" y1="38.97" x2="-355.28" y2="34.19" xlink:href="#linear-gradient-7"/><linearGradient id="linear-gradient-14" x1="-8808.25" y1="38.11" x2="-8801.56" y2="38.11" gradientTransform="translate(8819.12)" xlink:href="#linear-gradient-7"/><linearGradient id="linear-gradient-15" x1="-350.3" y1="44.93" x2="-353.93" y2="46.44" xlink:href="#linear-gradient-6"/><linearGradient id="linear-gradient-16" x1="-350.6" y1="44.88" x2="-353.6" y2="42.8" xlink:href="#linear-gradient-6"/><linearGradient id="linear-gradient-17" x1="-351.75" y1="37.24" x2="-348.57" y2="39.19" xlink:href="#linear-gradient-5"/><linearGradient id="linear-gradient-18" x1="-345.96" y1="41.65" x2="-344.06" y2="44.79" xlink:href="#linear-gradient-5"/><linearGradient id="linear-gradient-19" x1="-346.98" y1="38.8" x2="-345.86" y2="41.7" xlink:href="#linear-gradient-5"/><linearGradient id="linear-gradient-20" x1="-8788.07" y1="29.46" x2="-8783.11" y2="29.46" gradientTransform="translate(8819.12)" xlink:href="#linear-gradient-4"/><radialGradient id="radial-gradient-2" cx="-8816.36" cy="29.05" r="2.09" gradientTransform="translate(10837.82) scale(1.23 1)" gradientUnits="userSpaceOnUse"><stop offset="0" stop-color="#3066af"/><stop offset="0.71" stop-color="#2b60ab"/><stop offset="1" stop-color="#285ca8"/></radialGradient><radialGradient id="radial-gradient-3" cx="-8816.31" cy="29.16" r="1.95" gradientTransform="translate(10837.82) scale(1.23 1)" gradientUnits="userSpaceOnUse"><stop offset="0" stop-color="#ed4523"/><stop offset="0.13" stop-color="#e74322"/><stop offset="0.3" stop-color="#d73e20"/><stop offset="0.49" stop-color="#bb351d"/><stop offset="0.69" stop-color="#952918"/><stop offset="0.91" stop-color="#651912"/><stop offset="1" stop-color="#4e120f"/></radialGradient><linearGradient id="linear-gradient-21" x1="-356.55" y1="33.92" x2="-357.36" y2="37.62" gradientTransform="matrix(-1, 0, 0, 1, -334.72, 0)" gradientUnits="userSpaceOnUse"><stop offset="0" stop-color="#fbed34"/><stop offset="0.17" stop-color="#e9e739"/><stop offset="0.49" stop-color="#cfdd3f"/><stop offset="0.78" stop-color="#bfd744"/><stop offset="1" stop-color="#b9d545"/></linearGradient><linearGradient id="linear-gradient-22" x1="-8806.32" y1="37.55" x2="-8799.64" y2="37.55" gradientTransform="translate(8819.12)" xlink:href="#linear-gradient-7"/><linearGradient id="linear-gradient-23" x1="-361.02" y1="44.58" x2="-365.62" y2="47.7" xlink:href="#linear-gradient-6"/><linearGradient id="linear-gradient-24" x1="-363.83" y1="37.05" x2="-358.15" y2="35.44" xlink:href="#linear-gradient-5"/><linearGradient id="linear-gradient-25" x1="-361.5" y1="41.33" x2="-358.25" y2="42.71" xlink:href="#linear-gradient-5"/><linearGradient id="linear-gradient-26" x1="-361.38" y1="37.75" x2="-358.71" y2="35.14" xlink:href="#linear-gradient-7"/></defs><title>cylinderFrog</title><g style="isolation:isolate"><g id="Layer_1" data-name="Layer 1"><path d="M42.91,2.83A1.38,1.38,0,0,0,42,1.54C38,0,24.07,0,21.44,0,12.66.06,3.89.67.89,1.81A1.38,1.38,0,0,0,0,3.11l.32,50.4A2.44,2.44,0,0,0,.87,55c5,6.18,36.9,5.4,41.77-.2a2.45,2.45,0,0,0,.6-1.62Z" fill="url(#linear-gradient)"/><g opacity="0.5" style="mix-blend-mode:multiply"><path d="M.86,53.1a2.44,2.44,0,0,1-.54-1.52v1.94A2.44,2.44,0,0,0,.87,55c5,6.18,36.9,5.4,41.77-.2a2.45,2.45,0,0,0,.6-1.62V51.27a2.45,2.45,0,0,1-.6,1.62C37.75,58.49,5.86,59.28.86,53.1Z" fill="#bee2f3" opacity="0"/><path d="M.86,53.21a2.44,2.44,0,0,1-.54-1.52v1.83A2.44,2.44,0,0,0,.87,55c5,6.18,36.9,5.4,41.77-.2a2.45,2.45,0,0,0,.6-1.62V51.38a2.45,2.45,0,0,1-.6,1.62C37.75,58.6,5.86,59.39.86,53.21Z" fill="#b6dbef" opacity="0.06"/><path d="M.86,53.32a2.44,2.44,0,0,1-.54-1.52v1.72A2.44,2.44,0,0,0,.87,55c5,6.18,36.9,5.4,41.77-.2a2.45,2.45,0,0,0,.6-1.62V51.49a2.45,2.45,0,0,1-.6,1.62C37.76,58.71,5.86,59.5.86,53.32Z" fill="#aad6ef" opacity="0.13"/><path d="M.86,53.43A2.44,2.44,0,0,1,.31,51.9v1.61A2.44,2.44,0,0,0,.87,55c5,6.18,36.9,5.4,41.77-.2a2.45,2.45,0,0,0,.6-1.62V51.6a2.45,2.45,0,0,1-.6,1.62C37.76,58.82,5.86,59.61.86,53.43Z" fill="#9ed2ec" opacity="0.19"/><path d="M.86,53.54A2.44,2.44,0,0,1,.31,52v1.5A2.44,2.44,0,0,0,.87,55c5,6.18,36.9,5.4,41.77-.2a2.45,2.45,0,0,0,.6-1.62v-1.5a2.45,2.45,0,0,1-.6,1.62C37.76,58.93,5.86,59.72.86,53.54Z" fill="#95cdea" opacity="0.25"/><path d="M.86,53.65a2.44,2.44,0,0,1-.54-1.52v1.39A2.44,2.44,0,0,0,.87,55c5,6.18,36.9,5.4,41.77-.2a2.45,2.45,0,0,0,.6-1.62V51.82a2.45,2.45,0,0,1-.6,1.62C37.76,59,5.86,59.83.86,53.65Z" fill="#8ac9e8" opacity="0.31"/><path d="M.86,53.76a2.44,2.44,0,0,1-.54-1.52v1.28A2.44,2.44,0,0,0,.87,55c5,6.18,36.9,5.4,41.77-.2a2.45,2.45,0,0,0,.6-1.62V51.93a2.45,2.45,0,0,1-.6,1.62C37.76,59.15,5.86,59.94.86,53.76Z" fill="#80c3e7" opacity="0.38"/><path d="M.86,53.87a2.44,2.44,0,0,1-.54-1.52v1.17A2.44,2.44,0,0,0,.87,55c5,6.18,36.9,5.4,41.77-.2a2.45,2.45,0,0,0,.6-1.62V52a2.45,2.45,0,0,1-.6,1.62C37.76,59.26,5.86,60,.86,53.87Z" fill="#78bfe5" opacity="0.44"/><path d="M.86,54a2.44,2.44,0,0,1-.54-1.52v1.06A2.44,2.44,0,0,0,.87,55c5,6.18,36.9,5.4,41.77-.2a2.45,2.45,0,0,0,.6-1.62V52.15a2.45,2.45,0,0,1-.6,1.62C37.76,59.37,5.86,60.16.86,54Z" fill="#6eb9e3" opacity="0.5"/><path d="M.86,54.09a2.44,2.44,0,0,1-.54-1.52v.95A2.44,2.44,0,0,0,.87,55c5,6.18,36.9,5.4,41.77-.2a2.45,2.45,0,0,0,.6-1.62v-.95a2.45,2.45,0,0,1-.6,1.62C37.76,59.48,5.87,60.27.86,54.09Z" fill="#65b4df" opacity="0.56"/><path d="M.86,54.2a2.44,2.44,0,0,1-.54-1.52v.84A2.44,2.44,0,0,0,.87,55c5,6.18,36.9,5.4,41.77-.2a2.45,2.45,0,0,0,.6-1.62v-.84a2.45,2.45,0,0,1-.6,1.62C37.76,59.59,5.87,60.38.86,54.2Z" fill="#5cb0de" opacity="0.63"/><path d="M.86,54.31a2.44,2.44,0,0,1-.54-1.52v.73A2.44,2.44,0,0,0,.87,55c5,6.18,36.9,5.4,41.77-.2a2.45,2.45,0,0,0,.6-1.62v-.73a2.45,2.45,0,0,1-.6,1.62C37.76,59.7,5.87,60.49.86,54.31Z" fill="#53acdc" opacity="0.69"/><path d="M.86,54.42a2.44,2.44,0,0,1-.54-1.52v.62A2.44,2.44,0,0,0,.87,55c5,6.18,36.9,5.4,41.77-.2a2.45,2.45,0,0,0,.6-1.62v-.62a2.45,2.45,0,0,1-.6,1.62C37.76,59.81,5.87,60.6.86,54.42Z" fill="#4aa9db" opacity="0.75"/><path d="M.86,54.53A2.44,2.44,0,0,1,.32,53v.51A2.44,2.44,0,0,0,.87,55c5,6.18,36.9,5.4,41.77-.2a2.45,2.45,0,0,0,.6-1.62V52.7a2.45,2.45,0,0,1-.6,1.62C37.76,59.92,5.87,60.71.86,54.53Z" fill="#42a3d9" opacity="0.81"/><path d="M.87,54.64a2.44,2.44,0,0,1-.54-1.52v.4A2.44,2.44,0,0,0,.87,55c5,6.18,36.9,5.4,41.77-.2a2.45,2.45,0,0,0,.6-1.62v-.4a2.45,2.45,0,0,1-.6,1.62C37.76,60,5.87,60.82.87,54.64Z" fill="#37a0d7" opacity="0.88"/><path d="M.87,54.75a2.44,2.44,0,0,1-.54-1.52v.29A2.44,2.44,0,0,0,.87,55c5,6.18,36.9,5.4,41.77-.2a2.45,2.45,0,0,0,.6-1.62v-.29a2.45,2.45,0,0,1-.6,1.62C37.76,60.14,5.87,60.93.87,54.75Z" fill="#309cd6" opacity="0.94"/><path d="M.87,54.86a2.44,2.44,0,0,1-.54-1.52v.18A2.44,2.44,0,0,0,.87,55c5,6.18,36.9,5.4,41.77-.2a2.45,2.45,0,0,0,.6-1.62V53a2.45,2.45,0,0,1-.6,1.62C37.77,60.25,5.87,61,.87,54.86Z" fill="#2998d2"/></g><path d="M8.6,4.34,8.8,36a10.64,10.64,0,0,0,9.74,10.5L18.27,4.71C14.74,4.68,11.41,4.55,8.6,4.34Z" opacity="0.55" fill="url(#linear-gradient-2)" style="mix-blend-mode:screen"/><path d="M42.42,1.79A1.39,1.39,0,0,0,42,1.54C38,0,24.07,0,21.44,0,12.66.06,3.89.67.89,1.81a1.39,1.39,0,0,0-.71.6l0,0c.21.47,1.06.91,2.47,1.23C6.48,4.56,14,5,21.47,4.91s15-.55,18.81-1.47c1.41-.34,2.25-.79,2.46-1.26A1.3,1.3,0,0,0,42.42,1.79Z" fill="url(#linear-gradient-3)"/><path d="M2.62,2.27a.16.16,0,0,0,0,.26c3,2.27,34.67,2.07,37.66-.24a.16.16,0,0,0,0-.26C38.77.89,30.1.37,21.44.43S4.11,1.11,2.62,2.27Z" fill="url(#radial-gradient)"/><path d="M39.07,1.77C33.89.58,19.6.73,14.27.8,20.86.29,33.76.2,39.07,1.77Z" fill="#fbfbfb" opacity="0.8"/><path d="M35.32,28.29a2.74,2.74,0,0,1-3.29,1,1.89,1.89,0,0,1-1.21-2.68,2.74,2.74,0,0,1,3.29-1A1.89,1.89,0,0,1,35.32,28.29Z" fill="url(#linear-gradient-4)"/><path d="M32.92,36.88a1.7,1.7,0,0,0-1.28.3,1.44,1.44,0,0,0-.2-.49,3.76,3.76,0,0,1-.2-.54c-.09-.25-.18-.49-.27-.74l0-.05,1.8-1,0,.1c.21.59.42,1.17.63,1.76a2.93,2.93,0,0,0,.38.71,1.69,1.69,0,0,0,.48.37l.17.1C33.84,37.54,33.38,37.11,32.92,36.88Z" fill="url(#linear-gradient-5)"/><path d="M29,38.18a.89.89,0,0,1,1.07-.28.9.9,0,0,1,.23.13c.5-.12,1.08-.17,1.28-.57a.45.45,0,0,0,0-.27,1.7,1.7,0,0,1,1.28-.3c.46.23.92.65,1.53.5.7.4,1.63.57,2.34,1a5.22,5.22,0,0,1,1.26,1c.23.24.6.53.69.85a1.17,1.17,0,0,1,.5.07c.45.17.67.58.48.91a1,1,0,0,1-1.16.29c-.44-.17-.66-.56-.49-.89a5.77,5.77,0,0,1-.69-.78A5.17,5.17,0,0,0,36,38.59c-.18-.1-1.21-.58-1.22-.05,0,.15.25.34.34.46a5.89,5.89,0,0,1,.43.69A3.63,3.63,0,0,1,36,41.12a1.1,1.1,0,0,1,.24.06.7.7,0,0,1,.46,1,1,1,0,0,1-1.23.36.7.7,0,0,1-.46-1,.74.74,0,0,1,.12-.16,4.44,4.44,0,0,1-.47-1.52,3.26,3.26,0,0,0-.52-1c-.19-.28-.29-.5-.65-.62a2.23,2.23,0,0,0-.31,1.27,3.61,3.61,0,0,1-.1.72c.35.21.51.55.36.83a1,1,0,0,1-1.24.25c-.5-.19-.76-.61-.57-.93a.83.83,0,0,1,.73-.34c0-.09,0-.18,0-.28,0-.38.24-1.29-.16-1.56-.2-.14-.48,0-.68,0a8.58,8.58,0,0,1-.85.27l-.15,0a.5.5,0,0,1-.06.2.88.88,0,0,1-1.07.28C29,38.87,28.83,38.49,29,38.18Z" fill="url(#linear-gradient-6)"/><path d="M15.8,30.25s-1.06.41-2.14.92a13.54,13.54,0,0,0,.93-1.53A4.73,4.73,0,0,1,15.8,30.25Z" fill="url(#linear-gradient-7)"/><path d="M10.71,33A5.64,5.64,0,0,1,13,29.81a8.56,8.56,0,0,0-.55,2c-.22.13-.42.25-.59.37Z" fill="url(#linear-gradient-8)"/><path d="M13.5,29.59a1.8,1.8,0,0,1,1.09,0,13.54,13.54,0,0,1-.93,1.53c-.42.2-.84.41-1.2.62a8.56,8.56,0,0,1,.55-2A3.1,3.1,0,0,1,13.5,29.59Z" fill="url(#linear-gradient-9)"/><path d="M35.56,33a6.13,6.13,0,0,0-.83.34h-.07c-1.75-.34-3.5.08-5.25-.5a5.18,5.18,0,0,1-.56-.14A30.9,30.9,0,0,0,39.56,31.2,14.17,14.17,0,0,1,35.56,33Z" fill="url(#linear-gradient-10)"/><path d="M28.28,32.27c-.18-1.85,1.24-3.51,2.5-5.08a24.14,24.14,0,0,1,2.77.36,17.68,17.68,0,0,1,3.62.55c2.05.52,3,2,2.6,2.84a1,1,0,0,1-.21.27,30.9,30.9,0,0,1-10.71,1.51C28.55,32.61,28.28,32.47,28.28,32.27Z" fill="url(#linear-gradient-11)"/><path d="M10.77,33.79a1.07,1.07,0,0,1-.06-.8h0l1.16-.83a47.64,47.64,0,0,1,5.66-2.63,13.65,13.65,0,0,1,4.37-.72,7.42,7.42,0,0,0,5-1.16,7.42,7.42,0,0,1,3.88-.48c-1.26,1.58-2.68,3.23-2.5,5.08,0,.34.72.5,1.13.59,1.75.59,3.5.17,5.25.5h.07c-.53.24-1.26.59-2,1l-1.8,1a4.85,4.85,0,0,0-.62.46,20.81,20.81,0,0,1-2.7,1.83,19.73,19.73,0,0,0,2-3.37,6.21,6.21,0,0,0-1,0c.18-.19,0-.35.16-.58a59,59,0,0,0-16,2.62L12.21,36A3.42,3.42,0,0,1,10.77,33.79Z" fill="url(#linear-gradient-12)"/><path d="M28.57,34.32c-2.8.35-4.57,2.6-6.23,4.42l0-.17c-.51.56-4.29-.17-4.68-.25a15.82,15.82,0,0,1-4.94-2C18,34.9,23,33.74,28.61,33.74,28.5,34,28.74,34.13,28.57,34.32Z" fill="url(#linear-gradient-13)"/><path d="M10.87,35.66c.27-.64.59-1,1.24-.5a20.57,20.57,0,0,1,5.45,6.15c-1.11-.65-2.41-1-3.57-1.64l.43.17S11.22,37.24,10.87,35.66Z" fill="url(#linear-gradient-14)"/><path d="M18,44.18a11.82,11.82,0,0,1,1.74.24,1.26,1.26,0,0,1,1.12-.33c.6.08,1,.45,1,.84s-.62.63-1.23.55a1.1,1.1,0,0,1-.93-.59c-.6.11-1.54.18-2,.31-.71.22-1.26.59-.84,1.21a1.35,1.35,0,0,1,.18.41h0c.57.07,1,.5.88.94a1,1,0,0,1-1.19.67c-.57-.08-1-.5-.88-.94a.68.68,0,0,1,.12-.28l-.27-.29a4.12,4.12,0,0,1,2-2.2C17.67,44.63,17.88,44.41,18,44.18Z" fill="url(#linear-gradient-15)"/><path d="M18,43.85c-.46-.39-1-.25-1.56-.22.2-.1.47-.23.75-.34a15,15,0,0,0,1.65-.81.62.62,0,0,1,.52.65.78.78,0,0,1-.91.48h0a1.69,1.69,0,0,1-.41.49A.38.38,0,0,0,18,43.85Z" fill="url(#linear-gradient-16)"/><path d="M17.52,41.23a20.67,20.67,0,0,0-5.41-6.07c-.65-.55-1-.13-1.24.5a1,1,0,0,1,0-.46A1.73,1.73,0,0,1,12.8,34c2,2.41,5.21,4.57,6.69,7.16a1,1,0,0,1-.22,1l-.41.32-.46.25A2,2,0,0,0,17.52,41.23Z" fill="url(#linear-gradient-17)"/><path d="M12.64,43.9c.93-.08,3.51-.11,3.51-.11l.3-.16c.54,0,1.1-.16,1.56.22a.38.38,0,0,1,0,.24l-.1.08H18c-.1.23-.32.45-.34.56a4.12,4.12,0,0,0-2,2.2c-.52-.59-1-1.35-1.48-1.41a5.75,5.75,0,0,1-4.5-1.47c-2-1.81-5.4-4-5.21-5A7.22,7.22,0,0,1,7,40C7.44,40.35,11.76,44,12.64,43.9Z" fill="url(#linear-gradient-18)"/><path d="M8.31,37.67c2,.54,4.64,1.58,5.67,2,1.16.63,2.46,1,3.57,1.64l0-.08a2,2,0,0,1,.89,1.49,9,9,0,0,1-1.19.56,5.09,5.09,0,0,1-2.82-.37c-2-.7-7.41-3-7.41-3l0,0a7.22,7.22,0,0,0-2.53-.88.46.46,0,0,1,0,0C4.8,38.12,5.85,37,8.31,37.67Z" fill="url(#linear-gradient-19)"/><path d="M35.78,30.31a2.74,2.74,0,0,1-3.29,1,1.89,1.89,0,0,1-1.21-2.68,2.74,2.74,0,0,1,3.29-1A1.89,1.89,0,0,1,35.78,30.31Z" fill="url(#linear-gradient-20)"/><path d="M35.67,30.34a2.49,2.49,0,0,1-3,.9,1.71,1.71,0,0,1-1.1-2.44,2.49,2.49,0,0,1,3-.9A1.71,1.71,0,0,1,35.67,30.34Z" fill="url(#radial-gradient-2)"/><path d="M35.61,30.37a2.32,2.32,0,0,1-2.79.84,1.6,1.6,0,0,1-1-2.27,2.32,2.32,0,0,1,2.79-.84A1.6,1.6,0,0,1,35.61,30.37Z" fill="url(#radial-gradient-3)"/><path d="M15.52,35.52a19,19,0,0,0,1.91-.4c.4-.1.8-.18,1.19-.31.19-.07.39-.08.59-.12s.43-.13.65-.17c.59-.11,1.16-.21,1.75-.29.37,0,.74-.08,1.11-.15s.69-.19,1-.28a5.62,5.62,0,0,1,1.33-.14c.32,0,.63.08,1,.05s.46-.12.69-.15a11.27,11.27,0,0,1,1.31,0,1.83,1.83,0,0,1,.94.24c.19.11.27.21.19.39a.54.54,0,0,1-.38.28c-.19.06-.26,0-.31-.06s.15-.39,0-.39a3.24,3.24,0,0,0-1.28-.08h0a.91.91,0,0,0-.29.11c-.08.05-.08.12-.12.2s-.12.32-.19.46-.27.47-.45.41,0-.49,0-.6.12-.38-.24-.38-.63,0-.75.36-.12.7-.23,1.05a3.46,3.46,0,0,1-.33.81c-.09.14-.32.49-.59.46s0-.35,0-.44a6.42,6.42,0,0,0,.29-.69,2.17,2.17,0,0,0,.07-.73.73.73,0,0,0-.36-.72,1,1,0,0,0-1.24.3,2.32,2.32,0,0,0-.15,1.8,2,2,0,0,1-.07,1.4.48.48,0,0,1-.49.21c-.2,0-.18-.12-.2-.28-.05-.45,0-.92,0-1.37A3.92,3.92,0,0,0,21.55,35c-.13-.29-.34-.59-.76-.44-.73.26-.67,1-.62,1.58,0,.23.45,1.9.06,1.93-.21,0-.41-.31-.48-.43s-.28-.51-.4-.76c-.22-.47-.34-1-.57-1.42-.1-.19-.32-.37-.54-.16a.85.85,0,0,0-.2.56c0,.35,0,.71,0,1.06,0,.14,0,.49-.15.59s-.27-.07-.35-.19a7.07,7.07,0,0,1-.42-.66,4.65,4.65,0,0,0-.2-.46c-.31-.45-1-.25-1.54-.23-.18,0-.46,0-.5-.2S15.35,35.55,15.52,35.52Z" fill="url(#linear-gradient-21)"/><path d="M12.8,34a2.41,2.41,0,0,1,1.47.65S19,38.9,19.48,41.13C18,38.54,14.76,36.38,12.8,34Z" fill="url(#linear-gradient-22)"/><path d="M28,45.2c.36-.22-.14-.75-.21-1.27l.24.13a12.2,12.2,0,0,1,.84-1,.46.46,0,0,1,0-.51.79.79,0,0,1,1-.26.55.55,0,0,1,.37.76.76.76,0,0,1-.79.31,11.9,11.9,0,0,1-1,1.37s2.76-.48,3.65-.12l.18.09a1.08,1.08,0,0,1,.73,0c.44.16.64.56.45.89a.93.93,0,0,1-1.12.29.7.7,0,0,1-.52-.68c-1-.54-3.24.3-3.24.3a3.84,3.84,0,0,1,3,2.19v0a.8.8,0,0,1,.27.05.52.52,0,0,1,.33.75.76.76,0,0,1-.91.28.52.52,0,0,1-.33-.75.57.57,0,0,1,.14-.16,3.22,3.22,0,0,0-.59-1c-.7-1-2.69-.79-2.69-.79a5.91,5.91,0,0,1,0,2,1.36,1.36,0,0,1-.18.39.55.55,0,0,1,.18.71.91.91,0,0,1-1.1.28c-.43-.16-.63-.55-.45-.87a.88.88,0,0,1,1-.31h0c.6-1.07-.27-2.69-.27-2.69l-.5-.39A2.78,2.78,0,0,0,28,45.2Z" fill="url(#linear-gradient-23)"/><path d="M23.55,38.32l.21-.18c1.79-1.38,4.09-2.2,5.41-3.87h.44a19.73,19.73,0,0,1-2,3.37c-1,.61-1.9,1.11-1.9,1.11l.07.28A3.48,3.48,0,0,0,23.55,38.32Z" fill="url(#linear-gradient-24)"/><path d="M25.8,39c.23.92.95,3.87,1,4.13s.62.57.94.76c.07.52.56,1.05.21,1.27a2.78,2.78,0,0,1-1.54,0c-.52-.41-1.38-1.13-2.33-2a6.88,6.88,0,0,1-1.64-3.61,5.66,5.66,0,0,1,1.08-1.27A3.48,3.48,0,0,1,25.8,39Z" fill="url(#linear-gradient-25)"/><path d="M29.17,34.28c-1.33,1.67-3.63,2.49-5.41,3.87a5.79,5.79,0,0,0-1.29,1.45c-.07-.38-.11-.68-.13-.86C24.11,36.79,26,34.36,29.17,34.28Z" fill="url(#linear-gradient-26)"/><path d="M34.29,30.55l-.51-2.16A2.78,2.78,0,0,1,34.29,30.55Z" fill="#221f1f"/><ellipse cx="33.08" cy="28.92" rx="0.23" ry="0.19" fill="#fff"/><path d="M30.95,27.73h-.21l-.61,0c-.26,0-.58,0-.94.08A10.33,10.33,0,0,0,28,28a5.35,5.35,0,0,0-1.35.49l-.17.09-.15.09-.15.07-.17.07a4.3,4.3,0,0,1-.75.18c-.53.08-1.1.1-1.68.13s-1.18.06-1.78.12a12.19,12.19,0,0,0-1.77.31,7.81,7.81,0,0,0-.83.26l-.77.29L17,30.68l-1.3.5-.58.23-.52.21-.84.35-.54.23-.19.08.2-.06.56-.18.87-.29.53-.18.59-.2,1.33-.45,1.48-.51.78-.27c.26-.09.52-.17.8-.24a11.84,11.84,0,0,1,1.7-.28c.58-.06,1.17-.09,1.75-.12a15.15,15.15,0,0,0,1.73-.17,4.27,4.27,0,0,0,.82-.22l.19-.08.18-.1.16-.1.15-.09a5.37,5.37,0,0,1,1.25-.51c.41-.12.81-.2,1.16-.26l.92-.14.6-.07Z" fill="#fff"/></g></g></svg>