<svg id="Layer_1" data-name="Layer 1" xmlns="http://www.w3.org/2000/svg" viewBox="0 0 49.46 61.65"><title>lamp</title><polygon points="24.73 2.4 25.38 31.66 26.03 60.91 24.73 60.91 23.43 60.91 24.08 31.66 24.73 2.4" fill="#c97200"/><polygon points="49.46 28.73 49.35 28.81 0.12 28.81 0 28.73 0.86 26.1 2.48 21.18 3.87 16.95 5.38 12.37 6.37 9.38 6.37 9.38 7.83 4.91 8.51 2.87 9.45 0 40.02 0 41.09 3.27 42.58 7.79 44.11 12.46 44.84 14.66 46.44 19.54 48.66 26.27 49.46 28.73" fill="#ff9000"/><polygon points="10.72 3.54 2.85 26.9 20.68 27.42 20.68 25.5 10.68 20.51 12.38 4.24 10.72 3.54" fill="#ffb832"/><rect x="18.33" y="60.18" width="12.8" height="1.47" fill="#995600"/></svg>