<svg id="Layer_1" data-name="Layer 1" xmlns="http://www.w3.org/2000/svg" xmlns:xlink="http://www.w3.org/1999/xlink" viewBox="0 0 57.66 62.54"><defs><linearGradient id="linear-gradient" x1="29.7" y1="39.31" x2="55.87" y2="39.31" gradientUnits="userSpaceOnUse"><stop offset="0" stop-color="#d21920"/><stop offset="1" stop-color="#971217"/></linearGradient><linearGradient id="linear-gradient-2" x1="28.82" y1="28.46" x2="28.82" y2="1.76" gradientUnits="userSpaceOnUse"><stop offset="0.3" stop-color="#ed1c24"/><stop offset="1" stop-color="#971217"/></linearGradient><linearGradient id="linear-gradient-3" x1="1.76" y1="39.31" x2="27.94" y2="39.31" gradientUnits="userSpaceOnUse"><stop offset="0" stop-color="#971217"/><stop offset="1" stop-color="#d21920"/></linearGradient><radialGradient id="radial-gradient" cx="28.83" cy="31.27" r="30.07" gradientUnits="userSpaceOnUse"><stop offset="0" stop-color="#eb5258"/><stop offset="0.67" stop-color="#ed1c24"/><stop offset="1" stop-color="#971217"/></radialGradient></defs><title>dice</title><path d="M55.87,27.07V21.59c0-2-.83-3.12-2.22-3.12a4.27,4.27,0,0,0-2.06.65l-7,4-3.89,2.24-3.58,2.06-2.27,1.31h0a11.62,11.62,0,0,0-5.16,8.95V57c0,2,.83,3.12,2.22,3.12A4.27,4.27,0,0,0,34,59.5l4.67-2.7,12-7a11.62,11.62,0,0,0,5.17-9Z" fill="url(#linear-gradient)"/><path d="M34,27.24l2.46-1.42,3.7-2.14,3.57-2.06,7-4a3.13,3.13,0,0,0,1.88-2.48,3.13,3.13,0,0,0-1.88-2.48l-3.81-2.2L34,3a10.52,10.52,0,0,0-5.17-1.22A10.52,10.52,0,0,0,23.65,3L10.28,10.71,6.93,12.64A3.13,3.13,0,0,0,5,15.11a3.13,3.13,0,0,0,1.88,2.48h0l10.72,6.19,3.53,2,2.46,1.42h0a10.52,10.52,0,0,0,5.16,1.22A10.53,10.53,0,0,0,34,27.24Z" fill="url(#linear-gradient-2)"/><path d="M22.78,28.77h0L20.5,27.46l-3.38-2L6.05,19.11H6A4.27,4.27,0,0,0,4,18.47c-1.39,0-2.22,1.17-2.22,3.12v19.3a11.62,11.62,0,0,0,5.17,9l12,7,4.67,2.7a4.27,4.27,0,0,0,2.06.65c1.39,0,2.22-1.17,2.22-3.12V37.72A11.62,11.62,0,0,0,22.78,28.77Z" fill="url(#linear-gradient-3)"/><path d="M50.32,10.38,34.87,1.46A12.29,12.29,0,0,0,28.82,0a12.29,12.29,0,0,0-6.05,1.46L6.05,11.11l-.47.3A10.51,10.51,0,0,0,.12,20.24,7.36,7.36,0,0,0,0,21.59v19.3A13.19,13.19,0,0,0,6.05,51.37s15.5,9,16.72,9.65a13.34,13.34,0,0,0,6.05,1.52A12.92,12.92,0,0,0,34.87,61l16.72-9.65a13.19,13.19,0,0,0,6.05-10.48s.06-15.8,0-19.3c-.05-3.24.17-3.58-1.14-6S51.38,11,50.32,10.38ZM38.66,56.8,34,59.5a4.27,4.27,0,0,1-2.06.65C30.53,60.14,29.7,59,29.7,57V37.72a11.62,11.62,0,0,1,5.16-8.95h0l2.27-1.31,3.58-2.06,3.89-2.24,7-4a4.27,4.27,0,0,1,2.06-.65c1.39,0,2.22,1.17,2.22,3.12v19.3a11.62,11.62,0,0,1-5.17,9Zm-31.73-7a11.62,11.62,0,0,1-5.17-9V21.59c0-2,.83-3.12,2.22-3.12A4.27,4.27,0,0,1,6,19.11h0L17.12,25.5l3.38,2,2.27,1.31h0a11.62,11.62,0,0,1,5.16,8.95V57c0,2-.83,3.12-2.22,3.12a4.27,4.27,0,0,1-2.06-.65L19,56.8Zm3.35-39.14L23.65,3a10.52,10.52,0,0,1,5.17-1.22A10.52,10.52,0,0,1,34,3l12.9,7.45,3.81,2.2a3.13,3.13,0,0,1,1.88,2.48,3.13,3.13,0,0,1-1.88,2.48l-7,4-3.57,2.06-3.7,2.14L34,27.24h0a10.53,10.53,0,0,1-5.16,1.22,10.52,10.52,0,0,1-5.16-1.22h0l-2.46-1.42-3.53-2L6.93,17.59h0A3.13,3.13,0,0,1,5,15.11a3.13,3.13,0,0,1,1.88-2.48Z" fill="url(#radial-gradient)"/><path d="M47.32,37.17a7.19,7.19,0,0,1-3.25,5.64c-1.8,1-3.25.2-3.25-1.88a7.19,7.19,0,0,1,3.25-5.64C45.86,34.25,47.32,35.09,47.32,37.17Z" fill="#fff"/><path d="M17.58,41.63c0,2.08-1.46,2.92-3.25,1.88a7.19,7.19,0,0,1-3.25-5.64c0-2.07,1.46-2.92,3.25-1.88A7.19,7.19,0,0,1,17.58,41.63Z" fill="#fff"/><path d="M10.33,31.22c0,2.07-1.46,2.92-3.25,1.88a7.19,7.19,0,0,1-3.25-5.64c0-2.08,1.46-2.92,3.25-1.88A7.19,7.19,0,0,1,10.33,31.22Z" fill="#fff"/><path d="M10.33,43.7c0,2.08-1.46,2.92-3.25,1.88a7.19,7.19,0,0,1-3.25-5.64c0-2.07,1.46-2.92,3.25-1.88A7.19,7.19,0,0,1,10.33,43.7Z" fill="#fff"/><path d="M25.29,40c0,2.07-1.46,2.92-3.25,1.88a7.19,7.19,0,0,1-3.25-5.64c0-2.08,1.46-2.92,3.25-1.88A7.19,7.19,0,0,1,25.29,40Z" fill="#fff"/><path d="M25.29,52.6c0,2.07-1.46,2.92-3.25,1.88a7.19,7.19,0,0,1-3.25-5.64c0-2.08,1.46-2.92,3.25-1.88A7.19,7.19,0,0,1,25.29,52.6Z" fill="#fff"/><path d="M32.33,20.25c1.8,1,1.8,2.72,0,3.76a7.19,7.19,0,0,1-6.51,0c-1.8-1-1.8-2.72,0-3.76A7.19,7.19,0,0,1,32.33,20.25Z" fill="#fff"/><path d="M32.07,5.48c1.8,1,1.8,2.72,0,3.76a7.19,7.19,0,0,1-6.51,0c-1.8-1-1.8-2.72,0-3.76A7.19,7.19,0,0,1,32.07,5.48Z" fill="#fff"/><path d="M32.16,12.74c1.8,1,1.8,2.72,0,3.76a7.19,7.19,0,0,1-6.51,0c-1.8-1-1.8-2.72,0-3.76A7.19,7.19,0,0,1,32.16,12.74Z" fill="#fff"/></svg>