<svg id="Layer_1" data-name="Layer 1" xmlns="http://www.w3.org/2000/svg" viewBox="0 0 25.17 21.25"><defs><style>.cls-1{fill:#9b001e;}.cls-2{fill:#d34b42;}.cls-3{opacity:0.1;}</style></defs><title>flat-pillow</title><polygon class="cls-1" points="25.17 0 25.17 10.67 12.58 10.67 12.58 0.03 25.17 0"/><polygon class="cls-1" points="12.58 10.58 12.58 21.25 0 21.25 0 10.62 12.58 10.58"/><polygon class="cls-2" points="12.58 0 12.58 10.67 0 10.67 0 0.03 12.58 0"/><polygon class="cls-2" points="25.17 10.58 25.17 21.25 12.58 21.25 12.58 10.62 25.17 10.58"/><path class="cls-3" d="M24.81,5.5C24.26,6.92,23.27,8.38,23,9.86A7.23,7.23,0,0,1,22.2,12a1.52,1.52,0,0,1-1,.78,3.16,3.16,0,0,1-1.24,0c-.36-.06-.74-.16-1-.17h-.21l-.11,0s0,0,0,.08A4,4,0,0,0,18.74,14a3.6,3.6,0,0,1-.36,2.18,5,5,0,0,1-3.68,2.18,14.92,14.92,0,0,1-5.35-.1,10,10,0,0,1-4.22-1.61,4.87,4.87,0,0,1-1.78-3,8.38,8.38,0,0,1-.11-2.12A3,3,0,0,1,3.63,10c.84-1.2,2.23.09,2.87.81A10.25,10.25,0,0,0,7.57,12a.49.49,0,0,0,.68,0c.13-.14.09-.4.06-.58C7.91,9.06,4.84,8.93,3.21,7.7A7.4,7.4,0,0,1,.81,4.27C.62,3.74.51,3.18.33,2.64A3,3,0,0,0,0,1.94V21.25H25.16V4.65Z"/></svg>