<svg xmlns="http://www.w3.org/2000/svg" xmlns:xlink="http://www.w3.org/1999/xlink" viewBox="0 0 55.4 24.8"><defs><style>.cls-1{isolation:isolate;}.cls-2{fill:url(#linear-gradient);}.cls-3{fill:url(#linear-gradient-2);}.cls-4{fill:url(#linear-gradient-3);}.cls-5{fill:url(#linear-gradient-4);}.cls-6{fill:#151516;}.cls-7{fill:#1a1a1c;}.cls-8{fill:url(#linear-gradient-5);}.cls-9{fill:url(#linear-gradient-6);}.cls-10{fill:url(#linear-gradient-7);}.cls-11{fill:url(#linear-gradient-8);}.cls-12{fill:#141414;}.cls-13{fill:url(#linear-gradient-9);}.cls-14{fill:url(#linear-gradient-10);}.cls-15{fill:url(#linear-gradient-11);}.cls-16{fill:#111;}.cls-17{fill:url(#linear-gradient-12);}.cls-18{fill:url(#linear-gradient-13);}.cls-19{fill:url(#linear-gradient-14);}.cls-20{fill:url(#linear-gradient-15);}.cls-21{fill:url(#linear-gradient-16);}.cls-22{fill:url(#linear-gradient-17);}.cls-23{fill:url(#linear-gradient-18);}.cls-24{fill:url(#linear-gradient-19);}.cls-25{fill:url(#linear-gradient-20);}.cls-26{fill:url(#linear-gradient-21);}.cls-27{fill:url(#linear-gradient-22);}.cls-28{fill:url(#linear-gradient-23);}.cls-29{fill:url(#linear-gradient-24);}.cls-30{fill:url(#linear-gradient-25);}.cls-31{fill:url(#linear-gradient-26);}.cls-32{fill:url(#linear-gradient-27);}.cls-33{fill:url(#linear-gradient-28);}.cls-34{fill:url(#linear-gradient-29);}.cls-35{fill:url(#linear-gradient-30);}.cls-36{fill:url(#linear-gradient-31);}.cls-37{fill:url(#linear-gradient-32);}.cls-38{fill:url(#linear-gradient-33);}.cls-39{fill:url(#linear-gradient-34);}.cls-40{fill:url(#linear-gradient-35);}.cls-41{fill:#1a1a1a;}.cls-42{fill:url(#linear-gradient-36);}.cls-43{fill:url(#linear-gradient-37);}.cls-44{fill:url(#linear-gradient-38);}.cls-45{fill:url(#linear-gradient-39);}.cls-46{fill:url(#linear-gradient-40);}.cls-47{fill:url(#linear-gradient-41);}.cls-48{fill:url(#linear-gradient-42);}.cls-49{fill:#999;}.cls-49,.cls-50,.cls-55,.cls-60{mix-blend-mode:multiply;}.cls-50,.cls-58{fill:#b3b3b3;}.cls-51{fill:url(#linear-gradient-43);}.cls-52,.cls-59,.cls-63,.cls-65,.cls-67{mix-blend-mode:screen;}.cls-52{fill:url(#linear-gradient-44);}.cls-53{fill:url(#linear-gradient-45);}.cls-54{fill:url(#linear-gradient-46);}.cls-56{fill:url(#linear-gradient-47);}.cls-57{fill:url(#linear-gradient-48);}.cls-59{fill:url(#linear-gradient-49);}.cls-60{fill:url(#linear-gradient-50);}.cls-61{fill:url(#linear-gradient-51);}.cls-62{fill:url(#linear-gradient-52);}.cls-63{fill:url(#linear-gradient-53);}.cls-64{fill:url(#linear-gradient-54);}.cls-65{fill:url(#linear-gradient-55);}.cls-66{fill:url(#linear-gradient-56);}.cls-67{fill:url(#linear-gradient-57);}.cls-68{fill:url(#linear-gradient-58);}.cls-69{fill:url(#linear-gradient-59);}.cls-70{fill:#333;}.cls-71{fill:url(#linear-gradient-60);}.cls-72{fill:url(#linear-gradient-61);}.cls-73{fill:url(#linear-gradient-62);}.cls-74{fill:url(#linear-gradient-63);}.cls-75{fill:url(#linear-gradient-64);}.cls-76{fill:url(#linear-gradient-65);}.cls-77{fill:url(#linear-gradient-66);}.cls-78{fill:url(#linear-gradient-67);}.cls-79{fill:url(#linear-gradient-68);}.cls-80{fill:url(#linear-gradient-69);}.cls-81{fill:url(#linear-gradient-70);}.cls-82{fill:url(#linear-gradient-71);}.cls-83{fill:url(#linear-gradient-72);}.cls-84{fill:url(#linear-gradient-73);}.cls-85{fill:url(#linear-gradient-74);}.cls-86{fill:url(#linear-gradient-75);}.cls-87{fill:url(#linear-gradient-76);}.cls-88{fill:url(#linear-gradient-77);}.cls-89{fill:url(#linear-gradient-78);}.cls-90{fill:url(#linear-gradient-79);}.cls-91{fill:url(#linear-gradient-80);}.cls-92{fill:url(#linear-gradient-81);}.cls-93{fill:url(#linear-gradient-82);}.cls-94{fill:url(#linear-gradient-83);}.cls-95{fill:url(#linear-gradient-84);}.cls-96{fill:url(#linear-gradient-85);}.cls-97{fill:url(#linear-gradient-86);}.cls-98{fill:url(#linear-gradient-87);}.cls-99{fill:url(#linear-gradient-88);}.cls-100{fill:url(#linear-gradient-89);}.cls-101{fill:url(#linear-gradient-90);}.cls-102{fill:url(#linear-gradient-91);}.cls-103{fill:url(#linear-gradient-92);}.cls-104{fill:url(#linear-gradient-93);}.cls-105{fill:url(#linear-gradient-94);}.cls-106{fill:url(#linear-gradient-95);}.cls-107{fill:url(#linear-gradient-96);}.cls-108{fill:url(#linear-gradient-97);}.cls-109{fill:url(#linear-gradient-98);}.cls-110{fill:url(#linear-gradient-99);}.cls-111{fill:#73604a;}</style><linearGradient id="linear-gradient" x1="-1322.3" y1="268.7" x2="-1320.59" y2="268.7" gradientTransform="translate(1191.9 -662.5) rotate(-18.5)" gradientUnits="userSpaceOnUse"><stop offset="0.34" stop-color="#131314"/><stop offset="1" stop-color="#1e1e1f"/></linearGradient><linearGradient id="linear-gradient-2" x1="-1320.85" y1="268.03" x2="-1321.52" y2="269.17" gradientTransform="translate(1191.9 -662.5) rotate(-18.5)" gradientUnits="userSpaceOnUse"><stop offset="0" stop-color="#131314"/><stop offset="1" stop-color="#262628"/></linearGradient><linearGradient id="linear-gradient-3" x1="-1324.95" y1="269.5" x2="-1319.22" y2="270.13" gradientTransform="translate(1191.9 -662.5) rotate(-18.5)" gradientUnits="userSpaceOnUse"><stop offset="0.34" stop-color="#131314"/><stop offset="1" stop-color="#262628"/></linearGradient><linearGradient id="linear-gradient-4" x1="-1322.88" y1="269.48" x2="-1322.88" y2="270.9" gradientTransform="translate(1191.9 -662.5) rotate(-18.5)" gradientUnits="userSpaceOnUse"><stop offset="0" stop-color="#252526"/><stop offset="0.41" stop-color="#19191a"/><stop offset="0.82" stop-color="#151516"/></linearGradient><linearGradient id="linear-gradient-5" x1="1703.74" y1="301.79" x2="1703.74" y2="302.07" gradientTransform="matrix(-0.96, 0.3, 0.3, 0.96, 1553.34, -775.93)" gradientUnits="userSpaceOnUse"><stop offset="0" stop-color="#575757"/><stop offset="1" stop-color="#292929"/></linearGradient><linearGradient id="linear-gradient-6" x1="1704.21" y1="301.71" x2="1705.6" y2="301.71" xlink:href="#linear-gradient-5"/><linearGradient id="linear-gradient-7" x1="1705.47" y1="301.56" x2="1707.45" y2="301.32" xlink:href="#linear-gradient-5"/><linearGradient id="linear-gradient-8" x1="1706.92" y1="301.38" x2="1709.45" y2="301.38" xlink:href="#linear-gradient-5"/><linearGradient id="linear-gradient-9" x1="1766.1" y1="-354.68" x2="1768.89" y2="-354.68" gradientTransform="matrix(-0.72, 0.69, 0.69, 0.72, 1525.77, -952.46)" xlink:href="#linear-gradient-5"/><linearGradient id="linear-gradient-10" x1="1450.57" y1="776.82" x2="1454.12" y2="777.77" gradientTransform="matrix(-1, -0.08, -0.08, 1, 1517.5, -644.21)" xlink:href="#linear-gradient-5"/><linearGradient id="linear-gradient-11" x1="1682.93" y1="339.31" x2="1690.53" y2="345.05" gradientTransform="matrix(-0.96, 0.27, 0.27, 0.96, 1552.21, -765.07)" xlink:href="#linear-gradient-5"/><linearGradient id="linear-gradient-12" x1="1415.38" y1="-573.06" x2="1419.25" y2="-574.29" gradientTransform="matrix(0.96, 0.27, -0.27, 0.96, -1483.95, 181.11)" xlink:href="#linear-gradient-3"/><linearGradient id="linear-gradient-13" x1="1439.53" y1="-517.3" x2="1445.03" y2="-513.15" gradientTransform="matrix(0.98, 0.22, -0.22, 0.98, -1481.19, 199.5)" xlink:href="#linear-gradient-5"/><linearGradient id="linear-gradient-14" x1="1444.31" y1="-514.41" x2="1444.31" y2="-514.08" gradientTransform="matrix(0.98, 0.22, -0.22, 0.98, -1481.19, 199.5)" xlink:href="#linear-gradient-5"/><linearGradient id="linear-gradient-15" x1="1444.75" y1="-514.51" x2="1446.02" y2="-514.51" gradientTransform="matrix(0.98, 0.22, -0.22, 0.98, -1481.19, 199.5)" xlink:href="#linear-gradient-5"/><linearGradient id="linear-gradient-16" x1="1445.89" y1="-514.72" x2="1447.73" y2="-514.94" gradientTransform="matrix(0.98, 0.22, -0.22, 0.98, -1481.19, 199.5)" xlink:href="#linear-gradient-5"/><linearGradient id="linear-gradient-17" x1="1447.24" y1="-514.93" x2="1449.49" y2="-514.93" gradientTransform="matrix(0.98, 0.22, -0.22, 0.98, -1481.19, 199.5)" xlink:href="#linear-gradient-5"/><linearGradient id="linear-gradient-18" x1="1448.57" y1="-514.98" x2="1451.84" y2="-514.1" gradientTransform="matrix(0.98, 0.22, -0.22, 0.98, -1481.19, 199.5)" xlink:href="#linear-gradient-5"/><linearGradient id="linear-gradient-19" x1="1448.29" y1="-513.92" x2="1451.56" y2="-513.05" gradientTransform="matrix(0.98, 0.22, -0.22, 0.98, -1481.19, 199.5)" gradientUnits="userSpaceOnUse"><stop offset="0" stop-color="#454545"/><stop offset="1" stop-color="#292929"/></linearGradient><linearGradient id="linear-gradient-20" x1="1451.32" y1="-513.81" x2="1453.45" y2="-513.81" gradientTransform="matrix(0.98, 0.22, -0.22, 0.98, -1481.19, 199.5)" xlink:href="#linear-gradient-5"/><linearGradient id="linear-gradient-21" x1="1415.35" y1="-573.17" x2="1419.21" y2="-574.39" gradientTransform="matrix(0.96, 0.27, -0.27, 0.96, -1483.95, 181.11)" gradientUnits="userSpaceOnUse"><stop offset="0" stop-color="#1a1a1a"/><stop offset="1" stop-color="#333"/></linearGradient><linearGradient id="linear-gradient-22" x1="1428.47" y1="-546.17" x2="1427.57" y2="-544.59" gradientTransform="matrix(0.97, 0.25, -0.25, 0.97, -1481.88, 189.03)" xlink:href="#linear-gradient-5"/><linearGradient id="linear-gradient-23" x1="1411.64" y1="-570" x2="1410.14" y2="-571.87" gradientTransform="matrix(0.96, 0.27, -0.27, 0.96, -1483.95, 181.11)" xlink:href="#linear-gradient-3"/><linearGradient id="linear-gradient-24" x1="1413.99" y1="-572.03" x2="1413.16" y2="-570.58" gradientTransform="matrix(0.96, 0.27, -0.27, 0.96, -1483.95, 181.11)" gradientUnits="userSpaceOnUse"><stop offset="0" stop-color="#2b2b2c"/><stop offset="1" stop-color="#1a1a1c"/></linearGradient><linearGradient id="linear-gradient-25" x1="1415.93" y1="-571.04" x2="1415.93" y2="-570.12" xlink:href="#linear-gradient-24"/><linearGradient id="linear-gradient-26" x1="1416.96" y1="-571.37" x2="1416.96" y2="-570.53" xlink:href="#linear-gradient-24"/><linearGradient id="linear-gradient-27" x1="1418.3" y1="-571.68" x2="1418.3" y2="-570.74" xlink:href="#linear-gradient-24"/><linearGradient id="linear-gradient-28" x1="1419.6" y1="-571.7" x2="1419.6" y2="-570.53" xlink:href="#linear-gradient-24"/><linearGradient id="linear-gradient-29" x1="1421.56" y1="-571.51" x2="1421.56" y2="-569.73" xlink:href="#linear-gradient-24"/><linearGradient id="linear-gradient-30" x1="1422.82" y1="-570.4" x2="1425.03" y2="-570.4" gradientTransform="matrix(0.96, 0.27, -0.27, 0.96, -1483.95, 181.11)" gradientUnits="userSpaceOnUse"><stop offset="0" stop-color="#323233"/><stop offset="1" stop-color="#1a1a1c"/></linearGradient><linearGradient id="linear-gradient-31" x1="1411.12" y1="-573.93" x2="1416.62" y2="-569.78" gradientTransform="matrix(0.96, 0.27, -0.27, 0.96, -1483.95, 181.11)" xlink:href="#linear-gradient-5"/><linearGradient id="linear-gradient-32" x1="1415.89" y1="-571.04" x2="1415.89" y2="-570.7" gradientTransform="matrix(0.96, 0.27, -0.27, 0.96, -1483.95, 181.11)" xlink:href="#linear-gradient-5"/><linearGradient id="linear-gradient-33" x1="1416.33" y1="-571.14" x2="1417.61" y2="-571.14" gradientTransform="matrix(0.96, 0.27, -0.27, 0.96, -1483.95, 181.11)" xlink:href="#linear-gradient-5"/><linearGradient id="linear-gradient-34" x1="1417.48" y1="-571.35" x2="1419.31" y2="-571.57" gradientTransform="matrix(0.96, 0.27, -0.27, 0.96, -1483.95, 181.11)" xlink:href="#linear-gradient-5"/><linearGradient id="linear-gradient-35" x1="1418.83" y1="-571.55" x2="1421.08" y2="-571.55" gradientTransform="matrix(0.96, 0.27, -0.27, 0.96, -1483.95, 181.11)" xlink:href="#linear-gradient-5"/><linearGradient id="linear-gradient-36" x1="1420.16" y1="-571.6" x2="1423.43" y2="-570.73" gradientTransform="matrix(0.96, 0.27, -0.27, 0.96, -1483.95, 181.11)" xlink:href="#linear-gradient-5"/><linearGradient id="linear-gradient-37" x1="1419.88" y1="-570.55" x2="1423.15" y2="-569.68" gradientTransform="matrix(0.96, 0.27, -0.27, 0.96, -1483.95, 181.11)" xlink:href="#linear-gradient-19"/><linearGradient id="linear-gradient-38" x1="1422.9" y1="-570.43" x2="1425.03" y2="-570.43" gradientTransform="matrix(0.96, 0.27, -0.27, 0.96, -1483.95, 181.11)" xlink:href="#linear-gradient-5"/><linearGradient id="linear-gradient-39" x1="1409.18" y1="-572.33" x2="1410.87" y2="-571.04" gradientTransform="matrix(0.96, 0.27, -0.27, 0.96, -1483.95, 181.11)" gradientUnits="userSpaceOnUse"><stop offset="0" stop-color="#454545"/><stop offset="0.57" stop-color="#2a2a2a"/><stop offset="1" stop-color="#1a1a1a"/></linearGradient><linearGradient id="linear-gradient-40" x1="220.09" y1="10.87" x2="241.61" y2="10.87" gradientTransform="translate(-196.2)" gradientUnits="userSpaceOnUse"><stop offset="0" stop-color="#0f0f11"/><stop offset="0.95" stop-color="#171719"/><stop offset="1" stop-color="#18181a"/></linearGradient><linearGradient id="linear-gradient-41" x1="223.22" y1="11.71" x2="241.61" y2="11.71" gradientTransform="translate(-196.2)" gradientUnits="userSpaceOnUse"><stop offset="0" stop-color="#18181a"/><stop offset="0.55" stop-color="#2a2a2b"/><stop offset="0.95" stop-color="#232227"/></linearGradient><linearGradient id="linear-gradient-42" x1="220.74" y1="14.42" x2="242.49" y2="14.42" gradientTransform="translate(-196.2)" gradientUnits="userSpaceOnUse"><stop offset="0" stop-color="#03090e"/><stop offset="0.42" stop-color="#060b0f"/><stop offset="0.67" stop-color="#0e1114"/><stop offset="0.83" stop-color="#18181a"/><stop offset="0.87" stop-color="#1b1b1d"/><stop offset="0.9" stop-color="#242526"/><stop offset="0.93" stop-color="#333536"/><stop offset="0.96" stop-color="#494c4c"/><stop offset="0.98" stop-color="#646968"/><stop offset="1" stop-color="#818785"/></linearGradient><linearGradient id="linear-gradient-43" x1="222.96" y1="5322.61" x2="241.82" y2="5322.61" gradientTransform="translate(-196.2 -3218.8) scale(1 0.61)" xlink:href="#linear-gradient-41"/><linearGradient id="linear-gradient-44" x1="26.72" y1="10.19" x2="45.48" y2="10.19" gradientUnits="userSpaceOnUse"><stop offset="0" stop-color="#666"/><stop offset="0.27" stop-color="#555"/><stop offset="0.81" stop-color="#282828"/><stop offset="1" stop-color="#161616"/></linearGradient><linearGradient id="linear-gradient-45" x1="218.81" y1="13.14" x2="224.23" y2="13.14" gradientTransform="translate(-196.2)" gradientUnits="userSpaceOnUse"><stop offset="0" stop-color="#0c0c0d"/><stop offset="0.83" stop-color="#18181a"/><stop offset="0.87" stop-color="#1b1b1d"/><stop offset="0.9" stop-color="#242526"/><stop offset="0.93" stop-color="#333536"/><stop offset="0.96" stop-color="#494c4c"/><stop offset="0.98" stop-color="#646968"/><stop offset="1" stop-color="#818785"/></linearGradient><linearGradient id="linear-gradient-46" x1="221.48" y1="11.97" x2="225.41" y2="15.08" gradientTransform="translate(-196.2)" gradientUnits="userSpaceOnUse"><stop offset="0" stop-color="#0c0c0d"/><stop offset="0.19" stop-color="#18181a"/><stop offset="0.49" stop-color="#1b1b1d"/><stop offset="0.71" stop-color="#242526"/><stop offset="0.92" stop-color="#333536"/><stop offset="1" stop-color="#3c3e3f"/></linearGradient><linearGradient id="linear-gradient-47" x1="-75.3" y1="-48.53" x2="-75.3" y2="-26.98" gradientTransform="matrix(-0.09, 1, 1, 0.09, 68.83, 86.73)" gradientUnits="userSpaceOnUse"><stop offset="0" stop-color="#fff"/><stop offset="0.48" stop-color="#d3d3d3"/><stop offset="1" stop-color="#a8a8a8"/></linearGradient><linearGradient id="linear-gradient-48" x1="-73.36" y1="-44.72" x2="-73.36" y2="-27.88" xlink:href="#linear-gradient-47"/><linearGradient id="linear-gradient-49" x1="231.86" y1="3.91" x2="231.86" y2="9.32" gradientTransform="translate(-196.2)" xlink:href="#linear-gradient-44"/><linearGradient id="linear-gradient-50" x1="221.33" y1="5.9" x2="221.33" y2="11.75" gradientTransform="translate(-196.2)" gradientUnits="userSpaceOnUse"><stop offset="0" stop-color="#bdbdbd"/><stop offset="0.26" stop-color="#c4c4c4"/><stop offset="0.64" stop-color="#d7d7d7"/><stop offset="1" stop-color="#efefef"/></linearGradient><linearGradient id="linear-gradient-51" x1="205.98" y1="8.43" x2="222.6" y2="8.43" gradientTransform="translate(-196.2)" gradientUnits="userSpaceOnUse"><stop offset="0" stop-color="#1a1a1c"/><stop offset="0.72" stop-color="#1d1d1e"/><stop offset="1" stop-color="#212122"/></linearGradient><linearGradient id="linear-gradient-52" x1="216.88" y1="10.68" x2="215.2" y2="12.2" gradientTransform="translate(-196.2)" gradientUnits="userSpaceOnUse"><stop offset="0" stop-color="#1a1a1c"/><stop offset="0.5" stop-color="#272728"/><stop offset="1" stop-color="#383839"/></linearGradient><linearGradient id="linear-gradient-53" x1="223.79" y1="7.3" x2="217.84" y2="6.33" gradientTransform="translate(-196.2)" gradientUnits="userSpaceOnUse"><stop offset="0" stop-color="#393939"/><stop offset="0.46" stop-color="#1d1d1d"/><stop offset="1"/></linearGradient><linearGradient id="linear-gradient-54" x1="221.09" y1="3.53" x2="208.45" y2="1.48" gradientTransform="translate(-196.2)" gradientUnits="userSpaceOnUse"><stop offset="0" stop-color="#1f1f20"/><stop offset="0.31" stop-color="#262627"/><stop offset="0.76" stop-color="#393939"/><stop offset="1" stop-color="#464646"/></linearGradient><linearGradient id="linear-gradient-55" x1="211.59" y1="3.82" x2="218.29" y2="9.1" gradientTransform="translate(-196.2)" gradientUnits="userSpaceOnUse"><stop offset="0" stop-color="#585858"/><stop offset="0.25" stop-color="#474747"/><stop offset="0.74" stop-color="#1a1a1a"/><stop offset="1"/></linearGradient><linearGradient id="linear-gradient-56" x1="214.36" y1="10.3" x2="214.36" y2="13.5" gradientTransform="translate(-196.2)" gradientUnits="userSpaceOnUse"><stop offset="0" stop-color="#1f1f20"/><stop offset="0.47" stop-color="#262627"/><stop offset="1" stop-color="#343434"/></linearGradient><linearGradient id="linear-gradient-57" x1="220.56" y1="5.3" x2="220.56" y2="12.67" gradientTransform="translate(-196.2)" gradientUnits="userSpaceOnUse"><stop offset="0" stop-color="#18181a"/><stop offset="0.47" stop-color="#0b0b0c"/><stop offset="1"/></linearGradient><linearGradient id="linear-gradient-58" x1="212.47" y1="10.3" x2="212.47" y2="11.96" gradientTransform="translate(-196.2)" gradientUnits="userSpaceOnUse"><stop offset="0" stop-color="#1a1a1a"/><stop offset="1" stop-color="#343434"/></linearGradient><linearGradient id="linear-gradient-59" x1="212.89" y1="12.41" x2="213.9" y2="11.87" gradientTransform="translate(-77.7 -179.4) rotate(60.4)" xlink:href="#linear-gradient-52"/><linearGradient id="linear-gradient-60" x1="-1324.28" y1="270.53" x2="-1322.1" y2="270.53" xlink:href="#linear-gradient"/><linearGradient id="linear-gradient-61" x1="-1322.42" y1="269.67" x2="-1323.28" y2="271.12" xlink:href="#linear-gradient-2"/><linearGradient id="linear-gradient-62" x1="-1327.65" y1="271.54" x2="-1320.34" y2="272.35" xlink:href="#linear-gradient-3"/><linearGradient id="linear-gradient-63" x1="-1325.02" y1="271.52" x2="-1325.02" y2="273.34" xlink:href="#linear-gradient-4"/><linearGradient id="linear-gradient-64" x1="1708.13" y1="304.18" x2="1708.13" y2="304.54" xlink:href="#linear-gradient-5"/><linearGradient id="linear-gradient-65" x1="1708.74" y1="304.07" x2="1710.51" y2="304.07" xlink:href="#linear-gradient-5"/><linearGradient id="linear-gradient-66" x1="1710.34" y1="303.88" x2="1712.87" y2="303.58" xlink:href="#linear-gradient-5"/><linearGradient id="linear-gradient-67" x1="1712.2" y1="303.66" x2="1715.43" y2="303.66" xlink:href="#linear-gradient-5"/><linearGradient id="linear-gradient-68" x1="1772.86" y1="-355.53" x2="1776.41" y2="-355.53" gradientTransform="matrix(-0.72, 0.69, 0.69, 0.72, 1525.77, -952.46)" xlink:href="#linear-gradient-5"/><linearGradient id="linear-gradient-69" x1="1454.95" y1="781.05" x2="1459.48" y2="782.26" gradientTransform="matrix(-1, -0.08, -0.08, 1, 1517.5, -644.21)" xlink:href="#linear-gradient-5"/><linearGradient id="linear-gradient-70" x1="1685.35" y1="340.82" x2="1695.06" y2="348.15" gradientTransform="matrix(-0.96, 0.27, 0.27, 0.96, 1552.21, -765.07)" xlink:href="#linear-gradient-5"/><linearGradient id="linear-gradient-71" x1="1417.65" y1="-571.2" x2="1422.58" y2="-572.76" gradientTransform="matrix(0.96, 0.27, -0.27, 0.96, -1483.95, 181.11)" xlink:href="#linear-gradient-3"/><linearGradient id="linear-gradient-72" x1="1442.42" y1="-515.96" x2="1449.44" y2="-510.65" gradientTransform="matrix(0.98, 0.22, -0.22, 0.98, -1481.19, 199.5)" xlink:href="#linear-gradient-5"/><linearGradient id="linear-gradient-73" x1="1448.52" y1="-512.26" x2="1448.52" y2="-511.84" gradientTransform="matrix(0.98, 0.22, -0.22, 0.98, -1481.19, 199.5)" xlink:href="#linear-gradient-5"/><linearGradient id="linear-gradient-74" x1="1449.08" y1="-512.39" x2="1450.71" y2="-512.39" gradientTransform="matrix(0.98, 0.22, -0.22, 0.98, -1481.19, 199.5)" xlink:href="#linear-gradient-5"/><linearGradient id="linear-gradient-75" x1="1450.54" y1="-512.66" x2="1452.88" y2="-512.94" gradientTransform="matrix(0.98, 0.22, -0.22, 0.98, -1481.19, 199.5)" xlink:href="#linear-gradient-5"/><linearGradient id="linear-gradient-76" x1="1452.26" y1="-512.92" x2="1455.14" y2="-512.92" gradientTransform="matrix(0.98, 0.22, -0.22, 0.98, -1481.19, 199.5)" xlink:href="#linear-gradient-5"/><linearGradient id="linear-gradient-77" x1="1453.97" y1="-512.99" x2="1458.14" y2="-511.87" gradientTransform="matrix(0.98, 0.22, -0.22, 0.98, -1481.19, 199.5)" xlink:href="#linear-gradient-5"/><linearGradient id="linear-gradient-78" x1="1453.61" y1="-511.64" x2="1457.78" y2="-510.52" xlink:href="#linear-gradient-19"/><linearGradient id="linear-gradient-79" x1="1457.47" y1="-511.49" x2="1460.19" y2="-511.49" gradientTransform="matrix(0.98, 0.22, -0.22, 0.98, -1481.19, 199.5)" xlink:href="#linear-gradient-5"/><linearGradient id="linear-gradient-80" x1="1417.6" y1="-571.33" x2="1422.54" y2="-572.89" xlink:href="#linear-gradient-21"/><linearGradient id="linear-gradient-81" x1="1431.51" y1="-544.83" x2="1430.35" y2="-542.81" gradientTransform="matrix(0.97, 0.25, -0.25, 0.97, -1481.88, 189.03)" xlink:href="#linear-gradient-5"/><linearGradient id="linear-gradient-82" x1="1412.87" y1="-567.28" x2="1410.96" y2="-569.67" gradientTransform="matrix(0.96, 0.27, -0.27, 0.96, -1483.95, 181.11)" xlink:href="#linear-gradient-3"/><linearGradient id="linear-gradient-83" x1="1415.87" y1="-569.88" x2="1414.81" y2="-568.03" xlink:href="#linear-gradient-24"/><linearGradient id="linear-gradient-84" x1="1418.35" y1="-568.61" x2="1418.35" y2="-567.43" xlink:href="#linear-gradient-24"/><linearGradient id="linear-gradient-85" x1="1419.66" y1="-569.04" x2="1419.66" y2="-567.96" xlink:href="#linear-gradient-24"/><linearGradient id="linear-gradient-86" x1="1421.38" y1="-569.43" x2="1421.38" y2="-568.23" xlink:href="#linear-gradient-24"/><linearGradient id="linear-gradient-87" x1="1423.03" y1="-569.46" x2="1423.03" y2="-567.96" xlink:href="#linear-gradient-24"/><linearGradient id="linear-gradient-88" x1="1425.54" y1="-569.22" x2="1425.54" y2="-566.94" xlink:href="#linear-gradient-24"/><linearGradient id="linear-gradient-89" x1="1427.14" y1="-567.8" x2="1429.97" y2="-567.8" xlink:href="#linear-gradient-30"/><linearGradient id="linear-gradient-90" x1="1412.2" y1="-572.3" x2="1419.22" y2="-567" gradientTransform="matrix(0.96, 0.27, -0.27, 0.96, -1483.95, 181.11)" xlink:href="#linear-gradient-5"/><linearGradient id="linear-gradient-91" x1="1418.3" y1="-568.61" x2="1418.3" y2="-568.18" gradientTransform="matrix(0.96, 0.27, -0.27, 0.96, -1483.95, 181.11)" xlink:href="#linear-gradient-5"/><linearGradient id="linear-gradient-92" x1="1418.86" y1="-568.74" x2="1420.49" y2="-568.74" gradientTransform="matrix(0.96, 0.27, -0.27, 0.96, -1483.95, 181.11)" xlink:href="#linear-gradient-5"/><linearGradient id="linear-gradient-93" x1="1420.32" y1="-569.01" x2="1422.66" y2="-569.29" gradientTransform="matrix(0.96, 0.27, -0.27, 0.96, -1483.95, 181.11)" xlink:href="#linear-gradient-5"/><linearGradient id="linear-gradient-94" x1="1422.04" y1="-569.27" x2="1424.92" y2="-569.27" gradientTransform="matrix(0.96, 0.27, -0.27, 0.96, -1483.95, 181.11)" xlink:href="#linear-gradient-5"/><linearGradient id="linear-gradient-95" x1="1423.75" y1="-569.33" x2="1427.92" y2="-568.22" gradientTransform="matrix(0.96, 0.27, -0.27, 0.96, -1483.95, 181.11)" xlink:href="#linear-gradient-5"/><linearGradient id="linear-gradient-96" x1="1423.39" y1="-567.99" x2="1427.56" y2="-566.87" gradientTransform="matrix(0.96, 0.27, -0.27, 0.96, -1483.95, 181.11)" xlink:href="#linear-gradient-19"/><linearGradient id="linear-gradient-97" x1="1427.25" y1="-567.84" x2="1429.97" y2="-567.84" gradientTransform="matrix(0.96, 0.27, -0.27, 0.96, -1483.95, 181.11)" xlink:href="#linear-gradient-5"/><linearGradient id="linear-gradient-98" x1="1409.73" y1="-570.26" x2="1411.89" y2="-568.62" xlink:href="#linear-gradient-39"/><linearGradient id="linear-gradient-99" x1="1412.66" y1="-571.91" x2="1411.58" y2="-570.04" gradientTransform="matrix(0.96, 0.27, -0.27, 0.96, -1483.95, 181.11)" xlink:href="#linear-gradient-5"/></defs><title>bug-two</title><g class="cls-1"><g id="Layer_1" data-name="Layer 1"><path class="cls-2" d="M24.2,10.4c-.7-.9-1.2.4-1.3,1s1.5.2,1.7.6S24.2,10.4,24.2,10.4Z"/><path class="cls-3" d="M23.3,10.4a1.3,1.3,0,0,0,1.3.8,3.1,3.1,0,0,0-.4-.8C23.8,9.9,23.5,10.1,23.3,10.4Z"/><path class="cls-4" d="M20.4,12.3s1,.2.5,1.1-.2.8.8.1a4,4,0,0,0,1.5.1,4.5,4.5,0,0,0,1.2-.9.6.6,0,0,0,.2-.6c-.1-.4-.5-1-1.9-.7A7,7,0,0,0,20.4,12.3Z"/><path class="cls-5" d="M21,13v.3s-.2.8.8.1a4,4,0,0,0,1.5.1,4.5,4.5,0,0,0,1.2-.9.6.6,0,0,0,.2-.4C23.7,11.7,22.1,12.4,21,13Z"/><path class="cls-6" d="M22.4,11.7a2.8,2.8,0,0,1,2.1.1c-.2-.4-.6-.7-1.9-.5a7,7,0,0,0-2.3.9h.1Z"/><path class="cls-6" d="M6.5,19.6a.5.5,0,0,1,0-.2l.3-.6.5-.8h0v-.2h.1V18h0l-.4.7-.3.6v.2h0v-.2l.3-.7v-.3l-.3.4-.3.6a.5.5,0,0,0,0,.2h0Z"/><path class="cls-7" d="M15.5,16.4H15c0,.1,0,.2,0,.2l-.5-.2c.2-.1,0-.5,0-.5a1.8,1.8,0,0,1,1-.2h0A.5.5,0,0,1,15.5,16.4Z"/><path class="cls-7" d="M13.1,16.1a2.6,2.6,0,0,1,1.4-.1c.1.1.1.2.1.3l-.7.2a.9.9,0,0,1-.6.1C13.4,16.5,13.1,16.1,13.1,16.1Z"/><path class="cls-7" d="M11.5,16.4a3.2,3.2,0,0,1,1.7-.2l.2.4a5.3,5.3,0,0,0-1.4.5C12,16.8,11.5,16.4,11.5,16.4Z"/><path class="cls-7" d="M10.1,16.8a5.6,5.6,0,0,1,1.5-.3,1.3,1.3,0,0,1,.3.5,7.3,7.3,0,0,0-1.4.7C10.7,17.4,10.1,16.8,10.1,16.8Z"/><path class="cls-7" d="M10.3,17H8.6c-.2,0-.9.2-1.1.4s.2.8,0,.9l1.1-.5,1.5-.4h.5Z"/><path class="cls-7" d="M6.4,20.1h0a1.4,1.4,0,0,1,.7-2h.4a2.2,2.2,0,0,0-.1-.7C6.2,17.8,5.5,19.2,6.4,20.1Z"/><path class="cls-8" d="M14.5,16h0a1.8,1.8,0,0,1,1-.2h-.9Z"/><path class="cls-9" d="M13.3,16.1h-.2a2.6,2.6,0,0,1,1.4-.1H13.3Z"/><path class="cls-10" d="M12.3,16.3l-.7.2h-.1a3.2,3.2,0,0,1,1.7-.2h-.8Z"/><path class="cls-11" d="M10.3,16.9v-.2a5.6,5.6,0,0,1,1.5-.3h.1Z"/><path class="cls-12" d="M14.5,16h.1c.1.1.1.2.1.3h0C14.6,16.3,14.5,16.1,14.5,16Z"/><path class="cls-12" d="M13.1,16.2h.1l.2.4h0Z"/><path class="cls-12" d="M11.6,16.5a1.3,1.3,0,0,1,.3.5h-.1a1.4,1.4,0,0,0-.4-.5Z"/><path class="cls-6" d="M6.6,18.4a1,1,0,0,1,1.2-.3.9.9,0,0,1-.7,0A1.4,1.4,0,0,0,6.4,20h0A1.2,1.2,0,0,1,6.6,18.4Z"/><path class="cls-6" d="M14.8,16.4H15c0,.1,0,.2,0,.2l-.4-.2Z"/><path class="cls-6" d="M13.9,16.4h.7l-.7.2a.9.9,0,0,1-.6.1h0Z"/><path class="cls-6" d="M12.9,16.6h.4a5.3,5.3,0,0,0-1.4.5.2.2,0,0,0,0-.1Z"/><path class="cls-6" d="M10.6,17.5a3.4,3.4,0,0,1,1.3-.7h0a7.3,7.3,0,0,0-1.4.7Z"/><path class="cls-12" d="M15.4,16.4a.5.5,0,0,0,0-.5h.1a.5.5,0,0,1,0,.5Z"/><path class="cls-13" d="M6.3,20c-.6-.9,0-2.2,1.2-2.6h0C6.2,17.8,5.5,19.1,6.3,20Z"/><path class="cls-12" d="M7.4,17.4a2.1,2.1,0,0,1,.1.7h.1a2,2,0,0,0-.1-.7Z"/><path class="cls-14" d="M8.7,17H8.6c-.2,0-.9.2-1.1.4v.2l1.4-.4H8.7Z"/><path class="cls-6" d="M10.5,17.3l-1.3.2a5.1,5.1,0,0,0-1.6.6v.2l1.1-.5,1.5-.4h.4Z"/><path class="cls-12" d="M10.3,17h-.1l.2.4h.1Z"/><path class="cls-7" d="M20.5,12.2c-1,.6-4.3,3.1-5.3,3.3s1,.7-.6,1.6c0,0,.7.2,1.9-1.1l4.3-2.6.4-.2A.7.7,0,0,0,20.5,12.2Z"/><path class="cls-6" d="M19.8,13.8l-.5.5,1.4-.8.4-.2v-.2A1.9,1.9,0,0,0,19.8,13.8Z"/><path class="cls-15" d="M20.7,12.3h-.2c-1,.6-4.3,3.1-5.3,3.3h.1C16.5,15.1,19.7,13.4,20.7,12.3Z"/><path class="cls-16" d="M21.2,13.3h0a1,1,0,0,0-.1-.8.9.9,0,0,0-.6-.4h.1l.3.2a.7.7,0,0,1,.1.6h.2Z"/><path class="cls-16" d="M22.9,11.2h0c1.1-.1,1.5.2,1.7.6h.1C24.5,11.4,24,11.1,22.9,11.2Z"/><path class="cls-17" d="M33.5,12.2a.4.4,0,0,1-.1-.6c.4-.5,1.5-1.5,2.4-.9s1.4.8,0,1.5A2.4,2.4,0,0,1,33.5,12.2Z"/><path class="cls-7" d="M40.4,13.6c-1.1-.2-2.7-2.5-3.4-2.8h-.3c-.8-.7-1,.4-1,.4h.2a2.1,2.1,0,0,0,.5.6l.6.2,2.2,2c1.2,1.2,1.9,1.1,1.9,1.1C39.4,14.4,40.4,13.6,40.4,13.6Z"/><path class="cls-7" d="M40.2,14.5h.5c0,.1,0,.2,0,.2l.4-.3c-.2-.1,0-.5,0-.5s-.9,0-.9,0h0A.6.6,0,0,0,40.2,14.5Z"/><path class="cls-7" d="M42.4,13.8c-.4-.2-1.3.1-1.3.1s-.1.3-.1.4h.6a.7.7,0,0,0,.6,0C42.2,14.4,42.4,13.8,42.4,13.8Z"/><path class="cls-7" d="M43.9,13.9c-.4-.3-1.3,0-1.6,0l-.2.5a3.8,3.8,0,0,1,1.3.3C43.4,14.5,43.9,13.9,43.9,13.9Z"/><path class="cls-7" d="M45.2,14.1a3.9,3.9,0,0,0-1.3-.1,1.8,1.8,0,0,0-.3.6,5,5,0,0,1,1.3.6C44.6,15,45.2,14.1,45.2,14.1Z"/><path class="cls-7" d="M47.5,15.5c-.1-.3-.6-.6-.8-.7h-.1a4.3,4.3,0,0,1-1.5-.5l-.2.4.4.2a3.7,3.7,0,0,1,1.2.8l.8.9C47.1,16.3,47.5,15.5,47.5,15.5Z"/><path class="cls-7" d="M47.5,15.6a2.7,2.7,0,0,0-.3.7c.4.1.7-.3.7-.3s1.3.4,1.4,1.1h0C49.7,15.8,48.7,15,47.5,15.6Z"/><path class="cls-6" d="M37,12.1l2.2,2a3.5,3.5,0,0,0,1.6,1A15.9,15.9,0,0,1,38,12.5a1.9,1.9,0,0,0-1.7-.7h.1Z"/><path class="cls-18" d="M40.4,13.6c-1.1-.2-2.7-2.5-3.4-2.8h-.1a11.5,11.5,0,0,0,3.4,2.9Z"/><path class="cls-19" d="M41.1,13.9h0c-.3-.2-.9,0-.9,0h.9Z"/><path class="cls-20" d="M42.2,13.9h.2c-.4-.2-1.3.1-1.3.1h1.1Z"/><path class="cls-21" d="M43.2,14h.8c-.4-.3-1.3,0-1.6,0h.8Z"/><path class="cls-22" d="M45,14.3v-.2a3.9,3.9,0,0,0-1.3-.1h-.1Z"/><path class="cls-12" d="M41.1,14h-.1c0,.1-.1.3-.1.4h0A.6.6,0,0,1,41.1,14Z"/><path class="cls-12" d="M42.4,13.9h-.1l-.2.5h0Z"/><path class="cls-12" d="M43.8,14a1.8,1.8,0,0,0-.3.6h.1a1.9,1.9,0,0,1,.3-.6Z"/><path class="cls-23" d="M46.3,14.9l1.1.8v-.2c-.1-.3-.6-.6-.8-.7h-.1a4.3,4.3,0,0,1-1.5-.5v.2Z"/><path class="cls-24" d="M47.2,16.6h0Z"/><path class="cls-12" d="M45.1,14.3l-.2.4h.1l.2-.4Z"/><path class="cls-25" d="M49.3,17c.3-1.2-.6-2-1.8-1.4h0A1.3,1.3,0,0,1,49.3,17Z"/><path class="cls-6" d="M48.5,15.8a1,1,0,0,0-1.1.5,1,1,0,0,0,.5-.4A1.1,1.1,0,0,1,49.3,17h0A1,1,0,0,0,48.5,15.8Z"/><path class="cls-12" d="M47.2,16.3h.1a4.3,4.3,0,0,1,.3-.8h-.1A2.7,2.7,0,0,0,47.2,16.3Z"/><path class="cls-6" d="M40.9,14.4h-.2c0,.1,0,.2,0,.2l.4-.2Z"/><path class="cls-6" d="M41.7,14.3h0a.7.7,0,0,0,.6,0h-.5Z"/><path class="cls-6" d="M42.6,14.3h-.4a3.8,3.8,0,0,1,1.3.3.3.3,0,0,1,0-.2Z"/><path class="cls-6" d="M44.8,15a2.5,2.5,0,0,0-1.2-.6h0a5,5,0,0,1,1.3.6A.3.3,0,0,1,44.8,15Z"/><path class="cls-6" d="M47.2,16.6a.4.4,0,0,1,0-.3,4.2,4.2,0,0,0-1.2-1.1l-1.1-.6h-.1l.4.2a3.7,3.7,0,0,1,1.2.8Z"/><path class="cls-6" d="M48.8,17.1v-.2l-.5-.3-.7-.3h0l.6.3.5.3h.1V17l-.5-.4h.1l.5.3v.2h0A.2.2,0,0,0,48.8,17.1Z"/><path class="cls-12" d="M40.3,14.5a.6.6,0,0,1,0-.6h-.1a.6.6,0,0,0,0,.6Z"/><path class="cls-26" d="M33.7,12.2c.4-.5,1.5-1.5,2.4-.9l.3.3c0-.4-.6-.8-.6-.8s-1.9.4-2.4.9a.4.4,0,0,0,.1.6h.2Z"/><path class="cls-12" d="M36,10.7h-.1c.2.1.8.6.4,1h.1C37,11.3,36,10.7,36,10.7Z"/><path class="cls-27" d="M37,10.8h-.2a.7.7,0,0,0-.8-.2c.1,0,.3,0,.6.2H37Z"/><path class="cls-28" d="M28.5,10.6s-1.7,1.2-.4,2.4a1.1,1.1,0,0,0,.9.3.8.8,0,0,0,.5-.3.8.8,0,0,0,.1-.6.8.8,0,0,0-.2-.4v-.2a2.6,2.6,0,0,1-.6-.7h-.3Z"/><path class="cls-29" d="M33.3,13.5c-1.1-.2-2.5-2.6-3.3-3h-.3c-.8-.7-1,.3-1,.3h.2a2.1,2.1,0,0,0,.5.6l.6.3L32,13.9c1.2,1.3,1.9,1.2,1.9,1.2C32.3,14.2,33.3,13.5,33.3,13.5Z"/><path class="cls-30" d="M33,14.3h.5c0,.1,0,.2,0,.2l.5-.3c-.2-.1.1-.5.1-.5s-.9-.1-.9-.1h0A.6.6,0,0,0,33,14.3Z"/><path class="cls-31" d="M35.3,13.8c-.4-.3-1.3.1-1.3.1s-.1.3-.1.4h.6a.7.7,0,0,0,.6,0C35,14.3,35.3,13.8,35.3,13.8Z"/><path class="cls-32" d="M36.8,13.9c-.4-.3-1.3-.1-1.6,0l-.2.5a3.8,3.8,0,0,1,1.3.4C36.3,14.5,36.8,13.9,36.8,13.9Z"/><path class="cls-33" d="M38,14.2a3.9,3.9,0,0,0-1.3-.2,1.8,1.8,0,0,0-.3.6,5,5,0,0,1,1.3.7C37.4,15.1,38,14.2,38,14.2Z"/><path class="cls-34" d="M40.3,15.8c0-.3-.6-.7-.8-.8h-.1a4.3,4.3,0,0,1-1.5-.5l-.2.4.4.2a3.7,3.7,0,0,1,1.1.9l.8.9C39.8,16.5,40.3,15.8,40.3,15.8Z"/><path class="cls-35" d="M40.2,15.8a2.7,2.7,0,0,0-.3.7c.4.1.7-.3.7-.3s1.3.4,1.3,1.2h0C42.4,16.2,41.5,15.3,40.2,15.8Z"/><path class="cls-6" d="M30,11.8,32,13.9a3.5,3.5,0,0,0,1.5,1.1,15.9,15.9,0,0,1-2.6-2.8,1.9,1.9,0,0,0-1.6-.8h.1Z"/><path class="cls-36" d="M33.3,13.5c-1.1-.2-2.5-2.6-3.3-3h-.1a11.5,11.5,0,0,0,3.2,3.1Z"/><path class="cls-37" d="M34,13.9h0c-.3-.2-.9-.1-.9-.1H34Z"/><path class="cls-38" d="M35.1,13.9h.2c-.4-.3-1.3.1-1.3.1h1.1Z"/><path class="cls-39" d="M36,14h.8c-.4-.3-1.3-.1-1.6,0H36Z"/><path class="cls-40" d="M37.9,14.4v-.2a3.9,3.9,0,0,0-1.3-.2h-.1Z"/><path class="cls-41" d="M34,13.9h-.1c-.1.1-.1.3-.1.4h0A.6.6,0,0,1,34,13.9Z"/><path class="cls-41" d="M35.3,13.9h-.1l-.2.5h0Z"/><path class="cls-41" d="M36.7,14.1a1.8,1.8,0,0,0-.3.6h.1a1.9,1.9,0,0,1,.4-.6Z"/><path class="cls-42" d="M39.1,15.1a4,4,0,0,1,1,.9v-.2c0-.3-.6-.7-.8-.8h-.1a4.3,4.3,0,0,1-1.5-.5v.2Z"/><path class="cls-43" d="M39.9,16.8h0Z"/><path class="cls-41" d="M37.9,14.4l-.2.4h.1l.2-.4Z"/><path class="cls-44" d="M42,17.4c.4-1.2-.5-2-1.8-1.5h-.1A1.3,1.3,0,0,1,42,17.4Z"/><path class="cls-6" d="M41.2,16.1a1,1,0,0,0-1.1.4,1,1,0,0,0,.5-.3,1.1,1.1,0,0,1,1.3,1.1h0A1,1,0,0,0,41.2,16.1Z"/><path class="cls-41" d="M39.9,16.5H40a4.3,4.3,0,0,1,.3-.7h-.1A2.7,2.7,0,0,0,39.9,16.5Z"/><path class="cls-6" d="M33.7,14.3h-.2c0,.1,0,.2,0,.2l.4-.2Z"/><path class="cls-6" d="M34.5,14.3h0a.7.7,0,0,0,.6,0h-.5Z"/><path class="cls-6" d="M35.5,14.3H35a3.8,3.8,0,0,1,1.3.4.3.3,0,0,1,0-.2Z"/><path class="cls-6" d="M37.6,15.1a2.5,2.5,0,0,0-1.2-.6h0a5,5,0,0,1,1.3.7A.3.3,0,0,1,37.6,15.1Z"/><path class="cls-6" d="M39.9,16.8a.4.4,0,0,1,0-.3,4.2,4.2,0,0,0-1.1-1.2l-1.1-.7h-.1l.4.2a3.7,3.7,0,0,1,1.1.9Z"/><path class="cls-41" d="M33.1,14.3a.6.6,0,0,1,.1-.6h-.1a.6.6,0,0,0,0,.6Z"/><path class="cls-6" d="M29.6,12.3a.8.8,0,0,0-.2-.4v-.2h-.1a.5.5,0,0,0,0,.4v.3a.8.8,0,0,1-.1.6.8.8,0,0,1-.5.3,1.1,1.1,0,0,1-.9-.3h-.1l.3.3a1.1,1.1,0,0,0,.8.3.8.8,0,0,0,.6-.4A.8.8,0,0,0,29.6,12.3Z"/><path class="cls-45" d="M29.4,11.8h0a2.6,2.6,0,0,1-.6-.7h-.3l-.2-.2s-1.4,1-.7,2A1.3,1.3,0,0,1,29.4,11.8Z"/><path class="cls-41" d="M29,10.8h-.1a2.1,2.1,0,0,0,.5.6h.2A2.6,2.6,0,0,1,29,10.8Z"/><path class="cls-46" d="M45.4,13.1c-5.7-2.2-12.9-.5-16.6-2a3,3,0,0,1-1.4-1.2,5.3,5.3,0,0,1-.6-3.7V5.9h0a2,2,0,0,1-1.1,0,6.3,6.3,0,0,0,.1,2.3,6.7,6.7,0,0,1-1.7,3l-.3,1.2s2.1,1.3,2.9,1,1.3,2.9,3.6,2c0,0,5.9.8,8.1-.2a3.3,3.3,0,0,0,1.5.1,2.5,2.5,0,0,0,1.2.2,2.5,2.5,0,0,0,1.5.1,3,3,0,0,0,1.6.1l.5-.2A4,4,0,0,0,45.4,13.1Z"/><path class="cls-47" d="M33.9,13.2s8.5-.2,11.3,1.2a3.5,3.5,0,0,0,.2-1.3c-5.7-2.2-12.9-.5-16.6-2a3,3,0,0,1-1.4-1.2L27,9C27,10.6,28,13.3,33.9,13.2Z"/><path class="cls-48" d="M44.1,15.8l.5-.2a4,4,0,0,0,.8-2.5h-.1l-1,.6-.2.2a10.7,10.7,0,0,0-.6,2Z"/><path class="cls-49" d="M45.4,13.1h-.1l-.9.5a3.8,3.8,0,0,0-.9-1.1h-.2a3.9,3.9,0,0,1,1,1.2l-.2.2a10.7,10.7,0,0,0-.6,2h.1a10.8,10.8,0,0,1,.6-2l.2-.2,1-.6h0Z"/><path class="cls-50" d="M44.3,13.6a3.9,3.9,0,0,0-1-1.2h0a3.9,3.9,0,0,1,1,1.2l-.2.2a10.7,10.7,0,0,0-.6,2h0a10.7,10.7,0,0,1,.6-2Z"/><path class="cls-51" d="M45.5,13.1c-5.7-2.3-13-.5-16.7-2a3,3,0,0,1-1.4-1.2,5.3,5.3,0,0,1-.6-3.7,1.1,1.1,0,0,1,.4-.7c3.3-2.6,17,1.7,18,4.3A7.6,7.6,0,0,1,45.5,13.1Z"/><path class="cls-52" d="M45.4,12.9c-5.5-2.1-12.9-.5-16.6-2.1a3,3,0,0,1-1.4-1.2,4.6,4.6,0,0,1-.7-2.4,4.7,4.7,0,0,0,.7,2.6A3,3,0,0,0,28.8,11c3.7,1.5,11-.2,16.7,2C45.5,13,45.5,13,45.4,12.9Z"/><path class="cls-53" d="M27.3,13a1.4,1.4,0,0,0-.9-1l-1.9-.6h-.2l-1.8.8s3.5,1.5,4.3,1.3a4.9,4.9,0,0,0,1,1.5Z"/><path class="cls-54" d="M27.8,14.9,27.3,13a1.4,1.4,0,0,0-.8-.9l.3,1.4A4.9,4.9,0,0,0,27.8,14.9Z"/><g class="cls-55"><path class="cls-56" d="M27.6,7.3A26.9,26.9,0,0,1,42.5,8.9a15.3,15.3,0,0,1,2.9,1.6l-.2-.8a3,3,0,0,0-1.2-1.2L41.2,7.4A22.1,22.1,0,0,0,27.6,7.3Z"/><path class="cls-57" d="M31.2,9.3c4.8-1,10.3.7,14.3,3.1a7.8,7.8,0,0,0,0-1A16.4,16.4,0,0,0,31.2,9.3Z"/></g><g class="cls-55"><path class="cls-58" d="M43.9,9.9h0Z"/><path class="cls-58" d="M43.1,10.1h0Z"/><path class="cls-58" d="M42.2,9.5h0Z"/><path class="cls-58" d="M42.1,9.2h0Z"/><path class="cls-58" d="M43.8,10.4h0Z"/><path class="cls-58" d="M43,11.6h0Z"/><path class="cls-58" d="M44,10.2h0Z"/><path class="cls-58" d="M44.1,10.2h0Z"/><path class="cls-58" d="M44,9.8h0Z"/><path class="cls-58" d="M44.3,10h0Z"/><path class="cls-58" d="M44.2,10.4h0Z"/><path class="cls-58" d="M44.1,10.6h0Z"/><path class="cls-58" d="M45.1,10.8h0Z"/><path class="cls-58" d="M44.3,9.8h0Z"/><path class="cls-58" d="M43.8,11.9h0Z"/><path class="cls-58" d="M44.5,12.1h0Z"/><path class="cls-58" d="M44.2,9.5h0Z"/><path class="cls-58" d="M44.2,9.4h0Z"/><path class="cls-58" d="M44.2,9.4h0S44.2,9.5,44.2,9.4Z"/><path class="cls-58" d="M43.2,9.2h0s0,0,0-.1Z"/><path class="cls-58" d="M39,8.9h0S39,8.9,39,8.9Z"/><path class="cls-58" d="M43.7,9.4h0A0,0,0,0,0,43.7,9.4Z"/><path class="cls-58" d="M44.2,9s0-.1,0-.1h0Z"/><path class="cls-58" d="M43.8,10.9h0S43.8,10.9,43.8,10.9Z"/><path class="cls-58" d="M43.4,8.6h0S43.5,8.6,43.4,8.6Z"/><path class="cls-58" d="M43.5,9h0S43.5,9,43.5,9Z"/><path class="cls-58" d="M40.1,8.4h0S40.1,8.4,40.1,8.4Z"/><path class="cls-58" d="M44.7,9.5h0Z"/><path class="cls-58" d="M44.1,11.8h0Z"/><path class="cls-58" d="M44.7,11.1h0Z"/><path class="cls-58" d="M44,11.3h0Z"/><path class="cls-58" d="M44.3,11h0Z"/><path class="cls-58" d="M44.6,11.5h0Z"/><path class="cls-58" d="M43.8,11.1s.1,0,0,.1.1,0,0-.1Z"/><path class="cls-58" d="M44,11.6h-.1s-.1,0,0,.1Z"/><path class="cls-58" d="M44.1,11.6s-.1,0,0,.1h0Z"/><path class="cls-58" d="M43.9,12.2s-.1,0,0,.1h0Z"/><path class="cls-58" d="M44.7,11.5s-.1,0,0,.1h0Z"/><path class="cls-58" d="M44.9,11.2s-.1,0,0,.1h0Z"/><path class="cls-58" d="M41.9,11.4h0Z"/><path class="cls-58" d="M42.1,11.2h0Z"/><path class="cls-58" d="M39.8,10.7h0Z"/><path class="cls-58" d="M41.9,11s.1,0,0,.1.1,0,0-.1Z"/><path class="cls-58" d="M39,11s.1,0,0,.1.1,0,0-.1Z"/><path class="cls-58" d="M42,11.4h-.1s-.1,0,0,.1Z"/><path class="cls-58" d="M40.8,11.2h-.1s-.1,0,0,.1h0Z"/><path class="cls-58" d="M42.2,11.5s-.1,0,0,.1h0Z"/><path class="cls-58" d="M44.1,12.1h0Z"/><path class="cls-58" d="M43.9,9.7a.1.1,0,0,0,0-.1h-.1a0,0,0,0,0,0,0Z"/><path class="cls-58" d="M44,8.8a0,0,0,0,0,0,0h.1a.1.1,0,0,0,0-.1Z"/><path class="cls-58" d="M41.2,9.6h.1a.1.1,0,0,0,0-.1h-.1A0,0,0,0,0,41.2,9.6Z"/><path class="cls-58" d="M43.4,9.2a0,0,0,0,0,0,0h.1a.1.1,0,0,0,0-.1Z"/><path class="cls-58" d="M43.1,8.9H43a0,0,0,0,0,0,0h.1A.1.1,0,0,0,43.1,8.9Z"/><path class="cls-58" d="M42.5,9.1a.1.1,0,0,0,0-.1h-.1a0,0,0,0,0,0,0Z"/><path class="cls-58" d="M43.9,9.6h0Z"/><path class="cls-58" d="M43.7,10.1h0Z"/><path class="cls-58" d="M43.7,10.1h0Z"/><path class="cls-58" d="M43.7,10h0Z"/><path class="cls-58" d="M43.9,9.4h0Z"/><path class="cls-58" d="M43.5,11h0Z"/><path class="cls-58" d="M43.1,10.9h0Z"/><path class="cls-58" d="M43.9,9.1h0s0,0,0,0Z"/><path class="cls-58" d="M43.9,9.2h0Z"/><path class="cls-58" d="M38.7,8.6h0S38.7,8.6,38.7,8.6Z"/><path class="cls-58" d="M38.7,8.6h0Z"/><path class="cls-58" d="M42.7,8.8h0Z"/><path class="cls-58" d="M39.5,7.7h0Z"/><path class="cls-58" d="M39.2,8.3h0Z"/><path class="cls-58" d="M41.8,9.3h0Z"/><path class="cls-58" d="M38.8,9.6h0Z"/><path class="cls-58" d="M44.2,9.2h0Z"/><path class="cls-58" d="M43.8,8.9h0Z"/><path class="cls-58" d="M42.6,8.5h0Z"/><path class="cls-58" d="M43.4,8.6h0Z"/><path class="cls-58" d="M43.9,10.1h-.1s0,0,0,.1h.1S44,10.1,43.9,10.1Z"/><path class="cls-58" d="M40.5,9.7h0Z"/><path class="cls-58" d="M40.6,9.5h0Z"/><path class="cls-58" d="M40.6,9.4h0Z"/><path class="cls-58" d="M40.6,9.5h0S40.6,9.5,40.6,9.5Z"/><path class="cls-58" d="M39.8,7.9h0S39.8,7.9,39.8,7.9Z"/><path class="cls-58" d="M40.2,9.4h0A0,0,0,0,0,40.2,9.4Z"/><path class="cls-58" d="M38.8,10.4h0A0,0,0,0,0,38.8,10.4Z"/><path class="cls-58" d="M40.4,9.6h0a0,0,0,0,0,0,0h0A0,0,0,0,0,40.4,9.6Z"/><path class="cls-58" d="M39.4,10.3h0a0,0,0,0,0,0,0h0A0,0,0,0,0,39.4,10.3Z"/><path class="cls-58" d="M40.4,9.6h0Z"/><path class="cls-58" d="M39.8,8.3h0Z"/><path class="cls-58" d="M41,8.7h0Z"/><path class="cls-58" d="M40.3,8.8h0Z"/><path class="cls-58" d="M39.6,8.8h0Z"/><path class="cls-58" d="M40.2,9.7s0,0,0,0h0s0,0,0,0Z"/><path class="cls-58" d="M42.6,10.7s0,0,0,.1h.1s.1,0,0-.1Z"/><path class="cls-58" d="M43.5,9.9s0,0,0,.1h0Z"/><path class="cls-58" d="M43.3,10.2h-.1s0,0,0,.1Z"/><path class="cls-58" d="M43,10.7s0,0,0,.1h0Z"/><path class="cls-58" d="M41.8,8.8h0C41.8,8.8,41.8,8.8,41.8,8.8Z"/><path class="cls-58" d="M42,9.9h0c-.1,0,0,0,0,.1h0Z"/><path class="cls-58" d="M42.8,9.5h0C42.7,9.4,42.8,9.5,42.8,9.5Z"/><path class="cls-58" d="M41.6,10.4h-.1c-.1,0,0,0,0,.1Z"/><path class="cls-58" d="M42.8,9.9h-.1c-.1,0,0,0,0,.1Z"/><path class="cls-58" d="M42.5,9.6h0c-.1,0,0,0,0,.1h0Z"/><path class="cls-58" d="M41.5,10h-.1c-.1,0,0,0,0,.1Z"/><path class="cls-58" d="M40.9,10c-.1,0,0,0,0,.1h0Z"/><path class="cls-58" d="M40.5,10.7c-.1,0,0,0,0,.1h0Z"/><path class="cls-58" d="M39.7,9.8h-.1c-.1,0,0,0,0,0Z"/><path class="cls-58" d="M43.5,9.6h-.1s0,.1,0,.1Z"/><path class="cls-58" d="M41.3,8.8h0S41.4,8.8,41.3,8.8Z"/><path class="cls-58" d="M41.1,8.3H41s0,.1,0,.1Z"/><path class="cls-58" d="M42.6,10.4h0Z"/><path class="cls-58" d="M42.7,10.2h0Z"/><path class="cls-58" d="M42.6,10.1a0,0,0,0,0,0,0h.1a.1.1,0,0,0,0-.1Z"/><path class="cls-58" d="M42.4,10.6h0Z"/><path class="cls-58" d="M42.4,10.5h0Z"/><path class="cls-58" d="M39.5,9.1h0Z"/><path class="cls-58" d="M39.1,7.9h0Z"/><path class="cls-58" d="M37.7,7.4h0S37.7,7.5,37.7,7.4Z"/><path class="cls-58" d="M38.8,6.9h0S38.8,6.9,38.8,6.9Z"/><path class="cls-58" d="M38.5,9.2h0Z"/><path class="cls-58" d="M37.4,7.1h0S37.4,7.1,37.4,7.1Z"/><path class="cls-58" d="M37.4,7.1h0Z"/><path class="cls-58" d="M38.2,6.2h0Z"/><path class="cls-58" d="M37.9,6.8h0Z"/><path class="cls-58" d="M37.5,8.1h0Z"/><path class="cls-58" d="M38.6,6.4h0S38.6,6.5,38.6,6.4Z"/><path class="cls-58" d="M38.9,7.9h0A0,0,0,0,0,38.9,7.9Z"/><path class="cls-58" d="M37.6,8.9h0A0,0,0,0,0,37.6,8.9Z"/><path class="cls-58" d="M38.1,8.8h0a0,0,0,0,0,0,0h0A0,0,0,0,0,38.1,8.8Z"/><path class="cls-58" d="M38.5,6.8h0Z"/><path class="cls-58" d="M39,7.4h0Z"/><path class="cls-58" d="M38.3,7.3h0Z"/><path class="cls-58" d="M39,8.2s0,0,0,0h0s0,0,0,0Z"/><path class="cls-58" d="M38.4,8.3h-.1c-.1,0,0,0,0,0Z"/><path class="cls-58" d="M37.3,11.2h0Z"/><path class="cls-58" d="M36.2,10.1h0Z"/><path class="cls-58" d="M36.3,10.9h0A0,0,0,0,0,36.3,10.9Z"/><path class="cls-58" d="M36.8,10.8h0a0,0,0,0,0,0,0h0A0,0,0,0,0,36.8,10.8Z"/><path class="cls-58" d="M37.1,10.3H37c-.1,0,0,0,0,0Z"/><path class="cls-58" d="M38.2,7.6h0Z"/><path class="cls-58" d="M37.8,6.4h0Z"/><path class="cls-58" d="M42.4,10.5h0Z"/><path class="cls-58" d="M42.6,10.2h-.1s0,0,0,.1h.1S42.6,10.2,42.6,10.2Z"/><path class="cls-58" d="M43.2,9.7h0Z"/><path class="cls-58" d="M43.1,9.5h-.1a0,0,0,0,0,0,0h.1A.1.1,0,0,0,43.1,9.5Z"/><path class="cls-58" d="M42.2,8.5h.1a.1.1,0,0,0,0-.1h-.1A0,0,0,0,0,42.2,8.5Z"/><path class="cls-58" d="M42.9,9.1h-.1a0,0,0,0,0,0,0h.1A.1.1,0,0,0,42.9,9.1Z"/><path class="cls-58" d="M39.9,11.3a0,0,0,0,0,0,0H40a.1.1,0,0,0,0-.1Z"/><path class="cls-58" d="M42.9,9.7H43s.1,0,0-.1h-.1S42.9,9.7,42.9,9.7Z"/><path class="cls-58" d="M42.2,10.3s0,0,0,.1h0Z"/><path class="cls-58" d="M40.8,10.8c-.1,0,0,0,0,.1h0Z"/><path class="cls-58" d="M41.6,10.3h-.1c-.1,0,0,0,0,.1Z"/><path class="cls-58" d="M39.2,9.9h0Z"/><path class="cls-58" d="M39.1,9.6h0Z"/><path class="cls-58" d="M38.2,10h.1a.1.1,0,0,0,0-.1h-.1A0,0,0,0,0,38.2,10Z"/><path class="cls-58" d="M38.8,9.7h0Z"/><path class="cls-58" d="M39.1,10.3h0c-.1,0,0,0,0,.1h0Z"/><path class="cls-58" d="M38.7,10.9h-.1c-.1,0,0,0,0,.1Z"/><path class="cls-58" d="M38.6,10.4h-.1c-.1,0,0,0,0,.1Z"/><path class="cls-58" d="M37.9,10.4c-.1,0,0,0,0,.1h0Z"/><path class="cls-58" d="M39.3,10.7s0,0,0,.1h0Z"/><path class="cls-58" d="M38.6,10.8h-.1c-.1,0,0,0,0,.1Z"/><path class="cls-58" d="M40.3,10.1h0c-.1,0,0,0,0,0h0Z"/><path class="cls-58" d="M40.8,7.2h.1a.1.1,0,0,0,0-.1h-.1A0,0,0,0,0,40.8,7.2Z"/><path class="cls-58" d="M40.1,7.3h0Z"/><path class="cls-58" d="M40.2,7.1h0Z"/><path class="cls-58" d="M40.2,7h0Z"/><path class="cls-58" d="M40.2,7.1h0S40.2,7.1,40.2,7.1Z"/><path class="cls-58" d="M39.8,7h0A0,0,0,0,0,39.8,7Z"/><path class="cls-58" d="M40,7.2h0a0,0,0,0,0,0,0h0A0,0,0,0,0,40,7.2Z"/><path class="cls-58" d="M40,7.2h0Z"/><path class="cls-58" d="M40,7h0Z"/><path class="cls-58" d="M39.8,7.3s0,0,0,0h0s0,0,0,0Z"/><path class="cls-58" d="M41.2,8.1h-.1c-.1,0,0,0,0,.1Z"/><path class="cls-58" d="M41.1,7.6H41c-.1,0,0,0,0,.1Z"/><path class="cls-58" d="M40.5,7.6c-.1,0,0,0,0,.1h0Z"/><path class="cls-58" d="M41.2,7.9h-.1c-.1,0,0,0,0,.1Z"/><path class="cls-58" d="M39.9,7.7h0c-.1,0,0,0,0,0h0Z"/><path class="cls-58" d="M40.5,10.9h-.1s0,.1,0,.1h.1Z"/></g><path class="cls-59" d="M27.2,5.4a1.1,1.1,0,0,0-.4.7,7.6,7.6,0,0,0-.1,1.4c2.4.7,22.3,4.8,16.9.6C39.6,5.8,29.9,3.3,27.2,5.4Z"/><path class="cls-60" d="M26.2,8.3a6,6,0,0,1,0-2.4h-.3a6.3,6.3,0,0,0,.1,2.3,6.7,6.7,0,0,1-1.7,3v.5C25.5,10.9,26.2,8.3,26.2,8.3Z"/><path class="cls-61" d="M26.4,5.3c-.6-.5-1.4-.9-2-1.4L22.5,2.3a8,8,0,0,0-3.1-1.2l-.2.3c-.1.9,1,2.2,1,3.1a3.1,3.1,0,0,1-.3,1.2h-.1a3.3,3.3,0,0,1-1,1.2L17.4,9.3c-.4.7-.6,1.4-1.4,1.6a2.2,2.2,0,0,1-1.2,0l-1-1a12.3,12.3,0,0,1-2.6-8,4.7,4.7,0,0,0,0-1.6V.1a.5.5,0,0,0-.6.1,1.2,1.2,0,0,0-.3.6,13.6,13.6,0,0,0,0,6.5,19.1,19.1,0,0,0,1,3.2,11.3,11.3,0,0,0,1.3,2.6c.3.3.7.3,1,.6s-.2,2,.6,2.8a1.1,1.1,0,0,0,.9.3c.7-.1,1.2-.8,2-.9s1.5.2,1.5-.2a28.1,28.1,0,0,1,3.2-2.4c.7-.5,1.2-1.3,1.8-1.5s2.6-3.6,2.6-3.6-.4-2.1.4-2.9Z"/><path class="cls-62" d="M20.5,11.7c0-.5-.9-1.3-1.5-.8a.8.8,0,0,1,.5.8c.1.1-.1.7-.1.9S20.5,12.2,20.5,11.7Z"/><path class="cls-63" d="M22.9,5.9a1.4,1.4,0,0,1-.1.9.6.6,0,0,0,.3.8,2.6,2.6,0,0,0,1.5.3s.7-.1.6.5.3.4.6.4V8.2a5.7,5.7,0,0,1,0-2.4,3,3,0,0,0-2.6-.6A.6.6,0,0,0,22.9,5.9Z"/><path class="cls-64" d="M19.4,2.3l.2.6a3.6,3.6,0,0,0,1.4.4Z"/><path class="cls-65" d="M21.5,6.8a4.4,4.4,0,0,1-.6-1,.4.4,0,0,1,.2-.5h0a3.2,3.2,0,0,0-1.3-1.8,2.6,2.6,0,0,1,.2.9,3.1,3.1,0,0,1-.3,1.2h-.1a3.3,3.3,0,0,1-1,1.2L17.4,9.3a5.6,5.6,0,0,0,2-.2C21.6,8.4,21.5,6.8,21.5,6.8Z"/><path class="cls-66" d="M17,10.9c1.6,1.3,0,1.3,2,2.6l.4-1h0a2.6,2.6,0,0,0,.1-.6h0a.7.7,0,0,0,0-.1H16.8v.2Z"/><path class="cls-67" d="M26.3,5.3c-.1.1-.8,0-.4,2.8,0,0-.8,3.1-2.6,3.6s-.7.5-1,.9a3.1,3.1,0,0,1,1.1-.9c1.8-.5,2.6-3.6,2.6-3.6-.4-3,.3-2.7.4-2.9Z"/><path class="cls-68" d="M16.5,11.9s.6-1,.9-.9-.4-.4-.7-.6l-.5.9a1,1,0,0,1-.5.5L15,12Z"/><ellipse class="cls-69" cx="17.2" cy="12.1" rx="0.3" ry="0.2" transform="translate(-1.9 21.1) rotate(-60.4)"/><path class="cls-70" d="M17.2,11.9c.1.1.1.2,0,.4h.1c.1-.2.1-.3,0-.4h-.1Z"/><path class="cls-71" d="M23.2,12.4c-.9-1.1-1.5.5-1.7,1.2,1.4-.2,2,.3,2.2.7S23.2,12.4,23.2,12.4Z"/><path class="cls-72" d="M22.1,12.4a1.7,1.7,0,0,0,1.7,1,3.9,3.9,0,0,0-.6-1C22.8,11.9,22.4,12,22.1,12.4Z"/><path class="cls-73" d="M18.4,14.9s1.3.3.6,1.4-.2,1,1.1.2a5.1,5.1,0,0,0,1.9.2,5.7,5.7,0,0,0,1.6-1.2.8.8,0,0,0,.2-.7c-.1-.5-.6-1.2-2.5-.9A8.9,8.9,0,0,0,18.4,14.9Z"/><path class="cls-74" d="M19.2,15.9l-.2.4s-.2,1,1.1.2a5.1,5.1,0,0,0,1.9.2,5.7,5.7,0,0,0,1.6-1.2.8.8,0,0,0,.2-.5C22.6,14.1,20.6,15.1,19.2,15.9Z"/><path class="cls-6" d="M21,14.2a3.6,3.6,0,0,1,2.7.2c-.2-.5-.8-.9-2.4-.7a8.9,8.9,0,0,0-2.9,1.2h.2Z"/><path class="cls-6" d="M.7,24.3a.6.6,0,0,1,0-.3,3.4,3.4,0,0,1,.4-.8l.7-1h0V22H2v.2h0l-.5.9L1,24v.3h0V24l.3-.8.2-.4-.3.5L.8,24a.6.6,0,0,0,0,.3h0Z"/><path class="cls-7" d="M12.1,20.1h-.6c-.1.1,0,.2,0,.2l-.6-.2c.3-.1-.1-.6-.1-.6a2.4,2.4,0,0,1,1.2-.2h0A.6.6,0,0,1,12.1,20.1Z"/><path class="cls-7" d="M9.1,19.8a3.3,3.3,0,0,1,1.8-.1c.1.1.2.3.1.4l-.9.2a1.2,1.2,0,0,1-.8.1C9.4,20.3,9.1,19.8,9.1,19.8Z"/><path class="cls-7" d="M7,20.1a4,4,0,0,1,2.1-.2,1.6,1.6,0,0,1,.2.5,6.7,6.7,0,0,0-1.8.6C7.7,20.7,7,20.1,7,20.1Z"/><path class="cls-7" d="M5.3,20.6a7.1,7.1,0,0,1,1.9-.4,1.7,1.7,0,0,1,.4.6,9.4,9.4,0,0,0-1.8,1C6.1,21.5,5.3,20.6,5.3,20.6Z"/><path class="cls-7" d="M5.5,20.9H3.3c-.3.1-1.2.2-1.4.5s.3,1-.1,1.2L3.3,22a6.1,6.1,0,0,1,1.9-.5h.6Z"/><path class="cls-7" d="M.5,24.8h0a1.8,1.8,0,0,1,.9-2.5h.6a2.8,2.8,0,0,0-.1-.9C.2,21.9-.6,23.7.5,24.8Z"/><path class="cls-75" d="M10.9,19.7h0a2.4,2.4,0,0,1,1.2-.2H10.9Z"/><path class="cls-76" d="M9.4,19.8H9.1a3.3,3.3,0,0,1,1.8-.1H9.4Z"/><path class="cls-77" d="M8.1,20.1l-.9.2H7a4,4,0,0,1,2.1-.2H8.1Z"/><path class="cls-78" d="M5.5,20.8l-.2-.2a7.1,7.1,0,0,1,1.9-.4h.1Z"/><path class="cls-12" d="M10.8,19.7h.1c.1.1.2.3.1.4h0C11,20,10.9,19.8,10.8,19.7Z"/><path class="cls-12" d="M9.1,19.9h.1a1.6,1.6,0,0,1,.2.5H9.3A1.7,1.7,0,0,0,9.1,19.9Z"/><path class="cls-12" d="M7.2,20.2a1.7,1.7,0,0,1,.4.6H7.5a1.7,1.7,0,0,0-.4-.6Z"/><path class="cls-6" d="M.7,22.6a1.3,1.3,0,0,1,1.6-.4,1.2,1.2,0,0,1-.8,0,1.8,1.8,0,0,0-1,2.4h0A1.6,1.6,0,0,1,.7,22.6Z"/><path class="cls-6" d="M11.2,20.2l.9-.2h-.7c-.1.1,0,.2,0,.2l-.5-.2Z"/><path class="cls-6" d="M10.1,20.2,11,20h0l-.9.2a1.2,1.2,0,0,1-.8.1h0Z"/><path class="cls-6" d="M8.8,20.4h.6a6.7,6.7,0,0,0-1.8.6.2.2,0,0,0,0-.2Z"/><path class="cls-6" d="M5.9,21.6a4.4,4.4,0,0,1,1.6-.9h.1a9.4,9.4,0,0,0-1.8,1Z"/><path class="cls-12" d="M12,20.1a.6.6,0,0,0-.1-.7h.1a.6.6,0,0,1,0,.7Z"/><path class="cls-79" d="M.5,24.8C-.3,23.7.5,22,2,21.5H2C.3,21.9-.6,23.6.5,24.8Z"/><path class="cls-12" d="M1.8,21.5a2.7,2.7,0,0,1,.1.9H2a2.6,2.6,0,0,0-.1-.9Z"/><path class="cls-80" d="M3.5,20.9H3.3c-.3.1-1.2.2-1.4.5v.3l1.8-.5H5.7v-.2Z"/><path class="cls-6" d="M5.8,21.3l-1.7.2a6.5,6.5,0,0,0-2,.8v.3L3.3,22a6.1,6.1,0,0,1,1.9-.5h.5Z"/><path class="cls-12" d="M5.5,20.9H5.4l.3.5h.1Z"/><path class="cls-7" d="M18.6,14.8c-1.3.7-5.5,4-6.8,4.2s1.3,1-.8,2c0,0,.9.2,2.4-1.5l5.4-3.3.5-.2A.9.9,0,0,0,18.6,14.8Z"/><path class="cls-6" d="M17.6,16.8l-.6.6,1.8-1.1.5-.2v-.2A2.5,2.5,0,0,0,17.6,16.8Z"/><path class="cls-81" d="M18.8,14.9h-.2c-1.3.7-5.5,4-6.8,4.2l.2.2h0C13.5,18.4,17.5,16.3,18.8,14.9Z"/><path class="cls-16" d="M19.5,16.2h0a1.2,1.2,0,0,0-.1-1,1.1,1.1,0,0,0-.7-.5l-.2.2h.4l.4.3a.9.9,0,0,1,.1.7h-.1v.2a.9.9,0,0,0,0,.2l.3-.2Z"/><path class="cls-16" d="M21.6,13.5v.2c1.4-.2,2,.3,2.2.7h.1C23.6,13.8,23.1,13.3,21.6,13.5Z"/><path class="cls-49" d="M43.6,20.5h0Z"/><path class="cls-49" d="M43.7,20.3h0Z"/><path class="cls-49" d="M43.6,19.8h0Z"/><path class="cls-82" d="M35.2,14.8a.5.5,0,0,1-.1-.7c.6-.7,1.9-2,3-1.2s1.8,1.1,0,1.9A3,3,0,0,1,35.2,14.8Z"/><path class="cls-7" d="M44,16.6c-1.4-.2-3.4-3.2-4.4-3.5h-.4c-1-.8-1.2.5-1.2.5h.3a2.6,2.6,0,0,0,.6.8l.8.3c.2,0,2.8,2.6,2.8,2.6,1.6,1.6,2.5,1.3,2.5,1.3C42.7,17.6,44,16.6,44,16.6Z"/><path class="cls-7" d="M43.7,17.7h.6c0,.1,0,.2,0,.2l.6-.4c-.3-.1,0-.7,0-.7s-1.2,0-1.2,0h0A.8.8,0,0,0,43.7,17.7Z"/><path class="cls-7" d="M46.5,16.9c-.6-.3-1.7.2-1.7.2s-.2.4-.1.5h.8a.9.9,0,0,0,.7,0C46.2,17.5,46.5,16.9,46.5,16.9Z"/><path class="cls-7" d="M48.5,16.9c-.5-.3-1.6,0-2,.1a2.3,2.3,0,0,0-.2.6A4.9,4.9,0,0,1,48,18C47.8,17.7,48.5,16.9,48.5,16.9Z"/><path class="cls-7" d="M50,17.2a4.9,4.9,0,0,0-1.7-.1,2.3,2.3,0,0,0-.4.8,6.4,6.4,0,0,1,1.7.8C49.3,18.3,50,17.2,50,17.2Z"/><path class="cls-7" d="M53.1,19c-.1-.4-.8-.8-1-.9h-.2a5.5,5.5,0,0,1-1.9-.6l-.3.6.5.2a4.8,4.8,0,0,1,1.5,1.1l1,1.1C52.5,20,53.1,19,53.1,19Z"/><path class="cls-7" d="M53,19.1a3.4,3.4,0,0,0-.3.9c.5.1.9-.4.9-.4s1.6.5,1.7,1.4h.1C55.8,19.4,54.6,18.4,53,19.1Z"/><path class="cls-6" d="M39.6,14.7c.2,0,2.8,2.6,2.8,2.6a4.5,4.5,0,0,0,2,1.3,20.4,20.4,0,0,1-3.5-3.4,2.5,2.5,0,0,0-2.1-.9h.1Z"/><path class="cls-83" d="M44,16.6c-1.4-.2-3.4-3.2-4.4-3.5h-.1a14.7,14.7,0,0,0,4.3,3.7Z"/><path class="cls-84" d="M44.9,17h0c-.4-.3-1.2,0-1.2,0h0v.2Z"/><path class="cls-85" d="M46.3,17h.3c-.6-.3-1.7.2-1.7.2h1.4Z"/><path class="cls-86" d="M47.5,17h.8v-.2c-.5-.3-1.6,0-2,.1h1Z"/><path class="cls-87" d="M49.9,17.5l.2-.3a4.9,4.9,0,0,0-1.7-.1h-.1Z"/><path class="cls-12" d="M44.9,17h-.1c-.1.1-.2.4-.1.5h0A.8.8,0,0,1,44.9,17Z"/><path class="cls-12" d="M46.6,17h-.1a2.3,2.3,0,0,0-.2.6h.1A2.5,2.5,0,0,1,46.6,17Z"/><path class="cls-12" d="M48.4,17.1a2.3,2.3,0,0,0-.4.8H48a2.4,2.4,0,0,1,.4-.8Z"/><path class="cls-88" d="M51.5,18.2a5.1,5.1,0,0,1,1.4,1.1V19c-.1-.4-.8-.8-1-.9h-.2a5.5,5.5,0,0,1-1.9-.6v.2A5,5,0,0,1,51.5,18.2Z"/><path class="cls-89" d="M52.7,20.4h0Z"/><path class="cls-12" d="M49.9,17.4l-.3.6h.1l.3-.5Z"/><path class="cls-90" d="M55.4,21c.4-1.6-.8-2.5-2.3-1.8H53A1.6,1.6,0,0,1,55.4,21Z"/><path class="cls-6" d="M54.3,19.4a1.3,1.3,0,0,0-1.4.6,1.3,1.3,0,0,0,.7-.5,1.4,1.4,0,0,1,1.7,1.4h0A1.3,1.3,0,0,0,54.3,19.4Z"/><path class="cls-12" d="M52.7,20h.1a5.4,5.4,0,0,1,.4-1H53A3.4,3.4,0,0,0,52.7,20Z"/><path class="cls-6" d="M44.5,17.6h-.2c0,.1,0,.2,0,.2l.5-.3Z"/><path class="cls-6" d="M45.6,17.5h0a.9.9,0,0,0,.7,0h-.7Z"/><path class="cls-6" d="M46.8,17.5h-.5A4.9,4.9,0,0,1,48,18a.3.3,0,0,1,0-.2Z"/><path class="cls-6" d="M49.5,18.4a3.3,3.3,0,0,0-1.5-.7v.2a6.4,6.4,0,0,1,1.7.8A.3.3,0,0,1,49.5,18.4Z"/><path class="cls-6" d="M52.7,20.4a.5.5,0,0,1,0-.3,5.4,5.4,0,0,0-1.5-1.5l-1.5-.8V18l.5.2a4.8,4.8,0,0,1,1.5,1.1Z"/><path class="cls-6" d="M54.7,21v-.2l-.6-.4L53,20h0l.7.4.6.4.2.2h0l-.2-.2-.6-.5-.3-.2.4.2.6.4V21a.3.3,0,0,1,0,.1A.3.3,0,0,0,54.7,21Z"/><path class="cls-12" d="M43.8,17.7a.8.8,0,0,1,0-.8h-.1a.8.8,0,0,0,0,.8Z"/><path class="cls-91" d="M35.4,14.8c.6-.7,1.9-2,3-1.2l.4.4c0-.6-.8-1.1-.8-1.1s-2.5.5-3,1.2a.5.5,0,0,0,.1.7h.2Z"/><path class="cls-12" d="M38.3,12.9h-.1c.3.2,1,.8.6,1.3h.1C39.6,13.7,38.3,12.9,38.3,12.9Z"/><path class="cls-92" d="M39.6,13.1h-.2a.9.9,0,0,0-1-.2c.2-.1.4,0,.8.3h.4Z"/><path class="cls-93" d="M28.7,12.8s-2.2,1.6-.5,3.1a1.4,1.4,0,0,0,1.1.4,1,1,0,0,0,.7-.4,1,1,0,0,0,.1-.8,1,1,0,0,0-.2-.5v-.3a3.3,3.3,0,0,1-.7-.9h-.4A.3.3,0,0,0,28.7,12.8Z"/><path class="cls-94" d="M34.9,16.4c-1.4-.3-3.2-3.3-4.2-3.8h-.4c-1-.9-1.3.4-1.3.4h.3a2.6,2.6,0,0,0,.6.8l.7.3c.2,0,2.6,2.7,2.6,2.7,1.5,1.7,2.4,1.5,2.4,1.5C33.6,17.4,34.9,16.4,34.9,16.4Z"/><path class="cls-95" d="M34.6,17.5h.6c0,.1,0,.2,0,.2l.6-.3c-.3-.1.1-.7.1-.7s-1.2-.1-1.2-.1h0A.8.8,0,0,0,34.6,17.5Z"/><path class="cls-96" d="M37.4,16.8c-.5-.3-1.7.1-1.7.1s-.2.4-.1.5l.8.2a.9.9,0,0,0,.7,0C37.1,17.5,37.4,16.8,37.4,16.8Z"/><path class="cls-97" d="M39.3,17c-.5-.4-1.6-.1-2-.1a2.3,2.3,0,0,0-.3.6,4.9,4.9,0,0,1,1.7.5C38.7,17.7,39.3,17,39.3,17Z"/><path class="cls-98" d="M40.9,17.4a4.9,4.9,0,0,0-1.7-.2,2.3,2.3,0,0,0-.4.7,6.4,6.4,0,0,1,1.6.9C40.1,18.4,40.9,17.4,40.9,17.4Z"/><path class="cls-99" d="M43.8,19.3c-.1-.4-.7-.9-1-1h-.2a5.5,5.5,0,0,1-1.9-.7l-.3.5.5.2a4.8,4.8,0,0,1,1.4,1.1l1,1.2C43.2,20.3,43.8,19.3,43.8,19.3Z"/><path class="cls-100" d="M43.8,19.4a3.4,3.4,0,0,0-.4.9c.5.1.9-.4.9-.4s1.6.6,1.6,1.5H46C46.5,19.9,45.4,18.8,43.8,19.4Z"/><path class="cls-6" d="M30.6,14.3c.2,0,2.6,2.7,2.6,2.7a4.5,4.5,0,0,0,1.9,1.4,20.4,20.4,0,0,1-3.4-3.6,2.5,2.5,0,0,0-2.1-1h.1Z"/><path class="cls-101" d="M34.9,16.4c-1.4-.3-3.2-3.3-4.2-3.8h-.1a14.7,14.7,0,0,0,4.1,3.9Z"/><path class="cls-102" d="M35.7,16.9h0c-.4-.3-1.2-.1-1.2-.1h0v.2Z"/><path class="cls-103" d="M37.1,16.9h.3c-.5-.3-1.7.1-1.7.1h1.4Z"/><path class="cls-104" d="M38.4,17h.8V17c-.5-.4-1.6-.1-2-.1h1Z"/><path class="cls-105" d="M40.7,17.6l.2-.3a4.9,4.9,0,0,0-1.7-.2h-.1Z"/><path class="cls-41" d="M35.8,16.9h-.1c-.1.1-.2.4-.1.5h0A.8.8,0,0,1,35.8,16.9Z"/><path class="cls-41" d="M37.4,16.9h-.1a2.3,2.3,0,0,0-.3.6h.1A2.5,2.5,0,0,1,37.4,16.9Z"/><path class="cls-41" d="M39.2,17.1a2.3,2.3,0,0,0-.4.7h.1a2.4,2.4,0,0,1,.5-.7Z"/><path class="cls-106" d="M42.3,18.5a5.1,5.1,0,0,1,1.3,1.1l.2-.3c-.1-.4-.7-.9-1-1h-.2a5.5,5.5,0,0,1-1.9-.7v.2A5,5,0,0,1,42.3,18.5Z"/><path class="cls-107" d="M43.4,20.6h0Z"/><path class="cls-41" d="M40.8,17.6l-.3.5h.1l.3-.5Z"/><path class="cls-108" d="M46,21.4c.5-1.5-.7-2.6-2.2-2h-.1A1.6,1.6,0,0,1,46,21.4Z"/><path class="cls-6" d="M45,19.8a1.3,1.3,0,0,0-1.4.5,1.3,1.3,0,0,0,.7-.4,1.4,1.4,0,0,1,1.6,1.5h0A1.3,1.3,0,0,0,45,19.8Z"/><path class="cls-41" d="M43.4,20.3h.1a5.4,5.4,0,0,1,.4-.9h-.1A3.4,3.4,0,0,0,43.4,20.3Z"/><path class="cls-6" d="M35.4,17.5h-.2c0,.1,0,.2,0,.2l.5-.3Z"/><path class="cls-6" d="M36.5,17.4h-.9l.8.2a.9.9,0,0,0,.7,0h0Z"/><path class="cls-6" d="M37.7,17.5h-.5a4.9,4.9,0,0,1,1.7.5.3.3,0,0,1,0-.2Z"/><path class="cls-6" d="M40.3,18.5a3.3,3.3,0,0,0-1.5-.8h-.1a6.4,6.4,0,0,1,1.6.9A.3.3,0,0,1,40.3,18.5Z"/><path class="cls-6" d="M43.4,20.7a.5.5,0,0,1,0-.3A5.4,5.4,0,0,0,42,18.8L40.5,18v.2l.5.2a4.8,4.8,0,0,1,1.4,1.1Z"/><path class="cls-41" d="M34.6,17.5a.8.8,0,0,1,.1-.8h-.1a.8.8,0,0,0-.1.8Z"/><path class="cls-6" d="M30.1,14.9a1,1,0,0,0-.2-.5v-.3l-.2-.2h0a.6.6,0,0,0,0,.5v.3a1,1,0,0,1-.1.8,1,1,0,0,1-.7.4,1.4,1.4,0,0,1-1.1-.3l-.2-.2.4.4a1.4,1.4,0,0,0,1.1.3,1,1,0,0,0,.7-.4A1.1,1.1,0,0,0,30.1,14.9Z"/><path class="cls-109" d="M29.9,14.2H30a3.3,3.3,0,0,1-.7-.9h-.4a.3.3,0,0,0-.2-.2S27,14,27.8,15.4A1.6,1.6,0,0,1,29.9,14.2Z"/><path class="cls-41" d="M29.4,13h-.3V13h.3a2.6,2.6,0,0,0,.6.8h.2A3.3,3.3,0,0,1,29.4,13Z"/><path class="cls-110" d="M30.7,12.7h-.2c-.4-.4-.7-.4-1-.3s.4,0,.8.3h.4Z"/><path class="cls-111" d="M15.5,11.6c.2.6.1,1.4.3,2a4.8,4.8,0,0,1,.3,1.3,5.1,5.1,0,0,0-.1,1.2c-.1-.1,0-.2,0-.3a3,3,0,0,0,.2-1.9L16,11.6a.9.9,0,0,0-.1-.3c-.1-.1-.4-.3-.5-.3S15.4,11.4,15.5,11.6Z"/></g></g></svg>