<svg id="Layer_1" data-name="Layer 1" xmlns="http://www.w3.org/2000/svg" viewBox="0 0 55.38 21.84"><defs><style>.cls-1,.cls-9{fill:orange;}.cls-2{fill:#39f;}.cls-10,.cls-11,.cls-2,.cls-3,.cls-4,.cls-5,.cls-6,.cls-7,.cls-8,.cls-9{fill-rule:evenodd;}.cls-3{fill:#090052;}.cls-4,.cls-7,.cls-8{fill:#0d0072;}.cls-5{fill:#4026d3;}.cls-6{fill:#ffed17;}.cls-7,.cls-8{stroke:#0d0072;stroke-miterlimit:22.93;}.cls-7{stroke-width:1.42px;}.cls-8{stroke-width:0.57px;}.cls-10{fill:#d10072;}.cls-11{fill:#5a00bf;}</style></defs><title>caterpillar</title><path class="cls-1" d="M1.21,14.72c-.09-.13-.19-.27-.29-.39a1,1,0,0,0-.71-.47.23.23,0,0,0-.16,0,.19.19,0,0,0,0,.24.48.48,0,0,0,.2.16,2.17,2.17,0,0,1,.7.41.93.93,0,0,1-.41,0s.18.21.23.25a1,1,0,0,0,.32.16c.08,0,.27.08.3,0S1.25,14.78,1.21,14.72Z"/><path class="cls-1" d="M1.9,10a7.75,7.75,0,0,0-.1,1.33.57.57,0,0,0,0,.24.6.6,0,0,0,.18.2c.33.26.65.56,1,.79-.16-.39-.4-.76-.57-1.14A4.27,4.27,0,0,1,1.9,10Z"/><path class="cls-1" d="M7.23,8.24a2.57,2.57,0,0,0-1-.18.42.42,0,0,0,.09.49s.08.06.09.11-.13.14-.22.12a.68.68,0,0,1-.29-.15A.18.18,0,0,0,6,8.9s.11,0,.15.06,0,.21-.06.25a.33.33,0,0,1-.29,0,.36.36,0,0,0-.16-.07.19.19,0,0,0-.18.15.46.46,0,0,0,0,.25,1.56,1.56,0,0,0,.63.86.58.58,0,0,0,.38.12c.34,0,.41-.44.57-.66s.36-.25.54-.42C8,9,7.67,8.45,7.23,8.24Z"/><path class="cls-1" d="M13.72,7.42a1.86,1.86,0,0,0-.05-1.23l0,0s-.08,0-.11,0a1.19,1.19,0,0,0-.15.51,7,7,0,0,1-.15.69c0,.08-.08.18-.16.15S13,7.47,13,7.43l-.28-1.34c0-.09-.07-.21-.16-.2s-.11.07-.14.14a1.73,1.73,0,0,0,0,1.32c.08.19.19.36.26.54a2.47,2.47,0,0,0,.23.55.49.49,0,0,0,.32.21c.16,0,.17-.07.2-.21C13.52,8.09,13.64,7.76,13.72,7.42Z"/><path class="cls-1" d="M43.15.17a.91.91,0,0,0-.09.18l-.6,1.41a.19.19,0,0,1-.08.11c-.1.05-.19-.09-.22-.21A4.92,4.92,0,0,0,41.69.47c-.07-.12-.21-.26-.32-.18a.25.25,0,0,0-.08.15,5.92,5.92,0,0,0-.13,1.4,3.85,3.85,0,0,0,.08,1,1.06,1.06,0,0,0,1.66.61c.26-.17.32-.6.41-.89A10.62,10.62,0,0,0,43.75,0a.69.69,0,0,0-.56.1Z"/><path class="cls-1" d="M37.21,2.13a1.06,1.06,0,0,0-.07.18l-.46,1.41a.2.2,0,0,1-.06.11c-.08.05-.14-.09-.16-.21a5.81,5.81,0,0,0-.35-1.18c-.05-.12-.15-.25-.24-.18a.29.29,0,0,0-.06.15,7.78,7.78,0,0,0-.11,1.4,5,5,0,0,0,.05,1c.14.72.74,1,1.25.59.2-.17.25-.6.32-.89A13.83,13.83,0,0,0,37.67,2a.43.43,0,0,0-.43.11Z"/><path class="cls-1" d="M32.34,3.73a.9.9,0,0,0-.05.14L32,5a.17.17,0,0,1,0,.08c-.05,0-.1-.07-.11-.16A4.92,4.92,0,0,0,31.58,4c0-.09-.1-.2-.16-.13a.24.24,0,0,0,0,.12A6.81,6.81,0,0,0,31.29,5a4.39,4.39,0,0,0,0,.81c.09.56.5.8.85.45a1.6,1.6,0,0,0,.22-.69,12.07,12.07,0,0,0,.26-2,.27.27,0,0,0-.29.08Z"/><path class="cls-1" d="M27.87,4.3a.9.9,0,0,0-.05.14L27.5,5.54a.17.17,0,0,1,0,.08c-.05,0-.1-.07-.11-.16a4.92,4.92,0,0,0-.23-.91c0-.09-.1-.2-.16-.13a.24.24,0,0,0,0,.12,6.81,6.81,0,0,0-.08,1.08,4.39,4.39,0,0,0,0,.81c.09.56.5.8.85.45a1.6,1.6,0,0,0,.22-.69,12.07,12.07,0,0,0,.26-2,.27.27,0,0,0-.29.08Z"/><path class="cls-1" d="M23.81,5.56c-.14,0-.26.2-.39.15a.23.23,0,0,1-.1-.15l-.11-.31A.38.38,0,0,0,23,5a.08.08,0,0,0-.1,0c0,.06,0,.2-.06.28a1.58,1.58,0,0,0-.07.2,4.76,4.76,0,0,0,0,.7,4.39,4.39,0,0,0,0,.81c.09.56.5.8.85.45a1.6,1.6,0,0,0,.22-.69,3.17,3.17,0,0,0,.11-1c0-.1,0-.23-.15-.25Z"/><path class="cls-1" d="M18.44,5.55l0,.12a.59.59,0,0,1,0,.23.21.21,0,0,1-.14.17A.25.25,0,0,1,18.11,6c-.06-.06-.1-.13-.17-.19a.81.81,0,0,0-.48-.14.5.5,0,0,0-.2,0,.17.17,0,0,0-.12.14c0,.08.07.14.15.18a.7.7,0,0,1,.22.11c.17.16.08.63.12.86.09.56.5.8.85.45A3.16,3.16,0,0,0,19,6a1.61,1.61,0,0,0,0-.76.68.68,0,0,0-.53-.5A1.51,1.51,0,0,0,18.44,5.55Z"/><path class="cls-2" d="M55.34,16c-.18,1-7.78,4.11-7.65,2.12C47.94,13.93,56,12.21,55.34,16Z"/><path class="cls-3" d="M54.49,16.77a17,17,0,0,1-3.6,1.57A6.5,6.5,0,0,1,52,17c1.09-1,2.24-1.52,2.58-1.16C54.78,16,54.72,16.34,54.49,16.77Z"/><path class="cls-4" d="M13.08,19.3s2.39-.42,2.42.17C15.59,21.46,12.07,20.44,13.08,19.3Z"/><path class="cls-4" d="M43.55,18.43c.06.29,1.1.38,1.29.31.47-.17,1.29,0,1.33-.76C46.18,17.92,43.25,17,43.55,18.43Z"/><path class="cls-4" d="M42.27,18.74c-.48,0-1.3.18-1.64-.21-.15-.17-.1-.55,0-.9C42.81,17,43.91,18.87,42.27,18.74Z"/><path class="cls-4" d="M39.33,18.55a3.32,3.32,0,0,0-1.4.4c-1.16.84,0,1.94.92,1.26.38-.29,0,.32.6-.5.1-.13.25-.06.63-.44.2-.2.3-.61.11-.81C40.16,18.46,40.05,17.95,39.33,18.55Z"/><path class="cls-4" d="M30.11,20.22s-3.72-1.1-3.91-.27C25.56,22.78,31.45,22.06,30.11,20.22Z"/><path class="cls-4" d="M24.67,19.75s-3.23-1.09-3.4-.25C20.7,22.34,25.82,21.59,24.67,19.75Z"/><path class="cls-4" d="M16.71,19.32s3.6-.54,3.65.24C20.5,22.21,15.18,20.82,16.71,19.32Z"/><path class="cls-2" d="M25.74,6.76c-.25.08-.54.45-.62,1.26-.28,2.76-.83,10.32-.31,11.35.24.49,4.6,2.22,6.51.86.53-.38-1.2-11.43-1.12-13.13,0-.42-.27-.65-.71-.75s-1.14.26-1.73.33C26.82,6.79,26,6.69,25.74,6.76Z"/><path class="cls-2" d="M34.83,6.51a4.81,4.81,0,0,0-4.87,0c-.25.13.24.52.15,1.37-.3,2.86.64,11.24,1.2,12.31.27.51,2.93,1,5.33,0C38.17,19.52,35,10,35.09,7.13A.63.63,0,0,0,34.83,6.51Z"/><path class="cls-5" d="M32.14,5.89c1,.15,1.86-.24,2.6,7.2.58,5.81,2.9,6.78.13,7.61a7.35,7.35,0,0,0,1.77-.52C38.17,19.52,35,10,35.09,7.13a.63.63,0,0,0-.26-.61A4.54,4.54,0,0,0,32.14,5.89Z"/><path class="cls-2" d="M21.62,6.88c-.22.08-.45.44-.53,1.22-.25,2.65-.74,9.91-.32,10.9.2.47,2.93,2.08,4.53.76.26-.21.32-.45.35-1.08.09-2.6-.09-9,0-11.25C25.72,6.12,22.13,6.7,21.62,6.88Z"/><path class="cls-5" d="M20.71,13.65l.3,0c.22-1.15-.19-5.8.7-6.51s2.86-.4,3.15.13c.43.77.84,9.78-.21,11.34-.12.18-.71,1.32-1.38,1.31A5.46,5.46,0,0,1,21,19.21c.67.6,2.94,1.7,4.35.54.26-.21.32-.45.35-1.08.09-2.6-.09-9,0-11.25.06-1.3-3.54-.73-4-.55-.22.08-.45.44-.53,1.22C21,9.32,20.81,11.53,20.71,13.65Z"/><path class="cls-2" d="M21,7.36a4.62,4.62,0,0,0-4.47,0A1.3,1.3,0,0,0,16,8.47c-.27,2.48-1,10.86.05,11a13.63,13.63,0,0,0,4.94-.09c.35-.06.37-.42.39-1,.08-2.44-.18-8.41-.09-10.53A.54.54,0,0,0,21,7.36Z"/><path class="cls-6" d="M19.53,6.83a4.7,4.7,0,0,0-2.46.27c-.06.44-.46.69.11,1.61s1.13-1.21,2.26-.83C19.57,7.93,19.6,7.41,19.53,6.83Z"/><path class="cls-5" d="M21,7.36a4.45,4.45,0,0,0-1.18-.46,2.35,2.35,0,0,1,.84,2c.08,5.44,1.31,8.25-.84,10-.61.5-1.5.37-2.83.72a15,15,0,0,0,3.93-.23c.35-.06.37-.42.39-1,.08-2.44-.18-8.41-.09-10.53A.54.54,0,0,0,21,7.36Z"/><path class="cls-2" d="M9.83,9.67C9.42,12,11.43,18.36,12,19.24c.27.42,1.56.63,3.58.26,1.17-.21,0-9.66.69-11.66.07-.19-.15-.4-.39-.43a14.42,14.42,0,0,0-2.55.5,8,8,0,0,0-2,.28A2.36,2.36,0,0,0,9.83,9.67Z"/><path class="cls-5" d="M11.65,18.48a5,5,0,0,0,.35.75c.27.42,1.56.63,3.58.26,1.17-.21,0-9.66.69-11.66.07-.19-.15-.4-.39-.43a14.43,14.43,0,0,0-2.55.5h-.08c1.07,0,1.9-.53,2.18,1a48.26,48.26,0,0,1,.39,7.47c.07,1.45.33,2.49-1.7,2.87a5.47,5.47,0,0,1-1.63.06c-.46-.07-.36-1.2-.62-1.66A6.9,6.9,0,0,0,11.65,18.48Z"/><path class="cls-2" d="M10.52,8.57C9.24,7.89,4.21,10.4,4,12.29c-.24,2.14,2.44,5.5,2.9,6.3.22.38,2.65,1,5.1.65.32,0-1.36-8.16-1.26-10.21A.46.46,0,0,0,10.52,8.57Z"/><path class="cls-6" d="M8.32,8.81a10.94,10.94,0,0,0-3,1.67,3.65,3.65,0,0,1,.48.64c.77,1.24.07-1.07,2.87-1.23C9.25,9.86,9.07,9.24,8.32,8.81Z"/><path class="cls-5" d="M5.29,10.5A3.15,3.15,0,0,0,4,12.29c-.24,2.14,2.44,5.5,2.9,6.3a3.77,3.77,0,0,0,2,.62,1.32,1.32,0,0,0-1.06-.49c-.92-.14-1.46-1.92-2.11-3.47a19.86,19.86,0,0,1-1.13-2.47A2.77,2.77,0,0,1,5.29,10.5Z"/><path class="cls-2" d="M34.39,6.29C33.49,7.52,36.28,18.2,37,19.57c.09.16.41.54.64.3.75-.78.65-1.14,2-1.08a1.09,1.09,0,0,0,1-1.09c.05-1.63,1.84-5.7,1.41-8.58C41.75,7,40,5.8,40,4.77,40.07,3.29,34.79,5.74,34.39,6.29Z"/><path class="cls-5" d="M36.87,19.28c0,.12.09.22.13.29s.41.54.64.3c.55-.57.64-.92,1.21-1h0c-.3,0-.24-.09-1,.48-.22.16-.54.56-.76.25Z"/><path class="cls-5" d="M36.66,5.05c1.45-.18,2.95-.58,2.82,1.17s.86,9.65.58,12.06c-.05.44-.39.48-.59.51h.2a1.09,1.09,0,0,0,1-1.09c.05-1.63,1.84-5.7,1.41-8.58C41.75,7,40,5.8,40,4.77c0-.85-1.67-.41-3.21.22L36.66,5Z"/><path class="cls-2" d="M45,3.32A4.36,4.36,0,0,0,42.39,3c-2,.41-3.63.79-2.77,1.87,1.09,1.38.15,13.13,1.09,13.26.43.06.87-.05,1.17,0,.54.1.8.34,1,.35.37,0,.71-.29.76-.89.19-2.31,2.66-10.8,2.78-13.24C46.46,4.1,45.16,3.42,45,3.32Z"/><path class="cls-6" d="M43.81,3a4.5,4.5,0,0,0-1.42,0,14.89,14.89,0,0,0-2.14.55c1.79,2.64,3.55-.3,3.56-.36S43.81,3.07,43.81,3Z"/><path class="cls-5" d="M45,3.32a2.35,2.35,0,0,0-.56-.21C45.72,4.33,45.49,6,45,7.8S43.35,17.55,42.79,18c-.27.21-.56.11-1,0s-.63.17-1.29-.32v.12c.06.2.13.32.22.33.43.06.87-.05,1.17,0,.54.1.8.34,1,.35.37,0,.71-.29.76-.89.19-2.31,2.66-10.8,2.78-13.24C46.46,4.1,45.16,3.42,45,3.32Z"/><path class="cls-2" d="M52.52,10.2c-1.4-.81-4-7.21-5.79-6.26a1.46,1.46,0,0,0-.89,1.24c-.3,2.86-3,11.94-2.4,13,0,0,.7-.18,1.6-.22.41,0,.85.33,1.32.18s.57-.74,1.18-1.34C49.79,14.59,52.89,10.41,52.52,10.2Z"/><path class="cls-5" d="M49.18,5.53c.42.71,1.32,2.35,1.51,2.68.33.58.15,2.33-.66,3.79s-2.28,3.22-2.45,4.2c-.09.48-.42.7-.69,1.46a4.59,4.59,0,0,1,.65-.86c2.25-2.21,5.35-6.4,5-6.6C51.68,9.72,50.44,7.25,49.18,5.53Z"/><path class="cls-2" d="M51.18,9.54c-.67,2.8-3.66,5.79-3.23,6.92.2.54,3,.37,4.57-1,.3-.27,2.36-1.6,2.07-2.21C52.6,9.05,51.19,9.51,51.18,9.54Z"/><path class="cls-5" d="M48,15.68a1.18,1.18,0,0,0-.07.79c.2.54,3,.37,4.57-1,.3-.27,2.36-1.6,2.07-2.21l-.27-.53c-.13,2.4-5.17,4.76-6.07,3.79A1.29,1.29,0,0,1,48,15.68Z"/><path class="cls-7" d="M54.23,12.48a9.4,9.4,0,0,0-1.53-2.21c-.79,1.46-2,3.53-.86,3.68.26,0,.58-.86,1.86-1.11A.94.94,0,0,0,54.23,12.48Z"/><path class="cls-2" d="M3.52,12c-.88.28-2.33.81-2.16,2,.12.83,1.7,3.14,3.69,4.42.86.55,1.78.64,1.94.29s-2.52-4.63-2.76-6.33C4.16,11.85,3.95,11.82,3.52,12Z"/><path class="cls-5" d="M2.62,12.29c-.71.33-1.38.84-1.26,1.69S3.06,17.12,5,18.39c.86.55,1.78.64,1.94.29,0-.1,0-.38-.23-.77-.21.61-.87.78-1.09.5a14.1,14.1,0,0,0-1.61-2.14A26.44,26.44,0,0,1,2,13.6C1.59,13,1.88,12.81,2.62,12.29Z"/><path class="cls-2" d="M4.36,18.74c.41.47,1.24,0,.92-.46-.77-1.23-2.77-3.39-3.48-4.33-.41-.55-.58,0-.76.54-.31.86-1,1.6-.1,2.44C1.53,17.48,3.69,18,4.36,18.74Z"/><path class="cls-5" d="M4.36,18.74c.41.47,1.24,0,.92-.46L5.12,18c0,.06-.06.21-.06.22-.09.54-.48.52-.71.2-1.47-2-4.38-1-3.39-3.74-.32.76-.79,1.45,0,2.21C1.53,17.48,3.69,18,4.36,18.74Z"/><path class="cls-5" d="M8.54,8.73c.45.26,1.57-.37,1.67.39,1.21,9,3.26,9.4-2.95,9.62a.19.19,0,0,0-.1,0,10.52,10.52,0,0,0,4.83.46c.32,0-1.36-8.16-1.26-10.21a.46.46,0,0,0-.21-.46A2.91,2.91,0,0,0,8.54,8.73Z"/><path class="cls-5" d="M45.4,17.86c-.57-.16-1.5,0-1.69-.21a1.32,1.32,0,0,1-.29-.77,2.85,2.85,0,0,0,0,1.31S44.14,18,45,18c.41,0,.85.33,1.32.18s.52-.51.85-1v0C46.63,17.55,46.54,18.18,45.4,17.86Z"/><path class="cls-6" d="M12.71,11.88c.15,1,.42.35.55,2,0,.07.71,1.61.8-.56,0-1.1.1-1.16-.79-1.76C13.13,11.47,12.64,11.41,12.71,11.88Z"/><path class="cls-6" d="M18.13,11.56c.15-.43,1.11-.23,1.09.32-.06,1.49.3,2-1.16,1.77C17.44,13.55,18,12,18.13,11.56Z"/><path class="cls-6" d="M23,11.28c-.59,1.08,0,1,.14,2.63,0,.51.64.09.63-1,0-.26.82-1.72-.59-1.7A.3.3,0,0,0,23,11.28Z"/><path class="cls-6" d="M27.34,11.3c.08.78-.15.24.13,1,0,0,0,1.65.45,1.17.23-.26,0-1.11.23-1.75C28.47,10.93,27.58,10.51,27.34,11.3Z"/><path class="cls-6" d="M31.79,11.81a25.35,25.35,0,0,1,.6,2.49c0,1.07,1.59.23.63-2.28-.12-.3.34-1.12-.73-1C32,11,31.79,11.55,31.79,11.81Z"/><path class="cls-6" d="M37.51,13.11c.61.18.41-.65.54-1.56.33-2.28-.71-.86-1.36-1.08C35.8,10.17,36.46,12.79,37.51,13.11Z"/><path class="cls-6" d="M42.46,7.66a2.24,2.24,0,0,1,.69.16c.19,0-.37,1-.41,2.06,0,.54-.06,3.25-.84,1.91-.22-.37.54-1.65,0-2.92C41.56,8.18,42,7.68,42.46,7.66Z"/><path class="cls-6" d="M47.71,9.18c.78.95.14,1.13-.43,2.2,0,.08-1.15,1.07-.39-.74C47.45,9.3,46.77,8.78,47.71,9.18Z"/><path class="cls-6" d="M8.31,12.65c-2.08-.06.06,2.61.39,2.34,0,0,.2-1.09.4-1.54C9.46,12.66,8.8,12.62,8.31,12.65Z"/><path class="cls-6" d="M4.38,15.64c.11.24.49.93.52.26,0-.39-.34-.51-.35-1.18,0-.08-.29-.72-.64-.25C3.67,14.78,4.25,15.35,4.38,15.64Z"/><path class="cls-6" d="M3,16.43c-.13-.37-.39-.47-.57-.43C1.88,16.11,3.31,17.19,3,16.43Z"/><path class="cls-4" d="M2.26,15.79c-.07-.06-.3-.28-.28,0s-.2.37.11.34C2.13,16.09,2.38,15.89,2.26,15.79Z"/><path class="cls-4" d="M4.16,13.75c-.09-.15-.42,0-.53.13-.39.35,0,.48.06.38s.44-.24.49-.35A.35.35,0,0,0,4.16,13.75Z"/><path class="cls-4" d="M6.49,11.93c.3,0,.71-1,1.93-.67.79.22,1.66-.75.06-.77C7.59,10.47,6.52,10.94,6.49,11.93Z"/><path class="cls-4" d="M12.4,10.32c.64-.29,1.26.29,1.43.41s.8,0,.45-.45c-.18-.22.54-.87-.79-.75a1.71,1.71,0,0,1-.85.23C12.44,9.77,12.1,10.46,12.4,10.32Z"/><path class="cls-4" d="M19.31,9.84c.22.16.37.09.32-.39,0-.2-.54-1.28-1.15-.65C16.59,10.74,18.56,9.28,19.31,9.84Z"/><path class="cls-4" d="M22.81,9.46c.85-.14,1.74.58,1.4-.11-.07-.13-.37-.24-.57-.47C23.19,8.35,22,9.59,22.81,9.46Z"/><path class="cls-4" d="M27,8.66c-.11.3,0,.51.39.32.67-.37,1.48.44,1.27-.14S27.39,7.69,27,8.66Z"/><path class="cls-4" d="M31.37,8.73c-.11.17-.69-.3,0-.94.07-.06.41.16.95-.13s.81.44.92.79C33.45,9.15,31.94,7.81,31.37,8.73Z"/><path class="cls-4" d="M35.63,7.94c.09.24-.36.54.1.8.09,0,.38-.11.53,0a2.7,2.7,0,0,0,2.05-.62c.16-.12.44-.29.07-.71s-1.86.17-2.43.2C35.79,7.56,35.53,7.68,35.63,7.94Z"/><path class="cls-4" d="M41,6.46c.11.32.4.17.77,0a3.07,3.07,0,0,1,1.58-.08c.43.08.64.43.72,0,.38-1.87-.89-1.61-2.74-.94C41.18,5.56,41,6.27,41,6.46Z"/><path class="cls-4" d="M47.26,7.69c.22.11.52.15.73.25s.46.29.46-.1a1.76,1.76,0,0,0-.21-1C47.84,6.24,46.83,7.48,47.26,7.69Z"/><path class="cls-4" d="M9.56,15.4a7,7,0,0,0-.38,1.34c0,.06-.36.38.18.34.3,0,.06-.71.49-1.06.11-.09.33-.93.17-.93C9.5,15.08,9.55,15.32,9.56,15.4Z"/><path class="cls-4" d="M14.28,16s.38.35-.29.35-.28.34-.87-.36c0,0-.2-.55-.07-.65S13.55,16.06,14.28,16Z"/><path class="cls-4" d="M5.08,16.12c-.33.69.08.1.1.68,0,0,.33.16.16-.11C5.31,16.63,5.17,15.94,5.08,16.12Z"/><path class="cls-4" d="M3.31,16.66c-.3.38.25.58.25.43S3.36,16.59,3.31,16.66Z"/><path class="cls-4" d="M17.44,16.39c0,.16.45.63.77.1.17-.27.54-.06,1-.27s.83-1.1-.23-.93C17.06,15.61,17,14.29,17.44,16.39Z"/><path class="cls-8" d="M23.61,15.75c.14-.11,1-.56.13.56-.16.21-.47,1.17-.53,1.06-.27-.44.13-.47-.36-1,0,0-.2-.61,0-.61A.6.6,0,0,0,23.61,15.75Z"/><path class="cls-4" d="M27.47,15.28c.44.57.88,0,.94,1,0,0,.22.65.06.7s-.85-.89-.89-1S27.09,15.34,27.47,15.28Z"/><path class="cls-4" d="M33.89,16.46c-.17.92-1.92.1-.76,1.61.23.3.66-.86.89-1.17C34.5,16.25,34,16,33.89,16.46Z"/><path class="cls-4" d="M37.38,14.93c-.59-.15.53,1.91,1.65.52.19-.23.09-1-.14-.72S38.27,15.15,37.38,14.93Z"/><path class="cls-4" d="M42.86,13c-.8,1.3-1.44-.39-1.23.71,0,.19.5.48.48,1s.22-.82.56-.89S43.13,12.58,42.86,13Z"/><path class="cls-8" d="M47.21,12.81c-.51.32-1,.24-1.17.48s-.43,1.31.52.8c.41-.22,1.07-1.19,1-1.4S47.4,12.69,47.21,12.81Z"/><path class="cls-9" d="M9.84,16.58a3.81,3.81,0,0,0-.07.76c.37,0,.23-.41.34-.75s-.23-.16-.24-.06Z"/><path class="cls-9" d="M14.18,16.56c-.26.07-.82,0-.37.5C14,17.24,14.67,16.42,14.18,16.56Z"/><path class="cls-9" d="M3.72,17.2c0,.21,0,.07.15.22s.09-.15,0-.23S3.73,17,3.72,17.2Z"/><path class="cls-9" d="M18.58,16.65c-.23.33-.92.46.18.55C19,17.23,19.52,16.69,18.58,16.65Z"/><path class="cls-9" d="M23.91,16.94c-.07.24-.48.78-.07.64,0,0,.73-.87.08-.72Z"/><path class="cls-9" d="M27.88,17c.15.32.8.4.38.88,0,0-.12.36-.36,0,0,0-.27-1-.16-1A.16.16,0,0,1,27.88,17Z"/><path class="cls-9" d="M34.08,17.71s-1.15,1.79.15.37C34.37,17.93,34.56,17.31,34.08,17.71Z"/><path class="cls-9" d="M38.81,16c-.11.39-.83.18-.58.57,0,0,.7.33.69-.24,0,0,.27-.51-.09-.4Z"/><path class="cls-9" d="M42.51,14.74c-.08.15-.67.8-.16.79C42.59,15.53,42.72,14.36,42.51,14.74Z"/><path class="cls-9" d="M46.48,14.6c-.55.3-.11.14-.33.42,0,.06-.16,0-.13.23.08,0,.27-.18.44-.25S46.58,14.55,46.48,14.6Z"/><path class="cls-9" d="M5.51,16.91c-.07.2,0,.18.09.36s0-.06,0-.08.08-.21,0-.29A.05.05,0,0,0,5.51,16.91Z"/><path class="cls-6" d="M.78,15.12c.59.69,1.41,1.22.94-.23a1,1,0,0,0-.59-.63L1,14.48C1,14.7.87,14.91.78,15.12Z"/><path class="cls-6" d="M.78,15.12l0,0A4,4,0,0,1,1,14.71l0,.07h0l0,.07h0L.82,15h0l0,.06h0Z"/><path class="cls-2" d="M1.88,17.06c.42.13,3.66,1.77,1.5,1.61-.79-.06-2.07.18-2.46-.55C.11,16.65.62,16.69,1.88,17.06Z"/><path class="cls-6" d="M24.18,6.6a9.37,9.37,0,0,0-1.67.1,5.2,5.2,0,0,1,0,.82c0,.85-.21.88.7.84.23,0,.06-.32.6,0C23.94,8.44,24.12,7.45,24.18,6.6Z"/><path class="cls-6" d="M14.43,7.65c-.35.09-.72.18-1.11.26-.56.11-1.09,0-1.59.14a1.52,1.52,0,0,0,.61,1c1,.75.39-.07,1.89,0C14.52,9.14,14.43,8.34,14.43,7.65Z"/><path class="cls-6" d="M14.43,7.65H13.25c.44,0,.85-.11,1.19-.1C14.43,7.77,14.43,7.71,14.43,7.65Z"/><path class="cls-5" d="M26.91,6.73C28.42,6.93,29.1,6,29.53,8c.81,3.75,1,10.23-.26,12-.59.83-3.51,0-3.56,0,1.43.62,4.19,1.32,5.6.3.53-.38-1.2-11.43-1.12-13.13,0-.42-.27-.65-.71-.75s-1.14.26-1.73.33A8.16,8.16,0,0,1,26.91,6.73Z"/><path class="cls-6" d="M32.77,5.88a4.94,4.94,0,0,0-1.87.27c.24.93.44,1.8,1.59.92C32.76,6.87,32.8,6.38,32.77,5.88Z"/><path class="cls-6" d="M38,4.57a16.5,16.5,0,0,0-2.72,1.15,3,3,0,0,0,.94.91c.42.21.6.61,1.49.17C38.2,6.55,38.06,5.33,38,4.57Z"/><path class="cls-6" d="M38,4.57l-.72.25h0l-.18.07,0,0H37l0,0,0,0h-.09L36.66,5h0c.46-.06.92-.14,1.34-.16Z"/><path class="cls-6" d="M49.61,6.14a9.37,9.37,0,0,0-1.53-1.85c-.45.81-.94,1,.81,2.19C49.23,6.72,49.42,6.52,49.61,6.14Z"/><path class="cls-6" d="M28.15,6.6a3,3,0,0,1-.4.08,9.23,9.23,0,0,1-1.15.06c0,.57.26,1.3.81,1s1.34.8.85-.85A1.2,1.2,0,0,0,28.15,6.6Z"/><path class="cls-6" d="M32.14,5.89a3.67,3.67,0,0,1,.64.11s0-.08,0-.12A4.55,4.55,0,0,0,32.14,5.89Z"/><path class="cls-10" d="M49.18,5.53l.39.68,0-.07-.19-.28h0l-.05-.07v0l0-.06,0,0,0-.06,0,0,0-.05Z"/><path class="cls-6" d="M22.52,6.81a3.67,3.67,0,0,1,1.64.06c0-.09,0-.18,0-.27H22.51Z"/><path class="cls-6" d="M3.1,12.1a5.16,5.16,0,0,0-.83.38,7.74,7.74,0,0,1,.85,1.08c.34.66,1.46.06,0-1.43Z"/><path class="cls-6" d="M2.27,12.47l0,0,.32-.22Z"/><path class="cls-4" d="M40.85,21.35a3.11,3.11,0,0,0-1.5-2.29c-1.06-.53-.89.49-.08,1.35a3.2,3.2,0,0,0,1.21.66C40.62,21.13,41.05,21.9,40.85,21.35Z"/><path class="cls-11" d="M40.85,21.35l-.05-.16h0l-.12.06C40.82,21.47,41,21.74,40.85,21.35Z"/><path class="cls-4" d="M42,19.88s.07,1.89.32.9c.12-.5,0-.59.12-1.6S40.5,17.24,42,19.88Z"/><path class="cls-11" d="M42.07,20.61c0,.4.13.71.26.17l0-.14a.37.37,0,0,0-.17,0Z"/><path class="cls-4" d="M44.19,19.07c-.08.26.07.42.06.65,0,.55-.18,1,0,.8a5,5,0,0,0,.84-2C44.59,18.18,44.62,17.61,44.19,19.07Z"/><path class="cls-11" d="M44.18,20.34c0,.21,0,.31,0,.18l.08-.13-.07,0Z"/><path class="cls-6" d="M26.91,6.73a5.13,5.13,0,0,0,1.3,0l-.06-.1H26.91Z"/><path class="cls-9" d="M50.93,14c-.21.18-.8.6-.16.76.48.12.26-.38.49-.72.13-.2-.13-.34-.28-.06Z"/></svg>