<svg id="Layer_1" data-name="Layer 1" xmlns="http://www.w3.org/2000/svg" xmlns:xlink="http://www.w3.org/1999/xlink" viewBox="0 0 55.64 38.17"><defs><style>.cls-1{fill:url(#linear-gradient);}.cls-2{fill:url(#linear-gradient-2);}.cls-3{fill:url(#linear-gradient-3);}.cls-4{fill:url(#linear-gradient-4);}.cls-5{fill:url(#linear-gradient-5);}.cls-6{fill:url(#linear-gradient-6);}.cls-7{fill:url(#linear-gradient-7);}.cls-8{fill:url(#linear-gradient-8);}.cls-9{fill:url(#linear-gradient-9);}.cls-10{fill:url(#linear-gradient-10);}.cls-11{fill:url(#linear-gradient-11);}.cls-12{fill:url(#linear-gradient-12);}.cls-13{fill:url(#linear-gradient-13);}.cls-14{fill:url(#linear-gradient-14);}.cls-15{fill:url(#linear-gradient-15);}.cls-16{fill:url(#linear-gradient-16);}.cls-17{fill:url(#linear-gradient-17);}.cls-18{fill:url(#radial-gradient);}.cls-19{fill:url(#radial-gradient-2);}.cls-20{fill:url(#linear-gradient-18);}.cls-21{fill:url(#linear-gradient-19);}.cls-22{fill:url(#linear-gradient-20);}.cls-23{fill:url(#linear-gradient-21);}.cls-24{fill:url(#linear-gradient-22);}.cls-25{fill:url(#linear-gradient-23);}.cls-26{fill:#221f1f;}.cls-27{fill:#fff;}</style><linearGradient id="linear-gradient" x1="-590.46" y1="0.42" x2="-589.45" y2="5.35" gradientTransform="matrix(-1, 0, 0, 1, -544.93, 0)" gradientUnits="userSpaceOnUse"><stop offset="0" stop-color="#84c241"/><stop offset="0.02" stop-color="#89c441"/><stop offset="0.17" stop-color="#a3cd43"/><stop offset="0.3" stop-color="#b3d345"/><stop offset="0.4" stop-color="#b9d545"/><stop offset="1" stop-color="#456f34"/></linearGradient><linearGradient id="linear-gradient-2" x1="-591.4" y1="16.34" x2="-586.98" y2="17.44" gradientTransform="matrix(-1, 0, 0, 1, -544.93, 0)" gradientUnits="userSpaceOnUse"><stop offset="0" stop-color="#456f34"/><stop offset="0.6" stop-color="#b9d545"/><stop offset="0.7" stop-color="#b3d345"/><stop offset="0.83" stop-color="#a3cd43"/><stop offset="0.98" stop-color="#89c441"/><stop offset="1" stop-color="#84c241"/></linearGradient><linearGradient id="linear-gradient-3" x1="-590.83" y1="17.63" x2="-592.37" y2="24.52" gradientTransform="matrix(-1, 0, 0, 1, -544.93, 0)" gradientUnits="userSpaceOnUse"><stop offset="0" stop-color="#b9d545"/><stop offset="0.24" stop-color="#d5b136"/><stop offset="0.47" stop-color="#ec922a"/><stop offset="0.61" stop-color="#f58725"/><stop offset="1" stop-color="#965624"/></linearGradient><linearGradient id="linear-gradient-4" x1="-562.74" y1="7.89" x2="-559.37" y2="7.89" gradientTransform="matrix(-1, 0, 0, 1, -544.93, 0)" gradientUnits="userSpaceOnUse"><stop offset="0" stop-color="#264b9b"/><stop offset="1" stop-color="#10bef0"/></linearGradient><linearGradient id="linear-gradient-5" x1="-558.35" y1="9.46" x2="-554.74" y2="9.46" xlink:href="#linear-gradient-4"/><linearGradient id="linear-gradient-6" x1="-561.8" y1="8.61" x2="-553.18" y2="7.72" xlink:href="#linear-gradient-2"/><linearGradient id="linear-gradient-7" x1="-592.3" y1="12.55" x2="-591.37" y2="9.25" xlink:href="#linear-gradient-2"/><linearGradient id="linear-gradient-8" x1="-592.03" y1="11.31" x2="-589.38" y2="1.95" xlink:href="#linear-gradient-2"/><linearGradient id="linear-gradient-9" x1="-575.8" y1="20.53" x2="-571.37" y2="4.88" xlink:href="#linear-gradient-2"/><linearGradient id="linear-gradient-10" x1="-571.04" y1="21.43" x2="-570.21" y2="13.86" xlink:href="#linear-gradient-4"/><linearGradient id="linear-gradient-11" x1="-8584.51" y1="20.07" x2="-8574" y2="20.07" gradientTransform="translate(8594.57)" xlink:href="#linear-gradient-4"/><linearGradient id="linear-gradient-12" x1="-562.38" y1="30.87" x2="-568.09" y2="33.25" xlink:href="#linear-gradient-3"/><linearGradient id="linear-gradient-13" x1="-562.86" y1="30.76" x2="-567.58" y2="27.49" xlink:href="#linear-gradient-3"/><linearGradient id="linear-gradient-14" x1="-564.66" y1="18.72" x2="-559.67" y2="21.77" xlink:href="#linear-gradient-2"/><linearGradient id="linear-gradient-15" x1="-555.55" y1="25.69" x2="-552.56" y2="30.63" xlink:href="#linear-gradient-2"/><linearGradient id="linear-gradient-16" x1="-557.17" y1="21.17" x2="-555.4" y2="25.73" xlink:href="#linear-gradient-2"/><linearGradient id="linear-gradient-17" x1="-8552.78" y1="6.4" x2="-8544.99" y2="6.4" gradientTransform="translate(8594.57)" xlink:href="#linear-gradient"/><radialGradient id="radial-gradient" cx="-8621.75" cy="5.9" r="3.28" gradientTransform="translate(10629.64 -0.2) scale(1.23 1.01)" gradientUnits="userSpaceOnUse"><stop offset="0" stop-color="#3066af"/><stop offset="0.71" stop-color="#2b60ab"/><stop offset="1" stop-color="#285ca8"/></radialGradient><radialGradient id="radial-gradient-2" cx="-8621.67" cy="6.07" r="3.06" gradientTransform="translate(10629.64 -0.2) scale(1.23 1.01)" gradientUnits="userSpaceOnUse"><stop offset="0" stop-color="#ed4523"/><stop offset="0.13" stop-color="#e74322"/><stop offset="0.3" stop-color="#d73e20"/><stop offset="0.49" stop-color="#bb351d"/><stop offset="0.69" stop-color="#952918"/><stop offset="0.91" stop-color="#651912"/><stop offset="1" stop-color="#4e120f"/></radialGradient><linearGradient id="linear-gradient-18" x1="-572.21" y1="13.45" x2="-573.49" y2="19.3" gradientTransform="matrix(-1, 0, 0, 1, -544.93, 0)" gradientUnits="userSpaceOnUse"><stop offset="0" stop-color="#fbed34"/><stop offset="0.17" stop-color="#e9e739"/><stop offset="0.49" stop-color="#cfdd3f"/><stop offset="0.78" stop-color="#bfd744"/><stop offset="1" stop-color="#b9d545"/></linearGradient><linearGradient id="linear-gradient-19" x1="-8581.48" y1="19.19" x2="-8570.97" y2="19.19" gradientTransform="translate(8594.57)" xlink:href="#linear-gradient-4"/><linearGradient id="linear-gradient-20" x1="-579.22" y1="30.32" x2="-586.48" y2="35.24" xlink:href="#linear-gradient-3"/><linearGradient id="linear-gradient-21" x1="-583.65" y1="18.4" x2="-574.73" y2="15.87" xlink:href="#linear-gradient-2"/><linearGradient id="linear-gradient-22" x1="-580" y1="25.17" x2="-574.88" y2="27.34" xlink:href="#linear-gradient-2"/><linearGradient id="linear-gradient-23" x1="-579.78" y1="19.49" x2="-575.61" y2="15.41" xlink:href="#linear-gradient-4"/></defs><title>frog</title><path class="cls-1" d="M48.49,4.54A4.29,4.29,0,0,1,43.32,6.1c-2-.74-2.81-2.64-1.9-4.24A4.29,4.29,0,0,1,46.59.29C48.54,1,49.39,2.94,48.49,4.54Z"/><path class="cls-2" d="M44.71,18.14a2.66,2.66,0,0,0-2,.48,2.29,2.29,0,0,0-.32-.78,6,6,0,0,1-.31-.86c-.15-.39-.29-.78-.42-1.18l0-.08,2.83-1.62.06.16c.33.93.66,1.86,1,2.78a4.64,4.64,0,0,0,.6,1.13,2.67,2.67,0,0,0,.75.59l.26.16C46.16,19.17,45.43,18.49,44.71,18.14Z"/><path class="cls-3" d="M38.56,20.18a1.39,1.39,0,0,1,1.68-.45,1.42,1.42,0,0,1,.37.21c.78-.19,1.7-.28,2-.91a.72.72,0,0,0,.07-.42,2.66,2.66,0,0,1,2-.48c.72.36,1.45,1,2.41.79,1.11.64,2.56.9,3.68,1.54a8.22,8.22,0,0,1,2,1.51c.36.38.95.84,1.09,1.34a1.83,1.83,0,0,1,.79.11c.71.27,1.05.91.76,1.44a1.51,1.51,0,0,1-1.82.46c-.7-.26-1-.88-.77-1.4a9.11,9.11,0,0,1-1.09-1.24,8.14,8.14,0,0,0-2.12-1.84c-.28-.16-1.91-.92-1.91-.08,0,.24.39.53.53.73a9.33,9.33,0,0,1,.67,1.09,5.77,5.77,0,0,1,.71,2.26,1.72,1.72,0,0,1,.38.09,1.11,1.11,0,0,1,.72,1.57,1.6,1.6,0,0,1-1.93.57,1.11,1.11,0,0,1-.72-1.58,1.17,1.17,0,0,1,.19-.25,7,7,0,0,1-.75-2.4,5.17,5.17,0,0,0-.82-1.62c-.29-.44-.45-.79-1-1a3.54,3.54,0,0,0-.49,2A5.74,5.74,0,0,1,45,23.41c.56.34.81.87.56,1.31a1.62,1.62,0,0,1-2,.4c-.79-.3-1.19-1-.9-1.48a1.3,1.3,0,0,1,1.15-.54c0-.14,0-.29,0-.44,0-.6.37-2-.25-2.47-.32-.22-.75-.05-1.08.07a13.43,13.43,0,0,1-1.33.43l-.24.06a.8.8,0,0,1-.1.32,1.39,1.39,0,0,1-1.68.45A1,1,0,0,1,38.56,20.18Z"/><path class="cls-4" d="M17.8,7.64s-1.66.65-3.36,1.46a21.44,21.44,0,0,0,1.47-2.42A7.42,7.42,0,0,1,17.8,7.64Z"/><path class="cls-5" d="M9.81,12s.95-3.59,3.61-5a13.61,13.61,0,0,0-.87,3.13c-.35.2-.66.4-.92.58Z"/><path class="cls-6" d="M14.2,6.6a2.81,2.81,0,0,1,1.71.08A21.44,21.44,0,0,1,14.44,9.1c-.65.31-1.31.65-1.89,1a13.61,13.61,0,0,1,.87-3.13A4.86,4.86,0,0,1,14.2,6.6Z"/><path class="cls-7" d="M48.86,12a9.61,9.61,0,0,0-1.3.54l-.1,0c-2.75-.53-5.5.13-8.25-.8a8.09,8.09,0,0,1-.89-.23c5.76,0,11.61-.42,16.83-2.4C53.75,10.45,49,12.07,48.86,12Z"/><path class="cls-8" d="M37.43,10.83c-.28-2.93,1.95-5.55,3.92-8a37.72,37.72,0,0,1,4.36.58,27.63,27.63,0,0,1,5.69.87c3.22.82,4.74,3.13,4.09,4.49a1.5,1.5,0,0,1-.34.42c-5.23,2-11.07,2.38-16.83,2.4C37.85,11.38,37.43,11.15,37.43,10.83Z"/><path class="cls-9" d="M9.9,13.24A1.7,1.7,0,0,1,9.81,12h0l1.82-1.31c1.82-1.31,8.89-4.15,8.89-4.15A21.34,21.34,0,0,1,27.4,5.37a11.61,11.61,0,0,0,7.86-1.83c1.37-.84,3.88-.91,6.1-.75-2,2.49-4.21,5.11-3.92,8,0,.53,1.13.8,1.78.93,2.75.93,5.5.27,8.25.8l.1,0c-.84.38-2,.93-3.12,1.52l-2.83,1.62a7.63,7.63,0,0,0-1,.73,32.71,32.71,0,0,1-4.24,2.9A31.26,31.26,0,0,0,39.51,14a9.69,9.69,0,0,0-1.64.07c.28-.3.07-.56.24-.92-8.86,0-16.81,1.83-25.2,4.15l-.76-.51A5.41,5.41,0,0,1,9.9,13.24Z"/><path class="cls-10" d="M37.87,14.08c-4.4.56-7.18,4.11-9.79,7,0-.17,0-.27,0-.27-.8.88-6.75-.27-7.36-.39-4-1.07-5.86-1.85-7.77-3.09,8.39-2.32,16.16-4.15,25-4.15C37.77,13.53,38.15,13.78,37.87,14.08Z"/><path class="cls-11" d="M10.05,16.21c.42-1,.93-1.66,1.94-.79a32.47,32.47,0,0,1,8.57,9.72c-1.75-1-3.78-1.61-5.61-2.6l.68.28S10.6,18.69,10.05,16.21Z"/><path class="cls-12" d="M21.24,29.68a18.48,18.48,0,0,1,2.73.39,2,2,0,0,1,1.76-.53c.95.12,1.62.72,1.5,1.32s-1,1-1.93.87a1.73,1.73,0,0,1-1.47-.94c-.94.17-2.42.28-3.12.5-1.11.35-2,.93-1.32,1.91a2.15,2.15,0,0,1,.29.65h0c.9.12,1.52.79,1.38,1.49a1.62,1.62,0,0,1-1.88,1.06c-.9-.12-1.52-.79-1.38-1.49a1.09,1.09,0,0,1,.2-.44c-.14-.14-.29-.3-.43-.46a6.5,6.5,0,0,1,3.1-3.47C20.74,30.39,21.08,30,21.24,29.68Z"/><path class="cls-13" d="M21.28,29.16c-.72-.61-1.6-.4-2.45-.35.31-.16.74-.37,1.18-.54A23.49,23.49,0,0,0,22.61,27a1,1,0,0,1,.81,1,1.23,1.23,0,0,1-1.43.76h-.06a2.67,2.67,0,0,1-.64.77A.61.61,0,0,0,21.28,29.16Z"/><path class="cls-14" d="M20.5,25A32.63,32.63,0,0,0,12,15.41c-1-.86-1.52-.21-1.94.79a1.6,1.6,0,0,1,0-.72,2.71,2.71,0,0,1,3-2c3.08,3.81,8.18,7.23,10.51,11.33a1.53,1.53,0,0,1-.35,1.61c-.22.19-.43.35-.64.51l-.72.39A3.09,3.09,0,0,0,20.5,25Z"/><path class="cls-15" d="M12.84,29.24c1.47-.13,5.51-.18,5.51-.18l.48-.26c.85,0,1.73-.26,2.45.35a.61.61,0,0,1,0,.38l-.16.13h.11c-.16.37-.5.72-.53.88A6.5,6.5,0,0,0,17.6,34c-.81-.93-1.6-2.13-2.32-2.22-1-.13-4,.59-7.07-2.32S-.29,23.18,0,21.65A11.3,11.3,0,0,1,4,23C4.67,23.61,11.45,29.36,12.84,29.24Z"/><path class="cls-16" d="M6,19.38c3.07.86,7.29,2.5,8.92,3.16,1.83,1,3.86,1.57,5.61,2.6L20.5,25a3.09,3.09,0,0,1,1.39,2.36,14.12,14.12,0,0,1-1.88.89,8,8,0,0,1-4.43-.59C12.51,26.57,3.94,23,3.94,23L4,23a11.3,11.3,0,0,0-4-1.39.73.73,0,0,1,0-.07C.52,20.08,2.16,18.29,6,19.38Z"/><path class="cls-17" d="M49.22,7.74A4.29,4.29,0,0,1,44,9.3c-2-.74-2.81-2.64-1.9-4.24a4.29,4.29,0,0,1,5.17-1.56C49.26,4.23,50.12,6.13,49.22,7.74Z"/><path class="cls-18" d="M49,7.79a3.89,3.89,0,0,1-4.7,1.42c-1.77-.67-2.55-2.4-1.73-3.86a3.9,3.9,0,0,1,4.7-1.42C49.08,4.6,49.85,6.33,49,7.79Z"/><path class="cls-19" d="M48.94,7.83a3.63,3.63,0,0,1-4.38,1.32,2.53,2.53,0,0,1-1.61-3.6,3.63,3.63,0,0,1,4.38-1.33A2.53,2.53,0,0,1,48.94,7.83Z"/><path class="cls-20" d="M17.37,16a29.78,29.78,0,0,0,3-.63c.63-.16,1.26-.28,1.87-.49.3-.1.61-.12.92-.2s.68-.2,1-.27c.92-.18,1.82-.33,2.75-.46.58-.08,1.17-.13,1.74-.23s1.08-.31,1.64-.45a8.78,8.78,0,0,1,2.1-.23c.51,0,1,.13,1.52.08.37,0,.72-.2,1.09-.24a17.61,17.61,0,0,1,2.07,0,2.86,2.86,0,0,1,1.48.39c.3.18.43.34.3.62a.86.86,0,0,1-.59.44c-.3.1-.41.07-.48-.1s.23-.62,0-.62a5.06,5.06,0,0,0-2-.13l0,0a1.43,1.43,0,0,0-.45.17c-.12.08-.13.19-.19.31s-.18.5-.3.73-.42.75-.7.65-.05-.78,0-.95c.06-.35.18-.6-.37-.6s-1,0-1.18.57-.19,1.11-.36,1.66a5.5,5.5,0,0,1-.52,1.29c-.14.23-.51.77-.93.73s0-.55.05-.69a10.19,10.19,0,0,0,.46-1.09,3.45,3.45,0,0,0,.11-1.16,1.15,1.15,0,0,0-.56-1.14,1.49,1.49,0,0,0-1.95.48,3.69,3.69,0,0,0-.23,2.85,3.2,3.2,0,0,1-.11,2.21.75.75,0,0,1-.76.33c-.31-.06-.28-.19-.31-.45-.08-.71,0-1.45-.06-2.17a6.24,6.24,0,0,0-.46-2c-.2-.45-.54-.94-1.19-.7-1.15.42-1.05,1.63-1,2.5,0,.36.71,3,.09,3.05-.33,0-.64-.48-.75-.68-.22-.4-.44-.8-.63-1.21-.35-.74-.54-1.52-.9-2.25-.15-.31-.5-.58-.85-.26a1.34,1.34,0,0,0-.32.88c0,.55,0,1.12,0,1.67,0,.23,0,.77-.24.94s-.42-.12-.55-.3a11.19,11.19,0,0,1-.67-1,7.37,7.37,0,0,0-.31-.73c-.49-.72-1.63-.39-2.42-.36-.28,0-.72,0-.79-.31S17.1,16,17.37,16Z"/><path class="cls-21" d="M13.09,13.53a3.78,3.78,0,0,1,2.32,1s7.36,6.77,8.19,10.31C21.27,20.76,16.17,17.34,13.09,13.53Z"/><path class="cls-22" d="M36.94,31.29c.56-.35-.21-1.19-.33-2l.38.21a19.28,19.28,0,0,1,1.33-1.6.74.74,0,0,1-.05-.81,1.24,1.24,0,0,1,1.49-.42.86.86,0,0,1,.58,1.21,1.18,1.18,0,0,1-1.24.49,18.8,18.8,0,0,1-1.61,2.17s4.33-.76,5.74-.18l.29.14a1.69,1.69,0,0,1,1.16,0c.68.26,1,.89.71,1.41a1.46,1.46,0,0,1-1.77.47,1.11,1.11,0,0,1-.81-1.08c-1.57-.86-5.1.48-5.1.48a6,6,0,0,1,4.78,3.46l0,0a1.26,1.26,0,0,1,.42.08.83.83,0,0,1,.52,1.18A1.19,1.19,0,0,1,42,37a.83.83,0,0,1-.52-1.18.9.9,0,0,1,.22-.26,5.1,5.1,0,0,0-.93-1.62c-1.09-1.53-4.23-1.25-4.23-1.25a9.4,9.4,0,0,1,0,3.22,2.16,2.16,0,0,1-.29.61.88.88,0,0,1,.28,1.12,1.43,1.43,0,0,1-1.73.45c-.67-.25-1-.87-.7-1.37a1.38,1.38,0,0,1,1.55-.5v0c.95-1.69-.43-4.26-.43-4.26l-.78-.62A4.34,4.34,0,0,0,36.94,31.29Z"/><path class="cls-23" d="M30,20.41l.33-.28c2.81-2.18,6.42-3.48,8.51-6.12h.69a31.26,31.26,0,0,1-3.11,5.33c-1.59,1-3,1.75-3,1.75l.1.44A5.44,5.44,0,0,0,30,20.41Z"/><path class="cls-24" d="M33.52,21.53c.35,1.46,1.49,6.11,1.61,6.54s1,.9,1.48,1.2c.11.82.89,1.67.33,2a4.34,4.34,0,0,1-2.42,0c-.81-.66-2.17-1.78-3.66-3.15s-2.26-4-2.58-5.71a8.94,8.94,0,0,1,1.69-2A5.44,5.44,0,0,1,33.52,21.53Z"/><path class="cls-25" d="M38.82,14c-2.09,2.64-5.7,3.93-8.51,6.12a9.15,9.15,0,0,0-2,2.3c-.11-.6-.18-1.08-.21-1.36C30.87,18,33.86,14.14,38.82,14Z"/><path class="cls-26" d="M46.87,8.12l-.8-3.41A4.42,4.42,0,0,1,46.87,8.12Z"/><ellipse class="cls-27" cx="44.97" cy="5.54" rx="0.36" ry="0.3"/><path class="cls-27" d="M41.61,3.66h-.34c-.22,0-.54,0-1,0s-.91.06-1.47.12A16.15,16.15,0,0,0,37,4.14a8.38,8.38,0,0,0-2.12.77l-.26.15-.24.14-.24.11-.26.1a6.72,6.72,0,0,1-1.18.28A26.46,26.46,0,0,1,30,5.91c-.92,0-1.86.09-2.8.18a19.06,19.06,0,0,0-2.78.48A12.22,12.22,0,0,0,23.12,7l-1.21.46-2.29.87-2,.8-.91.36-.81.34-1.31.55-.84.36-.3.13.31-.1.88-.29L16,10l.83-.29.93-.31,2.09-.71,2.33-.81,1.23-.43c.4-.14.82-.27,1.25-.37a18.5,18.5,0,0,1,2.68-.45c.91-.1,1.84-.15,2.76-.2a23.67,23.67,0,0,0,2.72-.26,6.68,6.68,0,0,0,1.28-.34l.3-.13.29-.15.25-.16.23-.14a8.41,8.41,0,0,1,2-.8c.65-.18,1.27-.32,1.82-.42s1-.17,1.44-.22l.94-.1Z"/></svg>