<svg id="Layer_1" data-name="Layer 1" xmlns="http://www.w3.org/2000/svg" viewBox="0 0 355.87 305.38"><defs><style>.cls-1{opacity:0.3;}.cls-2{fill:#000200;}.cls-3{fill:#fff;}.cls-4{fill:#a8a8a8;}.cls-5{fill:#fefefd;}.cls-6{fill:#d6d9d4;}</style></defs><title>grid</title><g class="cls-1"><rect class="cls-2" y="0.32" width="355.87" height="305.06"/></g><rect class="cls-3" x="60.31" y="60.31" width="58.31" height="59.81"/><rect x="118.63" y="60.31" width="58.31" height="59.81"/><rect class="cls-3" x="176.94" y="60.31" width="58.31" height="59.81"/><rect x="235.25" y="60.31" width="58.31" height="59.81"/><rect x="60.31" y="120.13" width="58.31" height="59.81"/><rect class="cls-3" x="118.63" y="120.13" width="58.31" height="59.81"/><rect x="176.94" y="120.13" width="58.31" height="59.81"/><rect class="cls-3" x="235.25" y="120.13" width="58.31" height="59.81"/><rect class="cls-3" x="60.31" y="179.94" width="58.31" height="59.81"/><rect x="118.63" y="179.94" width="58.31" height="59.81"/><rect class="cls-3" x="176.94" y="179.94" width="58.31" height="59.81"/><rect x="235.25" y="179.94" width="58.31" height="59.81"/><rect class="cls-3" x="293.56" y="60.31" width="58.31" height="59.81"/><path class="cls-4" d="M352.37,120.63H293.06V59.81h59.31Zm-58.31-1h57.31V60.81H294.06Z"/><rect class="cls-5" x="293.56" y="120.13" width="58.31" height="59.81"/><path class="cls-4" d="M352.37,180.44H293.06V119.63h59.31Zm-58.31-1h57.31V120.63H294.06Z"/><rect class="cls-3" x="293.56" y="179.94" width="58.31" height="59.81"/><path class="cls-4" d="M352.37,240.25H293.06V179.44h59.31Zm-58.31-1h57.31V180.44H294.06Z"/><rect class="cls-5" x="2" y="60.31" width="58.31" height="59.81"/><path class="cls-4" d="M60.81,120.63H1.5V59.81H60.81Zm-58.31-1H59.81V60.81H2.5Z"/><rect class="cls-3" x="2" y="120.13" width="58.31" height="59.81"/><path class="cls-4" d="M60.81,180.44H1.5V119.63H60.81Zm-58.31-1H59.81V120.63H2.5Z"/><rect class="cls-5" x="2" y="179.94" width="58.31" height="59.81"/><path class="cls-4" d="M60.81,240.25H1.5V179.44H60.81Zm-58.31-1H59.81V180.44H2.5Z"/><rect class="cls-3" x="235.25" y="239.75" width="58.31" height="59.81"/><path class="cls-4" d="M294.06,300.06H234.75V239.25h59.31Zm-58.31-1h57.31V240.25H235.75Z"/><rect class="cls-5" x="176.94" y="239.75" width="58.31" height="59.81"/><path class="cls-4" d="M235.75,300.06H176.44V239.25h59.31Zm-58.31-1h57.31V240.25H177.44Z"/><rect class="cls-3" x="118.63" y="239.75" width="58.31" height="59.81"/><path class="cls-4" d="M177.44,300.06H118.12V239.25h59.31Zm-58.31-1h57.31V240.25H119.12Z"/><rect class="cls-5" x="60.31" y="239.75" width="58.31" height="59.81"/><path class="cls-4" d="M119.12,300.06H59.81V239.25h59.31Zm-58.31-1h57.31V240.25H60.81Z"/><rect class="cls-5" x="293.56" y="239.75" width="58.31" height="59.81"/><path class="cls-4" d="M352.37,300.06H293.06V239.25h59.31Zm-58.31-1h57.31V240.25H294.06Z"/><rect class="cls-3" x="2" y="239.75" width="58.31" height="59.81"/><path class="cls-4" d="M60.81,300.06H1.5V239.25H60.81Zm-58.31-1H59.81V240.25H2.5Z"/><rect class="cls-3" x="235.25" y="0.5" width="58.31" height="59.81"/><path class="cls-4" d="M294.06,60.81H234.75V0h59.31Zm-58.31-1h57.31V1H235.75Z"/><rect class="cls-5" x="176.94" y="0.5" width="58.31" height="59.81"/><path class="cls-4" d="M235.75,60.81H176.44V0h59.31Zm-58.31-1h57.31V1H177.44Z"/><rect class="cls-3" x="118.63" y="0.5" width="58.31" height="59.81"/><path class="cls-4" d="M177.44,60.81H118.12V0h59.31Zm-58.31-1h57.31V1H119.12Z"/><rect class="cls-5" x="60.31" y="0.5" width="58.31" height="59.81"/><path class="cls-4" d="M119.12,60.81H59.81V0h59.31Zm-58.31-1h57.31V1H60.81Z"/><rect class="cls-3" x="2" y="0.5" width="58.31" height="59.81"/><path class="cls-4" d="M60.81,60.81H1.5V0H60.81Zm-58.31-1H59.81V1H2.5Z"/><rect class="cls-5" x="293.56" y="0.5" width="58.31" height="59.81"/><path class="cls-4" d="M352.37,60.81H293.06V0h59.31Zm-58.31-1h57.31V1H294.06Z"/><rect x="60.09" y="59.92" width="233.7" height="180.23"/><rect class="cls-6" x="60.31" y="60.31" width="58.31" height="59.81"/><rect class="cls-2" x="118.63" y="60.31" width="58.31" height="59.81"/><rect class="cls-6" x="176.94" y="60.31" width="58.31" height="59.81"/><rect class="cls-2" x="235.25" y="60.31" width="58.31" height="59.81"/><rect class="cls-2" x="60.31" y="120.13" width="58.31" height="59.81"/><rect class="cls-6" x="118.63" y="120.13" width="58.31" height="59.81"/><rect class="cls-2" x="176.94" y="120.13" width="58.31" height="59.81"/><rect class="cls-6" x="235.25" y="120.13" width="58.31" height="59.81"/><rect class="cls-6" x="60.31" y="179.94" width="58.31" height="59.81"/><rect class="cls-2" x="118.63" y="179.94" width="58.31" height="59.81"/><rect class="cls-6" x="176.94" y="179.94" width="58.31" height="59.81"/><rect class="cls-2" x="235.25" y="179.94" width="58.31" height="59.81"/><path d="M32.79,200.18v14.75h2.83v1.9H27.24v-1.9h3.4v-12l-3.19,2.4-1.17-1.59,4.93-3.55Z"/><path d="M26.11,157a5.37,5.37,0,0,1-.07-.88,6.64,6.64,0,0,1,.56-2.76A10,10,0,0,1,28,151.14a17.55,17.55,0,0,1,1.8-1.88q1-.87,1.8-1.67A10.84,10.84,0,0,0,33,146a2.91,2.91,0,0,0,.56-1.7,2.12,2.12,0,0,0-.74-1.65,2.76,2.76,0,0,0-1.9-.65,4.17,4.17,0,0,0-1.82.39,6.13,6.13,0,0,0-1.53,1.06L26.35,142a8.19,8.19,0,0,1,2.11-1.38,6.43,6.43,0,0,1,2.68-.52,5.68,5.68,0,0,1,1.92.31,4.26,4.26,0,0,1,1.48.87,4,4,0,0,1,.94,1.3,3.83,3.83,0,0,1,.33,1.59,4.42,4.42,0,0,1-.51,2.11A9.38,9.38,0,0,1,34,148.09a18.62,18.62,0,0,1-1.69,1.67q-.92.8-1.73,1.63a12.51,12.51,0,0,0-1.42,1.74,4.34,4.34,0,0,0-.73,2h7.33v2Z"/><path d="M30.18,97.5a7.54,7.54,0,0,1-4.64-1.43l1-1.79a7.64,7.64,0,0,0,1.54.88,5.37,5.37,0,0,0,2.15.38,3.59,3.59,0,0,0,2.49-.82,2.68,2.68,0,0,0,.92-2.08,3,3,0,0,0-.26-1.24,2.69,2.69,0,0,0-.82-1,4.33,4.33,0,0,0-1.4-.7,6.86,6.86,0,0,0-2-.26H27.78V87.67H29a6.08,6.08,0,0,0,1.83-.25,3.78,3.78,0,0,0,1.3-.68,2.81,2.81,0,0,0,.76-1,2.59,2.59,0,0,0,.25-1.11,2.23,2.23,0,0,0-.85-1.81,3.19,3.19,0,0,0-2.08-.69,5,5,0,0,0-2,.37,5.83,5.83,0,0,0-1.4.82l-.88-1.69a10.74,10.74,0,0,1,1.83-.94,6.78,6.78,0,0,1,2.62-.46,6.06,6.06,0,0,1,2.08.33,4.63,4.63,0,0,1,1.55.9,3.92,3.92,0,0,1,1,1.32,3.81,3.81,0,0,1,.33,1.56,3.85,3.85,0,0,1-.7,2.37,5.27,5.27,0,0,1-2,1.56A5.22,5.22,0,0,1,35,90a4.12,4.12,0,0,1,.85,2.59,5,5,0,0,1-.35,1.82,4.51,4.51,0,0,1-1,1.58,5,5,0,0,1-1.76,1.11A6.88,6.88,0,0,1,30.18,97.5Z"/><path d="M320.89,219.51V204.75h-2.83v-1.9h8.38v1.9H323v12l3.19-2.4,1.17,1.59-4.93,3.55Z"/><path d="M327.76,143a5.32,5.32,0,0,1,.07.88,6.63,6.63,0,0,1-.56,2.76,10,10,0,0,1-1.39,2.25,17.5,17.5,0,0,1-1.8,1.88q-1,.87-1.8,1.67a10.88,10.88,0,0,0-1.39,1.59,2.91,2.91,0,0,0-.56,1.7,2.12,2.12,0,0,0,.74,1.65,2.76,2.76,0,0,0,1.9.65,4.16,4.16,0,0,0,1.82-.39,6.12,6.12,0,0,0,1.54-1.06l1.19,1.45a8.2,8.2,0,0,1-2.11,1.38,6.43,6.43,0,0,1-2.68.52,5.69,5.69,0,0,1-1.92-.31,4.27,4.27,0,0,1-1.48-.87,4,4,0,0,1-.94-1.3,3.82,3.82,0,0,1-.33-1.59,4.41,4.41,0,0,1,.51-2.11,9.33,9.33,0,0,1,1.29-1.83,18.68,18.68,0,0,1,1.69-1.67q.92-.8,1.73-1.63a12.58,12.58,0,0,0,1.42-1.74,4.34,4.34,0,0,0,.73-2H318.1v-2Z"/><path d="M323.69,82.94a7.54,7.54,0,0,1,4.64,1.43l-1,1.79a7.71,7.71,0,0,0-1.54-.88,5.37,5.37,0,0,0-2.15-.38,3.59,3.59,0,0,0-2.49.82,2.68,2.68,0,0,0-.92,2.08,3,3,0,0,0,.26,1.24,2.7,2.7,0,0,0,.82,1,4.3,4.3,0,0,0,1.4.7,6.86,6.86,0,0,0,2,.26h1.33v1.74h-1.24A6,6,0,0,0,323,93a3.78,3.78,0,0,0-1.3.68,2.8,2.8,0,0,0-.76,1,2.59,2.59,0,0,0-.25,1.11,2.22,2.22,0,0,0,.84,1.81,3.19,3.19,0,0,0,2.08.69,5,5,0,0,0,2-.37,5.81,5.81,0,0,0,1.4-.82l.88,1.69a10.72,10.72,0,0,1-1.83.94,6.79,6.79,0,0,1-2.62.46,6.08,6.08,0,0,1-2.08-.33,4.63,4.63,0,0,1-1.55-.9,3.93,3.93,0,0,1-1-1.32,3.81,3.81,0,0,1-.33-1.56,3.85,3.85,0,0,1,.7-2.37,5.27,5.27,0,0,1,2-1.56,5.23,5.23,0,0,1-2.34-1.67,4.13,4.13,0,0,1-.84-2.59A5,5,0,0,1,318.4,86a4.52,4.52,0,0,1,1-1.58,5,5,0,0,1,1.76-1.11A6.88,6.88,0,0,1,323.69,82.94Z"/><path d="M83.14,272.2a7.63,7.63,0,0,1,.43-2.58,6.34,6.34,0,0,1,1.2-2.08A5.53,5.53,0,0,1,89,265.66a4.91,4.91,0,0,1,1.94.37,5.81,5.81,0,0,1,1.51.92v-1h2v9.38q0,.91.44,1.18a1.79,1.79,0,0,0,1,.27l-.45,1.67a2.48,2.48,0,0,1-2.76-1.86,7,7,0,0,1-.65.75A4.31,4.31,0,0,1,90,278.44a4.88,4.88,0,0,1-1.31.17,5.27,5.27,0,0,1-2.18-.45,5.19,5.19,0,0,1-1.76-1.29,6.22,6.22,0,0,1-1.19-2A7.53,7.53,0,0,1,83.14,272.2Zm6,4.5a3.61,3.61,0,0,0,1.71-.43,4.24,4.24,0,0,0,1.36-1.12v-6.64a5.85,5.85,0,0,0-1.42-.73,4.85,4.85,0,0,0-1.63-.27,3.68,3.68,0,0,0-1.57.33,3.55,3.55,0,0,0-1.23.94,4.39,4.39,0,0,0-.8,1.46,5.93,5.93,0,0,0-.29,1.88,5.73,5.73,0,0,0,.29,1.84,4.3,4.3,0,0,0,.81,1.45,3.71,3.71,0,0,0,1.23.94A3.54,3.54,0,0,0,89.18,276.7Z"/><path d="M142.2,260.71h2.14v6.52a5.18,5.18,0,0,1,.6-.55,4.7,4.7,0,0,1,.8-.51,4.86,4.86,0,0,1,1-.37,4.73,4.73,0,0,1,1.19-.14,5.16,5.16,0,0,1,3.8,1.67,6.08,6.08,0,0,1,1.2,2,7.53,7.53,0,0,1,.45,2.69,7.31,7.31,0,0,1-.48,2.69,6.74,6.74,0,0,1-1.26,2.08,5.66,5.66,0,0,1-1.8,1.34,4.79,4.79,0,0,1-2.06.48,5.53,5.53,0,0,1-3.57-1.31v1h-2Zm9,11.38a5.75,5.75,0,0,0-.3-1.92,4.44,4.44,0,0,0-.81-1.44,3.5,3.5,0,0,0-4.47-.7,4.33,4.33,0,0,0-1.25,1.11v6.62a4.53,4.53,0,0,0,1.29.69,4.65,4.65,0,0,0,1.57.26,3.84,3.84,0,0,0,1.59-.33,3.62,3.62,0,0,0,1.26-.94,4.47,4.47,0,0,0,.82-1.45A5.67,5.67,0,0,0,151.17,272.09Z"/><path d="M208.83,268.21a7.11,7.11,0,0,0-1.29-.49,5.29,5.29,0,0,0-1.33-.16,3.93,3.93,0,0,0-1.56.31,3.51,3.51,0,0,0-1.25.89,4.23,4.23,0,0,0-.82,1.42,5.65,5.65,0,0,0-.3,1.9,5.76,5.76,0,0,0,.27,1.81,4.69,4.69,0,0,0,.77,1.46,3.62,3.62,0,0,0,1.19,1,3.31,3.31,0,0,0,1.55.36,5.5,5.5,0,0,0,1.55-.19,7.13,7.13,0,0,0,1.38-.59l.67,1.81a7.75,7.75,0,0,1-1.67.64,8.2,8.2,0,0,1-2.07.24,5.85,5.85,0,0,1-2.4-.48,5.29,5.29,0,0,1-1.83-1.33,6,6,0,0,1-1.18-2,7.88,7.88,0,0,1-.42-2.62,7.48,7.48,0,0,1,.42-2.51,6.12,6.12,0,0,1,1.2-2.06,5.73,5.73,0,0,1,1.89-1.39,5.87,5.87,0,0,1,2.49-.51,8,8,0,0,1,1.86.19,7.65,7.65,0,0,1,1.52.55Z"/><path d="M263.65,278.61a5.21,5.21,0,0,1-3.92-1.74,6.07,6.07,0,0,1-1.18-2,7.74,7.74,0,0,1-.43-2.65,7.51,7.51,0,0,1,.44-2.61,6.6,6.6,0,0,1,1.19-2.07,5.61,5.61,0,0,1,1.75-1.37,4.66,4.66,0,0,1,2.12-.5,4.28,4.28,0,0,1,2.13.5,5.88,5.88,0,0,1,1.39,1v-6.47h2.14v14.61q0,.91.44,1.18a1.79,1.79,0,0,0,1,.27l-.45,1.67a2.5,2.5,0,0,1-2.76-1.81A5.47,5.47,0,0,1,266,278,4.23,4.23,0,0,1,263.65,278.61Zm.48-1.9a3.57,3.57,0,0,0,1.68-.42,4.29,4.29,0,0,0,1.34-1.08v-6.14a4.72,4.72,0,0,0-1.25-1.06,3.57,3.57,0,0,0-3.36-.13,3.66,3.66,0,0,0-1.2,1,4.34,4.34,0,0,0-.76,1.46,6.12,6.12,0,0,0-.26,1.82,5.61,5.61,0,0,0,.29,1.83,4.44,4.44,0,0,0,.8,1.44,3.7,3.7,0,0,0,1.21,1A3.37,3.37,0,0,0,264.12,276.7Z"/><path d="M95.74,29.52a7.64,7.64,0,0,1-.43,2.58,6.36,6.36,0,0,1-1.2,2.08,5.53,5.53,0,0,1-1.86,1.38,5.6,5.6,0,0,1-2.37.5,4.93,4.93,0,0,1-1.94-.37,5.84,5.84,0,0,1-1.51-.92v1h-2V26.41q0-.9-.44-1.18a1.8,1.8,0,0,0-1-.27l.45-1.67a2.48,2.48,0,0,1,2.76,1.86,6.92,6.92,0,0,1,.65-.75,4.3,4.3,0,0,1,1.92-1.11,4.84,4.84,0,0,1,1.31-.17,5.28,5.28,0,0,1,2.18.45,5.21,5.21,0,0,1,1.76,1.29,6.24,6.24,0,0,1,1.19,2A7.53,7.53,0,0,1,95.74,29.52Zm-6-4.5a3.62,3.62,0,0,0-1.71.43,4.23,4.23,0,0,0-1.36,1.12v6.64a5.81,5.81,0,0,0,1.42.73,4.87,4.87,0,0,0,1.63.27,3.68,3.68,0,0,0,1.57-.33,3.55,3.55,0,0,0,1.23-.94,4.4,4.4,0,0,0,.8-1.46,5.94,5.94,0,0,0,.29-1.88,5.73,5.73,0,0,0-.29-1.84,4.3,4.3,0,0,0-.81-1.45,3.69,3.69,0,0,0-1.23-.94A3.53,3.53,0,0,0,89.7,25Z"/><path d="M152.95,41H150.8V34.5a5,5,0,0,1-.6.55,4.73,4.73,0,0,1-3,1,5.16,5.16,0,0,1-3.8-1.67,6.09,6.09,0,0,1-1.2-2,7.53,7.53,0,0,1-.45-2.69,7.31,7.31,0,0,1,.48-2.69,6.74,6.74,0,0,1,1.26-2.08,5.64,5.64,0,0,1,1.8-1.34,4.79,4.79,0,0,1,2.06-.48,5.55,5.55,0,0,1,3.57,1.31v-1h2Zm-9-11.38a5.75,5.75,0,0,0,.3,1.92,4.45,4.45,0,0,0,.81,1.44,3.41,3.41,0,0,0,2.63,1.21,3.41,3.41,0,0,0,1.84-.51,4.35,4.35,0,0,0,1.25-1.11V26a4.5,4.5,0,0,0-1.29-.69,4.63,4.63,0,0,0-1.57-.26,3.82,3.82,0,0,0-1.59.33,3.61,3.61,0,0,0-1.26.94,4.47,4.47,0,0,0-.82,1.45A5.67,5.67,0,0,0,144,29.64Z"/><path d="M201.9,33.52a7.18,7.18,0,0,0,1.29.49,5.34,5.34,0,0,0,1.33.16,3.92,3.92,0,0,0,1.56-.31,3.5,3.5,0,0,0,1.25-.89,4.22,4.22,0,0,0,.82-1.42,5.64,5.64,0,0,0,.3-1.9,5.76,5.76,0,0,0-.27-1.81,4.69,4.69,0,0,0-.77-1.46,3.63,3.63,0,0,0-1.19-1,3.31,3.31,0,0,0-1.55-.36,5.5,5.5,0,0,0-1.55.19,7.08,7.08,0,0,0-1.38.6L201.07,24a7.7,7.7,0,0,1,1.67-.64,8.15,8.15,0,0,1,2.07-.24,5.85,5.85,0,0,1,2.4.48A5.29,5.29,0,0,1,209,24.93a6,6,0,0,1,1.18,2,7.88,7.88,0,0,1,.42,2.62,7.49,7.49,0,0,1-.42,2.51,6.13,6.13,0,0,1-1.2,2.06,5.73,5.73,0,0,1-1.89,1.39,5.87,5.87,0,0,1-2.49.51,8,8,0,0,1-1.86-.19,7.59,7.59,0,0,1-1.52-.55Z"/><path d="M265.11,23.12A5.2,5.2,0,0,1,269,24.86a6.08,6.08,0,0,1,1.18,2,7.74,7.74,0,0,1,.43,2.65,7.51,7.51,0,0,1-.44,2.61A6.6,6.6,0,0,1,269,34.2a5.62,5.62,0,0,1-1.75,1.37,4.69,4.69,0,0,1-2.12.5,4.3,4.3,0,0,1-2.13-.5,6,6,0,0,1-1.39-1V41h-2.14V26.41q0-.9-.44-1.18a1.8,1.8,0,0,0-1-.27l.45-1.67a2.5,2.5,0,0,1,2.76,1.81,5.48,5.48,0,0,1,1.48-1.37A4.22,4.22,0,0,1,265.11,23.12Zm-.48,1.9a3.57,3.57,0,0,0-1.68.42,4.3,4.3,0,0,0-1.34,1.08v6.14a4.68,4.68,0,0,0,1.25,1.06,3.56,3.56,0,0,0,3.36.13,3.66,3.66,0,0,0,1.2-1,4.35,4.35,0,0,0,.76-1.46,6.11,6.11,0,0,0,.26-1.82,5.61,5.61,0,0,0-.29-1.83,4.42,4.42,0,0,0-.8-1.44,3.71,3.71,0,0,0-1.21-1A3.39,3.39,0,0,0,264.63,25Z"/></svg>