<svg id="Layer_1" data-name="Layer 1" xmlns="http://www.w3.org/2000/svg" viewBox="0 0 55.2 43.42"><defs><style>.cls-1{fill:#080307;}.cls-2,.cls-8{fill:#fff;}.cls-2{opacity:0.25;}.cls-3{fill:#2a304a;}.cls-4{fill:#161416;}.cls-5{fill:#2c73e7;}.cls-6{fill:#e3793d;}.cls-7{fill:#50311f;}.cls-8{opacity:0.37;}</style></defs><title>lizard</title><path class="cls-1" d="M43.77,5.93a4.23,4.23,0,0,1,1-1.25,14.11,14.11,0,0,1-1,2.05,1.17,1.17,0,0,1,.85-.41L43.39,7.88a3.34,3.34,0,0,1-.88.85c-.17.1-.39.28-.27.45a.38.38,0,0,0,.14.1l1.52.83a4.58,4.58,0,0,1,1.44.83.86.86,0,0,1,.2.35c0,.18-.2.39-.35.48-1.47-.84-3.29-.8-4.7-1.75-.25-.17-.5-.41-.48-.69a.81.81,0,0,1,.39-.54l.5-.38.19-.14a2.43,2.43,0,0,0,1-1.11,1.89,1.89,0,0,0,0-.79A8.9,8.9,0,0,1,41.93,5a2.72,2.72,0,0,1,.58,1.37c.5-1,.32-2.21.54-3.31.43.89-.15,1.94.24,2.84a12,12,0,0,1,1.27-2.41,1.2,1.2,0,0,1-.12.68Z"/><path class="cls-2" d="M42.25,9.68A1.83,1.83,0,0,0,41,9a.62.62,0,0,0-.39.07.28.28,0,0,0-.11.35.49.49,0,0,0,.35.21,4,4,0,0,1,1,.28c.15.08.29.18.44.25a.6.6,0,0,0,.47.05c0-.13-.1-.15-.19-.21A1.5,1.5,0,0,1,42.25,9.68Z"/><path class="cls-3" d="M33,21.58a2.17,2.17,0,0,1,.12.57h0a.86.86,0,0,1,0,.31,1.4,1.4,0,0,1-.27.43l-.6.73a.43.43,0,0,1-.27.19c-.21,0-.36-.23-.44-.43l0,0-.45-1.11-.28-.7h0v0a1.51,1.51,0,0,1-.5,1,10.41,10.41,0,0,1-.88.69,10.15,10.15,0,0,0-1.84,2.1,2.65,2.65,0,0,0-.53,1,.76.76,0,0,1-.13-.21h0a1,1,0,0,1,0-.66,2.39,2.39,0,0,1,.46-.75l1.26-1.59h0a2.93,2.93,0,0,0-1.47.08,8.36,8.36,0,0,0-1.85.55,10.62,10.62,0,0,1-3,.8.7.7,0,0,0-.47.18.67.67,0,0,1,.14-.27,1,1,0,0,1,.44-.3,6.25,6.25,0,0,1,.84-.19,6,6,0,0,0,1.3-.51q.83-.4,1.64-.83a1.12,1.12,0,0,1-.47.07c-.22,0-.45,0-.6,0l-1.13.06c-.22,0-.71.14-.88-.08a.29.29,0,0,1-.06-.15c0-.2.27-.33.44-.36A7.9,7.9,0,0,1,24.9,22h0l0-.06a.48.48,0,0,1,.37-.17l1.18-.15a.27.27,0,0,0,.16-.06.52.52,0,0,0,.07-.12c.1-.18.36-.18.57-.16l1.05.1.41,0a3.27,3.27,0,0,0,.72-1.51h0l0-.09a2.66,2.66,0,0,1,.66-1.22,1.23,1.23,0,0,1,.32-.21.7.7,0,0,1,.34-.07.79.79,0,0,1,.27.07,3,3,0,0,1,1.28,1.59A15.38,15.38,0,0,1,33,21.58Z"/><path class="cls-2" d="M30.05,19.76s0,.1.06.11a.13.13,0,0,0,.08,0,.26.26,0,0,1,.26.07.72.72,0,0,1,.15.25,10.16,10.16,0,0,1,.4,1.2,2.47,2.47,0,0,1,.09.41,4.67,4.67,0,0,1,0,.51,2.44,2.44,0,0,0,.12.75.61.61,0,0,0,.12.23.24.24,0,0,0,.23.08c.11,0,.14-.16.16-.27l.07-.39a.38.38,0,0,0-.07-.36l-.09-.06a.41.41,0,0,1-.1-.3,5,5,0,0,0-.13-.9l-.07.31a.37.37,0,0,1-.09-.29,3.09,3.09,0,0,0-.58-1.5.7.7,0,0,0-.15-.18C30.22,19.16,30,19.51,30.05,19.76Z"/><path class="cls-1" d="M33,21.58a2.17,2.17,0,0,1,.12.57h0l-.81.55a1.93,1.93,0,0,1-.13-.68,6.38,6.38,0,0,0-1-2.93,1.19,1.19,0,0,0-.6-.54.7.7,0,0,0-.42,0,1.23,1.23,0,0,1,.32-.21.7.7,0,0,1,.34-.07.79.79,0,0,1,.27.07,3,3,0,0,1,1.28,1.59A15.38,15.38,0,0,1,33,21.58Z"/><path class="cls-1" d="M30.81,21.55v0a1.51,1.51,0,0,1-.5,1,10.41,10.41,0,0,1-.88.69,10.15,10.15,0,0,0-1.84,2.1,2.65,2.65,0,0,0-.53,1,.76.76,0,0,1-.13-.21h0a2.85,2.85,0,0,1,.72-1.24l.46-.56.52-.62a3.79,3.79,0,0,1,.88-.85,1.45,1.45,0,0,0,.28-.19,1,1,0,0,0,.16-.23,3.78,3.78,0,0,0,.37-.79,1.4,1.4,0,0,0,0-.88c-.05-.14-.13-.28-.09-.42a.1.1,0,0,1,.08-.08s.08,0,.11.09A2.65,2.65,0,0,1,30.81,21.55Z"/><path class="cls-1" d="M23.07,22.62a.29.29,0,0,1-.06-.15,4.6,4.6,0,0,0,1.23-.09,9.64,9.64,0,0,1,2.38,0,5.14,5.14,0,0,1-.95.31c-.22,0-.45,0-.6,0l-1.13.06C23.73,22.71,23.23,22.84,23.07,22.62Z"/><path class="cls-1" d="M26.36,21.83A3.27,3.27,0,0,1,24.9,22h0l0-.06.15,0a1.6,1.6,0,0,0,.53-.07A3.08,3.08,0,0,1,26.36,21.83Z"/><path class="cls-1" d="M28.72,22.91a.46.46,0,0,1-.11.17,2.93,2.93,0,0,0-1.47.08,8.36,8.36,0,0,0-1.85.55,10.62,10.62,0,0,1-3,.8.7.7,0,0,0-.47.18.67.67,0,0,1,.14-.27c.68-.16,1.37-.32,2-.49a6,6,0,0,0,.79-.24c.25-.1.49-.24.74-.35a7,7,0,0,1,1.78-.51A2.49,2.49,0,0,1,28.72,22.91Z"/><path class="cls-2" d="M29.48,19.87a3.16,3.16,0,0,1-.14,1.29,3.4,3.4,0,0,1-.24.48,1.48,1.48,0,0,1-.24.33,1.2,1.2,0,0,1-.33.21,5.79,5.79,0,0,1-1.77.41c.17-.21.5-.23.69-.42a.15.15,0,0,0,0-.09.16.16,0,0,0-.07-.13.6.6,0,0,0-.45-.07l-.44.05c.27-.21.68-.14,1-.32a.68.68,0,0,0-.36-.16s0,0,0-.05a2.06,2.06,0,0,1,.64,0,.78.78,0,0,0,.53-.09l.41,0A3.27,3.27,0,0,0,29.48,19.87Z"/><path class="cls-2" d="M43.08,7.22a1.33,1.33,0,0,1-.44.62c-.31.2-.75.12-1.1.25a4.21,4.21,0,0,0-.49.26l-.15.06.19-.14a2.43,2.43,0,0,0,1-1.11,1.89,1.89,0,0,0,0-.79l.23.27c.07.07.16.15.25.12s0,.1.08.1a.12.12,0,0,0,.1-.1,1.33,1.33,0,0,0,0-.15A.32.32,0,0,1,43,6.38a.91.91,0,0,1,0,.45C42.89,7,42.93,7.17,43.08,7.22Z"/><path class="cls-4" d="M52.35,4.27c-.32.74-.62,1.29-.62,1.29v0A18.5,18.5,0,0,1,50,9.19a8.68,8.68,0,0,0-2,3l0,.13c-.11.3-.16.47-.16.47s1.22.21.4.87a2.87,2.87,0,0,0-.27.26c-1,1.1-3.38,4.52-5.38,7.13a11.88,11.88,0,0,1-4.45,3.15c-.36.16-.7.31-1,.43-.76.3-1.4.51-1.77.62l-.34.1s-.29.31-.81.81c-2,1.89-7.16,6.46-12.36,7.37a20,20,0,0,1-3,.33c-.85,0-1.63-.24-2.49-.21a23.37,23.37,0,0,0-5.65.88,7.59,7.59,0,0,0-1.67.65,13.46,13.46,0,0,0-3.52,3.46,31.45,31.45,0,0,1-4.09,3.83A6.68,6.68,0,0,1,0,43.42a37.73,37.73,0,0,0,3.77-4.64c1.07-1.52,2-3.24,3.44-4.39a13.31,13.31,0,0,1,8.11-2.31,24.77,24.77,0,0,0,6.68-1c3.71-1,6.5-4,7.86-6,.44-.64.86-1.23,1.28-1.78l.1-.13.13-.18.4-.52.44-.55.65-.81.74-.93,0-.05A33.07,33.07,0,0,1,38.55,15a29.58,29.58,0,0,0,2.73-2.47c.37-.37.67-.68.89-.87a2.51,2.51,0,0,0,.3-.33c.1-.13.21-.28.32-.45s.42-.67.65-1.08a15,15,0,0,0,1.35-3.31A12.22,12.22,0,0,1,47.09,2.4a2.27,2.27,0,0,1,2-1.54A4.87,4.87,0,0,0,50,.6L51.4.12,51.65,0a1.12,1.12,0,0,1,1.13.44A1.87,1.87,0,0,1,53,.71C53.42,1.46,52.86,3.1,52.35,4.27Z"/><path class="cls-5" d="M16.16,33.55a.2.2,0,0,0-.09-.09l-.12-.07a.23.23,0,0,1,0-.32,2.5,2.5,0,0,0-1.27,0,2.3,2.3,0,0,1-1.27,0s-.05,0-.05-.05a.06.06,0,0,1,0,0,1.06,1.06,0,0,1,.42-.29.78.78,0,0,0,.34-.27c.07-.12,0-.19,0-.32a12.46,12.46,0,0,0-6.84,2.27c-1.49,1.15-2.37,2.87-3.44,4.39A37.72,37.72,0,0,1,0,43.42a6.68,6.68,0,0,0,1.34-.94,31.45,31.45,0,0,0,4.09-3.83,13.46,13.46,0,0,1,3.52-3.46,7.59,7.59,0,0,1,1.67-.65q.79-.23,1.6-.4,1-.21,2-.34l1-.1.52,0c.08,0,.38,0,.34-.11Z"/><path class="cls-6" d="M52.4.42a.18.18,0,0,1,0,.22c-.06.08-.18.07-.28.11a.49.49,0,0,0-.26.34,1.36,1.36,0,0,1-.16.42,1,1,0,0,1-.54.29,3,3,0,0,0-1.91,1.28.79.79,0,0,1-.11.18,1.13,1.13,0,0,1-.18.13.77.77,0,0,0-.31.6.29.29,0,0,1,0,.14c-.05.09-.19.07-.29.1s-.22.29-.31.45a1.43,1.43,0,0,1-1,.58l1-1a.59.59,0,0,0,.1-.12c.08-.14,0-.32.1-.46s.38-.28.55-.45A1.31,1.31,0,0,0,49,3a3.23,3.23,0,0,1,1.57-1.25,1.71,1.71,0,0,0,.81-.43A4,4,0,0,0,51.64.8a.46.46,0,0,1,.45-.27s.07-.18.11-.2S52.36.38,52.4.42Z"/><path class="cls-6" d="M51.4.12l-.12.12C50.91.58,50.36.66,50,1a3.39,3.39,0,0,0-.4.5,3.68,3.68,0,0,1-.92.86,1.82,1.82,0,0,0-.65.55,1.24,1.24,0,0,1-.12.21.68.68,0,0,1-.16.12l-.49.31a.06.06,0,0,1-.05,0,.06.06,0,0,1,0,0,.42.42,0,0,1,.2-.4,2.94,2.94,0,0,0,.39-.26c.07-.07.12-.16.19-.24a4.1,4.1,0,0,1,.84-.54,2.68,2.68,0,0,0,.58-.63l.37-.51A2.11,2.11,0,0,1,50,.61l0,0Z"/><path class="cls-6" d="M46.85,4.55a.91.91,0,0,1,0,.24.08.08,0,0,1,0,0,.07.07,0,0,1-.08,0,.21.21,0,0,1,0-.08q0-.13-.07-.27a.32.32,0,0,1,0-.1.27.27,0,0,1,0-.08A1.07,1.07,0,0,1,46.77,4c.15-.17.17-.06.14.11A3.54,3.54,0,0,0,46.85,4.55Z"/><path class="cls-6" d="M46.42,5.23A.32.32,0,0,1,46.58,5a.26.26,0,0,1,.21.08l.15.14a.25.25,0,0,1,.07.12.21.21,0,0,1-.11.18c-.11.08-.2.26-.36.09A.8.8,0,0,1,46.42,5.23Z"/><path class="cls-6" d="M50.55,4.16a.73.73,0,0,1-.16.2l-.17.11a.73.73,0,0,0-.14.19A11.78,11.78,0,0,1,49,5.93a7.21,7.21,0,0,0-.82,1.35L47.8,8a.17.17,0,0,1-.13-.16.46.46,0,0,1,0-.21,3.62,3.62,0,0,0,.2-.7A1.57,1.57,0,0,1,48,6.64a1.24,1.24,0,0,1,.13-.24,4.47,4.47,0,0,1,.39-.54c.27-.31.63-.54.89-.85a4.77,4.77,0,0,1,.37-.44L50,4.33c.5-.47.52-1.32,1-1.79a2.27,2.27,0,0,1,.27-.2c.11-.07.46-.26.33,0a6.84,6.84,0,0,1-.38.61Z"/><path class="cls-7" d="M52.35,4.27,51.9,5l-.16.24a1.32,1.32,0,0,1-.81.51.58.58,0,0,1-.22.54c-.14.1-.34.15-.41.32s0,.25-.11.32-.13,0-.19.08,0,.35-.15.42-.19,0-.25-.11A.24.24,0,0,1,49.65,7a3.14,3.14,0,0,0,.31-.2,2.53,2.53,0,0,0,.19-.32,2.16,2.16,0,0,1,.18-.19,3.88,3.88,0,0,0,.28-.4c.37-.52,1-.79,1.35-1.34a1.51,1.51,0,0,0,.21-.79,6.77,6.77,0,0,1-.06-.92,4.13,4.13,0,0,1,.53-1.14A2.06,2.06,0,0,0,52.79.48,1.87,1.87,0,0,1,53,.71C53.42,1.46,52.86,3.1,52.35,4.27Z"/><path class="cls-6" d="M49.32,8s-.19.26-.5.74c-.15.24-.34.53-.54.88s-.41.74-.63,1.18c-.11.22-.21.45-.31.7l-.07.19-.07.19-.14.4c-.09.27-.19.54-.3.82l-.17.42-.19.42-.1.21-.1.21-.1.21-.11.21-.22.42-.24.42-.12.21-.13.21-.26.41-.27.41-.14.2-.14.2-.29.4-.07.1-.07.1-.15.19-.3.39-.31.37-.31.37-.32.35-.32.35-.32.33-.32.33-.32.31c-.21.2-.42.4-.64.58l-.31.27-.15.13-.08.07,0,0,0,0,0,0-.63.44c-.41.27-.8.5-1.15.69s-.67.34-.93.45l-.19.08L37,23.7l-.15.05-.12,0-.23.07.22-.08.12,0,.14-.06.17-.07.18-.09c.26-.12.57-.28.91-.48s.72-.44,1.12-.71l.61-.45,0,0,0,0h0l.07-.07.15-.14.31-.28c.21-.18.41-.39.62-.59l.32-.31.31-.33.32-.33.31-.35.31-.35.31-.37.31-.37.29-.38.15-.19.07-.1.07-.1.28-.4.14-.2.14-.2.27-.4L45.1,16l.13-.2.12-.21.24-.41.23-.42.11-.21L46,14.3l.1-.21.1-.21.19-.41.18-.41c.11-.27.22-.54.31-.81l.15-.39.08-.19.08-.19q.16-.37.33-.7c.22-.44.45-.83.67-1.16s.41-.62.57-.86.3-.41.39-.54Z"/><path class="cls-6" d="M48.26,6.89s-2.16,4.93-3,6.46-4.73,6.91-6.93,8C36.7,22.2,34.06,24.86,33,26l-.44.47a27.6,27.6,0,0,1-5,4.06,21.65,21.65,0,0,1-5,2.38l-.31.09a14,14,0,0,1-6.39.44l0-.28c4.51.79,8.76-1.12,11.53-2.86a27.38,27.38,0,0,0,5-4l.51-.54C34,24.55,36.54,22,38.22,21.11c2.12-1.06,6-6.44,6.82-7.91S48,6.8,48,6.76Z"/><path class="cls-6" d="M46.75,5.52A18.55,18.55,0,0,0,45.32,8.9c-.24,1.22-2.32,4.62-3.91,6.39l-.73.83A36.25,36.25,0,0,1,35.62,21a31.22,31.22,0,0,0-4.08,3.89c-.2.24-.3.38-.31.38a20.62,20.62,0,0,1-2.69,2.87A18.32,18.32,0,0,1,22,32l-.62.18a13,13,0,0,1-6.23.37,3,3,0,0,0-1.53-.14,3.05,3.05,0,0,1-.84.18,3.18,3.18,0,0,0,.5-.13,7.31,7.31,0,0,1,.94-.27,1.55,1.55,0,0,1,.5,0c.17,0,.35.1.51.14a12.76,12.76,0,0,0,6.06-.38,17.63,17.63,0,0,0,7-4A20.45,20.45,0,0,0,31,25.12s.11-.15.34-.42a31.63,31.63,0,0,1,4.09-3.9,36,36,0,0,0,5-4.88l.73-.83A21.19,21.19,0,0,0,45,8.83a18.38,18.38,0,0,1,1.45-3.46Z"/><path class="cls-6" d="M42.46,11.37a15.1,15.1,0,0,1-1.88,2.46,20.84,20.84,0,0,0-1.43,1.63,13.56,13.56,0,0,1-3,2.8,36.78,36.78,0,0,0-5,5c.86-1.14,1.69-2.13,2.46-3.11A23.79,23.79,0,0,1,36,18a13.22,13.22,0,0,0,2.93-2.75,20.92,20.92,0,0,1,1.44-1.64,12.27,12.27,0,0,0,.91-1.05c.37-.37.67-.68.89-.87A2.51,2.51,0,0,0,42.46,11.37Z"/><path class="cls-7" d="M51.72,5.59A18.5,18.5,0,0,1,50,9.19a8.68,8.68,0,0,0-2,3h0a.41.41,0,0,1,0-.37,5.43,5.43,0,0,1,.7-1.54c.38-.51.93-.92,1.08-1.56a.31.31,0,0,1,.05-.14c.05-.06.15-.07.22-.1a.47.47,0,0,0,.25-.32,2.79,2.79,0,0,1,.12-.41c.09-.2.29-.35.28-.57a.15.15,0,0,0-.07-.13l-.07,0c-.06,0,0-.13,0-.19.22-.31.61-.48.75-.84l.11.12A.7.7,0,0,1,51.72,5.59Z"/><path class="cls-1" d="M53.53,9.67l-.07.12a1,1,0,0,1,1.25-.08.87.87,0,0,1,.48.86,1.93,1.93,0,0,0-.91-.56.68.68,0,0,0-.42,0,.71.71,0,0,0-.27.23,6.88,6.88,0,0,0-.91,1.43,3.48,3.48,0,0,0,.59-.52,1.34,1.34,0,0,1,.68-.39.69.69,0,0,1,.72.32s0,0-.08,0a.48.48,0,0,1-.07-.07c-.08-.08-.2,0-.3,0l-.1.08a10.47,10.47,0,0,1-1.49,1.21,2.1,2.1,0,0,0-.27.2l-.11.12c-.05.07-.09.16-.14.23a2.17,2.17,0,0,1-.34.34,3.66,3.66,0,0,0-.55.75c-.07.11-.14.22-.22.33a1.23,1.23,0,0,1-1.14.57,2.13,2.13,0,0,1-.7-.33,6.62,6.62,0,0,0-2-.81.46.46,0,0,1-.18-.07.43.43,0,0,1-.12-.34c0-.4.08-.87.44-1a1.45,1.45,0,0,1,1,.19,5.29,5.29,0,0,0,1,.3.94.94,0,0,0,.44,0,.64.64,0,0,0,.27-.18c.08-.08.14-.17.21-.25a7.55,7.55,0,0,1,.82-.71,1.86,1.86,0,0,0,.47-.92,3.79,3.79,0,0,1,.46-1,1.29,1.29,0,0,1-.05.9l1-1.53a.9.9,0,0,1,.26-.3l.11,0a.33.33,0,0,1,.25,0l0,0,.4-.42a.48.48,0,0,1,.28-.18.22.22,0,0,1,.14,0,.16.16,0,0,1,.09.16A4.9,4.9,0,0,0,53.53,9.67Z"/><path class="cls-2" d="M54.71,9.71a.87.87,0,0,1,.48.86,1.93,1.93,0,0,0-.91-.56.68.68,0,0,0-.42,0,.71.71,0,0,0-.27.23,6.88,6.88,0,0,0-.91,1.43,3.48,3.48,0,0,0,.59-.52,1.34,1.34,0,0,1,.68-.39.69.69,0,0,1,.72.32s0,0-.08,0a.48.48,0,0,1-.07-.07c-.08-.08-.2,0-.3,0a.28.28,0,0,0-.28-.1c-.09,0-.14.12-.21.18a1.18,1.18,0,0,1-.28.19,3.19,3.19,0,0,0-1,.88.42.42,0,0,0-.11.3v0l-.11.12c-.05.07-.09.16-.14.23a2.17,2.17,0,0,1-.34.34,3.66,3.66,0,0,0-.55.75l0,0c-.16.15-.28.38-.51.4s-.34-.12-.51-.16h0c-.13,0-.25,0-.38,0a.44.44,0,0,1-.35-.47.23.23,0,0,1,.06-.13c.12-.13.36,0,.52-.08l.08-.06a.66.66,0,0,0,0-.53q0-.17-.06-.35c.08-.08.14-.17.21-.25a7.55,7.55,0,0,1,.82-.71,1.86,1.86,0,0,0,.47-.92,3.79,3.79,0,0,1,.46-1,1.29,1.29,0,0,1-.05.9l1-1.53a.9.9,0,0,1,.26-.3l.11,0a.53.53,0,0,1-.09.2,13.82,13.82,0,0,0-.91,1.76,11.23,11.23,0,0,0,.87-1.42c.11-.14.23-.27.32-.42l0-.09,0,0,.4-.42a.48.48,0,0,1,.28-.18.22.22,0,0,1,.14,0,.73.73,0,0,1-.17.15,5.81,5.81,0,0,0-1.5,2,3.6,3.6,0,0,0-.26.57,10.91,10.91,0,0,1,.81-1.12,1.45,1.45,0,0,1,.22-.23l-.07.12A1,1,0,0,1,54.71,9.71Z"/><path class="cls-2" d="M51.92,11.75a.71.71,0,0,0-.12.11.31.31,0,0,0,0,.33.16.16,0,0,0,.09.08.16.16,0,0,0,.09,0,.83.83,0,0,0,.42-.31.32.32,0,0,0,0-.09,1.16,1.16,0,0,0,0-.27c0-.08.05-.2,0-.28s-.1-.05-.15,0A4.11,4.11,0,0,1,51.92,11.75Z"/><path class="cls-2" d="M51.21,12.61a1.83,1.83,0,0,1-.55,1.27,2.5,2.5,0,0,1-.25.2,1.76,1.76,0,0,1-.23.15h0c-.13,0-.25,0-.38,0a.44.44,0,0,1-.35-.47.23.23,0,0,1,.06-.13c.12-.13.36,0,.52-.08l.08-.06a.26.26,0,0,0,.22,0,.66.66,0,0,0,.17-.19,1.08,1.08,0,0,0,.15-.27c0-.11,0-.23.07-.35a.32.32,0,0,1,.21-.25.33.33,0,0,1,.22,0,.19.19,0,0,1,.08.07A.2.2,0,0,1,51.21,12.61Z"/><path class="cls-8" d="M43.5,16.59a15.31,15.31,0,0,0,1.23-2,16.83,16.83,0,0,0,1.69-4.9c.19-1.24,1.26-2,2.06-3A14.68,14.68,0,0,0,50.07,4.3a.83.83,0,0,0,.15-.54c0-.2-.28-.37-.43-.27a.39.39,0,0,1-.11.6.71.71,0,0,0-.74,0c.26-.06.45.35.33.59s-.39.35-.59.53a3.33,3.33,0,0,1-.44.43.43.43,0,0,1-.57-.07,1.56,1.56,0,0,1,.4.57L47.43,6a.72.72,0,0,1,.46.57,1.47,1.47,0,0,1-.81-.27,1.27,1.27,0,0,1,.45.73,1.69,1.69,0,0,0-.71-.23,1.49,1.49,0,0,1,.44.52,2,2,0,0,0-.74-.22l.4.4h-.68l.42.36a1.43,1.43,0,0,0-.57.12l.13.19-.89,1.78A22.33,22.33,0,0,1,44,12.27c-.39.58-.83,1.13-1.27,1.67l-4.59,5.67a13.69,13.69,0,0,1-1.41,1.57C35,22.73,33.09,24,31.4,25.57c-.52.49-1,1-1.55,1.48a20,20,0,0,1-8.72,5.14,13,13,0,0,1-2.78.37,12.77,12.77,0,0,1-2.84-.25,5,5,0,0,0-1.43-.19,2.81,2.81,0,0,0-.39.08,14.2,14.2,0,0,1-1.91.55,7.15,7.15,0,0,0-3.61,1.58,20.69,20.69,0,0,0-2.77,2.81A1.86,1.86,0,0,0,4.9,38l1.64-1.63A13.1,13.1,0,0,1,9.7,33.83a13.52,13.52,0,0,1,2-.76,8.42,8.42,0,0,1,2.75-.72c.15,0,.28.08.44.1s.37,0,.55.06l.71.13q.71.11,1.42.16a13.68,13.68,0,0,0,2.8-.08,11.71,11.71,0,0,0,1.92-.42,25.71,25.71,0,0,0,7.6-4.23,14.51,14.51,0,0,0,1.54-1.28c.43-.43.81-.9,1.26-1.31,1-.9,2.27-1.45,3.34-2.26s2.05-1.45,3.11-2.14A16.33,16.33,0,0,0,40.67,20,16.29,16.29,0,0,0,43.5,16.59Z"/><path class="cls-5" d="M21.4,32.2l-1.05.25a14.89,14.89,0,0,1-3.35.34l-.38,0a12.49,12.49,0,0,1-2.09-.33,2.73,2.73,0,0,0-.93.07l-.53,0a4.87,4.87,0,0,0-.51,0,5.74,5.74,0,0,0,1-.34,1.8,1.8,0,0,1,.85-.12c.3,0,.61.15.91.22a8.63,8.63,0,0,0,2.31.18,16.87,16.87,0,0,0,3.67-.58,17.63,17.63,0,0,0,7-4A20.45,20.45,0,0,0,31,25.12s.11-.15.34-.42a1.8,1.8,0,0,0,.2.22c-.2.24-.3.38-.31.38a20.62,20.62,0,0,1-2.69,2.87A18.32,18.32,0,0,1,22,32Z"/><path class="cls-5" d="M33,26l-.44.47a27.6,27.6,0,0,1-5,4.06,21.65,21.65,0,0,1-5,2.38l-.31.09a14,14,0,0,1-6.39.44l0-.28c4.51.79,8.76-1.12,11.53-2.86a27.38,27.38,0,0,0,5-4l.51-.54A1,1,0,0,1,33,26Z"/><path class="cls-1" d="M39.13,25.06a2.24,2.24,0,0,1,0,1.09,5.25,5.25,0,0,1-.28.94,7,7,0,0,1-.66,1.26,1.54,1.54,0,0,0-.28.57,2.72,2.72,0,0,0,.07.74A1.74,1.74,0,0,1,37.59,31a.28.28,0,0,0,0-.2,2.56,2.56,0,0,1-2,1.2l.3-.23-2.28.79,2.32-1.43c.23-.14.49-.32.5-.6a3.62,3.62,0,0,1-1.5.59,26.09,26.09,0,0,1-2.92.47,1.34,1.34,0,0,1-1.16-.26,2.94,2.94,0,0,1,1-.26l1.64-.24a5,5,0,0,0,1.8-.5,1.65,1.65,0,0,0,.89-1.53,4.59,4.59,0,0,1-3,0L35,28.6a1.72,1.72,0,0,0,1.16-.41,1.53,1.53,0,0,0,.26-.49l.1-.28a10.39,10.39,0,0,0,.36-1.33,1,1,0,0,1-.45.12,12.3,12.3,0,0,0-1.57.16c-.32.08-.7.06-.78-.4a.94.94,0,0,1,.36-.83,4,4,0,0,1,2.26-.76l1-.13a1.67,1.67,0,0,1,.69,0A1.2,1.2,0,0,1,39.13,25.06Z"/><path class="cls-3" d="M38.79,26.24a3,3,0,0,0,.08.85,7,7,0,0,1-.66,1.26,1.54,1.54,0,0,0-.28.57,2.72,2.72,0,0,0,.07.74A1.74,1.74,0,0,1,37.59,31a.28.28,0,0,0,0-.2,2.56,2.56,0,0,1-2,1.2l.3-.23-2.28.79,2.32-1.43c.23-.14.49-.32.5-.6a3.62,3.62,0,0,1-1.5.59,26.09,26.09,0,0,1-2.92.47,1.34,1.34,0,0,1-1.16-.26,2.94,2.94,0,0,1,1-.26l1.64-.24a5,5,0,0,0,1.8-.5,1.65,1.65,0,0,0,.89-1.53,4.59,4.59,0,0,1-3,0L35,28.6a1.72,1.72,0,0,0,1.16-.41,1.53,1.53,0,0,0,.26-.49l.1-.28a1.23,1.23,0,0,0,.57-.5,3.28,3.28,0,0,0,.41-.71,1.37,1.37,0,0,0,.07-.83c0-.11.07-.18,0-.24a1.35,1.35,0,0,0-.93-.16,7.52,7.52,0,0,0-.72.26.88.88,0,0,1-.76-.06,2,2,0,0,1,1.15-.47,6.19,6.19,0,0,1,1.48,0,1.27,1.27,0,0,1,1,.47A1.83,1.83,0,0,1,38.79,26.24Z"/><path class="cls-1" d="M38.2,26.55a4.5,4.5,0,0,1-.41.88,2,2,0,0,0-.28.93.55.55,0,0,1-.06.35c-.11.14-.36.07-.47-.08a.69.69,0,0,1-.07-.53,10.22,10.22,0,0,1,.67-1.51c.05-.15.24-1.17.42-1.16S38.24,26.4,38.2,26.55Z"/></svg>