<svg id="Layer_1" data-name="Layer 1" xmlns="http://www.w3.org/2000/svg" viewBox="0 0 26.41 56.64"><defs><style>.cls-1{fill:#a87c4f;}.cls-2{fill:#8a5d3b;}.cls-3{fill:#284da0;}.cls-4{fill:#223369;}.cls-5{fill:#dd1f26;}.cls-6{fill:#be1e2d;}.cls-7{fill:#fff100;}.cls-8{fill:#098442;}.cls-9{fill:#dbcc23;}.cls-10{fill:#fff;}.cls-11{fill:#f9ec31;}.cls-12{fill:#231f20;}.cls-13{fill:#2d2926;}.cls-14{fill:#e8c270;}.cls-15{fill:#404041;}.cls-16{fill:#f7d593;}.cls-17{fill:#00a14b;}</style></defs><title>parrot</title><path class="cls-1" d="M1.25,24.34l.56.32a3,3,0,0,1,.62.56c.07.17,4.34.26,5.39.37s5.54.11,5.54.11l6.19.43c.89.06,5.14.49,6.72.65l.12-1.7h-.77L21,24.46,15.29,24l-4-.28L5.2,24,0,23.61l1.58.53Z"/><path class="cls-2" d="M1,24.48l.48.49-.24.35L1,25.78l.53.41s2.39.11,3.35.17,2.84.3,3.65.24,3.68-.19,4.57-.13,5.61.5,5.61.5l7.47.94.08-1.13c-1.58-.16-5.83-.59-6.72-.65l-6.19-.43s-4.49,0-5.54-.11-5.32-.2-5.39-.37a3,3,0,0,0-.62-.56l-.56-.32.34-.2L0,23.61l.88.7Z"/><path class="cls-2" d="M8.24,24.36a4,4,0,0,0-.71,0l-.76,0-.94,0c-1.34-.06-2.43-.13-2.43-.09a16.38,16.38,0,0,0,2.44.22l1,0h.77A3.11,3.11,0,0,0,8.24,24.36Z"/><path class="cls-2" d="M18.51,25.54a14.92,14.92,0,0,0-1.75-.24c-1.09-.11-2.59-.27-4.29-.32-3.31.06-6,0-6,.05a16,16,0,0,0,1.77.1l1.92,0c.72,0,1.53,0,2.32,0,1.64,0,3.15.18,4.23.26S18.5,25.56,18.51,25.54Z"/><path class="cls-2" d="M20.3,25.2S18.86,25,17,24.8c-.9-.1-1.73-.15-2.32-.2a6.86,6.86,0,0,0-1,0,6.87,6.87,0,0,0,1,.13l2.31.23C18.82,25.12,20.29,25.24,20.3,25.2Z"/><path class="cls-2" d="M25.65,26.28a12.38,12.38,0,0,0-2.1-.29,12.87,12.87,0,0,0-2.14-.12,12.38,12.38,0,0,0,2.1.3A12.84,12.84,0,0,0,25.65,26.28Z"/><path class="cls-2" d="M25.42,25.3a17.08,17.08,0,0,0-1.77-.25,13,13,0,0,0-1.8-.15,10.88,10.88,0,0,0,1.76.28A9.43,9.43,0,0,0,25.42,25.3Z"/><path class="cls-3" d="M11.95,33.69c-.11,1.69-.18,3.91.18,4.57.18.34.41.25.64,0l-.35-4.41S12.2,33.77,11.95,33.69Z"/><path class="cls-4" d="M12.12,31.63s-.1.91-.18,2.06c.25.07.47.11.47.11l.35,4.41a7.8,7.8,0,0,0,1-2.78C13.78,34.93,15,29,12.12,31.63Z"/><path class="cls-3" d="M18.13,33.47c.31,1.67.65,3.86.37,4.56-.14.36-.38.3-.64,0l-.18-4.42S17.9,33.57,18.13,33.47Z"/><path class="cls-4" d="M17.71,31.44s.21.89.42,2c-.24.1-.45.17-.45.17l.18,4.42a7.85,7.85,0,0,1-1.35-2.64C16.46,34.91,14.55,29.12,17.71,31.44Z"/><path class="cls-5" d="M17.44,31l-.59-.34a19.54,19.54,0,0,1-1.5,3.25c-.73,1.1-1.53,0-1.53,0a2.49,2.49,0,0,1-1.12,1c.14,3.23.36,7.57.59,9.55.39,3.36,1.53,13.13,1.89-.77,0,0,1.13,11.49,1.83,12.57s.53-.46.53-.9c0,0,1.41,1.77.81-.18A84,84,0,0,1,17,42.14s1.11,6.67,1.45,8.39,1.36,2.65,1,.49A96.33,96.33,0,0,1,17.44,31Z"/><path class="cls-6" d="M16.31,32.07c.32-.75.54-1.37.54-1.37l.59.34q-.05-1.11-.09-2.25s-4.14-3.9-4.8,2.23c0,0,.06,1.7.16,3.94a2.49,2.49,0,0,0,1.12-1,1.29,1.29,0,0,0,.7.48c.17,2.16.43,5.72.52,7.38,0,0,0-4.52,0-7.49a1.29,1.29,0,0,0,.35-.37,9,9,0,0,0,.54-1c.16,1.82.51,5.52.92,7.75a68.79,68.79,0,0,1-.51-8.67Z"/><path class="cls-7" d="M18.23,13.7a4.11,4.11,0,0,0-.57-1c.24,2.48-.87,2.1-.87,2.1-.13,1.61-.8,1.12-.8,1.12-.23,1.33-.93.2-.93.2-.43,2.21-1.53.91-1.53.91-.53,1.72-1.23.39-1.23.39-.2,1-1,0-1,0-.23,1.27-1.36.08-1.36.08,0,1.25-1.69-.94-1.69-.94.1,2.48-1.73-.73-1.73-.73.07,1-1,1-1.66-.36a4.91,4.91,0,0,1-.4-1.59,10.43,10.43,0,0,0,.31,3.86A7.36,7.36,0,0,0,6.1,19.28c.67.41,1.32.78,1.27,0,0,0,1.89,2.29,1.89,1.29,0,0,.82,1.29,1,.73,0,0,1.8,1.61,2,.85,0,0,.93.88,1.05.37,0,0,.82.61.85-.58,0,0,1,.68,1.17-.17,0,0,.87.54,1-1.07,0,0,.85.46,1.15-.9a21.6,21.6,0,0,0,.78-5.53C18.31,14.08,18.27,13.89,18.23,13.7Z"/><path class="cls-3" d="M19.41,30.54c-.83-.55-2.13-1.62-2.13-1.62A26.38,26.38,0,0,1,14,26.56a30.16,30.16,0,0,0,4.3,2.63c1.55.63,1.75.42,1.75.42s-.33-.36-.82-.54a10,10,0,0,1-2-1.17l-1.1-.81a5.38,5.38,0,0,0,2.58,1.1,1,1,0,0,0-.09-.37,1.85,1.85,0,0,0-1-.73,23.75,23.75,0,0,1-3.74-1.71,12.46,12.46,0,0,1-1.15-1,14.08,14.08,0,0,0,5,2.36,48.61,48.61,0,0,0,.87-10.14c0-.47-.06-.91-.11-1.34,0,7-1.25,5.66-1.25,5.66C17,22.42,16.15,22,16.15,22c-.3,1.14-.9.58-.9.58-.23,1.2-.9.55-.9.55.13,1.46-1-.07-1-.07,0,.88-1.22-.55-1.22-.55s.09.52-.58.32a4.41,4.41,0,0,1-1.5-1.2s0,.81-1,.23a8,8,0,0,1-1.89-1.75c0,.32.17.88-1,0a4.8,4.8,0,0,1-.94-1h0a17.2,17.2,0,0,0,1.63,3.12,23.37,23.37,0,0,0,3.36,3.32c1.62,1.16,8.5,5.69,10.16,5.79C20.34,31.19,19.87,30.85,19.41,30.54Z"/><path class="cls-4" d="M13.94,25.38a23.75,23.75,0,0,0,3.74,1.71l.06-.32a14.08,14.08,0,0,1-5-2.36A12.46,12.46,0,0,0,13.94,25.38Z"/><path class="cls-5" d="M17.66,12.67a4.11,4.11,0,0,1,.57,1,12.45,12.45,0,0,0-.77-2.31,8.57,8.57,0,0,0-3.33-3.95S13.65,4,11.36,2.07A8.92,8.92,0,0,0,4.82,0C2.7.07,1.95,1,1.71,1.72A3.48,3.48,0,0,0,1.9,3.89,33.93,33.93,0,0,1,5.24,7.38a3,3,0,0,1,1-.55,3.68,3.68,0,0,0,1.61-.58,4.32,4.32,0,0,1-.52,2,18.7,18.7,0,0,0-2,2.63,8.88,8.88,0,0,0-.85,2.89,4.91,4.91,0,0,0,.4,1.59c.66,1.36,1.73,1.4,1.66.36,0,0,1.83,3.21,1.73.73,0,0,1.66,2.19,1.69.94,0,0,1.13,1.19,1.36-.08,0,0,.83,1.07,1,0,0,0,.7,1.33,1.23-.39,0,0,1.1,1.3,1.53-.91,0,0,.7,1.13.93-.2,0,0,.66.49.8-1.12,0,0,1.12.38.87-2.1Z"/><path class="cls-8" d="M4.62,17.52h0l-.39-.57,0,0-.06-.09,0-.06,0-.06L4,16.58a10.46,10.46,0,0,0,.28,1.09,14.61,14.61,0,0,0,.94,1.47,13.4,13.4,0,0,1-.48-1.46Z"/><path class="cls-9" d="M4.42,13.81a10.56,10.56,0,0,1-.05-1.2h0c0-.05,0-.1,0-.15v0c0-.06,0-.11,0-.16a9.41,9.41,0,0,0-.52,3.07A6.42,6.42,0,0,0,4,16.58c.16.24.43.66.74,1.1A10.43,10.43,0,0,1,4.42,13.81Z"/><path class="cls-6" d="M7.31,8.29a4.32,4.32,0,0,0,.52-2,3.68,3.68,0,0,1-1.61.58,3,3,0,0,0-1,.55l0,0a3.22,3.22,0,0,1,0,3,8.09,8.09,0,0,0-.89,1.86,11.19,11.19,0,0,0,0,1.54,8.88,8.88,0,0,1,.85-2.89A18.7,18.7,0,0,1,7.31,8.29Z"/><path class="cls-3" d="M18.58,31.07a6,6,0,0,0-2-1.13v0s-6.85-6.43-6.45-4.83.2,5.12.17,6.75.91.75.91.75c-.15,1.75,1.35,0,1.35,0-.33,3.93,1.45-.1,1.45-.1-.12.91.12,1.56,1,.56a6.23,6.23,0,0,0,.85-1.35c.1.6.31,1.43.73,1.66.66.37.56-1.46.56-1.46s.62,1.83,1.37,2.19S18.85,31.55,18.58,31.07Z"/><path class="cls-4" d="M16.63,26.4a17.71,17.71,0,0,0,.19-2.11c0-.89-.1.44-.32,1.79l0,.26-.25-.09a10.16,10.16,0,0,0,.23-1.15c0-.5-.1-.15-.16.27,0,.18-.12.54-.18.84L15.52,26a7,7,0,0,0,.1-.83c0-.28-.12-.07-.22.47l-.06.32A2.14,2.14,0,0,0,15,26a20.58,20.58,0,0,1,2.63,1.14l0-.21C17.31,26.68,16.94,26.52,16.63,26.4Z"/><path class="cls-10" d="M4.22,3.93s-.28-1.77.35-2a2.7,2.7,0,0,1,2.31,0c1,.4,1.59.53,1.59,1.71s-.41,2.89-1.3,3.35a2.13,2.13,0,0,1-1.94,0A4.22,4.22,0,0,1,4.22,3.93Z"/><ellipse class="cls-11" cx="6.01" cy="3.02" rx="0.97" ry="0.95"/><ellipse class="cls-12" cx="5.83" cy="3.02" rx="0.58" ry="0.57"/><ellipse class="cls-10" cx="6.13" cy="2.49" rx="0.29" ry="0.29"/><path class="cls-13" d="M3.18,6.75a5.32,5.32,0,0,0,3.11.65s.57-.4-.22-1.61S4.67,4.36,4.22,4.58A2.1,2.1,0,0,0,3.18,6.75Z"/><path class="cls-4" d="M18.73,28.2a5.38,5.38,0,0,1-2.58-1.1l1.1.81S18.66,28.46,18.73,28.2Z"/><path class="cls-4" d="M19.74,29.79c.28,0,.4-.06.36-.18s-.21.21-1.75-.42A30.16,30.16,0,0,1,14,26.56a26.38,26.38,0,0,0,3.24,2.35A12,12,0,0,0,19.74,29.79Z"/><path class="cls-4" d="M20.37,31.37C19.5,31.32,17.19,30,15,28.68a.15.15,0,0,0-.08-.05c-2-1.22-3.91-2.5-4.67-3a24.5,24.5,0,0,1-3.55-3.53l.18.21a17.21,17.21,0,0,1-1.63-3.12h0c-.17-.23-.34-.48-.5-.73h0L4.49,18h0l-.21-.36A16.49,16.49,0,0,0,5.82,21l0,0,0,0a16.86,16.86,0,0,0,5.42,5.73l.25.16c0,.46,0,1.6,0,2.14a12.51,12.51,0,0,0,.5-1.83l1.11.7c0,.32-.1,1.86-.19,2.32a9.21,9.21,0,0,0,.49-2.13l1.12.68h0a15.07,15.07,0,0,1-.32,3.09A14.59,14.59,0,0,0,15,29.14l1,.57a7.77,7.77,0,0,1,0,1.06,5.16,5.16,0,0,1,.36-.86l.47.27a5.23,5.23,0,0,0,.24,1.2,5.37,5.37,0,0,1,.12-1,11.51,11.51,0,0,0,2.21,1C20.14,31.55,20.39,31.52,20.37,31.37ZM5.92,21.17l-.06-.07Zm.7.84-.31-.37Zm-.35-.41L6,21.31ZM6,21.28l-.08-.09Z"/><path class="cls-14" d="M3.12,7.45a1.08,1.08,0,0,1,0-.62,3.47,3.47,0,0,1,.72-1.76c.57-.71.57-1.08.5-1.25A3.4,3.4,0,0,0,1.91,2.56a4.46,4.46,0,0,0,1.68,6,4.18,4.18,0,0,1-.47-1.14h0Z"/><polygon class="cls-13" points="3.12 7.45 3.12 7.45 3.12 7.45 3.12 7.45"/><path class="cls-13" d="M3.86,5.08a3.47,3.47,0,0,0-.72,1.76l0-.08c.35-.59,1.46-1.43,1.4-2.36a1.19,1.19,0,0,0-.21-.57C4.43,4,4.43,4.36,3.86,5.08Z"/><path class="cls-15" d="M4.76,5a14.34,14.34,0,0,1-.83,1.38c-.28.36.93.37,1.13.37s.81-.15.7-.62S5,4.5,4.76,5Z"/><path class="cls-16" d="M1.93,2.91a6.66,6.66,0,0,0-.33,2c.06.84.56,2,.66,1.66s-.13-1.53.43-2.2.58-1,.18-1.29S2,2.6,1.93,2.91Z"/><path class="cls-17" d="M18.35,14.27a21.6,21.6,0,0,1-.78,5.53c-.3,1.36-1.15.9-1.15.9-.15,1.61-1,1.07-1,1.07-.15.85-1.17.17-1.17.17,0,1.19-.85.58-.85.58-.12.51-1.05-.37-1.05-.37-.23.76-2-.85-2-.85-.2.56-1-.73-1-.73,0,1-1.89-1.29-1.89-1.29,0,.78-.6.41-1.27,0a7.36,7.36,0,0,1-1.37-1.61,13.4,13.4,0,0,0,.48,1.46,4.8,4.8,0,0,0,.94,1c1.2.88,1,.32,1,0A8,8,0,0,0,9.08,21.9c1,.58,1-.23,1-.23a4.41,4.41,0,0,0,1.5,1.2c.66.19.58-.32.58-.32s1.22,1.43,1.22.55c0,0,1.16,1.53,1,.07,0,0,.66.65.9-.55,0,0,.6.55.9-.58,0,0,.86.39,1.1-1.07,0,0,1.24,1.37,1.25-5.66C18.46,14.94,18.41,14.6,18.35,14.27Z"/><path class="cls-16" d="M4.23,16.94l.39.57Z"/><path class="cls-16" d="M4.28,17.67l.21.36Z"/></svg>