<svg id="Layer_1" data-name="Layer 1" xmlns="http://www.w3.org/2000/svg" viewBox="0 0 51.11 56.63"><defs><style>.cls-1{fill:#342c29;}.cls-2{fill:#4e423e;}.cls-3{fill:#8b756d;}.cls-4{fill:#685852;}.cls-5{fill:#8e423e;}.cls-6{fill:#ff756d;}.cls-7{fill:#e86767;}.cls-8{fill:#04173c;}.cls-9{fill:#2b90f3;}.cls-10{fill:#98e2ea;}.cls-11{fill:#97dadd;}.cls-12{fill:#b77748;}.cls-13{fill:#895936;}.cls-14{fill:#1c1308;}.cls-15{fill:#060608;}.cls-16{fill:#206eb6;}.cls-17{fill:#515657;}.cls-18{fill:#292b2c;}.cls-19{fill:#151616;}.cls-20{fill:#72aab0;}.cls-21{fill:#0b1314;}.cls-22{fill:#395558;}.cls-23{fill:#3d4141;}.cls-24{fill:#212325;}.cls-25{fill:#293133;}.cls-26{fill:#1f2526;}</style></defs><title>cassowary</title><path class="cls-1" d="M24.52,53.5a1.48,1.48,0,0,0,1.22.48,2.91,2.91,0,0,1,1.92.47,2.64,2.64,0,0,1,.37.49c.12.17-.1.09-.29-.05a1.77,1.77,0,0,0-.46-.06A11.47,11.47,0,0,0,26,54.78c-.63,0-2,.31-2,0S24.24,53.3,24.52,53.5Z"/><path class="cls-2" d="M20.76,33.09c-.63.48,0,2.13-.47,3.13a4.11,4.11,0,0,0-.65,2.63c.15,1,1.27,5.52,1.17,7s.24,5.43,0,6.3a1.94,1.94,0,0,0,.27,2c.31.34.43.92.84,1,.59.08,1,.26,1.46.31.78.08,2.28-.68,3-.41s1.61.22,2,.4.21-.16,0-.37a3.77,3.77,0,0,0-1.5-.92c-.55-.11-1.5.08-2.25-.6s-.81-.62-1-1.39A32.44,32.44,0,0,1,23.13,47c.09-1.13-.43-4.06-.32-4.72s1.29-2.44,1.5-3.44a4.3,4.3,0,0,1,2.06-2.63C27.38,35.7,21.71,32.37,20.76,33.09Z"/><path d="M18.45,33.58a2.27,2.27,0,0,1,1.76,1.81c.23.74-.69,3.64.66,3.23.75-.22,1.18.24,1.77.61.41.25,1.16.38,1.29.66s1-1,1.47-1.59a9.78,9.78,0,0,0,1.29-2.37,5.27,5.27,0,0,1,1.62-2.64c.79-.54.41-2.8-2.46-2.84S17.75,33.42,18.45,33.58Z"/><path class="cls-2" d="M24,54.51a2.92,2.92,0,0,1,1.92.47,2.66,2.66,0,0,1,.37.49c.12.17-.1.09-.29-.05a1.79,1.79,0,0,0-.46-.06,5.26,5.26,0,0,0-1.34,0C23.55,55.45,23.18,54.51,24,54.51Z"/><path class="cls-3" d="M43,4.78a.81.81,0,0,1-.09-1c.28-.42.77-1.65,1.37-2s.46-.59.74-1S46.16-.22,46.57.07a5.33,5.33,0,0,1,1.82,2.48,8.38,8.38,0,0,1,0,2.56c-.09.32.06.23.36.31s1,.21,1.12.47-1.39.44-1.85.27-3.54-.22-4.18-.64S43.13,5,43,4.78Z"/><path class="cls-2" d="M49.87,5.88c-.12-.26-.81-.38-1.12-.47s-.45,0-.36-.31a8.38,8.38,0,0,0,0-2.56A5.33,5.33,0,0,0,46.57.07l0,0a6.28,6.28,0,0,1,1.35,2.18,11.74,11.74,0,0,1,.14,2c.15.55,0,1.75-.86,1.81a4.91,4.91,0,0,1,.87.12C48.47,6.32,50,6.14,49.87,5.88Z"/><path class="cls-4" d="M46.18.34c-.32.17-1,.64-1.05,1a1.53,1.53,0,0,1-.84,1.1c-.43.14-1.29,1.81-1,1.74a5.56,5.56,0,0,1,2.79,0c.41.15,1,.37,1.08.07a4.71,4.71,0,0,0,.27-1.68C47.33,1.75,46.63.09,46.18.34Z"/><path class="cls-2" d="M49.87,5.88a.42.42,0,0,0-.18-.17,10.22,10.22,0,0,0-1.62-.25,1.66,1.66,0,0,1-.69-.1c-.13-.08-.49-.46-.86-.71A3.09,3.09,0,0,0,45,4.36H43.71c-.23,0-.85.2-.76.33l.06.1c.12.21.2.31.83.73S47.57,6,48,6.15,50,6.14,49.87,5.88Z"/><path class="cls-5" d="M44,18.18c-.15.61-.6,2.29-.28,2.49s.79-.53.85-1.13a7,7,0,0,0-.19-2.26C44.19,17,44.09,17.73,44,18.18Z"/><path class="cls-6" d="M45.53,15.42a7.4,7.4,0,0,0-.28,1.86c0,.56.12,1.43.18,1.92s.2,1.8-.18,1.79-.67,0-.8-.9.26-1.81-.13-2.41.1-.88.36-1.42S45.62,15.1,45.53,15.42Z"/><path class="cls-7" d="M45,16.85c-.07-.31.34-.73,0-1.11a2.49,2.49,0,0,0-.35.52c-.26.54-.69.91-.36,1.42a3.08,3.08,0,0,1,.11,1.77,3.2,3.2,0,0,0,.13.87c.1.33.55.52.66.26a2.76,2.76,0,0,0,0-1.06c0-.27-.11-.78-.14-1.31S45.06,17.12,45,16.85Z"/><path class="cls-8" d="M47.45,6.83A8.15,8.15,0,0,1,46,7.7c-.45.2-.52.62-.8.54A.4.4,0,0,1,45,7.53c.31-.35.21-.54.8-.68S47.7,6.63,47.45,6.83Z"/><path class="cls-9" d="M50.84,6.28a5.08,5.08,0,0,0-1.78-.64c-.62-.08-1.24-.09-1.52-.12s-.6-.6-1.25-.87a5.87,5.87,0,0,0-1.88-.21,2.33,2.33,0,0,0-1.67.42c-.57.33-.61,1.13-1,1.78A5.39,5.39,0,0,0,41.5,9c.07.76.39,1,.71,1.92a2.3,2.3,0,0,1-.57,2.59C40.91,14,38,16.27,39.47,18s3.15,2.9,3.73,2.2,1.37-3.24,2-4a6,6,0,0,0,.55-3.71,24.63,24.63,0,0,1-.64-3.73,3.85,3.85,0,0,1,.86-1.5c.41-.32,1.11-.25,1.52-.35a8.88,8.88,0,0,1,1.82-.14c.54,0,1.41.08,1.54.06s.12-.07.18-.06.11,0,.11-.06A.61.61,0,0,0,50.84,6.28Z"/><path class="cls-10" d="M50.38,6.8a2.48,2.48,0,0,0,.27-.64,5.4,5.4,0,0,0-1.58-.52c-.62-.08-1.24-.09-1.52-.12s-.6-.6-1.25-.87a5.87,5.87,0,0,0-1.88-.21,2.33,2.33,0,0,0-1.67.42c-.57.33-.61,1.13-1,1.78A5.39,5.39,0,0,0,41.5,9V9c.08-1.18.77-2,1.51-1.87a2.52,2.52,0,0,0,1.71-.29c.27-.16.22-.59.68-.51a8.37,8.37,0,0,1,2.72.42,11.16,11.16,0,0,1,1.18,0Z"/><path class="cls-11" d="M46.29,5.87a2.08,2.08,0,0,1-.36-.36c-.16-.2-.23-.36-.48-.31s-.47.39-.85.42-.44.21-.25.4a2.07,2.07,0,0,0,1.08.3,2.34,2.34,0,0,0,1-.12C46.57,6.09,46.37,5.94,46.29,5.87Z"/><path class="cls-11" d="M47.55,5.52c-.28,0-.6-.6-1.25-.87a5.87,5.87,0,0,0-1.88-.21,2.33,2.33,0,0,0-1.67.42c-.45.26-.57.8-.78,1.34.05-.14.15-.29.19-.38a2.54,2.54,0,0,1,1.17-1.09,2.4,2.4,0,0,1,1.25.06c.23,0,.24-.13.63-.15a2.55,2.55,0,0,1,1.42.4c.26.24.42.29.59.56,0,.06.33.08.47.15s.23-.08.32-.21Z"/><path class="cls-9" d="M46.09,5.91a.47.47,0,0,1-.16-.17.53.53,0,0,0-.31-.29.46.46,0,0,0-.47.15c-.08.14-.16.28,0,.44s.17.27.41.24S45.9,6,46,6,46.14,6,46.09,5.91Z"/><ellipse class="cls-12" cx="45.5" cy="5.86" rx="0.35" ry="0.34" transform="matrix(0.97, -0.26, 0.26, 0.97, 0.02, 11.89)"/><path class="cls-13" d="M45.15,5.84c.07.15.51.18.68-.1a.34.34,0,0,0-.41-.2A.35.35,0,0,0,45.15,5.84Z"/><path class="cls-14" d="M45.84,5.76a.37.37,0,0,1,0,.27.33.33,0,0,1-.09.11.35.35,0,0,1-.13.06.4.4,0,0,1-.28,0,.38.38,0,0,1-.11-.09A.33.33,0,0,1,45.14,6a.36.36,0,0,1,0-.28.38.38,0,0,1,.23-.17h.14a.36.36,0,0,1,.24.14A.4.4,0,0,1,45.84,5.76Zm0,0a.29.29,0,0,0-.17-.19l-.12,0h-.12a.33.33,0,0,0-.2.14.32.32,0,0,0,0,.24.29.29,0,0,0,.15.19.35.35,0,0,0,.25,0,.35.35,0,0,0,.2-.14A.32.32,0,0,0,45.83,5.77Z"/><path class="cls-15" d="M45.66,5.82a.14.14,0,0,1-.1.17.12.12,0,0,1-.15-.11.13.13,0,0,1,.25-.06Z"/><path class="cls-11" d="M47.67,5.76c.06,0,.13.15,0,.27a3.33,3.33,0,0,1-.87.3,4.14,4.14,0,0,0,1.15-.13c.23-.13.39-.06.25-.26S47.61,5.72,47.67,5.76Z"/><path class="cls-16" d="M47.5,6.88c0-.19-.36-.36-.6-.36s-.32,0-.49.06-.23.19-.3.27,0,.22-.3.52l.13-.13c.41-.32,1.11-.25,1.52-.35Z"/><path class="cls-17" d="M51.11,6.69a.61.61,0,0,0-.27-.42,5.08,5.08,0,0,0-1.78-.64c-.5-.06-1-.08-1.31-.1-.1,0,0,.09-.09.15s.12.07.21.21,0,.19-.27.27a8.27,8.27,0,0,1-1.46.22c-.39,0-.94.06-.94.16s.21.09.32.09a11.56,11.56,0,0,1,1.62-.05c.16.06.06.28.27.32h0a8.88,8.88,0,0,1,1.82-.14c.54,0,1.41.08,1.54.06s.12-.07.18-.06S51.12,6.78,51.11,6.69Z"/><path class="cls-18" d="M50.55,6.67c-.21-.05-.68-.12-.91-.2a2.24,2.24,0,0,0-.71-.13,7.84,7.84,0,0,0-1.48.12,3.53,3.53,0,0,1-.56.09,1,1,0,0,1,.24,0c.16.06.06.28.27.32h0a8.88,8.88,0,0,1,1.82-.14c.54,0,1.41.08,1.54.06l.11,0Z"/><path class="cls-19" d="M50.94,6.76h0l-.26-.07-.35-.08-.7-.17a5.45,5.45,0,0,0-.71-.11c-.24,0-.48,0-.72,0H48l-.18,0-.36,0-.72.06c-.48,0-1,.08-1.43.14h0l.72,0,.72-.05.71-.09.36,0h.36l.71,0a6.32,6.32,0,0,1,.71.11l.35.08.35.07.35.06.26.05h.05Z"/><path class="cls-16" d="M43.39,7.74c-.32-.21.44.47.86,1.21a3.21,3.21,0,0,1,.2,1.05c.24,1,.61,1.52.69,2.22s.3.91.27.55-.3-1.94-.38-2.44a2.88,2.88,0,0,1,.06-1,1.9,1.9,0,0,1,0-.62,4.69,4.69,0,0,1,.67-1.31c-.64.74-.61.47-1.12.59A1.55,1.55,0,0,1,43.39,7.74Z"/><path class="cls-11" d="M43.22,5.29a.87.87,0,0,0-.16.43c0,.14-.14.55.08.69s.43.31.66,0,.29-.37.28-.6.11-.42-.05-.57A.74.74,0,0,0,43.22,5.29Z"/><path class="cls-20" d="M43.26,5.54a.83.83,0,0,0-.09.72c.13.29.44.35.53.12s.16-.28.11-.53-.25-.41-.34-.41S43.29,5.47,43.26,5.54Z"/><path class="cls-21" d="M43.33,5.94c-.07,0-.08.06,0,.19s.19.24.24.14a.44.44,0,0,0,.07-.2C43.56,5.91,43.41,5.9,43.33,5.94Z"/><path class="cls-20" d="M43.22,5.49a.31.31,0,0,1,.37,0c.14.09.23.2.23.29s.06.17.06.1,0-.17,0-.29-.07-.18-.21-.19-.29,0-.36.05S43.18,5.52,43.22,5.49Z"/><path class="cls-22" d="M43.26,6.13s0-.12,0-.16,0-.06.09-.06.11,0,.07,0a.23.23,0,0,0-.15,0s0,0,0,.11S43.27,6.17,43.26,6.13Z"/><path class="cls-23" d="M50.11,6.22A.39.39,0,0,0,50,6c-.07,0-.13-.12-.25-.11a.44.44,0,0,0-.28.08c0,.06-.06.21.06.24a.89.89,0,0,0,.39.05C50,6.24,50.12,6.25,50.11,6.22Z"/><path class="cls-24" d="M50,6c-.07,0-.13-.12-.25-.11a.44.44,0,0,0-.28.08c0,.06-.06.21.06.24h0s.11,0,.22-.08.36.07.34,0A.31.31,0,0,0,50,6Z"/><path class="cls-24" d="M49.39,6.11s0-.12,0-.14a.29.29,0,0,1,.16-.07.61.61,0,0,1,.23,0c.07,0,0,0,0,0l-.13,0h-.1l-.11,0a.11.11,0,0,0-.08.05.26.26,0,0,0,0,.12S49.39,6.13,49.39,6.11Z"/><path class="cls-23" d="M49.71,6.3a.54.54,0,0,0,.16,0l.15,0s.08,0,0,0a.22.22,0,0,0-.1,0h-.25Z"/><path class="cls-9" d="M42.9,6.48a.57.57,0,0,1-.07.44c-.1.1-.05.2-.27.28-.4.15.52.34.91.28.62-.1,1.15-.5.87-.42S44,7.13,44,6.9s.4-.44.18-.41-.53.18-.76.2C43,6.71,42.86,6.36,42.9,6.48Z"/><path class="cls-11" d="M41.75,6.65a1.42,1.42,0,0,0-.14.34.2.2,0,0,0,.09.22c.16.12.16.07.13-.18a1.75,1.75,0,0,1,.12-.8A3.06,3.06,0,0,1,41.75,6.65Z"/><path class="cls-16" d="M45.17,16.18A3.18,3.18,0,0,0,45.65,15c-.29.79-1.07-1.08-1.34-1.67-.37-.82-1,0-1.28.43s-.47.71-.55.31-1.31.49-1.31.49-.58.79-1.24,1.89.94,2.3,2.54,2.46a2.42,2.42,0,0,0,1.8-.82A10.69,10.69,0,0,1,45.17,16.18Z"/><path class="cls-6" d="M42.7,11.08c-.25-.55-.72-1.56-.8-1.88a3.29,3.29,0,0,1-.21-.77c0-.35,0-.75,0-.93s-.1-.16-.12,0A8.21,8.21,0,0,0,41.5,9c.07.76.39,1,.71,1.92a2.3,2.3,0,0,1-.57,2.59c-.53.38-2.2,1.66-2.52,3,1.07-.43,3-2.54,3.46-3A2.62,2.62,0,0,0,42.7,11.08Z"/><path class="cls-7" d="M42.55,12.21c0-.13-.14-.52-.27-1a2.22,2.22,0,0,1-.65,2.3,10.5,10.5,0,0,0-1.32,1.12.67.67,0,0,0,.1.13,8.6,8.6,0,0,0,1.69-1.34A1.28,1.28,0,0,0,42.55,12.21Z"/><path class="cls-25" d="M41.85,17.14c.42-.44,1.29-.69,1.29-1.36s0-2.4.44-2.1a3.31,3.31,0,0,1,1.15,2.05,7.18,7.18,0,0,1-.54,2.76c-.13.4-1.12,1.39-1.74,2.49-.93,1.66-2.29,3.51-3,5s-3.74,3.66-5.81,4.8S27,34.68,23,34.51s-10.31,0-12.72,1.54-4.72,2.31-5,3-.46,1.14-1,1a2.6,2.6,0,0,0-1.26,0c-.34,0-.69-.11-1.11-.6S.8,38.75.61,39,.22,37.64.34,36s.31-3.89,0-3.81-.54-1,.23-2.06.5-1.3.57-2.06A4.75,4.75,0,0,1,3,25.48c.88-.57.27-1,.88-1.45s.88-2.32,2.56-3.24S14.7,16,17,15.46a101.33,101.33,0,0,1,12.49-1.6c3.51-.21,8.39.09,9.07.09A11.12,11.12,0,0,1,41,14s0,0,0,0c-.14.16.51.41.79.4s.18.64.06,1a7,7,0,0,0-.38,1.49C41.44,17.36,41.69,17.32,41.85,17.14Z"/><path class="cls-26" d="M14.51,27.69c.92-1.18,1.95-2.78.88-3.09s-2.41-.11-2.22-.84-2-.46-2.67-.23-2.25-.31-2.22-.72.34-1-.65-1.18-1.45.57-1-.42A5.09,5.09,0,0,1,7.95,20l-1.49.84C4.77,21.71,4.5,23.54,3.89,24s0,.88-.88,1.45A4.75,4.75,0,0,0,1.1,28.11c-.08.76.19,1-.57,2.06S0,32.31.3,32.23.45,34.44.34,36,.42,39.2.61,39s.84,0,1.26.53.76.65,1.11.6a2.6,2.6,0,0,1,1.26,0c.57.15.76-.27,1-1s2.58-1.49,5-3a6.68,6.68,0,0,1,1.69-.72,15.08,15.08,0,0,1,1-2.22C13.63,31.47,13.59,28.87,14.51,27.69Z"/><path class="cls-26" d="M24,21c.53,1.11.8.72,1.83,3s2.29,3.35,2.29,4.88-.31,4-.4,4.8h0a37.73,37.73,0,0,0,6-2.86c2.06-1.14,5.19-3.39,5.81-4.8a20.6,20.6,0,0,1,1.42-2.52,5.54,5.54,0,0,1-1-1.37c-.42-1-.57-1.3-1.6-.76s-2.1-.65-3.74.46-2.33,1.32-3.36.87-2.1.43-2.6.66S23.45,19.88,24,21"/><path class="cls-26" d="M31.43,13.79c-.67,0-1.33,0-1.95.07A101.33,101.33,0,0,0,17,15.46C14.7,16,8.13,19.88,6.45,20.8a3.69,3.69,0,0,0-.95.74c.09,1.34.6,2.12,1.06,1.28,1-1.87,4.32-2.71,5-3.85s4.32-1.45,4.93-2.06,3.86-.69,5.31-1.57C22.73,14.77,27.82,14.16,31.43,13.79Z"/><path class="cls-26" d="M44.2,18.5a10.79,10.79,0,0,0,.48-1.79A3.27,3.27,0,0,1,42.94,19c-.83.61-2.39,4.19-2.78,3.54-.2-.32-.28,1.85-.19,2.55.72-1.31,1.74-2.76,2.48-4.08C43.07,19.89,44.06,18.9,44.2,18.5Z"/><path class="cls-26" d="M28,31.15c-.23,1.3-2.43,1-4,1.72s-4.58.63-7.22.8-3.68-.37-3.53-1.38-3.39,2.27-3.14,3.88l.2-.13c2.41-1.54,8.68-1.71,12.72-1.54,3.41.14,7.23-1.77,9.57-3.06C31.67,30.8,28.06,30.73,28,31.15Z"/><path class="cls-4" d="M21.06,54.63a1.4,1.4,0,0,0,1.19.42,2.92,2.92,0,0,1,1.92.47,2.66,2.66,0,0,1,.37.49c.12.17-.1.09-.29-.05a1.79,1.79,0,0,0-.46-.06,11.46,11.46,0,0,0-1.29-.05c-.63,0-2,.31-2,0S20.79,54.42,21.06,54.63Z"/><path class="cls-3" d="M17.26,34.17c-.63.48,0,2.13-.47,3.13a4.12,4.12,0,0,0-.65,2.63c.15,1,1.27,5.52,1.17,7s.24,5.43,0,6.3a1.94,1.94,0,0,0,.27,2c.31.34.43.92.84,1,.59.08,1,.26,1.46.31.78.08,2.28-.68,3-.41s1.61.22,2,.4.21-.16,0-.37a3.78,3.78,0,0,0-1.5-.92c-.55-.11-1.5.08-2.25-.6s-.81-.62-1-1.39a32.43,32.43,0,0,1-.47-5.11c.09-1.13-.43-4.06-.32-4.72S20.6,41,20.81,40a4.3,4.3,0,0,1,2.06-2.63C23.88,36.79,18.22,33.45,17.26,34.17Z"/><path class="cls-4" d="M18.39,55.71a2.89,2.89,0,0,1-.6-2.46c.32-.8-.11-3.29-.2-4.29A32.64,32.64,0,0,0,17.45,45c-.25-1.09-.55-3.61-.86-4.7s-.27-1,0-1.31A2.72,2.72,0,0,1,18,37.82c.17-.06.16-1-1.12-.69a1.49,1.49,0,0,1-.07.17,4.12,4.12,0,0,0-.65,2.63c.15,1,1.27,5.52,1.17,7s.24,5.43,0,6.3a1.94,1.94,0,0,0,.27,2c.31.34.43.92.84,1,.59.08,1,.26,1.46.31h.28A3.76,3.76,0,0,1,18.39,55.71Z"/><path class="cls-26" d="M15.16,34.72a1.66,1.66,0,0,1,1.51,1.84c-.09.43,0,1.79.54,2.23.43.32,2.62,1.55,2.81,2.11.46,1.43,3.17-2.74,3.58-3.89a5.49,5.49,0,0,1,2.75-2.93c.93-.21-.73-2.51-3.59-2.55S14.45,34.73,15.16,34.72Z"/><path class="cls-3" d="M20.61,55.57a2.92,2.92,0,0,1,1.92.47,2.65,2.65,0,0,1,.37.49c.12.17-.1.09-.29-.05a1.78,1.78,0,0,0-.46-.06,8.77,8.77,0,0,0-1.49,0c-.62.08-1.29-.19-1.34-.51S19.83,55.57,20.61,55.57Z"/></svg>