<svg id="Layer_1" data-name="Layer 1" xmlns="http://www.w3.org/2000/svg" xmlns:xlink="http://www.w3.org/1999/xlink" viewBox="0 0 55.13 50.35"><defs><style>.cls-1{fill:#fff;}.cls-2{fill:#fbfbfb;}.cls-3{fill:#f8f8f8;}.cls-4{fill:#f4f4f4;}.cls-5{fill:#f1f1f1;}.cls-6{fill:#ededed;}.cls-7{fill:#e9e9e9;}.cls-8{fill:#e6e6e6;}.cls-9{fill:#e2e2e2;}.cls-10{fill:#dedede;}.cls-11{fill:#dbdbdb;}.cls-12{fill:#d7d7d7;}.cls-13{fill:#d4d4d4;}.cls-14{fill:#d0d0d0;}.cls-15{fill:#ccc;}.cls-16{fill:#c9c9c9;}.cls-17{fill:#c5c5c5;}.cls-18{fill:#c1c1c1;}.cls-19{fill:#bebebe;}.cls-20{fill:#bababa;}.cls-21{fill:#b7b7b7;}.cls-22{fill:#b3b3b3;}.cls-23{fill:url(#linear-gradient);}.cls-24{fill:url(#linear-gradient-2);}.cls-25{fill:url(#linear-gradient-3);}.cls-26{fill:url(#linear-gradient-4);}.cls-27{fill:#202020;}.cls-28{fill:url(#linear-gradient-5);}.cls-29{fill:url(#linear-gradient-6);}.cls-30{fill:url(#linear-gradient-7);}.cls-31{fill:url(#linear-gradient-8);}.cls-32{fill:url(#linear-gradient-9);}.cls-33{fill:url(#linear-gradient-10);}.cls-34{fill:url(#linear-gradient-11);}.cls-35{fill:url(#linear-gradient-12);}.cls-36{fill:#303030;}.cls-37{fill:url(#linear-gradient-13);}.cls-38{fill:url(#linear-gradient-14);}.cls-39{fill:#101010;}.cls-40{fill:url(#linear-gradient-15);}.cls-41{fill:url(#linear-gradient-16);}.cls-42{fill:url(#linear-gradient-17);}.cls-43{fill:url(#linear-gradient-18);}.cls-44{fill:url(#linear-gradient-19);}.cls-45{fill:url(#linear-gradient-20);}.cls-46{fill:none;}.cls-47{fill:url(#radial-gradient);}.cls-48{fill:url(#radial-gradient-2);}.cls-49{fill:url(#radial-gradient-3);}.cls-50{fill:url(#radial-gradient-4);}.cls-51{fill:url(#radial-gradient-5);}.cls-52{fill:url(#radial-gradient-6);}.cls-53{fill:url(#radial-gradient-7);}.cls-54{fill:url(#radial-gradient-8);}.cls-55{fill:url(#radial-gradient-9);}.cls-56{fill:url(#radial-gradient-10);}.cls-57{fill:url(#radial-gradient-11);}.cls-58{fill:url(#radial-gradient-12);}.cls-59{fill:url(#radial-gradient-13);}.cls-60{fill:url(#radial-gradient-14);}.cls-61{fill:url(#radial-gradient-15);}.cls-62{fill:url(#radial-gradient-16);}.cls-63{fill:url(#radial-gradient-17);}.cls-64{fill:url(#radial-gradient-18);}.cls-65{fill:url(#radial-gradient-19);}.cls-66{fill:url(#radial-gradient-20);}.cls-67{fill:url(#radial-gradient-21);}.cls-68{fill:url(#radial-gradient-22);}</style><linearGradient id="linear-gradient" x1="-1819.51" y1="772.67" x2="-1814.93" y2="765.07" gradientTransform="translate(753.28 1829.77) rotate(90.63)" gradientUnits="userSpaceOnUse"><stop offset="0" stop-color="#505050"/><stop offset="1" stop-color="#303030"/></linearGradient><linearGradient id="linear-gradient-2" x1="-1767.19" y1="679.25" x2="-1761.49" y2="673.31" gradientTransform="translate(959.18 1635.06) rotate(80.63)" gradientUnits="userSpaceOnUse"><stop offset="0" stop-color="#a7a7a7"/><stop offset="1" stop-color="#404040"/></linearGradient><linearGradient id="linear-gradient-3" x1="-1815.16" y1="765.17" x2="-1811.57" y2="754.1" gradientTransform="translate(753.28 1829.77) rotate(90.63)" gradientUnits="userSpaceOnUse"><stop offset="0" stop-color="#404040"/><stop offset="1" stop-color="#202020"/></linearGradient><linearGradient id="linear-gradient-4" x1="-1815.31" y1="764.42" x2="-1811.73" y2="753.72" gradientTransform="translate(753.28 1829.77) rotate(90.63)" gradientUnits="userSpaceOnUse"><stop offset="0" stop-color="#9f9f9f"/><stop offset="1" stop-color="#303030"/></linearGradient><linearGradient id="linear-gradient-5" x1="-1813.99" y1="722.14" x2="-1811.55" y2="726.88" xlink:href="#linear-gradient"/><linearGradient id="linear-gradient-6" x1="-1813.67" y1="722.18" x2="-1811.37" y2="727.25" gradientTransform="translate(753.28 1829.77) rotate(90.63)" xlink:href="#linear-gradient-2"/><linearGradient id="linear-gradient-7" x1="-1812.09" y1="726.72" x2="-1808.8" y2="734.81" xlink:href="#linear-gradient-3"/><linearGradient id="linear-gradient-8" x1="-1805.46" y1="694.34" x2="-1803.67" y2="701.84" gradientTransform="matrix(0.05, 1, -1, 0.05, 831.7, 1777.98)" xlink:href="#linear-gradient-4"/><linearGradient id="linear-gradient-9" x1="-1821.36" y1="752.9" x2="-1816.13" y2="748.21" xlink:href="#linear-gradient"/><linearGradient id="linear-gradient-10" x1="-1804.95" y1="704.9" x2="-1799.82" y2="701.31" gradientTransform="translate(861.32 1746.66) rotate(85.63)" xlink:href="#linear-gradient-2"/><linearGradient id="linear-gradient-11" x1="-1816.02" y1="748.4" x2="-1810.8" y2="743.99" xlink:href="#linear-gradient-3"/><linearGradient id="linear-gradient-12" x1="-1816.28" y1="747.82" x2="-1810.79" y2="743.83" xlink:href="#linear-gradient-4"/><linearGradient id="linear-gradient-13" x1="-1805.71" y1="907.19" x2="-1811.43" y2="901.41" gradientTransform="translate(559.27 1989.88) rotate(100.63)" gradientUnits="userSpaceOnUse"><stop offset="0" stop-color="#979797"/><stop offset="1" stop-color="#303030"/></linearGradient><linearGradient id="linear-gradient-14" x1="-1777.47" y1="764.66" x2="-1781.29" y2="753.87" gradientTransform="translate(753.28 1829.77) rotate(90.63)" gradientUnits="userSpaceOnUse"><stop offset="0" stop-color="#6a6a6a"/><stop offset="1" stop-color="#202020"/></linearGradient><linearGradient id="linear-gradient-15" x1="-1779.4" y1="722.13" x2="-1781.73" y2="726.97" gradientTransform="translate(753.28 1829.77) rotate(90.63)" xlink:href="#linear-gradient-13"/><linearGradient id="linear-gradient-16" x1="-1782.78" y1="744.6" x2="-1785.41" y2="752.29" gradientTransform="translate(725.65 1849.19) rotate(92.06)" xlink:href="#linear-gradient-14"/><linearGradient id="linear-gradient-17" x1="-1782.94" y1="812.12" x2="-1788.59" y2="808.17" gradientTransform="translate(653.39 1903.96) rotate(95.63)" xlink:href="#linear-gradient-13"/><linearGradient id="linear-gradient-18" x1="-1776.74" y1="747.1" x2="-1782.12" y2="743.97" xlink:href="#linear-gradient-14"/><linearGradient id="linear-gradient-19" x1="-1787.92" y1="718.93" x2="-1792.82" y2="723.6" gradientTransform="translate(753.28 1829.77) rotate(90.63)" gradientUnits="userSpaceOnUse"><stop offset="0" stop-color="#404040"/><stop offset="1" stop-color="#303030"/></linearGradient><linearGradient id="linear-gradient-20" x1="-1803.9" y1="719.19" x2="-1799.87" y2="723.64" xlink:href="#linear-gradient-19"/><radialGradient id="radial-gradient" cx="-2429.62" cy="784.71" r="13.72" gradientTransform="matrix(-0.01, 0.68, -1.04, -0.01, 840.3, 1694.49)" gradientUnits="userSpaceOnUse"><stop offset="0" stop-color="#484848"/><stop offset="0.17" stop-color="#444"/><stop offset="0.35" stop-color="#373737"/><stop offset="0.53" stop-color="#232323"/><stop offset="0.72" stop-color="#060606"/><stop offset="0.75"/><stop offset="0.83" stop-color="#070707"/><stop offset="0.95" stop-color="#1b1b1b"/><stop offset="1" stop-color="#242424"/></radialGradient><radialGradient id="radial-gradient-2" cx="-2429.62" cy="784.71" r="13.72" gradientTransform="matrix(-0.01, 0.68, -1.04, -0.01, 840.3, 1694.49)" gradientUnits="userSpaceOnUse"><stop offset="0" stop-color="#fff"/><stop offset="0.75"/><stop offset="0.83" stop-color="#070707"/><stop offset="0.95" stop-color="#1b1b1b"/><stop offset="1" stop-color="#242424"/></radialGradient><radialGradient id="radial-gradient-3" cx="-2429.62" cy="784.71" r="13.72" gradientTransform="matrix(-0.01, 0.68, -1.04, -0.01, 840.3, 1694.49)" gradientUnits="userSpaceOnUse"><stop offset="0" stop-color="#484848"/><stop offset="0.21" stop-color="#444"/><stop offset="0.43" stop-color="#373737"/><stop offset="0.66" stop-color="#232323"/><stop offset="0.75" stop-color="#181818"/><stop offset="0.8" stop-color="#1f1f1f"/><stop offset="0.88" stop-color="#333"/><stop offset="0.97" stop-color="#535353"/><stop offset="1" stop-color="#606060"/></radialGradient><radialGradient id="radial-gradient-4" cx="-145.11" cy="238.15" r="0.16" gradientTransform="matrix(-0.63, 57.73, 87.74, 0.96, -20944.66, 8169.79)" gradientUnits="userSpaceOnUse"><stop offset="0" stop-color="#ddd"/><stop offset="0.4" stop-color="#d9d9d9"/><stop offset="0.75" stop-color="#cfcfcf"/><stop offset="1" stop-color="#d6d6d6"/><stop offset="1" stop-color="#d6d6d6"/></radialGradient><radialGradient id="radial-gradient-5" cx="-145.11" cy="238.15" r="0.16" gradientTransform="matrix(-0.63, 57.73, 87.74, 0.96, -20944.66, 8169.79)" gradientUnits="userSpaceOnUse"><stop offset="0" stop-color="#e9e9e9"/><stop offset="0.5" stop-color="#e5e5e5"/><stop offset="0.75" stop-color="#e0e0e0"/><stop offset="1" stop-color="#e4e4e4"/></radialGradient><radialGradient id="radial-gradient-6" cx="-145.1" cy="238.15" r="0.16" gradientTransform="matrix(-0.63, 57.73, 87.74, 0.96, -20944.46, 8169.1)" gradientUnits="userSpaceOnUse"><stop offset="0" stop-color="#e1e1e1"/><stop offset="0.57" stop-color="#ddd"/><stop offset="0.75" stop-color="#dadada"/><stop offset="0.93" stop-color="#e1e1e1"/><stop offset="1" stop-color="#e5e5e5"/></radialGradient><radialGradient id="radial-gradient-7" cx="-145.11" cy="238.15" r="0.16" gradientTransform="matrix(-0.63, 57.73, 87.74, 0.96, -20944.66, 8169.79)" gradientUnits="userSpaceOnUse"><stop offset="0" stop-color="#fff"/><stop offset="0.75" stop-color="#f0f0f0"/><stop offset="1" stop-color="#f2f2f2"/></radialGradient><radialGradient id="radial-gradient-8" cx="-2433.23" cy="787.24" r="28.2" gradientTransform="matrix(-0.01, 0.68, -0.69, -0.01, 551.44, 1691.31)" gradientUnits="userSpaceOnUse"><stop offset="0" stop-color="#3f3f3f"/><stop offset="0.19" stop-color="#3b3b3b"/><stop offset="0.38" stop-color="#2e2e2e"/><stop offset="0.57" stop-color="#1a1a1a"/><stop offset="0.75"/><stop offset="0.81" stop-color="#070707"/><stop offset="0.9" stop-color="#1b1b1b"/><stop offset="1" stop-color="#383838"/></radialGradient><radialGradient id="radial-gradient-9" cx="-159.66" cy="241.64" r="0.16" gradientTransform="matrix(-1.3, 118.7, 120.27, 1.32, -29247.72, 18652.64)" gradientUnits="userSpaceOnUse"><stop offset="0" stop-color="#202020"/><stop offset="0.26" stop-color="#1c1c1c"/><stop offset="0.54" stop-color="#0f0f0f"/><stop offset="0.75"/><stop offset="0.83" stop-color="#070707"/><stop offset="0.95" stop-color="#191919"/><stop offset="1" stop-color="#242424"/></radialGradient><radialGradient id="radial-gradient-10" cx="-2434.35" cy="770.29" r="28.11" gradientTransform="matrix(-0.01, 0.68, -0.69, -0.01, 551.44, 1691.31)" gradientUnits="userSpaceOnUse"><stop offset="0" stop-color="#606060"/><stop offset="0.15" stop-color="#5c5c5c"/><stop offset="0.3" stop-color="#4f4f4f"/><stop offset="0.46" stop-color="#3b3b3b"/><stop offset="0.62" stop-color="#1e1e1e"/><stop offset="0.75"/><stop offset="0.82" stop-color="#070707"/><stop offset="0.92" stop-color="#1b1b1b"/><stop offset="1" stop-color="#303030"/></radialGradient><radialGradient id="radial-gradient-11" cx="-2434.35" cy="770.29" r="28.11" gradientTransform="matrix(-0.01, 0.68, -0.69, -0.01, 551.44, 1691.31)" gradientUnits="userSpaceOnUse"><stop offset="0" stop-color="#606060"/><stop offset="0.17" stop-color="#5c5c5c"/><stop offset="0.35" stop-color="#4f4f4f"/><stop offset="0.53" stop-color="#3b3b3b"/><stop offset="0.72" stop-color="#1e1e1e"/><stop offset="0.75" stop-color="#181818"/><stop offset="0.8" stop-color="#1f1f1f"/><stop offset="0.88" stop-color="#333"/><stop offset="0.97" stop-color="#535353"/><stop offset="1" stop-color="#606060"/></radialGradient><radialGradient id="radial-gradient-12" cx="-2434.35" cy="770.29" r="28.11" gradientTransform="matrix(-0.01, 0.68, -0.69, -0.01, 551.44, 1691.31)" gradientUnits="userSpaceOnUse"><stop offset="0.05" stop-color="#fff"/><stop offset="0.75"/><stop offset="0.82" stop-color="#070707"/><stop offset="0.92" stop-color="#1b1b1b"/><stop offset="1" stop-color="#303030"/></radialGradient><radialGradient id="radial-gradient-13" cx="-2434.35" cy="770.29" r="28.11" gradientTransform="matrix(-0.01, 0.68, -0.69, -0.01, 551.44, 1691.31)" gradientUnits="userSpaceOnUse"><stop offset="0" stop-color="#606060"/><stop offset="0.17" stop-color="#5c5c5c"/><stop offset="0.35" stop-color="#4f4f4f"/><stop offset="0.53" stop-color="#3b3b3b"/><stop offset="0.72" stop-color="#1e1e1e"/><stop offset="0.75" stop-color="#181818"/><stop offset="0.86" stop-color="#1f1f1f"/><stop offset="1" stop-color="#303030"/></radialGradient><radialGradient id="radial-gradient-14" cx="-2383.21" cy="828.38" r="28.11" gradientTransform="matrix(-0.01, 0.73, -0.89, -0.01, 740.72, 1756.62)" gradientUnits="userSpaceOnUse"><stop offset="0" stop-color="#4d4d4d"/><stop offset="0.23" stop-color="#494949"/><stop offset="0.47" stop-color="#3c3c3c"/><stop offset="0.7" stop-color="#282828"/><stop offset="0.75" stop-color="#232323"/><stop offset="0.86" stop-color="#2a2a2a"/><stop offset="1" stop-color="#3c3c3c"/></radialGradient><radialGradient id="radial-gradient-15" cx="-2383.21" cy="828.38" r="28.11" gradientTransform="matrix(-0.01, 0.73, -0.89, -0.01, 740.72, 1756.62)" gradientUnits="userSpaceOnUse"><stop offset="0.05" stop-color="#9e9e9e"/><stop offset="0.75" stop-color="#232323"/><stop offset="0.86" stop-color="#2a2a2a"/><stop offset="1" stop-color="#3c3c3c"/></radialGradient><radialGradient id="radial-gradient-16" cx="-2376.48" cy="999.13" r="28.11" gradientTransform="matrix(0.04, 0.73, -0.89, 0.04, 995.84, 1697.6)" gradientUnits="userSpaceOnUse"><stop offset="0" stop-color="#292929"/><stop offset="0.35" stop-color="#252525"/><stop offset="0.72" stop-color="#181818"/><stop offset="0.75" stop-color="#171717"/><stop offset="0.87" stop-color="#1e1e1e"/><stop offset="1" stop-color="#2b2b2b"/></radialGradient><radialGradient id="radial-gradient-17" cx="-2376.48" cy="999.13" r="28.11" gradientTransform="matrix(0.04, 0.73, -0.89, 0.04, 995.84, 1697.6)" gradientUnits="userSpaceOnUse"><stop offset="0.05" stop-color="#bcbcbc"/><stop offset="0.75" stop-color="#232323"/><stop offset="0.86" stop-color="#2a2a2a"/><stop offset="1" stop-color="#3c3c3c"/></radialGradient><radialGradient id="radial-gradient-18" cx="-2376.48" cy="999.13" r="28.11" gradientTransform="matrix(0.04, 0.73, -0.89, 0.04, 995.84, 1697.6)" gradientUnits="userSpaceOnUse"><stop offset="0" stop-color="#363636"/><stop offset="0.33" stop-color="#323232"/><stop offset="0.66" stop-color="#252525"/><stop offset="0.75" stop-color="#212121"/><stop offset="0.98" stop-color="#282828"/><stop offset="1" stop-color="#292929"/></radialGradient><radialGradient id="radial-gradient-19" cx="-2376.48" cy="999.13" r="28.11" gradientTransform="matrix(0.04, 0.73, -0.89, 0.04, 995.84, 1697.6)" gradientUnits="userSpaceOnUse"><stop offset="0" stop-color="#565656"/><stop offset="0.24" stop-color="#525252"/><stop offset="0.49" stop-color="#454545"/><stop offset="0.74" stop-color="#313131"/><stop offset="0.75" stop-color="#303030"/><stop offset="0.92" stop-color="#373737"/><stop offset="1" stop-color="#3c3c3c"/></radialGradient><radialGradient id="radial-gradient-20" cx="-2376.74" cy="999.46" r="28.46" xlink:href="#radial-gradient-19"/><radialGradient id="radial-gradient-21" cx="-2402.79" cy="654.59" r="28.11" gradientTransform="matrix(-0.05, 0.72, -0.88, -0.06, 478.56, 1799.78)" gradientUnits="userSpaceOnUse"><stop offset="0" stop-color="#383838"/><stop offset="0.26" stop-color="#343434"/><stop offset="0.53" stop-color="#272727"/><stop offset="0.75" stop-color="#171717"/><stop offset="0.87" stop-color="#1e1e1e"/><stop offset="1" stop-color="#2b2b2b"/></radialGradient><radialGradient id="radial-gradient-22" cx="-2402.79" cy="654.59" r="28.11" gradientTransform="matrix(-0.05, 0.72, -0.88, -0.06, 478.56, 1799.78)" xlink:href="#radial-gradient-17"/></defs><title>bug-one</title><ellipse class="cls-1" cx="3.74" cy="5.04" rx="0.75" ry="4.41" transform="translate(-2.45 3.98) rotate(-43.69)"/><ellipse class="cls-2" cx="3.68" cy="4.98" rx="0.73" ry="4.33" transform="translate(-2.42 3.92) rotate(-43.69)"/><ellipse class="cls-3" cx="3.62" cy="4.92" rx="0.72" ry="4.24" transform="translate(-2.4 3.87) rotate(-43.69)"/><ellipse class="cls-4" cx="3.57" cy="4.86" rx="0.71" ry="4.16" transform="translate(-2.37 3.81) rotate(-43.69)"/><ellipse class="cls-5" cx="3.51" cy="4.8" rx="0.7" ry="4.08" transform="translate(-2.34 3.75) rotate(-43.69)"/><ellipse class="cls-6" cx="3.45" cy="4.74" rx="0.69" ry="4" transform="translate(-2.32 3.7) rotate(-43.69)"/><ellipse class="cls-7" cx="3.39" cy="4.68" rx="0.67" ry="3.91" transform="translate(-2.29 3.64) rotate(-43.69)"/><ellipse class="cls-8" cx="3.34" cy="4.62" rx="0.66" ry="3.83" transform="translate(-2.27 3.58) rotate(-43.69)"/><ellipse class="cls-9" cx="3.28" cy="4.56" rx="0.65" ry="3.75" transform="translate(-2.24 3.53) rotate(-43.69)"/><ellipse class="cls-10" cx="3.22" cy="4.5" rx="0.64" ry="3.66" transform="translate(-2.22 3.47) rotate(-43.69)"/><ellipse class="cls-11" cx="3.16" cy="4.44" rx="0.62" ry="3.58" transform="translate(-2.19 3.42) rotate(-43.69)"/><ellipse class="cls-12" cx="3.11" cy="4.38" rx="0.61" ry="3.5" transform="matrix(0.72, -0.69, 0.69, 0.72, -2.17, 3.36)"/><ellipse class="cls-13" cx="3.05" cy="4.32" rx="0.6" ry="3.41" transform="translate(-2.14 3.3) rotate(-43.69)"/><ellipse class="cls-14" cx="2.99" cy="4.26" rx="0.59" ry="3.33" transform="translate(-2.11 3.25) rotate(-43.69)"/><ellipse class="cls-15" cx="2.94" cy="4.2" rx="0.58" ry="3.25" transform="translate(-2.09 3.19) rotate(-43.69)"/><ellipse class="cls-16" cx="2.88" cy="4.14" rx="0.56" ry="3.17" transform="translate(-2.06 3.13) rotate(-43.69)"/><ellipse class="cls-17" cx="2.82" cy="4.08" rx="0.55" ry="3.08" transform="translate(-2.04 3.08) rotate(-43.69)"/><ellipse class="cls-18" cx="2.76" cy="4.02" rx="0.54" ry="3" transform="translate(-2.01 3.02) rotate(-43.69)"/><ellipse class="cls-19" cx="2.71" cy="3.96" rx="0.53" ry="2.92" transform="translate(-1.99 2.97) rotate(-43.69)"/><ellipse class="cls-20" cx="2.65" cy="3.9" rx="0.51" ry="2.83" transform="translate(-1.96 2.91) rotate(-43.69)"/><ellipse class="cls-21" cx="2.59" cy="3.84" rx="0.5" ry="2.75" transform="translate(-1.94 2.85) rotate(-43.69)"/><ellipse class="cls-22" cx="2.53" cy="3.78" rx="0.49" ry="2.67" transform="translate(-1.91 2.8) rotate(-43.69)"/><path class="cls-23" d="M10,7.59s0,0-.06,0c-.26.06-.52.13-.77.2L9,7.88c-.31.08-.37-.43-.62-.64l-.11-.06-.13,0L6.82,6.8a5.91,5.91,0,0,1-1.49-.61l-.79-.46-.72-.48a7.35,7.35,0,0,1-1.23-1l-2-2.11a.21.21,0,0,1,.12-.36A.41.41,0,0,0,1,1.54l.09-.17a.49.49,0,0,1,.83,0L3.37,3.44A3.46,3.46,0,0,0,3.9,4l1,.9.85.53a2.82,2.82,0,0,0,.73.32l3.08.87a.64.64,0,0,1,.49.67,1.17,1.17,0,0,1,0,.23A.19.19,0,0,0,10,7.59Z"/><path class="cls-24" d="M8.85,6.58a2.33,2.33,0,0,1-.45-.06l-1-.22a7.29,7.29,0,0,1-1.51-.53l-.37-.18L5,5.23a7.64,7.64,0,0,1-1.23-1l-.66-.68L1.81,1.69a.31.31,0,0,0-.46,0,.36.36,0,0,0,0,.51L2.74,3.62l.31.32a11.84,11.84,0,0,0,2.51,2h0l1,.44,2.48.58a.16.16,0,0,0,.2-.16.2.2,0,0,0-.2-.21Z"/><path class="cls-25" d="M20.74,11.42a.62.62,0,0,0-.18-.84c-.25-.17.09,0-.28-.3a2.33,2.33,0,0,1-.51-.55,1.49,1.49,0,0,0-.57-.45,1.13,1.13,0,0,1-.57-.46l-.22-.45a.3.3,0,0,0-.5,0c-.12.16-.32,0-.42-.19s-.2-.44-.32-.65-.28,0-.43.06l0,0a.46.46,0,0,1-.34,0c-.22-.08-.46-.14-.68-.24-.5-.23-1.12-.45-1.22-.5s-.46-.16-.67-.27c-.49-.27-.73-.92-1.19-1.26-.22-.16-.45.08-.48.35,0,0,0,.07,0,.1a.36.36,0,0,1-.4.3A7.28,7.28,0,0,1,9.6,5.43L8.49,4.92a.41.41,0,0,0-.58.49c0,.26.09.53.13.77A1.06,1.06,0,0,1,7.9,7a2.41,2.41,0,0,1-.9.73A.35.35,0,0,0,7,8.3l.17.09.62.05c.18,0,.38.11.38.3s.1.32.23.27a9.92,9.92,0,0,1,1.32-.5h.13a12.39,12.39,0,0,1,2.74,0c.75.15,2.16.64,2.85.86a3.45,3.45,0,0,1,.73.34,35,35,0,0,0,3.72,2A.65.65,0,0,0,20.74,11.42Z"/><path class="cls-26" d="M20.25,11.4a.32.32,0,0,0,0-.46c-.63-.55-.57-.77-1.18-1.35a2.46,2.46,0,0,0-.44-.33A.68.68,0,0,1,18.4,9l0-.06c-.1-.15-.36-.08-.51-.19l0,0-.38-.24a1.48,1.48,0,0,1-.39-.42c-.06-.08-.16-.28-.29-.19a.19.19,0,0,1-.24,0,8.27,8.27,0,0,0-.78-.35l-.47-.21a7.63,7.63,0,0,0-.82-.32l-.39-.11a1.28,1.28,0,0,1-.36-.12,2.68,2.68,0,0,1-.27-.24,2.87,2.87,0,0,1-.27-.22,1.81,1.81,0,0,0-.2-.22s-.15-.12-.19,0,0,.11,0,.16c.08.21-.1.28-.27.25-.49-.09-1-.2-1.47-.31-.25-.06-.56-.13-1-.27a3.64,3.64,0,0,1-1.13-.52c-.13-.09-.25.08-.15.21a.88.88,0,0,1,0,.89,1,1,0,0,1-.28.36c-.2.18,0,.55.27.55h.2a.29.29,0,0,1,.22.1.33.33,0,0,0,.37.11l1-.37a2.09,2.09,0,0,1,1.27,0q1,.27,1.94.49t1.92.65A6.94,6.94,0,0,1,17.11,9l.52.3a6.29,6.29,0,0,1,1.25.95c.54.53.39.68.94,1.18A.32.32,0,0,0,20.25,11.4Z"/><path class="cls-27" d="M22.34,14.62a.75.75,0,0,1-.53,1l-.56.15a1,1,0,0,1-1.18-.5l-2.18-3.88a.47.47,0,0,1,.41-.69h.36a1,1,0,0,0,.69-.28l.61-.6a.5.5,0,0,1,.83.2Z"/><ellipse class="cls-1" cx="48.78" cy="10.3" rx="2.96" ry="0.52" transform="translate(3.47 31.09) rotate(-36.57)"/><ellipse class="cls-2" cx="48.82" cy="10.26" rx="2.9" ry="0.51" transform="translate(3.5 31.11) rotate(-36.57)"/><ellipse class="cls-3" cx="48.87" cy="10.23" rx="2.85" ry="0.5" transform="translate(3.53 31.13) rotate(-36.57)"/><ellipse class="cls-4" cx="48.91" cy="10.2" rx="2.79" ry="0.49" transform="translate(3.55 31.15) rotate(-36.57)"/><ellipse class="cls-5" cx="48.96" cy="10.16" rx="2.74" ry="0.49" transform="translate(3.58 31.17) rotate(-36.57)"/><ellipse class="cls-6" cx="49" cy="10.13" rx="2.68" ry="0.48" transform="translate(3.61 31.19) rotate(-36.57)"/><ellipse class="cls-7" cx="49.05" cy="10.1" rx="2.62" ry="0.47" transform="translate(3.64 31.21) rotate(-36.57)"/><ellipse class="cls-8" cx="49.09" cy="10.06" rx="2.57" ry="0.46" transform="translate(3.67 31.23) rotate(-36.57)"/><ellipse class="cls-9" cx="49.14" cy="10.03" rx="2.51" ry="0.45" transform="translate(3.7 31.25) rotate(-36.57)"/><ellipse class="cls-10" cx="49.18" cy="10" rx="2.46" ry="0.44" transform="translate(3.73 31.27) rotate(-36.57)"/><ellipse class="cls-11" cx="49.23" cy="9.96" rx="2.4" ry="0.43" transform="translate(3.75 31.29) rotate(-36.57)"/><ellipse class="cls-12" cx="49.27" cy="9.93" rx="2.35" ry="0.43" transform="translate(3.78 31.31) rotate(-36.57)"/><ellipse class="cls-13" cx="49.32" cy="9.9" rx="2.29" ry="0.42" transform="translate(3.81 31.33) rotate(-36.57)"/><ellipse class="cls-14" cx="49.36" cy="9.86" rx="2.24" ry="0.41" transform="translate(3.84 31.35) rotate(-36.57)"/><ellipse class="cls-15" cx="49.4" cy="9.83" rx="2.18" ry="0.4" transform="translate(3.87 31.37) rotate(-36.57)"/><ellipse class="cls-16" cx="49.45" cy="9.8" rx="2.12" ry="0.39" transform="translate(3.9 31.39) rotate(-36.57)"/><ellipse class="cls-17" cx="49.49" cy="9.77" rx="2.07" ry="0.38" transform="translate(3.93 31.41) rotate(-36.57)"/><ellipse class="cls-18" cx="49.54" cy="9.73" rx="2.01" ry="0.37" transform="translate(3.95 31.43) rotate(-36.57)"/><ellipse class="cls-19" cx="49.58" cy="9.7" rx="1.96" ry="0.37" transform="translate(3.98 31.45) rotate(-36.57)"/><ellipse class="cls-20" cx="49.63" cy="9.67" rx="1.9" ry="0.36" transform="translate(4.01 31.47) rotate(-36.57)"/><ellipse class="cls-21" cx="49.67" cy="9.63" rx="1.85" ry="0.35" transform="translate(4.04 31.49) rotate(-36.57)"/><ellipse class="cls-22" cx="49.72" cy="9.6" rx="1.79" ry="0.34" transform="translate(4.07 31.51) rotate(-36.57)"/><path class="cls-28" d="M51,7.85a.94.94,0,0,0,.36.37.34.34,0,0,1,0,.58L49.75,9.94l-1.34.67a4,4,0,0,1-1.53.41l-2.68.17a.49.49,0,0,1-.52-.48.53.53,0,0,1,.5-.54L46.8,10a2.39,2.39,0,0,0,.78-.18l1.05-.44a1.7,1.7,0,0,0,.64-.46l1-1.21a.42.42,0,0,1,.69.08Z"/><path class="cls-29" d="M51.07,8.74a.15.15,0,0,0,0-.24A.28.28,0,0,1,51,8.35v0a.15.15,0,0,0-.25-.07L49.94,9a3.65,3.65,0,0,1-1.09.73L48.2,10a4.18,4.18,0,0,1-1.55.35l-2.59.08a.25.25,0,0,0-.24.27.27.27,0,0,0,.28.25l2.24-.1a5.6,5.6,0,0,0,1.38-.23A6.41,6.41,0,0,0,49,10.09l1-.58Z"/><path class="cls-30" d="M46.2,10.41c-.09.27-.13.58,0,.75a1.55,1.55,0,0,0,.46.25c.18.08.23.48,0,.51a.86.86,0,0,0-.67.29.3.3,0,0,0,0,.13.1.1,0,0,1-.1.09c-.56-.1-.86-.16-1.44-.31A11.16,11.16,0,0,0,43.22,12c-.46,0-1.16-.05-1.16-.05a6.68,6.68,0,0,0-1.22.12,7.61,7.61,0,0,0-1.66.58,20.13,20.13,0,0,0-2.09,1.53c-.29.19-.82,0-1.11-.43l-.16-.23c-.31-.44-.31-.88,0-1a7.45,7.45,0,0,0,1.4-.7l.11-.07c.44-.2.45-.85,1.1-.66l.07,0a12.4,12.4,0,0,1,1.67-.68c.55-.19.45-.2.89-.64.14-.14.43-.46.51-.09s.49.25.67.14a1.87,1.87,0,0,0,.5-.56c.16-.24.45,0,.5.25a.29.29,0,0,0,.27.25h.08a6.58,6.58,0,0,0,1.83-.52c.73-.38.91-1.07,1.15-.67s-.12,1-.28,1.55l0,.11Z"/><path class="cls-31" d="M37.44,13.63l.47-.47a3.66,3.66,0,0,1,1-.73l.51-.26a4.42,4.42,0,0,1,.47-.17l.8-.23a4.15,4.15,0,0,1,1.54-.2l.31,0c.5,0,1,.08,1.49.15l.55.07a2.38,2.38,0,0,1,.55.11,1.54,1.54,0,0,0,.27.08c.15,0,.27-.17.27-.35a4.73,4.73,0,0,1-.14-.62,2.83,2.83,0,0,1,.09-.79c.07-.2-.13-.36-.26-.2a1.14,1.14,0,0,1-.71.37c-.46.11-.95.17-.95.17l-.5,0c-.18,0-.41.05-.47-.13s-.17-.22-.27-.14-.24.2-.35.29l-.05,0-.06,0-.26.06c-.15,0-.37.08-.4-.09s-.34-.18-.53,0a2.64,2.64,0,0,0-.38.32.93.93,0,0,1-.24.2,18.75,18.75,0,0,0-2.59,1.34c-1.25.8-.67.55-1.11.75-.16.07-.13.29,0,.45a.56.56,0,0,0,.64.12Z"/><path class="cls-27" d="M34.44,15.9a1.12,1.12,0,0,1-.14-1.3l1.56-2.75a.6.6,0,0,1,1-.12l.4.42a1.79,1.79,0,0,0,.65.44l1,.39a.48.48,0,0,1,.14.82l-3,2.6a.83.83,0,0,1-1.15-.08Z"/><ellipse class="cls-1" cx="22.56" cy="4.11" rx="0.75" ry="4.41" transform="translate(1.77 13.79) rotate(-35.29)"/><ellipse class="cls-2" cx="22.51" cy="4.04" rx="0.73" ry="4.33" transform="translate(1.8 13.75) rotate(-35.29)"/><ellipse class="cls-3" cx="22.46" cy="3.97" rx="0.72" ry="4.24" transform="translate(1.83 13.71) rotate(-35.29)"/><ellipse class="cls-4" cx="22.41" cy="3.9" rx="0.71" ry="4.16" transform="translate(1.86 13.67) rotate(-35.29)"/><ellipse class="cls-5" cx="22.37" cy="3.83" rx="0.7" ry="4.08" transform="translate(1.9 13.63) rotate(-35.29)"/><ellipse class="cls-6" cx="22.32" cy="3.77" rx="0.69" ry="4" transform="translate(1.93 13.59) rotate(-35.29)"/><ellipse class="cls-7" cx="22.27" cy="3.7" rx="0.67" ry="3.91" transform="translate(1.96 13.55) rotate(-35.29)"/><ellipse class="cls-8" cx="22.22" cy="3.63" rx="0.66" ry="3.83" transform="translate(1.99 13.51) rotate(-35.29)"/><ellipse class="cls-9" cx="22.17" cy="3.56" rx="0.65" ry="3.75" transform="translate(2.02 13.47) rotate(-35.29)"/><ellipse class="cls-10" cx="22.13" cy="3.5" rx="0.64" ry="3.66" transform="translate(2.05 13.43) rotate(-35.29)"/><ellipse class="cls-11" cx="22.08" cy="3.43" rx="0.62" ry="3.58" transform="translate(2.08 13.39) rotate(-35.29)"/><ellipse class="cls-12" cx="22.03" cy="3.36" rx="0.61" ry="3.5" transform="translate(2.11 13.35) rotate(-35.29)"/><ellipse class="cls-13" cx="21.98" cy="3.29" rx="0.6" ry="3.41" transform="translate(2.14 13.31) rotate(-35.29)"/><ellipse class="cls-14" cx="21.93" cy="3.23" rx="0.59" ry="3.33" transform="translate(2.17 13.27) rotate(-35.29)"/><ellipse class="cls-15" cx="21.89" cy="3.16" rx="0.58" ry="3.25" transform="translate(2.2 13.23) rotate(-35.29)"/><ellipse class="cls-16" cx="21.84" cy="3.09" rx="0.56" ry="3.17" transform="translate(2.23 13.19) rotate(-35.29)"/><ellipse class="cls-17" cx="21.79" cy="3.02" rx="0.55" ry="3.08" transform="translate(2.26 13.15) rotate(-35.29)"/><ellipse class="cls-18" cx="21.74" cy="2.95" rx="0.54" ry="3" transform="translate(2.29 13.11) rotate(-35.29)"/><ellipse class="cls-19" cx="21.69" cy="2.89" rx="0.53" ry="2.92" transform="translate(2.32 13.07) rotate(-35.29)"/><ellipse class="cls-20" cx="21.65" cy="2.82" rx="0.51" ry="2.83" transform="translate(2.35 13.02) rotate(-35.3)"/><ellipse class="cls-21" cx="21.6" cy="2.75" rx="0.5" ry="2.75" transform="translate(2.38 12.98) rotate(-35.3)"/><ellipse class="cls-22" cx="21.55" cy="2.68" rx="0.49" ry="2.67" transform="matrix(0.82, -0.58, 0.58, 0.82, 2.41, 12.94)"/><path class="cls-32" d="M22.23,2.06a3.3,3.3,0,0,0,.42.68L24.1,4.53a3.15,3.15,0,0,0,.58.55c.58.43,1.81,1.32,2.6,1.88a1.06,1.06,0,0,0,.41.16.31.31,0,0,1,.26.19.09.09,0,0,1-.06.11c-.06,0-.1.08-.16.11l-.08,0-.09,0a.52.52,0,0,1-.47,0l-2.5-1.43a5,5,0,0,1-1.24-1l-2-2.23L19.93,1a.38.38,0,0,1,.24-.6.89.89,0,0,0,.51-.28.42.42,0,0,1,.69.1Z"/><path class="cls-33" d="M26.61,6.69a.41.41,0,0,0-.22-.33l-1.2-.62a4.24,4.24,0,0,1-1.22-1l-.25-.29-.9-1.09A6.69,6.69,0,0,1,22,2.07L21.35.81a.57.57,0,0,0-.62-.3.27.27,0,0,0-.16.43l.48.62L22,3,23.25,4.6a7.08,7.08,0,0,0,2.16,1.66l1,.55A.12.12,0,0,0,26.61,6.69Z"/><path class="cls-34" d="M30.07,13.39a.6.6,0,0,0,.34-.85c-.29-.56-.37-.76-.74-1.64l0-.1c-.18-.54-.21-1.2-.38-1.52s-.35-.32-.42-.54A3.32,3.32,0,0,1,28.64,8a4.37,4.37,0,0,1-.05-.69.18.18,0,0,0-.27-.18c-.22.13-.35-.2-.44-.44a10.45,10.45,0,0,1-.34-1c-.06-.21-.32-.16-.52-.1s-.16,0-.3-.12l-.08-.09L26,4.68a.54.54,0,0,0-.9.17l-.47.87a1.14,1.14,0,0,1-.31.37c-.26.2-.46.53-.76.61h0c-.23,0-.23.4,0,.5a6.34,6.34,0,0,0,1.07.24,4,4,0,0,1,1.32.63A4.72,4.72,0,0,1,27,9.4a39.78,39.78,0,0,0,2,3.69A.84.84,0,0,0,30.07,13.39Z"/><path class="cls-35" d="M29.88,12.85a.5.5,0,0,0,.08-.5c-.12-.29-.3-.78-.46-1.22a5.88,5.88,0,0,0-.57-1.47l-.05-.07a4.79,4.79,0,0,1-.49-1.42.73.73,0,0,0-.14-.27c-.2-.24-.48-.4-.63-.67l-.07-.14a1.27,1.27,0,0,1-.17-.64c0-.33-.45-.35-.65-.59l-.05,0L26,5.2a.35.35,0,0,0-.52.06,3.07,3.07,0,0,1-.53.58l-.08.06c-.24.2-.05.56.23.62l.23,0a1.68,1.68,0,0,1,.68.09l.11,0a1.43,1.43,0,0,1,.67.62q.47.83,1,1.63t.87,1.7q.35.94.74,1.85l.18.34A.21.21,0,0,0,29.88,12.85Z"/><path class="cls-27" d="M30.16,17.74a1.19,1.19,0,0,0,.67-1.16L30.43,11a.44.44,0,0,0-.7-.32l-.85.64a.92.92,0,0,1-.67.18.53.53,0,0,0-.59.64l1.15,5.46a.63.63,0,0,0,.89.44Z"/><ellipse class="cls-1" cx="3.18" cy="44.91" rx="4.41" ry="0.75" transform="translate(-30.85 15.43) rotate(-45.05)"/><ellipse class="cls-2" cx="3.12" cy="44.97" rx="4.33" ry="0.73" transform="translate(-30.91 15.41) rotate(-45.05)"/><ellipse class="cls-3" cx="3.06" cy="45.03" rx="4.24" ry="0.72" transform="translate(-30.97 15.39) rotate(-45.05)"/><ellipse class="cls-4" cx="3.01" cy="45.08" rx="4.16" ry="0.71" transform="translate(-31.03 15.36) rotate(-45.05)"/><ellipse class="cls-5" cx="2.95" cy="45.14" rx="4.08" ry="0.7" transform="translate(-31.09 15.34) rotate(-45.05)"/><ellipse class="cls-6" cx="2.89" cy="45.2" rx="4" ry="0.69" transform="translate(-31.14 15.31) rotate(-45.05)"/><ellipse class="cls-7" cx="2.83" cy="45.26" rx="3.91" ry="0.67" transform="translate(-31.2 15.29) rotate(-45.05)"/><ellipse class="cls-8" cx="2.77" cy="45.32" rx="3.83" ry="0.66" transform="translate(-31.26 15.26) rotate(-45.05)"/><ellipse class="cls-9" cx="2.71" cy="45.38" rx="3.75" ry="0.65" transform="translate(-31.32 15.24) rotate(-45.05)"/><ellipse class="cls-10" cx="2.65" cy="45.44" rx="3.66" ry="0.64" transform="translate(-31.38 15.22) rotate(-45.05)"/><ellipse class="cls-11" cx="2.6" cy="45.5" rx="3.58" ry="0.62" transform="translate(-31.44 15.19) rotate(-45.05)"/><ellipse class="cls-12" cx="2.54" cy="45.55" rx="3.5" ry="0.61" transform="translate(-31.5 15.17) rotate(-45.05)"/><ellipse class="cls-13" cx="2.48" cy="45.61" rx="3.41" ry="0.6" transform="translate(-31.56 15.14) rotate(-45.05)"/><ellipse class="cls-14" cx="2.42" cy="45.67" rx="3.33" ry="0.59" transform="translate(-31.61 15.12) rotate(-45.05)"/><ellipse class="cls-15" cx="2.36" cy="45.73" rx="3.25" ry="0.58" transform="translate(-31.67 15.09) rotate(-45.05)"/><ellipse class="cls-16" cx="2.3" cy="45.79" rx="3.17" ry="0.56" transform="translate(-31.73 15.07) rotate(-45.05)"/><ellipse class="cls-17" cx="2.24" cy="45.85" rx="3.08" ry="0.55" transform="translate(-31.79 15.05) rotate(-45.05)"/><ellipse class="cls-18" cx="2.19" cy="45.91" rx="3" ry="0.54" transform="translate(-31.85 15.02) rotate(-45.05)"/><ellipse class="cls-19" cx="2.13" cy="45.97" rx="2.92" ry="0.53" transform="translate(-31.91 15) rotate(-45.05)"/><ellipse class="cls-20" cx="2.07" cy="46.02" rx="2.83" ry="0.51" transform="translate(-31.97 14.97) rotate(-45.05)"/><ellipse class="cls-21" cx="2.01" cy="46.08" rx="2.75" ry="0.5" transform="translate(-32.02 14.95) rotate(-45.05)"/><ellipse class="cls-22" cx="1.95" cy="46.14" rx="2.67" ry="0.49" transform="translate(-32.08 14.92) rotate(-45.05)"/><path class="cls-36" d="M9.5,42.48s0,0-.05,0c-.26-.06-.52-.14-.76-.21l-.16,0c-.31-.08-.38.43-.64.63l-.11.06-.13,0-1.34.32a5.91,5.91,0,0,0-1.5.58l-.8.44-.73.46a7.36,7.36,0,0,0-1.25,1L.1,47.59a.33.33,0,0,0,.17.57H.33a.74.74,0,0,1,.43.25.43.43,0,0,0,.66,0L3,46.3a4.48,4.48,0,0,1,.55-.59L4,45.3a4.1,4.1,0,0,1,.65-.48l.52-.31A2.82,2.82,0,0,1,6,44.21l3.1-.8a.64.64,0,0,0,.5-.65,1.18,1.18,0,0,0,0-.24A.19.19,0,0,1,9.5,42.48Z"/><path class="cls-37" d="M1.07,48.17a.25.25,0,0,0,.35-.06l.72-1A8.4,8.4,0,0,1,3.1,46l.51-.49a6.92,6.92,0,0,1,1.28-1c.3-.18.6-.35.63-.36l1.59-.49a2.57,2.57,0,0,1,.7-.12h.54a.13.13,0,0,0,.12-.18.22.22,0,0,0-.24-.15l-.71.09a8.42,8.42,0,0,0-1.73.42l-.16.06a7.12,7.12,0,0,0-1.86,1l-.66.49L1.83,46.55.72,47.72a.2.2,0,0,0,.09.33h0A.71.71,0,0,1,1.07,48.17Z"/><path class="cls-27" d="M20.41,39.07c.16.32.15.8-.12,1s0,0-.38.24a7.06,7.06,0,0,0-1.74,1.28,2.73,2.73,0,0,0-.23.45.3.3,0,0,1-.5,0c-.12-.17-.4.17-.69.34a6.24,6.24,0,0,1-.87.39,1.7,1.7,0,0,0-.66.27,5.41,5.41,0,0,0-.48.71c-.12.16-.31-.05-.4-.23a.17.17,0,0,0-.08-.08.41.41,0,0,0-.33,0,6.54,6.54,0,0,1-.68.19c-1.29.34-1.91.48-2.16.56-.49.16-.72.59-1,1A.23.23,0,0,1,9.67,45a.43.43,0,0,0,0-.26c-.1-.24-.41-.2-.66-.09l-1.13.49a.41.41,0,0,1-.56-.5c.06-.26.11-.53.16-.76a1,1,0,0,0-.12-.78,1.49,1.49,0,0,0-.69-.64.32.32,0,0,1,.06-.55h0a.45.45,0,0,0,.3-.56,1,1,0,0,0-.14-.23c-.12-.14.1-.34.25-.25a5.91,5.91,0,0,0,1.08.45l.08,0,.47.13a3.55,3.55,0,0,0,.76.13,12.07,12.07,0,0,0,2.56.07,11.38,11.38,0,0,0,3.31-.85c1.28-.56,3.16-1.54,4.22-2A.6.6,0,0,1,20.41,39.07Z"/><path class="cls-38" d="M19.64,40.08c-.65.48-1.13.75-1.42,1s-.33.25-.4.44l0,.1c0,.09-.16.19-.19.1s-.19,0-.3,0a3.27,3.27,0,0,1-.42.38,7.43,7.43,0,0,1-.73.39l-.64.22c-.11,0-.23,0-.34.09s-.23,0-.27.12-.06.5-.35.35a.78.78,0,0,0-.21-.06.55.55,0,0,0-.22,0q-1.12.24-2.23.54a5.54,5.54,0,0,1-.9.16.87.87,0,0,0-.42.15c-.31.22-.42.38-.63.22a.7.7,0,0,0-.51-.19c-.38,0-.7.14-1,.16s-.07-.38,0-.81-.57-1.11.2-.89a4.5,4.5,0,0,0,1.54.29h.29a14,14,0,0,0,1.49-.1,5.44,5.44,0,0,0,1.47-.26c.63-.23,2.25-.71,2.46-.75a8.22,8.22,0,0,0,2.75-1.54l.13-.1c.53-.45,1-.85,1-.84S20.37,39.54,19.64,40.08Z"/><path class="cls-39" d="M22.11,35.73a.75.75,0,0,0-.5-1L21,34.59a1,1,0,0,0-1.19.47L17.59,38.9a.47.47,0,0,0,.4.7h.36a1,1,0,0,1,.69.29l.6.61a.5.5,0,0,0,.84-.18Z"/><ellipse class="cls-1" cx="48.91" cy="40.69" rx="0.52" ry="2.96" transform="translate(-13.23 54.36) rotate(-52.17)"/><ellipse class="cls-2" cx="48.95" cy="40.72" rx="0.51" ry="2.9" transform="translate(-13.24 54.41) rotate(-52.17)"/><ellipse class="cls-3" cx="48.99" cy="40.76" rx="0.5" ry="2.85" transform="translate(-13.25 54.46) rotate(-52.17)"/><ellipse class="cls-4" cx="49.04" cy="40.79" rx="0.49" ry="2.79" transform="translate(-13.26 54.51) rotate(-52.17)"/><ellipse class="cls-5" cx="49.08" cy="40.83" rx="0.49" ry="2.74" transform="translate(-13.27 54.56) rotate(-52.17)"/><ellipse class="cls-6" cx="49.13" cy="40.86" rx="0.48" ry="2.68" transform="translate(-13.28 54.6) rotate(-52.17)"/><ellipse class="cls-7" cx="49.17" cy="40.89" rx="0.47" ry="2.62" transform="translate(-13.29 54.65) rotate(-52.17)"/><ellipse class="cls-8" cx="49.21" cy="40.93" rx="0.46" ry="2.57" transform="translate(-13.3 54.7) rotate(-52.17)"/><ellipse class="cls-9" cx="49.26" cy="40.96" rx="0.45" ry="2.51" transform="translate(-13.31 54.75) rotate(-52.17)"/><ellipse class="cls-10" cx="49.3" cy="41" rx="0.44" ry="2.46" transform="translate(-13.32 54.8) rotate(-52.17)"/><ellipse class="cls-11" cx="49.35" cy="41.03" rx="0.43" ry="2.4" transform="translate(-13.33 54.85) rotate(-52.17)"/><ellipse class="cls-12" cx="49.39" cy="41.07" rx="0.43" ry="2.35" transform="translate(-13.34 54.89) rotate(-52.17)"/><ellipse class="cls-13" cx="49.43" cy="41.1" rx="0.42" ry="2.29" transform="translate(-13.35 54.94) rotate(-52.17)"/><ellipse class="cls-14" cx="49.48" cy="41.13" rx="0.41" ry="2.24" transform="translate(-13.36 54.99) rotate(-52.17)"/><ellipse class="cls-15" cx="49.52" cy="41.17" rx="0.4" ry="2.18" transform="translate(-13.37 55.04) rotate(-52.17)"/><ellipse class="cls-16" cx="49.57" cy="41.2" rx="0.39" ry="2.12" transform="translate(-13.38 55.09) rotate(-52.18)"/><ellipse class="cls-17" cx="49.61" cy="41.24" rx="0.38" ry="2.07" transform="translate(-13.39 55.13) rotate(-52.18)"/><ellipse class="cls-18" cx="49.65" cy="41.27" rx="0.37" ry="2.01" transform="translate(-13.4 55.18) rotate(-52.18)"/><ellipse class="cls-19" cx="49.7" cy="41.3" rx="0.37" ry="1.96" transform="translate(-13.41 55.23) rotate(-52.18)"/><ellipse class="cls-20" cx="49.74" cy="41.34" rx="0.36" ry="1.9" transform="translate(-13.42 55.28) rotate(-52.18)"/><ellipse class="cls-21" cx="49.79" cy="41.37" rx="0.35" ry="1.85" transform="translate(-13.42 55.33) rotate(-52.18)"/><ellipse class="cls-22" cx="49.83" cy="41.41" rx="0.34" ry="1.79" transform="translate(-13.43 55.38) rotate(-52.18)"/><path class="cls-36" d="M50.78,43.15a.72.72,0,0,1,.33-.38.38.38,0,0,0,.07-.61l-.69-.61a6.89,6.89,0,0,0-1.32-.91l-.61-.32A4,4,0,0,0,47,39.86l-2.79-.24a.38.38,0,0,0-.42.36.44.44,0,0,0,.37.45l2.73.41a2.49,2.49,0,0,1,.76.24l1.06.54a1.63,1.63,0,0,1,.59.51l.82,1.15a.34.34,0,0,0,.6-.08Z"/><path class="cls-40" d="M50.4,42.67a.15.15,0,0,0,.27,0l0-.05a.3.3,0,0,1,.12-.14.15.15,0,0,0,0-.23l-.44-.42a5.5,5.5,0,0,0-1.28-.92l-.6-.31a7.57,7.57,0,0,0-2.85-.64L44.1,39.8a.14.14,0,0,0-.15.18.3.3,0,0,0,.25.22l2.78.32.84.23a4.93,4.93,0,0,1,1.09.45l0,0a3.47,3.47,0,0,1,.86.68l.21.23a2.14,2.14,0,0,1,.29.39Z"/><path class="cls-27" d="M45.89,40.85a1.63,1.63,0,0,1,0-.8,1.45,1.45,0,0,0-.06-1,.25.25,0,0,0-.24-.17,11.12,11.12,0,0,1-1.65.28c-.46,0-1.13,0-1.69,0a7.69,7.69,0,0,1-1.66-.3c-.6-.19-.87-.31-1.18-.4a2,2,0,0,1-.72-.35,13,13,0,0,0-2.39-1.64c-.33-.18-.28.23-.6.61l-.17.21c-.33.4-.33.81,0,1a10.86,10.86,0,0,1,1.74,1.17l.07,0a1.38,1.38,0,0,1,.29.82c0,.21.36.22.51,0s.11-.25.27-.26h.07l.06,0c.15.09.77.34,1.36.56a16.75,16.75,0,0,0,2.06.53,4.59,4.59,0,0,1,.6.61c.21.23.33.08.4-.19a.29.29,0,0,1,.29-.23h.08a.17.17,0,0,1,.08,0,7.82,7.82,0,0,0,.83.73c.25.17.32.13.4-.07l0,0c.12-.2.41-.06.63.07l.06,0c.49.25.78,1,1,.67s-.19-1-.34-1.56l0-.11Z"/><path class="cls-41" d="M45.11,41c.22.1.54.25.32-.32a1,1,0,0,1-.07-.59c.16-.65-.22-.65-.52-.66h-.69a7.68,7.68,0,0,1-1.28-.06l-.63-.06a8.19,8.19,0,0,1-1.56-.26l-.15,0c-.45-.12-.91-.26-1.35-.42a3,3,0,0,1-1.13-.7c-.33-.34-.5-.5-.84-.81l-.49-.35a.5.5,0,0,0-.28-.08c-1.12,0,1.2,1.68,2.15,2.27a2.24,2.24,0,0,1,.47.38c.24.26.68.27,1,.37l.06,0a2.37,2.37,0,0,1,.93.48l.15.12c.33.22.81-.11,1.06.17s.73-.21,1.12-.06.52.5.72.53.46-.16.7-.06Z"/><path class="cls-39" d="M34.24,34.71a1.12,1.12,0,0,0-.17,1.3l1.5,2.79a.6.6,0,0,0,.95.14l.41-.42a1.79,1.79,0,0,1,.66-.42l1-.37a.48.48,0,0,0,.16-.81l-3-2.67a.83.83,0,0,0-1.15.05Z"/><ellipse class="cls-1" cx="22.08" cy="46.32" rx="4.41" ry="0.75" transform="matrix(0.6, -0.8, 0.8, 0.6, -28.28, 36.48)"/><ellipse class="cls-2" cx="22.03" cy="46.38" rx="4.33" ry="0.73" transform="translate(-28.35 36.46) rotate(-53.45)"/><ellipse class="cls-3" cx="21.98" cy="46.45" rx="4.24" ry="0.72" transform="translate(-28.42 36.45) rotate(-53.45)"/><ellipse class="cls-4" cx="21.93" cy="46.52" rx="4.16" ry="0.71" transform="translate(-28.5 36.44) rotate(-53.45)"/><ellipse class="cls-5" cx="21.89" cy="46.58" rx="4.08" ry="0.7" transform="translate(-28.57 36.43) rotate(-53.45)"/><ellipse class="cls-6" cx="21.84" cy="46.65" rx="4" ry="0.69" transform="translate(-28.65 36.41) rotate(-53.45)"/><ellipse class="cls-7" cx="21.79" cy="46.72" rx="3.91" ry="0.67" transform="translate(-28.72 36.4) rotate(-53.45)"/><ellipse class="cls-8" cx="21.74" cy="46.78" rx="3.83" ry="0.66" transform="translate(-28.79 36.39) rotate(-53.45)"/><ellipse class="cls-9" cx="21.69" cy="46.85" rx="3.75" ry="0.65" transform="translate(-28.87 36.37) rotate(-53.45)"/><ellipse class="cls-10" cx="21.64" cy="46.92" rx="3.66" ry="0.64" transform="translate(-28.94 36.36) rotate(-53.45)"/><ellipse class="cls-11" cx="21.59" cy="46.98" rx="3.58" ry="0.62" transform="translate(-29.01 36.35) rotate(-53.45)"/><ellipse class="cls-12" cx="21.54" cy="47.05" rx="3.5" ry="0.61" transform="translate(-29.09 36.34) rotate(-53.45)"/><ellipse class="cls-13" cx="21.49" cy="47.12" rx="3.41" ry="0.6" transform="translate(-29.16 36.32) rotate(-53.45)"/><ellipse class="cls-14" cx="21.44" cy="47.18" rx="3.33" ry="0.59" transform="translate(-29.23 36.31) rotate(-53.45)"/><ellipse class="cls-15" cx="21.39" cy="47.25" rx="3.25" ry="0.58" transform="translate(-29.31 36.3) rotate(-53.45)"/><ellipse class="cls-16" cx="21.34" cy="47.32" rx="3.17" ry="0.56" transform="translate(-29.38 36.28) rotate(-53.45)"/><ellipse class="cls-17" cx="21.29" cy="47.38" rx="3.08" ry="0.55" transform="translate(-29.45 36.27) rotate(-53.45)"/><ellipse class="cls-18" cx="21.24" cy="47.45" rx="3" ry="0.54" transform="translate(-29.53 36.26) rotate(-53.45)"/><ellipse class="cls-19" cx="21.19" cy="47.52" rx="2.92" ry="0.53" transform="translate(-29.6 36.25) rotate(-53.45)"/><ellipse class="cls-20" cx="21.14" cy="47.58" rx="2.83" ry="0.51" transform="translate(-29.67 36.23) rotate(-53.45)"/><ellipse class="cls-21" cx="21.09" cy="47.65" rx="2.75" ry="0.5" transform="translate(-29.75 36.22) rotate(-53.45)"/><ellipse class="cls-22" cx="21.05" cy="47.72" rx="2.67" ry="0.49" transform="translate(-29.82 36.21) rotate(-53.45)"/><path class="cls-36" d="M21.83,48.28a2.93,2.93,0,0,1,.42-.68l1.39-1.66a3,3,0,0,1,.59-.54c.59-.41,1.83-1.28,2.64-1.82a1,1,0,0,1,.42-.15.31.31,0,0,0,.27-.19.09.09,0,0,0-.06-.12c-.06,0-.1-.08-.16-.12L27.27,43l-.09,0a.52.52,0,0,0-.47,0l-2.53,1.38a5.32,5.32,0,0,0-1.27,1l-1.5,1.54a8.18,8.18,0,0,0-1,1.26l-.93,1.44a.3.3,0,0,0,.25.46.72.72,0,0,1,.47.19l.05,0a.49.49,0,0,0,.79-.16Z"/><path class="cls-42" d="M25.59,44a.67.67,0,0,1-.29.47l-1,.63a5.08,5.08,0,0,0-1.07.95l-.68.8-.54.71a5.9,5.9,0,0,0-.7,1.17l-.43,1a.37.37,0,0,1-.44.2h0l-.23,0a.14.14,0,0,1-.11-.22l1.14-1.73,1.27-1.47.3-.35a9.82,9.82,0,0,1,1.8-1.65l.76-.54A.14.14,0,0,1,25.59,44Z"/><path class="cls-27" d="M29.81,36.83a.61.61,0,0,1,.37.84,16.23,16.23,0,0,0-.81,1.68l0,.1a4.42,4.42,0,0,0,.17,1.79c0,.2-.25.28-.39.13s-.37,0-.44.22c-.36,1-.83,1.85-.92,2.1s-.21.61-.29.94-.32.19-.52.14-.16,0-.3.13l-.08.09-.62.75a.54.54,0,0,1-.9-.14l-.49-.86a1.12,1.12,0,0,0-.31-.36c-.19-.14-.37-.32-.56-.46a.3.3,0,0,1,.06-.54c.23-.09.47-.21.71-.33a4.63,4.63,0,0,0,1.08-.59,7.89,7.89,0,0,0,1.77-2.16,28.18,28.18,0,0,1,1.72-3C29.22,36.93,29.44,36.68,29.81,36.83Z"/><path class="cls-43" d="M29.87,37a.69.69,0,0,1,.11.81c-.2.38-.49.93-.7,1.38a1.64,1.64,0,0,0-.18.77,2.7,2.7,0,0,1,0,.54c0,.17-.23.24-.4.3a.33.33,0,0,0-.18.23c-.13.36-.27.74-.36,1a3.52,3.52,0,0,1-.43.85,1.33,1.33,0,0,0-.2.45c-.09.39-.1.7-.31.9s-.56.31-.8.53l0,0c-.63.78-.73,0-.95-.35s-.16-.74.15-.82l.08,0a1.2,1.2,0,0,0,.73-.56q.46-.78,1-1.53.26-.47.53-.94a8.08,8.08,0,0,0,.67-1.45q.36-1,.78-2.05A.34.34,0,0,1,29.87,37Z"/><path class="cls-39" d="M30,32.78a1.19,1.19,0,0,1,.65,1.17l-.52,5.63a.44.44,0,0,1-.71.3l-.84-.66a.92.92,0,0,0-.67-.19.53.53,0,0,1-.57-.65l1.27-5.43a.63.63,0,0,1,.9-.42Z"/><path class="cls-44" d="M48.5,29.29a9.69,9.69,0,0,1,1.88,2.61,11.41,11.41,0,0,0,.86,1.29,7.21,7.21,0,0,0,1,1.21c.44.33,1.48.82,2,.37a2.22,2.22,0,0,0,.65-1.87c-.21-1.29-1.51.73-1.44,1.39s.57.24.68-.1a5.38,5.38,0,0,0,.2-1.53c0-.55-.4-.23-.41.15,0,.18-.05,1-.15.93l.09.3c0-.24.36-.55.51-.71s.09-.11.12,0a.74.74,0,0,1-.73.82c-1,0-1.42-.71-2-1.35-1.05-1.26-1.68-3-3-4C48.5,28.59,48.29,29.13,48.5,29.29Z"/><path class="cls-45" d="M48.51,22.26a4.07,4.07,0,0,0,1.8-1.4,8.85,8.85,0,0,0,.61-1,6,6,0,0,1,1.27-1.47,5.24,5.24,0,0,1,1.39-.76c.72-.33,1,.28,1.13.86a.7.7,0,0,1-.3-.36,3.7,3.7,0,0,1-.36-.69c-.08-.25-.14-.38-.4-.45-.09,0-.17.11-.2.17-.33.74.34,1.56.58,2.23.15.43.45-.29.37-.52s-.16-.38-.25-.57l-.21-.46q-.08-.18-.14-.37t-.09.15l-.2.17c.17,0,.57,1,.62,1.12a.82.82,0,0,0,.52.52.13.13,0,0,0,.11,0,1.53,1.53,0,0,0,.29-1.52c-.19-.84-.53-1.24-1.45-1a5.16,5.16,0,0,0-2.55,1.89c-.82,1-1.16,2.35-2.52,2.84C48.28,21.68,48.24,22.36,48.51,22.26Z"/><path class="cls-36" d="M45.63,30.58a8,8,0,0,0,3.56-1.26,3.91,3.91,0,0,0,1.58-2.65c-.34-.08-.6-.58-.59-1.19s.28-1.1.62-1.17a3.91,3.91,0,0,0-1.52-2.68,8,8,0,0,0-3.53-1.34,1.75,1.75,0,0,0-2,1.85v.16c.05.86.08,1.89.07,3.12s-.07,2.26-.14,3.12v.16A1.75,1.75,0,0,0,45.63,30.58Z"/><path class="cls-46" d="M49.93,25.53v0h0Z"/><path class="cls-47" d="M48.62,20.85a5.62,5.62,0,0,0-3-1.6A1.56,1.56,0,0,0,44,21c0,.2-.48,2.9-.5,4.38s.42,4.19.4,4.39a1.56,1.56,0,0,0,1.67,1.81,5.62,5.62,0,0,0,3-1.53,6.48,6.48,0,0,0,1.42-4.55v0A6.52,6.52,0,0,0,48.62,20.85Z"/><path class="cls-48" d="M49.63,25.47a5.11,5.11,0,0,0-1.26-3.92,5.57,5.57,0,0,0-2.81-1.35,1.41,1.41,0,0,0-.29,0c-.41,0-.63.45-.61.86.06,1.14.09,2.58.07,4.38q0,.24,0,.48a.9.9,0,0,0,.91,1,14.73,14.73,0,0,0,2.67-.32C49.39,26.26,49.62,25.87,49.63,25.47Z"/><path class="cls-49" d="M45.53,31.61a5.62,5.62,0,0,0,3-1.53,6.52,6.52,0,0,0,1.42-4.6A4.27,4.27,0,0,1,48.53,29a6.3,6.3,0,0,1-3,1.17l-.21,0c-.38,0-.81.23-.7.6a1.71,1.71,0,0,0,.52.82A1.31,1.31,0,0,0,45.53,31.61Z"/><path class="cls-50" d="M49,29.37c-1,.51-2-.35-3.06-1-.74-.45-1.3.09-1.36,1,0,.3,0,.36-.05.64,0,0,0,.09,0,.14a1.88,1.88,0,0,0,.61,1.45,1.28,1.28,0,0,0,.37,0,5.63,5.63,0,0,0,3-1.53A4.19,4.19,0,0,0,49,29.37Z"/><path class="cls-51" d="M49.1,21.57a4.28,4.28,0,0,0-.48-.65,5.63,5.63,0,0,0-3-1.59,1.33,1.33,0,0,0-.37,0,1.88,1.88,0,0,0-.64,1.43s0,.09,0,.14c0,.28,0,.35,0,.64,0,.86.59,1.42,1.34,1C47.12,21.87,48.15,21,49.1,21.57Z"/><path class="cls-52" d="M49,29.37a1.42,1.42,0,0,1-1.14.07,7,7,0,0,1-2.33.74l-.21,0c-.34,0-.7.18-.72.47a1.73,1.73,0,0,0,.54.89,1.28,1.28,0,0,0,.37,0,5.63,5.63,0,0,0,3-1.53A4.19,4.19,0,0,0,49,29.37Z"/><path class="cls-53" d="M48.22,21.42a5.69,5.69,0,0,0-2.65-1.21,1.42,1.42,0,0,0-.29,0c-.39,0-.6.4-.61.79,0,0,0,0,0,.07q0,.3,0,.62c.09.78.62,1.25,1.32.84A7.38,7.38,0,0,1,48.22,21.42Z"/><path class="cls-54" d="M26.22,36.51C20.68,36.44,5.63,36,5.75,25S20.93,13.87,26.47,13.93s10,5.93,9.91,11.4S31.76,36.57,26.22,36.51Z"/><path class="cls-55" d="M36.38,25.33a12,12,0,0,0-2.05-6.64c-1-.39-1.09-.87-2.56-1.76s-1.07-1-1.06-1.7v-.06a8.45,8.45,0,0,0-4.24-1.23C21,13.87,6.4,14,5.77,24.42l20.33.64a.75.75,0,0,0,.64-.44,2.09,2.09,0,0,1,.64-.73l1-.9c.65-.58,1.27-1.07,1.72-1.53l.26-.29a4.86,4.86,0,0,1-.37.46c-.44.49-1,1-1.67,1.6l-1,.93a1.57,1.57,0,0,0-.7,1.17h0a1.57,1.57,0,0,0,.67,1.19l1,1c.61.62,1.2,1.13,1.63,1.64A3.88,3.88,0,0,1,30.88,31l0,3.53A11.13,11.13,0,0,0,36.38,25.33Z"/><path d="M43.69,31.56a29.44,29.44,0,0,0,.66-6.14,29.44,29.44,0,0,0-.53-6.16v0c0,.22-.07,2.89-.12,6.13s0,5.91,0,6.13Z"/><path class="cls-46" d="M32.85,38.11h0Z"/><path class="cls-56" d="M42,34.59a4.52,4.52,0,0,0,1.68-3A58,58,0,0,0,44,25.41a58,58,0,0,0-.2-6.15,4.53,4.53,0,0,0-1.62-3.08,16.12,16.12,0,0,0-8.88-3.71,1.55,1.55,0,0,0-1.57,1.83l.33,2.25A9.17,9.17,0,0,1,31.65,21l-.91,2.53a5.3,5.3,0,0,0,0,3.48l.86,2.55A9.17,9.17,0,0,1,31.9,34l-.38,2.24a1.57,1.57,0,0,0,1.33,1.86h.22A16.13,16.13,0,0,0,42,34.59Z"/><path class="cls-57" d="M33.55,38.08A16.31,16.31,0,0,0,42,34.59c.95-.74,1-3.15,0-2.63a19.94,19.94,0,0,1-8.94,2.49h-.23a.57.57,0,0,0-.55.47l-.23,1.33a1.6,1.6,0,0,0,1,1.79A1.1,1.1,0,0,0,33.55,38.08Z"/><path class="cls-58" d="M42.83,25.8a17.42,17.42,0,0,0,.31-3.35,17.44,17.44,0,0,0-.23-3.36c-.12-.65-1.14-1.37-1.64-1.69A14.44,14.44,0,0,0,34.72,15a1.89,1.89,0,0,0-2,2.15A9.17,9.17,0,0,1,32.23,21l-.91,2.53a5.3,5.3,0,0,0,0,3.48l.19.56a1.89,1.89,0,0,0,1.82,1.3,20.35,20.35,0,0,0,7.89-1.43A2.55,2.55,0,0,0,42.83,25.8Z"/><path class="cls-59" d="M38.53,36.73c-.07-1-.7-.19-.69-1.1a6,6,0,0,1,.69-2.14c-.59.19-1.23.37-1.9.52-.07.25-.13.5-.19.74a4.63,4.63,0,0,1-.33,1.13.75.75,0,0,1-.43.44c-.27.12-.38.18-.46.39a3,3,0,0,0-.17,1.16A15.27,15.27,0,0,0,38.53,36.73Z"/><path class="cls-60" d="M30,27.24a6.64,6.64,0,0,1,0-4l.88-2.7a7.55,7.55,0,0,0,.24-.93,3.88,3.88,0,0,1-1,1.87c-.44.49-1,1-1.67,1.6l-1,.93a1.57,1.57,0,0,0-.7,1.17h0a1.57,1.57,0,0,0,.67,1.19l1,1c.61.62,1.2,1.13,1.63,1.64a3.88,3.88,0,0,1,.94,1.89,7.51,7.51,0,0,0-.22-.93Z"/><path class="cls-61" d="M29.33,27.38a2.17,2.17,0,0,0,0-.7,6.65,6.65,0,0,1,.18-3.41l.22-.69a.12.12,0,0,0-.2-.13l-2.16,2a1.07,1.07,0,0,0,0,1.56l1.56,1.5A.25.25,0,0,0,29.33,27.38Z"/><path class="cls-46" d="M23,39.28h0Z"/><path class="cls-62" d="M28.72,38.57a2.67,2.67,0,0,0,2.13-2.18l.36-2.86a7.54,7.54,0,0,0,0-2.19A3.81,3.81,0,0,0,30,29.1c-.46-.46-1.09-.94-1.75-1.5l-1-.88a2.09,2.09,0,0,1-.65-.72.75.75,0,0,0-.65-.42l-20.43,1a.44.44,0,0,0-.43.48c.61,6.29,6.6,12.76,18,12.2h.11A46.48,46.48,0,0,0,28.72,38.57Z"/><path class="cls-63" d="M27.56,29.3a1.71,1.71,0,0,0,1.06-.54.47.47,0,0,0-.08-.67l-1.76-1.5a1.52,1.52,0,0,1-.35-.42.71.71,0,0,0-.62-.41l-15.13.76a.23.23,0,0,0-.17.38c1.79,2,5.94,3.11,13.27,2.75C25.07,29.57,26.42,29.43,27.56,29.3Z"/><path class="cls-64" d="M28.15,38.67a2.75,2.75,0,0,0,2.12-2.25L30.45,35a.37.37,0,0,0-.41-.41l-1.51.18c-1.48.21-3.64.48-5.66.59C13.8,35.85,8.21,33.08,6,29.66c-.13-.21-.47-.09-.39.14C7.5,35.1,13.29,39.75,23,39.28h.12a44.74,44.74,0,0,0,5-.6Z"/><path class="cls-65" d="M20.83,38.26c-.05-.33-.27-.37-.49-.42a.84.84,0,0,1-.73-.72,6.91,6.91,0,0,1-.13-1.71q-1.21-.05-2.31-.19h0c.28.49.59,1.13.88,1.77a.82.82,0,0,1-.16,1c-.1.1-.1.17-.17.4s-.16.56-.17.58a23.15,23.15,0,0,0,3.27.33A6.53,6.53,0,0,0,20.83,38.26Z"/><path class="cls-66" d="M27.37,35c.14.25.7,1.23.9,1.66s-.27,1-.37,1.17-.49,1-.49,1l.74-.12h0a2.74,2.74,0,0,0,2.09-2.1.69.69,0,0,1-.74-.57,3.48,3.48,0,0,1,0-1.3l-.93.12Z"/><path class="cls-46" d="M23.43,11.1h0Z"/><path class="cls-67" d="M5.09,22.9a.44.44,0,0,0,.42.49l20.4,1.47a.75.75,0,0,0,.66-.41,2.09,2.09,0,0,1,.67-.71l1.06-.86c.67-.55,1.31-1,1.78-1.46a3.8,3.8,0,0,0,1.23-2.21A7.53,7.53,0,0,0,31.39,17l-.3-2.87A2.67,2.67,0,0,0,29,11.92a46.45,46.45,0,0,0-5.59-.83h-.09C12,10.28,5.83,16.62,5.09,22.9Z"/><path class="cls-68" d="M25.82,24.68a.71.71,0,0,0,.63-.4,1.52,1.52,0,0,1,.36-.42l2.75-2.24.24-.2a2,2,0,0,0,.49-.75l.06-.14a7.55,7.55,0,0,0,.49-3.47,3,3,0,0,0-2.51-2.69c-1.16-.18-2.6-.33-4-.43C14.29,13.21,10,18.19,9.72,21.71a4.18,4.18,0,0,0,.13,1.39.66.66,0,0,0,.61.47Z"/></svg>