<svg id="Layer_1" data-name="Layer 1" xmlns="http://www.w3.org/2000/svg" xmlns:xlink="http://www.w3.org/1999/xlink" viewBox="0 0 163.45 150.99"><defs><style>.cls-1{fill:none;}.cls-2{fill:#9c0;}.cls-3{clip-path:url(#clip-path);}.cls-4{fill:#99672e;}.cls-5{fill:#682c0d;}.cls-6{fill:#6e2e0e;}.cls-7{fill:url(#linear-gradient);}.cls-8{fill:url(#linear-gradient-2);}</style><clipPath id="clip-path"><rect class="cls-1" x="0.07" y="0.17" width="163.3" height="148.48"/></clipPath><linearGradient id="linear-gradient" x1="63.53" y1="64.52" x2="63.53" y2="-55.71" gradientUnits="userSpaceOnUse"><stop offset="0.08" stop-color="#99672e"/><stop offset="0.47" stop-color="#e7bc61"/></linearGradient><linearGradient id="linear-gradient-2" x1="64.5" y1="62.03" x2="97.56" y2="62.03" gradientUnits="userSpaceOnUse"><stop offset="0.24" stop-color="#381608"/><stop offset="0.82" stop-color="#682c0d"/></linearGradient></defs><title>small-tree</title><rect class="cls-2" y="95.87" width="163.45" height="52.84"/><g class="cls-3"><path class="cls-4" d="M154.54,126.07a12.45,12.45,0,0,0-1.64-3.07,10.31,10.31,0,0,0-2.45-2.08,29.8,29.8,0,0,0-5.18-2.7,6,6,0,0,0-5.52-6.55c-6.46-.9-18.88-1.8-22.11-7.49s-.25-21.86-5.22-27.55S101,49.08,100.5,30.21c-.14-5.34,0-16.32.28-29.82-1.24,0-2.47-.09-3.7-.18a32.06,32.06,0,0,1-3.69.2C87.74.38,82.1.14,76.45,0c-.77,0-1.55.08-2.32.08C68.6.43,63.05.36,57.51.15c-.37,3.78-.82,7.3-1.4,10.29-2.32,12-.66,51.9-2.65,59.89l-2,8S40,97.59,38.64,108.37a19.35,19.35,0,0,1-4.66,10c-2.28,1.34-4.55,2.64-6,4.74l1.42-.23a64.17,64.17,0,0,1-8.67,5.91c-2.65,1.54-4.51,4.13-7,5.92-2.83,2-6.35,2.93-9.18,5s-4.84,6.08-2.92,9A234.34,234.34,0,0,0,43,148.56c3.17-.29,6.34-.64,9.53-.71,8.39-.17,16.68,1.65,25,2.53a111.84,111.84,0,0,0,31.62-1.17c10.19-1.85,20.47-5.13,30.7-3.5,7,1.12,14.51,4.46,20.87,1.25a2.68,2.68,0,0,0,1.43-1.33,3,3,0,0,0-.32-2.14Zm-35.9-10.71c-3.71-.88-7.1-2.74-10.69-4a38.69,38.69,0,0,0-4.14-1.21c4.72-.4,10.33.49,12.6,2.73,1.06,1.05,1.95,1.91,2.74,2.61Zm18.59.82a49.68,49.68,0,0,0-6.13-.19,15.83,15.83,0,0,1,11.63,1.32A29.79,29.79,0,0,0,137.24,116.19Z"/><path class="cls-5" d="M74,.07c-1.05.06-2.11.13-3.16.16.31,9.71,2.09,15.63-1.13,23.39-5,12-2.32,41.92.66,22,1.82-12.2,2.78-32.75,4.53-45.53Z"/><path class="cls-5" d="M93.39.41C89.84.4,86.3.29,82.75.18c2.48,17.15,2.88,47.94,6.16,52.19C93.22,58,99.18,31.61,100.17,6.46c.07-1.66.12-3.7.17-6.07-1.09,0-2.18-.09-3.27-.17A32,32,0,0,1,93.39.41Z"/><path class="cls-6" d="M140.16,111.08c-6.46-.9-18.3-2.06-21.53-7.74s-1.23-21-6.2-26.7S102.32,48,101.83,29.16c-.14-5.26.07-15.8.44-28.76C100.53.42,98.79.34,97,.21q-1.24.14-2.49.18c.88,13.4,1,25.36,0,27.23C93.37,29.74,92.08,15.87,90.61.37Q86.46.3,82.31.17c.08,10.26-.07,17.32-.83,16.67C79.64,15.24,78,3.66,78,12s-.84,18.77-2.9,26,2.24,34.73-5,31.54c-4.23-1.85-11.23,22.34-16.38,43,.39.44.73,1.53,1.45,2,5.22,3.2,9.88,13,10.12,15.42s2.74,8.39,7.21,9.58,5,9,5,9,2.49-9.88-3-12.57l-5.47-2.7s-.58-22.11,3.9-18.52,13,9.83,20,10.73,13.17,10.18,23.6,10.18c0,0,1.25-6.5-13.66-16.09s6.65-8.43,12.11-3,8,3.79,15.9,1.1,14.59,2.16,14.59,2.16S146.62,112,140.16,111.08Z"/><path class="cls-7" d="M62,.29a118.83,118.83,0,0,1-1.11,12C58.51,26.32,56.52,23,56.52,38.3s-2.48,32,1.74,24.25S57.27,38,62,29s4.89-10.78,5.3-20.66,3.32,7.71,3.64,3.3c.1-1.43.25-6,.32-11.42C68.16.34,65.06.35,62,.29Z"/><path class="cls-8" d="M87.25,27.62a150.27,150.27,0,0,0-5.77,25.51c-2.18,15.21-2,29.19-7.74,32.38S60.26,100.29,67.3,99.88s7-17.57,20-8.38,11.26-13.63,7.95-27S89.9,92.3,87.25,74.73,91.44,11.31,87.25,27.62Z"/></g></svg>