<svg xmlns="http://www.w3.org/2000/svg" xmlns:xlink="http://www.w3.org/1999/xlink" viewBox="0 0 325.66 109.71"><defs><style>.cls-1{fill:none;}.cls-2{isolation:isolate;}.cls-3{fill:#9c0;}.cls-4{fill:#708714;}.cls-5{clip-path:url(#clip-path);}.cls-6{fill:#689f24;}.cls-23,.cls-7{fill:#80d12f;}.cls-7{opacity:0.7;}.cls-111,.cls-112,.cls-128,.cls-129,.cls-145,.cls-146,.cls-26,.cls-27,.cls-43,.cls-44,.cls-60,.cls-61,.cls-77,.cls-78,.cls-8,.cls-9,.cls-94,.cls-95{mix-blend-mode:soft-light;}.cls-8{fill:url(#linear-gradient);}.cls-9{fill:url(#linear-gradient-2);}.cls-10,.cls-100,.cls-101,.cls-102,.cls-104,.cls-105,.cls-106,.cls-108,.cls-11,.cls-113,.cls-114,.cls-115,.cls-117,.cls-118,.cls-119,.cls-12,.cls-121,.cls-122,.cls-123,.cls-125,.cls-130,.cls-131,.cls-132,.cls-134,.cls-135,.cls-136,.cls-138,.cls-139,.cls-14,.cls-140,.cls-142,.cls-147,.cls-148,.cls-149,.cls-15,.cls-151,.cls-152,.cls-153,.cls-155,.cls-156,.cls-157,.cls-159,.cls-16,.cls-18,.cls-19,.cls-20,.cls-22,.cls-28,.cls-29,.cls-30,.cls-32,.cls-33,.cls-34,.cls-36,.cls-37,.cls-38,.cls-40,.cls-45,.cls-46,.cls-47,.cls-49,.cls-50,.cls-51,.cls-53,.cls-54,.cls-55,.cls-57,.cls-62,.cls-63,.cls-64,.cls-66,.cls-67,.cls-68,.cls-70,.cls-71,.cls-72,.cls-74,.cls-79,.cls-80,.cls-81,.cls-83,.cls-84,.cls-85,.cls-87,.cls-88,.cls-89,.cls-91,.cls-96,.cls-97,.cls-98{opacity:0.5;}.cls-10,.cls-100,.cls-101,.cls-102,.cls-104,.cls-105,.cls-106,.cls-11,.cls-113,.cls-114,.cls-115,.cls-117,.cls-118,.cls-119,.cls-12,.cls-121,.cls-122,.cls-123,.cls-130,.cls-131,.cls-132,.cls-134,.cls-135,.cls-136,.cls-138,.cls-139,.cls-14,.cls-140,.cls-147,.cls-148,.cls-149,.cls-15,.cls-151,.cls-152,.cls-153,.cls-155,.cls-156,.cls-157,.cls-16,.cls-18,.cls-19,.cls-20,.cls-28,.cls-29,.cls-30,.cls-32,.cls-33,.cls-34,.cls-36,.cls-37,.cls-38,.cls-45,.cls-46,.cls-47,.cls-49,.cls-50,.cls-51,.cls-53,.cls-54,.cls-55,.cls-62,.cls-63,.cls-64,.cls-66,.cls-67,.cls-68,.cls-70,.cls-71,.cls-72,.cls-79,.cls-80,.cls-81,.cls-83,.cls-84,.cls-85,.cls-87,.cls-88,.cls-89,.cls-96,.cls-97,.cls-98{mix-blend-mode:screen;}.cls-10{fill:url(#radial-gradient);}.cls-11{fill:url(#radial-gradient-2);}.cls-12{fill:url(#radial-gradient-3);}.cls-103,.cls-107,.cls-108,.cls-116,.cls-120,.cls-124,.cls-125,.cls-13,.cls-133,.cls-137,.cls-141,.cls-142,.cls-150,.cls-154,.cls-158,.cls-159,.cls-17,.cls-21,.cls-22,.cls-31,.cls-35,.cls-39,.cls-40,.cls-48,.cls-52,.cls-56,.cls-57,.cls-65,.cls-69,.cls-73,.cls-74,.cls-82,.cls-86,.cls-90,.cls-91,.cls-99{mix-blend-mode:color-dodge;}.cls-13{fill:url(#radial-gradient-4);}.cls-14{fill:url(#radial-gradient-5);}.cls-15{fill:url(#radial-gradient-6);}.cls-16{fill:url(#radial-gradient-7);}.cls-17{fill:url(#radial-gradient-8);}.cls-18{fill:url(#radial-gradient-9);}.cls-19{fill:url(#radial-gradient-10);}.cls-20{fill:url(#radial-gradient-11);}.cls-21{fill:url(#radial-gradient-12);}.cls-22{fill:url(#radial-gradient-13);}.cls-109,.cls-126,.cls-143,.cls-160,.cls-24,.cls-41,.cls-58,.cls-75,.cls-92{mix-blend-mode:multiply;}.cls-24{fill:url(#linear-gradient-3);}.cls-25{clip-path:url(#clip-path-2);}.cls-26{fill:url(#linear-gradient-4);}.cls-27{fill:url(#linear-gradient-5);}.cls-28{fill:url(#radial-gradient-14);}.cls-29{fill:url(#radial-gradient-15);}.cls-30{fill:url(#radial-gradient-16);}.cls-31{fill:url(#radial-gradient-17);}.cls-32{fill:url(#radial-gradient-18);}.cls-33{fill:url(#radial-gradient-19);}.cls-34{fill:url(#radial-gradient-20);}.cls-35{fill:url(#radial-gradient-21);}.cls-36{fill:url(#radial-gradient-22);}.cls-37{fill:url(#radial-gradient-23);}.cls-38{fill:url(#radial-gradient-24);}.cls-39{fill:url(#radial-gradient-25);}.cls-40{fill:url(#radial-gradient-26);}.cls-41{fill:url(#linear-gradient-6);}.cls-42{clip-path:url(#clip-path-3);}.cls-43{fill:url(#linear-gradient-7);}.cls-44{fill:url(#linear-gradient-8);}.cls-45{fill:url(#radial-gradient-27);}.cls-46{fill:url(#radial-gradient-28);}.cls-47{fill:url(#radial-gradient-29);}.cls-48{fill:url(#radial-gradient-30);}.cls-49{fill:url(#radial-gradient-31);}.cls-50{fill:url(#radial-gradient-32);}.cls-51{fill:url(#radial-gradient-33);}.cls-52{fill:url(#radial-gradient-34);}.cls-53{fill:url(#radial-gradient-35);}.cls-54{fill:url(#radial-gradient-36);}.cls-55{fill:url(#radial-gradient-37);}.cls-56{fill:url(#radial-gradient-38);}.cls-57{fill:url(#radial-gradient-39);}.cls-58{fill:url(#linear-gradient-9);}.cls-59{clip-path:url(#clip-path-4);}.cls-60{fill:url(#linear-gradient-10);}.cls-61{fill:url(#linear-gradient-11);}.cls-62{fill:url(#radial-gradient-40);}.cls-63{fill:url(#radial-gradient-41);}.cls-64{fill:url(#radial-gradient-42);}.cls-65{fill:url(#radial-gradient-43);}.cls-66{fill:url(#radial-gradient-44);}.cls-67{fill:url(#radial-gradient-45);}.cls-68{fill:url(#radial-gradient-46);}.cls-69{fill:url(#radial-gradient-47);}.cls-70{fill:url(#radial-gradient-48);}.cls-71{fill:url(#radial-gradient-49);}.cls-72{fill:url(#radial-gradient-50);}.cls-73{fill:url(#radial-gradient-51);}.cls-74{fill:url(#radial-gradient-52);}.cls-75{fill:url(#linear-gradient-12);}.cls-76{clip-path:url(#clip-path-5);}.cls-77{fill:url(#linear-gradient-13);}.cls-78{fill:url(#linear-gradient-14);}.cls-79{fill:url(#radial-gradient-53);}.cls-80{fill:url(#radial-gradient-54);}.cls-81{fill:url(#radial-gradient-55);}.cls-82{fill:url(#radial-gradient-56);}.cls-83{fill:url(#radial-gradient-57);}.cls-84{fill:url(#radial-gradient-58);}.cls-85{fill:url(#radial-gradient-59);}.cls-86{fill:url(#radial-gradient-60);}.cls-87{fill:url(#radial-gradient-61);}.cls-88{fill:url(#radial-gradient-62);}.cls-89{fill:url(#radial-gradient-63);}.cls-90{fill:url(#radial-gradient-64);}.cls-91{fill:url(#radial-gradient-65);}.cls-92{fill:url(#linear-gradient-15);}.cls-93{clip-path:url(#clip-path-6);}.cls-94{fill:url(#linear-gradient-16);}.cls-95{fill:url(#linear-gradient-17);}.cls-96{fill:url(#radial-gradient-66);}.cls-97{fill:url(#radial-gradient-67);}.cls-98{fill:url(#radial-gradient-68);}.cls-99{fill:url(#radial-gradient-69);}.cls-100{fill:url(#radial-gradient-70);}.cls-101{fill:url(#radial-gradient-71);}.cls-102{fill:url(#radial-gradient-72);}.cls-103{fill:url(#radial-gradient-73);}.cls-104{fill:url(#radial-gradient-74);}.cls-105{fill:url(#radial-gradient-75);}.cls-106{fill:url(#radial-gradient-76);}.cls-107{fill:url(#radial-gradient-77);}.cls-108{fill:url(#radial-gradient-78);}.cls-109{fill:url(#linear-gradient-18);}.cls-110{clip-path:url(#clip-path-7);}.cls-111{fill:url(#linear-gradient-19);}.cls-112{fill:url(#linear-gradient-20);}.cls-113{fill:url(#radial-gradient-79);}.cls-114{fill:url(#radial-gradient-80);}.cls-115{fill:url(#radial-gradient-81);}.cls-116{fill:url(#radial-gradient-82);}.cls-117{fill:url(#radial-gradient-83);}.cls-118{fill:url(#radial-gradient-84);}.cls-119{fill:url(#radial-gradient-85);}.cls-120{fill:url(#radial-gradient-86);}.cls-121{fill:url(#radial-gradient-87);}.cls-122{fill:url(#radial-gradient-88);}.cls-123{fill:url(#radial-gradient-89);}.cls-124{fill:url(#radial-gradient-90);}.cls-125{fill:url(#radial-gradient-91);}.cls-126{fill:url(#linear-gradient-21);}.cls-127{clip-path:url(#clip-path-8);}.cls-128{fill:url(#linear-gradient-22);}.cls-129{fill:url(#linear-gradient-23);}.cls-130{fill:url(#radial-gradient-92);}.cls-131{fill:url(#radial-gradient-93);}.cls-132{fill:url(#radial-gradient-94);}.cls-133{fill:url(#radial-gradient-95);}.cls-134{fill:url(#radial-gradient-96);}.cls-135{fill:url(#radial-gradient-97);}.cls-136{fill:url(#radial-gradient-98);}.cls-137{fill:url(#radial-gradient-99);}.cls-138{fill:url(#radial-gradient-100);}.cls-139{fill:url(#radial-gradient-101);}.cls-140{fill:url(#radial-gradient-102);}.cls-141{fill:url(#radial-gradient-103);}.cls-142{fill:url(#radial-gradient-104);}.cls-143{fill:url(#linear-gradient-24);}.cls-144{clip-path:url(#clip-path-9);}.cls-145{fill:url(#linear-gradient-25);}.cls-146{fill:url(#linear-gradient-26);}.cls-147{fill:url(#radial-gradient-105);}.cls-148{fill:url(#radial-gradient-106);}.cls-149{fill:url(#radial-gradient-107);}.cls-150{fill:url(#radial-gradient-108);}.cls-151{fill:url(#radial-gradient-109);}.cls-152{fill:url(#radial-gradient-110);}.cls-153{fill:url(#radial-gradient-111);}.cls-154{fill:url(#radial-gradient-112);}.cls-155{fill:url(#radial-gradient-113);}.cls-156{fill:url(#radial-gradient-114);}.cls-157{fill:url(#radial-gradient-115);}.cls-158{fill:url(#radial-gradient-116);}.cls-159{fill:url(#radial-gradient-117);}.cls-160{fill:url(#linear-gradient-27);}</style><clipPath id="clip-path" transform="translate(0 10.66)"><path class="cls-1" d="M46.53,28.52c.47,6.76,5.75,11.1,5.75,11.1s4.51-6.62,4-13.38-5.75-11.1-5.75-11.1S46.06,21.76,46.53,28.52Z"/></clipPath><linearGradient id="linear-gradient" x1="19.07" y1="-47.37" x2="25.63" y2="-47.37" gradientTransform="translate(64.12 -22.5) rotate(171.22)" gradientUnits="userSpaceOnUse"><stop offset="0" stop-color="#00244d"/><stop offset="1" stop-color="#adbd22"/></linearGradient><linearGradient id="linear-gradient-2" x1="15.09" y1="-47.37" x2="21.13" y2="-47.37" gradientTransform="translate(64.12 -22.5) rotate(171.22)" gradientUnits="userSpaceOnUse"><stop offset="0" stop-color="#37589b"/><stop offset="0.14" stop-color="#405f9d"/><stop offset="0.38" stop-color="#5971a2"/><stop offset="0.68" stop-color="#8290ab"/><stop offset="1" stop-color="#b5b5b5"/></linearGradient><radialGradient id="radial-gradient" cx="-3.57" cy="27.05" r="3.19" gradientTransform="matrix(-0.4, 0.05, 0.07, -1.11, 44.06, 56.13)" gradientUnits="userSpaceOnUse"><stop offset="0" stop-color="#00384e"/><stop offset="0.02" stop-color="#00354a"/><stop offset="0.15" stop-color="#00222f"/><stop offset="0.29" stop-color="#00131a"/><stop offset="0.46" stop-color="#00080b"/><stop offset="0.65" stop-color="#000203"/><stop offset="0.95"/></radialGradient><radialGradient id="radial-gradient-2" cx="95.43" cy="35.32" r="4.42" gradientTransform="matrix(-0.47, 0.01, 0.32, -1.77, 81.64, 80.57)" gradientUnits="userSpaceOnUse"><stop offset="0.23" stop-color="#00384e"/><stop offset="0.24" stop-color="#00374d"/><stop offset="0.55" stop-color="#001923"/><stop offset="0.8" stop-color="#00070a"/><stop offset="0.95"/></radialGradient><radialGradient id="radial-gradient-3" cx="-24.41" cy="34.93" r="3.15" gradientTransform="matrix(-0.39, 0, 0.21, -1.12, 31.04, 60.96)" gradientUnits="userSpaceOnUse"><stop offset="0.18" stop-color="#00384e"/><stop offset="0.19" stop-color="#00354a"/><stop offset="0.3" stop-color="#00222f"/><stop offset="0.42" stop-color="#00131a"/><stop offset="0.55" stop-color="#00080b"/><stop offset="0.7" stop-color="#000203"/><stop offset="0.95"/></radialGradient><radialGradient id="radial-gradient-4" cx="-4.2" cy="28.25" r="13.74" gradientTransform="matrix(-0.4, 0.05, 0.07, -1.11, 44.06, 56.13)" gradientUnits="userSpaceOnUse"><stop offset="0" stop-color="#804d82"/><stop offset="0.06" stop-color="#693f6b"/><stop offset="0.17" stop-color="#492c4a"/><stop offset="0.28" stop-color="#2e1c2f"/><stop offset="0.4" stop-color="#1a0f1a"/><stop offset="0.53" stop-color="#0b070b"/><stop offset="0.69" stop-color="#030203"/><stop offset="0.95"/></radialGradient><radialGradient id="radial-gradient-5" cx="235.64" cy="-98.68" r="3.19" gradientTransform="matrix(-0.35, 0.24, -0.58, -0.86, 76.47, -103.37)" xlink:href="#radial-gradient"/><radialGradient id="radial-gradient-6" cx="264.35" cy="-49.58" r="4.42" gradientTransform="matrix(-0.44, 0.25, -0.73, -1.48, 126.62, -106.11)" xlink:href="#radial-gradient-2"/><radialGradient id="radial-gradient-7" cx="174.32" cy="-99.27" r="3.15" gradientTransform="matrix(-0.37, 0.21, -0.45, -0.94, 69.24, -93.76)" xlink:href="#radial-gradient-3"/><radialGradient id="radial-gradient-8" cx="235.01" cy="-97.49" r="13.74" gradientTransform="matrix(-0.35, 0.24, -0.58, -0.86, 76.47, -103.37)" xlink:href="#radial-gradient-4"/><radialGradient id="radial-gradient-9" cx="-31.09" cy="59.1" r="3.19" gradientTransform="matrix(-0.4, 0.09, -0.15, -3.07, 48.55, 209.13)" xlink:href="#radial-gradient"/><radialGradient id="radial-gradient-10" cx="118.77" cy="-19.08" r="4.42" gradientTransform="matrix(-0.47, 0.11, -0.14, -1.71, 105.42, -9.66)" xlink:href="#radial-gradient-2"/><radialGradient id="radial-gradient-11" cx="9.66" cy="-39.25" r="5.55" gradientTransform="matrix(-0.4, 0.11, -0.12, -1.07, 50.9, -24.04)" xlink:href="#radial-gradient-3"/><radialGradient id="radial-gradient-12" cx="-97.8" cy="-12.46" r="13.74" gradientTransform="matrix(-0.34, 0.07, -0.05, -1.09, 17.96, 17.61)" xlink:href="#radial-gradient-4"/><radialGradient id="radial-gradient-13" cx="-98.15" cy="-22.98" r="13.74" gradientTransform="matrix(-0.34, 0.07, -0.05, -1.09, 17.96, 17.61)" xlink:href="#radial-gradient-4"/><linearGradient id="linear-gradient-3" x1="18.68" y1="-46.8" x2="21.18" y2="-46.8" gradientTransform="translate(64.12 -22.5) rotate(171.22)" gradientUnits="userSpaceOnUse"><stop offset="0" stop-color="#4c8534"/><stop offset="0.14" stop-color="#78a365"/><stop offset="0.29" stop-color="#a1bf94"/><stop offset="0.44" stop-color="#c3d6ba"/><stop offset="0.58" stop-color="#dde8d8"/><stop offset="0.73" stop-color="#f0f5ee"/><stop offset="0.87" stop-color="#fbfcfb"/><stop offset="1" stop-color="#fff"/></linearGradient><clipPath id="clip-path-2" transform="translate(0 10.66)"><path class="cls-1" d="M36.9,10.87C31.58,7.06,30.65.07,30.65.07s7.7-.82,13,3,6.26,10.79,6.26,10.79S42.23,14.67,36.9,10.87Z"/></clipPath><linearGradient id="linear-gradient-4" x1="88.05" y1="1.74" x2="94.28" y2="1.74" gradientTransform="matrix(-0.62, 0.78, 0.78, 0.62, 94.1, -63.58)" xlink:href="#linear-gradient"/><linearGradient id="linear-gradient-5" x1="83.54" y1="1.74" x2="89.26" y2="1.74" gradientTransform="matrix(-0.62, 0.78, 0.78, 0.62, 94.1, -63.58)" xlink:href="#linear-gradient-2"/><radialGradient id="radial-gradient-14" cx="124.91" cy="32.82" r="3.19" gradientTransform="matrix(-0.24, 0.34, 0.94, 0.49, 38.22, -47.43)" xlink:href="#radial-gradient"/><radialGradient id="radial-gradient-15" cx="207.97" cy="35.8" r="4.42" gradientTransform="matrix(-0.24, 0.42, 1.61, 0.6, 37.54, -95)" xlink:href="#radial-gradient-2"/><radialGradient id="radial-gradient-16" cx="110.22" cy="34.75" r="3.15" gradientTransform="matrix(-0.2, 0.36, 1.02, 0.37, 29.41, -39.53)" xlink:href="#radial-gradient-3"/><radialGradient id="radial-gradient-17" cx="124.28" cy="34.01" r="13.74" gradientTransform="matrix(-0.24, 0.34, 0.94, 0.49, 38.22, -47.43)" xlink:href="#radial-gradient-4"/><radialGradient id="radial-gradient-18" cx="335.77" cy="-68.21" r="3.19" gradientTransform="matrix(-0.38, 0.2, 0.42, 0.95, 185.23, 0.6)" xlink:href="#radial-gradient"/><radialGradient id="radial-gradient-19" cx="361.69" cy="-33.13" r="4.42" gradientTransform="matrix(-0.42, 0.27, 0.85, 1.4, 214.5, -44.72)" xlink:href="#radial-gradient-2"/><radialGradient id="radial-gradient-20" cx="285.29" cy="-74.85" r="3.15" gradientTransform="matrix(-0.36, 0.23, 0.54, 0.88, 174.94, 3.69)" xlink:href="#radial-gradient-3"/><radialGradient id="radial-gradient-21" cx="335.14" cy="-67.01" r="13.73" gradientTransform="matrix(-0.38, 0.2, 0.42, 0.95, 185.23, 0.6)" xlink:href="#radial-gradient-4"/><radialGradient id="radial-gradient-22" cx="99.21" cy="62.88" r="3.19" gradientTransform="matrix(-0.27, 0.32, 2.45, 1.67, -84.6, -129.54)" xlink:href="#radial-gradient"/><radialGradient id="radial-gradient-23" cx="227.49" cy="-12.44" r="4.42" gradientTransform="matrix(-0.33, 0.37, 1.34, 0.98, 124.66, -70.91)" xlink:href="#radial-gradient-2"/><radialGradient id="radial-gradient-24" cx="135.74" cy="-27.45" r="5.55" gradientTransform="matrix(-0.29, 0.31, 0.82, 0.64, 108.79, -13.68)" xlink:href="#radial-gradient-3"/><radialGradient id="radial-gradient-25" cx="56.62" cy="-2.29" r="13.74" gradientTransform="matrix(-0.23, 0.28, 0.87, 0.59, 58.61, -6.36)" xlink:href="#radial-gradient-4"/><radialGradient id="radial-gradient-26" cx="56.27" cy="-12.82" r="13.74" gradientTransform="matrix(-0.23, 0.28, 0.87, 0.59, 58.61, -6.36)" xlink:href="#radial-gradient-4"/><linearGradient id="linear-gradient-6" x1="87.69" y1="2.29" x2="89.31" y2="2.29" gradientTransform="matrix(-0.62, 0.78, 0.78, 0.62, 94.1, -63.58)" xlink:href="#linear-gradient-3"/><clipPath id="clip-path-3" transform="translate(0 10.66)"><path class="cls-1" d="M39,25.25a18.82,18.82,0,0,1-12.87,1.13S30,19.19,36.44,16A18.82,18.82,0,0,1,49.3,14.88S45.4,22.08,39,25.25Z"/></clipPath><linearGradient id="linear-gradient-7" x1="423.72" y1="-124.63" x2="430.28" y2="-124.63" gradientTransform="matrix(0.36, 0.93, 0.93, -0.36, 2.15, -420.88)" xlink:href="#linear-gradient"/><linearGradient id="linear-gradient-8" x1="420.17" y1="-124.63" x2="426.19" y2="-124.63" gradientTransform="matrix(0.36, 0.93, 0.93, -0.36, 2.15, -420.88)" xlink:href="#linear-gradient-2"/><radialGradient id="radial-gradient-27" cx="862.88" cy="-92.22" r="3.19" gradientTransform="matrix(0.15, 0.35, 0.98, -0.64, 4.51, -340.89)" xlink:href="#radial-gradient"/><radialGradient id="radial-gradient-28" cx="794.64" cy="-61.24" r="4.42" gradientTransform="matrix(0.22, 0.39, 1.47, -1.19, -34.52, -360.68)" xlink:href="#radial-gradient-2"/><radialGradient id="radial-gradient-29" cx="794.52" cy="-119.3" r="3.15" gradientTransform="matrix(0.19, 0.32, 0.92, -0.76, 6.45, -328.16)" xlink:href="#radial-gradient-3"/><radialGradient id="radial-gradient-30" cx="862.25" cy="-91.02" r="13.74" gradientTransform="matrix(0.15, 0.35, 0.98, -0.64, 4.51, -340.89)" xlink:href="#radial-gradient-4"/><radialGradient id="radial-gradient-31" cx="1158.36" cy="-39.8" r="3.19" gradientTransform="matrix(-0.06, 0.42, 1.06, 0.02, 135.79, -453.58)" xlink:href="#radial-gradient"/><radialGradient id="radial-gradient-32" cx="1057.54" cy="-34.21" r="4.42" gradientTransform="matrix(-0.02, 0.49, 1.7, -0.18, 113.2, -495.36)" xlink:href="#radial-gradient-2"/><radialGradient id="radial-gradient-33" cx="1107.44" cy="-78.64" r="3.15" gradientTransform="matrix(-0.01, 0.41, 1.07, -0.12, 130.37, -441.16)" xlink:href="#radial-gradient-3"/><radialGradient id="radial-gradient-34" cx="1157.73" cy="-38.6" r="13.74" gradientTransform="matrix(-0.06, 0.42, 1.06, 0.02, 135.79, -453.58)" xlink:href="#radial-gradient-4"/><radialGradient id="radial-gradient-35" cx="867.96" cy="27.9" r="3.19" gradientTransform="matrix(0.11, 0.37, 2.87, -1.5, -137.8, -264.25)" xlink:href="#radial-gradient"/><radialGradient id="radial-gradient-36" cx="889.24" cy="-69.44" r="4.42" gradientTransform="matrix(0.12, 0.45, 1.63, -0.79, 36.51, -427.43)" xlink:href="#radial-gradient-2"/><radialGradient id="radial-gradient-37" cx="919.33" cy="-110.21" r="5.55" gradientTransform="matrix(0.09, 0.38, 1.03, -0.47, 74.7, -388.48)" xlink:href="#radial-gradient-3"/><radialGradient id="radial-gradient-38" cx="952.71" cy="-100.41" r="13.74" gradientTransform="matrix(0.1, 0.32, 1.02, -0.53, 51.33, -340.62)" xlink:href="#radial-gradient-4"/><radialGradient id="radial-gradient-39" cx="952.36" cy="-110.94" r="13.74" gradientTransform="matrix(0.1, 0.32, 1.02, -0.53, 51.33, -340.62)" xlink:href="#radial-gradient-4"/><linearGradient id="linear-gradient-9" x1="423.33" y1="-124.03" x2="426.24" y2="-124.03" gradientTransform="matrix(0.36, 0.93, 0.93, -0.36, 2.15, -420.88)" xlink:href="#linear-gradient-3"/><clipPath id="clip-path-4" transform="translate(0 10.66)"><path class="cls-1" d="M168.12,31.22c.47,6.76,5.75,11.1,5.75,11.1s4.51-6.62,4-13.38-5.75-11.1-5.75-11.1S167.64,24.46,168.12,31.22Z"/></clipPath><linearGradient id="linear-gradient-10" x1="-100.68" y1="-68.59" x2="-94.11" y2="-68.59" xlink:href="#linear-gradient"/><linearGradient id="linear-gradient-11" x1="-104.65" y1="-68.59" x2="-98.62" y2="-68.59" xlink:href="#linear-gradient-2"/><radialGradient id="radial-gradient-40" cx="-309.9" cy="11.54" r="3.19" xlink:href="#radial-gradient"/><radialGradient id="radial-gradient-41" cx="-167.22" cy="32.97" r="4.42" xlink:href="#radial-gradient-2"/><radialGradient id="radial-gradient-42" cx="-333.83" cy="32.05" r="3.15" xlink:href="#radial-gradient-3"/><radialGradient id="radial-gradient-43" cx="-310.53" cy="12.73" r="13.74" xlink:href="#radial-gradient-4"/><radialGradient id="radial-gradient-44" cx="2.62" cy="-168.26" r="3.19" gradientTransform="matrix(-0.35, 0.24, -0.58, -0.86, 76.47, -103.37)" xlink:href="#radial-gradient"/><radialGradient id="radial-gradient-45" cx="48.37" cy="-87.5" r="4.42" gradientTransform="matrix(-0.44, 0.25, -0.73, -1.48, 126.62, -106.11)" xlink:href="#radial-gradient-2"/><radialGradient id="radial-gradient-46" cx="-81.53" cy="-158.82" r="3.15" gradientTransform="matrix(-0.37, 0.21, -0.45, -0.94, 69.24, -93.76)" xlink:href="#radial-gradient-3"/><radialGradient id="radial-gradient-47" cx="1.99" cy="-167.07" r="13.74" gradientTransform="matrix(-0.35, 0.24, -0.58, -0.86, 76.47, -103.37)" xlink:href="#radial-gradient-4"/><radialGradient id="radial-gradient-48" cx="-331.17" cy="49.86" r="3.19" gradientTransform="matrix(-0.4, 0.09, -0.15, -3.07, 48.55, 209.13)" xlink:href="#radial-gradient"/><radialGradient id="radial-gradient-49" cx="-133.77" cy="-37.57" r="4.42" gradientTransform="matrix(-0.47, 0.11, -0.14, -1.71, 105.42, -9.66)" xlink:href="#radial-gradient-2"/><radialGradient id="radial-gradient-50" cx="-285.53" cy="-71.19" r="5.55" gradientTransform="matrix(-0.4, 0.11, -0.12, -1.07, 50.9, -24.04)" xlink:href="#radial-gradient-3"/><radialGradient id="radial-gradient-51" cx="-447.75" cy="-38.59" r="13.74" gradientTransform="matrix(-0.34, 0.07, -0.05, -1.09, 17.96, 17.61)" xlink:href="#radial-gradient-4"/><radialGradient id="radial-gradient-52" cx="-448.1" cy="-49.11" r="13.74" gradientTransform="matrix(-0.34, 0.07, -0.05, -1.09, 17.96, 17.61)" xlink:href="#radial-gradient-4"/><linearGradient id="linear-gradient-12" x1="-101.07" y1="-68.02" x2="-98.57" y2="-68.02" xlink:href="#linear-gradient-3"/><clipPath id="clip-path-5" transform="translate(0 10.66)"><path class="cls-1" d="M158.49,13.56c-5.32-3.81-6.25-10.79-6.25-10.79s7.7-.82,13,3,6.26,10.79,6.26,10.79S163.81,17.36,158.49,13.56Z"/></clipPath><linearGradient id="linear-gradient-13" x1="14.53" y1="98.62" x2="20.77" y2="98.62" gradientTransform="matrix(-0.62, 0.78, 0.78, 0.62, 94.1, -63.58)" xlink:href="#linear-gradient"/><linearGradient id="linear-gradient-14" x1="10.02" y1="98.62" x2="15.74" y2="98.62" gradientTransform="matrix(-0.62, 0.78, 0.78, 0.62, 94.1, -63.58)" xlink:href="#linear-gradient-2"/><radialGradient id="radial-gradient-53" cx="-4.85" cy="128.79" r="3.19" gradientTransform="matrix(-0.24, 0.34, 0.94, 0.49, 38.22, -47.43)" xlink:href="#radial-gradient"/><radialGradient id="radial-gradient-54" cx="125.3" cy="98.97" r="4.42" gradientTransform="matrix(-0.24, 0.42, 1.61, 0.6, 37.54, -95)" xlink:href="#radial-gradient-2"/><radialGradient id="radial-gradient-55" cx="15.16" cy="135.34" r="3.15" gradientTransform="matrix(-0.2, 0.36, 1.02, 0.37, 29.41, -39.53)" xlink:href="#radial-gradient-3"/><radialGradient id="radial-gradient-56" cx="-5.48" cy="129.99" r="13.74" gradientTransform="matrix(-0.24, 0.34, 0.94, 0.49, 38.22, -47.43)" xlink:href="#radial-gradient-4"/><radialGradient id="radial-gradient-57" cx="74.64" cy="-11.44" r="3.19" gradientTransform="matrix(-0.38, 0.2, 0.42, 0.95, 185.23, 0.6)" xlink:href="#radial-gradient"/><radialGradient id="radial-gradient-58" cx="157.23" cy="8.68" r="4.42" gradientTransform="matrix(-0.42, 0.27, 0.85, 1.4, 214.5, -44.72)" xlink:href="#radial-gradient-2"/><radialGradient id="radial-gradient-59" cx="46.05" cy="-7.77" r="3.15" gradientTransform="matrix(-0.36, 0.23, 0.54, 0.88, 174.94, 3.69)" xlink:href="#radial-gradient-3"/><radialGradient id="radial-gradient-60" cx="74.01" cy="-10.24" r="13.73" gradientTransform="matrix(-0.38, 0.2, 0.42, 0.95, 185.23, 0.6)" xlink:href="#radial-gradient-4"/><radialGradient id="radial-gradient-61" cx="-58.65" cy="95.07" r="3.19" gradientTransform="matrix(-0.27, 0.32, 2.45, 1.67, -84.6, -129.54)" xlink:href="#radial-gradient"/><radialGradient id="radial-gradient-62" cx="86.49" cy="43.71" r="4.42" gradientTransform="matrix(-0.33, 0.37, 1.34, 0.98, 124.66, -70.91)" xlink:href="#radial-gradient-2"/><radialGradient id="radial-gradient-63" cx="-36.97" cy="60.28" r="5.55" gradientTransform="matrix(-0.29, 0.31, 0.82, 0.64, 108.79, -13.68)" xlink:href="#radial-gradient-3"/><radialGradient id="radial-gradient-64" cx="-127.46" cy="88.64" r="13.74" gradientTransform="matrix(-0.23, 0.28, 0.87, 0.59, 58.61, -6.36)" xlink:href="#radial-gradient-4"/><radialGradient id="radial-gradient-65" cx="-127.81" cy="78.11" r="13.74" gradientTransform="matrix(-0.23, 0.28, 0.87, 0.59, 58.61, -6.36)" xlink:href="#radial-gradient-4"/><linearGradient id="linear-gradient-15" x1="14.17" y1="99.16" x2="15.79" y2="99.16" gradientTransform="matrix(-0.62, 0.78, 0.78, 0.62, 94.1, -63.58)" xlink:href="#linear-gradient-3"/><clipPath id="clip-path-6" transform="translate(0 10.66)"><path class="cls-1" d="M160.58,27.94a18.82,18.82,0,0,1-12.87,1.13s3.9-7.19,10.3-10.37a18.82,18.82,0,0,1,12.87-1.13S167,24.77,160.58,27.94Z"/></clipPath><linearGradient id="linear-gradient-16" x1="469.7" y1="-12.06" x2="476.26" y2="-12.06" gradientTransform="matrix(0.36, 0.93, 0.93, -0.36, 2.15, -420.88)" xlink:href="#linear-gradient"/><linearGradient id="linear-gradient-17" x1="466.15" y1="-12.06" x2="472.17" y2="-12.06" gradientTransform="matrix(0.36, 0.93, 0.93, -0.36, 2.15, -420.88)" xlink:href="#linear-gradient-2"/><radialGradient id="radial-gradient-66" cx="1045.57" cy="4.65" r="3.19" gradientTransform="matrix(0.15, 0.35, 0.98, -0.64, 4.51, -340.89)" xlink:href="#radial-gradient"/><radialGradient id="radial-gradient-67" cx="975.77" cy="-5.05" r="4.42" gradientTransform="matrix(0.22, 0.39, 1.47, -1.19, -34.52, -360.68)" xlink:href="#radial-gradient-2"/><radialGradient id="radial-gradient-68" cx="1009.94" cy="-30.62" r="3.15" gradientTransform="matrix(0.19, 0.32, 0.92, -0.76, 6.45, -328.16)" xlink:href="#radial-gradient-3"/><radialGradient id="radial-gradient-69" cx="1044.94" cy="5.85" r="13.74" gradientTransform="matrix(0.15, 0.35, 0.98, -0.64, 4.51, -340.89)" xlink:href="#radial-gradient-4"/><radialGradient id="radial-gradient-70" cx="1158.63" cy="75.39" r="3.19" gradientTransform="matrix(-0.06, 0.42, 1.06, 0.02, 135.79, -453.58)" xlink:href="#radial-gradient"/><radialGradient id="radial-gradient-71" cx="1089.91" cy="37.85" r="4.42" gradientTransform="matrix(-0.02, 0.49, 1.7, -0.18, 113.2, -495.36)" xlink:href="#radial-gradient-2"/><radialGradient id="radial-gradient-72" cx="1148.24" cy="35.72" r="3.15" gradientTransform="matrix(-0.01, 0.41, 1.07, -0.12, 130.37, -441.16)" xlink:href="#radial-gradient-3"/><radialGradient id="radial-gradient-73" cx="1158" cy="76.59" r="13.74" gradientTransform="matrix(-0.06, 0.42, 1.06, 0.02, 135.79, -453.58)" xlink:href="#radial-gradient-4"/><radialGradient id="radial-gradient-74" cx="1020.69" cy="64.26" r="3.19" gradientTransform="matrix(0.11, 0.37, 2.87, -1.5, -137.8, -264.25)" xlink:href="#radial-gradient"/><radialGradient id="radial-gradient-75" cx="1010.8" cy="-3.77" r="4.42" gradientTransform="matrix(0.12, 0.45, 1.63, -0.79, 36.51, -427.43)" xlink:href="#radial-gradient-2"/><radialGradient id="radial-gradient-76" cx="1054.67" cy="-4.67" r="5.55" gradientTransform="matrix(0.09, 0.38, 1.03, -0.47, 74.7, -388.48)" xlink:href="#radial-gradient-3"/><radialGradient id="radial-gradient-77" cx="1130.85" cy="2.33" r="13.74" gradientTransform="matrix(0.1, 0.32, 1.02, -0.53, 51.33, -340.62)" xlink:href="#radial-gradient-4"/><radialGradient id="radial-gradient-78" cx="1130.51" cy="-8.2" r="13.74" gradientTransform="matrix(0.1, 0.32, 1.02, -0.53, 51.33, -340.62)" xlink:href="#radial-gradient-4"/><linearGradient id="linear-gradient-18" x1="469.31" y1="-11.46" x2="472.22" y2="-11.46" gradientTransform="matrix(0.36, 0.93, 0.93, -0.36, 2.15, -420.88)" xlink:href="#linear-gradient-3"/><clipPath id="clip-path-7" transform="translate(0 10.66)"><path class="cls-1" d="M276.82,33.05c.47,6.76,5.75,11.1,5.75,11.1s4.51-6.62,4-13.38-5.75-11.1-5.75-11.1S276.34,26.29,276.82,33.05Z"/></clipPath><linearGradient id="linear-gradient-19" x1="-207.83" y1="-87" x2="-201.26" y2="-87" xlink:href="#linear-gradient"/><linearGradient id="linear-gradient-20" x1="-211.8" y1="-87" x2="-205.77" y2="-87" xlink:href="#linear-gradient-2"/><radialGradient id="radial-gradient-79" cx="-583.68" cy="-1.82" r="3.19" xlink:href="#radial-gradient"/><radialGradient id="radial-gradient-80" cx="-401.83" cy="31.19" r="4.42" xlink:href="#radial-gradient-2"/><radialGradient id="radial-gradient-81" cx="-610.2" cy="29.98" r="3.15" xlink:href="#radial-gradient-3"/><radialGradient id="radial-gradient-82" cx="-584.31" cy="-0.62" r="13.74" xlink:href="#radial-gradient-4"/><radialGradient id="radial-gradient-83" cx="-206.45" cy="-230.02" r="3.19" gradientTransform="matrix(-0.35, 0.24, -0.58, -0.86, 76.47, -103.37)" xlink:href="#radial-gradient"/><radialGradient id="radial-gradient-84" cx="-145.23" cy="-121.09" r="4.42" gradientTransform="matrix(-0.44, 0.25, -0.73, -1.48, 126.62, -106.11)" xlink:href="#radial-gradient-2"/><radialGradient id="radial-gradient-85" cx="-310.85" cy="-211.58" r="3.15" gradientTransform="matrix(-0.37, 0.21, -0.45, -0.94, 69.24, -93.76)" xlink:href="#radial-gradient-3"/><radialGradient id="radial-gradient-86" cx="-207.08" cy="-228.83" r="13.74" gradientTransform="matrix(-0.35, 0.24, -0.58, -0.86, 76.47, -103.37)" xlink:href="#radial-gradient-4"/><radialGradient id="radial-gradient-87" cx="-599.52" cy="41.78" r="3.19" gradientTransform="matrix(-0.4, 0.09, -0.15, -3.07, 48.55, 209.13)" xlink:href="#radial-gradient"/><radialGradient id="radial-gradient-88" cx="-359.64" cy="-53.77" r="4.42" gradientTransform="matrix(-0.47, 0.11, -0.14, -1.71, 105.42, -9.66)" xlink:href="#radial-gradient-2"/><radialGradient id="radial-gradient-89" cx="-549.59" cy="-99.24" r="5.55" gradientTransform="matrix(-0.4, 0.11, -0.12, -1.07, 50.9, -24.04)" xlink:href="#radial-gradient-3"/><radialGradient id="radial-gradient-90" cx="-760.7" cy="-61.43" r="13.74" gradientTransform="matrix(-0.34, 0.07, -0.05, -1.09, 17.96, 17.61)" xlink:href="#radial-gradient-4"/><radialGradient id="radial-gradient-91" cx="-761.05" cy="-71.96" r="13.74" gradientTransform="matrix(-0.34, 0.07, -0.05, -1.09, 17.96, 17.61)" xlink:href="#radial-gradient-4"/><linearGradient id="linear-gradient-21" x1="-208.22" y1="-86.43" x2="-205.72" y2="-86.43" xlink:href="#linear-gradient-3"/><clipPath id="clip-path-8" transform="translate(0 10.66)"><path class="cls-1" d="M267.19,15.4c-5.32-3.81-6.25-10.79-6.25-10.79s7.7-.82,13,3,6.26,10.79,6.26,10.79S272.51,19.2,267.19,15.4Z"/></clipPath><linearGradient id="linear-gradient-22" x1="-51.64" y1="184.87" x2="-45.41" y2="184.87" gradientTransform="matrix(-0.62, 0.78, 0.78, 0.62, 94.1, -63.58)" xlink:href="#linear-gradient"/><linearGradient id="linear-gradient-23" x1="-56.15" y1="184.88" x2="-50.43" y2="184.88" gradientTransform="matrix(-0.62, 0.78, 0.78, 0.62, 94.1, -63.58)" xlink:href="#linear-gradient-2"/><radialGradient id="radial-gradient-92" cx="-122.09" cy="214.29" r="3.19" gradientTransform="matrix(-0.24, 0.34, 0.94, 0.49, 38.22, -47.43)" xlink:href="#radial-gradient"/><radialGradient id="radial-gradient-93" cx="50.27" cy="155.27" r="4.42" gradientTransform="matrix(-0.24, 0.42, 1.61, 0.6, 37.54, -95)" xlink:href="#radial-gradient-2"/><radialGradient id="radial-gradient-94" cx="-71.15" cy="225.02" r="3.15" gradientTransform="matrix(-0.2, 0.36, 1.02, 0.37, 29.41, -39.53)" xlink:href="#radial-gradient-3"/><radialGradient id="radial-gradient-95" cx="-122.72" cy="215.48" r="13.74" gradientTransform="matrix(-0.24, 0.34, 0.94, 0.49, 38.22, -47.43)" xlink:href="#radial-gradient-4"/><radialGradient id="radial-gradient-96" cx="-159.36" cy="38.82" r="3.19" gradientTransform="matrix(-0.38, 0.2, 0.42, 0.95, 185.23, 0.6)" xlink:href="#radial-gradient"/><radialGradient id="radial-gradient-97" cx="-26.15" cy="45.77" r="4.42" gradientTransform="matrix(-0.42, 0.27, 0.85, 1.4, 214.5, -44.72)" xlink:href="#radial-gradient-2"/><radialGradient id="radial-gradient-98" cx="-168.55" cy="51.74" r="3.15" gradientTransform="matrix(-0.36, 0.23, 0.54, 0.88, 174.94, 3.69)" xlink:href="#radial-gradient-3"/><radialGradient id="radial-gradient-99" cx="-159.99" cy="40.02" r="13.73" gradientTransform="matrix(-0.38, 0.2, 0.42, 0.95, 185.23, 0.6)" xlink:href="#radial-gradient-4"/><radialGradient id="radial-gradient-100" cx="-200.91" cy="123.73" r="3.19" gradientTransform="matrix(-0.27, 0.32, 2.45, 1.67, -84.6, -129.54)" xlink:href="#radial-gradient"/><radialGradient id="radial-gradient-101" cx="-40.5" cy="93.68" r="4.42" gradientTransform="matrix(-0.33, 0.37, 1.34, 0.98, 124.66, -70.91)" xlink:href="#radial-gradient-2"/><radialGradient id="radial-gradient-102" cx="-192.44" cy="138.35" r="5.55" gradientTransform="matrix(-0.29, 0.31, 0.82, 0.64, 108.79, -13.68)" xlink:href="#radial-gradient-3"/><radialGradient id="radial-gradient-103" cx="-293.35" cy="169.58" r="13.74" gradientTransform="matrix(-0.23, 0.28, 0.87, 0.59, 58.61, -6.36)" xlink:href="#radial-gradient-4"/><radialGradient id="radial-gradient-104" cx="-293.7" cy="159.06" r="13.74" gradientTransform="matrix(-0.23, 0.28, 0.87, 0.59, 58.61, -6.36)" xlink:href="#radial-gradient-4"/><linearGradient id="linear-gradient-24" x1="-52" y1="185.42" x2="-50.38" y2="185.42" gradientTransform="matrix(-0.62, 0.78, 0.78, 0.62, 94.1, -63.58)" xlink:href="#linear-gradient-3"/><clipPath id="clip-path-9" transform="translate(0 10.66)"><path class="cls-1" d="M269.28,29.78a18.82,18.82,0,0,1-12.87,1.13s3.9-7.19,10.3-10.37a18.82,18.82,0,0,1,12.87-1.13S275.68,26.6,269.28,29.78Z"/></clipPath><linearGradient id="linear-gradient-25" x1="510.28" y1="88.79" x2="516.83" y2="88.79" gradientTransform="matrix(0.36, 0.93, 0.93, -0.36, 2.15, -420.88)" xlink:href="#linear-gradient"/><linearGradient id="linear-gradient-26" x1="506.72" y1="88.79" x2="512.75" y2="88.79" gradientTransform="matrix(0.36, 0.93, 0.93, -0.36, 2.15, -420.88)" xlink:href="#linear-gradient-2"/><radialGradient id="radial-gradient-105" cx="1207.63" cy="91.44" r="3.19" gradientTransform="matrix(0.15, 0.35, 0.98, -0.64, 4.51, -340.89)" xlink:href="#radial-gradient"/><radialGradient id="radial-gradient-106" cx="1136.69" cy="45.33" r="4.42" gradientTransform="matrix(0.22, 0.39, 1.47, -1.19, -34.52, -360.68)" xlink:href="#radial-gradient-2"/><radialGradient id="radial-gradient-107" cx="1201.34" cy="48.9" r="3.15" gradientTransform="matrix(0.19, 0.32, 0.92, -0.76, 6.45, -328.16)" xlink:href="#radial-gradient-3"/><radialGradient id="radial-gradient-108" cx="1207" cy="92.64" r="13.74" gradientTransform="matrix(0.15, 0.35, 0.98, -0.64, 4.51, -340.89)" xlink:href="#radial-gradient-4"/><radialGradient id="radial-gradient-109" cx="1157.5" cy="178.3" r="3.19" gradientTransform="matrix(-0.06, 0.42, 1.06, 0.02, 135.79, -453.58)" xlink:href="#radial-gradient"/><radialGradient id="radial-gradient-110" cx="1117.67" cy="102.27" r="4.42" gradientTransform="matrix(-0.02, 0.49, 1.7, -0.18, 113.2, -495.36)" xlink:href="#radial-gradient-2"/><radialGradient id="radial-gradient-111" cx="1183.33" cy="137.94" r="3.15" gradientTransform="matrix(-0.01, 0.41, 1.07, -0.12, 130.37, -441.16)" xlink:href="#radial-gradient-3"/><radialGradient id="radial-gradient-112" cx="1156.87" cy="179.5" r="13.74" gradientTransform="matrix(-0.06, 0.42, 1.06, 0.02, 135.79, -453.58)" xlink:href="#radial-gradient-4"/><radialGradient id="radial-gradient-113" cx="1155.92" cy="96.82" r="3.19" gradientTransform="matrix(0.11, 0.37, 2.87, -1.5, -137.8, -264.25)" xlink:href="#radial-gradient"/><radialGradient id="radial-gradient-114" cx="1118.35" cy="55.03" r="4.42" gradientTransform="matrix(0.12, 0.45, 1.63, -0.79, 36.51, -427.43)" xlink:href="#radial-gradient-2"/><radialGradient id="radial-gradient-115" cx="1174.33" cy="89.8" r="5.55" gradientTransform="matrix(0.09, 0.38, 1.03, -0.47, 74.7, -388.48)" xlink:href="#radial-gradient-3"/><radialGradient id="radial-gradient-116" cx="1288.58" cy="94.33" r="13.74" gradientTransform="matrix(0.1, 0.32, 1.02, -0.53, 51.33, -340.62)" xlink:href="#radial-gradient-4"/><radialGradient id="radial-gradient-117" cx="1288.24" cy="83.8" r="13.74" gradientTransform="matrix(0.1, 0.32, 1.02, -0.53, 51.33, -340.62)" xlink:href="#radial-gradient-4"/><linearGradient id="linear-gradient-27" x1="509.88" y1="89.39" x2="512.8" y2="89.39" gradientTransform="matrix(0.36, 0.93, 0.93, -0.36, 2.15, -420.88)" xlink:href="#linear-gradient-3"/></defs><title>three-leafs</title><g class="cls-2"><g id="Layer_1" data-name="Layer 1"><rect class="cls-3" x="0.05" y="56.88" width="325.56" height="52.84"/><path class="cls-4" d="M287.8,15c-48-2.08-96.22-1.45-144.38-1.4C98.54,13.67,53.55,9,8.51,13c-2.21.2-4.37.45-6.5.75l-2,8.5c53.32-6.71,108.21-3.07,160.28-2.62,41.95.37,83.18.27,125,2.49,10.45.56,33.17,7.22,40.4-4.13-11.51-3-25.47-2.4-37.84-2.93Z" transform="translate(0 10.66)"/><g class="cls-5"><path class="cls-6" d="M46.53,28.52c.47,6.76,5.75,11.1,5.75,11.1s4.51-6.62,4-13.38-5.75-11.1-5.75-11.1S46.06,21.76,46.53,28.52Z" transform="translate(0 10.66)"/><path class="cls-7" d="M51.67,31c2.54,0,4.1,0,4.1,0s-1.56.15-4.08.34Zm-.1-1.4c2.75-.21,4.46-.37,4.46-.37s-1.72,0-4.49,0Zm.24,3.52c2.07-.16,3.31-.28,3.31-.28s-1.25,0-3.33,0Zm.12,1.79,2.54-.22H51.92Zm-.49-7c2.86-.22,4.66-.39,4.66-.39s-1.8,0-4.68,0Zm.61,8.76,2-.17H52ZM51,21.41c2.18-.17,3.5-.3,3.5-.3s-1.33,0-3.52,0Zm-.22-3.14,2.15-.19H50.76Zm.11,1.56c1.83-.15,2.92-.25,2.92-.25s-1.09,0-2.94,0ZM51.1,23c2.52-.19,4.08-.34,4.08-.34s-1.56,0-4.1,0Zm.23,3.25C54.19,26,56,25.85,56,25.85s-1.8,0-4.68,0Zm-.11-1.64c2.75-.21,4.46-.37,4.46-.37s-1.72,0-4.49,0Z" transform="translate(0 10.66)"/><path class="cls-7" d="M51.66,30.46c-2.47,1-4,1.53-4,1.53s1.51-.73,4-1.87Zm-.15-2.09c-2.69,1.24-4.35,2-4.35,2s1.68-.63,4.37-1.68Zm.25,3.6c-2,.93-3.22,1.52-3.22,1.52s1.22-.45,3.24-1.24Zm.13,1.84L49.42,35,51.91,34Zm-.5-7.15c-2.79,1.29-4.54,2.13-4.54,2.13s1.76-.66,4.56-1.76Zm.63,9-1.91.91L52,35.79ZM50.94,20.23c-2.13,1-3.22,1.56-3.22,1.56L51,20.52Zm-.21-3a5.64,5.64,0,0,0-1.52.86,9.09,9.09,0,0,1,1.54-.67Zm.1,1.5a26.79,26.79,0,0,0-2.46,1.25s.68-.31,2.48-1Zm.22,3.09c-2.46,1.14-3.78,1.82-3.78,1.82l3.81-1.49ZM51.28,25c-2.79,1.28-4.54,2.12-4.54,2.12s1.76-.65,4.56-1.76Zm-.11-1.63c-2.68,1.24-4.35,2-4.35,2s1.68-.63,4.37-1.68Z" transform="translate(0 10.66)"/><path class="cls-8" d="M52.29,39.62l0-.06-1.7-24.37,0,0s-4.51,6.62-4,13.38S52.29,39.62,52.29,39.62Z" transform="translate(0 10.66)"/><path class="cls-9" d="M52.33,39.56c.44-.67,4.45-6.93,4-13.32s-5.19-10.62-5.7-11.06Z" transform="translate(0 10.66)"/><path class="cls-10" d="M46.06,26.17c-.12,1.95.35,3.46,1.06,3.38s1.37-1.73,1.49-3.68-.35-3.46-1.06-3.37S46.18,24.23,46.06,26.17Z" transform="translate(0 10.66)"/><path class="cls-11" d="M46.32,18.57c-.77,4.32-.48,7.81.66,7.8s2.68-3.53,3.46-7.85.48-7.81-.66-7.8S47.09,14.25,46.32,18.57Z" transform="translate(0 10.66)"/><path class="cls-12" d="M46.72,22c-.36,1.94-.1,3.51.58,3.5s1.54-1.58,1.9-3.51.1-3.51-.59-3.5S47.09,20,46.72,22Z" transform="translate(0 10.66)"/><path class="cls-13" d="M42.17,25.32c-.52,8.39,1.53,14.91,4.57,14.55S52.65,32.41,53.17,24,51.64,9.11,48.6,9.47,42.68,16.93,42.17,25.32Z" transform="translate(0 10.66)"/><path class="cls-14" d="M49.94,39.37c1,1.51,2.34,2.38,3,2s.29-2-.73-3.51-2.34-2.38-3-2S48.93,37.87,49.94,39.37Z" transform="translate(0 10.66)"/><path class="cls-15" d="M45.78,33.6c1.78,3.61,4.08,6,5.14,5.44s.48-4-1.3-7.62-4.08-6-5.14-5.44S44,30,45.78,33.6Z" transform="translate(0 10.66)"/><path class="cls-16" d="M48.13,35.9c.78,1.63,1.94,2.65,2.58,2.29s.53-2-.25-3.6-1.94-2.65-2.58-2.29S47.35,34.27,48.13,35.9Z" transform="translate(0 10.66)"/><path class="cls-17" d="M45.79,40.77c4.38,6.49,10.07,10.26,12.72,8.4s1.25-8.62-3.13-15.11S45.31,23.81,42.66,25.66,41.41,34.28,45.79,40.77Z" transform="translate(0 10.66)"/><path class="cls-18" d="M51,25.33c.26,5.4,1,9.66,1.74,9.51s1.07-4.65.81-10.05-1-9.66-1.75-9.51S50.75,19.93,51,25.33Z" transform="translate(0 10.66)"/><path class="cls-19" d="M50.08,37.15c.34,4.18,1.56,7.34,2.71,7.06s1.8-3.89,1.46-8.07-1.56-7.34-2.71-7.06S49.74,33,50.08,37.15Z" transform="translate(0 10.66)"/><path class="cls-20" d="M49.49,19.61c.37,3.28,1.65,5.68,2.88,5.35s1.92-3.25,1.56-6.54S52.27,12.74,51,13.07,49.12,16.33,49.49,19.61Z" transform="translate(0 10.66)"/><path class="cls-21" d="M47.49,25c.4,8.24,2.83,14.47,5.44,13.92s4.4-7.69,4-15.93S54.1,8.48,51.49,9,47.09,16.73,47.49,25Z" transform="translate(0 10.66)"/><path class="cls-22" d="M48.16,36.38c.4,8.24,2.83,14.47,5.44,13.92s4.4-7.69,4-15.94-2.83-14.47-5.44-13.92S47.76,28.14,48.16,36.38Z" transform="translate(0 10.66)"/></g><path class="cls-23" d="M50.14,14.12c.08,1.26.17,2.56.26,3.89.84,12,1.88,21.62,1.88,21.62s-.31-9.8-1.15-21.79c-.09-1.33-.19-2.62-.28-3.88Z" transform="translate(0 10.66)"/><path class="cls-24" d="M50.14,14.12c.08,1.26.17,2.56.26,3.89.84,12,1.88,21.62,1.88,21.62s-.31-9.8-1.15-21.79c-.09-1.33-.19-2.62-.28-3.88Z" transform="translate(0 10.66)"/><g class="cls-25"><path class="cls-6" d="M36.9,10.87C31.58,7.06,30.65.07,30.65.07s7.7-.82,13,3,6.26,10.79,6.26,10.79S42.23,14.67,36.9,10.87Z" transform="translate(0 10.66)"/><path class="cls-7" d="M37.16,4.75c1.42-2.21,2.32-3.55,2.32-3.55s-.77,1.43-2.06,3.74ZM38.8,5.93c1.41-2.51,2.26-4.09,2.26-4.09s-1,1.48-2.54,3.89ZM36,3.9C37,2,37.63.87,37.63.87s-.72,1.07-1.88,2.88Zm-1.45-1C35.33,1.4,35.79.53,35.79.53s-.54.81-1.45,2.21Zm5.63,4c1.47-2.62,2.35-4.27,2.35-4.27s-1,1.55-2.64,4.06Zm-7.05-5c.63-1.14,1-1.8,1-1.8S33.67.67,33,1.75Zm12.11,8.66C46.33,8.52,47,7.3,47,7.3s-.76,1.14-2,3Zm2.39,1.71c.69-1.25,1.08-2,1.08-2l-1.23,1.87Zm-1.18-.84C47.36,9.7,47.9,8.7,47.9,8.7s-.63.94-1.67,2.54ZM44,9.64c1.29-2.31,2.06-3.74,2.06-3.74s-.9,1.35-2.32,3.55ZM41.46,7.83c1.47-2.61,2.35-4.27,2.35-4.27s-1,1.55-2.65,4.06Zm1.28.92C44.16,6.24,45,4.66,45,4.66s-1,1.48-2.54,3.89Z" transform="translate(0 10.66)"/><path class="cls-7" d="M38.13,5.41C36,7.09,34.62,8.1,34.62,8.1S35.84,7,37.87,5.22Zm1.1.79C37,8.13,35.67,9.35,35.67,9.35s1.49-1.12,3.85-3Zm-2.77-2c-1.66,1.45-2.64,2.34-2.64,2.34s1.08-.81,2.86-2.18Zm-1.41-1C33.78,4.34,33,5,33,5l2.19-1.67Zm5.52,3.94c-2.3,2-3.72,3.29-3.72,3.29s1.56-1.17,4-3.08Zm-6.9-4.94L32.12,3.61l1.7-1.29Zm12,8.6L43,13.14s1-.71,2.89-2.16Zm2.47,1.77a9.21,9.21,0,0,1-1.32,1.07,5.64,5.64,0,0,0,1.47-1Zm-1.23-.88c-1.47,1.29-2.06,1.77-2.06,1.77a27,27,0,0,0,2.26-1.62ZM44.45,9.93l-3.12,2.73s1.22-.86,3.39-2.54ZM41.89,8.1c-2.3,2-3.72,3.29-3.72,3.29s1.56-1.17,4-3.08ZM43.18,9c-2.21,1.93-3.57,3.15-3.57,3.15s1.49-1.12,3.85-3Z" transform="translate(0 10.66)"/><path class="cls-26" d="M30.65.07h.07L49.91,13.79v.07s-7.69.81-13-3S30.65.07,30.65.07Z" transform="translate(0 10.66)"/><path class="cls-27" d="M30.72.07c.77-.07,7.92-.6,12.94,3s6.14,10,6.25,10.73Z" transform="translate(0 10.66)"/><path class="cls-28" d="M38.6,12.47c-1.66-.86-2.67-2-2.24-2.65s2.11-.39,3.77.47,2.67,2,2.25,2.65S40.26,13.34,38.6,12.47Z" transform="translate(0 10.66)"/><path class="cls-29" d="M45,16c-3.94-1.45-6.66-3.47-6.09-4.5s4.24-.69,8.18.77,6.66,3.47,6.09,4.5S48.92,17.49,45,16Z" transform="translate(0 10.66)"/><path class="cls-30" d="M42.4,14c-1.77-.64-2.93-1.66-2.59-2.29s2.06-.61,3.84,0,2.93,1.66,2.59,2.28S44.17,14.61,42.4,14Z" transform="translate(0 10.66)"/><path class="cls-31" d="M37.36,16.45C30.2,12.73,25.86,7.61,27.67,5s9.09-1.68,16.25,2,11.5,8.84,9.68,11.43S44.52,20.17,37.36,16.45Z" transform="translate(0 10.66)"/><path class="cls-32" d="M29.69,2.34C29,.66,28.9-1,29.56-1.33s1.79.73,2.52,2.41.79,3.32.13,3.67S30.42,4,29.69,2.34Z" transform="translate(0 10.66)"/><path class="cls-33" d="M32.35,9c-2.08-3.42-2.93-6.74-1.91-7.41s3.54,1.57,5.62,5S39,13.34,38,14,34.43,12.44,32.35,9Z" transform="translate(0 10.66)"/><path class="cls-34" d="M31.63,5.73c-.95-1.53-1.21-3.09-.6-3.5s1.89.5,2.83,2,1.21,3.09.6,3.5S32.58,7.25,31.63,5.73Z" transform="translate(0 10.66)"/><path class="cls-35" d="M26.46,5.43c-3.15-7.24-3.4-14.32-.56-15.81S33.61-7.22,36.77,0s3.4,14.32.56,15.82S29.61,12.67,26.46,5.43Z" transform="translate(0 10.66)"/><path class="cls-36" d="M41.77,8.37C37.46,5.44,34.35,2.6,34.82,2s4.36,1.35,8.67,4.28,7.42,5.77,6.95,6.34S46.08,11.31,41.77,8.37Z" transform="translate(0 10.66)"/><path class="cls-37" d="M31.59,3.32c-3.26-2.4-5.26-5.09-4.45-6s4.1.3,7.36,2.7S39.75,5.11,39,6,34.85,5.72,31.59,3.32Z" transform="translate(0 10.66)"/><path class="cls-38" d="M45.71,12.62c-2.52-2-3.85-4.34-3-5.3s3.63-.13,6.15,1.84,3.85,4.34,3,5.3S48.23,14.59,45.71,12.62Z" transform="translate(0 10.66)"/><path class="cls-39" d="M40.3,11.77C33.72,7.29,29.81,2,31.57-.14s8.52-.17,15.1,4.3S57.16,14,55.4,16.07,46.88,16.25,40.3,11.77Z" transform="translate(0 10.66)"/><path class="cls-40" d="M31.25,5.46C24.67,1,20.76-4.35,22.52-6.45s8.52-.17,15.1,4.3S48.11,7.66,46.35,9.77,37.83,9.94,31.25,5.46Z" transform="translate(0 10.66)"/></g><path class="cls-23" d="M50.55,14.77l-3.07-2.18C38,5.84,30.65.07,30.65.07S38.55,5.25,48,12l3,2.2Z" transform="translate(0 10.66)"/><path class="cls-41" d="M50.55,14.77l-3.07-2.18C38,5.84,30.65.07,30.65.07S38.55,5.25,48,12l3,2.2Z" transform="translate(0 10.66)"/><g class="cls-42"><path class="cls-6" d="M39,25.25a18.82,18.82,0,0,1-12.87,1.13S30,19.19,36.44,16A18.82,18.82,0,0,1,49.3,14.88S45.4,22.08,39,25.25Z" transform="translate(0 10.66)"/><path class="cls-7" d="M34,22.51C33,20.33,32.36,19,32.36,19s.75,1.27,1.94,3.37Zm2-1c-1.28-2.29-2.12-3.69-2.12-3.69s.66,1.49,1.78,3.86Zm-3.4,1.69c-1-1.72-1.57-2.73-1.57-2.73s.48,1.08,1.31,2.86Zm-1.74.87C30,22.76,29.59,22,29.59,22s.36.82,1,2.2Zm6.77-3.36c-1.33-2.39-2.2-3.86-2.2-3.86s.7,1.56,1.86,4ZM29.1,24.93c-.59-1-.94-1.62-.94-1.62s.28.63.77,1.7ZM43.66,17.7c-1-1.81-1.66-2.89-1.66-2.89s.51,1.15,1.39,3Zm2.88-1.43c-.65-1.13-1-1.78-1-1.78s.3.69.85,1.87Zm-1.42.7c-.86-1.52-1.39-2.42-1.39-2.42s.42.95,1.16,2.53ZM42.2,18.43c-1.18-2.1-1.94-3.38-1.94-3.38s.6,1.36,1.62,3.53Zm-3,1.51c-1.34-2.39-2.2-3.86-2.2-3.86s.69,1.56,1.86,4Zm1.54-.77c-1.28-2.29-2.11-3.69-2.11-3.69s.66,1.49,1.78,3.86Z" transform="translate(0 10.66)"/><path class="cls-7" d="M35.12,21.91c.13,2.62.18,4.25.18,4.25s-.21-1.55-.5-4.09Zm1.32-.66c.31,2.77.54,4.48.54,4.48s-.06-1.79-.2-4.65ZM33.11,22.9c.24,2.07.41,3.31.41,3.31s0-1.3-.14-3.45Zm-1.69.84c.19,1.61.31,2.54.31,2.54s0-1-.1-2.64Zm6.63-3.29c.32,2.88.56,4.67.56,4.67s-.06-1.87-.21-4.85Zm-8.29,4.12c.15,1.25.24,2,.24,2s0-.75-.08-2Zm14.45-7.17c.25,2.19.38,3.33.38,3.33s0-1.2-.1-3.47Zm3-1.48a8.27,8.27,0,0,1,.12,1.61,5.3,5.3,0,0,0,.06-1.7Zm-1.47.73c.22,1.84.26,2.57.26,2.57a24.53,24.53,0,0,0,0-2.69Zm-3,1.49L43.16,22s0-1.44-.13-4.06Zm-3.08,1.53c.32,2.88.56,4.67.56,4.67s-.06-1.87-.21-4.84Zm1.55-.77c.31,2.77.54,4.48.54,4.48s-.06-1.79-.2-4.64Z" transform="translate(0 10.66)"/><path class="cls-43" d="M26.13,26.38l0-.07L49.24,14.86l.06,0S45.4,22.08,39,25.25A18.82,18.82,0,0,1,26.13,26.38Z" transform="translate(0 10.66)"/><path class="cls-44" d="M26.17,26.31c.4-.71,4.22-7.3,10.27-10.3a18.82,18.82,0,0,1,12.81-1.15Z" transform="translate(0 10.66)"/><path class="cls-45" d="M41.37,24.4c-1.72,1.12-3.33,1.53-3.59.91s.93-2,2.65-3.16,3.33-1.53,3.59-.91S43.1,23.28,41.37,24.4Z" transform="translate(0 10.66)"/><path class="cls-46" d="M48.2,20.18c-3.58,2.91-6.91,4.51-7.44,3.57s1.95-4.06,5.53-7,6.91-4.51,7.44-3.57S51.78,17.27,48.2,20.18Z" transform="translate(0 10.66)"/><path class="cls-47" d="M44.91,21.63C43.31,23,41.75,23.57,41.43,23s.71-2.09,2.31-3.41,3.16-1.93,3.48-1.37S46.51,20.31,44.91,21.63Z" transform="translate(0 10.66)"/><path class="cls-48" d="M44,27.15C36.58,32,29.66,33.75,28.54,31.07s4-8.79,11.42-13.64,14.34-6.61,15.46-3.92S51.42,22.3,44,27.15Z" transform="translate(0 10.66)"/><path class="cls-49" d="M27.47,28.17c-1.86,0-3.28-.67-3.18-1.4s1.69-1.29,3.55-1.25,3.28.66,3.18,1.4S29.33,28.21,27.47,28.17Z" transform="translate(0 10.66)"/><path class="cls-50" d="M34.72,28.54c-4.14.44-7.45-.16-7.41-1.35s3.44-2.51,7.57-3,7.45.16,7.41,1.35S38.86,28.1,34.72,28.54Z" transform="translate(0 10.66)"/><path class="cls-51" d="M31.51,27.83c-1.85.21-3.34-.19-3.32-.91s1.55-1.48,3.4-1.69,3.34.19,3.32.91S33.36,27.62,31.51,27.83Z" transform="translate(0 10.66)"/><path class="cls-52" d="M28.17,32.32c-8-.17-14.15-2.86-13.71-6s7.28-5.57,15.28-5.4,14.15,2.86,13.72,6S36.18,32.49,28.17,32.32Z" transform="translate(0 10.66)"/><path class="cls-53" d="M39.8,19.89c-5.06,2.64-9.32,4.24-9.51,3.58s3.74-3.33,8.8-6,9.32-4.24,9.51-3.58S44.85,17.25,39.8,19.89Z" transform="translate(0 10.66)"/><path class="cls-54" d="M29.44,26.88c-4,1.92-7.44,2.59-7.73,1.5s2.7-3.53,6.68-5.45,7.44-2.59,7.73-1.5S33.42,25,29.44,26.88Z" transform="translate(0 10.66)"/><path class="cls-55" d="M45.74,18.13c-3.17,1.43-6,1.64-6.25.46s2.06-3.29,5.23-4.72,6-1.64,6.25-.46S48.91,16.7,45.74,18.13Z" transform="translate(0 10.66)"/><path class="cls-56" d="M41.79,22.59c-7.72,4-14.56,5.31-15.29,2.87s4.94-7.67,12.66-11.69,14.56-5.31,15.29-2.87S49.51,18.58,41.79,22.59Z" transform="translate(0 10.66)"/><path class="cls-57" d="M31.05,28.06c-7.72,4-14.56,5.31-15.29,2.87s4.94-7.67,12.66-11.69S43,13.94,43.71,16.38,38.77,24,31.05,28.06Z" transform="translate(0 10.66)"/></g><path class="cls-23" d="M50.45,14.69l-3.67,1.84c-11.35,5.63-20.64,9.85-20.64,9.85s9.1-4.91,20.45-10.55L50.26,14Z" transform="translate(0 10.66)"/><path class="cls-58" d="M50.45,14.69l-3.67,1.84c-11.35,5.63-20.64,9.85-20.64,9.85s9.1-4.91,20.45-10.55L50.26,14Z" transform="translate(0 10.66)"/><g class="cls-59"><path class="cls-6" d="M168.12,31.22c.47,6.76,5.75,11.1,5.75,11.1s4.51-6.62,4-13.38-5.75-11.1-5.75-11.1S167.64,24.46,168.12,31.22Z" transform="translate(0 10.66)"/><path class="cls-7" d="M173.25,33.71c2.54,0,4.1,0,4.1,0s-1.56.15-4.08.34Zm-.1-1.4c2.75-.21,4.46-.37,4.46-.37s-1.72,0-4.49,0Zm.24,3.52c2.07-.16,3.31-.28,3.31-.28s-1.25,0-3.33,0Zm.12,1.79,2.54-.22H173.5Zm-.49-7c2.86-.22,4.66-.39,4.66-.39s-1.8,0-4.68,0Zm.61,8.76,2-.17h-2ZM172.58,24.1c2.18-.17,3.5-.3,3.5-.3s-1.33,0-3.52,0ZM172.36,21l2.15-.19h-2.16Zm.11,1.56c1.83-.15,2.92-.25,2.92-.25s-1.09,0-2.94,0Zm.22,3.17c2.52-.19,4.08-.34,4.08-.34s-1.56,0-4.1,0Zm.23,3.25c2.86-.21,4.66-.39,4.66-.39s-1.8,0-4.68,0Zm-.11-1.64c2.75-.21,4.46-.37,4.46-.37s-1.72,0-4.49,0Z" transform="translate(0 10.66)"/><path class="cls-7" d="M173.24,33.15c-2.47,1-4,1.53-4,1.53s1.51-.73,4-1.87Zm-.15-2.09c-2.69,1.24-4.35,2-4.35,2s1.68-.63,4.37-1.68Zm.25,3.6c-2,.93-3.22,1.52-3.22,1.52s1.22-.45,3.24-1.24Zm.13,1.84L171,37.67l2.49-.95Zm-.5-7.15c-2.79,1.29-4.54,2.13-4.54,2.13s1.76-.66,4.56-1.76Zm.63,9-1.91.91,1.92-.73Zm-1.08-15.38c-2.13,1-3.22,1.56-3.22,1.56l3.24-1.27Zm-.21-3a5.64,5.64,0,0,0-1.52.86,9.09,9.09,0,0,1,1.54-.67Zm.1,1.5A26.79,26.79,0,0,0,170,22.63s.68-.31,2.48-1Zm.22,3.09c-2.46,1.14-3.78,1.82-3.78,1.82l3.81-1.49Zm.22,3.22c-2.79,1.28-4.54,2.12-4.54,2.12s1.76-.65,4.56-1.76ZM172.74,26c-2.68,1.24-4.35,2-4.35,2s1.68-.63,4.37-1.68Z" transform="translate(0 10.66)"/><path class="cls-60" d="M173.87,42.32l0-.06-1.7-24.37,0,0s-4.51,6.62-4,13.38S173.87,42.32,173.87,42.32Z" transform="translate(0 10.66)"/><path class="cls-61" d="M173.91,42.25c.44-.67,4.45-6.93,4-13.32s-5.19-10.62-5.7-11.06Z" transform="translate(0 10.66)"/><path class="cls-62" d="M167.64,28.87c-.12,1.95.35,3.46,1.06,3.38s1.37-1.73,1.49-3.68-.35-3.46-1.06-3.37S167.76,26.92,167.64,28.87Z" transform="translate(0 10.66)"/><path class="cls-63" d="M167.9,21.26c-.77,4.32-.48,7.81.66,7.8s2.68-3.53,3.46-7.85.48-7.81-.66-7.8S168.67,16.94,167.9,21.26Z" transform="translate(0 10.66)"/><path class="cls-64" d="M168.31,24.65c-.36,1.94-.1,3.51.58,3.5s1.54-1.58,1.9-3.51.1-3.51-.59-3.5S168.67,22.71,168.31,24.65Z" transform="translate(0 10.66)"/><path class="cls-65" d="M163.75,28c-.52,8.39,1.53,14.91,4.57,14.55s5.92-7.46,6.43-15.85-1.53-14.91-4.57-14.55S164.27,19.62,163.75,28Z" transform="translate(0 10.66)"/><path class="cls-66" d="M171.53,42.07c1,1.51,2.34,2.38,3,2s.29-2-.73-3.51-2.34-2.38-3-2S170.51,40.56,171.53,42.07Z" transform="translate(0 10.66)"/><path class="cls-67" d="M167.36,36.29c1.78,3.61,4.08,6,5.14,5.44s.48-4-1.3-7.62-4.08-6-5.14-5.44S165.59,32.69,167.36,36.29Z" transform="translate(0 10.66)"/><path class="cls-68" d="M169.71,38.59c.78,1.63,1.94,2.65,2.58,2.29s.53-2-.25-3.6-1.94-2.65-2.58-2.29S168.93,37,169.71,38.59Z" transform="translate(0 10.66)"/><path class="cls-69" d="M167.37,43.46c4.38,6.49,10.07,10.26,12.72,8.4s1.25-8.62-3.13-15.11S166.9,26.5,164.25,28.35,163,37,167.37,43.46Z" transform="translate(0 10.66)"/><path class="cls-70" d="M172.6,28c.26,5.4,1,9.66,1.74,9.51s1.07-4.65.81-10.05-1-9.66-1.75-9.51S172.34,22.62,172.6,28Z" transform="translate(0 10.66)"/><path class="cls-71" d="M171.67,39.84c.34,4.18,1.56,7.34,2.71,7.06s1.8-3.89,1.46-8.07-1.56-7.34-2.71-7.06S171.32,35.66,171.67,39.84Z" transform="translate(0 10.66)"/><path class="cls-72" d="M171.07,22.3c.37,3.28,1.65,5.68,2.88,5.35s1.92-3.25,1.56-6.54-1.65-5.68-2.87-5.35S170.7,19,171.07,22.3Z" transform="translate(0 10.66)"/><path class="cls-73" d="M169.07,27.66c.4,8.24,2.83,14.47,5.44,13.92s4.4-7.69,4-15.93-2.83-14.47-5.44-13.92S168.67,19.42,169.07,27.66Z" transform="translate(0 10.66)"/><path class="cls-74" d="M169.74,39.08c.4,8.24,2.83,14.47,5.44,13.92s4.4-7.69,4-15.94-2.83-14.47-5.44-13.92S169.34,30.83,169.74,39.08Z" transform="translate(0 10.66)"/></g><path class="cls-23" d="M171.73,16.81c.08,1.26.17,2.56.26,3.89.84,12,1.88,21.62,1.88,21.62s-.31-9.8-1.15-21.79c-.09-1.33-.19-2.62-.28-3.88Z" transform="translate(0 10.66)"/><path class="cls-75" d="M171.73,16.81c.08,1.26.17,2.56.26,3.89.84,12,1.88,21.62,1.88,21.62s-.31-9.8-1.15-21.79c-.09-1.33-.19-2.62-.28-3.88Z" transform="translate(0 10.66)"/><g class="cls-76"><path class="cls-6" d="M158.49,13.56c-5.32-3.81-6.25-10.79-6.25-10.79s7.7-.82,13,3,6.26,10.79,6.26,10.79S163.81,17.36,158.49,13.56Z" transform="translate(0 10.66)"/><path class="cls-7" d="M158.74,7.44c1.42-2.21,2.32-3.55,2.32-3.55s-.77,1.43-2.06,3.74Zm1.64,1.18c1.41-2.51,2.26-4.09,2.26-4.09s-1,1.48-2.54,3.89Zm-2.83-2c1.05-1.89,1.67-3,1.67-3s-.72,1.07-1.88,2.88Zm-1.45-1c.81-1.47,1.27-2.33,1.27-2.33s-.54.81-1.45,2.21Zm5.63,4c1.47-2.62,2.35-4.27,2.35-4.27s-1,1.55-2.64,4.06Zm-7.05-5c.63-1.14,1-1.8,1-1.8s-.41.62-1.12,1.7Zm12.11,8.66c1.11-2,1.76-3.21,1.76-3.21s-.76,1.14-2,3Zm2.39,1.71c.69-1.25,1.08-2,1.08-2L169,14.81ZM168,14.07c.93-1.68,1.47-2.68,1.47-2.68s-.63.94-1.67,2.54Zm-2.43-1.74c1.29-2.31,2.06-3.74,2.06-3.74s-.9,1.35-2.32,3.55ZM163,10.53c1.47-2.61,2.35-4.27,2.35-4.27s-1,1.55-2.65,4.06Zm1.28.92c1.41-2.51,2.26-4.09,2.26-4.09s-1,1.48-2.54,3.89Z" transform="translate(0 10.66)"/><path class="cls-7" d="M159.71,8.1c-2.16,1.68-3.52,2.7-3.52,2.7s1.23-1.11,3.26-2.88Zm1.1.79c-2.21,1.93-3.57,3.15-3.57,3.15s1.49-1.12,3.85-3Zm-2.77-2c-1.66,1.45-2.64,2.34-2.64,2.34s1.08-.81,2.86-2.18Zm-1.41-1c-1.28,1.13-2,1.8-2,1.8L156.82,6Zm5.52,3.94c-2.3,2-3.72,3.29-3.72,3.29s1.56-1.17,4-3.08Zm-6.9-4.94L153.7,6.3,155.4,5Zm12,8.6-2.66,2.32s1-.71,2.89-2.16Zm2.47,1.77a9.21,9.21,0,0,1-1.32,1.07,5.64,5.64,0,0,0,1.47-1Zm-1.23-.88c-1.47,1.29-2.06,1.77-2.06,1.77a27,27,0,0,0,2.26-1.62ZM166,12.62l-3.12,2.73s1.22-.86,3.39-2.54Zm-2.56-1.83c-2.3,2-3.72,3.29-3.72,3.29s1.56-1.17,4-3.08Zm1.29.92c-2.21,1.93-3.57,3.15-3.57,3.15s1.49-1.12,3.85-3Z" transform="translate(0 10.66)"/><path class="cls-77" d="M152.23,2.76h.07l19.19,13.73v.07s-7.69.81-13-3S152.23,2.76,152.23,2.76Z" transform="translate(0 10.66)"/><path class="cls-78" d="M152.3,2.76c.77-.07,7.92-.6,12.94,3s6.14,10,6.25,10.73Z" transform="translate(0 10.66)"/><path class="cls-79" d="M160.18,15.17c-1.66-.86-2.67-2-2.24-2.65s2.11-.39,3.77.47,2.67,2,2.25,2.65S161.84,16,160.18,15.17Z" transform="translate(0 10.66)"/><path class="cls-80" d="M166.56,18.73c-3.94-1.45-6.66-3.47-6.09-4.5s4.24-.69,8.18.77,6.66,3.47,6.09,4.5S170.5,20.18,166.56,18.73Z" transform="translate(0 10.66)"/><path class="cls-81" d="M164,16.67C162.21,16,161,15,161.39,14.38s2.06-.61,3.84,0,2.93,1.66,2.59,2.28S165.75,17.3,164,16.67Z" transform="translate(0 10.66)"/><path class="cls-82" d="M158.94,19.15c-7.16-3.72-11.5-8.84-9.68-11.43s9.09-1.68,16.25,2,11.5,8.84,9.68,11.43S166.1,22.86,158.94,19.15Z" transform="translate(0 10.66)"/><path class="cls-83" d="M151.27,5c-.73-1.68-.79-3.32-.13-3.67s1.79.73,2.52,2.41.79,3.32.13,3.67S152,6.71,151.27,5Z" transform="translate(0 10.66)"/><path class="cls-84" d="M153.94,11.71C151.86,8.29,151,5,152,4.3s3.54,1.57,5.62,5,2.93,6.74,1.91,7.41S156,15.13,153.94,11.71Z" transform="translate(0 10.66)"/><path class="cls-85" d="M153.22,8.42c-.95-1.53-1.21-3.09-.6-3.5s1.89.5,2.83,2,1.21,3.09.6,3.5S154.16,9.95,153.22,8.42Z" transform="translate(0 10.66)"/><path class="cls-86" d="M148,8.12c-3.15-7.24-3.4-14.32-.56-15.81s7.71,3.16,10.86,10.4,3.4,14.32.56,15.82S151.2,15.36,148,8.12Z" transform="translate(0 10.66)"/><path class="cls-87" d="M163.35,11.06c-4.31-2.93-7.42-5.77-6.95-6.34s4.36,1.35,8.67,4.28,7.42,5.77,6.95,6.34S167.66,14,163.35,11.06Z" transform="translate(0 10.66)"/><path class="cls-88" d="M153.17,6c-3.26-2.4-5.26-5.09-4.45-6s4.1.3,7.36,2.7,5.26,5.09,4.45,6S156.43,8.41,153.17,6Z" transform="translate(0 10.66)"/><path class="cls-89" d="M167.29,15.32c-2.52-2-3.85-4.34-3-5.3s3.63-.13,6.15,1.84,3.85,4.34,3,5.3S169.81,17.29,167.29,15.32Z" transform="translate(0 10.66)"/><path class="cls-90" d="M161.88,14.46C155.3,10,151.39,4.65,153.15,2.55s8.52-.17,15.1,4.3,10.49,9.81,8.73,11.91S168.46,18.94,161.88,14.46Z" transform="translate(0 10.66)"/><path class="cls-91" d="M152.83,8.15c-6.58-4.48-10.49-9.81-8.73-11.91s8.52-.17,15.1,4.3,10.49,9.81,8.73,11.91S159.41,12.63,152.83,8.15Z" transform="translate(0 10.66)"/></g><path class="cls-23" d="M172.13,17.46l-3.07-2.18c-9.44-6.75-16.84-12.52-16.84-12.52s7.91,5.18,17.35,11.93l3,2.2Z" transform="translate(0 10.66)"/><path class="cls-92" d="M172.13,17.46l-3.07-2.18c-9.44-6.75-16.84-12.52-16.84-12.52s7.91,5.18,17.35,11.93l3,2.2Z" transform="translate(0 10.66)"/><g class="cls-93"><path class="cls-6" d="M160.58,27.94a18.82,18.82,0,0,1-12.87,1.13s3.9-7.19,10.3-10.37a18.82,18.82,0,0,1,12.87-1.13S167,24.77,160.58,27.94Z" transform="translate(0 10.66)"/><path class="cls-7" d="M155.56,25.2c-1-2.17-1.62-3.53-1.62-3.53s.75,1.27,1.94,3.37Zm2-1c-1.28-2.29-2.12-3.69-2.12-3.69s.66,1.49,1.78,3.86Zm-3.4,1.69c-1-1.72-1.57-2.73-1.57-2.73s.48,1.08,1.31,2.86Zm-1.74.87c-.76-1.33-1.21-2.1-1.21-2.1s.36.82,1,2.2Zm6.77-3.36c-1.33-2.39-2.2-3.86-2.2-3.86s.7,1.56,1.86,4Zm-8.48,4.21c-.59-1-.94-1.62-.94-1.62s.28.63.77,1.7Zm14.56-7.23c-1-1.81-1.66-2.89-1.66-2.89s.51,1.15,1.39,3ZM168.12,19c-.65-1.13-1-1.78-1-1.78s.3.69.85,1.87Zm-1.42.7c-.86-1.52-1.39-2.42-1.39-2.42s.42.95,1.16,2.53Zm-2.92,1.45c-1.18-2.1-1.94-3.38-1.94-3.38s.6,1.36,1.62,3.53Zm-3,1.51c-1.34-2.39-2.2-3.86-2.2-3.86s.69,1.56,1.86,4Zm1.54-.77c-1.28-2.29-2.11-3.69-2.11-3.69s.66,1.49,1.78,3.86Z" transform="translate(0 10.66)"/><path class="cls-7" d="M156.7,24.6c.13,2.62.18,4.25.18,4.25s-.21-1.55-.5-4.09Zm1.32-.66c.31,2.77.54,4.48.54,4.48s-.06-1.79-.2-4.65Zm-3.33,1.65c.24,2.07.41,3.31.41,3.31s0-1.3-.14-3.45Zm-1.69.84c.19,1.61.31,2.54.31,2.54s0-1-.1-2.64Zm6.63-3.29c.32,2.88.56,4.67.56,4.67s-.06-1.87-.21-4.85Zm-8.29,4.12c.15,1.25.24,2,.24,2s0-.75-.08-2Zm14.45-7.17c.25,2.19.38,3.33.38,3.33s0-1.2-.1-3.47Zm3-1.48a8.27,8.27,0,0,1,.12,1.61,5.3,5.3,0,0,0,.06-1.7Zm-1.47.73c.22,1.84.26,2.57.26,2.57a24.53,24.53,0,0,0,0-2.69Zm-3,1.49.44,3.91s0-1.44-.13-4.06Zm-3.08,1.53c.32,2.88.56,4.67.56,4.67s-.06-1.87-.21-4.84Zm1.55-.77c.31,2.77.54,4.48.54,4.48s-.06-1.79-.2-4.64Z" transform="translate(0 10.66)"/><path class="cls-94" d="M147.72,29.07l0-.07,23.07-11.45.06,0s-3.9,7.19-10.3,10.37A18.82,18.82,0,0,1,147.72,29.07Z" transform="translate(0 10.66)"/><path class="cls-95" d="M147.75,29c.4-.71,4.22-7.3,10.27-10.3a18.82,18.82,0,0,1,12.81-1.15Z" transform="translate(0 10.66)"/><path class="cls-96" d="M163,27.09c-1.72,1.12-3.33,1.53-3.59.91s.93-2,2.65-3.16,3.33-1.53,3.59-.91S164.68,26,163,27.09Z" transform="translate(0 10.66)"/><path class="cls-97" d="M169.78,22.87c-3.58,2.91-6.91,4.51-7.44,3.57s1.95-4.06,5.53-7,6.91-4.51,7.44-3.57S173.36,20,169.78,22.87Z" transform="translate(0 10.66)"/><path class="cls-98" d="M166.49,24.32c-1.6,1.32-3.16,1.93-3.48,1.37s.71-2.09,2.31-3.41,3.16-1.93,3.48-1.37S168.09,23,166.49,24.32Z" transform="translate(0 10.66)"/><path class="cls-99" d="M165.58,29.84c-7.42,4.85-14.34,6.61-15.46,3.92s4-8.79,11.42-13.64S175.89,13.52,177,16.2,173,25,165.58,29.84Z" transform="translate(0 10.66)"/><path class="cls-100" d="M149.06,30.86c-1.86,0-3.28-.67-3.18-1.4s1.69-1.29,3.55-1.25,3.28.66,3.18,1.4S150.91,30.9,149.06,30.86Z" transform="translate(0 10.66)"/><path class="cls-101" d="M156.3,31.24c-4.14.44-7.45-.16-7.41-1.35s3.44-2.51,7.57-3,7.45.16,7.41,1.35S160.44,30.79,156.3,31.24Z" transform="translate(0 10.66)"/><path class="cls-102" d="M153.09,30.52c-1.85.21-3.34-.19-3.32-.91s1.55-1.48,3.4-1.69,3.34.19,3.32.91S154.95,30.31,153.09,30.52Z" transform="translate(0 10.66)"/><path class="cls-103" d="M149.75,35c-8-.17-14.15-2.86-13.71-6s7.28-5.57,15.28-5.4,14.15,2.86,13.72,6S157.76,35.18,149.75,35Z" transform="translate(0 10.66)"/><path class="cls-104" d="M161.38,22.58c-5.06,2.64-9.32,4.24-9.51,3.58s3.74-3.33,8.8-6S170,16,170.18,16.62,166.44,19.94,161.38,22.58Z" transform="translate(0 10.66)"/><path class="cls-105" d="M151,29.58c-4,1.92-7.44,2.59-7.73,1.5s2.7-3.53,6.68-5.45,7.44-2.59,7.73-1.5S155,27.65,151,29.58Z" transform="translate(0 10.66)"/><path class="cls-106" d="M167.33,20.82c-3.17,1.43-6,1.64-6.25.46s2.06-3.29,5.23-4.72,6-1.64,6.25-.46S170.5,19.39,167.33,20.82Z" transform="translate(0 10.66)"/><path class="cls-107" d="M163.38,25.29c-7.72,4-14.56,5.31-15.29,2.87s4.94-7.67,12.66-11.69S175.3,11.17,176,13.6,171.09,21.27,163.38,25.29Z" transform="translate(0 10.66)"/><path class="cls-108" d="M152.63,30.75c-7.72,4-14.56,5.31-15.29,2.87S142.28,26,150,21.94s14.56-5.31,15.29-2.87S160.35,26.73,152.63,30.75Z" transform="translate(0 10.66)"/></g><path class="cls-23" d="M172,17.38l-3.67,1.84c-11.35,5.63-20.64,9.85-20.64,9.85s9.1-4.91,20.45-10.55l3.68-1.81Z" transform="translate(0 10.66)"/><path class="cls-109" d="M172,17.38l-3.67,1.84c-11.35,5.63-20.64,9.85-20.64,9.85s9.1-4.91,20.45-10.55l3.68-1.81Z" transform="translate(0 10.66)"/><g class="cls-110"><path class="cls-6" d="M276.82,33.05c.47,6.76,5.75,11.1,5.75,11.1s4.51-6.62,4-13.38-5.75-11.1-5.75-11.1S276.34,26.29,276.82,33.05Z" transform="translate(0 10.66)"/><path class="cls-7" d="M281.95,35.54c2.54,0,4.1,0,4.1,0s-1.56.15-4.08.34Zm-.1-1.4c2.75-.21,4.46-.37,4.46-.37s-1.72,0-4.49,0Zm.24,3.52c2.07-.16,3.31-.28,3.31-.28s-1.25,0-3.33,0Zm.12,1.79,2.54-.22H282.2Zm-.49-7c2.86-.22,4.66-.39,4.66-.39s-1.8,0-4.68,0Zm.61,8.76,2-.17h-2Zm-1.07-15.27c2.18-.17,3.5-.3,3.5-.3s-1.33,0-3.52,0Zm-.22-3.14,2.15-.19H281Zm.11,1.56c1.83-.15,2.92-.25,2.92-.25s-1.09,0-2.94,0Zm.22,3.17c2.52-.19,4.08-.34,4.08-.34s-1.56,0-4.1,0Zm.23,3.25c2.86-.21,4.66-.39,4.66-.39s-1.8,0-4.68,0Zm-.11-1.64c2.75-.21,4.46-.37,4.46-.37s-1.72,0-4.49,0Z" transform="translate(0 10.66)"/><path class="cls-7" d="M281.94,35c-2.47,1-4,1.53-4,1.53s1.51-.73,4-1.87Zm-.15-2.09c-2.69,1.24-4.35,2-4.35,2s1.68-.63,4.37-1.68Zm.25,3.6c-2,.93-3.22,1.52-3.22,1.52s1.22-.45,3.24-1.24Zm.13,1.84-2.47,1.17,2.49-.95Zm-.5-7.15c-2.79,1.29-4.54,2.13-4.54,2.13s1.76-.66,4.56-1.76Zm.63,9-1.91.91,1.92-.73Zm-1.08-15.38c-2.13,1-3.22,1.56-3.22,1.56L281.25,25Zm-.21-3a5.64,5.64,0,0,0-1.52.86,9.09,9.09,0,0,1,1.54-.67Zm.1,1.5a26.79,26.79,0,0,0-2.46,1.25s.68-.31,2.48-1Zm.22,3.09c-2.46,1.14-3.78,1.82-3.78,1.82l3.81-1.49Zm.22,3.22c-2.79,1.28-4.54,2.12-4.54,2.12s1.76-.65,4.56-1.76Zm-.11-1.63c-2.68,1.24-4.35,2-4.35,2s1.68-.63,4.37-1.68Z" transform="translate(0 10.66)"/><path class="cls-111" d="M282.57,44.15l0-.06-1.7-24.37,0,0s-4.51,6.62-4,13.38S282.57,44.15,282.57,44.15Z" transform="translate(0 10.66)"/><path class="cls-112" d="M282.61,44.09c.44-.67,4.45-6.93,4-13.32s-5.19-10.62-5.7-11.06Z" transform="translate(0 10.66)"/><path class="cls-113" d="M276.34,30.7c-.12,1.95.35,3.46,1.06,3.38s1.37-1.73,1.49-3.68-.35-3.46-1.06-3.37S276.46,28.75,276.34,30.7Z" transform="translate(0 10.66)"/><path class="cls-114" d="M276.6,23.1c-.77,4.32-.48,7.81.66,7.8s2.68-3.53,3.46-7.85.48-7.81-.66-7.8S277.37,18.77,276.6,23.1Z" transform="translate(0 10.66)"/><path class="cls-115" d="M277,26.48c-.36,1.94-.1,3.51.58,3.5s1.54-1.58,1.9-3.51.1-3.51-.59-3.5S277.37,24.55,277,26.48Z" transform="translate(0 10.66)"/><path class="cls-116" d="M272.45,29.85C271.93,38.24,274,44.76,277,44.4s5.92-7.46,6.43-15.85S281.92,13.64,278.88,14,273,21.45,272.45,29.85Z" transform="translate(0 10.66)"/><path class="cls-117" d="M280.23,43.9c1,1.51,2.34,2.38,3,2s.29-2-.73-3.51-2.34-2.38-3-2S279.21,42.4,280.23,43.9Z" transform="translate(0 10.66)"/><path class="cls-118" d="M276.06,38.13c1.78,3.61,4.08,6,5.14,5.44s.48-4-1.3-7.62-4.08-6-5.14-5.44S274.29,34.52,276.06,38.13Z" transform="translate(0 10.66)"/><path class="cls-119" d="M278.41,40.43c.78,1.63,1.94,2.65,2.58,2.29s.53-2-.25-3.6-1.94-2.65-2.58-2.29S277.63,38.8,278.41,40.43Z" transform="translate(0 10.66)"/><path class="cls-120" d="M276.07,45.3c4.38,6.49,10.07,10.26,12.72,8.4s1.25-8.62-3.13-15.11-10.07-10.26-12.72-8.41S271.69,38.81,276.07,45.3Z" transform="translate(0 10.66)"/><path class="cls-121" d="M281.3,29.86c.26,5.4,1,9.66,1.74,9.51s1.07-4.65.81-10.05-1-9.66-1.75-9.51S281,24.45,281.3,29.86Z" transform="translate(0 10.66)"/><path class="cls-122" d="M280.36,41.67c.34,4.18,1.56,7.34,2.71,7.06s1.8-3.89,1.46-8.07-1.56-7.34-2.71-7.06S280,37.5,280.36,41.67Z" transform="translate(0 10.66)"/><path class="cls-123" d="M279.77,24.14c.37,3.28,1.65,5.68,2.88,5.35s1.92-3.25,1.56-6.54-1.65-5.68-2.87-5.35S279.4,20.85,279.77,24.14Z" transform="translate(0 10.66)"/><path class="cls-124" d="M277.77,29.5c.4,8.24,2.83,14.47,5.44,13.92s4.4-7.69,4-15.93S284.38,13,281.77,13.56,277.37,21.26,277.77,29.5Z" transform="translate(0 10.66)"/><path class="cls-125" d="M278.44,40.91c.4,8.24,2.83,14.47,5.44,13.92s4.4-7.69,4-15.94S285,24.42,282.44,25,278,32.67,278.44,40.91Z" transform="translate(0 10.66)"/></g><path class="cls-23" d="M280.43,18.64c.08,1.26.17,2.56.26,3.89.84,12,1.88,21.62,1.88,21.62s-.31-9.8-1.15-21.79c-.09-1.33-.19-2.62-.28-3.88Z" transform="translate(0 10.66)"/><path class="cls-126" d="M280.43,18.64c.08,1.26.17,2.56.26,3.89.84,12,1.88,21.62,1.88,21.62s-.31-9.8-1.15-21.79c-.09-1.33-.19-2.62-.28-3.88Z" transform="translate(0 10.66)"/><g class="cls-127"><path class="cls-6" d="M267.19,15.4c-5.32-3.81-6.25-10.79-6.25-10.79s7.7-.82,13,3,6.26,10.79,6.26,10.79S272.51,19.2,267.19,15.4Z" transform="translate(0 10.66)"/><path class="cls-7" d="M267.44,9.28c1.42-2.21,2.32-3.55,2.32-3.55S269,7.16,267.7,9.47Zm1.64,1.18c1.41-2.51,2.26-4.09,2.26-4.09s-1,1.48-2.54,3.89Zm-2.83-2c1.05-1.89,1.67-3,1.67-3S267.2,6.47,266,8.27Zm-1.45-1c.81-1.47,1.27-2.33,1.27-2.33s-.54.81-1.45,2.21Zm5.63,4c1.47-2.62,2.35-4.27,2.35-4.27s-1,1.55-2.64,4.06Zm-7.05-5c.63-1.14,1-1.8,1-1.8s-.41.62-1.12,1.7ZM275.49,15c1.11-2,1.76-3.21,1.76-3.21s-.76,1.14-2,3Zm2.39,1.71c.69-1.25,1.08-2,1.08-2l-1.23,1.87Zm-1.18-.84c.93-1.68,1.47-2.68,1.47-2.68s-.63.94-1.67,2.54Zm-2.43-1.74c1.29-2.31,2.06-3.74,2.06-3.74s-.9,1.35-2.32,3.55Zm-2.53-1.81c1.47-2.61,2.35-4.27,2.35-4.27s-1,1.55-2.65,4.06Zm1.28.92c1.41-2.51,2.26-4.09,2.26-4.09s-1,1.48-2.54,3.89Z" transform="translate(0 10.66)"/><path class="cls-7" d="M268.41,9.94c-2.16,1.68-3.52,2.7-3.52,2.7s1.23-1.11,3.26-2.88Zm1.1.79c-2.21,1.93-3.57,3.15-3.57,3.15s1.49-1.12,3.85-3Zm-2.77-2c-1.66,1.45-2.64,2.34-2.64,2.34s1.08-.81,2.86-2.18Zm-1.41-1c-1.28,1.13-2,1.8-2,1.8l2.19-1.67Zm5.52,3.94c-2.3,2-3.72,3.29-3.72,3.29s1.56-1.17,4-3.08ZM264,6.75,262.4,8.14l1.7-1.29Zm12,8.6-2.66,2.32s1-.71,2.89-2.16Zm2.47,1.77a9.21,9.21,0,0,1-1.32,1.07,5.64,5.64,0,0,0,1.47-1Zm-1.23-.88c-1.47,1.29-2.06,1.77-2.06,1.77a27,27,0,0,0,2.26-1.62Zm-2.49-1.78-3.12,2.73s1.22-.86,3.39-2.54Zm-2.56-1.83c-2.3,2-3.72,3.29-3.72,3.29s1.56-1.17,4-3.08Zm1.29.92c-2.21,1.93-3.57,3.15-3.57,3.15s1.49-1.12,3.85-3Z" transform="translate(0 10.66)"/><path class="cls-128" d="M260.93,4.6H261l19.19,13.73v.07s-7.69.81-13-3S260.93,4.6,260.93,4.6Z" transform="translate(0 10.66)"/><path class="cls-129" d="M261,4.6c.77-.07,7.92-.6,12.94,3s6.14,10,6.25,10.73Z" transform="translate(0 10.66)"/><path class="cls-130" d="M268.88,17c-1.66-.86-2.67-2-2.24-2.65s2.11-.39,3.77.47,2.67,2,2.25,2.65S270.54,17.87,268.88,17Z" transform="translate(0 10.66)"/><path class="cls-131" d="M275.26,20.56c-3.94-1.45-6.66-3.47-6.09-4.5s4.24-.69,8.18.77,6.66,3.47,6.09,4.5S279.2,22,275.26,20.56Z" transform="translate(0 10.66)"/><path class="cls-132" d="M272.68,18.5c-1.77-.64-2.93-1.66-2.59-2.29s2.06-.61,3.84,0,2.93,1.66,2.59,2.28S274.45,19.14,272.68,18.5Z" transform="translate(0 10.66)"/><path class="cls-133" d="M267.64,21c-7.16-3.72-11.5-8.84-9.68-11.43s9.09-1.68,16.25,2,11.5,8.84,9.68,11.43S274.8,24.7,267.64,21Z" transform="translate(0 10.66)"/><path class="cls-134" d="M260,6.86c-.73-1.68-.79-3.32-.13-3.67s1.79.73,2.52,2.41.79,3.32.13,3.67S260.7,8.54,260,6.86Z" transform="translate(0 10.66)"/><path class="cls-135" d="M262.64,13.55c-2.08-3.42-2.93-6.74-1.91-7.41s3.54,1.57,5.62,5,2.93,6.74,1.91,7.41S264.72,17,262.64,13.55Z" transform="translate(0 10.66)"/><path class="cls-136" d="M261.91,10.26c-.95-1.53-1.21-3.09-.6-3.5s1.89.5,2.83,2,1.21,3.09.6,3.5S262.86,11.78,261.91,10.26Z" transform="translate(0 10.66)"/><path class="cls-137" d="M256.74,10c-3.15-7.24-3.4-14.32-.56-15.81S263.9-2.69,267,4.54s3.4,14.32.56,15.82S259.9,17.2,256.74,10Z" transform="translate(0 10.66)"/><path class="cls-138" d="M272.05,12.9c-4.31-2.93-7.42-5.77-6.95-6.34s4.36,1.35,8.67,4.28,7.42,5.77,6.95,6.34S276.36,15.84,272.05,12.9Z" transform="translate(0 10.66)"/><path class="cls-139" d="M261.87,7.85c-3.26-2.4-5.26-5.09-4.45-6s4.1.3,7.36,2.7,5.26,5.09,4.45,6S265.13,10.25,261.87,7.85Z" transform="translate(0 10.66)"/><path class="cls-140" d="M276,17.15c-2.52-2-3.85-4.34-3-5.3s3.63-.13,6.15,1.84,3.85,4.34,3,5.3S278.51,19.12,276,17.15Z" transform="translate(0 10.66)"/><path class="cls-141" d="M270.58,16.3c-6.58-4.48-10.49-9.81-8.73-11.91s8.52-.17,15.1,4.3,10.49,9.81,8.73,11.91S277.16,20.78,270.58,16.3Z" transform="translate(0 10.66)"/><path class="cls-142" d="M261.53,10C255,5.51,251,.18,252.8-1.92s8.52-.17,15.1,4.3,10.49,9.81,8.73,11.91S268.11,14.47,261.53,10Z" transform="translate(0 10.66)"/></g><path class="cls-23" d="M280.83,19.3l-3.07-2.18C268.33,10.37,260.93,4.6,260.93,4.6s7.91,5.18,17.35,11.93l3,2.2Z" transform="translate(0 10.66)"/><path class="cls-143" d="M280.83,19.3l-3.07-2.18C268.33,10.37,260.93,4.6,260.93,4.6s7.91,5.18,17.35,11.93l3,2.2Z" transform="translate(0 10.66)"/><g class="cls-144"><path class="cls-6" d="M269.28,29.78a18.82,18.82,0,0,1-12.87,1.13s3.9-7.19,10.3-10.37a18.82,18.82,0,0,1,12.87-1.13S275.68,26.6,269.28,29.78Z" transform="translate(0 10.66)"/><path class="cls-7" d="M264.26,27c-1-2.17-1.62-3.53-1.62-3.53s.75,1.27,1.94,3.37Zm2-1c-1.28-2.29-2.12-3.69-2.12-3.69s.66,1.49,1.78,3.86Zm-3.4,1.69c-1-1.72-1.57-2.73-1.57-2.73s.48,1.08,1.31,2.86Zm-1.74.87c-.76-1.33-1.21-2.1-1.21-2.1s.36.82,1,2.2Zm6.77-3.36c-1.33-2.39-2.2-3.86-2.2-3.86s.7,1.56,1.86,4Zm-8.48,4.21c-.59-1-.94-1.62-.94-1.62s.28.63.77,1.7Zm14.56-7.23c-1-1.81-1.66-2.89-1.66-2.89s.51,1.15,1.39,3Zm2.88-1.43c-.65-1.13-1-1.78-1-1.78s.3.69.85,1.87Zm-1.42.7C274.54,20,274,19.09,274,19.09s.42.95,1.16,2.53ZM272.48,23c-1.18-2.1-1.94-3.38-1.94-3.38s.6,1.36,1.62,3.53Zm-3,1.51c-1.34-2.39-2.2-3.86-2.2-3.86s.69,1.56,1.86,4ZM271,23.7c-1.28-2.29-2.11-3.69-2.11-3.69s.66,1.49,1.78,3.86Z" transform="translate(0 10.66)"/><path class="cls-7" d="M265.4,26.44c.13,2.62.18,4.25.18,4.25s-.21-1.55-.5-4.09Zm1.32-.66c.31,2.77.54,4.48.54,4.48s-.06-1.79-.2-4.65Zm-3.33,1.65c.24,2.07.41,3.31.41,3.31s0-1.3-.14-3.45Zm-1.69.84c.19,1.61.31,2.54.31,2.54s0-1-.1-2.64ZM268.33,25c.32,2.88.56,4.67.56,4.67s-.06-1.87-.21-4.85ZM260,29.1c.15,1.25.24,2,.24,2s0-.75-.08-2Zm14.45-7.17c.25,2.19.38,3.33.38,3.33s0-1.2-.1-3.47Zm3-1.48a8.27,8.27,0,0,1,.12,1.61,5.3,5.3,0,0,0,.06-1.7Zm-1.47.73c.22,1.84.26,2.57.26,2.57a24.53,24.53,0,0,0,0-2.69Zm-3,1.49.44,3.91s0-1.44-.13-4.06Zm-3.08,1.53c.32,2.88.56,4.67.56,4.67s-.06-1.87-.21-4.84Zm1.55-.77c.31,2.77.54,4.48.54,4.48s-.06-1.79-.2-4.64Z" transform="translate(0 10.66)"/><path class="cls-145" d="M256.42,30.91l0-.07,23.07-11.45.06,0s-3.9,7.19-10.3,10.37A18.82,18.82,0,0,1,256.42,30.91Z" transform="translate(0 10.66)"/><path class="cls-146" d="M256.45,30.84c.4-.71,4.22-7.3,10.27-10.3a18.82,18.82,0,0,1,12.81-1.15Z" transform="translate(0 10.66)"/><path class="cls-147" d="M271.66,28.93c-1.72,1.12-3.33,1.53-3.59.91s.93-2,2.65-3.16,3.33-1.53,3.59-.91S273.38,27.81,271.66,28.93Z" transform="translate(0 10.66)"/><path class="cls-148" d="M278.48,24.71c-3.58,2.91-6.91,4.51-7.44,3.57s1.95-4.06,5.53-7,6.91-4.51,7.44-3.57S282.06,21.8,278.48,24.71Z" transform="translate(0 10.66)"/><path class="cls-149" d="M275.19,26.16c-1.6,1.32-3.16,1.93-3.48,1.37s.71-2.09,2.31-3.41,3.16-1.93,3.48-1.37S276.79,24.84,275.19,26.16Z" transform="translate(0 10.66)"/><path class="cls-150" d="M274.28,31.68c-7.42,4.85-14.34,6.61-15.46,3.92s4-8.79,11.42-13.64,14.34-6.61,15.46-3.92S281.7,26.82,274.28,31.68Z" transform="translate(0 10.66)"/><path class="cls-151" d="M257.75,32.7c-1.86,0-3.28-.67-3.18-1.4s1.69-1.29,3.55-1.25,3.28.66,3.18,1.4S259.61,32.74,257.75,32.7Z" transform="translate(0 10.66)"/><path class="cls-152" d="M265,33.07c-4.14.44-7.45-.16-7.41-1.35s3.44-2.51,7.57-3,7.45.16,7.41,1.35S269.14,32.63,265,33.07Z" transform="translate(0 10.66)"/><path class="cls-153" d="M261.79,32.36c-1.85.21-3.34-.19-3.32-.91s1.55-1.48,3.4-1.69,3.34.19,3.32.91S263.64,32.14,261.79,32.36Z" transform="translate(0 10.66)"/><path class="cls-154" d="M258.45,36.85c-8-.17-14.15-2.86-13.71-6S252,25.26,260,25.43s14.15,2.86,13.72,6S266.46,37,258.45,36.85Z" transform="translate(0 10.66)"/><path class="cls-155" d="M270.08,24.42c-5.06,2.64-9.32,4.24-9.51,3.58s3.74-3.33,8.8-6,9.32-4.24,9.51-3.58S275.13,21.78,270.08,24.42Z" transform="translate(0 10.66)"/><path class="cls-156" d="M259.72,31.41c-4,1.92-7.44,2.59-7.73,1.5s2.7-3.53,6.68-5.45,7.44-2.59,7.73-1.5S263.7,29.49,259.72,31.41Z" transform="translate(0 10.66)"/><path class="cls-157" d="M276,22.65c-3.17,1.43-6,1.64-6.25.46s2.06-3.29,5.23-4.72,6-1.64,6.25-.46S279.2,21.22,276,22.65Z" transform="translate(0 10.66)"/><path class="cls-158" d="M272.08,27.12c-7.72,4-14.56,5.31-15.29,2.87s4.94-7.67,12.66-11.69S284,13,284.73,15.44,279.79,23.1,272.08,27.12Z" transform="translate(0 10.66)"/><path class="cls-159" d="M261.33,32.59c-7.72,4-14.56,5.31-15.29,2.87S251,27.8,258.7,23.78,273.26,18.47,274,20.9,269.05,28.57,261.33,32.59Z" transform="translate(0 10.66)"/></g><path class="cls-23" d="M280.73,19.22l-3.67,1.84c-11.35,5.63-20.64,9.85-20.64,9.85s9.1-4.91,20.45-10.55l3.68-1.81Z" transform="translate(0 10.66)"/><path class="cls-160" d="M280.73,19.22l-3.67,1.84c-11.35,5.63-20.64,9.85-20.64,9.85s9.1-4.91,20.45-10.55l3.68-1.81Z" transform="translate(0 10.66)"/></g></g></svg>