<svg xmlns="http://www.w3.org/2000/svg" xmlns:xlink="http://www.w3.org/1999/xlink" viewBox="0 0 458.02 104.05"><defs><style>.cls-1{isolation:isolate;}.cls-10,.cls-2{fill:orange;}.cls-3{fill:#39f;}.cls-10,.cls-11,.cls-12,.cls-3,.cls-4,.cls-5,.cls-6,.cls-7,.cls-8,.cls-9{fill-rule:evenodd;}.cls-4{fill:#090052;}.cls-5,.cls-8,.cls-9{fill:#0d0072;}.cls-6{fill:#4026d3;}.cls-7{fill:#ffed17;}.cls-8,.cls-9{stroke:#0d0072;stroke-miterlimit:22.93;}.cls-8{stroke-width:1.42px;}.cls-9{stroke-width:0.57px;}.cls-11{fill:#d10072;}.cls-12{fill:#5a00bf;}.cls-13{opacity:0.9;}.cls-13,.cls-17{mix-blend-mode:screen;}.cls-14,.cls-16,.cls-17{fill:#ffb5ff;}.cls-14{opacity:0.5;}.cls-15{fill:url(#linear-gradient);}.cls-16{opacity:0.13;}.cls-17{opacity:0.25;}.cls-18{fill:url(#linear-gradient-2);}.cls-19{fill:url(#linear-gradient-3);}.cls-20{fill:url(#linear-gradient-4);}.cls-21{fill:url(#linear-gradient-5);}.cls-22{fill:url(#linear-gradient-6);}.cls-23{fill:url(#linear-gradient-7);}.cls-24{fill:url(#linear-gradient-8);}</style><linearGradient id="linear-gradient" x1="3.7" y1="14.92" x2="176.7" y2="14.92" gradientUnits="userSpaceOnUse"><stop offset="0.01" stop-color="#387502"/><stop offset="1" stop-color="#77bd4b"/></linearGradient><linearGradient id="linear-gradient-2" x1="165.62" y1="61.26" x2="9.99" y2="61.26" gradientUnits="userSpaceOnUse"><stop offset="0" stop-color="#77bd4b"/><stop offset="0.15" stop-color="#71b644"/><stop offset="0.36" stop-color="#60a330"/><stop offset="0.61" stop-color="#448310"/><stop offset="0.71" stop-color="#387502"/><stop offset="0.79" stop-color="#3d7a08"/><stop offset="0.9" stop-color="#4b8a18"/><stop offset="1" stop-color="#5d9f2d"/></linearGradient><linearGradient id="linear-gradient-3" y1="16.78" x2="177.52" y2="16.78" gradientUnits="userSpaceOnUse"><stop offset="0.01" stop-color="#458411"/><stop offset="1" stop-color="#a2d284"/></linearGradient><linearGradient id="linear-gradient-4" x1="180.62" y1="59.59" x2="119.86" y2="59.59" gradientUnits="userSpaceOnUse"><stop offset="0" stop-color="#f2f9ee"/><stop offset="0.09" stop-color="#e1f1d7"/><stop offset="0.31" stop-color="#bbdea5"/><stop offset="0.52" stop-color="#9ed07e"/><stop offset="0.71" stop-color="#88c662"/><stop offset="0.88" stop-color="#7cbf51"/><stop offset="1" stop-color="#77bd4b"/></linearGradient><linearGradient id="linear-gradient-5" x1="284.19" y1="14.67" x2="457.19" y2="14.67" xlink:href="#linear-gradient"/><linearGradient id="linear-gradient-6" x1="446.11" y1="61.01" x2="290.48" y2="61.01" xlink:href="#linear-gradient-2"/><linearGradient id="linear-gradient-7" x1="280.49" y1="16.53" x2="458.02" y2="16.53" xlink:href="#linear-gradient-3"/><linearGradient id="linear-gradient-8" x1="461.11" y1="59.34" x2="400.35" y2="59.34" xlink:href="#linear-gradient-4"/></defs><title>caterpillar-infront-behind</title><g class="cls-1"><g id="Layer_1" data-name="Layer 1"><path class="cls-2" d="M101.71,72.72c-.19-.25-.38-.5-.59-.75a2,2,0,0,0-1.42-.85.45.45,0,0,0-.3.09.37.37,0,0,0,0,.47.94.94,0,0,0,.41.3,4.25,4.25,0,0,1,1.39.74,1.81,1.81,0,0,1-.79,0c.09,0,.37.4.48.47a1.91,1.91,0,0,0,.64.28c.15,0,.53.13.59,0S101.8,72.84,101.71,72.72Z"/><path class="cls-2" d="M102.7,63.45a15.14,15.14,0,0,0-.1,2.61,1.12,1.12,0,0,0,.09.47,1.16,1.16,0,0,0,.37.37c.66.49,1.32,1,2,1.46-.34-.75-.83-1.45-1.2-2.19A8.35,8.35,0,0,1,102.7,63.45Z"/><path class="cls-2" d="M113,59.61a5,5,0,0,0-1.88-.27.81.81,0,0,0,.22,1c.07.06.16.11.19.2s-.24.29-.43.25a1.33,1.33,0,0,1-.57-.27.34.34,0,0,0,.1.52,1.61,1.61,0,0,1,.29.11c.16.12.08.41-.1.49a.65.65,0,0,1-.57-.07.7.7,0,0,0-.32-.12.38.38,0,0,0-.34.31.89.89,0,0,0,.05.48,3.06,3.06,0,0,0,1.29,1.62,1.13,1.13,0,0,0,.76.21c.66-.11.76-.88,1.07-1.34s.69-.52,1-.86C114.47,61,113.84,60,113,59.61Z"/><path class="cls-2" d="M125.57,57.5a3.63,3.63,0,0,0-.2-2.4.17.17,0,0,0,0-.06c-.07,0-.16,0-.21.1a2.33,2.33,0,0,0-.26,1,13.7,13.7,0,0,1-.23,1.36c0,.16-.14.36-.3.31s-.13-.14-.15-.24L123.53,55c0-.18-.15-.4-.33-.38s-.21.15-.25.28a3.38,3.38,0,0,0,.09,2.58c.16.36.39.68.55,1a4.83,4.83,0,0,0,.5,1,1,1,0,0,0,.65.38c.32,0,.32-.15.37-.42C125.23,58.83,125.44,58.18,125.57,57.5Z"/><path class="cls-2" d="M182.45,41.06a1.77,1.77,0,0,0-.17.36l-1.05,2.8a.38.38,0,0,1-.14.21c-.2.11-.38-.17-.45-.39a9.62,9.62,0,0,0-1-2.28c-.14-.23-.42-.49-.64-.32a.49.49,0,0,0-.15.3,11.56,11.56,0,0,0-.15,2.75,7.52,7.52,0,0,0,.24,2,2.08,2.08,0,0,0,3.28,1.06c.49-.36.59-1.2.74-1.77a20.74,20.74,0,0,0,.68-5.1,1.34,1.34,0,0,0-1.09.24Z"/><path class="cls-2" d="M171,45.36a2.08,2.08,0,0,0-.13.36l-.8,2.8a.4.4,0,0,1-.11.21c-.15.11-.29-.17-.34-.39a11.35,11.35,0,0,0-.77-2.28c-.11-.23-.32-.49-.49-.32a.56.56,0,0,0-.11.3,15.19,15.19,0,0,0-.11,2.75,9.82,9.82,0,0,0,.18,2c.32,1.39,1.53,2,2.49,1.06.38-.36.44-1.2.56-1.77a27,27,0,0,0,.52-5.1.83.83,0,0,0-.82.24Z"/><path class="cls-2" d="M161.63,48.86a1.75,1.75,0,0,0-.09.28L161,51.3a.33.33,0,0,1-.07.17c-.1.09-.2-.13-.23-.3a9.6,9.6,0,0,0-.53-1.76c-.07-.18-.22-.38-.33-.25a.47.47,0,0,0-.08.23,13.3,13.3,0,0,0-.08,2.12,8.57,8.57,0,0,0,.12,1.57c.22,1.08,1,1.53,1.7.82a3.13,3.13,0,0,0,.38-1.37,23.58,23.58,0,0,0,.35-3.94.53.53,0,0,0-.56.19Z"/><path class="cls-2" d="M153,50.32a1.75,1.75,0,0,0-.09.28l-.54,2.16a.33.33,0,0,1-.07.17c-.1.09-.2-.13-.23-.3a9.6,9.6,0,0,0-.53-1.76c-.07-.18-.22-.38-.33-.25a.47.47,0,0,0-.08.23A13.3,13.3,0,0,0,151,53a8.57,8.57,0,0,0,.12,1.57c.22,1.08,1,1.53,1.7.82A3.13,3.13,0,0,0,153.2,54a23.58,23.58,0,0,0,.35-3.94.53.53,0,0,0-.56.19Z"/><path class="cls-2" d="M145.11,53.1c-.27,0-.48.42-.75.32a.45.45,0,0,1-.21-.28l-.25-.6a.73.73,0,0,0-.37-.47.16.16,0,0,0-.19,0c-.09.13-.05.4-.09.55a3.08,3.08,0,0,0-.12.39,9.31,9.31,0,0,0,0,1.36,8.57,8.57,0,0,0,.12,1.57c.22,1.08,1,1.53,1.7.82a3.13,3.13,0,0,0,.38-1.37,6.19,6.19,0,0,0,.13-1.87c0-.2-.1-.45-.3-.48Z"/><path class="cls-2" d="M134.64,53.49l.06.23a1.15,1.15,0,0,1,0,.45.42.42,0,0,1-.26.34.48.48,0,0,1-.45-.15c-.12-.11-.21-.25-.34-.35a1.58,1.58,0,0,0-.94-.24,1,1,0,0,0-.38,0,.33.33,0,0,0-.23.29c0,.16.15.28.3.33a1.37,1.37,0,0,1,.43.19c.34.3.2,1.23.29,1.67.22,1.08,1,1.53,1.7.82a6.18,6.18,0,0,0,.81-2.73,3.15,3.15,0,0,0-.05-1.49,1.33,1.33,0,0,0-1.08-.94A2.94,2.94,0,0,0,134.64,53.49Z"/><path class="cls-3" d="M207.47,71c-.28,2-14.86,8.63-14.77,4.73C192.87,67.55,208.52,63.56,207.47,71Z"/><path class="cls-4" d="M205.88,72.58a33.12,33.12,0,0,1-6.9,3.34,12.69,12.69,0,0,1,2.13-2.75c2-2,4.25-3.15,4.94-2.47C206.38,71,206.29,71.73,205.88,72.58Z"/><path class="cls-5" d="M125.25,80.75s4.64-1,4.74.15C130.31,84.77,123.35,83,125.25,80.75Z"/><path class="cls-5" d="M184.66,76.68c.14.55,2.19.65,2.55.5.9-.37,2.53,0,2.54-1.58C189.75,75.47,184,73.87,184.66,76.68Z"/><path class="cls-5" d="M182.18,77.39c-.95,0-2.52.46-3.21-.28-.3-.32-.23-1.07,0-1.77C183.11,73.92,185.4,77.51,182.18,77.39Z"/><path class="cls-5" d="M176.42,77.25a6.49,6.49,0,0,0-2.71.89c-2.21,1.74.22,3.79,1.9,2.4.72-.6,0,.63,1.14-1,.18-.26.49-.15,1.19-.9.38-.4.54-1.22.15-1.58C178,77,177.79,76,176.42,77.25Z"/><path class="cls-5" d="M158.55,81.23c0-.06-7.35-1.86-7.65-.22C149.88,86.57,161.31,84.7,158.55,81.23Z"/><path class="cls-5" d="M147.9,80.73c0-.06-6.39-1.87-6.65-.22C140.35,86.1,150.29,84.23,147.9,80.73Z"/><path class="cls-5" d="M132.33,80.51c0-.05,7-1.33,7.14.19C140,85.85,129.47,83.56,132.33,80.51Z"/><path class="cls-3" d="M149,55.29c-.49.17-1,.92-1.11,2.51-.33,5.41-.81,20.2.27,22.18.51.94,9.16,4,12.77,1.16,1-.79-3.23-22.21-3.21-25.55,0-.82-.58-1.25-1.44-1.42s-2.2.6-3.35.79C151.09,55.26,149.47,55.12,149,55.29Z"/><path class="cls-3" d="M166.71,54.1c-2.79-1.47-6-1.54-9.51.46-.49.28.5,1,.4,2.65-.37,5.6,2.12,21.89,3.31,23.93.56,1,5.8,1.73,10.4-.51,2.93-1.43-4.07-19.75-4-25.37A1.23,1.23,0,0,0,166.71,54.1Z"/><path class="cls-6" d="M161.4,53.09c2,.21,3.62-.62,5.64,13.85,1.58,11.3,6.19,13,.84,14.84a14.35,14.35,0,0,0,3.41-1.14c2.93-1.43-4.07-19.75-4-25.37a1.23,1.23,0,0,0-.56-1.17A8.86,8.86,0,0,0,161.4,53.09Z"/><path class="cls-3" d="M140.95,55.84c-.42.17-.85.89-.93,2.42-.28,5.19-.68,19.4.23,21.3.43.9,5.88,3.83,8.9,1.12.48-.43.6-.91.59-2.13,0-5.09-.87-17.53-.85-22C148.9,54,141.93,55.44,140.95,55.84Z"/><path class="cls-6" d="M139.69,69.12a3.84,3.84,0,0,0,.59,0c.34-2.26-.82-11.31.86-12.76s5.55-1,6.16,0c.9,1.48,2.41,19,.47,22.16-.22.36-1.28,2.63-2.6,2.66A10.66,10.66,0,0,1,140.62,80c1.36,1.13,5.88,3.09,8.53.71.48-.43.6-.91.59-2.13,0-5.09-.87-17.53-.85-22,0-2.55-7-1.15-7.94-.75-.42.17-.85.89-.93,2.42C139.89,60.65,139.73,65,139.69,69.12Z"/><path class="cls-3" d="M139.81,56.82a9,9,0,0,0-8.72.31A2.55,2.55,0,0,0,130,59.39c-.32,4.86-1.09,21.28,1,21.55a26.62,26.62,0,0,0,9.64-.56c.68-.14.69-.85.68-2,0-4.76-1-16.4-1-20.54A1.06,1.06,0,0,0,139.81,56.82Z"/><path class="cls-7" d="M136.86,55.91a9.18,9.18,0,0,0-4.78.73c-.08.86-.85,1.38.34,3.13s2.11-2.46,4.35-1.8C137,58.06,137,57,136.86,55.91Z"/><path class="cls-6" d="M139.81,56.82a8.68,8.68,0,0,0-2.34-.81c.83.58,1.67,1.63,1.79,3.87.57,10.61,3.2,16-.85,19.62-1.16,1-2.89.83-5.46,1.63a29.28,29.28,0,0,0,7.66-.75c.68-.14.69-.85.68-2,0-4.76-1-16.4-1-20.54A1.06,1.06,0,0,0,139.81,56.82Z"/><path class="cls-3" d="M118.16,62.21c-.62,4.54,3.79,16.84,5,18.5.56.79,3.09,1.11,7,.23,2.27-.5-.81-18.85.44-22.82.12-.37-.33-.78-.8-.81-1-.08-2.9.71-4.94,1.18-1.4.33-2.77.07-4,.7C119.41,60,118.32,61,118.16,62.21Z"/><path class="cls-6" d="M122.39,79.27a9.68,9.68,0,0,0,.74,1.45c.56.79,3.09,1.11,7,.23,2.27-.5-.81-18.85.44-22.82.12-.37-.33-.78-.8-.81-1-.08-2.9.71-4.94,1.18l-.15,0c2.09-.14,3.66-1.17,4.34,1.8,1.23,5.33.93,9.91,1.33,14.55.25,2.82.84,4.83-3.09,5.74a10.69,10.69,0,0,1-3.18.24c-.91-.1-.79-2.32-1.34-3.2A13.48,13.48,0,0,0,122.39,79.27Z"/><path class="cls-3" d="M119.41,60c-2.55-1.24-12.19,4-12.45,7.76-.3,4.19,5.19,10.54,6.15,12.07.46.73,5.25,1.66,10,.87.61-.1-3.29-15.83-3.26-19.83A.9.9,0,0,0,119.41,60Z"/><path class="cls-7" d="M115.13,60.64a21.37,21.37,0,0,0-5.75,3.5,7.12,7.12,0,0,1,1,1.21c1.59,2.37.05-2.1,5.5-2.62C117,62.61,116.64,61.42,115.13,60.64Z"/><path class="cls-6" d="M109.35,64.17c-1.35,1.19-2.3,2.47-2.38,3.6-.3,4.19,5.19,10.54,6.15,12.07.25.39,1.77.85,3.88,1.06a2.59,2.59,0,0,0-2.12-.87c-1.81-.19-3-3.63-4.4-6.6-1-2.18-2.34-4-2.4-4.73C107.86,65.78,108.63,65.4,109.35,64.17Z"/><path class="cls-3" d="M165.84,53.69c-1.67,2.48,4.6,23.1,6.12,25.71.18.31.84,1,1.27.54,1.4-1.58,1.17-2.27,3.89-2.27A2.13,2.13,0,0,0,179,75.48c0-3.18,3.15-11.26,2.08-16.85-.78-4-4.38-6.32-4.37-8.32C176.68,47.39,166.58,52.6,165.84,53.69Z"/><path class="cls-6" d="M171.69,78.86c.1.23.19.41.27.55.18.31.84,1,1.27.54,1-1.17,1.18-1.85,2.28-2.12h0c-.58.06-.48-.16-1.93,1-.41.33-1,1.13-1.46.54Z"/><path class="cls-6" d="M170.17,51.1c2.81-.47,5.71-1.37,5.6,2.06s2.43,18.77,2.07,23.49c-.07.86-.73,1-1.11,1h.4A2.13,2.13,0,0,0,179,75.48c0-3.18,3.15-11.26,2.08-16.85-.78-4-4.38-6.32-4.37-8.32,0-1.66-3.28-.67-6.24.68l-.24.11Z"/><path class="cls-3" d="M186.29,47.07a8.51,8.51,0,0,0-5.09-.36c-3.81,1-7,1.83-5.26,3.87,2.24,2.61,1.31,25.63,3.16,25.8.85.08,1.69-.17,2.28-.09,1.05.15,1.59.61,2,.6.73,0,1.37-.61,1.42-1.81.2-4.53,4.36-21.28,4.39-26.06C189.21,48.47,186.63,47.25,186.29,47.07Z"/><path class="cls-7" d="M184,46.52a8.79,8.79,0,0,0-2.78.19A29.08,29.08,0,0,0,177.07,48c3.69,5,6.91-.86,6.91-1S184,46.67,184,46.52Z"/><path class="cls-6" d="M186.29,47.07a4.59,4.59,0,0,0-1.1-.37c2.6,2.28,2.29,5.66,1.49,9.12S184.2,75,183.13,75.88c-.5.43-1.09.26-1.94.17s-1.21.38-2.55-.52q0,.12,0,.23c.13.39.28.61.45.63.85.08,1.69-.17,2.28-.09,1.05.15,1.59.61,2,.6.73,0,1.37-.61,1.42-1.81.2-4.53,4.36-21.28,4.39-26.06C189.21,48.47,186.63,47.25,186.29,47.07Z"/><path class="cls-3" d="M201.52,59.92c-2.79-1.47-8.29-13.76-11.78-11.76a2.84,2.84,0,0,0-1.64,2.49c-.37,5.6-4.86,23.53-3.67,25.57.05.09,1.35-.4,3.1-.56.79-.07,1.68.58,2.59.24s1-1.48,2.2-2.71C196.54,68.7,202.27,60.29,201.52,59.92Z"/><path class="cls-6" d="M194.64,51.06c.88,1.36,2.76,4.47,3.16,5.12.68,1.1.47,4.54-1,7.45-1.61,3.2-4.19,6.47-4.45,8.39-.13,1-.76,1.39-1.24,2.9a9,9,0,0,1,1.2-1.73c4.22-4.49,10-12.91,9.2-13.28C199.86,59,197.23,54.31,194.64,51.06Z"/><path class="cls-3" d="M198.86,58.73c-1.09,5.51-6.68,11.58-5.77,13.77.43,1,5.83.5,8.84-2.4.57-.55,4.49-3.31,3.87-4.48C201.59,57.67,198.87,58.68,198.86,58.73Z"/><path class="cls-6" d="M193.17,71a2.3,2.3,0,0,0-.08,1.54c.43,1,5.83.5,8.84-2.4.57-.55,4.49-3.31,3.87-4.48q-.28-.54-.56-1c-.07,4.7-9.72,9.7-11.55,7.87A2.52,2.52,0,0,1,193.17,71Z"/><path class="cls-8" d="M205,64.24a18.36,18.36,0,0,0-3.16-4.2c-1.43,2.92-3.64,7-1.39,7.26.51,0,1.06-1.72,3.55-2.31A1.83,1.83,0,0,0,205,64.24Z"/><path class="cls-3" d="M106,67.16c-1.69.62-4.49,1.76-4.06,4.12.29,1.61,3.56,6,7.54,8.33,1.72,1,3.52,1.12,3.82.41.38-.91-5.28-8.83-5.88-12.13C107.25,66.9,106.83,66.86,106,67.16Z"/><path class="cls-6" d="M104.29,67.88c-1.37.7-2.63,1.75-2.34,3.39s3.56,6,7.54,8.33c1.72,1,3.52,1.12,3.82.41.08-.2-.12-.74-.51-1.49-.36,1.2-1.63,1.6-2.1,1.07-.9-1-1.83-2.84-3.31-4.06a51.65,51.65,0,0,1-4.29-5.05C102.31,69.26,102.87,68.95,104.29,67.88Z"/><path class="cls-3" d="M108.19,80.34c.83.89,2.43,0,1.77-1-1.61-2.33-5.67-6.4-7.12-8.18-.85-1-1.14.12-1.45,1.1-.54,1.7-1.74,3.2,0,4.76C102.56,78.1,106.81,78.87,108.19,80.34Z"/><path class="cls-6" d="M108.19,80.34c.83.89,2.43,0,1.77-1l-.34-.48c0,.11-.1.41-.1.44-.13,1.07-.89,1-1.37.44-3-3.81-8.63-1.64-6.91-7-.57,1.52-1.43,2.89.16,4.31C102.56,78.1,106.81,78.87,108.19,80.34Z"/><path class="cls-6" d="M115.56,60.47c.9.47,3-.84,3.3.63,3.06,17.42,7.1,18.09-5,19a.36.36,0,0,0-.19.09,20.55,20.55,0,0,0,9.46.51c.61-.1-3.29-15.83-3.26-19.83a.9.9,0,0,0-.45-.88C118.63,59.63,117.19,59.86,115.56,60.47Z"/><path class="cls-6" d="M188.22,75.43c-1.13-.27-2.94.06-3.31-.28a2.59,2.59,0,0,1-.62-1.48,5.57,5.57,0,0,0,.14,2.55c.05.09,1.35-.4,3.1-.56.79-.07,1.68.58,2.59.24.75-.28,1-1,1.58-1.94l0-.07C190.61,74.72,190.48,76,188.22,75.43Z"/><path class="cls-7" d="M123.94,66.29c.38,1.95.84.65,1.24,3.87,0,.14,1.52,3.09,1.52-1.15,0-2.14.11-2.27-1.68-3.37C124.74,65.47,123.76,65.38,123.94,66.29Z"/><path class="cls-7" d="M134.5,65.25c.26-.84,2.15-.54,2.15.55,0,2.91.74,3.9-2.12,3.55C133.31,69.19,134.24,66.09,134.5,65.25Z"/><path class="cls-7" d="M143.89,64.32c-1.08,2.15.11,1.88.49,5.12.12,1,1.25.14,1.15-2.08,0-.5,1.48-3.42-1.29-3.27A.58.58,0,0,0,143.89,64.32Z"/><path class="cls-7" d="M152.45,64c.21,1.51-.27.48.34,2,0,0,.16,3.23,1,2.24.43-.53-.13-2.17.31-3.44C154.63,63.21,152.87,62.46,152.45,64Z"/><path class="cls-7" d="M161.19,64.68c0,.55,1.24,3.36,1.36,4.81.17,2.08,3.12.32,1-4.5-.25-.58.58-2.2-1.51-2C161.59,63,161.16,64.16,161.19,64.68Z"/><path class="cls-7" d="M172.44,66.76c1.2.31.75-1.3.93-3.09.47-4.47-1.45-1.63-2.74-2C168.89,61.16,170.37,66.22,172.44,66.76Z"/><path class="cls-7" d="M181.69,55.74a4.39,4.39,0,0,1,1.37.26c.38.08-.64,2-.64,4.06,0,1.05.14,6.34-1.48,3.79-.45-.71.92-3.27-.29-5.69C180,56.82,180.72,55.81,181.69,55.74Z"/><path class="cls-7" d="M192.06,58.29c1.6,1.79.36,2.2-.66,4.32-.08.17-2.16,2.18-.83-1.41C191.55,58.56,190.19,57.6,192.06,58.29Z"/><path class="cls-7" d="M115.42,68.14c-4.06.05.33,5.08.94,4.54.09-.08.3-2.14.66-3C117.65,68.06,116.36,68,115.42,68.14Z"/><path class="cls-7" d="M108,74.28c.23.46,1,1.78,1,.47,0-.75-.71-1-.78-2.28,0-.16-.62-1.38-1.26-.43C106.53,72.66,107.69,73.73,108,74.28Z"/><path class="cls-7" d="M105.44,75.93c-.28-.72-.8-.88-1.15-.8C103.13,75.39,106,77.39,105.44,75.93Z"/><path class="cls-5" d="M103.86,74.73c-.15-.11-.61-.53-.55,0,0,.25-.35.74.24.65C103.63,75.33,104.1,74.92,103.86,74.73Z"/><path class="cls-5" d="M107.41,70.62c-.19-.28-.82.11-1,.3-.74.71.07.93.14.73.17-.47.83-.5.93-.71A.69.69,0,0,0,107.41,70.62Z"/><path class="cls-5" d="M111.8,66.87c.59,0,1.3-2,3.71-1.46,1.55.38,3.18-1.6.06-1.51C113.83,63.94,111.8,64.94,111.8,66.87Z"/><path class="cls-5" d="M123.21,63.28c1.22-.61,2.49.47,2.82.7.53.36,1.57-.11.84-.92-.38-.42,1-1.75-1.6-1.41a3.33,3.33,0,0,1-1.65.52C123.26,62.2,122.65,63.56,123.21,63.28Z"/><path class="cls-5" d="M136.68,61.79c.44.3.72.14.6-.8,0-.39-1.15-2.46-2.3-1.19C131.44,63.77,135.15,60.75,136.68,61.79Z"/><path class="cls-5" d="M143.47,60.78c1.65-.33,3.45,1,2.73-.33-.14-.26-.75-.44-1.15-.86C144.13,58.59,141.82,61.11,143.47,60.78Z"/><path class="cls-5" d="M151.61,58.9c-.2.59.13,1,.78.59,1.27-.78,2.93.74,2.46-.36S152.27,57,151.61,58.9Z"/><path class="cls-5" d="M160.13,58.7c-.2.35-1.37-.53-.06-1.84.13-.13.82.27,1.84-.33s1.61.81,1.85,1.47C164.23,59.35,161.17,56.86,160.13,58.7Z"/><path class="cls-5" d="M168.38,56.81c.2.45-.66,1.09.26,1.55.18.09.73-.25,1-.14a5.27,5.27,0,0,0,4-1.36c.31-.25.84-.6.07-1.4s-3.62.48-4.72.58C168.67,56.06,168.16,56.33,168.38,56.81Z"/><path class="cls-5" d="M178.84,53.51c.24.62.8.3,1.51,0a6,6,0,0,1,3.07-.27c.84.12,1.27.79,1.4,0,.59-3.68-1.87-3.08-5.43-1.62C179,51.73,178.7,53.15,178.84,53.51Z"/><path class="cls-5" d="M191.06,55.42c.43.19,1,.25,1.45.44s.92.53.89-.23a3.43,3.43,0,0,0-.48-1.92C192.08,52.55,190.2,55,191.06,55.42Z"/><path class="cls-5" d="M118.07,73.41a13.62,13.62,0,0,0-.63,2.65c0,.11-.68.76.37.66.58-.06.06-1.39.87-2.12.21-.19.57-1.83.26-1.83C117.94,72.8,118,73.26,118.07,73.41Z"/><path class="cls-5" d="M127.34,74.17s.77.66-.55.71-.52.68-1.72-.64c-.08-.09-.43-1.05-.18-1.27S125.9,74.39,127.34,74.17Z"/><path class="cls-5" d="M109.39,75.16c-.58,1.36.17.19.25,1.32,0,0,.65.29.3-.24C109.88,76.15,109.54,74.8,109.39,75.16Z"/><path class="cls-5" d="M106,76.35c-.55.77.53,1.12.51.82C106.46,76.67,106.07,76.21,106,76.35Z"/><path class="cls-5" d="M133.53,74.73c.08.31.93,1.19,1.51.14.31-.55,1-.15,2-.61s1.53-2.21-.53-1.79C132.73,73.24,132.47,70.66,133.53,74.73Z"/><path class="cls-9" d="M145.53,73c.27-.23,1.89-1.16.3,1.09-.31.43-.83,2.32-1,2.12-.55-.85.22-.93-.78-1.86,0,0-.45-1.18,0-1.18A1.18,1.18,0,0,0,145.53,73Z"/><path class="cls-5" d="M153,71.78c.9,1.07,1.73,0,1.91,1.88,0,.09.48,1.25.18,1.36-.07.24-1.74-1.68-1.82-2S152.28,71.92,153,71.78Z"/><path class="cls-5" d="M165.65,73.58c-.26,1.81-3.74.34-1.36,3.21.46.56,1.23-1.72,1.65-2.35C166.81,73.13,165.78,72.71,165.65,73.58Z"/><path class="cls-5" d="M172.33,70.33c-1.17-.25,1.19,3.68,3.27.89.35-.47.1-2-.33-1.39S174.09,70.7,172.33,70.33Z"/><path class="cls-5" d="M182.9,66.16c-1.46,2.59-2.84-.66-2.34,1.49.08.36,1,.9,1,2s.36-1.61,1-1.78C183.54,67.63,183.38,65.29,182.9,66.16Z"/><path class="cls-9" d="M191.36,65.42c-1,.66-1.87.54-2.25,1s-.74,2.6,1.08,1.52c.79-.47,2-2.4,1.84-2.81S191.72,65.17,191.36,65.42Z"/><path class="cls-10" d="M118.71,75.69a7.45,7.45,0,0,0-.08,1.49c.72,0,.42-.82.6-1.5.11-.4-.46-.29-.47-.1Z"/><path class="cls-10" d="M127.18,75.32c-.51.17-1.6,0-.69,1C126.8,76.65,128.13,75,127.18,75.32Z"/><path class="cls-10" d="M106.8,77.38c0,.41,0,.13.31.41.15.12.16-.3,0-.46C107.07,77.34,106.8,76.92,106.8,77.38Z"/><path class="cls-10" d="M135.77,75.16c-.42.66-1.76,1,.39,1.06C136.72,76.24,137.61,75.16,135.77,75.16Z"/><path class="cls-10" d="M146.19,75.29c-.12.46-.87,1.56-.08,1.26,0,0,1.36-1.76.1-1.41Z"/><path class="cls-10" d="M153.94,75c.31.62,1.59.72.81,1.69,0,0-.21.72-.71.07,0,0-.61-1.87-.4-1.89A.3.3,0,0,1,153.94,75Z"/><path class="cls-10" d="M166.11,76s-2.1,3.59.33.72C166.71,76.41,167,75.2,166.11,76Z"/><path class="cls-10" d="M175.21,72.37c-.19.76-1.61.41-1.09,1.15,0,0,1.38.58,1.33-.52,0,0,.5-1-.2-.78Z"/><path class="cls-10" d="M182.35,69.56c-.14.3-1.25,1.61-.26,1.56C182.56,71.1,182.71,68.79,182.35,69.56Z"/><path class="cls-10" d="M190.09,69c-1,.62-.21.29-.62.84-.09.13-.31.11-.23.45.16,0,.5-.37.83-.52C190.67,69.47,190.26,68.86,190.09,69Z"/><path class="cls-10" d="M110.27,76.68c-.11.39.09.36.21.69.19.53,0-.12.06-.16.06-.21.15-.42-.1-.57A.1.1,0,0,0,110.27,76.68Z"/><path class="cls-7" d="M100.91,73.55c1.2,1.3,2.85,2.28,1.81-.51a2,2,0,0,0-1.2-1.18l-.13.42C101.25,72.72,101.07,73.14,100.91,73.55Z"/><path class="cls-7" d="M100.91,73.55l.09.09a7.85,7.85,0,0,1,.23-.91l-.05.14h0l-.05.13h0l-.14.34h0v0l0,.12v0Z"/><path class="cls-3" d="M103.2,77.26c.83.21,7.27,3.18,3.05,3-1.55-.05-4,.52-4.85-.88C99.73,76.58,100.72,76.62,103.2,77.26Z"/><path class="cls-7" d="M145.93,55.1a18.31,18.31,0,0,0-3.25.32,10.16,10.16,0,0,1,.1,1.6c0,1.66-.34,1.73,1.44,1.58.44,0,.09-.62,1.16,0C145.6,58.71,145.87,56.76,145.93,55.1Z"/><path class="cls-7" d="M127,57.91c-.67.2-1.4.41-2.14.59-1.08.25-2.13.15-3.1.39a3,3,0,0,0,1.27,2c2.07,1.38.75-.18,3.69-.05C127.27,60.81,127,59.25,127,57.91Z"/><path class="cls-7" d="M127,57.91h-.22l-.06,0h-.19l-.08,0h0l-.07,0h0l-.06,0h-.07l-.06,0h-1l-.06,0h-.14l-.07,0h-.15c.87-.06,1.64-.27,2.31-.29C127,58.13,127,58,127,57.91Z"/><path class="cls-6" d="M151.27,55.14c3,.27,4.21-1.61,5.21,2.24,1.87,7.25,2.72,19.89.42,23.4-1.09,1.67-6.86.23-7,.22,2.85,1.11,8.29,2.24,11,.15,1-.79-3.23-22.21-3.21-25.55,0-.82-.58-1.25-1.44-1.42s-2.2.6-3.35.79A15.93,15.93,0,0,1,151.27,55.14Z"/><path class="cls-7" d="M162.64,53a9.66,9.66,0,0,0-3.62.67c.54,1.79,1,3.48,3.18,1.66C162.69,54.95,162.73,54,162.64,53Z"/><path class="cls-7" d="M172.66,50.06a32.24,32.24,0,0,0-5.22,2.46,5.78,5.78,0,0,0,1.91,1.71c.84.37,1.21,1.14,2.92.22C173.28,53.9,172.91,51.53,172.66,50.06Z"/><path class="cls-7" d="M172.66,50.06c-.45.16-.92.34-1.38.54h0l-.35.15-.09,0-.07,0h0l-.07,0-.09,0h0l-.06,0h0l-.05,0-.24.11h0c.89-.15,1.79-.34,2.6-.42C172.73,50.46,172.7,50.25,172.66,50.06Z"/><path class="cls-7" d="M195.53,52.23a18.3,18.3,0,0,0-3.13-3.5c-.82,1.62-1.77,2,1.75,4.22C194.83,53.39,195.19,53,195.53,52.23Z"/><path class="cls-7" d="M153.67,54.78a5.82,5.82,0,0,1-.77.19,18,18,0,0,1-2.25.2c.14,1.12.6,2.51,1.66,1.79.78-.53,2.68,1.46,1.6-1.73A2.34,2.34,0,0,0,153.67,54.78Z"/><path class="cls-7" d="M161.4,53.09a7.18,7.18,0,0,1,1.26.16l0-.22A8.89,8.89,0,0,0,161.4,53.09Z"/><path class="cls-11" d="M194.64,51.06l.82,1.31.07-.14-.4-.53h0l-.11-.14,0,0-.09-.11,0-.05-.08-.11,0,0-.08-.1Z"/><path class="cls-7" d="M142.7,55.64a7.17,7.17,0,0,1,3.2,0c0-.18,0-.36,0-.53H144.3l-.26,0h-.85l-.1,0h-.29l-.09,0h0Z"/><path class="cls-7" d="M105.2,67.47a10.08,10.08,0,0,0-1.59.8,15.12,15.12,0,0,1,1.74,2c.72,1.26,2.86,0-.1-2.79Z"/><path class="cls-7" d="M103.61,68.27l.06.08.62-.46C104.06,68,103.83,68.13,103.61,68.27Z"/><path class="cls-5" d="M179.62,82.59c-.43-1.06-.67-3.24-3.11-4.34-2.11-1-1.7,1,0,2.64a6.25,6.25,0,0,0,2.42,1.2C179.14,82.18,180.06,83.65,179.62,82.59Z"/><path class="cls-12" d="M179.62,82.59c0-.09-.07-.19-.11-.3h0a1,1,0,0,0-.24.13C179.56,82.83,179.93,83.34,179.62,82.59Z"/><path class="cls-5" d="M181.77,79.63s.29,3.69.69,1.73c.2-1,0-1.16.11-3.14C182.75,76.1,178.61,74.6,181.77,79.63Z"/><path class="cls-12" d="M181.94,81.05c.12.77.31,1.38.52.31,0-.1,0-.19,0-.28a.72.72,0,0,0-.57,0Z"/><path class="cls-5" d="M185.95,77.88c-.13.51.18.81.17,1.26,0,1.08-.27,2,0,1.56a9.7,9.7,0,0,0,1.48-4C186.67,76.11,186.68,75,185.95,77.88Z"/><path class="cls-12" d="M186,80.36c0,.42-.07.62.08.34l.15-.27-.13,0Z"/><path class="cls-7" d="M151.27,55.14a10,10,0,0,0,2.53-.16l-.12-.2h-2.41Z"/><path class="cls-10" d="M198.72,67.55c-.4.36-1.52,1.23-.26,1.49.94.19.47-.75.9-1.45.24-.4-.28-.65-.55-.09Z"/><g class="cls-13"><path class="cls-14" d="M88.76,1.2c47.39,0,86,6.17,86,13.73s-38.65,13.72-86,13.72-86-6.17-86-13.72S41.37,1.2,88.76,1.2Z"/><path class="cls-15" d="M88.76,1.2c47.39,0,86,6.17,86,13.73s-38.65,13.72-86,13.72-86-6.17-86-13.72S41.37,1.2,88.76,1.2Z"/></g><g id="Botton"><path class="cls-16" d="M88.76,99.84c-24.11,0-43.77-3.14-43.77-7s19.67-7,43.77-7,43.77,3.14,43.77,7-19.67,7-43.77,7Z"/><path class="cls-17" d="M88.76,87.55C67.34,87.55,50,89.93,50,92.86a.92.92,0,0,0,.22.56c2.06-2.67,18.54-4.74,38.57-4.74s36.52,2.08,38.57,4.74a.92.92,0,0,0,.22-.56c0-2.93-17.37-5.31-38.79-5.31Z"/></g><path class="cls-18" d="M88.76,33.31c-8.39,0-68.91-.52-84.89-10.64a84.86,84.86,0,0,0,41.77,71.4,2.94,2.94,0,0,1-.29-.31c2.77,3.42,21.21,6.08,43.41,6.08s40.64-2.66,43.41-6.08a2.94,2.94,0,0,1-.29.31,84.86,84.86,0,0,0,41.77-71.4C157.67,32.79,97.15,33.31,88.76,33.31Zm0,52.57C64.66,85.88,45,89,45,92.86c0-3.86,19.6-7,43.77-7s43.77,3.13,43.77,7C132.53,89,112.87,85.88,88.76,85.88Z"/><path class="cls-19" d="M0,17.29c0,15.33,79.08,16,88.76,16s88.76-.69,88.76-16c0-15.78-78.86-17-88.76-17S0,1.51,0,17.29ZM2.73,14.9c0-7.56,38.65-13.73,86-13.73s86,6.17,86,13.73-38.65,13.72-86,13.72S2.73,22.46,2.73,14.9Z"/><path class="cls-20" d="M88.62,94.16A226,226,0,0,0,117,92.28C148.11,88,167.68,55.76,170.5,25c-9.37,3.52-24.88,5.55-39.84,6.71-3.46,21.95-13.31,51.42-42.05,62.42Z"/><g class="cls-13"><path class="cls-14" d="M369.25.95c47.39,0,86,6.17,86,13.73s-38.65,13.72-86,13.72-86-6.17-86-13.72S321.87.95,369.25.95Z"/><path class="cls-21" d="M369.25.95c47.39,0,86,6.17,86,13.73s-38.65,13.72-86,13.72-86-6.17-86-13.72S321.87.95,369.25.95Z"/></g><g id="Botton-2" data-name="Botton"><path class="cls-16" d="M369.25,99.59c-24.11,0-43.77-3.14-43.77-7s19.67-7,43.77-7,43.77,3.14,43.77,7-19.67,7-43.77,7Z"/><path class="cls-17" d="M369.25,87.3c-21.42,0-38.79,2.38-38.79,5.31a.92.92,0,0,0,.22.56c2.06-2.67,18.54-4.74,38.57-4.74s36.52,2.08,38.57,4.74a.92.92,0,0,0,.22-.56c0-2.93-17.37-5.31-38.79-5.31Z"/></g><path class="cls-22" d="M369.25,33.06c-8.39,0-68.91-.52-84.89-10.64a84.86,84.86,0,0,0,41.77,71.4,2.94,2.94,0,0,1-.29-.31c2.77,3.42,21.21,6.08,43.41,6.08s40.64-2.66,43.41-6.08a2.94,2.94,0,0,1-.29.31,84.86,84.86,0,0,0,41.77-71.4C438.16,32.54,377.65,33.06,369.25,33.06Zm0,52.57c-24.11,0-43.77,3.14-43.77,7,0-3.86,19.6-7,43.77-7s43.77,3.13,43.77,7C413,88.77,393.36,85.63,369.25,85.63Z"/><path class="cls-23" d="M280.49,17c0,15.33,79.08,16,88.76,16S458,32.37,458,17c0-15.78-78.86-17-88.76-17S280.49,1.26,280.49,17Zm2.73-2.39c0-7.56,38.65-13.73,86-13.73s86,6.17,86,13.73-38.65,13.72-86,13.72S283.22,22.21,283.22,14.65Z"/><path class="cls-24" d="M369.11,93.91A226,226,0,0,0,397.48,92C428.6,87.77,448.17,55.51,451,24.78c-9.37,3.52-24.88,5.55-39.84,6.71-3.46,21.95-13.31,51.42-42.05,62.42Z"/><path class="cls-2" d="M431.37,89.19c.24-.32.48-.64.74-.94a2.53,2.53,0,0,1,1.79-1.08.56.56,0,0,1,.38.12.47.47,0,0,1,0,.59,1.18,1.18,0,0,1-.52.37,5.34,5.34,0,0,0-1.75.93,2.28,2.28,0,0,0,1,0c-.12,0-.46.5-.6.59a2.41,2.41,0,0,1-.81.35c-.19,0-.66.16-.75,0S431.26,89.34,431.37,89.19Z"/><path class="cls-2" d="M430.13,77.52a19.05,19.05,0,0,1,.12,3.29,1.41,1.41,0,0,1-.12.59,1.47,1.47,0,0,1-.47.47c-.84.61-1.66,1.3-2.54,1.83.43-.94,1-1.82,1.51-2.76S430.13,78.51,430.13,77.52Z"/><path class="cls-2" d="M417.22,72.68a6.32,6.32,0,0,1,2.36-.34,1,1,0,0,1-.28,1.21c-.09.07-.21.14-.23.26s.3.36.54.31a1.68,1.68,0,0,0,.72-.34.43.43,0,0,1-.12.65,2,2,0,0,0-.37.14c-.2.15-.1.51.13.62a.82.82,0,0,0,.72-.09.89.89,0,0,1,.4-.16.48.48,0,0,1,.43.39,1.12,1.12,0,0,1-.07.61,3.85,3.85,0,0,1-1.62,2,1.42,1.42,0,0,1-1,.26c-.83-.14-1-1.11-1.34-1.69s-.86-.66-1.28-1.09C415.31,74.48,416.1,73.15,417.22,72.68Z"/><path class="cls-2" d="M401.34,70a4.57,4.57,0,0,1,.25-3,.21.21,0,0,1,.06-.08c.09-.06.2,0,.26.12a2.93,2.93,0,0,1,.33,1.26,17.24,17.24,0,0,0,.29,1.71c0,.2.18.45.38.39s.16-.18.19-.3l.81-3.27c.06-.22.18-.5.41-.48s.26.19.32.35a4.25,4.25,0,0,1-.11,3.25c-.21.45-.49.86-.7,1.31a6.08,6.08,0,0,1-.63,1.32,1.22,1.22,0,0,1-.82.47c-.4,0-.4-.19-.46-.53C401.77,71.7,401.51,70.88,401.34,70Z"/><path class="cls-2" d="M329.75,49.33a2.23,2.23,0,0,1,.21.46l1.32,3.52a.48.48,0,0,0,.18.27c.25.14.48-.21.56-.49a12.1,12.1,0,0,1,1.28-2.87c.18-.29.53-.61.81-.41a.61.61,0,0,1,.19.38,14.55,14.55,0,0,1,.19,3.46,9.47,9.47,0,0,1-.3,2.55,2.61,2.61,0,0,1-4.13,1.34c-.62-.45-.74-1.51-.93-2.22a26.11,26.11,0,0,1-.86-6.42,1.69,1.69,0,0,1,1.37.3Z"/><path class="cls-2" d="M344.14,54.75a2.61,2.61,0,0,1,.16.46l1,3.52a.5.5,0,0,0,.14.27c.19.14.36-.21.43-.49a14.29,14.29,0,0,1,1-2.87c.14-.29.41-.61.61-.41a.7.7,0,0,1,.14.38,19.13,19.13,0,0,1,.14,3.46,12.36,12.36,0,0,1-.23,2.55c-.41,1.75-1.92,2.49-3.13,1.34-.47-.45-.56-1.51-.7-2.22a34,34,0,0,1-.65-6.42,1.05,1.05,0,0,1,1,.3Z"/><path class="cls-2" d="M356,59.15a2.2,2.2,0,0,1,.11.35l.69,2.72a.41.41,0,0,0,.09.21c.13.11.25-.16.29-.38a12.09,12.09,0,0,1,.66-2.22c.09-.23.28-.47.42-.31a.59.59,0,0,1,.1.29,16.74,16.74,0,0,1,.1,2.67,10.79,10.79,0,0,1-.15,2c-.28,1.36-1.31,1.92-2.14,1a3.94,3.94,0,0,1-.48-1.72,29.68,29.68,0,0,1-.44-5,.66.66,0,0,1,.71.23Z"/><path class="cls-2" d="M366.87,61a2.2,2.2,0,0,1,.11.35l.69,2.72a.41.41,0,0,0,.09.21c.13.11.25-.16.29-.38a12.09,12.09,0,0,1,.66-2.22c.09-.23.28-.47.42-.31a.59.59,0,0,1,.1.29,16.74,16.74,0,0,1,.1,2.67,10.79,10.79,0,0,1-.15,2c-.28,1.36-1.31,1.92-2.14,1a3.94,3.94,0,0,1-.48-1.72,29.68,29.68,0,0,1-.44-5,.66.66,0,0,1,.71.23Z"/><path class="cls-2" d="M376.74,64.49c.34,0,.61.53.94.4a.56.56,0,0,0,.27-.35l.31-.76a.92.92,0,0,1,.47-.59.21.21,0,0,1,.23,0c.12.16.06.5.12.69a3.87,3.87,0,0,1,.15.5,11.71,11.71,0,0,1,0,1.72,10.79,10.79,0,0,1-.15,2c-.28,1.36-1.31,1.92-2.14,1a3.94,3.94,0,0,1-.48-1.72,7.79,7.79,0,0,1-.17-2.35c0-.25.13-.56.38-.6Z"/><path class="cls-2" d="M389.92,65l-.07.29a1.45,1.45,0,0,0-.05.57.53.53,0,0,0,.33.43.61.61,0,0,0,.56-.19c.15-.14.27-.32.43-.44a2,2,0,0,1,1.18-.3,1.22,1.22,0,0,1,.48,0,.42.42,0,0,1,.29.36c0,.2-.19.35-.38.42a1.73,1.73,0,0,0-.55.24c-.43.38-.26,1.55-.37,2.1-.28,1.36-1.31,1.92-2.14,1-.66-.71-.88-2.52-1-3.43a4,4,0,0,1,.06-1.88A1.67,1.67,0,0,1,390,63,3.7,3.7,0,0,1,389.92,65Z"/><path class="cls-3" d="M298.25,87c.35,2.51,18.7,10.86,18.6,6C316.62,82.68,296.93,77.66,298.25,87Z"/><path class="cls-4" d="M300.25,89a41.68,41.68,0,0,0,8.68,4.2,16,16,0,0,0-2.69-3.46c-2.57-2.57-5.36-4-6.21-3.11C299.62,87.06,299.73,87.93,300.25,89Z"/><path class="cls-5" d="M401.75,99.3s-5.84-1.26-6,.18C395.37,104.35,404.13,102.18,401.75,99.3Z"/><path class="cls-5" d="M327,94.16c-.17.7-2.75.82-3.21.63-1.14-.47-3.18,0-3.19-2C320.56,92.64,327.84,90.63,327,94.16Z"/><path class="cls-5" d="M330.08,95.06c1.19,0,3.17.57,4-.35.37-.4.29-1.34,0-2.22C328.92,90.69,326,95.22,330.08,95.06Z"/><path class="cls-5" d="M337.33,94.89A8.17,8.17,0,0,1,340.74,96c2.78,2.19-.28,4.77-2.39,3-.91-.76,0,.79-1.43-1.28-.23-.33-.61-.18-1.5-1.13-.47-.51-.68-1.54-.18-2C335.3,94.57,335.61,93.32,337.33,94.89Z"/><path class="cls-5" d="M359.82,99.89c.06-.07,9.25-2.34,9.63-.27C370.74,106.61,356.35,104.27,359.82,99.89Z"/><path class="cls-5" d="M373.24,99.27c.05-.07,8-2.35,8.38-.27C382.73,106,370.22,103.67,373.24,99.27Z"/><path class="cls-5" d="M392.84,99c-.06-.07-8.8-1.67-9,.24C383.24,105.71,396.43,102.82,392.84,99Z"/><path class="cls-3" d="M371.87,67.25c.61.22,1.27,1.16,1.4,3.17.42,6.81,1,25.43-.34,27.91-.64,1.18-11.53,5-16.07,1.46-1.27-1,4.07-28,4-32.16,0-1,.72-1.57,1.81-1.78s2.77.75,4.22,1C369.22,67.21,371.25,67,371.87,67.25Z"/><path class="cls-3" d="M349.56,65.74c3.51-1.85,7.57-1.93,12,.58.61.35-.63,1.26-.5,3.34.46,7.05-2.67,27.55-4.17,30.12-.71,1.22-7.31,2.18-13.09-.64-3.69-1.79,5.13-24.86,5.09-31.94A1.54,1.54,0,0,1,349.56,65.74Z"/><path class="cls-6" d="M356.24,64.48c-2.49.26-4.55-.78-7.1,17.44-2,14.22-7.79,16.37-1.06,18.68a18.06,18.06,0,0,1-4.3-1.44c-3.69-1.79,5.13-24.86,5.09-31.94a1.54,1.54,0,0,1,.7-1.47A11.15,11.15,0,0,1,356.24,64.48Z"/><path class="cls-3" d="M382,67.93c.53.21,1.07,1.12,1.17,3,.35,6.54.86,24.42-.28,26.81-.54,1.13-7.4,4.82-11.21,1.42-.61-.55-.75-1.15-.74-2.68,0-6.4,1.1-22.06,1.07-27.63C372,65.68,380.75,67.43,382,67.93Z"/><path class="cls-6" d="M383.56,84.66a4.84,4.84,0,0,1-.75,0c-.43-2.85,1-14.24-1.09-16.06s-7-1.26-7.76,0c-1.13,1.86-3,24-.59,27.89.28.45,1.62,3.31,3.27,3.35a13.42,13.42,0,0,0,5.75-1.56c-1.71,1.42-7.4,3.89-10.74.9-.61-.55-.75-1.15-.74-2.68,0-6.4,1.1-22.06,1.07-27.63,0-3.2,8.76-1.45,10-.95.53.21,1.07,1.12,1.17,3C383.32,74,383.51,79.44,383.56,84.66Z"/><path class="cls-3" d="M383.42,69.16a11.37,11.37,0,0,1,11,.39c.54.3,1.24,1,1.36,2.84.41,6.12,1.37,26.79-1.21,27.13a33.51,33.51,0,0,1-12.13-.71c-.85-.18-.87-1.07-.86-2.51,0-6,1.28-20.65,1.24-25.86A1.33,1.33,0,0,1,383.42,69.16Z"/><path class="cls-7" d="M387.13,68a11.55,11.55,0,0,1,6,.91c.11,1.08,1.07,1.74-.42,3.94s-2.66-3.09-5.47-2.27C386.93,70.72,386.91,69.43,387.13,68Z"/><path class="cls-6" d="M383.42,69.16a10.93,10.93,0,0,1,2.94-1c-1,.73-2.1,2-2.25,4.87-.72,13.35-4,20.15,1.07,24.7,1.46,1.3,3.64,1,6.88,2.05a36.85,36.85,0,0,1-9.64-.94c-.85-.18-.87-1.07-.86-2.51,0-6,1.28-20.65,1.24-25.86A1.33,1.33,0,0,1,383.42,69.16Z"/><path class="cls-3" d="M410.67,76c.79,5.71-4.77,21.19-6.25,23.29-.7,1-3.89,1.39-8.82.29-2.85-.63,1-23.73-.56-28.73-.15-.47.42-1,1-1,1.28-.09,3.65.89,6.22,1.49,1.76.41,3.48.08,5,.89C409.09,73.16,410.46,74.44,410.67,76Z"/><path class="cls-6" d="M405.35,97.43a12.18,12.18,0,0,1-.93,1.82c-.7,1-3.89,1.39-8.82.29-2.85-.63,1-23.73-.56-28.73-.15-.47.42-1,1-1,1.28-.09,3.65.89,6.22,1.49l.19,0c-2.63-.18-4.61-1.48-5.47,2.27-1.54,6.71-1.17,12.48-1.68,18.32-.31,3.55-1.06,6.07,3.89,7.22a13.45,13.45,0,0,0,4,.31c1.14-.12,1-2.92,1.69-4A17,17,0,0,1,405.35,97.43Z"/><path class="cls-3" d="M409.09,73.18c3.22-1.57,15.34,5.1,15.67,9.77.37,5.28-6.53,13.27-7.75,15.2-.58.91-6.61,2.09-12.59,1.1-.77-.13,4.14-19.93,4.1-25A1.13,1.13,0,0,1,409.09,73.18Z"/><path class="cls-7" d="M414.48,74a26.9,26.9,0,0,1,7.24,4.41,9,9,0,0,0-1.24,1.52c-2,3-.07-2.65-6.93-3.3C412.09,76.46,412.59,75,414.48,74Z"/><path class="cls-6" d="M421.76,78.42c1.7,1.5,2.9,3.11,3,4.53.37,5.28-6.53,13.27-7.75,15.2-.31.5-2.23,1.07-4.88,1.33a3.26,3.26,0,0,1,2.66-1.1c2.28-.24,3.77-4.57,5.53-8.31,1.3-2.75,2.94-5,3-5.95C423.64,80.45,422.66,80,421.76,78.42Z"/><path class="cls-3" d="M350.65,65.23c2.1,3.12-5.79,29.08-7.71,32.37-.23.39-1.06,1.3-1.6.68-1.76-2-1.48-2.86-4.89-2.86a2.68,2.68,0,0,1-2.3-2.78c0-4-4-14.17-2.61-21.21,1-5.09,5.52-8,5.5-10.48C337,57.3,349.73,63.85,350.65,65.23Z"/><path class="cls-6" d="M343.29,96.91c-.13.29-.25.52-.34.69-.23.39-1.06,1.3-1.6.68-1.3-1.47-1.49-2.32-2.87-2.67h0c.73.07.6-.2,2.43,1.29.52.42,1.27,1.43,1.83.68Z"/><path class="cls-6" d="M345.21,62c-3.54-.59-7.18-1.72-7,2.59s-3.06,23.63-2.6,29.56c.08,1.09.91,1.21,1.39,1.31h-.5a2.68,2.68,0,0,1-2.3-2.78c0-4-4-14.17-2.61-21.21,1-5.09,5.52-8,5.5-10.48,0-2.09,4.13-.85,7.86.86l.31.14Z"/><path class="cls-3" d="M324.92,56.9a10.71,10.71,0,0,1,6.41-.45c4.79,1.2,8.83,2.31,6.62,4.87-2.82,3.28-1.65,32.26-4,32.48-1.07.1-2.13-.22-2.87-.11-1.33.18-2,.77-2.55.76-.92,0-1.72-.77-1.79-2.27-.25-5.7-5.49-26.79-5.52-32.8C321.23,58.66,324.48,57.12,324.92,56.9Z"/><path class="cls-7" d="M327.83,56.21a11.06,11.06,0,0,1,3.5.24,36.61,36.61,0,0,1,5.2,1.56c-4.65,6.31-8.7-1.08-8.7-1.24S327.83,56.39,327.83,56.21Z"/><path class="cls-6" d="M324.92,56.9a5.78,5.78,0,0,1,1.39-.47c-3.28,2.87-2.88,7.12-1.87,11.48s3.11,24.12,4.46,25.25c.64.54,1.37.32,2.44.21s1.52.48,3.2-.65q0,.15,0,.29c-.16.49-.35.77-.57.79-1.07.1-2.13-.22-2.87-.11-1.33.18-2,.77-2.55.76-.92,0-1.72-.77-1.79-2.27-.25-5.7-5.49-26.79-5.52-32.8C321.23,58.66,324.48,57.12,324.92,56.9Z"/><path class="cls-3" d="M305.74,73.07c3.51-1.85,10.43-17.32,14.83-14.81a3.58,3.58,0,0,1,2.06,3.14c.46,7.05,6.12,29.62,4.62,32.19-.07.11-1.7-.51-3.9-.7-1-.09-2.12.73-3.26.31s-1.32-1.87-2.77-3.41C312,84.13,304.8,73.54,305.74,73.07Z"/><path class="cls-6" d="M314.41,61.92c-1.1,1.71-3.47,5.63-4,6.45-.86,1.38-.59,5.71,1.24,9.37,2,4,5.27,8.14,5.61,10.56.16,1.2,1,1.75,1.56,3.65a11.28,11.28,0,0,0-1.51-2.17C312,84.13,304.8,73.54,305.74,73.07,307.83,72,311.14,66,314.41,61.92Z"/><path class="cls-3" d="M309.09,71.58c1.37,6.93,8.41,14.58,7.26,17.33-.55,1.3-7.34.63-11.12-3-.72-.69-5.65-4.17-4.88-5.64C305.66,70.23,309.08,71.51,309.09,71.58Z"/><path class="cls-6" d="M316.26,87a2.9,2.9,0,0,1,.1,1.94c-.55,1.3-7.34.63-11.12-3-.72-.69-5.65-4.17-4.88-5.64q.36-.68.7-1.28c.08,5.91,12.24,12.21,14.54,9.9A3.18,3.18,0,0,0,316.26,87Z"/><path class="cls-8" d="M301.32,78.5a23.11,23.11,0,0,1,4-5.29c1.8,3.67,4.58,8.87,1.75,9.13-.64.06-1.33-2.17-4.46-2.91A2.31,2.31,0,0,1,301.32,78.5Z"/><path class="cls-3" d="M426,82.18c2.13.77,5.65,2.22,5.11,5.19-.37,2-4.48,7.55-9.49,10.49-2.17,1.27-4.43,1.41-4.8.52-.48-1.15,6.65-11.12,7.4-15.27C424.4,81.86,424.92,81.8,426,82.18Z"/><path class="cls-6" d="M428.13,83.09c1.72.88,3.32,2.21,2.94,4.27s-4.48,7.55-9.49,10.49c-2.17,1.27-4.43,1.41-4.8.52-.11-.25.16-.93.64-1.88.45,1.51,2.05,2,2.64,1.34,1.13-1.28,2.3-3.57,4.17-5.1a65,65,0,0,0,5.4-6.36C430.62,84.83,429.91,84.43,428.13,83.09Z"/><path class="cls-3" d="M423.22,98.77c-1,1.12-3.06,0-2.22-1.23,2-2.94,7.14-8.05,9-10.3,1.07-1.32,1.43.15,1.82,1.39.67,2.14,2.19,4,0,6C430.31,96,425,96.92,423.22,98.77Z"/><path class="cls-6" d="M423.22,98.77c-1,1.12-3.06,0-2.22-1.23l.43-.6c0,.14.12.51.13.55.17,1.35,1.12,1.32,1.72.56,3.82-4.79,10.86-2.06,8.7-8.86.72,1.91,1.8,3.64-.2,5.43C430.31,96,425,96.92,423.22,98.77Z"/><path class="cls-6" d="M413.94,73.76c-1.14.59-3.82-1.06-4.15.79-3.86,21.93-8.94,22.78,6.3,23.93a.45.45,0,0,1,.24.12c-1.84.79-6.89,1.48-11.91.65-.77-.13,4.14-19.93,4.1-25a1.13,1.13,0,0,1,.57-1.1C410.07,72.71,411.89,73,413.94,73.76Z"/><path class="cls-6" d="M322.48,92.59c1.43-.34,3.7.08,4.17-.35a3.26,3.26,0,0,0,.78-1.86,7,7,0,0,1-.18,3.21c-.07.11-1.7-.51-3.9-.7-1-.09-2.12.73-3.26.31-.95-.35-1.22-1.3-2-2.44l0-.09C319.48,91.7,319.64,93.26,322.48,92.59Z"/><path class="cls-7" d="M403.39,81.09c-.48,2.45-1.06.82-1.56,4.87,0,.17-1.91,3.89-1.91-1.44,0-2.7-.14-2.86,2.12-4.24C402.39,80.06,403.61,79.95,403.39,81.09Z"/><path class="cls-7" d="M390.11,79.78c-.32-1.06-2.7-.68-2.7.69,0,3.66-.93,4.91,2.67,4.46C391.6,84.74,390.43,80.84,390.11,79.78Z"/><path class="cls-7" d="M378.28,78.61c1.36,2.71-.14,2.37-.61,6.44-.15,1.25-1.57.17-1.44-2.62,0-.63-1.86-4.31,1.63-4.12A.73.73,0,0,1,378.28,78.61Z"/><path class="cls-7" d="M367.51,78.23c-.27,1.9.34.61-.43,2.5,0,0-.2,4.06-1.21,2.82-.54-.67.17-2.73-.4-4.33C364.76,77.21,367,76.27,367.51,78.23Z"/><path class="cls-7" d="M356.5,79.06c0,.69-1.56,4.22-1.71,6.06-.22,2.61-3.92.4-1.32-5.67.32-.74-.74-2.77,1.9-2.51C356,77,356.55,78.41,356.5,79.06Z"/><path class="cls-7" d="M342.34,81.67c-1.51.39-.94-1.63-1.18-3.89-.59-5.63,1.82-2.05,3.46-2.52C346.82,74.63,344.95,81,342.34,81.67Z"/><path class="cls-7" d="M330.7,67.81a5.52,5.52,0,0,0-1.72.32c-.48.1.81,2.51.81,5.11,0,1.33-.18,8,1.87,4.77.57-.89-1.16-4.11.37-7.16C332.85,69.17,331.93,67.9,330.7,67.81Z"/><path class="cls-7" d="M317.66,71c-2,2.26-.46,2.77.83,5.44.1.21,2.72,2.75,1-1.77C318.29,71.35,320,70.15,317.66,71Z"/><path class="cls-7" d="M414.11,83.42c5.11.07-.41,6.4-1.18,5.72-.11-.1-.38-2.69-.83-3.82C411.31,83.32,412.93,83.3,414.11,83.42Z"/><path class="cls-7" d="M423.5,91.14c-.29.57-1.3,2.24-1.3.59,0-.95.89-1.22,1-2.87,0-.2.78-1.74,1.59-.54C425.31,89.11,423.84,90.46,423.5,91.14Z"/><path class="cls-7" d="M426.69,93.23c.35-.91,1-1.11,1.45-1C429.59,92.55,426,95.06,426.69,93.23Z"/><path class="cls-5" d="M428.67,91.72c.18-.14.77-.67.69-.05,0,.32.45.93-.3.82C429,92.47,428.37,92,428.67,91.72Z"/><path class="cls-5" d="M424.2,86.53c.24-.35,1,.14,1.29.38.93.89-.08,1.17-.17.92-.22-.59-1.05-.63-1.17-.9A.87.87,0,0,1,424.2,86.53Z"/><path class="cls-5" d="M418.68,81.82c-.74,0-1.63-2.58-4.67-1.84-2,.47-4-2-.08-1.91C416.11,78.13,418.68,79.39,418.68,81.82Z"/><path class="cls-5" d="M404.31,77.3c-1.54-.77-3.14.6-3.55.88-.66.45-2-.14-1.06-1.16.47-.53-1.25-2.2,2-1.77a4.2,4.2,0,0,0,2.07.65C404.25,75.94,405,77.65,404.31,77.3Z"/><path class="cls-5" d="M387.36,75.42c-.55.37-.91.18-.76-1,.06-.48,1.45-3.1,2.89-1.5C394,77.92,389.28,74.12,387.36,75.42Z"/><path class="cls-5" d="M378.82,74.15c-2.07-.42-4.34,1.25-3.44-.41.17-.32.94-.55,1.44-1.09C378,71.4,380.89,74.57,378.82,74.15Z"/><path class="cls-5" d="M368.56,71.78c.25.74-.16,1.25-1,.74-1.6-1-3.69.93-3.1-.46S367.73,69.36,368.56,71.78Z"/><path class="cls-5" d="M357.84,71.54c.25.44,1.73-.67.08-2.32-.16-.16-1,.34-2.31-.42s-2,1-2.33,1.85C352.68,72.35,356.53,69.22,357.84,71.54Z"/><path class="cls-5" d="M347.45,69.16c-.26.57.83,1.37-.33,1.95-.23.11-.92-.32-1.31-.17-.77.28-3.09-.15-5-1.71-.39-.32-1.06-.76-.09-1.76s4.56.61,5.94.73C347.1,68.22,347.73,68.55,347.45,69.16Z"/><path class="cls-5" d="M334.29,65c-.3.78-1,.38-1.9-.06a7.55,7.55,0,0,0-3.86-.34c-1.06.16-1.6,1-1.76,0-.75-4.64,2.35-3.88,6.83-2C334.06,62.77,334.47,64.54,334.29,65Z"/><path class="cls-5" d="M318.91,67.41c-.54.24-1.28.31-1.83.55-.71.31-1.16.67-1.12-.29a4.32,4.32,0,0,1,.6-2.41C317.62,63.8,320,66.93,318.91,67.41Z"/><path class="cls-5" d="M410.78,90.05c0,.26.85,2.15.8,3.34,0,.14.85,1-.47.83-.73-.07-.08-1.75-1.1-2.66-.27-.24-.72-2.31-.32-2.3C411,89.28,410.81,89.86,410.78,90.05Z"/><path class="cls-5" d="M399.11,91s-1,.83.69.9.66.85,2.16-.8c.1-.11.54-1.33.23-1.59C401.71,89.1,400.92,91.28,399.11,91Z"/><path class="cls-5" d="M421.71,92.25c.73,1.72-.21.23-.32,1.66,0,0-.82.37-.38-.3C421.09,93.5,421.52,91.8,421.71,92.25Z"/><path class="cls-5" d="M426,93.75c.69,1-.66,1.41-.65,1C425.39,94.16,425.89,93.58,426,93.75Z"/><path class="cls-5" d="M391.32,91.71c-.1.39-1.17,1.49-1.91.17-.39-.69-1.32-.19-2.52-.76-1.35-.64-1.93-2.78.67-2.25C392.33,89.84,392.66,86.59,391.32,91.71Z"/><path class="cls-9" d="M376.21,89.54c-.34-.29-2.38-1.47-.37,1.37.38.54,1,2.92,1.21,2.67.7-1.07-.27-1.17,1-2.34,0,0,.56-1.49,0-1.49A1.49,1.49,0,0,1,376.21,89.54Z"/><path class="cls-5" d="M366.78,88c-1.13,1.35-2.18,0-2.4,2.36,0,.12-.6,1.58-.23,1.71.09.3,2.19-2.11,2.28-2.47S367.73,88.17,366.78,88Z"/><path class="cls-5" d="M350.89,90.27c.33,2.28,4.71.43,1.71,4-.58.7-1.54-2.17-2.07-3C349.43,89.7,350.73,89.17,350.89,90.27Z"/><path class="cls-5" d="M342.48,86.17c1.47-.31-1.5,4.63-4.11,1.11-.44-.59-.13-2.5.42-1.75S340.27,86.64,342.48,86.17Z"/><path class="cls-5" d="M329.18,80.92c1.84,3.27,3.58-.83,2.95,1.87-.1.45-1.27,1.14-1.27,2.52s-.45-2-1.3-2.24C328.37,82.78,328.57,79.84,329.18,80.92Z"/><path class="cls-9" d="M318.53,80c1.21.82,2.36.67,2.83,1.29s.93,3.27-1.36,1.91c-1-.59-2.51-3-2.32-3.54C317.81,79.33,318.07,79.68,318.53,80Z"/><path class="cls-10" d="M410,92.93a9.38,9.38,0,0,1,.1,1.87c-.9,0-.52-1-.75-1.89-.14-.5.58-.37.59-.13Z"/><path class="cls-10" d="M399.31,92.45c.64.21,2,0,.87,1.25C399.8,94.13,398.12,92.06,399.31,92.45Z"/><path class="cls-10" d="M425,95c0,.52,0,.17-.39.52-.19.15-.21-.37.06-.57C424.63,95,425,94.46,425,95Z"/><path class="cls-10" d="M388.5,92.25c.53.83,2.22,1.23-.49,1.34C387.3,93.61,386.19,92.25,388.5,92.25Z"/><path class="cls-10" d="M375.38,92.42c.15.59,1.1,2,.1,1.59,0,0-1.71-2.22-.13-1.77Z"/><path class="cls-10" d="M365.63,92.1c-.39.78-2,.91-1,2.13,0,0,.26.91.89.09,0,0,.77-2.35.5-2.38A.38.38,0,0,0,365.63,92.1Z"/><path class="cls-10" d="M350.31,93.32c.06.05,2.64,4.51-.41.9C349.56,93.83,349.17,92.31,350.31,93.32Z"/><path class="cls-10" d="M338.85,88.74c.24,1,2,.51,1.37,1.45,0,0-1.74.73-1.67-.65,0,0-.62-1.28.25-1C338.82,88.63,338.84,88.66,338.85,88.74Z"/><path class="cls-10" d="M329.87,85.21c.18.38,1.57,2,.33,2C329.6,87.14,329.41,84.24,329.87,85.21Z"/><path class="cls-10" d="M320.13,84.46c1.32.78.27.36.78,1.06.12.16.39.14.29.57-.2,0-.63-.47-1-.66C319.4,85.1,319.91,84.33,320.13,84.46Z"/><path class="cls-10" d="M420.59,94.17c.14.49-.11.45-.26.87-.24.67-.05-.15-.07-.2-.08-.26-.19-.53.13-.72A.13.13,0,0,1,420.59,94.17Z"/><path class="cls-7" d="M432.39,90.22c-1.51,1.64-3.59,2.87-2.28-.65a2.52,2.52,0,0,1,1.51-1.48l.17.53C432,89.18,432.18,89.71,432.39,90.22Z"/><path class="cls-7" d="M432.39,90.22l-.11.12A9.88,9.88,0,0,0,432,89.2l.07.18h0l.06.17h0l.17.43h0v0l.06.15v0Z"/><path class="cls-3" d="M429.5,94.89c-1,.27-9.16,4-3.84,3.82,2-.07,5.06.65,6.1-1.1C433.87,94,432.62,94.09,429.5,94.89Z"/><path class="cls-7" d="M375.72,67a23,23,0,0,1,4.09.4,12.79,12.79,0,0,0-.13,2c0,2.08.43,2.18-1.81,2-.56,0-.11-.78-1.46,0C376.14,71.54,375.78,69.09,375.72,67Z"/><path class="cls-7" d="M399.57,70.54c.84.25,1.76.52,2.69.74,1.35.32,2.68.19,3.91.49a3.73,3.73,0,0,1-1.6,2.46c-2.6,1.73-.95-.22-4.64-.06C399.2,74.19,399.51,72.23,399.57,70.54Z"/><path class="cls-7" d="M399.57,70.54h.28l.08,0h.24l.11,0h0l.08,0h0l.07,0h.08l.07,0h1.3l.08,0h.18l.09,0h.19c-1.09-.08-2.07-.34-2.9-.36C399.56,70.82,399.57,70.68,399.57,70.54Z"/><path class="cls-6" d="M369,67.06c-3.74.34-5.3-2-6.55,2.82-2.35,9.13-3.43,25-.53,29.45,1.38,2.1,8.63.28,8.75.27-3.58,1.39-10.44,2.82-13.8.19-1.27-1,4.07-28,4-32.16,0-1,.72-1.57,1.81-1.78s2.77.75,4.22,1A20.05,20.05,0,0,0,369,67.06Z"/><path class="cls-7" d="M354.68,64.39a12.16,12.16,0,0,1,4.56.84c-.68,2.25-1.25,4.38-4,2.09C354.62,66.81,354.57,65.61,354.68,64.39Z"/><path class="cls-7" d="M342.06,60.66a40.58,40.58,0,0,1,6.57,3.1,7.27,7.27,0,0,1-2.4,2.15c-1.06.47-1.52,1.43-3.67.27C341.28,65.49,341.75,62.51,342.06,60.66Z"/><path class="cls-7" d="M342.06,60.66c.57.2,1.15.43,1.74.68h0l.44.19.11,0,.09,0,0,0,.09,0,.11,0,0,0,.07,0,0,0,.07,0,.3.14h0c-1.12-.19-2.25-.43-3.27-.53C342,61.16,342,60.9,342.06,60.66Z"/><path class="cls-7" d="M313.29,63.39A23,23,0,0,1,317.23,59c1,2,2.22,2.47-2.2,5.31C314.16,64.85,313.71,64.33,313.29,63.39Z"/><path class="cls-7" d="M366,66.6a7.32,7.32,0,0,0,1,.24,22.69,22.69,0,0,0,2.83.25c-.17,1.41-.76,3.16-2.09,2.26-1-.66-3.37,1.83-2-2.18A2.94,2.94,0,0,1,366,66.6Z"/><path class="cls-7" d="M356.24,64.48a9,9,0,0,0-1.58.2q0-.14,0-.28A11.19,11.19,0,0,1,356.24,64.48Z"/><path class="cls-11" d="M314.41,61.92c-.28.43-.64,1-1,1.64l-.08-.18.5-.67h0l.13-.18,0,0,.11-.14.05-.07.1-.13,0-.05.1-.13Z"/><path class="cls-7" d="M379.77,67.68a9,9,0,0,0-4,0c0-.23,0-.45,0-.67h2l.32,0h1.07l.13,0h.36l.11,0h.06C379.8,67.49,379.79,67.58,379.77,67.68Z"/><path class="cls-7" d="M427,82.57a12.68,12.68,0,0,1,2,1,19,19,0,0,0-2.19,2.56c-.91,1.58-3.6,0,.13-3.51Z"/><path class="cls-7" d="M429,83.58l-.08.1-.77-.58C428.42,83.24,428.7,83.4,429,83.58Z"/><path class="cls-5" d="M333.31,101.61c.55-1.33.84-4.08,3.91-5.47,2.66-1.2,2.14,1.28.05,3.32a7.87,7.87,0,0,1-3,1.51C333.92,101.09,332.76,102.94,333.31,101.61Z"/><path class="cls-12" d="M333.31,101.61c0-.12.09-.24.14-.38l.05,0a1.21,1.21,0,0,1,.3.16C333.38,101.91,332.92,102.55,333.31,101.61Z"/><path class="cls-5" d="M330.6,97.88s-.37,4.65-.87,2.18c-.25-1.24.06-1.46-.14-3.95C329.37,93.43,334.58,91.55,330.6,97.88Z"/><path class="cls-12" d="M330.39,99.67c-.16,1-.39,1.73-.66.39,0-.12,0-.24-.06-.35a.91.91,0,0,1,.72,0Z"/><path class="cls-5" d="M325.34,95.68c.16.64-.23,1-.22,1.59,0,1.36.34,2.57,0,2a12.21,12.21,0,0,1-1.86-5C324.43,93.45,324.42,92,325.34,95.68Z"/><path class="cls-12" d="M325.24,98.8c.06.53.08.78-.1.43L325,98.9l.17-.06Z"/><path class="cls-7" d="M369,67.06a12.61,12.61,0,0,1-3.18-.21l.15-.25h3Z"/><path class="cls-10" d="M309.27,82.67c.51.45,1.92,1.55.33,1.88-1.19.24-.59-.95-1.13-1.83-.31-.5.36-.81.7-.11Z"/></g></g></svg>