<svg id="Layer_1" data-name="Layer 1" xmlns="http://www.w3.org/2000/svg" xmlns:xlink="http://www.w3.org/1999/xlink" viewBox="0 0 678.23 183.4"><defs><style>.cls-1{fill:#816d55;}.cls-1,.cls-10,.cls-11,.cls-12,.cls-13,.cls-14,.cls-15,.cls-16,.cls-17,.cls-18,.cls-19,.cls-2,.cls-21,.cls-22,.cls-23,.cls-24,.cls-25,.cls-26,.cls-27,.cls-28,.cls-29,.cls-3,.cls-30,.cls-31,.cls-32,.cls-33,.cls-34,.cls-35,.cls-36,.cls-37,.cls-38,.cls-39,.cls-4,.cls-40,.cls-41,.cls-42,.cls-43,.cls-44,.cls-45,.cls-46,.cls-47,.cls-5,.cls-6,.cls-7,.cls-8,.cls-9{fill-rule:evenodd;}.cls-2{fill:url(#linear-gradient);}.cls-3{fill:url(#linear-gradient-2);}.cls-4{fill:url(#linear-gradient-3);}.cls-5{fill:url(#linear-gradient-4);}.cls-6{fill:url(#linear-gradient-5);}.cls-7{fill:url(#linear-gradient-6);}.cls-8{fill:url(#linear-gradient-7);}.cls-9{fill:url(#linear-gradient-8);}.cls-10{fill:url(#linear-gradient-9);}.cls-11{fill:url(#linear-gradient-10);}.cls-12{fill:url(#linear-gradient-11);}.cls-13{fill:url(#linear-gradient-12);}.cls-14{fill:url(#linear-gradient-13);}.cls-15{fill:url(#linear-gradient-14);}.cls-16{fill:url(#linear-gradient-15);}.cls-17{fill:#76ab20;}.cls-18{fill:#a7d75b;}.cls-19{fill:#5a8710;}.cls-20,.cls-28{fill:orange;}.cls-21{fill:#39f;}.cls-22{fill:#090052;}.cls-23,.cls-26,.cls-27{fill:#0d0072;}.cls-24{fill:#4026d3;}.cls-25{fill:#ffed17;}.cls-26,.cls-27{stroke:#0d0072;stroke-miterlimit:22.93;}.cls-26{stroke-width:1.42px;}.cls-27{stroke-width:0.57px;}.cls-29{fill:#d10072;}.cls-30{fill:#5a00bf;}.cls-31{fill:url(#linear-gradient-16);}.cls-32{fill:url(#linear-gradient-17);}.cls-33{fill:url(#linear-gradient-18);}.cls-34{fill:url(#linear-gradient-19);}.cls-35{fill:url(#linear-gradient-20);}.cls-36{fill:url(#linear-gradient-21);}.cls-37{fill:url(#linear-gradient-22);}.cls-38{fill:url(#linear-gradient-23);}.cls-39{fill:url(#linear-gradient-24);}.cls-40{fill:url(#linear-gradient-25);}.cls-41{fill:url(#linear-gradient-26);}.cls-42{fill:url(#linear-gradient-27);}.cls-43{fill:url(#linear-gradient-28);}.cls-44{fill:url(#linear-gradient-29);}.cls-45{fill:url(#linear-gradient-30);}.cls-46{fill:url(#linear-gradient-31);}.cls-47{fill:url(#linear-gradient-32);}</style><linearGradient id="linear-gradient" x1="427.44" y1="136.94" x2="821.81" y2="136.94" gradientTransform="translate(-153.63 36.3) rotate(-3.81)" gradientUnits="userSpaceOnUse"><stop offset="0" stop-color="#65653a"/><stop offset="1" stop-color="#3d3a2c"/></linearGradient><linearGradient id="linear-gradient-2" x1="427.44" y1="136.53" x2="821.81" y2="136.53" xlink:href="#linear-gradient"/><linearGradient id="linear-gradient-3" x1="427.44" y1="142.23" x2="821.81" y2="142.23" xlink:href="#linear-gradient"/><linearGradient id="linear-gradient-4" x1="427.44" y1="149.29" x2="821.81" y2="149.29" xlink:href="#linear-gradient"/><linearGradient id="linear-gradient-5" x1="427.44" y1="145.95" x2="821.81" y2="145.95" xlink:href="#linear-gradient"/><linearGradient id="linear-gradient-6" x1="427.44" y1="134.73" x2="821.81" y2="134.73" xlink:href="#linear-gradient"/><linearGradient id="linear-gradient-7" x1="427.44" y1="154.94" x2="821.81" y2="154.94" xlink:href="#linear-gradient"/><linearGradient id="linear-gradient-8" x1="427.44" y1="120.87" x2="821.81" y2="120.87" xlink:href="#linear-gradient"/><linearGradient id="linear-gradient-9" x1="427.44" y1="163.76" x2="821.81" y2="163.76" xlink:href="#linear-gradient"/><linearGradient id="linear-gradient-10" x1="427.44" y1="154.74" x2="821.81" y2="154.74" xlink:href="#linear-gradient"/><linearGradient id="linear-gradient-11" x1="427.44" y1="173.92" x2="821.81" y2="173.92" xlink:href="#linear-gradient"/><linearGradient id="linear-gradient-12" x1="427.44" y1="141.7" x2="821.81" y2="141.7" xlink:href="#linear-gradient"/><linearGradient id="linear-gradient-13" x1="427.44" y1="89.79" x2="821.81" y2="89.79" xlink:href="#linear-gradient"/><linearGradient id="linear-gradient-14" x1="427.44" y1="124.34" x2="821.81" y2="124.34" xlink:href="#linear-gradient"/><linearGradient id="linear-gradient-15" x1="427.44" y1="144.03" x2="821.81" y2="144.03" xlink:href="#linear-gradient"/><linearGradient id="linear-gradient-16" x1="-206.04" y1="4599.24" x2="188.32" y2="4599.24" gradientTransform="matrix(1, 0.07, 0.07, -1, -153.63, 4662.1)" xlink:href="#linear-gradient"/><linearGradient id="linear-gradient-17" x1="-206.04" y1="4598.83" x2="188.32" y2="4598.83" gradientTransform="matrix(1, 0.07, 0.07, -1, -153.63, 4662.1)" xlink:href="#linear-gradient"/><linearGradient id="linear-gradient-18" x1="-206.04" y1="4604.53" x2="188.32" y2="4604.53" gradientTransform="matrix(1, 0.07, 0.07, -1, -153.63, 4662.1)" xlink:href="#linear-gradient"/><linearGradient id="linear-gradient-19" x1="-206.04" y1="4611.59" x2="188.32" y2="4611.59" gradientTransform="matrix(1, 0.07, 0.07, -1, -153.63, 4662.1)" xlink:href="#linear-gradient"/><linearGradient id="linear-gradient-20" x1="-206.04" y1="4608.25" x2="188.32" y2="4608.25" gradientTransform="matrix(1, 0.07, 0.07, -1, -153.63, 4662.1)" xlink:href="#linear-gradient"/><linearGradient id="linear-gradient-21" x1="-206.04" y1="4597.03" x2="188.32" y2="4597.03" gradientTransform="matrix(1, 0.07, 0.07, -1, -153.63, 4662.1)" xlink:href="#linear-gradient"/><linearGradient id="linear-gradient-22" x1="-206.04" y1="4617.24" x2="188.32" y2="4617.24" gradientTransform="matrix(1, 0.07, 0.07, -1, -153.63, 4662.1)" xlink:href="#linear-gradient"/><linearGradient id="linear-gradient-23" x1="-206.04" y1="4583.17" x2="188.32" y2="4583.17" gradientTransform="matrix(1, 0.07, 0.07, -1, -153.63, 4662.1)" xlink:href="#linear-gradient"/><linearGradient id="linear-gradient-24" x1="-206.04" y1="4626.06" x2="188.32" y2="4626.06" gradientTransform="matrix(1, 0.07, 0.07, -1, -153.63, 4662.1)" xlink:href="#linear-gradient"/><linearGradient id="linear-gradient-25" x1="-206.04" y1="4617.04" x2="188.32" y2="4617.04" gradientTransform="matrix(1, 0.07, 0.07, -1, -153.63, 4662.1)" xlink:href="#linear-gradient"/><linearGradient id="linear-gradient-26" x1="-206.04" y1="4636.9" x2="188.32" y2="4636.9" gradientTransform="matrix(1, 0.07, 0.07, -1, -153.63, 4662.1)" xlink:href="#linear-gradient"/><linearGradient id="linear-gradient-27" x1="-206.04" y1="4632.21" x2="188.32" y2="4632.21" gradientTransform="matrix(1, 0.07, 0.07, -1, -153.63, 4662.1)" xlink:href="#linear-gradient"/><linearGradient id="linear-gradient-28" x1="-206.04" y1="4615.59" x2="188.32" y2="4615.59" gradientTransform="matrix(1, 0.07, 0.07, -1, -153.63, 4662.1)" xlink:href="#linear-gradient"/><linearGradient id="linear-gradient-29" x1="-206.04" y1="4550.41" x2="188.32" y2="4550.41" gradientTransform="matrix(1, 0.07, 0.07, -1, -153.63, 4662.1)" xlink:href="#linear-gradient"/><linearGradient id="linear-gradient-30" x1="-206.04" y1="4586.64" x2="188.32" y2="4586.64" gradientTransform="matrix(1, 0.07, 0.07, -1, -153.63, 4662.1)" xlink:href="#linear-gradient"/><linearGradient id="linear-gradient-31" x1="-206.04" y1="4677.22" x2="188.32" y2="4677.22" gradientTransform="matrix(1, 0.07, 0.07, -1, -153.63, 4662.1)" xlink:href="#linear-gradient"/><linearGradient id="linear-gradient-32" x1="-206.04" y1="4606.33" x2="188.32" y2="4606.33" gradientTransform="matrix(1, 0.07, 0.07, -1, -153.63, 4662.1)" xlink:href="#linear-gradient"/></defs><title>caterpillar-above-below</title><path class="cls-1" d="M675.19,125c-6.45.44-8.25.24-14.84,1.44-6.9,1.27-14.95,6.64-20.91,6.06-8.56-.83-5.46-.58-3.84-5,1.89-5.2,7.29-12.15,8.46-15.31.09-.22.18-.48.3-.78l-7-1.81c-4,8.52-14.92,19.21-15.15,20.08-1.62,6.23-25.9,2.19-30.35,3.89a11.75,11.75,0,0,1-3.42.59c2.1-3,5.35-6.8,5.43-7.1,2.34-.51,7.28-20.2,4.88-24.25a1.86,1.86,0,0,1-.24-1.09c-.49-.12-.79-2.26-1.59-2.46a.1.1,0,0,0,0-.07l-12-3.1c.16.29.31.48.42.51a13.88,13.88,0,0,1,.63,1.54c2.28,5.65,2.67.79,4.45,7.3,3.24,2-1.52,17.91-5,20.8s-9.58,5.6-10.42,6.57a5.35,5.35,0,0,0-1,.29c-7.66-1.1-15.51-2.73-19.24-3.69-5.28-1.37-25.64-2.22-26.95-6.6-.2-.06-3.63.56-3.73.54-9.79-1.67-27.67-7.82-35.6-7.84-11.93,0-28.69-3.18-41.3-6-17.27-3.9-34.83-12.94-47.48-13.17L399,96c-2.05-1.54-14-3.56-14.08-3.6-3.23-2.36-15.18-2.27-15.8-2.72-3.2-2.29-8.94-4.37-15.09-6.24-.9,4.54-1.8,9.07-2.35,13.66a33,33,0,0,0,.75,12.54c2,.6,3.83,1.29,4.63,2.1,2.23,2.26,7.69,3.49,10.81,3.55,9.36.15,8.36,1.14,16.23,3.17,5.68,1.46,6.7,3.43,10.71,4.46,0,0,3.35,1.84,4,1.52,1.27-.59,5.86,0,7.57.29,3.72.61,16.77,3.83,18.78,3.83,8.88,0,22.06,5.4,25.71,5.41,2.79,0,12.06,2.17,15.58,2.61a18.69,18.69,0,0,0,2.83.19,155.18,155.18,0,0,1,19,3.72c4.89,1.26,8.48,1,12.3,2,5.2,1.35,10.92,1.22,14.47,2.19l7.22,1.2a55.55,55.55,0,0,1,8.49,1.65c6.15,1.59,10.42,1,15.15,2.2,7.2,1.85,11.17,2.12,16.76,6.88,0,.09,1.88,1,2.1,1.1,5.44,2.31,5.4,3.91,8.87,6.14.3.19,5.4,6.93,9.15,11.9,8.27,1,16,3.95,23.79,7.31l.84.37a29.07,29.07,0,0,1-3.62-6.55c-3.17-5.43-6-13.06-7.73-14.56-1.44-1.23-10.73-6.16-7.82-6.64.18-.27,1.27-.37,1.57-.28,2,.59,11.12-2,12.79-2.13,3-.26,9.56.35,10.6.2,3.59-.51,7.1.19,10.61,1.1a5.17,5.17,0,0,1,2.56,1.36,42.48,42.48,0,0,1,6.46.26,32.45,32.45,0,0,0,6.13.14c.06-2,1.44,0,4-.29,3.54-.42,10.25,2.54,13.84,2.75l1.75.45c3.83,1,5.38,1.5,6.22,2.28a22.87,22.87,0,0,0,3.19.24,6.85,6.85,0,0,0,.7-.05l3.53-13.74a53.48,53.48,0,0,0-7.87-1.66c-2.42.07-5.43-1.6-7.46-2.43-10.38-4.2.42-4.63,1-5.12,2.5-2,10.21-1.83,13.41-2.43a9.38,9.38,0,0,1,2-.44l2.15-.54,2.73-10.61C677.2,124.82,676.19,124.93,675.19,125Z"/><path class="cls-2" d="M524.09,131.66c-.66.09-1.5-.12-1.89,0-.62.24-4.3-.85-4.81-1.24-1.26-.95-1.11-1.31-3-1.79s-.84-.4-1.48-.9c-.21-.16-.19.14-.45-.29-.61-1-2.17-1.79-3.32-2.39a10,10,0,0,0-4.29-1.28c-1.25,0-2.52-1-3.74-.79a8.55,8.55,0,0,0-2.5-.3c-.18,0-2.49-.3-.4.24-.1.35,2,.57,1.08,1.13s-.39,0-.89.11c-.17,0-1.42.67-2,.51s-1,.42-2.09.14a4.07,4.07,0,0,1-1.57.11l-1.2,0c-.16.61-3-.08.32.76,1.65.44,0,.35,1.2.66.5.13-.14.13.6.33s0,.33,1.52.73a7.37,7.37,0,0,0,4,.35l1.44.38c1-.14-.4-.45,1.38,0,1.19.31,2.52.14,4.14.55s.09.71,1.44,1.06c.17.78.64.4,1.08,1.13.59,1,6.07,2.08,7.58,2.48,2,.51,1.77.6,3.86.31a2.7,2.7,0,0,0,1.36,0,12.6,12.6,0,0,1,2.38.1l6.74,1.73c.25-1-.75-.18-1-1.61-.08-.62-.57-.43-.27-1.61a6.44,6.44,0,0,1,.17-1.32,1.7,1.7,0,0,1,.37-.76l1.16-.56c-1.33-.35-9.34-2.5-10-2.4s-.65.15-.52.17.09,0,0,0h-.21c-.44,0-3,.29-2.38,1.27.44.75.6.31,1.32.85s-.27.27,1.2.65c1.17.3,2.24.4,3.57.75C525.23,131.27,525.5,131.46,524.09,131.66Z"/><path class="cls-3" d="M588.68,129.54c.38-.23.16-.51.92-1,.6-.36,1.69-1.62,2.26-1.47.1-.38,1.88-.71,2.22-.62a2.32,2.32,0,0,0,.38.07l-1.79-9.66c-1.08,4.35-2.58,10.18-3.09,10.49A8.89,8.89,0,0,0,587.8,129c-.32-.08-.27,1-.89.8C586.51,131.29,588.45,129.68,588.68,129.54Z"/><path class="cls-4" d="M583.9,128.82c.26.07,1-1.37,0-.52a11.87,11.87,0,0,0-1.57,1.48c-1.24-.32.55.66-.61.36-.12.44-1,.16-1.29.35-.55.33-1,.12-1.62-.06l3.25,1.18a5.86,5.86,0,0,0,.86-1.5C583,129.48,583.83,129.06,583.9,128.82Z"/><path class="cls-5" d="M566.52,140.44c1.22-.17,4,1,6,.52a13.35,13.35,0,0,1,4.25.76c.91.48-.24.28,1.53.73.61.16,2.57,0,2.7-.51l-.64-.16c-2.23-.57-.68-.69-1.81-1-.22-1-.43-.78,1.05-.75.39,0,1.24.51,1.32.17,3.32-.23,2.52-1.62,3.28-2.06s-.09-.71.48-.56a4.08,4.08,0,0,0,.57-.88c1.5-.32,3.19-2.26,3.48-2.19,0-.09.08-.26.15-.44l-6.89-2.5c-.67.91-1.55,1.82-2,1.7-.18.69-2.16,1.27-2.79,1.51a6.12,6.12,0,0,1-2.34.42,4,4,0,0,0-1.53,0c-1.4-.37-2,0-3.49-.39-.87-.23-5.64-.54-5.47.64,0,.33,3.53,1.09,4.13,1.24.76.2,1.35.52,1.72.62,1.94.49.92.29,2.61,1.18s-1.3.86-1.42.84-3.2.65-3.58.61a2.91,2.91,0,0,0-1.37,0c-1,.13-2.13-.3-2.53-.14-.21.08-.74.21-.76.31A6.38,6.38,0,0,0,566.52,140.44Z"/><path class="cls-6" d="M620.71,133c.29.08,1.92-.1,2-.35,1.23.32,5,1.39,5.43-.48.35.09.88-.46,1.13-.39,1.45-1.68-3.45-1.21-3.69-2.32a9.86,9.86,0,0,1-2.36-1.08,6.61,6.61,0,0,0-1,1.31c-.41,1.55-2.22,2.47-4.8,3A8.54,8.54,0,0,0,620.71,133Z"/><path class="cls-7" d="M633.61,124.81c.95-3.69,4.29-7.34,5.47-11.94.14-.56.41-1.5.75-2.66l-2.49-.64a49.31,49.31,0,0,1-5.52,8.63,4.12,4.12,0,0,0,1.88-1.06c2.16.55-3.6,7.45-4.44,7.24-.15.62-.79.41-1,1.13-.52-.14-.4.75-.85.63-.19.75-.78.37-1.31,2.4.88.22,3.28-1.9,4.2-1.66C630.68,125.51,633.27,126.1,633.61,124.81Z"/><path class="cls-8" d="M604.54,139.93c1.42,1.06,5.76,2.16,7.79,2.34.8.07.94.11,1.84.14.09,0,1.16.12,1.17.13.1-.39.32.06.68,0a2.22,2.22,0,0,1,1.41-.16c1.14.3.18-.17,1.42-.15.57,0,.49-.38,1.4-.14a22.44,22.44,0,0,1,2.53.13c.87.23.82-.3,1.89,0a5.52,5.52,0,0,1-1.69.59c-.08.33-3,1.44-3.26,1.39a.27.27,0,0,1-.07.13,2.31,2.31,0,0,1,1,.12s1.1.14,1.16.13c.79-.11-.11-.37,1.37,0,.09-.34,2.69.24,2.85.22,1.22-.17,1,0,1.38-1.36.27-1.06.12-1.37,1.13-1.76a17.4,17.4,0,0,1,3.51-1c.11-.46,1.61,0,2.08-.15s1.24.25,1.49.21l.41-.24a8,8,0,0,0,1.52.05c.08-.28.19-.13.68,0,.07-.28,0-.17.53,0,.43-.48.32-.13,1.09-.23.41-.05,2.26-1.13,2.82-1,.23-.27,1-.76,1.14-1.08.36-.67.93-.94,1-1.28.26-1,.22.47.48-.56a10.91,10.91,0,0,1-1.85-.13,2.37,2.37,0,0,1-1.45.31c-.36-.09-.9.26-1.26.47.84-.16,1.64-.32,2.27-.39l-2.34.43.07,0a11.74,11.74,0,0,1-4.25.33,26.15,26.15,0,0,0-5.5-1.24l-1.13-.29c-.58.67-1.57-.36-2.33-.26-.92.13.31.42-1.37,0a12.31,12.31,0,0,0-3.82-.46c-.4,0-.1-.22-.84-.05s-.57-.15-1-.08a1.53,1.53,0,0,1-1.09.23c-.48-.12-.57.37-1.09.24.63.16,7.84,2,7.87,2,1.13-.15,2.74.53,3.9.84a23.61,23.61,0,0,1-4.51.2c-.78-.2-1.19.2-1.89,0a6.54,6.54,0,0,0-2.21-.06c-.56.12-.58,0-1.16-.13-.4.46-.24.29-1.05.08-.09.36-1.26.35-1.65.43-.78.17-.1.49-1.4.16a2.67,2.67,0,0,1-2,.35c-.71.8-.4-.41-1.77.22a25.79,25.79,0,0,1-4.18-.39,13.36,13.36,0,0,0-4.14-.55c-.15,0-1.35-.18-1.49-.21-.44.51-.13.1-1.09.23-.56.08-2.57-.31-.41.24A15.59,15.59,0,0,1,604.54,139.93Z"/><path class="cls-9" d="M593.93,115.13a3.41,3.41,0,0,1,0,1.37l.23.4c.09.57-.61.53.48.81l1.86-7.22c.41-1.61-.19-.61,0-1.22a20.37,20.37,0,0,0,0-4.78,6.27,6.27,0,0,0-.11-2.26c-.47-.8-.15-.71-.39-1.13a4.43,4.43,0,0,1-.11,3.05c-.42,1.61-.18,2.19-1.66,1.8.35-1.37,0-.79.09-1.69s-.32-1.42-.26-1.6a9.88,9.88,0,0,1-.65-.85c-.45-.75-.89-.64-1.43-1s-1.29-.71-1.4-1.22c-.68-.18-1.13-1.21-1.43-1.62l3.52,19c.53-2.15,1-3.94,1.11-4.53C594,113.51,593.66,114.16,593.93,115.13Z"/><path class="cls-10" d="M651.62,147.79c-.3-.49-6.22-1.94-7.31-2.22-2.23-.58-1.66-.19-3.54-.23a27.52,27.52,0,0,1-4.42-.1c-1.25-.32-1.92-.15-2.65-.34a10.76,10.76,0,0,0-4.59.53c-1.29.77.06.88.76,1,1.64.43.48.11,1.2.65a9.38,9.38,0,0,1,1.08.45c.78.59,1.64.82,2.24,1.27,1.09.82,1.42.71,2.81,1.07.68.18,3.48,2.25,3,2.84-.23.31-4.16-.88-4.62-1.36-.71-.74-.63.27-.84-.73l-.8-.21c-1.31-.33-1.53-1.09-2.85-.9-.05,0-3.64-1-3.69-1-1.44.21-1.43-.77-2.74,0-.73-.19-.32-.12-.84,0-.34,0-1.64-.29-1.74.07-1.46-.38-2.25.27-2.77.14-.15,0-3.37.39-3.54.46-1.18.47-.24-.1-1.09.23-1.35.53-4.82-.72-6.23-1.09-1-.24-1.18-.06-1-.61,0,0,2.93-.77,2.94-.78.63-.37.36.37.92-.28,1,.26,1-.25,1.45-.31l.32.08a4.25,4.25,0,0,0,1.31-.52c-1.33-.34-.59.2-1.19,0-1-.25-1.62.27-2.1.15-.79-.21-5,.06-5.15.73-.48-.12-.45-.23-.52,0a3.39,3.39,0,0,0-2-.17c-.76.11-.79.32-1.45.32-.45,0-2.94.6-3.06.58a16,16,0,0,1-3.62-.6c-2-.51-2.85-.21-2.39-2,.16-.65,2.22-1.3,2.94-1.46.93-.19,4.49-.2,4.5-.21,1.08-.42-.76-.71-1-.77-1.52-.39-.55-.12-1.37,0l-1.92-.5c-.78-.2-1,.26-1.73.07s-2.07.32-2.46.23c-.64-.17-2.66.74-2.94.78-.5.08-.61,1.73-1.26,1.56-.19.74-.5-.06-.78,1-.76,2.95-.15,2.71-2.1,2.2-1.62-.42-.26-.41-1.2-.65-.66-.17-1.27-1-.8-.89.75-.86,1-.59,1.3-1.72a3.1,3.1,0,0,0-1.65-.26c-1,.31-1.37-.34-2,.36a1.23,1.23,0,0,0-1,.07c-.51.29-1-.08-1.4.15s-.4-.09-1.22,0c-.43.06-2.17-.84-2.29-.42-.78.17-1.64-.38-2-.33-1,.14-.8-.19-1,.6s1.81,1.31,2.17,1.58c.86.65,3.16,1.16,4.4,1.47.27.07,1.62,1,1.56,1.27.94.24,1.54,1.34,2.4,2s3.2,3.39,3.4,3.44a1.49,1.49,0,0,0,.56,1.17c-.14.52.86,1.64,1.36,2.38-.36-1.26-.24-2.28.89-2.46.18-.27,1.27-.37,1.57-.28,2,.59,11.12-2,12.79-2.13,3-.26,9.56.35,10.6.2,3.59-.51,7.1.19,10.61,1.1a5.17,5.17,0,0,1,2.56,1.36,42.48,42.48,0,0,1,6.46.26,42.3,42.3,0,0,0,4.76.22l-.21-.06c-2.35-.61-.87-.14-.32-.76.22,0,1.2,0,1.25-.2a3.86,3.86,0,0,0,2.54-.55,2.85,2.85,0,0,0,1.73-.07,5.56,5.56,0,0,1,2.62-.19c.53,0,.49-.39,1.09-.23a28.24,28.24,0,0,0,6.39.44c1.74-.3-1.44-.4-2-1s-2.22-.3-3.24-2c0,0-2.35-1.46-2.53-1.51-1.13-.29-.52-.42-1.16-.81-.08,0-1.47-.35-1.6-.41-2-1.08-.67-.74-.59-1,.9.24.13-.3,1-.07,1.42.37-.07-.53,1.57-.11,2.12.54-.16-.55,2.13,0,2.14.06,6.11,1.67,7.67,1.12C653.22,148.21,652.16,148.71,651.62,147.79Z"/><path class="cls-11" d="M675.91,132.06c-.59.09-1-.32-1.41.15-.67-.17-1.42.32-2.09.15-.28-.07-.85.22-1.09.23s-1.14-.24-1.2,0a4,4,0,0,0-1.25.2c-.48.22-2.07,0-2.17.46-.39-.1-1.5-.17-1.62.27-.33-.08-.46-.2-.56.2-.33-.09-.46-.2-.56.2-.88-.22-.54.38-1.25.19-.11.45-1.39.59-1.73.76-.76.35-2.55-.31-3.45-.55.12-.47.2-1.32.65-1.2.09-.32,2.55-1.26,2.62-1.55.48.12.46.23.52,0a7.38,7.38,0,0,0,2.42-.75c.39.11.21.11.68,0a10.16,10.16,0,0,1,2-.35l.36-.08c1.17-.25.51.43,1.09-.23,1.19.3.82-.55.69,0-1.6-.41-.86.3-2,0-1-.26-.56,0-1.37,0-.21,0-1.29-.18-1.33-.17-1.21.17-2.59.7-3.87.37s-.19.26-1.08.23a13.17,13.17,0,0,0-4.71,1c-1.34.79-1,1-1.67,2.48-.35.78-.12,1.28-.71,2-.27.37-.76,1.34-1.16,1.24l-.65.52c-.71-.19-2.24.79-2.74.66-.14.54-2.21,1.3-2.83,1.68-.88.52-.52.5-.25,1a15.27,15.27,0,0,0,3,1.1c1.38.35.8.72,2.28,1.1,1.76.45.65-.17,1.61.08a10.84,10.84,0,0,1,2.85.55c1.31.34,1.5-.12,2.7.19a7.85,7.85,0,0,0,1.67.2c-.45-.21-.89-.4-1.28-.56-10.38-4.2.42-4.63,1-5.12,2.5-2,10.21-1.83,13.41-2.43a9.38,9.38,0,0,1,2-.44l2.15-.54.87-3.39A1,1,0,0,1,675.91,132.06Z"/><path class="cls-12" d="M668,150.23c-1.06-.27-1.28.35-2.09.14a6.18,6.18,0,0,1-1.66,1.12c-1,.61-2.67-.17-3.82-.46a15.64,15.64,0,0,0-3.82.21c-1.36.52-.39,1-.29,1.12.66.79,2.25.92,3.29,1.2s1,.59,1.32.85c1.74,1.3-.71,1-1.57.79-1.75-.45-2.57,0-3.06-.1-.76.88-.11.74.19,1.24s.79.27.68.69c.34.09.33.07.24.41.34.08.58,1,.58,1.6l.63.16c3.83,1,5.38,1.5,6.22,2.28a22.87,22.87,0,0,0,3.19.24,6.85,6.85,0,0,0,.7-.05l.81-3.17c-.34-.12-.11-.33-.9-.74s-1-.27-.85-.73c.17-.66.88-.07,1-.44.38.1.78.33.84,0l.39.1.16-.64c-1.7-.47-3.11-1-4.84-1.41-.88-.24-1.84-.82-2.49-1,.12-.45,2.26-1.13,3-.95.53.14,1.24-.37,1.77-.23,1,.26,0-.34,1.2,0a8.4,8.4,0,0,0,1.33.17,2.38,2.38,0,0,0,.89.12l.68-2.6c-.66-.09-1.5-.08-1.59-.1C669.42,149.92,668.39,150.34,668,150.23Z"/><path class="cls-13" d="M582.83,175.73a60.31,60.31,0,0,1,7.52,1.45l0-.13c-.42-1.5-.35-.59-.71-1.21s-2.47-1.74-2.32-2.31c-.8-.21-1.36-2.23-2-2.38a17.53,17.53,0,0,0-2.31-3.68c-1.06-.8-.16-.83-1.1-1.66.07-.27-.24-.86-.4-1.12,1.62.41.71.21,1.36.69s1.33.41,1.76,1.14a12.33,12.33,0,0,0,3.67,3.69c1.32.69.62-.18.41-.24-.15-.67-.83-1.18-1.24-1.86s-1.3-1.5-1.55-1.93c-.49-.84,0-.06-.56-.49-.09-.07-1.17-1.32-1.2-1.34a3,3,0,0,1-.75-.36c-.8-.59-3.17-3.36-3.24-3.4a3.73,3.73,0,0,1-.75-2.42c.34-1.31.07,0-.08-1,0-.28.17.06,0-.68a3.3,3.3,0,0,1-.11-.89,3,3,0,0,0-1.49-1.58c-1.06-.27-.54-.65-1.32-.85-.49-.13-.46-.35-.88-.57s-1.7-.71-1.65-.94c-.33-.28-1.32-.86-1.24-1.18-.24-.05-.52,0-.44-.28a16.19,16.19,0,0,0-2.32-1.63c-1.4-.36.1.09-1.05-.61-.13-.09-2.26-.52-2.17-.9l-2.56-.66a15.06,15.06,0,0,0-1.65-.24c-.61-.17-.51.38,0,.51-.1.39,0,.34.4.44a5.82,5.82,0,0,1,1.16.82,10.74,10.74,0,0,1,1.24.49A19.9,19.9,0,0,1,569,150c.44.54,1.51.35,1.71,1.3l1.37.69c1,.51,1.13,1.49,2.59,1.86-.12.45.73.54.59,1l.28.24c-.27,1.06.14.14,0,.69.27.06,2.06,3.75.39,2.49a7.18,7.18,0,0,1-.84-.73c-.19-.32-.94-.34-.84-.73-.83-.21-2.83-1.51-3-2.31-.38-.1-.37-.17-.55-.49-.47-.78-2.6-1.88-2.73-1.39l-.64-.17c-.86-.22-1.6-.75-2.32-.93-.47-.12-2-.75-1.93-1.18-.86-.22-.29-.55-2-.7a4.1,4.1,0,0,1-2.07-2.58l-7.06-1.82c-1.33-.35-3.64-.75-3.93-2-1.92-.5-2-2.21-2.47-2.35.59-2.27.25-.91,1.94-.87,6,.12-6.62-3.44-7.46-2.95-1.18.7-2.88-.77-3.87.38-4.08-1.05-1.58-.21-5.06-.29-1.72,0-2.44-.57-3.13.23-1.42-.37-1.81.22-2.42.06-2.37-.62-1.18,0-2.09.14s-6.23-1.63-7.79-1.66a17.7,17.7,0,0,1-7.38-1.91,16.67,16.67,0,0,0-4.73-1.56c-.72-.19-6.94-2.33-7.23-2.55-1.74-1.31-1.83-.47-3.85-1-.8-.2-2.39,0-2.58.71a2.47,2.47,0,0,0-2.57.7c-1.84-.48-.74.15-1.68-.09-1.72-.44-3.17.89-3.63.78-.22.87-1,.35-1.93.87-1.31.77-4-1-5.14-1.32-2.83-.73-4.61-2.56-7.39-3.27.2-.76,0-.69.49-.55.94.24,4,.3,4.27-.62.39-1.48-7-3.5-8.58-3.92-4.56-1.17-8.35-2.49-12.77-3.63-8.22-2.12-4.21.41-3.93-.68l3.53.92c.23.06,3.22,1.82,3.29,1.87,2.12,1.59-.4,1.54-.5,1.93-2.11-.55-4.17-.71-6,.84-.55.46-1.36.8-2,1.22l0,0c-1.47-1.23-1.12-.45-2.52-1.51-1-.76-5-1.64-6.67-2.06a32.62,32.62,0,0,1-4.09-1.4c-2.56-1.34-5.74-1.82-8.59-2.56-.59-.15-1.39-1.24-1.27-1.7l-2.25-.58c-2.87-.74-1.22-.48-3.38-.18-4.62.66-9.52-2.92-14.14-2.27-.79.12-14.83-3.81-15.33-4.29-1.1-1.07-2-.3-1.67-1.46-2.35-.61.31-.26-1.53-.74.31-1.16-2-1.32-1.82-2.18a22.34,22.34,0,0,0-2.73-1.39c-.34-.18-3.24-1.86-3.28-1.87-1.11-.29-.76-.8-2.33-1.62a33.77,33.77,0,0,0-6.18-1.25c-2.2.32-4.63-.51-6.91-1.1a14.81,14.81,0,0,0-4.74-.19c-2.39-.62-.82.48-2.1.15-2.68-.69-.48,1.27,2.17.9.06,0,13.2,3.39,14.45,3.73,3.8,1,1.81.69,2.73,1.37s3,.45,3.28,1.88c1.65.42.6,0,1.44,1.05.24.29,8.77,4.65,3.28,3.24-2.52-.65-3.41-1.22-5.7-1.81-1-.25-4.73-1.58-4.57-2.21-.81-.2-2-.24-1.84-.82-.54-.14-4.11-1-4.18-1.07-2.27-1.19-8.07-2.66-13.24-3.89a32.29,32.29,0,0,0,.92,10.86c2,.6,3.83,1.29,4.63,2.1,2.23,2.26,7.69,3.49,10.81,3.55,9.36.15,8.36,1.14,16.23,3.17,5.68,1.46,6.7,3.43,10.71,4.46,0,0,3.35,1.84,4,1.52,1.27-.59,5.86,0,7.57.29,3.72.61,16.77,3.83,18.78,3.83,8.88,0,22.06,5.4,25.71,5.41,2.79,0,12.06,2.17,15.58,2.61a18.69,18.69,0,0,0,2.83.19,155.18,155.18,0,0,1,19,3.72c4.89,1.26,8.48,1,12.3,2,5.2,1.35,10.92,1.22,14.47,2.19l7.22,1.2a55.55,55.55,0,0,1,8.49,1.65c6.15,1.59,10.42,1,15.15,2.2,7.2,1.85,11.17,2.12,16.76,6.88,0,.09,1.88,1,2.1,1.1,5.44,2.31,5.4,3.91,8.87,6.14C574,164,579.08,170.76,582.83,175.73Z"/><path class="cls-14" d="M352.59,91.16c-.07.38-.13.76-.19,1.14a33.94,33.94,0,0,0,6.13,1.33l.36-.07-.35-.61c-.54-.14-1.8-.81-2.49-1S354,91.52,352.59,91.16Z"/><path class="cls-15" d="M465.31,116.53c.53.13.48.26.88.56s2.24.78,2.65,1l.39.44L476,120.3a5.11,5.11,0,0,1,2.85,1.59,6.71,6.71,0,0,0,3.53,1.6c.68.18,2.05.88,2.49.3.31-.41-.9-1.43-1.31-1.54-.63-.16-1.13-1.61-1.08-1.82,1,.28.18-.12,1,.09a13.53,13.53,0,0,0,2.77.54c4.33.39,2.64-.31,2.86-1.15a5.22,5.22,0,0,0-1.47-.9c-1.48-.38-.3,0-1-.61l-1.93-.5a12.43,12.43,0,0,1,3.47-.82,23.52,23.52,0,0,0,3.3-.18c2.13-.14,12.74,2.94,16.14,3.82,1.85.47,1.52-.12,3.34.35a25,25,0,0,0,4.37.27c-9.5-2.43-20.94-5.85-26.85-5.87-1.42,0-2.9-.06-4.44-.14l-.08.16a8.84,8.84,0,0,1-1.38,2,18.67,18.67,0,0,1-3,1.1c-1,.14-2.53-.48-3.58-.76a7.35,7.35,0,0,1-1.24-.48c-1.52-.4-.25,0-1-.62-.55-.41-7.44-2.09-8.47-2.35-1.51-.39-1.57-.22-1.3,1C464.37,115.6,464.94,116.43,465.31,116.53Z"/><path class="cls-16" d="M590.79,131a.63.63,0,0,0-.21.28l.21-.28Z"/><path class="cls-17" d="M627.33,128.69s-7.38-6.14-6.5-13.06,6.08-13.73,6.08-13.73S642.34,123,627.33,128.69Z"/><path class="cls-18" d="M627.2,130.64s-7.31,1-12.62-3.55-9.17-11.59-9.17-11.59S627.39,118.26,627.2,130.64Z"/><path class="cls-17" d="M387,96.36s-7.38-6.14-6.5-13.06,6.08-13.73,6.08-13.73S402,90.7,387,96.36Z"/><path class="cls-18" d="M386.86,98.31s-7.31,1-12.62-3.55-9.17-11.59-9.17-11.59S387.06,85.93,386.86,98.31Z"/><path class="cls-19" d="M389.76,96.68s4.8-4,4.23-8.49-4-8.93-4-8.93S380,93,389.76,96.68Z"/><path class="cls-18" d="M388.81,96.77s7.31,1,12.62-3.55,9.17-11.59,9.17-11.59S388.62,84.38,388.81,96.77Z"/><path class="cls-20" d="M559.5,156.22c.14.31.28.62.43.92a2.14,2.14,0,0,0,1.27,1.23.48.48,0,0,0,.33,0,.4.4,0,0,0,.14-.48,1,1,0,0,0-.35-.41,4.53,4.53,0,0,1-1.26-1.11,1.93,1.93,0,0,1,.82.2c-.09,0-.29-.5-.38-.6a2,2,0,0,0-.6-.45c-.15-.07-.52-.26-.63-.1S559.44,156.07,559.5,156.22Z"/><path class="cls-20" d="M556.23,165.61a16.14,16.14,0,0,0,.74-2.69,1.19,1.19,0,0,0,0-.51,1.24,1.24,0,0,0-.3-.48c-.57-.67-1.12-1.4-1.74-2,.17.86.51,1.71.72,2.57S556.42,164.79,556.23,165.61Z"/><path class="cls-20" d="M544.64,167.11a5.36,5.36,0,0,0,1.88.73.87.87,0,0,0,0-1c-.06-.08-.14-.16-.14-.26s.31-.24.51-.15a1.42,1.42,0,0,1,.52.42.37.37,0,0,0,0-.56c-.09-.07-.21-.1-.28-.18s0-.44.22-.49a.69.69,0,0,1,.58.21.75.75,0,0,0,.3.21.4.4,0,0,0,.42-.24,1,1,0,0,0,.06-.51,3.26,3.26,0,0,0-.94-2,1.2,1.2,0,0,0-.74-.4c-.71,0-1,.73-1.44,1.13s-.84.37-1.26.65C543.41,165.25,543.81,166.51,544.64,167.11Z"/><path class="cls-20" d="M531,166.23a3.87,3.87,0,0,0-.38,2.54.18.18,0,0,0,0,.08c.06.07.17,0,.24-.05a2.48,2.48,0,0,0,.52-1,14.61,14.61,0,0,1,.57-1.36c.08-.16.24-.34.39-.25s.1.18.1.29l0,2.85c0,.2.06.45.25.47s.25-.11.33-.22a3.6,3.6,0,0,0,.53-2.7c-.08-.41-.24-.8-.32-1.21a5.15,5.15,0,0,0-.27-1.21,1,1,0,0,0-.58-.55c-.33-.1-.37.08-.48.34C531.71,164.94,531.33,165.57,531,166.23Z"/><path class="cls-20" d="M468,169.51a1.89,1.89,0,0,0,.26-.34l1.77-2.65a.4.4,0,0,1,.2-.19c.23-.07.35.27.37.51a10.25,10.25,0,0,0,.5,2.62c.09.27.32.61.59.49a.52.52,0,0,0,.23-.28,12.32,12.32,0,0,0,.82-2.81,8,8,0,0,0,.25-2.16,2.21,2.21,0,0,0-3.15-1.9c-.6.25-.9,1.1-1.19,1.65a22.12,22.12,0,0,0-1.95,5.13,1.43,1.43,0,0,0,1.19,0Z"/><path class="cls-20" d="M480.9,167.82a2.21,2.21,0,0,0,.22-.35l1.51-2.71a.43.43,0,0,1,.17-.2c.18-.08.26.25.26.48a12.1,12.1,0,0,0,.25,2.56c.06.27.22.58.43.45a.59.59,0,0,0,.19-.29,16.2,16.2,0,0,0,.78-2.82,10.47,10.47,0,0,0,.31-2.15c0-1.53-1.1-2.42-2.33-1.71-.48.28-.75,1.14-1,1.7A28.81,28.81,0,0,0,479.9,168a.89.89,0,0,0,.91-.05Z"/><path class="cls-20" d="M491.5,166.46a1.87,1.87,0,0,0,.16-.27l1.09-2.11a.35.35,0,0,1,.12-.15c.13-.06.17.18.17.37a10.24,10.24,0,0,0,.12,2c0,.2.14.44.28.34a.5.5,0,0,0,.14-.22,14.18,14.18,0,0,0,.6-2.19,9.14,9.14,0,0,0,.25-1.66c0-1.17-.71-1.84-1.57-1.27-.33.22-.54.89-.73,1.33a25.14,25.14,0,0,0-1.32,4,.56.56,0,0,0,.63-.06Z"/><path class="cls-20" d="M500.85,167.05a1.87,1.87,0,0,0,.16-.27l1.09-2.11a.35.35,0,0,1,.12-.15c.13-.06.17.18.17.37a10.24,10.24,0,0,0,.12,2c0,.2.14.44.28.34a.5.5,0,0,0,.14-.22,14.18,14.18,0,0,0,.6-2.19,9.14,9.14,0,0,0,.25-1.66c0-1.17-.71-1.84-1.57-1.27-.33.22-.54.89-.73,1.33a25.14,25.14,0,0,0-1.32,4,.56.56,0,0,0,.63-.06Z"/><path class="cls-20" d="M509.67,166.06c.28.06.6-.32.85-.15a.48.48,0,0,1,.16.34l.11.68a.78.78,0,0,0,.27.57.17.17,0,0,0,.2,0c.13-.11.15-.4.23-.55a3.28,3.28,0,0,0,.22-.38,9.92,9.92,0,0,0,.34-1.41,9.14,9.14,0,0,0,.25-1.66c0-1.17-.71-1.84-1.57-1.27-.33.22-.54.89-.73,1.33a6.6,6.6,0,0,0-.59,1.9c0,.22,0,.49.2.57Z"/><path class="cls-20" d="M520.64,168.2c0-.09,0-.17,0-.26a1.22,1.22,0,0,1,.06-.48.45.45,0,0,1,.36-.29.52.52,0,0,1,.43.26c.1.14.16.31.27.45a1.69,1.69,0,0,0,.92.48,1,1,0,0,0,.41.06.35.35,0,0,0,.31-.24.44.44,0,0,0-.23-.42,1.46,1.46,0,0,1-.4-.3c-.28-.4.09-1.33.1-1.8,0-1.17-.71-1.84-1.57-1.27a6.59,6.59,0,0,0-1.5,2.64,3.36,3.36,0,0,0-.31,1.56,1.42,1.42,0,0,0,.89,1.23A3.14,3.14,0,0,0,520.64,168.2Z"/><path class="cls-21" d="M449.26,132.35c.77-2,17.52-5.35,16.49-1.32C463.58,139.47,446.37,139.81,449.26,132.35Z"/><path class="cls-22" d="M451.3,131.09a35.31,35.31,0,0,1,8-1.79,13.54,13.54,0,0,1-2.88,2.33c-2.62,1.63-5.18,2.24-5.72,1.36C450.4,132.57,450.66,131.88,451.3,131.09Z"/><path class="cls-23" d="M537,142.17s-5.06-.09-4.88-1.3C532.73,136.77,539.53,140.25,537,142.17Z"/><path class="cls-23" d="M474.33,132c0-.61-2.11-1.21-2.53-1.14-1,.17-2.63-.61-3,1C468.75,132,474.37,135.07,474.33,132Z"/><path class="cls-23" d="M477.07,131.85c1,.27,2.72.14,3.27,1.07.23.4,0,1.16-.44,1.83C475.27,135.23,473.76,130.94,477.07,131.85Z"/><path class="cls-23" d="M483,133.39a6.92,6.92,0,0,0,3-.27c2.71-1.27.69-4-1.39-2.95-.9.45.14-.66-1.43.78-.25.23-.54,0-1.46.65-.49.33-.85,1.14-.54,1.61C481.28,133.26,481.3,134.35,483,133.39Z"/><path class="cls-23" d="M502.54,133.6c0,.07,7.18,3.72,7.89,2.08C512.84,130.15,500.52,129.32,502.54,133.6Z"/><path class="cls-23" d="M513.49,136.69c0,.07,6.18,3.49,6.86,1.84C522.62,133,511.84,132.49,513.49,136.69Z"/><path class="cls-23" d="M529.6,140.7c-.06,0-7.58-.32-7.37-1.93C523,133.31,533.3,138.24,529.6,140.7Z"/><path class="cls-21" d="M506.19,162.85c.55-.06,1.28-.71,1.76-2.34,1.66-5.53,5.74-20.78,5.1-23.09-.3-1.1-8.55-6.36-13-4.31-1.24.57-2,23.85-2.87,27.31-.2.86.29,1.43,1.15,1.82s2.43-.09,3.67,0C504,162.37,505.63,162.91,506.19,162.85Z"/><path class="cls-21" d="M487.49,159.79c2.54,2.2,5.87,3.05,10,1.82.57-.17-.28-1.17.23-2.85,1.74-5.73,3.11-23.24,2.37-25.65-.35-1.14-5.61-3.2-10.92-2-3.39.77-.56,21.49-2,27.33A1.31,1.31,0,0,0,487.49,159.79Z"/><path class="cls-24" d="M492.75,162.12c-2-.7-3.9-.24-2.5-15.76,1.1-12.11-3.27-15,2.73-15.61a15.3,15.3,0,0,0-3.82.36c-3.39.77-.56,21.49-2,27.33a1.31,1.31,0,0,0,.29,1.35A9.45,9.45,0,0,0,492.75,162.12Z"/><path class="cls-21" d="M514.66,164.23c.48-.07,1.1-.72,1.55-2.28,1.55-5.33,5.41-20,4.93-22.17-.23-1-5.18-5.41-9-3.33-.61.33-.84.8-1.13,2.07-1.2,5.29-3.35,18.41-4.44,23C506,164.17,513.55,164.41,514.66,164.23Z"/><path class="cls-24" d="M519.19,150.74a4.1,4.1,0,0,0-.61-.16c-.9,2.27-1.89,11.95-4,13s-6-.31-6.4-1.5c-.57-1.75,2.12-20.35,4.89-23.12.32-.32,2-2.42,3.35-2.13a11.37,11.37,0,0,1,4.44,2.4c-1.14-1.5-5.36-4.63-8.69-2.81-.61.33-.84.8-1.13,2.07-1.2,5.29-3.35,18.41-4.44,23-.63,2.64,6.95,2.88,8.06,2.71.48-.07,1.1-.71,1.55-2.28C516.93,159.49,518.14,155,519.19,150.74Z"/><path class="cls-21" d="M516.08,163.49a9.63,9.63,0,0,0,9.13,1.79c.5-.15,1.22-.62,1.67-2.08,1.52-5,6.29-21.84,4.23-22.61A28.39,28.39,0,0,0,521,138.84c-.74,0-.93.72-1.19,1.91-1.12,5-2.93,17.28-4,21.57A1.13,1.13,0,0,0,516.08,163.49Z"/><path class="cls-25" d="M518.92,165.15a9.79,9.79,0,0,0,5.14.41c.3-.87,1.22-1.23.41-3.33s-2.79,2-5,.81C519.28,162.88,519,163.95,518.92,165.15Z"/><path class="cls-24" d="M516.08,163.49a9.26,9.26,0,0,0,2.23,1.41c-.72-.8-1.34-2.1-.92-4.45,2-11.16.56-17.4,5.65-20.17,1.45-.79,3.2-.16,6.07-.37a31.22,31.22,0,0,0-8.13-1.08c-.74,0-.93.72-1.19,1.91-1.12,5-2.93,17.28-4,21.57A1.13,1.13,0,0,0,516.08,163.49Z"/><path class="cls-21" d="M539.87,163.15c1.75-4.56.15-18.4-.67-20.42-.39-1-2.94-1.9-7.22-1.94-2.48,0-3.73,19.77-6,23.59-.21.36.16.89.63,1,1,.32,3.19,0,5.42,0,1.53,0,2.89.6,4.27.23C538,165.14,539.41,164.35,539.87,163.15Z"/><path class="cls-24" d="M539.62,144.41a10.32,10.32,0,0,0-.41-1.68c-.39-1-2.94-1.9-7.22-1.94-2.48,0-3.73,19.77-6,23.59-.21.36.16.89.63,1,1,.32,3.19,0,5.42,0h.17c-2.2-.36-4.08.33-4.07-2.92,0-5.84,1.44-10.52,2.15-15.44.43-3,.3-5.21,4.6-5.21a11.4,11.4,0,0,1,3.36.52c.92.32.25,2.6.62,3.65A14.38,14.38,0,0,0,539.62,144.41Z"/><path class="cls-21" d="M538,165.13c2.35,1.91,13.64-1.25,14.81-5,1.33-4.28-2.83-12.21-3.46-14-.3-.86-5-3-10.18-3.33-.66,0-.43,17.24-1.43,21.38A1,1,0,0,0,538,165.13Z"/><path class="cls-25" d="M542.63,165.52a22.79,22.79,0,0,0,6.82-2.24,7.6,7.6,0,0,1-.73-1.49c-1.08-2.85-.56,2.17-6.35,1.39C541.14,163,541.26,164.34,542.63,165.52Z"/><path class="cls-24" d="M549.5,163.25c1.69-.91,3-2,3.35-3.16,1.33-4.28-2.83-12.21-3.46-14-.16-.47-1.64-1.31-3.77-2a2.76,2.76,0,0,0,2,1.42c1.83.64,2.23,4.5,3,7.92.54,2.52,1.47,4.67,1.34,5.49C551.44,161.94,550.54,162.15,549.5,163.25Z"/><path class="cls-21" d="M488.29,160.42c2.34-2.17.83-25.1-.12-28.19-.11-.36-.62-1.28-1.19-.87-1.83,1.3-1.77,2.07-4.59,1.41a2.27,2.27,0,0,0-2.43,1.85c-.75,3.31-6,10.93-6.25,17-.18,4.39,3,7.63,2.52,9.7C475.51,164.33,487.26,161.38,488.29,160.42Z"/><path class="cls-24" d="M488.33,132.87c-.05-.26-.1-.48-.15-.64-.11-.36-.62-1.28-1.19-.87-1.35,1-1.67,1.63-2.88,1.65h0c.61.08.46.29,2.26-.59.51-.25,1.32-.93,1.64-.21Z"/><path class="cls-24" d="M483.17,162.07c-3-.2-6.26,0-5.31-3.5s2-20.08,3.55-24.89c.28-.88,1-.82,1.4-.81h0l-.42-.09a2.27,2.27,0,0,0-2.43,1.85c-.75,3.31-6,10.93-6.25,17-.18,4.39,3,7.63,2.52,9.7-.41,1.72,3.25,1.49,6.65.81l.28-.06Z"/><path class="cls-21" d="M465.45,162.33a9.08,9.08,0,0,0,5.2,1.61c4.18-.06,7.73-.2,6.4-2.74-1.69-3.25,4.86-26.93,3-27.56-.86-.29-1.8-.23-2.39-.46-1.06-.41-1.51-1-2-1.12-.76-.17-1.57.3-1.91,1.53-1.3,4.65-9.69,21-10.88,26C462.75,160.17,465.14,162.07,465.45,162.33Z"/><path class="cls-25" d="M467.72,163.47a9.37,9.37,0,0,0,2.93.47,31,31,0,0,0,4.59-.29c-2.62-6.1-7.39-.78-7.42-.65S467.76,163.31,467.72,163.47Z"/><path class="cls-24" d="M465.45,162.33a4.9,4.9,0,0,0,1.05.65c-2.15-3-1-6.43.67-9.83s7.22-19.29,8.54-20c.63-.32,1.19,0,2.05.3s1.35-.1,2.52,1.15l.07-.23c0-.44-.14-.7-.32-.76-.86-.29-1.8-.23-2.39-.46-1.06-.41-1.51-1-2-1.12-.76-.17-1.57.3-1.91,1.53-1.3,4.65-9.69,21-10.88,26C462.75,160.17,465.14,162.07,465.45,162.33Z"/><path class="cls-21" d="M452.75,145.3c2.54,2.2,5.27,16.3,9.38,15.08a3,3,0,0,0,2.31-2.19c1.74-5.73,10.76-23.25,10-25.67,0-.11-1.5.09-3.36-.17-.84-.12-1.61-1-2.63-.88s-1.45,1.29-2.95,2.28C460.06,137.38,452.06,144.73,452.75,145.3Z"/><path class="cls-24" d="M457.75,156.16c-.58-1.62-1.78-5.32-2-6.08-.44-1.31.61-4.82,2.83-7.49,2.45-2.94,5.92-5.7,6.66-7.63.37-1,1.13-1.26,2-2.71a9.56,9.56,0,0,1-1.67,1.5c-5.47,3.64-13.46,11-12.78,11.56C454.27,146.61,455.85,152.16,457.75,156.16Z"/><path class="cls-21" d="M455.23,147.17c2.47-5.46,9.75-10.41,9.33-12.89-.2-1.18-5.93-1.93-9.76.35-.72.43-5.47,2.35-5.11,3.71C452.14,147.62,455.21,147.23,455.23,147.17Z"/><path class="cls-24" d="M464.11,135.86a2.46,2.46,0,0,0,.45-1.58c-.2-1.18-5.93-1.93-9.76.35-.72.43-5.47,2.35-5.11,3.71.11.42.22.81.33,1.19,1.21-4.86,12.45-7.71,13.9-5.37A2.69,2.69,0,0,1,464.11,135.86Z"/><path class="cls-26" d="M450.15,140a19.57,19.57,0,0,0,2.27,5.13c2.19-2.68,5.49-6.44,3.2-7.2-.52-.17-1.52,1.53-4.24,1.54A2,2,0,0,0,450.15,140Z"/><path class="cls-21" d="M553.68,161c1.91-.23,5.09-.74,5.22-3.29.09-1.75-2.24-7.09-5.81-10.48-1.54-1.47-3.38-2-3.86-1.35-.62.85,3.34,10.45,3.16,14C552.33,160.92,552.76,161.07,553.68,161Z"/><path class="cls-24" d="M555.65,160.62c1.59-.39,3.16-1.18,3.25-3s-2.24-7.09-5.81-10.48c-1.54-1.47-3.38-2-3.86-1.35-.14.19-.05.8.16,1.67.66-1.16,2.08-1.26,2.44-.6.69,1.28,1.21,3.39,2.46,5a55.08,55.08,0,0,1,3.23,6.29C558,159.67,557.38,159.86,555.65,160.62Z"/><path class="cls-21" d="M554.62,146.74c-.65-1.13-2.53-.57-2.07.59,1.1,2.81,4.34,8,5.41,10.22.63,1.29,1.21.15,1.77-.8,1-1.63,2.58-2.9,1.15-4.95C559.93,150.44,555.7,148.61,554.62,146.74Z"/><path class="cls-24" d="M554.62,146.74c-.65-1.13-2.53-.57-2.07.59.07.18.15.38.24.58,0-.11.2-.4.21-.43.4-1.08,1.18-.87,1.53-.13,2.22,4.69,8.56,3.79,5.47,9,1-1.44,2.18-2.66.88-4.52C559.93,150.44,555.7,148.61,554.62,146.74Z"/><path class="cls-24" d="M542.15,165.58c-.83-.7-3.36.14-3.27-1.45,1-18.84-3-20.51,9.82-18.53a.39.39,0,0,0,.22,0c-1.36-1-5.4-2.55-9.7-2.83-.66,0-.43,17.24-1.43,21.38a1,1,0,0,0,.25,1C538.75,165.71,540.3,165.82,542.15,165.58Z"/><path class="cls-24" d="M470.33,132.42c1.11.55,3.07.65,3.37,1.09a2.76,2.76,0,0,1,.28,1.69,5.94,5.94,0,0,0,.47-2.68c0-.11-1.5.09-3.36-.17-.84-.12-1.61-1-2.63-.88-.85.11-1.26.84-2.11,1.63l0,.07C467.68,132.57,468.11,131.32,470.33,132.42Z"/><path class="cls-25" d="M534.86,157.5c.08-2.12-.72-.88-.35-4.31,0-.15-.83-3.58-1.86.82-.52,2.22-.67,2.33.93,3.91C533.83,158.17,534.82,158.49,534.86,157.5Z"/><path class="cls-25" d="M523.64,156c-.47.81-2.36,0-2.1-1.09.71-3,.18-4.23,3.06-3.17C525.83,152.22,524.12,155.21,523.64,156Z"/><path class="cls-25" d="M513.67,154.71c1.64-2,.34-2,.74-5.43.12-1.06-1.27-.44-1.69,1.88-.1.52-2.36,3.2.55,3.71A.62.62,0,0,0,513.67,154.71Z"/><path class="cls-25" d="M504.7,152.95c.14-1.62.4-.43.13-2.15,0,0,.62-3.39-.45-2.56-.58.45-.39,2.29-1.16,3.5C502.24,153.26,503.89,154.46,504.7,152.95Z"/><path class="cls-25" d="M495.79,150.14c.09-.58-.47-3.79-.24-5.33.32-2.2-3.16-1.09-2.18,4.42.12.67-1.14,2.15,1.09,2.43C495,151.74,495.69,150.69,495.79,150.14Z"/><path class="cls-25" d="M484.61,145.25c-1.17-.61-1.09,1.17-1.72,3-1.57,4.53,1.11,2,2.36,2.75C486.94,151.93,486.63,146.31,484.61,145.25Z"/><path class="cls-25" d="M472.32,154.45a4.68,4.68,0,0,1-1.36-.6c-.38-.18,1.15-1.91,1.65-4.06.26-1.09,1.39-6.62,2.46-3.58.3.85-1.75,3.17-1.08,6C474.37,153.74,473.36,154.61,472.32,154.45Z"/><path class="cls-25" d="M462.19,149.28c-1.23-2.25.16-2.38,1.73-4.33.12-.15,2.78-1.74.52,1.66C462.77,149.13,464,150.46,462.19,149.28Z"/><path class="cls-25" d="M544.15,157.65c4.22.93.9-5.36.13-4.95-.11.06-.83,2.15-1.42,3C541.82,157.19,543.15,157.53,544.15,157.65Z"/><path class="cls-25" d="M553.38,153.09c-.13-.53-.64-2.09-1-.74-.18.78.5,1.18.26,2.56,0,.17.3,1.59,1.21.75C554.49,155.11,553.54,153.72,553.38,153.09Z"/><path class="cls-25" d="M556.41,152c.12.81.62,1.11,1,1.11C558.68,153.1,556.18,150.34,556.41,152Z"/><path class="cls-23" d="M557.76,153.61c.12.15.51.7.56.18,0-.27.55-.68-.09-.73C558.15,153,557.55,153.36,557.76,153.61Z"/><path class="cls-23" d="M553.08,157c.13.34.88.08,1.13-.07.94-.56.16-1,0-.79-.29.45-1,.31-1.14.52A.74.74,0,0,0,553.08,157Z"/><path class="cls-23" d="M547.61,159.85c-.61-.14-1.84,1.81-4.21.62-1.52-.77-3.69.89-.43,1.56C544.78,162.4,547.14,161.86,547.61,159.85Z"/><path class="cls-23" d="M534.88,160.81c-1.42.34-2.47-1.1-2.76-1.41-.46-.5-1.66-.26-1.1.75.29.53-1.46,1.57,1.32,1.85a3.56,3.56,0,0,1,1.83-.14C534.57,161.92,535.54,160.66,534.88,160.81Z"/><path class="cls-23" d="M520.54,159.09c-.38-.42-.72-.32-.82.68,0,.41.6,2.84,2.1,1.79C526.46,158.3,521.87,160.53,520.54,159.09Z"/><path class="cls-23" d="M513.24,158.5c-1.79-.05-3.34-1.87-2.92-.32.08.3.67.64,1,1.18C512,160.6,515,158.55,513.24,158.5Z"/><path class="cls-23" d="M504.33,158.47c.35-.56.11-1.06-.67-.8-1.51.51-2.86-1.48-2.65-.22S503.18,160.3,504.33,158.47Z"/><path class="cls-23" d="M495.44,156.61c.29-.31,1.29.89-.38,1.93-.17.1-.78-.48-2-.1s-1.48-1.23-1.56-2C491.34,154.94,493.91,158.26,495.44,156.61Z"/><path class="cls-23" d="M486.41,156.57c-.1-.52.95-1,.1-1.67-.17-.14-.82.09-1.11-.11-.58-.38-2.58-.47-4.44.45-.38.19-1,.42-.42,1.43s3.88.38,5,.55C485.93,157.27,486.52,157.12,486.41,156.57Z"/><path class="cls-23" d="M474.75,157.46c-.1-.7-.76-.5-1.58-.32a6.4,6.4,0,0,1-3.25-.47c-.85-.33-1.13-1.13-1.45-.35-1.51,3.68,1.19,3.65,5.24,3C474.13,159.25,474.81,157.87,474.75,157.46Z"/><path class="cls-23" d="M462.52,152.5c-.4-.3-1-.5-1.4-.8s-.82-.77-1,0a3.66,3.66,0,0,0,0,2.11C460.77,155.23,463.32,153.11,462.52,152.5Z"/><path class="cls-23" d="M542.68,151.54a14.52,14.52,0,0,0,1.3-2.6c0-.11.89-.63-.23-.77-.62-.08-.4,1.43-1.42,2-.26.15-1,1.76-.71,1.83C542.67,152.21,542.67,151.7,542.68,151.54Z"/><path class="cls-23" d="M533.24,148.49s-.64-.87.74-.61.71-.58,1.63,1.08c.06.11.19,1.2-.12,1.36C535,150.57,534.78,148.62,533.24,148.49Z"/><path class="cls-23" d="M552.12,151.83c.94-1.27-.13-.23.06-1.43,0,0-.6-.46-.37.17C551.85,150.68,551.88,152.17,552.12,151.83Z"/><path class="cls-23" d="M556,151.42c.76-.67-.28-1.29-.33-1C555.53,151,555.83,151.54,556,151.42Z"/><path class="cls-23" d="M526.95,146.42c0-.34-.68-1.46-1.54-.51-.45.49-1.13-.09-2.22.15s-2.13,1.92.12,2C527.42,148.15,527.06,150.9,526.95,146.42Z"/><path class="cls-27" d="M514.07,145.29c-.34.17-2.25.75,0-1.2.42-.37,1.42-2.21,1.51-2,.37,1-.45.91.36,2.12,0,0,.17,1.34-.25,1.24A1.26,1.26,0,0,0,514.07,145.29Z"/><path class="cls-23" d="M506,144.75c-.67-1.33-1.8-.42-1.53-2.41,0-.1-.19-1.42.14-1.45.13-.23,1.4,2.16,1.41,2.48S506.8,144.78,506,144.75Z"/><path class="cls-23" d="M493.32,139.81c.71-1.81,4,.55,2.19-3-.35-.69-1.69,1.49-2.28,2C492,140,493,140.68,493.32,139.81Z"/><path class="cls-23" d="M485.59,141.57c1.15.54-.34-4.11-3.18-1.71-.48.4-.59,2,0,1.52S483.85,140.76,485.59,141.57Z"/><path class="cls-23" d="M473.6,143.34c2.15-2.34,2.79,1.37,2.79-1,0-.39-.83-1.18-.56-2.32s-.76,1.59-1.5,1.6C473.29,141.65,472.89,144.11,473.6,143.34Z"/><path class="cls-27" d="M464.63,142c1.16-.45,2.08-.1,2.59-.52s1.4-2.52-.75-1.84c-.93.29-2.65,2-2.59,2.47C463.91,142.46,464.2,142.22,464.63,142Z"/><path class="cls-28" d="M542.57,149a7.94,7.94,0,0,0,.44-1.53c-.75-.17-.63.75-1,1.41-.21.39.41.41.46.22Z"/><path class="cls-28" d="M533.68,147.34c.57-.05,1.66.42,1-.87C534.41,146.05,532.62,147.44,533.68,147.34Z"/><path class="cls-28" d="M555.34,150.15c.1-.43.07-.13-.22-.5-.12-.16-.24.27-.06.49C555.06,150.13,555.23,150.63,555.34,150.15Z"/><path class="cls-28" d="M524.72,145.43c.6-.59,2.07-.59-.15-1.2C524,144.08,522.81,145,524.72,145.43Z"/><path class="cls-28" d="M513.94,142.76c.23-.45,1.28-1.41.39-1.29,0,0-1.84,1.5-.45,1.44Z"/><path class="cls-28" d="M505.82,141.14c-.17-.72-1.48-1.14-.43-2,0,0,.39-.7.75.09,0,0,.18,2.09,0,2.06A.32.32,0,0,1,505.82,141.14Z"/><path class="cls-28" d="M493.43,137.18c.06,0,3-3.21-.16-.83C492.91,136.62,492.29,137.8,493.43,137.18Z"/><path class="cls-28" d="M483.09,138.75c.38-.75,1.77,0,1.41-.93,0,0-1.29-.94-1.5.22,0,0-.76.94,0,.86Z"/><path class="cls-28" d="M475,139.94c.22-.28,1.69-1.37.65-1.56C475.15,138.29,474.43,140.65,475,139.94Z"/><path class="cls-28" d="M466.82,138.68c1.24-.39.29-.25.85-.73.13-.11.35,0,.35-.42-.16-.08-.61.27-1,.34C466.34,138,466.61,138.74,466.82,138.68Z"/><path class="cls-28" d="M551.57,150c.21-.37,0-.39,0-.77-.07-.59-.07.12-.1.15-.12.2-.26.4,0,.62A.11.11,0,0,0,551.57,150Z"/><path class="cls-25" d="M560.54,155.56c-.93-1.64-2.41-3.06-2,.09a2.13,2.13,0,0,0,1,1.51l.24-.41C560,156.34,560.27,155.95,560.54,155.56Z"/><path class="cls-25" d="M560.54,155.56l-.07-.12a8.37,8.37,0,0,1-.46.89l.09-.13h0l.09-.12h0l.23-.32h0v0l.08-.11v0Z"/><path class="cls-21" d="M559.06,151.15c-.81-.43-6.78-5.06-2.44-3.89,1.6.43,4.3.44,4.82,2.09C562.5,152.7,561.48,152.42,559.06,151.15Z"/><path class="cls-25" d="M509.31,163.79a19.52,19.52,0,0,0,3.45.46,10.83,10.83,0,0,1,.28-1.69c.4-1.72.78-1.71-1.11-2-.47-.07-.24.62-1.21-.26C510.53,160.13,509.77,162.08,509.31,163.79Z"/><path class="cls-25" d="M529.67,165.47c.74,0,1.55-.09,2.37-.09,1.18,0,2.25.36,3.32.35a3.16,3.16,0,0,0-.85-2.33c-1.81-1.93-.82,0-3.84-.84C530.07,162.39,530,164.07,529.67,165.47Z"/><path class="cls-25" d="M529.67,165.47h2.53c-.91-.15-1.77-.12-2.47-.26Z"/><path class="cls-24" d="M503.78,162.45c-3-1-4.77.65-4.86-3.59-.18-8,2-21.31,5.24-24.4,1.54-1.47,7.17,1.43,7.27,1.46-2.69-1.84-8.07-4.34-11.35-2.82-1.24.57-2,23.85-2.87,27.31-.2.85.29,1.43,1.15,1.82s2.43-.09,3.67,0A17,17,0,0,1,503.78,162.45Z"/><path class="cls-25" d="M491.45,161.89a10.3,10.3,0,0,0,3.93.18c-.13-2-.19-3.86-2.9-2.5C491.87,159.88,491.6,160.86,491.45,161.89Z"/><path class="cls-25" d="M480.33,162.53a34.38,34.38,0,0,0,6-1.29,6.16,6.16,0,0,0-1.57-2.23c-.79-.59-1-1.47-3-.93C480.61,158.4,480.42,160.95,480.33,162.53Z"/><path class="cls-25" d="M480.33,162.53c.51-.06,1-.13,1.57-.22h0l.4-.07.1,0,.08,0h0l.08,0,.1,0h.19l.28-.06h0c-1-.06-1.94-.08-2.8-.19C480.35,162.11,480.34,162.33,480.33,162.53Z"/><path class="cls-25" d="M457.11,154.74a19.51,19.51,0,0,0,2.4,4.4c1.24-1.48,2.31-1.61-.79-4.81C458.12,153.7,457.64,154,457.11,154.74Z"/><path class="cls-25" d="M501.19,162.24a6.2,6.2,0,0,1,.85,0,19.22,19.22,0,0,1,2.38.34c.13-1.19,0-2.75-1.29-2.27-.94.36-2.43-2.16-2.08,1.41A2.49,2.49,0,0,0,501.19,162.24Z"/><path class="cls-25" d="M492.75,162.12a7.66,7.66,0,0,1-1.27-.47l0,.24A9.48,9.48,0,0,0,492.75,162.12Z"/><path class="cls-29" d="M457.75,156.16c-.15-.41-.34-1-.54-1.56l-.1.13.28.65h0l.08.17,0,0,.06.14,0,.07.06.13,0,.05.06.13Z"/><path class="cls-25" d="M512.79,164a7.65,7.65,0,0,1-3.32-.77l-.15.55h.06l.1,0h.07l.13,0h.07l.1,0h.07l.1,0h.07l.15,0h.06l.11,0h.06l.11,0h.06l.14,0H511l.27,0h1.47C512.77,164.18,512.78,164.1,512.79,164Z"/><path class="cls-25" d="M554.6,160.83a10.75,10.75,0,0,0,1.85-.44,16.13,16.13,0,0,1-1.31-2.54c-.45-1.48-3-.69-.57,2.92Z"/><path class="cls-25" d="M556.45,160.39l0-.1-.75.33C555.92,160.56,556.19,160.48,556.45,160.39Z"/><path class="cls-23" d="M481,127.06c.19,1.2-.09,3.53,2.18,5.27,2,1.5,2-.64.69-2.73a6.67,6.67,0,0,0-2.22-1.83C481.4,127.61,480.8,125.86,481,127.06Z"/><path class="cls-30" d="M481,127.06c0,.1,0,.22,0,.34h0a1,1,0,0,0,.28-.07C481.11,126.83,480.86,126.22,481,127.06Z"/><path class="cls-23" d="M478,129.62s.59-3.9-.3-2c-.45,1-.23,1.21-.88,3.23C476.17,133.05,480.11,135.61,478,129.62Z"/><path class="cls-30" d="M478.21,128.1c.06-.83,0-1.5-.47-.45l-.12.27a.77.77,0,0,0,.58.18Z"/><path class="cls-23" d="M473.28,130.42c.26-.49,0-.89.13-1.35.28-1.12.77-2.05.39-1.62a10.35,10.35,0,0,0-2.51,3.79C472.1,132.08,471.82,133.25,473.28,130.42Z"/><path class="cls-30" d="M473.8,127.83c.15-.43.22-.63,0-.38l-.22.24.12.08Z"/><path class="cls-25" d="M503.78,162.45a10.68,10.68,0,0,0-2.66-.44l.08.24h2.59Z"/><path class="cls-28" d="M457.52,138.05c.51-.27,1.88-.91.63-1.49-.93-.43-.67.67-1.28,1.29-.35.35.14.74.55.23Z"/><path class="cls-1" d="M321.17,60.05c1.18-.48,2.71-1.25,4.25-1.79a96.22,96.22,0,0,0-1.59-13.83l-1,.26-1.75.45c-3.59.21-10.29,3.17-13.84,2.75-2.55-.3-3.93,1.74-4-.29a32.45,32.45,0,0,0-6.13.14,42.48,42.48,0,0,1-6.46.26,5.17,5.17,0,0,1-2.56,1.36c-3.51.9-7,1.61-10.61,1.1-1-.15-7.63.46-10.6.2-1.67-.15-10.75-2.72-12.79-2.13-.3.09-1.39,0-1.57-.28-2.91-.48,6.38-5.41,7.82-6.64,1.76-1.5,4.56-9.13,7.73-14.56a27.17,27.17,0,0,1,3.94-7c2-2.36.5-4.72,3.65-7.8,2-2,2.55-8.23,2.09-12.28-6.6,1.87-13.21,3.68-19.87,5.3-.49,3.45-.28,9-7,17.82-1.43,1.87-12.5,16.66-13,16.94-3.48,2.23-3.44,3.83-8.87,6.14-.22.09-2.05,1-2.1,1.1-5.59,4.76-9.55,5-16.76,6.88-4.73,1.23-9,.6-15.15,2.2A55.55,55.55,0,0,1,186.57,58l-7.22,1.2c-3.55,1-9.27.84-14.47,2.19-3.83,1-7.41.7-12.3,2a155.18,155.18,0,0,1-19,3.72,18.69,18.69,0,0,0-2.83.19c-3.52.44-12.79,2.59-15.58,2.61-3.65,0-16.83,5.4-25.71,5.41-2,0-15.06,3.22-18.78,3.83-1.71.28-6.3.88-7.57.29-.67-.32-4,1.51-4,1.52-4,1-5,3-10.71,4.46-7.88,2-6.87,3-16.23,3.17-3.12.06-8.58,1.29-10.81,3.55S8.54,95.77,8.67,96.65c-6-.27-3.61-.65-8.67.69,4.37,8.1,8.33,16.4,11.95,24.91,8.27-2.31,17.15-5,21.44-8.08.63-.45,12.57-.36,15.8-2.72.06,0,12-2.06,14.08-3.6l.63-.24c12.66-.23,30.21-9.27,47.48-13.17,12.61-2.84,29.37-6,41.3-6,7.92,0,25.81-6.17,35.6-7.84.1,0,3.53.6,3.73.54,1.31-4.37,21.67-5.23,26.95-6.6,3.74-1,11.59-2.59,19.24-3.69a5.35,5.35,0,0,0,1,.29c.84,1,6.89,3.62,10.42,6.57s8.25,18.77,5,20.8c-1.78,6.51-2.17,1.65-4.45,7.3a13.88,13.88,0,0,1-.63,1.54c-.12,0-.27.22-.42.51l12-3.1a.1.1,0,0,0,0-.07c.8-.2,1.1-2.35,1.59-2.46a1.86,1.86,0,0,1,.24-1.09c2.4-4.05-2.54-23.75-4.88-24.25-.08-.3-3.33-4.11-5.43-7.1a11.75,11.75,0,0,1,3.42.59c4.44,1.7,28.73-2.34,30.35,3.89.22.87,11.17,11.57,15.15,20.08l7-1.81c-.12-.29-.21-.55-.3-.78-1.16-3.16-6.56-10.11-8.46-15.31-1.62-4.46-4.72-4.21,3.84-5,5.84-.57,13.69,4.57,20.49,6a85.41,85.41,0,0,0,1.22-10.92,7.86,7.86,0,0,1-3.2-1.26C321.59,64.68,310.79,64.25,321.17,60.05Z"/><path class="cls-31" d="M188.34,72.22c-.66-.09-1.5.12-1.89,0-.62-.24-4.3.85-4.81,1.24-1.26.95-1.11,1.31-3,1.79s-.84.4-1.48.9c-.21.16-.19-.14-.45.29-.61,1-2.17,1.79-3.32,2.39a10,10,0,0,1-4.29,1.28c-1.25,0-2.52,1-3.74.79a8.55,8.55,0,0,1-2.5.3c-.18,0-2.49.3-.4-.24-.1-.35,2-.57,1.08-1.13s-.39,0-.89-.11c-.17,0-1.42-.67-2-.51s-1-.42-2.09-.14a4.07,4.07,0,0,0-1.57-.11l-1.2,0c-.16-.61-3,.08.32-.76,1.65-.44,0-.35,1.2-.66.5-.13-.14-.13.6-.33s0-.33,1.52-.73a7.37,7.37,0,0,1,4-.35l1.44-.38c1,.14-.4.45,1.38,0,1.19-.31,2.52-.14,4.14-.55s.09-.71,1.44-1.06c.17-.78.64-.4,1.08-1.13.59-1,6.07-2.08,7.58-2.48,2-.51,1.77-.6,3.86-.31a2.7,2.7,0,0,1,1.36,0,12.6,12.6,0,0,0,2.38-.1l6.74-1.73c.25,1-.75.18-1,1.61-.08.62-.57.43-.27,1.61a6.44,6.44,0,0,0,.17,1.32,1.7,1.7,0,0,0,.37.76l1.16.56c-1.33.35-9.34,2.5-10,2.4s-.65-.15-.52-.17.09,0,0,0h-.21c-.44,0-3-.29-2.38-1.27.44-.75.6-.31,1.32-.85s-.27-.27,1.2-.65c1.17-.3,2.24-.4,3.57-.75C189.48,72.62,189.76,72.42,188.34,72.22Z"/><path class="cls-32" d="M252.94,74.34c.38.23.16.51.92,1,.6.36,1.69,1.62,2.26,1.47.1.38,1.88.71,2.22.62a2.32,2.32,0,0,1,.38-.07L256.93,87c-1.08-4.35-2.58-10.18-3.09-10.49a8.89,8.89,0,0,1-1.78-1.59c-.32.08-.27-1-.89-.8C250.77,72.6,252.7,74.21,252.94,74.34Z"/><path class="cls-33" d="M248.15,75.07c.26-.07,1,1.37,0,.52a11.87,11.87,0,0,1-1.57-1.48c-1.24.32.55-.66-.61-.36-.12-.44-1-.16-1.29-.35-.55-.33-1-.12-1.62.06l3.25-1.18a5.86,5.86,0,0,1,.86,1.5C247.29,74.41,248.09,74.83,248.15,75.07Z"/><path class="cls-34" d="M230.77,63.45c1.22.17,4-1,6-.52a13.35,13.35,0,0,0,4.25-.76c.91-.48-.24-.28,1.53-.73.61-.16,2.57,0,2.7.51l-.64.16c-2.23.57-.68.69-1.81,1-.22,1-.43.78,1.05.75.39,0,1.24-.51,1.32-.17,3.32.23,2.52,1.62,3.28,2.06s-.09.71.48.56a4.08,4.08,0,0,1,.57.88c1.5.32,3.19,2.26,3.48,2.19,0,.09.08.26.15.44l-6.89,2.5c-.67-.91-1.55-1.82-2-1.7-.18-.69-2.16-1.27-2.79-1.51a6.12,6.12,0,0,0-2.34-.42,4,4,0,0,1-1.53,0c-1.4.37-2,0-3.49.39-.87.23-5.64.54-5.47-.64,0-.33,3.53-1.09,4.13-1.24.76-.2,1.35-.52,1.72-.62,1.94-.49.92-.29,2.61-1.18s-1.3-.86-1.42-.84-3.2-.65-3.58-.61a2.91,2.91,0,0,1-1.37,0c-1-.13-2.13.3-2.53.14-.21-.08-.74-.21-.76-.31A6.38,6.38,0,0,1,230.77,63.45Z"/><path class="cls-35" d="M285,70.93c.29-.08,1.92.1,2,.35,1.23-.32,5-1.39,5.43.48.35-.09.88.46,1.13.39,1.45,1.68-3.45,1.21-3.69,2.32a9.86,9.86,0,0,0-2.36,1.08,6.61,6.61,0,0,1-1-1.31c-.41-1.55-2.22-2.47-4.8-3A8.54,8.54,0,0,1,285,70.93Z"/><path class="cls-36" d="M297.86,79.08c.95,3.69,4.29,7.34,5.47,11.94.14.56.41,1.5.75,2.66l-2.49.64a49.31,49.31,0,0,0-5.52-8.63,4.12,4.12,0,0,1,1.88,1.06c2.16-.55-3.6-7.45-4.44-7.24-.15-.62-.79-.41-1-1.13-.52.14-.4-.75-.85-.63-.19-.75-.78-.37-1.31-2.4.88-.22,3.28,1.9,4.2,1.66C294.93,78.37,297.52,77.78,297.86,79.08Z"/><path class="cls-37" d="M268.79,64c1.42-1.06,5.76-2.16,7.79-2.34.8-.07.94-.11,1.84-.14.09,0,1.16-.12,1.17-.13.1.39.32-.06.68,0a2.22,2.22,0,0,0,1.41.16c1.14-.3.18.17,1.42.15.57,0,.49.38,1.4.14a22.44,22.44,0,0,0,2.53-.13c.87-.23.82.3,1.89,0a5.52,5.52,0,0,0-1.69-.59c-.08-.33-3-1.44-3.26-1.39a.27.27,0,0,0-.07-.13,2.31,2.31,0,0,0,1-.12s1.1-.14,1.16-.13c.79.11-.11.37,1.37,0,.09.34,2.69-.24,2.85-.22,1.22.17,1,0,1.38,1.36.27,1.06.12,1.37,1.13,1.76a17.4,17.4,0,0,0,3.51,1c.11.46,1.61,0,2.08.15s1.24-.25,1.49-.21l.41.24a8,8,0,0,1,1.52-.05c.08.28.19.13.68,0,.07.28,0,.17.53,0,.43.48.32.13,1.09.23.41.05,2.26,1.13,2.82,1,.23.27,1,.76,1.14,1.08.36.67.93.94,1,1.28.26,1,.22-.47.48.56a10.91,10.91,0,0,0-1.85.13,2.37,2.37,0,0,0-1.45-.31c-.36.09-.9-.26-1.26-.47.84.16,1.64.32,2.27.39L305,66.8l.07,0a11.74,11.74,0,0,0-4.25-.33,26.15,26.15,0,0,1-5.5,1.24l-1.13.29c-.58-.67-1.57.36-2.33.26-.92-.13.31-.42-1.37,0a12.31,12.31,0,0,1-3.82.46c-.4,0-.1.22-.84.05s-.57.15-1,.08a1.53,1.53,0,0,0-1.09-.23c-.48.12-.57-.37-1.09-.24.63-.16,7.84-2,7.87-2,1.13.15,2.74-.53,3.9-.84a23.61,23.61,0,0,0-4.51-.2c-.78.2-1.19-.2-1.89,0a6.54,6.54,0,0,1-2.21.06c-.56-.12-.58,0-1.16.13-.4-.46-.24-.29-1.05-.08-.09-.36-1.26-.35-1.65-.43-.78-.17-.1-.49-1.4-.16a2.67,2.67,0,0,0-2-.35c-.71-.8-.4.41-1.77-.22a25.79,25.79,0,0,0-4.18.39,13.36,13.36,0,0,1-4.14.55c-.15,0-1.35.18-1.49.21-.44-.51-.13-.1-1.09-.23-.56-.08-2.57.31-.41-.24A15.59,15.59,0,0,0,268.79,64Z"/><path class="cls-38" d="M258.18,88.75a3.41,3.41,0,0,0,0-1.37l.23-.4c.09-.57-.61-.53.48-.81l1.86,7.22c.41,1.61-.19.61,0,1.22a20.37,20.37,0,0,1,0,4.78,6.27,6.27,0,0,1-.11,2.26c-.47.8-.15.71-.39,1.13a4.43,4.43,0,0,0-.11-3.05c-.42-1.61-.18-2.19-1.66-1.8.35,1.37,0,.79.09,1.69s-.32,1.42-.26,1.6a9.88,9.88,0,0,0-.65.85c-.45.75-.89.64-1.43,1s-1.29.71-1.4,1.22c-.68.18-1.13,1.21-1.43,1.62l3.52-19c.53,2.15,1,3.94,1.11,4.53C258.29,90.38,257.91,89.73,258.18,88.75Z"/><path class="cls-39" d="M315.87,56.1c-.3.49-6.22,1.94-7.31,2.22-2.23.58-1.66.19-3.54.23a27.52,27.52,0,0,0-4.42.1c-1.25.32-1.92.15-2.65.34a10.76,10.76,0,0,1-4.59-.53c-1.29-.77.06-.88.76-1,1.64-.43.48-.11,1.2-.65a9.38,9.38,0,0,0,1.08-.45c.78-.59,1.64-.82,2.24-1.27,1.09-.82,1.42-.71,2.81-1.07.68-.18,3.48-2.25,3-2.84-.23-.31-4.16.88-4.62,1.36-.71.74-.63-.27-.84.73l-.8.21c-1.31.33-1.53,1.09-2.85.9-.05,0-3.64,1-3.69,1-1.44-.21-1.43.77-2.74,0-.73.19-.32.12-.84,0-.34,0-1.64.29-1.74-.07-1.46.38-2.25-.27-2.77-.14-.15,0-3.37-.39-3.54-.46-1.18-.47-.24.1-1.09-.23-1.35-.53-4.82.72-6.23,1.09-1,.24-1.18.06-1,.61,0,0,2.93.77,2.94.78.63.37.36-.37.92.28,1-.26,1,.25,1.45.31l.32-.08a4.25,4.25,0,0,1,1.31.52c-1.33.34-.59-.2-1.19,0-1,.25-1.62-.27-2.1-.15-.79.21-5-.06-5.15-.73-.48.12-.45.23-.52,0a3.39,3.39,0,0,1-2,.17c-.76-.11-.79-.32-1.45-.32-.45,0-2.94-.6-3.06-.58a16,16,0,0,0-3.62.6c-2,.51-2.85.21-2.39,2,.16.65,2.22,1.3,2.94,1.46.93.19,4.49.2,4.5.21,1.08.42-.76.71-1,.77-1.52.39-.55.12-1.37,0l-1.92.5c-.78.2-1-.26-1.73-.07s-2.07-.32-2.46-.23c-.64.17-2.66-.74-2.94-.78-.5-.08-.61-1.73-1.26-1.56-.19-.74-.5.06-.78-1-.76-2.95-.15-2.71-2.1-2.2-1.62.42-.26.41-1.2.65-.66.17-1.27,1-.8.89.75.86,1,.59,1.3,1.72a3.1,3.1,0,0,1-1.65.26c-1-.31-1.37.34-2-.36a1.23,1.23,0,0,1-1-.07c-.51-.29-1,.08-1.4-.15s-.4.09-1.22,0c-.43-.06-2.17.84-2.29.42-.78-.17-1.64.38-2,.33-1-.14-.8.19-1-.6s1.81-1.31,2.17-1.58c.86-.65,3.16-1.16,4.4-1.47.27-.07,1.62-1,1.56-1.27.94-.24,1.54-1.34,2.4-2s3.2-3.39,3.4-3.44a1.49,1.49,0,0,1,.56-1.17c-.14-.52.86-1.64,1.36-2.38-.36,1.26-.24,2.28.89,2.46.18.27,1.27.37,1.57.28,2-.59,11.12,2,12.79,2.13,3,.26,9.56-.35,10.6-.2,3.59.51,7.1-.19,10.61-1.1A5.17,5.17,0,0,0,290.68,48a42.48,42.48,0,0,0,6.46-.26,42.3,42.3,0,0,1,4.76-.22l-.21.06c-2.35.61-.87.14-.32.76.22,0,1.2,0,1.25.2a3.86,3.86,0,0,1,2.54.55,2.85,2.85,0,0,1,1.73.07,5.56,5.56,0,0,0,2.62.19c.53,0,.49.39,1.09.23a28.24,28.24,0,0,1,6.39-.44c1.74.3-1.44.4-2,1s-2.22.3-3.24,2c0,0-2.35,1.46-2.53,1.51-1.13.29-.52.42-1.16.81-.08,0-1.47.35-1.6.41-2,1.08-.67.74-.59,1,.9-.24.13.3,1,.07,1.42-.37-.07.53,1.57.11,2.12-.54-.16.55,2.13,0,2.14-.06,6.11-1.67,7.67-1.12C317.47,55.68,316.41,55.17,315.87,56.1Z"/><path class="cls-40" d="M324.16,73.55a3.35,3.35,0,0,1,.61-.09c.06-.43.11-.85.16-1.28-.45-.37-2.44-1.15-2.52-1.44-.45.12-.53-.73-.65-1.2.91-.24,2.69-.9,3.45-.55h0q.1-1.28.16-2.56a7.86,7.86,0,0,1-3.2-1.26c-.61-.5-11.41-.93-1-5.12.4-.16.83-.35,1.28-.56a7.85,7.85,0,0,0-1.67.2c-1.2.3-1.39-.16-2.7.19a10.84,10.84,0,0,1-2.85.55c-1,.25.15-.37-1.61.08-1.47.38-.9.75-2.28,1.1a15.27,15.27,0,0,0-3,1.1c-.27.46-.63.44.25,1,.62.37,2.69,1.14,2.83,1.68.51-.13,2,.85,2.74.66l.65.52c.4-.1.89.87,1.16,1.24.58.77.36,1.27.71,2,.64,1.45.33,1.69,1.67,2.48a13.17,13.17,0,0,0,4.71,1C324,73.29,322.85,73.88,324.16,73.55Z"/><path class="cls-41" d="M323.59,48.69a7,7,0,0,1,.91-.16q-.3-2.06-.68-4.09l-1,.26-.63.16c0,.55-.24,1.52-.58,1.6.09.33.1.31-.24.41.11.42-.46.33-.68.69s-1,.37-.19,1.24C321,48.66,321.85,49.14,323.59,48.69Z"/><path class="cls-42" d="M324.67,52.86l.36-.1q-.14-1.4-.32-2.79a2.13,2.13,0,0,1-.86.37c-1,.27-2.64.41-3.29,1.2-.1.12-1.07.59.29,1.12A15.64,15.64,0,0,0,324.67,52.86Z"/><path class="cls-43" d="M265.89,7a5.22,5.22,0,0,0-1.15,1.5c-.76.2.25.45-.85.73-.17.83-1.25,1-.79.2s-.15-1.76.18-2.62-.23,0,.12-.88a4.36,4.36,0,0,0,.51-2,.57.57,0,0,1,0-.09q-3,.77-6,1.51c-.49,3.45-.28,9-7,17.82-1.43,1.87-12.5,16.66-13,16.94-3.48,2.23-3.44,3.83-8.87,6.14-.22.09-2.05,1-2.1,1.1-5.59,4.76-9.55,5-16.76,6.88-4.73,1.23-9,.6-15.15,2.2A55.55,55.55,0,0,1,186.57,58l-7.22,1.2c-3.55,1-9.27.84-14.47,2.19-3.83,1-7.41.7-12.3,2a155.18,155.18,0,0,1-19,3.72,18.69,18.69,0,0,0-2.83.19c-3.52.44-12.79,2.59-15.58,2.61-3.65,0-16.83,5.4-25.71,5.41-2,0-15.06,3.22-18.78,3.83-1.71.28-6.3.88-7.57.29-.67-.32-4,1.51-4,1.52-4,1-5,3-10.71,4.46-7.88,2-6.87,3-16.23,3.17-3.12.06-8.58,1.29-10.81,3.55S8.54,95.77,8.67,96.65c-6-.27-3.61-.65-8.67.69q2.63,4.87,5.05,9.83l.88-.23a5,5,0,0,0,2.29-.07c4.8-1.23,17.22-3.82,20.8-5.7.07,0,3.64-.94,4.18-1.07-.15-.57,1-.62,1.84-.82-.16-.63,3.61-2,4.57-2.21,2.29-.59,3.18-1.16,5.7-1.81,5.49-1.41-3,3-3.28,3.24-.85,1,.21.63-1.44,1.05-.3,1.43-2.25,1.1-3.28,1.88s1.07.4-2.73,1.37c-1.25.33-14.39,3.73-14.45,3.73-2.64-.37-4.85,1.59-2.17.9,1.28-.33-.29.76,2.1.15a14.81,14.81,0,0,0,4.74-.19c2.28-.59,4.71-1.42,6.91-1.1a33.77,33.77,0,0,0,6.18-1.25c1.57-.82,1.22-1.34,2.33-1.62,0,0,2.94-1.69,3.28-1.87a22.34,22.34,0,0,0,2.73-1.39c-.22-.87,2.13-1,1.82-2.18,1.84-.48-.82-.13,1.53-.74-.3-1.15.57-.39,1.67-1.46.5-.47,14.54-4.4,15.33-4.29,4.62.65,9.53-2.93,14.14-2.27,2.17.3.51.55,3.38-.18l2.25-.58c-.12-.46.68-1.54,1.27-1.7,2.85-.74,6-1.21,8.59-2.56a32.62,32.62,0,0,1,4.09-1.4c1.63-.42,5.66-1.3,6.67-2.06,1.4-1.05,1-.28,2.52-1.51l0,0c.63.42,1.43.77,2,1.22,1.87,1.55,3.93,1.39,6,.84.1.39,2.61.33.5,1.93-.07.05-3.06,1.81-3.29,1.87l-3.53.92c-.27-1.08-4.29,1.44,3.93-.68,4.42-1.14,8.21-2.46,12.77-3.63,1.62-.42,9-2.43,8.58-3.92-.23-.92-3.33-.86-4.27-.62-.52.14-.29.2-.49-.55,2.78-.71,4.56-2.54,7.39-3.27,1.17-.3,3.83-2.09,5.14-1.32.89.52,1.71,0,1.93.87.47-.12,1.91,1.22,3.63.78.94-.24-.16.38,1.68-.09a2.47,2.47,0,0,0,2.57.7c.19.73,1.78.91,2.58.71,2-.52,2.11.32,3.85-1,.29-.22,6.51-2.36,7.23-2.55a16.67,16.67,0,0,0,4.73-1.56A17.7,17.7,0,0,1,179.88,68c1.56,0,7-1.78,7.79-1.66s-.28.76,2.09.14c.61-.16,1,.43,2.42.06.69.8,1.41.26,3.13.23,3.48-.07,1,.76,5.06-.29,1,1.14,2.69-.32,3.87.38.84.5,13.42-3.07,7.46-2.95-1.68,0-1.35,1.4-1.94-.87.52-.14.55-1.85,2.47-2.35.29-1.29,2.6-1.7,3.93-2l7.06-1.82a4.1,4.1,0,0,1,2.07-2.58c1.75-.15,1.19-.48,2-.7-.11-.43,1.45-1.06,1.93-1.18.72-.19,1.46-.72,2.32-.93l.64-.17c.13.49,2.26-.6,2.73-1.39.18-.32.17-.39.55-.49.18-.8,2.18-2.1,3-2.31-.1-.39.65-.41.84-.73a7.18,7.18,0,0,1,.84-.73c1.68-1.26-.11,2.43-.39,2.49.14.55-.27-.38,0,.69l-.28.24c.13.47-.71.56-.59,1-1.46.38-1.63,1.35-2.59,1.86l-1.37.69c-.2.95-1.27.76-1.71,1.3a19.9,19.9,0,0,1-3.7,1.63,10.74,10.74,0,0,1-1.24.49,5.82,5.82,0,0,1-1.16.82c-.38.1-.5.05-.4.44-.55.14-.64.68,0,.51a15.06,15.06,0,0,0,1.65-.24l2.56-.66c-.1-.38,2-.81,2.17-.9,1.15-.7-.35-.25,1.05-.61a16.19,16.19,0,0,0,2.32-1.63c-.08-.3.21-.22.44-.28-.08-.31.91-.9,1.24-1.18-.05-.22,1.29-.75,1.65-.94s.39-.44.88-.57c.78-.2.25-.58,1.32-.85a3,3,0,0,0,1.49-1.58,3.3,3.3,0,0,1,.11-.89c.16-.74-.05-.4,0-.68.15-1,.42.26.08-1a3.73,3.73,0,0,1,.75-2.42c.08,0,2.45-2.81,3.24-3.4a3,3,0,0,1,.75-.36s1.11-1.27,1.2-1.34c.58-.44.07.35.56-.49.25-.43,1.19-1.32,1.55-1.93s1.09-1.19,1.24-1.86c.21-.05.91-.93-.41-.24a12.33,12.33,0,0,0-3.67,3.69c-.43.73-1.15.67-1.76,1.14s.26.28-1.36.69c.15-.26.47-.85.4-1.12.94-.83,0-.86,1.1-1.66a17.53,17.53,0,0,0,2.31-3.68c.6-.15,1.15-2.18,2-2.38-.15-.57,1.88-1.56,2.32-2.31s.3.3.71-1.21c.19-.64.7-2.23,1.27-2.38-.11-.45.11-.24,0-.69.8-.51,1.73-2.62,2.21-.73.39,1.51-1.06,2.93-1.14,3.55-.23,1.62,1.54-1.18,1.64-1.62a4.2,4.2,0,0,0,1.79-2.35c.08-.56,2.05-2.5,2.38-4,.41-.11.62-1.53,1-1.61-.23-.91,1.18-2.4-1.33-.51a5.2,5.2,0,0,0-1.07,2.49c0,.3,0,.87-.48.81-.22,0-1.53-3.71-.51-4-.17-.68.44.43.76-1.05.53-.14.84-.73,2.28-1.1,1.86-.48,1.52-1.42,2.16-1.59-.21-.77.25-.33-.09-1.69.51-.45,0-.85.59-1C265.72,8.28,268.07,5.56,265.89,7Z"/><path class="cls-44" d="M9.42,116.47q-.77-1.71-1.55-3.41l.21-.07c-.09-.34.57-.3-.24-.29a.6.6,0,0,1-.14,0c-.52-1.11-1-2.21-1.57-3.3a22.64,22.64,0,0,1,2.94-.57,6.26,6.26,0,0,0,2.57,0,16.17,16.17,0,0,0,2.73,0c-1.14,1.27-1.21.61-1.64.94,0,0-.48.64-.84.73a2.21,2.21,0,0,0-1.08,1.81c.29,1.13.16.82,1.82.39s9.08-2.6,10.16-2.43l.36.07-.35.61c-.54.14-1.8.81-2.49,1-1.72.44-7.76,1.64-8.55,2.71A8.22,8.22,0,0,1,9.42,116.47Z"/><path class="cls-45" d="M129.56,87.35c.53-.13.48-.26.88-.56s2.24-.78,2.65-1l.39-.44,6.75-1.74A5.11,5.11,0,0,0,143.08,82a6.71,6.71,0,0,1,3.53-1.6c.68-.18,2.05-.88,2.49-.3.31.41-.9,1.43-1.31,1.54-.63.16-1.13,1.61-1.08,1.82,1-.28.18.12,1-.09a13.53,13.53,0,0,1,2.77-.54c4.33-.39,2.64.31,2.86,1.15a5.22,5.22,0,0,1-1.47.9c-1.48.38-.3,0-1,.61l-1.93.5a12.43,12.43,0,0,0,3.47.82,23.52,23.52,0,0,1,3.3.18c2.13.14,12.74-2.94,16.14-3.82,1.85-.47,1.52.12,3.34-.35a25,25,0,0,1,4.37-.27c-9.5,2.43-20.94,5.85-26.85,5.87-1.42,0-2.9.06-4.44.14l-.08-.16a8.84,8.84,0,0,0-1.38-2,18.67,18.67,0,0,0-3-1.1c-1-.14-2.53.48-3.58.76a7.35,7.35,0,0,0-1.24.48c-1.52.4-.25,0-1,.62-.55.41-7.44,2.09-8.47,2.35-1.51.39-1.57.22-1.3-1C128.63,88.28,129.19,87.45,129.56,87.35Z"/><path class="cls-46" d="M266.9,3c.07.14.24.22.58.13l1.93-.49c-.08-.28.37-.27.76-.37a.87.87,0,0,1,.06-.17Z"/><path class="cls-47" d="M255,72.92l-.21-.28a.63.63,0,0,0,.21.28Z"/><path class="cls-17" d="M291.58,75.19s-7.38,6.14-6.5,13.06S291.16,102,291.16,102,306.59,80.85,291.58,75.19Z"/><path class="cls-18" d="M291.45,73.24s-7.31-1-12.62,3.55-9.17,11.59-9.17,11.59S291.64,85.63,291.45,73.24Z"/><path class="cls-17" d="M51.25,107.53s-7.38,6.14-6.5,13.06,6.08,13.73,6.08,13.73S66.26,113.18,51.25,107.53Z"/><path class="cls-18" d="M51.11,105.57s-7.31-1-12.62,3.55-9.17,11.59-9.17,11.59S51.31,118,51.11,105.57Z"/><path class="cls-19" d="M54,107.21s4.8,4,4.23,8.49-4,8.93-4,8.93S44.24,110.89,54,107.21Z"/><path class="cls-18" d="M53.07,107.12s7.31-1,12.62,3.55,9.17,11.59,9.17,11.59S52.87,119.5,53.07,107.12Z"/><path class="cls-20" d="M221.36,45.84c.14-.31.28-.62.43-.92a2.14,2.14,0,0,1,1.27-1.23.48.48,0,0,1,.33,0,.4.4,0,0,1,.14.48,1,1,0,0,1-.35.41,4.53,4.53,0,0,0-1.26,1.11,1.93,1.93,0,0,0,.82-.2c-.09,0-.29.5-.38.6a2,2,0,0,1-.6.45c-.15.07-.52.26-.63.1S221.29,46,221.36,45.84Z"/><path class="cls-20" d="M218.08,36.45a16.14,16.14,0,0,1,.74,2.69,1.19,1.19,0,0,1,0,.51,1.24,1.24,0,0,1-.3.48c-.57.67-1.12,1.4-1.74,2,.17-.86.51-1.71.72-2.57S218.27,37.26,218.08,36.45Z"/><path class="cls-20" d="M206.5,35a5.36,5.36,0,0,1,1.88-.73.87.87,0,0,1,0,1c-.06.08-.14.16-.14.26s.31.24.51.15a1.42,1.42,0,0,0,.52-.42.37.37,0,0,1,0,.56c-.09.07-.21.1-.28.18s0,.44.22.49a.69.69,0,0,0,.58-.21.75.75,0,0,1,.3-.21.4.4,0,0,1,.42.24,1,1,0,0,1,.06.51,3.26,3.26,0,0,1-.94,2,1.2,1.2,0,0,1-.74.4c-.71,0-1-.73-1.44-1.13s-.84-.37-1.26-.65C205.27,36.8,205.67,35.55,206.5,35Z"/><path class="cls-20" d="M192.89,35.82a3.87,3.87,0,0,1-.38-2.54.18.18,0,0,1,0-.08c.06-.07.17,0,.24.05a2.48,2.48,0,0,1,.52,1,14.61,14.61,0,0,0,.57,1.36c.08.16.24.34.39.25s.1-.18.1-.29l0-2.85c0-.2.06-.45.25-.47s.25.11.33.22a3.6,3.6,0,0,1,.53,2.7c-.08.41-.24.8-.32,1.21a5.15,5.15,0,0,1-.27,1.21,1,1,0,0,1-.58.55c-.33.1-.37-.08-.48-.34C193.56,37.12,193.19,36.49,192.89,35.82Z"/><path class="cls-20" d="M129.83,32.55a1.89,1.89,0,0,1,.26.34l1.77,2.65a.4.4,0,0,0,.2.19c.23.07.35-.27.37-.51a10.25,10.25,0,0,1,.5-2.62c.09-.27.32-.61.59-.49a.52.52,0,0,1,.23.28,12.32,12.32,0,0,1,.82,2.81,8,8,0,0,1,.25,2.16,2.21,2.21,0,0,1-3.15,1.9c-.6-.25-.9-1.1-1.19-1.65a22.12,22.12,0,0,1-1.95-5.13,1.43,1.43,0,0,1,1.19,0Z"/><path class="cls-20" d="M142.75,34.24a2.21,2.21,0,0,1,.22.35l1.51,2.71a.43.43,0,0,0,.17.2c.18.08.26-.25.26-.48a12.1,12.1,0,0,1,.25-2.56c.06-.27.22-.58.43-.45a.59.59,0,0,1,.19.29,16.2,16.2,0,0,1,.78,2.82,10.47,10.47,0,0,1,.31,2.15c0,1.53-1.1,2.42-2.33,1.71-.48-.28-.75-1.14-1-1.7a28.81,28.81,0,0,1-1.77-5.17.89.89,0,0,1,.91.05Z"/><path class="cls-20" d="M153.35,35.59a1.87,1.87,0,0,1,.16.27L154.6,38a.35.35,0,0,0,.12.15c.13.06.17-.18.17-.37a10.24,10.24,0,0,1,.12-2c0-.2.14-.44.28-.34a.5.5,0,0,1,.14.22,14.18,14.18,0,0,1,.6,2.19,9.14,9.14,0,0,1,.25,1.66c0,1.17-.71,1.84-1.57,1.27-.33-.22-.54-.89-.73-1.33a25.14,25.14,0,0,1-1.32-4,.56.56,0,0,1,.63.06Z"/><path class="cls-20" d="M162.71,35a1.87,1.87,0,0,1,.16.27L164,37.39a.35.35,0,0,0,.12.15c.13.06.17-.18.17-.37a10.24,10.24,0,0,1,.12-2c0-.2.14-.44.28-.34a.5.5,0,0,1,.14.22,14.18,14.18,0,0,1,.6,2.19,9.14,9.14,0,0,1,.25,1.66c0,1.17-.71,1.84-1.57,1.27-.33-.22-.54-.89-.73-1.33a25.14,25.14,0,0,1-1.32-4,.56.56,0,0,1,.63.06Z"/><path class="cls-20" d="M171.52,36c.28-.06.6.32.85.15a.48.48,0,0,0,.16-.34l.11-.68a.78.78,0,0,1,.27-.57.17.17,0,0,1,.2,0c.13.11.15.4.23.55a3.28,3.28,0,0,1,.22.38,9.92,9.92,0,0,1,.34,1.41,9.14,9.14,0,0,1,.25,1.66c0,1.17-.71,1.84-1.57,1.27-.33-.22-.54-.89-.73-1.33a6.6,6.6,0,0,1-.59-1.9c0-.22,0-.49.2-.57Z"/><path class="cls-20" d="M182.49,33.86c0,.09,0,.17,0,.26a1.22,1.22,0,0,0,.06.48.45.45,0,0,0,.36.29.52.52,0,0,0,.43-.26c.1-.14.16-.31.27-.45a1.69,1.69,0,0,1,.92-.48,1,1,0,0,1,.41-.06.35.35,0,0,1,.31.24.44.44,0,0,1-.23.42,1.46,1.46,0,0,0-.4.3c-.28.4.09,1.33.1,1.8,0,1.17-.71,1.84-1.57,1.27a6.59,6.59,0,0,1-1.5-2.64,3.36,3.36,0,0,1-.31-1.56,1.42,1.42,0,0,1,.89-1.23A3.14,3.14,0,0,1,182.49,33.86Z"/><path class="cls-21" d="M111.11,69.7c.77,2,17.52,5.35,16.49,1.32C125.44,62.59,108.22,62.24,111.11,69.7Z"/><path class="cls-22" d="M113.15,71a35.31,35.31,0,0,0,8,1.79,13.54,13.54,0,0,0-2.88-2.33c-2.62-1.63-5.18-2.24-5.72-1.36C112.26,69.49,112.52,70.18,113.15,71Z"/><path class="cls-23" d="M198.87,59.89s-5.06.09-4.88,1.3C194.58,65.29,201.39,61.81,198.87,59.89Z"/><path class="cls-23" d="M136.18,70.07c0,.61-2.11,1.21-2.53,1.14-1-.17-2.63.61-3-1C130.61,70.05,136.23,67,136.18,70.07Z"/><path class="cls-23" d="M138.92,70.21c1-.27,2.72-.14,3.27-1.07.23-.4,0-1.16-.44-1.83C137.12,66.83,135.62,71.12,138.92,70.21Z"/><path class="cls-23" d="M144.88,68.67a6.92,6.92,0,0,1,3,.27c2.71,1.27.69,4-1.39,2.95-.9-.45.14.66-1.43-.78-.25-.23-.54,0-1.46-.65-.49-.33-.85-1.14-.54-1.61C143.13,68.8,143.15,67.71,144.88,68.67Z"/><path class="cls-23" d="M164.39,68.46c0-.07,7.18-3.72,7.89-2.08C174.69,71.9,162.38,72.74,164.39,68.46Z"/><path class="cls-23" d="M175.34,65.36c0-.07,6.18-3.49,6.86-1.84C184.47,69.1,173.7,69.57,175.34,65.36Z"/><path class="cls-23" d="M191.46,61.35c-.06,0-7.58.32-7.37,1.93C184.83,68.75,195.16,63.82,191.46,61.35Z"/><path class="cls-21" d="M168,39.21c.55.06,1.28.71,1.76,2.34,1.66,5.53,5.74,20.78,5.1,23.09-.3,1.1-8.55,6.36-13,4.31-1.24-.57-2-23.85-2.87-27.31-.2-.86.29-1.43,1.15-1.82s2.43.09,3.67,0C165.84,39.69,167.49,39.15,168,39.21Z"/><path class="cls-21" d="M149.35,42.27c2.54-2.2,5.87-3.05,10-1.82.57.17-.28,1.17.23,2.85,1.74,5.73,3.11,23.24,2.37,25.65-.35,1.14-5.61,3.2-10.92,2-3.39-.77-.56-21.49-2-27.33A1.31,1.31,0,0,1,149.35,42.27Z"/><path class="cls-24" d="M154.61,39.94c-2,.7-3.9.24-2.5,15.76,1.1,12.11-3.27,15,2.73,15.61a15.3,15.3,0,0,1-3.82-.36c-3.39-.77-.56-21.49-2-27.33a1.31,1.31,0,0,1,.29-1.35A9.45,9.45,0,0,1,154.61,39.94Z"/><path class="cls-21" d="M176.51,37.82c.48.07,1.1.72,1.55,2.28,1.55,5.33,5.41,20,4.93,22.17-.23,1-5.18,5.41-9,3.33-.61-.33-.84-.8-1.13-2.07-1.2-5.29-3.35-18.41-4.44-23C167.82,37.89,175.4,37.65,176.51,37.82Z"/><path class="cls-24" d="M181,51.32a4.1,4.1,0,0,1-.61.16c-.9-2.27-1.89-11.95-4-13s-6,.31-6.4,1.5c-.57,1.75,2.12,20.35,4.89,23.12.32.32,2,2.42,3.35,2.13a11.37,11.37,0,0,0,4.44-2.4c-1.14,1.5-5.36,4.63-8.69,2.81-.61-.33-.84-.8-1.13-2.07-1.2-5.29-3.35-18.41-4.44-23-.63-2.64,6.95-2.88,8.06-2.71.48.07,1.1.71,1.55,2.28C178.78,42.57,180,47,181,51.32Z"/><path class="cls-21" d="M177.94,38.56a9.63,9.63,0,0,1,9.13-1.79c.5.15,1.22.62,1.67,2.08,1.52,5,6.29,21.84,4.23,22.61a28.39,28.39,0,0,1-10.14,1.75c-.74,0-.93-.72-1.19-1.91-1.12-5-2.93-17.28-4-21.57A1.13,1.13,0,0,1,177.94,38.56Z"/><path class="cls-25" d="M180.77,36.9a9.79,9.79,0,0,1,5.14-.41c.3.87,1.22,1.23.41,3.33s-2.79-2-5-.81C181.13,39.17,180.86,38.11,180.77,36.9Z"/><path class="cls-24" d="M177.94,38.56a9.26,9.26,0,0,1,2.23-1.41c-.72.8-1.34,2.1-.92,4.45,2,11.16.56,17.4,5.65,20.17,1.45.79,3.2.16,6.07.37a31.22,31.22,0,0,1-8.13,1.08c-.74,0-.93-.72-1.19-1.91-1.12-5-2.93-17.28-4-21.57A1.13,1.13,0,0,1,177.94,38.56Z"/><path class="cls-21" d="M201.73,38.91c1.75,4.56.15,18.4-.67,20.42-.39,1-2.94,1.9-7.22,1.94-2.48,0-3.73-19.77-6-23.59-.21-.36.16-.89.63-1,1-.32,3.19,0,5.42,0,1.53,0,2.89-.6,4.27-.23C199.89,36.91,201.26,37.7,201.73,38.91Z"/><path class="cls-24" d="M201.47,57.65a10.32,10.32,0,0,1-.41,1.68c-.39,1-2.94,1.9-7.22,1.94-2.48,0-3.73-19.77-6-23.59-.21-.36.16-.89.63-1,1-.32,3.19,0,5.42,0h.17c-2.2.36-4.08-.33-4.07,2.92,0,5.84,1.44,10.52,2.15,15.44.43,3,.3,5.21,4.6,5.21a11.4,11.4,0,0,0,3.36-.52c.92-.32.25-2.6.62-3.65A14.38,14.38,0,0,1,201.47,57.65Z"/><path class="cls-21" d="M199.89,36.93c2.35-1.91,13.64,1.25,14.81,5,1.33,4.28-2.83,12.21-3.46,14-.3.86-5,3-10.18,3.33-.66,0-.43-17.24-1.43-21.38A1,1,0,0,1,199.89,36.93Z"/><path class="cls-25" d="M204.49,36.54a22.79,22.79,0,0,1,6.82,2.24,7.6,7.6,0,0,0-.73,1.49c-1.08,2.85-.56-2.17-6.35-1.39C203,39.05,203.11,37.72,204.49,36.54Z"/><path class="cls-24" d="M211.35,38.81c1.69.91,3,2,3.35,3.16,1.33,4.28-2.83,12.21-3.46,14-.16.47-1.64,1.31-3.77,2a2.76,2.76,0,0,1,2-1.42c1.83-.64,2.23-4.5,3-7.92.54-2.52,1.47-4.67,1.34-5.49C213.29,40.12,212.39,39.91,211.35,38.81Z"/><path class="cls-21" d="M150.15,41.64c2.34,2.17.83,25.1-.12,28.19-.11.36-.62,1.28-1.19.87-1.83-1.3-1.77-2.07-4.59-1.41a2.27,2.27,0,0,1-2.43-1.85c-.75-3.31-6-10.93-6.25-17-.18-4.39,3-7.63,2.52-9.7C137.36,37.73,149.12,40.68,150.15,41.64Z"/><path class="cls-24" d="M150.18,69.19c-.05.26-.1.48-.15.64-.11.36-.62,1.28-1.19.87-1.35-1-1.67-1.63-2.88-1.65h0c.61-.08.46-.29,2.26.59.51.25,1.32.93,1.64.21Z"/><path class="cls-24" d="M145,40c-3,.2-6.26,0-5.31,3.5s2,20.08,3.55,24.89c.28.88,1,.82,1.4.81h0l-.42.09a2.27,2.27,0,0,1-2.43-1.85c-.75-3.31-6-10.93-6.25-17-.18-4.39,3-7.63,2.52-9.7-.41-1.72,3.25-1.49,6.65-.81L145,40Z"/><path class="cls-21" d="M127.31,39.72a9.08,9.08,0,0,1,5.2-1.61c4.18.06,7.73.2,6.4,2.74-1.69,3.25,4.86,26.93,3,27.56-.86.29-1.8.23-2.39.46-1.06.41-1.51,1-2,1.12-.76.17-1.57-.3-1.91-1.53-1.3-4.65-9.69-21-10.88-26C124.61,41.89,127,40,127.31,39.72Z"/><path class="cls-25" d="M129.58,38.59a9.37,9.37,0,0,1,2.93-.47,31,31,0,0,1,4.59.29c-2.62,6.1-7.39.78-7.42.65S129.61,38.74,129.58,38.59Z"/><path class="cls-24" d="M127.31,39.72a4.9,4.9,0,0,1,1.05-.65c-2.15,3-1,6.43.67,9.83s7.22,19.29,8.54,20c.63.32,1.19,0,2.05-.3s1.35.1,2.52-1.15l.07.23c0,.44-.14.7-.32.76-.86.29-1.8.23-2.39.46-1.06.41-1.51,1-2,1.12-.76.17-1.57-.3-1.91-1.53-1.3-4.65-9.69-21-10.88-26C124.61,41.89,127,40,127.31,39.72Z"/><path class="cls-21" d="M114.6,56.76c2.54-2.2,5.27-16.3,9.38-15.08a3,3,0,0,1,2.31,2.19c1.74,5.73,10.76,23.25,10,25.67,0,.11-1.5-.09-3.36.17-.84.12-1.61,1-2.63.88s-1.45-1.29-2.95-2.28C121.91,64.67,113.92,57.33,114.6,56.76Z"/><path class="cls-24" d="M119.61,45.89c-.58,1.62-1.78,5.32-2,6.08-.44,1.31.61,4.82,2.83,7.49,2.45,2.94,5.92,5.7,6.66,7.63.37,1,1.13,1.26,2,2.71a9.56,9.56,0,0,0-1.67-1.5c-5.47-3.64-13.46-11-12.78-11.56C116.12,55.44,117.7,49.89,119.61,45.89Z"/><path class="cls-21" d="M117.08,54.88c2.47,5.46,9.75,10.41,9.33,12.89-.2,1.18-5.93,1.93-9.76-.35-.72-.43-5.47-2.35-5.11-3.71C114,54.44,117.06,54.83,117.08,54.88Z"/><path class="cls-24" d="M126,66.2a2.46,2.46,0,0,1,.45,1.58c-.2,1.18-5.93,1.93-9.76-.35-.72-.43-5.47-2.35-5.11-3.71.11-.42.22-.81.33-1.19,1.21,4.86,12.45,7.71,13.9,5.37A2.69,2.69,0,0,0,126,66.2Z"/><path class="cls-26" d="M112,62.1A19.57,19.57,0,0,1,114.27,57c2.19,2.68,5.49,6.44,3.2,7.2-.52.17-1.52-1.53-4.24-1.54A2,2,0,0,1,112,62.1Z"/><path class="cls-21" d="M215.53,41.1c1.91.23,5.09.74,5.22,3.29.09,1.75-2.24,7.09-5.81,10.48-1.54,1.47-3.38,2-3.86,1.35-.62-.85,3.34-10.45,3.16-14C214.19,41.14,214.61,41,215.53,41.1Z"/><path class="cls-24" d="M217.5,41.43c1.59.39,3.16,1.18,3.25,3s-2.24,7.09-5.81,10.48c-1.54,1.47-3.38,2-3.86,1.35-.14-.19-.05-.8.16-1.67.66,1.16,2.08,1.26,2.44.6.69-1.28,1.21-3.39,2.46-5a55.08,55.08,0,0,0,3.23-6.29C219.89,42.39,219.23,42.2,217.5,41.43Z"/><path class="cls-21" d="M216.48,55.31c-.65,1.13-2.53.57-2.07-.59,1.1-2.81,4.34-8,5.41-10.22.63-1.29,1.21-.15,1.77.8,1,1.63,2.58,2.9,1.15,4.95C221.78,51.62,217.56,53.45,216.48,55.31Z"/><path class="cls-24" d="M216.48,55.31c-.65,1.13-2.53.57-2.07-.59.07-.18.15-.38.24-.58,0,.11.2.4.21.43.4,1.08,1.18.87,1.53.13,2.22-4.69,8.56-3.79,5.47-9,1,1.44,2.18,2.66.88,4.52C221.78,51.62,217.56,53.45,216.48,55.31Z"/><path class="cls-24" d="M204,36.47c-.83.7-3.36-.14-3.27,1.45,1,18.84-3,20.51,9.82,18.53a.39.39,0,0,1,.22,0c-1.36,1-5.4,2.55-9.7,2.83-.66,0-.43-17.24-1.43-21.38a1,1,0,0,1,.25-1C200.61,36.35,202.16,36.24,204,36.47Z"/><path class="cls-24" d="M132.18,69.64c1.11-.55,3.07-.65,3.37-1.09a2.76,2.76,0,0,0,.28-1.69,5.94,5.94,0,0,1,.47,2.68c0,.11-1.5-.09-3.36.17-.84.12-1.61,1-2.63.88-.85-.11-1.26-.84-2.11-1.63l0-.07C129.53,69.48,130,70.74,132.18,69.64Z"/><path class="cls-25" d="M196.71,44.55c.08,2.12-.72.88-.35,4.31,0,.15-.83,3.58-1.86-.82-.52-2.22-.67-2.33.93-3.91C195.69,43.89,196.67,43.57,196.71,44.55Z"/><path class="cls-25" d="M185.5,46c-.47-.81-2.36,0-2.1,1.09.71,3,.18,4.23,3.06,3.17C187.69,49.84,186,46.84,185.5,46Z"/><path class="cls-25" d="M175.52,47.35c1.64,2,.34,2,.74,5.43.12,1.06-1.27.44-1.69-1.88-.1-.52-2.36-3.2.55-3.71A.62.62,0,0,1,175.52,47.35Z"/><path class="cls-25" d="M166.55,49.11c.14,1.62.4.43.13,2.15,0,0,.62,3.39-.45,2.56-.58-.45-.39-2.29-1.16-3.5C164.1,48.8,165.74,47.59,166.55,49.11Z"/><path class="cls-25" d="M157.64,51.92c.09.58-.47,3.79-.24,5.33.32,2.2-3.16,1.09-2.18-4.42.12-.67-1.14-2.15,1.09-2.43C156.83,50.32,157.55,51.37,157.64,51.92Z"/><path class="cls-25" d="M146.46,56.8c-1.17.61-1.09-1.17-1.72-3-1.57-4.53,1.11-2,2.36-2.75C148.79,50.13,148.48,55.75,146.46,56.8Z"/><path class="cls-25" d="M134.18,47.61a4.68,4.68,0,0,0-1.36.6c-.38.18,1.15,1.91,1.65,4.06.26,1.09,1.39,6.62,2.46,3.58.3-.85-1.75-3.17-1.08-6C136.22,48.32,135.21,47.44,134.18,47.61Z"/><path class="cls-25" d="M124,52.77c-1.23,2.25.16,2.38,1.73,4.33.12.15,2.78,1.74.52-1.66C124.63,52.93,125.81,51.6,124,52.77Z"/><path class="cls-25" d="M206,44.41c4.22-.93.9,5.36.13,4.95-.11-.06-.83-2.15-1.42-3C203.67,44.86,205,44.53,206,44.41Z"/><path class="cls-25" d="M215.24,49c-.13.53-.64,2.09-1,.74-.18-.78.5-1.18.26-2.56,0-.17.3-1.59,1.21-.75C216.34,46.94,215.39,48.33,215.24,49Z"/><path class="cls-25" d="M218.27,50.07c.12-.81.62-1.11,1-1.11C220.53,49,218,51.72,218.27,50.07Z"/><path class="cls-23" d="M219.61,48.44c.12-.15.51-.7.56-.18,0,.27.55.68-.09.73C220,49,219.41,48.7,219.61,48.44Z"/><path class="cls-23" d="M214.93,45c.13-.34.88-.08,1.13.07.94.56.16,1,0,.79-.29-.45-1-.31-1.14-.52A.74.74,0,0,1,214.93,45Z"/><path class="cls-23" d="M209.46,42.21c-.61.14-1.84-1.81-4.21-.62-1.52.77-3.69-.89-.43-1.56C206.64,39.66,209,40.2,209.46,42.21Z"/><path class="cls-23" d="M196.74,41.24c-1.42-.34-2.47,1.1-2.76,1.41-.46.5-1.66.26-1.1-.75.29-.53-1.46-1.57,1.32-1.85a3.56,3.56,0,0,0,1.83.14C196.43,40.13,197.39,41.4,196.74,41.24Z"/><path class="cls-23" d="M182.39,43c-.38.42-.72.32-.82-.68,0-.41.6-2.84,2.1-1.79C188.31,43.75,183.72,41.52,182.39,43Z"/><path class="cls-23" d="M175.1,43.56c-1.79.05-3.34,1.87-2.92.32.08-.3.67-.64,1-1.18C173.88,41.46,176.89,43.51,175.1,43.56Z"/><path class="cls-23" d="M166.18,43.59c.35.56.11,1.06-.67.8-1.51-.51-2.86,1.48-2.65.22S165,41.75,166.18,43.59Z"/><path class="cls-23" d="M157.29,45.45c.29.31,1.29-.89-.38-1.93-.17-.1-.78.48-2,.1s-1.48,1.23-1.56,2C153.19,47.12,155.76,43.79,157.29,45.45Z"/><path class="cls-23" d="M148.26,45.49c-.1.52.95,1,.1,1.67-.17.14-.82-.09-1.11.11-.58.38-2.58.47-4.44-.45-.38-.19-1-.42-.42-1.43s3.88-.38,5-.55C147.79,44.79,148.37,44.93,148.26,45.49Z"/><path class="cls-23" d="M136.6,44.6c-.1.7-.76.5-1.58.32a6.4,6.4,0,0,0-3.25.47c-.85.33-1.13,1.13-1.45.35-1.51-3.68,1.19-3.65,5.24-3C136,42.8,136.66,44.19,136.6,44.6Z"/><path class="cls-23" d="M124.38,49.55c-.4.3-1,.5-1.4.8s-.82.77-1,0a3.66,3.66,0,0,1,0-2.11C122.62,46.82,125.17,48.95,124.38,49.55Z"/><path class="cls-23" d="M204.53,50.52a14.52,14.52,0,0,1,1.3,2.6c0,.11.89.63-.23.77-.62.08-.4-1.43-1.42-2-.26-.15-1-1.76-.71-1.83C204.53,49.85,204.52,50.35,204.53,50.52Z"/><path class="cls-23" d="M195.1,53.56s-.64.87.74.61.71.58,1.63-1.08c.06-.11.19-1.2-.12-1.36C196.86,51.49,196.64,53.43,195.1,53.56Z"/><path class="cls-23" d="M214,50.23c.94,1.27-.13.23.06,1.43,0,0-.6.46-.37-.17C213.7,51.37,213.73,49.89,214,50.23Z"/><path class="cls-23" d="M217.81,50.63c.76.67-.28,1.29-.33,1C217.38,51.09,217.68,50.52,217.81,50.63Z"/><path class="cls-23" d="M188.8,55.64c0,.34-.68,1.46-1.54.51-.45-.49-1.13.09-2.22-.15s-2.13-1.92.12-2C189.27,53.9,188.92,51.16,188.8,55.64Z"/><path class="cls-27" d="M175.92,56.76c-.34-.17-2.25-.75,0,1.2.42.37,1.42,2.21,1.51,2,.37-1-.45-.91.36-2.12,0,0,.17-1.34-.25-1.24A1.26,1.26,0,0,1,175.92,56.76Z"/><path class="cls-23" d="M167.84,57.31c-.67,1.33-1.8.42-1.53,2.41,0,.1-.19,1.42.14,1.45.13.23,1.4-2.16,1.41-2.48S168.65,57.27,167.84,57.31Z"/><path class="cls-23" d="M155.17,62.24c.71,1.81,4-.55,2.19,3-.35.69-1.69-1.49-2.28-2C153.85,62.06,154.83,61.37,155.17,62.24Z"/><path class="cls-23" d="M147.44,60.48c1.15-.54-.34,4.11-3.18,1.71-.48-.4-.59-2,0-1.52S145.71,61.3,147.44,60.48Z"/><path class="cls-23" d="M135.46,58.72c2.15,2.34,2.79-1.37,2.79,1,0,.39-.83,1.18-.56,2.32s-.76-1.59-1.5-1.6C135.15,60.41,134.74,57.94,135.46,58.72Z"/><path class="cls-27" d="M126.49,60c1.16.45,2.08.1,2.59.52s1.4,2.52-.75,1.84c-.93-.29-2.65-2-2.59-2.47C125.77,59.6,126.05,59.84,126.49,60Z"/><path class="cls-28" d="M204.42,53a7.94,7.94,0,0,1,.44,1.53c-.75.17-.63-.75-1-1.41-.21-.39.41-.41.46-.22Z"/><path class="cls-28" d="M195.54,54.71c.57.05,1.66-.42,1,.87C196.26,56,194.47,54.62,195.54,54.71Z"/><path class="cls-28" d="M217.2,51.91c.1.43.07.13-.22.5-.12.16-.24-.27-.06-.49C216.91,51.93,217.08,51.42,217.2,51.91Z"/><path class="cls-28" d="M186.58,56.63c.6.59,2.07.59-.15,1.2C185.85,58,184.67,57.07,186.58,56.63Z"/><path class="cls-28" d="M175.79,59.3c.23.45,1.28,1.41.39,1.29,0,0-1.84-1.5-.45-1.44Z"/><path class="cls-28" d="M167.68,60.91c-.17.72-1.48,1.14-.43,2,0,0,.39.7.75-.09,0,0,.18-2.09,0-2.06A.32.32,0,0,0,167.68,60.91Z"/><path class="cls-28" d="M155.28,64.88c.06,0,3,3.21-.16.83C154.76,65.44,154.14,64.26,155.28,64.88Z"/><path class="cls-28" d="M144.94,63.3c.38.75,1.77,0,1.41.93,0,0-1.29.94-1.5-.22,0,0-.76-.94,0-.86Z"/><path class="cls-28" d="M136.85,62.12c.22.28,1.69,1.37.65,1.56C137,63.77,136.29,61.41,136.85,62.12Z"/><path class="cls-28" d="M128.68,63.38c1.24.39.29.25.85.73.13.11.35,0,.35.42-.16.08-.61-.27-1-.34C128.19,64.05,128.47,63.31,128.68,63.38Z"/><path class="cls-28" d="M213.42,52c.21.37,0,.39,0,.77-.07.59-.07-.12-.1-.15-.12-.2-.26-.4,0-.62A.11.11,0,0,1,213.42,52Z"/><path class="cls-25" d="M222.39,46.5c-.93,1.64-2.41,3.06-2-.09a2.13,2.13,0,0,1,1-1.51l.24.41C221.83,45.72,222.12,46.11,222.39,46.5Z"/><path class="cls-25" d="M222.39,46.5l-.07.12a8.37,8.37,0,0,0-.46-.89l.09.13h0L222,46h0l.23.32h0v0l.08.11v0Z"/><path class="cls-21" d="M220.91,50.91c-.81.43-6.78,5.06-2.44,3.89,1.6-.43,4.3-.44,4.82-2.09C224.35,49.36,223.33,49.64,220.91,50.91Z"/><path class="cls-25" d="M171.17,38.26a19.52,19.52,0,0,1,3.45-.46,10.83,10.83,0,0,0,.28,1.69c.4,1.72.78,1.71-1.11,2-.47.07-.24-.62-1.21.26C172.38,41.93,171.62,40,171.17,38.26Z"/><path class="cls-25" d="M191.53,36.58c.74,0,1.55.09,2.37.09,1.18,0,2.25-.36,3.32-.35a3.16,3.16,0,0,1-.85,2.33c-1.81,1.93-.82,0-3.84.84C191.92,39.67,191.8,38,191.53,36.58Z"/><path class="cls-25" d="M191.53,36.58h2.53c-.91.15-1.77.12-2.47.26Z"/><path class="cls-24" d="M165.63,39.6c-3,1-4.77-.65-4.86,3.59-.18,8,2,21.31,5.24,24.4,1.54,1.47,7.17-1.43,7.27-1.46-2.69,1.84-8.07,4.34-11.35,2.82-1.24-.57-2-23.85-2.87-27.31-.2-.85.29-1.43,1.15-1.82s2.43.09,3.67,0A17,17,0,0,0,165.63,39.6Z"/><path class="cls-25" d="M153.3,40.17a10.3,10.3,0,0,1,3.93-.18c-.13,2-.19,3.86-2.9,2.5C153.72,42.18,153.45,41.19,153.3,40.17Z"/><path class="cls-25" d="M142.18,39.52a34.38,34.38,0,0,1,6,1.29A6.16,6.16,0,0,1,146.63,43c-.79.59-1,1.47-3,.93C142.47,43.66,142.28,41.11,142.18,39.52Z"/><path class="cls-25" d="M142.18,39.52c.51.06,1,.13,1.57.22h0l.4.07.1,0,.08,0h0l.08,0,.1,0h.19L145,40h0c-1,.06-1.94.08-2.8.19C142.21,40,142.19,39.73,142.18,39.52Z"/><path class="cls-25" d="M119,47.32a19.51,19.51,0,0,1,2.4-4.4c1.24,1.48,2.31,1.61-.79,4.81C120,48.36,119.49,48,119,47.32Z"/><path class="cls-25" d="M163,39.81a6.2,6.2,0,0,0,.85,0,19.22,19.22,0,0,0,2.38-.34c.13,1.19,0,2.75-1.29,2.27-.94-.36-2.43,2.16-2.08-1.41A2.49,2.49,0,0,1,163,39.81Z"/><path class="cls-25" d="M154.61,39.94a7.66,7.66,0,0,0-1.27.47l0-.24A9.48,9.48,0,0,1,154.61,39.94Z"/><path class="cls-29" d="M119.6,45.89c-.15.41-.34,1-.54,1.56l-.1-.13.28-.65h0l.08-.17,0,0,.06-.14,0-.07.06-.13,0-.05.06-.13Z"/><path class="cls-25" d="M174.64,38a7.65,7.65,0,0,0-3.32.77l-.15-.55h.06l.1,0h.07l.13,0h.07l.1,0h.07l.1,0h.07l.15,0h.06l.11,0h.06l.11,0h.06l.14,0h.25l.27,0h1.47C174.63,37.88,174.63,38,174.64,38Z"/><path class="cls-25" d="M216.45,41.22a10.75,10.75,0,0,1,1.85.44A16.13,16.13,0,0,0,217,44.21c-.45,1.48-3,.69-.57-2.92Z"/><path class="cls-25" d="M218.3,41.67l0,.1-.75-.33C217.77,41.5,218,41.58,218.3,41.67Z"/><path class="cls-23" d="M142.85,75c.19-1.2-.09-3.53,2.18-5.27,2-1.5,2,.64.69,2.73a6.67,6.67,0,0,1-2.22,1.83C143.25,74.45,142.65,76.2,142.85,75Z"/><path class="cls-30" d="M142.85,75c0-.1,0-.22,0-.34h0a1,1,0,0,1,.28.07C143,75.23,142.71,75.84,142.85,75Z"/><path class="cls-23" d="M139.89,72.44s.59,3.9-.3,2c-.45-1-.23-1.21-.88-3.23C138,69,142,66.45,139.89,72.44Z"/><path class="cls-30" d="M140.07,74c.06.83,0,1.5-.47.45l-.12-.27a.77.77,0,0,1,.58-.18Z"/><path class="cls-23" d="M135.14,71.63c.26.49,0,.89.13,1.35.28,1.12.77,2.05.39,1.62a10.35,10.35,0,0,1-2.51-3.79C134,70,133.67,68.81,135.14,71.63Z"/><path class="cls-30" d="M135.66,74.23c.15.43.22.63,0,.38l-.22-.24.12-.08Z"/><path class="cls-25" d="M165.63,39.6A10.68,10.68,0,0,1,163,40l.08-.24h2.59Z"/><path class="cls-28" d="M119.37,64c.51.27,1.88.91.63,1.49-.93.43-.67-.67-1.28-1.29-.35-.35.14-.74.55-.23Z"/></svg>