<svg id="Layer_1" data-name="Layer 1" xmlns="http://www.w3.org/2000/svg" xmlns:xlink="http://www.w3.org/1999/xlink" viewBox="0 0 402.81 144.53"><defs><style>.cls-1{fill:url(#linear-gradient);}.cls-2{fill:url(#linear-gradient-2);}.cls-3{fill:url(#linear-gradient-3);}.cls-4{fill:url(#linear-gradient-4);}.cls-13,.cls-5{fill:orange;}.cls-6{fill:#39f;}.cls-10,.cls-11,.cls-12,.cls-13,.cls-14,.cls-15,.cls-6,.cls-7,.cls-8,.cls-9{fill-rule:evenodd;}.cls-7{fill:#090052;}.cls-11,.cls-12,.cls-8{fill:#0d0072;}.cls-9{fill:#4026d3;}.cls-10{fill:#ffed17;}.cls-11,.cls-12{stroke:#0d0072;stroke-miterlimit:22.93;}.cls-11{stroke-width:1.42px;}.cls-12{stroke-width:0.57px;}.cls-14{fill:#d10072;}.cls-15{fill:#5a00bf;}.cls-16{fill:url(#linear-gradient-5);}.cls-17{fill:url(#linear-gradient-6);}.cls-18{fill:url(#linear-gradient-7);}.cls-19{fill:url(#linear-gradient-8);}.cls-20{fill:url(#linear-gradient-9);}.cls-21{fill:url(#linear-gradient-10);}.cls-22{fill:url(#linear-gradient-11);}.cls-23{fill:url(#linear-gradient-12);}</style><linearGradient id="linear-gradient" x1="1587.22" y1="190.98" x2="1677.19" y2="190.98" gradientTransform="translate(-1274.55 -110.38)" gradientUnits="userSpaceOnUse"><stop offset="0" stop-color="#77bd4b"/><stop offset="0.15" stop-color="#71b644"/><stop offset="0.36" stop-color="#60a330"/><stop offset="0.61" stop-color="#448310"/><stop offset="0.71" stop-color="#387502"/><stop offset="0.79" stop-color="#3d7a08"/><stop offset="0.9" stop-color="#4b8a18"/><stop offset="1" stop-color="#5d9f2d"/></linearGradient><linearGradient id="linear-gradient-2" x1="1594.13" y1="191.34" x2="1623.81" y2="191.34" gradientTransform="translate(-1274.55 -110.38)" gradientUnits="userSpaceOnUse"><stop offset="0" stop-color="#f2f9ee"/><stop offset="0.09" stop-color="#e1f1d7"/><stop offset="0.31" stop-color="#bbdea5"/><stop offset="0.52" stop-color="#9ed07e"/><stop offset="0.71" stop-color="#88c662"/><stop offset="0.88" stop-color="#7cbf51"/><stop offset="1" stop-color="#77bd4b"/></linearGradient><linearGradient id="linear-gradient-3" x1="-2222.84" y1="704.61" x2="-2132.41" y2="704.61" gradientTransform="matrix(-0.99, 0, 0, -1.02, -1807.4, 744.83)" gradientUnits="userSpaceOnUse"><stop offset="0.01" stop-color="#458411"/><stop offset="1" stop-color="#a2d284"/></linearGradient><linearGradient id="linear-gradient-4" x1="1588.67" y1="136.89" x2="1676.25" y2="136.89" gradientTransform="translate(-1274.55 -110.38)" gradientUnits="userSpaceOnUse"><stop offset="0.01" stop-color="#387502"/><stop offset="1" stop-color="#77bd4b"/></linearGradient><linearGradient id="linear-gradient-5" x1="1389.16" y1="153.34" x2="1452.99" y2="153.34" xlink:href="#linear-gradient"/><linearGradient id="linear-gradient-6" x1="1394.06" y1="153.59" x2="1415.11" y2="153.59" xlink:href="#linear-gradient-2"/><linearGradient id="linear-gradient-7" x1="-1997.48" y1="727.67" x2="-1933.31" y2="727.67" gradientTransform="matrix(-0.99, 0, 0, -1.02, -1807.56, 746.31)" xlink:href="#linear-gradient-3"/><linearGradient id="linear-gradient-8" x1="1390.19" y1="114.96" x2="1452.32" y2="114.96" xlink:href="#linear-gradient-4"/><linearGradient id="linear-gradient-9" x1="1274.55" y1="190.98" x2="1364.53" y2="190.98" xlink:href="#linear-gradient"/><linearGradient id="linear-gradient-10" x1="1281.46" y1="191.34" x2="1311.14" y2="191.34" xlink:href="#linear-gradient-2"/><linearGradient id="linear-gradient-11" x1="-1908.4" y1="706.77" x2="-1817.96" y2="706.77" gradientTransform="matrix(-0.99, 0, 0, -1.02, -1807.41, 747.03)" xlink:href="#linear-gradient-3"/><linearGradient id="linear-gradient-12" x1="1276" y1="136.89" x2="1363.59" y2="136.89" xlink:href="#linear-gradient-4"/></defs><title>caterpillar-beside-between</title><path class="cls-1" d="M312.67,26.83c9.66,1.7,40.26,2.36,45,2.45,4.73-.09,35.33-.75,45-2.45,0,0-2.47,77.65-17.26,101.68,0,0-8.85,5.6-27.12,5.84H357c-18.27-.24-27.12-5.84-27.12-5.84C315.13,104.48,312.67,26.83,312.67,26.83Z"/><path class="cls-2" d="M342.6,32.47s-9,77,6.65,99.52c0,0-4.86.77-14.58-3.33,0,0-13.82-32-15.09-98.75C319.57,29.47,339.53,34.51,342.6,32.47Z"/><ellipse class="cls-3" cx="357.84" cy="26.81" rx="44.96" ry="6.75" transform="translate(-0.18 2.52) rotate(-0.4)"/><ellipse class="cls-4" cx="357.91" cy="26.51" rx="43.79" ry="5.44"/><path class="cls-5" d="M380.6,129.66c.24-.32.48-.64.74-.94a2.53,2.53,0,0,1,1.79-1.08.56.56,0,0,1,.38.12.47.47,0,0,1,0,.59,1.18,1.18,0,0,1-.52.37,5.34,5.34,0,0,0-1.75.93,2.28,2.28,0,0,0,1,0c-.12,0-.46.5-.6.59a2.41,2.41,0,0,1-.81.35c-.19,0-.66.16-.75,0S380.48,129.81,380.6,129.66Z"/><path class="cls-5" d="M379.36,118a19.05,19.05,0,0,1,.12,3.29,1.41,1.41,0,0,1-.12.59,1.47,1.47,0,0,1-.47.47c-.84.61-1.66,1.3-2.54,1.83.43-.94,1-1.82,1.51-2.76S379.36,119,379.36,118Z"/><path class="cls-5" d="M366.44,113.16a6.32,6.32,0,0,1,2.36-.34,1,1,0,0,1-.28,1.21c-.09.07-.21.14-.23.26s.3.36.54.31a1.68,1.68,0,0,0,.72-.34.43.43,0,0,1-.12.65,2,2,0,0,0-.37.14c-.2.15-.1.51.13.62a.82.82,0,0,0,.72-.09.89.89,0,0,1,.4-.16.48.48,0,0,1,.43.39,1.12,1.12,0,0,1-.07.61,3.85,3.85,0,0,1-1.62,2,1.42,1.42,0,0,1-1,.26c-.83-.14-1-1.11-1.34-1.69s-.86-.66-1.28-1.09C364.53,115,365.33,113.63,366.44,113.16Z"/><path class="cls-5" d="M350.56,110.51a4.57,4.57,0,0,1,.25-3,.21.21,0,0,1,.06-.08c.09-.06.2,0,.26.12a2.93,2.93,0,0,1,.33,1.26,17.24,17.24,0,0,0,.29,1.71c0,.2.18.45.38.39s.16-.18.19-.3l.81-3.27c.06-.22.18-.5.41-.48s.26.19.32.35a4.25,4.25,0,0,1-.11,3.25c-.21.45-.49.86-.7,1.31a6.08,6.08,0,0,1-.63,1.32,1.22,1.22,0,0,1-.82.47c-.4,0-.4-.19-.46-.53C351,112.17,350.73,111.35,350.56,110.51Z"/><path class="cls-5" d="M279,89.81a2.23,2.23,0,0,1,.21.46l1.32,3.52a.48.48,0,0,0,.18.27c.25.14.48-.21.56-.49a12.1,12.1,0,0,1,1.28-2.87c.18-.29.53-.61.81-.41a.61.61,0,0,1,.19.38,14.55,14.55,0,0,1,.19,3.46,9.47,9.47,0,0,1-.3,2.55A2.61,2.61,0,0,1,279.29,98c-.62-.45-.74-1.51-.93-2.22a26.11,26.11,0,0,1-.86-6.42,1.69,1.69,0,0,1,1.37.3Z"/><path class="cls-5" d="M293.37,95.22a2.61,2.61,0,0,1,.16.46l1,3.52a.5.5,0,0,0,.14.27c.19.14.36-.21.43-.49a14.29,14.29,0,0,1,1-2.87c.14-.29.41-.61.61-.41a.7.7,0,0,1,.14.38,19.13,19.13,0,0,1,.14,3.46,12.36,12.36,0,0,1-.23,2.55c-.41,1.75-1.92,2.49-3.13,1.34-.47-.45-.56-1.51-.7-2.22a34,34,0,0,1-.65-6.42,1.05,1.05,0,0,1,1,.3Z"/><path class="cls-5" d="M305.18,99.62a2.2,2.2,0,0,1,.11.35l.69,2.72a.41.41,0,0,0,.09.21c.13.11.25-.16.29-.38a12.09,12.09,0,0,1,.66-2.22c.09-.23.28-.47.42-.31a.59.59,0,0,1,.1.29,16.74,16.74,0,0,1,.1,2.67,10.79,10.79,0,0,1-.15,2c-.28,1.36-1.31,1.92-2.14,1a3.94,3.94,0,0,1-.48-1.72,29.68,29.68,0,0,1-.44-5,.66.66,0,0,1,.71.23Z"/><path class="cls-5" d="M316.1,101.46a2.2,2.2,0,0,1,.11.35l.69,2.72a.41.41,0,0,0,.09.21c.13.11.25-.16.29-.38a12.09,12.09,0,0,1,.66-2.22c.09-.23.28-.47.42-.31a.59.59,0,0,1,.1.29,16.74,16.74,0,0,1,.1,2.67,10.79,10.79,0,0,1-.15,2c-.28,1.36-1.31,1.92-2.14,1a3.94,3.94,0,0,1-.48-1.72,29.68,29.68,0,0,1-.44-5,.66.66,0,0,1,.71.23Z"/><path class="cls-5" d="M326,105c.34,0,.61.53.94.4a.56.56,0,0,0,.27-.35l.31-.76a.92.92,0,0,1,.47-.59.21.21,0,0,1,.23,0c.12.16.06.5.12.69a3.87,3.87,0,0,1,.15.5,11.71,11.71,0,0,1,0,1.72,10.79,10.79,0,0,1-.15,2c-.28,1.36-1.31,1.92-2.14,1a3.94,3.94,0,0,1-.48-1.72,7.79,7.79,0,0,1-.17-2.35c0-.25.13-.56.38-.6Z"/><path class="cls-5" d="M339.15,105.46l-.07.29a1.45,1.45,0,0,0-.05.57.53.53,0,0,0,.33.43.61.61,0,0,0,.56-.19c.15-.14.27-.32.43-.44a2,2,0,0,1,1.18-.3,1.22,1.22,0,0,1,.48,0,.42.42,0,0,1,.29.36c0,.2-.19.35-.38.42a1.73,1.73,0,0,0-.55.24c-.43.38-.26,1.55-.37,2.1-.28,1.36-1.31,1.92-2.14,1-.66-.71-.88-2.52-1-3.43a4,4,0,0,1,.06-1.88,1.67,1.67,0,0,1,1.35-1.18A3.7,3.7,0,0,1,339.15,105.46Z"/><path class="cls-6" d="M247.47,127.48c.35,2.51,18.7,10.86,18.6,6C265.85,123.16,246.15,118.13,247.47,127.48Z"/><path class="cls-7" d="M249.48,129.48a41.68,41.68,0,0,0,8.68,4.2,16,16,0,0,0-2.69-3.46c-2.57-2.57-5.36-4-6.21-3.11C248.85,127.54,249,128.41,249.48,129.48Z"/><path class="cls-8" d="M351,139.77s-5.84-1.26-6,.18C344.6,144.83,353.36,142.66,351,139.77Z"/><path class="cls-8" d="M276.19,134.64c-.17.7-2.75.82-3.21.63-1.14-.47-3.18,0-3.19-2C269.79,133.12,277.07,131.11,276.19,134.64Z"/><path class="cls-8" d="M279.3,135.53c1.19,0,3.17.57,4-.35.37-.4.29-1.34,0-2.22C278.14,131.16,275.26,135.69,279.3,135.53Z"/><path class="cls-8" d="M286.56,135.36a8.17,8.17,0,0,1,3.41,1.12c2.78,2.19-.28,4.77-2.39,3-.91-.76,0,.79-1.43-1.28-.23-.33-.61-.18-1.5-1.13-.47-.51-.68-1.54-.18-2C284.52,135,284.84,133.79,286.56,135.36Z"/><path class="cls-8" d="M309,140.36c.06-.07,9.25-2.34,9.63-.27C320,147.09,305.58,144.74,309,140.36Z"/><path class="cls-8" d="M322.46,139.75c.05-.07,8-2.35,8.38-.27C332,146.5,319.44,144.14,322.46,139.75Z"/><path class="cls-8" d="M342.06,139.47c-.06-.07-8.8-1.67-9,.24C332.46,146.18,345.65,143.3,342.06,139.47Z"/><path class="cls-6" d="M321.1,107.72c.61.22,1.27,1.16,1.4,3.17.42,6.81,1,25.43-.34,27.91-.64,1.18-11.53,5-16.07,1.46-1.27-1,4.07-28,4-32.16,0-1,.72-1.57,1.81-1.78s2.77.75,4.22,1C318.44,107.68,320.48,107.5,321.1,107.72Z"/><path class="cls-6" d="M298.79,106.22c3.51-1.85,7.57-1.93,12,.58.61.35-.63,1.26-.5,3.34.46,7.05-2.67,27.55-4.17,30.12-.71,1.22-7.31,2.18-13.09-.64-3.69-1.79,5.13-24.86,5.09-31.94A1.54,1.54,0,0,1,298.79,106.22Z"/><path class="cls-9" d="M305.46,105c-2.49.26-4.55-.78-7.1,17.44-2,14.22-7.79,16.37-1.06,18.68a18.06,18.06,0,0,1-4.3-1.44c-3.69-1.79,5.13-24.86,5.09-31.94a1.54,1.54,0,0,1,.7-1.47A11.15,11.15,0,0,1,305.46,105Z"/><path class="cls-6" d="M331.21,108.41c.53.21,1.07,1.12,1.17,3,.35,6.54.86,24.42-.28,26.81-.54,1.13-7.4,4.82-11.21,1.42-.61-.55-.75-1.15-.74-2.68,0-6.4,1.1-22.06,1.07-27.63C321.2,106.15,330,107.91,331.21,108.41Z"/><path class="cls-9" d="M332.79,125.13a4.84,4.84,0,0,1-.75,0c-.43-2.85,1-14.24-1.09-16.06s-7-1.26-7.76,0c-1.13,1.86-3,24-.59,27.89.28.45,1.62,3.31,3.27,3.35a13.42,13.42,0,0,0,5.75-1.56c-1.71,1.42-7.4,3.89-10.74.9-.61-.55-.75-1.15-.74-2.68,0-6.4,1.1-22.06,1.07-27.63,0-3.2,8.76-1.45,10-.95.53.21,1.07,1.12,1.17,3C332.54,114.47,332.74,119.91,332.79,125.13Z"/><path class="cls-6" d="M332.64,109.64a11.37,11.37,0,0,1,11,.39c.54.3,1.24,1,1.36,2.84.41,6.12,1.37,26.79-1.21,27.13a33.51,33.51,0,0,1-12.13-.71c-.85-.18-.87-1.07-.86-2.51,0-6,1.28-20.65,1.24-25.86A1.33,1.33,0,0,1,332.64,109.64Z"/><path class="cls-10" d="M336.35,108.5a11.55,11.55,0,0,1,6,.91c.11,1.08,1.07,1.74-.42,3.94s-2.66-3.09-5.47-2.27C336.15,111.2,336.13,109.9,336.35,108.5Z"/><path class="cls-9" d="M332.64,109.64a10.93,10.93,0,0,1,2.94-1c-1,.73-2.1,2-2.25,4.87-.72,13.35-4,20.15,1.07,24.7,1.46,1.3,3.64,1,6.88,2.05a36.85,36.85,0,0,1-9.64-.94c-.85-.18-.87-1.07-.86-2.51,0-6,1.28-20.65,1.24-25.86A1.33,1.33,0,0,1,332.64,109.64Z"/><path class="cls-6" d="M359.9,116.43c.79,5.71-4.77,21.19-6.25,23.29-.7,1-3.89,1.39-8.82.29-2.85-.63,1-23.73-.56-28.73-.15-.47.42-1,1-1,1.28-.09,3.65.89,6.22,1.49,1.76.41,3.48.08,5,.89C358.32,113.64,359.69,114.92,359.9,116.43Z"/><path class="cls-9" d="M354.57,137.9a12.18,12.18,0,0,1-.93,1.82c-.7,1-3.89,1.39-8.82.29-2.85-.63,1-23.73-.56-28.73-.15-.47.42-1,1-1,1.28-.09,3.65.89,6.22,1.49l.19,0c-2.63-.18-4.61-1.48-5.47,2.27-1.54,6.71-1.17,12.48-1.68,18.32-.31,3.55-1.06,6.07,3.89,7.22a13.45,13.45,0,0,0,4,.31c1.14-.12,1-2.92,1.69-4A17,17,0,0,1,354.57,137.9Z"/><path class="cls-6" d="M358.31,113.66c3.22-1.57,15.34,5.1,15.67,9.77.37,5.28-6.53,13.27-7.75,15.2-.58.91-6.61,2.09-12.59,1.1-.77-.13,4.14-19.93,4.1-25A1.13,1.13,0,0,1,358.31,113.66Z"/><path class="cls-10" d="M363.7,114.45a26.9,26.9,0,0,1,7.24,4.41,9,9,0,0,0-1.24,1.52c-2,3-.07-2.65-6.93-3.3C361.31,116.93,361.81,115.44,363.7,114.45Z"/><path class="cls-9" d="M371,118.9c1.7,1.5,2.9,3.11,3,4.53.37,5.28-6.53,13.27-7.75,15.2-.31.5-2.23,1.07-4.88,1.33a3.26,3.26,0,0,1,2.66-1.1c2.28-.24,3.77-4.57,5.53-8.31,1.3-2.75,2.94-5,3-5.95C372.86,120.92,371.89,120.44,371,118.9Z"/><path class="cls-6" d="M299.88,105.71c2.1,3.12-5.79,29.08-7.71,32.37-.23.39-1.06,1.3-1.6.68-1.76-2-1.48-2.86-4.89-2.86a2.68,2.68,0,0,1-2.3-2.78c0-4-4-14.17-2.61-21.21,1-5.09,5.52-8,5.5-10.48C286.24,97.78,299,104.33,299.88,105.71Z"/><path class="cls-9" d="M292.51,137.38c-.13.29-.25.52-.34.69-.23.39-1.06,1.3-1.6.68-1.3-1.47-1.49-2.32-2.87-2.67h0c.73.07.6-.2,2.43,1.29.52.42,1.27,1.43,1.83.68Z"/><path class="cls-9" d="M294.43,102.44c-3.54-.59-7.18-1.72-7,2.59s-3.06,23.63-2.6,29.56c.08,1.09.91,1.21,1.39,1.31h-.5a2.68,2.68,0,0,1-2.3-2.78c0-4-4-14.17-2.61-21.21,1-5.09,5.52-8,5.5-10.48,0-2.09,4.13-.85,7.86.86l.31.14Z"/><path class="cls-6" d="M274.14,97.38a10.71,10.71,0,0,1,6.41-.45c4.79,1.2,8.83,2.31,6.62,4.87-2.82,3.28-1.65,32.26-4,32.48-1.07.1-2.13-.22-2.87-.11-1.33.18-2,.77-2.55.76-.92,0-1.72-.77-1.79-2.27-.25-5.7-5.49-26.79-5.52-32.8C270.46,99.14,273.7,97.59,274.14,97.38Z"/><path class="cls-10" d="M277.06,96.68a11.06,11.06,0,0,1,3.5.24,36.61,36.61,0,0,1,5.2,1.56c-4.65,6.31-8.7-1.08-8.7-1.24S277.05,96.86,277.06,96.68Z"/><path class="cls-9" d="M274.14,97.38a5.78,5.78,0,0,1,1.39-.47c-3.28,2.87-2.88,7.12-1.87,11.48s3.11,24.12,4.46,25.25c.64.54,1.37.32,2.44.21s1.52.48,3.2-.65q0,.15,0,.29c-.16.49-.35.77-.57.79-1.07.1-2.13-.22-2.87-.11-1.33.18-2,.77-2.55.76-.92,0-1.72-.77-1.79-2.27-.25-5.7-5.49-26.79-5.52-32.8C270.46,99.14,273.7,97.59,274.14,97.38Z"/><path class="cls-6" d="M255,113.54c3.51-1.85,10.43-17.32,14.83-14.81a3.58,3.58,0,0,1,2.06,3.14c.46,7.05,6.12,29.62,4.62,32.19-.07.11-1.7-.51-3.9-.7-1-.09-2.12.73-3.26.31s-1.32-1.87-2.77-3.41C261.24,124.6,254,114,255,113.54Z"/><path class="cls-9" d="M263.63,102.4c-1.1,1.71-3.47,5.63-4,6.45-.86,1.38-.59,5.71,1.24,9.37,2,4,5.27,8.14,5.61,10.56.16,1.2,1,1.75,1.56,3.65a11.28,11.28,0,0,0-1.51-2.17C261.24,124.6,254,114,255,113.54,257.06,112.44,260.37,106.49,263.63,102.4Z"/><path class="cls-6" d="M258.32,112.05c1.37,6.93,8.41,14.58,7.26,17.33-.55,1.3-7.34.63-11.12-3-.72-.69-5.65-4.17-4.88-5.64C254.88,110.71,258.3,112,258.32,112.05Z"/><path class="cls-9" d="M265.48,127.44a2.9,2.9,0,0,1,.1,1.94c-.55,1.3-7.34.63-11.12-3-.72-.69-5.65-4.17-4.88-5.64q.36-.68.7-1.28c.08,5.91,12.24,12.21,14.54,9.9A3.18,3.18,0,0,0,265.48,127.44Z"/><path class="cls-11" d="M250.55,119a23.11,23.11,0,0,1,4-5.29c1.8,3.67,4.58,8.87,1.75,9.13-.64.06-1.33-2.17-4.46-2.91A2.31,2.31,0,0,1,250.55,119Z"/><path class="cls-6" d="M375.18,122.65c2.13.77,5.65,2.22,5.11,5.19-.37,2-4.48,7.55-9.49,10.49-2.17,1.27-4.43,1.41-4.8.52-.48-1.15,6.65-11.12,7.4-15.27C373.62,122.34,374.15,122.28,375.18,122.65Z"/><path class="cls-9" d="M377.35,123.57c1.72.88,3.32,2.21,2.94,4.27s-4.48,7.55-9.49,10.49c-2.17,1.27-4.43,1.41-4.8.52-.11-.25.16-.93.64-1.88.45,1.51,2.05,2,2.64,1.34,1.13-1.28,2.3-3.57,4.17-5.1a65,65,0,0,0,5.4-6.36C379.84,125.31,379.14,124.91,377.35,123.57Z"/><path class="cls-6" d="M372.44,139.25c-1,1.12-3.06,0-2.22-1.23,2-2.94,7.14-8.05,9-10.3,1.07-1.32,1.43.15,1.82,1.39.67,2.14,2.19,4,0,6C379.53,136.43,374.18,137.39,372.44,139.25Z"/><path class="cls-9" d="M372.44,139.25c-1,1.12-3.06,0-2.22-1.23l.43-.6c0,.14.12.51.13.55.17,1.35,1.12,1.32,1.72.56,3.82-4.79,10.86-2.06,8.7-8.86.72,1.91,1.8,3.64-.2,5.43C379.53,136.43,374.18,137.39,372.44,139.25Z"/><path class="cls-9" d="M363.16,114.24c-1.14.59-3.82-1.06-4.15.79-3.86,21.93-8.94,22.78,6.3,23.93a.45.45,0,0,1,.24.12c-1.84.79-6.89,1.48-11.91.65-.77-.13,4.14-19.93,4.1-25a1.13,1.13,0,0,1,.57-1.1C359.3,113.18,361.11,113.47,363.16,114.24Z"/><path class="cls-9" d="M271.71,133.07c1.43-.34,3.7.08,4.17-.35a3.26,3.26,0,0,0,.78-1.86,7,7,0,0,1-.18,3.21c-.07.11-1.7-.51-3.9-.7-1-.09-2.12.73-3.26.31-.95-.35-1.22-1.3-2-2.44l0-.09C268.7,132.18,268.87,133.73,271.71,133.07Z"/><path class="cls-10" d="M352.62,121.57c-.48,2.45-1.06.82-1.56,4.87,0,.17-1.91,3.89-1.91-1.44,0-2.7-.14-2.86,2.12-4.24C351.62,120.53,352.84,120.42,352.62,121.57Z"/><path class="cls-10" d="M339.33,120.25c-.32-1.06-2.7-.68-2.7.69,0,3.66-.93,4.91,2.67,4.46C340.83,125.22,339.66,121.32,339.33,120.25Z"/><path class="cls-10" d="M327.51,119.09c1.36,2.71-.14,2.37-.61,6.44-.15,1.25-1.57.17-1.44-2.62,0-.63-1.86-4.31,1.63-4.12A.73.73,0,0,1,327.51,119.09Z"/><path class="cls-10" d="M316.73,118.7c-.27,1.9.34.61-.43,2.5,0,0-.2,4.06-1.21,2.82-.54-.67.17-2.73-.4-4.33C314,117.69,316.2,116.74,316.73,118.7Z"/><path class="cls-10" d="M305.73,119.54c0,.69-1.56,4.22-1.71,6.06-.22,2.61-3.92.4-1.32-5.67.32-.74-.74-2.77,1.9-2.51C305.23,117.48,305.77,118.88,305.73,119.54Z"/><path class="cls-10" d="M291.57,122.15c-1.51.39-.94-1.63-1.18-3.89-.59-5.63,1.82-2.05,3.46-2.52C296,115.1,294.17,121.48,291.57,122.15Z"/><path class="cls-10" d="M279.92,108.28a5.52,5.52,0,0,0-1.72.32c-.48.1.81,2.51.81,5.11,0,1.33-.18,8,1.87,4.77.57-.89-1.16-4.11.37-7.16C282.08,109.65,281.15,108.37,279.92,108.28Z"/><path class="cls-10" d="M266.88,111.5c-2,2.26-.46,2.77.83,5.44.1.21,2.72,2.75,1-1.77C267.51,111.83,269.23,110.62,266.88,111.5Z"/><path class="cls-10" d="M363.34,123.9c5.11.07-.41,6.4-1.18,5.72-.11-.1-.38-2.69-.83-3.82C360.53,123.79,362.16,123.77,363.34,123.9Z"/><path class="cls-10" d="M372.72,131.62c-.29.57-1.3,2.24-1.3.59,0-.95.89-1.22,1-2.87,0-.2.78-1.74,1.59-.54C374.53,129.59,373.07,130.93,372.72,131.62Z"/><path class="cls-10" d="M375.91,133.7c.35-.91,1-1.11,1.45-1C378.81,133,375.2,135.53,375.91,133.7Z"/><path class="cls-8" d="M377.89,132.19c.18-.14.77-.67.69-.05,0,.32.45.93-.3.82C378.19,132.94,377.59,132.43,377.89,132.19Z"/><path class="cls-8" d="M373.43,127c.24-.35,1,.14,1.29.38.93.89-.08,1.17-.17.92-.22-.59-1.05-.63-1.17-.9A.87.87,0,0,1,373.43,127Z"/><path class="cls-8" d="M367.9,122.3c-.74,0-1.63-2.58-4.67-1.84-2,.47-4-2-.08-1.91C365.34,118.61,367.9,119.86,367.9,122.3Z"/><path class="cls-8" d="M353.54,117.77c-1.54-.77-3.14.6-3.55.88-.66.45-2-.14-1.06-1.16.47-.53-1.25-2.2,2-1.77a4.2,4.2,0,0,0,2.07.65C353.47,116.41,354.25,118.13,353.54,117.77Z"/><path class="cls-8" d="M336.58,115.9c-.55.37-.91.18-.76-1,.06-.48,1.45-3.1,2.89-1.5C343.18,118.39,338.5,114.6,336.58,115.9Z"/><path class="cls-8" d="M328,114.62c-2.07-.42-4.34,1.25-3.44-.41.17-.32.94-.55,1.44-1.09C327.2,111.88,330.11,115,328,114.62Z"/><path class="cls-8" d="M317.78,112.26c.25.74-.16,1.25-1,.74-1.6-1-3.69.93-3.1-.46S317,109.84,317.78,112.26Z"/><path class="cls-8" d="M307.07,112c.25.44,1.73-.67.08-2.32-.16-.16-1,.34-2.31-.42s-2,1-2.33,1.85C301.91,112.82,305.76,109.69,307.07,112Z"/><path class="cls-8" d="M296.68,109.63c-.26.57.83,1.37-.33,1.95-.23.11-.92-.32-1.31-.17-.77.28-3.09-.15-5-1.71-.39-.32-1.06-.76-.09-1.76s4.56.61,5.94.73C296.32,108.69,297,109,296.68,109.63Z"/><path class="cls-8" d="M283.52,105.48c-.3.78-1,.38-1.9-.06a7.55,7.55,0,0,0-3.86-.34c-1.06.16-1.6,1-1.76,0-.75-4.64,2.35-3.88,6.83-2C283.29,103.24,283.69,105,283.52,105.48Z"/><path class="cls-8" d="M268.13,107.89c-.54.24-1.28.31-1.83.55-.71.31-1.16.67-1.12-.29a4.32,4.32,0,0,1,.6-2.41C266.85,104.27,269.21,107.4,268.13,107.89Z"/><path class="cls-8" d="M360,130.53c0,.26.85,2.15.8,3.34,0,.14.85,1-.47.83-.73-.07-.08-1.75-1.1-2.66-.27-.24-.72-2.31-.32-2.3C360.18,129.76,360,130.33,360,130.53Z"/><path class="cls-8" d="M348.34,131.49s-1,.83.69.9.66.85,2.16-.8c.1-.11.54-1.33.23-1.59C350.93,129.58,350.15,131.75,348.34,131.49Z"/><path class="cls-8" d="M370.94,132.73c.73,1.72-.21.23-.32,1.66,0,0-.82.37-.38-.3C370.32,134,370.74,132.27,370.94,132.73Z"/><path class="cls-8" d="M375.24,134.22c.69,1-.66,1.41-.65,1C374.62,134.64,375.12,134.06,375.24,134.22Z"/><path class="cls-8" d="M340.55,132.19c-.1.39-1.17,1.49-1.91.17-.39-.69-1.32-.19-2.52-.76-1.35-.64-1.93-2.78.67-2.25C341.55,130.32,341.88,127.06,340.55,132.19Z"/><path class="cls-12" d="M325.44,130c-.34-.29-2.38-1.47-.37,1.37.38.54,1,2.92,1.21,2.67.7-1.07-.27-1.17,1-2.34,0,0,.56-1.49,0-1.49A1.49,1.49,0,0,1,325.44,130Z"/><path class="cls-8" d="M316,128.48c-1.13,1.35-2.18,0-2.4,2.36,0,.12-.6,1.58-.23,1.71.09.3,2.19-2.11,2.28-2.47S316.95,128.65,316,128.48Z"/><path class="cls-8" d="M300.12,130.74c.33,2.28,4.71.43,1.71,4-.58.7-1.54-2.17-2.07-3C298.65,130.18,300,129.65,300.12,130.74Z"/><path class="cls-8" d="M291.7,126.65c1.47-.31-1.5,4.63-4.11,1.11-.44-.59-.13-2.5.42-1.75S289.49,127.11,291.7,126.65Z"/><path class="cls-8" d="M278.41,121.4c1.84,3.27,3.58-.83,2.95,1.87-.1.45-1.27,1.14-1.27,2.52s-.45-2-1.3-2.24C277.6,123.25,277.79,120.31,278.41,121.4Z"/><path class="cls-12" d="M267.75,120.47c1.21.82,2.36.67,2.83,1.29s.93,3.27-1.36,1.91c-1-.59-2.51-3-2.32-3.54C267,119.8,267.3,120.16,267.75,120.47Z"/><path class="cls-13" d="M359.2,133.4a9.38,9.38,0,0,1,.1,1.87c-.9,0-.52-1-.75-1.89-.14-.5.58-.37.59-.13Z"/><path class="cls-13" d="M348.54,132.93c.64.21,2,0,.87,1.25C349,134.61,347.34,132.54,348.54,132.93Z"/><path class="cls-13" d="M374.19,135.52c0,.52,0,.17-.39.52-.19.15-.21-.37.06-.57C373.85,135.47,374.19,134.94,374.19,135.52Z"/><path class="cls-13" d="M337.72,132.72c.53.83,2.22,1.23-.49,1.34C336.53,134.09,335.41,132.72,337.72,132.72Z"/><path class="cls-13" d="M324.61,132.9c.15.59,1.1,2,.1,1.59,0,0-1.71-2.22-.13-1.77Z"/><path class="cls-13" d="M314.85,132.57c-.39.78-2,.91-1,2.13,0,0,.26.91.89.09,0,0,.77-2.35.5-2.38A.38.38,0,0,0,314.85,132.57Z"/><path class="cls-13" d="M299.54,133.8c.06.05,2.64,4.51-.41.9C298.79,134.3,298.39,132.78,299.54,133.8Z"/><path class="cls-13" d="M288.08,129.21c.24,1,2,.51,1.37,1.45,0,0-1.74.73-1.67-.65,0,0-.62-1.28.25-1C288,129.1,288.06,129.14,288.08,129.21Z"/><path class="cls-13" d="M279.1,125.68c.18.38,1.57,2,.33,2C278.83,127.62,278.64,124.71,279.1,125.68Z"/><path class="cls-13" d="M269.36,124.93c1.32.78.27.36.78,1.06.12.16.39.14.29.57-.2,0-.63-.47-1-.66C268.62,125.57,269.14,124.8,269.36,124.93Z"/><path class="cls-13" d="M369.82,134.65c.14.49-.11.45-.26.87-.24.67-.05-.15-.07-.2-.08-.26-.19-.53.13-.72A.13.13,0,0,1,369.82,134.65Z"/><path class="cls-10" d="M381.61,130.7c-1.51,1.64-3.59,2.87-2.28-.65a2.52,2.52,0,0,1,1.51-1.48l.17.53C381.18,129.65,381.41,130.18,381.61,130.7Z"/><path class="cls-10" d="M381.61,130.7l-.11.12a9.88,9.88,0,0,0-.29-1.14l.07.18h0l.06.17h0l.17.43h0v0l.06.15v0Z"/><path class="cls-6" d="M378.72,135.37c-1,.27-9.16,4-3.84,3.82,2-.07,5.06.65,6.1-1.1C383.1,134.52,381.85,134.56,378.72,135.37Z"/><path class="cls-10" d="M324.94,107.48a23,23,0,0,1,4.09.4,12.79,12.79,0,0,0-.13,2c0,2.08.43,2.18-1.81,2-.56,0-.11-.78-1.46,0C325.36,112,325,109.56,324.94,107.48Z"/><path class="cls-10" d="M348.8,111c.84.25,1.76.52,2.69.74,1.35.32,2.68.19,3.91.49a3.73,3.73,0,0,1-1.6,2.46c-2.6,1.73-.95-.22-4.64-.06C348.43,114.67,348.74,112.7,348.8,111Z"/><path class="cls-10" d="M348.8,111h.28l.08,0h.24l.11,0h0l.08,0h0l.07,0h.08l.07,0h1.3l.08,0h.18l.09,0h.19c-1.09-.08-2.07-.34-2.9-.36C348.79,111.29,348.79,111.15,348.8,111Z"/><path class="cls-9" d="M318.22,107.53c-3.74.34-5.3-2-6.55,2.82-2.35,9.13-3.43,25-.53,29.45,1.38,2.1,8.63.28,8.75.27-3.58,1.39-10.44,2.82-13.8.19-1.27-1,4.07-28,4-32.16,0-1,.72-1.57,1.81-1.78s2.77.75,4.22,1A20.05,20.05,0,0,0,318.22,107.53Z"/><path class="cls-10" d="M303.9,104.87a12.16,12.16,0,0,1,4.56.84c-.68,2.25-1.25,4.38-4,2.09C303.84,107.29,303.8,106.08,303.9,104.87Z"/><path class="cls-10" d="M291.29,101.14a40.58,40.58,0,0,1,6.57,3.1,7.27,7.27,0,0,1-2.4,2.15c-1.06.47-1.52,1.43-3.67.27C290.51,106,291,103,291.29,101.14Z"/><path class="cls-10" d="M291.29,101.14c.57.2,1.15.43,1.74.68h0l.44.19.11,0,.09,0,0,0,.09,0,.11,0,0,0,.07,0,0,0,.07,0,.3.14h0c-1.12-.19-2.25-.43-3.27-.53C291.2,101.64,291.25,101.38,291.29,101.14Z"/><path class="cls-10" d="M262.51,103.86a23,23,0,0,1,3.94-4.41c1,2,2.22,2.47-2.2,5.31C263.39,105.32,262.93,104.8,262.51,103.86Z"/><path class="cls-10" d="M315.2,107.08a7.32,7.32,0,0,0,1,.24,22.69,22.69,0,0,0,2.83.25c-.17,1.41-.76,3.16-2.09,2.26-1-.66-3.37,1.83-2-2.18A2.94,2.94,0,0,1,315.2,107.08Z"/><path class="cls-10" d="M305.46,105a9,9,0,0,0-1.58.2q0-.14,0-.28A11.19,11.19,0,0,1,305.46,105Z"/><path class="cls-14" d="M263.63,102.4c-.28.43-.64,1-1,1.64l-.08-.18.5-.67h0l.13-.18,0,0,.11-.14.05-.07.1-.13,0-.05.1-.13Z"/><path class="cls-10" d="M329,108.15a9,9,0,0,0-4,0c0-.23,0-.45,0-.67h2l.32,0h1.07l.13,0h.36l.11,0H329C329,108,329,108.06,329,108.15Z"/><path class="cls-10" d="M376.2,123a12.68,12.68,0,0,1,2,1,19,19,0,0,0-2.19,2.56c-.91,1.58-3.6,0,.13-3.51Z"/><path class="cls-10" d="M378.2,124.05l-.08.1-.77-.58C377.64,123.72,377.93,123.88,378.2,124.05Z"/><path class="cls-8" d="M282.53,142.09c.55-1.33.84-4.08,3.91-5.47,2.66-1.2,2.14,1.28.05,3.32a7.87,7.87,0,0,1-3,1.51C283.14,141.57,282,143.42,282.53,142.09Z"/><path class="cls-15" d="M282.53,142.09c0-.12.09-.24.14-.38l.05,0a1.21,1.21,0,0,1,.3.16C282.6,142.39,282.15,143,282.53,142.09Z"/><path class="cls-8" d="M279.82,138.36s-.37,4.65-.87,2.18c-.25-1.24.06-1.46-.14-3.95C278.59,133.91,283.81,132,279.82,138.36Z"/><path class="cls-15" d="M279.61,140.15c-.16,1-.39,1.73-.66.39,0-.12,0-.24-.06-.35a.91.91,0,0,1,.72,0Z"/><path class="cls-8" d="M274.57,136.16c.16.64-.23,1-.22,1.59,0,1.36.34,2.57,0,2a12.21,12.21,0,0,1-1.86-5C273.66,133.93,273.64,132.51,274.57,136.16Z"/><path class="cls-15" d="M274.47,139.28c.06.53.08.78-.1.43l-.18-.34.17-.06Z"/><path class="cls-10" d="M318.22,107.53a12.61,12.61,0,0,1-3.18-.21l.15-.25h3Z"/><path class="cls-13" d="M258.5,123.15c.51.45,1.92,1.55.33,1.88-1.19.24-.59-.95-1.13-1.83-.31-.5.36-.81.7-.11Z"/><path class="cls-16" d="M114.6,4.81c6.85,1.21,28.56,1.68,31.92,1.74S171.59,6,178.44,4.81c0,0-1.75,55.09-12.24,72.14,0,0-6.28,4-19.24,4.15h-.87c-13-.17-19.24-4.15-19.24-4.15C116.35,59.9,114.6,4.81,114.6,4.81Z"/><path class="cls-17" d="M135.84,8.81s-6.35,54.64,4.72,70.61c0,0-3.45.54-10.35-2.36,0,0-9.8-22.69-10.71-70.06C119.5,6.69,133.66,10.26,135.84,8.81Z"/><ellipse class="cls-18" cx="146.66" cy="4.8" rx="31.9" ry="4.79" transform="translate(-0.03 1.03) rotate(-0.4)"/><ellipse class="cls-19" cx="146.7" cy="4.59" rx="31.07" ry="3.86"/><path class="cls-5" d="M59.24,98.35c-.19-.25-.37-.49-.57-.73a2,2,0,0,0-1.38-.83.43.43,0,0,0-.29.09.36.36,0,0,0,0,.46.91.91,0,0,0,.4.29,4.13,4.13,0,0,1,1.35.72,1.76,1.76,0,0,1-.77,0c.09,0,.36.38.46.46a1.86,1.86,0,0,0,.62.27c.15,0,.51.12.58,0S59.33,98.46,59.24,98.35Z"/><path class="cls-5" d="M60.2,89.34a14.71,14.71,0,0,0-.1,2.54,1.09,1.09,0,0,0,.09.45,1.13,1.13,0,0,0,.36.36c.65.47,1.28,1,2,1.42-.33-.73-.81-1.41-1.17-2.13A8.11,8.11,0,0,1,60.2,89.34Z"/><path class="cls-5" d="M70.18,85.6a4.88,4.88,0,0,0-1.82-.26.79.79,0,0,0,.22.93c.07.06.16.11.18.2s-.23.28-.42.24a1.3,1.3,0,0,1-.55-.26.33.33,0,0,0,.09.5,1.57,1.57,0,0,1,.28.11c.16.12.08.39-.1.48a.63.63,0,0,1-.56-.07.68.68,0,0,0-.31-.12.37.37,0,0,0-.33.3.87.87,0,0,0,.05.47,3,3,0,0,0,1.25,1.58,1.09,1.09,0,0,0,.74.2c.64-.11.74-.86,1-1.3s.67-.51,1-.84C71.65,87,71,86,70.18,85.6Z"/><path class="cls-5" d="M82.44,83.55a3.53,3.53,0,0,0-.19-2.33.16.16,0,0,0,0-.06c-.07,0-.16,0-.2.09a2.26,2.26,0,0,0-.25,1,13.31,13.31,0,0,1-.22,1.32c0,.15-.14.35-.29.3s-.13-.14-.15-.23l-.62-2.52c0-.17-.14-.39-.32-.37s-.2.15-.25.27A3.28,3.28,0,0,0,80,83.51c.16.35.38.66.54,1a4.69,4.69,0,0,0,.49,1,.94.94,0,0,0,.63.37c.31,0,.31-.15.36-.41C82.1,84.84,82.31,84.21,82.44,83.55Z"/><path class="cls-5" d="M137.72,67.57a1.72,1.72,0,0,0-.17.35l-1,2.72a.37.37,0,0,1-.14.21c-.19.11-.37-.16-.43-.38a9.35,9.35,0,0,0-1-2.22c-.14-.22-.41-.47-.62-.31a.47.47,0,0,0-.15.29,11.23,11.23,0,0,0-.15,2.67,7.31,7.31,0,0,0,.23,2,2,2,0,0,0,3.19,1c.48-.35.57-1.17.71-1.72a20.16,20.16,0,0,0,.66-5,1.3,1.3,0,0,0-1.06.23Z"/><path class="cls-5" d="M126.6,71.75a2,2,0,0,0-.13.35l-.78,2.72a.39.39,0,0,1-.11.21c-.15.11-.28-.16-.33-.38a11,11,0,0,0-.75-2.22c-.1-.22-.31-.47-.47-.31a.54.54,0,0,0-.11.29,14.77,14.77,0,0,0-.11,2.67,9.54,9.54,0,0,0,.17,2c.32,1.35,1.48,1.92,2.42,1,.36-.35.43-1.17.54-1.72a26.26,26.26,0,0,0,.5-5,.81.81,0,0,0-.8.23Z"/><path class="cls-5" d="M117.48,75.15a1.7,1.7,0,0,0-.09.27l-.53,2.1a.32.32,0,0,1-.07.16c-.1.08-.19-.13-.22-.29a9.34,9.34,0,0,0-.51-1.72c-.07-.17-.21-.36-.32-.24a.45.45,0,0,0-.08.23,12.93,12.93,0,0,0-.08,2.06,8.33,8.33,0,0,0,.12,1.53c.22,1,1,1.49,1.65.8a3,3,0,0,0,.37-1.33,22.92,22.92,0,0,0,.34-3.83.51.51,0,0,0-.55.18Z"/><path class="cls-5" d="M109.05,76.57a1.7,1.7,0,0,0-.09.27l-.53,2.1a.32.32,0,0,1-.07.16c-.1.08-.19-.13-.22-.29a9.34,9.34,0,0,0-.51-1.72c-.07-.17-.21-.36-.32-.24a.45.45,0,0,0-.08.23,12.93,12.93,0,0,0-.08,2.06,8.33,8.33,0,0,0,.12,1.53c.22,1,1,1.49,1.65.8a3,3,0,0,0,.37-1.33,22.92,22.92,0,0,0,.34-3.83.51.51,0,0,0-.55.18Z"/><path class="cls-5" d="M101.43,79.27c-.26,0-.47.41-.73.31a.44.44,0,0,1-.21-.27l-.24-.58a.71.71,0,0,0-.36-.45.16.16,0,0,0-.18,0c-.09.13,0,.38-.09.54a3,3,0,0,0-.12.38,9,9,0,0,0,0,1.33,8.33,8.33,0,0,0,.12,1.53c.22,1,1,1.49,1.65.8a3,3,0,0,0,.37-1.33,6,6,0,0,0,.13-1.81c0-.2-.1-.43-.3-.46Z"/><path class="cls-5" d="M91.25,79.66l.06.23a1.12,1.12,0,0,1,0,.44.41.41,0,0,1-.26.33.47.47,0,0,1-.43-.14c-.12-.11-.21-.24-.33-.34a1.54,1.54,0,0,0-.91-.23A.94.94,0,0,0,89,80a.32.32,0,0,0-.22.28c0,.15.15.27.29.32a1.33,1.33,0,0,1,.42.19c.33.29.2,1.2.28,1.62.22,1,1,1.49,1.65.8a6,6,0,0,0,.79-2.65,3.07,3.07,0,0,0,0-1.45,1.29,1.29,0,0,0-1-.91A2.86,2.86,0,0,0,91.25,79.66Z"/><path class="cls-6" d="M162,96.66c-.27,1.93-14.44,8.38-14.36,4.6C147.86,93.32,163.07,89.44,162,96.66Z"/><path class="cls-7" d="M160.5,98.21a32.19,32.19,0,0,1-6.71,3.25,12.34,12.34,0,0,1,2.07-2.67c2-2,4.14-3.06,4.8-2.4C161,96.71,160.9,97.38,160.5,98.21Z"/><path class="cls-8" d="M82.12,106.15s4.51-1,4.61.14C87,110.06,80.28,108.38,82.12,106.15Z"/><path class="cls-8" d="M139.87,102.19c.13.54,2.12.63,2.48.49.88-.36,2.46,0,2.47-1.54C144.82,101,139.19,99.46,139.87,102.19Z"/><path class="cls-8" d="M137.47,102.88c-.92,0-2.45.44-3.12-.27-.29-.31-.23-1,0-1.72C138.36,99.51,140.59,103,137.47,102.88Z"/><path class="cls-8" d="M131.86,102.75a6.31,6.31,0,0,0-2.63.86c-2.15,1.69.21,3.68,1.85,2.33.7-.58,0,.61,1.1-1,.18-.26.47-.14,1.16-.88.37-.39.52-1.19.14-1.54C133.44,102.5,133.19,101.54,131.86,102.75Z"/><path class="cls-8" d="M114.5,106.61c0-.06-7.14-1.81-7.44-.21C106.07,111.8,117.18,110,114.5,106.61Z"/><path class="cls-8" d="M104.14,106.13c0-.06-6.21-1.82-6.47-.21C96.81,111.35,106.47,109.53,104.14,106.13Z"/><path class="cls-8" d="M89,105.92c0-.05,6.8-1.29,6.94.19C96.42,111.1,86.23,108.88,89,105.92Z"/><path class="cls-6" d="M105.19,81.41c-.47.17-1,.9-1.08,2.44-.32,5.26-.79,19.64.26,21.56.5.91,8.9,3.87,12.41,1.13,1-.77-3.14-21.59-3.12-24.83,0-.8-.56-1.21-1.4-1.38s-2.14.58-3.26.76C107.24,81.38,105.67,81.24,105.19,81.41Z"/><path class="cls-6" d="M122.42,80.24c-2.71-1.43-5.84-1.49-9.24.45-.47.27.49,1,.38,2.58-.36,5.45,2.06,21.27,3.22,23.26.55.94,5.64,1.68,10.11-.49,2.85-1.39-4-19.19-3.93-24.66A1.19,1.19,0,0,0,122.42,80.24Z"/><path class="cls-9" d="M117.27,79.27c1.92.2,3.51-.6,5.48,13.47,1.54,11,6,12.64.82,14.42a14,14,0,0,0,3.32-1.11c2.85-1.39-4-19.19-3.93-24.66a1.19,1.19,0,0,0-.54-1.14A8.61,8.61,0,0,0,117.27,79.27Z"/><path class="cls-6" d="M97.38,81.93c-.41.16-.82.86-.91,2.35-.27,5-.66,18.86.22,20.7.42.87,5.72,3.72,8.66,1.09.47-.42.58-.89.57-2.07,0-4.94-.85-17-.83-21.34C105.11,80.19,98.34,81.55,97.38,81.93Z"/><path class="cls-9" d="M96.16,94.85a3.74,3.74,0,0,0,.58,0c.33-2.2-.8-11,.84-12.4s5.4-1,6,0c.87,1.44,2.34,18.5.45,21.54-.22.35-1.25,2.56-2.53,2.59a10.36,10.36,0,0,1-4.44-1.21c1.32,1.09,5.72,3,8.29.69.47-.42.58-.89.57-2.07,0-4.94-.85-17-.83-21.34,0-2.47-6.76-1.12-7.72-.73-.41.16-.82.86-.91,2.35C96.35,86.61,96.2,90.82,96.16,94.85Z"/><path class="cls-6" d="M96.28,82.89a8.78,8.78,0,0,0-8.48.3,2.48,2.48,0,0,0-1.05,2.2c-.32,4.72-1.06,20.69.93,20.95a25.88,25.88,0,0,0,9.37-.55c.66-.14.67-.83.66-1.94,0-4.63-1-15.95-1-20A1,1,0,0,0,96.28,82.89Z"/><path class="cls-10" d="M93.41,82a8.92,8.92,0,0,0-4.65.71c-.08.83-.83,1.34.33,3s2.05-2.39,4.23-1.75C93.57,84.09,93.58,83.09,93.41,82Z"/><path class="cls-9" d="M96.28,82.89A8.44,8.44,0,0,0,94,82.09a4.46,4.46,0,0,1,1.74,3.76c.56,10.31,3.11,15.56-.83,19.07-1.13,1-2.81.81-5.31,1.59a28.46,28.46,0,0,0,7.44-.73c.66-.14.67-.83.66-1.94,0-4.63-1-15.95-1-20A1,1,0,0,0,96.28,82.89Z"/><path class="cls-6" d="M75.23,88.13c-.61,4.41,3.69,16.36,4.83,18,.54.77,3,1.08,6.81.23,2.2-.49-.79-18.32.43-22.18.11-.36-.32-.75-.78-.79-1-.07-2.82.69-4.8,1.15-1.36.32-2.69.06-3.84.69C76.45,86,75.39,87,75.23,88.13Z"/><path class="cls-9" d="M79.34,104.71a9.41,9.41,0,0,0,.72,1.4c.54.77,3,1.08,6.81.23,2.2-.49-.79-18.32.43-22.18.11-.36-.32-.75-.78-.79-1-.07-2.82.69-4.8,1.15l-.15,0c2-.14,3.56-1.14,4.22,1.75,1.19,5.18.9,9.63,1.3,14.15.24,2.74.82,4.69-3,5.58a10.39,10.39,0,0,1-3.09.24c-.88-.09-.77-2.26-1.3-3.11A13.1,13.1,0,0,0,79.34,104.71Z"/><path class="cls-6" d="M76.45,86c-2.48-1.21-11.84,3.94-12.1,7.54-.29,4.08,5,10.25,6,11.73.44.71,5.1,1.62,9.73.85.6-.1-3.19-15.39-3.17-19.27A.87.87,0,0,0,76.45,86Z"/><path class="cls-10" d="M72.29,86.6A20.77,20.77,0,0,0,66.7,90a6.93,6.93,0,0,1,1,1.17c1.55,2.3.05-2,5.35-2.55C74.14,88.52,73.75,87.36,72.29,86.6Z"/><path class="cls-9" d="M66.67,90a6,6,0,0,0-2.31,3.5c-.29,4.08,5,10.25,6,11.73.24.38,1.72.83,3.77,1a2.51,2.51,0,0,0-2.06-.85c-1.76-.19-2.91-3.53-4.27-6.42-1-2.12-2.27-3.84-2.33-4.59C65.22,91.6,66,91.23,66.67,90Z"/><path class="cls-6" d="M121.58,79.85c-1.62,2.41,4.47,22.45,6,25,.17.3.82,1,1.24.53,1.36-1.53,1.14-2.21,3.78-2.21a2.07,2.07,0,0,0,1.78-2.14c0-3.1,3.06-10.95,2-16.38-.75-3.93-4.26-6.14-4.25-8.09C132.11,73.73,122.29,78.78,121.58,79.85Z"/><path class="cls-9" d="M127.26,104.31c.1.22.19.4.27.53.17.3.82,1,1.24.53,1-1.13,1.15-1.79,2.21-2.06h0c-.56.05-.47-.16-1.88,1-.4.33-1,1.1-1.41.52Z"/><path class="cls-9" d="M125.78,77.33c2.74-.46,5.55-1.33,5.44,2s2.36,18.25,2,22.83c-.06.84-.71.93-1.08,1h.39a2.07,2.07,0,0,0,1.78-2.14c0-3.1,3.06-10.95,2-16.38-.75-3.93-4.26-6.14-4.25-8.09,0-1.61-3.19-.65-6.07.66l-.24.11Z"/><path class="cls-6" d="M141.45,73.41a8.27,8.27,0,0,0-4.95-.35c-3.7.93-6.82,1.78-5.12,3.76,2.18,2.53,1.28,24.91,3.07,25.08.83.08,1.64-.17,2.22-.09,1,.14,1.55.59,2,.59.71,0,1.33-.59,1.38-1.76.19-4.4,4.24-20.69,4.27-25.33C144.3,74.77,141.79,73.58,141.45,73.41Z"/><path class="cls-10" d="M139.2,72.88a8.54,8.54,0,0,0-2.7.19,28.27,28.27,0,0,0-4,1.21c3.59,4.87,6.72-.84,6.72-1S139.21,73,139.2,72.88Z"/><path class="cls-9" d="M141.45,73.41a4.46,4.46,0,0,0-1.07-.36c2.53,2.22,2.23,5.5,1.45,8.86s-2.41,18.62-3.44,19.5c-.49.42-1.06.25-1.88.16s-1.18.37-2.47-.5q0,.11,0,.22c.13.38.27.59.44.61.83.08,1.64-.17,2.22-.09,1,.14,1.55.59,2,.59.71,0,1.33-.59,1.38-1.76.19-4.4,4.24-20.69,4.27-25.33C144.3,74.77,141.79,73.58,141.45,73.41Z"/><path class="cls-6" d="M156.26,85.9c-2.71-1.43-8.06-13.38-11.45-11.43a2.76,2.76,0,0,0-1.59,2.42c-.36,5.45-4.73,22.87-3.57,24.86.05.09,1.32-.39,3-.54.77-.07,1.64.56,2.51.24s1-1.44,2.14-2.64C151.42,94.44,157,86.26,156.26,85.9Z"/><path class="cls-9" d="M149.57,77.29c.85,1.32,2.68,4.35,3.07,5,.66,1.07.46,4.41-1,7.24-1.56,3.11-4.07,6.29-4.33,8.16-.13.92-.74,1.35-1.2,2.82a8.71,8.71,0,0,1,1.17-1.68c4.1-4.37,9.67-12.54,8.95-12.91C154.64,85,152.09,80.45,149.57,77.29Z"/><path class="cls-6" d="M153.67,84.75c-1.06,5.35-6.5,11.26-5.61,13.38.42,1,5.67.48,8.59-2.33.55-.53,4.37-3.22,3.77-4.35C156.32,83.71,153.68,84.7,153.67,84.75Z"/><path class="cls-9" d="M148.14,96.63a2.24,2.24,0,0,0-.07,1.5c.42,1,5.67.48,8.59-2.33.55-.53,4.37-3.22,3.77-4.35q-.28-.52-.54-1c-.06,4.56-9.45,9.43-11.22,7.65A2.45,2.45,0,0,1,148.14,96.63Z"/><path class="cls-11" d="M159.67,90.1A17.84,17.84,0,0,0,156.6,86c-1.39,2.84-3.53,6.85-1.35,7.05.49,0,1-1.68,3.45-2.24A1.78,1.78,0,0,0,159.67,90.1Z"/><path class="cls-6" d="M63.43,92.93c-1.65.6-4.36,1.71-3.95,4,.28,1.57,3.46,5.83,7.33,8.1,1.67,1,3.42,1.09,3.71.4.37-.89-5.13-8.59-5.72-11.79C64.63,92.69,64.22,92.65,63.43,92.93Z"/><path class="cls-9" d="M61.75,93.64c-1.33.68-2.56,1.7-2.27,3.3s3.46,5.83,7.33,8.1c1.67,1,3.42,1.09,3.71.4.08-.2-.12-.72-.49-1.45-.35,1.17-1.58,1.55-2,1-.87-1-1.77-2.76-3.22-3.94a50.2,50.2,0,0,1-4.17-4.91C59.83,95,60.37,94.68,61.75,93.64Z"/><path class="cls-6" d="M65.54,105.75c.81.86,2.36,0,1.72-.95-1.56-2.27-5.51-6.22-6.92-8-.83-1-1.1.12-1.41,1.07-.52,1.65-1.69,3.11,0,4.63C60.07,103.57,64.2,104.32,65.54,105.75Z"/><path class="cls-9" d="M65.54,105.75c.81.86,2.36,0,1.72-.95l-.33-.46c0,.11-.09.39-.1.43-.13,1-.86,1-1.33.43-2.95-3.7-8.38-1.59-6.72-6.84-.55,1.48-1.39,2.81.15,4.19C60.07,103.57,64.2,104.32,65.54,105.75Z"/><path class="cls-9" d="M72.71,86.44c.88.45,3-.82,3.2.61,3,16.94,6.91,17.59-4.87,18.48a.35.35,0,0,0-.18.09,20,20,0,0,0,9.2.5c.6-.1-3.19-15.39-3.17-19.27a.87.87,0,0,0-.44-.85C75.69,85.62,74.29,85.84,72.71,86.44Z"/><path class="cls-9" d="M143.33,101c-1.1-.26-2.86.06-3.22-.27a2.51,2.51,0,0,1-.6-1.44,5.41,5.41,0,0,0,.14,2.48c.05.09,1.32-.39,3-.54.77-.07,1.64.56,2.51.24s.94-1,1.54-1.88l0-.07C145.65,100.29,145.53,101.49,143.33,101Z"/><path class="cls-10" d="M80.85,92.09c.37,1.89.82.63,1.2,3.76,0,.13,1.48,3,1.48-1.12,0-2.08.11-2.21-1.63-3.27C81.62,91.3,80.68,91.21,80.85,92.09Z"/><path class="cls-10" d="M91.11,91.08c.25-.82,2.09-.53,2.09.53,0,2.82.72,3.79-2.06,3.45C90,94.92,90.86,91.9,91.11,91.08Z"/><path class="cls-10" d="M100.24,90.18c-1,2.09.11,1.83.47,5,.11,1,1.21.13,1.11-2,0-.49,1.43-3.33-1.26-3.18A.56.56,0,0,0,100.24,90.18Z"/><path class="cls-10" d="M108.56,89.88c.21,1.47-.27.47.33,1.93,0,0,.16,3.14.93,2.18.42-.52-.13-2.11.31-3.35C110.68,89.1,109,88.37,108.56,89.88Z"/><path class="cls-10" d="M117.06,90.53c0,.53,1.2,3.26,1.32,4.68.17,2,3,.31,1-4.38-.24-.57.57-2.14-1.47-1.94C117.45,88.94,117,90,117.06,90.53Z"/><path class="cls-10" d="M128,92.55c1.17.3.73-1.26.91-3,.45-4.34-1.4-1.58-2.67-1.95C124.54,87.1,126,92,128,92.55Z"/><path class="cls-10" d="M137,81.84a4.26,4.26,0,0,1,1.33.25c.37.08-.63,1.94-.63,3.95,0,1,.14,6.16-1.44,3.68-.44-.69.89-3.18-.28-5.53C135.32,82.89,136,81.91,137,81.84Z"/><path class="cls-10" d="M147.06,84.32c1.56,1.74.35,2.14-.64,4.2-.08.16-2.1,2.12-.8-1.37C146.57,84.58,145.25,83.64,147.06,84.32Z"/><path class="cls-10" d="M72.57,93.89c-3.94.05.32,4.94.91,4.42.09-.08.29-2.08.64-2.95C74.74,93.82,73.49,93.8,72.57,93.89Z"/><path class="cls-10" d="M65.33,99.86c.22.44,1,1.73,1,.46,0-.73-.69-.94-.76-2.22,0-.16-.6-1.35-1.23-.42C63.93,98.29,65.06,99.33,65.33,99.86Z"/><path class="cls-10" d="M62.86,101.47c-.27-.7-.78-.85-1.12-.78C60.62,100.94,63.41,102.88,62.86,101.47Z"/><path class="cls-8" d="M61.33,100.3c-.14-.11-.6-.51-.53,0,0,.24-.34.72.23.63C61.11,100.88,61.57,100.48,61.33,100.3Z"/><path class="cls-8" d="M64.78,96.3c-.19-.27-.8.11-1,.29-.72.69.06.9.13.71.17-.46.81-.48.91-.69A.67.67,0,0,0,64.78,96.3Z"/><path class="cls-8" d="M69,92.66c.57,0,1.26-2,3.61-1.42,1.51.37,3.09-1.55.06-1.47C71,89.81,69,90.78,69,92.66Z"/><path class="cls-8" d="M80.14,89.17c1.19-.6,2.42.46,2.74.68.51.35,1.52-.11.82-.89-.37-.41,1-1.7-1.56-1.37a3.24,3.24,0,0,1-1.6.5C80.19,88.11,79.59,89.44,80.14,89.17Z"/><path class="cls-8" d="M93.23,87.72c.43.29.7.14.58-.77,0-.37-1.12-2.4-2.23-1.16C88.14,89.64,91.75,86.71,93.23,87.72Z"/><path class="cls-8" d="M99.83,86.73c1.6-.33,3.35,1,2.66-.32-.13-.25-.73-.43-1.11-.84C100.48,84.61,98.23,87.06,99.83,86.73Z"/><path class="cls-8" d="M107.75,84.91c-.2.57.12,1,.76.57,1.23-.76,2.85.72,2.39-.35S108.39,83,107.75,84.91Z"/><path class="cls-8" d="M116,84.72c-.19.34-1.33-.52-.06-1.79.13-.13.8.27,1.79-.32s1.57.78,1.8,1.43C120,85.34,117,82.93,116,84.72Z"/><path class="cls-8" d="M124,82.88c.2.44-.64,1.06.25,1.5.18.09.71-.25,1-.13a5.13,5.13,0,0,0,3.85-1.32c.3-.24.82-.58.07-1.36s-3.52.47-4.59.56C124.32,82.15,123.84,82.41,124,82.88Z"/><path class="cls-8" d="M134.21,79.67c.23.61.78.29,1.47,0a5.83,5.83,0,0,1,3-.26c.82.12,1.24.77,1.36,0,.58-3.58-1.82-3-5.27-1.57C134.39,77.95,134.08,79.32,134.21,79.67Z"/><path class="cls-8" d="M146.09,81.53c.42.19,1,.24,1.41.42s.89.52.86-.22a3.33,3.33,0,0,0-.47-1.86C147.08,78.74,145.26,81.16,146.09,81.53Z"/><path class="cls-8" d="M75.15,99a13.23,13.23,0,0,0-.62,2.58c0,.1-.66.74.36.64.57-.06.06-1.35.85-2.06.2-.18.55-1.78.25-1.77C75,98.42,75.12,98.86,75.15,99Z"/><path class="cls-8" d="M84.15,99.76s.75.64-.53.69-.51.66-1.67-.62c-.08-.09-.42-1-.18-1.23S82.76,100,84.15,99.76Z"/><path class="cls-8" d="M66.71,100.71c-.57,1.32.17.18.25,1.28,0,0,.63.29.29-.23C67.18,101.68,66.85,100.36,66.71,100.71Z"/><path class="cls-8" d="M63.38,101.87c-.53.75.51,1.09.5.8C63.86,102.19,63.48,101.74,63.38,101.87Z"/><path class="cls-8" d="M90.17,100.3c.08.3.9,1.15,1.47.13.3-.53,1-.15,1.94-.59s1.49-2.15-.52-1.74C89.39,98.85,89.14,96.34,90.17,100.3Z"/><path class="cls-12" d="M101.84,98.62c.26-.22,1.84-1.13.29,1.06-.3.42-.8,2.26-.93,2.06-.54-.82.21-.9-.76-1.81,0,0-.43-1.15,0-1.15A1.15,1.15,0,0,0,101.84,98.62Z"/><path class="cls-8" d="M109.13,97.43c.87,1,1.68,0,1.86,1.82,0,.09.46,1.22.17,1.32-.07.23-1.69-1.63-1.76-1.91S108.39,97.57,109.13,97.43Z"/><path class="cls-8" d="M121.39,99.18c-.26,1.76-3.63.33-1.32,3.12.45.54,1.19-1.67,1.6-2.28C122.52,98.75,121.52,98.34,121.39,99.18Z"/><path class="cls-8" d="M127.89,96c-1.14-.24,1.16,3.58,3.18.86.34-.46.1-1.93-.33-1.35S129.6,96.38,127.89,96Z"/><path class="cls-8" d="M138.16,92c-1.42,2.52-2.76-.64-2.28,1.45.08.35,1,.88,1,1.95s.35-1.57,1-1.73C138.79,93.4,138.63,91.13,138.16,92Z"/><path class="cls-12" d="M146.39,91.25c-.94.64-1.82.52-2.19,1s-.72,2.52,1,1.48c.77-.45,1.94-2.33,1.79-2.73S146.74,91,146.39,91.25Z"/><path class="cls-13" d="M75.77,101.23a7.24,7.24,0,0,0-.07,1.45c.7,0,.4-.8.58-1.46.1-.39-.45-.28-.45-.1Z"/><path class="cls-13" d="M84,100.87c-.49.16-1.56,0-.67,1C83.63,102.17,84.93,100.56,84,100.87Z"/><path class="cls-13" d="M64.2,102.87c0,.4,0,.13.3.4.14.12.16-.29,0-.44C64.45,102.83,64.2,102.42,64.2,102.87Z"/><path class="cls-13" d="M92.35,100.71c-.41.64-1.71,1,.38,1C93.27,101.76,94.14,100.71,92.35,100.71Z"/><path class="cls-13" d="M102.48,100.84c-.11.45-.85,1.52-.08,1.23,0,0,1.32-1.71.1-1.37Z"/><path class="cls-13" d="M110,100.59c.3.6,1.54.7.79,1.64,0,0-.2.7-.69.07,0,0-.59-1.82-.39-1.84A.29.29,0,0,1,110,100.59Z"/><path class="cls-13" d="M121.84,101.54s-2,3.49.32.7C122.42,101.93,122.72,100.75,121.84,101.54Z"/><path class="cls-13" d="M130.69,98c-.18.74-1.57.4-1.06,1.12,0,0,1.34.57,1.29-.5,0,0,.48-1-.19-.76Z"/><path class="cls-13" d="M137.62,95.27c-.14.29-1.22,1.56-.25,1.52C137.83,96.77,138,94.52,137.62,95.27Z"/><path class="cls-13" d="M145.15,94.69c-1,.61-.21.28-.6.82-.09.12-.3.11-.22.44.16,0,.49-.36.81-.51C145.71,95.19,145.32,94.59,145.15,94.69Z"/><path class="cls-13" d="M67.57,102.19c-.11.38.09.35.2.67.18.51,0-.12.05-.16.06-.2.14-.41-.1-.55A.1.1,0,0,0,67.57,102.19Z"/><path class="cls-10" d="M58.46,99.15c1.17,1.26,2.77,2.21,1.76-.5a1.94,1.94,0,0,0-1.17-1.14l-.13.41C58.79,98.34,58.62,98.75,58.46,99.15Z"/><path class="cls-10" d="M58.46,99.15l.09.09a7.63,7.63,0,0,1,.23-.88l-.05.14h0l-.05.13h0l-.13.33h0v0l0,.11v0Z"/><path class="cls-6" d="M60.69,102.75c.81.21,7.07,3.09,3,2.95-1.51-.05-3.91.51-4.71-.85C57.32,102.1,58.28,102.13,60.69,102.75Z"/><path class="cls-10" d="M102.22,81.21a17.8,17.8,0,0,0-3.16.31,9.87,9.87,0,0,1,.1,1.56c0,1.61-.33,1.68,1.4,1.54.43,0,.09-.6,1.13,0C101.9,84.72,102.17,82.83,102.22,81.21Z"/><path class="cls-10" d="M83.8,83.95c-.65.19-1.36.4-2.08.57-1,.24-2.07.15-3,.38a2.88,2.88,0,0,0,1.24,1.9c2,1.34.73-.17,3.59,0C84.09,86.77,83.85,85.25,83.8,83.95Z"/><path class="cls-10" d="M83.8,83.95h-.22l-.06,0h-.19l-.08,0h0l-.06,0h0l-.05,0H83l-.06,0h-1.2l-.07,0h-.15c.84-.06,1.6-.27,2.24-.28C83.81,84.16,83.81,84.05,83.8,83.95Z"/><path class="cls-9" d="M107.41,81.26c2.89.27,4.1-1.56,5.06,2.18,1.82,7,2.65,19.33.41,22.74-1.06,1.62-6.66.22-6.76.21,2.77,1.08,8.06,2.18,10.66.15,1-.77-3.14-21.59-3.12-24.83,0-.8-.56-1.21-1.4-1.38s-2.14.58-3.26.76A15.49,15.49,0,0,1,107.41,81.26Z"/><path class="cls-10" d="M118.47,79.2a9.39,9.39,0,0,0-3.52.65c.53,1.74,1,3.38,3.09,1.62C118.52,81.07,118.55,80.14,118.47,79.2Z"/><path class="cls-10" d="M128.21,76.32a31.34,31.34,0,0,0-5.08,2.39A5.62,5.62,0,0,0,125,80.37c.82.36,1.18,1.11,2.84.21C128.81,80,128.45,77.75,128.21,76.32Z"/><path class="cls-10" d="M128.21,76.32c-.44.16-.89.33-1.34.52h0l-.34.15-.08,0-.07,0h0l-.07,0-.08,0h0l-.06,0h0l-.05,0-.23.11h0c.87-.14,1.74-.33,2.52-.41C128.28,76.71,128.24,76.51,128.21,76.32Z"/><path class="cls-10" d="M150.43,78.42a17.78,17.78,0,0,0-3-3.4c-.79,1.58-1.72,1.91,1.7,4.1C149.76,79.55,150.11,79.15,150.43,78.42Z"/><path class="cls-10" d="M109.75,80.9a5.65,5.65,0,0,1-.75.18,17.52,17.52,0,0,1-2.18.19c.13,1.09.59,2.44,1.61,1.74.76-.51,2.6,1.42,1.56-1.68A2.27,2.27,0,0,0,109.75,80.9Z"/><path class="cls-10" d="M117.27,79.27a7,7,0,0,1,1.22.15l0-.22A8.64,8.64,0,0,0,117.27,79.27Z"/><path class="cls-14" d="M149.57,77.29l.8,1.27.06-.14-.38-.51h0l-.1-.14,0,0-.08-.11,0-.05-.08-.1,0,0-.08-.1Z"/><path class="cls-10" d="M99.09,81.74a7,7,0,0,1,3.11,0c0-.17,0-.35,0-.52h-1.58l-.25,0h-.82l-.1,0h-.41Z"/><path class="cls-10" d="M62.64,93.24a9.8,9.8,0,0,0-1.55.78,14.7,14.7,0,0,1,1.69,2c.7,1.22,2.78,0-.1-2.71Z"/><path class="cls-10" d="M61.09,94l.06.08.6-.45C61.53,93.75,61.3,93.88,61.09,94Z"/><path class="cls-8" d="M135,107.94c-.42-1-.65-3.15-3-4.22-2.05-.93-1.65,1,0,2.57a6.08,6.08,0,0,0,2.35,1.17C134.5,107.54,135.4,109,135,107.94Z"/><path class="cls-15" d="M135,107.94c0-.09-.07-.19-.11-.29h0a.94.94,0,0,0-.23.12C134.92,108.17,135.27,108.66,135,107.94Z"/><path class="cls-8" d="M137.07,105.06s.28,3.59.67,1.69c.2-1,0-1.13.11-3S134,100.17,137.07,105.06Z"/><path class="cls-15" d="M137.23,106.44c.12.75.3,1.34.51.3,0-.1,0-.18,0-.27a.7.7,0,0,0-.56,0Z"/><path class="cls-8" d="M141.12,103.36c-.12.49.17.79.17,1.23,0,1.05-.26,2,0,1.52a9.43,9.43,0,0,0,1.44-3.89C141.83,101.64,141.84,100.55,141.12,103.36Z"/><path class="cls-15" d="M141.2,105.77c0,.41-.06.6.08.33l.14-.26-.13,0Z"/><path class="cls-10" d="M107.41,81.26a9.74,9.74,0,0,0,2.46-.16l-.12-.19h-2.34Z"/><path class="cls-13" d="M153.53,93.32c-.39.35-1.48,1.2-.25,1.45.92.19.46-.73.87-1.41.24-.39-.28-.63-.54-.09Z"/><path class="cls-20" d="M0,26.83c9.66,1.7,40.26,2.36,45,2.45,4.73-.09,35.33-.75,45-2.45,0,0-2.47,77.65-17.26,101.68,0,0-8.85,5.6-27.12,5.84H44.37c-18.27-.24-27.12-5.84-27.12-5.84C2.47,104.48,0,26.83,0,26.83Z"/><path class="cls-21" d="M29.93,32.47s-9,77,6.65,99.52c0,0-4.86.77-14.58-3.33,0,0-13.82-32-15.09-98.75C6.9,29.47,26.86,34.51,29.93,32.47Z"/><ellipse class="cls-22" cx="45.18" cy="26.81" rx="44.96" ry="6.75" transform="translate(-0.19 0.32) rotate(-0.4)"/><ellipse class="cls-23" cx="45.24" cy="26.51" rx="43.79" ry="5.44"/></svg>