<svg id="Layer_1" data-name="Layer 1" xmlns="http://www.w3.org/2000/svg" xmlns:xlink="http://www.w3.org/1999/xlink" viewBox="0 0 447.04 143.08"><defs><style>.cls-1{fill:#816d55;}.cls-1,.cls-10,.cls-11,.cls-12,.cls-13,.cls-14,.cls-15,.cls-16,.cls-17,.cls-18,.cls-19,.cls-2,.cls-20,.cls-21,.cls-23,.cls-24,.cls-25,.cls-26,.cls-27,.cls-28,.cls-29,.cls-3,.cls-30,.cls-31,.cls-32,.cls-4,.cls-5,.cls-6,.cls-7,.cls-8,.cls-9{fill-rule:evenodd;}.cls-2{fill:url(#linear-gradient);}.cls-3{fill:url(#linear-gradient-2);}.cls-4{fill:url(#linear-gradient-3);}.cls-5{fill:url(#linear-gradient-4);}.cls-6{fill:url(#linear-gradient-5);}.cls-7{fill:url(#linear-gradient-6);}.cls-8{fill:url(#linear-gradient-7);}.cls-9{fill:url(#linear-gradient-8);}.cls-10{fill:url(#linear-gradient-9);}.cls-11{fill:url(#linear-gradient-10);}.cls-12{fill:url(#linear-gradient-11);}.cls-13{fill:url(#linear-gradient-12);}.cls-14{fill:url(#linear-gradient-13);}.cls-15{fill:url(#linear-gradient-14);}.cls-16{fill:url(#linear-gradient-15);}.cls-17{fill:url(#linear-gradient-16);}.cls-18{fill:url(#linear-gradient-17);}.cls-19{fill:#76ab20;}.cls-20{fill:#a7d75b;}.cls-21{fill:#5a8710;}.cls-22,.cls-30{fill:orange;}.cls-23{fill:#39f;}.cls-24{fill:#090052;}.cls-25,.cls-28,.cls-29{fill:#0d0072;}.cls-26{fill:#4026d3;}.cls-27{fill:#ffed17;}.cls-28,.cls-29{stroke:#0d0072;stroke-miterlimit:22.93;}.cls-28{stroke-width:1.42px;}.cls-29{stroke-width:0.57px;}.cls-31{fill:#d10072;}.cls-32{fill:#5a00bf;}</style><linearGradient id="linear-gradient" x1="-223.3" y1="4494.48" x2="318.45" y2="4494.48" gradientTransform="matrix(1, 0.07, 0.07, -1, -149.55, 4539.47)" gradientUnits="userSpaceOnUse"><stop offset="0" stop-color="#65653a"/><stop offset="1" stop-color="#3d3a2c"/></linearGradient><linearGradient id="linear-gradient-2" x1="-223.3" y1="4493.93" x2="318.45" y2="4493.93" xlink:href="#linear-gradient"/><linearGradient id="linear-gradient-3" x1="-223.3" y1="4501.75" x2="318.45" y2="4501.75" xlink:href="#linear-gradient"/><linearGradient id="linear-gradient-4" x1="-223.3" y1="4511.45" x2="318.45" y2="4511.45" xlink:href="#linear-gradient"/><linearGradient id="linear-gradient-5" x1="-223.3" y1="4506.87" x2="318.45" y2="4506.87" xlink:href="#linear-gradient"/><linearGradient id="linear-gradient-6" x1="-223.3" y1="4491.46" x2="318.45" y2="4491.46" xlink:href="#linear-gradient"/><linearGradient id="linear-gradient-7" x1="-223.3" y1="4519.22" x2="318.45" y2="4519.22" xlink:href="#linear-gradient"/><linearGradient id="linear-gradient-8" x1="-223.3" y1="4472.41" x2="318.45" y2="4472.41" xlink:href="#linear-gradient"/><linearGradient id="linear-gradient-9" x1="-223.3" y1="4531.33" x2="318.45" y2="4531.33" xlink:href="#linear-gradient"/><linearGradient id="linear-gradient-10" x1="-223.3" y1="4518.94" x2="318.45" y2="4518.94" xlink:href="#linear-gradient"/><linearGradient id="linear-gradient-11" x1="-223.3" y1="4546.22" x2="318.45" y2="4546.22" xlink:href="#linear-gradient"/><linearGradient id="linear-gradient-12" x1="-223.3" y1="4539.78" x2="318.45" y2="4539.78" xlink:href="#linear-gradient"/><linearGradient id="linear-gradient-13" x1="-223.3" y1="4483.36" x2="318.45" y2="4483.36" xlink:href="#linear-gradient"/><linearGradient id="linear-gradient-14" x1="-223.3" y1="4528.13" x2="318.45" y2="4528.13" xlink:href="#linear-gradient"/><linearGradient id="linear-gradient-15" x1="-223.3" y1="4427.41" x2="318.45" y2="4427.41" xlink:href="#linear-gradient"/><linearGradient id="linear-gradient-16" x1="-223.3" y1="4477.18" x2="318.45" y2="4477.18" xlink:href="#linear-gradient"/><linearGradient id="linear-gradient-17" x1="-223.3" y1="4504.22" x2="318.45" y2="4504.22" xlink:href="#linear-gradient"/></defs><title>caterpillar-over-under</title><path class="cls-1" d="M441.2,41.06c1.63-.66,3.72-1.71,5.84-2.46a132.2,132.2,0,0,0-2.19-19l-1.34.35-2.41.62c-4.93.29-14.14,4.35-19,3.77-3.51-.41-5.4,2.38-5.48-.4a44.57,44.57,0,0,0-8.42.19,58.36,58.36,0,0,1-8.88.36,7.1,7.1,0,0,1-3.52,1.86c-4.83,1.24-9.65,2.21-14.58,1.51-1.42-.2-10.48.63-14.56.27-1-.08-3.67-.74-6.72-1.43-5,.19-10,.22-15,.25a182,182,0,0,0-26.08,1.72c-7.1,1.07-14.13,2.25-21.28,2.5-.32.1-.64.21-1,.3a6.17,6.17,0,0,1-2.37.17c-1.67.4-3.46.82-5.44,1.33-6.49,1.68-12.35.83-20.81,3a76.31,76.31,0,0,1-11.66,2.26l-9.92,1.64c-4.88,1.33-12.74,1.15-19.88,3-5.26,1.34-10.18,1-16.9,2.7a213.17,213.17,0,0,1-26.11,5.11,25.67,25.67,0,0,0-3.89.26c-4.84.6-17.58,3.56-21.41,3.59-5,0-23.12,7.42-35.32,7.44-2.76,0-20.69,4.42-25.8,5.26-2.35.39-8.65,1.21-10.39.4-.91-.44-5.5,2.07-5.51,2.08-5.51,1.42-6.91,4.13-14.71,6.13C55.62,78.67,57,80,44.14,80.23,39.85,80.3,32.35,82,29.29,85.1s-17.56,5-17.38,6.24C3.65,91,7,90.44,0,92.28c6,11.13,11.44,22.53,16.41,34.22,11.37-3.18,23.56-6.88,29.45-11.1.86-.62,17.27-.5,21.71-3.74.08-.06,16.52-2.84,19.34-4.95l.86-.34c17.38-.32,41.5-12.74,65.23-18.09,17.32-3.9,40.34-8.2,56.73-8.26,10.89,0,35.46-8.48,48.9-10.77.14,0,4.85.83,5.12.75,1.8-6,29.77-7.18,37-9.06,5.13-1.32,15.92-3.56,26.43-5.07a7.35,7.35,0,0,0,1.34.39c1.16,1.33,9.46,5,14.32,9s11.34,25.78,6.88,28.58c-2.44,8.95-3,2.27-6.11,10a19.07,19.07,0,0,1-.87,2.12c-.16,0-.37.3-.58.7l16.55-4.26a.14.14,0,0,0,0-.09c1.1-.28,1.51-3.22,2.18-3.38a2.55,2.55,0,0,1,.32-1.5c3.3-5.57-3.49-32.62-6.71-33.32-.11-.41-4.58-5.64-7.46-9.75a16.14,16.14,0,0,1,4.69.82c6.1,2.34,39.46-3.21,41.69,5.34.31,1.2,15.35,15.89,20.81,27.59l9.65-2.49c-.16-.4-.29-.76-.41-1.07-1.6-4.35-9-13.89-11.62-21-2.22-6.13-6.48-5.79,5.28-6.92,8-.78,18.8,6.28,28.15,8.2a117.33,117.33,0,0,0,1.67-15,10.8,10.8,0,0,1-4.4-1.73C441.78,47.42,426.94,46.82,441.2,41.06Z"/><path class="cls-2" d="M258.73,57.78c-.9-.13-2.06.17-2.6,0-.85-.33-5.9,1.17-6.61,1.7-1.73,1.3-1.52,1.8-4.07,2.46-2.71.69-1.15.56-2,1.23-.29.22-.26-.2-.61.39-.83,1.42-3,2.45-4.57,3.29a13.75,13.75,0,0,1-5.89,1.76c-1.72,0-3.46,1.32-5.13,1.08a11.74,11.74,0,0,1-3.43.41c-.25,0-3.42.41-.55-.33-.13-.48,2.79-.78,1.48-1.56s-.54-.06-1.22-.15c-.24,0-2-.92-2.76-.7s-1.39-.57-2.88-.19A5.59,5.59,0,0,0,215.7,67l-1.65,0c-.22-.83-4.09.11.43-1,2.27-.6,0-.49,1.65-.9.69-.18-.19-.18.83-.45s-.05-.45,2.09-1c2.61-.68,3-.84,5.52-.48l2-.52c1.4.19-.55.61,1.89,0,1.64-.42,3.47-.19,5.68-.76,2.4-.63.12-1,2-1.45.23-1.08.88-.55,1.48-1.56.81-1.37,8.34-2.85,10.41-3.4,2.77-.7,2.43-.83,5.31-.42a3.71,3.71,0,0,1,1.87,0,17.3,17.3,0,0,0,3.27-.13l9.26-2.38c.34,1.34-1,.25-1.31,2.22-.12.85-.79.59-.37,2.21a8.84,8.84,0,0,0,.23,1.82,2.34,2.34,0,0,0,.51,1l1.6.77c-1.83.47-12.83,3.43-13.73,3.3-1.05-.15-.89-.21-.71-.23s.12,0,0,0h-.28c-.61,0-4.05-.4-3.27-1.75.6-1,.83-.42,1.81-1.17s-.37-.37,1.65-.9c1.6-.42,3.08-.55,4.91-1C260.3,58.32,260.67,58.06,258.73,57.78Z"/><path class="cls-3" d="M347.47,60.69c.52.31.22.7,1.27,1.33.83.49,2.32,2.23,3.11,2,.14.53,2.58,1,3,.86a3.19,3.19,0,0,1,.52-.1l-2.46,13.27c-1.48-6-3.54-14-4.25-14.41a12.22,12.22,0,0,1-2.45-2.19c-.45.11-.37-1.32-1.22-1.09C344.48,58.3,347.14,60.5,347.47,60.69Z"/><path class="cls-4" d="M340.9,61.68c.35-.09,1.34,1.89-.06.72a16.3,16.3,0,0,1-2.16-2c-1.7.44.75-.9-.83-.49-.16-.6-1.34-.22-1.77-.48-.76-.45-1.34-.17-2.22.09l4.46-1.61a8,8,0,0,1,1.18,2.05C339.72,60.78,340.8,61.36,340.9,61.68Z"/><path class="cls-5" d="M317,45.72c1.67.23,5.54-1.31,8.28-.71a18.34,18.34,0,0,0,5.84-1c1.25-.66-.33-.38,2.1-1,.84-.22,3.53,0,3.71.7l-.88.23c-3.06.78-.93.94-2.48,1.36-.3,1.38-.59,1.07,1.44,1,.54,0,1.7-.7,1.82-.23,4.56.31,3.46,2.22,4.5,2.84s-.12,1,.66.78a5.6,5.6,0,0,1,.78,1.21c2.06.44,4.38,3.1,4.78,3,0,.13.11.35.2.6l-9.47,3.43c-.92-1.25-2.13-2.5-2.76-2.34-.25-.95-3-1.74-3.83-2.08a8.41,8.41,0,0,0-3.21-.58,5.49,5.49,0,0,1-2.1.06c-1.93.5-2.76,0-4.8.53-1.19.31-7.75.74-7.52-.88.06-.46,4.85-1.5,5.67-1.7,1-.27,1.86-.72,2.37-.85,2.66-.68,1.27-.4,3.59-1.62s-1.78-1.18-2-1.15-4.39-.89-4.92-.84a4,4,0,0,1-1.88,0c-1.33-.18-2.93.41-3.48.2-.29-.11-1-.29-1-.43C314.44,45.68,314.92,45.43,317,45.72Z"/><path class="cls-6" d="M391.47,56c.4-.11,2.63.14,2.71.48,1.69-.44,6.8-1.9,7.47.66.49-.13,1.2.63,1.55.54,2,2.31-4.74,1.66-5.06,3.19a13.54,13.54,0,0,0-3.25,1.48,9.09,9.09,0,0,1-1.4-1.8c-.56-2.13-3.05-3.39-6.59-4.12A11.74,11.74,0,0,1,391.47,56Z"/><path class="cls-7" d="M409.18,67.2c1.3,5.07,5.89,10.08,7.52,16.41.2.78.56,2.06,1,3.65l-3.42.88a67.73,67.73,0,0,0-7.58-11.86,5.67,5.67,0,0,1,2.59,1.46c3-.75-4.94-10.24-6.09-9.95-.21-.85-1.08-.57-1.34-1.55-.71.2-.55-1-1.16-.87-.26-1-1.07-.51-1.8-3.3,1.21-.3,4.5,2.6,5.77,2.28C405.16,66.23,408.71,65.42,409.18,67.2Z"/><path class="cls-8" d="M369.24,46.42c1.95-1.46,7.91-3,10.7-3.22,1.1-.1,1.29-.15,2.53-.19.12,0,1.59-.17,1.6-.18.14.53.45-.08.94,0a3.05,3.05,0,0,0,1.93.22c1.57-.41.25.24,1.95.21.79,0,.68.52,1.93.19a30.82,30.82,0,0,0,3.48-.17c1.19-.31,1.12.41,2.59,0a7.58,7.58,0,0,0-2.33-.81c-.12-.46-4.18-2-4.48-1.91a.36.36,0,0,0-.09-.17,3.17,3.17,0,0,0,1.42-.17s1.51-.19,1.6-.18c1.08.16-.15.51,1.88,0,.12.46,3.7-.34,3.92-.3,1.67.23,1.42,0,1.9,1.86.38,1.45.17,1.88,1.56,2.42a23.9,23.9,0,0,0,4.83,1.35c.15.63,2.21-.05,2.86.21s1.7-.34,2-.29l.56.32a11,11,0,0,1,2.09-.07c.11.38.26.17.94,0,.1.38.06.23.72.05.59.67.43.18,1.5.32.56.07,3.11,1.55,3.87,1.36.32.38,1.34,1,1.56,1.48.5.93,1.28,1.29,1.4,1.75.36,1.4.3-.65.67.77a15,15,0,0,0-2.54.18,3.25,3.25,0,0,0-2-.42c-.49.12-1.24-.35-1.72-.65,1.15.22,2.25.44,3.11.53l-3.21-.59.1.06c-2.14-.41-4.46-.82-5.84-.46-2.41.62-5.1,1.65-7.56,1.71l-1.55.39c-.8-.92-2.16.5-3.2.36-1.26-.18.42-.57-1.88,0a16.92,16.92,0,0,1-5.24.63c-.55,0-.13.3-1.16.07-1.22-.26-.78.21-1.39.12a2.11,2.11,0,0,0-1.49-.32c-.66.17-.79-.5-1.5-.32.86-.22,10.77-2.8,10.81-2.78,1.56.21,3.76-.73,5.36-1.16a32.43,32.43,0,0,0-6.2-.28c-1.07.28-1.64-.28-2.59,0a9,9,0,0,1-3,.08c-.77-.17-.8,0-1.6.18-.54-.63-.33-.39-1.45-.11-.12-.49-1.73-.48-2.27-.59-1.07-.23-.14-.67-1.93-.21a3.67,3.67,0,0,0-2.71-.48c-1-1.1-.55.56-2.43-.3a35.43,35.43,0,0,0-5.75.54,18.35,18.35,0,0,1-5.68.76c-.21,0-1.85.24-2,.29-.61-.7-.18-.13-1.5-.32-.76-.11-3.53.43-.56-.32C365.73,47.57,368.52,47,369.24,46.42Z"/><path class="cls-9" d="M354.67,80.49a4.69,4.69,0,0,0,0-1.88l.31-.56c.12-.78-.84-.72.67-1.11q1.28,5,2.56,9.92c.57,2.21-.26.84,0,1.67.51,2,0,6.53,0,6.57a8.61,8.61,0,0,1-.15,3.1c-.65,1.1-.2,1-.53,1.55.44-2.11.41-2-.15-4.2s-.25-3-2.28-2.47c.49,1.88,0,1.08.12,2.33s-.44,2-.36,2.2a13.57,13.57,0,0,0-.89,1.17c-.61,1-1.22.88-2,1.44-.57.43-1.77,1-1.92,1.68-.94.25-1.56,1.67-2,2.22l4.83-26c.73,2.95,1.32,5.41,1.53,6.23C354.82,82.72,354.3,81.83,354.67,80.49Z"/><path class="cls-10" d="M426.73,35.59c-3.14.81,0-.7-2.92,0-2.25.58-.2-.66-2.15-.15-1.26.32-.2-.42-1.44-.1-.1-.38-2,.09.81-1.39.18-.09,2.09-.5,2.2-.57.89-.54,0-.71,1.6-1.11.25-.08,3.44-2,3.47-2.08,1.41-2.39,3.84-2.05,4.45-2.79s5.08-1,2.69-1.4a38.8,38.8,0,0,0-8.77.61c-.83.21-.77-.33-1.5-.32-1.35,0-2.17.3-3.59-.25A3.91,3.91,0,0,0,419.2,26a5.3,5.3,0,0,0-3.48-.75c-.07-.28-1.41-.34-1.72-.27-.76-.86-2.79-.21.43-1a1.68,1.68,0,0,0,.29-.09,58.1,58.1,0,0,0-6.53.3,58.36,58.36,0,0,1-8.88.36,7.1,7.1,0,0,1-3.52,1.86c-4.83,1.24-9.65,2.21-14.58,1.51-1.42-.2-10.48.63-14.56.27-1-.08-3.67-.74-6.72-1.43-5,.19-10,.22-15,.25l-2.54,0c-1.12,1.17-3.2,3.49-3.95,4.05-1.18.88-2,2.4-3.3,2.73.08.31-1.78,1.64-2.15,1.74-1.71.43-4.87,1.13-6.05,2-.49.36-3.31.89-3,2.17.29,1.08,0,.63,1.39.82.45.07,1.64-.69,2.71-.45.16.57,2.55-.66,3.14-.58,1.12.16,1.11-.29,1.67,0s1.23-.19,1.93.21a1.69,1.69,0,0,0,1.44.1c.83,1,1.35.06,2.71.49a4.25,4.25,0,0,0,2.26-.36c-.4-1.55-.75-1.17-1.79-2.36-.64.16.2-1,1.1-1.22,1.29-.34-.58-.33,1.65-.9,2.69-.7,1.85-1,2.89,3,.38,1.47.8.36,1.07,1.38.89-.24,1,2,1.73,2.14.38,0,3.17,1.3,4,1.07.53-.13,2.24.61,3.38.31s1.3.37,2.37.1l2.64-.68c1.12.15-.21.53,1.88,0,.33-.09,2.85-.49,1.38-1.06,0,0-4.91,0-6.18-.29-1-.22-3.82-1.12-4-2-.64-2.44.54-2,3.28-2.73a22,22,0,0,1,5-.82c.16,0,3.59.82,4.2.8.9,0,1,.28,2,.43a4.66,4.66,0,0,0,2.75-.24c.1.37.07.22.72,0,.25.92,6,1.29,7.08,1,.66-.18,1.55.55,2.88.2.82-.21-.2.52,1.63.06a5.85,5.85,0,0,0-1.8-.71l-.44.11c-.6-.08-.61-.79-2-.43-.77-.89-.41.13-1.27-.38,0,0-4-1.08-4-1.07-.2-.75.1-.51,1.43-.84,1.93-.5,6.7-2.22,8.55-1.5,1.17.45-.13-.32,1.49.32.24.09,4.66.68,4.86.63.72-.18,1.8.71,3.81.19.13.48,1.92,0,2.39.09.72.11.15.2,1.15-.06,1.8,1,1.78-.31,3.76,0,.08,0,5-1.32,5.08-1.31,1.82.25,2.11-.78,3.92-1.24l1.09-.29c.29-1.37.19,0,1.16-1,.63-.65,6-2.29,6.35-1.87.6.81-3.24,3.66-4.18,3.9-1.91.49-2.37.34-3.86,1.46-.83.61-2,.93-3.08,1.74a12.89,12.89,0,0,1-1.48.61c-1,.75.6.31-1.65.9-1,.24-2.81.39-1,1.44a14.79,14.79,0,0,0,6.3.72c1-.25,1.93,0,3.64-.46,1.39-.35,4.52-.11,6.07-.14,2.59-.06,1.8.48,4.86-.32,1.5-.39,9.63-2.37,10-3,.75-1.27,2.21-.58,3.36-1.58C435.12,33.29,429.67,35.5,426.73,35.59Z"/><path class="cls-11" d="M445.31,59.6a4.6,4.6,0,0,1,.84-.12c.08-.58.16-1.17.22-1.75-.62-.51-3.35-1.58-3.46-2-.62.17-.73-1-.89-1.65,1.24-.33,3.7-1.24,4.74-.75h0q.14-1.76.22-3.52a10.8,10.8,0,0,1-4.4-1.73c-.84-.68-15.68-1.27-1.42-7,.54-.22,1.14-.49,1.76-.77a10.79,10.79,0,0,0-2.3.27c-1.64.42-1.91-.21-3.71.26a14.89,14.89,0,0,1-3.92.76c-1.32.34.2-.52-2.21.11-2,.52-1.23,1-3.13,1.51-.6.15-3.89,1.19-4.09,1.52-.37.63-.87.61.34,1.32.85.51,3.69,1.56,3.88,2.3.69-.19,2.79,1.16,3.77.91l.89.72c.55-.13,1.22,1.2,1.6,1.71.8,1.06.5,1.74,1,2.81.87,2,.45,2.32,2.29,3.41a18.1,18.1,0,0,0,6.47,1.4C445.05,59.24,443.51,60.06,445.31,59.6Z"/><path class="cls-12" d="M444.53,25.45a9.58,9.58,0,0,1,1.26-.22q-.41-2.83-.94-5.63l-1.34.35-.87.22c0,.76-.32,2.09-.79,2.2.13.46.14.43-.33.56.16.58-.64.45-.93.95-.41.7-1.31.5-.26,1.71C441,25.41,442.13,26.07,444.53,25.45Z"/><path class="cls-13" d="M446,31.18l.5-.14q-.19-1.92-.44-3.84a2.93,2.93,0,0,1-1.18.51c-1.44.38-3.62.56-4.53,1.65-.14.17-1.47.81.4,1.53A21.48,21.48,0,0,0,446,31.18Z"/><path class="cls-14" d="M318.82,28.69c-7.1,1.07-14.13,2.25-21.28,2.5-.32.1-.64.21-1,.3a6.17,6.17,0,0,1-2.37.17c-1.67.4-3.46.82-5.44,1.33-6.49,1.68-12.35.83-20.81,3a76.31,76.31,0,0,1-11.66,2.26l-9.92,1.64c-4.88,1.33-12.74,1.15-19.88,3-5.26,1.34-10.18,1-16.9,2.7a213.17,213.17,0,0,1-26.11,5.11,25.67,25.67,0,0,0-3.89.26c-4.84.6-17.58,3.56-21.41,3.59-5,0-23.12,7.42-35.32,7.44-2.76,0-20.69,4.42-25.8,5.26-2.35.39-8.65,1.21-10.39.4-.91-.44-5.5,2.07-5.51,2.08-5.51,1.42-6.91,4.13-14.71,6.13C55.62,78.67,57,80,44.14,80.23,39.85,80.3,32.35,82,29.29,85.1s-17.56,5-17.38,6.24C3.65,91,7,90.44,0,92.28Q3.61,99,6.94,105.79l1.21-.31a6.92,6.92,0,0,0,3.14-.1c6.59-1.7,23.65-5.25,28.57-7.83.1,0,5-1.29,5.74-1.48-.21-.79,1.42-.85,2.53-1.12-.21-.87,5-2.69,6.28-3,3.14-.81,4.36-1.59,7.83-2.49,7.54-1.94-4.18,4.06-4.51,4.46-1.16,1.39.28.87-2,1.45-.42,2-3.09,1.51-4.51,2.58-1.26.94,1.47.55-3.75,1.89-1.72.46-19.77,5.13-19.85,5.12-3.63-.51-6.66,2.19-3,1.23,1.75-.45-.4,1,2.88.2a20.35,20.35,0,0,0,6.52-.26c3.13-.81,6.48-1.95,9.5-1.51A46.39,46.39,0,0,0,52,102.88c2.16-1.13,1.67-1.83,3.2-2.23.06,0,4-2.32,4.51-2.57a30.71,30.71,0,0,0,3.75-1.91c-.31-1.19,2.93-1.4,2.51-3,2.53-.65-1.12-.17,2.11-1-.41-1.59.78-.53,2.29-2,.69-.65,20-6,21.07-5.89,6.35.89,13.09-4,19.43-3.12,3,.41.7.76,4.65-.25l3.09-.79c-.16-.63.93-2.12,1.75-2.33,3.92-1,8.29-1.67,11.81-3.51a44.81,44.81,0,0,1,5.62-1.92c2.24-.58,7.78-1.79,9.16-2.83,1.93-1.45,1.44-.39,3.46-2.07l.05,0c.86.58,2,1.05,2.72,1.68,2.57,2.13,5.4,1.91,8.3,1.15.13.53,3.59.46.68,2.65-.1.07-4.21,2.49-4.52,2.57l-4.85,1.26c-.37-1.49-5.89,2,5.4-.93,6.07-1.56,11.28-3.38,17.54-5,2.22-.57,12.32-3.34,11.78-5.38-.32-1.27-4.57-1.18-5.86-.85-.71.19-.4.28-.68-.76,3.82-1,6.27-3.49,10.15-4.49,1.61-.42,5.26-2.88,7.06-1.82,1.22.72,2.35,0,2.65,1.2.64-.16,2.62,1.68,5,1.07,1.3-.33-.22.52,2.31-.13a3.39,3.39,0,0,0,3.53,1c.26,1,2.45,1.26,3.55,1,2.79-.72,2.9.44,5.29-1.36.4-.3,8.94-3.24,9.93-3.5,2.94-.76,3.86-.76,6.5-2.14a24.31,24.31,0,0,1,10.14-2.62c2.15,0,9.55-2.45,10.7-2.28s-.39,1,2.88.2c.84-.21,1.37.59,3.32.08,1,1.1,1.94.36,4.31.32,4.78-.1,1.35,1.05,7-.39,1.36,1.57,3.69-.44,5.32.52,1.15.68,18.44-4.22,10.24-4-2.31,0-1.86,1.92-2.66-1.2.72-.19.76-2.54,3.4-3.23.4-1.78,3.58-2.33,5.4-2.8l9.7-2.5a5.63,5.63,0,0,1,2.85-3.55c2.41-.21,1.64-.66,2.81-1-.16-.59,2-1.45,2.64-1.62,1-.25,2-1,3.19-1.28l.88-.23c.11.42,1.26,0,2.27-.62C320.49,28.45,319.66,28.56,318.82,28.69Z"/><path class="cls-15" d="M327.27,27.7c-1.13.63-1.5,1.59-2.57,2.16-.2.1-1.87,1-1.88,1-.28,1.3-1.74,1-2.35,1.79a27.33,27.33,0,0,1-5.08,2.24,14.76,14.76,0,0,1-1.71.68,8,8,0,0,1-1.59,1.12c-.52.14-.69.07-.55.61-.75.19-.89.94,0,.71a20.7,20.7,0,0,0,2.27-.33l3.52-.91c-.13-.52,2.79-1.12,3-1.23,1.57-1-.48-.34,1.44-.84a22.24,22.24,0,0,0,3.18-2.24c-.11-.41.28-.31.61-.38-.11-.43,1.25-1.23,1.7-1.62-.07-.31,1.77-1,2.26-1.29s.53-.6,1.2-.78c.88-.23.56-.62,1.24-1C330.36,27.44,328.82,27.56,327.27,27.7Z"/><path class="cls-16" d="M12.95,118.57q-1.06-2.35-2.13-4.68l.29-.1c-.12-.47.79-.41-.34-.4a.82.82,0,0,1-.19,0c-.71-1.52-1.44-3-2.16-4.54a31.1,31.1,0,0,1,4-.78,8.6,8.6,0,0,0,3.53,0,22.21,22.21,0,0,0,3.75,0c-1.56,1.75-1.66.84-2.25,1.29,0,0-.66.87-1.15,1a3,3,0,0,0-1.48,2.49c.4,1.55.22,1.12,2.5.54s12.47-3.57,14-3.34l.49.09-.48.83c-.75.19-2.48,1.11-3.42,1.35-2.36.61-10.66,2.25-11.75,3.73A11.3,11.3,0,0,1,12.95,118.57Z"/><path class="cls-17" d="M178,78.57c.73-.18.66-.36,1.21-.77.37-.29,3.08-1.07,3.64-1.41l.54-.61,9.27-2.38a7,7,0,0,0,3.91-2.19c1.7-1.48,2.59-1.6,4.85-2.19.94-.25,2.82-1.21,3.42-.41.42.56-1.23,2-1.8,2.12-.87.22-1.55,2.22-1.48,2.5,1.44-.38.25.17,1.38-.13a18.59,18.59,0,0,1,3.81-.74c5.94-.54,3.63.42,3.93,1.57a7.17,7.17,0,0,1-2,1.24c-2,.52-.41.07-1.44.83l-2.64.68a17.08,17.08,0,0,0,4.76,1.13,32.31,32.31,0,0,1,4.53.25c2.93.19,17.51-4,22.17-5.25,2.54-.65,2.08.17,4.58-.48a34.34,34.34,0,0,1,6-.37c-13,3.34-28.76,8-36.88,8.07-1.95,0-4,.08-6.1.2l-.11-.22a12.15,12.15,0,0,0-1.9-2.81,25.65,25.65,0,0,0-4.15-1.52c-1.35-.19-3.48.66-4.91,1a10.1,10.1,0,0,0-1.7.66c-2.09.55-.35,0-1.43.85-.76.57-10.22,2.87-11.63,3.23-2.07.54-2.15.31-1.78-1.42C176.7,79.84,177.48,78.7,178,78.57Z"/><path class="cls-18" d="M350.36,58.73l-.29-.38a.86.86,0,0,0,.29.38Z"/><path class="cls-19" d="M400.56,61.86s-10.14,8.43-8.93,17.94S400,98.66,400,98.66,421.18,69.63,400.56,61.86Z"/><path class="cls-20" d="M400.37,59.18S390.34,57.85,383,64,370.44,80,370.44,80,400.64,76.19,400.37,59.18Z"/><path class="cls-19" d="M70.41,106.28s-10.14,8.43-8.93,17.94,8.35,18.86,8.35,18.86S91,114.05,70.41,106.28Z"/><path class="cls-20" d="M70.22,103.6s-10-1.33-17.34,4.87-12.6,15.92-12.6,15.92S70.49,120.61,70.22,103.6Z"/><path class="cls-21" d="M74.19,105.84s6.6,5.48,5.81,11.67-5.43,12.27-5.43,12.27S60.78,110.89,74.19,105.84Z"/><path class="cls-20" d="M72.9,105.71s10-1.33,17.34,4.87,12.6,15.92,12.6,15.92S72.63,122.73,72.9,105.71Z"/><path class="cls-22" d="M386.25,22.28c.17-.29.33-.59.52-.87a2.14,2.14,0,0,1,1.38-1.1.48.48,0,0,1,.33.05.4.4,0,0,1,.09.49,1,1,0,0,1-.39.37,4.52,4.52,0,0,0-1.36,1,1.93,1.93,0,0,0,.84-.12c-.09,0-.33.47-.44.56a2,2,0,0,1-.64.39c-.16.06-.54.21-.63,0S386.17,22.42,386.25,22.28Z"/><path class="cls-22" d="M383.9,12.63a16.13,16.13,0,0,1,.47,2.75,1.19,1.19,0,0,1,0,.51,1.24,1.24,0,0,1-.34.45c-.63.61-1.25,1.28-1.93,1.83.25-.84.67-1.65,1-2.48S384,13.46,383.9,12.63Z"/><path class="cls-22" d="M372.52,10a5.35,5.35,0,0,1,1.94-.55.86.86,0,0,1-.1,1c-.07.07-.16.14-.17.24s.29.27.49.2a1.42,1.42,0,0,0,.56-.37.36.36,0,0,1,0,.56c-.09.06-.21.08-.29.16s0,.44.18.5a.69.69,0,0,0,.6-.15.75.75,0,0,1,.32-.18.4.4,0,0,1,.4.28,1,1,0,0,1,0,.52,3.26,3.26,0,0,1-1.13,1.9,1.2,1.2,0,0,1-.77.33c-.71,0-.93-.82-1.32-1.27s-.8-.45-1.19-.77C371.12,11.75,371.64,10.54,372.52,10Z"/><path class="cls-22" d="M358.9,9.58A3.86,3.86,0,0,1,358.77,7a.18.18,0,0,1,0-.07c.07-.06.17,0,.23.07a2.48,2.48,0,0,1,.42,1,14.59,14.59,0,0,0,.44,1.4c.06.16.2.36.36.28s.12-.17.13-.27l.31-2.83c0-.2.1-.44.29-.45s.24.13.31.26a3.6,3.6,0,0,1,.27,2.74c-.12.4-.32.78-.44,1.18a5.14,5.14,0,0,1-.38,1.18,1,1,0,0,1-.63.49c-.34.07-.36-.11-.45-.39C359.45,10.94,359.13,10.28,358.9,9.58Z"/><path class="cls-22" d="M296.51.27a1.89,1.89,0,0,1,.23.36l1.51,2.8a.4.4,0,0,0,.18.21c.23.09.38-.23.42-.47A10.25,10.25,0,0,1,299.6.62c.12-.26.38-.57.63-.43a.52.52,0,0,1,.2.3A12.31,12.31,0,0,1,301,3.36a8,8,0,0,1,0,2.18,2.21,2.21,0,0,1-3.32,1.59c-.57-.31-.79-1.18-1-1.76A22.1,22.1,0,0,1,295.23.08a1.43,1.43,0,0,1,1.18.1Z"/><path class="cls-22" d="M309.2,3.2a2.21,2.21,0,0,1,.19.37l1.24,2.84a.43.43,0,0,0,.15.21c.18.1.28-.22.3-.46a12.09,12.09,0,0,1,.49-2.52c.08-.26.27-.56.47-.41a.59.59,0,0,1,.16.3,16.19,16.19,0,0,1,.51,2.88,10.46,10.46,0,0,1,.1,2.17c-.15,1.52-1.33,2.3-2.48,1.47-.45-.32-.64-1.2-.84-1.79A28.78,28.78,0,0,1,308.21,3a.89.89,0,0,1,.9.14Z"/><path class="cls-22" d="M319.6,5.56a1.87,1.87,0,0,1,.13.28l.88,2.21a.35.35,0,0,0,.1.16c.12.08.19-.17.2-.35a10.23,10.23,0,0,1,.31-1.94c.05-.2.18-.43.32-.31a.5.5,0,0,1,.11.23A14.17,14.17,0,0,1,322,8.09a9.13,9.13,0,0,1,.09,1.67c-.08,1.17-.88,1.76-1.68,1.11a3.34,3.34,0,0,1-.6-1.39,25.12,25.12,0,0,1-.93-4.11.56.56,0,0,1,.62.12Z"/><path class="cls-22" d="M329,5.87a1.87,1.87,0,0,1,.13.28L330,8.36a.35.35,0,0,0,.1.16c.12.08.19-.17.2-.35a10.23,10.23,0,0,1,.31-1.94c.05-.2.18-.43.32-.31a.5.5,0,0,1,.11.23,14.17,14.17,0,0,1,.38,2.23,9.13,9.13,0,0,1,.09,1.67c-.08,1.17-.88,1.76-1.68,1.11a3.34,3.34,0,0,1-.6-1.39,25.12,25.12,0,0,1-.93-4.11.56.56,0,0,1,.62.12Z"/><path class="cls-22" d="M337.64,7.7c.29,0,.57.37.83.23a.48.48,0,0,0,.19-.32l.18-.67a.78.78,0,0,1,.33-.54.17.17,0,0,1,.2,0c.12.12.11.41.18.57a3.28,3.28,0,0,1,.18.4,9.91,9.91,0,0,1,.2,1.44,9.13,9.13,0,0,1,.09,1.67c-.08,1.17-.88,1.76-1.68,1.11a3.34,3.34,0,0,1-.6-1.39,6.6,6.6,0,0,1-.41-2c0-.22,0-.49.25-.55Z"/><path class="cls-22" d="M348.75,6.64l0,.25a1.22,1.22,0,0,0,0,.48.44.44,0,0,0,.33.32.52.52,0,0,0,.45-.22c.11-.13.19-.29.31-.42a1.69,1.69,0,0,1,1-.39,1,1,0,0,1,.41,0,.35.35,0,0,1,.28.27.44.44,0,0,1-.27.4,1.46,1.46,0,0,0-.43.26c-.32.37,0,1.33-.07,1.8-.08,1.17-.88,1.76-1.68,1.11a6.58,6.58,0,0,1-1.24-2.77,3.36,3.36,0,0,1-.16-1.58,1.42,1.42,0,0,1,1-1.14A3.13,3.13,0,0,1,348.75,6.64Z"/><path class="cls-23" d="M274.32,35.43c.58,2.06,16.91,7,16.27,2.9C289.25,29.73,272.16,27.73,274.32,35.43Z"/><path class="cls-24" d="M276.23,36.88A35.28,35.28,0,0,0,284,39.43a13.52,13.52,0,0,0-2.64-2.6c-2.45-1.87-4.94-2.72-5.56-1.91C275.48,35.32,275.67,36,276.23,36.88Z"/><path class="cls-25" d="M362.53,34.09s-5-.4-5,.83C357.76,39.05,364.86,36.24,362.53,34.09Z"/><path class="cls-25" d="M299.22,38.2c-.07.6-2.22,1-2.62.89-1-.26-2.67.35-2.9-1.31C293.68,37.64,299.56,35.14,299.22,38.2Z"/><path class="cls-25" d="M301.93,38.6c1-.17,2.72.13,3.35-.75.27-.37.09-1.16-.26-1.86C300.47,35.06,298.56,39.19,301.93,38.6Z"/><path class="cls-25" d="M308,37.64a6.92,6.92,0,0,1,3,.56c2.58,1.52.3,4-1.67,2.8-.85-.53.07.67-1.34-.92-.23-.25-.53-.09-1.39-.78-.45-.37-.74-1.22-.38-1.65C306.25,37.6,306.38,36.52,308,37.64Z"/><path class="cls-25" d="M327.43,39.31c0-.07,7.49-3,8-1.31C337.34,43.72,325,43.37,327.43,39.31Z"/><path class="cls-25" d="M338.61,37.28c0-.07,6.48-2.88,7-1.17C347.34,41.87,336.58,41.3,338.61,37.28Z"/><path class="cls-25" d="M355,34.84c-.06,0-7.57-.41-7.51,1.22C347.73,41.55,358.47,37.65,355,34.84Z"/><path class="cls-23" d="M333.87,10.57c.54.11,1.2.83,1.53,2.5,1.12,5.66,3.72,21.22,2.86,23.46-.41,1.06-9.11,5.5-13.31,3-1.18-.69.26-23.91-.23-27.43-.12-.87.43-1.4,1.32-1.7s2.41.32,3.65.35C331.63,10.83,333.32,10.45,333.87,10.57Z"/><path class="cls-23" d="M315,11.82c2.74-1.95,6.13-2.47,10.1-.86.55.23-.39,1.13,0,2.86,1.18,5.87.86,23.41-.1,25.74-.46,1.1-5.88,2.65-11.05.94-3.29-1.09,1.51-21.43.67-27.36A1.31,1.31,0,0,1,315,11.82Z"/><path class="cls-26" d="M320.44,10c-2.06.5-3.91-.14-4,15.43-.07,12.15-4.69,14.61,1.21,15.79a15.29,15.29,0,0,1-3.77-.73c-3.29-1.09,1.51-21.43.67-27.36a1.31,1.31,0,0,1,.42-1.32A9.44,9.44,0,0,1,320.44,10Z"/><path class="cls-23" d="M342.42,10c.47.12,1,.82,1.33,2.42,1,5.44,3.47,20.39,2.78,22.52-.33,1-5.67,4.88-9.24,2.45-.57-.39-.76-.88-.92-2.17-.69-5.38-1.56-18.63-2.21-23.3C333.78,9.24,341.33,9.72,342.42,10Z"/><path class="cls-26" d="M345.63,23.86a4.09,4.09,0,0,1-.63.1c-.68-2.34-.74-12.06-2.72-13.35s-6-.27-6.51.88c-.74,1.69.15,20.44,2.64,23.47.29.35,1.73,2.6,3.12,2.44a11.36,11.36,0,0,0,4.65-2c-1.28,1.38-5.77,4.09-8.91,2-.57-.39-.76-.88-.92-2.17-.69-5.38-1.56-18.63-2.21-23.3-.37-2.69,7.19-2.2,8.28-1.92.47.12,1,.82,1.33,2.42C344.23,14.94,345,19.48,345.63,23.86Z"/><path class="cls-23" d="M343.77,10.88A9.62,9.62,0,0,1,353,10c.49.19,1.16.74,1.46,2.23,1,5.09,4.16,22.32,2,22.89a28.36,28.36,0,0,1-10.26.77c-.74-.05-.85-.8-1-2-.63-5-1.25-17.47-1.87-21.83A1.13,1.13,0,0,1,343.77,10.88Z"/><path class="cls-27" d="M346.75,9.5a9.78,9.78,0,0,1,5.15.09c.21.89,1.1,1.34.09,3.36s-2.58-2.3-4.85-1.28C346.89,11.79,346.72,10.7,346.75,9.5Z"/><path class="cls-26" d="M343.77,10.88a9.25,9.25,0,0,1,2.35-1.19c-.79.73-1.53,2-1.34,4.34.9,11.28-1.11,17.36,3.68,20.6,1.37.93,3.17.47,6,.95a31.19,31.19,0,0,1-8.19.29c-.74-.05-.85-.8-1-2-.63-5-1.25-17.47-1.87-21.83A1.13,1.13,0,0,1,343.77,10.88Z"/><path class="cls-23" d="M367.4,13.5c1.3,4.71-1.62,18.32-2.62,20.24-.48.91-3.1,1.61-7.37,1.24-2.46-.21-1.81-20-3.7-24-.18-.37.24-.87.73-1,1.06-.22,3.17.34,5.38.55,1.52.15,2.93-.32,4.27.18C365.76,11.34,367.05,12.26,367.4,13.5Z"/><path class="cls-26" d="M365.34,32.12a10.31,10.31,0,0,1-.57,1.63c-.48.91-3.1,1.61-7.37,1.24-2.46-.21-1.81-20-3.7-24-.18-.37.24-.87.73-1,1.06-.22,3.17.34,5.38.55H360c-2.22.14-4-.72-4.33,2.52-.54,5.81.42,10.6.65,15.56.14,3-.2,5.21,4.08,5.62a11.39,11.39,0,0,0,3.39-.19c.95-.23.5-2.56,1-3.57A14.36,14.36,0,0,1,365.34,32.12Z"/><path class="cls-23" d="M365.76,11.36c2.52-1.68,13.44,2.55,14.24,6.43.91,4.39-4,11.87-4.79,13.62-.38.83-5.31,2.5-10.44,2.34-.66,0,1.23-17.18.63-21.4A1,1,0,0,1,365.76,11.36Z"/><path class="cls-27" d="M370.37,11.41a22.77,22.77,0,0,1,6.57,2.88,7.59,7.59,0,0,0-.87,1.41c-1.35,2.73-.35-2.21-6.18-2C368.64,13.77,368.89,12.46,370.37,11.41Z"/><path class="cls-26" d="M377,14.33c1.6,1.07,2.78,2.28,3,3.46.91,4.39-4,11.87-4.79,13.62-.21.45-1.75,1.15-3.94,1.67a2.76,2.76,0,0,1,2.11-1.22c1.88-.46,2.65-4.26,3.71-7.59.78-2.45,1.91-4.51,1.86-5.33C378.78,15.81,377.91,15.52,377,14.33Z"/><path class="cls-23" d="M315.84,11.26c2.11,2.38-1.59,25-2.82,28-.15.35-.74,1.21-1.27.75-1.7-1.47-1.56-2.23-4.43-1.85a2.27,2.27,0,0,1-2.24-2.07c-.43-3.37-4.92-11.44-4.58-17.5.25-4.38,3.73-7.3,3.44-9.41C303.5,6.15,314.9,10.21,315.84,11.26Z"/><path class="cls-26" d="M313.22,38.67c-.08.25-.15.46-.21.62-.15.35-.74,1.21-1.27.75-1.25-1.08-1.51-1.78-2.71-1.92h0c.62,0,.48-.24,2.19.81.48.3,1.22,1.05,1.61.36Z"/><path class="cls-26" d="M310.9,9.14c-3-.1-6.22-.64-5.62,3s.1,20.17,1.14,25.09c.19.9.9.91,1.32.94h0l-.42.05a2.27,2.27,0,0,1-2.24-2.07c-.43-3.37-4.92-11.44-4.58-17.5.25-4.38,3.73-7.3,3.44-9.41C303.69,7.46,307.3,8,310.62,9l.27.08Z"/><path class="cls-23" d="M293.31,7.17a9.07,9.07,0,0,1,5.33-1.1c4.16.47,7.67.94,6.11,3.34-2,3.07,2.24,27.25.32,27.69-.88.21-1.81.06-2.42.23-1.09.3-1.6.87-2.06.93-.77.09-1.53-.45-1.76-1.71C298,31.8,291.21,14.7,290.5,9.66,290.42,9.06,293,7.4,293.31,7.17Z"/><path class="cls-27" d="M295.68,6.26a9.37,9.37,0,0,1,3-.19,31,31,0,0,1,4.54.73c-3.19,5.82-7.42.07-7.44-.06S295.69,6.41,295.68,6.26Z"/><path class="cls-26" d="M293.31,7.17a4.89,4.89,0,0,1,1.11-.55c-2.43,2.78-1.62,6.3-.28,9.84s5.33,19.88,6.58,20.68c.59.38,1.19.12,2.07-.1s1.33.23,2.62-.9l0,.24c-.08.43-.21.68-.39.73-.88.21-1.81.06-2.42.23-1.09.3-1.6.87-2.06.93-.77.09-1.53-.45-1.76-1.71C298,31.8,291.21,14.7,290.5,9.66,290.42,9.06,293,7.4,293.31,7.17Z"/><path class="cls-23" d="M279,22.89c2.74-1.95,6.8-15.71,10.78-14.09a3,3,0,0,1,2.08,2.4c1.18,5.86,8.47,24.16,7.5,26.49,0,.1-1.49-.23-3.35-.15-.85,0-1.69.85-2.7.62s-1.32-1.42-2.71-2.55C285.55,31.46,278.3,23.39,279,22.89Z"/><path class="cls-26" d="M285.06,12.56c-.73,1.56-2.28,5.12-2.61,5.86-.57,1.26.14,4.86,2.1,7.72,2.15,3.15,5.34,6.24,5.89,8.23.27,1,1,1.36,1.72,2.89a9.55,9.55,0,0,0-1.51-1.65c-5.09-4.15-12.34-12.22-11.6-12.72C280.67,21.73,282.78,16.36,285.06,12.56Z"/><path class="cls-23" d="M281.69,21.26c1.93,5.66,8.7,11.28,8,13.72-.31,1.15-6.09,1.35-9.67-1.28-.68-.5-5.21-2.86-4.73-4.18C278.65,20.52,281.67,21.21,281.69,21.26Z"/><path class="cls-26" d="M289.43,33.37a2.45,2.45,0,0,1,.3,1.61c-.31,1.15-6.09,1.35-9.67-1.28-.68-.5-5.21-2.86-4.73-4.18q.22-.61.45-1.16c.73,4.95,11.64,8.86,13.31,6.67A2.69,2.69,0,0,0,289.43,33.37Z"/><path class="cls-28" d="M275.94,27.95a19.56,19.56,0,0,1,2.75-4.89c1.92,2.88,4.84,6.93,2.49,7.47-.53.12-1.36-1.67-4.07-1.94A2,2,0,0,1,275.94,27.95Z"/><path class="cls-23" d="M380.92,17c1.88.41,5,1.23,4.87,3.78-.08,1.75-2.91,6.83-6.78,9.87-1.68,1.31-3.56,1.68-4,1-.54-.91,4.32-10.08,4.49-13.64C379.57,16.91,380,16.81,380.92,17Z"/><path class="cls-26" d="M382.84,17.53c1.54.54,3,1.48,2.95,3.25s-2.91,6.83-6.78,9.87c-1.68,1.31-3.56,1.68-4,1-.12-.2,0-.8.32-1.65.55,1.22,1.95,1.45,2.37.83.81-1.2,1.53-3.26,2.92-4.75a55,55,0,0,0,3.82-5.94C385.12,18.71,384.49,18.45,382.84,17.53Z"/><path class="cls-23" d="M380.49,31.23c-.75,1.06-2.57.33-2-.78,1.37-2.69,5.08-7.56,6.36-9.65.75-1.23,1.22,0,1.68,1,.81,1.72,2.29,3.13.67,5C386.12,28.07,381.74,29.48,380.49,31.23Z"/><path class="cls-26" d="M380.49,31.23c-.75,1.06-2.57.33-2-.78l.3-.55c0,.11.16.41.17.45.29,1.11,1.09,1,1.51.28,2.66-4.45,8.88-3,6.3-8.41.82,1.52,1.92,2.85.44,4.58C386.12,28.07,381.74,29.48,380.49,31.23Z"/><path class="cls-26" d="M369.89,11.3c-.89.62-3.33-.46-3.39,1.13-.77,18.83-4.94,20.11,8,19.37a.39.39,0,0,1,.21.07c-1.45.87-5.61,2-9.92,1.88-.66,0,1.23-17.18.63-21.4a1,1,0,0,1,.35-1C366.53,10.85,368.08,10.89,369.89,11.3Z"/><path class="cls-26" d="M295.28,37.38c1.16-.44,3.11-.35,3.46-.76a2.76,2.76,0,0,0,.45-1.65,5.93,5.93,0,0,1,.21,2.71c0,.1-1.49-.23-3.35-.15-.85,0-1.69.85-2.7.62-.83-.19-1.17-1-1.95-1.82l0-.07C292.66,37,293,38.27,295.28,37.38Z"/><path class="cls-27" d="M361.86,18.63c-.12,2.11-.8.8-.76,4.26,0,.15-1.17,3.48-1.77-1-.3-2.26-.44-2.38,1.3-3.8C360.91,17.88,361.92,17.65,361.86,18.63Z"/><path class="cls-27" d="M350.57,19c-.39-.86-2.35-.27-2.19.88.41,3.07-.23,4.22,2.74,3.44C352.38,23,351,19.88,350.57,19Z"/><path class="cls-27" d="M340.52,19.38c1.44,2.12.15,2,.21,5.47,0,1.06-1.3.32-1.5-2,0-.53-2-3.41.9-3.64A.62.62,0,0,1,340.52,19.38Z"/><path class="cls-27" d="M331.44,20.27c0,1.63.36.47-.08,2.15,0,0,.29,3.43-.7,2.5-.53-.5-.17-2.31-.82-3.59C329,19.72,330.77,18.69,331.44,20.27Z"/><path class="cls-27" d="M322.3,22.21c0,.58-.83,3.72-.75,5.27.11,2.22-3.25.78-1.74-4.61.18-.65-.93-2.25,1.32-2.32C321.65,20.54,322.26,21.65,322.3,22.21Z"/><path class="cls-27" d="M310.71,26c-1.22.5-1-1.27-1.42-3.13-1.13-4.65,1.3-1.92,2.61-2.5C313.68,19.58,312.82,25.14,310.71,26Z"/><path class="cls-27" d="M299.38,15.67a4.67,4.67,0,0,0-1.41.46c-.39.14,1,2,1.26,4.2.15,1.11.75,6.72,2.1,3.79.38-.81-1.43-3.32-.5-6.05C301.35,16.57,300.43,15.61,299.38,15.67Z"/><path class="cls-27" d="M288.81,19.83c-1.44,2.12-.07,2.38,1.31,4.47.11.16,2.59,2,.67-1.6C289.37,20,290.68,18.84,288.81,19.83Z"/><path class="cls-27" d="M371.12,19.38c4.29-.52.38,5.41-.34,4.93-.11-.07-.62-2.22-1.12-3.11C368.75,19.61,370.12,19.41,371.12,19.38Z"/><path class="cls-27" d="M379.86,24.81c-.18.51-.84,2-1,.64-.11-.8.61-1.13.51-2.52,0-.17.46-1.55,1.27-.63C381.15,22.9,380.08,24.19,379.86,24.81Z"/><path class="cls-27" d="M382.77,26.19c.19-.8.72-1,1.1-1C385.13,25.3,382.38,27.81,382.77,26.19Z"/><path class="cls-25" d="M384.27,24.7c.14-.14.57-.65.57-.12,0,.27.48.73-.16.72C384.6,25.3,384,24.93,384.27,24.7Z"/><path class="cls-25" d="M379.94,20.86c.16-.32.88,0,1.12.18.88.64.06,1,0,.79-.25-.47-1-.41-1.09-.62A.73.73,0,0,1,379.94,20.86Z"/><path class="cls-25" d="M374.77,17.52c-.62.08-1.66-2-4.13-1-1.59.62-3.58-1.24-.28-1.59C372.21,14.72,374.5,15.48,374.77,17.52Z"/><path class="cls-25" d="M362.21,15.35c-1.38-.47-2.56.85-2.88,1.13-.51.45-1.67.1-1-.85.34-.49-1.3-1.71,1.49-1.71a3.55,3.55,0,0,0,1.81.31C362,14.21,362.85,15.57,362.21,15.35Z"/><path class="cls-25" d="M347.78,15.68c-.42.38-.74.25-.75-.76,0-.41.87-2.77,2.26-1.58C353.59,17,349.24,14.37,347.78,15.68Z"/><path class="cls-25" d="M340.47,15.57c-1.79-.12-3.5,1.54-2.93,0,.11-.29.73-.57,1.09-1.07C339.45,13.36,342.25,15.69,340.47,15.57Z"/><path class="cls-25" d="M331.6,14.74c.3.59,0,1.06-.74.73-1.45-.65-3,1.2-2.65,0S330.63,12.81,331.6,14.74Z"/><path class="cls-25" d="M322.58,15.74c.26.34,1.37-.76-.19-2-.15-.12-.82.41-2-.09s-1.59,1.08-1.75,1.82C318.34,17,321.22,13.95,322.58,15.74Z"/><path class="cls-25" d="M313.59,14.92c-.15.51.85,1.05-.06,1.67-.18.12-.8-.16-1.12,0-.61.32-2.61.22-4.38-.88-.36-.22-1-.52-.28-1.46s3.9,0,5.07-.06C313.19,14.17,313.76,14.37,313.59,14.92Z"/><path class="cls-25" d="M302.08,12.91c-.16.69-.81.43-1.6.16a6.39,6.39,0,0,0-3.28.15c-.87.25-1.23,1-1.48.2-1.15-3.81,1.54-3.52,5.5-2.47C301.64,11.06,302.18,12.51,302.08,12.91Z"/><path class="cls-25" d="M289.45,16.66c-.43.26-1,.41-1.47.67s-.89.69-1-.12a3.65,3.65,0,0,1,.23-2.09C288,13.78,290.3,16.14,289.45,16.66Z"/><path class="cls-25" d="M369.07,25.32a14.51,14.51,0,0,1,1,2.71c0,.11.82.71-.3.75-.62,0-.26-1.46-1.22-2.11-.25-.17-.86-1.85-.53-1.89C369.13,24.65,369.08,25.15,369.07,25.32Z"/><path class="cls-25" d="M359.39,27.44s-.72.8.68.68.65.64,1.73-.92c.07-.11.31-1.17,0-1.36C361.35,25.54,360.94,27.46,359.39,27.44Z"/><path class="cls-25" d="M378.49,25.93c.81,1.36-.15.22-.08,1.43,0,0-.64.4-.35-.21C378.11,27,378.28,25.58,378.49,25.93Z"/><path class="cls-25" d="M382.27,26.71c.69.74-.4,1.26-.43.94C381.79,27.12,382.15,26.58,382.27,26.71Z"/><path class="cls-25" d="M352.94,28.9c0,.34-.81,1.38-1.58.36-.4-.54-1.13,0-2.2-.36s-1.93-2.12.31-2C353.57,27.22,353.48,24.45,352.94,28.9Z"/><path class="cls-29" d="M340,28.78c-.32-.2-2.16-1-.16,1.19.38.41,1.2,2.34,1.32,2.1.47-1-.36-.95.56-2.07,0,0,.3-1.31-.13-1.25A1.26,1.26,0,0,1,340,28.78Z"/><path class="cls-25" d="M331.93,28.55c-.8,1.26-1.83.24-1.75,2.25,0,.1-.33,1.39,0,1.46.11.24,1.6-2,1.64-2.33S332.74,28.59,331.93,28.55Z"/><path class="cls-25" d="M318.85,32.24c.54,1.87,4-.17,1.89,3.19-.41.66-1.54-1.64-2.07-2.25C317.56,31.93,318.6,31.34,318.85,32.24Z"/><path class="cls-25" d="M311.34,29.75c1.2-.43-.73,4.05-3.32,1.4-.44-.45-.39-2.08.16-1.51S309.53,30.39,311.34,29.75Z"/><path class="cls-25" d="M299.59,26.84c1.91,2.53,2.91-1.1,2.69,1.24,0,.39-.94,1.1-.78,2.26s-.61-1.65-1.34-1.73C299.12,28.49,299,26,299.59,26.84Z"/><path class="cls-29" d="M290.55,27.26c1.11.56,2.06.3,2.52.76s1.15,2.64-.92,1.76c-.9-.38-2.44-2.25-2.34-2.71C289.87,26.78,290.13,27.05,290.55,27.26Z"/><path class="cls-30" d="M368.72,27.82a7.94,7.94,0,0,1,.29,1.56c-.76.1-.55-.81-.84-1.5-.17-.41.44-.37.48-.17Z"/><path class="cls-30" d="M359.72,28.62c.56.1,1.69-.26.87,1C360.32,30,358.67,28.43,359.72,28.62Z"/><path class="cls-30" d="M381.53,27.92c.06.43.06.14-.27.48-.14.15-.22-.29,0-.49C381.25,27.91,381.46,27.42,381.53,27.92Z"/><path class="cls-30" d="M350.63,29.67c.54.64,2,.78-.26,1.17C349.78,30.95,348.69,29.93,350.63,29.67Z"/><path class="cls-30" d="M339.64,31.29c.19.47,1.14,1.53.26,1.32,0,0-1.68-1.67-.31-1.47Z"/><path class="cls-30" d="M331.42,32.12c-.24.7-1.58,1-.62,1.9,0,0,.32.73.76,0,0,0,.38-2.06.15-2A.32.32,0,0,0,331.42,32.12Z"/><path class="cls-30" d="M318.71,34.87c.06,0,2.72,3.49-.24.8C318.14,35.38,317.64,34.14,318.71,34.87Z"/><path class="cls-30" d="M308.58,32.31c.31.78,1.76.2,1.31,1.06,0,0-1.38.81-1.47-.36,0,0-.67-1,.1-.85Z"/><path class="cls-30" d="M300.65,30.36c.19.3,1.55,1.52.49,1.61C300.64,32,300.16,29.6,300.65,30.36Z"/><path class="cls-30" d="M292.4,30.83c1.19.51.27.27.77.8.11.12.34.07.3.45-.17.06-.59-.32-1-.43C291.85,31.45,292.2,30.74,292.4,30.83Z"/><path class="cls-30" d="M377.77,27.67c.18.39,0,.39-.12.76-.12.58-.06-.12-.08-.16-.1-.21-.22-.42,0-.61A.11.11,0,0,1,377.77,27.67Z"/><path class="cls-27" d="M387.22,23c-1.09,1.54-2.69,2.81-2-.28a2.13,2.13,0,0,1,1.1-1.41l.2.43C386.74,22.2,387,22.62,387.22,23Z"/><path class="cls-27" d="M387.22,23l-.08.11a8.36,8.36,0,0,0-.38-.93l.08.14h0l.07.13h0l.19.34h0v0l.07.12v0Z"/><path class="cls-23" d="M385.32,27.28c-.85.34-7.23,4.39-2.8,3.64,1.63-.28,4.32,0,5-1.61C388.89,26.07,387.85,26.25,385.32,27.28Z"/><path class="cls-27" d="M337.07,9.93a19.51,19.51,0,0,1,3.48-.12,10.82,10.82,0,0,0,.12,1.71c.23,1.75.61,1.78-1.29,1.87-.47,0-.18-.64-1.23.15C337.92,13.69,337.35,11.67,337.07,9.93Z"/><path class="cls-27" d="M357.47,10.21c.74.12,1.53.24,2.34.32,1.17.11,2.27-.14,3.33,0a3.15,3.15,0,0,1-1.07,2.24c-2,1.75-.82-.08-3.9.47C357.57,13.32,357.62,11.63,357.47,10.21Z"/><path class="cls-27" d="M357.47,10.21H360c-.92.06-1.78-.06-2.48,0C357.5,10.45,357.49,10.33,357.47,10.21Z"/><path class="cls-26" d="M331.43,10.73c-3.1.71-4.68-1.1-5.18,3.1-.95,7.92-.06,21.39,2.87,24.77,1.39,1.61,7.27-.73,7.37-.75-2.85,1.57-8.44,3.54-11.56,1.71-1.18-.69.26-23.91-.23-27.43-.12-.87.43-1.4,1.32-1.7s2.41.32,3.65.35A17,17,0,0,0,331.43,10.73Z"/><path class="cls-27" d="M319.12,10.11a10.29,10.29,0,0,1,3.92.19c-.32,2-.56,3.82-3.12,2.21C319.34,12.14,319.17,11.14,319.12,10.11Z"/><path class="cls-27" d="M308.12,8.4A34.35,34.35,0,0,1,314,10.26a6.16,6.16,0,0,1-1.77,2.07c-.84.51-1.12,1.37-3.05.64C308,12.54,308.06,10,308.12,8.4Z"/><path class="cls-27" d="M308.12,8.4c.5.1,1,.23,1.54.37h0l.39.11.1,0,.08,0h0l.08,0,.1,0h0l.07,0h0l.06,0,.27.08h0c-1,0-1.94-.11-2.8-.08C308.1,8.82,308.11,8.6,308.12,8.4Z"/><path class="cls-27" d="M284.28,13.92a19.49,19.49,0,0,1,2.81-4.14c1.09,1.6,2.14,1.82-1.25,4.71C285.18,15,284.74,14.66,284.28,13.92Z"/><path class="cls-27" d="M328.84,10.69a6.2,6.2,0,0,0,.84.09,19.2,19.2,0,0,0,2.4-.11c0,1.2-.28,2.74-1.5,2.13-.9-.45-2.62,1.92-1.94-1.6A2.49,2.49,0,0,1,328.84,10.69Z"/><path class="cls-27" d="M320.44,10a7.65,7.65,0,0,0-1.31.35q0-.12,0-.24A9.47,9.47,0,0,1,320.44,10Z"/><path class="cls-31" d="M285.06,12.57c-.19.4-.43.92-.68,1.5l-.09-.14.34-.62h0l.09-.16,0,0,.08-.13,0-.06.07-.12,0,0,.07-.12Z"/><path class="cls-27" d="M340.54,10a7.64,7.64,0,0,0-3.38.45c0-.19-.07-.37-.1-.56h.23l.13,0h3.12C340.54,9.88,340.54,10,340.54,10Z"/><path class="cls-27" d="M381.82,17.22a10.74,10.74,0,0,1,1.79.62,16.11,16.11,0,0,0-1.55,2.4c-.59,1.43-3,.4-.29-3Z"/><path class="cls-27" d="M383.61,17.84l-.06.09-.72-.4C383.1,17.62,383.36,17.72,383.61,17.84Z"/><path class="cls-25" d="M305.38,43.73c.31-1.18.25-3.52,2.67-5,2.09-1.3,1.94.83.42,2.78a6.66,6.66,0,0,1-2.38,1.61C305.83,43.23,305.07,44.91,305.38,43.73Z"/><path class="cls-32" d="M305.38,43.73c0-.1.05-.21.07-.33h0a1,1,0,0,1,.27.1C305.47,44,305.16,44.56,305.38,43.73Z"/><path class="cls-25" d="M302.68,40.91s.21,3.94-.48,1.93c-.35-1-.12-1.23-.56-3.3C301.15,37.32,305.32,35.15,302.68,40.91Z"/><path class="cls-32" d="M302.71,42.43c0,.83-.13,1.5-.51.4,0-.1-.06-.2-.09-.28a.77.77,0,0,1,.6-.12Z"/><path class="cls-25" d="M298,39.65c.21.52-.07.89,0,1.36.17,1.14.57,2.11.23,1.64a10.34,10.34,0,0,1-2.13-4C297,37.89,296.84,36.7,298,39.65Z"/><path class="cls-32" d="M298.3,42.29c.11.44.16.64,0,.37l-.19-.26.13-.07Z"/><path class="cls-27" d="M331.43,10.73a10.67,10.67,0,0,1-2.69.19l.1-.23h2.59Z"/><path class="cls-30" d="M283.08,30.55c.48.32,1.78,1.09.49,1.54-1,.34-.6-.73-1.15-1.41-.31-.39.21-.72.57-.17Z"/><path class="cls-22" d="M108.05,106.29c-.14.31-.28.62-.43.92a2.14,2.14,0,0,1-1.27,1.23.48.48,0,0,1-.33,0,.4.4,0,0,1-.13-.48,1,1,0,0,1,.35-.41,4.52,4.52,0,0,0,1.27-1.1,1.93,1.93,0,0,0-.82.2c.09,0,.29-.5.38-.6a2,2,0,0,1,.6-.44c.15-.07.52-.26.63-.1S108.12,106.14,108.05,106.29Z"/><path class="cls-22" d="M111.29,115.68a16.13,16.13,0,0,1-.73-2.69,1.19,1.19,0,0,1,0-.51,1.24,1.24,0,0,1,.3-.48c.57-.66,1.12-1.39,1.75-2-.17.86-.52,1.7-.73,2.56S111.1,114.86,111.29,115.68Z"/><path class="cls-22" d="M122.86,117.22a5.35,5.35,0,0,1-1.88.73.86.86,0,0,1,0-1c.06-.08.14-.16.14-.26s-.31-.24-.5-.15a1.42,1.42,0,0,0-.53.42.36.36,0,0,1,0-.56c.09-.07.21-.1.28-.18s0-.44-.22-.49a.69.69,0,0,0-.58.21.75.75,0,0,1-.3.21.4.4,0,0,1-.42-.24,1,1,0,0,1-.06-.51,3.26,3.26,0,0,1,.95-2,1.2,1.2,0,0,1,.74-.4c.71,0,1,.73,1.43,1.14s.84.38,1.26.65C124.09,115.37,123.69,116.62,122.86,117.22Z"/><path class="cls-22" d="M136.46,116.39a3.86,3.86,0,0,1,.37,2.54.18.18,0,0,1,0,.08c-.06.07-.17,0-.24-.05a2.48,2.48,0,0,1-.51-1,14.59,14.59,0,0,0-.56-1.36c-.07-.16-.24-.34-.38-.25s-.1.18-.1.28l0,2.85c0,.2-.06.45-.25.47s-.25-.11-.33-.23a3.6,3.6,0,0,1-.52-2.7c.09-.41.24-.8.33-1.21a5.14,5.14,0,0,1,.27-1.21,1,1,0,0,1,.58-.54c.33-.1.37.08.48.35C135.79,115.1,136.16,115.73,136.46,116.39Z"/><path class="cls-22" d="M199.45,119.89a1.89,1.89,0,0,1-.26-.34l-1.76-2.65a.4.4,0,0,0-.2-.19c-.23-.07-.35.27-.37.51a10.25,10.25,0,0,1-.51,2.61c-.09.27-.33.61-.59.49a.52.52,0,0,1-.23-.28,12.31,12.31,0,0,1-.81-2.81,8,8,0,0,1-.24-2.16,2.21,2.21,0,0,1,3.16-1.89c.6.25.9,1.11,1.19,1.66a22.1,22.1,0,0,1,1.93,5.13,1.43,1.43,0,0,1-1.18,0Z"/><path class="cls-22" d="M186.54,118.15a2.21,2.21,0,0,1-.22-.35l-1.5-2.71a.43.43,0,0,0-.16-.2c-.18-.08-.26.24-.26.48a12.09,12.09,0,0,1-.26,2.55c-.06.27-.22.58-.43.45a.59.59,0,0,1-.19-.29,16.19,16.19,0,0,1-.77-2.82,10.46,10.46,0,0,1-.3-2.15c0-1.52,1.11-2.42,2.33-1.7.47.28.75,1.14,1,1.7a28.78,28.78,0,0,1,1.76,5.17.89.89,0,0,1-.91-.05Z"/><path class="cls-22" d="M176,116.76a1.87,1.87,0,0,1-.16-.27l-1.08-2.11a.35.35,0,0,0-.12-.15c-.13-.06-.17.18-.17.37a10.23,10.23,0,0,1-.12,2c0,.2-.14.44-.29.34a.5.5,0,0,1-.14-.22,14.17,14.17,0,0,1-.59-2.19,9.13,9.13,0,0,1-.25-1.66c0-1.17.72-1.84,1.57-1.26.33.22.54.89.72,1.33a25.12,25.12,0,0,1,1.31,4,.56.56,0,0,1-.63-.06Z"/><path class="cls-22" d="M166.61,117.32a1.87,1.87,0,0,1-.16-.27l-1.08-2.11a.35.35,0,0,0-.12-.15c-.13-.06-.17.18-.17.37a10.23,10.23,0,0,1-.12,2c0,.2-.14.44-.29.34a.5.5,0,0,1-.14-.22,14.17,14.17,0,0,1-.59-2.19,9.13,9.13,0,0,1-.25-1.66c0-1.17.72-1.84,1.57-1.26.33.22.54.89.72,1.33a25.12,25.12,0,0,1,1.31,4,.56.56,0,0,1-.63-.06Z"/><path class="cls-22" d="M157.8,116.3c-.28.06-.6-.32-.85-.15a.48.48,0,0,0-.16.34l-.11.68a.78.78,0,0,1-.28.57.17.17,0,0,1-.2,0c-.13-.11-.15-.4-.23-.55a3.28,3.28,0,0,1-.22-.38,9.91,9.91,0,0,1-.33-1.41,9.13,9.13,0,0,1-.25-1.66c0-1.17.72-1.84,1.57-1.26.33.22.54.89.72,1.33a6.6,6.6,0,0,1,.59,1.91c0,.22,0,.49-.2.57Z"/><path class="cls-22" d="M146.84,118.39c0-.09,0-.17,0-.26a1.22,1.22,0,0,0-.06-.48.44.44,0,0,0-.36-.29.52.52,0,0,0-.43.26c-.1.14-.16.31-.27.45a1.69,1.69,0,0,1-.92.47,1,1,0,0,1-.41.05.35.35,0,0,1-.31-.24.44.44,0,0,1,.23-.42,1.46,1.46,0,0,0,.41-.3c.28-.39-.08-1.33-.09-1.8,0-1.17.72-1.84,1.57-1.26a6.58,6.58,0,0,1,1.49,2.64,3.36,3.36,0,0,1,.3,1.56,1.42,1.42,0,0,1-.89,1.23A3.13,3.13,0,0,1,146.84,118.39Z"/><path class="cls-23" d="M218.28,82.83c-.77-2-17.49-5.41-16.47-1.38C203.94,89.89,221.14,90.29,218.28,82.83Z"/><path class="cls-24" d="M216.25,81.56a35.28,35.28,0,0,0-8-1.82,13.52,13.52,0,0,0,2.87,2.34c2.61,1.63,5.17,2.25,5.71,1.38C217.14,83,216.88,82.35,216.25,81.56Z"/><path class="cls-25" d="M130.57,92.33s5.06-.07,4.88-1.28C134.87,86.95,128.06,90.4,130.57,92.33Z"/><path class="cls-25" d="M193.23,82.38c0-.61,2.11-1.2,2.53-1.13,1,.17,2.63-.6,3,1C198.8,82.42,193.18,85.46,193.23,82.38Z"/><path class="cls-25" d="M190.49,82.23c-1,.27-2.72.13-3.27,1.06-.23.4,0,1.16.43,1.83C192.28,85.61,193.8,81.33,190.49,82.23Z"/><path class="cls-25" d="M184.54,83.75a6.92,6.92,0,0,1-3-.28c-2.71-1.28-.67-4,1.4-2.94.89.45-.14-.66,1.42.79.25.23.54,0,1.45.65.49.33.85,1.14.53,1.61C186.28,83.62,186.26,84.71,184.54,83.75Z"/><path class="cls-25" d="M165,83.89c0,.07-7.18,3.69-7.89,2.05C154.76,80.41,167.07,79.62,165,83.89Z"/><path class="cls-25" d="M154.1,86.94c0,.07-6.19,3.47-6.86,1.82C145,83.18,155.75,82.74,154.1,86.94Z"/><path class="cls-25" d="M138,90.89c.06,0,7.58-.29,7.37-1.91C144.63,83.53,134.29,88.41,138,90.89Z"/><path class="cls-23" d="M161.29,113.1c-.55-.06-1.27-.72-1.75-2.35-1.64-5.53-5.67-20.78-5-23.09.31-1.09,8.56-6.32,13-4.26,1.23.58,2,23.83,2.77,27.29.2.86-.3,1.43-1.16,1.82s-2.42-.1-3.67,0C163.49,112.63,161.85,113.16,161.29,113.1Z"/><path class="cls-23" d="M180,110.11c-2.55,2.19-5.87,3-10,1.79-.57-.17.28-1.16-.22-2.85-1.72-5.73-3-23.23-2.28-25.64.35-1.14,5.61-3.18,10.92-2,3.38.78.49,21.48,1.86,27.31A1.31,1.31,0,0,1,180,110.11Z"/><path class="cls-26" d="M174.72,112.42c2-.69,3.9-.22,2.55-15.73-1.05-12.11,3.32-15-2.67-15.61a15.29,15.29,0,0,1,3.82.37c3.38.78.49,21.48,1.86,27.31a1.31,1.31,0,0,1-.3,1.35A9.44,9.44,0,0,1,174.72,112.42Z"/><path class="cls-23" d="M152.83,114.45c-.47-.08-1.09-.72-1.54-2.29-1.53-5.33-5.34-20-4.85-22.17.23-1,5.19-5.38,9-3.29.61.33.84.8,1.12,2.07,1.18,5.29,3.28,18.41,4.36,23C161.51,114.41,153.94,114.63,152.83,114.45Z"/><path class="cls-26" d="M148.35,101a4.09,4.09,0,0,1,.61-.15c.89,2.27,1.85,11.94,3.94,13s6-.28,6.4-1.47c.58-1.75-2-20.34-4.81-23.12-.32-.32-2-2.42-3.34-2.14a11.36,11.36,0,0,0-4.44,2.38c1.15-1.49,5.37-4.61,8.69-2.78.61.33.84.8,1.12,2.07,1.18,5.29,3.28,18.41,4.36,23,.62,2.64-7,2.86-8.06,2.68-.47-.08-1.09-.72-1.54-2.29C150.57,109.71,149.38,105.25,148.35,101Z"/><path class="cls-23" d="M151.41,113.71a9.62,9.62,0,0,1-9.13,1.76c-.5-.15-1.22-.63-1.66-2.09-1.5-5-6.21-21.84-4.15-22.6a28.36,28.36,0,0,1,10.14-1.72c.74,0,.92.72,1.19,1.91,1.1,5,2.87,17.28,3.88,21.57A1.13,1.13,0,0,1,151.41,113.71Z"/><path class="cls-27" d="M148.57,115.36a9.78,9.78,0,0,1-5.14.39c-.29-.87-1.22-1.23-.4-3.33s2.78,2,4.95.83C148.22,113.09,148.48,114.15,148.57,115.36Z"/><path class="cls-26" d="M151.41,113.71a9.25,9.25,0,0,1-2.23,1.4c.72-.8,1.34-2.09.94-4.44-1.94-11.15-.5-17.39-5.57-20.17-1.45-.8-3.2-.17-6.06-.39a31.19,31.19,0,0,1,8.13-1c.74,0,.92.72,1.19,1.91,1.1,5,2.87,17.27,3.88,21.57A1.13,1.13,0,0,1,151.41,113.71Z"/><path class="cls-23" d="M127.64,113.28c-1.73-4.56-.08-18.39.74-20.4.39-1,2.94-1.89,7.22-1.92,2.47,0,3.66,19.77,5.91,23.59.21.36-.16.89-.64,1-1,.32-3.18,0-5.41,0-1.53,0-2.89.59-4.27.21C129.47,115.28,128.1,114.48,127.64,113.28Z"/><path class="cls-26" d="M128,94.55a10.31,10.31,0,0,1,.42-1.68c.39-1,2.94-1.89,7.22-1.92,2.47,0,3.66,19.77,5.91,23.59.21.36-.16.89-.64,1-1,.32-3.18,0-5.41,0h-.17c2.2-.35,4.08.35,4.08-2.91,0-5.83-1.4-10.51-2.09-15.43-.42-3-.28-5.21-4.58-5.22a11.39,11.39,0,0,0-3.36.51c-.92.32-.26,2.6-.63,3.64A14.36,14.36,0,0,1,128,94.55Z"/><path class="cls-23" d="M129.47,115.26c-2.36,1.9-13.62-1.29-14.78-5.08-1.31-4.28,2.87-12.18,3.51-14,.3-.86,5.05-3,10.18-3.3.66,0,.37,17.22,1.35,21.37A1,1,0,0,1,129.47,115.26Z"/><path class="cls-27" d="M124.87,115.64a22.77,22.77,0,0,1-6.8-2.26,7.59,7.59,0,0,0,.73-1.49c1.09-2.84.56,2.17,6.34,1.41C126.37,113.13,126.25,114.46,124.87,115.64Z"/><path class="cls-26" d="M118,113.35c-1.69-.92-3-2-3.33-3.17-1.31-4.28,2.87-12.18,3.51-14,.16-.47,1.64-1.31,3.77-2a2.76,2.76,0,0,1-2,1.41c-1.83.63-2.24,4.49-3,7.9-.55,2.51-1.48,4.66-1.36,5.48C116.09,112,117,112.24,118,113.35Z"/><path class="cls-23" d="M179.18,110.73c-2.33-2.18-.74-25.08.22-28.16.11-.36.63-1.27,1.19-.87,1.83,1.31,1.76,2.08,4.58,1.43A2.27,2.27,0,0,1,187.6,85c.74,3.31,6,10.94,6.18,17,.16,4.38-3,7.61-2.55,9.69C191.94,114.69,180.21,111.7,179.18,110.73Z"/><path class="cls-26" d="M179.25,83.21c.05-.26.1-.48.15-.64.11-.36.63-1.27,1.19-.87,1.35,1,1.67,1.64,2.87,1.66h0c-.61.08-.46.28-2.25-.6-.51-.25-1.32-.94-1.64-.21Z"/><path class="cls-26" d="M184.29,112.4c3-.19,6.25.06,5.32-3.48s-2-20.07-3.46-24.88c-.28-.88-1-.82-1.4-.82h0l.42-.09A2.27,2.27,0,0,1,187.6,85c.74,3.31,6,10.94,6.18,17,.16,4.38-3,7.61-2.55,9.69.41,1.72-3.25,1.48-6.65.78l-.28-.06Z"/><path class="cls-23" d="M202,112.73a9.07,9.07,0,0,1-5.2,1.59c-4.18-.08-7.72-.23-6.39-2.76,1.7-3.24-4.76-26.92-2.88-27.54.86-.29,1.8-.23,2.39-.45,1.06-.4,1.51-1,2-1.11.76-.17,1.57.31,1.91,1.54,1.29,4.65,9.61,21.06,10.78,26C204.7,110.57,202.31,112.46,202,112.73Z"/><path class="cls-27" d="M199.72,113.85a9.37,9.37,0,0,1-2.93.46,31,31,0,0,1-4.58-.3c2.63-6.09,7.38-.76,7.41-.63S199.69,113.7,199.72,113.85Z"/><path class="cls-26" d="M202,112.73a4.89,4.89,0,0,1-1.05.65c2.16-3,1-6.42-.63-9.82s-7.14-19.3-8.47-20c-.63-.32-1.19,0-2.05.29s-1.35-.11-2.52,1.14l-.07-.23c0-.43.15-.7.32-.76.86-.29,1.8-.23,2.39-.45,1.06-.4,1.51-1,2-1.11.76-.17,1.57.31,1.91,1.54,1.29,4.65,9.61,21.06,10.78,26C204.7,110.57,202.31,112.46,202,112.73Z"/><path class="cls-23" d="M214.74,95.75c-2.55,2.19-5.32,16.27-9.43,15a3,3,0,0,1-2.3-2.2c-1.72-5.73-10.67-23.27-9.92-25.68,0-.11,1.5.09,3.35-.16.84-.12,1.61-1,2.63-.87s1.44,1.29,2.94,2.29C207.47,87.82,215.43,95.19,214.74,95.75Z"/><path class="cls-26" d="M209.71,106.59c.59-1.62,1.8-5.31,2.06-6.07.45-1.3-.59-4.82-2.8-7.49-2.43-2.94-5.9-5.72-6.63-7.65-.36-1-1.12-1.26-2-2.72A9.55,9.55,0,0,0,202,84.16c5.45,3.66,13.41,11,12.73,11.59C213.23,97.06,211.63,102.6,209.71,106.59Z"/><path class="cls-23" d="M212.26,97.62c-2.45-5.46-9.71-10.43-9.28-12.92.2-1.18,5.93-1.91,9.75.38.72.43,5.45,2.37,5.09,3.73C215.35,98.07,212.28,97.67,212.26,97.62Z"/><path class="cls-26" d="M203.43,86.28A2.45,2.45,0,0,1,203,84.7c.2-1.18,5.93-1.91,9.75.38.72.43,5.45,2.37,5.09,3.73-.11.42-.22.81-.34,1.19-1.19-4.86-12.41-7.75-13.87-5.41A2.69,2.69,0,0,0,203.43,86.28Z"/><path class="cls-28" d="M217.36,90.43a19.56,19.56,0,0,1-2.28,5.12c-2.18-2.69-5.46-6.45-3.18-7.2.52-.17,1.51,1.54,4.23,1.55A2,2,0,0,1,217.36,90.43Z"/><path class="cls-23" d="M113.85,111c-1.91-.23-5.08-.76-5.2-3.31-.08-1.75,2.26-7.07,5.84-10.45,1.55-1.46,3.39-2,3.86-1.34.62.86-3.37,10.43-3.21,14C115.2,111,114.77,111.16,113.85,111Z"/><path class="cls-26" d="M111.89,110.7c-1.59-.4-3.15-1.19-3.24-3s2.26-7.07,5.84-10.45c1.55-1.46,3.39-2,3.86-1.34.14.19,0,.8-.17,1.67-.66-1.16-2.07-1.27-2.43-.61-.69,1.27-1.22,3.38-2.47,5a55,55,0,0,0-3.25,6.27C109.5,109.74,110.16,109.93,111.89,110.7Z"/><path class="cls-23" d="M113,96.84c.65-1.12,2.53-.56,2.07.59-1.11,2.81-4.36,8-5.44,10.2-.63,1.29-1.21.15-1.76-.8-1-1.64-2.57-2.91-1.14-4.95C107.65,100.51,111.88,98.7,113,96.84Z"/><path class="cls-26" d="M113,96.84c.65-1.12,2.53-.56,2.07.59-.07.18-.15.38-.24.58,0-.11-.2-.4-.21-.43-.39-1.08-1.17-.88-1.53-.14-2.24,4.68-8.57,3.76-5.5,9-1-1.44-2.17-2.66-.87-4.52C107.65,100.51,111.88,98.7,113,96.84Z"/><path class="cls-26" d="M125.36,115.71c.83-.7,3.36.15,3.27-1.44-1-18.82,3.06-20.48-9.74-18.54a.39.39,0,0,1-.22-.05c1.37-1,5.4-2.53,9.7-2.79.66,0,.37,17.22,1.35,21.37a1,1,0,0,1-.26,1C128.75,115.84,127.2,115.95,125.36,115.71Z"/><path class="cls-26" d="M197.23,82.82c-1.11.55-3.06.64-3.37,1.08a2.76,2.76,0,0,0-.29,1.69,5.93,5.93,0,0,1-.46-2.68c0-.11,1.5.09,3.35-.16.84-.12,1.61-1,2.63-.87.85.11,1.25.84,2.11,1.63l0,.07C199.88,83,199.45,81.73,197.23,82.82Z"/><path class="cls-27" d="M132.67,107.66c-.07-2.11.72-.87.36-4.31,0-.15.84-3.57,1.85.83.51,2.22.66,2.33-.94,3.9C133.69,108.32,132.7,108.64,132.67,107.66Z"/><path class="cls-27" d="M143.88,106.22c.47.82,2.36,0,2.1-1.08-.69-3-.16-4.23-3-3.18C141.7,102.41,143.41,105.41,143.88,106.22Z"/><path class="cls-27" d="M153.85,104.94c-1.63-2-.33-2-.72-5.43-.12-1.06,1.27-.44,1.69,1.88.1.52,2.35,3.2-.56,3.71A.62.62,0,0,1,153.85,104.94Z"/><path class="cls-27" d="M162.81,103.21c-.14-1.62-.4-.43-.12-2.14,0,0-.6-3.39.46-2.56.58.45.38,2.29,1.15,3.5C165.27,103.53,163.62,104.73,162.81,103.21Z"/><path class="cls-27" d="M171.73,100.44c-.09-.58.48-3.78.26-5.32-.32-2.2,3.16-1.08,2.16,4.43-.12.67,1.13,2.15-1.1,2.43C172.54,102,171.82,101,171.73,100.44Z"/><path class="cls-27" d="M182.92,95.59c1.17-.61,1.09,1.17,1.71,3,1.55,4.53-1.11,2-2.37,2.74C180.56,102.26,180.9,96.64,182.92,95.59Z"/><path class="cls-27" d="M195.16,104.83a4.67,4.67,0,0,0,1.36-.59c.38-.18-1.15-1.91-1.64-4.06-.25-1.09-1.37-6.62-2.45-3.58-.3.85,1.74,3.17,1.06,6C193.12,104.11,194.12,105,195.16,104.83Z"/><path class="cls-27" d="M205.3,99.7c1.24-2.24-.15-2.37-1.72-4.33-.12-.15-2.77-1.75-.52,1.66C204.72,99.54,203.53,100.87,205.3,99.7Z"/><path class="cls-27" d="M123.38,107.77c-4.22.91-.88-5.36-.11-4.94.11.06.82,2.15,1.41,3C125.72,107.32,124.38,107.65,123.38,107.77Z"/><path class="cls-27" d="M114.18,103.18c.13-.53.65-2.09,1-.73.18.78-.5,1.18-.27,2.55,0,.17-.31,1.58-1.21.75C113.07,105.2,114,103.81,114.18,103.18Z"/><path class="cls-27" d="M111.15,102.07c-.12.81-.62,1.1-1,1.11C108.89,103.18,111.39,100.42,111.15,102.07Z"/><path class="cls-25" d="M109.8,103.69c-.12.15-.51.7-.56.17,0-.27-.55-.68.09-.73C109.42,103.12,110,103.44,109.8,103.69Z"/><path class="cls-25" d="M114.47,107.12c-.13.34-.88.08-1.13-.07-.94-.56-.15-1,0-.79.29.45,1,.32,1.14.52A.73.73,0,0,1,114.47,107.12Z"/><path class="cls-25" d="M119.92,110c.61-.14,1.84,1.82,4.21.63,1.52-.76,3.68.9.42,1.56C122.74,112.51,120.38,112,119.92,110Z"/><path class="cls-25" d="M132.63,111c1.42.35,2.47-1.09,2.76-1.4.46-.5,1.65-.26,1.09.75-.29.52,1.45,1.58-1.33,1.85a3.55,3.55,0,0,0-1.83-.14C132.94,112.07,132,110.8,132.63,111Z"/><path class="cls-25" d="M147,109.29c.38-.41.72-.32.81.68,0,.41-.61,2.83-2.1,1.78C141.06,108.49,145.63,110.73,147,109.29Z"/><path class="cls-25" d="M154.26,108.72c1.79,0,3.34-1.86,2.92-.31-.08.3-.67.63-1,1.17C155.47,110.83,152.47,108.77,154.26,108.72Z"/><path class="cls-25" d="M163.17,108.73c-.35-.56-.11-1.06.67-.8,1.5.51,2.86-1.47,2.65-.21S164.31,110.57,163.17,108.73Z"/><path class="cls-25" d="M172.05,106.9c-.29-.31-1.3.88.37,1.93.17.1.78-.48,2-.1s1.48-1.22,1.57-2C176.16,105.25,173.58,108.56,172.05,106.9Z"/><path class="cls-25" d="M181.08,106.89c.1-.52-.94-1-.1-1.67.17-.14.82.09,1.11-.11.58-.38,2.58-.46,4.44.47.38.19,1,.42.41,1.43s-3.88.36-5,.53C181.55,107.6,181,107.45,181.08,106.89Z"/><path class="cls-25" d="M192.72,107.82c.1-.7.76-.5,1.58-.31a6.39,6.39,0,0,0,3.25-.45c.85-.33,1.13-1.13,1.45-.34,1.5,3.68-1.2,3.65-5.25,3C193.34,109.62,192.67,108.23,192.72,107.82Z"/><path class="cls-25" d="M205,102.91c.4-.3,1-.5,1.4-.8s.83-.77,1,0a3.65,3.65,0,0,1,0,2.1C206.7,105.65,204.16,103.52,205,102.91Z"/><path class="cls-25" d="M124.88,101.67a14.51,14.51,0,0,1-1.29-2.6c0-.11-.89-.63.23-.77.62-.08.4,1.43,1.41,2,.26.15,1,1.77.7,1.83C124.88,102.34,124.88,101.84,124.88,101.67Z"/><path class="cls-25" d="M134.32,98.66s.64-.86-.74-.61-.71-.58-1.63,1.07c-.06.11-.2,1.2.11,1.36C132.54,100.73,132.77,98.79,134.32,98.66Z"/><path class="cls-25" d="M115.44,101.93c-.93-1.28.13-.23-.05-1.43,0,0,.6-.46.37.17C115.72,100.78,115.69,102.26,115.44,101.93Z"/><path class="cls-25" d="M111.61,101.51c-.75-.67.28-1.29.34-1C112,101.05,111.74,101.62,111.61,101.51Z"/><path class="cls-25" d="M140.61,96.61c0-.34.68-1.45,1.54-.5.45.5,1.13-.09,2.22.15s2.12,1.93-.12,2C140.13,98.34,140.48,101.09,140.61,96.61Z"/><path class="cls-29" d="M153.49,95.53c.34.17,2.24.76,0-1.2-.42-.38-1.41-2.22-1.5-2-.37,1,.45.91-.37,2.12,0,0-.18,1.34.25,1.24A1.26,1.26,0,0,1,153.49,95.53Z"/><path class="cls-25" d="M161.56,95c.68-1.33,1.8-.41,1.53-2.4,0-.1.19-1.42-.14-1.45-.13-.23-1.4,2.16-1.42,2.47S160.75,95,161.56,95Z"/><path class="cls-25" d="M174.24,90.13c-.71-1.81-4,.54-2.18-3,.35-.69,1.69,1.49,2.27,2C175.55,90.32,174.58,91,174.24,90.13Z"/><path class="cls-25" d="M182,91.91c-1.16.54.35-4.11,3.18-1.7.48.41.58,2,0,1.52S183.69,91.11,182,91.91Z"/><path class="cls-25" d="M193.92,93.72c-2.14-2.34-2.79,1.36-2.79-1,0-.39.83-1.18.57-2.32s.76,1.59,1.5,1.6C194.23,92,194.63,94.5,193.92,93.72Z"/><path class="cls-29" d="M202.88,92.46c-1.16-.45-2.07-.11-2.58-.53s-1.39-2.52.76-1.84c.93.3,2.64,2,2.58,2.48C203.6,92.88,203.32,92.63,202.88,92.46Z"/><path class="cls-30" d="M125,99.14a7.94,7.94,0,0,1-.44-1.53c.74-.17.63.75,1,1.41.21.39-.41.41-.46.22Z"/><path class="cls-30" d="M133.88,97.51c-.57-.05-1.66.42-1-.87C133.16,96.22,134.94,97.61,133.88,97.51Z"/><path class="cls-30" d="M112.23,100.24c-.1-.43-.07-.13.23-.5.13-.16.24.27.06.48C112.51,100.22,112.34,100.72,112.23,100.24Z"/><path class="cls-30" d="M142.84,95.63c-.59-.59-2.06-.6.15-1.19C143.56,94.28,144.75,95.19,142.84,95.63Z"/><path class="cls-30" d="M153.63,93c-.23-.46-1.28-1.41-.38-1.29,0,0,1.83,1.5.45,1.44Z"/><path class="cls-30" d="M161.73,91.41c.18-.72,1.48-1.13.44-2,0,0-.39-.7-.75.09,0,0-.19,2.09,0,2.06A.32.32,0,0,0,161.73,91.41Z"/><path class="cls-30" d="M174.13,87.5c-.06,0-3-3.22.17-.82C174.66,86.94,175.27,88.12,174.13,87.5Z"/><path class="cls-30" d="M184.46,89.11c-.38-.75-1.77,0-1.4-.93,0,0,1.3-.94,1.5.22,0,0,.76.94,0,.86Z"/><path class="cls-30" d="M192.53,90.32c-.22-.28-1.68-1.37-.64-1.56C192.39,88.67,193.1,91,192.53,90.32Z"/><path class="cls-30" d="M200.71,89.09c-1.23-.4-.29-.25-.84-.73-.13-.11-.34,0-.34-.42.16-.08.61.27,1,.34C201.2,88.42,200.92,89.15,200.71,89.09Z"/><path class="cls-30" d="M116,100.13c-.21-.37,0-.39.05-.77.07-.59.07.12.1.15.12.2.25.4,0,.61A.11.11,0,0,1,116,100.13Z"/><path class="cls-27" d="M107,105.63c.94-1.64,2.42-3,2,.1a2.13,2.13,0,0,1-1,1.51l-.24-.41C107.57,106.41,107.29,106,107,105.63Z"/><path class="cls-27" d="M107,105.63l.07-.12a8.36,8.36,0,0,0,.46.89l-.09-.13h0l-.08-.12h0l-.22-.32h0v0l-.08-.11v0Z"/><path class="cls-23" d="M108.52,101.23c.81-.42,6.79-5,2.45-3.88-1.6.43-4.3.42-4.82,2.07C105.07,102.76,106.09,102.49,108.52,101.23Z"/><path class="cls-27" d="M158.17,114a19.51,19.51,0,0,1-3.45.45,10.82,10.82,0,0,0-.28-1.69c-.4-1.72-.77-1.71,1.11-2,.47-.07.24.62,1.21-.26C157,110.36,157.72,112.32,158.17,114Z"/><path class="cls-27" d="M137.82,115.64c-.74,0-1.55-.1-2.36-.1-1.18,0-2.25.35-3.31.34a3.15,3.15,0,0,1,.85-2.33c1.82-1.92.82,0,3.84-.83C137.44,112.56,137.55,114.23,137.82,115.64Z"/><path class="cls-27" d="M137.82,115.64h-2.53c.91-.14,1.77-.11,2.46-.25Z"/><path class="cls-26" d="M163.7,112.71c3-1,4.76.66,4.87-3.57.21-8-1.92-21.3-5.15-24.39-1.53-1.47-7.17,1.4-7.27,1.43,2.69-1.83,8.07-4.31,11.35-2.78,1.23.58,2,23.83,2.77,27.29.2.85-.3,1.43-1.16,1.82s-2.42-.1-3.67,0A17,17,0,0,0,163.7,112.71Z"/><path class="cls-27" d="M176,112.19a10.29,10.29,0,0,1-3.92.17c.13-2,.2-3.85,2.9-2.49C175.61,110.18,175.88,111.17,176,112.19Z"/><path class="cls-27" d="M187.13,112.87a34.35,34.35,0,0,1-6-1.31,6.16,6.16,0,0,1,1.57-2.23c.79-.59,1-1.47,3-.92C186.86,108.74,187,111.29,187.13,112.87Z"/><path class="cls-27" d="M187.13,112.87c-.51-.06-1-.14-1.56-.23h0l-.4-.07-.1,0-.08,0h0l-.08,0-.1,0h-.19l-.28-.06h0c1-.06,1.94-.07,2.8-.18C187.11,112.45,187.12,112.67,187.13,112.87Z"/><path class="cls-27" d="M210.36,105.17a19.49,19.49,0,0,1-2.41,4.38c-1.24-1.49-2.3-1.62.81-4.8C209.35,104.13,209.83,104.47,210.36,105.17Z"/><path class="cls-27" d="M166.29,112.51a6.2,6.2,0,0,0-.85,0,19.2,19.2,0,0,0-2.38.33c-.13-1.19,0-2.75,1.3-2.26.93.36,2.43-2.15,2.08,1.41A2.49,2.49,0,0,1,166.29,112.51Z"/><path class="cls-27" d="M174.72,112.42A7.65,7.65,0,0,0,176,112l0,.24A9.47,9.47,0,0,1,174.72,112.42Z"/><path class="cls-31" d="M209.71,106.59c.15-.41.34-1,.54-1.55l.1.13-.28.64h0L210,106l0,0-.06.14,0,.07-.06.13,0,.05-.06.13Z"/><path class="cls-27" d="M154.7,114.24a7.64,7.64,0,0,0,3.32-.76l.15.55h-.06l-.1,0h-.07l-.13,0h-.07l-.1,0h-.07l-.1,0h-.07l-.15,0h-.06l-.11,0H157l-.11,0h-.06l-.14,0h-.25l-.27,0h-1.47C154.71,114.4,154.7,114.32,154.7,114.24Z"/><path class="cls-27" d="M112.93,110.91a10.74,10.74,0,0,1-1.84-.45,16.11,16.11,0,0,0,1.32-2.53c.45-1.48,3-.68.56,2.92Z"/><path class="cls-27" d="M111.09,110.46l0-.1.75.33C111.62,110.63,111.35,110.55,111.09,110.46Z"/><path class="cls-25" d="M186.59,77.44c-.2,1.2.08,3.53-2.19,5.25-2,1.49-2-.65-.68-2.73a6.66,6.66,0,0,1,2.22-1.82C186.19,78,186.79,76.23,186.59,77.44Z"/><path class="cls-32" d="M186.59,77.44c0,.1,0,.22,0,.34h0a1,1,0,0,1-.28-.08C186.47,77.2,186.73,76.59,186.59,77.44Z"/><path class="cls-25" d="M189.53,80s-.58-3.9.3-2c.44,1,.23,1.21.87,3.23C191.39,83.43,187.44,86,189.53,80Z"/><path class="cls-32" d="M189.37,78.48c-.06-.83,0-1.5.47-.45l.12.27a.77.77,0,0,1-.58.17Z"/><path class="cls-25" d="M194.28,80.82c-.25-.49,0-.89-.12-1.35-.28-1.12-.76-2.05-.38-1.62a10.34,10.34,0,0,1,2.49,3.8C195.46,82.48,195.74,83.65,194.28,80.82Z"/><path class="cls-32" d="M193.77,78.22c-.15-.43-.22-.63,0-.38l.22.24-.13.08Z"/><path class="cls-27" d="M163.7,112.71a10.67,10.67,0,0,1,2.66-.43l-.08.23H163.7Z"/><path class="cls-30" d="M210,88.5c-.51-.28-1.88-.92-.63-1.49.93-.42.67.67,1.28,1.29.35.35-.14.74-.55.23Z"/></svg>