<svg id="Layer_1" data-name="Layer 1" xmlns="http://www.w3.org/2000/svg" xmlns:xlink="http://www.w3.org/1999/xlink" viewBox="0 0 435.8 162.55"><defs><style>.cls-1{fill:url(#linear-gradient);}.cls-2{fill:url(#linear-gradient-2);}.cls-3{fill:url(#linear-gradient-3);}.cls-4{fill:url(#linear-gradient-4);}.cls-5{fill:url(#linear-gradient-5);}.cls-14,.cls-6{fill:orange;}.cls-7{fill:#39f;}.cls-10,.cls-11,.cls-12,.cls-13,.cls-14,.cls-15,.cls-16,.cls-7,.cls-8,.cls-9{fill-rule:evenodd;}.cls-8{fill:#090052;}.cls-12,.cls-13,.cls-9{fill:#0d0072;}.cls-10{fill:#4026d3;}.cls-11{fill:#ffed17;}.cls-12,.cls-13{stroke:#0d0072;stroke-miterlimit:22.93;}.cls-12{stroke-width:1.42px;}.cls-13{stroke-width:0.57px;}.cls-15{fill:#d10072;}.cls-16{fill:#5a00bf;}.cls-17{fill:url(#linear-gradient-6);}.cls-18{fill:url(#linear-gradient-7);}.cls-19{fill:url(#linear-gradient-8);}.cls-20{fill:url(#linear-gradient-9);}.cls-21{fill:url(#linear-gradient-10);}</style><linearGradient id="linear-gradient" x1="743.6" y1="85.99" x2="871.09" y2="85.99" gradientTransform="translate(-487)" gradientUnits="userSpaceOnUse"><stop offset="0" stop-color="#77bd4b"/><stop offset="0.15" stop-color="#71b644"/><stop offset="0.36" stop-color="#60a330"/><stop offset="0.61" stop-color="#448310"/><stop offset="0.71" stop-color="#387502"/><stop offset="0.79" stop-color="#3d7a08"/><stop offset="0.9" stop-color="#4b8a18"/><stop offset="1" stop-color="#5d9f2d"/></linearGradient><linearGradient id="linear-gradient-2" x1="753.39" y1="86.51" x2="795.44" y2="86.51" gradientTransform="translate(-487)" gradientUnits="userSpaceOnUse"><stop offset="0" stop-color="#f2f9ee"/><stop offset="0.09" stop-color="#e1f1d7"/><stop offset="0.31" stop-color="#bbdea5"/><stop offset="0.52" stop-color="#9ed07e"/><stop offset="0.71" stop-color="#88c662"/><stop offset="0.88" stop-color="#7cbf51"/><stop offset="1" stop-color="#77bd4b"/></linearGradient><linearGradient id="linear-gradient-3" x1="891.13" y1="15.26" x2="892.21" y2="104.44" gradientTransform="translate(-487)" gradientUnits="userSpaceOnUse"><stop offset="0" stop-color="#77bd4b"/><stop offset="0.2" stop-color="#74b947"/><stop offset="0.4" stop-color="#69ae3b"/><stop offset="0.6" stop-color="#589a28"/><stop offset="0.79" stop-color="#417f0c"/><stop offset="0.81" stop-color="#3e7c09"/></linearGradient><linearGradient id="linear-gradient-4" x1="-1380.66" y1="861.22" x2="-1252.5" y2="861.22" gradientTransform="matrix(-0.99, 0, 0, -1.02, -988.47, 887.38)" gradientUnits="userSpaceOnUse"><stop offset="0.01" stop-color="#458411"/><stop offset="1" stop-color="#a2d284"/></linearGradient><linearGradient id="linear-gradient-5" x1="745.65" y1="9.35" x2="869.76" y2="9.35" gradientTransform="translate(-487)" gradientUnits="userSpaceOnUse"><stop offset="0.01" stop-color="#387502"/><stop offset="1" stop-color="#77bd4b"/></linearGradient><linearGradient id="linear-gradient-6" x1="888.19" y1="85.81" x2="1015.69" y2="85.81" gradientTransform="matrix(-1, 0, 0, 1, 1067.39, 0)" xlink:href="#linear-gradient"/><linearGradient id="linear-gradient-7" x1="897.98" y1="86.32" x2="940.04" y2="86.32" gradientTransform="matrix(-1, 0, 0, 1, 1067.39, 0)" xlink:href="#linear-gradient-2"/><linearGradient id="linear-gradient-8" x1="1035.72" y1="15.07" x2="1036.81" y2="104.25" gradientTransform="matrix(-1, 0, 0, 1, 1067.39, 0)" xlink:href="#linear-gradient-3"/><linearGradient id="linear-gradient-9" x1="-1526.08" y1="860.4" x2="-1397.92" y2="860.4" gradientTransform="matrix(0, 0.99, 1.02, 0, -761.6, 1463.25)" xlink:href="#linear-gradient-4"/><linearGradient id="linear-gradient-10" x1="890.25" y1="9.16" x2="1014.36" y2="9.16" gradientTransform="matrix(-1, 0, 0, 1, 1067.39, 0)" xlink:href="#linear-gradient-5"/></defs><title>caterpillar-left-right</title><path class="cls-1" d="M256.6,9.8c13.68,2.42,57,3.35,63.75,3.48,6.7-.13,50.06-1.06,63.75-3.48,0,0-3.49,110-24.45,144.09,0,0-12.54,7.93-38.42,8.28v0h-1.75v0c-25.88-.35-38.42-8.28-38.42-8.28C260.09,119.83,256.6,9.8,256.6,9.8Z"/><path class="cls-2" d="M299,17.78s-12.69,109.12,9.43,141c0,0-6.89,1.09-20.66-4.71,0,0-19.58-45.32-21.39-139.94C266.37,13.54,294.66,20.68,299,17.78Z"/><path class="cls-3" d="M374.49,101.49c5.24-12.66,18.78-9.17,40.17-16.59s27.51-39.73,11.79-55-42.79-3.06-42.79-3.06ZM386.71,81s0-39.05,6-46c0,0,14.25-7.28,23.31-.93s13.81,17.2,3.45,32.08S386.71,81,386.71,81Z"/><ellipse class="cls-4" cx="320.62" cy="9.76" rx="63.71" ry="9.57" transform="translate(-0.06 2.26) rotate(-0.4)"/><ellipse class="cls-5" cx="320.71" cy="9.35" rx="62.05" ry="7.71"/><path class="cls-6" d="M431.71,155.11c.34-.16.68-.32,1-.45a2.38,2.38,0,0,1,2-.11.53.53,0,0,1,.26.26.44.44,0,0,1-.24.5,1.11,1.11,0,0,1-.59.08,5,5,0,0,0-1.86,0,2.14,2.14,0,0,0,.83.43c-.1,0-.6.21-.76.23a2.26,2.26,0,0,1-.83-.06c-.18,0-.62-.16-.6-.37S431.55,155.19,431.71,155.11Z"/><path class="cls-6" d="M435.8,144.88a17.89,17.89,0,0,1-1.34,2.79,1.32,1.32,0,0,1-.36.44,1.38,1.38,0,0,1-.59.18c-1,.14-2,.35-2.92.41.77-.59,1.67-1.06,2.47-1.62S435.36,145.7,435.8,144.88Z"/><path class="cls-6" d="M427.2,135.2a5.94,5.94,0,0,1,2.11.76,1,1,0,0,1-.76.88.51.51,0,0,0-.31.11c-.15.18.09.43.31.49a1.58,1.58,0,0,0,.74,0,.4.4,0,0,1-.39.49,1.9,1.9,0,0,0-.37,0c-.23,0-.31.38-.17.57a.77.77,0,0,0,.64.24.83.83,0,0,1,.4,0,.45.45,0,0,1,.18.51,1.06,1.06,0,0,1-.32.47,3.61,3.61,0,0,1-2.24,1,1.33,1.33,0,0,1-.91-.2c-.63-.48-.31-1.34-.38-2s-.43-.92-.58-1.46C424.82,135.86,426.07,135.1,427.2,135.2Z"/><path class="cls-6" d="M415.18,126a4.29,4.29,0,0,1,1.53-2.39.2.2,0,0,1,.09,0c.1,0,.15.12.16.22a2.75,2.75,0,0,1-.28,1.19,16.19,16.19,0,0,0-.51,1.55c-.05.19,0,.46.14.49s.22-.08.29-.16l2.1-2.36c.14-.16.37-.34.55-.21a.44.44,0,0,1,.11.43,4,4,0,0,1-1.52,2.65c-.37.28-.78.5-1.15.78a5.7,5.7,0,0,1-1.1.82,1.14,1.14,0,0,1-.89,0c-.35-.16-.25-.33-.15-.64C414.81,127.61,414.95,126.81,415.18,126Z"/><path class="cls-6" d="M364.83,77.45a2.1,2.1,0,0,1,0,.47l-.44,3.5a.45.45,0,0,0,0,.3c.15.23.49,0,.68-.16a11.36,11.36,0,0,1,2.32-1.82c.28-.16.71-.27.85,0a.58.58,0,0,1,0,.4,13.66,13.66,0,0,1-1.36,3,8.89,8.89,0,0,1-1.37,2,2.45,2.45,0,0,1-4-.7c-.32-.65,0-1.58.21-2.25a24.51,24.51,0,0,1,2.1-5.7c.41.18.88.42,1,.85A.88.88,0,0,1,364.83,77.45Z"/><path class="cls-6" d="M374.4,88.26a2.45,2.45,0,0,1-.07.45l-.71,3.36a.47.47,0,0,0,0,.28c.1.2.4,0,.57-.22a13.41,13.41,0,0,1,2.07-2c.24-.18.6-.33.69-.07a.66.66,0,0,1,0,.38,18,18,0,0,1-1.4,2.93,11.6,11.6,0,0,1-1.31,2c-1.11,1.28-2.69,1.22-3.19-.26A4.37,4.37,0,0,1,371.4,93a31.92,31.92,0,0,1,2.27-5.61c.32.13.67.31.73.71A.88.88,0,0,1,374.4,88.26Z"/><path class="cls-6" d="M382.28,97.09a2.07,2.07,0,0,1-.06.34l-.62,2.56a.38.38,0,0,0,0,.21c.06.15.28,0,.41-.19a11.35,11.35,0,0,1,1.52-1.55c.18-.15.44-.27.49-.08a.55.55,0,0,1,0,.29,15.72,15.72,0,0,1-1.09,2.26,10.13,10.13,0,0,1-1,1.57c-.83,1-1.93,1-2.23-.08a3.7,3.7,0,0,1,.36-1.64,27.86,27.86,0,0,1,1.81-4.31c.22.09.46.21.48.5A.71.71,0,0,1,382.28,97.09Z"/><path class="cls-6" d="M390.54,103.41a2.07,2.07,0,0,1-.06.34l-.62,2.56a.38.38,0,0,0,0,.21c.06.15.28,0,.41-.19a11.35,11.35,0,0,1,1.52-1.55c.18-.15.44-.27.49-.08a.55.55,0,0,1,0,.29,15.72,15.72,0,0,1-1.09,2.26,10.13,10.13,0,0,1-1,1.57c-.83,1-1.93,1-2.23-.08a3.7,3.7,0,0,1,.36-1.64,27.86,27.86,0,0,1,1.81-4.31c.22.09.46.21.48.5A.71.71,0,0,1,390.54,103.41Z"/><path class="cls-6" d="M397.19,110.64c.28.15.27.7.6.74a.53.53,0,0,0,.38-.17l.59-.49a.87.87,0,0,1,.65-.28.19.19,0,0,1,.17.14c0,.19-.17.44-.21.63a3.64,3.64,0,0,1-.09.48,11,11,0,0,1-.74,1.43,10.13,10.13,0,0,1-1,1.57c-.83,1-1.93,1-2.23-.08a3.7,3.7,0,0,1,.36-1.64,7.32,7.32,0,0,1,.89-2c.14-.2.35-.41.58-.33Z"/><path class="cls-6" d="M407.91,116.84l-.19.21a1.36,1.36,0,0,0-.29.45.49.49,0,0,0,.09.5.57.57,0,0,0,.55.09c.19,0,.36-.14.55-.18a1.87,1.87,0,0,1,1.11.27,1.15,1.15,0,0,1,.38.25.39.39,0,0,1,.08.42.48.48,0,0,1-.5.18,1.62,1.62,0,0,0-.56,0c-.52.13-.89,1.17-1.23,1.58-.83,1-1.93,1-2.23-.08-.24-.88.37-2.48.66-3.3a3.73,3.73,0,0,1,.88-1.53,1.57,1.57,0,0,1,1.64-.38A3.48,3.48,0,0,1,407.91,116.84Z"/><path class="cls-7" d="M322.15,94.9c-.81,2.23,10.76,17.22,12.83,13.1C339.31,99.38,325.16,86.56,322.15,94.9Z"/><path class="cls-8" d="M322.94,97.45a39.14,39.14,0,0,0,5.36,7.3,15,15,0,0,0-.71-4c-1-3.27-2.71-5.64-3.8-5.3C323.27,95.56,323,96.33,322.94,97.45Z"/><path class="cls-9" d="M402.68,150.51c0-.06-4.3-3.61-5-2.46C395.17,151.91,403.39,154,402.68,150.51Z"/><path class="cls-9" d="M342.85,113.45c-.45.5-2.64-.52-2.94-.88-.74-.89-2.64-1.4-1.78-3.05C338.2,109.37,345.13,110.9,342.85,113.45Z"/><path class="cls-9" d="M345,115.55c1,.48,2.38,1.87,3.51,1.48.48-.17.83-1,1-1.85C346,111.42,341.62,113.91,345,115.55Z"/><path class="cls-9" d="M351.14,118.59a7.67,7.67,0,0,1,2.34,2.43c1.35,3-2.32,3.84-3.31,1.45-.43-1-.36.65-.62-1.69,0-.38-.43-.42-.75-1.6-.17-.63.11-1.57.72-1.73C349.59,117.44,350.4,116.54,351.14,118.59Z"/><path class="cls-9" d="M367.62,132.61c.08,0,8.7,2.11,8.11,4C373.73,143,362.82,134.72,367.62,132.61Z"/><path class="cls-9" d="M379,138c.08,0,7.71,1.58,7.07,3.45C383.95,147.75,374.59,140.31,379,138Z"/><path class="cls-9" d="M395.42,146.35c0-.08-6.57-5.25-7.57-3.74C384.5,147.71,396.72,151.1,395.42,146.35Z"/><path class="cls-7" d="M391.94,110.8c.41.45.55,1.52-.23,3.24-2.64,5.83-10.31,21.56-12.53,23-1.05.69-11.77-.9-14-5.83-.62-1.38,15.64-21.42,17.46-24.92.45-.86,1.29-1,2.29-.69s2,1.84,3.07,2.67C389.75,109.6,391.52,110.35,391.94,110.8Z"/><path class="cls-7" d="M374.08,99.77c3.73,0,7.13,1.71,9.68,5.73.35.56-1.08.77-1.88,2.55-2.71,6.06-14.3,21.7-16.67,23.18-1.13.7-7-1.4-10.58-6.27-2.27-3.11,15.16-18.38,18.23-24.28A1.45,1.45,0,0,1,374.08,99.77Z"/><path class="cls-10" d="M380.18,101.64C378,100.77,376.74,99,366.63,113c-7.89,10.93-13.65,10.17-9.07,15a17,17,0,0,1-2.94-3.08c-2.27-3.11,15.16-18.38,18.23-24.28a1.45,1.45,0,0,1,1.23-.92A10.47,10.47,0,0,1,380.18,101.64Z"/><path class="cls-7" d="M400,115.8c.34.41.4,1.4-.36,3-2.58,5.58-10,20.65-12,22.13-.94.7-8.26.76-9.93-3.74-.27-.72-.12-1.28.56-2.55,2.84-5.3,10.59-17.83,13-22.47C392.72,109.54,399.23,114.85,400,115.8Z"/><path class="cls-10" d="M394,130.38a4.54,4.54,0,0,1-.63-.32c.89-2.55,7.1-11.37,6.14-13.81s-5.25-4.11-6.44-3.4c-1.75,1.05-13,18.56-12.72,22.9,0,.5-.11,3.46,1.25,4.22a12.6,12.6,0,0,0,5.46,1.22c-2,.42-7.85,0-9.31-4-.27-.72-.12-1.28.56-2.55,2.84-5.3,10.59-17.83,13-22.47,1.39-2.67,7.91,2.64,8.71,3.6.34.41.4,1.4-.36,3C398.48,121.42,396.26,126,394,130.38Z"/><path class="cls-7" d="M400.68,117.46a10.67,10.67,0,0,1,8.94,5.14c.32.49.57,1.41-.12,3-2.34,5.26-10.62,22.84-12.9,22a31.46,31.46,0,0,1-9.76-5.91c-.63-.52-.25-1.27.39-2.46,2.67-5,10.12-16.58,12.38-20.92A1.25,1.25,0,0,1,400.68,117.46Z"/><path class="cls-11" d="M404.26,118.13a10.84,10.84,0,0,1,4.6,3.4c-.38.94.13,1.92-2.08,3.09s-.85-3.73-3.55-4.28C402.91,120.29,403.46,119.2,404.26,118.13Z"/><path class="cls-10" d="M400.68,117.46a10.26,10.26,0,0,1,2.89.44c-1.18.15-2.64.78-4,3.05-6.46,10.77-12.19,15-9.94,21,.64,1.72,2.56,2.47,4.81,4.72a34.6,34.6,0,0,1-7.59-5c-.63-.52-.25-1.27.39-2.46,2.67-5,10.12-16.58,12.38-20.92A1.25,1.25,0,0,1,400.68,117.46Z"/><path class="cls-7" d="M420.33,135c-1.85,5.09-13.26,15.5-15.41,16.59-1,.52-3.84-.55-7.45-3.62-2.09-1.78,11.26-19.25,12.14-24.09.08-.45.78-.63,1.28-.41,1.1.48,2.64,2.34,4.51,4,1.28,1.11,2.85,1.6,3.74,2.92C420.24,132,420.82,133.7,420.33,135Z"/><path class="cls-10" d="M406.49,150.54a11.44,11.44,0,0,1-1.57,1.1c-1,.52-3.84-.55-7.45-3.62-2.09-1.78,11.26-19.25,12.14-24.09.08-.45.78-.63,1.28-.41,1.1.48,2.64,2.34,4.51,4l.14.12c-2.1-1.3-3.17-3.25-5.53-.52-4.23,4.9-6.44,9.84-9.43,14.47-1.81,2.81-3.54,4.58.06,7.7a12.63,12.63,0,0,0,3.19,2c1,.4,2.11-2,3.17-2.6A15.93,15.93,0,0,1,406.49,150.54Z"/><path class="cls-7" d="M420.23,132.05c3.36.11,10.5,11,8.72,15-2,4.55-11.24,8.15-13.1,9.22-.88.51-6.4-1.16-10.94-4.61-.59-.45,12.18-14.73,14.35-18.92A1.06,1.06,0,0,1,420.23,132.05Z"/><path class="cls-11" d="M424.36,135.07a25.25,25.25,0,0,1,4.07,6.83,8.42,8.42,0,0,0-1.69.72c-3,1.6,1.11-2.23-4.3-5.78C421.28,136.09,422.35,135.06,424.36,135.07Z"/><path class="cls-10" d="M428.45,142c.75,2,1,3.85.5,5.08-2,4.55-11.24,8.15-13.1,9.22-.48.27-2.32-.09-4.64-1a3.06,3.06,0,0,1,2.69.26c2,.8,5.13-2.14,8.24-4.47,2.28-1.71,4.62-2.84,5.11-3.62C429.12,144.46,428.52,143.64,428.45,142Z"/><path class="cls-7" d="M375.21,99.82c.38,3.51-17.56,21.6-20.6,23.49-.36.22-1.45.61-1.63-.13-.59-2.42,0-3-2.81-4.52a2.51,2.51,0,0,1-.69-3.31c1.78-3.31,2.93-13.51,7.13-18.76,3-3.8,8.07-4.19,9.16-6.29C367.36,87.25,375,98.27,375.21,99.82Z"/><path class="cls-10" d="M355.2,122.88c-.23.18-.43.32-.59.42-.36.22-1.45.61-1.63-.13-.43-1.79-.21-2.58-1.21-3.48h0c.57.38.59.1,1.46,2.14.24.58.43,1.74,1.22,1.37Z"/><path class="cls-10" d="M372.12,94.72c-2.68-2-5.21-4.58-7-.94s-12.9,18.28-15.13,23.4a1.32,1.32,0,0,0,.58,1.7h0l-.41-.23a2.51,2.51,0,0,1-.69-3.31c1.78-3.31,2.93-13.51,7.13-18.76,3-3.8,8.07-4.19,9.16-6.29.91-1.74,3.8,1.11,6.15,4.16l.19.25Z"/><path class="cls-7" d="M357.5,81.61A10.06,10.06,0,0,1,363,84.05c3.45,3.1,6.32,5.79,3.36,7-3.78,1.49-15.52,26.05-17.55,25.21-.93-.38-1.67-1.11-2.33-1.35-1.18-.43-2-.24-2.45-.49-.76-.41-1.09-1.4-.49-2.67,2.29-4.84,7.19-24.65,9.8-29.65C353.67,81.46,357,81.6,357.5,81.61Z"/><path class="cls-11" d="M360.22,82.32A10.39,10.39,0,0,1,363,84.05a34.37,34.37,0,0,1,3.63,3.58c-6.62,3.2-6.75-4.72-6.68-4.85Z"/><path class="cls-10" d="M357.5,81.61a5.43,5.43,0,0,1,1.35.22c-4,.94-5.52,4.65-6.59,8.71s-8,21.39-7.38,22.92c.29.73,1,.87,1.93,1.24s1.05,1.07,2.94.87l-.11.25c-.35.33-.63.48-.82.4-.93-.38-1.67-1.11-2.33-1.35-1.18-.43-2-.24-2.45-.49-.76-.41-1.09-1.4-.49-2.67,2.29-4.84,7.19-24.65,9.8-29.65C353.67,81.46,357,81.6,357.5,81.61Z"/><path class="cls-7" d="M334.49,86.62c3.73,0,16.26-9.8,18.81-5.79a3.36,3.36,0,0,1,.34,3.51c-2.71,6.06-7.91,27.27-10.28,28.75-.11.07-1.19-1.17-2.93-2.29-.79-.51-2.08-.32-2.84-1.17s-.28-2.13-.8-4.05C334.84,98.55,333.5,86.6,334.49,86.62Z"/><path class="cls-10" d="M346.57,81.17c-1.67.94-5.36,3.15-6.13,3.6-1.32.77-3,4.48-3.08,8.32-.09,4.23.81,9.07,0,11.23-.39,1.07,0,1.87-.31,3.72a10.59,10.59,0,0,0-.3-2.47c-1.93-7-3.27-19-2.28-19C336.71,86.62,342.07,83.13,346.57,81.17Z"/><path class="cls-7" d="M337.92,86.85c-1.9,6.36.59,15.79-1.57,17.57-1,.84-6.37-2.7-7.91-7.39-.29-.89-2.86-5.94-1.57-6.82C335.66,84.23,337.94,86.79,337.92,86.85Z"/><path class="cls-10" d="M337.12,102.77a2.72,2.72,0,0,1-.77,1.65c-1,.84-6.37-2.7-7.91-7.39-.29-.89-2.86-5.94-1.57-6.82l1.15-.76c-2.52,4.94,4.81,15.5,7.72,14.6A3,3,0,0,0,337.12,102.77Z"/><path class="cls-12" d="M328.43,89.2a21.69,21.69,0,0,1,5.63-2.64c-.12,3.84-.09,9.37-2.55,8.35-.56-.23-.15-2.39-2.43-4.37A2.17,2.17,0,0,1,328.43,89.2Z"/><path class="cls-7" d="M430.28,146.92c1.43,1.58,3.72,4.32,2,6.55-1.2,1.52-7,4.3-12.48,4.54-2.36.1-4.29-.78-4.21-1.68.1-1.17,10.39-6.31,12.84-9.43C429.13,146,429.59,146.16,430.28,146.92Z"/><path class="cls-10" d="M431.69,148.63c1,1.48,1.79,3.29.57,4.84s-7,4.3-12.48,4.54c-2.36.1-4.29-.78-4.21-1.68,0-.26.54-.71,1.35-1.28-.29,1.45.82,2.57,1.6,2.27,1.5-.57,3.48-2,5.7-2.41a61,61,0,0,0,7.28-2.91C433,151.17,432.58,150.53,431.69,148.63Z"/><path class="cls-7" d="M420.74,159.49c-1.36.47-2.53-1.36-1.31-2,3-1.55,9.46-3.55,12-4.62,1.47-.62,1.12.75.9,2-.38,2.07,0,4.3-2.63,5C427.86,160.26,423,158.72,420.74,159.49Z"/><path class="cls-10" d="M420.74,159.49c-1.36.47-2.53-1.36-1.31-2l.62-.31c0,.12-.12.48-.14.52-.45,1.19.35,1.59,1.18,1.22,5.27-2.31,9.92,3.05,11.11-3.54-.24,1.9-.11,3.81-2.55,4.42C427.86,160.26,423,158.72,420.74,159.49Z"/><path class="cls-10" d="M424,134.66c-1.2,0-2.71-2.56-3.79-1.17-12.82,16.52-17.41,15-5.26,22.63a.43.43,0,0,1,.15.2c-1.87-.15-6.37-1.79-10.17-4.69-.59-.45,12.18-14.73,14.35-18.92a1.06,1.06,0,0,1,1-.67C421.26,132.09,422.63,133.12,424,134.66Z"/><path class="cls-10" d="M339.82,110.17c1.33.35,3,1.68,3.62,1.54a3.06,3.06,0,0,0,1.47-1.2,6.58,6.58,0,0,1-1.56,2.59c-.11.07-1.19-1.17-2.93-2.29-.79-.51-2.08-.32-2.84-1.17s-.44-1.61-.59-2.9l0-.08C337.72,108.12,337.17,109.48,339.82,110.17Z"/><path class="cls-11" d="M412,136.12c-1.47,1.83-1.24.21-3.43,3.36-.09.13-3.29,2.39-1-2,1.18-2.24,1.13-2.44,3.62-2.59C411.66,134.82,412.72,135.27,412,136.12Z"/><path class="cls-11" d="M401.58,129.2c.2-1-1.95-1.75-2.55-.61-1.6,3-2.93,3.66.25,4.87C400.64,134,401.38,130.23,401.58,129.2Z"/><path class="cls-11" d="M392.28,123c-.06,2.85-1.16,1.91-3.33,5.08-.67,1-1.38-.55-.05-2.8.3-.51.35-4.39,3.16-2.71A.68.68,0,0,1,392.28,123Z"/><path class="cls-11" d="M383.5,118c-1.06,1.46,0,.65-1.45,1.89,0,0-1.95,3.28-2.24,1.81-.16-.8,1.34-2.19,1.57-3.77C381.67,116,383.92,116.14,383.5,118Z"/><path class="cls-11" d="M374,113.86c-.34.55-3.15,2.82-4.08,4.28-1.33,2.07-3.43-1.39,1.39-5.29.59-.47.61-2.63,2.68-1.24C374.48,111.94,374.32,113.34,374,113.86Z"/><path class="cls-11" d="M361.09,109.82c-1.42-.34-.06-1.77.73-3.74,2-4.93,2.41-.9,4-.58C367.9,105.94,363.55,110.41,361.09,109.82Z"/><path class="cls-11" d="M357.51,93.2a5.18,5.18,0,0,0-1.57-.49c-.44-.12-.43,2.44-1.57,4.6-.58,1.1-3.65,6.55-.54,4.78.87-.49.84-3.92,3.45-5.79C358.7,95.28,358.49,93.82,357.51,93.2Z"/><path class="cls-11" d="M345.28,90.15c-2.67,1-1.6,2.1-1.69,4.88,0,.22,1.06,3.47,1.64-1C345.65,90.7,347.61,90.45,345.28,90.15Z"/><path class="cls-11" d="M419.91,142.75c4.21,2.3-3.15,5.13-3.49,4.23-.05-.13.87-2.4,1-3.53C417.62,141.44,419,142.13,419.91,142.75Z"/><path class="cls-11" d="M424.31,153.28c-.49.35-2.06,1.29-1.34-.08.42-.79,1.28-.62,2.08-1.95.1-.16,1.41-1.11,1.56.25C426.71,152.39,424.9,152.86,424.31,153.28Z"/><path class="cls-11" d="M426,156.41a1.23,1.23,0,0,1,1.64-.2C428.75,157.12,424.65,157.62,426,156.41Z"/><path class="cls-9" d="M428.35,156c.21,0,.93-.21.59.26-.18.24,0,1-.61.55C428.27,156.78,428,156.09,428.35,156Z"/><path class="cls-9" d="M426.92,149.77c.36-.19.8.57.9.88.38,1.15-.58.93-.55.69.08-.59-.6-1-.58-1.26A.82.82,0,0,1,426.92,149.77Z"/><path class="cls-9" d="M424.4,143.43c-.61-.32-.23-2.86-3.07-3.58-1.83-.47-2.44-3.42.77-1.61C423.89,139.24,425.47,141.41,424.4,143.43Z"/><path class="cls-9" d="M414.46,133.37c-.94-1.32-2.87-.88-3.33-.83-.75.08-1.58-1-.37-1.42.62-.23-.07-2.38,2.45-.59a3.94,3.94,0,0,0,1.43,1.45C415,132.22,414.89,134,414.46,133.37Z"/><path class="cls-9" d="M401.21,124.38c-.62.07-.83-.25-.19-1.16.26-.38,2.57-1.94,3.06,0C405.59,129.34,403.37,124.14,401.21,124.38Z"/><path class="cls-9" d="M394.68,119.57c-1.54-1.26-4.15-.86-2.68-1.85.29-.19,1,0,1.67-.27C395.18,116.92,396.21,120.83,394.68,119.57Z"/><path class="cls-9" d="M387.2,113.11c-.11.72-.68,1-1.14.18-.89-1.52-3.47-.84-2.37-1.74S387.57,110.74,387.2,113.11Z"/><path class="cls-9" d="M378.41,108.21c0,.47,1.73.2,1.08-1.89-.06-.21-1-.17-1.74-1.36s-2.13,0-2.75.52C373.77,106.62,378.34,105.71,378.41,108.21Z"/><path class="cls-9" d="M370.83,101.67c-.46.36.09,1.5-1.13,1.47-.24,0-.62-.67-1-.72-.76-.1-2.5-1.48-3.39-3.61-.18-.43-.55-1.09.69-1.5s3.52,2.51,4.61,3.21C370.95,100.74,371.33,101.29,370.83,101.67Z"/><path class="cls-9" d="M361.73,92.45c-.59.52-1-.13-1.55-.88a7.09,7.09,0,0,0-3.06-2c-1-.34-1.77.12-1.47-.77,1.41-4.18,3.65-2.19,6.56,1.31C362.52,90.49,362.07,92.15,361.73,92.45Z"/><path class="cls-9" d="M347.9,87.7c-.56,0-1.2-.3-1.76-.35-.72-.06-1.25,0-.8-.73a4.05,4.05,0,0,1,1.56-1.74C348.42,84.14,349,87.77,347.9,87.7Z"/><path class="cls-9" d="M414.23,146.8c-.15.2-.24,2.15-.8,3.12-.06.11.29,1.17-.75.48-.57-.38.7-1.49.26-2.69-.12-.31.42-2.23.74-2C414.71,146.23,414.35,146.65,414.23,146.8Z"/><path class="cls-9" d="M404.13,142.48s-1.17.26.18,1,.17,1,2.15.28c.13,0,1-.86.89-1.22C407.12,142,405.51,143.49,404.13,142.48Z"/><path class="cls-9" d="M422.34,153.42c-.14,1.75-.28.1-1,1.24,0,0-.84-.05-.18-.41C421.28,154.18,422.38,153,422.34,153.42Z"/><path class="cls-9" d="M425.26,156.55c.15,1.11-1.17.88-1,.57C424.56,156.62,425.23,156.36,425.26,156.55Z"/><path class="cls-9" d="M397.35,139.64c-.26.28-1.62.73-1.66-.69,0-.74-1-.74-1.75-1.74s-.38-3.15,1.54-1.58C399,138.53,400.71,136,397.35,139.64Z"/><path class="cls-13" d="M385.76,131.21c-.16-.39-1.33-2.26-.91,1,.08.62-.42,2.88-.17,2.74,1-.58.28-1.09,1.84-1.51,0,0,1.12-1,.69-1.22A1.4,1.4,0,0,1,385.76,131.21Z"/><path class="cls-9" d="M378.61,125.79c-1.53.62-1.81-1-3,.91-.06.09-1.19,1-.94,1.32-.05.29,2.74-.79,3-1S379.32,126.35,378.61,125.79Z"/><path class="cls-9" d="M364.42,120.71c-.72,2,3.72,2.42-.35,4.1-.79.33-.33-2.48-.42-3.37C363.46,119.6,364.77,119.73,364.42,120.71Z"/><path class="cls-9" d="M359.24,113.61c1.36.39-3.27,3.19-3.9-.88-.11-.69,1-2.13,1.12-1.27S357.2,113,359.24,113.61Z"/><path class="cls-9" d="M350.5,103.42c.1,3.52,3.33.88,1.63,2.85-.29.33-1.55.39-2.16,1.54s.51-1.88-.1-2.43C349,104.61,350.47,102.25,350.5,103.42Z"/><path class="cls-13" d="M342.06,98c.65,1.22,1.66,1.6,1.79,2.31s-.66,3.12-2,1c-.57-.92-.76-3.6-.37-4S341.82,97.52,342.06,98Z"/><path class="cls-14" d="M412.3,148.83a8.8,8.8,0,0,1-.74,1.6c-.75-.4,0-1.09.2-1.9.11-.48.64-.05.54.15Z"/><path class="cls-14" d="M403.66,143.76c.44.45,1.69.85.17,1.42C403.32,145.37,402.84,142.91,403.66,143.76Z"/><path class="cls-14" d="M423.81,157.17c-.23.43,0,.16-.55.26-.22,0,0-.4.3-.45C423.56,157,424.07,156.68,423.81,157.17Z"/><path class="cls-14" d="M394.77,138.85c.07.92,1.3,2-1,.89C393.19,139.45,392.85,137.83,394.77,138.85Z"/><path class="cls-14" d="M383.81,133.24c-.14.55,0,2.11-.61,1.36,0,0-.45-2.59.67-1.53Z"/><path class="cls-14" d="M375.85,128.69c-.67.48-2.06-.12-1.78,1.32,0,0-.18.87.7.47,0,0,1.67-1.62,1.46-1.75A.36.36,0,0,0,375.85,128.69Z"/><path class="cls-14" d="M362.6,123c0,.07.21,4.91-.74.57C361.76,123.08,362.1,121.64,362.6,123Z"/><path class="cls-14" d="M355.1,114.16c-.22.9,1.46,1.32.5,1.8,0,0-1.77-.15-1.1-1.27,0,0,0-1.34.64-.7C355.12,114,355.12,114.09,355.1,114.16Z"/><path class="cls-14" d="M349.2,107.28c0,.4.42,2.37-.59,1.77C348.12,108.77,349.24,106.28,349.2,107.28Z"/><path class="cls-14" d="M341.44,102.39c.75,1.23.06.42.18,1.22,0,.18.26.28,0,.6-.19,0-.32-.67-.58-1C340.55,102.6,341.31,102.18,341.44,102.39Z"/><path class="cls-14" d="M420.57,154.52c-.09.47-.29.32-.6.61-.49.45,0-.15,0-.2,0-.25.08-.52.42-.54C420.54,154.39,420.58,154.48,420.57,154.52Z"/><path class="cls-11" d="M432.09,156.42c-2,.7-4.24.81-1.61-1.54a2.36,2.36,0,0,1,1.91-.56l-.1.52C432.2,155.36,432.15,155.9,432.09,156.42Z"/><path class="cls-11" d="M432.09,156.42l-.14,0a9.27,9.27,0,0,0,.26-1.08l0,.18h0l0,.17h0l0,.43h0v0l0,.15v0Z"/><path class="cls-7" d="M427.65,159c-1-.23-9.36-.7-4.87,1.48,1.65.8,3.91,2.76,5.55,1.76C431.65,160.24,430.6,159.73,427.65,159Z"/><path class="cls-11" d="M395.24,112.28a21.64,21.64,0,0,1,3.22,2.13,12,12,0,0,0-1,1.62c-.91,1.73-.59,2-2.37.86-.44-.28.25-.7-1.21-.66C393.59,116.23,394.38,114,395.24,112.28Z"/><path class="cls-11" d="M413.49,125.68c.59.58,1.23,1.2,1.91,1.8,1,.86,2.14,1.34,3,2.12a3.5,3.5,0,0,1-2.4,1.34c-2.92.3-.69-.6-3.83-2.09C411.58,128.55,412.7,127.06,413.49,125.68Z"/><path class="cls-11" d="M413.49,125.68l0,0h0l0,0,0,0,0,0h0l0,0,0,0,0,0h0l.06.06h0l0,0,0,0,0,0h0l0,0,0,0,0,0h0l.07.07h0l.06.06h0l0,0,0,0h0l0,0,.05.05h0l0,0,0,0h0l0,0,0,0h0l0,0,0,0,0,0h0l0,0,0,0,0,0h0l0,0,0,0h0l0,0,0,0,0,0h0l0,0,0,0,0,0h0l0,0,0,0,0,0h0l0,0,0,0h0l0,0,0,0,0,0h0l0,0,0,0,0,0h0l.06.05,0,0h0l0,0,0,0h0l0,0,.06.06h.14c-.87-.54-1.57-1.19-2.25-1.57Z"/><path class="cls-10" d="M389.64,109.38c-3.26-1.35-3.52-4-6.68-.53-6,6.54-13.83,19.28-13.36,24.21.22,2.35,7,4,7.15,4.07-3.58-.41-9.9-2.23-11.54-5.89-.62-1.38,15.64-21.42,17.46-24.92.45-.86,1.29-1,2.29-.69s2,1.84,3.07,2.67A18.83,18.83,0,0,0,389.64,109.38Z"/><path class="cls-11" d="M378.92,100.89a11.41,11.41,0,0,1,3.42,2.7c-1.55,1.57-3,3.09-4.24,0C377.81,102.87,378.3,101.85,378.92,100.89Z"/><path class="cls-11" d="M370.08,92.26a38.1,38.1,0,0,1,4.1,5.46,6.83,6.83,0,0,1-2.94.73c-1.09-.08-1.89.52-3.17-1.39C367.32,95.92,369,93.66,370.08,92.26Z"/><path class="cls-11" d="M370.08,92.26c.38.42.77.86,1.15,1.33h0l.28.35.07.09.06.07,0,0,.06.07.07.09,0,0,0,.06,0,0,0,.05.19.25h0c-.85-.65-1.68-1.34-2.48-1.88Z"/><path class="cls-11" d="M345,81.9A21.62,21.62,0,0,1,350.2,80c0,2.14.76,3-4.16,3.45C345.08,83.49,344.94,82.86,345,81.9Z"/><path class="cls-11" d="M387.32,107.67a6.88,6.88,0,0,0,.7.62,21.3,21.3,0,0,0,2.24,1.45c-.76,1.09-2,2.29-2.73,1-.52-1-3.6,0-.72-2.69A2.76,2.76,0,0,1,387.32,107.67Z"/><path class="cls-11" d="M380.18,101.64a8.48,8.48,0,0,0-1.4-.53l.14-.23A10.51,10.51,0,0,1,380.18,101.64Z"/><path class="cls-15" d="M346.57,81.17l-1.58.91q0-.09,0-.19l.71-.33h0l.19-.09.05,0,.15-.07.07,0,.14-.06.06,0,.14-.06Z"/><path class="cls-11" d="M398.31,114.62a8.48,8.48,0,0,0-3.34-1.77l.27-.57.05,0h0l.1.05.05,0h0l.13.07h0l.05,0,.1.06h0l.05,0h0l.1.06.05,0h0l.15.09h0l.05,0,.11.07.05,0,.11.07.05,0h0l.13.08h0l.05,0h0l.09.06h0l.05,0h0l.25.17.05,0,.05,0,.09.06h0l0,0h0l.08.06h0l0,0,0,0,0,0,0,0,0,0h0l.07,0h0l0,0,0,0,0,0,.1.07,0,0h0l0,0,.06,0,.06,0h0l0,0h0l.08.06h0l0,0h0Z"/><path class="cls-11" d="M431,147.69a11.91,11.91,0,0,1,1.22,1.71,17.87,17.87,0,0,0-2.94,1.17c-1.45.91-3-1.59,1.65-2.86Z"/><path class="cls-11" d="M432.18,149.41l-.11,0-.39-.82C431.86,148.88,432,149.14,432.18,149.41Z"/><path class="cls-9" d="M344.85,122.41c1-.87,2.49-3,5.65-2.82,2.73.17,1.21,2-1.41,2.78a7.39,7.39,0,0,1-3.19-.08C345.58,122.24,343.81,123.27,344.85,122.41Z"/><path class="cls-16" d="M344.85,122.41l.28-.25,0,0a1.14,1.14,0,0,1,.18.26C344.78,122.69,344.12,123,344.85,122.41Z"/><path class="cls-9" d="M344.24,118.12s-2.34,3.7-1.68,1.43c.33-1.14.69-1.18,1.61-3.34C345.17,113.89,350.32,114.62,344.24,118.12Z"/><path class="cls-16" d="M343.28,119.52c-.56.74-1.08,1.27-.72,0,0-.11.07-.22.1-.31a.86.86,0,0,1,.62.28Z"/><path class="cls-9" d="M340.84,114c-.14.6-.64.75-.88,1.23-.58,1.14-.85,2.28-.85,1.63a11.47,11.47,0,0,1,.66-5C341.06,111.74,341.67,110.56,340.84,114Z"/><path class="cls-16" d="M339.39,116.54c-.18.47-.27.68-.28.31,0-.12,0-.24,0-.36l.16,0Z"/><path class="cls-11" d="M389.64,109.38a11.84,11.84,0,0,1-2.55-1.57l.24-.14h.47l0,0h0l0,0h0l0,0h0l0,0h0l0,0,0,0h0l0,0h0l0,0h.05l0,0h0l0,0h0l0,0h0l0,0h.05l0,0h.05l0,0h0l0,0h0l0,0h0l0,0h.05l0,0h.05l0,0h0l0,0h0l0,0h0l0,0h.05l0,0h.05l0,0,0,0H389l0,0h.05l0,0h0l0,0h0l0,0h0l0,0h0l0,0h0l0,0h0l0,0h.08l0,0h0Z"/><path class="cls-14" d="M333.21,96.14c.22.6.91,2.13-.55,1.7-1.09-.32-.07-1-.13-2,0-.55.65-.52.63.21Z"/><path class="cls-17" d="M179.2,9.61c-13.68,2.42-57,3.35-63.75,3.48C108.75,13,65.39,12,51.7,9.61c0,0,3.49,110,24.45,144.09,0,0,12.54,7.93,38.42,8.28v0h1.75v0c25.88-.35,38.42-8.28,38.42-8.28C175.71,119.65,179.2,9.61,179.2,9.61Z"/><path class="cls-18" d="M136.78,17.6s12.69,109.12-9.43,141c0,0,6.89,1.09,20.66-4.71,0,0,19.58-45.32,21.39-139.94C169.42,13.35,141.13,20.5,136.78,17.6Z"/><path class="cls-19" d="M52.14,26.64S25.07,14.42,9.35,29.7s-9.61,47.59,11.79,55,34.93,3.93,40.17,16.59ZM16.27,65.91C5.91,51,10.66,40.18,19.72,33.83S43,34.76,43,34.76c6,7,6,46,6,46S26.63,80.78,16.27,65.91Z"/><ellipse class="cls-20" cx="115.18" cy="9.58" rx="9.57" ry="63.71" transform="translate(104.79 124.69) rotate(-89.6)"/><ellipse class="cls-21" cx="115.09" cy="9.16" rx="62.05" ry="7.71"/><path class="cls-6" d="M4.09,154.93c-.34-.16-.68-.32-1-.45a2.38,2.38,0,0,0-2-.11.53.53,0,0,0-.26.26.44.44,0,0,0,.24.5,1.11,1.11,0,0,0,.59.08,5,5,0,0,1,1.86,0,2.14,2.14,0,0,1-.83.43c.1,0,.6.21.76.23a2.26,2.26,0,0,0,.83-.06c.18,0,.62-.16.6-.37S4.25,155,4.09,154.93Z"/><path class="cls-6" d="M0,144.7a17.89,17.89,0,0,0,1.34,2.79,1.32,1.32,0,0,0,.36.44,1.38,1.38,0,0,0,.59.18c1,.14,2,.35,2.92.41-.77-.59-1.67-1.06-2.47-1.62S.43,145.52,0,144.7Z"/><path class="cls-6" d="M8.6,135a5.94,5.94,0,0,0-2.11.76,1,1,0,0,0,.76.88.51.51,0,0,1,.31.11c.15.18-.09.43-.31.49a1.58,1.58,0,0,1-.74,0,.4.4,0,0,0,.39.49,1.9,1.9,0,0,1,.37,0c.23,0,.31.38.17.57a.77.77,0,0,1-.64.24.83.83,0,0,0-.4,0,.45.45,0,0,0-.18.51,1.06,1.06,0,0,0,.32.47,3.61,3.61,0,0,0,2.24,1,1.33,1.33,0,0,0,.91-.2c.63-.48.31-1.34.38-2s.43-.92.58-1.46C11,135.68,9.73,134.92,8.6,135Z"/><path class="cls-6" d="M20.62,125.85a4.29,4.29,0,0,0-1.53-2.39.2.2,0,0,0-.09,0c-.1,0-.15.12-.16.22a2.75,2.75,0,0,0,.28,1.19,16.19,16.19,0,0,1,.51,1.55c.05.19,0,.46-.14.49s-.22-.08-.29-.16l-2.1-2.36c-.14-.16-.37-.34-.55-.21a.44.44,0,0,0-.11.43,4,4,0,0,0,1.52,2.65c.37.28.78.5,1.15.78a5.7,5.7,0,0,0,1.1.82,1.14,1.14,0,0,0,.89,0c.35-.16.25-.33.15-.64C21,127.43,20.85,126.63,20.62,125.85Z"/><path class="cls-6" d="M71,77.26a2.1,2.1,0,0,0,0,.47l.44,3.5a.45.45,0,0,1,0,.3c-.15.23-.49,0-.68-.16a11.36,11.36,0,0,0-2.32-1.82c-.28-.16-.71-.27-.85,0a.58.58,0,0,0,0,.4,13.66,13.66,0,0,0,1.36,3,8.89,8.89,0,0,0,1.37,2,2.45,2.45,0,0,0,4-.7c.32-.65,0-1.58-.21-2.25a24.51,24.51,0,0,0-2.1-5.7c-.41.18-.88.42-1,.85A.88.88,0,0,0,71,77.26Z"/><path class="cls-6" d="M61.39,88.07a2.45,2.45,0,0,0,.07.45l.71,3.36a.47.47,0,0,1,0,.28c-.1.2-.4,0-.57-.22a13.41,13.41,0,0,0-2.07-2c-.24-.18-.6-.33-.69-.07a.66.66,0,0,0,0,.38,18,18,0,0,0,1.4,2.93,11.6,11.6,0,0,0,1.31,2c1.11,1.28,2.69,1.22,3.19-.26a4.37,4.37,0,0,0-.39-2.15,31.92,31.92,0,0,0-2.27-5.61c-.32.13-.67.31-.73.71A.88.88,0,0,0,61.39,88.07Z"/><path class="cls-6" d="M53.52,96.91a2.07,2.07,0,0,0,.06.34l.62,2.56a.38.38,0,0,1,0,.21c-.06.15-.28,0-.41-.19a11.35,11.35,0,0,0-1.52-1.55c-.18-.15-.44-.27-.49-.08a.55.55,0,0,0,0,.29,15.72,15.72,0,0,0,1.09,2.26,10.13,10.13,0,0,0,1,1.57c.83,1,1.93,1,2.23-.08a3.7,3.7,0,0,0-.36-1.64A27.86,27.86,0,0,0,54,96.3c-.22.09-.46.21-.48.5A.71.71,0,0,0,53.52,96.91Z"/><path class="cls-6" d="M45.26,103.22a2.07,2.07,0,0,0,.06.34l.62,2.56a.38.38,0,0,1,0,.21c-.06.15-.28,0-.41-.19A11.35,11.35,0,0,0,44,104.6c-.18-.15-.44-.27-.49-.08a.55.55,0,0,0,0,.29,15.72,15.72,0,0,0,1.09,2.26,10.13,10.13,0,0,0,1,1.57c.83,1,1.93,1,2.23-.08a3.7,3.7,0,0,0-.36-1.64,27.86,27.86,0,0,0-1.81-4.31c-.22.09-.46.21-.48.5A.71.71,0,0,0,45.26,103.22Z"/><path class="cls-6" d="M38.61,110.46c-.28.15-.27.7-.6.74a.53.53,0,0,1-.38-.17l-.59-.49a.87.87,0,0,0-.65-.28.19.19,0,0,0-.17.14c0,.19.17.44.21.63a3.64,3.64,0,0,0,.09.48,11,11,0,0,0,.74,1.43,10.13,10.13,0,0,0,1,1.57c.83,1,1.93,1,2.23-.08a3.7,3.7,0,0,0-.36-1.64,7.32,7.32,0,0,0-.89-2c-.14-.2-.35-.41-.58-.33Z"/><path class="cls-6" d="M27.88,116.65l.19.21a1.36,1.36,0,0,1,.29.45.49.49,0,0,1-.09.5.57.57,0,0,1-.55.09c-.19,0-.36-.14-.55-.18a1.87,1.87,0,0,0-1.11.27,1.15,1.15,0,0,0-.38.25.39.39,0,0,0-.08.42.48.48,0,0,0,.5.18,1.62,1.62,0,0,1,.56,0c.52.13.89,1.17,1.23,1.58.83,1,1.93,1,2.23-.08.24-.88-.37-2.48-.66-3.3a3.73,3.73,0,0,0-.88-1.53,1.57,1.57,0,0,0-1.64-.38A3.48,3.48,0,0,0,27.88,116.65Z"/><path class="cls-7" d="M113.64,94.72c.81,2.23-10.76,17.22-12.83,13.1C96.49,99.19,110.64,86.38,113.64,94.72Z"/><path class="cls-8" d="M112.86,97.26a39.14,39.14,0,0,1-5.36,7.3,15,15,0,0,1,.71-4c1-3.27,2.71-5.64,3.8-5.3C112.53,95.37,112.81,96.14,112.86,97.26Z"/><path class="cls-9" d="M33.11,150.32c0-.06,4.3-3.61,5-2.46C40.63,151.73,32.4,153.77,33.11,150.32Z"/><path class="cls-9" d="M92.94,113.26c.45.5,2.64-.52,2.94-.88.74-.89,2.64-1.4,1.78-3.05C97.59,109.19,90.66,110.71,92.94,113.26Z"/><path class="cls-9" d="M90.75,115.37c-1,.48-2.38,1.87-3.51,1.48-.48-.17-.83-1-1-1.85C89.8,111.23,94.18,113.73,90.75,115.37Z"/><path class="cls-9" d="M84.65,118.41a7.67,7.67,0,0,0-2.34,2.43c-1.35,3,2.32,3.84,3.31,1.45.43-1,.36.65.62-1.69,0-.38.43-.42.75-1.6.17-.63-.11-1.57-.72-1.73C86.21,117.25,85.39,116.35,84.65,118.41Z"/><path class="cls-9" d="M68.18,132.43c-.08,0-8.7,2.11-8.11,4C62.07,142.8,73,134.54,68.18,132.43Z"/><path class="cls-9" d="M56.77,137.8c-.08,0-7.71,1.58-7.07,3.45C51.85,147.57,61.2,140.12,56.77,137.8Z"/><path class="cls-9" d="M40.38,146.16c0-.08,6.57-5.25,7.57-3.74C51.3,147.53,39.08,150.92,40.38,146.16Z"/><path class="cls-7" d="M43.86,110.62c-.41.45-.55,1.52.23,3.24,2.64,5.83,10.31,21.56,12.53,23,1.05.69,11.77-.9,14-5.83.62-1.38-15.64-21.42-17.46-24.92-.45-.86-1.29-1-2.29-.69s-2,1.84-3.07,2.67C46,109.42,44.27,110.16,43.86,110.62Z"/><path class="cls-7" d="M61.72,99.58c-3.73,0-7.13,1.71-9.68,5.73-.35.56,1.08.77,1.88,2.55,2.71,6.06,14.3,21.7,16.67,23.18,1.13.7,7-1.4,10.58-6.27,2.27-3.11-15.16-18.38-18.23-24.28A1.45,1.45,0,0,0,61.72,99.58Z"/><path class="cls-10" d="M55.62,101.46c2.18-.88,3.44-2.64,13.55,11.36,7.89,10.93,13.65,10.17,9.07,15a17,17,0,0,0,2.94-3.08c2.27-3.11-15.16-18.38-18.23-24.28a1.45,1.45,0,0,0-1.23-.92A10.47,10.47,0,0,0,55.62,101.46Z"/><path class="cls-7" d="M35.76,115.62c-.34.41-.4,1.4.36,3,2.58,5.58,10,20.65,12,22.13.94.7,8.26.76,9.93-3.74.27-.72.12-1.28-.56-2.55-2.84-5.3-10.59-17.83-13-22.47C43.08,109.36,36.57,114.66,35.76,115.62Z"/><path class="cls-10" d="M41.79,130.2a4.54,4.54,0,0,0,.63-.32c-.89-2.55-7.1-11.37-6.14-13.81s5.25-4.11,6.44-3.4c1.75,1.05,13,18.56,12.72,22.9,0,.5.11,3.46-1.25,4.22A12.6,12.6,0,0,1,48.74,141c2,.42,7.85,0,9.31-4,.27-.72.12-1.28-.56-2.55-2.84-5.3-10.59-17.83-13-22.47-1.39-2.67-7.91,2.64-8.71,3.6-.34.41-.4,1.4.36,3C37.31,121.24,39.54,125.84,41.79,130.2Z"/><path class="cls-7" d="M35.11,117.27a10.67,10.67,0,0,0-8.94,5.14c-.32.49-.57,1.41.12,3,2.34,5.26,10.62,22.84,12.9,22a31.46,31.46,0,0,0,9.76-5.91c.63-.52.25-1.27-.39-2.46-2.67-5-10.12-16.58-12.38-20.92A1.25,1.25,0,0,0,35.11,117.27Z"/><path class="cls-11" d="M31.53,117.95a10.84,10.84,0,0,0-4.6,3.4c.38.94-.13,1.92,2.08,3.09s.85-3.73,3.55-4.28C32.88,120.11,32.33,119,31.53,117.95Z"/><path class="cls-10" d="M35.11,117.27a10.26,10.26,0,0,0-2.89.44c1.18.15,2.64.78,4,3.05,6.46,10.77,12.19,15,9.94,21-.64,1.72-2.56,2.47-4.81,4.72a34.6,34.6,0,0,0,7.59-5c.63-.52.25-1.27-.39-2.46-2.67-5-10.12-16.58-12.38-20.92A1.25,1.25,0,0,0,35.11,117.27Z"/><path class="cls-7" d="M15.47,134.86c1.85,5.09,13.26,15.5,15.41,16.59,1,.52,3.84-.55,7.45-3.62,2.09-1.78-11.26-19.25-12.14-24.09-.08-.45-.78-.63-1.28-.41-1.1.48-2.64,2.34-4.51,4-1.28,1.11-2.85,1.6-3.74,2.92C15.55,131.85,15,133.52,15.47,134.86Z"/><path class="cls-10" d="M29.31,150.35a11.44,11.44,0,0,0,1.57,1.1c1,.52,3.84-.55,7.45-3.62,2.09-1.78-11.26-19.25-12.14-24.09-.08-.45-.78-.63-1.28-.41-1.1.48-2.64,2.34-4.51,4l-.14.12c2.1-1.3,3.17-3.25,5.53-.52,4.23,4.9,6.44,9.84,9.43,14.47,1.81,2.81,3.54,4.58-.06,7.7a12.63,12.63,0,0,1-3.19,2c-1,.4-2.11-2-3.17-2.6A15.93,15.93,0,0,0,29.31,150.35Z"/><path class="cls-7" d="M15.57,131.87c-3.36.11-10.5,11-8.72,15,2,4.55,11.24,8.15,13.1,9.22.88.51,6.4-1.16,10.94-4.61.59-.45-12.18-14.73-14.35-18.92A1.06,1.06,0,0,0,15.57,131.87Z"/><path class="cls-11" d="M11.44,134.89a25.25,25.25,0,0,0-4.07,6.83,8.42,8.42,0,0,1,1.69.72c3,1.6-1.11-2.23,4.3-5.78C14.51,135.9,13.44,134.88,11.44,134.89Z"/><path class="cls-10" d="M7.34,141.78c-.75,2-1,3.85-.5,5.08,2,4.55,11.24,8.15,13.1,9.22.48.27,2.32-.09,4.64-1a3.06,3.06,0,0,0-2.69.26c-2,.8-5.13-2.14-8.24-4.47C11.36,149.11,9,148,8.53,147.2,6.67,144.28,7.27,143.46,7.34,141.78Z"/><path class="cls-7" d="M60.59,99.64c-.38,3.51,17.56,21.6,20.6,23.49.36.22,1.45.61,1.63-.13.59-2.42,0-3,2.81-4.52a2.51,2.51,0,0,0,.69-3.31c-1.78-3.31-2.93-13.51-7.13-18.76-3-3.8-8.07-4.19-9.16-6.29C68.43,87.07,60.75,98.08,60.59,99.64Z"/><path class="cls-10" d="M80.6,122.7c.23.18.43.32.59.42.36.22,1.45.61,1.63-.13.43-1.79.21-2.58,1.21-3.48h0c-.57.38-.59.1-1.46,2.14-.24.58-.43,1.74-1.22,1.37Z"/><path class="cls-10" d="M63.68,94.53c2.68-2,5.21-4.58,7-.94s12.9,18.28,15.13,23.4a1.32,1.32,0,0,1-.58,1.7h0l.41-.23a2.51,2.51,0,0,0,.69-3.31c-1.78-3.31-2.93-13.51-7.13-18.76-3-3.8-8.07-4.19-9.16-6.29-.91-1.74-3.8,1.11-6.15,4.16l-.19.25Z"/><path class="cls-7" d="M78.3,81.43a10.06,10.06,0,0,0-5.52,2.44c-3.45,3.1-6.32,5.79-3.36,7C73.2,92.31,84.94,116.87,87,116c.93-.38,1.67-1.11,2.33-1.35,1.18-.43,2-.24,2.45-.49.76-.41,1.09-1.4.49-2.67-2.29-4.84-7.19-24.65-9.8-29.65C82.13,81.27,78.76,81.42,78.3,81.43Z"/><path class="cls-11" d="M75.57,82.13a10.39,10.39,0,0,0-2.79,1.74,34.37,34.37,0,0,0-3.63,3.58c6.62,3.2,6.75-4.72,6.68-4.85Z"/><path class="cls-10" d="M78.3,81.43a5.43,5.43,0,0,0-1.35.22c4,.94,5.52,4.65,6.59,8.71s8,21.39,7.38,22.92c-.29.73-1,.87-1.93,1.24s-1.05,1.07-2.94.87l.11.25c.35.33.63.48.82.4.93-.38,1.67-1.11,2.33-1.35,1.18-.43,2-.24,2.45-.49.76-.41,1.09-1.4.49-2.67-2.29-4.84-7.19-24.65-9.8-29.65C82.13,81.27,78.76,81.42,78.3,81.43Z"/><path class="cls-7" d="M101.31,86.44c-3.73,0-16.26-9.8-18.81-5.79a3.36,3.36,0,0,0-.34,3.51c2.71,6.06,7.91,27.27,10.28,28.75.11.07,1.19-1.17,2.93-2.29.79-.51,2.08-.32,2.84-1.17s.28-2.13.8-4.05C101,98.37,102.3,86.41,101.31,86.44Z"/><path class="cls-10" d="M89.23,81c1.67.94,5.36,3.15,6.13,3.6,1.32.77,3,4.48,3.08,8.32.09,4.23-.81,9.07,0,11.23.39,1.07,0,1.87.31,3.72a10.59,10.59,0,0,1,.3-2.47c1.93-7,3.27-19,2.28-19C99.08,86.44,93.73,82.95,89.23,81Z"/><path class="cls-7" d="M97.87,86.67c1.9,6.36-.59,15.79,1.57,17.57,1,.84,6.37-2.7,7.91-7.39.29-.89,2.86-5.94,1.57-6.82C100.13,84,97.85,86.61,97.87,86.67Z"/><path class="cls-10" d="M98.68,102.59a2.72,2.72,0,0,0,.77,1.65c1,.84,6.37-2.7,7.91-7.39.29-.89,2.86-5.94,1.57-6.82l-1.15-.76c2.52,4.94-4.81,15.5-7.72,14.6A3,3,0,0,1,98.68,102.59Z"/><path class="cls-12" d="M107.36,89a21.69,21.69,0,0,0-5.63-2.64c.12,3.84.09,9.37,2.55,8.35.56-.23.15-2.39,2.43-4.37A2.17,2.17,0,0,0,107.36,89Z"/><path class="cls-7" d="M5.51,146.73c-1.43,1.58-3.72,4.32-2,6.55,1.2,1.52,7,4.3,12.48,4.54,2.36.1,4.29-.78,4.21-1.68-.1-1.17-10.39-6.31-12.84-9.43C6.66,145.79,6.2,146,5.51,146.73Z"/><path class="cls-10" d="M4.11,148.45c-1,1.48-1.79,3.29-.57,4.84s7,4.3,12.48,4.54c2.36.1,4.29-.78,4.21-1.68,0-.26-.54-.71-1.35-1.28.29,1.45-.82,2.57-1.6,2.27-1.5-.57-3.48-2-5.7-2.41a61,61,0,0,1-7.28-2.91C2.81,151,3.22,150.34,4.11,148.45Z"/><path class="cls-7" d="M15.06,159.31c1.36.47,2.53-1.36,1.31-2-3-1.55-9.46-3.55-12-4.62-1.47-.62-1.12.75-.9,2,.38,2.07,0,4.3,2.63,5C7.94,160.08,12.8,158.53,15.06,159.31Z"/><path class="cls-10" d="M15.06,159.31c1.36.47,2.53-1.36,1.31-2l-.62-.31c0,.12.12.48.14.52.45,1.19-.35,1.59-1.18,1.22-5.27-2.31-9.92,3.05-11.11-3.54.24,1.9.11,3.81,2.55,4.42C7.94,160.08,12.8,158.53,15.06,159.31Z"/><path class="cls-10" d="M11.79,134.48c1.2,0,2.71-2.56,3.79-1.17,12.82,16.52,17.41,15,5.26,22.63a.43.43,0,0,0-.15.2c1.87-.15,6.37-1.79,10.17-4.69.59-.45-12.18-14.73-14.35-18.92a1.06,1.06,0,0,0-1-.67C14.54,131.9,13.16,132.94,11.79,134.48Z"/><path class="cls-10" d="M96,110c-1.33.35-3,1.68-3.62,1.54a3.06,3.06,0,0,1-1.47-1.2,6.58,6.58,0,0,0,1.56,2.59c.11.07,1.19-1.17,2.93-2.29.79-.51,2.08-.32,2.84-1.17s.44-1.61.59-2.9l0-.08C98.08,107.93,98.63,109.3,96,110Z"/><path class="cls-11" d="M23.76,135.93c1.47,1.83,1.24.21,3.43,3.36.09.13,3.29,2.39,1-2C27,135,27,134.82,24.53,134.66,24.14,134.64,23.08,135.08,23.76,135.93Z"/><path class="cls-11" d="M34.22,129c-.2-1,1.95-1.75,2.55-.61,1.6,3,2.93,3.66-.25,4.87C35.15,133.79,34.41,130,34.22,129Z"/><path class="cls-11" d="M43.52,122.86c.06,2.85,1.16,1.91,3.33,5.08.67,1,1.38-.55.05-2.8-.3-.51-.35-4.39-3.16-2.71A.68.68,0,0,0,43.52,122.86Z"/><path class="cls-11" d="M52.3,117.82c1.06,1.46,0,.65,1.45,1.89,0,0,1.95,3.28,2.24,1.81.16-.8-1.34-2.19-1.57-3.77C54.13,115.77,51.88,116,52.3,117.82Z"/><path class="cls-11" d="M61.8,113.68c.34.55,3.15,2.82,4.08,4.28,1.33,2.07,3.43-1.39-1.39-5.29-.59-.47-.61-2.63-2.68-1.24C61.31,111.75,61.47,113.16,61.8,113.68Z"/><path class="cls-11" d="M74.7,109.64c1.42-.34.06-1.77-.73-3.74-2-4.93-2.41-.9-4-.58C67.89,105.75,72.24,110.22,74.7,109.64Z"/><path class="cls-11" d="M78.28,93a5.18,5.18,0,0,1,1.57-.49c.44-.12.43,2.44,1.57,4.6.58,1.1,3.65,6.55.54,4.78-.87-.49-.84-3.92-3.45-5.79C77.09,95.1,77.3,93.63,78.28,93Z"/><path class="cls-11" d="M90.52,90c2.67,1,1.6,2.1,1.69,4.88,0,.22-1.06,3.47-1.64-1C90.14,90.52,88.19,90.27,90.52,90Z"/><path class="cls-11" d="M15.89,142.57c-4.21,2.3,3.15,5.13,3.49,4.23.05-.13-.87-2.4-1-3.53C18.17,141.25,16.81,141.95,15.89,142.57Z"/><path class="cls-11" d="M11.48,153.1c.49.35,2.06,1.29,1.34-.08-.42-.79-1.28-.62-2.08-1.95-.1-.16-1.41-1.11-1.56.25C9.09,152.21,10.89,152.68,11.48,153.1Z"/><path class="cls-11" d="M9.75,156.23a1.23,1.23,0,0,0-1.64-.2C7,156.94,11.15,157.43,9.75,156.23Z"/><path class="cls-9" d="M7.44,155.84c-.21,0-.93-.21-.59.26.18.24,0,1,.61.55C7.53,156.6,7.8,155.9,7.44,155.84Z"/><path class="cls-9" d="M8.88,149.58c-.36-.19-.8.57-.9.88-.38,1.15.58.93.55.69-.08-.59.6-1,.58-1.26A.82.82,0,0,0,8.88,149.58Z"/><path class="cls-9" d="M11.4,143.24c.61-.32.23-2.86,3.07-3.58,1.83-.47,2.44-3.42-.77-1.61C11.9,139.06,10.33,141.22,11.4,143.24Z"/><path class="cls-9" d="M21.34,133.19c.94-1.32,2.87-.88,3.33-.83.75.08,1.58-1,.37-1.42-.62-.23.07-2.38-2.45-.59a3.94,3.94,0,0,1-1.43,1.45C20.79,132,20.9,133.79,21.34,133.19Z"/><path class="cls-9" d="M34.59,124.2c.62.07.83-.25.19-1.16-.26-.38-2.57-1.94-3.06,0C30.2,129.16,32.42,124,34.59,124.2Z"/><path class="cls-9" d="M41.12,119.39c1.54-1.26,4.15-.86,2.68-1.85-.29-.19-1,0-1.67-.27C40.61,116.74,39.58,120.65,41.12,119.39Z"/><path class="cls-9" d="M48.6,112.93c.11.72.68,1,1.14.18.89-1.52,3.47-.84,2.37-1.74S48.22,110.55,48.6,112.93Z"/><path class="cls-9" d="M57.38,108c0,.47-1.73.2-1.08-1.89.06-.21,1-.17,1.74-1.36s2.13,0,2.75.52C62,106.43,57.46,105.52,57.38,108Z"/><path class="cls-9" d="M65,101.49c.46.36-.09,1.5,1.13,1.47.24,0,.62-.67,1-.72.76-.1,2.5-1.48,3.39-3.61.18-.43.55-1.09-.69-1.5s-3.52,2.51-4.61,3.21C64.85,100.55,64.47,101.1,65,101.49Z"/><path class="cls-9" d="M74.07,92.26c.59.52,1-.13,1.55-.88a7.09,7.09,0,0,1,3.06-2c1-.34,1.77.12,1.47-.77-1.41-4.18-3.65-2.19-6.56,1.31C73.28,90.31,73.72,92,74.07,92.26Z"/><path class="cls-9" d="M87.9,87.52c.56,0,1.2-.3,1.76-.35.72-.06,1.25,0,.8-.73A4.05,4.05,0,0,0,88.9,84.7C87.38,84,86.79,87.59,87.9,87.52Z"/><path class="cls-9" d="M21.56,146.61c.15.2.24,2.15.8,3.12.06.11-.29,1.17.75.48.57-.38-.7-1.49-.26-2.69.12-.31-.42-2.23-.74-2C21.08,146,21.45,146.47,21.56,146.61Z"/><path class="cls-9" d="M31.67,142.29s1.17.26-.18,1-.17,1-2.15.28c-.13,0-1-.86-.89-1.22C28.68,141.84,30.28,143.31,31.67,142.29Z"/><path class="cls-9" d="M13.45,153.23c.14,1.75.28.1,1,1.24,0,0,.84-.05.18-.41C14.51,154,13.41,152.77,13.45,153.23Z"/><path class="cls-9" d="M10.54,156.36c-.15,1.11,1.17.88,1,.57C11.23,156.43,10.57,156.17,10.54,156.36Z"/><path class="cls-9" d="M38.44,139.46c.26.28,1.62.73,1.66-.69,0-.74,1-.74,1.75-1.74s.38-3.15-1.54-1.58C36.79,138.34,35.09,135.79,38.44,139.46Z"/><path class="cls-13" d="M50,131c.16-.39,1.33-2.26.91,1-.08.62.42,2.88.17,2.74-1-.58-.28-1.09-1.84-1.51,0,0-1.12-1-.69-1.22A1.4,1.4,0,0,0,50,131Z"/><path class="cls-9" d="M57.19,125.61c1.53.62,1.81-1,3,.91.06.09,1.19,1,.94,1.32.05.29-2.74-.79-3-1S56.48,126.17,57.19,125.61Z"/><path class="cls-9" d="M71.37,120.52c.72,2-3.72,2.42.35,4.1.79.33.33-2.48.42-3.37C72.34,119.41,71,119.54,71.37,120.52Z"/><path class="cls-9" d="M76.56,113.43c-1.36.39,3.27,3.19,3.9-.88.11-.69-1-2.13-1.12-1.27S78.6,112.85,76.56,113.43Z"/><path class="cls-9" d="M85.29,103.24c-.1,3.52-3.33.88-1.63,2.85.29.33,1.55.39,2.16,1.54s-.51-1.88.1-2.43C86.78,104.43,85.33,102.07,85.29,103.24Z"/><path class="cls-13" d="M93.73,97.79c-.65,1.22-1.66,1.6-1.79,2.31s.66,3.12,2,1c.57-.92.76-3.6.37-4S94,97.34,93.73,97.79Z"/><path class="cls-14" d="M23.49,148.65a8.8,8.8,0,0,0,.74,1.6c.75-.4,0-1.09-.2-1.9-.11-.48-.64-.05-.54.15Z"/><path class="cls-14" d="M32.14,143.58c-.44.45-1.69.85-.17,1.42C32.47,145.18,33,142.72,32.14,143.58Z"/><path class="cls-14" d="M12,157c.23.43,0,.16.55.26.22,0,0-.4-.3-.45C12.23,156.79,11.72,156.5,12,157Z"/><path class="cls-14" d="M41,138.66c-.07.92-1.3,2,1,.89C42.61,139.27,42.94,137.65,41,138.66Z"/><path class="cls-14" d="M52,133.05c.14.55,0,2.11.61,1.36,0,0,.45-2.59-.67-1.53Z"/><path class="cls-14" d="M59.94,128.5c.67.48,2.06-.12,1.78,1.32,0,0,.18.87-.7.47,0,0-1.67-1.62-1.46-1.75A.36.36,0,0,1,59.94,128.5Z"/><path class="cls-14" d="M73.19,122.81c0,.07-.21,4.91.74.57C74,122.89,73.7,121.46,73.19,122.81Z"/><path class="cls-14" d="M80.69,114c.22.9-1.46,1.32-.5,1.8,0,0,1.77-.15,1.1-1.27,0,0,0-1.34-.64-.7C80.67,113.86,80.68,113.9,80.69,114Z"/><path class="cls-14" d="M86.6,107.1c0,.4-.42,2.37.59,1.77C87.67,108.59,86.56,106.09,86.6,107.1Z"/><path class="cls-14" d="M94.36,102.21c-.75,1.23-.06.42-.18,1.22,0,.18-.26.28,0,.6.19,0,.32-.67.58-1C95.25,102.41,94.48,102,94.36,102.21Z"/><path class="cls-14" d="M15.22,154.34c.09.47.29.32.6.61.49.45,0-.15,0-.2,0-.25-.08-.52-.42-.54C15.25,154.2,15.21,154.29,15.22,154.34Z"/><path class="cls-11" d="M3.7,156.23c2,.7,4.24.81,1.61-1.54a2.36,2.36,0,0,0-1.91-.56l.1.52C3.6,155.18,3.64,155.71,3.7,156.23Z"/><path class="cls-11" d="M3.7,156.23l.14,0a9.27,9.27,0,0,1-.26-1.08l0,.18h0l0,.17h0l0,.43h0v0l0,.15v0Z"/><path class="cls-7" d="M8.15,158.84c1-.23,9.36-.7,4.87,1.48-1.65.8-3.91,2.76-5.55,1.76C4.14,160.05,5.2,159.54,8.15,158.84Z"/><path class="cls-11" d="M40.56,112.1a21.64,21.64,0,0,0-3.22,2.13,12,12,0,0,1,1,1.62c.91,1.73.59,2,2.37.86.44-.28-.25-.7,1.21-.66C42.2,116.05,41.42,113.86,40.56,112.1Z"/><path class="cls-11" d="M22.31,125.5c-.59.58-1.23,1.2-1.91,1.8-1,.86-2.14,1.34-3,2.12a3.5,3.5,0,0,0,2.4,1.34c2.92.3.69-.6,3.83-2.09C24.22,128.37,23.09,126.88,22.31,125.5Z"/><path class="cls-11" d="M22.31,125.5l0,0h0l0,0,0,0,0,0h0l0,0,0,0,0,0h0l-.06.06h0l0,0,0,0,0,0h0l0,0,0,0,0,0h0l-.07.07h0l-.06.06h0l0,0,0,0h0l0,0-.05.05h0l0,0,0,0h0l0,0,0,0h0l0,0,0,0,0,0h0l0,0,0,0,0,0h0l0,0,0,0h0l0,0,0,0,0,0h0l0,0,0,0,0,0h0l0,0,0,0,0,0h0l0,0,0,0h0l0,0,0,0,0,0h0l0,0,0,0,0,0h0l-.06.05,0,0h0l0,0,0,0h0l0,0-.06.06h-.14c.87-.54,1.57-1.19,2.25-1.57Z"/><path class="cls-10" d="M46.16,109.2c3.26-1.35,3.52-4,6.68-.53,6,6.54,13.83,19.28,13.36,24.21-.22,2.35-7,4-7.15,4.07,3.58-.41,9.9-2.23,11.54-5.89.62-1.38-15.64-21.42-17.46-24.92-.45-.86-1.29-1-2.29-.69s-2,1.84-3.07,2.67A18.83,18.83,0,0,1,46.16,109.2Z"/><path class="cls-11" d="M56.88,100.7a11.41,11.41,0,0,0-3.42,2.7c1.55,1.57,3,3.09,4.24,0C58,102.69,57.5,101.67,56.88,100.7Z"/><path class="cls-11" d="M65.71,92.07a38.1,38.1,0,0,0-4.1,5.46,6.83,6.83,0,0,0,2.94.73c1.09-.08,1.89.52,3.17-1.39C68.48,95.74,66.79,93.47,65.71,92.07Z"/><path class="cls-11" d="M65.71,92.07c-.38.42-.77.86-1.15,1.33h0l-.28.35-.07.09-.06.07,0,0-.06.07L64,94.1l0,0,0,.06,0,0,0,.05-.19.25h0c.85-.65,1.68-1.34,2.48-1.88Z"/><path class="cls-11" d="M90.8,81.71a21.62,21.62,0,0,0-5.2-1.93c0,2.14-.76,3,4.16,3.45C90.71,83.31,90.86,82.68,90.8,81.71Z"/><path class="cls-11" d="M48.47,107.49a6.88,6.88,0,0,1-.7.62,21.3,21.3,0,0,1-2.24,1.45c.76,1.09,2,2.29,2.73,1,.52-1,3.6,0,.72-2.69A2.76,2.76,0,0,0,48.47,107.49Z"/><path class="cls-11" d="M55.62,101.46a8.48,8.48,0,0,1,1.4-.53l-.14-.23A10.51,10.51,0,0,0,55.62,101.46Z"/><path class="cls-15" d="M89.23,81l1.58.91q0-.09,0-.19l-.71-.33h0l-.19-.09-.05,0-.15-.07-.07,0-.14-.06-.06,0L89.27,81Z"/><path class="cls-11" d="M37.49,114.44a8.48,8.48,0,0,1,3.34-1.77l-.27-.57-.05,0h0l-.1.05-.05,0h0l-.13.07h0l-.05,0-.1.06h0l-.05,0h0l-.1.06-.05,0h0l-.15.09h0l-.05,0-.11.07-.05,0-.11.07-.05,0h0l-.13.08h0l-.05,0h0L39,113h0l-.05,0h0l-.25.17-.05,0-.05,0-.09.06h0l0,0h0l-.08.06h0l0,0,0,0,0,0,0,0,0,0h0l-.07,0h0l0,0,0,0,0,0-.1.07,0,0h0l0,0-.06,0-.06,0h0l0,0h0l-.08.06h0l0,0h0Z"/><path class="cls-11" d="M4.83,147.51a11.91,11.91,0,0,0-1.22,1.71,17.87,17.87,0,0,1,2.94,1.17c1.45.91,3-1.59-1.65-2.86Z"/><path class="cls-11" d="M3.61,149.22l.11,0,.39-.82C3.93,148.7,3.76,149,3.61,149.22Z"/><path class="cls-9" d="M90.95,122.22c-1-.87-2.49-3-5.65-2.82-2.73.17-1.21,2,1.41,2.78a7.39,7.39,0,0,0,3.19-.08C90.21,122.06,92,123.09,90.95,122.22Z"/><path class="cls-16" d="M90.95,122.22l-.28-.25,0,0a1.14,1.14,0,0,0-.18.26C91,122.5,91.68,122.83,90.95,122.22Z"/><path class="cls-9" d="M91.56,117.94s2.34,3.7,1.68,1.43c-.33-1.14-.69-1.18-1.61-3.34C90.63,113.71,85.47,114.43,91.56,117.94Z"/><path class="cls-16" d="M92.52,119.33c.56.74,1.08,1.27.72,0,0-.11-.07-.22-.1-.31a.86.86,0,0,0-.62.28Z"/><path class="cls-9" d="M95,113.81c.14.6.64.75.88,1.23.58,1.14.85,2.28.85,1.63a11.47,11.47,0,0,0-.66-5C94.73,111.56,94.13,110.38,95,113.81Z"/><path class="cls-16" d="M96.41,116.36c.18.47.27.68.28.31,0-.12,0-.24,0-.36l-.16,0Z"/><path class="cls-11" d="M46.16,109.2a11.84,11.84,0,0,0,2.55-1.57l-.24-.14H48l0,0h0l0,0h0l0,0h0l0,0h0l0,0,0,0h0l0,0h0l0,0h-.05l0,0h0l0,0h0l0,0h0l0,0h-.05l0,0h-.05l0,0h0l0,0h0l0,0h0l0,0h-.05l0,0H47.1l0,0h0l0,0h0l0,0h0l0,0h-.05l0,0h-.05l0,0,0,0h-.05l0,0h-.05l0,0h0l0,0h0l0,0h0l0,0h0l0,0h0l0,0h0l0,0h-.08l0,0h0Z"/><path class="cls-14" d="M102.59,96c-.22.6-.91,2.13.55,1.7,1.09-.32.07-1,.13-2,0-.55-.65-.52-.63.21Z"/></svg>