<svg id="Layer_1" data-name="Layer 1" xmlns="http://www.w3.org/2000/svg" xmlns:xlink="http://www.w3.org/1999/xlink" viewBox="0 0 422.63 148.47"><defs><style>.cls-1{fill:none;}.cls-2{fill:url(#linear-gradient);}.cls-3{fill:url(#linear-gradient-2);}.cls-4{fill:url(#linear-gradient-3);}.cls-5{fill:url(#linear-gradient-4);}.cls-6{fill:url(#linear-gradient-5);}.cls-7{fill:url(#linear-gradient-6);}.cls-8{fill:url(#linear-gradient-7);}.cls-9{fill:url(#linear-gradient-8);}.cls-10{fill:url(#linear-gradient-9);}.cls-11{fill:url(#linear-gradient-10);}.cls-12,.cls-20{fill:orange;}.cls-13{fill:#39f;}.cls-13,.cls-14,.cls-15,.cls-16,.cls-17,.cls-18,.cls-19,.cls-20,.cls-21,.cls-22{fill-rule:evenodd;}.cls-14{fill:#090052;}.cls-15,.cls-18,.cls-19{fill:#0d0072;}.cls-16{fill:#4026d3;}.cls-17{fill:#ffed17;}.cls-18,.cls-19{stroke:#0d0072;stroke-miterlimit:22.93;}.cls-18{stroke-width:1.42px;}.cls-19{stroke-width:0.57px;}.cls-21{fill:#d10072;}.cls-22{fill:#5a00bf;}.cls-23{fill:url(#linear-gradient-11);}.cls-24{fill:url(#linear-gradient-12);}.cls-25{fill:url(#linear-gradient-13);}.cls-26{fill:url(#linear-gradient-14);}.cls-27{fill:url(#linear-gradient-15);}.cls-28{fill:url(#linear-gradient-16);}.cls-29{fill:url(#linear-gradient-17);}.cls-30{fill:url(#linear-gradient-18);}.cls-31{fill:url(#linear-gradient-19);}.cls-32{fill:url(#linear-gradient-20);}.cls-33{clip-path:url(#clip-path);}</style><linearGradient id="linear-gradient" x1="140.33" y1="-524.24" x2="141.26" y2="-447.52" gradientTransform="matrix(-1, 0, 0, 1, 162.97, 552.03)" gradientUnits="userSpaceOnUse"><stop offset="0" stop-color="#77bd4b"/><stop offset="0.2" stop-color="#74b947"/><stop offset="0.4" stop-color="#69ae3b"/><stop offset="0.6" stop-color="#589a28"/><stop offset="0.79" stop-color="#417f0c"/><stop offset="0.81" stop-color="#3e7c09"/></linearGradient><linearGradient id="linear-gradient-2" x1="163.5" y1="-471.96" x2="135.81" y2="-484.84" gradientTransform="matrix(-1, 0, 0, 1, 162.97, 552.03)" gradientUnits="userSpaceOnUse"><stop offset="0" stop-color="#f2f9ee"/><stop offset="0.09" stop-color="#e1f1d7"/><stop offset="0.31" stop-color="#bbdea5"/><stop offset="0.52" stop-color="#9ed07e"/><stop offset="0.71" stop-color="#88c662"/><stop offset="0.88" stop-color="#7cbf51"/><stop offset="1" stop-color="#77bd4b"/></linearGradient><linearGradient id="linear-gradient-3" x1="-6.14" y1="-524.05" x2="35.01" y2="-524.05" xlink:href="#linear-gradient"/><linearGradient id="linear-gradient-4" x1="-6.14" y1="-524.05" x2="35.01" y2="-524.05" xlink:href="#linear-gradient-2"/><linearGradient id="linear-gradient-5" x1="480.93" y1="-323.39" x2="508.93" y2="-323.39" gradientTransform="translate(24.96 609.2) rotate(-45)" gradientUnits="userSpaceOnUse"><stop offset="0.19" stop-color="#3e7c09"/><stop offset="0.21" stop-color="#417f0c"/><stop offset="0.4" stop-color="#589a28"/><stop offset="0.6" stop-color="#69ae3b"/><stop offset="0.8" stop-color="#74b947"/><stop offset="1" stop-color="#77bd4b"/></linearGradient><linearGradient id="linear-gradient-6" x1="38.39" y1="-466.86" x2="122.64" y2="-466" gradientTransform="matrix(-1, 0, 0, 1, 162.97, 552.03)" gradientUnits="userSpaceOnUse"><stop offset="0" stop-color="#77bd4b"/><stop offset="0.15" stop-color="#71b644"/><stop offset="0.36" stop-color="#60a330"/><stop offset="0.61" stop-color="#448310"/><stop offset="0.71" stop-color="#387502"/><stop offset="0.79" stop-color="#3d7a08"/><stop offset="0.9" stop-color="#4b8a18"/><stop offset="1" stop-color="#5d9f2d"/></linearGradient><linearGradient id="linear-gradient-7" x1="47.3" y1="-465.83" x2="60.82" y2="-465.83" xlink:href="#linear-gradient-2"/><linearGradient id="linear-gradient-8" x1="-6.57" y1="-490.56" x2="34.02" y2="-490.56" xlink:href="#linear-gradient-6"/><linearGradient id="linear-gradient-9" x1="136.63" y1="-524.05" x2="27.15" y2="-524.05" gradientTransform="matrix(-1, 0, 0, 1, 162.97, 552.03)" gradientUnits="userSpaceOnUse"><stop offset="0.01" stop-color="#458411"/><stop offset="1" stop-color="#a2d284"/></linearGradient><linearGradient id="linear-gradient-10" x1="37.96" y1="-535.62" x2="120.73" y2="-513.82" gradientTransform="matrix(-1, 0, 0, 1, 162.97, 552.03)" xlink:href="#linear-gradient-5"/><linearGradient id="linear-gradient-11" x1="226.85" y1="-495.07" x2="227.79" y2="-418.35" gradientTransform="translate(422.69 548.15) rotate(-27.75)" xlink:href="#linear-gradient"/><linearGradient id="linear-gradient-12" x1="250.03" y1="-442.79" x2="222.34" y2="-455.67" gradientTransform="translate(422.69 548.15) rotate(-27.75)" xlink:href="#linear-gradient-2"/><linearGradient id="linear-gradient-13" x1="80.39" y1="-494.88" x2="121.54" y2="-494.88" gradientTransform="translate(422.69 548.15) rotate(-27.75)" xlink:href="#linear-gradient"/><linearGradient id="linear-gradient-14" x1="80.39" y1="-494.88" x2="121.54" y2="-494.88" gradientTransform="translate(422.69 548.15) rotate(-27.75)" xlink:href="#linear-gradient-2"/><linearGradient id="linear-gradient-15" x1="399.12" y1="-363.95" x2="427.12" y2="-363.95" gradientTransform="matrix(-0.96, -0.3, -0.3, 0.96, 571.45, 534.47)" xlink:href="#linear-gradient-5"/><linearGradient id="linear-gradient-16" x1="124.92" y1="-437.69" x2="209.16" y2="-436.83" gradientTransform="translate(422.69 548.15) rotate(-27.75)" xlink:href="#linear-gradient-6"/><linearGradient id="linear-gradient-17" x1="133.83" y1="-436.66" x2="147.35" y2="-436.66" gradientTransform="translate(422.69 548.15) rotate(-27.75)" xlink:href="#linear-gradient-2"/><linearGradient id="linear-gradient-18" x1="79.96" y1="-461.39" x2="120.55" y2="-461.39" gradientTransform="translate(422.69 548.15) rotate(-27.75)" xlink:href="#linear-gradient-6"/><linearGradient id="linear-gradient-19" x1="223.15" y1="-494.88" x2="113.67" y2="-494.88" gradientTransform="translate(172.87 526.64)" xlink:href="#linear-gradient-9"/><linearGradient id="linear-gradient-20" x1="124.49" y1="-506.45" x2="207.26" y2="-484.65" gradientTransform="translate(422.69 548.15) rotate(-27.75)" xlink:href="#linear-gradient-5"/><clipPath id="clip-path"><path class="cls-1" d="M346.78,42.17c-12.89,6.78-25.62,12-35.85,14.59-11.07,2.84-16.07,1.85-17.06,0s1-6.56,9.64-14.08c8-6.94,19.43-14.5,32.32-21.28s25.62-12,35.85-14.59c11.07-2.84,16.07-1.85,17.06,0s-1,6.56-9.64,14.08C371.15,27.83,359.67,35.39,346.78,42.17Z"/></clipPath></defs><title>caterpillar-inside-outside</title><path class="cls-2" d="M26.49,28l3.22,13S-5,33.84,15.44,62.6c0,0,23,28.81,26.51,30.75l2.23,11.45s-67.93-62-35.32-74.55C8.86,30.24,18.55,27,26.49,28Z"/><path class="cls-3" d="M26.49,28l3.22,13S-5,33.84,15.44,62.6c0,0,23,28.81,26.51,30.75l2.23,11.45s-67.93-62-35.32-74.55C8.86,30.24,18.55,27,26.49,28Z"/><path class="cls-4" d="M129.18,21.71l39.94,11.91-39,.64S126,29.59,129.18,21.71Z"/><path class="cls-5" d="M129.18,21.71l39.94,11.91-39,.64S126,29.59,129.18,21.71Z"/><path class="cls-6" d="M129.18,21.71l39.94,11.91-39,.64S126,29.59,129.18,21.71Z"/><path class="cls-7" d="M26.17,28,51,135.36s1.18,5.26,9.66,5.69c0,0,27.69,6.44,46.57-.54,0,0,6.44-1,7.4-10.19L135.74,29.19Z"/><path class="cls-8" d="M99,103.17c3.41-24.37,4.45-49.07,5-73.66,0-.26,0-.52,0-.78l15.13.17c0,1.86.07,3.72.09,5.59.07,7.43-.46,14.82-1.09,22.21-2.14,25.14-6.28,50.17-13.6,74.35q-1.74,5.74-3.8,11.3a7.41,7.41,0,0,0-.81.19,8.67,8.67,0,0,0-1.49.18,52.24,52.24,0,0,1-7.32,1l-1,0A255,255,0,0,0,99,103.17Z"/><path class="cls-9" d="M169.11,33.62l-45.78,55.7s-6.16-37.46,7.15-55.7Z"/><ellipse class="cls-10" cx="81.06" cy="27.99" rx="54.89" ry="13.04"/><path class="cls-11" d="M81.06,39.74c14.56,0,28.24-1.34,38.52-3.78,11.12-2.64,15.09-5.85,15.09-8s-4-5.32-15.09-8c-10.27-2.44-24-3.78-38.52-3.78S52.82,17.58,42.55,20c-11.12,2.64-15.09,5.85-15.09,8s4,5.32,15.09,8C52.82,38.39,66.5,39.74,81.06,39.74Z"/><path class="cls-12" d="M62.7,134.17c-.21-.28-.42-.57-.64-.84a2.24,2.24,0,0,0-1.56-1,.5.5,0,0,0-.34.1.41.41,0,0,0,0,.52,1,1,0,0,0,.45.34,4.72,4.72,0,0,1,1.53.86,2,2,0,0,1-.88,0c.1,0,.4.45.52.53a2.13,2.13,0,0,0,.71.32c.17,0,.58.15.66,0S62.8,134.31,62.7,134.17Z"/><path class="cls-12" d="M64,123.89a16.84,16.84,0,0,0-.17,2.9,1.25,1.25,0,0,0,.09.52,1.3,1.3,0,0,0,.41.42c.73.55,1.45,1.18,2.22,1.66-.36-.84-.89-1.63-1.29-2.46S64,124.76,64,123.89Z"/><path class="cls-12" d="M75.49,119.84a5.59,5.59,0,0,0-2.08-.34.9.9,0,0,0,.23,1.07c.08.07.18.13.2.23s-.27.31-.48.26a1.48,1.48,0,0,1-.63-.31.38.38,0,0,0,.1.58c.1.05.23.06.32.13s.08.45-.12.54a.72.72,0,0,1-.64-.09.78.78,0,0,0-.35-.15.42.42,0,0,0-.38.33,1,1,0,0,0,0,.54,3.4,3.4,0,0,0,1.4,1.83,1.25,1.25,0,0,0,.84.25c.73-.11.87-1,1.22-1.47s.78-.56,1.15-.94C77.15,121.46,76.47,120.27,75.49,119.84Z"/><path class="cls-12" d="M89.56,117.77a4,4,0,0,0-.17-2.67.19.19,0,0,0-.05-.07c-.08-.05-.18,0-.23.1a2.59,2.59,0,0,0-.31,1.11,15.23,15.23,0,0,1-.29,1.51c0,.18-.17.4-.34.34s-.14-.16-.17-.27l-.66-2.9c0-.2-.15-.45-.36-.43s-.23.17-.29.3a3.76,3.76,0,0,0,0,2.87c.18.4.42.77.59,1.17a5.37,5.37,0,0,0,.53,1.18,1.07,1.07,0,0,0,.71.43c.36,0,.36-.16.42-.46C89.15,119.24,89.4,118.52,89.56,117.77Z"/><path class="cls-12" d="M153.17,100.73a2,2,0,0,0-.2.4l-1.23,3.09a.42.42,0,0,1-.17.23c-.22.12-.42-.2-.49-.44a10.69,10.69,0,0,0-1.08-2.56c-.15-.26-.46-.55-.71-.37a.54.54,0,0,0-.17.33,12.85,12.85,0,0,0-.23,3,8.36,8.36,0,0,0,.22,2.26,2.31,2.31,0,0,0,3.63,1.25c.56-.39.68-1.32.86-1.95a23.07,23.07,0,0,0,.87-5.65,1.49,1.49,0,0,0-1.21.24Z"/><path class="cls-12" d="M140.35,105.26a2.31,2.31,0,0,0-.15.4l-.95,3.09a.45.45,0,0,1-.13.24c-.17.12-.32-.19-.37-.44A12.62,12.62,0,0,0,138,106c-.11-.26-.35-.55-.53-.37a.62.62,0,0,0-.13.33,16.9,16.9,0,0,0-.19,3,10.92,10.92,0,0,0,.16,2.26c.33,1.56,1.65,2.23,2.74,1.23.42-.39.52-1.32.66-2a30,30,0,0,0,.69-5.66.93.93,0,0,0-.92.25Z"/><path class="cls-12" d="M129.84,108.95a2,2,0,0,0-.1.31l-.65,2.39a.36.36,0,0,1-.09.18c-.12.09-.22-.15-.25-.34a10.68,10.68,0,0,0-.55-2c-.08-.2-.24-.42-.36-.28a.52.52,0,0,0-.09.26,14.79,14.79,0,0,0-.13,2.36,9.53,9.53,0,0,0,.1,1.75c.22,1.2,1.12,1.72,1.87,1A3.48,3.48,0,0,0,130,113a26.22,26.22,0,0,0,.48-4.38.59.59,0,0,0-.63.19Z"/><path class="cls-12" d="M120.17,110.38a2,2,0,0,0-.1.31l-.65,2.39a.36.36,0,0,1-.09.18c-.12.09-.22-.15-.25-.34a10.68,10.68,0,0,0-.55-2c-.08-.2-.24-.42-.36-.28a.52.52,0,0,0-.09.26,14.79,14.79,0,0,0-.13,2.36A9.53,9.53,0,0,0,118,115c.22,1.2,1.12,1.72,1.87,1a3.48,3.48,0,0,0,.45-1.51,26.22,26.22,0,0,0,.48-4.38.59.59,0,0,0-.63.19Z"/><path class="cls-12" d="M111.39,113.3c-.3,0-.55.45-.84.34a.5.5,0,0,1-.23-.31l-.26-.67a.82.82,0,0,0-.4-.53.18.18,0,0,0-.21,0c-.11.14-.06.44-.12.61a3.42,3.42,0,0,0-.14.44,10.35,10.35,0,0,0,0,1.52,9.53,9.53,0,0,0,.1,1.75c.22,1.2,1.12,1.72,1.87,1a3.48,3.48,0,0,0,.45-1.51,6.89,6.89,0,0,0,.19-2.07c0-.23-.1-.5-.33-.54Z"/><path class="cls-12" d="M99.74,113.51l.06.26a1.28,1.28,0,0,1,0,.5.46.46,0,0,1-.3.37.54.54,0,0,1-.49-.17c-.13-.13-.23-.28-.37-.4a1.76,1.76,0,0,0-1-.29,1.08,1.08,0,0,0-.43,0,.37.37,0,0,0-.26.31c0,.18.16.31.33.38a1.53,1.53,0,0,1,.48.22c.37.34.2,1.37.29,1.86.22,1.2,1.12,1.72,1.87,1,.59-.61.82-2.21,1-3a3.51,3.51,0,0,0,0-1.66,1.48,1.48,0,0,0-1.18-1.06A3.27,3.27,0,0,0,99.74,113.51Z"/><path class="cls-13" d="M180.34,134.56c-.36,2.21-16.71,9.27-16.53,4.93C164.18,130.42,181.67,126.32,180.34,134.56Z"/><path class="cls-14" d="M178.53,136.29a36.83,36.83,0,0,1-7.74,3.56,14.12,14.12,0,0,1,2.43-3c2.32-2.23,4.8-3.41,5.54-2.64C179.12,134.58,179,135.35,178.53,136.29Z"/><path class="cls-15" d="M88.7,143.62s5.18-1,5.27.27C94.24,148.2,86.54,146.12,88.7,143.62Z"/><path class="cls-15" d="M154.85,140.38c.14.62,2.42.77,2.83.61,1-.39,2.81,0,2.85-1.7C160.53,139.15,154.13,137.24,154.85,140.38Z"/><path class="cls-15" d="M152.08,141.12c-1.05-.06-2.81.45-3.56-.38-.32-.36-.23-1.19,0-2C153.18,137.28,155.65,141.33,152.08,141.12Z"/><path class="cls-15" d="M145.67,140.84a7.22,7.22,0,0,0-3,.93c-2.49,1.89.16,4.22,2.06,2.7.82-.65,0,.7,1.29-1.11.21-.29.54-.15,1.34-1,.43-.44.62-1.35.2-1.75C147.48,140.6,147.22,139.48,145.67,140.84Z"/><path class="cls-15" d="M125.72,144.87c-.05-.07-8.13-2.23-8.5-.41C116,150.62,128.71,148.8,125.72,144.87Z"/><path class="cls-15" d="M113.88,144.09c0-.07-7.07-2.22-7.39-.39C105.38,149.89,116.47,148,113.88,144.09Z"/><path class="cls-15" d="M96.57,143.5c.06-.06,7.8-1.32,7.93.37C104.94,149.6,93.33,146.82,96.57,143.5Z"/><path class="cls-13" d="M115.64,115.83c-.55.18-1.15,1-1.29,2.77-.49,6-1.34,22.45-.18,24.66.55,1.05,10.1,4.63,14.17,1.57,1.14-.85-3.11-24.77-3-28.48,0-.92-.61-1.4-1.57-1.61s-2.46.62-3.75.8C118,115.84,116.19,115.64,115.64,115.83Z"/><path class="cls-13" d="M135.38,114.88c-3.07-1.7-6.65-1.84-10.58.31-.55.3.54,1.13.38,3-.53,6.22,1.88,24.38,3.16,26.68.61,1.09,6.42,2.05,11.57-.34,3.29-1.52-4.1-22-3.94-28.3A1.36,1.36,0,0,0,135.38,114.88Z"/><path class="cls-16" d="M129.5,113.65c2.2.27,4-.61,6,15.53,1.51,12.6,6.6,14.59.61,16.52a16,16,0,0,0,3.82-1.2c3.29-1.52-4.1-22-3.94-28.3a1.36,1.36,0,0,0-.59-1.31A9.86,9.86,0,0,0,129.5,113.65Z"/><path class="cls-13" d="M106.7,116.25c-.47.18-1,1-1.09,2.67-.42,5.77-1.18,21.56-.21,23.69.46,1,6.46,4.39,9.88,1.44.55-.47.68-1,.7-2.36.08-5.66-.59-19.51-.47-24.43C115.58,114.43,107.8,115.83,106.7,116.25Z"/><path class="cls-16" d="M105,131a4.27,4.27,0,0,0,.66,0c.43-2.51-.66-12.6,1.24-14.17s6.2-1,6.85.14c1,1.66,2.26,21.21,0,24.65-.26.39-1.48,2.9-3,2.9a11.86,11.86,0,0,1-5-1.48c1.49,1.28,6.47,3.56,9.47,1,.55-.47.68-1,.7-2.36.08-5.66-.59-19.51-.47-24.43.07-2.83-7.71-1.43-8.81-1-.47.18-1,1-1.09,2.67C105.41,121.58,105.15,126.39,105,131Z"/><path class="cls-13" d="M105.41,117.32a10,10,0,0,0-9.7.15A2.83,2.83,0,0,0,94.45,120c-.47,5.4-1.67,23.64.6,24a29.61,29.61,0,0,0,10.73-.42c.76-.14.79-.93.8-2.2.06-5.29-.77-18.26-.65-22.87A1.18,1.18,0,0,0,105.41,117.32Z"/><path class="cls-17" d="M102.15,116.24a10.21,10.21,0,0,0-5.33.7c-.11,1-1,1.52.3,3.49s2.4-2.69,4.88-1.91C102.28,118.63,102.32,117.49,102.15,116.24Z"/><path class="cls-16" d="M105.41,117.32a9.66,9.66,0,0,0-2.58-1c.91.66,1.82,1.85,1.91,4.34.4,11.81,3.21,17.87-1.38,21.8-1.31,1.12-3.23.86-6.11,1.7a32.56,32.56,0,0,0,8.53-.67c.76-.14.79-.93.8-2.2.06-5.29-.77-18.26-.65-22.87A1.18,1.18,0,0,0,105.41,117.32Z"/><path class="cls-13" d="M81.22,122.84c-.79,5,3.85,18.8,5.12,20.68.6.89,3.41,1.3,7.79.41,2.53-.51-.49-21,1-25.37.14-.41-.35-.87-.87-.92-1.13-.11-3.24.72-5.52,1.21-1.56.33-3.08,0-4.41.7C82.66,120.4,81.43,121.51,81.22,122.84Z"/><path class="cls-16" d="M85.55,141.9a10.76,10.76,0,0,0,.79,1.62c.6.89,3.41,1.3,7.79.41,2.53-.51-.49-21,1-25.37.14-.41-.35-.87-.87-.92-1.13-.11-3.24.72-5.52,1.21l-.17,0c2.32-.12,4.09-1.23,4.79,2.1,1.25,6,.82,11,1.17,16.21.21,3.14.83,5.38-3.56,6.31a11.89,11.89,0,0,1-3.54.2c-1-.13-.83-2.6-1.42-3.58A15,15,0,0,0,85.55,141.9Z"/><path class="cls-13" d="M82.66,120.42c-2.81-1.44-13.64,4.24-14,8.36-.42,4.66,5.54,11.83,6.58,13.56.49.82,5.8,2,11.11,1.19.68-.1-3.31-17.68-3.19-22.12A1,1,0,0,0,82.66,120.42Z"/><path class="cls-17" d="M77.89,121a23.76,23.76,0,0,0-6.47,3.77,7.92,7.92,0,0,1,1.07,1.36c1.72,2.67.1-2.34,6.18-2.79C80,123.26,79.54,121.93,77.89,121Z"/><path class="cls-16" d="M71.38,124.83c-1.53,1.3-2.61,2.7-2.73,3.95-.42,4.66,5.54,11.83,6.58,13.56.27.44,2,1,4.29,1.26a2.88,2.88,0,0,0-2.33-1c-2-.25-3.25-4.11-4.74-7.44-1.1-2.45-2.51-4.45-2.56-5.31C69.68,126.59,70.55,126.18,71.38,124.83Z"/><path class="cls-13" d="M134.42,114.41c-1.91,2.72,4.61,25.79,6.25,28.73.19.35.91,1.17,1.4.63,1.59-1.73,1.36-2.5,4.37-2.44a2.37,2.37,0,0,0,2.08-2.41c0-3.54,3.75-12.45,2.68-18.69-.77-4.51-4.73-7.12-4.68-9.35C146.61,107.65,135.27,113.21,134.42,114.41Z"/><path class="cls-16" d="M140.38,142.52c.11.25.21.46.29.62.19.35.91,1.17,1.4.63,1.17-1.27,1.35-2,2.58-2.31h0c-.64,0-.53-.19-2.17,1.1-.46.36-1.15,1.24-1.63.57Z"/><path class="cls-16" d="M139.29,111.62c3.14-.46,6.38-1.4,6.18,2.41s2.29,20.93,1.79,26.16c-.09,1-.83,1-1.26,1.14h.44a2.37,2.37,0,0,0,2.08-2.41c0-3.54,3.75-12.45,2.68-18.69-.77-4.51-4.73-7.12-4.68-9.35,0-1.84-3.64-.82-7,.62l-.27.12Z"/><path class="cls-13" d="M157.3,107.5a9.46,9.46,0,0,0-5.65-.51c-4.25,1-7.84,1.88-5.94,4.19,2.43,2.95.9,28.52,3,28.76.94.11,1.89-.15,2.54-.05,1.17.19,1.76.71,2.24.72.81,0,1.54-.65,1.62-2,.32-5,5.31-23.57,5.45-28.88C160.53,109.12,157.69,107.7,157.3,107.5Z"/><path class="cls-17" d="M154.74,106.84a9.78,9.78,0,0,0-3.09.16,32.35,32.35,0,0,0-4.62,1.29c4,5.66,7.7-.81,7.71-.95S154.74,107,154.74,106.84Z"/><path class="cls-16" d="M157.3,107.5a5.11,5.11,0,0,0-1.22-.44c2.84,2.59,2.42,6.34,1.46,10.17s-3.17,21.25-4.37,22.23c-.57.47-1.22.26-2.16.14s-1.36.4-2.82-.63q0,.13,0,.25c.14.44.3.69.49.71.94.11,1.89-.15,2.54-.05,1.17.19,1.76.71,2.24.72.81,0,1.54-.65,1.62-2,.32-5,5.31-23.57,5.45-28.88C160.53,109.12,157.69,107.7,157.3,107.5Z"/><path class="cls-13" d="M174,122.11c-3.07-1.7-8.92-15.48-12.85-13.34a3.16,3.16,0,0,0-1.88,2.74c-.53,6.22-5.92,26.06-4.64,28.36.06.1,1.51-.42,3.46-.55.89-.06,1.86.68,2.87.33s1.2-1.63,2.51-3C168.23,131.77,174.79,122.54,174,122.11Z"/><path class="cls-16" d="M166.5,112.12c.95,1.53,3,5,3.4,5.76.74,1.24.43,5.05-1.26,8.26-1.86,3.53-4.8,7.1-5.14,9.23-.17,1.05-.88,1.53-1.44,3.2a10,10,0,0,1,1.37-1.89c4.79-4.9,11.35-14.13,10.52-14.56C172.13,121.1,169.31,115.78,166.5,112.12Z"/><path class="cls-13" d="M171,120.74c-1.33,6.1-7.69,12.73-6.71,15.18.46,1.16,6.47.68,9.88-2.48.64-.6,5.07-3.59,4.41-4.9C174.08,119.61,171,120.68,171,120.74Z"/><path class="cls-16" d="M164.43,134.21a2.56,2.56,0,0,0-.12,1.71c.46,1.16,6.47.68,9.88-2.48.64-.6,5.07-3.59,4.41-4.9q-.3-.6-.6-1.15c-.18,5.22-11,10.57-13,8.5A2.81,2.81,0,0,1,164.43,134.21Z"/><path class="cls-18" d="M177.77,127a20.41,20.41,0,0,0-3.43-4.74c-1.65,3.21-4.2,7.76-1.7,8,.56.06,1.21-1.89,4-2.49A2,2,0,0,0,177.77,127Z"/><path class="cls-13" d="M67.61,128.08c-1.9.65-5,1.86-4.61,4.49.29,1.8,3.82,6.74,8.21,9.43,1.89,1.16,3.89,1.32,4.23.54.45-1-5.68-9.94-6.27-13.62C69,127.82,68.53,127.76,67.61,128.08Z"/><path class="cls-16" d="M65.67,128.85c-1.54.75-3,1.89-2.67,3.72s3.82,6.74,8.21,9.43c1.89,1.16,3.89,1.32,4.23.54.1-.22-.12-.83-.53-1.67-.42,1.33-1.85,1.74-2.36,1.14-1-1.15-2-3.2-3.59-4.58a57.44,57.44,0,0,1-4.66-5.71C63.45,130.34,64.07,130,65.67,128.85Z"/><path class="cls-13" d="M69.74,142.78c.91,1,2.7,0,2-1C70,139.1,65.55,134.5,64,132.48c-.92-1.18-1.27.11-1.63,1.2-.63,1.88-2,3.52-.1,5.3C63.52,140.17,68.23,141.11,69.74,142.78Z"/><path class="cls-16" d="M69.74,142.78c.91,1,2.7,0,2-1l-.37-.54c0,.12-.11.45-.12.49-.17,1.19-1,1.15-1.53.46-3.29-4.3-9.56-2-7.53-8-.67,1.68-1.65,3.18.08,4.8C63.52,140.17,68.23,141.11,69.74,142.78Z"/><path class="cls-16" d="M78.37,120.85c1,.54,3.4-.87,3.65.77,3,19.44,7.5,20.27-6,21a.4.4,0,0,0-.21.1c1.61.73,6.06,1.43,10.51.78.68-.1-3.31-17.68-3.19-22.12a1,1,0,0,0-.48-1C81.8,120,80.2,120.21,78.37,120.85Z"/><path class="cls-16" d="M158.83,139.07c-1.25-.32-3.27,0-3.68-.38a2.88,2.88,0,0,1-.66-1.66,6.19,6.19,0,0,0,.1,2.84c.06.1,1.51-.42,3.46-.55.89-.06,1.86.68,2.87.33.84-.3,1.1-1.13,1.8-2.12l0-.08C161.5,138.34,161.33,139.71,158.83,139.07Z"/><path class="cls-17" d="M87.56,127.51c.38,2.18.92.74,1.29,4.33,0,.15,1.62,3.47,1.71-1.24,0-2.38.18-2.52-1.8-3.78C88.46,126.61,87.38,126.49,87.56,127.51Z"/><path class="cls-17" d="M99.32,126.58c.3-.93,2.4-.56,2.38.66-.06,3.23.74,4.35-2.43,3.9C97.91,130.94,99,127.51,99.32,126.58Z"/><path class="cls-17" d="M109.78,125.75c-1.24,2.37.08,2.1.43,5.7.11,1.1,1.39.18,1.32-2.29,0-.56,1.71-3.78-1.36-3.67A.64.64,0,0,0,109.78,125.75Z"/><path class="cls-17" d="M119.31,125.6c.21,1.69-.31.53.34,2.22,0,0,.11,3.59,1,2.51.49-.58-.1-2.42.43-3.82C121.75,124.75,119.81,123.88,119.31,125.6Z"/><path class="cls-17" d="M129,126.53c0,.61,1.3,3.76,1.41,5.38.15,2.31,3.46.42,1.26-5-.27-.66.7-2.44-1.64-2.25C129.49,124.72,129,125.95,129,126.53Z"/><path class="cls-17" d="M141.48,129.08c1.33.37.86-1.43,1.11-3.42.62-5-1.57-1.84-3-2.29C137.65,122.78,139.19,128.44,141.48,129.08Z"/><path class="cls-17" d="M152,117a4.88,4.88,0,0,1,1.51.31c.42.1-.76,2.2-.81,4.5,0,1.17,0,7.06-1.73,4.18-.49-.8,1.1-3.61-.2-6.33C150.08,118.2,150.92,117.09,152,117Z"/><path class="cls-17" d="M163.47,120.1c1.75,2,.36,2.46-.83,4.79-.09.18-2.45,2.38-.89-1.58C162.91,120.38,161.41,119.29,163.47,120.1Z"/><path class="cls-17" d="M78,129.38c-4.51,0,.25,5.66.94,5.07.1-.09.38-2.37.8-3.36C80.53,129.34,79.09,129.29,78,129.38Z"/><path class="cls-17" d="M69.62,136c.25.51,1.11,2,1.14.54,0-.84-.77-1.1-.82-2.55,0-.18-.66-1.55-1.4-.51C68.06,134.21,69.33,135.42,69.62,136Z"/><path class="cls-17" d="M66.77,137.82c-.3-.81-.87-1-1.26-.91C64.22,137.17,67.37,139.45,66.77,137.82Z"/><path class="cls-15" d="M65,136.45c-.16-.13-.67-.6-.61-.06,0,.28-.41.82.25.73C64.77,137.11,65.31,136.67,65,136.45Z"/><path class="cls-15" d="M69.08,132c-.21-.32-.91.1-1.14.31-.84.77.05,1,.14.82.2-.52.94-.53,1.05-.77A.77.77,0,0,0,69.08,132Z"/><path class="cls-15" d="M74,127.89c.65,0,1.49-2.25,4.16-1.55,1.72.45,3.57-1.71.1-1.68C76.37,124.67,74.09,125.74,74,127.89Z"/><path class="cls-15" d="M86.81,124.14c1.37-.66,2.76.58,3.12.84.58.41,1.75-.09,1-1-.41-.47,1.14-1.92-1.75-1.6a3.71,3.71,0,0,1-1.84.54C86.89,122.94,86.18,124.44,86.81,124.14Z"/><path class="cls-15" d="M101.82,122.78c.48.34.8.17.69-.87,0-.43-1.23-2.77-2.53-1.37C95.95,124.87,100.15,121.59,101.82,122.78Z"/><path class="cls-15" d="M109.39,121.8c1.84-.34,3.81,1.18,3-.3-.15-.29-.82-.5-1.26-1C110.18,119.39,107.55,122.14,109.39,121.8Z"/><path class="cls-15" d="M118.49,119.89c-.24.65.12,1.1.86.67,1.43-.84,3.24.89,2.75-.35S119.27,117.77,118.49,119.89Z"/><path class="cls-15" d="M128,119.86c-.23.38-1.51-.62,0-2.05.15-.14.9.32,2-.33s1.78.93,2,1.68C132.51,120.66,129.16,117.83,128,119.86Z"/><path class="cls-15" d="M137.18,117.93c.22.51-.76,1.19.26,1.73.2.1.81-.27,1.16-.13.67.26,2.73-.08,4.43-1.43.35-.27,1-.65.11-1.55s-4,.46-5.26.54C137.51,117.11,136.95,117.39,137.18,117.93Z"/><path class="cls-15" d="M148.88,114.49c.25.7.89.35,1.68,0a6.67,6.67,0,0,1,3.42-.23c.94.16,1.4.91,1.56,0,.74-4.08-2-3.47-6-1.92C149.12,112.52,148.73,114.09,148.88,114.49Z"/><path class="cls-15" d="M162.43,116.89c.47.22,1.13.3,1.61.52s1,.61,1-.24a3.81,3.81,0,0,0-.49-2.14C163.62,113.72,161.49,116.44,162.43,116.89Z"/><path class="cls-15" d="M80.88,135.3a15.14,15.14,0,0,0-.76,2.94c0,.12-.77.83.4.74.65-.05.1-1.55,1-2.33.24-.21.67-2,.32-2C80.74,134.61,80.85,135.12,80.88,135.3Z"/><path class="cls-15" d="M91.17,136.35s.84.75-.62.78-.6.74-1.9-.75c-.09-.1-.46-1.18-.17-1.41C88.91,134.61,89.56,136.55,91.17,136.35Z"/><path class="cls-15" d="M71.18,137c-.68,1.5.19.21.25,1.47,0,0,.71.34.34-.26C71.71,138.16,71.36,136.65,71.18,137Z"/><path class="cls-15" d="M67.36,138.3c-.63.84.56,1.26.55.92C67.9,138.67,67.47,138.15,67.36,138.3Z"/><path class="cls-15" d="M98,137.1c.08.35,1,1.34,1.68.19.35-.6,1.17-.15,2.24-.63s1.75-2.42-.55-2C97.18,135.43,96.95,132.55,98,137.1Z"/><path class="cls-19" d="M111.42,135.45c.31-.25,2.13-1.25.31,1.22-.35.47-1,2.57-1.12,2.34-.6-1,.26-1-.83-2.08,0,0-.47-1.33,0-1.32A1.31,1.31,0,0,0,111.42,135.45Z"/><path class="cls-15" d="M119.78,134.25c1,1.21,1.92,0,2.08,2.13,0,.1.5,1.41.17,1.51-.09.26-1.89-1.9-2-2.22S118.94,134.38,119.78,134.25Z"/><path class="cls-15" d="M133.78,136.53c-.33,2-4.16.3-1.58,3.54.5.63,1.4-1.89,1.88-2.58C135.08,136.05,133.94,135.56,133.78,136.53Z"/><path class="cls-15" d="M141.28,133c-1.29-.3,1.24,4.12,3.61,1.06.4-.52.15-2.21-.34-1.55S143.23,133.5,141.28,133Z"/><path class="cls-15" d="M153.12,128.64c-1.68,2.85-3.15-.79-2.64,1.6.08.4,1.1,1,1.08,2.25s.43-1.78,1.19-2C153.8,130.3,153.68,127.7,153.12,128.64Z"/><path class="cls-19" d="M162.55,128c-1.09.71-2.1.56-2.52,1.09s-.88,2.87,1.17,1.71c.89-.5,2.27-2.62,2.11-3.08C163.19,127.43,163,127.74,162.55,128Z"/><path class="cls-20" d="M81.54,137.85a8.28,8.28,0,0,0-.12,1.65c.8,0,.48-.9.7-1.65.13-.44-.5-.33-.52-.12Z"/><path class="cls-20" d="M91,137.61c-.57.17-1.78-.07-.79,1.09C90.51,139.09,92,137.29,91,137.61Z"/><path class="cls-20" d="M68.26,139.46c0,.46,0,.15.34.47.16.14.19-.33,0-.51C68.56,139.42,68.27,138.95,68.26,139.46Z"/><path class="cls-20" d="M100.52,137.62c-.48.73-2,1.05.41,1.19C101.55,138.85,102.57,137.66,100.52,137.62Z"/><path class="cls-20" d="M112.11,138c-.14.51-1,1.72-.12,1.4,0,0,1.55-1.93.15-1.57Z"/><path class="cls-20" d="M120.73,137.88c.33.7,1.75.84.87,1.9,0,0-.24.8-.79.07,0,0-.64-2.09-.4-2.11A.34.34,0,0,1,120.73,137.88Z"/><path class="cls-20" d="M134.24,139.24c-.05,0-2.41,3.94.35.81C134.89,139.69,135.26,138.35,134.24,139.24Z"/><path class="cls-20" d="M144.44,135.38c-.23.84-1.8.42-1.23,1.25,0,0,1.52.68,1.49-.55,0,0,.57-1.12-.2-.87Z"/><path class="cls-20" d="M152.43,132.42c-.17.33-1.43,1.76-.32,1.73C152.64,134.13,152.86,131.57,152.43,132.42Z"/><path class="cls-20" d="M161,131.92c-1.18.67-.24.32-.71.93-.1.14-.34.11-.26.5.18,0,.57-.41.94-.56C161.69,132.5,161.25,131.81,161,131.92Z"/><path class="cls-20" d="M72.14,138.76c-.14.43.09.4.22.77.2.59.05-.13.07-.18.08-.23.17-.46-.1-.63A.12.12,0,0,0,72.14,138.76Z"/><path class="cls-17" d="M61.79,135.07c1.31,1.47,3.12,2.6,2-.53a2.22,2.22,0,0,0-1.31-1.33l-.16.47C62.19,134.16,62,134.62,61.79,135.07Z"/><path class="cls-17" d="M61.79,135.07l.1.11a8.73,8.73,0,0,1,.28-1l-.06.16h0l-.06.14h0l-.16.38h0v0l-.05.13v0Z"/><path class="cls-13" d="M64.26,139.25c.92.26,8,3.69,3.33,3.44-1.73-.09-4.48.49-5.37-1.08C60.41,138.42,61.51,138.48,64.26,139.25Z"/><path class="cls-17" d="M112.25,115.54a20.36,20.36,0,0,0-3.62.28,11.3,11.3,0,0,1,.08,1.79c0,1.84-.42,1.91,1.56,1.79.49,0,.11-.69,1.29,0C111.8,119.54,112.16,117.38,112.25,115.54Z"/><path class="cls-17" d="M91.12,118.25c-.75.21-1.56.43-2.39.61-1.2.26-2.37.13-3.46.36a3.29,3.29,0,0,0,1.37,2.2c2.27,1.58.84-.18,4.1,0C91.38,121.48,91.14,119.74,91.12,118.25Z"/><path class="cls-17" d="M91.12,118.25h-.25l-.07,0h-.22l-.09,0h0l-.07,0h0l-.06,0h-.07l-.07,0H89l-.07,0H88.8l-.08,0h-.17c1,0,1.83-.27,2.57-.27C91.12,118.5,91.12,118.37,91.12,118.25Z"/><path class="cls-16" d="M118.19,115.7c3.3.37,4.72-1.69,5.74,2.6,1.92,8.1,2.59,22.17,0,26-1.25,1.83-7.63.1-7.74.09,3.14,1.29,9.17,2.67,12.19.41,1.14-.85-3.11-24.77-3-28.48,0-.92-.61-1.4-1.57-1.61s-2.46.62-3.75.8A17.72,17.72,0,0,1,118.19,115.7Z"/><path class="cls-17" d="M130.88,113.6a10.74,10.74,0,0,0-4,.66c.56,2,1,3.89,3.5,1.92C130.89,115.74,131,114.68,130.88,113.6Z"/><path class="cls-17" d="M142.09,110.53a35.85,35.85,0,0,0-5.86,2.62,6.43,6.43,0,0,0,2.08,1.94c.93.43,1.32,1.29,3.24.3C142.7,114.8,142.34,112.17,142.09,110.53Z"/><path class="cls-17" d="M142.09,110.53c-.51.17-1,.36-1.55.57h0l-.39.16-.1,0-.08,0h0l-.08,0-.1,0h0l-.07,0h0l-.06,0-.27.12h0c1-.15,2-.34,2.9-.41C142.16,111,142.12,110.74,142.09,110.53Z"/><path class="cls-17" d="M167.46,113.43a20.35,20.35,0,0,0-3.4-4c-.94,1.78-2,2.15,1.85,4.73C166.66,114.71,167.07,114.25,167.46,113.43Z"/><path class="cls-17" d="M120.87,115.35a6.47,6.47,0,0,1-.86.19,20,20,0,0,1-2.5.17c.13,1.25.62,2.81,1.81,2,.88-.57,2.94,1.68,1.82-1.89A2.6,2.6,0,0,0,120.87,115.35Z"/><path class="cls-17" d="M129.5,113.65a8,8,0,0,1,1.39.2q0-.12,0-.25A9.89,9.89,0,0,0,129.5,113.65Z"/><path class="cls-21" d="M166.5,112.12c.24.39.55.9.89,1.47l.08-.16-.43-.6h0l-.12-.16,0,0-.09-.13,0-.06-.09-.12,0,0-.09-.12Z"/><path class="cls-17" d="M108.66,116.07a8,8,0,0,1,3.56.06c0-.2,0-.4,0-.59h-1.81l-.29,0h-.94l-.12,0h-.32l-.1,0h-.05C108.64,115.9,108.65,116,108.66,116.07Z"/><path class="cls-17" d="M66.7,128.4a11.21,11.21,0,0,0-1.79.85,16.82,16.82,0,0,1,1.89,2.3c.78,1.41,3.18.06-.05-3.1Z"/><path class="cls-17" d="M64.91,129.26l.07.09.69-.5C65.41,129,65.16,129.11,64.91,129.26Z"/><path class="cls-15" d="M149.12,146.85c-.46-1.19-.67-3.62-3.36-4.9-2.32-1.11-1.91,1.09-.11,2.94a7,7,0,0,0,2.66,1.39C148.59,146.38,149.58,148,149.12,146.85Z"/><path class="cls-22" d="M149.12,146.85c0-.1-.08-.22-.12-.34h0a1.07,1.07,0,0,0-.27.14C149,147.11,149.44,147.68,149.12,146.85Z"/><path class="cls-15" d="M151.57,143.6s.24,4.11.73,1.94c.25-1.09,0-1.29.19-3.49C152.74,139.69,148.16,137.94,151.57,143.6Z"/><path class="cls-22" d="M151.73,145.19c.12.86.31,1.54.58.36,0-.11,0-.21.06-.3a.81.81,0,0,0-.63-.05Z"/><path class="cls-15" d="M156.25,141.75c-.15.56.18.91.16,1.41,0,1.2-.34,2.26,0,1.73a10.79,10.79,0,0,0,1.73-4.42C157.1,139.8,157.13,138.55,156.25,141.75Z"/><path class="cls-22" d="M156.29,144.51c-.06.47-.09.69.08.38l.17-.29-.15-.06Z"/><path class="cls-17" d="M118.19,115.7a11.14,11.14,0,0,0,2.81-.13l-.13-.22h-2.68Z"/><path class="cls-20" d="M170.68,130.54c-.46.39-1.72,1.34-.32,1.65,1,.23.54-.83,1-1.59.28-.44-.3-.72-.62-.11Z"/><path class="cls-23" d="M389.6,6.36l3.22,13s27.33-22.5,22.68,12.44c0,0-6.91,36.19-9.14,39.55l3.35,11.17S441-3.93,406.25.14C406.25.14,396.18,1.81,389.6,6.36Z"/><path class="cls-24" d="M389.6,6.36l3.22,13s27.33-22.5,22.68,12.44c0,0-6.91,36.19-9.14,39.55l3.35,11.17S441-3.93,406.25.14C406.25.14,396.18,1.81,389.6,6.36Z"/><path class="cls-25" d="M295.8,48.62,266,77.76l34.77-17.57S302.32,54.1,295.8,48.62Z"/><path class="cls-26" d="M295.8,48.62,266,77.76l34.77-17.57S302.32,54.1,295.8,48.62Z"/><path class="cls-27" d="M295.8,48.62,266,77.76l34.77-17.57S302.32,54.1,295.8,48.62Z"/><path class="cls-28" d="M389.88,6.21l28.06,106.56s1.4,5.2-5.9,9.53c0,0-21.5,18.59-41.47,21.21,0,0-6.15,2.14-11.3-5.57l-65.8-79.65Z"/><path class="cls-29" d="M360.43,106.67c-14.37-20-26.79-41.35-38.72-62.86l-.38-.68L308,50.32c.84,1.66,1.67,3.33,2.53,5,3.4,6.61,7.3,12.9,11.31,19.15,13.6,21.25,28.92,41.47,46.66,59.46q4.21,4.27,8.62,8.23a7.41,7.41,0,0,1,.81-.21,8.67,8.67,0,0,1,1.4-.54,52.24,52.24,0,0,0,6.92-2.57l.9-.51A255,255,0,0,1,360.43,106.67Z"/><path class="cls-30" d="M266,77.76l66.46,28s-12-36-32.27-46Z"/><ellipse class="cls-31" cx="341.3" cy="31.77" rx="54.89" ry="13.04" transform="translate(24.47 162.59) rotate(-27.75)"/><path class="cls-32" d="M346.78,42.17c-12.89,6.78-25.62,12-35.85,14.59-11.07,2.84-16.07,1.85-17.06,0s1-6.56,9.64-14.08c8-6.94,19.43-14.5,32.32-21.28s25.62-12,35.85-14.59c11.07-2.84,16.07-1.85,17.06,0s-1,6.56-9.64,14.08C371.15,27.83,359.67,35.39,346.78,42.17Z"/><g class="cls-33"><path class="cls-12" d="M354.21,81.36c.33-.13.66-.26,1-.37A2.24,2.24,0,0,1,357,81a.5.5,0,0,1,.23.26.41.41,0,0,1-.25.46,1,1,0,0,1-.56,0,4.72,4.72,0,0,0-1.75-.1,2,2,0,0,0,.76.45c-.1,0-.58.16-.72.17a2.13,2.13,0,0,1-.77-.11c-.17-.06-.58-.18-.54-.38S354.05,81.42,354.21,81.36Z"/><path class="cls-12" d="M358.61,72a16.84,16.84,0,0,1-1.41,2.54,1.25,1.25,0,0,1-.36.39,1.3,1.3,0,0,1-.57.14c-.91.08-1.85.22-2.76.22.75-.52,1.63-.9,2.41-1.39S358.16,72.72,358.61,72Z"/><path class="cls-12" d="M351.07,62.4a5.59,5.59,0,0,1,1.94.83.9.9,0,0,1-.76.78.48.48,0,0,0-.29.09c-.15.16.06.41.27.48a1.48,1.48,0,0,0,.7.07.38.38,0,0,1-.39.44,1.79,1.79,0,0,0-.34-.06c-.22,0-.31.34-.19.53a.72.72,0,0,0,.59.27.78.78,0,0,1,.38.07.42.42,0,0,1,.14.49,1,1,0,0,1-.33.43,3.4,3.4,0,0,1-2.16.8,1.25,1.25,0,0,1-.84-.24c-.56-.49-.21-1.28-.24-1.89s-.35-.89-.47-1.41C348.81,62.89,350,62.25,351.07,62.4Z"/><path class="cls-12" d="M340.29,53.12A4,4,0,0,1,341.87,51a.19.19,0,0,1,.08,0c.09,0,.14.12.14.21a2.59,2.59,0,0,1-.33,1.11,15.23,15.23,0,0,0-.57,1.42c-.06.17-.07.43.11.47s.21-.06.28-.14l2.11-2.1c.15-.14.37-.3.53-.17a.41.41,0,0,1,.08.41,3.76,3.76,0,0,1-1.58,2.4c-.36.24-.76.42-1.13.67a5.37,5.37,0,0,1-1.08.71,1.07,1.07,0,0,1-.83,0c-.32-.17-.22-.33-.11-.61C339.86,54.58,340,53.84,340.29,53.12Z"/><path class="cls-12" d="M295.7,4.68a2,2,0,0,1,0,.44L295,8.39a.42.42,0,0,0,0,.29c.13.22.46.06.65-.11A10.69,10.69,0,0,1,298,7c.27-.14.68-.22.8.06a.54.54,0,0,1,0,.37,12.85,12.85,0,0,1-1.44,2.7,8.36,8.36,0,0,1-1.4,1.79,2.31,2.31,0,0,1-3.73-.88c-.27-.62.13-1.48.32-2.1a23.07,23.07,0,0,1,2.29-5.24c.38.19.8.44.89.86A.83.83,0,0,1,295.7,4.68Z"/><path class="cls-12" d="M304.09,15.37a2.31,2.31,0,0,1-.09.42l-.85,3.12a.45.45,0,0,0,0,.27c.08.19.37,0,.54-.17a12.62,12.62,0,0,1,2-1.73c.24-.16.59-.28.65,0a.62.62,0,0,1-.07.35,16.9,16.9,0,0,1-1.48,2.68,10.92,10.92,0,0,1-1.34,1.83c-1.11,1.14-2.59,1-3-.43a4.11,4.11,0,0,1,.49-2,30,30,0,0,1,2.45-5.15c.29.14.61.32.64.7A.83.83,0,0,1,304.09,15.37Z"/><path class="cls-12" d="M311,24.11a2,2,0,0,1-.08.32l-.73,2.37a.36.36,0,0,0,0,.2c0,.14.26,0,.39-.15a10.68,10.68,0,0,1,1.52-1.37c.17-.13.43-.23.46,0a.52.52,0,0,1-.06.27,14.79,14.79,0,0,1-1.15,2.06,9.53,9.53,0,0,1-1,1.42c-.83.9-1.87.85-2.09-.2a3.48,3.48,0,0,1,.43-1.52,26.22,26.22,0,0,1,1.94-4c.2.09.42.22.43.5A.67.67,0,0,1,311,24.11Z"/><path class="cls-12" d="M318.4,30.49a2,2,0,0,1-.08.32l-.73,2.37a.36.36,0,0,0,0,.2c0,.14.26,0,.39-.15a10.68,10.68,0,0,1,1.52-1.37c.17-.13.43-.23.46,0a.52.52,0,0,1-.06.27,14.79,14.79,0,0,1-1.15,2.06,9.53,9.53,0,0,1-1,1.42c-.83.9-1.87.85-2.09-.2a3.48,3.48,0,0,1,.43-1.52,26.22,26.22,0,0,1,1.94-4c.2.09.42.22.43.5A.67.67,0,0,1,318.4,30.49Z"/><path class="cls-12" d="M324.25,37.66c.26.16.22.68.53.73a.5.5,0,0,0,.36-.14l.58-.43a.82.82,0,0,1,.62-.23c.07,0,.15.07.16.14s-.18.41-.23.58a3.42,3.42,0,0,1-.11.44,10.35,10.35,0,0,1-.78,1.3,9.53,9.53,0,0,1-1,1.42c-.83.9-1.87.85-2.09-.2a3.48,3.48,0,0,1,.43-1.52,6.89,6.89,0,0,1,.95-1.85c.14-.18.36-.37.56-.28Z"/><path class="cls-12" d="M334,44.08l-.19.19a1.28,1.28,0,0,0-.3.4.46.46,0,0,0,.05.48.54.54,0,0,0,.51.12c.18,0,.35-.11.53-.14a1.76,1.76,0,0,1,1,.31,1.08,1.08,0,0,1,.34.26.37.37,0,0,1,.05.4.45.45,0,0,1-.48.14,1.53,1.53,0,0,0-.52-.07c-.5.09-.9,1.05-1.24,1.42-.83.9-1.87.85-2.09-.2-.17-.84.49-2.3.8-3.06a3.51,3.51,0,0,1,.91-1.39,1.48,1.48,0,0,1,1.56-.27A3.27,3.27,0,0,1,334,44.08Z"/><path class="cls-13" d="M254.64,18.71c-.88,2.05,9.15,16.77,11.32,13C270.5,23.86,257.92,11,254.64,18.71Z"/><path class="cls-14" d="M255.23,21.14a36.83,36.83,0,0,0,4.63,7.15,14.12,14.12,0,0,0-.45-3.84c-.76-3.12-2.23-5.45-3.27-5.19C255.65,19.38,255.34,20.09,255.23,21.14Z"/><path class="cls-15" d="M327.19,75.42c0-.06-3.84-3.63-4.59-2.59C320.06,76.32,327.67,78.69,327.19,75.42Z"/><path class="cls-15" d="M273.05,37.27c-.45.45-2.45-.64-2.72-1-.65-.87-2.4-1.46-1.5-3C268.91,33.19,275.33,35,273.05,37.27Z"/><path class="cls-15" d="M275,39.38c.92.51,2.13,1.89,3.21,1.59.46-.13.84-.88,1-1.69C276.12,35.54,271.87,37.64,275,39.38Z"/><path class="cls-15" d="M280.55,42.57A7.22,7.22,0,0,1,282.62,45c1.1,2.93-2.39,3.47-3.19,1.18-.34-1-.38.59-.49-1.63,0-.36-.38-.42-.61-1.54-.13-.6.19-1.47.77-1.59C279.16,41.4,280,40.6,280.55,42.57Z"/><path class="cls-15" d="M295.25,56.65c.08,0,8.06,2.47,7.4,4.21C300.41,66.74,290.62,58.37,295.25,56.65Z"/><path class="cls-15" d="M305.67,62.33c.07,0,7.15,1.91,6.45,3.63C309.75,71.78,301.37,64.27,305.67,62.33Z"/><path class="cls-15" d="M320.6,71.1c0-.08-5.88-5.29-6.9-3.93C310.27,71.78,321.56,75.64,320.6,71.1Z"/><path class="cls-13" d="M319.31,37.52c.36.45.43,1.46-.39,3-2.8,5.33-10.88,19.68-13,20.93-1,.59-11-1.5-12.81-6.26-.5-1.33,15.88-19.26,17.79-22.44.47-.79,1.27-.85,2.19-.52s1.74,1.84,2.74,2.68C317.32,36.27,318.94,37.07,319.31,37.52Z"/><path class="cls-13" d="M303.15,26.16c3.5.21,6.6,2,8.77,5.92.3.55-1.06.66-1.91,2.29-2.88,5.54-14.64,19.59-17,20.85-1.1.6-6.52-1.7-9.59-6.48-2-3,15.26-16.43,18.48-21.8A1.36,1.36,0,0,1,303.15,26.16Z"/><path class="cls-16" d="M308.77,28.26c-2-.94-3.08-2.67-13.36,9.92C287.39,48,282,47,286.05,51.8a16,16,0,0,1-2.59-3.06c-2-3,15.26-16.43,18.48-21.8a1.36,1.36,0,0,1,1.2-.79A9.86,9.86,0,0,1,308.77,28.26Z"/><path class="cls-13" d="M326.63,42.67c.3.4.3,1.33-.51,2.83-2.73,5.1-10.55,18.84-12.5,20.12-.93.61-7.8.25-9.12-4.07-.21-.69,0-1.21.67-2.37,3-4.82,10.94-16.16,13.47-20.38C320.11,36.38,325.93,41.72,326.63,42.67Z"/><path class="cls-16" d="M320.16,56a4.27,4.27,0,0,1-.57-.33c1-2.35,7.31-10.29,6.54-12.63s-4.7-4.16-5.86-3.55C318.56,40.4,307,56.22,307,60.31c0,.47-.3,3.24.94,4A11.86,11.86,0,0,0,313,65.8c-1.94.28-7.37-.46-8.52-4.24-.21-.69,0-1.21.67-2.37,3-4.82,10.94-16.16,13.47-20.38,1.46-2.43,7.28,2.92,8,3.86.3.4.3,1.33-.51,2.83C324.87,47.86,322.52,52.06,320.16,56Z"/><path class="cls-13" d="M327.15,44.26a10,10,0,0,1,8.11,5.33,2.83,2.83,0,0,1-.28,2.77c-2.49,4.81-11.24,20.86-13.34,19.94a29.61,29.61,0,0,1-8.84-6.1c-.56-.52-.17-1.21.5-2.29,2.78-4.5,10.43-15,12.79-19A1.18,1.18,0,0,1,327.15,44.26Z"/><path class="cls-17" d="M330.48,45.09a10.21,10.21,0,0,1,4.13,3.45c-.41.86,0,1.81-2.13,2.79s-.59-3.55-3.1-4.22C329.09,47,329.67,46.05,330.48,45.09Z"/><path class="cls-16" d="M327.15,44.26a9.66,9.66,0,0,1,2.69.57c-1.12.07-2.53.59-3.93,2.64-6.66,9.76-12.28,13.38-10.51,19.15.51,1.65,2.27,2.46,4.25,4.7a32.56,32.56,0,0,1-6.85-5.13c-.56-.52-.17-1.21.5-2.29,2.78-4.5,10.43-15,12.79-19A1.18,1.18,0,0,1,327.15,44.26Z"/><path class="cls-13" d="M344.63,61.87c-2,4.68-13.32,13.82-15.4,14.73-1,.43-3.57-.73-6.8-3.82-1.86-1.79,11.64-17.45,12.74-22,.1-.42.76-.55,1.23-.31,1,.52,2.35,2.35,4,4,1.14,1.12,2.59,1.66,3.35,2.95C344.72,59,345.17,60.64,344.63,61.87Z"/><path class="cls-16" d="M330.77,75.65a10.76,10.76,0,0,1-1.53.95c-1,.43-3.57-.73-6.8-3.82-1.86-1.79,11.64-17.45,12.74-22,.1-.42.76-.55,1.23-.31,1,.52,2.35,2.35,4,4l.13.12c-1.9-1.34-2.8-3.23-5.17-.79-4.24,4.36-6.6,8.89-9.66,13.07-1.86,2.54-3.58,4.1-.37,7.24a11.89,11.89,0,0,0,2.88,2.06c.92.43,2.09-1.75,3.12-2.27A15,15,0,0,1,330.77,75.65Z"/><path class="cls-13" d="M344.7,59.06c3.15.29,9.25,10.88,7.36,14.56-2.14,4.16-11,7-12.81,7.93-.85.43-6-1.45-10-4.94-.53-.45,12.26-13.16,14.54-17A1,1,0,0,1,344.7,59.06Z"/><path class="cls-17" d="M348.42,62.12a23.76,23.76,0,0,1,3.45,6.64,7.92,7.92,0,0,0-1.63.58c-2.88,1.33,1.16-2-3.72-5.67C345.47,62.9,346.53,62,348.42,62.12Z"/><path class="cls-16" d="M351.88,68.82c.6,1.92.76,3.68.19,4.8-2.14,4.16-11,7-12.81,7.93-.46.23-2.18-.21-4.3-1.23a2.88,2.88,0,0,1,2.52.39c1.83.86,4.94-1.73,8-3.74,2.24-1.48,4.5-2.41,5-3.11C352.37,71.21,351.85,70.4,351.88,68.82Z"/><path class="cls-13" d="M304.2,26.27c.16,3.32-17.7,19.31-20.65,20.92-.35.19-1.4.5-1.52-.22-.42-2.31.19-2.84-2.39-4.4a2.37,2.37,0,0,1-.46-3.15c1.86-3,3.5-12.52,7.75-17.22,3.07-3.4,7.81-3.48,9-5.4C297.53,14,304.13,24.81,304.2,26.27Z"/><path class="cls-16" d="M284.13,46.83c-.23.16-.42.28-.58.36-.35.19-1.4.5-1.52-.22-.31-1.7-.06-2.44-.94-3.33h0c.52.39.55.12,1.25,2.09.2.55.31,1.66,1.07,1.35Z"/><path class="cls-16" d="M301.59,21.31c-2.41-2.07-4.64-4.6-6.51-1.27s-13.14,16.45-15.51,21.14a1.24,1.24,0,0,0,.45,1.63h0l-.38-.24a2.37,2.37,0,0,1-.46-3.15c1.86-3,3.5-12.52,7.75-17.22,3.07-3.4,7.81-3.48,9-5.4.95-1.58,3.51,1.25,5.54,4.25l.17.25Z"/><path class="cls-13" d="M288.58,8.18a9.46,9.46,0,0,1,5,2.6c3.07,3.1,5.61,5.79,2.77,6.72-3.63,1.19-16,23.61-17.89,22.71-.85-.41-1.51-1.14-2.12-1.4-1.09-.47-1.87-.34-2.28-.59-.69-.43-.95-1.37-.31-2.54,2.42-4.42,8.13-22.75,10.86-27.31C285,7.83,288.15,8.15,288.58,8.18Z"/><path class="cls-17" d="M291.1,9a9.78,9.78,0,0,1,2.53,1.79,32.35,32.35,0,0,1,3.21,3.56c-6.4,2.64-6.08-4.81-6-4.92Z"/><path class="cls-16" d="M288.58,8.18a5.11,5.11,0,0,1,1.26.28c-3.79.67-5.44,4.06-6.67,7.81S274.47,35.92,275,37.4c.23.7.89.87,1.75,1.28s.93,1.06,2.72,1l-.12.23c-.35.29-.62.42-.79.33-.85-.41-1.51-1.14-2.12-1.4-1.09-.47-1.87-.34-2.28-.59-.69-.43-.95-1.37-.31-2.54,2.42-4.42,8.13-22.75,10.86-27.31C285,7.83,288.15,8.15,288.58,8.18Z"/><path class="cls-13" d="M266.68,11.61c3.5.21,15.82-8.31,18-4.39a3.16,3.16,0,0,1,.12,3.32c-2.88,5.54-8.95,25.18-11.26,26.44-.1.06-1.06-1.16-2.63-2.32-.72-.53-1.93-.42-2.6-1.26s-.14-2-.53-3.85C266.36,22.84,265.76,11.53,266.68,11.61Z"/><path class="cls-16" d="M278.34,7.16c-1.62.79-5.21,2.66-6,3-1.28.65-3.06,4-3.35,7.65-.32,4,.25,8.57-.6,10.55-.42,1-.08,1.76-.5,3.47a10,10,0,0,0-.15-2.33c-1.42-6.7-2-18-1.09-17.93C268.77,11.73,274,8.75,278.34,7.16Z"/><path class="cls-13" d="M269.9,12c-2.14,5.87-.32,14.87-2.45,16.42-1,.73-5.83-2.89-7-7.38-.22-.85-2.36-5.74-1.1-6.49C267.92,9.43,269.92,12,269.9,12Z"/><path class="cls-16" d="M268.26,26.93a2.56,2.56,0,0,1-.81,1.51c-1,.73-5.83-2.89-7-7.38-.22-.85-2.36-5.74-1.1-6.49l1.12-.65c-2.65,4.5,3.65,14.83,6.44,14.14A2.81,2.81,0,0,0,268.26,26.93Z"/><path class="cls-18" d="M260.85,13.69a20.41,20.41,0,0,1,5.43-2.17c-.32,3.6-.61,8.8-2.86,7.7-.51-.25,0-2.25-2-4.24A2,2,0,0,1,260.85,13.69Z"/><path class="cls-13" d="M353.32,73.58c1.26,1.56,3.25,4.27,1.49,6.26-1.21,1.37-6.84,3.65-12,3.57-2.22,0-4-1-3.87-1.81.16-1.09,10.12-5.35,12.59-8.14C352.29,72.62,352.72,72.82,353.32,73.58Z"/><path class="cls-16" d="M354.54,75.26c.9,1.45,1.49,3.19.26,4.58s-6.84,3.65-12,3.57c-2.22,0-4-1-3.87-1.81,0-.24.54-.63,1.34-1.13-.35,1.35.63,2.46,1.38,2.22,1.44-.45,3.37-1.65,5.49-1.95a57.44,57.44,0,0,0,7-2.33C355.63,77.72,355.28,77.1,354.54,75.26Z"/><path class="cls-13" d="M343.65,84.86c-1.31.36-2.3-1.42-1.12-1.95,2.87-1.29,9.08-2.81,11.49-3.67,1.41-.5,1,.77.74,1.88-.47,1.92-.19,4-2.75,4.53C350.3,86,345.82,84.26,343.65,84.86Z"/><path class="cls-16" d="M343.65,84.86c-1.31.36-2.3-1.42-1.12-1.95l.6-.25c0,.11-.14.44-.16.48-.49,1.09.24,1.51,1,1.21,5.08-1.87,9.15,3.42,10.63-2.7-.33,1.77-.31,3.57-2.64,4C350.3,86,345.82,84.26,343.65,84.86Z"/><path class="cls-16" d="M348.1,61.72c-1.13-.08-2.4-2.55-3.5-1.31-13,14.8-17.19,13.11-6.2,21a.4.4,0,0,1,.13.2c-1.75-.25-5.88-2-9.3-5-.52-.45,12.26-13.16,14.54-17a1,1,0,0,1,.93-.57C345.67,59.15,346.9,60.2,348.1,61.72Z"/><path class="cls-16" d="M270.39,34c1.23.4,2.76,1.75,3.31,1.65a2.88,2.88,0,0,0,1.44-1A6.19,6.19,0,0,1,273.53,37c-.1.06-1.06-1.16-2.63-2.32-.72-.53-1.93-.42-2.6-1.26s-.33-1.54-.39-2.75l0-.08C268.52,32,267.93,33.23,270.39,34Z"/><path class="cls-17" d="M336.78,62.42c-1.49,1.63-1.17.13-3.41,3-.09.12-3.23,2.06-.78-2,1.24-2,1.2-2.23,3.54-2.23C336.5,61.18,337.47,61.66,336.78,62.42Z"/><path class="cls-17" d="M327.34,55.34c.24-1-1.73-1.75-2.36-.72-1.68,2.76-3,3.28,0,4.59C326.2,59.77,327.1,56.29,327.34,55.34Z"/><path class="cls-17" d="M318.95,49c-.22,2.67-1.19,1.73-3.42,4.58-.68.88-1.27-.59.11-2.64.31-.46.57-4.11,3.12-2.37A.64.64,0,0,1,318.95,49Z"/><path class="cls-17" d="M311,43.81c-1.08,1.31,0,.61-1.47,1.69,0,0-2,3-2.21,1.58-.1-.76,1.38-2,1.69-3.45C309.37,41.79,311.48,42.09,311,43.81Z"/><path class="cls-17" d="M302.29,39.4c-.35.5-3.11,2.48-4.07,3.79-1.36,1.87-3.15-1.5,1.6-4.89.58-.41.72-2.43,2.59-1C302.85,37.62,302.62,38.93,302.29,39.4Z"/><path class="cls-17" d="M290.39,34.88c-1.32-.4,0-1.67.89-3.48,2.13-4.52,2.31-.72,3.77-.32C297,31.61,292.66,35.57,290.39,34.88Z"/><path class="cls-17" d="M287.95,19.07a4.88,4.88,0,0,0-1.45-.55c-.41-.14-.54,2.27-1.73,4.23-.61,1-3.79,5.95-.77,4.46.84-.41,1-3.64,3.56-5.24C289,21.09,288.84,19.7,287.95,19.07Z"/><path class="cls-17" d="M276.62,15.52c-2.56.78-1.62,1.89-1.86,4.49,0,.2.8,3.32,1.6-.86C276.95,16.07,278.8,15.94,276.62,15.52Z"/><path class="cls-17" d="M343.81,69.09c3.83,2.39-3.24,4.65-3.51,3.78,0-.13,1-2.21,1.13-3.26C341.73,67.73,343,68.46,343.81,69.09Z"/><path class="cls-17" d="M347.36,79.23c-.48.3-2,1.09-1.25-.15.43-.72,1.23-.52,2.06-1.71.1-.15,1.38-1,1.45.32C349.66,78.52,347.94,78.86,347.36,79.23Z"/><path class="cls-17" d="M348.81,82.26a1.16,1.16,0,0,1,1.56-.1C351.32,83.08,347.44,83.32,348.81,82.26Z"/><path class="cls-15" d="M351,82c.2,0,.89-.15.54.27-.18.22-.09.91-.6.48C350.88,82.73,350.67,82.07,351,82Z"/><path class="cls-15" d="M350,76.07c.34-.16.72.58.8.88.29,1.1-.6.84-.55.62.11-.55-.51-1-.48-1.22A.77.77,0,0,1,350,76.07Z"/><path class="cls-15" d="M348,70c-.56-.34-.05-2.69-2.69-3.53-1.7-.54-2.1-3.35.82-1.47C347.74,66,349.1,68.13,348,70Z"/><path class="cls-15" d="M339.21,60c-.81-1.29-2.64-1-3.08-1-.71,0-1.42-1-.27-1.36.6-.18.06-2.24,2.34-.42a3.71,3.71,0,0,0,1.27,1.44C339.79,58.92,339.58,60.57,339.21,60Z"/><path class="cls-15" d="M327.26,50.79c-.59,0-.77-.28-.11-1.1.27-.34,2.52-1.68,2.87.19C331.1,55.7,329.31,50.69,327.26,50.79Z"/><path class="cls-15" d="M321.39,45.91c-1.37-1.27-3.85-1-2.41-1.89.28-.16,1,0,1.59-.16C322,43.45,322.77,47.18,321.39,45.91Z"/><path class="cls-15" d="M314.73,39.43c-.15.67-.69.87-1.08.11-.75-1.48-3.21-1-2.13-1.77S315.21,37.22,314.73,39.43Z"/><path class="cls-15" d="M306.75,34.33c0,.44,1.61.28,1.12-1.72,0-.2-.94-.21-1.56-1.37s-2-.17-2.61.33C302.47,32.58,306.82,32,306.75,34.33Z"/><path class="cls-15" d="M300,27.77c-.45.31,0,1.41-1.14,1.32-.22,0-.55-.66-.91-.73-.71-.14-2.27-1.53-3-3.58-.15-.42-.46-1.06.74-1.37s3.17,2.55,4.16,3.27C300.15,26.9,300.47,27.43,300,27.77Z"/><path class="cls-15" d="M291.95,18.6c-.59.45-.94-.18-1.41-.92a6.67,6.67,0,0,0-2.76-2c-.87-.37-1.67,0-1.33-.8C288,11,290,13,292.53,16.45,292.8,16.81,292.29,18.33,291.95,18.6Z"/><path class="cls-15" d="M279.22,13.37c-.52-.07-1.11-.35-1.63-.42-.67-.09-1.18,0-.71-.73a3.81,3.81,0,0,1,1.56-1.55C279.91,10.05,280.26,13.5,279.22,13.37Z"/><path class="cls-15" d="M338.25,72.57a15.14,15.14,0,0,1-.93,2.89c-.07.1.2,1.12-.73.41-.52-.39.74-1.36.39-2.51-.09-.3.51-2.07.81-1.88C338.74,72.07,338.37,72.44,338.25,72.57Z"/><path class="cls-15" d="M329,68s-1.11.18.11,1,.11.95,2,.39c.13,0,1-.75.9-1.1C331.83,67.7,330.24,69,329,68Z"/><path class="cls-15" d="M345.5,79.24c-.23,1.63-.27.08-1,1.11,0,0-.79-.09-.15-.4C344.46,79.9,345.56,78.81,345.5,79.24Z"/><path class="cls-15" d="M348.06,82.35c.08,1-1.15.76-1,.48C347.41,82.37,348.05,82.16,348.06,82.35Z"/><path class="cls-15" d="M322.79,64.91c-.26.25-1.57.59-1.52-.74,0-.7-.91-.75-1.55-1.73s-.18-3,1.54-1.39C324.41,64,326.15,61.65,322.79,64.91Z"/><path class="cls-19" d="M312.37,56.35c-.13-.37-1.13-2.2-.91.86,0,.59-.55,2.69-.31,2.57,1-.49.33-1,1.81-1.32,0,0,1.11-.87.71-1.11A1.31,1.31,0,0,1,312.37,56.35Z"/><path class="cls-15" d="M306,50.86c-1.47.5-1.64-1-2.9.68-.06.08-1.18.92-1,1.19-.07.27,2.62-.59,2.86-.82S306.59,51.43,306,50.86Z"/><path class="cls-15" d="M292.91,45.29c-.79,1.87,3.36,2.48-.56,3.83-.76.26-.17-2.34-.21-3.19C292.06,44.2,293.29,44.39,292.91,45.29Z"/><path class="cls-15" d="M288.43,38.34c1.25.44-3.25,2.81-3.62-1-.06-.65,1.05-1.95,1.12-1.13S286.55,37.68,288.43,38.34Z"/><path class="cls-15" d="M280.79,28.29c-.1,3.31,3.08,1,1.37,2.77-.29.29-1.48.28-2.11,1.32s.59-1.74,0-2.29C279.33,29.32,280.83,27.18,280.79,28.29Z"/><path class="cls-19" d="M273.17,22.7c.54,1.18,1.47,1.59,1.55,2.27s-.79,2.89-1.9.82c-.48-.9-.51-3.43-.13-3.73S273,22.26,273.17,22.7Z"/><path class="cls-20" d="M336.32,74.37a8.28,8.28,0,0,1-.79,1.46c-.68-.41.08-1,.3-1.77.13-.44.6,0,.5.17Z"/><path class="cls-20" d="M328.49,69.13c.39.45,1.54.89.08,1.34C328.08,70.62,327.76,68.29,328.49,69.13Z"/><path class="cls-20" d="M346.68,82.85c-.24.39,0,.15-.54.21-.21,0,0-.38.31-.41C346.45,82.65,346.94,82.4,346.68,82.85Z"/><path class="cls-20" d="M320.41,64c0,.87,1.11,1.95-1,.79C318.89,64.5,318.67,63,320.41,64Z"/><path class="cls-20" d="M310.43,58.14c-.16.51-.07,2-.65,1.25,0,0-.28-2.46.71-1.4Z"/><path class="cls-20" d="M303.2,53.43c-.66.41-1.93-.23-1.75,1.14,0,0-.22.8.63.48,0,0,1.66-1.43,1.47-1.57A.34.34,0,0,0,303.2,53.43Z"/><path class="cls-20" d="M291.07,47.34c0,.07-.07,4.62-.72.5C290.28,47.37,290.68,46,291.07,47.34Z"/><path class="cls-20" d="M284.52,38.62c-.26.83,1.3,1.32.37,1.72,0,0-1.65-.24-1-1.26,0,0,.12-1.25.64-.62Z"/><path class="cls-20" d="M279.35,31.84c0,.37.26,2.25-.65,1.63C278.26,33.18,279.45,30.89,279.35,31.84Z"/><path class="cls-20" d="M272.34,26.81c.63,1.19,0,.4.1,1.16,0,.17.23.28,0,.56-.18-.06-.26-.65-.49-1C271.49,27,272.23,26.61,272.34,26.81Z"/><path class="cls-20" d="M343.78,80.18c-.11.43-.29.29-.6.54-.48.39,0-.14,0-.18.06-.23.1-.48.43-.48C343.76,80.05,343.79,80.14,343.78,80.18Z"/><path class="cls-17" d="M354.49,82.6c-1.89.54-4,.52-1.43-1.53a2.22,2.22,0,0,1,1.82-.42l-.12.48C354.65,81.62,354.58,82.12,354.49,82.6Z"/><path class="cls-17" d="M354.49,82.6l-.14,0a8.73,8.73,0,0,0,.3-1l0,.16h0l0,.15h0l-.07.41h0v0l0,.14v0Z"/><path class="cls-13" d="M350.17,84.81c-.92-.28-8.75-1.17-4.65,1.12,1.51.85,3.52,2.81,5.11,2C353.87,86.17,352.91,85.63,350.17,84.81Z"/><path class="cls-17" d="M322.33,39.09a20.36,20.36,0,0,1,2.91,2.18,11.3,11.3,0,0,0-1,1.47c-1,1.57-.67,1.84-2.28.67-.4-.29.27-.64-1.1-.69C320.56,42.71,321.42,40.7,322.33,39.09Z"/><path class="cls-17" d="M338.73,52.7c.52.58,1.09,1.2,1.7,1.79.88.86,1.94,1.38,2.73,2.16a3.29,3.29,0,0,1-2.33,1.12c-2.76.12-.61-.6-3.48-2.18C336.77,55.29,337.91,53.95,338.73,52.7Z"/><path class="cls-17" d="M338.73,52.7l0,0h0l0,0,0,0,0,0h0l0,0,0,0,0,0h0l0,.06h0l0,0,0,0,0,0h0l0,0,0,0,0,0h0l.07.07h0l.05.06h0l0,0,0,0h0l0,0,0,0h0l0,0,0,0h0l0,0,0,0h0l0,0,0,0,0,0h0l0,0,0,0,0,0h0l0,0,0,0h0l0,0,0,0,0,0h0l0,0,0,0,0,0h0l0,0,0,0,0,0h0l0,0,0,0h0l0,0,0,0,0,0h0l0,0,0,0,0,0h0l.05.05,0,0h0l0,0,0,0h0l0,0,.06.06h.12c-.79-.56-1.41-1.21-2-1.6Z"/><path class="cls-16" d="M317.23,36.06c-3-1.45-3.08-4-6.24-.87-6,5.82-14.06,17.34-13.9,22,.08,2.22,6.39,4.17,6.49,4.22-3.34-.59-9.18-2.65-10.51-6.18-.5-1.33,15.88-19.26,17.79-22.44.47-.79,1.27-.85,2.19-.52s1.74,1.84,2.74,2.68A17.72,17.72,0,0,0,317.23,36.06Z"/><path class="cls-17" d="M307.63,27.48a10.74,10.74,0,0,1,3.06,2.73c-1.55,1.39-3,2.74-4-.25C306.47,29.28,307,28.35,307.63,27.48Z"/><path class="cls-17" d="M299.81,18.88a35.85,35.85,0,0,1,3.55,5.35,6.43,6.43,0,0,1-2.8.52c-1-.13-1.81.38-2.9-1.48C297,22.17,298.72,20.14,299.81,18.88Z"/><path class="cls-17" d="M299.81,18.88c.34.41.67.85,1,1.31h0l.25.34.06.09,0,.07,0,0,.05.07.06.09,0,0,0,.06,0,0,0,.05.17.25h0c-.76-.65-1.5-1.35-2.23-1.9Z"/><path class="cls-17" d="M276.82,7.75a20.35,20.35,0,0,1,5-1.52c-.16,2,.55,2.89-4.1,3C276.81,9.26,276.71,8.66,276.82,7.75Z"/><path class="cls-17" d="M315.15,34.32a6.47,6.47,0,0,0,.62.63,20,20,0,0,0,2,1.49c-.77,1-2,2-2.61.75-.44-1-3.39-.16-.53-2.57A2.6,2.6,0,0,1,315.15,34.32Z"/><path class="cls-17" d="M308.77,28.26a8,8,0,0,0-1.29-.57l.15-.2A9.89,9.89,0,0,1,308.77,28.26Z"/><path class="cls-21" d="M278.34,7.16l-1.54.77,0-.17.68-.28h0l.18-.07,0,0,.15-.06.07,0,.14-.05.05,0,.14-.05Z"/><path class="cls-17" d="M325.08,41.46a8,8,0,0,0-3-1.85l.28-.52,0,0h0l.09.05,0,0h0l.12.07h0l0,0,.09.06h0l0,0h0l.09.06,0,0h0l.13.09h0l0,0,.1.07,0,0,.1.07,0,0h0l.12.09h0l0,0h0l.08.06h0l0,0h0l.23.18,0,0,0,0,.08.06h0l0,0h0l.07.06h0l0,0,0,0,0,0,0,0,0,0h0l.06.05h0l0,0,0,0,0,0,.09.08,0,0h0l0,0,.05,0,.05,0h0l0,0h0l.07.06h0l0,0h0Z"/><path class="cls-17" d="M353.92,74.34A11.21,11.21,0,0,1,355,76a16.82,16.82,0,0,0-2.83.93c-1.41.78-2.72-1.66,1.71-2.59Z"/><path class="cls-17" d="M355,76l-.1,0-.32-.79C354.7,75.51,354.84,75.76,355,76Z"/><path class="cls-15" d="M274.43,45.8c1-.76,2.51-2.7,5.46-2.34,2.56.31,1,1.95-1.48,2.54a7,7,0,0,1-3-.25C275.13,45.69,273.41,46.56,274.43,45.8Z"/><path class="cls-22" d="M274.43,45.8l.28-.22,0,0a1.07,1.07,0,0,1,.15.26C274.35,46.06,273.71,46.33,274.43,45.8Z"/><path class="cls-15" d="M274.09,41.74s-2.41,3.34-1.66,1.25c.38-1.05.71-1.07,1.7-3C275.2,37.82,280,38.79,274.09,41.74Z"/><path class="cls-22" d="M273.11,43c-.56.66-1.09,1.13-.68,0l.11-.29a.81.81,0,0,1,.56.29Z"/><path class="cls-15" d="M271.13,37.67c-.17.55-.64.67-.89,1.1-.61,1-.92,2.09-.89,1.49a10.79,10.79,0,0,1,.9-4.66C271.46,35.58,272.1,34.5,271.13,37.67Z"/><path class="cls-22" d="M269.62,40c-.2.43-.29.63-.28.28,0-.11,0-.22,0-.34l.15,0Z"/><path class="cls-17" d="M317.23,36.06a11.14,11.14,0,0,1-2.31-1.61l.23-.12h.41l0,0h0l0,0h0l0,0h0l0,0h0l0,0,0,0h0l0,0h0l0,0h0l0,0h0l0,0h0l0,0h0l0,0h0l0,0h0l0,0h0l0,0h0l0,0h0l0,0h0l0,0h0l0,0h0l0,0h0l0,0h0l0,0h0l0,0h0l0,0h0l0,0,0,0h0l0,0h0l0,0h0l0,0h0l0,0h0l0,0h0l0,0h0l0,0h0l0,0h0l0,0h0l0,0h0Z"/><path class="cls-20" d="M264.95,20.48c.18.57.74,2.05-.61,1.57-1-.36,0-1,0-1.9,0-.52.64-.45.58.24Z"/></g><path class="cls-12" d="M295.7,4.68a2,2,0,0,1,0,.44L295,8.39a.42.42,0,0,0,0,.29c.13.22.46.06.65-.11A10.69,10.69,0,0,1,298,7c.27-.14.68-.22.8.06a.54.54,0,0,1,0,.37,12.85,12.85,0,0,1-1.44,2.7,8.36,8.36,0,0,1-1.4,1.79,2.31,2.31,0,0,1-3.73-.88c-.27-.62.13-1.48.32-2.1a23.07,23.07,0,0,1,2.29-5.24c.38.19.8.44.89.86A.83.83,0,0,1,295.7,4.68Z"/><path class="cls-12" d="M304.09,15.37a2.31,2.31,0,0,1-.09.42l-.85,3.12a.45.45,0,0,0,0,.27c.08.19.37,0,.54-.17a12.62,12.62,0,0,1,2-1.73c.24-.16.59-.28.65,0a.62.62,0,0,1-.07.35,16.9,16.9,0,0,1-1.48,2.68,10.92,10.92,0,0,1-1.34,1.83c-1.11,1.14-2.59,1-3-.43a4.11,4.11,0,0,1,.49-2,30,30,0,0,1,2.45-5.15c.29.14.61.32.64.7A.83.83,0,0,1,304.09,15.37Z"/><path class="cls-12" d="M311,24.11a2,2,0,0,1-.08.32l-.73,2.37a.36.36,0,0,0,0,.2c0,.14.26,0,.39-.15a10.68,10.68,0,0,1,1.52-1.37c.17-.13.43-.23.46,0a.52.52,0,0,1-.06.27,14.79,14.79,0,0,1-1.15,2.06,9.53,9.53,0,0,1-1,1.42c-.83.9-1.87.85-2.09-.2a3.48,3.48,0,0,1,.43-1.52,26.22,26.22,0,0,1,1.94-4c.2.09.42.22.43.5A.67.67,0,0,1,311,24.11Z"/><path class="cls-12" d="M318.4,30.49a2,2,0,0,1-.08.32l-.73,2.37a.36.36,0,0,0,0,.2c0,.14.26,0,.39-.15a10.68,10.68,0,0,1,1.52-1.37c.17-.13.43-.23.46,0a.52.52,0,0,1-.06.27,14.79,14.79,0,0,1-1.15,2.06,9.53,9.53,0,0,1-1,1.42c-.83.9-1.87.85-2.09-.2a3.48,3.48,0,0,1,.43-1.52,26.22,26.22,0,0,1,1.94-4c.2.09.42.22.43.5A.67.67,0,0,1,318.4,30.49Z"/><path class="cls-12" d="M324.25,37.66c.26.16.22.68.53.73a.5.5,0,0,0,.36-.14l.58-.43a.82.82,0,0,1,.62-.23c.07,0,.15.07.16.14s-.18.41-.23.58a3.42,3.42,0,0,1-.11.44,10.35,10.35,0,0,1-.78,1.3,9.53,9.53,0,0,1-1,1.42c-.83.9-1.87.85-2.09-.2a3.48,3.48,0,0,1,.43-1.52,6.89,6.89,0,0,1,.95-1.85c.14-.18.36-.37.56-.28Z"/><path class="cls-13" d="M254.64,18.71c-.88,2.05,9.15,16.77,11.32,13C270.5,23.86,257.92,11,254.64,18.71Z"/><path class="cls-14" d="M255.23,21.14a36.83,36.83,0,0,0,4.63,7.15,14.12,14.12,0,0,0-.45-3.84c-.76-3.12-2.23-5.45-3.27-5.19C255.65,19.38,255.34,20.09,255.23,21.14Z"/><path class="cls-15" d="M273.05,37.27c-.45.45-2.45-.64-2.72-1-.65-.87-2.4-1.46-1.5-3C268.91,33.19,275.33,35,273.05,37.27Z"/><path class="cls-15" d="M275,39.38c.92.51,2.13,1.89,3.21,1.59.46-.13.84-.88,1-1.69C276.12,35.54,271.87,37.64,275,39.38Z"/><path class="cls-15" d="M280.55,42.57A7.22,7.22,0,0,1,282.62,45c1.1,2.93-2.39,3.47-3.19,1.18-.34-1-.38.59-.49-1.63,0-.36-.38-.42-.61-1.54-.13-.6.19-1.47.77-1.59C279.16,41.4,280,40.6,280.55,42.57Z"/><path class="cls-13" d="M293.63,56.06a65.53,65.53,0,0,0,17.51-1.85c2.93-4.78,6.19-10.65,7.77-13.66.82-1.57.76-2.59.39-3s-2-1.25-3.54-2.57c-1-.85-1.8-2.34-2.74-2.68s-1.71-.27-2.19.52C308.94,36,292.56,53.9,293.06,55.23a4.93,4.93,0,0,0,.43.85Z"/><path class="cls-13" d="M303.15,26.16c3.5.21,6.6,2,8.77,5.92.3.55-1.06.66-1.91,2.29-2.88,5.54-14.64,19.59-17,20.85-1.1.6-6.52-1.7-9.59-6.48-2-3,15.26-16.43,18.48-21.8A1.36,1.36,0,0,1,303.15,26.16Z"/><path class="cls-16" d="M308.77,28.26c-2-.94-3.08-2.67-13.36,9.92C287.39,48,282,47,286.05,51.8a16,16,0,0,1-2.59-3.06c-2-3,15.26-16.43,18.48-21.8a1.36,1.36,0,0,1,1.2-.79A9.86,9.86,0,0,1,308.77,28.26Z"/><path class="cls-13" d="M319.33,51.17c1.74-.84,3.45-1.73,5.14-2.64.65-1.17,1.22-2.21,1.66-3,.8-1.5.81-2.43.51-2.83-.7-.94-6.53-6.29-8-3.86C316.71,42,311.55,49.49,307.92,55A46.21,46.21,0,0,0,319.33,51.17Z"/><path class="cls-16" d="M309.28,54.67c3.44-6.17,9.76-14.52,11-15.16s5.09,1.21,5.86,3.55c.36,1.09-.83,3.41-2.3,5.8l.64-.34c.65-1.17,1.22-2.21,1.66-3,.8-1.5.81-2.43.51-2.83-.7-.94-6.53-6.29-8-3.86C316.71,42,311.55,49.49,307.92,55Z"/><path class="cls-13" d="M330.57,45.13a9.66,9.66,0,0,0-3.41-.87,1.18,1.18,0,0,0-1.05.68c-.61,1-1.58,2.48-2.72,4.16C325.8,47.82,328.18,46.48,330.57,45.13Z"/><path class="cls-16" d="M325.61,47.9l.3-.43c1.41-2.06,2.81-2.57,3.93-2.64a9.66,9.66,0,0,0-2.69-.57,1.18,1.18,0,0,0-1.05.68c-.61,1-1.58,2.48-2.72,4.16Z"/><path class="cls-13" d="M304.2,26.27c.16,3.32-17.7,19.31-20.65,20.92-.35.19-1.4.5-1.52-.22-.42-2.31.19-2.84-2.39-4.4a2.37,2.37,0,0,1-.46-3.15c1.86-3,3.5-12.52,7.75-17.22,3.07-3.4,7.81-3.48,9-5.4C297.53,14,304.13,24.81,304.2,26.27Z"/><path class="cls-16" d="M284.13,46.83c-.23.16-.42.28-.58.36-.35.19-1.4.5-1.52-.22-.31-1.7-.06-2.44-.94-3.33h0c.52.39.55.12,1.25,2.09.2.55.31,1.66,1.07,1.35Z"/><path class="cls-16" d="M301.59,21.31c-2.41-2.07-4.64-4.6-6.51-1.27s-13.14,16.45-15.51,21.14a1.24,1.24,0,0,0,.45,1.63h0l-.38-.24a2.37,2.37,0,0,1-.46-3.15c1.86-3,3.5-12.52,7.75-17.22,3.07-3.4,7.81-3.48,9-5.4.95-1.58,3.51,1.25,5.54,4.25l.17.25Z"/><path class="cls-13" d="M288.58,8.18a9.46,9.46,0,0,1,5,2.6c3.07,3.1,5.61,5.79,2.77,6.72-3.63,1.19-16,23.61-17.89,22.71-.85-.41-1.51-1.14-2.12-1.4-1.09-.47-1.87-.34-2.28-.59-.69-.43-.95-1.37-.31-2.54,2.42-4.42,8.13-22.75,10.86-27.31C285,7.83,288.15,8.15,288.58,8.18Z"/><path class="cls-17" d="M291.1,9a9.78,9.78,0,0,1,2.53,1.79,32.35,32.35,0,0,1,3.21,3.56c-6.4,2.64-6.08-4.81-6-4.92Z"/><path class="cls-16" d="M288.58,8.18a5.11,5.11,0,0,1,1.26.28c-3.79.67-5.44,4.06-6.67,7.81S274.47,35.92,275,37.4c.23.7.89.87,1.75,1.28s.93,1.06,2.72,1l-.12.23c-.35.29-.62.42-.79.33-.85-.41-1.51-1.14-2.12-1.4-1.09-.47-1.87-.34-2.28-.59-.69-.43-.95-1.37-.31-2.54,2.42-4.42,8.13-22.75,10.86-27.31C285,7.83,288.15,8.15,288.58,8.18Z"/><path class="cls-13" d="M266.68,11.61c3.5.21,15.82-8.31,18-4.39a3.16,3.16,0,0,1,.12,3.32c-2.88,5.54-8.95,25.18-11.26,26.44-.1.06-1.06-1.16-2.63-2.32-.72-.53-1.93-.42-2.6-1.26s-.14-2-.53-3.85C266.36,22.84,265.76,11.53,266.68,11.61Z"/><path class="cls-16" d="M278.34,7.16c-1.62.79-5.21,2.66-6,3-1.28.65-3.06,4-3.35,7.65-.32,4,.25,8.57-.6,10.55-.42,1-.08,1.76-.5,3.47a10,10,0,0,0-.15-2.33c-1.42-6.7-2-18-1.09-17.93C268.77,11.73,274,8.75,278.34,7.16Z"/><path class="cls-13" d="M269.9,12c-2.14,5.87-.32,14.87-2.45,16.42-1,.73-5.83-2.89-7-7.38-.22-.85-2.36-5.74-1.1-6.49C267.92,9.43,269.92,12,269.9,12Z"/><path class="cls-16" d="M268.26,26.93a2.56,2.56,0,0,1-.81,1.51c-1,.73-5.83-2.89-7-7.38-.22-.85-2.36-5.74-1.1-6.49l1.12-.65c-2.65,4.5,3.65,14.83,6.44,14.14A2.81,2.81,0,0,0,268.26,26.93Z"/><path class="cls-18" d="M260.85,13.69a20.41,20.41,0,0,1,5.43-2.17c-.32,3.6-.61,8.8-2.86,7.7-.51-.25,0-2.25-2-4.24A2,2,0,0,1,260.85,13.69Z"/><path class="cls-16" d="M270.39,34c1.23.4,2.76,1.75,3.31,1.65a2.88,2.88,0,0,0,1.44-1A6.19,6.19,0,0,1,273.53,37c-.1.06-1.06-1.16-2.63-2.32-.72-.53-1.93-.42-2.6-1.26s-.33-1.54-.39-2.75l0-.08C268.52,32,267.93,33.23,270.39,34Z"/><path class="cls-17" d="M316.69,52.34c1.41-1.34,2.08-1.15,2.26-3.3a.64.64,0,0,0-.19-.42c-2.54-1.74-2.81,1.91-3.12,2.37a4.43,4.43,0,0,0-.82,2.07C315.44,52.84,316.06,52.59,316.69,52.34Z"/><path class="cls-17" d="M311,43.81c-1.08,1.31,0,.61-1.47,1.69,0,0-2,3-2.21,1.58-.1-.76,1.38-2,1.69-3.45C309.37,41.79,311.48,42.09,311,43.81Z"/><path class="cls-17" d="M302.29,39.4c-.35.5-3.11,2.48-4.07,3.79-1.36,1.87-3.15-1.5,1.6-4.89.58-.41.72-2.43,2.59-1C302.85,37.62,302.62,38.93,302.29,39.4Z"/><path class="cls-17" d="M290.39,34.88c-1.32-.4,0-1.67.89-3.48,2.13-4.52,2.31-.72,3.77-.32C297,31.61,292.66,35.57,290.39,34.88Z"/><path class="cls-17" d="M287.95,19.07a4.88,4.88,0,0,0-1.45-.55c-.41-.14-.54,2.27-1.73,4.23-.61,1-3.79,5.95-.77,4.46.84-.41,1-3.64,3.56-5.24C289,21.09,288.84,19.7,287.95,19.07Z"/><path class="cls-17" d="M276.62,15.52c-2.56.78-1.62,1.89-1.86,4.49,0,.2.8,3.32,1.6-.86C276.95,16.07,278.8,15.94,276.62,15.52Z"/><path class="cls-15" d="M321.39,45.91c-1.37-1.27-3.85-1-2.41-1.89.28-.16,1,0,1.59-.16C322,43.45,322.77,47.18,321.39,45.91Z"/><path class="cls-15" d="M314.73,39.43c-.15.67-.69.87-1.08.11-.75-1.48-3.21-1-2.13-1.77S315.21,37.22,314.73,39.43Z"/><path class="cls-15" d="M306.75,34.33c0,.44,1.61.28,1.12-1.72,0-.2-.94-.21-1.56-1.37s-2-.17-2.61.33C302.47,32.58,306.82,32,306.75,34.33Z"/><path class="cls-15" d="M300,27.77c-.45.31,0,1.41-1.14,1.32-.22,0-.55-.66-.91-.73-.71-.14-2.27-1.53-3-3.58-.15-.42-.46-1.06.74-1.37s3.17,2.55,4.16,3.27C300.15,26.9,300.47,27.43,300,27.77Z"/><path class="cls-15" d="M291.95,18.6c-.59.45-.94-.18-1.41-.92a6.67,6.67,0,0,0-2.76-2c-.87-.37-1.67,0-1.33-.8C288,11,290,13,292.53,16.45,292.8,16.81,292.29,18.33,291.95,18.6Z"/><path class="cls-15" d="M279.22,13.37c-.52-.07-1.11-.35-1.63-.42-.67-.09-1.18,0-.71-.73a3.81,3.81,0,0,1,1.56-1.55C279.91,10.05,280.26,13.5,279.22,13.37Z"/><path class="cls-15" d="M306,50.86c-1.47.5-1.64-1-2.9.68-.06.08-1.18.92-1,1.19-.07.27,2.62-.59,2.86-.82S306.59,51.43,306,50.86Z"/><path class="cls-15" d="M292.91,45.29c-.79,1.87,3.36,2.48-.56,3.83-.76.26-.17-2.34-.21-3.19C292.06,44.2,293.29,44.39,292.91,45.29Z"/><path class="cls-15" d="M288.43,38.34c1.25.44-3.25,2.81-3.62-1-.06-.65,1.05-1.95,1.12-1.13S286.55,37.68,288.43,38.34Z"/><path class="cls-15" d="M280.79,28.29c-.1,3.31,3.08,1,1.37,2.77-.29.29-1.48.28-2.11,1.32s.59-1.74,0-2.29C279.33,29.32,280.83,27.18,280.79,28.29Z"/><path class="cls-19" d="M273.17,22.7c.54,1.18,1.47,1.59,1.55,2.27s-.79,2.89-1.9.82c-.48-.9-.51-3.43-.13-3.73S273,22.26,273.17,22.7Z"/><path class="cls-20" d="M303.2,53.43c-.66.41-1.93-.23-1.75,1.14,0,0-.22.8.63.48,0,0,1.66-1.43,1.47-1.57A.34.34,0,0,0,303.2,53.43Z"/><path class="cls-20" d="M291.07,47.34c0,.07-.07,4.62-.72.5C290.28,47.37,290.68,46,291.07,47.34Z"/><path class="cls-20" d="M284.52,38.62c-.26.83,1.3,1.32.37,1.72,0,0-1.65-.24-1-1.26,0,0,.12-1.25.64-.62Z"/><path class="cls-20" d="M279.35,31.84c0,.37.26,2.25-.65,1.63C278.26,33.18,279.45,30.89,279.35,31.84Z"/><path class="cls-20" d="M272.34,26.81c.63,1.19,0,.4.1,1.16,0,.17.23.28,0,.56-.18-.06-.26-.65-.49-1C271.49,27,272.23,26.61,272.34,26.81Z"/><path class="cls-17" d="M322.33,39.09a20.36,20.36,0,0,1,2.91,2.18,11.3,11.3,0,0,0-1,1.47c-1,1.57-.67,1.84-2.28.67-.4-.29.27-.64-1.1-.69C320.56,42.71,321.42,40.7,322.33,39.09Z"/><path class="cls-16" d="M293.63,56.06c1.21,0,2.4,0,3.56,0,.93-5.2,8.27-15.46,13.79-20.84,3.16-3.09,3.26-.58,6.24.87a17.72,17.72,0,0,1-1.45-1.11c-1-.85-1.8-2.34-2.74-2.68s-1.72-.27-2.19.52C308.94,36,292.56,53.9,293.06,55.23a5,5,0,0,0,.44.85Z"/><path class="cls-17" d="M307.63,27.48a10.74,10.74,0,0,1,3.06,2.73c-1.55,1.39-3,2.74-4-.25C306.47,29.28,307,28.35,307.63,27.48Z"/><path class="cls-17" d="M299.81,18.88a35.85,35.85,0,0,1,3.55,5.35,6.43,6.43,0,0,1-2.8.52c-1-.13-1.81.38-2.9-1.48C297,22.17,298.72,20.14,299.81,18.88Z"/><path class="cls-17" d="M299.81,18.88c.34.41.67.85,1,1.31h0l.25.34.06.09,0,.07,0,0,.05.07.06.09,0,0,0,.06,0,0,0,.05.17.25h0c-.76-.65-1.5-1.35-2.23-1.9Z"/><path class="cls-17" d="M276.82,7.75a20.35,20.35,0,0,1,5-1.52c-.16,2,.55,2.89-4.1,3C276.81,9.26,276.71,8.66,276.82,7.75Z"/><path class="cls-17" d="M315.15,34.32a6.47,6.47,0,0,0,.62.63,20,20,0,0,0,2,1.49c-.77,1-2,2-2.61.75-.44-1-3.39-.16-.53-2.57A2.6,2.6,0,0,1,315.15,34.32Z"/><path class="cls-17" d="M308.77,28.26a8,8,0,0,0-1.29-.57l.15-.2A9.89,9.89,0,0,1,308.77,28.26Z"/><path class="cls-21" d="M278.34,7.16l-1.54.77,0-.17.68-.28h0l.18-.07,0,0,.15-.06.07,0,.14-.05.05,0,.14-.05Z"/><path class="cls-17" d="M325.08,41.46a8,8,0,0,0-3-1.85l.28-.52,0,0h0l.09.05,0,0h0l.12.07h0l0,0,.09.06h0l0,0h0l.09.06,0,0h0l.13.09h0l0,0,.1.07,0,0,.1.07,0,0h0l.12.09h0l0,0h0l.08.06h0l0,0h0l.23.18,0,0,0,0,.08.06h0l0,0h0l.07.06h0l0,0,0,0,0,0,0,0,0,0h0l.06.05h0l0,0,0,0,0,0,.09.08,0,0h0l0,0,.05,0,.05,0h0l0,0h0l.07.06h0l0,0h0Z"/><path class="cls-15" d="M274.43,45.8c1-.76,2.51-2.7,5.46-2.34,2.56.31,1,1.95-1.48,2.54a7,7,0,0,1-3-.25C275.13,45.69,273.41,46.56,274.43,45.8Z"/><path class="cls-22" d="M274.43,45.8l.28-.22,0,0a1.07,1.07,0,0,1,.15.26C274.35,46.06,273.71,46.33,274.43,45.8Z"/><path class="cls-15" d="M274.09,41.74s-2.41,3.34-1.66,1.25c.38-1.05.71-1.07,1.7-3C275.2,37.82,280,38.79,274.09,41.74Z"/><path class="cls-22" d="M273.11,43c-.56.66-1.09,1.13-.68,0l.11-.29a.81.81,0,0,1,.56.29Z"/><path class="cls-15" d="M271.13,37.67c-.17.55-.64.67-.89,1.1-.61,1-.92,2.09-.89,1.49a10.79,10.79,0,0,1,.9-4.66C271.46,35.58,272.1,34.5,271.13,37.67Z"/><path class="cls-22" d="M269.62,40c-.2.43-.29.63-.28.28,0-.11,0-.22,0-.34l.15,0Z"/><path class="cls-17" d="M317.23,36.06a11.14,11.14,0,0,1-2.31-1.61l.23-.12h.41l0,0h0l0,0h0l0,0h0l0,0h0l0,0,0,0h0l0,0h0l0,0h0l0,0h0l0,0h0l0,0h0l0,0h0l0,0h0l0,0h0l0,0h0l0,0h0l0,0h0l0,0h0l0,0h0l0,0h0l0,0h0l0,0h0l0,0h0l0,0h0l0,0,0,0h0l0,0h0l0,0h0l0,0h0l0,0h0l0,0h0l0,0h0l0,0h0l0,0h0l0,0h0l0,0h0Z"/><path class="cls-20" d="M264.95,20.48c.18.57.74,2.05-.61,1.57-1-.36,0-1,0-1.9,0-.52.64-.45.58.24Z"/></svg>