<svg id="Layer_1" data-name="Layer 1" xmlns="http://www.w3.org/2000/svg" viewBox="0 0 72.67 53.56"><path d="M66.4,53.56H6.27A6.17,6.17,0,0,1,0,47.5V19.31a6.17,6.17,0,0,1,6.27-6.06h45.4c1.43,0,1.9.23,2.56-1.1a12.46,12.46,0,0,0,1.11-3.94A13.67,13.67,0,0,0,53.83,0a12.31,12.31,0,0,1,7.29,5.78A18,18,0,0,1,62.7,10a5.75,5.75,0,0,0,1.05,2.5c1.38,1.55,3.87.48,5.65,1.45a6.11,6.11,0,0,1,3.26,5.32V47.5A6.17,6.17,0,0,1,66.4,53.56Z" fill="#525731"/><path d="M6.27,52.56A5.18,5.18,0,0,1,1,47.5V19.31a5.18,5.18,0,0,1,5.27-5.06H52.6a2.46,2.46,0,0,0,2.53-1.67,13.3,13.3,0,0,0,1.21-4.26,14.91,14.91,0,0,0-.62-6.5,11.12,11.12,0,0,1,4.54,4.42,17.22,17.22,0,0,1,1.48,4l0,.12A6.32,6.32,0,0,0,63,13.2c1.06,1.19,2.5,1.24,3.77,1.29a5,5,0,0,1,2.15.37,5.12,5.12,0,0,1,2.74,4.44V47.5a5.18,5.18,0,0,1-5.27,5.06Z" fill="#81875d"/></svg>