<?xml version="1.0" encoding="utf-8"?>
<svg version="1.1" id="Layer_1"  xmlns="http://www.w3.org/2000/svg"
	 x="0px" y="0px" viewBox="0 0 170 170" enable-background="new -0.5 -0.5 170 170" xml:space="preserve">
<g id="moreFrogsButtons">
	<g id="Scene_1_f0_1_">
		<g id="MovieClip_sprite_44_1_">
			<path fill="#999999" d="M154,129.95V66.803c-0.491-11.928-6.476-18.344-17.758-19.246c-2.751-4.31-2.848-9.021-0.199-14.033l0,0
				l0.295-1.103c0-0.501-0.096-0.801-0.295-1.203l-0.59-0.601l-0.193-0.201l-1.081-0.3l-112.063-0.1l-0.786,0.1l-0.491,0.2
				l-0.588,0.401c-0.295,0.2-0.491,0.501-0.588,0.902v0.1l0,0c-0.098,0.3-0.098,0.701,0,1.002v0.1l0.293,0.802
				c2.551,5.011,2.551,9.722-0.196,14.033C8.379,48.56,2.491,54.976,2,66.903v63.148c0.393,10.726,6.28,16.239,17.664,16.436v10.228
				c0.098,0.4,0.293,0.8,0.588,1.101l0.295,0.302l0.687,0.302h0.098c37.092,9.52,74.775,9.52,113.141,0l0.981-0.403l0.298-0.298
				l0.491-0.704l0.096-0.502v-0.6v-9.621C147.72,146.189,153.608,140.676,154,129.95"/>
			<path fill="#FFFFFF" d="M149.487,129.852V67.003c-0.394-9.522-5.301-14.534-14.622-14.936l-0.981-0.3l-0.786-0.603
				c-3.727-5.111-4.612-10.524-2.55-16.438l-105.39-0.1c2.061,5.914,1.275,11.427-2.551,16.538l-0.688,0.603l-0.981,0.3
				c-9.322,0.501-14.229,5.514-14.62,14.936v62.848c0.489,8.318,5.593,12.328,15.308,11.928l1.177,0.299l0.883,0.904
				c0.196,0.301,0.294,0.701,0.294,1.101v10.326c35.424,8.821,71.34,8.821,107.845,0v-10.326c0-0.399,0.097-0.8,0.292-1.101
				l0.882-0.904l1.18-0.299C143.894,142.18,148.997,138.17,149.487,129.852"/>
			<path fill="#FFCC00" d="M143.012,11.773c-0.099,2.708-6.379,5.112-18.745,7.117c-8.929,1.504-19.232,2.406-30.812,2.907
				l-14.424,0.2c-17.663,0-32.775-1.002-45.237-3.107c-9.028-1.503-14.818-3.207-17.271-5.112c-0.883-0.701-1.374-1.402-1.472-2.205
				l-0.197,24.658c0.197,0.701,0.688,1.402,1.571,2.105c2.452,1.904,8.242,3.708,17.368,5.112
				c12.461,2.105,27.574,3.107,45.237,3.107l14.424-0.202c11.58-0.401,21.884-1.403,30.812-2.906
				c12.366-2.005,18.646-4.511,18.745-7.318V11.773"/>
			<path fill="#FFCC00" d="M124.267,18.79c12.366-2.005,18.646-4.411,18.745-7.117v-0.3c-0.099-2.908-6.279-5.314-18.745-7.418
				c-12.46-2.005-27.572-3.107-45.236-3.107c-17.663,0-32.775,1.002-45.237,3.107C21.429,5.96,15.149,8.466,15.051,11.374v0.1
				c0,0.801,0.491,1.504,1.472,2.205c2.452,1.905,8.243,3.608,17.271,5.112c12.461,2.105,27.574,3.107,45.237,3.107l14.424-0.2
				C105.035,21.296,115.24,20.294,124.267,18.79"/>
			<path vector-effect="non-scaling-stroke" fill="none" stroke="#FF9900" stroke-linecap="round" stroke-linejoin="round" d="
				M143.012,36.13V11.773v-0.399c-0.099-2.908-6.279-5.314-18.745-7.418c-12.46-2.005-27.572-3.107-45.236-3.107
				c-17.663,0-32.775,1.002-45.237,3.107C21.429,5.96,15.149,8.466,15.051,11.374v0.1L14.854,36.13
				c0.197,0.703,0.688,1.404,1.57,2.105c2.454,1.905,8.244,3.709,17.37,5.112c12.461,2.105,27.574,3.107,45.237,3.107l14.424-0.2
				c11.58-0.401,21.883-1.404,30.812-2.908C136.633,41.444,142.913,39.038,143.012,36.13"/>
			<path vector-effect="non-scaling-stroke" fill="none" stroke="#FF9900" stroke-linecap="round" stroke-linejoin="round" d="
				M143.012,11.773c-0.099,2.708-6.379,5.112-18.745,7.117c-8.929,1.504-19.232,2.406-30.812,2.907l-14.424,0.2
				c-17.663,0-32.775-1.002-45.237-3.107c-9.028-1.503-14.818-3.207-17.271-5.112c-0.883-0.701-1.374-1.402-1.472-2.205"/>
			<g id="MovieClip_sprite_46_31_">
				<path fill="#FF9900" d="M20.547,18.79v18.043h2.256V18.79H20.547"/>
			</g>
			<g id="MovieClip_sprite_46_30_">
				<path fill="#FF9900" d="M28.103,21.698v18.041h2.256V21.698H28.103"/>
			</g>
			<g id="MovieClip_sprite_46_29_">
				<path fill="#FF9900" d="M35.757,22.8v18.043h2.256V22.8H35.757"/>
			</g>
			<g id="MovieClip_sprite_46_28_">
				<path fill="#FF9900" d="M43.312,24.002v18.042h2.258V24.002H43.312"/>
			</g>
			<g id="MovieClip_sprite_46_27_">
				<path fill="#FF9900" d="M50.868,24.704v18.042h2.257V24.704H50.868"/>
			</g>
			<g id="MovieClip_sprite_46_26_">
				<path fill="#FF9900" d="M58.423,25.606v18.042h2.258V25.606H58.423"/>
			</g>
			<g id="MovieClip_sprite_46_25_">
				<path fill="#FF9900" d="M66.078,25.806v18.042h2.257V25.806H66.078"/>
			</g>
			<g id="MovieClip_sprite_46_24_">
				<path fill="#FF9900" d="M73.536,26.307V44.35h2.258V26.307H73.536"/>
			</g>
			<g id="MovieClip_sprite_46_23_">
				<path fill="#FF9900" d="M137.124,18.79v18.043h-2.258V18.79H137.124"/>
			</g>
			<g id="MovieClip_sprite_46_22_">
				<path fill="#FF9900" d="M129.468,21.698v18.041h-2.258V21.698H129.468"/>
			</g>
			<g id="MovieClip_sprite_46_21_">
				<path fill="#FF9900" d="M121.913,22.8v18.043h-2.255V22.8H121.913"/>
			</g>
			<g id="MovieClip_sprite_46_20_">
				<path fill="#FF9900" d="M114.358,24.002v18.042H112.1V24.002H114.358"/>
			</g>
			<g id="MovieClip_sprite_46_19_">
				<path fill="#FF9900" d="M106.899,24.704v18.042h-2.258V24.704H106.899"/>
			</g>
			<g id="MovieClip_sprite_46_18_">
				<path fill="#FF9900" d="M99.246,25.606v18.042h-2.258V25.606H99.246"/>
			</g>
			<g id="MovieClip_sprite_46_17_">
				<path fill="#FF9900" d="M91.689,25.806v18.042h-2.257V25.806H91.689"/>
			</g>
			<g id="MovieClip_sprite_46_16_">
				<path fill="#FF9900" d="M84.134,26.307V44.35h-2.256V26.307H84.134"/>
			</g>
			<g id="MovieClip_sprite_45_1_">
				<path fill="#999999" d="M123.092,133.059l-0.789-0.199H33.892c-0.295,0-0.589,0.099-0.786,0.199
					c-0.196,0.099-0.294,0.302-0.294,0.601v36.386c0,0.2,0.098,0.4,0.294,0.603l0.786,0.2h88.511l0.689-0.2l0.096-0.102V133.36
					L123.092,133.059"/>
				<path fill="#FFFFFF" d="M121.129,169.242v-34.88H34.971v34.88H121.129"/>
			</g>
			<g id="Graphic_text_64">
				<path d="M98.755,147.592c0-0.603-0.197-1.003-0.588-1.203c-0.295-0.199-0.786-0.301-1.375-0.301
					c-1.57,0-2.747,0.102-3.532,0.399c-1.276,0.403-1.963,1.307-1.963,2.507c0,0.903,0.393,1.604,1.276,2.309
					c0.293,0.197,1.177,0.6,2.453,1.199c0.882,0.403,1.275,0.806,1.275,1.104c0,0.501-0.687,0.704-1.865,0.704
					c-0.293,0-0.687-0.102-1.275-0.305c-0.491-0.197-0.883-0.197-1.178-0.197c-0.687,0-1.08,0.299-1.08,0.901
					c0,0.701,0.491,1.202,1.375,1.504c0.686,0.2,1.472,0.399,2.257,0.399c1.177,0,2.159-0.199,2.943-0.603
					c0.981-0.6,1.472-1.402,1.472-2.506c0-0.8-0.491-1.504-1.374-2.202c-0.392-0.304-1.275-0.806-2.452-1.405
					c-0.884-0.402-1.276-0.701-1.276-1.002c0-0.403,0.786-0.6,2.258-0.6c0.293,0,0.491,0,0.784,0.099
					c0.098,0.501,0.491,0.802,1.079,0.802C98.46,149.298,98.755,148.695,98.755,147.592"/>
				<path d="M88.942,147.392c-0.197-0.302-0.59-0.501-0.981-0.6c-0.393-0.203-0.884-0.203-1.472-0.203
					c-1.865,0-3.239,0.501-4.318,1.605c-0.981,1.002-1.57,2.404-1.57,4.111c0,1.199,0.393,2.303,1.177,3.105
					c0.786,0.803,1.767,1.202,2.944,1.202c0.491,0,0.883-0.102,1.276-0.199c0.392-0.2,0.687-0.403,1.079-0.701
					c-0.098,1.202-0.295,2.103-0.688,2.604c-0.491,0.6-1.08,0.903-2.061,0.903c-0.391,0-0.882-0.102-1.373-0.202
					c-0.491-0.102-0.884-0.102-1.179-0.102c-0.391,0-0.686,0.102-0.882,0.304c-0.197,0.197-0.295,0.502-0.295,0.8
					c0,1.003,1.177,1.504,3.533,1.504c2.061,0,3.532-0.603,4.318-1.802c0.588-0.904,0.882-2.408,0.98-4.413
					c0-1.602,0.197-3.105,0.49-4.609c0.1-0.704,0.197-1.304,0.197-1.706C90.12,147.991,89.727,147.49,88.942,147.392
					 M83.938,149.799c0.588-0.704,1.373-1.002,2.354-1.002c0.197,0,0.393,0,0.588,0.099c0.197,0.099,0.393,0.199,0.59,0.301
					c-0.197,1.301-0.295,2.205-0.393,2.805c-0.098,0.501-0.295,1.104-0.786,1.707c-0.491,0.603-0.981,0.9-1.57,0.9
					s-0.981-0.199-1.177-0.501c-0.295-0.399-0.491-0.901-0.491-1.703C83.152,151.201,83.348,150.399,83.938,149.799"/>
				<path d="M78.835,147.893c-0.786-1.002-1.767-1.504-2.944-1.504c-1.669,0-2.944,0.601-3.828,1.907
					c-0.784,1.101-1.177,2.303-1.079,3.705c0,1.504,0.491,2.607,1.374,3.509c0.784,0.803,1.766,1.205,2.944,1.205
					c1.472,0,2.551-0.603,3.433-1.706c0.786-1.003,1.08-2.304,1.08-3.706C79.815,149.996,79.424,148.896,78.835,147.893
					 M75.793,148.896c1.079,0,1.667,1.002,1.57,3.105c0,0.704-0.295,1.307-0.688,1.707c-0.391,0.399-0.882,0.501-1.373,0.501
					c-0.393,0-0.786-0.203-1.081-0.501c-0.392-0.4-0.589-1.003-0.589-1.707c0-0.8,0.197-1.504,0.589-2.104
					C74.419,149.196,75.008,148.896,75.793,148.896"/>
				<path d="M70.101,149.396c0-0.099,0-0.302,0-0.6c0-1.605-0.588-2.506-1.863-2.506c-1.276,0-2.551,0.399-3.63,1.199
					c-0.1-0.698-0.491-1.003-1.179-1.003c-0.393,0-0.687,0.102-0.883,0.305c-0.196,0.197-0.294,0.501-0.294,0.901
					c0,0.199,0,0.501,0,0.9c0,0.4,0,0.704,0,0.901v6.116c0,0.301,0.098,0.603,0.294,0.9c0.197,0.203,0.491,0.403,0.883,0.403
					c0.393,0,0.688-0.102,0.981-0.403c0.197-0.199,0.393-0.501,0.393-0.9V150.9c0.589-1.202,1.57-1.906,2.944-2.205v1.003
					c0,0.799,0.392,1.202,1.177,1.202C69.512,150.9,70.003,150.399,70.101,149.396"/>
				<path d="M59.111,141.177c-1.472,0-2.551,0.4-3.337,1.304c-0.588,0.701-0.981,1.704-1.079,3.106
					c-0.098,0.603-0.098,1.002-0.098,1.002c-0.786,0-1.374,0.102-1.669,0.203c-0.589,0.197-0.882,0.6-0.882,1.101
					c0,0.403,0.098,0.701,0.393,0.904c0.293,0.197,0.588,0.399,0.98,0.399c0.099,0,0.295,0,0.59,0
					c0.293-0.102,0.491-0.102,0.588-0.102v4.613c0,0.799-0.098,1.602-0.197,2.506c0,0.099,0,0.099,0,0.2
					c0,0.301,0.099,0.6,0.393,0.802c0.196,0.2,0.588,0.4,0.883,0.4c0.687,0,1.08-0.302,1.177-1.003
					c0.098-0.701,0.197-1.604,0.197-2.706c0-0.199,0-1.002,0-2.506c0-1.002,0-1.805,0-2.506c0.784-0.099,1.373-0.099,1.766-0.099
					c1.276,0,1.865-0.402,1.865-1.205c0-0.8-0.588-1.203-1.669-1.203c-0.392,0-0.98,0-1.766,0.099v-0.298
					c0.098-0.803,0.295-1.402,0.491-1.805c0.393-0.502,0.883-0.803,1.667-0.803c1.079,0,1.57-0.4,1.57-1.203
					C60.779,141.577,60.289,141.177,59.111,141.177"/>
			</g>
			<path fill="#FF6633" d="M17.603,79.332c-0.295,0-0.588,0.101-0.786,0.401c-0.195,0.3-0.293,0.602-0.293,1.001
				c0,0.401,0.098,0.703,0.293,0.903l0.295,0.201l0.588,0.199l0.491-0.1l0.295-0.301c0.196-0.2,0.392-0.502,0.392-0.903v-0.199
				c0-0.3-0.196-0.502-0.392-0.701C18.191,79.433,17.896,79.332,17.603,79.332"/>
			<path fill="#CC6633" d="M19.466,82.739l0.295-0.601c-0.098-0.802-0.393-1.404-1.079-1.704v0.2c0,0.401-0.098,0.702-0.393,0.902
				l-0.293,0.302l0.196,1.903l0.588-0.501L19.466,82.739L19.466,82.739"/>
			<path fill="#FF6633" d="M19.761,82.139l-0.295,0.601l0,0c0,0.603,0.197,1.003,0.393,1.104c-0.293,0.199-0.588,0.399-0.883,0.801
				l-0.098,0.2c-0.491,1.304-0.687,3.309-0.491,6.015l1.178-3.207v-0.602c0.098-0.602,0.196-1.304,0.491-1.905
				c0.196-0.301,0.196-0.601,0.293-1.002h0.393c0.393-0.101,0.687-0.3,0.687-0.902V82.64c0-0.3-0.196-0.602-0.491-0.701l-0.196-0.1
				h-0.098C20.252,81.839,19.957,81.938,19.761,82.139"/>
			<path fill="#66CC00" d="M17.603,82.038l-0.588-0.199c0.392,3.207,0.491,7.316,0.196,12.529l1.079-3.509
				c-0.196-2.706-0.098-4.711,0.491-6.015l0.098-0.2c0.295-0.401,0.588-0.602,0.883-0.801c-0.196-0.201-0.393-0.502-0.393-1.104
				l-0.49,0.502l-0.589,0.501l-0.196-1.903L17.603,82.038"/>
			<path fill="#336600" d="M19.565,87.652l-1.178,3.207l-1.08,3.509c-0.981,3.808-1.962,8.319-2.845,13.631
				c1.177-4.61,2.159-8.62,3.14-11.928c2.159-7.517,3.926-11.727,5.201-12.429l-0.491-0.101l-0.393,0.101l-0.392,0.201l-0.491,0.701
				C20.645,85.346,20.056,86.449,19.565,87.652"/>
			<path fill="#CC6633" d="M19.565,87.051v0.602c0.491-1.203,1.079-2.307,1.57-3.208l0.491-0.702l0.393-0.2l0.391-0.1l0.491-0.501
				c-0.098-0.401-0.293-0.602-0.588-0.502l-0.588,0.2h-0.196v0.602c-0.099,0.501-0.295,0.802-0.688,0.902h-0.393
				c0,0.401-0.098,0.701-0.294,1.002C19.761,85.847,19.664,86.449,19.565,87.051"/>
			<path fill="#66CC00" d="M26.532,84.243c-0.196,0.302-0.196,0.602,0,0.902l-1.57,1.504c-0.882,0.902-1.472,1.704-1.766,2.305
				l-0.098,0.302l-0.981,2.104c-1.669,3.709-2.944,7.317-3.925,10.926l-1.079,4.511c0.195,1.303,0.49,1.905,0.784,1.703
				c2.061-13.431,8.244-22.853,18.547-28.065l-2.061,0.401c-1.375,0.3-2.649,0.701-3.828,1.303
				c-0.687-0.501-1.373-0.902-1.963-1.003l-0.784,0.101c-0.589,0.301-0.981,1.002-1.08,1.904
				C26.729,83.643,26.631,83.943,26.532,84.243"/>
			<path fill="#FF6633" d="M22.803,83.542c0.295,0.101,0.491,0.2,0.588,0.401l0.197,0.3c0.293,0,0.588-0.1,0.784-0.3
				c0.196-0.201,0.196-0.501,0-0.803c-0.196-0.3-0.491-0.501-0.784-0.501l-0.786,0.201l-0.491,0.501L22.803,83.542"/>
			<path fill="#FF9900" d="M23.392,83.943c-0.196-0.201-0.393-0.301-0.588-0.401c-1.275,0.803-3.042,4.911-5.201,12.43
				c-0.883,4.109-1.079,7.718-0.588,10.825l1.079-4.511c1.57-10.524,2.845-15.637,3.926-15.337c0.391-0.1,0.391,1.404,0,4.312
				l0.98-2.105l-0.196-0.601c-0.098-0.201-0.196-0.603-0.098-1.003l0.098-1.104l0.687-1.903v-0.401L23.392,83.943"/>
			<path fill="#669900" d="M22.901,88.654l0.197,0.602c0.392-2.307,0.588-3.809,0.588-4.611l-0.688,1.905l-0.098,1.103
				C22.803,88.053,22.803,88.354,22.901,88.654"/>
			<path fill="#669900" d="M37.129,80.435l-0.784,0.101c-10.304,5.212-16.486,14.534-18.547,28.065
				c4.612-17.842,12.659-27.364,24.238-28.365L37.129,80.435"/>
			<path fill="#66FF00" d="M46.355,78.53c-0.981,0-1.767,0.401-2.356,1.304l-0.098,0.199l5.494,0.803
				c0.099-0.902-0.293-1.504-0.98-1.805L46.355,78.53"/>
			<path fill="#66CC00" d="M43.312,89.856c0.393-0.701,0.786-1.302,1.276-1.904l0.393-0.4c0.884-0.803,1.963-1.403,3.336-1.805
				l0.883-0.2c0.786-0.1,1.276-0.401,1.668-0.902c0.491-0.701,1.178-1.103,2.061-1.303l0.688-0.201l-1.374-0.3h-0.196
				c-1.276-0.201-2.16-0.902-2.65-2.005l-5.494-0.803c-0.59,0-1.179,0-1.767,0.101C30.555,81.236,22.41,90.659,17.896,108.5
				c0.59,1.504,1.472,2.706,2.453,3.609c0.393,0.4,0.884,0.701,1.375,0.802c-0.687-0.603-1.276-1.403-1.668-2.406
				c-0.197-1.503,0.196-2.305,1.079-2.506l0.098-0.1c1.374-1.805,2.747-3.509,4.317-5.112c1.669-1.804,3.337-3.509,5.202-5.112
				c3.533-3.207,7.556-5.312,11.971-6.314L43.312,89.856"/>
			<path fill="#66FF00" d="M44.588,88.053c-0.491,0.502-0.884,1.203-1.276,1.904l-0.687,1.403
				c-4.416,1.003-8.438,3.107-11.971,6.314c-1.767,1.604-3.533,3.309-5.202,5.112c5.3-1.202,8.931-2.606,10.696-4.21
				c0.197-1.103,0.883-1.703,1.865-1.804h0.588c0.786-0.4,1.472-0.902,2.159-1.503l1.374-1.504l1.668-2.606l0.099-0.201
				c0.588-1.002,1.275-1.903,1.863-2.706c0.884-1.202,2.16-1.804,3.631-1.904l1.669,0.201c0,0.9,0.098,1.604,0.393,2.204
				c0.196,0.401,0.588,0.401,1.177,0.101c-0.786-1.704-0.883-2.807-0.295-3.509c-0.588-0.2-0.882-0.1-1.177,0.201
				c0.196-0.803,0.393-1.304,0.686-1.604l0.688-0.501c-0.883,0.2-1.472,0.701-2.061,1.302c-0.295,0.502-0.884,0.803-1.669,0.903
				l-0.882,0.199c-1.276,0.401-2.454,1.003-3.337,1.806V88.053"/>
			<path fill="#339900" d="M45.962,88.153c-0.588,0.801-1.276,1.703-1.865,2.706l-0.098,0.2l2.356,0.4l1.275,0.302h0.098
				c0.491-0.401,1.079-0.602,1.668-0.602c0.59,0.101,1.081-0.101,1.374-0.501c-0.196-0.102-0.393-0.201-0.491-0.501
				c0.589,0.1,1.179-0.101,1.669-0.501c0.98,0,1.863-0.302,2.649-1.003L54.5,87.552c-0.59,0.602-0.981,1.003-1.472,1.202
				c-0.588,0.302-0.981,0.302-1.179-0.1c-0.293-0.602-0.391-1.304-0.391-2.206l-1.669-0.2
				C48.022,86.349,46.844,86.949,45.962,88.153"/>
			<path fill="#9900FF" d="M52.83,83.342l-0.686,0.502c-0.295,0.3-0.589,0.801-0.687,1.604c0.196-0.302,0.588-0.302,1.177-0.201
				c0.294-0.401,0.884-0.602,1.57-0.602c0.196,0,0.491,0.1,0.784,0.401c-0.196-1.103-0.687-1.805-1.373-1.905L52.83,83.342"/>
			<path fill="#FF6600" d="M54.891,85.046c-0.293-0.302-0.49-0.401-0.784-0.401c-0.688,0-1.276,0.2-1.57,0.602
				c-0.588,0.702-0.588,1.805,0.293,3.508c0.393-0.199,0.884-0.601,1.472-1.202l0.393-0.501c-0.786-0.102-1.472-0.302-1.963-0.803
				c0.687-0.401,1.472-0.501,2.256-0.3C55.088,85.547,54.989,85.246,54.891,85.046"/>
			<path fill="#336600" d="M50.672,90.659c-0.295,0.4-0.786,0.602-1.375,0.501c-0.588,0-1.177,0.2-1.667,0.602
				c2.158,0.401,4.416-0.401,6.575-2.406c0.196-0.2,0.295-0.501,0.295-0.701c-0.786,0.701-1.669,1.003-2.651,1.003
				c-0.49,0.4-0.981,0.601-1.667,0.501C50.279,90.358,50.476,90.56,50.672,90.659"/>
			<path fill="#330000" d="M52.732,86.349c0.491,0.501,1.177,0.702,1.963,0.802l0.293-0.601v-0.401
				C54.106,85.847,53.419,85.948,52.732,86.349"/>
			<path fill="#CC6633" d="M43.213,95.57c0.688-0.701,1.179-1.303,1.669-2.005l1.373-2.205l-2.354-0.401l-1.669,2.606l-1.373,1.504
				c-0.688,0.601-1.374,1.102-2.16,1.503c0.59,0.302,0.981,0.803,1.276,1.404C41.448,97.074,42.527,96.272,43.213,95.57"/>
			<path fill="#669900" d="M39.878,98.076c-0.295-0.602-0.688-1.103-1.276-1.403h-0.588c-0.981,0.201-1.668,0.802-1.865,1.805
				c-0.098,0.501-0.098,1.002,0,1.703v0.502c0.099,0.501,0.197,0.902,0.295,1.304v0.199l0.686,1.604l0.295,0.502l0.293,0.301
				c0.393-0.501,0.688-0.603,1.081-0.501l0.784-0.102l0.098-0.601C40.074,101.785,40.171,99.981,39.878,98.076"/>
			<path fill="#66CC00" d="M40.171,104.19h-0.49l-0.785,0.101c-0.393-0.2-0.786,0-1.079,0.501c0.588,0.602,1.275,0.902,2.256,1.003
				c0.197,0,0.393-0.101,0.491-0.302l0.098-0.2C40.859,104.49,40.662,104.19,40.171,104.19"/>
			<path fill="#FF6633" d="M39.583,106.896c0.295-0.1,0.588-0.301,0.688-0.701l0.196-0.802c-0.098,0.199-0.295,0.301-0.491,0.301
				c-0.981,0-1.668-0.301-2.258-1.002l-0.293-0.302l-0.295-0.501l-0.686-1.604v0.501c0.098,0.701,0.293,1.403,0.588,2.005
				c-0.295,0.2-0.588,0.302-0.883,0.302l-0.687,0.1c-0.098,0.1-0.098,0.2-0.098,0.3c-0.098,0.302,0,0.602,0.098,0.902
				c0.098,0.2,0,0.302-0.098,0.302l-0.295,0.199c-0.098,0.101-0.098,0.2-0.098,0.401l-3.533-0.201
				c2.355-1.002,4.023-2.505,5.103-4.711c-5.005,2.606-10.009,4.511-15.308,5.714l-0.098,0.101c-0.883,0.2-1.276,1.003-1.079,2.505
				c0.392,1.003,0.981,1.805,1.668,2.406l6.182,0.902c0.981,0.2,1.865,0.602,2.454,1.103l0.098,0.302l3.239-2.708
				c-4.613,0.101-7.36-1.202-8.146-3.908c4.711-1.304,9.421-1.002,14.131,0.701c1.276-0.401,2.453-0.602,3.63-0.602
				c-1.177-0.401-2.354-0.701-3.63-1.002C39.485,107.699,39.485,107.398,39.583,106.896"/>
			<path fill="#66CC00" d="M43.999,113.012l0.196-0.602c0.295-1.705,0-2.907-0.981-3.608c-4.317,3.908-10.989,8.418-20.115,13.431
				c-0.393,0.501-0.59,1.205-0.491,2.207l0.196,0.501c0.196,0.299,0.393,0.502,0.786,0.502l0.687,0.099h0.098h0.098
				c2.257-1.203,4.514-2.307,6.771-3.208c3.434-1.503,6.476-3.508,9.028-5.913l3.433-2.907L43.999,113.012"/>
			<path fill="#FF6633" d="M43.802,113.413L43.802,113.413l-3.531,3.007c-0.1,0.603-0.197,1.104-0.393,1.504l-0.981,1.504
				l-0.981,1.002l0.687-0.202c0.688-0.701,1.276-1.504,1.963-2.405c0.491-0.701,1.079-1.301,1.668-1.703
				c0.883-0.601,1.865-1.003,2.944-1.203C44.392,114.615,43.999,114.114,43.802,113.413"/>
			<path fill="#FF9900" d="M43.213,108.802c-1.177,0-2.354,0.2-3.63,0.602c-2.158,0.701-4.121,1.803-5.986,3.207l-3.238,2.706l0,0
				c-2.256,1.805-4.514,3.908-6.673,6.414C30.653,114.815,37.129,110.505,43.213,108.802"/>
			<path fill="#FF6633" d="M48.709,115.519h-0.293c-1.179-0.402-2.454-0.304-3.73,0.299c-1.275,0.603-2.453,1.402-3.435,2.205
				c-0.491,0.402-0.882,0.803-1.177,1.104l-0.883,1.003c0.883-0.403,1.767-1.003,2.551-1.704c0.197-0.202,0.393-0.301,0.59-0.402
				c0.882-0.4,1.667-0.803,2.551-1l1.963-0.202c0.588,0,0.98,0.202,1.373,0.501C48.218,116.318,48.416,115.817,48.709,115.519"/>
			<path fill="#CC6633" d="M49.788,118.523c-0.588,0.302-1.373,0.402-2.158,0.302h-1.177l2.256,0.501
				c0.588,0.102,0.981,0.301,1.374,0.701C49.788,119.726,49.592,119.225,49.788,118.523"/>
			<path fill="#FFCC00" d="M47.63,118.926c0.786,0.099,1.57,0,2.158-0.301c-0.293-0.701-0.784-1.104-1.472-1.304
				c-0.392-0.299-0.882-0.501-1.373-0.501l-1.963,0.202c-0.883,0.197-1.767,0.6-2.551,1c-0.197,0.102-0.295,0.2-0.588,0.402
				c-0.786,0.701-1.669,1.301-2.551,1.704l-0.59,0.199l-0.687,0.2l-0.786,0.501c3.239-0.9,5.202-0.701,6.084,0.502
				c0.59-0.601,1.178-0.901,1.669-0.803h0.687l4.612,0.603h0.098h0.688c-0.197-0.603-0.588-1.003-0.883-1.402
				c-0.393-0.302-0.884-0.603-1.375-0.704l-2.256-0.501L47.63,118.926"/>
			<path fill="#FF6633" d="M50.377,121.433c-0.491,1.802-2.061,1.503-4.808-0.603l4.612,0.603H50.377"/>
			<path fill="#CC6633" d="M46.158,114.815l-1.079,0.101c-1.08,0.2-2.061,0.603-2.944,1.203c-0.588,0.402-1.079,1.002-1.667,1.703
				c-0.589,0.901-1.276,1.704-1.963,2.405l0.588-0.2l0.884-1.003c0.295-0.301,0.686-0.701,1.177-1.101
				c0.981-0.901,2.159-1.605,3.435-2.208c1.276-0.6,2.551-0.698,3.729-0.298C47.826,115.018,47.041,114.815,46.158,114.815"/>
			<path fill="#FF9933" d="M36.541,102.286v-0.2c-0.098-0.401-0.196-0.803-0.293-1.304v-0.501c-0.099-0.602,0-1.202,0-1.704
				c-1.767,1.604-5.397,3.008-10.697,4.21c-1.471,1.604-2.943,3.308-4.317,5.112C26.434,106.797,31.536,104.892,36.541,102.286
				L36.541,102.286"/>
			<path fill="#9900FF" d="M25.55,108.702c0.786,2.706,3.533,4.008,8.146,3.908c1.863-1.404,3.826-2.506,5.985-3.207
				C34.873,107.598,30.164,107.398,25.55,108.702"/>
			<path fill="#00FF00" d="M15.738,110.004c0.197,0,0.393-0.1,0.491-0.301c0.196-0.2,0.295-0.4,0.295-0.602l0.589-2.205
				c-0.589-3.107-0.393-6.716,0.588-10.825c-0.981,3.308-2.061,7.317-3.14,11.928l0.196,1.604v0.101
				C14.954,110.004,15.345,110.104,15.738,110.004"/>
			<path fill="#66FF00" d="M36.639,121.229l-5.396,1.104c-2.258,1.003-4.514,2.005-6.771,3.208c9.616,1.202,15.897-0.2,18.742-4.01
				c-0.784-1.304-2.845-1.504-6.084-0.502L36.639,121.229"/>
			<path fill="#FFCC00" d="M23.687,121.629l-0.588,0.604c9.027-5.013,15.798-9.522,20.115-13.431
				C37.129,110.505,30.653,114.815,23.687,121.629"/>
			<path fill="#9900FF" d="M18.191,102.286c0.981-3.608,2.355-7.217,3.925-10.926c0.392-2.907,0.392-4.411,0-4.31
				C21.038,86.649,19.761,91.762,18.191,102.286"/>
			<path vector-effect="non-scaling-stroke" fill="none" stroke="#00CC00" stroke-linecap="round" stroke-linejoin="round" d="
				M42.134,80.134c0.588,0,1.177-0.101,1.767-0.101 M36.443,80.535l0.784-0.101"/>
			<path vector-effect="non-scaling-stroke" fill="none" stroke="#00CC00" stroke-linecap="round" stroke-linejoin="round" d="
				M17.896,108.5c2.061-13.431,8.244-22.853,18.547-28.065"/>
			<path vector-effect="non-scaling-stroke" fill="none" stroke="#00CC00" stroke-linecap="round" stroke-linejoin="round" d="
				M17.896,108.5c4.612-17.841,12.659-27.364,24.238-28.366"/>
			<path vector-effect="non-scaling-stroke" fill="none" stroke="#00CC00" stroke-linecap="round" stroke-linejoin="round" d="
				M43.312,89.856c0.393-0.701,0.786-1.302,1.276-1.904l0.393-0.4c0.884-0.803,1.963-1.403,3.336-1.805l0.883-0.2
				c0.786-0.1,1.276-0.401,1.668-0.902c0.491-0.701,1.178-1.103,2.061-1.303 M42.625,91.36l0.687-1.403"/>
			<path vector-effect="non-scaling-stroke" fill="none" stroke="#00CC00" stroke-linecap="round" stroke-linejoin="round" d="
				M47.63,91.762c0.491-0.401,1.079-0.602,1.667-0.602c0.589,0.101,1.08-0.101,1.375-0.501c-0.196-0.102-0.393-0.201-0.491-0.501
				c0.588,0.1,1.177-0.101,1.667-0.501c0.981,0,1.865-0.302,2.651-1.003"/>
			<path vector-effect="non-scaling-stroke" fill="none" stroke="#00CC00" stroke-linecap="round" stroke-linejoin="round" d="
				M37.129,121.029c3.239-0.9,5.202-0.701,6.084,0.502"/>
			<path fill="#66FF00" d="M96.006,56.178c0.1-0.902-0.293-1.504-0.98-1.804l-1.962-0.501c-0.981,0-1.767,0.4-2.356,1.302
				l-0.098,0.201L96.006,56.178"/>
			<path fill="#66CC00" d="M98.853,58.283h-0.196c-1.276-0.2-2.16-0.903-2.651-2.005l-5.494-0.801c-0.59,0-1.179,0-1.767,0.1
				c-11.58,1.102-19.724,10.524-24.238,28.367c0.589,1.504,1.472,2.706,2.454,3.608c0.393,0.4,0.883,0.701,1.374,0.802
				c-0.688-0.602-1.276-1.404-1.667-2.405c-0.197-1.504,0.196-2.306,1.079-2.506l0.098-0.101c1.375-1.805,2.747-3.508,4.317-5.111
				c1.669-1.806,3.337-3.509,5.202-5.113c3.533-3.207,7.556-5.312,11.971-6.314l0.688-1.404c0.391-0.701,0.784-1.304,1.275-1.905
				l0.393-0.401c0.884-0.801,1.963-1.402,3.336-1.803l0.883-0.2c0.786-0.101,1.276-0.401,1.668-0.902
				c0.491-0.701,1.178-1.103,2.062-1.304l0.686-0.2L98.853,58.283"/>
			<path fill="#9900FF" d="M99.539,58.784l-0.686,0.501c-0.295,0.301-0.589,0.802-0.687,1.604c0.196-0.3,0.588-0.3,1.177-0.2
				c0.295-0.401,0.883-0.602,1.57-0.602c0.197,0,0.491,0.1,0.786,0.4c-0.197-1.103-0.688-1.804-1.375-1.903L99.539,58.784"/>
			<path fill="#66FF00" d="M98.853,59.185l0.686-0.501c-0.882,0.2-1.472,0.701-2.061,1.303c-0.293,0.501-0.882,0.802-1.667,0.902
				l-0.884,0.201c-1.275,0.4-2.453,1.001-3.335,1.804l-0.393,0.401c-0.491,0.501-0.883,1.202-1.276,1.905l-0.686,1.402
				c-4.417,1.002-8.439,3.107-11.972,6.314c-1.766,1.604-3.533,3.309-5.201,5.112c5.3-1.202,8.93-2.605,10.696-4.209
				c0.197-1.102,0.884-1.704,1.865-1.803h0.588c0.786-0.401,1.472-0.903,2.158-1.504l1.375-1.503l1.667-2.606l0.1-0.201
				c0.588-1.001,1.275-1.903,1.863-2.706c0.884-1.202,2.16-1.803,3.63-1.903l1.669,0.2c0,0.903,0.098,1.604,0.392,2.205
				c0.197,0.401,0.59,0.401,1.178,0.1c-0.786-1.704-0.883-2.806-0.295-3.507c-0.588-0.202-0.883-0.102-1.177,0.2
				C98.362,60.087,98.558,59.486,98.853,59.185"/>
			<path fill="#330000" d="M101.404,62.492l0.295-0.601V61.49c-0.884-0.2-1.669-0.1-2.258,0.301
				C99.932,62.192,100.62,62.392,101.404,62.492"/>
			<path fill="#FF6600" d="M101.699,61.39c0-0.501,0-0.801-0.1-1.002c-0.293-0.3-0.49-0.401-0.784-0.401
				c-0.686,0-1.276,0.201-1.57,0.603c-0.588,0.701-0.588,1.803,0.293,3.507c0.393-0.2,0.884-0.601,1.472-1.202l0.393-0.501
				c-0.785-0.1-1.472-0.301-1.963-0.801C100.129,61.29,100.914,61.19,101.699,61.39"/>
			<path fill="#339900" d="M94.241,67.103L94.241,67.103c0.589-0.3,1.08-0.501,1.766-0.501c0.59,0.1,1.081-0.1,1.375-0.501
				c-0.196-0.1-0.393-0.2-0.491-0.501c0.588,0.102,1.177-0.1,1.667-0.501c0.981,0,1.865-0.3,2.651-1.002l-0.099-1.102
				c-0.589,0.601-0.98,1.002-1.471,1.204c-0.59,0.3-0.981,0.3-1.179-0.102c-0.293-0.601-0.393-1.302-0.393-2.205l-1.668-0.2
				c-1.472,0.1-2.649,0.701-3.63,1.903c-0.589,0.802-1.276,1.705-1.865,2.708l-0.098,0.2l2.355,0.401L94.241,67.103"/>
			<path fill="#336600" d="M96.006,66.502c-0.588,0-1.177,0.2-1.667,0.601c2.158,0.401,4.416-0.401,6.575-2.404
				c0.196-0.202,0.295-0.501,0.295-0.703c-0.786,0.703-1.669,1.002-2.651,1.002c-0.49,0.401-0.981,0.601-1.667,0.501
				c0.098,0.301,0.295,0.401,0.491,0.501C97.087,66.402,96.597,66.602,96.006,66.502"/>
			<path fill="#669900" d="M83.938,55.776l-0.786,0.1C72.849,61.09,66.667,70.412,64.607,83.943
				c4.612-17.843,12.657-27.364,24.236-28.367L83.938,55.776"/>
			<path fill="#66CC00" d="M83.152,55.876l-2.061,0.401c-1.375,0.301-2.649,0.703-3.828,1.304c-0.687-0.501-1.373-0.903-1.961-1.002
				l-0.786,0.1c-0.589,0.302-0.981,1.002-1.08,1.905c0,0.501-0.098,0.801-0.197,1.103c-0.196,0.3-0.196,0.601,0,0.902l-1.57,1.502
				c-0.882,0.903-1.471,1.705-1.766,2.306l-0.098,0.302l-0.981,2.104c-1.669,3.708-2.944,7.317-3.925,10.925l-1.079,4.51
				c0.195,1.304,0.49,1.905,0.784,1.705C66.568,70.412,72.849,61.09,83.152,55.876"/>
			<path fill="#CC6633" d="M92.964,66.803l-2.354-0.401l-1.668,2.606l-1.374,1.503c-0.688,0.601-1.374,1.103-2.16,1.504
				c0.59,0.3,0.981,0.801,1.276,1.402c1.57-1.002,2.649-1.904,3.337-2.505c0.686-0.703,1.177-1.304,1.667-2.005L92.964,66.803"/>
			<path fill="#669900" d="M85.409,72.115H84.82c-0.981,0.2-1.667,0.801-1.863,1.804c-0.098,0.501-0.098,1.002,0,1.705v0.501
				c0.098,0.501,0.196,0.901,0.293,1.303v0.201l0.688,1.604l0.293,0.501l0.295,0.3c0.393-0.501,0.687-0.601,1.079-0.501l0.785-0.1
				l0.099-0.602c0.293-1.703,0.391-3.508,0.196-5.413C86.39,72.917,85.899,72.416,85.409,72.115"/>
			<path fill="#66CC00" d="M86.88,79.532h-0.49l-0.785,0.101c-0.393-0.2-0.786,0-1.079,0.501c0.588,0.601,1.275,0.902,2.256,1.002
				c0.197,0,0.393-0.1,0.491-0.3l0.098-0.201C87.568,79.934,87.371,79.532,86.88,79.532"/>
			<path fill="#FF9933" d="M83.25,77.629v-0.201c-0.098-0.401-0.196-0.802-0.293-1.303v-0.501c-0.098-0.603,0-1.204,0-1.705
				c-1.767,1.604-5.397,3.008-10.696,4.211c-1.472,1.604-2.944,3.308-4.318,5.111C73.143,82.238,78.245,80.335,83.25,77.629
				L83.25,77.629"/>
			<path fill="#FF6633" d="M83.25,77.629v0.501c0.098,0.701,0.295,1.303,0.589,2.004c-0.294,0.201-0.589,0.301-0.882,0.301
				l-0.688,0.101c-0.098,0.1-0.098,0.199-0.098,0.301c-0.098,0.3,0,0.602,0.098,0.901c0.1,0.201,0,0.301-0.098,0.301l-0.293,0.2
				c-0.1,0.102-0.1,0.201-0.1,0.401l-3.533-0.2C80.405,81.438,82.073,79.834,83.25,77.629c-5.005,2.606-10.107,4.51-15.308,5.713
				l-0.098,0.101c-0.883,0.2-1.276,1.002-1.079,2.506c0.392,1.001,0.981,1.804,1.668,2.405l6.182,0.902
				c0.981,0.199,1.865,0.601,2.454,1.103l0.098,0.301l3.239-2.707c-4.612,0.101-7.36-1.203-8.145-3.909
				c4.709-1.304,9.419-1.002,14.129,0.701c1.276-0.399,2.453-0.601,3.632-0.601c-1.179-0.401-2.356-0.701-3.632-1.003
				c-0.196-0.199-0.196-0.501,0-1.002c0.295-0.101,0.59-0.3,0.688-0.701l0.196-0.803c-0.098,0.201-0.293,0.302-0.491,0.302
				c-0.981,0-1.668-0.302-2.256-1.003l-0.295-0.301l-0.293-0.502L83.25,77.629"/>
			<path fill="#FF9900" d="M77.166,90.659L77.166,90.659c-2.256,1.804-4.514,3.908-6.771,6.415
				c6.968-6.916,13.542-11.228,19.527-12.831c-1.177,0-2.354,0.201-3.63,0.602c-2.158,0.702-4.121,1.805-5.986,3.208L77.166,90.659"
				/>
			<path fill="#FF6633" d="M90.513,88.854L90.513,88.854l-3.533,3.007c-0.1,0.602-0.197,1.103-0.393,1.504l-0.981,1.504
				l-0.981,1.002l0.686-0.201c0.688-0.701,1.276-1.504,1.963-2.404c0.491-0.703,1.079-1.304,1.668-1.705
				c0.883-0.602,1.865-1.001,2.944-1.202C91.101,90.058,90.708,89.557,90.513,88.854"/>
			<path fill="#66CC00" d="M90.413,88.854l0.295-0.501l0.196-0.602c0.295-1.704,0-2.907-0.981-3.608
				c-4.317,3.909-10.989,8.419-20.115,13.432c-0.393,0.501-0.588,1.202-0.491,2.204l0.196,0.502
				c0.197,0.301,0.393,0.501,0.786,0.501l0.687,0.1h0.098h0.098c2.257-1.202,4.514-2.305,6.771-3.207
				c3.435-1.504,6.477-3.509,9.028-5.913L90.413,88.854"/>
			<path fill="#CC6633" d="M92.867,90.258l-1.079,0.101c-1.08,0.201-2.061,0.601-2.944,1.202c-0.588,0.401-1.079,1.002-1.667,1.705
				c-0.589,0.9-1.276,1.703-1.963,2.404l0.588-0.2l0.884-1.002c0.295-0.302,0.686-0.701,1.177-1.103
				c0.981-0.902,2.16-1.604,3.435-2.205c1.276-0.603,2.551-0.702,3.729-0.301C94.536,90.458,93.75,90.258,92.867,90.258"/>
			<path fill="#9900FF" d="M80.405,87.952c1.863-1.402,3.826-2.505,5.985-3.208c-4.71-1.803-9.42-2.005-14.129-0.701
				C73.045,86.85,75.694,88.153,80.405,87.952"/>
			<path fill="#FF6633" d="M95.418,90.959h-0.293c-1.179-0.399-2.454-0.3-3.73,0.302c-1.275,0.601-2.453,1.403-3.433,2.204
				c-0.491,0.401-0.884,0.803-1.179,1.103l-0.883,1.003c0.883-0.401,1.767-1.003,2.553-1.704c0.195-0.201,0.391-0.301,0.588-0.401
				c0.882-0.4,1.667-0.801,2.551-1.002l1.963-0.2c0.588,0,0.981,0.2,1.373,0.501C94.927,91.762,95.125,91.16,95.418,90.959"/>
			<path fill="#FF6633" d="M67.647,57.38l-0.196-0.1h-0.098c-0.393,0-0.588,0.1-0.786,0.301l-0.293,0.601l0,0
				c0,0.601,0.196,1.002,0.393,1.103c-0.295,0.201-0.59,0.401-0.884,0.802l-0.098,0.2c-0.491,1.304-0.688,3.307-0.491,6.015
				l1.177-3.209v-0.601c0.098-0.601,0.195-1.302,0.491-1.903c0.195-0.301,0.195-0.603,0.293-1.002h0.393
				c0.393-0.1,0.688-0.301,0.688-0.903v-0.601C68.138,57.681,67.942,57.481,67.647,57.38"/>
			<path fill="#FF6633" d="M65.489,55.876c0-0.3-0.196-0.5-0.393-0.701c-0.196-0.3-0.489-0.401-0.785-0.401
				c-0.295,0-0.588,0.102-0.786,0.401c-0.195,0.301-0.293,0.601-0.293,1.002s0.098,0.701,0.293,0.902l0.295,0.2l0.588,0.201
				L64.9,57.38l0.295-0.3c0.196-0.201,0.392-0.501,0.392-0.902v-0.301"/>
			<path fill="#66CC00" d="M64.312,57.38l-0.588-0.2c0.393,3.207,0.491,7.317,0.196,12.529l1.079-3.509
				c-0.196-2.706-0.098-4.711,0.491-6.013l0.098-0.201c0.295-0.4,0.59-0.602,0.883-0.801c-0.196-0.2-0.393-0.501-0.393-1.103
				l-0.491,0.501l-0.589,0.501l-0.196-1.905L64.312,57.38"/>
			<path fill="#CC6633" d="M65.096,56.98l-0.294,0.3l0.196,1.905l0.589-0.501l0.491-0.501l0,0l0.295-0.601
				c-0.098-0.903-0.393-1.404-1.08-1.705v0.201C65.489,56.479,65.391,56.779,65.096,56.98"/>
			<path fill="#FF6633" d="M71.082,58.584c-0.196-0.301-0.491-0.501-0.784-0.501l-0.786,0.2l-0.491,0.501l0.491,0.1
				c0.295,0.102,0.491,0.201,0.588,0.401l0.197,0.301c0.293,0,0.588-0.1,0.784-0.301C71.279,59.085,71.279,58.784,71.082,58.584"/>
			<path fill="#FF9900" d="M70.396,59.986v-0.4L70.2,59.285c-0.197-0.2-0.393-0.3-0.59-0.401c-1.275,0.803-3.042,4.912-5.2,12.429
				c-0.884,4.11-1.079,7.718-0.588,10.826l1.079-4.51c1.57-10.526,2.846-15.638,3.925-15.336c0.393-0.1,0.393,1.404,0,4.31
				l0.981-2.105l-0.197-0.601c-0.098-0.2-0.195-0.601-0.098-1.002l0.098-1.103L70.396,59.986"/>
			<path fill="#CC6633" d="M68.335,57.983h-0.197v0.601c-0.098,0.501-0.294,0.801-0.687,0.902h-0.393c0,0.4-0.098,0.701-0.293,1.001
				c-0.197,0.603-0.393,1.304-0.491,1.905v0.602c0.491-1.203,1.079-2.305,1.57-3.208l0.491-0.701l0.393-0.201l0.391-0.1l0.491-0.501
				c-0.098-0.401-0.293-0.602-0.588-0.501L68.335,57.983"/>
			<path fill="#336600" d="M68.629,58.884l-0.392,0.201l-0.491,0.701c-0.59,0.903-1.079,2.005-1.57,3.208l-1.179,3.207l-1.079,3.509
				c-0.981,3.81-1.963,8.319-2.846,13.632c1.178-4.61,2.16-8.62,3.141-11.928c2.159-7.518,3.924-11.728,5.201-12.429l-0.491-0.102
				H68.629"/>
			<path fill="#669900" d="M69.709,61.891l-0.1,1.103c0,0.401,0,0.802,0.1,1.002l0.196,0.601c0.393-2.305,0.588-3.809,0.588-4.611
				L69.709,61.891"/>
			<path fill="#9900FF" d="M68.826,66.803c0.393-2.907,0.393-4.411,0-4.311c-1.079-0.3-2.355,4.813-3.925,15.337
				C65.882,74.12,67.256,70.512,68.826,66.803"/>
			<path fill="#00FF00" d="M62.938,85.046c0.197-0.201,0.295-0.401,0.295-0.602l0.589-2.206c-0.589-3.107-0.393-6.716,0.588-10.824
				c-0.981,3.308-2.061,7.317-3.14,11.928l0.196,1.604v0.1c0.197,0.3,0.589,0.401,0.981,0.3
				C62.644,85.346,62.84,85.246,62.938,85.046"/>
			<path fill="#FFCC00" d="M70.396,97.074l-0.588,0.601c9.028-5.011,15.798-9.521,20.115-13.432
				C83.938,85.847,77.363,90.158,70.396,97.074"/>
			<path fill="#FFCC00" d="M95.026,92.664c-0.393-0.301-0.883-0.501-1.374-0.501l-1.963,0.2c-0.883,0.199-1.767,0.601-2.551,1.002
				c-0.196,0.1-0.295,0.2-0.588,0.401c-0.786,0.701-1.669,1.303-2.551,1.703l-0.59,0.2l-0.687,0.201l-0.784,0.502
				c3.238-0.903,5.2-0.703,6.084,0.501c0.588-0.602,1.177-0.803,1.667-0.803h0.687l4.612,0.602h0.098h0.688
				c-0.197-0.602-0.588-1.003-0.883-1.402c-0.393-0.302-0.884-0.603-1.374-0.703l-2.256-0.501h1.177c0.786,0.1,1.57,0,2.16-0.3
				C96.204,93.266,95.713,92.864,95.026,92.664"/>
			<path fill="#CC6633" d="M94.339,94.268h-1.177l2.256,0.501c0.588,0.101,0.981,0.301,1.374,0.701
				c-0.393-0.4-0.49-0.902-0.393-1.503C95.811,94.268,95.125,94.368,94.339,94.268"/>
			<path fill="#FF6633" d="M97.087,96.874c-0.491,1.804-2.061,1.504-4.809-0.602l4.612,0.602H97.087"/>
			<path fill="#66FF00" d="M83.938,96.473l-0.59,0.2l-5.396,1.102c-2.258,1.003-4.514,2.005-6.771,3.209
				c9.617,1.202,15.897-0.201,18.742-4.01C89.138,95.67,87.078,95.47,83.938,96.473"/>
			<path vector-effect="non-scaling-stroke" fill="none" stroke="#00CC00" stroke-linecap="round" stroke-linejoin="round" d="
				M88.843,55.577c0.589,0,1.179-0.1,1.767-0.1 M83.152,55.876l0.786-0.1"/>
			<path vector-effect="non-scaling-stroke" fill="none" stroke="#00CC00" stroke-linecap="round" stroke-linejoin="round" d="
				M88.843,55.577c-11.579,1.102-19.724,10.524-24.236,28.367 M89.334,66.702l0.688-1.402c0.391-0.703,0.784-1.304,1.275-1.905
				l0.393-0.401c0.884-0.801,1.963-1.402,3.336-1.804l0.883-0.201c0.786-0.1,1.276-0.4,1.668-0.901
				c0.491-0.703,1.178-1.102,2.062-1.304"/>
			<path vector-effect="non-scaling-stroke" fill="none" stroke="#00CC00" stroke-linecap="round" stroke-linejoin="round" d="
				M94.339,67.103c0.491-0.401,1.079-0.601,1.667-0.601c0.59,0.1,1.081-0.1,1.375-0.501c-0.196-0.1-0.393-0.2-0.491-0.501
				c0.588,0.1,1.177-0.1,1.667-0.501c0.981,0,1.865-0.3,2.651-1.002"/>
			<path vector-effect="non-scaling-stroke" fill="none" stroke="#00CC00" stroke-linecap="round" stroke-linejoin="round" d="
				M83.152,55.876C72.849,61.09,66.667,70.412,64.607,83.943"/>
			<path vector-effect="non-scaling-stroke" fill="none" stroke="#00CC00" stroke-linecap="round" stroke-linejoin="round" d="
				M83.938,96.473c3.238-0.902,5.2-0.701,6.084,0.501"/>
			<path fill="#FF6633" d="M106.998,78.831c-0.196,0.3-0.294,0.602-0.294,1.003s0.098,0.701,0.294,0.9l0.295,0.202l0.588,0.199
				l0.491-0.1l0.293-0.302c0.197-0.199,0.393-0.499,0.393-0.9v-0.201c0-0.301-0.196-0.502-0.393-0.701
				c-0.196-0.302-0.491-0.401-0.784-0.401C107.488,78.43,107.193,78.63,106.998,78.831"/>
			<path fill="#CC6633" d="M108.862,79.633v0.201c0,0.401-0.098,0.701-0.393,0.9l-0.295,0.302l0.197,1.905l0.588-0.502l0.491-0.501
				l0,0l0.294-0.602C109.844,80.435,109.549,79.834,108.862,79.633"/>
			<path fill="#FF6633" d="M111.119,81.136l-0.196-0.1h-0.197c-0.391,0-0.588,0.1-0.784,0.301l-0.295,0.602l0,0
				c0,0.602,0.197,1.003,0.393,1.103c-0.295,0.2-0.589,0.401-0.884,0.803l-0.098,0.199c-0.491,1.303-0.687,3.308-0.491,6.015
				l1.177-3.208v-0.602c0.099-0.601,0.197-1.302,0.491-1.903c0.197-0.302,0.197-0.603,0.295-1.003h0.393
				c0.393-0.101,0.687-0.301,0.687-0.902v-0.601C111.511,81.438,111.414,81.236,111.119,81.136"/>
			<path fill="#66CC00" d="M109.549,81.839l-0.491,0.501l-0.589,0.501l-0.195-1.904l-0.491,0.1l-0.59-0.2
				c0.393,3.207,0.49,7.317,0.197,12.529l1.079-3.509c-0.195-2.706-0.098-4.711,0.491-6.013l0.098-0.201
				c0.295-0.401,0.588-0.602,0.883-0.802C109.745,82.841,109.646,82.439,109.549,81.839"/>
			<path fill="#CC6633" d="M110.432,83.241c0,0.401-0.098,0.702-0.295,1.002c-0.196,0.602-0.393,1.304-0.491,1.905v0.601
				c0.491-1.202,1.079-2.305,1.57-3.207l0.491-0.701l0.393-0.201l0.393-0.1l0.491-0.502c-0.098-0.4-0.295-0.601-0.588-0.501
				l-0.588,0.2h-0.197v0.603c-0.098,0.501-0.293,0.801-0.687,0.901H110.432"/>
			<path fill="#336600" d="M109.745,86.85l-1.177,3.208l-1.079,3.508c-0.981,3.81-1.963,8.319-2.847,13.633
				c1.179-4.611,2.16-8.621,3.142-11.928c2.158-7.519,3.924-11.729,5.2-12.43l-0.491-0.102l-0.393,0.102l-0.393,0.2l-0.491,0.701
				C110.726,84.545,110.235,85.547,109.745,86.85"/>
			<path fill="#669900" d="M127.31,79.532l-0.783,0.101c-10.306,5.212-16.487,14.533-18.548,28.066
				c4.612-17.843,12.66-27.364,24.238-28.367L127.31,79.532"/>
			<path fill="#66CC00" d="M118.772,80.335l-0.784,0.1c-0.588,0.3-0.981,1.003-1.079,1.905c0,0.501-0.1,0.801-0.197,1.103
				c-0.196,0.3-0.196,0.601,0,0.902l-1.57,1.502c-0.884,0.902-1.472,1.705-1.766,2.307l-0.098,0.3l-0.981,2.106
				c-1.669,3.708-2.944,7.316-3.925,10.925l-1.079,4.51c0.196,1.304,0.491,1.905,0.784,1.705
				c2.061-13.432,8.242-22.854,18.547-28.066l-2.059,0.4c-1.376,0.302-2.652,0.701-3.829,1.304
				C119.95,80.734,119.36,80.435,118.772,80.335"/>
			<path fill="#FF6633" d="M114.553,82.238c-0.195-0.3-0.491-0.501-0.786-0.501l-0.784,0.201l-0.491,0.501l0.491,0.101
				c0.295,0.1,0.491,0.199,0.589,0.401l0.195,0.3c0.295,0,0.59-0.101,0.786-0.3C114.749,82.841,114.749,82.54,114.553,82.238"/>
			<path fill="#FF9900" d="M113.768,83.742v-0.4l-0.195-0.301c-0.196-0.2-0.393-0.302-0.589-0.401
				c-1.276,0.803-3.042,4.912-5.2,12.43c-0.884,4.109-1.08,7.718-0.59,10.825l1.081-4.511c1.57-10.524,2.845-15.637,3.924-15.336
				c0.393-0.1,0.393,1.402,0,4.311l0.981-2.105l-0.196-0.601c-0.098-0.202-0.196-0.602-0.098-1.003l0.098-1.103L113.768,83.742"/>
			<path fill="#669900" d="M113.768,83.742l-0.686,1.905l-0.098,1.102c0,0.401,0,0.803,0.098,1.003l0.197,0.602
				C113.67,86.048,113.768,84.545,113.768,83.742"/>
			<path fill="#9900FF" d="M112.297,90.458c0.392-2.906,0.392-4.41,0-4.31c-1.081-0.302-2.355,4.811-3.925,15.336
				C109.353,97.876,110.628,94.166,112.297,90.458"/>
			<path fill="#66FF00" d="M138.497,78.13l-1.963-0.501c-0.981,0-1.764,0.399-2.354,1.303l-0.1,0.199l5.497,0.803
				C139.478,79.031,139.186,78.43,138.497,78.13"/>
			<path fill="#66CC00" d="M133.981,79.131c-0.587,0-1.174,0-1.764,0.102c-11.578,1.103-19.724,10.524-24.238,28.365
				c0.588,1.504,1.472,2.708,2.453,3.608c0.393,0.401,0.884,0.703,1.375,0.803c-0.688-0.601-1.276-1.403-1.669-2.406
				c-0.196-1.503,0.197-2.305,1.079-2.506l0.1-0.1c1.373-1.804,2.747-3.509,4.317-5.112c1.667-1.804,3.337-3.507,5.199-5.111
				c3.534-3.208,7.559-5.313,11.975-6.315l0.684-1.402c0.395-0.702,0.789-1.304,1.279-1.905l0.392-0.401
				c0.882-0.801,1.962-1.403,3.335-1.803l0.882-0.202c0.786-0.1,1.276-0.399,1.671-0.9c0.491-0.703,1.177-1.104,2.059-1.304
				l0.687-0.2l-1.373-0.302h-0.295c-1.276-0.199-2.158-0.902-2.649-2.005L133.981,79.131"/>
			<path fill="#339900" d="M134.18,89.957l-0.1,0.201l2.354,0.399l1.279,0.302h0.097c0.491-0.401,1.078-0.602,1.668-0.602
				c0.59,0.101,1.081-0.1,1.373-0.501c-0.196-0.1-0.392-0.2-0.491-0.501c0.59,0.1,1.18-0.101,1.671-0.502
				c0.981,0,1.863-0.301,2.646-1.002l-0.096-1.103c-0.587,0.602-0.981,1.003-1.472,1.202c-0.587,0.302-0.981,0.302-1.177-0.1
				c-0.295-0.602-0.391-1.304-0.391-2.205l-1.671-0.201c-1.472,0.102-2.646,0.702-3.627,1.905
				C135.453,88.053,134.77,88.954,134.18,89.957"/>
			<path fill="#66FF00" d="M134.08,90.158l0.1-0.201c0.59-1.003,1.273-1.904,1.863-2.706c0.882-1.203,2.161-1.804,3.631-1.905
				l1.667,0.201c0,0.902,0.099,1.604,0.394,2.205c0.196,0.401,0.587,0.401,1.177,0.1c-0.786-1.703-0.882-2.806-0.295-3.507
				c-0.587-0.201-0.882-0.102-1.177,0.2c0.196-0.803,0.392-1.304,0.687-1.604l0.687-0.502c-0.882,0.2-1.472,0.701-2.059,1.303
				c-0.295,0.501-0.885,0.803-1.668,0.902l-0.882,0.2c-1.279,0.401-2.453,1.002-3.338,1.805l-0.394,0.401
				c-0.491,0.501-0.882,1.202-1.273,1.903l-0.689,1.404c-4.413,1.002-8.435,3.106-11.969,6.314
				c-1.767,1.604-3.533,3.309-5.201,5.112c5.3-1.203,8.928-2.606,10.697-4.21c0.193-1.103,0.882-1.704,1.864-1.804h0.587
				c0.786-0.401,1.472-0.902,2.159-1.504l1.373-1.504L134.08,90.158"/>
			<path fill="#CC6633" d="M136.435,90.56l-2.354-0.401l-1.667,2.605l-1.373,1.504c-0.686,0.602-1.375,1.103-2.158,1.504
				c0.587,0.3,0.981,0.801,1.273,1.402c1.571-1.003,2.652-1.903,3.335-2.506c0.689-0.701,1.18-1.303,1.671-2.004L136.435,90.56"/>
			<path fill="#9900FF" d="M144.286,83.742c0.198,0,0.491,0.102,0.786,0.401c-0.196-1.103-0.687-1.804-1.375-1.905l-0.684,0.201
				l-0.689,0.502c-0.292,0.3-0.587,0.801-0.687,1.604c0.196-0.302,0.59-0.302,1.177-0.2
				C143.108,83.943,143.599,83.742,144.286,83.742"/>
			<path fill="#FF6600" d="M145.071,84.243c-0.295-0.3-0.491-0.399-0.786-0.399c-0.687,0-1.274,0.199-1.569,0.601
				c-0.59,0.701-0.59,1.804,0.295,3.508c0.392-0.2,0.882-0.602,1.472-1.203l0.392-0.501c-0.786-0.1-1.472-0.3-1.963-0.801
				c0.687-0.401,1.472-0.501,2.255-0.302C145.167,84.645,145.167,84.345,145.071,84.243"/>
			<path fill="#330000" d="M145.167,85.547v-0.401c-0.882-0.199-1.665-0.1-2.255,0.302c0.491,0.501,1.177,0.701,1.963,0.801
				L145.167,85.547"/>
			<path fill="#336600" d="M140.851,89.757c-0.292,0.401-0.783,0.602-1.373,0.501c-0.59,0-1.177,0.2-1.668,0.602
				c2.159,0.401,4.416-0.401,6.575-2.406c0.196-0.2,0.292-0.501,0.292-0.701c-0.783,0.701-1.665,1.002-2.646,1.002
				c-0.491,0.401-0.981,0.602-1.671,0.502C140.459,89.557,140.559,89.757,140.851,89.757"/>
			<path fill="#669900" d="M129.763,103.288l0.1-0.601c0.292-1.704,0.391-3.509,0.195-5.414c-0.295-0.601-0.686-1.103-1.276-1.402
				h-0.59c-0.981,0.2-1.665,0.802-1.863,1.804c-0.099,0.501-0.099,1.003,0,1.704v0.501c0.099,0.501,0.198,0.902,0.295,1.304v0.2
				l0.687,1.604l0.295,0.5l0.295,0.301c0.392-0.501,0.687-0.601,1.078-0.501H129.763"/>
			<path fill="#66CC00" d="M130.254,103.288h-0.491l-0.786,0.101c-0.391-0.2-0.786,0-1.078,0.501
				c0.587,0.601,1.273,0.902,2.255,1.002c0.199,0,0.394-0.1,0.491-0.3l0.099-0.201C130.94,103.689,130.844,103.288,130.254,103.288"
				/>
			<path fill="#FF6633" d="M130.646,104.592c-0.097,0.2-0.292,0.3-0.491,0.3c-0.981,0-1.668-0.3-2.255-1.002l-0.295-0.3
				l-0.295-0.501l-0.687-1.604v0.502c0.097,0.701,0.295,1.302,0.587,2.003c-0.292,0.201-0.587,0.302-0.882,0.302l-0.687,0.1
				c-0.096,0.1-0.096,0.201-0.096,0.302c-0.1,0.3,0,0.601,0.096,0.9c0.097,0.202,0,0.302-0.096,0.302l-0.298,0.2
				c-0.097,0.101-0.097,0.201-0.097,0.4l-3.531-0.199c2.354-1.003,4.022-2.507,5.1-4.711c-5.003,2.605-10.008,4.51-15.307,5.713
				l-0.098,0.101c-0.884,0.199-1.276,1.002-1.081,2.506c0.393,1.002,0.981,1.804,1.669,2.404l6.182,0.902
				c0.981,0.202,1.864,0.602,2.454,1.103l0.099,0.302l3.236-2.706c-4.612,0.1-7.359-1.204-8.145-3.91
				c4.71-1.302,9.421-1.002,14.132,0.703c1.273-0.401,2.453-0.603,3.627-0.603c-1.174-0.4-2.354-0.701-3.627-1.003
				c-0.199-0.2-0.199-0.501,0-1.002c0.292-0.101,0.587-0.3,0.686-0.701L130.646,104.592"/>
			<path fill="#FF6633" d="M133.981,112.61L133.981,112.61l-3.531,3.007c-0.096,0.601-0.196,1.102-0.392,1.504l-0.981,1.504
				l-0.981,1.002l0.687-0.199c0.686-0.704,1.276-1.504,1.962-2.405c0.491-0.704,1.081-1.307,1.668-1.706
				c0.885-0.602,1.866-1.003,2.944-1.202C134.571,113.813,134.18,113.211,133.981,112.61"/>
			<path fill="#66CC00" d="M133.885,112.61l0.295-0.501l0.196-0.602c0.295-1.703,0-2.907-0.981-3.608
				c-4.317,3.908-10.991,8.419-20.116,13.432c-0.393,0.501-0.59,1.202-0.491,2.205l0.196,0.501c0.196,0.301,0.393,0.501,0.784,0.501
				l0.688,0.099h0.098h0.098c2.258-1.199,4.515-2.304,6.771-3.204c3.435-1.504,6.478-3.509,9.028-5.914L133.885,112.61"/>
			<path fill="#FF9900" d="M133.394,107.899c-1.177,0-2.354,0.2-3.631,0.601c-2.158,0.703-4.121,1.806-5.987,3.208l-3.236,2.707l0,0
				c-2.258,1.803-4.514,3.908-6.672,6.415C120.832,113.914,127.31,109.603,133.394,107.899"/>
			<path fill="#FF9933" d="M126.624,101.384v-0.2c-0.097-0.401-0.196-0.803-0.295-1.304v-0.501c-0.099-0.602,0-1.203,0-1.704
				c-1.764,1.604-5.397,3.008-10.696,4.21c-1.472,1.604-2.944,3.309-4.317,5.112C116.516,105.895,121.62,103.989,126.624,101.384
				L126.624,101.384"/>
			<path fill="#9900FF" d="M115.633,107.8c0.786,2.705,3.534,4.008,8.143,3.908c1.866-1.402,3.829-2.507,5.987-3.208
				C125.055,106.797,120.341,106.495,115.633,107.8"/>
			<path fill="#66FF00" d="M126.72,120.328l-5.398,1.104c-2.255,1.002-4.513,2.005-6.769,3.204
				c9.617,1.205,15.896-0.197,18.744-4.007c-0.789-1.304-2.848-1.504-6.087-0.501L126.72,120.328"/>
			<path fill="#FFCC00" d="M128.096,119.627l-0.786,0.502c3.239-0.904,5.199-0.701,6.084,0.501c0.587-0.603,1.177-0.803,1.667-0.803
				h0.689l4.609,0.603h0.099h0.687c-0.196-0.603-0.587-1.002-0.882-1.405c-0.395-0.301-0.885-0.6-1.376-0.701l-2.255-0.501h1.177
				c0.786,0.102,1.568,0,2.159-0.299c-0.292-0.703-0.783-1.104-1.472-1.306c-0.392-0.299-0.882-0.502-1.373-0.502l-1.962,0.203
				c-0.882,0.2-1.767,0.603-2.553,1.002c-0.196,0.102-0.292,0.2-0.587,0.4c-0.786,0.701-1.667,1.304-2.553,1.703l-0.587,0.2
				L128.096,119.627"/>
			<path fill="#CC6633" d="M128.782,119.428l0.59-0.203l0.882-1.002c0.295-0.299,0.687-0.699,1.177-1.102
				c0.981-0.903,2.159-1.603,3.435-2.205c1.276-0.603,2.55-0.702,3.73-0.301c-0.59-0.501-1.373-0.701-2.258-0.701l-1.078,0.1
				c-1.081,0.2-2.062,0.602-2.944,1.201c-0.59,0.402-1.081,1.003-1.67,1.706C130.058,118.022,129.468,118.724,128.782,119.428"/>
			<path fill="#FFCC00" d="M113.768,120.83l-0.588,0.603c9.028-5.013,15.798-9.523,20.118-13.434
				C127.31,109.603,120.832,113.914,113.768,120.83"/>
			<path fill="#CC6633" d="M138.888,118.523c0.59,0.102,0.981,0.302,1.376,0.701c-0.395-0.399-0.491-0.901-0.395-1.504
				c-0.587,0.302-1.373,0.403-2.156,0.302h-1.18L138.888,118.523"/>
			<path fill="#FF6633" d="M140.459,120.63c-0.49,1.805-2.062,1.501-4.808-0.603l4.612,0.603H140.459"/>
			<path fill="#FF6633" d="M138.596,114.615c-1.18-0.401-2.454-0.302-3.73,0.301c-1.276,0.603-2.453,1.402-3.435,2.205
				c-0.491,0.4-0.882,0.803-1.177,1.102l-0.882,1.002c0.882-0.399,1.764-1.002,2.55-1.701c0.196-0.202,0.394-0.304,0.587-0.402
				c0.885-0.402,1.671-0.803,2.553-1.002l1.963-0.2c0.59,0,0.981,0.2,1.373,0.501c-0.097-0.901,0.099-1.504,0.394-1.705
				L138.596,114.615"/>
			<path fill="#00FF00" d="M105.918,109.102c0.196,0,0.393-0.1,0.491-0.3c0.196-0.201,0.295-0.401,0.295-0.602l0.589-2.206
				c-0.589-3.107-0.393-6.716,0.588-10.825c-0.981,3.309-2.061,7.318-3.14,11.928l0.196,1.605v0.1
				C105.132,109.203,105.427,109.203,105.918,109.102"/>
			<path vector-effect="non-scaling-stroke" fill="none" stroke="#00CC00" stroke-linecap="round" stroke-linejoin="round" d="
				M132.217,79.232c0.59,0,1.177-0.102,1.764-0.102 M126.527,79.633l0.783-0.101"/>
			<path vector-effect="non-scaling-stroke" fill="none" stroke="#00CC00" stroke-linecap="round" stroke-linejoin="round" d="
				M126.527,79.633c-10.306,5.212-16.487,14.533-18.548,28.066c4.612-17.843,12.66-27.364,24.238-28.367"/>
			<path vector-effect="non-scaling-stroke" fill="none" stroke="#00CC00" stroke-linecap="round" stroke-linejoin="round" d="
				M132.807,90.458l0.684-1.402c0.395-0.702,0.789-1.304,1.279-1.905l0.392-0.401c0.882-0.801,1.962-1.403,3.335-1.803l0.882-0.202
				c0.786-0.1,1.276-0.399,1.671-0.9c0.491-0.703,1.177-1.104,2.059-1.304"/>
			<path vector-effect="non-scaling-stroke" fill="none" stroke="#00CC00" stroke-linecap="round" stroke-linejoin="round" d="
				M137.81,90.859c0.491-0.401,1.078-0.602,1.668-0.602c0.59,0.101,1.081-0.1,1.373-0.501c-0.196-0.1-0.392-0.2-0.491-0.501
				c0.59,0.1,1.18-0.101,1.671-0.502c0.981,0,1.863-0.301,2.646-1.002"/>
			<path vector-effect="non-scaling-stroke" fill="none" stroke="#00CC00" stroke-linecap="round" stroke-linejoin="round" d="
				M133.394,120.729c-0.786-1.301-2.845-1.504-6.084-0.501"/>
			<g id="Graphic_text_63">
				<path fill="#FF6600" d="M99.246,8.566c0-1.504-0.393-2.906-1.079-4.01c-0.884-1.302-2.16-2.003-3.73-2.003
					c-1.667,0-3.042,0.701-3.924,2.205c-0.786,1.203-1.179,2.606-1.179,4.21c0,1.905,0.295,3.409,0.884,4.611
					c0.883,1.604,2.158,2.406,4.023,2.406c1.668,0,2.944-0.603,3.827-1.905C98.853,12.875,99.246,11.072,99.246,8.566 M96.302,5.76
					c0.393,0.701,0.588,1.704,0.588,3.007c0,1.704-0.196,3.006-0.687,3.809c-0.491,0.801-1.177,1.202-2.061,1.202
					c-1.079,0-1.865-0.601-2.258-1.803c-0.196-0.803-0.393-1.805-0.393-3.208c0-1.002,0.197-1.905,0.688-2.708
					c0.589-0.901,1.275-1.402,2.159-1.402C95.32,4.757,95.909,5.159,96.302,5.76"/>
				<path fill="#FF6600" d="M85.605,5.057c1.668,0,2.551-0.399,2.551-1.202c0-0.3-0.098-0.601-0.295-0.801
					c-0.196-0.201-0.391-0.301-0.686-0.301c-0.098,0-0.393,0-0.687,0c-0.295,0-0.59,0-0.59,0h-4.022c-0.1,0-0.295,0-0.491,0
					c-0.197,0-0.393,0-0.59,0c-0.294,0-0.589,0-0.785,0.1c-0.295,0.201-0.491,0.401-0.491,0.601c0,0.202,0.098,0.301,0.196,0.603
					c0.098,0.2,0.098,0.4,0.098,0.5c0,0.501-0.098,1.605-0.294,3.309c-0.098,0.902-0.098,1.404-0.098,1.504
					c0,0.3,0.098,0.501,0.293,0.801c0.197,0.202,0.491,0.301,0.786,0.301c0.294,0,0.687-0.2,0.981-0.501
					c0.196-0.2,0.491-0.501,0.687-0.803c0.588-0.601,1.374-1.002,2.355-1.002c0.588,0,0.981,0.202,1.275,0.603
					c0.295,0.4,0.393,1.103,0.393,1.904c0,0.802-0.295,1.604-0.786,2.205c-0.589,0.603-1.275,1.002-2.159,1.002
					c-0.588,0-0.981-0.1-1.373-0.4c0,0-0.197-0.301-0.59-0.703c-0.195-0.2-0.49-0.3-0.784-0.3c-0.295,0-0.588,0.1-0.786,0.3
					c-0.196,0.202-0.393,0.501-0.393,0.803c0,0.2,0.099,0.401,0.197,0.601c0.785,1.203,2.061,1.905,3.729,1.905
					c1.668,0,2.944-0.501,3.828-1.604c0.884-1.002,1.375-2.306,1.375-3.81c0-1.302-0.295-2.305-0.884-3.208
					c-0.688-1.002-1.767-1.503-3.14-1.503c-0.981,0-1.865,0.201-2.651,0.501c0.1-0.801,0.197-1.404,0.197-1.704h2.454
					c0.098,0,0.196,0,0.391,0C85.311,5.057,85.508,5.057,85.605,5.057"/>
				<path fill="#FF6600" d="M69.709,8.266c-0.688-0.902-1.571-1.304-2.651-1.304c-1.472,0-2.649,0.601-3.533,1.704
					c-0.686,1.002-0.981,2.104-0.981,3.408c0,1.303,0.491,2.305,1.276,3.107c0.786,0.701,1.667,1.103,2.649,1.103
					c1.276,0,2.355-0.501,3.14-1.504c0.688-0.902,1.081-2.005,1.081-3.307C70.691,10.169,70.396,9.167,69.709,8.266 M67.747,13.478
					c-0.295,0.3-0.786,0.501-1.276,0.501c-0.393,0-0.687-0.102-1.079-0.401c-0.393-0.401-0.589-0.902-0.589-1.504
					c0-0.701,0.196-1.403,0.589-1.905c0.393-0.601,0.883-0.901,1.667-0.901c0.981,0,1.472,0.901,1.375,2.706
					C68.335,12.576,68.138,13.077,67.747,13.478"/>
				<path fill="#FF6600" d="M60.093,6.661c-0.197,0-0.491,0-0.884,0V5.96c0-1.404-0.393-2.105-1.177-2.105
					c-0.295,0-0.59,0.1-0.884,0.301c-0.197,0.2-0.295,0.501-0.295,0.801c0,0.201,0,0.501,0,0.802c0,0.401,0,0.701,0,0.901
					c-0.687-0.1-1.177-0.1-1.374-0.1c-0.293,0-0.589,0.1-0.784,0.301C54.5,7.062,54.4,7.364,54.4,7.664
					c0,0.603,0.393,1.002,1.079,1.104c0.688,0.1,1.178,0.1,1.571,0.1c0.098,2.205,0.098,3.708,0.098,4.41c0,0.201,0,0.501,0,0.902
					s0,0.701,0,0.902c0,0.3,0.098,0.602,0.393,0.801c0.196,0.201,0.491,0.301,0.784,0.301c0.786,0,1.177-0.701,1.177-2.005
					c0-0.1,0-0.301,0-0.501c0-0.2,0-0.401,0-0.401c0-0.701,0-2.205-0.098-4.51c0.295-0.101,0.589-0.101,0.786-0.101
					c0.098,0,0.196,0,0.393,0c0.196,0,0.293,0,0.391,0c0.295,0,0.589-0.1,0.786-0.3c0.196-0.202,0.393-0.501,0.393-0.803
					c0-0.501-0.197-0.902-0.688-1.002C61.172,6.661,60.681,6.661,60.093,6.661"/>
			</g>
		</g>
		<g id="Graphic_shape_61_1_">
			<path fill="#FFFFFF" d="M36.443,169.145h80.661v-34.28H36.443V169.145"/>
		</g>
		<g id="Graphic_text_62">
			<path d="M92.573,137.269c-0.491-0.301-1.179-0.399-2.061-0.399c-1.179,0-2.061,0.501-2.847,1.402
				c-0.588,0.799-0.883,1.802-0.883,3.007c0,1.104,0.393,1.903,1.179,2.506c0.686,0.502,1.57,0.8,2.747,0.8
				c0.785,0,1.472-0.199,2.061-0.501c0.786-0.299,1.177-0.701,1.177-1.301c0-0.501-0.196-0.704-0.686-0.704
				c-0.295,0-0.589,0.102-0.981,0.304c-0.393,0.299-0.981,0.4-1.57,0.4c-0.393,0-0.786-0.102-1.079-0.203
				c-0.295-0.099-0.588-0.298-0.786-0.501l2.355-1.101c0.785-0.403,1.275-0.601,1.57-0.904c0.588-0.399,0.883-0.901,0.883-1.402
				C93.555,138.17,93.26,137.669,92.573,137.269 M91.788,138.874c-0.393,0.196-0.884,0.501-1.472,0.8
				c-0.491,0.202-1.079,0.399-1.57,0.703c0.196-0.603,0.393-1.002,0.687-1.307c0.295-0.298,0.688-0.399,1.081-0.399
				C91.003,138.569,91.493,138.671,91.788,138.874"/>
			<path d="M84.82,136.869c-1.079,0-1.961,0.298-2.845,0.9c-0.098-0.501-0.393-0.802-0.883-0.802c-0.295,0-0.491,0.098-0.687,0.301
				c-0.197,0.2-0.295,0.4-0.295,0.701c0,0.099,0,0.402,0,0.701c0,0.302,0,0.501,0,0.704v4.609c0,0.302,0.098,0.501,0.196,0.701
				c0.197,0.2,0.393,0.302,0.688,0.302c0.293,0,0.491-0.102,0.687-0.302c0.197-0.2,0.295-0.399,0.295-0.701v-3.607
				c0.491-0.903,1.275-1.503,2.256-1.604l0.098,0.701c0,0.6,0.295,0.903,0.884,0.903s0.981-0.402,0.981-1.104
				c0-0.102,0-0.301,0-0.501C86.194,137.469,85.704,136.869,84.82,136.869"/>
			<path d="M78.345,138.068c-0.491-0.698-1.276-1.101-2.258-1.101c-1.275,0-2.256,0.501-2.944,1.404
				c-0.588,0.8-0.882,1.701-0.882,2.805c0,1.104,0.391,2.005,1.079,2.607c0.588,0.601,1.373,0.901,2.256,0.901
				c1.079,0,1.963-0.399,2.649-1.304c0.59-0.803,0.884-1.703,0.884-2.808C79.129,139.572,78.835,138.772,78.345,138.068
				 M77.264,141.075c0,0.502-0.196,1.003-0.589,1.304c-0.293,0.302-0.588,0.403-1.079,0.403c-0.393,0-0.588-0.102-0.883-0.302
				c-0.392-0.301-0.491-0.701-0.491-1.304s0.197-1.104,0.491-1.604c0.295-0.502,0.786-0.8,1.374-0.8
				C76.873,138.772,77.264,139.572,77.264,141.075"/>
			<path d="M80.012,158.219c-0.491-0.704-1.276-1.104-2.257-1.104c-1.275,0-2.256,0.501-2.943,1.401
				c-0.59,0.803-0.884,1.707-0.884,2.808c0,1.102,0.393,2.005,1.08,2.604c0.588,0.603,1.374,0.904,2.256,0.904
				c1.081,0,1.962-0.402,2.65-1.304c0.588-0.8,0.882-1.704,0.882-2.805C80.797,159.723,80.503,158.917,80.012,158.219
				 M78.933,161.324c0,0.501-0.197,1.003-0.588,1.304c-0.295,0.299-0.59,0.4-1.081,0.4c-0.392,0-0.589-0.102-0.882-0.299
				c-0.393-0.304-0.491-0.704-0.491-1.307c0-0.6,0.196-1.101,0.491-1.603c0.293-0.501,0.784-0.802,1.373-0.802
				C78.541,159.019,78.933,159.723,78.933,161.324"/>
			<path d="M86.98,157.314c-0.295-0.099-0.688-0.099-1.081-0.099c-1.373,0-2.452,0.4-3.238,1.301
				c-0.784,0.803-1.177,1.806-1.177,3.109c0,1.002,0.293,1.802,0.884,2.404c0.588,0.603,1.275,0.901,2.256,0.901
				c0.393,0,0.686,0,0.981-0.099c0.294-0.099,0.589-0.302,0.884-0.6c-0.099,0.901-0.295,1.602-0.59,2.005
				c-0.392,0.399-0.882,0.6-1.57,0.6c-0.293,0-0.686,0-1.079-0.102c-0.393-0.099-0.687-0.099-0.882-0.099
				c-0.295,0-0.491,0.099-0.688,0.2c-0.196,0.2-0.293,0.399-0.293,0.701c0,0.701,0.882,1.104,2.747,1.104
				c1.472,0,2.649-0.501,3.237-1.405c0.393-0.701,0.688-1.805,0.688-3.407c0-1.202,0.196-2.407,0.393-3.508
				c0.098-0.6,0.098-1.003,0.098-1.304c0-0.6-0.295-1.003-0.884-1.102C87.568,157.616,87.273,157.515,86.98,157.314 M83.348,161.524
				c0-0.8,0.197-1.402,0.59-1.903c0.391-0.502,1.079-0.803,1.863-0.803c0.098,0,0.295,0,0.491,0.099
				c0.098,0,0.295,0.102,0.491,0.202c-0.098,1.003-0.196,1.704-0.293,2.106c0,0.4-0.197,0.8-0.59,1.301
				c-0.392,0.4-0.785,0.704-1.177,0.704c-0.393,0-0.784-0.102-0.981-0.402C83.447,162.426,83.348,162.025,83.348,161.524"/>
			<path d="M94.731,157.115c-0.196-0.102-0.588-0.2-1.079-0.2c-1.178,0-2.061,0.099-2.649,0.301
				c-0.981,0.299-1.472,0.901-1.472,1.903c0,0.701,0.293,1.203,0.981,1.704c0.293,0.2,0.98,0.501,1.863,0.904
				c0.688,0.298,0.981,0.6,0.981,0.799c0,0.4-0.491,0.603-1.472,0.603c-0.196,0-0.491-0.101-0.882-0.202
				c-0.393-0.099-0.786-0.197-0.981-0.197c-0.491,0-0.786,0.197-0.786,0.698s0.393,0.904,1.079,1.205
				c0.491,0.2,1.079,0.299,1.668,0.299c0.883,0,1.571-0.197,2.257-0.501c0.786-0.4,1.08-1.102,1.08-1.803
				c0-0.603-0.393-1.205-1.08-1.706c-0.295-0.197-0.883-0.501-1.865-1.003c-0.687-0.298-1.079-0.501-1.079-0.698
				c0-0.304,0.588-0.501,1.667-0.501c0.197,0,0.393,0,0.59,0c0.098,0.399,0.391,0.6,0.882,0.6c0.393,0,0.688-0.402,0.688-1.304
				C95.222,157.515,95.026,157.216,94.731,157.115"/>
			<path d="M70.886,138.17c-0.295-0.901-0.981-1.402-1.865-1.402c-0.393,0-0.784,0.102-1.079,0.2
				c-0.393,0.098-0.687,0.301-0.884,0.6c-0.391-0.6-0.882-0.901-1.57-0.901c-0.687,0-1.275,0.399-2.061,1.304l0.098-0.6
				c0-0.305-0.098-0.501-0.293-0.704c-0.197-0.2-0.491-0.299-0.688-0.299c-0.294,0-0.589,0.197-0.785,0.601
				c-0.098,0.402-0.197,0.701-0.197,1.202c0,0.202,0,0.603,0,1.104c0,0.4,0.099,0.8,0.099,1.003v2.604c0,0.501,0,0.903,0.098,1.104
				c0.098,0.4,0.393,0.501,0.785,0.501c0.295,0,0.59-0.101,0.688-0.199c0.196-0.102,0.293-0.302,0.293-0.603
				c0-0.102,0-0.302,0-0.502c0-0.199,0-0.399,0-0.501c0-0.501,0-1.301,0.1-2.205l0.098-0.099c0.491-0.703,1.079-1.307,1.668-1.604
				c0,0.2,0.098,0.399,0.098,0.701c0,0.501,0,1.304,0.098,2.407c0.099,1.102,0.197,1.803,0.197,2.405
				c0,0.298,0.098,0.501,0.294,0.701c0.197,0.199,0.393,0.301,0.688,0.301c0.293,0,0.491-0.102,0.687-0.301
				c0.196-0.2,0.295-0.403,0.295-0.701c0-0.502-0.099-1.304-0.197-2.307c-0.098-1.002-0.196-1.805-0.196-2.306
				c0.196-0.2,0.491-0.4,0.884-0.604c0.392-0.196,0.588-0.298,0.687-0.298c0.195,0,0.295,0.399,0.491,1.301
				c0.098,0.402,0.195,1.104,0.295,2.106c0.098,0.9,0.196,1.604,0.293,2.005c0.098,0.501,0.393,0.803,0.883,0.803
				c0.294,0,0.589-0.102,0.687-0.302c0.197-0.2,0.295-0.399,0.295-0.701c-0.197-1.805-0.295-3.007-0.491-3.81
				C71.082,139.07,70.984,138.372,70.886,138.17"/>
			<path d="M61.76,156.512c0,0.403-0.098,0.704-0.098,0.803c-0.59,0-0.981,0-1.276,0.102c-0.393,0.2-0.687,0.501-0.687,0.901
				c0,0.301,0.098,0.501,0.294,0.701c0.197,0.202,0.393,0.301,0.688,0.301c0.098,0,0.196,0,0.392-0.099
				c0.197,0,0.393-0.102,0.491-0.102v3.61c0,0.6,0,1.199-0.098,1.903c0,0-0.098,0.102-0.098,0.2c0,0.2,0.098,0.402,0.295,0.6
				c0.196,0.203,0.392,0.305,0.687,0.305c0.491,0,0.883-0.203,0.981-0.704c0.098-0.502,0.098-1.203,0.098-2.005c0-0.2,0-0.8,0-1.903
				c0-0.803,0-1.402,0-1.904c0.588-0.102,1.079-0.102,1.276-0.102c0.981,0,1.472-0.301,1.472-0.9c0-0.603-0.393-0.904-1.276-0.904
				c-0.293,0-0.784,0-1.375,0.102v-0.2c0.1-0.704,0.197-1.104,0.393-1.405c0.295-0.399,0.688-0.6,1.276-0.6
				c0.784,0,1.177-0.301,1.177-0.9c0-0.603-0.393-0.904-1.276-0.904c-1.177,0-1.961,0.302-2.551,1.003
				C62.153,154.608,61.858,155.411,61.76,156.512"/>
			<path d="M67.354,158.016c0,0.102,0,0.403,0,0.704c0,0.299,0,0.501,0,0.698v4.612c0,0.302,0.098,0.501,0.196,0.704
				c0.197,0.197,0.393,0.299,0.688,0.299c0.293,0,0.491-0.102,0.687-0.299c0.195-0.203,0.295-0.402,0.295-0.704v-3.609
				c0.491-0.901,1.275-1.504,2.256-1.603l0.098,0.701c0,0.603,0.295,0.901,0.884,0.901c0.588,0,0.981-0.4,0.981-1.102
				c0-0.099,0-0.301,0-0.501c0-1.202-0.49-1.805-1.374-1.805c-1.079,0-1.963,0.301-2.845,0.903c-0.1-0.501-0.393-0.802-0.884-0.802
				c-0.295,0-0.491,0.101-0.688,0.301C67.452,157.616,67.354,157.815,67.354,158.016"/>
		</g>
	</g>
</g>
</svg>