<svg id="Layer_1" data-name="Layer 1" xmlns="http://www.w3.org/2000/svg" xmlns:xlink="http://www.w3.org/1999/xlink" viewBox="0 0 49.65 32.21"><defs><style>.cls-1{fill:url(#linear-gradient);}.cls-2{fill:url(#linear-gradient-2);}.cls-3{fill:url(#linear-gradient-3);}.cls-4{fill:url(#linear-gradient-4);}.cls-5{fill:url(#linear-gradient-5);}.cls-6{fill:url(#linear-gradient-6);}.cls-7{fill:url(#linear-gradient-7);}.cls-8{fill:url(#linear-gradient-8);}.cls-9{fill:url(#linear-gradient-9);}.cls-10{fill:url(#linear-gradient-10);}.cls-11{fill:url(#linear-gradient-11);}.cls-12{fill:url(#linear-gradient-12);}.cls-13{fill:url(#linear-gradient-13);}.cls-14{fill:url(#linear-gradient-14);}.cls-15{fill:url(#linear-gradient-15);}.cls-16{fill:url(#linear-gradient-16);}.cls-17{fill:url(#linear-gradient-17);}.cls-18{fill:url(#radial-gradient);}.cls-19{fill:url(#radial-gradient-2);}.cls-20{fill:url(#linear-gradient-18);}.cls-21{fill:url(#linear-gradient-19);}.cls-22{fill:url(#linear-gradient-20);}.cls-23{fill:url(#linear-gradient-21);}.cls-24{fill:url(#linear-gradient-22);}.cls-25{fill:url(#linear-gradient-23);}.cls-26{fill:#221f1f;}.cls-27{fill:#fff;}</style><linearGradient id="linear-gradient" x1="-1764.35" y1="0.35" x2="-1763.5" y2="4.52" gradientTransform="matrix(-1, 0, 0, 1, -1723.75, 0)" gradientUnits="userSpaceOnUse"><stop offset="0" stop-color="#84c241"/><stop offset="0.02" stop-color="#89c441"/><stop offset="0.17" stop-color="#a3cd43"/><stop offset="0.3" stop-color="#b3d345"/><stop offset="0.4" stop-color="#b9d545"/><stop offset="1" stop-color="#456f34"/></linearGradient><linearGradient id="linear-gradient-2" x1="-1765.25" y1="13.77" x2="-1761.26" y2="14.76" gradientTransform="matrix(-1, 0, 0, 1, -1723.75, 0)" gradientUnits="userSpaceOnUse"><stop offset="0" stop-color="#456f34"/><stop offset="0.6" stop-color="#b9d545"/><stop offset="0.7" stop-color="#b3d345"/><stop offset="0.83" stop-color="#a3cd43"/><stop offset="0.98" stop-color="#89c441"/><stop offset="1" stop-color="#84c241"/></linearGradient><linearGradient id="linear-gradient-3" x1="-1764.76" y1="14.84" x2="-1766.06" y2="20.69" gradientTransform="matrix(-1, 0, 0, 1, -1723.75, 0)" gradientUnits="userSpaceOnUse"><stop offset="0" stop-color="#b9d545"/><stop offset="0.24" stop-color="#d5b136"/><stop offset="0.47" stop-color="#ec922a"/><stop offset="0.61" stop-color="#f58725"/><stop offset="1" stop-color="#965624"/></linearGradient><linearGradient id="linear-gradient-4" x1="-1739.64" y1="6.66" x2="-1736.64" y2="6.66" gradientTransform="matrix(-1, 0, 0, 1, -1723.75, 0)" gradientUnits="userSpaceOnUse"><stop offset="0" stop-color="#264b9b"/><stop offset="1" stop-color="#10bef0"/></linearGradient><linearGradient id="linear-gradient-5" x1="-1735.73" y1="7.98" x2="-1732.51" y2="7.98" xlink:href="#linear-gradient-4"/><linearGradient id="linear-gradient-6" x1="-1738.82" y1="7.28" x2="-1731.08" y2="6.48" xlink:href="#linear-gradient-2"/><linearGradient id="linear-gradient-7" x1="-1765.99" y1="10.6" x2="-1765.17" y2="7.7" xlink:href="#linear-gradient-2"/><linearGradient id="linear-gradient-8" x1="-1765.78" y1="9.62" x2="-1763.5" y2="1.58" xlink:href="#linear-gradient-2"/><linearGradient id="linear-gradient-9" x1="-1751.23" y1="17.42" x2="-1747.43" y2="4.02" xlink:href="#linear-gradient-2"/><linearGradient id="linear-gradient-10" x1="-1747.02" y1="18.1" x2="-1746.32" y2="11.72" xlink:href="#linear-gradient-4"/><linearGradient id="linear-gradient-11" x1="-7413.25" y1="16.94" x2="-7403.86" y2="16.94" gradientTransform="translate(7422.22)" xlink:href="#linear-gradient-4"/><linearGradient id="linear-gradient-12" x1="-1739.31" y1="25.94" x2="-1744.44" y2="28.08" xlink:href="#linear-gradient-3"/><linearGradient id="linear-gradient-13" x1="-1739.77" y1="26.05" x2="-1743.94" y2="23.16" xlink:href="#linear-gradient-3"/><linearGradient id="linear-gradient-14" x1="-1741.45" y1="15.66" x2="-1736.84" y2="18.47" xlink:href="#linear-gradient-2"/><linearGradient id="linear-gradient-15" x1="-1733.31" y1="21.54" x2="-1730.67" y2="25.9" xlink:href="#linear-gradient-2"/><linearGradient id="linear-gradient-16" x1="-1734.64" y1="17.79" x2="-1733.05" y2="21.88" xlink:href="#linear-gradient-2"/><linearGradient id="linear-gradient-17" x1="-7384.93" y1="5.4" x2="-7377.98" y2="5.4" gradientTransform="translate(7422.22)" xlink:href="#linear-gradient"/><radialGradient id="radial-gradient" cx="-7635.74" cy="11.16" r="3.12" gradientTransform="translate(8836.86 -5.13) scale(1.15 0.89)" gradientUnits="userSpaceOnUse"><stop offset="0" stop-color="#3066af"/><stop offset="0.71" stop-color="#2b60ab"/><stop offset="1" stop-color="#285ca8"/></radialGradient><radialGradient id="radial-gradient-2" cx="-7635.67" cy="11.33" r="2.91" gradientTransform="translate(8836.86 -5.13) scale(1.15 0.89)" gradientUnits="userSpaceOnUse"><stop offset="0" stop-color="#ed4523"/><stop offset="0.13" stop-color="#e74322"/><stop offset="0.3" stop-color="#d73e20"/><stop offset="0.49" stop-color="#bb351d"/><stop offset="0.69" stop-color="#952918"/><stop offset="0.91" stop-color="#651912"/><stop offset="1" stop-color="#4e120f"/></radialGradient><linearGradient id="linear-gradient-18" x1="-1748.1" y1="11.31" x2="-1749.2" y2="16.28" gradientTransform="matrix(-1, 0, 0, 1, -1723.75, 0)" gradientUnits="userSpaceOnUse"><stop offset="0" stop-color="#fbed34"/><stop offset="0.17" stop-color="#e9e739"/><stop offset="0.49" stop-color="#cfdd3f"/><stop offset="0.78" stop-color="#bfd744"/><stop offset="1" stop-color="#b9d545"/></linearGradient><linearGradient id="linear-gradient-19" x1="-7410.54" y1="16.19" x2="-7401.16" y2="16.19" gradientTransform="translate(7422.22)" xlink:href="#linear-gradient-4"/><linearGradient id="linear-gradient-20" x1="-1754.39" y1="25.5" x2="-1760.76" y2="29.82" xlink:href="#linear-gradient-3"/><linearGradient id="linear-gradient-21" x1="-1758.36" y1="15.57" x2="-1750.3" y2="13.28" xlink:href="#linear-gradient-2"/><linearGradient id="linear-gradient-22" x1="-1754.97" y1="21.24" x2="-1750.47" y2="23.14" xlink:href="#linear-gradient-2"/><linearGradient id="linear-gradient-23" x1="-1754.97" y1="16.62" x2="-1751.06" y2="12.79" xlink:href="#linear-gradient-4"/></defs><title>Frog</title><path class="cls-1" d="M43.27,3.83a4,4,0,0,1-4.61,1.32c-1.74-.62-2.5-2.23-1.7-3.58A4,4,0,0,1,41.57.25C43.32.87,44.08,2.48,43.27,3.83Z"/><path class="cls-2" d="M39.9,15.3a2.48,2.48,0,0,0-1.8.4,1.87,1.87,0,0,0-.28-.66,4.86,4.86,0,0,1-.28-.73c-.13-.33-.26-.66-.38-1l0-.07,2.52-1.36.05.14c.29.78.59,1.57.89,2.35a3.85,3.85,0,0,0,.53,1,2.36,2.36,0,0,0,.67.5L42,16C41.19,16.17,40.54,15.6,39.9,15.3Z"/><path class="cls-3" d="M34.41,17a1.36,1.36,0,0,1,1.82-.2c.7-.16,1.52-.23,1.8-.77a.58.58,0,0,0,.06-.35,2.48,2.48,0,0,1,1.8-.4c.65.3,1.29.87,2.15.66,1,.54,2.29.76,3.29,1.3a7.3,7.3,0,0,1,1.76,1.27c.32.32.84.71,1,1.13a1.72,1.72,0,0,1,.7.09c.64.23.94.77.68,1.21a1.39,1.39,0,0,1-1.63.39c-.62-.22-.92-.75-.69-1.18a7.84,7.84,0,0,1-1-1,7.16,7.16,0,0,0-1.89-1.56c-.25-.14-1.7-.78-1.71-.07,0,.2.35.45.48.62a7.81,7.81,0,0,1,.6.92A4.68,4.68,0,0,1,44.26,21a1.6,1.6,0,0,1,.34.08.93.93,0,0,1,.64,1.33,1.47,1.47,0,0,1-1.72.48c-.65-.23-.94-.83-.64-1.33a1,1,0,0,1,.17-.21,5.72,5.72,0,0,1-.67-2,4.28,4.28,0,0,0-.73-1.36c-.26-.37-.4-.67-.92-.83a2.86,2.86,0,0,0-.44,1.7,4.6,4.6,0,0,1-.14,1c.5.28.72.74.5,1.1a1.5,1.5,0,0,1-1.74.33c-.7-.25-1.06-.81-.8-1.24a1.18,1.18,0,0,1,1-.45c0-.12,0-.24,0-.37,0-.5.33-1.73-.22-2.09a1.13,1.13,0,0,0-1,.06c-.39.14-.77.26-1.19.36l-.21.05a.65.65,0,0,1-.09.27,1.28,1.28,0,0,1-1.5.38C34.43,18,34.17,17.45,34.41,17Z"/><path class="cls-4" d="M15.89,6.45s-1.48.55-3,1.23a17.93,17.93,0,0,0,1.31-2A6.75,6.75,0,0,1,15.89,6.45Z"/><path class="cls-5" d="M8.75,10.1A7.52,7.52,0,0,1,12,5.86,11,11,0,0,0,11.2,8.5c-.31.17-.59.33-.82.49Z"/><path class="cls-6" d="M12.67,5.57a2.64,2.64,0,0,1,1.53.07,17.93,17.93,0,0,1-1.31,2c-.58.26-1.17.54-1.68.82A11,11,0,0,1,12,5.86,4.47,4.47,0,0,1,12.67,5.57Z"/><path class="cls-7" d="M43.6,10.16a8.87,8.87,0,0,0-1.16.45h-.09c-2.45-.45-4.91.11-7.36-.67a7.57,7.57,0,0,1-.79-.19c5.14,0,10.36-.36,15-2C48,8.82,43.76,10.18,43.6,10.16Z"/><path class="cls-8" d="M33.4,9.14c-.25-2.47,1.74-4.68,3.5-6.78a35.49,35.49,0,0,1,3.89.49,26,26,0,0,1,5.08.73c2.88.69,4.23,2.64,3.65,3.79a1.28,1.28,0,0,1-.3.35c-4.66,1.67-9.88,2-15,2C33.78,9.6,33.4,9.41,33.4,9.14Z"/><path class="cls-9" d="M8.83,11.17a1.37,1.37,0,0,1-.08-1.07h0L10.38,9c1.63-1.11,7.94-3.5,7.94-3.5a20,20,0,0,1,6.13-1,10.84,10.84,0,0,0,7-1.54c1.22-.71,3.46-.77,5.44-.64-1.76,2.1-3.75,4.31-3.5,6.78,0,.45,1,.67,1.59.78,2.45.78,4.91.22,7.36.67h.09c-.75.32-1.77.79-2.78,1.28l-2.52,1.36a6.78,6.78,0,0,0-.87.62,29.3,29.3,0,0,1-3.78,2.45,26.07,26.07,0,0,0,2.77-4.5,9.15,9.15,0,0,0-1.46.06c.25-.26.06-.47.22-.77-7.91,0-15,1.54-22.48,3.5l-.68-.43A4.54,4.54,0,0,1,8.83,11.17Z"/><path class="cls-10" d="M33.8,11.88c-3.93.47-6.41,3.47-8.74,5.89,0-.14,0-.22,0-.22-.72.74-6-.23-6.57-.33a22.85,22.85,0,0,1-6.93-2.61c7.48-2,14.42-3.5,22.33-3.5C33.7,11.41,34,11.63,33.8,11.88Z"/><path class="cls-11" d="M9,13.67c.38-.85.83-1.4,1.73-.67a27.94,27.94,0,0,1,7.65,8.2c-1.56-.87-3.38-1.36-5-2.2l.61.23S9.46,15.77,9,13.67Z"/><path class="cls-12" d="M19,25a17.38,17.38,0,0,1,2.44.33A1.82,1.82,0,0,1,23,24.92c.84.1,1.44.6,1.34,1.12s-.87.84-1.72.74A1.55,1.55,0,0,1,21.27,26c-.84.15-2.16.24-2.78.42-1,.29-1.76.78-1.18,1.61a1.76,1.76,0,0,1,.25.55h0c.8.1,1.35.66,1.23,1.26a1.45,1.45,0,0,1-1.67.9c-.8-.1-1.35-.66-1.23-1.26a.89.89,0,0,1,.17-.37c-.13-.12-.25-.25-.38-.39a5.6,5.6,0,0,1,2.77-2.93C18.51,25.64,18.81,25.35,19,25Z"/><path class="cls-13" d="M19,24.6a3,3,0,0,0-2.18-.3c.28-.13.66-.31,1.06-.46a21.47,21.47,0,0,0,2.32-1.08c.49.14.8.5.72.87a1.1,1.1,0,0,1-1.28.64h-.06a2.29,2.29,0,0,1-.57.65A.49.49,0,0,0,19,24.6Z"/><path class="cls-14" d="M18.29,21.11A28.09,28.09,0,0,0,10.7,13c-.91-.73-1.36-.18-1.73.67a1.28,1.28,0,0,1,0-.61,2.43,2.43,0,0,1,2.72-1.65c2.75,3.22,7.3,6.1,9.38,9.56a1.24,1.24,0,0,1-.31,1.36c-.19.16-.38.3-.57.43l-.64.33A2.59,2.59,0,0,0,18.29,21.11Z"/><path class="cls-15" d="M11.46,24.67c1.31-.11,4.92-.15,4.92-.15l.43-.22a3,3,0,0,1,2.18.3.49.49,0,0,1,0,.32l-.14.11H19c-.14.31-.44.6-.47.74a5.6,5.6,0,0,0-2.77,2.93c-.72-.79-1.43-1.8-2.07-1.88-.91-.11-3.53.49-6.31-2S-.26,19.55,0,18.26a10.47,10.47,0,0,1,3.55,1.17C4.17,19.92,10.22,24.78,11.46,24.67Z"/><path class="cls-16" d="M5.39,16.35c2.74.72,6.5,2.11,8,2.66,1.63.84,3.45,1.33,5,2.2l-.06-.1a2.59,2.59,0,0,1,1.24,2,13,13,0,0,1-1.68.75,7.48,7.48,0,0,1-4-.5c-2.74-.93-10.4-4-10.4-4l0,0A10.47,10.47,0,0,0,0,18.26a.58.58,0,0,1,0-.06C.46,16.95,1.93,15.44,5.39,16.35Z"/><path class="cls-17" d="M43.92,6.53a4,4,0,0,1-4.61,1.32c-1.74-.62-2.5-2.23-1.7-3.58a4,4,0,0,1,4.61-1.32C44,3.57,44.72,5.18,43.92,6.53Z"/><path class="cls-18" d="M43.76,6.57a3.59,3.59,0,0,1-4.19,1.2C38,7.2,37.29,5.75,38,4.52a3.59,3.59,0,0,1,4.19-1.2C43.8,3.88,44.49,5.34,43.76,6.57Z"/><path class="cls-19" d="M43.67,6.6a3.35,3.35,0,0,1-3.91,1.12c-1.48-.53-2.12-1.89-1.44-3a3.34,3.34,0,0,1,3.91-1.12C43.71,4.1,44.35,5.46,43.67,6.6Z"/><path class="cls-20" d="M15.5,13.48c.9-.13,1.79-.32,2.68-.53.56-.14,1.13-.24,1.67-.41.27-.09.54-.1.82-.16s.6-.17.92-.23c.82-.15,1.62-.28,2.46-.39.52-.07,1-.11,1.55-.19s1-.26,1.47-.38A8.27,8.27,0,0,1,28.92,11c.46,0,.88.11,1.35.07.33,0,.64-.16,1-.2a16.62,16.62,0,0,1,1.84,0,2.67,2.67,0,0,1,1.32.33c.26.15.39.28.27.52a.76.76,0,0,1-.53.37c-.27.08-.36.06-.43-.08s.21-.53,0-.53a4.77,4.77,0,0,0-1.79-.11h0a1.32,1.32,0,0,0-.4.14c-.11.07-.12.16-.17.26s-.16.42-.27.62-.38.63-.63.55,0-.66,0-.8c.05-.3.16-.51-.33-.51s-.88,0-1.06.48-.17.94-.32,1.4a4.5,4.5,0,0,1-.47,1.09c-.13.19-.45.65-.83.61s0-.46,0-.58a8.35,8.35,0,0,0,.41-.92,2.76,2.76,0,0,0,.1-1,1,1,0,0,0-.5-1,1.37,1.37,0,0,0-1.74.4,3,3,0,0,0-.21,2.41,2.56,2.56,0,0,1-.1,1.87.68.68,0,0,1-.68.27c-.28,0-.25-.16-.28-.38-.07-.6,0-1.22-.06-1.83A5,5,0,0,0,24,12.83c-.18-.38-.48-.79-1.06-.59-1,.35-.94,1.38-.87,2.11,0,.3.63,2.53.08,2.58-.29,0-.57-.41-.67-.58-.19-.34-.39-.68-.56-1-.31-.62-.48-1.28-.81-1.89-.14-.26-.45-.49-.76-.22A1.1,1.1,0,0,0,19,14c0,.47,0,.94,0,1.41,0,.19,0,.65-.21.79s-.38-.1-.49-.25a9.4,9.4,0,0,1-.59-.88,6,6,0,0,0-.28-.62c-.43-.6-1.45-.33-2.16-.3-.25,0-.64,0-.71-.26S15.26,13.52,15.5,13.48Z"/><path class="cls-21" d="M11.68,11.41a3.47,3.47,0,0,1,2.07.86S20.31,18,21.06,21C19,17.51,14.43,14.63,11.68,11.41Z"/><path class="cls-22" d="M33,26.4c.5-.29-.19-1-.29-1.7l.34.18a16.49,16.49,0,0,1,1.18-1.35.6.6,0,0,1,0-.68,1.14,1.14,0,0,1,1.33-.35c.51.18.74.64.52,1a1.09,1.09,0,0,1-1.1.41,16,16,0,0,1-1.44,1.83s3.87-.64,5.12-.16l.26.12a1.59,1.59,0,0,1,1,0c.61.22.9.75.64,1.19a1.35,1.35,0,0,1-1.58.39.94.94,0,0,1-.72-.91c-1.4-.72-4.55.4-4.55.4a5.35,5.35,0,0,1,4.27,2.92l0,0a1.18,1.18,0,0,1,.37.07.69.69,0,0,1,.47,1,1.1,1.1,0,0,1-1.28.37.69.69,0,0,1-.47-1,.77.77,0,0,1,.2-.22,4.23,4.23,0,0,0-.83-1.37c-1-1.29-3.78-1.05-3.78-1.05a7.51,7.51,0,0,1,0,2.72,1.78,1.78,0,0,1-.26.51.72.72,0,0,1,.25.95,1.32,1.32,0,0,1-1.54.38c-.6-.21-.88-.73-.63-1.15a1.27,1.27,0,0,1,1.39-.42v0c.85-1.42-.38-3.59-.38-3.59l-.7-.52A4.08,4.08,0,0,0,33,26.4Z"/><path class="cls-23" d="M26.76,17.22,27,17c2.5-1.84,5.73-2.94,7.59-5.16h.62a26.07,26.07,0,0,1-2.77,4.5c-1.42.82-2.66,1.48-2.66,1.48l.09.37A5,5,0,0,0,26.76,17.22Z"/><path class="cls-24" d="M29.91,18.17c.32,1.23,1.33,5.16,1.44,5.52s.87.76,1.32,1c.1.69.79,1.41.29,1.7a4.08,4.08,0,0,1-2.16,0c-.72-.55-1.93-1.5-3.26-2.66s-2-3.39-2.3-4.82a7.66,7.66,0,0,1,1.51-1.7A5,5,0,0,1,29.91,18.17Z"/><path class="cls-25" d="M34.64,11.82C32.78,14,29.55,15.14,27,17a7.87,7.87,0,0,0-1.81,1.94c-.1-.5-.16-.91-.19-1.15C27.55,15.18,30.22,11.93,34.64,11.82Z"/><path class="cls-26" d="M41.83,6.85,41.11,4A3.58,3.58,0,0,1,41.83,6.85Z"/><ellipse class="cls-27" cx="40.13" cy="4.67" rx="0.32" ry="0.25"/><path class="cls-27" d="M37.13,3.09h-.3l-.85,0c-.37,0-.81,0-1.32.1A15.17,15.17,0,0,0,33,3.49a7.76,7.76,0,0,0-1.89.65l-.23.13-.22.12-.21.1-.24.09a6.28,6.28,0,0,1-1,.24c-.74.11-1.55.14-2.36.18s-1.66.07-2.5.15a17.9,17.9,0,0,0-2.48.41,11.37,11.37,0,0,0-1.17.35l-1.08.39-2,.74-1.83.67-.81.3-.72.28L13,8.75l-.75.31L12,9.16l.28-.09L13,8.83l1.22-.39L15,8.19l.83-.26,1.87-.6,2.08-.68,1.09-.37c.36-.12.73-.23,1.12-.31a17.38,17.38,0,0,1,2.39-.38c.81-.08,1.64-.12,2.46-.17a22.3,22.3,0,0,0,2.43-.22,6.24,6.24,0,0,0,1.15-.29l.26-.11.26-.13.22-.13.2-.12a7.76,7.76,0,0,1,1.75-.68c.58-.16,1.13-.27,1.63-.35s.93-.14,1.29-.18l.84-.09Z"/></svg>