<svg id="Layer_1" data-name="Layer 1" xmlns="http://www.w3.org/2000/svg" xmlns:xlink="http://www.w3.org/1999/xlink" viewBox="0 0 74.47 64.64"><defs><style>.cls-1{fill:#172650;}.cls-2{fill:url(#linear-gradient);}.cls-3{fill:url(#linear-gradient-2);}.cls-4{fill:url(#linear-gradient-3);}.cls-5{fill:url(#linear-gradient-4);}.cls-6{fill:url(#linear-gradient-5);}.cls-7{fill:url(#linear-gradient-6);}.cls-8{fill:url(#linear-gradient-7);}.cls-9{fill:url(#linear-gradient-8);}.cls-10{fill:url(#linear-gradient-9);}.cls-11{fill:url(#linear-gradient-10);}.cls-12{fill:url(#linear-gradient-11);}</style><linearGradient id="linear-gradient" x1="29.38" y1="40.3" x2="74.47" y2="40.3" gradientUnits="userSpaceOnUse"><stop offset="0" stop-color="#2958a7"/><stop offset="1" stop-color="#2d499e"/></linearGradient><linearGradient id="linear-gradient-2" y1="37.98" x2="29.81" y2="37.98" gradientUnits="userSpaceOnUse"><stop offset="0" stop-color="#2d499e"/><stop offset="0.32" stop-color="#375ca9"/><stop offset="0.7" stop-color="#406cb3"/><stop offset="1" stop-color="#4372b7"/></linearGradient><linearGradient id="linear-gradient-3" x1="32.73" y1="27.73" x2="40.84" y2="5.43" gradientUnits="userSpaceOnUse"><stop offset="0" stop-color="#2d499e"/><stop offset="1" stop-color="#1b1b51"/></linearGradient><linearGradient id="linear-gradient-4" x1="29.6" y1="6.85" x2="46.44" y2="6.85" gradientUnits="userSpaceOnUse"><stop offset="0.01" stop-color="#2d499e"/><stop offset="0.33" stop-color="#4372b7"/><stop offset="0.66" stop-color="#2d499e"/><stop offset="1" stop-color="#1b1b51"/></linearGradient><linearGradient id="linear-gradient-5" x1="36.98" y1="5.15" x2="39.22" y2="-1.01" xlink:href="#linear-gradient-3"/><linearGradient id="linear-gradient-6" x1="7.2" y1="10.93" x2="24.79" y2="10.93" xlink:href="#linear-gradient-4"/><linearGradient id="linear-gradient-7" x1="14.78" y1="9.19" x2="17.25" y2="2.41" xlink:href="#linear-gradient-3"/><linearGradient id="linear-gradient-8" x1="47.65" y1="13.57" x2="65.6" y2="13.57" xlink:href="#linear-gradient-4"/><linearGradient id="linear-gradient-9" x1="55.59" y1="11.76" x2="57.95" y2="5.27" xlink:href="#linear-gradient-3"/><linearGradient id="linear-gradient-10" x1="23.13" y1="17.45" x2="41.89" y2="17.45" xlink:href="#linear-gradient-4"/><linearGradient id="linear-gradient-11" x1="31.28" y1="15.59" x2="33.9" y2="8.4" xlink:href="#linear-gradient-3"/></defs><title>10</title><polygon class="cls-1" points="72.6 51.12 0.57 45.57 0.97 46.67 29.38 64.64 71.77 52.51 72.6 51.12"/><polygon class="cls-2" points="74.47 17.67 72.6 51.12 29.38 62.93 29.81 26.66 74.47 17.67"/><polygon class="cls-3" points="29.81 26.66 29.38 62.93 0.57 45.57 0 13.03 29.81 26.66"/><polygon class="cls-4" points="74.47 17.67 29.81 26.66 0 13.03 42.15 6.1 74.47 17.67"/><path class="cls-5" d="M46.44,2.31q-.13,3.78-.27,7.56a.74.74,0,0,1-.18.44,1.9,1.9,0,0,1-.52.42,4.89,4.89,0,0,1-.85.38,10.26,10.26,0,0,1-1.19.32,20.06,20.06,0,0,1-2.9.38,29.9,29.9,0,0,1-3.22,0,27.9,27.9,0,0,1-3.13-.31,15.88,15.88,0,0,1-2.63-.63,7.15,7.15,0,0,1-.86-.36,3.53,3.53,0,0,1-.61-.37,1.5,1.5,0,0,1-.36-.38.7.7,0,0,1-.11-.38l.16-7.56a.62.62,0,0,0,.11.35,1.44,1.44,0,0,0,.36.36,3.64,3.64,0,0,0,.61.35,7.66,7.66,0,0,0,.87.33,17.23,17.23,0,0,0,2.65.59,30.32,30.32,0,0,0,3.15.3c1.09,0,2.19,0,3.24,0a21.81,21.81,0,0,0,2.91-.34,11,11,0,0,0,1.2-.3,5.1,5.1,0,0,0,.86-.35,1.86,1.86,0,0,0,.52-.39A.65.65,0,0,0,46.44,2.31Z"/><path class="cls-6" d="M44.29.86A5.76,5.76,0,0,1,46,1.6c.36.26.51.53.47.79s-.3.52-.76.75a7.86,7.86,0,0,1-2,.61,21.81,21.81,0,0,1-2.91.34c-1.05.06-2.15.06-3.24,0a30.32,30.32,0,0,1-3.15-.3,17.23,17.23,0,0,1-2.65-.59,4.87,4.87,0,0,1-1.6-.77c-.32-.27-.42-.54-.32-.8a1.58,1.58,0,0,1,.89-.73,8.9,8.9,0,0,1,2-.58A22.64,22.64,0,0,1,35.56,0c1-.05,2.06-.06,3.1,0s2.07.14,3,.28A18.39,18.39,0,0,1,44.29.86Z"/><path class="cls-7" d="M24.79,5.91q-.07,4-.15,7.9a.87.87,0,0,1-.21.53,2.26,2.26,0,0,1-.62.5,5.79,5.79,0,0,1-1,.46,12,12,0,0,1-1.42.39,22.14,22.14,0,0,1-3.15.42,30.57,30.57,0,0,1-3.42,0,26.63,26.63,0,0,1-3.24-.34,14,14,0,0,1-2.64-.69,6.09,6.09,0,0,1-.76-.35,3.06,3.06,0,0,1-.54-.37A1.44,1.44,0,0,1,7.3,14a.78.78,0,0,1-.1-.38l0-7.93a.68.68,0,0,0,.1.35,1.36,1.36,0,0,0,.32.35,3.13,3.13,0,0,0,.54.34A6.46,6.46,0,0,0,9,7.07a15.09,15.09,0,0,0,2.65.64A29,29,0,0,0,14.89,8a33.43,33.43,0,0,0,3.44,0,24.14,24.14,0,0,0,3.17-.38,12.88,12.88,0,0,0,1.43-.36,6.06,6.06,0,0,0,1-.42,2.22,2.22,0,0,0,.62-.46A.76.76,0,0,0,24.79,5.91Z"/><path class="cls-8" d="M22.85,4.45a4.59,4.59,0,0,1,1.59.81.76.76,0,0,1,.3.87,1.85,1.85,0,0,1-1,.83,9.81,9.81,0,0,1-2.26.68A24.14,24.14,0,0,1,18.33,8a33.43,33.43,0,0,1-3.44,0,29,29,0,0,1-3.27-.32A15.09,15.09,0,0,1,9,7.07a3.81,3.81,0,0,1-1.5-.84.69.69,0,0,1-.14-.87,2.34,2.34,0,0,1,1.12-.8,11,11,0,0,1,2.3-.63,25,25,0,0,1,3.08-.35c1.08-.06,2.19-.06,3.28,0a29.33,29.33,0,0,1,3.13.3A16.21,16.21,0,0,1,22.85,4.45Z"/><path class="cls-9" d="M65.6,8.9l-.41,8a.83.83,0,0,1-.18.46,1.83,1.83,0,0,1-.49.43,4.36,4.36,0,0,1-.8.39,9.08,9.08,0,0,1-1.12.34,18.4,18.4,0,0,1-3,.43,29.29,29.29,0,0,1-3.39,0,29,29,0,0,1-3.36-.35,17.94,17.94,0,0,1-2.89-.7,8.77,8.77,0,0,1-1-.43,4.21,4.21,0,0,1-.74-.46,1.8,1.8,0,0,1-.43-.46.83.83,0,0,1-.13-.46h0l.29-8a.73.73,0,0,0,.13.43A1.74,1.74,0,0,0,48.5,9a4.4,4.4,0,0,0,.74.42,9.27,9.27,0,0,0,1.05.4,19.45,19.45,0,0,0,2.91.66,31.76,31.76,0,0,0,3.39.33,32,32,0,0,0,3.42,0,19.93,19.93,0,0,0,3-.39,9.58,9.58,0,0,0,1.12-.31,4.6,4.6,0,0,0,.8-.36,1.79,1.79,0,0,0,.49-.4A.73.73,0,0,0,65.6,8.9Z"/><path class="cls-10" d="M63,7.14A7.34,7.34,0,0,1,64.93,8c.44.29.66.6.67.89s-.2.59-.63.85a6.58,6.58,0,0,1-2,.7,19.93,19.93,0,0,1-3,.39,32,32,0,0,1-3.42,0,31.76,31.76,0,0,1-3.39-.33,19.45,19.45,0,0,1-2.91-.66A6.25,6.25,0,0,1,48.45,9c-.39-.3-.56-.6-.51-.9s.31-.57.78-.82a7.59,7.59,0,0,1,2-.65,20.9,20.9,0,0,1,2.91-.36,32.92,32.92,0,0,1,6.5.29A20.47,20.47,0,0,1,63,7.14Z"/><path class="cls-11" d="M41.89,12.25q-.14,4.18-.28,8.36a1,1,0,0,1-.21.55,2.2,2.2,0,0,1-.59.53,5.27,5.27,0,0,1-1,.48,10.67,10.67,0,0,1-1.35.41,20.46,20.46,0,0,1-3.25.48,30,30,0,0,1-3.61,0,27.83,27.83,0,0,1-3.49-.38,15.88,15.88,0,0,1-2.91-.77,7.39,7.39,0,0,1-.94-.43,3.76,3.76,0,0,1-.66-.46,1.76,1.76,0,0,1-.39-.47.94.94,0,0,1-.12-.47l.16-8.36a.81.81,0,0,0,.12.43,1.68,1.68,0,0,0,.39.43,3.83,3.83,0,0,0,.67.42,7.8,7.8,0,0,0,.95.4,17.11,17.11,0,0,0,2.94.72,30.32,30.32,0,0,0,3.52.36,32.88,32.88,0,0,0,3.63,0,22.25,22.25,0,0,0,3.27-.44,11.44,11.44,0,0,0,1.36-.38,5.48,5.48,0,0,0,1-.44,2.15,2.15,0,0,0,.59-.49A.87.87,0,0,0,41.89,12.25Z"/><path class="cls-12" d="M39.53,10.46a6,6,0,0,1,1.85.91,1.06,1.06,0,0,1,.5,1,1.54,1.54,0,0,1-.87.94,8.36,8.36,0,0,1-2.25.77,22.25,22.25,0,0,1-3.27.44,32.88,32.88,0,0,1-3.63,0,30.32,30.32,0,0,1-3.52-.36,17.11,17.11,0,0,1-2.94-.72,5,5,0,0,1-1.75-1,.9.9,0,0,1-.32-1,2,2,0,0,1,1-.91,9.53,9.53,0,0,1,2.29-.72,23.11,23.11,0,0,1,3.18-.4,32.91,32.91,0,0,1,3.46,0,30.71,30.71,0,0,1,3.36.33A18.34,18.34,0,0,1,39.53,10.46Z"/></svg>