<svg id="Layer_1" data-name="Layer 1" xmlns="http://www.w3.org/2000/svg" xmlns:xlink="http://www.w3.org/1999/xlink" viewBox="0 0 675.91 64.65"><defs><style>.cls-1{fill:#5b3411;}.cls-2{fill:url(#linear-gradient);}.cls-3{fill:url(#linear-gradient-2);}.cls-4{fill:url(#linear-gradient-3);}.cls-5{fill:url(#linear-gradient-4);}.cls-6{fill:url(#linear-gradient-5);}.cls-7{fill:url(#linear-gradient-6);}.cls-8{fill:url(#linear-gradient-7);}.cls-9{fill:url(#linear-gradient-8);}.cls-10{fill:url(#linear-gradient-9);}.cls-11{fill:url(#linear-gradient-10);}.cls-12{fill:url(#linear-gradient-11);}.cls-13{fill:#172650;}.cls-14{fill:url(#linear-gradient-12);}.cls-15{fill:url(#linear-gradient-13);}.cls-16{fill:url(#linear-gradient-14);}.cls-17{fill:url(#linear-gradient-15);}.cls-18{fill:url(#linear-gradient-16);}.cls-19{fill:url(#linear-gradient-17);}.cls-20{fill:url(#linear-gradient-18);}.cls-21{fill:url(#linear-gradient-19);}.cls-22{fill:url(#linear-gradient-20);}.cls-23{fill:url(#linear-gradient-21);}.cls-24{fill:url(#linear-gradient-22);}.cls-25{fill:#19361a;}.cls-26{fill:url(#linear-gradient-23);}.cls-27{fill:url(#linear-gradient-24);}.cls-28{fill:url(#linear-gradient-25);}.cls-29{fill:url(#linear-gradient-26);}.cls-30{fill:url(#linear-gradient-27);}.cls-31{fill:url(#linear-gradient-28);}.cls-32{fill:url(#linear-gradient-29);}.cls-33{fill:url(#linear-gradient-30);}.cls-34{fill:url(#linear-gradient-31);}.cls-35{fill:url(#linear-gradient-32);}.cls-36{fill:url(#linear-gradient-33);}.cls-37{fill:#6d441b;}.cls-38{fill:url(#linear-gradient-34);}.cls-39{fill:url(#linear-gradient-35);}.cls-40{fill:url(#linear-gradient-36);}.cls-41{fill:url(#linear-gradient-37);}.cls-42{fill:url(#linear-gradient-38);}.cls-43{fill:url(#linear-gradient-39);}.cls-44{fill:url(#linear-gradient-40);}.cls-45{fill:url(#linear-gradient-41);}.cls-46{fill:url(#linear-gradient-42);}.cls-47{fill:url(#linear-gradient-43);}.cls-48{fill:url(#linear-gradient-44);}.cls-49{fill:#3c140d;}.cls-50{fill:url(#linear-gradient-45);}.cls-51{fill:url(#linear-gradient-46);}.cls-52{fill:url(#linear-gradient-47);}.cls-53{fill:url(#linear-gradient-48);}.cls-54{fill:url(#linear-gradient-49);}.cls-55{fill:url(#linear-gradient-50);}.cls-56{fill:url(#linear-gradient-51);}.cls-57{fill:url(#linear-gradient-52);}.cls-58{fill:url(#linear-gradient-53);}.cls-59{fill:url(#linear-gradient-54);}.cls-60{fill:url(#linear-gradient-55);}.cls-61{fill:#38491f;}.cls-62{fill:url(#linear-gradient-56);}.cls-63{fill:url(#linear-gradient-57);}.cls-64{fill:url(#linear-gradient-58);}.cls-65{fill:url(#linear-gradient-59);}.cls-66{fill:url(#linear-gradient-60);}.cls-67{fill:url(#linear-gradient-61);}.cls-68{fill:url(#linear-gradient-62);}.cls-69{fill:url(#linear-gradient-63);}.cls-70{fill:url(#linear-gradient-64);}.cls-71{fill:url(#linear-gradient-65);}.cls-72{fill:url(#linear-gradient-66);}.cls-73{fill:url(#linear-gradient-67);}.cls-74{fill:url(#linear-gradient-68);}.cls-75{fill:url(#linear-gradient-69);}.cls-76{fill:url(#linear-gradient-70);}.cls-77{fill:url(#linear-gradient-71);}.cls-78{fill:url(#linear-gradient-72);}.cls-79{fill:url(#linear-gradient-73);}.cls-80{fill:url(#linear-gradient-74);}.cls-81{fill:url(#linear-gradient-75);}.cls-82{fill:url(#linear-gradient-76);}.cls-83{fill:url(#linear-gradient-77);}.cls-84{fill:url(#linear-gradient-78);}.cls-85{fill:url(#linear-gradient-79);}.cls-86{fill:url(#linear-gradient-80);}.cls-87{fill:url(#linear-gradient-81);}.cls-88{fill:url(#linear-gradient-82);}.cls-89{fill:url(#linear-gradient-83);}.cls-90{fill:url(#linear-gradient-84);}.cls-91{fill:url(#linear-gradient-85);}.cls-92{fill:url(#linear-gradient-86);}.cls-93{fill:url(#linear-gradient-87);}.cls-94{fill:url(#linear-gradient-88);}.cls-95{fill:url(#linear-gradient-89);}.cls-96{fill:url(#linear-gradient-90);}.cls-97{fill:url(#linear-gradient-91);}.cls-98{fill:url(#linear-gradient-92);}.cls-99{fill:url(#linear-gradient-93);}.cls-100{fill:url(#linear-gradient-94);}.cls-101{fill:url(#linear-gradient-95);}.cls-102{fill:url(#linear-gradient-96);}.cls-103{fill:url(#linear-gradient-97);}.cls-104{fill:url(#linear-gradient-98);}.cls-105{fill:url(#linear-gradient-99);}.cls-106{fill:url(#linear-gradient-100);}.cls-107{fill:url(#linear-gradient-101);}.cls-108{fill:url(#linear-gradient-102);}.cls-109{fill:url(#linear-gradient-103);}.cls-110{fill:url(#linear-gradient-104);}.cls-111{fill:url(#linear-gradient-105);}.cls-112{fill:url(#linear-gradient-106);}.cls-113{fill:url(#linear-gradient-107);}.cls-114{fill:url(#linear-gradient-108);}.cls-115{fill:url(#linear-gradient-109);}.cls-116{fill:url(#linear-gradient-110);}</style><linearGradient id="linear-gradient" x1="630.82" y1="40.3" x2="675.91" y2="40.3" gradientUnits="userSpaceOnUse"><stop offset="0" stop-color="#f5841f"/><stop offset="1" stop-color="#e97224"/></linearGradient><linearGradient id="linear-gradient-2" x1="601.44" y1="37.98" x2="631.25" y2="37.98" gradientUnits="userSpaceOnUse"><stop offset="0.01" stop-color="#e97224"/><stop offset="0.01" stop-color="#e97224"/><stop offset="0.3" stop-color="#f39817"/><stop offset="0.57" stop-color="#f9b30e"/><stop offset="0.82" stop-color="#fec308"/><stop offset="1" stop-color="#ffc906"/></linearGradient><linearGradient id="linear-gradient-3" x1="634.17" y1="27.73" x2="642.29" y2="5.44" gradientUnits="userSpaceOnUse"><stop offset="0" stop-color="#e97224"/><stop offset="1" stop-color="#a53b23"/></linearGradient><linearGradient id="linear-gradient-4" x1="631.05" y1="6.85" x2="647.88" y2="6.85" gradientUnits="userSpaceOnUse"><stop offset="0.01" stop-color="#e97224"/><stop offset="0.36" stop-color="#ffc906"/><stop offset="0.7" stop-color="#e97224"/><stop offset="1" stop-color="#a53b23"/></linearGradient><linearGradient id="linear-gradient-5" x1="638.42" y1="5.15" x2="640.66" y2="-1.01" xlink:href="#linear-gradient-3"/><linearGradient id="linear-gradient-6" x1="608.64" y1="10.93" x2="626.23" y2="10.93" xlink:href="#linear-gradient-4"/><linearGradient id="linear-gradient-7" x1="616.22" y1="9.19" x2="618.69" y2="2.41" xlink:href="#linear-gradient-3"/><linearGradient id="linear-gradient-8" x1="649.09" y1="13.57" x2="667.04" y2="13.57" xlink:href="#linear-gradient-4"/><linearGradient id="linear-gradient-9" x1="657.03" y1="11.77" x2="659.39" y2="5.27" xlink:href="#linear-gradient-3"/><linearGradient id="linear-gradient-10" x1="624.57" y1="17.45" x2="643.33" y2="17.45" xlink:href="#linear-gradient-4"/><linearGradient id="linear-gradient-11" x1="632.72" y1="15.59" x2="635.34" y2="8.4" xlink:href="#linear-gradient-3"/><linearGradient id="linear-gradient-12" x1="565.22" y1="40.3" x2="610.31" y2="40.3" gradientUnits="userSpaceOnUse"><stop offset="0" stop-color="#2958a7"/><stop offset="1" stop-color="#2d499e"/></linearGradient><linearGradient id="linear-gradient-13" x1="535.84" y1="37.98" x2="565.65" y2="37.98" gradientUnits="userSpaceOnUse"><stop offset="0" stop-color="#2d499e"/><stop offset="0.32" stop-color="#375ca9"/><stop offset="0.7" stop-color="#406cb3"/><stop offset="1" stop-color="#4372b7"/></linearGradient><linearGradient id="linear-gradient-14" x1="568.57" y1="27.73" x2="576.68" y2="5.44" gradientUnits="userSpaceOnUse"><stop offset="0" stop-color="#2d499e"/><stop offset="1" stop-color="#1b1b51"/></linearGradient><linearGradient id="linear-gradient-15" x1="565.44" y1="6.85" x2="582.28" y2="6.85" gradientUnits="userSpaceOnUse"><stop offset="0.01" stop-color="#2d499e"/><stop offset="0.33" stop-color="#4372b7"/><stop offset="0.66" stop-color="#2d499e"/><stop offset="1" stop-color="#1b1b51"/></linearGradient><linearGradient id="linear-gradient-16" x1="572.82" y1="5.15" x2="575.06" y2="-1.01" xlink:href="#linear-gradient-14"/><linearGradient id="linear-gradient-17" x1="543.04" y1="10.93" x2="560.63" y2="10.93" xlink:href="#linear-gradient-15"/><linearGradient id="linear-gradient-18" x1="550.62" y1="9.19" x2="553.09" y2="2.41" xlink:href="#linear-gradient-14"/><linearGradient id="linear-gradient-19" x1="583.48" y1="13.57" x2="601.44" y2="13.57" xlink:href="#linear-gradient-15"/><linearGradient id="linear-gradient-20" x1="591.43" y1="11.77" x2="593.79" y2="5.27" xlink:href="#linear-gradient-14"/><linearGradient id="linear-gradient-21" x1="558.97" y1="17.45" x2="577.73" y2="17.45" xlink:href="#linear-gradient-15"/><linearGradient id="linear-gradient-22" x1="567.12" y1="15.59" x2="569.74" y2="8.4" xlink:href="#linear-gradient-14"/><linearGradient id="linear-gradient-23" x1="499.62" y1="40.3" x2="544.71" y2="40.3" gradientUnits="userSpaceOnUse"><stop offset="0" stop-color="#139b49"/><stop offset="1" stop-color="#0e7e3f"/></linearGradient><linearGradient id="linear-gradient-24" x1="470.24" y1="37.98" x2="500.05" y2="37.98" gradientUnits="userSpaceOnUse"><stop offset="0" stop-color="#0e7e3f"/><stop offset="0.29" stop-color="#339842"/><stop offset="0.57" stop-color="#4fab44"/><stop offset="0.82" stop-color="#60b746"/><stop offset="1" stop-color="#66bb46"/></linearGradient><linearGradient id="linear-gradient-25" x1="502.97" y1="27.73" x2="511.08" y2="5.43" gradientUnits="userSpaceOnUse"><stop offset="0" stop-color="#0e7e3f"/><stop offset="1" stop-color="#1c3d1c"/></linearGradient><linearGradient id="linear-gradient-26" x1="499.84" y1="6.85" x2="516.68" y2="6.85" gradientUnits="userSpaceOnUse"><stop offset="0" stop-color="#0e7e3f"/><stop offset="0.35" stop-color="#66bb46"/><stop offset="0.69" stop-color="#0e7e3f"/><stop offset="1" stop-color="#1c3d1c"/></linearGradient><linearGradient id="linear-gradient-27" x1="507.22" y1="5.15" x2="509.46" y2="-1.01" xlink:href="#linear-gradient-25"/><linearGradient id="linear-gradient-28" x1="477.44" y1="10.93" x2="495.03" y2="10.93" xlink:href="#linear-gradient-26"/><linearGradient id="linear-gradient-29" x1="485.02" y1="9.19" x2="487.48" y2="2.41" xlink:href="#linear-gradient-25"/><linearGradient id="linear-gradient-30" x1="517.88" y1="13.57" x2="535.84" y2="13.57" xlink:href="#linear-gradient-26"/><linearGradient id="linear-gradient-31" x1="525.82" y1="11.77" x2="528.19" y2="5.27" xlink:href="#linear-gradient-25"/><linearGradient id="linear-gradient-32" x1="493.37" y1="17.45" x2="512.13" y2="17.45" xlink:href="#linear-gradient-26"/><linearGradient id="linear-gradient-33" x1="501.52" y1="15.59" x2="504.14" y2="8.4" xlink:href="#linear-gradient-25"/><linearGradient id="linear-gradient-34" x1="432.15" y1="40.3" x2="477.24" y2="40.3" gradientUnits="userSpaceOnUse"><stop offset="0" stop-color="#fdd500"/><stop offset="1" stop-color="#ffc708"/></linearGradient><linearGradient id="linear-gradient-35" x1="402.78" y1="37.98" x2="432.58" y2="37.98" gradientUnits="userSpaceOnUse"><stop offset="0" stop-color="#fdd500"/><stop offset="0.11" stop-color="#fdda1c"/><stop offset="0.32" stop-color="#fee14b"/><stop offset="0.52" stop-color="#fee76f"/><stop offset="0.71" stop-color="#ffeb89"/><stop offset="0.87" stop-color="#fe9"/><stop offset="1" stop-color="#ffef9f"/></linearGradient><linearGradient id="linear-gradient-36" x1="435.51" y1="27.73" x2="443.62" y2="5.44" gradientUnits="userSpaceOnUse"><stop offset="0" stop-color="#fdd500"/><stop offset="1" stop-color="#d89028"/></linearGradient><linearGradient id="linear-gradient-37" x1="432.38" y1="6.86" x2="449.21" y2="6.86" gradientUnits="userSpaceOnUse"><stop offset="0" stop-color="#fdd500"/><stop offset="0.37" stop-color="#ffef9f"/><stop offset="0.7" stop-color="#fdd500"/><stop offset="1" stop-color="#d89028"/></linearGradient><linearGradient id="linear-gradient-38" x1="439.76" y1="5.15" x2="442" y2="-1" xlink:href="#linear-gradient-36"/><linearGradient id="linear-gradient-39" x1="409.97" y1="10.94" x2="427.57" y2="10.94" xlink:href="#linear-gradient-37"/><linearGradient id="linear-gradient-40" x1="417.55" y1="9.19" x2="420.02" y2="2.41" xlink:href="#linear-gradient-36"/><linearGradient id="linear-gradient-41" x1="450.42" y1="13.57" x2="468.38" y2="13.57" xlink:href="#linear-gradient-37"/><linearGradient id="linear-gradient-42" x1="458.36" y1="11.77" x2="460.72" y2="5.28" xlink:href="#linear-gradient-36"/><linearGradient id="linear-gradient-43" x1="425.9" y1="17.45" x2="444.67" y2="17.45" xlink:href="#linear-gradient-37"/><linearGradient id="linear-gradient-44" x1="434.06" y1="15.6" x2="436.67" y2="8.41" xlink:href="#linear-gradient-36"/><linearGradient id="linear-gradient-45" x1="362.71" y1="40.31" x2="407.8" y2="40.31" gradientUnits="userSpaceOnUse"><stop offset="0" stop-color="#cd2727"/><stop offset="1" stop-color="#b82625"/></linearGradient><linearGradient id="linear-gradient-46" x1="333.33" y1="37.98" x2="363.14" y2="37.98" gradientUnits="userSpaceOnUse"><stop offset="0" stop-color="#b82625"/><stop offset="0.06" stop-color="#bd2925"/><stop offset="0.42" stop-color="#d83924"/><stop offset="0.75" stop-color="#e84323"/><stop offset="1" stop-color="#ee4623"/></linearGradient><linearGradient id="linear-gradient-47" x1="366.06" y1="27.73" x2="374.17" y2="5.44" gradientUnits="userSpaceOnUse"><stop offset="0" stop-color="#b82625"/><stop offset="1" stop-color="#7e2518"/></linearGradient><linearGradient id="linear-gradient-48" x1="362.93" y1="6.86" x2="379.76" y2="6.86" gradientUnits="userSpaceOnUse"><stop offset="0.01" stop-color="#b82625"/><stop offset="0.36" stop-color="#ee4623"/><stop offset="0.69" stop-color="#b82625"/><stop offset="1" stop-color="#7e2518"/></linearGradient><linearGradient id="linear-gradient-49" x1="370.31" y1="5.15" x2="372.55" y2="-1" xlink:href="#linear-gradient-47"/><linearGradient id="linear-gradient-50" x1="340.53" y1="10.94" x2="358.12" y2="10.94" xlink:href="#linear-gradient-48"/><linearGradient id="linear-gradient-51" x1="348.1" y1="9.19" x2="350.57" y2="2.41" xlink:href="#linear-gradient-47"/><linearGradient id="linear-gradient-52" x1="380.97" y1="13.57" x2="398.93" y2="13.57" xlink:href="#linear-gradient-48"/><linearGradient id="linear-gradient-53" x1="388.91" y1="11.77" x2="391.28" y2="5.28" xlink:href="#linear-gradient-47"/><linearGradient id="linear-gradient-54" x1="356.46" y1="17.45" x2="375.22" y2="17.45" xlink:href="#linear-gradient-48"/><linearGradient id="linear-gradient-55" x1="364.61" y1="15.6" x2="367.22" y2="8.41" xlink:href="#linear-gradient-47"/><linearGradient id="linear-gradient-56" x1="292.75" y1="40.3" x2="337.84" y2="40.3" gradientUnits="userSpaceOnUse"><stop offset="0" stop-color="#aacf37"/><stop offset="1" stop-color="#93c83d"/></linearGradient><linearGradient id="linear-gradient-57" x1="263.38" y1="37.98" x2="293.18" y2="37.98" gradientUnits="userSpaceOnUse"><stop offset="0" stop-color="#93c83d"/><stop offset="0.18" stop-color="#a6cf46"/><stop offset="0.5" stop-color="#c1d952"/><stop offset="0.78" stop-color="#d1df59"/><stop offset="1" stop-color="#d7e15c"/></linearGradient><linearGradient id="linear-gradient-58" x1="296.11" y1="27.73" x2="304.22" y2="5.44" gradientUnits="userSpaceOnUse"><stop offset="0.01" stop-color="#93c83d"/><stop offset="1" stop-color="#45803c"/></linearGradient><linearGradient id="linear-gradient-59" x1="292.98" y1="6.85" x2="309.81" y2="6.85" gradientUnits="userSpaceOnUse"><stop offset="0.01" stop-color="#93c83d"/><stop offset="0.39" stop-color="#d7e15c"/><stop offset="0.7" stop-color="#93c83d"/><stop offset="1" stop-color="#45803c"/></linearGradient><linearGradient id="linear-gradient-60" x1="300.36" y1="5.15" x2="302.6" y2="-1" xlink:href="#linear-gradient-58"/><linearGradient id="linear-gradient-61" x1="270.58" y1="10.93" x2="288.17" y2="10.93" xlink:href="#linear-gradient-59"/><linearGradient id="linear-gradient-62" x1="278.15" y1="9.19" x2="280.62" y2="2.41" xlink:href="#linear-gradient-58"/><linearGradient id="linear-gradient-63" x1="311.02" y1="13.57" x2="328.98" y2="13.57" xlink:href="#linear-gradient-59"/><linearGradient id="linear-gradient-64" x1="318.96" y1="11.77" x2="321.32" y2="5.28" xlink:href="#linear-gradient-58"/><linearGradient id="linear-gradient-65" x1="286.5" y1="17.45" x2="305.27" y2="17.45" xlink:href="#linear-gradient-59"/><linearGradient id="linear-gradient-66" x1="294.66" y1="15.59" x2="297.27" y2="8.4" xlink:href="#linear-gradient-58"/><linearGradient id="linear-gradient-67" x1="228.05" y1="40.3" x2="273.14" y2="40.3" xlink:href="#linear-gradient"/><linearGradient id="linear-gradient-68" x1="198.67" y1="37.98" x2="228.48" y2="37.98" xlink:href="#linear-gradient-2"/><linearGradient id="linear-gradient-69" x1="231.4" y1="27.73" x2="239.51" y2="5.44" xlink:href="#linear-gradient-3"/><linearGradient id="linear-gradient-70" x1="228.27" y1="6.85" x2="245.1" y2="6.85" xlink:href="#linear-gradient-4"/><linearGradient id="linear-gradient-71" x1="235.65" y1="5.15" x2="237.89" y2="-1.01" xlink:href="#linear-gradient-3"/><linearGradient id="linear-gradient-72" x1="205.87" y1="10.93" x2="223.46" y2="10.93" xlink:href="#linear-gradient-4"/><linearGradient id="linear-gradient-73" x1="213.44" y1="9.19" x2="215.91" y2="2.41" xlink:href="#linear-gradient-3"/><linearGradient id="linear-gradient-74" x1="246.31" y1="13.57" x2="264.27" y2="13.57" xlink:href="#linear-gradient-4"/><linearGradient id="linear-gradient-75" x1="254.25" y1="11.77" x2="256.61" y2="5.27" xlink:href="#linear-gradient-3"/><linearGradient id="linear-gradient-76" x1="221.8" y1="17.45" x2="240.56" y2="17.45" xlink:href="#linear-gradient-4"/><linearGradient id="linear-gradient-77" x1="229.95" y1="15.59" x2="232.56" y2="8.4" xlink:href="#linear-gradient-3"/><linearGradient id="linear-gradient-78" x1="162.44" y1="40.3" x2="207.53" y2="40.3" xlink:href="#linear-gradient-12"/><linearGradient id="linear-gradient-79" x1="133.06" y1="37.98" x2="162.87" y2="37.98" xlink:href="#linear-gradient-13"/><linearGradient id="linear-gradient-80" x1="165.8" y1="27.73" x2="173.91" y2="5.44" xlink:href="#linear-gradient-14"/><linearGradient id="linear-gradient-81" x1="162.67" y1="6.86" x2="179.5" y2="6.86" xlink:href="#linear-gradient-15"/><linearGradient id="linear-gradient-82" x1="170.05" y1="5.15" x2="172.29" y2="-1" xlink:href="#linear-gradient-14"/><linearGradient id="linear-gradient-83" x1="140.26" y1="10.94" x2="157.85" y2="10.94" xlink:href="#linear-gradient-15"/><linearGradient id="linear-gradient-84" x1="147.84" y1="9.19" x2="150.31" y2="2.41" xlink:href="#linear-gradient-14"/><linearGradient id="linear-gradient-85" x1="180.71" y1="13.57" x2="198.67" y2="13.57" xlink:href="#linear-gradient-15"/><linearGradient id="linear-gradient-86" x1="188.65" y1="11.77" x2="191.01" y2="5.28" xlink:href="#linear-gradient-14"/><linearGradient id="linear-gradient-87" x1="156.19" y1="17.45" x2="174.96" y2="17.45" xlink:href="#linear-gradient-15"/><linearGradient id="linear-gradient-88" x1="164.35" y1="15.6" x2="166.96" y2="8.41" xlink:href="#linear-gradient-14"/><linearGradient id="linear-gradient-89" x1="96.84" y1="40.3" x2="141.93" y2="40.3" xlink:href="#linear-gradient-23"/><linearGradient id="linear-gradient-90" x1="67.46" y1="37.98" x2="97.27" y2="37.98" xlink:href="#linear-gradient-24"/><linearGradient id="linear-gradient-91" x1="100.19" y1="27.73" x2="108.31" y2="5.43" xlink:href="#linear-gradient-25"/><linearGradient id="linear-gradient-92" x1="97.07" y1="6.85" x2="113.9" y2="6.85" xlink:href="#linear-gradient-26"/><linearGradient id="linear-gradient-93" x1="104.45" y1="5.15" x2="106.69" y2="-1.01" xlink:href="#linear-gradient-25"/><linearGradient id="linear-gradient-94" x1="74.66" y1="10.93" x2="92.25" y2="10.93" xlink:href="#linear-gradient-26"/><linearGradient id="linear-gradient-95" x1="82.24" y1="9.19" x2="84.71" y2="2.41" xlink:href="#linear-gradient-25"/><linearGradient id="linear-gradient-96" x1="115.11" y1="13.57" x2="133.06" y2="13.57" xlink:href="#linear-gradient-26"/><linearGradient id="linear-gradient-97" x1="123.05" y1="11.77" x2="125.41" y2="5.27" xlink:href="#linear-gradient-25"/><linearGradient id="linear-gradient-98" x1="90.59" y1="17.45" x2="109.36" y2="17.45" xlink:href="#linear-gradient-26"/><linearGradient id="linear-gradient-99" x1="98.74" y1="15.59" x2="101.36" y2="8.4" xlink:href="#linear-gradient-25"/><linearGradient id="linear-gradient-100" x1="29.38" y1="40.3" x2="74.47" y2="40.3" xlink:href="#linear-gradient-34"/><linearGradient id="linear-gradient-101" x1="0" y1="37.98" x2="29.81" y2="37.98" xlink:href="#linear-gradient-35"/><linearGradient id="linear-gradient-102" x1="32.73" y1="27.73" x2="40.84" y2="5.44" xlink:href="#linear-gradient-36"/><linearGradient id="linear-gradient-103" x1="29.6" y1="6.85" x2="46.44" y2="6.85" xlink:href="#linear-gradient-37"/><linearGradient id="linear-gradient-104" x1="36.98" y1="5.15" x2="39.22" y2="-1" xlink:href="#linear-gradient-36"/><linearGradient id="linear-gradient-105" x1="7.2" y1="10.93" x2="24.79" y2="10.93" xlink:href="#linear-gradient-37"/><linearGradient id="linear-gradient-106" x1="14.78" y1="9.19" x2="17.25" y2="2.41" xlink:href="#linear-gradient-36"/><linearGradient id="linear-gradient-107" x1="47.64" y1="13.57" x2="65.6" y2="13.57" xlink:href="#linear-gradient-37"/><linearGradient id="linear-gradient-108" x1="55.59" y1="11.77" x2="57.95" y2="5.28" xlink:href="#linear-gradient-36"/><linearGradient id="linear-gradient-109" x1="23.13" y1="17.45" x2="41.89" y2="17.45" xlink:href="#linear-gradient-37"/><linearGradient id="linear-gradient-110" x1="31.28" y1="15.59" x2="33.9" y2="8.4" xlink:href="#linear-gradient-36"/></defs><title>8</title><polygon class="cls-1" points="674.04 51.12 602.01 45.58 602.41 46.67 630.82 64.64 673.21 52.51 674.04 51.12"/><polygon class="cls-2" points="675.91 17.67 674.04 51.12 630.82 62.93 631.25 26.66 675.91 17.67"/><polygon class="cls-3" points="631.25 26.66 630.82 62.93 602.01 45.58 601.44 13.03 631.25 26.66"/><polygon class="cls-4" points="675.91 17.67 631.25 26.66 601.44 13.03 643.59 6.1 675.91 17.67"/><path class="cls-5" d="M647.88,2.31l-.27,7.56a.74.74,0,0,1-.18.44,1.87,1.87,0,0,1-.52.42,4.85,4.85,0,0,1-.85.38,10.2,10.2,0,0,1-1.19.32,20.06,20.06,0,0,1-2.9.38,29.9,29.9,0,0,1-3.22,0,27.89,27.89,0,0,1-3.13-.31,15.9,15.9,0,0,1-2.63-.63,7.2,7.2,0,0,1-.86-.36,3.53,3.53,0,0,1-.61-.37,1.49,1.49,0,0,1-.36-.38A.7.7,0,0,1,631,9.4l.16-7.56a.61.61,0,0,0,.11.35,1.44,1.44,0,0,0,.36.36,3.6,3.6,0,0,0,.61.35,7.64,7.64,0,0,0,.87.33,17.23,17.23,0,0,0,2.64.59,30.34,30.34,0,0,0,3.15.3c1.09,0,2.19,0,3.24,0a21.83,21.83,0,0,0,2.91-.34,11,11,0,0,0,1.2-.3,5.09,5.09,0,0,0,.86-.35,1.85,1.85,0,0,0,.52-.39A.65.65,0,0,0,647.88,2.31Z"/><path class="cls-6" d="M645.73.86a5.76,5.76,0,0,1,1.68.74c.36.26.51.53.46.79s-.3.52-.76.75a7.87,7.87,0,0,1-2,.61,21.83,21.83,0,0,1-2.91.34c-1.05.06-2.15.06-3.24,0a30.34,30.34,0,0,1-3.15-.3,17.23,17.23,0,0,1-2.64-.59,4.86,4.86,0,0,1-1.6-.77c-.32-.27-.42-.54-.32-.8a1.58,1.58,0,0,1,.89-.73,8.9,8.9,0,0,1,2-.58A22.64,22.64,0,0,1,637,0c1-.05,2.06-.06,3.1,0s2.07.14,3,.28A18.37,18.37,0,0,1,645.73.86Z"/><path class="cls-7" d="M626.23,5.91q-.07,4-.15,7.9a.86.86,0,0,1-.21.53,2.25,2.25,0,0,1-.62.5,5.81,5.81,0,0,1-1,.46,11.93,11.93,0,0,1-1.42.39,22.12,22.12,0,0,1-3.15.42,30.56,30.56,0,0,1-3.42,0A26.62,26.62,0,0,1,613,15.8a14,14,0,0,1-2.64-.69,6.12,6.12,0,0,1-.77-.35,3.08,3.08,0,0,1-.54-.37,1.44,1.44,0,0,1-.32-.38.78.78,0,0,1-.1-.38q0-4,0-7.93a.68.68,0,0,0,.1.35,1.37,1.37,0,0,0,.32.35,3.17,3.17,0,0,0,.54.34,6.4,6.4,0,0,0,.77.33,15.09,15.09,0,0,0,2.65.64,29,29,0,0,0,3.26.32,33.44,33.44,0,0,0,3.44,0,24.15,24.15,0,0,0,3.17-.38,12.85,12.85,0,0,0,1.43-.36,6,6,0,0,0,1-.42A2.21,2.21,0,0,0,626,6.4.76.76,0,0,0,626.23,5.91Z"/><path class="cls-8" d="M624.29,4.45a4.59,4.59,0,0,1,1.59.81.76.76,0,0,1,.3.87,1.85,1.85,0,0,1-1,.83,9.82,9.82,0,0,1-2.26.68,24.15,24.15,0,0,1-3.17.38,33.44,33.44,0,0,1-3.44,0,29,29,0,0,1-3.26-.32,15.09,15.09,0,0,1-2.65-.64,3.81,3.81,0,0,1-1.5-.84.69.69,0,0,1-.14-.87,2.35,2.35,0,0,1,1.12-.8,11,11,0,0,1,2.29-.63,25,25,0,0,1,3.08-.35c1.08-.06,2.19-.06,3.28,0a29.33,29.33,0,0,1,3.13.3A16.17,16.17,0,0,1,624.29,4.45Z"/><path class="cls-9" d="M667,8.9l-.41,8a.84.84,0,0,1-.18.46,1.83,1.83,0,0,1-.49.43,4.39,4.39,0,0,1-.8.39,9.08,9.08,0,0,1-1.12.34,18.4,18.4,0,0,1-3,.43,29.29,29.29,0,0,1-3.39,0,29,29,0,0,1-3.36-.35,18,18,0,0,1-2.89-.7,8.74,8.74,0,0,1-1-.43,4.25,4.25,0,0,1-.74-.46,1.79,1.79,0,0,1-.43-.46.83.83,0,0,1-.13-.46h0l.29-8a.72.72,0,0,0,.13.43,1.74,1.74,0,0,0,.43.43,4.39,4.39,0,0,0,.74.42,9.22,9.22,0,0,0,1.05.4,19.43,19.43,0,0,0,2.91.66,31.75,31.75,0,0,0,3.39.33,32,32,0,0,0,3.42,0,19.93,19.93,0,0,0,3-.39,9.56,9.56,0,0,0,1.12-.31,4.59,4.59,0,0,0,.8-.36,1.79,1.79,0,0,0,.49-.4A.74.74,0,0,0,667,8.9Z"/><path class="cls-10" d="M664.45,7.14a7.34,7.34,0,0,1,1.93.83c.44.29.66.6.67.89s-.2.59-.63.85a6.58,6.58,0,0,1-2,.7,19.93,19.93,0,0,1-3,.39,32,32,0,0,1-3.42,0,31.75,31.75,0,0,1-3.39-.33,19.43,19.43,0,0,1-2.91-.66A6.24,6.24,0,0,1,649.89,9c-.39-.3-.56-.6-.51-.9s.31-.57.78-.82a7.58,7.58,0,0,1,2-.65,20.91,20.91,0,0,1,2.91-.36,32.92,32.92,0,0,1,6.5.29A20.48,20.48,0,0,1,664.45,7.14Z"/><path class="cls-11" d="M643.33,12.25l-.28,8.36a1,1,0,0,1-.21.55,2.21,2.21,0,0,1-.59.53,5.28,5.28,0,0,1-1,.48,10.67,10.67,0,0,1-1.35.41,20.46,20.46,0,0,1-3.25.48,30,30,0,0,1-3.61,0,27.83,27.83,0,0,1-3.49-.38,15.88,15.88,0,0,1-2.91-.77,7.38,7.38,0,0,1-.94-.43,3.78,3.78,0,0,1-.66-.46,1.76,1.76,0,0,1-.39-.47.94.94,0,0,1-.12-.47q.08-4.18.16-8.36a.82.82,0,0,0,.12.43,1.67,1.67,0,0,0,.39.43,3.81,3.81,0,0,0,.66.42,7.83,7.83,0,0,0,.95.4,17.11,17.11,0,0,0,2.94.72,30.32,30.32,0,0,0,3.52.36,32.88,32.88,0,0,0,3.63,0,22.26,22.26,0,0,0,3.27-.44,11.43,11.43,0,0,0,1.36-.38,5.48,5.48,0,0,0,1-.44,2.16,2.16,0,0,0,.59-.49A.87.87,0,0,0,643.33,12.25Z"/><path class="cls-12" d="M641,10.46a6,6,0,0,1,1.85.91,1.06,1.06,0,0,1,.5,1,1.54,1.54,0,0,1-.87.94,8.36,8.36,0,0,1-2.25.77,22.26,22.26,0,0,1-3.27.44,32.88,32.88,0,0,1-3.63,0,30.32,30.32,0,0,1-3.52-.36,17.11,17.11,0,0,1-2.94-.72,5,5,0,0,1-1.75-1,.9.9,0,0,1-.32-1,2,2,0,0,1,1-.91,9.53,9.53,0,0,1,2.29-.72,23.1,23.1,0,0,1,3.18-.4,32.91,32.91,0,0,1,3.46,0,30.72,30.72,0,0,1,3.36.33A18.34,18.34,0,0,1,641,10.46Z"/><polygon class="cls-13" points="608.44 51.12 536.41 45.58 536.81 46.67 565.22 64.64 607.61 52.51 608.44 51.12"/><polygon class="cls-14" points="610.31 17.67 608.44 51.12 565.22 62.93 565.65 26.66 610.31 17.67"/><polygon class="cls-15" points="565.65 26.66 565.22 62.93 536.41 45.58 535.84 13.03 565.65 26.66"/><polygon class="cls-16" points="610.31 17.67 565.65 26.66 535.84 13.03 577.99 6.1 610.31 17.67"/><path class="cls-17" d="M582.28,2.31q-.13,3.78-.27,7.56a.74.74,0,0,1-.18.44,1.9,1.9,0,0,1-.52.42,4.89,4.89,0,0,1-.85.38,10.26,10.26,0,0,1-1.19.32,20.06,20.06,0,0,1-2.9.38,29.9,29.9,0,0,1-3.22,0,27.9,27.9,0,0,1-3.13-.31,15.88,15.88,0,0,1-2.63-.63,7.15,7.15,0,0,1-.86-.36,3.53,3.53,0,0,1-.61-.37,1.5,1.5,0,0,1-.36-.38.7.7,0,0,1-.11-.38l.16-7.56a.62.62,0,0,0,.11.35,1.44,1.44,0,0,0,.36.36,3.64,3.64,0,0,0,.61.35,7.66,7.66,0,0,0,.87.33,17.23,17.23,0,0,0,2.65.59,30.32,30.32,0,0,0,3.15.3c1.09,0,2.19,0,3.24,0a21.81,21.81,0,0,0,2.91-.34,11,11,0,0,0,1.2-.3,5.1,5.1,0,0,0,.86-.35,1.86,1.86,0,0,0,.52-.39A.65.65,0,0,0,582.28,2.31Z"/><path class="cls-18" d="M580.13.86a5.76,5.76,0,0,1,1.67.74c.36.26.51.53.47.79s-.3.52-.76.75a7.86,7.86,0,0,1-2,.61,21.81,21.81,0,0,1-2.91.34c-1.05.06-2.15.06-3.24,0a30.32,30.32,0,0,1-3.15-.3,17.23,17.23,0,0,1-2.65-.59,4.87,4.87,0,0,1-1.6-.77c-.32-.27-.42-.54-.32-.8a1.58,1.58,0,0,1,.89-.73,8.9,8.9,0,0,1,2-.58A22.64,22.64,0,0,1,571.4,0c1-.05,2.06-.06,3.1,0s2.07.14,3,.28A18.39,18.39,0,0,1,580.13.86Z"/><path class="cls-19" d="M560.63,5.91q-.07,4-.15,7.9a.87.87,0,0,1-.21.53,2.26,2.26,0,0,1-.62.5,5.79,5.79,0,0,1-1,.46,12,12,0,0,1-1.42.39,22.14,22.14,0,0,1-3.15.42,30.57,30.57,0,0,1-3.42,0,26.63,26.63,0,0,1-3.24-.34,14,14,0,0,1-2.64-.69,6.09,6.09,0,0,1-.76-.35,3.06,3.06,0,0,1-.54-.37,1.44,1.44,0,0,1-.32-.38.78.78,0,0,1-.1-.38l0-7.93a.68.68,0,0,0,.1.35,1.36,1.36,0,0,0,.32.35,3.13,3.13,0,0,0,.54.34,6.46,6.46,0,0,0,.77.33,15.09,15.09,0,0,0,2.65.64,29,29,0,0,0,3.27.32,33.43,33.43,0,0,0,3.44,0,24.14,24.14,0,0,0,3.17-.38,12.88,12.88,0,0,0,1.43-.36,6.06,6.06,0,0,0,1-.42,2.22,2.22,0,0,0,.62-.46A.76.76,0,0,0,560.63,5.91Z"/><path class="cls-20" d="M558.69,4.45a4.59,4.59,0,0,1,1.59.81.76.76,0,0,1,.3.87,1.85,1.85,0,0,1-1,.83,9.81,9.81,0,0,1-2.26.68,24.14,24.14,0,0,1-3.17.38,33.43,33.43,0,0,1-3.44,0,29,29,0,0,1-3.27-.32,15.09,15.09,0,0,1-2.65-.64,3.81,3.81,0,0,1-1.5-.84.69.69,0,0,1-.14-.87,2.34,2.34,0,0,1,1.12-.8,11,11,0,0,1,2.3-.63,25,25,0,0,1,3.08-.35c1.08-.06,2.19-.06,3.28,0a29.33,29.33,0,0,1,3.13.3A16.21,16.21,0,0,1,558.69,4.45Z"/><path class="cls-21" d="M601.44,8.9l-.41,8a.83.83,0,0,1-.18.46,1.83,1.83,0,0,1-.49.43,4.36,4.36,0,0,1-.8.39,9.08,9.08,0,0,1-1.12.34,18.4,18.4,0,0,1-3,.43,29.29,29.29,0,0,1-3.39,0,29,29,0,0,1-3.36-.35,17.94,17.94,0,0,1-2.89-.7,8.77,8.77,0,0,1-1-.43A4.21,4.21,0,0,1,584,17a1.8,1.8,0,0,1-.43-.46.83.83,0,0,1-.13-.46h0l.29-8a.73.73,0,0,0,.13.43,1.74,1.74,0,0,0,.44.43,4.4,4.4,0,0,0,.74.42,9.27,9.27,0,0,0,1.05.4,19.45,19.45,0,0,0,2.91.66,31.76,31.76,0,0,0,3.39.33,32,32,0,0,0,3.42,0,19.93,19.93,0,0,0,3-.39,9.58,9.58,0,0,0,1.12-.31,4.6,4.6,0,0,0,.8-.36,1.79,1.79,0,0,0,.49-.4A.73.73,0,0,0,601.44,8.9Z"/><path class="cls-22" d="M598.84,7.14a7.34,7.34,0,0,1,1.93.83c.44.29.66.6.67.89s-.2.59-.63.85a6.58,6.58,0,0,1-2,.7,19.93,19.93,0,0,1-3,.39,32,32,0,0,1-3.42,0,31.76,31.76,0,0,1-3.39-.33,19.45,19.45,0,0,1-2.91-.66A6.25,6.25,0,0,1,584.29,9c-.39-.3-.56-.6-.51-.9s.31-.57.78-.82a7.59,7.59,0,0,1,2-.65,20.9,20.9,0,0,1,2.91-.36,32.92,32.92,0,0,1,6.5.29A20.47,20.47,0,0,1,598.84,7.14Z"/><path class="cls-23" d="M577.73,12.25q-.14,4.18-.28,8.36a1,1,0,0,1-.21.55,2.2,2.2,0,0,1-.59.53,5.27,5.27,0,0,1-1,.48,10.67,10.67,0,0,1-1.35.41,20.46,20.46,0,0,1-3.25.48,30,30,0,0,1-3.61,0,27.83,27.83,0,0,1-3.49-.38,15.88,15.88,0,0,1-2.91-.77,7.39,7.39,0,0,1-.94-.43,3.76,3.76,0,0,1-.66-.46,1.76,1.76,0,0,1-.39-.47.94.94,0,0,1-.12-.47l.16-8.36a.81.81,0,0,0,.12.43,1.68,1.68,0,0,0,.39.43,3.83,3.83,0,0,0,.67.42,7.8,7.8,0,0,0,.95.4,17.11,17.11,0,0,0,2.94.72,30.32,30.32,0,0,0,3.52.36,32.88,32.88,0,0,0,3.63,0,22.25,22.25,0,0,0,3.27-.44,11.44,11.44,0,0,0,1.36-.38,5.48,5.48,0,0,0,1-.44,2.15,2.15,0,0,0,.59-.49A.87.87,0,0,0,577.73,12.25Z"/><path class="cls-24" d="M575.37,10.46a6,6,0,0,1,1.85.91,1.06,1.06,0,0,1,.5,1,1.54,1.54,0,0,1-.87.94,8.36,8.36,0,0,1-2.25.77,22.25,22.25,0,0,1-3.27.44,32.88,32.88,0,0,1-3.63,0,30.32,30.32,0,0,1-3.52-.36,17.11,17.11,0,0,1-2.94-.72,5,5,0,0,1-1.75-1,.9.9,0,0,1-.32-1,2,2,0,0,1,1-.91,9.53,9.53,0,0,1,2.29-.72,23.11,23.11,0,0,1,3.18-.4,32.91,32.91,0,0,1,3.46,0,30.71,30.71,0,0,1,3.36.33A18.34,18.34,0,0,1,575.37,10.46Z"/><polygon class="cls-25" points="542.84 51.12 470.81 45.57 471.21 46.67 499.62 64.64 542.01 52.51 542.84 51.12"/><polygon class="cls-26" points="544.71 17.67 542.84 51.12 499.62 62.93 500.05 26.66 544.71 17.67"/><polygon class="cls-27" points="500.05 26.66 499.62 62.93 470.81 45.57 470.24 13.03 500.05 26.66"/><polygon class="cls-28" points="544.71 17.67 500.05 26.66 470.24 13.03 512.39 6.1 544.71 17.67"/><path class="cls-29" d="M516.68,2.31l-.27,7.56a.74.74,0,0,1-.18.44,1.88,1.88,0,0,1-.52.42,4.87,4.87,0,0,1-.85.38,10.21,10.21,0,0,1-1.19.32,20.07,20.07,0,0,1-2.9.38,29.89,29.89,0,0,1-3.22,0,27.84,27.84,0,0,1-3.13-.31,15.88,15.88,0,0,1-2.63-.63,7.16,7.16,0,0,1-.86-.36,3.52,3.52,0,0,1-.61-.37,1.49,1.49,0,0,1-.36-.38.7.7,0,0,1-.11-.38L500,1.84a.62.62,0,0,0,.11.35,1.44,1.44,0,0,0,.36.36,3.6,3.6,0,0,0,.61.35,7.67,7.67,0,0,0,.87.33,17.26,17.26,0,0,0,2.65.59,30.33,30.33,0,0,0,3.15.3c1.09,0,2.19,0,3.24,0a21.83,21.83,0,0,0,2.91-.34,11,11,0,0,0,1.2-.3A5.09,5.09,0,0,0,516,3.1a1.85,1.85,0,0,0,.52-.39A.65.65,0,0,0,516.68,2.31Z"/><path class="cls-30" d="M514.53.86a5.76,5.76,0,0,1,1.68.74c.36.26.51.53.46.79s-.3.52-.76.75a7.88,7.88,0,0,1-2,.61A21.83,21.83,0,0,1,511,4.1c-1.05.06-2.15.06-3.24,0a30.33,30.33,0,0,1-3.15-.3A17.26,17.26,0,0,1,502,3.23a4.87,4.87,0,0,1-1.6-.77c-.32-.27-.42-.54-.32-.8a1.58,1.58,0,0,1,.89-.73,8.9,8.9,0,0,1,2-.58A22.63,22.63,0,0,1,505.8,0c1-.05,2.06-.06,3.1,0s2.07.14,3,.28A18.34,18.34,0,0,1,514.53.86Z"/><path class="cls-31" d="M495,5.91q-.07,4-.15,7.9a.86.86,0,0,1-.21.53,2.25,2.25,0,0,1-.62.5,5.8,5.8,0,0,1-1,.46,11.93,11.93,0,0,1-1.42.39,22.12,22.12,0,0,1-3.15.42,30.6,30.6,0,0,1-3.42,0,26.61,26.61,0,0,1-3.24-.34,14,14,0,0,1-2.64-.69,6.13,6.13,0,0,1-.77-.35,3.08,3.08,0,0,1-.54-.37,1.44,1.44,0,0,1-.32-.38.78.78,0,0,1-.1-.38q0-4,0-7.93a.68.68,0,0,0,.1.35,1.36,1.36,0,0,0,.32.35,3.15,3.15,0,0,0,.54.34,6.41,6.41,0,0,0,.77.33,15.11,15.11,0,0,0,2.65.64,29,29,0,0,0,3.26.32,33.39,33.39,0,0,0,3.44,0,24.19,24.19,0,0,0,3.17-.38,12.88,12.88,0,0,0,1.43-.36,6.06,6.06,0,0,0,1-.42,2.21,2.21,0,0,0,.62-.46A.76.76,0,0,0,495,5.91Z"/><path class="cls-32" d="M493.09,4.45a4.58,4.58,0,0,1,1.59.81.76.76,0,0,1,.3.87A1.85,1.85,0,0,1,494,7a9.82,9.82,0,0,1-2.26.68,24.19,24.19,0,0,1-3.17.38,33.39,33.39,0,0,1-3.44,0,29,29,0,0,1-3.26-.32,15.11,15.11,0,0,1-2.65-.64,3.81,3.81,0,0,1-1.5-.84.69.69,0,0,1-.14-.87,2.35,2.35,0,0,1,1.12-.8A11,11,0,0,1,481,3.92a25,25,0,0,1,3.08-.35c1.08-.06,2.19-.06,3.28,0a29.33,29.33,0,0,1,3.13.3A16.16,16.16,0,0,1,493.09,4.45Z"/><path class="cls-33" d="M535.84,8.9l-.41,8a.84.84,0,0,1-.18.46,1.83,1.83,0,0,1-.49.43,4.4,4.4,0,0,1-.8.39,9.07,9.07,0,0,1-1.12.34,18.43,18.43,0,0,1-3,.43,29.33,29.33,0,0,1-3.39,0,29,29,0,0,1-3.36-.35,18,18,0,0,1-2.89-.7,8.71,8.71,0,0,1-1-.43,4.23,4.23,0,0,1-.74-.46,1.79,1.79,0,0,1-.43-.46.83.83,0,0,1-.13-.46h0l.29-8a.73.73,0,0,0,.13.43,1.74,1.74,0,0,0,.43.43,4.38,4.38,0,0,0,.74.42,9.2,9.2,0,0,0,1.05.4,19.46,19.46,0,0,0,2.91.66,31.76,31.76,0,0,0,3.39.33,32.09,32.09,0,0,0,3.42,0,19.93,19.93,0,0,0,3-.39,9.57,9.57,0,0,0,1.12-.31,4.58,4.58,0,0,0,.8-.36,1.79,1.79,0,0,0,.49-.4A.74.74,0,0,0,535.84,8.9Z"/><path class="cls-34" d="M533.24,7.14a7.34,7.34,0,0,1,1.93.83c.44.29.66.6.67.89s-.2.59-.63.85a6.58,6.58,0,0,1-2,.7,19.93,19.93,0,0,1-3,.39,32.09,32.09,0,0,1-3.42,0,31.76,31.76,0,0,1-3.39-.33,19.46,19.46,0,0,1-2.91-.66A6.24,6.24,0,0,1,518.69,9c-.39-.3-.56-.6-.51-.9s.31-.57.78-.82a7.57,7.57,0,0,1,2-.65,20.88,20.88,0,0,1,2.92-.36,32.92,32.92,0,0,1,6.5.29A20.45,20.45,0,0,1,533.24,7.14Z"/><path class="cls-35" d="M512.13,12.25l-.28,8.36a1,1,0,0,1-.21.55,2.2,2.2,0,0,1-.59.53,5.28,5.28,0,0,1-1,.48,10.67,10.67,0,0,1-1.35.41,20.46,20.46,0,0,1-3.25.48,30,30,0,0,1-3.61,0,27.79,27.79,0,0,1-3.49-.38,15.87,15.87,0,0,1-2.91-.77,7.42,7.42,0,0,1-.94-.43,3.75,3.75,0,0,1-.66-.46,1.76,1.76,0,0,1-.39-.47.94.94,0,0,1-.12-.47q.08-4.18.16-8.36a.82.82,0,0,0,.12.43,1.68,1.68,0,0,0,.39.43,3.83,3.83,0,0,0,.66.42,7.81,7.81,0,0,0,.95.4,17.12,17.12,0,0,0,2.94.72,30.38,30.38,0,0,0,3.52.36,32.89,32.89,0,0,0,3.63,0,22.25,22.25,0,0,0,3.27-.44,11.45,11.45,0,0,0,1.36-.38,5.49,5.49,0,0,0,1-.44,2.15,2.15,0,0,0,.59-.49A.87.87,0,0,0,512.13,12.25Z"/><path class="cls-36" d="M509.77,10.46a6,6,0,0,1,1.85.91,1.06,1.06,0,0,1,.5,1,1.54,1.54,0,0,1-.87.94,8.36,8.36,0,0,1-2.25.77,22.25,22.25,0,0,1-3.27.44,32.89,32.89,0,0,1-3.63,0,30.38,30.38,0,0,1-3.52-.36,17.12,17.12,0,0,1-2.94-.72,5,5,0,0,1-1.75-1,.9.9,0,0,1-.32-1,2,2,0,0,1,1-.91,9.53,9.53,0,0,1,2.29-.72,23.1,23.1,0,0,1,3.18-.4,32.85,32.85,0,0,1,3.46,0,30.72,30.72,0,0,1,3.36.33A18.31,18.31,0,0,1,509.77,10.46Z"/><polygon class="cls-37" points="475.38 51.12 403.35 45.58 403.75 46.67 432.15 64.65 474.55 52.51 475.38 51.12"/><polygon class="cls-38" points="477.25 17.68 475.38 51.12 432.15 62.93 432.58 26.67 477.25 17.68"/><polygon class="cls-39" points="432.58 26.67 432.15 62.93 403.35 45.58 402.77 13.03 432.58 26.67"/><polygon class="cls-40" points="477.25 17.68 432.58 26.67 402.77 13.03 444.92 6.1 477.25 17.68"/><path class="cls-41" d="M449.21,2.31l-.27,7.56a.74.74,0,0,1-.18.44,1.88,1.88,0,0,1-.52.42,4.88,4.88,0,0,1-.85.38,10.23,10.23,0,0,1-1.19.32,20.06,20.06,0,0,1-2.9.38,29.89,29.89,0,0,1-3.22,0,27.85,27.85,0,0,1-3.13-.31,15.87,15.87,0,0,1-2.63-.63,7.18,7.18,0,0,1-.86-.36,3.53,3.53,0,0,1-.61-.37,1.49,1.49,0,0,1-.36-.38.7.7,0,0,1-.11-.38l.16-7.56a.62.62,0,0,0,.11.35,1.44,1.44,0,0,0,.36.36,3.63,3.63,0,0,0,.61.35,7.64,7.64,0,0,0,.87.33,17.25,17.25,0,0,0,2.64.59,30.33,30.33,0,0,0,3.15.3c1.09,0,2.19,0,3.24,0a21.83,21.83,0,0,0,2.91-.34,11,11,0,0,0,1.2-.3,5.11,5.11,0,0,0,.86-.35,1.86,1.86,0,0,0,.52-.39A.65.65,0,0,0,449.21,2.31Z"/><path class="cls-42" d="M447.06.86a5.75,5.75,0,0,1,1.67.74c.36.26.51.53.47.79s-.3.52-.76.75a7.88,7.88,0,0,1-2,.61,21.83,21.83,0,0,1-2.91.34c-1.05.06-2.15.06-3.24,0a30.33,30.33,0,0,1-3.15-.3,17.25,17.25,0,0,1-2.64-.59,4.86,4.86,0,0,1-1.6-.77c-.32-.27-.42-.54-.32-.8a1.58,1.58,0,0,1,.89-.73,8.9,8.9,0,0,1,2-.58A22.64,22.64,0,0,1,438.33,0c1-.05,2.06-.06,3.1,0s2.07.14,3,.28A18.34,18.34,0,0,1,447.06.86Z"/><path class="cls-43" d="M427.57,5.91l-.15,7.9a.87.87,0,0,1-.21.53,2.25,2.25,0,0,1-.62.5,5.79,5.79,0,0,1-1,.46,12,12,0,0,1-1.42.39,22.12,22.12,0,0,1-3.15.42,30.61,30.61,0,0,1-3.42,0,26.63,26.63,0,0,1-3.24-.34,14,14,0,0,1-2.64-.69,6.12,6.12,0,0,1-.77-.35,3.09,3.09,0,0,1-.54-.37,1.44,1.44,0,0,1-.32-.38.78.78,0,0,1-.1-.38q0-4,0-7.93a.68.68,0,0,0,.1.35,1.36,1.36,0,0,0,.32.35,3.15,3.15,0,0,0,.54.34,6.42,6.42,0,0,0,.77.33,15.11,15.11,0,0,0,2.65.64,29,29,0,0,0,3.26.32,33.39,33.39,0,0,0,3.44,0,24.18,24.18,0,0,0,3.17-.38,12.85,12.85,0,0,0,1.43-.36,6.06,6.06,0,0,0,1-.42,2.21,2.21,0,0,0,.62-.46A.76.76,0,0,0,427.57,5.91Z"/><path class="cls-44" d="M425.63,4.46a4.59,4.59,0,0,1,1.59.81.76.76,0,0,1,.3.87,1.85,1.85,0,0,1-1,.83,9.82,9.82,0,0,1-2.26.68A24.18,24.18,0,0,1,421.1,8a33.39,33.39,0,0,1-3.44,0,29,29,0,0,1-3.26-.32,15.11,15.11,0,0,1-2.65-.64,3.81,3.81,0,0,1-1.5-.84.69.69,0,0,1-.14-.87,2.35,2.35,0,0,1,1.12-.8,11,11,0,0,1,2.3-.63,25,25,0,0,1,3.08-.35c1.08-.06,2.19-.06,3.28,0a29.33,29.33,0,0,1,3.13.3A16.17,16.17,0,0,1,425.63,4.46Z"/><path class="cls-45" d="M468.38,8.91l-.41,8a.84.84,0,0,1-.18.46,1.83,1.83,0,0,1-.49.43,4.4,4.4,0,0,1-.8.39,9.08,9.08,0,0,1-1.12.34,18.42,18.42,0,0,1-3,.43A29.33,29.33,0,0,1,459,19a29,29,0,0,1-3.36-.35,18,18,0,0,1-2.89-.7,8.72,8.72,0,0,1-1-.43A4.22,4.22,0,0,1,451,17a1.79,1.79,0,0,1-.43-.46.83.83,0,0,1-.13-.46h0l.29-8a.72.72,0,0,0,.13.43,1.74,1.74,0,0,0,.43.43,4.39,4.39,0,0,0,.74.42,9.19,9.19,0,0,0,1.05.4,19.47,19.47,0,0,0,2.91.66,31.75,31.75,0,0,0,3.39.33,32.09,32.09,0,0,0,3.42,0,19.93,19.93,0,0,0,3-.39,9.56,9.56,0,0,0,1.12-.31,4.59,4.59,0,0,0,.8-.36,1.79,1.79,0,0,0,.49-.4A.74.74,0,0,0,468.38,8.91Z"/><path class="cls-46" d="M465.78,7.14a7.34,7.34,0,0,1,1.93.83c.44.29.66.6.67.89s-.2.59-.63.85a6.58,6.58,0,0,1-2,.7,19.93,19.93,0,0,1-3,.39,32.09,32.09,0,0,1-3.42,0,31.75,31.75,0,0,1-3.39-.33,19.47,19.47,0,0,1-2.91-.66A6.25,6.25,0,0,1,451.23,9c-.39-.3-.56-.6-.51-.9s.31-.57.78-.82a7.58,7.58,0,0,1,2-.65,20.88,20.88,0,0,1,2.91-.36,32.92,32.92,0,0,1,6.5.29A20.46,20.46,0,0,1,465.78,7.14Z"/><path class="cls-47" d="M444.67,12.25l-.28,8.36a1,1,0,0,1-.21.55,2.21,2.21,0,0,1-.59.53,5.28,5.28,0,0,1-1,.48,10.67,10.67,0,0,1-1.35.41,20.46,20.46,0,0,1-3.25.48,30,30,0,0,1-3.61,0,27.8,27.8,0,0,1-3.49-.38,15.86,15.86,0,0,1-2.91-.77,7.38,7.38,0,0,1-.94-.43,3.77,3.77,0,0,1-.66-.46,1.76,1.76,0,0,1-.39-.47.94.94,0,0,1-.12-.47q.08-4.18.16-8.36a.82.82,0,0,0,.12.43,1.67,1.67,0,0,0,.39.43,3.81,3.81,0,0,0,.66.42,7.83,7.83,0,0,0,.95.4,17.12,17.12,0,0,0,2.94.72,30.38,30.38,0,0,0,3.52.36,32.89,32.89,0,0,0,3.63,0,22.26,22.26,0,0,0,3.27-.44,11.44,11.44,0,0,0,1.36-.38,5.49,5.49,0,0,0,1-.44,2.16,2.16,0,0,0,.59-.49A.87.87,0,0,0,444.67,12.25Z"/><path class="cls-48" d="M442.31,10.46a6,6,0,0,1,1.85.91,1.06,1.06,0,0,1,.5,1,1.54,1.54,0,0,1-.87.94,8.36,8.36,0,0,1-2.25.77,22.26,22.26,0,0,1-3.27.44,32.89,32.89,0,0,1-3.63,0,30.38,30.38,0,0,1-3.52-.36,17.12,17.12,0,0,1-2.94-.72,5,5,0,0,1-1.75-1,.9.9,0,0,1-.32-1,2,2,0,0,1,1-.91,9.53,9.53,0,0,1,2.29-.72,23.1,23.1,0,0,1,3.18-.4,32.86,32.86,0,0,1,3.46,0,30.73,30.73,0,0,1,3.36.33A18.31,18.31,0,0,1,442.31,10.46Z"/><polygon class="cls-49" points="405.93 51.12 333.9 45.58 334.3 46.67 362.71 64.65 405.1 52.52 405.93 51.12"/><polygon class="cls-50" points="407.8 17.68 405.93 51.12 362.71 62.93 363.14 26.67 407.8 17.68"/><polygon class="cls-51" points="363.14 26.67 362.71 62.93 333.9 45.58 333.33 13.03 363.14 26.67"/><polygon class="cls-52" points="407.8 17.68 363.14 26.67 333.33 13.03 375.48 6.11 407.8 17.68"/><path class="cls-53" d="M379.76,2.31l-.27,7.56a.74.74,0,0,1-.18.44,1.87,1.87,0,0,1-.52.42,4.81,4.81,0,0,1-.85.38,10.27,10.27,0,0,1-1.19.32,20.08,20.08,0,0,1-2.9.38,30,30,0,0,1-3.22,0,28,28,0,0,1-3.13-.31,15.9,15.9,0,0,1-2.63-.63,7.13,7.13,0,0,1-.86-.36,3.54,3.54,0,0,1-.61-.37,1.49,1.49,0,0,1-.36-.38.7.7,0,0,1-.11-.38l.16-7.56a.62.62,0,0,0,.11.35,1.44,1.44,0,0,0,.36.36,3.65,3.65,0,0,0,.61.35,7.61,7.61,0,0,0,.87.33,17.15,17.15,0,0,0,2.65.59,30.28,30.28,0,0,0,3.15.3c1.09,0,2.19,0,3.24,0A21.79,21.79,0,0,0,377,3.76a11,11,0,0,0,1.2-.3,5.09,5.09,0,0,0,.86-.35,1.85,1.85,0,0,0,.52-.39A.65.65,0,0,0,379.76,2.31Z"/><path class="cls-54" d="M377.62.86a5.78,5.78,0,0,1,1.68.74c.36.26.51.53.46.79s-.3.52-.76.75a7.88,7.88,0,0,1-2,.61,21.79,21.79,0,0,1-2.91.34c-1.05.06-2.15.06-3.24,0a30.28,30.28,0,0,1-3.15-.3A17.15,17.15,0,0,1,365,3.23a4.85,4.85,0,0,1-1.6-.77c-.32-.27-.42-.54-.32-.8A1.58,1.58,0,0,1,364,.94a8.87,8.87,0,0,1,2-.58A22.66,22.66,0,0,1,368.88,0c1-.05,2.06-.05,3.1,0s2.07.14,3,.28A18.29,18.29,0,0,1,377.62.86Z"/><path class="cls-55" d="M358.12,5.91q-.07,4-.15,7.9a.86.86,0,0,1-.21.53,2.24,2.24,0,0,1-.62.5,5.82,5.82,0,0,1-1,.46,12,12,0,0,1-1.42.39,22.13,22.13,0,0,1-3.15.42,30.52,30.52,0,0,1-3.42,0,26.67,26.67,0,0,1-3.24-.34,14.1,14.1,0,0,1-2.64-.69,6.07,6.07,0,0,1-.77-.35,3.05,3.05,0,0,1-.54-.37,1.44,1.44,0,0,1-.32-.38.78.78,0,0,1-.1-.38q0-4,0-7.93a.68.68,0,0,0,.1.35,1.37,1.37,0,0,0,.32.35,3.17,3.17,0,0,0,.54.34,6.4,6.4,0,0,0,.77.33,15.07,15.07,0,0,0,2.65.64,29,29,0,0,0,3.26.32,33.47,33.47,0,0,0,3.44,0,24.19,24.19,0,0,0,3.17-.38,12.89,12.89,0,0,0,1.43-.36,6,6,0,0,0,1-.42,2.21,2.21,0,0,0,.62-.46A.76.76,0,0,0,358.12,5.91Z"/><path class="cls-56" d="M356.18,4.46a4.59,4.59,0,0,1,1.59.81.76.76,0,0,1,.3.87,1.85,1.85,0,0,1-1,.83,9.85,9.85,0,0,1-2.26.68,24.19,24.19,0,0,1-3.17.38,33.47,33.47,0,0,1-3.44,0A29,29,0,0,1,345,7.72a15.07,15.07,0,0,1-2.65-.64,3.8,3.8,0,0,1-1.5-.84.69.69,0,0,1-.14-.87,2.35,2.35,0,0,1,1.12-.8,11,11,0,0,1,2.29-.63,25,25,0,0,1,3.08-.35c1.08-.06,2.19-.06,3.28,0a29.37,29.37,0,0,1,3.13.3A16.2,16.2,0,0,1,356.18,4.46Z"/><path class="cls-57" d="M398.93,8.91l-.41,8a.84.84,0,0,1-.18.46,1.82,1.82,0,0,1-.49.43,4.38,4.38,0,0,1-.8.39,9,9,0,0,1-1.12.34,18.4,18.4,0,0,1-3,.43,29.25,29.25,0,0,1-3.39,0,29,29,0,0,1-3.36-.35,18,18,0,0,1-2.89-.7,8.68,8.68,0,0,1-1-.43,4.22,4.22,0,0,1-.74-.45,1.8,1.8,0,0,1-.43-.46.83.83,0,0,1-.13-.46h0l.29-8a.73.73,0,0,0,.13.43,1.74,1.74,0,0,0,.43.43,4.37,4.37,0,0,0,.74.42,9.13,9.13,0,0,0,1.05.4,19.49,19.49,0,0,0,2.91.66,31.72,31.72,0,0,0,3.39.33,32,32,0,0,0,3.42,0,20,20,0,0,0,3-.39,9.54,9.54,0,0,0,1.12-.31,4.58,4.58,0,0,0,.8-.36,1.79,1.79,0,0,0,.49-.4A.74.74,0,0,0,398.93,8.91Z"/><path class="cls-58" d="M396.33,7.14a7.33,7.33,0,0,1,1.93.83c.44.29.66.6.67.89s-.2.59-.63.85a6.57,6.57,0,0,1-2,.7,20,20,0,0,1-3,.39,32,32,0,0,1-3.42,0,31.72,31.72,0,0,1-3.39-.33,19.49,19.49,0,0,1-2.91-.66A6.23,6.23,0,0,1,381.78,9c-.39-.3-.56-.6-.51-.9s.31-.57.78-.82a7.6,7.6,0,0,1,2-.65A20.85,20.85,0,0,1,387,6.24a32.95,32.95,0,0,1,6.5.29A20.46,20.46,0,0,1,396.33,7.14Z"/><path class="cls-59" d="M375.22,12.25l-.28,8.36a1,1,0,0,1-.21.55,2.21,2.21,0,0,1-.59.53,5.32,5.32,0,0,1-1,.48,10.67,10.67,0,0,1-1.35.41,20.5,20.5,0,0,1-3.25.48,29.92,29.92,0,0,1-3.61,0,27.89,27.89,0,0,1-3.49-.38,15.92,15.92,0,0,1-2.91-.77,7.44,7.44,0,0,1-.94-.43,3.74,3.74,0,0,1-.66-.46,1.75,1.75,0,0,1-.39-.47.94.94,0,0,1-.12-.47q.08-4.18.16-8.36a.82.82,0,0,0,.12.43,1.68,1.68,0,0,0,.39.43,3.84,3.84,0,0,0,.66.42,7.84,7.84,0,0,0,.95.4,17.08,17.08,0,0,0,2.94.72,30.29,30.29,0,0,0,3.52.36,32.88,32.88,0,0,0,3.63,0,22.21,22.21,0,0,0,3.27-.44,11.47,11.47,0,0,0,1.36-.38,5.52,5.52,0,0,0,1-.44,2.16,2.16,0,0,0,.59-.49A.87.87,0,0,0,375.22,12.25Z"/><path class="cls-60" d="M372.86,10.46a6,6,0,0,1,1.85.91,1.06,1.06,0,0,1,.5,1,1.54,1.54,0,0,1-.87.94,8.37,8.37,0,0,1-2.25.77,22.21,22.21,0,0,1-3.27.44,32.88,32.88,0,0,1-3.63,0,30.29,30.29,0,0,1-3.52-.36,17.08,17.08,0,0,1-2.94-.72,5,5,0,0,1-1.75-1,.9.9,0,0,1-.32-1,2,2,0,0,1,1-.91A9.53,9.53,0,0,1,360,9.88a23,23,0,0,1,3.18-.4,33,33,0,0,1,3.46,0,30.85,30.85,0,0,1,3.36.33A18.35,18.35,0,0,1,372.86,10.46Z"/><polygon class="cls-61" points="335.98 51.12 263.95 45.58 264.35 46.67 292.75 64.65 335.14 52.51 335.98 51.12"/><polygon class="cls-62" points="337.85 17.68 335.98 51.12 292.75 62.93 293.18 26.66 337.85 17.68"/><polygon class="cls-63" points="293.18 26.66 292.75 62.93 263.95 45.58 263.38 13.03 293.18 26.66"/><polygon class="cls-64" points="337.85 17.68 293.18 26.66 263.38 13.03 305.52 6.1 337.85 17.68"/><path class="cls-65" d="M309.81,2.31l-.27,7.56a.74.74,0,0,1-.18.44,1.88,1.88,0,0,1-.52.42,4.83,4.83,0,0,1-.85.38,10.29,10.29,0,0,1-1.19.32,20.07,20.07,0,0,1-2.9.38,30,30,0,0,1-3.22,0,28,28,0,0,1-3.13-.31,15.88,15.88,0,0,1-2.63-.63,7.14,7.14,0,0,1-.86-.36,3.56,3.56,0,0,1-.61-.37,1.5,1.5,0,0,1-.36-.38A.7.7,0,0,1,293,9.4l.16-7.56a.61.61,0,0,0,.11.35,1.44,1.44,0,0,0,.36.36,3.68,3.68,0,0,0,.61.35,7.58,7.58,0,0,0,.87.33,17.15,17.15,0,0,0,2.64.59,30.28,30.28,0,0,0,3.15.3c1.09,0,2.19,0,3.24,0a21.79,21.79,0,0,0,2.91-.34,11,11,0,0,0,1.2-.3,5.11,5.11,0,0,0,.86-.35,1.85,1.85,0,0,0,.52-.39A.65.65,0,0,0,309.81,2.31Z"/><path class="cls-66" d="M307.66.86a5.77,5.77,0,0,1,1.67.74c.36.26.51.53.47.79s-.3.52-.76.75a7.88,7.88,0,0,1-2,.61,21.79,21.79,0,0,1-2.91.34c-1.05.06-2.15.06-3.24,0a30.28,30.28,0,0,1-3.15-.3,17.15,17.15,0,0,1-2.64-.59,4.85,4.85,0,0,1-1.6-.77c-.32-.27-.42-.54-.32-.8a1.58,1.58,0,0,1,.89-.73,8.87,8.87,0,0,1,2-.58A22.67,22.67,0,0,1,298.93,0C299.94,0,301,0,302,0s2.07.14,3,.28A18.3,18.3,0,0,1,307.66.86Z"/><path class="cls-67" d="M288.17,5.91l-.15,7.9a.86.86,0,0,1-.21.53,2.24,2.24,0,0,1-.62.5,5.81,5.81,0,0,1-1,.46,12,12,0,0,1-1.42.39,22.13,22.13,0,0,1-3.15.42,30.52,30.52,0,0,1-3.42,0,26.69,26.69,0,0,1-3.24-.34,14.09,14.09,0,0,1-2.64-.69,6.06,6.06,0,0,1-.77-.35,3.06,3.06,0,0,1-.54-.37,1.44,1.44,0,0,1-.32-.38.78.78,0,0,1-.1-.38q0-4,0-7.93a.68.68,0,0,0,.1.35,1.37,1.37,0,0,0,.32.35,3.17,3.17,0,0,0,.54.34,6.42,6.42,0,0,0,.77.33,15.08,15.08,0,0,0,2.65.64,29,29,0,0,0,3.26.32,33.48,33.48,0,0,0,3.44,0,24.18,24.18,0,0,0,3.17-.38,12.86,12.86,0,0,0,1.43-.36,6,6,0,0,0,1-.42A2.21,2.21,0,0,0,288,6.4.76.76,0,0,0,288.17,5.91Z"/><path class="cls-68" d="M286.23,4.46a4.59,4.59,0,0,1,1.59.81.76.76,0,0,1,.3.87,1.85,1.85,0,0,1-1,.83,9.86,9.86,0,0,1-2.26.68A24.18,24.18,0,0,1,281.7,8a33.48,33.48,0,0,1-3.44,0A29,29,0,0,1,275,7.72a15.08,15.08,0,0,1-2.65-.64,3.8,3.8,0,0,1-1.5-.84.69.69,0,0,1-.14-.87,2.35,2.35,0,0,1,1.12-.8,11,11,0,0,1,2.3-.63,25,25,0,0,1,3.08-.35c1.08-.06,2.19-.06,3.28,0a29.37,29.37,0,0,1,3.13.3A16.21,16.21,0,0,1,286.23,4.46Z"/><path class="cls-69" d="M329,8.91l-.41,8a.84.84,0,0,1-.18.46,1.82,1.82,0,0,1-.49.43,4.39,4.39,0,0,1-.8.39,9,9,0,0,1-1.12.34,18.4,18.4,0,0,1-3,.43,29.25,29.25,0,0,1-3.39,0,29,29,0,0,1-3.36-.35,18,18,0,0,1-2.89-.7,8.68,8.68,0,0,1-1-.43,4.2,4.2,0,0,1-.74-.45,1.8,1.8,0,0,1-.43-.46.83.83,0,0,1-.13-.46h0l.29-8a.73.73,0,0,0,.13.43,1.74,1.74,0,0,0,.43.43,4.38,4.38,0,0,0,.74.42,9.11,9.11,0,0,0,1.05.4,19.49,19.49,0,0,0,2.91.66,31.71,31.71,0,0,0,3.39.33,32,32,0,0,0,3.42,0,20,20,0,0,0,3-.39,9.53,9.53,0,0,0,1.12-.31,4.59,4.59,0,0,0,.8-.36,1.79,1.79,0,0,0,.49-.4A.74.74,0,0,0,329,8.91Z"/><path class="cls-70" d="M326.38,7.14a7.34,7.34,0,0,1,1.93.83c.44.29.66.6.67.89s-.2.59-.63.85a6.58,6.58,0,0,1-2,.7,20,20,0,0,1-3,.39,32,32,0,0,1-3.42,0,31.71,31.71,0,0,1-3.39-.33,19.49,19.49,0,0,1-2.91-.66A6.24,6.24,0,0,1,311.83,9c-.39-.3-.56-.6-.51-.9s.31-.57.78-.82a7.6,7.6,0,0,1,2-.65A20.85,20.85,0,0,1,317,6.24a32.95,32.95,0,0,1,6.5.29A20.46,20.46,0,0,1,326.38,7.14Z"/><path class="cls-71" d="M305.27,12.25,305,20.61a1,1,0,0,1-.21.55,2.21,2.21,0,0,1-.59.53,5.31,5.31,0,0,1-1,.48,10.66,10.66,0,0,1-1.35.41,20.5,20.5,0,0,1-3.25.48,29.92,29.92,0,0,1-3.61,0,27.9,27.9,0,0,1-3.49-.38,15.92,15.92,0,0,1-2.91-.77,7.4,7.4,0,0,1-.94-.43,3.76,3.76,0,0,1-.66-.46,1.75,1.75,0,0,1-.39-.47.94.94,0,0,1-.12-.47q.08-4.18.16-8.36a.82.82,0,0,0,.12.43,1.68,1.68,0,0,0,.39.43,3.82,3.82,0,0,0,.66.42,7.86,7.86,0,0,0,.95.4,17.09,17.09,0,0,0,2.94.72,30.28,30.28,0,0,0,3.52.36,32.88,32.88,0,0,0,3.63,0,22.21,22.21,0,0,0,3.27-.44,11.46,11.46,0,0,0,1.36-.38,5.52,5.52,0,0,0,1-.44,2.16,2.16,0,0,0,.59-.49A.87.87,0,0,0,305.27,12.25Z"/><path class="cls-72" d="M302.91,10.46a6,6,0,0,1,1.85.91,1.06,1.06,0,0,1,.5,1,1.54,1.54,0,0,1-.87.94,8.37,8.37,0,0,1-2.25.77,22.21,22.21,0,0,1-3.27.44,32.88,32.88,0,0,1-3.63,0,30.28,30.28,0,0,1-3.52-.36,17.09,17.09,0,0,1-2.94-.72,5,5,0,0,1-1.75-1,.9.9,0,0,1-.32-1,2,2,0,0,1,1-.91A9.53,9.53,0,0,1,290,9.88a23,23,0,0,1,3.18-.4,33,33,0,0,1,3.46,0,30.86,30.86,0,0,1,3.36.33A18.35,18.35,0,0,1,302.91,10.46Z"/><polygon class="cls-1" points="271.27 51.12 199.24 45.58 199.64 46.67 228.05 64.64 270.44 52.51 271.27 51.12"/><polygon class="cls-73" points="273.14 17.67 271.27 51.12 228.05 62.93 228.47 26.66 273.14 17.67"/><polygon class="cls-74" points="228.47 26.66 228.05 62.93 199.24 45.58 198.67 13.03 228.47 26.66"/><polygon class="cls-75" points="273.14 17.67 228.47 26.66 198.67 13.03 240.81 6.1 273.14 17.67"/><path class="cls-76" d="M245.1,2.31l-.27,7.56a.74.74,0,0,1-.18.44,1.87,1.87,0,0,1-.52.42,4.85,4.85,0,0,1-.85.38,10.2,10.2,0,0,1-1.19.32,20.06,20.06,0,0,1-2.9.38,29.9,29.9,0,0,1-3.22,0,27.89,27.89,0,0,1-3.13-.31,15.9,15.9,0,0,1-2.63-.63,7.2,7.2,0,0,1-.86-.36,3.53,3.53,0,0,1-.61-.37,1.49,1.49,0,0,1-.36-.38.7.7,0,0,1-.11-.38l.16-7.56a.61.61,0,0,0,.11.35,1.44,1.44,0,0,0,.36.36,3.6,3.6,0,0,0,.61.35,7.64,7.64,0,0,0,.87.33,17.23,17.23,0,0,0,2.64.59,30.34,30.34,0,0,0,3.15.3c1.09,0,2.19,0,3.24,0a21.83,21.83,0,0,0,2.91-.34,11,11,0,0,0,1.2-.3,5.09,5.09,0,0,0,.86-.35,1.85,1.85,0,0,0,.52-.39A.65.65,0,0,0,245.1,2.31Z"/><path class="cls-77" d="M243,.86a5.76,5.76,0,0,1,1.68.74c.36.26.51.53.46.79s-.3.52-.76.75a7.87,7.87,0,0,1-2,.61,21.83,21.83,0,0,1-2.91.34c-1.05.06-2.15.06-3.24,0a30.34,30.34,0,0,1-3.15-.3,17.23,17.23,0,0,1-2.64-.59,4.86,4.86,0,0,1-1.6-.77c-.32-.27-.42-.54-.32-.8a1.58,1.58,0,0,1,.89-.73,8.9,8.9,0,0,1,2-.58A22.64,22.64,0,0,1,234.22,0c1-.05,2.06-.06,3.1,0s2.07.14,3,.28A18.37,18.37,0,0,1,243,.86Z"/><path class="cls-78" d="M223.46,5.91q-.07,4-.15,7.9a.86.86,0,0,1-.21.53,2.25,2.25,0,0,1-.62.5,5.81,5.81,0,0,1-1,.46,11.93,11.93,0,0,1-1.42.39,22.12,22.12,0,0,1-3.15.42,30.56,30.56,0,0,1-3.42,0,26.62,26.62,0,0,1-3.24-.34,14,14,0,0,1-2.64-.69,6.12,6.12,0,0,1-.77-.35,3.08,3.08,0,0,1-.54-.37A1.44,1.44,0,0,1,206,14a.78.78,0,0,1-.1-.38q0-4,0-7.93a.68.68,0,0,0,.1.35,1.37,1.37,0,0,0,.32.35,3.17,3.17,0,0,0,.54.34,6.4,6.4,0,0,0,.77.33,15.09,15.09,0,0,0,2.65.64,29,29,0,0,0,3.26.32A33.44,33.44,0,0,0,217,8a24.15,24.15,0,0,0,3.17-.38,12.85,12.85,0,0,0,1.43-.36,6,6,0,0,0,1-.42,2.21,2.21,0,0,0,.62-.46A.76.76,0,0,0,223.46,5.91Z"/><path class="cls-79" d="M221.52,4.45a4.59,4.59,0,0,1,1.59.81.76.76,0,0,1,.3.87,1.85,1.85,0,0,1-1,.83,9.82,9.82,0,0,1-2.26.68A24.15,24.15,0,0,1,217,8a33.44,33.44,0,0,1-3.44,0,29,29,0,0,1-3.26-.32,15.09,15.09,0,0,1-2.65-.64,3.81,3.81,0,0,1-1.5-.84.69.69,0,0,1-.14-.87,2.35,2.35,0,0,1,1.12-.8,11,11,0,0,1,2.29-.63,25,25,0,0,1,3.08-.35c1.08-.06,2.19-.06,3.28,0a29.33,29.33,0,0,1,3.13.3A16.17,16.17,0,0,1,221.52,4.45Z"/><path class="cls-80" d="M264.27,8.9l-.41,8a.84.84,0,0,1-.18.46,1.83,1.83,0,0,1-.49.43,4.39,4.39,0,0,1-.8.39,9.08,9.08,0,0,1-1.12.34,18.4,18.4,0,0,1-3,.43,29.29,29.29,0,0,1-3.39,0,29,29,0,0,1-3.36-.35,18,18,0,0,1-2.89-.7,8.74,8.74,0,0,1-1-.43,4.25,4.25,0,0,1-.74-.46,1.79,1.79,0,0,1-.43-.46.83.83,0,0,1-.13-.46h0l.29-8a.72.72,0,0,0,.13.43,1.74,1.74,0,0,0,.43.43,4.39,4.39,0,0,0,.74.42,9.22,9.22,0,0,0,1.05.4,19.43,19.43,0,0,0,2.91.66,31.75,31.75,0,0,0,3.39.33,32,32,0,0,0,3.42,0,19.93,19.93,0,0,0,3-.39,9.56,9.56,0,0,0,1.12-.31,4.59,4.59,0,0,0,.8-.36,1.79,1.79,0,0,0,.49-.4A.74.74,0,0,0,264.27,8.9Z"/><path class="cls-81" d="M261.67,7.14A7.34,7.34,0,0,1,263.6,8c.44.29.66.6.67.89s-.2.59-.63.85a6.58,6.58,0,0,1-2,.7,19.93,19.93,0,0,1-3,.39,32,32,0,0,1-3.42,0,31.75,31.75,0,0,1-3.39-.33A19.43,19.43,0,0,1,249,9.83,6.24,6.24,0,0,1,247.12,9c-.39-.3-.56-.6-.51-.9s.31-.57.78-.82a7.58,7.58,0,0,1,2-.65,20.91,20.91,0,0,1,2.91-.36,32.92,32.92,0,0,1,6.5.29A20.48,20.48,0,0,1,261.67,7.14Z"/><path class="cls-82" d="M240.56,12.25l-.28,8.36a1,1,0,0,1-.21.55,2.21,2.21,0,0,1-.59.53,5.28,5.28,0,0,1-1,.48,10.67,10.67,0,0,1-1.35.41,20.46,20.46,0,0,1-3.25.48,30,30,0,0,1-3.61,0,27.83,27.83,0,0,1-3.49-.38,15.88,15.88,0,0,1-2.91-.77,7.38,7.38,0,0,1-.94-.43,3.78,3.78,0,0,1-.66-.46,1.76,1.76,0,0,1-.39-.47.94.94,0,0,1-.12-.47q.08-4.18.16-8.36a.82.82,0,0,0,.12.43,1.67,1.67,0,0,0,.39.43,3.81,3.81,0,0,0,.66.42,7.83,7.83,0,0,0,.95.4,17.11,17.11,0,0,0,2.94.72,30.32,30.32,0,0,0,3.52.36,32.88,32.88,0,0,0,3.63,0,22.26,22.26,0,0,0,3.27-.44,11.43,11.43,0,0,0,1.36-.38,5.48,5.48,0,0,0,1-.44,2.16,2.16,0,0,0,.59-.49A.87.87,0,0,0,240.56,12.25Z"/><path class="cls-83" d="M238.2,10.46a6,6,0,0,1,1.85.91,1.06,1.06,0,0,1,.5,1,1.54,1.54,0,0,1-.87.94,8.36,8.36,0,0,1-2.25.77,22.26,22.26,0,0,1-3.27.44,32.88,32.88,0,0,1-3.63,0,30.32,30.32,0,0,1-3.52-.36,17.11,17.11,0,0,1-2.94-.72,5,5,0,0,1-1.75-1,.9.9,0,0,1-.32-1,2,2,0,0,1,1-.91,9.53,9.53,0,0,1,2.29-.72,23.1,23.1,0,0,1,3.18-.4,32.91,32.91,0,0,1,3.46,0,30.72,30.72,0,0,1,3.36.33A18.34,18.34,0,0,1,238.2,10.46Z"/><polygon class="cls-13" points="205.66 51.12 133.64 45.58 134.04 46.67 162.44 64.65 204.84 52.52 205.66 51.12"/><polygon class="cls-84" points="207.53 17.68 205.66 51.12 162.44 62.93 162.87 26.67 207.53 17.68"/><polygon class="cls-85" points="162.87 26.67 162.44 62.93 133.64 45.58 133.06 13.03 162.87 26.67"/><polygon class="cls-86" points="207.53 17.68 162.87 26.67 133.06 13.03 175.21 6.1 207.53 17.68"/><path class="cls-87" d="M179.5,2.31q-.13,3.78-.27,7.56a.74.74,0,0,1-.18.44,1.9,1.9,0,0,1-.52.42,4.89,4.89,0,0,1-.85.38,10.26,10.26,0,0,1-1.19.32,20.06,20.06,0,0,1-2.9.38,29.9,29.9,0,0,1-3.22,0,27.9,27.9,0,0,1-3.13-.31,15.88,15.88,0,0,1-2.63-.63,7.15,7.15,0,0,1-.86-.36,3.53,3.53,0,0,1-.61-.37,1.5,1.5,0,0,1-.36-.38.7.7,0,0,1-.11-.38l.16-7.56a.62.62,0,0,0,.11.35,1.44,1.44,0,0,0,.36.36,3.64,3.64,0,0,0,.61.35,7.66,7.66,0,0,0,.87.33,17.23,17.23,0,0,0,2.65.59,30.32,30.32,0,0,0,3.15.3c1.09,0,2.19,0,3.24,0a21.81,21.81,0,0,0,2.91-.34,11,11,0,0,0,1.2-.3,5.1,5.1,0,0,0,.86-.35,1.86,1.86,0,0,0,.52-.39A.65.65,0,0,0,179.5,2.31Z"/><path class="cls-88" d="M177.35.86A5.76,5.76,0,0,1,179,1.6c.36.26.51.53.47.79s-.3.52-.76.75a7.86,7.86,0,0,1-2,.61,21.81,21.81,0,0,1-2.91.34c-1.05.06-2.15.06-3.24,0a30.32,30.32,0,0,1-3.15-.3,17.23,17.23,0,0,1-2.65-.59,4.87,4.87,0,0,1-1.6-.77c-.32-.27-.42-.54-.32-.8a1.58,1.58,0,0,1,.89-.73,8.9,8.9,0,0,1,2-.58A22.64,22.64,0,0,1,168.62,0c1-.05,2.06-.06,3.1,0s2.07.14,3,.28A18.39,18.39,0,0,1,177.35.86Z"/><path class="cls-89" d="M157.85,5.91q-.07,4-.15,7.9a.87.87,0,0,1-.21.53,2.26,2.26,0,0,1-.62.5,5.79,5.79,0,0,1-1,.46,12,12,0,0,1-1.42.39,22.14,22.14,0,0,1-3.15.42,30.57,30.57,0,0,1-3.42,0,26.63,26.63,0,0,1-3.24-.34,14,14,0,0,1-2.64-.69,6.09,6.09,0,0,1-.76-.35,3.06,3.06,0,0,1-.54-.37,1.44,1.44,0,0,1-.32-.38.78.78,0,0,1-.1-.38l0-7.93a.68.68,0,0,0,.1.35,1.36,1.36,0,0,0,.32.35,3.13,3.13,0,0,0,.54.34,6.46,6.46,0,0,0,.77.33,15.09,15.09,0,0,0,2.65.64A29,29,0,0,0,148,8a33.43,33.43,0,0,0,3.44,0,24.14,24.14,0,0,0,3.17-.38A12.88,12.88,0,0,0,156,7.28a6.06,6.06,0,0,0,1-.42,2.22,2.22,0,0,0,.62-.46A.76.76,0,0,0,157.85,5.91Z"/><path class="cls-90" d="M155.92,4.46a4.59,4.59,0,0,1,1.59.81.76.76,0,0,1,.3.87,1.85,1.85,0,0,1-1,.83,9.81,9.81,0,0,1-2.26.68,24.14,24.14,0,0,1-3.17.38A33.43,33.43,0,0,1,148,8a29,29,0,0,1-3.27-.32A15.09,15.09,0,0,1,142,7.08a3.81,3.81,0,0,1-1.5-.84.69.69,0,0,1-.14-.87,2.34,2.34,0,0,1,1.12-.8,11,11,0,0,1,2.3-.63,25,25,0,0,1,3.08-.35c1.08-.06,2.19-.06,3.28,0a29.33,29.33,0,0,1,3.13.3A16.21,16.21,0,0,1,155.92,4.46Z"/><path class="cls-91" d="M198.67,8.91l-.41,8a.83.83,0,0,1-.18.46,1.83,1.83,0,0,1-.49.43,4.36,4.36,0,0,1-.8.39,9.08,9.08,0,0,1-1.12.34,18.4,18.4,0,0,1-3,.43,29.29,29.29,0,0,1-3.39,0,29,29,0,0,1-3.36-.35,17.94,17.94,0,0,1-2.89-.7,8.77,8.77,0,0,1-1-.43,4.21,4.21,0,0,1-.74-.46,1.8,1.8,0,0,1-.43-.46.83.83,0,0,1-.13-.46h0l.29-8a.73.73,0,0,0,.13.43,1.74,1.74,0,0,0,.44.43,4.4,4.4,0,0,0,.74.42,9.27,9.27,0,0,0,1.05.4,19.45,19.45,0,0,0,2.91.66,31.76,31.76,0,0,0,3.39.33,32,32,0,0,0,3.42,0,19.93,19.93,0,0,0,3-.39,9.58,9.58,0,0,0,1.12-.31,4.6,4.6,0,0,0,.8-.36,1.79,1.79,0,0,0,.49-.4A.73.73,0,0,0,198.67,8.91Z"/><path class="cls-92" d="M196.07,7.14A7.34,7.34,0,0,1,198,8c.44.29.66.6.67.89s-.2.59-.63.85a6.58,6.58,0,0,1-2,.7,19.93,19.93,0,0,1-3,.39,32,32,0,0,1-3.42,0,31.76,31.76,0,0,1-3.39-.33,19.45,19.45,0,0,1-2.91-.66A6.25,6.25,0,0,1,181.51,9c-.39-.3-.56-.6-.51-.9s.31-.57.78-.82a7.59,7.59,0,0,1,2-.65,20.9,20.9,0,0,1,2.91-.36,32.92,32.92,0,0,1,6.5.29A20.47,20.47,0,0,1,196.07,7.14Z"/><path class="cls-93" d="M175,12.25q-.14,4.18-.28,8.36a1,1,0,0,1-.21.55,2.2,2.2,0,0,1-.59.53,5.27,5.27,0,0,1-1,.48,10.67,10.67,0,0,1-1.35.41,20.46,20.46,0,0,1-3.25.48,30,30,0,0,1-3.61,0,27.83,27.83,0,0,1-3.49-.38,15.88,15.88,0,0,1-2.91-.77,7.39,7.39,0,0,1-.94-.43,3.76,3.76,0,0,1-.66-.46,1.76,1.76,0,0,1-.39-.47.94.94,0,0,1-.12-.47l.16-8.36a.81.81,0,0,0,.12.43,1.68,1.68,0,0,0,.39.43,3.83,3.83,0,0,0,.67.42,7.8,7.8,0,0,0,.95.4,17.11,17.11,0,0,0,2.94.72,30.32,30.32,0,0,0,3.52.36,32.88,32.88,0,0,0,3.63,0,22.25,22.25,0,0,0,3.27-.44,11.44,11.44,0,0,0,1.36-.38,5.48,5.48,0,0,0,1-.44,2.15,2.15,0,0,0,.59-.49A.87.87,0,0,0,175,12.25Z"/><path class="cls-94" d="M172.6,10.46a6,6,0,0,1,1.85.91,1.06,1.06,0,0,1,.5,1,1.54,1.54,0,0,1-.87.94,8.36,8.36,0,0,1-2.25.77,22.25,22.25,0,0,1-3.27.44,32.88,32.88,0,0,1-3.63,0,30.32,30.32,0,0,1-3.52-.36,17.11,17.11,0,0,1-2.94-.72,5,5,0,0,1-1.75-1,.9.9,0,0,1-.32-1,2,2,0,0,1,1-.91,9.53,9.53,0,0,1,2.29-.72,23.11,23.11,0,0,1,3.18-.4,32.91,32.91,0,0,1,3.46,0,30.71,30.71,0,0,1,3.36.33A18.34,18.34,0,0,1,172.6,10.46Z"/><polygon class="cls-25" points="140.06 51.12 68.04 45.57 68.44 46.67 96.84 64.64 139.23 52.51 140.06 51.12"/><polygon class="cls-95" points="141.93 17.67 140.06 51.12 96.84 62.93 97.27 26.66 141.93 17.67"/><polygon class="cls-96" points="97.27 26.66 96.84 62.93 68.04 45.57 67.46 13.03 97.27 26.66"/><polygon class="cls-97" points="141.93 17.67 97.27 26.66 67.46 13.03 109.61 6.1 141.93 17.67"/><path class="cls-98" d="M113.9,2.31l-.27,7.56a.74.74,0,0,1-.18.44,1.88,1.88,0,0,1-.52.42,4.87,4.87,0,0,1-.85.38,10.21,10.21,0,0,1-1.19.32,20.07,20.07,0,0,1-2.9.38,29.89,29.89,0,0,1-3.22,0,27.84,27.84,0,0,1-3.13-.31A15.88,15.88,0,0,1,99,10.89a7.16,7.16,0,0,1-.86-.36,3.52,3.52,0,0,1-.61-.37,1.49,1.49,0,0,1-.36-.38.7.7,0,0,1-.11-.38l.16-7.56a.62.62,0,0,0,.11.35,1.44,1.44,0,0,0,.36.36,3.6,3.6,0,0,0,.61.35,7.67,7.67,0,0,0,.87.33,17.26,17.26,0,0,0,2.65.59,30.33,30.33,0,0,0,3.15.3c1.09,0,2.19,0,3.24,0a21.83,21.83,0,0,0,2.91-.34,11,11,0,0,0,1.2-.3,5.09,5.09,0,0,0,.86-.35,1.85,1.85,0,0,0,.52-.39A.65.65,0,0,0,113.9,2.31Z"/><path class="cls-99" d="M111.75.86a5.76,5.76,0,0,1,1.68.74c.36.26.51.53.46.79s-.3.52-.76.75a7.88,7.88,0,0,1-2,.61,21.83,21.83,0,0,1-2.91.34c-1.05.06-2.15.06-3.24,0a30.33,30.33,0,0,1-3.15-.3,17.26,17.26,0,0,1-2.65-.59,4.87,4.87,0,0,1-1.6-.77c-.32-.27-.42-.54-.32-.8a1.58,1.58,0,0,1,.89-.73,8.9,8.9,0,0,1,2-.58A22.63,22.63,0,0,1,103,0c1-.05,2.06-.06,3.1,0s2.07.14,3,.28A18.34,18.34,0,0,1,111.75.86Z"/><path class="cls-100" d="M92.25,5.91q-.07,4-.15,7.9a.86.86,0,0,1-.21.53,2.25,2.25,0,0,1-.62.5,5.8,5.8,0,0,1-1,.46,11.93,11.93,0,0,1-1.42.39,22.12,22.12,0,0,1-3.15.42,30.6,30.6,0,0,1-3.42,0A26.61,26.61,0,0,1,79,15.79a14,14,0,0,1-2.64-.69,6.13,6.13,0,0,1-.77-.35,3.08,3.08,0,0,1-.54-.37,1.44,1.44,0,0,1-.32-.38.78.78,0,0,1-.1-.38q0-4,0-7.93a.68.68,0,0,0,.1.35,1.36,1.36,0,0,0,.32.35,3.15,3.15,0,0,0,.54.34,6.41,6.41,0,0,0,.77.33,15.11,15.11,0,0,0,2.65.64A29,29,0,0,0,82.35,8a33.39,33.39,0,0,0,3.44,0A24.19,24.19,0,0,0,89,7.64a12.88,12.88,0,0,0,1.43-.36,6.06,6.06,0,0,0,1-.42A2.21,2.21,0,0,0,92,6.39.76.76,0,0,0,92.25,5.91Z"/><path class="cls-101" d="M90.32,4.45a4.58,4.58,0,0,1,1.59.81.76.76,0,0,1,.3.87,1.85,1.85,0,0,1-1,.83A9.82,9.82,0,0,1,89,7.64,24.19,24.19,0,0,1,85.79,8a33.39,33.39,0,0,1-3.44,0,29,29,0,0,1-3.26-.32,15.11,15.11,0,0,1-2.65-.64,3.81,3.81,0,0,1-1.5-.84.69.69,0,0,1-.14-.87,2.35,2.35,0,0,1,1.12-.8,11,11,0,0,1,2.29-.63,25,25,0,0,1,3.08-.35c1.08-.06,2.19-.06,3.28,0a29.33,29.33,0,0,1,3.13.3A16.16,16.16,0,0,1,90.32,4.45Z"/><path class="cls-102" d="M133.06,8.9l-.41,8a.84.84,0,0,1-.18.46,1.83,1.83,0,0,1-.49.43,4.4,4.4,0,0,1-.8.39,9.07,9.07,0,0,1-1.12.34,18.43,18.43,0,0,1-3,.43,29.33,29.33,0,0,1-3.39,0,29,29,0,0,1-3.36-.35,18,18,0,0,1-2.89-.7,8.71,8.71,0,0,1-1-.43,4.23,4.23,0,0,1-.74-.46,1.79,1.79,0,0,1-.43-.46.83.83,0,0,1-.13-.46h0l.29-8a.73.73,0,0,0,.13.43A1.74,1.74,0,0,0,116,9a4.38,4.38,0,0,0,.74.42,9.2,9.2,0,0,0,1.05.4,19.46,19.46,0,0,0,2.91.66,31.76,31.76,0,0,0,3.39.33,32.09,32.09,0,0,0,3.42,0,19.93,19.93,0,0,0,3-.39,9.57,9.57,0,0,0,1.12-.31,4.58,4.58,0,0,0,.8-.36,1.79,1.79,0,0,0,.49-.4A.74.74,0,0,0,133.06,8.9Z"/><path class="cls-103" d="M130.47,7.14A7.34,7.34,0,0,1,132.4,8c.44.29.66.6.67.89s-.2.59-.63.85a6.58,6.58,0,0,1-2,.7,19.93,19.93,0,0,1-3,.39,32.09,32.09,0,0,1-3.42,0,31.76,31.76,0,0,1-3.39-.33,19.46,19.46,0,0,1-2.91-.66A6.24,6.24,0,0,1,115.91,9c-.39-.3-.56-.6-.51-.9s.31-.57.78-.82a7.57,7.57,0,0,1,2-.65,20.88,20.88,0,0,1,2.92-.36,32.92,32.92,0,0,1,6.5.29A20.45,20.45,0,0,1,130.47,7.14Z"/><path class="cls-104" d="M109.36,12.25l-.28,8.36a1,1,0,0,1-.21.55,2.2,2.2,0,0,1-.59.53,5.28,5.28,0,0,1-1,.48,10.67,10.67,0,0,1-1.35.41,20.46,20.46,0,0,1-3.25.48,30,30,0,0,1-3.61,0,27.79,27.79,0,0,1-3.49-.38,15.87,15.87,0,0,1-2.91-.77,7.42,7.42,0,0,1-.94-.43,3.75,3.75,0,0,1-.66-.46,1.76,1.76,0,0,1-.39-.47.94.94,0,0,1-.12-.47q.08-4.18.16-8.36a.82.82,0,0,0,.12.43,1.68,1.68,0,0,0,.39.43,3.83,3.83,0,0,0,.66.42,7.81,7.81,0,0,0,.95.4,17.12,17.12,0,0,0,2.94.72,30.38,30.38,0,0,0,3.52.36,32.89,32.89,0,0,0,3.63,0,22.25,22.25,0,0,0,3.27-.44,11.45,11.45,0,0,0,1.36-.38,5.49,5.49,0,0,0,1-.44,2.15,2.15,0,0,0,.59-.49A.87.87,0,0,0,109.36,12.25Z"/><path class="cls-105" d="M107,10.46a6,6,0,0,1,1.85.91,1.06,1.06,0,0,1,.5,1,1.54,1.54,0,0,1-.87.94,8.36,8.36,0,0,1-2.25.77,22.25,22.25,0,0,1-3.27.44,32.89,32.89,0,0,1-3.63,0,30.38,30.38,0,0,1-3.52-.36,17.12,17.12,0,0,1-2.94-.72,5,5,0,0,1-1.75-1,.9.9,0,0,1-.32-1,2,2,0,0,1,1-.91,9.53,9.53,0,0,1,2.29-.72,23.1,23.1,0,0,1,3.18-.4,32.85,32.85,0,0,1,3.46,0,30.72,30.72,0,0,1,3.36.33A18.31,18.31,0,0,1,107,10.46Z"/><polygon class="cls-37" points="72.6 51.12 0.57 45.58 0.97 46.67 29.38 64.65 71.77 52.51 72.6 51.12"/><polygon class="cls-106" points="74.47 17.68 72.6 51.12 29.38 62.93 29.81 26.66 74.47 17.68"/><polygon class="cls-107" points="29.81 26.66 29.38 62.93 0.57 45.58 0 13.03 29.81 26.66"/><polygon class="cls-108" points="74.47 17.68 29.81 26.66 0 13.03 42.15 6.1 74.47 17.68"/><path class="cls-109" d="M46.44,2.31l-.27,7.56a.74.74,0,0,1-.18.44,1.88,1.88,0,0,1-.52.42,4.88,4.88,0,0,1-.85.38,10.23,10.23,0,0,1-1.19.32,20.06,20.06,0,0,1-2.9.38,29.89,29.89,0,0,1-3.22,0,27.85,27.85,0,0,1-3.13-.31,15.87,15.87,0,0,1-2.63-.63,7.18,7.18,0,0,1-.86-.36,3.53,3.53,0,0,1-.61-.37,1.49,1.49,0,0,1-.36-.38.7.7,0,0,1-.11-.38l.16-7.56a.62.62,0,0,0,.11.35,1.44,1.44,0,0,0,.36.36,3.63,3.63,0,0,0,.61.35,7.64,7.64,0,0,0,.87.33,17.25,17.25,0,0,0,2.64.59,30.33,30.33,0,0,0,3.15.3c1.09,0,2.19,0,3.24,0a21.83,21.83,0,0,0,2.91-.34,11,11,0,0,0,1.2-.3,5.11,5.11,0,0,0,.86-.35,1.86,1.86,0,0,0,.52-.39A.65.65,0,0,0,46.44,2.31Z"/><path class="cls-110" d="M44.29.86A5.75,5.75,0,0,1,46,1.6c.36.26.51.53.47.79s-.3.52-.76.75a7.88,7.88,0,0,1-2,.61,21.83,21.83,0,0,1-2.91.34c-1.05.06-2.15.06-3.24,0a30.33,30.33,0,0,1-3.15-.3,17.25,17.25,0,0,1-2.64-.59,4.86,4.86,0,0,1-1.6-.77c-.32-.27-.42-.54-.32-.8a1.58,1.58,0,0,1,.89-.73,8.9,8.9,0,0,1,2-.58A22.64,22.64,0,0,1,35.56,0c1-.05,2.06-.06,3.1,0s2.07.14,3,.28A18.34,18.34,0,0,1,44.29.86Z"/><path class="cls-111" d="M24.79,5.91l-.15,7.9a.87.87,0,0,1-.21.53,2.25,2.25,0,0,1-.62.5,5.79,5.79,0,0,1-1,.46,12,12,0,0,1-1.42.39,22.12,22.12,0,0,1-3.15.42,30.61,30.61,0,0,1-3.42,0,26.63,26.63,0,0,1-3.24-.34,14,14,0,0,1-2.64-.69,6.12,6.12,0,0,1-.77-.35,3.09,3.09,0,0,1-.54-.37A1.44,1.44,0,0,1,7.3,14a.78.78,0,0,1-.1-.38q0-4,0-7.93a.68.68,0,0,0,.1.35,1.36,1.36,0,0,0,.32.35,3.15,3.15,0,0,0,.54.34A6.42,6.42,0,0,0,9,7.08a15.11,15.11,0,0,0,2.65.64A29,29,0,0,0,14.89,8a33.39,33.39,0,0,0,3.44,0,24.18,24.18,0,0,0,3.17-.38,12.85,12.85,0,0,0,1.43-.36,6.06,6.06,0,0,0,1-.42,2.21,2.21,0,0,0,.62-.46A.76.76,0,0,0,24.79,5.91Z"/><path class="cls-112" d="M22.85,4.46a4.59,4.59,0,0,1,1.59.81.76.76,0,0,1,.3.87,1.85,1.85,0,0,1-1,.83,9.82,9.82,0,0,1-2.26.68A24.18,24.18,0,0,1,18.33,8a33.39,33.39,0,0,1-3.44,0,29,29,0,0,1-3.26-.32A15.11,15.11,0,0,1,9,7.08a3.81,3.81,0,0,1-1.5-.84.69.69,0,0,1-.14-.87,2.35,2.35,0,0,1,1.12-.8,11,11,0,0,1,2.3-.63,25,25,0,0,1,3.08-.35c1.08-.06,2.19-.06,3.28,0a29.33,29.33,0,0,1,3.13.3A16.17,16.17,0,0,1,22.85,4.46Z"/><path class="cls-113" d="M65.6,8.91l-.41,8a.84.84,0,0,1-.18.46,1.83,1.83,0,0,1-.49.43,4.4,4.4,0,0,1-.8.39,9.08,9.08,0,0,1-1.12.34,18.42,18.42,0,0,1-3,.43,29.33,29.33,0,0,1-3.39,0,29,29,0,0,1-3.36-.35,18,18,0,0,1-2.89-.7,8.72,8.72,0,0,1-1-.43,4.22,4.22,0,0,1-.74-.46,1.79,1.79,0,0,1-.43-.46.83.83,0,0,1-.13-.46h0l.29-8a.72.72,0,0,0,.13.43A1.74,1.74,0,0,0,48.5,9a4.39,4.39,0,0,0,.74.42,9.19,9.19,0,0,0,1.05.4,19.47,19.47,0,0,0,2.91.66,31.75,31.75,0,0,0,3.39.33,32.09,32.09,0,0,0,3.42,0,19.93,19.93,0,0,0,3-.39,9.56,9.56,0,0,0,1.12-.31,4.59,4.59,0,0,0,.8-.36,1.79,1.79,0,0,0,.49-.4A.74.74,0,0,0,65.6,8.91Z"/><path class="cls-114" d="M63,7.14A7.34,7.34,0,0,1,64.93,8c.44.29.66.6.67.89s-.2.59-.63.85a6.58,6.58,0,0,1-2,.7,19.93,19.93,0,0,1-3,.39,32.09,32.09,0,0,1-3.42,0,31.75,31.75,0,0,1-3.39-.33,19.47,19.47,0,0,1-2.91-.66A6.25,6.25,0,0,1,48.45,9c-.39-.3-.56-.6-.51-.9s.31-.57.78-.82a7.58,7.58,0,0,1,2-.65,20.88,20.88,0,0,1,2.91-.36,32.92,32.92,0,0,1,6.5.29A20.46,20.46,0,0,1,63,7.14Z"/><path class="cls-115" d="M41.89,12.25l-.28,8.36a1,1,0,0,1-.21.55,2.21,2.21,0,0,1-.59.53,5.28,5.28,0,0,1-1,.48,10.67,10.67,0,0,1-1.35.41,20.46,20.46,0,0,1-3.25.48,30,30,0,0,1-3.61,0,27.8,27.8,0,0,1-3.49-.38,15.86,15.86,0,0,1-2.91-.77,7.38,7.38,0,0,1-.94-.43,3.77,3.77,0,0,1-.66-.46,1.76,1.76,0,0,1-.39-.47.94.94,0,0,1-.12-.47q.08-4.18.16-8.36a.82.82,0,0,0,.12.43,1.67,1.67,0,0,0,.39.43,3.81,3.81,0,0,0,.66.42,7.83,7.83,0,0,0,.95.4,17.12,17.12,0,0,0,2.94.72,30.38,30.38,0,0,0,3.52.36,32.89,32.89,0,0,0,3.63,0,22.26,22.26,0,0,0,3.27-.44,11.44,11.44,0,0,0,1.36-.38,5.49,5.49,0,0,0,1-.44,2.16,2.16,0,0,0,.59-.49A.87.87,0,0,0,41.89,12.25Z"/><path class="cls-116" d="M39.53,10.46a6,6,0,0,1,1.85.91,1.06,1.06,0,0,1,.5,1,1.54,1.54,0,0,1-.87.94,8.36,8.36,0,0,1-2.25.77,22.26,22.26,0,0,1-3.27.44,32.89,32.89,0,0,1-3.63,0,30.38,30.38,0,0,1-3.52-.36,17.12,17.12,0,0,1-2.94-.72,5,5,0,0,1-1.75-1,.9.9,0,0,1-.32-1,2,2,0,0,1,1-.91,9.53,9.53,0,0,1,2.29-.72,23.1,23.1,0,0,1,3.18-.4,32.86,32.86,0,0,1,3.46,0,30.73,30.73,0,0,1,3.36.33A18.31,18.31,0,0,1,39.53,10.46Z"/></svg>