<svg id="Layer_1" data-name="Layer 1" xmlns="http://www.w3.org/2000/svg" viewBox="0 0 92.45 25.71"><defs><style>.cls-1{fill:#78866c;}.cls-1,.cls-10,.cls-11,.cls-12,.cls-13,.cls-14,.cls-15,.cls-16,.cls-17,.cls-3,.cls-4,.cls-5,.cls-6,.cls-7,.cls-8,.cls-9{fill-rule:evenodd;}.cls-2,.cls-7{fill:#303c36;}.cls-3{fill:#84a18f;}.cls-4{fill:#9dad90;}.cls-5{fill:#192121;}.cls-6{fill:#333633;}.cls-8{fill:#384240;}.cls-9{fill:#242424;}.cls-10{fill:#4b5c5a;}.cls-11{fill:#fff;}.cls-12{fill:#3e4b4a;}.cls-13{fill:#151515;}.cls-15{fill:#f9fae8;}.cls-16{fill:#0e1f26;}.cls-17{fill:#c9e8e7;}</style></defs><title>tadpole</title><path class="cls-1" d="M54,24.94c-8.48,1.51-23.21-.38-33.51-5.62-7.66-3.9-20.08-5.65-20.36-7C-.8,7.75,12.88,3.72,23.72,4.48c5.16.36,18.93-3.5,29-4.38S78.37,4.89,78.92,4.88c6.77,12.06-6,16.7-24.91,20.06"/><path class="cls-2" d="M37.12,24.79a59.13,59.13,0,0,1-16.65-5.22c-4.2-2.14-9.82-3.63-14.09-4.76C2.82,13.87.19,13.17,0,12.49a2.39,2.39,0,0,1,0-.6c.07-1.31,1.22-2.54,3.09-3.61a27.7,27.7,0,0,1,7.23-2.64A46.71,46.71,0,0,1,23.75,4.48c2.72.19,7.87-.8,13.6-1.91C42.45,1.58,48,.51,52.77.09A46.12,46.12,0,0,1,65.3,1.21c5,1,8.33,2.35,13.33,2.45a17.59,17.59,0,0,1,8.52,2.16,10.32,10.32,0,0,1,4.78,5.81,6.65,6.65,0,0,1,.22.7,6.54,6.54,0,0,1,.14.7A6.45,6.45,0,0,1,92.43,15c-.06.49-.23.86-.55,1l-.12,0-.07,0c-.93,1.3-2.71,2.16-4.61,3.07l-1.35.66-.78.4c-2.14,1.1-4.59,2.36-7.42,2.3a28.18,28.18,0,0,1-3.22-.21c-6.4-.85-4.85-.39-11.31,1.17-2.77.67-5.77,1.27-8.94,1.83a52.91,52.91,0,0,1-16.93-.41m25.81-1.68a67.22,67.22,0,0,0,7.51-2.22l0,0,0,0a13.18,13.18,0,0,0,3.8,1,28,28,0,0,0,3.2.21c2.77.06,5.19-1.19,7.31-2.27l.78-.4L87,18.81c1.89-.91,3.66-1.75,4.54-3l0,0h0l.11,0,.11,0c.22-.08.34-.36.39-.75A6.18,6.18,0,0,0,92,13.09h0a6.18,6.18,0,0,0-.13-.68,6.57,6.57,0,0,0-.21-.68h0a9.3,9.3,0,0,0-4.57-5.33,17.94,17.94,0,0,0-8.55-2.25q-.67,0-1.31,0t-1.3.1h0c-2.55-.78-6.46-1.91-10.67-2.77A45.9,45.9,0,0,0,52.79.36C48.05.77,42.49,1.85,37.4,2.83,31.65,3.94,26.49,4.93,23.74,4.74A46.49,46.49,0,0,0,10.37,5.89,27.46,27.46,0,0,0,3.21,8.51c-1.79,1-2.9,2.19-3,3.39a2.08,2.08,0,0,0,0,.53C.4,13,3,13.63,6.44,14.55c4.28,1.13,9.92,2.63,14.14,4.78a58.93,58.93,0,0,0,16.58,5.2A52.66,52.66,0,0,0,54,24.94C57.18,24.38,60.18,23.78,62.94,23.11Z"/><path class="cls-3" d="M54,21.42c-8.47,1-23.21-.41-33.52-4.15C12.85,14.48.43,13.18.15,12.24c-1-3.22,12.71-6,23.55-5.36,5.16.28,18.92-2.34,29-2.89S78.35,7.51,78.89,7.5C85.7,16,72.93,19.18,54,21.42"/><path class="cls-4" d="M54,21.52c-8.47.75-23.21-.42-33.53-3.4C12.83,15.9,1.59,12.35,1.3,11.61.34,9.09,12.83,9.48,23.67,10c5.16.25,18.92-1.74,29-2.14s25.64,2.87,26.18,2.87c6.82,6.69-5.94,9.12-24.82,10.79"/><path class="cls-5" d="M5.39,11.75c-1.31-.27-2.55.06-4.13-.14,13.26-1.54,29.22,1.54,45.44-1.5C50,9.51,67.1,8.38,68,7A16.56,16.56,0,0,1,78.56,3.87c6.62.14,12.1,3.45,13.24,7.7C90.13,7.82,85,5,78.92,4.88A16.56,16.56,0,0,0,68.39,8c-.93,1.39-18.05,2.51-21.33,3.12-14.65,2.74-29.23,0-41.68.62"/><path class="cls-6" d="M66.92,17.52a145.46,145.46,0,0,0-26.62-.44,72.29,72.29,0,0,1-23.85-1.92c-4.54-1.09-8.51-2.73-15.18-3.55,13.26-1.54,29.4,2.11,45.63-.93a188.07,188.07,0,0,1,20.82-2.3q.24-.42.5-.82A16.55,16.55,0,0,1,78.74,4.44c7,.15,12.78,3.87,13.4,8.5.25,1.24.26,2.53-.33,2.74l-.22.07c-1.11,1.6-3.57,2.53-5.94,3.72s-5,2.75-8.14,2.69c-2.61-.05-8.46-.2-10.59-4.63"/><path class="cls-7" d="M68,19l-.1-.2h-.08L68,19M47.84,12A187.93,187.93,0,0,1,68.66,9.7q.24-.42.5-.82A16.56,16.56,0,0,1,79.69,5.75c5,.1,9.38,2,11.69,4.8-1.91-3.47-6.82-6-12.6-6.13A16.56,16.56,0,0,0,68.26,7.56c-.93,1.39-18.05,2.51-21.33,3.12-16.23,3-32.37-.6-45.62.93a55.71,55.71,0,0,1,5.61,1C19.2,12.15,33.49,14.69,47.84,12Z"/><path class="cls-8" d="M66.82,17.5a143.67,143.67,0,0,0-26.47-.44,71.46,71.46,0,0,1-23.71-1.91c-4.52-1.09-8.46-2.73-15.09-3.55a66.31,66.31,0,0,1,7.4-.4c3.18.78,5.79,1.68,8.62,2.36a71.46,71.46,0,0,0,23.71,1.91,143.75,143.75,0,0,1,26.47.44c2.12,4.43,7.93,4.57,10.52,4.62,3.13.06,5.79-1.52,8.09-2.69,4.49-2.27,3.42-1.16,3.09-.73s-.32.44-4,2.32c-2.3,1.16-5,2.75-8.09,2.69-2.59-.05-8.41-.2-10.52-4.62"/><path class="cls-9" d="M74.63,21.59C69.49,21,66.19,17,67.25,12.71s6.1-7.22,11.24-6.58,8.44,4.62,7.37,8.89-6.1,7.22-11.24,6.58"/><path class="cls-10" d="M73.52,6.79c-.74.5-1.68,1.59-1.84,1.41s.63-1.43,1.37-1.94,1.8-.75,2-.45-.79.47-1.53,1"/><path class="cls-11" d="M73.79,6.21c.05.08.12.08.21.09a1.06,1.06,0,0,0,.38-.17c.11-.4-.89-.38-.59.08"/><path class="cls-11" d="M73.4,6.18s0,0,.06,0,.05-.05.08-.09-.27,0-.14.09"/><path class="cls-6" d="M77.13,19.81c-4.37-.07-7.46-3.12-6.89-6.82s4.57-6.64,8.94-6.57,7.46,3.12,6.89,6.82-4.57,6.64-8.94,6.57"/><path class="cls-12" d="M78.62,18.32c-3.77-.06-6.43-2.69-5.94-5.88s3.94-5.72,7.71-5.66,6.43,2.69,5.94,5.88-3.94,5.72-7.71,5.66"/><path class="cls-10" d="M79,12.64c-2.26.42-4.21-.24-4.38-1.47s1.54-2.56,3.79-3,4.21.24,4.38,1.47-1.54,2.56-3.79,3"/><path class="cls-10" d="M89,16.41a3.17,3.17,0,0,1,1.08.63,5.53,5.53,0,0,1-.65.51l0,0a4.68,4.68,0,0,0-.71-.78,3.79,3.79,0,0,0,.31-.32"/><path class="cls-10" d="M89.28,15.37a3.49,3.49,0,0,0,2.42.23c1-.32.13-3.65-.55-4.2.66,1.66.51,3.26-.24,3.51-1.34.44-.63.08-1.63.46"/><path class="cls-13" d="M90.9,13.74c-.14-.17-.32-.24-.4-.16s0,.28.11.45.32.24.4.16,0-.28-.11-.45"/><path class="cls-14" d="M88.6,16.06a5.69,5.69,0,0,0,3.27-.38.94.94,0,0,0,.25-.16h0a6.4,6.4,0,0,1-4,.25l-.09,0c.1.6,1.33.6,2.27,1.31l.08-.08a6,6,0,0,0-1.77-.92"/><path class="cls-15" d="M87.24,8.58a2.08,2.08,0,0,0-2.78,1.21,2.36,2.36,0,0,0,1.72,2.7A2.08,2.08,0,0,0,89,11.27a2.36,2.36,0,0,0-1.72-2.7"/><path class="cls-10" d="M87.11,8.78a1.86,1.86,0,0,0-2.51,1,2.11,2.11,0,0,0,1.6,2.35,1.86,1.86,0,0,0,2.51-1,2.11,2.11,0,0,0-1.6-2.35"/><path class="cls-16" d="M87.1,9.26a1.45,1.45,0,0,0-2,.78,1.64,1.64,0,0,0,1.24,1.83,1.45,1.45,0,0,0,2-.78A1.64,1.64,0,0,0,87.1,9.26"/><path class="cls-15" d="M88,9.59a.42.42,0,0,0-.52.34.48.48,0,0,0,.27.6.43.43,0,0,0,.52-.34.48.48,0,0,0-.27-.6"/><path class="cls-15" d="M87.6,11.71a.23.23,0,0,0-.26.19.26.26,0,0,0,.13.32c.11,0,.23,0,.26-.19a.26.26,0,0,0-.13-.32"/><path class="cls-15" d="M85.52,10.32a.6.6,0,0,0-.71.51.69.69,0,0,0,.34.86c.29.1.61-.13.71-.51a.69.69,0,0,0-.34-.85"/><path class="cls-10" d="M87.25,7.17a.8.8,0,0,0-1,.41c-.07.27.25.29.72.49s.91.5,1,.24a1.25,1.25,0,0,0-.68-1.13"/><path class="cls-17" d="M87.29,7.38a.38.38,0,0,0-.49.19c0,.13.12.14.34.24s.44.24.47.11a.59.59,0,0,0-.32-.54"/><path class="cls-7" d="M63.84,2.32a.27.27,0,0,1,.4,0,.33.33,0,0,1,0,.43.27.27,0,0,1-.4,0,.33.33,0,0,1,0-.43m2-.5a.18.18,0,0,1,0,.23.14.14,0,0,1-.21,0,.18.18,0,0,1,0-.23A.15.15,0,0,1,65.85,1.82Zm-4.06-.5a.23.23,0,0,1,0,.31.19.19,0,0,1-.28,0,.23.23,0,0,1,0-.31A.19.19,0,0,1,61.79,1.33ZM60.24,2.75a.23.23,0,0,1-.18.27.22.22,0,0,1-.25-.19A.23.23,0,0,1,60,2.56.22.22,0,0,1,60.24,2.75Zm-.49-1.44a.28.28,0,0,1,0,.37.23.23,0,0,1-.34,0,.28.28,0,0,1,0-.37A.23.23,0,0,1,59.75,1.31Zm7.84,1.83a.39.39,0,0,1-.29.45.37.37,0,0,1-.42-.32.39.39,0,0,1,.29-.45A.37.37,0,0,1,67.59,3.14Zm1.8-.37a.38.38,0,0,1,0,.5.31.31,0,0,1-.46,0,.38.38,0,0,1,0-.51A.31.31,0,0,1,69.4,2.77Zm2.09,1a.27.27,0,0,1-.12.35A.24.24,0,0,1,71,3.95a.27.27,0,0,1,.12-.35A.24.24,0,0,1,71.49,3.73ZM56.23,1.2a.22.22,0,0,1-.09.28.19.19,0,0,1-.25-.1A.21.21,0,0,1,56,1.09.19.19,0,0,1,56.23,1.2Zm1,.92a.34.34,0,0,1,0,.45.28.28,0,0,1-.42,0,.34.34,0,0,1,0-.45A.28.28,0,0,1,57.22,2.12Zm-3.29-.77a.37.37,0,0,1,.08.49.3.3,0,0,1-.45.08.37.37,0,0,1-.08-.49A.3.3,0,0,1,53.93,1.35ZM51.55,1a.26.26,0,0,1,0,.35.22.22,0,0,1-.32,0,.26.26,0,0,1,0-.35A.22.22,0,0,1,51.55,1Zm-.48,1.67a.22.22,0,0,1,0,.29.18.18,0,0,1-.26,0,.22.22,0,0,1,0-.29A.18.18,0,0,1,51.07,2.66ZM53.19.54a.17.17,0,0,1-.07.22.15.15,0,0,1-.2-.08A.17.17,0,0,1,53,.45.15.15,0,0,1,53.19.54ZM48.53,2.06a.38.38,0,0,1,.08.5.31.31,0,0,1-.46.08.38.38,0,0,1-.08-.5A.31.31,0,0,1,48.53,2.06ZM49.2.7a.29.29,0,0,1,0,.38.24.24,0,0,1-.35,0,.29.29,0,0,1,0-.38A.24.24,0,0,1,49.2.7ZM43.5,3a.64.64,0,0,1-.48.75.61.61,0,0,1-.69-.53.64.64,0,0,1,.48-.75A.61.61,0,0,1,43.5,3Zm1.17-1a.31.31,0,0,1,0,.42.26.26,0,0,1-.39,0,.32.32,0,0,1,0-.42A.26.26,0,0,1,44.67,2ZM38.44,3.46a.27.27,0,0,1-.21.32.26.26,0,0,1-.29-.23.27.27,0,0,1,.21-.32A.26.26,0,0,1,38.44,3.46ZM33.29,4.86a.45.45,0,0,1-.2.58.39.39,0,0,1-.54-.22.45.45,0,0,1,.19-.58A.4.4,0,0,1,33.29,4.86Zm2.46-1.29a.42.42,0,0,1,.22.52.36.36,0,0,1-.48.24.42.42,0,0,1-.22-.52A.36.36,0,0,1,35.75,3.57Zm27-.79a.34.34,0,0,1,.07.45.28.28,0,0,1-.41.08.34.34,0,0,1-.07-.45A.28.28,0,0,1,62.74,2.77Z"/><path class="cls-7" d="M53.17,23.72a.27.27,0,0,0,.4,0,.33.33,0,0,0,0-.44.27.27,0,0,0-.4,0,.33.33,0,0,0,0,.44m2,.67a.17.17,0,0,0,.05-.23A.15.15,0,0,0,55,24.1a.17.17,0,0,0-.05.23A.15.15,0,0,0,55.16,24.39Zm-4.08.16a.23.23,0,0,0,0-.31.19.19,0,0,0-.28,0,.23.23,0,0,0,0,.31A.19.19,0,0,0,51.08,24.54ZM49.6,23a.24.24,0,0,0-.16-.29.21.21,0,0,0-.26.17.24.24,0,0,0,.16.29A.21.21,0,0,0,49.6,23ZM49,24.39A.28.28,0,0,0,49,24a.23.23,0,0,0-.34,0,.28.28,0,0,0,0,.37A.23.23,0,0,0,49,24.39ZM57,23.21a.4.4,0,0,0-.27-.48.36.36,0,0,0-.44.29.4.4,0,0,0,.27.48A.36.36,0,0,0,57,23.21Zm1.78.52a.38.38,0,0,0,0-.51.31.31,0,0,0-.47,0,.38.38,0,0,0,0,.51A.31.31,0,0,0,58.75,23.74ZM60.88,23a.28.28,0,0,0-.1-.36.23.23,0,0,0-.33.1.28.28,0,0,0,.1.36A.23.23,0,0,0,60.88,23ZM45.52,24.21a.22.22,0,0,0-.08-.28.18.18,0,0,0-.26.08.22.22,0,0,0,.08.28A.18.18,0,0,0,45.52,24.21Zm1-.84a.34.34,0,0,0,0-.45.28.28,0,0,0-.42,0,.34.34,0,0,0,0,.45A.28.28,0,0,0,46.56,23.37Zm-3.33.49a.36.36,0,0,0,.11-.48.31.31,0,0,0-.44-.12.36.36,0,0,0-.11.48A.31.31,0,0,0,43.23,23.86ZM40.84,24a.26.26,0,0,0,0-.35.21.21,0,0,0-.32,0,.26.26,0,0,0,0,.35A.21.21,0,0,0,40.84,24Zm-.38-1.71a.22.22,0,0,0,0-.29.18.18,0,0,0-.27,0,.22.22,0,0,0,0,.29A.18.18,0,0,0,40.46,22.31Zm2,2.3a.17.17,0,0,0-.06-.22.14.14,0,0,0-.21.06.17.17,0,0,0,.06.22A.15.15,0,0,0,42.46,24.61Zm-4.57-1.91a.38.38,0,0,0,.11-.5.32.32,0,0,0-.46-.12.38.38,0,0,0-.11.5A.32.32,0,0,0,37.89,22.71Zm.59,1.41a.29.29,0,0,0,0-.39.24.24,0,0,0-.36,0,.29.29,0,0,0,0,.39A.24.24,0,0,0,38.48,24.12Zm-5.55-2.75a.66.66,0,0,0-.44-.79.59.59,0,0,0-.72.47.66.66,0,0,0,.44.79A.59.59,0,0,0,32.92,21.37ZM34,22.42A.32.32,0,0,0,34,22a.26.26,0,0,0-.39,0,.32.32,0,0,0,0,.42A.26.26,0,0,0,34,22.42Zm-6.14-2a.28.28,0,0,0-.19-.33.25.25,0,0,0-.31.2.28.28,0,0,0,.19.33A.25.25,0,0,0,27.9,20.46Zm-5.06-1.82a.46.46,0,0,0-.16-.6.39.39,0,0,0-.55.17.46.46,0,0,0,.16.6A.39.39,0,0,0,22.83,18.64Zm2.38,1.49a.41.41,0,0,0,.25-.5.37.37,0,0,0-.46-.28.41.41,0,0,0-.25.5A.37.37,0,0,0,25.22,20.13Zm26.88,3a.34.34,0,0,0,.1-.44.28.28,0,0,0-.41-.11.33.33,0,0,0-.1.44A.28.28,0,0,0,52.1,23.18Z"/><path class="cls-7" d="M24.59,8.15a.27.27,0,0,1-.4,0,.33.33,0,0,1,0-.44.27.27,0,0,1,.4,0,.33.33,0,0,1,0,.44m-2,.58a.18.18,0,0,1,0-.23.15.15,0,0,1,.21,0,.18.18,0,0,1,0,.23A.15.15,0,0,1,22.59,8.73Zm4.08.34a.23.23,0,0,1,0-.31.19.19,0,0,1,.28,0,.23.23,0,0,1,0,.31A.19.19,0,0,1,26.67,9.06Zm1.5-1.49a.23.23,0,0,1,.17-.28.22.22,0,0,1,.26.18.23.23,0,0,1-.17.28A.22.22,0,0,1,28.17,7.58ZM28.7,9a.28.28,0,0,1,0-.37.23.23,0,0,1,.34,0A.28.28,0,0,1,29,9,.23.23,0,0,1,28.7,9Zm-7.9-1.52A.39.39,0,0,1,21.08,7a.37.37,0,0,1,.43.31.39.39,0,0,1-.28.47A.37.37,0,0,1,20.81,7.47ZM19,7.92a.38.38,0,0,1,0-.51.31.31,0,0,1,.47,0,.38.38,0,0,1,0,.51A.31.31,0,0,1,19,7.92ZM16.9,7A.27.27,0,0,1,17,6.69a.23.23,0,0,1,.33.12.27.27,0,0,1-.1.35A.24.24,0,0,1,16.9,7ZM32.23,9a.22.22,0,0,1,.08-.28.19.19,0,0,1,.26.09.22.22,0,0,1-.08.28A.19.19,0,0,1,32.23,9Zm-1-.88a.34.34,0,0,1,0-.45.28.28,0,0,1,.42,0,.34.34,0,0,1,0,.45A.28.28,0,0,1,31.2,8.09Zm3.31.64a.37.37,0,0,1-.09-.48.3.3,0,0,1,.44-.1.37.37,0,0,1,.09.48A.3.3,0,0,1,34.52,8.73ZM36.9,9a.26.26,0,0,1,0-.35.21.21,0,0,1,.32,0,.26.26,0,0,1,0,.35A.22.22,0,0,1,36.9,9Zm.42-1.69a.22.22,0,0,1,0-.29.18.18,0,0,1,.27,0,.22.22,0,0,1,0,.29A.18.18,0,0,1,37.32,7.31Zm-2,2.21a.17.17,0,0,1,.07-.22.15.15,0,0,1,.2.07.17.17,0,0,1-.07.22A.15.15,0,0,1,35.28,9.52Zm4.61-1.7a.38.38,0,0,1-.1-.5.32.32,0,0,1,.46-.1.38.38,0,0,1,.1.5A.32.32,0,0,1,39.88,7.82ZM39.27,9.2a.29.29,0,0,1,0-.39.24.24,0,0,1,.35,0,.29.29,0,0,1,0,.39A.24.24,0,0,1,39.27,9.2Zm5.61-2.5a.64.64,0,0,1,.46-.77.61.61,0,0,1,.71.51.64.64,0,0,1-.46.77A.61.61,0,0,1,44.88,6.7Zm-1.14,1a.32.32,0,0,1,0-.42.26.26,0,0,1,.39,0,.32.32,0,0,1,0,.42A.26.26,0,0,1,43.74,7.7ZM49.92,6a.27.27,0,0,1,.19-.33.26.26,0,0,1,.3.21.27.27,0,0,1-.19.33A.26.26,0,0,1,49.92,6ZM55,4.42a.46.46,0,0,1,.18-.59.39.39,0,0,1,.54.2.46.46,0,0,1-.18.59A.39.39,0,0,1,55,4.42ZM52.61,5.8a.42.42,0,0,1-.24-.51A.36.36,0,0,1,52.83,5a.42.42,0,0,1,.24.51A.36.36,0,0,1,52.61,5.8ZM25.67,7.65a.34.34,0,0,1-.09-.44A.28.28,0,0,1,26,7.12a.34.34,0,0,1,.09.44A.28.28,0,0,1,25.67,7.65Z"/><path class="cls-7" d="M34.37,18.53a.27.27,0,0,1-.4-.08A.32.32,0,0,1,34,18a.27.27,0,0,1,.4.08.32.32,0,0,1-.07.43m-2.05.32a.18.18,0,0,1,0-.24.15.15,0,0,1,.22,0,.18.18,0,0,1,0,.24A.14.14,0,0,1,32.32,18.85Zm4,.86a.23.23,0,0,1,0-.3.19.19,0,0,1,.28.05.23.23,0,0,1,0,.3A.19.19,0,0,1,36.33,19.71ZM38,18.43a.23.23,0,0,1,.2-.26.23.23,0,0,1,.24.22.23.23,0,0,1-.2.26A.23.23,0,0,1,38,18.43Zm.38,1.48a.28.28,0,0,1,.06-.37.23.23,0,0,1,.34.07.28.28,0,0,1-.06.37A.23.23,0,0,1,38.36,19.91Zm-7.68-2.53A.38.38,0,0,1,31,17a.38.38,0,0,1,.39.36.38.38,0,0,1-.33.43A.38.38,0,0,1,30.68,17.38Zm-1.83.21a.38.38,0,0,1,.08-.5.31.31,0,0,1,.46.09.38.38,0,0,1-.08.5A.31.31,0,0,1,28.85,17.59Zm-2-1.15a.27.27,0,0,1,.14-.34.24.24,0,0,1,.31.16.27.27,0,0,1-.14.34A.24.24,0,0,1,26.84,16.44Zm15,3.9a.21.21,0,0,1,.11-.27.19.19,0,0,1,.25.13.21.21,0,0,1-.11.27A.19.19,0,0,1,41.87,20.34Zm-.92-1a.34.34,0,0,1,.07-.45.28.28,0,0,1,.41.08.34.34,0,0,1-.07.45A.28.28,0,0,1,40.95,19.33Zm3.22,1.06a.37.37,0,0,1,0-.49.3.3,0,0,1,.45,0,.37.37,0,0,1,0,.49A.3.3,0,0,1,44.17,20.4Zm2.34.57a.26.26,0,0,1,.05-.34.22.22,0,0,1,.32.06.26.26,0,0,1-.05.34A.22.22,0,0,1,46.52,21Zm.6-1.62a.22.22,0,0,1,0-.28.18.18,0,0,1,.26.05.22.22,0,0,1,0,.28A.18.18,0,0,1,47.12,19.34Zm-2.28,1.93a.17.17,0,0,1,.09-.21.15.15,0,0,1,.19.1.17.17,0,0,1-.09.21A.15.15,0,0,1,44.84,21.27Zm4.76-1.1a.39.39,0,0,1,0-.51.31.31,0,0,1,.47,0,.38.38,0,0,1,0,.51A.31.31,0,0,1,49.61,20.18Zm-.76,1.29a.29.29,0,0,1,.06-.38.24.24,0,0,1,.35.07.29.29,0,0,1-.06.38A.24.24,0,0,1,48.84,21.47Zm5.85-1.76a.63.63,0,0,1,.54-.7.62.62,0,0,1,.65.59.63.63,0,0,1-.54.7A.62.62,0,0,1,54.69,19.71Zm-1.24.85a.31.31,0,0,1,.07-.41.26.26,0,0,1,.38.07.31.31,0,0,1-.07.41A.26.26,0,0,1,53.45,20.56Zm6.33-.88a.27.27,0,0,1,.23-.3.26.26,0,0,1,.28.25.27.27,0,0,1-.23.3A.26.26,0,0,1,59.78,19.68ZM65,18.76a.45.45,0,0,1,.24-.56.4.4,0,0,1,.52.26.45.45,0,0,1-.24.56A.4.4,0,0,1,65,18.76Zm-2.55,1.06a.42.42,0,0,1-.18-.54.36.36,0,0,1,.49-.19.42.42,0,0,1,.18.54A.36.36,0,0,1,62.47,19.82Zm-27-1.64a.34.34,0,0,1,0-.45.28.28,0,0,1,.41,0,.34.34,0,0,1,0,.45A.28.28,0,0,1,35.5,18.18Z"/></svg>