<svg id="Layer_1" data-name="Layer 1" xmlns="http://www.w3.org/2000/svg" xmlns:xlink="http://www.w3.org/1999/xlink" viewBox="0 0 129.97 88.42"><defs><style>.cls-1{fill:url(#linear-gradient);}.cls-2{fill:url(#linear-gradient-2);}.cls-3{fill:url(#linear-gradient-3);}.cls-4{fill:url(#linear-gradient-4);}.cls-5{fill:url(#linear-gradient-5);}.cls-6{fill:url(#linear-gradient-6);}.cls-7{fill:url(#linear-gradient-7);}.cls-8{fill:url(#linear-gradient-8);}.cls-9{fill:url(#linear-gradient-9);}.cls-10{fill:url(#linear-gradient-10);}.cls-11{fill:url(#linear-gradient-11);}.cls-12{fill:url(#linear-gradient-12);}.cls-13{fill:url(#linear-gradient-13);}.cls-14{fill:url(#linear-gradient-14);}.cls-15{fill:url(#linear-gradient-15);}.cls-16{fill:url(#linear-gradient-16);}.cls-17{fill:url(#linear-gradient-17);}.cls-18{fill:url(#radial-gradient);}.cls-19{fill:url(#radial-gradient-2);}.cls-20{fill:url(#linear-gradient-18);}.cls-21{fill:url(#linear-gradient-19);}.cls-22{fill:url(#linear-gradient-20);}.cls-23{fill:url(#linear-gradient-21);}.cls-24{fill:url(#linear-gradient-22);}.cls-25{fill:url(#linear-gradient-23);}.cls-26{fill:#231f20;}.cls-27{fill:#fff;}</style><linearGradient id="linear-gradient" x1="-1511.36" y1="89.02" x2="-1509.03" y2="77.6" gradientTransform="matrix(1, 0, 0, -1, 1539.52, 89.98)" gradientUnits="userSpaceOnUse"><stop offset="0" stop-color="#85c340"/><stop offset="0.02" stop-color="#8ac540"/><stop offset="0.17" stop-color="#a4ce43"/><stop offset="0.3" stop-color="#b4d344"/><stop offset="0.4" stop-color="#bad545"/><stop offset="1" stop-color="#436e1e"/></linearGradient><linearGradient id="linear-gradient-2" x1="-1513.57" y1="52.18" x2="-1503.26" y2="49.61" gradientTransform="matrix(1, 0, 0, -1, 1539.52, 89.98)" gradientUnits="userSpaceOnUse"><stop offset="0" stop-color="#436e1e"/><stop offset="0.6" stop-color="#bad545"/><stop offset="0.7" stop-color="#b4d344"/><stop offset="0.83" stop-color="#a4ce43"/><stop offset="0.98" stop-color="#8ac540"/><stop offset="1" stop-color="#85c340"/></linearGradient><linearGradient id="linear-gradient-3" x1="-1512.25" y1="49.14" x2="-1515.82" y2="33.18" gradientTransform="matrix(1, 0, 0, -1, 1539.52, 89.98)" gradientUnits="userSpaceOnUse"><stop offset="0" stop-color="#bad545"/><stop offset="0.23" stop-color="#d5b238"/><stop offset="0.47" stop-color="#ec932d"/><stop offset="0.61" stop-color="#f58829"/><stop offset="1" stop-color="#975410"/></linearGradient><linearGradient id="linear-gradient-4" x1="-1446.82" y1="71.71" x2="-1438.99" y2="71.71" gradientTransform="matrix(1, 0, 0, -1, 1539.52, 89.98)" gradientUnits="userSpaceOnUse"><stop offset="0" stop-color="#254a9d"/><stop offset="1" stop-color="#00bff2"/></linearGradient><linearGradient id="linear-gradient-5" x1="-1436.62" y1="68.07" x2="-1428.21" y2="68.07" xlink:href="#linear-gradient-4"/><linearGradient id="linear-gradient-6" x1="-1444.65" y1="70.05" x2="-1424.56" y2="72.11" xlink:href="#linear-gradient-2"/><linearGradient id="linear-gradient-7" x1="-1515.67" y1="60.92" x2="-1513.5" y2="68.59" xlink:href="#linear-gradient-2"/><linearGradient id="linear-gradient-8" x1="-1515.03" y1="63.77" x2="-1508.88" y2="85.49" xlink:href="#linear-gradient-2"/><linearGradient id="linear-gradient-9" x1="-1477.18" y1="42.38" x2="-1466.89" y2="78.7" xlink:href="#linear-gradient-2"/><linearGradient id="linear-gradient-10" x1="-1466.16" y1="40.32" x2="-1464.23" y2="57.86" xlink:href="#linear-gradient-4"/><linearGradient id="linear-gradient-11" x1="-8611.57" y1="43.48" x2="-8587.08" y2="43.48" gradientTransform="translate(-8530.91 89.98) rotate(180)" xlink:href="#linear-gradient-4"/><linearGradient id="linear-gradient-12" x1="-1446" y1="18.49" x2="-1459.29" y2="12.94" xlink:href="#linear-gradient-3"/><linearGradient id="linear-gradient-13" x1="-1447.1" y1="18.71" x2="-1458.08" y2="26.31" xlink:href="#linear-gradient-3"/><linearGradient id="linear-gradient-14" x1="-1451.35" y1="46.61" x2="-1439.69" y2="39.49" xlink:href="#linear-gradient-2"/><linearGradient id="linear-gradient-15" x1="-1430.08" y1="30.5" x2="-1423.14" y2="19.01" xlink:href="#linear-gradient-2"/><linearGradient id="linear-gradient-16" x1="-1433.83" y1="40.96" x2="-1429.72" y2="30.36" xlink:href="#linear-gradient-2"/><linearGradient id="linear-gradient-17" x1="-8537.68" y1="75.17" x2="-8519.55" y2="75.17" gradientTransform="translate(-8530.91 89.98) rotate(180)" xlink:href="#linear-gradient"/><radialGradient id="radial-gradient" cx="-8684.76" cy="76.63" r="7.65" gradientTransform="translate(-10642.82 89.95) rotate(180) scale(1.22 1)" gradientUnits="userSpaceOnUse"><stop offset="0" stop-color="#3165af"/><stop offset="0.64" stop-color="#2b60ac"/><stop offset="1" stop-color="#255ba9"/></radialGradient><radialGradient id="radial-gradient-2" cx="-8684.59" cy="76.23" r="7.14" gradientTransform="translate(-10642.82 89.95) rotate(180) scale(1.22 1)" gradientUnits="userSpaceOnUse"><stop offset="0" stop-color="#ee4323"/><stop offset="0.13" stop-color="#e84122"/><stop offset="0.3" stop-color="#d83a1e"/><stop offset="0.49" stop-color="#bc2f18"/><stop offset="0.7" stop-color="#96200f"/><stop offset="0.92" stop-color="#660c05"/><stop offset="1" stop-color="#520400"/></radialGradient><linearGradient id="linear-gradient-18" x1="-1468.89" y1="58.82" x2="-1471.86" y2="45.28" gradientTransform="matrix(1, 0, 0, -1, 1539.52, 89.98)" gradientUnits="userSpaceOnUse"><stop offset="0" stop-color="#fff229"/><stop offset="0.2" stop-color="#eae931"/><stop offset="0.51" stop-color="#d0de3c"/><stop offset="0.79" stop-color="#c0d743"/><stop offset="1" stop-color="#bad545"/></linearGradient><linearGradient id="linear-gradient-19" x1="-8604.51" y1="45.52" x2="-8580.03" y2="45.52" gradientTransform="translate(-8530.91 89.98) rotate(180)" xlink:href="#linear-gradient-4"/><linearGradient id="linear-gradient-20" x1="-1485.25" y1="19.79" x2="-1502.11" y2="8.35" xlink:href="#linear-gradient-3"/><linearGradient id="linear-gradient-21" x1="-1495.54" y1="47.36" x2="-1474.74" y2="53.25" xlink:href="#linear-gradient-2"/><linearGradient id="linear-gradient-22" x1="-1487" y1="31.68" x2="-1475.11" y2="26.62" xlink:href="#linear-gradient-2"/><linearGradient id="linear-gradient-23" x1="-1486.54" y1="44.78" x2="-1476.78" y2="54.32" xlink:href="#linear-gradient-4"/></defs><title>bhagu</title><path class="cls-1" d="M16.68,10.51c2.11,3.72,7.51,5.34,12,3.62S35.32,8,33.21,4.3,25.7-1,21.17.68,14.6,6.79,16.68,10.51Z"/><path class="cls-2" d="M25.53,42c1.7-.52,3.16.32,4.71,1.1A5.28,5.28,0,0,1,31,41.28a13.75,13.75,0,0,0,.73-2c.34-.91.68-1.81,1-2.73l.06-.19-6.61-3.75L26,33c-.77,2.15-1.53,4.3-2.33,6.45a10.72,10.72,0,0,1-1.39,2.62,6.22,6.22,0,0,1-1.76,1.37l-.62.38C22.15,44.41,23.83,42.84,25.53,42Z"/><path class="cls-3" d="M39.88,46.75a3.26,3.26,0,0,0-3.91-1,3.32,3.32,0,0,0-.86.48c-1.83-.45-4-.64-4.71-2.1a1.67,1.67,0,0,1-.16-1c-1.55-.78-3-1.62-4.71-1.1-1.7.83-3.38,2.39-5.62,1.83-2.58,1.47-6,2.09-8.61,3.56a19.17,19.17,0,0,0-4.61,3.49c-.84.89-2.21,2-2.55,3.11a4.3,4.3,0,0,0-1.84.26C.63,54.91-.16,56.4.53,57.61s2.6,1.69,4.26,1.07,2.41-2,1.81-3.25a21.17,21.17,0,0,0,2.55-2.87,19,19,0,0,1,5-4.27c.66-.38,4.46-2.13,4.47-.18,0,.56-.92,1.24-1.24,1.69a21.58,21.58,0,0,0-1.57,2.51,13.3,13.3,0,0,0-1.66,5.25,4,4,0,0,0-.89.21c-1.71.64-2.46,2.28-1.69,3.65A3.75,3.75,0,0,0,16,62.75c1.71-.64,2.46-2.28,1.69-3.65a2.71,2.71,0,0,0-.45-.57C18.41,57,18.55,54.62,19,53a12,12,0,0,1,1.91-3.74c.68-1,1.06-1.83,2.41-2.28,1,1.18,1,3.25,1.14,4.66a13.2,13.2,0,0,0,.38,2.66c-1.29.78-1.89,2-1.31,3,.68,1.2,2.72,1.61,4.55.92s2.78-2.2,2.1-3.42a3,3,0,0,0-2.69-1.24c0-.32-.05-.67-.08-1-.09-1.38-.87-4.75.58-5.73.75-.51,1.77-.12,2.51.16a31.54,31.54,0,0,0,3.11,1l.56.15a1.84,1.84,0,0,0,.22.75,3.26,3.26,0,0,0,3.91,1C39.82,49.29,40.52,47.9,39.88,46.75Z"/><path class="cls-4" d="M88.36,17.7s3.88,1.51,7.85,3.38a49.6,49.6,0,0,1-3.38-5.61A17.37,17.37,0,0,0,88.36,17.7Z"/><path class="cls-5" d="M107,27.74s-2.21-8.31-8.44-11.66a31.35,31.35,0,0,1,2,7.26c.8.46,1.54.92,2.16,1.35Z"/><path class="cls-6" d="M96.79,15.29a6.61,6.61,0,0,0-4,.18,49.6,49.6,0,0,0,3.43,5.61c1.52.72,3.07,1.5,4.4,2.26a31.35,31.35,0,0,0-2-7.26A11.39,11.39,0,0,0,96.79,15.29Z"/><path class="cls-7" d="M15.83,27.88a22.54,22.54,0,0,1,3,1.24h.24c6.42-1.23,12.85.31,19.27-1.85a19,19,0,0,0,2.07-.52c-13.46,0-27.08-1-39.32-5.55C4.41,24.21,15.41,28,15.83,27.88Z"/><path class="cls-8" d="M42.53,25.09C43.19,18.3,38,12.23,33.37,6.46A88.78,88.78,0,0,0,23.19,7.79a65,65,0,0,0-13.3,2c-7.53,1.9-11,7.26-9.56,10.4a3.48,3.48,0,0,0,.79,1C13.33,25.76,27,26.7,40.44,26.74,41.54,26.36,42.53,25.84,42.53,25.09Z"/><path class="cls-9" d="M106.88,30.68a3.92,3.92,0,0,0,.21-2.94h0l-4.25-3c-4.25-3-20.77-9.62-20.77-9.62S72.67,12,66,12.49s-11.78-.22-18.35-4.24c-3.2-2-9-2.11-14.23-1.75,4.61,5.77,9.83,11.84,9.16,18.63,0,1.23-2.65,1.85-4.15,2.15-6.42,2.15-12.85.62-19.27,1.85h-.24c2,.89,4.63,2.16,7.28,3.52l6.61,3.75a17.8,17.8,0,0,1,2.28,1.7A76.42,76.42,0,0,0,45,44.82a72.29,72.29,0,0,1-7.32-12.36,22.83,22.83,0,0,1,3.82.16c-.65-.7-.16-1.29-.57-2.12,20.69,0,39.27,4.24,58.85,9.61l1.78-1.18A12.52,12.52,0,0,0,106.88,30.68Z"/><path class="cls-10" d="M41.49,32.62c10.28,1.29,16.77,9.52,22.88,16.18a2.69,2.69,0,0,1,.06-.62c1.88,2,15.77-.63,17.19-.91C90.93,44.8,95.3,43,99.77,40.11,80.18,34.73,62,30.5,41.32,30.5,41.73,31.33,40.84,31.92,41.49,32.62Z"/><path class="cls-11" d="M106.47,37.54c-1-2.33-2.17-3.84-4.53-1.84-8.45,6.79-15.42,14-20.06,22.53,4.08-2.39,8.84-3.73,13.11-6l-1.59.64S105.18,43.31,106.47,37.54Z"/><path class="cls-12" d="M80.35,68.76a43.48,43.48,0,0,0-6.37.9,4.62,4.62,0,0,0-4.11-1.22c-2.22.29-3.78,1.66-3.5,3.06s2.29,2.31,4.5,2a4,4,0,0,0,3.43-2.17c2.19.4,5.66.66,7.28,1.15,2.61.8,4.61,2.15,3.08,4.43A5,5,0,0,0,84,78.42h-.08c-2.1.27-3.54,1.82-3.22,3.46s2.29,2.74,4.38,2.46,3.54-1.82,3.22-3.46a2.51,2.51,0,0,0-.45-1c.33-.32.66-.68,1-1.06C88,75.58,85,72.74,81.6,70.77,81.51,70.42,80.71,69.61,80.35,68.76Z"/><path class="cls-13" d="M80.25,67.55c1.68-1.41,3.73-.93,5.71-.82-.72-.37-1.73-.85-2.76-1.26a55,55,0,0,1-6-3,2.27,2.27,0,0,0-1.9,2.4c.23,1.19,1.74,2,3.35,1.77h.15a6.2,6.2,0,0,0,1.49,1.79A1.4,1.4,0,0,1,80.25,67.55Z"/><path class="cls-14" d="M82.07,58c4.6-8.44,11.51-15.53,19.87-22.25,2.38-2,3.55-.49,4.53,1.84a3.69,3.69,0,0,0,0-1.67c-.79-3.31-3.93-4.78-7.12-4.53-7.16,8.79-19.08,16.71-24.51,26.21-.37,1.58-.18,2.88.81,3.74.5.43,1,.82,1.48,1.19,0,0,.72.4,1.68.9A7.16,7.16,0,0,1,82.07,58Z"/><path class="cls-15" d="M99.95,67.73c-3.43-.31-12.88-.41-12.88-.41s-.44-.25-1.11-.59c-2-.11-4-.6-5.71.82a1.4,1.4,0,0,0,0,.89l.36.3h-.25c.36.85,1.16,1.66,1.23,2,3.35,2,6.36,4.81,7.25,8.05,1.9-2.16,3.73-4.93,5.43-5.15,2.39-.31,9.24,1.36,16.52-5.38s19.83-14.57,19.16-18.11a26.53,26.53,0,0,0-9.33,3.22C119,54.71,103.2,68,99.95,67.73Z"/><path class="cls-16" d="M115.85,44.89c-7.16,2-17.05,5.8-20.83,7.31-4.27,2.3-9,3.64-13.11,6l.16-.21a7.16,7.16,0,0,0-3.27,5.42,33.14,33.14,0,0,0,4.38,2.06c3.12.67,6.32.07,10.35-1.36,7.2-2.55,27.22-10.85,27.22-10.85l-.13.11a26.53,26.53,0,0,1,9.33-3.22,1.67,1.67,0,0,0,0-.17C128.74,46.53,124.93,42.38,115.85,44.89Z"/><path class="cls-17" d="M15,17.92c2.11,3.72,7.51,5.34,12,3.62s6.63-6.11,4.48-9.83S24,6.37,19.48,8.09,12.89,14.2,15,17.92Z"/><path class="cls-18" d="M15.42,18c1.92,3.38,6.82,4.85,11,3.29s6-5.56,4-8.94-6.83-4.85-11-3.3S13.51,14.66,15.42,18Z"/><path class="cls-19" d="M15.61,18.12c1.79,3.15,6.37,4.52,10.23,3.07s5.59-5.2,3.81-8.33S23.29,8.34,19.42,9.79,13.86,15,15.61,18.12Z"/><path class="cls-20" d="M89.39,37a70,70,0,0,1-7-1.47c-1.46-.38-2.95-.65-4.36-1.14-.71-.24-1.42-.28-2.15-.45s-1.57-.47-2.4-.63c-2.16-.42-4.24-.77-6.43-1.06-1.35-.18-2.73-.31-4.06-.53s-2.53-.71-3.83-1a20.66,20.66,0,0,0-4.89-.53c-1.19,0-2.3.3-3.55.19-.85-.07-1.68-.45-2.54-.56a41.45,41.45,0,0,0-4.82,0,6.72,6.72,0,0,0-3.47.89c-.69.41-1,.78-.69,1.44a2,2,0,0,0,1.38,1c.7.23,1,.15,1.13-.22-.17-.63-.55-1.44.06-1.44,1.3-.21,3.32-.72,4.69-.31h.11a3.36,3.36,0,0,1,1,.4c.28.19.31.44.43.72.26.55.42,1.15.7,1.69.18.35,1,1.73,1.63,1.5s.13-1.8.06-2.2c-.13-.82-.43-1.4.87-1.4,1.52,0,2.31,0,2.76,1.33s.45,2.58.84,3.85a12.68,12.68,0,0,0,1.22,3c.33.53,1.19,1.79,2.17,1.68s0-1.27-.12-1.61a23.51,23.51,0,0,1-1-2.54,8,8,0,0,1-.25-2.69,2.67,2.67,0,0,1,1.3-2.63,3.49,3.49,0,0,1,4.56,1.11c1.37,1.86,1,4.57.54,6.61-.3,1.5-.66,3.73.26,5.13a1.75,1.75,0,0,0,1.79.75c.72-.13.66-.44.72-1,.19-1.65,0-3.36.15-5a14.35,14.35,0,0,1,1.06-4.58c.47-1,1.25-2.17,2.78-1.62,2.68,1,2.46,3.78,2.28,5.8-.07.83-1.65,7-.22,7.07.76.06,1.5-1.12,1.76-1.58.5-.92,1-1.86,1.47-2.8.8-1.71,1.25-3.52,2.11-5.2.36-.71,1.17-1.35,2-.6a3.1,3.1,0,0,1,.74,2c.09,1.28,0,2.59,0,3.87,0,.53-.08,1.79.55,2.18s1-.27,1.28-.7a25.91,25.91,0,0,0,1.55-2.41,17,17,0,0,1,.72-1.7c1.13-1.66,3.8-.91,5.65-.83.66,0,1.69,0,1.85-.72S90,37.12,89.39,37Z"/><path class="cls-21" d="M99.39,31.34A8.87,8.87,0,0,0,94,33.71S76.79,49.4,74.83,57.59C80.27,48.09,92.19,40.17,99.39,31.34Z"/><path class="cls-22" d="M43.69,72.48c-1.3-.8.5-2.75.76-4.66-.51.3-.87.49-.87.49a44.75,44.75,0,0,0-3.1-3.71,1.71,1.71,0,0,0,.13-1.87,2.9,2.9,0,0,0-3.49-1c-1.34.5-1.95,1.76-1.36,2.79a2.77,2.77,0,0,0,2.89,1.13,43.6,43.6,0,0,0,3.76,5S32.25,69,29,70.29a5.46,5.46,0,0,0-.67.33,4,4,0,0,0-2.7,0c-1.6.6-2.35,2.06-1.66,3.26A3.43,3.43,0,0,0,28,75a2.57,2.57,0,0,0,1.9-2.5c3.67-2,11.91,1.11,11.91,1.11-7.67,1.25-9.79,5.74-11.16,8l-.05.1a3,3,0,0,0-1,.19,1.92,1.92,0,0,0-1.22,2.74,2.79,2.79,0,0,0,3.36,1A1.92,1.92,0,0,0,33,82.89a2.09,2.09,0,0,0-.51-.59c.07-.4.46-1.39,2.17-3.76,2.55-3.54,9.89-2.89,9.89-2.89s-.85,4.75-.08,7.46a5,5,0,0,0,.67,1.41,2,2,0,0,0-.66,2.61,3.36,3.36,0,0,0,4,1c1.56-.59,2.31-2,1.64-3.17a3.25,3.25,0,0,0-3.63-1.15v-.05c-2.22-3.91,1-9.86,1-9.86s.68-.52,1.83-1.44C47.24,72.81,45.13,73.23,43.69,72.48Z"/><path class="cls-23" d="M59.92,47.29c-.25-.22-.51-.45-.77-.66-6.56-5.06-15-8.07-19.87-14.18H37.66A72.29,72.29,0,0,0,44.92,44.8c3.72,2.25,7,4.06,7,4.06l-.24,1A12.77,12.77,0,0,1,59.92,47.29Z"/><path class="cls-24" d="M51.65,49.88c-.83,3.38-3.47,14.17-3.77,15.15-.25.81-2.27,2.09-3.47,2.79-.26,1.91-2.07,3.86-.76,4.66,1.47.75,3.58.33,5.66,0,1.9-1.52,5-4.13,8.55-7.3s5.27-9.3,6-13.24a20.76,20.76,0,0,0-4-4.67A12.77,12.77,0,0,0,51.65,49.88Z"/><path class="cls-25" d="M39.28,32.46c4.87,6.11,13.32,9.12,19.87,14.18A21.24,21.24,0,0,1,63.88,52c.26-1.38.41-2.51.49-3.16C57.84,41.68,50.86,32.76,39.28,32.46Z"/><path class="cls-26" d="M20.47,18.81l1.87-7.9S19.47,14.52,20.47,18.81Z"/><ellipse class="cls-27" cx="24.91" cy="12.82" rx="0.85" ry="0.69"/><path class="cls-27" d="M32.75,8.48h.78c.51,0,1.26,0,2.23.06s2.12.13,3.44.29a38,38,0,0,1,4.41.76,19.68,19.68,0,0,1,5,1.78l.61.35.53.27.56.26c.2.08.4.17.61.24a15.8,15.8,0,0,0,2.75.66,61.9,61.9,0,0,0,6.18.49c2.17.11,4.34.2,6.54.42a44.84,44.84,0,0,1,6.49,1.12,28.72,28.72,0,0,1,3,1l2.95,1.06c1.87.69,3.65,1.38,5.36,2s3.3,1.27,4.77,1.84L91,22l1.9.78L96,24l2,.84.69.3L98,24.89l-2.11-.66-3.18-1.08-1.95-.67-2.18-.73c-1.51-.51-3.16-1-4.88-1.65s-3.55-1.21-5.44-1.88l-2.87-1c-.94-.32-1.92-.62-2.92-.86a43.52,43.52,0,0,0-6.25-1c-2.13-.23-4.29-.34-6.44-.46a55.72,55.72,0,0,1-6.35-.61,15.7,15.7,0,0,1-3-.8c-.24-.08-.46-.2-.69-.3a7.15,7.15,0,0,1-.67-.36l-.58-.37-.53-.33a19.74,19.74,0,0,0-4.57-1.86c-1.52-.43-3-.74-4.25-1s-2.43-.39-3.37-.5l-2.2-.24Z"/></svg>