<?xml version="1.0" encoding="utf-8"?>
<svg version="1.1" id="Layer_1"  xmlns="http://www.w3.org/2000/svg"
	 x="0px" y="0px" viewBox="0 0 375 375" enable-background="new -0.5 -0.5 375 375" xml:space="preserve">
<g id="table">
	<text transform="matrix(0.9993 0 0 1 14.0977 25.3081)" style="fill:#666666; font-family:cursive; font-size:20px;">1</text>
	<rect x="37.7" y="0.5" style="fill:none;stroke:#000000;stroke-width:0.5;stroke-miterlimit:10;" width="37" height="37"/>
	<text transform="matrix(0.9993 0 0 1 50.0737 25.3081)" style="fill:#666666; font-family:cursive; font-size:20px;">2</text>
	<rect x="74.7" y="0.5" style="fill:none;stroke:#000000;stroke-width:0.5;stroke-miterlimit:10;" width="37" height="37"/>
	<text transform="matrix(0.9993 0 0 1 87.0488 25.3081)" style="fill:#666666; font-family:cursive; font-size:20px;">3</text>
	<rect x="111.7" y="0.5" style="fill:none;stroke:#000000;stroke-width:0.5;stroke-miterlimit:10;" width="37" height="37"/>
	<text transform="matrix(0.9993 0 0 1 124.0234 25.3081)" style="fill:#666666; font-family:cursive; font-size:20px;">4</text>
	<rect x="148.6" y="0.5" style="fill:none;stroke:#000000;stroke-width:0.5;stroke-miterlimit:10;" width="37" height="37"/>
	<text transform="matrix(0.9993 0 0 1 160.9985 25.3081)" style="fill:#666666; font-family:cursive; font-size:20px;">5</text>
	<rect x="185.6" y="0.5" style="fill:none;stroke:#000000;stroke-width:0.5;stroke-miterlimit:10;" width="37" height="37"/>
	<text transform="matrix(0.9993 0 0 1 197.9736 25.3081)" style="fill:#666666; font-family:cursive; font-size:20px;">6</text>
	<rect x="222.6" y="0.5" style="fill:none;stroke:#000000;stroke-width:0.5;stroke-miterlimit:10;" width="37" height="37"/>
	<text transform="matrix(0.9993 0 0 1 234.9487 25.3081)" style="fill:#666666; font-family:cursive; font-size:20px;">7</text>
	<rect x="259.6" y="0.5" style="fill:none;stroke:#000000;stroke-width:0.5;stroke-miterlimit:10;" width="37" height="37"/>
	<text transform="matrix(0.9993 0 0 1 271.9238 25.3081)" style="fill:#666666; font-family:cursive; font-size:20px;">8</text>
	<rect x="296.5" y="0.5" style="fill:none;stroke:#000000;stroke-width:0.5;stroke-miterlimit:10;" width="37" height="37"/>
	<text transform="matrix(0.9993 0 0 1 308.8994 25.3081)" style="fill:#666666; font-family:cursive; font-size:20px;">9</text>
	<rect x="333.5" y="0.5" style="fill:none;stroke:#000000;stroke-width:0.5;stroke-miterlimit:10;" width="37" height="37"/>
	<text transform="matrix(0.9993 0 0 1 340.3535 25.3706)" style="fill:#666666; font-family:cursive; font-size:20px;">10</text>
	<rect x="0.7" y="37.5" style="fill:none;stroke:#000000;stroke-width:0.5;stroke-miterlimit:10;" width="37" height="37"/>
	<text transform="matrix(0.9993 0 0 1 6.603 62.3081)" style="fill:#666666; font-family:cursive; font-size:20px;">11</text>
	<rect x="37.7" y="37.5" style="fill:none;stroke:#000000;stroke-width:0.5;stroke-miterlimit:10;" width="37" height="37"/>
	<text transform="matrix(0.9993 0 0 1 43.5776 62.3081)" style="fill:#666666; font-family:cursive; font-size:20px;">12</text>
	<rect x="74.7" y="37.5" style="fill:none;stroke:#000000;stroke-width:0.5;stroke-miterlimit:10;" width="37" height="37"/>
	<text transform="matrix(0.9993 0 0 1 80.5527 62.3081)" style="fill:#666666; font-family:cursive; font-size:20px;">13</text>
	<rect x="111.7" y="37.5" style="fill:none;stroke:#000000;stroke-width:0.5;stroke-miterlimit:10;" width="37" height="37"/>
	<text transform="matrix(0.9993 0 0 1 117.5278 62.3081)" style="fill:#666666; font-family:cursive; font-size:20px;">14</text>
	<rect x="148.6" y="37.5" style="fill:none;stroke:#000000;stroke-width:0.5;stroke-miterlimit:10;" width="37" height="37"/>
	<text transform="matrix(0.9993 0 0 1 154.5029 62.3081)" style="fill:#666666; font-family:cursive; font-size:20px;">15</text>
	<rect x="185.6" y="37.5" style="fill:none;stroke:#000000;stroke-width:0.5;stroke-miterlimit:10;" width="37" height="37"/>
	<text transform="matrix(0.9993 0 0 1 191.478 62.3081)" style="fill:#666666; font-family:cursive; font-size:20px;">16</text>
	<rect x="222.6" y="37.5" style="fill:none;stroke:#000000;stroke-width:0.5;stroke-miterlimit:10;" width="37" height="37"/>
	<text transform="matrix(0.9993 0 0 1 228.4531 62.3081)" style="fill:#666666; font-family:cursive; font-size:20px;">17</text>
	<rect x="259.6" y="37.5" style="fill:none;stroke:#000000;stroke-width:0.5;stroke-miterlimit:10;" width="37" height="37"/>
	<text transform="matrix(0.9993 0 0 1 265.4282 62.3081)" style="fill:#666666; font-family:cursive; font-size:20px;">18</text>
	<rect x="296.5" y="37.5" style="fill:none;stroke:#000000;stroke-width:0.5;stroke-miterlimit:10;" width="37" height="37"/>
	<text transform="matrix(0.9993 0 0 1 302.4028 62.3081)" style="fill:#666666; font-family:cursive; font-size:20px;">19</text>
	<rect x="333.5" y="37.5" style="fill:none;stroke:#000000;stroke-width:0.5;stroke-miterlimit:10;" width="37" height="37"/>
	<text transform="matrix(0.9993 0 0 1 340.3779 62.3081)" style="fill:#666666; font-family:cursive; font-size:20px;">20</text>
	<rect x="0.7" y="74.5" style="fill:none;stroke:#000000;stroke-width:0.5;stroke-miterlimit:10;" width="37" height="37"/>
	<text transform="matrix(0.9993 0 0 1 7.6021 99.3081)" style="fill:#666666; font-family:cursive; font-size:20px;">21</text>
	<rect x="37.7" y="74.5" style="fill:none;stroke:#000000;stroke-width:0.5;stroke-miterlimit:10;" width="37" height="37"/>
	<text transform="matrix(0.9993 0 0 1 44.5771 99.3081)" style="fill:#666666; font-family:cursive; font-size:20px;">22</text>
	<rect x="74.7" y="74.5" style="fill:none;stroke:#000000;stroke-width:0.5;stroke-miterlimit:10;" width="37" height="37"/>
	<text transform="matrix(0.9993 0 0 1 81.5522 99.3081)" style="fill:#666666; font-family:cursive; font-size:20px;">23</text>
	<rect x="111.7" y="74.5" style="fill:none;stroke:#000000;stroke-width:0.5;stroke-miterlimit:10;" width="37" height="37"/>
	<text transform="matrix(0.9993 0 0 1 118.5273 99.3081)" style="fill:#666666; font-family:cursive; font-size:20px;">24</text>
	<rect x="148.6" y="74.5" style="fill:none;stroke:#000000;stroke-width:0.5;stroke-miterlimit:10;" width="37" height="37"/>
	<text transform="matrix(0.9993 0 0 1 155.5024 99.3081)" style="fill:#666666; font-family:cursive; font-size:20px;">25</text>
	<rect x="185.6" y="74.5" style="fill:none;stroke:#000000;stroke-width:0.5;stroke-miterlimit:10;" width="37" height="37"/>
	<text transform="matrix(0.9993 0 0 1 192.4771 99.3081)" style="fill:#666666; font-family:cursive; font-size:20px;">26</text>
	<rect x="222.6" y="74.5" style="fill:none;stroke:#000000;stroke-width:0.5;stroke-miterlimit:10;" width="37" height="37"/>
	<text transform="matrix(0.9993 0 0 1 229.4521 99.3081)" style="fill:#666666; font-family:cursive; font-size:20px;">27</text>
	<rect x="259.6" y="74.5" style="fill:none;stroke:#000000;stroke-width:0.5;stroke-miterlimit:10;" width="37" height="37"/>
	<text transform="matrix(0.9993 0 0 1 266.4272 99.3081)" style="fill:#666666; font-family:cursive; font-size:20px;">28</text>
	<rect x="296.5" y="74.5" style="fill:none;stroke:#000000;stroke-width:0.5;stroke-miterlimit:10;" width="37" height="37"/>
	<text transform="matrix(0.9993 0 0 1 303.4023 99.3081)" style="fill:#666666; font-family:cursive; font-size:20px;">29</text>
	<rect x="333.5" y="74.5" style="fill:none;stroke:#000000;stroke-width:0.5;stroke-miterlimit:10;" width="37" height="37"/>
	<text transform="matrix(0.9993 0 0 1 340.3779 99.3081)" style="fill:#666666; font-family:cursive; font-size:20px;">30</text>
	<rect x="0.7" y="111.5" style="fill:none;stroke:#000000;stroke-width:0.5;stroke-miterlimit:10;" width="37" height="37"/>
	<text transform="matrix(0.9993 0 0 1 7.6021 136.3081)" style="fill:#666666; font-family:cursive; font-size:20px;">31</text>
	<rect x="37.7" y="111.5" style="fill:none;stroke:#000000;stroke-width:0.5;stroke-miterlimit:10;" width="37" height="37"/>
	<text transform="matrix(0.9993 0 0 1 44.5771 136.3081)" style="fill:#666666; font-family:cursive; font-size:20px;">32</text>
	<rect x="74.7" y="111.5" style="fill:none;stroke:#000000;stroke-width:0.5;stroke-miterlimit:10;" width="37" height="37"/>
	<text transform="matrix(0.9993 0 0 1 81.5522 136.3081)" style="fill:#666666; font-family:cursive; font-size:20px;">33</text>
	<rect x="111.7" y="111.5" style="fill:none;stroke:#000000;stroke-width:0.5;stroke-miterlimit:10;" width="37" height="37"/>
	<text transform="matrix(0.9993 0 0 1 118.5273 136.3081)" style="fill:#666666; font-family:cursive; font-size:20px;">34</text>
	<rect x="148.6" y="111.5" style="fill:none;stroke:#000000;stroke-width:0.5;stroke-miterlimit:10;" width="37" height="37"/>
	<text transform="matrix(0.9993 0 0 1 155.5024 136.3081)" style="fill:#666666; font-family:cursive; font-size:20px;">35</text>
	<rect x="185.6" y="111.5" style="fill:none;stroke:#000000;stroke-width:0.5;stroke-miterlimit:10;" width="37" height="37"/>
	<text transform="matrix(0.9993 0 0 1 192.4771 136.3081)" style="fill:#666666; font-family:cursive; font-size:20px;">36</text>
	<rect x="222.6" y="111.5" style="fill:none;stroke:#000000;stroke-width:0.5;stroke-miterlimit:10;" width="37" height="37"/>
	<text transform="matrix(0.9993 0 0 1 229.4521 136.3081)" style="fill:#666666; font-family:cursive; font-size:20px;">37</text>
	<rect x="259.6" y="111.5" style="fill:none;stroke:#000000;stroke-width:0.5;stroke-miterlimit:10;" width="37" height="37"/>
	<text transform="matrix(0.9993 0 0 1 266.4272 136.3081)" style="fill:#666666; font-family:cursive; font-size:20px;">38</text>
	<rect x="296.5" y="111.5" style="fill:none;stroke:#000000;stroke-width:0.5;stroke-miterlimit:10;" width="37" height="37"/>
	<text transform="matrix(0.9993 0 0 1 303.4023 136.3081)" style="fill:#666666; font-family:cursive; font-size:20px;">39</text>
	<rect x="333.5" y="111.5" style="fill:none;stroke:#000000;stroke-width:0.5;stroke-miterlimit:10;" width="37" height="37"/>
	<text transform="matrix(0.9993 0 0 1 340.3779 136.3081)" style="fill:#666666; font-family:cursive; font-size:20px;">40</text>
	<rect x="0.7" y="148.5" style="fill:none;stroke:#000000;stroke-width:0.5;stroke-miterlimit:10;" width="37" height="37"/>
	<text transform="matrix(0.9993 0 0 1 7.0713 172.7773)" style="fill:#666666; font-family:cursive; font-size:20px;">41</text>
	<rect x="37.7" y="148.5" style="fill:none;stroke:#000000;stroke-width:0.5;stroke-miterlimit:10;" width="37" height="37"/>
	<text transform="matrix(0.9993 0 0 1 44.0464 172.7773)" style="fill:#666666; font-family:cursive; font-size:20px;">42</text>
	<rect x="74.7" y="148.5" style="fill:none;stroke:#000000;stroke-width:0.5;stroke-miterlimit:10;" width="37" height="37"/>
	<text transform="matrix(0.9993 0 0 1 81.0215 172.7773)" style="fill:#666666; font-family:cursive; font-size:20px;">43</text>
	<rect x="111.7" y="148.5" style="fill:none;stroke:#000000;stroke-width:0.5;stroke-miterlimit:10;" width="37" height="37"/>
	<text transform="matrix(0.9993 0 0 1 117.9966 172.7773)" style="fill:#666666; font-family:cursive; font-size:20px;">44</text>
	<rect x="148.6" y="148.5" style="fill:none;stroke:#000000;stroke-width:0.5;stroke-miterlimit:10;" width="37" height="37"/>
	<text transform="matrix(0.9993 0 0 1 154.9717 172.7773)" style="fill:#666666; font-family:cursive; font-size:20px;">45</text>
	<rect x="185.6" y="148.5" style="fill:none;stroke:#000000;stroke-width:0.5;stroke-miterlimit:10;" width="37" height="37"/>
	<text transform="matrix(0.9993 0 0 1 191.9463 172.7773)" style="fill:#666666; font-family:cursive; font-size:20px;">46</text>
	<rect x="222.6" y="148.5" style="fill:none;stroke:#000000;stroke-width:0.5;stroke-miterlimit:10;" width="37" height="37"/>
	<text transform="matrix(0.9993 0 0 1 228.9214 172.7773)" style="fill:#666666; font-family:cursive; font-size:20px;">47</text>
	<rect x="259.6" y="148.5" style="fill:none;stroke:#000000;stroke-width:0.5;stroke-miterlimit:10;" width="37" height="37"/>
	<text transform="matrix(0.9993 0 0 1 265.8965 172.7773)" style="fill:#666666; font-family:cursive; font-size:20px;">48</text>
	<rect x="296.5" y="148.5" style="fill:none;stroke:#000000;stroke-width:0.5;stroke-miterlimit:10;" width="37" height="37"/>
	<text transform="matrix(0.9993 0 0 1 302.8716 172.7773)" style="fill:#666666; font-family:cursive; font-size:20px;">49</text>
	<rect x="333.5" y="148.5" style="fill:none;stroke:#000000;stroke-width:0.5;stroke-miterlimit:10;" width="37" height="37"/>
	<text transform="matrix(0.9993 0 0 1 339.8467 172.7773)" style="fill:#666666; font-family:cursive; font-size:20px;">50</text>
	<rect x="0.7" y="185.5" style="fill:none;stroke:#000000;stroke-width:0.5;stroke-miterlimit:10;" width="37" height="37"/>
	<text transform="matrix(0.9993 0 0 1 7.0713 209.7773)" style="fill:#666666; font-family:cursive; font-size:20px;">51</text>
	<rect x="37.7" y="185.5" style="fill:none;stroke:#000000;stroke-width:0.5;stroke-miterlimit:10;" width="37" height="37"/>
	<text transform="matrix(0.9993 0 0 1 44.0464 209.7773)" style="fill:#666666; font-family:cursive; font-size:20px;">52</text>
	<rect x="74.7" y="185.5" style="fill:none;stroke:#000000;stroke-width:0.5;stroke-miterlimit:10;" width="37" height="37"/>
	<text transform="matrix(0.9993 0 0 1 81.0215 209.7773)" style="fill:#666666; font-family:cursive; font-size:20px;">53</text>
	<rect x="111.7" y="185.5" style="fill:none;stroke:#000000;stroke-width:0.5;stroke-miterlimit:10;" width="37" height="37"/>
	<text transform="matrix(0.9993 0 0 1 117.9966 209.7773)" style="fill:#666666; font-family:cursive; font-size:20px;">54</text>
	<rect x="148.6" y="185.5" style="fill:none;stroke:#000000;stroke-width:0.5;stroke-miterlimit:10;" width="37" height="37"/>
	<text transform="matrix(0.9993 0 0 1 154.9717 209.7773)" style="fill:#666666; font-family:cursive; font-size:20px;">55</text>
	<rect x="185.6" y="185.5" style="fill:none;stroke:#000000;stroke-width:0.5;stroke-miterlimit:10;" width="37" height="37"/>
	<text transform="matrix(0.9993 0 0 1 191.9463 209.7773)" style="fill:#666666; font-family:cursive; font-size:20px;">56</text>
	<rect x="222.6" y="185.5" style="fill:none;stroke:#000000;stroke-width:0.5;stroke-miterlimit:10;" width="37" height="37"/>
	<text transform="matrix(0.9993 0 0 1 228.9214 209.7773)" style="fill:#666666; font-family:cursive; font-size:20px;">57</text>
	<rect x="259.6" y="185.5" style="fill:none;stroke:#000000;stroke-width:0.5;stroke-miterlimit:10;" width="37" height="37"/>
	<text transform="matrix(0.9993 0 0 1 265.8965 209.7773)" style="fill:#666666; font-family:cursive; font-size:20px;">58</text>
	<rect x="296.5" y="185.5" style="fill:none;stroke:#000000;stroke-width:0.5;stroke-miterlimit:10;" width="37" height="37"/>
	<text transform="matrix(0.9993 0 0 1 302.8716 209.7773)" style="fill:#666666; font-family:cursive; font-size:20px;">59</text>
	<rect x="333.5" y="185.5" style="fill:none;stroke:#000000;stroke-width:0.5;stroke-miterlimit:10;" width="37" height="37"/>
	<text transform="matrix(0.9993 0 0 1 339.8467 209.7773)" style="fill:#666666; font-family:cursive; font-size:20px;">60</text>
	<rect x="0.7" y="222.5" style="fill:none;stroke:#000000;stroke-width:0.5;stroke-miterlimit:10;" width="37" height="37"/>
	<text transform="matrix(0.9993 0 0 1 7.0713 246.7773)" style="fill:#666666; font-family:cursive; font-size:20px;">61</text>
	<rect x="37.7" y="222.5" style="fill:none;stroke:#000000;stroke-width:0.5;stroke-miterlimit:10;" width="37" height="37"/>
	<text transform="matrix(0.9993 0 0 1 44.0464 246.7773)" style="fill:#666666; font-family:cursive; font-size:20px;">62</text>
	<rect x="74.7" y="222.5" style="fill:none;stroke:#000000;stroke-width:0.5;stroke-miterlimit:10;" width="37" height="37"/>
	<text transform="matrix(0.9993 0 0 1 81.0215 246.7773)" style="fill:#666666; font-family:cursive; font-size:20px;">63</text>
	<rect x="111.7" y="222.5" style="fill:none;stroke:#000000;stroke-width:0.5;stroke-miterlimit:10;" width="37" height="37"/>
	<text transform="matrix(0.9993 0 0 1 117.9966 246.7773)" style="fill:#666666; font-family:cursive; font-size:20px;">64</text>
	<rect x="148.6" y="222.5" style="fill:none;stroke:#000000;stroke-width:0.5;stroke-miterlimit:10;" width="37" height="37"/>
	<text transform="matrix(0.9993 0 0 1 154.9717 246.7773)" style="fill:#666666; font-family:cursive; font-size:20px;">65</text>
	<rect x="185.6" y="222.5" style="fill:none;stroke:#000000;stroke-width:0.5;stroke-miterlimit:10;" width="37" height="37"/>
	<text transform="matrix(0.9993 0 0 1 191.4468 246.7773)" style="fill:#666666; font-family:cursive; font-size:20px;">66</text>
	<rect x="222.6" y="222.5" style="fill:none;stroke:#000000;stroke-width:0.5;stroke-miterlimit:10;" width="37" height="37"/>
	<text transform="matrix(0.9993 0 0 1 228.4219 246.7773)" style="fill:#666666; font-family:cursive; font-size:20px;">67</text>
	<rect x="259.6" y="222.5" style="fill:none;stroke:#000000;stroke-width:0.5;stroke-miterlimit:10;" width="37" height="37"/>
	<text transform="matrix(0.9993 0 0 1 265.397 246.7773)" style="fill:#666666; font-family:cursive; font-size:20px;">68</text>
	<rect x="296.5" y="222.5" style="fill:none;stroke:#000000;stroke-width:0.5;stroke-miterlimit:10;" width="37" height="37"/>
	<text transform="matrix(0.9993 0 0 1 302.3721 246.7773)" style="fill:#666666; font-family:cursive; font-size:20px;">69</text>
	<rect x="333.5" y="222.5" style="fill:none;stroke:#000000;stroke-width:0.5;stroke-miterlimit:10;" width="37" height="37"/>
	<text transform="matrix(0.9993 0 0 1 339.3467 246.7773)" style="fill:#666666; font-family:cursive; font-size:20px;">70</text>
	<rect x="0.7" y="259.5" style="fill:none;stroke:#000000;stroke-width:0.5;stroke-miterlimit:10;" width="37" height="37"/>
	<text transform="matrix(0.9993 0 0 1 7.0713 283.7773)" style="fill:#666666; font-family:cursive; font-size:20px;">71</text>
	<rect x="37.7" y="259.5" style="fill:none;stroke:#000000;stroke-width:0.5;stroke-miterlimit:10;" width="37" height="37"/>
	<text transform="matrix(0.9993 0 0 1 44.0464 283.7773)" style="fill:#666666; font-family:cursive; font-size:20px;">72</text>
	<rect x="74.7" y="259.5" style="fill:none;stroke:#000000;stroke-width:0.5;stroke-miterlimit:10;" width="37" height="37"/>
	<text transform="matrix(0.9993 0 0 1 81.0215 283.7773)" style="fill:#666666; font-family:cursive; font-size:20px;">73</text>
	<rect x="111.7" y="259.5" style="fill:none;stroke:#000000;stroke-width:0.5;stroke-miterlimit:10;" width="37" height="37"/>
	<text transform="matrix(0.9993 0 0 1 117.9966 283.7773)" style="fill:#666666; font-family:cursive; font-size:20px;">74</text>
	<rect x="148.6" y="259.5" style="fill:none;stroke:#000000;stroke-width:0.5;stroke-miterlimit:10;" width="37" height="37"/>
	<text transform="matrix(0.9993 0 0 1 154.9717 283.7773)" style="fill:#666666; font-family:cursive; font-size:20px;">75</text>
	<rect x="185.6" y="259.5" style="fill:none;stroke:#000000;stroke-width:0.5;stroke-miterlimit:10;" width="37" height="37"/>
	<text transform="matrix(0.9993 0 0 1 191.4468 283.7773)" style="fill:#666666; font-family:cursive; font-size:20px;">76</text>
	<rect x="222.6" y="259.5" style="fill:none;stroke:#000000;stroke-width:0.5;stroke-miterlimit:10;" width="37" height="37"/>
	<text transform="matrix(0.9993 0 0 1 228.4219 283.7773)" style="fill:#666666; font-family:cursive; font-size:20px;">77</text>
	<rect x="259.6" y="259.5" style="fill:none;stroke:#000000;stroke-width:0.5;stroke-miterlimit:10;" width="37" height="37"/>
	<text transform="matrix(0.9993 0 0 1 265.397 283.7773)" style="fill:#666666; font-family:cursive; font-size:20px;">78</text>
	<rect x="296.5" y="259.5" style="fill:none;stroke:#000000;stroke-width:0.5;stroke-miterlimit:10;" width="37" height="37"/>
	<text transform="matrix(0.9993 0 0 1 302.3721 283.7773)" style="fill:#666666; font-family:cursive; font-size:20px;">79</text>
	<rect x="333.5" y="259.5" style="fill:none;stroke:#000000;stroke-width:0.5;stroke-miterlimit:10;" width="37" height="37"/>
	<text transform="matrix(0.9993 0 0 1 339.3467 283.7773)" style="fill:#666666; font-family:cursive; font-size:20px;">80</text>
	<rect x="0.7" y="296.5" style="fill:none;stroke:#000000;stroke-width:0.5;stroke-miterlimit:10;" width="37" height="37"/>
	<text transform="matrix(0.9993 0 0 1 7.0713 320.7773)" style="fill:#666666; font-family:cursive; font-size:20px;">81</text>
	<rect x="37.7" y="296.5" style="fill:none;stroke:#000000;stroke-width:0.5;stroke-miterlimit:10;" width="37" height="37"/>
	<text transform="matrix(0.9993 0 0 1 44.0464 320.7773)" style="fill:#666666; font-family:cursive; font-size:20px;">82</text>
	<rect x="74.7" y="296.5" style="fill:none;stroke:#000000;stroke-width:0.5;stroke-miterlimit:10;" width="37" height="37"/>
	<text transform="matrix(0.9993 0 0 1 81.0215 320.7773)" style="fill:#666666; font-family:cursive; font-size:20px;">83</text>
	<rect x="111.7" y="296.5" style="fill:none;stroke:#000000;stroke-width:0.5;stroke-miterlimit:10;" width="37" height="37"/>
	<text transform="matrix(0.9993 0 0 1 117.9966 320.7773)" style="fill:#666666; font-family:cursive; font-size:20px;">84</text>
	<rect x="148.6" y="296.5" style="fill:none;stroke:#000000;stroke-width:0.5;stroke-miterlimit:10;" width="37" height="37"/>
	<text transform="matrix(0.9993 0 0 1 154.9717 320.7773)" style="fill:#666666; font-family:cursive; font-size:20px;">85</text>
	<rect x="185.6" y="296.5" style="fill:none;stroke:#000000;stroke-width:0.5;stroke-miterlimit:10;" width="37" height="37"/>
	<text transform="matrix(0.9993 0 0 1 191.4468 320.7773)" style="fill:#666666; font-family:cursive; font-size:20px;">86</text>
	<rect x="222.6" y="296.5" style="fill:none;stroke:#000000;stroke-width:0.5;stroke-miterlimit:10;" width="37" height="37"/>
	<text transform="matrix(0.9993 0 0 1 228.4219 320.7773)" style="fill:#666666; font-family:cursive; font-size:20px;">87</text>
	<rect x="259.6" y="296.5" style="fill:none;stroke:#000000;stroke-width:0.5;stroke-miterlimit:10;" width="37" height="37"/>
	<text transform="matrix(0.9993 0 0 1 265.397 320.7773)" style="fill:#666666; font-family:cursive; font-size:20px;">88</text>
	<rect x="296.5" y="296.5" style="fill:none;stroke:#000000;stroke-width:0.5;stroke-miterlimit:10;" width="37" height="37"/>
	<text transform="matrix(0.9993 0 0 1 302.3721 320.7773)" style="fill:#666666; font-family:cursive; font-size:20px;">89</text>
	<rect x="333.5" y="296.5" style="fill:none;stroke:#000000;stroke-width:0.5;stroke-miterlimit:10;" width="37" height="37"/>
	<text transform="matrix(0.9993 0 0 1 339.3467 320.7773)" style="fill:#666666; font-family:cursive; font-size:20px;">90</text>
	<rect x="0.7" y="333.5" style="fill:none;stroke:#000000;stroke-width:0.5;stroke-miterlimit:10;" width="37" height="37"/>
	<text transform="matrix(0.9993 0 0 1 7.0713 357.7773)" style="fill:#666666; font-family:cursive; font-size:20px;">91</text>
	<rect x="37.7" y="333.5" style="fill:none;stroke:#000000;stroke-width:0.5;stroke-miterlimit:10;" width="37" height="37"/>
	<text transform="matrix(0.9993 0 0 1 44.0464 357.7773)" style="fill:#666666; font-family:cursive; font-size:20px;">92</text>
	<rect x="74.7" y="333.5" style="fill:none;stroke:#000000;stroke-width:0.5;stroke-miterlimit:10;" width="37" height="37"/>
	<text transform="matrix(0.9993 0 0 1 81.0215 357.7773)" style="fill:#666666; font-family:cursive; font-size:20px;">93</text>
	<rect x="111.7" y="333.5" style="fill:none;stroke:#000000;stroke-width:0.5;stroke-miterlimit:10;" width="37" height="37"/>
	<text transform="matrix(0.9993 0 0 1 117.9966 357.7773)" style="fill:#666666; font-family:cursive; font-size:20px;">94</text>
	<rect x="148.6" y="333.5" style="fill:none;stroke:#000000;stroke-width:0.5;stroke-miterlimit:10;" width="37" height="37"/>
	<text transform="matrix(0.9993 0 0 1 154.9717 357.7773)" style="fill:#666666; font-family:cursive; font-size:20px;">95</text>
	<rect x="185.6" y="333.5" style="fill:none;stroke:#000000;stroke-width:0.5;stroke-miterlimit:10;" width="37" height="37"/>
	<text transform="matrix(0.9993 0 0 1 191.4468 357.7773)" style="fill:#666666; font-family:cursive; font-size:20px;">96</text>
	<rect x="222.6" y="333.5" style="fill:none;stroke:#000000;stroke-width:0.5;stroke-miterlimit:10;" width="37" height="37"/>
	<text transform="matrix(0.9993 0 0 1 228.4219 357.7773)" style="fill:#666666; font-family:cursive; font-size:20px;">97</text>
	<rect x="259.6" y="333.5" style="fill:none;stroke:#000000;stroke-width:0.5;stroke-miterlimit:10;" width="37" height="37"/>
	<text transform="matrix(0.9993 0 0 1 265.397 357.7773)" style="fill:#666666; font-family:cursive; font-size:20px;">98</text>
	<rect x="296.5" y="333.5" style="fill:none;stroke:#000000;stroke-width:0.5;stroke-miterlimit:10;" width="37" height="37"/>
	<text transform="matrix(0.9993 0 0 1 302.3721 357.7773)" style="fill:#666666; font-family:cursive; font-size:20px;">99</text>
	<rect x="333.5" y="333.5" style="fill:none;stroke:#000000;stroke-width:0.5;stroke-miterlimit:10;" width="37" height="37"/>
	<text transform="matrix(0.9993 0 0 1 333.3516 357.7773)" style="fill:#666666; font-family:cursive; font-size:20px;">100</text>
	<rect x="0.5" y="0.5" style="fill:none;stroke:#000000;stroke-width:0.5;stroke-miterlimit:10;" width="37" height="37"/>
</g>
</svg>