<svg id="Layer_1" data-name="Layer 1" xmlns="http://www.w3.org/2000/svg" xmlns:xlink="http://www.w3.org/1999/xlink" viewBox="0 0 73.07 53.93"><defs><style>.cls-1{fill:url(#linear-gradient);}.cls-2{fill:url(#linear-gradient-2);}.cls-3{fill:url(#linear-gradient-3);}.cls-4{fill:url(#linear-gradient-4);}.cls-5{fill:url(#linear-gradient-5);}.cls-6{fill:url(#linear-gradient-6);}.cls-7{fill:url(#linear-gradient-7);}.cls-8{fill:#33bcff;}.cls-9{fill:#387502;}.cls-10{fill:#fff;}</style><linearGradient id="linear-gradient" x1="3829.37" y1="-262.61" x2="3837.68" y2="-243" gradientTransform="matrix(-1, 0.08, 0.08, 1, 3856.06, -11.74)" gradientUnits="userSpaceOnUse"><stop offset="0.19" stop-color="#77bd4b"/><stop offset="0.33" stop-color="#74b947"/><stop offset="0.47" stop-color="#69ae3b"/><stop offset="0.61" stop-color="#589a28"/><stop offset="0.75" stop-color="#417f0c"/><stop offset="0.8" stop-color="#387502"/><stop offset="1" stop-color="#5d9f2d"/></linearGradient><linearGradient id="linear-gradient-2" x1="3832.62" y1="14.36" x2="3835.22" y2="20.5" gradientTransform="matrix(-1, 0, 0, 1, 3844.13, 0)" gradientUnits="userSpaceOnUse"><stop offset="0" stop-color="#f2f9ee"/><stop offset="0.14" stop-color="#eef7e9"/><stop offset="0.3" stop-color="#e4f2db"/><stop offset="0.47" stop-color="#d2eac4"/><stop offset="0.64" stop-color="#badea4"/><stop offset="0.82" stop-color="#9bcf7b"/><stop offset="1" stop-color="#77bd4b"/></linearGradient><linearGradient id="linear-gradient-3" x1="3775.56" y1="-0.34" x2="3827.2" y2="45.75" gradientTransform="matrix(-1, 0, 0, 1, 3844.13, 0)" xlink:href="#linear-gradient"/><linearGradient id="linear-gradient-4" x1="3771.39" y1="30.38" x2="3787.03" y2="30.38" gradientTransform="matrix(-1, 0, 0, 1, 3844.13, 0)" gradientUnits="userSpaceOnUse"><stop offset="0" stop-color="#fff"/><stop offset="0.61" stop-color="#77bd4b"/><stop offset="0.75" stop-color="#74b947"/><stop offset="0.89" stop-color="#69ad3b"/><stop offset="1" stop-color="#5d9f2d"/></linearGradient><linearGradient id="linear-gradient-5" x1="3774.41" y1="31.71" x2="3792.88" y2="31.71" gradientTransform="matrix(-1, 0, 0, 1, 3844.13, 0)" gradientUnits="userSpaceOnUse"><stop offset="0" stop-color="#fff"/><stop offset="1" stop-color="#77bd4b"/></linearGradient><linearGradient id="linear-gradient-6" x1="3800.39" y1="22.16" x2="3800.39" y2="0" gradientTransform="matrix(-1, 0, 0, 1, 3844.13, 0)" xlink:href="#linear-gradient"/><linearGradient id="linear-gradient-7" x1="3800.38" y1="21.35" x2="3800.38" y2="0.84" gradientTransform="matrix(-1, 0, 0, 1, 3844.13, 0)" xlink:href="#linear-gradient"/></defs><title>fill-cup</title><path class="cls-1" d="M17.68,26.08s-3.39-8.58-9.57-8.63S-1,24.88,6,28.71c8,4.42,14,4,14,4s1.89-1.35,3.36,2.45c1.06,2.72,2.11,7,2.29,7.18.33.38-4.48-3-7-4.08S9.94,35.18,6.76,33.39.67,29.17.13,24.26s.46-8.61,5.09-10.33,10.89,2.55,10.89,2.55a8.56,8.56,0,0,1,1.75,3.94A40.08,40.08,0,0,1,17.68,26.08Z"/><path class="cls-2" d="M17.34,20.93S8.56,12.42,1.46,17.81c0,0,.56-2.52,4.62-3.72s9.35,2.4,9.35,2.4A7.08,7.08,0,0,1,17.34,20.93Z"/><path class="cls-3" d="M14.94,8.08H72.46s1.42,6.45-1.53,17.53S61.07,46.13,55.3,50.92a27.86,27.86,0,0,1-11.17,1.81A27.86,27.86,0,0,1,33,50.92c-5.77-4.79-12.67-14.23-15.63-25.31S14.94,8.08,14.94,8.08Z"/><path class="cls-4" d="M70.92,25.61C68,36.69,61.07,46.13,55.3,50.92a26.65,26.65,0,0,1-8,1.75C62.41,42.3,60.6,11.22,60.6,11.22c6.72-.13,10.12-1.75,11.81-3.14v0S73.88,14.52,70.92,25.61Z"/><path class="cls-5" d="M69.72,13.14,65,14.1s1.8,24.69-13.74,36.2C51.25,50.29,67.7,42.38,69.72,13.14Z"/><path class="cls-6" d="M14.41,10.32c0,6.53,13.13,11.84,29.33,11.84s29.33-5.31,29.33-11.84S57.3.08,44.14,0,14.41,3.78,14.41,10.32Z"/><path class="cls-7" d="M14.74,10.1c0,5.87,13,10.64,29,10.64s29-4.76,29-10.64S57.16.9,44.14.83,14.74,4.23,14.74,10.1Z"/><path class="cls-8" d="M44.31,1.69c17,0,25.87,3.1,28.38,8.34-.92,6-13.6,10.71-29.11,10.71-14.51,0-26.54-4.14-28.79-9.57C15.72,5.21,27.33,1.67,44.31,1.69Z"/><path class="cls-9" d="M42.95,49.23c14.7-.39,20.46-7,26.41-19.76,0,0-.14.85-.5,2.22C65.4,40.09,60,47,55.3,50.92c0,0-3.54,2.92-11.17,3s-11.17-3-11.17-3C28,46.78,22.15,39.17,18.75,30,22.05,35.74,31.28,49.54,42.95,49.23Z"/><path class="cls-9" d="M59.13,32.67s-3,17.62-15.54,17.44-12.33-12-14.36-18.52c0,0,5.91,15.64,14.36,15.1S56.94,38.43,59.13,32.67Z"/><path class="cls-10" d="M29.5,3.14s-17,4.69-13,7.93A31.15,31.15,0,0,1,29.5,3.14Z"/><path class="cls-10" d="M59.73,5s12.35,3,9.62,5A24.6,24.6,0,0,0,59.73,5Z"/></svg>