<svg id="Layer_1" data-name="Layer 1" xmlns="http://www.w3.org/2000/svg" xmlns:xlink="http://www.w3.org/1999/xlink" viewBox="0 0 137.99 139.36"><defs><style>.cls-1{fill:url(#linear-gradient);}.cls-2{fill:url(#linear-gradient-2);}.cls-3{fill:url(#linear-gradient-3);}.cls-4{fill:url(#linear-gradient-4);}.cls-5{fill:#33bcff;}.cls-6{fill:url(#linear-gradient-5);}.cls-7{fill:url(#linear-gradient-6);}.cls-8{fill:url(#linear-gradient-7);}.cls-9{fill:url(#linear-gradient-8);}.cls-10{fill:url(#linear-gradient-9);}.cls-11{fill:#a8e2ff;}</style><linearGradient id="linear-gradient" x1="-500.92" y1="286.52" x2="-500.21" y2="344.91" gradientTransform="matrix(-0.71, -0.71, -0.71, 0.71, -108.41, -549.57)" gradientUnits="userSpaceOnUse"><stop offset="0" stop-color="#77bd4b"/><stop offset="0.2" stop-color="#74b947"/><stop offset="0.4" stop-color="#69ae3b"/><stop offset="0.6" stop-color="#589a28"/><stop offset="0.79" stop-color="#417f0c"/><stop offset="0.81" stop-color="#3e7c09"/></linearGradient><linearGradient id="linear-gradient-2" x1="-483.28" y1="326.3" x2="-504.35" y2="316.5" gradientTransform="matrix(-0.71, -0.71, -0.71, 0.71, -108.41, -549.57)" gradientUnits="userSpaceOnUse"><stop offset="0" stop-color="#f2f9ee"/><stop offset="0.09" stop-color="#e1f1d7"/><stop offset="0.31" stop-color="#bbdea5"/><stop offset="0.52" stop-color="#9ed07e"/><stop offset="0.71" stop-color="#88c662"/><stop offset="0.88" stop-color="#7cbf51"/><stop offset="1" stop-color="#77bd4b"/></linearGradient><linearGradient id="linear-gradient-3" x1="-612.38" y1="286.67" x2="-581.07" y2="286.67" xlink:href="#linear-gradient"/><linearGradient id="linear-gradient-4" x1="-612.38" y1="286.67" x2="-581.07" y2="286.67" xlink:href="#linear-gradient-2"/><linearGradient id="linear-gradient-5" x1="-578.49" y1="330.18" x2="-514.38" y2="330.84" gradientTransform="matrix(-0.71, -0.71, -0.71, 0.71, -108.41, -549.57)" gradientUnits="userSpaceOnUse"><stop offset="0" stop-color="#77bd4b"/><stop offset="0.15" stop-color="#71b644"/><stop offset="0.36" stop-color="#60a330"/><stop offset="0.61" stop-color="#448310"/><stop offset="0.71" stop-color="#387502"/><stop offset="0.79" stop-color="#3d7a08"/><stop offset="0.9" stop-color="#4b8a18"/><stop offset="1" stop-color="#5d9f2d"/></linearGradient><linearGradient id="linear-gradient-6" x1="-571.71" y1="330.97" x2="-561.42" y2="330.97" xlink:href="#linear-gradient-2"/><linearGradient id="linear-gradient-7" x1="-612.71" y1="312.15" x2="-581.82" y2="312.15" xlink:href="#linear-gradient-5"/><linearGradient id="linear-gradient-8" x1="-503.74" y1="286.67" x2="-587.05" y2="286.67" gradientTransform="matrix(0, -1, -1, 0, 361.2, -506.6)" gradientUnits="userSpaceOnUse"><stop offset="0.01" stop-color="#458411"/><stop offset="1" stop-color="#a2d284"/></linearGradient><linearGradient id="linear-gradient-9" x1="-578.82" y1="277.86" x2="-515.83" y2="294.45" gradientTransform="matrix(-0.71, -0.71, -0.71, 0.71, -108.41, -549.57)" gradientUnits="userSpaceOnUse"><stop offset="0.19" stop-color="#3e7c09"/><stop offset="0.21" stop-color="#417f0c"/><stop offset="0.4" stop-color="#589a28"/><stop offset="0.6" stop-color="#69ae3b"/><stop offset="0.8" stop-color="#74b947"/><stop offset="1" stop-color="#77bd4b"/></linearGradient></defs><title>jug-anim-2</title><path class="cls-1" d="M45.16,9.41l-5.28,8.75S25.1-4.36,20.59,22.08c0,0-3.15,27.86-2.28,30.81l-5,7.36S10.16-9.66,34.46,1.13C34.46,1.13,41.41,4.62,45.16,9.41Z"/><path class="cls-2" d="M45.16,9.41l-5.28,8.75S25.1-4.36,20.59,22.08c0,0-3.15,27.86-2.28,30.81l-5,7.36S10.16-9.66,34.46,1.13C34.46,1.13,41.41,4.62,45.16,9.41Z"/><path class="cls-3" d="M103.8,61.28l15.08,27.9L97.57,68.57S97.82,63.8,103.8,61.28Z"/><path class="cls-4" d="M103.8,61.28l15.08,27.9L97.57,68.57S97.82,63.8,103.8,61.28Z"/><path class="cls-5" d="M103.8,61.28l15.08,27.9L97.57,68.57S97.82,63.8,103.8,61.28Z"/><path class="cls-6" d="M45,9.24.56,80.35s-2.19,3.46,2.14,8.26c0,0,11.43,18.36,25.35,24.77,0,0,4,2.95,9.47-1.5l65.79-43Z"/><path class="cls-7" d="M43.73,88.89c15-11.28,28.8-24,42.32-36.95l.43-.41,8.06,8.23q-1.47,1.53-3,3.05c-4,4-8.22,7.73-12.54,11.37a276,276,0,0,1-47.33,32.69q-4,2.15-8.12,4a5.64,5.64,0,0,0-.54-.33,6.6,6.6,0,0,0-.9-.71,39.75,39.75,0,0,1-4.45-3.43l-.54-.58A194,194,0,0,0,43.73,88.89Z"/><path class="cls-8" d="M118.88,89.19,64.27,94.52S81.11,71.05,98.09,68.4Z"/><ellipse class="cls-9" cx="74.53" cy="38.77" rx="9.92" ry="41.77" transform="translate(-5.59 64.06) rotate(-45)"/><path class="cls-10" d="M68.21,45.1C76,52.93,84.13,59.57,91,63.79c7.41,4.56,11.27,5,12.41,3.83s.73-5-3.83-12.41c-4.21-6.84-10.85-14.92-18.69-22.76S64.93,18,58.09,13.76c-7.41-4.56-11.27-5-12.41-3.83s-.73,5,3.83,12.41C53.73,29.18,60.37,37.26,68.21,45.1Z"/><path class="cls-5" d="M116.31,86.51a13.72,13.72,0,0,1,1.08,3.6c.83,4.11,9.67,45.11,10.4,49.25H138c0-.26-1.52-7.64-1.56-7.9-.78-3.55-8.27-36.82-9.26-40.31A165.93,165.93,0,0,0,118.37,71c-2.87-5.84-5.88-11.87-10.93-16s-11.63-5.84-18.1-6.48a64.21,64.21,0,0,0-17,.59c2.17,2.29,5,4.2,7.35,6.37a77.36,77.36,0,0,0,6,4.94c.52.39,1,.8,1.56,1.16a5.56,5.56,0,0,0,1,.39,7.5,7.5,0,0,1,1.09.75l.37.25.55.38a23.48,23.48,0,0,0,2.27,1.43l.79.4.67.3c.2.09.35.2.54.3.44.23.9.41,1.36.61l.43.21,1.31.57a5.24,5.24,0,0,1,1.13.73,5.06,5.06,0,0,1,.51.42c.67.61.92,1.56,1.51,2.15l12.85,12.69A13.73,13.73,0,0,1,116.31,86.51Z"/><path class="cls-11" d="M118.46,81.89c5,4.55,2.76,7.61.51,11.69,4.49-5.1-2.25-10.2-1.1-15.65A21,21,0,0,0,118.46,81.89Z"/><path class="cls-11" d="M125.29,96.11a20.18,20.18,0,0,0,2.25,6.27l.06.1h1c-.52-1.22-1.33-2.37-1.81-3.6a14.24,14.24,0,0,1-.67-2.75,55.11,55.11,0,0,0-1.14-6.37,7.43,7.43,0,0,0,0,3.11A25.82,25.82,0,0,0,125.29,96.11Z"/><path class="cls-11" d="M122.73,102.61h0l0-2.58a4.68,4.68,0,0,0-.11-1.15,2.59,2.59,0,0,0-1.18-1.51,4.18,4.18,0,0,0-1.68-.57c.41,1,1.27,1.46,1.86,2.27A6.25,6.25,0,0,1,122.73,102.61Z"/><path class="cls-11" d="M115.73,77.61l0-3.49a6.77,6.77,0,0,0-.11-1.36,3.06,3.06,0,0,0-1.14-1.8,3.58,3.58,0,0,0-1.63-.68c.4,1.16,1.23,1.74,1.8,2.69A8.73,8.73,0,0,1,115.73,77.61Z"/><path class="cls-11" d="M95.94,58.44a34.46,34.46,0,0,1,17,11.17A13.09,13.09,0,0,0,110.55,64c-1.41-1.61-3.5-2.42-5.51-3.18L97.45,58a18.36,18.36,0,0,0-5.06-1.37,5.77,5.77,0,0,0-3.65.74C90.84,58.13,93.65,57.79,95.94,58.44Z"/><path class="cls-11" d="M102.74,56.61l-4.43-2.75a12.61,12.61,0,0,0-2-1.07A10.79,10.79,0,0,0,94,52.25l-2.75-.42a18.7,18.7,0,0,0-2.82-.29,8.82,8.82,0,0,0-4.58,1.19A29.08,29.08,0,0,1,102.74,56.61Z"/></svg>