<?xml version="1.0" encoding="utf-8"?>
<!-- Generator: Adobe Illustrator 20.1.0, SVG Export Plug-In . SVG Version: 6.00 Build 0)  -->
<svg version="1.1" id="Layer_1" xmlns="http://www.w3.org/2000/svg" xmlns:xlink="http://www.w3.org/1999/xlink" x="0px" y="0px"
	 viewBox="0 0 87 88" style="enable-background:new 0 0 87 88;" xml:space="preserve">
	<g id="tick">
	<path style="fill:#FF9900;" d="M81,5.3c-11,7.8-21.1,17.8-30.2,30.1c-9.2,12-16,23.8-20.2,35.6l-2.4,1.7L22.8,77l-2.1-6.6L19.4,67
		l-7.2-15C10.1,49.3,8,47.8,6,47.6c2.9-2.9,5.5-4.3,7.9-4.3c3.1,0,6.4,4.3,10,12.8l2.2,4.7c6.4-12.1,14.3-23.3,23.7-33.4
		C59.1,16.9,69,8.5,79.3,2L81,5.3"/>
</g>
</svg>