<svg id="Layer_1" data-name="Layer 1" xmlns="http://www.w3.org/2000/svg" viewBox="0 0 42.07 42.07"><defs><style>.cls-1{fill:#73adff;}.cls-2{fill:#00d400;}.cls-3{fill:#fc0;}.cls-4{fill:#f60;}</style></defs><title>10s</title><path class="cls-1" d="M21,39.18A18.15,18.15,0,1,1,39.18,21,18.17,18.17,0,0,1,21,39.18Z"/><path class="cls-2" d="M21,42.07a21,21,0,1,1,21-21A21.06,21.06,0,0,1,21,42.07Z"/><path d="M21,39.82A18.79,18.79,0,1,1,39.82,21,18.81,18.81,0,0,1,21,39.82Z"/><path class="cls-3" d="M21,39.34A18.31,18.31,0,1,1,39.34,21,18.33,18.33,0,0,1,21,39.34Z"/><path class="cls-4" d="M10.27,28.07V16.92H8.81V15.49h3V28.07Z"/><path class="cls-4" d="M16.09,16.35a3.46,3.46,0,0,1,1.28-.9,5,5,0,0,1,2-.34,4.27,4.27,0,0,1,2.07.49A3.3,3.3,0,0,1,22.78,17a10.13,10.13,0,0,1,.87,4.57q0,3.69-1.31,5.23a3.93,3.93,0,0,1-3.14,1.24q-3.77,0-4.34-4.41a18,18,0,0,1-.11-2.06,16.48,16.48,0,0,1,.12-2.06,8.09,8.09,0,0,1,.43-1.76A4.41,4.41,0,0,1,16.09,16.35Zm5.53,1.77A2.24,2.24,0,0,0,20.73,17a2.58,2.58,0,0,0-1.44-.4,3,3,0,0,0-1.37.28,2.27,2.27,0,0,0-.84.73,3.6,3.6,0,0,0-.48,1.14,7.6,7.6,0,0,0-.22,1.35q0,.65,0,1.53t0,1.53a7.58,7.58,0,0,0,.22,1.35,3.59,3.59,0,0,0,.48,1.14,2.26,2.26,0,0,0,.84.73,3,3,0,0,0,2.57,0,2.34,2.34,0,0,0,.85-.73,3.25,3.25,0,0,0,.47-1.15,10.65,10.65,0,0,0,.28-2.57,19,19,0,0,0-.1-2.22A7.26,7.26,0,0,0,21.62,18.12Z"/><path class="cls-4" d="M25.83,21.09a2.58,2.58,0,0,1,1-2.07,4,4,0,0,1,2.64-.84A3.68,3.68,0,0,1,32,19a3.15,3.15,0,0,1,1,2.26H31.38A1.86,1.86,0,0,0,30.83,20a2,2,0,0,0-1.43-.5,2.18,2.18,0,0,0-1.44.43A1.39,1.39,0,0,0,27.44,21,1.18,1.18,0,0,0,28,22.06a4.26,4.26,0,0,0,1.44.54q.84.17,1.68.39a3,3,0,0,1,1.44.83,2.39,2.39,0,0,1,.59,1.74,2.31,2.31,0,0,1-1,1.9,4.28,4.28,0,0,1-2.65.77,4,4,0,0,1-2.61-.82,3,3,0,0,1-1.07-2.25H27.5a1.77,1.77,0,0,0,.58,1.3,2.14,2.14,0,0,0,1.49.49,2.42,2.42,0,0,0,1.49-.41,1.25,1.25,0,0,0,.54-1,1.26,1.26,0,0,0-.43-1A2.35,2.35,0,0,0,30.1,24l-1.39-.34q-.75-.19-1.39-.42a2.26,2.26,0,0,1-1.06-.77A2.19,2.19,0,0,1,25.83,21.09Z"/></svg>