<?xml version="1.0" encoding="utf-8"?>
<!-- Generator: Adobe Illustrator 20.1.0, SVG Export Plug-In . SVG Version: 6.00 Build 0)  -->
<svg version="1.1" id="Layer_1" xmlns="http://www.w3.org/2000/svg" xmlns:xlink="http://www.w3.org/1999/xlink" x="0px" y="0px"
	 viewBox="0 0 90 100" style="enable-background:new 0 0 90 100;" xml:space="preserve">
<g transform="matrix( 1, 0, 0, 1, 0,0) ">
	<g>
		<g id="Layer0_0_FILL">
			<path d="M45,0C32.6,0,22,4.9,13.1,14.7C4.4,24.5,0,36.3,0,50.2C0,64,4.4,75.8,13.1,85.6C20.7,94,29.7,98.8,39.9,100H50
				c10.3-1.2,19.2-6,26.8-14.4C85.6,75.8,90,64,90,50.2c0-13.9-4.4-25.7-13.2-35.5C68,4.9,57.4,0,45,0 M17.9,20.1
				c7.5-8.3,16.5-12.4,27-12.4c10.5-0.1,19.5,4.1,26.9,12.4c7.5,8.3,11.3,18.4,11.3,30.2c0,11.6-3.8,21.6-11.3,30
				c-7.4,8.3-16.4,12.4-26.9,12.4c-10.5,0-19.5-4.1-27-12.4c-7.4-8.4-11.1-18.4-11.1-30C6.8,38.4,10.5,28.3,17.9,20.1 M62.7,40.5
				c-1.7,0-3,0.8-4,2.3c-0.9,1.3-1.4,3-1.4,4.8c0,1.7,0.6,3.1,1.7,4.1C60,52.5,61.3,53,63,53c1,0,2.1-0.2,3-0.7
				c1.1-0.6,1.7-1.3,1.7-2.1c0-0.8-0.4-1.2-1-1.2c-0.4,0-0.8,0.2-1.4,0.6c-0.6,0.4-1.4,0.6-2.3,0.6c-0.6,0-1.1-0.1-1.6-0.3
				c-0.5-0.2-0.9-0.5-1.2-0.9l3.5-1.8c1.1-0.6,1.9-1,2.3-1.3c0.8-0.7,1.2-1.4,1.2-2.3c0-1.2-0.5-2-1.5-2.6
				C64.9,40.7,63.9,40.5,62.7,40.5 M60,46.1c0.2-0.9,0.6-1.6,1.1-2.1c0.4-0.5,1-0.8,1.6-0.8c0.8,0,1.3,0.1,1.8,0.4
				c-0.6,0.4-1.3,0.9-2.2,1.3C61.5,45.4,60.8,45.7,60,46.1 M55.7,34.7c-0.2-0.3-0.6-0.4-1-0.4c-0.8,0-1.2,0.4-1.4,1.3
				c-0.1,1-0.2,2.8-0.3,5.4c-0.3-0.3-0.7-0.5-1.1-0.6c-0.4-0.1-0.8-0.2-1.3-0.2c-1.7,0-3.1,0.6-4.1,1.9c-1,1.2-1.5,2.9-1.5,4.9
				c0,1.7,0.5,3.1,1.5,4.3c1,1.1,2.3,1.6,3.8,1.6c0.6,0,1.1,0,1.6-0.1c0.5-0.1,1-0.3,1.4-0.7c0.2,0.5,0.6,0.8,1.1,0.8
				c0.4,0,0.7-0.1,1-0.4c0.2-0.3,0.4-0.6,0.4-1c0-0.1,0-0.2,0-0.3c-0.2-0.9-0.2-2.8-0.2-5.5c0-1.1,0.1-2.8,0.2-4.9
				c0.2-2.2,0.2-3.9,0.2-5C56,35.4,55.9,35,55.7,34.7 M52,43.5c0.4,0.2,0.6,0.6,0.8,1.1c0,2.4,0,3.8,0,4.2c-0.1,0.1-0.2,0.2-0.3,0.3
				c-0.5,0.4-0.8,0.6-1,0.8C51.3,50,50.9,50,50.3,50c-0.7,0-1.3-0.3-1.9-0.8c-0.6-0.6-0.8-1.3-0.8-2.2c0-1.3,0.2-2.3,0.8-2.9
				c0.5-0.6,1.3-0.9,2.3-0.9C51.1,43.2,51.6,43.3,52,43.5 M40.4,37c0,0.5,0.2,0.9,0.4,1.3s0.7,0.5,1.1,0.5s0.8-0.2,1.1-0.5
				c0.4-0.3,0.5-0.8,0.5-1.3c0-0.4-0.2-0.8-0.5-1.2c-0.3-0.3-0.7-0.5-1.1-0.5s-0.8,0.2-1.1,0.5C40.6,36.2,40.4,36.6,40.4,37
				 M40.3,42c0,0.7,0,1.5-0.2,2.5c0,1.1-0.1,1.9-0.1,2.6c0,0.4,0,1.1,0.1,2.1c0,0.9,0,1.6,0,2.1c0,0.4,0.1,0.8,0.4,1.1
				c0.3,0.3,0.6,0.4,1.1,0.4c0.4,0,0.7-0.1,1-0.4c0.3-0.3,0.4-0.6,0.4-1.1c0-0.4,0-1.1-0.1-2.1c0-0.9,0-1.6,0-2.1
				c0-0.7,0-1.5,0.1-2.6c0.1-1,0.1-1.8,0.1-2.5c0-0.4-0.1-0.8-0.4-1.1c-0.2-0.3-0.6-0.4-1-0.4c-0.4,0-0.8,0.1-1,0.4
				C40.4,41.2,40.3,41.6,40.3,42 M36.7,34.5c-0.2-0.2-0.6-0.3-1-0.3c-0.4,0-0.7,0.1-1,0.3c-0.3,0.3-0.5,0.6-0.5,1.1v15.8
				c0,0.4,0.2,0.8,0.5,1.2c0.3,0.3,0.6,0.4,1,0.4c0.9,0,1.4-0.7,1.4-2.2V35.6C37.1,35.1,36.9,34.8,36.7,34.5 M39,13.4
				c-0.2-0.2-0.6-0.3-1-0.3c-0.4,0-0.8,0.1-1.1,0.3c-0.3,0.3-0.4,0.6-0.4,1.1v15.8c0,0.4,0.1,0.8,0.4,1.2c0.2,0.3,0.6,0.4,1,0.4
				c0.9,0,1.4-0.7,1.4-2.2V14.5C39.4,14,39.2,13.6,39,13.4 M45,19.8c-0.2-0.3-0.6-0.4-1-0.4c-0.4,0-0.8,0.1-1.1,0.4
				c-0.3,0.3-0.4,0.6-0.4,1.1c0,0.7,0,1.5-0.2,2.5c0,1.1-0.1,1.9-0.1,2.6c0,0.4,0,1.1,0.1,2.1c0,0.9,0,1.6,0,2.1
				c0,0.4,0.1,0.8,0.4,1.1c0.3,0.3,0.7,0.4,1.1,0.4s0.7-0.1,1-0.4c0.3-0.3,0.5-0.6,0.5-1.1c0-0.4,0-1.1-0.1-2.1c0-0.9,0-1.6,0-2.1
				c0-0.7,0-1.5,0.1-2.6c0-1,0.1-1.8,0.1-2.5C45.4,20.4,45.2,20.1,45,19.8 M49.2,18.8c-0.5,0-0.9,0.3-1.2,0.8
				c-0.2,0.4-0.4,1-0.4,1.6l0.2,2.3c0,1.2,0.1,2.6,0.2,4.3c0,1.2,0,2.7,0,4.5c-0.1,2.5-0.1,3.9-0.1,4.3c0,0.4,0.2,0.8,0.5,1.1
				c0.2,0.3,0.6,0.4,1,0.4c0.4,0,0.8-0.1,1-0.4c0.2-0.3,0.4-0.6,0.4-1.1v-4.7c0.7,0.2,1.3,0.3,1.9,0.3c1.6,0,2.8-0.6,3.7-1.8
				c0.9-1.1,1.3-2.5,1.3-4.2c0-1.8-0.3-3.2-0.8-4.3c-0.7-1.5-1.8-2.3-3.4-2.3c-0.5,0-1,0.1-1.4,0.3c-0.4,0.2-0.9,0.4-1.3,0.7v-0.2
				c0-0.4-0.1-0.7-0.4-1C49.9,18.9,49.5,18.8,49.2,18.8 M52,22.9c0.4-0.2,0.9-0.3,1.3-0.3c0.7,0,1.1,0.5,1.3,1.4
				c0.1,0.4,0.2,1.1,0.2,2.1c0,0.9-0.2,1.6-0.5,2.1c-0.4,0.6-0.9,0.8-1.7,0.8c-0.6,0-1.2-0.1-1.8-0.3c0-1.6,0-3.2-0.2-4.8
				C51.1,23.4,51.5,23.1,52,22.9 M45.4,14.7c-0.3-0.3-0.7-0.5-1.1-0.5c-0.4,0-0.8,0.2-1.1,0.5c-0.3,0.3-0.4,0.7-0.4,1.2
				c0,0.5,0.2,0.9,0.4,1.3c0.3,0.3,0.7,0.5,1.1,0.5c0.5,0,0.8-0.2,1.1-0.5c0.4-0.3,0.5-0.8,0.5-1.3C46,15.4,45.8,15,45.4,14.7
				 M25.9,19.9c-0.6,0.2-1,0.7-1,1.4c0,0.4,0.1,0.8,0.4,1.1c0.3,0.3,0.6,0.4,1,0.4c0.2,0,0.4,0,0.6-0.1c0.3-0.1,0.6-0.1,0.7-0.1v5.7
				c0,1-0.1,2-0.2,3.1c0,0.1-0.1,0.2-0.1,0.3c0,0.4,0.2,0.7,0.4,1c0.3,0.3,0.6,0.4,1,0.4c0.8,0,1.2-0.4,1.4-1.3
				c0.1-0.8,0.2-1.9,0.2-3.3c0-0.3,0-1.3-0.1-3.1c0-1.3,0-2.3,0-3.1c0.9-0.1,1.5-0.1,1.9-0.1c1.4,0,2.1-0.5,2.1-1.5
				c0-0.9-0.6-1.4-1.9-1.4c-0.4,0-1.1,0.1-2,0.2v-0.3c0.1-1.1,0.3-1.8,0.6-2.3c0.3-0.7,0.9-1,1.8-1c1.1,0,1.7-0.5,1.7-1.5
				S33.9,13,32.7,13c-1.7,0-2.9,0.5-3.7,1.6c-0.6,0.8-1,2.1-1.2,3.8c-0.1,0.7-0.1,1.2-0.1,1.3C26.8,19.7,26.2,19.8,25.9,19.9
				 M25.8,40.8c-1.5,0.5-2.2,1.5-2.2,3.1c0,1.1,0.5,2,1.4,2.8c0.4,0.3,1.3,0.8,2.7,1.5c1,0.4,1.5,0.9,1.5,1.3c0,0.6-0.7,0.9-2.1,0.9
				c-0.4,0-0.8-0.1-1.3-0.3c-0.6-0.2-1.1-0.3-1.4-0.3c-0.8,0-1.2,0.4-1.2,1.2c0,0.8,0.5,1.5,1.6,1.9c0.8,0.3,1.6,0.4,2.5,0.4
				c1.3,0,2.4-0.3,3.2-0.8c1.1-0.7,1.7-1.6,1.7-2.9c0-1-0.5-1.9-1.5-2.8c-0.4-0.4-1.3-0.9-2.7-1.6c-1-0.5-1.5-0.9-1.5-1.2
				c0-0.5,0.8-0.8,2.5-0.8c0.2,0,0.5,0,0.8,0.1c0.2,0.6,0.6,0.9,1.2,0.9c0.6,0,1-0.7,1-2.1c0-0.7-0.2-1.2-0.7-1.4
				c-0.3-0.2-0.8-0.3-1.5-0.3C27.9,40.3,26.6,40.4,25.8,40.8z"/>
			<path style="fill:#FFFFFF;" d="M44.9,7.7c-10.5-0.1-19.5,4.1-27,12.4C10.5,28.3,6.8,38.4,6.8,50.2c0,11.6,3.7,21.6,11.1,30
				c7.5,8.3,16.5,12.4,27,12.4c10.5,0,19.5-4.1,26.9-12.4c7.5-8.4,11.3-18.4,11.3-30c0-11.8-3.8-21.9-11.3-30.2
				C64.5,11.8,55.5,7.6,44.9,7.7 M23.6,43.9c0-1.6,0.7-2.6,2.2-3.1c0.8-0.3,2.1-0.5,3.9-0.5c0.7,0,1.2,0.1,1.5,0.3
				c0.5,0.2,0.7,0.7,0.7,1.4c0,1.4-0.3,2.1-1,2.1c-0.7,0-1.1-0.3-1.2-0.9c-0.3-0.1-0.6-0.1-0.8-0.1c-1.7,0-2.5,0.3-2.5,0.8
				c0,0.3,0.5,0.7,1.5,1.2c1.3,0.7,2.3,1.2,2.7,1.6c1,0.8,1.5,1.8,1.5,2.8c0,1.3-0.6,2.3-1.7,2.9c-0.8,0.6-1.9,0.8-3.2,0.8
				c-0.9,0-1.7-0.1-2.5-0.4c-1-0.4-1.6-1.1-1.6-1.9c0-0.8,0.4-1.2,1.2-1.2c0.4,0,0.8,0.1,1.4,0.3c0.6,0.2,1,0.3,1.3,0.3
				c1.4,0,2.1-0.3,2.1-0.9c0-0.4-0.5-0.8-1.5-1.3c-1.4-0.7-2.3-1.2-2.7-1.5C24.1,45.8,23.6,44.9,23.6,43.9 M24.9,21.3
				c0-0.7,0.3-1.2,1-1.4c0.3-0.1,0.9-0.2,1.8-0.2c0-0.2,0-0.6,0.1-1.3c0.2-1.7,0.6-2.9,1.2-3.8c0.8-1.1,2-1.6,3.7-1.6
				c1.3,0,1.9,0.5,1.9,1.5S34,16,32.8,16c-0.8,0-1.5,0.3-1.8,1c-0.3,0.4-0.5,1.2-0.6,2.3v0.3c0.9-0.1,1.6-0.2,2-0.2
				c1.3,0,1.9,0.5,1.9,1.4c0,1-0.7,1.5-2.1,1.5c-0.4-0.1-1,0-1.9,0.1c0,0.8,0,1.8,0,3.1c0,1.8,0.1,2.8,0.1,3.1
				c0,1.4-0.1,2.5-0.2,3.3c-0.2,0.8-0.7,1.3-1.4,1.3c-0.4,0-0.7-0.1-1-0.4c-0.3-0.3-0.4-0.6-0.4-1c0-0.1,0-0.2,0.1-0.3
				c0.2-1.1,0.2-2.1,0.2-3.1v-5.7c-0.1,0-0.3,0-0.7,0.1c-0.2,0.1-0.5,0.1-0.6,0.1c-0.4,0-0.7-0.1-1-0.4C25,22.1,24.9,21.7,24.9,21.3
				 M44.3,14.2c0.5,0,0.8,0.2,1.1,0.5c0.4,0.3,0.5,0.7,0.5,1.2c0,0.5-0.2,0.9-0.5,1.3c-0.3,0.3-0.7,0.5-1.1,0.5
				c-0.4,0-0.8-0.2-1.1-0.5c-0.3-0.3-0.4-0.8-0.4-1.3c0-0.4,0.2-0.8,0.4-1.2C43.5,14.4,43.9,14.2,44.3,14.2 M48,19.5
				c0.3-0.5,0.7-0.8,1.2-0.8c0.4,0,0.7,0.1,1,0.4c0.2,0.3,0.4,0.6,0.4,1v0.2c0.4-0.3,0.9-0.5,1.3-0.7c0.4-0.2,0.9-0.3,1.4-0.3
				c1.6,0,2.7,0.8,3.4,2.3c0.6,1.1,0.8,2.6,0.8,4.3c0,1.7-0.4,3.1-1.3,4.2c-0.9,1.2-2.1,1.8-3.7,1.8c-0.6,0-1.2-0.1-1.9-0.3v4.7
				c0,0.4-0.1,0.8-0.4,1.1c-0.2,0.3-0.6,0.4-1,0.4c-0.4,0-0.7-0.1-1-0.4c-0.3-0.3-0.5-0.6-0.5-1.1c0-0.3,0-1.8,0.1-4.3
				c0-1.8,0-3.3,0-4.5c-0.1-1.6-0.1-3-0.2-4.3l-0.2-2.3C47.6,20.5,47.8,20,48,19.5 M44,19.4c0.4,0,0.7,0.1,1,0.4
				c0.2,0.3,0.4,0.6,0.4,1.1c0,0.7,0,1.5-0.1,2.5c-0.1,1.1-0.1,1.9-0.1,2.6c0,0.4,0,1.1,0,2.1c0.1,0.9,0.1,1.6,0.1,2.1
				c0,0.4-0.2,0.8-0.5,1.1c-0.3,0.3-0.6,0.4-1,0.4s-0.8-0.1-1.1-0.4c-0.2-0.3-0.4-0.6-0.4-1.1c0-0.4,0-1.1,0-2.1
				c0-0.9-0.1-1.6-0.1-2.1c0-0.7,0-1.5,0.1-2.6c0.1-1,0.2-1.8,0.2-2.5c0-0.4,0.1-0.8,0.4-1.1C43.2,19.5,43.6,19.4,44,19.4 M38,13
				c0.4,0,0.7,0.1,1,0.3c0.2,0.3,0.4,0.6,0.4,1.1v15.2c0,1.4-0.5,2.2-1.4,2.2c-0.4,0-0.7-0.1-1-0.4c-0.3-0.3-0.4-0.7-0.4-1.2V14.5
				c0-0.4,0.1-0.8,0.4-1.1C37.3,13.1,37.6,13,38,13 M35.7,34.2c0.4,0,0.7,0.1,1,0.3c0.2,0.3,0.4,0.6,0.4,1.1v15.2
				c0,1.4-0.5,2.2-1.4,2.2c-0.4,0-0.7-0.1-1-0.4c-0.3-0.3-0.5-0.7-0.5-1.2V35.6c0-0.4,0.2-0.8,0.5-1.1C35,34.3,35.3,34.2,35.7,34.2
				 M40.1,44.5c0.1-1,0.2-1.8,0.2-2.5c0-0.4,0.1-0.8,0.4-1.1c0.3-0.3,0.6-0.4,1-0.4c0.4,0,0.7,0.1,1,0.4c0.2,0.3,0.4,0.6,0.4,1.1
				c0,0.7,0,1.5-0.1,2.5c0,1.1-0.1,1.9-0.1,2.6c0,0.4,0,1.1,0,2.1c0,0.9,0.1,1.6,0.1,2.1c0,0.4-0.1,0.8-0.4,1.1
				c-0.2,0.3-0.6,0.4-1,0.4c-0.4,0-0.8-0.1-1.1-0.4c-0.2-0.3-0.4-0.6-0.4-1.1c0-0.4,0-1.1,0-2.1c0-0.9-0.1-1.6-0.1-2.1
				C40.1,46.4,40.1,45.6,40.1,44.5 M40.9,38.3c-0.3-0.3-0.4-0.8-0.4-1.3c0-0.4,0.2-0.8,0.4-1.2c0.3-0.3,0.7-0.5,1.1-0.5
				s0.8,0.2,1.1,0.5c0.4,0.3,0.5,0.7,0.5,1.2c0,0.5-0.2,0.9-0.5,1.3c-0.3,0.3-0.7,0.5-1.1,0.5S41.2,38.6,40.9,38.3 M54.7,34.3
				c0.4,0,0.7,0.1,1,0.4c0.3,0.3,0.4,0.7,0.4,1.1c0,1.1-0.1,2.8-0.2,5c-0.2,2.2-0.2,3.8-0.2,4.9c0,2.7,0.1,4.6,0.2,5.5
				c0,0.1,0,0.2,0,0.3c0,0.4-0.1,0.7-0.4,1c-0.3,0.3-0.6,0.4-1,0.4c-0.5,0-0.9-0.3-1.1-0.8c-0.4,0.3-0.9,0.6-1.4,0.7
				c-0.5,0.1-1,0.1-1.6,0.1c-1.5,0-2.8-0.5-3.8-1.6c-1-1.1-1.5-2.5-1.5-4.3c0-2.1,0.5-3.7,1.5-4.9c1-1.3,2.4-1.9,4.1-1.9
				c0.5,0,0.9,0.1,1.3,0.2c0.4,0.1,0.8,0.3,1.1,0.6c0.1-2.6,0.2-4.4,0.3-5.4C53.5,34.7,53.9,34.3,54.7,34.3 M58.7,42.8
				c1-1.5,2.3-2.3,4-2.3c1.2,0,2.2,0.2,3,0.7c1,0.6,1.5,1.4,1.5,2.6c0,0.8-0.4,1.6-1.2,2.3c-0.4,0.3-1.2,0.7-2.3,1.3L60.2,49
				c0.3,0.4,0.7,0.7,1.2,0.9c0.4,0.2,1,0.3,1.6,0.3c0.9,0,1.7-0.2,2.3-0.6c0.6-0.4,1-0.6,1.4-0.6c0.7,0,1,0.4,1,1.2
				c0,0.8-0.6,1.5-1.7,2.1c-0.9,0.4-2,0.7-3,0.7c-1.7,0-3-0.4-4.1-1.3c-1.1-1-1.7-2.4-1.7-4.1C57.2,45.7,57.7,44.1,58.7,42.8
				 M42.5,89.9L17.3,74.8l24.6-16.1L42.5,89.9 M47.5,89.9l0.6-31.2l24.6,16.1L47.5,89.9 M61.1,44c-0.5,0.4-0.8,1.1-1.1,2.1
				c0.8-0.4,1.5-0.8,2.3-1.1c0.9-0.4,1.6-0.9,2.2-1.3c-0.5-0.3-1.1-0.4-1.8-0.4C62.1,43.3,61.5,43.5,61.1,44 M52.8,44.6
				c-0.2-0.5-0.5-0.9-0.8-1.1c-0.4-0.2-0.8-0.3-1.3-0.3c-1,0-1.7,0.3-2.3,0.9c-0.5,0.7-0.8,1.6-0.8,2.9c0,0.8,0.3,1.6,0.8,2.2
				c0.6,0.6,1.2,0.8,1.9,0.8c0.6,0,1-0.1,1.2-0.2c0.2-0.1,0.5-0.4,1-0.8c0.1-0.1,0.2-0.2,0.3-0.3C52.8,48.4,52.8,47,52.8,44.6
				 M53.3,22.6c-0.4,0-0.9,0.1-1.3,0.3s-0.9,0.6-1.3,1c0.1,1.6,0.2,3.1,0.2,4.8c0.6,0.2,1.2,0.3,1.8,0.3c0.7,0,1.3-0.3,1.7-0.8
				c0.4-0.5,0.5-1.2,0.5-2.1c0-1,0-1.7-0.2-2.1C54.4,23,54,22.6,53.3,22.6z"/>
			<path style="fill:#0099FF;" d="M48.1,58.6l-0.6,31.2l25.2-15.1L48.1,58.6 M17.3,74.8l25.2,15.1l-0.6-31.2L17.3,74.8z"/>
		</g>
	</g>
</g>
</svg>
