<?xml version="1.0" encoding="utf-8"?>
<!-- Generator: Adobe Illustrator 20.1.0, SVG Export Plug-In . SVG Version: 6.00 Build 0)  -->
<svg version="1.1" id="Layer_1" xmlns="http://www.w3.org/2000/svg" xmlns:xlink="http://www.w3.org/1999/xlink" x="0px" y="0px"
	 viewBox="0 0 90 100" style="enable-background:new 0 0 90 100;" xml:space="preserve">
<g transform="matrix( 1, 0, 0, 1, 0,0) ">
	<g>
		<g id="Layer0_0_FILL">
			<path style="fill:#FFFFFF;" d="M46.4,92.2v-2.6L45,92.2C45.5,92.2,45.9,92.2,46.4,92.2 M34.9,15.7c-6.3,1.7-12,5-17,10.1
				C10.5,33.4,6.8,42.6,6.8,53.4c0,10.7,3.7,19.8,11.1,27.4c0.3,0.3,0.6,0.6,0.9,0.9l7.4-13.2l16.1-0.1l4.1,7.3v-7.2h28.6v8.6
				c5.4-6.8,8-14.8,8-23.8c0-10.8-3.8-20-11.3-27.6c-2.4-2.5-5.1-4.6-7.9-6.3l-1.4,11.8c0.3-0.1,0.6-0.1,1-0.1
				c0.7,0,1.2,0.1,1.5,0.3c0.4,0.2,0.7,0.6,0.7,1.3c0,1.3-0.3,1.9-1,1.9c-0.7,0-1.1-0.3-1.2-0.8c-0.3-0.1-0.6-0.1-0.8-0.1
				c-1.7,0-2.5,0.2-2.5,0.7c0,0.3,0.5,0.6,1.5,1.1c1.3,0.6,2.2,1.1,2.7,1.5c1,0.8,1.5,1.6,1.5,2.5c0,1.2-0.6,2.1-1.7,2.7
				c-0.8,0.5-1.9,0.8-3.2,0.8c-0.9,0-1.7-0.1-2.5-0.4c-1.1-0.4-1.6-1-1.6-1.8c0-0.7,0.4-1.1,1.2-1.1c0.4,0,0.8,0.1,1.4,0.3
				c0.6,0.2,1,0.3,1.4,0.3c1.4,0,2.1-0.3,2.1-0.8c0-0.4-0.5-0.7-1.5-1.1c-1.4-0.7-2.3-1.1-2.7-1.4c-0.9-0.7-1.4-1.6-1.4-2.5
				c0-1.4,0.7-2.4,2.2-2.8c0.2-0.1,0.4-0.1,0.7-0.2L34.9,15.7 M23.5,31.2c0.7,0,1.2,0.1,1.5,0.3c0.4,0.2,0.7,0.6,0.7,1.3
				c0,1.3-0.3,1.9-1,1.9c-0.7,0-1.1-0.3-1.2-0.8c-0.3-0.1-0.6-0.1-0.8-0.1c-1.7,0-2.5,0.2-2.5,0.7c0,0.3,0.5,0.6,1.5,1.1
				c1.3,0.6,2.2,1.1,2.7,1.5c1,0.8,1.5,1.6,1.5,2.5c0,1.2-0.6,2.1-1.7,2.7C23.4,42.7,22.3,43,21,43c-0.9,0-1.7-0.1-2.5-0.4
				c-1.1-0.4-1.6-1-1.6-1.8c0-0.7,0.4-1.1,1.2-1.1c0.4,0,0.8,0.1,1.4,0.3c0.6,0.2,1,0.3,1.4,0.3c1.4,0,2.1-0.3,2.1-0.8
				c0-0.4-0.5-0.7-1.5-1.1c-1.4-0.7-2.3-1.1-2.7-1.4c-0.9-0.7-1.4-1.6-1.4-2.5c0-1.4,0.7-2.4,2.2-2.8C20.4,31.3,21.7,31.2,23.5,31.2
				 M42.7,25.7c0.4,0,0.7,0.1,1,0.4c0.3,0.3,0.4,0.6,0.4,1c0,1-0.1,2.5-0.2,4.6c-0.2,2-0.2,3.5-0.2,4.5c0,2.5,0.1,4.2,0.2,5
				c0,0.1,0,0.2,0,0.3c0,0.4-0.1,0.7-0.4,0.9c-0.3,0.3-0.6,0.4-1,0.4c-0.5,0-0.9-0.2-1.1-0.7c-0.4,0.3-0.9,0.5-1.4,0.6
				c-0.5,0.1-1,0.1-1.6,0.1c-1.5,0-2.8-0.5-3.8-1.5c-1-1-1.5-2.3-1.5-3.9c0-1.9,0.5-3.4,1.5-4.5c1-1.2,2.4-1.8,4.1-1.8
				c0.5,0,0.9,0.1,1.3,0.2c0.4,0.1,0.8,0.3,1.1,0.5c0.1-2.4,0.2-4.1,0.3-5C41.5,26.1,41.9,25.7,42.7,25.7 M28.9,27.1
				c0.3-0.3,0.7-0.5,1.1-0.5s0.8,0.2,1.1,0.5c0.4,0.3,0.5,0.7,0.5,1.1c0,0.5-0.2,0.8-0.5,1.1c-0.3,0.3-0.7,0.5-1.1,0.5
				s-0.8-0.2-1.1-0.5c-0.3-0.3-0.4-0.7-0.4-1.1C28.4,27.8,28.6,27.4,28.9,27.1 M28.7,31.8c0.3-0.3,0.6-0.4,1-0.4
				c0.4,0,0.7,0.1,1,0.4c0.2,0.3,0.4,0.6,0.4,1c0,0.6,0,1.4-0.1,2.3c0,1-0.1,1.8-0.1,2.4c0,0.4,0,1,0,1.9c0,0.9,0.1,1.5,0.1,1.9
				c0,0.4-0.1,0.7-0.4,1c-0.2,0.3-0.6,0.4-1,0.4c-0.4,0-0.8-0.1-1.1-0.4c-0.2-0.3-0.4-0.6-0.4-1c0-0.4,0-1,0-1.9
				c0-0.9-0.1-1.5-0.1-1.9c0-0.6,0-1.4,0.1-2.4c0.1-0.9,0.2-1.7,0.2-2.3C28.3,32.4,28.4,32.1,28.7,31.8 M53.7,32
				c1,0.5,1.5,1.3,1.5,2.4c0,0.8-0.4,1.5-1.2,2.1c-0.4,0.3-1.2,0.6-2.3,1.1l-3.5,1.6c0.3,0.4,0.7,0.6,1.2,0.8c0.4,0.2,1,0.2,1.6,0.2
				c0.9,0,1.7-0.2,2.3-0.5c0.6-0.4,1-0.5,1.4-0.5c0.7,0,1,0.4,1,1.1c0,0.8-0.6,1.4-1.7,1.9c-0.9,0.4-2,0.6-3,0.6
				c-1.7,0-3-0.4-4.1-1.1c-1.1-0.9-1.7-2.2-1.7-3.7c0-1.7,0.5-3.2,1.4-4.4c1-1.4,2.3-2.1,4-2.1C51.9,31.4,52.9,31.6,53.7,32
				 M81.5,52.7c0,1.3-0.3,1.9-1,1.9c-0.7,0-1.1-0.3-1.2-0.8c-0.3-0.1-0.6-0.1-0.8-0.1c-1.7,0-2.5,0.2-2.5,0.7c0,0.3,0.5,0.6,1.5,1.1
				c1.3,0.6,2.2,1.1,2.7,1.5c1,0.8,1.5,1.6,1.5,2.5c0,1.2-0.6,2.1-1.7,2.7c-0.8,0.5-1.9,0.8-3.2,0.8c-0.9,0-1.7-0.1-2.5-0.4
				c-1.1-0.4-1.6-1-1.6-1.8c0-0.7,0.4-1.1,1.2-1.1c0.4,0,0.8,0.1,1.4,0.3c0.6,0.2,1,0.3,1.4,0.3c1.4,0,2.1-0.3,2.1-0.8
				c0-0.4-0.5-0.7-1.5-1.1c-1.4-0.7-2.3-1.1-2.7-1.4c-0.9-0.7-1.4-1.6-1.4-2.5c0-1.4,0.7-2.4,2.2-2.8c0.9-0.3,2.1-0.5,3.9-0.5
				c0.7,0,1.2,0.1,1.5,0.3C81.3,51.6,81.5,52,81.5,52.7 M71.8,54c0,0.4,0,0.6,0,0.7c-0.1,1.1-0.6,1.6-1.4,1.6
				c-0.9,0-1.4-0.4-1.4-1.3v-1.1c-1.5,0.3-2.6,1-3.3,2.4v5.3c0,0.4-0.2,0.7-0.5,1c-0.2,0.3-0.6,0.4-1,0.4c-0.4,0-0.8-0.1-1-0.4
				c-0.2-0.3-0.4-0.6-0.4-1v-6.8c0-0.3,0-0.6,0.1-1c0-0.4,0-0.7,0-1c0-0.4,0.1-0.7,0.4-0.9c0.2-0.3,0.5-0.5,1-0.5
				c0.8,0,1.2,0.4,1.3,1.2c1.2-0.9,2.5-1.4,4-1.4C71.1,51.2,71.8,52.1,71.8,54 M60.8,54.3c0,0.8-0.4,1.5-1.2,2.1
				c-0.4,0.3-1.2,0.6-2.3,1.1l-3.5,1.6c0.3,0.4,0.7,0.6,1.2,0.8c0.4,0.2,1,0.2,1.6,0.2c0.9,0,1.7-0.2,2.3-0.5c0.6-0.4,1-0.5,1.4-0.5
				c0.7,0,1,0.4,1,1.1c0,0.8-0.6,1.4-1.7,1.9c-0.9,0.4-2,0.6-3,0.6c-1.7,0-3-0.4-4.1-1.1c-1.1-0.9-1.7-2.2-1.7-3.7
				c0-1.7,0.5-3.2,1.4-4.4c1-1.4,2.3-2.1,4-2.1c1.2,0,2.2,0.2,3,0.6C60.3,52.4,60.8,53.2,60.8,54.3 M46.3,51.1
				c1.3,0,2.2,0.5,2.6,1.6c0.4,0.8,0.5,1.9,0.5,3.4v0.7c0,0.4,0,0.6,0,0.7c0,0.6,0.1,1.3,0.2,2.1c0.2,0.8,0.2,1.5,0.2,2.1
				c0,0.4-0.2,0.7-0.4,1c-0.2,0.3-0.6,0.4-1,0.4c-0.9,0-1.3-0.4-1.4-1.3c-0.1-0.7-0.2-1.4-0.3-2.1c-0.1-0.8-0.2-1.5-0.2-2.1
				c0-0.2,0-0.5,0.1-1c0-0.4,0-0.7,0-0.9c0-0.1,0-0.2,0-0.4c0.1-0.2,0.1-0.4,0.1-0.5c0-0.6-0.2-0.8-0.5-0.8c-0.6,0-1.2,0.4-1.7,1.1
				c-0.6,0.8-1,1.7-1.3,2.9c0,0.3-0.1,0.6-0.2,0.9c0,0.4,0,0.7,0,1c0,0.2,0,0.4-0.1,0.8c0,0.4-0.1,0.7-0.1,0.9
				c0,0.4-0.2,0.8-0.5,1.1c-0.3,0.3-0.6,0.4-1,0.4s-0.8-0.1-1.1-0.4c-0.2-0.3-0.4-0.7-0.4-1.1c0-0.2,0-0.5-0.1-0.8
				c0-0.4-0.1-0.7-0.1-0.9c0-0.7,0-1.7,0.1-2.8c0.1-1.2,0.2-2.2,0.2-2.9c0-0.2,0-0.5,0-0.9c0-0.4-0.1-0.7-0.1-0.9
				c0-0.4,0.1-0.7,0.4-1c0.2-0.3,0.6-0.4,1-0.4c0.9,0,1.4,0.5,1.4,1.6l0.1,0.2C44.2,51.6,45.2,51.1,46.3,51.1 M37.5,56.3
				c-0.9,0-1.3-0.4-1.3-1.3v-1.1c-1.6,0.3-2.6,1-3.3,2.4v5.3c0,0.4-0.1,0.7-0.4,1c-0.2,0.3-0.6,0.4-1,0.4c-0.5,0-0.8-0.1-1-0.4
				c-0.2-0.3-0.4-0.6-0.4-1v-6.8c0-0.3,0-0.6,0.1-1c0-0.4,0-0.7,0-1c0-0.4,0.1-0.7,0.4-0.9c0.2-0.3,0.5-0.5,1-0.5
				c0.8,0,1.2,0.4,1.3,1.2c1.2-0.9,2.5-1.4,4-1.4c1.4,0,2.1,0.9,2.1,2.8c0,0.4,0,0.6,0,0.7C38.8,55.7,38.4,56.3,37.5,56.3
				 M28.6,56.8c0,1.6-0.4,3-1.3,4.1c-0.9,1.3-2.2,1.9-3.8,1.9c-1.3,0-2.3-0.4-3.2-1.3c-1-1-1.5-2.3-1.6-3.9
				c-0.1-1.5,0.3-2.9,1.2-4.1c1-1.4,2.5-2.1,4.3-2.1c1.4,0,2.5,0.6,3.3,1.7C28.2,54.1,28.6,55.3,28.6,56.8 M16,54.7
				c-0.3,0-0.6-0.2-1-0.5c-0.4-0.3-1-0.5-1.9-0.5c-0.5,0-1.1,0.5-1.7,1.5c-0.6,1-0.9,1.9-0.9,2.7c0,0.7,0.3,1.3,0.8,1.8
				c0.5,0.4,1.1,0.5,2,0.5c0.4,0,1-0.2,1.6-0.5c0.7-0.4,1.1-0.5,1.3-0.5c0.4,0,0.7,0.2,1,0.5c0.2,0.3,0.4,0.6,0.4,0.9
				c0,0.6-0.6,1.1-1.7,1.6c-1,0.5-1.9,0.8-2.5,0.8c-1.5,0-2.8-0.4-3.8-1.3c-1-1-1.6-2.2-1.6-3.7c0-1.4,0.5-2.8,1.4-4.3
				c1.1-1.7,2.4-2.5,3.8-2.5c0.7,0,1.5,0.2,2.5,0.5c1.1,0.5,1.7,1.1,1.7,1.7c0,0.4-0.1,0.7-0.3,0.9C16.7,54.6,16.4,54.7,16,54.7
				 M24.1,54.1c-0.8,0-1.4,0.4-1.9,1.2c-0.4,0.7-0.6,1.4-0.6,2.3c0,0.8,0.2,1.5,0.7,1.9c0.4,0.4,0.8,0.5,1.3,0.5
				c0.6,0,1.1-0.2,1.6-0.6c0.5-0.5,0.8-1.1,0.8-2C25.9,55.2,25.3,54.1,24.1,54.1 M56.3,53.8c-0.6,0-1.2,0.2-1.6,0.7
				c-0.5,0.4-0.8,1-1.1,1.9c0.8-0.4,1.5-0.7,2.3-1c0.9-0.4,1.6-0.8,2.2-1.2C57.7,54,57.1,53.8,56.3,53.8 M52.5,34.3
				c-0.5-0.3-1.1-0.4-1.8-0.4c-0.6,0-1.2,0.2-1.6,0.7c-0.5,0.4-0.8,1-1.1,1.9c0.8-0.4,1.5-0.7,2.3-1C51.2,35.1,51.9,34.7,52.5,34.3
				 M40.8,35.2c-0.2-0.5-0.5-0.8-0.8-1c-0.4-0.2-0.8-0.3-1.3-0.3c-1,0-1.7,0.3-2.3,0.8c-0.5,0.6-0.8,1.5-0.8,2.7
				c0,0.8,0.3,1.4,0.8,2c0.6,0.5,1.2,0.8,1.9,0.8c0.6,0,1-0.1,1.2-0.2c0.2-0.1,0.5-0.3,1-0.7c0.1-0.1,0.2-0.2,0.3-0.3
				C40.8,38.6,40.8,37.4,40.8,35.2z"/>
			<path d="M46.4,98.9v-6.7c-0.5,0-1,0-1.4,0l-2.6,4.6l-12,0.1c3,1,6.2,1.7,9.5,2.1H46.4 M65.8,32.8c0-0.7-0.2-1.1-0.7-1.3
				c-0.3-0.2-0.8-0.3-1.5-0.3c-0.4,0-0.8,0-1,0.1l-0.2,1.5l-1.9-1.2c-0.2,0.1-0.5,0.1-0.7,0.2c-1.4,0.5-2.2,1.4-2.2,2.8
				c0,1,0.5,1.8,1.4,2.5c0.4,0.3,1.3,0.7,2.7,1.4c1,0.4,1.5,0.8,1.5,1.1c0,0.6-0.7,0.8-2.1,0.8c-0.4,0-0.8-0.1-1.4-0.3
				c-0.6-0.2-1.1-0.3-1.4-0.3c-0.8,0-1.2,0.4-1.2,1.1c0,0.8,0.5,1.4,1.6,1.8c0.8,0.3,1.6,0.4,2.5,0.4c1.3,0,2.4-0.3,3.2-0.8
				c1.1-0.6,1.7-1.5,1.7-2.7c0-0.9-0.5-1.8-1.5-2.5c-0.5-0.4-1.3-0.8-2.7-1.5c-1-0.5-1.5-0.8-1.5-1.1c0-0.5,0.8-0.7,2.5-0.7
				c0.3,0,0.5,0,0.8,0.1c0.2,0.6,0.6,0.8,1.2,0.8C65.4,34.7,65.8,34.1,65.8,32.8 M64,19.5c2.8,1.6,5.4,3.7,7.9,6.3
				c7.5,7.6,11.3,16.8,11.3,27.6c0,9-2.7,16.9-8,23.8v10.3c0.6-0.6,1.2-1.1,1.7-1.7C85.6,76.8,90,66,90,53.4
				c0-12.7-4.4-23.5-13.2-32.5c-3.7-3.7-7.6-6.7-11.9-8.9L64,19.5 M14.9,54.2c0.4,0.4,0.8,0.5,1,0.5c0.4,0,0.7-0.2,1-0.5
				c0.2-0.3,0.3-0.6,0.3-0.9c0-0.6-0.6-1.2-1.7-1.7c-0.9-0.4-1.8-0.5-2.5-0.5c-1.4,0-2.7,0.8-3.8,2.5c-0.9,1.5-1.4,2.9-1.4,4.3
				c0,1.5,0.5,2.7,1.6,3.7c1,0.9,2.3,1.3,3.8,1.3c0.7,0,1.5-0.3,2.5-0.8c1.1-0.5,1.7-1,1.7-1.6c0-0.4-0.1-0.7-0.4-0.9
				c-0.3-0.3-0.6-0.5-1-0.5c-0.2,0-0.6,0.2-1.3,0.5c-0.6,0.4-1.2,0.5-1.6,0.5c-0.8,0-1.5-0.2-2-0.5c-0.5-0.5-0.8-1-0.8-1.8
				c0-0.8,0.3-1.7,0.9-2.7c0.7-1,1.2-1.5,1.7-1.5C13.9,53.7,14.5,53.9,14.9,54.2 M27.3,60.9c0.8-1.1,1.3-2.5,1.3-4.1
				c0-1.5-0.4-2.7-1-3.7c-0.8-1.1-1.9-1.7-3.3-1.7c-1.9,0-3.3,0.7-4.3,2.1c-0.9,1.2-1.3,2.6-1.2,4.1c0,1.6,0.6,2.9,1.6,3.9
				c0.9,0.9,2,1.3,3.2,1.3C25.1,62.8,26.4,62.2,27.3,60.9 M22.1,55.4c0.5-0.8,1.1-1.2,1.9-1.2c1.3,0,1.9,1.1,1.8,3.4
				c0,0.9-0.3,1.5-0.8,2c-0.5,0.4-1,0.6-1.6,0.6c-0.5,0-0.9-0.2-1.3-0.5c-0.4-0.5-0.7-1.1-0.7-1.9C21.5,56.8,21.7,56,22.1,55.4
				 M36.2,55c0,0.9,0.4,1.3,1.3,1.3c0.9,0,1.3-0.5,1.4-1.6c0-0.1,0-0.3,0-0.7c0-1.8-0.7-2.8-2.1-2.8c-1.4,0-2.8,0.5-4,1.4
				c-0.1-0.8-0.6-1.2-1.3-1.2c-0.5,0-0.8,0.2-1,0.5c-0.2,0.3-0.4,0.6-0.4,0.9c0,0.3,0,0.6,0,1c-0.1,0.4-0.1,0.7-0.1,1v6.8
				c0,0.4,0.1,0.7,0.4,1c0.2,0.3,0.5,0.4,1,0.4c0.4,0,0.7-0.1,1-0.4c0.3-0.3,0.4-0.6,0.4-1v-5.3c0.7-1.3,1.7-2.1,3.3-2.4V55
				 M49,52.7c-0.4-1.1-1.3-1.6-2.6-1.6c-1.1,0-2.2,0.5-3.2,1.5l-0.1-0.2c0-1.1-0.5-1.6-1.4-1.6c-0.4,0-0.7,0.1-1,0.4
				c-0.3,0.3-0.4,0.6-0.4,1c0,0.2,0,0.5,0.1,0.9c0,0.4,0,0.7,0,0.9c0,0.7,0,1.7-0.2,2.9c-0.1,1.2-0.1,2.1-0.1,2.8
				c0,0.2,0,0.5,0.1,0.9c0,0.4,0.1,0.6,0.1,0.8c0,0.4,0.1,0.8,0.4,1.1c0.3,0.3,0.7,0.4,1.1,0.4s0.7-0.1,1-0.4
				c0.3-0.3,0.5-0.7,0.5-1.1c0-0.2,0-0.5,0.1-0.9c0-0.4,0.1-0.7,0.1-0.8c0-0.3,0-0.6,0-1c0.1-0.4,0.1-0.7,0.2-0.9
				c0.3-1.2,0.7-2.1,1.3-2.9c0.6-0.8,1.1-1.1,1.7-1.1c0.3,0,0.5,0.3,0.5,0.8c0,0.1,0,0.3-0.1,0.5c0,0.2,0,0.3,0,0.4
				c0,0.2,0,0.5,0,0.9c0,0.5-0.1,0.8-0.1,1c0,0.7,0,1.4,0.2,2.1c0.1,0.7,0.2,1.4,0.3,2.1c0.1,0.9,0.6,1.3,1.4,1.3
				c0.4,0,0.7-0.1,1-0.4c0.3-0.3,0.4-0.6,0.4-1c0-0.6-0.1-1.2-0.2-2.1c-0.1-0.9-0.2-1.6-0.2-2.1c0-0.1,0-0.3,0-0.7V56
				C49.5,54.6,49.3,53.4,49,52.7 M59.6,56.3c0.8-0.6,1.2-1.3,1.2-2.1c0-1.1-0.5-1.9-1.5-2.4c-0.8-0.4-1.8-0.6-3-0.6
				c-1.7,0-3,0.7-4,2.1c-0.9,1.2-1.4,2.7-1.4,4.4c0,1.6,0.6,2.8,1.7,3.7c1.1,0.8,2.4,1.1,4.1,1.1c1,0,2.1-0.2,3-0.6
				c1.1-0.5,1.7-1.1,1.7-1.9c0-0.7-0.4-1.1-1-1.1c-0.4,0-0.8,0.2-1.4,0.5c-0.6,0.4-1.4,0.5-2.3,0.5c-0.6,0-1.1-0.1-1.6-0.2
				c-0.5-0.2-0.9-0.5-1.2-0.8l3.5-1.6C58.5,57,59.2,56.6,59.6,56.3 M54.7,54.5c0.4-0.5,1-0.7,1.6-0.7c0.8,0,1.3,0.1,1.8,0.4
				c-0.6,0.4-1.3,0.8-2.2,1.2c-0.8,0.3-1.6,0.6-2.3,1C53.9,55.6,54.2,54.9,54.7,54.5 M71.8,54.7c0-0.1,0-0.3,0-0.7
				c0-1.8-0.7-2.8-2.1-2.8c-1.5,0-2.8,0.5-4,1.4c-0.2-0.8-0.6-1.2-1.3-1.2c-0.5,0-0.8,0.2-1,0.5c-0.2,0.3-0.4,0.6-0.4,0.9
				c0,0.3,0,0.6,0,1c0,0.4-0.1,0.7-0.1,1v6.8c0,0.4,0.1,0.7,0.4,1c0.2,0.3,0.5,0.4,1,0.4c0.4,0,0.7-0.1,1-0.4c0.3-0.3,0.5-0.6,0.5-1
				v-5.3c0.6-1.3,1.7-2.1,3.3-2.4V55c0,0.9,0.5,1.3,1.4,1.3C71.3,56.3,71.8,55.7,71.8,54.7 M80.6,54.6c0.6,0,1-0.6,1-1.9
				c0-0.7-0.2-1.1-0.7-1.3c-0.3-0.2-0.8-0.3-1.5-0.3c-1.8,0-3,0.2-3.9,0.5c-1.4,0.5-2.2,1.4-2.2,2.8c0,1,0.5,1.8,1.4,2.5
				c0.4,0.3,1.3,0.7,2.7,1.4c1,0.4,1.5,0.8,1.5,1.1c0,0.6-0.7,0.8-2.1,0.8c-0.4,0-0.8-0.1-1.4-0.3c-0.6-0.2-1.1-0.3-1.4-0.3
				c-0.8,0-1.2,0.4-1.2,1.1c0,0.8,0.5,1.4,1.6,1.8c0.8,0.3,1.6,0.4,2.5,0.4c1.3,0,2.4-0.3,3.2-0.8c1.1-0.6,1.7-1.5,1.7-2.7
				c0-0.9-0.5-1.8-1.5-2.5c-0.5-0.4-1.3-0.8-2.7-1.5c-1-0.5-1.5-0.8-1.5-1.1c0-0.5,0.8-0.7,2.5-0.7c0.3,0,0.5,0,0.8,0.1
				C79.5,54.3,79.9,54.6,80.6,54.6 M55.2,34.4c0-1.1-0.5-1.9-1.5-2.4c-0.8-0.4-1.8-0.6-3-0.6c-1.7,0-3,0.7-4,2.1
				c-0.9,1.2-1.4,2.7-1.4,4.4c0,1.6,0.6,2.8,1.7,3.7c1.1,0.8,2.4,1.1,4.1,1.1c1,0,2.1-0.2,3-0.6c1.1-0.5,1.7-1.1,1.7-1.9
				c0-0.7-0.4-1.1-1-1.1c-0.4,0-0.8,0.2-1.4,0.5c-0.6,0.4-1.4,0.5-2.3,0.5c-0.6,0-1.1-0.1-1.6-0.2c-0.5-0.2-0.9-0.5-1.2-0.8l3.5-1.6
				c1.1-0.5,1.9-0.9,2.3-1.1C54.8,35.9,55.2,35.2,55.2,34.4 M50.7,33.9c0.8,0,1.3,0.1,1.8,0.4c-0.6,0.4-1.3,0.8-2.2,1.2
				c-0.8,0.3-1.6,0.6-2.3,1c0.2-0.9,0.6-1.5,1.1-1.9C49.5,34.2,50.1,33.9,50.7,33.9 M29.7,31.4c-0.4,0-0.8,0.1-1,0.4
				c-0.2,0.3-0.4,0.6-0.4,1c0,0.6,0,1.4-0.2,2.3c0,1-0.1,1.8-0.1,2.4c0,0.4,0,1,0.1,1.9c0,0.9,0,1.5,0,1.9c0,0.4,0.1,0.7,0.4,1
				c0.3,0.3,0.6,0.4,1.1,0.4c0.4,0,0.7-0.1,1-0.4c0.3-0.3,0.4-0.6,0.4-1c0-0.4,0-1-0.1-1.9c0-0.9,0-1.5,0-1.9c0-0.6,0-1.4,0.1-2.4
				c0.1-0.9,0.1-1.7,0.1-2.3c0-0.4-0.1-0.7-0.4-1C30.4,31.5,30.1,31.4,29.7,31.4 M30,26.7c-0.5,0-0.8,0.2-1.1,0.5
				c-0.3,0.3-0.4,0.7-0.4,1.1c0,0.5,0.2,0.8,0.4,1.1c0.3,0.3,0.7,0.5,1.1,0.5s0.8-0.2,1.1-0.5c0.4-0.3,0.5-0.7,0.5-1.1
				c0-0.4-0.2-0.8-0.5-1.1C30.8,26.8,30.5,26.7,30,26.7 M43.7,26.1c-0.2-0.3-0.6-0.4-1-0.4c-0.8,0-1.2,0.4-1.4,1.2
				c-0.1,0.9-0.2,2.6-0.3,5c-0.3-0.3-0.7-0.4-1.1-0.5c-0.4-0.1-0.8-0.2-1.3-0.2c-1.7,0-3.1,0.6-4.1,1.8c-1,1.1-1.5,2.6-1.5,4.5
				c0,1.6,0.5,2.9,1.5,3.9c1,1,2.3,1.5,3.8,1.5c0.6,0,1.1,0,1.6-0.1c0.5-0.1,1-0.3,1.4-0.6c0.2,0.5,0.6,0.7,1.1,0.7
				c0.4,0,0.7-0.1,1-0.4c0.2-0.3,0.4-0.6,0.4-0.9c0-0.1,0-0.2,0-0.3c-0.2-0.9-0.2-2.5-0.2-5c0-1,0.1-2.5,0.2-4.5
				c0.2-2,0.2-3.6,0.2-4.6C44,26.7,43.9,26.4,43.7,26.1 M40,34.2c0.4,0.2,0.6,0.5,0.8,1c0,2.2,0,3.5,0,3.8c-0.1,0.1-0.2,0.2-0.3,0.3
				c-0.5,0.4-0.8,0.6-1,0.7c-0.2,0.1-0.7,0.2-1.2,0.2c-0.7,0-1.3-0.3-1.9-0.8c-0.6-0.6-0.8-1.2-0.8-2c0-1.2,0.2-2.1,0.8-2.7
				c0.5-0.6,1.3-0.8,2.3-0.8C39.1,33.9,39.6,34,40,34.2 M25,31.5c-0.3-0.2-0.8-0.3-1.5-0.3c-1.8,0-3,0.2-3.9,0.5
				c-1.4,0.5-2.2,1.4-2.2,2.8c0,1,0.5,1.8,1.4,2.5c0.4,0.3,1.3,0.7,2.7,1.4c1,0.4,1.5,0.8,1.5,1.1c0,0.6-0.7,0.8-2.1,0.8
				c-0.4,0-0.8-0.1-1.4-0.3c-0.6-0.2-1.1-0.3-1.4-0.3c-0.8,0-1.2,0.4-1.2,1.1c0,0.8,0.5,1.4,1.6,1.8c0.8,0.3,1.6,0.4,2.5,0.4
				c1.3,0,2.4-0.3,3.2-0.8c1.1-0.6,1.7-1.5,1.7-2.7c0-0.9-0.5-1.8-1.5-2.5c-0.5-0.4-1.3-0.8-2.7-1.5c-1-0.5-1.5-0.8-1.5-1.1
				c0-0.5,0.8-0.7,2.5-0.7c0.3,0,0.5,0,0.8,0.1c0.2,0.6,0.6,0.8,1.2,0.8c0.6,0,1-0.6,1-1.9C25.7,32.1,25.4,31.7,25,31.5 M34.9,15.7
				l-6-3.7l14-4.4C31.4,8,21.5,12.4,13.1,20.9C4.4,29.8,0,40.7,0,53.4C0,66,4.4,76.8,13.1,85.8c3.6,3.7,7.6,6.6,11.8,8.8l-6.8-11.9
				l0.6-1c-0.3-0.3-0.6-0.6-0.9-0.9C10.5,73.2,6.8,64,6.8,53.4c0-10.8,3.7-20,11.1-27.6C22.9,20.7,28.6,17.4,34.9,15.7z"/>
			<path style="fill:#FFCC00;" d="M46.4,75.7l-4.1-7.3l-16.1,0.1l-7.4,13.2l-0.6,1L25,94.6l1.3,2.3h4.1l12-0.1l2.6-4.6l1.4-2.6
				l3.9-7L46.4,75.7z"/>
			<path style="fill:#0066FF;" d="M75.1,77.1v-8.6H46.4v7.2l3.9,6.9l-3.9,7v2.6v6.7v1.1h28.6V87.5V77.1z"/>
			<path style="fill:#0099FF;" d="M28.9,11.9l6,3.7l25.4,15.8l1.9,1.2l0.2-1.5L64,19.5l0.9-7.5l1.4-12L43,7.5L28.9,11.9z"/>
		</g>
	</g>
</g>
</svg>
