<svg id="Layer_1" data-name="Layer 1" xmlns="http://www.w3.org/2000/svg" xmlns:xlink="http://www.w3.org/1999/xlink" viewBox="0 0 62.66 62.66"><defs><style>.cls-1{fill:#73adff;}.cls-2{fill:#808184;}.cls-3{fill:url(#linear-gradient);}.cls-4{fill:#d4cedb;}.cls-5{fill:#000009;}.cls-6{fill:#bcdef7;}.cls-7{fill:url(#linear-gradient-2);}.cls-8,.cls-9{opacity:0.5;}.cls-14,.cls-8,.cls-9{isolation:isolate;}.cls-8{fill:url(#linear-gradient-3);}.cls-9{fill:url(#linear-gradient-4);}.cls-10{fill:#fc0;}.cls-11{fill:#f60;}.cls-12{fill:#00e000;}.cls-13{fill:#66f;}</style><linearGradient id="linear-gradient" x1="9.33" y1="10.7" x2="52.39" y2="53.76" gradientTransform="matrix(1, 0, 0, -1, 0, 64.02)" gradientUnits="userSpaceOnUse"><stop offset="0" stop-color="#babcbf" stop-opacity="0"/><stop offset="1" stop-color="#b8bcc1"/></linearGradient><linearGradient id="linear-gradient-2" x1="31.34" y1="59.94" x2="31.34" y2="11.83" gradientTransform="matrix(1, 0, 0, -1, 0, 64.02)" gradientUnits="userSpaceOnUse"><stop offset="0" stop-color="#89b8e4" stop-opacity="0"/><stop offset="1" stop-color="#a0c3e4"/></linearGradient><linearGradient id="linear-gradient-3" x1="28.66" y1="35.27" x2="12.08" y2="53.44" gradientTransform="matrix(1, 0, 0, -1, 0, 64.02)" gradientUnits="userSpaceOnUse"><stop offset="0" stop-color="#e2f3ff" stop-opacity="0.1"/><stop offset="1" stop-color="#e2f3ff"/></linearGradient><linearGradient id="linear-gradient-4" x1="36.52" y1="27.5" x2="59.08" y2="4.94" xlink:href="#linear-gradient-3"/></defs><title>halves-icon</title><path class="cls-1" d="M31.34,58.36a27,27,0,1,1,27-27A27,27,0,0,1,31.34,58.36Z"/><path class="cls-2" d="M31.34,62.66A31.33,31.33,0,1,1,62.66,31.32s0,0,0,0A31.36,31.36,0,0,1,31.34,62.66Z"/><path class="cls-3" d="M31.34,62.66A31.33,31.33,0,1,1,62.66,31.32s0,0,0,0A31.36,31.36,0,0,1,31.34,62.66Z"/><path class="cls-4" d="M31.34,59.79A28.46,28.46,0,1,1,59.79,31.32s0,0,0,0A28.49,28.49,0,0,1,31.34,59.79Z"/><path class="cls-5" d="M31.34,59.31a28,28,0,1,1,28-28,28,28,0,0,1-28,28Z"/><path class="cls-6" d="M31.34,58.6A27.26,27.26,0,1,1,58.6,31.34,27.26,27.26,0,0,1,31.34,58.6Z"/><circle class="cls-7" cx="31.34" cy="31.34" r="26.78"/><path class="cls-8" d="M30.15,28.56V7.21A24.16,24.16,0,0,0,7.34,28.56Z"/><path class="cls-9" d="M47.18,13.1A24.15,24.15,0,0,1,13.1,47.18,24.15,24.15,0,1,0,47.18,13.1Z"/><path class="cls-10" d="M58.34,32.28V33a3.07,3.07,0,0,1,0,.68c0,.22,0,.45-.06.67a5.1,5.1,0,0,0-.08.67c0,.22-.06.44-.1.66l-.12.66c0,.22-.08.43-.13.65l-.15.65c-.05.22-.1.43-.16.64l-.18.64c-.06.21-.12.42-.19.62l-.21.63-.22.61-.24.61-.25.6-.27.6-.27.58-.29.58-.3.57-.32.57-.33.55-.35.55-.35.54-.37.53-.38.52-.4.51-.4.5-.42.49-.42.48-.44.47-.45.46L50,50.9l-.47.44-.48.42-.49.42-.5.4-.51.39-.52.38-.53.37-.54.35-.55.35-.55.33-.56.32-.57.3-.58.29-.58.27-.6.27-.6.25-.61.24-.61.22-.62.21-.63.19-.64.18-.64.16-.65.15-.65.13-.66.12-.66.1-.67.08-.67.06-.63,0H31.64V31.59H58.36C58.35,31.82,58.35,32,58.34,32.28Z"/><path class="cls-11" d="M30.39,58.34h-.68l-.7-.08-.67-.06-.67-.08L27,58l-.66-.12-.65-.13L25,57.61l-.64-.16-.64-.18-.63-.19-.62-.21-.61-.22-.61-.24-.6-.25-.6-.27-.58-.27-.58-.29-.57-.3-.56-.32-.55-.33L16.72,54l-.54-.35-.53-.37-.52-.38-.51-.39-.5-.4-.49-.42-.48-.42-.47-.44-.46-.45L11.79,50l-.44-.47L10.93,49l-.42-.49-.4-.5-.39-.51L9.34,47,9,46.48l-.35-.54-.35-.55L8,44.84l-.32-.56-.3-.57L7,43.14l-.27-.58L6.47,42l-.25-.6L6,40.75l-.22-.61-.21-.62c-.07-.21-.13-.42-.19-.63l-.18-.64c-.06-.22-.11-.43-.16-.64L4.9,37c-.05-.22-.09-.43-.13-.65l-.12-.66c0-.22-.07-.44-.1-.66s-.06-.45-.08-.67a3.79,3.79,0,0,0-.06-.67c-.06-.22,0-.45-.05-.68a3.09,3.09,0,0,1,0-.68V31.6H31.08V58.35h-.69Z"/><path class="cls-12" d="M4.33,30.39v-.68A3.16,3.16,0,0,1,4.38,29c.05-.23,0-.45.06-.67a5.1,5.1,0,0,0,.08-.67c0-.22.06-.44.1-.66l.12-.66c0-.22.08-.44.13-.65L5,25.07c.05-.22.1-.43.16-.64l.18-.64c.06-.22.12-.42.19-.63l.21-.62L6,21.92l.24-.61.25-.6.27-.6L7,19.54,7.3,19l.3-.57.32-.56.33-.55.35-.55L9,16.19l.37-.53.38-.52.39-.51.4-.5.42-.49.42-.48.44-.47.45-.46.46-.45.47-.44.48-.42.49-.42.5-.4.51-.4.52-.38L16.19,9l.54-.35.55-.35L17.83,8l.57-.32.57-.3L19.54,7l.58-.27.6-.27.6-.25L21.93,6l.61-.22.63-.21.62-.19.64-.18.63-.2.65-.15.65-.13L27,4.66l.66-.1.67-.08L29,4.41l.68-.05h1.37V31.08H4.32V31C4.32,30.8,4.32,30.6,4.33,30.39Z"/><path class="cls-13" d="M32.28,4.33H33l.68.05.67.06.67.08.66.1.66.12.65.13.66.14.64.16.64.18.62.19.63.21.61.22.61.24.6.25.6.27.58.27.58.29.57.3.57.32.55.33.55.35.54.35.53.37.52.38.51.39.5.4.49.42.48.42.47.44.46.45.45.46.44.47.42.48.42.49.4.5.39.51.38.52.37.53.35.54.35.55.33.55.32.57.3.57.29.58.27.58.27.6.25.6.24.61.22.61.21.63c.07.21.13.42.19.62s.12.42.18.64.11.42.16.64l.15.65c.05.22.09.43.13.65l.12.66c0,.22.07.44.1.66s.06.45.08.67a3.79,3.79,0,0,0,.06.67c.06.22,0,.45,0,.68a3.09,3.09,0,0,1,0,.68v.69H31.59V4.31Z"/><path class="cls-12" d="M31.07,58.72h-.26a27.4,27.4,0,0,1,0-54.78h.26Z"/><path class="cls-13" d="M31.86,58.72H31.6V3.94h.26a27.4,27.4,0,0,1,0,54.78Z"/><g class="cls-14"><path d="M17.69,27.32H18.8V35.8H17.69V32H13.46V35.8h-1.1V27.32h1.1v3.77h4.23Z"/><path d="M21.09,34.93a3.57,3.57,0,0,1-.91-2.52,3.45,3.45,0,0,1,.9-2.48A3,3,0,0,1,23.35,29a2.71,2.71,0,0,1,1.48.4,2.64,2.64,0,0,1,1,1.05V29.09h1.11V35.8H25.8V34.43a2.65,2.65,0,0,1-2.45,1.48A3,3,0,0,1,21.09,34.93Zm4-.65a2.84,2.84,0,0,0,0-3.64,2.12,2.12,0,0,0-1.59-.69A2.16,2.16,0,0,0,22,30.6a2.43,2.43,0,0,0-.66,1.8A2.59,2.59,0,0,0,22,34.25a2.15,2.15,0,0,0,3.17,0Z"/><path d="M28.73,35.8V26.75h1.1V35.8Z"/><path d="M30.88,29.09h1.17l2,5.68,2-5.68h1.19l-2.6,6.71H33.47Z"/><path d="M41.16,35.91a3,3,0,0,1-2.33-1,3.53,3.53,0,0,1-.9-2.52,3.48,3.48,0,0,1,.91-2.51,3.43,3.43,0,0,1,4.68,0,3.15,3.15,0,0,1,.88,2.29,4.12,4.12,0,0,1,0,.66H39.07a2.32,2.32,0,0,0,.62,1.58,2,2,0,0,0,1.47.58,2,2,0,0,0,1.14-.31,1.81,1.81,0,0,0,.68-.81h1.19a3.07,3.07,0,0,1-1.08,1.46A3.14,3.14,0,0,1,41.16,35.91Zm1.49-5.44a2.15,2.15,0,0,0-2.93,0A2.29,2.29,0,0,0,39.08,32h4.18A2.1,2.1,0,0,0,42.65,30.47Z"/><path d="M45.53,31a1.79,1.79,0,0,1,.7-1.42A2.73,2.73,0,0,1,48,29a2.5,2.5,0,0,1,1.74.57,2.19,2.19,0,0,1,.69,1.56H49.32a1.29,1.29,0,0,0-.37-.91,1.34,1.34,0,0,0-1-.34,1.48,1.48,0,0,0-1,.3,1,1,0,0,0-.36.77.81.81,0,0,0,.41.73A2.88,2.88,0,0,0,48,32q.57.12,1.15.27a2.08,2.08,0,0,1,1,.57,1.66,1.66,0,0,1,.4,1.2,1.59,1.59,0,0,1-.7,1.31,2.9,2.9,0,0,1-1.81.53,2.69,2.69,0,0,1-1.79-.56,2.09,2.09,0,0,1-.73-1.55h1.14a1.23,1.23,0,0,0,.39.9,1.45,1.45,0,0,0,1,.34,1.64,1.64,0,0,0,1-.28.86.86,0,0,0,.37-.72.88.88,0,0,0-.29-.69,1.62,1.62,0,0,0-.73-.35l-1-.23q-.52-.13-1-.29a1.55,1.55,0,0,1-.73-.53A1.52,1.52,0,0,1,45.53,31Z"/></g></svg>