<svg id="Layer_1" data-name="Layer 1" xmlns="http://www.w3.org/2000/svg" xmlns:xlink="http://www.w3.org/1999/xlink" viewBox="0 0 62.66 62.66"><defs><style>.cls-1{fill:#73adff;}.cls-2{fill:#808184;}.cls-3{fill:url(#linear-gradient);}.cls-4{fill:#d4cedb;}.cls-5{fill:#000009;}.cls-6{fill:#bcdef7;}.cls-7{fill:url(#linear-gradient-2);}.cls-8,.cls-9{opacity:0.5;}.cls-14,.cls-8,.cls-9{isolation:isolate;}.cls-8{fill:url(#linear-gradient-3);}.cls-9{fill:url(#linear-gradient-4);}.cls-10{fill:#fc0;}.cls-11{fill:#f60;}.cls-12{fill:#00e000;}.cls-13{fill:#66f;}</style><linearGradient id="linear-gradient" x1="9.32" y1="10.69" x2="52.38" y2="53.75" gradientTransform="matrix(1, 0, 0, -1, 0, 64)" gradientUnits="userSpaceOnUse"><stop offset="0" stop-color="#babcbf" stop-opacity="0"/><stop offset="1" stop-color="#b8bcc1"/></linearGradient><linearGradient id="linear-gradient-2" x1="31.33" y1="59.93" x2="31.33" y2="11.82" gradientTransform="matrix(1, 0, 0, -1, 0.01, 64.01)" gradientUnits="userSpaceOnUse"><stop offset="0" stop-color="#89b8e4" stop-opacity="0"/><stop offset="1" stop-color="#a0c3e4"/></linearGradient><linearGradient id="linear-gradient-3" x1="28.65" y1="35.26" x2="12.07" y2="53.43" gradientTransform="matrix(1, 0, 0, -1, 0, 64)" gradientUnits="userSpaceOnUse"><stop offset="0" stop-color="#e2f3ff" stop-opacity="0.1"/><stop offset="1" stop-color="#e2f3ff"/></linearGradient><linearGradient id="linear-gradient-4" x1="36.51" y1="27.49" x2="59.07" y2="4.93" xlink:href="#linear-gradient-3"/></defs><title>quarter-icon</title><path class="cls-1" d="M31.33,58.35a27,27,0,1,1,27-27A27,27,0,0,1,31.33,58.35Z" transform="translate(0.01 0.01)"/><path class="cls-2" d="M31.33,62.65A31.33,31.33,0,1,1,62.65,31.31s0,0,0,0A31.36,31.36,0,0,1,31.33,62.65Z" transform="translate(0.01 0.01)"/><path class="cls-3" d="M31.33,62.65A31.33,31.33,0,1,1,62.65,31.31s0,0,0,0A31.36,31.36,0,0,1,31.33,62.65Z" transform="translate(0.01 0.01)"/><path class="cls-4" d="M31.33,59.78A28.46,28.46,0,1,1,59.78,31.31s0,0,0,0A28.49,28.49,0,0,1,31.33,59.78Z" transform="translate(0.01 0.01)"/><path class="cls-5" d="M31.33,59.3a28,28,0,1,1,28-28,28,28,0,0,1-28,28Z" transform="translate(0.01 0.01)"/><path class="cls-6" d="M31.33,58.59A27.26,27.26,0,1,1,58.59,31.33,27.26,27.26,0,0,1,31.33,58.59Z" transform="translate(0.01 0.01)"/><circle class="cls-7" cx="31.34" cy="31.34" r="26.78"/><path class="cls-8" d="M30.14,28.55V7.2A24.16,24.16,0,0,0,7.33,28.55Z" transform="translate(0.01 0.01)"/><path class="cls-9" d="M47.17,13.09A24.15,24.15,0,0,1,13.09,47.17,24.15,24.15,0,1,0,47.17,13.09Z" transform="translate(0.01 0.01)"/><path class="cls-10" d="M58.33,32.27V33a3.07,3.07,0,0,1,0,.68c0,.22,0,.45-.06.67a5.1,5.1,0,0,0-.08.67c0,.22-.06.44-.1.66l-.12.66c0,.22-.08.43-.13.65l-.15.65c-.05.22-.1.43-.16.64l-.18.64c-.06.21-.12.42-.19.62l-.21.63-.22.61-.24.61-.25.6-.27.6-.27.58-.29.58-.3.57-.32.57-.33.55-.35.55-.35.54-.37.53-.38.52-.4.51-.4.5-.42.49-.42.48-.44.47-.45.46-.46.45-.47.44-.48.42-.49.42-.5.4-.51.39-.52.38-.53.37-.54.35-.55.35-.55.33-.56.32-.57.3-.58.29-.58.27-.6.27-.6.25-.61.24-.61.22-.62.21-.63.19-.64.18-.64.16-.65.15-.65.13-.66.12-.66.1-.67.08-.67.06-.63,0H31.63V31.58H58.35C58.34,31.81,58.34,32,58.33,32.27Z" transform="translate(0.01 0.01)"/><path class="cls-11" d="M30.38,58.33H29.7l-.7-.08-.67-.06-.67-.08L27,58l-.66-.12-.65-.13L25,57.6l-.64-.16-.64-.18-.63-.19-.62-.21-.61-.22-.61-.24-.6-.25-.6-.27-.58-.27-.58-.29-.57-.3-.56-.32-.55-.33L16.71,54l-.54-.35-.53-.37-.52-.38-.51-.39-.5-.4-.49-.42-.48-.42-.47-.44-.46-.45L11.78,50l-.44-.47L10.92,49l-.42-.49-.4-.5-.39-.51L9.33,47,9,46.47l-.35-.54-.35-.55L8,44.83l-.32-.56-.3-.57L7,43.13l-.27-.58L6.46,42l-.25-.6L6,40.74l-.22-.61-.21-.62c-.07-.21-.13-.42-.19-.63l-.18-.64c-.06-.22-.11-.43-.16-.64L4.89,37c-.05-.22-.09-.43-.13-.65l-.12-.66c0-.22-.07-.44-.1-.66s-.06-.45-.08-.67a3.79,3.79,0,0,0-.06-.67c-.06-.22,0-.45-.05-.68a3.09,3.09,0,0,1,0-.68v-.69H31.07V58.34h-.69Z" transform="translate(0.01 0.01)"/><path class="cls-12" d="M4.32,30.38V29.7A3.16,3.16,0,0,1,4.37,29c.05-.23,0-.45.06-.67a5.1,5.1,0,0,0,.08-.67c0-.22.06-.44.1-.66l.12-.66c0-.22.08-.44.13-.65L5,25.06c.05-.22.1-.43.16-.64l.18-.64c.06-.22.12-.42.19-.63l.21-.62L6,21.91l.24-.61.25-.6.27-.6L7,19.53,7.29,19l.3-.57.32-.56.33-.55.35-.55L9,16.18l.37-.53.38-.52.39-.51.4-.5.42-.49.42-.48.44-.47.45-.46.46-.45.47-.44.48-.42.49-.42.5-.4.51-.4.52-.38L16.18,9l.54-.35.55-.35L17.82,8l.57-.32.57-.3L19.53,7l.58-.27.6-.27.6-.25L21.92,6l.61-.22.63-.21.62-.19.64-.18L25,5l.65-.15.65-.13L27,4.65l.66-.1.67-.08L29,4.4l.68-.05h1.37V31.07H4.31V31C4.31,30.79,4.31,30.59,4.32,30.38Z" transform="translate(0.01 0.01)"/><path class="cls-13" d="M32.27,4.32H33l.68.05.67.06.67.08.66.1.66.12.65.13L37.6,5l.64.16.64.18.62.19.63.21.61.22.61.24.6.25.6.27.58.27.58.29.57.3.57.32.55.33.55.35.54.35L47,9.3l.52.38.51.39.5.4.49.42.48.42.47.44.46.45.45.46.44.47.42.48.42.49.4.5.39.51.38.52.37.53.35.54.35.55.33.55.32.57.3.57.29.58.27.58.27.6.25.6.24.61.22.61.21.63c.07.21.13.42.19.62s.12.42.18.64.11.42.16.64l.15.65c.05.22.09.43.13.65L58,27c0,.22.07.44.1.66s.06.45.08.67a3.79,3.79,0,0,0,.06.67c.06.22,0,.45,0,.68a3.09,3.09,0,0,1,0,.68v.69H31.58V4.3Z" transform="translate(0.01 0.01)"/><g class="cls-14"><path d="M9.83,34.75a4.14,4.14,0,0,1-3-1.23,4.32,4.32,0,0,1,3-7.42,4.18,4.18,0,0,1,4.26,4.32,4.44,4.44,0,0,1-.53,2.18,4,4,0,0,1-1.47,1.53l2.14,2.14H12.78l-1.7-1.7A4.17,4.17,0,0,1,9.83,34.75ZM7.56,28a3.31,3.31,0,0,0-.89,2.42,3.32,3.32,0,0,0,.9,2.42,3,3,0,0,0,2.26.92,3,3,0,0,0,2.25-.92A3.34,3.34,0,0,0,13,30.42,3.32,3.32,0,0,0,12.08,28a3,3,0,0,0-2.26-.91A3,3,0,0,0,7.56,28Z" transform="translate(0.01 0.01)"/><path d="M20.18,27.95h1.1v6.71h-1.1V33.58A2.29,2.29,0,0,1,18,34.77,2.5,2.5,0,0,1,16.17,34a2.84,2.84,0,0,1-.74-2.1v-4h1.09v3.8A2.18,2.18,0,0,0,17,33.28a1.95,1.95,0,0,0,2.68,0,2.19,2.19,0,0,0,.49-1.53Z" transform="translate(0.01 0.01)"/><path d="M23.57,33.79a3.57,3.57,0,0,1-.91-2.52,3.45,3.45,0,0,1,.9-2.48,3,3,0,0,1,2.27-.95,2.71,2.71,0,0,1,1.48.4,2.64,2.64,0,0,1,1,1.05V27.95h1.11v6.71H28.28V33.29a2.65,2.65,0,0,1-2.45,1.48A3,3,0,0,1,23.57,33.79Zm4-.65a2.84,2.84,0,0,0,0-3.64A2.12,2.12,0,0,0,26,28.8a2.16,2.16,0,0,0-1.59.66,2.43,2.43,0,0,0-.66,1.8,2.59,2.59,0,0,0,.67,1.85,2.15,2.15,0,0,0,3.17,0Z" transform="translate(0.01 0.01)"/><path d="M32.31,27.95v1.14a2.07,2.07,0,0,1,2-1.25V29H34a1.74,1.74,0,0,0-1.29.45A2.17,2.17,0,0,0,32.31,31v3.67h-1.1V27.95Z" transform="translate(0.01 0.01)"/><path d="M37.84,33.76h.91v.9H37.64a1.53,1.53,0,0,1-1.73-1.72V28.85H35v-.91h.86V26.28H37v1.66h1.72v.91H37v4.08a.68.68,0,0,0,.82.82Z" transform="translate(0.01 0.01)"/><path d="M42.75,34.77a3,3,0,0,1-2.32-1,3.53,3.53,0,0,1-.9-2.52,3.48,3.48,0,0,1,.91-2.51A3.2,3.2,0,0,1,46,31a4.36,4.36,0,0,1,0,.66H40.65a2.31,2.31,0,0,0,.62,1.58,2,2,0,0,0,1.47.58,2,2,0,0,0,1.14-.31,1.8,1.8,0,0,0,.68-.81h1.19a3.08,3.08,0,0,1-1.08,1.46A3.14,3.14,0,0,1,42.75,34.77Zm1.49-5.44a2.15,2.15,0,0,0-2.93,0,2.28,2.28,0,0,0-.64,1.56h4.18A2.11,2.11,0,0,0,44.24,29.33Z" transform="translate(0.01 0.01)"/><path d="M48.46,27.95v1.14a2.07,2.07,0,0,1,2-1.25V29h-.29a1.74,1.74,0,0,0-1.29.45A2.17,2.17,0,0,0,48.46,31v3.67h-1.1V27.95Z" transform="translate(0.01 0.01)"/><path d="M51.57,29.84a1.79,1.79,0,0,1,.7-1.42,2.72,2.72,0,0,1,1.8-.58,2.5,2.5,0,0,1,1.74.57A2.18,2.18,0,0,1,56.5,30H55.36a1.29,1.29,0,0,0-.38-.91,1.34,1.34,0,0,0-1-.34,1.48,1.48,0,0,0-1,.3,1,1,0,0,0-.36.77.82.82,0,0,0,.41.73,2.9,2.9,0,0,0,1,.37q.57.12,1.15.27a2.07,2.07,0,0,1,1,.57,1.66,1.66,0,0,1,.41,1.2,1.6,1.6,0,0,1-.7,1.31,2.9,2.9,0,0,1-1.81.53,2.69,2.69,0,0,1-1.79-.56,2.09,2.09,0,0,1-.73-1.55h1.14a1.23,1.23,0,0,0,.39.9,1.45,1.45,0,0,0,1,.34,1.64,1.64,0,0,0,1-.28.86.86,0,0,0,.37-.72.88.88,0,0,0-.29-.69,1.62,1.62,0,0,0-.73-.35l-1-.23q-.52-.13-1-.29a1.55,1.55,0,0,1-.73-.53A1.52,1.52,0,0,1,51.57,29.84Z" transform="translate(0.01 0.01)"/></g></svg>