<svg id="Layer_1" data-name="Layer 1" xmlns="http://www.w3.org/2000/svg" viewBox="0 0 259.04 258.68">
    <title>clock</title>
    <path d="M248,128.3c0,65.22-53.14,118.28-118.45,118.28S11.07,193.52,11.07,128.3,64.2,10,129.52,10,248,63.08,248,128.3Z"
          fill="#fff"/>
    <path d="M129.52,258.68C58.1,258.68,0,200.65,0,129.34S58.1,0,129.52,0,259,58,259,129.34,200.94,258.68,129.52,258.68Zm0-244.86c-63.79,0-115.68,51.82-115.68,115.52s51.9,115.52,115.68,115.52S245.2,193,245.2,129.34,193.31,13.82,129.52,13.82Z"/>
    <path d="M125.38,47.71h-4.75V29.85a16.37,16.37,0,0,1-6.13,3.59v-4.3a13.73,13.73,0,0,0,4-2.3,8.75,8.75,0,0,0,3-4h3.85Z"/>
    <path d="M148.49,43.31v4.4H131.86A11.42,11.42,0,0,1,133.48,43a31.48,31.48,0,0,1,5.34-5.93,33.59,33.59,0,0,0,3.93-4,5.21,5.21,0,0,0,1-2.9,3.3,3.3,0,0,0-.85-2.44,3.63,3.63,0,0,0-4.72,0,4.58,4.58,0,0,0-1,3l-4.73-.47q.42-3.91,2.65-5.62a8.91,8.91,0,0,1,5.57-1.7,8.06,8.06,0,0,1,5.76,2,6.47,6.47,0,0,1,2.09,4.91,8.53,8.53,0,0,1-.6,3.18,12.91,12.91,0,0,1-1.9,3.16,30.4,30.4,0,0,1-3.11,3.15Q140.64,41.32,140,42a8.17,8.17,0,0,0-1,1.32Z"/>
    <path d="M137.44,219.69l-4.59.51a3.34,3.34,0,0,0-.88-2.09,2.56,2.56,0,0,0-1.84-.67,3.11,3.11,0,0,0-2.54,1.35q-1,1.35-1.31,5.62a5.55,5.55,0,0,1,4.41-2.09,6.73,6.73,0,0,1,5.09,2.26,8.19,8.19,0,0,1,2.12,5.84,8.36,8.36,0,0,1-2.23,6.09,8.13,8.13,0,0,1-11.89-.62q-2.42-2.91-2.41-9.54,0-6.8,2.52-9.8a8.13,8.13,0,0,1,6.54-3,7,7,0,0,1,4.67,1.58A7.39,7.39,0,0,1,137.44,219.69ZM126.68,230a5.36,5.36,0,0,0,1.06,3.57,3.13,3.13,0,0,0,2.43,1.26,2.77,2.77,0,0,0,2.2-1,5.18,5.18,0,0,0,.88-3.37,5.43,5.43,0,0,0-.95-3.53,3,3,0,0,0-4.68,0A4.64,4.64,0,0,0,126.68,230Z"/>
    <path d="M20.47,134.79l4.59-.51a3.32,3.32,0,0,0,.88,2.07,2.61,2.61,0,0,0,1.87.67,3.06,3.06,0,0,0,2.5-1.35q1-1.35,1.32-5.6a5.67,5.67,0,0,1-4.48,2.07,6.69,6.69,0,0,1-5-2.25A8.2,8.2,0,0,1,20,124,8.33,8.33,0,0,1,22.24,118a7.61,7.61,0,0,1,5.7-2.3,7.68,7.68,0,0,1,6.18,2.91q2.41,2.91,2.41,9.57T34,137.94a8.15,8.15,0,0,1-6.55,3,6.93,6.93,0,0,1-4.69-1.54A7.44,7.44,0,0,1,20.47,134.79Zm10.74-10.35a5.4,5.4,0,0,0-1.06-3.56,3.12,3.12,0,0,0-2.44-1.26,2.74,2.74,0,0,0-2.19,1,5.29,5.29,0,0,0-.87,3.4,5.39,5.39,0,0,0,.95,3.52,3,3,0,0,0,4.67,0A4.71,4.71,0,0,0,31.21,124.43Z"/>
    <path d="M222.36,133.94l4.59-.56a4.34,4.34,0,0,0,1.18,2.68,3.35,3.35,0,0,0,4.8-.18,4.31,4.31,0,0,0,1-3,4,4,0,0,0-1-2.83,3.07,3.07,0,0,0-2.35-1,8.29,8.29,0,0,0-2.18.35l.52-3.86a4.16,4.16,0,0,0,2.94-.83,3,3,0,0,0,1-2.35,2.56,2.56,0,0,0-2.72-2.73,2.86,2.86,0,0,0-2.08.84,4,4,0,0,0-1,2.46l-4.37-.74a9.75,9.75,0,0,1,1.38-3.58,6.21,6.21,0,0,1,2.57-2.11,8.63,8.63,0,0,1,3.69-.77,7.37,7.37,0,0,1,5.61,2.23,5.81,5.81,0,0,1,1.74,4.11q0,3.26-3.56,5.19a5.77,5.77,0,0,1,3.4,2,5.92,5.92,0,0,1,1.27,3.83,7.42,7.42,0,0,1-2.38,5.55,8.9,8.9,0,0,1-11.5.36A7.59,7.59,0,0,1,222.36,133.94Z"/>
    <path d="M185.67,61.41h-4.75V43.55a16.37,16.37,0,0,1-6.13,3.59v-4.3a13.73,13.73,0,0,0,4-2.3,8.75,8.75,0,0,0,3-4h3.85Z"/>
    <path d="M78.8,61.41H74.06V43.55a16.37,16.37,0,0,1-6.13,3.59v-4.3a13.73,13.73,0,0,0,4-2.3,8.75,8.75,0,0,0,3-4H78.8Z"/>
    <path d="M96.13,61.41H91.38V43.55a16.37,16.37,0,0,1-6.13,3.59v-4.3a13.73,13.73,0,0,0,4-2.3,8.75,8.75,0,0,0,3-4h3.85Z"/>
    <path d="M171.91,215.66l4.73-.49a4,4,0,0,0,1.2,2.54,3.25,3.25,0,0,0,2.3.94,3.19,3.19,0,0,0,2.52-1.21,5.48,5.48,0,0,0,1-3.63,5,5,0,0,0-1-3.42,3.41,3.41,0,0,0-2.66-1.14,4.84,4.84,0,0,0-3.66,1.8l-3.85-.56,2.43-12.87h12.55v4.44h-9l-.74,4.2a7.26,7.26,0,0,1,8.6,1.5,8.26,8.26,0,0,1,2.2,6,8.92,8.92,0,0,1-1.77,5.45,7.87,7.87,0,0,1-6.7,3.27,8.33,8.33,0,0,1-5.59-1.84A7.56,7.56,0,0,1,171.91,215.66Z"/>
    <path d="M70.58,200.07v-4.4H86.81v3.44a25.49,25.49,0,0,0-4.09,5.67,33,33,0,0,0-3.17,7.85,29.09,29.09,0,0,0-1.07,7.43H73.91A31.72,31.72,0,0,1,76,209.6a34.83,34.83,0,0,1,5.34-9.53Z"/>
    <path d="M222.87,92.7v4.4H206.24a11.42,11.42,0,0,1,1.62-4.73,31.47,31.47,0,0,1,5.34-5.93,33.59,33.59,0,0,0,3.93-4,5.21,5.21,0,0,0,1-2.9,3.3,3.3,0,0,0-.85-2.44,3.63,3.63,0,0,0-4.72,0,4.58,4.58,0,0,0-1,3l-4.73-.47q.42-3.91,2.65-5.62a8.91,8.91,0,0,1,5.57-1.7,8.06,8.06,0,0,1,5.76,2,6.47,6.47,0,0,1,2.09,4.91,8.53,8.53,0,0,1-.6,3.18,12.91,12.91,0,0,1-1.9,3.16,30.4,30.4,0,0,1-3.11,3.15q-2.25,2.06-2.85,2.73a8.2,8.2,0,0,0-1,1.32Z"/>
    <path d="M44.19,95.9H39.45V78a16.37,16.37,0,0,1-6.13,3.59v-4.3a13.73,13.73,0,0,0,4-2.3,8.75,8.75,0,0,0,3-4h3.85Z"/>
    <path d="M59.31,71.07a6.77,6.77,0,0,1,5.62,2.56q2.41,3,2.41,10.07T64.91,93.79a6.76,6.76,0,0,1-5.61,2.53,7.09,7.09,0,0,1-5.83-2.77q-2.21-2.77-2.21-9.89T53.7,73.6A6.76,6.76,0,0,1,59.31,71.07Zm0,3.93a2.37,2.37,0,0,0-1.54.55,3.67,3.67,0,0,0-1,2,27,27,0,0,0-.49,6.19,26.83,26.83,0,0,0,.44,6,4.19,4.19,0,0,0,1.11,2.17,2.43,2.43,0,0,0,3.06,0,3.68,3.68,0,0,0,1-2,26.84,26.84,0,0,0,.49-6.17,26.88,26.88,0,0,0-.44-6,4.26,4.26,0,0,0-1.11-2.18A2.34,2.34,0,0,0,59.31,75Z"/>
    <path d="M215.79,184.4v-5H205.66v-4.15l10.74-15.7h4v15.68h3.07v4.17h-3.07v5Zm0-9.14v-8.45l-5.69,8.45Z"/>
    <path d="M41,169.07A5.3,5.3,0,0,1,37.47,164a6,6,0,0,1,1.93-4.57,7.76,7.76,0,0,1,5.5-1.8,7.77,7.77,0,0,1,5.48,1.8,6,6,0,0,1,2,4.57,5.38,5.38,0,0,1-.9,3.06,5.66,5.66,0,0,1-2.52,2,6.64,6.64,0,0,1,3.13,2.41,6.38,6.38,0,0,1,1.07,3.66,7.44,7.44,0,0,1-2.19,5.57,8,8,0,0,1-5.82,2.14,8.8,8.8,0,0,1-5.62-1.77,6.9,6.9,0,0,1-2.65-5.73,7.08,7.08,0,0,1,1-3.68A6.41,6.41,0,0,1,41,169.07Zm.54,5.82a4.35,4.35,0,0,0,1,3.05A3.26,3.26,0,0,0,45,179,3.15,3.15,0,0,0,47.47,178a4.36,4.36,0,0,0,1-3,3.94,3.94,0,0,0-1-2.79A3.24,3.24,0,0,0,45,171.09a3,3,0,0,0-2.59,1.2A4.38,4.38,0,0,0,41.53,174.89ZM42,164.3a3,3,0,0,0,.8,2.21,2.9,2.9,0,0,0,2.14.79,2.94,2.94,0,0,0,2.16-.8,3,3,0,0,0,.81-2.22A2.76,2.76,0,0,0,45,161.35a3,3,0,0,0-2.18.81A2.89,2.89,0,0,0,42,164.3Z"/>
</svg>