<svg id="Layer_1" data-name="Layer 1" xmlns="http://www.w3.org/2000/svg" xmlns:xlink="http://www.w3.org/1999/xlink" viewBox="0 0 65.5 22.21"><defs><style>.cls-1{fill:url(#linear-gradient);}</style><linearGradient id="linear-gradient" x1="32.75" y1="22.86" x2="32.75" y2="-4.61" gradientUnits="userSpaceOnUse"><stop offset="0" stop-color="#2777d9" stop-opacity="0"/><stop offset="1" stop-color="#2269bf"/></linearGradient></defs><title>curve-arrow</title><path class="cls-1" d="M65.46,20.95,60.11,2.74A1,1,0,0,0,59.27,2a1,1,0,0,0-1,.5L55.28,8A35.61,35.61,0,0,0,10.21,8l-3-5.49a1,1,0,0,0-1.8.2L0,20.95a1,1,0,0,0,.25,1,1,1,0,0,0,1,.25l18.2-5.35a1,1,0,0,0,.2-1.8l-4.35-2.4a28.85,28.85,0,0,1,34.88,0L45.83,15a1,1,0,0,0,.2,1.8l18.21,5.35a1,1,0,0,0,1.22-1.22Zm0,0"/></svg>