<svg id="Layer_1" data-name="Layer 1" xmlns="http://www.w3.org/2000/svg" viewBox="0 0 191.41 118.86">
    <defs>
        <style>.cls-1{fill:#525731;}.cls-2{fill:#81875d;}</style>
    </defs>
    <title>lizard</title>
    <path class="cls-1"
          d="M4,35.12a2,2,0,0,0-1.33.26A6.31,6.31,0,0,0,.09,37.79a3.13,3.13,0,0,1,1.06-3.18c1.14-1.07,3-1.52,4-.43l-.27-.37a16.16,16.16,0,0,0-3.73-3.58.6.6,0,0,1,.19-.61.69.69,0,0,1,.43-.2,1.5,1.5,0,0,1,.92.44l1.49,1.2.09-.1A1,1,0,0,1,5,30.72a1.15,1.15,0,0,1,.38.08,2.94,2.94,0,0,1,1.06.94l3.89,4.65a4.72,4.72,0,0,1-.64-3,13.15,13.15,0,0,1,2,3.09,6.42,6.42,0,0,0,2,2.86,23.92,23.92,0,0,1,3,1.95c.26.24.52.5.79.72a2,2,0,0,0,.92.45,2.82,2.82,0,0,0,1.44-.3,16.41,16.41,0,0,0,3-1.59L24,39.71h0l-.23-.41a29.17,29.17,0,0,0-8-9.11s-5.16-6.43-7.27-11.33l0-.1a45.17,45.17,0,0,1-2.69-4C3.6,11.07,1,5.84,2,3a6.63,6.63,0,0,1,.44-.89C3,1.19,4.17-.22,5.82,0l.85.19C8,.41,9.82.75,11.34,1a14.49,14.49,0,0,0,3.12.34,7.18,7.18,0,0,1,7,4.16s6.72,6.1,9.43,12.81a52.77,52.77,0,0,0,6,10.51h0l3-2.51a1.27,1.27,0,0,0,.38-.43c.29-.66-.47-1.18-1.07-1.38A10.72,10.72,0,0,1,36,22.11l-4.79-4.6a3.57,3.57,0,0,1,2.9.93A49,49,0,0,1,30,12a14,14,0,0,1,3.76,3.68l-3-5.48A4.33,4.33,0,0,1,30,7.93a41.37,41.37,0,0,1,5.27,7.47c.77-3.29-1.6-6.54-.7-9.8,1.33,3.62,1.35,7.87,3.44,11a9.94,9.94,0,0,1,1.11-5,33,33,0,0,1,.19,4.62,7,7,0,0,0,.51,2.64A8,8,0,0,0,43.4,22.1l.66.38,1.81,1a2.69,2.69,0,0,1,1.51,1.62,3.16,3.16,0,0,1-1.17,2.63,23,23,0,0,1-6.75,4.33h0a17.38,17.38,0,0,0,1.24,1.35,8.16,8.16,0,0,0,1.11.95c.8.54,1.9,1.41,3.27,2.47A94.29,94.29,0,0,0,55,43.75c6.27,3.72,13.65,10.07,18.08,14.46l.16.16L76,61.15h0c.26-1.39.6-2.77.94-4.12.59-2.29,1.36-4.8,3.2-6.11a2.45,2.45,0,0,1,.81-.41,2.1,2.1,0,0,1,1.11.06,3.81,3.81,0,0,1,1.11.53,9.12,9.12,0,0,1,2.73,3.78l.14.31h0c.8,1.78,1.6,3.59,3.07,4.73l1.27-.36,3.28-.92c.66-.19,1.47-.33,1.89.22a1.79,1.79,0,0,0,.28.38.82.82,0,0,0,.54.12l3.81-.14a1.46,1.46,0,0,1,1.25.38.75.75,0,0,1,.1.18h.06a23.47,23.47,0,0,1,4.68-.32c.56,0,1.51.33,1.57,1a1.06,1.06,0,0,1-.1.55c-.41.83-2,.64-2.72.75l-3.59.43c-.48.06-1.2.25-1.9.36a3.34,3.34,0,0,1-1.51,0q2.82,1,5.6,1.91a18.06,18.06,0,0,0,4.38,1,18.59,18.59,0,0,1,2.76.18,3.26,3.26,0,0,1,1.56.78,2.32,2.32,0,0,1,.57.85,2.12,2.12,0,0,0-1.57-.34,31.64,31.64,0,0,1-10-1A24.92,24.92,0,0,0,95.22,65c-1.62-.05-3.2-.25-4.69.57h-.06l4.81,4.71a8.11,8.11,0,0,1,1.84,2.31,3.67,3.67,0,0,1,.3,2.23h0a2.72,2.72,0,0,1-.3.79,9.13,9.13,0,0,0-2.19-3.13A33.19,33.19,0,0,0,88,66.4a32.6,32.6,0,0,1-3.19-1.82,5.2,5.2,0,0,1-2.09-3.05v.07h0l-.48,2.54h0l0,.14a9,9,0,0,1,0,2.61l-.06.34h0l.37.38c1.6,1.65,3.26,3.41,5,5.35,5.33,6,15.71,14.81,28,16.16a73.61,73.61,0,0,0,21.59-.32c1-.17,1.92-.31,2.89-.45a4.46,4.46,0,0,1,1.69-.19,39.93,39.93,0,0,1,5.32-.23l.12,0,1.19,0,.42,0,1.07.06.53,0,1,.1.6.08,1,.14.69.15,1.28.28,1,.22.67.15.9.2.65.21.88.29.63.22.94.36.59.25.92.44.48.23c.48.24.91.48,1.4.76a23.9,23.9,0,0,1,3.7,2.69c3.45,3,6.31,6.9,9.44,10.33a124.34,124.34,0,0,0,14.3,13.68,5.6,5.6,0,0,1-.55-.21,18.22,18.22,0,0,1-3-1.53l-1.13-.7c-1.29-.81-2.58-1.65-3.87-2.47-1.92-1.25-3.83-2.54-5.69-3.9a62.73,62.73,0,0,1-5.36-4.42c-4.07-3.77-7.69-7.74-12.9-9.8a22.79,22.79,0,0,0-5.63-1.23c-.81-.1-1.63-.18-2.46-.26l-.8-.06-1.68-.12-.78,0q-1.21,0-2.41-.06h-.65q-1.46,0-2.92.06l-.63,0q-1.22.07-2.43.17l-.93.08-.61.06-.73.09a2.75,2.75,0,0,1-.64.08l-.6.08c-2.71.38-5,1.68-7.73,2.09a59.42,59.42,0,0,1-9.67.56C100.74,97.2,81.93,84.52,74.8,79.2h0a1.89,1.89,0,0,1-2.14,1.06,36.57,36.57,0,0,0-5.08.32,2.92,2.92,0,0,1-1.5-.15,37.26,37.26,0,0,0,1.83,4.34l.47.91a5.29,5.29,0,0,0,1.06,1.51c1,.91,2.51.85,3.87.76l6.17-.43a13.76,13.76,0,0,1-9.62,1.79A5.62,5.62,0,0,0,73.48,94a15,15,0,0,0,6,.71l5.3-.08a8.77,8.77,0,0,1,3.2.34c-.74,1.21-2.23,1.46-3.51,1.54a77.47,77.47,0,0,1-9.47,0,10.88,10.88,0,0,1-5-1.15c.19.94,1.08,1.42,1.88,1.76l8.07,3.56-7.61-1.43,1.07.61a7.89,7.89,0,0,1-7.08-3,1,1,0,0,0,.05.68,6.19,6.19,0,0,1-2-4.41,10.09,10.09,0,0,0-.16-2.57,5.33,5.33,0,0,0-1.17-1.79,24,24,0,0,1-2.73-3.91,18.75,18.75,0,0,1-1.35-3,8.29,8.29,0,0,1-.53-3.73A4.14,4.14,0,0,1,60.26,75a3.33,3.33,0,0,1,1.06-.31h0c-5.36-1.55-11.61-4.12-15.7-8.25C37.91,58.7,28.73,48.41,24.92,45.22a21.36,21.36,0,0,0-3.7,2.73,6.82,6.82,0,0,1-2,1.52,3.77,3.77,0,0,1-3.88-1.31c-.3-.31-.59-.65-.88-1a12.21,12.21,0,0,0-2.12-2.25A6.93,6.93,0,0,1,11,44c-.2-.23-.35-.5-.55-.72a2.5,2.5,0,0,0-.4-.36,6.57,6.57,0,0,0-.91-.51A33,33,0,0,1,3.85,39a2.14,2.14,0,0,0-.35-.22c-.34-.17-.72-.22-.94.1a1.68,1.68,0,0,1-.19.29c-.09.08-.24.08-.25-.05a2.2,2.2,0,0,1,2-1.44,4.11,4.11,0,0,1,2.34,1,11,11,0,0,0,2.14,1.42A23.25,23.25,0,0,0,5,35.75,2.26,2.26,0,0,0,4,35.12Z"/>
    <path class="cls-2"
          d="M183.11,112.91c-2.14-2.08-4.36-4.38-6.73-7-1.05-1.15-2.08-2.36-3.08-3.54A62.62,62.62,0,0,0,167,95.69a22.75,22.75,0,0,0-3.53-2.58c-.44-.26-.91-.5-1.36-.73l-.46-.22-.92-.43-.57-.23-.86-.34-.61-.22-.85-.28-.64-.19-.87-.19-.65-.14-1-.21-1.27-.28-.67-.15-.87-.12-.65-.08-1-.1-.52,0-1.05-.07-.42,0-1.17,0L147,89a49.71,49.71,0,0,0-5.22.23h-.14a4.05,4.05,0,0,0-1,0,2.77,2.77,0,0,0-.4.1l-.08,0-.09,0q-1.43.17-2.84.46a73.63,73.63,0,0,1-21.87.4C101,88.58,89.92,77.16,86.87,73.7c-1.54-1.75-3.15-3.49-4.93-5.31l-.77-.84.12-.62,0-.25a7.86,7.86,0,0,0,0-2.28l0-.32.08-.44-.05.28.49-2.61,1.94-.06a4.23,4.23,0,0,0,1.69,2.41,15,15,0,0,0,1.93,1.18c.37.2.75.4,1.11.62s.79.5,1.16.75l-.89-.86,1.37-.78a5.74,5.74,0,0,1,1.76-.6,12.7,12.7,0,0,1,2.77-.09l.61,0a25.79,25.79,0,0,1,6.19.81c-1.25-.41-2.47-.84-3.68-1.27l.62-2a2.51,2.51,0,0,0,1-.06h0l.87-.17.73-.14.34-.06,3.59-.43a6.2,6.2,0,0,1,.63,0,7.23,7.23,0,0,0,1-.07h.07a1.55,1.55,0,0,0-.31-.07,22.61,22.61,0,0,0-4.5.31l-.79.13-.28-.65a1.83,1.83,0,0,0-.47,0l-3.79.14a1.7,1.7,0,0,1-1.17-.26,1.84,1.84,0,0,1-.44-.51s-.12-.09-.48,0l-.43.1-5,1.4-.35-.29a11.35,11.35,0,0,1-3.26-4.84L85,55.31A8.28,8.28,0,0,0,82.66,52a2.85,2.85,0,0,0-.84-.4,1.3,1.3,0,0,0-.58-.06,1.5,1.5,0,0,0-.53.26c-1.58,1.12-2.27,3.43-2.8,5.51-.42,1.65-.72,2.9-.94,4.12l-.36,1.92-1.29-1.45c-.84-.86-1.83-1.77-2.75-2.68L72.41,59c-4.32-4.29-11.64-10.61-17.89-14.33a96.22,96.22,0,0,1-10-7L44,37.36c-1.15-.89-2.05-1.6-2.73-2a9.08,9.08,0,0,1-1.25-1.06c-.39-.39-.84-.86-1.3-1.37l-1-1.13,1.27-.6A22,22,0,0,0,45.51,27c.62-.63,1-1.25.88-1.63s-.56-.65-1-.92l-2.43-1.4a9.29,9.29,0,0,1-3.86-3.39v.36l-1.9-2.85a11.12,11.12,0,0,1-.94-1.67c0,.05-.62,2.65-.62,2.65L34.12,15.5l-.62.45q.64.94,1.31,1.84l-.92,1,2.71,2.59a10,10,0,0,0,2.9,2.19A2.82,2.82,0,0,1,41.17,25a1.78,1.78,0,0,1-.05,1.36,2.24,2.24,0,0,1-.66.8l-3.78,3.17-.61-.84A53.8,53.8,0,0,1,30,18.74c-2.6-6.43-9.07-12.35-9.14-12.41l-.13-.11-.09-.16a6.23,6.23,0,0,0-6-3.65,13.24,13.24,0,0,1-3.4-.34L8.6,1.59,6.53,1.21,5.69,1a1.55,1.55,0,0,0-.51,0A3.24,3.24,0,0,0,3.3,2.68a5.63,5.63,0,0,0-.4.77c-.68,1.79.68,5.72,3.71,10.76,1.39,2.27,2.58,3.94,2.57,4l.08.1,0,.12c1.92,4.42,6.41,10.2,7.08,11a30.45,30.45,0,0,1,8.15,9.36l.23.43.51,1-.91.51c-.31.18-.64.39-.94.6l-.21.14A17.41,17.41,0,0,1,20,43.1a5.19,5.19,0,0,1-1,.31,2.66,2.66,0,0,1-.83,0,2.91,2.91,0,0,1-1.42-.66,8.31,8.31,0,0,1-.66-.6l-.2-.18A8.21,8.21,0,0,0,14.3,40.9c-.41-.23-.83-.47-1.24-.76a7.21,7.21,0,0,1-2.29-3.21l-.28-.58-.93.69L5.72,32.41a2.3,2.3,0,0,0-.62-.6l-.13,0L4.75,32q.47.53.9,1.09l.3.4L5,34.41a4.75,4.75,0,0,1,.63.52,24.31,24.31,0,0,1,3.77,4.57l1.83,2.84-.41-.17a3.31,3.31,0,0,1,.34.32,5.35,5.35,0,0,1,.36.46l.2.27a3.48,3.48,0,0,0,.68.53l.41.27A11.55,11.55,0,0,1,15,46.22l.2.25a12.17,12.17,0,0,0,.83.93,3.28,3.28,0,0,0,2.57,1.17,1.68,1.68,0,0,0,.31-.08,5.15,5.15,0,0,0,1.5-1.12l.22-.21a22.41,22.41,0,0,1,3.82-2.83L25,44l.51.43c2.34,1.95,6.48,6.34,11.27,11.41,3.15,3.34,6.41,6.81,9.48,9.88,3.24,3.27,8.53,6,15.27,8l-.1,2.08h0a2.45,2.45,0,0,0-.74.23,3.12,3.12,0,0,0-1.39,2.35,7.09,7.09,0,0,0,.47,3.21,17.73,17.73,0,0,0,1.28,2.81,23.05,23.05,0,0,0,2.62,3.73l.09.11A5.88,5.88,0,0,1,65,90.28a6.73,6.73,0,0,1,.21,2.14,3,3,0,0,0,0,.72,5.47,5.47,0,0,0,.44,1.94l.07-.37L67,96.22a7,7,0,0,0,5.22,2.63l.07-.36-.93-.41a3.7,3.7,0,0,1-2.47-2.53l-.45-2.26,1.89,1.13a9.34,9.34,0,0,0,4.18,1A9.14,9.14,0,0,1,73.13,95a6.67,6.67,0,0,1-4.23-5.63L68.82,88l.08,0-.1,0a6.17,6.17,0,0,1-1.3-1.82L67,85.26a38.45,38.45,0,0,1-1.87-4.47l-.83-2.43,2.17,1.07a2.37,2.37,0,0,0,1,.06c.52,0,1-.1,1.58-.15a19.85,19.85,0,0,1,3.6-.18,2.46,2.46,0,0,0,.61,0c.45-.08.51-.27.55-.36l.42-1.19,1.05.71h0c7.17,5.33,25.7,17.8,42.24,18a57.33,57.33,0,0,0,9.51-.55l.25,0a23.24,23.24,0,0,0,3.39-1,25.12,25.12,0,0,1,3.67-1l.44-.07.69-.09.14,0,.21,0,.19,0,.82-.1.62-.07.94-.09q1.24-.11,2.46-.18l.64,0q1.48-.07,3-.07h.66q1.22,0,2.45.06l.79,0,1.7.11.81.06c.83.07,1.67.16,2.49.26a23.57,23.57,0,0,1,5.86,1.28c4.55,1.81,8,5.07,11.3,8.2l1.85,1.81a61.59,61.59,0,0,0,5.26,4.4C179.24,110.33,181,111.52,183.11,112.91Z"/>
</svg>