<svg id="Layer_1" data-name="Layer 1" xmlns="http://www.w3.org/2000/svg" viewBox="0 0 191.41 118.86">
    <defs>
        <style>.cls-1{fill:#525731;}.cls-2{fill:#81875d;}</style>
    </defs>
    <title>lizard</title>
    <path class="cls-1"
          d="M186.28,33.71A22.37,22.37,0,0,0,182.76,38a11.29,11.29,0,0,0,2.13-1.42,4.34,4.34,0,0,1,2.34-1,2.24,2.24,0,0,1,2.11,1.28c0,.13-.16.13-.25.06a1.58,1.58,0,0,1-.2-.27c-.23-.29-.62-.23-1-.06a2.21,2.21,0,0,0-.35.22,34,34,0,0,1-5.31,3.34,6.81,6.81,0,0,0-.9.52A2.48,2.48,0,0,0,181,41c-.2.21-.34.47-.53.69a7,7,0,0,1-1.24.95,11.91,11.91,0,0,0-2.07,2.2c-.28.33-.56.66-.86,1a4,4,0,0,1-3.89,1.38,6.91,6.91,0,0,1-2.12-1.36,21.71,21.71,0,0,0-3.85-2.44c-3.76,3.15-12.72,13.19-20.28,20.79-4,4-10.26,6.69-15.65,8.35h0a3.58,3.58,0,0,1,1.09.25,3.89,3.89,0,0,1,2.08,2.91,7.32,7.32,0,0,1-.41,3.54A17.09,17.09,0,0,1,132,82.12a22.72,22.72,0,0,1-2.64,3.79,5,5,0,0,0-1.13,1.73,8.87,8.87,0,0,0-.08,2.43,5.67,5.67,0,0,1-1.9,4.24.91.91,0,0,0,0-.65,8.3,8.3,0,0,1-7.08,3l1.06-.62-7.67,1.62,8.07-3.65c.8-.36,1.69-.84,1.85-1.73a11.74,11.74,0,0,1-5.08,1.26,84.59,84.59,0,0,1-9.61.32c-1.3,0-2.82-.21-3.62-1.32a9.54,9.54,0,0,1,3.24-.44L112.8,92a16.27,16.27,0,0,0,6-.88,5.37,5.37,0,0,0,3.49-4.55,14.87,14.87,0,0,1-9.82-1.34l6.27.18c1.39,0,2.9,0,3.91-.86a5,5,0,0,0,1-1.46l.45-.88a33.84,33.84,0,0,0,1.71-4.16,3.17,3.17,0,0,1-1.51.2,39.9,39.9,0,0,0-5.17-.12,2,2,0,0,1-2.2-.92h0c-7.05,5.27-25.7,17.91-42.8,18.7a64.85,64.85,0,0,1-9.83-.18c-2.74-.3-5.15-1.44-7.92-1.7l-.61,0a3,3,0,0,1-.65,0l-.74-.06-.63,0-.94,0q-1.24-.05-2.47-.07h-.64q-1.49,0-3,0l-.66,0q-1.22.06-2.44.15l-.79.06-1.7.17-.81.08c-.84.1-1.67.21-2.49.33A24.63,24.63,0,0,0,32.2,96c-5.21,2.13-8.74,6-12.75,9.71A62.86,62.86,0,0,1,14.16,110c-1.83,1.36-3.73,2.64-5.63,3.89-1.27.82-2.55,1.65-3.84,2.47l-1.13.7a19.06,19.06,0,0,1-3,1.55c-.19.07-.36.17-.55.22a122.63,122.63,0,0,0,14-13.42c3.06-3.35,5.83-7.12,9.23-10.09a24.25,24.25,0,0,1,3.67-2.67c.49-.28.92-.52,1.4-.77l.48-.24.92-.45.59-.25.94-.37.63-.23.88-.31.66-.22.9-.22.67-.16,1-.25,1.29-.31.69-.17,1-.17.6-.09,1-.13.54-.06,1.09-.1.42,0,1.21-.07.12,0a43.59,43.59,0,0,1,5.4,0,4.85,4.85,0,0,1,1.72.12c1,.1,2,.2,2.94.32A80.32,80.32,0,0,0,76,88.06c12.38-1.72,22.61-10.37,27.81-16.26,1.66-1.89,3.29-3.61,4.85-5.23l.36-.38h0l-.08-.32a7.94,7.94,0,0,1-.07-2.47l0-.13h0l-.57-2.38h0l0-.07a4.92,4.92,0,0,1-2,3,33.79,33.79,0,0,1-3.18,1.84,33,33,0,0,0-6.78,6,8.63,8.63,0,0,0-2.11,3,2.46,2.46,0,0,1-.33-.73h0a3.25,3.25,0,0,1,.22-2.11,7.77,7.77,0,0,1,1.79-2.24L100.59,65h-.06c-1.54-.71-3.13-.47-4.77-.36a27.09,27.09,0,0,0-6.2,1A34.43,34.43,0,0,1,79.44,67a2.29,2.29,0,0,0-1.58.38,2.18,2.18,0,0,1,.55-.82,3.41,3.41,0,0,1,1.56-.8,20.27,20.27,0,0,1,2.79-.27,19.52,19.52,0,0,0,4.41-1.06q2.78-.95,5.62-2a3.64,3.64,0,0,1-1.53,0c-.71-.09-1.44-.24-1.94-.28l-3.66-.27c-.71-.08-2.35.16-2.79-.61a.94.94,0,0,1-.12-.52c0-.63,1-1,1.56-1a25.6,25.6,0,0,1,4.76.13h.06a.69.69,0,0,1,.09-.18,1.56,1.56,0,0,1,1.26-.41h3.87a.89.89,0,0,0,.54-.13,1.7,1.7,0,0,0,.27-.36c.41-.53,1.23-.43,1.91-.27l3.36.75,1.3.29a11,11,0,0,0,3-4.57h0l.13-.3A8.65,8.65,0,0,1,107.45,51a4,4,0,0,1,1.1-.54,2.28,2.28,0,0,1,1.13-.1,2.57,2.57,0,0,1,.84.35c1.92,1.18,2.78,3.51,3.46,5.65.4,1.26.79,2.55,1.1,3.85h0l2.76-2.72.16-.16a107.53,107.53,0,0,1,17.85-14.29,96.08,96.08,0,0,0,9.8-6.85c1.35-1,2.44-1.91,3.24-2.45a8.15,8.15,0,0,0,1.09-.93,16.9,16.9,0,0,0,1.21-1.32h0a23.68,23.68,0,0,1-7-3.84,2.9,2.9,0,0,1-1.27-2.44,2.62,2.62,0,0,1,1.48-1.58l1.81-1,.66-.38A7.89,7.89,0,0,0,150.4,19a6.17,6.17,0,0,0,.43-2.51,29,29,0,0,1,0-4.36,8.85,8.85,0,0,1,1.3,4.67c2-3,1.88-7,3.11-10.48,1,3-1.27,6.2-.38,9.28A39.14,39.14,0,0,1,160,8.37a3.9,3.9,0,0,1-.71,2.17l-2.85,5.28a13.74,13.74,0,0,1,3.69-3.61,45.94,45.94,0,0,1-3.94,6.22,3.8,3.8,0,0,1,2.91-1L154.38,22a10.84,10.84,0,0,1-3.17,2.37c-.6.21-1.36.73-1,1.34a1.24,1.24,0,0,0,.4.39l3.13,2.26h0a49,49,0,0,0,5.72-10.13c2.52-6.42,9.13-12.42,9.13-12.42a7.37,7.37,0,0,1,7-4.18,15.77,15.77,0,0,0,3.16-.43c1.53-.3,3.32-.69,4.71-.92l.86-.21c1.67-.3,2.86,1,3.52,1.88a6.1,6.1,0,0,1,.47.82c1.13,2.6-1.37,7.63-3.47,11.23a42.63,42.63,0,0,1-2.59,3.85l0,.09c-2,4.7-7,10.95-7,10.95a28.23,28.23,0,0,0-7.78,8.88l-.21.39h0l1.25.73a17.16,17.16,0,0,0,3.13,1.39,3,3,0,0,0,1.47.23,2.09,2.09,0,0,0,.92-.46c.27-.22.52-.48.77-.71a24.5,24.5,0,0,1,2.94-1.94,6.07,6.07,0,0,0,1.91-2.77,12.33,12.33,0,0,1,1.9-3,4.2,4.2,0,0,1-.54,2.89L184.69,30a2.92,2.92,0,0,1,1-.92,1.25,1.25,0,0,1,.38-.09,1.07,1.07,0,0,1,.78.2l.09.09,1.47-1.19a1.57,1.57,0,0,1,.92-.45.73.73,0,0,1,.44.17.54.54,0,0,1,.22.57,15.92,15.92,0,0,0-3.66,3.52l-.26.36c1-1.06,2.85-.71,4.05.26a2.85,2.85,0,0,1,1.18,3,6.26,6.26,0,0,0-2.7-2.18,2.21,2.21,0,0,0-1.36-.2A2.32,2.32,0,0,0,186.28,33.71Z"/>
    <path class="cls-2"
          d="M13.61,109.27a61.63,61.63,0,0,0,5.19-4.34l1.81-1.78c3.26-3.08,6.62-6.28,11.18-8.15a25.48,25.48,0,0,1,5.9-1.42c.83-.13,1.68-.24,2.52-.34l.82-.08L42.75,93l.8-.06q1.24-.09,2.48-.14l.67,0q1.51-.05,3,0h.65q1.25,0,2.51.08l1,0,.63,0,.84.07.19,0h.22l.14,0,.7.06.45,0a27,27,0,0,1,3.76.84,25,25,0,0,0,3.48.78l.25,0a62.56,62.56,0,0,0,9.67.17c16.78-.75,35.15-13.19,42.24-18.48h0l1-.7L118,76.8c0,.08.11.26.57.32a2.68,2.68,0,0,0,.62,0,21.67,21.67,0,0,1,3.66,0c.56,0,1.08.07,1.6.09a2.58,2.58,0,0,0,1-.09l2.16-1.09-.76,2.32a34.92,34.92,0,0,1-1.75,4.28l-.46.9a5.85,5.85,0,0,1-1.25,1.76l-.1,0,.08,0,0,1.27a6.37,6.37,0,0,1-4.1,5.47,9.78,9.78,0,0,1-1.36.46,10.06,10.06,0,0,0,4.2-1.11l1.88-1.13-.38,2.15a3.64,3.64,0,0,1-2.42,2.48l-.93.42.08.34A7.28,7.28,0,0,0,125.5,93l1.17-1.48.08.35a4.86,4.86,0,0,0,.38-1.84,2.6,2.6,0,0,0,0-.68,5.93,5.93,0,0,1,.14-2,5.5,5.5,0,0,1,1.23-2l.09-.1a21.8,21.8,0,0,0,2.52-3.61,16.18,16.18,0,0,0,1.2-2.7,6.27,6.27,0,0,0,.37-3,2.92,2.92,0,0,0-1.5-2.16,2.62,2.62,0,0,0-.75-.19h0l-.17-2c6.77-2.09,12-4.9,15.22-8.1,3-3,6.19-6.4,9.28-9.67,4.69-5,8.74-9.25,11-11.17l.51-.42.58.29a22.76,22.76,0,0,1,4,2.53l.23.19a5.23,5.23,0,0,0,1.56,1l.31.07a3.44,3.44,0,0,0,2.57-1.2,11.8,11.8,0,0,0,.81-.91l.2-.24a11.3,11.3,0,0,1,2.09-2.15l.41-.27a3.51,3.51,0,0,0,.68-.52l.19-.26a5.11,5.11,0,0,1,.35-.44,3.27,3.27,0,0,1,.33-.32l-.41.17,1.76-2.75A23.37,23.37,0,0,1,185.6,33a4.76,4.76,0,0,1,.62-.51l-1-.8.29-.39q.41-.55.88-1.07l-.23-.23-.13,0a2.26,2.26,0,0,0-.61.59l-3.73,4.52-1-.62-.27.56a6.84,6.84,0,0,1-2.21,3.11c-.41.29-.83.53-1.24.76a8.38,8.38,0,0,0-1.6,1.09l-.19.18a8.24,8.24,0,0,1-.65.59,3.06,3.06,0,0,1-1.42.67,2.9,2.9,0,0,1-.84,0,5.57,5.57,0,0,1-1-.25A18.2,18.2,0,0,1,168,39.73l-.21-.12c-.31-.18-.64-.37-1-.53l-.94-.45.49-.92.22-.41a29.45,29.45,0,0,1,7.95-9.12c.65-.81,5-6.43,6.8-10.67l0-.11.08-.1s1.14-1.63,2.47-3.83c2.9-4.87,4.14-8.63,3.39-10.29a5.2,5.2,0,0,0-.43-.71,3.23,3.23,0,0,0-2-1.48,1.69,1.69,0,0,0-.52,0l-.85.2-2.09.43-2.63.54a14.42,14.42,0,0,1-3.44.45,6.38,6.38,0,0,0-6,3.66l-.09.15-.13.11c-.07.06-6.43,5.87-8.85,12a49.91,49.91,0,0,1-5.83,10.35l-.59.81L150,26.88a2.16,2.16,0,0,1-.7-.73,1.57,1.57,0,0,1-.1-1.28,2.81,2.81,0,0,1,1.64-1.42,10.08,10.08,0,0,0,2.87-2.17l2.66-2.54-1-.87q.65-.88,1.27-1.79l-.64-.4-1.44,2.58-.72-2.47a10.31,10.31,0,0,1-.9,1.61l-1.83,2.76v-.34a9.25,9.25,0,0,1-3.8,3.34l-2.42,1.41c-.46.27-.94.55-1,.9s.29.93.95,1.5a22.63,22.63,0,0,0,6.71,3.67l1.31.52-1,1.11c-.45.5-.89,1-1.27,1.34a9.07,9.07,0,0,1-1.23,1c-.67.45-1.56,1.15-2.7,2l-.49.37a98,98,0,0,1-9.89,6.92A107,107,0,0,0,118.7,58.11l-.16.15c-.91.89-1.87,1.79-2.7,2.63l-1.25,1.41-.43-1.8c-.27-1.14-.62-2.31-1.1-3.85-.61-1.94-1.4-4.1-3-5.1a1.58,1.58,0,0,0-.55-.23,1.42,1.42,0,0,0-.59.08,3,3,0,0,0-.84.41,7.84,7.84,0,0,0-2.3,3.25l-.26.59a10.7,10.7,0,0,1-3.14,4.68l-.34.29-5.1-1.14-.44-.08a.71.71,0,0,0-.48,0,1.78,1.78,0,0,1-.43.49,1.84,1.84,0,0,1-1.18.28H90.52a2,2,0,0,0-.47,0l-.26.62-.8-.09a24.66,24.66,0,0,0-4.58-.13,1.68,1.68,0,0,0-.31.07l.07,0a7.89,7.89,0,0,0,1,0c.24,0,.47,0,.64,0l3.65.27.35,0,.75.11.88.13h0a2.73,2.73,0,0,0,1,0l.7,1.89c-1.21.45-2.44.9-3.69,1.33a28,28,0,0,1,6.26-1l.62,0a13.86,13.86,0,0,1,2.81,0,6.14,6.14,0,0,1,1.81.5l1.42.69-.88.84c.37-.25.8-.53,1.16-.75s.73-.42,1.1-.63A15.51,15.51,0,0,0,105.66,63a4,4,0,0,0,1.63-2.34h2l.59,2.44-.06-.26.1.41,0,.31a6.91,6.91,0,0,0,.06,2.15l.06.23.14.58-.75.82c-1.74,1.78-3.32,3.48-4.82,5.19-3,3.37-13.82,14.55-28.42,16.59a80.35,80.35,0,0,1-22.21.41q-1.44-.22-2.9-.33l-.09,0-.08,0-.41-.08a4.42,4.42,0,0,0-1,0l-.07,0-.07,0c-1.8-.1-3.59-.1-5.3,0l-.11,0-1.19.07-.42,0-1.07.1-.53.06-1,.13-.66.1-.88.14-.67.16-1.28.31-1,.23-.65.16-.87.21-.64.21-.85.3-.61.23-.86.35-.57.24-.92.44-.46.22c-.45.23-.91.48-1.35.74A23.08,23.08,0,0,0,24,96.12a61,61,0,0,0-6.15,6.56c-1,1.15-2,2.33-3,3.45-2.31,2.53-4.48,4.79-6.59,6.83C10.34,111.55,12.05,110.37,13.61,109.27Z"/>
</svg>