<svg id="Layer_1" data-name="Layer 1" xmlns="http://www.w3.org/2000/svg" viewBox="0 0 193.15 118.85">
    <defs>
        <style>.cls-1{fill:#525731;}.cls-2{fill:#81875d;}</style>
    </defs>
    <title>lizard</title>
    <path class="cls-1"
          d="M5.18,85.14a22.41,22.41,0,0,0,3.56-4.25,11.4,11.4,0,0,0-2.15,1.42,4.4,4.4,0,0,1-2.36,1A2.26,2.26,0,0,1,2.1,82c0-.13.17-.13.25-.06a1.58,1.58,0,0,1,.2.27c.24.29.63.23,1,.06a2.23,2.23,0,0,0,.35-.22,34.33,34.33,0,0,1,5.35-3.34,6.89,6.89,0,0,0,.91-.52,2.49,2.49,0,0,0,.39-.35c.2-.21.34-.47.54-.69a7.05,7.05,0,0,1,1.25-.95A12,12,0,0,0,14.41,74c.28-.33.57-.66.87-1a4.05,4.05,0,0,1,3.93-1.38A7,7,0,0,1,21.34,73a21.94,21.94,0,0,0,3.89,2.44C29,72.34,38.06,62.29,45.69,54.7c4-4,10.35-6.69,15.79-8.35h0a3.64,3.64,0,0,1-1.1-.25,3.9,3.9,0,0,1-2.09-2.91,7.26,7.26,0,0,1,.41-3.54A17,17,0,0,1,60,36.74,22.71,22.71,0,0,1,62.64,33a5,5,0,0,0,1.14-1.73,8.78,8.78,0,0,0,.08-2.43,5.65,5.65,0,0,1,1.92-4.24.9.9,0,0,0,0,.65,8.41,8.41,0,0,1,7.15-3l-1.07.62,7.74-1.62-8.14,3.65c-.81.36-1.71.84-1.86,1.73a11.93,11.93,0,0,1,5.13-1.26A86.14,86.14,0,0,1,84.37,25c1.31,0,2.85.21,3.65,1.32a9.71,9.71,0,0,1-3.26.44l-5.43.11a16.56,16.56,0,0,0-6.07.88,5.38,5.38,0,0,0-3.53,4.55,15.13,15.13,0,0,1,9.91,1.34l-6.33-.18c-1.4,0-2.92,0-3.94.86a5,5,0,0,0-1,1.46l-.45.88a33.66,33.66,0,0,0-1.72,4.16,3.23,3.23,0,0,1,1.53-.2,40.64,40.64,0,0,0,5.21.12,2,2,0,0,1,2.22.92h0c7.12-5.27,25.93-17.91,43.19-18.69a66,66,0,0,1,9.92.18c2.77.3,5.2,1.44,8,1.7l.61,0a3,3,0,0,1,.66,0l.75.06.63,0,1,0q1.25.05,2.5.07H143q1.5,0,3,0l.67,0q1.23-.06,2.46-.15l.8-.06,1.71-.17.82-.08c.85-.1,1.68-.21,2.51-.33a25,25,0,0,0,5.73-1.37c5.26-2.13,8.82-6,12.86-9.71a63.31,63.31,0,0,1,5.33-4.36c1.85-1.36,3.76-2.64,5.69-3.89,1.28-.82,2.58-1.65,3.87-2.47l1.14-.7a19.29,19.29,0,0,1,3-1.55c.19-.07.36-.17.56-.22A123.26,123.26,0,0,0,179,13.42c-3.09,3.35-5.88,7.12-9.31,10.09a24.46,24.46,0,0,1-3.7,2.67c-.49.28-.93.52-1.41.77l-.48.24-.93.45-.59.25-.95.37-.64.23-.89.31-.66.22-.91.22-.68.16-1,.25-1.3.31-.7.17-1,.17-.61.09-1,.13-.55.06-1.1.1-.43,0-1.22.07-.12,0a44.39,44.39,0,0,1-5.45,0,4.94,4.94,0,0,1-1.74-.12c-1-.1-2-.2-3-.32a81.79,81.79,0,0,0-22.12.48C104,32.53,93.69,41.17,88.44,47.06c-1.68,1.89-3.32,3.61-4.9,5.22l-.37.38h0l.08.32a7.87,7.87,0,0,1,.07,2.47l0,.13h0L83.88,58h0l0,.07a4.91,4.91,0,0,1,2-3,34.18,34.18,0,0,1,3.21-1.84,33.2,33.2,0,0,0,6.84-6,8.63,8.63,0,0,0,2.13-3,2.45,2.45,0,0,1,.33.73h0A3.22,3.22,0,0,1,98.22,47a7.78,7.78,0,0,1-1.8,2.24l-4.76,4.62h.06c1.55.71,3.16.47,4.82.36a27.57,27.57,0,0,0,6.25-1A35,35,0,0,1,113,51.9a2.32,2.32,0,0,0,1.6-.38,2.18,2.18,0,0,1-.56.82,3.45,3.45,0,0,1-1.57.8,20.64,20.64,0,0,1-2.82.27,19.85,19.85,0,0,0-4.45,1.06q-2.81.95-5.67,2a3.71,3.71,0,0,1,1.55,0c.72.09,1.46.24,2,.28l3.7.27c.71.08,2.37-.16,2.81.61a.94.94,0,0,1,.12.52c0,.63-1,1-1.57,1a26.07,26.07,0,0,1-4.8-.13h-.06a.69.69,0,0,1-.09.18,1.58,1.58,0,0,1-1.27.41H98a.9.9,0,0,0-.55.13,1.7,1.7,0,0,0-.27.36c-.41.53-1.24.43-1.93.27l-3.39-.75L90.5,59.3a11,11,0,0,0-3,4.57h0l-.13.3a8.65,8.65,0,0,1-2.66,3.66,4,4,0,0,1-1.11.54,2.33,2.33,0,0,1-1.14.1,2.6,2.6,0,0,1-.84-.35c-1.93-1.18-2.81-3.51-3.49-5.65-.4-1.26-.79-2.55-1.11-3.85h0l-2.78,2.72-.16.16a108.34,108.34,0,0,1-18,14.29,97,97,0,0,0-9.89,6.85c-1.36,1-2.46,1.91-3.27,2.45a8.2,8.2,0,0,0-1.1.93,17,17,0,0,0-1.23,1.32h0a24,24,0,0,1,7.06,3.84,2.9,2.9,0,0,1,1.29,2.44,2.63,2.63,0,0,1-1.49,1.58l-1.82,1-.66.38a7.94,7.94,0,0,0-3.58,3.2,6.12,6.12,0,0,0-.43,2.51,28.74,28.74,0,0,1,0,4.36A8.79,8.79,0,0,1,39.62,102c-2,3-1.9,7-3.14,10.48-1-3,1.28-6.19.38-9.27a39.13,39.13,0,0,1-5.13,7.24,3.87,3.87,0,0,1,.72-2.17L35.31,103a13.81,13.81,0,0,1-3.72,3.61,45.87,45.87,0,0,1,4-6.22,3.86,3.86,0,0,1-2.94,1l4.75-4.51a10.94,10.94,0,0,1,3.2-2.37c.6-.21,1.37-.73,1-1.34a1.25,1.25,0,0,0-.4-.39l-3.16-2.26h0a48.85,48.85,0,0,0-5.77,10.13c-2.54,6.42-9.21,12.42-9.21,12.42a7.45,7.45,0,0,1-7,4.18,16.06,16.06,0,0,0-3.18.43c-1.55.3-3.35.69-4.76.92l-.86.21c-1.68.3-2.88-1-3.56-1.88a6.09,6.09,0,0,1-.48-.82c-1.14-2.6,1.38-7.63,3.51-11.22A42.61,42.61,0,0,1,9.34,101l0-.09c2-4.69,7-10.95,7-10.95a28.3,28.3,0,0,0,7.85-8.88l.22-.39h0L23.22,80a17.4,17.4,0,0,0-3.16-1.39,3.1,3.1,0,0,0-1.49-.23,2.11,2.11,0,0,0-.93.46c-.27.22-.53.48-.78.71a24.75,24.75,0,0,1-3,1.94A6.07,6.07,0,0,0,12,84.25a12.31,12.31,0,0,1-1.92,3,4.17,4.17,0,0,1,.55-2.89L6.79,88.87a2.94,2.94,0,0,1-1.05.92,1.27,1.27,0,0,1-.38.09,1.09,1.09,0,0,1-.79-.2l-.09-.09L3,90.78a1.59,1.59,0,0,1-.93.45.74.74,0,0,1-.45-.17.54.54,0,0,1-.22-.57A16,16,0,0,0,5.08,87l.27-.36c-1,1.06-2.88.71-4.09-.26a2.83,2.83,0,0,1-1.19-3,6.3,6.3,0,0,0,2.73,2.18,2.24,2.24,0,0,0,1.38.2A2.34,2.34,0,0,0,5.18,85.14Z"/>
    <path class="cls-2"
          d="M179.42,9.6a62.06,62.06,0,0,0-5.24,4.34l-1.83,1.78c-3.29,3.08-6.68,6.28-11.28,8.15a25.91,25.91,0,0,1-6,1.42c-.84.13-1.69.24-2.54.34l-.83.08-1.73.17-.81.06q-1.25.09-2.51.14l-.68,0q-1.52.05-3,0h-.66q-1.26,0-2.53-.08l-1,0-.63,0-.85-.07-.19,0h-.22l-.14,0-.71-.06-.46,0a27.5,27.5,0,0,1-3.79-.84,25.44,25.44,0,0,0-3.51-.78l-.26,0a63.71,63.71,0,0,0-9.76-.17c-16.93.75-35.47,13.19-42.63,18.48h0l-1.05.7-.48-1.11c0-.08-.12-.26-.57-.32a2.73,2.73,0,0,0-.62,0,22.07,22.07,0,0,1-3.69,0c-.57,0-1.09-.07-1.62-.09a2.63,2.63,0,0,0-1,.09L64.42,42.8l.76-2.32a34.73,34.73,0,0,1,1.76-4.28l.47-.9a5.85,5.85,0,0,1,1.26-1.76l.1,0-.08,0,0-1.27a6.37,6.37,0,0,1,4.13-5.46,9.93,9.93,0,0,1,1.37-.46A10.22,10.22,0,0,0,70,27.43L68.1,28.57l.38-2.15c.26-1.5,1.73-2.16,2.44-2.48l.94-.42-.08-.34a7.37,7.37,0,0,0-5.25,2.67l-1.18,1.48L65.26,27a4.82,4.82,0,0,0-.38,1.84,2.58,2.58,0,0,0,0,.68,5.87,5.87,0,0,1-.14,2,5.49,5.49,0,0,1-1.24,2l-.09.1a21.79,21.79,0,0,0-2.55,3.61,16.11,16.11,0,0,0-1.21,2.7,6.21,6.21,0,0,0-.37,3,2.92,2.92,0,0,0,1.51,2.16,2.67,2.67,0,0,0,.76.19h0l.17,2c-6.84,2.09-12.15,4.9-15.36,8.1-3,3-6.25,6.4-9.36,9.67-4.73,5-8.82,9.25-11.14,11.17l-.51.42-.59-.29a23,23,0,0,1-4-2.53l-.23-.19a5.28,5.28,0,0,0-1.57-1l-.32-.07A3.48,3.48,0,0,0,16,73.74a11.84,11.84,0,0,0-.82.91l-.2.24A11.35,11.35,0,0,1,12.9,77l-.41.27a3.54,3.54,0,0,0-.68.52l-.2.26a5.12,5.12,0,0,1-.35.44,3.29,3.29,0,0,1-.34.32l.41-.17L9.57,81.44a23.41,23.41,0,0,1-3.71,4.45,4.79,4.79,0,0,1-.62.51l1,.8-.29.39q-.42.55-.88,1.07l.23.23.13,0A2.27,2.27,0,0,0,6,88.26l3.76-4.52,1,.62L11,83.8a6.84,6.84,0,0,1,2.23-3.11c.42-.29.84-.53,1.25-.76a8.46,8.46,0,0,0,1.61-1.09l.19-.18a8.29,8.29,0,0,1,.66-.59,3.1,3.1,0,0,1,1.43-.67,3,3,0,0,1,.85,0,5.66,5.66,0,0,1,1,.25,18.45,18.45,0,0,1,3.34,1.47l.22.12c.31.18.65.37,1,.53l.95.45-.49.92-.22.41a29.53,29.53,0,0,1-8,9.12c-.65.81-5.05,6.42-6.87,10.67l0,.11-.08.1s-1.15,1.63-2.5,3.83c-2.93,4.87-4.18,8.63-3.42,10.29a5.19,5.19,0,0,0,.43.71,3.25,3.25,0,0,0,2,1.48,1.72,1.72,0,0,0,.53,0l.85-.2,2.11-.43,2.65-.54a14.67,14.67,0,0,1,3.47-.45,6.45,6.45,0,0,0,6-3.66l.09-.15.13-.11c.07-.06,6.49-5.87,8.93-12A49.78,49.78,0,0,1,37.2,89.93l.59-.81,4,2.85a2.17,2.17,0,0,1,.71.73,1.56,1.56,0,0,1,.1,1.28,2.83,2.83,0,0,1-1.66,1.42A10.16,10.16,0,0,0,38,97.58l-2.68,2.54,1,.87q-.66.88-1.28,1.79l.65.4,1.45-2.58.72,2.47a10.28,10.28,0,0,1,.91-1.61l1.84-2.76v.34a9.31,9.31,0,0,1,3.84-3.34l2.44-1.41c.46-.27.95-.55,1-.9s-.3-.93-1-1.5a22.9,22.9,0,0,0-6.77-3.67l-1.32-.52,1-1.11c.45-.5.9-1,1.28-1.34a9.13,9.13,0,0,1,1.24-1c.68-.45,1.58-1.15,2.72-2l.49-.37a99,99,0,0,1,10-6.92A107.82,107.82,0,0,0,73.38,60.75l.16-.15c.92-.89,1.89-1.79,2.72-2.63l1.27-1.41.44,1.8c.28,1.14.62,2.31,1.11,3.85.62,1.94,1.41,4.1,3.06,5.1a1.6,1.6,0,0,0,.55.23,1.44,1.44,0,0,0,.59-.08,3,3,0,0,0,.85-.41,7.84,7.84,0,0,0,2.32-3.25l.26-.59a10.7,10.7,0,0,1,3.17-4.68l.35-.29,5.15,1.14.44.08a.73.73,0,0,0,.49,0,1.79,1.79,0,0,1,.43-.49,1.87,1.87,0,0,1,1.19-.28h3.89a2,2,0,0,0,.48,0l.26-.62.81.09a25.11,25.11,0,0,0,4.62.13,1.7,1.7,0,0,0,.31-.07l-.07,0a8,8,0,0,0-1,0c-.25,0-.48,0-.65,0l-3.69-.27-.35,0-.75-.11-.89-.13h0a2.78,2.78,0,0,0-1,0l-.71-1.89c1.22-.45,2.46-.9,3.72-1.33a28.54,28.54,0,0,1-6.32,1l-.62,0a14.11,14.11,0,0,1-2.84,0,6.24,6.24,0,0,1-1.82-.5l-1.43-.69.89-.84c-.37.25-.8.53-1.17.75s-.74.42-1.11.63a15.67,15.67,0,0,0-1.93,1.18,4,4,0,0,0-1.64,2.34h-2l-.59-2.44.06.26-.1-.41,0-.31a6.85,6.85,0,0,0-.06-2.15L82.2,53l-.14-.58.76-.82c1.76-1.78,3.35-3.48,4.86-5.19,3-3.37,13.94-14.55,28.68-16.59a81.82,81.82,0,0,1,22.41-.41q1.45.22,2.92.33l.09,0,.08,0,.41.08a4.5,4.5,0,0,0,1,0l.07,0,.07,0c1.82.1,3.62.1,5.35,0l.11,0,1.2-.07.43,0,1.07-.1.54-.06,1-.13.66-.1.89-.14.68-.16,1.29-.31,1-.23.66-.16.88-.21.65-.21.86-.3.62-.23.87-.35.57-.24.93-.44.46-.22c.45-.23.92-.48,1.37-.74A23.28,23.28,0,0,0,169,22.74a61.25,61.25,0,0,0,6.2-6.56c1-1.15,2-2.33,3-3.45,2.33-2.53,4.53-4.79,6.65-6.83C182.72,7.31,181,8.49,179.42,9.6Z"/>
</svg>