<svg id="Layer_1" data-name="Layer 1" xmlns="http://www.w3.org/2000/svg" viewBox="0 0 44.59 15.4">
    <defs>
        <style>.cls-1{fill:#2e8cff;}</style>
    </defs>
    <title>slide-text</title>
    <path class="cls-1"
          d="M1.76,5.06a1.9,1.9,0,0,0,.42,1.26,2.45,2.45,0,0,0,1.07.74,11.58,11.58,0,0,0,1.46.42q.8.18,1.6.41a7,7,0,0,1,1.46.59A2.79,2.79,0,0,1,8.83,9.56a3.51,3.51,0,0,1,.42,1.78A3.82,3.82,0,0,1,8,14.16a4.54,4.54,0,0,1-3.32,1.2,5.55,5.55,0,0,1-3.4-1A3.1,3.1,0,0,1,0,11.76H1.92a2.18,2.18,0,0,0,.74,1.52,2.91,2.91,0,0,0,2,.58,3,3,0,0,0,2.08-.68,2.06,2.06,0,0,0,.77-1.59,2.11,2.11,0,0,0-.42-1.4A2.5,2.5,0,0,0,6,9.46,10.57,10.57,0,0,0,4.54,9q-.8-.17-1.6-.41A7,7,0,0,1,1.49,8,2.84,2.84,0,0,1,.42,6.93,3.61,3.61,0,0,1,0,5.12,3.56,3.56,0,0,1,1.24,2.29,4.75,4.75,0,0,1,4.46,1.22a5,5,0,0,1,3.17.93A3.63,3.63,0,0,1,9,4.72H7a2.05,2.05,0,0,0-.76-1.4,2.76,2.76,0,0,0-1.84-.58,2.92,2.92,0,0,0-1.89.59A2.09,2.09,0,0,0,1.76,5.06Z"/>
    <path class="cls-1" d="M11.92,15.22V.42h1.8v14.8Z"/>
    <path class="cls-1"
          d="M18.47,2.12a1.18,1.18,0,0,1-.87.36,1.15,1.15,0,0,1-.86-.36,1.22,1.22,0,0,1-.35-.88,1.21,1.21,0,0,1,.36-.88,1.21,1.21,0,0,1,1.72,0,1.2,1.2,0,0,1,.36.88A1.2,1.2,0,0,1,18.47,2.12Zm-1.78,13.1v-11h1.8v11Z"/>
    <path class="cls-1"
          d="M22.23,13.79a5.84,5.84,0,0,1-1.48-4.12,5.65,5.65,0,0,1,1.47-4.06,4.91,4.91,0,0,1,3.71-1.55,4.42,4.42,0,0,1,2.42.66,4.31,4.31,0,0,1,1.57,1.72v-6h1.82v14.8H29.94V13a4.34,4.34,0,0,1-4,2.42A4.83,4.83,0,0,1,22.23,13.79Zm6.62-1.07a4.11,4.11,0,0,0,1.08-3,4.11,4.11,0,0,0-1.08-3,3.47,3.47,0,0,0-2.59-1.12,3.54,3.54,0,0,0-2.59,1.08,4,4,0,0,0-1.08,2.94,4.24,4.24,0,0,0,1.09,3,3.51,3.51,0,0,0,5.18,0Z"/>
    <path class="cls-1"
          d="M39.28,15.4a5,5,0,0,1-3.8-1.56A5.77,5.77,0,0,1,34,9.72,5.7,5.7,0,0,1,35.5,5.61a5.09,5.09,0,0,1,3.85-1.55,5.07,5.07,0,0,1,3.8,1.47,5.15,5.15,0,0,1,1.44,3.75,6.91,6.91,0,0,1-.08,1.08H35.86a3.8,3.8,0,0,0,1,2.59,3.24,3.24,0,0,0,2.41.95,3.34,3.34,0,0,0,1.87-.5,3,3,0,0,0,1.12-1.32h1.94a5,5,0,0,1-1.77,2.38A5.12,5.12,0,0,1,39.28,15.4Zm2.43-8.89a3.52,3.52,0,0,0-4.79,0,3.74,3.74,0,0,0-1,2.55h6.83A3.44,3.44,0,0,0,41.72,6.51Z"/>
</svg>