<svg id="Layer_1" data-name="Layer 1" xmlns="http://www.w3.org/2000/svg" viewBox="0 0 40.71 14.04">
    <defs>
        <style>.cls-1{fill:#2e8cff;}</style>
    </defs>
    <title>turn-text</title>
    <path class="cls-1" d="M0,1.46V0H9V1.46H5.42v12.4H3.62V1.46Z"/>
    <path class="cls-1"
          d="M19.09,2.88h1.8v11h-1.8V12.1A3.75,3.75,0,0,1,15.54,14a4.08,4.08,0,0,1-3-1.21A4.64,4.64,0,0,1,11.33,9.4V2.88h1.78V9.1a3.58,3.58,0,0,0,.8,2.51,2.83,2.83,0,0,0,2.19.87,2.83,2.83,0,0,0,2.19-.87,3.58,3.58,0,0,0,.8-2.51Z"/>
    <path class="cls-1"
          d="M25.66,2.88V4.74A3.38,3.38,0,0,1,29,2.7V4.6h-.47a2.84,2.84,0,0,0-2.11.73,3.54,3.54,0,0,0-.72,2.53v6h-1.8v-11Z"/>
    <path class="cls-1"
          d="M32.95,2.88V4.66a3.77,3.77,0,0,1,3.54-2,4.08,4.08,0,0,1,3,1.21,4.67,4.67,0,0,1,1.21,3.45v6.5H38.92V7.66a3.59,3.59,0,0,0-.79-2.52,2.83,2.83,0,0,0-2.19-.86,2.86,2.86,0,0,0-2.2.86,3.56,3.56,0,0,0-.8,2.52v6.2h-1.8v-11Z"/>
</svg>