<svg id="Layer_1" data-name="Layer 1" xmlns="http://www.w3.org/2000/svg" viewBox="0 0 49.65 43.51"><defs><style>.cls-1{fill:#fde151;}.cls-2{fill:#ac0;}.cls-3{fill:#faba01;}.cls-4{fill:#8aa600;}.cls-5{fill:#3a2615;}</style></defs><title>Banana</title><path class="cls-1" d="M46,9.37c-1.2-1.49-1.12-4.75-.83-5.35a5.1,5.1,0,0,0,.61-1.44A7.82,7.82,0,0,0,44.15.79a2.82,2.82,0,0,0-3-.54,2.1,2.1,0,0,0-.66.61l-.07.36c-.54,2.71.66,3.12,1.15,4.08s1.21,4.79-.5,6.41C36.54,16,38.5,25.16,26.58,30c-6.14,2.48-12,1.35-15.78.73a52.68,52.68,0,0,0-7.86-.84c-.83.06-1.19-.24-1.53.12l-1.3,2.1c-.29.48,0,.79.68,1.74S1.94,39,9.15,41.59c19.32,7,39.15-6.1,40.45-22A13.85,13.85,0,0,0,46,9.37Z"/><path class="cls-2" d="M45.14,4a5.1,5.1,0,0,0,.61-1.44A7.82,7.82,0,0,0,44.15.79a4.31,4.31,0,0,0-.78-.48c-.14,1.78-.93,4.26-2.52,4a8.43,8.43,0,0,1,.73,1,8,8,0,0,1,.49,4.4c.25-.9,1.2-.74,1.68.08s.14-2.57,2.24-.4C44.77,7.88,44.85,4.62,45.14,4Z"/><path class="cls-2" d="M42,9.9h0s0,0,0-.07Z"/><path class="cls-2" d="M1.9,31.81a3.15,3.15,0,0,0,.49-2c-.46,0-.72-.14-1,.13l-1.3,2.1c-.22.37-.09.63.27,1.16A3,3,0,0,0,1.9,31.81Z"/><path class="cls-3" d="M46,9.37c-1.2-1.49-1.12-4.75-.83-5.35a5.1,5.1,0,0,0,.61-1.44A7.82,7.82,0,0,0,44.15.79,3.94,3.94,0,0,0,42.7.07c-.08.34-.16.76-.26,1.27-.58,2.91.57,3,1,4.07A8.58,8.58,0,0,1,43,12c-2.44,5,0,15.51-15.71,21.72-6.61,2.62-12.87,1.45-17,.79s-7.91-3.42-8.8-3.35a3.87,3.87,0,0,1-.84,0l-.61,1c-.29.48,0,.79.68,1.74S1.94,39,9.15,41.59c19.32,7,39.15-6.1,40.45-22A13.85,13.85,0,0,0,46,9.37Z"/><path class="cls-4" d="M45.14,4a5.1,5.1,0,0,0,.61-1.44A7.82,7.82,0,0,0,44.15.79,3.94,3.94,0,0,0,42.7.07c-.08.34-.16.76-.26,1.27-.58,2.91.57,3,1,4.07a8.3,8.3,0,0,1,.33,4.35h0c.51.88.14-2.57,2.24-.4C44.77,7.88,44.85,4.62,45.14,4Z"/><path class="cls-4" d="M1.55,31.13a3.87,3.87,0,0,1-.84,0l-.61,1c-.22.37-.09.63.27,1.16A3,3,0,0,0,1.9,31.81a4.44,4.44,0,0,0,.26-.53A1.55,1.55,0,0,0,1.55,31.13Z"/><ellipse class="cls-5" cx="0.96" cy="31.27" rx="1.27" ry="0.51" transform="translate(-26.66 16.57) rotate(-60.22)"/></svg>