<?xml version="1.0" encoding="utf-8"?>
<svg version="1.1" id="Layer_1"  xmlns="http://www.w3.org/2000/svg"
	 x="0px" y="0px" viewBox="0 0 542 431.5" enable-background="new -0.5 -0.5 377 375.5" xml:space="preserve">
<g id="bigEmptyJar">
	<g id="Scene_1_f0">
		<g id="Shape_shape_59">
			<path fill="#999999" d="M73.132,49.415l-1.662,0.51l-1.023,0.513l-0.894,0.638c-0.896,0.766-1.662,1.535-1.917,2.558v0.128
				l-0.128,0.256c-0.255,0.895-0.383,1.789-0.127,2.557v0.384c0.127,0.768,0.511,1.534,1.023,2.175
				c9.203,14.19,8.947,27.36-0.512,39.509C27.625,101.197,6.664,119.228,5,152.598v0.258v0.255v176.581v0.255v0.125
				c1.278,30.182,22.116,45.521,62.252,46.032v27.106c-0.128,0.642,0,1.279,0.128,1.92c0.256,1.149,1.023,2.176,2.173,3.067
				l1.277,0.765l2.429,0.897h0.511c131.022,26.854,264.09,26.854,399.331,0c1.151-0.124,2.3-0.511,3.322-1.022l1.024-0.767
				l1.278-1.15l0.511-0.896l0.514-1.149l0.128-1.664v-27.23c40.134-0.643,60.843-15.982,62.121-46.033v-0.131v-0.253V153.11v-0.255
				v-0.258c-1.791-33.37-22.754-51.4-62.763-54.084c-9.717-12.021-9.97-25.19-0.64-39.511l0.129-0.255
				c0.637-0.894,0.896-1.917,1.024-2.941c0-1.278-0.514-2.428-1.282-3.451l-2.171-1.79l-0.77-0.513
				c-1.149-0.511-2.427-0.766-3.831-0.766L75.816,49.158L73.132,49.415 M459.427,62.201c-7.289,16.623-4.351,31.965,8.946,46.414
				l2.686,1.79l3.32,0.766c32.853,1.279,50.108,15.346,51.513,41.939v176.325v0.256c-1.658,23.523-19.681,34.648-53.813,33.626
				c-1.533-0.126-2.94,0.13-4.219,0.767c-1.277,0.511-2.299,1.276-3.068,2.429c-0.766,1.023-1.148,2.045-1.148,3.198v28.896
				c-128.853,24.804-255.782,24.934-380.668,0v-28.896c0-1.153-0.383-2.301-1.151-3.198c-0.767-1.021-1.789-1.787-3.068-2.429
				c-1.277-0.637-2.684-0.893-4.218-0.767c-34.257,1.022-52.153-10.103-53.815-33.626v-0.256V153.493v-0.383
				c1.534-26.723,18.791-40.66,51.771-41.939l3.323-0.766c1.023-0.512,1.917-1.151,2.686-1.92
				c13.167-14.319,16.106-29.919,8.819-46.541L459.427,62.201"/>
			<path fill="#FFFFFF" d="M465.047,56.83L81.696,56.574c7.541,17.135,4.473,33.115-9.075,47.948
				c-0.768,0.768-1.662,1.408-2.813,1.917l-3.451,0.896c-34.002,1.28-51.771,15.729-53.177,43.217v0.384v181.31v0.258
				c1.79,24.169,20.325,35.801,55.477,34.651c1.534-0.131,2.94,0.127,4.346,0.769c1.278,0.51,2.302,1.407,3.067,2.429
				c0.768,1.021,1.279,2.042,1.279,3.322v29.924c128.722,25.569,259.359,25.569,392.3-0.132v-29.792c0-1.28,0.381-2.301,1.148-3.322
				c0.769-1.021,1.791-1.919,3.199-2.429c1.275-0.642,2.685-0.899,4.344-0.769c35.278,1.149,53.688-10.482,55.477-34.651v-0.258
				V150.552c-1.532-27.488-19.172-41.937-53.048-43.217l-3.451-0.896c-1.152-0.509-2.046-1.022-2.683-1.788
				C460.576,89.818,457.506,73.963,465.047,56.83"/>
			<path fill="#FFCC00" d="M327.251,49.158c-16.236,0.384-33.109,0.511-50.874,0.511c-62.381,0-115.557-2.302-159.657-6.904
				c-31.957-3.325-52.409-7.161-61.101-11.38c-3.323-1.536-4.984-3.197-5.112-4.859L49.74,81.379
				c0.639,1.663,2.429,3.198,5.624,4.859c8.692,4.349,29.145,8.057,61.356,11.38c44.101,4.603,97.276,6.904,159.657,6.904
				c17.765,0,34.638-0.128,50.874-0.512c40.904-0.894,77.208-3.069,108.784-6.393c43.844-4.476,65.825-9.975,66.21-16.367V27.037
				c-0.255,6.012-22.366,11.252-66.21,15.729C404.46,46.217,368.155,48.263,327.251,49.158"/>
			<path fill="#FFCC00" d="M276.377,49.669c17.765,0,34.638-0.127,50.874-0.511c40.904-0.895,77.208-3.069,108.784-6.393
				c43.844-4.477,65.825-9.717,66.21-15.729v-0.765c-0.255-6.395-22.24-11.892-66.21-16.495C391.932,5.301,338.755,3,276.377,3
				C213.996,3,160.821,5.301,116.72,9.906c-43.845,4.474-65.83,9.971-66.213,16.493v0.383c0.128,1.663,1.79,3.326,5.112,4.86
				c8.692,4.22,29.018,8.054,61.101,11.378C160.821,47.497,213.996,49.669,276.377,49.669"/>
			<path vector-effect="non-scaling-stroke" fill="none" stroke="#FF9900" stroke-linecap="round" stroke-linejoin="round" d="
				M276.377,3C213.996,3,160.821,5.301,116.72,9.906c-43.845,4.474-65.83,9.971-66.213,16.493v0.383L49.74,81.379
				c0.639,1.663,2.429,3.198,5.624,4.859c8.692,4.349,29.145,8.057,61.356,11.38c44.101,4.603,97.276,6.904,159.657,6.904
				c17.765,0,34.638-0.128,50.874-0.512c40.904-0.894,77.208-3.069,108.784-6.393c43.844-4.476,65.825-9.975,66.21-16.367V27.037
				v-0.765c-0.255-6.395-22.24-11.892-66.21-16.495C391.932,5.301,338.755,3,276.377,3"/>
			<path vector-effect="non-scaling-stroke" fill="none" stroke="#FF9900" stroke-linecap="round" stroke-linejoin="round" d="
				M327.251,49.158c-16.236,0.384-33.109,0.511-50.874,0.511c-62.381,0-115.557-2.302-159.657-6.904
				c-31.957-3.325-52.409-7.161-61.101-11.38c-3.323-1.536-4.984-3.197-5.112-4.859 M502.245,27.037
				c-0.255,6.012-22.366,11.252-66.21,15.729c-31.575,3.323-67.88,5.498-108.784,6.393"/>
		</g>
		<g id="Sprite_sprite_23">
			<path fill="#FF9900" d="M70.447,82.788h7.926v-40.15h-7.926V82.788"/>
		</g>
		<g id="Sprite_sprite_23_1_">
			<path fill="#FF9900" d="M96.909,89.307h7.925V49.158h-7.925V89.307"/>
		</g>
		<g id="Sprite_sprite_23_2_">
			<path fill="#FF9900" d="M123.751,91.864h7.926V51.715h-7.926V91.864"/>
		</g>
		<g id="Sprite_sprite_23_3_">
			<path fill="#FF9900" d="M150.466,94.423h7.926v-40.15h-7.926V94.423"/>
		</g>
		<g id="Sprite_sprite_23_4_">
			<path fill="#FF9900" d="M177.311,95.956h7.925V55.807h-7.925V95.956"/>
		</g>
		<g id="Sprite_sprite_23_5_">
			<path fill="#FF9900" d="M203.898,98.003h7.926V57.854h-7.926V98.003"/>
		</g>
		<g id="Sprite_sprite_23_6_">
			<path fill="#FF9900" d="M230.615,98.514h7.924V58.365h-7.924V98.514"/>
		</g>
		<g id="Sprite_sprite_23_7_">
			<path fill="#FF9900" d="M257.331,99.535h7.925V59.388h-7.925V99.535"/>
		</g>
		<g id="Sprite_sprite_23_8_">
			<path fill="#FF9900" d="M481.538,82.788h-7.928v-40.15h7.928V82.788"/>
		</g>
		<g id="Sprite_sprite_23_9_">
			<path fill="#FF9900" d="M454.822,89.307h-7.926V49.158h7.926V89.307"/>
		</g>
		<g id="Sprite_sprite_23_10_">
			<path fill="#FF9900" d="M428.107,91.864h-7.927V51.715h7.927V91.864"/>
		</g>
		<g id="Sprite_sprite_23_11_">
			<path fill="#FF9900" d="M401.392,94.423h-7.927v-40.15h7.927V94.423"/>
		</g>
		<g id="Sprite_sprite_23_12_">
			<path fill="#FF9900" d="M374.802,95.956h-8.051V55.807h7.922v40.149"/>
		</g>
		<g id="Sprite_sprite_23_13_">
			<path fill="#FF9900" d="M347.958,98.003h-7.925V57.854h7.925V98.003"/>
		</g>
		<g id="Sprite_sprite_23_14_">
			<path fill="#FF9900" d="M321.243,98.514h-7.923V58.365h7.923V98.514"/>
		</g>
		<g id="Sprite_sprite_23_15_">
			<path fill="#FF9900" d="M294.655,99.535h-7.926V59.388h7.926V99.535"/>
		</g>
		<g id="Text_text_66">
			<path fill="#FFFF99" d="M418.007,12.46c1.151,0,2.174,0.513,3.195,1.408c1.024,0.895,1.535,1.792,1.535,2.813
				c0,0.896-0.638,1.792-2.047,2.942c-1.275,0.895-2.555,1.917-3.833,2.812c-1.408,1.024-2.047,2.047-2.047,2.941
				c0,0.512,0.256,1.023,0.639,1.534c0.514,0.385,1.026,0.641,1.664,0.641c0.639,0,1.277-0.256,1.79-0.896
				c0.639-0.639,1.406-1.279,2.556-2.045c1.789-1.15,2.682-1.792,2.682-1.919c2.176-1.791,3.328-3.708,3.328-6.01
				c0-2.301-0.896-4.22-2.813-5.881c-1.919-1.79-4.091-2.557-6.393-2.557c-1.023,0-2.427,0.384-3.963,1.15
				c-1.917,0.896-2.94,1.918-2.94,2.94c0,0.514,0.256,1.024,0.64,1.664c0.384,0.511,1.023,0.639,1.663,0.639
				c0.383,0,1.147-0.383,2.174-1.023C416.857,12.973,417.496,12.46,418.007,12.46"/>
			<path fill="#FFFF99" d="M418.007,29.595c-0.382-0.51-1.021-0.767-1.787-0.767c-0.896,0-1.536,0.384-2.047,1.15
				c-0.382,0.64-0.637,1.278-0.637,2.047c0,0.637,0.255,1.151,0.765,1.661c0.51,0.384,1.148,0.512,1.791,0.512
				c0.766,0,1.404-0.384,1.915-1.022c0.384-0.514,0.513-1.151,0.513-1.92C418.52,30.618,418.391,30.108,418.007,29.595"/>
			<path fill="#FFFF99" d="M398.707,16.297c-2.302,0.768-3.454,2.303-3.454,4.349c0,1.533,0.77,2.813,2.302,3.963
				c0.639,0.511,2.046,1.15,4.35,2.172c1.531,0.641,2.3,1.279,2.3,1.791c0,0.895-1.151,1.278-3.327,1.278
				c-0.509,0-1.276-0.127-2.17-0.383c-0.896-0.255-1.663-0.511-2.173-0.511c-1.281,0-1.92,0.511-1.92,1.662s0.771,2.044,2.43,2.686
				c1.149,0.382,2.557,0.638,3.962,0.638c2.047,0,3.709-0.384,5.113-1.151c1.792-0.894,2.557-2.301,2.557-4.219
				c0-1.406-0.765-2.685-2.428-3.836c-0.768-0.51-2.175-1.277-4.344-2.301c-1.536-0.766-2.431-1.278-2.431-1.789
				c0-0.769,1.276-1.023,3.962-1.023c0.383,0,0.896,0,1.279,0.127c0.255,0.896,0.895,1.407,1.915,1.407
				c1.026,0,1.536-1.023,1.536-2.941c0-1.022-0.385-1.662-1.021-2.045c-0.516-0.256-1.41-0.51-2.431-0.51
				C402.03,15.66,399.983,15.914,398.707,16.297"/>
			<path fill="#FFFF99" d="M391.038,17.96c-0.385-0.512-1.023-0.895-1.792-1.15c-0.768-0.256-1.532-0.384-2.553-0.384
				c-3.199,0-5.626,0.895-7.544,2.812c-1.79,1.791-2.685,4.221-2.685,7.161c0,2.173,0.638,3.964,2.046,5.37
				c1.275,1.408,3.067,2.046,5.241,2.046c0.767,0,1.531-0.128,2.299-0.384c0.769-0.254,1.408-0.64,1.918-1.278
				c-0.127,2.046-0.639,3.58-1.404,4.475c-0.769,1.024-1.918,1.535-3.581,1.535c-0.64,0-1.531-0.127-2.43-0.384
				c-0.894-0.127-1.66-0.255-2.043-0.255c-0.641,0-1.151,0.255-1.534,0.639c-0.385,0.383-0.512,0.767-0.512,1.406
				c0,1.662,2.046,2.557,6.263,2.557c3.579,0,6.135-1.022,7.541-3.196c1.023-1.534,1.663-4.091,1.788-7.543
				c0.131-2.813,0.389-5.498,0.771-8.056c0.255-1.278,0.382-2.301,0.382-3.068C393.083,18.856,392.445,17.96,391.038,17.96
				 M387.842,25.631c-0.128,0.896-0.639,1.919-1.408,2.941c-0.894,1.022-1.787,1.536-2.682,1.536c-0.896,0-1.664-0.385-2.174-1.023
				c-0.511-0.64-0.639-1.662-0.639-2.941c0-1.79,0.513-3.196,1.278-4.22c1.019-1.149,2.429-1.79,4.344-1.79
				c0.388,0,0.642,0,1.025,0.128c0.382,0.127,0.638,0.255,1.02,0.512C388.353,22.947,388.098,24.609,387.842,25.631"/>
			<path fill="#FFFF99" d="M373.269,18.728c-1.279-1.663-3.068-2.558-5.241-2.558c-2.939,0-5.241,1.15-6.774,3.196
				c-1.407,1.917-2.046,4.093-2.046,6.521c0.128,2.429,0.894,4.476,2.558,6.01c1.405,1.407,3.195,2.045,5.114,2.045
				c2.556,0,4.472-1.023,6.007-2.941c1.404-1.789,2.043-3.965,2.043-6.52C375.06,22.179,374.418,20.262,373.269,18.728
				 M364.833,28.828c-0.766-0.64-1.149-1.662-1.149-2.94c0-1.406,0.383-2.558,1.021-3.709c0.766-1.279,1.917-1.79,3.195-1.79
				c1.918,0,2.94,1.79,2.685,5.242c-0.129,1.279-0.511,2.302-1.277,2.941c-0.641,0.64-1.535,1.022-2.429,1.022
				C366.109,29.595,365.471,29.339,364.833,28.828"/>
			<path fill="#FFFF99" d="M341.695,9.138c0-1.407-1.021-2.045-2.94-2.045c-2.556,0-4.475,0.765-5.75,2.3
				c-1.022,1.151-1.665,2.94-1.919,5.371c-0.125,1.023-0.256,1.663-0.256,1.917c-1.405,0-2.299,0.129-2.81,0.255
				c-1.024,0.257-1.535,0.897-1.663,1.92c0,0.638,0.255,1.149,0.639,1.533c0.383,0.384,1.024,0.51,1.66,0.51
				c0.255,0,0.514,0,0.897,0c0.511-0.126,0.894-0.126,1.021-0.126v8.183c0,1.407-0.127,2.813-0.383,4.348c0,0.127,0,0.254,0,0.382
				c0,0.64,0.255,1.152,0.639,1.535c0.51,0.383,1.022,0.64,1.663,0.64c1.152,0,1.918-0.64,2.042-1.792
				c0.255-1.151,0.386-2.685,0.386-4.603c0-0.383,0-1.79-0.131-4.347c0-1.791,0-3.324,0.131-4.347
				c1.405-0.127,2.43-0.127,3.068-0.127c2.174,0,3.196-0.641,3.196-2.046c0-1.407-1.022-2.046-3.068-2.046
				c-0.639,0-1.664,0-3.068,0.127V16.17c0.127-1.407,0.51-2.558,0.894-3.197c0.638-0.896,1.535-1.406,2.939-1.406
				C340.674,11.183,341.695,10.543,341.695,9.138"/>
			<path fill="#FFFF99" d="M348.215,18.086c-0.257-1.277-0.894-1.917-2.045-1.917c-0.64,0-1.151,0.256-1.534,0.64
				c-0.384,0.383-0.511,0.894-0.511,1.406c0,0.384,0,0.894,0,1.534c0,0.64-0.128,1.15-0.128,1.407v10.613
				c0,0.64,0.128,1.15,0.511,1.535c0.382,0.382,0.894,0.638,1.662,0.638c0.639,0,1.151-0.127,1.661-0.638
				c0.384-0.385,0.639-1.023,0.639-1.663v-8.055c1.024-2.174,2.812-3.325,5.241-3.71v1.663c0,1.407,0.639,2.173,2.047,2.173
				c1.403,0,2.173-0.767,2.3-2.43c0-0.127,0-0.51,0-1.15c0-2.94-1.152-4.347-3.195-4.347
				C352.306,15.914,350.132,16.553,348.215,18.086"/>
			<path fill="#FFFF99" d="M310.761,19.238c0.255-0.382,0.386-0.638,0.386-1.022c0-0.639-0.255-1.15-0.767-1.406
				c-0.513-0.384-1.024-0.64-1.663-0.64c-0.766,0-1.407,0.383-1.918,1.15c-0.767,1.279-1.534,2.685-2.302,4.348
				c-0.256,0.51-1.021,2.045-2.17,4.603c-2.046-4.093-3.837-7.162-5.371-9.207c-0.385-0.512-1.021-0.768-1.662-0.768
				c-0.64,0-1.152,0.256-1.664,0.639c-0.38,0.384-0.636,0.897-0.636,1.536c0,0.384,0.125,0.894,0.38,1.277
				c0.255,0.384,0.641,0.896,0.897,1.279c2.553,4.602,4.472,8.056,5.624,10.357c-2.301,4.986-3.326,7.927-3.326,8.95
				c0,0.64,0.255,1.15,0.642,1.536c0.382,0.382,0.894,0.638,1.662,0.638c1.022,0,1.661-0.51,2.044-1.533
				c0.511-1.28,0.896-2.303,1.151-2.941c0.766-1.79,1.788-4.22,3.195-7.034C307.821,25.631,309.612,21.668,310.761,19.238"/>
			<path fill="#FFFF99" d="M283.918,21.668c0.894-1.151,1.79-1.792,2.811-1.792c0.386,0,0.642,0.512,0.642,1.407
				c0,0.256,0,0.512,0,0.768s-0.13,0.511-0.13,0.511c0,0.255,0,0.767-0.127,1.534c-0.128,0.768-0.128,1.151-0.128,1.407
				c0,1.023,0.128,2.174,0.256,3.454c0.13,1.151,0.385,2.173,0.511,3.324c0.131,1.278,0.897,1.918,2.305,1.918
				c0.635,0,1.146-0.128,1.659-0.512c0.385-0.382,0.64-0.896,0.64-1.534c0-0.896-0.128-1.917-0.383-3.196
				c-0.257-1.279-0.383-2.43-0.383-3.326c0-0.255,0-0.511,0.126-1.021v-1.15c0-2.303-0.254-4.093-0.768-5.244
				c-0.766-1.662-2.172-2.556-4.218-2.556c-1.787,0-3.45,0.766-4.982,2.427V17.96c-0.13-1.663-0.896-2.558-2.305-2.558
				c-0.635,0-1.149,0.129-1.659,0.64c-0.384,0.384-0.639,0.894-0.639,1.534c0,0.384,0,0.767,0,1.407s0,1.15,0,1.406
				c0,1.023-0.127,2.558-0.127,4.347c-0.128,1.918-0.259,3.325-0.259,4.477c0,0.255,0,0.766,0.131,1.406
				c0,0.639,0.128,1.151,0.128,1.407c0,0.637,0.254,1.151,0.638,1.533c0.383,0.384,1.022,0.64,1.663,0.64
				c0.639,0,1.276-0.256,1.661-0.64c0.383-0.382,0.639-0.896,0.639-1.533c0-0.384,0-0.769,0.13-1.407
				c0.125-0.64,0.125-1.151,0.125-1.406c0-0.512,0-1.024,0.13-1.535c0.125-0.641,0.125-1.023,0.256-1.406
				C282.382,24.354,283.024,22.818,283.918,21.668"/>
			<path fill="#FFFF99" d="M267.812,16.042c-2.686,0-4.984,0.894-6.903,2.814c-1.917,1.79-2.941,4.091-2.941,6.647
				c0,2.813,0.642,4.86,2.047,6.266c1.278,1.408,3.195,2.173,5.88,2.173c0.511,0,1.15-0.127,1.917-0.384
				c0.768-0.254,1.661-0.51,2.556-1.023c1.023,1.023,1.79,1.535,2.43,1.535c0.51,0,1.021-0.255,1.534-0.639
				c0.383-0.382,0.638-0.896,0.638-1.406c0-0.128-0.255-0.64-0.638-1.662c-0.512-1.024-0.768-1.535-0.768-1.663
				c-0.256-0.895-0.383-2.301-0.383-4.475c0-0.896,0-1.663,0.127-2.174c0-0.639,0.129-1.278,0.256-1.662
				c0.256-0.256,0.386-0.64,0.386-1.023c0-0.894-0.896-1.663-2.558-2.43C270.113,16.297,268.835,16.042,267.812,16.042
				 M268.835,21.796c0,0.383,0,0.767,0,1.151c0,1.279,0.127,3.196,0.51,5.753c-0.51,0.384-1.149,0.767-1.789,1.022
				c-0.639,0.256-1.279,0.385-1.917,0.385c-1.022,0-1.789-0.385-2.302-1.151c-0.51-0.768-0.766-1.92-0.766-3.326
				c0-1.535,0.509-2.813,1.661-3.962c1.151-1.151,2.428-1.663,3.963-1.663c0.127,0,0.255,0,0.383,0c0.128,0,0.383,0.128,0.638,0.128
				C268.962,20.773,268.835,21.284,268.835,21.796"/>
			<path fill="#FFFF99" d="M241.607,20.262c0.127,0.384,0.127,1.022,0.127,1.661c0,1.279,0.129,3.069,0.385,5.5
				c0.256,2.427,0.383,4.219,0.383,5.496c0,0.64,0.255,1.151,0.639,1.534c0.384,0.386,1.023,0.64,1.661,0.64
				c0.641,0,1.152-0.254,1.664-0.64c0.383-0.382,0.639-0.894,0.639-1.534c0-1.15-0.128-2.94-0.512-5.369
				c-0.256-2.303-0.384-4.091-0.384-5.372c0.384-0.383,1.023-0.766,1.918-1.279c0.894-0.51,1.406-0.766,1.662-0.766
				c0.511,0,0.895,1.023,1.15,2.941c0.128,0.895,0.257,2.557,0.511,4.731c0.255,2.045,0.383,3.581,0.51,4.73
				c0.257,1.279,1.024,1.917,2.302,1.917c0.638,0,1.15-0.254,1.661-0.638c0.512-0.384,0.641-0.896,0.641-1.406
				c-0.513-4.092-0.896-7.033-1.151-8.822c-0.255-2.431-0.513-3.964-0.768-4.349c-0.766-2.173-2.172-3.196-4.346-3.196
				c-0.895,0-1.79,0.128-2.558,0.511c-0.766,0.383-1.533,0.767-2.172,1.407c-0.768-1.279-2.045-1.918-3.707-1.918
				c-1.407,0-2.94,0.894-4.603,2.814l0.128-1.408c0-0.512-0.254-1.022-0.766-1.534c-0.51-0.512-1.023-0.769-1.662-0.769
				c-0.768,0-1.406,0.514-1.791,1.535c-0.382,0.768-0.511,1.663-0.511,2.557c0,0.512,0,1.408,0,2.431c0,1.022,0.129,1.918,0.129,2.3
				v5.881c0,1.151,0.127,2.047,0.382,2.559c0.257,0.768,0.895,1.278,1.791,1.278c0.638,0,1.151-0.128,1.662-0.51
				c0.511-0.386,0.766-0.768,0.766-1.408c0-0.257,0-0.64,0.127-1.151c0-0.51,0-0.896,0-1.151c0-1.279,0-2.941,0.13-5.242
				c0.127-0.129,0.256-0.257,0.384-0.385C239.052,22.179,240.329,21.029,241.607,20.262"/>
			<path fill="#FFFF99" d="M216.682,18.728c0-0.255,0.126-0.384,0.126-0.512c0-0.639-0.254-1.15-0.766-1.406
				c-0.511-0.384-1.023-0.64-1.661-0.64c-1.15,0-1.79,0.511-2.045,1.406c-1.662,6.264-2.431,9.59-2.558,9.847
				c-0.128-0.513-0.383-1.92-0.767-4.476c-0.255-1.791-0.639-3.197-0.895-4.219c-0.383-1.535-1.151-2.431-2.301-2.431
				c-1.277,0-2.046,0.768-2.556,2.046c-1.023,3.197-1.917,6.01-2.813,8.183c-0.255-1.917-0.511-3.324-0.64-4.22
				c0-0.255-0.128-1.023-0.255-2.173c-0.128-0.896-0.128-1.661-0.383-2.3c-0.255-1.152-1.023-1.663-2.174-1.663
				c-0.638,0-1.149,0.127-1.661,0.511c-0.51,0.384-0.767,0.896-0.767,1.406c0,0.513,0.128,1.28,0.257,2.303
				c0.638,4.475,1.15,7.416,1.533,8.695c0.383,1.534,0.896,2.685,1.406,3.578c0.511,0.896,1.022,1.408,1.662,1.408
				c0.896,0,1.535-0.384,2.047-1.151c0.254-0.256,0.51-0.638,0.639-1.021c1.022-2.813,1.917-4.988,2.556-6.267
				c0-0.128,0.127-0.511,0.384-1.021c0.382,2.685,0.766,4.603,1.022,5.626c0.766,2.556,1.917,3.963,3.323,3.963
				c0.896,0,1.533-0.384,2.045-1.022c0.767-1.024,1.278-2.047,1.662-3.069C214.381,26.782,215.531,22.947,216.682,18.728"/>
			<path fill="#FFFF99" d="M193.161,24.482c0-2.303-0.511-4.22-1.662-5.754c-1.277-1.663-3.066-2.558-5.241-2.558
				c-2.94,0-5.239,1.15-6.902,3.196c-1.406,1.917-2.045,4.093-2.045,6.521c0.128,2.429,0.896,4.476,2.557,6.01
				c1.405,1.407,3.195,2.045,5.112,2.045c2.557,0,4.473-1.023,6.008-2.941C192.521,29.212,193.161,27.037,193.161,24.482
				 M182.808,22.179c0.766-1.279,1.916-1.79,3.195-1.79c1.917,0,2.94,1.79,2.813,5.242c-0.128,1.279-0.512,2.302-1.279,2.941
				c-0.638,0.64-1.533,1.022-2.429,1.022c-0.767,0-1.534-0.255-2.045-0.767c-0.768-0.64-1.15-1.662-1.15-2.94
				C181.913,24.482,182.167,23.33,182.808,22.179"/>
			<path fill="#FFFF99" d="M175.522,10.416c0-0.127,0.127-0.255,0.127-0.382c0-0.641-0.255-1.151-0.768-1.664
				c-0.384-0.383-0.895-0.639-1.534-0.639c-0.766,0-1.407,0.639-2.045,2.046c-0.513,1.15-0.767,2.046-0.767,2.942
				c-0.128,3.195-0.128,5.241-0.255,5.881c-1.79,0-3.834,0.256-6.264,0.767l-6.136,1.151c0-0.384,0-0.895,0.129-1.661
				c0.128-0.77,0.128-1.28,0.128-1.536c0-0.895,0-2.047,0.127-3.708c0-1.662,0-2.941,0-3.707c0-0.641-0.127-1.152-0.511-1.536
				c-0.385-0.383-1.024-0.639-1.664-0.639c-0.638,0-1.149,0.256-1.661,0.639c-0.384,0.384-0.639,0.896-0.639,1.536
				c0,1.405,0,3.323-0.128,6.008c-0.127,2.686-0.127,4.732-0.127,6.137c0,1.023-0.129,2.685-0.256,4.858
				c-0.254,2.175-0.254,3.708-0.383,4.859c0,0.512,0.255,1.022,0.639,1.408c0.384,0.382,1.022,0.638,1.662,0.638
				c0.639,0,1.149-0.128,1.661-0.638c0.384-0.386,0.639-0.896,0.639-1.408c0-0.896,0-2.046,0.127-3.453
				c0.13-1.662,0.256-2.813,0.256-3.453c2.045-0.382,4.09-0.768,6.136-1.15c2.558-0.511,4.602-0.767,6.264-0.767
				c0,0.512,0,1.022,0,1.663c0,0.766,0,2.045,0.127,3.579c0,1.534,0.128,2.813,0.128,3.581c0,0.64,0.254,1.15,0.767,1.535
				c0.511,0.382,1.024,0.638,1.662,0.638s1.15-0.127,1.662-0.638c0.383-0.385,0.64-0.896,0.64-1.535c0-0.768-0.13-2.046-0.257-3.581
				c-0.127-1.534-0.127-2.686-0.127-3.579c0-1.022,0-2.558,0.127-4.604c0.128-2.045,0.128-3.58,0.128-4.603
				c0-0.257,0-0.767,0.128-1.406c0-0.64,0.128-1.15,0.128-1.407C175.266,11.823,175.394,11.183,175.522,10.416"/>
		</g>
	</g>
</g>
</svg>