<svg id="Layer_1" data-name="Layer 1" xmlns="http://www.w3.org/2000/svg" xmlns:xlink="http://www.w3.org/1999/xlink"
     viewBox="0 0 62.65 62.65">
    <defs>
        <style>
            .cls-1{fill:#73adff;}.cls-2{fill:#808184;}.cls-3{fill:url(#linear-gradient);}.cls-4{fill:#d4cedb;}.cls-5{fill:#000009;}.cls-6{fill:#bcdef7;}.cls-7{fill:url(#linear-gradient-2);}.cls-8,.cls-9{opacity:0.5;}.cls-8{fill:url(#linear-gradient-3);}.cls-9{fill:url(#linear-gradient-4);}.cls-10{fill:#e55942;}.cls-11{fill:url(#linear-gradient-5);}.cls-12{fill:#fff;}.cls-13{fill:url(#linear-gradient-6);}
        </style>
        <linearGradient id="linear-gradient" x1="9.33" y1="53.32" x2="52.39" y2="10.26" gradientUnits="userSpaceOnUse">
            <stop offset="0" stop-color="#babcbf" stop-opacity="0"/>
            <stop offset="1" stop-color="#b8bcc1"/>
        </linearGradient>
        <linearGradient id="linear-gradient-2" x1="31.33" y1="4.07" x2="31.33" y2="52.18"
                        gradientUnits="userSpaceOnUse">
            <stop offset="0" stop-color="#89b8e4" stop-opacity="0"/>
            <stop offset="1" stop-color="#a0c3e4"/>
        </linearGradient>
        <linearGradient id="linear-gradient-3" x1="28.65" y1="28.74" x2="12.07" y2="10.57"
                        gradientUnits="userSpaceOnUse">
            <stop offset="0" stop-color="#e2f3ff" stop-opacity="0.1"/>
            <stop offset="1" stop-color="#e2f3ff"/>
        </linearGradient>
        <linearGradient id="linear-gradient-4" x1="36.51" y1="36.51" x2="59.07" y2="59.07"
                        xlink:href="#linear-gradient-3"/>
        <linearGradient id="linear-gradient-5" x1="31.33" y1="14.52" x2="31.33" y2="29.89"
                        gradientUnits="userSpaceOnUse">
            <stop offset="0" stop-color="#b13227"/>
            <stop offset="1" stop-color="#b13227" stop-opacity="0.1"/>
        </linearGradient>
        <linearGradient id="linear-gradient-6" x1="31.33" y1="32.23" x2="31.33" y2="47.59"
                        xlink:href="#linear-gradient-5"/>
    </defs>
    <title>game-icon</title>
    <path class="cls-1" d="M31.33,58.35a27,27,0,1,1,27-27A27.05,27.05,0,0,1,31.33,58.35Z"/>
    <path class="cls-2" d="M31.33,62.65A31.33,31.33,0,1,1,62.65,31.33,31.36,31.36,0,0,1,31.33,62.65Z"/>
    <path class="cls-3" d="M31.33,62.65A31.33,31.33,0,1,1,62.65,31.33,31.36,31.36,0,0,1,31.33,62.65Z"/>
    <path class="cls-4" d="M31.33,59.78A28.46,28.46,0,1,1,59.78,31.33,28.49,28.49,0,0,1,31.33,59.78Z"/>
    <path class="cls-5" d="M31.33,59.3a28,28,0,1,1,28-28A28,28,0,0,1,31.33,59.3Z"/>
    <path class="cls-6" d="M31.33,58.59A27.26,27.26,0,1,1,58.59,31.33,27.29,27.29,0,0,1,31.33,58.59Z"/>
    <circle class="cls-7" cx="31.33" cy="31.33" r="26.78"/>
    <path class="cls-8" d="M30.14,28.55V7.2A24.16,24.16,0,0,0,7.33,28.55Z"/>
    <path class="cls-9" d="M47.17,13.09A24.15,24.15,0,0,1,13.09,47.17,24.15,24.15,0,1,0,47.17,13.09Z"/>
    <path class="cls-10"
          d="M50.38,14.34H12.27c-2.26,0-4.1,2.24-4.1,5v6c0,2.76,1.83,5,4.1,5H50.38c2.26,0,4.1-2.24,4.1-5v-6C54.48,16.58,52.65,14.34,50.38,14.34Z"/>
    <path class="cls-11"
          d="M50.38,14.34H12.27c-2.26,0-4.1,2.24-4.1,5v6c0,2.76,1.83,5,4.1,5H50.38c2.26,0,4.1-2.24,4.1-5v-6C54.48,16.58,52.65,14.34,50.38,14.34Z"/>
    <path class="cls-12" d="M20.61,18.53h.78v5.39h2.08v.6H20.61Z"/>
    <path class="cls-12"
          d="M25,18.86a.51.51,0,0,1-.38.16.5.5,0,0,1-.37-.16.53.53,0,0,1-.15-.38.52.52,0,0,1,.15-.38.52.52,0,0,1,.74,0,.55.55,0,0,1,0,.76Zm-.77,5.66V19.77h.78v4.75Z"/>
    <path class="cls-12" d="M27.12,24.52h-.78v-6.4h.78v3.75l1.8-2.1H30L27.8,22.13,30,24.52H29l-1.84-2.08Z"/>
    <path class="cls-12"
          d="M32.7,24.59a2.15,2.15,0,0,1-1.64-.67,2.5,2.5,0,0,1-.63-1.78,2.46,2.46,0,0,1,.64-1.78A2.26,2.26,0,0,1,35,21.95a2.91,2.91,0,0,1,0,.47H31.22a1.64,1.64,0,0,0,.44,1.12,1.4,1.4,0,0,0,1,.41,1.44,1.44,0,0,0,.81-.22,1.28,1.28,0,0,0,.48-.57h.84a2.17,2.17,0,0,1-.77,1A2.21,2.21,0,0,1,32.7,24.59Zm1.05-3.84a1.43,1.43,0,0,0-1-.41,1.41,1.41,0,0,0-1,.4,1.62,1.62,0,0,0-.45,1.1h3A1.49,1.49,0,0,0,33.75,20.75Z"/>
    <path class="cls-12" d="M36,24.52v-6.4h.78v6.4Z"/>
    <path class="cls-12" d="M39.34,24.44l-1.86-4.67h.86l1.44,3.84,1.46-3.84H42l-2.83,7h-.8Z"/>
    <path class="cls-10"
          d="M50.38,32H12.27c-2.26,0-4.1,2.24-4.1,5v6c0,2.76,1.83,5,4.1,5H50.38c2.26,0,4.1-2.24,4.1-5V37C54.48,34.28,52.65,32,50.38,32Z"/>
    <path class="cls-13"
          d="M50.38,32H12.27c-2.26,0-4.1,2.24-4.1,5v6c0,2.76,1.83,5,4.1,5H50.38c2.26,0,4.1-2.24,4.1-5V37C54.48,34.28,52.65,32,50.38,32Z"/>
    <path class="cls-12"
          d="M15.84,40.12V36.23h.79v3.89A1.46,1.46,0,0,0,17,41.23a1.5,1.5,0,0,0,1.07.37,1.52,1.52,0,0,0,1.08-.37,1.45,1.45,0,0,0,.39-1.11V36.23h.78v3.89a2,2,0,0,1-.64,1.61,2.38,2.38,0,0,1-1.62.55,2.36,2.36,0,0,1-1.61-.55A2,2,0,0,1,15.84,40.12Z"/>
    <path class="cls-12"
          d="M22.39,37.48v.77a1.63,1.63,0,0,1,1.53-.85,1.76,1.76,0,0,1,1.3.52,2,2,0,0,1,.52,1.49v2.81H25V39.54a1.55,1.55,0,0,0-.34-1.09,1.22,1.22,0,0,0-.95-.37,1.23,1.23,0,0,0-.95.37,1.54,1.54,0,0,0-.35,1.09v2.68h-.78V37.48Z"/>
    <path class="cls-12" d="M27,42.22v-6.4h.78v6.4Z"/>
    <path class="cls-12"
          d="M29.81,36.56a.51.51,0,0,1-.38.16.49.49,0,0,1-.37-.16.53.53,0,0,1-.15-.38.52.52,0,0,1,.15-.38.52.52,0,0,1,.74,0,.55.55,0,0,1,0,.76ZM29,42.22V37.48h.78v4.75Z"/>
    <path class="cls-12" d="M31.89,42.22h-.78v-6.4h.78v3.75l1.8-2.1h1.1l-2.22,2.36,2.22,2.39H33.73l-1.84-2.08Z"/>
    <path class="cls-12"
          d="M37.46,42.3a2.15,2.15,0,0,1-1.64-.67,2.5,2.5,0,0,1-.63-1.78,2.46,2.46,0,0,1,.64-1.78,2.26,2.26,0,0,1,3.93,1.59,2.91,2.91,0,0,1,0,.47H36a1.64,1.64,0,0,0,.44,1.12,1.4,1.4,0,0,0,1,.41,1.45,1.45,0,0,0,.81-.22,1.28,1.28,0,0,0,.48-.57h.84a2.18,2.18,0,0,1-.77,1A2.21,2.21,0,0,1,37.46,42.3Zm1.05-3.84a1.43,1.43,0,0,0-1-.41,1.41,1.41,0,0,0-1,.4,1.62,1.62,0,0,0-.45,1.1h3A1.49,1.49,0,0,0,38.52,38.46Z"/>
    <path class="cls-12" d="M40.72,42.22v-6.4h.78v6.4Z"/>
    <path class="cls-12" d="M44.1,42.15l-1.86-4.67h.86l1.44,3.84L46,37.48h.8l-2.83,7h-.8Z"/>
</svg>