<svg id="Layer_1" data-name="Layer 1" xmlns="http://www.w3.org/2000/svg" xmlns:xlink="http://www.w3.org/1999/xlink" viewBox="0 0 62.65 62.65"><defs><style>.cls-1{fill:#73adff;}.cls-2{fill:#808184;}.cls-3{fill:url(#linear-gradient);}.cls-4{fill:#d4cedb;}.cls-5{fill:#000009;}.cls-6{fill:#bcdef7;}.cls-7{fill:url(#linear-gradient-2);}.cls-8,.cls-9{opacity:0.5;}.cls-8{fill:url(#linear-gradient-3);}.cls-9{fill:url(#linear-gradient-4);}.cls-10{fill:#e55942;}.cls-11{fill:url(#linear-gradient-5);}.cls-12{fill:#fff;}.cls-13{fill:url(#linear-gradient-6);}</style><linearGradient id="linear-gradient" x1="9.33" y1="53.32" x2="52.39" y2="10.26" gradientUnits="userSpaceOnUse"><stop offset="0" stop-color="#babcbf" stop-opacity="0"/><stop offset="1" stop-color="#b8bcc1"/></linearGradient><linearGradient id="linear-gradient-2" x1="31.33" y1="4.07" x2="31.33" y2="52.18" gradientUnits="userSpaceOnUse"><stop offset="0" stop-color="#89b8e4" stop-opacity="0"/><stop offset="1" stop-color="#a0c3e4"/></linearGradient><linearGradient id="linear-gradient-3" x1="28.65" y1="28.74" x2="12.07" y2="10.57" gradientUnits="userSpaceOnUse"><stop offset="0" stop-color="#e2f3ff" stop-opacity="0.1"/><stop offset="1" stop-color="#e2f3ff"/></linearGradient><linearGradient id="linear-gradient-4" x1="36.51" y1="36.51" x2="59.07" y2="59.07" xlink:href="#linear-gradient-3"/><linearGradient id="linear-gradient-5" x1="31.33" y1="14.54" x2="31.33" y2="29.89" gradientUnits="userSpaceOnUse"><stop offset="0" stop-color="#b13227"/><stop offset="1" stop-color="#b13227" stop-opacity="0.1"/></linearGradient><linearGradient id="linear-gradient-6" x1="31.33" y1="32.23" x2="31.33" y2="47.58" xlink:href="#linear-gradient-5"/></defs><title>game-icon</title><path class="cls-1" d="M31.33,58.35a27,27,0,1,1,27-27A27.05,27.05,0,0,1,31.33,58.35Z"/><path class="cls-2" d="M31.33,62.65A31.33,31.33,0,1,1,62.65,31.33,31.36,31.36,0,0,1,31.33,62.65Z"/><path class="cls-3" d="M31.33,62.65A31.33,31.33,0,1,1,62.65,31.33,31.36,31.36,0,0,1,31.33,62.65Z"/><path class="cls-4" d="M31.33,59.78A28.46,28.46,0,1,1,59.78,31.33,28.49,28.49,0,0,1,31.33,59.78Z"/><path class="cls-5" d="M31.33,59.3a28,28,0,1,1,28-28A28,28,0,0,1,31.33,59.3Z"/><path class="cls-6" d="M31.33,58.59A27.26,27.26,0,1,1,58.59,31.33,27.29,27.29,0,0,1,31.33,58.59Z"/><circle class="cls-7" cx="31.33" cy="31.33" r="26.78"/><path class="cls-8" d="M30.14,28.55V7.2A24.16,24.16,0,0,0,7.33,28.55Z"/><path class="cls-9" d="M47.17,13.09A24.15,24.15,0,0,1,13.09,47.17,24.15,24.15,0,1,0,47.17,13.09Z"/><path class="cls-10" d="M50.37,14.36H12.28c-2.26,0-4.09,2.23-4.09,5v6c0,2.76,1.83,5,4.09,5H50.37c2.26,0,4.09-2.23,4.09-5v-6C54.46,16.59,52.63,14.36,50.37,14.36Z"/><path class="cls-11" d="M50.37,14.36H12.28c-2.26,0-4.09,2.23-4.09,5v6c0,2.76,1.83,5,4.09,5H50.37c2.26,0,4.09-2.23,4.09-5v-6C54.46,16.59,52.63,14.36,50.37,14.36Z"/><path class="cls-12" d="M18.05,20.1a1.65,1.65,0,0,1,.53,1.26,1.69,1.69,0,0,1-.51,1.27,2.13,2.13,0,0,1-1.54.5H15.38v2.47H14.6v-6h1.92A2.15,2.15,0,0,1,18.05,20.1Zm-2.67,2.4h1.15a1.34,1.34,0,0,0,1-.3,1.1,1.1,0,0,0,.31-.83q0-1.13-1.27-1.13H15.38Z"/><path class="cls-12" d="M19.88,25a2.45,2.45,0,0,1-.65-1.77,2.41,2.41,0,0,1,.68-1.77,2.45,2.45,0,0,1,3.39,0A2.4,2.4,0,0,1,24,23.22,2.34,2.34,0,0,1,23.27,25a2.39,2.39,0,0,1-1.72.68A2.2,2.2,0,0,1,19.88,25Zm1.66,0a1.57,1.57,0,0,0,1.14-.48,1.78,1.78,0,0,0,.48-1.33,1.82,1.82,0,0,0-.46-1.32,1.51,1.51,0,0,0-1.12-.48,1.45,1.45,0,0,0-1.11.48A1.87,1.87,0,0,0,20,23.22a1.91,1.91,0,0,0,.43,1.33A1.39,1.39,0,0,0,21.54,25Z"/><path class="cls-12" d="M24.78,22.19a1.26,1.26,0,0,1,.49-1,1.92,1.92,0,0,1,1.27-.41,1.76,1.76,0,0,1,1.23.4,1.54,1.54,0,0,1,.49,1.1h-.8a.91.91,0,0,0-.26-.64,1,1,0,0,0-.69-.24,1,1,0,0,0-.69.21.68.68,0,0,0-.25.54.57.57,0,0,0,.29.51,2,2,0,0,0,.69.26l.81.19a1.46,1.46,0,0,1,.69.41,1.17,1.17,0,0,1,.29.85,1.13,1.13,0,0,1-.49.92,2,2,0,0,1-1.28.38,1.9,1.9,0,0,1-1.26-.4,1.48,1.48,0,0,1-.52-1.1h.8a.87.87,0,0,0,.28.63,1,1,0,0,0,.72.24,1.16,1.16,0,0,0,.72-.2.61.61,0,0,0,.26-.51.62.62,0,0,0-.21-.49,1.13,1.13,0,0,0-.51-.25l-.67-.16q-.36-.1-.67-.2a1.09,1.09,0,0,1-.51-.38A1.07,1.07,0,0,1,24.78,22.19Z"/><path class="cls-12" d="M29.27,22.19a1.26,1.26,0,0,1,.49-1A1.92,1.92,0,0,1,31,20.78a1.76,1.76,0,0,1,1.23.4,1.54,1.54,0,0,1,.49,1.1h-.8a.91.91,0,0,0-.26-.64A1,1,0,0,0,31,21.4a1,1,0,0,0-.69.21.68.68,0,0,0-.25.54.57.57,0,0,0,.29.51,2,2,0,0,0,.69.26l.81.19a1.46,1.46,0,0,1,.69.41,1.17,1.17,0,0,1,.29.85,1.13,1.13,0,0,1-.49.92,2,2,0,0,1-1.28.38,1.9,1.9,0,0,1-1.26-.4,1.48,1.48,0,0,1-.52-1.1h.8a.87.87,0,0,0,.28.63,1,1,0,0,0,.72.24,1.16,1.16,0,0,0,.72-.2.61.61,0,0,0,.26-.51.62.62,0,0,0-.21-.49,1.13,1.13,0,0,0-.51-.25l-.67-.16q-.36-.1-.67-.2a1.09,1.09,0,0,1-.51-.38A1.07,1.07,0,0,1,29.27,22.19Z"/><path class="cls-12" d="M34.71,19.94a.51.51,0,0,1-.38.16.5.5,0,0,1-.37-.16.53.53,0,0,1-.15-.38.52.52,0,0,1,.15-.38.52.52,0,0,1,.74,0,.55.55,0,0,1,0,.76Zm-.77,5.66V20.85h.78v4.74Z"/><path class="cls-12" d="M38.52,20.78a2.12,2.12,0,0,1,1.6.67,2.44,2.44,0,0,1,.64,1.75A2.52,2.52,0,0,1,40.11,25a2.09,2.09,0,0,1-1.6.7,1.89,1.89,0,0,1-1-.29,1.94,1.94,0,0,1-.69-.76v1H36V19.2h.78v2.6a1.9,1.9,0,0,1,1.74-1ZM38.37,25a1.48,1.48,0,0,0,1.12-.5A1.83,1.83,0,0,0,40,23.2a1.72,1.72,0,0,0-.47-1.27,1.52,1.52,0,0,0-1.12-.47,1.5,1.5,0,0,0-1.12.48,2,2,0,0,0,0,2.57A1.49,1.49,0,0,0,38.37,25Z"/><path class="cls-12" d="M41.73,25.59V19.2h.78v6.39Z"/><path class="cls-12" d="M45.76,25.67A2.15,2.15,0,0,1,44.12,25a2.49,2.49,0,0,1-.63-1.78,2.46,2.46,0,0,1,.64-1.77A2.26,2.26,0,0,1,48,23a3,3,0,0,1,0,.47H44.28a1.64,1.64,0,0,0,.44,1.12,1.4,1.4,0,0,0,1,.41,1.44,1.44,0,0,0,.81-.22,1.27,1.27,0,0,0,.48-.57h.84a2.17,2.17,0,0,1-.77,1A2.21,2.21,0,0,1,45.76,25.67Zm1.05-3.84a1.43,1.43,0,0,0-1-.41,1.41,1.41,0,0,0-1,.4,1.62,1.62,0,0,0-.45,1.1h2.95A1.48,1.48,0,0,0,46.81,21.83Z"/><path class="cls-10" d="M50.37,32H12.28C10,32,8.19,34.28,8.19,37v6c0,2.76,1.83,5,4.09,5H50.37c2.26,0,4.09-2.23,4.09-5V37C54.46,34.28,52.63,32,50.37,32Z"/><path class="cls-13" d="M50.37,32H12.28C10,32,8.19,34.28,8.19,37v6c0,2.76,1.83,5,4.09,5H50.37c2.26,0,4.09-2.23,4.09-5V37C54.46,34.28,52.63,32,50.37,32Z"/><path class="cls-12" d="M8.82,42.2v-6H9.6v6Z"/><path class="cls-12" d="M11.66,37.46v.77a1.63,1.63,0,0,1,1.53-.85,1.85,1.85,0,0,1,1,.26,1.65,1.65,0,0,1,.66.76,1.93,1.93,0,0,1,.7-.76,1.87,1.87,0,0,1,1-.27,1.79,1.79,0,0,1,1.32.52,2,2,0,0,1,.52,1.49V42.2h-.77V39.52a1.54,1.54,0,0,0-.35-1.09,1.39,1.39,0,0,0-1.89,0A1.54,1.54,0,0,0,15,39.52V42.2h-.77V39.52a1.55,1.55,0,0,0-.34-1.09,1.22,1.22,0,0,0-.94-.37,1.23,1.23,0,0,0-.95.37,1.54,1.54,0,0,0-.35,1.09V42.2h-.78V37.46Z"/><path class="cls-12" d="M22.11,37.38a2.12,2.12,0,0,1,1.6.67,2.44,2.44,0,0,1,.64,1.75,2.52,2.52,0,0,1-.64,1.78,2.09,2.09,0,0,1-1.6.7,1.89,1.89,0,0,1-1-.29,1.93,1.93,0,0,1-.69-.75v3.21H19.6v-7h.78v1a1.9,1.9,0,0,1,1.74-1ZM22,41.6a1.48,1.48,0,0,0,1.12-.5,1.83,1.83,0,0,0,.47-1.3,1.72,1.72,0,0,0-.47-1.27A1.52,1.52,0,0,0,22,38.06a1.5,1.5,0,0,0-1.12.48,2,2,0,0,0,0,2.57A1.49,1.49,0,0,0,22,41.6Z"/><path class="cls-12" d="M25.67,41.6A2.45,2.45,0,0,1,25,39.83a2.4,2.4,0,0,1,.68-1.77,2.45,2.45,0,0,1,3.39,0,2.4,2.4,0,0,1,.68,1.77,2.34,2.34,0,0,1-.71,1.77,2.39,2.39,0,0,1-1.72.68A2.2,2.2,0,0,1,25.67,41.6Zm1.66,0a1.57,1.57,0,0,0,1.14-.48A1.79,1.79,0,0,0,29,39.83a1.82,1.82,0,0,0-.46-1.32A1.51,1.51,0,0,0,27.37,38a1.45,1.45,0,0,0-1.11.47,1.86,1.86,0,0,0-.44,1.33,1.91,1.91,0,0,0,.43,1.33A1.4,1.4,0,0,0,27.33,41.63Z"/><path class="cls-12" d="M30.56,38.8a1.26,1.26,0,0,1,.49-1,1.92,1.92,0,0,1,1.27-.41,1.76,1.76,0,0,1,1.23.4,1.55,1.55,0,0,1,.49,1.1h-.8a.91.91,0,0,0-.26-.64,1,1,0,0,0-.69-.24,1,1,0,0,0-.69.21.68.68,0,0,0-.25.54.58.58,0,0,0,.29.51,2,2,0,0,0,.69.26l.81.19a1.47,1.47,0,0,1,.69.41,1.17,1.17,0,0,1,.29.85,1.13,1.13,0,0,1-.49.92,2.05,2.05,0,0,1-1.28.38,1.9,1.9,0,0,1-1.26-.4,1.48,1.48,0,0,1-.52-1.1h.8a.87.87,0,0,0,.28.63,1,1,0,0,0,.72.24,1.15,1.15,0,0,0,.72-.2.61.61,0,0,0,.26-.5.62.62,0,0,0-.21-.49,1.14,1.14,0,0,0-.51-.25l-.67-.16q-.36-.1-.67-.2a1.09,1.09,0,0,1-.51-.38A1.07,1.07,0,0,1,30.56,38.8Z"/><path class="cls-12" d="M35.06,38.8a1.26,1.26,0,0,1,.49-1,1.92,1.92,0,0,1,1.27-.41,1.76,1.76,0,0,1,1.23.4,1.54,1.54,0,0,1,.49,1.1h-.8a.91.91,0,0,0-.26-.64,1,1,0,0,0-.69-.24,1,1,0,0,0-.69.21.68.68,0,0,0-.25.54.58.58,0,0,0,.29.51,2,2,0,0,0,.69.26l.81.19a1.47,1.47,0,0,1,.69.41,1.17,1.17,0,0,1,.29.85,1.13,1.13,0,0,1-.49.92,2.05,2.05,0,0,1-1.28.38,1.9,1.9,0,0,1-1.26-.4,1.48,1.48,0,0,1-.52-1.1h.8a.87.87,0,0,0,.28.63,1,1,0,0,0,.72.24,1.16,1.16,0,0,0,.72-.2.61.61,0,0,0,.26-.5.62.62,0,0,0-.21-.49,1.14,1.14,0,0,0-.51-.25l-.67-.16c-.24-.06-.47-.13-.67-.2a1.08,1.08,0,0,1-.51-.38A1.07,1.07,0,0,1,35.06,38.8Z"/><path class="cls-12" d="M40.49,36.54a.51.51,0,0,1-.38.16.5.5,0,0,1-.37-.16.53.53,0,0,1-.15-.38.52.52,0,0,1,.15-.38.52.52,0,0,1,.74,0,.55.55,0,0,1,0,.76Zm-.77,5.66V37.46h.78V42.2Z"/><path class="cls-12" d="M44.3,37.38a2.12,2.12,0,0,1,1.6.67,2.44,2.44,0,0,1,.64,1.75,2.52,2.52,0,0,1-.64,1.78,2.09,2.09,0,0,1-1.6.7,1.89,1.89,0,0,1-1-.29,1.94,1.94,0,0,1-.69-.75v1h-.78V35.81h.78v2.6a1.9,1.9,0,0,1,1.74-1Zm-.15,4.22a1.48,1.48,0,0,0,1.12-.5,1.83,1.83,0,0,0,.47-1.3,1.72,1.72,0,0,0-.47-1.27,1.52,1.52,0,0,0-1.12-.47,1.5,1.5,0,0,0-1.12.48,2,2,0,0,0,0,2.57A1.5,1.5,0,0,0,44.15,41.6Z"/><path class="cls-12" d="M47.51,42.2V35.81h.78V42.2Z"/><path class="cls-12" d="M51.54,42.28a2.15,2.15,0,0,1-1.64-.67,2.49,2.49,0,0,1-.63-1.78,2.46,2.46,0,0,1,.64-1.77,2.26,2.26,0,0,1,3.92,1.58,3.15,3.15,0,0,1,0,.47H50.06a1.64,1.64,0,0,0,.44,1.12,1.4,1.4,0,0,0,1,.41,1.44,1.44,0,0,0,.81-.22,1.28,1.28,0,0,0,.48-.57h.84a2.18,2.18,0,0,1-.77,1A2.21,2.21,0,0,1,51.54,42.28Zm1.05-3.84a1.52,1.52,0,0,0-2.07,0,1.62,1.62,0,0,0-.45,1.1H53A1.48,1.48,0,0,0,52.59,38.44Z"/></svg>