<?xml version="1.0" encoding="utf-8"?>
<svg version="1.1" id="Layer_1"  xmlns="http://www.w3.org/2000/svg"
	 x="0px" y="0px" viewBox="0 0 87 87" enable-background="new -0.5 -0.5 87 87" xml:space="preserve">
<g id="gameIcon">
	<g id="cb" image-rendering="auto">
		<path d="M80,40.2c0-11.1-4-20.6-11.7-28.5C60.4,3.9,51.1,0,40,0S19.4,3.9,11.7,11.7S0,29.1,0,40.2s3.9,20.4,11.7,28.3
			C18.5,75.2,26.3,79,35.4,80h9.1c9.1-0.9,17.1-4.8,23.7-11.5C76,60.8,80,51.3,80,40.2"/>
		<path fill="#FFCC00" d="M73.8,40.2c0-9.5-3.3-17.5-10-24c-6.5-6.7-14.5-10-24-9.9c-9.3,0-17.3,3.2-24,9.9C9.3,22.8,6,30.8,6,40.2
			s3.3,17.3,9.8,24c6.7,6.7,14.7,9.9,24,10c9.3,0,17.3-3.3,24-10S73.8,49.5,73.8,40.2"/>
		<path d="M49.7,18c-0.9,0.6-2,1.7-3.2,3.3c-1.2,1.9-1.6,3.3-1.1,4.1c0.2,0.6,0.8,0.9,1.5,1.1c0.7,0.1,1.3,0.1,1.9-0.2
			c0.4-0.2,0.8-0.9,1.5-2.1s1.3-2,2.1-2.4c2.6-1.5,4.1-1.3,5,0.1c0.2,0.6,0.2,1.1,0.1,1.6c-0.1,0.6-0.6,1.2-1.1,1.7
			c-0.9,0.9-1.9,1.7-2.9,2.7c-0.8,1.1-1,2.1-0.5,2.9c0.7,1.1,1.7,1.3,3.5,0.6c3.7-1.6,6.3-1.2,7.7,1.3c0.6,0.8,0.6,1.7,0.1,2.8
			c-0.4,1.1-1.1,1.9-2.1,2.4c-1.2,0.7-2.4,1.1-3.3,0.9c-0.1,0-0.8-0.2-2-0.8c-0.7-0.2-1.3-0.2-2,0.1c-0.6,0.4-0.9,0.8-1.2,1.5
			c-0.2,0.7-0.2,1.3,0.1,1.9c0.1,0.2,0.2,0.4,0.6,0.6c1.3,1.2,3.1,1.7,5,1.6c1.7-0.1,3.5-0.7,5-1.6c2.2-1.3,3.7-3.2,4.4-5.5
			c0.7-2.4,0.6-4.7-0.7-6.8c-1.5-2.7-3.7-4-6.5-3.9c0.6-0.9,0.9-2,0.9-3.1s-0.4-2.1-1.1-3.3c-1.2-2.1-2.9-3.2-5-3.5
			C54.3,16,52.1,16.7,49.7,18"/>
		<path d="M31.5,28.5c-1.5,0.8-2.7,2-3.6,3.6c-0.7,1.1-1.3,2.6-1.9,4.2c-0.2,0.8-0.1,1.5,0.1,2.1c0.4,0.6,0.8,0.9,1.6,0.9
			c0.6,0,1.1-0.1,1.7-0.4c0.6-0.2,1.1-1.2,1.7-2.9c0.7-1.7,1.5-2.9,2.7-3.5c0.7-0.4,1.3-0.6,2.2-0.6s1.5,0.2,1.7,0.7
			c0.9,1.5,0.8,3.3-0.1,5.5c-0.9,1.7-1.7,3.5-2.7,5.2c-0.9,1.9-1.3,3.5-1.5,4.8c-0.1,1.9,0.4,3.7,1.5,5.6c0.6,1.1,1.1,1.7,1.6,2
			c0.8,0.6,1.6,0.6,2.6,0c0.1,0,0.2-0.1,0.6-0.1c0.2-0.1,0.4-0.1,0.6-0.2c0.4-0.2,1.1-0.7,1.7-1.2c0.8-0.6,1.3-0.9,1.7-1.2l4.7-2.7
			c0.2-0.1,0.7-0.2,1.2-0.6c0.7-0.2,1.1-0.4,1.3-0.6c0.7-0.4,0.9-0.9,1.1-1.6c0.1-0.7,0.1-1.2-0.2-1.7c-0.4-0.8-1.3-1.1-2.7-0.9
			C48,45,47,45.3,46,45.8c-0.9,0.6-2.6,1.5-4.7,2.9c-1.1,0.7-1.9,1.3-2.4,1.7c-0.8-1.7-0.6-3.9,0.7-6.3c0.8-1.6,1.7-3.1,2.6-4.7
			c0.8-1.7,1.2-3.3,1.3-4.7c0.1-1.7-0.4-3.5-1.3-5.2c-1.1-1.7-2.7-2.7-4.9-2.8C35.1,26.8,33.2,27.4,31.5,28.5"/>
		<path d="M12.1,39.1c-0.7,0.4-1.3,1.1-1.9,2.1l-2,4.9c-0.4,1.1-0.4,1.9,0,2.4c0.2,0.6,0.8,0.9,1.5,1.1c0.7,0.1,1.3,0.1,1.9-0.2
			c0.2-0.1,0.7-0.8,1.2-1.9l8,13.9c-0.2,0.1-0.6,0.2-0.7,0.4c-2.1,1.3-2.9,2.7-2,4c0.7,1.2,2,1.3,4,0.1l6.3-3.6
			c0.7-0.4,1.1-0.8,1.2-1.5s0.1-1.2-0.1-1.7c-0.4-0.6-0.8-0.9-1.5-1.1c-0.7-0.1-1.2-0.1-1.9,0.2L25,58.8l-2.1-3.7
			c-2.4-4.1-4.2-7.4-5.5-9.7c-1.2-2.2-2.1-4-2.9-5.4C13.9,38.9,13.1,38.6,12.1,39.1"/>
	</g>
</g>
</svg>
