<svg id="Layer_1" data-name="Layer 1" xmlns="http://www.w3.org/2000/svg" xmlns:xlink="http://www.w3.org/1999/xlink" viewBox="0 0 144.31 112.12"><defs><style>.cls-1{fill:url(#radial-gradient);}.cls-2{fill:url(#radial-gradient-2);}.cls-3{fill:#871f06;}.cls-4{fill:#af0704;}.cls-5{fill:#fff;}.cls-6{fill:#ffc800;}.cls-7{fill:#ffea00;}</style><radialGradient id="radial-gradient" cx="-243.23" cy="43.81" r="122.39" gradientTransform="translate(256.28 -0.66)" gradientUnits="userSpaceOnUse"><stop offset="0" stop-color="#8cb300"/><stop offset="0.32" stop-color="#bd7400"/><stop offset="0.6" stop-color="#e63f00"/><stop offset="1" stop-color="#ad1100"/></radialGradient><radialGradient id="radial-gradient-2" cx="-247.36" cy="41.67" r="110.38" gradientTransform="translate(256.28 -0.66)" gradientUnits="userSpaceOnUse"><stop offset="0" stop-color="#b2d62f"/><stop offset="0.09" stop-color="#c6bd30"/><stop offset="0.22" stop-color="#de9c31"/><stop offset="0.34" stop-color="#f08532"/><stop offset="0.46" stop-color="#fb7733"/><stop offset="0.56" stop-color="#ff7233"/><stop offset="1" stop-color="#e04433"/></radialGradient></defs><title>apple-screen10</title><path class="cls-1" d="M4.62,47.63C6.48,28.69,37.38,33.12,47.24,26.34,66.41,13.16,80.3-2.86,103.63.44s27.72,18,29.55,26S164.52,69,103.63,89.59C45,109.38,2.18,72.37,4.62,47.63Z"/><path class="cls-2" d="M82.81,50.19c36-13.54,46.13-44.26,22.71-47.86S66.41,19.4,49.94,28.45C37.32,35.4,8.37,30.58,6.5,49.52,5,65.26,46.37,63.89,82.81,50.19Z"/><path class="cls-3" d="M134.18,30.93c-1.41-3.2-2.39-6.64-4.32-5.79s-2.35,4.14-.95,7.33,4.11,5.09,6,4.24S135.59,34.12,134.18,30.93Z"/><path class="cls-4" d="M143,26.17c-.4-.91-1.68-2.74-2.64-1-1.18,2.09-3.83,4.81-8.07,3.49-1-.33-1.22,2.14-.49,3.8s2.95,3.28,3.13,2.2,7.43-2.42,9.2-5.89C144.83,27.35,143.28,26.83,143,26.17Z"/><path class="cls-5" d="M94.75,14.53c-3.32.94-6.57-.3-7.27-2.76s1.43-5.23,4.75-6.17,6.57.3,7.26,2.77S98.07,13.59,94.75,14.53Z"/><path class="cls-5" d="M15.66,46.63C13.92,48,11.72,48,10.74,46.7s-.37-3.41,1.37-4.74S16.05,40.6,17,41.9,17.4,45.31,15.66,46.63Z"/><path class="cls-4" d="M0,93.78C14.62,110.56,41.74,117,68.12,108.1s44.05-30.54,45.54-52.77Z"/><path class="cls-6" d="M0,93.78c14.11,15.28,40.87,20.66,67.25,11.73s44.42-29.46,46.41-50.19Z"/><path class="cls-7" d="M0,93.78C11.08,100.06,35.66,99,62,90s46.6-23,51.62-34.7C68,68.2,42.94,77.44,0,93.78Z"/></svg>