<svg id="Layer_1" data-name="Layer 1" xmlns="http://www.w3.org/2000/svg" viewBox="0 0 122.15 186.58"><defs><style>.cls-1{fill:#e7e6e6;}.cls-2{fill:#f5f3f3;}.cls-2,.cls-3,.cls-4,.cls-5{fill-rule:evenodd;}.cls-3{fill:#cdcccb;}.cls-4{fill:#fff;}.cls-5{fill:#b2b2b2;}</style></defs><title>spoon-screen6</title><path class="cls-1" d="M120.58,14.35c-17.79,28.47-37,55.87-55,84.1-5.77,9-13,22.18-10.3,32.38,1.13,4.34,2.59,8.07,2.54,13-.06,6.37-2.82,12.22-7.17,18-7.34,9.74-26.58,31.8-42.27,22.57S2.9,147.79,8,136.7c3-6.56,6.83-11.78,12.42-14.9,4.3-2.4,8.2-2.91,12.68-4,10.24-2.58,18.38-15.21,23.58-24.55C72.92,64,87.86,34.05,104.42,4.85,110.67-6.18,127.3,3.6,120.58,14.35Z"/><path class="cls-2" d="M119.51,13.69c-17.79,28.46-37,55.87-55,84.09-7.43,11.65-13,23.71-10.45,33.35,1,3.92,2.55,7.91,2.5,12.66s-1.67,10.28-6.93,17.26C41.71,171.58,23.44,191.77,9,183.3s-5.38-34.1.08-46.07c3.63-7.94,7.72-12,11.9-14.34s8.05-2.83,12.38-3.92c9.67-2.43,17.65-13.08,24.37-25.16C74,64.58,89,34.66,105.51,5.47,110.94-4.1,125.34,4.37,119.51,13.69Z"/><path class="cls-3" d="M7,179.07a12.57,12.57,0,0,0,3,2.47A13,13,0,0,0,19.45,183s6-1.57,13.58-8.61,16.66-16.82,18.86-24.43.48-18.1-5.38-23.62l-.06-.06-.09-.08-.2-.18a11.59,11.59,0,0,0-1.23-.93c-1.68,2.79-4.85,6-8.76,10C26.88,144.5,13.16,158.46,7,179.07Z"/><path class="cls-4" d="M18.83,124.27c-3.41,2.48-6.73,6.39-9.73,13C4.63,147-2.23,166,3.34,177.19c1.79-11,6.46-23.65,13.86-36.07a116.43,116.43,0,0,1,15.86-21A31.84,31.84,0,0,0,18.83,124.27Z"/><path class="cls-5" d="M44.78,123.25c-3.19-1.87-7.71-1.87-12.35-.74,13.85,1.18,19.45,9.62,19.13,22.87a24.57,24.57,0,0,1-1.94,6.2,42.22,42.22,0,0,1-4.69,7.73c-4.72,6.32-16.38,20.43-27.61,24,12.16-.7,25.6-16.68,30.68-23.42a38.85,38.85,0,0,0,4.5-7.41C56.26,144,52.9,128,44.78,123.25Z"/><path class="cls-5" d="M105.51,5.47C89,34.66,74,64.58,57.75,93.81,51,105.89,43.06,116.54,33.38,119c-4.33,1.09-8.24,1.61-12.38,3.92a21.69,21.69,0,0,0-2.17,1.39,33.1,33.1,0,0,1,11.45-3.92c1.3-.28,2.62-.55,4-.87,9.85-2.33,18.17-12.77,25.25-24.64,18.23-30.58,47.74-84.78,57.07-92.43C113,.42,108.19.75,105.51,5.47Z"/></svg>