<svg xmlns="http://www.w3.org/2000/svg" xmlns:xlink="http://www.w3.org/1999/xlink" viewBox="0 0 225.27 87.89"><defs><style>.cls-1{isolation:isolate;}.cls-2{fill:#f05b24;}.cls-3{fill:#df5326;}.cls-4{fill:#d73d27;}.cls-5{fill:#fcc69a;}.cls-6{fill:#f79f7c;}.cls-7{fill:#fddabc;}.cls-8{opacity:0.87;}.cls-9{opacity:0.27;}.cls-10,.cls-9{mix-blend-mode:multiply;}.cls-10{opacity:0.15;}.cls-11{fill:#fffb6b;}.cls-12{fill:#ac0;}.cls-13{fill:#ffd41b;}.cls-14{fill:#8aa600;}.cls-15{fill:#3a2615;}.cls-16{fill:#ffee5e;}.cls-17{fill:#ffc70e;}.cls-18{fill:#fde151;}.cls-19{fill:#faba01;}.cls-20{fill:url(#radial-gradient);}.cls-21{fill:url(#radial-gradient-2);}.cls-22{fill:#871f06;}.cls-23{fill:#af0704;}.cls-24{fill:#fff;}.cls-25{fill:#ffc800;}.cls-26{fill:#ffea00;}.cls-27{fill:#86b300;}.cls-28{fill:#7d8f17;}.cls-29,.cls-31,.cls-33,.cls-34,.cls-35,.cls-36,.cls-37,.cls-38,.cls-39,.cls-40,.cls-41,.cls-42,.cls-43,.cls-44,.cls-45,.cls-46,.cls-47,.cls-48,.cls-49,.cls-50{fill:#21273d;}.cls-30{fill:#4b5378;}.cls-31{opacity:0.92;}.cls-32{fill:#d4e4f3;}.cls-33{opacity:0.88;}.cls-34{opacity:0.78;}.cls-35{opacity:0.77;}.cls-36{opacity:0.71;}.cls-37{opacity:0.81;}.cls-38{opacity:0.97;}.cls-39{opacity:0.84;}.cls-40{opacity:0.9;}.cls-41{opacity:0.72;}.cls-42{opacity:0.83;}.cls-43{opacity:0.82;}.cls-44{opacity:0.76;}.cls-45{opacity:0.99;}.cls-46{opacity:0.73;}.cls-47{opacity:0.95;}.cls-48{opacity:0.93;}.cls-49{opacity:0.98;}.cls-50{opacity:0.96;}</style><radialGradient id="radial-gradient" cx="137.48" cy="44.19" r="55.59" gradientUnits="userSpaceOnUse"><stop offset="0" stop-color="#8cb300"/><stop offset="0.32" stop-color="#bd7400"/><stop offset="0.6" stop-color="#e63f00"/><stop offset="1" stop-color="#ad1100"/></radialGradient><radialGradient id="radial-gradient-2" cx="135.6" cy="43.22" r="50.14" gradientUnits="userSpaceOnUse"><stop offset="0" stop-color="#b2d62f"/><stop offset="0.09" stop-color="#c6bd30"/><stop offset="0.22" stop-color="#de9c31"/><stop offset="0.34" stop-color="#f08532"/><stop offset="0.46" stop-color="#fb7733"/><stop offset="0.56" stop-color="#ff7233"/><stop offset="1" stop-color="#e04433"/></radialGradient></defs><title>froot-plate-screen9</title><g class="cls-1"><g id="Layer_1" data-name="Layer 1"><path class="cls-2" d="M79.86,62.17c-22.8,2.2-40.3,4.51-40.3,4.51s-5.33,14.77,44.8,19.17c3,.28,5.95.5,8.93.7a46.2,46.2,0,0,0,1.18-5.14C96.74,71.08,89.37,65.48,79.86,62.17Z"/><path class="cls-3" d="M79.86,62.17c9.51,3.31,16.87,8.91,14.61,19.23a46.2,46.2,0,0,1-1.18,5.14c46.83,3.15,90-1.74,90.91-19.8C184.86,54.18,122.9,58,79.86,62.17Z"/><path class="cls-4" d="M84.34,86.32c-20.83-1.84-32.12-5.44-38.24-9.1h0C40,73.6,39,69.81,39,67.82h0a4.74,4.74,0,0,1,.18-1.33h0l.1-.25.22,0s70.57-9.27,113.17-8.43h0c9.23.18,17.14.84,22.77,2.17h0c5.58,1.35,9.08,3.26,9.13,6.65h0v.17h0c-.49,8.26-9,13.57-22.11,16.89h0c-13.14,3.31-31,4.55-50.6,4.16h0c-8.93-.17-18.22-.69-27.54-1.5ZM39.78,67.83c0,1.58.68,5,6.66,8.56h0c6,3.56,17.18,7.18,38,9h0c9.32.82,18.58,1.33,27.5,1.51h0c19.52.39,37.38-.87,50.41-4.15h0c13.08-3.27,21.18-8.67,21.51-16h0v-.13h0c.12-2.33-2.93-4.43-8.51-5.72h0c-5.55-1.32-13.44-2-22.63-2.15h0c-31.89-.63-79.56,4.43-101.39,7h0C45,66.44,40.89,67,39.87,67.1h0a3.17,3.17,0,0,0-.09.74Z"/><path class="cls-5" d="M224.83,48.34c-.12,19.35-50.47,34.45-112.43,33.72S.31,65.07.44,45.73,50.89,11.28,112.85,12,225,29,224.83,48.34Z"/><path class="cls-6" d="M112.4,82.49c-31-.36-59-4.6-79.32-11.18h0C12.79,64.72.07,55.86,0,45.8H0v-.07H0c.13-9.86,12.38-18.26,31.93-24.38h0c19.58-6.09,46.63-9.8,76.67-9.8h0l4.25,0h0c31,.36,59,4.59,79.33,11.18h0c20.28,6.6,33,15.45,33.08,25.52h0v0h0l-.44,0h.44c-.13,9.86-12.38,18.27-31.93,24.37h0c-19.6,6.09-46.65,9.81-76.69,9.81h0c-1.4,0-2.83,0-4.25,0ZM32.19,22.17C12.69,28.21.85,36.68.86,45.76h0v0h0C.79,55,13.11,64,33.34,70.49h0C53.54,77,81.51,81.27,112.42,81.62h0c1.41,0,2.83,0,4.23,0h0c30,0,56.95-3.71,76.42-9.76h0c19.48-6,31.32-14.5,31.33-23.54h0v-.08h0c.07-9.24-12.25-18.17-32.48-24.7h0c-20.2-6.54-48.17-10.77-79.08-11.13h0c-1.41,0-2.83,0-4.24,0h0c-30,0-56.93,3.71-76.39,9.76Z"/><path class="cls-7" d="M219.1,48.11c-.11,18.06-48,32.15-106.93,31.47S5.53,63.69,5.65,45.62s48-32.15,106.92-31.46S219.21,30,219.1,48.11Z"/><g class="cls-8"><path class="cls-5" d="M205,47.88c-.07,14.51-41.41,25.91-92.33,25.47S20.54,60.79,20.58,46.29,62,20.38,112.91,20.82,205.07,33.37,205,47.88Z"/></g><path class="cls-5" d="M23.92,53.36c-.09-.09-.16-.19-.26-.28C23.76,53.18,23.84,53.28,23.92,53.36Z"/><path class="cls-5" d="M23.23,52.6l-.32-.37Z"/><path class="cls-5" d="M23.56,53l-.26-.28Z"/><path class="cls-5" d="M22.88,52.18c-.08-.11-.17-.22-.24-.33C22.7,52,22.8,52.06,22.88,52.18Z"/><path class="cls-5" d="M24.78,54.19l-.37-.34Z"/><path class="cls-5" d="M22.53,51.73a2.29,2.29,0,0,1-.18-.27A2.29,2.29,0,0,0,22.53,51.73Z"/><path class="cls-5" d="M25.19,54.57l-.3-.27Z"/><path class="cls-5" d="M26.19,55.4,25.74,55Z"/><path class="cls-5" d="M25.67,55l-.36-.3Z"/><path class="cls-5" d="M20.68,47.51a1.56,1.56,0,0,0,0-.3A1.56,1.56,0,0,1,20.68,47.51Z"/><path class="cls-5" d="M21,48.79a2.18,2.18,0,0,1-.09-.28A2.18,2.18,0,0,0,21,48.79Z"/><path class="cls-5" d="M20.88,48.39a1.61,1.61,0,0,1-.07-.3A1.61,1.61,0,0,0,20.88,48.39Z"/><path class="cls-5" d="M21.17,49.26c0-.11-.09-.23-.14-.35C21.08,49,21.12,49.15,21.17,49.26Z"/><path class="cls-5" d="M22.28,51.34,22.05,51Z"/><path class="cls-5" d="M20.78,48c0-.13-.06-.26-.08-.39C20.72,47.74,20.75,47.87,20.78,48Z"/><path class="cls-5" d="M22,51c-.08-.13-.16-.26-.23-.38C21.86,50.71,21.95,50.83,22,51Z"/><path class="cls-5" d="M21.74,50.49l-.15-.29Z"/><path class="cls-5" d="M21.53,50.07c0-.09-.09-.19-.14-.28C21.44,49.89,21.48,50,21.53,50.07Z"/><path class="cls-5" d="M21.34,49.68c-.07-.13-.11-.26-.17-.38C21.23,49.43,21.27,49.55,21.34,49.68Z"/><path class="cls-5" d="M24.39,53.83a4.38,4.38,0,0,1-.37-.37A4.38,4.38,0,0,0,24.39,53.83Z"/><path class="cls-5" d="M199.31,56.91l-.45.34Z"/><path class="cls-5" d="M198.26,57.68l-1.07.7Z"/><path class="cls-5" d="M198.76,57.32l-.41.29Z"/><path class="cls-5" d="M197.11,58.43c-.16.1-.33.2-.48.3C196.78,58.62,197,58.53,197.11,58.43Z"/><path class="cls-5" d="M200.66,55.79c-.1.09-.21.2-.33.29C200.45,56,200.56,55.88,200.66,55.79Z"/><path class="cls-5" d="M201.53,55c-.24.24-.51.49-.78.73C201,55.47,201.29,55.22,201.53,55Z"/><path class="cls-5" d="M26.65,55.76l-.36-.28Z"/><path class="cls-5" d="M200.24,56.17l-.37.31Z"/><path class="cls-5" d="M199.8,56.52l-.48.37Z"/><path class="cls-5" d="M196.51,58.79l-.49.31Z"/><path class="cls-5" d="M28.87,57.28l-.4-.26Z"/><path class="cls-5" d="M28.32,56.92l-1-.7Z"/><path class="cls-5" d="M27.17,56.13c-.14-.09-.24-.18-.38-.26C26.93,55.95,27,56,27.17,56.13Z"/><path class="cls-5" d="M29.48,57.66,29,57.38Z"/><path class="cls-5" d="M30.76,58.41l-.5-.29Z"/><path class="cls-5" d="M30.17,58.07l-.58-.34Z"/><path class="cls-5" d="M31.39,58.76l-.47-.25Z"/><path class="cls-5" d="M194.64,59.87l-.55.29Z"/><path class="cls-5" d="M195.95,59.14c-.39.23-.8.46-1.22.68C195.15,59.6,195.56,59.37,195.95,59.14Z"/><path class="cls-5" d="M204,51.77a2.22,2.22,0,0,1-.14.28A2.22,2.22,0,0,0,204,51.77Z"/><path class="cls-5" d="M204.94,48.8c0,.1,0,.2,0,.29C204.92,49,204.92,48.9,204.94,48.8Z"/><path class="cls-5" d="M204.4,50.88c-.05.13-.12.26-.17.39C204.28,51.13,204.34,51,204.4,50.88Z"/><path class="cls-5" d="M202.64,53.77l-.32.37Z"/><path class="cls-5" d="M203.52,52.56l-.24.35Z"/><path class="cls-5" d="M202.25,54.21c-.08.1-.18.21-.28.31C202.07,54.41,202.17,54.3,202.25,54.21Z"/><path class="cls-5" d="M202.92,53.39l-.26.32Z"/><path class="cls-5" d="M204.88,49.2a3.74,3.74,0,0,1-.08.39A3.74,3.74,0,0,0,204.88,49.2Z"/><path class="cls-5" d="M205,48.39a2.07,2.07,0,0,0,0,.28A2.07,2.07,0,0,1,205,48.39Z"/><path class="cls-5" d="M204.66,50.09a2,2,0,0,1-.08.28A2,2,0,0,0,204.66,50.09Z"/><path class="cls-5" d="M204.53,50.5a2.49,2.49,0,0,1-.13.34A2.49,2.49,0,0,0,204.53,50.5Z"/><path class="cls-5" d="M203.21,53c-.08.09-.14.18-.22.28C203.07,53.19,203.14,53.1,203.21,53Z"/><path class="cls-5" d="M204.78,49.66c0,.1-.05.21-.07.31C204.73,49.87,204.76,49.77,204.78,49.66Z"/><path class="cls-5" d="M20.6,46.68c0-.13,0-.27,0-.39C20.58,46.42,20.6,46.55,20.6,46.68Z"/><path class="cls-5" d="M20.63,47.09a1.39,1.39,0,0,1,0-.29A1.39,1.39,0,0,0,20.63,47.09Z"/><path class="cls-5" d="M203.77,52.15c-.09.13-.15.26-.24.38C203.62,52.4,203.69,52.27,203.77,52.15Z"/><path class="cls-5" d="M204.19,51.36c-.06.1-.1.2-.15.29C204.09,51.56,204.13,51.46,204.19,51.36Z"/><path class="cls-5" d="M201.89,54.61l-.28.29Z"/><path class="cls-5" d="M205,47.88c0,.13,0,.26,0,.39C205,48.14,205,48,205,47.88Z"/><g class="cls-9"><path class="cls-5" d="M194.09,60.17l-.11.06Z"/></g><g class="cls-9"><path class="cls-5" d="M28.47,57l-.15-.09Z"/></g><g class="cls-9"><path class="cls-5" d="M29.58,57.72l-.1-.07Z"/></g><g class="cls-9"><path class="cls-5" d="M31.57,58.84a1.14,1.14,0,0,1-.17-.09A1.14,1.14,0,0,0,31.57,58.84Z"/></g><g class="cls-9"><path class="cls-5" d="M203.54,52.53s0,0,0,0S203.52,52.54,203.54,52.53Z"/></g><g class="cls-9"><path class="cls-5" d="M30.26,58.12l-.1-.05Z"/></g><g class="cls-9"><path class="cls-5" d="M30.93,58.51l-.16-.1Z"/></g><g class="cls-9"><path class="cls-5" d="M203.27,52.9a1.16,1.16,0,0,1-.06.11A1.16,1.16,0,0,0,203.27,52.9Z"/></g><g class="cls-9"><path class="cls-5" d="M29,57.38l-.16-.1Z"/></g><g class="cls-9"><path class="cls-5" d="M201.61,54.9l-.08.09Z"/></g><g class="cls-9"><path class="cls-5" d="M199.32,56.89v0Z"/></g><g class="cls-9"><path class="cls-5" d="M199.87,56.48l-.07,0Z"/></g><g class="cls-9"><path class="cls-5" d="M202,54.51l-.09.1Z"/></g><g class="cls-9"><path class="cls-5" d="M203.83,52.05a.49.49,0,0,0-.05.09A.49.49,0,0,1,203.83,52.05Z"/></g><g class="cls-9"><path class="cls-5" d="M200.33,56.08l-.1.09Z"/></g><g class="cls-9"><path class="cls-5" d="M198.86,57.24l-.11.07Z"/></g><g class="cls-9"><path class="cls-5" d="M200.76,55.71l-.09.08Z"/></g><g class="cls-9"><path class="cls-5" d="M203,53.29a.34.34,0,0,1-.07.11A.34.34,0,0,0,203,53.29Z"/></g><g class="cls-9"><path class="cls-5" d="M196,59.1l-.07,0Z"/></g><g class="cls-9"><path class="cls-5" d="M194.73,59.82l-.09.05Z"/></g><g class="cls-9"><path class="cls-5" d="M202.67,53.72a.09.09,0,0,0,0,.05A.09.09,0,0,1,202.67,53.72Z"/></g><g class="cls-9"><path class="cls-5" d="M196.63,58.73l-.12.06Z"/></g><g class="cls-9"><path class="cls-5" d="M202.32,54.14l-.07.07Z"/></g><g class="cls-9"><path class="cls-5" d="M198.34,57.6l-.08.07Z"/></g><g class="cls-9"><path class="cls-5" d="M197.19,58.38l-.07,0Z"/></g><g class="cls-9"><path class="cls-5" d="M204.4,50.83a.12.12,0,0,0,0,0A.12.12,0,0,1,204.4,50.83Z"/></g><g class="cls-9"><path class="cls-5" d="M21.39,49.8a.83.83,0,0,0-.05-.11A.83.83,0,0,1,21.39,49.8Z"/></g><g class="cls-9"><path class="cls-5" d="M21.8,50.59a.61.61,0,0,0-.06-.1A.61.61,0,0,1,21.8,50.59Z"/></g><g class="cls-9"><path class="cls-5" d="M22.05,51A.17.17,0,0,0,22,51,.17.17,0,0,1,22.05,51Z"/></g><g class="cls-9"><path class="cls-5" d="M21.59,50.2l-.06-.13Z"/></g><g class="cls-9"><path class="cls-5" d="M205,48.67a.44.44,0,0,0,0,.13A.44.44,0,0,1,205,48.67Z"/></g><g class="cls-9"><path class="cls-5" d="M204.9,49.09s0,.07,0,.1S204.9,49.13,204.9,49.09Z"/></g><g class="cls-9"><path class="cls-5" d="M22.63,51.85l-.1-.12Z"/></g><g class="cls-9"><path class="cls-5" d="M22.36,51.46a.33.33,0,0,1-.08-.12A.33.33,0,0,0,22.36,51.46Z"/></g><g class="cls-9"><path class="cls-5" d="M27.29,56.22l-.11-.1Z"/></g><g class="cls-9"><path class="cls-5" d="M205,48.27s0,.09,0,.12S205,48.31,205,48.27Z"/></g><g class="cls-9"><path class="cls-5" d="M20.61,46.8s0-.08,0-.12S20.61,46.76,20.61,46.8Z"/></g><g class="cls-9"><path class="cls-5" d="M20.7,47.61a.17.17,0,0,0,0-.1A.17.17,0,0,1,20.7,47.61Z"/></g><g class="cls-9"><path class="cls-5" d="M20.81,48.08a.15.15,0,0,1,0-.08A.15.15,0,0,0,20.81,48.08Z"/></g><g class="cls-9"><path class="cls-5" d="M21.17,49.3v0Z"/></g><g class="cls-9"><path class="cls-5" d="M204.8,49.58s0,.05,0,.08S204.79,49.61,204.8,49.58Z"/></g><g class="cls-9"><path class="cls-5" d="M20.91,48.52a1.07,1.07,0,0,0,0-.13A1.07,1.07,0,0,1,20.91,48.52Z"/></g><g class="cls-9"><path class="cls-5" d="M21,48.91s0-.08,0-.12S21,48.88,21,48.91Z"/></g><g class="cls-9"><path class="cls-5" d="M25.74,55,25.67,55Z"/></g><g class="cls-9"><path class="cls-5" d="M204.23,51.26a1,1,0,0,0,0,.09A1,1,0,0,1,204.23,51.26Z"/></g><g class="cls-9"><path class="cls-5" d="M25.31,54.68l-.12-.11Z"/></g><g class="cls-9"><path class="cls-5" d="M204,51.65a.28.28,0,0,1-.07.12A.28.28,0,0,0,204,51.65Z"/></g><g class="cls-9"><path class="cls-5" d="M22.92,52.22l0,0Z"/></g><g class="cls-9"><path class="cls-5" d="M26.79,55.86a.66.66,0,0,0-.14-.11A.66.66,0,0,1,26.79,55.86Z"/></g><g class="cls-9"><path class="cls-5" d="M26.29,55.47l-.1-.08Z"/></g><g class="cls-9"><path class="cls-5" d="M20.64,47.21s0-.08,0-.13S20.64,47.17,20.64,47.21Z"/></g><g class="cls-9"><path class="cls-5" d="M204.71,50a.58.58,0,0,0,0,.12A.58.58,0,0,1,204.71,50Z"/></g><g class="cls-9"><path class="cls-5" d="M23.66,53.09l-.1-.12Z"/></g><g class="cls-9"><path class="cls-5" d="M23.3,52.69l-.07-.1Z"/></g><g class="cls-9"><path class="cls-5" d="M24.89,54.3l-.11-.11Z"/></g><g class="cls-9"><path class="cls-5" d="M204.57,50.37a.34.34,0,0,1,0,.12A.34.34,0,0,0,204.57,50.37Z"/></g><g class="cls-9"><path class="cls-5" d="M24,53.46l-.1-.09Z"/></g><g class="cls-9"><path class="cls-5" d="M24.41,53.86l0,0Z"/></g><path class="cls-5" d="M201.89,54.61l.09-.1c.09-.1.2-.21.28-.31l.07-.07.32-.37a.09.09,0,0,1,0-.05l.26-.32a.34.34,0,0,0,.07-.11c.07-.09.14-.19.22-.28a1.16,1.16,0,0,0,.06-.11l.24-.35s0,0,0,0,.15-.25.24-.38a.49.49,0,0,1,.05-.09,2.22,2.22,0,0,0,.14-.28.28.28,0,0,0,.07-.12c.05-.09.09-.19.15-.29a1,1,0,0,1,0-.09c.05-.13.12-.26.17-.39a.12.12,0,0,1,0,0,2.49,2.49,0,0,0,.13-.34.34.34,0,0,0,0-.12,2,2,0,0,0,.08-.28.58.58,0,0,1,0-.12c0-.1.05-.21.07-.31s0-.05,0-.08a3.74,3.74,0,0,0,.08-.39s0-.07,0-.1,0-.19,0-.29a.44.44,0,0,1,0-.13,2.07,2.07,0,0,1,0-.28s0-.08,0-.12,0-.26,0-.39c.07-14.51-41.18-26.62-92.1-27.06s-92.26,11-92.32,25.47c0,.13,0,.26,0,.39s0,.08,0,.12a1.39,1.39,0,0,0,0,.29s0,.09,0,.13a1.56,1.56,0,0,1,0,.3.17.17,0,0,1,0,.1c0,.13.05.26.08.39a.15.15,0,0,0,0,.08,1.61,1.61,0,0,0,.07.3,1.07,1.07,0,0,1,0,.13,2.18,2.18,0,0,0,.09.28s0,.08,0,.12.09.24.14.35v0c.06.12.11.25.17.38a.83.83,0,0,1,.05.11c.05.09.09.19.14.28l.06.13.15.29a.61.61,0,0,1,.06.1c.07.12.15.25.23.38a.17.17,0,0,1,0,.06l.22.32a.33.33,0,0,0,.08.12,2.29,2.29,0,0,0,.18.27l.1.12c.07.11.16.21.24.33l0,0,.32.37.07.1.26.28.1.12c.09.09.17.19.26.28l.1.09a4.38,4.38,0,0,0,.37.37l0,0,.37.34.11.11.3.27.12.11.36.3.07.06.45.36.1.08.36.28a.66.66,0,0,1,.14.11c.14.08.24.18.38.26l.11.1,1,.7.15.09.4.26.16.1.45.28.1.07.58.34.1.05.5.29.16.1.47.25a1.14,1.14,0,0,0,.17.09c.2.11.4.23.62.33C30,57,28.85,54.77,28.86,52.43c.07-13.2,37.68-23.58,84-23.17s83.88,11.42,83.82,24.63c0,2.32-1.18,4.56-3.36,6.66l.64-.32.11-.06.55-.29.09-.05c.42-.22.83-.45,1.22-.68l.07,0,.49-.31.12-.06c.15-.11.32-.2.48-.3l.07,0,1.07-.7.08-.07.41-.29.11-.07.45-.34v0l.48-.37.07,0,.37-.31.1-.09c.12-.09.23-.2.33-.29l.09-.08c.27-.25.53-.49.78-.73l.08-.09Z"/><g class="cls-9"><path class="cls-5" d="M201.89,54.61l.09-.1c.09-.1.2-.21.28-.31l.07-.07.32-.37a.09.09,0,0,1,0-.05l.26-.32a.34.34,0,0,0,.07-.11c.07-.09.14-.19.22-.28a1.16,1.16,0,0,0,.06-.11l.24-.35s0,0,0,0,.15-.25.24-.38a.49.49,0,0,1,.05-.09,2.22,2.22,0,0,0,.14-.28.28.28,0,0,0,.07-.12c.05-.09.09-.19.15-.29a1,1,0,0,1,0-.09c.05-.13.12-.26.17-.39a.12.12,0,0,1,0,0,2.49,2.49,0,0,0,.13-.34.34.34,0,0,0,0-.12,2,2,0,0,0,.08-.28.58.58,0,0,1,0-.12c0-.1.05-.21.07-.31s0-.05,0-.08a3.74,3.74,0,0,0,.08-.39s0-.07,0-.1,0-.19,0-.29a.44.44,0,0,1,0-.13,2.07,2.07,0,0,1,0-.28s0-.08,0-.12,0-.26,0-.39c.07-14.51-41.18-26.62-92.1-27.06s-92.26,11-92.32,25.47c0,.13,0,.26,0,.39s0,.08,0,.12a1.39,1.39,0,0,0,0,.29s0,.09,0,.13a1.56,1.56,0,0,1,0,.3.17.17,0,0,1,0,.1c0,.13.05.26.08.39a.15.15,0,0,0,0,.08,1.61,1.61,0,0,0,.07.3,1.07,1.07,0,0,1,0,.13,2.18,2.18,0,0,0,.09.28s0,.08,0,.12.09.24.14.35v0c.06.12.11.25.17.38a.83.83,0,0,1,.05.11c.05.09.09.19.14.28l.06.13.15.29a.61.61,0,0,1,.06.1c.07.12.15.25.23.38a.17.17,0,0,1,0,.06l.22.32a.33.33,0,0,0,.08.12,2.29,2.29,0,0,0,.18.27l.1.12c.07.11.16.21.24.33l0,0,.32.37.07.1.26.28.1.12c.09.09.17.19.26.28l.1.09a4.38,4.38,0,0,0,.37.37l0,0,.37.34.11.11.3.27.12.11.36.3.07.06.45.36.1.08.36.28a.66.66,0,0,1,.14.11c.14.08.24.18.38.26l.11.1,1,.7.15.09.4.26.16.1.45.28.1.07.58.34.1.05.5.29.16.1.47.25a1.14,1.14,0,0,0,.17.09c.2.11.4.23.62.33C30,57,28.85,54.77,28.86,52.43c.07-13.2,37.68-23.58,84-23.17s83.88,11.42,83.82,24.63c0,2.32-1.18,4.56-3.36,6.66l.64-.32.11-.06.55-.29.09-.05c.42-.22.83-.45,1.22-.68l.07,0,.49-.31.12-.06c.15-.11.32-.2.48-.3l.07,0,1.07-.7.08-.07.41-.29.11-.07.45-.34v0l.48-.37.07,0,.37-.31.1-.09c.12-.09.23-.2.33-.29l.09-.08c.27-.25.53-.49.78-.73l.08-.09Z"/></g><g class="cls-10"><path class="cls-5" d="M196.7,53.89c0-4.93-5.23-9.57-14.19-13.46,3.6,2.54,5.57,5.31,5.57,8.19-.06,11.85-33.81,21.16-75.41,20.81S37.38,59.17,37.44,47.32c0-2.84,2-5.54,5.51-8C34.07,43,28.88,47.54,28.86,52.43c0,2.33,1.15,4.59,3.32,6.74,15.74,8.17,45.88,13.88,80.5,14.17s64.87-4.88,80.66-12.8C195.52,58.44,196.68,56.21,196.7,53.89Z"/></g><path class="cls-11" d="M157.14,13.23c-.54-2.39,1.39-6.1,2.06-6.64a6.56,6.56,0,0,0,1.51-1.32,10,10,0,0,0-.83-3c-.58-1.18-1.7-2.41-3.15-2.32a2.68,2.68,0,0,0-1.1.33l-.28.37c-2.15,2.81-1,4-1,5.35s-1.31,6.2-4.2,7.1c-7.62,2.36-10.56,14-27,12.84-8.47-.61-14.56-5.21-18.58-8.07A67.52,67.52,0,0,0,96,12.51c-1-.39-1.23-.95-1.83-.73l-2.68,1.69c-.61.39-.42.92-.2,2.39s-1.59,6.59,5.23,13.67c18.3,19,48.53,15.1,59-2.5C159,21.19,157.67,15.63,157.14,13.23Z"/><path class="cls-12" d="M159.2,6.6a6.56,6.56,0,0,0,1.51-1.32,10,10,0,0,0-.83-3,5.41,5.41,0,0,0-.63-1c-1.17,2-3.48,4.37-5.15,3.15a11.1,11.1,0,0,1,.27,1.57,10.3,10.3,0,0,1-1.93,5.34c.79-.89,1.8-.17,1.89,1s1.61-2.88,2.81.8C156.59,10.84,158.53,7.14,159.2,6.6Z"/><path class="cls-12" d="M152.27,11.61h0l.05-.07Z"/><path class="cls-12" d="M93.7,14.16a4,4,0,0,0,1.67-2c-.51-.31-.75-.57-1.2-.41l-2.68,1.69c-.47.3-.47.68-.34,1.49A3.86,3.86,0,0,0,93.7,14.16Z"/><path class="cls-13" d="M157.14,13.23c-.54-2.39,1.39-6.1,2.06-6.64a6.56,6.56,0,0,0,1.51-1.32,10,10,0,0,0-.83-3A5.1,5.1,0,0,0,158.62.68c-.28.34-.61.78-1,1.32-2.31,3-1,3.76-1.19,5.24a11,11,0,0,1-4.14,7.33C146.61,19,143.45,32.4,121.89,30.7c-9.1-.72-15.64-5.6-20-8.68s-7.18-8.41-8.24-8.83a5.13,5.13,0,0,1-.94-.51l-1.25.79c-.61.39-.42.92-.2,2.39s-1.59,6.59,5.23,13.67c18.3,19,48.53,15.1,59-2.5C159,21.19,157.67,15.63,157.14,13.23Z"/><path class="cls-14" d="M159.2,6.6a6.56,6.56,0,0,0,1.51-1.32,10,10,0,0,0-.83-3A5.1,5.1,0,0,0,158.62.68c-.28.34-.61.78-1,1.32-2.31,3-1,3.76-1.19,5.24a10.65,10.65,0,0,1-2.08,5.19h0c.1,1.3,1.61-2.88,2.81.8C156.59,10.84,158.53,7.14,159.2,6.6Z"/><path class="cls-14" d="M93.68,13.19a5.13,5.13,0,0,1-.94-.51l-1.25.79c-.47.3-.47.68-.34,1.49a3.86,3.86,0,0,0,2.56-.8,5.73,5.73,0,0,0,.59-.46A2,2,0,0,0,93.68,13.19Z"/><ellipse class="cls-15" cx="92.92" cy="13.01" rx="1.64" ry="0.66" transform="translate(8.73 54.43) rotate(-34.17)"/><path class="cls-16" d="M163.52,15.23c-1.2-2.58.07-7.26.7-8a7.59,7.59,0,0,0,1.39-1.87,11.55,11.55,0,0,0-1.67-3.14C163,1,161.42-.12,159.8.33a3.13,3.13,0,0,0-1.17.65l-.23.49c-1.74,3.72-.16,4.74.21,6.3s0,7.36-3,9.09c-8.06,4.56-8.51,18.52-27.45,21.23-9.76,1.39-17.8-2.32-23.07-4.57A78.77,78.77,0,0,0,94,29.5c-1.22-.2-1.63-.77-2.26-.37L89.14,31.7c-.6.59-.26,1.15.36,2.75s-.18,7.87,9.31,14.21c25.43,17,58.76,5.14,66.33-17.41C167.64,23.78,164.73,17.81,163.52,15.23Z"/><path class="cls-12" d="M164.23,7.2a7.59,7.59,0,0,0,1.39-1.87,11.55,11.55,0,0,0-1.67-3.14,6.3,6.3,0,0,0-1-1c-.83,2.53-2.87,5.82-5.06,4.85a12.38,12.38,0,0,1,.69,1.71,12,12,0,0,1-.86,6.53c.68-1.21,2-.64,2.4.71s1.12-3.67,3.37.21C162.32,12.65,163.6,8,164.23,7.2Z"/><path class="cls-12" d="M157.61,14.59h0l0-.09Z"/><path class="cls-12" d="M91.82,31.94a4.69,4.69,0,0,0,1.4-2.65c-.65-.22-1-.47-1.46-.17L89.14,31.7c-.46.45-.37.88,0,1.78A4.5,4.5,0,0,0,91.82,31.94Z"/><path class="cls-17" d="M163.52,15.23c-1.2-2.58.07-7.26.7-8a7.59,7.59,0,0,0,1.39-1.87,11.55,11.55,0,0,0-1.67-3.14A5.86,5.86,0,0,0,162.11.63c-.23.46-.5,1-.83,1.75-1.87,4-.23,4.51-.06,6.23a12.75,12.75,0,0,1-2.89,9.33c-5.32,6.39-5.59,22.4-30.46,25.79-10.49,1.43-19.12-2.49-24.78-4.91s-10.21-7.76-11.53-8a5.69,5.69,0,0,1-1.2-.35l-1.22,1.2c-.6.59-.26,1.15.36,2.75s-.18,7.87,9.31,14.21c25.43,17,58.76,5.14,66.33-17.41C167.64,23.78,164.73,17.81,163.52,15.23Z"/><path class="cls-14" d="M164.23,7.2a7.59,7.59,0,0,0,1.39-1.87,11.55,11.55,0,0,0-1.67-3.14A5.86,5.86,0,0,0,162.11.63c-.23.46-.5,1-.83,1.75-1.87,4-.23,4.51-.06,6.23a12.34,12.34,0,0,1-1.07,6.4h0c.43,1.45,1.12-3.67,3.37.21C162.32,12.65,163.6,8,164.23,7.2Z"/><path class="cls-14" d="M91.56,30.85a5.69,5.69,0,0,1-1.2-.35l-1.22,1.2c-.46.45-.37.88,0,1.78a4.5,4.5,0,0,0,2.7-1.54,6.78,6.78,0,0,0,.56-.67A2.35,2.35,0,0,0,91.56,30.85Z"/><ellipse class="cls-15" cx="90.66" cy="30.83" rx="1.9" ry="0.76" transform="translate(5.82 75.24) rotate(-46.41)"/><path class="cls-18" d="M170.09,16.55c-1.95-2.42-1.82-7.71-1.36-8.69a8.27,8.27,0,0,0,1-2.34,12.7,12.7,0,0,0-2.59-2.89c-1.31-1-3.28-1.79-4.87-.88a3.41,3.41,0,0,0-1.07,1c0,.19-.07.38-.11.58-.88,4.4,1.07,5.06,1.87,6.62s2,7.78-.82,10.41C154.78,27.28,158,42.18,138.6,50c-10,4-19.45,2.2-25.62,1.19a85.53,85.53,0,0,0-12.76-1.37c-1.35.1-1.92-.39-2.49.19l-2.1,3.41c-.48.78,0,1.28,1.11,2.82s1.87,8.38,13.57,12.61C141.68,80.2,173.87,58.95,176,33.09,176.69,24.53,172,19,170.09,16.55Z"/><path class="cls-12" d="M168.74,7.86a8.27,8.27,0,0,0,1-2.34,12.7,12.7,0,0,0-2.59-2.89,7,7,0,0,0-1.27-.78c-.22,2.89-1.52,6.91-4.09,6.46a13.68,13.68,0,0,1,1.18,1.63,13,13,0,0,1,.79,7.15c.41-1.45,1.95-1.2,2.72.12s.23-4.18,3.63-.66C168.14,14.13,168.27,8.84,168.74,7.86Z"/><path class="cls-12" d="M163.66,17.42h0s0-.07,0-.11Z"/><path class="cls-12" d="M98.54,53a5.11,5.11,0,0,0,.79-3.17c-.75-.07-1.18-.23-1.59.2l-2.1,3.41c-.37.6-.15,1,.44,1.89A4.9,4.9,0,0,0,98.54,53Z"/><path class="cls-19" d="M170.09,16.55c-1.95-2.42-1.82-7.71-1.36-8.69a8.27,8.27,0,0,0,1-2.34,12.7,12.7,0,0,0-2.59-2.89,6.4,6.4,0,0,0-2.35-1.17c-.13.55-.26,1.23-.42,2.07-.94,4.73.93,4.84,1.56,6.61a13.93,13.93,0,0,1-.62,10.63c-4,8.16-.06,25.18-25.51,35.27-10.74,4.26-20.9,2.36-27.52,1.28S99.42,51.78,98,51.89a6.28,6.28,0,0,1-1.36-.06l-1,1.59c-.48.78,0,1.28,1.11,2.82s1.87,8.38,13.57,12.61C141.68,80.2,173.87,58.95,176,33.09,176.69,24.53,172,19,170.09,16.55Z"/><path class="cls-14" d="M168.74,7.86a8.27,8.27,0,0,0,1-2.34,12.7,12.7,0,0,0-2.59-2.89,6.4,6.4,0,0,0-2.35-1.17c-.13.55-.26,1.23-.42,2.07-.94,4.73.93,4.84,1.56,6.61a13.48,13.48,0,0,1,.54,7.06h0c.84,1.42.23-4.18,3.63-.66C168.14,14.13,168.27,8.84,168.74,7.86Z"/><path class="cls-14" d="M98,51.89a6.28,6.28,0,0,1-1.36-.06l-1,1.59c-.37.6-.15,1,.44,1.89A4.9,4.9,0,0,0,98.54,53a7.2,7.2,0,0,0,.42-.85A2.52,2.52,0,0,0,98,51.89Z"/><ellipse class="cls-15" cx="97.01" cy="52.11" rx="2.07" ry="0.83" transform="translate(3.6 110.43) rotate(-60.22)"/><path class="cls-20" d="M133.87,46.12c.84-8.56,14.85-6.56,19.32-9.63,8.69-6,15-13.21,25.56-11.71s12.57,8.13,13.4,11.78,14.21,19.24-13.4,28.53C152.16,74,132.76,57.31,133.87,46.12Z"/><path class="cls-21" d="M169.31,47.28c16.33-6.12,20.91-20,10.29-21.64s-17.73,7.72-25.19,11.81c-5.72,3.14-18.85,1-19.69,9.52C134,54.1,152.8,53.48,169.31,47.28Z"/><path class="cls-22" d="M192.6,38.57c-.64-1.45-1.08-3-2-2.62s-1.07,1.87-.43,3.32,1.87,2.3,2.74,1.92S193.24,40,192.6,38.57Z"/><path class="cls-23" d="M196.6,36.42c-.18-.41-.76-1.24-1.2-.47a3,3,0,0,1-3.66,1.58c-.47-.15-.55,1-.22,1.72s1.34,1.48,1.42,1,3.37-1.09,4.17-2.67C197.43,37,196.73,36.72,196.6,36.42Z"/><ellipse class="cls-24" cx="174.16" cy="29.14" rx="2.83" ry="2.1" transform="translate(-1.36 48.44) rotate(-15.77)"/><ellipse class="cls-24" cx="138.07" cy="44.62" rx="1.79" ry="1.33" transform="translate(1.18 92.72) rotate(-37.27)"/><path class="cls-23" d="M131.77,67c6.63,7.59,18.92,10.51,30.88,6.47s20-13.81,20.64-23.86Z"/><path class="cls-25" d="M131.77,67c6.4,6.91,18.53,9.34,30.49,5.31s20.13-13.32,21-22.69Z"/><path class="cls-26" d="M131.77,67c5,2.84,16.16,2.34,28.12-1.7S181,54.91,183.3,49.61C162.59,55.43,151.24,59.6,131.77,67Z"/><path class="cls-27" d="M66.38,19.32a15.92,15.92,0,0,0,2.13.34L67.83,19l2.26.34,0-.71,2.25.29-1.71-1,1.81.36L72.11,18l1.66,0-1.2-.73s1.75-.25,1.58-.34a5.2,5.2,0,0,1-.54-.41L74,16.2l-.1-.4.26-.49-1.38-.64.83-1.59h-.54l.71-.88-.41-.27.21-.53H73l1.48-1.14L74.11,10l1.06-.48-.68-.36,1.11-.65-1.71,0-.19-.8-1.76,0,1-1-.7-.28,0-1.78h-.49l.06-2-.88.6L70.12,3l-.5.75h-1.1l-.59.88-.66-.1-.64.84h-.72l-.14,1.42L65.06,7l.06,1.38-.59-.67-.27.22L63.11,7,62.44,8l-.8-.41.16,1.6L61,8.89l.19,1.78-.57-.14.29,1.21-.42.13.44,1.83-.15.13c.2.62.68,3.75,3.4,2.4A2.87,2.87,0,0,0,66.38,19.32Z"/><path class="cls-12" d="M63.75,16.41c.83-1.28,2.36-2.14,3.23-3.39a41.39,41.39,0,0,0,2.61-4.69,18.67,18.67,0,0,0,2-5.63h0l-.78.53L70.12,3l-.5.75h-1.1l-.59.88-.66-.1-.64.84h-.72l-.14,1.42L65.06,7l.06,1.38-.59-.67-.27.22L63.11,7,62.44,8l-.8-.41.16,1.6L61,8.89l.19,1.78-.57-.14.29,1.21-.42.13.44,1.83-.15.13C61,14.41,61.42,17.22,63.75,16.41Z"/><path class="cls-28" d="M69.49,22.2a28.62,28.62,0,0,1-6.34-3.65c-1.85-1.47-4.36-3-5.75-4.87-.14-.2-.17.08-.37.18-2.55,1.28.6,2.54,1.88,3.51,1.08.83,2.79,1.46,3.74,2.41a5,5,0,0,1-.34,2.41c-.64,1.58-.8,1.27-2.16,2.65A32.41,32.41,0,0,1,57.53,27c-1,.86-2.42,2.09-2.71,3.49a1.84,1.84,0,0,0-.54.09,1.77,1.77,0,1,0,1.56.25c.17-.32.31-.65.5-1a10.24,10.24,0,0,1,1.83-2.11c1.16-1.12,2.42-2.18,3.5-3.37-.13.41-.26.83-.38,1.26a10.27,10.27,0,0,0,0,6.56c.08.19.43.23.46,0,.3-3.09.31-6,1.4-9a4.71,4.71,0,0,0,.33-2.49,13,13,0,0,0,1.4,1.14,24.22,24.22,0,0,0,4.86,2.12,15.28,15.28,0,0,1,5.47,4.18c.13.14.35,0,.35-.17C75.56,24.87,71.89,23.29,69.49,22.2Z"/><path class="cls-29" d="M73.81,40.44c-1.59.52-3.57-.95-4.31-3.21s0-4.62,1.56-5.14,3.56.95,4.31,3.21S75.4,39.92,73.81,40.44Z"/><path class="cls-29" d="M65.3,42.74c-1.59.52-3.57-.95-4.31-3.21s0-4.62,1.56-5.14,3.56.95,4.31,3.21S66.89,42.22,65.3,42.74Z"/><path class="cls-29" d="M72,49.53c-1.59.52-3.57-.95-4.31-3.21s0-4.62,1.56-5.14,3.56.95,4.31,3.21S73.63,49,72,49.53Z"/><path class="cls-29" d="M82.21,53.82c-1.59.52-3.57-.95-4.31-3.21s0-4.62,1.56-5.14,3.57.95,4.31,3.21S83.8,53.3,82.21,53.82Z"/><path class="cls-29" d="M73.22,62.09c-1.59.52-3.57-.95-4.31-3.21s0-4.62,1.56-5.14,3.56.95,4.31,3.21S74.81,61.57,73.22,62.09Z"/><path class="cls-29" d="M79.08,71.55c-1.59.52-3.56-.95-4.31-3.21s0-4.62,1.56-5.14,3.57.95,4.31,3.21S80.68,71,79.08,71.55Z"/><ellipse class="cls-30" cx="80.04" cy="60.92" rx="4.52" ry="5.83" transform="translate(-15.02 28.05) rotate(-18.2)"/><path class="cls-31" d="M82.31,65.55c-1.59.52-3.56-.95-4.31-3.21s0-4.62,1.56-5.14,3.56.95,4.31,3.21S83.9,65,82.31,65.55Z"/><path class="cls-32" d="M78,61.52a1.44,1.44,0,0,1-.84-2.58A1.44,1.44,0,0,1,78,61.52Z"/><ellipse class="cls-30" cx="60.94" cy="32.53" rx="4.52" ry="5.82" transform="translate(-7.11 20.67) rotate(-18.2)"/><path class="cls-33" d="M63.22,37.17c-1.59.52-3.57-.95-4.31-3.21s0-4.62,1.56-5.14S64,29.76,64.78,32,64.81,36.64,63.22,37.17Z"/><path class="cls-32" d="M58.89,33.13A1.44,1.44,0,0,1,58,30.56a1.44,1.44,0,0,1,.84,2.58Z"/><ellipse class="cls-30" cx="71.56" cy="27.54" rx="4.52" ry="5.83" transform="translate(-5.02 23.73) rotate(-18.2)"/><path class="cls-34" d="M73.84,32.17c-1.59.52-3.57-.95-4.31-3.21s0-4.62,1.56-5.14,3.56.95,4.31,3.21S75.43,31.65,73.84,32.17Z"/><path class="cls-32" d="M69.51,28.14a1.44,1.44,0,0,1-.84-2.58,1.44,1.44,0,0,1,.84,2.58Z"/><ellipse class="cls-30" cx="79.16" cy="73.47" rx="4.52" ry="5.83" transform="translate(-18.99 28.4) rotate(-18.2)"/><path class="cls-35" d="M81.44,78.1c-1.59.52-3.56-.95-4.31-3.21s0-4.62,1.56-5.14S82.25,70.69,83,73,83,77.58,81.44,78.1Z"/><path class="cls-32" d="M77.11,74.07a1.44,1.44,0,0,1-.84-2.58,1.44,1.44,0,0,1,.84,2.58Z"/><ellipse class="cls-30" cx="73.28" cy="69.27" rx="4.52" ry="5.82" transform="translate(-17.97 26.36) rotate(-18.2)"/><path class="cls-36" d="M75.55,73.91C74,74.43,72,73,71.24,70.69s0-4.62,1.56-5.14,3.56.95,4.31,3.21S77.14,73.38,75.55,73.91Z"/><path class="cls-32" d="M71.22,69.87a1.44,1.44,0,0,1-.84-2.58,1.44,1.44,0,0,1,.84,2.58Z"/><ellipse class="cls-30" cx="83.09" cy="67.92" rx="3.69" ry="4.76" transform="translate(-15.63 25.83) rotate(-16.17)"/><path class="cls-37" d="M84.82,71.77c-1.32.38-2.88-.88-3.43-2.75s.11-3.77,1.42-4.16,2.89.88,3.43,2.75S86.13,71.39,84.82,71.77Z"/><path class="cls-32" d="M81.4,68.35a1.18,1.18,0,1,1,.44-1.28A1.18,1.18,0,0,1,81.4,68.35Z"/><ellipse class="cls-30" cx="67.22" cy="61.88" rx="4.52" ry="5.82" transform="matrix(0.95, -0.31, 0.31, 0.95, -15.97, 24.09)"/><path class="cls-38" d="M69.49,66.51c-1.59.52-3.57-.95-4.31-3.21s0-4.62,1.56-5.14,3.56.95,4.31,3.21S71.08,66,69.49,66.51Z"/><path class="cls-32" d="M65.16,62.48a1.44,1.44,0,0,1-.84-2.58,1.44,1.44,0,0,1,.84,2.58Z"/><ellipse class="cls-30" cx="82.84" cy="55.74" rx="4.52" ry="5.82" transform="translate(-13.27 28.67) rotate(-18.2)"/><path class="cls-39" d="M85.12,60.37c-1.59.52-3.57-.95-4.31-3.21s0-4.62,1.56-5.14,3.56.95,4.31,3.21S86.71,59.85,85.12,60.37Z"/><path class="cls-32" d="M80.79,56.34a1.44,1.44,0,0,1-.84-2.58,1.44,1.44,0,0,1,.84,2.58Z"/><ellipse class="cls-30" cx="61.08" cy="55.01" rx="4.52" ry="5.82" transform="translate(-14.13 21.83) rotate(-18.2)"/><path class="cls-40" d="M63.35,59.65c-1.59.52-3.56-.95-4.31-3.21s0-4.62,1.56-5.14,3.56.95,4.31,3.21S64.94,59.12,63.35,59.65Z"/><path class="cls-32" d="M59,55.61A1.44,1.44,0,0,1,58.18,53,1.44,1.44,0,0,1,59,55.61Z"/><ellipse class="cls-30" cx="84.21" cy="42.4" rx="4.52" ry="5.82" transform="translate(-9.03 28.43) rotate(-18.2)"/><path class="cls-41" d="M86.49,47c-1.59.52-3.57-.95-4.31-3.21s0-4.62,1.56-5.14,3.56.95,4.31,3.21S88.08,46.51,86.49,47Z"/><path class="cls-32" d="M82.16,43a1.44,1.44,0,0,1-.84-2.58A1.44,1.44,0,0,1,82.16,43Z"/><ellipse class="cls-30" cx="57.75" cy="46.42" rx="4.52" ry="5.82" transform="translate(-11.61 20.36) rotate(-18.2)"/><path class="cls-42" d="M60,51.05c-1.59.52-3.56-.95-4.31-3.21s0-4.62,1.56-5.14,3.57.95,4.31,3.21S61.62,50.53,60,51.05Z"/><path class="cls-32" d="M55.7,47a1.44,1.44,0,0,1-.84-2.58A1.44,1.44,0,0,1,55.7,47Z"/><ellipse class="cls-30" cx="85.13" cy="48.23" rx="4.52" ry="5.82" transform="translate(-10.81 29.01) rotate(-18.2)"/><path class="cls-34" d="M87.4,52.87c-1.59.52-3.57-.95-4.31-3.21s0-4.62,1.56-5.14,3.56.95,4.31,3.21S89,52.34,87.4,52.87Z"/><path class="cls-32" d="M83.07,48.83a1.44,1.44,0,0,1-.84-2.58,1.44,1.44,0,0,1,.84,2.58Z"/><ellipse class="cls-30" cx="85.53" cy="33.46" rx="4.52" ry="5.83" transform="translate(-6.17 28.39) rotate(-18.2)"/><path class="cls-35" d="M87.8,38.09c-1.59.52-3.56-.95-4.31-3.21s0-4.62,1.56-5.14,3.57.95,4.31,3.21S89.39,37.57,87.8,38.09Z"/><path class="cls-32" d="M83.47,34.06a1.44,1.44,0,0,1-.84-2.58,1.44,1.44,0,0,1,.84,2.58Z"/><ellipse class="cls-30" cx="52.87" cy="39.57" rx="4.52" ry="5.83" transform="translate(-9.71 18.5) rotate(-18.2)"/><path class="cls-43" d="M55.15,44.2c-1.59.52-3.57-.95-4.31-3.21s0-4.62,1.56-5.14,3.56.95,4.31,3.21S56.74,43.68,55.15,44.2Z"/><path class="cls-32" d="M50.82,40.17A1.44,1.44,0,0,1,50,37.59a1.44,1.44,0,0,1,.84,2.58Z"/><ellipse class="cls-30" cx="74.26" cy="29.66" rx="4.52" ry="5.83" transform="translate(-5.55 24.68) rotate(-18.2)"/><path class="cls-44" d="M76.54,34.29c-1.59.52-3.57-.95-4.31-3.21s0-4.62,1.56-5.14,3.57.95,4.31,3.21S78.13,33.77,76.54,34.29Z"/><path class="cls-32" d="M72.21,30.26a1.44,1.44,0,0,1-.84-2.58,1.44,1.44,0,0,1,.84,2.58Z"/><ellipse class="cls-30" cx="80.18" cy="27.09" rx="4.52" ry="5.82" transform="translate(-4.45 26.4) rotate(-18.2)"/><path class="cls-39" d="M82.45,31.72c-1.59.52-3.57-.95-4.31-3.21s0-4.62,1.56-5.14,3.56.95,4.31,3.21S84,31.2,82.45,31.72Z"/><path class="cls-32" d="M78.12,27.69a1.44,1.44,0,0,1-.84-2.58,1.44,1.44,0,0,1,.84,2.58Z"/><ellipse class="cls-30" cx="55.2" cy="31.8" rx="4.52" ry="5.82" transform="translate(-7.17 18.83) rotate(-18.2)"/><path class="cls-31" d="M57.47,36.43c-1.59.52-3.57-.95-4.31-3.21s0-4.62,1.56-5.14S58.29,29,59,31.29,59.06,35.91,57.47,36.43Z"/><path class="cls-32" d="M53.14,32.4a1.44,1.44,0,0,1-.84-2.58,1.44,1.44,0,0,1,.84,2.58Z"/><ellipse class="cls-30" cx="74.62" cy="61.95" rx="4.52" ry="5.82" transform="translate(-15.62 26.41) rotate(-18.2)"/><path class="cls-36" d="M76.89,66.58c-1.59.52-3.57-.95-4.31-3.21s0-4.62,1.56-5.14,3.57.95,4.31,3.21S78.49,66.06,76.89,66.58Z"/><path class="cls-32" d="M72.57,62.55A1.44,1.44,0,0,1,71.72,60a1.44,1.44,0,0,1,.84,2.58Z"/><ellipse class="cls-30" cx="65.89" cy="55.18" rx="4.52" ry="5.82" transform="translate(-13.94 23.34) rotate(-18.2)"/><path class="cls-45" d="M68.16,59.82c-1.59.52-3.56-.95-4.31-3.21s0-4.62,1.56-5.14,3.56.95,4.31,3.21S69.75,59.29,68.16,59.82Z"/><path class="cls-32" d="M63.83,55.78A1.44,1.44,0,0,1,63,53.21a1.44,1.44,0,0,1,.84,2.58Z"/><ellipse class="cls-30" cx="77.03" cy="52.52" rx="4.52" ry="5.83" transform="translate(-12.55 26.69) rotate(-18.2)"/><path class="cls-31" d="M79.3,57.16c-1.59.52-3.57-.95-4.31-3.21s0-4.62,1.56-5.14,3.56.95,4.31,3.21S80.89,56.63,79.3,57.16Z"/><path class="cls-32" d="M75,53.12a1.44,1.44,0,0,1-.84-2.58A1.44,1.44,0,0,1,75,53.12Z"/><ellipse class="cls-30" cx="78.48" cy="36.4" rx="4.52" ry="5.83" transform="translate(-7.44 26.34) rotate(-18.2)"/><path class="cls-46" d="M80.76,41c-1.59.52-3.57-.95-4.31-3.21s0-4.62,1.56-5.14,3.57.95,4.31,3.21S82.35,40.51,80.76,41Z"/><path class="cls-32" d="M76.43,37a1.44,1.44,0,0,1-.84-2.58A1.44,1.44,0,0,1,76.43,37Z"/><ellipse class="cls-30" cx="64.38" cy="47.17" rx="4.52" ry="5.82" transform="translate(-11.51 22.47) rotate(-18.2)"/><path class="cls-39" d="M66.66,51.8c-1.59.52-3.57-.95-4.31-3.21s0-4.62,1.56-5.14,3.56.95,4.31,3.21S68.25,51.28,66.66,51.8Z"/><path class="cls-32" d="M62.33,47.77a1.44,1.44,0,0,1-.84-2.58,1.44,1.44,0,0,1,.84,2.58Z"/><ellipse class="cls-30" cx="71.73" cy="50.88" rx="4.52" ry="5.82" transform="translate(-12.31 24.95) rotate(-18.2)"/><path class="cls-47" d="M74,55.52c-1.59.52-3.57-.95-4.31-3.21s0-4.62,1.56-5.14,3.56.95,4.31,3.21S75.6,55,74,55.52Z"/><path class="cls-32" d="M69.68,51.48a1.44,1.44,0,0,1-.84-2.58,1.44,1.44,0,0,1,.84,2.58Z"/><ellipse class="cls-30" cx="76.88" cy="43.69" rx="4.52" ry="5.82" transform="translate(-9.8 26.2) rotate(-18.2)"/><path class="cls-48" d="M79.15,48.32c-1.59.52-3.57-.95-4.31-3.21s0-4.62,1.56-5.14,3.56.95,4.31,3.21S80.74,47.8,79.15,48.32Z"/><path class="cls-32" d="M74.82,44.29A1.44,1.44,0,0,1,74,41.71a1.44,1.44,0,0,1,.84,2.58Z"/><ellipse class="cls-30" cx="69" cy="39.52" rx="4.52" ry="5.83" transform="matrix(0.95, -0.31, 0.31, 0.95, -8.89, 23.53)"/><path class="cls-49" d="M71.27,44.15c-1.59.52-3.56-.95-4.31-3.21s0-4.62,1.56-5.14,3.57.95,4.31,3.21S72.86,43.63,71.27,44.15Z"/><path class="cls-32" d="M66.94,40.12a1.44,1.44,0,0,1-.84-2.58,1.44,1.44,0,0,1,.84,2.58Z"/><ellipse class="cls-30" cx="59.97" cy="39.86" rx="4.52" ry="5.82" transform="translate(-9.45 20.73) rotate(-18.2)"/><path class="cls-50" d="M62.25,44.49c-1.59.52-3.57-.95-4.31-3.21s0-4.62,1.56-5.14,3.57.95,4.31,3.21S63.84,44,62.25,44.49Z"/><path class="cls-32" d="M57.92,40.46a1.44,1.44,0,0,1-.84-2.58,1.44,1.44,0,0,1,.84,2.58Z"/><ellipse class="cls-30" cx="66.29" cy="31.28" rx="4.52" ry="5.83" transform="matrix(0.95, -0.31, 0.31, 0.95, -6.45, 22.27)"/><path class="cls-46" d="M68.56,35.91C67,36.43,65,35,64.25,32.7s0-4.62,1.56-5.14,3.57.95,4.31,3.21S70.15,35.39,68.56,35.91Z"/><path class="cls-32" d="M64.23,31.88a1.44,1.44,0,0,1-.84-2.58,1.44,1.44,0,0,1,.84,2.58Z"/></g></g></svg>