<svg id="Layer_1" data-name="Layer 1" xmlns="http://www.w3.org/2000/svg" xmlns:xlink="http://www.w3.org/1999/xlink" viewBox="0 0 176.81 196.12"><defs><style>.cls-1{fill:#fde151;}.cls-2{fill:#ac0;}.cls-3{fill:#faba01;}.cls-4{fill:#8aa600;}.cls-5{fill:#3a2615;}.cls-6{fill:url(#radial-gradient);}.cls-7{fill:url(#radial-gradient-2);}.cls-8{fill:#871f06;}.cls-9{fill:#af0704;}.cls-10{fill:#fff;}.cls-11{fill:#ffc800;}.cls-12{fill:#ffea00;}</style><radialGradient id="radial-gradient" cx="-2994.07" cy="129.37" r="119.28" gradientTransform="matrix(-1, 0, 0, 1, -2853.4, -0.85)" gradientUnits="userSpaceOnUse"><stop offset="0" stop-color="#8cb300"/><stop offset="0.32" stop-color="#bd7400"/><stop offset="0.6" stop-color="#e63f00"/><stop offset="1" stop-color="#ad1100"/></radialGradient><radialGradient id="radial-gradient-2" cx="-2998.09" cy="127.28" r="107.58" gradientTransform="matrix(-1, 0, 0, 1, -2853.4, -0.85)" gradientUnits="userSpaceOnUse"><stop offset="0" stop-color="#b2d62f"/><stop offset="0.09" stop-color="#c6bd30"/><stop offset="0.22" stop-color="#de9c31"/><stop offset="0.34" stop-color="#f08532"/><stop offset="0.46" stop-color="#fb7733"/><stop offset="0.56" stop-color="#ff7233"/><stop offset="1" stop-color="#e04433"/></radialGradient></defs><title>apple-bnana-screen10</title><path class="cls-1" d="M163.72,33.44c-4.27-5.32-4-16.95-3-19.11a18.21,18.21,0,0,0,2.16-5.15,27.91,27.91,0,0,0-5.69-6.35C154.34.6,150-1.11,146.53.88a7.49,7.49,0,0,0-2.34,2.18c-.08.42-.16.83-.25,1.27C142,14,146.28,15.46,148,18.9s4.32,17.11-1.79,22.9c-16.11,15.25-9.15,48-51.6,65.2-21.87,8.86-42.67,4.83-56.2,2.62s-25-3.24-28-3S6.24,105.74,5,107l-4.61,7.5c-1.05,1.72.08,2.82,2.43,6.21s4.1,18.43,29.76,27.72C101.4,173.4,172,126.67,176.65,69.81,178.19,51,168,38.76,163.72,33.44Z"/><path class="cls-2" d="M160.75,14.33a18.21,18.21,0,0,0,2.16-5.15,27.91,27.91,0,0,0-5.69-6.35,15.34,15.34,0,0,0-2.79-1.72c-.49,6.36-3.32,15.2-9,14.2A30.09,30.09,0,0,1,148,18.9c1.3,2.54,2.94,9.47,1.74,15.71.89-3.2,4.27-2.64,6,.27,1.83,3.12.49-9.19,8-1.45C159.44,28.12,159.73,16.49,160.75,14.33Z"/><path class="cls-2" d="M149.61,35.35h0c0-.08,0-.15,0-.24C149.65,35.2,149.63,35.28,149.61,35.35Z"/><path class="cls-2" d="M6.77,113.56c1.47-2.57,2.06-5.2,1.74-7-1.64-.15-2.58-.51-3.5.45l-4.61,7.5c-.8,1.31-.33,2.27,1,4.15C3.12,118.18,5.21,116.27,6.77,113.56Z"/><path class="cls-3" d="M163.72,33.44c-4.27-5.32-4-16.95-3-19.11a18.21,18.21,0,0,0,2.16-5.15,27.91,27.91,0,0,0-5.69-6.35A14,14,0,0,0,152.06.26c-.27,1.21-.56,2.71-.93,4.55-2.05,10.39,2,10.64,3.43,14.54a30.69,30.69,0,0,1-1.36,23.39c-8.7,17.94-.13,55.36-56,77.55-23.55,9.36-45.84,5.19-60.37,2.81S8.7,110.91,5.53,111.16a13.73,13.73,0,0,1-3-.12l-2.16,3.5c-1.05,1.72.08,2.82,2.43,6.21s4.1,18.43,29.76,27.72C101.4,173.4,172,126.67,176.65,69.81,178.19,51,168,38.76,163.72,33.44Z"/><path class="cls-4" d="M160.75,14.33a18.21,18.21,0,0,0,2.16-5.15,27.91,27.91,0,0,0-5.69-6.35A14,14,0,0,0,152.06.26c-.27,1.21-.56,2.71-.93,4.55-2.05,10.39,2,10.64,3.43,14.54a29.71,29.71,0,0,1,1.19,15.52h0c1.83,3.13.5-9.19,8-1.44C159.44,28.12,159.73,16.49,160.75,14.33Z"/><path class="cls-4" d="M5.53,111.16a13.73,13.73,0,0,1-3-.12l-2.16,3.5c-.8,1.31-.33,2.27,1,4.15,1.75-.5,3.84-2.41,5.4-5.13a15.86,15.86,0,0,0,.91-1.88A5.51,5.51,0,0,0,5.53,111.16Z"/><path class="cls-5" d="M5,112.54c1.25-2.18,1.54-4.36.67-4.86s-2.59.86-3.83,3-1.55,4.36-.67,4.86S3.75,114.73,5,112.54Z"/><path class="cls-6" d="M154.23,133.27c-1.82-18.46-31.94-14.14-41.54-20.74C94,99.67,80.47,84.06,57.73,87.28s-27,17.52-28.8,25.39-30.55,41.48,28.8,61.5C114.9,193.45,156.6,157.39,154.23,133.27Z"/><path class="cls-7" d="M78,135.76c-35.1-13.2-45-43.14-22.13-46.64S94,105.76,110.05,114.58c12.3,6.77,40.52,2.07,42.34,20.53C153.9,150.45,113.53,149.12,78,135.76Z"/><path class="cls-8" d="M28,117c1.37-3.11,2.33-6.47,4.21-5.64s2.29,4,.92,7.14-4,5-5.89,4.13S26.58,120.1,28,117Z"/><path class="cls-9" d="M19.36,112.36c.39-.89,1.64-2.67,2.57-1,1.15,2,3.73,4.68,7.86,3.4,1-.32,1.19,2.09.48,3.7s-2.87,3.19-3.05,2.14-7.24-2.36-9-5.75C17.57,113.5,19.08,113,19.36,112.36Z"/><path class="cls-10" d="M66.38,101c3.24.91,6.4-.29,7.08-2.69s-1.39-5.09-4.63-6-6.4.29-7.08,2.69S63.15,100.09,66.38,101Z"/><path class="cls-10" d="M143.46,132.3c1.69,1.3,3.84,1.32,4.8.06s.36-3.33-1.34-4.62-3.84-1.32-4.8-.06S141.77,131,143.46,132.3Z"/><path class="cls-9" d="M158.73,178.25c-14.25,16.35-40.68,22.65-66.39,14S49.4,162.44,48,140.77Z"/><path class="cls-11" d="M158.73,178.25C145,193.14,118.9,198.38,93.18,189.69S49.9,161,48,140.77Z"/><path class="cls-12" d="M158.73,178.25c-10.8,6.12-34.75,5-60.46-3.65S52.85,152.2,48,140.77C92.48,153.32,116.88,162.32,158.73,178.25Z"/></svg>