<svg id="Layer_1" data-name="Layer 1" xmlns="http://www.w3.org/2000/svg" xmlns:xlink="http://www.w3.org/1999/xlink" viewBox="0 0 202.36 157.21"><defs><style>.cls-1{fill:url(#radial-gradient);}.cls-2{fill:url(#radial-gradient-2);}.cls-3{fill:#871f06;}.cls-4{fill:#af0704;}.cls-5{fill:#fff;}.cls-6{fill:#ffc800;}.cls-7{fill:#ffea00;}</style><radialGradient id="radial-gradient" cx="-3033.64" cy="61.27" r="171.62" gradientTransform="matrix(-1, 0, 0, 1, -2854.78, -0.76)" gradientUnits="userSpaceOnUse"><stop offset="0" stop-color="#8cb300"/><stop offset="0.32" stop-color="#bd7400"/><stop offset="0.6" stop-color="#e63f00"/><stop offset="1" stop-color="#ad1100"/></radialGradient><radialGradient id="radial-gradient-2" cx="-3039.43" cy="58.27" r="154.79" gradientTransform="matrix(-1, 0, 0, 1, -2854.78, -0.76)" gradientUnits="userSpaceOnUse"><stop offset="0" stop-color="#b2d62f"/><stop offset="0.09" stop-color="#c6bd30"/><stop offset="0.22" stop-color="#de9c31"/><stop offset="0.34" stop-color="#f08532"/><stop offset="0.46" stop-color="#fb7733"/><stop offset="0.56" stop-color="#ff7233"/><stop offset="1" stop-color="#e04433"/></radialGradient></defs><title>apple-screen8</title><path class="cls-1" d="M195.89,66.78c-2.61-26.56-45.95-20.35-59.76-29.85C109.24,18.45,89.77-4,57.05.61S18.18,25.82,15.62,37.14s-43.95,59.68,41.44,88.48C139.3,153.37,199.31,101.49,195.89,66.78Z"/><path class="cls-2" d="M86.25,70.38C35.74,51.38,21.56,8.31,54.41,3.27c32.66-5,54.83,23.94,77.92,36.63,17.7,9.74,58.3,3,60.91,29.54C195.42,91.51,137.34,89.59,86.25,70.38Z"/><path class="cls-3" d="M14.22,43.36c2-4.48,3.35-9.31,6.06-8.11s3.3,5.8,1.33,10.28-5.77,7.14-8.48,5.94S12.24,47.84,14.22,43.36Z"/><path class="cls-4" d="M1.85,36.7c.56-1.28,2.36-3.84,3.7-1.46C7.2,38.16,10.92,42,16.86,40.13c1.46-.46,1.71,3,.69,5.32s-4.13,4.6-4.39,3.08C12.87,46.84,2.73,45.14.25,40.26-.73,38.35,1.45,37.62,1.85,36.7Z"/><path class="cls-5" d="M69.5,20.38c4.66,1.32,9.21-.42,10.19-3.87s-2-7.33-6.66-8.65-9.21.42-10.19,3.88S64.85,19.06,69.5,20.38Z"/><path class="cls-5" d="M180.4,65.39c2.44,1.86,5.53,1.9,6.9.09s.51-4.78-1.92-6.65-5.53-1.89-6.9-.08S178,63.53,180.4,65.39Z"/><path class="cls-4" d="M202.36,131.51c-20.5,23.53-58.53,32.59-95.52,20.07S45.07,108.75,43,77.59Z"/><path class="cls-6" d="M202.36,131.51c-19.79,21.43-57.31,29-94.3,16.45S45.78,106.65,43,77.59Z"/><path class="cls-7" d="M202.36,131.51c-15.54,8.8-50,7.26-87-5.26S50,94,43,77.59C107,95.64,142.15,108.59,202.36,131.51Z"/></svg>