<svg id="Layer_1" data-name="Layer 1" xmlns="http://www.w3.org/2000/svg" viewBox="0 0 61.12 20.61"><defs><style>.cls-1{fill:#4059d3;}.cls-1,.cls-2,.cls-3,.cls-4,.cls-5,.cls-6,.cls-7,.cls-8,.cls-9{fill-rule:evenodd;}.cls-2,.cls-6,.cls-7{fill:#0d0072;}.cls-3,.cls-4{fill:#4026d3;}.cls-3{stroke:#4026d3;}.cls-3,.cls-6,.cls-7{stroke-miterlimit:22.93;}.cls-3,.cls-6{stroke-width:1.42px;}.cls-5{fill:#ffed17;}.cls-6,.cls-7{stroke:#0d0072;}.cls-7{stroke-width:0.57px;}.cls-8{fill:#d10072;}.cls-9{fill:#5a00bf;}</style></defs><title>bug</title><path class="cls-1" d="M61.06,15c-.24,1.12-8.81,4.28-8.6,2.06C52.9,12.4,62,10.79,61.06,15Z"/><path class="cls-2" d="M60.08,15.81A18.88,18.88,0,0,1,56,17.42a7.24,7.24,0,0,1,1.33-1.47c1.25-1.08,2.55-1.61,2.91-1.19C60.43,15,60.35,15.34,60.08,15.81Z"/><path class="cls-3" d="M13.89,17s2.68-.37,2.69.28C16.6,19.55,12.72,18.27,13.89,17Z"/><path class="cls-1" d="M47.84,17.24c.05.32,1.22.46,1.43.39.53-.17,1.44.1,1.51-.79C50.79,16.77,47.56,15.62,47.84,17.24Z"/><path class="cls-1" d="M46.41,17.54c-.54-.06-1.45.15-1.81-.29-.16-.19-.09-.62.08-1C47.08,15.61,48.23,17.75,46.41,17.54Z"/><path class="cls-1" d="M43.14,17.22a3.7,3.7,0,0,0-1.58.39c-1.33.9,0,2.16,1,1.44.44-.31,0,.36.69-.53.11-.14.28-.06.72-.46.23-.21.36-.67.15-.89C44.07,17.15,44,16.57,43.14,17.22Z"/><path class="cls-4" d="M32.81,18.72s-4.1-1.37-4.34-.45C27.65,21.39,34.23,20.82,32.81,18.72Z"/><path class="cls-4" d="M26.77,18s-3.55-1.33-3.77-.41C22.25,20.72,28,20.08,26.77,18Z"/><path class="cls-3" d="M17.93,17.21s4-.46,4.05.41C22,20.57,16.17,18.82,17.93,17.21Z"/><path class="cls-1" d="M28.46,3.57c-.28.08-.61.48-.74,1.38-.42,3.06-1.32,11.45-.78,12.62.25.55,5,2.65,7.21,1.2.61-.41-.9-12.76-.74-14.66,0-.47-.27-.73-.76-.87s-1.27.25-1.94.31C29.66,3.65,28.75,3.5,28.46,3.57Z"/><path class="cls-1" d="M38.59,3.64a5.36,5.36,0,0,0-5.42-.14c-.29.14.24.59.11,1.53-.45,3.17.28,12.53.87,13.75.28.58,3.23,1.23,5.93.15,1.73-.69-1.48-11.4-1.22-14.6A.7.7,0,0,0,38.59,3.64Z"/><path class="cls-4" d="M35.62,2.85c1.12.2,2.08-.2,2.62,8.12.42,6.49,3,7.66-.15,8.47a8.18,8.18,0,0,0,2-.51c1.73-.69-1.48-11.4-1.22-14.6a.7.7,0,0,0-.27-.69A5.05,5.05,0,0,0,35.62,2.85Z"/><path class="cls-1" d="M23.87,3.54c-.24.08-.52.47-.63,1.33-.38,2.94-1.21,11-.77,12.12.21.53,3.18,2.43,5,1,.29-.23.38-.49.43-1.19.2-2.89.24-10,.44-12.52C28.47,2.86,24.45,3.36,23.87,3.54Z"/><path class="cls-4" d="M22.6,11l.34,0c.29-1.27,0-6.47,1-7.22s3.2-.34,3.5.26C27.92,5,28,15,26.8,16.74c-.14.19-.84,1.44-1.59,1.4a6.08,6.08,0,0,1-2.54-.9c.73.7,3.21,2,4.82.77.29-.23.38-.49.43-1.19.2-2.89.24-10,.44-12.52.11-1.45-3.91-.95-4.48-.76-.24.08-.52.47-.63,1.33C23.07,6.24,22.79,8.69,22.6,11Z"/><path class="cls-1" d="M23.18,4.05a5.15,5.15,0,0,0-5-.19c-.25.12-.6.43-.71,1.24-.39,2.75-1.52,12.05-.37,12.29a15.18,15.18,0,0,0,5.5.09c.39-.05.43-.46.47-1.11.18-2.71.12-9.37.31-11.72A.6.6,0,0,0,23.18,4.05Z"/><path class="cls-5" d="M21.55,3.41a5.23,5.23,0,0,0-2.75.21c-.08.48-.54.75.06,1.8s1.31-1.31,2.55-.84C21.54,4.64,21.6,4.05,21.55,3.41Z"/><path class="cls-4" d="M23.18,4.05a5,5,0,0,0-1.29-.56,2.62,2.62,0,0,1,.85,2.27c-.12,6.06,1.14,9.24-1.31,11.12-.7.54-1.68.35-3.18.7a16.69,16.69,0,0,0,4.38-.1c.39-.05.43-.46.47-1.11.18-2.71.12-9.37.31-11.72A.6.6,0,0,0,23.18,4.05Z"/><path class="cls-1" d="M10.64,6.2c-.55,2.56,1.44,9.73,2,10.73.28.47,1.71.76,4,.43,1.31-.19.34-10.75,1.22-13,.08-.21-.16-.46-.42-.49a16.06,16.06,0,0,0-2.86.46,8.9,8.9,0,0,0-2.28.23A2.63,2.63,0,0,0,10.64,6.2Z"/><path class="cls-4" d="M12.33,16.08a5.52,5.52,0,0,0,.36.85c.28.47,1.71.76,4,.43,1.31-.19.34-10.75,1.22-13,.08-.21-.16-.46-.42-.49a16.07,16.07,0,0,0-2.86.46h-.09c1.19,0,2.13-.51,2.39,1.21.47,3.08.11,5.68.14,8.33,0,1.61.27,2.78-2,3.13a6.09,6.09,0,0,1-1.82,0c-.51-.09-.35-1.35-.63-1.87A7.69,7.69,0,0,0,12.33,16.08Z"/><path class="cls-1" d="M11.45,5C10.05,4.19,4.35,6.79,4,8.89,3.7,11.26,6.55,15.1,7,16c.23.43,2.91,1.17,5.65.92.35,0-1.2-9.14-1-11.41A.51.51,0,0,0,11.45,5Z"/><path class="cls-5" d="M9,5.18A12.18,12.18,0,0,0,5.57,6.93a4.06,4.06,0,0,1,.51.73c.81,1.42.12-1.19,3.24-1.26C10,6.38,9.81,5.69,9,5.18Z"/><path class="cls-4" d="M5.55,6.94A3.51,3.51,0,0,0,4,8.89C3.7,11.26,6.55,15.1,7,16a4.2,4.2,0,0,0,2.16.77A1.48,1.48,0,0,0,8,16.19C7,16,6.48,14,5.81,12.25A22.13,22.13,0,0,1,4.64,9.47,3.09,3.09,0,0,1,5.55,6.94Z"/><path class="cls-1" d="M38.12,3.38c-1.05,1.34,1.64,13.33,2.39,14.88.09.18.44.62.7.36.86-.84.76-1.24,2.31-1.13a1.21,1.21,0,0,0,1.13-1.18c.12-1.81,2.27-6.27,1.89-9.49C46.27,4.49,44.32,3,44.41,1.9,44.54.25,38.58,2.79,38.12,3.38Z"/><path class="cls-4" d="M40.38,17.93c0,.13.09.24.13.32s.44.62.7.36c.64-.62.75-1,1.39-1.11h0c-.33,0-.27-.11-1.14.5-.25.17-.62.6-.85.24Z"/><path class="cls-4" d="M40.69,2.08c1.62-.15,3.3-.54,3.1,1.41s.59,10.78.18,13.44c-.07.49-.45.51-.67.55h.23a1.21,1.21,0,0,0,1.13-1.18c.12-1.81,2.27-6.27,1.89-9.49C46.27,4.49,44.32,3,44.41,1.9c.08-.94-1.84-.52-3.58.12l-.14.05Z"/><path class="cls-1" d="M50,.48A4.85,4.85,0,0,0,47.14.06C44.94.44,43.08.8,44,2c1.16,1.58-.34,14.63.71,14.8.48.08,1,0,1.3,0,.59.13.88.41,1.13.43.42,0,.8-.29.88-1,.3-2.57,3.38-11.92,3.6-14.63C51.63,1.4,50.21.59,50,.48Z"/><path class="cls-5" d="M48.73.07a5,5,0,0,0-1.59,0,16.58,16.58,0,0,0-2.4.53c1.89,3,4-.2,4-.27S48.72.15,48.73.07Z"/><path class="cls-4" d="M50,.48a2.62,2.62,0,0,0-.61-.26c1.38,1.41,1.06,3.31.46,5.25S47.65,16.26,47,16.73c-.31.22-.63.1-1.11,0s-.7.17-1.43-.4l0,.13c.06.23.13.36.23.38.48.08,1,0,1.3,0,.59.13.88.41,1.13.43.42,0,.8-.29.88-1,.3-2.57,3.38-11.92,3.6-14.63C51.63,1.4,50.21.59,50,.48Z"/><path class="cls-1" d="M58.14,8.42c-1.52-1-4.13-8.18-6.2-7.19a1.62,1.62,0,0,0-1,1.35C50.45,5.76,47.14,15.76,47.73,17c0,.05.79-.17,1.79-.19.45,0,.93.4,1.46.25s.66-.8,1.37-1.45C54.93,13.21,58.55,8.67,58.14,8.42Z"/><path class="cls-4" d="M54.6,3.1c.44.81,1.38,2.66,1.58,3,.34.65.08,2.6-.88,4.19-1,1.75-2.66,3.5-2.89,4.58-.11.53-.49.76-.83,1.6a5.11,5.11,0,0,1,.76-.93c2.59-2.38,6.2-6.92,5.79-7.16C57.23,7.86,55.94,5.06,54.6,3.1Z"/><path class="cls-1" d="M56.68,7.64c-.85,3.09-4.29,6.3-3.86,7.58.2.61,3.29.53,5.13-1,.35-.29,2.69-1.69,2.39-2.38C58.27,7.15,56.68,7.61,56.68,7.64Z"/><path class="cls-4" d="M52.92,14.35a1.31,1.31,0,0,0-.11.87c.2.61,3.29.53,5.13-1,.35-.29,2.69-1.69,2.39-2.38l-.27-.6c-.24,2.67-5.94,5.1-6.9,4A1.44,1.44,0,0,1,52.92,14.35Z"/><path class="cls-6" d="M60,11a10.47,10.47,0,0,0-1.62-2.52c-.94,1.6-2.37,3.85-1.1,4.07.29,0,.67-.94,2.11-1.16A1,1,0,0,0,60,11Z"/><path class="cls-1" d="M3.53,8.5C2.54,8.78.9,9.31,1,10.67c.1.93,1.77,3.56,3.94,5.06.94.65,2,.78,2.15.4S4.51,10.88,4.31,9C4.25,8.41,4,8.37,3.53,8.5Z"/><path class="cls-4" d="M2.52,8.84C1.71,9.18.95,9.73,1,10.67S2.82,14.23,5,15.73c.94.65,2,.78,2.15.4.06-.11,0-.43-.22-.87-.25.67-1,.84-1.24.52A15.71,15.71,0,0,0,4,13.32a29.45,29.45,0,0,1-2.23-3.05C1.34,9.54,1.67,9.39,2.52,8.84Z"/><path class="cls-1" d="M4.21,16.09c.44.54,1.38.09,1-.48-.82-1.39-3-3.88-3.7-5-.44-.63-.65,0-.87.57C.3,12.16-.44,13,.48,13.93,1.1,14.58,3.48,15.19,4.21,16.09Z"/><path class="cls-4" d="M4.21,16.09c.44.54,1.38.09,1-.48l-.18-.29c0,.06-.07.23-.08.25-.12.6-.55.56-.8.2C2.64,13.47-.63,14.47.57,11.47c-.39.84-.93,1.58-.09,2.46C1.1,14.58,3.48,15.19,4.21,16.09Z"/><path class="cls-4" d="M9.24,5.1c.49.3,1.76-.35,1.85.5,1,10,3.27,10.59-3.65,10.6a.21.21,0,0,0-.11,0,11.72,11.72,0,0,0,5.36.69c.35,0-1.2-9.14-1-11.41A.51.51,0,0,0,11.45,5,3.24,3.24,0,0,0,9.24,5.1Z"/><path class="cls-4" d="M49.92,16.68c-.63-.2-1.67-.09-1.87-.3a1.47,1.47,0,0,1-.29-.87,3.18,3.18,0,0,0,0,1.46c0,.05.79-.17,1.79-.19.45,0,.93.4,1.46.25s.6-.55,1-1v0C51.31,16.38,51.18,17.08,49.92,16.68Z"/><path class="cls-5" d="M13.39,8.09c.21,1.73.69.62.83,3.47,0,.12,1.13,2.8,1.4-.91.14-1.88.25-2-1.25-3.06C14.14,7.42,13.29,7.28,13.39,8.09Z"/><path class="cls-5" d="M19.45,7.64c.35-.9,2.38-.41,2.29.77-.23,3.16.49,4.3-2.59,3.68C17.84,11.83,19.1,8.53,19.45,7.64Z"/><path class="cls-5" d="M24.91,7.26c-1.27,2.12,0,1.94.11,5.28,0,1,1.27.23,1.33-2,0-.51,1.77-3.4-1.07-3.45A.59.59,0,0,0,24.91,7.26Z"/><path class="cls-5" d="M29.59,7.49c.12,1.86-.37.56.24,2.45,0,0-.1,3.94,1,2.81.57-.61,0-2.65.69-4.15C32.31,6.7,30.25,5.63,29.59,7.49Z"/><path class="cls-5" d="M34.19,8.23c0,.63,1.13,3.93,1.14,5.6,0,2.38,3.53.63,1.58-5-.24-.69.85-2.46-1.56-2.4C34.79,6.4,34.2,7.63,34.19,8.23Z"/><path class="cls-5" d="M41.62,12.57c1.28.43.92-1.35,1.27-3.29.87-4.83-1.44-1.89-2.83-2.41C38.2,6.19,39.41,11.83,41.62,12.57Z"/><path class="cls-5" d="M47.07,4.41a6.81,6.81,0,0,1,1.49.3c.41.09-.82,1.44-.93,3-.06.79-.2,4.78-1.84,2.73-.46-.57,1.19-2.38,0-4.3C45.12,5.08,46,4.38,47.07,4.41Z"/><path class="cls-5" d="M53.1,6.25c1.36,1.77.19,2.07-.91,4-.09.15-2.16,1.88-.67-1.36C52.62,6.46,51.42,5.48,53.1,6.25Z"/><path class="cls-5" d="M8.9,8.42c-4.17-.25-.05,5.24.61,4.73.1-.08.47-2.17.91-3.06C11.2,8.51,9.87,8.39,8.9,8.42Z"/><path class="cls-5" d="M4.34,12.63c.11.27.51,1.05.57.31,0-.43-.36-.58-.35-1.33,0-.09-.29-.81-.7-.3C3.59,11.66,4.21,12.31,4.34,12.63Z"/><path class="cls-5" d="M2.83,13.47c-.13-.42-.42-.53-.62-.5C1.54,13.06,3.09,14.32,2.83,13.47Z"/><path class="cls-2" d="M2,12.72c-.08-.07-.33-.33-.31,0s-.23.41.11.38C1.83,13,2.11,12.83,2,12.72Z"/><path class="cls-2" d="M4.18,10.53c-.1-.17-.47,0-.59.13-.45.37,0,.53,0,.42.12-.26.5-.25.56-.37A.39.39,0,0,0,4.18,10.53Z"/><path class="cls-2" d="M6.83,8.58c.33,0,.82-1.11,2.17-.67.87.28,1.87-.77.1-.86C8.11,7,6.91,7.48,6.83,8.58Z"/><path class="cls-2" d="M13.47,7c.72-.3,1.4.38,1.57.51s.9,0,.52-.49c-.2-.25.64-1-.85-.87a1.9,1.9,0,0,1-1,.22C13.55,6.41,13.14,7.16,13.47,7Z"/><path class="cls-2" d="M21.19,6.75c.24.19.41.11.38-.43,0-.22-.55-1.45-1.26-.77C18.13,7.65,20.37,6.09,21.19,6.75Z"/><path class="cls-2" d="M25.09,6.46c1-.12,1.92.71,1.57-.07-.07-.15-.41-.28-.62-.54C25.57,5.24,24.14,6.58,25.09,6.46Z"/><path class="cls-2" d="M29.81,5.73c-.14.33,0,.57.42.37.75-.39,1.63.55,1.42-.1S30.26,4.67,29.81,5.73Z"/><path class="cls-2" d="M34.66,6c-.13.19-.76-.36,0-1.05.08-.07.45.19,1.06-.11s.88.53,1,.91C37,6.52,35.33,5,34.66,6Z"/><path class="cls-2" d="M39.43,5.26c.1.27-.42.59.08.89.1.06.42-.11.6,0a3,3,0,0,0,2.31-.61c.18-.13.51-.31.1-.79s-2.08.12-2.71.13C39.62,4.84,39.33,5,39.43,5.26Z"/><path class="cls-2" d="M45.51,3.82c.11.36.44.2.86,0a3.42,3.42,0,0,1,1.76,0c.48.11.69.5.8.06.49-2.07-.93-1.83-3-1.15C45.69,2.82,45.45,3.61,45.51,3.82Z"/><path class="cls-2" d="M52.38,5.43c.24.13.57.18.81.31s.5.34.51-.09a2,2,0,0,0-.19-1.11C53.08,3.84,51.91,5.17,52.38,5.43Z"/><path class="cls-2" d="M10.12,12.57A7.76,7.76,0,0,0,9.65,14c0,.06-.42.41.18.39.33,0,.09-.79.58-1.17.13-.1.4-1,.22-1C10.07,12.21,10.11,12.48,10.12,12.57Z"/><path class="cls-2" d="M15.36,13.39s.41.41-.34.38-.33.36-1-.43c0-.05-.2-.62,0-.73S14.53,13.45,15.36,13.39Z"/><path class="cls-2" d="M5.11,13.19c-.39.75.09.11.09.76,0,0,.36.19.18-.12C5.35,13.78,5.21,13,5.11,13.19Z"/><path class="cls-2" d="M3.12,13.73c-.34.41.25.66.26.49S3.18,13.65,3.12,13.73Z"/><path class="cls-2" d="M18.85,14c0,.18.48.71.86.14.2-.3.6,0,1.16-.26s1-1.19-.23-1C18.46,13.09,18.42,11.61,18.85,14Z"/><path class="cls-7" d="M25.75,13.5c.16-.12,1.12-.58.12.63-.19.23-.57,1.29-.64,1.16-.28-.51.16-.52-.37-1.09,0,0-.2-.69,0-.67A.67.67,0,0,0,25.75,13.5Z"/><path class="cls-2" d="M30.07,13.12c.47.65,1,.07,1,1.15,0,.05.22.73,0,.78s-.92-1-.95-1.19S29.63,13.17,30.07,13.12Z"/><path class="cls-2" d="M37.17,14.68c-.23,1-2.14,0-.91,1.77.24.34.77-.93,1-1.27C37.85,14.47,37.28,14.19,37.17,14.68Z"/><path class="cls-2" d="M41.1,13.11c-.65-.19.52,2.14,1.82.64.22-.25.14-1.12-.13-.8S42.09,13.39,41.1,13.11Z"/><path class="cls-2" d="M47.29,11.19c-.94,1.41-1.59-.49-1.4.75,0,.21.54.56.49,1.18s.27-.9.66-1C47.59,12.05,47.6,10.72,47.29,11.19Z"/><path class="cls-7" d="M52.13,11.12c-.58.33-1.09.23-1.32.49s-.53,1.44.55.91c.47-.23,1.23-1.28,1.17-1.52S52.35,11,52.13,11.12Z"/><path class="cls-5" d="M10.39,13.89a4.25,4.25,0,0,0-.11.84c.41,0,.27-.45.4-.83.08-.22-.25-.18-.26-.08Z"/><path class="cls-5" d="M15.22,14c-.3.07-.91-.09-.43.54C14.95,14.78,15.77,13.9,15.22,14Z"/><path class="cls-5" d="M3.55,14.35c0,.23,0,.07.16.25s.11-.16,0-.26S3.57,14.08,3.55,14.35Z"/><path class="cls-5" d="M20.11,14.31c-.27.36-1,.48.18.62C20.61,15,21.16,14.39,20.11,14.31Z"/><path class="cls-5" d="M26,14.83c-.09.26-.56.85-.1.71,0,0,.85-.94.12-.8Z"/><path class="cls-5" d="M30.45,15c.15.37.87.48.39,1,0,0-.15.4-.41,0,0,0-.27-1.09-.15-1.09A.17.17,0,0,1,30.45,15Z"/><path class="cls-5" d="M37.33,16.08s-1.35,2,.15.42C37.65,16.33,37.88,15.66,37.33,16.08Z"/><path class="cls-5" d="M42.66,14.39c-.14.43-.93.16-.67.61,0,0,.76.39.78-.24,0,0,.32-.56-.08-.45Z"/><path class="cls-5" d="M46.83,13.1c-.09.17-.78.86-.21.88C46.89,14,47.07,12.67,46.83,13.1Z"/><path class="cls-5" d="M51.26,13.09c-.62.31-.13.16-.39.45-.06.07-.18,0-.15.25.09,0,.3-.19.5-.26C51.57,13.4,51.36,13,51.26,13.09Z"/><path class="cls-5" d="M5.55,14.1c-.08.22,0,.21.09.4s0-.07,0-.09.1-.23,0-.33A.06.06,0,0,0,5.55,14.1Z"/><path class="cls-5" d="M.36,11.92c.63.79,1.52,1.42,1.05-.21A1.14,1.14,0,0,0,.77,11l-.09.24C.59,11.46.47,11.69.36,11.92Z"/><path class="cls-5" d="M.36,11.92.4,12a4.47,4.47,0,0,1,.17-.51l0,.08h0l0,.07h0l-.09.19h0l0,.06h0Z"/><path class="cls-1" d="M1.5,14.13c.46.16,4,2.11,1.61,1.85-.88-.1-2.31.13-2.72-.7C-.44,13.59.12,13.66,1.5,14.13Z"/><path class="cls-5" d="M26.73,3.33a10.44,10.44,0,0,0-1.86,0,5.79,5.79,0,0,1,0,.92c-.07.94-.27,1,.75,1,.25,0,.08-.35.66,0C26.39,5.37,26.63,4.27,26.73,3.33Z"/><path class="cls-5" d="M15.84,4.13c-.39.08-.81.18-1.24.24-.62.1-1.22,0-1.78.09a1.69,1.69,0,0,0,.64,1.16c1.12.87.44-.07,2.1.13C15.88,5.79,15.81,4.89,15.84,4.13Z"/><path class="cls-5" d="M15.84,4.13H14.51c.5,0,.95-.09,1.32-.07C15.84,4.26,15.84,4.19,15.84,4.13Z"/><path class="cls-4" d="M29.77,3.58c1.68.28,2.46-.74,2.87,1.49.76,4.2.71,11.42-.75,13.32-.69.9-3.91-.16-4-.17,1.57.75,4.62,1.63,6.23.55.61-.41-.9-12.76-.74-14.66,0-.47-.27-.73-.76-.87s-1.27.25-1.94.31A9.08,9.08,0,0,1,29.77,3.58Z"/><path class="cls-5" d="M36.33,2.86a5.51,5.51,0,0,0-2.09.23c.23,1,.42,2,1.74,1.08C36.27,4,36.33,3.42,36.33,2.86Z"/><path class="cls-5" d="M42.15,1.6a18.38,18.38,0,0,0-3.07,1.18,3.29,3.29,0,0,0,1,1.05c.46.25.64.7,1.65.25C42.34,3.81,42.23,2.45,42.15,1.6Z"/><path class="cls-5" d="M42.15,1.6l-.81.25h0l-.2.07-.05,0H41l0,0-.05,0h-.1l-.14.05h0c.51,0,1-.12,1.49-.13C42.17,1.83,42.16,1.71,42.15,1.6Z"/><path class="cls-5" d="M55.06,3.8a10.43,10.43,0,0,0-1.63-2.12c-.53.89-1.09,1,.81,2.47C54.61,4.43,54.83,4.21,55.06,3.8Z"/><path class="cls-5" d="M31.15,3.48a3.32,3.32,0,0,1-.45.08,10.28,10.28,0,0,1-1.29,0c0,.64.24,1.45.87,1.09.47-.27,1.46.94,1-.92A1.33,1.33,0,0,0,31.15,3.48Z"/><path class="cls-5" d="M35.62,2.85a4.09,4.09,0,0,1,.71.14s0-.09,0-.13A5.07,5.07,0,0,0,35.62,2.85Z"/><path class="cls-8" d="M54.6,3.1l.41.78,0-.08-.2-.32h0l-.05-.08v0l0-.07,0,0,0-.06,0,0,0-.06Z"/><path class="cls-5" d="M24.88,3.5a4.09,4.09,0,0,1,1.82.13c0-.1,0-.2,0-.3H24.87S24.88,3.46,24.88,3.5Z"/><path class="cls-5" d="M3.06,8.64A5.75,5.75,0,0,0,2.12,9,8.62,8.62,0,0,1,3,10.26c.36.74,1.63.12.06-1.59Z"/><path class="cls-5" d="M2.12,9l0,0,.37-.24Z"/><path class="cls-1" d="M44.73,20.39a3.46,3.46,0,0,0-1.58-2.6c-1.16-.63-1,.51-.14,1.5a3.57,3.57,0,0,0,1.32.79C44.47,20.14,44.93,21,44.73,20.39Z"/><path class="cls-9" d="M44.73,20.39l0-.18h0l-.14.06C44.69,20.53,44.87,20.83,44.73,20.39Z"/><path class="cls-1" d="M46.08,18.8s0,2.11.32,1c.16-.55,0-.66.2-1.78S44.49,15.81,46.08,18.8Z"/><path class="cls-9" d="M46.11,19.61c0,.44.12.8.28.2l0-.15a.42.42,0,0,0-.18-.06Z"/><path class="cls-1" d="M48.53,18c-.09.28.07.47,0,.73-.06.62-.24,1.15-.07.89a5.53,5.53,0,0,0,1-2.21C49,17,49.07,16.37,48.53,18Z"/><path class="cls-9" d="M48.47,19.39c0,.24-.06.35,0,.2l.09-.15-.07,0Z"/><path class="cls-5" d="M29.77,3.58a5.71,5.71,0,0,0,1.44,0l-.06-.12H29.77Z"/><path class="cls-5" d="M56.22,12.65c-.24.19-.92.64-.21.84.53.15.3-.41.57-.79.15-.22-.13-.38-.31-.07Z"/></svg>