<svg id="Layer_1" data-name="Layer 1" xmlns="http://www.w3.org/2000/svg" viewBox="0 0 572.5 417.75"><defs><style>.cls-1{fill:#fcc;}.cls-1,.cls-10,.cls-11,.cls-2,.cls-3,.cls-4,.cls-5,.cls-6,.cls-7,.cls-8,.cls-9{stroke:#b93e00;stroke-miterlimit:10;stroke-width:0.5px;}.cls-2{fill:#c96;}.cls-3{fill:#ffc;}.cls-4{fill:#fc9;}.cls-5{fill:#c90;}.cls-6{fill:#933;}.cls-7{fill:#633;}.cls-8{fill:#ffe6cc;}.cls-9{fill:#f89200;}.cls-10{fill:#fc3;}.cls-11{fill:#ad6b2a;}</style></defs><title>herculus-moth</title><path class="cls-1" d="M278.06,31.26a2,2,0,0,1,.12-.93c.3-.63,1.11-.79,1.81-.85a93.23,93.23,0,0,1,15.24-.14l-1.08,11.46a.85.85,0,0,1-.93.92l-5.87,1c-2.15.36-7.53,1.39-8.9-1.09-.55-1-.19-3-.22-4.12Z"/><path class="cls-2" d="M562.68,40.63l-15.3-17.22L520.6,8.1l-23-5.74L468.95.45l-21,1.91L430.68,4.28,415.38,8.1l-21,5.74-13.39,3.83-19.13,5.74L331.21,33l-8.62,2.87c-4.13,1.38-9.16,4.55-13.39,2.1a4.07,4.07,0,0,1-1.31-1.11c-1.25-1.76-.15-4.14.36-6.23a8.67,8.67,0,0,0-1-7.09c-1.27-1.78-3.08-3.34-3.55-5.56-.43-2,.22-4.25-.88-6.1a5.76,5.76,0,0,0-10,5.65c.32.59.74,1.12,1.1,1.68a10.51,10.51,0,0,1,1.7,5.91,1.3,1.3,0,0,1,.33,1.26c-.24,1-.38,2-.57,3l-.05.55a1.56,1.56,0,0,1-.32,1,6.09,6.09,0,0,1-1.47,2.57,8.78,8.78,0,0,1-5.91,2.23,6.88,6.88,0,0,1-5-.67,9.45,9.45,0,0,1-3.14-1.83l-.48,0A1.5,1.5,0,0,1,277.71,31a7.77,7.77,0,0,1-.85-3.89,1.34,1.34,0,0,1,.29-.78c0-.17,0-.34,0-.5a12.59,12.59,0,0,1,1-5.86c.9-1.77,2.55-3.17,3-5.1.71-2.93-2-6-5.06-6a6.46,6.46,0,0,0-6,5.68c-.12,1,0,1.93-.15,2.88-.45,3.68-3.44,6.28-4.95,9.5a7,7,0,0,0-.55,4.75c.39,1.68,1.66,3.21,1.25,5a3.9,3.9,0,0,1-1.73,2.3c-2.85,1.89-4.35.88-7.34,0l-7.63-2.18L206.86,21.5,157.12,8.1,115,.45H82.51L65.29,4.28,44.25,10,27,21.5,9.82,38.71,2.16,50.19.25,59.76v7.65L7.9,78.89l13.39,5.74H34.68l47.83,3.83,3.83,1.91,1.91,5.74,3.83,3.83,5.74,3.83,5.74,1.91,3.83,3.83,3.83,5.74,11.48,15.3,3.83,5.74,5.74,3.83c2.11,3.17,3.93,4.49,4,8.68,0,2.18,0,4.49,1,6.39.43.74,1,1.38,1.47,2.1,2.88,4.45,1.34,11.89,2,17a16.09,16.09,0,0,0,1.37,5.58,18.87,18.87,0,0,0,3.54,4.24,54.38,54.38,0,0,1,11.32,17,41,41,0,0,0,2.81,6.12c1.49,2.38,3.68,4.38,4.5,7.06a15.39,15.39,0,0,1,.5,3.18c.82,9.5,1,22.34,7,30.26,1.41,1.87,3.16,3.45,4.61,5.29a21,21,0,0,1,4.47,12.22c.08,2.35-.22,4.81.72,7,1.36,3.14,5.08,5,5.9,8.29s-1.37,6-2.42,8.89A21.26,21.26,0,0,0,183.9,297v9.56l1.91,5.74-1.91,3.83v11.48L182,331.41v11.48l-1.91,1.91v5.74l-3.83,7.65v7.65l-1.91,7.65s-1.91,3.83-3.83,3.83-1.91,3.83-3.83,3.83-1.91,5.74-1.91,5.74l-3.83,3.83v3.83L159,398.36l1.91,1.91,1.91,3.83s-1.91,1.91-1.91,3.83,1.91,5.74,1.91,5.74l5.74,3.83h7.65l9.57-5.74,5.74-5.74,3.83-5.74,3.83-11.48V385h1.91l3.83-5.74v-3.83l3.83-1.91v-21l5.74-5.74v-9.57l-1.91-1.91v-1.91l1.91-5.74V314.19h1.91v-3.83l1.91-3.83v-3.83a5.92,5.92,0,0,0-1.91-3.83v-3.83l1.91-1.91,1.91-3.83V277.84l1.91-3.83v-3.83l1.91-3.83v-5.74L226,253V239.58l1.91-1.91v-3.83l5.74-5.74v-3.83l1.91-3.83,1.91-9.57,7.65-7.65,3.83-7.65,3.83-9.57a42.76,42.76,0,0,0,2.5-14.38c.09-3.8-.21-7.9,1.85-11.1.91-1.4,2.2-2.5,3.23-3.82,3.21-4.1,1.1-7.45-.91-11.29a9.37,9.37,0,0,1-.74-4.26c0-3,0-5.93,0-8.9a4.19,4.19,0,0,1,.83-3.06,3.39,3.39,0,0,1,1.92-.8A9.25,9.25,0,0,1,270,132c1.43,1.94,1.63,4,2.28,6.16a33.1,33.1,0,0,0,3.76,8,17.17,17.17,0,0,0,7.55,6.86c2.57,1.08,5.69,1.25,8-.27,2-1.29,3.11-3.55,4.12-5.7l6.71-14.15a13.41,13.41,0,0,1,2.55-4,4.55,4.55,0,0,1,4.38-1.31c2.19.7,4.58,4.54,4.58,6.82v9.57l-1.91,5.74-1.91,3.83v3.83l3.83,1.91,1.91,3.83v7.65l1.91,9.57,1.91,5.74,3.83,9.57,3.83,5.74L335,209v9.57c0,1.91,1.91,3.83,1.91,3.83l1.91,5.74,7.65,11.48v11.48l1.91,5.74-1.91,3.83,3.83,7.65v7.65l1.91,3.83v13.39l1.91,3.83v9.57l3.83,7.65v9.57l1.91,7.65L358,337.15v5.74l1.91,5.74,3.83,7.65v13.39l1.91,5.74,5.74,7.65,1.91,3.83,1.91,5.74,1.91,3.83,3.83,9.57,5.74,7.65,7.65,3.83H402l7.65-5.74v-9.57l1.91-3.83v-3.83l-3.83-5.74L405.82,385c-1.4-2.8-2.45-7.17-5.46-8.27-7.72-2.81-2.42-11.92-4.73-17.63-.83-2.06-2.52-3.67-3.14-5.83s.19-4.55-.63-6.63c-.27-.68-.67-1.3-.95-2-1.57-3.9,1.51-8.6-.23-12.43-.83-1.82-1.94-3.07-1.9-5.17.05-2.4.79-4.69.3-7.11-.07-.35-.17-.7-.22-1.06-.1-.61-.08-1.23-.16-1.84-.31-2.58-2.54-4.77-2.09-7.47.37-2.18,1.79-4,2.5-6.12a13.91,13.91,0,0,0,.56-5.06A25.57,25.57,0,0,0,386.92,288c-.62-1.21-2-2.63-2.07-4s1.22-2.79,1.92-3.88c3-4.67,5.86-9.77,6.25-15.43.18-2.66-.06-5.39,1.46-7.73a26,26,0,0,1,3.68-3.95l5.74-13.39,1.91-5.74V228.1l1.91-7.65c0-2.23-.46-4.86-.17-7,.38-2.82,3.81-5.26,5.49-7.34a37.55,37.55,0,0,0,4.61-8.25l3.54-7.81a19.21,19.21,0,0,1,2.9-5c2.37-2.65,6.2-4,7.74-7.2a12.82,12.82,0,0,0,.86-5.51c0-3.25,0-6.49.07-9.74,0-1.15-.43-2.7-.13-3.8.25-.92,1-1.46,1.6-2.19,1.28-1.67,1.41-4.71,1.42-6.73s-.25-4.37,1-6a8.61,8.61,0,0,1,2.21-1.85c5.74-3.89,10.62-8.44,12.88-15.16a24.15,24.15,0,0,1,2-5.35c1.25-2,3.27-3.33,5.19-4.67a25.72,25.72,0,0,0,7.25-6.82c1.24-1.93,2.08-4.24,3.93-5.59a17.28,17.28,0,0,1,4.28-1.82c5.36-2,8.53-6.92,11.17-11.75a4.41,4.41,0,0,1,1.15-1.55,4.19,4.19,0,0,1,2-.6c9-1.14,18.17-2.28,27.24-1.47,3.43.3,6.84.88,10.28.9,6.07,0,11.12-2.66,16.9-3.55L555,82.71l9.57-3.83,5.74-5.74,1.91-3.83V55.93Z"/><path class="cls-3" d="M290.16,129.36c-6.1-1.34-16.6-1.05-17.32,7.4a1.39,1.39,0,0,1-.62,1.07l.09.33a33.11,33.11,0,0,0,3.76,8,17.17,17.17,0,0,0,7.55,6.86c2.57,1.08,5.69,1.25,8-.27,2-1.29,3.11-3.55,4.12-5.7l4.75-10A14.67,14.67,0,0,0,290.16,129.36Z"/><path class="cls-4" d="M133.45,7.27c12,3.59,22.52,8.83,33.47,14.88,6.51,3.59,13.12,7,20.27,9.08,4.73,1.4,9.35,2.62,13.43,5.52,8,5.73,8.81,18.74,19.75,19.38a51.45,51.45,0,0,1,10.77-4.24c5-1.41,12.36-1.72,14.27-7.46a29.07,29.07,0,0,0,1.1-8.5L206.86,21.5,157.12,8.1l-41-7.46A162,162,0,0,0,133.45,7.27Z"/><path class="cls-4" d="M31.9,76.45c9.65,1.24,19.41,1.39,29.05,2.72,18.89,2.61,34.73,11.25,49.39,23.18,6,4.91,11.42,9.93,15.36,16.66s6.84,14.59,12.25,20.47c8.2,8.89,18.34,6.64,28.76,3.79,6.3-1.73,12.84-2.9,18.79-5.52-4-7.39-10.79-14.5-15.83-21.13a39.92,39.92,0,0,1-4.9-7.58c-1.41-3.12-1.23-6-2-9.17-1.05-4.44-3.89-5.73-6.41-9-2.93-3.83-3.92-8.06-7.67-11.35-6-5.23-13.12-9.21-19.25-14.33-6.44-5.37-14.14-8.52-20.67-13.69-5.88-4.66-8.2-10-11.09-16.72-2.39-5.55-7.81-11.28-7.94-17.57s5.55-11,7.36-16.73H82.51L65.29,4.28l-1.44.39A97.55,97.55,0,0,1,52.3,29.19C47.57,36.5,41.59,41.46,35.1,47.13c-6.29,5.5-11.62,10.69-19.43,14A62.41,62.41,0,0,1,1.35,65.3c3.46,2,6.7,4.46,10.29,6.26C17.7,74.61,25.25,75.6,31.9,76.45Z"/><path class="cls-4" d="M199,265.14c-6.52-.53-10.53-2.54-13.61-6.17-3.45,5.91-4.41,12.39-.1,18,.28.31.54.63.79,1s.5.56.78.83c3.88,3.81,9.61,5.91,14.94,6.44s12.11-.14,15.58-4.71c3.59-4.73,2-12.11,1.27-18.27C214.52,266.74,203.82,265.53,199,265.14Z"/><path class="cls-4" d="M183.9,323c1.88,4.93,8.81,6.9,13.63,7.45a38,38,0,0,0,16.57-1.67l.41-1.22V317.16c-11,3.13-25,.56-29.94-8.61l1.24,3.73-1.91,3.83Z"/><path class="cls-4" d="M188.32,348.32c6.35,2.88,14,4.73,20.49,4.09l5.7-5.7v-9.57l-1.91-1.91v-1.91l.54-1.63c-9.83,2.5-23.6,2.93-29.59-3.41L182,331.41v10.2C184.29,343.67,186.16,346.12,188.32,348.32Z"/><path class="cls-4" d="M176.47,367c-.2,7.77,2.7,15.85,10.55,18.53a19,19,0,0,0,12.19,0V385h1.58l.44-.17,3.71-5.56v-3.83l3.83-1.91V355.26a41.45,41.45,0,0,1-17.25-2.57,1.58,1.58,0,0,1-1.17.7c-2.36.3-7.84.33-11-1.45l-3.12,6.25v7.65l-.08.33A1.26,1.26,0,0,1,176.47,367Z"/><path class="cls-5" d="M185,387.92l-2.07,2.73c-2.24,3.8-4.51,7.6-7.8,10.25a6.93,6.93,0,0,1-4.29,1.64,7.69,7.69,0,0,1-1.26-.08c-2.58.75-5.23,1.24-7.6,2.73a5.13,5.13,0,0,0-1,2.75c0,1.91,1.91,5.74,1.91,5.74l5.74,3.83h7.65l9.57-5.74,5.74-5.74,3.83-5.74,3.83-11.48v-.35A22.74,22.74,0,0,1,185,387.92Z"/><path class="cls-4" d="M185.56,300.8c-.11,14.42,18.79,17.5,30.87,12.63v-3.07l1.91-3.83v-3.83a5.19,5.19,0,0,0-.8-2.41c-10.33.84-20.42-8.71-27.46-15.24a1.25,1.25,0,0,1-.4-.79,24.86,24.86,0,0,1-2.15-1.31c-.35,2.25-1.72,4.35-2.5,6.45A21.25,21.25,0,0,0,183.9,297v2.5A1.34,1.34,0,0,1,185.56,300.8Z"/><path class="cls-4" d="M220.75,138.22c-3.39-3.11-7.67-5.32-11.83-7.2-3.2-1.45-3.22-.77-4,2.64-.56,2.54-.52,5.22-.86,7.8-.8,6.15-2.11,12.51-5.19,17.92,3.27-3.88,7.79-6.19,12.77-8,3.52-1.25,7.3-1.95,10.73-3.41,2.92-1.24,4.64-1,2.52-4.79A21.25,21.25,0,0,0,220.75,138.22Z"/><path class="cls-4" d="M314.23,142a23.67,23.67,0,0,0,5.35-1.05,10.58,10.58,0,0,0,5.8-7.75c.5-.76.7-1.73,1.24-2.49,1.27-1.78,3.29-2.92,4.56-4.73,1-1.36,1.41-3,2.44-4.36,3.75-4.89,11.74-4.51,17.76-4.62-2.1-2.88-6.2-4.19-9.06-6A59,59,0,0,1,335.8,106c-1.33,3.12-1.93,5.77-4.79,8.1-2.1,1.71-4.71,2.8-7,4.27-5,3.25-9.33,6.54-12,11.28a8.82,8.82,0,0,1,2,4.72v7.75A1.42,1.42,0,0,1,314.23,142Z"/><path class="cls-4" d="M377.33,155.88c-1.21-3.3-4.17-6.43-5.57-9.84-2.41-5.9-3.95-12.11-6.25-18.05-4.44,1.42-8.51,2.6-11.8,6.39a25,25,0,0,0-5,9.21c4.4.21,8.83.82,12.74,2.74,5,2.45,7.14,7,10.67,11,1.89,2.14,2.77,4.06,5,1.65C379.52,156.28,378.16,158.15,377.33,155.88Z"/><path class="cls-4" d="M410.94,190.34a18.68,18.68,0,0,1-3.47,1.13c-4.88,1-9.74.48-14.54-.48a35.24,35.24,0,0,1-8-1.21A1.28,1.28,0,0,1,384,189c-3.5-.84-6.84-2.12-8.33-4.81a1.31,1.31,0,0,1-.16.22c-10,9.19-12,21.63-11.64,34.63.07,2.32-.38,6.17.48,8.33q-.78,3.09,2.4,2.25a25.71,25.71,0,0,0,5.6-2.31c4.56-2.3,8.67-5.25,13.51-7,3-1.06,6.12-1.81,9.2-2.7a1.17,1.17,0,0,1,.45-.8c1.63-1.33,3.41-2.47,5-3.83a1.41,1.41,0,0,1,1-.34c2.87-2.65,5.62-5.44,7.08-9.13,1.54-3.89,1.67-8,4.1-11.53a1.46,1.46,0,0,1,.36-.35A1.84,1.84,0,0,0,410.94,190.34Z"/><path class="cls-4" d="M358.09,256.89c6.45,2.5,16.64,3.3,23.28,1.34,15.56-4.6,15.46-25.16,17.57-38.93-2,.71-4.16,1.31-6.24,1.92a81.77,81.77,0,0,0-17,7.44c-4,2.19-7.88,4-12.49,4.21a1.12,1.12,0,0,1-.23,0C358.13,238.64,346.8,252.51,358.09,256.89Z"/><path class="cls-4" d="M407.47,215a24,24,0,0,1-5.48,3.18C398.4,237,397.92,263.34,372,261.95c-4-.22-11.64-.27-16.64-2.53a1.3,1.3,0,0,1-.24.3c-3.68,3.08-4.53,11.21-4.1,15.87.71,7.72,10.47,10.33,16.92,10.41a22.41,22.41,0,0,0,11.91-3l.07-.08a1.41,1.41,0,0,1,1-.61c4.7-3.14,8.22-7.95,11.24-13.27a21.35,21.35,0,0,0,.78-4.34c.18-2.66-.06-5.39,1.46-7.73a26,26,0,0,1,3.68-3.95l5.74-13.39,1.91-5.74V228.1l1.91-7.65C407.73,218.72,407.46,216.75,407.47,215Z"/><path class="cls-4" d="M328.22,44.53c2.78,3.75,7.57,4.72,11.91,6A57.08,57.08,0,0,0,354.8,53.5c4.67.18,6.73-.33,8.12-4.84,3.15-10.27,9.8-14,20.08-16.31,2.54-.58,5.31-.83,7.77-1.7,4.11-1.45,6.9-5,10.37-7.42,6.26-4.39,13.78-7.68,20.68-11C428.91,8.89,436.18,6,443.3,2.88l-12.62,1.4L415.38,8.1l-21,5.74-13.39,3.83-19.13,5.74L331.21,33l-4.82,1.61C326.15,38.11,326,41.56,328.22,44.53Z"/><path class="cls-4" d="M428.16,148.06c4.93-6.3,7.72-13.83,12.39-20.31,3.86-5.36,9.64-8.47,13.86-13.45,3.81-4.5,4.51-10.21,9.25-13.93,5.5-4.31,10.76-9.25,16.39-13.36S492.9,82.35,499.42,80c7.2-2.65,13-4.72,20.77-5,15.78-.47,34.95.55,47.78-10.23-12.52-1.24-23.52-7.93-33.5-17A106,106,0,0,1,517.38,27.9a46.62,46.62,0,0,1-5.8-11.39c-1.22-3.77-1.74-7.6-2.75-11.35l-11.19-2.8L480.37,1.21c1.4,6.58,5.17,12.71,3.22,19.57s-6.51,13.72-9.87,19.84c-3.14,5.73-5.94,10.26-12.09,12.77-4.56,1.86-6.27,3.66-9.53,7.2-2.3,2.49-4.88,4-7.78,5.74-8.17,4.9-17.64,10.63-23.63,18.07-2.6,3.23-5.74,6.77-7.9,10.32s-2.52,7.64-3.69,11.51a50.42,50.42,0,0,1-8.75,17.17,31.52,31.52,0,0,1-7,5.95c-4.4,3-9.55,8-1.54,10.66a1.45,1.45,0,0,1,.76,2.14c4.6,1.54,8.76,4.16,13.45,5.41,4.88,1.3,9.1-.13,13.9-.69C423.24,146.48,426.08,146.68,428.16,148.06Z"/><path class="cls-4" d="M358.16,297.11c-.58,3.75-2.06,9-.71,12.78,3.05,8.56,13.9,4.35,19.41,2,4.46-1.92,9.45-4.33,12-8.63.22-.38.4-.79.6-1.18a15.91,15.91,0,0,0,.22-3.71A25.58,25.58,0,0,0,386.92,288c-.62-1.21-2-2.63-2.07-4a2.58,2.58,0,0,1,.12-.87,25,25,0,0,1-3.09,2.15l-.38.19c-5.8,7.29-14.38,10.27-23.35,11.46A1.38,1.38,0,0,1,358.16,297.11Z"/><path class="cls-4" d="M370,330.23c8.5-.66,15.44-1.66,19.23-9.5a8,8,0,0,0-.12-.82c-.07-.35-.17-.7-.22-1.06-.1-.61-.08-1.23-.16-1.84-.31-2.54-2.47-4.7-2.09-7.35-.44.35-.91.7-1.42,1-4.93,3.23-11.49,6.26-17.41,6.93-4.68.53-7.78-.45-9.79-2.34v8.47l1.39,5.55A32.35,32.35,0,0,0,370,330.23Z"/><path class="cls-4" d="M382.9,350.89a17.49,17.49,0,0,0,7.77-7c-1-3.75,1.64-8.11,0-11.7-.83-1.82-1.94-3.07-1.9-5.17,0-.17,0-.34,0-.51a18,18,0,0,1-12.19,6.08c-5.29.6-11,1.31-16.24.27-.3-.06-.59-.14-.88-.21l-1.5,4.5v5.74l1.68,5C365.13,353.41,376,353.79,382.9,350.89Z"/><path class="cls-4" d="M365.64,375.41l5.74,7.65.38.75c9,1.26,18.36,1.47,23.67-7.7a23.57,23.57,0,0,0,1.26-2.55c-1.88-4,.67-10.21-1.06-14.49-.83-2.06-2.52-3.67-3.14-5.83s.1-4.34-.55-6.35a18.59,18.59,0,0,1-10.48,7.51c-6,1.55-13.49,1.68-19.24-1.15l1.51,3v13.39Z"/><path class="cls-5" d="M406.19,401.4c-1.85.28-3.58,1.15-5.44,1.39a11.19,11.19,0,0,1-7.59-1.66c-4.83-3-7.65-8.73-8.26-14.26a35.5,35.5,0,0,1-11.6,0l1.91,5.73,1.91,3.83,3.83,9.57,5.74,7.65,7.65,3.83H402l7.65-5.74v-9.57l.36-.71A10.51,10.51,0,0,0,406.19,401.4Z"/><path class="cls-4" d="M384.11,186.12c2.3.61,4.69,1.06,7,1.6l2.07.45c4.32.19,8.67-.24,13.05-.42,1.21,0,2.81-.29,4.4-.32l.05,0c9.21-4.3,28.74-39.83,9.81-37.75-4.37.48-8.54,1.88-13,1.13-6.15-1-11.39-4.91-17.4-6.46a1.34,1.34,0,0,1-.28-.14c-6.38,3.38-5.67,11.08-6.16,17.52a30.31,30.31,0,0,1-3.14,11.46c-1.59,3.29-2.61,4.57-1.46,8.37S380.68,185.21,384.11,186.12Z"/><path class="cls-4" d="M259.83,128.94c0-.25,0-.51-.08-.75-.8-5.91-6.42-5.36-11-7.87-4.95-2.73-8-8.23-13.14-10.61-4-1.87-6.39-.21-9.85,2.46-.55.42-1.06,1-1.57,1.44s-4.37,3.44-2.78,4.21c6.95-1.31,13.27-3.35,18,3.2,2.42,3.33,6.42,5.5,8.43,9,2.5,4.33-.35,9.47,4.62,12,1.77.89,4.38,1.43,6.2.24,0-.35,0-.69,0-1,0-3,0-5.93,0-8.9a4.19,4.19,0,0,1,.83-3.06A2.21,2.21,0,0,1,259.83,128.94Z"/><path class="cls-4" d="M175.14,217.18a86.75,86.75,0,0,0,4.86,24.6c3.27,9.29,6.45,18.95,17.34,20.33a53.85,53.85,0,0,0,12.1.41c1.67-.18,5.36-.72,6.64-2,2.07-2.12.68-5.27,0-7.5-2.41-7.5-6-14.5-8-22.15-11.41-.87-23.74-7.35-32.73-13.56Z"/><path class="cls-4" d="M164.16,191.34a45.28,45.28,0,0,0,2.33,12c2.28,5.93,7,9.46,12.17,12.79a82.94,82.94,0,0,0,25.44,11.21c7.34,1.72,6.3-1.26,6-7.44a89,89,0,0,0-1.8-14c-1.71-8.14-7.74-13.28-11.63-20.2-4.05,4.17-13.4,6.42-17.59,6.72A47.87,47.87,0,0,1,164.16,191.34Z"/><path class="cls-4" d="M145.37,147.93s0,0,0,.06c.26,5.77-2.37,11.77.58,17.06,2,3.62,4.35,6.61,6,10.48,2.24,5.25,3.45,9.73,9.27,11.66a51,51,0,0,0,15.57,2.44c5,0,14.71-2,17.85-6.52,1.81-2.61.9-3-.81-6.67-1-2.07-2.14-4-3-6.15A40.89,40.89,0,0,1,188.58,160c-.8-7-2.15-12.06-5.86-18.11-4.67,1.58-9.56,2.62-14.36,3.9C160.93,147.74,153,150.48,145.37,147.93Z"/><path class="cls-6" d="M38.45,42.73c-1.64.66-3.28,1.37-5,1.87-4.59,1.37-9.39,2.22-14.06,3.32A97.12,97.12,0,0,1,2.06,50.69L.25,59.76v2.4C14.7,61.49,29.8,54.75,38.45,42.73Z"/><path class="cls-6" d="M192.24,32.08c-3.25-1.22-10.1-3.92-13.53-2.87-5.38,1.64-.34,5.93,1.31,9.16a26.07,26.07,0,0,1,2.81,9.3c.37,4-.2,8-2.79,11.14-3.89,4.75-10.23,5.4-16,5.21-6.56-.22-15.64-3.87-22.65-3.15,2.57,5.55,5.72,9.06,12.06,11.27,1.68.59,3.77,1.17,5.49,1.68,11,3.25,18.5-2,28.3-5.84,3.78-1.5,7.9-2.27,11.62-3.84,8.33-3.52,12-12,8.15-20.09C204.22,38.15,198.2,34.31,192.24,32.08Z"/><path class="cls-6" d="M260.71,66.51a47,47,0,0,1-9,3c1.15,3.52,1.89,6.69.33,10.29-2.32,5.33-7.21,9.62-10.24,14.52s-8.37,10.31-4.45,15.86c1.12,1.59,6.61,7.5,8.36,7,1.91-.58,3-8.56,3.67-10.49A93.5,93.5,0,0,1,256,91.42c2.3-4.2,5.15-7.66,8-11.41,4.28-5.56,3.53-11.79,2.65-18.41C264.71,63.23,263.17,65.31,260.71,66.51Z"/><path class="cls-6" d="M331.76,98.35c-1.81-1.59-3.92-3.35-5-5.56-3.16-2.47-6.12-5.18-7.39-8.27-1-2.5-.6-5.41-.24-8,.27-1.91,1.23-4.23.18-6.09-.28-.5-3.79-2.32-4.1-2.54-1.11-.78-2.13-1.69-3.23-2.48a7.94,7.94,0,0,0-3-2q-2.77-2.29-1.46,1.44c-1,4,.18,9.62-.31,13.85a1.45,1.45,0,0,1-.12.38,42.07,42.07,0,0,1,4.2,4.76,49.41,49.41,0,0,1,4.34,7.79c2.71,6.21,3.94,12.93,6.37,19.21.8,2.07,2.16,4,2.85,6,3.88-2.71,7.78-5.36,11.68-8,2-1.36,2.82-2.5,3-3.57C336.68,103.13,334.34,100.62,331.76,98.35Z"/><path class="cls-6" d="M224,120c-1.94.41-10.21,2-8.92,5.17,5.14,1.75,11.52,4.08,16.63,3.57,4.21-.42,10-1.32,6-6.2C234.17,118.3,228.9,119,224,120Z"/><path class="cls-6" d="M193.17,170.63c2.41,3.63,8.13,4.27,11.95,5.59,8,2.75,15.07,5,23.52,6a100.58,100.58,0,0,1,10.24,1.61c2.35.54,6,2.59,8.43,2.47,6.46-.3,5.72-14.36,5.74-19,0-3.87,1.11-5.65-3-6.06-3.31-.33-6.72-.07-10.05-.38a71.29,71.29,0,0,1-20-4.59c-2.76-1.11-5.92-3.74-8.77-4-3.11-.3-5.54,2.54-7.74,4.38-2.65,2.21-5.34,4.95-9,5.12a1.43,1.43,0,0,1-1.22-2.13c2.44-3.56,8.87-8.51,8.94-12.89.09-4.88-8.56-11.28-12.76-9.87-8,2.67-2.47,8.54-.49,13a29.49,29.49,0,0,1,2,12.19,1.29,1.29,0,0,1-.54,1.07A22,22,0,0,0,193.17,170.63Z"/><path class="cls-6" d="M373.77,160.61c-2.55-.89-4.77-3.81-6.82-5.44-2.82-2.25-4.36-4.16-8.33-2.62-1.55.6-2.92,2.11-4.38,3-9.13,5.39-19.85,6-30.21,5.93-1,0-3.38-.59-4.3-.09-2.76,1.49-.13,9.58.27,11.82a105.77,105.77,0,0,0,2.84,13.51c6.31-4.43,14.13-3.72,21.64-5A165,165,0,0,0,361,177.76c4.84-1.35,10.64-2.39,14.95-5.06,6-3.74,3.39-10.6,4.27-16.39.73-4.81,4.32-8.91,3.56-13.68-1.26-7.9-13.1-5.35-11.08,2.75.95,3.82,5,6.24,6,10C379.74,159,377.59,161.95,373.77,160.61Z"/><path class="cls-6" d="M348,206.94a80.43,80.43,0,0,1-10.64,1.84c-.56,6.77-1.27,12.92,2.54,18.93,2.32,3.66,4.2,5.87,8.65,4.88a58.29,58.29,0,0,1,7.33-1.13,18.15,18.15,0,0,0,3.53-.17c3.4-1.09,3.14-2.61,3.37-5s-.61-5.1-.66-7.48c-.11-5-.53-10.38,0-15.44C357.23,203.7,352.81,205.81,348,206.94Z"/><path class="cls-6" d="M228,231a8.75,8.75,0,0,0,5.66-5.41v-1.31l1.43-2.86c.21-.64.46-1.35.71-2.09l1.14-5.7c0-.13,0-.27,0-.4-.76-4.85-11.23-5-15.16-5.89a78.27,78.27,0,0,1-13.5-4.19c-.47,4.66,2.6,9.6,3.49,14.07a42.46,42.46,0,0,1,.54,13.85C217.45,231.13,223.34,232.51,228,231Z"/><path class="cls-6" d="M539.17,47.08c7.87,9.45,21.24,18.22,33.08,16.66V55.93L568.56,50C559.27,51.84,548,51.36,539.17,47.08Z"/><path class="cls-6" d="M410.09,66c-6,.23-13-.23-17.32-5C386.6,54.22,386.25,41.2,391,33c-10.7.74-23,1.49-23.79,15.27-.78,13,10.86,16.93,20.61,20.86,5.16,2.08,10.22,4,15.55,5.57,1.86.55,4.2,1.76,6.07,1.92,10.4.9,2.94-.85,5.94-2.78,2.29-1.48,4.28-2,6.93-3,5.43-2,7.63-5.25,9.93-9.75-4,.34-7.55,2.61-11.52,3.58A54.26,54.26,0,0,1,410.09,66Z"/><path class="cls-6" d="M353.88,122.05c-4.7-2.15-9-4.21-13.92-1.62-1.7.9-9.27,5.15-6,7.45a1.39,1.39,0,0,1,.57.83,10.4,10.4,0,0,1,3-.77c2-.19,4.07.57,6.07.38,2.43-.22,4.68-1.72,7.17-2,.94-.12,4.2.14,4.89-.59C357.91,123.33,355.07,122.6,353.88,122.05Z"/><path class="cls-6" d="M332.64,49.86a7.83,7.83,0,0,0-6.34-.72c-2.61,1.58-3.9,4.14-3.91,7.66a36.85,36.85,0,0,0,4.86,3.65c2.86,1.58,4.63,1.2,7.72.4,4.18-1.09,8.21-2.41,12.27-3.77a87.11,87.11,0,0,1-8.33-4A44.62,44.62,0,0,0,332.64,49.86Z"/><path class="cls-6" d="M310.82,124.91a29.23,29.23,0,0,0,10.37-4.58,7.35,7.35,0,0,0-.29-5c-1.43-4-2.88-8-4.23-12.09-1.76-5.31-3.44-10.62-6.34-15.44A39.65,39.65,0,0,0,305.61,82c1.52,9.79,2,19,.64,28.9-.38,2.69-.8,5.37-1.23,8-.24,1.52-1.7,6.43-1.31,8A37.91,37.91,0,0,1,310.82,124.91Z"/><path class="cls-6" d="M296.63,103.17c-3.62.3-7.21.87-10.85,1-3.39.13-6.8.1-10.21.07.39,2.47.87,4.91,1.31,7.37.17.94.1,2.4.37,3.47a193.45,193.45,0,0,0,19.39-.77Z"/><path class="cls-6" d="M264.54,83.61a57,57,0,0,0-7.2,11.29c-3.14,6.21-5.06,12.63-7.09,19.22a19.25,19.25,0,0,1-1.65,4.27c3.57,1.28,6.84,3.5,10.28,5.09a22.19,22.19,0,0,0,5.32,2.1q4.55,1.75,3.65-2.59c.2-1.68-.85-4.33-1-6.13-.46-6.55.69-13.14.86-19.68.14-5.39-.43-10.75-.65-16.13C266.21,81.91,265.3,82.73,264.54,83.61Z"/><path class="cls-6" d="M240,49.82a30.2,30.2,0,0,0-11.24,8.34,50,50,0,0,1,7.75,3.18c2.71,1.29,5.77,3.23,8.59,1.1,1.28-1,2.17-2.86,3.14-4.14,1.52-2,4.33-3.81,2.17-6.58S242.8,48.73,240,49.82Z"/><path class="cls-5" d="M413.31,17.17c-2.55,1.13-5.17,2.14-7.63,3.45-4.84,2.58-7.5,8.43-1.37,11.16-1.06-4.07,6.52-6,10.11-7.43,6.21-2.5,12-6,18.23-8.41C438.35,13.72,444.39,13,450.4,12a75.38,75.38,0,0,0,10.18-2.18c2.59-.81,5.27-2.54,8-3.18,2.43-.57,4.58-.38,6.52,1.4,6,5.51-3.19,14.35-5.63,19.45-2.34,4.9-4.3,10.09-7.81,14.31-3,3.62-6.89,5.56-10.76,8.07-4.69,3-7.61,8.28-12.64,10.75-1.82.89-3.91,1.1-5.73,2-2.82,1.42-4.08,3.85-6.35,5.88a21.75,21.75,0,0,1-5,3c-3.71,1.9-4.92,3.53-6.54,7.57a32.12,32.12,0,0,1-6.38,10.19c-4.44,5-6,9.59-7.22,16-.75,4-1.48,8.12-3.8,11.54-4.8,7.1-17.64,10.71-17.42,20.76a1.27,1.27,0,0,1-.29.85c11.9,3.09,22.23-17.08,27.33-25.38,2.85-4.64,2.61-9.1,4.37-14,1.38-3.85,4.19-6.8,6.13-10.33,3.56-6.48,4.19-9.36,11-12.25,4.43-1.88,6.6-5.54,10.18-8.45,4-3.25,8.46-5,11.66-9.27,1.55-2,2.67-3.87,4.77-5.4,5-3.66,11.15-4.59,15-10,4.19-5.89,4.73-12.09,10.27-17.23,5-4.62,5.53-8.7,2.34-15.11a86,86,0,0,0-6.26-10L472.5.69a118.09,118.09,0,0,0-38.12,7.69C427.23,11,420.27,14.09,413.31,17.17Z"/><path class="cls-5" d="M91.27,22.29c3,6.84,5.51,15.12,9.73,21.19,5.45,7.86,14.5,7.57,21.1,13.35,2.5,2.19,4.22,5.22,6.14,7.88,3.27,4.52,6.86,7,11.31,10.08A29.05,29.05,0,0,1,146.23,81a66,66,0,0,0,9.71,10.22,12.16,12.16,0,0,1,3.94,5.89c1.67,4.88,2.64,9,5.54,13.36,4.87,7.37,8.8,14.59,15.43,20.61,3.66,3.32,6.21,6.15,7.21,10.5a59,59,0,0,1,5.12-4.06,10.29,10.29,0,0,1-3.13-5.12c-1.33-4.34,0-5.14-4.58-9.33-1.58-1.45-3.65-2.45-5.3-3.85-7.56-6.36-9.06-13.53-11.85-22.39C166.8,92,162,89.7,159.58,85.45c-3-5.27-.92-10.89-7.62-13.84-3.15-1.39-4.56-1.4-7-4.32-2.71-3.19-4.07-5.82-7.87-8.12-1.62-1-3.31-1.87-5-2.74-.16.9-1.25,1.69-2.1,1-5.56-4.22-12.34-6.91-17.64-11.4-4.32-3.66-5.22-8.49-7.63-13.36-4.51-9.1-11.2-16.14-3.71-25.16a20.34,20.34,0,0,1,.59-2.06,1.45,1.45,0,0,1,1.37-1c13.16.06,26,5.37,38.33,9.34,6.15,2,11.49,5.38,17.27,8.15,4.92,2.35,9.83,4.45,14,8.11a1.42,1.42,0,0,1,.31,1.45,8.33,8.33,0,0,0,1.88-1.79l1-.52-3-4a19.81,19.81,0,0,0-3.31-1.66c-6.51-3.35-13.16-6.14-20-8.84C137.36,9.87,124.84,5.73,113,.45H96.18C90.68,6.39,87.72,14.2,91.27,22.29Z"/><path class="cls-5" d="M164.23,214.31a15.38,15.38,0,0,1,.5,3.18c.82,9.5,1,22.34,7,30.26,1.41,1.87,3.16,3.45,4.61,5.29a21,21,0,0,1,3.76,7.52,32.8,32.8,0,0,0,6.46.49c-3.11-6.46-7.37-12.39-9.73-19.19-2.82-8.1-4-17-5.15-25.5a1.46,1.46,0,0,1,.23-1c-2.54-4.87-5.65-9.62-7.83-14.61-2.56-5.88-3.13-10.81-8.1-15.5a34.7,34.7,0,0,1-10.77-20.85c-.71-4.49,1.37-10.1-.07-14.29s-6.32-7.63-8.9-11c-7.15-9.46-12.87-19.54-18.94-29.68-3.76-6.27-8.61-7.63-14-11.62-3.4-2.51-5.55-6.16-8.65-8.95-8.48-7.63-23.93-6.72-34.7-8.35C47.75,78.61,35.22,78.56,23.13,76a24.75,24.75,0,0,1-10.71-4.52C8.24,68.3,5.13,64.29.25,62.09v5.32L7.9,78.89l13.39,5.74H34.68l47.83,3.83,3.83,1.91,1.91,5.74,3.83,3.83,5.74,3.83,5.74,1.91,3.83,3.83,3.83,5.74,11.48,15.3,3.83,5.74,5.74,3.83c2.11,3.17,3.93,4.49,4,8.68,0,2.18,0,4.49,1,6.39.43.74,1,1.38,1.47,2.1,2.88,4.45,1.34,11.89,2,17a16.09,16.09,0,0,0,1.37,5.58,18.87,18.87,0,0,0,3.54,4.24,54.38,54.38,0,0,1,11.32,17,41,41,0,0,0,2.81,6.12C161.22,209.62,163.41,211.63,164.23,214.31Z"/><path class="cls-5" d="M556.42,74c-5.9,2-12.47,2.05-18.62,2.47-14.33,1-28.4,1.55-42.16,6.06-10.85,3.56-23.09,9-31.12,17.42-3.91,4.1-5,9.89-8.67,14.17-3.51,4.08-8.29,6.62-11.49,11s-5,9.73-9.22,13.46c-3.27,2.9-11,6.43-8.67,11.43,1.09,2.38,2.6,3.16,2.52,6-.13,4.26-3.47,8.42-5.13,12.16-2.25,5.07-3.68,10.59-6.61,15.34-2.67,4.32-6.43,7.5-8.15,12.42-3.68,10.53-9.08,19.6-10.75,30.77a81.26,81.26,0,0,1-5.13,17.85c-.9,2.28-6.89,13.11-5.77,15.14,1.45,2.64,4,1,6.57-1.92a7,7,0,0,1,.48-.88,13.8,13.8,0,0,1,2-2.31c1-1.49,2.05-3.06,2.93-4.51l4.51-10.53,1.91-5.74V228.1l1.91-7.65c0-2.23-.46-4.86-.17-7,.38-2.82,3.81-5.26,5.49-7.34a37.56,37.56,0,0,0,4.61-8.25l3.54-7.81a19.2,19.2,0,0,1,2.9-5c2.37-2.65,6.2-4,7.74-7.2a12.82,12.82,0,0,0,.86-5.51c0-3.25,0-6.49.07-9.74,0-1.15-.43-2.7-.13-3.8.25-.92,1-1.46,1.6-2.19,1.28-1.67,1.41-4.71,1.42-6.73s-.25-4.37,1-6a8.61,8.61,0,0,1,2.21-1.85c5.74-3.89,10.62-8.44,12.88-15.16a24.15,24.15,0,0,1,2-5.35c1.25-2,3.27-3.33,5.19-4.67a25.71,25.71,0,0,0,7.25-6.82c1.24-1.93,2.08-4.24,3.93-5.59a17.28,17.28,0,0,1,4.28-1.82c5.36-2,8.53-6.92,11.17-11.75a4.41,4.41,0,0,1,1.15-1.55,4.19,4.19,0,0,1,2-.6c9-1.14,18.17-2.28,27.24-1.47,3.43.3,6.84.88,10.28.9,6.07,0,11.12-2.66,16.9-3.55L555,82.71l9.57-3.83,5.74-5.74,1.91-3.83V66.39C568.16,66.77,558.64,73.29,556.42,74Z"/><path class="cls-5" d="M46.39,30.85c-5.75,2.9-12.15,4.87-18.26,6.85-6.32,2.05-11.77,2.66-17.74.43l-.58.58L2.16,50.19l-.2,1c9-1.4,18-2.72,26.84-4.76a1.34,1.34,0,0,1,.92.12c6.85-1.84,13.34-4.65,19-9.65,6-5.33,8.64-12.07,10.49-19.2C56.23,23.14,52.34,27.85,46.39,30.85Z"/><path class="cls-5" d="M540.52,38c-14.24-3.61-24-15.23-28.67-28.73,1,12.78,9.41,24,18.41,33.12a1.49,1.49,0,0,1,.61.16c9.4,5.28,23.4,6.92,34.24,5.87.62-.06,1.54-.07,2.33-.21l-4.76-7.62-2.05-2.31a40.37,40.37,0,0,0-4.66.31C550.68,39.2,545.73,39.35,540.52,38Z"/><path class="cls-5" d="M276.89,23.43a7.69,7.69,0,0,1,.89-2.87c1-1.85,2.83-3.65,3.33-5.73.71-2.93-2-6-5.06-6a6,6,0,0,0-4.7,2.52,14.62,14.62,0,0,0-1.41,7.4A29.66,29.66,0,0,0,272.43,30c1.58,3.6,4.3,6.44,5.38,10.28.24.86.55,1.89,1.41,2.15s1.74-.48,2.57-.93a17.39,17.39,0,0,0,1.64-.81,3.08,3.08,0,0,0,.73-4.11c-1.08-1.61-3.34-1.89-4.85-3.11s-2.17-3.57-2.36-5.66A20.89,20.89,0,0,1,276.89,23.43Z"/><path class="cls-5" d="M293.88,19.17A12.33,12.33,0,0,1,295,30.07a7.88,7.88,0,0,1-4,5,10,10,0,0,1-3.33.59c-.33,0-.74.11-.79.43a.64.64,0,0,0,.07.35,6.76,6.76,0,0,0,2,2.13c1.7,1.48,1.34,3.81,3.62,4.81a1.88,1.88,0,0,0,1.21.19c.67-.18,1-.91,1.24-1.56.53-1.43,1.06-2.83,1.69-4.22,1-2.23,2.36-4.27,3.5-6.42,2.65-5,3.06-10.72,3.35-16.29a6.3,6.3,0,0,0-.7-3.21,5.76,5.76,0,0,0-10,5.65C293.09,18.09,293.51,18.61,293.88,19.17Z"/><path class="cls-7" d="M363.78,126.43c-2.12-1-4.37-1.6-6.59-2.39-2.16.69-4,2.57-6.2,3.16a13.37,13.37,0,0,1-1.88.34c-4.66,3.5-3.73,11.5-4.74,16.92a1.16,1.16,0,0,1-1.11,1c0,.21.07.42.09.62a9.12,9.12,0,0,0,1.52.13c3-.06,4.27-2.23,5.84-4.4a31.3,31.3,0,0,1,4.88-5.63c2.21-1.91,5.12-3.2,7.12-5.3C364.42,129.11,364.8,127.86,363.78,126.43Z"/><path class="cls-7" d="M226.2,133.1c-.13-1-.07-2.25-.27-3.26-.72-3.63-2.34-3.81-5.68-4.26-2.29-.31-4.6-.53-6.92-.71A37.22,37.22,0,0,0,207,129.4c4.51,2.71,9.59,4.75,13,8.81,3.27,3.89,4.93,8.83,6.83,13.5C230,147.86,226.69,137,226.2,133.1Z"/><path class="cls-8" d="M302.9,78.73c-3.32,1.17-6.15,2.89-9.88,2.95s-6.69-1.87-10.19-.86c-2.3.67-3.19,1.88-6.18,1.54a18.86,18.86,0,0,1-7.29-2.88c-.66,6.42.58,12.79.74,19.22a58.26,58.26,0,0,0,14.27,1.74c3.75,0,8.53.79,12.19,0s6.07-2.9,6.66-6.48c.25-1.54-.28-3.43-.34-5C302.76,85.58,303,82.16,302.9,78.73Z"/><ellipse class="cls-6" cx="285.29" cy="90.36" rx="5.74" ry="4.3"/><path class="cls-1" d="M307.46,35.87c-.44-1.61.37-3.53.8-5.27a8.67,8.67,0,0,0-1-7.09c-.43-.6-.93-1.18-1.41-1.77a35.22,35.22,0,0,1-1.64,7.61,47.94,47.94,0,0,1-3.72,7.19A15.19,15.19,0,0,0,307.46,35.87Z"/><path class="cls-1" d="M265.71,35.76a14.79,14.79,0,0,0,7.31.72,40.17,40.17,0,0,1-5.57-13.64,30.36,30.36,0,0,0-2.5,4,7,7,0,0,0-.55,4.75C264.72,33,265.63,34.33,265.71,35.76Z"/><circle class="cls-3" cx="265.21" cy="47.32" r="4.78"/><circle class="cls-3" cx="307.29" cy="47.32" r="4.78"/><path class="cls-9" d="M160.95,390.71v3.83l-.47.94a12.63,12.63,0,0,0,7.37,8.36c7,3,14.44-4.36,17.78-10.07,3.48-5.94-.95-8.07-4.06-12a36.09,36.09,0,0,0-7.58-7.64c-.64,1.09-2.05,3.19-3.47,3.19-1.91,0-1.91,3.83-3.83,3.83s-1.91,5.74-1.91,5.74Z"/><path class="cls-9" d="M402,403c3.26.39,6.9-1.88,9.52-4.81v-3.63l-3.83-5.74L405.82,385c-1.4-2.8-2.45-7.17-5.46-8.27l0,0a17,17,0,0,0-5.23,2.47c-2.27,1.58-4.29,3.46-6.62,5a32.49,32.49,0,0,1-3,1.71C385.91,394.11,394,402,402,403Z"/><path class="cls-10" d="M163.35,400.58a1.53,1.53,0,0,1,.47-.57c7.48-5.46,12.66-10.84,17.21-18.9a34.34,34.34,0,0,0-7-7c-.64,1.09-2.05,3.19-3.47,3.19-1.91,0-1.91,3.83-3.83,3.83s-1.91,5.74-1.91,5.74l-3.83,3.83v3.83l-.47.94a12.63,12.63,0,0,0,2.8,5.12Z"/><path class="cls-10" d="M400.18,394.11a28.51,28.51,0,0,0,9.94,5.49,19.12,19.12,0,0,0,1.44-1.43v-3.63l-3.83-5.74L405.82,385c-1.4-2.8-2.45-7.17-5.46-8.27l0,0a17,17,0,0,0-5.23,2.47c-1.11.77-2.16,1.62-3.22,2.45C394.44,386,396.24,390.75,400.18,394.11Z"/><path class="cls-11" d="M271.57,51.12a.64.64,0,0,0,1-.09c1-1,1.92-2,2.84-3.05l4.23-4.79a.57.57,0,0,0,.18-.33.56.56,0,0,0-.12-.32,10.93,10.93,0,0,0-10.6-4.68,7.43,7.43,0,0,0-1.38.34A7.51,7.51,0,0,0,265,40.11c-.52.54-2.09,2-2.09,2.78s1.91,2.28,2.46,2.84q1.39,1.41,2.89,2.71T271.57,51.12Z"/><path class="cls-11" d="M302.18,51.12a.64.64,0,0,0,1-.09c1-1,1.92-2,2.84-3.05l4.23-4.79a.57.57,0,0,0,.18-.33.56.56,0,0,0-.12-.32,10.93,10.93,0,0,0-10.6-4.68,7.43,7.43,0,0,0-1.38.34,7.51,7.51,0,0,0-2.78,1.92c-.52.54-2.09,2-2.09,2.78s1.91,2.28,2.46,2.84q1.39,1.41,2.89,2.71T302.18,51.12Z"/><path class="cls-5" d="M324.52,83.62c.24.3,4.2-10.32,5.69-12.11,3.09-3.72,8.19-3.91,12.65-5,5.57-1.34,11.76.88,16.94-1.09,3-1.12,8.21-3.43,10.44-5.64,2-1.94,1-1.1-1.46-3.55-1-1.05-2.54-3.53-4.11-3.86-2.51-.53-5.58,2.59-8.16,3a7.86,7.86,0,0,1-1.17.08c-7.65,1.93-15.72,5.18-23.57,5.94-6.15.59-11.38-2.49-16.68-5.23a120.65,120.65,0,0,1-19-11.83,92.11,92.11,0,0,1-7.54-6.58c-3.78-3.68-4.35-2.23-7.87,1.06-10.44,9.74-23.55,19.82-38,21.95a50.77,50.77,0,0,1-21.48-1.63c-3.32-1-6.24-2.88-9.4-4-6.92-2.33-7.23,4-8.54,8.07a13.25,13.25,0,0,1,5.15,1.85c4.57,2.55,7.62,2.74,12.21.57,4.25-2,7.34-2,11.92-1,4,.88,7.75,1.93,9.25,6a11.82,11.82,0,0,0,2.58,4.76,10.48,10.48,0,0,1,1.81,2.26c.57,1.15.31,4.75,1.3,5.45q4.2-2.38,3.1-5.73l-.19-.84c.09-.69-.28-1.44-.21-2.16.29-2.93,2.29-4.32,4.73-5.64,4-2.18,8.71-3.16,13.06-4.52,5.47-1.72,8.66-4.41,13-8,7.42-6.12,12.41,1.18,19.06,5.15s14.13,3.5,20.72,6.51a5.15,5.15,0,0,1,3.49,4.31C324.83,74.9,322.72,81.43,324.52,83.62Z"/><path class="cls-3" d="M437.17,56.19c7.67-3.91,13.06-11.08,18.17-18l11-14.88a9.58,9.58,0,0,0,2.06-4c.68-4.23-4.68-7.28-8.87-6.36s-7.39,4.17-10.8,6.77c-14.12,10.75-32.36,10.5-48.53,16-17.49,5.93-6.83,22.68,7.21,24C417.11,60.57,428.28,60.72,437.17,56.19Z"/><path class="cls-3" d="M133.49,56.19c-7.67-3.91-13.06-11.08-18.17-18l-11-14.88a9.58,9.58,0,0,1-2.06-4c-.68-4.23,4.68-7.28,8.87-6.36s7.39,4.17,10.8,6.77c14.12,10.75,32.36,10.5,48.53,16,17.49,5.93,6.83,22.68-7.21,24C153.55,60.57,142.38,60.72,133.49,56.19Z"/><path class="cls-3" d="M55.73,18.25a21.82,21.82,0,0,0,4.32-7.66,1.36,1.36,0,0,0,0-1.06A1.3,1.3,0,0,0,59.28,9c-4.7-1.53-9.42,1.81-13.45,4.67A96.68,96.68,0,0,1,33,21.36a27.53,27.53,0,0,0-6.21,3.7c-2.78,2.47-4.45,6.25-7.8,7.88-1.34.65-4.62,1.25-3.92,3.38.64,1.93,4.09,1.12,5.52,1a52.54,52.54,0,0,0,13.22-3.22A52.27,52.27,0,0,0,55.73,18.25Z"/><path class="cls-3" d="M516.84,18.25a21.82,21.82,0,0,1-4.32-7.66,1.36,1.36,0,0,1,0-1.06,1.3,1.3,0,0,1,.76-.49c4.7-1.53,9.42,1.81,13.45,4.67a96.68,96.68,0,0,0,12.78,7.65,27.53,27.53,0,0,1,6.21,3.7c2.78,2.47,4.45,6.25,7.8,7.88,1.34.65,4.62,1.25,3.92,3.38-.64,1.93-4.09,1.12-5.52,1a52.54,52.54,0,0,1-13.22-3.22A52.27,52.27,0,0,1,516.84,18.25Z"/></svg>