
<svg xmlns="http://www.w3.org/2000/svg" xmlns:xlink="http://www.w3.org/1999/xlink" viewBox="0 0 138 138"><defs><style>.cls-1{isolation:isolate}.cls-11,.cls-12,.cls-15,.cls-16,.cls-18,.cls-19,.cls-2,.cls-21,.cls-22,.cls-24,.cls-25,.cls-27,.cls-28,.cls-30,.cls-31,.cls-33,.cls-34,.cls-35,.cls-37,.cls-38,.cls-40,.cls-41,.cls-43,.cls-44,.cls-46,.cls-47,.cls-49,.cls-50,.cls-52,.cls-53{opacity:.5}.cls-2{filter:url(#AI_GaussianBlur_4)}.cls-3{fill:#754b33}.cls-4{fill:#b0835d}.cls-11,.cls-12,.cls-15,.cls-16,.cls-18,.cls-19,.cls-21,.cls-22,.cls-24,.cls-25,.cls-27,.cls-28,.cls-30,.cls-31,.cls-34,.cls-35,.cls-37,.cls-38,.cls-40,.cls-41,.cls-43,.cls-44,.cls-46,.cls-47,.cls-49,.cls-5,.cls-50,.cls-52,.cls-53,.cls-7,.cls-8{mix-blend-mode:multiply}.cls-5{fill:url(#radial-gradient)}.cls-6{fill:#9f6d48}.cls-7{fill:url(#radial-gradient-14)}.cls-8{fill:url(#radial-gradient-24)}.cls-9{fill:#875800}.cls-10{fill:#ecb25e}.cls-11{fill:url(#linear-gradient)}.cls-12{fill:url(#linear-gradient-2)}.cls-13,.cls-17,.cls-20,.cls-23,.cls-26,.cls-29,.cls-32,.cls-36,.cls-39,.cls-42,.cls-45,.cls-48,.cls-51,.cls-54{opacity:.7;mix-blend-mode:soft-light}.cls-13{fill:url(#linear-gradient-3)}.cls-14{fill:#fff;opacity:0}.cls-15{fill:url(#linear-gradient-4)}.cls-16{fill:url(#linear-gradient-5)}.cls-17{fill:url(#linear-gradient-6)}.cls-18{fill:url(#linear-gradient-7)}.cls-19{fill:url(#linear-gradient-8)}.cls-20{fill:url(#linear-gradient-9)}.cls-21{fill:url(#linear-gradient-10)}.cls-22{fill:url(#linear-gradient-11)}.cls-23{fill:url(#linear-gradient-12)}.cls-24{fill:url(#linear-gradient-13)}.cls-25{fill:url(#linear-gradient-14)}.cls-26{fill:url(#linear-gradient-15)}.cls-27{fill:url(#linear-gradient-16)}.cls-28{fill:url(#linear-gradient-17)}.cls-29{fill:url(#linear-gradient-18)}.cls-30{fill:url(#linear-gradient-19)}.cls-31{fill:url(#linear-gradient-20)}.cls-32{fill:url(#linear-gradient-21)}.cls-33{fill:#d2852e}.cls-34{fill:url(#linear-gradient-22)}.cls-35{fill:url(#linear-gradient-23)}.cls-36{fill:url(#linear-gradient-24)}.cls-37{fill:url(#linear-gradient-25)}.cls-38{fill:url(#linear-gradient-26)}.cls-39{fill:url(#linear-gradient-27)}.cls-40{fill:url(#linear-gradient-28)}.cls-41{fill:url(#linear-gradient-29)}.cls-42{fill:url(#linear-gradient-30)}.cls-43{fill:url(#linear-gradient-31)}.cls-44{fill:url(#linear-gradient-32)}.cls-45{fill:url(#linear-gradient-33)}.cls-46{fill:url(#linear-gradient-34)}.cls-47{fill:url(#linear-gradient-35)}.cls-48{fill:url(#linear-gradient-36)}.cls-49{fill:url(#linear-gradient-37)}.cls-50{fill:url(#linear-gradient-38)}.cls-51{fill:url(#linear-gradient-39)}.cls-52{fill:url(#linear-gradient-40)}.cls-53{fill:url(#linear-gradient-41)}.cls-54{fill:url(#linear-gradient-42)}.cls-55{fill:#8b4200}.cls-56{fill:#b55600}.cls-57{fill:#940609}.cls-58{fill:#fff200}.cls-59{fill:url(#linear-gradient-43)}.cls-60{fill:url(#linear-gradient-44)}.cls-61{fill:url(#linear-gradient-45)}.cls-62{fill:url(#linear-gradient-46)}.cls-63{fill:url(#linear-gradient-47)}.cls-64{fill:url(#linear-gradient-48)}.cls-65{fill:url(#linear-gradient-49)}.cls-66{fill:url(#linear-gradient-50)}.cls-67{fill:url(#linear-gradient-51)}.cls-68{fill:url(#linear-gradient-52)}.cls-69{fill:url(#linear-gradient-53)}.cls-70{fill:url(#linear-gradient-54)}.cls-71{fill:url(#linear-gradient-55)}.cls-72{fill:url(#linear-gradient-56)}.cls-73{fill:url(#linear-gradient-57)}.cls-74{fill:url(#linear-gradient-58)}.cls-75{fill:url(#linear-gradient-59)}.cls-76{fill:url(#linear-gradient-60)}.cls-77{fill:url(#linear-gradient-61)}.cls-78{fill:url(#linear-gradient-62)}</style><filter id="AI_GaussianBlur_4"><feGaussianBlur stdDeviation="4"/></filter><radialGradient id="radial-gradient" cx="4804.52" cy="-498.66" r="242.3" gradientTransform="matrix(.23 .23 -2.61 2.61 -2324.28 280.25)" gradientUnits="userSpaceOnUse"><stop offset=".01" stop-color="#fff"/><stop offset=".02" stop-color="#fff"/><stop offset=".11" stop-color="#f6f5f4"/><stop offset=".27" stop-color="#ded9d6"/><stop offset=".47" stop-color="#b6aba5"/><stop offset=".73" stop-color="#806d61"/><stop offset=".99" stop-color="#412514"/></radialGradient><radialGradient id="radial-gradient-14" cx="4666.88" cy="-493.16" r="0" xlink:href="#radial-gradient"/><radialGradient id="radial-gradient-24" cx="58" cy="71.94" r="249.09" gradientTransform="translate(-.03)" xlink:href="#radial-gradient"/><linearGradient id="linear-gradient" x1="-4881.86" y1="-829.7" x2="-4881.86" y2="-738.76" gradientTransform="matrix(0 .66 -1 -.01 -766.73 3301.69)" gradientUnits="userSpaceOnUse"><stop offset=".17" stop-color="#de9a34" stop-opacity="0"/><stop offset=".78" stop-color="#de9a34"/></linearGradient><linearGradient id="linear-gradient-2" x1="31.16" y1="14.43" x2="31.16" y2="135.43" xlink:href="#linear-gradient"/><linearGradient id="linear-gradient-3" x1="31.16" y1="12.29" x2="31.16" y2="128.86" gradientUnits="userSpaceOnUse"><stop offset="0" stop-color="#f1cf72"/><stop offset=".77" stop-color="#f1cf72" stop-opacity="0"/></linearGradient><linearGradient id="linear-gradient-4" x1="-4881.38" y1="-829.7" x2="-4881.38" y2="-738.76" xlink:href="#linear-gradient"/><linearGradient id="linear-gradient-5" x1="50.29" y1="14.43" x2="50.29" y2="135.43" xlink:href="#linear-gradient"/><linearGradient id="linear-gradient-6" x1="50.29" y1="12.29" x2="50.29" y2="128.86" xlink:href="#linear-gradient-3"/><linearGradient id="linear-gradient-7" x1="-4876.47" y1="-829.7" x2="-4876.47" y2="-738.76" xlink:href="#linear-gradient"/><linearGradient id="linear-gradient-8" x1="95.66" y1="14.43" x2="95.66" y2="135.43" xlink:href="#linear-gradient"/><linearGradient id="linear-gradient-9" x1="95.66" y1="12.29" x2="95.66" y2="128.86" xlink:href="#linear-gradient-3"/><linearGradient id="linear-gradient-10" x1="-4879.97" y1="-829.7" x2="-4879.97" y2="-738.76" xlink:href="#linear-gradient"/><linearGradient id="linear-gradient-11" x1="61.43" y1="14.43" x2="61.43" y2="135.43" xlink:href="#linear-gradient"/><linearGradient id="linear-gradient-12" x1="61.43" y1="12.29" x2="61.43" y2="128.86" xlink:href="#linear-gradient-3"/><linearGradient id="linear-gradient-13" x1="-4879.42" y1="-829.7" x2="-4879.42" y2="-738.76" xlink:href="#linear-gradient"/><linearGradient id="linear-gradient-14" x1="78.34" y1="14.43" x2="78.34" y2="135.43" xlink:href="#linear-gradient"/><linearGradient id="linear-gradient-15" x1="78.34" y1="12.29" x2="78.34" y2="128.86" xlink:href="#linear-gradient-3"/><linearGradient id="linear-gradient-16" x1="-4895.91" y1="-829.7" x2="-4895.91" y2="-738.76" xlink:href="#linear-gradient"/><linearGradient id="linear-gradient-17" x1="24.3" y1="14.43" x2="24.3" y2="135.43" xlink:href="#linear-gradient"/><linearGradient id="linear-gradient-18" x1="24.3" y1="12.29" x2="24.3" y2="128.86" xlink:href="#linear-gradient-3"/><linearGradient id="linear-gradient-19" x1="-4875.24" y1="-829.7" x2="-4875.24" y2="-738.76" xlink:href="#linear-gradient"/><linearGradient id="linear-gradient-20" x1="111.85" y1="14.43" x2="111.85" y2="135.43" xlink:href="#linear-gradient"/><linearGradient id="linear-gradient-21" x1="111.85" y1="12.29" x2="111.85" y2="128.86" xlink:href="#linear-gradient-3"/><linearGradient id="linear-gradient-22" x1="-4869.71" y1="-829.7" x2="-4869.71" y2="-738.76" xlink:href="#linear-gradient"/><linearGradient id="linear-gradient-23" x1="117.01" y1="14.43" x2="117.01" y2="135.43" xlink:href="#linear-gradient"/><linearGradient id="linear-gradient-24" x1="117.01" y1="12.29" x2="117.01" y2="128.86" xlink:href="#linear-gradient-3"/><linearGradient id="linear-gradient-25" x1="-4873.61" y1="-829.7" x2="-4873.61" y2="-738.76" xlink:href="#linear-gradient"/><linearGradient id="linear-gradient-26" x1="105.47" y1="14.43" x2="105.47" y2="135.43" xlink:href="#linear-gradient"/><linearGradient id="linear-gradient-27" x1="105.47" y1="12.29" x2="105.47" y2="128.86" xlink:href="#linear-gradient-3"/><linearGradient id="linear-gradient-28" x1="-4877.25" y1="-829.7" x2="-4877.25" y2="-738.76" xlink:href="#linear-gradient"/><linearGradient id="linear-gradient-29" x1="85.94" y1="14.43" x2="85.94" y2="135.43" xlink:href="#linear-gradient"/><linearGradient id="linear-gradient-30" x1="85.94" y1="12.29" x2="85.94" y2="128.86" xlink:href="#linear-gradient-3"/><linearGradient id="linear-gradient-31" x1="-4879.59" y1="-829.7" x2="-4879.59" y2="-738.76" xlink:href="#linear-gradient"/><linearGradient id="linear-gradient-32" x1="66.37" y1="14.43" x2="66.37" y2="135.43" xlink:href="#linear-gradient"/><linearGradient id="linear-gradient-33" x1="66.37" y1="12.29" x2="66.37" y2="128.86" xlink:href="#linear-gradient-3"/><linearGradient id="linear-gradient-34" x1="-4880.66" y1="-829.7" x2="-4880.66" y2="-738.76" xlink:href="#linear-gradient"/><linearGradient id="linear-gradient-35" x1="55.83" y1="14.43" x2="55.83" y2="135.43" xlink:href="#linear-gradient"/><linearGradient id="linear-gradient-36" x1="55.83" y1="12.29" x2="55.83" y2="128.86" xlink:href="#linear-gradient-3"/><linearGradient id="linear-gradient-37" x1="-4880.44" y1="-829.7" x2="-4880.44" y2="-738.76" xlink:href="#linear-gradient"/><linearGradient id="linear-gradient-38" x1="41.69" y1="14.43" x2="41.69" y2="135.43" xlink:href="#linear-gradient"/><linearGradient id="linear-gradient-39" x1="41.69" y1="12.29" x2="41.69" y2="128.86" xlink:href="#linear-gradient-3"/><linearGradient id="linear-gradient-40" x1="-4894.27" y1="-829.7" x2="-4894.27" y2="-738.76" xlink:href="#linear-gradient"/><linearGradient id="linear-gradient-41" x1="27.82" y1="14.43" x2="27.82" y2="135.43" xlink:href="#linear-gradient"/><linearGradient id="linear-gradient-42" x1="27.82" y1="12.29" x2="27.82" y2="128.86" xlink:href="#linear-gradient-3"/><linearGradient id="linear-gradient-43" x1="32.67" y1="62.53" x2="32.67" y2="48.87" gradientUnits="userSpaceOnUse"><stop offset="0" stop-color="#fff896" stop-opacity="0"/><stop offset="1" stop-color="#fff896"/></linearGradient><linearGradient id="linear-gradient-44" x1="46.23" y1="62.53" x2="46.23" y2="48.87" xlink:href="#linear-gradient-43"/><linearGradient id="linear-gradient-45" x1="61.37" y1="62.53" x2="61.37" y2="48.87" xlink:href="#linear-gradient-43"/><linearGradient id="linear-gradient-46" x1="76.69" y1="62.53" x2="76.69" y2="48.87" xlink:href="#linear-gradient-43"/><linearGradient id="linear-gradient-47" x1="88.55" y1="62.53" x2="88.55" y2="48.87" xlink:href="#linear-gradient-43"/><linearGradient id="linear-gradient-48" x1="99.12" y1="62.53" x2="99.12" y2="48.87" xlink:href="#linear-gradient-43"/><linearGradient id="linear-gradient-49" x1="108.6" y1="62.53" x2="108.6" y2="48.87" xlink:href="#linear-gradient-43"/><linearGradient id="linear-gradient-50" x1="34.18" y1="80.81" x2="34.18" y2="70.16" xlink:href="#linear-gradient-43"/><linearGradient id="linear-gradient-51" x1="44.75" y1="80.81" x2="44.75" y2="70.16" xlink:href="#linear-gradient-43"/><linearGradient id="linear-gradient-52" x1="54.54" y1="80.81" x2="54.54" y2="70.16" xlink:href="#linear-gradient-43"/><linearGradient id="linear-gradient-53" x1="66.85" y1="80.81" x2="66.85" y2="70.16" xlink:href="#linear-gradient-43"/><linearGradient id="linear-gradient-54" x1="77.42" y1="80.81" x2="77.42" y2="70.16" xlink:href="#linear-gradient-43"/><linearGradient id="linear-gradient-55" x1="83.95" y1="80.81" x2="83.95" y2="70.16" xlink:href="#linear-gradient-43"/><linearGradient id="linear-gradient-56" x1="93.02" y1="80.81" x2="93.02" y2="70.16" xlink:href="#linear-gradient-43"/><linearGradient id="linear-gradient-57" x1="105.02" y1="80.81" x2="105.02" y2="70.16" xlink:href="#linear-gradient-43"/><linearGradient id="linear-gradient-58" x1="47.91" y1="96.68" x2="47.91" y2="85.55" xlink:href="#linear-gradient-43"/><linearGradient id="linear-gradient-59" x1="55.86" y1="96.68" x2="55.86" y2="85.55" xlink:href="#linear-gradient-43"/><linearGradient id="linear-gradient-60" x1="70.07" y1="96.68" x2="70.07" y2="85.55" xlink:href="#linear-gradient-43"/><linearGradient id="linear-gradient-61" x1="79.57" y1="96.68" x2="79.57" y2="85.55" xlink:href="#linear-gradient-43"/><linearGradient id="linear-gradient-62" x1="89.06" y1="96.68" x2="89.06" y2="85.55" xlink:href="#linear-gradient-43"/></defs><title>icon</title><g class="cls-1"><g id="Layer_1" data-name="Layer 1"><ellipse cx="69" cy="69.03" rx="57.5" ry="57.47" class="cls-2"/><path class="cls-3" d="M126.35 76.1l-.34.34v.09z"/><path class="cls-4" d="M109.66 109.62a58.09 58.09 0 0 0 4.18-4.66q-3.4 3.59-6.87 7.17c.91-.81 1.81-1.64 2.69-2.51z"/><path class="cls-5" d="M109.66 109.62a58.09 58.09 0 0 0 4.18-4.66q-3.4 3.59-6.87 7.17c.91-.81 1.81-1.64 2.69-2.51z"/><path class="cls-4" d="M36.37 116.3q1.14.79 2.3 1.51l-1.8-1.8z"/><path class="cls-5" d="M36.37 116.3q1.14.79 2.3 1.51l-1.8-1.8z"/><path class="cls-4" d="M55.83 13a57.28 57.28 0 0 0-10.67 3.63q-13.78 12.59-27.32 26.1a57.13 57.13 0 0 0-4.18 10.64A759.251 759.251 0 0 1 55.83 13z"/><path class="cls-5" d="M55.83 13a57.28 57.28 0 0 0-10.67 3.63q-13.78 12.59-27.32 26.1a57.13 57.13 0 0 0-4.18 10.64A759.251 759.251 0 0 1 55.83 13z"/><path class="cls-4" d="M28.34 28.33a57.46 57.46 0 0 0-9.78 13.06Q31 29 43.56 17.43a57.4 57.4 0 0 0-15.22 10.9z"/><path class="cls-5" d="M28.34 28.33a57.46 57.46 0 0 0-9.78 13.06Q31 29 43.56 17.43a57.4 57.4 0 0 0-15.22 10.9z"/><path class="cls-4" d="M23.17 53.18l37.3-37.29C52.39 22.53 43.3 30.45 32.06 41.2c-7.5 7.18-14.13 13.74-20 19.8-.17 1.22-.29 2.45-.38 3.68l11.5-11.49z"/><path class="cls-5" d="M23.17 53.18l37.3-37.29C52.39 22.53 43.3 30.45 32.06 41.2c-7.5 7.18-14.13 13.74-20 19.8-.17 1.22-.29 2.45-.38 3.68l11.5-11.49z"/><path class="cls-4" d="M32.64 40c12.92-12.36 23-21.08 31.91-28.32a57.7 57.7 0 0 0-7.55 1.1C44.88 23.33 29.66 37.4 13.41 54.3a57.51 57.51 0 0 0-1.24 6q9.22-9.52 20.47-20.3z"/><path class="cls-5" d="M32.64 40c12.92-12.36 23-21.08 31.91-28.32a57.7 57.7 0 0 0-7.55 1.1C44.88 23.33 29.66 37.4 13.41 54.3a57.51 57.51 0 0 0-1.24 6q9.22-9.52 20.47-20.3z"/><path class="cls-4" d="M123.53 87.21c-3.3 3.66-6.75 7.43-10.14 11.11-3.74 4-7.62 8.13-11 11.75q-3.79 4-7.33 7.62l-4.54 4.61a57.12 57.12 0 0 0 13.39-7.64q6.31-6.47 12.42-13a57 57 0 0 0 7.2-14.45z"/><path class="cls-5" d="M123.53 87.21c-3.3 3.66-6.75 7.43-10.14 11.11-3.74 4-7.62 8.13-11 11.75q-3.79 4-7.33 7.62l-4.54 4.61a57.12 57.12 0 0 0 13.39-7.64q6.31-6.47 12.42-13a57 57 0 0 0 7.2-14.45z"/><path class="cls-4" d="M20.15 99.29a57.54 57.54 0 0 0 7.22 9.31q.36-.74.67-1.43z"/><path class="cls-5" d="M20.15 99.29a57.54 57.54 0 0 0 7.22 9.31q.36-.74.67-1.43z"/><path class="cls-4" d="M91.21 116.21c2-2.19 4.06-4.42 6-6.64q14-15.85 25.84-30.22l-29.69 29.73q-2.38 2.64-4.72 5.13l-.74.79-.74.67-3.94 3.56-6.74 6.77a57.61 57.61 0 0 0 6.8-1.3c2.65-2.73 5.27-5.5 7.77-8.27z"/><path class="cls-5" d="M91.21 116.21c2-2.19 4.06-4.42 6-6.64q14-15.85 25.84-30.22l-29.69 29.73q-2.38 2.64-4.72 5.13l-.74.79-.74.67-3.94 3.56-6.74 6.77a57.61 57.61 0 0 0 6.8-1.3c2.65-2.73 5.27-5.5 7.77-8.27z"/><path class="cls-4" d="M101 110.83c3.45-3.65 7.1-7.52 10.64-11.32C115.77 95 120 90.34 123.93 86a57.5 57.5 0 0 0 2-9q-12 14.6-26.4 30.87c-2.18 2.43-4.32 4.77-6.45 7.08a354.5 354.5 0 0 1-8.94 9.52q2.69-.73 5.31-1.73 2.32-2.34 4.7-4.78c2.19-2.29 4.51-4.69 6.85-7.13z"/><path class="cls-5" d="M101 110.83c3.45-3.65 7.1-7.52 10.64-11.32C115.77 95 120 90.34 123.93 86a57.5 57.5 0 0 0 2-9q-12 14.6-26.4 30.87c-2.18 2.43-4.32 4.77-6.45 7.08a354.5 354.5 0 0 1-8.94 9.52q2.69-.73 5.31-1.73 2.32-2.34 4.7-4.78c2.19-2.29 4.51-4.69 6.85-7.13z"/><path class="cls-4" d="M29.21 108.35q-.39.65-.82 1.33a58 58 0 0 0 6.61 5.64l.81-.41z"/><path class="cls-5" d="M29.21 108.35q-.39.65-.82 1.33a58 58 0 0 0 6.61 5.64l.81-.41z"/><path class="cls-6" d="M28.87 108q-.37.66-.78 1.35l.25.26.06.06q.43-.68.82-1.33zM36.53 115.66l-.59.33.43.3.5-.29zM35.78 114.92l-.81.41.5.35.69-.37zM28 107.17q-.3.69-.67 1.43l.39.41c.26-.47.51-.93.73-1.38z"/><path class="cls-3" d="M36.17 115.3l-.69.37.46.32.59-.33zM28.48 107.62c-.23.45-.47.91-.73 1.38l.34.36q.41-.69.78-1.35z"/><path class="cls-6" d="M88.15 114.49l-.25.26-.25.22-2.06 1.85-2.39 2.39 3.94-3.56.74-.67.74-.79q2.35-2.49 4.72-5.13l-2.43 2.43c-.91 1.04-1.84 2.03-2.76 3z"/><path class="cls-3" d="M87.9 114.76l.25-.26c.92-1 1.84-2 2.78-3l-5.32 5.32 2.05-1.82z"/><path class="cls-6" d="M99.54 107.82q14.35-16.24 26.4-30.82v-.41q-12.36 15-27.25 31.9c-2.1 2.34-4.23 4.67-6.34 7-2.71 3-5.59 6.07-8.54 9.1l.29-.08c3.07-3.16 6.08-6.35 8.94-9.52 2.18-2.4 4.32-4.75 6.5-7.17zM32.06 41.2C43.3 30.45 52.39 22.53 60.49 15.88l1.61-1.61C53.67 21.16 44.17 29.4 32.25 40.8 24.72 48 18 54.62 12.08 60.75V61c5.85-6.06 12.48-12.62 19.98-19.8z"/><path class="cls-6" d="M32.44 40.41C45 28.35 55 19.79 63.72 12.65l1-1h-.16c-8.9 7.24-19 16-31.91 28.32q-11.26 10.8-20.48 20.28v.26q9.07-9.37 20.27-20.1zM98 109q14.55-16.47 26.73-31.29l-1.62 1.62q-11.8 14.32-25.84 30.22c-2 2.21-4 4.45-6 6.64l-.16.17c-2.5 2.77-5.12 5.54-7.77 8.27l.29-.08c2.8-2.88 5.56-5.81 8.19-8.72q3.12-3.42 6.18-6.83z"/><path class="cls-3" d="M32.25 40.8C44.17 29.4 53.67 21.16 62.1 14.27l1.62-1.62C55 19.79 45 28.35 32.44 40.41q-11.2 10.72-20.32 20.1v.24C18 54.62 24.72 48 32.25 40.8zM98.75 108.43Q113.61 91.62 126 76.54v-.09l-1.28 1.28Q112.57 92.52 98 109q-3 3.39-6.23 6.84c-2.63 2.91-5.39 5.83-8.19 8.72l.3-.08c2.95-3 5.83-6.1 8.54-9.1 2.1-2.27 4.22-4.6 6.33-6.95z"/><path class="cls-6" d="M101.41 110.61c3.53-3.73 7.2-7.62 10.77-11.46 3.9-4.24 7.9-8.61 11.61-12.75l.13-.42c-3.9 4.37-8.16 9-12.31 13.54-3.53 3.8-7.19 7.66-10.64 11.32-2.32 2.44-4.63 4.84-6.81 7.08q-2.39 2.44-4.7 4.78l.34-.13 4.63-4.7c2.26-2.34 4.57-4.78 6.98-7.26z"/><path class="cls-6" d="M102.34 110.08c3.43-3.63 7.31-7.74 11-11.75 3.39-3.68 6.84-7.45 10.14-11.11l.13-.41c-3.51 3.91-7.24 8-10.89 11.94s-7.5 8-10.91 11.61c-2.43 2.55-4.83 5-7.15 7.43l-4.57 4.65.34-.13 4.57-4.62 7.34-7.61zM56.2 12.94l-.37.08c-12 10.56-26.54 24.17-42.17 40.34l-.08.31A736.32 736.32 0 0 1 56.2 12.94z"/><path class="cls-6" d="M57 12.78l-.38.08c-12 10.56-27 24.47-43.09 41.12l-.08.31C29.66 37.4 44.88 23.33 57 12.78z"/><path class="cls-3" d="M56.58 12.86l-.37.08c-12 10.56-26.78 24.31-42.63 40.73l-.08.31a713.917 713.917 0 0 1 43.08-41.12zM101.86 110.36c3.41-3.61 7.27-7.69 10.91-11.61s7.38-8 10.89-11.94l.13-.41c-3.71 4.15-7.71 8.52-11.61 12.75-3.58 3.84-7.25 7.73-10.77 11.46a729.67 729.67 0 0 1-7 7.25l-4.63 4.7.34-.13 4.57-4.65c2.31-2.38 4.74-4.87 7.17-7.42z"/><path class="cls-6" d="M43.56 17.43q-12.51 11.52-25 24l-.26.47q12.85-12.8 25.79-24.68z"/><path class="cls-6" d="M44.66 16.89Q31.25 29.14 18 42.32l-.2.41q13.54-13.49 27.37-26.07zM105.7 113.21c.43-.35.85-.72 1.26-1.08q3.47-3.58 6.87-7.17c.33-.41.64-.82 1-1.24q-4.52 4.76-9.13 9.49zM116.29 101.66q-6.11 6.53-12.42 13l.85-.66q5.53-5.68 10.91-11.4c.22-.3.44-.6.66-.94z"/><path class="cls-3" d="M44.08 17.17Q31.17 29 18.29 41.86l-.25.46q13.18-13.15 26.62-25.43zM115.62 102.61q-5.37 5.72-10.91 11.4l1-.79q4.6-4.73 9.09-9.49c.27-.38.55-.73.82-1.12z"/><path class="cls-4" d="M60.49 15.88l-37.3 37.29 38-37.84z"/><path class="cls-5" d="M60.49 15.88l-37.3 37.29 38-37.84z"/><path class="cls-4" d="M18.23 58.5l.47-.5 4.47-4.85-11.5 11.53v.06z"/><path class="cls-5" d="M18.23 58.5l.47-.5 4.47-4.85-11.5 11.53v.06z"/><path class="cls-6" d="M18.7 58l-.47.47.27-.26zM62.81 13.69l-.71.58-1.61 1.61.68-.56zM63.72 12.65l.73-.59.4-.4h-.15z"/><path class="cls-3" d="M64.45 12.06l-.73.59-1.62 1.62.71-.58z"/><path class="cls-4" d="M23.17 53.18l.02-.01-.02.01z"/><path class="cls-7" d="M23.17 53.18l.02-.01-.02.01z"/><path class="cls-4" d="M98.88 75.56c-2 2.65-4.21 5.38-6.65 8.36s-5.16 6.21-8 9.5l-.85 1-1.13 1c-2.48 2.27-5 4.46-7.78 6.68l-.14.11q-14.76 11.23-27 20c1.57.64 3.16 1.19 4.76 1.69l10.2-7.51c5.81-4.28 11.82-8.7 17.7-13a143.2 143.2 0 0 0 5-4.14c7.52-8.83 14.07-17 19.46-24.2 1.81-2.43 3.44-4.69 5-6.9 4.14-5.8 6.25-9.25 6.64-10.86.16-2.28 1.67-5.74 3.13-9.08v-.05l1.29-2.27.67-1.17a52.33 52.33 0 0 0-2.08-4c-3.2 9-9.68 20.19-20.1 34.74z"/><path class="cls-5" d="M98.88 75.56c-2 2.65-4.21 5.38-6.65 8.36s-5.16 6.21-8 9.5l-.85 1-1.13 1c-2.48 2.27-5 4.46-7.78 6.68l-.14.11q-14.76 11.23-27 20c1.57.64 3.16 1.19 4.76 1.69l10.2-7.51c5.81-4.28 11.82-8.7 17.7-13a143.2 143.2 0 0 0 5-4.14c7.52-8.83 14.07-17 19.46-24.2 1.81-2.43 3.44-4.69 5-6.9 4.14-5.8 6.25-9.25 6.64-10.86.16-2.28 1.67-5.74 3.13-9.08v-.05l1.29-2.27.67-1.17a52.33 52.33 0 0 0-2.08-4c-3.2 9-9.68 20.19-20.1 34.74z"/><path class="cls-4" d="M117.58 74.27c-5.58 7.15-12 15.22-19.76 24.73l-.22.27-.33.35c-5 5.42-10.07 10.53-15.08 15.17l-.37.35-.29.24q-7 5.74-13.65 11.08a57.87 57.87 0 0 0 6.62-.24q2.67-2.33 5.39-4.72c2.6-2.3 5.29-4.71 8-7.17 1.45-1.55 3-3.21 4.51-4.94 13.72-15.23 24.9-28.48 34.09-40.42a57.78 57.78 0 0 0-.32-6c-.95 1.26-1.93 2.55-3 3.89-1.67 2.31-3.58 4.81-5.59 7.41z"/><path class="cls-5" d="M117.58 74.27c-5.58 7.15-12 15.22-19.76 24.73l-.22.27-.33.35c-5 5.42-10.07 10.53-15.08 15.17l-.37.35-.29.24q-7 5.74-13.65 11.08a57.87 57.87 0 0 0 6.62-.24q2.67-2.33 5.39-4.72c2.6-2.3 5.29-4.71 8-7.17 1.45-1.55 3-3.21 4.51-4.94 13.72-15.23 24.9-28.48 34.09-40.42a57.78 57.78 0 0 0-.32-6c-.95 1.26-1.93 2.55-3 3.89-1.67 2.31-3.58 4.81-5.59 7.41z"/><path class="cls-4" d="M93.36 109.08l29.74-29.73 3-3.66q.32-2.72.38-5.46c-8.82 11.19-19.31 23.52-31.85 37.44z"/><path class="cls-5" d="M93.36 109.08l29.74-29.73 3-3.66q.32-2.72.38-5.46c-8.82 11.19-19.31 23.52-31.85 37.44z"/><path class="cls-4" d="M11.67 64.73v.59q3-3.22 6.6-6.82z"/><path class="cls-5" d="M11.67 64.73v.59q3-3.22 6.6-6.82z"/><path class="cls-4" d="M112.78 65c-1.56 2.24-3.23 4.55-5.09 7-5.77 7.75-12.84 16.52-21 26.06l-.87 1-1.17 1.07a133.14 133.14 0 0 1-7.51 6.36l-.14.1c-5.89 4.3-11.91 8.74-17.74 13l-6.12 4.5a57.54 57.54 0 0 0 5.9 1.35q4-2.91 8.22-6c5.3-3.93 10.21-7.64 15-11.34a121.87 121.87 0 0 0 10.54-9.85c4.5-5.69 8.72-11.19 12.54-16.34s7.22-9.9 10.41-14.55c1.52-2.22 3-4.43 4.42-6.57l.05-.08a64.6 64.6 0 0 0 4.32-6.72A57.21 57.21 0 0 0 122 46.6c-1.15 2.68-2.16 5.28-2.28 7.1-.45 1.73-2.65 5.3-6.94 11.3z"/><path class="cls-5" d="M112.78 65c-1.56 2.24-3.23 4.55-5.09 7-5.77 7.75-12.84 16.52-21 26.06l-.87 1-1.17 1.07a133.14 133.14 0 0 1-7.51 6.36l-.14.1c-5.89 4.3-11.91 8.74-17.74 13l-6.12 4.5a57.54 57.54 0 0 0 5.9 1.35q4-2.91 8.22-6c5.3-3.93 10.21-7.64 15-11.34a121.87 121.87 0 0 0 10.54-9.85c4.5-5.69 8.72-11.19 12.54-16.34s7.22-9.9 10.41-14.55c1.52-2.22 3-4.43 4.42-6.57l.05-.08a64.6 64.6 0 0 0 4.32-6.72A57.21 57.21 0 0 0 122 46.6c-1.15 2.68-2.16 5.28-2.28 7.1-.45 1.73-2.65 5.3-6.94 11.3z"/><path class="cls-4" d="M119.18 64.3C115.95 69 112.4 74 108.64 79c-4 5.34-8.35 11-13 17l-.28.36-.48.52a168.39 168.39 0 0 1-15.13 14.3l-.2.16c-4.87 3.77-9.86 7.54-15.24 11.53l-4 2.93a57.78 57.78 0 0 0 6.44.61c5.56-4.39 11.2-8.94 17-13.72 3.74-3.49 7.56-7.34 11.37-11.46C102.66 92 109 84.09 114.38 77.11c2-2.56 3.87-5 5.59-7.32q3.32-4.32 6.06-8.06a57.55 57.55 0 0 0-1.03-5.95c-.41.61-.86 1.24-1.34 1.91-1.45 2.16-2.95 4.38-4.48 6.61z"/><path class="cls-5" d="M119.18 64.3C115.95 69 112.4 74 108.64 79c-4 5.34-8.35 11-13 17l-.28.36-.48.52a168.39 168.39 0 0 1-15.13 14.3l-.2.16c-4.87 3.77-9.86 7.54-15.24 11.53l-4 2.93a57.78 57.78 0 0 0 6.44.61c5.56-4.39 11.2-8.94 17-13.72 3.74-3.49 7.56-7.34 11.37-11.46C102.66 92 109 84.09 114.38 77.11c2-2.56 3.87-5 5.59-7.32q3.32-4.32 6.06-8.06a57.55 57.55 0 0 0-1.03-5.95c-.41.61-.86 1.24-1.34 1.91-1.45 2.16-2.95 4.38-4.48 6.61z"/><path class="cls-4" d="M29.86 65.68c15.54-14.33 26.93-23.34 36.5-30.09a57.27 57.27 0 0 1-9.09 3.9 49.43 49.43 0 0 0-19.58 11.7c-2.18 2-4.55 4.46-7.24 7.46-7.24 8.08-13.12 15-17.94 21 .3 1.6.68 3.2 1.12 4.77a89.75 89.75 0 0 1 9.32-11.89c2.16-2.32 4.49-4.63 6.91-6.85z"/><path class="cls-5" d="M29.86 65.68c15.54-14.33 26.93-23.34 36.5-30.09a57.27 57.27 0 0 1-9.09 3.9 49.43 49.43 0 0 0-19.58 11.7c-2.18 2-4.55 4.46-7.24 7.46-7.24 8.08-13.12 15-17.94 21 .3 1.6.68 3.2 1.12 4.77a89.75 89.75 0 0 1 9.32-11.89c2.16-2.32 4.49-4.63 6.91-6.85z"/><path class="cls-4" d="M32.57 68.86c-1.38 1.44-6.31 6.93-12 17.29q-1.76 3.35-3.74 7a56.85 56.85 0 0 0 2.12 4.1c4-7 10-15.91 19.72-28l1.22-1.52 1.6-1.31C76.37 37.94 89.59 34.51 99.23 32a18.74 18.74 0 0 1 2.36-.08 9.65 9.65 0 0 1 6.58 2.46l.42.32a9.64 9.64 0 0 0 .79.57l.15.7a20.06 20.06 0 0 1-.13 10.72 34.3 34.3 0 0 1-1.18 3.48c-3 6.74-8.7 17.17-26.17 38.28l-.66.79-1.06 1a133.77 133.77 0 0 1-8.68 7.64l-.1.08c-11.06 8.59-21 15.85-29.6 21.69 1.42.76 2.86 1.44 4.32 2.07Q60 112.09 77.17 99c1.9-1.54 3.69-3.05 5.34-4.52 2.39-2.79 4.67-5.5 6.77-8.06 2.32-2.83 4.4-5.44 6.34-8 11.81-16.51 18.49-28.64 21-38.17l.26-1 .42-1.52a57.3 57.3 0 0 0-15.11-15.76c-12.5 4.05-31.21 14-67.77 45a22.37 22.37 0 0 0-1.85 1.89z"/><path class="cls-5" d="M32.57 68.86c-1.38 1.44-6.31 6.93-12 17.29q-1.76 3.35-3.74 7a56.85 56.85 0 0 0 2.12 4.1c4-7 10-15.91 19.72-28l1.22-1.52 1.6-1.31C76.37 37.94 89.59 34.51 99.23 32a18.74 18.74 0 0 1 2.36-.08 9.65 9.65 0 0 1 6.58 2.46l.42.32a9.64 9.64 0 0 0 .79.57l.15.7a20.06 20.06 0 0 1-.13 10.72 34.3 34.3 0 0 1-1.18 3.48c-3 6.74-8.7 17.17-26.17 38.28l-.66.79-1.06 1a133.77 133.77 0 0 1-8.68 7.64l-.1.08c-11.06 8.59-21 15.85-29.6 21.69 1.42.76 2.86 1.44 4.32 2.07Q60 112.09 77.17 99c1.9-1.54 3.69-3.05 5.34-4.52 2.39-2.79 4.67-5.5 6.77-8.06 2.32-2.83 4.4-5.44 6.34-8 11.81-16.51 18.49-28.64 21-38.17l.26-1 .42-1.52a57.3 57.3 0 0 0-15.11-15.76c-12.5 4.05-31.21 14-67.77 45a22.37 22.37 0 0 0-1.85 1.89z"/><path class="cls-4" d="M23.19 53.17L18.7 58c3-3 6.28-6.27 9.9-9.76 18.56-17.88 32.18-28.82 43.15-36.68a57.89 57.89 0 0 0-6 0q-2.26 1.8-4.62 3.73z"/><path class="cls-5" d="M23.19 53.17L18.7 58c3-3 6.28-6.27 9.9-9.76 18.56-17.88 32.18-28.82 43.15-36.68a57.89 57.89 0 0 0-6 0q-2.26 1.8-4.62 3.73z"/><path class="cls-4" d="M78.47 84.42c20-24.55 17-27.9 14.08-31.14a8 8 0 0 1-1.68-2.42 5.41 5.41 0 0 0-.4-.46 3.54 3.54 0 0 0-.78-.6c-1.13-.81-2.94-.88-5.4-.2a24.82 24.82 0 0 0-2.76.88 37.25 37.25 0 0 1-8.89 4c-5.69 1.87-11.06 3.65-25 17.94C33.62 87 33.88 90.34 34.17 93.9a10.61 10.61 0 0 1-1.22 6.45c-.22.65-.48 1.37-.8 2.15a37.16 37.16 0 0 1-2.93 5.85l6.57 6.57c8.6-4.46 21.63-13.37 38.16-26.19 1.65-1.46 3.14-2.88 4.52-4.31zm-7.92-1l-.5.43c-19.73 16.85-33.37 25.94-35.58 23.72-.5-.5-.4-1.57.3-3.18a64.42 64.42 0 0 1 3.53-5.51c1.09-1.55 2.36-3.29 3.79-5.18 1.32-1.79 2.8-3.7 4.4-5.7 1.62-2.38 4.19-5.48 6.66-8.48 1.28-1.54 2.48-3 3.54-4.34L58 73.53l1.63-1.29c2.41-1.91 4.44-3.37 6.4-4.78 1.44-1 2.93-2.11 4.53-3.33l.14-.1c1.58-1.09 3-2 4.34-2.81a35 35 0 0 1 3.46-1.85 9.81 9.81 0 0 1 3.3-1 2.76 2.76 0 0 1 1.9.71c1.54 1.53.68 5.57-2.54 12l-.07.11a76.41 76.41 0 0 1-9.89 11.6z"/><path class="cls-8" d="M78.47 84.42c20-24.55 17-27.9 14.08-31.14a8 8 0 0 1-1.68-2.42 5.41 5.41 0 0 0-.4-.46 3.54 3.54 0 0 0-.78-.6c-1.13-.81-2.94-.88-5.4-.2a24.82 24.82 0 0 0-2.76.88 37.25 37.25 0 0 1-8.89 4c-5.69 1.87-11.06 3.65-25 17.94C33.62 87 33.88 90.34 34.17 93.9a10.61 10.61 0 0 1-1.22 6.45c-.22.65-.48 1.37-.8 2.15a37.16 37.16 0 0 1-2.93 5.85l6.57 6.57c8.6-4.46 21.63-13.37 38.16-26.19 1.65-1.46 3.14-2.88 4.52-4.31zm-7.92-1l-.5.43c-19.73 16.85-33.37 25.94-35.58 23.72-.5-.5-.4-1.57.3-3.18a64.42 64.42 0 0 1 3.53-5.51c1.09-1.55 2.36-3.29 3.79-5.18 1.32-1.79 2.8-3.7 4.4-5.7 1.62-2.38 4.19-5.48 6.66-8.48 1.28-1.54 2.48-3 3.54-4.34L58 73.53l1.63-1.29c2.41-1.91 4.44-3.37 6.4-4.78 1.44-1 2.93-2.11 4.53-3.33l.14-.1c1.58-1.09 3-2 4.34-2.81a35 35 0 0 1 3.46-1.85 9.81 9.81 0 0 1 3.3-1 2.76 2.76 0 0 1 1.9.71c1.54 1.53.68 5.57-2.54 12l-.07.11a76.41 76.41 0 0 1-9.89 11.6z"/><path class="cls-4" d="M78.07 123.81l-2.57 2.26 1-.12 6.74-6.73c-1.77 1.56-3.49 3.1-5.17 4.59z"/><path class="cls-5" d="M78.07 123.81l-2.57 2.26 1-.12 6.74-6.73c-1.77 1.56-3.49 3.1-5.17 4.59z"/><path class="cls-4" d="M11.57 66.1c-.08 1.71-.09 3.41 0 5.12 5-5.62 11-11.91 18.5-19.1 31.53-30.37 46.61-37.35 50.2-33.77a2.94 2.94 0 0 1 .73 1.57v.38c.49.49 3.58-1.54 8-5.2a57.54 57.54 0 0 0-15.79-3.45C62 19.45 47.92 30.26 28.18 49.32c-6.69 6.44-12.12 11.95-16.61 16.78z"/><path class="cls-5" d="M11.57 66.1c-.08 1.71-.09 3.41 0 5.12 5-5.62 11-11.91 18.5-19.1 31.53-30.37 46.61-37.35 50.2-33.77a2.94 2.94 0 0 1 .73 1.57v.38c.49.49 3.58-1.54 8-5.2a57.54 57.54 0 0 0-15.79-3.45C62 19.45 47.92 30.26 28.18 49.32c-6.69 6.44-12.12 11.95-16.61 16.78z"/><path class="cls-4" d="M77.41 24a.47.47 0 0 1-.05-.44 2.89 2.89 0 0 0-.77-1.56c-3.47-3.46-17.64 2.91-47 31.2-7.39 7.11-13.24 13.31-18 18.86a57.69 57.69 0 0 0 .76 6.69C16.8 73.34 22 67.26 28.23 60.34c3.68-4.11 7.26-7.78 10.63-10.9C49 40 54.73 38 60.8 35.85a50.89 50.89 0 0 0 11.25-5.19 205.9 205.9 0 0 0 19.41-14.6q-.84-.35-1.68-.68C83 21.21 78.08 24.65 77.41 24z"/><path class="cls-5" d="M77.41 24a.47.47 0 0 1-.05-.44 2.89 2.89 0 0 0-.77-1.56c-3.47-3.46-17.64 2.91-47 31.2-7.39 7.11-13.24 13.31-18 18.86a57.69 57.69 0 0 0 .76 6.69C16.8 73.34 22 67.26 28.23 60.34c3.68-4.11 7.26-7.78 10.63-10.9C49 40 54.73 38 60.8 35.85a50.89 50.89 0 0 0 11.25-5.19 205.9 205.9 0 0 0 19.41-14.6q-.84-.35-1.68-.68C83 21.21 78.08 24.65 77.41 24z"/><path class="cls-4" d="M74.3 94.87c2-1.64 3.88-3.24 5.55-4.79 16.39-19.89 21.82-29.89 24.72-36.38a33.71 33.71 0 0 0 1.16-3.43 19.94 19.94 0 0 0 .13-10.66l-.14-.68c-.28-.18-.53-.37-.78-.57l-.42-.32A9.6 9.6 0 0 0 98 35.59a18.84 18.84 0 0 0-2.32.08c-9.41 2.43-22.21 5.75-55.16 32.43-11.14 14.06-17.16 23.53-20.66 30.72l.29.46 7.85 7.89c.17-.39.33-.78.47-1.15.32-.79.57-1.49.8-2.15a10.38 10.38 0 0 0 1.18-6.31c-.29-3.62-.58-7.37 16.2-24.77 17.51-18 23.6-20 29.49-21.94a36.41 36.41 0 0 0 8.72-3.89l.11-.06a25.35 25.35 0 0 1 2.84-.91c2.49-.69 4.33-.62 5.48.21a3.58 3.58 0 0 1 .78.6 5.29 5.29 0 0 1 .41.47 7.84 7.84 0 0 0 1.67 2.41c3 3.32 6.06 6.75-15.09 32.65l-.31.39-.5.53c-2.71 2.85-5.58 5.61-8.54 8.2l-.25.22-.19.15C57.12 102.78 45.45 111 36.87 116l1.8 1.8q1.08.67 2.18 1.29c9.45-6.18 20.68-14.3 33.45-24.22z"/><path class="cls-5" d="M74.3 94.87c2-1.64 3.88-3.24 5.55-4.79 16.39-19.89 21.82-29.89 24.72-36.38a33.71 33.71 0 0 0 1.16-3.43 19.94 19.94 0 0 0 .13-10.66l-.14-.68c-.28-.18-.53-.37-.78-.57l-.42-.32A9.6 9.6 0 0 0 98 35.59a18.84 18.84 0 0 0-2.32.08c-9.41 2.43-22.21 5.75-55.16 32.43-11.14 14.06-17.16 23.53-20.66 30.72l.29.46 7.85 7.89c.17-.39.33-.78.47-1.15.32-.79.57-1.49.8-2.15a10.38 10.38 0 0 0 1.18-6.31c-.29-3.62-.58-7.37 16.2-24.77 17.51-18 23.6-20 29.49-21.94a36.41 36.41 0 0 0 8.72-3.89l.11-.06a25.35 25.35 0 0 1 2.84-.91c2.49-.69 4.33-.62 5.48.21a3.58 3.58 0 0 1 .78.6 5.29 5.29 0 0 1 .41.47 7.84 7.84 0 0 0 1.67 2.41c3 3.32 6.06 6.75-15.09 32.65l-.31.39-.5.53c-2.71 2.85-5.58 5.61-8.54 8.2l-.25.22-.19.15C57.12 102.78 45.45 111 36.87 116l1.8 1.8q1.08.67 2.18 1.29c9.45-6.18 20.68-14.3 33.45-24.22z"/><path class="cls-4" d="M78.17 62A9.46 9.46 0 0 0 75 63a33.61 33.61 0 0 0-3.32 1.77c-1.23.74-2.61 1.63-4.1 2.65-1.67 1.27-3.18 2.36-4.64 3.41S60 73 58.41 74.16L56.06 77c-2.44 3-4.75 5.75-6.18 7.86l-.16.22c-1.59 2-3.05 3.9-4.34 5.62s-2.6 3.49-3.64 5a61.64 61.64 0 0 0-3.34 5.22c-.65 1.53-.74 2.54-.27 3 2.07 2.07 15.23-6.66 33.58-22.27a51 51 0 0 0 5.86-7.16c4.02-8.09 4.23-12.3.6-12.49z"/><path class="cls-5" d="M78.17 62A9.46 9.46 0 0 0 75 63a33.61 33.61 0 0 0-3.32 1.77c-1.23.74-2.61 1.63-4.1 2.65-1.67 1.27-3.18 2.36-4.64 3.41S60 73 58.41 74.16L56.06 77c-2.44 3-4.75 5.75-6.18 7.86l-.16.22c-1.59 2-3.05 3.9-4.34 5.62s-2.6 3.49-3.64 5a61.64 61.64 0 0 0-3.34 5.22c-.65 1.53-.74 2.54-.27 3 2.07 2.07 15.23-6.66 33.58-22.27a51 51 0 0 0 5.86-7.16c4.02-8.09 4.23-12.3.6-12.49z"/><path class="cls-4" d="M28.55 67.55c-1.42 1.3-2.62 2.49-3.81 3.78a78.48 78.48 0 0 0-10.62 14.81q.82 2.63 1.9 5.2l.98-1.77c6.57-11.94 12.47-18.1 14.41-20.12a70.91 70.91 0 0 1 5.4-5.11C68.83 37.12 87.37 25.81 100 20.56a60.47 60.47 0 0 0-4.31-2.52c-5 3.36-9.59 6.21-14.07 9-14.29 8.85-27.79 17.22-53.07 40.51z"/><path class="cls-5" d="M28.55 67.55c-1.42 1.3-2.62 2.49-3.81 3.78a78.48 78.48 0 0 0-10.62 14.81q.82 2.63 1.9 5.2l.98-1.77c6.57-11.94 12.47-18.1 14.41-20.12a70.91 70.91 0 0 1 5.4-5.11C68.83 37.12 87.37 25.81 100 20.56a60.47 60.47 0 0 0-4.31-2.52c-5 3.36-9.59 6.21-14.07 9-14.29 8.85-27.79 17.22-53.07 40.51z"/><path class="cls-4" d="M84.92 23.5c3.11-1.93 6.27-3.89 9.59-6q-1.18-.58-2.38-1.11c-6 5-11.12 9.09-15.42 12.3 2.81-1.84 5.52-3.52 8.21-5.19z"/><path class="cls-5" d="M84.92 23.5c3.11-1.93 6.27-3.89 9.59-6q-1.18-.58-2.38-1.11c-6 5-11.12 9.09-15.42 12.3 2.81-1.84 5.52-3.52 8.21-5.19z"/><path class="cls-6" d="M81.14 71.08c3.22-6.43 4.07-10.46 2.54-12a2.76 2.76 0 0 0-1.9-.71 9.81 9.81 0 0 0-3.3 1A35 35 0 0 0 75 61.22a80.4 80.4 0 0 0-4.34 2.81l-.14.1C69 65.35 67.46 66.42 66 67.46c-2 1.41-4 2.87-6.4 4.78L58 73.53l-1.29 1.63c-1.06 1.34-2.27 2.8-3.54 4.34-2.48 3-5 6.1-6.66 8.48-1.6 2-3.07 3.94-4.38 5.67-1.42 1.89-2.7 3.62-3.79 5.18a64.42 64.42 0 0 0-3.53 5.51c-.69 1.62-.79 2.69-.3 3.18 2.21 2.21 15.85-6.88 35.58-23.72l.5-.43.63-.62a76.41 76.41 0 0 0 9.89-11.6zm-10 11.52l-.14.2-.17.14c-19.47 16.62-32.91 25.58-35.1 23.4-.49-.49-.39-1.54.29-3.13a63.2 63.2 0 0 1 3.48-5.44c1.07-1.52 2.33-3.24 3.74-5.1S46 89 47.6 87c1.56-2.29 4.08-5.35 6.52-8.3 1.3-1.57 2.52-3 3.61-4.42l.43-.54.54-.43c2.35-1.86 4.35-3.3 6.29-4.69 1.46-1 3-2.13 4.59-3.37s3-2 4.33-2.81a34.51 34.51 0 0 1 3.41-1.82 9.68 9.68 0 0 1 3.26-1c3.7.16 3.47 4.43-.64 12.64a67.25 67.25 0 0 1-8.78 10.34z"/><path class="cls-6" d="M79.37 60.81a9.56 9.56 0 0 0-3.22 1 34 34 0 0 0-3.36 1.8c-1.27.76-2.69 1.68-4.22 2.73-1.57 1.22-3.13 2.31-4.57 3.37-1.76 1.27-3.58 2.57-5.64 4.19-1 1.27-2.14 2.63-3.23 4-2.4 2.9-4.87 5.89-6.36 8.1l-.05.07c-1.61 2-3.08 3.95-4.39 5.68s-2.63 3.54-3.69 5a62.35 62.35 0 0 0-3.41 5.34c-.66 1.55-.76 2.58-.28 3.06 2.15 2.15 15.34-6.63 34.45-22.93a58.38 58.38 0 0 0 7.41-8.86c4-8.13 4.19-12.36.56-12.55zm-1.82 13.67a51 51 0 0 1-5.86 7.16C53.34 97.26 40.19 106 38.12 103.92c-.47-.47-.38-1.48.27-3a61.64 61.64 0 0 1 3.34-5.22c1-1.48 2.27-3.15 3.64-5s2.76-3.6 4.34-5.62l.16-.22c1.43-2.11 3.74-4.9 6.18-7.86l2.35-2.86c1.58-1.21 3-2.25 4.53-3.33s3-2.14 4.64-3.41c1.48-1 2.86-1.91 4.1-2.65A33.61 33.61 0 0 1 75 63a9.46 9.46 0 0 1 3.17-1c3.63.19 3.42 4.4-.62 12.48z"/><path class="cls-3" d="M80.58 59.59a9.68 9.68 0 0 0-3.26 1 34.51 34.51 0 0 0-3.41 1.82q-1.91 1.14-4.32 2.8C68 66.46 66.45 67.54 65 68.58c-1.94 1.39-3.94 2.83-6.29 4.69l-.54.43-.43.54c-1.09 1.38-2.31 2.86-3.61 4.42-2.44 3-5 6-6.52 8.3-1.61 2-3.09 4-4.4 5.69s-2.66 3.58-3.74 5.1a63.2 63.2 0 0 0-3.47 5.47c-.68 1.59-.78 2.64-.29 3.13 2.19 2.18 15.63-6.78 35.1-23.4l.19-.15.21-.21a67.25 67.25 0 0 0 8.78-10.37c4.01-8.22 4.28-12.47.59-12.63zm-1.82 13.75a58.38 58.38 0 0 1-7.41 8.86c-19.11 16.3-32.3 25.08-34.45 22.93-.48-.48-.38-1.52.28-3.06a62.35 62.35 0 0 1 3.41-5.34c1.06-1.5 2.3-3.2 3.69-5s2.78-3.64 4.39-5.68l.05-.07c1.49-2.2 4-5.2 6.36-8.1 1.09-1.32 2.22-2.69 3.23-4 2.08-1.6 3.9-2.88 5.69-4.17 1.47-1.06 3-2.15 4.61-3.39 1.53-1.06 2.95-2 4.22-2.73a34 34 0 0 1 3.36-1.8 9.56 9.56 0 0 1 3.22-1c3.59.21 3.4 4.44-.65 12.55z"/><path class="cls-6" d="M29.72 104.84c.32-.78.57-1.5.8-2.15a10.48 10.48 0 0 0 1.2-6.38c-.29-3.71-.57-7.22 15.34-23.72C63.34 55.87 69.27 53.91 75 52a36.68 36.68 0 0 0 8.8-3.93 24.54 24.54 0 0 1 2.86-.93c2.48-.69 4.31-.62 5.45.2a3.58 3.58 0 0 1 .78.6 5.26 5.26 0 0 1 .41.46 7.87 7.87 0 0 0 1.7 2.45c3 3.3 6 6.71-14.87 32.28l-.1.13-.17.18c-2.32 2.45-4.83 4.85-7.44 7.14l-.15.12c-15 11.61-27.09 20.06-35.73 25l.34.34c8.58-5 20.25-13.23 34.45-24.25l.19-.15.25-.22c3-2.59 5.83-5.35 8.54-8.2l.5-.53.31-.39c21.15-25.9 18.07-29.33 15.09-32.65a7.84 7.84 0 0 1-1.67-2.41 5.29 5.29 0 0 0-.41-.47 3.58 3.58 0 0 0-.78-.6c-1.14-.83-3-.89-5.48-.21a25.35 25.35 0 0 0-2.84.91l-.11.06a36.41 36.41 0 0 1-8.72 3.89c-5.89 1.94-12 3.95-29.49 21.94-16.79 17.39-16.5 21.13-16.21 24.76a10.38 10.38 0 0 1-1.18 6.31c-.22.65-.47 1.36-.8 2.15-.14.37-.3.76-.47 1.15l.45.45a29 29 0 0 0 1.22-2.74z"/><path class="cls-6" d="M79.23 83.85C99.74 58.72 96.7 55.34 93.77 52.06a8 8 0 0 1-1.68-2.42 5.33 5.33 0 0 0-.41-.46 3.54 3.54 0 0 0-.78-.6c-1.13-.82-3-.89-5.43-.2a25.1 25.1 0 0 0-2.81.9 36.75 36.75 0 0 1-8.84 4c-5.58 1.8-11.36 3.72-26.44 19.2s-14.73 19-14.44 22.63a10.54 10.54 0 0 1-1.22 6.42c-.22.64-.47 1.36-.8 2.14a33 33 0 0 1-2.05 4.33l.34.34a37.16 37.16 0 0 0 2.93-5.85c.32-.78.58-1.5.8-2.15a10.61 10.61 0 0 0 1.22-6.45c-.28-3.56-.55-6.93 13.51-21.51C61.59 58.1 67 56.33 72.65 54.46a37.25 37.25 0 0 0 8.89-4 24.82 24.82 0 0 1 2.76-.88c2.45-.68 4.27-.61 5.4.2a3.54 3.54 0 0 1 .78.6 5.41 5.41 0 0 1 .4.46 8 8 0 0 0 1.68 2.42c2.91 3.24 5.91 6.59-14.08 31.14a76.018 76.018 0 0 1-4.53 4.3c-16.53 12.82-29.56 21.74-38.16 26.19l.39.38c8.66-4.72 21.24-13.41 37-25.62 2.13-1.87 4.18-3.83 6.05-5.8z"/><path class="cls-3" d="M72.41 90.57c2.61-2.29 5.11-4.69 7.44-7.14l.17-.18.1-.13C101 57.55 97.95 54.14 95 50.85a7.87 7.87 0 0 1-1.67-2.41 5.26 5.26 0 0 0-.43-.44 3.58 3.58 0 0 0-.78-.6c-1.14-.82-3-.89-5.45-.2a24.54 24.54 0 0 0-2.86.93A36.68 36.68 0 0 1 75 52c-5.74 1.89-11.68 3.85-28 20.57-15.91 16.49-15.63 20-15.34 23.72a10.48 10.48 0 0 1-1.2 6.38c-.22.65-.48 1.37-.8 2.15a29 29 0 0 1-1.23 2.78l.39.39a33 33 0 0 0 2.06-4.34c.32-.79.58-1.5.8-2.14a10.54 10.54 0 0 0 1.22-6.42c-.29-3.64-.56-7.07 14.44-22.63s20.86-17.4 26.45-19.24a36.75 36.75 0 0 0 8.84-4 25.1 25.1 0 0 1 2.81-.9c2.47-.68 4.29-.61 5.43.2a3.54 3.54 0 0 1 .78.6 5.33 5.33 0 0 1 .41.46A8 8 0 0 0 93.74 52c2.94 3.27 6 6.65-14.54 31.79-1.88 2-3.92 3.92-6.09 5.83-15.73 12.2-28.31 20.9-37 25.62l.36.36c8.64-4.91 20.78-13.36 35.73-25z"/><path class="cls-6" d="M80.33 89.84c16.95-20.5 22.51-30.71 25.46-37.31a34 34 0 0 0 1.21-3.45 20 20 0 0 0 .13-10.68l-.14-.69a8.85 8.85 0 0 1-.79-.57l-.42-.32a9.62 9.62 0 0 0-6.55-2.46 18.8 18.8 0 0 0-2.33.08C87.33 36.91 74.3 40.3 40.3 68c-10.83 13.58-17 23.09-20.76 30.33l.32.51c3.5-7.19 9.52-16.67 20.66-30.73 33-26.67 45.76-30 55.13-32.43a18.84 18.84 0 0 1 2.35-.09 9.6 9.6 0 0 1 6.51 2.41l.42.32c.25.19.5.39.78.57l.14.68a19.94 19.94 0 0 1-.13 10.66 33.71 33.71 0 0 1-1.16 3.43c-2.9 6.49-8.34 16.49-24.72 36.38-1.67 1.55-3.53 3.16-5.55 4.79-12.77 9.92-24 18-33.45 24.23l.37.21c9.19-6.09 20-13.94 32.19-23.42 2.48-1.97 4.82-4 6.93-6.01z"/><path class="cls-6" d="M71.64 97.92c3.07-2.48 5.91-5 8.68-7.64l1.06-1 .66-.79c17.47-21.11 23.16-31.54 26.17-38.28a34.3 34.3 0 0 0 1.18-3.48 20.06 20.06 0 0 0 .13-10.73l-.15-.7a9.64 9.64 0 0 1-.79-.57l-.42-.32a9.65 9.65 0 0 0-6.58-2.46 18.74 18.74 0 0 0-2.36.08c-9.65 2.51-22.86 5.94-57.76 34.43l-1.6 1.31-1.22 1.52c-9.67 12.09-15.76 21-19.72 28l.28.51c3.89-7.17 10.1-16.47 20.46-29.41l.41-.51.53-.44C75.27 39.13 88.43 35.72 98 33.22a18.89 18.89 0 0 1 2.34-.08 9.64 9.64 0 0 1 6.56 2.46l.42.32a9.63 9.63 0 0 0 .79.57l.15.7a20 20 0 0 1-.13 10.7 34 34 0 0 1-1.13 3.47c-3 6.69-8.63 17-25.93 37.93l-.22.26-.36.34c-2.5 2.4-5.12 4.7-8 7-11.64 9-22 16.6-30.92 22.58l.35.2c8.63-5.84 18.54-13.1 29.6-21.69z"/><path class="cls-3" d="M80.5 89.9l.36-.34.22-.26C98.37 68.4 104 58 107 51.36a34 34 0 0 0 1.17-3.47 20 20 0 0 0 .13-10.7l-.15-.7a9.63 9.63 0 0 1-.79-.57l-.42-.32a9.64 9.64 0 0 0-6.56-2.46 18.89 18.89 0 0 0-2.34.08c-9.61 2.5-22.77 5.91-57.42 34.2l-.53.44-.41.51C29.33 81.3 23.12 90.6 19.23 97.77l.31.54C23.28 91.06 29.47 81.55 40.3 68c34-27.68 47-31.06 56.55-33.53a18.8 18.8 0 0 1 2.33-.08 9.62 9.62 0 0 1 6.55 2.46l.42.32a8.85 8.85 0 0 0 .79.57l.14.69a20 20 0 0 1-.08 10.65 34 34 0 0 1-1.17 3.45c-3 6.61-8.51 16.81-25.46 37.31-2.11 2-4.44 4-6.92 6-12.19 9.47-23 17.32-32.19 23.42l.36.2c8.92-6 19.29-13.54 30.92-22.58 2.84-2.29 5.46-4.58 7.96-6.98z"/><path class="cls-6" d="M116.64 40.31c-2.53 9.53-9.21 21.66-21 38.17-1.95 2.53-4 5.13-6.34 8-2.1 2.56-4.38 5.27-6.77 8.06-1.65 1.47-3.44 3-5.34 4.52q-17.16 13-30.91 22.73l.35.15q13.28-9.4 29.66-21.85c2.29-1.85 4.49-3.73 6.51-5.56 2.66-3.08 5.17-6.08 7.49-8.9s4.49-5.56 6.48-8.14c11.86-16.58 18.58-28.77 21.13-38.34l.08-.31c-.2-.33-.41-.66-.62-1l-.42 1.52zM32.17 69.06a90.1 90.1 0 0 0-12.81 18.23q-1.34 2.54-2.8 5.27c.09.2.17.4.26.6q2-3.66 3.74-7c5.7-10.36 10.64-15.85 12-17.29a22.37 22.37 0 0 1 1.89-1.76c36.56-31 55.26-41 67.77-45l-.78-.55C88.89 26 70.18 36.51 35.21 66.2a38 38 0 0 0-3.04 2.86z"/><path class="cls-6" d="M31.37 69.45c-1.94 2-7.83 8.18-14.41 20.12L16 91.34l.27.61 1.87-3.52a91.65 91.65 0 0 1 13.63-19.18 53.7 53.7 0 0 1 4.21-4C69.46 36.85 88.12 25.89 100.71 21l-.72-.46c-12.62 5.27-31.16 16.58-63.23 43.8a70.91 70.91 0 0 0-5.39 5.11zM91.24 84.76c-2.43 3-5.09 6.12-7.89 9.37l-.28.33-.38.34c-2.31 2.12-4.69 4.2-7.34 6.31Q59.75 113 47 122.07l.34.15q12.27-8.76 27-20l.14-.11c2.76-2.23 5.3-4.41 7.78-6.68l1.13-1 .85-1c2.84-3.3 5.54-6.49 8-9.5s4.62-5.71 6.65-8.36l.08-.11c10.42-14.56 16.9-25.74 20.1-34.74-.17-.31-.33-.62-.51-.92-2.9 9.3-9.56 21.04-20.72 36.68a325.23 325.23 0 0 1-6.6 8.28z"/><path class="cls-3" d="M31.77 69.25a91.65 91.65 0 0 0-13.61 19.18l-1.87 3.52.26.61q1.46-2.72 2.8-5.27a90.1 90.1 0 0 1 12.82-18.23 38 38 0 0 1 3-2.86c35-29.68 53.68-40.2 66.23-44.67l-.73-.51C88.12 25.89 69.46 36.85 36 65.27a53.7 53.7 0 0 0-4.23 3.98zM96.74 77.47c-2 2.58-4.1 5.24-6.48 8.14s-4.83 5.81-7.49 8.9c-2 1.83-4.22 3.71-6.51 5.56q-16.38 12.45-29.66 21.85l.35.15q12.79-9.1 28.39-21c2.63-2.13 5-4.19 7.35-6.31l.38-.34.28-.33c2.8-3.25 5.46-6.4 7.89-9.37s4.56-5.63 6.59-8.28c11.17-15.6 17.83-27.34 20.72-36.65-.19-.33-.4-.64-.6-1l-.08.31c-2.55 9.6-9.27 21.79-21.13 38.37z"/><path class="cls-6" d="M119.18 48.15v.05c-1.46 3.35-3 6.81-3.13 9.08-.39 1.61-2.5 5.06-6.64 10.86-1.54 2.21-3.17 4.47-5 6.9C99 82.29 92.46 90.43 84.94 99.25a92.551 92.551 0 0 1-5 4.14c-5.88 4.3-11.89 8.72-17.7 13l-10.2 7.51.35.11 8.85-6.51c5.83-4.29 11.86-8.73 17.75-13 2.16-1.7 4.25-3.46 6.18-5.21 7.87-9.21 14.7-17.69 20.3-25.2 1.82-2.45 3.47-4.72 5-7 4.19-5.86 6.32-9.36 6.72-11 .16-2.28 1.67-5.73 3.12-9.06l1-1.79-.24-.54-.67 1.17zM76.71 28.65c-3 2.24-5.65 4.08-7.95 5.53-.83.53-1.62 1-2.4 1.42-9.57 6.75-21 15.76-36.51 30.09-2.42 2.22-4.75 4.53-6.92 6.88a89.75 89.75 0 0 0-9.32 11.89c0 .17.09.34.14.51a84.09 84.09 0 0 1 9.78-12.81c1.83-2 3.81-3.95 5.86-5.83C55.61 42.17 70 33.28 83.82 24.68c3.57-2.22 7.22-4.48 11.09-7l-.4-.2c-3.31 2.14-6.48 4.11-9.59 6-2.69 1.69-5.4 3.37-8.21 5.17z"/><path class="cls-6" d="M118.46 54.91c-.41 1.68-2.57 5.23-6.81 11.16a269.54 269.54 0 0 1-5.06 7c-5.72 7.68-12.72 16.36-20.8 25.8l-.29.34-.39.36c-2.25 2-4.56 4-7.06 6-5.94 4.34-12 8.78-17.79 13.07l-7.49 5.51.37.1 6.12-4.5c5.83-4.29 11.85-8.73 17.74-13l.14-.1c2.63-2.07 5.09-4.15 7.51-6.36l1.17-1.07.87-1c8.17-9.54 15.24-18.31 21-26.06 1.85-2.49 3.52-4.8 5.09-7 4.29-6 6.48-9.6 6.9-11.33.13-1.83 1.14-4.42 2.28-7.1l-.35-.8-.05.09c-1.44 3.18-2.94 6.62-3.1 8.89zM29 66.94a81.138 81.138 0 0 0-4.83 4.8 80.44 80.44 0 0 0-10.24 13.8c.06.2.13.4.2.6a78.48 78.48 0 0 1 10.62-14.81c1.19-1.29 2.39-2.48 3.81-3.78C53.83 44.26 67.33 35.89 81.61 27c4.47-2.77 9.06-5.63 14.07-9l-.38-.19c-4.43 2.94-8.55 5.49-12.59 8C68.32 34.78 54.72 43.21 29 66.94z"/><path class="cls-3" d="M117.24 56.1c-.4 1.65-2.53 5.14-6.72 11-1.56 2.23-3.2 4.51-5 7-5.6 7.51-12.42 16-20.3 25.2-1.93 1.75-4 3.51-6.18 5.21-5.9 4.31-11.92 8.75-17.75 13L52.41 124l.36.11 7.49-5.51c5.83-4.29 11.85-8.73 17.79-13.07 2.51-2 4.82-3.93 7.06-6l.39-.36.29-.34c8.08-9.44 15.08-18.12 20.8-25.8 1.84-2.47 3.5-4.76 5.06-7 4.24-5.93 6.4-9.47 6.81-11.16.16-2.27 1.66-5.71 3.1-9l.05-.09-.24-.55-1 1.79c-1.46 3.36-2.97 6.81-3.13 9.08zM29.41 66.32c-2.06 1.89-4 3.85-5.86 5.83A84.09 84.09 0 0 0 13.76 85l.17.58a80.44 80.44 0 0 1 10.21-13.84c1.52-1.64 3.09-3.21 4.83-4.8 25.75-23.73 39.35-32.16 53.74-41.09 4-2.5 8.16-5.06 12.59-8l-.39-.2c-3.87 2.53-7.52 4.8-11.09 7C70 33.28 55.61 42.17 29.41 66.32z"/><path class="cls-6" d="M120.16 60.89c-1.41 2.15-2.9 4.36-4.42 6.57C112.54 72.12 109 77 105.33 82s-8 10.64-12.54 16.34a121.87 121.87 0 0 1-10.54 9.85 905.4 905.4 0 0 1-15 11.34q-4.22 3.13-8.22 6l.42.07q3.32-2.43 6.8-5c5.35-4 10.3-7.71 15.14-11.45a136.3 136.3 0 0 0 12.22-11.5c4.6-5.81 8.91-11.42 12.81-16.67 3.73-5 7.25-9.94 10.46-14.61 1.53-2.22 3-4.44 4.44-6.6 1.41-2 2.51-3.63 3.38-5.08-.05-.22-.12-.43-.17-.64a64.6 64.6 0 0 1-4.32 6.72z"/><path class="cls-6" d="M118 65.35C114.81 70 111.28 75 107.53 80c-3.95 5.31-8.31 11-13 16.88l-.09.12-.16.17a153.33 153.33 0 0 1-13.79 13c-4.92 3.81-9.89 7.57-15.26 11.54l-5.39 4 .41.07 4-2.93c5.39-4 10.37-7.76 15.24-11.53l.2-.16a168.39 168.39 0 0 0 15.13-14.3l.48-.52.28-.36c4.68-5.91 9.06-11.62 13-17 3.76-5.07 7.31-10 10.54-14.73 1.53-2.23 3-4.45 4.45-6.61.48-.67.92-1.3 1.34-1.91 0-.17-.07-.33-.11-.5-.68 1-1.47 2.2-2.38 3.48-1.35 2.18-2.85 4.41-4.42 6.64zM60.8 35.85C54.73 38 49 40 38.86 49.43c-3.38 3.13-7 6.79-10.63 10.9-6.2 6.92-11.43 13-15.88 18.42v.29c4.58-5.62 10-12 16.57-19.28 3.34-3.73 6.54-7 9.5-9.76 9.52-8.82 15.17-10.83 21.15-13A51.17 51.17 0 0 0 71 31.83c5-3.18 11.77-8.26 20.73-15.67l-.23-.1a205.9 205.9 0 0 1-19.41 14.6 50.89 50.89 0 0 1-11.29 5.19z"/><path class="cls-6" d="M58.44 38.28c-5.63 2-11.46 4.07-20.37 12.33-2.6 2.4-5.33 5.22-8.37 8.61-6.88 7.68-12.54 14.32-17.25 20.14 0 .1 0 .21.05.31 4.82-6 10.7-12.94 17.94-21 2.69-3 5.06-5.44 7.24-7.46a49.43 49.43 0 0 1 19.58-11.7 57.27 57.27 0 0 0 9.09-3.9C70 33 73.44 30.74 76.71 28.65c4.3-3.21 9.4-7.27 15.42-12.3l-.22-.1c-9.59 8-16.74 13.39-22.05 16.75a51.48 51.48 0 0 1-11.42 5.28z"/><path class="cls-6" d="M76.71 28.65C73.44 30.74 70 33 66.36 35.59c.78-.43 1.57-.89 2.4-1.42 2.3-1.44 4.93-3.27 7.95-5.52z"/><path class="cls-3" d="M59.62 37.06c-6 2.13-11.63 4.14-21.15 13-3 2.75-6.17 6-9.5 9.76C22.43 67.07 17 73.43 12.4 79.05l.05.31c4.71-5.82 10.37-12.46 17.26-20.14 3-3.39 5.78-6.21 8.37-8.61C47 42.35 52.81 40.28 58.44 38.28A51.48 51.48 0 0 0 69.86 33c5.32-3.35 12.46-8.77 22.05-16.75l-.22-.1C82.72 23.57 76 28.65 71 31.83a51.17 51.17 0 0 1-11.38 5.23zM116.89 66.41c-3.21 4.67-6.73 9.59-10.46 14.59a688.38 688.38 0 0 1-12.81 16.67 136.3 136.3 0 0 1-12.22 11.5c-4.83 3.74-9.79 7.49-15.14 11.45q-3.48 2.58-6.8 5l.41.07 5.39-4c5.37-4 10.34-7.73 15.26-11.54a153.33 153.33 0 0 0 13.79-13l.16-.17.09-.12c4.66-5.88 9-11.56 13-16.88 3.75-5 7.28-10 10.5-14.67 1.53-2.23 3-4.46 4.44-6.6.91-1.28 1.7-2.43 2.38-3.48 0-.18-.1-.36-.15-.54-.87 1.44-2 3.11-3.38 5.08-1.44 2.23-2.93 4.42-4.46 6.64z"/><path class="cls-6" d="M78.63 22.76c-.08-.08-.1-.23 0-.43a2.92 2.92 0 0 0-.77-1.53c-3.51-3.51-18 3.07-48.08 32.06C22.32 60 16.4 66.21 11.57 71.78v.29c4.76-5.55 10.61-11.75 18-18.86C59 24.92 73.13 18.54 76.59 22a2.89 2.89 0 0 1 .77 1.52.47.47 0 0 0 .05.44c.67.67 5.6-2.76 12.36-8.6l-.21-.08c-5.99 5.12-10.32 8.09-10.93 7.48z"/><path class="cls-6" d="M81.06 20.33c-.07-.07-.09-.2 0-.38a2.94 2.94 0 0 0-.78-1.56c-3.59-3.59-18.66 3.4-50.2 33.77-7.47 7.19-13.51 13.48-18.5 19.1v.28c4.91-5.59 10.89-11.85 18.33-19C60.71 22.81 75.48 16 79 19.57a2.93 2.93 0 0 1 .78 1.55v.42c.55.55 4.25-1.94 9.49-6.33l-.23-.09c-4.4 3.67-7.49 5.69-7.98 5.21zM114.38 77.11c-5.41 7-11.72 14.87-19.29 24.12-3.81 4.12-7.63 8-11.37 11.46-5.8 4.78-11.44 9.33-17 13.72h.38c5.23-4.15 10.53-8.43 16-12.92 4.24-3.93 8.55-8.28 12.83-12.92 7.67-9.36 14.06-17.34 19.52-24.4 2-2.58 3.89-5.05 5.62-7.36s3.46-4.55 5-6.65l-.05-.43q-2.75 3.75-6.06 8.06c-1.71 2.29-3.59 4.75-5.58 7.32z"/><path class="cls-6" d="M116.51 75.22c-5.51 7.11-11.94 15.15-19.67 24.59l-.18.21c-4.68 5.08-9.41 9.84-14.07 14.17l-.22.2c-5.06 4.17-10 8.17-14.86 12h.38q6.71-5.35 13.65-11.08l.29-.24.37-.35c5-4.64 10.08-9.75 15.08-15.17l.33-.35.22-.27c7.76-9.47 14.22-17.55 19.76-24.69 2-2.6 3.93-5.11 5.65-7.4 1-1.34 2-2.63 3-3.89v-.41c-1.26 1.68-2.57 3.42-4 5.26-1.82 2.34-3.72 4.83-5.73 7.42z"/><path class="cls-3" d="M115.45 76.16c-5.47 7.06-11.86 15-19.52 24.4-4.28 4.64-8.6 9-12.83 12.92-5.45 4.49-10.75 8.78-16 12.92h.38c4.87-3.87 9.8-7.87 14.86-12l.22-.2c4.66-4.32 9.4-9.09 14.07-14.17l.18-.21c7.73-9.44 14.17-17.48 19.68-24.59 2-2.59 3.91-5.08 5.64-7.39 1.41-1.83 2.72-3.58 4-5.26 0-.14 0-.28-.05-.42-1.55 2.1-3.21 4.3-5 6.65s-3.64 4.77-5.63 7.35zM79.85 21.54c-.08-.08-.09-.21 0-.42a2.93 2.93 0 0 0-.85-1.55C75.48 16 60.71 22.81 29.89 52.49c-7.45 7.16-13.42 13.42-18.33 19v.28C16.4 66.21 22.32 60 29.73 52.85c30.1-29 44.57-35.56 48.08-32.06a2.92 2.92 0 0 1 .77 1.53v.43c.61.61 4.94-2.36 10.93-7.46l-.22-.08c-5.19 4.39-8.89 6.88-9.44 6.33z"/><path class="cls-6" d="M90.93 111.51l2.43-2.43 1.26-1.39c12.54-13.92 23-26.25 31.85-37.44v-.42c-8.94 11.44-19.67 24.08-32.58 38.4-1 1.12-1.99 2.22-2.96 3.28zM18.7 58l-.2.22-.27.26q-3.57 3.61-6.6 6.82v.23c4.62-4.9 10.14-10.48 16.84-16.93 18.95-18.29 32.72-29.2 43.8-37h-.5c-11 7.86-24.59 18.8-43.15 36.71C25 51.76 21.7 55 18.7 58z"/><path class="cls-6" d="M11.59 65.83v.27c4.49-4.83 9.92-10.34 16.61-16.78C47.92 30.26 62 19.45 73.32 11.67h-.54C61.58 19.44 47.65 30.3 28.31 49c-6.69 6.43-12.16 12-16.72 16.83zM87.9 114.29c-2.72 2.46-5.41 4.87-8 7.17q-2.71 2.4-5.39 4.72h.34l4.44-3.9c2.8-2.48 5.7-5.08 8.63-7.73 1.71-1.81 3.43-3.69 5.26-5.74 13.3-14.76 24.26-27.71 33.33-39.39v-.44c-9.19 11.93-20.37 25.19-34.09 40.42-1.56 1.69-3.07 3.34-4.52 4.89zM78.68 123l-3.5 3.08h.32l2.57-2.26c1.68-1.49 3.41-3 5.15-4.59l2.39-2.39c-2.35 2.11-4.68 4.16-6.93 6.16z"/><path class="cls-3" d="M87.91 114.52c-2.93 2.65-5.83 5.25-8.63 7.73l-4.44 3.9h.33l3.5-3.08c2.25-2 4.58-4.08 6.93-6.2l5.32-5.32c1-1.06 2-2.16 3-3.29 12.91-14.33 23.63-27 32.58-38.4v-.44c-9.07 11.68-20 24.63-33.33 39.39-1.83 2.01-3.55 3.9-5.26 5.71zM11.61 65.56v.27C16.15 61 21.62 55.43 28.31 49c19.34-18.7 33.27-29.56 44.47-37.37h-.52c-11.08 7.83-24.85 18.74-43.8 37-6.71 6.46-12.23 12.03-16.85 16.93z"/><path class="cls-6" d="M65 11.65h-.1l-.4.4zM61.17 15.33q2.36-1.93 4.62-3.73h-.42l-2.55 2.06zM124.72 77.73l1.28-1.61.05-.43-3 3.66z"/><path class="cls-3" d="M126 76.45v-.33l-1.32 1.61zM62.81 13.69l2.55-2.06h-.41l-.5.41z"/><ellipse class="cls-9" cx="69" cy="68.98" rx="50.71" ry="50.69"/><ellipse class="cls-10" cx="69" cy="68.98" rx="48.94" ry="48.92"/><path class="cls-10" d="M35.52 100.8c-.16-3.4-.31-6.81-.44-10.21q-.08-1.7-.08-3.41c-.55-19.46.44-38.35 4.82-57.45a49.19 49.19 0 0 0-4.48 3.79v.34q-.23 1.33-.47 2.67-.32 1.78-.67 3.55a351.05 351.05 0 0 1-11.65 44.33 48.94 48.94 0 0 0 13.13 20.4c0-.35 0-.7-.06-1.05q-.08-1.48-.1-2.96z"/><path class="cls-11" d="M35.52 100.8c-.16-3.4-.31-6.81-.44-10.21q-.08-1.7-.08-3.41c-.55-19.46.44-38.35 4.82-57.45a49.19 49.19 0 0 0-4.48 3.79v.34q-.23 1.33-.47 2.67-.32 1.78-.67 3.55a351.05 351.05 0 0 1-11.65 44.33 48.94 48.94 0 0 0 13.13 20.4c0-.35 0-.7-.06-1.05q-.08-1.48-.1-2.96z"/><path class="cls-12" d="M35.52 100.8c-.16-3.4-.31-6.81-.44-10.21q-.08-1.7-.08-3.41c-.55-19.46.44-38.35 4.82-57.45a49.19 49.19 0 0 0-4.48 3.79v.34q-.23 1.33-.47 2.67-.32 1.78-.67 3.55a351.05 351.05 0 0 1-11.65 44.33 48.94 48.94 0 0 0 13.13 20.4c0-.35 0-.7-.06-1.05q-.08-1.48-.1-2.96z"/><path class="cls-13" d="M35.52 100.8c-.16-3.4-.31-6.81-.44-10.21q-.08-1.7-.08-3.41c-.55-19.46.44-38.35 4.82-57.45a49.19 49.19 0 0 0-4.48 3.79v.34q-.23 1.33-.47 2.67-.32 1.78-.67 3.55a351.05 351.05 0 0 1-11.65 44.33 48.94 48.94 0 0 0 13.13 20.4c0-.35 0-.7-.06-1.05q-.08-1.48-.1-2.96z"/><path class="cls-14" d="M35.52 100.8c-.16-3.4-.31-6.81-.44-10.21q-.08-1.7-.08-3.41c-.55-19.46.44-38.35 4.82-57.45a49.19 49.19 0 0 0-4.48 3.79v.34q-.23 1.33-.47 2.67-.32 1.78-.67 3.55a351.05 351.05 0 0 1-11.65 44.33 48.94 48.94 0 0 0 13.13 20.4c0-.35 0-.7-.06-1.05q-.08-1.48-.1-2.96z"/><path class="cls-14" d="M35.52 100.8c-.16-3.4-.31-6.81-.44-10.21q-.08-1.7-.08-3.41c-.55-19.46.44-38.35 4.82-57.45a49.19 49.19 0 0 0-4.48 3.79v.34q-.23 1.33-.47 2.67-.32 1.78-.67 3.55a351.05 351.05 0 0 1-11.65 44.33 48.94 48.94 0 0 0 13.13 20.4c0-.35 0-.7-.06-1.05q-.08-1.48-.1-2.96z"/><path class="cls-10" d="M57.51 21.42a48.57 48.57 0 0 0-8.95 3.1c-4.54 18.82-5.6 38-5.49 57 0 1.29.07 2.5.12 3.73.37 5.7.91 11.37 1.6 17 .14 1.12.28 2.24.42 3.38.17 2.16.36 4.31.57 6.46q2 1.07 4.05 2C44.48 83 44.8 51.33 57.51 21.42z"/><path class="cls-15" d="M57.51 21.42a48.57 48.57 0 0 0-8.95 3.1c-4.54 18.82-5.6 38-5.49 57 0 1.29.07 2.5.12 3.73.37 5.7.91 11.37 1.6 17 .14 1.12.28 2.24.42 3.38.17 2.16.36 4.31.57 6.46q2 1.07 4.05 2C44.48 83 44.8 51.33 57.51 21.42z"/><path class="cls-16" d="M57.51 21.42a48.57 48.57 0 0 0-8.95 3.1c-4.54 18.82-5.6 38-5.49 57 0 1.29.07 2.5.12 3.73.37 5.7.91 11.37 1.6 17 .14 1.12.28 2.24.42 3.38.17 2.16.36 4.31.57 6.46q2 1.07 4.05 2C44.48 83 44.8 51.33 57.51 21.42z"/><path class="cls-17" d="M57.51 21.42a48.57 48.57 0 0 0-8.95 3.1c-4.54 18.82-5.6 38-5.49 57 0 1.29.07 2.5.12 3.73.37 5.7.91 11.37 1.6 17 .14 1.12.28 2.24.42 3.38.17 2.16.36 4.31.57 6.46q2 1.07 4.05 2C44.48 83 44.8 51.33 57.51 21.42z"/><path class="cls-14" d="M57.51 21.42a48.57 48.57 0 0 0-8.95 3.1c-4.54 18.82-5.6 38-5.49 57 0 1.29.07 2.5.12 3.73.37 5.7.91 11.37 1.6 17 .14 1.12.28 2.24.42 3.38.17 2.16.36 4.31.57 6.46q2 1.07 4.05 2C44.48 83 44.8 51.33 57.51 21.42z"/><path class="cls-14" d="M57.51 21.42a48.57 48.57 0 0 0-8.95 3.1c-4.54 18.82-5.6 38-5.49 57 0 1.29.07 2.5.12 3.73.37 5.7.91 11.37 1.6 17 .14 1.12.28 2.24.42 3.38.17 2.16.36 4.31.57 6.46q2 1.07 4.05 2C44.48 83 44.8 51.33 57.51 21.42z"/><path class="cls-10" d="M99.37 91.75a55.32 55.32 0 0 1-2.62-15.19q-.06-1.47-.05-2.94a47.79 47.79 0 0 1 .69-7.86c.15-.87.33-1.73.54-2.6 1.86-6.45 5.12-14.94 13-19.39a49.18 49.18 0 0 0-12.6-13.95 38.76 38.76 0 0 0-8.63 10.4q-1 1.53-1.94 3.09a57.25 57.25 0 0 0-7.39 30.17q0 1.82.17 3.64c.38 10.9 2.6 22.05 8.45 32.39q.8 1.41 1.69 2.8c.06.14.14.27.21.41a49.08 49.08 0 0 0 13.47-10c-1.39-2.61-2.68-5.25-3.91-7.9-.39-1.02-.75-2.04-1.08-3.07z"/><path class="cls-18" d="M99.37 91.75a55.32 55.32 0 0 1-2.62-15.19q-.06-1.47-.05-2.94a47.79 47.79 0 0 1 .69-7.86c.15-.87.33-1.73.54-2.6 1.86-6.45 5.12-14.94 13-19.39a49.18 49.18 0 0 0-12.6-13.95 38.76 38.76 0 0 0-8.63 10.4q-1 1.53-1.94 3.09a57.25 57.25 0 0 0-7.39 30.17q0 1.82.17 3.64c.38 10.9 2.6 22.05 8.45 32.39q.8 1.41 1.69 2.8c.06.14.14.27.21.41a49.08 49.08 0 0 0 13.47-10c-1.39-2.61-2.68-5.25-3.91-7.9-.39-1.02-.75-2.04-1.08-3.07z"/><path class="cls-19" d="M99.37 91.75a55.32 55.32 0 0 1-2.62-15.19q-.06-1.47-.05-2.94a47.79 47.79 0 0 1 .69-7.86c.15-.87.33-1.73.54-2.6 1.86-6.45 5.12-14.94 13-19.39a49.18 49.18 0 0 0-12.6-13.95 38.76 38.76 0 0 0-8.63 10.4q-1 1.53-1.94 3.09a57.25 57.25 0 0 0-7.39 30.17q0 1.82.17 3.64c.38 10.9 2.6 22.05 8.45 32.39q.8 1.41 1.69 2.8c.06.14.14.27.21.41a49.08 49.08 0 0 0 13.47-10c-1.39-2.61-2.68-5.25-3.91-7.9-.39-1.02-.75-2.04-1.08-3.07z"/><path class="cls-20" d="M99.37 91.75a55.32 55.32 0 0 1-2.62-15.19q-.06-1.47-.05-2.94a47.79 47.79 0 0 1 .69-7.86c.15-.87.33-1.73.54-2.6 1.86-6.45 5.12-14.94 13-19.39a49.18 49.18 0 0 0-12.6-13.95 38.76 38.76 0 0 0-8.63 10.4q-1 1.53-1.94 3.09a57.25 57.25 0 0 0-7.39 30.17q0 1.82.17 3.64c.38 10.9 2.6 22.05 8.45 32.39q.8 1.41 1.69 2.8c.06.14.14.27.21.41a49.08 49.08 0 0 0 13.47-10c-1.39-2.61-2.68-5.25-3.91-7.9-.39-1.02-.75-2.04-1.08-3.07z"/><path class="cls-14" d="M99.37 91.75a55.32 55.32 0 0 1-2.62-15.19q-.06-1.47-.05-2.94a47.79 47.79 0 0 1 .69-7.86c.15-.87.33-1.73.54-2.6 1.86-6.45 5.12-14.94 13-19.39a49.18 49.18 0 0 0-12.6-13.95 38.76 38.76 0 0 0-8.63 10.4q-1 1.53-1.94 3.09a57.25 57.25 0 0 0-7.39 30.17q0 1.82.17 3.64c.38 10.9 2.6 22.05 8.45 32.39q.8 1.41 1.69 2.8c.06.14.14.27.21.41a49.08 49.08 0 0 0 13.47-10c-1.39-2.61-2.68-5.25-3.91-7.9-.39-1.02-.75-2.04-1.08-3.07z"/><path class="cls-14" d="M99.37 91.75a55.32 55.32 0 0 1-2.62-15.19q-.06-1.47-.05-2.94a47.79 47.79 0 0 1 .69-7.86c.15-.87.33-1.73.54-2.6 1.86-6.45 5.12-14.94 13-19.39a49.18 49.18 0 0 0-12.6-13.95 38.76 38.76 0 0 0-8.63 10.4q-1 1.53-1.94 3.09a57.25 57.25 0 0 0-7.39 30.17q0 1.82.17 3.64c.38 10.9 2.6 22.05 8.45 32.39q.8 1.41 1.69 2.8c.06.14.14.27.21.41a49.08 49.08 0 0 0 13.47-10c-1.39-2.61-2.68-5.25-3.91-7.9-.39-1.02-.75-2.04-1.08-3.07z"/><path class="cls-10" d="M60.38 109.33C54.9 83.81 56 57.72 65.48 33.1l.82-2q2.48-5.55 5.5-11c-.93-.05-1.86-.09-2.8-.09-1.31 0-2.61.07-3.9.17-13.76 20.43-14.29 42.64-14 64.55.07.79.15 1.59.23 2.44a145 145 0 0 0 5.06 29 48.73 48.73 0 0 0 5.79 1.16c-.34-1.49-.69-3-1-4.48-.29-1.15-.56-2.34-.8-3.52z"/><path class="cls-21" d="M60.38 109.33C54.9 83.81 56 57.72 65.48 33.1l.82-2q2.48-5.55 5.5-11c-.93-.05-1.86-.09-2.8-.09-1.31 0-2.61.07-3.9.17-13.76 20.43-14.29 42.64-14 64.55.07.79.15 1.59.23 2.44a145 145 0 0 0 5.06 29 48.73 48.73 0 0 0 5.79 1.16c-.34-1.49-.69-3-1-4.48-.29-1.15-.56-2.34-.8-3.52z"/><path class="cls-22" d="M60.38 109.33C54.9 83.81 56 57.72 65.48 33.1l.82-2q2.48-5.55 5.5-11c-.93-.05-1.86-.09-2.8-.09-1.31 0-2.61.07-3.9.17-13.76 20.43-14.29 42.64-14 64.55.07.79.15 1.59.23 2.44a145 145 0 0 0 5.06 29 48.73 48.73 0 0 0 5.79 1.16c-.34-1.49-.69-3-1-4.48-.29-1.15-.56-2.34-.8-3.52z"/><path class="cls-23" d="M60.38 109.33C54.9 83.81 56 57.72 65.48 33.1l.82-2q2.48-5.55 5.5-11c-.93-.05-1.86-.09-2.8-.09-1.31 0-2.61.07-3.9.17-13.76 20.43-14.29 42.64-14 64.55.07.79.15 1.59.23 2.44a145 145 0 0 0 5.06 29 48.73 48.73 0 0 0 5.79 1.16c-.34-1.49-.69-3-1-4.48-.29-1.15-.56-2.34-.8-3.52z"/><path class="cls-14" d="M60.38 109.33C54.9 83.81 56 57.72 65.48 33.1l.82-2q2.48-5.55 5.5-11c-.93-.05-1.86-.09-2.8-.09-1.31 0-2.61.07-3.9.17-13.76 20.43-14.29 42.64-14 64.55.07.79.15 1.59.23 2.44a145 145 0 0 0 5.06 29 48.73 48.73 0 0 0 5.79 1.16c-.34-1.49-.69-3-1-4.48-.29-1.15-.56-2.34-.8-3.52z"/><path class="cls-14" d="M60.38 109.33C54.9 83.81 56 57.72 65.48 33.1l.82-2q2.48-5.55 5.5-11c-.93-.05-1.86-.09-2.8-.09-1.31 0-2.61.07-3.9.17-13.76 20.43-14.29 42.64-14 64.55.07.79.15 1.59.23 2.44a145 145 0 0 0 5.06 29 48.73 48.73 0 0 0 5.79 1.16c-.34-1.49-.69-3-1-4.48-.29-1.15-.56-2.34-.8-3.52z"/><path class="cls-10" d="M73.58 76.07q-.06-1.72 0-3.43a65.75 65.75 0 0 1 8.22-31.33q.82-1.49 1.73-3a48.43 48.43 0 0 1 9.07-12.28 48.62 48.62 0 0 0-16.86-5.56 83.89 83.89 0 0 0-7.33 17q-.53 1.74-1 3.49c-5.82 22.12-3 44.85 2.3 67.09.27 1.18.55 2.35.85 3.59.48 2 1 4.07 1.49 6.1a48.75 48.75 0 0 0 12.63-2.46c-.49-.84-1-1.67-1.43-2.52-6.36-11.76-9.79-24.24-9.67-36.69z"/><path class="cls-24" d="M73.58 76.07q-.06-1.72 0-3.43a65.75 65.75 0 0 1 8.22-31.33q.82-1.49 1.73-3a48.43 48.43 0 0 1 9.07-12.28 48.62 48.62 0 0 0-16.86-5.56 83.89 83.89 0 0 0-7.33 17q-.53 1.74-1 3.49c-5.82 22.12-3 44.85 2.3 67.09.27 1.18.55 2.35.85 3.59.48 2 1 4.07 1.49 6.1a48.75 48.75 0 0 0 12.63-2.46c-.49-.84-1-1.67-1.43-2.52-6.36-11.76-9.79-24.24-9.67-36.69z"/><path class="cls-25" d="M73.58 76.07q-.06-1.72 0-3.43a65.75 65.75 0 0 1 8.22-31.33q.82-1.49 1.73-3a48.43 48.43 0 0 1 9.07-12.28 48.62 48.62 0 0 0-16.86-5.56 83.89 83.89 0 0 0-7.33 17q-.53 1.74-1 3.49c-5.82 22.12-3 44.85 2.3 67.09.27 1.18.55 2.35.85 3.59.48 2 1 4.07 1.49 6.1a48.75 48.75 0 0 0 12.63-2.46c-.49-.84-1-1.67-1.43-2.52-6.36-11.76-9.79-24.24-9.67-36.69z"/><path class="cls-26" d="M73.58 76.07q-.06-1.72 0-3.43a65.75 65.75 0 0 1 8.22-31.33q.82-1.49 1.73-3a48.43 48.43 0 0 1 9.07-12.28 48.62 48.62 0 0 0-16.86-5.56 83.89 83.89 0 0 0-7.33 17q-.53 1.74-1 3.49c-5.82 22.12-3 44.85 2.3 67.09.27 1.18.55 2.35.85 3.59.48 2 1 4.07 1.49 6.1a48.75 48.75 0 0 0 12.63-2.46c-.49-.84-1-1.67-1.43-2.52-6.36-11.76-9.79-24.24-9.67-36.69z"/><path class="cls-14" d="M73.58 76.07q-.06-1.72 0-3.43a65.75 65.75 0 0 1 8.22-31.33q.82-1.49 1.73-3a48.43 48.43 0 0 1 9.07-12.28 48.62 48.62 0 0 0-16.86-5.56 83.89 83.89 0 0 0-7.33 17q-.53 1.74-1 3.49c-5.82 22.12-3 44.85 2.3 67.09.27 1.18.55 2.35.85 3.59.48 2 1 4.07 1.49 6.1a48.75 48.75 0 0 0 12.63-2.46c-.49-.84-1-1.67-1.43-2.52-6.36-11.76-9.79-24.24-9.67-36.69z"/><path class="cls-14" d="M73.58 76.07q-.06-1.72 0-3.43a65.75 65.75 0 0 1 8.22-31.33q.82-1.49 1.73-3a48.43 48.43 0 0 1 9.07-12.28 48.62 48.62 0 0 0-16.86-5.56 83.89 83.89 0 0 0-7.33 17q-.53 1.74-1 3.49c-5.82 22.12-3 44.85 2.3 67.09.27 1.18.55 2.35.85 3.59.48 2 1 4.07 1.49 6.1a48.75 48.75 0 0 0 12.63-2.46c-.49-.84-1-1.67-1.43-2.52-6.36-11.76-9.79-24.24-9.67-36.69z"/><path class="cls-10" d="M20.05 69a49.42 49.42 0 0 0 .29 5.28 181.16 181.16 0 0 0 8.21-32.82A48.68 48.68 0 0 0 20.05 69z"/><path class="cls-27" d="M20.05 69a49.42 49.42 0 0 0 .29 5.28 181.16 181.16 0 0 0 8.21-32.82A48.68 48.68 0 0 0 20.05 69z"/><path class="cls-28" d="M20.05 69a49.42 49.42 0 0 0 .29 5.28 181.16 181.16 0 0 0 8.21-32.82A48.68 48.68 0 0 0 20.05 69z"/><path class="cls-29" d="M20.05 69a49.42 49.42 0 0 0 .29 5.28 181.16 181.16 0 0 0 8.21-32.82A48.68 48.68 0 0 0 20.05 69z"/><path class="cls-14" d="M20.05 69a49.42 49.42 0 0 0 .29 5.28 181.16 181.16 0 0 0 8.21-32.82A48.68 48.68 0 0 0 20.05 69z"/><path class="cls-14" d="M20.05 69a49.42 49.42 0 0 0 .29 5.28 181.16 181.16 0 0 0 8.21-32.82A48.68 48.68 0 0 0 20.05 69z"/><path class="cls-10" d="M114.23 50.28c-4.86 4.58-6.59 10-7.68 15.38q-.31 1.47-.5 3a37.38 37.38 0 0 0-.27 6c0 1.09.12 2.19.25 3.29a42.81 42.81 0 0 0 2.29 10c.4 1.12.84 2.23 1.34 3.38q.61 1.45 1.3 2.88a48.63 48.63 0 0 0 5.31-12.52 22.77 22.77 0 0 1 1.4-11.11c.07-.11.16-.21.24-.31v-1.24a48.75 48.75 0 0 0-3.68-18.75z"/><path class="cls-30" d="M114.23 50.28c-4.86 4.58-6.59 10-7.68 15.38q-.31 1.47-.5 3a37.38 37.38 0 0 0-.27 6c0 1.09.12 2.19.25 3.29a42.81 42.81 0 0 0 2.29 10c.4 1.12.84 2.23 1.34 3.38q.61 1.45 1.3 2.88a48.63 48.63 0 0 0 5.31-12.52 22.77 22.77 0 0 1 1.4-11.11c.07-.11.16-.21.24-.31v-1.24a48.75 48.75 0 0 0-3.68-18.75z"/><path class="cls-31" d="M114.23 50.28c-4.86 4.58-6.59 10-7.68 15.38q-.31 1.47-.5 3a37.38 37.38 0 0 0-.27 6c0 1.09.12 2.19.25 3.29a42.81 42.81 0 0 0 2.29 10c.4 1.12.84 2.23 1.34 3.38q.61 1.45 1.3 2.88a48.63 48.63 0 0 0 5.31-12.52 22.77 22.77 0 0 1 1.4-11.11c.07-.11.16-.21.24-.31v-1.24a48.75 48.75 0 0 0-3.68-18.75z"/><path class="cls-32" d="M114.23 50.28c-4.86 4.58-6.59 10-7.68 15.38q-.31 1.47-.5 3a37.38 37.38 0 0 0-.27 6c0 1.09.12 2.19.25 3.29a42.81 42.81 0 0 0 2.29 10c.4 1.12.84 2.23 1.34 3.38q.61 1.45 1.3 2.88a48.63 48.63 0 0 0 5.31-12.52 22.77 22.77 0 0 1 1.4-11.11c.07-.11.16-.21.24-.31v-1.24a48.75 48.75 0 0 0-3.68-18.75z"/><path class="cls-14" d="M114.23 50.28c-4.86 4.58-6.59 10-7.68 15.38q-.31 1.47-.5 3a37.38 37.38 0 0 0-.27 6c0 1.09.12 2.19.25 3.29a42.81 42.81 0 0 0 2.29 10c.4 1.12.84 2.23 1.34 3.38q.61 1.45 1.3 2.88a48.63 48.63 0 0 0 5.31-12.52 22.77 22.77 0 0 1 1.4-11.11c.07-.11.16-.21.24-.31v-1.24a48.75 48.75 0 0 0-3.68-18.75z"/><path class="cls-14" d="M114.23 50.28c-4.86 4.58-6.59 10-7.68 15.38q-.31 1.47-.5 3a37.38 37.38 0 0 0-.27 6c0 1.09.12 2.19.25 3.29a42.81 42.81 0 0 0 2.29 10c.4 1.12.84 2.23 1.34 3.38q.61 1.45 1.3 2.88a48.63 48.63 0 0 0 5.31-12.52 22.77 22.77 0 0 1 1.4-11.11c.07-.11.16-.21.24-.31v-1.24a48.75 48.75 0 0 0-3.68-18.75z"/><path class="cls-10" d="M116.28 81.64a48.9 48.9 0 0 0 1.63-11.42c-.08.11-.16.21-.24.31a22.77 22.77 0 0 0-1.39 11.11z"/><path class="cls-33" d="M116.28 81.64a48.9 48.9 0 0 0 1.63-11.42c-.08.11-.16.21-.24.31a22.77 22.77 0 0 0-1.39 11.11z"/><path class="cls-33" d="M116.28 81.64a48.9 48.9 0 0 0 1.63-11.42c-.08.11-.16.21-.24.31a22.77 22.77 0 0 0-1.39 11.11z"/><path class="cls-34" d="M116.28 81.64a48.9 48.9 0 0 0 1.63-11.42c-.08.11-.16.21-.24.31a22.77 22.77 0 0 0-1.39 11.11z"/><path class="cls-35" d="M116.28 81.64a48.9 48.9 0 0 0 1.63-11.42c-.08.11-.16.21-.24.31a22.77 22.77 0 0 0-1.39 11.11z"/><path class="cls-36" d="M116.28 81.64a48.9 48.9 0 0 0 1.63-11.42c-.08.11-.16.21-.24.31a22.77 22.77 0 0 0-1.39 11.11z"/><path class="cls-14" d="M116.28 81.64a48.9 48.9 0 0 0 1.63-11.42c-.08.11-.16.21-.24.31a22.77 22.77 0 0 0-1.39 11.11z"/><path class="cls-14" d="M116.28 81.64a48.9 48.9 0 0 0 1.63-11.42c-.08.11-.16.21-.24.31a22.77 22.77 0 0 0-1.39 11.11z"/><path class="cls-10" d="M108.33 87.9a42.81 42.81 0 0 1-2.29-10c-.13-1.1-.21-2.2-.25-3.29a37.38 37.38 0 0 1 .27-6q.19-1.48.5-3c1.08-5.42 2.81-10.8 7.68-15.38a48.74 48.74 0 0 0-3.24-6.46c-7.91 4.45-11.17 12.94-13 19.39-.21.87-.39 1.73-.54 2.6a47.79 47.79 0 0 0-.69 7.86q0 1.47.05 2.94a55.32 55.32 0 0 0 2.62 15.19c.33 1 .69 2 1.1 3.11 1.24 2.65 2.52 5.29 3.91 7.9a49.1 49.1 0 0 0 6.55-8.6q-.69-1.42-1.3-2.88c-.54-1.16-.98-2.28-1.37-3.38z"/><path class="cls-33" d="M108.33 87.9a42.81 42.81 0 0 1-2.29-10c-.13-1.1-.21-2.2-.25-3.29a37.38 37.38 0 0 1 .27-6q.19-1.48.5-3c1.08-5.42 2.81-10.8 7.68-15.38a48.74 48.74 0 0 0-3.24-6.46c-7.91 4.45-11.17 12.94-13 19.39-.21.87-.39 1.73-.54 2.6a47.79 47.79 0 0 0-.69 7.86q0 1.47.05 2.94a55.32 55.32 0 0 0 2.62 15.19c.33 1 .69 2 1.1 3.11 1.24 2.65 2.52 5.29 3.91 7.9a49.1 49.1 0 0 0 6.55-8.6q-.69-1.42-1.3-2.88c-.54-1.16-.98-2.28-1.37-3.38z"/><path class="cls-33" d="M108.33 87.9a42.81 42.81 0 0 1-2.29-10c-.13-1.1-.21-2.2-.25-3.29a37.38 37.38 0 0 1 .27-6q.19-1.48.5-3c1.08-5.42 2.81-10.8 7.68-15.38a48.74 48.74 0 0 0-3.24-6.46c-7.91 4.45-11.17 12.94-13 19.39-.21.87-.39 1.73-.54 2.6a47.79 47.79 0 0 0-.69 7.86q0 1.47.05 2.94a55.32 55.32 0 0 0 2.62 15.19c.33 1 .69 2 1.1 3.11 1.24 2.65 2.52 5.29 3.91 7.9a49.1 49.1 0 0 0 6.55-8.6q-.69-1.42-1.3-2.88c-.54-1.16-.98-2.28-1.37-3.38z"/><path class="cls-37" d="M108.33 87.9a42.81 42.81 0 0 1-2.29-10c-.13-1.1-.21-2.2-.25-3.29a37.38 37.38 0 0 1 .27-6q.19-1.48.5-3c1.08-5.42 2.81-10.8 7.68-15.38a48.74 48.74 0 0 0-3.24-6.46c-7.91 4.45-11.17 12.94-13 19.39-.21.87-.39 1.73-.54 2.6a47.79 47.79 0 0 0-.69 7.86q0 1.47.05 2.94a55.32 55.32 0 0 0 2.62 15.19c.33 1 .69 2 1.1 3.11 1.24 2.65 2.52 5.29 3.91 7.9a49.1 49.1 0 0 0 6.55-8.6q-.69-1.42-1.3-2.88c-.54-1.16-.98-2.28-1.37-3.38z"/><path class="cls-38" d="M108.33 87.9a42.81 42.81 0 0 1-2.29-10c-.13-1.1-.21-2.2-.25-3.29a37.38 37.38 0 0 1 .27-6q.19-1.48.5-3c1.08-5.42 2.81-10.8 7.68-15.38a48.74 48.74 0 0 0-3.24-6.46c-7.91 4.45-11.17 12.94-13 19.39-.21.87-.39 1.73-.54 2.6a47.79 47.79 0 0 0-.69 7.86q0 1.47.05 2.94a55.32 55.32 0 0 0 2.62 15.19c.33 1 .69 2 1.1 3.11 1.24 2.65 2.52 5.29 3.91 7.9a49.1 49.1 0 0 0 6.55-8.6q-.69-1.42-1.3-2.88c-.54-1.16-.98-2.28-1.37-3.38z"/><path class="cls-39" d="M108.33 87.9a42.81 42.81 0 0 1-2.29-10c-.13-1.1-.21-2.2-.25-3.29a37.38 37.38 0 0 1 .27-6q.19-1.48.5-3c1.08-5.42 2.81-10.8 7.68-15.38a48.74 48.74 0 0 0-3.24-6.46c-7.91 4.45-11.17 12.94-13 19.39-.21.87-.39 1.73-.54 2.6a47.79 47.79 0 0 0-.69 7.86q0 1.47.05 2.94a55.32 55.32 0 0 0 2.62 15.19c.33 1 .69 2 1.1 3.11 1.24 2.65 2.52 5.29 3.91 7.9a49.1 49.1 0 0 0 6.55-8.6q-.69-1.42-1.3-2.88c-.54-1.16-.98-2.28-1.37-3.38z"/><path class="cls-14" d="M108.33 87.9a42.81 42.81 0 0 1-2.29-10c-.13-1.1-.21-2.2-.25-3.29a37.38 37.38 0 0 1 .27-6q.19-1.48.5-3c1.08-5.42 2.81-10.8 7.68-15.38a48.74 48.74 0 0 0-3.24-6.46c-7.91 4.45-11.17 12.94-13 19.39-.21.87-.39 1.73-.54 2.6a47.79 47.79 0 0 0-.69 7.86q0 1.47.05 2.94a55.32 55.32 0 0 0 2.62 15.19c.33 1 .69 2 1.1 3.11 1.24 2.65 2.52 5.29 3.91 7.9a49.1 49.1 0 0 0 6.55-8.6q-.69-1.42-1.3-2.88c-.54-1.16-.98-2.28-1.37-3.38z"/><path class="cls-14" d="M108.33 87.9a42.81 42.81 0 0 1-2.29-10c-.13-1.1-.21-2.2-.25-3.29a37.38 37.38 0 0 1 .27-6q.19-1.48.5-3c1.08-5.42 2.81-10.8 7.68-15.38a48.74 48.74 0 0 0-3.24-6.46c-7.91 4.45-11.17 12.94-13 19.39-.21.87-.39 1.73-.54 2.6a47.79 47.79 0 0 0-.69 7.86q0 1.47.05 2.94a55.32 55.32 0 0 0 2.62 15.19c.33 1 .69 2 1.1 3.11 1.24 2.65 2.52 5.29 3.91 7.9a49.1 49.1 0 0 0 6.55-8.6q-.69-1.42-1.3-2.88c-.54-1.16-.98-2.28-1.37-3.38z"/><path class="cls-10" d="M89 109.52C83.16 99.18 80.93 88 80.55 77.13q-.13-1.82-.17-3.64a57.25 57.25 0 0 1 7.39-30.17q.91-1.57 1.94-3.09a38.76 38.76 0 0 1 8.63-10.4 49 49 0 0 0-5.8-3.74 48.43 48.43 0 0 0-9.07 12.28q-.91 1.47-1.73 3a65.75 65.75 0 0 0-8.22 31.33v3.43c-.11 12.45 3.31 24.93 9.63 36.75.46.84.94 1.68 1.43 2.52a48.63 48.63 0 0 0 6.27-2.61c-.07-.14-.15-.27-.21-.41q-.84-1.45-1.64-2.86z"/><path class="cls-33" d="M89 109.52C83.16 99.18 80.93 88 80.55 77.13q-.13-1.82-.17-3.64a57.25 57.25 0 0 1 7.39-30.17q.91-1.57 1.94-3.09a38.76 38.76 0 0 1 8.63-10.4 49 49 0 0 0-5.8-3.74 48.43 48.43 0 0 0-9.07 12.28q-.91 1.47-1.73 3a65.75 65.75 0 0 0-8.22 31.33v3.43c-.11 12.45 3.31 24.93 9.63 36.75.46.84.94 1.68 1.43 2.52a48.63 48.63 0 0 0 6.27-2.61c-.07-.14-.15-.27-.21-.41q-.84-1.45-1.64-2.86z"/><path class="cls-33" d="M89 109.52C83.16 99.18 80.93 88 80.55 77.13q-.13-1.82-.17-3.64a57.25 57.25 0 0 1 7.39-30.17q.91-1.57 1.94-3.09a38.76 38.76 0 0 1 8.63-10.4 49 49 0 0 0-5.8-3.74 48.43 48.43 0 0 0-9.07 12.28q-.91 1.47-1.73 3a65.75 65.75 0 0 0-8.22 31.33v3.43c-.11 12.45 3.31 24.93 9.63 36.75.46.84.94 1.68 1.43 2.52a48.63 48.63 0 0 0 6.27-2.61c-.07-.14-.15-.27-.21-.41q-.84-1.45-1.64-2.86z"/><path class="cls-40" d="M89 109.52C83.16 99.18 80.93 88 80.55 77.13q-.13-1.82-.17-3.64a57.25 57.25 0 0 1 7.39-30.17q.91-1.57 1.94-3.09a38.76 38.76 0 0 1 8.63-10.4 49 49 0 0 0-5.8-3.74 48.43 48.43 0 0 0-9.07 12.28q-.91 1.47-1.73 3a65.75 65.75 0 0 0-8.22 31.33v3.43c-.11 12.45 3.31 24.93 9.63 36.75.46.84.94 1.68 1.43 2.52a48.63 48.63 0 0 0 6.27-2.61c-.07-.14-.15-.27-.21-.41q-.84-1.45-1.64-2.86z"/><path class="cls-41" d="M89 109.52C83.16 99.18 80.93 88 80.55 77.13q-.13-1.82-.17-3.64a57.25 57.25 0 0 1 7.39-30.17q.91-1.57 1.94-3.09a38.76 38.76 0 0 1 8.63-10.4 49 49 0 0 0-5.8-3.74 48.43 48.43 0 0 0-9.07 12.28q-.91 1.47-1.73 3a65.75 65.75 0 0 0-8.22 31.33v3.43c-.11 12.45 3.31 24.93 9.63 36.75.46.84.94 1.68 1.43 2.52a48.63 48.63 0 0 0 6.27-2.61c-.07-.14-.15-.27-.21-.41q-.84-1.45-1.64-2.86z"/><path class="cls-42" d="M89 109.52C83.16 99.18 80.93 88 80.55 77.13q-.13-1.82-.17-3.64a57.25 57.25 0 0 1 7.39-30.17q.91-1.57 1.94-3.09a38.76 38.76 0 0 1 8.63-10.4 49 49 0 0 0-5.8-3.74 48.43 48.43 0 0 0-9.07 12.28q-.91 1.47-1.73 3a65.75 65.75 0 0 0-8.22 31.33v3.43c-.11 12.45 3.31 24.93 9.63 36.75.46.84.94 1.68 1.43 2.52a48.63 48.63 0 0 0 6.27-2.61c-.07-.14-.15-.27-.21-.41q-.84-1.45-1.64-2.86z"/><path class="cls-14" d="M89 109.52C83.16 99.18 80.93 88 80.55 77.13q-.13-1.82-.17-3.64a57.25 57.25 0 0 1 7.39-30.17q.91-1.57 1.94-3.09a38.76 38.76 0 0 1 8.63-10.4 49 49 0 0 0-5.8-3.74 48.43 48.43 0 0 0-9.07 12.28q-.91 1.47-1.73 3a65.75 65.75 0 0 0-8.22 31.33v3.43c-.11 12.45 3.31 24.93 9.63 36.75.46.84.94 1.68 1.43 2.52a48.63 48.63 0 0 0 6.27-2.61c-.07-.14-.15-.27-.21-.41q-.84-1.45-1.64-2.86z"/><path class="cls-14" d="M89 109.52C83.16 99.18 80.93 88 80.55 77.13q-.13-1.82-.17-3.64a57.25 57.25 0 0 1 7.39-30.17q.91-1.57 1.94-3.09a38.76 38.76 0 0 1 8.63-10.4 49 49 0 0 0-5.8-3.74 48.43 48.43 0 0 0-9.07 12.28q-.91 1.47-1.73 3a65.75 65.75 0 0 0-8.22 31.33v3.43c-.11 12.45 3.31 24.93 9.63 36.75.46.84.94 1.68 1.43 2.52a48.63 48.63 0 0 0 6.27-2.61c-.07-.14-.15-.27-.21-.41q-.84-1.45-1.64-2.86z"/><path class="cls-10" d="M69.66 108.11c-5.31-22.24-8.12-45-2.3-67.09q.46-1.75 1-3.49a83.89 83.89 0 0 1 7.33-17 49.47 49.47 0 0 0-3.88-.38q-3 5.44-5.5 11l-.82 2C56 57.72 54.9 83.81 60.38 109.33c.25 1.19.51 2.37.79 3.61.33 1.5.68 3 1 4.48a49.33 49.33 0 0 0 6.81.48c1 0 2 0 3-.1-.51-2-1-4.06-1.49-6.1-.27-1.24-.55-2.41-.83-3.59z"/><path class="cls-33" d="M69.66 108.11c-5.31-22.24-8.12-45-2.3-67.09q.46-1.75 1-3.49a83.89 83.89 0 0 1 7.33-17 49.47 49.47 0 0 0-3.88-.38q-3 5.44-5.5 11l-.82 2C56 57.72 54.9 83.81 60.38 109.33c.25 1.19.51 2.37.79 3.61.33 1.5.68 3 1 4.48a49.33 49.33 0 0 0 6.81.48c1 0 2 0 3-.1-.51-2-1-4.06-1.49-6.1-.27-1.24-.55-2.41-.83-3.59z"/><path class="cls-33" d="M69.66 108.11c-5.31-22.24-8.12-45-2.3-67.09q.46-1.75 1-3.49a83.89 83.89 0 0 1 7.33-17 49.47 49.47 0 0 0-3.88-.38q-3 5.44-5.5 11l-.82 2C56 57.72 54.9 83.81 60.38 109.33c.25 1.19.51 2.37.79 3.61.33 1.5.68 3 1 4.48a49.33 49.33 0 0 0 6.81.48c1 0 2 0 3-.1-.51-2-1-4.06-1.49-6.1-.27-1.24-.55-2.41-.83-3.59z"/><path class="cls-43" d="M69.66 108.11c-5.31-22.24-8.12-45-2.3-67.09q.46-1.75 1-3.49a83.89 83.89 0 0 1 7.33-17 49.47 49.47 0 0 0-3.88-.38q-3 5.44-5.5 11l-.82 2C56 57.72 54.9 83.81 60.38 109.33c.25 1.19.51 2.37.79 3.61.33 1.5.68 3 1 4.48a49.33 49.33 0 0 0 6.81.48c1 0 2 0 3-.1-.51-2-1-4.06-1.49-6.1-.27-1.24-.55-2.41-.83-3.59z"/><path class="cls-44" d="M69.66 108.11c-5.31-22.24-8.12-45-2.3-67.09q.46-1.75 1-3.49a83.89 83.89 0 0 1 7.33-17 49.47 49.47 0 0 0-3.88-.38q-3 5.44-5.5 11l-.82 2C56 57.72 54.9 83.81 60.38 109.33c.25 1.19.51 2.37.79 3.61.33 1.5.68 3 1 4.48a49.33 49.33 0 0 0 6.81.48c1 0 2 0 3-.1-.51-2-1-4.06-1.49-6.1-.27-1.24-.55-2.41-.83-3.59z"/><path class="cls-45" d="M69.66 108.11c-5.31-22.24-8.12-45-2.3-67.09q.46-1.75 1-3.49a83.89 83.89 0 0 1 7.33-17 49.47 49.47 0 0 0-3.88-.38q-3 5.44-5.5 11l-.82 2C56 57.72 54.9 83.81 60.38 109.33c.25 1.19.51 2.37.79 3.61.33 1.5.68 3 1 4.48a49.33 49.33 0 0 0 6.81.48c1 0 2 0 3-.1-.51-2-1-4.06-1.49-6.1-.27-1.24-.55-2.41-.83-3.59z"/><path class="cls-14" d="M69.66 108.11c-5.31-22.24-8.12-45-2.3-67.09q.46-1.75 1-3.49a83.89 83.89 0 0 1 7.33-17 49.47 49.47 0 0 0-3.88-.38q-3 5.44-5.5 11l-.82 2C56 57.72 54.9 83.81 60.38 109.33c.25 1.19.51 2.37.79 3.61.33 1.5.68 3 1 4.48a49.33 49.33 0 0 0 6.81.48c1 0 2 0 3-.1-.51-2-1-4.06-1.49-6.1-.27-1.24-.55-2.41-.83-3.59z"/><path class="cls-14" d="M69.66 108.11c-5.31-22.24-8.12-45-2.3-67.09q.46-1.75 1-3.49a83.89 83.89 0 0 1 7.33-17 49.47 49.47 0 0 0-3.88-.38q-3 5.44-5.5 11l-.82 2C56 57.72 54.9 83.81 60.38 109.33c.25 1.19.51 2.37.79 3.61.33 1.5.68 3 1 4.48a49.33 49.33 0 0 0 6.81.48c1 0 2 0 3-.1-.51-2-1-4.06-1.49-6.1-.27-1.24-.55-2.41-.83-3.59z"/><path class="cls-10" d="M51.11 84.77c-.3-21.91.23-44.12 14-64.55a48.86 48.86 0 0 0-7.59 1.2C44.8 51.33 44.48 83 49.83 114a48.59 48.59 0 0 0 6.57 2.25 145 145 0 0 1-5.06-29c-.08-.88-.16-1.69-.23-2.48z"/><path class="cls-33" d="M51.11 84.77c-.3-21.91.23-44.12 14-64.55a48.86 48.86 0 0 0-7.59 1.2C44.8 51.33 44.48 83 49.83 114a48.59 48.59 0 0 0 6.57 2.25 145 145 0 0 1-5.06-29c-.08-.88-.16-1.69-.23-2.48z"/><path class="cls-33" d="M51.11 84.77c-.3-21.91.23-44.12 14-64.55a48.86 48.86 0 0 0-7.59 1.2C44.8 51.33 44.48 83 49.83 114a48.59 48.59 0 0 0 6.57 2.25 145 145 0 0 1-5.06-29c-.08-.88-.16-1.69-.23-2.48z"/><path class="cls-46" d="M51.11 84.77c-.3-21.91.23-44.12 14-64.55a48.86 48.86 0 0 0-7.59 1.2C44.8 51.33 44.48 83 49.83 114a48.59 48.59 0 0 0 6.57 2.25 145 145 0 0 1-5.06-29c-.08-.88-.16-1.69-.23-2.48z"/><path class="cls-47" d="M51.11 84.77c-.3-21.91.23-44.12 14-64.55a48.86 48.86 0 0 0-7.59 1.2C44.8 51.33 44.48 83 49.83 114a48.59 48.59 0 0 0 6.57 2.25 145 145 0 0 1-5.06-29c-.08-.88-.16-1.69-.23-2.48z"/><path class="cls-48" d="M51.11 84.77c-.3-21.91.23-44.12 14-64.55a48.86 48.86 0 0 0-7.59 1.2C44.8 51.33 44.48 83 49.83 114a48.59 48.59 0 0 0 6.57 2.25 145 145 0 0 1-5.06-29c-.08-.88-.16-1.69-.23-2.48z"/><path class="cls-14" d="M51.11 84.77c-.3-21.91.23-44.12 14-64.55a48.86 48.86 0 0 0-7.59 1.2C44.8 51.33 44.48 83 49.83 114a48.59 48.59 0 0 0 6.57 2.25 145 145 0 0 1-5.06-29c-.08-.88-.16-1.69-.23-2.48z"/><path class="cls-14" d="M51.11 84.77c-.3-21.91.23-44.12 14-64.55a48.86 48.86 0 0 0-7.59 1.2C44.8 51.33 44.48 83 49.83 114a48.59 48.59 0 0 0 6.57 2.25 145 145 0 0 1-5.06-29c-.08-.88-.16-1.69-.23-2.48z"/><path class="cls-10" d="M44.8 102.22c-.68-5.62-1.23-11.29-1.6-17-.05-1.23-.1-2.43-.12-3.73-.11-19 1-38.16 5.49-57a48.92 48.92 0 0 0-8.8 5.21c-4.38 19.1-5.37 38-4.82 57.45l.12 3.41c.13 3.41.29 6.81.44 10.21q0 1.48.11 2.95c0 .35 0 .7.06 1.05a49.07 49.07 0 0 0 10.09 7.25c-.2-2.15-.4-4.3-.57-6.46-.13-1.1-.26-2.22-.4-3.34z"/><path class="cls-33" d="M44.8 102.22c-.68-5.62-1.23-11.29-1.6-17-.05-1.23-.1-2.43-.12-3.73-.11-19 1-38.16 5.49-57a48.92 48.92 0 0 0-8.8 5.21c-4.38 19.1-5.37 38-4.82 57.45l.12 3.41c.13 3.41.29 6.81.44 10.21q0 1.48.11 2.95c0 .35 0 .7.06 1.05a49.07 49.07 0 0 0 10.09 7.25c-.2-2.15-.4-4.3-.57-6.46-.13-1.1-.26-2.22-.4-3.34z"/><path class="cls-33" d="M44.8 102.22c-.68-5.62-1.23-11.29-1.6-17-.05-1.23-.1-2.43-.12-3.73-.11-19 1-38.16 5.49-57a48.92 48.92 0 0 0-8.8 5.21c-4.38 19.1-5.37 38-4.82 57.45l.12 3.41c.13 3.41.29 6.81.44 10.21q0 1.48.11 2.95c0 .35 0 .7.06 1.05a49.07 49.07 0 0 0 10.09 7.25c-.2-2.15-.4-4.3-.57-6.46-.13-1.1-.26-2.22-.4-3.34z"/><path class="cls-49" d="M44.8 102.22c-.68-5.62-1.23-11.29-1.6-17-.05-1.23-.1-2.43-.12-3.73-.11-19 1-38.16 5.49-57a48.92 48.92 0 0 0-8.8 5.21c-4.38 19.1-5.37 38-4.82 57.45l.12 3.41c.13 3.41.29 6.81.44 10.21q0 1.48.11 2.95c0 .35 0 .7.06 1.05a49.07 49.07 0 0 0 10.09 7.25c-.2-2.15-.4-4.3-.57-6.46-.13-1.1-.26-2.22-.4-3.34z"/><path class="cls-50" d="M44.8 102.22c-.68-5.62-1.23-11.29-1.6-17-.05-1.23-.1-2.43-.12-3.73-.11-19 1-38.16 5.49-57a48.92 48.92 0 0 0-8.8 5.21c-4.38 19.1-5.37 38-4.82 57.45l.12 3.41c.13 3.41.29 6.81.44 10.21q0 1.48.11 2.95c0 .35 0 .7.06 1.05a49.07 49.07 0 0 0 10.09 7.25c-.2-2.15-.4-4.3-.57-6.46-.13-1.1-.26-2.22-.4-3.34z"/><path class="cls-51" d="M44.8 102.22c-.68-5.62-1.23-11.29-1.6-17-.05-1.23-.1-2.43-.12-3.73-.11-19 1-38.16 5.49-57a48.92 48.92 0 0 0-8.8 5.21c-4.38 19.1-5.37 38-4.82 57.45l.12 3.41c.13 3.41.29 6.81.44 10.21q0 1.48.11 2.95c0 .35 0 .7.06 1.05a49.07 49.07 0 0 0 10.09 7.25c-.2-2.15-.4-4.3-.57-6.46-.13-1.1-.26-2.22-.4-3.34z"/><path class="cls-14" d="M44.8 102.22c-.68-5.62-1.23-11.29-1.6-17-.05-1.23-.1-2.43-.12-3.73-.11-19 1-38.16 5.49-57a48.92 48.92 0 0 0-8.8 5.21c-4.38 19.1-5.37 38-4.82 57.45l.12 3.41c.13 3.41.29 6.81.44 10.21q0 1.48.11 2.95c0 .35 0 .7.06 1.05a49.07 49.07 0 0 0 10.09 7.25c-.2-2.15-.4-4.3-.57-6.46-.13-1.1-.26-2.22-.4-3.34z"/><path class="cls-14" d="M44.8 102.22c-.68-5.62-1.23-11.29-1.6-17-.05-1.23-.1-2.43-.12-3.73-.11-19 1-38.16 5.49-57a48.92 48.92 0 0 0-8.8 5.21c-4.38 19.1-5.37 38-4.82 57.45l.12 3.41c.13 3.41.29 6.81.44 10.21q0 1.48.11 2.95c0 .35 0 .7.06 1.05a49.07 49.07 0 0 0 10.09 7.25c-.2-2.15-.4-4.3-.57-6.46-.13-1.1-.26-2.22-.4-3.34z"/><path class="cls-10" d="M34.77 36.53q.24-1.33.47-2.67v-.34a49.17 49.17 0 0 0-6.74 7.91 181.16 181.16 0 0 1-8.21 32.82A48.62 48.62 0 0 0 22.5 84.4a351.05 351.05 0 0 0 11.61-44.32q.34-1.78.66-3.55z"/><path class="cls-33" d="M34.77 36.53q.24-1.33.47-2.67v-.34a49.17 49.17 0 0 0-6.74 7.91 181.16 181.16 0 0 1-8.21 32.82A48.62 48.62 0 0 0 22.5 84.4a351.05 351.05 0 0 0 11.61-44.32q.34-1.78.66-3.55z"/><path class="cls-33" d="M34.77 36.53q.24-1.33.47-2.67v-.34a49.17 49.17 0 0 0-6.74 7.91 181.16 181.16 0 0 1-8.21 32.82A48.62 48.62 0 0 0 22.5 84.4a351.05 351.05 0 0 0 11.61-44.32q.34-1.78.66-3.55z"/><path class="cls-52" d="M34.77 36.53q.24-1.33.47-2.67v-.34a49.17 49.17 0 0 0-6.74 7.91 181.16 181.16 0 0 1-8.21 32.82A48.62 48.62 0 0 0 22.5 84.4a351.05 351.05 0 0 0 11.61-44.32q.34-1.78.66-3.55z"/><path class="cls-53" d="M34.77 36.53q.24-1.33.47-2.67v-.34a49.17 49.17 0 0 0-6.74 7.91 181.16 181.16 0 0 1-8.21 32.82A48.62 48.62 0 0 0 22.5 84.4a351.05 351.05 0 0 0 11.61-44.32q.34-1.78.66-3.55z"/><path class="cls-54" d="M34.77 36.53q.24-1.33.47-2.67v-.34a49.17 49.17 0 0 0-6.74 7.91 181.16 181.16 0 0 1-8.21 32.82A48.62 48.62 0 0 0 22.5 84.4a351.05 351.05 0 0 0 11.61-44.32q.34-1.78.66-3.55z"/><path class="cls-14" d="M34.77 36.53q.24-1.33.47-2.67v-.34a49.17 49.17 0 0 0-6.74 7.91 181.16 181.16 0 0 1-8.21 32.82A48.62 48.62 0 0 0 22.5 84.4a351.05 351.05 0 0 0 11.61-44.32q.34-1.78.66-3.55z"/><path class="cls-14" d="M34.77 36.53q.24-1.33.47-2.67v-.34a49.17 49.17 0 0 0-6.74 7.91 181.16 181.16 0 0 1-8.21 32.82A48.62 48.62 0 0 0 22.5 84.4a351.05 351.05 0 0 0 11.61-44.32q.34-1.78.66-3.55z"/><path class="cls-55" d="M115.3 57.72v-2c0-3-2.64-5.07-6.58-5.07a8.88 8.88 0 0 0-4.33.92l-.88-.48a4.35 4.35 0 0 0-2-.46 5.24 5.24 0 0 0-1.57.24h-6.26v1.35a7.94 7.94 0 0 0-5.14-1.57 7.35 7.35 0 0 0-5.88 2.42 5.56 5.56 0 0 0-4.84-2.42 6.51 6.51 0 0 0-.69 0v-3.34h-7.6v4.48a5.27 5.27 0 0 0-3.44-1.13 6.11 6.11 0 0 0-3.1.86 5.46 5.46 0 0 0-3.08-.86 6.27 6.27 0 0 0-1.87.28v-.07H40.87V48H33.2v2.7L30.88 48h-6.41v16.44h7.67v-2.7l2.33 2.69h6.4v-1.12a5.27 5.27 0 0 0 3.73 1.34 6.41 6.41 0 0 0 1.93-.3v.08h29.52a6 6 0 0 0 1.75.25 5.56 5.56 0 0 0 4.84-2.42c1.3 1.58 3.4 2.42 6.1 2.42a8.64 8.64 0 0 0 4.93-1.3v1.08h7.59v-6.28-.31h.38v1.45c0 3.68 3.48 5.33 6.92 5.33 6.26 0 6.94-3.76 6.94-5.38a4.93 4.93 0 0 0-.2-1.55z"/><path class="cls-56" d="M31.14 59.07l3.78 4.37h4.95V48.98H34.2v4.43l-3.78-4.43h-4.96v14.46h5.68v-4.37zM44.6 63.66a5.41 5.41 0 0 0 2.71-.73l.08.51h4.8V51.88h-5.6v6.61a.48.48 0 0 1-.51.51c-.13 0-.22 0-.22-.36v-6.76h-5.6v7.19c.01 2.93 1.58 4.59 4.34 4.59zM58 56.82c0-.08 0-.51.43-.51h.07a.63.63 0 0 1 .08.35v6.76h5.6v-6.6c0-.08 0-.51.43-.51h.07a.63.63 0 0 1 .08.35v6.76h5.6v-7.18c0-2.91-1.55-4.58-4.26-4.58a5.2 5.2 0 0 0-3.15 1.1 4.17 4.17 0 0 0-3-1.1 5.28 5.28 0 0 0-2.64.71l-.08-.49h-4.8v11.56H58zM113.54 56.73h.77v-1c0-2.48-2.19-4.08-5.58-4.08-3 0-4.44.92-5.16 2v-1.39L103 52a3.35 3.35 0 0 0-1.55-.34 4 4 0 0 0-2 .49v-.26h-4.8v3.73c-.7-2.56-2.82-3.95-6.14-3.95-3 0-5.16 1.31-6 3.6a4.57 4.57 0 0 0-4.74-3.6 5 5 0 0 0-1.68.28v-3.64h-5.6v15.13h4.73l.1-.43a4.71 4.71 0 0 0 2.46.65A4.57 4.57 0 0 0 82.55 60c.83 2.32 3 3.61 6.21 3.61s5.23-1.15 5.92-3.14v2.92h5.6v-5.21c0-1.11.29-1.3 1.12-1.3h1.6a3.16 3.16 0 0 0 .82 1.45h-1.19v1c0 3.2 3.19 4.33 5.93 4.33 5.17 0 5.94-2.75 5.94-4.39a3.38 3.38 0 0 0-.96-2.54zm-36.29 1.42c0 .85-.24.85-.56.85s-.6 0-.6-1v-.6c0-1.05.43-1.05.6-1.05.31 0 .56 0 .56.87zm11.43 1.21a1.35 1.35 0 0 1-.58-.09h1.18a1.42 1.42 0 0 1-.6.09z"/><path class="cls-57" d="M35.22 62.77l-4.75-5.49v5.49h-4.34V49.64h3.98l4.75 5.58v-5.58h4.34v13.13h-3.98zM44.6 63c-2.36 0-3.67-1.39-3.67-3.92v-6.54h4.27v6.09c0 .38.11 1 .88 1a1.13 1.13 0 0 0 1.17-1.17v-5.92h4.27v10.23H48l-.17-1A4.67 4.67 0 0 1 44.6 63zM65.41 62.77v-6.09c0-.31-.08-1-.81-1a1.1 1.1 0 0 0-1.1 1.17v5.95h-4.27v-6.12c0-.31-.08-1-.81-1a1.1 1.1 0 0 0-1.1 1.17v5.95h-4.27V52.54h3.57l.17 1a4.56 4.56 0 0 1 3.12-1.23 3.31 3.31 0 0 1 3 1.4 4.51 4.51 0 0 1 3.22-1.4c2.32 0 3.59 1.39 3.59 3.92v6.53zM77.81 63a3.83 3.83 0 0 1-2.87-1.16l-.21.94h-3.54V49h4.27v4a3.94 3.94 0 0 1 2.35-.7c2.82 0 4.37 1.89 4.37 5.32S80.63 63 77.81 63zm-1.12-7.34c-1.1 0-1.26 1.07-1.26 1.72V58c0 .63.16 1.7 1.26 1.7.57 0 1.23-.17 1.23-1.52v-1c-.01-1.35-.66-1.53-1.23-1.53zM88.75 63c-3.82 0-5.93-1.89-5.93-5.33s2.08-5.33 5.71-5.33 5.73 1.84 5.73 5.33v.95h-7.15A1.36 1.36 0 0 0 88.68 60c1.43 0 1.43-.8 1.43-1.06v-.33h4.16V59c0 2.52-2.01 4-5.52 4zm1.18-6.75a1.12 1.12 0 0 0-1.25-.95c-.83 0-1.3.3-1.5.95zM95.34 62.77V52.54h3.57l.14.83a3.12 3.12 0 0 1 2.45-1.07 2.69 2.69 0 0 1 1.23.26l.17.09v3.56h-1.5c-1.27 0-1.79.57-1.79 2v4.59zM108.59 63c-2.43 0-5.26-1-5.26-3.67V59h3.36c-1.53-.36-3.1-1.09-3.1-3.09 0-1.63.89-3.58 5.13-3.58 2.38 0 4.92.9 4.92 3.41v.33h-3.18c1.63.32 3.41 1 3.41 3.2 0 1.73-.87 3.73-5.28 3.73zm-1.24-3.59c0 .74 1 .77 1.24.77.53 0 1.17-.06 1.17-.37s-1-.43-1.73-.55l-.68-.12zm1.32-4.25c-.9 0-1 .22-1 .28 0 .23 1 .37 1.65.46h.28v-.19a.44.44 0 0 0-.28-.44 1.34 1.34 0 0 0-.65-.12z"/><path class="cls-58" d="M38.87 62.44h-3.5l-5.24-6.05v6.05h-3.67V50H30l5.24 6.14V50h3.68zM51.19 62.44h-3L48 61a4.22 4.22 0 0 1-3.41 1.67c-2.26 0-3.33-1.32-3.33-3.59v-6.2h3.61v5.76A1.19 1.19 0 0 0 46.08 60a1.47 1.47 0 0 0 1.5-1.5v-5.63h3.61zM69.35 56.24v6.2h-3.61v-5.76c0-.8-.4-1.36-1.14-1.36a1.43 1.43 0 0 0-1.43 1.5v5.62h-3.61v-5.76c0-.8-.4-1.36-1.14-1.36a1.43 1.43 0 0 0-1.42 1.5v5.62h-3.62v-9.57h3l.24 1.43a4.15 4.15 0 0 1 3.33-1.65 2.89 2.89 0 0 1 2.9 1.65 4.17 4.17 0 0 1 3.28-1.65c2.17.01 3.22 1.35 3.22 3.59zM75.13 53.76a3.5 3.5 0 0 1 2.68-1.11c2.54 0 4 1.65 4 5s-1.5 5-4 5a3.45 3.45 0 0 1-3-1.58l-.31 1.36h-2.98V49.3h3.61zm0 3.61V58c0 1.12.47 2 1.59 2s1.56-.72 1.56-1.85v-1c0-1.12-.43-1.87-1.56-1.87s-1.63.96-1.63 2.09zM93.94 57.66v.62h-7.18c0 1.32.54 2.08 1.92 2.08s1.76-.62 1.76-1.4h3.5c0 2.28-1.74 3.7-5.18 3.7s-5.6-1.56-5.6-5 2.12-5 5.38-5c3.46 0 5.4 1.56 5.4 5zm-7.16-1.09h3.52A1.49 1.49 0 0 0 88.68 55a1.69 1.69 0 0 0-1.9 1.57zM102.56 52.86v3h-1.16c-1.56 0-2.12.85-2.12 2.3v4.26h-3.61v-9.55h3l.24 1.45a2.69 2.69 0 0 1 2.63-1.69 2.4 2.4 0 0 1 1.02.23zM113.31 55.74H110a.77.77 0 0 0-.47-.74 1.67 1.67 0 0 0-.82-.18c-.31 0-1.3 0-1.3.62 0 1.38 6.18-.05 6.18 3.84 0 2.63-2.32 3.39-4.95 3.39-2.39 0-4.93-.94-4.93-3.33H107v.07c0 .92 1.05 1.11 1.58 1.11s1.5 0 1.5-.71c0-1.43-6.18-.13-6.18-3.9 0-2.52 2.28-3.24 4.8-3.24 2.3-.01 4.61.8 4.61 3.07z"/><path class="cls-55" d="M112.9 66.48h-5l-1.89.07-.01 1.54h-1c-3.25 0-5 1-5.91 2.1a5 5 0 0 0-4.38-2.1 6.37 6.37 0 0 0-1.93.3v-.08h-5V64.7h-7.63v3.35h-.36a5.24 5.24 0 0 0-1.57.24H72v1.35a7.94 7.94 0 0 0-5.14-1.57 7.79 7.79 0 0 0-5.14 1.65v-5H54.1v3.39a6.29 6.29 0 0 0-.69 0 6 6 0 0 0-3.36.93l-.9-.49a4.35 4.35 0 0 0-2-.46 5.24 5.24 0 0 0-1.57.24h-6.27v1.37a7.83 7.83 0 0 0-5.14-1.65c-4.55 0-7.38 2.68-7.38 7s2.83 7 7.38 7a7.83 7.83 0 0 0 5.14-1.65v1.43h7.59v-6.25-.31h.46c.08 4.25 2.32 6.78 6 6.78a6 6 0 0 0 1.75-.25h6.52v-1.44A8.19 8.19 0 0 0 67.06 82 8.64 8.64 0 0 0 72 80.75v1.08h7.59v-6.25-.31h.57v6.56h17a4.33 4.33 0 0 0 4.37 3.81h5.33c3.49 0 6-2.22 6-5.27a4.8 4.8 0 0 0-2.12-4.23 4.75 4.75 0 0 0 1-3 4.3 4.3 0 0 0-.22-1.36 4.36 4.36 0 0 0 1.31-3.29z"/><path class="cls-56" d="M73 77.91v2.92h5.6v-5.25c0-1.11.29-1.3 1.12-1.3h1.45v6.56h5.6V65.7h-5.6v3.59a3.57 3.57 0 0 0-1.38-.29 4 4 0 0 0-2 .49v-.26H73V73c-.7-2.56-2.82-3.95-6.14-3.95s-5.45 1.5-6.14 4.09V65.7H55.1v3.64a5 5 0 0 0-1.68-.28 4.52 4.52 0 0 0-4.22 2.3v-1.7l-.52-.28a3.35 3.35 0 0 0-1.56-.38 4 4 0 0 0-2 .49v-.26h-4.8v3.81c-.71-2.55-2.9-4-6.14-4-4 0-6.38 2.24-6.38 6s2.38 6 6.38 6c3.24 0 5.43-1.47 6.14-4v3.81h5.6v-5.27c0-1.11.29-1.3 1.12-1.3h1.36v.76c0 3.82 1.84 6 5 6a4.71 4.71 0 0 0 2.46-.65l.1.43h4.74V77c.7 2.62 2.93 4.08 6.36 4.08 3.12-.03 5.23-1.18 5.94-3.17zm-38-2.33c0 1-.3 1-.8 1s-.78-.07-.78-1v-1c0-1.05.36-1.05.78-1.05s.8 0 .8 1.05zm20.17-.22c0 1-.42 1-.6 1s-.56 0-.56-.85v-1c0-.87.25-.87.56-.87.16 0 .6 0 .6 1.05zm11.28 1.31h1.18a1.42 1.42 0 0 1-.6.09 1.35 1.35 0 0 1-.62-.09zM107 67.51v.88a1.73 1.73 0 0 1-.65.72 11.57 11.57 0 0 0-1.34-.06c-5.16 0-5.93 2.57-5.93 4.1a3.23 3.23 0 0 0 .8 2.08 3.25 3.25 0 0 0-.88 1.12v-2.71c0-2.91-1.58-4.58-4.33-4.58a5.4 5.4 0 0 0-2.71.73l-.08-.52h-4.8v11.56h5.6v-6.61a.48.48 0 0 1 .51-.51c.13 0 .22 0 .22.36v6.76h4.81a3 3 0 0 0 0 .47 3.34 3.34 0 0 0 3.41 3.33h5.33c3 0 5-1.76 5-4.28a3.72 3.72 0 0 0-3-3.93 3.73 3.73 0 0 0 1.89-3.3 3.37 3.37 0 0 0-.46-1.67 3.26 3.26 0 0 0 1.54-3v-1h-4zm-8 11.68v-.53a3 3 0 0 0 .18.34zm6.31-5.93a.7.7 0 0 1-.39.07 1.05 1.05 0 0 1-.34 0 .46.46 0 0 1 0-.16c0-.11 0-.2.36-.2a.73.73 0 0 1 .39.07.43.43 0 0 1 0 .13.48.48 0 0 1-.04.09z"/><path class="cls-57" d="M34.17 80.39c-3.63 0-5.71-1.94-5.71-5.33s2.08-5.33 5.71-5.33 5.73 1.94 5.73 5.33-2.09 5.33-5.73 5.33zm0-7.56c-.67 0-1.44.19-1.44 1.72v1c0 1.17.45 1.7 1.44 1.7s1.46-.52 1.46-1.7v-1c0-1.55-.83-1.72-1.46-1.72zM41 80.17V69.94h3.57l.14.83a3.12 3.12 0 0 1 2.45-1.07 2.69 2.69 0 0 1 1.23.26l.17.09v3.56H47c-1.27 0-1.79.57-1.79 2v4.59zM53.41 80.39c-2.82 0-4.41-1.9-4.41-5.39s1.55-5.32 4.37-5.32a4 4 0 0 1 2.35.71v-4.02H60v13.8h-3.5l-.21-.94a3.83 3.83 0 0 1-2.88 1.16zM54.54 73c-.57 0-1.23.17-1.23 1.53v1c0 1.34.66 1.52 1.23 1.52 1.1 0 1.26-1.06 1.26-1.7v-.6c0-.63-.17-1.75-1.26-1.75zM67.06 80.39c-3.82 0-5.93-1.89-5.93-5.33s2.08-5.33 5.71-5.33 5.73 1.84 5.73 5.33V76h-7.16A1.36 1.36 0 0 0 67 77.42c1.43 0 1.43-.8 1.43-1.06V76h4.16v.33c-.02 2.59-2.03 4.06-5.53 4.06zm1.18-6.75a1.12 1.12 0 0 0-1.24-.95c-.83 0-1.3.3-1.5.95zM73.64 80.17V69.94h3.57l.14.83a3.12 3.12 0 0 1 2.45-1.07 2.69 2.69 0 0 1 1.2.3l.17.09v3.56H79.7c-1.27 0-1.79.57-1.79 2v4.59zM81.82 80.17V69.94h4.27v10.23zm0-10.69v-3.11h4.27v3.11zM94 80.17v-6.1c0-.38-.11-1-.88-1A1.13 1.13 0 0 0 92 74.22v5.95h-4.28V69.94h3.57l.17 1a4.69 4.69 0 0 1 3.19-1.25c2.36 0 3.67 1.39 3.67 3.92v6.53zM101.55 84a2.62 2.62 0 0 1-1.47-4.86 2.3 2.3 0 0 1-.69-1.63 2.49 2.49 0 0 1 1.47-2.14 2.89 2.89 0 0 1-1.18-2.19c0-1.57.91-3.43 5.26-3.43a9.59 9.59 0 0 1 1.51.09c1.11-.72 1.15-1.33 1.15-1.34v-.32h3.62v.33a2.64 2.64 0 0 1-1.88 2.73 2.81 2.81 0 0 1 .8 1.92c0 2.07-1.71 3.41-4.36 3.41h-1.38c-.59 0-.81.12-.81.19s.57.23.81.23h3.26c2.23 0 3.56 1.27 3.56 3.39S109.45 84 106.88 84zm2-3.81a.54.54 0 0 0-.61.54.57.57 0 0 0 .61.59h2.83a.57.57 0 0 0 .63-.57.56.56 0 0 0-.63-.56zm1.4-7.9c-.38 0-1 .11-1 .86 0 .4.12.86 1 .86 1.06 0 1.06-.65 1.06-.86s-.01-.88-1.1-.88z"/><path class="cls-58" d="M39.57 75.05c0 3.35-2.14 5-5.4 5s-5.38-1.65-5.38-5 2.12-5 5.38-5 5.4 1.65 5.4 5zm-7.18-.51v1c0 1.27.51 2 1.78 2s1.79-.76 1.79-2v-1c0-1.27-.53-2-1.79-2s-1.78.74-1.78 2.01zM48.19 70.25v3H47c-1.56 0-2.12.85-2.12 2.3v4.26h-3.57v-9.54h3l.24 1.45A2.69 2.69 0 0 1 47.13 70a2.4 2.4 0 0 1 1.06.25zM59.7 79.84h-2.94l-.31-1.36a3.45 3.45 0 0 1-3 1.58c-2.54 0-4-1.65-4-5s1.5-5 4-5a3.53 3.53 0 0 1 2.68 1.11V66.7h3.57zM53 74.58v1c0 1.12.43 1.85 1.56 1.85s1.59-.91 1.59-2v-.6c0-1.12-.47-2-1.59-2S53 73.46 53 74.58zM72.24 75.05v.62h-7.18c0 1.32.54 2.08 1.92 2.08s1.76-.62 1.76-1.4h3.5c0 2.28-1.74 3.7-5.18 3.7s-5.6-1.56-5.6-5 2.12-5 5.38-5c3.44 0 5.4 1.56 5.4 5zM65.08 74h3.52a1.49 1.49 0 0 0-1.6-1.65A1.69 1.69 0 0 0 65.08 74zM80.86 70.25v3H79.7c-1.56 0-2.12.85-2.12 2.3v4.26H74v-9.54h3l.24 1.45A2.69 2.69 0 0 1 79.79 70a2.4 2.4 0 0 1 1.07.25zM85.75 69.15h-3.6V66.7h3.61zm0 10.69h-3.6v-9.57h3.61zM98 73.64v6.2h-3.62v-5.77a1.19 1.19 0 0 0-1.21-1.36 1.47 1.47 0 0 0-1.5 1.5v5.62h-3.61v-9.56h3l.24 1.45a4.28 4.28 0 0 1 3.41-1.67c2.21 0 3.29 1.32 3.29 3.59zM110.9 68.47c0 1.56-.83 2.23-2.21 2.59a2.59 2.59 0 0 1 1.12 2.07c0 2.14-1.88 3.08-4 3.08h-1.38c-.83 0-1.14.22-1.14.53s.22.56 1.14.56h3.26c2.21 0 3.23 1.29 3.23 3.06 0 2.14-1.88 3.28-4 3.28h-5.33a2.36 2.36 0 0 1-2.41-2.34 2.45 2.45 0 0 1 1.52-2.14 2 2 0 0 1-.94-1.69 2.28 2.28 0 0 1 1.83-2 2.9 2.9 0 0 1-1.59-2.32c0-2.37 2.25-3.1 4.93-3.1a8.6 8.6 0 0 1 1.58.11c1.43-.89 1.41-1.69 1.41-1.69zm-7.39 11.36a.86.86 0 0 0-.94.87.9.9 0 0 0 .94.92h2.83a.9.9 0 0 0 1-.91.89.89 0 0 0-1-.89zm0-6.7c0 .82.51 1.2 1.36 1.2s1.4-.38 1.4-1.2-.54-1.2-1.4-1.2-1.32.39-1.32 1.2z"/><path class="cls-55" d="M55.85 98.69a7.14 7.14 0 0 1-3.37-.76l-1.19.4a9 9 0 0 1-2.45.36c-4.27 0-4.6-3.06-4.6-4v-1.77h-1.06V87h1.63l.61-2.28h5.63V87h1.6v.5a7.26 7.26 0 0 1 3.2-.67c3.85 0 6.24 2.27 6.24 5.93s-2.39 5.93-6.24 5.93z"/><path class="cls-56" d="M55.85 87.84a5.18 5.18 0 0 0-4.2 1.7V88h-1.6v-2.27h-3.86L45.58 88h-1.4v3.92h1.05v2.76c0 1.12.47 3 3.6 3a8.08 8.08 0 0 0 2.17-.29l.68-.23V96a5.18 5.18 0 0 0 4.2 1.7c3.28 0 5.24-1.84 5.24-4.93s-1.98-4.93-5.27-4.93zm-5.8 5.94v-1.86h.63a6.55 6.55 0 0 0-.06.84 6.47 6.47 0 0 0 .08 1zm6.21-.6c0 .6-.11.6-.41.6s-.4 0-.4-.6v-.81c0-.61.11-.61.4-.61s.41 0 .41.61z"/><path class="cls-55" d="M89 98.69a6 6 0 0 1-4.78-2 5.78 5.78 0 0 1-4.72 2 6 6 0 0 1-4.78-2 5.78 5.78 0 0 1-4.72 2c-3.54 0-5.91-2.13-5.91-5.3v-1.84a5.14 5.14 0 0 1-.22-1.55c0-3.24 2.47-5.41 6.15-5.41a6 6 0 0 1 4.68 1.85 6.43 6.43 0 0 1 4.82-1.85 6 6 0 0 1 4.68 1.85 6.43 6.43 0 0 1 4.8-1.88c4 0 6.24 2.49 6.24 6.82.02 6.36-3.89 7.31-6.24 7.31z"/><path class="cls-56" d="M89 85.56c-2.39 0-4.13 1-4.83 2.69a4.71 4.71 0 0 0-4.67-2.69c-2.39 0-4.13 1-4.83 2.69A4.71 4.71 0 0 0 70 85.56c-3.13 0-5.16 1.73-5.16 4.42a3.86 3.86 0 0 0 .8 2.42h-.56v1c0 2.61 1.93 4.3 4.91 4.3 2.42 0 4-1 4.75-3.06.52 1.89 2.27 3.06 4.75 3.06s4-1 4.75-3.06c.52 1.89 2.27 3.06 4.75 3.06 3.48 0 5.24-2.12 5.24-6.31.03-4.82-2.82-5.83-5.23-5.83zm-19 4.71c-.32 0-.38 0-.38-.4s0-.4.4-.4.4.05.4.43-.03.37-.42.37zm9.5 0c-.32 0-.38 0-.38-.4s0-.4.4-.4.4.05.4.43-.03.37-.43.37zm9.5 0c-.32 0-.38 0-.38-.4s.05-.4.4-.4.4.05.4.43-.03.37-.42.37z"/><path class="cls-57" d="M48.83 97c-1.95 0-2.94-.79-2.94-2.34v-3.4h-1.05v-2.59h1.25l.61-2.28h2.7v2.28H51v2.59h-1.6v2.53c0 .62.14.65.47.65H51v2.24l-.23.08a7.43 7.43 0 0 1-1.94.24zM55.85 97c-2.9 0-4.56-1.55-4.56-4.26S53 88.5 55.85 88.5s4.58 1.55 4.58 4.26S58.76 97 55.85 97zm0-5.94c-.53 0-1.06.15-1.06 1.28v.81c0 1.11.54 1.26 1.06 1.26s1.08-.15 1.08-1.26v-.81c0-1.11-.58-1.25-1.08-1.25zM70 97c-2.62 0-4.25-1.39-4.25-3.64v-.33h2A3.15 3.15 0 0 1 65.53 90c0-2.31 1.72-3.75 4.49-3.75 3.08 0 4.58 1.69 4.58 5.16 0 3.82-1.45 5.59-4.6 5.59zm-1-3.54a.89.89 0 0 0 1 .95c1 0 1.09-1 1.09-1.38v-.19a3.84 3.84 0 0 1-1.73.44H69zm1-4.68a1.06 1.06 0 0 0 0 2.13c.73 0 1.08-.34 1.08-1a1 1 0 0 0-1.08-1.1zM79.52 97c-2.62 0-4.25-1.39-4.25-3.64v-.33h2A3.15 3.15 0 0 1 75 90c0-2.31 1.72-3.75 4.49-3.75 3.08 0 4.58 1.69 4.58 5.16.03 3.82-1.43 5.59-4.55 5.59zm-1-3.54a.89.89 0 0 0 1 .95c1 0 1.09-1 1.09-1.38v-.19a3.84 3.84 0 0 1-1.73.44h-.37zm1-4.68a1.06 1.06 0 0 0 0 2.13c.73 0 1.08-.34 1.08-1a1 1 0 0 0-1.09-1.1zM89 97c-2.62 0-4.25-1.39-4.25-3.64v-.33h2A3.15 3.15 0 0 1 84.53 90c0-2.31 1.72-3.75 4.49-3.75 3.08 0 4.58 1.69 4.58 5.16 0 3.82-1.46 5.59-4.6 5.59zm-1-3.54a.89.89 0 0 0 1 .95c1 0 1.09-1 1.09-1.38v-.19a3.84 3.84 0 0 1-1.73.44H88zm1-4.68a1.06 1.06 0 0 0 0 2.13c.73 0 1.08-.34 1.08-1a1 1 0 0 0-1.08-1.1z"/><path class="cls-58" d="M49.06 89h1.6v1.92h-1.6v2.86c0 .64.16 1 .8 1h.8v1.67a7.13 7.13 0 0 1-1.82.26c-1.54 0-2.61-.47-2.61-2v-3.78h-1.06V89h1.17l.66-2.27h2.11zM60.1 92.76c0 2.63-1.68 3.93-4.24 3.93s-4.23-1.3-4.23-3.93 1.67-3.93 4.23-3.93 4.24 1.3 4.24 3.93zm-5.64-.4v.81c0 1 .4 1.6 1.4 1.6s1.41-.6 1.41-1.6v-.81c0-1-.41-1.61-1.41-1.61s-1.4.62-1.4 1.62zM74.27 91.38c0 3.8-1.4 5.31-4.24 5.31-2.32 0-3.92-1.14-3.92-3.3h2.54v.1A1.22 1.22 0 0 0 70 94.77c.91 0 1.42-.68 1.42-1.71v-.83a3.26 3.26 0 0 1-2.07.74c-1.94 0-3.48-1.05-3.48-3 0-2.19 1.62-3.42 4.16-3.42 2.84.01 4.24 1.51 4.24 4.83zm-5.65-1.51a1.4 1.4 0 0 0 2.79 0A1.28 1.28 0 0 0 70 88.48a1.26 1.26 0 0 0-1.39 1.39zM83.77 91.38c0 3.8-1.4 5.31-4.24 5.31-2.32 0-3.92-1.14-3.92-3.3h2.54v.1a1.22 1.22 0 0 0 1.34 1.28c.91 0 1.42-.68 1.42-1.71v-.83a3.26 3.26 0 0 1-2.07.74c-1.94 0-3.48-1.05-3.48-3 0-2.19 1.62-3.42 4.16-3.42 2.85.01 4.25 1.51 4.25 4.83zm-5.65-1.51a1.4 1.4 0 0 0 2.79 0 1.28 1.28 0 0 0-1.4-1.42 1.26 1.26 0 0 0-1.4 1.42zM93.27 91.38c0 3.8-1.4 5.31-4.24 5.31-2.32 0-3.92-1.14-3.92-3.3h2.54v.1A1.22 1.22 0 0 0 89 94.77c.91 0 1.42-.68 1.42-1.71v-.83a3.26 3.26 0 0 1-2.07.74c-1.94 0-3.48-1.05-3.48-3 0-2.19 1.62-3.42 4.16-3.42 2.84.01 4.24 1.51 4.24 4.83zm-5.65-1.51a1.4 1.4 0 0 0 2.79 0A1.28 1.28 0 0 0 89 88.48a1.26 1.26 0 0 0-1.39 1.39z"/><path class="cls-59" d="M38.87 62.44h-3.5l-5.24-6.05v6.05h-3.67V50H30l5.24 6.14V50h3.68z"/><path class="cls-60" d="M51.19 62.44h-3L48 61a4.22 4.22 0 0 1-3.41 1.67c-2.26 0-3.33-1.32-3.33-3.59v-6.2h3.61v5.76A1.19 1.19 0 0 0 46.08 60a1.47 1.47 0 0 0 1.5-1.5v-5.63h3.61z"/><path class="cls-61" d="M69.35 56.24v6.2h-3.61v-5.76c0-.8-.4-1.36-1.14-1.36a1.43 1.43 0 0 0-1.43 1.5v5.62h-3.61v-5.76c0-.8-.4-1.36-1.14-1.36a1.43 1.43 0 0 0-1.42 1.5v5.62h-3.62v-9.57h3l.24 1.43a4.15 4.15 0 0 1 3.33-1.65 2.89 2.89 0 0 1 2.9 1.65 4.17 4.17 0 0 1 3.28-1.65c2.17.01 3.22 1.35 3.22 3.59z"/><path class="cls-62" d="M75.13 53.76a3.5 3.5 0 0 1 2.68-1.11c2.54 0 4 1.65 4 5s-1.5 5-4 5a3.45 3.45 0 0 1-3-1.58l-.31 1.36h-2.98V49.3h3.61zm0 3.61V58c0 1.12.47 2 1.59 2s1.56-.72 1.56-1.85v-1c0-1.12-.43-1.87-1.56-1.87s-1.63.96-1.63 2.09z"/><path class="cls-63" d="M93.94 57.66v.62h-7.18c0 1.32.54 2.08 1.92 2.08s1.76-.62 1.76-1.4h3.5c0 2.28-1.74 3.7-5.18 3.7s-5.6-1.56-5.6-5 2.12-5 5.38-5c3.46 0 5.4 1.56 5.4 5zm-7.16-1.09h3.52A1.49 1.49 0 0 0 88.68 55a1.69 1.69 0 0 0-1.9 1.57z"/><path class="cls-64" d="M102.56 52.86v3h-1.16c-1.56 0-2.12.85-2.12 2.3v4.26h-3.61v-9.55h3l.24 1.45a2.69 2.69 0 0 1 2.63-1.69 2.4 2.4 0 0 1 1.02.23z"/><path class="cls-65" d="M113.31 55.74H110a.77.77 0 0 0-.47-.74 1.67 1.67 0 0 0-.82-.18c-.31 0-1.3 0-1.3.62 0 1.38 6.18-.05 6.18 3.84 0 2.63-2.32 3.39-4.95 3.39-2.39 0-4.93-.94-4.93-3.33H107v.07c0 .92 1.05 1.11 1.58 1.11s1.5 0 1.5-.71c0-1.43-6.18-.13-6.18-3.9 0-2.52 2.28-3.24 4.8-3.24 2.3-.01 4.61.8 4.61 3.07z"/><path class="cls-66" d="M39.57 75.05c0 3.35-2.14 5-5.4 5s-5.38-1.65-5.38-5 2.12-5 5.38-5 5.4 1.65 5.4 5zm-7.18-.51v1c0 1.27.51 2 1.78 2s1.79-.76 1.79-2v-1c0-1.27-.53-2-1.79-2s-1.78.74-1.78 2.01z"/><path class="cls-67" d="M48.19 70.25v3H47c-1.56 0-2.12.85-2.12 2.3v4.26h-3.57v-9.54h3l.24 1.45A2.69 2.69 0 0 1 47.13 70a2.4 2.4 0 0 1 1.06.25z"/><path class="cls-68" d="M59.7 79.84h-2.94l-.31-1.36a3.45 3.45 0 0 1-3 1.58c-2.54 0-4-1.65-4-5s1.5-5 4-5a3.53 3.53 0 0 1 2.68 1.11V66.7h3.57zM53 74.58v1c0 1.12.43 1.85 1.56 1.85s1.59-.91 1.59-2v-.6c0-1.12-.47-2-1.59-2S53 73.46 53 74.58z"/><path class="cls-69" d="M72.24 75.05v.62h-7.18c0 1.32.54 2.08 1.92 2.08s1.76-.62 1.76-1.4h3.5c0 2.28-1.74 3.7-5.18 3.7s-5.6-1.56-5.6-5 2.12-5 5.38-5c3.44 0 5.4 1.56 5.4 5zM65.08 74h3.52a1.49 1.49 0 0 0-1.6-1.65A1.69 1.69 0 0 0 65.08 74z"/><path class="cls-70" d="M80.86 70.25v3H79.7c-1.56 0-2.12.85-2.12 2.3v4.26H74v-9.54h3l.24 1.45A2.69 2.69 0 0 1 79.79 70a2.4 2.4 0 0 1 1.07.25z"/><path class="cls-71" d="M85.75 69.15h-3.6V66.7h3.61zm0 10.69h-3.6v-9.57h3.61z"/><path class="cls-72" d="M98 73.64v6.2h-3.62v-5.77a1.19 1.19 0 0 0-1.21-1.36 1.47 1.47 0 0 0-1.5 1.5v5.62h-3.61v-9.56h3l.24 1.45a4.28 4.28 0 0 1 3.41-1.67c2.21 0 3.29 1.32 3.29 3.59z"/><path class="cls-73" d="M110.9 68.47c0 1.56-.83 2.23-2.21 2.59a2.59 2.59 0 0 1 1.12 2.07c0 2.14-1.88 3.08-4 3.08h-1.38c-.83 0-1.14.22-1.14.53s.22.56 1.14.56h3.26c2.21 0 3.23 1.29 3.23 3.06 0 2.14-1.88 3.28-4 3.28h-5.33a2.36 2.36 0 0 1-2.41-2.34 2.45 2.45 0 0 1 1.52-2.14 2 2 0 0 1-.94-1.69 2.28 2.28 0 0 1 1.83-2 2.9 2.9 0 0 1-1.59-2.32c0-2.37 2.25-3.1 4.93-3.1a8.6 8.6 0 0 1 1.58.11c1.43-.89 1.41-1.69 1.41-1.69zm-7.39 11.36a.86.86 0 0 0-.94.87.9.9 0 0 0 .94.92h2.83a.9.9 0 0 0 1-.91.89.89 0 0 0-1-.89zm0-6.7c0 .82.51 1.2 1.36 1.2s1.4-.38 1.4-1.2-.54-1.2-1.4-1.2-1.32.39-1.32 1.2z"/><path class="cls-74" d="M49.06 89h1.6v1.92h-1.6v2.86c0 .64.16 1 .8 1h.8v1.67a7.13 7.13 0 0 1-1.82.26c-1.54 0-2.61-.47-2.61-2v-3.78h-1.06V89h1.17l.66-2.27h2.11z"/><path class="cls-75" d="M60.1 92.76c0 2.63-1.68 3.93-4.24 3.93s-4.23-1.3-4.23-3.93 1.67-3.93 4.23-3.93 4.24 1.3 4.24 3.93zm-5.64-.4v.81c0 1 .4 1.6 1.4 1.6s1.41-.6 1.41-1.6v-.81c0-1-.41-1.61-1.41-1.61s-1.4.62-1.4 1.62z"/><path class="cls-76" d="M74.27 91.38c0 3.8-1.4 5.31-4.24 5.31-2.32 0-3.92-1.14-3.92-3.3h2.54v.1A1.22 1.22 0 0 0 70 94.77c.91 0 1.42-.68 1.42-1.71v-.83a3.26 3.26 0 0 1-2.07.74c-1.94 0-3.48-1.05-3.48-3 0-2.19 1.62-3.42 4.16-3.42 2.84.01 4.24 1.51 4.24 4.83zm-5.65-1.51a1.4 1.4 0 0 0 2.79 0A1.28 1.28 0 0 0 70 88.48a1.26 1.26 0 0 0-1.39 1.39z"/><path class="cls-77" d="M83.77 91.38c0 3.8-1.4 5.31-4.24 5.31-2.32 0-3.92-1.14-3.92-3.3h2.54v.1a1.22 1.22 0 0 0 1.34 1.28c.91 0 1.42-.68 1.42-1.71v-.83a3.26 3.26 0 0 1-2.07.74c-1.94 0-3.48-1.05-3.48-3 0-2.19 1.62-3.42 4.16-3.42 2.85.01 4.25 1.51 4.25 4.83zm-5.65-1.51a1.4 1.4 0 0 0 2.79 0 1.28 1.28 0 0 0-1.4-1.42 1.26 1.26 0 0 0-1.4 1.42z"/><path class="cls-78" d="M93.27 91.38c0 3.8-1.4 5.31-4.24 5.31-2.32 0-3.92-1.14-3.92-3.3h2.54v.1A1.22 1.22 0 0 0 89 94.77c.91 0 1.42-.68 1.42-1.71v-.83a3.26 3.26 0 0 1-2.07.74c-1.94 0-3.48-1.05-3.48-3 0-2.19 1.62-3.42 4.16-3.42 2.84.01 4.24 1.51 4.24 4.83zm-5.65-1.51a1.4 1.4 0 0 0 2.79 0A1.28 1.28 0 0 0 89 88.48a1.26 1.26 0 0 0-1.39 1.39z"/></g></g></svg>