<svg id="Layer_1" data-name="Layer 1" xmlns="http://www.w3.org/2000/svg" viewBox="0 0 59.98 108.2"><defs><style>.cls-1{fill:#d96e4c;}.cls-2{fill:#6e3a22;}.cls-3{fill:#c78748;}.cls-4{fill:#d4a964;}.cls-5{fill:#73ae42;}</style></defs><title>chaire</title><path class="cls-1" d="M13.23,79.29l-.64-1.82H8.93l-.64,1.82H7.19l3-8.32h1.19l3,8.32Zm-4-2.69h3l-1.52-4.3Z" transform="translate(-0.46)"/><path class="cls-1" d="M19.78,78.46a3.9,3.9,0,0,1,0-4.93,3,3,0,0,1,2.28-.94,3.13,3.13,0,0,1,1.92.55,2.9,2.9,0,0,1,1,1.57H23.85a1.72,1.72,0,0,0-.65-.9,1.94,1.94,0,0,0-1.14-.32,1.87,1.87,0,0,0-1.49.65,3.31,3.31,0,0,0,0,3.7,1.87,1.87,0,0,0,1.49.65,1.7,1.7,0,0,0,1.79-1.22H25A3,3,0,0,1,24,78.82a3.05,3.05,0,0,1-1.91.58A3,3,0,0,1,19.78,78.46Z" transform="translate(-0.46)"/><path class="cls-1" d="M27.54,70.41v3.36a2.26,2.26,0,0,1,2.13-1.18,2.45,2.45,0,0,1,1.81.73,2.8,2.8,0,0,1,.72,2.07v3.9H31.12V75.57a2.16,2.16,0,0,0-.47-1.51,1.7,1.7,0,0,0-1.31-.52,1.72,1.72,0,0,0-1.32.52,2.14,2.14,0,0,0-.48,1.51v3.72H26.46V70.41Z" transform="translate(-0.46)"/><path class="cls-1" d="M34.38,78.43A3.5,3.5,0,0,1,33.49,76a3.39,3.39,0,0,1,.88-2.44,2.94,2.94,0,0,1,2.23-.93,2.66,2.66,0,0,1,1.46.4A2.59,2.59,0,0,1,39,74V72.7h1.09v6.59H39V77.95a2.61,2.61,0,0,1-2.4,1.45A2.9,2.9,0,0,1,34.38,78.43Zm4-.64a2.79,2.79,0,0,0,0-3.58,2.09,2.09,0,0,0-1.56-.67,2.12,2.12,0,0,0-1.56.65A2.38,2.38,0,0,0,34.59,76a2.54,2.54,0,0,0,.65,1.81,2.11,2.11,0,0,0,3.11,0Z" transform="translate(-0.46)"/><path class="cls-1" d="M42.94,71.43a.71.71,0,0,1-.52.22.69.69,0,0,1-.52-.22.73.73,0,0,1-.21-.53.72.72,0,0,1,.21-.53.73.73,0,0,1,1,0,.76.76,0,0,1,0,1.06Zm-1.07,7.86V72.7H43v6.59Z" transform="translate(-0.46)"/><path class="cls-1" d="M45.82,72.7v1.12a2,2,0,0,1,2-1.22v1.14h-.29a1.7,1.7,0,0,0-1.26.44,2.13,2.13,0,0,0-.43,1.52v3.6H44.74V72.7Z" transform="translate(-0.46)"/><path class="cls-1" d="M53.74,71.43a.71.71,0,0,1-.52.22.69.69,0,0,1-.52-.22.73.73,0,0,1-.21-.53.72.72,0,0,1,.21-.53.73.73,0,0,1,1,0,.76.76,0,0,1,0,1.06Zm-1.07,7.86V72.7h1.08v6.59Z" transform="translate(-0.46)"/><path class="cls-1" d="M55.3,74.56a1.76,1.76,0,0,1,.68-1.4,2.67,2.67,0,0,1,1.77-.57,2.45,2.45,0,0,1,1.7.56,2.15,2.15,0,0,1,.68,1.53H59a1.27,1.27,0,0,0-.37-.89,1.31,1.31,0,0,0-1-.34,1.45,1.45,0,0,0-1,.29.94.94,0,0,0-.35.76.8.8,0,0,0,.4.71,2.82,2.82,0,0,0,1,.37q.56.11,1.13.26a2,2,0,0,1,1,.56,1.63,1.63,0,0,1,.4,1.18,1.56,1.56,0,0,1-.68,1.28,2.84,2.84,0,0,1-1.78.52A2.64,2.64,0,0,1,56,78.85a2.05,2.05,0,0,1-.72-1.52h1.12a1.21,1.21,0,0,0,.39.88,1.42,1.42,0,0,0,1,.33,1.61,1.61,0,0,0,1-.28.84.84,0,0,0,.36-.7.86.86,0,0,0-.29-.68,1.58,1.58,0,0,0-.71-.35l-.93-.23q-.51-.13-.93-.28a1.52,1.52,0,0,1-.71-.52A1.49,1.49,0,0,1,55.3,74.56Z" transform="translate(-0.46)"/><path class="cls-1" d="M1.35,92.83a3.5,3.5,0,0,1-.89-2.47,3.39,3.39,0,0,1,.88-2.44A3,3,0,0,1,3.58,87a2.65,2.65,0,0,1,1.46.4,2.58,2.58,0,0,1,.94,1V87.1H7.07v6.59H6V92.35a2.6,2.6,0,0,1-2.4,1.45A2.89,2.89,0,0,1,1.35,92.83Zm4-.64a2.79,2.79,0,0,0,0-3.58,2.08,2.08,0,0,0-1.56-.67,2.12,2.12,0,0,0-1.56.65,2.39,2.39,0,0,0-.65,1.76,2.54,2.54,0,0,0,.65,1.81,2.11,2.11,0,0,0,3.11,0Z" transform="translate(-0.46)"/><path class="cls-1" d="M12.34,87a3,3,0,0,1,2.23.93,3.39,3.39,0,0,1,.89,2.44,3.5,3.5,0,0,1-.89,2.47,2.89,2.89,0,0,1-2.22,1,2.63,2.63,0,0,1-1.46-.4,2.7,2.7,0,0,1-1-1.05v1.34H8.85V84.81H9.93v3.61A2.65,2.65,0,0,1,12.34,87Zm-.21,5.87a2.06,2.06,0,0,0,1.56-.69,2.54,2.54,0,0,0,.65-1.81,2.39,2.39,0,0,0-.65-1.77,2.12,2.12,0,0,0-1.56-.65,2.08,2.08,0,0,0-1.56.67,2.78,2.78,0,0,0,0,3.57A2.07,2.07,0,0,0,12.14,92.86Z" transform="translate(-0.46)"/><path class="cls-1" d="M17.28,92.86a3.41,3.41,0,0,1-.9-2.46,3.34,3.34,0,0,1,.94-2.47,3.41,3.41,0,0,1,4.7,0A3.33,3.33,0,0,1,23,90.4a3.26,3.26,0,0,1-1,2.46,3.32,3.32,0,0,1-2.39.94A3.06,3.06,0,0,1,17.28,92.86Zm2.31,0a2.18,2.18,0,0,0,1.59-.67,2.48,2.48,0,0,0,.67-1.84,2.53,2.53,0,0,0-.64-1.84,2.1,2.1,0,0,0-1.56-.66,2,2,0,0,0-1.54.66,2.59,2.59,0,0,0-.62,1.84,2.65,2.65,0,0,0,.59,1.84A1.94,1.94,0,0,0,19.59,92.9Z" transform="translate(-0.46)"/><path class="cls-1" d="M28.92,87.1H30v6.59H28.92V92.63a2.25,2.25,0,0,1-2.13,1.16A2.45,2.45,0,0,1,25,93.07,2.79,2.79,0,0,1,24.26,91V87.1h1.07v3.73a2.14,2.14,0,0,0,.48,1.51,1.91,1.91,0,0,0,2.63,0,2.14,2.14,0,0,0,.48-1.51Z" transform="translate(-0.46)"/><path class="cls-1" d="M33.92,92.8h.89v.89H33.71A1.5,1.5,0,0,1,32,92V88h-.84V87.1H32V85.47h1.09V87.1h1.69V88H33.11v4a.67.67,0,0,0,.81.8Z" transform="translate(-0.46)"/><path class="cls-1" d="M40,92.86a3.41,3.41,0,0,1-.9-2.46,3.34,3.34,0,0,1,.94-2.47,3.41,3.41,0,0,1,4.7,0,3.33,3.33,0,0,1,.94,2.46,3.26,3.26,0,0,1-1,2.46,3.32,3.32,0,0,1-2.39.94A3.06,3.06,0,0,1,40,92.86Zm2.31,0a2.18,2.18,0,0,0,1.59-.67,2.48,2.48,0,0,0,.67-1.84A2.53,2.53,0,0,0,44,88.55a2.1,2.1,0,0,0-1.56-.66,2,2,0,0,0-1.54.66,2.59,2.59,0,0,0-.62,1.84,2.65,2.65,0,0,0,.59,1.84A1.94,1.94,0,0,0,42.34,92.9Z" transform="translate(-0.46)"/><path class="cls-1" d="M48.15,87.1v1.07A2.26,2.26,0,0,1,50.27,87a2.45,2.45,0,0,1,1.81.73,2.8,2.8,0,0,1,.72,2.07v3.9H51.73V90a2.16,2.16,0,0,0-.47-1.51,1.7,1.7,0,0,0-1.31-.52,1.72,1.72,0,0,0-1.32.52A2.14,2.14,0,0,0,48.15,90v3.72H47.07V87.1Z" transform="translate(-0.46)"/><path class="cls-1" d="M57.26,93.8A3,3,0,0,1,55,92.86a3.46,3.46,0,0,1-.88-2.47A3.41,3.41,0,0,1,55,87.92a3.14,3.14,0,0,1,5.45,2.2,4.09,4.09,0,0,1,0,.65H55.2a2.28,2.28,0,0,0,.61,1.55,1.94,1.94,0,0,0,1.44.57,2,2,0,0,0,1.12-.3,1.78,1.78,0,0,0,.67-.79h1.16a3,3,0,0,1-1.06,1.43A3.08,3.08,0,0,1,57.26,93.8Zm1.46-5.33a2.12,2.12,0,0,0-2.87,0A2.24,2.24,0,0,0,55.22,90h4.1A2.07,2.07,0,0,0,58.72,88.46Z" transform="translate(-0.46)"/><path class="cls-1" d="M3.49,101.5v1.07a2.26,2.26,0,0,1,2.13-1.18,2.58,2.58,0,0,1,1.35.37,2.28,2.28,0,0,1,.91,1.06,2.68,2.68,0,0,1,1-1,2.6,2.6,0,0,1,1.4-.38,2.48,2.48,0,0,1,1.83.73,2.81,2.81,0,0,1,.72,2.07v3.9H11.74v-3.72a2.14,2.14,0,0,0-.48-1.51,1.71,1.71,0,0,0-1.31-.52,1.71,1.71,0,0,0-1.31.52,2.14,2.14,0,0,0-.48,1.51v3.72H7.08v-3.72a2.16,2.16,0,0,0-.47-1.51,1.7,1.7,0,0,0-1.31-.52,1.72,1.72,0,0,0-1.32.52,2.14,2.14,0,0,0-.48,1.51v3.72H2.41V101.5Z" transform="translate(-0.46)"/><path class="cls-1" d="M17.26,108.2a3,3,0,0,1-2.28-.94,3.46,3.46,0,0,1-.88-2.47,3.42,3.42,0,0,1,.89-2.47,3.06,3.06,0,0,1,2.31-.93,3,3,0,0,1,2.28.88,3.09,3.09,0,0,1,.86,2.25,4.19,4.19,0,0,1,0,.65H15.21a2.28,2.28,0,0,0,.61,1.55,2,2,0,0,0,1.44.57,2,2,0,0,0,1.12-.3,1.78,1.78,0,0,0,.67-.79h1.16a3,3,0,0,1-1.06,1.43A3.08,3.08,0,0,1,17.26,108.2Zm1.46-5.33a2.11,2.11,0,0,0-2.87,0,2.25,2.25,0,0,0-.63,1.53h4.1A2.07,2.07,0,0,0,18.72,102.87Z" transform="translate(-0.46)"/><path class="cls-1" d="M23.93,107.2h.89v.89H23.72A1.5,1.5,0,0,1,22,106.4v-4h-.84v-.89H22V99.87h1.09v1.63H24.8v.89H23.12v4a.67.67,0,0,0,.81.8Z" transform="translate(-0.46)"/><path class="cls-1" d="M27.08,101.5v1.12a2,2,0,0,1,2-1.22v1.14h-.29a1.7,1.7,0,0,0-1.27.44,2.13,2.13,0,0,0-.43,1.52v3.6H26V101.5Z" transform="translate(-0.46)"/><path class="cls-1" d="M33.11,108.2a3,3,0,0,1-2.28-.94,3.46,3.46,0,0,1-.88-2.47,3.42,3.42,0,0,1,.89-2.47,3.36,3.36,0,0,1,4.59,0,3.09,3.09,0,0,1,.86,2.25,4.19,4.19,0,0,1,0,.65H31.05a2.28,2.28,0,0,0,.61,1.55,2,2,0,0,0,1.44.57,2,2,0,0,0,1.12-.3,1.78,1.78,0,0,0,.67-.79h1.16A3,3,0,0,1,35,107.63,3.08,3.08,0,0,1,33.11,108.2Zm1.46-5.33a2.11,2.11,0,0,0-2.88,0,2.25,2.25,0,0,0-.63,1.53h4.1A2.07,2.07,0,0,0,34.57,102.87Z" transform="translate(-0.46)"/><path class="cls-1" d="M43.34,107.2h.89v.89H43.13a1.5,1.5,0,0,1-1.7-1.69v-4h-.84v-.89h.84V99.87h1.09v1.63h1.69v.89H42.53v4a.67.67,0,0,0,.81.8Z" transform="translate(-0.46)"/><path class="cls-1" d="M45.88,107.23a3.5,3.5,0,0,1-.89-2.47,3.39,3.39,0,0,1,.88-2.44,2.94,2.94,0,0,1,2.23-.93,2.66,2.66,0,0,1,1.46.4,2.59,2.59,0,0,1,.95,1V101.5h1.09v6.59H50.5v-1.34a2.61,2.61,0,0,1-2.4,1.45A2.9,2.9,0,0,1,45.88,107.23Zm4-.64a2.79,2.79,0,0,0,0-3.58,2.09,2.09,0,0,0-1.56-.67,2.12,2.12,0,0,0-1.56.65,2.38,2.38,0,0,0-.65,1.76,2.54,2.54,0,0,0,.65,1.81,2.11,2.11,0,0,0,3.11,0Z" transform="translate(-0.46)"/><path class="cls-1" d="M53.37,108.09V99.21h1.08v8.88Z" transform="translate(-0.46)"/><path class="cls-1" d="M56.24,108.09V99.21h1.08v8.88Z" transform="translate(-0.46)"/><path class="cls-1" d="M60,107.89a.68.68,0,0,1-1,0,.71.71,0,0,1,0-1,.69.69,0,0,1,1,0,.72.72,0,0,1,0,1Z" transform="translate(-0.46)"/><path class="cls-2" d="M29.56,36.19c0-.23.66-2.44,1.23-4.19.38-1.18.71-2.16.75-2.16,1.77-.12,3.58,0,5.35,0h10.7a42.1,42.1,0,0,1,4.58.06l.09.09c.62.72,4.42,5.32,5.18,6.3.11.15-9.5.14-14.06.14s-9.07,0-13.6,0a.12.12,0,0,1-.08,0A.16.16,0,0,1,29.56,36.19Z" transform="translate(-0.46)"/><path class="cls-3" d="M51.28,14.2c-3.21.1-17.15.13-18.81,0-.09-1.25-.15-6.48,0-8.07l9.48,0,9.42,0c0,1.91,0,3.82,0,5.73,0,.76,0,1.52,0,2.29Z" transform="translate(-0.46)"/><path class="cls-2" d="M51.28,27.42q0-1.4,0-2.8c0-1.83,0-7.71,0-8.11-1.48,0-7.65,0-9.16,0-3.11,0-6.21.1-9.31,0h0c-.12,0-.23,0-.35,0,0,1.61,0,3.26,0,4.86,0,2.11,0,7,0,7.16h0c3.27,0,15.58.16,18.72,0A4.31,4.31,0,0,0,51.28,27.42Zm-18.8-13.2c1.66.11,15.6.07,18.81,0h0c0-.77,0-1.53,0-2.29,0-1.91,0-3.82,0-5.73l-9.42,0-9.48,0C32.33,7.74,32.39,13,32.48,14.23ZM51.61,6c0,2,0,12.25,0,12.45s0,4.62,0,6.47q0,1.48,0,3a4.08,4.08,0,0,1,0,1c-3.06.16-19.32,0-19.32-.06-.2-2.19-.09-5.49-.09-7.7,0-1.52,0-15.14.06-15.17a1.28,1.28,0,0,1,.42,0H41.9C45.05,5.86,51.61,5.84,51.61,6Z" transform="translate(-0.46)"/><path class="cls-4" d="M32.13,21.07c0,2.2-.12,5.5.09,7.7,0,0,16.26.22,19.32.06a4.08,4.08,0,0,0,0-1q0-1.48,0-3c0-1.86,0-6.3,0-6.47S51.64,8,51.61,6c0-.15-6.56-.12-9.71-.13H32.61a1.28,1.28,0,0,0-.42,0C32.1,5.93,32.13,19.55,32.13,21.07ZM30.79,32c-.57,1.75-1.25,4-1.23,4.19a.16.16,0,0,0,.12.15.12.12,0,0,0,.08,0c4.53,0,9.07,0,13.6,0s14.17,0,14.06-.14c-.76-1-4.55-5.59-5.18-6.3l-.09-.09a42.1,42.1,0,0,0-4.58-.06H36.89c-1.78,0-3.58-.09-5.35,0C31.5,29.84,31.17,30.81,30.79,32ZM28.7,37.41c.12-.61,2-8.83,2-8.86a22.12,22.12,0,0,0,.06-3.13V22.15c0-2.22-.19-19.09,0-21.84a7.13,7.13,0,0,0,1.15,0c0,.58,0,2.48.09,3.26,0,.21,0,.34.07.34l9.78,0s9,.1,9.92,0a26.36,26.36,0,0,0,0-3.63,7.92,7.92,0,0,0,1.4,0c0,2.39,0,4.79,0,7.18q0,1.82,0,3.64c0,1,0,4.84,0,5.72s.11,7.53.11,8.64c0,1.33,0,3.47,0,3.47s5.46,7.73,5.9,8.55C56.68,37.49,33.89,37.33,28.7,37.41Z" transform="translate(-0.46)"/><path class="cls-2" d="M41.82,3.92,32,3.9s0-.13-.07-.34h.17c3.31,0,6.62,0,9.93,0h5.25c1.35,0,2.64.13,4.15,0,.12-.78-.06-3,0-3.47a6.63,6.63,0,0,1,1.66,0l0,.18a7.92,7.92,0,0,1-1.4,0,26.36,26.36,0,0,1,0,3.63C50.85,4,41.82,3.92,41.82,3.92Z" transform="translate(-0.46)"/><path class="cls-2" d="M59.19,40.64c-5.19.07-29.26,0-30.44,0,0-1,0-1.94,0-2.91,5.09.08,10.18,0,15.26,0h7.76c2.5,0,5,.09,7.53-.06-.06,1-.07,2-.06,2.94Z" transform="translate(-0.46)"/><path class="cls-4" d="M56.6,49c0,.13,0,.26,0,.4-2.61.24-19.69-.11-25.8,0,.13-.12.25-.26.36-.39S56.59,49.08,56.6,49Z" transform="translate(-0.46)"/><path class="cls-2" d="M34.58,48.7h9.51c3.43,0,6.88-.12,10.31,0,0-.12,0-.37,0-.49-1.76-.23-16.63,0-20,0,0,.09,0,.43,0,.52v0Zm-3.22-4.78c.13.78.05,3.27.05,3.71a3.27,3.27,0,0,1,.5-.87,20.42,20.42,0,0,1,0-2.83Zm2.88,1.18c0,.45,0,.9,0,1.34,3.44-.14,6.9,0,10.34,0,3.26,0,6.54-.13,9.79,0,0-.41,0-.81,0-1.22a10.37,10.37,0,0,1,0-1.24c-1.3,0-2.61-.06-3.9-.06H43.74c-3.17,0-6.35,0-9.52,0A9.07,9.07,0,0,1,34.24,45.1Zm22.38,4.25c0-.13,0-.26,0-.4,0,.12-25.4,0-25.41,0s-.24.27-.36.39C36.93,49.25,54,49.59,56.62,49.35Zm.28-2.11a12.38,12.38,0,0,1-.08,2.39c-4.34.2-8.71,0-13.06,0s-13.25,0-13.26-.09a.12.12,0,0,0,0,0c-.07,0,0-1.91,0-2.73a17.44,17.44,0,0,1,.09-3.2c4.47-.08,9-.06,13.43-.06h6.72l6.13,0C56.9,43.54,56.91,46.18,56.91,47.24Z" transform="translate(-0.46)"/><path class="cls-4" d="M30.48,46.83c0,.82,0,2.69,0,2.73a.12.12,0,0,1,0,0c0,.12,8.91.09,13.26.09s8.72.15,13.06,0a12.38,12.38,0,0,0,.08-2.39c0-1.06,0-3.71-.07-3.71l-6.13,0H44c-4.47,0-9,0-13.43.06A17.44,17.44,0,0,0,30.48,46.83Zm.07,8.78c0,1.3.16,7.64,0,9.78h-.93a8.77,8.77,0,0,0-1,0c.15-4.4,0-8.82,0-13.23q0-3.63,0-7.26c0-1.33,0-2.67,0-4,1.3-.07,25.34.19,30.43,0h0c0,1.21,0,2.42,0,3.62q0,3.65,0,7.3c0,2.34,0,4.68,0,7,0,2.11.21,4.46.16,6.6a5.58,5.58,0,0,1-2.29,0h0a39.73,39.73,0,0,1,0-5.82c0-1.39.17-8.34,0-8.3a41.35,41.35,0,0,1-6.1.26c-2.24.05-4.5.07-6.75.06-4.49,0-9-.12-13.48-.15A28.57,28.57,0,0,0,30.55,55.61Z" transform="translate(-0.46)"/><path class="cls-2" d="M28.68,65.39a8.77,8.77,0,0,1,1,0h.93c.13-2.14,0-8.48,0-9.78a28.57,28.57,0,0,1,.16-4.14c4.49,0,9,.14,13.48.15,2.25,0,4.5,0,6.75-.06A41.35,41.35,0,0,0,57,51.3c.22,0,0,6.91,0,8.3a39.73,39.73,0,0,0,0,5.82h0a5.58,5.58,0,0,0,2.29,0c0-2.14-.16-4.49-.16-6.6,0-2.34,0-4.68,0-7s0-4.87,0-7.3c0-1.2,0-2.41,0-3.62h0c-5.08.19-29.13-.07-30.43,0,0,1.34,0,2.68,0,4q0,3.63,0,7.26C28.72,56.57,28.83,61,28.68,65.39Zm0-28c5.2-.08,28,.08,30.46,0-.44-.81-5.9-8.54-5.9-8.55s0-2.15,0-3.47c0-1.11-.12-7.85-.11-8.64s0-4.72,0-5.72q0-1.82,0-3.64c0-2.39,0-4.79,0-7.18l0-.18h0c.16,0,.27,0,.27.08,0,2.42,0,4.85,0,7.27q0,2,0,3.91c0,1,.05,12.72.06,13.82s0,2,0,3c0,.23,0,.46,0,.69l0,0c.93,1.43,5.93,8.61,5.94,8.63s0,5,0,7.33,0,4.67,0,7,0,4.86,0,7.29c0,2,.11,6.32.11,6.42s0,.17-.14.16a18.76,18.76,0,0,1-2.57,0s-.19-.12-.18-.21c-.16-1.91,0-3.89,0-5.81q0-2.09,0-4.17c0-.11,0-.22,0-.33a14.32,14.32,0,0,1-2.2,0c-.07,0,0-2.15-.1-3.18-1.17,0-2.34,0-3.48,0-2.25,0-4.5.06-6.76,0-3.35,0-6.71-.07-10.06-.12.11.58,0,1.73.09,2.69,0,.1-.74.43-.78.4l-1.26,0A5.68,5.68,0,0,1,32,53.21a6.38,6.38,0,0,1,0-1.41h-.63c.05,2.14.09,10.7,0,12.82a10.13,10.13,0,0,1-.64,1l0,0a.09.09,0,0,1-.09,0,18.81,18.81,0,0,1-2.26-.06c-.1,0,0-9.06,0-13.48,0-4.85-.16-9.72,0-14.56a.18.18,0,0,1,0-.09v0s2-9,2-9.06c-.11-1-.07-13.87-.07-14.44s0-4.48,0-5.8c0-2.66-.12-5.36,0-8A6.44,6.44,0,0,1,32.12.06h0c.08,0,.05,3.16,0,3.49H32c-.07-.78-.1-2.67-.09-3.26a7.13,7.13,0,0,1-1.15,0c-.14,2.75,0,19.63,0,21.84v3.28a22.12,22.12,0,0,1-.06,3.13S28.82,36.8,28.7,37.41Zm0,3.22c1.18,0,25.25.07,30.44,0h0c0-1,0-2,.06-2.94-2.5.15-5,.06-7.53.06H44c-5.09,0-10.18.05-15.26,0C28.74,38.7,28.75,39.67,28.74,40.64Z" transform="translate(-0.46)"/><polygon class="cls-5" points="26.02 15.34 18.73 0.22 11.44 15.34 15.71 15.34 15.71 65.49 21.75 65.49 21.75 15.34 26.02 15.34"/></svg>