<svg id="Layer_1" data-name="Layer 1" xmlns="http://www.w3.org/2000/svg" viewBox="0 0 123.77 58.22"><defs><style>.cls-1{fill:#240902;}.cls-2{fill:#461103;}.cls-3{fill:#170601;}.cls-4{fill:#390e02;}.cls-5{fill:#2485b0;}.cls-6{fill:#2a9dd1;}.cls-7{fill:#2eabe3;}.cls-8{fill:#4fbef0;}.cls-9{fill:#54caff;}.cls-10{fill:#71cff3;}</style></defs><title>longer-3</title><rect class="cls-1" x="3.38" y="53.26" width="5.31" height="4.97"/><rect class="cls-2" x="1.4" y="53.26" width="5.31" height="4.97"/><rect class="cls-3" x="19.15" y="53.26" width="5.31" height="4.97"/><rect class="cls-4" x="17.16" y="53.26" width="5.31" height="4.97"/><rect class="cls-3" x="118.46" y="53.26" width="5.31" height="4.97"/><rect class="cls-4" x="116.47" y="53.26" width="5.31" height="4.97"/><rect class="cls-1" x="105.33" y="53.26" width="5.31" height="4.97"/><rect class="cls-2" x="103.35" y="53.26" width="5.31" height="4.97"/><path class="cls-5" d="M80,31.24a5,5,0,0,1-5,5L22.2,39.78a5,5,0,0,1-5-5L26.22,5a5,5,0,0,1,5-5H86.68C89.44,0,75,2.24,75,5Z"/><rect class="cls-6" x="8.09" y="18.12" width="12.72" height="36.24"/><rect class="cls-7" x="1.4" y="30.82" width="101.54" height="23.53"/><polygon class="cls-5" points="123.77 30.82 123.77 30.82 75 30.82 75 30.82 75 0 75 0 123.77 0 123.77 30.82"/><rect class="cls-5" x="0.6" y="30.82" width="11.56" height="23.53"/><rect class="cls-5" x="1.1" y="30.82" width="101.85" height="3.41"/><polygon class="cls-8" points="69.58 30.82 20.81 30.82 20.81 0 69.58 0 69.58 0 69.58 30.82"/><polygon class="cls-9" points="66.35 28.78 24.05 28.78 24.05 2.05 24.05 2.04 66.35 2.04 66.35 28.78"/><rect class="cls-8" x="69.58" width="48.77" height="30.82"/><polygon class="cls-9" points="115.12 28.78 72.82 28.78 72.82 28.78 72.82 2.05 72.82 2.04 115.12 2.04 115.12 28.78"/><rect class="cls-10" x="102.94" y="18.12" width="8.11" height="36.24"/><rect class="cls-6" x="111.05" y="18.12" width="12.72" height="36.24"/><rect class="cls-10" y="18.12" width="8.11" height="36.24"/></svg>