<svg id="Layer_1" data-name="Layer 1" xmlns="http://www.w3.org/2000/svg" viewBox="0 0 26.7 21.62"><defs><style>.cls-1{fill:#e7644d;}.cls-2{fill:#d34b42;}.cls-3{fill:#9b001e;}.cls-4{fill:#521818;opacity:0.3;}</style></defs><title>red-object</title><path class="cls-1" d="M.25,2.31C0,1.86-.15,1.29.17.92A1.3,1.3,0,0,1,1.11.6C4.41.41,7.71.22,11,.09A43,43,0,0,1,21.49.6a6.81,6.81,0,0,0,2.4.25C24.64.73,25.64,0,26.38.24c1,.35-.68,2.47-.93,3a10.54,10.54,0,0,0-.8,4.17c-.2,3.75-.36,7.68,1.26,11.06a3.26,3.26,0,0,1,.38,1,.93.93,0,0,1-.44,1,1.38,1.38,0,0,1-.74.05,12.32,12.32,0,0,0-2.77,0,24.46,24.46,0,0,0-2.62.56,23.39,23.39,0,0,1-6.58.57c-2.37-.13-4.69-.62-7-.87a21.48,21.48,0,0,0-3.51-.13c-.52,0-2.39.54-2.39-.46,0-.59.82-.61,1.17-.94.67-.64.71-2,.83-2.85A25.86,25.86,0,0,0,2.26,9.6,25.68,25.68,0,0,0,.25,2.31Z"/><path class="cls-2" d="M2.26,9.6q.05.43.09.85H14V0c-1,0-2,0-3,.08-3.3.13-6.6.32-9.9.51A1.3,1.3,0,0,0,.17.92c-.32.37-.12.94.08,1.39A25.68,25.68,0,0,1,2.26,9.6Z"/><path class="cls-3" d="M2.36,10.51a25.81,25.81,0,0,1-.15,5.83c-.12.87-.16,2.21-.83,2.85-.35.33-1.17.35-1.17.94,0,1,1.87.49,2.39.46a21.48,21.48,0,0,1,3.51.13c2.35.25,4.68.74,7,.87l.82,0V10.51Z"/><path class="cls-3" d="M24.53,10.45c0-1,.06-2.05.12-3.06a10.54,10.54,0,0,1,.8-4.17c.25-.51,1.94-2.62.93-3C25.64,0,24.64.73,23.9.85A6.81,6.81,0,0,1,21.49.6,34.63,34.63,0,0,0,14,0V10.45Z"/><path class="cls-2" d="M25.91,18.45a17.6,17.6,0,0,1-1.38-7.94H14v11.1a23.39,23.39,0,0,0,5.7-.6,24.45,24.45,0,0,1,2.62-.56,12.32,12.32,0,0,1,2.77,0,1.38,1.38,0,0,0,.74-.05.93.93,0,0,0,.44-1A3.26,3.26,0,0,0,25.91,18.45Z"/><path class="cls-4" d="M25.91,18.45c-1.63-3.38-1.46-7.32-1.26-11.06a17.64,17.64,0,0,1,.27-2.57,3.78,3.78,0,0,0-.17.37,27.67,27.67,0,0,0-1.05,4.44,7.21,7.21,0,0,1-.76,2.16,1.52,1.52,0,0,1-1,.78,3.19,3.19,0,0,1-1.25,0c-.36-.06-.75-.16-1-.17h-.21l-.11,0s0,0,0,.08a4,4,0,0,0,.15,1.28,3.58,3.58,0,0,1-.37,2.18,5.07,5.07,0,0,1-3.7,2.18A15.05,15.05,0,0,1,10,18a10,10,0,0,1-4.24-1.61,4.87,4.87,0,0,1-1.78-3,8.34,8.34,0,0,1-.11-2.12,2.94,2.94,0,0,1,.4-1.49c.85-1.2,2.24.09,2.89.81a10.26,10.26,0,0,0,1.08,1.22.49.49,0,0,0,.68,0c.13-.14.09-.4.06-.58C8.57,8.83,5.49,8.7,3.85,7.47A7.4,7.4,0,0,1,1.44,4c-.19-.53-.3-1.1-.48-1.64A1.8,1.8,0,0,0,.1,1.24L0,1.21A1.87,1.87,0,0,0,.25,2.31a25.68,25.68,0,0,1,2,7.29,25.86,25.86,0,0,1-.05,6.74c-.12.87-.16,2.21-.83,2.85-.35.33-1.17.35-1.17.94,0,1,1.87.49,2.39.46a21.48,21.48,0,0,1,3.51.13c2.35.25,4.68.74,7,.87A23.39,23.39,0,0,0,19.73,21a24.46,24.46,0,0,1,2.62-.56,12.32,12.32,0,0,1,2.77,0,1.38,1.38,0,0,0,.74-.05.93.93,0,0,0,.44-1A3.26,3.26,0,0,0,25.91,18.45Z"/></svg>