<svg id="Layer_1" data-name="Layer 1" xmlns="http://www.w3.org/2000/svg" viewBox="0 0 28.45 23.04"><defs><style>.cls-1{fill:#e7644d;}.cls-2{fill:#ef926b;}.cls-3{fill:#8c2a2a;opacity:0.3;}.cls-4{fill:#f6bd99;opacity:0.5;}</style></defs><title>object-second</title><path class="cls-1" d="M.26,2.46C.05,2-.16,1.38.18,1a1.38,1.38,0,0,1,1-.34C4.7.44,8.22.23,11.74.09A45.85,45.85,0,0,1,22.9.64,7.26,7.26,0,0,0,25.47.9C26.26.78,27.32,0,28.11.25c1.07.37-.72,2.63-1,3.17a11.23,11.23,0,0,0-.85,4.45c-.21,4-.39,8.19,1.35,11.79A3.47,3.47,0,0,1,28,20.77a1,1,0,0,1-.47,1,1.47,1.47,0,0,1-.79.06,13.13,13.13,0,0,0-3,0,26.06,26.06,0,0,0-2.79.6,24.92,24.92,0,0,1-7,.6c-2.52-.14-5-.66-7.51-.93a22.89,22.89,0,0,0-3.74-.13c-.55,0-2.55.57-2.55-.49,0-.62.88-.65,1.25-1,.72-.68.75-2.11.88-3a27.55,27.55,0,0,0,.05-7.18A27.37,27.37,0,0,0,.26,2.46Z"/><path class="cls-2" d="M22.9.64Q22.08.46,21.25.35v22a22.31,22.31,0,0,1,2.56-.54,10.48,10.48,0,0,1,1.57-.06V.91A7.6,7.6,0,0,1,22.9.64Z"/><path class="cls-2" d="M3.8.49V21.91a26,26,0,0,1,2.7.16l1.43.18V.27Z"/><path class="cls-2" d="M11.74.09h-.21V22.76c.82.11,1.65.19,2.48.24a24.89,24.89,0,0,0,3.63-.06V.14s0-.07,0-.1C15.68,0,13.71,0,11.74.09Z"/><path class="cls-3" d="M27.61,19.66c-1.73-3.6-1.56-7.8-1.35-11.79a18.8,18.8,0,0,1,.28-2.74,4,4,0,0,0-.18.4,29.49,29.49,0,0,0-1.12,4.73,7.68,7.68,0,0,1-.81,2.3,1.62,1.62,0,0,1-1,.83,3.4,3.4,0,0,1-1.33,0c-.38-.06-.8-.17-1.12-.18h-.22l-.12,0s0,0,0,.08a4.29,4.29,0,0,0,.16,1.36A3.82,3.82,0,0,1,20.34,17a5.4,5.4,0,0,1-3.94,2.33,16,16,0,0,1-5.73-.11,10.71,10.71,0,0,1-4.52-1.72,5.19,5.19,0,0,1-1.9-3.23A8.89,8.89,0,0,1,4.14,12a3.13,3.13,0,0,1,.42-1.59c.9-1.27,2.38.1,3.07.86a10.93,10.93,0,0,0,1.15,1.3.53.53,0,0,0,.72,0c.14-.15.1-.43.07-.61C9.13,9.41,5.85,9.27,4.11,8A7.88,7.88,0,0,1,1.54,4.31C1.33,3.74,1.22,3.14,1,2.57A1.92,1.92,0,0,0,.1,1.32L0,1.29A2,2,0,0,0,.26,2.46a27.37,27.37,0,0,1,2.14,7.76,27.55,27.55,0,0,1-.05,7.18c-.13.93-.17,2.35-.88,3-.37.35-1.25.38-1.25,1,0,1.06,2,.52,2.55.49a22.89,22.89,0,0,1,3.74.13c2.51.27,5,.79,7.51.93a24.92,24.92,0,0,0,7-.6,26.06,26.06,0,0,1,2.79-.6,13.13,13.13,0,0,1,3,0,1.47,1.47,0,0,0,.79-.06,1,1,0,0,0,.47-1A3.47,3.47,0,0,0,27.61,19.66Z"/><path class="cls-4" d="M9.06,3l2.53.1L14,3.16a68.1,68.1,0,0,0,7.49-.26A3.55,3.55,0,0,0,23.93,2,.3.3,0,0,0,24,1.78c0-.12-.16-.18-.28-.21a21.66,21.66,0,0,0-5.31-.43H9.88a19.23,19.23,0,0,0-2.5.11c-.58.08-1.93.2-2.24.8s.69.68,1.11.73C7.18,2.9,8.12,2.95,9.06,3Z"/></svg>