<svg id="Layer_1" data-name="Layer 1" xmlns="http://www.w3.org/2000/svg" xmlns:xlink="http://www.w3.org/1999/xlink" viewBox="0 0 23.45 300.08"><defs><style>.cls-1{fill:#eeda17;}.cls-2{fill:url(#linear-gradient);}.cls-3{fill:url(#linear-gradient-2);}.cls-4{font-size:17.14px;font-family:ABeeZee-Regular, ABeeZee;}</style><linearGradient id="linear-gradient" x1="-734.35" y1="549.28" x2="-741.1" y2="549.33" gradientTransform="translate(-537.58 -441.39) rotate(-90)" gradientUnits="userSpaceOnUse"><stop offset="0" stop-color="#cda21f"/><stop offset="0.22" stop-color="#dbba1d"/><stop offset="0.47" stop-color="#e5cc1c"/><stop offset="0.72" stop-color="#ecd71b"/><stop offset="1" stop-color="#eedb1b"/></linearGradient><linearGradient id="linear-gradient-2" x1="-741.47" y1="549.3" x2="-733.05" y2="549.3" gradientTransform="translate(-537.58 -441.39) rotate(-90)" gradientUnits="userSpaceOnUse"><stop offset="0" stop-color="#bababa"/><stop offset="0.02" stop-color="#cfcfcf"/><stop offset="0.05" stop-color="#e4e4e4"/><stop offset="0.09" stop-color="#f3f3f3"/><stop offset="0.13" stop-color="#fcfcfc"/><stop offset="0.19" stop-color="#fff"/><stop offset="0.34" stop-color="#f7f7f7"/><stop offset="0.65" stop-color="#ececec"/><stop offset="1" stop-color="#e8e8e8"/></linearGradient></defs><title>tep</title><rect class="cls-1" x="0.5" width="22.46" height="298.18"/><rect x="0.49" y="266.79" width="22.46" height="0.88"/><rect x="0.49" y="262.21" width="3.57" height="0.35"/><rect x="0.49" y="254.94" width="3.57" height="0.35"/><rect x="0.49" y="245.25" width="3.57" height="0.35"/><rect x="0.49" y="242.83" width="3.57" height="0.35"/><rect x="0.49" y="247.68" width="3.57" height="0.35"/><rect x="0.49" y="250.1" width="3.57" height="0.35"/><rect x="0.49" y="252.52" width="3.57" height="0.35"/><rect x="0.49" y="257.37" width="3.57" height="0.35"/><rect x="0.49" y="259.79" width="3.57" height="0.35"/><rect x="0.49" y="264.64" width="3.57" height="0.35"/><rect x="19.38" y="262.21" width="3.57" height="0.35"/><rect x="19.38" y="254.94" width="3.57" height="0.35"/><rect x="19.38" y="245.25" width="3.57" height="0.35"/><rect x="19.38" y="242.83" width="3.57" height="0.35"/><rect x="19.38" y="247.68" width="3.57" height="0.35"/><rect x="19.38" y="250.1" width="3.57" height="0.35"/><rect x="19.38" y="252.52" width="3.57" height="0.35"/><rect x="19.38" y="257.37" width="3.57" height="0.35"/><rect x="19.38" y="259.79" width="3.57" height="0.35"/><rect x="19.38" y="264.64" width="3.57" height="0.35"/><rect x="0.49" y="240.14" width="22.46" height="0.88"/><rect x="0.49" y="235.56" width="3.57" height="0.35"/><rect x="0.49" y="228.29" width="3.57" height="0.35"/><rect x="0.49" y="218.6" width="3.57" height="0.35"/><rect x="0.49" y="216.18" width="3.57" height="0.35"/><rect x="0.49" y="221.02" width="3.57" height="0.35"/><rect x="0.49" y="223.45" width="3.57" height="0.35"/><rect x="0.49" y="225.87" width="3.57" height="0.35"/><rect x="0.49" y="230.72" width="3.57" height="0.35"/><rect x="0.49" y="233.14" width="3.57" height="0.35"/><rect x="0.49" y="237.98" width="3.57" height="0.35"/><rect x="19.38" y="235.56" width="3.57" height="0.35"/><rect x="19.38" y="228.29" width="3.57" height="0.35"/><rect x="19.38" y="218.6" width="3.57" height="0.35"/><rect x="19.38" y="216.18" width="3.57" height="0.35"/><rect x="19.38" y="221.02" width="3.57" height="0.35"/><rect x="19.38" y="223.45" width="3.57" height="0.35"/><rect x="19.38" y="225.87" width="3.57" height="0.35"/><rect x="19.38" y="230.72" width="3.57" height="0.35"/><rect x="19.38" y="233.14" width="3.57" height="0.35"/><rect x="19.38" y="237.98" width="3.57" height="0.35"/><rect x="0.49" y="213.49" width="22.46" height="0.88"/><rect x="0.49" y="208.91" width="3.57" height="0.35"/><rect x="0.49" y="201.64" width="3.57" height="0.35"/><rect x="0.49" y="191.95" width="3.57" height="0.35"/><rect x="0.49" y="189.53" width="3.57" height="0.35"/><rect x="0.49" y="194.37" width="3.57" height="0.35"/><rect x="0.49" y="196.79" width="3.57" height="0.35"/><rect x="0.49" y="199.22" width="3.57" height="0.35"/><rect x="0.49" y="204.06" width="3.57" height="0.35"/><rect x="0.49" y="206.49" width="3.57" height="0.35"/><rect x="0.49" y="211.33" width="3.57" height="0.35"/><rect x="19.38" y="208.91" width="3.57" height="0.35"/><rect x="19.38" y="201.64" width="3.57" height="0.35"/><rect x="19.38" y="191.95" width="3.57" height="0.35"/><rect x="19.38" y="189.53" width="3.57" height="0.35"/><rect x="19.38" y="194.37" width="3.57" height="0.35"/><rect x="19.38" y="196.79" width="3.57" height="0.35"/><rect x="19.38" y="199.22" width="3.57" height="0.35"/><rect x="19.38" y="204.06" width="3.57" height="0.35"/><rect x="19.38" y="206.49" width="3.57" height="0.35"/><rect x="19.38" y="211.33" width="3.57" height="0.35"/><rect x="0.49" y="186.84" width="22.46" height="0.88"/><rect x="0.49" y="182.26" width="3.57" height="0.35"/><rect x="0.49" y="174.99" width="3.57" height="0.35"/><rect x="0.49" y="165.3" width="3.57" height="0.35"/><rect x="0.49" y="162.87" width="3.57" height="0.35"/><rect x="0.49" y="167.72" width="3.57" height="0.35"/><rect x="0.49" y="170.14" width="3.57" height="0.35"/><rect x="0.49" y="172.57" width="3.57" height="0.35"/><rect x="0.49" y="177.41" width="3.57" height="0.35"/><rect x="0.49" y="179.83" width="3.57" height="0.35"/><rect x="0.49" y="184.68" width="3.57" height="0.35"/><rect x="19.38" y="182.26" width="3.57" height="0.35"/><rect x="19.38" y="174.99" width="3.57" height="0.35"/><rect x="19.38" y="165.3" width="3.57" height="0.35"/><rect x="19.38" y="162.87" width="3.57" height="0.35"/><rect x="19.38" y="167.72" width="3.57" height="0.35"/><rect x="19.38" y="170.14" width="3.57" height="0.35"/><rect x="19.38" y="172.57" width="3.57" height="0.35"/><rect x="19.38" y="177.41" width="3.57" height="0.35"/><rect x="19.38" y="179.83" width="3.57" height="0.35"/><rect x="19.38" y="184.68" width="3.57" height="0.35"/><rect x="0.49" y="160.19" width="22.46" height="0.88"/><rect x="0.49" y="155.6" width="3.57" height="0.35"/><rect x="0.49" y="148.34" width="3.57" height="0.35"/><rect x="0.49" y="138.64" width="3.57" height="0.35"/><rect x="0.49" y="136.22" width="3.57" height="0.35"/><rect x="0.49" y="141.07" width="3.57" height="0.35"/><rect x="0.49" y="143.49" width="3.57" height="0.35"/><rect x="0.49" y="145.91" width="3.57" height="0.35"/><rect x="0.49" y="150.76" width="3.57" height="0.35"/><rect x="0.49" y="153.18" width="3.57" height="0.35"/><rect x="0.49" y="158.03" width="3.57" height="0.35"/><rect x="19.38" y="155.6" width="3.57" height="0.35"/><rect x="19.38" y="148.34" width="3.57" height="0.35"/><rect x="19.38" y="138.64" width="3.57" height="0.35"/><rect x="19.38" y="136.22" width="3.57" height="0.35"/><rect x="19.38" y="141.07" width="3.57" height="0.35"/><rect x="19.38" y="143.49" width="3.57" height="0.35"/><rect x="19.38" y="145.91" width="3.57" height="0.35"/><rect x="19.38" y="150.76" width="3.57" height="0.35"/><rect x="19.38" y="153.18" width="3.57" height="0.35"/><rect x="19.38" y="158.03" width="3.57" height="0.35"/><rect x="0.49" y="133.53" width="22.46" height="0.88"/><rect x="0.49" y="128.95" width="3.57" height="0.35"/><rect x="0.49" y="121.68" width="3.57" height="0.35"/><rect x="0.49" y="111.99" width="3.57" height="0.35"/><rect x="0.49" y="109.57" width="3.57" height="0.35"/><rect x="0.49" y="114.42" width="3.57" height="0.35"/><rect x="0.49" y="116.84" width="3.57" height="0.35"/><rect x="0.49" y="119.26" width="3.57" height="0.35"/><rect x="0.49" y="124.11" width="3.57" height="0.35"/><rect x="0.49" y="126.53" width="3.57" height="0.35"/><rect x="0.49" y="131.38" width="3.57" height="0.35"/><rect x="19.38" y="128.95" width="3.57" height="0.35"/><rect x="19.38" y="121.68" width="3.57" height="0.35"/><rect x="19.38" y="111.99" width="3.57" height="0.35"/><rect x="19.38" y="109.57" width="3.57" height="0.35"/><rect x="19.38" y="114.42" width="3.57" height="0.35"/><rect x="19.38" y="116.84" width="3.57" height="0.35"/><rect x="19.38" y="119.26" width="3.57" height="0.35"/><rect x="19.38" y="124.11" width="3.57" height="0.35"/><rect x="19.38" y="126.53" width="3.57" height="0.35"/><rect x="19.38" y="131.38" width="3.57" height="0.35"/><rect x="0.49" y="106.88" width="22.46" height="0.88"/><rect x="0.49" y="102.3" width="3.57" height="0.35"/><rect x="0.49" y="95.03" width="3.57" height="0.35"/><rect x="0.49" y="85.34" width="3.57" height="0.35"/><rect x="0.49" y="82.92" width="3.57" height="0.35"/><rect x="0.49" y="87.76" width="3.57" height="0.35"/><rect x="0.49" y="90.19" width="3.57" height="0.35"/><rect x="0.49" y="92.61" width="3.57" height="0.35"/><rect x="0.49" y="97.46" width="3.57" height="0.35"/><rect x="0.49" y="99.88" width="3.57" height="0.35"/><rect x="0.49" y="104.72" width="3.57" height="0.35"/><rect x="19.38" y="102.3" width="3.57" height="0.35"/><rect x="19.38" y="95.03" width="3.57" height="0.35"/><rect x="19.38" y="85.34" width="3.57" height="0.35"/><rect x="19.38" y="82.92" width="3.57" height="0.35"/><rect x="19.38" y="87.76" width="3.57" height="0.35"/><rect x="19.38" y="90.19" width="3.57" height="0.35"/><rect x="19.38" y="92.61" width="3.57" height="0.35"/><rect x="19.38" y="97.46" width="3.57" height="0.35"/><rect x="19.38" y="99.88" width="3.57" height="0.35"/><rect x="19.38" y="104.72" width="3.57" height="0.35"/><rect x="0.49" y="80.23" width="22.46" height="0.88"/><rect x="0.49" y="75.65" width="3.57" height="0.35"/><rect x="0.49" y="68.38" width="3.57" height="0.35"/><rect x="0.49" y="58.69" width="3.57" height="0.35"/><rect x="0.49" y="56.27" width="3.57" height="0.35"/><rect x="0.49" y="61.11" width="3.57" height="0.35"/><rect x="0.49" y="63.53" width="3.57" height="0.35"/><rect x="0.49" y="65.96" width="3.57" height="0.35"/><rect x="0.49" y="70.8" width="3.57" height="0.35"/><rect x="0.49" y="73.23" width="3.57" height="0.35"/><rect x="0.49" y="78.07" width="3.57" height="0.35"/><rect x="19.38" y="75.65" width="3.57" height="0.35"/><rect x="19.38" y="68.38" width="3.57" height="0.35"/><rect x="19.38" y="58.69" width="3.57" height="0.35"/><rect x="19.38" y="56.27" width="3.57" height="0.35"/><rect x="19.38" y="61.11" width="3.57" height="0.35"/><rect x="19.38" y="63.53" width="3.57" height="0.35"/><rect x="19.38" y="65.96" width="3.57" height="0.35"/><rect x="19.38" y="70.8" width="3.57" height="0.35"/><rect x="19.38" y="73.23" width="3.57" height="0.35"/><rect x="19.38" y="78.07" width="3.57" height="0.35"/><rect x="0.49" y="53.58" width="22.46" height="0.88"/><rect x="0.49" y="49" width="3.57" height="0.35"/><rect x="0.49" y="41.73" width="3.57" height="0.35"/><rect x="0.49" y="32.04" width="3.57" height="0.35"/><rect x="0.49" y="29.61" width="3.57" height="0.35"/><rect x="0.49" y="34.46" width="3.57" height="0.35"/><rect x="0.49" y="36.88" width="3.57" height="0.35"/><rect x="0.49" y="39.3" width="3.57" height="0.35"/><rect x="0.49" y="44.15" width="3.57" height="0.35"/><rect x="0.49" y="46.57" width="3.57" height="0.35"/><rect x="0.49" y="51.42" width="3.57" height="0.35"/><rect x="19.38" y="49" width="3.57" height="0.35"/><rect x="19.38" y="41.73" width="3.57" height="0.35"/><rect x="19.38" y="32.04" width="3.57" height="0.35"/><rect x="19.38" y="29.61" width="3.57" height="0.35"/><rect x="19.38" y="34.46" width="3.57" height="0.35"/><rect x="19.38" y="36.88" width="3.57" height="0.35"/><rect x="19.38" y="39.3" width="3.57" height="0.35"/><rect x="19.38" y="44.15" width="3.57" height="0.35"/><rect x="19.38" y="46.57" width="3.57" height="0.35"/><rect x="19.38" y="51.42" width="3.57" height="0.35"/><rect x="0.49" y="26.93" width="22.46" height="0.88"/><rect x="0.49" y="22.34" width="3.57" height="0.35"/><rect x="0.49" y="15.08" width="3.57" height="0.35"/><rect x="0.49" y="5.38" width="3.57" height="0.35"/><rect x="0.49" y="2.96" width="3.57" height="0.35"/><rect x="0.49" y="7.81" width="3.57" height="0.35"/><rect x="0.49" y="10.23" width="3.57" height="0.35"/><rect x="0.49" y="12.65" width="3.57" height="0.35"/><rect x="0.49" y="17.5" width="3.57" height="0.35"/><rect x="0.49" y="19.92" width="3.57" height="0.35"/><rect x="0.49" y="24.77" width="3.57" height="0.35"/><rect x="19.38" y="22.34" width="3.57" height="0.35"/><rect x="19.38" y="15.08" width="3.57" height="0.35"/><rect x="19.38" y="5.38" width="3.57" height="0.35"/><rect x="19.38" y="2.96" width="3.57" height="0.35"/><rect x="19.38" y="7.81" width="3.57" height="0.35"/><rect x="19.38" y="10.23" width="3.57" height="0.35"/><rect x="19.38" y="12.65" width="3.57" height="0.35"/><rect x="19.38" y="17.5" width="3.57" height="0.35"/><rect x="19.38" y="19.92" width="3.57" height="0.35"/><rect x="19.38" y="24.77" width="3.57" height="0.35"/><rect x="0.49" y="0.27" width="22.46" height="0.88"/><path class="cls-2" d="M23,298.18v-5a32.08,32.08,0,0,0-11.23-1.94A32.07,32.07,0,0,0,.5,293.21v5Z"/><path class="cls-3" d="M23.45,300.08v-6.3a31.84,31.84,0,0,0-11.72-2.13A31.83,31.83,0,0,0,0,293.79v6.3Z"/><path d="M7.22,252.82h8v-1.51h1v4.48h-1V254H8.7l1.3,1.71-.86.62-1.92-2.63Z"/><path d="M7.07,246.15a2.67,2.67,0,0,1,.31-1.31,2.63,2.63,0,0,1,.91-1,4.6,4.6,0,0,1,1.47-.58,9,9,0,0,1,2-.2,6.26,6.26,0,0,1,3.44.79,2.56,2.56,0,0,1,1.2,2.28,2.52,2.52,0,0,1-1.22,2.27,6.42,6.42,0,0,1-3.44.78,6.26,6.26,0,0,1-3.44-.79A2.56,2.56,0,0,1,7.07,246.15Zm1.05,0a1.58,1.58,0,0,0,.19.76,1.53,1.53,0,0,0,.6.59,3.47,3.47,0,0,0,1.1.37,9.37,9.37,0,0,0,1.68.13,6,6,0,0,0,2.71-.48,1.49,1.49,0,0,0,.92-1.36,1.57,1.57,0,0,0-.19-.76,1.53,1.53,0,0,0-.6-.59,3.48,3.48,0,0,0-1.1-.37,9.41,9.41,0,0,0-1.68-.13A6,6,0,0,0,9,244.8,1.49,1.49,0,0,0,8.12,246.17Z"/><path d="M16.22,229.86a2.91,2.91,0,0,1-.48,0,3.61,3.61,0,0,1-1.49-.3,5.42,5.42,0,0,1-1.22-.74,9.43,9.43,0,0,1-1-1l-.9-1a5.88,5.88,0,0,0-.86-.74,1.58,1.58,0,0,0-.92-.3,1.15,1.15,0,0,0-.89.39,1.47,1.47,0,0,0-.35,1,2.21,2.21,0,0,0,.21,1,3.28,3.28,0,0,0,.57.82l-.78.64a4.38,4.38,0,0,1-.74-1.13,3.39,3.39,0,0,1-.28-1.43,3,3,0,0,1,.17-1,2.29,2.29,0,0,1,.47-.79,2.15,2.15,0,0,1,.7-.5,2.09,2.09,0,0,1,.86-.18,2.41,2.41,0,0,1,1.14.27,5.06,5.06,0,0,1,1,.69,10,10,0,0,1,.9.9q.43.49.88.92a6.69,6.69,0,0,0,.94.76,2.36,2.36,0,0,0,1.05.39v-3.92h1.05Z"/><path d="M7.07,219.51a2.67,2.67,0,0,1,.31-1.31,2.63,2.63,0,0,1,.91-1,4.6,4.6,0,0,1,1.47-.58,9,9,0,0,1,2-.2,6.26,6.26,0,0,1,3.44.79,2.56,2.56,0,0,1,1.2,2.28,2.52,2.52,0,0,1-1.22,2.27,6.42,6.42,0,0,1-3.44.78,6.26,6.26,0,0,1-3.44-.79A2.56,2.56,0,0,1,7.07,219.51Zm1.05,0a1.58,1.58,0,0,0,.19.76,1.53,1.53,0,0,0,.6.59,3.47,3.47,0,0,0,1.1.37,9.37,9.37,0,0,0,1.68.13,6,6,0,0,0,2.71-.48,1.49,1.49,0,0,0,.92-1.36,1.57,1.57,0,0,0-.19-.76,1.53,1.53,0,0,0-.6-.59,3.48,3.48,0,0,0-1.1-.37,9.41,9.41,0,0,0-1.68-.13,6,6,0,0,0-2.71.48A1.49,1.49,0,0,0,8.12,219.53Z"/><path d="M16.38,201a4,4,0,0,1-.77,2.48l-1-.52a4.11,4.11,0,0,0,.48-.82,2.84,2.84,0,0,0,.21-1.15,1.91,1.91,0,0,0-.44-1.33,1.45,1.45,0,0,0-1.12-.49,1.66,1.66,0,0,0-.67.14,1.46,1.46,0,0,0-.56.44,2.31,2.31,0,0,0-.38.75,3.61,3.61,0,0,0-.14,1.08v.71h-.94v-.66a3.2,3.2,0,0,0-.14-1,2,2,0,0,0-.37-.69,1.53,1.53,0,0,0-.52-.41,1.41,1.41,0,0,0-.6-.13,1.21,1.21,0,0,0-1,.45A1.69,1.69,0,0,0,8.1,201a2.66,2.66,0,0,0,.2,1.07,3.09,3.09,0,0,0,.44.75l-.91.47a5.78,5.78,0,0,1-.51-1,3.61,3.61,0,0,1-.25-1.4,3.2,3.2,0,0,1,.18-1.11,2.47,2.47,0,0,1,.49-.83,2.12,2.12,0,0,1,.71-.52,2.25,2.25,0,0,1,2.12.2,2.81,2.81,0,0,1,.84,1.06,2.8,2.8,0,0,1,.9-1.25,2.24,2.24,0,0,1,1.4-.45,2.73,2.73,0,0,1,1,.18,2.45,2.45,0,0,1,.85.55,2.69,2.69,0,0,1,.6.94A3.65,3.65,0,0,1,16.38,201Z"/><path d="M7.07,192.84a2.67,2.67,0,0,1,.31-1.31,2.63,2.63,0,0,1,.91-1A4.6,4.6,0,0,1,9.76,190a9,9,0,0,1,2-.2,6.26,6.26,0,0,1,3.44.79,2.56,2.56,0,0,1,1.2,2.28,2.52,2.52,0,0,1-1.22,2.27,6.42,6.42,0,0,1-3.44.78,6.26,6.26,0,0,1-3.44-.79A2.56,2.56,0,0,1,7.07,192.84Zm1.05,0a1.58,1.58,0,0,0,.19.76,1.53,1.53,0,0,0,.6.59,3.47,3.47,0,0,0,1.1.37,9.37,9.37,0,0,0,1.68.13,6,6,0,0,0,2.71-.48,1.49,1.49,0,0,0,.92-1.36,1.57,1.57,0,0,0-.19-.76,1.53,1.53,0,0,0-.6-.59,3.48,3.48,0,0,0-1.1-.37,9.41,9.41,0,0,0-1.68-.13,6,6,0,0,0-2.71.48A1.49,1.49,0,0,0,8.12,192.85Z"/><path d="M14.31,171.81h1.92V173H14.31v3.81h-.93L7.13,174.1l.42-1,5.7,2.4V173H10.7v-1.15h2.56v-1.06h1.05Z"/><path d="M7.07,166.11a2.67,2.67,0,0,1,.31-1.31,2.63,2.63,0,0,1,.91-1,4.6,4.6,0,0,1,1.47-.58,9,9,0,0,1,2-.2,6.26,6.26,0,0,1,3.44.79,2.56,2.56,0,0,1,1.2,2.28,2.52,2.52,0,0,1-1.22,2.27,6.42,6.42,0,0,1-3.44.78,6.26,6.26,0,0,1-3.44-.79A2.56,2.56,0,0,1,7.07,166.11Zm1.05,0a1.58,1.58,0,0,0,.19.76,1.53,1.53,0,0,0,.6.59,3.47,3.47,0,0,0,1.1.37,9.37,9.37,0,0,0,1.68.13,6,6,0,0,0,2.71-.48,1.49,1.49,0,0,0,.92-1.36,1.57,1.57,0,0,0-.19-.76,1.53,1.53,0,0,0-.6-.59,3.48,3.48,0,0,0-1.1-.37,9.41,9.41,0,0,0-1.68-.13,6,6,0,0,0-2.71.48A1.49,1.49,0,0,0,8.12,166.12Z"/><path d="M13.43,144.45a3.08,3.08,0,0,1,1.18.22,2.68,2.68,0,0,1,.93.64,2.93,2.93,0,0,1,.61,1,3.55,3.55,0,0,1,.22,1.27,4.54,4.54,0,0,1-.17,1.34,3.65,3.65,0,0,1-.49,1l-1-.6a3.67,3.67,0,0,0,.43-.79,2.6,2.6,0,0,0,.17-1,2.2,2.2,0,0,0-.13-.77,1.69,1.69,0,0,0-.37-.6,1.71,1.71,0,0,0-.56-.39,1.76,1.76,0,0,0-.71-.14,1.7,1.7,0,0,0-1.31.54,2.19,2.19,0,0,0-.5,1.55v1.58H7.22v-4.4h1v3.32h2.44v-.64a4.09,4.09,0,0,1,.2-1.32,2.84,2.84,0,0,1,.56-1,2.48,2.48,0,0,1,.87-.62A2.74,2.74,0,0,1,13.43,144.45Z"/><path d="M7.07,139.54a2.67,2.67,0,0,1,.31-1.31,2.62,2.62,0,0,1,.91-1,4.61,4.61,0,0,1,1.47-.58,9,9,0,0,1,2-.2,6.27,6.27,0,0,1,3.44.79,2.56,2.56,0,0,1,1.2,2.28,2.52,2.52,0,0,1-1.22,2.27,6.42,6.42,0,0,1-3.44.78,6.27,6.27,0,0,1-3.44-.79A2.56,2.56,0,0,1,7.07,139.54Zm1.05,0a1.58,1.58,0,0,0,.19.76,1.53,1.53,0,0,0,.6.59,3.47,3.47,0,0,0,1.1.37,9.41,9.41,0,0,0,1.68.13,6,6,0,0,0,2.71-.48,1.49,1.49,0,0,0,.92-1.36,1.57,1.57,0,0,0-.19-.76,1.53,1.53,0,0,0-.6-.59,3.5,3.5,0,0,0-1.1-.37,9.41,9.41,0,0,0-1.68-.13,6,6,0,0,0-2.71.48A1.49,1.49,0,0,0,8.12,139.55Z"/><path d="M8.25,118.81a3.17,3.17,0,0,0,.85,2.29,3.87,3.87,0,0,0,2.35,1.09,3.88,3.88,0,0,1-.64-.91,2.73,2.73,0,0,1-.29-1.28,2.48,2.48,0,0,1,.19-1,2.34,2.34,0,0,1,.54-.78,2.52,2.52,0,0,1,.84-.52,3.07,3.07,0,0,1,1.11-.19,3.7,3.7,0,0,1,1.29.22,3,3,0,0,1,1,.6,2.68,2.68,0,0,1,.64.92,2.89,2.89,0,0,1,.23,1.16,3,3,0,0,1-.22,1.15,2.55,2.55,0,0,1-.69.95,3.41,3.41,0,0,1-1.19.64,5.49,5.49,0,0,1-1.7.24,7.18,7.18,0,0,1-2.07-.29,5.15,5.15,0,0,1-1.71-.87,4.16,4.16,0,0,1-1.16-1.43,4.35,4.35,0,0,1-.43-2c0-.08,0-.16,0-.25s0-.17,0-.24H8.28c0,.07,0,.14,0,.23S8.25,118.73,8.25,118.81Zm3.24,1.49a2.14,2.14,0,0,0,.27,1,3.1,3.1,0,0,0,.72.87h.28a4,4,0,0,0,1.08-.16,2.57,2.57,0,0,0,.8-.4,1.7,1.7,0,0,0,.5-.59,1.54,1.54,0,0,0,.17-.72,1.6,1.6,0,0,0-.15-.69,1.56,1.56,0,0,0-.41-.53,1.88,1.88,0,0,0-.62-.34,2.46,2.46,0,0,0-.78-.12,2,2,0,0,0-1.35.45A1.49,1.49,0,0,0,11.49,120.3Z"/><path d="M7.07,112.81a2.67,2.67,0,0,1,.31-1.31,2.62,2.62,0,0,1,.91-1A4.61,4.61,0,0,1,9.76,110a9,9,0,0,1,2-.2,6.27,6.27,0,0,1,3.44.79,2.56,2.56,0,0,1,1.2,2.28,2.52,2.52,0,0,1-1.22,2.27,6.42,6.42,0,0,1-3.44.78,6.27,6.27,0,0,1-3.44-.79A2.56,2.56,0,0,1,7.07,112.81Zm1.05,0a1.58,1.58,0,0,0,.19.76,1.53,1.53,0,0,0,.6.59,3.47,3.47,0,0,0,1.1.37,9.41,9.41,0,0,0,1.68.13,6,6,0,0,0,2.71-.48,1.49,1.49,0,0,0,.92-1.36,1.57,1.57,0,0,0-.19-.76,1.53,1.53,0,0,0-.6-.59,3.5,3.5,0,0,0-1.1-.37,9.41,9.41,0,0,0-1.68-.13,6,6,0,0,0-2.71.48A1.49,1.49,0,0,0,8.12,112.83Z"/><path d="M16.22,95.12a15.48,15.48,0,0,1-2.62-.2,10.32,10.32,0,0,1-2.08-.57,8,8,0,0,1-1.72-.93,13.46,13.46,0,0,1-1.52-1.29v4.29H7.22V90.77h.93a13.24,13.24,0,0,0,1.67,1.46,7.62,7.62,0,0,0,1.73.94,9.12,9.12,0,0,0,2.05.51,19.64,19.64,0,0,0,2.62.15Z"/><path d="M7.07,86.14a2.67,2.67,0,0,1,.31-1.31,2.62,2.62,0,0,1,.91-1,4.61,4.61,0,0,1,1.47-.58,9,9,0,0,1,2-.2,6.27,6.27,0,0,1,3.44.79,2.56,2.56,0,0,1,1.2,2.28,2.52,2.52,0,0,1-1.22,2.27,6.42,6.42,0,0,1-3.44.78,6.27,6.27,0,0,1-3.44-.79A2.56,2.56,0,0,1,7.07,86.14Zm1.05,0a1.58,1.58,0,0,0,.19.76,1.53,1.53,0,0,0,.6.59,3.47,3.47,0,0,0,1.1.37A9.41,9.41,0,0,0,11.7,88a6,6,0,0,0,2.71-.48,1.49,1.49,0,0,0,.92-1.36,1.57,1.57,0,0,0-.19-.76,1.53,1.53,0,0,0-.6-.59,3.5,3.5,0,0,0-1.1-.37,9.41,9.41,0,0,0-1.68-.13A6,6,0,0,0,9,84.79,1.49,1.49,0,0,0,8.12,86.15Z"/><path d="M11.38,68.45a3,3,0,0,1-.87,1,2,2,0,0,1-1.23.36,2,2,0,0,1-.89-.2,2.13,2.13,0,0,1-.7-.55,2.52,2.52,0,0,1-.46-.83,3.19,3.19,0,0,1-.16-1,3.32,3.32,0,0,1,.17-1.08,2.53,2.53,0,0,1,.47-.84,2.22,2.22,0,0,1,.7-.55,1.92,1.92,0,0,1,.86-.2,2,2,0,0,1,1.27.4A3.16,3.16,0,0,1,11.36,66a3.9,3.9,0,0,1,1-1.44,2.14,2.14,0,0,1,1.43-.5,2.44,2.44,0,0,1,1.06.23,2.35,2.35,0,0,1,.82.64,3,3,0,0,1,.52,1,3.81,3.81,0,0,1,.19,1.21,4.23,4.23,0,0,1-.19,1.32,3,3,0,0,1-.53,1,2.41,2.41,0,0,1-.8.63,2.21,2.21,0,0,1-1,.22,2.41,2.41,0,0,1-1.46-.45A3.37,3.37,0,0,1,11.38,68.45Zm2.44-3.17a1.46,1.46,0,0,0-1.11.54,4.54,4.54,0,0,0-.84,1.5,3.49,3.49,0,0,0,.25.7,2.43,2.43,0,0,0,.39.58A1.85,1.85,0,0,0,13,69a1.34,1.34,0,0,0,.64.15,1.48,1.48,0,0,0,.67-.15,1.65,1.65,0,0,0,.53-.42,2,2,0,0,0,.35-.64,2.43,2.43,0,0,0,.13-.8,2,2,0,0,0-.42-1.34A1.36,1.36,0,0,0,13.82,65.28ZM9.26,68.75a1.39,1.39,0,0,0,1-.45,2.85,2.85,0,0,0,.67-1.21,2.36,2.36,0,0,0-.24-.53,2.39,2.39,0,0,0-.35-.44,1.54,1.54,0,0,0-.44-.31,1.23,1.23,0,0,0-.53-.11,1.24,1.24,0,0,0-.55.12,1.33,1.33,0,0,0-.43.33,1.59,1.59,0,0,0-.28.49,1.76,1.76,0,0,0-.1.61,1.64,1.64,0,0,0,.34,1.07A1.1,1.1,0,0,0,9.26,68.75Z"/><path d="M7.07,59.57a2.67,2.67,0,0,1,.31-1.31,2.62,2.62,0,0,1,.91-1,4.61,4.61,0,0,1,1.47-.58,9,9,0,0,1,2-.2,6.27,6.27,0,0,1,3.44.79,2.56,2.56,0,0,1,1.2,2.28,2.52,2.52,0,0,1-1.22,2.27,6.42,6.42,0,0,1-3.44.78,6.27,6.27,0,0,1-3.44-.79A2.56,2.56,0,0,1,7.07,59.57Zm1.05,0a1.58,1.58,0,0,0,.19.76,1.53,1.53,0,0,0,.6.59,3.47,3.47,0,0,0,1.1.37,9.41,9.41,0,0,0,1.68.13,6,6,0,0,0,2.71-.48,1.49,1.49,0,0,0,.92-1.36,1.57,1.57,0,0,0-.19-.76,1.53,1.53,0,0,0-.6-.59,3.5,3.5,0,0,0-1.1-.37,9.41,9.41,0,0,0-1.68-.13A6,6,0,0,0,9,58.22,1.49,1.49,0,0,0,8.12,59.58Z"/><path d="M14.51,42.75a2.3,2.3,0,0,0,.81-1.7,1.51,1.51,0,0,0-.2-.75,1.8,1.8,0,0,0-.61-.62,3.45,3.45,0,0,0-1.06-.43,6.61,6.61,0,0,0-1.55-.16,3.63,3.63,0,0,1,.61.87,2.32,2.32,0,0,1,.24,1,2.8,2.8,0,0,1-.17,1,2.45,2.45,0,0,1-.52.84,2.55,2.55,0,0,1-.86.59,3,3,0,0,1-1.2.22,3.09,3.09,0,0,1-1.14-.21,2.88,2.88,0,0,1-.93-.59,2.73,2.73,0,0,1-.63-.9,2.91,2.91,0,0,1-.23-1.18,2.83,2.83,0,0,1,.21-1.13,2.4,2.4,0,0,1,.54-.79,3,3,0,0,1,.54-.4,3.13,3.13,0,0,1,.72-.29,5.68,5.68,0,0,1,1-.18q.59-.06,1.43-.06a8.78,8.78,0,0,1,2.2.24,4.47,4.47,0,0,1,1.51.67,2.7,2.7,0,0,1,.87,1,2.9,2.9,0,0,1,.28,1.27,3.19,3.19,0,0,1-.26,1.32,3.65,3.65,0,0,1-.74,1.07ZM11.8,40.82a1.94,1.94,0,0,0-.24-.93,3.36,3.36,0,0,0-.59-.8h-.39a3.1,3.1,0,0,0-1.85.46A1.48,1.48,0,0,0,8.1,40.8a1.69,1.69,0,0,0,.14.68,1.72,1.72,0,0,0,.37.55,1.68,1.68,0,0,0,.58.37,2.07,2.07,0,0,0,.76.13,2,2,0,0,0,.78-.14,1.77,1.77,0,0,0,.58-.38,1.65,1.65,0,0,0,.37-.55A1.71,1.71,0,0,0,11.8,40.82Z"/><path d="M7.07,33a2.67,2.67,0,0,1,.31-1.31,2.62,2.62,0,0,1,.91-1,4.61,4.61,0,0,1,1.47-.58,9,9,0,0,1,2-.2,6.27,6.27,0,0,1,3.44.79A2.56,2.56,0,0,1,16.38,33a2.52,2.52,0,0,1-1.22,2.27,6.42,6.42,0,0,1-3.44.78,6.27,6.27,0,0,1-3.44-.79A2.56,2.56,0,0,1,7.07,33Zm1.05,0a1.58,1.58,0,0,0,.19.76,1.53,1.53,0,0,0,.6.59,3.47,3.47,0,0,0,1.1.37,9.41,9.41,0,0,0,1.68.13,6,6,0,0,0,2.71-.48A1.49,1.49,0,0,0,15.32,33a1.57,1.57,0,0,0-.19-.76,1.53,1.53,0,0,0-.6-.59,3.5,3.5,0,0,0-1.1-.37,9.41,9.41,0,0,0-1.68-.13A6,6,0,0,0,9,31.65,1.49,1.49,0,0,0,8.12,33Z"/><path d="M7.22,20.23h8V18.71h1v4.48h-1V21.37H8.7L10,23.08l-.86.62L7.22,21.07Z"/><path d="M7.07,13.56a2.67,2.67,0,0,1,.31-1.31,2.62,2.62,0,0,1,.91-1,4.61,4.61,0,0,1,1.47-.58,9,9,0,0,1,2-.2,6.27,6.27,0,0,1,3.44.79,2.56,2.56,0,0,1,1.2,2.28,2.52,2.52,0,0,1-1.22,2.27,6.42,6.42,0,0,1-3.44.78,6.27,6.27,0,0,1-3.44-.79A2.56,2.56,0,0,1,7.07,13.56Zm1.05,0a1.58,1.58,0,0,0,.19.76,1.53,1.53,0,0,0,.6.59,3.47,3.47,0,0,0,1.1.37,9.41,9.41,0,0,0,1.68.13,6,6,0,0,0,2.71-.48,1.49,1.49,0,0,0,.92-1.36,1.57,1.57,0,0,0-.19-.76,1.53,1.53,0,0,0-.6-.59,3.5,3.5,0,0,0-1.1-.37,9.41,9.41,0,0,0-1.68-.13A6,6,0,0,0,9,12.21,1.49,1.49,0,0,0,8.12,13.57Z"/><path d="M7.07,5.92a2.67,2.67,0,0,1,.31-1.31,2.62,2.62,0,0,1,.91-1,4.61,4.61,0,0,1,1.47-.58,9,9,0,0,1,2-.2,6.27,6.27,0,0,1,3.44.79,2.56,2.56,0,0,1,1.2,2.28,2.52,2.52,0,0,1-1.22,2.27A6.42,6.42,0,0,1,11.71,9,6.27,6.27,0,0,1,8.27,8.2,2.56,2.56,0,0,1,7.07,5.92Zm1.05,0a1.58,1.58,0,0,0,.19.76,1.53,1.53,0,0,0,.6.59,3.47,3.47,0,0,0,1.1.37,9.41,9.41,0,0,0,1.68.13A6,6,0,0,0,14.4,7.3a1.49,1.49,0,0,0,.92-1.36,1.57,1.57,0,0,0-.19-.76,1.53,1.53,0,0,0-.6-.59,3.5,3.5,0,0,0-1.1-.37,9.41,9.41,0,0,0-1.68-.13A6,6,0,0,0,9,4.57,1.49,1.49,0,0,0,8.12,5.94Z"/><text class="cls-4" transform="translate(16.76 286.99) rotate(-90) scale(0.99 1)">m</text></svg>