<svg xmlns="http://www.w3.org/2000/svg" xmlns:xlink="http://www.w3.org/1999/xlink" viewBox="0 0 18.26 25.26"><defs><style>.cls-1{isolation:isolate;}.cls-2{fill:url(#linear-gradient);}.cls-12,.cls-3{opacity:0.5;}.cls-3{mix-blend-mode:multiply;}.cls-4{fill:#bee2f3;opacity:0;}.cls-5{fill:#b6dbef;opacity:0.06;}.cls-6{fill:#aad6ef;opacity:0.13;}.cls-7{fill:#9ed2ec;opacity:0.19;}.cls-8{fill:#95cdea;opacity:0.25;}.cls-9{fill:#8ac9e8;opacity:0.31;}.cls-10{fill:#80c3e7;opacity:0.38;}.cls-11{fill:#78bfe5;opacity:0.44;}.cls-12{fill:#6eb9e3;}.cls-13{fill:#65b4df;opacity:0.56;}.cls-14{fill:#5cb0de;opacity:0.63;}.cls-15{fill:#53acdc;opacity:0.69;}.cls-16{fill:#4aa9db;opacity:0.75;}.cls-17{fill:#42a3d9;opacity:0.81;}.cls-18{fill:#37a0d7;opacity:0.88;}.cls-19{fill:#309cd6;opacity:0.94;}.cls-20{fill:#2998d2;}.cls-21{opacity:0.55;mix-blend-mode:screen;fill:url(#linear-gradient-2);}.cls-22{fill:url(#linear-gradient-3);}.cls-23{fill:url(#radial-gradient);}.cls-24{fill:#fbfbfb;opacity:0.8;}.cls-25{fill:url(#linear-gradient-4);}.cls-26{fill:url(#linear-gradient-5);}.cls-27{fill:url(#linear-gradient-6);}.cls-28{fill:url(#linear-gradient-7);}.cls-29{fill:url(#linear-gradient-8);}.cls-30{fill:url(#linear-gradient-9);}.cls-31{fill:url(#linear-gradient-10);}.cls-32{fill:url(#linear-gradient-11);}.cls-33{fill:url(#linear-gradient-12);}.cls-34{fill:url(#linear-gradient-13);}.cls-35{fill:url(#linear-gradient-14);}.cls-36{fill:url(#linear-gradient-15);}.cls-37{fill:url(#linear-gradient-16);}.cls-38{fill:url(#linear-gradient-17);}.cls-39{fill:url(#linear-gradient-18);}.cls-40{fill:url(#linear-gradient-19);}.cls-41{fill:url(#linear-gradient-20);}.cls-42{fill:url(#radial-gradient-2);}.cls-43{fill:url(#radial-gradient-3);}.cls-44{fill:url(#linear-gradient-21);}.cls-45{fill:url(#linear-gradient-22);}.cls-46{fill:url(#linear-gradient-23);}.cls-47{fill:url(#linear-gradient-24);}.cls-48{fill:url(#linear-gradient-25);}.cls-49{fill:url(#linear-gradient-26);}.cls-50{fill:#221f1f;}.cls-51{fill:#fff;}</style><linearGradient id="linear-gradient" x1="-253.32" y1="12.63" x2="-235.06" y2="12.63" gradientTransform="matrix(-1, 0, 0, 1, -235.06, 0)" gradientUnits="userSpaceOnUse"><stop offset="0" stop-color="#8fc8e9"/><stop offset="0.01" stop-color="#80c1e6"/><stop offset="0.03" stop-color="#64b5e1"/><stop offset="0.05" stop-color="#53addd"/><stop offset="0.06" stop-color="#4daadc"/><stop offset="0.19" stop-color="#7fc2e6"/><stop offset="0.43" stop-color="#7dc1e5"/><stop offset="0.7" stop-color="#2d9cd6"/><stop offset="0.74" stop-color="#288bc0"/><stop offset="0.85" stop-color="#288cc2"/><stop offset="0.88" stop-color="#2891c9"/><stop offset="0.88" stop-color="#2891c9"/><stop offset="0.91" stop-color="#359ed6"/><stop offset="1" stop-color="#7abfe4"/></linearGradient><linearGradient id="linear-gradient-2" x1="-249.67" y1="10.8" x2="-245.55" y2="10.8" gradientTransform="matrix(-1, 0, 0, 1, -235.06, 0)" gradientUnits="userSpaceOnUse"><stop offset="0"/><stop offset="0.15" stop-color="#99cdea"/><stop offset="0.85" stop-color="#99cdea"/><stop offset="1"/></linearGradient><linearGradient id="linear-gradient-3" x1="-244.19" y1="2.09" x2="-244.19" gradientTransform="matrix(-1, 0, 0, 1, -235.06, 0)" gradientUnits="userSpaceOnUse"><stop offset="0.04" stop-color="#fff"/><stop offset="0.11" stop-color="#f5f4f6"/><stop offset="0.3" stop-color="#dedde1"/><stop offset="0.5" stop-color="#ceccd2"/><stop offset="0.72" stop-color="#c5c2ca"/><stop offset="1" stop-color="#c2bfc7"/></linearGradient><radialGradient id="radial-gradient" cx="542.12" cy="20168.72" r="30.37" gradientTransform="matrix(-0.39, 0, 0, 0.04, 222.48, -884.42)" gradientUnits="userSpaceOnUse"><stop offset="0" stop-color="#e1e1e7"/><stop offset="0.19" stop-color="#dcdce2"/><stop offset="0.43" stop-color="#cdcdd4"/><stop offset="0.69" stop-color="#b5b5bc"/><stop offset="0.96" stop-color="#92939b"/><stop offset="1" stop-color="#8d8e96"/></radialGradient><linearGradient id="linear-gradient-4" x1="-213.46" y1="11.47" x2="-213.16" y2="12.93" gradientTransform="matrix(-1, 0, 0, 1, -199.09, 0)" gradientUnits="userSpaceOnUse"><stop offset="0" stop-color="#84c241"/><stop offset="0.02" stop-color="#89c441"/><stop offset="0.17" stop-color="#a3cd43"/><stop offset="0.3" stop-color="#b3d345"/><stop offset="0.4" stop-color="#b9d545"/><stop offset="1" stop-color="#456f34"/></linearGradient><linearGradient id="linear-gradient-5" x1="-213.75" y1="16.18" x2="-212.42" y2="16.51" gradientTransform="matrix(-1, 0, 0, 1, -199.09, 0)" gradientUnits="userSpaceOnUse"><stop offset="0" stop-color="#456f34"/><stop offset="0.6" stop-color="#b9d545"/><stop offset="0.7" stop-color="#b3d345"/><stop offset="0.83" stop-color="#a3cd43"/><stop offset="0.98" stop-color="#89c441"/><stop offset="1" stop-color="#84c241"/></linearGradient><linearGradient id="linear-gradient-6" x1="-213.58" y1="16.56" x2="-214.04" y2="18.6" gradientTransform="matrix(-1, 0, 0, 1, -199.09, 0)" gradientUnits="userSpaceOnUse"><stop offset="0" stop-color="#b9d545"/><stop offset="0.24" stop-color="#d5b136"/><stop offset="0.47" stop-color="#ec922a"/><stop offset="0.61" stop-color="#f58725"/><stop offset="1" stop-color="#965624"/></linearGradient><linearGradient id="linear-gradient-7" x1="-205.15" y1="13.68" x2="-204.14" y2="13.68" gradientTransform="matrix(-1, 0, 0, 1, -199.09, 0)" gradientUnits="userSpaceOnUse"><stop offset="0" stop-color="#264b9b"/><stop offset="1" stop-color="#10bef0"/></linearGradient><linearGradient id="linear-gradient-8" x1="-203.84" y1="14.14" x2="-202.75" y2="14.14" xlink:href="#linear-gradient-7"/><linearGradient id="linear-gradient-9" x1="-204.87" y1="13.89" x2="-202.28" y2="13.63" xlink:href="#linear-gradient-5"/><linearGradient id="linear-gradient-10" x1="-214.01" y1="15.06" x2="-213.74" y2="14.07" xlink:href="#linear-gradient-5"/><linearGradient id="linear-gradient-11" x1="-213.94" y1="14.7" x2="-213.15" y2="11.92" xlink:href="#linear-gradient-5"/><linearGradient id="linear-gradient-12" x1="-209.06" y1="17.43" x2="-207.75" y2="12.78" xlink:href="#linear-gradient-5"/><linearGradient id="linear-gradient-13" x1="-207.64" y1="17.69" x2="-207.39" y2="15.45" xlink:href="#linear-gradient-7"/><linearGradient id="linear-gradient-14" x1="-8974.26" y1="17.28" x2="-8971.1" y2="17.28" gradientTransform="translate(8977.99)" xlink:href="#linear-gradient-7"/><linearGradient id="linear-gradient-15" x1="-205.04" y1="20.47" x2="-206.76" y2="21.18" xlink:href="#linear-gradient-6"/><linearGradient id="linear-gradient-16" x1="-205.19" y1="20.45" x2="-206.6" y2="19.47" xlink:href="#linear-gradient-6"/><linearGradient id="linear-gradient-17" x1="-205.74" y1="16.87" x2="-204.23" y2="17.79" xlink:href="#linear-gradient-5"/><linearGradient id="linear-gradient-18" x1="-203" y1="18.93" x2="-202.11" y2="20.41" xlink:href="#linear-gradient-5"/><linearGradient id="linear-gradient-19" x1="-203.48" y1="17.6" x2="-202.95" y2="18.97" xlink:href="#linear-gradient-5"/><linearGradient id="linear-gradient-20" x1="-8964.74" y1="13.24" x2="-8962.4" y2="13.24" gradientTransform="translate(8977.99)" xlink:href="#linear-gradient-4"/><radialGradient id="radial-gradient-2" cx="-8963.9" cy="13.91" r="0.98" gradientTransform="translate(10999.32 -0.76) scale(1.23 0.99)" gradientUnits="userSpaceOnUse"><stop offset="0" stop-color="#3066af"/><stop offset="0.71" stop-color="#2b60ab"/><stop offset="1" stop-color="#285ca8"/></radialGradient><radialGradient id="radial-gradient-3" cx="-8963.88" cy="13.96" r="0.92" gradientTransform="translate(10999.32 -0.76) scale(1.23 0.99)" gradientUnits="userSpaceOnUse"><stop offset="0" stop-color="#ed4523"/><stop offset="0.13" stop-color="#e74322"/><stop offset="0.3" stop-color="#d73e20"/><stop offset="0.49" stop-color="#bb351d"/><stop offset="0.69" stop-color="#952918"/><stop offset="0.91" stop-color="#651912"/><stop offset="1" stop-color="#4e120f"/></radialGradient><linearGradient id="linear-gradient-21" x1="-207.99" y1="15.32" x2="-208.37" y2="17.05" gradientTransform="matrix(-1, 0, 0, 1, -199.09, 0)" gradientUnits="userSpaceOnUse"><stop offset="0" stop-color="#fbed34"/><stop offset="0.17" stop-color="#e9e739"/><stop offset="0.49" stop-color="#cfdd3f"/><stop offset="0.78" stop-color="#bfd744"/><stop offset="1" stop-color="#b9d545"/></linearGradient><linearGradient id="linear-gradient-22" x1="-8973.35" y1="17.02" x2="-8970.2" y2="17.02" gradientTransform="translate(8977.99)" xlink:href="#linear-gradient-7"/><linearGradient id="linear-gradient-23" x1="-210.1" y1="20.31" x2="-212.27" y2="21.78" xlink:href="#linear-gradient-6"/><linearGradient id="linear-gradient-24" x1="-211.43" y1="16.79" x2="-208.74" y2="16.03" xlink:href="#linear-gradient-5"/><linearGradient id="linear-gradient-25" x1="-210.32" y1="18.79" x2="-208.79" y2="19.44" xlink:href="#linear-gradient-5"/><linearGradient id="linear-gradient-26" x1="-210.27" y1="17.12" x2="-209.01" y2="15.89" xlink:href="#linear-gradient-7"/></defs><title>shorter-2</title><g class="cls-1"><g id="Layer_1" data-name="Layer 1"><path class="cls-2" d="M0,22.7a1,1,0,0,0,.26.69C2.35,25.76,15.92,26,18,23.36a1,1,0,0,0,.23-.65V1.26a.59.59,0,0,0-.38-.55C16.6.24,12.86,0,9.13,0,8,0,2.1.05.38.71A.59.59,0,0,0,0,1.26Z"/><g class="cls-3"><path class="cls-4" d="M18,22.54a1,1,0,0,0,.23-.65v.82a1,1,0,0,1-.23.65C15.92,26,2.35,25.76.26,23.39A1,1,0,0,1,0,22.7v-.82a1,1,0,0,0,.26.69C2.35,24.94,15.92,25.18,18,22.54Z"/><path class="cls-5" d="M18,22.58a1,1,0,0,0,.23-.65v.78a1,1,0,0,1-.23.65C15.92,26,2.35,25.76.26,23.39A1,1,0,0,1,0,22.7v-.78a1,1,0,0,0,.26.69C2.35,25,15.92,25.23,18,22.58Z"/><path class="cls-6" d="M18,22.63a1,1,0,0,0,.23-.65v.73a1,1,0,0,1-.23.65C15.92,26,2.35,25.76.26,23.39A1,1,0,0,1,0,22.7V22a1,1,0,0,0,.26.69C2.35,25,15.92,25.28,18,22.63Z"/><path class="cls-7" d="M18,22.68a1,1,0,0,0,.23-.65v.68a1,1,0,0,1-.23.65C15.92,26,2.35,25.76.26,23.39A1,1,0,0,1,0,22.7V22a1,1,0,0,0,.26.69C2.35,25.08,15.92,25.32,18,22.68Z"/><path class="cls-8" d="M18,22.72a1,1,0,0,0,.23-.65v.64a1,1,0,0,1-.23.65C15.92,26,2.35,25.76.26,23.39A1,1,0,0,1,0,22.7v-.64a1,1,0,0,0,.26.69C2.35,25.12,15.92,25.37,18,22.72Z"/><path class="cls-9" d="M18,22.77a1,1,0,0,0,.23-.65v.59a1,1,0,0,1-.23.65C15.92,26,2.35,25.76.26,23.39A1,1,0,0,1,0,22.7v-.59a1,1,0,0,0,.26.69C2.35,25.17,15.92,25.42,18,22.77Z"/><path class="cls-10" d="M18,22.82a1,1,0,0,0,.23-.65v.54a1,1,0,0,1-.23.65C15.92,26,2.35,25.76.26,23.39A1,1,0,0,1,0,22.7v-.54a1,1,0,0,0,.26.69C2.35,25.22,15.92,25.46,18,22.82Z"/><path class="cls-11" d="M18,22.87a1,1,0,0,0,.23-.65v.5a1,1,0,0,1-.23.65C15.92,26,2.35,25.76.26,23.39A1,1,0,0,1,0,22.7v-.5a1,1,0,0,0,.26.69C2.35,25.26,15.92,25.51,18,22.87Z"/><path class="cls-12" d="M18,22.91a1,1,0,0,0,.23-.65v.45a1,1,0,0,1-.23.65C15.92,26,2.35,25.76.26,23.39A1,1,0,0,1,0,22.7v-.45a1,1,0,0,0,.26.69C2.35,25.31,15.92,25.56,18,22.91Z"/><path class="cls-13" d="M18,23a1,1,0,0,0,.23-.65v.4a1,1,0,0,1-.23.65C15.92,26,2.35,25.76.26,23.39A1,1,0,0,1,0,22.7v-.4A1,1,0,0,0,.26,23C2.35,25.36,15.92,25.6,18,23Z"/><path class="cls-14" d="M18,23a1,1,0,0,0,.23-.65v.36a1,1,0,0,1-.23.65C15.92,26,2.35,25.76.26,23.39A1,1,0,0,1,0,22.7v-.36A1,1,0,0,0,.26,23C2.35,25.4,15.92,25.65,18,23Z"/><path class="cls-15" d="M18,23.05a1,1,0,0,0,.23-.65v.31a1,1,0,0,1-.23.65C15.92,26,2.35,25.76.26,23.39A1,1,0,0,1,0,22.7v-.31a1,1,0,0,0,.26.69C2.35,25.45,15.92,25.7,18,23.05Z"/><path class="cls-16" d="M18,23.1a1,1,0,0,0,.23-.65v.26a1,1,0,0,1-.23.65C15.92,26,2.35,25.76.26,23.39A1,1,0,0,1,0,22.7v-.26a1,1,0,0,0,.26.69C2.35,25.5,15.92,25.74,18,23.1Z"/><path class="cls-17" d="M18,23.15a1,1,0,0,0,.23-.65v.22a1,1,0,0,1-.23.65C15.92,26,2.35,25.76.26,23.39A1,1,0,0,1,0,22.7v-.22a1,1,0,0,0,.26.69C2.35,25.54,15.92,25.79,18,23.15Z"/><path class="cls-18" d="M18,23.19a1,1,0,0,0,.23-.65v.17a1,1,0,0,1-.23.65C15.92,26,2.35,25.76.26,23.39A1,1,0,0,1,0,22.7v-.17a1,1,0,0,0,.26.69C2.35,25.59,15.92,25.84,18,23.19Z"/><path class="cls-19" d="M18,23.24a1,1,0,0,0,.23-.65v.12a1,1,0,0,1-.23.65C15.92,26,2.35,25.76.26,23.39A1,1,0,0,1,0,22.7v-.12a1,1,0,0,0,.26.69C2.35,25.64,15.92,25.88,18,23.24Z"/><path class="cls-20" d="M18,23.29a1,1,0,0,0,.23-.65v.07a1,1,0,0,1-.23.65C15.92,26,2.35,25.76.26,23.39A1,1,0,0,1,0,22.7v-.07a1,1,0,0,0,.26.69C2.35,25.68,15.92,25.93,18,23.29Z"/></g><path class="cls-21" d="M14.61,1.81V15.3a4.53,4.53,0,0,1-4.12,4.5V2C12,2,13.41,1.91,14.61,1.81Z"/><path class="cls-22" d="M.21.82A.59.59,0,0,1,.38.71C2.1.05,8,0,9.13,0c3.73,0,7.47.24,8.75.71a.59.59,0,0,1,.3.25V1c-.09.2-.45.39-1,.53a42.76,42.76,0,0,1-8,.57,42.76,42.76,0,0,1-8-.57c-.6-.14-1-.33-1-.53A.55.55,0,0,1,.21.82Z"/><path class="cls-23" d="M17.14.91a.07.07,0,0,1,0,.11c-1.27,1-14.75,1-16,0a.07.07,0,0,1,0-.11c.64-.49,4.32-.73,8-.73S16.51.43,17.14.91Z"/><path class="cls-24" d="M1.63.8C3.83.28,9.92.31,12.18.32,9.38.12,3.89.12,1.63.8Z"/><path class="cls-25" d="M15.26,12.69a1.3,1.3,0,0,1-1.55.46.88.88,0,0,1-.57-1.26,1.3,1.3,0,0,1,1.55-.46A.88.88,0,0,1,15.26,12.69Z"/><path class="cls-26" d="M14.13,16.71a.81.81,0,0,0-.6.14.67.67,0,0,0-.1-.23,1.75,1.75,0,0,1-.09-.25L13.21,16v0l.85-.48,0,0,.3.82a1.37,1.37,0,0,0,.18.33.8.8,0,0,0,.23.17l.08,0C14.56,17,14.35,16.81,14.13,16.71Z"/><path class="cls-27" d="M12.29,17.31a.42.42,0,0,1,.5-.13l.11.06c.23-.06.51-.08.6-.27a.21.21,0,0,0,0-.12.81.81,0,0,1,.6-.14c.22.11.43.31.72.23.33.19.77.27,1.1.45a2.46,2.46,0,0,1,.59.45c.11.11.28.25.33.4a.56.56,0,0,1,.24,0c.21.08.32.27.23.43a.46.46,0,0,1-.55.14c-.21-.08-.31-.26-.23-.41a2.71,2.71,0,0,1-.33-.37,2.43,2.43,0,0,0-.64-.55c-.08,0-.57-.27-.57,0,0,.07.12.16.16.22a2.75,2.75,0,0,1,.2.32,1.69,1.69,0,0,1,.21.67l.11,0a.33.33,0,0,1,.22.47.48.48,0,0,1-.58.17.33.33,0,0,1-.22-.47l.06-.07A2.06,2.06,0,0,1,15,18.1a1.52,1.52,0,0,0-.25-.48c-.09-.13-.14-.23-.31-.29a1,1,0,0,0-.15.6,1.68,1.68,0,0,1,0,.34c.17.1.24.26.17.39a.49.49,0,0,1-.58.12c-.24-.09-.36-.28-.27-.44a.39.39,0,0,1,.34-.16s0-.08,0-.13.11-.61-.07-.73-.23,0-.32,0l-.4.13-.07,0a.23.23,0,0,1,0,.1.42.42,0,0,1-.5.13C12.29,17.64,12.2,17.46,12.29,17.31Z"/><path class="cls-28" d="M6.06,13.6s-.5.19-1,.43a6.33,6.33,0,0,0,.44-.72A2.23,2.23,0,0,1,6.06,13.6Z"/><path class="cls-29" d="M3.66,14.89A2.64,2.64,0,0,1,4.75,13.4a4,4,0,0,0-.26.93l-.28.17Z"/><path class="cls-30" d="M5,13.3a.85.85,0,0,1,.51,0,6.33,6.33,0,0,1-.44.72l-.57.29a4,4,0,0,1,.26-.93Z"/><path class="cls-31" d="M15.37,14.9l-.39.16h0a17.56,17.56,0,0,1-2.47-.24l-.27-.07a14.67,14.67,0,0,0,5-.71A6.71,6.71,0,0,1,15.37,14.9Z"/><path class="cls-32" d="M11.95,14.55a3.65,3.65,0,0,1,1.18-2.38,11.46,11.46,0,0,1,1.31.17,8.39,8.39,0,0,1,1.71.26c1,.24,1.42.93,1.23,1.33a.45.45,0,0,1-.1.12,14.67,14.67,0,0,1-5,.71C12.07,14.71,11.95,14.64,11.95,14.55Z"/><path class="cls-33" d="M3.69,15.26a.5.5,0,0,1,0-.38h0l.55-.39a22.54,22.54,0,0,1,2.67-1.23,6.48,6.48,0,0,1,2.06-.34,3.52,3.52,0,0,0,2.36-.54,3.52,3.52,0,0,1,1.83-.22,3.65,3.65,0,0,0-1.18,2.38c0,.16.34.24.53.28a17.56,17.56,0,0,0,2.47.24h0c-.25.11-.6.28-.93.45L13.2,16a2.28,2.28,0,0,0-.29.22,9.81,9.81,0,0,1-1.27.86,9.22,9.22,0,0,0,.93-1.58,3,3,0,0,0-.49,0c.08-.09,0-.16.07-.27A28,28,0,0,0,4.6,16.47l-.23-.15A1.6,1.6,0,0,1,3.69,15.26Z"/><path class="cls-34" d="M12.08,15.51c-1.32.17-2.15,1.22-2.94,2.07V17.5c-.24.26-2-.08-2.21-.12a7.49,7.49,0,0,1-2.33-.91,27.64,27.64,0,0,1,7.5-1.23C12,15.35,12.16,15.42,12.08,15.51Z"/><path class="cls-35" d="M3.74,16.14c.13-.3.28-.49.58-.23a9.65,9.65,0,0,1,2.57,2.88c-.52-.3-1.13-.48-1.68-.77l.2.08S3.9,16.87,3.74,16.14Z"/><path class="cls-36" d="M7.09,20.12a5.61,5.61,0,0,1,.82.11.6.6,0,0,1,.53-.16c.28,0,.48.21.45.39s-.29.29-.58.26a.52.52,0,0,1-.44-.28c-.28.05-.73.08-.94.15s-.59.27-.4.57a.63.63,0,0,1,.09.19h0c.27,0,.45.23.41.44a.49.49,0,0,1-.56.31c-.27,0-.45-.23-.41-.44a.32.32,0,0,1,.06-.13L6,21.41a1.93,1.93,0,0,1,.93-1S7,20.23,7.09,20.12Z"/><path class="cls-37" d="M7.1,20c-.22-.18-.48-.12-.73-.1l.35-.16a7.08,7.08,0,0,0,.78-.38c.16,0,.27.17.24.31a.37.37,0,0,1-.43.23h0a.79.79,0,0,1-.19.23A.18.18,0,0,0,7.1,20Z"/><path class="cls-38" d="M6.87,18.74A9.7,9.7,0,0,0,4.32,15.9c-.3-.26-.46-.06-.58.23a.47.47,0,0,1,0-.21.81.81,0,0,1,.91-.58c.92,1.13,2.45,2.14,3.15,3.35a.45.45,0,0,1-.1.48l-.19.15-.22.12A.91.91,0,0,0,6.87,18.74Z"/><path class="cls-39" d="M4.57,20c.44,0,1.65-.05,1.65-.05l.14-.08c.25,0,.52-.08.73.1a.18.18,0,0,1,0,.11l0,0h0c0,.11-.15.21-.16.26a1.93,1.93,0,0,0-.93,1c-.24-.28-.48-.63-.7-.66a2.72,2.72,0,0,1-2.12-.69C2.26,19.22.63,18.2.73,17.75a3.42,3.42,0,0,1,1.19.41C2.12,18.33,4.16,20,4.57,20Z"/><path class="cls-40" d="M2.53,17.08c.92.25,2.19.74,2.67.93s1.16.46,1.68.77l0,0a.91.91,0,0,1,.42.7,4.26,4.26,0,0,1-.56.26,2.42,2.42,0,0,1-1.33-.17c-.92-.33-3.49-1.39-3.49-1.39h0a3.42,3.42,0,0,0-1.19-.41v0C.88,17.29,1.37,16.76,2.53,17.08Z"/><path class="cls-41" d="M15.48,13.63a1.3,1.3,0,0,1-1.55.46.88.88,0,0,1-.57-1.26,1.3,1.3,0,0,1,1.55-.46A.88.88,0,0,1,15.48,13.63Z"/><path class="cls-42" d="M15.43,13.65a1.18,1.18,0,0,1-1.41.42.8.8,0,0,1-.52-1.14,1.18,1.18,0,0,1,1.41-.42A.8.8,0,0,1,15.43,13.65Z"/><path class="cls-43" d="M15.4,13.66a1.1,1.1,0,0,1-1.31.39A.75.75,0,0,1,13.6,13a1.1,1.1,0,0,1,1.31-.39A.75.75,0,0,1,15.4,13.66Z"/><path class="cls-44" d="M5.93,16.07a9,9,0,0,0,.9-.19c.19,0,.38-.08.56-.14s.18,0,.28-.06L8,15.6l.83-.14.52-.07c.17,0,.32-.09.49-.13a2.67,2.67,0,0,1,.63-.07c.15,0,.29,0,.46,0s.22-.06.33-.07a5.35,5.35,0,0,1,.62,0,.87.87,0,0,1,.45.11c.09.05.13.1.09.18a.26.26,0,0,1-.18.13c-.09,0-.12,0-.15,0s.07-.18,0-.18a1.54,1.54,0,0,0-.6,0h0l-.14.05s0,.06-.06.09-.05.15-.09.22-.13.22-.21.19,0-.23,0-.28.06-.18-.11-.18-.3,0-.35.17-.06.33-.11.49a1.61,1.61,0,0,1-.16.38c0,.07-.15.23-.28.22s0-.16,0-.2a3,3,0,0,0,.14-.32,1,1,0,0,0,0-.34.34.34,0,0,0-.17-.34.45.45,0,0,0-.58.14,1.08,1.08,0,0,0-.07.84.93.93,0,0,1,0,.65.22.22,0,0,1-.23.1c-.09,0-.08-.06-.09-.13s0-.43,0-.64a1.82,1.82,0,0,0-.14-.58c-.06-.13-.16-.28-.36-.21s-.32.48-.29.74c0,.11.21.89,0,.9s-.19-.14-.23-.2-.13-.24-.19-.36-.16-.45-.27-.66-.15-.17-.26-.08a.39.39,0,0,0-.1.26c0,.16,0,.33,0,.49S7.12,17,7,17s-.13,0-.16-.09a3.31,3.31,0,0,1-.2-.31,2.17,2.17,0,0,0-.09-.22c-.15-.21-.49-.12-.72-.11-.08,0-.22,0-.24-.09S5.85,16.08,5.93,16.07Z"/><path class="cls-45" d="M4.65,15.35a1.14,1.14,0,0,1,.7.3s2.21,2,2.46,3C7.1,17.48,5.57,16.47,4.65,15.35Z"/><path class="cls-46" d="M11.8,20.6c.17-.1-.06-.35-.1-.6l.11.06a5.72,5.72,0,0,1,.4-.47.22.22,0,0,1,0-.24.37.37,0,0,1,.45-.12.25.25,0,0,1,.17.36.36.36,0,0,1-.37.14,5.57,5.57,0,0,1-.48.64,5.22,5.22,0,0,1,1.72-.05l.09,0a.51.51,0,0,1,.35,0c.21.08.3.26.21.42a.44.44,0,0,1-.53.14.33.33,0,0,1-.24-.32c-.47-.25-1.53.14-1.53.14a1.81,1.81,0,0,1,1.43,1h0l.13,0a.24.24,0,0,1,.16.35.36.36,0,0,1-.43.13.24.24,0,0,1-.16-.35.27.27,0,0,1,.07-.08,1.5,1.5,0,0,0-.28-.48c-.33-.45-1.27-.37-1.27-.37a2.74,2.74,0,0,1,0,1,.63.63,0,0,1-.09.18.26.26,0,0,1,.08.33.43.43,0,0,1-.52.13c-.2-.08-.3-.26-.21-.4a.42.42,0,0,1,.47-.15h0c.28-.5-.13-1.26-.13-1.26l-.23-.18A1.32,1.32,0,0,0,11.8,20.6Z"/><path class="cls-47" d="M9.71,17.38l.1-.08a14,14,0,0,0,2.55-1.81h.21a9.22,9.22,0,0,1-.93,1.58l-.9.52,0,.13A1.65,1.65,0,0,0,9.71,17.38Z"/><path class="cls-48" d="M10.77,17.71c.11.43.45,1.81.48,1.93s.29.27.45.36c0,.24.27.49.1.6a1.32,1.32,0,0,1-.73,0c-.24-.19-.65-.53-1.1-.93A3.21,3.21,0,0,1,9.21,18a2.65,2.65,0,0,1,.51-.6A1.65,1.65,0,0,1,10.77,17.71Z"/><path class="cls-49" d="M12.36,15.49A14,14,0,0,1,9.81,17.3a2.72,2.72,0,0,0-.61.68c0-.18-.05-.32-.06-.4C10,16.67,10.88,15.53,12.36,15.49Z"/><path class="cls-50" d="M14.78,13.75l-.24-1A1.29,1.29,0,0,1,14.78,13.75Z"/><ellipse class="cls-51" cx="14.21" cy="12.98" rx="0.11" ry="0.09"/><path class="cls-51" d="M13.2,12.43h-.39l-.44,0a4.9,4.9,0,0,0-.57.1,2.54,2.54,0,0,0-.64.23l-.08,0-.07,0-.07,0-.08,0a2,2,0,0,1-.35.08c-.25,0-.52,0-.79.06s-.56,0-.84.05a5.79,5.79,0,0,0-.83.14l-.39.12-.36.14-.69.26L6,14l-.27.11-.24.1-.39.16-.25.11-.09,0,.09,0,.26-.09.41-.14.25-.09L6,14.12l.63-.21.7-.24.37-.13.38-.11a5.62,5.62,0,0,1,.8-.13l.83-.06a7.19,7.19,0,0,0,.82-.08,2,2,0,0,0,.38-.1L11,13l.09,0,.07,0,.07,0a2.54,2.54,0,0,1,.59-.24c.2-.05.38-.09.55-.12l.43-.06.28,0Z"/></g></g></svg>