<svg id="Layer_1" data-name="Layer 1" xmlns="http://www.w3.org/2000/svg" viewBox="0 0 29.31 17.73"><defs><style>.cls-1{fill:#2a9dd1;}.cls-2{fill:#2895c7;}.cls-3{fill:#45a8a5;}.cls-4{fill:#240e01;}.cls-5{fill:#451b01;}.cls-6{fill:#120700;}.cls-7{fill:#331400;}.cls-8{fill:#2eabe3;}.cls-9{fill:#2485b0;}.cls-10{fill:#71cff3;}</style></defs><title>shorter-4</title><rect class="cls-1" x="4.2" width="11.71" height="12.69" rx="4.43" ry="4.43"/><rect class="cls-2" x="4.2" width="6.69" height="3.06"/><path class="cls-3" d="M10.84,12.69V7.26H28.92a5.43,5.43,0,0,1-5.43,5.43Z"/><path class="cls-4" d="M1.54,11.17l-.45,6a.51.51,0,0,0,.51.54h0a.51.51,0,0,0,.47-.32l2.39-6A.51.51,0,0,0,4,10.7H2A.51.51,0,0,0,1.54,11.17Z"/><path class="cls-5" d="M.75,11.17l-.45,6a.51.51,0,0,0,.51.54h0a.51.51,0,0,0,.47-.32l2.39-6a.51.51,0,0,0-.47-.69H1.25A.51.51,0,0,0,.75,11.17Z"/><path class="cls-6" d="M8.43,11.17l-.45,6a.51.51,0,0,0,.51.54h0A.51.51,0,0,0,9,17.41l2.39-6a.51.51,0,0,0-.47-.69H8.94A.51.51,0,0,0,8.43,11.17Z"/><path class="cls-7" d="M7.64,11.17l-.45,6a.51.51,0,0,0,.51.54h0a.51.51,0,0,0,.47-.32l2.39-6a.51.51,0,0,0-.47-.69H8.15A.51.51,0,0,0,7.64,11.17Z"/><path class="cls-4" d="M22.33,11.17l.45,6a.51.51,0,0,1-.51.54h0a.51.51,0,0,1-.47-.32l-2.39-6a.51.51,0,0,1,.47-.69h1.94A.51.51,0,0,1,22.33,11.17Z"/><path class="cls-5" d="M21.54,11.17l.45,6a.51.51,0,0,1-.51.54h0a.51.51,0,0,1-.47-.32l-2.39-6a.51.51,0,0,1,.47-.69H21A.51.51,0,0,1,21.54,11.17Z"/><path class="cls-6" d="M28.86,5.65l.45,11.54a.51.51,0,0,1-.51.54h0a.51.51,0,0,1-.47-.32L25.94,5.87a.51.51,0,0,1,.47-.69h1.94A.51.51,0,0,1,28.86,5.65Z"/><path class="cls-7" d="M28.23,5.65l.45,11.54a.51.51,0,0,1-.51.54h0a.51.51,0,0,1-.47-.32L25.31,5.87a.51.51,0,0,1,.47-.69h1.94A.51.51,0,0,1,28.23,5.65Z"/><path class="cls-1" d="M25.63,0h0a3.35,3.35,0,0,0-3.35,3.35v9.35h1.15A5.54,5.54,0,0,0,29,7.16V3.35A3.35,3.35,0,0,0,25.63,0Z"/><path class="cls-2" d="M25.91,0H22.29V3.06H29A3.06,3.06,0,0,0,25.91,0Z"/><path class="cls-8" d="M0,7.17h22.3a0,0,0,0,1,0,0v5.51a0,0,0,0,1,0,0H5.18A5.17,5.17,0,0,1,0,7.52V7.17a0,0,0,0,1,0,0Z"/><path class="cls-9" d="M5.52,8.45H18.08V7.26H0v1.2a4.23,4.23,0,0,0,4.23,4.23H5.52Z"/><path class="cls-10" d="M22.29,0h0a4.2,4.2,0,0,0-4.2,4.2v8.49h4.2Z"/><path class="cls-10" d="M4.2,0h0A4.2,4.2,0,0,0,0,4.2V8.49a4.2,4.2,0,0,0,4.2,4.2h0Z"/></svg>