<svg id="Layer_1" data-name="Layer 1" xmlns="http://www.w3.org/2000/svg" xmlns:xlink="http://www.w3.org/1999/xlink" viewBox="0 0 122.55 175.75"><defs><radialGradient id="radial-gradient" cx="13.62" cy="-1953.67" r="83.08" gradientTransform="translate(-1911.13 93.64) rotate(90)" gradientUnits="userSpaceOnUse"><stop offset="0" stop-color="#fe4a55"/><stop offset="1" stop-color="#d03b61"/></radialGradient><linearGradient id="linear-gradient" x1="-94.53" y1="-1974.89" x2="-55.45" y2="-1970.11" gradientTransform="translate(-1911.13 93.64) rotate(90)" gradientUnits="userSpaceOnUse"><stop offset="0" stop-color="#d03b61"/><stop offset="0.36" stop-color="#e7435b"/><stop offset="0.72" stop-color="#f84857"/><stop offset="1" stop-color="#fe4a55"/></linearGradient><linearGradient id="linear-gradient-2" x1="-7.58" y1="-2038.08" x2="-4.01" y2="-1992.6" xlink:href="#linear-gradient"/></defs><title>21</title><rect y="38.77" width="85.07" height="136.98" fill="url(#radial-gradient)"/><polygon points="37.48 0 0 38.77 85.07 38.77 122.55 0 37.48 0" fill="url(#linear-gradient)"/><polygon points="122.55 0 85.07 38.77 85.07 175.75 122.55 136.98 122.55 0" fill="url(#linear-gradient-2)"/><path d="M41,145.8a2.27,2.27,0,0,0,1.87.73c1.25,0,2.48.2,2.94.72a4,4,0,0,1,.57.75c.18.26-.15.14-.44-.08a2.71,2.71,0,0,0-.71-.1,17.55,17.55,0,0,0-2-.08c-1,0-3,.48-3.13,0S40.53,145.48,41,145.8Z" fill="#342c29"/><path d="M35.2,114.57c-1,.73,0,3.26-.72,4.79s-1.22,2.48-1,4,1.95,8.44,1.79,10.7.36,8.3,0,9.64-.33,2.3.41,3.1c.48.52.66,1.41,1.29,1.49.91.12,1.57.4,2.23.47,1.2.12,3.49-1,4.53-.62s2.46.34,3,.61.32-.24,0-.56a5.77,5.77,0,0,0-2.3-1.41c-.84-.17-2.3.12-3.44-.92s-1.24-1-1.48-2.13a49.63,49.63,0,0,1-.71-7.81c.13-1.72-.66-6.2-.49-7.22s2-3.73,2.29-5.27a6.57,6.57,0,0,1,3.16-4C45.33,118.56,36.66,113.46,35.2,114.57Z" fill="#4e423e"/><path d="M31.67,115.32a3.47,3.47,0,0,1,2.69,2.77c.35,1.14-1.06,5.57,1,4.95,1.14-.34,1.81.37,2.71.93.63.39,1.77.58,2,1s1.55-1.54,2.25-2.44a15,15,0,0,0,2-3.62,8.06,8.06,0,0,1,2.48-4c1.21-.83.63-4.29-3.76-4.34S30.6,115.07,31.67,115.32Z"/><path d="M40.1,147.34c1.25,0,2.48.2,2.94.72a4.07,4.07,0,0,1,.57.75c.18.26-.15.14-.44-.08a2.73,2.73,0,0,0-.71-.1,8.05,8.05,0,0,0-2,0C39.47,148.78,38.9,147.33,40.1,147.34Z" fill="#4e423e"/><path d="M69.24,71.26a1.24,1.24,0,0,1-.14-1.48c.43-.65,1.18-2.52,2.09-3s.7-.9,1.13-1.46,1.73-1.7,2.37-1.26,2.52,2.33,2.78,3.79a12.83,12.83,0,0,1,0,3.91c-.13.49.09.35.55.48s1.52.32,1.71.71-2.13.67-2.83.41-5.42-.33-6.39-1S69.43,71.58,69.24,71.26Z" fill="#8b756d"/><path d="M79.73,72.94c-.19-.4-1.24-.58-1.71-.71s-.69,0-.55-.48a12.83,12.83,0,0,0,0-3.91c-.25-1.46-2.14-3.35-2.78-3.79l-.07,0a9.6,9.6,0,0,1,2.06,3.33,18,18,0,0,1,.21,3.06c.22.85-.06,2.68-1.32,2.76a7.51,7.51,0,0,1,1.33.19C77.6,73.61,79.92,73.33,79.73,72.94Z" fill="#4e423e"/><path d="M74.1,64.46c-.49.26-1.57,1-1.61,1.51a2.33,2.33,0,0,1-1.29,1.68c-.66.22-2,2.77-1.56,2.66a8.5,8.5,0,0,1,4.27.05c.62.23,1.55.57,1.66.1A7.21,7.21,0,0,0,76,67.89C75.84,66.62,74.78,64.08,74.1,64.46Z" fill="#685852"/><path d="M79.73,72.94a.64.64,0,0,0-.27-.25A15.64,15.64,0,0,0,77,72.31a2.54,2.54,0,0,1-1.05-.16c-.2-.12-.75-.7-1.31-1.08a4.72,4.72,0,0,0-2.27-.45h-2c-.36,0-1.3.3-1.17.5l.09.15c.19.32.3.47,1.27,1.11s5.7.72,6.39,1S79.92,73.33,79.73,72.94Z" fill="#4e423e"/><path d="M70.71,91.75c-.23.93-.91,3.51-.43,3.81s1.21-.81,1.29-1.73a10.74,10.74,0,0,0-.29-3.45C71,90,70.89,91.06,70.71,91.75Z" fill="#8e423e"/><path d="M73.09,87.54a11.32,11.32,0,0,0-.43,2.85c0,.85.18,2.19.28,2.93s.31,2.75-.28,2.73-1-.07-1.23-1.38.4-2.76-.19-3.68.15-1.35.55-2.18S73.23,87.05,73.09,87.54Z" fill="#ff756d"/><path d="M72.29,89.72c-.1-.47.52-1.12,0-1.7a3.81,3.81,0,0,0-.53.79c-.39.83-1.06,1.4-.55,2.18s.22,1.69.17,2.7A4.9,4.9,0,0,0,71.6,95c.16.5.84.8,1,.4a4.22,4.22,0,0,0,0-1.62c0-.41-.17-1.2-.22-2S72.38,90.14,72.29,89.72Z" fill="#e86767"/><path d="M76,74.39a12.47,12.47,0,0,1-2.17,1.33c-.68.31-.79,1-1.23.83a.62.62,0,0,1-.28-1.1c.47-.53.32-.83,1.23-1S76.41,74.09,76,74.39Z" fill="#04173c"/><path d="M81.22,73.55a7.76,7.76,0,0,0-2.72-1c-1-.12-1.9-.14-2.32-.18s-.93-.92-1.91-1.33a9,9,0,0,0-2.87-.32,3.57,3.57,0,0,0-2.56.64c-.87.51-.93,1.73-1.53,2.73a8.24,8.24,0,0,0-.39,3.61c.11,1.17.59,1.52,1.09,2.94a3.52,3.52,0,0,1-.87,4c-1.11.8-5.53,4.21-3.32,6.89s4.82,4.44,5.71,3.37,2.1-5,3-6.19,1.1-4,.84-5.67-1.18-4.94-1-5.71A5.88,5.88,0,0,1,73.72,75c.63-.49,1.7-.38,2.33-.54a13.58,13.58,0,0,1,2.79-.21c.83,0,2.16.12,2.35.09s.18-.11.28-.09.17.05.16-.08A.94.94,0,0,0,81.22,73.55Z" fill="#2b90f3"/><path d="M80.51,74.35a3.8,3.8,0,0,0,.41-1,8.26,8.26,0,0,0-2.42-.79c-1-.12-1.9-.14-2.32-.18s-.93-.92-1.91-1.33a9,9,0,0,0-2.87-.32,3.57,3.57,0,0,0-2.56.64c-.87.51-.93,1.73-1.53,2.73a8.24,8.24,0,0,0-.39,3.61v.05c.13-1.81,1.18-3.11,2.31-2.86a3.86,3.86,0,0,0,2.61-.44c.42-.24.34-.9,1-.78a12.8,12.8,0,0,1,4.16.64,17.08,17.08,0,0,1,1.8-.06Z" fill="#98e2ea"/><path d="M74.26,72.93a3.19,3.19,0,0,1-.56-.54c-.25-.3-.35-.55-.74-.47s-.72.6-1.29.65-.67.32-.39.6a3.16,3.16,0,0,0,1.65.46,3.58,3.58,0,0,0,1.45-.19C74.69,73.25,74.38,73,74.26,72.93Z" fill="#97dadd"/><path d="M76.18,72.39c-.42,0-.93-.92-1.91-1.33a9,9,0,0,0-2.87-.32,3.57,3.57,0,0,0-2.56.64c-.68.4-.87,1.23-1.2,2.05.08-.21.23-.45.28-.58a3.88,3.88,0,0,1,1.79-1.66,3.67,3.67,0,0,1,1.92.09c.35,0,.36-.2,1-.23a3.91,3.91,0,0,1,2.17.61c.41.37.64.45.9.86.06.09.51.12.72.23s.35-.12.49-.33Z" fill="#97dadd"/><path d="M74,73a.72.72,0,0,1-.25-.25.81.81,0,0,0-.47-.44.71.71,0,0,0-.73.24c-.12.21-.25.43-.07.67s.26.41.62.37.6-.44.7-.41S74,73.06,74,73Z" fill="#2b90f3"/><ellipse cx="73.05" cy="72.9" rx="0.54" ry="0.52" transform="translate(-16.28 21.23) rotate(-14.89)" fill="#b77748"/><path d="M72.52,72.87c.11.22.78.27,1-.16a.53.53,0,0,0-.63-.31A.54.54,0,0,0,72.52,72.87Z" fill="#895936"/><path d="M73.57,72.76a.57.57,0,0,1,0,.41.5.5,0,0,1-.14.17.54.54,0,0,1-.2.09.61.61,0,0,1-.42-.06.58.58,0,0,1-.17-.14.51.51,0,0,1-.1-.19.54.54,0,0,1,.06-.42.57.57,0,0,1,.35-.26.58.58,0,0,1,.22,0,.55.55,0,0,1,.36.22A.61.61,0,0,1,73.57,72.76Zm0,0a.45.45,0,0,0-.25-.3.59.59,0,0,0-.19,0,.55.55,0,0,0-.19,0,.51.51,0,0,0-.3.22.49.49,0,0,0-.06.37.45.45,0,0,0,.24.3.54.54,0,0,0,.38,0,.53.53,0,0,0,.31-.22A.49.49,0,0,0,73.55,72.77Z" fill="#1c1308"/><path d="M73.29,72.85a.21.21,0,0,1-.15.26.19.19,0,0,1-.23-.16.2.2,0,0,1,.38-.1Z" fill="#060608"/><path d="M76.37,72.76c.09.06.19.23-.07.41a5.1,5.1,0,0,1-1.33.46,6.33,6.33,0,0,0,1.77-.21c.36-.19.6-.09.38-.4S76.27,72.69,76.37,72.76Z" fill="#97dadd"/><path d="M76.11,74.47c-.06-.29-.55-.55-.92-.55s-.49.07-.75.09-.35.29-.46.41-.07.34-.45.79a1.61,1.61,0,0,1,.2-.19c.63-.49,1.7-.38,2.33-.54Z" fill="#206eb6"/><path d="M81.63,74.18a.94.94,0,0,0-.41-.64,7.76,7.76,0,0,0-2.72-1c-.76-.09-1.51-.13-2-.16-.16.05,0,.13-.14.23s.18.11.32.31,0,.29-.41.41a12.65,12.65,0,0,1-2.23.34c-.6,0-1.44.09-1.44.24s.31.14.49.14A17.68,17.68,0,0,1,75.56,74c.25.08.09.42.42.48l.07,0a13.58,13.58,0,0,1,2.79-.21c.83,0,2.16.12,2.35.09s.18-.11.28-.09S81.64,74.32,81.63,74.18Z" fill="#515657"/><path d="M80.78,74.15c-.32-.08-1-.18-1.39-.3a3.43,3.43,0,0,0-1.09-.2,12,12,0,0,0-2.27.19,5.39,5.39,0,0,1-.85.14,1.48,1.48,0,0,1,.37,0c.25.08.09.42.42.48l.07,0a13.58,13.58,0,0,1,2.79-.21c.83,0,2.16.12,2.35.09a.63.63,0,0,0,.16-.07Z" fill="#292b2c"/><path d="M81.36,74.29l-.07,0-.4-.11L80.36,74l-1.07-.26a8.33,8.33,0,0,0-1.09-.16c-.37,0-.73-.05-1.1,0h-.28l-.28,0-.55.06-1.1.1c-.73.06-1.46.12-2.19.21h0l1.1-.05,1.1-.08L76,73.71l.55-.06.27,0h.27c.37,0,.73,0,1.09.07a9.67,9.67,0,0,1,1.08.17l.54.12.54.11.54.1.4.08s0,0,.06,0Z" fill="#151616"/><path d="M69.83,75.78c-.49-.32.68.71,1.32,1.86a4.9,4.9,0,0,1,.31,1.61c.37,1.6.93,2.32,1.06,3.39s.45,1.4.42.84-.45-3-.58-3.74a4.41,4.41,0,0,1,.09-1.47,2.9,2.9,0,0,1,0-1,7.18,7.18,0,0,1,1-2c-1,1.13-.94.72-1.71.9A2.37,2.37,0,0,1,69.83,75.78Z" fill="#206eb6"/><path d="M69.56,72a1.32,1.32,0,0,0-.25.67c0,.22-.21.85.12,1.06s.65.48,1,.06.44-.57.42-.91.16-.64-.08-.87A1.14,1.14,0,0,0,69.56,72Z" fill="#97dadd"/><path d="M69.63,72.42a1.28,1.28,0,0,0-.13,1.1c.2.44.68.54.81.19s.24-.42.18-.81-.38-.63-.51-.62S69.67,72.32,69.63,72.42Z" fill="#72aab0"/><path d="M69.72,73c-.1,0-.12.09-.07.29s.3.36.36.21a.67.67,0,0,0,.1-.3C70.09,73,69.86,73,69.72,73Z" fill="#0b1314"/><path d="M69.56,72.35a.48.48,0,0,1,.56-.07c.21.14.36.3.36.44s.09.26.09.15.08-.26-.06-.44-.11-.27-.32-.29-.45,0-.55.08S69.5,72.39,69.56,72.35Z" fill="#72aab0"/><path d="M69.63,73.32c0-.06-.06-.18,0-.25s.05-.09.14-.09.18,0,.11,0a.34.34,0,0,0-.22,0s-.08,0-.08.16S69.64,73.39,69.63,73.32Z" fill="#395558"/><path d="M80.09,73.46a.6.6,0,0,0-.21-.32c-.11-.06-.2-.19-.38-.17a.67.67,0,0,0-.43.13c-.07.08-.09.32.09.36a1.37,1.37,0,0,0,.59.08C79.93,73.49,80.12,73.51,80.09,73.46Z" fill="#3d4141"/><path d="M79.89,73.14c-.11-.06-.2-.19-.38-.17a.67.67,0,0,0-.43.13c-.07.08-.09.32.09.36h0c.05,0,.17-.07.33-.12s.55.1.52,0A.47.47,0,0,0,79.89,73.14Z" fill="#212325"/><path d="M79,73.29c0-.06,0-.18,0-.22a.45.45,0,0,1,.24-.11.93.93,0,0,1,.36,0c.1,0,.06,0,0,0l-.2,0a.36.36,0,0,0-.15,0l-.18,0A.16.16,0,0,0,79,73a.39.39,0,0,0,0,.18C79,73.27,79,73.32,79,73.29Z" fill="#212325"/><path d="M79.49,73.57a.82.82,0,0,0,.25,0l.23,0c.08,0,.13,0,.06,0a.34.34,0,0,0-.16,0,.56.56,0,0,1-.18,0Z" fill="#3d4141"/><path d="M69.07,73.85a.87.87,0,0,1-.11.67c-.15.15-.08.31-.42.44-.61.23.8.52,1.39.43,1-.15,1.75-.76,1.33-.64s-.55.11-.46-.25.61-.68.28-.63-.81.28-1.17.3C69.22,74.21,69,73.68,69.07,73.85Z" fill="#2b90f3"/><path d="M67.31,74.12a2.17,2.17,0,0,0-.21.53.3.3,0,0,0,.14.34c.24.19.25.1.19-.27a2.68,2.68,0,0,1,.19-1.22A4.68,4.68,0,0,1,67.31,74.12Z" fill="#97dadd"/><path d="M72.54,88.69a4.87,4.87,0,0,0,.73-1.87c-.44,1.2-1.64-1.65-2.05-2.56-.57-1.25-1.56-.06-2,.66s-.72,1.09-.85.47-2,.74-2,.74-.89,1.21-1.89,2.89,1.44,3.51,3.88,3.76a3.7,3.7,0,0,0,2.76-1.25A16.35,16.35,0,0,1,72.54,88.69Z" fill="#206eb6"/><path d="M68.77,80.89c-.38-.85-1.1-2.39-1.23-2.87a5,5,0,0,1-.32-1.18c0-.53,0-1.14-.07-1.42s-.16-.24-.19,0a12.55,12.55,0,0,0,0,2.36c.11,1.17.59,1.52,1.09,2.94a3.52,3.52,0,0,1-.87,4c-.81.58-3.37,2.54-3.85,4.6,1.63-.66,4.55-3.88,5.29-4.63S69.15,81.73,68.77,80.89Z" fill="#ff756d"/><path d="M68.54,82.62c0-.21-.21-.8-.41-1.52a3.39,3.39,0,0,1-1,3.52,16.06,16.06,0,0,0-2,1.72,1,1,0,0,0,.15.2,13.16,13.16,0,0,0,2.59-2A2,2,0,0,0,68.54,82.62Z" fill="#e86767"/><path d="M67.47,90.17c.64-.68,2-1.06,2-2.08s.06-3.67.67-3.21A5.06,5.06,0,0,1,71.87,88a11,11,0,0,1-.82,4.22c-.2.61-1.72,2.12-2.66,3.8-1.42,2.53-3.51,5.36-4.53,7.7-.95,2.16-5.73,5.6-8.88,7.35S44.77,117,38.59,116.73s-15.78,0-19.46,2.36-7.22,3.54-7.63,4.65-.7,1.75-1.58,1.52a4,4,0,0,0-1.93,0c-.53.07-1.05-.16-1.69-.92s-1.64-1.17-1.93-.82-.58-2-.41-4.49.48-5.95-.05-5.83-.82-1.57.35-3.15.76-2,.88-3.15a7.26,7.26,0,0,1,2.92-4c1.34-.87.41-1.46,1.34-2.22s1.34-3.56,3.92-5,12.62-7.29,16.13-8.16a155,155,0,0,1,19.11-2.45c5.38-.32,12.84.13,13.88.13s3.65-.14,3.72.1c0,0,0,0,0,0-.21.25.78.62,1.2.61s.27,1,.09,1.46a10.69,10.69,0,0,0-.58,2.29C66.84,90.5,67.21,90.44,67.47,90.17Z" fill="#293133"/><path d="M25.64,106.31c1.4-1.81,3-4.26,1.34-4.72s-3.68-.18-3.39-1.28-3.1-.7-4.09-.35-3.45-.47-3.39-1.11.53-1.52-1-1.81-2.22.87-1.46-.64a7.78,7.78,0,0,1,1.94-1.92l-2.29,1.28c-2.57,1.4-3,4.2-3.92,5s0,1.34-1.34,2.22a7.26,7.26,0,0,0-2.92,4c-.12,1.17.29,1.57-.88,3.15s-.88,3.27-.35,3.15.23,3.38.05,5.83.12,4.84.41,4.49,1.29.06,1.93.82,1.17,1,1.69.92a4,4,0,0,1,1.93,0c.88.23,1.17-.41,1.58-1.52s3.95-2.29,7.63-4.65a10.22,10.22,0,0,1,2.59-1.1,23.06,23.06,0,0,1,1.47-3.4C24.3,112.08,24.24,108.12,25.64,106.31Z" fill="#1f2526"/><path d="M40.13,96c.82,1.69,1.23,1.11,2.81,4.61s3.51,5.13,3.51,7.46-.47,6.13-.61,7.35h0A57.72,57.72,0,0,0,55,111.09c3.16-1.75,7.94-5.19,8.88-7.35A31.52,31.52,0,0,1,66,99.89a8.48,8.48,0,0,1-1.46-2.09c-.64-1.52-.88-2-2.45-1.17s-3.21-1-5.73.7-3.56,2-5.14,1.33-3.21.66-4,1S39.32,94.36,40.13,96" fill="#1f2526"/><path d="M51.53,85c-1,0-2,0-3,.1A155,155,0,0,0,29.44,87.6c-3.51.87-13.56,6.76-16.13,8.16a5.65,5.65,0,0,0-1.45,1.13c.14,2,.92,3.24,1.62,2,1.58-2.86,6.6-4.14,7.66-5.88s6.6-2.22,7.54-3.15,5.9-1,8.12-2.41C38.21,86.54,46,85.61,51.53,85Z" fill="#1f2526"/><path d="M71.05,92.25a16.51,16.51,0,0,0,.73-2.74A5,5,0,0,1,69.13,93c-1.27.94-3.65,6.41-4.26,5.42-.3-.49-.43,2.83-.28,3.91,1.1-2,2.66-4.22,3.8-6.24C69.33,94.37,70.85,92.85,71.05,92.25Z" fill="#1f2526"/><path d="M46.25,111.6c-.36,2-3.72,1.59-6.18,2.64s-7,1-11,1.23-5.62-.57-5.41-2.12-5.19,3.47-4.81,5.94l.31-.2c3.68-2.36,13.28-2.62,19.46-2.36,5.22.22,11.05-2.7,14.65-4.67C51.89,111.07,46.37,111,46.25,111.6Z" fill="#1f2526"/><path d="M35.67,147.51a2.15,2.15,0,0,0,1.82.64c1.25,0,2.48.2,2.94.72a4.07,4.07,0,0,1,.57.75c.18.26-.15.14-.44-.08a2.74,2.74,0,0,0-.71-.1,17.54,17.54,0,0,0-2-.08c-1,0-3,.48-3.13,0S35.25,147.2,35.67,147.51Z" fill="#685852"/><path d="M29.85,116.22c-1,.73,0,3.26-.72,4.79s-1.22,2.48-1,4,1.95,8.44,1.79,10.7.36,8.3,0,9.64-.33,2.3.41,3.1c.48.52.66,1.41,1.29,1.49.91.12,1.57.4,2.23.47,1.2.12,3.49-1,4.53-.62s2.46.34,3,.61.32-.24,0-.56a5.78,5.78,0,0,0-2.3-1.41c-.84-.17-2.3.12-3.44-.92s-1.24-1-1.48-2.13a49.62,49.62,0,0,1-.71-7.81c.13-1.72-.66-6.2-.49-7.22s2-3.73,2.29-5.27a6.57,6.57,0,0,1,3.16-4C40,120.22,31.31,115.12,29.85,116.22Z" fill="#8b756d"/><path d="M31.57,149.18c-.66-.88-1.4-2.54-.92-3.76s-.18-5-.31-6.56.18-4.37-.2-6-.85-5.52-1.31-7.19-.41-1.46,0-2A4.16,4.16,0,0,1,31,121.8c.26-.09.24-1.49-1.72-1.06a2.28,2.28,0,0,1-.11.26c-.73,1.53-1.22,2.48-1,4s1.95,8.44,1.79,10.7.36,8.3,0,9.64-.33,2.3.41,3.1c.48.52.66,1.41,1.29,1.49.91.12,1.57.4,2.23.47a2.39,2.39,0,0,0,.43,0C33.41,150.15,32.07,149.85,31.57,149.18Z" fill="#685852"/><path d="M26.64,117.06a2.54,2.54,0,0,1,2.3,2.82c-.13.66-.07,2.74.83,3.41.66.49,4,2.37,4.3,3.24.71,2.19,4.85-4.2,5.47-5.95s2.81-4.16,4.21-4.48-1.11-3.84-5.49-3.9S25.54,117.08,26.64,117.06Z" fill="#1f2526"/><path d="M35,149c1.25,0,2.48.2,2.94.72a4,4,0,0,1,.57.75c.18.26-.15.14-.44-.08a2.72,2.72,0,0,0-.71-.1,13.41,13.41,0,0,0-2.28,0c-1,.13-2-.29-2.06-.78S33.78,149,35,149Z" fill="#8b756d"/></svg>