<svg xmlns="http://www.w3.org/2000/svg" xmlns:xlink="http://www.w3.org/1999/xlink" viewBox="0 0 62.12 78.95"><defs><radialGradient id="radial-gradient" cx="16.76" cy="-530.18" r="31.3" gradientTransform="translate(-362.57 417.77) rotate(45) scale(1.02 1.02)" gradientUnits="userSpaceOnUse"><stop offset="0" stop-color="#29aad8"/><stop offset="1" stop-color="#2990ce"/></radialGradient><linearGradient id="linear-gradient" x1="-15.55" y1="-507.14" x2="-1.62" y2="-505.43" gradientTransform="translate(-336.5 387.9) rotate(45)" gradientUnits="userSpaceOnUse"><stop offset="0" stop-color="#299bdb"/><stop offset="0.44" stop-color="#29a4d9"/><stop offset="1" stop-color="#29aad8"/></linearGradient><linearGradient id="linear-gradient-2" x1="12.97" y1="-535.48" x2="14.11" y2="-520.97" xlink:href="#linear-gradient"/><clipPath id="clip-path"><path d="M38,42.92a5.46,5.46,0,0,0-1.26.24,4.08,4.08,0,0,0-.61.23l-.19.09h0A4.12,4.12,0,0,0,34,46a5.75,5.75,0,0,0-3.67-1.74l-.45.55c-.19.24-.35.46-.47.64a5.86,5.86,0,0,0-.41.66.68.68,0,0,1-.23,0,1,1,0,0,1-.29,0,1.12,1.12,0,0,1-.26-.1l-.2-.33-.62-1.07h0a3.2,3.2,0,0,0-.4.23,3.24,3.24,0,0,0-.52.44,3.65,3.65,0,0,0-.52.7,4.29,4.29,0,0,0-.57,2.05,4.17,4.17,0,0,0,.16,1.11h0a3.91,3.91,0,0,0,.4.94,3.54,3.54,0,0,0,.52.7,3.06,3.06,0,0,0,.52.44,3.2,3.2,0,0,0,.4.23h0L28,50.42l.2-.33a1.12,1.12,0,0,1,.26-.1,1,1,0,0,1,.29,0A.68.68,0,0,1,29,50a5.63,5.63,0,0,0,.41.67c.12.18.28.39.47.63l.45.55A5.73,5.73,0,0,0,34,50.09a3.87,3.87,0,0,0,.19.56,3.82,3.82,0,0,0,1.81,2h0l.19.09a4.07,4.07,0,0,0,.61.23h0a5.56,5.56,0,0,0,1.25.23,7.39,7.39,0,0,0,1.15,0,8.57,8.57,0,0,0,.9-.1,11.4,11.4,0,0,0,1.87-.47l.74-.28c.37-.15.71-.3,1-.46h0a16.64,16.64,0,0,0,1.6-.84,14,14,0,0,0,1.45-1c1.19-.91,1.76-1.7,1.76-2S48,47,46.79,46h0a15,15,0,0,0-1.45-1h0a17.5,17.5,0,0,0-1.59-.84h0q-.5-.23-1-.46l-.74-.27A11.14,11.14,0,0,0,40.07,43a8.62,8.62,0,0,0-.9-.1A7.38,7.38,0,0,0,38,42.92Z" fill="none"/></clipPath><radialGradient id="radial-gradient-2" cx="4602.61" cy="294.53" r="22.89" gradientTransform="matrix(0.31, 0, 0, 0.44, -1383.63, -78.46)" gradientUnits="userSpaceOnUse"><stop offset="0" stop-color="#fae282"/><stop offset="0.19" stop-color="#e0853b"/><stop offset="0.37" stop-color="#78471e"/><stop offset="0.53" stop-color="#40260f"/><stop offset="0.7" stop-color="#140c03"/><stop offset="0.84" stop-color="#060401"/><stop offset="1"/></radialGradient><radialGradient id="radial-gradient-3" cx="4602.72" cy="269.95" r="11.2" gradientTransform="matrix(0.31, 0, 0, 0.44, -1394.39, -68.08)" xlink:href="#radial-gradient-2"/><clipPath id="clip-path-2"><path d="M22.41,46.06a7.81,7.81,0,0,0-.64.58h0a5.44,5.44,0,0,0-.51.57,1.18,1.18,0,0,0,0,1.74,5.93,5.93,0,0,0,.51.58,7.29,7.29,0,0,0,.64.57s1.24,1.93,3.5,0a3.91,3.91,0,0,1-.4-.94h0a4.17,4.17,0,0,1-.16-1.11A4.29,4.29,0,0,1,25.91,46C23.65,44.13,22.41,46.06,22.41,46.06Z" fill="none"/></clipPath><radialGradient id="radial-gradient-4" cx="4675.09" cy="10.95" r="11.2" gradientTransform="matrix(0.31, 0, 0, 0.44, -1419.94, 45.01)" xlink:href="#radial-gradient-2"/><radialGradient id="radial-gradient-5" cx="4681.83" cy="3.63" r="11.2" gradientTransform="matrix(0.31, 0, 0, 0.44, -1422.1, 44.4)" xlink:href="#radial-gradient-2"/></defs><title>25</title><g style="isolation:isolate"><g id="Layer_1" data-name="Layer 1"><polygon points="31.15 78.95 0.28 48.08 31.18 17.19 62.12 48.13 31.15 78.95" fill="url(#radial-gradient)"/><polygon points="0 30.89 0.28 48.08 31.18 17.19 30.89 0 0 30.89" fill="url(#linear-gradient)"/><polygon points="30.89 0 31.18 17.19 62.12 48.13 62.12 31.06 30.89 0" fill="url(#linear-gradient-2)"/><path d="M27.26,61.43a2.13,2.13,0,0,1,1.25-1.59,12.7,12.7,0,0,0,.6,2,6,6,0,0,1-.56,1.93C27.13,63.31,27.26,61.43,27.26,61.43Z" fill="#e5e8d4"/><path d="M25.35,59.75A2.53,2.53,0,0,1,27,58a13.09,13.09,0,0,0,.08,2.52s-.51,1.44-1.45,1.32A3.17,3.17,0,0,1,25.35,59.75Z" fill="#e5e8d4"/><path d="M27.26,61.43s-.13,1.88,1.29,2.35a6.4,6.4,0,0,1-.45.79C27.47,64,26,64.2,26,64.2A4.67,4.67,0,0,0,27.26,61.43Z" fill="#e5e8d4"/><path d="M27.07,60.53a7.56,7.56,0,0,0,.19.9A4.67,4.67,0,0,1,26,64.2c-.37-.42-.7-.3-.7-.3A3.7,3.7,0,0,1,25.57,62v0l0,0,0,0C26.56,62,27.07,60.53,27.07,60.53Z" fill="#e5e8d4"/><path d="M25,64.35a.15.15,0,0,1-.11,0,5.08,5.08,0,0,1-1.8,0c1,0,1-1.63,1-1.63A1.22,1.22,0,0,0,25.57,62a3.7,3.7,0,0,0-.22,1.93C25.18,64.21,25,64.32,25,64.35Z" fill="#e5e8d4"/><path d="M25.35,63.9s.32-.12.7.3a1,1,0,0,1-.43.6,1.5,1.5,0,0,1-.37-.15.8.8,0,0,1-.3-.29C25,64.32,25.18,64.21,25.35,63.9Z" fill="#dccbb6"/><path d="M26,64.2s1.42-.23,2.06.37a8.61,8.61,0,0,1-2,2.11,3.35,3.35,0,0,1-.49-1.88A1,1,0,0,0,26,64.2Z" fill="#e5e8d4"/><path d="M25.25,64.65a1.5,1.5,0,0,0,.37.15,3.35,3.35,0,0,0,.49,1.88,10.05,10.05,0,0,1-1.36.87,2,2,0,0,0-1.54-.24,3.93,3.93,0,0,0,1.26-1.17A5.64,5.64,0,0,0,25.25,64.65Z" fill="#e5e8d4"/><path d="M24.84,64.36a.15.15,0,0,0,.11,0,.8.8,0,0,0,.3.29,5.64,5.64,0,0,1-.78,1.49A2.92,2.92,0,0,1,23,64.36,5.08,5.08,0,0,0,24.84,64.36Z" fill="#e5e8d4"/><path d="M23.21,67.31a2,2,0,0,1,1.54.24,3.91,3.91,0,0,1-2.33.67,2.33,2.33,0,0,1-.3-.54s.49.4,1.08-.37Z" fill="#e5e8d4"/><path d="M21.87,66.36h0a.74.74,0,0,0,.63-.19,1.66,1.66,0,0,1,.69,1.14c-.59.77-1.08.37-1.08.37A3.78,3.78,0,0,1,21.87,66.36Z" fill="#e5e8d4"/><path d="M22.7,62a.72.72,0,0,1,1-.19s.28.56.42.88c0,0-.07,1.61-1,1.63a2.13,2.13,0,0,1-.63-1.42c.09-.29.18-.59.28-.9Z" fill="#dccbb6"/><path d="M23.68,61.85c.19-2.32,1.67-2.1,1.67-2.1a3.17,3.17,0,0,0,.27,2.1l0,0,0,0v0a1.22,1.22,0,0,1-1.48.77C24,62.41,23.68,61.85,23.68,61.85Z" fill="#e5e8d4"/><path d="M22.51,66.17A3,3,0,0,0,23,64.36a2.92,2.92,0,0,0,1.42,1.77,3.93,3.93,0,0,1-1.26,1.17h0A1.66,1.66,0,0,0,22.51,66.17Z" fill="#e5e8d4"/><path d="M22.42,62.95A2.13,2.13,0,0,0,23,64.36a3,3,0,0,1-.54,1.81.74.74,0,0,1-.63.19h0A11.61,11.61,0,0,1,22.42,62.95Z" fill="#e5e8d4"/><path d="M23.21,28.83h0A3.93,3.93,0,0,1,24.48,30a2.94,2.94,0,0,0-1.42,1.78A3,3,0,0,0,22.52,30,1.66,1.66,0,0,0,23.21,28.83Z" fill="#e5e8d4"/><path d="M22.13,28.46s.49-.39,1.08.37A1.66,1.66,0,0,1,22.52,30a.74.74,0,0,0-.63-.19h0A3.78,3.78,0,0,1,22.13,28.46Z" fill="#e5e8d4"/><path d="M25,31.79c.09,0,.23.14.4.46a3.7,3.7,0,0,0,.22,1.93,1.22,1.22,0,0,0-1.48-.77s-.07-1.61-1-1.62a5,5,0,0,1,1.8,0A.15.15,0,0,1,25,31.79Z" fill="#e5e8d4"/><path d="M22.43,33.2a2.11,2.11,0,0,1,.63-1.41c1,0,1,1.62,1,1.62-.14.33-.42.88-.42.88a.73.73,0,0,1-1-.2h0C22.61,33.8,22.51,33.5,22.43,33.2Z" fill="#e5e8d4"/><path d="M23.22,28.84a2,2,0,0,0,1.54-.24,10.07,10.07,0,0,1,1.36.87,3.34,3.34,0,0,0-.49,1.87,1.5,1.5,0,0,0-.37.15A5.64,5.64,0,0,0,24.48,30,3.93,3.93,0,0,0,23.22,28.84Z" fill="#e5e8d4"/><path d="M25.26,31.49a1.5,1.5,0,0,1,.37-.15,1.06,1.06,0,0,1,.43.6c-.37.42-.7.3-.7.3-.17-.31-.31-.42-.4-.46A.79.79,0,0,1,25.26,31.49Z" fill="#dccbb6"/><path d="M21.89,29.79a.74.74,0,0,1,.63.19,3,3,0,0,1,.54,1.81,2.11,2.11,0,0,0-.63,1.41,11.59,11.59,0,0,1-.55-3.41Z" fill="#e5e8d4"/><path d="M22.43,27.93a3.9,3.9,0,0,1,2.33.67,2,2,0,0,1-1.54.24h0c-.59-.77-1.08-.37-1.08-.37A2.33,2.33,0,0,1,22.43,27.93Z" fill="#e5e8d4"/><path d="M25.63,31.34a3.34,3.34,0,0,1,.49-1.87,8.66,8.66,0,0,1,2,2.1c-.64.6-2.06.37-2.06.37A1.06,1.06,0,0,0,25.63,31.34Z" fill="#e5e8d4"/><path d="M23.06,31.79A2.94,2.94,0,0,1,24.48,30a5.64,5.64,0,0,1,.78,1.49.79.79,0,0,0-.3.3.15.15,0,0,0-.11,0A5,5,0,0,0,23.06,31.79Z" fill="#dccbb6"/><path d="M25.36,32.25s.32.12.7-.3a4.66,4.66,0,0,1,1.21,2.77,7.73,7.73,0,0,0-.19.9s-.51-1.43-1.45-1.32l0,0,0,0v0A3.7,3.7,0,0,1,25.36,32.25Z" fill="#e5e8d4"/><path d="M26.05,31.94s1.42.23,2.06-.37a6.17,6.17,0,0,1,.45.8c-1.42.47-1.29,2.34-1.29,2.34A4.66,4.66,0,0,0,26.05,31.94Z" fill="#e5e8d4"/><path d="M28.56,32.37a6,6,0,0,1,.56,1.93,12.37,12.37,0,0,0-.6,2,2.1,2.1,0,0,1-1.26-1.59S27.14,32.83,28.56,32.37Z" fill="#e5e8d4"/><path d="M28.52,59.84a20.89,20.89,0,0,1-.4-2.6A14.11,14.11,0,0,1,30.81,60a3.17,3.17,0,0,1-1.7,1.89A12.7,12.7,0,0,1,28.52,59.84Z" fill="#dccbb6"/><path d="M31.08,59.1a10.4,10.4,0,0,1-1.77-5.89A9.6,9.6,0,0,0,31.25,57,8.09,8.09,0,0,1,31.08,59.1Z" fill="#dccbb6"/><path d="M25.62,55.35a1.06,1.06,0,0,0,.43.45,5.7,5.7,0,0,0-.7,3.94s-1.49-.22-1.67,2.1a.72.72,0,0,0-1,.19h0A49.34,49.34,0,0,1,25.62,55.35Z" fill="#dccbb6"/><path d="M28.11,57.25a20.89,20.89,0,0,0,.4,2.6,2.13,2.13,0,0,0-1.25,1.59,7.56,7.56,0,0,1-.19-.9A13.09,13.09,0,0,1,27,58h0a17.86,17.86,0,0,1,.27-2.29,1.93,1.93,0,0,0,.73-.66C28,55.85,28,56.58,28.11,57.25Z" fill="#dccbb6"/><path d="M30.28,51.84h0c.27.32.58.67,1,1a2.65,2.65,0,0,1,.7,2.47,9.14,9.14,0,0,0-2.81-2.71c-.06-.23-.12-.48-.16-.74A6.25,6.25,0,0,0,30.28,51.84Z" fill="#e5e8d4"/><path d="M29.16,52.65c0,.2.1.38.15.57a10.4,10.4,0,0,0,1.77,5.89,5.18,5.18,0,0,1-.27.86,14.11,14.11,0,0,0-2.7-2.72C28,56.58,28,55.85,28,55.07,28,55.07,29.11,55.12,29.16,52.65Z" fill="#e5e8d4"/><path d="M29.16,52.65h0A9.14,9.14,0,0,1,32,55.35,4.63,4.63,0,0,1,31.25,57a9.6,9.6,0,0,1-1.94-3.8C29.25,53,29.2,52.85,29.16,52.65Z" fill="#dccbb6"/><path d="M27.66,51.63a3.47,3.47,0,0,0,.52.16A27.39,27.39,0,0,0,28,55.07a1.93,1.93,0,0,1-.73.66,1.28,1.28,0,0,1-1.22.08,1.06,1.06,0,0,1-.43-.45C26.4,53.83,27.14,52.52,27.66,51.63Z" fill="#dccbb6"/><path d="M28.18,51.79a4.81,4.81,0,0,0,.81.12c0,.26.1.51.16.74h0c0,2.47-1.16,2.42-1.16,2.42A27.39,27.39,0,0,1,28.18,51.79Z" fill="#dccbb6"/><path d="M26,55.81a1.28,1.28,0,0,0,1.22-.08A17.86,17.86,0,0,0,27,58h0a2.53,2.53,0,0,0-1.64,1.74A5.7,5.7,0,0,1,26,55.81Z" fill="#dccbb6"/><path d="M32,40.79a2.65,2.65,0,0,1-.7,2.47c-.37.38-.69.73-1,1h0A6.2,6.2,0,0,0,29,44.24c0-.26.1-.51.16-.74A9.12,9.12,0,0,0,32,40.79Z" fill="#dccbb6"/><path d="M24.1,33.41a1.22,1.22,0,0,1,1.48.77v0l0,0,0,0a3.16,3.16,0,0,0-.27,2.1s-1.49.23-1.67-2.1C23.68,34.29,24,33.74,24.1,33.41Z" fill="#dccbb6"/><path d="M26.05,40.34a5.7,5.7,0,0,1-.69-3.94A2.53,2.53,0,0,0,27,38.13h0a17.86,17.86,0,0,0,.27,2.29A1.29,1.29,0,0,0,26.05,40.34Z" fill="#dccbb6"/><path d="M30.82,36.18a5.23,5.23,0,0,1,.27.86,10.4,10.4,0,0,0-1.78,5.89h0q-.08.27-.16.57C29.11,41,28,41.08,28,41.08c0-.79,0-1.52.12-2.19A14.08,14.08,0,0,0,30.82,36.18Z" fill="#dccbb6"/><path d="M28.11,38.89c-.07.67-.11,1.39-.12,2.19a1.91,1.91,0,0,0-.73-.66A17.86,17.86,0,0,1,27,38.13h0a13.11,13.11,0,0,1,.09-2.52,7.73,7.73,0,0,1,.19-.9,2.1,2.1,0,0,0,1.26,1.59A20.1,20.1,0,0,0,28.11,38.89Z" fill="#dccbb6"/><path d="M22.71,34.1h0a.73.73,0,0,0,1,.2c.19,2.32,1.67,2.1,1.67,2.1a5.7,5.7,0,0,0,.69,3.94,1.09,1.09,0,0,0-.43.46A49.12,49.12,0,0,1,22.71,34.1Z" fill="#dccbb6"/><path d="M29.12,34.29a3.17,3.17,0,0,1,1.7,1.88,14.08,14.08,0,0,1-2.7,2.71,20.1,20.1,0,0,1,.41-2.6A12.37,12.37,0,0,1,29.12,34.29Z" fill="#dccbb6"/><path d="M25.62,34.29c.94-.12,1.45,1.32,1.45,1.32A13.11,13.11,0,0,0,27,38.13a2.53,2.53,0,0,1-1.64-1.74A3.16,3.16,0,0,1,25.62,34.29Z" fill="#e5e8d4"/><path d="M29.32,42.93a9.55,9.55,0,0,1,1.94-3.8A4.62,4.62,0,0,1,32,40.79a9.12,9.12,0,0,1-2.81,2.7Q29.23,43.2,29.32,42.93Z" fill="#dccbb6"/><path d="M31.09,37a8.12,8.12,0,0,1,.17,2.09,9.55,9.55,0,0,0-1.94,3.8h0A10.4,10.4,0,0,1,31.09,37Z" fill="#e5e8d4"/><path d="M28,41.08s1.12-.05,1.16,2.42c-.06.23-.11.48-.16.74a4.91,4.91,0,0,0-.82.12A27.28,27.28,0,0,1,28,41.08Z" fill="#dccbb6"/><path d="M26.05,40.34a1.29,1.29,0,0,1,1.22.08,1.91,1.91,0,0,1,.73.66,27.28,27.28,0,0,0,.18,3.27,3.57,3.57,0,0,0-.52.17c-.52-.89-1.26-2.2-2-3.73A1.09,1.09,0,0,1,26.05,40.34Z" fill="#dccbb6"/><path d="M27.36,51.49h0a2,2,0,0,0,.3.13c-.52.89-1.26,2.21-2,3.73A49.34,49.34,0,0,0,22.7,62c-.1.31-.19.61-.28.9a11.61,11.61,0,0,0-.55,3.41,3.78,3.78,0,0,0,.25,1.32,2.33,2.33,0,0,0,.3.54C19.05,66.64,25.08,55.47,27.36,51.49Z" fill="#9d9d8a"/><path d="M22.43,27.93a2.33,2.33,0,0,0-.3.54,3.78,3.78,0,0,0-.25,1.32,11.59,11.59,0,0,0,.55,3.41c.09.3.18.6.28.9a49.12,49.12,0,0,0,2.92,6.7c.78,1.52,1.52,2.84,2,3.73l-.29.13h0C25.08,40.67,19.06,29.51,22.43,27.93Z" fill="#9d9d8a"/><path d="M17.74,55.09c0-.39,1-.3,1.71-.36a1,1,0,0,0-.31.39c-.24,0-.87.09-.87.09-.49,1.84-1.49,1.26-1.49,1.26C17.52,56.51,17.77,55.49,17.74,55.09Z" fill="#5a2835"/><path d="M16.78,39.69s1-.58,1.49,1.25c0,0,.63.09.87.09a1,1,0,0,0,.31.39,7.57,7.57,0,0,1-1.55-.14c-.11,0-.18-.12-.17-.22C17.78,40.66,17.53,39.64,16.78,39.69Z" fill="#5a2835"/><path d="M43.72,35.83c.08-.09,1.21-1.35,2,.27a1.23,1.23,0,0,0-1.81,0,.92.92,0,0,0-.08-.16.49.49,0,0,0-.07-.1Z" fill="#5a2835"/><path d="M49.83,39.56c.93-.58,2-.76,2,.93,0,0-.16-1.55-1.91-.63A1.18,1.18,0,0,0,49.83,39.56Z" fill="#5a2835"/><path d="M51.78,55.64c.09,1.68-1,1.51-2,.93a1.15,1.15,0,0,0,0-.29C51.62,57.19,51.78,55.64,51.78,55.64Z" fill="#5a2835"/><path d="M43.79,60.2a.93.93,0,0,0,.08-.16,1.23,1.23,0,0,0,1.81,0c-.75,1.61-1.89.35-2,.27h0A.5.5,0,0,0,43.79,60.2Z" fill="#5a2835"/><path d="M42.68,36.13c.48-.36.8-.57,1-.3h0a.49.49,0,0,1,.07.1.92.92,0,0,1,.08.16h0c.11.34-.13.61-.82.71h0A1.81,1.81,0,0,0,42.68,36.13Z" fill="#260617"/><path d="M48.55,39.56c.54-.4,1.13-.59,1.29,0a1.18,1.18,0,0,1,0,.3c0,.37-.29.5-1.1.35A4.52,4.52,0,0,0,48.55,39.56Z" fill="#260617"/><path d="M48.78,55.92c.8-.15,1.1,0,1.1.36a1.15,1.15,0,0,1,0,.29c-.15.59-.74.4-1.29,0A4.15,4.15,0,0,0,48.78,55.92Z" fill="#260617"/><path d="M43,59.32h0c.69.1.93.38.82.71h0a.93.93,0,0,1-.08.16.5.5,0,0,1-.07.1h0c-.24.27-.57.06-1-.3A1.81,1.81,0,0,0,43,59.32Z" fill="#260617"/><path d="M39.4,57.22h0a7.68,7.68,0,0,0,2.74,1.26c.71.17,1,.43.89.84a1.81,1.81,0,0,1-.37.68c-.62.8-2.51-1-3.41-2.26A1.32,1.32,0,0,0,39.4,57.22Z" fill="#5a2835"/><path d="M39.27,38.4c.9-1.24,2.79-3.07,3.41-2.27a1.81,1.81,0,0,1,.37.68c.09.4-.18.67-.89.84a7.75,7.75,0,0,0-2.74,1.26h0A1.32,1.32,0,0,0,39.27,38.4Z" fill="#5a2835"/><path d="M37.75,39.12c.87-1.13,1.18-1.44,1.52-.73a1.32,1.32,0,0,1,.14.52,1.5,1.5,0,0,1-.82,1.31,25.09,25.09,0,0,0-2.28,2c0-.19,0-.33-.1-.4s-.2,0-.35.11C35.93,41.82,36.92,40.21,37.75,39.12Z" fill="#321029"/><path d="M44.53,39.85c1.15-.49,3.53-1.33,3.81-.73l.2.44a4.52,4.52,0,0,1,.23.65c.09.37.07.69-.23.79a14.69,14.69,0,0,1-5.22.39,2.2,2.2,0,0,0-.14-.39C43.79,40.84,43.39,40.35,44.53,39.85Z" fill="#5a2835"/><path d="M43.32,54.74a14.68,14.68,0,0,1,5.22.39c.3.1.32.42.23.79a4.15,4.15,0,0,1-.23.65c-.07.16-.14.32-.2.45-.28.6-2.66-.23-3.81-.73s-.74-1-1.35-1.16A2.19,2.19,0,0,0,43.32,54.74Z" fill="#5a2835"/><path d="M36.2,54.3c.09-.07.12-.22.1-.4a25.08,25.08,0,0,0,2.28,2,1.51,1.51,0,0,1,.82,1.3,1.32,1.32,0,0,1-.14.52c-.34.71-.65.41-1.52-.72s-1.82-2.7-1.9-2.82C36,54.32,36.12,54.36,36.2,54.3Z" fill="#321029"/><path d="M38,42.93a5.46,5.46,0,0,0-1.26.24C39,41.89,42.58,40,43,40.59a2.91,2.91,0,0,1,.23.41,2.2,2.2,0,0,1,.14.39c.1.39,0,.75-.37.84-.71.16-3.78.68-3.78.68A7.38,7.38,0,0,0,38,42.93Z" fill="#321029"/><path d="M38,53.21a7.38,7.38,0,0,0,1.15,0s3.07.52,3.78.68c.42.09.48.45.37.84a2.19,2.19,0,0,1-.14.39,2.91,2.91,0,0,1-.23.41c-.37.56-4-1.3-6.18-2.57A5.56,5.56,0,0,0,38,53.21Z" fill="#321029"/><path d="M35.85,41.94c.15-.12.27-.16.35-.11s.12.22.1.4A5,5,0,0,1,36,43.49h0a3.85,3.85,0,0,0-1.81,2h0A7,7,0,0,1,35.85,42Z" fill="#321029"/><path d="M34.16,50.66h0a3.82,3.82,0,0,0,1.81,2h0a5,5,0,0,1,.33,1.25c0,.19,0,.33-.1.4s-.2,0-.35-.11h0A7,7,0,0,1,34.16,50.66Z" fill="#321029"/><path d="M19.14,55.12a1,1,0,0,1,.31-.39h0a1.16,1.16,0,0,1,.92-.25A4.67,4.67,0,0,0,23,53.9l.18.23h0c-.71,1.59-3.43,1.91-3.94,1.53A.44.44,0,0,1,19.14,55.12Z" fill="#321029"/><path d="M19.14,41a.44.44,0,0,1,.12-.55c.51-.38,3.23-.06,3.94,1.53h0l-.18.23a4.73,4.73,0,0,0-2.65-.57,1.16,1.16,0,0,1-.92-.25h0A1,1,0,0,1,19.14,41Z" fill="#321029"/><path d="M16.48,42c-1.21-1.58-1-2-.56-2.09a9.29,9.29,0,0,0,1.49,2.31,8.45,8.45,0,0,0,2.51,2,.6.6,0,0,0-.11.33A10,10,0,0,1,16.48,42Z" fill="#44323c"/><path d="M23.21,42c.52-.61.94-.37,1.49.46A17.75,17.75,0,0,0,27,44.88a3.24,3.24,0,0,0-.52.44c-.95-.95-4-2.2-3.41-3.09Z" fill="#321029"/><path d="M38,42.93a7.38,7.38,0,0,1,1.15,0,8.62,8.62,0,0,1,.9.1c.5.61.93,3.19.93,5s-.43,4.42-.93,5a8.57,8.57,0,0,1-.9.1,7.38,7.38,0,0,1-1.15,0c-.93-.71-1.26-3.88-1.26-5.14S37.1,43.64,38,42.93Z" fill="#e29813"/><path d="M36.77,43.17A5.46,5.46,0,0,1,38,42.93c-.93.71-1.26,3.88-1.26,5.14s.33,4.43,1.26,5.14A5.56,5.56,0,0,1,36.77,53h0a4.07,4.07,0,0,1-.61-.23C35.08,51.58,35,48.56,35,48.07s.06-3.51,1.14-4.67A4.08,4.08,0,0,1,36.77,43.17Z" fill="#260617"/><path d="M40.07,43a11.14,11.14,0,0,1,1.88.48c.72.91.94,3.31.94,4.57s-.22,3.66-.95,4.57a11.4,11.4,0,0,1-1.87.47c.49-.62.93-3.2.93-5S40.57,43.63,40.07,43Z" fill="#260617"/><path d="M36,43.49l.19-.09C35.08,44.56,35,47.58,35,48.07s.06,3.51,1.14,4.67L36,52.65h0a3.82,3.82,0,0,1-1.81-2,3.87,3.87,0,0,1-.19-.56,2.91,2.91,0,0,0,0-4,4.12,4.12,0,0,1,2-2.55Z" fill="#e29813"/><path d="M41.95,43.5l.74.27q.55.22,1,.46h0a8.64,8.64,0,0,1,.76,3.84,8.66,8.66,0,0,1-.77,3.84h0c-.33.16-.68.31-1,.46l-.74.28c.73-.91.95-3.31.95-4.57S42.67,44.41,41.95,43.5Z" fill="#e29813"/><path d="M29,44.24a6.2,6.2,0,0,1,1.28.07h0l-.45.55c-.19.24-.35.46-.47.64a5.86,5.86,0,0,0-.41.66.68.68,0,0,1-.23,0A15.49,15.49,0,0,1,29,44.24Z" fill="#f4ab37"/><path d="M28.18,44.35a4.91,4.91,0,0,1,.82-.12,15.49,15.49,0,0,0-.25,2,1,1,0,0,1-.29,0c0-.15-.05-.29-.07-.43C28.3,45.25,28.23,44.79,28.18,44.35Z" fill="#f4ab37"/><path d="M27.66,44.52a3.57,3.57,0,0,1,.52-.17c.05.44.12.9.2,1.36h0S28.1,45.27,27.66,44.52Z" fill="#f4ab37"/><path d="M19.81,44.56a.6.6,0,0,1,.11-.33,8.74,8.74,0,0,0,1.87,2.4,5.4,5.4,0,0,0-.51.57A4.22,4.22,0,0,1,19.81,44.56Z" fill="#260617"/><path d="M28,45.72l-.62-1.07.29-.13c.44.75.71,1.2.71,1.2h0c0,.15,0,.29.07.43a1.12,1.12,0,0,1-.26-.1Z" fill="#f4ab37"/><path d="M25.92,46a3.65,3.65,0,0,1,.52-.7,3.24,3.24,0,0,1,.52-.44,3.2,3.2,0,0,1,.4-.23h0L28,45.72a2.63,2.63,0,0,0,0,4.71l-.62,1.07h0a3.2,3.2,0,0,1-.4-.23,3.06,3.06,0,0,1-.52-.44,3.54,3.54,0,0,1-.52-.7,3.91,3.91,0,0,1-.4-.94h0a4.17,4.17,0,0,1-.16-1.11A4.29,4.29,0,0,1,25.92,46Z" fill="#e29813"/><path d="M29.86,44.85l.45-.55A5.75,5.75,0,0,1,34,46a2.91,2.91,0,0,1,0,4,5.73,5.73,0,0,1-3.67,1.74l-.45-.55c2,0,3.92-1.64,3.92-3.22S31.82,44.85,29.86,44.85Z" fill="#3b0526"/><path d="M43.74,44.23a17.5,17.5,0,0,1,1.59.84h0a5.15,5.15,0,0,1,.67,3,5,5,0,0,1-.67,3,16.64,16.64,0,0,1-1.6.84,8.66,8.66,0,0,0,.77-3.84A8.64,8.64,0,0,0,43.74,44.23Z" fill="#260617"/><path d="M29.39,45.49c.12-.18.28-.39.47-.64,2,0,3.92,1.64,3.92,3.22s-2,3.22-3.92,3.22c-.19-.24-.35-.45-.47-.63a2.59,2.59,0,0,0,0-5.17Z" fill="#e29813"/><path d="M29.39,45.49a2.59,2.59,0,0,1,0,5.17A5.63,5.63,0,0,1,29,50a.68.68,0,0,0-.23,0,1,1,0,0,0-.29,0,1.12,1.12,0,0,0-.26.1l-.2.33a2.63,2.63,0,0,1,0-4.71l.2.33a1.12,1.12,0,0,0,.26.1,1,1,0,0,0,.29,0,.68.68,0,0,0,.23,0A5.86,5.86,0,0,1,29.39,45.49Z" fill="#5a2835"/><path d="M46,48.07a5.15,5.15,0,0,0-.67-3,15,15,0,0,1,1.45,1h0a5.14,5.14,0,0,1,0,4,14,14,0,0,1-1.45,1A5,5,0,0,0,46,48.07Z" fill="#e29813"/><path d="M22.42,46.05s1.24-1.93,3.5,0a4.08,4.08,0,0,0-.4.94C23.88,47.55,22.52,47,22.42,46.05Z" fill="#260617"/><path d="M46.79,46c1.19.91,1.76,1.7,1.76,2s-.57,1.11-1.76,2a5.14,5.14,0,0,0,0-4Z" fill="#260617"/><path d="M21.79,46.63a7.83,7.83,0,0,1,.64-.58c.09.93,1.45,1.5,3.1.91a4.07,4.07,0,0,0-.17,1.11,4.17,4.17,0,0,0,.16,1.11c-1.64-.59-3,0-3.09.91a7.33,7.33,0,0,1-.64-.57,5.93,5.93,0,0,1-.51-.58,1.18,1.18,0,0,1,0-1.74,5.4,5.4,0,0,1,.51-.57Z" fill="#a9783f"/><path d="M22.42,50.09c.09-.93,1.45-1.5,3.09-.91h0a3.91,3.91,0,0,0,.4.94C23.66,52,22.42,50.09,22.42,50.09Z" fill="#260617"/><path d="M19.81,51.59a4.23,4.23,0,0,1,1.47-2.64,5.93,5.93,0,0,0,.51.58,8.68,8.68,0,0,0-1.87,2.39A.6.6,0,0,1,19.81,51.59Z" fill="#260617"/><path d="M28.45,50a1,1,0,0,1,.29,0h0a16.05,16.05,0,0,0,.25,2,4.81,4.81,0,0,1-.81-.12c.05-.44.12-.89.19-1.35Z" fill="#f4ab37"/><path d="M28.74,50h0A.68.68,0,0,1,29,50a5.63,5.63,0,0,0,.41.67c.12.18.28.39.47.63l.45.55h0a6.25,6.25,0,0,1-1.29.07A16.05,16.05,0,0,1,28.74,50Z" fill="#f4ab37"/><path d="M28,50.43l.2-.33a1.12,1.12,0,0,1,.26-.1l-.08.45h0c0,.06-.31.49-.71,1.19a2,2,0,0,1-.3-.13Z" fill="#f4ab37"/><path d="M28.37,50.44h0c-.08.46-.14.91-.19,1.35a3.47,3.47,0,0,1-.52-.16C28.06,50.93,28.33,50.5,28.37,50.44Z" fill="#f4ab37"/><path d="M26.44,50.82a3.06,3.06,0,0,0,.52.44,17.88,17.88,0,0,0-2.27,2.41c-.55.84-1,1.07-1.49.46L23,53.9C22.42,53,25.49,51.77,26.44,50.82Z" fill="#321029"/><path d="M19.81,51.59a.6.6,0,0,0,.11.33A9.29,9.29,0,0,0,16,56.1l-.06.13c-.46,0-.65-.51.56-2.09A10,10,0,0,1,19.81,51.59Z" fill="#44323c"/><g clip-path="url(#clip-path)"><ellipse cx="39.41" cy="49.95" rx="7.08" ry="10" transform="translate(-11.8 87.71) rotate(-88.13)" fill="url(#radial-gradient-2)" style="mix-blend-mode:screen"/><ellipse cx="28.68" cy="49.57" rx="3.46" ry="4.89" transform="translate(-21.8 76.62) rotate(-88.13)" fill="url(#radial-gradient-3)" style="mix-blend-mode:screen"/></g><g clip-path="url(#clip-path-2)"><ellipse cx="26.03" cy="49.76" rx="3.46" ry="4.89" transform="matrix(0.83, -0.56, 0.56, 0.83, -23.47, 23.24)" fill="url(#radial-gradient-4)" style="mix-blend-mode:screen"/><ellipse cx="25.95" cy="45.94" rx="3.46" ry="4.89" transform="translate(-21.34 22.54) rotate(-34.21)" fill="url(#radial-gradient-5)" style="mix-blend-mode:screen"/></g><path d="M39.26,57.74a1.21,1.21,0,0,0-.16-1.16,2.36,2.36,0,0,0-.43-.42c-.16-.11-.36-.24-.53-.38-.34-.29-.66-.58-1-.89a10.72,10.72,0,0,1-.86-1h0c.62.6,1.25,1.2,1.93,1.74.17.14.35.26.52.39a2.06,2.06,0,0,1,.45.47,1.2,1.2,0,0,1,.21.62,1.39,1.39,0,0,1-.15.63Z" fill="#5c2312"/><path d="M35.86,54.18a14.89,14.89,0,0,1,1.79,2.15c.26.38.54.75.78,1.13a2,2,0,0,0,.39.47c.06,0,.09.07.18,0a1.32,1.32,0,0,0,.24-.23l0,0a1.09,1.09,0,0,1-.19.3.29.29,0,0,1-.34.07,1.82,1.82,0,0,1-.53-.47c-.3-.36-.59-.73-.86-1.1-.54-.76-1-1.55-1.52-2.35Z" fill="#5a2835"/><path d="M39.28,57.73c.29.28.57.57.88.82a9.35,9.35,0,0,0,.91.75,4.09,4.09,0,0,0,1,.55c.37.09.34.05.58-.33a.73.73,0,0,0,.14-.36c0-.06,0-.13-.19-.21a2.12,2.12,0,0,0-.49-.18,3.92,3.92,0,0,1-.59-.2,5.8,5.8,0,0,1-2.07-1.32l0,0a4.68,4.68,0,0,0,1,.62,9.81,9.81,0,0,0,1.11.45,11.57,11.57,0,0,1,1.15.36.64.64,0,0,1,.38.47,1,1,0,0,1-.17.59,2.92,2.92,0,0,1-.17.25.64.64,0,0,1-.23.22.79.79,0,0,1-.61,0,3.65,3.65,0,0,1-1-.64,10.24,10.24,0,0,1-1.63-1.77Z" fill="#7a3a4e"/><path d="M39.28,38.39a1.39,1.39,0,0,1,.15.63,1.2,1.2,0,0,1-.21.62,2.06,2.06,0,0,1-.45.47c-.18.13-.35.25-.52.39-.67.54-1.31,1.14-1.93,1.74h0a10.73,10.73,0,0,1,.86-1c.3-.31.63-.6,1-.89.17-.14.37-.26.53-.38a2.36,2.36,0,0,0,.44-.42,1.21,1.21,0,0,0,.17-1.16Z" fill="#5c2312"/><path d="M35.83,41.94c.48-.8,1-1.59,1.52-2.35.28-.38.56-.75.86-1.1a1.83,1.83,0,0,1,.53-.47.29.29,0,0,1,.34.07,1.09,1.09,0,0,1,.19.3l0,0a1.32,1.32,0,0,0-.24-.23c-.09-.05-.13,0-.18,0a2,2,0,0,0-.39.47c-.24.38-.52.76-.78,1.13A14.91,14.91,0,0,1,35.87,42Z" fill="#5a2835"/><path d="M39.25,38.39a10.25,10.25,0,0,1,1.63-1.77,3.65,3.65,0,0,1,1-.64.79.79,0,0,1,.61,0,.64.64,0,0,1,.23.22,2.91,2.91,0,0,1,.17.25,1,1,0,0,1,.17.59.64.64,0,0,1-.38.47,11.57,11.57,0,0,1-1.15.36,9.81,9.81,0,0,0-1.11.45,4.68,4.68,0,0,0-1,.62l0,0a5.8,5.8,0,0,1,2.07-1.32,3.92,3.92,0,0,1,.59-.2,2.12,2.12,0,0,0,.49-.18c.14-.08.19-.16.19-.21a.73.73,0,0,0-.14-.36c-.24-.38-.21-.42-.58-.33a4.1,4.1,0,0,0-1,.55,9.36,9.36,0,0,0-.91.75c-.31.26-.59.54-.88.82Z" fill="#7a3a4e"/><path d="M36.21,41.83a.49.49,0,0,1,.11.41,2.61,2.61,0,0,1-.07.43,6.5,6.5,0,0,1-.27.83h0A2.33,2.33,0,0,1,36,43c0-.14.06-.28.08-.42s.07-.27.1-.4a1,1,0,0,0,0-.19.29.29,0,0,0,0-.2Z" fill="#5c2312"/><path d="M34.15,45.48a8.68,8.68,0,0,1,.67-2.08,6.73,6.73,0,0,1,.56-.94,3.4,3.4,0,0,1,.35-.42,1.3,1.3,0,0,1,.21-.18.26.26,0,0,1,.28,0l0,0c-.08,0-.13.06-.19.12a1.67,1.67,0,0,0-.14.21c-.09.14-.17.3-.25.45-.16.31-.31.62-.46.94l-.46,1c-.16.32-.31.64-.51,1Z" fill="#5a2835"/><path d="M43,40.59a3,3,0,0,1,.33.64,1.1,1.1,0,0,1,.05.72.47.47,0,0,1-.25.26,2,2,0,0,1-.35.09l-.71.14-2.85.49v0l.7-.2.7-.17c.47-.11.94-.19,1.42-.29l.71-.12a2.08,2.08,0,0,0,.32-.07.35.35,0,0,0,.18-.17,1,1,0,0,0,0-.63,2.88,2.88,0,0,0-.25-.67Z" fill="#5c2312"/><path d="M36.76,43.15c1-.57,2-1.12,3-1.62.51-.25,1-.48,1.56-.69a8.1,8.1,0,0,1,.81-.28,2.73,2.73,0,0,1,.42-.08.45.45,0,0,1,.41.11l0,0c-.1-.08-.24,0-.37,0a2.71,2.71,0,0,0-.38.15c-.25.1-.51.22-.76.35-.5.26-1,.5-1.5.76a23.17,23.17,0,0,1-3.15,1.32Z" fill="#5a2835"/><path d="M48.38,39.11a8.88,8.88,0,0,1,.37.85,2.38,2.38,0,0,1,.12.45.7.7,0,0,1-.07.48.44.44,0,0,1-.2.16l-.23.07-.45.11-.91.16c-.61.08-1.22.14-1.84.16a8.19,8.19,0,0,1-1.84-.12v-.07c.64-.14,1.22-.28,1.81-.39.29-.07.59-.1.88-.17l.88-.14.88-.11.43,0h.16a.33.33,0,0,0-.05.09c0,.08,0,0,.06-.09a1.59,1.59,0,0,0,0-.39c0-.29-.06-.61-.06-.94Z" fill="#7a3a4e"/><path d="M43.18,41a.56.56,0,0,0,.3-.18,2.87,2.87,0,0,0,.19-.31A1.46,1.46,0,0,1,44.2,40a10.41,10.41,0,0,1,1.35-.58A12.58,12.58,0,0,1,47,39a4.56,4.56,0,0,1,.73-.11,1.56,1.56,0,0,1,.37,0,.41.41,0,0,1,.31.2l0,0c-.17-.15-.42-.09-.64,0a4.84,4.84,0,0,0-.67.19l-1.35.48L45,40l-.34.12-.31.12a1.43,1.43,0,0,0-.51.36c-.08.08-.15.19-.26.29a.55.55,0,0,1-.38.14Z" fill="#6a3526"/><path d="M36.19,54.3a.29.29,0,0,0,0-.2,1,1,0,0,0,0-.19c0-.13-.06-.26-.1-.4S36,53.24,36,53.1a2.33,2.33,0,0,1,0-.45h0a6.5,6.5,0,0,1,.27.83,2.61,2.61,0,0,1,.06.43.49.49,0,0,1-.11.41Z" fill="#5c2312"/><path d="M34.18,50.65c.2.33.35.65.51,1l.46,1c.15.32.3.63.46.94.08.15.16.31.25.45a1.66,1.66,0,0,0,.14.21c.05.06.1.13.19.12l0,0a.26.26,0,0,1-.28,0,1.3,1.3,0,0,1-.21-.18,3.4,3.4,0,0,1-.35-.42,6.73,6.73,0,0,1-.55-.94,8.67,8.67,0,0,1-.67-2.08Z" fill="#5a2835"/><path d="M42.94,55.54a2.88,2.88,0,0,0,.25-.67,1,1,0,0,0,0-.63.35.35,0,0,0-.18-.17A2.08,2.08,0,0,0,42.7,54L42,53.89c-.47-.1-.95-.18-1.41-.29l-.7-.17-.7-.2v0L42,53.7l.71.14a2,2,0,0,1,.35.09.47.47,0,0,1,.25.26,1.1,1.1,0,0,1-.05.72,3,3,0,0,1-.33.64Z" fill="#5c2312"/><path d="M36.78,53a23.14,23.14,0,0,1,3.15,1.32c.5.25,1,.5,1.5.76.25.13.5.25.76.35a2.7,2.7,0,0,0,.38.15c.13,0,.27.07.37,0l0,0a.45.45,0,0,1-.41.11,2.73,2.73,0,0,1-.42-.08,8.08,8.08,0,0,1-.81-.27c-.53-.21-1-.44-1.56-.69-1-.51-2-1.05-3-1.62Z" fill="#5a2835"/><path d="M48.33,57c.06-.31.17-.6.21-.9a2.12,2.12,0,0,0,.05-.42c0-.13,0-.24-.06-.27l-.06,0-.09,0-.1,0-.44-.07-.89-.13c-.6-.09-1.2-.16-1.79-.24-.3,0-.6-.07-.9-.09s-.6,0-.92-.05v0a8.18,8.18,0,0,1,1.84-.11c.61,0,1.23.08,1.84.16l.91.16.45.1a.65.65,0,0,1,.41.22.68.68,0,0,1,.07.46,2.35,2.35,0,0,1-.11.45,8.79,8.79,0,0,1-.36.85Z" fill="#6a3526"/><path d="M43.19,55.1a.57.57,0,0,1,.46.08c.15.1.23.21.32.27a1.58,1.58,0,0,0,.5.22l.29.08.34.1.67.22.65.25c.21.1.43.17.64.28l.63.28A2.47,2.47,0,0,0,48,57a.37.37,0,0,0,.31,0l.07,0a.43.43,0,0,1-.32.21,1.58,1.58,0,0,1-.38,0,4.61,4.61,0,0,1-.73-.1,12.61,12.61,0,0,1-1.41-.4,10.33,10.33,0,0,1-1.35-.59,1.48,1.48,0,0,1-.54-.52,3,3,0,0,0-.18-.31.54.54,0,0,0-.29-.18Z" fill="#7a3a4e"/><path d="M34,50.08a6,6,0,0,0,.56.93,3.5,3.5,0,0,0,.73.73,4.26,4.26,0,0,0,1.82.78,7.08,7.08,0,0,0,2,.06,10.33,10.33,0,0,0,2-.4,15.74,15.74,0,0,0,2-.71c.67-.26,1.31-.58,2-.89A18.21,18.21,0,0,0,47,49.5a7.84,7.84,0,0,0,.87-.64,4.36,4.36,0,0,0,.39-.37,1.09,1.09,0,0,0,.29-.43h.07a1.13,1.13,0,0,1-.22.52A4.21,4.21,0,0,1,48,49a8.09,8.09,0,0,1-.8.77,13.71,13.71,0,0,1-1.81,1.28,19.26,19.26,0,0,1-2,1,15.22,15.22,0,0,1-2.08.79,8.49,8.49,0,0,1-4.4.19A4.36,4.36,0,0,1,35,52a4.14,4.14,0,0,1-1.09-1.92Z" fill="#efac3f"/><path d="M33.92,46A4.17,4.17,0,0,1,35,44.1,4.39,4.39,0,0,1,37,43a8.52,8.52,0,0,1,4.42.17,15.25,15.25,0,0,1,2.08.79,19.26,19.26,0,0,1,2,1,13.71,13.71,0,0,1,1.81,1.29,8,8,0,0,1,.8.77,4.24,4.24,0,0,1,.35.44,1.15,1.15,0,0,1,.22.53h-.11a1.12,1.12,0,0,0-.33-.39,4.46,4.46,0,0,0-.41-.33,9.88,9.88,0,0,0-.9-.58c-.61-.37-1.24-.68-1.88-1s-1.28-.59-1.95-.83a16,16,0,0,0-2-.68,10.33,10.33,0,0,0-2-.4,7.32,7.32,0,0,0-1.93,0,4.26,4.26,0,0,0-1.76.65A4.57,4.57,0,0,0,34,46.07Z" fill="#eea835"/><path d="M36.18,43.41a3.15,3.15,0,0,0-.59,1.05,7.5,7.5,0,0,0-.31,1.18,13.69,13.69,0,0,0,0,4.85,7.46,7.46,0,0,0,.31,1.18,3.15,3.15,0,0,0,.59,1.05l0,0a2.93,2.93,0,0,1-.75-1A7.52,7.52,0,0,1,35,50.55a12.27,12.27,0,0,1-.3-2.48,12.25,12.25,0,0,1,.3-2.48,7.56,7.56,0,0,1,.41-1.19,2.93,2.93,0,0,1,.75-1Z" fill="#f9af38"/><path d="M38,42.94a2.5,2.5,0,0,0-.66,1.14,9.47,9.47,0,0,0-.32,1.31,14.28,14.28,0,0,0,0,5.36,9.41,9.41,0,0,0,.32,1.31A2.5,2.5,0,0,0,38,53.2l0,0a1.5,1.5,0,0,1-.49-.5,4.47,4.47,0,0,1-.33-.61,9.37,9.37,0,0,1-.42-1.32,10.27,10.27,0,0,1-.23-1.35c-.05-.46-.09-.91-.11-1.38s.05-.92.11-1.38a10.34,10.34,0,0,1,.23-1.35A9.48,9.48,0,0,1,37.19,44a4.44,4.44,0,0,1,.33-.61,1.49,1.49,0,0,1,.49-.5Z" fill="#5a2835"/><path d="M38.05,43a3.09,3.09,0,0,0-.37,1.23c-.07.43-.1.86-.13,1.29s-.07.87-.08,1.3,0,.87,0,1.28,0,.85,0,1.28.05.87.07,1.3.07.87.13,1.29A3.1,3.1,0,0,0,38,53.18l0,.06a2.56,2.56,0,0,1-.69-1.17A9.57,9.57,0,0,1,37,50.76a16.4,16.4,0,0,1-.28-2.69A16.37,16.37,0,0,1,37,45.38a9.52,9.52,0,0,1,.34-1.31A2.56,2.56,0,0,1,38,42.9Z" fill="#f9af38"/><path d="M40.1,43a3.71,3.71,0,0,1,.49,1.21c.11.42.19.85.26,1.27a17.64,17.64,0,0,1,.23,2.59,17.74,17.74,0,0,1-.23,2.59c-.07.43-.15.85-.26,1.27a3.71,3.71,0,0,1-.49,1.21l-.06,0a5.67,5.67,0,0,0,.16-1.26c0-.42,0-.85.06-1.27s0-.84,0-1.26,0-.83,0-1.24,0-.82,0-1.24,0-.84,0-1.26,0-.84-.06-1.27A5.59,5.59,0,0,0,40,43Z" fill="#af6d04"/><path d="M42,43.48a3.32,3.32,0,0,1,.51,1.07,9.14,9.14,0,0,1,.26,1.16,14.1,14.1,0,0,1,0,4.72,9.15,9.15,0,0,1-.26,1.16A3.33,3.33,0,0,1,42,52.66l0,0a3.73,3.73,0,0,0,.35-1.1,9.46,9.46,0,0,0,.16-1.15,23.74,23.74,0,0,0,0-4.63,9.31,9.31,0,0,0-.16-1.15,3.72,3.72,0,0,0-.35-1.1Z" fill="#5a2835"/><path d="M43.75,44.22A4.84,4.84,0,0,1,44.66,46a7.65,7.65,0,0,1,0,4.06,4.87,4.87,0,0,1-.91,1.83l0,0A7.36,7.36,0,0,0,44.29,50a11.72,11.72,0,0,0,0-3.92,7.36,7.36,0,0,0-.58-1.87Z" fill="#af6d04"/><path d="M45.35,45.06a4,4,0,0,1,.55,1.46,8.41,8.41,0,0,1,0,3.11,4,4,0,0,1-.55,1.46l0,0a3.74,3.74,0,0,0,.19-.74,5.6,5.6,0,0,0,.11-.74c0-.5.06-1,.06-1.5s0-1-.06-1.5c0-.25-.05-.5-.1-.75a3.73,3.73,0,0,0-.19-.74Z" fill="#5a2835"/><path d="M42,43.48a2.93,2.93,0,0,1,.73,1,6.67,6.67,0,0,1,.4,1.17,9.93,9.93,0,0,1,0,4.84,6.69,6.69,0,0,1-.4,1.17,2.93,2.93,0,0,1-.73,1l0,0a3.28,3.28,0,0,0,.49-1.06,9.05,9.05,0,0,0,.25-1.15,15.83,15.83,0,0,0,0-4.7,9.11,9.11,0,0,0-.25-1.15,3.26,3.26,0,0,0-.49-1.06Z" fill="#f9af38"/><path d="M45.35,45.05a2.71,2.71,0,0,1,.91,1.39,5.46,5.46,0,0,1,0,3.25,2.73,2.73,0,0,1-.91,1.39l0,0a3.93,3.93,0,0,0,.52-1.44,9.9,9.9,0,0,0,0-3.08,3.91,3.91,0,0,0-.52-1.44Z" fill="#f9af38"/><path d="M46.81,46a2.15,2.15,0,0,1,.63.93,3.15,3.15,0,0,1,0,2.2,2.17,2.17,0,0,1-.63.93l0,0a5.45,5.45,0,0,0,0-4Z" fill="#af6d04"/><path d="M34.15,45.39a4.35,4.35,0,0,1,.73.85,3.23,3.23,0,0,1,0,3.68,4.31,4.31,0,0,1-.72.83l-.23-.7a2.89,2.89,0,0,0,0-4Z" fill="#c9b472" style="mix-blend-mode:multiply"/><path d="M30.28,44.3a6.81,6.81,0,0,1,3,1.09,3.11,3.11,0,0,1,0,5.38,6.82,6.82,0,0,1-3,1.09v0a8.52,8.52,0,0,0,1.53-.44,5.49,5.49,0,0,0,1.37-.74,4,4,0,0,0,1-1.13,2.68,2.68,0,0,0,0-2.87,4,4,0,0,0-1-1.13,5.46,5.46,0,0,0-1.37-.74,8.51,8.51,0,0,0-1.53-.44Z" fill="#5a2835"/><path d="M22.45,46.08a8.43,8.43,0,0,1-.56,1.21c-.09.18-.18.35-.24.5a.85.85,0,0,0-.09.28.82.82,0,0,0,.08.28c.06.15.15.32.24.5a8.54,8.54,0,0,1,.56,1.21l0,.06a6.62,6.62,0,0,1-1-.88,3.73,3.73,0,0,1-.4-.53,1,1,0,0,1,0-1.28,3.75,3.75,0,0,1,.4-.53,6.64,6.64,0,0,1,1-.88Z" fill="#cc9a69"/><path d="M22.44,50.09a2.12,2.12,0,0,0,.75.65,1.81,1.81,0,0,0,1,.19,3.21,3.21,0,0,0,1.79-.84l0,0a2.29,2.29,0,0,1-.72.79,2.16,2.16,0,0,1-1.06.39,1.79,1.79,0,0,1-1.12-.3,1.56,1.56,0,0,1-.65-.89Z" fill="#633d3d"/><path d="M22.41,50.09a1.12,1.12,0,0,1,.46-.78,2,2,0,0,1,.85-.36,3.62,3.62,0,0,1,1.81.21v0c-.33,0-.63,0-.91,0a6.15,6.15,0,0,0-.82.09,2.69,2.69,0,0,0-.74.23,1.36,1.36,0,0,0-.6.55Z" fill="#442424"/><path d="M22.41,46a1.56,1.56,0,0,1,.65-.89,1.79,1.79,0,0,1,1.12-.3,2.16,2.16,0,0,1,1.06.39A2.29,2.29,0,0,1,26,46l0,0a3.2,3.2,0,0,0-1.79-.84,1.81,1.81,0,0,0-1,.19,2.12,2.12,0,0,0-.75.65Z" fill="#633d3d"/><path d="M22.45,46.05a1.35,1.35,0,0,0,.6.55,2.69,2.69,0,0,0,.74.23,6.15,6.15,0,0,0,.82.08c.29,0,.58,0,.91,0v0a3.62,3.62,0,0,1-1.81.21,2,2,0,0,1-.85-.36,1.12,1.12,0,0,1-.46-.78Z" fill="#442424"/><path d="M22.68,49.81c-.25.23.5,1,.75.84S22.92,49.58,22.68,49.81Z" fill="#fff"/><path d="M22.75,46.31c-.12.19.48.55.63.43S22.87,46.12,22.75,46.31Z" fill="#fff"/><path d="M28,45.73a2,2,0,0,0-1.09.93,3,3,0,0,0,0,2.81,2,2,0,0,0,1.09.93v0a1.54,1.54,0,0,1-.75-.25,2.43,2.43,0,0,1-.58-.57,2.67,2.67,0,0,1-.47-1.55,2.71,2.71,0,0,1,.47-1.55A1.81,1.81,0,0,1,28,45.7Z" fill="#af6d04"/><path d="M28,45.75a2.94,2.94,0,0,0-.66,1.17,3.55,3.55,0,0,0-.12.57,3.07,3.07,0,0,0,0,.58v.16s0,.09,0,.14,0,.19,0,.29a3.6,3.6,0,0,0,.12.57A2.92,2.92,0,0,0,28,50.39l0,.07a2.06,2.06,0,0,1-1.14-.94,2.91,2.91,0,0,1,0-2.9A2.06,2.06,0,0,1,28,45.68Z" fill="#7f4c36"/><path d="M29.39,45.45a1.61,1.61,0,0,1,1.09,0,2.55,2.55,0,0,1,1,.56,2.92,2.92,0,0,1,.7.93,3,3,0,0,1,.27,1.2v.12l0,.17c0,.11,0,.2-.05.3a2.65,2.65,0,0,1-.19.57,2.92,2.92,0,0,1-.7.93,2.55,2.55,0,0,1-1,.56,1.62,1.62,0,0,1-1.09,0v-.07A2.17,2.17,0,0,0,31,49.8a2.57,2.57,0,0,0,0-3.45,2.17,2.17,0,0,0-1.64-.82Z" fill="#af6d04"/><path d="M23,53.9a1.91,1.91,0,0,0,.55.36c.18.05.26,0,.39-.14a3,3,0,0,0,.36-.49,5.7,5.7,0,0,1,.41-.59,7.52,7.52,0,0,1,1-1A6.22,6.22,0,0,1,27,51.25l0,0a20.57,20.57,0,0,0-1.93,2,7.85,7.85,0,0,1-.88,1.08.71.71,0,0,1-.32.15.53.53,0,0,1-.35-.07,1.67,1.67,0,0,1-.48-.51Z" fill="#5a2835"/><path d="M26.45,50.83a4.29,4.29,0,0,1-.9.83c-.33.24-.67.45-1,.68s-.68.43-1,.66a2.08,2.08,0,0,0-.42.39.46.46,0,0,0-.1.52h0a.5.5,0,0,1,0-.58,2.12,2.12,0,0,1,.41-.45,9.24,9.24,0,0,1,1-.71l1-.64a6.36,6.36,0,0,0,1-.72Z" fill="#5c2312"/><path d="M23,53.92a9.42,9.42,0,0,1-1.05.57,3.57,3.57,0,0,1-1.21.29,5.41,5.41,0,0,1-.58,0,.87.87,0,0,0-.42.12.82.82,0,0,0-.3.29c-.07.12-.05.2,0,.2l0,0,0,0h0a1,1,0,0,0,.21.05,2.76,2.76,0,0,0,.53,0,6,6,0,0,0,1.09-.18,3.68,3.68,0,0,0,1-.42,2.45,2.45,0,0,0,.83-.76l0,0a3,3,0,0,1-1.8,1.44,4.8,4.8,0,0,1-1.15.25,3.15,3.15,0,0,1-.59,0,.71.71,0,0,1-.54-.25.55.55,0,0,1,0-.59,1.17,1.17,0,0,1,.44-.41,1.19,1.19,0,0,1,.58-.15c.2,0,.39.06.59.06a5.82,5.82,0,0,0,2.24-.6Z" fill="#5a2835"/><path d="M26.85,51.37a2.83,2.83,0,0,1-.61-.36l.24-.2a3.39,3.39,0,0,0,.52.44Z" fill="#c9b472" style="mix-blend-mode:multiply"/><path d="M25.71,50.5l-.17-.23a3.83,3.83,0,0,1,0-4.38l.16-.22L26,46l0,0a4.06,4.06,0,0,0,0,4l0,0Z" fill="#c9b472" style="mix-blend-mode:multiply"/><path d="M27,44.9a3.4,3.4,0,0,0-.53.45l-.23-.21a2.81,2.81,0,0,1,.61-.36Z" fill="#c9b472" style="mix-blend-mode:multiply"/><path d="M27.37,44.66a4.09,4.09,0,0,0-1.25,1.54,4.59,4.59,0,0,0-.43,1.87,4.67,4.67,0,0,0,.43,1.87,3.49,3.49,0,0,0,.52.83,3.94,3.94,0,0,0,.73.71l0,0a3.49,3.49,0,0,1-1.49-1.43,4,4,0,0,1,0-4,3.49,3.49,0,0,1,1.49-1.43Z" fill="#f9af38"/><path d="M23,42.24a1.66,1.66,0,0,1,.48-.5.52.52,0,0,1,.34-.07.69.69,0,0,1,.32.15A7.81,7.81,0,0,1,25,42.89a20.56,20.56,0,0,0,1.94,2h0A10.26,10.26,0,0,1,25.87,44a11.59,11.59,0,0,1-1-1,9.9,9.9,0,0,0-.82-1.08.43.43,0,0,0-.52-.11,1.74,1.74,0,0,0-.51.43Z" fill="#5c2312"/><path d="M26.43,45.34a6.36,6.36,0,0,0-1-.71l-1-.64a9.3,9.3,0,0,1-1-.71,2.13,2.13,0,0,1-.41-.45.51.51,0,0,1,0-.59l0,0a.45.45,0,0,0,.16.46,3,3,0,0,0,.43.34l1,.62a10.79,10.79,0,0,1,1,.71,3.25,3.25,0,0,1,.84.93Z" fill="#5a2835"/><path d="M23,42.26a5.81,5.81,0,0,0-2.24-.6c-.2,0-.38,0-.59.06a1.19,1.19,0,0,1-.58-.15,1.17,1.17,0,0,1-.44-.41.55.55,0,0,1,0-.59.71.71,0,0,1,.54-.25,3.15,3.15,0,0,1,.59,0,4.79,4.79,0,0,1,1.15.25A2.94,2.94,0,0,1,23.23,42l0,0a2.44,2.44,0,0,0-.83-.76,3.68,3.68,0,0,0-1-.42,6,6,0,0,0-1.09-.18,2.76,2.76,0,0,0-.53,0,1,1,0,0,0-.21.05h0l0,0,0,0s0,.08,0,.2a.82.82,0,0,0,.3.29.86.86,0,0,0,.42.12,5.41,5.41,0,0,1,.58,0,3.57,3.57,0,0,1,1.21.29,9.41,9.41,0,0,1,1.05.57Z" fill="#5a2835"/><path d="M29.86,44.84a3.64,3.64,0,0,1,1.41.11,4.76,4.76,0,0,1,1.31.62,3.76,3.76,0,0,1,1,1,2.76,2.76,0,0,1,.49,1.48,2.8,2.8,0,0,1-.49,1.45,3.75,3.75,0,0,1-1,1,4.75,4.75,0,0,1-1.31.62,3.65,3.65,0,0,1-1.41.11v0a4.31,4.31,0,0,0,2.55-.92,4,4,0,0,0,.93-1,2.22,2.22,0,0,0,0-2.57,4,4,0,0,0-.93-1,4.31,4.31,0,0,0-2.55-.92Z" fill="#5a2835"/><path d="M22.43,68.21a1.16,1.16,0,0,0,.6,0,4.64,4.64,0,0,0,.59-.18,8.2,8.2,0,0,0,1.12-.52,10.31,10.31,0,0,0,2-1.43,8.37,8.37,0,0,0,1.57-1.88,5.7,5.7,0,0,0,.79-2.32v0h0A2.76,2.76,0,0,0,30.18,61a4.08,4.08,0,0,0,.65-1.21A7.59,7.59,0,0,0,31.16,57v0l0,0a4.53,4.53,0,0,0,.72-1.85,2.58,2.58,0,0,0-.45-1.88c-.19-.27-.45-.5-.67-.76s-.45-.51-.67-.78A10.08,10.08,0,0,1,29,50h0a12.25,12.25,0,0,0,1.21,1.64q.33.39.69.76c.23.25.49.47.71.75a2.66,2.66,0,0,1,.5,2,4.43,4.43,0,0,1-.77,1.93l0-.06a7.29,7.29,0,0,1-.4,2.79,4.33,4.33,0,0,1-.7,1.23,2.83,2.83,0,0,1-1.12.85l0,0a6.62,6.62,0,0,1-.76,2.36,7.55,7.55,0,0,1-1.54,2,9.73,9.73,0,0,1-2,1.43,8.28,8.28,0,0,1-1.15.49,4.53,4.53,0,0,1-.61.15,1.19,1.19,0,0,1-.62,0Z" fill="#c7bdb4"/><path d="M28.2,50.1c-.86,1.43-1.67,2.88-2.45,4.36s-1.52,3-2.19,4.49a32.69,32.69,0,0,0-1.73,4.68,10.19,10.19,0,0,0-.39,2.46,3.43,3.43,0,0,0,.19,1.22,1.58,1.58,0,0,0,.81.9v0a1.62,1.62,0,0,1-.85-.9,3.51,3.51,0,0,1-.23-1.25,10.25,10.25,0,0,1,.35-2.5,31.29,31.29,0,0,1,1.7-4.72q1-2.28,2.23-4.48.6-1.1,1.24-2.18c.43-.71.87-1.42,1.32-2.12Z" fill="#c1bbac"/><path d="M29.12,61.85a11.91,11.91,0,0,1-.5-1.42q-.19-.73-.32-1.47A23,23,0,0,1,28,56a25.94,25.94,0,0,1,0-3c0-.5.09-1,.15-1.5s.17-1,.28-1.48q-.11.74-.18,1.49c-.06.5-.11,1-.15,1.49a25.84,25.84,0,0,0,0,3,22.87,22.87,0,0,0,.32,3c.09.49.19,1,.32,1.46A12.08,12.08,0,0,0,29.12,61.85Z" fill="#afa194"/><path d="M31.26,57a5.94,5.94,0,0,1-.62-.73c-.18-.27-.34-.54-.48-.83a11.86,11.86,0,0,1-.74-1.76,14.06,14.06,0,0,1-.47-1.85q-.09-.47-.15-.94t0-1q.06.47.14.94t.15.94a14,14,0,0,0,.47,1.84,11.76,11.76,0,0,0,.74,1.75,9.4,9.4,0,0,0,.48.82A6.05,6.05,0,0,0,31.26,57Z" fill="#afa194"/><path d="M29.31,53.22c0,.26,0,.52.07.78s0,.52.08.77a11.59,11.59,0,0,0,.31,1.52,9.28,9.28,0,0,0,.54,1.46,7.54,7.54,0,0,0,.37.69,6.75,6.75,0,0,0,.4.67,6.9,6.9,0,0,1-.48-.62,7.64,7.64,0,0,1-.37-.69,9.39,9.39,0,0,1-.54-1.47,11.67,11.67,0,0,1-.32-1.54q-.05-.39-.08-.78C29.29,53.74,29.29,53.48,29.31,53.22Z" fill="#afa194"/><path d="M28.11,57.25l.4.27.37.31q.36.32.72.65c.23.22.46.45.68.69l.31.37a3.1,3.1,0,0,1,.23.43,3,3,0,0,0-.3-.37c-.1-.13-.2-.25-.31-.37s-.44-.46-.67-.68-.47-.43-.71-.64l-.37-.31Z" fill="#afa194"/><path d="M29.16,52.65l.44.23.4.29q.39.3.76.63a8,8,0,0,1,.69.71c.11.13.21.26.3.39a4.41,4.41,0,0,1,.22.44,4.31,4.31,0,0,0-.3-.39c-.09-.13-.19-.26-.3-.38a7.87,7.87,0,0,0-.68-.7q-.36-.33-.75-.63L29.54,53Z" fill="#afa194"/><path d="M25.62,55.35a1,1,0,0,0,.53.45,1.08,1.08,0,0,0,.68,0A1.93,1.93,0,0,0,28,55v0h0a.85.85,0,0,0,.58-.33,1.9,1.9,0,0,0,.33-.62,3.89,3.89,0,0,0,.15-.7,6.86,6.86,0,0,0,.1-.72,6.91,6.91,0,0,1,0,.73,4,4,0,0,1-.16.72,2,2,0,0,1-.35.66.93.93,0,0,1-.66.36l0,0a1.84,1.84,0,0,1-.51.53,2,2,0,0,1-.67.31,1.18,1.18,0,0,1-.74,0A1.09,1.09,0,0,1,25.62,55.35Z" fill="#afa194"/><path d="M27.26,55.73c-.07.47-.1,1-.16,1.43s-.08,1-.09,1.43a10,10,0,0,0,.29,2.84h0a3.1,3.1,0,0,0,.26,1.38,2.27,2.27,0,0,0,.39.58,1.65,1.65,0,0,0,.6.38,1.68,1.68,0,0,1-.64-.34,1.62,1.62,0,0,1-.44-.59,3.19,3.19,0,0,1-.27-1.43v0a10,10,0,0,1-.3-2.86c0-.48,0-1,.09-1.44A10.71,10.71,0,0,1,27.26,55.73Z" fill="#afa194"/><path d="M28.52,59.85l-.21.15-.21.15a2,2,0,0,0-.35.37,2.51,2.51,0,0,0-.26.44c0,.08-.07.16-.1.24l-.12.23c0-.09,0-.18,0-.27s.06-.17.1-.25a2.6,2.6,0,0,1,.27-.46,2.12,2.12,0,0,1,.37-.39l.22-.15A1,1,0,0,1,28.52,59.85Z" fill="#afa194"/><path d="M27,58a2.66,2.66,0,0,0-.54.3,4,4,0,0,0-.47.39,2.19,2.19,0,0,0-.58,1.06v0h0a1.24,1.24,0,0,0-.7.15,1.44,1.44,0,0,0-.52.5,3.11,3.11,0,0,0-.4,1.41v.07l-.06,0a1,1,0,0,0-.5-.11.64.64,0,0,0-.45.27.67.67,0,0,1,.44-.33.8.8,0,0,1,.56.1l-.07,0a3.2,3.2,0,0,1,.42-1.45,1.53,1.53,0,0,1,.55-.53,1.32,1.32,0,0,1,.75-.16l-.05,0a2.29,2.29,0,0,1,.61-1.1,2.08,2.08,0,0,1,.5-.39A2.69,2.69,0,0,1,27,58Z" fill="#afa194"/><path d="M27.07,60.53a3,3,0,0,1-.5.93,1.39,1.39,0,0,1-.42.34.94.94,0,0,1-.54.1l0,0a1.83,1.83,0,0,1-.6.79,1,1,0,0,1-.47.18,1.13,1.13,0,0,1-.5-.06l.06,0a3,3,0,0,1-.25,1,1.26,1.26,0,0,1-.33.44.82.82,0,0,1-.52.19l0,0a3.94,3.94,0,0,1-.21,1.3,1.23,1.23,0,0,1-.38.55.77.77,0,0,1-.63.15.74.74,0,0,0,.59-.19,1.46,1.46,0,0,0,.33-.54A3.85,3.85,0,0,0,23,64.36v0h0a.73.73,0,0,0,.46-.17,1.17,1.17,0,0,0,.3-.41,2.88,2.88,0,0,0,.24-1v-.06l.06,0a1,1,0,0,0,.89-.11,1.75,1.75,0,0,0,.57-.75v0h0a.85.85,0,0,0,.48-.09,1.43,1.43,0,0,0,.4-.31A3,3,0,0,0,27.07,60.53Z" fill="#afa194"/><path d="M26.05,55.81a6.82,6.82,0,0,0-.39.94,8.88,8.88,0,0,0-.26,1,5.77,5.77,0,0,0-.1,1,4.34,4.34,0,0,0,.1,1h0a4,4,0,0,0-.06,1.06,2.08,2.08,0,0,0,.32,1v0a3.64,3.64,0,0,0-.26,2l-.06,0a.6.6,0,0,1,.42.06,1.11,1.11,0,0,1,.32.26l0,0a3.68,3.68,0,0,1,1.09,0,1.76,1.76,0,0,1,1,.42,1.73,1.73,0,0,0-1-.35,5.09,5.09,0,0,0-1.06,0h0l0,0a1,1,0,0,0-.3-.24.52.52,0,0,0-.35-.05h-.05v-.05a3.72,3.72,0,0,1,.27-2.07v0a2.16,2.16,0,0,1-.33-1,4.11,4.11,0,0,1,.06-1.09v0a4.41,4.41,0,0,1-.1-1,5.88,5.88,0,0,1,.1-1,4.81,4.81,0,0,1,.29-1A6.91,6.91,0,0,1,26.05,55.81Z" fill="#afa194"/><path d="M23.68,61.85l.1.09.05.11.11.22.1.22.05.11v.13L24,62.64,24,62.53l-.1-.22-.11-.22L23.69,62S23.68,61.9,23.68,61.85Z" fill="#afa194"/><path d="M22.42,62.95a5.09,5.09,0,0,0,.23.75,1.84,1.84,0,0,0,.43.63h0a3.92,3.92,0,0,0,.88.07,7.68,7.68,0,0,0,.89-.07h0a.18.18,0,0,0,.13,0l.13-.1a1.71,1.71,0,0,0,.23-.28,1.74,1.74,0,0,1-.18.32.6.6,0,0,1-.13.14.25.25,0,0,1-.22,0h0a7.8,7.8,0,0,1-.9.07,4,4,0,0,1-.91-.07h0a1.92,1.92,0,0,1-.45-.67,1.56,1.56,0,0,1-.11-.39A2.59,2.59,0,0,1,22.42,62.95Z" fill="#afa194"/><path d="M26.11,66.68a1.28,1.28,0,0,1-.27-.42,3.49,3.49,0,0,1-.15-.47,4,4,0,0,1-.11-1l0,0a1.48,1.48,0,0,1-.39-.17.68.68,0,0,1-.26-.33.69.69,0,0,0,.14.15l.17.11a1.39,1.39,0,0,0,.36.16h0v0a3.87,3.87,0,0,0,.11,1,3.4,3.4,0,0,0,.15.46C26,66.37,26,66.53,26.11,66.68Z" fill="#afa194"/><path d="M25.62,64.8a.78.78,0,0,0,.24-.28,2.06,2.06,0,0,0,.14-.34h0a3.12,3.12,0,0,0,.46-.59,4.71,4.71,0,0,0,.34-.68,5.52,5.52,0,0,0,.24-.72c.05-.25.14-.49.2-.74a3,3,0,0,1-.11.76,5.69,5.69,0,0,1-.25.73,4.79,4.79,0,0,1-.35.69,3.19,3.19,0,0,1-.48.61v0a1,1,0,0,1-.17.35A.75.75,0,0,1,25.62,64.8Z" fill="#afa194"/><path d="M22.51,66.17a1.6,1.6,0,0,1,.29.2,1.56,1.56,0,0,1,.22.28,1.36,1.36,0,0,1,.23.67l-.06,0a2.12,2.12,0,0,1,.82,0,2,2,0,0,1,.4.1,1.55,1.55,0,0,1,.34.23,1.94,1.94,0,0,0-.37-.14,1.71,1.71,0,0,0-.38-.1,2,2,0,0,0-.78,0l-.06,0v-.06a1.26,1.26,0,0,0-.21-.62,2.27,2.27,0,0,0-.21-.27A2.18,2.18,0,0,0,22.51,66.17Z" fill="#afa194"/><path d="M22.12,67.69a.57.57,0,0,0,.3.07.69.69,0,0,0,.29-.08,1.27,1.27,0,0,0,.46-.4h0a3.27,3.27,0,0,0,.68-.5,4.73,4.73,0,0,0,.56-.64,5.5,5.5,0,0,0,.45-.72c.12-.26.27-.5.38-.76a3.6,3.6,0,0,1-.3.81,5.52,5.52,0,0,1-.46.73,4.84,4.84,0,0,1-.57.65,3.34,3.34,0,0,1-.7.52h0a1.4,1.4,0,0,1-.49.43A.61.61,0,0,1,22.12,67.69Z" fill="#afa194"/><path d="M23.05,64.36c0,.09.09.18.13.26a2.77,2.77,0,0,0,.12.26,2.94,2.94,0,0,0,.31.48,2.91,2.91,0,0,0,.4.41l.23.17.22.19L24.2,66,24,65.85a3,3,0,0,1-.74-.92c0-.09-.09-.18-.12-.27A1.6,1.6,0,0,1,23.05,64.36Z" fill="#afa194"/><path d="M22.43,27.92a1.19,1.19,0,0,1,.62,0,4.52,4.52,0,0,1,.61.15,8.27,8.27,0,0,1,1.15.49,9.72,9.72,0,0,1,2,1.42,7.54,7.54,0,0,1,1.54,2,6.61,6.61,0,0,1,.76,2.36l0,0a2.82,2.82,0,0,1,1.12.85,4.32,4.32,0,0,1,.7,1.23,7.28,7.28,0,0,1,.4,2.79l0-.06A4.43,4.43,0,0,1,32.1,41a2.67,2.67,0,0,1-.51,2c-.22.28-.48.5-.71.75s-.46.5-.69.76A12.27,12.27,0,0,0,29,46.16h0a10.1,10.1,0,0,1,1.15-1.7q.32-.4.67-.78c.22-.26.48-.49.67-.76A2.58,2.58,0,0,0,31.91,41a4.53,4.53,0,0,0-.72-1.85l0,0v0a7.59,7.59,0,0,0-.34-2.74,4.07,4.07,0,0,0-.65-1.21,2.76,2.76,0,0,0-1.07-.85h0v0A5.7,5.7,0,0,0,28.3,32a8.36,8.36,0,0,0-1.57-1.88,10.3,10.3,0,0,0-2-1.43,8.2,8.2,0,0,0-1.12-.52A4.64,4.64,0,0,0,23,28a1.16,1.16,0,0,0-.6,0Z" fill="#c7bdb4"/><path d="M28.18,46.06c-.45-.7-.89-1.41-1.32-2.12s-.83-1.44-1.24-2.17q-1.2-2.19-2.23-4.48a31.26,31.26,0,0,1-1.7-4.72,10.24,10.24,0,0,1-.35-2.49,3.51,3.51,0,0,1,.23-1.25,1.62,1.62,0,0,1,.85-.9v0a1.58,1.58,0,0,0-.81.9,3.44,3.44,0,0,0-.19,1.22,10.19,10.19,0,0,0,.39,2.46,32.66,32.66,0,0,0,1.73,4.68c.67,1.52,1.41,3,2.19,4.49S27.34,44.62,28.2,46Z" fill="#c1bbac"/><path d="M29.12,34.29a12.09,12.09,0,0,0-.41,1.44c-.13.48-.23,1-.32,1.46a22.87,22.87,0,0,0-.32,3,25.84,25.84,0,0,0,0,3c0,.5.09,1,.15,1.49s.11,1,.18,1.49q-.16-.73-.28-1.48c-.06-.5-.12-1-.15-1.5a25.94,25.94,0,0,1,0-3,23,23,0,0,1,.32-3q.13-.74.32-1.47A11.92,11.92,0,0,1,29.12,34.29Z" fill="#afa194"/><path d="M31.26,39.13a6.06,6.06,0,0,0-.54.78,9.41,9.41,0,0,0-.48.82,11.77,11.77,0,0,0-.74,1.75A14,14,0,0,0,29,44.31q-.09.47-.15.94t-.14.94q0-.48,0-1t.15-.94a14.07,14.07,0,0,1,.48-1.85,11.87,11.87,0,0,1,.74-1.76c.15-.28.31-.56.48-.83A5.94,5.94,0,0,1,31.26,39.13Z" fill="#afa194"/><path d="M29.31,42.93c0-.26,0-.52,0-.78s0-.52.08-.78a11.68,11.68,0,0,1,.32-1.54,9.4,9.4,0,0,1,.54-1.47,7.65,7.65,0,0,1,.37-.69,6.91,6.91,0,0,1,.48-.62,6.76,6.76,0,0,0-.4.67,7.55,7.55,0,0,0-.37.69,9.29,9.29,0,0,0-.54,1.46,11.59,11.59,0,0,0-.31,1.52c0,.26-.06.52-.08.77S29.32,42.67,29.31,42.93Z" fill="#afa194"/><path d="M28.11,38.89l.34-.34.37-.31q.36-.31.71-.64c.23-.22.46-.45.67-.68s.21-.24.31-.37a3,3,0,0,0,.3-.37,3.1,3.1,0,0,1-.23.43l-.31.37c-.22.24-.44.47-.68.69s-.47.44-.72.65l-.37.31Z" fill="#afa194"/><path d="M29.16,43.5l.38-.31.4-.29q.39-.3.75-.63a7.88,7.88,0,0,0,.68-.7c.1-.12.21-.25.3-.38a4.31,4.31,0,0,0,.3-.39,4.44,4.44,0,0,1-.22.44c-.1.14-.2.27-.3.39a8,8,0,0,1-.69.71q-.37.33-.76.63l-.4.29Z" fill="#afa194"/><path d="M25.62,40.79a1.09,1.09,0,0,1,.49-.54,1.18,1.18,0,0,1,.74,0,2,2,0,0,1,.67.31,1.84,1.84,0,0,1,.51.53l0,0a.93.93,0,0,1,.65.36A2,2,0,0,1,29,42a4,4,0,0,1,.16.72,6.91,6.91,0,0,1,0,.73,6.85,6.85,0,0,0-.1-.72,3.88,3.88,0,0,0-.15-.7,1.9,1.9,0,0,0-.33-.62.84.84,0,0,0-.58-.33h0v0a1.92,1.92,0,0,0-1.13-.8,1.08,1.08,0,0,0-.68,0A1,1,0,0,0,25.62,40.79Z" fill="#afa194"/><path d="M27.27,40.42A10.71,10.71,0,0,1,27,39c0-.48-.08-1-.09-1.44a10,10,0,0,1,.3-2.86v0a3.2,3.2,0,0,1,.27-1.43,1.63,1.63,0,0,1,.44-.59,1.68,1.68,0,0,1,.64-.34,1.65,1.65,0,0,0-.6.38,2.27,2.27,0,0,0-.39.58,3.11,3.11,0,0,0-.26,1.38h0A10,10,0,0,0,27,37.56c0,.48,0,1,.09,1.43S27.19,39.95,27.27,40.42Z" fill="#afa194"/><path d="M28.53,36.3a1,1,0,0,1-.26-.07L28,36.08a2.12,2.12,0,0,1-.37-.39,2.6,2.6,0,0,1-.27-.46c0-.08-.07-.16-.1-.25s0-.18,0-.27l.12.23c0,.08.06.16.1.24a2.51,2.51,0,0,0,.26.44,2,2,0,0,0,.35.37l.21.15Z" fill="#afa194"/><path d="M27,38.13a2.69,2.69,0,0,1-.58-.24,2.08,2.08,0,0,1-.5-.39,2.28,2.28,0,0,1-.61-1.1l.05,0a1.32,1.32,0,0,1-.75-.16,1.53,1.53,0,0,1-.55-.53,3.2,3.2,0,0,1-.42-1.45l.07,0a.8.8,0,0,1-.56.1.67.67,0,0,1-.44-.33.64.64,0,0,0,.45.27,1,1,0,0,0,.5-.11l.06,0v.07a3.11,3.11,0,0,0,.4,1.41,1.44,1.44,0,0,0,.52.5,1.24,1.24,0,0,0,.7.15h0v0A2.19,2.19,0,0,0,26,37.44a4,4,0,0,0,.47.39A2.66,2.66,0,0,0,27,38.13Z" fill="#afa194"/><path d="M27.08,35.61a3,3,0,0,0-.57-.87,1.43,1.43,0,0,0-.4-.31.84.84,0,0,0-.48-.09h0v0a1.74,1.74,0,0,0-.57-.75,1,1,0,0,0-.89-.11l-.06,0v-.06a2.88,2.88,0,0,0-.24-1,1.17,1.17,0,0,0-.3-.41.73.73,0,0,0-.46-.17h0v0a3.85,3.85,0,0,0-.21-1.27,1.46,1.46,0,0,0-.33-.54.74.74,0,0,0-.59-.19.77.77,0,0,1,.63.15,1.23,1.23,0,0,1,.38.55,3.94,3.94,0,0,1,.21,1.3l0,0a.82.82,0,0,1,.52.19,1.26,1.26,0,0,1,.33.44,3,3,0,0,1,.25,1l-.06,0a1.13,1.13,0,0,1,.5-.06,1,1,0,0,1,.47.18,1.83,1.83,0,0,1,.6.79l0,0a.94.94,0,0,1,.54.1,1.39,1.39,0,0,1,.42.34A3,3,0,0,1,27.08,35.61Z" fill="#afa194"/><path d="M26.05,40.34a6.9,6.9,0,0,1-.45-.92,4.81,4.81,0,0,1-.29-1,5.88,5.88,0,0,1-.1-1,4.41,4.41,0,0,1,.1-1v0a4.11,4.11,0,0,1-.06-1.09,2.17,2.17,0,0,1,.33-1v0a3.72,3.72,0,0,1-.27-2.07v-.05h.05a.52.52,0,0,0,.35-.05,1,1,0,0,0,.3-.24l0,0h0a5.09,5.09,0,0,0,1.06,0,1.73,1.73,0,0,0,1-.35,1.76,1.76,0,0,1-1,.43A3.68,3.68,0,0,1,26,32l0,0a1.11,1.11,0,0,1-.32.26.6.6,0,0,1-.42.06l.06,0a3.63,3.63,0,0,0,.26,2v0a2.08,2.08,0,0,0-.32,1,4,4,0,0,0,.06,1.06h0a4.34,4.34,0,0,0-.1,1,5.77,5.77,0,0,0,.1,1,8.87,8.87,0,0,0,.26,1A6.81,6.81,0,0,0,26.05,40.34Z" fill="#afa194"/><path d="M23.69,34.3s0-.09,0-.13l.05-.11.11-.22.1-.22L24,33.5l.09-.09v.13l-.05.11-.1.22-.11.22-.05.11Z" fill="#afa194"/><path d="M22.43,33.2a2.6,2.6,0,0,1,0-.4,1.56,1.56,0,0,1,.11-.39,1.92,1.92,0,0,1,.45-.67h0a4,4,0,0,1,.91-.07,7.81,7.81,0,0,1,.9.07h0a.25.25,0,0,1,.22,0,.6.6,0,0,1,.13.14,1.74,1.74,0,0,1,.18.32,1.7,1.7,0,0,0-.23-.28l-.13-.1a.18.18,0,0,0-.13,0h0a7.68,7.68,0,0,0-.89-.07,3.92,3.92,0,0,0-.88.07h0a1.85,1.85,0,0,0-.43.63A5.09,5.09,0,0,0,22.43,33.2Z" fill="#afa194"/><path d="M26.11,29.47c-.07.15-.11.31-.18.45a3.4,3.4,0,0,0-.15.46,3.88,3.88,0,0,0-.11,1v0h0a1.39,1.39,0,0,0-.36.16l-.17.11a.69.69,0,0,0-.14.15.68.68,0,0,1,.26-.33,1.48,1.48,0,0,1,.39-.17l0,0a4,4,0,0,1,.11-1,3.5,3.5,0,0,1,.15-.47A1.29,1.29,0,0,1,26.11,29.47Z" fill="#afa194"/><path d="M25.63,31.34a.75.75,0,0,1,.3.24,1,1,0,0,1,.17.35v0a3.18,3.18,0,0,1,.48.61,4.79,4.79,0,0,1,.35.69,5.69,5.69,0,0,1,.25.73,3,3,0,0,1,.11.76c-.06-.25-.14-.49-.2-.74a5.51,5.51,0,0,0-.24-.72,4.7,4.7,0,0,0-.34-.68A3.11,3.11,0,0,0,26,32h0a2.05,2.05,0,0,0-.14-.34A.78.78,0,0,0,25.63,31.34Z" fill="#afa194"/><path d="M22.52,30a2.18,2.18,0,0,0,.23-.26,2.27,2.27,0,0,0,.21-.27,1.27,1.27,0,0,0,.21-.62v-.06l.06,0a2,2,0,0,0,.78,0,1.71,1.71,0,0,0,.38-.1,1.94,1.94,0,0,0,.37-.14,1.55,1.55,0,0,1-.34.23,2,2,0,0,1-.4.1,2.12,2.12,0,0,1-.82,0l.06,0a1.36,1.36,0,0,1-.23.67,1.57,1.57,0,0,1-.22.28A1.61,1.61,0,0,1,22.52,30Z" fill="#afa194"/><path d="M22.13,28.46a.61.61,0,0,1,.62-.08,1.4,1.4,0,0,1,.49.42h0a3.34,3.34,0,0,1,.7.52,4.83,4.83,0,0,1,.57.65,5.51,5.51,0,0,1,.46.73,3.6,3.6,0,0,1,.3.81c-.11-.26-.26-.51-.38-.76a5.49,5.49,0,0,0-.45-.72,4.72,4.72,0,0,0-.56-.64,3.27,3.27,0,0,0-.67-.5h0a1.27,1.27,0,0,0-.46-.39.69.69,0,0,0-.29-.08A.57.57,0,0,0,22.13,28.46Z" fill="#afa194"/><path d="M23.06,31.79a1.6,1.6,0,0,1,0-.29c0-.09.08-.18.12-.27A3,3,0,0,1,24,30.3l.24-.18.28-.11-.22.19-.23.17a2.91,2.91,0,0,0-.4.41,2.94,2.94,0,0,0-.31.48,2.77,2.77,0,0,0-.12.26C23.14,31.61,23.1,31.7,23.06,31.79Z" fill="#afa194"/><g style="mix-blend-mode:screen"><path d="M43.9,55.35c0,.17.21.25.36.33a4,4,0,0,0,.48.18c.33.1.66.19,1,.28a9.34,9.34,0,0,1,1,.3,3.42,3.42,0,0,1,.92.5v0a10.14,10.14,0,0,0-1-.34l-1-.33c-.33-.11-.66-.21-1-.34a4,4,0,0,1-.48-.22c-.14-.09-.33-.19-.35-.38Z" fill="#fff"/></g><g style="mix-blend-mode:screen"><path d="M44,41.18a21.42,21.42,0,0,0,2.43-.5,6.91,6.91,0,0,1,1.24-.15c.2,0,.41-.06.44-.23a1.34,1.34,0,0,0-.1-.58h0a1.14,1.14,0,0,1,.2.61.35.35,0,0,1-.21.29,1.17,1.17,0,0,1-.32.09c-.42.06-.82.07-1.23.14s-.81.16-1.22.23A12.26,12.26,0,0,1,44,41.2Z" fill="#fff"/></g><g style="mix-blend-mode:screen"><path d="M39.18,54l1.68.67c.28.11.57.2.84.32l.83.37v0a4.16,4.16,0,0,1-.89-.21,8.63,8.63,0,0,1-.84-.35Q40,54.42,39.17,54Z" fill="#fff"/></g><g style="mix-blend-mode:screen"><path d="M38.88,42.36q.84-.49,1.71-.92a8.7,8.7,0,0,1,.88-.41,3.4,3.4,0,0,1,.95-.24v0c-.3.12-.59.25-.88.39s-.59.25-.89.38l-1.76.81Z" fill="#fff"/></g><g style="mix-blend-mode:screen"><path d="M36.65,55.13l1.07,1.28c.18.21.37.42.53.64s.33.45.47.69h0a4.91,4.91,0,0,1-.6-.59c-.19-.21-.34-.44-.51-.66q-.5-.67-1-1.36Z" fill="#fff"/></g><g style="mix-blend-mode:screen"><path d="M40.37,58.71a7.55,7.55,0,0,0,1.14.81,2.63,2.63,0,0,0,.62.24.44.44,0,0,0,.54-.21h0a.45.45,0,0,1-.2.32.61.61,0,0,1-.39.07,1.64,1.64,0,0,1-.67-.3,6.18,6.18,0,0,1-1.07-.92Z" fill="#fff"/></g><g style="mix-blend-mode:screen"><path d="M36.77,40.79c.3-.49.63-1,1-1.44a5.37,5.37,0,0,1,.55-.68,2.62,2.62,0,0,1,.34-.28.79.79,0,0,1,.21-.1.2.2,0,0,1,.13,0,.12.12,0,0,1,.07.1h0a.1.1,0,0,0-.15,0,.72.72,0,0,0-.16.12,3.71,3.71,0,0,0-.29.31l-.57.64c-.37.44-.72.89-1.07,1.35Z" fill="#fff"/></g><g style="mix-blend-mode:screen"><path d="M40.07,37.53a8.68,8.68,0,0,1,1.12-.92,2.59,2.59,0,0,1,.65-.36,1.14,1.14,0,0,1,.38-.06.38.38,0,0,1,.33.19h0c-.19-.15-.42-.06-.63,0a7,7,0,0,0-.63.31,11.53,11.53,0,0,0-1.18.81Z" fill="#fff"/></g><g style="mix-blend-mode:screen"><path d="M19.46,55.35a.35.35,0,0,0,.2.05h.22l.43,0c.29,0,.58-.06.87-.12a3,3,0,0,0,1.55-.78h0a2.9,2.9,0,0,1-1.52.91,3.64,3.64,0,0,1-.89.16,3,3,0,0,1-.45,0,.67.67,0,0,1-.42-.17Z" fill="#fff"/></g><g style="mix-blend-mode:screen"><path d="M19.46,40.79a1.54,1.54,0,0,0,.27.3,1.21,1.21,0,0,0,.32.2,2.44,2.44,0,0,0,.82.12v0a2.1,2.1,0,0,1-.87,0,.75.75,0,0,1-.41-.21.62.62,0,0,1-.16-.43Z" fill="#fff"/></g></g></g></svg>