<svg xmlns="http://www.w3.org/2000/svg" xmlns:xlink="http://www.w3.org/1999/xlink" viewBox="0 0 137.8 175.34"><defs><radialGradient id="radial-gradient" cx="61.55" cy="-474.57" r="69.76" gradientTransform="translate(-317.06 404.16) rotate(45) scale(1.02 1.02)" gradientUnits="userSpaceOnUse"><stop offset="0" stop-color="#29aad8"/><stop offset="1" stop-color="#2990ce"/></radialGradient><linearGradient id="linear-gradient" x1="-13.45" y1="-459.76" x2="17.2" y2="-456.01" gradientTransform="translate(-291.15 375.39) rotate(45)" gradientUnits="userSpaceOnUse"><stop offset="0" stop-color="#299bdb"/><stop offset="0.44" stop-color="#29a4d9"/><stop offset="1" stop-color="#29aad8"/></linearGradient><linearGradient id="linear-gradient-2" x1="49.86" y1="-522.94" x2="52.39" y2="-490.73" xlink:href="#linear-gradient"/><clipPath id="clip-path"><path d="M84.45,95.32a12.12,12.12,0,0,0-2.79.53,9.05,9.05,0,0,0-1.35.52l-.42.2h0a9.16,9.16,0,0,0-4.44,5.67C74,100.6,71.56,99,67.31,98.38q-.56.66-1,1.21c-.43.54-.77,1-1,1.41a13,13,0,0,0-.92,1.47,1.51,1.51,0,0,1-.52.09,2.27,2.27,0,0,1-.65-.09,2.48,2.48,0,0,1-.59-.22l-.45-.73c-.31-.54-.79-1.35-1.38-2.38h0a7.1,7.1,0,0,0-.88.52,7.18,7.18,0,0,0-1.16,1,8.1,8.1,0,0,0-1.16,1.54,9.53,9.53,0,0,0-1.26,4.56,9.26,9.26,0,0,0,.36,2.46h0a8.68,8.68,0,0,0,.88,2.09,7.86,7.86,0,0,0,1.16,1.54,6.79,6.79,0,0,0,1.16,1,7.1,7.1,0,0,0,.88.52h0c.59-1,1.06-1.83,1.38-2.37l.45-.74a2.48,2.48,0,0,1,.59-.22,2.28,2.28,0,0,1,.65-.09,1.5,1.5,0,0,1,.52.09,12.49,12.49,0,0,0,.92,1.48c.27.4.62.87,1,1.4q.43.56,1,1.21c4.26-.64,6.73-2.22,8.14-3.87a8.58,8.58,0,0,0,.43,1.25,8.48,8.48,0,0,0,4,4.42h0l.42.2a9,9,0,0,0,1.35.52h0a12.34,12.34,0,0,0,2.77.52,16.41,16.41,0,0,0,2.55,0,19,19,0,0,0,2-.23,25.33,25.33,0,0,0,4.15-1c.55-.18,1.1-.39,1.65-.61.82-.33,1.59-.67,2.32-1h0a37,37,0,0,0,3.54-1.87,31.16,31.16,0,0,0,3.23-2.17c2.64-2,3.91-3.77,3.91-4.48s-1.26-2.46-3.9-4.48h0a33.35,33.35,0,0,0-3.22-2.16h0a38.85,38.85,0,0,0-3.54-1.86h0q-1.1-.52-2.33-1c-.55-.22-1.1-.43-1.64-.61A24.74,24.74,0,0,0,89,95.53a19.14,19.14,0,0,0-2-.23A16.4,16.4,0,0,0,84.45,95.32Z" fill="none"/></clipPath><radialGradient id="radial-gradient-2" cx="4601.07" cy="367.57" r="50.83" gradientTransform="matrix(0.01, -0.31, 0.44, 0.01, -119.04, 1527.52)" gradientUnits="userSpaceOnUse"><stop offset="0" stop-color="#fae282"/><stop offset="0.19" stop-color="#e0853b"/><stop offset="0.37" stop-color="#78471e"/><stop offset="0.53" stop-color="#40260f"/><stop offset="0.7" stop-color="#140c03"/><stop offset="0.84" stop-color="#060401"/><stop offset="1"/></radialGradient><radialGradient id="radial-gradient-3" cx="4601.31" cy="312.98" r="24.88" xlink:href="#radial-gradient-2"/><clipPath id="clip-path-2"><path d="M49.77,102.28a17.33,17.33,0,0,0-1.41,1.28h0a12.08,12.08,0,0,0-1.12,1.27,2.61,2.61,0,0,0,0,3.87A13.17,13.17,0,0,0,48.36,110a16.19,16.19,0,0,0,1.41,1.27s2.76,4.28,7.76.06a8.68,8.68,0,0,1-.88-2.09h0a9.26,9.26,0,0,1-.36-2.46,9.53,9.53,0,0,1,1.26-4.56C52.53,98,49.77,102.28,49.77,102.28Z" fill="none"/></clipPath><radialGradient id="radial-gradient-4" cx="4674.52" cy="74.92" r="24.87" gradientTransform="matrix(0.31, 0, 0, 0.44, -1387.98, 77.81)" xlink:href="#radial-gradient-2"/><radialGradient id="radial-gradient-5" cx="4689.48" cy="58.65" r="24.87" gradientTransform="matrix(0.31, 0, 0, 0.44, -1392.78, 76.45)" xlink:href="#radial-gradient-2"/></defs><title>26</title><g style="isolation:isolate"><g id="Layer_1" data-name="Layer 1"><polygon points="69.19 175.34 0 106.79 69.25 38.18 137.8 106.73 69.19 175.34" fill="url(#radial-gradient)"/><polygon points="0.01 68.61 0 106.79 69.25 38.17 68.61 0 0.01 68.61" fill="url(#linear-gradient)"/><polygon points="68.61 0 69.25 38.17 137.8 106.72 137.43 68.82 68.61 0" fill="url(#linear-gradient-2)"/><path d="M60.54,136.42c.79-2.86,2.62-3.48,2.78-3.53a28.2,28.2,0,0,0,1.33,4.46,13.25,13.25,0,0,1-1.25,4.28C60.26,140.6,60.54,136.42,60.54,136.42Z" fill="#e5e8d4"/><path d="M56.3,132.69a5.62,5.62,0,0,1,3.63-3.86,29.08,29.08,0,0,0,.19,5.59s-1.14,3.19-3.23,2.93C55.68,135.6,56.3,132.69,56.3,132.69Z" fill="#e5e8d4"/><path d="M60.54,136.42s-.28,4.18,2.86,5.21a14.21,14.21,0,0,1-1,1.76c-1.41-1.34-4.57-.82-4.57-.82S59.94,140.71,60.54,136.42Z" fill="#e5e8d4"/><path d="M60.12,134.42a16.78,16.78,0,0,0,.42,2c-.6,4.29-2.7,6.14-2.7,6.14-.83-.93-1.54-.67-1.54-.67a8.22,8.22,0,0,1,.49-4.29s0,0,0,0l0-.11,0-.09C59,137.61,60.12,134.42,60.12,134.42Z" fill="#e5e8d4"/><path d="M55.42,142.91a.33.33,0,0,1-.24,0,11.28,11.28,0,0,1-4,0c2.17,0,2.32-3.62,2.32-3.62,1.9.67,2.95-1,3.28-1.71a8.22,8.22,0,0,0-.49,4.29C55.92,142.59,55.61,142.83,55.42,142.91Z" fill="#e5e8d4"/><path d="M56.3,141.9s.72-.26,1.54.67a2.32,2.32,0,0,1-1,1.34,3.32,3.32,0,0,1-.82-.34,1.78,1.78,0,0,1-.66-.65C55.61,142.83,55.92,142.59,56.3,141.9Z" fill="#dccbb6"/><path d="M57.84,142.57s3.16-.51,4.57.82A19.12,19.12,0,0,1,58,148.07a7.45,7.45,0,0,1-1.08-4.17A2.32,2.32,0,0,0,57.84,142.57Z" fill="#e5e8d4"/><path d="M56.08,143.56a3.32,3.32,0,0,0,.82.34A7.45,7.45,0,0,0,58,148.07,22.32,22.32,0,0,1,55,150a4.38,4.38,0,0,0-3.41-.53,8.74,8.74,0,0,0,2.8-2.6A12.53,12.53,0,0,0,56.08,143.56Z" fill="#e5e8d4"/><path d="M55.18,142.93a.33.33,0,0,0,.24,0,1.78,1.78,0,0,0,.66.65,12.53,12.53,0,0,1-1.73,3.3,6.49,6.49,0,0,1-3.16-3.94A11.28,11.28,0,0,0,55.18,142.93Z" fill="#e5e8d4"/><path d="M51.55,149.47A4.38,4.38,0,0,1,55,150c-2.42,1.29-4.51,1.8-5.17,1.5a5.18,5.18,0,0,1-.66-1.19s1.08.88,2.39-.83Z" fill="#e5e8d4"/><path d="M48.58,147.36h0a1.65,1.65,0,0,0,1.4-.42,3.68,3.68,0,0,1,1.53,2.53c-1.31,1.71-2.39.83-2.39.83A8.38,8.38,0,0,1,48.58,147.36Z" fill="#e5e8d4"/><path d="M50.42,137.79a1.61,1.61,0,0,1,2.16-.43s.62,1.24.92,2c0,0-.15,3.58-2.32,3.62a4.72,4.72,0,0,1-1.39-3.15c.19-.65.4-1.32.62-2Z" fill="#dccbb6"/><path d="M52.59,137.36c.41-5.16,3.72-4.67,3.72-4.67s-.62,2.91.59,4.66l0,.09a.42.42,0,0,0,0,.11s0,0,0,0c-.33.66-1.38,2.38-3.28,1.71C53.2,138.59,52.59,137.36,52.59,137.36Z" fill="#e5e8d4"/><path d="M50,146.94c1.23-1.12,1.2-4,1.2-4a6.49,6.49,0,0,0,3.16,3.94,8.74,8.74,0,0,1-2.8,2.6h0A3.68,3.68,0,0,0,50,146.94Z" fill="#e5e8d4"/><path d="M49.79,139.78a4.72,4.72,0,0,0,1.39,3.15s0,2.89-1.2,4a1.65,1.65,0,0,1-1.4.42h0A25.78,25.78,0,0,1,49.79,139.78Z" fill="#e5e8d4"/><path d="M51.55,64h0a8.73,8.73,0,0,1,2.8,2.6,6.52,6.52,0,0,0-3.16,3.95s0-2.89-1.2-4A3.68,3.68,0,0,0,51.55,64Z" fill="#e5e8d4"/><path d="M49.15,63.2s1.08-.88,2.39.83A3.68,3.68,0,0,1,50,66.56a1.65,1.65,0,0,0-1.4-.42h0A8.39,8.39,0,0,1,49.15,63.2Z" fill="#e5e8d4"/><path d="M55.43,70.6c.2.08.5.32.88,1a8.22,8.22,0,0,0,.49,4.29c-.33-.67-1.38-2.39-3.28-1.72,0,0-.15-3.58-2.32-3.61a11,11,0,0,1,4,0A.33.33,0,0,1,55.43,70.6Z" fill="#e5e8d4"/><path d="M49.81,73.72a4.69,4.69,0,0,1,1.4-3.14c2.17,0,2.32,3.61,2.32,3.61-.31.73-.93,2-.93,2a1.61,1.61,0,0,1-2.16-.44h0C50.21,75.05,50,74.38,49.81,73.72Z" fill="#e5e8d4"/><path d="M51.57,64A4.35,4.35,0,0,0,55,63.51a22.36,22.36,0,0,1,3,1.93,7.41,7.41,0,0,0-1.08,4.16,3.33,3.33,0,0,0-.82.34,12.52,12.52,0,0,0-1.73-3.3A8.73,8.73,0,0,0,51.57,64Z" fill="#e5e8d4"/><path d="M56.09,69.94a3.33,3.33,0,0,1,.82-.34,2.35,2.35,0,0,1,.95,1.34c-.83.93-1.54.68-1.54.68-.38-.69-.69-.93-.88-1A1.75,1.75,0,0,1,56.09,69.94Z" fill="#dccbb6"/><path d="M48.61,66.14a1.65,1.65,0,0,1,1.4.42c1.23,1.13,1.2,4,1.2,4a4.69,4.69,0,0,0-1.4,3.14,25.73,25.73,0,0,1-1.21-7.58Z" fill="#e5e8d4"/><path d="M49.81,62c.66-.31,2.75.21,5.17,1.49a4.35,4.35,0,0,1-3.41.53h0c-1.31-1.7-2.39-.83-2.39-.83A5.18,5.18,0,0,1,49.81,62Z" fill="#e5e8d4"/><path d="M56.91,69.6A7.41,7.41,0,0,1,58,65.44a19.23,19.23,0,0,1,4.44,4.67c-1.41,1.34-4.57.83-4.57.83A2.35,2.35,0,0,0,56.91,69.6Z" fill="#e5e8d4"/><path d="M51.21,70.59a6.52,6.52,0,0,1,3.16-3.95,12.52,12.52,0,0,1,1.73,3.3,1.75,1.75,0,0,0-.66.66.33.33,0,0,0-.24,0A11,11,0,0,0,51.21,70.59Z" fill="#dccbb6"/><path d="M56.32,71.62s.72.26,1.54-.68c0,0,2.1,1.86,2.7,6.14a17.17,17.17,0,0,0-.42,2S59,75.89,56.91,76.16l0-.09,0-.11,0,0A8.22,8.22,0,0,1,56.32,71.62Z" fill="#e5e8d4"/><path d="M57.86,70.94s3.16.51,4.57-.83a13.7,13.7,0,0,1,1,1.77c-3.15,1-2.87,5.2-2.87,5.2C60,72.8,57.86,70.94,57.86,70.94Z" fill="#e5e8d4"/><path d="M63.43,71.88a13.24,13.24,0,0,1,1.25,4.28,27.46,27.46,0,0,0-1.32,4.45s-2-.53-2.79-3.52C60.56,77.08,60.28,72.91,63.43,71.88Z" fill="#e5e8d4"/><path d="M63.33,132.9a46.39,46.39,0,0,1-.9-5.76c.24.2,4.8,3.81,6,6-1.4,3.41-3.77,4.19-3.77,4.19A28.2,28.2,0,0,1,63.33,132.9Z" fill="#dccbb6"/><path d="M69,131.25c-4.15-5.37-3.94-13.08-3.94-13.08,1.67,5.74,4.32,8.45,4.32,8.45A18,18,0,0,1,69,131.25Z" fill="#dccbb6"/><path d="M56.9,122.92a2.35,2.35,0,0,0,.95,1,12.66,12.66,0,0,0-1.55,8.76s-3.3-.49-3.72,4.67a1.61,1.61,0,0,0-2.16.43h0A109.57,109.57,0,0,1,56.9,122.92Z" fill="#dccbb6"/><path d="M62.43,127.13a46.39,46.39,0,0,0,.9,5.76c-.16,0-2,.67-2.78,3.53a16.78,16.78,0,0,1-.42-2,29.08,29.08,0,0,1-.19-5.59h0a39.67,39.67,0,0,1,.6-5.09,4.29,4.29,0,0,0,1.63-1.46C62.19,124,62.28,125.65,62.43,127.13Z" fill="#dccbb6"/><path d="M67.25,115.12h.06c.59.7,1.3,1.48,2.12,2.32A5.89,5.89,0,0,1,71,122.92c-1.72-3.24-6.23-6-6.23-6-.13-.52-.26-1.07-.36-1.64A13.89,13.89,0,0,0,67.25,115.12Z" fill="#e5e8d4"/><path d="M64.75,116.92c.11.44.21.85.34,1.25,0,0-.22,7.7,3.94,13.08a11.51,11.51,0,0,1-.59,1.92c-1.2-2.22-5.76-5.84-6-6-.15-1.48-.24-3.1-.25-4.85C62.17,122.29,64.65,122.4,64.75,116.92Z" fill="#e5e8d4"/><path d="M64.75,116.92h0s4.51,2.77,6.23,6a10.28,10.28,0,0,1-1.58,3.7s-2.64-2.71-4.32-8.45C65,117.77,64.86,117.36,64.75,116.92Z" fill="#dccbb6"/><path d="M61.43,114.65a7.7,7.7,0,0,0,1.15.36,60.83,60.83,0,0,0-.41,7.27,4.29,4.29,0,0,1-1.63,1.46,2.84,2.84,0,0,1-2.7.18,2.35,2.35,0,0,1-.95-1C58.63,119.55,60.28,116.62,61.43,114.65Z" fill="#dccbb6"/><path d="M62.58,115a10.67,10.67,0,0,0,1.81.26c.11.57.23,1.12.36,1.64h0c-.1,5.48-2.58,5.37-2.58,5.37A60.83,60.83,0,0,1,62.58,115Z" fill="#dccbb6"/><path d="M57.85,123.93a2.84,2.84,0,0,0,2.7-.18,39.67,39.67,0,0,0-.6,5.09h0a5.62,5.62,0,0,0-3.63,3.86A12.66,12.66,0,0,1,57.85,123.93Z" fill="#dccbb6"/><path d="M71,90.59a5.88,5.88,0,0,1-1.56,5.48c-.83.84-1.53,1.62-2.12,2.32h-.06a13.77,13.77,0,0,0-2.85-.15c.11-.57.22-1.12.36-1.64C64.76,96.59,69.27,93.82,71,90.59Z" fill="#dccbb6"/><path d="M53.53,74.19c1.9-.67,2.95,1,3.28,1.72l0,0a.74.74,0,0,0,0,.11l0,.09c-1.21,1.75-.6,4.66-.6,4.66s-3.3.5-3.71-4.66C52.6,76.16,53.22,74.92,53.53,74.19Z" fill="#dccbb6"/><path d="M57.86,89.57a12.65,12.65,0,0,1-1.54-8.76,5.61,5.61,0,0,0,3.63,3.85h0a39.65,39.65,0,0,0,.6,5.09A2.87,2.87,0,0,0,57.86,89.57Z" fill="#dccbb6"/><path d="M68.44,80.34A11.62,11.62,0,0,1,69,82.25c-4.15,5.38-3.94,13.08-3.94,13.08h0q-.19.61-.35,1.26c-.1-5.48-2.57-5.37-2.57-5.37,0-1.76.11-3.38.26-4.85C62.68,86.17,67.25,82.56,68.44,80.34Z" fill="#dccbb6"/><path d="M62.44,86.37c-.15,1.48-.24,3.1-.26,4.85a4.24,4.24,0,0,0-1.63-1.47,39.65,39.65,0,0,1-.6-5.09h0a29.12,29.12,0,0,1,.19-5.59,17.17,17.17,0,0,1,.42-2c.83,3,2.79,3.52,2.79,3.52A44.63,44.63,0,0,0,62.44,86.37Z" fill="#dccbb6"/><path d="M50.43,75.72h0a1.61,1.61,0,0,0,2.16.44c.41,5.16,3.71,4.66,3.71,4.66a12.65,12.65,0,0,0,1.54,8.76,2.43,2.43,0,0,0-1,1A109.08,109.08,0,0,1,50.43,75.72Z" fill="#dccbb6"/><path d="M64.67,76.16s2.38.78,3.77,4.19c-1.2,2.22-5.76,5.83-6,6a44.63,44.63,0,0,1,.91-5.76A27.46,27.46,0,0,1,64.67,76.16Z" fill="#dccbb6"/><path d="M56.91,76.16c2.09-.26,3.23,2.92,3.23,2.92a29.12,29.12,0,0,0-.19,5.59,5.61,5.61,0,0,1-3.63-3.85S55.7,77.91,56.91,76.16Z" fill="#e5e8d4"/><path d="M65.1,95.33c1.67-5.74,4.31-8.44,4.31-8.44A10.27,10.27,0,0,1,71,90.59c-1.73,3.24-6.24,6-6.24,6Q64.92,95.93,65.1,95.33Z" fill="#dccbb6"/><path d="M69,82.25a18,18,0,0,1,.38,4.64s-2.64,2.7-4.31,8.44h0S64.88,87.62,69,82.25Z" fill="#e5e8d4"/><path d="M62.18,91.22s2.48-.12,2.57,5.37c-.13.52-.25,1.07-.36,1.64a10.89,10.89,0,0,0-1.82.26A60.59,60.59,0,0,1,62.18,91.22Z" fill="#dccbb6"/><path d="M57.86,89.57a2.87,2.87,0,0,1,2.7.18,4.24,4.24,0,0,1,1.63,1.47,60.59,60.59,0,0,0,.4,7.27,7.92,7.92,0,0,0-1.16.37c-1.15-2-2.79-4.9-4.52-8.27A2.43,2.43,0,0,1,57.86,89.57Z" fill="#dccbb6"/><path d="M60.77,114.35h0a4.33,4.33,0,0,0,.66.3c-1.16,2-2.8,4.9-4.54,8.27a109.57,109.57,0,0,0-6.48,14.86c-.22.68-.43,1.35-.62,2a25.78,25.78,0,0,0-1.22,7.58,8.38,8.38,0,0,0,.55,2.94,5.18,5.18,0,0,0,.66,1.19C42.32,148,55.7,123.18,60.77,114.35Z" fill="#9d9d8a"/><path d="M49.81,62a5.18,5.18,0,0,0-.66,1.19,8.39,8.39,0,0,0-.55,2.94,25.73,25.73,0,0,0,1.21,7.58c.19.66.4,1.33.62,2a109.08,109.08,0,0,0,6.48,14.87c1.73,3.38,3.38,6.3,4.52,8.27a5.21,5.21,0,0,0-.65.29h0C55.71,90.33,42.34,65.53,49.81,62Z" fill="#9d9d8a"/><path d="M39.39,122.34c-.08-.88,2.2-.67,3.81-.81a2.2,2.2,0,0,0-.69.87c-.54,0-1.94.2-1.94.2-1.09,4.08-3.3,2.79-3.3,2.79C38.91,125.49,39.48,123.22,39.39,122.34Z" fill="#5a2835"/><path d="M37.27,88.13s2.21-1.3,3.3,2.78c0,0,1.4.19,1.94.2a2.23,2.23,0,0,0,.69.88,16.81,16.81,0,0,1-3.43-.32c-.25-.11-.4-.26-.37-.5C39.48,90.3,38.92,88,37.27,88.13Z" fill="#5a2835"/><path d="M97.09,79.57c.17-.19,2.69-3,4.36.59-.17-.16-2.27-2-4,0a2.05,2.05,0,0,0-.17-.36,1.09,1.09,0,0,0-.17-.22Z" fill="#5a2835"/><path d="M110.67,87.86c2.06-1.3,4.54-1.68,4.33,2.05,0,0-.35-3.43-4.24-1.39A2.61,2.61,0,0,0,110.67,87.86Z" fill="#5a2835"/><path d="M115,123.56c.21,3.74-2.27,3.35-4.34,2.06a2.56,2.56,0,0,0,.1-.65C114.64,127,115,123.56,115,123.56Z" fill="#5a2835"/><path d="M97.24,133.69a2.07,2.07,0,0,0,.17-.36c1.75,2,3.85.16,4,0-1.67,3.58-4.19.79-4.36.6h0A1.11,1.11,0,0,0,97.24,133.69Z" fill="#5a2835"/><path d="M94.77,80.24c1.06-.81,1.78-1.27,2.31-.67h0a1.09,1.09,0,0,1,.17.22,2.05,2.05,0,0,1,.17.36h0c.24.75-.29,1.35-1.83,1.59h0A4,4,0,0,0,94.77,80.24Z" fill="#260617"/><path d="M107.81,87.86c1.21-.88,2.52-1.31,2.86,0a2.61,2.61,0,0,1,.1.66c0,.83-.65,1.11-2.44.79A10,10,0,0,0,107.81,87.86Z" fill="#260617"/><path d="M108.32,124.17c1.78-.33,2.44,0,2.44.79a2.56,2.56,0,0,1-.1.65c-.34,1.32-1.65.88-2.86,0A9.21,9.21,0,0,0,108.32,124.17Z" fill="#260617"/><path d="M95.58,131.73h0c1.54.23,2.06.83,1.82,1.58h0a2.07,2.07,0,0,1-.17.36,1.11,1.11,0,0,1-.17.22h0c-.53.6-1.25.14-2.31-.67A4,4,0,0,0,95.58,131.73Z" fill="#260617"/><path d="M87.5,127.08h0a17.05,17.05,0,0,0,6.08,2.8c1.58.37,2.18,1,2,1.86a4,4,0,0,1-.82,1.52c-1.37,1.78-5.57-2.27-7.56-5A2.93,2.93,0,0,0,87.5,127.08Z" fill="#5a2835"/><path d="M87.21,85.26c2-2.76,6.19-6.81,7.56-5a4,4,0,0,1,.82,1.52c.2.89-.41,1.49-2,1.86a17.22,17.22,0,0,0-6.09,2.8h0A2.93,2.93,0,0,0,87.21,85.26Z" fill="#5a2835"/><path d="M83.83,86.88c1.93-2.52,2.62-3.2,3.38-1.62a2.93,2.93,0,0,1,.31,1.15,3.34,3.34,0,0,1-1.83,2.9,55.72,55.72,0,0,0-5.06,4.48c0-.41,0-.74-.23-.89s-.45,0-.78.24C79.79,92.87,82,89.3,83.83,86.88Z" fill="#321029"/><path d="M98.9,88.49c2.55-1.1,7.84-3,8.46-1.61l.45,1a10,10,0,0,1,.52,1.44c.2.82.15,1.53-.52,1.75-1.34.46-8,1.6-11.59.86a4.88,4.88,0,0,0-.31-.86C97.25,90.7,96.36,89.6,98.9,88.49Z" fill="#5a2835"/><path d="M96.21,121.57c3.64-.74,10.25.39,11.59.86.67.22.72.93.52,1.75a9.21,9.21,0,0,1-.52,1.45c-.15.36-.31.7-.45,1-.62,1.34-5.91-.52-8.46-1.62s-1.65-2.2-3-2.57A4.87,4.87,0,0,0,96.21,121.57Z" fill="#5a2835"/><path d="M80.39,120.59c.21-.15.26-.48.23-.89a55.69,55.69,0,0,0,5.06,4.48,3.34,3.34,0,0,1,1.82,2.9,2.93,2.93,0,0,1-.31,1.15c-.76,1.59-1.45.9-3.38-1.61s-4-6-4.21-6.27C79.94,120.62,80.22,120.71,80.39,120.59Z" fill="#321029"/><path d="M84.45,95.33a12.12,12.12,0,0,0-2.79.53c4.93-2.82,12.91-7,13.73-5.72a6.45,6.45,0,0,1,.51.92,4.88,4.88,0,0,1,.31.86c.23.88.11,1.67-.83,1.87-1.58.35-8.39,1.51-8.39,1.51A16.4,16.4,0,0,0,84.45,95.33Z" fill="#321029"/><path d="M84.44,118.16a16.4,16.4,0,0,0,2.55,0s6.81,1.16,8.39,1.51c.93.21,1.06,1,.83,1.87a4.87,4.87,0,0,1-.31.86,6.46,6.46,0,0,1-.51.92c-.83,1.24-8.78-2.88-13.71-5.7A12.34,12.34,0,0,0,84.44,118.16Z" fill="#321029"/><path d="M79.62,93.14c.33-.27.6-.36.78-.24s.26.48.23.89a11,11,0,0,1-.74,2.78h0a8.56,8.56,0,0,0-4,4.43h0c.74-3.77,2.59-6.9,3.74-7.85Z" fill="#321029"/><path d="M75.87,112.49h0a8.48,8.48,0,0,0,4,4.42h0a11,11,0,0,1,.73,2.78c0,.41,0,.74-.23.89s-.45,0-.78-.24v0C78.45,119.38,76.6,116.26,75.87,112.49Z" fill="#321029"/><path d="M42.51,122.4a2.2,2.2,0,0,1,.69-.87h0a2.57,2.57,0,0,1,2-.55c2,.35,3.62-.34,5.89-1.27a5.52,5.52,0,0,0,.4.51h0c-1.59,3.53-7.61,4.24-8.75,3.4A1,1,0,0,1,42.51,122.4Z" fill="#321029"/><path d="M42.51,91.11a1,1,0,0,1,.27-1.21c1.14-.84,7.17-.13,8.75,3.39h0a5.54,5.54,0,0,0-.4.51c-2.27-.92-3.92-1.61-5.89-1.27a2.57,2.57,0,0,1-2-.54h0A2.23,2.23,0,0,1,42.51,91.11Z" fill="#321029"/><path d="M36.59,93.29c-2.68-3.51-2.27-4.54-1.24-4.65a20.63,20.63,0,0,0,3.3,5.13,18.77,18.77,0,0,0,5.57,4.45,1.34,1.34,0,0,0-.24.73A22.13,22.13,0,0,1,36.59,93.29Z" fill="#44323c"/><path d="M51.55,93.29c1.15-1.35,2.08-.83,3.3,1a39.42,39.42,0,0,0,5,5.35,7.18,7.18,0,0,0-1.16,1c-2.1-2.11-8.92-4.89-7.57-6.85A5.54,5.54,0,0,1,51.55,93.29Z" fill="#321029"/><path d="M84.45,95.33a16.4,16.4,0,0,1,2.55,0,19.14,19.14,0,0,1,2,.23c1.11,1.35,2.06,7.09,2.06,11.21s-1,9.83-2.06,11.21a19,19,0,0,1-2,.23,16.4,16.4,0,0,1-2.55,0c-2.06-1.58-2.79-8.61-2.79-11.41S82.38,96.91,84.45,95.33Z" fill="#e29813"/><path d="M81.66,95.86a12.12,12.12,0,0,1,2.79-.53c-2.06,1.58-2.79,8.61-2.79,11.42s.72,9.83,2.79,11.41a12.34,12.34,0,0,1-2.77-.52h0a9,9,0,0,1-1.35-.52c-2.39-2.58-2.53-9.28-2.53-10.36s.14-7.79,2.54-10.37A9.05,9.05,0,0,1,81.66,95.86Z" fill="#260617"/><path d="M89,95.54a24.74,24.74,0,0,1,4.17,1.06c1.61,2,2.1,7.35,2.09,10.16s-.49,8.13-2.11,10.16A25.32,25.32,0,0,1,89,118c1.1-1.38,2.06-7.1,2.06-11.21S90.1,96.89,89,95.54Z" fill="#260617"/><path d="M79.89,96.58l.42-.2c-2.4,2.58-2.54,9.28-2.54,10.37s.14,7.79,2.53,10.36l-.42-.2h0a8.48,8.48,0,0,1-4-4.42,8.58,8.58,0,0,1-.43-1.25,6.47,6.47,0,0,0,0-9,9.16,9.16,0,0,1,4.44-5.67Z" fill="#e29813"/><path d="M93.16,96.59c.54.18,1.09.39,1.64.61q1.23.5,2.33,1h0a19.19,19.19,0,0,1,1.7,8.52,19.22,19.22,0,0,1-1.7,8.52h0c-.73.35-1.5.69-2.32,1-.55.22-1.11.43-1.65.61,1.62-2,2.11-7.36,2.11-10.16S94.77,98.62,93.16,96.59Z" fill="#e29813"/><path d="M64.4,98.23a13.77,13.77,0,0,1,2.85.15h.06q-.56.66-1,1.21c-.43.54-.77,1-1,1.41a13,13,0,0,0-.92,1.47,1.51,1.51,0,0,1-.52.09A34.4,34.4,0,0,1,64.4,98.23Z" fill="#f4ab37"/><path d="M62.59,98.49a10.89,10.89,0,0,1,1.82-.26,34.4,34.4,0,0,0-.56,4.34,2.27,2.27,0,0,1-.65-.09c-.06-.32-.12-.64-.17-1C62.85,100.48,62.7,99.47,62.59,98.49Z" fill="#f4ab37"/><path d="M61.43,98.86a7.92,7.92,0,0,1,1.16-.37c.12,1,.26,2,.44,3h0S62.4,100.53,61.43,98.86Z" fill="#f4ab37"/><path d="M44,98.95a1.34,1.34,0,0,1,.24-.73s2.11,3.9,4.15,5.32a12,12,0,0,0-1.12,1.27C45.48,103.27,43.89,100.51,44,98.95Z" fill="#260617"/><path d="M62.16,101.53c-.31-.54-.79-1.35-1.38-2.38a5.21,5.21,0,0,1,.65-.29c1,1.67,1.58,2.66,1.58,2.66h0c0,.32.11.64.17,1a2.48,2.48,0,0,1-.59-.22Z" fill="#f4ab37"/><path d="M57.56,102.2a8.1,8.1,0,0,1,1.16-1.54,7.18,7.18,0,0,1,1.16-1,7.1,7.1,0,0,1,.88-.52h0c.59,1,1.06,1.84,1.38,2.38-1.29.37-3.23,2.06-3.23,5.23s1.94,4.85,3.23,5.23c-.32.54-.79,1.35-1.38,2.37h0a7.1,7.1,0,0,1-.88-.52,6.79,6.79,0,0,1-1.16-1,7.86,7.86,0,0,1-1.16-1.54,8.68,8.68,0,0,1-.88-2.09h0a9.26,9.26,0,0,1-.36-2.46,9.53,9.53,0,0,1,1.26-4.56Z" fill="#e29813"/><path d="M66.32,99.6q.43-.56,1-1.21c4.25.64,6.72,2.22,8.14,3.87a6.47,6.47,0,0,1,0,9c-1.41,1.65-3.88,3.23-8.14,3.87q-.56-.66-1-1.21c4.35,0,8.71-3.65,8.71-7.14S70.67,99.6,66.32,99.6Z" fill="#3b0526"/><path d="M97.13,98.23a38.85,38.85,0,0,1,3.54,1.86h0c.12.17,1.49,2.07,1.48,6.65,0,4.8-1.5,6.66-1.5,6.66a37,37,0,0,1-3.54,1.87,19.22,19.22,0,0,0,1.7-8.52A19.19,19.19,0,0,0,97.13,98.23Z" fill="#260617"/><path d="M65.28,101c.27-.4.61-.88,1-1.41,4.35,0,8.71,3.65,8.71,7.15s-4.36,7.14-8.71,7.14c-.42-.54-.77-1-1-1.4,2.53.12,5.28-2.66,5.28-5.74S67.8,100.88,65.28,101Z" fill="#e29813"/><path d="M65.28,101c2.53-.13,5.28,2.65,5.27,5.74s-2.75,5.86-5.28,5.74a12.5,12.5,0,0,1-.92-1.48,1.51,1.51,0,0,0-.52-.09,2.28,2.28,0,0,0-.65.09,2.48,2.48,0,0,0-.59.22l-.45.74c-1.29-.37-3.23-2.06-3.23-5.23s1.94-4.86,3.23-5.23l.45.73a2.48,2.48,0,0,0,.59.22,2.27,2.27,0,0,0,.65.09,1.51,1.51,0,0,0,.52-.09A13,13,0,0,1,65.28,101Z" fill="#5a2835"/><path d="M102.17,106.75c0-4.58-1.36-6.49-1.48-6.65a33.35,33.35,0,0,1,3.22,2.16h0a11.42,11.42,0,0,1,0,9,31.16,31.16,0,0,1-3.23,2.17S102.16,111.54,102.17,106.75Z" fill="#e29813"/><path d="M49.8,102.27s2.76-4.29,7.76-.07a9.06,9.06,0,0,0-.88,2.09C53,105.59,50,104.33,49.8,102.27Z" fill="#260617"/><path d="M103.9,102.26c2.64,2,3.9,3.76,3.9,4.48s-1.26,2.46-3.91,4.48a11.42,11.42,0,0,0,0-9Z" fill="#260617"/><path d="M48.39,103.55a17.39,17.39,0,0,1,1.41-1.28c.21,2.06,3.23,3.33,6.88,2a9,9,0,0,0-.37,2.47,9.26,9.26,0,0,0,.36,2.46c-3.65-1.3-6.66,0-6.87,2A16.27,16.27,0,0,1,48.39,110a13.17,13.17,0,0,1-1.13-1.28,2.61,2.61,0,0,1,0-3.87,12,12,0,0,1,1.12-1.27Z" fill="#a9783f"/><path d="M49.8,111.24c.21-2.06,3.22-3.33,6.87-2h0a8.68,8.68,0,0,0,.88,2.09C52.56,115.53,49.8,111.24,49.8,111.24Z" fill="#260617"/><path d="M44,114.56c-.1-1.55,1.5-4.33,3.27-5.87A13.17,13.17,0,0,0,48.39,110c-2,1.4-4.16,5.32-4.16,5.32A1.34,1.34,0,0,1,44,114.56Z" fill="#260617"/><path d="M63.18,111a2.28,2.28,0,0,1,.65-.09h0a35.65,35.65,0,0,0,.55,4.33,10.67,10.67,0,0,1-1.81-.26c.12-1,.26-2,.43-3Z" fill="#f4ab37"/><path d="M63.84,110.93h0a1.51,1.51,0,0,1,.52.09,12.5,12.5,0,0,0,.92,1.48c.27.4.62.87,1,1.4q.43.56,1,1.21h-.06a13.89,13.89,0,0,1-2.86.15A35.65,35.65,0,0,1,63.84,110.93Z" fill="#f4ab37"/><path d="M62.15,112l.45-.74a2.48,2.48,0,0,1,.59-.22L63,112h0c-.08.14-.68,1.1-1.57,2.64a4.33,4.33,0,0,1-.66-.3C61.36,113.33,61.83,112.52,62.15,112Z" fill="#f4ab37"/><path d="M63,112h0c-.17,1-.31,2-.43,3a7.7,7.7,0,0,1-1.15-.36C62.33,113.1,62.92,112.15,63,112Z" fill="#f4ab37"/><path d="M58.72,112.85a6.79,6.79,0,0,0,1.16,1,39.72,39.72,0,0,0-5,5.36c-1.22,1.86-2.16,2.38-3.3,1a5.52,5.52,0,0,1-.4-.51C49.8,117.75,56.61,115,58.72,112.85Z" fill="#321029"/><path d="M44,114.56a1.34,1.34,0,0,0,.24.73,20.64,20.64,0,0,0-8.75,9.3l-.12.28c-1-.1-1.44-1.13,1.24-4.65A22.17,22.17,0,0,1,44,114.56Z" fill="#44323c"/><g clip-path="url(#clip-path)"><path d="M87,126.63c-12.26-.39-22-7.75-21.68-16.42S75.78,94.82,88,95.22s22,7.74,21.68,16.41S99.27,127,87,126.63Z" fill="url(#radial-gradient-2)" style="mix-blend-mode:screen"/><path d="M63.44,117.77c-6-.19-10.75-3.79-10.61-8s5.11-7.53,11.12-7.34,10.75,3.79,10.61,8S69.44,118,63.44,117.77Z" fill="url(#radial-gradient-3)" style="mix-blend-mode:screen"/></g><g clip-path="url(#clip-path-2)"><ellipse cx="57.8" cy="110.51" rx="7.69" ry="10.87" transform="translate(-52.13 51.62) rotate(-34.21)" fill="url(#radial-gradient-4)" style="mix-blend-mode:screen"/><ellipse cx="57.64" cy="102.03" rx="7.69" ry="10.87" transform="translate(-47.39 50.06) rotate(-34.21)" fill="url(#radial-gradient-5)" style="mix-blend-mode:screen"/></g><path d="M87.18,128.22a2.69,2.69,0,0,0-.37-2.58,5.24,5.24,0,0,0-1-.93c-.35-.25-.81-.54-1.19-.84-.74-.64-1.47-1.28-2.14-2a23.8,23.8,0,0,1-1.91-2.19l0,0c1.38,1.34,2.79,2.66,4.28,3.87.37.31.77.57,1.16.86a4.58,4.58,0,0,1,1,1,2.66,2.66,0,0,1,.46,1.37,3.09,3.09,0,0,1-.32,1.41Z" fill="#5c2312"/><path d="M79.64,120.32a33.06,33.06,0,0,1,4,4.78c.58.83,1.19,1.67,1.73,2.52a4.48,4.48,0,0,0,.86,1.05c.12.1.2.17.4.06a2.94,2.94,0,0,0,.54-.5l.07,0a2.42,2.42,0,0,1-.43.66.65.65,0,0,1-.76.15,4,4,0,0,1-1.18-1c-.67-.79-1.31-1.61-1.92-2.45-1.19-1.7-2.31-3.44-3.38-5.22Z" fill="#5a2835"/><path d="M87.23,128.21c.65.62,1.27,1.26,2,1.82a20.76,20.76,0,0,0,2,1.66,9.09,9.09,0,0,0,2.11,1.21c.82.2.76.11,1.29-.73a1.62,1.62,0,0,0,.31-.8c0-.13-.1-.3-.42-.48a4.7,4.7,0,0,0-1.1-.4,8.7,8.7,0,0,1-1.32-.45,12.87,12.87,0,0,1-4.59-2.93l.06-.06a10.39,10.39,0,0,0,2.27,1.38,21.77,21.77,0,0,0,2.47,1,25.7,25.7,0,0,1,2.56.8,1.42,1.42,0,0,1,.85,1,2.24,2.24,0,0,1-.38,1.31,6.48,6.48,0,0,1-.38.56,1.42,1.42,0,0,1-.51.48,1.75,1.75,0,0,1-1.36,0,8.1,8.1,0,0,1-2.27-1.43,22.74,22.74,0,0,1-3.63-3.93Z" fill="#7a3a4e"/><path d="M87.23,85.26a3.09,3.09,0,0,1,.32,1.4A2.66,2.66,0,0,1,87.09,88a4.58,4.58,0,0,1-1,1c-.39.29-.79.55-1.16.86-1.5,1.21-2.9,2.54-4.28,3.87l0,0a23.82,23.82,0,0,1,1.91-2.19c.67-.7,1.4-1.34,2.14-2,.38-.3.83-.59,1.19-.84a5.25,5.25,0,0,0,1-.93,2.69,2.69,0,0,0,.37-2.58Z" fill="#5c2312"/><path d="M79.58,93.15c1.08-1.77,2.19-3.52,3.39-5.22.61-.84,1.25-1.66,1.92-2.45a4.06,4.06,0,0,1,1.18-1,.65.65,0,0,1,.76.15,2.41,2.41,0,0,1,.43.66l-.07,0a2.93,2.93,0,0,0-.54-.5c-.2-.11-.28,0-.4.06a4.49,4.49,0,0,0-.86,1.05c-.54.85-1.16,1.68-1.73,2.52a33.1,33.1,0,0,1-4,4.78Z" fill="#5a2835"/><path d="M87.18,85.24a22.77,22.77,0,0,1,3.63-3.93,8.11,8.11,0,0,1,2.27-1.43,1.75,1.75,0,0,1,1.36,0,1.42,1.42,0,0,1,.51.48,6.47,6.47,0,0,1,.38.56,2.23,2.23,0,0,1,.38,1.31,1.42,1.42,0,0,1-.85,1,25.7,25.7,0,0,1-2.56.8,21.78,21.78,0,0,0-2.47,1,10.4,10.4,0,0,0-2.27,1.38l-.06-.06a12.89,12.89,0,0,1,4.59-2.93A8.71,8.71,0,0,1,93.4,83a4.7,4.7,0,0,0,1.1-.41c.32-.18.43-.35.42-.48a1.61,1.61,0,0,0-.31-.8c-.53-.84-.47-.93-1.29-.73a9.1,9.1,0,0,0-2.11,1.22,20.79,20.79,0,0,0-2,1.66c-.68.57-1.3,1.2-2,1.82Z" fill="#7a3a4e"/><path d="M80.41,92.89a1.1,1.1,0,0,1,.25.91,5.81,5.81,0,0,1-.14,1,14.44,14.44,0,0,1-.61,1.83l0,0a5.18,5.18,0,0,1,.07-1c0-.32.13-.62.18-.92s.15-.59.23-.88a2.24,2.24,0,0,0,.08-.43.65.65,0,0,0,0-.44Z" fill="#5c2312"/><path d="M75.84,101a19.27,19.27,0,0,1,1.48-4.62,15,15,0,0,1,1.23-2.1,7.55,7.55,0,0,1,.78-.94,2.89,2.89,0,0,1,.48-.39.58.58,0,0,1,.61-.09l0,.07c-.18,0-.29.13-.41.26a3.71,3.71,0,0,0-.32.46c-.2.32-.38.67-.56,1-.35.69-.7,1.38-1,2.08l-1,2.11c-.35.71-.69,1.43-1.13,2.17Z" fill="#5a2835"/><path d="M95.41,90.14a6.55,6.55,0,0,1,.73,1.43,2.43,2.43,0,0,1,.12,1.59,1,1,0,0,1-.56.58,4.5,4.5,0,0,1-.78.2l-1.58.3L87,95.33v0l1.55-.44,1.56-.37c1-.24,2.1-.42,3.14-.65l1.58-.27a4.62,4.62,0,0,0,.71-.16A.78.78,0,0,0,96,93a2.17,2.17,0,0,0,0-1.4,6.39,6.39,0,0,0-.56-1.48Z" fill="#5c2312"/><path d="M81.64,95.83c2.19-1.26,4.4-2.48,6.67-3.6,1.14-.55,2.29-1.07,3.47-1.54a18,18,0,0,1,1.8-.61,6.05,6.05,0,0,1,.94-.18,1,1,0,0,1,.92.23l-.07,0c-.23-.17-.54-.07-.82,0a6,6,0,0,0-.85.33c-.57.23-1.13.5-1.68.79-1.1.58-2.22,1.12-3.34,1.68a51.45,51.45,0,0,1-7,2.93Z" fill="#5a2835"/><path d="M107.44,86.84a19.72,19.72,0,0,1,.82,1.88,5.29,5.29,0,0,1,.26,1,1.56,1.56,0,0,1-.16,1.07,1,1,0,0,1-.45.36,4.82,4.82,0,0,1-.5.16c-.33.09-.67.16-1,.23q-1,.21-2,.36c-1.36.18-2.72.3-4.09.35A18.19,18.19,0,0,1,96.2,92l0-.16c1.42-.32,2.7-.62,4-.87.65-.16,1.3-.23,2-.37l2-.31c.65-.07,1.31-.17,2-.25l.95-.11.2,0,.11,0h0a.72.72,0,0,0-.11.2c0,.19.1,0,.13-.2a3.54,3.54,0,0,0,0-.87c0-.65-.14-1.35-.14-2.09Z" fill="#7a3a4e"/><path d="M95.89,91a1.25,1.25,0,0,0,.66-.4,6.38,6.38,0,0,0,.41-.69,3.24,3.24,0,0,1,1.18-1.13,23.11,23.11,0,0,1,3-1.28,27.93,27.93,0,0,1,3.13-.92,10.14,10.14,0,0,1,1.62-.24,3.46,3.46,0,0,1,.82,0,.91.91,0,0,1,.69.45l-.07,0c-.38-.34-.92-.2-1.41-.09a10.76,10.76,0,0,0-1.5.43c-1,.36-2,.7-3,1.07l-1.51.53-.76.26-.69.27a3.18,3.18,0,0,0-1.14.79c-.17.17-.33.42-.57.64a1.22,1.22,0,0,1-.85.3Z" fill="#6a3526"/><path d="M80.38,120.58a.65.65,0,0,0,0-.44,2.24,2.24,0,0,0-.08-.43c-.07-.29-.13-.59-.22-.88s-.13-.61-.18-.92a5.18,5.18,0,0,1-.07-1l0,0a14.42,14.42,0,0,1,.6,1.83,5.8,5.8,0,0,1,.14,1,1.1,1.1,0,0,1-.25.91Z" fill="#5c2312"/><path d="M75.91,112.48c.44.74.79,1.45,1.13,2.17l1,2.11c.32.7.67,1.39,1,2.08.18.34.36.68.56,1a3.69,3.69,0,0,0,.32.46c.12.13.23.28.41.26l0,.07a.58.58,0,0,1-.61-.09,2.89,2.89,0,0,1-.48-.39,7.55,7.55,0,0,1-.78-.94,14.94,14.94,0,0,1-1.23-2.1,19.26,19.26,0,0,1-1.48-4.62Z" fill="#5a2835"/><path d="M95.37,123.33a6.4,6.4,0,0,0,.56-1.48,2.17,2.17,0,0,0,0-1.4.78.78,0,0,0-.41-.37,4.62,4.62,0,0,0-.71-.16l-1.58-.27c-1-.22-2.1-.4-3.14-.64l-1.56-.37L87,118.21v0l6.32,1.09,1.58.3a4.5,4.5,0,0,1,.78.2,1,1,0,0,1,.56.58,2.43,2.43,0,0,1-.12,1.59,6.55,6.55,0,0,1-.73,1.43Z" fill="#5c2312"/><path d="M81.68,117.6a51.38,51.38,0,0,1,7,2.93c1.12.56,2.24,1.1,3.34,1.68.55.29,1.11.55,1.68.79a6,6,0,0,0,.85.33c.28.06.59.16.82,0l.07,0a1,1,0,0,1-.92.24,6.06,6.06,0,0,1-.94-.18,17.94,17.94,0,0,1-1.8-.61c-1.18-.46-2.33-1-3.47-1.54-2.26-1.12-4.48-2.34-6.67-3.6Z" fill="#5a2835"/><path d="M107.32,126.59c.14-.68.37-1.33.47-2a4.72,4.72,0,0,0,.11-.93c0-.29-.06-.54-.14-.59a.32.32,0,0,0-.14-.05l-.2,0-.22,0c-.32-.06-.64-.12-1-.17-.66-.11-1.32-.21-2-.3-1.32-.21-2.66-.36-4-.54-.67-.09-1.33-.16-2-.2s-1.34-.09-2-.12l0-.08a18.16,18.16,0,0,1,4.08-.24c1.36.05,2.72.18,4.08.36.68.1,1.35.21,2,.35.33.07.67.14,1,.23a1.45,1.45,0,0,1,.92.48,1.51,1.51,0,0,1,.16,1,5.21,5.21,0,0,1-.25,1,19.51,19.51,0,0,1-.81,1.88Z" fill="#6a3526"/><path d="M95.92,122.35a1.26,1.26,0,0,1,1,.19c.33.23.52.47.72.59a3.52,3.52,0,0,0,1.11.49l.64.17.76.21,1.49.49,1.45.56c.47.22,1,.39,1.42.62s.93.44,1.39.63a5.49,5.49,0,0,0,.67.27.82.82,0,0,0,.68,0l.15.07a1,1,0,0,1-.72.48,3.51,3.51,0,0,1-.83.05,10.25,10.25,0,0,1-1.63-.23,28,28,0,0,1-3.14-.9,23,23,0,0,1-3-1.3,3.29,3.29,0,0,1-1.2-1.15,6.66,6.66,0,0,0-.4-.69,1.2,1.2,0,0,0-.64-.39Z" fill="#7a3a4e"/><path d="M75.53,111.22a13.36,13.36,0,0,0,1.24,2.07,7.77,7.77,0,0,0,1.63,1.61,9.46,9.46,0,0,0,4,1.74,15.72,15.72,0,0,0,4.48.14,23,23,0,0,0,4.51-.88,34.94,34.94,0,0,0,4.43-1.58c1.48-.58,2.91-1.28,4.33-2a40.44,40.44,0,0,0,4.12-2.4,17.4,17.4,0,0,0,1.93-1.41,9.68,9.68,0,0,0,.86-.82,2.43,2.43,0,0,0,.64-1h.16a2.51,2.51,0,0,1-.49,1.16,9.36,9.36,0,0,1-.77,1,18,18,0,0,1-1.78,1.71,30.45,30.45,0,0,1-4,2.85,42.78,42.78,0,0,1-4.36,2.29,33.79,33.79,0,0,1-4.61,1.75,18.86,18.86,0,0,1-9.78.41,9.68,9.68,0,0,1-4.3-2.37,9.2,9.2,0,0,1-2.42-4.26Z" fill="#efac3f"/><path d="M75.33,102.23a9.27,9.27,0,0,1,2.42-4.29,9.75,9.75,0,0,1,4.33-2.4,18.92,18.92,0,0,1,9.82.39,33.87,33.87,0,0,1,4.62,1.76,42.78,42.78,0,0,1,4.36,2.3,30.45,30.45,0,0,1,4,2.86,17.86,17.86,0,0,1,1.78,1.72,9.41,9.41,0,0,1,.77,1,2.55,2.55,0,0,1,.5,1.19h-.25a2.49,2.49,0,0,0-.72-.87,9.91,9.91,0,0,0-.92-.74,21.94,21.94,0,0,0-2-1.28c-1.35-.82-2.76-1.51-4.17-2.19s-2.85-1.3-4.32-1.84a35.51,35.51,0,0,0-4.34-1.5,22.94,22.94,0,0,0-4.35-.89,16.26,16.26,0,0,0-4.28,0,9.46,9.46,0,0,0-3.91,1.45,10.15,10.15,0,0,0-3.1,3.42Z" fill="#eea835"/><path d="M80.34,96.41A7,7,0,0,0,79,98.75a16.67,16.67,0,0,0-.69,2.61,30.41,30.41,0,0,0,0,10.78,16.56,16.56,0,0,0,.69,2.61,7,7,0,0,0,1.31,2.34l-.06.06a6.51,6.51,0,0,1-1.66-2.24,16.7,16.7,0,0,1-.91-2.64,27.24,27.24,0,0,1-.68-5.51,27.2,27.2,0,0,1,.68-5.51,16.8,16.8,0,0,1,.91-2.65,6.51,6.51,0,0,1,1.66-2.24Z" fill="#f9af38"/><path d="M84.48,95.36A5.56,5.56,0,0,0,83,97.9a21,21,0,0,0-.71,2.9,31.71,31.71,0,0,0,0,11.9,20.9,20.9,0,0,0,.71,2.9,5.56,5.56,0,0,0,1.47,2.54l0,.07a3.32,3.32,0,0,1-1.09-1.1,9.92,9.92,0,0,1-.74-1.36,20.8,20.8,0,0,1-.93-2.92,22.81,22.81,0,0,1-.52-3c-.12-1-.21-2-.24-3.06s.12-2,.24-3.06a23,23,0,0,1,.52-3,21.06,21.06,0,0,1,.93-2.92,9.86,9.86,0,0,1,.74-1.36,3.32,3.32,0,0,1,1.09-1.1Z" fill="#5a2835"/><path d="M84.51,95.39a6.85,6.85,0,0,0-.81,2.74c-.15.94-.21,1.91-.3,2.87s-.15,1.93-.17,2.89-.11,1.93-.09,2.85,0,1.89.09,2.85.12,1.93.17,2.9.15,1.93.3,2.87a6.88,6.88,0,0,0,.81,2.74l-.1.13a5.68,5.68,0,0,1-1.54-2.59,21.24,21.24,0,0,1-.75-2.92,36.43,36.43,0,0,1-.63-6,36.36,36.36,0,0,1,.63-6,21.14,21.14,0,0,1,.75-2.92,5.69,5.69,0,0,1,1.54-2.59Z" fill="#f9af38"/><path d="M89.06,95.49a8.24,8.24,0,0,1,1.08,2.69c.24.93.42,1.88.58,2.83a39.18,39.18,0,0,1,.51,5.75,39.4,39.4,0,0,1-.51,5.75c-.15.95-.34,1.89-.58,2.83A8.23,8.23,0,0,1,89,118l-.13-.1a12.58,12.58,0,0,0,.37-2.8c.07-.94.09-1.88.14-2.81s.09-1.87.1-2.8.07-1.84,0-2.75,0-1.83-.05-2.75-.08-1.86-.1-2.8-.07-1.88-.14-2.81a12.42,12.42,0,0,0-.36-2.8Z" fill="#af6d04"/><path d="M93.19,96.56a7.38,7.38,0,0,1,1.13,2.37,20.31,20.31,0,0,1,.58,2.57,31.32,31.32,0,0,1,0,10.49,20.32,20.32,0,0,1-.58,2.57,7.38,7.38,0,0,1-1.13,2.38l-.06-.05a8.28,8.28,0,0,0,.78-2.45,21,21,0,0,0,.36-2.54,52.72,52.72,0,0,0,0-10.28,20.67,20.67,0,0,0-.36-2.54,8.25,8.25,0,0,0-.77-2.45Z" fill="#5a2835"/><path d="M97.17,98.19a10.75,10.75,0,0,1,2,4.05,17,17,0,0,1,0,9,10.81,10.81,0,0,1-2,4.06l-.09-.05a16.35,16.35,0,0,0,1.29-4.16,26,26,0,0,0,0-8.7,16.35,16.35,0,0,0-1.29-4.16Z" fill="#af6d04"/><path d="M100.71,100.06a8.8,8.8,0,0,1,1.22,3.23,18.68,18.68,0,0,1,0,6.9,8.8,8.8,0,0,1-1.22,3.23l-.06-.05a8.31,8.31,0,0,0,.42-1.65,12.43,12.43,0,0,0,.23-1.65c.08-1.11.14-2.21.13-3.33s0-2.22-.14-3.33c-.06-.55-.12-1.11-.22-1.65a8.28,8.28,0,0,0-.42-1.65Z" fill="#5a2835"/><path d="M93.21,96.55a6.5,6.5,0,0,1,1.61,2.24,14.81,14.81,0,0,1,.89,2.59,22.06,22.06,0,0,1,0,10.75,14.85,14.85,0,0,1-.89,2.59,6.51,6.51,0,0,1-1.61,2.24l-.1-.08a7.29,7.29,0,0,0,1.09-2.35,20.11,20.11,0,0,0,.55-2.56,35.15,35.15,0,0,0,0-10.44A20.24,20.24,0,0,0,94.19,99a7.25,7.25,0,0,0-1.09-2.35Z" fill="#f9af38"/><path d="M100.72,100a6,6,0,0,1,2,3.09,12.13,12.13,0,0,1,0,7.21,6.06,6.06,0,0,1-2,3.09l-.1-.08a8.72,8.72,0,0,0,1.15-3.2,22,22,0,0,0,0-6.84,8.69,8.69,0,0,0-1.15-3.2Z" fill="#f9af38"/><path d="M104,102.23a4.77,4.77,0,0,1,1.39,2.07,7,7,0,0,1,0,4.88,4.81,4.81,0,0,1-1.39,2.07l-.1,0a12.1,12.1,0,0,0,0-8.93Z" fill="#af6d04"/><path d="M75.84,100.79a9.65,9.65,0,0,1,1.63,1.88,7.17,7.17,0,0,1,0,8.17,9.57,9.57,0,0,1-1.6,1.85l-.51-1.55a6.41,6.41,0,0,0,0-8.84Z" fill="#c9b472" style="mix-blend-mode:multiply"/><path d="M67.26,98.37a15.13,15.13,0,0,1,6.62,2.42,6.91,6.91,0,0,1,0,11.94,15.14,15.14,0,0,1-6.62,2.42v0a18.91,18.91,0,0,0,3.39-1,12.19,12.19,0,0,0,3-1.65A8.8,8.8,0,0,0,76,109.94a6,6,0,0,0,0-6.38A8.76,8.76,0,0,0,73.69,101a12.12,12.12,0,0,0-3-1.65,18.89,18.89,0,0,0-3.39-1Z" fill="#5a2835"/><path d="M49.86,102.34a18.72,18.72,0,0,1-1.25,2.7c-.19.41-.4.77-.53,1.11a1.88,1.88,0,0,0-.19.62,1.81,1.81,0,0,0,.19.62c.14.33.34.7.53,1.11a19,19,0,0,1,1.25,2.69l-.1.13a14.7,14.7,0,0,1-2.14-2,8.29,8.29,0,0,1-.89-1.17,2.29,2.29,0,0,1,0-2.85,8.33,8.33,0,0,1,.89-1.17,14.74,14.74,0,0,1,2.14-2Z" fill="#cc9a69"/><path d="M49.84,111.22a4.71,4.71,0,0,0,1.67,1.43,4,4,0,0,0,2.14.42,7.12,7.12,0,0,0,4-1.87l.05.06A5.09,5.09,0,0,1,56.07,113a4.8,4.8,0,0,1-2.36.86,4,4,0,0,1-2.5-.67,3.47,3.47,0,0,1-1.44-2Z" fill="#633d3d"/><path d="M49.77,111.24a2.49,2.49,0,0,1,1-1.74,4.43,4.43,0,0,1,1.89-.8,8,8,0,0,1,4,.48l0,.08c-.73,0-1.39,0-2,.07a13.66,13.66,0,0,0-1.83.19,6,6,0,0,0-1.64.5,3,3,0,0,0-1.33,1.23Z" fill="#442424"/><path d="M49.77,102.25a3.47,3.47,0,0,1,1.44-2,4,4,0,0,1,2.5-.67,4.8,4.8,0,0,1,2.36.86,5.08,5.08,0,0,1,1.6,1.76l-.05.06a7.11,7.11,0,0,0-4-1.86,4,4,0,0,0-2.14.42,4.72,4.72,0,0,0-1.67,1.43Z" fill="#633d3d"/><path d="M49.85,102.27a3,3,0,0,0,1.33,1.23,6,6,0,0,0,1.64.5,13.66,13.66,0,0,0,1.83.19c.64,0,1.3,0,2,.07l0,.08a8,8,0,0,1-4,.48,4.43,4.43,0,0,1-1.89-.8,2.49,2.49,0,0,1-1-1.74Z" fill="#442424"/><path d="M50.36,110.61c-.54.51,1.1,2.13,1.66,1.86S50.91,110.1,50.36,110.61Z" fill="#fff"/><path d="M50.52,102.85c-.28.43,1.06,1.23,1.39,1S50.79,102.42,50.52,102.85Z" fill="#fff"/><path d="M62.19,101.56a4.44,4.44,0,0,0-2.41,2.07,6.72,6.72,0,0,0,0,6.25A4.43,4.43,0,0,0,62.19,112l0,.08a3.43,3.43,0,0,1-1.66-.56,5.39,5.39,0,0,1-1.29-1.27,5.93,5.93,0,0,1-1-3.45,6,6,0,0,1,1-3.45,4,4,0,0,1,3-1.82Z" fill="#af6d04"/><path d="M62.21,101.6a6.52,6.52,0,0,0-1.46,2.59,7.88,7.88,0,0,0-.26,1.27,6.82,6.82,0,0,0-.08,1.3v.35c0,.09,0,.2,0,.31s.05.43.07.64a8,8,0,0,0,.26,1.27,6.49,6.49,0,0,0,1.46,2.59l0,.16a4.58,4.58,0,0,1-2.54-2.1,6.47,6.47,0,0,1,0-6.43,4.58,4.58,0,0,1,2.54-2.1Z" fill="#7f4c36"/><path d="M65.28,100.93a3.58,3.58,0,0,1,2.42-.1,5.67,5.67,0,0,1,2.2,1.24,6.49,6.49,0,0,1,1.55,2.07,6.65,6.65,0,0,1,.6,2.66l0,.27,0,.37c0,.24-.07.45-.12.67a5.89,5.89,0,0,1-.43,1.27,6.48,6.48,0,0,1-1.55,2.07,5.67,5.67,0,0,1-2.2,1.24,3.59,3.59,0,0,1-2.42-.1v-.17a4.82,4.82,0,0,0,3.64-1.83,5.71,5.71,0,0,0,0-7.66,4.81,4.81,0,0,0-3.64-1.83Z" fill="#af6d04"/><path d="M51.18,119.69a4.25,4.25,0,0,0,1.22.79c.4.12.58,0,.87-.3a6.63,6.63,0,0,0,.8-1.09,12.65,12.65,0,0,1,.91-1.31,16.7,16.7,0,0,1,2.25-2.22,13.82,13.82,0,0,1,2.62-1.75l.05.06a45.68,45.68,0,0,0-4.28,4.42,17.43,17.43,0,0,1-2,2.4A1.57,1.57,0,0,1,53,121a1.17,1.17,0,0,1-.77-.17,3.7,3.7,0,0,1-1.07-1.12Z" fill="#5a2835"/><path d="M58.74,112.87a9.53,9.53,0,0,1-2,1.84c-.73.54-1.49,1-2.23,1.51s-1.5,1-2.2,1.47a4.63,4.63,0,0,0-.93.87,1,1,0,0,0-.21,1.15l0,0a1.12,1.12,0,0,1,.06-1.28,4.71,4.71,0,0,1,.91-1,20.52,20.52,0,0,1,2.18-1.57l2.28-1.43a14.13,14.13,0,0,0,2.15-1.6Z" fill="#5c2312"/><path d="M51.16,119.75A20.93,20.93,0,0,1,48.83,121a7.94,7.94,0,0,1-2.69.64,12,12,0,0,1-1.29-.05,1.92,1.92,0,0,0-.92.27,1.83,1.83,0,0,0-.66.65c-.15.26-.11.45-.08.45s0,0,0,.06l.07,0h0a2.12,2.12,0,0,0,.47.11,6.13,6.13,0,0,0,1.17,0,13.43,13.43,0,0,0,2.42-.4,8.18,8.18,0,0,0,2.27-.94,5.43,5.43,0,0,0,1.85-1.69l.08,0a6.54,6.54,0,0,1-4,3.2A10.65,10.65,0,0,1,45,124a7,7,0,0,1-1.32,0,1.59,1.59,0,0,1-1.21-.55,1.22,1.22,0,0,1,.09-1.32,2.61,2.61,0,0,1,1-.9,2.65,2.65,0,0,1,1.29-.33c.45,0,.86.13,1.3.13a12.91,12.91,0,0,0,5-1.33Z" fill="#5a2835"/><path d="M59.62,114.08a6.28,6.28,0,0,1-1.36-.81l.53-.45a7.53,7.53,0,0,0,1.15,1Z" fill="#c9b472" style="mix-blend-mode:multiply"/><path d="M57.1,112.13q-.2-.25-.38-.51a8.5,8.5,0,0,1,0-9.73q.17-.25.36-.49l.55.86-.06.11a9,9,0,0,0,0,8.78l.06.11Z" fill="#c9b472" style="mix-blend-mode:multiply"/><path d="M60,99.7a7.54,7.54,0,0,0-1.18,1l-.52-.47a6.24,6.24,0,0,1,1.36-.8Z" fill="#c9b472" style="mix-blend-mode:multiply"/><path d="M60.8,99.18A9.08,9.08,0,0,0,58,102.61a10.18,10.18,0,0,0-1,4.15,10.37,10.37,0,0,0,.94,4.15,7.76,7.76,0,0,0,1.16,1.85,8.75,8.75,0,0,0,1.63,1.57l0,.07a7.75,7.75,0,0,1-3.31-3.18,8.83,8.83,0,0,1,0-8.93,7.76,7.76,0,0,1,3.32-3.18Z" fill="#f9af38"/><path d="M51.14,93.8a3.69,3.69,0,0,1,1.07-1.11,1.15,1.15,0,0,1,.76-.16,1.54,1.54,0,0,1,.7.33,17.34,17.34,0,0,1,1.94,2.4,45.67,45.67,0,0,0,4.3,4.41l0,0a22.79,22.79,0,0,1-2.42-1.94,25.73,25.73,0,0,1-2.17-2.24,22,22,0,0,0-1.81-2.41,1,1,0,0,0-1.15-.23,3.87,3.87,0,0,0-1.14.95Z" fill="#5c2312"/><path d="M58.7,100.69a14.12,14.12,0,0,0-2.15-1.59l-2.28-1.42a20.65,20.65,0,0,1-2.18-1.58,4.74,4.74,0,0,1-.91-1,1.14,1.14,0,0,1-.06-1.31l.07,0a1,1,0,0,0,.36,1,6.6,6.6,0,0,0,1,.74c.71.46,1.45.91,2.2,1.38a24,24,0,0,1,2.19,1.57,7.22,7.22,0,0,1,1.86,2.07Z" fill="#5a2835"/><path d="M51.14,93.85a12.91,12.91,0,0,0-5-1.33c-.43,0-.85.11-1.3.13a2.65,2.65,0,0,1-1.29-.33,2.6,2.6,0,0,1-1-.9,1.22,1.22,0,0,1-.09-1.32,1.59,1.59,0,0,1,1.21-.55,7,7,0,0,1,1.32,0,10.65,10.65,0,0,1,2.56.54,6.53,6.53,0,0,1,4,3.2l-.08,0a5.42,5.42,0,0,0-1.85-1.69,8.17,8.17,0,0,0-2.27-.94,13.43,13.43,0,0,0-2.42-.4,6.13,6.13,0,0,0-1.17,0,2.13,2.13,0,0,0-.47.11h0l-.07,0s0,0,0,.06-.07.19.08.45a1.83,1.83,0,0,0,.66.65,1.92,1.92,0,0,0,.92.27,12,12,0,0,1,1.29-.05,7.93,7.93,0,0,1,2.69.64,20.9,20.9,0,0,1,2.34,1.26Z" fill="#5a2835"/><path d="M66.32,99.57a8.09,8.09,0,0,1,3.14.23,10.57,10.57,0,0,1,2.9,1.37,8.35,8.35,0,0,1,2.31,2.33,6.12,6.12,0,0,1,1.1,3.28,6.21,6.21,0,0,1-1.1,3.22,8.33,8.33,0,0,1-2.31,2.33,10.55,10.55,0,0,1-2.9,1.37,8.1,8.1,0,0,1-3.14.24v-.08a9.58,9.58,0,0,0,5.65-2A8.79,8.79,0,0,0,74,109.6a4.93,4.93,0,0,0,0-5.7A8.77,8.77,0,0,0,72,101.68a9.56,9.56,0,0,0-5.65-2Z" fill="#5a2835"/><path d="M49.8,151.48a2.58,2.58,0,0,0,1.34-.05,10.3,10.3,0,0,0,1.3-.41,18.22,18.22,0,0,0,2.48-1.16,22.9,22.9,0,0,0,4.43-3.18,18.59,18.59,0,0,0,3.48-4.19,12.66,12.66,0,0,0,1.75-5.15v0l0,0A6.13,6.13,0,0,0,67,135.4a9.06,9.06,0,0,0,1.45-2.7,16.86,16.86,0,0,0,.75-6.08v-.06l0-.06a10.06,10.06,0,0,0,1.61-4.1,5.72,5.72,0,0,0-1-4.17c-.42-.59-1-1.11-1.49-1.69s-1-1.14-1.48-1.73A22.39,22.39,0,0,1,64.34,111l0,0a27.2,27.2,0,0,0,2.7,3.64q.74.86,1.52,1.68c.51.56,1.09,1,1.57,1.67a5.92,5.92,0,0,1,1.12,4.44,9.84,9.84,0,0,1-1.71,4.29l0-.13a16.18,16.18,0,0,1-.89,6.19,9.61,9.61,0,0,1-1.55,2.73,6.28,6.28,0,0,1-2.49,1.89l0-.06a14.7,14.7,0,0,1-1.7,5.24,16.78,16.78,0,0,1-3.43,4.34,21.61,21.61,0,0,1-4.54,3.17,18.38,18.38,0,0,1-2.55,1.09,10.05,10.05,0,0,1-1.35.34,2.65,2.65,0,0,1-1.38,0Z" fill="#c7bdb4"/><path d="M62.62,111.25c-1.9,3.17-3.71,6.41-5.44,9.68s-3.37,6.59-4.87,10a72.59,72.59,0,0,0-3.84,10.4,22.63,22.63,0,0,0-.87,5.46,7.63,7.63,0,0,0,.41,2.72,3.51,3.51,0,0,0,1.79,2l0,0a3.59,3.59,0,0,1-1.89-2,7.79,7.79,0,0,1-.51-2.77,22.76,22.76,0,0,1,.77-5.54,69.48,69.48,0,0,1,3.78-10.48q2.3-5.07,5-10,1.34-2.43,2.75-4.83c1-1.59,1.93-3.16,2.94-4.72Z" fill="#c1bbac"/><path d="M64.66,137.36a26.45,26.45,0,0,1-1.12-3.15q-.42-1.62-.71-3.27a51,51,0,0,1-.72-6.64,57.61,57.61,0,0,1,.11-6.68c.08-1.11.19-2.22.34-3.32s.38-2.19.61-3.28q-.25,1.65-.41,3.31c-.14,1.1-.26,2.2-.34,3.31a57.39,57.39,0,0,0-.11,6.65,50.78,50.78,0,0,0,.71,6.61c.19,1.09.43,2.18.7,3.25A26.84,26.84,0,0,0,64.66,137.36Z" fill="#afa194"/><path d="M69.41,126.62A13.18,13.18,0,0,1,68,125c-.39-.59-.75-1.21-1.07-1.83a26.34,26.34,0,0,1-1.65-3.91,31.22,31.22,0,0,1-1.05-4.11q-.19-1-.32-2.1t-.1-2.12q.12,1.05.3,2.09t.32,2.08a31,31,0,0,0,1,4.08,26.11,26.11,0,0,0,1.63,3.88,20.87,20.87,0,0,0,1.07,1.81A13.44,13.44,0,0,0,69.41,126.62Z" fill="#afa194"/><path d="M65.09,118.18c0,.58.09,1.15.16,1.73s.1,1.15.18,1.72a25.73,25.73,0,0,0,.7,3.39,20.6,20.6,0,0,0,1.19,3.24,16.75,16.75,0,0,0,.81,1.52,15,15,0,0,0,.89,1.49A15.32,15.32,0,0,1,68,129.88a17,17,0,0,1-.82-1.54,20.85,20.85,0,0,1-1.2-3.27,25.92,25.92,0,0,1-.7-3.41q-.12-.86-.18-1.73C65,119.34,65.05,118.75,65.09,118.18Z" fill="#afa194"/><path d="M62.43,127.14c.31.19.6.39.89.59l.82.69q.81.7,1.59,1.44c.52.49,1,1,1.5,1.53.24.27.47.54.69.82a6.88,6.88,0,0,1,.51,1,6.71,6.71,0,0,0-.68-.82c-.22-.28-.44-.55-.68-.81-.47-.53-1-1-1.49-1.52s-1-1-1.58-1.43l-.81-.69Z" fill="#afa194"/><path d="M64.76,116.92c.33.16.65.34,1,.52l.88.65q.87.66,1.68,1.4a17.74,17.74,0,0,1,1.53,1.57c.24.28.46.57.68.87a9.8,9.8,0,0,1,.49,1,9.56,9.56,0,0,0-.66-.87c-.21-.29-.43-.58-.66-.85a17.47,17.47,0,0,0-1.51-1.56q-.8-.73-1.67-1.39l-.88-.64Z" fill="#afa194"/><path d="M56.9,122.92a2.33,2.33,0,0,0,1.17,1,2.4,2.4,0,0,0,1.51.08,4.28,4.28,0,0,0,2.5-1.77l0,0h.06a1.88,1.88,0,0,0,1.29-.73,4.22,4.22,0,0,0,.73-1.39,8.63,8.63,0,0,0,.34-1.56,15.22,15.22,0,0,0,.22-1.6,15.35,15.35,0,0,1,0,1.62,8.84,8.84,0,0,1-.35,1.59,4.42,4.42,0,0,1-.77,1.46,2.06,2.06,0,0,1-1.45.8l.09-.05a4.09,4.09,0,0,1-1.14,1.18,4.43,4.43,0,0,1-1.49.69,2.61,2.61,0,0,1-1.64-.09A2.42,2.42,0,0,1,56.9,122.92Z" fill="#afa194"/><path d="M60.55,123.75c-.17,1.05-.22,2.12-.35,3.17S60,129,60,130.1a22.1,22.1,0,0,0,.65,6.3v0a6.89,6.89,0,0,0,.57,3.07,5,5,0,0,0,.88,1.29,3.66,3.66,0,0,0,1.32.85,3.73,3.73,0,0,1-1.42-.75,3.61,3.61,0,0,1-1-1.3,7.1,7.1,0,0,1-.59-3.17v0a22.3,22.3,0,0,1-.66-6.36c0-1.07.09-2.13.2-3.19A23.79,23.79,0,0,1,60.55,123.75Z" fill="#afa194"/><path d="M63.34,132.9a3.24,3.24,0,0,0-.48.33,3.67,3.67,0,0,0-.47.32,4.47,4.47,0,0,0-.78.83,5.57,5.57,0,0,0-.58,1c-.08.17-.15.35-.22.53s-.19.34-.28.52c0-.2,0-.39.08-.59s.14-.37.23-.55a5.77,5.77,0,0,1,.6-1,4.71,4.71,0,0,1,.82-.87,3.93,3.93,0,0,1,.49-.34A2.19,2.19,0,0,1,63.34,132.9Z" fill="#afa194"/><path d="M59.94,128.84a5.91,5.91,0,0,0-1.2.67,9,9,0,0,0-1,.87,4.87,4.87,0,0,0-1.29,2.34l0,.09h-.1a2.75,2.75,0,0,0-1.54.33,3.2,3.2,0,0,0-1.15,1.11,6.91,6.91,0,0,0-.9,3.13v.15l-.14-.07a2.18,2.18,0,0,0-1.12-.25,1.42,1.42,0,0,0-1,.6,1.49,1.49,0,0,1,1-.73,1.78,1.78,0,0,1,1.24.21l-.16.08a7.11,7.11,0,0,1,.93-3.22,3.4,3.4,0,0,1,1.23-1.18,2.94,2.94,0,0,1,1.67-.35l-.12.08a5.08,5.08,0,0,1,1.35-2.44,4.62,4.62,0,0,1,1.11-.86A6,6,0,0,1,59.94,128.84Z" fill="#afa194"/><path d="M60.13,134.43A6.7,6.7,0,0,1,59,136.5a3.09,3.09,0,0,1-.94.75,2.08,2.08,0,0,1-1.19.22l.11-.07a4.07,4.07,0,0,1-1.34,1.76,2.29,2.29,0,0,1-1.05.41,2.51,2.51,0,0,1-1.12-.14l.14-.09a6.6,6.6,0,0,1-.55,2.32,2.8,2.8,0,0,1-.72,1,1.83,1.83,0,0,1-1.15.42l.1-.1a8.75,8.75,0,0,1-.48,2.89A2.73,2.73,0,0,1,50,147a1.71,1.71,0,0,1-1.4.33,1.65,1.65,0,0,0,1.32-.42,3.25,3.25,0,0,0,.72-1.2,8.56,8.56,0,0,0,.46-2.82v-.1h.1a1.62,1.62,0,0,0,1-.37,2.59,2.59,0,0,0,.67-.9,6.39,6.39,0,0,0,.53-2.24v-.14l.13,0a2.12,2.12,0,0,0,2-.24,3.88,3.88,0,0,0,1.27-1.66l0-.07h.08a1.88,1.88,0,0,0,1.07-.19,3.17,3.17,0,0,0,.88-.7A6.6,6.6,0,0,0,60.13,134.43Z" fill="#afa194"/><path d="M57.85,123.93A15.15,15.15,0,0,0,57,126a19.72,19.72,0,0,0-.57,2.18,12.81,12.81,0,0,0-.22,2.24,9.63,9.63,0,0,0,.22,2.23v0a9,9,0,0,0-.13,2.36,4.61,4.61,0,0,0,.7,2.22l0,0,0,.06a8.07,8.07,0,0,0-.59,4.48l-.14-.08a1.33,1.33,0,0,1,.94.13,2.46,2.46,0,0,1,.72.57l-.09,0a8.18,8.18,0,0,1,2.41,0,3.91,3.91,0,0,1,2.18.94,3.83,3.83,0,0,0-2.2-.79,11.3,11.3,0,0,0-2.36.06h-.06l0,0a2.23,2.23,0,0,0-.66-.52,1.15,1.15,0,0,0-.78-.12l-.12,0,0-.11a8.26,8.26,0,0,1,.61-4.6v.1a4.8,4.8,0,0,1-.74-2.32,9.13,9.13,0,0,1,.13-2.42v0a9.8,9.8,0,0,1-.22-2.28,13.05,13.05,0,0,1,.23-2.27,10.68,10.68,0,0,1,.63-2.19A15.36,15.36,0,0,1,57.85,123.93Z" fill="#afa194"/><path d="M52.59,137.36c.08.06.14.13.21.2l.12.24.24.49.23.49.11.25,0,.29-.2-.21-.11-.25-.23-.49-.24-.49-.12-.24C52.61,137.55,52.59,137.46,52.59,137.36Z" fill="#afa194"/><path d="M49.8,139.79a11.29,11.29,0,0,0,.51,1.66,4.09,4.09,0,0,0,.94,1.4l0,0a8.7,8.7,0,0,0,2,.15,17.06,17.06,0,0,0,2-.16h.06a.41.41,0,0,0,.28-.09,1.72,1.72,0,0,0,.3-.23,3.79,3.79,0,0,0,.5-.62,3.87,3.87,0,0,1-.39.72,1.34,1.34,0,0,1-.29.31.57.57,0,0,1-.48.1h.06a17.33,17.33,0,0,1-2,.16,8.86,8.86,0,0,1-2-.16h0a4.26,4.26,0,0,1-1-1.48,3.46,3.46,0,0,1-.25-.85A5.76,5.76,0,0,1,49.8,139.79Z" fill="#afa194"/><path d="M58,148.07a2.85,2.85,0,0,1-.59-.93,7.76,7.76,0,0,1-.34-1,8.8,8.8,0,0,1-.25-2.19l.08.1a3.28,3.28,0,0,1-.87-.37,1.5,1.5,0,0,1-.58-.74,1.53,1.53,0,0,0,.31.32c.12.09.26.15.37.24a3.08,3.08,0,0,0,.81.34l.08,0v.08a8.61,8.61,0,0,0,.24,2.13,7.55,7.55,0,0,0,.33,1C57.73,147.39,57.81,147.74,58,148.07Z" fill="#afa194"/><path d="M56.9,143.91a1.74,1.74,0,0,0,.53-.62,4.56,4.56,0,0,0,.32-.74v0l0,0a6.93,6.93,0,0,0,1-1.32,10.46,10.46,0,0,0,.77-1.5,12.26,12.26,0,0,0,.54-1.6c.12-.55.3-1.09.44-1.64a6.73,6.73,0,0,1-.24,1.7,12.64,12.64,0,0,1-.55,1.63,10.64,10.64,0,0,1-.78,1.53,7.07,7.07,0,0,1-1.06,1.36l0-.05a2.25,2.25,0,0,1-.38.78A1.66,1.66,0,0,1,56.9,143.91Z" fill="#afa194"/><path d="M50,146.95a3.54,3.54,0,0,1,.64.44,3.47,3.47,0,0,1,.49.61,3,3,0,0,1,.5,1.49l-.13-.09a4.71,4.71,0,0,1,1.82-.11,4.39,4.39,0,0,1,.89.22A3.44,3.44,0,0,1,55,150a4.3,4.3,0,0,0-.83-.31,3.8,3.8,0,0,0-.84-.21,4.52,4.52,0,0,0-1.73.1l-.13,0v-.13a2.81,2.81,0,0,0-.47-1.38,5,5,0,0,0-.46-.59A4.84,4.84,0,0,0,50,146.95Z" fill="#afa194"/><path d="M49.13,150.31a1.26,1.26,0,0,0,.66.17,1.53,1.53,0,0,0,.64-.17,2.82,2.82,0,0,0,1-.88v0h0a7.26,7.26,0,0,0,1.5-1.11,10.51,10.51,0,0,0,1.25-1.41,12.22,12.22,0,0,0,1-1.6c.27-.57.6-1.11.85-1.7a8,8,0,0,1-.67,1.79,12.27,12.27,0,0,1-1,1.63,10.76,10.76,0,0,1-1.27,1.44,7.42,7.42,0,0,1-1.55,1.15l0,0a3.1,3.1,0,0,1-1.09.94A1.35,1.35,0,0,1,49.13,150.31Z" fill="#afa194"/><path d="M51.19,142.93c.09.2.19.39.3.58a6.15,6.15,0,0,0,.27.58,6.52,6.52,0,0,0,.7,1.07,6.46,6.46,0,0,0,.89.91c.17.13.33.27.51.38s.32.29.5.42c-.2-.08-.41-.16-.61-.25s-.36-.26-.53-.39a6.72,6.72,0,0,1-1.64-2c-.1-.19-.19-.39-.28-.6A3.56,3.56,0,0,1,51.19,142.93Z" fill="#afa194"/><path d="M49.81,62a2.65,2.65,0,0,1,1.38,0,10,10,0,0,1,1.34.34,18.38,18.38,0,0,1,2.55,1.09,21.58,21.58,0,0,1,4.54,3.16,16.75,16.75,0,0,1,3.43,4.34,14.68,14.68,0,0,1,1.69,5.24l0-.06A6.27,6.27,0,0,1,67.19,78a9.59,9.59,0,0,1,1.55,2.73,16.18,16.18,0,0,1,.89,6.19l0-.13a9.83,9.83,0,0,1,1.7,4.29,5.92,5.92,0,0,1-1.12,4.44c-.48.63-1.06,1.12-1.57,1.68s-1,1.11-1.52,1.68a27.24,27.24,0,0,0-2.7,3.64l0,0a22.42,22.42,0,0,1,2.55-3.78q.72-.89,1.48-1.74c.5-.58,1.07-1.09,1.49-1.69a5.73,5.73,0,0,0,1-4.17A10.05,10.05,0,0,0,69.26,87l0-.06v-.06a16.86,16.86,0,0,0-.74-6.08A9,9,0,0,0,67,78.11a6.12,6.12,0,0,0-2.37-1.88l0,0v0A12.65,12.65,0,0,0,62.86,71a18.56,18.56,0,0,0-3.48-4.18,22.87,22.87,0,0,0-4.43-3.18,18.21,18.21,0,0,0-2.48-1.16,10.29,10.29,0,0,0-1.3-.41A2.58,2.58,0,0,0,49.83,62Z" fill="#c7bdb4"/><path d="M62.59,102.28c-1-1.55-2-3.13-2.93-4.71s-1.85-3.21-2.75-4.83q-2.67-4.87-5-10a69.42,69.42,0,0,1-3.77-10.48,22.75,22.75,0,0,1-.77-5.54A7.8,7.8,0,0,1,47.92,64a3.6,3.6,0,0,1,1.89-2l0,0A3.51,3.51,0,0,0,48,64a7.63,7.63,0,0,0-.42,2.72,22.62,22.62,0,0,0,.86,5.46,72.52,72.52,0,0,0,3.84,10.39c1.5,3.38,3.14,6.7,4.87,10s3.53,6.5,5.43,9.67Z" fill="#c1bbac"/><path d="M64.68,76.16a26.85,26.85,0,0,0-.92,3.2c-.28,1.07-.51,2.16-.71,3.25a50.79,50.79,0,0,0-.72,6.61,57.39,57.39,0,0,0,.1,6.65c.08,1.11.19,2.21.33,3.31s.24,2.21.41,3.31q-.35-1.63-.61-3.28c-.14-1.1-.26-2.21-.34-3.32a57.61,57.61,0,0,1-.1-6.68,51,51,0,0,1,.72-6.64q.29-1.65.71-3.27A26.47,26.47,0,0,1,64.68,76.16Z" fill="#afa194"/><path d="M69.42,86.89a13.45,13.45,0,0,0-1.2,1.74,20.89,20.89,0,0,0-1.07,1.81,26.14,26.14,0,0,0-1.64,3.88,31,31,0,0,0-1,4.08q-.19,1-.32,2.08t-.31,2.09q0-1.06.1-2.12t.33-2.1a31.25,31.25,0,0,1,1.06-4.11A26.37,26.37,0,0,1,67,90.34c.33-.63.69-1.24,1.08-1.83A13.2,13.2,0,0,1,69.42,86.89Z" fill="#afa194"/><path d="M65.1,95.33c0-.58-.05-1.16,0-1.74s.11-1.16.19-1.73a25.93,25.93,0,0,1,.7-3.41,20.87,20.87,0,0,1,1.21-3.27A17,17,0,0,1,68,83.63,15.35,15.35,0,0,1,69,82.25a15,15,0,0,0-.89,1.49,16.78,16.78,0,0,0-.81,1.52,20.62,20.62,0,0,0-1.19,3.24,25.75,25.75,0,0,0-.7,3.39c-.08.57-.14,1.14-.18,1.72S65.13,94.76,65.1,95.33Z" fill="#afa194"/><path d="M62.44,86.37l.76-.75.81-.69q.81-.7,1.58-1.43c.52-.49,1-1,1.49-1.52.24-.26.47-.53.68-.81a6.73,6.73,0,0,0,.68-.82,6.89,6.89,0,0,1-.51,1c-.22.28-.45.56-.69.82-.48.53-1,1-1.5,1.53s-1.05,1-1.59,1.44l-.82.69C63,86,62.74,86.18,62.44,86.37Z" fill="#afa194"/><path d="M64.76,96.59l.85-.69.88-.64q.87-.66,1.67-1.39a17.5,17.5,0,0,0,1.51-1.56c.23-.28.46-.56.66-.85a9.57,9.57,0,0,0,.66-.87,9.87,9.87,0,0,1-.49,1c-.21.3-.44.59-.68.87A17.76,17.76,0,0,1,68.3,94q-.81.74-1.68,1.4l-.88.65C65.41,96.25,65.09,96.44,64.76,96.59Z" fill="#afa194"/><path d="M56.91,90.59A2.42,2.42,0,0,1,58,89.4a2.61,2.61,0,0,1,1.64-.09,4.43,4.43,0,0,1,1.49.69,4.08,4.08,0,0,1,1.14,1.18l-.09-.05a2.06,2.06,0,0,1,1.45.8,4.41,4.41,0,0,1,.77,1.45A8.83,8.83,0,0,1,64.75,95a15.35,15.35,0,0,1,0,1.62,15.22,15.22,0,0,0-.22-1.6,8.63,8.63,0,0,0-.34-1.56,4.22,4.22,0,0,0-.73-1.39,1.88,1.88,0,0,0-1.29-.73h-.06l0,0a4.27,4.27,0,0,0-2.5-1.77,2.4,2.4,0,0,0-1.51.08A2.33,2.33,0,0,0,56.91,90.59Z" fill="#afa194"/><path d="M60.56,89.76A23.78,23.78,0,0,1,60,86.61c-.11-1.06-.18-2.13-.2-3.19a22.31,22.31,0,0,1,.66-6.36v0A7.1,7.1,0,0,1,61,73.93a3.61,3.61,0,0,1,1-1.3,3.74,3.74,0,0,1,1.42-.75,3.67,3.67,0,0,0-1.32.85A5,5,0,0,0,61.24,74a6.9,6.9,0,0,0-.57,3.07v0a22.11,22.11,0,0,0-.65,6.3c0,1.06.09,2.12.2,3.18S60.39,88.71,60.56,89.76Z" fill="#afa194"/><path d="M63.35,80.61a2.19,2.19,0,0,1-.58-.15,3.93,3.93,0,0,1-.49-.34,4.71,4.71,0,0,1-.82-.87,5.77,5.77,0,0,1-.6-1c-.08-.18-.16-.36-.22-.55s-.06-.39-.08-.59c.09.18.18.35.27.52s.14.36.22.53a5.56,5.56,0,0,0,.58,1,4.46,4.46,0,0,0,.78.83,3.67,3.67,0,0,0,.47.32A3.24,3.24,0,0,0,63.35,80.61Z" fill="#afa194"/><path d="M60,84.67a6,6,0,0,1-1.29-.53,4.61,4.61,0,0,1-1.11-.86,5.07,5.07,0,0,1-1.35-2.44l.12.08a2.93,2.93,0,0,1-1.67-.35,3.4,3.4,0,0,1-1.23-1.18,7.11,7.11,0,0,1-.93-3.22l.16.08a1.78,1.78,0,0,1-1.24.21,1.49,1.49,0,0,1-1-.73,1.42,1.42,0,0,0,1,.6,2.18,2.18,0,0,0,1.12-.25l.14-.07v.15a6.91,6.91,0,0,0,.9,3.13,3.19,3.19,0,0,0,1.15,1.11,2.75,2.75,0,0,0,1.54.33h.1l0,.09a4.86,4.86,0,0,0,1.29,2.34,9,9,0,0,0,1,.87A5.9,5.9,0,0,0,60,84.67Z" fill="#afa194"/><path d="M60.14,79.08a6.6,6.6,0,0,0-1.26-1.93,3.17,3.17,0,0,0-.88-.7,1.88,1.88,0,0,0-1.07-.19h-.08l0-.07a3.87,3.87,0,0,0-1.27-1.66,2.12,2.12,0,0,0-2-.24l-.13,0V74.2A6.39,6.39,0,0,0,52.9,72a2.59,2.59,0,0,0-.67-.9,1.62,1.62,0,0,0-1-.37h-.1v-.1a8.56,8.56,0,0,0-.46-2.82,3.24,3.24,0,0,0-.72-1.2,1.65,1.65,0,0,0-1.32-.42,1.71,1.71,0,0,1,1.4.33,2.73,2.73,0,0,1,.84,1.22,8.75,8.75,0,0,1,.48,2.89l-.1-.1a1.82,1.82,0,0,1,1.15.42,2.79,2.79,0,0,1,.72,1,6.59,6.59,0,0,1,.55,2.32l-.14-.09A2.51,2.51,0,0,1,54.61,74a2.29,2.29,0,0,1,1.05.4A4.07,4.07,0,0,1,57,76.12l-.11-.07a2.08,2.08,0,0,1,1.19.21A3.09,3.09,0,0,1,59,77,6.69,6.69,0,0,1,60.14,79.08Z" fill="#afa194"/><path d="M57.86,89.58a15.33,15.33,0,0,1-1-2,10.67,10.67,0,0,1-.63-2.19A13,13,0,0,1,56,83.07a9.8,9.8,0,0,1,.22-2.28v0a9.13,9.13,0,0,1-.13-2.42,4.81,4.81,0,0,1,.74-2.32v.1a8.25,8.25,0,0,1-.6-4.6l0-.11.12,0a1.15,1.15,0,0,0,.78-.12,2.23,2.23,0,0,0,.66-.53l0,0h.06a11.3,11.3,0,0,0,2.36.06,3.84,3.84,0,0,0,2.2-.79,3.91,3.91,0,0,1-2.18.94,8.18,8.18,0,0,1-2.41,0l.09,0a2.46,2.46,0,0,1-.72.57,1.33,1.33,0,0,1-.94.13l.14-.08A8.07,8.07,0,0,0,57,76.11l0,.06,0,0a4.61,4.61,0,0,0-.71,2.22,9,9,0,0,0,.13,2.36v0a9.63,9.63,0,0,0-.22,2.23,12.81,12.81,0,0,0,.22,2.24A19.71,19.71,0,0,0,57,87.49,15.13,15.13,0,0,0,57.86,89.58Z" fill="#afa194"/><path d="M52.6,76.16c0-.1,0-.19,0-.29l.12-.24.24-.49.23-.49.11-.25.2-.21,0,.29-.11.25-.23.49-.24.49-.12.24C52.75,76,52.68,76.1,52.6,76.16Z" fill="#afa194"/><path d="M49.82,73.73a5.76,5.76,0,0,1,.07-.88,3.46,3.46,0,0,1,.26-.86,4.27,4.27,0,0,1,1-1.49h0a8.86,8.86,0,0,1,2-.16,17.34,17.34,0,0,1,2,.16h-.06a.57.57,0,0,1,.48.1,1.34,1.34,0,0,1,.29.31,3.87,3.87,0,0,1,.39.72,3.77,3.77,0,0,0-.5-.62,1.72,1.72,0,0,0-.3-.23.41.41,0,0,0-.28-.09h-.06a17.05,17.05,0,0,0-2-.16,8.7,8.7,0,0,0-2,.15l0,0a4.1,4.1,0,0,0-.95,1.4A11.31,11.31,0,0,0,49.82,73.73Z" fill="#afa194"/><path d="M58,65.44c-.17.33-.25.68-.4,1a7.55,7.55,0,0,0-.33,1A8.61,8.61,0,0,0,57,69.6v.08l-.08,0a3.09,3.09,0,0,0-.81.34c-.12.09-.25.14-.37.24a1.53,1.53,0,0,0-.31.32,1.51,1.51,0,0,1,.58-.74,3.28,3.28,0,0,1,.87-.37l-.08.1a8.8,8.8,0,0,1,.25-2.19,7.77,7.77,0,0,1,.34-1A2.86,2.86,0,0,1,58,65.44Z" fill="#afa194"/><path d="M56.91,69.6a1.66,1.66,0,0,1,.67.53,2.24,2.24,0,0,1,.38.78l0-.05A7.07,7.07,0,0,1,59,72.23a10.63,10.63,0,0,1,.78,1.53,12.63,12.63,0,0,1,.55,1.63,6.73,6.73,0,0,1,.24,1.7c-.13-.56-.31-1.09-.44-1.64a12.24,12.24,0,0,0-.54-1.6,10.44,10.44,0,0,0-.76-1.5,6.92,6.92,0,0,0-1-1.32l0,0v0a4.56,4.56,0,0,0-.32-.74A1.74,1.74,0,0,0,56.91,69.6Z" fill="#afa194"/><path d="M50,66.57a4.85,4.85,0,0,0,.5-.57,5,5,0,0,0,.46-.59A2.81,2.81,0,0,0,51.45,64V63.9l.13,0a4.52,4.52,0,0,0,1.73.1,3.8,3.8,0,0,0,.84-.21,4.3,4.3,0,0,0,.83-.31,3.44,3.44,0,0,1-.76.51,4.39,4.39,0,0,1-.89.22,4.71,4.71,0,0,1-1.82-.11l.13-.09a3,3,0,0,1-.5,1.49,3.48,3.48,0,0,1-.49.61A3.57,3.57,0,0,1,50,66.57Z" fill="#afa194"/><path d="M49.16,63.21A1.35,1.35,0,0,1,50.54,63a3.1,3.1,0,0,1,1.09.94l0,0a7.41,7.41,0,0,1,1.55,1.15,10.74,10.74,0,0,1,1.27,1.44,12.24,12.24,0,0,1,1,1.63,8,8,0,0,1,.67,1.79c-.25-.59-.59-1.13-.85-1.7a12.2,12.2,0,0,0-1-1.6A10.49,10.49,0,0,0,53,65.24a7.25,7.25,0,0,0-1.5-1.11h0v0a2.81,2.81,0,0,0-1-.88,1.53,1.53,0,0,0-.64-.17A1.26,1.26,0,0,0,49.16,63.21Z" fill="#afa194"/><path d="M51.21,70.59a3.56,3.56,0,0,1,.11-.65c.08-.2.18-.4.28-.6a6.73,6.73,0,0,1,1.64-2c.17-.14.34-.27.53-.4s.41-.18.61-.25c-.17.14-.34.27-.5.42s-.35.25-.51.38a6.47,6.47,0,0,0-.89.91,6.54,6.54,0,0,0-.7,1.07,6.14,6.14,0,0,0-.27.58C51.4,70.19,51.3,70.39,51.21,70.59Z" fill="#afa194"/><g style="mix-blend-mode:screen"><path d="M97.49,122.91c.08.38.47.57.8.73a8.83,8.83,0,0,0,1.07.4c.73.23,1.47.43,2.22.63a20.74,20.74,0,0,1,2.23.66,7.59,7.59,0,0,1,2,1.12l0,0a22.52,22.52,0,0,0-2.17-.76c-.73-.23-1.45-.49-2.18-.73s-1.47-.47-2.19-.75a9,9,0,0,1-1.06-.48c-.32-.19-.72-.41-.78-.83Z" fill="#fff"/></g><g style="mix-blend-mode:screen"><path d="M97.69,91.45a47.57,47.57,0,0,0,5.4-1.12,15.35,15.35,0,0,1,2.75-.33c.44,0,.9-.12,1-.51a3,3,0,0,0-.22-1.29l0,0a2.52,2.52,0,0,1,.44,1.35.79.79,0,0,1-.47.65,2.6,2.6,0,0,1-.71.2c-.94.14-1.83.15-2.73.31s-1.8.35-2.71.5a27.23,27.23,0,0,1-2.75.31Z" fill="#fff"/></g><g style="mix-blend-mode:screen"><path d="M87,119.89l3.74,1.48c.63.24,1.26.45,1.88.71l1.84.81v0a9.25,9.25,0,0,1-2-.47,19.16,19.16,0,0,1-1.86-.79q-1.84-.83-3.63-1.75Z" fill="#fff"/></g><g style="mix-blend-mode:screen"><path d="M86.35,94.06Q88.21,93,90.14,92a19.32,19.32,0,0,1,2-.92,7.55,7.55,0,0,1,2.11-.53v0c-.67.26-1.31.56-2,.87s-1.32.55-2,.84q-2,.87-3.91,1.79Z" fill="#fff"/></g><g style="mix-blend-mode:screen"><path d="M81.4,122.42l2.37,2.85c.4.47.82.93,1.19,1.42s.73,1,1,1.53l0,0a10.89,10.89,0,0,1-1.34-1.3c-.41-.46-.76-1-1.12-1.48q-1.1-1.49-2.15-3Z" fill="#fff"/></g><g style="mix-blend-mode:screen"><path d="M89.65,130.37a16.77,16.77,0,0,0,2.52,1.79,5.84,5.84,0,0,0,1.38.54,1,1,0,0,0,1.19-.48h0a1,1,0,0,1-.44.71,1.35,1.35,0,0,1-.86.16,3.65,3.65,0,0,1-1.48-.66,13.73,13.73,0,0,1-2.38-2Z" fill="#fff"/></g><g style="mix-blend-mode:screen"><path d="M81.66,90.57c.68-1.09,1.39-2.16,2.16-3.19A11.92,11.92,0,0,1,85,85.88a5.82,5.82,0,0,1,.76-.63,1.76,1.76,0,0,1,.47-.22.45.45,0,0,1,.29,0,.28.28,0,0,1,.15.22h0a.21.21,0,0,0-.34-.07,1.6,1.6,0,0,0-.35.27,8.24,8.24,0,0,0-.64.68l-1.27,1.42c-.82,1-1.61,2-2.38,3Z" fill="#fff"/></g><g style="mix-blend-mode:screen"><path d="M89,83.34a19.27,19.27,0,0,1,2.48-2,5.75,5.75,0,0,1,1.43-.79,2.54,2.54,0,0,1,.84-.13.84.84,0,0,1,.73.42l0,0c-.43-.33-.94-.12-1.4.07a15.56,15.56,0,0,0-1.4.68A25.61,25.61,0,0,0,89,83.37Z" fill="#fff"/></g><g style="mix-blend-mode:screen"><path d="M43.22,122.91a.78.78,0,0,0,.45.11,3.81,3.81,0,0,0,.48,0c.32,0,.64,0,1-.07.64-.07,1.29-.13,1.92-.26A6.63,6.63,0,0,0,50.46,121l0,0a6.45,6.45,0,0,1-3.38,2,8.08,8.08,0,0,1-2,.36,6.66,6.66,0,0,1-1-.05,1.48,1.48,0,0,1-.94-.38Z" fill="#fff"/></g><g style="mix-blend-mode:screen"><path d="M43.23,90.59a3.41,3.41,0,0,0,.6.66,2.69,2.69,0,0,0,.72.45,5.43,5.43,0,0,0,1.83.26v0a4.66,4.66,0,0,1-1.93,0,1.66,1.66,0,0,1-.91-.47,1.39,1.39,0,0,1-.35-.95Z" fill="#fff"/></g></g></g></svg>