<svg id="Layer_1" data-name="Layer 1" xmlns="http://www.w3.org/2000/svg" xmlns:xlink="http://www.w3.org/1999/xlink" viewBox="0 0 62.65 62.65"><defs><style>.cls-1{fill:#73adff;}.cls-2{fill:#808184;}.cls-3{fill:url(#linear-gradient);}.cls-4{fill:#d4cedb;}.cls-5{fill:#000009;}.cls-6{fill:#bcdef7;}.cls-7{fill:url(#linear-gradient-2);}.cls-8,.cls-9{opacity:0.5;}.cls-8{fill:url(#linear-gradient-3);}.cls-9{fill:url(#linear-gradient-4);}.cls-10{fill:url(#linear-gradient-5);}.cls-11{fill:#f0b87a;}.cls-12{fill:url(#radial-gradient);}</style><linearGradient id="linear-gradient" x1="9.33" y1="53.32" x2="52.39" y2="10.26" gradientUnits="userSpaceOnUse"><stop offset="0" stop-color="#babcbf" stop-opacity="0"/><stop offset="1" stop-color="#b8bcc1"/></linearGradient><linearGradient id="linear-gradient-2" x1="31.33" y1="4.07" x2="31.33" y2="52.18" gradientUnits="userSpaceOnUse"><stop offset="0" stop-color="#89b8e4" stop-opacity="0"/><stop offset="1" stop-color="#a0c3e4"/></linearGradient><linearGradient id="linear-gradient-3" x1="28.65" y1="28.74" x2="12.07" y2="10.57" gradientUnits="userSpaceOnUse"><stop offset="0" stop-color="#e2f3ff" stop-opacity="0.1"/><stop offset="1" stop-color="#e2f3ff"/></linearGradient><linearGradient id="linear-gradient-4" x1="36.51" y1="36.51" x2="59.07" y2="59.07" xlink:href="#linear-gradient-3"/><linearGradient id="linear-gradient-5" x1="6.62" y1="32.64" x2="56.03" y2="32.64" gradientUnits="userSpaceOnUse"><stop offset="0" stop-color="#f09454"/><stop offset="0.05" stop-color="#f09858"/><stop offset="0.1" stop-color="#f0a565"/><stop offset="0.16" stop-color="#f0ba7a"/><stop offset="0.21" stop-color="#f0d897"/><stop offset="0.22" stop-color="#f0e1a0"/><stop offset="0.23" stop-color="#f0dd9c"/><stop offset="0.27" stop-color="#f0bd7d"/><stop offset="0.31" stop-color="#f0a666"/><stop offset="0.34" stop-color="#f09959"/><stop offset="0.38" stop-color="#f09454"/><stop offset="0.4" stop-color="#e6884e"/><stop offset="0.5" stop-color="#c45f39"/><stop offset="0.6" stop-color="#a93f29"/><stop offset="0.69" stop-color="#96281d"/><stop offset="0.78" stop-color="#8b1a16"/><stop offset="0.86" stop-color="#871514"/></linearGradient><radialGradient id="radial-gradient" cx="51.17" cy="87010.48" r="27.11" gradientTransform="translate(3.43 -6459.61) scale(0.55 0.07)" gradientUnits="userSpaceOnUse"><stop offset="0" stop-color="#f0ae6d"/><stop offset="0.16" stop-color="#eeaa69"/><stop offset="0.34" stop-color="#e79d5e"/><stop offset="0.51" stop-color="#dc884c"/><stop offset="0.69" stop-color="#cc6a32"/><stop offset="0.86" stop-color="#ba4814"/></radialGradient></defs><title>left-half-kilogram-icon</title><path class="cls-1" d="M31.33,58.35a27,27,0,1,1,27-27A27.05,27.05,0,0,1,31.33,58.35Z"/><path class="cls-2" d="M31.33,62.65A31.33,31.33,0,1,1,62.65,31.33,31.36,31.36,0,0,1,31.33,62.65Z"/><path class="cls-3" d="M31.33,62.65A31.33,31.33,0,1,1,62.65,31.33,31.36,31.36,0,0,1,31.33,62.65Z"/><path class="cls-4" d="M31.33,59.78A28.46,28.46,0,1,1,59.78,31.33,28.49,28.49,0,0,1,31.33,59.78Z"/><path class="cls-5" d="M31.33,59.3a28,28,0,1,1,28-28A28,28,0,0,1,31.33,59.3Z"/><path class="cls-6" d="M31.33,58.59A27.26,27.26,0,1,1,58.59,31.33,27.29,27.29,0,0,1,31.33,58.59Z"/><circle class="cls-7" cx="31.33" cy="31.33" r="26.78"/><path class="cls-8" d="M30.14,28.55V7.2A24.16,24.16,0,0,0,7.33,28.55Z"/><path class="cls-9" d="M47.17,13.09A24.15,24.15,0,0,1,13.09,47.17,24.15,24.15,0,1,0,47.17,13.09Z"/><path class="cls-10" d="M56,40.49l-6.06-20H12.73l-6.06,20,0,.11c-.5,2.27,10.55,4.17,24.69,4.17S56.51,42.87,56,40.6A.92.92,0,0,0,56,40.49Z"/><path class="cls-11" d="M49.91,20.52c.31,1.53-8,2.8-18.59,2.8S12.43,22,12.73,20.52s8.62-2.64,18.59-2.64S49.62,19,49.91,20.52Z"/><path class="cls-12" d="M46.93,20.52c.16.95-6.83,1.73-15.6,1.73s-15.76-.78-15.6-1.73,7.14-1.67,15.6-1.67S46.77,19.59,46.93,20.52Z"/><path d="M16.07,41.76h-1V36.38h1v3.08l1.35-1.72h1.38l-1.77,2,1.77,2H17.44l-1.37-1.68Z"/><path d="M20.5,36.7a.61.61,0,0,1-.18.44.61.61,0,0,1-.87,0,.64.64,0,0,1,0-.89.61.61,0,0,1,.87,0A.61.61,0,0,1,20.5,36.7Zm-1.12,5.06v-4h1v4Z"/><path d="M21.47,41.76V36.38h1v5.38Z"/><path d="M23.87,41.24a2,2,0,0,1-.58-1.51,2,2,0,0,1,.59-1.5,2.18,2.18,0,0,1,2.93,0,2.2,2.2,0,0,1,0,3,2,2,0,0,1-1.47.58A2,2,0,0,1,23.87,41.24ZM25.34,41a1,1,0,0,0,.73-.32,1.46,1.46,0,0,0,0-1.79,1,1,0,0,0-.73-.31,1,1,0,0,0-.72.31,1.5,1.5,0,0,0,0,1.79A1,1,0,0,0,25.34,41Z"/><path d="M28.47,41.23a2.35,2.35,0,0,1,0-3,1.76,1.76,0,0,1,1.35-.58,1.39,1.39,0,0,1,1.25.68v-.63h1v4.06a2,2,0,0,1-.5,1.42,1.83,1.83,0,0,1-1.42.55,2.45,2.45,0,0,1-1.45-.38,1.45,1.45,0,0,1-.61-1.09h1a.78.78,0,0,0,.36.43,1.31,1.31,0,0,0,.67.16.92.92,0,0,0,.67-.27,1.1,1.1,0,0,0,.27-.81v-.71a1.41,1.41,0,0,1-1.26.73A1.74,1.74,0,0,1,28.47,41.23Zm2.29-.62a1.35,1.35,0,0,0,0-1.74,1,1,0,0,0-1.48,0,1.17,1.17,0,0,0-.31.87,1.19,1.19,0,0,0,.32.87,1,1,0,0,0,1.48,0Z"/><path d="M34.17,37.73v.71a1.26,1.26,0,0,1,1.17-.77v1h-.25a.93.93,0,0,0-.68.23,1.09,1.09,0,0,0-.23.79v2h-1v-4Z"/><path d="M36.32,41.23a2.35,2.35,0,0,1,0-3,1.76,1.76,0,0,1,1.35-.58,1.39,1.39,0,0,1,1.25.68v-.63h1v4h-1v-.68a1.41,1.41,0,0,1-1.26.73A1.74,1.74,0,0,1,36.32,41.23Zm2.29-.62a1.35,1.35,0,0,0,0-1.74,1,1,0,0,0-1.48,0,1.17,1.17,0,0,0-.31.87,1.19,1.19,0,0,0,.32.87,1,1,0,0,0,1.48,0Z"/><path d="M42,37.73v.6a1.32,1.32,0,0,1,1.24-.66,1.56,1.56,0,0,1,.81.21,1.41,1.41,0,0,1,.55.6A1.56,1.56,0,0,1,46,37.67a1.53,1.53,0,0,1,1.15.45,1.75,1.75,0,0,1,.44,1.27v2.37h-1V39.53a1,1,0,0,0-.24-.72.85.85,0,0,0-.65-.25.86.86,0,0,0-.65.25,1,1,0,0,0-.24.72v2.23h-1V39.53a1,1,0,0,0-.24-.72.85.85,0,0,0-.65-.25.86.86,0,0,0-.65.25,1,1,0,0,0-.24.72v2.23H41v-4Z"/><path d="M31,29.4V25.32h-.74v-.9H32v5Z"/><path d="M29.64,36.57v-.72l.56-.49.56-.49.46-.44a3.8,3.8,0,0,0,.41-.47,1.59,1.59,0,0,0,.34-.87q0-.74-.68-.74a.64.64,0,0,0-.52.22,1,1,0,0,0-.19.62h-.94a1.62,1.62,0,0,1,.48-1.25,1.75,1.75,0,0,1,1.22-.43,1.59,1.59,0,0,1,1.19.43A1.49,1.49,0,0,1,32.94,33a1.75,1.75,0,0,1-.25.91c-.08.15-.16.28-.24.4a3.14,3.14,0,0,1-.34.4l-.34.35-.38.35-.35.32h2v.81Z"/><rect x="27.2" y="29.78" width="7.81" height="1.05"/></svg>