<svg xmlns="http://www.w3.org/2000/svg" xmlns:xlink="http://www.w3.org/1999/xlink" viewBox="0 0 136.83 136.83"><defs><style>.cls-1{isolation:isolate;}.cls-2{fill:#5d0363;mix-blend-mode:multiply;}.cls-3{fill:url(#radial-gradient);}.cls-4{fill:url(#radial-gradient-2);}.cls-5{fill:url(#radial-gradient-3);}.cls-6{fill:url(#radial-gradient-4);}.cls-7{fill:url(#radial-gradient-5);}.cls-8{fill:url(#radial-gradient-6);}</style><radialGradient id="radial-gradient" cx="-1.65" cy="-262.66" r="17.77" gradientTransform="translate(-209.13 22.7) rotate(90) scale(1 1.04)" gradientUnits="userSpaceOnUse"><stop offset="0.5" stop-color="#fff"/><stop offset="0.57" stop-color="#fafafa"/><stop offset="0.67" stop-color="#eaeaea"/><stop offset="0.77" stop-color="#d1d1d1"/><stop offset="0.88" stop-color="#adadad"/><stop offset="1" stop-color="gray"/></radialGradient><radialGradient id="radial-gradient-2" cx="-1.65" cy="-308.13" r="17.77" xlink:href="#radial-gradient"/><radialGradient id="radial-gradient-3" cx="-1.65" cy="-217.19" r="17.77" xlink:href="#radial-gradient"/><radialGradient id="radial-gradient-4" cx="93.08" cy="-262.66" r="17.77" xlink:href="#radial-gradient"/><radialGradient id="radial-gradient-5" cx="93.08" cy="-308.13" r="17.77" xlink:href="#radial-gradient"/><radialGradient id="radial-gradient-6" cx="93.08" cy="-217.19" r="17.77" xlink:href="#radial-gradient"/></defs><title>dice6</title><g class="cls-1"><g id="Layer_1" data-name="Layer 1"><path class="cls-2" d="M47.37,21a21,21,0,1,1,21,21A21.07,21.07,0,0,1,47.37,21Z"/><circle class="cls-3" cx="68.41" cy="21.05" r="15.79"/><path class="cls-2" d="M94.73,21a21,21,0,1,1,21,21A21.07,21.07,0,0,1,94.73,21Z"/><circle class="cls-4" cx="115.78" cy="21.05" r="15.79"/><path class="cls-2" d="M0,21a21,21,0,1,1,21,21A21.07,21.07,0,0,1,0,21Z"/><circle class="cls-5" cx="21.05" cy="21.05" r="15.79"/><path class="cls-2" d="M47.37,115.78a21,21,0,1,1,21,21A21.07,21.07,0,0,1,47.37,115.78Z"/><circle class="cls-6" cx="68.41" cy="115.78" r="15.79"/><path class="cls-2" d="M94.73,115.78a21,21,0,1,1,21,21A21.07,21.07,0,0,1,94.73,115.78Z"/><circle class="cls-7" cx="115.78" cy="115.78" r="15.79"/><path class="cls-2" d="M0,115.78a21,21,0,1,1,21,21A21.07,21.07,0,0,1,0,115.78Z"/><circle class="cls-8" cx="21.05" cy="115.78" r="15.79"/></g></g></svg>