<svg id="Layer_1" data-name="Layer 1" xmlns="http://www.w3.org/2000/svg" xmlns:xlink="http://www.w3.org/1999/xlink" viewBox="0 0 341.59 170.82"><defs><linearGradient id="linear-gradient" x1="225.56" y1="787.54" x2="225.56" y2="445.95" gradientTransform="matrix(0, 1, 1, 0, -443.37, -140.15)" gradientUnits="userSpaceOnUse"><stop offset="0" stop-color="#8a0a8f"/><stop offset="1" stop-color="#7a007f"/></linearGradient><linearGradient id="linear-gradient-2" x1="178.57" y1="172.51" x2="178.57" y2="3.24" gradientTransform="matrix(1, 0, 0, -1, 0, 172)" gradientUnits="userSpaceOnUse"><stop offset="0" stop-color="#951599"/><stop offset="0.02" stop-color="#8c0c91"/><stop offset="1" stop-color="#7a007f"/></linearGradient><linearGradient id="linear-gradient-3" x1="186.31" y1="171.73" x2="186.31" y2="3.99" gradientTransform="matrix(1, 0, 0, -1, 0, 172)" gradientUnits="userSpaceOnUse"><stop offset="0" stop-color="#9f1fa3"/><stop offset="0.02" stop-color="#8e0e93"/><stop offset="1" stop-color="#7a007f"/></linearGradient><linearGradient id="linear-gradient-4" x1="194.07" y1="170.95" x2="194.07" y2="4.75" gradientTransform="matrix(1, 0, 0, -1, 0, 172)" gradientUnits="userSpaceOnUse"><stop offset="0" stop-color="#aa2aae"/><stop offset="0.02" stop-color="#901095"/><stop offset="1" stop-color="#7a007f"/></linearGradient><linearGradient id="linear-gradient-5" x1="197.68" y1="170.16" x2="197.68" y2="5.47" gradientTransform="matrix(1, 0, 0, -1, 0, 172)" gradientUnits="userSpaceOnUse"><stop offset="0" stop-color="#b535b8"/><stop offset="0.02" stop-color="#921297"/><stop offset="1" stop-color="#7a007f"/></linearGradient><linearGradient id="linear-gradient-6" x1="194.16" y1="169.38" x2="194.16" y2="6.21" gradientTransform="matrix(1, 0, 0, -1, 0, 172)" gradientUnits="userSpaceOnUse"><stop offset="0" stop-color="#bf3fc2"/><stop offset="0.02" stop-color="#941499"/><stop offset="1" stop-color="#7a007f"/></linearGradient><linearGradient id="linear-gradient-7" x1="190.61" y1="168.6" x2="190.61" y2="7.02" gradientTransform="matrix(1, 0, 0, -1, 0, 172)" gradientUnits="userSpaceOnUse"><stop offset="0" stop-color="#ca4acc"/><stop offset="0.02" stop-color="#97179c"/><stop offset="1" stop-color="#7a007f"/></linearGradient><linearGradient id="linear-gradient-8" x1="187.07" y1="167.82" x2="187.07" y2="7.78" gradientTransform="matrix(1, 0, 0, -1, 0, 172)" gradientUnits="userSpaceOnUse"><stop offset="0" stop-color="#d454d6"/><stop offset="0.02" stop-color="#99199e"/><stop offset="1" stop-color="#7a007f"/></linearGradient><linearGradient id="linear-gradient-9" x1="183.53" y1="167.04" x2="183.53" y2="8.54" gradientTransform="matrix(1, 0, 0, -1, 0, 172)" gradientUnits="userSpaceOnUse"><stop offset="0" stop-color="#df5fe0"/><stop offset="0.02" stop-color="#9b1ba0"/><stop offset="1" stop-color="#7a007f"/></linearGradient><linearGradient id="linear-gradient-10" x1="179.99" y1="166.26" x2="179.99" y2="9.3" gradientTransform="matrix(1, 0, 0, -1, 0, 172)" gradientUnits="userSpaceOnUse"><stop offset="0" stop-color="#ea6aeb"/><stop offset="0.02" stop-color="#9d1da2"/><stop offset="1" stop-color="#7a007f"/></linearGradient><linearGradient id="linear-gradient-11" x1="176.46" y1="165.48" x2="176.46" y2="10.07" gradientTransform="matrix(1, 0, 0, -1, 0, 172)" gradientUnits="userSpaceOnUse"><stop offset="0" stop-color="#f474f5"/><stop offset="0.02" stop-color="#9f1fa4"/><stop offset="1" stop-color="#7a007f"/></linearGradient><linearGradient id="linear-gradient-12" x1="225.56" y1="783.21" x2="225.56" y2="454.32" gradientTransform="matrix(0, 1, 1, 0, -443.37, -140.15)" gradientUnits="userSpaceOnUse"><stop offset="0" stop-color="#ff7fff"/><stop offset="0.02" stop-color="#a121a6"/><stop offset="1" stop-color="#7a007f"/></linearGradient><linearGradient id="linear-gradient-13" x1="225.56" y1="609.86" x2="225.56" y2="618.33" gradientTransform="matrix(0, 1, 1, 0, -443.37, -140.15)" gradientUnits="userSpaceOnUse"><stop offset="0" stop-color="#85058a"/><stop offset="1" stop-color="#7a007f"/></linearGradient></defs><title>bigPurpleDiceEmpty</title><g id="Layer_1-2" data-name="Layer 1"><g opacity="0.69"><rect x="2.9" y="22.42" width="318.86" height="125.98" rx="17.46" ry="17.46" fill="#7a007f"/></g><path d="M0,153.88V16.94A16.94,16.94,0,0,1,16.94,0H324.65a16.92,16.92,0,0,1,16.94,16.9s0,0,0,0V153.88a16.93,16.93,0,0,1-16.92,16.94H16.94A16.94,16.94,0,0,1,0,153.88Z" transform="translate(0 0)" fill="url(#linear-gradient)"/><path d="M15.91,16.17C15.91,7.66,24,.77,32.49.77h274c.32,0,19.2.2,19.31.48a15.46,15.46,0,0,1,6,1.46c5.57,2.32,9.49,9.23,9.49,15.64V152.62c0,5.7-3.09,11.93-7.69,14.59a15.56,15.56,0,0,1-7.8,2.44c-.13.23-17,.39-17.31.39h-276c-8.5,0-16.57-6.89-16.57-15.4ZM76.18,78.41a.77.77,0,0,0-.77.77V91.63a.77.77,0,0,0,.77.77h13.6v-14Z" transform="translate(0 0)" fill="url(#linear-gradient-2)"/><path d="M31.82,15.4C31.82,7.75,40.39,1.54,48,1.54H308.69c.64,0,17.93.4,18.16,1a14.08,14.08,0,0,1,5.43,1.64c5,2.09,8.54,9.87,8.54,15.64V151.36c0,5.13-2.78,12.12-6.92,14.52a14.32,14.32,0,0,1-7.13,2.62c-.27.47-15.75.78-16.32.78H48c-7.65,0-16.21-6.2-16.21-13.86Zm38.43,56a1.54,1.54,0,0,0-1.54,1.54s0,0,0,.06V97.9a1.54,1.54,0,0,0,1.54,1.54h27.2v-28Z" transform="translate(0 0)" fill="url(#linear-gradient-3)"/><path d="M47.74,14.63c0-6.8,9.07-12.32,15.87-12.32H310.93c1,0,16.67.6,17,1.44a12.78,12.78,0,0,1,4.9,1.81c4.46,1.85,7.59,10.51,7.59,15.64V150.1c0,4.56-2.47,12.32-6.15,14.45a13.12,13.12,0,0,1-6.46,2.79c-.4.7-14.46,1.17-15.32,1.17H63.58c-6.8,0-15.85-5.51-15.85-12.32Zm16.59,49.8A2.31,2.31,0,0,0,62,66.72h0v37.35a2.31,2.31,0,0,0,2.31,2.31h40.81v-42Z" transform="translate(0 0)" fill="url(#linear-gradient-4)"/><path d="M63.65,13.86c0-6,9.56-10.78,15.52-10.78h234c1.29,0,15.41.79,15.87,1.92a11.56,11.56,0,0,1,4.36,2C337.3,8.62,340,18.15,340,22.64v126.2c0,4-2.17,12.51-5.38,14.37a12,12,0,0,1-5.79,3c-.53.93-13.18,1.56-14.33,1.56H79.13c-6,0-15.49-4.83-15.49-10.78ZM58.4,57.43a3.08,3.08,0,0,0-3.08,3.08h0v49.8a3.08,3.08,0,0,0,3.08,3.08h54.41v-56Z" transform="translate(0 0)" fill="url(#linear-gradient-5)"/><path d="M79.56,13.09c0-5.1,10.06-9.24,15.16-9.24h220.7c1.61,0,14.15,1,14.72,2.4A10.45,10.45,0,0,1,334,8.4c3.34,1.39,5.69,11.79,5.69,15.64V147.58c0,3.42-1.86,12.7-4.62,14.3A11,11,0,0,1,330,165c-.66,1.16-11.9,2-13.33,2H94.68c-5.1,0-15.12-4.14-15.12-9.24ZM52.48,50.44a3.85,3.85,0,0,0-3.85,3.85v62.25a3.85,3.85,0,0,0,3.85,3.85h68V50.44Z" transform="translate(0 0)" fill="url(#linear-gradient-6)"/><path d="M95.47,12.32c0-4.25,10.55-7.7,14.81-7.7H317.66c1.93,0,12.89,1.19,13.58,2.88a9.49,9.49,0,0,1,3.29,2.33c2.79,1.16,4.75,12.43,4.75,15.64V146.32c0,2.85-1.55,12.89-3.85,14.23a10.06,10.06,0,0,1-4.45,3.31c-.8,1.4-10.62,2.34-12.34,2.34H110.23c-4.25,0-14.76-3.45-14.76-7.7ZM46.56,43.44a4.62,4.62,0,0,0-4.62,4.62v74.7a4.63,4.63,0,0,0,4.62,4.62h81.61V43.44Z" transform="translate(0 0)" fill="url(#linear-gradient-7)"/><path d="M111.38,11.55c0-3.4,11.05-6.16,14.45-6.16H319.91c2.25,0,11.63,1.39,12.43,3.36a8.71,8.71,0,0,1,2.76,2.5c2.23.93,3.8,13.07,3.8,15.64V145.06c0,2.28-1.24,13.09-3.08,14.15A9.29,9.29,0,0,1,332,162.7c-.93,1.63-9.34,2.73-11.35,2.73H125.78c-3.4,0-14.4-2.76-14.4-6.16ZM40.63,36.45a5.4,5.4,0,0,0-5.39,5.39V129a5.4,5.4,0,0,0,5.39,5.39h95.22V36.45Z" transform="translate(0 0)" fill="url(#linear-gradient-8)"/><path d="M127.29,10.78c0-2.55,11.55-4.62,14.1-4.62H322.15c2.58,0,10.37,1.59,11.28,3.84a8.16,8.16,0,0,1,2.23,2.67c1.67.7,2.85,13.71,2.85,15.64V143.8c0,1.71-.93,13.28-2.31,14.08a8.7,8.7,0,0,1-3.11,3.66c-1.06,1.86-8.06,3.12-10.35,3.12H141.33c-2.55,0-14-2.07-14-4.62ZM34.71,29.45a6.17,6.17,0,0,0-6.16,6.16V135.2a6.17,6.17,0,0,0,6.16,6.16H143.53V29.45Z" transform="translate(0 0)" fill="url(#linear-gradient-9)"/><path d="M143.21,10c0-1.7,12-3.08,13.74-3.08H324.4c2.9,0,9.11,1.79,10.14,4.32a7.91,7.91,0,0,1,1.69,2.84c1.11.46,1.9,14.35,1.9,15.63V142.54c0,1.14-.62,13.47-1.54,14a11.61,11.61,0,0,1-2.44,3.83c-1.52,1.87-6.78,3.51-9.36,3.51H156.88c-1.7,0-13.67-1.38-13.67-3.08ZM28.78,22.46a6.94,6.94,0,0,0-6.93,6.93v112a6.94,6.94,0,0,0,6.93,6.93H151.2V22.46Z" transform="translate(0 0)" fill="url(#linear-gradient-10)"/><path d="M159.12,9.24c0-.85,12.54-1.54,13.39-1.54H326.64c3.22,0,7.59,2.1,9,4.8a10.18,10.18,0,0,1,1.16,3c.56.23,1,15,1,15.63V141.28c0,.57-.31,13.67-.77,13.93a9.64,9.64,0,0,1-1.77,4c-1.52,2.21-5.49,3.9-8.36,3.9H172.43c-.85,0-13.31-.69-13.31-1.54ZM22.86,15.46a7.71,7.71,0,0,0-7.7,7.7v124.5a7.71,7.71,0,0,0,7.7,7.7h136V15.46Z" transform="translate(0 0)" fill="url(#linear-gradient-11)"/><path d="M328.89,162.35H175V8.47H328.89a8.48,8.48,0,0,1,8.47,8.47V153.88A8.48,8.48,0,0,1,328.89,162.35ZM16.94,8.47a8.48,8.48,0,0,0-8.47,8.47V153.88a8.48,8.48,0,0,0,8.47,8.47H166.56V8.47Z" transform="translate(0 0)" fill="url(#linear-gradient-12)"/><path d="M166.56,164.05V6.76c0-1.19,1.88-2.16,4.19-2.16h.08c2.31,0,4.19,1,4.19,2.16V164.05c0,1.19-1.88,2.16-4.19,2.16h-.08C168.44,166.21,166.56,165.25,166.56,164.05Z" transform="translate(0 0)" fill="url(#linear-gradient-13)"/></g></svg>