<svg id="Layer_1" data-name="Layer 1" xmlns="http://www.w3.org/2000/svg" viewBox="0 0 578.71 44.28"><defs><style>.cls-1{fill:#d96e4c;}.cls-2{fill:#525731;}</style></defs><title>numberline</title><path class="cls-1" d="M1.8,32.56A3.34,3.34,0,0,1,3,31.69a4.79,4.79,0,0,1,1.89-.33,4.07,4.07,0,0,1,2,.47A3.18,3.18,0,0,1,8.23,33.2a9.92,9.92,0,0,1,.83,4.44q0,3.58-1.26,5.08a3.77,3.77,0,0,1-3,1.2q-3.63,0-4.17-4.28a17.74,17.74,0,0,1-.1-2,16.25,16.25,0,0,1,.11-2A7.87,7.87,0,0,1,1,33.93,4.29,4.29,0,0,1,1.8,32.56Zm5.31,1.72a2.18,2.18,0,0,0-.85-1.14,2.47,2.47,0,0,0-1.39-.39A2.81,2.81,0,0,0,3.55,33a2.19,2.19,0,0,0-.81.71,3.51,3.51,0,0,0-.46,1.11,7.43,7.43,0,0,0-.21,1.31q0,.63,0,1.49t0,1.49a7.43,7.43,0,0,0,.21,1.31,3.51,3.51,0,0,0,.46,1.11,2.17,2.17,0,0,0,.81.71,2.6,2.6,0,0,0,1.23.28A2.6,2.6,0,0,0,6,42.25a2.25,2.25,0,0,0,.82-.71,3.17,3.17,0,0,0,.45-1.12,10.44,10.44,0,0,0,.27-2.5,18.69,18.69,0,0,0-.09-2.15A7.15,7.15,0,0,0,7.11,34.28Z"/><path class="cls-1" d="M51,43.94V33.12h-1.4V31.72h2.91V43.94Z"/><path class="cls-1" d="M95,43.77V42.65l1.29-1.12,1.3-1.14,1.12-1a13,13,0,0,0,1.06-1.11q.37-.45.76-1a3.92,3.92,0,0,0,.73-2.18,2.59,2.59,0,0,0-.55-1.73A2.15,2.15,0,0,0,99,32.64a2.27,2.27,0,0,0-1.81.73,3.07,3.07,0,0,0-.68,1.94H95a4.14,4.14,0,0,1,1.15-3,4.35,4.35,0,0,1,5.59-.05,3.53,3.53,0,0,1,1,2.69,6.39,6.39,0,0,1-2,4.22q-.72.77-1.11,1.14-1.09,1.07-2.33,2.12h5.79v1.33Z"/><path class="cls-1" d="M144.61,32a4.45,4.45,0,0,1,2.81-.85,3.86,3.86,0,0,1,2.71.91,3,3,0,0,1,1,2.32,2.93,2.93,0,0,1-.56,1.78,2.79,2.79,0,0,1-1.45,1v.09a2.9,2.9,0,0,1,1.64,1.14,3.83,3.83,0,0,1,.6,2.25,3.18,3.18,0,0,1-1,2.39,4,4,0,0,1-2.84,1,4.6,4.6,0,0,1-3-.93,3.52,3.52,0,0,1-1.28-2.63h1.47a2.31,2.31,0,0,0,.81,1.61,2.83,2.83,0,0,0,1.92.63,2.48,2.48,0,0,0,1.84-.65,2.26,2.26,0,0,0,.64-1.66,2.15,2.15,0,0,0-.85-1.93,4.76,4.76,0,0,0-2.61-.57H146V36.57h.43q3.2,0,3.2-2.08a1.92,1.92,0,0,0-.6-1.5,2.43,2.43,0,0,0-1.69-.55,2.66,2.66,0,0,0-1.72.51,2.1,2.1,0,0,0-.77,1.35h-1.5A3.19,3.19,0,0,1,144.61,32Z"/><path class="cls-1" d="M194.77,43.94V41.15h-6.34v-1.1l5.86-8.5h2v8.26h1.65v1.34h-1.65v2.79Zm.05-4.13V33l-4.58,6.81Z"/><path class="cls-1" d="M236.52,31.36h7.38v1.36H238v3.94a2.82,2.82,0,0,1,1.14-.95,3.88,3.88,0,0,1,1.75-.38,4.26,4.26,0,0,1,1.79.37,3,3,0,0,1,1.25,1,4.94,4.94,0,0,1,.83,2.82,4.65,4.65,0,0,1-1.07,3.17,3.78,3.78,0,0,1-3,1.23,4.61,4.61,0,0,1-3-.91,3.94,3.94,0,0,1-1.37-2.41h1.48a2.51,2.51,0,0,0,1,1.46,3.28,3.28,0,0,0,2,.53,2.35,2.35,0,0,0,1.91-.83,3.35,3.35,0,0,0,.69-2.22,3.05,3.05,0,0,0-.69-2.14,2.66,2.66,0,0,0-2.05-.75,2.63,2.63,0,0,0-1.58.48,2.86,2.86,0,0,0-1,1.31h-1.41Z"/><path class="cls-1" d="M288,32.41a2.5,2.5,0,0,0-2.27,1.14A7.73,7.73,0,0,0,285,37.4a3.21,3.21,0,0,1,1.36-1.32,4.27,4.27,0,0,1,2-.47,3.63,3.63,0,0,1,2.76,1.11,4.16,4.16,0,0,1,1.06,3,4.43,4.43,0,0,1-1,3.05,3.78,3.78,0,0,1-3,1.17,3.73,3.73,0,0,1-4-2.65,14.05,14.05,0,0,1-.49-4.21,7.93,7.93,0,0,1,1.06-4.35A3.63,3.63,0,0,1,288,31.09a3.69,3.69,0,0,1,2.6.89,3.43,3.43,0,0,1,1.12,2.19h-1.4a2.33,2.33,0,0,0-.77-1.33A2.45,2.45,0,0,0,288,32.41Zm2.67,7.39a3,3,0,0,0-.67-2.08,2.41,2.41,0,0,0-1.91-.77,3.15,3.15,0,0,0-2.08.7,2.49,2.49,0,0,0-.84,2,3,3,0,0,0,.73,2.13,3.07,3.07,0,0,0,4.06,0A2.89,2.89,0,0,0,290.69,39.8Z"/><path class="cls-1" d="M331.31,31.41h8.21v1.17l-4.87,11.36h-1.7L338,32.74h-6.73Z"/><path class="cls-1" d="M379.35,34.37a3.13,3.13,0,0,1,1-2.42,4.24,4.24,0,0,1,3-1,4.19,4.19,0,0,1,3,1,3.17,3.17,0,0,1,1,2.43,3,3,0,0,1-.51,1.75,3.1,3.1,0,0,1-1.33,1.11,3.06,3.06,0,0,1,1.57,1.18,3.46,3.46,0,0,1,.6,2,3.5,3.5,0,0,1-1.19,2.78,5.24,5.24,0,0,1-6.27,0A3.5,3.5,0,0,1,379,40.46a3.46,3.46,0,0,1,.6-2,3.05,3.05,0,0,1,1.58-1.18A3,3,0,0,1,379.35,34.37Zm6.85,6a2.19,2.19,0,0,0-.78-1.82,3.18,3.18,0,0,0-2.05-.63,3.25,3.25,0,0,0-2.07.63,2.18,2.18,0,0,0-.8,1.82,2.39,2.39,0,0,0,.78,1.88,3,3,0,0,0,2.09.69,3,3,0,0,0,2.08-.7A2.42,2.42,0,0,0,386.2,40.38Zm-.31-5.9a2,2,0,0,0-.67-1.57,2.77,2.77,0,0,0-1.86-.58,2.8,2.8,0,0,0-1.87.58,2,2,0,0,0-.68,1.57,2,2,0,0,0,.71,1.61,3,3,0,0,0,3.66,0A2,2,0,0,0,385.89,34.47Z"/><path class="cls-1" d="M430,42.6a2.15,2.15,0,0,0,2-1.06,7.79,7.79,0,0,0,.63-3.71,2.81,2.81,0,0,1-1.23,1.05,4.09,4.09,0,0,1-1.71.36,3.93,3.93,0,0,1-2.82-1.08,3.87,3.87,0,0,1-1.13-3,4.17,4.17,0,0,1,1.07-3,3.92,3.92,0,0,1,3-1.13,3.5,3.5,0,0,1,3.2,1.54,9.32,9.32,0,0,1,1,4.84,10.25,10.25,0,0,1-.89,4.88,3.3,3.3,0,0,1-3.14,1.58,3.77,3.77,0,0,1-2.69-.91A3.73,3.73,0,0,1,426,40.72h1.41A2.26,2.26,0,0,0,430,42.6Zm-2.81-7.44a2.84,2.84,0,0,0,.69,2,2.52,2.52,0,0,0,2,.76,2.44,2.44,0,0,0,1.92-.72,3.35,3.35,0,0,0,0-4,2.45,2.45,0,0,0-1.9-.75,2.49,2.49,0,0,0-1.92.76A2.79,2.79,0,0,0,427.15,35.15Z"/><path class="cls-1" d="M471.77,43.94V33.12h-1.4V31.72h2.91V43.94Z"/><path class="cls-1" d="M477.36,32.56a3.35,3.35,0,0,1,1.23-.87,4.79,4.79,0,0,1,1.89-.33,4.07,4.07,0,0,1,2,.47,3.19,3.19,0,0,1,1.32,1.37,9.92,9.92,0,0,1,.83,4.44q0,3.58-1.26,5.08a3.77,3.77,0,0,1-3,1.2q-3.63,0-4.17-4.28a17.73,17.73,0,0,1-.1-2,16.14,16.14,0,0,1,.11-2,7.9,7.9,0,0,1,.41-1.71A4.31,4.31,0,0,1,477.36,32.56Zm5.32,1.72a2.18,2.18,0,0,0-.85-1.14,2.47,2.47,0,0,0-1.39-.39,2.82,2.82,0,0,0-1.32.28,2.19,2.19,0,0,0-.81.71,3.55,3.55,0,0,0-.46,1.11,7.48,7.48,0,0,0-.21,1.31q0,.63,0,1.49t0,1.49a7.48,7.48,0,0,0,.21,1.31,3.55,3.55,0,0,0,.46,1.11,2.18,2.18,0,0,0,.81.71,2.91,2.91,0,0,0,2.47,0,2.26,2.26,0,0,0,.82-.71,3.18,3.18,0,0,0,.45-1.12,10.41,10.41,0,0,0,.27-2.5,18.69,18.69,0,0,0-.09-2.15A7.18,7.18,0,0,0,482.68,34.28Z"/><path class="cls-1" d="M522.09,43.94V33.12h-1.4V31.72h2.91V43.94Z"/><path class="cls-1" d="M527.55,43.94V33.12h-1.4V31.72h2.91V43.94Z"/><path class="cls-1" d="M566.41,43.94V33.12H565V31.72h2.91V43.94Z"/><path class="cls-1" d="M570.55,43.77V42.65l1.29-1.12,1.3-1.14,1.13-1a13,13,0,0,0,1.06-1.11q.37-.45.76-1a3.92,3.92,0,0,0,.73-2.18,2.59,2.59,0,0,0-.55-1.73,2.15,2.15,0,0,0-1.74-.65,2.27,2.27,0,0,0-1.81.73A3.07,3.07,0,0,0,572,35.3h-1.48a4.14,4.14,0,0,1,1.15-3,4.35,4.35,0,0,1,5.59-.05,3.53,3.53,0,0,1,1,2.69,6.4,6.4,0,0,1-2,4.22q-.71.77-1.11,1.14-1.09,1.07-2.33,2.12h5.79v1.33Z"/><rect class="cls-2" y="18.22" width="576.96" height="5.35"/><path class="cls-2" d="M3.84,0H5.3A3.82,3.82,0,0,1,9.12,3.82V19.67a0,0,0,0,1,0,0H0a0,0,0,0,1,0,0V3.82A3.82,3.82,0,0,1,3.84,0Z"/><path class="cls-2" d="M51.16,0h1.47a3.82,3.82,0,0,1,3.82,3.82V19.67a0,0,0,0,1,0,0H47.33a0,0,0,0,1,0,0V3.82A3.82,3.82,0,0,1,51.16,0Z"/><path class="cls-2" d="M98.48,0h1.47a3.82,3.82,0,0,1,3.82,3.82V19.67a0,0,0,0,1,0,0H94.65a0,0,0,0,1,0,0V3.82A3.82,3.82,0,0,1,98.48,0Z"/><path class="cls-2" d="M145.8,0h1.47a3.82,3.82,0,0,1,3.82,3.82V19.67a0,0,0,0,1,0,0H142a0,0,0,0,1,0,0V3.82A3.82,3.82,0,0,1,145.8,0Z"/><path class="cls-2" d="M193.12,0h1.47a3.82,3.82,0,0,1,3.82,3.82V19.67a0,0,0,0,1,0,0H189.3a0,0,0,0,1,0,0V3.82A3.82,3.82,0,0,1,193.12,0Z"/><path class="cls-2" d="M240.44,0h1.47a3.82,3.82,0,0,1,3.82,3.82V19.67a0,0,0,0,1,0,0h-9.11a0,0,0,0,1,0,0V3.82A3.82,3.82,0,0,1,240.44,0Z"/><path class="cls-2" d="M287.76,0h1.47A3.82,3.82,0,0,1,293,3.82V19.67a0,0,0,0,1,0,0h-9.11a0,0,0,0,1,0,0V3.82A3.82,3.82,0,0,1,287.76,0Z"/><path class="cls-2" d="M335.08,0h1.47a3.82,3.82,0,0,1,3.82,3.82V19.67a0,0,0,0,1,0,0h-9.11a0,0,0,0,1,0,0V3.82A3.82,3.82,0,0,1,335.08,0Z"/><path class="cls-2" d="M382.4,0h1.47a3.82,3.82,0,0,1,3.82,3.82V19.67a0,0,0,0,1,0,0h-9.11a0,0,0,0,1,0,0V3.82A3.82,3.82,0,0,1,382.4,0Z"/><path class="cls-2" d="M429.72,0h1.47A3.82,3.82,0,0,1,435,3.82V19.67a0,0,0,0,1,0,0H425.9a0,0,0,0,1,0,0V3.82A3.82,3.82,0,0,1,429.72,0Z"/><path class="cls-2" d="M477,0h1.47a3.82,3.82,0,0,1,3.82,3.82V19.67a0,0,0,0,1,0,0h-9.11a0,0,0,0,1,0,0V3.82A3.82,3.82,0,0,1,477,0Z"/><path class="cls-2" d="M524.36,0h1.47a3.82,3.82,0,0,1,3.82,3.82V19.67a0,0,0,0,1,0,0h-9.11a0,0,0,0,1,0,0V3.82A3.82,3.82,0,0,1,524.36,0Z"/><path class="cls-2" d="M571.68,0h1.47A3.82,3.82,0,0,1,577,3.82V19.67a0,0,0,0,1,0,0h-9.11a0,0,0,0,1,0,0V3.82A3.82,3.82,0,0,1,571.68,0Z"/></svg>