<svg xmlns="http://www.w3.org/2000/svg" xmlns:xlink="http://www.w3.org/1999/xlink" viewBox="0 0 319.1 299.34"><defs><linearGradient id="linear-gradient" x1="6545.72" y1="-2328.05" x2="6645.49" y2="-2155.53" gradientTransform="matrix(0.3, 0.95, -0.95, 0.3, -3982.67, -5516.93)" gradientUnits="userSpaceOnUse"><stop offset="0" stop-color="#fff"/><stop offset="1" stop-color="#0fa14a"/></linearGradient><linearGradient id="linear-gradient-2" x1="6492.94" y1="-2331.24" x2="6642.93" y2="-2114.01" gradientTransform="matrix(0.3, 0.95, -0.95, 0.3, -3982.67, -5516.93)" gradientUnits="userSpaceOnUse"><stop offset="0" stop-color="#fff"/><stop offset="1" stop-color="#fff" stop-opacity="0"/></linearGradient></defs><title>leaf2</title><g style="isolation:isolate"><g id="Layer_1" data-name="Layer 1"><path d="M276,142.33c-.37-13.71-5.18-27.06-11.11-39.67-18.05-38.38-49.8-73.89-92.63-85.55-24.63-6.71-50.66-5-76.19-5.45A462.41,462.41,0,0,1,0,0C33.54,39.83,43.81,63.5,60.24,118c10.66,35.37,45.91,97.8,68.68,117.25s58.06,29.07,84.36,14.91c15.36-8.27,25.24-23,34.51-37.16C262,191.29,276.68,168,276,142.33Z" transform="translate(0 0)" fill="#a0dd36"/><path d="M213.28,250.16c15.36-8.27,25.24-23,34.51-37.16,14.2-21.7,28.89-45,28.2-70.66-.37-13.71-5.18-27.06-11.11-39.67-2-4.34-4.28-8.63-6.66-12.86a100.91,100.91,0,0,1,.4,12.49c-.28,8.73-2.53,21.39-6.55,35.31-3.9,13.48-22.19,17.46-32.52,7.17C188,113.28,132.51,66.05,64.29,41.7c0,0,111.66,68.07,148.51,121.75a39.25,39.25,0,0,1-18,59.23,38.52,38.52,0,0,1-23.58,1.69c-46.77-11.17-71.09-61.64-91.76-97.81C59.77,92.13,44.12,19.42,2.94,3.56,34.11,41.26,44.31,65.16,60.24,118c10.66,35.37,45.91,97.8,68.68,117.25S187,264.32,213.28,250.16Z" transform="translate(0 0)" opacity="0.5" fill="url(#linear-gradient)" style="mix-blend-mode:multiply"/><path d="M64.29,41.7l14.94,4.71c4.67,1.73,10.43,3.68,16.91,6.22s13.73,5.55,21.45,9.24c3.92,1.73,7.91,3.73,12,5.86S138,72,142.18,74.46c8.59,4.74,17.41,10.15,26.28,16.1,4.4,3,9,6,13.32,9.34S190.7,106.45,195,110s8.77,7.06,12.95,10.87l6.39,5.63,6.16,5.87,6.14,5.9,5.88,6.11c4,4,7.72,8.21,11.38,12.41s7.24,8.41,10.66,12.66,6.73,8.5,9.87,12.76l2.36,3.17,1.17,1.58.58.79.15.2.07.1.22.33.26.4,4.12,6.28c2.73,4.08,5.27,8.68,7.81,12.84q7.22,12.58,13,23.6c3.9,7.34,7.3,14.12,10.3,20.18S310,263.1,312,267.59s3.58,8.07,4.6,10.61l1.58,3.86c2.73,6.65-.76,14-7.8,16.49s-15-.95-17.69-7.6c-.1-.24-.19-.49-.27-.73l-.23-.69L291,286.09c-.73-2.23-1.82-5.52-3.51-9.87s-3.69-9.56-6.14-15.59-5.34-12.82-8.63-20.15S265.79,225.18,261.8,217c-2.1-4-3.9-8-6.4-12.33l-3.68-6.51-3.81-6.1c-2.64-4.26-5.36-8.59-8.37-12.82s-5.89-8.62-9.16-12.81-6.4-8.54-9.9-12.66l-5.15-6.28-5.42-6.09-5.45-6.08-5.7-5.86c-3.73-4-7.68-7.7-11.63-11.4s-8-7.26-12-10.75S167,100.55,163,97.3C154.82,90.87,146.64,85,138.62,79.7c-3.94-2.73-7.94-5.16-11.82-7.5s-7.6-4.64-11.33-6.63C108.17,61.37,101.21,58,95,54.89S83.31,49.56,78.8,47.5Z" transform="translate(0 0)" fill="#aa3309"/><path d="M45,25.28c-2.43-4.45,1.2-9.6,6.48-9.13,20,1.78,61.56,5.2,84.15,5.06,30.49-.2,82.48,9.49,93.8,42.63-16.87-22-60-35.94-83.75-35.53-18.16.31-64.84-2.41-85.9-3.72-4.49-.28-7.37,4.28-5,7.92l32.92,77.61S59.6,52.13,45,25.28Z" transform="translate(0 0)" opacity="0.5" fill="url(#linear-gradient-2)" style="mix-blend-mode:screen"/><path d="M175,100.18s-4.77,1.21-12.15,2.83l-6,1.29-6.81.71c-2.35.19-4.91,0-7.43.08s-5-.41-7.57-.6-5-.8-7.46-1.17-4.81-1.07-7.12-1.56-4.48-1.18-6.56-1.74-4-1.15-5.82-1.73c-7.18-2.21-11.9-3.86-11.9-3.86s4.81,1.41,12.08,3.25c1.81.49,3.79,1,5.89,1.42s4.29,1,6.6,1.4,4.66.94,7.1,1.19,4.89.69,7.36.78,5,.33,7.35.21,4.72-.12,7-.42l6.56-1L162,99.67c7.1-1.95,11.88-3.42,11.88-3.42Z" transform="translate(0 0)" fill="#aa3309"/><path d="M206.77,136.17l-4,.91c-2.51.59-6.07,1.56-10.56,2.52-2.23.47-4.73.9-7.27,1.22s-5.39.58-8.21.74c-5.68.35-11.73.42-17.78.27a227.44,227.44,0,0,1-33.06-3.12c-4.47-.76-8.13-1.66-10.68-2.32l-4-1.18,4,1c2.57.55,6.26,1.31,10.73,1.88a226.16,226.16,0,0,0,32.94,1.78c6-.1,12-.41,17.51-1,2.79-.28,5.41-.64,7.91-1a70.05,70.05,0,0,0,7-1.5c4.22-1.13,7.8-2.3,10.34-3l3.94-1.11Z" transform="translate(0 0)" fill="#aa3309"/><path d="M239.6,170.33l-4.25,2.22-4.88,2.55a35.94,35.94,0,0,1-6.61,3l-8.23,3-2.21.79-2.36.5-4.86,1A57.58,57.58,0,0,1,196,185c-3.54.24-7.12.62-10.71.75l-10.73-.51c-3.55,0-6.95-.95-10.28-1.37a69.82,69.82,0,0,1-9.48-1.89l-8.34-2.3a52.45,52.45,0,0,1-6.9-2.35l-5.24-2-4.56-1.75,4.63,1.59,5.3,1.82a52.56,52.56,0,0,0,7,2.1l8.37,2a69,69,0,0,0,9.46,1.54c3.31.3,6.68,1.15,10.18,1l10.54.12c3.51-.26,7-.76,10.42-1.11a55,55,0,0,0,9.88-2l4.66-1.16,2.25-.56,2.08-.83,7.68-3.07a33.59,33.59,0,0,0,6.32-3.11l4.77-2.72,4.16-2.37Z" transform="translate(0 0)" fill="#aa3309"/><path d="M172.17,93.75l.91-1.95a37.35,37.35,0,0,0,2.18-5.13l1.07-3.45a31.73,31.73,0,0,0,.85-4,67.49,67.49,0,0,0,1-8.93c0-3.08.09-6.17-.17-9.07s-.43-5.61-.67-7.93l-.95-7.73,1.47,7.67c.4,2.31.89,5,1.22,7.92s.57,6,.79,9.17a69.52,69.52,0,0,1-.41,9.23,33.64,33.64,0,0,1-.61,4.25L178,87.6A38.72,38.72,0,0,1,176.09,93l-.77,2Z" transform="translate(0 0)" fill="#aa3309"/><path d="M200.2,115.77l2.74-8.24,1.33-4c.48-1.42.68-2.94,1-4.51l2.11-9.86c.32-3.43.64-6.86.94-10.08a42,42,0,0,0,.32-4.66l-.19-4.18-.39-8.67.92,8.65.45,4.21a42.52,42.52,0,0,1,0,4.7l-.33,10.24-1.54,10.18c-.29,1.61-.4,3.24-.8,4.67l-1.08,4.06-2.23,8.38Z" transform="translate(0 0)" fill="#aa3309"/><path d="M226.14,147.53l1.71-2.59,2-3a21.68,21.68,0,0,0,2.27-3.92l2.31-4.75a41.43,41.43,0,0,0,2.06-5.56,38.6,38.6,0,0,0,1.78-6.11l1.33-6.45.59-6.57a45.3,45.3,0,0,0,.13-6.4,56.32,56.32,0,0,0-.22-6l-.61-5.37a78.19,78.19,0,0,0-1.45-8l-.63-3,.77,3A79,79,0,0,1,240,90.75l.87,5.38a57.28,57.28,0,0,1,.51,6,46.42,46.42,0,0,1,.18,6.49c-.1,2.21-.19,4.46-.29,6.71l-1,6.64a40.22,40.22,0,0,1-1.52,6.35,43.18,43.18,0,0,1-1.86,5.85l-2.21,5.12a23,23,0,0,1-2.14,4.13l-1.82,3.05-1.59,2.66Z" transform="translate(0 0)" fill="#aa3309"/></g></g></svg>