<svg id="Layer_1" data-name="Layer 1" xmlns="http://www.w3.org/2000/svg" viewBox="0 0 44.6 18.42"><defs><style>.cls-1{fill:#7ae700;}</style></defs><title>jump-dotted-line</title><path class="cls-1" d="M.66,18.39l.2,0a.86.86,0,0,0,.84-.66A21.1,21.1,0,0,1,3.5,13,.86.86,0,1,0,2,12.18a22.82,22.82,0,0,0-2,5.18A.86.86,0,0,0,.66,18.39Z"/><path class="cls-1" d="M5.75,9.05a.86.86,0,0,0,.65-.29,21.36,21.36,0,0,1,3.82-3.4.86.86,0,0,0-1-1.41A23.1,23.1,0,0,0,5.11,7.62a.86.86,0,0,0,.64,1.43Z"/><path class="cls-1" d="M14.43,3A.86.86,0,0,0,14.73,3a21.11,21.11,0,0,1,5-1.23A.86.86,0,0,0,19.48,0a22.86,22.86,0,0,0-5.36,1.34A.86.86,0,0,0,14.43,3Z"/><path class="cls-1" d="M42.91,17.63a.86.86,0,0,0,.83.65l.21,0a.86.86,0,0,0,.63-1,22.82,22.82,0,0,0-2-5.16.86.86,0,0,0-1.52.81A21.12,21.12,0,0,1,42.91,17.63Z"/><path class="cls-1" d="M24.81,1.72a21.15,21.15,0,0,1,5,1.2.86.86,0,1,0,.6-1.61A22.88,22.88,0,0,0,25,0a.86.86,0,0,0-.2,1.71Z"/><path class="cls-1" d="M38.15,8.66a.86.86,0,0,0,1.28-1.15,23.1,23.1,0,0,0-4.15-3.65.86.86,0,1,0-1,1.42A21.33,21.33,0,0,1,38.15,8.66Z"/></svg>