<svg id="Layer_1" data-name="Layer 1" xmlns="http://www.w3.org/2000/svg" viewBox="0 0 113.69 126.42"><defs><style>.cls-1{fill:#342c29;}.cls-2{fill:#4e423e;}.cls-3{fill:#8b756d;}.cls-4{fill:#685852;}.cls-5{fill:#8e423e;}.cls-6{fill:#ff756d;}.cls-7{fill:#e86767;}.cls-8{fill:#04173c;}.cls-9{fill:#2b90f3;}.cls-10{fill:#98e2ea;}.cls-11{fill:#97dadd;}.cls-12{fill:#b77748;}.cls-13{fill:#895936;}.cls-14{fill:#1c1308;}.cls-15{fill:#060608;}.cls-16{fill:#206eb6;}.cls-17{fill:#515657;}.cls-18{fill:#292b2c;}.cls-19{fill:#151616;}.cls-20{fill:#72aab0;}.cls-21{fill:#0b1314;}.cls-22{fill:#395558;}.cls-23{fill:#3d4141;}.cls-24{fill:#212325;}.cls-25{fill:#293133;}.cls-26{fill:#1f2526;}</style></defs><title>cassowarySmall</title><path class="cls-1" d="M54.54,119.44a3.3,3.3,0,0,0,2.72,1.07c1.82,0,3.61.29,4.28,1.05a5.89,5.89,0,0,1,.83,1.1c.26.38-.22.2-.65-.12a3.93,3.93,0,0,0-1-.14,25.42,25.42,0,0,0-2.87-.11c-1.4,0-4.42.7-4.55,0S53.93,119,54.54,119.44Z"/><path class="cls-2" d="M46.18,73.87c-1.41,1.07,0,4.75-1,7s-1.77,3.62-1.45,5.86,2.83,12.31,2.6,15.61.53,12.11,0,14.07-.48,3.35.59,4.52c.69.76,1,2.05,1.87,2.17,1.32.17,2.29.59,3.24.68,1.74.18,5.07-1.51,6.58-.91s3.58.49,4.38.89.47-.35.05-.82a8.39,8.39,0,0,0-3.34-2.06c-1.22-.25-3.34.17-5-1.34s-1.81-1.39-2.15-3.11a72.66,72.66,0,0,1-1-11.4c.19-2.51-1-9.05-.71-10.54s2.86-5.44,3.34-7.68a9.58,9.58,0,0,1,4.59-5.86C60.9,79.7,48.3,72.25,46.18,73.87Z"/><path d="M41,75c2.66.62,3.4,2.39,3.91,4s-1.54,8.12,1.47,7.22c1.66-.5,2.63.54,3.94,1.36.91.56,2.57.85,2.87,1.48s2.26-2.25,3.28-3.55a21.85,21.85,0,0,0,2.87-5.29c.9-2.55,2-4.77,3.6-5.89s.91-6.25-5.46-6.34S39.48,74.6,41,75Z"/><path class="cls-2" d="M53.31,121.69c1.82,0,3.61.29,4.28,1.05a5.94,5.94,0,0,1,.83,1.1c.26.38-.22.2-.65-.12a4,4,0,0,0-1-.14,11.67,11.67,0,0,0-3,0C52.38,123.78,51.56,121.68,53.31,121.69Z"/><path class="cls-3" d="M95.67,10.68a1.81,1.81,0,0,1-.2-2.15c.62-.94,1.71-3.68,3-4.41s1-1.32,1.65-2.13S102.67-.5,103.6.15s3.67,3.4,4,5.53a18.78,18.78,0,0,1,0,5.71c-.19.71.13.51.81.7s2.22.46,2.49,1-3.1,1-4.11.6-7.88-.49-9.29-1.42S95.95,11.15,95.67,10.68Z"/><path class="cls-2" d="M110.92,13.13c-.27-.58-1.81-.85-2.49-1s-1,0-.81-.7a18.78,18.78,0,0,0,0-5.71c-.37-2.13-3.11-4.88-4-5.53l-.1-.06a14,14,0,0,1,3,4.86c.55,2.06.08,3.61.3,4.47.32,1.23-.08,3.9-1.92,4a10.89,10.89,0,0,1,1.93.27C107.82,14.1,111.19,13.7,110.92,13.13Z"/><path class="cls-4" d="M102.73.75c-.71.38-2.29,1.44-2.35,2.2a3.4,3.4,0,0,1-1.87,2.46c-1,.32-2.86,4-2.27,3.88a12.32,12.32,0,0,1,6.21.07c.9.34,2.25.83,2.41.15a10.56,10.56,0,0,0,.6-3.76C105.27,3.9,103.73.21,102.73.75Z"/><path class="cls-2" d="M110.92,13.13a.93.93,0,0,0-.39-.37,22.66,22.66,0,0,0-3.6-.55,3.68,3.68,0,0,1-1.53-.23c-.29-.17-1.09-1-1.91-1.57a6.84,6.84,0,0,0-3.3-.66h-3c-.52,0-1.9.44-1.7.73l.13.21c.28.47.44.68,1.85,1.62s8.29,1,9.29,1.42S111.19,13.7,110.92,13.13Z"/><path class="cls-5" d="M97.81,40.58c-.34,1.36-1.33,5.12-.63,5.57s1.75-1.18,1.88-2.52a15.72,15.72,0,0,0-.42-5C98.3,38,98.06,39.57,97.81,40.58Z"/><path class="cls-6" d="M101.27,34.43a16.57,16.57,0,0,0-.63,4.16c.06,1.24.26,3.19.4,4.27s.45,4-.4,4-1.5-.1-1.78-2,.59-4-.28-5.37c-.74-1.14.22-2,.8-3.18S101.47,33.72,101.27,34.43Z"/><path class="cls-7" d="M100.11,37.62c-.15-.69.75-1.64,0-2.48a5.56,5.56,0,0,0-.77,1.16c-.57,1.21-1.54,2-.8,3.18s.32,2.47.24,3.95a7.17,7.17,0,0,0,.29,1.93c.23.73,1.22,1.16,1.47.59a6.17,6.17,0,0,0,0-2.36c-.06-.6-.24-1.75-.32-2.92S100.23,38.22,100.11,37.62Z"/><path class="cls-8" d="M105.54,15.25a18.12,18.12,0,0,1-3.15,1.94c-1,.45-1.15,1.39-1.79,1.22a.9.9,0,0,1-.4-1.6c.68-.77.47-1.21,1.78-1.52S106.1,14.8,105.54,15.25Z"/><path class="cls-9" d="M113.09,14a11.26,11.26,0,0,0-4-1.42c-1.39-.17-2.76-.2-3.37-.26S104.42,11,103,10.4s-2.48-.3-4.18-.46a5.17,5.17,0,0,0-3.72.93c-1.27.74-1.35,2.53-2.22,4-.76,1.27-.64,4.45-.56,5.27.16,1.7.86,2.22,1.58,4.29s.34,4.61-1.27,5.77-8,6.14-4.82,10.06,7,6.48,8.3,4.91,3.05-7.23,4.38-9,1.6-5.8,1.23-8.27-1.71-7.21-1.42-8.33a8.59,8.59,0,0,1,1.91-3.35c.91-.72,2.47-.55,3.39-.78a19.68,19.68,0,0,1,4.06-.3c1.2,0,3.14.17,3.42.12s.27-.16.4-.13.25.08.23-.12A1.37,1.37,0,0,0,113.09,14Z"/><path class="cls-10" d="M112.06,15.19a5.55,5.55,0,0,0,.6-1.43,12,12,0,0,0-3.52-1.16c-1.39-.17-2.76-.2-3.37-.26S104.42,11,103,10.4s-2.48-.3-4.18-.46a5.17,5.17,0,0,0-3.72.93c-1.27.74-1.35,2.53-2.22,4-.76,1.27-.64,4.45-.56,5.27v.08C92.5,17.55,94,15.65,95.67,16a5.59,5.59,0,0,0,3.79-.65c.6-.35.5-1.31,1.5-1.13.79.14,3.77-.09,6,.93a24.75,24.75,0,0,1,2.62-.09C110.35,15.09,111.33,15.15,112.06,15.19Z"/><path class="cls-11" d="M103,13.11a4.64,4.64,0,0,1-.81-.79c-.36-.44-.51-.81-1.07-.69s-1.05.87-1.88.95-1,.47-.56.88a4.59,4.59,0,0,0,2.4.67,5.19,5.19,0,0,0,2.11-.27C103.6,13.58,103.15,13.26,103,13.11Z"/><path class="cls-11" d="M105.77,12.33c-.62-.06-1.35-1.34-2.78-1.94s-2.48-.3-4.18-.46a5.17,5.17,0,0,0-3.72.93c-1,.58-1.26,1.79-1.75,3,.12-.31.33-.66.41-.84a5.65,5.65,0,0,1,2.6-2.42,5.32,5.32,0,0,1,2.79.13c.51.06.53-.29,1.4-.33a5.66,5.66,0,0,1,3.15.89c.59.54.92.65,1.31,1.26.09.14.74.17,1,.34s.51-.17.71-.48Z"/><path class="cls-9" d="M102.53,13.2a1.05,1.05,0,0,1-.36-.37,1.17,1.17,0,0,0-.69-.64,1,1,0,0,0-1.05.34c-.18.3-.36.63-.1,1s.38.6.91.54.87-.65,1-.59S102.64,13.31,102.53,13.2Z"/><path class="cls-12" d="M102,12.87a.77.77,0,0,1-.56.93.76.76,0,1,1-.38-1.46A.76.76,0,0,1,102,12.87Z"/><path class="cls-13" d="M100.43,13c.16.33,1.13.4,1.51-.23a.77.77,0,0,0-.92-.46A.79.79,0,0,0,100.43,13Z"/><path class="cls-14" d="M102,12.87a.83.83,0,0,1-.06.6.73.73,0,0,1-.2.24.78.78,0,0,1-.29.14.88.88,0,0,1-.62-.09.84.84,0,0,1-.24-.2.74.74,0,0,1-.15-.28.8.8,0,0,1,.09-.62.82.82,0,0,1,.82-.4.75.75,0,0,1,.3.11.76.76,0,0,1,.23.21A.89.89,0,0,1,102,12.87Zm0,0a.65.65,0,0,0-.37-.43.86.86,0,0,0-.27-.07.79.79,0,0,0-.28,0,.74.74,0,0,0-.44.32.72.72,0,0,0-.09.54.65.65,0,0,0,.34.43.78.78,0,0,0,.55.06.77.77,0,0,0,.45-.32A.71.71,0,0,0,101.94,12.88Z"/><path class="cls-15" d="M101.56,13a.31.31,0,0,1-.22.38.28.28,0,0,1-.33-.24.29.29,0,0,1,.56-.14Z"/><path class="cls-11" d="M106,12.86c.13.09.28.34-.1.6a7.4,7.4,0,0,1-1.93.66,9.18,9.18,0,0,0,2.57-.3c.52-.28.87-.13.55-.58S105.89,12.77,106,12.86Z"/><path class="cls-16" d="M105.66,15.36c-.08-.43-.8-.8-1.34-.81-.38,0-.71.11-1.09.13s-.5.43-.67.6-.1.49-.66,1.16a2.35,2.35,0,0,1,.29-.28c.91-.72,2.47-.55,3.39-.78Z"/><path class="cls-17" d="M113.69,14.94a1.37,1.37,0,0,0-.6-.93,11.26,11.26,0,0,0-4-1.42c-1.1-.14-2.2-.19-2.91-.23-.23.08-.06.19-.2.34s.26.16.46.46,0,.43-.59.59a18.33,18.33,0,0,1-3.24.5c-.87,0-2.1.13-2.1.35s.46.21.72.21a25.62,25.62,0,0,1,3.59-.12c.36.12.13.62.6.7l.11,0a19.68,19.68,0,0,1,4.06-.3c1.2,0,3.14.17,3.42.12s.27-.16.4-.13S113.7,15.15,113.69,14.94Z"/><path class="cls-18" d="M112.45,14.9c-.47-.12-1.51-.26-2-.44a5,5,0,0,0-1.58-.29,17.37,17.37,0,0,0-3.29.27,7.82,7.82,0,0,1-1.24.21,2.15,2.15,0,0,1,.54,0c.36.12.13.62.6.7l.11,0a19.68,19.68,0,0,1,4.06-.3c1.2,0,3.14.17,3.42.12a.92.92,0,0,0,.23-.1Z"/><path class="cls-19" d="M113.3,15.1s-.06,0-.09,0l-.58-.16-.78-.18c-.52-.12-1-.25-1.55-.38a12.08,12.08,0,0,0-1.59-.24c-.53,0-1.07-.07-1.6-.07h-.4l-.4,0-.8.09-1.59.14c-1.06.09-2.12.18-3.18.31h0l1.6-.08c.53,0,1.06-.07,1.6-.12s1.06-.13,1.59-.19l.79-.09.4,0h.4c.53,0,1.06,0,1.59.11a14,14,0,0,1,1.57.25l.78.18.79.16.79.14.58.11s.06,0,.09,0Z"/><path class="cls-16" d="M96.53,17.27c-.71-.47,1,1,1.92,2.71a7.18,7.18,0,0,1,.45,2.35c.54,2.33,1.36,3.38,1.54,4.94s.66,2,.61,1.23-.66-4.33-.85-5.46a6.45,6.45,0,0,1,.13-2.15,4.25,4.25,0,0,1,0-1.39,10.49,10.49,0,0,1,1.49-2.92c-1.43,1.65-1.36,1-2.49,1.31A3.43,3.43,0,0,1,96.53,17.27Z"/><path class="cls-11" d="M96.13,11.8a1.94,1.94,0,0,0-.36,1c0,.32-.3,1.24.18,1.54s.95.7,1.47.09.64-.83.62-1.33.23-.94-.12-1.27A1.65,1.65,0,0,0,96.13,11.8Z"/><path class="cls-20" d="M96.23,12.37A1.87,1.87,0,0,0,96,14c.29.64,1,.78,1.18.27s.35-.62.25-1.18-.56-.92-.75-.91S96.3,12.22,96.23,12.37Z"/><path class="cls-21" d="M96.37,13.25c-.15.05-.17.13-.11.42s.43.53.53.3a1,1,0,0,0,.15-.44C96.9,13.19,96.57,13.18,96.37,13.25Z"/><path class="cls-20" d="M96.13,12.26a.69.69,0,0,1,.81-.11c.31.21.52.44.52.64s.14.38.13.21.11-.38-.08-.64-.16-.4-.46-.42-.65,0-.79.12S96,12.33,96.13,12.26Z"/><path class="cls-22" d="M96.23,13.68c0-.09-.09-.27,0-.36s.07-.13.21-.14.25-.05.15-.06a.5.5,0,0,0-.33,0c-.06.06-.11,0-.11.24S96.25,13.78,96.23,13.68Z"/><path class="cls-23" d="M111.45,13.88a.87.87,0,0,0-.3-.47c-.17-.09-.3-.27-.55-.25a1,1,0,0,0-.62.19c-.1.12-.13.47.13.53A2,2,0,0,0,111,14C111.21,13.93,111.48,14,111.45,13.88Z"/><path class="cls-24" d="M111.15,13.41c-.17-.09-.3-.27-.55-.25a1,1,0,0,0-.62.19c-.1.12-.13.47.13.53l.07,0c.07,0,.24-.1.48-.17s.8.15.75,0A.69.69,0,0,0,111.15,13.41Z"/><path class="cls-24" d="M109.85,13.64c0-.08,0-.27.05-.32a.65.65,0,0,1,.35-.16,1.34,1.34,0,0,1,.52,0c.15.05.08,0,0,0s-.22,0-.29,0a.52.52,0,0,0-.22,0,1.58,1.58,0,0,1-.26.06.24.24,0,0,0-.18.12.58.58,0,0,0-.06.26C109.82,13.6,109.86,13.69,109.85,13.64Z"/><path class="cls-23" d="M110.58,14.05a1.19,1.19,0,0,0,.36,0,1.91,1.91,0,0,1,.34-.07c.11,0,.19,0,.08,0a.49.49,0,0,0-.23,0,.81.81,0,0,1-.25,0C110.77,14.08,110.41,14,110.58,14.05Z"/><path class="cls-9" d="M95.42,14.46a1.27,1.27,0,0,1-.16,1c-.22.22-.12.45-.61.64-.89.33,1.17.76,2,.63,1.38-.22,2.55-1.11,1.93-.94-.46.13-.81.16-.66-.37s.88-1,.41-.92-1.18.4-1.7.44C95.63,15,95.33,14.2,95.42,14.46Z"/><path class="cls-11" d="M92.87,14.84a3.17,3.17,0,0,0-.31.77.44.44,0,0,0,.2.5c.36.27.36.15.28-.39a3.92,3.92,0,0,1,.27-1.78A6.84,6.84,0,0,1,92.87,14.84Z"/><path class="cls-16" d="M100.47,36.11a7.12,7.12,0,0,0,1.07-2.73c-.64,1.75-2.39-2.41-3-3.74-.83-1.83-2.27-.08-2.85,1s-1,1.6-1.23.68-2.91,1.08-2.91,1.08-1.3,1.77-2.75,4.21,2.1,5.13,5.65,5.49a5.38,5.38,0,0,0,4-1.83A23.89,23.89,0,0,1,100.47,36.11Z"/><path class="cls-6" d="M95,24.72c-.55-1.24-1.59-3.49-1.79-4.19a7.37,7.37,0,0,1-.46-1.72c-.07-.78-.07-1.67-.1-2.08s-.23-.35-.27-.06a18.38,18.38,0,0,0-.06,3.44c.16,1.7.86,2.22,1.58,4.29s.34,4.61-1.27,5.77c-1.17.84-4.89,3.71-5.6,6.71,2.37-1,6.62-5.67,7.7-6.75S95.53,26,95,24.72Z"/><path class="cls-7" d="M94.66,27.26c0-.3-.31-1.16-.59-2.22.45,1.93,0,4.09-1.45,5.14a23.37,23.37,0,0,0-2.94,2.51,1.5,1.5,0,0,0,.22.29c.21.15,2.64-1.92,3.76-3A2.85,2.85,0,0,0,94.66,27.26Z"/><path class="cls-25" d="M93.1,38.27c.93-1,2.87-1.54,2.87-3s.09-5.36,1-4.68,2.56,2.87,2.56,4.58a16.08,16.08,0,0,1-1.19,6.16c-.29.89-2.5,3.1-3.87,5.55-2.07,3.7-5.1,7.83-6.58,11.23-1.38,3.15-8.33,8.17-12.92,10.72S60.09,77.41,51.1,77s-22.94,0-28.29,3.45-10.5,5.16-11.09,6.78-1,2.55-2.29,2.21a5.77,5.77,0,0,0-2.8.07c-.76.1-1.53-.24-2.46-1.35S1.77,86.49,1.35,87s-.85-3-.6-6.55.7-8.68-.08-8.51-1.2-2.3.5-4.59,1.1-2.89,1.27-4.59,2.29-4.59,4.25-5.87.59-2.13,2-3.23,2-5.19,5.69-7.23S32.7,35.79,37.8,34.51s19.89-3.11,27.79-3.57,18.67.19,20.18.19,5.3-.2,5.41.15c0,0,0,0-.06.07-.31.36,1.13.91,1.75.89s.39,1.44.14,2.14a15.64,15.64,0,0,0-.84,3.34C92.18,38.74,92.72,38.66,93.1,38.27Z"/><path class="cls-26" d="M32.28,61.82c2-2.64,4.33-6.21,2-6.89s-5.35-.26-4.93-1.87-4.5-1-5.95-.51-5-.68-4.93-1.62.76-2.21-1.44-2.64-3.23,1.28-2.12-.94a11.34,11.34,0,0,1,2.81-2.8c-1.43.81-2.59,1.46-3.32,1.87-3.74,2-4.33,6.12-5.69,7.23s0,2-2,3.23-4.08,4.17-4.25,5.87.42,2.3-1.27,4.59S-.1,72.11.68,71.94,1,76.88.75,80.45s.17,7.06.6,6.55,1.87.09,2.8,1.19,1.7,1.45,2.46,1.35a5.77,5.77,0,0,1,2.8-.07c1.27.34,1.7-.59,2.29-2.21s5.74-3.34,11.09-6.78a14.83,14.83,0,0,1,3.77-1.61,33.72,33.72,0,0,1,2.13-5C30.32,70.24,30.24,64.46,32.28,61.82Z"/><path class="cls-26" d="M61.63,75.18a83.8,83.8,0,0,0,13.3-6.38c4.59-2.55,11.54-7.57,12.92-10.72A46,46,0,0,1,91,52.45a12.38,12.38,0,0,1-2.13-3.05c-.93-2.21-1.27-2.89-3.57-1.7s-4.67-1.45-8.33,1-5.18,2.94-7.48,1.94-4.67,1-5.78,1.47-11.56-7.74-10.37-5.27,1.78,1.62,4.08,6.72,5.1,7.49,5.1,10.89-.68,8.94-.89,10.72Z"/><path class="cls-26" d="M69.92,30.79c-1.49,0-3,.07-4.33.15-7.89.47-22.69,2.3-27.79,3.57S18.09,44.38,14.35,46.42a8.21,8.21,0,0,0-2.11,1.65c.2,3,1.33,4.73,2.36,2.86,2.29-4.17,9.6-6,11.13-8.58s9.6-3.24,11-4.6,8.58-1.53,11.81-3.51C50.55,33,61.87,31.62,69.92,30.79Z"/><path class="cls-26" d="M98.31,41.3a24.16,24.16,0,0,0,1.07-4c-.92,3.56-2.65,4.15-3.86,5-1.85,1.37-5.31,9.35-6.19,7.91-.44-.72-.63,4.14-.41,5.7,1.6-2.92,3.87-6.15,5.53-9.11C95.81,44.39,98,42.19,98.31,41.3Z"/><path class="cls-26" d="M62.24,69.54c-.52,2.91-5.41,2.31-9,3.85s-10.19,1.4-16.05,1.79-8.18-.83-7.86-3.09c.3-2.11-7.55,5.07-7,8.67l.45-.29C28.16,77,42.12,76.65,51.1,77c7.58.32,16.07-3.95,21.29-6.82C70.45,68.76,62.41,68.59,62.24,69.54Z"/><path class="cls-4" d="M46.85,121.94a3.12,3.12,0,0,0,2.65.93c1.82,0,3.61.29,4.28,1.05a5.93,5.93,0,0,1,.83,1.09c.26.38-.22.2-.65-.12a4,4,0,0,0-1-.14,25.41,25.41,0,0,0-2.87-.11c-1.4,0-4.42.7-4.55,0S46.24,121.48,46.85,121.94Z"/><path class="cls-3" d="M38.4,76.28c-1.41,1.07,0,4.75-1,7s-1.77,3.62-1.45,5.86,2.83,12.31,2.6,15.61.53,12.11,0,14.07-.48,3.35.59,4.52c.69.76,1,2.05,1.87,2.17,1.32.17,2.29.59,3.24.69,1.74.17,5.07-1.51,6.58-.91s3.58.49,4.38.89.47-.35,0-.82a8.4,8.4,0,0,0-3.34-2.06c-1.22-.25-3.34.17-5-1.34s-1.81-1.39-2.15-3.11a72.65,72.65,0,0,1-1-11.4c.19-2.51-1-9.05-.71-10.54s2.86-5.44,3.34-7.68a9.59,9.59,0,0,1,4.59-5.86C53.12,82.11,40.52,74.67,38.4,76.28Z"/><path class="cls-4" d="M40.9,124.37c-1-1.29-2-3.7-1.33-5.49s-.25-7.34-.45-9.57.25-6.38-.3-8.81S37.59,92.45,36.91,90s-.59-2.13,0-2.94A6.06,6.06,0,0,1,40,84.43c.38-.13.35-2.18-2.5-1.54a3.33,3.33,0,0,1-.15.38c-1.07,2.23-1.77,3.62-1.45,5.86s2.83,12.31,2.6,15.61.53,12.11,0,14.07-.48,3.35.59,4.52c.69.76,1,2.05,1.87,2.17,1.32.17,2.29.59,3.24.69a3.46,3.46,0,0,0,.63,0C43.58,125.79,41.62,125.34,40.9,124.37Z"/><path class="cls-26" d="M33.73,77.51c2.1,0,3.69,2.41,3.35,4.11-.19,1-.11,4,1.21,5,1,.72,5.84,3.45,6.24,4.72,1,3.19,7.06-6.12,8-8.68s4.09-6.07,6.13-6.54-1.61-5.6-8-5.69S32.13,77.54,33.73,77.51Z"/><path class="cls-3" d="M45.86,124.05c1.82,0,3.61.29,4.28,1.05a5.91,5.91,0,0,1,.83,1.1c.26.38-.22.2-.65-.12a3.94,3.94,0,0,0-1-.14A19.43,19.43,0,0,0,46,126c-1.39.19-2.86-.43-3-1.13S44.11,124,45.86,124.05Z"/></svg>