<svg id="Layer_1" data-name="Layer 1" xmlns="http://www.w3.org/2000/svg" viewBox="0 0 44.27 94.98"><defs><style>.cls-1{fill:#a87c4f;}.cls-2{fill:#8a5d3b;}.cls-3{fill:#284da0;}.cls-4{fill:#223369;}.cls-5{fill:#dd1f26;}.cls-6{fill:#be1e2d;}.cls-7{fill:#fff100;}.cls-8{fill:#098442;}.cls-9{fill:#dbcc23;}.cls-10{fill:#fff;}.cls-11{fill:#f9ec31;}.cls-12{fill:#231f20;}.cls-13{fill:#2d2926;}.cls-14{fill:#e8c270;}.cls-15{fill:#404041;}.cls-16{fill:#f7d593;}.cls-17{fill:#00a14b;}</style></defs><title>parrotSmall</title><path class="cls-1" d="M42.18,40.81l-.95.54a5.08,5.08,0,0,0-1,.94c-.12.28-7.27.43-9,.62s-9.29.18-9.29.18l-10.37.72c-1.5.1-8.62.82-11.27,1.09L0,42H1.28L9,41l9.61-.69,6.72-.47,10.19.34,8.72-.61-2.65.9Z"/><path class="cls-2" d="M42.64,41.05l-.81.82.4.59.32.78-.89.69s-4,.18-5.62.29-4.77.51-6.12.4-6.16-.32-7.66-.22-9.41.83-9.41.83L.35,46.8.21,44.9c2.65-.27,9.77-1,11.27-1.09l10.37-.72s7.52,0,9.29-.18,8.92-.34,9-.62a5.08,5.08,0,0,1,1-.94l.95-.54-.56-.33,2.65-.9-1.48,1.18Z"/><path class="cls-2" d="M30.46,40.85a6.68,6.68,0,0,1,1.2,0l1.28,0,1.58-.06c2.24-.1,4.07-.21,4.08-.15A27.46,27.46,0,0,1,34.5,41c-.57,0-1.11,0-1.6,0l-1.3,0A5.22,5.22,0,0,1,30.46,40.85Z"/><path class="cls-2" d="M13.23,42.83a25,25,0,0,1,2.93-.4c1.82-.19,4.35-.45,7.19-.54,5.55.09,10,0,10,.08a26.73,26.73,0,0,1-3,.17l-3.22.06c-1.2,0-2.57,0-3.89,0-2.74.08-5.28.31-7.1.44S13.25,42.87,13.23,42.83Z"/><path class="cls-2" d="M10.23,42.26c0-.06,2.42-.36,5.46-.68,1.52-.17,2.9-.26,3.9-.33a11.5,11.5,0,0,1,1.62-.06,11.52,11.52,0,0,1-1.6.22c-1,.11-2.37.23-3.87.39C12.72,42.12,10.26,42.32,10.23,42.26Z"/><path class="cls-2" d="M1.26,44.06a20.74,20.74,0,0,1,3.52-.49,21.57,21.57,0,0,1,3.58-.2,20.74,20.74,0,0,1-3.52.49A21.51,21.51,0,0,1,1.26,44.06Z"/><path class="cls-2" d="M1.65,42.43a28.63,28.63,0,0,1,3-.41,21.83,21.83,0,0,1,3-.25,18.23,18.23,0,0,1-2.95.48A15.8,15.8,0,0,1,1.65,42.43Z"/><path class="cls-3" d="M24.24,56.5c.19,2.84.3,6.56-.29,7.66-.31.57-.69.43-1.07-.07l.58-7.4S23.82,56.62,24.24,56.5Z"/><path class="cls-4" d="M23.94,53s.17,1.52.29,3.46c-.42.12-.78.19-.78.19l-.58,7.4a13.09,13.09,0,0,1-1.72-4.66C21.16,58.57,19.15,48.56,23.94,53Z"/><path class="cls-3" d="M13.87,56.13c-.53,2.8-1.08,6.48-.63,7.64.24.6.63.5,1.07.05l.31-7.42S14.26,56.3,13.87,56.13Z"/><path class="cls-4" d="M14.57,52.73s-.35,1.5-.71,3.4c.4.17.75.28.75.28l-.31,7.42a13.16,13.16,0,0,0,2.26-4.43C16.68,58.54,19.87,48.82,14.57,52.73Z"/><path class="cls-5" d="M15,52l1-.56a32.77,32.77,0,0,0,2.51,5.45c1.23,1.85,2.56,0,2.56,0A4.17,4.17,0,0,0,23,58.62c-.24,5.41-.6,12.69-1,16-.65,5.63-2.56,22-3.17-1.28,0,0-1.89,19.27-3.06,21.08-1,1.6-.89-.77-.89-1.51,0,0-2.37,3-1.36-.3.49-1.6,2.61-16.56,2.37-22,0,0-1.86,11.18-2.43,14.07s-2.28,4.44-1.7.81C12.86,78.41,15,70.16,15,52Z"/><path class="cls-6" d="M16.92,53.77c-.53-1.25-.9-2.29-.9-2.29L15,52q.09-1.86.15-3.77s6.93-6.54,8.05,3.74c0,0-.1,2.85-.26,6.61a4.17,4.17,0,0,1-1.87-1.7,2.16,2.16,0,0,1-1.18.81c-.28,3.62-.73,9.59-.87,12.37,0,0,.05-7.57.08-12.55a2.16,2.16,0,0,1-.59-.63,15,15,0,0,1-.9-1.62c-.26,3.06-.85,9.26-1.55,13,0,0,1.23-11,.85-14.53Z"/><path class="cls-7" d="M13.71,23a6.9,6.9,0,0,1,1-1.74c-.41,4.17,1.46,3.52,1.46,3.52.22,2.7,1.34,1.87,1.34,1.87C17.86,28.87,19,27,19,27c.72,3.7,2.56,1.52,2.56,1.52.89,2.89,2.06.65,2.06.65.33,1.74,1.73-.05,1.73-.05.39,2.12,2.28.13,2.28.13.06,2.09,2.84-1.58,2.84-1.58-.17,4.16,2.89-1.22,2.89-1.22-.11,1.74,1.67,1.69,2.79-.6a8.23,8.23,0,0,0,.67-2.67,17.5,17.5,0,0,1-.52,6.48A12.33,12.33,0,0,1,34,32.34c-1.13.69-2.21,1.31-2.13,0,0,0-3.17,3.84-3.17,2.16,0,0-1.38,2.16-1.71,1.23,0,0-3,2.7-3.41,1.43,0,0-1.56,1.47-1.77.61,0,0-1.38,1-1.42-1,0,0-1.71,1.14-2-.29,0,0-1.46.9-1.71-1.8,0,0-1.42.78-1.92-1.51a36.22,36.22,0,0,1-1.31-9.27C13.57,23.61,13.63,23.29,13.71,23Z"/><path class="cls-3" d="M11.73,51.21c1.39-.93,3.57-2.72,3.57-2.72a44.22,44.22,0,0,0,5.43-3.94,50.56,50.56,0,0,1-7.21,4.4c-2.59,1.06-2.94.71-2.94.71.07-.24.55-.6,1.38-.9a16.72,16.72,0,0,0,3.4-2l1.84-1.36a9,9,0,0,1-4.32,1.85,1.64,1.64,0,0,1,.15-.62,3.1,3.1,0,0,1,1.62-1.23s4.87-1.81,6.27-2.87A20.89,20.89,0,0,0,22.82,41s-2.53,2.22-8.31,4a81.53,81.53,0,0,1-1.45-17c0-.78.09-1.52.18-2.24,0,11.79,2.1,9.49,2.1,9.49.39,2.45,1.84,1.8,1.84,1.8.5,1.91,1.5,1,1.5,1,.39,2,1.5.93,1.5.93-.22,2.45,1.73-.11,1.73-.11,0,1.47,2-.93,2-.93s-.14.87,1,.54a7.39,7.39,0,0,0,2.51-2s-.06,1.36,1.62.38a13.48,13.48,0,0,0,3.18-2.94c0,.54-.28,1.47,1.73,0a8,8,0,0,0,1.57-1.69h0a28.85,28.85,0,0,1-2.73,5.24,39.19,39.19,0,0,1-5.64,5.57c-2.72,1.95-14.25,9.54-17,9.71C10.17,52.31,11,51.72,11.73,51.21Z"/><path class="cls-4" d="M20.89,42.56c-1.39,1.06-6.27,2.87-6.27,2.87l-.11-.53c5.78-1.73,8.31-4,8.31-4A20.89,20.89,0,0,1,20.89,42.56Z"/><path class="cls-5" d="M14.67,21.24a6.9,6.9,0,0,0-1,1.74A20.88,20.88,0,0,1,15,19.11a14.38,14.38,0,0,1,5.58-6.62s.8-5.85,4.63-9S32.62-.09,36.18,0,41,1.61,41.4,2.88a5.83,5.83,0,0,1-.32,3.65,56.88,56.88,0,0,0-5.6,5.85,5,5,0,0,0-1.66-.92,6.17,6.17,0,0,1-2.7-1A7.25,7.25,0,0,0,32,13.9c.84,1.09,2.84,3.1,3.43,4.41a14.9,14.9,0,0,1,1.42,4.85,8.23,8.23,0,0,1-.67,2.67c-1.11,2.29-2.9,2.34-2.79.6,0,0-3.06,5.38-2.89,1.22,0,0-2.79,3.67-2.84,1.58,0,0-1.89,2-2.28-.13,0,0-1.39,1.8-1.73.05,0,0-1.17,2.23-2.06-.65,0,0-1.84,2.18-2.56-1.52,0,0-1.17,1.9-1.56-.33,0,0-1.11.82-1.34-1.87,0,0-1.87.64-1.46-3.52Z"/><path class="cls-8" d="M36.52,29.37h0l.65-1,0-.05.1-.16.07-.1.07-.1.12-.19a17.55,17.55,0,0,1-.47,1.83,24.5,24.5,0,0,1-1.57,2.47,22.48,22.48,0,0,0,.81-2.46Z"/><path class="cls-9" d="M36.85,23.16a17.71,17.71,0,0,0,.09-2h0c0-.09,0-.18,0-.26v0c0-.09,0-.18,0-.27a15.79,15.79,0,0,1,.87,5.14,10.77,10.77,0,0,1-.23,2.08c-.26.41-.72,1.11-1.24,1.84A17.5,17.5,0,0,0,36.85,23.16Z"/><path class="cls-6" d="M32,13.9a7.25,7.25,0,0,1-.87-3.42,6.17,6.17,0,0,0,2.7,1,5,5,0,0,1,1.66.92l-.05.07c-1.49,2.11,0,5,0,5a13.56,13.56,0,0,1,1.49,3.11,18.77,18.77,0,0,1-.07,2.59,14.9,14.9,0,0,0-1.42-4.85C34.85,17,32.84,15,32,13.9Z"/><path class="cls-3" d="M13.11,52.11c.33-.59,2.28-1.47,3.29-1.9v0s11.49-10.78,10.82-8.1-.33,8.59-.28,11.31-1.53,1.25-1.53,1.25c.25,2.94-2.26,0-2.26,0,.56,6.59-2.42-.16-2.42-.16.19,1.53-.2,2.61-1.69.95a10.44,10.44,0,0,1-1.43-2.26c-.17,1-.52,2.4-1.22,2.79-1.11.61-.95-2.45-.95-2.45s-1,3.06-2.3,3.68S12.67,52.91,13.11,52.11Z"/><path class="cls-4" d="M16.39,44.27a29.7,29.7,0,0,1-.32-3.54c0-1.5.17.74.53,3l.07.44L17.1,44a17,17,0,0,1-.38-1.93c-.08-.83.17-.26.26.45,0,.31.19.91.31,1.42.38-.13.7-.21,1-.27a11.77,11.77,0,0,1-.16-1.39c0-.46.19-.11.36.79l.11.53a3.59,3.59,0,0,1,.49-.07,34.5,34.5,0,0,0-4.41,1.91l-.07-.35C15.25,44.74,15.86,44.47,16.39,44.27Z"/><path class="cls-10" d="M37.19,6.59s.47-3-.59-3.43a4.53,4.53,0,0,0-3.88,0C31,3.83,30.06,4,30.06,6s.69,4.84,2.18,5.62a3.56,3.56,0,0,0,3.25,0C36,11.43,37.22,9.23,37.19,6.59Z"/><ellipse class="cls-11" cx="34.19" cy="5.06" rx="1.63" ry="1.6"/><ellipse class="cls-12" cx="34.49" cy="5.06" rx="0.98" ry="0.96"/><ellipse class="cls-10" cx="34" cy="4.17" rx="0.49" ry="0.48"/><path class="cls-13" d="M38.94,11.32a8.91,8.91,0,0,1-5.21,1.09s-1-.68.37-2.71,2.34-2.39,3.09-2A3.52,3.52,0,0,1,38.94,11.32Z"/><path class="cls-4" d="M12.86,47.28a9,9,0,0,0,4.32-1.85L15.35,46.8S13,47.72,12.86,47.28Z"/><path class="cls-4" d="M11.18,50c-.48,0-.67-.1-.61-.3,0,0,.35.35,2.94-.71a50.56,50.56,0,0,0,7.21-4.4,44.22,44.22,0,0,1-5.43,3.94A20.07,20.07,0,0,1,11.18,50Z"/><path class="cls-4" d="M11.73,52.62a19.29,19.29,0,0,0,3.71-1.7,9,9,0,0,1,.2,1.68,8.78,8.78,0,0,0,.41-2l.8-.45a8.66,8.66,0,0,1,.6,1.44,13,13,0,0,1,0-1.78L19,48.86a24.47,24.47,0,0,0,1.43,4.63,25.28,25.28,0,0,1-.53-5.17h0l1.88-1.15a15.45,15.45,0,0,0,.81,3.58c-.15-.78-.28-3.35-.31-3.89l1.86-1.17A21,21,0,0,0,25,48.76c-.07-.9,0-2.83,0-3.59l.43-.27a28.27,28.27,0,0,0,9.08-9.61l-.06.07.06-.07a27.66,27.66,0,0,0,2.58-5.66l-.35.6h0l-.38.62h0c-.26.42-.54.84-.83,1.23h0a28.85,28.85,0,0,1-2.73,5.24l.31-.36a41.07,41.07,0,0,1-5.95,5.93c-1.28.91-4.49,3.06-7.82,5.11a.26.26,0,0,0-.14.08c-3.74,2.29-7.61,4.42-9.07,4.51C10.08,52.85,10.5,52.91,11.73,52.62Zm22.7-17.24-.09.11Zm-.74.9-.53.62Zm.45-.54-.4.48Zm.17-.21-.13.16Z"/><path class="cls-14" d="M39,12.49a1.82,1.82,0,0,0,0-1,5.83,5.83,0,0,0-1.2-2.94c-1-1.2-1-1.81-.84-2.09A5.7,5.7,0,0,1,41.07,4.3s3.41,5.88-2.82,10.09a7,7,0,0,0,.79-1.9h0Z"/><polygon class="cls-13" points="39.04 12.49 39.04 12.49 39.04 12.49 39.04 12.49"/><path class="cls-13" d="M37.8,8.51A5.83,5.83,0,0,1,39,11.46a.94.94,0,0,0-.06-.13c-.59-1-2.45-2.39-2.34-4a2,2,0,0,1,.35-1C36.84,6.7,36.83,7.31,37.8,8.51Z"/><path class="cls-15" d="M36.29,8.35a24.06,24.06,0,0,0,1.39,2.31c.47.6-1.56.63-1.89.63s-1.36-.24-1.17-1S35.85,7.54,36.29,8.35Z"/><path class="cls-16" d="M41,4.87a11.18,11.18,0,0,1,.55,3.42c-.1,1.42-.94,3.32-1.11,2.78s.22-2.56-.72-3.69-1-1.75-.29-2.16S40.88,4.36,41,4.87Z"/><path class="cls-17" d="M13.51,23.93a36.22,36.22,0,0,0,1.31,9.27c.5,2.29,1.92,1.51,1.92,1.51.25,2.7,1.71,1.8,1.71,1.8.25,1.43,2,.29,2,.29,0,2,1.42,1,1.42,1,.21.86,1.77-.61,1.77-.61C24,38.42,27,35.73,27,35.73c.33.94,1.71-1.23,1.71-1.23,0,1.67,3.17-2.16,3.17-2.16-.08,1.31,1,.69,2.13,0a12.33,12.33,0,0,0,2.29-2.7,22.48,22.48,0,0,1-.81,2.46A8.05,8.05,0,0,1,34,33.78c-2,1.47-1.73.54-1.73,0a13.48,13.48,0,0,1-3.18,2.94c-1.67,1-1.62-.38-1.62-.38a7.39,7.39,0,0,1-2.51,2c-1.11.33-1-.54-1-.54s-2,2.4-2,.93c0,0-2,2.56-1.73.11,0,0-1.11,1.09-1.5-.93,0,0-1,.93-1.5-1,0,0-1.45.65-1.84-1.8,0,0-2.09,2.3-2.1-9.49C13.32,25.06,13.41,24.49,13.51,23.93Z"/><path class="cls-16" d="M37.17,28.4l-.65,1Z"/><path class="cls-16" d="M37.09,29.63l-.35.6Z"/></svg>