<svg id="Layer_1" data-name="Layer 1" xmlns="http://www.w3.org/2000/svg" viewBox="0 0 87.43 187.46"><defs><style>.cls-1{fill:#a87c4f;}.cls-2{fill:#8a5d3b;}.cls-3{fill:#284da0;}.cls-4{fill:#223369;}.cls-5{fill:#dd1f26;}.cls-6{fill:#be1e2d;}.cls-7{fill:#fff100;}.cls-8{fill:#098442;}.cls-9{fill:#dbcc23;}.cls-10{fill:#fff;}.cls-11{fill:#f9ec31;}.cls-12{fill:#231f20;}.cls-13{fill:#2d2926;}.cls-14{fill:#e8c270;}.cls-15{fill:#404041;}.cls-16{fill:#f7d593;}.cls-17{fill:#00a14b;}</style></defs><title>parrotBig</title><path class="cls-1" d="M4.13,80.55,6,81.62a10,10,0,0,1,2.06,1.85c.24.56,14.36.86,17.86,1.23s18.35.36,18.35.36l20.48,1.43c3,.21,17,1.62,22.27,2.15L87.43,83,84.9,83,69.6,81l-19-1.37-13.28-.92-20.12.67L0,78.13,5.24,79.9Z"/><path class="cls-2" d="M3.21,81,4.8,82.64,4,83.8l-.64,1.54,1.75,1.36S13,87,16.2,87.27s9.42,1,12.08.79,12.18-.63,15.14-.43S62,89.27,62,89.27l24.75,3.11L87,88.63c-5.24-.53-19.3-1.94-22.27-2.15L44.27,85.06s-14.85,0-18.35-.36S8.3,84,8.06,83.47A10,10,0,0,0,6,81.62L4.13,80.55l1.11-.65L0,78.13l2.92,2.33Z"/><path class="cls-2" d="M27.28,80.63a13.21,13.21,0,0,0-2.37-.07l-2.53-.05-3.11-.12c-4.43-.19-8-.41-8.05-.29a54.27,54.27,0,0,0,8.08.74c1.12,0,2.19.06,3.16.08l2.56,0A10.31,10.31,0,0,0,27.28,80.63Z"/><path class="cls-2" d="M61.29,84.53a49.42,49.42,0,0,0-5.78-.79c-3.6-.38-8.59-.9-14.2-1.06-11,.19-19.81,0-19.81.17a52.82,52.82,0,0,0,5.88.34c1.81.05,4,.09,6.35.13s5.07-.06,7.68,0c5.42.16,10.43.61,14,.88S61.27,84.61,61.29,84.53Z"/><path class="cls-2" d="M67.22,83.41c0-.12-4.78-.72-10.78-1.34-3-.33-5.72-.51-7.7-.65a22.73,22.73,0,0,0-3.21-.12,22.77,22.77,0,0,0,3.16.43c2,.21,4.67.44,7.65.77C62.3,83.13,67.17,83.53,67.22,83.41Z"/><path class="cls-2" d="M84.94,87c0-.16-3.08-.6-6.95-1a42.64,42.64,0,0,0-7.07-.39c0,.16,3.08.6,6.95,1A42.52,42.52,0,0,0,84.94,87Z"/><path class="cls-2" d="M84.18,83.75a56.59,56.59,0,0,0-5.86-.81,43.14,43.14,0,0,0-6-.5,36,36,0,0,0,5.82.94A31.24,31.24,0,0,0,84.18,83.75Z"/><path class="cls-3" d="M39.56,111.52c-.37,5.6-.6,12.95.58,15.12.61,1.12,1.36.84,2.11-.14L41.1,111.9S40.38,111.76,39.56,111.52Z"/><path class="cls-4" d="M40.14,104.69s-.33,3-.58,6.83c.82.24,1.54.38,1.54.38l1.15,14.61c1.7-2.22,3.39-8,3.39-9.2C45.64,115.61,49.6,95.84,40.14,104.69Z"/><path class="cls-3" d="M60,110.79c1,5.52,2.14,12.79,1.23,15.09-.47,1.18-1.25,1-2.11.1l-.61-14.64S59.26,111.12,60,110.79Z"/><path class="cls-4" d="M58.65,104.07s.68,3,1.39,6.72c-.79.33-1.48.55-1.48.55L59.17,126c-2-2-4.33-7.57-4.47-8.75C54.49,115.54,48.19,96.36,58.65,104.07Z"/><path class="cls-5" d="M57.75,102.72l-2-1.11s-2.53,7.09-5,10.75-5.06,0-5.06,0c-.56,1.44-2.42,2.65-3.7,3.35.47,10.68,1.19,25.05,1.95,31.61,1.28,11.11,5.07,43.46,6.26-2.53,0,0,3.74,38,6.05,41.61,2,3.15,1.76-1.52,1.76-3,0,0,4.68,5.86,2.7-.59-1-3.16-5.15-32.68-4.68-43.35,0,0,3.68,22.07,4.79,27.77s4.5,8.77,3.35,1.61C62,154.76,57.75,138.48,57.75,102.72Z"/><path class="cls-6" d="M54,106.13c1.05-2.47,1.79-4.52,1.79-4.52l2,1.11q-.17-3.67-.29-7.44s-13.69-12.91-15.9,7.38c0,0,.2,5.63.52,13,1.28-.7,3.14-1.91,3.7-3.35A4.28,4.28,0,0,0,48.11,114c.55,7.15,1.43,18.93,1.71,24.42,0,0-.1-14.94-.15-24.78a4.27,4.27,0,0,0,1.17-1.24,29.61,29.61,0,0,0,1.78-3.19c.52,6,1.67,18.28,3.06,25.66,0,0-2.44-21.63-1.68-28.68Z"/><path class="cls-7" d="M60.36,45.36a13.61,13.61,0,0,0-1.9-3.43c.8,8.22-2.89,7-2.89,7-.44,5.32-2.64,3.7-2.64,3.7-.77,4.4-3.08.65-3.08.65-1.43,7.31-5.06,3-5.06,3-1.76,5.7-4.07,1.29-4.07,1.29-.66,3.44-3.41-.11-3.41-.11-.77,4.19-4.51.26-4.51.26-.11,4.13-5.61-3.12-5.61-3.12.33,8.22-5.72-2.41-5.72-2.41.22,3.44-3.3,3.33-5.5-1.18a16.24,16.24,0,0,1-1.32-5.26,34.51,34.51,0,0,0,1,12.78c1.57,2.24,3.42,4.64,4.53,5.32,2.23,1.37,4.37,2.58,4.21,0,0,0,6.27,7.58,6.27,4.27,0,0,2.72,4.27,3.38,2.42,0,0,6,5.32,6.74,2.82,0,0,3.08,2.9,3.49,1.21,0,0,2.72,2,2.81-1.94,0,0,3.38,2.26,3.88-.56,0,0,2.89,1.77,3.38-3.55,0,0,2.81,1.53,3.8-3a71.45,71.45,0,0,0,2.59-18.29C60.63,46.59,60.5,46,60.36,45.36Z"/><path class="cls-3" d="M64.27,101.07c-2.75-1.83-7-5.37-7-5.37-4-2.1-10.73-7.78-10.73-7.78s9.13,6.6,14.25,8.69S66.56,98,66.56,98c-.15-.48-1.08-1.18-2.73-1.77a33,33,0,0,1-6.71-3.87l-3.63-2.69A17.81,17.81,0,0,0,62,93.32a3.24,3.24,0,0,0-.29-1.23,6.13,6.13,0,0,0-3.19-2.42S48.92,86.1,46.17,84a41.24,41.24,0,0,1-3.82-3.17s5,4.39,16.4,7.8c.77-4,3.44-19,2.87-33.57-.06-1.54-.19-3-.36-4.43,0,23.26-4.15,18.72-4.15,18.72-.77,4.84-3.63,3.55-3.63,3.55-1,3.76-3,1.94-3,1.94-.77,4-3,1.83-3,1.83.44,4.84-3.41-.22-3.41-.22,0,2.9-4-1.83-4-1.83s.28,1.72-1.92,1.08-5-4-5-4,.11,2.69-3.19.75a26.61,26.61,0,0,1-6.27-5.8c0,1.07.55,2.9-3.41,0a15.88,15.88,0,0,1-3.1-3.33h0a57,57,0,0,0,5.38,10.34c3.05,3.53,7.58,8.45,11.14,11,5.38,3.84,28.15,18.82,33.65,19.16C67.34,103.24,65.8,102.09,64.27,101.07Z"/><path class="cls-4" d="M46.17,84c2.75,2.1,12.38,5.67,12.38,5.67s.08-.37.21-1c-11.42-3.41-16.4-7.8-16.4-7.8A41.24,41.24,0,0,0,46.17,84Z"/><path class="cls-5" d="M58.46,41.93a13.61,13.61,0,0,1,1.9,3.43,41.19,41.19,0,0,0-2.56-7.65c-3-6.58-7.21-10.84-11-13.06,0,0-1.58-11.54-9.14-17.81S23-.18,16,0,6.45,3.17,5.67,5.68c-1.08,3.43.63,7.2.63,7.2s8,7.36,11.05,11.55a9.83,9.83,0,0,1,3.27-1.82,12.2,12.2,0,0,0,5.32-1.92s-.08,4.6-1.73,6.74-5.62,6.13-6.77,8.71a29.39,29.39,0,0,0-2.8,9.57A16.24,16.24,0,0,0,16,51c2.2,4.51,5.73,4.62,5.5,1.18,0,0,6,10.63,5.72,2.41,0,0,5.5,7.25,5.61,3.12,0,0,3.74,3.93,4.51-.26,0,0,2.75,3.55,3.41.11,0,0,2.31,4.41,4.07-1.29,0,0,3.63,4.3,5.06-3,0,0,2.31,3.74,3.08-.65,0,0,2.2,1.62,2.64-3.7,0,0,3.69,1.27,2.89-7Z"/><path class="cls-8" d="M15.3,58h0c-.47-.69-.91-1.33-1.29-1.9L13.94,56l-.2-.31-.13-.2-.13-.2-.24-.37a34.62,34.62,0,0,0,.93,3.6,48.35,48.35,0,0,0,3.1,4.88,44.35,44.35,0,0,1-1.59-4.85Z"/><path class="cls-9" d="M14.65,45.72a34.93,34.93,0,0,1-.17-4v0c0-.18,0-.35,0-.51s0,0,0-.06c0-.18,0-.36,0-.53a31.14,31.14,0,0,0-1.73,10.15,21.24,21.24,0,0,0,.46,4.11c.52.8,1.42,2.18,2.44,3.63A34.51,34.51,0,0,1,14.65,45.72Z"/><path class="cls-6" d="M24.22,27.44c1.65-2.15,1.73-6.74,1.73-6.74a12.2,12.2,0,0,1-5.32,1.92,9.83,9.83,0,0,0-3.27,1.82l.1.14c2.94,4.17,0,9.9,0,9.9a26.76,26.76,0,0,0-2.95,6.15,37,37,0,0,0,.15,5.11,29.39,29.39,0,0,1,2.8-9.57C18.6,33.57,22.57,29.59,24.22,27.44Z"/><path class="cls-3" d="M61.54,102.85C60.89,101.68,57,99.94,55,99.1l0-.07S32.36,77.75,33.68,83s.66,17,.55,22.33,3,2.47,3,2.47c-.5,5.8,4.46,0,4.46,0-1.1,13,4.79-.32,4.79-.32-.38,3,.39,5.16,3.33,1.87a20.61,20.61,0,0,0,2.82-4.47c.33,2,1,4.75,2.4,5.5,2.2,1.21,1.87-4.84,1.87-4.84s2.06,6,4.54,7.26S62.42,104.43,61.54,102.85Z"/><path class="cls-4" d="M55.06,87.37a58.59,58.59,0,0,0,.63-7c0-3-.33,1.45-1,5.91l-.14.86-.84-.3A33.62,33.62,0,0,0,54.42,83c.17-1.64-.33-.51-.52.89-.08.61-.38,1.8-.61,2.8-.75-.25-1.38-.42-1.88-.54a23.21,23.21,0,0,0,.32-2.74c0-.91-.38-.22-.71,1.56-.06.32-.14.69-.21,1a7.1,7.1,0,0,0-1-.14,68.17,68.17,0,0,1,8.72,3.76l.14-.69C57.3,88.3,56.1,87.78,55.06,87.37Z"/><path class="cls-10" d="M14,13s-.93-5.85,1.16-6.78,4.2-1.34,7.66,0S28.07,8,28.07,11.88,26.7,21.43,23.76,23a7,7,0,0,1-6.41,0C16.4,22.56,13.91,18.23,14,13Z"/><ellipse class="cls-11" cx="19.9" cy="9.99" rx="3.22" ry="3.15"/><ellipse class="cls-12" cx="19.31" cy="9.99" rx="1.93" ry="1.89"/><ellipse class="cls-10" cx="20.28" cy="8.23" rx="0.97" ry="0.94"/><path class="cls-13" d="M10.51,22.35s5,3,10.3,2.16c0,0,1.89-1.34-.74-5.34s-4.63-4.72-6.1-4A7,7,0,0,0,10.51,22.35Z"/><path class="cls-4" d="M62,93.32a17.81,17.81,0,0,1-8.54-3.64l3.63,2.69S61.78,94.19,62,93.32Z"/><path class="cls-4" d="M65.35,98.6c.94,0,1.33-.2,1.21-.59,0,0-.69.7-5.81-1.4S46.5,87.92,46.5,87.92s6.77,5.68,10.73,7.78C57.23,95.7,63.24,98.49,65.35,98.6Z"/><path class="cls-4" d="M67.44,103.84c-2.89-.18-10.53-4.39-17.92-8.91a.51.51,0,0,0-.27-.17c-6.59-4-12.93-8.29-15.45-10.09C30,82,25.08,76.53,22,73l.61.71a57,57,0,0,1-5.38-10.34h0c-.57-.78-1.13-1.6-1.65-2.43h0c-.26-.41-.5-.82-.74-1.22l0,0-.69-1.19a54.57,54.57,0,0,0,5.1,11.17l.11.14-.11-.14c4.24,7.16,10.38,14.29,17.93,19l.84.54c0,1.51.11,5.3,0,7.09a41.39,41.39,0,0,0,1.65-6l3.67,2.31c-.05,1.06-.32,6.14-.62,7.68,0,0,1.65-4.79,1.61-7.06L48,95.37h0a49.86,49.86,0,0,1-1,10.21s2.63-6.44,2.83-9.15c1.06.63,2.13,1.26,3.19,1.87a25.7,25.7,0,0,1,0,3.51A17.08,17.08,0,0,1,54.17,99l1.57.88a17.31,17.31,0,0,0,.8,4,17.76,17.76,0,0,1,.4-3.32,38.1,38.1,0,0,0,7.33,3.35C66.7,104.44,67.52,104.31,67.44,103.84ZM19.62,70.07l-.18-.23Zm2.31,2.78-1-1.23Zm-1.15-1.36L20,70.55Zm-.86-1-.25-.31Z"/><path class="cls-14" d="M10.32,24.65a3.59,3.59,0,0,1,.07-2,11.5,11.5,0,0,1,2.38-5.81c1.9-2.36,1.89-3.58,1.67-4.13-1.48-2.25-5.07-4-8.13-4.17,0,0-6.73,11.6,5.57,19.92a13.83,13.83,0,0,1-1.55-3.76h0Z"/><polygon class="cls-13" points="10.32 24.65 10.32 24.65 10.32 24.65 10.32 24.65"/><path class="cls-13" d="M12.78,16.8a11.5,11.5,0,0,0-2.38,5.81,1.85,1.85,0,0,1,.12-.26c1.16-2,4.83-4.72,4.62-7.8a3.94,3.94,0,0,0-.69-1.88C14.67,13.22,14.68,14.44,12.78,16.8Z"/><path class="cls-15" d="M15.75,16.48A47.47,47.47,0,0,1,13,21c-.94,1.18,3.08,1.24,3.74,1.24s2.7-.48,2.31-2S16.63,14.89,15.75,16.48Z"/><path class="cls-16" d="M6.4,9.62a22,22,0,0,0-1.09,6.75c.21,2.79,1.86,6.56,2.19,5.48s-.44-5.06,1.43-7.29,1.94-3.46.58-4.27S6.69,8.6,6.4,9.62Z"/><path class="cls-17" d="M60.75,47.23a71.45,71.45,0,0,1-2.59,18.29c-1,4.51-3.8,3-3.8,3C53.87,73.82,51,72,51,72c-.49,2.82-3.88.56-3.88.56-.08,4-2.81,1.94-2.81,1.94-.41,1.69-3.49-1.21-3.49-1.21-.77,2.5-6.74-2.82-6.74-2.82-.66,1.85-3.38-2.42-3.38-2.42,0,3.31-6.27-4.27-6.27-4.27.16,2.58-2,1.37-4.21,0-1.11-.68-3-3.08-4.53-5.32a44.35,44.35,0,0,0,1.59,4.85,15.89,15.89,0,0,0,3.1,3.32c4,2.9,3.41,1.07,3.41,0a26.61,26.61,0,0,0,6.27,5.8c3.3,1.94,3.19-.75,3.19-.75s2.75,3.33,5,4,1.92-1.08,1.92-1.08,4,4.73,4,1.83c0,0,3.85,5.05,3.41.22,0,0,2.2,2.15,3-1.83,0,0,2,1.83,3-1.94,0,0,2.86,1.29,3.63-3.55,0,0,4.12,4.54,4.15-18.72C61.13,49.46,61,48.33,60.75,47.23Z"/><path class="cls-16" d="M14,56.06c.37.57.81,1.22,1.29,1.9C14.82,57.27,14.38,56.62,14,56.06Z"/><path class="cls-16" d="M14.17,58.47l.69,1.19C14.61,59.26,14.39,58.86,14.17,58.47Z"/></svg>