<svg id="Layer_1" data-name="Layer 1" xmlns="http://www.w3.org/2000/svg" viewBox="0 0 61.26 126.6"><defs><style>.cls-1{fill:#cc5702;}.cls-2{fill:#436600;}.cls-3{fill:#79a840;}.cls-4{fill:#6c9830;}.cls-5{fill:#517710;}.cls-6{fill:#5e8720;}.cls-7{fill:#fa0;}.cls-8{fill:#ff8000;}.cls-9{fill:#ffd500;}.cls-10{fill:#ffbf00;}.cls-11{fill:#9f4334;}.cls-12{fill:#fff;}</style></defs><title>pineappleSmall</title><path class="cls-1" d="M12.65,124.14a25.87,25.87,0,0,1-5.14-6.08c-8.61-14.53-10.14-49.4,9.89-61.2a49.85,49.85,0,0,1,6.7-1.26c6.16-.38,17.54.17,18.3.61,11.95,5.49,17,19.29,17.42,35.54.28,11.32-1.25,23.62-9.49,31.49C46.54,126.85,16.62,127.56,12.65,124.14Z"/><path class="cls-2" d="M33.77,31.6c2.53-5,12.7-14.54,21.7-17.58C51.59,18.35,44,27,41.76,32.93,39.9,33.62,33.77,31.6,33.77,31.6Z"/><path class="cls-3" d="M31.69,17.19C33.23,12.31,39.41,2.55,46.09,0,41.9,5,37.22,16.1,38,27S31.69,17.19,31.69,17.19Z"/><path class="cls-2" d="M24.71,32.25c-3.23-7-9.21-19.89-5.89-31.6C21.24,1.79,27.35,6.75,30.66,18S24.71,32.25,24.71,32.25Z"/><path class="cls-4" d="M25.63,31.79C22.86,27,12.23,17.87,3.09,15.26c4.08,4.14,12,12.41,14.62,18.24C19.6,34.1,25.63,31.79,25.63,31.79Z"/><path class="cls-3" d="M26,30.94C24.83,25.76,14.67,8.63,9,4.73c1.87,4,10.49,19.55,10.5,26C21.57,31.7,26,30.94,26,30.94Z"/><path class="cls-5" d="M26,33.3c-1.48-3.94-4.09-13.92,5.9-23.62,2.13,3.43,5.69,13.45,3.79,19.47S26,33.3,26,33.3Z"/><path class="cls-3" d="M25.74,36.24C23.54,32.49,11.39,24.09,4.82,22.5,8.57,26.44,16.63,35,17.64,39.91,18.77,40.76,25.74,36.24,25.74,36.24Z"/><path class="cls-6" d="M33.88,36c2-3.85,13.74-12.83,20.22-14.72-3.55,4.11-11.18,13.09-11.95,18C35,48.08,33.88,36,33.88,36Z"/><path class="cls-6" d="M32,28.55c1.82-5,14.21-20.64,20.33-23.77-2.39,3.73-13,18-13.93,24.43C36.28,29.87,32,28.55,32,28.55Z"/><path class="cls-6" d="M21.25,44.5C21.1,41,19.36,29,17.72,25.13c2.56.7,11.48,7.23,14.46,11.72S21.25,44.5,21.25,44.5Z"/><path class="cls-4" d="M27.81,38c1-3.5,5.88-16.11,16.93-16.82-1.26,2.53-6.52,13.2-6.31,21.89S27.81,38,27.81,38Z"/><path class="cls-4" d="M25.65,44C24.24,40.25,14,31,4.18,30.19,9,33.12,17.23,39,18.51,45.75,19.85,46.44,25.65,44,25.65,44Z"/><path class="cls-3" d="M23.1,50.33c-2.19-3.54-8.76-9.47-15.93-8.75,3.92,1.86,8.67,6.14,10,10.22C18.61,52.28,23.1,50.33,23.1,50.33Z"/><path class="cls-4" d="M37.21,50c2-3.64,8.28-9.87,15.48-9.5-3.82,2-8.36,6.55-9.48,10.68C41.79,51.73,37.21,50,37.21,50Z"/><path class="cls-5" d="M33.91,48.82C35.15,45,44.87,35.3,54.69,34,50,37.13,42.08,43.37,41.14,50.2,35.73,56.81,33.91,48.82,33.91,48.82Z"/><path class="cls-2" d="M24.8,47.46c.53-4.25-.83-11.28,8.06-14.32,1.91,1,4.71,6.59,5,10.31C38.59,52.31,24.8,47.46,24.8,47.46Z"/><path class="cls-3" d="M29.06,54.26c.91-3.32,4.41-14,14.12-15.06-1.79,3.9-4.48,10.43-4.46,15.94C36.22,57.12,29.06,54.26,29.06,54.26Z"/><path class="cls-5" d="M22.53,54.14c-2-3.75-7.45-15-11.72-17.43,6.56,1.36,13.4,2.4,17.14,7S22.53,54.14,22.53,54.14Z"/><path class="cls-5" d="M25.43,55.05c-1.85-3.43-8-9.37-16.57-7.87,3.47,1.44,8,4.81,9.09,9.56C19.94,56.81,25.43,55.05,25.43,55.05Z"/><path class="cls-5" d="M36.09,55.83c1.68-3.52,7.51-9.74,16.17-8.64-3.39,1.6-7.73,5.18-8.61,10C41.67,57.32,36.09,55.83,36.09,55.83Z"/><path class="cls-2" d="M21.8,56c-.75-3.57-.36-10.21,1.6-13.52,3.18.9,10.36,4.86,11.46,9.07C34,54.52,21.8,56,21.8,56Z"/><path class="cls-3" d="M21,58.81c-.56-2.21-2.23-7.31-1.9-9.46,3,.71,10.5,3.84,12.19,8.28C29.43,58.38,21,58.81,21,58.81Z"/><path class="cls-2" d="M23.55,59C23,56.88,21,50.72,10.78,50.82c3.12,1.28,7.33,3.88,7.74,8A28.26,28.26,0,0,0,23.55,59Z"/><path class="cls-4" d="M35.35,56.9c.95-2,4-7.7,14-5.88-3.3.73-7.91,2.58-9,6.52A28.3,28.3,0,0,1,35.35,56.9Z"/><path class="cls-5" d="M26.62,58.5c1.32-4.7,4-10.09,11.89-11.37.31,3.36-2.14,7.55-1.72,11.13C34.71,58.74,26.62,58.5,26.62,58.5Z"/><path class="cls-7" d="M15.44,61.13c.45-.52,2.58-4.54,2.36-4.8h-.12c-1.27.31-4.8,1.64-6.08,3.12C9.59,61.77,9.44,65,10,65.19s4.42-2.86,5.45-4.06Z"/><path class="cls-8" d="M6.45,111.87c-.18-.93-4.44-13.69-3.83-3.93a18.06,18.06,0,0,0,1.47,6.64,9.71,9.71,0,0,0,2.62,1.84,38.62,38.62,0,0,0-.27-4.54Z"/><path class="cls-7" d="M8.86,68.49a30.41,30.41,0,0,0,1.88-6.41h-.08A14,14,0,0,0,5.51,67.2a7.38,7.38,0,0,0-.65,6.05c.52.07,3.51-3.9,4-4.76Z"/><path class="cls-8" d="M59.49,78.31a21.72,21.72,0,0,0-3-6.94c-.29-.57-1.42-2.53-1.67-1.94a49.64,49.64,0,0,0,.57,7.2c.44,1.43,3,5.82,3.44,5.73a11.48,11.48,0,0,0,.64-4Z"/><path class="cls-7" d="M4.25,90.06c.17-1.21-.94-9.38-1.51-9.46-1,.68-2.63,5.14-2.74,9s1.32,6.83,1.94,7c.92-.57,2.16-5.42,2.31-6.5Z"/><path class="cls-8" d="M61.16,99.88c.07-.94-.5-9.44-1.46-9.38l-.08.15A77.69,77.69,0,0,0,57.74,99a18.58,18.58,0,0,0,1.31,5.73s1.73-.14,2.11-4.84Z"/><path class="cls-8" d="M12.61,121.63c-.38-.87-4.93-6.21-5.75-6.27-.58.31-1.56,2.54,0,4.9s5.64,4.56,6.29,4.74-.49-3.33-.51-3.37Z"/><path class="cls-8" d="M50.85,60.52A21.54,21.54,0,0,0,45,56.25a7.56,7.56,0,0,0-2.62-1.08v.06s3.33,3.93,3.92,4.47,4.51,3.66,5,3.57a5.17,5.17,0,0,0-.47-2.75Z"/><path class="cls-8" d="M46.82,59.84c-1.19-1.49-5.82-3.9-6.4-3.53a10.47,10.47,0,0,0,1.24,4.74c1.26,1.54,5.08,4.24,5.94,4s.82-3.25-.77-5.24Z"/><path class="cls-7" d="M40.87,61.17C40.34,59.82,36,56.82,35,57.11c-.73.49-2.27,3.61-1.84,4.78.58,1.57,3.75,4.26,5.29,4.5s3.17-3.22,2.39-5.22Z"/><path class="cls-7" d="M32.16,61.93c.1-1.17-2.79-4.72-4-4.53-1.2.45-4.27,3.1-4.48,4.55s1.47,4.07,3.11,4.81c2.07.93,5.29-3.37,5.41-4.83Z"/><path class="cls-7" d="M22.71,61.91c.36-.69.2-4.88-.84-4.8-1.31.37-5,2.66-5.79,4.13-1,1.78-.4,4.64.7,5.16s5.1-2.91,5.93-4.49Z"/><path class="cls-8" d="M54.74,66.24c-1.08-2.15-5.27-4.69-5.87-4.15-.21.58-.07,4.7.8,6.31.64,1.16,4.45,5.05,5.24,4.74s1.17-4.22-.17-6.9Z"/><path class="cls-7" d="M48.86,68.59c-.54-1.93-5.17-5.49-6.52-5-1.25.92-2.53,5-2.22,5.94.74,2.18,4.7,5.36,6.13,5.56,1.71.23,3.24-4.23,2.6-6.5Z"/><path class="cls-7" d="M39,70c0-1.64-4.46-5.89-6.31-5.55-2.1.86-4.89,4.58-4.83,5.69.11,2.09,3.46,5.23,5.42,5.95C35.9,77,39.06,71.89,39,70Z"/><path class="cls-7" d="M26.57,70.51c.4-1.51-2.67-6.24-4.39-6.07-2.21.69-5.44,4-5.7,5.24C16,71.88,18.14,75.2,19.69,76c2.23,1.22,6.53-4.19,6.88-5.53Z"/><path class="cls-7" d="M15.36,70c.55-1.19-.13-6.4-1.35-6.36-1.85.53-4.88,3.49-5.38,4.75-1.08,2.74-.13,6.17.81,6.76,1.16.73,5.25-3.72,5.91-5.15Z"/><path class="cls-8" d="M55.83,77.26c-.4-2.41-4.27-6.38-5.6-5.74-1.2,1.11-2.64,5.89-2.34,7.15.5,2.13,4.3,5.93,5.47,6.09,1.49.21,2.9-4.81,2.46-7.5Z"/><path class="cls-7" d="M46.82,79.26c0-2.08-4.73-6.76-6.89-6.23-2.1,1-5,5.41-4.83,6.9.19,2,4.15,5.75,6.06,6.44,2.73,1,5.66-5.22,5.65-7.1Z"/><path class="cls-7" d="M33.64,80.42c.31-1.93-4.46-7.14-6.87-6.82-2.51.85-6,4.77-6,6.42-.11,2.12,3.16,6,5.38,7,2.83,1.2,7.24-4.73,7.54-6.56Z"/><path class="cls-7" d="M19.33,80.39c.48-1.75-2.66-7.47-4.51-7.35-2.37.72-5.27,4.36-5.49,5.91-.35,2.52,1.93,6.85,3.6,7.55s5.89-4.28,6.4-6.11Z"/><path class="cls-7" d="M8.33,79.2c.48-1.49-.51-7.64-1.5-7.66-1.52.55-4.24,3.47-4.6,5.13-.78,3.69,1,8,1.75,8.24s3.82-4.06,4.34-5.7Z"/><path class="cls-8" d="M60.21,87c-.17-3.28-2.44-7.07-3.41-6.34-.89,1.23-2.4,6.67-2.24,8.09.25,2.24,2.78,6.79,3.85,6.39s2-4.36,1.81-8.14Z"/><path class="cls-8" d="M53.62,89.39c.12-2.48-3.83-7.4-6-6.7-2,1.25-4.82,6.2-4.7,7.83.14,2,3.42,6.5,5.76,6.76,2,.23,4.75-4.7,4.9-7.89Z"/><path class="cls-7" d="M41.55,91.12c.31-2.31-4.67-7.7-7.35-7.21-2.66,1-6.29,5.24-6.37,7.38,0,.93,2,5.28,5.85,6.93,4.18,1.81,7.67-5.54,7.88-7.1Z"/><path class="cls-7" d="M26.22,91.75c.39-2.05-4.37-8.08-6.78-7.84-2.58.84-5.67,4.84-5.74,6.82,0,1.31,2,6.21,5.21,7.65,3,1.34,6.91-4.46,7.32-6.63Z"/><path class="cls-7" d="M12.44,91.07c.33-1.86-2.83-8.41-4.43-8.35-2,.69-3.93,4.46-4,6.35-.09,2.39,1.54,7.27,3.44,8.24,1.65.85,4.58-3.9,5-6.23Z"/><path class="cls-8" d="M58,99.66c.34-2.64-2.43-7.31-3.9-6.57-1.12,1-4.39,6.07-4.45,8.08,0,1.71,2.73,5.74,4.07,5.91s3.92-4.66,4.28-7.43Z"/><path class="cls-8" d="M48.41,101.79c.4-2.16-4-7.57-6.34-6.94-1.41.79-6,5.32-6.09,7.66-.05,1.63,3.44,5.43,5.66,6.17,2.6.87,6.42-5,6.77-6.9Z"/><path class="cls-7" d="M34.39,103c.45-2.21,1.07-20.54-7.7-7.5-1,1.53-6.08,4.57-6.08,7.1,0,1.8,3.58,5.74,6.09,6.68,2.85,1.07,7.34-4.52,7.7-6.27Z"/><path class="cls-7" d="M19.17,103c.33-2.18-4.92-8.29-6.43-8.12-1.52.67-4.48,4.15-4.32,6.6.14,2.18,3.32,6.64,5.23,7.34s5.26-4,5.52-5.82Z"/><path class="cls-7" d="M7.47,101.72c.08-1.49-3-8.67-4.06-8.61a8.38,8.38,0,0,0-2.7,6.21C1,102.8,4,107,4.79,107.22s2.59-3.91,2.68-5.5Z"/><path class="cls-8" d="M59,109.5c.82-2.94,0-6.38-1.12-5.67a29.28,29.28,0,0,0-4.09,7.37c-.26,1.19.77,4.78,1.4,4.88S58,112.91,59,109.5Z"/><path class="cls-8" d="M52.81,111.79c.68-2.09-2.08-6.5-4.23-5.84-1.87,1-5.43,5.13-5.73,7-.2,1.25,2.23,4.45,3.78,5,1.77.59,5.59-4.3,6.18-6.09Z"/><path class="cls-8" d="M41.46,113.42c.58-2-3.92-6.68-6.62-6.23-2.39.86-6.12,4.4-6.29,6.45-.1,1.19,3,4.17,5.31,5.15,3.39,1.41,7.4-4.68,7.61-5.37Z"/><path class="cls-7" d="M27.05,114c.3-1.71-4.86-7-7.26-6.82-2.57.8-4.7,4.26-4.62,5.55.13,2,3.58,5.07,5.35,6,3.41,1.74,6.46-4.32,6.53-4.7Z"/><path class="cls-7" d="M14.1,113.37c0-1.57-4.45-7.42-6-7.4-1.48.54-2.59,3.5-2.1,5.57.46,1.9,3.44,5.75,5,6.44s3.08-3.43,3.06-4.61Z"/><path class="cls-8" d="M54.38,120c1.52-2.31-.8-5.21-2.18-4.65a24.07,24.07,0,0,0-5.58,5.9c-.36.73.21,3.59.89,3.67s5.4-2.68,6.87-4.92Z"/><path class="cls-8" d="M45.52,121.69c1-1.8-1.91-5.23-4.07-4.76-2.42.94-5.52,4.1-5.82,5.12-.43,1.45,2.32,3.57,3.14,3.92,2.07.89,6.35-3.56,6.76-4.27Z"/><path class="cls-8" d="M34.25,122.67c.52-1.6-4.33-5.4-6.56-5.15-2.28.66-4.54,3.16-4.62,4.61-.06,1,2.38,2.93,4.16,3.84s2.21.7,2.87.39c2.16-1,3.87-2.83,4.15-3.69Z"/><path class="cls-8" d="M22,122.65c-.08-1.3-5.09-5.79-6.81-5.72a3.57,3.57,0,0,0-2.09,4.26c.38,1.1,2.86,3.26,5.1,4.45,1.39.74,1.64.63,2.16.22A5.38,5.38,0,0,0,22,122.65Z"/><path class="cls-9" d="M14.34,60.08a11.53,11.53,0,0,0,1.46-2.88h-.07A9.47,9.47,0,0,0,12,59.07c-1.25,1.4-1.34,3.33-1,3.45s2.72-1.72,3.36-2.44Z"/><path class="cls-7" d="M5,110.38c-.11-.56-2.73-8.21-2.36-2.36a10.53,10.53,0,0,0,.91,4,5.85,5.85,0,0,0,1.61,1.1A23.18,23.18,0,0,0,5,110.38Z"/><path class="cls-9" d="M7.75,67.26a18,18,0,0,0,1.16-3.85H8.87a8.58,8.58,0,0,0-3.17,3.08,4.32,4.32,0,0,0-.4,3.63c.32,0,2.17-2.34,2.46-2.85Z"/><path class="cls-7" d="M59.34,76.39a12.86,12.86,0,0,0-1.83-4.16c-.18-.34-.88-1.52-1-1.17a29,29,0,0,0,.35,4.32c.27.86,1.84,3.49,2.12,3.44a6.79,6.79,0,0,0,.4-2.43Z"/><path class="cls-10" d="M2.62,88.58c.11-.73-.57-5.63-.93-5.68C1.09,83.31.07,86,0,88.3s.81,4.1,1.19,4.18c.57-.34,1.34-3.26,1.43-3.9Z"/><path class="cls-7" d="M61.26,98c0-.56-.3-5.66-.9-5.63l0,.09a45.76,45.76,0,0,0-1.16,5,10.94,10.94,0,0,0,.81,3.44s1.06-.09,1.3-2.9Z"/><path class="cls-7" d="M10.84,120.16c-.23-.52-3-3.73-3.54-3.76a2.27,2.27,0,0,0,0,2.94,9.83,9.83,0,0,0,3.88,2.85c.35.1-.3-2-.31-2Z"/><path class="cls-7" d="M49.78,59.08a13.18,13.18,0,0,0-3.6-2.56,4.86,4.86,0,0,0-1.61-.65v0s2,2.36,2.42,2.68a16.81,16.81,0,0,0,3.08,2.14,3,3,0,0,0-.29-1.64Z"/><path class="cls-7" d="M46.23,59.26c-.74-.89-3.59-2.33-3.94-2.11A6.1,6.1,0,0,0,43,60c.77.92,3.13,2.54,3.66,2.42s.51-1.95-.47-3.14Z"/><path class="cls-10" d="M39.59,60.48c-.32-.81-3-2.6-3.6-2.43-.45.29-1.4,2.17-1.14,2.87a6.23,6.23,0,0,0,3.26,2.71c1,.14,2-1.93,1.47-3.14Z"/><path class="cls-9" d="M30.45,61.11c.06-.7-1.72-2.83-2.49-2.71-.74.27-2.63,1.86-2.77,2.73A3.56,3.56,0,0,0,27.11,64c1.28.56,3.26-2,3.34-2.9Z"/><path class="cls-9" d="M21.06,61c.22-.42.13-2.93-.52-2.88A8.9,8.9,0,0,0,17,60.56c-.6,1.07-.25,2.78.43,3.1S20.55,61.9,21.06,61Z"/><path class="cls-7" d="M54.37,65.85c-.67-1.29-3.25-2.81-3.62-2.49a8.23,8.23,0,0,0,.5,3.78c.39.7,2.74,3,3.23,2.84s.72-2.53-.1-4.14Z"/><path class="cls-10" d="M47.58,68c-.33-1.15-3.18-3.29-4-3a5.59,5.59,0,0,0-1.37,3.57A7.39,7.39,0,0,0,46,71.86C47,72,48,69.32,47.58,68Z"/><path class="cls-10" d="M37,69.21c0-1-2.75-3.54-3.89-3.33-1.29.52-3,2.75-3,3.42.06,1.25,2.13,3.14,3.34,3.56C35,73.43,37,70.35,37,69.21Z"/><path class="cls-9" d="M24.37,69.54c.25-.91-1.64-3.75-2.7-3.64A7.22,7.22,0,0,0,18.15,69c-.29,1.31,1,3.31,2,3.81,1.38.73,4-2.52,4.25-3.32Z"/><path class="cls-9" d="M13.49,68.83c.34-.71-.08-3.84-.83-3.82a7.39,7.39,0,0,0-3.32,2.85c-.67,1.64-.09,3.7.5,4.06s3.23-2.24,3.65-3.09Z"/><path class="cls-7" d="M54.89,76.68c-.24-1.45-2.63-3.82-3.45-3.44A7.75,7.75,0,0,0,50,77.53c.31,1.28,2.65,3.55,3.37,3.65.91.12,1.79-2.89,1.52-4.5Z"/><path class="cls-10" d="M44.85,78.53c0-1.25-2.92-4.06-4.24-3.74-1.3.62-3.06,3.25-3,4.14.11,1.22,2.55,3.45,3.73,3.86,1.68.58,3.49-3.14,3.49-4.26Z"/><path class="cls-9" d="M31.06,79.49c.2-1.16-2.74-4.28-4.23-4.09-1.55.51-3.68,2.86-3.73,3.86-.06,1.27,2,3.61,3.32,4.17,1.74.72,4.46-2.84,4.65-3.94Z"/><path class="cls-9" d="M17,79.25c.3-1.05-1.63-4.48-2.78-4.41a6.38,6.38,0,0,0-3.39,3.55C10.57,79.91,12,82.5,13,82.92s3.63-2.56,3.95-3.67Z"/><path class="cls-9" d="M6.43,77.92c.3-.9-.32-4.58-.92-4.6A6.14,6.14,0,0,0,2.67,76.4c-.48,2.22.6,4.8,1.07,4.94S6.1,78.9,6.43,77.92Z"/><path class="cls-7" d="M59.84,86.37c-.11-2-1.51-4.24-2.1-3.8a13.11,13.11,0,0,0-1.39,4.85c.15,1.35,1.71,4.07,2.37,3.83s1.24-2.62,1.12-4.89Z"/><path class="cls-7" d="M52,88.69c.07-1.49-2.36-4.43-3.67-4-1.25.75-3,3.72-2.9,4.7.09,1.19,2.11,3.89,3.55,4,1.22.14,2.93-2.82,3-4.73Z"/><path class="cls-10" d="M39,90.24c.19-1.39-2.87-4.62-4.53-4.33-1.64.62-3.89,3.15-3.93,4.43a6.56,6.56,0,0,0,3.61,4.16c2.58,1.08,4.73-3.33,4.86-4.26Z"/><path class="cls-9" d="M23.51,90.64c.24-1.24-2.69-4.85-4.18-4.71-1.59.5-3.5,2.91-3.55,4.09A6.65,6.65,0,0,0,19,94.62c1.85.81,4.26-2.68,4.51-4Z"/><path class="cls-9" d="M10.19,89.76c.21-1.11-1.74-5-2.73-5C6.25,85.17,5,87.43,5,88.56c-.06,1.43.95,4.36,2.12,4.94s2.82-2.34,3.08-3.74Z"/><path class="cls-7" d="M57,98.89c.21-1.59-1.5-4.38-2.4-3.94-.69.62-2.71,3.64-2.74,4.85,0,1,1.68,3.44,2.51,3.55s2.42-2.79,2.64-4.46Z"/><path class="cls-7" d="M46.32,100.87c.25-1.3-2.49-4.54-3.91-4.16-.87.47-3.71,3.2-3.76,4.6,0,1,2.12,3.26,3.49,3.7,1.61.52,4-3,4.18-4.14Z"/><path class="cls-10" d="M31.63,101.89c.28-1.33-3.31-4.73-4.74-4.5-1.06.43-3.75,2.75-3.75,4.26,0,1.08,2.21,3.44,3.75,4,1.76.64,4.53-2.72,4.75-3.77Z"/><path class="cls-10" d="M16.61,101.64c.2-1.31-3-5-4-4.87-.94.4-2.76,2.5-2.66,4,.09,1.31,2,4,3.22,4.4s3.24-2.43,3.41-3.49Z"/><path class="cls-10" d="M5.41,100.21c.05-.9-1.88-5.2-2.5-5.16a5,5,0,0,0-1.67,3.73c.21,2.08,2,4.58,2.52,4.73s1.6-2.35,1.65-3.3Z"/><path class="cls-7" d="M58.75,108.74c.51-1.76,0-3.83-.69-3.4a17.62,17.62,0,0,0-2.53,4.42c-.16.71.48,2.87.86,2.92s1.76-1.9,2.35-3.94Z"/><path class="cls-7" d="M51.36,110.92c.42-1.25-1.28-3.9-2.61-3.5-1.15.6-3.35,3.08-3.53,4.18-.13.75,1.38,2.67,2.33,3S51,112,51.36,110.92Z"/><path class="cls-7" d="M39.07,112.37c.36-1.18-2.41-4-4.08-3.73-1.47.51-3.77,2.64-3.88,3.87-.06.71,1.83,2.5,3.27,3.09,2.09.85,4.57-2.81,4.69-3.23Z"/><path class="cls-10" d="M24.48,112.75c.19-1-3-4.22-4.47-4.09A4.65,4.65,0,0,0,17.16,112c.08,1.23,2.21,3,3.29,3.58,2.1,1,4-2.59,4-2.82Z"/><path class="cls-10" d="M11.93,111.93c0-.94-2.74-4.45-3.67-4.44-.91.32-1.6,2.1-1.29,3.34A8.48,8.48,0,0,0,10,114.7c.87.38,1.9-2.06,1.89-2.77Z"/><path class="cls-7" d="M53.48,119.1c.94-1.39-.49-3.12-1.34-2.79a14.56,14.56,0,0,0-3.44,3.54c-.22.44.12,2.15.55,2.2a10,10,0,0,0,4.24-3Z"/><path class="cls-7" d="M43.88,120.69c.63-1.08-1.17-3.14-2.51-2.86a8.43,8.43,0,0,0-3.59,3.08c-.27.87,1.43,2.14,1.94,2.35,1.27.53,3.91-2.14,4.16-2.57Z"/><path class="cls-7" d="M32,121.52c.32-1-2.67-3.24-4-3.09-1.41.4-2.8,1.9-2.85,2.77,0,.62,1.47,1.76,2.56,2.3s1.36.42,1.77.23A5.46,5.46,0,0,0,32,121.52Z"/><path class="cls-7" d="M19.88,121.31c-.05-.78-3.14-3.47-4.2-3.43a2.13,2.13,0,0,0-1.29,2.56,8,8,0,0,0,3.14,2.66c.86.44,1,.38,1.33.13a3.2,3.2,0,0,0,1-1.93Z"/><path class="cls-11" d="M13.7,59a4.65,4.65,0,0,0,.58-1.15h0a3.77,3.77,0,0,0-1.5.75c-.5.56-.54,1.33-.4,1.38s1.09-.69,1.35-1Z"/><path class="cls-11" d="M4.3,108.92c0-.22-1.09-3.28-.95-.94a4.26,4.26,0,0,0,.36,1.59,2.31,2.31,0,0,0,.65.44,9.91,9.91,0,0,0-.07-1.09Z"/><path class="cls-11" d="M7.28,66.06a7.26,7.26,0,0,0,.46-1.54h0a3.42,3.42,0,0,0-1.27,1.23A1.73,1.73,0,0,0,6.3,67.2c.13,0,.87-.94,1-1.14Z"/><path class="cls-11" d="M58.48,74.59a5.13,5.13,0,0,0-.73-1.66c-.07-.14-.35-.61-.41-.47a11.38,11.38,0,0,0,.14,1.73,4.42,4.42,0,0,0,.85,1.37,2.65,2.65,0,0,0,.16-1Z"/><path class="cls-11" d="M1.8,87.14a7.77,7.77,0,0,0-.37-2.27A3.83,3.83,0,0,0,.76,87a2.29,2.29,0,0,0,.48,1.67,4.25,4.25,0,0,0,.57-1.56Z"/><path class="cls-11" d="M60.59,96.32c0-.22-.12-2.27-.36-2.25l0,0a18.08,18.08,0,0,0-.46,2,4.33,4.33,0,0,0,.32,1.38s.43,0,.52-1.16Z"/><path class="cls-11" d="M9.71,118.73a6.78,6.78,0,0,0-1.41-1.5.91.91,0,0,0,0,1.18,4,4,0,0,0,1.55,1.14c.14,0-.12-.8-.13-.81Z"/><path class="cls-11" d="M48.29,57.7a5.3,5.3,0,0,0-1.44-1,2,2,0,0,0-.65-.26v0s.82.94,1,1.07a6.51,6.51,0,0,0,1.23.85,1.24,1.24,0,0,0-.12-.66Z"/><path class="cls-11" d="M45.28,58.65a3.32,3.32,0,0,0-1.58-.84,2.48,2.48,0,0,0,.3,1.14,3.49,3.49,0,0,0,1.46,1c.23-.06.2-.78-.19-1.26Z"/><path class="cls-11" d="M38.17,59.78a2.61,2.61,0,0,0-1.44-1A1.6,1.6,0,0,0,36.28,60,2.47,2.47,0,0,0,37.58,61c.39.06.78-.77.59-1.25Z"/><path class="cls-11" d="M28.85,60.28c0-.28-.69-1.13-1-1.09s-1.05.74-1.11,1.09a1.41,1.41,0,0,0,.77,1.15c.51.22,1.3-.81,1.33-1.16Z"/><path class="cls-11" d="M19.75,60c.09-.17.05-1.17-.2-1.15a3.57,3.57,0,0,0-1.43,1c-.24.43-.1,1.11.17,1.24s1.26-.7,1.46-1.08Z"/><path class="cls-11" d="M53.41,65.43c-.26-.52-1.3-1.13-1.45-1a3.27,3.27,0,0,0,.2,1.51c.16.28,1.1,1.21,1.29,1.14s.29-1,0-1.65Z"/><path class="cls-11" d="M46,67.31c-.13-.46-1.28-1.31-1.61-1.2a2.22,2.22,0,0,0-.55,1.43,3,3,0,0,0,1.51,1.33c.42.06.8-1,.65-1.56Z"/><path class="cls-11" d="M34.89,68.42c0-.39-1.1-1.41-1.56-1.33a2.55,2.55,0,0,0-1.19,1.37c0,.5.85,1.25,1.34,1.42.64.23,1.42-1,1.41-1.46Z"/><path class="cls-11" d="M22.48,68.56c.1-.36-.66-1.5-1.08-1.45A2.92,2.92,0,0,0,20,68.37a1.78,1.78,0,0,0,.79,1.53c.55.29,1.61-1,1.7-1.33Z"/><path class="cls-11" d="M12.17,67.72c.14-.29,0-1.54-.33-1.53a3,3,0,0,0-1.33,1.14,1.64,1.64,0,0,0,.2,1.62c.29.17,1.29-.9,1.46-1.24Z"/><path class="cls-11" d="M53.41,76.07c-.1-.58-1.05-1.53-1.38-1.37a3.1,3.1,0,0,0-.58,1.72,3.06,3.06,0,0,0,1.35,1.46c.37,0,.72-1.16.61-1.8Z"/><path class="cls-11" d="M42.66,77.79c0-.5-1.17-1.62-1.7-1.49A2.8,2.8,0,0,0,39.77,78c0,.48,1,1.38,1.49,1.54.67.24,1.4-1.25,1.4-1.7Z"/><path class="cls-11" d="M28.65,78.56c.08-.46-1.1-1.71-1.69-1.64a2.8,2.8,0,0,0-1.49,1.54,2.55,2.55,0,0,0,1.33,1.67c.7.29,1.79-1.14,1.86-1.57Z"/><path class="cls-11" d="M15.08,78.13c.12-.42-.65-1.79-1.11-1.76a2.54,2.54,0,0,0-1.35,1.42,2.23,2.23,0,0,0,.89,1.81c.41.17,1.45-1,1.58-1.47Z"/><path class="cls-11" d="M5.27,76.66c.12-.36-.12-1.83-.37-1.84a2.45,2.45,0,0,0-1.13,1.23,2.41,2.41,0,0,0,.43,2c.2.06.94-1,1.07-1.37Z"/><path class="cls-11" d="M58.78,85.78c0-.79-.6-1.7-.84-1.52a5.23,5.23,0,0,0-.56,1.94c.06.54.69,1.63.95,1.53s.5-1,.45-2Z"/><path class="cls-11" d="M50,88c0-.6-.94-1.77-1.47-1.61a3.36,3.36,0,0,0-1.16,1.88c0,.48.84,1.56,1.42,1.62S50,88.76,50,88Z"/><path class="cls-11" d="M36.45,89.35c.08-.55-1.15-1.85-1.81-1.73a3,3,0,0,0-1.57,1.77,2.61,2.61,0,0,0,1.44,1.66c1,.44,1.89-1.33,1.94-1.7Z"/><path class="cls-11" d="M21.17,89.55c.1-.49-1.07-1.94-1.67-1.88a2.54,2.54,0,0,0-1.42,1.64,2.67,2.67,0,0,0,1.28,1.84c.74.32,1.7-1.07,1.8-1.59Z"/><path class="cls-11" d="M8.61,88.49c.08-.45-.7-2-1.09-2a2.13,2.13,0,0,0-1,1.53,2.73,2.73,0,0,0,.85,2c.41.2,1.13-.94,1.23-1.5Z"/><path class="cls-11" d="M55.45,98.13c.08-.64-.6-1.75-1-1.58a4.9,4.9,0,0,0-1.1,1.94,2.13,2.13,0,0,0,1,1.42c.33,0,1-1.12,1.06-1.78Z"/><path class="cls-11" d="M44,100c.1-.52-1-1.82-1.56-1.67-.35.19-1.49,1.28-1.51,1.84,0,.39.85,1.3,1.4,1.48S43.91,100.42,44,100Z"/><path class="cls-11" d="M29.06,100.78c.11-.53-1.32-1.89-1.9-1.8-.42.17-1.5,1.1-1.5,1.7,0,.43.88,1.38,1.5,1.6s1.81-1.09,1.9-1.51Z"/><path class="cls-11" d="M14.6,100.32c.08-.52-1.21-2-1.59-1.95A2.19,2.19,0,0,0,12,100a2.93,2.93,0,0,0,1.29,1.76c.44.16,1.3-1,1.36-1.4Z"/><path class="cls-11" d="M4.13,98.74c0-.36-.75-2.08-1-2.07a2,2,0,0,0-.67,1.49,3.2,3.2,0,0,0,1,1.89c.21.06.64-.94.66-1.32Z"/><path class="cls-11" d="M57.82,108c.21-.71,0-1.53-.27-1.36a7.08,7.08,0,0,0-1,1.77c-.06.29.19,1.15.34,1.17a3,3,0,0,0,.94-1.58Z"/><path class="cls-11" d="M49.5,110.06c.17-.5-.51-1.56-1-1.4a3.84,3.84,0,0,0-1.41,1.68c-.05.3.55,1.07.93,1.19s1.38-1,1.52-1.46Z"/><path class="cls-11" d="M36.67,111.35c.14-.48-1-1.6-1.63-1.49s-1.51,1.06-1.55,1.55c0,.29.74,1,1.31,1.23.83.34,1.83-1.12,1.88-1.29Z"/><path class="cls-11" d="M22.26,111.51c.07-.41-1.2-1.69-1.79-1.64a1.87,1.87,0,0,0-1.14,1.33c0,.49.88,1.22,1.32,1.43.84.42,1.59-1,1.61-1.13Z"/><path class="cls-11" d="M10.4,110.53c0-.38-1.1-1.78-1.47-1.77a1.27,1.27,0,0,0-.52,1.34,3.38,3.38,0,0,0,1.23,1.54c.35.15.76-.83.76-1.11Z"/><path class="cls-11" d="M52.09,118.22c.38-.55-.2-1.25-.54-1.12a5.92,5.92,0,0,0-1.38,1.42c-.09.18,0,.86.22.88a4,4,0,0,0,1.7-1.18Z"/><path class="cls-11" d="M42.06,119.7c.25-.43-.47-1.25-1-1.14a3.35,3.35,0,0,0-1.44,1.23c-.11.35.57.85.77.94.51.21,1.57-.85,1.67-1Z"/><path class="cls-11" d="M29.92,120.38c.13-.38-1.06-1.3-1.62-1.23a1.7,1.7,0,0,0-1.14,1.11c0,.25.59.7,1,.92s.55.17.71.09a2.14,2.14,0,0,0,1-.88Z"/><path class="cls-11" d="M18.18,120a3.15,3.15,0,0,0-1.68-1.37.86.86,0,0,0-.52,1,3.18,3.18,0,0,0,1.26,1.07c.34.18.41.15.54.05a1.28,1.28,0,0,0,.4-.77Z"/><ellipse class="cls-12" cx="17.42" cy="62.21" rx="1.05" ry="1.04" transform="translate(-1.48 0.43) rotate(-1.37)"/><ellipse class="cls-12" cx="18.67" cy="70.18" rx="1.05" ry="1.03" transform="translate(-1.67 0.47) rotate(-1.37)"/><ellipse class="cls-12" cx="11.2" cy="78.17" rx="1.05" ry="1.03" transform="matrix(1, -0.02, 0.02, 1, -1.86, 0.29)"/><ellipse class="cls-12" cx="9.21" cy="69.25" rx="0.67" ry="0.66" transform="translate(-1.65 0.24) rotate(-1.37)"/><ellipse class="cls-12" cx="5" cy="89.07" rx="0.67" ry="0.66" transform="matrix(1, -0.02, 0.02, 1, -2.12, 0.14)"/><ellipse class="cls-12" cx="16.64" cy="91.32" rx="0.67" ry="0.66" transform="translate(-2.17 0.42) rotate(-1.37)"/><ellipse class="cls-12" cx="23.68" cy="79.95" rx="0.67" ry="0.66" transform="translate(-1.9 0.59) rotate(-1.37)"/></svg>