<svg id="Layer_1" data-name="Layer 1" xmlns="http://www.w3.org/2000/svg" viewBox="0 0 89.19 187.39"><defs><style>.cls-1{fill:#cc5702;}.cls-2{fill:#436600;}.cls-3{fill:#79a840;}.cls-4{fill:#6c9830;}.cls-5{fill:#517710;}.cls-6{fill:#5e8720;}.cls-7{fill:#fa0;}.cls-8{fill:#ff8000;}.cls-9{fill:#ffd500;}.cls-10{fill:#ffbf00;}.cls-11{fill:#9f4334;}.cls-12{fill:#fff;}</style></defs><title>pineappleBig</title><path class="cls-1" d="M18.42,183.75a38.12,38.12,0,0,1-7.48-9C-1.6,153.23-3.83,101.63,25.34,84.16c.71-.42,8.36-1.78,9.76-1.87,9-.57,25.54.26,26.64.9,17.39,8.12,24.78,28.56,25.36,52.61.41,16.76-1.82,35-13.82,46.61C67.75,187.76,24.19,188.81,18.42,183.75Z"/><path class="cls-2" d="M49.16,46.77c3.69-7.33,18.49-21.52,31.59-26-5.64,6.41-16.63,19.2-19.95,28C58.09,49.76,49.16,46.77,49.16,46.77Z"/><path class="cls-3" d="M46.14,25.45C48.37,18.22,57.37,3.78,67.1,0,61,7.39,54.19,23.83,55.37,40S46.14,25.45,46.14,25.45Z"/><path class="cls-2" d="M36,47.73C31.28,37.39,22.58,18.29,27.4,1c3.52,1.69,12.42,9,17.24,25.64S36,47.73,36,47.73Z"/><path class="cls-4" d="M37.32,47.05c-4-7.14-19.52-20.6-32.82-24.46C10.44,28.72,22,41,25.78,49.58,28.54,50.48,37.32,47.05,37.32,47.05Z"/><path class="cls-3" d="M37.79,45.8C36.15,38.13,21.35,12.77,13.13,7c2.72,5.94,15.27,28.94,15.29,38.53C31.4,46.92,37.79,45.8,37.79,45.8Z"/><path class="cls-5" d="M37.85,49.29c-2.15-5.84-6-20.61,8.59-35,3.1,5.08,8.29,19.91,5.52,28.82S37.85,49.29,37.85,49.29Z"/><path class="cls-3" d="M37.48,53.65c-3.2-5.55-20.9-18-30.46-20.33,5.45,5.82,17.2,18.56,18.66,25.77C27.33,60.32,37.48,53.65,37.48,53.65Z"/><path class="cls-6" d="M49.32,53.36c2.92-5.7,20-19,29.43-21.79-5.16,6.08-16.28,19.38-17.39,26.64C50.95,71.17,49.32,53.36,49.32,53.36Z"/><path class="cls-6" d="M46.63,42.27c2.65-7.38,20.69-30.55,29.61-35.18-3.48,5.53-19,26.66-20.28,36.17C52.82,44.22,46.63,42.27,46.63,42.27Z"/><path class="cls-6" d="M30.94,65.87c-.22-5.14-2.75-22.94-5.14-28.67,3.73,1,16.71,10.7,21.05,17.35S30.94,65.87,30.94,65.87Z"/><path class="cls-4" d="M40.49,56.31C41.92,51.12,49,32.45,65.13,31.42c-1.84,3.75-9.49,19.53-9.18,32.4S40.49,56.31,40.49,56.31Z"/><path class="cls-4" d="M37.35,65.16c-2.07-5.58-16.9-19.21-31.27-20.48,7,4.34,19,13,20.86,23C28.9,68.74,37.35,65.16,37.35,65.16Z"/><path class="cls-3" d="M33.63,74.49c-3.19-5.24-12.75-14-23.2-13C16.14,64.3,23.06,70.63,25,76.66,27.1,77.38,33.63,74.49,33.63,74.49Z"/><path class="cls-4" d="M54.17,74c2.93-5.38,12.05-14.61,22.54-14.06-5.57,3-12.18,9.69-13.8,15.81C60.84,76.56,54.17,74,54.17,74Z"/><path class="cls-5" d="M49.38,72.26c1.79-5.68,15.95-20,30.24-22C72.8,55,61.26,64.2,59.9,74.31,52,84.08,49.38,72.26,49.38,72.26Z"/><path class="cls-2" d="M36.11,70.25C36.87,64,34.9,53.55,47.83,49c2.78,1.54,6.86,9.76,7.3,15.27C56.19,77.43,36.11,70.25,36.11,70.25Z"/><path class="cls-3" d="M42.31,80.31c1.33-4.92,6.42-20.73,20.56-22.3-2.6,5.77-6.52,15.44-6.5,23.59C52.73,84.54,42.31,80.31,42.31,80.31Z"/><path class="cls-5" d="M32.8,80.14c-2.88-5.56-10.85-22.26-17.06-25.81,9.55,2,19.51,3.55,24.95,10.33S32.8,80.14,32.8,80.14Z"/><path class="cls-5" d="M37,81.49C34.32,76.4,25.41,67.61,12.9,69.84,17.94,72,24.51,77,26.13,84,29,84.09,37,81.49,37,81.49Z"/><path class="cls-5" d="M52.55,82.63C55,77.43,63.48,68.21,76.08,69.84c-4.94,2.37-11.26,7.67-12.53,14.77C60.66,84.85,52.55,82.63,52.55,82.63Z"/><path class="cls-2" d="M31.74,82.9c-1.1-5.28-.53-15.11,2.33-20,4.63,1.34,15.08,7.19,16.68,13.43C49.57,80.7,31.74,82.9,31.74,82.9Z"/><path class="cls-3" d="M30.56,87.05c-.82-3.28-3.24-10.82-2.77-14,4.39,1,15.29,5.69,17.74,12.25C42.84,86.41,30.56,87.05,30.56,87.05Z"/><path class="cls-2" d="M34.29,87.31c-.85-3.12-3.78-12.24-18.6-12.09C20.24,77.11,26.36,81,27,87,28.66,87.5,34.29,87.31,34.29,87.31Z"/><path class="cls-4" d="M51.46,84.23c1.38-2.93,5.85-11.4,20.41-8.7-4.81,1.08-11.51,3.82-13.14,9.65C57,85.38,51.46,84.23,51.46,84.23Z"/><path class="cls-5" d="M38.76,86.59c1.93-7,5.76-14.94,17.31-16.83.45,5-3.11,11.17-2.5,16.47C50.53,86.95,38.76,86.59,38.76,86.59Z"/><path class="cls-7" d="M22.48,90.48c.65-.76,3.75-6.72,3.43-7.11h-.17c-1.85.46-7,2.42-8.85,4.61-2.93,3.44-3.15,8.21-2.35,8.5s6.43-4.24,7.94-6Z"/><path class="cls-8" d="M9.39,165.59c-.26-1.37-6.47-20.26-5.57-5.82C4.21,166.16,6,169.6,6,169.6c.16.35,3.47,2.88,3.82,2.72a58.11,58.11,0,0,0-.39-6.72Z"/><path class="cls-7" d="M12.9,101.38c.76-1.35,2.94-8.89,2.74-9.49l-.12,0c-1.82.69-5.86,4.45-7.49,7.58-2.11,4.06-1.53,7.71-.94,9,.75.11,5.11-5.78,5.81-7Z"/><path class="cls-8" d="M86.61,115.91a32.41,32.41,0,0,0-4.34-10.27c-.43-.85-2.07-3.75-2.43-2.88a74.68,74.68,0,0,0,.83,10.66c.64,2.12,4.36,8.61,5,8.48a17.24,17.24,0,0,0,.93-6Z"/><path class="cls-7" d="M6.19,133.3c.25-1.8-1.36-13.89-2.2-14-1.43,1-3.84,7.6-4,13.31-.15,5.49,1.92,10.11,2.82,10.32,1.34-.84,3.14-8,3.36-9.62Z"/><path class="cls-8" d="M89,147.84c.1-1.39-.73-14-2.13-13.89l-.11.22c0,.09-2.64,9.87-2.74,12.34-.08,1.89,1.38,8,1.91,8.49,0,0,2.51-.21,3.07-7.16Z"/><path class="cls-8" d="M18.36,180c-.55-1.29-7.18-9.2-8.37-9.28-.85.46-2.27,3.77-.05,7.25,2.35,3.68,8.22,6.75,9.16,7s-.72-4.93-.74-5Z"/><path class="cls-8" d="M74,89.58a31.36,31.36,0,0,0-8.5-6.32c-2.45-1.34-3.57-1.63-3.81-1.59,0,0,0,.06,0,.08s4.84,5.82,5.71,6.62,6.56,5.41,7.28,5.28A7.77,7.77,0,0,0,74,89.58Z"/><path class="cls-8" d="M68.17,88.58c-1.74-2.21-8.47-5.77-9.32-5.22-.26.65.73,5.68,1.8,7,1.83,2.27,7.39,6.28,8.64,6s1.19-4.81-1.13-7.75Z"/><path class="cls-7" d="M59.5,90.54c-.77-2-7-6.44-8.51-6-1.07.73-3.31,5.35-2.68,7.07.85,2.32,5.46,6.31,7.71,6.67s4.61-4.76,3.48-7.73Z"/><path class="cls-7" d="M46.82,91.67c.14-1.74-4.06-7-5.87-6.7-1.75.67-6.22,4.59-6.53,6.73s2.14,6,4.53,7.11c3,1.38,7.7-5,7.87-7.14Z"/><path class="cls-7" d="M33.06,91.64c.53-1,.29-7.23-1.23-7.1-1.91.55-7.26,3.94-8.43,6.11-1.42,2.63-.59,6.86,1,7.64s7.43-4.31,8.63-6.64Z"/><path class="cls-8" d="M79.7,98c-1.57-3.18-7.68-6.94-8.55-6.14-.31.85-.1,7,1.17,9.33.93,1.72,6.48,7.47,7.63,7S81.65,102,79.7,98Z"/><path class="cls-7" d="M71.14,101.52c-.78-2.85-7.52-8.12-9.49-7.41-1.82,1.36-3.68,7.46-3.23,8.8,1.08,3.22,6.84,7.94,8.93,8.23,2.49.35,4.71-6.26,3.79-9.61Z"/><path class="cls-7" d="M56.83,103.61c0-2.43-6.5-8.72-9.19-8.21-3.06,1.28-7.12,6.78-7,8.42.15,3.09,5,7.74,7.89,8.8,3.76,1.39,8.37-6.21,8.34-9Z"/><path class="cls-7" d="M38.68,104.37c.59-2.23-3.89-9.23-6.39-9-3.21,1-7.92,5.94-8.3,7.76-.69,3.24,2.43,8.16,4.68,9.41,3.25,1.81,9.5-6.21,10-8.19Z"/><path class="cls-7" d="M22.37,103.54c.8-1.76-.18-9.47-2-9.41-2.69.78-7.1,5.16-7.83,7-1.58,4.06-.2,9.13,1.18,10,1.7,1.08,7.64-5.51,8.61-7.62Z"/><path class="cls-8" d="M81.29,114.36c-.58-3.57-6.21-9.44-8.15-8.5-1.74,1.65-3.84,8.72-3.4,10.59.73,3.15,6.26,8.77,8,9,2.16.31,4.23-7.12,3.58-11.11Z"/><path class="cls-7" d="M68.16,117.32c0-3.09-6.89-10-10-9.23-3.06,1.54-7.23,8-7,10.21.28,3,6,8.52,8.82,9.53,4,1.45,8.24-7.73,8.23-10.51Z"/><path class="cls-7" d="M49,119c.45-2.86-6.49-10.57-10-10.09-3.66,1.25-8.68,7.05-8.8,9.51-.15,3.14,4.61,8.9,7.83,10.3,4.12,1.78,10.55-7,11-9.71Z"/><path class="cls-7" d="M28.14,119c.7-2.59-3.87-11.06-6.57-10.88-3.45,1.07-7.67,6.45-8,8.75-.51,3.73,2.81,10.14,5.25,11.18s8.58-6.33,9.31-9.05Z"/><path class="cls-7" d="M12.12,117.23c.7-2.21-.75-11.31-2.18-11.34-2.21.82-6.18,5.13-6.7,7.59-1.14,5.46,1.43,11.83,2.55,12.19s5.56-6,6.32-8.44Z"/><path class="cls-8" d="M87.66,128.7c-.25-4.85-3.56-10.46-5-9.39-1.29,1.82-3.5,9.87-3.27,12,.36,3.32,4,10,5.61,9.46,1.39-.52,2.92-6.46,2.63-12Z"/><path class="cls-8" d="M78.06,132.31c.17-3.67-5.58-10.95-8.67-9.91-3,1.85-7,9.18-6.85,11.59.21,2.94,5,9.61,8.38,10,2.89.34,6.91-7,7.14-11.68Z"/><path class="cls-7" d="M60.49,134.88c.45-3.42-6.79-11.39-10.7-10.67-3.88,1.54-9.16,7.76-9.28,10.92,0,1.37,3,7.82,8.52,10.26,6.09,2.67,11.16-8.21,11.47-10.51Z"/><path class="cls-7" d="M38.17,135.81c.57-3-6.36-12-9.87-11.61-3.75,1.24-8.25,7.16-8.36,10.09-.07,1.93,2.89,9.2,7.58,11.33,4.38,2,10.05-6.6,10.65-9.81Z"/><path class="cls-7" d="M18.12,134.79c.48-2.75-4.12-12.44-6.45-12.37-2.86,1-5.73,6.6-5.83,9.4-.13,3.54,2.25,10.76,5,12.19,2.41,1.25,6.66-5.77,7.27-9.22Z"/><path class="cls-8" d="M84.43,147.51c.49-3.91-3.54-10.82-5.68-9.73-1.62,1.52-6.39,9-6.47,12-.06,2.52,4,8.5,5.93,8.75s5.7-6.89,6.23-11Z"/><path class="cls-8" d="M70.47,150.67c.58-3.2-5.89-11.2-9.24-10.27-2.06,1.17-8.76,7.88-8.86,11.34-.08,2.41,5,8,8.25,9.13,3.79,1.29,9.35-7.43,9.85-10.21Z"/><path class="cls-7" d="M50.06,152.49c.66-3.26,1.55-30.4-11.21-11.1-1.5,2.27-8.86,6.77-8.86,10.51,0,2.67,5.22,8.49,8.86,9.88,4.16,1.59,10.69-6.7,11.21-9.29Z"/><path class="cls-7" d="M27.9,152.44c.48-3.22-7.17-12.27-9.36-12-2.21,1-6.52,6.15-6.28,9.77.21,3.23,4.83,9.83,7.61,10.87,2.6,1,7.65-6,8-8.61Z"/><path class="cls-7" d="M10.87,150.56C11,148.35,6.43,137.73,5,137.82,3.72,138.7.65,143,1,147c.5,5.14,4.73,11.31,5.95,11.68s3.77-5.79,3.9-8.13Z"/><path class="cls-8" d="M85.9,162.08c1.2-4.35-.06-9.44-1.62-8.39-1.49,1.58-5.48,8.7-6,10.91-.38,1.75,1.12,7.08,2,7.22s4.15-4.68,5.55-9.73Z"/><path class="cls-8" d="M76.88,165.47c1-3.09-3-9.62-6.17-8.64-2.72,1.49-7.9,7.59-8.34,10.32-.29,1.85,3.25,6.58,5.5,7.35,2.58.88,8.15-6.37,9-9Z"/><path class="cls-8" d="M60.36,167.88c.84-2.92-5.7-9.89-9.64-9.21-3.49,1.27-8.91,6.51-9.16,9.55-.15,1.77,4.33,6.18,7.73,7.62,4.93,2.09,10.77-6.93,11.07-8Z"/><path class="cls-7" d="M39.39,168.77c.44-2.53-7.08-10.42-10.57-10.1-3.74,1.18-6.84,6.3-6.72,8.22.19,3,5.22,7.5,7.78,8.83,5,2.58,9.41-6.39,9.51-7Z"/><path class="cls-7" d="M20.53,167.81c0-2.32-6.48-11-8.67-10.95-2.15.79-3.78,5.18-3.05,8.24.67,2.81,5,8.51,7.26,9.53,2.07.94,4.48-5.08,4.46-6.82Z"/><path class="cls-8" d="M79.17,177.61c2.21-3.42-1.17-7.71-3.17-6.88-2,1.26-7.06,6.52-8.12,8.74-.52,1.08.3,5.31,1.29,5.43s7.86-4,10-7.28Z"/><path class="cls-8" d="M66.27,180.11c1.49-2.66-2.77-7.74-5.93-7-3.53,1.39-8,6.08-8.47,7.58-.63,2.15,3.38,5.28,4.57,5.8,3,1.31,9.24-5.26,9.84-6.33Z"/><path class="cls-8" d="M49.86,181.58c.75-2.36-6.3-8-9.55-7.63-3.33,1-6.61,4.67-6.72,6.82-.08,1.53,3.47,4.34,6.05,5.68,2.4,1.25,3.22,1,4.18.58,3.14-1.5,5.63-4.19,6-5.46Z"/><path class="cls-8" d="M32.05,181.54c-.12-1.92-7.41-8.57-9.91-8.46-2.49.75-3.78,4.15-3,6.31.55,1.62,4.16,4.82,7.43,6.58,2,1.09,2.39.94,3.15.33s2.47-3.27,2.38-4.76Z"/><path class="cls-9" d="M20.87,88.93c.41-.46,2.32-4,2.12-4.26h-.1c-1.14.28-4.31,1.46-5.46,2.77-1.82,2.07-2,4.93-1.45,5.1s4-2.54,4.9-3.61Z"/><path class="cls-7" d="M7.27,163.37c-.16-.82-4-12.15-3.44-3.49a15.79,15.79,0,0,0,1.32,5.89,8.52,8.52,0,0,0,2.35,1.63,34.88,34.88,0,0,0-.24-4Z"/><path class="cls-9" d="M11.29,99.56A27,27,0,0,0,13,93.87h-.08a12.58,12.58,0,0,0-4.62,4.56,6.49,6.49,0,0,0-.58,5.37c.47.06,3.15-3.47,3.59-4.22Z"/><path class="cls-7" d="M86.39,113.07a19.19,19.19,0,0,0-2.67-6.16c-.26-.51-1.27-2.25-1.5-1.73a43.61,43.61,0,0,0,.5,6.39c.4,1.27,2.68,5.17,3.09,5.09a10.2,10.2,0,0,0,.58-3.59Z"/><path class="cls-10" d="M3.82,131.11C4,130,3,122.77,2.46,122.7c-.88.61-2.37,4.57-2.46,8s1.18,6.07,1.73,6.19c.83-.51,1.94-4.82,2.08-5.77Z"/><path class="cls-7" d="M89.19,145.12c.06-.83-.44-8.38-1.31-8.33l-.07.13a68.68,68.68,0,0,0-1.69,7.41,16.42,16.42,0,0,0,1.18,5.09s1.55-.13,1.9-4.3Z"/><path class="cls-7" d="M15.78,177.85c-.33-.78-4.42-5.52-5.15-5.56-.53.28-1.4,2.26,0,4.35s5.06,4,5.64,4.21-.44-3-.46-3Z"/><path class="cls-7" d="M72.47,87.45a19.18,19.18,0,0,0-5.24-3.79,7,7,0,0,0-2.35-1v.05s3,3.49,3.52,4,4,3.25,4.49,3.16a4.48,4.48,0,0,0-.42-2.43Z"/><path class="cls-7" d="M67.31,87.71c-1.07-1.32-5.22-3.45-5.74-3.13a9.15,9.15,0,0,0,1.1,4.2c1.13,1.36,4.55,3.77,5.33,3.58s.74-2.88-.69-4.65Z"/><path class="cls-10" d="M57.64,89.52c-.47-1.2-4.34-3.86-5.24-3.6-.66.44-2,3.21-1.66,4.24.52,1.39,3.36,3.79,4.75,4s2.85-2.86,2.14-4.65Z"/><path class="cls-9" d="M44.33,90.45c.09-1-2.5-4.19-3.62-4-1.08.4-3.84,2.75-4,4s1.32,3.62,2.79,4.27c1.86.82,4.75-3,4.86-4.29Z"/><path class="cls-9" d="M30.66,90.23c.33-.62.19-4.34-.75-4.26-1.18.33-4.48,2.37-5.2,3.67-.88,1.58-.37,4.12.63,4.58s4.58-2.59,5.32-4Z"/><path class="cls-7" d="M79.15,97.47c-1-1.9-4.73-4.16-5.27-3.68a12.37,12.37,0,0,0,.72,5.6c.57,1,4,4.48,4.7,4.21s1.05-3.75-.15-6.12Z"/><path class="cls-10" d="M69.27,100.59c-.48-1.71-4.63-4.87-5.85-4.44-1.12.82-2.27,4.48-2,5.28.66,1.93,4.21,4.76,5.5,4.93,1.54.21,2.91-3.75,2.34-5.77Z"/><path class="cls-10" d="M53.83,102.44c0-1.46-4-5.23-5.67-4.92-1.89.77-4.39,4.07-4.34,5.06.09,1.85,3.1,4.64,4.86,5.28,2.32.83,5.17-3.73,5.14-5.41Z"/><path class="cls-9" d="M35.48,102.93c.36-1.34-2.39-5.54-3.94-5.39-2,.61-4.89,3.57-5.12,4.66-.43,1.95,1.49,4.89,2.88,5.64,2,1.08,5.86-3.73,6.18-4.92Z"/><path class="cls-9" d="M19.64,101.88c.49-1.06-.11-5.68-1.2-5.65a10.82,10.82,0,0,0-4.83,4.22c-1,2.43-.13,5.48.72,6,1,.65,4.71-3.31,5.31-4.58Z"/><path class="cls-7" d="M79.92,113.49c-.35-2.14-3.82-5.66-5-5.09-1.07,1-2.37,5.23-2.1,6.35.45,1.89,3.85,5.26,4.91,5.4,1.33.18,2.61-4.27,2.21-6.66Z"/><path class="cls-10" d="M65.29,116.24c0-1.85-4.24-6-6.18-5.53-1.89.92-4.46,4.81-4.34,6.13.17,1.8,3.72,5.11,5.44,5.71,2.45.87,5.09-4.64,5.08-6.31Z"/><path class="cls-9" d="M45.21,117.66c.29-1.72-4-6.34-6.16-6.05-2.26.76-5.35,4.24-5.43,5.71-.09,1.88,2.84,5.34,4.83,6.18,2.53,1.07,6.5-4.21,6.77-5.83Z"/><path class="cls-9" d="M24.68,117.3c.43-1.56-2.38-6.63-4-6.53-2.12.64-4.74,3.88-4.93,5.26-.31,2.24,1.73,6.08,3.23,6.7s5.29-3.8,5.75-5.43Z"/><path class="cls-9" d="M9.36,115.33c.43-1.33-.46-6.79-1.34-6.81-1.36.49-3.81,3.08-4.13,4.55-.71,3.28.88,7.1,1.56,7.32s3.43-3.61,3.9-5.07Z"/><path class="cls-7" d="M87.13,127.84c-.15-2.91-2.19-6.28-3.06-5.63a19.64,19.64,0,0,0-2,7.18c.22,2,2.49,6,3.45,5.68s1.8-3.87,1.63-7.23Z"/><path class="cls-7" d="M75.77,131.28c.11-2.2-3.43-6.56-5.34-5.95-1.82,1.11-4.33,5.51-4.23,7,.13,1.76,3.06,5.76,5.16,6,1.78.2,4.26-4.17,4.4-7Z"/><path class="cls-10" d="M56.79,133.57c.28-2.05-4.18-6.83-6.59-6.4-2.39.92-5.66,4.66-5.73,6.56,0,.82,1.82,4.69,5.25,6.16,3.75,1.6,6.88-4.93,7.07-6.31Z"/><path class="cls-9" d="M34.22,134.17c.35-1.83-3.92-7.18-6.08-7-2.31.75-5.09,4.3-5.16,6.06,0,1.16,1.78,5.52,4.67,6.8,2.7,1.19,6.2-4,6.57-5.89Z"/><path class="cls-9" d="M14.84,132.87c.3-1.65-2.54-7.47-4-7.42-1.77.61-3.54,4-3.6,5.64-.08,2.12,1.38,6.46,3.08,7.32,1.49.75,4.11-3.47,4.49-5.54Z"/><path class="cls-7" d="M83,146.37c.31-2.35-2.18-6.49-3.5-5.83-1,.91-3.94,5.39-4,7.18,0,1.52,2.45,5.1,3.65,5.25s3.52-4.13,3.84-6.6Z"/><path class="cls-7" d="M67.43,149.31c.36-1.92-3.63-6.72-5.69-6.16-1.27.7-5.4,4.73-5.47,6.81,0,1.45,3.09,4.82,5.08,5.48,2.34.77,5.77-4.47,6.08-6.13Z"/><path class="cls-10" d="M46,150.82c.41-2-4.82-7-6.91-6.66-1.54.64-5.47,4.07-5.47,6.3,0,1.61,3.22,5.09,5.45,5.93,2.57.95,6.6-4,6.92-5.58Z"/><path class="cls-10" d="M24.19,150.44c.3-1.93-4.41-7.36-5.77-7.21-1.36.6-4,3.7-3.88,5.86.13,1.94,3,5.9,4.69,6.52s4.72-3.59,5-5.17Z"/><path class="cls-10" d="M7.87,148.33c.08-1.33-2.73-7.7-3.64-7.64A7.39,7.39,0,0,0,1.8,146.2c.31,3.08,2.91,6.78,3.66,7s2.33-3.48,2.41-4.88Z"/><path class="cls-7" d="M85.53,161c.74-2.61,0-5.67-1-5a26.2,26.2,0,0,0-3.68,6.55c-.23,1.05.69,4.25,1.26,4.33S84.67,164,85.53,161Z"/><path class="cls-7" d="M74.77,164.18c.61-1.85-1.87-5.77-3.8-5.18-1.68.89-4.87,4.56-5.15,6.19-.18,1.11,2,3.95,3.39,4.41,1.59.52,5-3.83,5.56-5.42Z"/><path class="cls-7" d="M56.89,166.33c.52-1.75-3.51-5.93-5.94-5.52-2.15.76-5.5,3.91-5.65,5.73-.09,1.06,2.67,3.71,4.76,4.57,3,1.25,6.65-4.16,6.83-4.78Z"/><path class="cls-10" d="M35.63,166.89c.27-1.52-4.36-6.25-6.51-6.06-2.3.71-4.22,3.78-4.14,4.94.11,1.81,3.21,4.5,4.8,5.3,3.06,1.55,5.8-3.84,5.86-4.18Z"/><path class="cls-10" d="M17.37,165.67c0-1.4-4-6.59-5.35-6.56-1.32.48-2.33,3.11-1.88,4.95.41,1.68,3.08,5.1,4.48,5.71s2.76-3.05,2.75-4.1Z"/><path class="cls-7" d="M77.86,176.29c1.36-2.05-.72-4.62-1.95-4.12a21.39,21.39,0,0,0-5,5.25c-.33.65.18,3.19.79,3.26s4.85-2.39,6.17-4.38Z"/><path class="cls-7" d="M63.89,178.63c.92-1.6-1.71-4.64-3.65-4.23-2.17.84-5,3.65-5.23,4.55-.39,1.29,2.09,3.17,2.82,3.48,1.85.78,5.7-3.16,6.06-3.8Z"/><path class="cls-7" d="M46.61,179.86c.46-1.42-3.88-4.8-5.89-4.57-2.05.59-4.07,2.81-4.15,4.1,0,.92,2.14,2.6,3.73,3.41s2,.62,2.58.34a8,8,0,0,0,3.73-3.28Z"/><path class="cls-7" d="M28.94,179.56c-.08-1.15-4.57-5.14-6.11-5.07A3.17,3.17,0,0,0,21,178.27c.34,1,2.56,2.89,4.58,3.94,1.25.65,1.47.56,1.94.19a4.77,4.77,0,0,0,1.47-2.86Z"/><path class="cls-11" d="M19.95,87.39a6.93,6.93,0,0,0,.85-1.7h0a5.45,5.45,0,0,0-2.18,1.1c-.73.83-.78,2-.58,2s1.59-1,2-1.44Z"/><path class="cls-11" d="M6.25,161.23c-.07-.33-1.59-4.86-1.38-1.4a6.39,6.39,0,0,0,.53,2.36,3.37,3.37,0,0,0,.94.65,14.92,14.92,0,0,0-.1-1.61Z"/><path class="cls-11" d="M10.6,97.78a10.88,10.88,0,0,0,.68-2.28h0A5,5,0,0,0,9.4,97.31a2.6,2.6,0,0,0-.23,2.15c.18,0,1.26-1.39,1.43-1.69Z"/><path class="cls-11" d="M85.14,110.4a7.65,7.65,0,0,0-1.07-2.46c-.1-.2-.51-.9-.6-.69a17.12,17.12,0,0,0,.2,2.56,6.56,6.56,0,0,0,1.23,2,4,4,0,0,0,.23-1.44Z"/><path class="cls-11" d="M2.63,129a11.68,11.68,0,0,0-.54-3.36,5.74,5.74,0,0,0-1,3.19,3.42,3.42,0,0,0,.69,2.48A6.36,6.36,0,0,0,2.63,129Z"/><path class="cls-11" d="M88.21,142.56c0-.33-.17-3.35-.52-3.33l0,.05a27.14,27.14,0,0,0-.68,3,6.5,6.5,0,0,0,.47,2s.62-.05.75-1.72Z"/><path class="cls-11" d="M14.14,175.74a10,10,0,0,0-2.06-2.23,1.37,1.37,0,0,0,0,1.74,5.78,5.78,0,0,0,2.26,1.68c.21.06-.17-1.19-.18-1.2Z"/><path class="cls-11" d="M70.3,85.41a7.71,7.71,0,0,0-2.1-1.51,2.9,2.9,0,0,0-.94-.38h0s1.19,1.4,1.41,1.59a9.47,9.47,0,0,0,1.8,1.26,1.86,1.86,0,0,0-.17-1Z"/><path class="cls-11" d="M65.92,86.81a4.81,4.81,0,0,0-2.3-1.25,3.72,3.72,0,0,0,.44,1.68,5.08,5.08,0,0,0,2.13,1.43c.33-.08.3-1.15-.27-1.86Z"/><path class="cls-11" d="M55.58,88.49c-.19-.48-1.74-1.55-2.1-1.44a2.39,2.39,0,0,0-.66,1.7,3.61,3.61,0,0,0,1.9,1.6c.57.09,1.14-1.14.86-1.86Z"/><path class="cls-11" d="M42,89.22c0-.41-1-1.68-1.45-1.61s-1.53,1.1-1.61,1.62a2.09,2.09,0,0,0,1.11,1.71c.74.33,1.9-1.2,1.94-1.72Z"/><path class="cls-11" d="M28.75,88.82c.13-.24.08-1.73-.3-1.7a5.2,5.2,0,0,0-2.08,1.47c-.35.63-.15,1.65.25,1.83s1.84-1,2.13-1.6Z"/><path class="cls-11" d="M77.76,96.84c-.38-.76-1.89-1.67-2.11-1.47a4.91,4.91,0,0,0,.29,2.24c.23.41,1.6,1.8,1.88,1.68s.42-1.5-.06-2.45Z"/><path class="cls-11" d="M66.91,99.63c-.2-.68-1.86-1.95-2.34-1.77a3.32,3.32,0,0,0-.8,2.11,4.32,4.32,0,0,0,2.2,2c.61.08,1.16-1.5.94-2.31Z"/><path class="cls-11" d="M50.8,101.27c0-.58-1.6-2.09-2.27-2a3.75,3.75,0,0,0-1.74,2c0,.74,1.24,1.85,1.95,2.11.93.33,2.06-1.49,2.06-2.17Z"/><path class="cls-11" d="M32.72,101.48c.15-.53-1-2.21-1.57-2.15a4.27,4.27,0,0,0-2.05,1.86,2.65,2.65,0,0,0,1.15,2.26c.8.43,2.34-1.49,2.47-2Z"/><path class="cls-11" d="M17.72,100.24c.2-.42,0-2.27-.48-2.26a4.32,4.32,0,0,0-1.93,1.69,2.46,2.46,0,0,0,.29,2.4c.42.26,1.88-1.33,2.12-1.83Z"/><path class="cls-11" d="M77.76,112.6c-.14-.85-1.53-2.26-2-2a4.64,4.64,0,0,0-.84,2.54,4.51,4.51,0,0,0,2,2.16c.53.07,1-1.71.89-2.67Z"/><path class="cls-11" d="M62.11,115.15c0-.74-1.7-2.4-2.47-2.21a4.15,4.15,0,0,0-1.73,2.45c.07.72,1.49,2,2.17,2.28,1,.35,2-1.85,2-2.52Z"/><path class="cls-11" d="M41.71,116.28c.11-.69-1.6-2.54-2.46-2.42a4.12,4.12,0,0,0-2.17,2.29A3.76,3.76,0,0,0,39,118.61c1,.43,2.6-1.68,2.71-2.33Z"/><path class="cls-11" d="M22,115.65c.17-.62-1-2.65-1.62-2.61a3.74,3.74,0,0,0-2,2.1,3.32,3.32,0,0,0,1.29,2.68c.6.25,2.12-1.52,2.3-2.17Z"/><path class="cls-11" d="M7.67,113.47c.17-.53-.18-2.72-.54-2.72a3.61,3.61,0,0,0-1.65,1.82,3.61,3.61,0,0,0,.63,2.92c.29.09,1.37-1.44,1.56-2Z"/><path class="cls-11" d="M85.57,127c-.06-1.17-.88-2.51-1.22-2.25a7.84,7.84,0,0,0-.81,2.87c.09.8,1,2.41,1.38,2.27s.72-1.55.65-2.89Z"/><path class="cls-11" d="M72.87,130.24c0-.88-1.37-2.63-2.13-2.38A5,5,0,0,0,69,130.64c.05.7,1.23,2.31,2.07,2.4s1.7-1.67,1.76-2.8Z"/><path class="cls-11" d="M53.07,132.26c.11-.82-1.67-2.73-2.63-2.56a4.38,4.38,0,0,0-2.29,2.62,3.85,3.85,0,0,0,2.1,2.46c1.5.65,2.75-2,2.82-2.52Z"/><path class="cls-11" d="M30.83,132.54c.14-.73-1.56-2.87-2.43-2.78a3.75,3.75,0,0,0-2.06,2.42,4,4,0,0,0,1.87,2.72c1.08.48,2.48-1.58,2.63-2.36Z"/><path class="cls-11" d="M12.54,131c.12-.66-1-3-1.59-3a3.15,3.15,0,0,0-1.44,2.26c0,.85.55,2.58,1.24,2.92s1.64-1.39,1.79-2.21Z"/><path class="cls-11" d="M80.73,145.24c.12-.94-.87-2.6-1.4-2.34a7.28,7.28,0,0,0-1.6,2.87c0,.61,1,2,1.46,2.1s1.41-1.65,1.54-2.64Z"/><path class="cls-11" d="M64.06,148c.14-.77-1.45-2.69-2.27-2.47-.51.29-2.16,1.89-2.19,2.73,0,.57,1.24,1.93,2,2.19s2.31-1.79,2.43-2.45Z"/><path class="cls-11" d="M42.31,149.18c.16-.78-1.93-2.8-2.77-2.67-.61.26-2.18,1.63-2.18,2.52,0,.64,1.28,2,2.18,2.37s2.64-1.61,2.77-2.23Z"/><path class="cls-11" d="M21.26,148.49c.11-.77-1.77-2.94-2.31-2.88A3.25,3.25,0,0,0,17.4,148a4.33,4.33,0,0,0,1.87,2.61c.64.23,1.89-1.44,2-2.07Z"/><path class="cls-11" d="M6,146.15c0-.53-1.09-3.08-1.45-3.06a3,3,0,0,0-1,2.21A4.75,4.75,0,0,0,5,148.1c.3.09.93-1.39,1-1.95Z"/><path class="cls-11" d="M84.18,159.83c.3-1,0-2.27-.4-2a10.52,10.52,0,0,0-1.47,2.62c-.09.42.28,1.7.5,1.74a4.44,4.44,0,0,0,1.37-2.34Z"/><path class="cls-11" d="M72.07,162.9c.25-.74-.74-2.31-1.52-2.07a5.66,5.66,0,0,0-2.06,2.48c-.08.44.8,1.58,1.35,1.76s2-1.53,2.22-2.17Z"/><path class="cls-11" d="M53.39,164.81c.21-.7-1.41-2.37-2.38-2.21s-2.2,1.56-2.26,2.29c0,.42,1.07,1.48,1.9,1.83,1.21.5,2.66-1.66,2.74-1.91Z"/><path class="cls-11" d="M32.41,165.05c.11-.6-1.74-2.5-2.61-2.42a2.75,2.75,0,0,0-1.66,2c0,.73,1.29,1.8,1.92,2.12,1.22.62,2.32-1.53,2.35-1.67Z"/><path class="cls-11" d="M15.14,163.6c0-.56-1.6-2.64-2.14-2.63a1.9,1.9,0,0,0-.75,2A5,5,0,0,0,14,165.24c.51.22,1.1-1.22,1.1-1.64Z"/><path class="cls-11" d="M75.84,175c.55-.82-.29-1.85-.78-1.65a8.69,8.69,0,0,0-2,2.1c-.13.26.07,1.28.32,1.31A5.85,5.85,0,0,0,75.84,175Z"/><path class="cls-11" d="M61.23,177.18c.37-.64-.68-1.86-1.46-1.69a4.9,4.9,0,0,0-2.09,1.82c-.16.52.83,1.26,1.12,1.39.74.32,2.28-1.27,2.43-1.52Z"/><path class="cls-11" d="M43.57,178.19c.19-.57-1.55-1.92-2.35-1.83A2.49,2.49,0,0,0,39.56,178c0,.37.85,1,1.49,1.36s.8.25,1,.14a3.13,3.13,0,0,0,1.49-1.31Z"/><path class="cls-11" d="M26.47,177.63a4.61,4.61,0,0,0-2.44-2,1.27,1.27,0,0,0-.75,1.51,4.66,4.66,0,0,0,1.83,1.58c.5.26.59.22.78.08a1.9,1.9,0,0,0,.58-1.14Z"/><circle class="cls-12" cx="25.35" cy="92.08" r="1.53" transform="translate(-2.22 0.64) rotate(-1.39)"/><circle class="cls-12" cx="27.18" cy="103.88" r="1.53" transform="translate(-2.51 0.69) rotate(-1.39)"/><ellipse class="cls-12" cx="16.31" cy="115.71" rx="1.54" ry="1.53" transform="translate(-2.8 0.43) rotate(-1.39)"/><circle class="cls-12" cx="13.41" cy="102.5" r="0.97" transform="translate(-2.48 0.36) rotate(-1.39)"/><circle class="cls-12" cx="7.27" cy="131.84" r="0.97" transform="translate(-3.19 0.22) rotate(-1.39)"/><circle class="cls-12" cx="24.23" cy="135.16" r="0.97" transform="translate(-3.27 0.63) rotate(-1.39)"/><circle class="cls-12" cx="34.47" cy="118.33" r="0.97" transform="translate(-2.86 0.87) rotate(-1.39)"/></svg>