<svg id="Layer_1" data-name="Layer 1" xmlns="http://www.w3.org/2000/svg" viewBox="0 0 225.99 158.54"><defs><style>.cls-1{fill:#d38439;}.cls-2{fill:#b54c18;}.cls-3{fill:#504d40;}.cls-4{fill:#fbce4b;}.cls-5{fill:#fd880a;}.cls-6{fill:#feb217;}.cls-7{fill:#24221b;}</style></defs><title>shoes-big</title><path class="cls-1" d="M143.46,120.25l.23.08.8.28,1.38.51.71.27,1.62.64.7.28,1.07.42.53.2,1.07.4.54.2h.11l.81.27.23.08.47.15,1.1.32.54.14.55.13h.17l.9.19h.21l1,.16.57.07h.34l.62.05h3.71l.61-.06.65-.07c.39-.05.77-.11,1.12-.18H166a15.94,15.94,0,0,0,4.61-1.71l.2-.11h0l.29-.16c.68-.37,1.37-.77,2.13-1.17l.34-.17.89-.43.19-.09.61-.27.18-.08c.75-.31,1.59-.63,2.55-.93l.53-.16.61-.17c4.07-5,10.53-12.31,16.37-16.45a20.1,20.1,0,0,1,4.89-2.68c5.33-1.84,9.07,1.37,8,15.57l.49-.12.37-.09.72-.19.35-.1c.46-.13.91-.27,1.33-.41l.32-.11.8-.29.41-.16q.73-.28,1.38-.59l.26-.12.75-.37.47-.25.23-.13a16.53,16.53,0,0,0,2.49-1.73l.31-.27.25-.23a12.18,12.18,0,0,0,.86-.9l.18-.21.25-.31.2-.27.18-.26h0l.17-.25.16-.27.15-.26.14-.26.1-.19a7.47,7.47,0,0,0,.31-.73l.07-.2c.1-.29.19-.57.26-.84v-.18a8.06,8.06,0,0,0,.19-1.44v-.14a4.57,4.57,0,0,0,0-.77A104.68,104.68,0,0,0,221,88.94a76.63,76.63,0,0,0-2.44-10,115.33,115.33,0,0,1-3.82-14.59c-.73-3.84-1.21-7.51-1.84-12-.15-1.09-.28-2.4-.38-3.86a8,8,0,0,0-4.48,2.2,8.84,8.84,0,0,0-2.31,5.6c-.83,9.09,2.84,19.38-7,17.16s-24.17,3.6-41.17,26.41C150.39,109.55,146.06,116,143.46,120.25Z" transform="translate(-0.01 -0.02)"/><path class="cls-2" d="M179.19,119.37c3.72-1,9.08-1.85,17.58-2.16a62.46,62.46,0,0,0,11.66-1.4C210.9,83.66,188.62,107.84,179.19,119.37Z" transform="translate(-0.01 -0.02)"/><path class="cls-3" d="M123,20c27.32-2,53.78,10.51,70.19,20.54l1.94,1.21.62.39c2.53,1.61,4.77,3.12,6.68,4.46l.72.51.35.25.34.24,1.06.77.38.28.72.53.75.56,1.32,1a8,8,0,0,1,4.48-2.2c-.77-11.15-.12-31.14-.12-31.14h0c-.69-.16-67.23-16-88.85.61C123.4,18.6,123.21,19.26,123,20Z" transform="translate(-0.01 -0.02)"/><path class="cls-4" d="M38.92,114.12a25.17,25.17,0,0,1,7.4,3.08h.76c45,.26,81.68-22.42,96.85-33.43-5.42-3.2-35.79-20.8-42-17.52-6.83,3.6-2.33,10.81-6.33,12.52s-8.17-1.37-10.5.17-5,10.46-8,11.15-7.34-1.2-9.84-.34S64,94.58,62,96.32c-4.8,4.22-11.84,2-16.07-1.93a6.88,6.88,0,0,1-2-3.72,77.41,77.41,0,0,1-14.21,2.87h-.3a19.74,19.74,0,0,1-4.7,6.32C20.41,103.48,28.75,111.54,38.92,114.12Z" transform="translate(-0.01 -0.02)"/><path class="cls-5" d="M132.12.19c2.24,2,7.42,5.62,16.8,7.91a19.28,19.28,0,0,1,5.89,2.3h3.46c25.61.18,53.71,6.88,54.15,7A204.49,204.49,0,0,0,154.7,7.49c-3.87-2.86-9.05-5.87-14.77-6.93A23.17,23.17,0,0,0,132.12.19Z" transform="translate(-0.01 -0.02)"/><path class="cls-6" d="M126.08,5a40.11,40.11,0,0,0,8.74,7.81,84.47,84.47,0,0,1,20-2.41,19.28,19.28,0,0,0-5.89-2.3c-9.38-2.3-14.56-5.95-16.8-7.91C128.72.75,126.92,2.5,126.08,5Z" transform="translate(-0.01 -0.02)"/><path class="cls-3" d="M53.42,144c45.5,5.15,60.84-18.87,80.34-11.67l.73.27h0q.87.23,1.93.58c15.84,5.32,38-7.72,49.34-3.77,10.11,3.52,20.49,2.94,25.34-2a9.35,9.35,0,0,0,1.5-2c2.86-5,10-9.29,13.4-11.17,0-.77,0-1.57-.06-2.38-.5-7.37-3.34-8.75-3.34-8.75a4.57,4.57,0,0,1,0,.77V104a8.06,8.06,0,0,1-.19,1.44v.18a8,8,0,0,1-.26.84l-.07.2q-.13.35-.31.73l-.1.19-.14.26-.15.26-.16.27-.17.25h0l-.18.26-.2.27-.25.31-.18.21a12.18,12.18,0,0,1-.86.9l-.25.23-.31.27a16.53,16.53,0,0,1-2.49,1.73l-.23.13-.47.25-.75.37-.26.12q-.66.31-1.38.59l-.41.16-.8.29-.32.11c-.43.14-.87.28-1.33.41l-.35.1-.72.19-.37.09-.49.12a62.46,62.46,0,0,1-11.66,1.4c-8.5.31-13.86,1.14-17.58,2.16l-.61.17-.53.16a24.24,24.24,0,0,0-2.55.93l-.18.08-.61.27-.19.09-.89.43-.34.17c-.77.4-1.46.8-2.13,1.17l-.29.16h0l-.2.11a15.94,15.94,0,0,1-4.61,1.71h-.21c-.35.07-.73.13-1.12.18l-.65.07-.61.06h-3.73l-.62-.05h-.34l-.57-.07-1-.16H157l-.9-.19h-.17l-.55-.13-.54-.14-1.1-.32-.47-.15-.23-.08-.81-.27h-.11l-.54-.2-1.07-.4-.53-.2-1.07-.42-.7-.28-1.62-.64-.71-.27-1.38-.51-.8-.28-.23-.08-.19-.06-.42-.14-.42-.13-.43-.13-.43-.13-.88-.24-.39-.1-1.41-.32-.37-.07h-.13l-.41-.07-1.11-.16-.46-.05h-.31l-1-.08h-1a30.23,30.23,0,0,0-11.05,2l-5.77,2.07c-16.45,5.81-42.77,14.09-65.7,12.13l-.75-.07h-.39l-1-.1-.7-.08a60.6,60.6,0,0,1-9.4-1.9C22.87,127.81,13.74,123.2,9,120.68c-2.3-1.22-3.57-1.95-4.17-2a.36.36,0,0,0-.42.29v0C4.08,121,7.91,138.82,53.42,144Z" transform="translate(-0.01 -0.02)"/><path class="cls-1" d="M134.49,132.57l2.82,1.08.44.17c1.44.57,2.73,1.1,3.89,1.58l.68.29,3.65,1.52.45.18.34.13.25.1.39.15.24.09c.63.23,1.23.43,1.81.59l.2.06.84.21h.21l.36.07h.66l.61.06h.37c3.45.13,7.28-1.22,15.39-4.48,18.34-7.37,22.84,5,35.34,4.46s7.92-9.09,20.5-13.72h0s.22-.55.5-1.41a34,34,0,0,0,1.56-9.59c-3.45,1.88-10.54,6.19-13.4,11.17a9.35,9.35,0,0,1-1.5,2c-4.84,4.92-15.22,5.5-25.34,2-11.33-3.94-33.5,9.09-49.34,3.77Z" transform="translate(-0.01 -0.02)"/><path class="cls-7" d="M7.58,137.79a66.9,66.9,0,0,0,10.9,6.57,3,3,0,0,1,.1-.41c.71-2.25,3.62-3.3,6.49-2.34a6.53,6.53,0,0,1,3,2.08,4,4,0,0,1,.86,3.73,3.37,3.37,0,0,1-.75,1.29l2.3.91c4.3,1.65,8.82,3.18,13.36,4.48a3.23,3.23,0,0,1-.06-1.24c.38-2.53,3.67-4.11,7.35-3.53a8.94,8.94,0,0,1,3.93,1.59,4.39,4.39,0,0,1,2.06,4A3.5,3.5,0,0,1,56,157c1,.19,2,.36,2.93.52q1.68.27,3.3.48a72.36,72.36,0,0,0,10.37.54A5.67,5.67,0,0,1,75.35,154a8.54,8.54,0,0,1,6.19-3.64c4.2-.57,7.92,1.48,8.32,4.58a4.3,4.3,0,0,1-.07,1.46,153,153,0,0,0,15-4.46l.27-.09a16.34,16.34,0,0,0,1.63-.63,5.57,5.57,0,0,1-.09-4.2c.06-.16.12-.32.19-.47,1-2.2,3-3.45,4.69-2.82a3.27,3.27,0,0,1,1.92,2.43c2.08-2.23,3.53-4.25,5.15-4.6,3.17-.69,23.34-3.09,28.84,3.26,4.33,5,4.42,9.13,16.35,10.09a5.08,5.08,0,0,1-.18-1.35c0-3.22,3-5.83,6.67-5.83a7.14,7.14,0,0,1,4.76,1.75,5.46,5.46,0,0,1,1.91,4.08,5.11,5.11,0,0,1-.18,1.36l3.17-.16,5.77-.32,2.91-.18v-.18a5.76,5.76,0,0,1,5.35-5.82,5.85,5.85,0,0,1,3,5.14v.21l3-.3a98.9,98.9,0,0,0,10.57-1.67c.78-.17,1.52-.36,2.24-.55a6.81,6.81,0,0,1-.09-1.12,6.07,6.07,0,0,1,1.6-4.23,3.93,3.93,0,0,1,2.82-1.26,4.35,4.35,0,0,1,3.82,2.72,6.79,6.79,0,0,0,1.6-2.21c3.16-7.2,1.5-19.73,1.5-19.73-12.58,4.63-8,13.21-20.5,13.72s-17-11.84-35.34-4.46c-8.1,3.26-11.94,4.61-15.39,4.48h-.37l-.61-.06h-.66l-.36-.07h-.21l-.84-.21-.2-.06c-.58-.16-1.17-.36-1.81-.59l-.24-.09-.39-.15-.25-.1-.34-.13-.45-.18-3.65-1.52-.68-.29c-1.16-.49-2.45-1-3.89-1.58l-.44-.17q-1.32-.53-2.82-1.08h0l-.73-.27c-19.5-7.2-34.84,16.81-80.34,11.67s-49.34-23-49-25a.36.36,0,0,1,.37-.34h0c-1.32-2.34-2.51-7.2.75-16.3L6.18,101a15.81,15.81,0,0,0-3.71,6.46C-.42,116.17-2.75,129.73,7.58,137.79Z" transform="translate(-0.01 -0.02)"/><path class="cls-3" d="M18.48,144.36l2,1c.8-2.13,3.63-3.11,6.43-2.17a6.69,6.69,0,0,1,1.22.54,6.53,6.53,0,0,0-3-2.08c-2.87-1-5.78.09-6.49,2.34A3,3,0,0,0,18.48,144.36Z" transform="translate(-0.01 -0.02)"/><path class="cls-3" d="M43.88,154.1l2.25.63a3.23,3.23,0,0,1,0-.67c.37-2.53,3.66-4.11,7.35-3.53a9.38,9.38,0,0,1,1.6.39,8.94,8.94,0,0,0-3.93-1.59c-3.69-.58-7,1-7.35,3.53A3.23,3.23,0,0,0,43.88,154.1Z" transform="translate(-0.01 -0.02)"/><path class="cls-3" d="M75.35,154a9.67,9.67,0,0,1,4.19-1.58c4.12-.56,7.78,1.41,8.29,4.41l2-.43a4.3,4.3,0,0,0,.07-1.46c-.4-3.1-4.12-5.15-8.32-4.58A8.54,8.54,0,0,0,75.35,154Z" transform="translate(-0.01 -0.02)"/><path class="cls-3" d="M106.82,146.55a3.2,3.2,0,0,1,3.19-.76,3.12,3.12,0,0,1,1.8,2c.59-.54,1.13-1.09,1.63-1.63a3.27,3.27,0,0,0-1.92-2.43C109.81,143.1,107.79,144.35,106.82,146.55Z" transform="translate(-0.01 -0.02)"/><path class="cls-3" d="M163.59,153.57a5.08,5.08,0,0,0,.18,1.35c.87.07,1.81.12,2.82.16,0-3.2,3-5.79,6.67-5.79a7.53,7.53,0,0,1,1.76.21,7.14,7.14,0,0,0-4.76-1.75C166.58,147.74,163.59,150.35,163.59,153.57Z" transform="translate(-0.01 -0.02)"/><path class="cls-3" d="M214.2,145.74a3.62,3.62,0,0,1,.65-.06,4.43,4.43,0,0,1,3.94,3,11.27,11.27,0,0,0,2-1.49,4.35,4.35,0,0,0-3.82-2.72A3.93,3.93,0,0,0,214.2,145.74Z" transform="translate(-0.01 -0.02)"/><path class="cls-2" d="M4.83,118.58c.59,0,1.87.75,4.17,2l1.92,1c5.14,2.64,14,6.71,28.5,10.92a60.6,60.6,0,0,0,9.4,1.9c5.44-8,2.93-13.68-2.49-17.17a25.17,25.17,0,0,0-7.4-3.08c-10.17-2.57-18.5-10.64-14.17-14.24a19.74,19.74,0,0,0,4.7-6.32c-12.2,1.1-19.25,3.06-23.33,7.23l-.54,1.49C2.32,111.38,3.5,116.24,4.83,118.58Z" transform="translate(-0.01 -0.02)"/><path class="cls-5" d="M176,70.14c.82.86,1.62,1.73,2.4,2.63q1.88,2.15,3.36,4c6.55-3.59,12.27-4.36,17-3.3,9.84,2.23,6.17-8.07,7-17.16a8.84,8.84,0,0,1,2.31-5.6l-1.32-1-.75-.56-.72-.53-.38-.28-1.06-.77-.34-.24-.35-.25-.72-.51c-1.91-1.34-4.15-2.85-6.68-4.46l-.62-.39-1.94-1.21A29.1,29.1,0,0,1,176,49.76C184.94,54.37,204.42,66.21,176,70.14Z" transform="translate(-0.01 -0.02)"/><path class="cls-3" d="M176,70.14c28.4-3.93,8.92-15.78-.07-20.39a31.4,31.4,0,0,1-8.53,0C145.9,47,162.59,56,176,70.14Z" transform="translate(-0.01 -0.02)"/><path class="cls-4" d="M143.76,94.56c-3.8,11-8.65,18.69-13.49,24.13a26.71,26.71,0,0,1,3.87-.2h1l1,.08h.31l.46.05,1.11.16.41.07h.13l.37.07q.72.14,1.41.32l.39.1.88.24.43.13.43.13.42.13.42.14.19.06c.31-.5.64-1,1-1.6,2.67-4.21,6.79-10.25,13.14-18.78,8.88-11.92,17-19.2,24.2-23.12q-1.49-1.84-3.36-4c-13.67-15.61-33.84-25.9-11-23a28.92,28.92,0,0,0,25.76-9.3c-16.41-10-42.87-22.58-70.19-20.54a118.36,118.36,0,0,1-9.92,23.68c12.82,7.67,30.82,21.47,32.25,39.12A28.65,28.65,0,0,1,143.76,94.56Z" transform="translate(-0.01 -0.02)"/><path class="cls-7" d="M123.58,18a28.76,28.76,0,0,1,8.16-4.22c1-.35,2-.66,3.09-.94A40.11,40.11,0,0,1,126.08,5a14.86,14.86,0,0,0-.58,5.16S124.93,13.22,123.58,18Z" transform="translate(-0.01 -0.02)"/><path class="cls-1" d="M48.81,134.37l.7.08,1,.1h.39l.75.07c22.93,2,49.24-6.33,65.7-12.13l5.77-2.07a32.83,32.83,0,0,1,7.18-1.77c4.84-5.44,9.69-13.16,13.49-24.13a28.65,28.65,0,0,0,1.57-11.82c-14.2,10.55-51.84,34.73-98.25,34.46h-.76C51.74,120.69,54.26,126.42,48.81,134.37Z" transform="translate(-0.01 -0.02)"/><path class="cls-5" d="M44,90.66a6.88,6.88,0,0,0,2,3.72c4.23,3.93,11.27,6.15,16.07,1.93,2-1.74,2.64-5.66,5.27-6.56s6.84,1,9.84.34,5.67-9.61,8-11.15,6.5,1.54,10.5-.17-.5-8.92,6.33-12.52c6.22-3.28,36.58,14.32,42,17.52l1.4-1C144,65.12,126,51.32,113.16,43.65A66.45,66.45,0,0,1,98.51,61.88C82.82,75.07,61.12,85.7,44,90.66Z" transform="translate(-0.01 -0.02)"/><path class="cls-3" d="M45.5,90l1.57,5.56a4.13,4.13,0,0,1,2.41-1.92,4,4,0,0,1,3,.3l-1.57-5.57A.75.75,0,0,0,50,87.8h0L46,89a.78.78,0,0,0-.51,1Z" transform="translate(-0.01 -0.02)"/><path class="cls-7" d="M46.66,98.85a4.11,4.11,0,0,0,5,2.92l.09,0a4.27,4.27,0,0,0,2.82-5.26,4.21,4.21,0,0,0-2.08-2.59,4,4,0,0,0-3-.3,4.13,4.13,0,0,0-2.41,1.92A4.36,4.36,0,0,0,46.66,98.85Z" transform="translate(-0.01 -0.02)"/><path class="cls-3" d="M47.87,98.49a3.12,3.12,0,0,0,.24.6,3,3,0,0,1,.39-1.69,2.88,2.88,0,0,1,1.68-1.34,2.78,2.78,0,0,1,2.12.21,2.9,2.9,0,0,1,1.21,1.21,3.13,3.13,0,0,0-.11-.64A3,3,0,0,0,51.94,95a2.8,2.8,0,0,0-2.12-.21,2.88,2.88,0,0,0-1.68,1.34A3,3,0,0,0,47.87,98.49Z" transform="translate(-0.01 -0.02)"/><path class="cls-5" d="M48.11,99.09a2.85,2.85,0,0,0,3.32,1.42,3,3,0,0,0,2.07-3,2.9,2.9,0,0,0-1.21-1.21,2.78,2.78,0,0,0-2.12-.21A2.88,2.88,0,0,0,48.5,97.4,3,3,0,0,0,48.11,99.09Z" transform="translate(-0.01 -0.02)"/><path class="cls-3" d="M61.25,84.14l2.17,5.34a4.17,4.17,0,0,1,2.18-2.19,4,4,0,0,1,3.05-.05l-2.17-5.35a.74.74,0,0,0-.95-.44l-.05,0-3.85,1.65A.78.78,0,0,0,61.25,84.14Z" transform="translate(-0.01 -0.02)"/><path class="cls-7" d="M63.38,92.84a4.09,4.09,0,0,0,5.3,2.32l.1,0A4.29,4.29,0,0,0,71,89.57a4.17,4.17,0,0,0-2.34-2.34,4,4,0,0,0-3.05.05,4.17,4.17,0,0,0-2.18,2.19A4.36,4.36,0,0,0,63.38,92.84Z" transform="translate(-0.01 -0.02)"/><path class="cls-3" d="M64.53,92.35a3.15,3.15,0,0,0,.3.57A3.06,3.06,0,0,1,65,91.2a2.92,2.92,0,0,1,1.52-1.53,2.8,2.8,0,0,1,2.13,0,2.89,2.89,0,0,1,1.32,1,3,3,0,0,0-1.82-2.25,2.79,2.79,0,0,0-2.12,0A2.9,2.9,0,0,0,64.56,90,3,3,0,0,0,64.53,92.35Z" transform="translate(-0.01 -0.02)"/><path class="cls-5" d="M64.84,92.92a2.83,2.83,0,0,0,3.46,1A3,3,0,0,0,70,90.69a2.89,2.89,0,0,0-1.33-1.07,2.8,2.8,0,0,0-2.13,0A2.92,2.92,0,0,0,65,91.19,3.06,3.06,0,0,0,64.84,92.92Z" transform="translate(-0.01 -0.02)"/><path class="cls-3" d="M78.75,75l2.78,5a4.22,4.22,0,0,1,1.91-2.45,4,4,0,0,1,3-.43l-2.78-5a.74.74,0,0,0-1-.29L79,74A.79.79,0,0,0,78.75,75Z" transform="translate(-0.01 -0.02)"/><path class="cls-7" d="M81.89,83.38a4.06,4.06,0,0,0,5.48,1.7l.15-.08a4.31,4.31,0,0,0,1.55-5.79,4.13,4.13,0,0,0-2.6-2,4,4,0,0,0-3,.43A4.22,4.22,0,0,0,81.53,80,4.36,4.36,0,0,0,81.89,83.38Z" transform="translate(-0.01 -0.02)"/><path class="cls-3" d="M83,82.75a3,3,0,0,0,.37.53,3,3,0,0,1,0-1.74,2.94,2.94,0,0,1,1.33-1.71,2.82,2.82,0,0,1,2.11-.3,2.87,2.87,0,0,1,1.45.89,3,3,0,0,0-2.07-2,2.8,2.8,0,0,0-2.11.3,2.93,2.93,0,0,0-1.33,1.71A3,3,0,0,0,83,82.75Z" transform="translate(-0.01 -0.02)"/><path class="cls-5" d="M83.35,83.28a2.82,2.82,0,0,0,3.55.58,3,3,0,0,0,1.33-3.44,2.87,2.87,0,0,0-1.45-.89,2.82,2.82,0,0,0-2.11.3,2.94,2.94,0,0,0-1.33,1.71A3,3,0,0,0,83.35,83.28Z" transform="translate(-0.01 -0.02)"/><path class="cls-3" d="M95.92,63.81l3.4,4.61a4.25,4.25,0,0,1,1.58-2.68,4,4,0,0,1,2.94-.84l-3.4-4.62a.74.74,0,0,0-1-.16h0l-3.32,2.59A.79.79,0,0,0,95.92,63.81Z" transform="translate(-0.01 -0.02)"/><path class="cls-7" d="M100.11,71.69a4,4,0,0,0,5.57,1l.21-.16a4.33,4.33,0,0,0,.79-5.95,4.08,4.08,0,0,0-2.84-1.66,4,4,0,0,0-2.94.84,4.25,4.25,0,0,0-1.58,2.68A4.34,4.34,0,0,0,100.11,71.69Z" transform="translate(-0.01 -0.02)"/><path class="cls-3" d="M101.1,70.91a3,3,0,0,0,.43.47,3,3,0,0,1-.23-1.72,3,3,0,0,1,1.1-1.87,2.81,2.81,0,0,1,2-.59,2.86,2.86,0,0,1,1.55.69,3.14,3.14,0,0,0-.33-.56,2.85,2.85,0,0,0-2-1.15,2.81,2.81,0,0,0-2,.59,3,3,0,0,0-.52,4.14Z" transform="translate(-0.01 -0.02)"/><path class="cls-5" d="M101.54,71.39a2.82,2.82,0,0,0,3.59.09,3,3,0,0,0,.88-3.59,2.86,2.86,0,0,0-1.55-.69,2.81,2.81,0,0,0-2,.59,3,3,0,0,0-1.1,1.87A3.05,3.05,0,0,0,101.54,71.39Z" transform="translate(-0.01 -0.02)"/><path class="cls-3" d="M112.89,43l5,2.66a4.33,4.33,0,0,1,.3-3.12,4.14,4.14,0,0,1,2.3-2.06l-5-2.66a.74.74,0,0,0-1,.32h0L112.57,42A.79.79,0,0,0,112.89,43Z" transform="translate(-0.01 -0.02)"/><path class="cls-7" d="M120,48.26a4.07,4.07,0,0,0,5.5-1.7l.06-.12a4.31,4.31,0,0,0-1.77-5.72,4,4,0,0,0-3.26-.24,4.14,4.14,0,0,0-2.3,2.06,4.33,4.33,0,0,0-.3,3.12A4.22,4.22,0,0,0,120,48.26Z" transform="translate(-0.01 -0.02)"/><path class="cls-3" d="M120.54,47.12a3,3,0,0,0,.59.24,3,3,0,0,1-.71-3.64,2.9,2.9,0,0,1,1.6-1.43,2.8,2.8,0,0,1,1.69-.07,2.86,2.86,0,0,0-.52-.36,2.79,2.79,0,0,0-2.27-.17,2.89,2.89,0,0,0-1.61,1.44,3,3,0,0,0-.21,2.17A2.94,2.94,0,0,0,120.54,47.12Z" transform="translate(-0.01 -0.02)"/><path class="cls-5" d="M121.13,47.35a2.85,2.85,0,0,0,3.29-1.51,3,3,0,0,0-.71-3.63,2.8,2.8,0,0,0-1.69.07,2.9,2.9,0,0,0-1.6,1.43,3,3,0,0,0,.71,3.64Z" transform="translate(-0.01 -0.02)"/><path class="cls-3" d="M119.28,29.32l5.3,2a4.34,4.34,0,0,1-.1-3.13,4.21,4.21,0,0,1,2-2.35l-5.29-2a.75.75,0,0,0-1,.41l0,.05-1.42,4a.78.78,0,0,0,.46,1Z" transform="translate(-0.01 -0.02)"/><path class="cls-7" d="M127,33.59a4.1,4.1,0,0,0,5.22-2.53l0-.06a4.28,4.28,0,0,0-2.48-5.44,4,4,0,0,0-3.26.2,4.21,4.21,0,0,0-2,2.35,4.34,4.34,0,0,0,.1,3.13A4.17,4.17,0,0,0,127,33.59Z" transform="translate(-0.01 -0.02)"/><path class="cls-3" d="M127.38,32.38a2.72,2.72,0,0,0,.61.16A3,3,0,0,1,126.82,29a2.94,2.94,0,0,1,1.41-1.64,2.81,2.81,0,0,1,1.66-.29,3,3,0,0,0-.57-.29,2.8,2.8,0,0,0-2.27.14,2.92,2.92,0,0,0-1.41,1.64,3,3,0,0,0,.07,2.19A2.91,2.91,0,0,0,127.38,32.38Z" transform="translate(-0.01 -0.02)"/><path class="cls-5" d="M128,32.53a2.87,2.87,0,0,0,3.07-1.93,3,3,0,0,0-1.16-3.5,2.81,2.81,0,0,0-1.66.29A2.94,2.94,0,0,0,126.83,29,3.05,3.05,0,0,0,128,32.53Z" transform="translate(-0.01 -0.02)"/><path class="cls-7" d="M137.26,37.56a1.88,1.88,0,1,0,3.75,0,2.23,2.23,0,0,0,0-.34,1.88,1.88,0,0,1-1.72,1.24,1.93,1.93,0,0,1-1.85-1.72A2.25,2.25,0,0,0,137.26,37.56Z" transform="translate(-0.01 -0.02)"/><path class="cls-3" d="M137.41,36.75a1.93,1.93,0,0,0,1.85,1.72A1.88,1.88,0,0,0,141,37.22a1.93,1.93,0,0,0-1.85-1.72A1.88,1.88,0,0,0,137.41,36.75Z" transform="translate(-0.01 -0.02)"/><path class="cls-7" d="M151.14,39.24a1.88,1.88,0,1,0,3.75,0,2.2,2.2,0,0,0,0-.34,1.88,1.88,0,0,1-1.72,1.24,1.93,1.93,0,0,1-1.85-1.72A2.23,2.23,0,0,0,151.14,39.24Z" transform="translate(-0.01 -0.02)"/><path class="cls-3" d="M151.29,38.42a1.93,1.93,0,0,0,1.85,1.72,1.88,1.88,0,0,0,1.72-1.24A1.93,1.93,0,0,0,153,37.18,1.88,1.88,0,0,0,151.29,38.42Z" transform="translate(-0.01 -0.02)"/><path class="cls-7" d="M162.51,42.58a1.88,1.88,0,1,0,3.75,0,2.32,2.32,0,0,0,0-.34,1.88,1.88,0,0,1-1.72,1.24,1.94,1.94,0,0,1-1.85-1.72A2.23,2.23,0,0,0,162.51,42.58Z" transform="translate(-0.01 -0.02)"/><path class="cls-3" d="M162.66,41.77a1.94,1.94,0,0,0,1.85,1.72,1.88,1.88,0,0,0,1.72-1.24,1.94,1.94,0,0,0-1.85-1.72A1.88,1.88,0,0,0,162.66,41.77Z" transform="translate(-0.01 -0.02)"/><path class="cls-7" d="M166,82.72a1.88,1.88,0,1,0,3.75,0,2.13,2.13,0,0,0,0-.34A1.88,1.88,0,0,1,168,83.62a1.93,1.93,0,0,1-1.85-1.72A2.25,2.25,0,0,0,166,82.72Z" transform="translate(-0.01 -0.02)"/><path class="cls-3" d="M166.16,81.91A1.93,1.93,0,0,0,168,83.62a1.88,1.88,0,0,0,1.72-1.24,1.93,1.93,0,0,0-1.85-1.72A1.88,1.88,0,0,0,166.16,81.91Z" transform="translate(-0.01 -0.02)"/><path class="cls-7" d="M160.26,73.84a1.88,1.88,0,1,0,3.75,0,2.23,2.23,0,0,0,0-.34,1.88,1.88,0,0,1-1.72,1.24A1.93,1.93,0,0,1,160.41,73,2.24,2.24,0,0,0,160.26,73.84Z" transform="translate(-0.01 -0.02)"/><path class="cls-3" d="M160.41,73a1.93,1.93,0,0,0,1.85,1.71A1.88,1.88,0,0,0,164,73.5a1.93,1.93,0,0,0-1.85-1.72A1.88,1.88,0,0,0,160.41,73Z" transform="translate(-0.01 -0.02)"/><path class="cls-7" d="M152.76,65.35a1.88,1.88,0,1,0,3.75,0,2.23,2.23,0,0,0,0-.34,1.88,1.88,0,0,1-1.72,1.24,1.93,1.93,0,0,1-1.85-1.72A2.24,2.24,0,0,0,152.76,65.35Z" transform="translate(-0.01 -0.02)"/><path class="cls-3" d="M152.91,64.54a1.93,1.93,0,0,0,1.85,1.72A1.88,1.88,0,0,0,156.48,65a1.94,1.94,0,0,0-1.85-1.72A1.88,1.88,0,0,0,152.91,64.54Z" transform="translate(-0.01 -0.02)"/><path class="cls-7" d="M144.76,59.69a1.88,1.88,0,1,0,3.75,0,2.23,2.23,0,0,0,0-.34,1.88,1.88,0,0,1-1.72,1.24,1.94,1.94,0,0,1-1.85-1.72A2.26,2.26,0,0,0,144.76,59.69Z" transform="translate(-0.01 -0.02)"/><path class="cls-3" d="M144.91,58.88a1.94,1.94,0,0,0,1.85,1.72,1.88,1.88,0,0,0,1.72-1.24,1.93,1.93,0,0,0-1.85-1.72A1.88,1.88,0,0,0,144.91,58.88Z" transform="translate(-0.01 -0.02)"/><path class="cls-7" d="M135.13,55.45a1.88,1.88,0,1,0,3.75,0,2.29,2.29,0,0,0,0-.34,1.88,1.88,0,0,1-1.72,1.24,1.93,1.93,0,0,1-1.85-1.72A2.22,2.22,0,0,0,135.13,55.45Z" transform="translate(-0.01 -0.02)"/><path class="cls-3" d="M135.29,54.63a1.93,1.93,0,0,0,1.85,1.72,1.88,1.88,0,0,0,1.72-1.24A1.94,1.94,0,0,0,137,53.39,1.88,1.88,0,0,0,135.29,54.63Z" transform="translate(-0.01 -0.02)"/><path class="cls-7" d="M189,51.2a1.88,1.88,0,1,0,3.75,0,2.22,2.22,0,0,0,0-.34A1.88,1.88,0,0,1,191,52.1a1.93,1.93,0,0,1-1.85-1.72A2.25,2.25,0,0,0,189,51.2Z" transform="translate(-0.01 -0.02)"/><path class="cls-3" d="M189.17,50.38A1.93,1.93,0,0,0,191,52.1a1.88,1.88,0,0,0,1.72-1.24,1.94,1.94,0,0,0-1.85-1.72A1.88,1.88,0,0,0,189.17,50.38Z" transform="translate(-0.01 -0.02)"/><path class="cls-7" d="M195,56.6a1.88,1.88,0,1,0,3.75,0,2.32,2.32,0,0,0,0-.34A1.88,1.88,0,0,1,197,57.51a1.93,1.93,0,0,1-1.85-1.72A2.22,2.22,0,0,0,195,56.6Z" transform="translate(-0.01 -0.02)"/><path class="cls-3" d="M195.17,55.79A1.93,1.93,0,0,0,197,57.51a1.88,1.88,0,0,0,1.72-1.24,1.94,1.94,0,0,0-1.85-1.72A1.88,1.88,0,0,0,195.17,55.79Z" transform="translate(-0.01 -0.02)"/><path class="cls-7" d="M196.39,64.32a1.88,1.88,0,1,0,3.75,0,2.17,2.17,0,0,0,0-.34,1.88,1.88,0,0,1-1.72,1.24,1.93,1.93,0,0,1-1.85-1.72A2.24,2.24,0,0,0,196.39,64.32Z" transform="translate(-0.01 -0.02)"/><path class="cls-3" d="M196.54,63.51a1.93,1.93,0,0,0,1.85,1.72A1.88,1.88,0,0,0,200.11,64a1.93,1.93,0,0,0-1.85-1.72A1.88,1.88,0,0,0,196.54,63.51Z" transform="translate(-0.01 -0.02)"/></svg>