<svg id="Layer_1" data-name="Layer 1" xmlns="http://www.w3.org/2000/svg" viewBox="0 0 137.03 94.99"><defs><style>.cls-1{fill:#d38439;}.cls-2{fill:#b54c18;}.cls-3{fill:#504d40;}.cls-4{fill:#fbce4b;}.cls-5{fill:#fd880a;}.cls-6{fill:#feb217;}.cls-7{fill:#24221b;}</style></defs><title>shoes-small</title><path class="cls-1" d="M50,72h-.14l-.48.17-.84.31-.43.16-1,.38-.43.17-.65.25-.32.12-.65.24-.33.12h-.07l-.49.16H44l-.29.09-.66.19-.33.08-.33.08h-.1l-.54.11h-.13l-.62.1H37.18l-.68-.11h-.13a9.73,9.73,0,0,1-2.79-1l-.12-.06h0l-.18-.09L32,72.76l-.2-.1-.54-.26-.11-.05-.37-.16H30.7c-.46-.19-1-.37-1.54-.55l-.32-.1-.37-.1c-2.47-3-6.39-7.37-9.92-9.85a12.23,12.23,0,0,0-3-1.61c-3.23-1.1-5.5.82-4.83,9.32l-.3-.07-.22-.06-.44-.11L9.51,69l-.81-.25-.19-.07L8,68.57l-.25-.09-.84-.35-.16-.07-.45-.22L6,67.67l-.14-.08a10,10,0,0,1-1.51-1l-.19-.16L4,66.26a7.34,7.34,0,0,1-.52-.54l-.08-.13-.15-.19-.12-.16L3,65.09H3l-.1-.15-.1-.16-.09-.16-.08-.15-.06-.11a4.17,4.17,0,0,1-.19-.44V63.8c-.06-.18-.11-.34-.15-.5v-.11A4.77,4.77,0,0,1,2,62.31v-.08a2.71,2.71,0,0,1,0-.46,62,62,0,0,1,1-8.51,45.44,45.44,0,0,1,1.48-6,68.41,68.41,0,0,0,2.32-8.73c.44-2.3.73-4.5,1.12-7.19.09-.65.17-1.44.23-2.31a4.87,4.87,0,0,1,2.72,1.32,5.26,5.26,0,0,1,1.4,3.36c.51,5.44-1.72,11.61,4.24,10.28s14.65,2.16,25,15.82C45.87,65.6,48.49,69.47,50,72Z" transform="translate(0 0)"/><path class="cls-2" d="M28.41,71.48a48.06,48.06,0,0,0-10.66-1.3,38.3,38.3,0,0,1-7.07-.84C9.19,50.09,22.69,64.58,28.41,71.48Z" transform="translate(0 0)"/><path class="cls-3" d="M62.47,11.94c-16.56-1.22-32.6,6.29-42.55,12.3L18.75,25l-.38.24c-1.53,1-2.89,1.87-4,2.67l-.44.3-.21.15-.2.14-.64.46-.23.17-.44.32-.46.34-.8.61A4.87,4.87,0,0,0,8.18,29c.47-6.68.07-18.65.07-18.65h0c.42-.1,40.76-9.6,53.86.37C62.23,11.13,62.34,11.53,62.47,11.94Z" transform="translate(0 0)"/><path class="cls-4" d="M113.44,68.34A15.36,15.36,0,0,0,109,70.19h-.46c-27.25.16-49.51-13.43-58.71-20C53,48.25,71.48,37.71,75.25,39.67c4.14,2.16,1.42,6.47,3.84,7.5s5-.82,6.37.1,3,6.27,4.85,6.68,4.45-.72,6-.2,2,2.89,3.19,3.93c2.91,2.53,7.18,1.2,9.74-1.16a4.1,4.1,0,0,0,1.19-2.23A47.43,47.43,0,0,0,119,56h.18A11.83,11.83,0,0,0,122,59.81C124.65,62,119.6,66.79,113.44,68.34Z" transform="translate(0 0)"/><path class="cls-5" d="M56.94.1c-1.36,1.18-4.5,3.36-10.19,4.74a11.77,11.77,0,0,0-3.57,1.38h-2.1c-15.52.09-32.55,4.1-32.82,4.17a125.88,125.88,0,0,1,35-5.91,22.62,22.62,0,0,1,9-4.15A14.21,14.21,0,0,1,56.94.1Z" transform="translate(0 0)"/><path class="cls-6" d="M60.6,3a24.21,24.21,0,0,1-5.3,4.67A51.79,51.79,0,0,0,43.18,6.22a11.77,11.77,0,0,1,3.57-1.38C52.44,3.47,55.58,1.28,56.94.1A4.19,4.19,0,0,1,60.6,3Z" transform="translate(0 0)"/><path class="cls-3" d="M104.65,86.21c-27.58,3.08-36.88-11.3-48.7-7l-.44.16h0q-.53.14-1.17.35c-9.6,3.18-23-4.62-29.91-2.26C18.29,79.59,12,79.24,9,76.29a5.61,5.61,0,0,1-.91-1.18c-1.73-3-6-5.57-8.12-6.69C0,68,0,67.49,0,67c.3-4.42,2-5.24,2-5.24a2.71,2.71,0,0,0,0,.46v.08a4.77,4.77,0,0,0,.12.86v.11a1.67,1.67,0,0,0,.15.5v.12q.08.21.19.44l.06.11.08.15.09.16.1.16.1.15h0L3,65.2l.12.16.15.19.11.13a7.34,7.34,0,0,0,.52.54l.15.14.19.16a10,10,0,0,0,1.51,1l.14.08.28.15.45.22.16.07.84.35.25.09.48.17.19.07.81.25.21.06.44.11.22.06.3.07a38.3,38.3,0,0,0,7.07.84,48.06,48.06,0,0,1,10.66,1.3l.37.1.32.1c.58.18,1.09.37,1.54.55h.11l.37.16.11.05.54.26.2.1c.47.24.88.48,1.29.7l.18.09h0l.12.06a9.73,9.73,0,0,0,2.79,1h.13l.68.11h4l.62-.1h.13l.54-.11h.1l.33-.08.33-.08.66-.19L44,74h.14l.49-.16h.07l.33-.12.65-.24L46,73.4l.65-.25L47,73l1-.38.43-.16.84-.31.48-.17L50,72h.11l.26-.08.26-.08.26-.08.26-.08.53-.14.24-.06.86-.19h.55l.67-.1h1.66a18.52,18.52,0,0,1,6.7,1.18l3.5,1.24c10,3.48,25.93,8.44,39.83,7.27h.69l.59-.06.42-.05a37.13,37.13,0,0,0,5.7-1.14,92,92,0,0,0,18.44-7.14A11,11,0,0,1,134.1,71a.22.22,0,0,1,.25.19h0C134.56,72.45,132.23,83.13,104.65,86.21Z" transform="translate(0 0)"/><path class="cls-1" d="M55.5,79.39,53.79,80l-.26.1c-.87.34-1.65.66-2.36.95l-.41.17-2.21.91-.27.11-.21.08-.15.06-.24.09-.14.05c-.38.14-.75.26-1.09.35h-.12l-.51.12H44.51c-2.09.08-4.42-.73-9.33-2.68C24,75.93,21.34,83.35,13.76,83s-4.85-5.2-12.48-8h0s-.13-.33-.3-.84A20.13,20.13,0,0,1,0,68.43c2.09,1.13,6.39,3.71,8.12,6.69A5.61,5.61,0,0,0,9,76.29c2.93,2.95,9.23,3.3,15.36,1.19,6.87-2.36,20.31,5.44,29.91,2.26Z" transform="translate(0 0)"/><path class="cls-7" d="M132.44,82.51a40.65,40.65,0,0,1-6.61,3.94,1.78,1.78,0,0,0-.06-.24c-.43-1.35-2.19-2-3.93-1.4A4,4,0,0,0,120,86a2.4,2.4,0,0,0-.52,2.24,2,2,0,0,0,.45.77l-1.39.54c-2.61,1-5.35,1.9-8.1,2.68a1.91,1.91,0,0,0,0-.74c-.23-1.51-2.22-2.46-4.46-2.12a5.46,5.46,0,0,0-2.39,1,2.62,2.62,0,0,0-1.25,2.41,2.09,2.09,0,0,0,.7,1.24l-1.78.31q-1,.16-2,.29A44.39,44.39,0,0,1,93,95a3.39,3.39,0,0,0-1.66-2.74,5.19,5.19,0,0,0-3.75-2.18c-2.54-.34-4.8.89-5,2.75a2.54,2.54,0,0,0,0,.87A93.61,93.61,0,0,1,73.49,91l-.16-.05a10,10,0,0,1-1-.38A3.3,3.3,0,0,0,72.39,88a.75.75,0,0,0-.11-.28c-.59-1.32-1.81-2.07-2.84-1.69a2,2,0,0,0-1.17,1.46C67,86.19,66.12,85,65.14,84.78c-1.92-.41-14.15-1.85-17.48,2-2.62,3-2.68,5.47-9.91,6a3,3,0,0,0,.11-.81,3.8,3.8,0,0,0-4-3.49,4.36,4.36,0,0,0-2.89,1A3.26,3.26,0,0,0,29.78,92a3,3,0,0,0,.11.81L28,92.71l-3.5-.19-1.77-.11V92.3a3.47,3.47,0,0,0-3.24-3.49,3.49,3.49,0,0,0-1.81,3.08V92l-1.79-.18a60.63,60.63,0,0,1-6.41-1c-.47-.1-.92-.21-1.36-.33a4,4,0,0,0,.06-.67,3.61,3.61,0,0,0-1-2.53,2.39,2.39,0,0,0-1.71-.75,2.63,2.63,0,0,0-2.31,1.66,4.07,4.07,0,0,1-1-1.32C.27,82.51,1.28,75,1.28,75c7.63,2.77,4.85,7.91,12.43,8.22S24,76.14,35.13,80.56c4.91,2,7.24,2.76,9.33,2.68h1.31l.51-.12h.12c.35-.1.71-.22,1.09-.35l.14-.05.24-.09.15-.06.21-.08.27-.11,2.21-.91.41-.17c.71-.29,1.49-.61,2.36-.95l.26-.1,1.71-.65h0l.44-.16c11.82-4.32,21.12,10.07,48.7,7s29.91-13.77,29.71-15a.22.22,0,0,0-.24-.2h0c.8-1.4,1.52-4.31-.45-9.76l-.33-.89a9.44,9.44,0,0,1,2.25,3.87C137.29,69.57,138.7,77.69,132.44,82.51Z" transform="translate(0 0)"/><path class="cls-3" d="M125.83,86.45l-1.21.58c-.48-1.28-2.2-1.86-3.9-1.3A4.08,4.08,0,0,0,120,86a4,4,0,0,1,1.85-1.25c1.74-.57,3.5.05,3.93,1.4A1.78,1.78,0,0,1,125.83,86.45Z" transform="translate(0 0)"/><path class="cls-3" d="M110.43,92.29l-1.36.38a1.91,1.91,0,0,0,0-.4c-.23-1.51-2.22-2.46-4.46-2.11a5.74,5.74,0,0,0-1,.23,5.46,5.46,0,0,1,2.39-1c2.23-.35,4.23.6,4.46,2.12A1.91,1.91,0,0,1,110.43,92.29Z" transform="translate(0 0)"/><path class="cls-3" d="M91.35,92.22a5.9,5.9,0,0,0-2.54-.95c-2.5-.33-4.72.84-5,2.64l-1.19-.26a2.54,2.54,0,0,1,0-.87c.24-1.86,2.5-3.09,5-2.75A5.19,5.19,0,0,1,91.35,92.22Z" transform="translate(0 0)"/><path class="cls-3" d="M72.28,87.76a2,2,0,0,0-1.94-.45,1.88,1.88,0,0,0-1.09,1.2,13.48,13.48,0,0,1-1-1A2,2,0,0,1,69.42,86,2.52,2.52,0,0,1,72.28,87.76Z" transform="translate(0 0)"/><path class="cls-3" d="M37.86,92a3,3,0,0,1-.11.81c-.53,0-1.1.07-1.71.09a3.8,3.8,0,0,0-4-3.47,4.62,4.62,0,0,0-1.07.12,4.36,4.36,0,0,1,2.89-1A3.8,3.8,0,0,1,37.86,92Z" transform="translate(0 0)"/><path class="cls-3" d="M7.18,87.27a2.22,2.22,0,0,0-.39,0A2.68,2.68,0,0,0,4.4,89.08a6.83,6.83,0,0,1-1.24-.89,2.63,2.63,0,0,1,2.31-1.63A2.39,2.39,0,0,1,7.18,87.27Z" transform="translate(0 0)"/><path class="cls-2" d="M134.1,71a11,11,0,0,0-2.53,1.18l-1.16.6a95,95,0,0,1-17.28,6.54,37.13,37.13,0,0,1-5.7,1.14c-3.3-4.76-1.78-8.19,1.51-10.29a15.36,15.36,0,0,1,4.49-1.85c6.16-1.54,11.22-6.37,8.59-8.53A11.83,11.83,0,0,1,119.18,56c7.4.66,11.67,1.83,14.14,4.33l.33.89C135.62,66.7,134.91,69.61,134.1,71Z" transform="translate(0 0)"/><path class="cls-5" d="M30.32,42c-.5.51-1,1-1.46,1.57q-1.14,1.29-2,2.39c-4-2.15-7.44-2.61-10.29-2-6,1.33-3.74-4.83-4.24-10.28a5.26,5.26,0,0,0-1.4-3.36l.8-.61.46-.34.44-.37.23-.17.64-.46.2-.14.21-.15.44-.3c1.16-.8,2.52-1.71,4-2.67l.38-.24,1.18-.72a17.7,17.7,0,0,0,10.46,5.6C24.92,32.55,13.11,39.65,30.32,42Z" transform="translate(0 0)"/><path class="cls-3" d="M30.32,42c-17.22-2.35-5.41-9.45,0-12.21a19.26,19.26,0,0,0,5.17,0C48.59,28.16,38.47,33.54,30.32,42Z" transform="translate(0 0)"/><path class="cls-4" d="M49.88,56.62A42.09,42.09,0,0,0,58,71.07,16.38,16.38,0,0,0,55.71,71H54l-.67.1h-.57l-.86.19-.24.06-.53.14-.26.08-.26.08-.26.08-.26.08L50,72l-.61-1c-1.62-2.52-4.11-6.14-8-11.25C36.11,52.67,31.17,48.31,26.83,46q.9-1.1,2-2.39c8.29-9.35,20.51-15.51,6.67-13.77a17.65,17.65,0,0,1-15.61-5.57c10-6,26-13.52,42.55-12.3a70.42,70.42,0,0,0,6,14.18C60.71,30.71,49.79,39,48.93,49.55A17,17,0,0,0,49.88,56.62Z" transform="translate(0 0)"/><path class="cls-7" d="M62.12,10.75a17.51,17.51,0,0,0-5-2.53c-.6-.21-1.23-.4-1.87-.57A24.21,24.21,0,0,0,60.6,3a8.8,8.8,0,0,1,.35,3.09S61.3,7.91,62.12,10.75Z" transform="translate(0 0)"/><path class="cls-1" d="M107.44,80.47l-.42.05-.59.06h-.69c-13.9,1.17-29.85-3.79-39.83-7.27l-3.5-1.24a20.1,20.1,0,0,0-4.38-1,42.09,42.09,0,0,1-8.18-14.45,17,17,0,0,1-1-7.08c8.61,6.32,31.43,20.8,59.56,20.64h.46C105.66,72.28,104.14,75.7,107.44,80.47Z" transform="translate(0 0)"/><path class="cls-5" d="M110.38,54.29a4.1,4.1,0,0,1-1.19,2.23c-2.56,2.35-6.83,3.68-9.74,1.16-1.2-1-1.6-3.39-3.19-3.93s-4.14.62-6,.2-3.44-5.75-4.85-6.68-3.94.92-6.37-.1.3-5.34-3.84-7.5c-3.77-2-22.18,8.58-25.46,10.49l-.85-.62C49.79,39,60.71,30.71,68.48,26.12A39.88,39.88,0,0,0,77.32,37C86.83,45,100,51.32,110.38,54.29Z" transform="translate(0 0)"/><path class="cls-3" d="M109.45,53.86l-1,3.33A2.5,2.5,0,0,0,107,56a2.45,2.45,0,0,0-1.84.18l1-3.33a.45.45,0,0,1,.55-.32h0l2.43.72a.46.46,0,0,1,.3.58Z" transform="translate(0 0)"/><path class="cls-7" d="M108.74,59.19a2.5,2.5,0,0,1-3.08,1.74h0a2.56,2.56,0,0,1-.45-4.7A2.45,2.45,0,0,1,107,56a2.5,2.5,0,0,1,1.46,1.15A2.58,2.58,0,0,1,108.74,59.19Z" transform="translate(0 0)"/><path class="cls-3" d="M108,59a1.86,1.86,0,0,1-.15.36,1.79,1.79,0,0,0-.24-1,1.74,1.74,0,0,0-1-.8,1.71,1.71,0,0,0-1.28.13,1.75,1.75,0,0,0-.73.73,1.85,1.85,0,0,1,.07-.38,1.77,1.77,0,0,1,.88-1.08,1.72,1.72,0,0,1,1.28-.13,1.74,1.74,0,0,1,1,.8A1.8,1.8,0,0,1,108,59Z" transform="translate(0 0)"/><path class="cls-5" d="M107.87,59.34a1.73,1.73,0,0,1-2,.85,1.77,1.77,0,0,1-1.26-1.81,1.75,1.75,0,0,1,.73-.73,1.71,1.71,0,0,1,1.28-.13,1.74,1.74,0,0,1,1,.8A1.79,1.79,0,0,1,107.87,59.34Z" transform="translate(0 0)"/><path class="cls-3" d="M99.9,50.38l-1.31,3.2a2.51,2.51,0,0,0-1.32-1.31,2.45,2.45,0,0,0-1.85,0L96.73,49a.45.45,0,0,1,.58-.25h0l2.33,1a.47.47,0,0,1,.26.61Z" transform="translate(0 0)"/><path class="cls-7" d="M98.61,55.6A2.49,2.49,0,0,1,95.38,57h0A2.56,2.56,0,0,1,94,53.64a2.52,2.52,0,0,1,1.42-1.4,2.45,2.45,0,0,1,1.85,0,2.51,2.51,0,0,1,1.32,1.31A2.58,2.58,0,0,1,98.61,55.6Z" transform="translate(0 0)"/><path class="cls-3" d="M97.91,55.3a1.88,1.88,0,0,1-.18.34,1.81,1.81,0,0,0-.12-1,1.76,1.76,0,0,0-.92-.92,1.72,1.72,0,0,0-1.29,0,1.75,1.75,0,0,0-.81.64A1.72,1.72,0,0,1,94.7,54a1.75,1.75,0,0,1,1-1A1.71,1.71,0,0,1,97,53a1.75,1.75,0,0,1,.92.92A1.8,1.8,0,0,1,97.91,55.3Z" transform="translate(0 0)"/><path class="cls-5" d="M97.72,55.64a1.73,1.73,0,0,1-2.1.61,1.78,1.78,0,0,1-1-1.94,1.75,1.75,0,0,1,.81-.64,1.72,1.72,0,0,1,1.29,0,1.76,1.76,0,0,1,.92.92A1.81,1.81,0,0,1,97.72,55.64Z" transform="translate(0 0)"/><path class="cls-3" d="M89.29,44.91l-1.69,3a2.53,2.53,0,0,0-1.16-1.47,2.46,2.46,0,0,0-1.83-.26l1.69-3a.45.45,0,0,1,.6-.2h0l2.2,1.27a.47.47,0,0,1,.16.64Z" transform="translate(0 0)"/><path class="cls-7" d="M87.39,49.93A2.48,2.48,0,0,1,84.05,51H84a2.57,2.57,0,0,1-1-3.49v0h0a2.5,2.5,0,0,1,1.58-1.21,2.46,2.46,0,0,1,1.83.26A2.53,2.53,0,0,1,87.6,48,2.58,2.58,0,0,1,87.39,49.93Z" transform="translate(0 0)"/><path class="cls-3" d="M86.73,49.55a1.79,1.79,0,0,1-.22.32,1.8,1.8,0,0,0,0-1,1.77,1.77,0,0,0-.8-1,1.72,1.72,0,0,0-2.16.35,1.71,1.71,0,0,1,.15-.36A1.74,1.74,0,0,1,84.8,47a1.72,1.72,0,0,1,1.23.18,1.76,1.76,0,0,1,.8,1A1.8,1.8,0,0,1,86.73,49.55Z" transform="translate(0 0)"/><path class="cls-5" d="M86.51,49.87a1.73,1.73,0,0,1-2.15.35,1.79,1.79,0,0,1-.81-2.06,1.72,1.72,0,0,1,2.16-.35A1.77,1.77,0,0,1,86.51,49.87Z" transform="translate(0 0)"/><path class="cls-3" d="M78.88,38.21,76.82,41a2.54,2.54,0,0,0-1-1.61,2.47,2.47,0,0,0-1.78-.5l2.06-2.76a.45.45,0,0,1,.63-.1h0l2,1.55A.47.47,0,0,1,78.88,38.21Z" transform="translate(0 0)"/><path class="cls-7" d="M76.35,42.93a2.47,2.47,0,0,1-3.45.53h0a2.57,2.57,0,0,1-.48-3.56,2.47,2.47,0,0,1,3.45-.53h0a2.54,2.54,0,0,1,1,1.61A2.57,2.57,0,0,1,76.35,42.93Z" transform="translate(0 0)"/><path class="cls-3" d="M75.74,42.46a1.81,1.81,0,0,1-.26.28,1.81,1.81,0,0,0,.14-1,1.77,1.77,0,0,0-.67-1.12,1.72,1.72,0,0,0-1.24-.35,1.75,1.75,0,0,0-.94.41,1.88,1.88,0,0,1,.2-.33,1.72,1.72,0,0,1,2.4-.39h0A1.78,1.78,0,0,1,76,41.1,1.8,1.8,0,0,1,75.74,42.46Z" transform="translate(0 0)"/><path class="cls-5" d="M75.48,42.74a1.72,1.72,0,0,1-2.18.06,1.79,1.79,0,0,1-.53-2.15,1.75,1.75,0,0,1,.94-.41,1.72,1.72,0,0,1,1.24.35,1.77,1.77,0,0,1,.67,1.12A1.81,1.81,0,0,1,75.48,42.74Z" transform="translate(0 0)"/><path class="cls-3" d="M68.59,25.74l-3,1.59a2.57,2.57,0,0,0-.18-1.87A2.5,2.5,0,0,0,64,24.23l3-1.59a.45.45,0,0,1,.61.19h0l1.16,2.28A.47.47,0,0,1,68.59,25.74Z" transform="translate(0 0)"/><path class="cls-7" d="M64.31,28.89a2.48,2.48,0,0,1-3.35-1h0a2.56,2.56,0,0,1,1-3.48l.06,0a2.46,2.46,0,0,1,2-.14,2.5,2.5,0,0,1,1.4,1.23,2.57,2.57,0,0,1,.18,1.87A2.53,2.53,0,0,1,64.31,28.89Z" transform="translate(0 0)"/><path class="cls-3" d="M64,28.21a1.82,1.82,0,0,1-.36.14,1.78,1.78,0,0,0,.56-.87,1.8,1.8,0,0,0-.13-1.3,1.75,1.75,0,0,0-1-.86,1.72,1.72,0,0,0-1,0,1.73,1.73,0,0,1,.32-.21A1.71,1.71,0,0,1,63.73,25a1.75,1.75,0,0,1,1,.86,1.79,1.79,0,0,1,.13,1.3A1.76,1.76,0,0,1,64,28.21Z" transform="translate(0 0)"/><path class="cls-5" d="M63.6,28.35a1.74,1.74,0,0,1-2-.9A1.79,1.79,0,0,1,62,25.27a1.72,1.72,0,0,1,1,0,1.75,1.75,0,0,1,1,.86,1.8,1.8,0,0,1,.13,1.3A1.78,1.78,0,0,1,63.6,28.35Z" transform="translate(0 0)"/><path class="cls-3" d="M64.72,17.55l-3.21,1.18a2.57,2.57,0,0,0,.06-1.88,2.53,2.53,0,0,0-1.23-1.41l3.21-1.18a.45.45,0,0,1,.58.27h0L65,17A.46.46,0,0,1,64.72,17.55Z" transform="translate(0 0)"/><path class="cls-7" d="M60,20.11a2.49,2.49,0,0,1-3.19-1.5h0a2.55,2.55,0,0,1,1.5-3.26,2.46,2.46,0,0,1,2,.12,2.53,2.53,0,0,1,1.23,1.41,2.57,2.57,0,0,1-.06,1.88A2.51,2.51,0,0,1,60,20.11Z" transform="translate(0 0)"/><path class="cls-3" d="M59.81,19.38a1.67,1.67,0,0,1-.37.09,1.77,1.77,0,0,0,.67-.79,1.8,1.8,0,0,0,0-1.31,1.77,1.77,0,0,0-.85-1,1.72,1.72,0,0,0-1-.17A1.79,1.79,0,0,1,58.6,16a1.72,1.72,0,0,1,1.38.08,1.76,1.76,0,0,1,.85,1,1.79,1.79,0,0,1,0,1.31A1.75,1.75,0,0,1,59.81,19.38Z" transform="translate(0 0)"/><path class="cls-5" d="M59.44,19.47a1.74,1.74,0,0,1-1.86-1.16,1.79,1.79,0,0,1,.7-2.1,1.72,1.72,0,0,1,1,.17,1.77,1.77,0,0,1,.85,1,1.8,1.8,0,0,1,0,1.31A1.77,1.77,0,0,1,59.44,19.47Z" transform="translate(0 0)"/><path class="cls-7" d="M53.82,22.49a1.14,1.14,0,1,1-2.27,0,1.32,1.32,0,0,1,0-.21,1.14,1.14,0,0,0,1,.74,1.17,1.17,0,0,0,1.12-1A1.33,1.33,0,0,1,53.82,22.49Z" transform="translate(0 0)"/><path class="cls-3" d="M53.73,22a1.17,1.17,0,0,1-1.12,1,1.14,1.14,0,0,1-1-.74,1.17,1.17,0,0,1,1.12-1A1.14,1.14,0,0,1,53.73,22Z" transform="translate(0 0)"/><path class="cls-7" d="M45.41,23.49a1.14,1.14,0,1,1-2.27,0,1.3,1.3,0,0,1,0-.21,1.14,1.14,0,0,0,1,.74,1.17,1.17,0,0,0,1.12-1A1.32,1.32,0,0,1,45.41,23.49Z" transform="translate(0 0)"/><path class="cls-3" d="M45.32,23a1.17,1.17,0,0,1-1.12,1,1.14,1.14,0,0,1-1-.74,1.17,1.17,0,0,1,1.12-1A1.14,1.14,0,0,1,45.32,23Z" transform="translate(0 0)"/><path class="cls-7" d="M38.52,25.49a1.14,1.14,0,1,1-2.27,0,1.38,1.38,0,0,1,0-.21,1.14,1.14,0,0,0,1,.75,1.17,1.17,0,0,0,1.12-1A1.32,1.32,0,0,1,38.52,25.49Z" transform="translate(0 0)"/><path class="cls-3" d="M38.42,25a1.17,1.17,0,0,1-1.12,1,1.14,1.14,0,0,1-1-.75,1.17,1.17,0,0,1,1.12-1A1.14,1.14,0,0,1,38.42,25Z" transform="translate(0 0)"/><path class="cls-7" d="M36.39,49.53a1.14,1.14,0,1,1-2.27,0,1.26,1.26,0,0,1,0-.2,1.14,1.14,0,0,0,1,.74,1.17,1.17,0,0,0,1.12-1A1.33,1.33,0,0,1,36.39,49.53Z" transform="translate(0 0)"/><path class="cls-3" d="M36.3,49.05a1.17,1.17,0,0,1-1.12,1,1.14,1.14,0,0,1-1-.74,1.17,1.17,0,0,1,1.12-1A1.14,1.14,0,0,1,36.3,49.05Z" transform="translate(0 0)"/><path class="cls-7" d="M39.88,44.22a1.14,1.14,0,1,1-2.27,0,1.32,1.32,0,0,1,0-.2,1.14,1.14,0,0,0,1,.74,1.17,1.17,0,0,0,1.12-1A1.33,1.33,0,0,1,39.88,44.22Z" transform="translate(0 0)"/><path class="cls-3" d="M39.79,43.73a1.17,1.17,0,0,1-1.12,1,1.14,1.14,0,0,1-1-.74,1.17,1.17,0,0,1,1.12-1A1.14,1.14,0,0,1,39.79,43.73Z" transform="translate(0 0)"/><path class="cls-7" d="M44.43,39.13a1.14,1.14,0,1,1-2.27,0,1.32,1.32,0,0,1,0-.2,1.14,1.14,0,0,0,1,.74,1.17,1.17,0,0,0,1.12-1A1.33,1.33,0,0,1,44.43,39.13Z" transform="translate(0 0)"/><path class="cls-3" d="M44.33,38.64a1.17,1.17,0,0,1-1.12,1,1.14,1.14,0,0,1-1-.74,1.17,1.17,0,0,1,1.12-1A1.14,1.14,0,0,1,44.33,38.64Z" transform="translate(0 0)"/><path class="cls-7" d="M49.28,35.74a1.14,1.14,0,1,1-2.27,0,1.32,1.32,0,0,1,0-.2,1.14,1.14,0,0,0,1,.74,1.17,1.17,0,0,0,1.12-1A1.34,1.34,0,0,1,49.28,35.74Z" transform="translate(0 0)"/><path class="cls-3" d="M49.19,35.25a1.17,1.17,0,0,1-1.12,1,1.14,1.14,0,0,1-1-.74,1.17,1.17,0,0,1,1.12-1A1.14,1.14,0,0,1,49.19,35.25Z" transform="translate(0 0)"/><path class="cls-7" d="M55.11,33.2a1.14,1.14,0,1,1-2.27,0,1.36,1.36,0,0,1,0-.21,1.14,1.14,0,0,0,1,.74,1.17,1.17,0,0,0,1.12-1A1.31,1.31,0,0,1,55.11,33.2Z" transform="translate(0 0)"/><path class="cls-3" d="M55,32.71a1.17,1.17,0,0,1-1.12,1,1.14,1.14,0,0,1-1-.74A1.17,1.17,0,0,1,54,32,1.14,1.14,0,0,1,55,32.71Z" transform="translate(0 0)"/><path class="cls-7" d="M22.45,30.65a1.14,1.14,0,1,1-2.27,0,1.31,1.31,0,0,1,0-.21,1.14,1.14,0,0,0,1,.74,1.17,1.17,0,0,0,1.12-1A1.33,1.33,0,0,1,22.45,30.65Z" transform="translate(0 0)"/><path class="cls-3" d="M22.36,30.17a1.17,1.17,0,0,1-1.12,1,1.14,1.14,0,0,1-1-.74,1.17,1.17,0,0,1,1.12-1A1.14,1.14,0,0,1,22.36,30.17Z" transform="translate(0 0)"/><path class="cls-7" d="M18.81,33.89a1.14,1.14,0,1,1-2.27,0,1.37,1.37,0,0,1,0-.21,1.14,1.14,0,0,0,1,.75,1.17,1.17,0,0,0,1.12-1A1.32,1.32,0,0,1,18.81,33.89Z" transform="translate(0 0)"/><path class="cls-3" d="M18.72,33.4a1.17,1.17,0,0,1-1.12,1,1.14,1.14,0,0,1-1-.75,1.17,1.17,0,0,1,1.12-1A1.14,1.14,0,0,1,18.72,33.4Z" transform="translate(0 0)"/><path class="cls-7" d="M18,38.52a1.14,1.14,0,1,1-2.27,0,1.28,1.28,0,0,1,0-.21,1.14,1.14,0,0,0,1,.74,1.17,1.17,0,0,0,1.12-1A1.33,1.33,0,0,1,18,38.52Z" transform="translate(0 0)"/><path class="cls-3" d="M17.89,38a1.17,1.17,0,0,1-1.12,1,1.14,1.14,0,0,1-1-.74,1.17,1.17,0,0,1,1.12-1A1.14,1.14,0,0,1,17.89,38Z" transform="translate(0 0)"/></svg>