<svg id="Layer_1" data-name="Layer 1" xmlns="http://www.w3.org/2000/svg" xmlns:xlink="http://www.w3.org/1999/xlink"
     viewBox="0 0 62.65 62.65">
    <defs>
        <style>
            .cls-1{fill:#3a3d22;}.cls-2{fill:#525731;}.cls-3{fill:#fff;}.cls-4{fill:url(#linear-gradient);}.cls-5{fill:#004266;}.cls-6{fill:url(#linear-gradient-2);}.cls-7{fill:url(#radial-gradient);}
        </style>
        <linearGradient id="linear-gradient" x1="-334.03" y1="-385.51" x2="-329.43" y2="-385.51"
                        gradientTransform="translate(-358.08 349.69) rotate(90)" gradientUnits="userSpaceOnUse">
            <stop offset="0" stop-color="#00e1ff"/>
            <stop offset="1" stop-color="#004369"/>
        </linearGradient>
        <linearGradient id="linear-gradient-2" x1="-174.09" y1="-160.81" x2="-169.49" y2="-160.81"
                        gradientTransform="translate(-127.7 203.49) rotate(90)" xlink:href="#linear-gradient"/>
        <radialGradient id="radial-gradient" cx="13.69" cy="31.7" r="3.58" gradientUnits="userSpaceOnUse">
            <stop offset="0" stop-color="#afce22"/>
            <stop offset="1" stop-color="#6db015"/>
        </radialGradient>
    </defs>
    <title>angle-icon</title>
    <circle class="cls-1" cx="31.33" cy="31.33" r="31.33"/>
    <path class="cls-2" d="M31.33,61.65A30.33,30.33,0,1,1,61.65,31.33,30.36,30.36,0,0,1,31.33,61.65Z"/>
    <path class="cls-3" d="M14.54,48.83l-.8-2.28H9.16l-.8,2.28H7l3.74-10.39h1.48l3.73,10.39Zm-5-3.36h3.8l-1.9-5.37Z"/>
    <path class="cls-3"
          d="M19.05,40.6v1.33a2.83,2.83,0,0,1,2.66-1.47,3.06,3.06,0,0,1,2.26.91A3.51,3.51,0,0,1,24.87,44v4.88H23.54V44.18a2.7,2.7,0,0,0-.59-1.89,2.12,2.12,0,0,0-1.64-.64,2.14,2.14,0,0,0-1.65.64,2.68,2.68,0,0,0-.6,1.89v4.65H17.7V40.6Z"/>
    <path class="cls-3"
          d="M27.61,47.76a4.38,4.38,0,0,1-1.11-3.09,4.23,4.23,0,0,1,1.11-3,3.68,3.68,0,0,1,2.78-1.16,3.32,3.32,0,0,1,1.82.5,3.23,3.23,0,0,1,1.18,1.29V40.6h1.37V49a3.69,3.69,0,0,1-3.83,3.84,4.62,4.62,0,0,1-2.75-.78,2.83,2.83,0,0,1-1.24-2h1.32a2,2,0,0,0,.91,1.17,3.17,3.17,0,0,0,1.77.46,2.4,2.4,0,0,0,1.76-.7,2.63,2.63,0,0,0,.71-2V47.15a3.25,3.25,0,0,1-3,1.81A3.62,3.62,0,0,1,27.61,47.76Zm5-.8a3.49,3.49,0,0,0,0-4.47,2.6,2.6,0,0,0-1.95-.84,2.65,2.65,0,0,0-1.95.81,3,3,0,0,0-.81,2.21,3.17,3.17,0,0,0,.82,2.26,2.63,2.63,0,0,0,3.88,0Z"/>
    <path class="cls-3" d="M37,48.83V37.73h1.35v11.1Z"/>
    <path class="cls-3"
          d="M44,49a3.73,3.73,0,0,1-2.85-1.17A4.33,4.33,0,0,1,40,44.71a4.26,4.26,0,0,1,1.11-3.08,4.2,4.2,0,0,1,5.74-.06,3.86,3.86,0,0,1,1.08,2.81,5.14,5.14,0,0,1-.06.81H41.4a2.85,2.85,0,0,0,.77,1.94,2.43,2.43,0,0,0,1.8.71,2.5,2.5,0,0,0,1.4-.37,2.22,2.22,0,0,0,.84-1h1.46a3.77,3.77,0,0,1-1.33,1.79A3.84,3.84,0,0,1,44,49ZM45.8,42.3a2.64,2.64,0,0,0-3.59,0,2.8,2.8,0,0,0-.79,1.91h5.12A2.59,2.59,0,0,0,45.8,42.3Z"/>
    <path class="cls-3"
          d="M49.33,42.92a2.19,2.19,0,0,1,.85-1.75,3.34,3.34,0,0,1,2.21-.71,3.06,3.06,0,0,1,2.13.7,2.68,2.68,0,0,1,.85,1.91H54A1.58,1.58,0,0,0,53.52,42a1.64,1.64,0,0,0-1.2-.42,1.82,1.82,0,0,0-1.2.37,1.18,1.18,0,0,0-.44.95,1,1,0,0,0,.5.89,3.54,3.54,0,0,0,1.2.46q.7.14,1.41.33a2.55,2.55,0,0,1,1.2.71,2,2,0,0,1,.5,1.47,2,2,0,0,1-.85,1.6,3.55,3.55,0,0,1-2.22.65,3.3,3.3,0,0,1-2.19-.69,2.57,2.57,0,0,1-.9-1.91h1.4a1.51,1.51,0,0,0,.48,1.1,1.78,1.78,0,0,0,1.25.41,2,2,0,0,0,1.25-.34,1.06,1.06,0,0,0,.45-.88,1.07,1.07,0,0,0-.36-.85,2,2,0,0,0-.89-.44l-1.17-.29q-.63-.16-1.17-.35a1.89,1.89,0,0,1-.89-.65A1.87,1.87,0,0,1,49.33,42.92Z"/>
    <rect class="cls-4" x="8" y="15.66" width="38.85" height="4.6" rx="2.3" ry="2.3"
          transform="translate(-4.67 24.66) rotate(-45)"/>
    <circle class="cls-5" cx="15.24" cy="30.15" r="1.1" transform="translate(-16.85 19.61) rotate(-45)"/>
    <circle class="cls-5" cx="39.61" cy="5.78" r="1.1" transform="translate(7.52 29.7) rotate(-45)"/>
    <circle class="cls-5" cx="34.74" cy="10.65" r="1.1" transform="translate(2.64 27.68) rotate(-45)"/>
    <circle class="cls-5" cx="29.86" cy="15.53" r="1.1" transform="translate(-2.23 25.66) rotate(-45)"/>
    <circle class="cls-5" cx="24.99" cy="20.4" r="1.1" transform="translate(-7.11 23.65) rotate(-45)"/>
    <circle class="cls-5" cx="20.12" cy="25.28" r="1.1" transform="translate(-11.98 21.63) rotate(-45)"/>
    <rect class="cls-6" x="13.69" y="29.4" width="38.85" height="4.6" rx="2.3" ry="2.3"/>
    <circle class="cls-5" cx="15.88" cy="31.7" r="1.1"/>
    <circle class="cls-5" cx="50.35" cy="31.7" r="1.1"/>
    <circle class="cls-5" cx="43.46" cy="31.7" r="1.1"/>
    <circle class="cls-5" cx="36.56" cy="31.7" r="1.1"/>
    <circle class="cls-5" cx="29.67" cy="31.7" r="1.1"/>
    <circle class="cls-5" cx="22.78" cy="31.7" r="1.1"/>
    <circle class="cls-7" cx="13.69" cy="31.7" r="3.58"/>
</svg>