<svg id="Layer_1" data-name="Layer 1" xmlns="http://www.w3.org/2000/svg" viewBox="0 0 62.65 77.84"><defs><style>.cls-1{fill:#3a3d22;}.cls-2{fill:#525731;}.cls-3{fill:#fff;}.cls-4{fill:#ff6e5c;}</style></defs><title>left find-icon</title><circle class="cls-1" cx="31.33" cy="31.33" r="31.33"/><path class="cls-2" d="M31.33,61.65A30.33,30.33,0,1,1,61.65,31.33,30.36,30.36,0,0,1,31.33,61.65Z"/><circle class="cls-3" cx="41.86" cy="31.33" r="15.38"/><circle cx="20.79" cy="31.33" r="15.38"/><path class="cls-4" d="M18.07,67.16h6.16v1.23H19.48V71.6h4v1.17h-4v4.89H18.07Z"/><path class="cls-4" d="M26.17,68.53a.9.9,0,0,1-.66-.28.92.92,0,0,1-.27-.67.94.94,0,0,1,.25-.69.92.92,0,0,1,.68-.26.9.9,0,0,1,.66.28.91.91,0,0,1,.27.67.94.94,0,0,1-.25.69A.92.92,0,0,1,26.17,68.53Zm.67,9.13H25.5v-7.8h1.34Z"/><path class="cls-4" d="M30.5,71.17a3.71,3.71,0,0,1,1.06-1.06,2.72,2.72,0,0,1,1.54-.43,2.37,2.37,0,0,1,2,.8,3.22,3.22,0,0,1,.65,2.1v5.08H34.36V72.73A2.18,2.18,0,0,0,34,71.37a1.31,1.31,0,0,0-1.1-.5,1.84,1.84,0,0,0-.67.13,2.78,2.78,0,0,0-.63.35,3.48,3.48,0,0,0-.56.53,5.2,5.2,0,0,0-.47.63v5.16H29.21v-7.8H30.5Z"/><path class="cls-4" d="M40.93,77.84a3.24,3.24,0,0,1-2.44-1.09,3.83,3.83,0,0,1-.73-1.27,4.91,4.91,0,0,1-.27-1.67,4.78,4.78,0,0,1,.27-1.64,4.18,4.18,0,0,1,.74-1.31A3.5,3.5,0,0,1,39.59,70a2.89,2.89,0,0,1,1.32-.32,2.66,2.66,0,0,1,1.33.32,3.67,3.67,0,0,1,.87.65V66.56h1.34v9.21q0,.57.27.74a1.11,1.11,0,0,0,.6.17l-.28,1a1.56,1.56,0,0,1-1.72-1.14,3.43,3.43,0,0,1-.92.86A2.62,2.62,0,0,1,40.93,77.84Zm.3-1.2a2.22,2.22,0,0,0,1-.26,2.68,2.68,0,0,0,.84-.68V71.83a3,3,0,0,0-.78-.67,2.21,2.21,0,0,0-2.09-.08,2.3,2.3,0,0,0-.75.62,2.75,2.75,0,0,0-.48.92,3.9,3.9,0,0,0-.16,1.15A3.58,3.58,0,0,0,39,74.92a2.81,2.81,0,0,0,.5.91,2.32,2.32,0,0,0,.76.6A2.1,2.1,0,0,0,41.22,76.64Z"/></svg>