<svg id="Layer_1" data-name="Layer 1" xmlns="http://www.w3.org/2000/svg" viewBox="0 0 62.65 77.84"><defs><style>.cls-1{fill:#ff6e5c;}.cls-2{fill:#3a3d22;}.cls-3{fill:#525731;}.cls-4{fill:#c2a023;}.cls-5{fill:#ffd32e;}.cls-6{fill:#cf594a;}.cls-7{fill:#ff795d;}.cls-8{fill:#129ac7;}.cls-9{fill:#17c6ff;}</style></defs><title>match button</title><path class="cls-1" d="M19.75,69,17,75.29h-1.4L12.79,69v8.68H11.45V67.16h2l2.88,6.64,2.84-6.64h2v10.5H19.75Z"/><path class="cls-1" d="M23.17,73.81a4.86,4.86,0,0,1,.27-1.63,4,4,0,0,1,.75-1.31,3.44,3.44,0,0,1,2.64-1.19,3,3,0,0,1,1.21.23,3.59,3.59,0,0,1,.94.58v-.63h1.22v5.91q0,.57.27.74a1.11,1.11,0,0,0,.6.17l-.28,1a1.55,1.55,0,0,1-1.72-1.17,4.42,4.42,0,0,1-.41.47,2.77,2.77,0,0,1-.53.41,2.71,2.71,0,0,1-.67.29,3,3,0,0,1-.82.1,3.24,3.24,0,0,1-2.46-1.09,3.92,3.92,0,0,1-.74-1.27A4.79,4.79,0,0,1,23.17,73.81Zm3.77,2.84A2.24,2.24,0,0,0,28,76.37a2.65,2.65,0,0,0,.85-.71V71.48A3.62,3.62,0,0,0,28,71a3,3,0,0,0-1-.17,2.26,2.26,0,0,0-1,.21,2.21,2.21,0,0,0-.76.59,2.79,2.79,0,0,0-.5.92,3.77,3.77,0,0,0-.18,1.18,3.65,3.65,0,0,0,.18,1.16,2.73,2.73,0,0,0,.5.92,2.3,2.3,0,0,0,.77.59A2.18,2.18,0,0,0,26.94,76.64Z"/><path class="cls-1" d="M33.46,67.69h1v2.46h2.14v1.17H34.48v3.76a2.42,2.42,0,0,0,.1.74,1.29,1.29,0,0,0,.26.48,1,1,0,0,0,.39.26,1.43,1.43,0,0,0,.48.08,2,2,0,0,0,.7-.12,4.43,4.43,0,0,0,.62-.29l.37,1.08a4.22,4.22,0,0,1-.8.35,3.26,3.26,0,0,1-1.05.17,2.22,2.22,0,0,1-1.76-.73A3.13,3.13,0,0,1,33.14,75V71.32H31.81V70.15h1.37Z"/><path class="cls-1" d="M43.38,71.29a4.47,4.47,0,0,0-.8-.31,3.3,3.3,0,0,0-.83-.1,2.44,2.44,0,0,0-1,.2,2.18,2.18,0,0,0-.78.56,2.66,2.66,0,0,0-.51.89,3.58,3.58,0,0,0-.19,1.2,3.66,3.66,0,0,0,.17,1.14,3,3,0,0,0,.48.92,2.27,2.27,0,0,0,.74.62,2,2,0,0,0,1,.23,3.4,3.4,0,0,0,1-.12,4.41,4.41,0,0,0,.86-.37l.42,1.14a4.84,4.84,0,0,1-1,.41,5.07,5.07,0,0,1-1.29.15,3.62,3.62,0,0,1-1.5-.3,3.31,3.31,0,0,1-1.14-.84,3.82,3.82,0,0,1-.73-1.29,5,5,0,0,1-.26-1.65,4.75,4.75,0,0,1,.26-1.58,3.85,3.85,0,0,1,.75-1.3A3.58,3.58,0,0,1,40.12,70a3.63,3.63,0,0,1,1.55-.32,5,5,0,0,1,1.16.12,4.7,4.7,0,0,1,1,.35Z"/><path class="cls-1" d="M46.79,71.11a3.59,3.59,0,0,1,1-1,2.73,2.73,0,0,1,1.51-.41,2.37,2.37,0,0,1,2,.8,3.22,3.22,0,0,1,.65,2.1v5.08H50.61V72.73a2.21,2.21,0,0,0-.38-1.36,1.29,1.29,0,0,0-1.09-.5,1.9,1.9,0,0,0-.68.13,2.59,2.59,0,0,0-.63.35,4,4,0,0,0-.56.53,4.8,4.8,0,0,0-.48.63v5.16H45.45V66.56h1.34Z"/><circle class="cls-2" cx="31.33" cy="31.33" r="31.33"/><path class="cls-3" d="M31.33,61.65A30.33,30.33,0,1,1,61.65,31.33,30.36,30.36,0,0,1,31.33,61.65Z"/><polygon class="cls-4" points="50.34 49.27 14.46 49.27 32.27 13.38 50.34 49.27"/><polygon class="cls-5" points="16.47 48.02 32.28 16.16 48.32 48.02 16.47 48.02"/><circle class="cls-6" cx="42.56" cy="32.62" r="11.94"/><path class="cls-7" d="M42.56,43.56A10.94,10.94,0,1,1,53.5,32.62,11,11,0,0,1,42.56,43.56Z"/><rect class="cls-8" x="8.15" y="29.34" width="20.59" height="19.93"/><rect class="cls-9" x="9.3" y="29.83" width="18.28" height="18.95" transform="translate(57.75 20.86) rotate(90)"/></svg>