<svg id="Layer_1" data-name="Layer 1" xmlns="http://www.w3.org/2000/svg" viewBox="0 0 62.65 62.65">
    <defs>
        <style>
            .cls-1{fill:#3a3d22;}.cls-2{fill:#525731;}.cls-3{fill:#fff;}.cls-4{fill:#52e000;}.cls-5{fill:#e180ff;}.cls-6{fill:#1c87ff;}
        </style>
    </defs>
    <title>names-icon</title>
    <circle class="cls-1" cx="31.33" cy="31.33" r="31.33"/>
    <path class="cls-2" d="M31.33,61.65A30.33,30.33,0,1,1,61.65,31.33,30.36,30.36,0,0,1,31.33,61.65Z"/>
    <path class="cls-3" d="M13.05,24.77H14.4V35.16H13.05L7.62,26.91v8.25H6.27V24.77H7.62L13.05,33Z"/>
    <path class="cls-3"
          d="M17.21,34.09A4.38,4.38,0,0,1,16.1,31a4.23,4.23,0,0,1,1.11-3A3.68,3.68,0,0,1,20,26.79a3.32,3.32,0,0,1,1.82.5A3.23,3.23,0,0,1,23,28.58V26.93h1.37v8.24H23V33.48a3.25,3.25,0,0,1-3,1.81A3.62,3.62,0,0,1,17.21,34.09Zm5-.8a3.49,3.49,0,0,0,0-4.47A2.6,2.6,0,0,0,20.23,28a2.65,2.65,0,0,0-1.95.81A3,3,0,0,0,17.48,31a3.17,3.17,0,0,0,.82,2.26,2.63,2.63,0,0,0,3.88,0Z"/>
    <path class="cls-3"
          d="M27.93,26.93v1.33a2.83,2.83,0,0,1,2.66-1.47,3.2,3.2,0,0,1,1.69.46,2.86,2.86,0,0,1,1.14,1.33,3.36,3.36,0,0,1,1.21-1.31,3.25,3.25,0,0,1,1.75-.47,3.1,3.1,0,0,1,2.29.91,3.51,3.51,0,0,1,.91,2.59v4.87H38.24V30.51a2.67,2.67,0,0,0-.6-1.89,2.41,2.41,0,0,0-3.28,0,2.67,2.67,0,0,0-.6,1.89v4.65H32.42V30.51a2.7,2.7,0,0,0-.59-1.89A2.12,2.12,0,0,0,30.18,28a2.14,2.14,0,0,0-1.65.64,2.68,2.68,0,0,0-.6,1.89v4.65H26.58V26.93Z"/>
    <path class="cls-3"
          d="M45.14,35.3a3.73,3.73,0,0,1-2.85-1.17A4.33,4.33,0,0,1,41.19,31,4.27,4.27,0,0,1,42.31,28,4.2,4.2,0,0,1,48,27.89a3.86,3.86,0,0,1,1.08,2.81,5.26,5.26,0,0,1-.06.81H42.57a2.84,2.84,0,0,0,.76,1.94,2.43,2.43,0,0,0,1.8.71,2.5,2.5,0,0,0,1.4-.37,2.22,2.22,0,0,0,.84-1h1.46a3.78,3.78,0,0,1-1.33,1.79A3.84,3.84,0,0,1,45.14,35.3ZM47,28.63a2.64,2.64,0,0,0-3.59,0,2.81,2.81,0,0,0-.79,1.91h5.12A2.58,2.58,0,0,0,47,28.63Z"/>
    <path class="cls-3"
          d="M50.5,29.25a2.19,2.19,0,0,1,.85-1.75,3.34,3.34,0,0,1,2.21-.71,3.06,3.06,0,0,1,2.13.7,2.68,2.68,0,0,1,.85,1.91h-1.4a1.58,1.58,0,0,0-.46-1.11,1.64,1.64,0,0,0-1.2-.42,1.82,1.82,0,0,0-1.2.37,1.18,1.18,0,0,0-.44.95,1,1,0,0,0,.5.89,3.54,3.54,0,0,0,1.2.46q.7.14,1.41.33a2.55,2.55,0,0,1,1.2.71,2,2,0,0,1,.5,1.47,2,2,0,0,1-.85,1.6,3.55,3.55,0,0,1-2.22.65,3.3,3.3,0,0,1-2.19-.69,2.57,2.57,0,0,1-.9-1.91h1.4a1.51,1.51,0,0,0,.48,1.1,1.78,1.78,0,0,0,1.25.41,2,2,0,0,0,1.25-.34,1.06,1.06,0,0,0,.45-.88,1.07,1.07,0,0,0-.36-.85,2,2,0,0,0-.89-.44l-1.17-.29q-.63-.16-1.17-.35a1.89,1.89,0,0,1-.89-.65A1.87,1.87,0,0,1,50.5,29.25Z"/>
    <rect class="cls-4" x="12.93" y="44.41" width="36.79" height="10.01"/>
    <circle class="cls-5" cx="31.33" cy="13.26" r="9.67"/>
    <polygon class="cls-6"
             points="22.64 39.17 31.32 44.02 40.01 48.88 31.46 53.98 22.91 59.07 22.78 49.12 22.64 39.17"/>
</svg>