<svg id="Layer_1" data-name="Layer 1" xmlns="http://www.w3.org/2000/svg" viewBox="0 0 62.65 62.65">
    <defs>
        <style>.cls-1{fill:#3a3d22;}.cls-2{fill:#525731;}.cls-3{fill:#fff;}.cls-4{fill:#1c87ff;}.cls-5{fill:#fff445;}
        </style>
    </defs>
    <title>side-corner-icon</title>
    <circle class="cls-1" cx="31.33" cy="31.33" r="31.33"/>
    <path class="cls-2" d="M31.33,61.65A30.33,30.33,0,1,1,61.65,31.33,30.36,30.36,0,0,1,31.33,61.65Z"/>
    <path class="cls-3"
          d="M18.55,10a1.43,1.43,0,0,0,.31.95,1.85,1.85,0,0,0,.8.55,8.65,8.65,0,0,0,1.09.32q.6.13,1.2.31a5.18,5.18,0,0,1,1.09.44,2.08,2.08,0,0,1,.8.81,2.63,2.63,0,0,1,.31,1.33,2.86,2.86,0,0,1-.92,2.12,3.41,3.41,0,0,1-2.49.9A4.17,4.17,0,0,1,18.21,17a2.33,2.33,0,0,1-1-2h1.44a1.63,1.63,0,0,0,.56,1.14,2.19,2.19,0,0,0,1.48.44A2.27,2.27,0,0,0,22.27,16a1.55,1.55,0,0,0,.58-1.19,1.58,1.58,0,0,0-.31-1,1.88,1.88,0,0,0-.8-.55,8.08,8.08,0,0,0-1.09-.31c-.4-.08-.8-.19-1.2-.31a5.26,5.26,0,0,1-1.09-.46,2.13,2.13,0,0,1-.8-.83A2.71,2.71,0,0,1,17.23,10a2.67,2.67,0,0,1,.93-2.12,3.57,3.57,0,0,1,2.42-.8,3.73,3.73,0,0,1,2.38.7A2.72,2.72,0,0,1,24,9.7h-1.5a1.53,1.53,0,0,0-.57-1,2.06,2.06,0,0,0-1.38-.44,2.19,2.19,0,0,0-1.42.44A1.57,1.57,0,0,0,18.55,10Z"/>
    <path class="cls-3"
          d="M27.51,7.75a.88.88,0,0,1-.65.27.86.86,0,0,1-.65-.27.91.91,0,0,1-.26-.66.9.9,0,0,1,.27-.66.91.91,0,0,1,1.29,0,.95.95,0,0,1,0,1.32Zm-1.34,9.83V9.34h1.35v8.24Z"/>
    <path class="cls-3"
          d="M30.33,16.5a4.38,4.38,0,0,1-1.11-3.09,4.23,4.23,0,0,1,1.11-3A3.68,3.68,0,0,1,33.11,9.2a3.32,3.32,0,0,1,1.82.5A3.23,3.23,0,0,1,36.11,11V6.47h1.37v11.1H36.11V15.89a3.26,3.26,0,0,1-3,1.81A3.62,3.62,0,0,1,30.33,16.5Zm5-.8a3.09,3.09,0,0,0,.81-2.24,3.09,3.09,0,0,0-.81-2.23,2.6,2.6,0,0,0-1.95-.84,2.65,2.65,0,0,0-1.95.81,3,3,0,0,0-.81,2.21,3.17,3.17,0,0,0,.82,2.26,2.63,2.63,0,0,0,3.88,0Z"/>
    <path class="cls-3"
          d="M43.11,17.71a3.73,3.73,0,0,1-2.85-1.17,4.33,4.33,0,0,1-1.1-3.09,4.27,4.27,0,0,1,1.11-3.08A4.2,4.2,0,0,1,46,10.31a3.86,3.86,0,0,1,1.08,2.81,5.14,5.14,0,0,1-.06.81H40.55a2.84,2.84,0,0,0,.77,1.94,2.43,2.43,0,0,0,1.8.71,2.5,2.5,0,0,0,1.4-.37,2.23,2.23,0,0,0,.84-1h1.46A3.77,3.77,0,0,1,45.48,17,3.84,3.84,0,0,1,43.11,17.71ZM44.94,11a2.64,2.64,0,0,0-3.59,0,2.8,2.8,0,0,0-.79,1.91h5.12A2.59,2.59,0,0,0,44.94,11Z"/>
    <path class="cls-3"
          d="M6,29.54a4.32,4.32,0,0,1-1.1-3.08A4.32,4.32,0,0,1,6,23.37,3.73,3.73,0,0,1,8.81,22.2a3.92,3.92,0,0,1,2.4.69,3.62,3.62,0,0,1,1.3,2H11.06a2.15,2.15,0,0,0-.82-1.12,2.42,2.42,0,0,0-1.43-.41,2.34,2.34,0,0,0-1.86.82,3.43,3.43,0,0,0-.71,2.31,3.43,3.43,0,0,0,.71,2.31,2.34,2.34,0,0,0,1.86.82,2.12,2.12,0,0,0,2.24-1.53h1.46A3.74,3.74,0,0,1,11.2,30a3.82,3.82,0,0,1-2.38.72A3.73,3.73,0,0,1,6,29.54Z"/>
    <path class="cls-3"
          d="M14.89,29.54a4.26,4.26,0,0,1-1.12-3.08,4.18,4.18,0,0,1,1.17-3.08,4,4,0,0,1,2.94-1.18,4,4,0,0,1,2.94,1.18A4.17,4.17,0,0,1,22,26.46a4.07,4.07,0,0,1-1.23,3.07,4.16,4.16,0,0,1-3,1.18A3.82,3.82,0,0,1,14.89,29.54Zm2.89,0a2.72,2.72,0,0,0,2-.83,3.1,3.1,0,0,0,.84-2.3,3.15,3.15,0,0,0-.8-2.29,2.62,2.62,0,0,0-2-.83,2.53,2.53,0,0,0-1.92.83,3.24,3.24,0,0,0-.77,2.3,3.32,3.32,0,0,0,.74,2.3A2.42,2.42,0,0,0,17.78,29.58Z"/>
    <path class="cls-3"
          d="M25,22.34v1.4a2.54,2.54,0,0,1,2.48-1.53v1.42h-.36a2.13,2.13,0,0,0-1.58.55,2.66,2.66,0,0,0-.54,1.9v4.5H23.69V22.34Z"/>
    <path class="cls-3"
          d="M30.51,22.34v1.33a2.83,2.83,0,0,1,2.66-1.47,3.06,3.06,0,0,1,2.26.91,3.51,3.51,0,0,1,.91,2.59v4.88H35V25.92A2.7,2.7,0,0,0,34.4,24a2.12,2.12,0,0,0-1.64-.64,2.14,2.14,0,0,0-1.65.64,2.68,2.68,0,0,0-.6,1.89v4.65H29.16V22.34Z"/>
    <path class="cls-3"
          d="M41.9,30.71A3.73,3.73,0,0,1,39,29.54a4.33,4.33,0,0,1-1.1-3.09,4.27,4.27,0,0,1,1.11-3.08,4.2,4.2,0,0,1,5.74-.06,3.86,3.86,0,0,1,1.08,2.81,5.13,5.13,0,0,1-.06.81H39.33a2.84,2.84,0,0,0,.76,1.94,2.43,2.43,0,0,0,1.8.71,2.5,2.5,0,0,0,1.4-.37,2.21,2.21,0,0,0,.84-1h1.46A3.77,3.77,0,0,1,44.27,30,3.84,3.84,0,0,1,41.9,30.71ZM43.72,24a2.64,2.64,0,0,0-3.59,0,2.81,2.81,0,0,0-.79,1.91h5.12A2.59,2.59,0,0,0,43.72,24Z"/>
    <path class="cls-3"
          d="M48.91,22.34v1.4a2.54,2.54,0,0,1,2.48-1.53v1.42H51a2.13,2.13,0,0,0-1.58.55,2.66,2.66,0,0,0-.54,1.9v4.5H47.56V22.34Z"/>
    <path class="cls-3"
          d="M52.72,24.66a2.19,2.19,0,0,1,.85-1.75,3.34,3.34,0,0,1,2.21-.71,3.06,3.06,0,0,1,2.13.7,2.69,2.69,0,0,1,.85,1.91h-1.4a1.58,1.58,0,0,0-.46-1.11,1.64,1.64,0,0,0-1.2-.42,1.82,1.82,0,0,0-1.2.37,1.18,1.18,0,0,0-.44.95,1,1,0,0,0,.5.89,3.54,3.54,0,0,0,1.2.46q.7.14,1.41.33a2.55,2.55,0,0,1,1.2.71,2,2,0,0,1,.5,1.47,2,2,0,0,1-.85,1.6,3.55,3.55,0,0,1-2.22.65A3.3,3.3,0,0,1,53.62,30a2.57,2.57,0,0,1-.9-1.91h1.4a1.51,1.51,0,0,0,.48,1.1,1.78,1.78,0,0,0,1.25.41,2,2,0,0,0,1.25-.34,1.06,1.06,0,0,0,.45-.88,1.07,1.07,0,0,0-.36-.85,2,2,0,0,0-.89-.44l-1.17-.29q-.63-.16-1.17-.35a1.89,1.89,0,0,1-.89-.65A1.86,1.86,0,0,1,52.72,24.66Z"/>
    <rect class="cls-4" x="35.11" y="38.52" width="15.52" height="15.52"/>
    <polygon class="cls-5" points="28.86 40.4 18.8 40.4 13.77 49.12 18.8 57.83 28.86 57.83 33.89 49.12 28.86 40.4"/>
    <polygon class="cls-4" points="5.13 41.12 12.27 37.15 19.41 33.18 19.29 41.35 19.16 49.52 12.14 45.32 5.13 41.12"/>
</svg>