<svg xmlns="http://www.w3.org/2000/svg" xmlns:xlink="http://www.w3.org/1999/xlink" viewBox="0 0 677.89 139.08"><defs><style>.cls-1{isolation:isolate;}.cls-2{fill:none;}.cls-3{fill:#00af00;}.cls-10,.cls-11,.cls-4,.cls-6,.cls-8,.cls-9{opacity:0.55;mix-blend-mode:screen;}.cls-4{fill:url(#radial-gradient);}.cls-5{fill:#0068ff;}.cls-6{fill:url(#radial-gradient-2);}.cls-7{fill:#d8ae00;}.cls-8{fill:url(#radial-gradient-3);}.cls-9{fill:url(#radial-gradient-4);}.cls-10{fill:url(#radial-gradient-5);}.cls-11{fill:url(#radial-gradient-6);}</style><radialGradient id="radial-gradient" cx="59.88" cy="25.95" r="20.45" gradientUnits="userSpaceOnUse"><stop offset="0" stop-color="#fff" stop-opacity="0.8"/><stop offset="0.2" stop-color="#fff" stop-opacity="0.6"/><stop offset="0.48" stop-color="#fff" stop-opacity="0.35"/><stop offset="0.72" stop-color="#fff" stop-opacity="0.16"/><stop offset="0.9" stop-color="#fff" stop-opacity="0.04"/><stop offset="1" stop-color="#fff" stop-opacity="0"/></radialGradient><radialGradient id="radial-gradient-2" cx="133.86" cy="25.39" r="20.45" xlink:href="#radial-gradient"/><radialGradient id="radial-gradient-3" cx="206.83" cy="25.39" r="20.45" xlink:href="#radial-gradient"/><radialGradient id="radial-gradient-4" cx="281.28" cy="25.95" r="20.45" xlink:href="#radial-gradient"/><radialGradient id="radial-gradient-5" cx="355.26" cy="25.39" r="20.45" xlink:href="#radial-gradient"/><radialGradient id="radial-gradient-6" cx="428.23" cy="25.39" r="20.45" xlink:href="#radial-gradient"/></defs><title>beads-pattern</title><g class="cls-1"><g id="Layer_1" data-name="Layer 1"><path class="cls-2" d="M156.6,31.13a30.36,30.36,0,0,0-60.44,0,30.77,30.77,0,0,0,0,6.83,30.36,30.36,0,0,0,60.44,0,30.77,30.77,0,0,0,0-6.83Z"/><path class="cls-2" d="M230.37,31.13a30.36,30.36,0,0,0-60.44,0,30.77,30.77,0,0,0,0,6.83,30.36,30.36,0,0,0,60.44,0,30.77,30.77,0,0,0,0-6.83Z"/><path class="cls-2" d="M82.82,31.13a30.36,30.36,0,0,0-60.44,0,30.77,30.77,0,0,0,0,6.83,30.36,30.36,0,0,0,60.44,0,30.77,30.77,0,0,0,0-6.83Z"/><path class="cls-2" d="M28.42,122.37c-.76.06-1.33,1.1-1.6,1.71a15.22,15.22,0,0,0-.61,1.59,39,39,0,0,0,3-3.13,2,2,0,0,0-.73-.16Z"/><path class="cls-2" d="M304.14,31.13a30.36,30.36,0,0,0-60.44,0,30.77,30.77,0,0,0,0,6.83,30.36,30.36,0,0,0,60.44,0,30.77,30.77,0,0,0,0-6.83Z"/><path class="cls-2" d="M674.1,31.13a30.36,30.36,0,0,0-60.44,0,30.77,30.77,0,0,0,0,6.83,30.36,30.36,0,0,0,60.44,0,30.76,30.76,0,0,0,0-6.83Z"/><path class="cls-2" d="M600.32,31.13a30.36,30.36,0,0,0-60.44,0,30.77,30.77,0,0,0,0,6.83,30.36,30.36,0,0,0,60.44,0,30.76,30.76,0,0,0,0-6.83Z"/><path class="cls-2" d="M377.92,31.13a30.36,30.36,0,0,0-60.44,0,30.77,30.77,0,0,0,0,6.83,30.36,30.36,0,0,0,60.44,0,30.77,30.77,0,0,0,0-6.83Z"/><path class="cls-2" d="M525.47,31.13a30.36,30.36,0,0,0-60.44,0A30.77,30.77,0,0,0,465,38a30.36,30.36,0,0,0,60.44,0,30.77,30.77,0,0,0,0-6.83Z"/><path class="cls-2" d="M451.69,31.13a30.36,30.36,0,0,0-60.44,0,30.77,30.77,0,0,0,0,6.83,30.36,30.36,0,0,0,60.44,0,30.77,30.77,0,0,0,0-6.83Z"/><path d="M677.72,31.13a34,34,0,0,0-67.69,0h-6.09a34,34,0,0,0-67.69,0h-7.17a34,34,0,0,0-67.69,0h-6.09a34,34,0,0,0-67.69,0h-6.09a34,34,0,0,0-67.69,0h-6.09a34,34,0,0,0-67.69,0H234a34,34,0,0,0-67.69,0h-6.09a34,34,0,0,0-67.69,0H86.45a34,34,0,0,0-67.69,0H14.53a10.61,10.61,0,0,0-5.59,1.41A16,16,0,0,0,.13,44.74c-1.2,9.39,5.68,21.14,20.45,34.92l.28.24c10.45,7.8,15.82,16,15.94,24.47A24.52,24.52,0,0,1,33.2,117a8.85,8.85,0,0,0-5.27-1.39c-1.81.14-5.16,1.06-7.2,5.7-.71,1.61-2.87,6.53,0,9.73a5.88,5.88,0,0,0,4.47,1.88l-3,4.57a10.38,10.38,0,0,0,5.43,1.58,9.34,9.34,0,0,0,2.25-.27c3-.74,5.5-2.89,7.41-6.37a11.34,11.34,0,0,0,.47-10.05,32.2,32.2,0,0,0,5.72-18.06C43.35,93.68,37.12,83.67,25,74.57,8.79,59.43,6.13,50.47,6.75,45.61a9.47,9.47,0,0,1,5.31-7.09A5.51,5.51,0,0,1,14.53,38h4.23a34,34,0,0,0,67.69,0h6.09a34,34,0,0,0,67.69,0h6.09A34,34,0,0,0,234,38h6.09a34,34,0,0,0,67.69,0h6.09a34,34,0,0,0,67.69,0h6.09a34,34,0,0,0,67.69,0h6.09a34,34,0,0,0,67.69,0h7.17a34,34,0,0,0,67.69,0H610a34,34,0,0,0,67.69,0c.11-1.12.17-2.26.17-3.42S677.83,32.25,677.72,31.13ZM26.21,125.66a15.22,15.22,0,0,1,.61-1.59c.27-.61.84-1.65,1.6-1.71h.09a2,2,0,0,1,.73.16A39,39,0,0,1,26.21,125.66ZM52.6,65.37A30.56,30.56,0,0,1,22.38,38a30.77,30.77,0,0,1,0-6.83,30.36,30.36,0,0,1,60.44,0,30.77,30.77,0,0,1,0,6.83A30.56,30.56,0,0,1,52.6,65.37Zm73.77,0A30.56,30.56,0,0,1,96.16,38a30.77,30.77,0,0,1,0-6.83,30.36,30.36,0,0,1,60.44,0,30.77,30.77,0,0,1,0,6.83A30.56,30.56,0,0,1,126.38,65.37Zm73.77,0A30.56,30.56,0,0,1,169.93,38a30.77,30.77,0,0,1,0-6.83,30.36,30.36,0,0,1,60.44,0,30.77,30.77,0,0,1,0,6.83A30.56,30.56,0,0,1,200.15,65.37Zm73.77,0A30.56,30.56,0,0,1,243.71,38a30.77,30.77,0,0,1,0-6.83,30.36,30.36,0,0,1,60.44,0,30.77,30.77,0,0,1,0,6.83A30.56,30.56,0,0,1,273.93,65.37Zm73.77,0A30.56,30.56,0,0,1,317.48,38a30.77,30.77,0,0,1,0-6.83,30.36,30.36,0,0,1,60.44,0,30.77,30.77,0,0,1,0,6.83A30.56,30.56,0,0,1,347.7,65.37Zm73.77,0A30.56,30.56,0,0,1,391.26,38a30.77,30.77,0,0,1,0-6.83,30.36,30.36,0,0,1,60.44,0,30.77,30.77,0,0,1,0,6.83A30.56,30.56,0,0,1,421.47,65.37Zm73.77,0A30.56,30.56,0,0,1,465,38a30.77,30.77,0,0,1,0-6.83,30.36,30.36,0,0,1,60.44,0,30.77,30.77,0,0,1,0,6.83A30.56,30.56,0,0,1,495.25,65.37Zm74.85,0A30.56,30.56,0,0,1,539.89,38a30.77,30.77,0,0,1,0-6.83,30.36,30.36,0,0,1,60.44,0,30.76,30.76,0,0,1,0,6.83A30.56,30.56,0,0,1,570.1,65.37Zm73.77,0A30.56,30.56,0,0,1,613.66,38a30.77,30.77,0,0,1,0-6.83,30.36,30.36,0,0,1,60.44,0,30.76,30.76,0,0,1,0,6.83A30.56,30.56,0,0,1,643.88,65.37Z"/><ellipse class="cls-3" cx="52.6" cy="34.55" rx="34.37" ry="34.55"/><circle class="cls-4" cx="59.88" cy="25.95" r="20.45"/><ellipse class="cls-5" cx="126.37" cy="34.55" rx="34.37" ry="34.55"/><circle class="cls-6" cx="133.86" cy="25.39" r="20.45"/><ellipse class="cls-7" cx="200.14" cy="34.55" rx="34.37" ry="34.55"/><circle class="cls-8" cx="206.83" cy="25.39" r="20.45"/><ellipse class="cls-3" cx="273.99" cy="34.55" rx="34.37" ry="34.55"/><circle class="cls-9" cx="281.28" cy="25.95" r="20.45"/><ellipse class="cls-5" cx="347.76" cy="34.55" rx="34.37" ry="34.55"/><circle class="cls-10" cx="355.26" cy="25.39" r="20.45"/><ellipse class="cls-7" cx="421.53" cy="34.55" rx="34.37" ry="34.55"/><circle class="cls-11" cx="428.23" cy="25.39" r="20.45"/></g></g></svg>