<svg id="Layer_7" data-name="Layer 7" xmlns="http://www.w3.org/2000/svg" viewBox="0 0 678.51 137.86">
    <defs>
        <style>.cls-1{fill:none;stroke:#000;stroke-miterlimit:10;stroke-width:4px;}</style>
    </defs>
    <title>circle-holder</title>
    <circle class="cls-1" cx="419.2" cy="34" r="32"/>
    <circle class="cls-1" cx="345.7" cy="34" r="32"/>
    <circle class="cls-1" cx="272.2" cy="34" r="32"/>
    <circle class="cls-1" cx="198.86" cy="34" r="32"/>
    <circle class="cls-1" cx="125.51" cy="34" r="32"/>
    <circle class="cls-1" cx="52.17" cy="34" r="32"/>
    <path d="M27.46,138.34a10.32,10.32,0,0,1-5.4-1.57l3-4.54a5.84,5.84,0,0,1-4.44-1.87c-2.83-3.18-.68-8.07,0-9.67,2-4.61,5.35-5.53,7.16-5.66A8.79,8.79,0,0,1,33,116.4a24.38,24.38,0,0,0,3.6-12.57c-.13-8.39-5.46-16.58-15.85-24.33l-.28-.23C5.78,65.56-1.06,53.88.13,44.54A16,16,0,0,1,8.89,32.41,10.55,10.55,0,0,1,14.44,31V37.8a5.47,5.47,0,0,0-2.46.55,9.41,9.41,0,0,0-5.27,7c-.62,4.78,2,13.78,18.12,28.78,12.08,9.05,18.27,19,18.4,29.59a32,32,0,0,1-5.69,18,11.28,11.28,0,0,1-.47,10c-1.9,3.46-4.38,5.59-7.37,6.33A9.29,9.29,0,0,1,27.46,138.34Zm.88-16.62h-.09c-.76.06-1.32,1.09-1.59,1.7a15.14,15.14,0,0,0-.6,1.58,38.8,38.8,0,0,0,3-3.12A2,2,0,0,0,28.34,121.72Z"
          transform="translate(0 -0.48)"/>
    <path d="M18.65,31H14.44V37.8h4.21c-.11-1.12-.17-2.25-.17-3.4S18.54,32.13,18.65,31Z"
          transform="translate(0 -0.48)"/>
    <path d="M92.51,31H85a27.27,27.27,0,0,1,0,6.8h7.51A27.27,27.27,0,0,1,92.51,31Z" transform="translate(0 -0.48)"/>
    <path d="M166.51,31H159a27.27,27.27,0,0,1,0,6.8h7.51A27.27,27.27,0,0,1,166.51,31Z" transform="translate(0 -0.48)"/>
    <path d="M239.51,31H232a27.27,27.27,0,0,1,0,6.8h7.51A27.27,27.27,0,0,1,239.51,31Z" transform="translate(0 -0.48)"/>
    <path d="M312.51,31H305a27.27,27.27,0,0,1,0,6.8h7.51A27.27,27.27,0,0,1,312.51,31Z" transform="translate(0 -0.48)"/>
    <path d="M386.51,31H379a27.27,27.27,0,0,1,0,6.8h7.51A27.27,27.27,0,0,1,386.51,31Z" transform="translate(0 -0.48)"/>
    <path d="M678.51,31H671a27.27,27.27,0,0,1,0,6.8h7.51A27.27,27.27,0,0,1,678.51,31Z" transform="translate(0 -0.48)"/>
    <circle class="cls-1" cx="640.2" cy="34" r="32"/>
    <circle class="cls-1" cx="566.6" cy="34" r="32"/>
    <circle class="cls-1" cx="492.9" cy="34" r="32"/>
    <path d="M459.38,31H451a24.48,24.48,0,0,1,0,6.8h8.38A24.48,24.48,0,0,1,459.38,31Z" transform="translate(0 -0.48)"/>
    <path d="M533.25,31H524a22.19,22.19,0,0,1,0,6.8h9.25A22.19,22.19,0,0,1,533.25,31Z" transform="translate(0 -0.48)"/>
    <path d="M607.25,31H598a22.19,22.19,0,0,1,0,6.8h9.25A22.19,22.19,0,0,1,607.25,31Z" transform="translate(0 -0.48)"/>
</svg>