<svg id="Layer_1" data-name="Layer 1" xmlns="http://www.w3.org/2000/svg" viewBox="0 0 64.74 64.74"><defs><style>.cls-1{fill:#fff;}.cls-2{opacity:0.2;}</style></defs><title>football</title><circle class="cls-1" cx="32.37" cy="32.37" r="31.53"/><path d="M32.37,64.74A32.37,32.37,0,1,1,64.74,32.37,32.41,32.41,0,0,1,32.37,64.74Zm0-63.06A30.69,30.69,0,1,0,63.06,32.37,30.72,30.72,0,0,0,32.37,1.68Z"/><path d="M32.37.68A31.69,31.69,0,1,0,64.06,32.37,31.69,31.69,0,0,0,32.37.68ZM61.19,23a34.32,34.32,0,0,0-3.9,3.23l-8.91-7.51a.48.48,0,0,0,0-.13,34.7,34.7,0,0,0-3.27-9l2.51-3.33L47.29,6A30.45,30.45,0,0,1,61.19,23ZM55.85,39l-8.93,3.53a39.74,39.74,0,0,0-7.78-7l.69-11.74a22.47,22.47,0,0,0,8-4.21L56.72,27A59.29,59.29,0,0,0,55.85,39Zm-26,13-9,5.68-8.3-7.32L10.13,39a27.06,27.06,0,0,0,7.47-4l10.13,6.82C27.57,44.14,29.17,50.28,29.87,52ZM13.59,10.89l9.64-5.57,8,3c-.77,1.86-2.84,7.06-2.43,8.56a1.22,1.22,0,0,0,.1.23L18.11,22.81a19.91,19.91,0,0,0-7.16-2.91Zm14.48,30-9.95-6.7c.5-1.86,1-8.69.53-10.6l10.79-5.76c1.92,2.06,7.2,5.39,9.41,5.88l-.68,11.49C36.11,35.5,29.44,39.38,28.08,40.91ZM46.81,5.73,44.37,9c-1.88-.63-10.3-2-12.53-1.48L23.57,4.42v-1A30.28,30.28,0,0,1,46.81,5.73ZM11.36,10.56l1.22.38-2.8,9.52c-1.88,1.78-4.83,7.36-5.44,9.18L2.16,30A30.22,30.22,0,0,1,11.36,10.56ZM2.1,31l2.19-.36c.48,2.09,3.59,6.83,4.81,8.1L11.5,50l-3.23.73A30.15,30.15,0,0,1,2.06,32.37C2.06,31.91,2.08,31.45,2.1,31ZM21.22,60.54V58.63l9.33-5.88c2,.92,8.49,1.47,10.53,1.51l2.76,6.16a30.21,30.21,0,0,1-22.61.12Zm23.5-.5L42,54c1.63-1.5,5-8.57,5.23-10.55l9-3.55a47.41,47.41,0,0,0,4.24,3.9A30.47,30.47,0,0,1,44.72,60Z"/><polygon class="cls-1" points="10.5 20.6 4.93 29.95 9.55 38.24 5.98 30.05 10.5 20.6"/><path class="cls-2" d="M55.71,9.85A32.36,32.36,0,0,1,4.51,48.06Q4,47.53,3.45,47A32.59,32.59,0,0,0,55.8,54.68,32.45,32.45,0,0,0,55.71,9.85Z"/></svg>