<svg id="Layer_1" data-name="Layer 1" xmlns="http://www.w3.org/2000/svg" viewBox="0 0 246.64 246.3"><defs><style>.cls-1{fill:#ffce4c;}.cls-2{fill:#ffb72e;}.cls-3{fill:#ffae22;}.cls-4{fill:#ff9b14;}</style></defs><title>sphere-ball</title><path class="cls-1" d="M1.19,123.15a122.3,122.3,0,1,1,122.3,122.3A122.3,122.3,0,0,1,1.19,123.15Z"/><path d="M1.19,123.15H2A121.45,121.45,0,1,1,37.61,209,121.07,121.07,0,0,1,2,123.15H.34A123.15,123.15,0,1,0,123.49,0,123.15,123.15,0,0,0,.34,123.15Z"/><path class="cls-2" d="M40.67,54.44c-6.27,0-25.79,16-32.89,31.68a121.35,121.35,0,0,0-5.75,37H2c0,.47,0,.94,0,1.4a48.05,48.05,0,0,0,7.13,8.33,6,6,0,0,1,.8-.75,4.66,4.66,0,0,1,2.86-1,3.26,3.26,0,0,1,.69.07.76.76,0,0,1-.19,1.51l-.16,0a1.85,1.85,0,0,0-.35,0,3.16,3.16,0,0,0-2,.73,4.39,4.39,0,0,0-.57.55c9.22,8.26,26.25,18.25,54.66,18.25,3.31,0,6.77-.14,10.4-.43.57-28.88,8.49-64.55,11.89-73,1.7-4-3.4-6.8-10.19-7.93S46.49,58,42,54.78a2.16,2.16,0,0,0-1.28-.35Z"/><path d="M2,123.15H1.19s.27.51.86,1.4c0-.47,0-.93,0-1.4Zm5.75-37A34.36,34.36,0,0,0,6.28,90c-4.53,15.29-5.66,29.44-5.1,33.12H2a121.35,121.35,0,0,1,5.75-37Z"/><path d="M172.33,71.68a.77.77,0,0,1-.7-.45C142.05,5.41,96.35,4.59,95.89,4.59a.76.76,0,0,1,0-1.53c.47,0,47.13.77,77.14,67.55a.77.77,0,0,1-.38,1Z"/><path d="M213.94,78.48a.76.76,0,0,1-.74-.58C201.94,33.69,166.32,9.79,166,9.56a.76.76,0,1,1,.84-1.28c.36.24,36.47,24.46,47.88,69.24a.76.76,0,0,1-.55.93l-.19,0Z"/><path d="M216.53,189.09c-21.1,0-36.92-15.53-37.1-15.72a.77.77,0,0,1-.19-.76c13.77-45.92-7-100-7.2-100.57a.76.76,0,0,1,.89-1c.47.11,47,11.3,62.32,3.46a.76.76,0,0,1,.7,1.36c-14.45,7.42-53.92-1.14-62-3,3.11,8.68,19.33,57.51,6.88,99.77,2.76,2.57,22.65,20,46.49,13.51a.76.76,0,0,1,.4,1.47,42.24,42.24,0,0,1-11.2,1.51Z"/><path d="M217.5,113.91c-17,0-33.66-4.58-34.76-4.89a.76.76,0,0,1,.41-1.47c.42.12,42.33,11.63,60.93-1.59a.76.76,0,0,1,.89,1.25c-7.15,5.08-17.37,6.7-27.46,6.7Z"/><path d="M224.77,155.35c-19.68,0-40.16-8.92-41.29-9.42a.76.76,0,1,1,.62-1.4c.36.16,36.47,15.88,58.4,5.95a.76.76,0,1,1,.63,1.39,44.61,44.61,0,0,1-18.36,3.47Z"/><path d="M32.61,205.87a.77.77,0,0,1-.68-.41c-11-21.25-2.55-55.16-2.19-56.6a.76.76,0,0,1,1.48.38c-.09.34-8.72,34.79,2.06,55.51a.77.77,0,0,1-.33,1l-.35.09Z"/><path d="M76.35,236.45a.76.76,0,0,1-.56-.24c-20.73-21.93-4.67-71.75-1.82-80q-3.24.15-6.31.14C17.17,156.39.27,128.08.1,127.78A.76.76,0,0,1,1.43,127c.18.31,18.29,30.56,73.61,27.65a.75.75,0,0,1,.65.31.76.76,0,0,1,.1.72c-.21.56-20.39,56.73,1.11,79.47a.76.76,0,0,1-.56,1.29Z"/><path d="M157.89,240.7a.76.76,0,0,1-.44-1.39c26.11-18,22.56-59.3,21.86-65.56-76.24,14.81-104.54-17.5-104.82-17.83a.76.76,0,0,1,1.17-1c.27.32,28.28,32.16,104.16,17.15a.77.77,0,0,1,.59.13.76.76,0,0,1,.31.52c.07.48,6.53,47.84-22.4,67.83l-.43.14Z"/><path d="M144.8,210.24c-50.46,0-78-25.08-78.31-25.38a.76.76,0,1,1,1-1.12c.39.36,39.65,36.07,110.58,21.47a.76.76,0,0,1,.31,1.5,166.54,166.54,0,0,1-33.62,3.54Z"/><path d="M134.46,240.29c-41,0-66.35-19.9-66.65-20.15a.76.76,0,0,1,1-1.19c.36.29,36.92,28.93,93.21,16.84a.76.76,0,1,1,.32,1.49,132.3,132.3,0,0,1-27.83,3Z"/><path d="M125.73,78C69.8,78,39,53.56,38.64,53.25a.76.76,0,0,1,1-1.19c.47.38,48.16,38.18,133,19a.76.76,0,1,1,.34,1.49A213.29,213.29,0,0,1,125.73,78Z"/><path d="M85.27,73.38l-.2,0a.76.76,0,0,1-.54-.93c.11-.41,11.27-40.49,63.62-40.49H149a.76.76,0,0,1,0,1.53h-.82c-51.15,0-62,39-62.14,39.35A.76.76,0,0,1,85.27,73.38Z"/><path d="M46.2,58.09,45.84,58a.76.76,0,0,1-.31-1c.25-.47,25.8-47.12,72-48h0a.76.76,0,0,1,0,1.53c-45.32.83-70.43,46.7-70.68,47.16A.76.76,0,0,1,46.2,58.09Z"/><path d="M76.06,156.9a.76.76,0,0,1-.76-.66c-3.4-25.46,11.82-80.94,13.62-83.11a.76.76,0,0,1,1.18,1C88.53,76.37,73.43,130.61,76.82,156a.77.77,0,0,1-.66.86Z"/><path d="M111,175a.76.76,0,0,1-.73-.55c-5.51-19.06,6.68-94.38,7.2-97.58a.76.76,0,1,1,1.51.25c-.13.78-12.65,78.18-7.24,96.91a.76.76,0,0,1-.52.95l-.21,0Z"/><path d="M147.7,176.57h-.14a.76.76,0,0,1-.62-.89c8-44,1.34-98.59,1.27-99.14a.76.76,0,0,1,.67-.85.78.78,0,0,1,.85.67c.07.55,6.72,55.41-1.28,99.6a.77.77,0,0,1-.75.63Z"/><path d="M78.25,101.06c-42.93,0-67-24.08-67.25-24.35a.76.76,0,0,1,1.09-1.07c.27.28,25.48,25.5,70,23.82a.8.8,0,0,1,.79.74.76.76,0,0,1-.74.79C80.86,101,79.54,101.06,78.25,101.06Z"/><path d="M63.61,131.67c-44.91,0-61.2-26.1-61.37-26.39a.76.76,0,0,1,1.31-.79c.18.31,19.13,30.51,72.87,25a.76.76,0,1,1,.16,1.52A126.51,126.51,0,0,1,63.61,131.67Z"/><path class="cls-2" d="M103.78,172.35c-8.74,8.79-21.39,12.49-34.4,12.93,6.89,5.44,32.88,23.43,75.41,23.43a160.83,160.83,0,0,0,24.51-1.92q4.64-1.73,9-3.81a107.57,107.57,0,0,0,1.13-28.27,2.41,2.41,0,0,0-1.14-.77,197,197,0,0,1-36.71,3.69,134.19,134.19,0,0,1-29.8-3.14.77.77,0,0,1-.52.5l-.21,0a.76.76,0,0,1-.73-.55l-.1-.34q-3.39-.82-6.42-1.77ZM75.52,158.18a1,1,0,0,0-.63.2,180.39,180.39,0,0,0-6.17,25.39c12.59-.33,24.85-3.74,33.41-12a83.4,83.4,0,0,1-17.69-8.09,46,46,0,0,1-5.12-3.49c-2-1.58-3.12-2.06-3.81-2.06Z"/><path d="M102.13,171.82c-8.56,8.22-20.82,11.62-33.41,12l-.14.87.8.64c13-.45,25.66-4.14,34.4-12.93l-1.65-.53Z"/><path class="cls-2" d="M68.31,186.39A119.18,119.18,0,0,0,67,202c15,5.92,33.21,10.19,55.34,11.44,2.72.18,5.4.27,8,.27a111.37,111.37,0,0,0,31.27-4.39,159,159,0,0,1-16.85.91c-43.18,0-69.57-18.37-76.49-23.86Z"/><path d="M67.74,185.93a125.49,125.49,0,0,0-1.08,16L67,202a119.18,119.18,0,0,1,1.3-15.64l-.57-.46Zm7.15-27.55a1,1,0,0,0-.28.36c-.14.28-.16.56-.24.56s-.08-.05-.14-.19a125.32,125.32,0,0,0-6.24,25l.59.5.14-.87a180.39,180.39,0,0,1,6.17-25.39Z"/><path d="M179.41,174.71A107.57,107.57,0,0,1,178.28,203l.26-.12a106.2,106.2,0,0,0,1-27.9.79.79,0,0,0-.13-.25Zm-4.14-1.2a24.38,24.38,0,0,0-3.65.32,205.91,205.91,0,0,1-23.38,2.52.76.76,0,0,1-.54.23h-.14a.76.76,0,0,1-.36-.17q-3.73.16-7.25.15a138.6,138.6,0,0,1-28.25-2.73l.06.23a.76.76,0,0,1,0,.45,134.19,134.19,0,0,0,29.8,3.14,197,197,0,0,0,36.71-3.69,8.51,8.51,0,0,0-3-.43Zm-90.82-9.78a83.4,83.4,0,0,0,17.69,8.09l1.65.53q3,.94,6.42,1.77-.09-.32-.17-.67a86.87,86.87,0,0,1-25.59-9.72Z"/><path d="M68,184.14q-.13.89-.25,1.78l.57.46c6.92,5.49,33.3,23.86,76.49,23.86a159,159,0,0,0,16.85-.91q3.92-1.14,7.65-2.54a160.83,160.83,0,0,1-24.51,1.92c-42.53,0-68.53-18-75.41-23.43l-.8-.64-.59-.5Z"/><path class="cls-2" d="M156.43,239.66A156,156,0,0,1,126,244,143.34,143.34,0,0,0,143,243a120.82,120.82,0,0,0,11.89-2.54q.77-.4,1.51-.84Zm-78.1-4.2a51,51,0,0,0,9.67,3.8c-3.22-1.11-6.45-2.38-9.67-3.8Z"/><path d="M154.92,240.5A120.82,120.82,0,0,1,143,243a94,94,0,0,0,10.47-1.83q.72-.34,1.42-.71Z"/><path d="M110,173.45q.08.34.17.67l.1.34a.76.76,0,0,0,.73.55l.21,0a.76.76,0,0,0,.52-.95l-.06-.23-1.67-.36Z"/><path d="M148.24,176.34l-1,0a.76.76,0,0,0,.36.17h.14a.76.76,0,0,0,.54-.23Z"/><path class="cls-2" d="M193,182.91a29.31,29.31,0,0,0,7,3.1,59.19,59.19,0,0,1-7-3.1Zm48.33-30.28-.3.11a144.56,144.56,0,0,1-10,26.88,120.61,120.61,0,0,0,10.3-27Zm-56.13-6a118,118,0,0,1-4,24.48,12.37,12.37,0,0,0,2.26,3.76,60.9,60.9,0,0,0,21,11,149.51,149.51,0,0,0,27.33-30.95,56.73,56.73,0,0,1-7.07.42c-16.74,0-34.07-6.46-39.56-8.69Zm58.26-4.56c-.52,2.69-1.16,5.65-2,8.8l.27-.11q1-4.29,1.69-8.69Zm.52-34.24c-7.08,4.57-16.84,6-26.49,6-16,0-31.75-4.07-34.42-4.79A175,175,0,0,1,185.3,145C190,147,208,153.77,225,153.77a53.67,53.67,0,0,0,8-.57,118.11,118.11,0,0,0,11.74-22.6q.22-3.7.22-7.45a122.75,122.75,0,0,0-1-15.28ZM214.57,77.09l0,.11,1.92.05-1.95-.16ZM202,76.18c3.66.43,7.39.77,11,1l0-.17c-2.66-.21-5.19-.4-7.37-.53-1.12-.07-2.33-.16-3.6-.26ZM175.12,73.1a1.11,1.11,0,0,0-.67,1.13c.3.88.67,2,1.07,3.22l.06.12.23.79a219.53,219.53,0,0,1,7,29.17h.12l.21,0c.27.07,17.32,4.76,34.48,4.76,9.67,0,19.38-1.49,26.14-6.13a120.59,120.59,0,0,0-7.21-27.48c-1.83,0-5-.22-8.67-.51a66.1,66.1,0,0,1-9.66.63c-16.15,0-36.06-4.13-43.1-5.72Z"/><path d="M242.56,152.13l-1.21.49a120.61,120.61,0,0,1-10.3,27c-.27.54-.54,1.08-.82,1.63a22.78,22.78,0,0,0,3.11-5.16c2.57-5.79,6.45-13.61,9.22-24Zm1.87-44.55-.43.28a122.75,122.75,0,0,1,1,15.28q0,3.75-.22,7.45a27.43,27.43,0,0,0,.89-2.91c.08-.67.14-1.16.18-1.43a5.05,5.05,0,0,1-.18,1.43c-.28,2.5-.83,7.63-2.14,14.41q-.69,4.4-1.69,8.69l.72-.32a.77.77,0,0,1,.31-.07l.18,0c2.8-11.24,4.22-25.32,1.43-42.85ZM236.55,78.7a120.59,120.59,0,0,1,7.21,27.48l.31-.22.07,0a157.22,157.22,0,0,0-7.42-27.22Z"/><path d="M213,77l0,.17,1.6.07,0-.11L213,77Z"/><path d="M183.52,174.9a37.78,37.78,0,0,0,9.49,8,59.19,59.19,0,0,0,7,3.1q.55.16,1.1.28l2.36.51,1.09-.92a60.9,60.9,0,0,1-21-11ZM185,146.57a88.25,88.25,0,0,1-3.75,22.73,2.48,2.48,0,0,0,0,1.84,118,118,0,0,0,4-24.48l-.22-.09Zm-2.55-37.7a193.86,193.86,0,0,1,2.62,36.07l.25.1a175,175,0,0,0-2.23-35.92l-.34-.09a.76.76,0,0,1-.3-.16Zm-6.63-30.5a271.31,271.31,0,0,1,6.47,29.53.76.76,0,0,1,.53-.36,219.53,219.53,0,0,0-7-29.17Zm-1.36-4.13a8.42,8.42,0,0,0,1.07,3.22c-.4-1.26-.77-2.34-1.07-3.22ZM175.92,73a2.09,2.09,0,0,0-.8.13c7,1.58,26.95,5.72,43.1,5.72a66.1,66.1,0,0,0,9.66-.63c-3.48-.27-7.47-.62-11.36-.94l-1.92-.05-1.6-.07c-3.62-.18-7.35-.52-11-1-9.56-.81-22.28-2.64-25.28-3.14a4.87,4.87,0,0,0-.79-.07Z"/><path d="M244.15,105.92l-.07,0-.31.22c-6.76,4.64-16.46,6.13-26.14,6.13-17.16,0-34.21-4.69-34.48-4.76l-.21,0h-.12a.76.76,0,0,0-.53.36l.16,1a.76.76,0,0,0,.3.16l.34.09c2.67.72,18.39,4.79,34.42,4.79,9.65,0,19.41-1.47,26.49-6l.43-.28c-.09-.55-.18-1.1-.28-1.66Z"/><path d="M242.82,150.41a.77.77,0,0,0-.31.07l-.72.32-.27.11q-.23.9-.47,1.83l.3-.11,1.21-.49c.15-.56.3-1.12.44-1.7l-.18,0Zm-57.76-5.48c0,.55,0,1.09-.07,1.63l.22.09c5.49,2.23,22.81,8.69,39.56,8.69a56.73,56.73,0,0,0,7.07-.42L233,153.2a53.67,53.67,0,0,1-8,.57c-17,0-34.93-6.81-39.67-8.73l-.25-.1Z"/><path class="cls-3" d="M4,145.15a120.69,120.69,0,0,0,16.89,43.06A129.57,129.57,0,0,0,29.25,199c-2.33-7.22-3-15.24-3-22.71A101.59,101.59,0,0,1,4,145.15Z"/><path d="M1.76,139.29c2.18,17.95,9.17,34.5,19.16,48.92A120.69,120.69,0,0,1,4,145.15a50.55,50.55,0,0,1-2.27-5.87Z"/><path class="cls-3" d="M75.8,233.91l.57.66,2,.89a25.86,25.86,0,0,1-2.53-1.55ZM27.88,177.76c0,8.23,1,17,4.18,24.37A141.74,141.74,0,0,0,73.19,233c-6.13-8.52-8-20.08-7.82-31.69a123.2,123.2,0,0,1-37.5-23.6Z"/><path d="M26.29,176.26c-.09,7.47.62,15.49,3,22.71q1.38,1.6,2.81,3.16c-3.13-7.39-4.16-16.14-4.18-24.37l-1.59-1.5Z"/><path d="M65.37,201.36c-.2,11.61,1.69,23.16,7.82,31.69q1.58.78,3.18,1.52l-.57-.66a15.69,15.69,0,0,1-2.7-2.33,29.85,29.85,0,0,1-4.54-10.87c-.47-.34-.72-.54-.75-.56a.76.76,0,0,1,.33-1.35,86.56,86.56,0,0,1-1.48-16.92l-1.28-.52Z"/><path class="cls-3" d="M203.1,187.05A121.48,121.48,0,0,1,180,202.17c-2.15,12.69-7.27,26.76-18.73,36.19q3.53-1,6.86-2.21A121.94,121.94,0,0,0,226.22,188a42.24,42.24,0,0,1-9.68,1.12h0a46.63,46.63,0,0,1-13.43-2Zm27-5.61a17.72,17.72,0,0,1-9.64,5.94,40.7,40.7,0,0,0,6.9-1.27h0q1.39-2.3,2.69-4.66Z"/><path d="M226.58,187.89l-.36.09a121.94,121.94,0,0,1-58.12,48.18,108.36,108.36,0,0,0,58.48-48.26Zm3.65-6.64-.16.19q-1.29,2.36-2.69,4.66l.15,0h.09q1.37-2.42,2.61-4.84Z"/><path d="M227.53,186.08l-.15,0h0a40.7,40.7,0,0,1-6.9,1.27,26.37,26.37,0,0,1-6.29.7,53.61,53.61,0,0,1-10.72-1.29l-.32.26a46.63,46.63,0,0,0,13.43,2h0a42.24,42.24,0,0,0,9.68-1.12l.36-.09c.35-.6.7-1.2,1-1.8Z"/><path class="cls-3" d="M159.4,237.87l-.26,0q-1.3.92-2.71,1.74l.87-.22a.76.76,0,0,1,.15-.14q1-.69,1.95-1.43Z"/><path d="M180,202.17l-1.42.7q-.21,1.17-.45,2.35h0l.16,0a.77.77,0,0,1,.15,1.51l-.68.14c-2.36,10.51-7,21.42-15.87,29l.1,0,.16,0a.76.76,0,0,1,.16,1.51q-1.46.31-2.89.59-.95.74-1.95,1.43a.76.76,0,0,0-.15.14q2-.51,3.93-1.08c11.46-9.44,16.58-23.5,18.73-36.19Z"/><path d="M178.27,205.19l-.16,0h0q-.17.81-.35,1.63l.68-.14a.77.77,0,0,0-.15-1.51Z"/><path class="cls-3" d="M88,239.26l1.92.64a121.05,121.05,0,0,0,23.76,4.31l3,0q4.75,0,9.26-.22h-.06c-13.55,0-27.47-1.68-37.92-4.76Z"/><path d="M89.92,239.9A102.71,102.71,0,0,0,107.64,244c2.05.09,4.05.15,6,.18a121.05,121.05,0,0,1-23.76-4.31Z"/><path d="M162.14,235.77l-.16,0-.1,0c-.87.74-1.78,1.44-2.73,2.11l.26,0q1.44-.28,2.89-.59a.76.76,0,0,0-.16-1.51Zm-94-17a.76.76,0,0,0-.33,1.35s.28.22.75.56q-.22-.93-.42-1.91Z"/><path class="cls-4" d="M178.28,203q-4.35,2.08-9,3.81,4.19-.64,8.53-1.53c.16-.76.31-1.53.45-2.28ZM67,202a69.73,69.73,0,0,0,1.66,16.87l.09.06c.3.24,25.29,19.81,65.68,19.81a130.75,130.75,0,0,0,27.39-2.95c8.63-7.85,13.24-18.56,15.63-28.91-5.46,1.09-10.74,1.89-15.83,2.44a111.37,111.37,0,0,1-31.27,4.39c-2.62,0-5.3-.09-8-.27C100.22,212.22,82,207.94,67,202Z"/><path d="M66.66,201.88a86.56,86.56,0,0,0,1.48,16.92h.15a.76.76,0,0,1,.39.11A69.73,69.73,0,0,1,67,202l-.36-.14Z"/><path d="M177.74,206.85l-.27.05c-2.39,10.35-7,21.06-15.63,28.91h0c8.88-7.54,13.51-18.45,15.87-29Zm.79-4-.26.12c-.14.76-.29,1.52-.45,2.28l.26-.05q.24-1.18.45-2.35Z"/><path d="M178.09,205.21l-.26.05q-4.35.89-8.53,1.53-3.73,1.39-7.65,2.54c5.09-.54,10.36-1.34,15.83-2.44l.27-.05q.18-.82.35-1.63Z"/><path class="cls-4" d="M69.29,221.23a34.62,34.62,0,0,0,6.51,12.68,25.86,25.86,0,0,0,2.53,1.55c3.21,1.42,6.44,2.69,9.67,3.8,10.44,3.07,24.37,4.76,37.92,4.76H126a156,156,0,0,0,30.46-4.35q1.41-.82,2.71-1.74a131.46,131.46,0,0,1-24.68,2.37c-35.42,0-59.17-14.87-65.17-19.06Z"/><path d="M68.56,220.71a29.85,29.85,0,0,0,4.54,10.87,15.69,15.69,0,0,0,2.7,2.33,34.62,34.62,0,0,1-6.51-12.68l-.74-.53Z"/><path d="M68.29,218.78h-.15q.2,1,.42,1.91l.74.53c6,4.19,29.75,19.06,65.17,19.06a131.46,131.46,0,0,0,24.68-2.37c1-.67,1.86-1.38,2.73-2.11h0a130.75,130.75,0,0,1-27.39,2.95c-40.39,0-65.38-19.57-65.68-19.81l-.09-.06a.76.76,0,0,0-.39-.11Z"/><path d="M245.79,126.26c0,.27-.11.75-.18,1.43a5.05,5.05,0,0,0,.18-1.43Z"/><path class="cls-4" d="M241,152.74a41,41,0,0,1-9.2,2.19,149.51,149.51,0,0,1-27.33,30.95,44.75,44.75,0,0,0,12,1.69q1.92,0,3.9-.19a17.72,17.72,0,0,0,9.64-5.94c.33-.61.66-1.21,1-1.82a144.56,144.56,0,0,0,10-26.88Zm3.68-22.14A118.11,118.11,0,0,1,233,153.2a37,37,0,0,0,8.54-2.29c.8-3.15,1.44-6.11,2-8.8q.89-5.67,1.25-11.51Z"/><path d="M231,179.62c-.32.61-.65,1.22-1,1.82l.16-.19c.28-.55.55-1.08.82-1.63Zm14.56-51.93a27.43,27.43,0,0,1-.89,2.91q-.35,5.83-1.25,11.51c1.31-6.78,1.85-11.91,2.14-14.41Z"/><path d="M204.51,185.87l-1.09.92a53.61,53.61,0,0,0,10.72,1.29,26.37,26.37,0,0,0,6.29-.7q-2,.19-3.9.19a44.75,44.75,0,0,1-12-1.69Z"/><path d="M241.51,150.91A37,37,0,0,1,233,153.2l-1.13,1.72a41,41,0,0,0,9.2-2.19q.25-.92.47-1.83Z"/></svg>