<svg id="Layer_1" data-name="Layer 1" xmlns="http://www.w3.org/2000/svg" xmlns:xlink="http://www.w3.org/1999/xlink" viewBox="0 0 90.45 54.94"><defs><style>.cls-1{fill:url(#radial-gradient);}.cls-2{fill:url(#linear-gradient);}.cls-3{fill:url(#linear-gradient-2);}.cls-4{fill:#78866c;}.cls-10,.cls-11,.cls-12,.cls-13,.cls-14,.cls-15,.cls-16,.cls-17,.cls-18,.cls-19,.cls-20,.cls-4,.cls-6,.cls-7,.cls-8,.cls-9{fill-rule:evenodd;}.cls-10,.cls-5{fill:#303c36;}.cls-6{fill:#84a18f;}.cls-7{fill:#9dad90;}.cls-8{fill:#192121;}.cls-9{fill:#333633;}.cls-11{fill:#384240;}.cls-12{fill:#242424;}.cls-13{fill:#4b5c5a;}.cls-14{fill:#fff;}.cls-15{fill:#3e4b4a;}.cls-16{fill:#151515;}.cls-18{fill:#f9fae8;}.cls-19{fill:#0e1f26;}.cls-20{fill:#c9e8e7;}</style><radialGradient id="radial-gradient" cx="-21.18" cy="-609.36" r="41.37" gradientTransform="matrix(0, 1.03, 1.03, 0, 683.48, 57.87)" gradientUnits="userSpaceOnUse"><stop offset="0" stop-color="#afce22"/><stop offset="1" stop-color="#81bf2e"/></radialGradient><linearGradient id="linear-gradient" x1="-49.44" y1="-589.64" x2="-29.05" y2="-587.15" gradientTransform="matrix(0, 1, 1, 0, 633.58, 47.36)" gradientUnits="userSpaceOnUse"><stop offset="0" stop-color="#81bf2e"/><stop offset="0.36" stop-color="#98c728"/><stop offset="0.72" stop-color="#a9cc24"/><stop offset="1" stop-color="#afce22"/></linearGradient><linearGradient id="linear-gradient-2" x1="-20.63" y1="-634.71" x2="-19.17" y2="-616.14" xlink:href="#linear-gradient"/></defs><title>tadpol-rectangular-prism</title><rect class="cls-1" x="16.62" y="16.98" width="73.83" height="37.96"/><polygon class="cls-2" points="73.83 0 90.45 16.98 16.62 16.98 0 0 73.83 0"/><polygon class="cls-3" points="0 0 16.62 16.98 16.62 54.94 0 37.96 0 0"/><path class="cls-4" d="M49.52,42.31c4.47.85,12.22,0,17.6-2.72,4-2,10.53-2.83,10.67-3.54.47-2.4-6.77-4.62-12.47-4.3-2.71.15-10-2-15.32-2.52s-13.46,2.34-13.74,2.33c-3.48,6.31,3.29,8.84,13.26,10.75"/><path class="cls-5" d="M58.41,42.35a27.82,27.82,0,0,1-8.91.1c-1.68-.32-3.26-.66-4.72-1-3.42-.87-2.6-1.1-6-.7a14.76,14.76,0,0,1-1.7.09,8.37,8.37,0,0,1-3.92-1.27l-.41-.21L32.07,39a6.47,6.47,0,0,1-2.45-1.65h0l-.06,0c-.17-.06-.26-.26-.3-.52a5.91,5.91,0,0,1,.13-1.38,3.43,3.43,0,0,1,.11-.37,5.23,5.23,0,0,1,2.48-3,9.09,9.09,0,0,1,4.47-1.08c2.63,0,4.4-.7,7-1.2a24.12,24.12,0,0,1,6.59-.5c2.51.25,5.44.86,8.13,1.41a37.69,37.69,0,0,0,7.18,1.1,24.76,24.76,0,0,1,7.08.71,15,15,0,0,1,3.83,1.44c1,.58,1.61,1.24,1.65,1.93a1.25,1.25,0,0,1,0,.32c-.07.36-1.45.71-3.32,1.18a38.9,38.9,0,0,0-7.39,2.41,30.42,30.42,0,0,1-8.73,2.63m-8.89,0a27.69,27.69,0,0,0,8.87-.1,30.32,30.32,0,0,0,8.69-2.62,39,39,0,0,1,7.41-2.42c1.82-.46,3.17-.8,3.22-1.07a1.09,1.09,0,0,0,0-.28c0-.63-.63-1.25-1.58-1.81a14.85,14.85,0,0,0-3.79-1.43,24.65,24.65,0,0,0-7-.7,37.64,37.64,0,0,1-7.21-1.11c-2.69-.55-5.62-1.16-8.12-1.41a24,24,0,0,0-6.56.5c-2.21.42-4.26,1-5.6,1.39h0l-.68-.06-.69,0A9.26,9.26,0,0,0,32,32.3a4.72,4.72,0,0,0-2.37,2.77h0a3.39,3.39,0,0,0-.11.36,3.21,3.21,0,0,0-.06.36h0a3.24,3.24,0,0,0-.06,1c0,.21.09.36.21.4l.06,0,.06,0h0v0a6.31,6.31,0,0,0,2.41,1.62l.72.36.41.22a8.28,8.28,0,0,0,3.86,1.25,14.69,14.69,0,0,0,1.68-.09,6.8,6.8,0,0,0,2-.52h0a36.19,36.19,0,0,0,4,1.22C46.27,41.65,47.85,42,49.52,42.31Z"/><path class="cls-6" d="M49.48,40.46A44.53,44.53,0,0,0,67.1,38.51c4-1.41,10.55-2,10.69-2.51.48-1.69-6.74-3.23-12.44-3-2.71.11-10-1.37-15.3-1.73S36.58,33,36.3,32.95c-3.52,4.43,3.22,6.2,13.18,7.51"/><path class="cls-7" d="M49.48,40.51A56.39,56.39,0,0,0,67.11,39c4-1.11,9.93-2.9,10.07-3.29.49-1.32-6.08-1.21-11.79-1-2.71.09-10-1.05-15.29-1.33s-13.48,1.33-13.77,1.33c-3.55,3.48,3.19,4.85,13.15,5.86"/><path class="cls-8" d="M75,35.71c.69-.13,1.35,0,2.17,0-7-.9-15.37.6-23.94-1.11-1.73-.35-10.75-1.06-11.25-1.8A8.91,8.91,0,0,0,36.45,31c-3.49,0-6.35,1.73-6.92,4,.85-2,3.53-3.41,6.74-3.43a8.91,8.91,0,0,1,5.56,1.72c.5.74,9.52,1.45,11.25,1.8,7.73,1.55,15.39.23,22,.62"/><path class="cls-9" d="M42.67,38.31a76.49,76.49,0,0,1,14,0,37.82,37.82,0,0,0,12.55-.84,55.92,55.92,0,0,1,8-1.76c-7-.9-15.47.9-24-.82a99.92,99.92,0,0,0-11-1.36q-.13-.22-.27-.44a8.91,8.91,0,0,0-5.56-1.72c-3.7,0-6.7,1.95-7,4.38-.12.65-.12,1.33.19,1.45l.12,0c.6.85,1.9,1.36,3.16,2a9.38,9.38,0,0,0,4.31,1.47c1.37,0,4.45,0,5.54-2.36"/><path class="cls-10" d="M42.13,39.11l.09-.11h0l-.05.11m32.1-3a28.93,28.93,0,0,1,2.95-.48c-7-.9-15.47.9-24-.82-1.73-.35-10.75-1.06-11.25-1.8a8.91,8.91,0,0,0-5.56-1.72c-3,0-5.61,1.32-6.59,3.14A8.08,8.08,0,0,1,35.86,32a8.91,8.91,0,0,1,5.56,1.72q.14.21.27.44a99.84,99.84,0,0,1,11,1.36C60.26,37.06,67.76,35.82,74.23,36.14Z"/><path class="cls-11" d="M42.73,38.3a75.55,75.55,0,0,1,13.93,0,37.39,37.39,0,0,0,12.47-.84,55.19,55.19,0,0,1,7.92-1.76,35.07,35.07,0,0,0-3.9-.26c-1.67.39-3,.84-4.52,1.18a37.39,37.39,0,0,1-12.47.84,75.59,75.59,0,0,0-13.93,0c-1.08,2.32-4.14,2.35-5.51,2.36a9.3,9.3,0,0,1-4.28-1.47c-2.38-1.23-1.81-.64-1.63-.41s.17.23,2.14,1.25a9.3,9.3,0,0,0,4.28,1.47c1.37,0,4.43,0,5.51-2.36"/><path class="cls-12" d="M38.64,40.4c2.7-.3,4.41-2.37,3.82-4.63s-3.26-3.85-6-3.55-4.41,2.37-3.82,4.63,3.26,3.85,6,3.55"/><path class="cls-13" d="M39.12,32.61c.39.27.9.85,1,.76s-.34-.76-.74-1-1-.41-1.05-.25.42.25.81.52"/><path class="cls-14" d="M39,32.3s-.06,0-.11,0a.57.57,0,0,1-.2-.09c-.06-.21.47-.19.31,0"/><path class="cls-14" d="M39.18,32.29h0l0,0c0-.06.14,0,.08,0"/><path class="cls-9" d="M37.31,39.44c2.3,0,3.9-1.59,3.58-3.54s-2.46-3.53-4.76-3.52-3.9,1.59-3.58,3.54,2.46,3.53,4.76,3.52"/><path class="cls-15" d="M36.52,38.65c2,0,3.36-1.37,3.08-3.05a4.1,4.1,0,0,0-4.1-3c-2,0-3.36,1.37-3.08,3.05a4.1,4.1,0,0,0,4.1,3"/><path class="cls-13" d="M36.27,35.65c1.19.24,2.22-.1,2.29-.74s-.83-1.36-2-1.6-2.22.1-2.29.74.83,1.36,2,1.6"/><path class="cls-13" d="M31,37.57a1.61,1.61,0,0,0-.56.32,3,3,0,0,0,.35.27v0a2.37,2.37,0,0,1,.37-.41L31,37.57"/><path class="cls-13" d="M30.88,37a1.82,1.82,0,0,1-1.27.1c-.51-.17-.09-1.93.26-2.21-.34.87-.25,1.71.15,1.85.71.24.33,0,.86.26"/><path class="cls-16" d="M30,36.14c.07-.09.17-.12.21-.08s0,.15-.06.23-.17.12-.21.08,0-.15.06-.23"/><path class="cls-17" d="M31.24,37.39a3,3,0,0,1-1.72-.22.51.51,0,0,1-.13-.09h0a3.39,3.39,0,0,0,2.11.16h0c0,.31-.7.31-1.19.67l0,0a3.06,3.06,0,0,1,.93-.47"/><path class="cls-18" d="M31.91,33.45a1.12,1.12,0,0,1,1.47.66,1.21,1.21,0,0,1-.89,1.41A1.12,1.12,0,0,1,31,34.86a1.21,1.21,0,0,1,.89-1.41"/><path class="cls-13" d="M32,33.56a1,1,0,0,1,1.33.54,1.08,1.08,0,0,1-.83,1.23,1,1,0,0,1-1.33-.54A1.08,1.08,0,0,1,32,33.56"/><path class="cls-19" d="M32,33.81a.78.78,0,0,1,1,.42.84.84,0,0,1-.64,1,.78.78,0,0,1-1-.42.84.84,0,0,1,.64-1"/><path class="cls-18" d="M31.5,34a.23.23,0,0,1,.28.18.25.25,0,0,1-.14.31.23.23,0,0,1-.28-.18A.25.25,0,0,1,31.5,34"/><path class="cls-18" d="M31.74,35.1a.12.12,0,0,1,.14.1.13.13,0,0,1-.06.17c-.06,0-.12,0-.14-.1a.13.13,0,0,1,.06-.17"/><path class="cls-18" d="M32.83,34.38a.33.33,0,0,1,.38.27.35.35,0,0,1-.17.45c-.15,0-.32-.07-.38-.27a.35.35,0,0,1,.17-.45"/><path class="cls-13" d="M31.89,32.71a.43.43,0,0,1,.54.22c0,.14-.13.15-.38.25s-.48.26-.52.12a.64.64,0,0,1,.35-.59"/><path class="cls-20" d="M31.87,32.82a.2.2,0,0,1,.26.11c0,.07-.06.07-.18.12s-.23.12-.25.06a.3.3,0,0,1,.17-.28"/><path class="cls-10" d="M44.19,30.32a.17.17,0,0,1,0,.23.14.14,0,0,1-.21,0,.17.17,0,0,1,0-.23.14.14,0,0,1,.21,0m-1-.26a.09.09,0,0,1,0,.12.08.08,0,0,1-.11,0,.09.09,0,0,1,0-.12A.08.08,0,0,1,43.23,30.07Zm2.17-.27a.12.12,0,0,1,0,.16.1.1,0,0,1-.15,0,.12.12,0,0,1,0-.16A.1.1,0,0,1,45.41,29.8Zm.81.68a.13.13,0,0,1,.09.14.11.11,0,0,1-.13.1.13.13,0,0,1-.09-.14A.11.11,0,0,1,46.22,30.47Zm.29-.67a.15.15,0,0,1,0,.2.12.12,0,0,1-.18,0,.15.15,0,0,1,0-.2A.12.12,0,0,1,46.51,29.8Zm-4.08.76a.21.21,0,0,1,.16.24.19.19,0,0,1-.22.17.21.21,0,0,1-.16-.24A.19.19,0,0,1,42.43,30.56Zm-.93-.07a.2.2,0,0,1,0,.27.16.16,0,0,1-.24,0,.2.2,0,0,1,0-.27A.16.16,0,0,1,41.51,30.5Zm-1.17.45a.15.15,0,0,1,.06.18.12.12,0,0,1-.17.07.15.15,0,0,1-.06-.18A.12.12,0,0,1,40.34,30.94Zm8-1.21a.12.12,0,0,1,.05.15.1.1,0,0,1-.13.05.12.12,0,0,1-.05-.15A.1.1,0,0,1,48.32,29.73Zm-.43.51a.18.18,0,0,1,0,.24.15.15,0,0,1-.22,0,.18.18,0,0,1,0-.24A.15.15,0,0,1,47.89,30.24Zm1.74-.32a.19.19,0,0,1,0,.26.16.16,0,0,1-.24,0,.19.19,0,0,1,0-.26A.16.16,0,0,1,49.63,29.93Zm1.18-.23a.14.14,0,0,1,0,.18.11.11,0,0,1-.17,0,.14.14,0,0,1,0-.18A.11.11,0,0,1,50.82,29.7Zm.23.89a.11.11,0,0,1,0,.15.09.09,0,0,1-.14,0,.11.11,0,0,1,0-.15A.09.09,0,0,1,51,30.58Zm-1.16-1.16a.09.09,0,0,1,0,.12.08.08,0,0,1-.11,0,.09.09,0,0,1,0-.12A.08.08,0,0,1,49.88,29.42Zm2.6.92a.2.2,0,0,1,0,.26.17.17,0,0,1-.24,0,.2.2,0,0,1,0-.26A.17.17,0,0,1,52.49,30.34Zm-.42-.79a.15.15,0,0,1,0,.2.12.12,0,0,1-.19,0,.15.15,0,0,1,0-.2A.12.12,0,0,1,52.07,29.55Zm3.19,1a.35.35,0,0,1,.26.4.31.31,0,0,1-.36.28.35.35,0,0,1-.26-.4A.31.31,0,0,1,55.26,30.54Zm-.78-.25a.17.17,0,0,1,0,.22.14.14,0,0,1-.2,0,.17.17,0,0,1,0-.22A.14.14,0,0,1,54.48,30.28Zm3.24.71a.15.15,0,0,1,.11.17.13.13,0,0,1-.15.12.15.15,0,0,1-.11-.17A.13.13,0,0,1,57.72,31Zm2.85.78a.24.24,0,0,1,.11.31.2.2,0,0,1-.28.11.24.24,0,0,1-.11-.31A.2.2,0,0,1,60.57,31.77Zm-1.33-.46a.22.22,0,0,1-.11.27.2.2,0,0,1-.25-.13.22.22,0,0,1,.11-.27A.2.2,0,0,1,59.24,31.31ZM45,30.61a.18.18,0,0,1,0,.23.15.15,0,0,1-.22,0,.18.18,0,0,1,0-.23A.15.15,0,0,1,45,30.61Z"/><path class="cls-10" d="M50,41.67a.17.17,0,0,0,0-.23.14.14,0,0,0-.21,0,.17.17,0,0,0,0,.23.14.14,0,0,0,.21,0M49,42a.09.09,0,0,0,0-.12.08.08,0,0,0-.11,0,.09.09,0,0,0,0,.12A.08.08,0,0,0,49,42Zm2.19.14a.12.12,0,0,0,0-.16.1.1,0,0,0-.15,0,.12.12,0,0,0,0,.16A.1.1,0,0,0,51.21,42.13Zm.75-.72a.12.12,0,0,0,.08-.15.12.12,0,0,0-.14-.09.12.12,0,0,0-.08.15A.12.12,0,0,0,52,41.41Zm.35.65a.15.15,0,0,0,0-.2.12.12,0,0,0-.18,0,.15.15,0,0,0,0,.2A.12.12,0,0,0,52.32,42.06Zm-4.13-.53a.21.21,0,0,0,.14-.25.19.19,0,0,0-.23-.15.21.21,0,0,0-.14.25A.19.19,0,0,0,48.19,41.53Zm-.92.12a.2.2,0,0,0,0-.27.16.16,0,0,0-.25,0,.2.2,0,0,0,0,.27A.16.16,0,0,0,47.27,41.65Zm-1.2-.38a.14.14,0,0,0,0-.19.12.12,0,0,0-.17-.06.14.14,0,0,0,0,.19A.12.12,0,0,0,46.06,41.27Zm8.06.76a.11.11,0,0,0,0-.15.1.1,0,0,0-.14,0A.11.11,0,0,0,54,42,.1.1,0,0,0,54.13,42Zm-.47-.49a.18.18,0,0,0,0-.24.15.15,0,0,0-.22,0,.18.18,0,0,0,0,.24A.15.15,0,0,0,53.66,41.54Zm1.77.22a.19.19,0,0,0-.06-.25.16.16,0,0,0-.23.06.19.19,0,0,0,.06.25A.16.16,0,0,0,55.42,41.76Zm1.2.16a.14.14,0,0,0,0-.18.11.11,0,0,0-.17,0,.14.14,0,0,0,0,.18A.11.11,0,0,0,56.62,41.92Zm.16-.9a.11.11,0,0,0,0-.15.09.09,0,0,0-.14,0,.11.11,0,0,0,0,.15A.09.09,0,0,0,56.78,41Zm-1.07,1.23a.09.09,0,0,0,0-.12.08.08,0,0,0-.11,0,.09.09,0,0,0,0,.12A.08.08,0,0,0,55.71,42.26Zm2.52-1.07a.2.2,0,0,0-.06-.26.17.17,0,0,0-.24.06.2.2,0,0,0,.06.26A.17.17,0,0,0,58.24,41.19Zm-.35.81a.15.15,0,0,0,0-.2.13.13,0,0,0-.19,0,.15.15,0,0,0,0,.2A.13.13,0,0,0,57.88,42ZM61,40.83a.34.34,0,0,0,.23-.41.32.32,0,0,0-.38-.25.34.34,0,0,0-.23.41A.32.32,0,0,0,61,40.83Zm-.76.3a.17.17,0,0,0,0-.22.14.14,0,0,0-.2,0,.17.17,0,0,0,0,.22A.14.14,0,0,0,60.23,41.13Zm3.18-.89a.14.14,0,0,0,.1-.17.14.14,0,0,0-.16-.11.14.14,0,0,0-.1.17A.14.14,0,0,0,63.4,40.24Zm2.78-.94a.24.24,0,0,0,.08-.31A.21.21,0,0,0,66,38.9a.24.24,0,0,0-.08.31A.21.21,0,0,0,66.19,39.31Zm-1.29.53a.22.22,0,0,0-.14-.27.19.19,0,0,0-.24.14.22.22,0,0,0,.14.27A.19.19,0,0,0,64.89,39.84Zm-14.16,1.5a.18.18,0,0,0-.05-.23.15.15,0,0,0-.21.05.18.18,0,0,0,.05.23A.15.15,0,0,0,50.73,41.34Z"/><path class="cls-10" d="M64.9,33.67a.17.17,0,0,1,0-.23.14.14,0,0,1,.21,0,.17.17,0,0,1,0,.23.14.14,0,0,1-.21,0m.94.29a.09.09,0,0,1,0-.12.08.08,0,0,1,.11,0A.09.09,0,0,1,66,34,.08.08,0,0,1,65.84,34Zm-2.18.18a.12.12,0,0,1,0-.16.1.1,0,0,1,.15,0,.12.12,0,0,1,0,.16A.1.1,0,0,1,63.66,34.15Zm-.79-.71a.13.13,0,0,1-.09-.15.11.11,0,0,1,.13-.1.13.13,0,0,1,.09.15A.11.11,0,0,1,62.87,33.44Zm-.32.66a.15.15,0,0,1,0-.2.12.12,0,0,1,.18,0,.15.15,0,0,1,0,.2A.12.12,0,0,1,62.56,34.1Zm4.1-.6a.21.21,0,0,1-.15-.25.19.19,0,0,1,.22-.16.21.21,0,0,1,.15.25A.19.19,0,0,1,66.66,33.5Zm.93.1a.2.2,0,0,1,0-.27.16.16,0,0,1,.24,0,.2.2,0,0,1,0,.27A.16.16,0,0,1,67.58,33.61Zm1.18-.4a.15.15,0,0,1-.06-.19.12.12,0,0,1,.17-.06.15.15,0,0,1,.06.19A.12.12,0,0,1,68.77,33.2Zm-8,.9a.12.12,0,0,1,0-.15.1.1,0,0,1,.14,0,.12.12,0,0,1,0,.15A.1.1,0,0,1,60.75,34.1Zm.45-.49a.18.18,0,0,1,0-.24.15.15,0,0,1,.22,0,.18.18,0,0,1,0,.24A.15.15,0,0,1,61.19,33.61Zm-1.75.25a.19.19,0,0,1,0-.25.16.16,0,0,1,.23.06.19.19,0,0,1,0,.25A.16.16,0,0,1,59.44,33.86ZM58.25,34a.14.14,0,0,1,0-.18.11.11,0,0,1,.17,0,.14.14,0,0,1,0,.18A.11.11,0,0,1,58.25,34Zm-.2-.89A.12.12,0,0,1,58,33a.09.09,0,0,1,.14,0,.12.12,0,0,1,0,.15A.09.09,0,0,1,58,33.15Zm1.13,1.21a.09.09,0,0,1,0-.12.08.08,0,0,1,.11,0,.09.09,0,0,1,0,.12A.08.08,0,0,1,59.17,34.36Zm-2.57-1a.2.2,0,0,1,0-.26.17.17,0,0,1,.24.06.2.2,0,0,1,0,.26A.17.17,0,0,1,56.6,33.33Zm.39.8a.15.15,0,0,1,0-.2.12.12,0,0,1,.19,0,.15.15,0,0,1,0,.2A.12.12,0,0,1,57,34.13ZM53.83,33a.35.35,0,0,1-.25-.41.31.31,0,0,1,.37-.26.35.35,0,0,1,.25.41A.31.31,0,0,1,53.83,33Zm.77.29a.17.17,0,0,1,0-.22.14.14,0,0,1,.2,0,.17.17,0,0,1,0,.22A.14.14,0,0,1,54.6,33.31Zm-3.22-.83a.15.15,0,0,1-.1-.17.13.13,0,0,1,.16-.11.15.15,0,0,1,.1.17A.13.13,0,0,1,51.38,32.48Zm-2.83-.89a.25.25,0,0,1-.1-.31.2.2,0,0,1,.29-.1.25.25,0,0,1,.1.31A.2.2,0,0,1,48.56,31.59Zm1.32.51a.21.21,0,0,1,.12-.27.2.2,0,0,1,.25.14.21.21,0,0,1-.12.27A.2.2,0,0,1,49.88,32.1Zm14.23,1.26a.18.18,0,0,1,0-.23.15.15,0,0,1,.22.05.18.18,0,0,1,0,.23A.15.15,0,0,1,64.11,33.35Z"/><path class="cls-10" d="M59.82,39.07a.17.17,0,0,1,0-.23.14.14,0,0,1,.21,0A.17.17,0,0,1,60,39a.14.14,0,0,1-.21,0m1,.17a.09.09,0,0,1,0-.12.08.08,0,0,1,.11,0,.09.09,0,0,1,0,.12A.08.08,0,0,1,60.79,39.24Zm-2.14.46a.12.12,0,0,1,0-.16.1.1,0,0,1,.15,0,.12.12,0,0,1,0,.16A.1.1,0,0,1,58.65,39.71Zm-.86-.6a.12.12,0,0,1-.11-.14.12.12,0,0,1,.12-.11.12.12,0,0,1,.11.14A.12.12,0,0,1,57.79,39.11Zm-.24.7a.15.15,0,0,1,0-.19.12.12,0,0,1,.18,0,.15.15,0,0,1,0,.19A.12.12,0,0,1,57.55,39.8Zm4-1.12a.21.21,0,0,1-.18-.23.19.19,0,0,1,.21-.19.21.21,0,0,1,.18.23A.19.19,0,0,1,61.55,38.68Zm.93,0a.2.2,0,0,1,0-.26.16.16,0,0,1,.24,0,.2.2,0,0,1,0,.26A.16.16,0,0,1,62.48,38.66Zm1.13-.55a.14.14,0,0,1-.08-.18.12.12,0,0,1,.16-.08.14.14,0,0,1,.08.18A.12.12,0,0,1,63.61,38.11ZM55.76,40a.11.11,0,0,1-.06-.14.1.1,0,0,1,.13-.06.11.11,0,0,1,.06.14A.1.1,0,0,1,55.76,40Zm.39-.55a.18.18,0,0,1,0-.24.15.15,0,0,1,.22,0,.18.18,0,0,1,0,.24A.15.15,0,0,1,56.14,39.49ZM54.43,40a.19.19,0,0,1,0-.26.16.16,0,0,1,.24,0,.19.19,0,0,1,0,.26A.16.16,0,0,1,54.43,40Zm-1.16.34a.14.14,0,0,1,0-.18.11.11,0,0,1,.17,0,.14.14,0,0,1,0,.18A.11.11,0,0,1,53.27,40.3Zm-.3-.86a.11.11,0,0,1,0-.15.09.09,0,0,1,.14,0,.11.11,0,0,1,0,.15A.09.09,0,0,1,53,39.44Zm1.25,1.06a.09.09,0,0,1,0-.11.08.08,0,0,1,.1-.05.09.09,0,0,1,0,.11A.08.08,0,0,1,54.22,40.49Zm-2.66-.69a.2.2,0,0,1,0-.27.17.17,0,0,1,.25,0,.2.2,0,0,1,0,.27A.17.17,0,0,1,51.56,39.81Zm.47.75a.15.15,0,0,1,0-.2.13.13,0,0,1,.18,0,.15.15,0,0,1,0,.2A.12.12,0,0,1,52,40.55Zm-3.25-.69a.34.34,0,0,1-.29-.37.32.32,0,0,1,.34-.31.34.34,0,0,1,.29.37A.32.32,0,0,1,48.79,39.86Zm.8.18a.17.17,0,0,1,0-.22.14.14,0,0,1,.2,0,.17.17,0,0,1,0,.22A.14.14,0,0,1,49.59,40Zm-3.28-.41a.15.15,0,0,1-.12-.16.13.13,0,0,1,.14-.13.15.15,0,0,1,.12.16A.13.13,0,0,1,46.3,39.63Zm-2.9-.52a.24.24,0,0,1-.13-.3.21.21,0,0,1,.27-.14.24.24,0,0,1,.13.3A.21.21,0,0,1,43.41,39.11Zm1.36.34a.22.22,0,0,1,.09-.28.19.19,0,0,1,.26.11.22.22,0,0,1-.09.28A.19.19,0,0,1,44.77,39.45ZM59,38.86a.18.18,0,0,1,0-.24.15.15,0,0,1,.22,0,.18.18,0,0,1,0,.24A.15.15,0,0,1,59,38.86Z"/><path class="cls-4" d="M6.87,17.44a9,9,0,0,1-3.69-5C2.85,11,1.32,9.1,1.57,8.92c.85-.61,3.79.93,5.22,2.51.67.74,3.42,2.2,5,3.43a10.69,10.69,0,0,1,2.49,3.74c-1.52,2-4.13.86-7.4-1.16"/><path class="cls-5" d="M4.48,15.26a7.51,7.51,0,0,1-1.36-2.75A9.92,9.92,0,0,0,2,10.07c-.35-.6-.6-1.05-.47-1.14l.12-.07a2,2,0,0,1,1.26.07,8.07,8.07,0,0,1,1.67.76A9.74,9.74,0,0,1,6.8,11.44a15,15,0,0,0,2.34,1.65c.92.58,1.9,1.2,2.63,1.78a6.68,6.68,0,0,1,1.45,1.7,8.48,8.48,0,0,0,1.25,1.88,2,2,0,0,1,.66,1.23,1.33,1.33,0,0,1-.54,1.11l-.11.09-.12.08a1.77,1.77,0,0,1-.36.2.38.38,0,0,1-.26,0h0a3.62,3.62,0,0,1-1.2-.26l-.31-.1L12,20.76a3.62,3.62,0,0,1-1.43-.67,4.08,4.08,0,0,1-.39-.41c-.69-.86-.57-.63-1.77-1.27-.52-.28-1.06-.6-1.61-.94a9,9,0,0,1-2.34-2.22m4,3.12a16.08,16.08,0,0,0,1.47.71h0a1.51,1.51,0,0,0,.3.56,4.06,4.06,0,0,0,.38.41,3.58,3.58,0,0,0,1.41.66l.18.05.31.1a3.53,3.53,0,0,0,1.18.25h.06a.3.3,0,0,0,.2,0,1.69,1.69,0,0,0,.34-.19h0l.12-.08.11-.09h0a1.17,1.17,0,0,0,.47-1,2,2,0,0,0-.65-1.24l-.17-.16L14,18.18h0a13.53,13.53,0,0,0-.84-1.59,6.65,6.65,0,0,0-1.44-1.69C11,14.32,10,13.7,9.1,13.12a15,15,0,0,1-2.35-1.66A9.7,9.7,0,0,0,4.52,9.72,8,8,0,0,0,2.87,9a1.9,1.9,0,0,0-1.19-.08L1.57,9c-.1.07.15.51.49,1.1A9.94,9.94,0,0,1,3.18,12.5a7.49,7.49,0,0,0,1.36,2.74,9,9,0,0,0,2.33,2.21C7.42,17.79,8,18.1,8.48,18.38Z"/><path class="cls-6" d="M7.59,17.1a13.06,13.06,0,0,1-4-4.82c-.56-1.34-2.18-3.23-2-3.37.55-.47,3.22,1.2,4.69,2.76C7,12.4,9.47,14,11,15.24a15.7,15.7,0,0,1,2.76,3.61c-.81,1.62-3.12.38-6.15-1.74"/><path class="cls-7" d="M7.57,17.11a17,17,0,0,1-4.14-4.75A17,17,0,0,1,1.91,9c.4-.4,2.22,1.42,3.72,3,.7.72,3.08,2.36,4.56,3.63a20.55,20.55,0,0,1,2.91,3.54c-.44,1.45-2.6.15-5.52-2"/><path class="cls-8" d="M2.51,9.61C2.36,9.4,2.1,9.25,1.9,9c2.35,1.72,4,4.21,7,6.05.58.36,3.13,2.42,3.53,2.41a3.76,3.76,0,0,1,2,1c.82.81.86,1.78.17,2.31.53-.55.43-1.42-.32-2.17a3.76,3.76,0,0,0-2-1c-.4,0-3-2-3.53-2.4-2.65-1.66-4.22-3.91-6.22-5.6"/><path class="cls-9" d="M10.15,18.34a24,24,0,0,0-3.61-3.43,12,12,0,0,1-3.09-3.4A15.79,15.79,0,0,0,1.9,9c2.35,1.72,4,4.29,6.9,6.13a35.94,35.94,0,0,1,3.3,2.42l.23,0a3.76,3.76,0,0,1,2,1c.87.86.86,1.9,0,2.4-.21.15-.46.27-.58.22l0,0a4.86,4.86,0,0,1-1.5-.35,4.13,4.13,0,0,1-1.6-.72c-.34-.32-1.09-1-.49-1.73"/><path class="cls-10" d="M10,18.61l0,0h0l0,0M8.66,15.39A35.89,35.89,0,0,1,12,17.8l.23,0a3.76,3.76,0,0,1,2,1,1.65,1.65,0,0,1,.54,1.85,1.55,1.55,0,0,0-.4-2.09,3.76,3.76,0,0,0-2-1c-.4,0-3-2-3.53-2.4C5.86,13.31,4.26,10.73,1.91,9a8.86,8.86,0,0,1,.65.9C4.51,11.59,6.06,13.78,8.66,15.39Z"/><path class="cls-11" d="M10.14,18.32a23.71,23.71,0,0,0-3.59-3.41,11.81,11.81,0,0,1-3.07-3.38A15.55,15.55,0,0,0,1.95,9a14,14,0,0,1,1.22,1c.31.53.51,1,.79,1.44A11.75,11.75,0,0,0,7,14.88a23.6,23.6,0,0,1,3.57,3.4c-.61.68.14,1.4.48,1.72a4.08,4.08,0,0,0,1.59.71c1,.32.67.29.54.3s-.13,0-1-.26a4.11,4.11,0,0,1-1.6-.71c-.33-.32-1.09-1-.48-1.72"/><path class="cls-12" d="M10.37,19.67c-.56-.69-.21-1.47.8-1.75a2.85,2.85,0,0,1,2.8.75c.53.68.17,1.45-.81,1.72a2.87,2.87,0,0,1-2.78-.72"/><path class="cls-13" d="M13.18,18.12c-.2,0-.54-.06-.52-.09a1.23,1.23,0,0,1,.57,0c.2,0,.38.15.35.2s-.2-.05-.39-.1"/><path class="cls-14" d="M13.33,18.1s0,0,0,0l.08,0c.09,0,0-.15-.09-.06"/><path class="cls-14" d="M13.29,18.05h0s0,0,0,0"/><path class="cls-9" d="M11.06,19.8c-.57-.54-.37-1.2.45-1.49a2.64,2.64,0,0,1,2.49.47c.55.53.34,1.19-.46,1.47a2.66,2.66,0,0,1-2.47-.45"/><path class="cls-15" d="M11.55,19.84c-.49-.46-.31-1,.39-1.28a2.27,2.27,0,0,1,2.14.4c.47.46.29,1-.4,1.27a2.28,2.28,0,0,1-2.13-.39"/><path class="cls-13" d="M12.73,19.35c-.38-.23-.5-.53-.28-.67a1.23,1.23,0,0,1,1.09.18c.37.23.5.53.27.67a1.23,1.23,0,0,1-1.08-.17"/><path class="cls-13" d="M13.28,20.89a.3.3,0,0,1,0,.19l-.18,0h0a.53.53,0,0,0,.06-.16h.1"/><path class="cls-13" d="M13.52,20.83a.46.46,0,0,0,.26.31c.19.08.73-.33.75-.46-.24.23-.58.36-.72.3s-.1-.07-.3-.15"/><path class="cls-16" d="M14,20.87s0-.06,0-.06a.09.09,0,0,0-.07.05s0,.06,0,.06a.09.09,0,0,0,.07-.05"/><path class="cls-17" d="M13.3,20.82a1,1,0,0,0,.49.35h.06a1,1,0,0,1-.56-.45h0c-.1.07.05.21,0,.39h0a.58.58,0,0,0,0-.29"/><path class="cls-18" d="M14.6,20a.5.5,0,0,0-.6-.22c-.25.07-.39.27-.31.46a.5.5,0,0,0,.6.22c.25-.07.39-.27.31-.46"/><path class="cls-13" d="M14.54,20a.44.44,0,0,0-.52-.21.32.32,0,0,0-.26.41.44.44,0,0,0,.52.2.32.32,0,0,0,.26-.41"/><path class="cls-19" d="M14.45,20a.34.34,0,0,0-.4-.16.25.25,0,0,0-.2.32.34.34,0,0,0,.4.16.25.25,0,0,0,.2-.32"/><path class="cls-18" d="M14.5,20.14s-.07,0-.13,0-.1.06-.08.09.07,0,.13,0,.1-.06.08-.09"/><path class="cls-18" d="M14,20.29s0,0-.07,0-.05,0,0,0,0,0,.07,0,.05,0,0,0"/><path class="cls-18" d="M14,19.91s-.1-.06-.19,0-.14.08-.13.12.1.06.19,0,.14-.08.13-.12"/><path class="cls-13" d="M14.88,19.82c0-.08-.15-.1-.21-.08s0,.06,0,.13,0,.16.08.14.16-.11.14-.19"/><path class="cls-20" d="M14.84,19.85s-.07,0-.1,0,0,0,0,.06,0,.07,0,.07.08-.05.07-.09"/><path class="cls-10" d="M12.81,16.49s.06,0,0,.05a.1.1,0,0,1-.09,0s-.06,0,0-.05a.1.1,0,0,1,.09,0m.37.21s0,0,0,0,0,0,0,0,0,0,0,0S13.18,16.68,13.18,16.7Zm-.44-.56a.07.07,0,0,1-.07,0s0,0,0,0a.07.07,0,0,1,.07,0S12.75,16.12,12.74,16.14Zm-.5-.06a.08.08,0,0,1-.08,0s0,0,0-.05a.08.08,0,0,1,.08,0S12.27,16.07,12.24,16.08Zm.23-.2a.08.08,0,0,1-.08,0s-.05,0,0,0a.08.08,0,0,1,.08,0S12.48,15.86,12.47,15.88ZM13.14,17A.13.13,0,0,1,13,17S13,17,13,17a.13.13,0,0,1,.13,0S13.18,17,13.14,17Zm.31.19a.11.11,0,0,1-.11,0s-.07,0-.05-.06a.11.11,0,0,1,.11,0S13.47,17.2,13.45,17.23Zm.08.35a.09.09,0,0,1-.09,0s0,0,0-.05a.09.09,0,0,1,.09,0S13.55,17.56,13.53,17.58ZM12,15.42a.07.07,0,0,1-.07,0s0,0,0,0a.07.07,0,0,1,.07,0S12,15.4,12,15.42Zm-.05.22a.1.1,0,0,1-.1,0s-.06,0,0-.06a.1.1,0,0,1,.1,0S12,15.61,12,15.63Zm-.29-.5s0,.06-.09.06-.08,0-.08,0,0-.06.09-.06S11.68,15.11,11.68,15.14Zm-.25-.34a.08.08,0,0,1-.08,0s0,0,0,0a.08.08,0,0,1,.08,0S11.44,14.78,11.43,14.8Zm-.41.1a.06.06,0,0,1-.06,0s0,0,0,0a.06.06,0,0,1,.06,0S11,14.88,11,14.9Zm.72.07a.06.06,0,0,1-.05,0s0,0,0,0h.05S11.76,15,11.75,15Zm-.95-.46s0,.06-.09.06-.08,0-.08-.05,0-.06.09-.06S10.8,14.48,10.8,14.51Zm.37,0a.09.09,0,0,1-.08,0s-.05,0,0,0a.09.09,0,0,1,.08,0S11.18,14.44,11.17,14.46Zm-1.25-.52a.22.22,0,0,1-.22,0c-.06,0-.05-.1,0-.14a.22.22,0,0,1,.22,0C10,13.84,10,13.9,9.92,13.94Zm.36.06a.09.09,0,0,1-.09,0s-.06,0,0-.05a.09.09,0,0,1,.09,0S10.29,14,10.28,14Zm-1.17-.68a.1.1,0,0,1-.09,0s0,0,0-.06a.1.1,0,0,1,.09,0S9.14,13.3,9.11,13.32Zm-1-.55a.15.15,0,0,1-.15,0c-.05,0-.06-.06,0-.09a.15.15,0,0,1,.15,0C8.11,12.69,8.13,12.74,8.09,12.77Zm.62.2s0,.07-.08.08-.11,0-.12,0,0-.07.08-.08S8.7,12.94,8.71,13Zm3.86,3.43s0,.05-.08.05-.07,0-.07,0,0-.05.08-.05S12.57,16.37,12.57,16.4Z"/><path class="cls-10" d="M7,17.22s0,0,.06.05a.09.09,0,0,0,.09,0s0,0-.06,0a.09.09,0,0,0-.09,0m.14.32a.06.06,0,0,0,.05,0s0,0,0,0a.06.06,0,0,0-.05,0S7.12,17.53,7.14,17.53ZM6.53,17a.06.06,0,0,0,.06,0s0,0,0,0a.06.06,0,0,0-.06,0S6.51,17,6.53,17Zm.11-.34s0,0,0,0a.06.06,0,0,0-.07,0s0,0,0,0A.06.06,0,0,0,6.65,16.69Zm-.37.06a.08.08,0,0,0,.08,0s0,0-.05,0a.08.08,0,0,0-.08,0S6.24,16.76,6.28,16.76Zm1.35.89s.08-.05.06-.08a.11.11,0,0,0-.12,0s-.08.05-.06.08A.11.11,0,0,0,7.63,17.65Zm.14.27a.1.1,0,0,0,.1-.05s0-.06-.07-.06a.1.1,0,0,0-.1.05S7.73,17.92,7.77,17.92Zm.46.19s.06,0,.06,0,0,0-.07,0-.06,0-.06,0S8.19,18.12,8.23,18.11ZM5.81,16.29s0,0,0,0,0,0-.05,0,0,0,0,0S5.79,16.29,5.81,16.29Zm.32.05a.09.09,0,0,0,.09,0s0-.05-.06-.05a.09.09,0,0,0-.09,0S6.09,16.34,6.14,16.34ZM5.56,16a.12.12,0,0,0,.11,0s0-.06,0-.07a.12.12,0,0,0-.11,0S5.52,16,5.56,16Zm-.38-.29a.07.07,0,0,0,.07,0s0,0,0,0a.07.07,0,0,0-.07,0S5.15,15.67,5.18,15.67Zm.3-.22a.06.06,0,0,0,.06,0s0,0,0,0a.06.06,0,0,0-.06,0S5.45,15.45,5.48,15.45Zm-.19.49s0,0,0,0,0,0,0,0,0,0,0,0S5.27,15.94,5.29,15.93ZM5,15.15a.12.12,0,0,0,.12,0s0-.06,0-.07a.12.12,0,0,0-.12,0S5,15.14,5,15.15Zm-.21.22a.08.08,0,0,0,.08,0s0,0-.05,0a.08.08,0,0,0-.08,0S4.78,15.37,4.82,15.37Zm-.23-1c.08,0,.13-.09.1-.14a.18.18,0,0,0-.2,0c-.08,0-.13.09-.1.14A.19.19,0,0,0,4.58,14.36Zm-.06.25a.09.09,0,0,0,.09,0s0,0-.06-.05a.09.09,0,0,0-.09,0S4.49,14.61,4.53,14.62ZM4,13.6s.05,0,0-.06a.08.08,0,0,0-.09,0s-.06,0,0,.06A.08.08,0,0,0,4,13.6Zm-.37-.87c.06,0,.11,0,.1-.08s-.06-.06-.12-.06-.11,0-.1.08S3.61,12.74,3.67,12.74Zm0,.47a.15.15,0,0,0,.14,0,0,0,0,0,0,0-.09.15.15,0,0,0-.14,0A0,0,0,0,0,3.71,13.21ZM7,17a.11.11,0,0,0,.1,0s0-.05,0-.06a.11.11,0,0,0-.1,0S6.92,17,7,17Z"/><path class="cls-10" d="M6.15,11.92s-.06,0-.05-.06a.09.09,0,0,1,.1,0s.06,0,.05.06a.09.09,0,0,1-.09,0m-.42-.22s0,0,0,0,0,0,0,0,0,0,0,0S5.73,11.72,5.73,11.71Zm.52.59a.07.07,0,0,1,.07,0s0,0,0,0a.07.07,0,0,1-.07,0S6.25,12.32,6.26,12.3Zm.53.06a.08.08,0,0,1,.08,0s0,0,0,.05a.08.08,0,0,1-.08,0S6.76,12.37,6.79,12.35Zm-.22.21a.08.08,0,0,1,.08,0s.06,0,0,0a.08.08,0,0,1-.08,0S6.56,12.59,6.57,12.57Zm-.83-1.23a.14.14,0,0,1,.14,0s0,.06,0,.09a.14.14,0,0,1-.14,0S5.7,11.36,5.74,11.34Zm-.36-.2a.11.11,0,0,1,.11,0s.08,0,.06.07a.11.11,0,0,1-.11,0S5.36,11.16,5.38,11.13Zm-.13-.38a.09.09,0,0,1,.09,0s0,0,0,.06a.09.09,0,0,1-.09,0S5.23,10.77,5.25,10.75ZM7.08,13a.07.07,0,0,1,.07,0s0,0,0,0a.07.07,0,0,1-.07,0S7.06,13.05,7.08,13Zm0-.22a.1.1,0,0,1,.1,0s.07,0,.05.06a.1.1,0,0,1-.1,0S7.1,12.84,7.12,12.81Zm.34.51s0-.06.09-.06.08,0,.08,0,0,.06-.09.06S7.46,13.35,7.46,13.32Zm.29.34a.08.08,0,0,1,.07,0s.05,0,0,0a.08.08,0,0,1-.07,0S7.73,13.69,7.74,13.66Zm.41-.11a.06.06,0,0,1,.06,0s0,0,0,0a.06.06,0,0,1-.06,0S8.15,13.57,8.15,13.55ZM7.4,13.5a.06.06,0,0,1,.06,0s0,0,0,0a.06.06,0,0,1-.06,0S7.39,13.51,7.4,13.5Zm1,.44s0-.06.09-.06.09,0,.09.05,0,.06-.09.06S8.41,14,8.41,13.94ZM8,14a.08.08,0,0,1,.08,0s.06,0,0,0a.08.08,0,0,1-.08,0S8,14,8,14Zm1.31.49a.23.23,0,0,1,.22,0c.06,0,.06.1,0,.14a.23.23,0,0,1-.22,0C9.27,14.59,9.28,14.53,9.34,14.49ZM9,14.44a.09.09,0,0,1,.09,0s.06,0,0,.05a.09.09,0,0,1-.09,0S9,14.46,9,14.44Zm1.2.64a.1.1,0,0,1,.09,0s0,0,0,.06a.1.1,0,0,1-.09,0S10.15,15.09,10.18,15.08Zm1,.5a.15.15,0,0,1,.14,0s.06.05,0,.09a.15.15,0,0,1-.14,0S11.17,15.61,11.2,15.58Zm-.61-.17s0-.07.07-.08.1,0,.12,0,0,.07-.07.08S10.6,15.43,10.59,15.4ZM6.41,12s0-.05.08-.06.08,0,.08,0,0,.05-.08.06S6.41,12,6.41,12Z"/><path class="cls-10" d="M5.39,14.27s-.06,0,0-.06a.1.1,0,0,1,.1,0s.06,0,0,.06a.1.1,0,0,1-.1,0M5,14s0,0,0,0,0,0,0,0,0,0,0,0S5,14,5,14Zm.4.62a.07.07,0,0,1,.07,0s0,0,0,0a.07.07,0,0,1-.07,0S5.41,14.67,5.43,14.65Zm.51.09a.08.08,0,0,1,.08,0s0,0,0,.05a.08.08,0,0,1-.08,0S5.91,14.76,5.93,14.74Zm-.25.2a.09.09,0,0,1,.09,0s0,0,0,.05a.09.09,0,0,1-.09,0S5.66,15,5.68,14.94Zm-.59-1.27a.14.14,0,0,1,.14,0s0,.06,0,.09a.14.14,0,0,1-.14,0S5,13.69,5.09,13.67Zm-.31-.22a.12.12,0,0,1,.12,0s.07,0,0,.07a.12.12,0,0,1-.12,0S4.76,13.48,4.78,13.44Zm-.05-.39a.09.09,0,0,1,.09,0s0,0,0,.06a.09.09,0,0,1-.09,0S4.7,13.08,4.73,13.06Zm1.37,2.38a.07.07,0,0,1,.07,0s0,0,0,0a.07.07,0,0,1-.07,0A0,0,0,0,1,6.09,15.44Zm.08-.22a.11.11,0,0,1,.1,0s.06,0,0,.06a.11.11,0,0,1-.1,0S6.15,15.24,6.17,15.22Zm.24.52s0-.05.1-.05.08,0,.07.05,0,.05-.1.05S6.4,15.77,6.41,15.74Zm.22.36a.08.08,0,0,1,.08,0s0,0,0,0a.08.08,0,0,1-.08,0S6.61,16.12,6.63,16.1ZM7,16a.07.07,0,0,1,.07,0s0,0,0,0a.07.07,0,0,1-.06,0S7,16,7,16Zm-.72-.1a.06.06,0,0,1,.06,0,0,0,0,0,1,0,0,.06.06,0,0,1-.06,0A0,0,0,0,1,6.32,15.91Zm.9.5s.05-.06.1-.06.08,0,.07.06-.05.06-.1.06S7.22,16.45,7.22,16.42Zm-.37,0a.09.09,0,0,1,.09,0s0,0,0,.05a.09.09,0,0,1-.09,0S6.84,16.47,6.85,16.45ZM8,17a.22.22,0,0,1,.22,0c.05,0,0,.1,0,.14a.22.22,0,0,1-.22,0C7.95,17.12,8,17.06,8,17Zm-.35-.07a.1.1,0,0,1,.09,0s.05,0,0,.06a.1.1,0,0,1-.09,0S7.67,17,7.68,16.95Zm1.06.71a.09.09,0,0,1,.09,0s0,0,0,.06a.09.09,0,0,1-.09,0S8.71,17.67,8.74,17.66Zm.9.56a.15.15,0,0,1,.15,0,0,0,0,0,1,0,.09.15.15,0,0,1-.15,0A0,0,0,0,1,9.64,18.22ZM9.08,18s0-.07.08-.07.1,0,.11,0,0,.07-.08.07S9.09,18,9.08,18ZM5.62,14.39s0-.05.09,0,.07,0,.07.05,0,.05-.09,0S5.62,14.42,5.62,14.39Z"/><path class="cls-4" d="M6.87,29.92a9,9,0,0,1-3.69-5c-.32-1.45-1.85-3.39-1.6-3.57.85-.61,3.79.93,5.22,2.51.67.74,3.42,2.2,5,3.43a10.69,10.69,0,0,1,2.49,3.74c-1.52,2-4.13.86-7.4-1.16"/><path class="cls-5" d="M4.48,27.74A7.51,7.51,0,0,1,3.12,25,9.92,9.92,0,0,0,2,22.55c-.35-.6-.6-1.05-.47-1.14l.12-.07a2,2,0,0,1,1.26.07,8.07,8.07,0,0,1,1.67.76A9.74,9.74,0,0,1,6.8,23.92a15,15,0,0,0,2.34,1.65c.92.58,1.9,1.2,2.63,1.78A6.68,6.68,0,0,1,13.23,29a8.48,8.48,0,0,0,1.25,1.88,2,2,0,0,1,.66,1.23,1.33,1.33,0,0,1-.54,1.11l-.11.09-.12.08a1.77,1.77,0,0,1-.36.2.38.38,0,0,1-.26,0h0a3.62,3.62,0,0,1-1.2-.26l-.31-.1L12,33.24a3.62,3.62,0,0,1-1.43-.67,4.08,4.08,0,0,1-.39-.41c-.69-.86-.57-.63-1.77-1.27-.52-.28-1.06-.6-1.61-.94a9,9,0,0,1-2.34-2.22m4,3.12a16.08,16.08,0,0,0,1.47.71h0a1.51,1.51,0,0,0,.3.56,4.06,4.06,0,0,0,.38.41,3.58,3.58,0,0,0,1.41.66l.18.05.31.1a3.53,3.53,0,0,0,1.18.25h.06a.3.3,0,0,0,.2,0,1.69,1.69,0,0,0,.34-.19h0l.12-.08.11-.09h0a1.17,1.17,0,0,0,.47-1A2,2,0,0,0,14.37,31l-.17-.16L14,30.66h0a13.53,13.53,0,0,0-.84-1.59,6.65,6.65,0,0,0-1.44-1.69C11,26.8,10,26.18,9.1,25.6a15,15,0,0,1-2.35-1.66A9.7,9.7,0,0,0,4.52,22.2a8,8,0,0,0-1.65-.75,1.9,1.9,0,0,0-1.19-.08l-.11.06c-.1.07.15.51.49,1.1A9.94,9.94,0,0,1,3.18,25a7.49,7.49,0,0,0,1.36,2.74,9,9,0,0,0,2.33,2.21C7.42,30.27,8,30.58,8.48,30.86Z"/><path class="cls-6" d="M7.59,29.58a13.06,13.06,0,0,1-4-4.82c-.56-1.34-2.18-3.23-2-3.37.55-.47,3.22,1.2,4.69,2.76.69.73,3.19,2.31,4.69,3.57a15.7,15.7,0,0,1,2.76,3.61c-.81,1.62-3.12.38-6.15-1.74"/><path class="cls-7" d="M7.57,29.59a17.27,17.27,0,0,1-5.66-8.1c.4-.4,2.22,1.42,3.72,3,.7.72,3.08,2.36,4.56,3.63a20.55,20.55,0,0,1,2.91,3.54c-.44,1.45-2.6.15-5.52-2"/><path class="cls-8" d="M2.51,22.09c-.14-.21-.41-.36-.61-.6,2.35,1.72,4,4.21,7,6.05.58.36,3.13,2.42,3.53,2.41a3.76,3.76,0,0,1,2,1c.82.81.86,1.78.17,2.31.53-.55.43-1.42-.32-2.17a3.76,3.76,0,0,0-2-1c-.4,0-3-2-3.53-2.4C6.08,26,4.51,23.78,2.51,22.09"/><path class="cls-9" d="M10.15,30.82a24,24,0,0,0-3.61-3.43A12,12,0,0,1,3.45,24a15.79,15.79,0,0,0-1.55-2.5c2.35,1.72,4,4.29,6.9,6.13A35.94,35.94,0,0,1,12.1,30l.23,0a3.76,3.76,0,0,1,2,1c.87.86.86,1.9,0,2.4-.21.15-.46.27-.58.22l0,0a4.86,4.86,0,0,1-1.5-.35,4.13,4.13,0,0,1-1.6-.72c-.34-.32-1.09-1-.49-1.73"/><path class="cls-10" d="M10,31.09l0,0h0l0,0M8.66,27.87A35.89,35.89,0,0,1,12,30.28l.23,0a3.76,3.76,0,0,1,2,1,1.65,1.65,0,0,1,.54,1.85,1.55,1.55,0,0,0-.4-2.09,3.76,3.76,0,0,0-2-1c-.4,0-3-2-3.53-2.4-2.94-1.84-4.55-4.41-6.9-6.13a8.86,8.86,0,0,1,.65.9C4.51,24.07,6.06,26.25,8.66,27.87Z"/><path class="cls-11" d="M10.14,30.8A23.71,23.71,0,0,0,6.55,27.4,11.81,11.81,0,0,1,3.48,24a15.55,15.55,0,0,0-1.54-2.49,14,14,0,0,1,1.22,1c.31.53.51,1,.79,1.44A11.75,11.75,0,0,0,7,27.36a23.6,23.6,0,0,1,3.57,3.4c-.61.68.14,1.4.48,1.72a4.08,4.08,0,0,0,1.59.71c1,.32.67.29.54.3s-.13,0-1-.26a4.11,4.11,0,0,1-1.6-.71c-.33-.32-1.09-1-.48-1.72"/><path class="cls-12" d="M10.37,32.15c-.56-.69-.21-1.47.8-1.75a2.85,2.85,0,0,1,2.8.75c.53.68.17,1.45-.81,1.72a2.87,2.87,0,0,1-2.78-.72"/><path class="cls-13" d="M13.18,30.6c-.2,0-.54-.06-.52-.09a1.23,1.23,0,0,1,.57,0c.2,0,.38.15.35.2s-.2-.05-.39-.1"/><path class="cls-14" d="M13.33,30.58s0,0,0,0l.08,0c.09,0,0-.15-.09-.06"/><path class="cls-14" d="M13.29,30.53h0s0,0,0,0"/><path class="cls-9" d="M11.06,32.28c-.57-.54-.37-1.2.45-1.49a2.64,2.64,0,0,1,2.49.47c.55.53.34,1.19-.46,1.47a2.66,2.66,0,0,1-2.47-.45"/><path class="cls-15" d="M11.55,32.32c-.49-.46-.31-1,.39-1.28a2.27,2.27,0,0,1,2.14.4c.47.46.29,1-.4,1.27a2.28,2.28,0,0,1-2.13-.39"/><path class="cls-13" d="M12.73,31.83c-.38-.23-.5-.53-.28-.67a1.23,1.23,0,0,1,1.09.18c.37.23.5.53.27.67a1.23,1.23,0,0,1-1.08-.17"/><path class="cls-13" d="M13.28,33.37a.3.3,0,0,1,0,.19l-.18,0h0a.53.53,0,0,0,.06-.16h.1"/><path class="cls-13" d="M13.52,33.31a.46.46,0,0,0,.26.31c.19.08.73-.33.75-.46-.24.23-.58.36-.72.3s-.1-.07-.3-.15"/><path class="cls-16" d="M14,33.35s0-.06,0-.06a.09.09,0,0,0-.07.05s0,.06,0,.06a.09.09,0,0,0,.07-.05"/><path class="cls-17" d="M13.3,33.3a1,1,0,0,0,.49.35h.06a1,1,0,0,1-.56-.45h0c-.1.07.05.21,0,.39h0a.58.58,0,0,0,0-.29"/><path class="cls-18" d="M14.6,32.43a.5.5,0,0,0-.6-.22c-.25.07-.39.27-.31.46a.5.5,0,0,0,.6.22c.25-.07.39-.27.31-.46"/><path class="cls-13" d="M14.54,32.44a.44.44,0,0,0-.52-.21.32.32,0,0,0-.26.41.44.44,0,0,0,.52.2.32.32,0,0,0,.26-.41"/><path class="cls-19" d="M14.45,32.48a.34.34,0,0,0-.4-.16.25.25,0,0,0-.2.32.34.34,0,0,0,.4.16.25.25,0,0,0,.2-.32"/><path class="cls-18" d="M14.5,32.62s-.07,0-.13,0-.1.06-.08.09.07,0,.13,0,.1-.06.08-.09"/><path class="cls-18" d="M14,32.77s0,0-.07,0-.05,0,0,0,0,0,.07,0,.05,0,0,0"/><path class="cls-18" d="M14,32.39s-.1-.06-.19,0-.14.08-.13.12.1.06.19,0,.14-.08.13-.12"/><path class="cls-13" d="M14.88,32.3c0-.08-.15-.1-.21-.08s0,.06,0,.13,0,.16.08.14.16-.11.14-.19"/><path class="cls-20" d="M14.84,32.33s-.07,0-.1,0,0,0,0,.06,0,.07,0,.07.08-.05.07-.09"/><path class="cls-10" d="M12.81,29s.06,0,0,.05a.1.1,0,0,1-.09,0s-.06,0,0-.05a.1.1,0,0,1,.09,0m.37.21s0,0,0,0,0,0,0,0,0,0,0,0S13.18,29.16,13.18,29.18Zm-.44-.56a.07.07,0,0,1-.07,0s0,0,0,0a.07.07,0,0,1,.07,0S12.75,28.6,12.74,28.62Zm-.5-.06a.08.08,0,0,1-.08,0s0,0,0-.05a.08.08,0,0,1,.08,0S12.27,28.54,12.24,28.56Zm.23-.2a.08.08,0,0,1-.08,0s-.05,0,0,0a.08.08,0,0,1,.08,0S12.48,28.34,12.47,28.36Zm.67,1.16a.13.13,0,0,1-.13,0s0-.06,0-.08a.13.13,0,0,1,.13,0S13.18,29.5,13.14,29.52Zm.31.19a.11.11,0,0,1-.11,0s-.07,0-.05-.06a.11.11,0,0,1,.11,0S13.47,29.68,13.45,29.71Zm.08.35a.09.09,0,0,1-.09,0s0,0,0-.05a.09.09,0,0,1,.09,0S13.55,30,13.53,30.06ZM12,27.9a.07.07,0,0,1-.07,0s0,0,0,0a.07.07,0,0,1,.07,0S12,27.88,12,27.9Zm-.05.22a.1.1,0,0,1-.1,0s-.06,0,0-.06a.1.1,0,0,1,.1,0S12,28.09,12,28.11Zm-.29-.5s0,.06-.09.06-.08,0-.08,0,0-.06.09-.06S11.68,27.59,11.68,27.62Zm-.25-.34a.08.08,0,0,1-.08,0s0,0,0,0a.08.08,0,0,1,.08,0S11.44,27.26,11.43,27.28Zm-.41.1a.06.06,0,0,1-.06,0s0,0,0,0a.06.06,0,0,1,.06,0S11,27.36,11,27.38Zm.72.07a.06.06,0,0,1-.05,0s0,0,0,0h.05S11.76,27.43,11.75,27.44ZM10.8,27s0,.06-.09.06-.08,0-.08-.05,0-.06.09-.06S10.8,27,10.8,27Zm.37,0a.09.09,0,0,1-.08,0s-.05,0,0,0a.09.09,0,0,1,.08,0S11.18,26.92,11.17,26.94Zm-1.25-.52a.22.22,0,0,1-.22,0c-.06,0-.05-.1,0-.14a.22.22,0,0,1,.22,0C10,26.31,10,26.38,9.92,26.42Zm.36.06a.09.09,0,0,1-.09,0s-.06,0,0-.05a.09.09,0,0,1,.09,0S10.29,26.46,10.28,26.48ZM9.11,25.8a.1.1,0,0,1-.09,0s0,0,0-.06a.1.1,0,0,1,.09,0S9.14,25.78,9.11,25.8Zm-1-.55a.15.15,0,0,1-.15,0c-.05,0-.06-.06,0-.09a.15.15,0,0,1,.15,0C8.11,25.17,8.13,25.22,8.09,25.25Zm.62.2s0,.07-.08.08-.11,0-.12,0,0-.07.08-.08S8.7,25.42,8.71,25.45Zm3.86,3.43s0,.05-.08.05-.07,0-.07,0,0-.05.08-.05S12.57,28.85,12.57,28.88Z"/><path class="cls-10" d="M7,29.7s0,0,.06.05a.09.09,0,0,0,.09,0s0,0-.06,0a.09.09,0,0,0-.09,0m.14.32a.06.06,0,0,0,.05,0s0,0,0,0a.06.06,0,0,0-.05,0S7.12,30,7.14,30Zm-.61-.5a.06.06,0,0,0,.06,0s0,0,0,0a.06.06,0,0,0-.06,0S6.51,29.51,6.53,29.51Zm.11-.34s0,0,0,0a.06.06,0,0,0-.07,0s0,0,0,0A.06.06,0,0,0,6.65,29.17Zm-.37.06a.08.08,0,0,0,.08,0s0,0-.05,0a.08.08,0,0,0-.08,0S6.24,29.24,6.28,29.24Zm1.35.89s.08-.05.06-.08a.11.11,0,0,0-.12,0s-.08.05-.06.08A.11.11,0,0,0,7.63,30.13Zm.14.27a.1.1,0,0,0,.1-.05s0-.06-.07-.06a.1.1,0,0,0-.1.05S7.73,30.4,7.77,30.4Zm.46.19s.06,0,.06,0,0,0-.07,0-.06,0-.06,0S8.19,30.6,8.23,30.59ZM5.81,28.77s0,0,0,0,0,0-.05,0,0,0,0,0S5.79,28.77,5.81,28.77Zm.32.05a.09.09,0,0,0,.09,0s0-.05-.06-.05a.09.09,0,0,0-.09,0S6.09,28.82,6.14,28.82Zm-.58-.38a.12.12,0,0,0,.11,0s0-.06,0-.07a.12.12,0,0,0-.11,0S5.52,28.43,5.56,28.44Zm-.38-.29a.07.07,0,0,0,.07,0s0,0,0,0a.07.07,0,0,0-.07,0S5.15,28.14,5.18,28.15Zm.3-.22a.06.06,0,0,0,.06,0s0,0,0,0a.06.06,0,0,0-.06,0S5.45,27.93,5.48,27.93Zm-.19.49s0,0,0,0,0,0,0,0,0,0,0,0S5.27,28.42,5.29,28.41ZM5,27.63a.12.12,0,0,0,.12,0s0-.06,0-.07a.12.12,0,0,0-.12,0S5,27.62,5,27.63Zm-.21.22a.08.08,0,0,0,.08,0s0,0-.05,0a.08.08,0,0,0-.08,0S4.78,27.85,4.82,27.85Zm-.23-1c.08,0,.13-.09.1-.14a.18.18,0,0,0-.2,0c-.08,0-.13.09-.1.14A.19.19,0,0,0,4.58,26.84Zm-.06.25a.09.09,0,0,0,.09,0s0,0-.06-.05a.09.09,0,0,0-.09,0S4.49,27.09,4.53,27.1Zm-.49-1s.05,0,0-.06A.08.08,0,0,0,4,26s-.06,0,0,.06A.08.08,0,0,0,4,26.08Zm-.37-.87c.06,0,.11,0,.1-.08s-.06-.06-.12-.06-.11,0-.1.08S3.61,25.22,3.67,25.22Zm0,.47a.15.15,0,0,0,.14,0,0,0,0,0,0,0-.09.15.15,0,0,0-.14,0A0,0,0,0,0,3.71,25.69ZM7,29.51a.11.11,0,0,0,.1,0s0-.05,0-.06a.11.11,0,0,0-.1,0S6.92,29.5,7,29.51Z"/><path class="cls-10" d="M6.15,24.4s-.06,0-.05-.06a.09.09,0,0,1,.1,0s.06,0,.05.06a.09.09,0,0,1-.09,0m-.42-.22s0,0,0,0,0,0,0,0,0,0,0,0S5.73,24.2,5.73,24.19Zm.52.59a.07.07,0,0,1,.07,0s0,0,0,0a.07.07,0,0,1-.07,0S6.25,24.79,6.26,24.78Zm.53.06a.08.08,0,0,1,.08,0s0,0,0,.05a.08.08,0,0,1-.08,0S6.76,24.85,6.79,24.83ZM6.57,25a.08.08,0,0,1,.08,0s.06,0,0,0a.08.08,0,0,1-.08,0S6.56,25.07,6.57,25Zm-.83-1.23a.14.14,0,0,1,.14,0s0,.06,0,.09a.14.14,0,0,1-.14,0S5.7,23.84,5.74,23.81Zm-.36-.2a.11.11,0,0,1,.11,0s.08,0,.06.07a.11.11,0,0,1-.11,0S5.36,23.64,5.38,23.61Zm-.13-.38a.09.09,0,0,1,.09,0s0,0,0,.06a.09.09,0,0,1-.09,0S5.23,23.25,5.25,23.23Zm1.83,2.29a.07.07,0,0,1,.07,0s0,0,0,0a.07.07,0,0,1-.07,0S7.06,25.53,7.08,25.52Zm0-.22a.1.1,0,0,1,.1,0s.07,0,.05.06a.1.1,0,0,1-.1,0S7.1,25.32,7.12,25.29Zm.34.51s0-.06.09-.06.08,0,.08,0,0,.06-.09.06S7.46,25.83,7.46,25.8Zm.29.34a.08.08,0,0,1,.07,0s.05,0,0,0a.08.08,0,0,1-.07,0S7.73,26.16,7.74,26.14ZM8.15,26a.06.06,0,0,1,.06,0s0,0,0,0a.06.06,0,0,1-.06,0S8.15,26,8.15,26ZM7.4,26a.06.06,0,0,1,.06,0s0,0,0,0a.06.06,0,0,1-.06,0S7.39,26,7.4,26Zm1,.44s0-.06.09-.06.09,0,.09.05,0,.06-.09.06S8.41,26.45,8.41,26.42ZM8,26.48a.08.08,0,0,1,.08,0s.06,0,0,0a.08.08,0,0,1-.08,0S8,26.5,8,26.48ZM9.34,27a.23.23,0,0,1,.22,0c.06,0,.06.1,0,.14a.23.23,0,0,1-.22,0C9.27,27.07,9.28,27,9.34,27ZM9,26.92a.09.09,0,0,1,.09,0s.06,0,0,.05A.09.09,0,0,1,9,27S9,26.94,9,26.92Zm1.2.64a.1.1,0,0,1,.09,0s0,0,0,.06a.1.1,0,0,1-.09,0S10.15,27.57,10.18,27.56Zm1,.5a.15.15,0,0,1,.14,0s.06.05,0,.09a.15.15,0,0,1-.14,0S11.17,28.09,11.2,28.06Zm-.61-.17s0-.07.07-.08.1,0,.12,0,0,.07-.07.08S10.6,27.91,10.59,27.88ZM6.41,24.5s0-.05.08-.06.08,0,.08,0,0,.05-.08.06S6.41,24.53,6.41,24.5Z"/><path class="cls-10" d="M5.39,26.75s-.06,0,0-.06a.1.1,0,0,1,.1,0s.06,0,0,.06a.1.1,0,0,1-.1,0M5,26.51s0,0,0,0,0,0,0,0,0,0,0,0S5,26.53,5,26.51Zm.4.62a.07.07,0,0,1,.07,0s0,0,0,0a.07.07,0,0,1-.07,0S5.41,27.15,5.43,27.13Zm.51.09a.08.08,0,0,1,.08,0s0,0,0,.05a.08.08,0,0,1-.08,0S5.91,27.23,5.93,27.22Zm-.25.2a.09.09,0,0,1,.09,0s0,0,0,.05a.09.09,0,0,1-.09,0S5.66,27.44,5.68,27.42Zm-.59-1.27a.14.14,0,0,1,.14,0s0,.06,0,.09a.14.14,0,0,1-.14,0S5,26.17,5.09,26.15Zm-.31-.22a.12.12,0,0,1,.12,0s.07,0,0,.07a.12.12,0,0,1-.12,0S4.76,26,4.78,25.92Zm-.05-.39a.09.09,0,0,1,.09,0s0,0,0,.06a.09.09,0,0,1-.09,0S4.7,25.56,4.73,25.54Zm1.37,2.38a.07.07,0,0,1,.07,0s0,0,0,0a.07.07,0,0,1-.07,0A0,0,0,0,1,6.09,27.92Zm.08-.22a.11.11,0,0,1,.1,0s.06,0,0,.06a.11.11,0,0,1-.1,0S6.15,27.72,6.17,27.7Zm.24.52s0-.05.1-.05.08,0,.07.05,0,.05-.1.05S6.4,28.25,6.41,28.22Zm.22.36a.08.08,0,0,1,.08,0s0,0,0,0a.08.08,0,0,1-.08,0S6.61,28.6,6.63,28.58ZM7,28.5a.07.07,0,0,1,.07,0s0,0,0,0a.07.07,0,0,1-.06,0S7,28.51,7,28.5Zm-.72-.1a.06.06,0,0,1,.06,0,0,0,0,0,1,0,0,.06.06,0,0,1-.06,0A0,0,0,0,1,6.32,28.39Zm.9.5s.05-.06.1-.06.08,0,.07.06-.05.06-.1.06S7.22,28.93,7.22,28.9Zm-.37,0a.09.09,0,0,1,.09,0s0,0,0,.05a.09.09,0,0,1-.09,0S6.84,28.95,6.85,28.93ZM8,29.5a.22.22,0,0,1,.22,0c.05,0,0,.1,0,.14a.22.22,0,0,1-.22,0C7.95,29.6,8,29.54,8,29.5Zm-.35-.07a.1.1,0,0,1,.09,0s.05,0,0,.06a.1.1,0,0,1-.09,0S7.67,29.45,7.68,29.43Zm1.06.71a.09.09,0,0,1,.09,0s0,0,0,.06a.09.09,0,0,1-.09,0S8.71,30.15,8.74,30.14Zm.9.56a.15.15,0,0,1,.15,0,0,0,0,0,1,0,.09.15.15,0,0,1-.15,0A0,0,0,0,1,9.64,30.7Zm-.56-.21s0-.07.08-.07.1,0,.11,0,0,.07-.08.07S9.09,30.52,9.08,30.49ZM5.62,26.87s0-.05.09,0,.07,0,.07.05,0,.05-.09,0S5.62,26.9,5.62,26.87Z"/><path class="cls-4" d="M6.87,42.4a9,9,0,0,1-3.69-5c-.32-1.45-1.85-3.39-1.6-3.57.85-.61,3.79.93,5.22,2.51.67.74,3.42,2.2,5,3.43a10.69,10.69,0,0,1,2.49,3.74c-1.52,2-4.13.86-7.4-1.16"/><path class="cls-5" d="M4.48,40.22a7.51,7.51,0,0,1-1.36-2.75A9.92,9.92,0,0,0,2,35c-.35-.6-.6-1.05-.47-1.14l.12-.07a2,2,0,0,1,1.26.07,8.07,8.07,0,0,1,1.67.76A9.74,9.74,0,0,1,6.8,36.4,15,15,0,0,0,9.15,38c.92.58,1.9,1.2,2.63,1.78a6.68,6.68,0,0,1,1.45,1.7,8.48,8.48,0,0,0,1.25,1.88,2,2,0,0,1,.66,1.23,1.33,1.33,0,0,1-.54,1.11l-.11.09-.12.08a1.77,1.77,0,0,1-.36.2.38.38,0,0,1-.26,0h0a3.62,3.62,0,0,1-1.2-.26l-.31-.1L12,45.72a3.62,3.62,0,0,1-1.43-.67,4.08,4.08,0,0,1-.39-.41c-.69-.86-.57-.63-1.77-1.27-.52-.28-1.06-.6-1.61-.94a9,9,0,0,1-2.34-2.22m4,3.12a16.08,16.08,0,0,0,1.47.71h0a1.51,1.51,0,0,0,.3.56,4.06,4.06,0,0,0,.38.41,3.58,3.58,0,0,0,1.41.66l.18.05.31.1a3.53,3.53,0,0,0,1.18.25h.06a.3.3,0,0,0,.2,0,1.69,1.69,0,0,0,.34-.19h0l.12-.08.11-.09h0a1.17,1.17,0,0,0,.47-1,2,2,0,0,0-.65-1.24l-.17-.16L14,43.14h0a13.53,13.53,0,0,0-.84-1.59,6.65,6.65,0,0,0-1.44-1.69C11,39.28,10,38.66,9.1,38.08a15,15,0,0,1-2.35-1.66,9.7,9.7,0,0,0-2.22-1.74,8,8,0,0,0-1.65-.75,1.9,1.9,0,0,0-1.19-.08l-.11.06c-.1.07.15.51.49,1.1a9.94,9.94,0,0,1,1.12,2.45,7.49,7.49,0,0,0,1.36,2.74A9,9,0,0,0,6.87,42.4C7.42,42.75,8,43.06,8.48,43.34Z"/><path class="cls-6" d="M7.59,42.06a13.06,13.06,0,0,1-4-4.82c-.56-1.34-2.18-3.23-2-3.37.55-.47,3.22,1.2,4.69,2.76C7,37.36,9.47,38.94,11,40.2a15.7,15.7,0,0,1,2.76,3.61c-.81,1.62-3.12.38-6.15-1.74"/><path class="cls-7" d="M7.57,42.07A17.27,17.27,0,0,1,1.91,34c.4-.4,2.22,1.42,3.72,3,.7.72,3.08,2.36,4.56,3.63a20.55,20.55,0,0,1,2.91,3.54c-.44,1.45-2.6.15-5.52-2"/><path class="cls-8" d="M2.51,34.57c-.14-.21-.41-.36-.61-.6,2.35,1.72,4,4.21,7,6.05.58.36,3.13,2.42,3.53,2.41a3.76,3.76,0,0,1,2,1c.82.81.86,1.78.17,2.31.53-.55.43-1.42-.32-2.17a3.76,3.76,0,0,0-2-1c-.4,0-3-2-3.53-2.4-2.65-1.66-4.22-3.91-6.22-5.6"/><path class="cls-9" d="M10.15,43.3a24,24,0,0,0-3.61-3.43,12,12,0,0,1-3.09-3.4A15.79,15.79,0,0,0,1.9,34c2.35,1.72,4,4.29,6.9,6.13a35.94,35.94,0,0,1,3.3,2.42l.23,0a3.76,3.76,0,0,1,2,1c.87.86.86,1.9,0,2.4-.21.15-.46.27-.58.22l0,0a4.86,4.86,0,0,1-1.5-.35,4.13,4.13,0,0,1-1.6-.72c-.34-.32-1.09-1-.49-1.73"/><path class="cls-10" d="M10,43.57l0,0h0l0,0M8.66,40.35A35.89,35.89,0,0,1,12,42.76l.23,0a3.76,3.76,0,0,1,2,1,1.65,1.65,0,0,1,.54,1.85,1.55,1.55,0,0,0-.4-2.09,3.76,3.76,0,0,0-2-1c-.4,0-3-2-3.53-2.4C5.86,38.26,4.26,35.69,1.91,34a8.86,8.86,0,0,1,.65.9C4.51,36.54,6.06,38.73,8.66,40.35Z"/><path class="cls-11" d="M10.14,43.28a23.71,23.71,0,0,0-3.59-3.41,11.81,11.81,0,0,1-3.07-3.38A15.55,15.55,0,0,0,1.95,34a14,14,0,0,1,1.22,1c.31.53.51,1,.79,1.44A11.75,11.75,0,0,0,7,39.84a23.6,23.6,0,0,1,3.57,3.4c-.61.68.14,1.4.48,1.72a4.08,4.08,0,0,0,1.59.71c1,.32.67.29.54.3s-.13,0-1-.26a4.11,4.11,0,0,1-1.6-.71c-.33-.32-1.09-1-.48-1.72"/><path class="cls-12" d="M10.37,44.63c-.56-.69-.21-1.47.8-1.75a2.85,2.85,0,0,1,2.8.75c.53.68.17,1.45-.81,1.72a2.87,2.87,0,0,1-2.78-.72"/><path class="cls-13" d="M13.18,43.08c-.2,0-.54-.06-.52-.09a1.23,1.23,0,0,1,.57,0c.2,0,.38.15.35.2s-.2-.05-.39-.1"/><path class="cls-14" d="M13.33,43.06s0,0,0,0l.08,0c.09,0,0-.15-.09-.06"/><path class="cls-14" d="M13.29,43h0s0,0,0,0"/><path class="cls-9" d="M11.06,44.76c-.57-.54-.37-1.2.45-1.49a2.64,2.64,0,0,1,2.49.47c.55.53.34,1.19-.46,1.47a2.66,2.66,0,0,1-2.47-.45"/><path class="cls-15" d="M11.55,44.8c-.49-.46-.31-1,.39-1.28a2.27,2.27,0,0,1,2.14.4c.47.46.29,1-.4,1.27a2.28,2.28,0,0,1-2.13-.39"/><path class="cls-13" d="M12.73,44.31c-.38-.23-.5-.53-.28-.67a1.23,1.23,0,0,1,1.09.18c.37.23.5.53.27.67a1.23,1.23,0,0,1-1.08-.17"/><path class="cls-13" d="M13.28,45.85a.3.3,0,0,1,0,.19l-.18,0h0a.53.53,0,0,0,.06-.16h.1"/><path class="cls-13" d="M13.52,45.79a.46.46,0,0,0,.26.31c.19.08.73-.33.75-.46-.24.23-.58.36-.72.3s-.1-.07-.3-.15"/><path class="cls-16" d="M14,45.83s0-.06,0-.06a.09.09,0,0,0-.07.05s0,.06,0,.06a.09.09,0,0,0,.07-.05"/><path class="cls-17" d="M13.3,45.77a1,1,0,0,0,.49.35h.06a1,1,0,0,1-.56-.45h0c-.1.07.05.21,0,.39h0a.58.58,0,0,0,0-.29"/><path class="cls-18" d="M14.6,44.91a.5.5,0,0,0-.6-.22c-.25.07-.39.27-.31.46a.5.5,0,0,0,.6.22c.25-.07.39-.27.31-.46"/><path class="cls-13" d="M14.54,44.91a.44.44,0,0,0-.52-.21.32.32,0,0,0-.26.41.44.44,0,0,0,.52.2.32.32,0,0,0,.26-.41"/><path class="cls-19" d="M14.45,45a.34.34,0,0,0-.4-.16.25.25,0,0,0-.2.32.34.34,0,0,0,.4.16.25.25,0,0,0,.2-.32"/><path class="cls-18" d="M14.5,45.1s-.07,0-.13,0-.1.06-.08.09.07,0,.13,0,.1-.06.08-.09"/><path class="cls-18" d="M14,45.25s0,0-.07,0-.05,0,0,0,0,0,.07,0,.05,0,0,0"/><path class="cls-18" d="M14,44.87s-.1-.06-.19,0-.14.08-.13.12.1.06.19,0,.14-.08.13-.12"/><path class="cls-13" d="M14.88,44.78c0-.08-.15-.1-.21-.08s0,.06,0,.13,0,.16.08.14.16-.11.14-.19"/><path class="cls-20" d="M14.84,44.8s-.07,0-.1,0,0,0,0,.06,0,.07,0,.07.08-.05.07-.09"/><path class="cls-10" d="M12.81,41.45s.06,0,0,.05a.1.1,0,0,1-.09,0s-.06,0,0-.05a.1.1,0,0,1,.09,0m.37.21s0,0,0,0,0,0,0,0,0,0,0,0S13.18,41.64,13.18,41.66Zm-.44-.56a.07.07,0,0,1-.07,0s0,0,0,0a.07.07,0,0,1,.07,0S12.75,41.08,12.74,41.1Zm-.5-.06a.08.08,0,0,1-.08,0s0,0,0-.05a.08.08,0,0,1,.08,0S12.27,41,12.24,41Zm.23-.2a.08.08,0,0,1-.08,0s-.05,0,0,0a.08.08,0,0,1,.08,0S12.48,40.82,12.47,40.84ZM13.14,42A.13.13,0,0,1,13,42s0-.06,0-.08a.13.13,0,0,1,.13,0S13.18,42,13.14,42Zm.31.19a.11.11,0,0,1-.11,0s-.07,0-.05-.06a.11.11,0,0,1,.11,0S13.47,42.16,13.45,42.19Zm.08.35a.09.09,0,0,1-.09,0s0,0,0-.05a.09.09,0,0,1,.09,0S13.55,42.52,13.53,42.54ZM12,40.38a.07.07,0,0,1-.07,0s0,0,0,0a.07.07,0,0,1,.07,0S12,40.36,12,40.38Zm-.05.22a.1.1,0,0,1-.1,0s-.06,0,0-.06a.1.1,0,0,1,.1,0S12,40.57,12,40.59Zm-.29-.5s0,.06-.09.06-.08,0-.08,0,0-.06.09-.06S11.68,40.07,11.68,40.1Zm-.25-.34a.08.08,0,0,1-.08,0s0,0,0,0a.08.08,0,0,1,.08,0S11.44,39.74,11.43,39.76Zm-.41.1a.06.06,0,0,1-.06,0s0,0,0,0a.06.06,0,0,1,.06,0S11,39.84,11,39.86Zm.72.07a.06.06,0,0,1-.05,0s0,0,0,0h.05S11.76,39.91,11.75,39.92Zm-.95-.46s0,.06-.09.06-.08,0-.08-.05,0-.06.09-.06S10.8,39.44,10.8,39.47Zm.37,0a.09.09,0,0,1-.08,0s-.05,0,0,0a.09.09,0,0,1,.08,0S11.18,39.4,11.17,39.42ZM9.92,38.9a.22.22,0,0,1-.22,0c-.06,0-.05-.1,0-.14a.22.22,0,0,1,.22,0C10,38.79,10,38.86,9.92,38.9Zm.36.06a.09.09,0,0,1-.09,0s-.06,0,0-.05a.09.09,0,0,1,.09,0S10.29,38.94,10.28,39Zm-1.17-.68a.1.1,0,0,1-.09,0s0,0,0-.06a.1.1,0,0,1,.09,0S9.14,38.26,9.11,38.28Zm-1-.55a.15.15,0,0,1-.15,0c-.05,0-.06-.06,0-.09a.15.15,0,0,1,.15,0C8.11,37.65,8.13,37.69,8.09,37.73Zm.62.2s0,.07-.08.08-.11,0-.12,0,0-.07.08-.08S8.7,37.9,8.71,37.93Zm3.86,3.43s0,.05-.08.05-.07,0-.07,0,0-.05.08-.05S12.57,41.33,12.57,41.36Z"/><path class="cls-10" d="M7,42.18s0,0,.06.05a.09.09,0,0,0,.09,0s0,0-.06,0a.09.09,0,0,0-.09,0m.14.32a.06.06,0,0,0,.05,0s0,0,0,0a.06.06,0,0,0-.05,0S7.12,42.49,7.14,42.49ZM6.53,42a.06.06,0,0,0,.06,0s0,0,0,0a.06.06,0,0,0-.06,0S6.51,42,6.53,42Zm.11-.34s0,0,0,0a.06.06,0,0,0-.07,0s0,0,0,0A.06.06,0,0,0,6.65,41.65Zm-.37.06a.08.08,0,0,0,.08,0s0,0-.05,0a.08.08,0,0,0-.08,0S6.24,41.72,6.28,41.72Zm1.35.89s.08-.05.06-.08a.11.11,0,0,0-.12,0s-.08.05-.06.08A.11.11,0,0,0,7.63,42.61Zm.14.27a.1.1,0,0,0,.1-.05s0-.06-.07-.06a.1.1,0,0,0-.1.05S7.73,42.88,7.77,42.88Zm.46.19s.06,0,.06,0,0,0-.07,0-.06,0-.06,0S8.19,43.07,8.23,43.07ZM5.81,41.25s0,0,0,0,0,0-.05,0,0,0,0,0S5.79,41.25,5.81,41.25Zm.32.05a.09.09,0,0,0,.09,0s0-.05-.06-.05a.09.09,0,0,0-.09,0S6.09,41.3,6.14,41.3Zm-.58-.38a.12.12,0,0,0,.11,0s0-.06,0-.07a.12.12,0,0,0-.11,0S5.52,40.91,5.56,40.92Zm-.38-.29a.07.07,0,0,0,.07,0s0,0,0,0a.07.07,0,0,0-.07,0S5.15,40.62,5.18,40.63Zm.3-.22a.06.06,0,0,0,.06,0s0,0,0,0a.06.06,0,0,0-.06,0S5.45,40.41,5.48,40.41Zm-.19.49s0,0,0,0,0,0,0,0,0,0,0,0S5.27,40.9,5.29,40.89ZM5,40.11a.12.12,0,0,0,.12,0s0-.06,0-.07A.12.12,0,0,0,5,40S5,40.1,5,40.11Zm-.21.22a.08.08,0,0,0,.08,0s0,0-.05,0a.08.08,0,0,0-.08,0S4.78,40.32,4.82,40.33Zm-.23-1c.08,0,.13-.09.1-.14a.18.18,0,0,0-.2,0c-.08,0-.13.09-.1.14A.19.19,0,0,0,4.58,39.32Zm-.06.25a.09.09,0,0,0,.09,0s0,0-.06-.05a.09.09,0,0,0-.09,0S4.49,39.57,4.53,39.57Zm-.49-1s.05,0,0-.06a.08.08,0,0,0-.09,0s-.06,0,0,.06A.08.08,0,0,0,4,38.56Zm-.37-.87c.06,0,.11,0,.1-.08s-.06-.06-.12-.06-.11,0-.1.08S3.61,37.7,3.67,37.7Zm0,.47a.15.15,0,0,0,.14,0,0,0,0,0,0,0-.09.15.15,0,0,0-.14,0A0,0,0,0,0,3.71,38.17ZM7,42a.11.11,0,0,0,.1,0s0-.05,0-.06a.11.11,0,0,0-.1,0S6.92,42,7,42Z"/><path class="cls-10" d="M6.15,36.88s-.06,0-.05-.06a.09.09,0,0,1,.1,0s.06,0,.05.06a.09.09,0,0,1-.09,0m-.42-.22s0,0,0,0,0,0,0,0,0,0,0,0S5.73,36.68,5.73,36.66Zm.52.59a.07.07,0,0,1,.07,0s0,0,0,0a.07.07,0,0,1-.07,0S6.25,37.27,6.26,37.25Zm.53.06a.08.08,0,0,1,.08,0s0,0,0,.05a.08.08,0,0,1-.08,0S6.76,37.33,6.79,37.31Zm-.22.21a.08.08,0,0,1,.08,0s.06,0,0,0a.08.08,0,0,1-.08,0S6.56,37.55,6.57,37.52Zm-.83-1.23a.14.14,0,0,1,.14,0s0,.06,0,.09a.14.14,0,0,1-.14,0S5.7,36.32,5.74,36.29Zm-.36-.2a.11.11,0,0,1,.11,0s.08,0,.06.07a.11.11,0,0,1-.11,0S5.36,36.12,5.38,36.09Zm-.13-.38a.09.09,0,0,1,.09,0s0,0,0,.06a.09.09,0,0,1-.09,0S5.23,35.73,5.25,35.71ZM7.08,38a.07.07,0,0,1,.07,0s0,0,0,0a.07.07,0,0,1-.07,0S7.06,38,7.08,38Zm0-.22a.1.1,0,0,1,.1,0s.07,0,.05.06a.1.1,0,0,1-.1,0S7.1,37.8,7.12,37.77Zm.34.51s0-.06.09-.06.08,0,.08,0,0,.06-.09.06S7.46,38.31,7.46,38.28Zm.29.34a.08.08,0,0,1,.07,0s.05,0,0,0a.08.08,0,0,1-.07,0S7.73,38.64,7.74,38.62Zm.41-.11a.06.06,0,0,1,.06,0s0,0,0,0a.06.06,0,0,1-.06,0S8.15,38.53,8.15,38.51Zm-.75-.05a.06.06,0,0,1,.06,0s0,0,0,0a.06.06,0,0,1-.06,0S7.39,38.47,7.4,38.46Zm1,.44s0-.06.09-.06.09,0,.09.05,0,.06-.09.06S8.41,38.93,8.41,38.9ZM8,39a.08.08,0,0,1,.08,0s.06,0,0,0a.08.08,0,0,1-.08,0S8,39,8,39Zm1.31.49a.23.23,0,0,1,.22,0c.06,0,.06.1,0,.14a.23.23,0,0,1-.22,0C9.27,39.55,9.28,39.49,9.34,39.45ZM9,39.4a.09.09,0,0,1,.09,0s.06,0,0,.05a.09.09,0,0,1-.09,0S9,39.42,9,39.4Zm1.2.64a.1.1,0,0,1,.09,0s0,0,0,.06a.1.1,0,0,1-.09,0S10.15,40.05,10.18,40Zm1,.5a.15.15,0,0,1,.14,0s.06.05,0,.09a.15.15,0,0,1-.14,0S11.17,40.57,11.2,40.54Zm-.61-.17s0-.07.07-.08.1,0,.12,0,0,.07-.07.08S10.6,40.39,10.59,40.36ZM6.41,37s0-.05.08-.06.08,0,.08,0,0,.05-.08.06S6.41,37,6.41,37Z"/><path class="cls-10" d="M5.39,39.23s-.06,0,0-.06a.1.1,0,0,1,.1,0s.06,0,0,.06a.1.1,0,0,1-.1,0M5,39s0,0,0,0,0,0,0,0,0,0,0,0S5,39,5,39Zm.4.62a.07.07,0,0,1,.07,0s0,0,0,0a.07.07,0,0,1-.07,0S5.41,39.63,5.43,39.61Zm.51.09a.08.08,0,0,1,.08,0s0,0,0,.05a.08.08,0,0,1-.08,0S5.91,39.71,5.93,39.7Zm-.25.2a.09.09,0,0,1,.09,0s0,0,0,.05a.09.09,0,0,1-.09,0S5.66,39.92,5.68,39.9Zm-.59-1.27a.14.14,0,0,1,.14,0s0,.06,0,.09a.14.14,0,0,1-.14,0S5,38.65,5.09,38.63Zm-.31-.22a.12.12,0,0,1,.12,0s.07,0,0,.07a.12.12,0,0,1-.12,0S4.76,38.43,4.78,38.4ZM4.73,38a.09.09,0,0,1,.09,0s0,0,0,.06a.09.09,0,0,1-.09,0S4.7,38,4.73,38ZM6.09,40.4a.07.07,0,0,1,.07,0s0,0,0,0a.07.07,0,0,1-.07,0A0,0,0,0,1,6.09,40.4Zm.08-.22a.11.11,0,0,1,.1,0s.06,0,0,.06a.11.11,0,0,1-.1,0S6.15,40.2,6.17,40.18Zm.24.52s0-.05.1-.05.08,0,.07.05,0,.05-.1.05S6.4,40.73,6.41,40.7Zm.22.36a.08.08,0,0,1,.08,0s0,0,0,0a.08.08,0,0,1-.08,0S6.61,41.08,6.63,41.06ZM7,41a.07.07,0,0,1,.07,0s0,0,0,0a.07.07,0,0,1-.06,0S7,41,7,41Zm-.72-.1a.06.06,0,0,1,.06,0,0,0,0,0,1,0,0,.06.06,0,0,1-.06,0A0,0,0,0,1,6.32,40.87Zm.9.5s.05-.06.1-.06.08,0,.07.06-.05.06-.1.06S7.22,41.41,7.22,41.38Zm-.37,0a.09.09,0,0,1,.09,0s0,0,0,.05a.09.09,0,0,1-.09,0S6.84,41.43,6.85,41.41ZM8,42a.22.22,0,0,1,.22,0c.05,0,0,.1,0,.14a.22.22,0,0,1-.22,0C7.95,42.08,8,42,8,42Zm-.35-.07a.1.1,0,0,1,.09,0s.05,0,0,.06a.1.1,0,0,1-.09,0S7.67,41.93,7.68,41.9Zm1.06.71a.09.09,0,0,1,.09,0s0,0,0,.06a.09.09,0,0,1-.09,0S8.71,42.63,8.74,42.62Zm.9.56a.15.15,0,0,1,.15,0,0,0,0,0,1,0,.09.15.15,0,0,1-.15,0A0,0,0,0,1,9.64,43.18ZM9.08,43s0-.07.08-.07.1,0,.11,0,0,.07-.08.07S9.09,43,9.08,43ZM5.62,39.35s0-.05.09,0,.07,0,.07.05,0,.05-.09,0S5.62,39.37,5.62,39.35Z"/></svg>