<svg id="Layer_1" data-name="Layer 1" xmlns="http://www.w3.org/2000/svg" xmlns:xlink="http://www.w3.org/1999/xlink" viewBox="0 0 61.97 62.44"><defs><style>.cls-1{fill:url(#radial-gradient);}.cls-2{fill:url(#linear-gradient);}.cls-3{fill:url(#linear-gradient-2);}.cls-4{fill:#78866c;}.cls-10,.cls-11,.cls-12,.cls-13,.cls-14,.cls-15,.cls-16,.cls-17,.cls-18,.cls-19,.cls-20,.cls-4,.cls-6,.cls-7,.cls-8,.cls-9{fill-rule:evenodd;}.cls-10,.cls-5{fill:#303c36;}.cls-6{fill:#84a18f;}.cls-7{fill:#9dad90;}.cls-8{fill:#192121;}.cls-9{fill:#333633;}.cls-11{fill:#384240;}.cls-12{fill:#242424;}.cls-13{fill:#4b5c5a;}.cls-14{fill:#fff;}.cls-15{fill:#3e4b4a;}.cls-16{fill:#151515;}.cls-18{fill:#f9fae8;}.cls-19{fill:#0e1f26;}.cls-20{fill:#c9e8e7;}</style><radialGradient id="radial-gradient" cx="-37.37" cy="-606.78" r="34.3" gradientTransform="matrix(0, 1.03, 1.03, 0, 664.91, 76.74)" gradientUnits="userSpaceOnUse"><stop offset="0" stop-color="#afce22"/><stop offset="1" stop-color="#81bf2e"/></radialGradient><linearGradient id="linear-gradient" x1="-66.93" y1="-585.17" x2="-51.41" y2="-583.26" gradientTransform="matrix(0, 1, 1, 0, 615.17, 65.77)" gradientUnits="userSpaceOnUse"><stop offset="0" stop-color="#81bf2e"/><stop offset="0.36" stop-color="#98c728"/><stop offset="0.72" stop-color="#a9cc24"/><stop offset="1" stop-color="#afce22"/></linearGradient><linearGradient id="linear-gradient-2" x1="-35.19" y1="-616.73" x2="-33.92" y2="-600.57" xlink:href="#linear-gradient"/></defs><title>tadpol-square-prism</title><rect class="cls-1" x="13.31" y="13.77" width="48.66" height="48.67"/><polygon class="cls-2" points="48.66 0 61.97 13.77 13.31 13.77 0 0 48.66 0"/><polygon class="cls-3" points="0 0 13.31 13.77 13.31 62.44 0 48.67 0 0"/><path class="cls-4" d="M46.87,40.82c-3.28,4.83-11.11,11-18.43,13.49-5.45,1.82-12.12,7-12.88,6.47C13,59,17.5,50.45,23,45.57c2.6-2.32,7.27-10.86,11.61-16.17S48.89,19.33,49.15,19.06c8.87,2.56,5,11-2.28,21.76"/><path class="cls-5" d="M38.85,48.92a39,39,0,0,1-10.3,5.53A49.88,49.88,0,0,0,19.67,59c-2.12,1.27-3.69,2.2-4.08,1.94a1.6,1.6,0,0,1-.3-.27c-.58-.66-.62-1.82-.25-3.24a19.19,19.19,0,0,1,2.16-4.78A31.75,31.75,0,0,1,23,45.55c1.37-1.22,3.33-4.19,5.51-7.51,1.94-2.94,4.05-6.15,6.09-8.65A30.92,30.92,0,0,1,41,23.87c2.81-1.91,5-2.9,7.43-5.27a11.65,11.65,0,0,1,5-3.08,6.71,6.71,0,0,1,5,.5,4.37,4.37,0,0,1,.83.51,4.33,4.33,0,0,1,1,.86.74.74,0,0,1,.2.74l0,.08,0,0A8.3,8.3,0,0,1,59.67,22c-.11.32-.22.65-.33,1l-.18.57a10.74,10.74,0,0,1-2.41,4.7,18.92,18.92,0,0,1-1.62,1.46c-3.42,2.69-2.47,2.16-4.78,6-1,1.66-2.12,3.4-3.35,5.21a35.66,35.66,0,0,1-8.17,8m11.37-13.3a46.39,46.39,0,0,0,2.49-4.71v0h0A8.72,8.72,0,0,0,55,29.53a18.83,18.83,0,0,0,1.6-1.45A10.62,10.62,0,0,0,59,23.45l.18-.57c.11-.33.22-.66.33-1a8.09,8.09,0,0,0,.72-3.66v-.06l0-.07,0-.07c.07-.14,0-.34-.17-.55a4.15,4.15,0,0,0-.93-.82h0a4.11,4.11,0,0,0-.38-.27,4.34,4.34,0,0,0-.42-.23h0a6,6,0,0,0-4.66-.37,11.87,11.87,0,0,0-5.08,3q-.32.32-.61.64t-.56.68h0c-1.57.86-3.94,2.2-6.33,3.82a30.77,30.77,0,0,0-6.39,5.49c-2,2.49-4.15,5.7-6.08,8.64-2.19,3.32-4.15,6.3-5.53,7.54a31.6,31.6,0,0,0-5.75,7,19,19,0,0,0-2.14,4.74c-.36,1.36-.33,2.46.21,3.07a1.4,1.4,0,0,0,.27.24c.3.2,1.83-.71,3.9-1.95a50,50,0,0,1,8.91-4.53,38.87,38.87,0,0,0,10.26-5.51,35.5,35.5,0,0,0,8.13-8C48.1,39,49.22,37.27,50.21,35.62Z"/><path class="cls-6" d="M45.22,39.1A57.09,57.09,0,0,1,27.48,53.31c-4.93,2.36-11.39,7.74-12,7.42-2-1.09,3.18-9,8.57-14,2.56-2.36,7.81-10.29,12.3-15.44s13.73-10.7,14-11c7.21.82,2.69,8.54-5.14,18.76"/><path class="cls-7" d="M45.27,39.15A72.3,72.3,0,0,1,27.88,53.73c-4.66,2.64-11.63,6.37-12.11,6.15-1.64-.75,4.42-6.61,9.77-11.61,2.54-2.38,8.09-10,12.65-15.07s13.43-11,13.68-11.28c6.36-.06,1.5,7.29-6.6,17.23"/><path class="cls-8" d="M17.76,58c-.74.51-1.18,1.26-2,1.93,5.52-7.16,14.49-13.39,20.7-22.71C37.7,35.3,45.23,26.47,45,25.35a11.43,11.43,0,0,1,3.48-6.61c3.18-3.14,7.33-4.19,9.86-2.68-2.56-1-6.29.11-9.22,3a11.42,11.42,0,0,0-3.48,6.61c.22,1.12-7.32,9.95-8.57,11.83C31.48,45.91,23.35,51.66,17.76,58"/><path class="cls-9" d="M49.45,31A98.07,98.07,0,0,0,36.71,43.66,48.49,48.49,0,0,1,24.57,54.27c-2.65,1.67-5.29,2.8-8.82,5.62,5.52-7.16,14.84-13.21,21-22.53a128.11,128.11,0,0,1,8.72-11.19q-.09-.32-.15-.64a11.42,11.42,0,0,1,3.48-6.61c3.38-3.33,7.84-4.31,10.32-2.37.7.48,1.32,1.1,1.14,1.49l-.07.14c.23,1.31-.49,3-1,4.68s-1.06,3.75-2.57,5.24c-1.25,1.24-4.08,4-7.17,2.88"/><path class="cls-10" d="M50.67,31.21l-.14,0,0,0,.18,0m-12.8,6.33a128,128,0,0,1,8.72-11.19q-.09-.32-.15-.64a11.43,11.43,0,0,1,3.48-6.61c2.41-2.38,5.37-3.56,7.77-3.33-2.54-.75-6,.39-8.82,3.13a11.43,11.43,0,0,0-3.48,6.61c.22,1.12-7.32,9.95-8.57,11.83-6.21,9.32-15.53,15.37-21,22.53a37.09,37.09,0,0,1,3.11-2.24C24.45,51.47,32.37,45.79,37.87,37.54Z"/><path class="cls-11" d="M49.4,31a96.87,96.87,0,0,0-12.67,12.6A47.94,47.94,0,0,1,24.66,54.17c-2.64,1.66-5.27,2.77-8.78,5.58A45,45,0,0,1,19.18,56c1.87-1.16,3.52-2,5.17-3A47.93,47.93,0,0,0,36.42,42.4,96.92,96.92,0,0,1,49.09,29.8C52.17,30.92,55,28.18,56.22,27c1.5-1.48,2-3.54,2.55-5.22,1-3.27,1.06-2.21,1.11-1.85s.06.36-.81,3.07c-.53,1.68-1,3.73-2.55,5.22-1.25,1.23-4.05,4-7.14,2.85"/><path class="cls-12" d="M55,29.22c-2.72,2.18-6.15,1.85-7.66-.73s-.53-6.45,2.19-8.62,6.15-1.85,7.66.73S57.72,27,55,29.22"/><path class="cls-13" d="M47.51,22.59c-.11.6,0,1.59-.2,1.57s-.38-1-.27-1.6.49-1.23.73-1.18-.15.61-.26,1.21"/><path class="cls-14" d="M47.36,22.19c.07,0,.09,0,.14-.06a.73.73,0,0,0,.1-.27c-.14-.25-.6.25-.24.33"/><path class="cls-14" d="M47.16,22.36s0,0,0,0a.21.21,0,0,0,0-.08c-.06-.05-.12.13,0,.11"/><path class="cls-9" d="M55.34,27.15c-2.09,2.08-5,2.1-6.46,0s-1-5.43,1.12-7.51,5-2.1,6.46,0,1,5.43-1.12,7.51"/><path class="cls-15" d="M55.34,25.71c-1.8,1.79-4.29,1.81-5.57,0s-.84-4.68,1-6.47,4.29-1.81,5.57,0,.84,4.68-1,6.47"/><path class="cls-13" d="M52.84,22.77c-.86,1.29-2.1,1.92-2.75,1.41s-.48-2,.38-3.28,2.1-1.92,2.75-1.41.48,2-.38,3.28"/><path class="cls-13" d="M59.32,19.77a2.06,2.06,0,0,1,.8-.22,3.88,3.88,0,0,1-.07.56h0a3,3,0,0,0-.7,0,2.67,2.67,0,0,0,0-.31"/><path class="cls-13" d="M59,19.12a2.34,2.34,0,0,0,1.25-1.06c.31-.62-1.66-1.83-2.24-1.77,1.09.48,1.78,1.33,1.54,1.81-.42.86-.26.34-.55,1"/><path class="cls-16" d="M59,17.55c-.15,0-.26,0-.26.12s.12.15.26.16.26,0,.26-.12-.12-.15-.26-.16"/><path class="cls-17" d="M59,19.78A3.87,3.87,0,0,0,60.34,18a.66.66,0,0,0,0-.2h0a4.34,4.34,0,0,1-1.77,2.05l-.05,0c.33.24.91-.35,1.69-.47v-.08a3.92,3.92,0,0,0-1.27.41"/><path class="cls-18" d="M54.81,16.82a1.44,1.44,0,0,0-.74,1.93,1.55,1.55,0,0,0,2.08.47,1.44,1.44,0,0,0,.74-1.93,1.55,1.55,0,0,0-2.08-.47"/><path class="cls-13" d="M54.84,17a1.29,1.29,0,0,0-.71,1.7A1.38,1.38,0,0,0,56,19a1.29,1.29,0,0,0,.71-1.7A1.39,1.39,0,0,0,54.84,17"/><path class="cls-19" d="M55.06,17.22a1,1,0,0,0-.55,1.32,1.08,1.08,0,0,0,1.45.28,1,1,0,0,0,.55-1.32,1.08,1.08,0,0,0-1.45-.28"/><path class="cls-18" d="M55.65,16.93a.3.3,0,0,0-.09.41.32.32,0,0,0,.41.16.3.3,0,0,0,.09-.41.32.32,0,0,0-.41-.16"/><path class="cls-18" d="M56.45,18.16a.16.16,0,0,0,0,.22.17.17,0,0,0,.21.09.16.16,0,0,0,0-.22.17.17,0,0,0-.21-.09"/><path class="cls-18" d="M54.82,18.5a.42.42,0,0,0-.09.59.45.45,0,0,0,.56.25.42.42,0,0,0,.09-.59.45.45,0,0,0-.56-.25"/><path class="cls-13" d="M54.15,16.14a.55.55,0,0,0-.29.69c.09.16.26,0,.57-.11s.67-.2.57-.36a.82.82,0,0,0-.85-.22"/><path class="cls-20" d="M54.27,16.21a.26.26,0,0,0-.14.33c0,.08.12,0,.27-.05s.32-.1.27-.17a.39.39,0,0,0-.41-.11"/><path class="cls-10" d="M40.84,25.12a.18.18,0,0,1,.21-.17.22.22,0,0,1,.19.23.18.18,0,0,1-.21.17.22.22,0,0,1-.19-.23m.71-1.22a.12.12,0,0,1,.13.09.1.1,0,0,1-.08.12.12.12,0,0,1-.13-.09A.1.1,0,0,1,41.55,23.9ZM39.4,25.62a.16.16,0,0,1,.13.16.13.13,0,0,1-.15.12.16.16,0,0,1-.13-.16A.13.13,0,0,1,39.4,25.62Zm-.06,1.44a.16.16,0,0,1,0,.22.15.15,0,0,1-.21,0,.16.16,0,0,1,0-.22A.14.14,0,0,1,39.35,27.07Zm-.91-.46a.19.19,0,0,1,.16.19.15.15,0,0,1-.18.15.19.19,0,0,1-.16-.19A.16.16,0,0,1,38.44,26.6ZM43,23.7a.27.27,0,0,1,.08.36.24.24,0,0,1-.35,0,.27.27,0,0,1-.08-.36A.24.24,0,0,1,43,23.7Zm.67-1.05a.26.26,0,0,1,.22.26.21.21,0,0,1-.24.2.26.26,0,0,1-.22-.26A.21.21,0,0,1,43.67,22.64Zm1.44-.55a.19.19,0,0,1,.11.23.16.16,0,0,1-.21.09.19.19,0,0,1-.11-.23A.16.16,0,0,1,45.11,22.1Zm-8.38,6.16a.15.15,0,0,1,.09.18.12.12,0,0,1-.17.07.15.15,0,0,1-.09-.18A.12.12,0,0,1,36.72,28.25Zm.9,0a.23.23,0,0,1,.2.24.19.19,0,0,1-.22.18.23.23,0,0,1-.2-.24A.19.19,0,0,1,37.63,28.22Zm-1.91,1.22a.25.25,0,0,1,.27.2.21.21,0,0,1-.17.26.25.25,0,0,1-.27-.2A.21.21,0,0,1,35.71,29.44Zm-1.29,1a.18.18,0,0,1,.15.18.14.14,0,0,1-.17.14.18.18,0,0,1-.15-.18A.14.14,0,0,1,34.43,30.42Zm.56,1a.15.15,0,0,1,.12.15.12.12,0,0,1-.14.11.15.15,0,0,1-.12-.15A.12.12,0,0,1,35,31.46Zm0-2.05a.12.12,0,0,1,.07.14.1.1,0,0,1-.13.06.12.12,0,0,1-.07-.14A.1.1,0,0,1,35,29.4Zm-1.48,3a.26.26,0,0,1,.28.2.21.21,0,0,1-.18.27.26.26,0,0,1-.28-.2A.21.21,0,0,1,33.51,32.39Zm-.33-1a.2.2,0,0,1,.17.2.16.16,0,0,1-.18.15.2.2,0,0,1-.17-.2A.16.16,0,0,1,33.18,31.41Zm-1.61,3.86a.45.45,0,0,1,.12.6.4.4,0,0,1-.58.08.45.45,0,0,1-.12-.6A.4.4,0,0,1,31.57,35.27Zm.1-1a.21.21,0,0,1,.18.22.17.17,0,0,1-.2.17.21.21,0,0,1-.18-.22A.17.17,0,0,1,31.67,34.24ZM29.42,38a.19.19,0,0,1,.05.25.17.17,0,0,1-.24,0,.19.19,0,0,1-.05-.25A.17.17,0,0,1,29.42,38Zm-1.77,3.17a.31.31,0,0,1,.18.38.26.26,0,0,1-.36.16.31.31,0,0,1-.18-.38A.26.26,0,0,1,27.65,41.12Zm.55-1.81a.28.28,0,0,1,.35.14.25.25,0,0,1-.11.35.28.28,0,0,1-.35-.14A.25.25,0,0,1,28.2,39.31ZM40.53,25.87a.23.23,0,0,1,.24.18.19.19,0,0,1-.16.23.23.23,0,0,1-.24-.18A.19.19,0,0,1,40.53,25.87Z"/><path class="cls-10" d="M45.9,40.63a.18.18,0,0,0,.19-.2.22.22,0,0,0-.21-.21.18.18,0,0,0-.18.2.22.22,0,0,0,.21.21M47.15,40a.12.12,0,0,0-.08-.14.1.1,0,0,0-.13.07.12.12,0,0,0,.08.14A.1.1,0,0,0,47.15,40ZM45.3,42a.16.16,0,0,0-.15-.15A.13.13,0,0,0,45,42a.16.16,0,0,0,.15.15A.13.13,0,0,0,45.3,42Zm-1.42,0a.16.16,0,0,0-.21-.06.15.15,0,0,0,0,.21.16.16,0,0,0,.21.06A.15.15,0,0,0,43.87,42Zm.39.95a.19.19,0,0,0-.18-.18.16.16,0,0,0-.16.17.19.19,0,0,0,.18.18A.16.16,0,0,0,44.27,43Zm3.18-4.4a.26.26,0,0,0-.35-.1.25.25,0,0,0-.07.35.26.26,0,0,0,.35.1A.25.25,0,0,0,47.45,38.55Zm1.08-.61a.26.26,0,0,0-.24-.24.21.21,0,0,0-.22.23.26.26,0,0,0,.24.24A.21.21,0,0,0,48.53,37.95Zm.64-1.42a.18.18,0,0,0-.21-.13.16.16,0,0,0-.11.21.18.18,0,0,0,.21.13A.16.16,0,0,0,49.17,36.53Zm-6.65,8a.15.15,0,0,0-.17-.1.13.13,0,0,0-.08.17.15.15,0,0,0,.17.1A.12.12,0,0,0,42.52,44.57Zm.1-.91a.23.23,0,0,0-.22-.21.19.19,0,0,0-.19.21.23.23,0,0,0,.22.21A.19.19,0,0,0,42.62,43.67Zm-1.33,1.85a.25.25,0,0,0-.18-.28.2.2,0,0,0-.26.16.25.25,0,0,0,.18.28A.2.2,0,0,0,41.29,45.51Zm-1.05,1.23a.18.18,0,0,0-.17-.16.14.14,0,0,0-.15.16.18.18,0,0,0,.17.16A.14.14,0,0,0,40.23,46.75Zm-1-.64a.15.15,0,0,0-.14-.14.12.12,0,0,0-.12.13.15.15,0,0,0,.14.14A.12.12,0,0,0,39.25,46.11Zm2,.15a.12.12,0,0,0-.13-.08.1.1,0,0,0-.07.13.11.11,0,0,0,.13.08A.1.1,0,0,0,41.27,46.25Zm-3,1.29a.26.26,0,0,0-.18-.29.21.21,0,0,0-.27.16.26.26,0,0,0,.18.29A.21.21,0,0,0,38.22,47.54Zm.94.4a.2.2,0,0,0-.19-.18.16.16,0,0,0-.16.18.2.2,0,0,0,.19.18A.16.16,0,0,0,39.17,47.94Zm-3.91,1.36a.43.43,0,0,0-.58-.17.41.41,0,0,0-.12.58.43.43,0,0,0,.58.17A.41.41,0,0,0,35.25,49.29Zm1,0a.21.21,0,0,0-.2-.2.18.18,0,0,0-.18.19.21.21,0,0,0,.2.2A.17.17,0,0,0,36.27,49.27Zm-3.82,2a.18.18,0,0,0-.25-.07.17.17,0,0,0,0,.25.18.18,0,0,0,.25.07A.17.17,0,0,0,32.46,51.29Zm-3.24,1.57a.31.31,0,0,0-.36-.21.27.27,0,0,0-.18.35.31.31,0,0,0,.36.21A.27.27,0,0,0,29.22,52.86ZM31,52.43a.28.28,0,0,0-.12-.36.24.24,0,0,0-.35.09.28.28,0,0,0,.12.36A.24.24,0,0,0,31,52.43Zm14.1-11.53a.23.23,0,0,0-.16-.26.19.19,0,0,0-.24.14.23.23,0,0,0,.16.26A.19.19,0,0,0,45.14,40.89Z"/><path class="cls-10" d="M25.1,46.93a.18.18,0,0,1-.2.18.22.22,0,0,1-.2-.22.18.18,0,0,1,.2-.18.22.22,0,0,1,.2.22m-.67,1.25a.12.12,0,0,1-.13-.09.1.1,0,0,1,.08-.13.12.12,0,0,1,.13.09A.1.1,0,0,1,24.43,48.18Zm2.08-1.81a.16.16,0,0,1-.14-.16.13.13,0,0,1,.14-.13.16.16,0,0,1,.14.16A.13.13,0,0,1,26.51,46.37Zm0-1.45a.16.16,0,0,1-.05-.22.15.15,0,0,1,.21,0,.16.16,0,0,1,.05.22A.14.14,0,0,1,26.52,44.92Zm.92.43a.19.19,0,0,1-.17-.19.15.15,0,0,1,.17-.16.19.19,0,0,1,.17.19A.16.16,0,0,1,27.44,45.35ZM23,48.43a.27.27,0,0,1-.09-.36.24.24,0,0,1,.35-.06.27.27,0,0,1,.09.36A.24.24,0,0,1,23,48.43Zm-.63,1.08a.26.26,0,0,1-.23-.26.21.21,0,0,1,.23-.21.26.26,0,0,1,.23.26A.21.21,0,0,1,22.37,49.51Zm-1.41.6a.19.19,0,0,1-.12-.22.16.16,0,0,1,.21-.1.19.19,0,0,1,.12.22A.16.16,0,0,1,21,50.11Zm8.13-6.48a.15.15,0,0,1-.09-.18.12.12,0,0,1,.17-.08.15.15,0,0,1,.09.18A.12.12,0,0,1,29.09,43.63Zm-.9.07a.23.23,0,0,1-.2-.23.19.19,0,0,1,.21-.19.23.23,0,0,1,.2.23A.19.19,0,0,1,28.19,43.7Zm1.86-1.29a.25.25,0,0,1-.27-.19.21.21,0,0,1,.16-.26.25.25,0,0,1,.27.19A.21.21,0,0,1,30.05,42.41Zm1.25-1a.18.18,0,0,1-.16-.18.14.14,0,0,1,.16-.15.18.18,0,0,1,.16.18A.14.14,0,0,1,31.3,41.38Zm-.6-1a.15.15,0,0,1-.13-.15.12.12,0,0,1,.13-.12.15.15,0,0,1,.13.15A.12.12,0,0,1,30.7,40.36Zm.08,2.06a.12.12,0,0,1-.07-.14.1.1,0,0,1,.13-.06.12.12,0,0,1,.07.14A.1.1,0,0,1,30.78,42.42Zm1.37-3.05a.26.26,0,0,1-.28-.19A.22.22,0,0,1,32,38.9a.26.26,0,0,1,.28.19A.22.22,0,0,1,32.15,39.37Zm.36,1a.2.2,0,0,1-.17-.2.16.16,0,0,1,.18-.16.2.2,0,0,1,.17.2A.16.16,0,0,1,32.51,40.33ZM34,36.41a.45.45,0,0,1-.15-.59.4.4,0,0,1,.57-.1.45.45,0,0,1,.15.59A.4.4,0,0,1,34,36.41Zm-.06,1a.21.21,0,0,1-.19-.21.17.17,0,0,1,.19-.17.21.21,0,0,1,.19.21A.17.17,0,0,1,33.91,37.44ZM36,33.64a.19.19,0,0,1-.06-.25.17.17,0,0,1,.24,0,.19.19,0,0,1,.06.25A.17.17,0,0,1,36,33.64Zm1.65-3.24a.31.31,0,0,1-.2-.37.26.26,0,0,1,.35-.17.31.31,0,0,1,.2.37A.26.26,0,0,1,37.67,30.4Zm-.48,1.84a.27.27,0,0,1-.35-.13.25.25,0,0,1,.1-.35.27.27,0,0,1,.35.13A.25.25,0,0,1,37.19,32.24ZM25.38,46.17a.23.23,0,0,1-.25-.17.19.19,0,0,1,.15-.24.23.23,0,0,1,.25.17A.19.19,0,0,1,25.38,46.17Z"/><path class="cls-10" d="M34.6,47.22a.18.18,0,0,1-.22.15.22.22,0,0,1-.17-.24.18.18,0,0,1,.22-.15.22.22,0,0,1,.17.24m-.82,1.15a.12.12,0,0,1-.12-.1.1.1,0,0,1,.09-.11.12.12,0,0,1,.12.1A.1.1,0,0,1,33.78,48.37Zm2.3-1.53a.16.16,0,0,1-.12-.17.13.13,0,0,1,.16-.11.16.16,0,0,1,.12.17A.13.13,0,0,1,36.08,46.84Zm.18-1.42a.16.16,0,0,1,0-.22.15.15,0,0,1,.21,0,.16.16,0,0,1,0,.22A.15.15,0,0,1,36.26,45.42Zm.87.53a.19.19,0,0,1-.15-.21.15.15,0,0,1,.19-.13.19.19,0,0,1,.15.21A.15.15,0,0,1,37.13,46Zm-4.81,2.49a.27.27,0,0,1,0-.36.25.25,0,0,1,.36,0,.27.27,0,0,1,0,.36A.25.25,0,0,1,32.32,48.45Zm-.76,1a.26.26,0,0,1-.2-.28.21.21,0,0,1,.26-.18.26.26,0,0,1,.2.28A.21.21,0,0,1,31.56,49.43Zm-1.49.42a.19.19,0,0,1-.09-.23.16.16,0,0,1,.22-.07.18.18,0,0,1,.09.23A.16.16,0,0,1,30.07,49.85ZM39,44.47a.15.15,0,0,1-.07-.18.12.12,0,0,1,.17-.06.15.15,0,0,1,.07.18A.12.12,0,0,1,39,44.47Zm-.91,0a.23.23,0,0,1-.18-.25.19.19,0,0,1,.23-.16.23.23,0,0,1,.18.25A.19.19,0,0,1,38.08,44.43Zm2-1a.25.25,0,0,1-.25-.22.2.2,0,0,1,.19-.24.25.25,0,0,1,.25.22A.2.2,0,0,1,40.09,43.38Zm1.37-.86a.18.18,0,0,1-.14-.19.15.15,0,0,1,.18-.12.18.18,0,0,1,.14.19A.14.14,0,0,1,41.47,42.52ZM41,41.45a.15.15,0,0,1-.11-.16.12.12,0,0,1,.15-.1.15.15,0,0,1,.11.16A.12.12,0,0,1,41,41.45Zm-.16,2a.12.12,0,0,1-.06-.15.1.1,0,0,1,.14,0,.12.12,0,0,1,.06.15A.1.1,0,0,1,40.82,43.48Zm1.73-2.83a.26.26,0,0,1-.26-.23.21.21,0,0,1,.2-.25.26.26,0,0,1,.26.23A.21.21,0,0,1,42.55,40.65Zm.25,1a.2.2,0,0,1-.15-.21.16.16,0,0,1,.2-.14.2.2,0,0,1,.15.21A.16.16,0,0,1,42.8,41.64ZM44.73,38a.44.44,0,0,1-.08-.6.41.41,0,0,1,.59,0,.44.44,0,0,1,.08.6A.4.4,0,0,1,44.73,38Zm-.18,1a.21.21,0,0,1-.16-.23.17.17,0,0,1,.21-.15.21.21,0,0,1,.16.23A.17.17,0,0,1,44.54,39Zm2.57-3.49a.19.19,0,0,1,0-.26.17.17,0,0,1,.25,0,.19.19,0,0,1,0,.25A.17.17,0,0,1,47.11,35.48Zm2-3a.31.31,0,0,1-.15-.39.26.26,0,0,1,.37-.12.31.31,0,0,1,.15.39A.26.26,0,0,1,49.14,32.5Zm-.7,1.75a.28.28,0,0,1-.34-.17.25.25,0,0,1,.14-.33.28.28,0,0,1,.34.17A.25.25,0,0,1,48.44,34.25ZM35,46.51a.23.23,0,0,1-.23-.2.19.19,0,0,1,.18-.22.23.23,0,0,1,.23.2A.19.19,0,0,1,35,46.51Z"/></svg>