<svg xmlns="http://www.w3.org/2000/svg" xmlns:xlink="http://www.w3.org/1999/xlink" viewBox="0 0 27.31 204.93"><defs><style>.cls-1{isolation:isolate;}.cls-2{opacity:0.22;mix-blend-mode:multiply;}.cls-10,.cls-11,.cls-12,.cls-13,.cls-14,.cls-15,.cls-16,.cls-17,.cls-18,.cls-19,.cls-20,.cls-21,.cls-22,.cls-23,.cls-24,.cls-25,.cls-26,.cls-27,.cls-28,.cls-29,.cls-3,.cls-30,.cls-31,.cls-32,.cls-33,.cls-34,.cls-35,.cls-36,.cls-37,.cls-38,.cls-39,.cls-4,.cls-40,.cls-41,.cls-42,.cls-43,.cls-44,.cls-45,.cls-46,.cls-47,.cls-48,.cls-49,.cls-5,.cls-50,.cls-51,.cls-52,.cls-53,.cls-54,.cls-6,.cls-7,.cls-8,.cls-9{fill:#334c3d;}.cls-116,.cls-171,.cls-226,.cls-3,.cls-58{opacity:0;}.cls-117,.cls-172,.cls-227,.cls-4,.cls-59{opacity:0.02;}.cls-118,.cls-173,.cls-228,.cls-5,.cls-60{opacity:0.04;}.cls-119,.cls-174,.cls-229,.cls-6,.cls-61{opacity:0.06;}.cls-120,.cls-175,.cls-230,.cls-62,.cls-7{opacity:0.08;}.cls-121,.cls-176,.cls-231,.cls-63,.cls-8{opacity:0.1;}.cls-122,.cls-177,.cls-232,.cls-64,.cls-9{opacity:0.12;}.cls-10,.cls-123,.cls-178,.cls-233,.cls-65{opacity:0.14;}.cls-11,.cls-124,.cls-179,.cls-234,.cls-66{opacity:0.16;}.cls-12,.cls-125,.cls-180,.cls-235,.cls-67{opacity:0.18;}.cls-126,.cls-13,.cls-181,.cls-236,.cls-68{opacity:0.2;}.cls-127,.cls-14,.cls-182,.cls-237,.cls-69{opacity:0.22;}.cls-128,.cls-15,.cls-183,.cls-238,.cls-70{opacity:0.24;}.cls-129,.cls-16,.cls-184,.cls-239,.cls-71{opacity:0.25;}.cls-130,.cls-17,.cls-185,.cls-240,.cls-72{opacity:0.27;}.cls-131,.cls-18,.cls-186,.cls-241,.cls-73{opacity:0.29;}.cls-132,.cls-187,.cls-19,.cls-242,.cls-74{opacity:0.31;}.cls-133,.cls-188,.cls-20,.cls-243,.cls-75{opacity:0.33;}.cls-134,.cls-189,.cls-21,.cls-244,.cls-76{opacity:0.35;}.cls-135,.cls-190,.cls-22,.cls-245,.cls-77{opacity:0.37;}.cls-136,.cls-191,.cls-23,.cls-246,.cls-78{opacity:0.39;}.cls-137,.cls-192,.cls-24,.cls-247,.cls-79{opacity:0.41;}.cls-138,.cls-193,.cls-248,.cls-25,.cls-80{opacity:0.43;}.cls-139,.cls-194,.cls-249,.cls-26,.cls-81{opacity:0.45;}.cls-140,.cls-195,.cls-250,.cls-27,.cls-82{opacity:0.47;}.cls-141,.cls-196,.cls-251,.cls-28,.cls-83{opacity:0.49;}.cls-142,.cls-197,.cls-252,.cls-29,.cls-84{opacity:0.51;}.cls-143,.cls-198,.cls-253,.cls-30,.cls-85{opacity:0.53;}.cls-144,.cls-199,.cls-254,.cls-31,.cls-86{opacity:0.55;}.cls-145,.cls-200,.cls-255,.cls-32,.cls-87{opacity:0.57;}.cls-146,.cls-201,.cls-256,.cls-33,.cls-88{opacity:0.59;}.cls-147,.cls-202,.cls-257,.cls-34,.cls-89{opacity:0.61;}.cls-148,.cls-203,.cls-258,.cls-35,.cls-90{opacity:0.63;}.cls-149,.cls-204,.cls-259,.cls-36,.cls-91{opacity:0.65;}.cls-150,.cls-205,.cls-260,.cls-37,.cls-92{opacity:0.67;}.cls-151,.cls-206,.cls-261,.cls-38,.cls-93{opacity:0.69;}.cls-152,.cls-207,.cls-262,.cls-39,.cls-94{opacity:0.71;}.cls-153,.cls-208,.cls-263,.cls-40,.cls-95{opacity:0.73;}.cls-154,.cls-209,.cls-264,.cls-41,.cls-96{opacity:0.75;}.cls-155,.cls-210,.cls-265,.cls-42,.cls-97{opacity:0.76;}.cls-156,.cls-211,.cls-266,.cls-43,.cls-98{opacity:0.78;}.cls-157,.cls-212,.cls-267,.cls-44,.cls-99{opacity:0.8;}.cls-100,.cls-158,.cls-213,.cls-268,.cls-45{opacity:0.82;}.cls-101,.cls-159,.cls-214,.cls-269,.cls-46{opacity:0.84;}.cls-102,.cls-160,.cls-215,.cls-270,.cls-47{opacity:0.86;}.cls-103,.cls-161,.cls-216,.cls-271,.cls-48{opacity:0.88;}.cls-104,.cls-162,.cls-217,.cls-272,.cls-49{opacity:0.9;}.cls-105,.cls-163,.cls-218,.cls-273,.cls-50{opacity:0.92;}.cls-106,.cls-164,.cls-219,.cls-274,.cls-51{opacity:0.94;}.cls-107,.cls-165,.cls-220,.cls-275,.cls-52{opacity:0.96;}.cls-108,.cls-166,.cls-221,.cls-276,.cls-53{opacity:0.98;}.cls-55{fill:url(#radial-gradient);}.cls-56{fill:url(#linear-gradient);}.cls-57{fill:url(#linear-gradient-2);}.cls-100,.cls-101,.cls-102,.cls-103,.cls-104,.cls-105,.cls-106,.cls-107,.cls-108,.cls-109,.cls-58,.cls-59,.cls-60,.cls-61,.cls-62,.cls-63,.cls-64,.cls-65,.cls-66,.cls-67,.cls-68,.cls-69,.cls-70,.cls-71,.cls-72,.cls-73,.cls-74,.cls-75,.cls-76,.cls-77,.cls-78,.cls-79,.cls-80,.cls-81,.cls-82,.cls-83,.cls-84,.cls-85,.cls-86,.cls-87,.cls-88,.cls-89,.cls-90,.cls-91,.cls-92,.cls-93,.cls-94,.cls-95,.cls-96,.cls-97,.cls-98,.cls-99{fill:#170054;}.cls-110{fill:url(#radial-gradient-2);}.cls-111{fill:url(#linear-gradient-3);}.cls-112{fill:url(#linear-gradient-4);}.cls-113{fill:url(#radial-gradient-3);}.cls-114{fill:url(#linear-gradient-5);}.cls-115{fill:url(#linear-gradient-6);}.cls-116,.cls-117,.cls-118,.cls-119,.cls-120,.cls-121,.cls-122,.cls-123,.cls-124,.cls-125,.cls-126,.cls-127,.cls-128,.cls-129,.cls-130,.cls-131,.cls-132,.cls-133,.cls-134,.cls-135,.cls-136,.cls-137,.cls-138,.cls-139,.cls-140,.cls-141,.cls-142,.cls-143,.cls-144,.cls-145,.cls-146,.cls-147,.cls-148,.cls-149,.cls-150,.cls-151,.cls-152,.cls-153,.cls-154,.cls-155,.cls-156,.cls-157,.cls-158,.cls-159,.cls-160,.cls-161,.cls-162,.cls-163,.cls-164,.cls-165,.cls-166,.cls-167{fill:#171900;}.cls-168{fill:url(#radial-gradient-4);}.cls-169{fill:url(#linear-gradient-7);}.cls-170{fill:url(#linear-gradient-8);}.cls-171,.cls-172,.cls-173,.cls-174,.cls-175,.cls-176,.cls-177,.cls-178,.cls-179,.cls-180,.cls-181,.cls-182,.cls-183,.cls-184,.cls-185,.cls-186,.cls-187,.cls-188,.cls-189,.cls-190,.cls-191,.cls-192,.cls-193,.cls-194,.cls-195,.cls-196,.cls-197,.cls-198,.cls-199,.cls-200,.cls-201,.cls-202,.cls-203,.cls-204,.cls-205,.cls-206,.cls-207,.cls-208,.cls-209,.cls-210,.cls-211,.cls-212,.cls-213,.cls-214,.cls-215,.cls-216,.cls-217,.cls-218,.cls-219,.cls-220,.cls-221,.cls-222{fill:#0033bf;}.cls-223{fill:url(#radial-gradient-5);}.cls-224{fill:url(#linear-gradient-9);}.cls-225{fill:url(#linear-gradient-10);}.cls-226,.cls-227,.cls-228,.cls-229,.cls-230,.cls-231,.cls-232,.cls-233,.cls-234,.cls-235,.cls-236,.cls-237,.cls-238,.cls-239,.cls-240,.cls-241,.cls-242,.cls-243,.cls-244,.cls-245,.cls-246,.cls-247,.cls-248,.cls-249,.cls-250,.cls-251,.cls-252,.cls-253,.cls-254,.cls-255,.cls-256,.cls-257,.cls-258,.cls-259,.cls-260,.cls-261,.cls-262,.cls-263,.cls-264,.cls-265,.cls-266,.cls-267,.cls-268,.cls-269,.cls-270,.cls-271,.cls-272,.cls-273,.cls-274,.cls-275,.cls-276,.cls-277{fill:#005921;}.cls-278{fill:url(#radial-gradient-6);}.cls-279{fill:url(#linear-gradient-11);}.cls-280{fill:url(#linear-gradient-12);}.cls-281{fill:url(#radial-gradient-7);}.cls-282{fill:url(#linear-gradient-13);}.cls-283{fill:url(#linear-gradient-14);}.cls-284{fill:url(#radial-gradient-8);}.cls-285{fill:url(#linear-gradient-15);}.cls-286{fill:url(#linear-gradient-16);}.cls-287{fill:url(#radial-gradient-9);}.cls-288{fill:url(#linear-gradient-17);}.cls-289{fill:url(#linear-gradient-18);}</style><radialGradient id="radial-gradient" cx="39.77" cy="-41.96" r="15.62" gradientTransform="translate(-31.24 154.43) rotate(90)" gradientUnits="userSpaceOnUse"><stop offset="0" stop-color="#ffc13e"/><stop offset="1" stop-color="#ecb24a"/></radialGradient><linearGradient id="linear-gradient" x1="22.47" y1="-45.33" x2="29.31" y2="-44.49" gradientTransform="translate(-31.24 154.43) rotate(90)" gradientUnits="userSpaceOnUse"><stop offset="0" stop-color="#ecb24a"/><stop offset="0.52" stop-color="#f9bc42"/><stop offset="1" stop-color="#ffc13e"/></linearGradient><linearGradient id="linear-gradient-2" x1="36.46" y1="-59.23" x2="37.01" y2="-52.11" xlink:href="#linear-gradient"/><radialGradient id="radial-gradient-2" cx="17.61" cy="-41.96" r="15.62" gradientTransform="translate(-31.24 154.43) rotate(90)" gradientUnits="userSpaceOnUse"><stop offset="0" stop-color="#fe4a55"/><stop offset="1" stop-color="#d03b61"/></radialGradient><linearGradient id="linear-gradient-3" x1="0.31" y1="-45.33" x2="7.15" y2="-44.49" gradientTransform="translate(-31.24 154.43) rotate(90)" gradientUnits="userSpaceOnUse"><stop offset="0" stop-color="#d03b61"/><stop offset="0.36" stop-color="#e7435b"/><stop offset="0.72" stop-color="#f84857"/><stop offset="1" stop-color="#fe4a55"/></linearGradient><linearGradient id="linear-gradient-4" x1="14.29" y1="-59.23" x2="14.85" y2="-52.11" xlink:href="#linear-gradient-3"/><radialGradient id="radial-gradient-3" cx="-4.65" cy="-41.96" r="15.62" gradientTransform="translate(-31.24 154.43) rotate(90)" gradientUnits="userSpaceOnUse"><stop offset="0" stop-color="#f175b1"/><stop offset="1" stop-color="#c366bd"/></radialGradient><linearGradient id="linear-gradient-5" x1="-21.95" y1="-45.33" x2="-15.11" y2="-44.49" gradientTransform="translate(-31.24 154.43) rotate(90)" gradientUnits="userSpaceOnUse"><stop offset="0" stop-color="#c366bd"/><stop offset="0.36" stop-color="#da6eb7"/><stop offset="0.72" stop-color="#eb73b3"/><stop offset="1" stop-color="#f175b1"/></linearGradient><linearGradient id="linear-gradient-6" x1="-7.96" y1="-59.23" x2="-7.41" y2="-52.11" xlink:href="#linear-gradient-5"/><radialGradient id="radial-gradient-4" cx="-26.95" cy="-41.96" r="15.62" gradientTransform="translate(-31.24 154.43) rotate(90)" gradientUnits="userSpaceOnUse"><stop offset="0" stop-color="#fe6300"/><stop offset="1" stop-color="#d05400"/></radialGradient><linearGradient id="linear-gradient-7" x1="-44.25" y1="-45.33" x2="-37.41" y2="-44.49" gradientTransform="translate(-31.24 154.43) rotate(90)" gradientUnits="userSpaceOnUse"><stop offset="0" stop-color="#d05400"/><stop offset="0.36" stop-color="#e75c00"/><stop offset="0.72" stop-color="#f86100"/><stop offset="1" stop-color="#fe6300"/></linearGradient><linearGradient id="linear-gradient-8" x1="-30.27" y1="-59.23" x2="-29.71" y2="-52.11" xlink:href="#linear-gradient-7"/><radialGradient id="radial-gradient-5" cx="-49.2" cy="-41.96" r="15.62" gradientTransform="translate(-31.24 154.43) rotate(90)" gradientUnits="userSpaceOnUse"><stop offset="0" stop-color="#00a3bf"/><stop offset="1" stop-color="#0089b5"/></radialGradient><linearGradient id="linear-gradient-9" x1="-66.51" y1="-45.33" x2="-59.67" y2="-44.49" gradientTransform="translate(-31.24 154.43) rotate(90)" gradientUnits="userSpaceOnUse"><stop offset="0" stop-color="#0094c2"/><stop offset="0.44" stop-color="#009dc0"/><stop offset="1" stop-color="#00a3bf"/></linearGradient><linearGradient id="linear-gradient-10" x1="-52.52" y1="-59.23" x2="-51.96" y2="-52.11" xlink:href="#linear-gradient-9"/><radialGradient id="radial-gradient-6" cx="-71.23" cy="-41.96" r="15.62" gradientTransform="translate(-31.24 154.43) rotate(90)" gradientUnits="userSpaceOnUse"><stop offset="0" stop-color="#afce22"/><stop offset="1" stop-color="#81bf2e"/></radialGradient><linearGradient id="linear-gradient-11" x1="-88.54" y1="-45.33" x2="-81.7" y2="-44.49" gradientTransform="translate(-31.24 154.43) rotate(90)" gradientUnits="userSpaceOnUse"><stop offset="0" stop-color="#81bf2e"/><stop offset="0.36" stop-color="#98c728"/><stop offset="0.72" stop-color="#a9cc24"/><stop offset="1" stop-color="#afce22"/></linearGradient><linearGradient id="linear-gradient-12" x1="-74.55" y1="-59.23" x2="-73.99" y2="-52.11" xlink:href="#linear-gradient-11"/><radialGradient id="radial-gradient-7" cx="-93.22" cy="-41.96" r="15.62" xlink:href="#radial-gradient"/><linearGradient id="linear-gradient-13" x1="-110.52" y1="-45.33" x2="-103.68" y2="-44.49" xlink:href="#linear-gradient"/><linearGradient id="linear-gradient-14" x1="-96.54" y1="-59.23" x2="-95.98" y2="-52.11" xlink:href="#linear-gradient"/><radialGradient id="radial-gradient-8" cx="-115.39" cy="-41.96" r="15.62" xlink:href="#radial-gradient-2"/><linearGradient id="linear-gradient-15" x1="-132.69" y1="-45.33" x2="-125.85" y2="-44.49" xlink:href="#linear-gradient-3"/><linearGradient id="linear-gradient-16" x1="-118.7" y1="-59.23" x2="-118.15" y2="-52.11" xlink:href="#linear-gradient-3"/><radialGradient id="radial-gradient-9" cx="-137.64" cy="-41.96" r="15.62" xlink:href="#radial-gradient-3"/><linearGradient id="linear-gradient-17" x1="-154.95" y1="-45.33" x2="-148.11" y2="-44.49" xlink:href="#linear-gradient-5"/><linearGradient id="linear-gradient-18" x1="-140.96" y1="-59.23" x2="-140.4" y2="-52.11" xlink:href="#linear-gradient-5"/></defs><title>vertical-blocks</title><g class="cls-1"><g id="Layer_1" data-name="Layer 1"><g class="cls-2"><polygon class="cls-3" points="0 183.49 9.45 169.05 9.45 177.42 6.26 177.42 0 183.49"/><polygon class="cls-4" points="0 183.49 9.4 169.18 9.4 177.42 6.26 177.42 0 183.49"/><polygon class="cls-5" points="0 183.49 9.35 169.32 9.35 177.42 6.26 177.42 0 183.49"/><polygon class="cls-6" points="0 183.49 9.31 169.45 9.31 177.42 6.26 177.42 0 183.49"/><polygon class="cls-7" points="0 183.49 9.26 169.58 9.26 177.42 6.26 177.42 0 183.49"/><polygon class="cls-8" points="0 183.49 9.21 169.72 9.21 177.42 6.26 177.42 0 183.49"/><polygon class="cls-9" points="0 183.49 9.17 169.85 9.17 177.42 6.26 177.42 0 183.49"/><polygon class="cls-10" points="0 183.49 9.12 169.98 9.12 177.42 6.26 177.42 0 183.49"/><polygon class="cls-11" points="0 183.49 9.08 170.12 9.08 177.42 6.26 177.42 0 183.49"/><polygon class="cls-12" points="0 183.49 9.03 170.25 9.03 177.42 6.26 177.42 0 183.49"/><polygon class="cls-13" points="0 183.49 8.98 170.38 8.98 177.42 6.26 177.42 0 183.49"/><polygon class="cls-14" points="0 183.49 8.94 170.51 8.94 177.42 6.26 177.42 0 183.49"/><polygon class="cls-15" points="0 183.49 8.89 170.65 8.89 177.42 6.26 177.42 0 183.49"/><polygon class="cls-16" points="0 183.49 8.85 170.78 8.85 177.42 6.26 177.42 0 183.49"/><polygon class="cls-17" points="0 183.49 8.8 170.91 8.8 177.42 6.26 177.42 0 183.49"/><polygon class="cls-18" points="0 183.49 8.76 171.05 8.76 177.42 6.26 177.42 0 183.49"/><polygon class="cls-19" points="0 183.49 8.71 171.18 8.71 177.42 6.26 177.42 0 183.49"/><polygon class="cls-20" points="0 183.49 8.66 171.31 8.66 177.42 6.26 177.42 0 183.49"/><polygon class="cls-21" points="0 183.49 8.62 171.45 8.62 177.42 6.26 177.42 0 183.49"/><polygon class="cls-22" points="0 183.49 8.57 171.58 8.57 177.42 6.26 177.42 0 183.49"/><polygon class="cls-23" points="0 183.49 8.52 171.71 8.52 177.42 6.26 177.42 0 183.49"/><polygon class="cls-24" points="0 183.49 8.48 171.85 8.48 177.42 6.26 177.42 0 183.49"/><polygon class="cls-25" points="0 183.49 8.43 171.98 8.43 177.42 6.26 177.42 0 183.49"/><polygon class="cls-26" points="0 183.49 8.39 172.11 8.39 177.42 6.26 177.42 0 183.49"/><polygon class="cls-27" points="0 183.49 8.34 172.25 8.34 177.42 6.26 177.42 0 183.49"/><polygon class="cls-28" points="0 183.49 8.29 172.38 8.29 177.42 6.26 177.42 0 183.49"/><polygon class="cls-29" points="0 183.49 8.25 172.51 8.25 177.42 6.26 177.42 0 183.49"/><polygon class="cls-30" points="0 183.49 8.2 172.65 8.2 177.42 6.26 177.42 0 183.49"/><polygon class="cls-31" points="0 183.49 8.16 172.78 8.16 177.42 6.26 177.42 0 183.49"/><polygon class="cls-32" points="0 183.49 8.11 172.91 8.11 177.42 6.26 177.42 0 183.49"/><polygon class="cls-33" points="0 183.49 8.06 173.05 8.06 177.42 6.26 177.42 0 183.49"/><polygon class="cls-34" points="0 183.49 8.02 173.18 8.02 177.42 6.26 177.42 0 183.49"/><polygon class="cls-35" points="0 183.49 7.97 173.31 7.97 177.42 6.26 177.42 0 183.49"/><polygon class="cls-36" points="0 183.49 7.92 173.44 7.92 177.42 6.26 177.42 0 183.49"/><polygon class="cls-37" points="0 183.49 7.88 173.58 7.88 177.42 6.26 177.42 0 183.49"/><polygon class="cls-38" points="0 183.49 7.83 173.71 7.83 177.42 6.26 177.42 0 183.49"/><polygon class="cls-39" points="0 183.49 7.79 173.84 7.79 177.42 6.26 177.42 0 183.49"/><polygon class="cls-40" points="0 183.49 7.74 173.98 7.74 177.42 6.26 177.42 0 183.49"/><polygon class="cls-41" points="0 183.49 7.7 174.11 7.7 177.42 6.26 177.42 0 183.49"/><polygon class="cls-42" points="0 183.49 7.65 174.25 7.65 177.42 6.26 177.42 0 183.49"/><polygon class="cls-43" points="0 183.49 7.6 174.38 7.6 177.42 6.26 177.42 0 183.49"/><polygon class="cls-44" points="0 183.49 7.56 174.51 7.56 177.42 6.26 177.42 0 183.49"/><polygon class="cls-45" points="0 183.49 7.51 174.64 7.51 177.42 6.26 177.42 0 183.49"/><polygon class="cls-46" points="0 183.49 7.46 174.78 7.46 177.42 6.26 177.42 0 183.49"/><polygon class="cls-47" points="0 183.49 7.42 174.91 7.42 177.42 6.26 177.42 0 183.49"/><polygon class="cls-48" points="0 183.49 7.37 175.04 7.37 177.42 6.26 177.42 0 183.49"/><polygon class="cls-49" points="0 183.49 7.33 175.18 7.33 177.42 6.26 177.42 0 183.49"/><polygon class="cls-50" points="0 183.49 7.28 175.31 7.28 177.42 6.26 177.42 0 183.49"/><polygon class="cls-51" points="0 183.49 7.23 175.44 7.23 177.42 6.26 177.42 0 183.49"/><polygon class="cls-52" points="0 183.49 7.19 175.58 7.19 177.42 6.26 177.42 0 183.49"/><polygon class="cls-53" points="0 183.49 7.14 175.71 7.14 177.42 6.26 177.42 0 183.49"/><polygon class="cls-54" points="0 183.49 7.1 175.84 7.1 177.42 6.26 177.42 0 183.49"/></g><rect class="cls-55" y="183.49" width="21.44" height="21.44"/><polygon class="cls-56" points="5.87 177.42 0 183.49 21.44 183.49 27.31 177.42 5.87 177.42"/><polygon class="cls-57" points="27.31 177.42 21.44 183.49 21.44 204.93 27.31 198.86 27.31 177.42"/><g class="cls-2"><polygon class="cls-58" points="0 161.32 9.45 146.88 9.45 155.25 6.26 155.25 0 161.32"/><polygon class="cls-59" points="0 161.32 9.4 147.02 9.4 155.25 6.26 155.25 0 161.32"/><polygon class="cls-60" points="0 161.32 9.35 147.15 9.35 155.25 6.26 155.25 0 161.32"/><polygon class="cls-61" points="0 161.32 9.31 147.28 9.31 155.25 6.26 155.25 0 161.32"/><polygon class="cls-62" points="0 161.32 9.26 147.42 9.26 155.25 6.26 155.25 0 161.32"/><polygon class="cls-63" points="0 161.32 9.21 147.55 9.21 155.25 6.26 155.25 0 161.32"/><polygon class="cls-64" points="0 161.32 9.17 147.68 9.17 155.25 6.26 155.25 0 161.32"/><polygon class="cls-65" points="0 161.32 9.12 147.82 9.12 155.25 6.26 155.25 0 161.32"/><polygon class="cls-66" points="0 161.32 9.08 147.95 9.08 155.25 6.26 155.25 0 161.32"/><polygon class="cls-67" points="0 161.32 9.03 148.08 9.03 155.25 6.26 155.25 0 161.32"/><polygon class="cls-68" points="0 161.32 8.98 148.22 8.98 155.25 6.26 155.25 0 161.32"/><polygon class="cls-69" points="0 161.32 8.94 148.35 8.94 155.25 6.26 155.25 0 161.32"/><polygon class="cls-70" points="0 161.32 8.89 148.48 8.89 155.25 6.26 155.25 0 161.32"/><polygon class="cls-71" points="0 161.32 8.85 148.62 8.85 155.25 6.26 155.25 0 161.32"/><polygon class="cls-72" points="0 161.32 8.8 148.75 8.8 155.25 6.26 155.25 0 161.32"/><polygon class="cls-73" points="0 161.32 8.76 148.88 8.76 155.25 6.26 155.25 0 161.32"/><polygon class="cls-74" points="0 161.32 8.71 149.02 8.71 155.25 6.26 155.25 0 161.32"/><polygon class="cls-75" points="0 161.32 8.66 149.15 8.66 155.25 6.26 155.25 0 161.32"/><polygon class="cls-76" points="0 161.32 8.62 149.28 8.62 155.25 6.26 155.25 0 161.32"/><polygon class="cls-77" points="0 161.32 8.57 149.41 8.57 155.25 6.26 155.25 0 161.32"/><polygon class="cls-78" points="0 161.32 8.52 149.55 8.52 155.25 6.26 155.25 0 161.32"/><polygon class="cls-79" points="0 161.32 8.48 149.68 8.48 155.25 6.26 155.25 0 161.32"/><polygon class="cls-80" points="0 161.32 8.43 149.81 8.43 155.25 6.26 155.25 0 161.32"/><polygon class="cls-81" points="0 161.32 8.39 149.95 8.39 155.25 6.26 155.25 0 161.32"/><polygon class="cls-82" points="0 161.32 8.34 150.08 8.34 155.25 6.26 155.25 0 161.32"/><polygon class="cls-83" points="0 161.32 8.29 150.21 8.29 155.25 6.26 155.25 0 161.32"/><polygon class="cls-84" points="0 161.32 8.25 150.35 8.25 155.25 6.26 155.25 0 161.32"/><polygon class="cls-85" points="0 161.32 8.2 150.48 8.2 155.25 6.26 155.25 0 161.32"/><polygon class="cls-86" points="0 161.32 8.16 150.61 8.16 155.25 6.26 155.25 0 161.32"/><polygon class="cls-87" points="0 161.32 8.11 150.75 8.11 155.25 6.26 155.25 0 161.32"/><polygon class="cls-88" points="0 161.32 8.06 150.88 8.06 155.25 6.26 155.25 0 161.32"/><polygon class="cls-89" points="0 161.32 8.02 151.01 8.02 155.25 6.26 155.25 0 161.32"/><polygon class="cls-90" points="0 161.32 7.97 151.15 7.97 155.25 6.26 155.25 0 161.32"/><polygon class="cls-91" points="0 161.32 7.92 151.28 7.92 155.25 6.26 155.25 0 161.32"/><polygon class="cls-92" points="0 161.32 7.88 151.41 7.88 155.25 6.26 155.25 0 161.32"/><polygon class="cls-93" points="0 161.32 7.83 151.55 7.83 155.25 6.26 155.25 0 161.32"/><polygon class="cls-94" points="0 161.32 7.79 151.68 7.79 155.25 6.26 155.25 0 161.32"/><polygon class="cls-95" points="0 161.32 7.74 151.81 7.74 155.25 6.26 155.25 0 161.32"/><polygon class="cls-96" points="0 161.32 7.7 151.95 7.7 155.25 6.26 155.25 0 161.32"/><polygon class="cls-97" points="0 161.32 7.65 152.08 7.65 155.25 6.26 155.25 0 161.32"/><polygon class="cls-98" points="0 161.32 7.6 152.21 7.6 155.25 6.26 155.25 0 161.32"/><polygon class="cls-99" points="0 161.32 7.56 152.34 7.56 155.25 6.26 155.25 0 161.32"/><polygon class="cls-100" points="0 161.32 7.51 152.48 7.51 155.25 6.26 155.25 0 161.32"/><polygon class="cls-101" points="0 161.32 7.46 152.61 7.46 155.25 6.26 155.25 0 161.32"/><polygon class="cls-102" points="0 161.32 7.42 152.75 7.42 155.25 6.26 155.25 0 161.32"/><polygon class="cls-103" points="0 161.32 7.37 152.88 7.37 155.25 6.26 155.25 0 161.32"/><polygon class="cls-104" points="0 161.32 7.33 153.01 7.33 155.25 6.26 155.25 0 161.32"/><polygon class="cls-105" points="0 161.32 7.28 153.15 7.28 155.25 6.26 155.25 0 161.32"/><polygon class="cls-106" points="0 161.32 7.23 153.28 7.23 155.25 6.26 155.25 0 161.32"/><polygon class="cls-107" points="0 161.32 7.19 153.41 7.19 155.25 6.26 155.25 0 161.32"/><polygon class="cls-108" points="0 161.32 7.14 153.54 7.14 155.25 6.26 155.25 0 161.32"/><polygon class="cls-109" points="0 161.32 7.1 153.68 7.1 155.25 6.26 155.25 0 161.32"/></g><rect class="cls-110" y="161.32" width="21.44" height="21.44"/><polygon class="cls-111" points="5.87 155.25 0 161.32 21.44 161.32 27.31 155.25 5.87 155.25"/><polygon class="cls-112" points="27.31 155.25 21.44 161.32 21.44 182.76 27.31 176.69 27.31 155.25"/><rect class="cls-113" y="139.06" width="21.44" height="21.44"/><polygon class="cls-114" points="5.87 133 0 139.06 21.44 139.06 27.31 133 5.87 133"/><polygon class="cls-115" points="27.31 133 21.44 139.06 21.44 160.51 27.31 154.44 27.31 133"/><g class="cls-2"><polygon class="cls-116" points="0 116.76 9.45 102.33 9.45 110.69 6.26 110.69 0 116.76"/><polygon class="cls-117" points="0 116.76 9.4 102.46 9.4 110.69 6.26 110.69 0 116.76"/><polygon class="cls-118" points="0 116.76 9.35 102.59 9.35 110.69 6.26 110.69 0 116.76"/><polygon class="cls-119" points="0 116.76 9.31 102.73 9.31 110.69 6.26 110.69 0 116.76"/><polygon class="cls-120" points="0 116.76 9.26 102.86 9.26 110.69 6.26 110.69 0 116.76"/><polygon class="cls-121" points="0 116.76 9.21 102.99 9.21 110.69 6.26 110.69 0 116.76"/><polygon class="cls-122" points="0 116.76 9.17 103.13 9.17 110.69 6.26 110.69 0 116.76"/><polygon class="cls-123" points="0 116.76 9.12 103.26 9.12 110.69 6.26 110.69 0 116.76"/><polygon class="cls-124" points="0 116.76 9.08 103.39 9.08 110.69 6.26 110.69 0 116.76"/><polygon class="cls-125" points="0 116.76 9.03 103.53 9.03 110.69 6.26 110.69 0 116.76"/><polygon class="cls-126" points="0 116.76 8.98 103.66 8.98 110.69 6.26 110.69 0 116.76"/><polygon class="cls-127" points="0 116.76 8.94 103.79 8.94 110.69 6.26 110.69 0 116.76"/><polygon class="cls-128" points="0 116.76 8.89 103.92 8.89 110.69 6.26 110.69 0 116.76"/><polygon class="cls-129" points="0 116.76 8.85 104.06 8.85 110.69 6.26 110.69 0 116.76"/><polygon class="cls-130" points="0 116.76 8.8 104.19 8.8 110.69 6.26 110.69 0 116.76"/><polygon class="cls-131" points="0 116.76 8.76 104.33 8.76 110.69 6.26 110.69 0 116.76"/><polygon class="cls-132" points="0 116.76 8.71 104.46 8.71 110.69 6.26 110.69 0 116.76"/><polygon class="cls-133" points="0 116.76 8.66 104.59 8.66 110.69 6.26 110.69 0 116.76"/><polygon class="cls-134" points="0 116.76 8.62 104.72 8.62 110.69 6.26 110.69 0 116.76"/><polygon class="cls-135" points="0 116.76 8.57 104.86 8.57 110.69 6.26 110.69 0 116.76"/><polygon class="cls-136" points="0 116.76 8.52 104.99 8.52 110.69 6.26 110.69 0 116.76"/><polygon class="cls-137" points="0 116.76 8.48 105.12 8.48 110.69 6.26 110.69 0 116.76"/><polygon class="cls-138" points="0 116.76 8.43 105.26 8.43 110.69 6.26 110.69 0 116.76"/><polygon class="cls-139" points="0 116.76 8.39 105.39 8.39 110.69 6.26 110.69 0 116.76"/><polygon class="cls-140" points="0 116.76 8.34 105.52 8.34 110.69 6.26 110.69 0 116.76"/><polygon class="cls-141" points="0 116.76 8.29 105.66 8.29 110.69 6.26 110.69 0 116.76"/><polygon class="cls-142" points="0 116.76 8.25 105.79 8.25 110.69 6.26 110.69 0 116.76"/><polygon class="cls-143" points="0 116.76 8.2 105.92 8.2 110.69 6.26 110.69 0 116.76"/><polygon class="cls-144" points="0 116.76 8.16 106.06 8.16 110.69 6.26 110.69 0 116.76"/><polygon class="cls-145" points="0 116.76 8.11 106.19 8.11 110.69 6.26 110.69 0 116.76"/><polygon class="cls-146" points="0 116.76 8.06 106.32 8.06 110.69 6.26 110.69 0 116.76"/><polygon class="cls-147" points="0 116.76 8.02 106.46 8.02 110.69 6.26 110.69 0 116.76"/><polygon class="cls-148" points="0 116.76 7.97 106.59 7.97 110.69 6.26 110.69 0 116.76"/><polygon class="cls-149" points="0 116.76 7.92 106.72 7.92 110.69 6.26 110.69 0 116.76"/><polygon class="cls-150" points="0 116.76 7.88 106.86 7.88 110.69 6.26 110.69 0 116.76"/><polygon class="cls-151" points="0 116.76 7.83 106.99 7.83 110.69 6.26 110.69 0 116.76"/><polygon class="cls-152" points="0 116.76 7.79 107.12 7.79 110.69 6.26 110.69 0 116.76"/><polygon class="cls-153" points="0 116.76 7.74 107.25 7.74 110.69 6.26 110.69 0 116.76"/><polygon class="cls-154" points="0 116.76 7.7 107.39 7.7 110.69 6.26 110.69 0 116.76"/><polygon class="cls-155" points="0 116.76 7.65 107.52 7.65 110.69 6.26 110.69 0 116.76"/><polygon class="cls-156" points="0 116.76 7.6 107.66 7.6 110.69 6.26 110.69 0 116.76"/><polygon class="cls-157" points="0 116.76 7.56 107.79 7.56 110.69 6.26 110.69 0 116.76"/><polygon class="cls-158" points="0 116.76 7.51 107.92 7.51 110.69 6.26 110.69 0 116.76"/><polygon class="cls-159" points="0 116.76 7.46 108.05 7.46 110.69 6.26 110.69 0 116.76"/><polygon class="cls-160" points="0 116.76 7.42 108.19 7.42 110.69 6.26 110.69 0 116.76"/><polygon class="cls-161" points="0 116.76 7.37 108.32 7.37 110.69 6.26 110.69 0 116.76"/><polygon class="cls-162" points="0 116.76 7.33 108.45 7.33 110.69 6.26 110.69 0 116.76"/><polygon class="cls-163" points="0 116.76 7.28 108.59 7.28 110.69 6.26 110.69 0 116.76"/><polygon class="cls-164" points="0 116.76 7.23 108.72 7.23 110.69 6.26 110.69 0 116.76"/><polygon class="cls-165" points="0 116.76 7.19 108.85 7.19 110.69 6.26 110.69 0 116.76"/><polygon class="cls-166" points="0 116.76 7.14 108.99 7.14 110.69 6.26 110.69 0 116.76"/><polygon class="cls-167" points="0 116.76 7.1 109.12 7.1 110.69 6.26 110.69 0 116.76"/></g><rect class="cls-168" y="116.76" width="21.44" height="21.44"/><polygon class="cls-169" points="5.87 110.69 0 116.76 21.44 116.76 27.31 110.69 5.87 110.69"/><polygon class="cls-170" points="27.31 110.69 21.44 116.76 21.44 138.2 27.31 132.14 27.31 110.69"/><g class="cls-2"><polygon class="cls-171" points="0 94.51 9.45 80.07 9.45 88.44 6.26 88.44 0 94.51"/><polygon class="cls-172" points="0 94.51 9.4 80.2 9.4 88.44 6.26 88.44 0 94.51"/><polygon class="cls-173" points="0 94.51 9.35 80.34 9.35 88.44 6.26 88.44 0 94.51"/><polygon class="cls-174" points="0 94.51 9.31 80.47 9.31 88.44 6.26 88.44 0 94.51"/><polygon class="cls-175" points="0 94.51 9.26 80.6 9.26 88.44 6.26 88.44 0 94.51"/><polygon class="cls-176" points="0 94.51 9.21 80.74 9.21 88.44 6.26 88.44 0 94.51"/><polygon class="cls-177" points="0 94.51 9.17 80.87 9.17 88.44 6.26 88.44 0 94.51"/><polygon class="cls-178" points="0 94.51 9.12 81 9.12 88.44 6.26 88.44 0 94.51"/><polygon class="cls-179" points="0 94.51 9.08 81.14 9.08 88.44 6.26 88.44 0 94.51"/><polygon class="cls-180" points="0 94.51 9.03 81.27 9.03 88.44 6.26 88.44 0 94.51"/><polygon class="cls-181" points="0 94.51 8.98 81.4 8.98 88.44 6.26 88.44 0 94.51"/><polygon class="cls-182" points="0 94.51 8.94 81.54 8.94 88.44 6.26 88.44 0 94.51"/><polygon class="cls-183" points="0 94.51 8.89 81.67 8.89 88.44 6.26 88.44 0 94.51"/><polygon class="cls-184" points="0 94.51 8.85 81.8 8.85 88.44 6.26 88.44 0 94.51"/><polygon class="cls-185" points="0 94.51 8.8 81.94 8.8 88.44 6.26 88.44 0 94.51"/><polygon class="cls-186" points="0 94.51 8.76 82.07 8.76 88.44 6.26 88.44 0 94.51"/><polygon class="cls-187" points="0 94.51 8.71 82.2 8.71 88.44 6.26 88.44 0 94.51"/><polygon class="cls-188" points="0 94.51 8.66 82.34 8.66 88.44 6.26 88.44 0 94.51"/><polygon class="cls-189" points="0 94.51 8.62 82.47 8.62 88.44 6.26 88.44 0 94.51"/><polygon class="cls-190" points="0 94.51 8.57 82.6 8.57 88.44 6.26 88.44 0 94.51"/><polygon class="cls-191" points="0 94.51 8.52 82.74 8.52 88.44 6.26 88.44 0 94.51"/><polygon class="cls-192" points="0 94.51 8.48 82.87 8.48 88.44 6.26 88.44 0 94.51"/><polygon class="cls-193" points="0 94.51 8.43 83 8.43 88.44 6.26 88.44 0 94.51"/><polygon class="cls-194" points="0 94.51 8.39 83.14 8.39 88.44 6.26 88.44 0 94.51"/><polygon class="cls-195" points="0 94.51 8.34 83.27 8.34 88.44 6.26 88.44 0 94.51"/><polygon class="cls-196" points="0 94.51 8.29 83.4 8.29 88.44 6.26 88.44 0 94.51"/><polygon class="cls-197" points="0 94.51 8.25 83.53 8.25 88.44 6.26 88.44 0 94.51"/><polygon class="cls-198" points="0 94.51 8.2 83.67 8.2 88.44 6.26 88.44 0 94.51"/><polygon class="cls-199" points="0 94.51 8.16 83.8 8.16 88.44 6.26 88.44 0 94.51"/><polygon class="cls-200" points="0 94.51 8.11 83.93 8.11 88.44 6.26 88.44 0 94.51"/><polygon class="cls-201" points="0 94.51 8.06 84.07 8.06 88.44 6.26 88.44 0 94.51"/><polygon class="cls-202" points="0 94.51 8.02 84.2 8.02 88.44 6.26 88.44 0 94.51"/><polygon class="cls-203" points="0 94.51 7.97 84.33 7.97 88.44 6.26 88.44 0 94.51"/><polygon class="cls-204" points="0 94.51 7.92 84.47 7.92 88.44 6.26 88.44 0 94.51"/><polygon class="cls-205" points="0 94.51 7.88 84.6 7.88 88.44 6.26 88.44 0 94.51"/><polygon class="cls-206" points="0 94.51 7.83 84.73 7.83 88.44 6.26 88.44 0 94.51"/><polygon class="cls-207" points="0 94.51 7.79 84.87 7.79 88.44 6.26 88.44 0 94.51"/><polygon class="cls-208" points="0 94.51 7.74 85 7.74 88.44 6.26 88.44 0 94.51"/><polygon class="cls-209" points="0 94.51 7.7 85.13 7.7 88.44 6.26 88.44 0 94.51"/><polygon class="cls-210" points="0 94.51 7.65 85.27 7.65 88.44 6.26 88.44 0 94.51"/><polygon class="cls-211" points="0 94.51 7.6 85.4 7.6 88.44 6.26 88.44 0 94.51"/><polygon class="cls-212" points="0 94.51 7.56 85.53 7.56 88.44 6.26 88.44 0 94.51"/><polygon class="cls-213" points="0 94.51 7.51 85.67 7.51 88.44 6.26 88.44 0 94.51"/><polygon class="cls-214" points="0 94.51 7.46 85.8 7.46 88.44 6.26 88.44 0 94.51"/><polygon class="cls-215" points="0 94.51 7.42 85.93 7.42 88.44 6.26 88.44 0 94.51"/><polygon class="cls-216" points="0 94.51 7.37 86.06 7.37 88.44 6.26 88.44 0 94.51"/><polygon class="cls-217" points="0 94.51 7.33 86.2 7.33 88.44 6.26 88.44 0 94.51"/><polygon class="cls-218" points="0 94.51 7.28 86.33 7.28 88.44 6.26 88.44 0 94.51"/><polygon class="cls-219" points="0 94.51 7.23 86.47 7.23 88.44 6.26 88.44 0 94.51"/><polygon class="cls-220" points="0 94.51 7.19 86.6 7.19 88.44 6.26 88.44 0 94.51"/><polygon class="cls-221" points="0 94.51 7.14 86.73 7.14 88.44 6.26 88.44 0 94.51"/><polygon class="cls-222" points="0 94.51 7.1 86.86 7.1 88.44 6.26 88.44 0 94.51"/></g><rect class="cls-223" y="94.51" width="21.44" height="21.44"/><polygon class="cls-224" points="5.87 88.44 0 94.51 21.44 94.51 27.31 88.44 5.87 88.44"/><polygon class="cls-225" points="27.31 88.44 21.44 94.51 21.44 115.95 27.31 109.88 27.31 88.44"/><g class="cls-2"><polygon class="cls-226" points="0 72.48 9.45 58.04 9.45 66.41 6.26 66.41 0 72.48"/><polygon class="cls-227" points="0 72.48 9.4 58.17 9.4 66.41 6.26 66.41 0 72.48"/><polygon class="cls-228" points="0 72.48 9.35 58.31 9.35 66.41 6.26 66.41 0 72.48"/><polygon class="cls-229" points="0 72.48 9.31 58.44 9.31 66.41 6.26 66.41 0 72.48"/><polygon class="cls-230" points="0 72.48 9.26 58.57 9.26 66.41 6.26 66.41 0 72.48"/><polygon class="cls-231" points="0 72.48 9.21 58.71 9.21 66.41 6.26 66.41 0 72.48"/><polygon class="cls-232" points="0 72.48 9.17 58.84 9.17 66.41 6.26 66.41 0 72.48"/><polygon class="cls-233" points="0 72.48 9.12 58.97 9.12 66.41 6.26 66.41 0 72.48"/><polygon class="cls-234" points="0 72.48 9.08 59.11 9.08 66.41 6.26 66.41 0 72.48"/><polygon class="cls-235" points="0 72.48 9.03 59.24 9.03 66.41 6.26 66.41 0 72.48"/><polygon class="cls-236" points="0 72.48 8.98 59.37 8.98 66.41 6.26 66.41 0 72.48"/><polygon class="cls-237" points="0 72.48 8.94 59.51 8.94 66.41 6.26 66.41 0 72.48"/><polygon class="cls-238" points="0 72.48 8.89 59.64 8.89 66.41 6.26 66.41 0 72.48"/><polygon class="cls-239" points="0 72.48 8.85 59.77 8.85 66.41 6.26 66.41 0 72.48"/><polygon class="cls-240" points="0 72.48 8.8 59.91 8.8 66.41 6.26 66.41 0 72.48"/><polygon class="cls-241" points="0 72.48 8.76 60.04 8.76 66.41 6.26 66.41 0 72.48"/><polygon class="cls-242" points="0 72.48 8.71 60.17 8.71 66.41 6.26 66.41 0 72.48"/><polygon class="cls-243" points="0 72.48 8.66 60.3 8.66 66.41 6.26 66.41 0 72.48"/><polygon class="cls-244" points="0 72.48 8.62 60.44 8.62 66.41 6.26 66.41 0 72.48"/><polygon class="cls-245" points="0 72.48 8.57 60.57 8.57 66.41 6.26 66.41 0 72.48"/><polygon class="cls-246" points="0 72.48 8.52 60.7 8.52 66.41 6.26 66.41 0 72.48"/><polygon class="cls-247" points="0 72.48 8.48 60.84 8.48 66.41 6.26 66.41 0 72.48"/><polygon class="cls-248" points="0 72.48 8.43 60.97 8.43 66.41 6.26 66.41 0 72.48"/><polygon class="cls-249" points="0 72.48 8.39 61.1 8.39 66.41 6.26 66.41 0 72.48"/><polygon class="cls-250" points="0 72.48 8.34 61.24 8.34 66.41 6.26 66.41 0 72.48"/><polygon class="cls-251" points="0 72.48 8.29 61.37 8.29 66.41 6.26 66.41 0 72.48"/><polygon class="cls-252" points="0 72.48 8.25 61.5 8.25 66.41 6.26 66.41 0 72.48"/><polygon class="cls-253" points="0 72.48 8.2 61.64 8.2 66.41 6.26 66.41 0 72.48"/><polygon class="cls-254" points="0 72.48 8.16 61.77 8.16 66.41 6.26 66.41 0 72.48"/><polygon class="cls-255" points="0 72.48 8.11 61.9 8.11 66.41 6.26 66.41 0 72.48"/><polygon class="cls-256" points="0 72.48 8.06 62.04 8.06 66.41 6.26 66.41 0 72.48"/><polygon class="cls-257" points="0 72.48 8.02 62.17 8.02 66.41 6.26 66.41 0 72.48"/><polygon class="cls-258" points="0 72.48 7.97 62.3 7.97 66.41 6.26 66.41 0 72.48"/><polygon class="cls-259" points="0 72.48 7.92 62.44 7.92 66.41 6.26 66.41 0 72.48"/><polygon class="cls-260" points="0 72.48 7.88 62.57 7.88 66.41 6.26 66.41 0 72.48"/><polygon class="cls-261" points="0 72.48 7.83 62.7 7.83 66.41 6.26 66.41 0 72.48"/><polygon class="cls-262" points="0 72.48 7.79 62.84 7.79 66.41 6.26 66.41 0 72.48"/><polygon class="cls-263" points="0 72.48 7.74 62.97 7.74 66.41 6.26 66.41 0 72.48"/><polygon class="cls-264" points="0 72.48 7.7 63.1 7.7 66.41 6.26 66.41 0 72.48"/><polygon class="cls-265" points="0 72.48 7.65 63.23 7.65 66.41 6.26 66.41 0 72.48"/><polygon class="cls-266" points="0 72.48 7.6 63.37 7.6 66.41 6.26 66.41 0 72.48"/><polygon class="cls-267" points="0 72.48 7.56 63.5 7.56 66.41 6.26 66.41 0 72.48"/><polygon class="cls-268" points="0 72.48 7.51 63.63 7.51 66.41 6.26 66.41 0 72.48"/><polygon class="cls-269" points="0 72.48 7.46 63.77 7.46 66.41 6.26 66.41 0 72.48"/><polygon class="cls-270" points="0 72.48 7.42 63.9 7.42 66.41 6.26 66.41 0 72.48"/><polygon class="cls-271" points="0 72.48 7.37 64.03 7.37 66.41 6.26 66.41 0 72.48"/><polygon class="cls-272" points="0 72.48 7.33 64.17 7.33 66.41 6.26 66.41 0 72.48"/><polygon class="cls-273" points="0 72.48 7.28 64.3 7.28 66.41 6.26 66.41 0 72.48"/><polygon class="cls-274" points="0 72.48 7.23 64.43 7.23 66.41 6.26 66.41 0 72.48"/><polygon class="cls-275" points="0 72.48 7.19 64.57 7.19 66.41 6.26 66.41 0 72.48"/><polygon class="cls-276" points="0 72.48 7.14 64.7 7.14 66.41 6.26 66.41 0 72.48"/><polygon class="cls-277" points="0 72.48 7.1 64.83 7.1 66.41 6.26 66.41 0 72.48"/></g><rect class="cls-278" y="72.48" width="21.44" height="21.44"/><polygon class="cls-279" points="5.87 66.41 0 72.48 21.44 72.48 27.31 66.41 5.87 66.41"/><polygon class="cls-280" points="27.31 66.41 21.44 72.48 21.44 93.92 27.31 87.85 27.31 66.41"/><g class="cls-2"><polygon class="cls-3" points="0 50.49 9.45 36.05 9.45 44.42 6.26 44.42 0 50.49"/><polygon class="cls-4" points="0 50.49 9.4 36.19 9.4 44.42 6.26 44.42 0 50.49"/><polygon class="cls-5" points="0 50.49 9.35 36.32 9.35 44.42 6.26 44.42 0 50.49"/><polygon class="cls-6" points="0 50.49 9.31 36.45 9.31 44.42 6.26 44.42 0 50.49"/><polygon class="cls-7" points="0 50.49 9.26 36.59 9.26 44.42 6.26 44.42 0 50.49"/><polygon class="cls-8" points="0 50.49 9.21 36.72 9.21 44.42 6.26 44.42 0 50.49"/><polygon class="cls-9" points="0 50.49 9.17 36.85 9.17 44.42 6.26 44.42 0 50.49"/><polygon class="cls-10" points="0 50.49 9.12 36.99 9.12 44.42 6.26 44.42 0 50.49"/><polygon class="cls-11" points="0 50.49 9.08 37.12 9.08 44.42 6.26 44.42 0 50.49"/><polygon class="cls-12" points="0 50.49 9.03 37.25 9.03 44.42 6.26 44.42 0 50.49"/><polygon class="cls-13" points="0 50.49 8.98 37.39 8.98 44.42 6.26 44.42 0 50.49"/><polygon class="cls-14" points="0 50.49 8.94 37.52 8.94 44.42 6.26 44.42 0 50.49"/><polygon class="cls-15" points="0 50.49 8.89 37.65 8.89 44.42 6.26 44.42 0 50.49"/><polygon class="cls-16" points="0 50.49 8.85 37.79 8.85 44.42 6.26 44.42 0 50.49"/><polygon class="cls-17" points="0 50.49 8.8 37.92 8.8 44.42 6.26 44.42 0 50.49"/><polygon class="cls-18" points="0 50.49 8.76 38.05 8.76 44.42 6.26 44.42 0 50.49"/><polygon class="cls-19" points="0 50.49 8.71 38.19 8.71 44.42 6.26 44.42 0 50.49"/><polygon class="cls-20" points="0 50.49 8.66 38.32 8.66 44.42 6.26 44.42 0 50.49"/><polygon class="cls-21" points="0 50.49 8.62 38.45 8.62 44.42 6.26 44.42 0 50.49"/><polygon class="cls-22" points="0 50.49 8.57 38.59 8.57 44.42 6.26 44.42 0 50.49"/><polygon class="cls-23" points="0 50.49 8.52 38.72 8.52 44.42 6.26 44.42 0 50.49"/><polygon class="cls-24" points="0 50.49 8.48 38.85 8.48 44.42 6.26 44.42 0 50.49"/><polygon class="cls-25" points="0 50.49 8.43 38.98 8.43 44.42 6.26 44.42 0 50.49"/><polygon class="cls-26" points="0 50.49 8.39 39.12 8.39 44.42 6.26 44.42 0 50.49"/><polygon class="cls-27" points="0 50.49 8.34 39.25 8.34 44.42 6.26 44.42 0 50.49"/><polygon class="cls-28" points="0 50.49 8.29 39.38 8.29 44.42 6.26 44.42 0 50.49"/><polygon class="cls-29" points="0 50.49 8.25 39.52 8.25 44.42 6.26 44.42 0 50.49"/><polygon class="cls-30" points="0 50.49 8.2 39.65 8.2 44.42 6.26 44.42 0 50.49"/><polygon class="cls-31" points="0 50.49 8.16 39.78 8.16 44.42 6.26 44.42 0 50.49"/><polygon class="cls-32" points="0 50.49 8.11 39.92 8.11 44.42 6.26 44.42 0 50.49"/><polygon class="cls-33" points="0 50.49 8.06 40.05 8.06 44.42 6.26 44.42 0 50.49"/><polygon class="cls-34" points="0 50.49 8.02 40.18 8.02 44.42 6.26 44.42 0 50.49"/><polygon class="cls-35" points="0 50.49 7.97 40.32 7.97 44.42 6.26 44.42 0 50.49"/><polygon class="cls-36" points="0 50.49 7.92 40.45 7.92 44.42 6.26 44.42 0 50.49"/><polygon class="cls-37" points="0 50.49 7.88 40.58 7.88 44.42 6.26 44.42 0 50.49"/><polygon class="cls-38" points="0 50.49 7.83 40.72 7.83 44.42 6.26 44.42 0 50.49"/><polygon class="cls-39" points="0 50.49 7.79 40.85 7.79 44.42 6.26 44.42 0 50.49"/><polygon class="cls-40" points="0 50.49 7.74 40.98 7.74 44.42 6.26 44.42 0 50.49"/><polygon class="cls-41" points="0 50.49 7.7 41.12 7.7 44.42 6.26 44.42 0 50.49"/><polygon class="cls-42" points="0 50.49 7.65 41.25 7.65 44.42 6.26 44.42 0 50.49"/><polygon class="cls-43" points="0 50.49 7.6 41.38 7.6 44.42 6.26 44.42 0 50.49"/><polygon class="cls-44" points="0 50.49 7.56 41.52 7.56 44.42 6.26 44.42 0 50.49"/><polygon class="cls-45" points="0 50.49 7.51 41.65 7.51 44.42 6.26 44.42 0 50.49"/><polygon class="cls-46" points="0 50.49 7.46 41.78 7.46 44.42 6.26 44.42 0 50.49"/><polygon class="cls-47" points="0 50.49 7.42 41.91 7.42 44.42 6.26 44.42 0 50.49"/><polygon class="cls-48" points="0 50.49 7.37 42.05 7.37 44.42 6.26 44.42 0 50.49"/><polygon class="cls-49" points="0 50.49 7.33 42.18 7.33 44.42 6.26 44.42 0 50.49"/><polygon class="cls-50" points="0 50.49 7.28 42.31 7.28 44.42 6.26 44.42 0 50.49"/><polygon class="cls-51" points="0 50.49 7.23 42.45 7.23 44.42 6.26 44.42 0 50.49"/><polygon class="cls-52" points="0 50.49 7.19 42.58 7.19 44.42 6.26 44.42 0 50.49"/><polygon class="cls-53" points="0 50.49 7.14 42.71 7.14 44.42 6.26 44.42 0 50.49"/><polygon class="cls-54" points="0 50.49 7.1 42.85 7.1 44.42 6.26 44.42 0 50.49"/></g><rect class="cls-281" y="50.49" width="21.44" height="21.44"/><polygon class="cls-282" points="5.87 44.42 0 50.49 21.44 50.49 27.31 44.42 5.87 44.42"/><polygon class="cls-283" points="27.31 44.42 21.44 50.49 21.44 71.93 27.31 65.86 27.31 44.42"/><g class="cls-2"><polygon class="cls-58" points="0 28.32 9.45 13.89 9.45 22.25 6.26 22.25 0 28.32"/><polygon class="cls-59" points="0 28.32 9.4 14.02 9.4 22.25 6.26 22.25 0 28.32"/><polygon class="cls-60" points="0 28.32 9.35 14.15 9.35 22.25 6.26 22.25 0 28.32"/><polygon class="cls-61" points="0 28.32 9.31 14.29 9.31 22.25 6.26 22.25 0 28.32"/><polygon class="cls-62" points="0 28.32 9.26 14.42 9.26 22.25 6.26 22.25 0 28.32"/><polygon class="cls-63" points="0 28.32 9.21 14.55 9.21 22.25 6.26 22.25 0 28.32"/><polygon class="cls-64" points="0 28.32 9.17 14.69 9.17 22.25 6.26 22.25 0 28.32"/><polygon class="cls-65" points="0 28.32 9.12 14.82 9.12 22.25 6.26 22.25 0 28.32"/><polygon class="cls-66" points="0 28.32 9.08 14.95 9.08 22.25 6.26 22.25 0 28.32"/><polygon class="cls-67" points="0 28.32 9.03 15.09 9.03 22.25 6.26 22.25 0 28.32"/><polygon class="cls-68" points="0 28.32 8.98 15.22 8.98 22.25 6.26 22.25 0 28.32"/><polygon class="cls-69" points="0 28.32 8.94 15.35 8.94 22.25 6.26 22.25 0 28.32"/><polygon class="cls-70" points="0 28.32 8.89 15.49 8.89 22.25 6.26 22.25 0 28.32"/><polygon class="cls-71" points="0 28.32 8.85 15.62 8.85 22.25 6.26 22.25 0 28.32"/><polygon class="cls-72" points="0 28.32 8.8 15.75 8.8 22.25 6.26 22.25 0 28.32"/><polygon class="cls-73" points="0 28.32 8.76 15.89 8.76 22.25 6.26 22.25 0 28.32"/><polygon class="cls-74" points="0 28.32 8.71 16.02 8.71 22.25 6.26 22.25 0 28.32"/><polygon class="cls-75" points="0 28.32 8.66 16.15 8.66 22.25 6.26 22.25 0 28.32"/><polygon class="cls-76" points="0 28.32 8.62 16.29 8.62 22.25 6.26 22.25 0 28.32"/><polygon class="cls-77" points="0 28.32 8.57 16.42 8.57 22.25 6.26 22.25 0 28.32"/><polygon class="cls-78" points="0 28.32 8.52 16.55 8.52 22.25 6.26 22.25 0 28.32"/><polygon class="cls-79" points="0 28.32 8.48 16.69 8.48 22.25 6.26 22.25 0 28.32"/><polygon class="cls-80" points="0 28.32 8.43 16.82 8.43 22.25 6.26 22.25 0 28.32"/><polygon class="cls-81" points="0 28.32 8.39 16.95 8.39 22.25 6.26 22.25 0 28.32"/><polygon class="cls-82" points="0 28.32 8.34 17.09 8.34 22.25 6.26 22.25 0 28.32"/><polygon class="cls-83" points="0 28.32 8.29 17.22 8.29 22.25 6.26 22.25 0 28.32"/><polygon class="cls-84" points="0 28.32 8.25 17.35 8.25 22.25 6.26 22.25 0 28.32"/><polygon class="cls-85" points="0 28.32 8.2 17.48 8.2 22.25 6.26 22.25 0 28.32"/><polygon class="cls-86" points="0 28.32 8.16 17.62 8.16 22.25 6.26 22.25 0 28.32"/><polygon class="cls-87" points="0 28.32 8.11 17.75 8.11 22.25 6.26 22.25 0 28.32"/><polygon class="cls-88" points="0 28.32 8.06 17.89 8.06 22.25 6.26 22.25 0 28.32"/><polygon class="cls-89" points="0 28.32 8.02 18.02 8.02 22.25 6.26 22.25 0 28.32"/><polygon class="cls-90" points="0 28.32 7.97 18.15 7.97 22.25 6.26 22.25 0 28.32"/><polygon class="cls-91" points="0 28.32 7.92 18.28 7.92 22.25 6.26 22.25 0 28.32"/><polygon class="cls-92" points="0 28.32 7.88 18.42 7.88 22.25 6.26 22.25 0 28.32"/><polygon class="cls-93" points="0 28.32 7.83 18.55 7.83 22.25 6.26 22.25 0 28.32"/><polygon class="cls-94" points="0 28.32 7.79 18.68 7.79 22.25 6.26 22.25 0 28.32"/><polygon class="cls-95" points="0 28.32 7.74 18.82 7.74 22.25 6.26 22.25 0 28.32"/><polygon class="cls-96" points="0 28.32 7.7 18.95 7.7 22.25 6.26 22.25 0 28.32"/><polygon class="cls-97" points="0 28.32 7.65 19.08 7.65 22.25 6.26 22.25 0 28.32"/><polygon class="cls-98" points="0 28.32 7.6 19.22 7.6 22.25 6.26 22.25 0 28.32"/><polygon class="cls-99" points="0 28.32 7.56 19.35 7.56 22.25 6.26 22.25 0 28.32"/><polygon class="cls-100" points="0 28.32 7.51 19.48 7.51 22.25 6.26 22.25 0 28.32"/><polygon class="cls-101" points="0 28.32 7.46 19.62 7.46 22.25 6.26 22.25 0 28.32"/><polygon class="cls-102" points="0 28.32 7.42 19.75 7.42 22.25 6.26 22.25 0 28.32"/><polygon class="cls-103" points="0 28.32 7.37 19.88 7.37 22.25 6.26 22.25 0 28.32"/><polygon class="cls-104" points="0 28.32 7.33 20.02 7.33 22.25 6.26 22.25 0 28.32"/><polygon class="cls-105" points="0 28.32 7.28 20.15 7.28 22.25 6.26 22.25 0 28.32"/><polygon class="cls-106" points="0 28.32 7.23 20.28 7.23 22.25 6.26 22.25 0 28.32"/><polygon class="cls-107" points="0 28.32 7.19 20.41 7.19 22.25 6.26 22.25 0 28.32"/><polygon class="cls-108" points="0 28.32 7.14 20.55 7.14 22.25 6.26 22.25 0 28.32"/><polygon class="cls-109" points="0 28.32 7.1 20.68 7.1 22.25 6.26 22.25 0 28.32"/></g><rect class="cls-284" y="28.32" width="21.44" height="21.44"/><polygon class="cls-285" points="5.87 22.25 0 28.32 21.44 28.32 27.31 22.25 5.87 22.25"/><polygon class="cls-286" points="27.31 22.25 21.44 28.32 21.44 49.77 27.31 43.7 27.31 22.25"/><rect class="cls-287" y="6.07" width="21.44" height="21.44"/><polygon class="cls-288" points="5.87 0 0 6.07 21.44 6.07 27.31 0 5.87 0"/><polygon class="cls-289" points="27.31 0 21.44 6.07 21.44 27.51 27.31 21.44 27.31 0"/></g></g></svg>