<svg id="Layer_1" data-name="Layer 1" xmlns="http://www.w3.org/2000/svg" xmlns:xlink="http://www.w3.org/1999/xlink" viewBox="0 0 62.65 62.65"><defs><radialGradient id="radial-gradient" cx="28.18" cy="44.77" r="4.19" gradientUnits="userSpaceOnUse"><stop offset="0" stop-color="#9d50d6"/><stop offset="1" stop-color="#893fbf"/></radialGradient><linearGradient id="linear-gradient" x1="37.24" y1="35.95" x2="31.39" y2="43.68" gradientUnits="userSpaceOnUse"><stop offset="0" stop-color="#893fbf"/><stop offset="1" stop-color="#9d50d6"/></linearGradient><radialGradient id="radial-gradient-2" cx="31.32" cy="31.91" r="21.26" xlink:href="#radial-gradient"/><linearGradient id="linear-gradient-2" x1="1.56" y1="37.07" x2="57.15" y2="37.07" xlink:href="#linear-gradient"/><linearGradient id="linear-gradient-3" x1="57.15" y1="32.83" x2="61.09" y2="32.83" xlink:href="#linear-gradient"/><radialGradient id="radial-gradient-3" cx="-35.27" cy="-2008.14" r="10.39" gradientTransform="translate(-1996.39 65.69) rotate(90)" gradientUnits="userSpaceOnUse"><stop offset="0" stop-color="#ff6300"/><stop offset="0.25" stop-color="#f96100"/><stop offset="0.57" stop-color="#e95c00"/><stop offset="0.93" stop-color="#cf5300"/><stop offset="1" stop-color="#c95100"/></radialGradient><linearGradient id="linear-gradient-4" x1="-49.43" y1="-2012.85" x2="-41.46" y2="-2011.88" gradientTransform="translate(-1996.39 65.69) rotate(90)" gradientUnits="userSpaceOnUse"><stop offset="0" stop-color="#d45500"/><stop offset="0.32" stop-color="#e75b00"/><stop offset="0.71" stop-color="#f86100"/><stop offset="1" stop-color="#fe6300"/></linearGradient><linearGradient id="linear-gradient-5" x1="-39.88" y1="-2022.62" x2="-39.19" y2="-2013.75" gradientTransform="translate(-1996.39 65.69) rotate(90)" gradientUnits="userSpaceOnUse"><stop offset="0" stop-color="#d05400"/><stop offset="0.36" stop-color="#e75c00"/><stop offset="0.72" stop-color="#f86100"/><stop offset="1" stop-color="#fe6300"/></linearGradient><radialGradient id="radial-gradient-4" cx="-33.89" cy="-2043" r="5.85" gradientTransform="translate(-1996.39 65.69) rotate(90)" gradientUnits="userSpaceOnUse"><stop offset="0" stop-color="#00a3bf"/><stop offset="1" stop-color="#0089b5"/></radialGradient><linearGradient id="linear-gradient-6" x1="-43.1" y1="-2045.64" x2="-38.43" y2="-2045.07" gradientTransform="translate(-1996.39 65.69) rotate(90)" gradientUnits="userSpaceOnUse"><stop offset="0" stop-color="#0094c2"/><stop offset="0.44" stop-color="#009dc0"/><stop offset="1" stop-color="#00a3bf"/></linearGradient><linearGradient id="linear-gradient-7" x1="-36.49" y1="-2052.34" x2="-36.09" y2="-2047.23" xlink:href="#linear-gradient-6"/><radialGradient id="radial-gradient-5" cx="-42.68" cy="-2043" r="5.39" gradientTransform="translate(-1996.39 65.69) rotate(90)" gradientUnits="userSpaceOnUse"><stop offset="0" stop-color="#afce22"/><stop offset="1" stop-color="#81bf2e"/></radialGradient><linearGradient id="linear-gradient-8" x1="-51.89" y1="-2045.64" x2="-47.22" y2="-2045.07" gradientTransform="translate(-1996.39 65.69) rotate(90)" gradientUnits="userSpaceOnUse"><stop offset="0" stop-color="#81bf2e"/><stop offset="0.36" stop-color="#98c728"/><stop offset="0.72" stop-color="#a9cc24"/><stop offset="1" stop-color="#afce22"/></linearGradient><linearGradient id="linear-gradient-9" x1="-45.28" y1="-2052.34" x2="-44.88" y2="-2047.23" xlink:href="#linear-gradient-8"/></defs><title>balance</title><circle cx="31.33" cy="31.33" r="31.33" fill="#525731"/><circle cx="31.33" cy="31.33" r="31.33" opacity="0.3"/><path d="M31.33,60.74A29.42,29.42,0,1,1,60.74,31.33,29.45,29.45,0,0,1,31.33,60.74Z" fill="#525731"/><polygon points="28.32 37.94 34.7 48.82 21.46 48.82 28.32 37.94" fill="url(#radial-gradient)"/><polygon points="41.19 40.53 34.7 48.82 28.32 37.94 35.09 32.73 41.19 40.53" fill="url(#linear-gradient)"/><polygon points="57.15 36.19 1.56 36.19 8.36 27.64 61.09 27.71 57.15 36.19" fill="url(#radial-gradient-2)"/><rect x="1.56" y="36.19" width="55.59" height="1.76" fill="url(#linear-gradient-2)"/><rect x="1.56" y="36.19" width="55.59" height="1.76" opacity="0.1"/><polygon points="61.09 29.27 57.15 37.95 57.15 36.19 61.09 27.71 61.09 29.27" fill="url(#linear-gradient-3)"/><polygon points="61.09 29.27 57.15 37.95 57.15 36.19 61.09 27.71 61.09 29.27" opacity="0.1"/><polygon points="61.09 29.27 57.15 37.95 57.15 36.19 61.09 27.71 61.09 29.27" opacity="0.1"/><rect x="5.98" y="24.66" width="11.53" height="11.53" fill="url(#radial-gradient-3)"/><polygon points="14.4 16.13 5.98 24.66 17.51 24.66 25.93 16.13 14.4 16.13" fill="url(#linear-gradient-4)"/><polygon points="25.93 16.13 17.51 24.66 17.51 36.19 25.93 27.66 25.93 16.13" fill="url(#linear-gradient-5)"/><rect x="42.22" y="27.4" width="8.79" height="8.79" fill="url(#radial-gradient-4)"/><polygon points="46.91 22.62 42.22 27.4 51.01 27.4 55.7 22.62 46.91 22.62" fill="url(#linear-gradient-6)"/><polygon points="55.7 22.62 51.01 27.4 51.01 36.19 55.7 31.41 55.7 22.62" fill="url(#linear-gradient-7)"/><rect x="42.22" y="18.61" width="8.79" height="8.79" fill="url(#radial-gradient-5)"/><polygon points="46.91 13.83 42.22 18.61 51.01 18.61 55.7 13.83 46.91 13.83" fill="url(#linear-gradient-8)"/><polygon points="55.7 13.83 51.01 18.61 51.01 27.4 55.7 22.62 55.7 13.83" fill="url(#linear-gradient-9)"/><text transform="translate(9.15 32.88) rotate(0.56) scale(0.99 1)" font-size="8.58" fill="#ffee17" font-family="ABeeZee-Regular, ABeeZee Regular">2</text><text transform="translate(44.86 33.52) rotate(0.73) scale(0.99 1)" font-size="5.85" fill="#ffee17" font-family="ABeeZee-Regular, ABeeZee Regular">4</text><text transform="translate(44.86 24.73) rotate(0.73) scale(0.99 1)" font-size="5.85" fill="#ffee17" font-family="ABeeZee-Regular, ABeeZee Regular">5</text></svg>