<svg id="Layer_1" data-name="Layer 1" xmlns="http://www.w3.org/2000/svg" viewBox="0 0 62.65 62.65"><title>diceIcon</title><circle cx="31.33" cy="31.33" r="31.33" fill="#525731"/><circle cx="31.33" cy="31.33" r="31.33" opacity="0.3"/><path d="M31.33,60.74A29.42,29.42,0,1,1,60.74,31.33,29.45,29.45,0,0,1,31.33,60.74Z" fill="#525731"/><path d="M56,17.91v0a4.85,4.85,0,0,0-3.47-4.59l-.34-.13-21-7a5.2,5.2,0,0,0-2.85,0L8.86,14.52a4.52,4.52,0,0,0-2.28,3.59v0l.08,23.1a4.81,4.81,0,0,0,1.93,3.45L30.81,56h0s2.77,1.52,5.1,0l.24-.15L54.42,43.16a5.86,5.86,0,0,0,1.64-4.24c0-.2,0-.38,0-.53Z" fill="#3a9ce6"/><path d="M9.43,16.11s-1.09-.91.86-1.81S27.44,6.9,27.44,6.9a7.54,7.54,0,0,1,4.25-.48l.37.08-.92-.3a5.2,5.2,0,0,0-2.85,0L8.86,14.52a3.93,3.93,0,0,0-1.42,1.23C7.55,15.8,10.41,17.31,9.43,16.11Z" fill="#297ea8"/><path d="M52.53,13.29l-.34-.13L31.6,6.36l.09.07s20.2,7,21.19,7.51a1,1,0,0,1,.32,1.54C52,17,55,15,55,15h0A5.05,5.05,0,0,0,52.53,13.29Z" fill="#6bb8f2"/><path d="M33.65,26.31,7.44,15.75A4.92,4.92,0,0,0,6.63,18V40.67a4.92,4.92,0,0,0,1.75,3.86l17.32,8.86L30.83,56h0a6.2,6.2,0,0,0,2.82.66Z" fill="#2c6993"/><path d="M8.75,44.27a4.15,4.15,0,0,1-2.1-3.07,4.85,4.85,0,0,0,1.72,3.33l17.32,8.86L30.83,56h0a6.26,6.26,0,0,0,2.63.66l-.86-.39C32.7,56.25,8.75,44.27,8.75,44.27Z" fill="#226082"/><path d="M56,18A4.91,4.91,0,0,0,55,15L33.65,26.31V56.64a4.28,4.28,0,0,0,2-.52L54.19,43.37A5.72,5.72,0,0,0,56.05,39V18Z" fill="#3484c1"/><path d="M54.19,43.37A5.72,5.72,0,0,0,56.05,39V39a5.81,5.81,0,0,1-2.4,4.19c-.12,0-16.66,11.49-19.5,13.46a4.16,4.16,0,0,0,1.48-.48Z" fill="#297ea8"/><path d="M33.64,29.35s.13-3.06-3.89-4.62c0,0,4.4,1.31,7.43-.28C37.17,24.45,33.69,26.69,33.64,29.35Z" fill="#297ea8"/><path d="M10.7,17.07s-3.1-1.84-1.48-2.7l-.35.15a3.93,3.93,0,0,0-1.42,1.23h0l0,.07-.08.13v0a4.94,4.94,0,0,0-.72,2.15v1.14C6.72,18.46,7.44,15.75,10.7,17.07Z" fill="#297ea8"/><ellipse cx="46.47" cy="19.51" rx="9.44" ry="0.15" transform="translate(-3.73 23.92) rotate(-27.8)" fill="#6bb8f2"/><ellipse cx="20.34" cy="20.85" rx="0.33" ry="13.68" transform="translate(-6.59 31.96) rotate(-68.12)" fill="#297ea8"/><ellipse cx="33.67" cy="39.85" rx="0.36" ry="14.38" fill="#297ea8"/><path d="M55.22,15.29A4.84,4.84,0,0,0,53,13.47c1.81.82-.74,3-.74,3,2.94-1.54,3.64.75,3.78,1.44A4.93,4.93,0,0,0,55.22,15.29Z" fill="#6bb8f2"/><path d="M33.65,54.5s-.58,2.07-1.84,1.87a4.88,4.88,0,0,0,3.92-.31C34,57,33.65,54.5,33.65,54.5Z" fill="#226082"/><path d="M41.38,27.64c-.65-1.68-2-2.09-3.1-.91A5.52,5.52,0,0,0,37.55,32c.66,1.71,2.05,2.11,3.1.91A5.6,5.6,0,0,0,41.38,27.64Z" fill="#6bb8f2"/><path d="M38.27,26.73a4.32,4.32,0,0,0-.93,2,5.42,5.42,0,0,0,.34,1.89c.66,1.7,2.05,2.11,3.11.91a4.46,4.46,0,0,0,.93-2,5.33,5.33,0,0,0-.33-1.87C40.72,26,39.34,25.56,38.27,26.73Z" fill="#317bad"/><path d="M41,27.74c-.57-1.46-1.77-1.81-2.69-.79a4.78,4.78,0,0,0-.62,4.52c.57,1.47,1.78,1.83,2.69.79A4.85,4.85,0,0,0,41,27.74Z" fill="#fff"/><path d="M41.38,35.78c-.65-1.68-2-2.09-3.1-.91a5.52,5.52,0,0,0-.72,5.22c.66,1.71,2.05,2.11,3.1.91A5.6,5.6,0,0,0,41.38,35.78Z" fill="#6bb8f2"/><path d="M38.27,34.87a4.32,4.32,0,0,0-.93,2,5.42,5.42,0,0,0,.34,1.89c.66,1.7,2.05,2.11,3.11.91a4.46,4.46,0,0,0,.93-2,5.33,5.33,0,0,0-.33-1.87C40.72,34.1,39.34,33.69,38.27,34.87Z" fill="#317bad"/><path d="M41,35.88c-.57-1.46-1.77-1.81-2.69-.79a4.78,4.78,0,0,0-.62,4.52c.57,1.47,1.78,1.83,2.69.79A4.85,4.85,0,0,0,41,35.88Z" fill="#fff"/><path d="M41.54,43.73c-.71-1.68-2.15-2-3.23-.66a5.87,5.87,0,0,0-.65,5.47c.72,1.71,2.17,2,3.23.66A6,6,0,0,0,41.54,43.73Z" fill="#6bb8f2"/><path d="M38.31,43.07a4.85,4.85,0,0,0-.93,2.15,5.38,5.38,0,0,0,.39,1.92c.72,1.7,2.16,2,3.23.66a5,5,0,0,0,.92-2.17,5.31,5.31,0,0,0-.38-1.91C40.83,42,39.38,41.76,38.31,43.07Z" fill="#317bad"/><path d="M41.19,43.78c-.61-1.45-1.87-1.71-2.8-.57a5.09,5.09,0,0,0-.56,4.74c.62,1.47,1.87,1.73,2.8.57A5.15,5.15,0,0,0,41.19,43.78Z" fill="#fff"/><path d="M47.89,24.12c-.65-1.68-2-2.09-3.1-.91a5.52,5.52,0,0,0-.72,5.22c.66,1.71,2.05,2.11,3.1.91A5.6,5.6,0,0,0,47.89,24.12Z" fill="#6bb8f2"/><path d="M44.79,23.21a4.32,4.32,0,0,0-.93,2,5.42,5.42,0,0,0,.34,1.89c.66,1.7,2.05,2.11,3.11.91a4.46,4.46,0,0,0,.93-2,5.33,5.33,0,0,0-.33-1.87C47.24,22.44,45.85,22,44.79,23.21Z" fill="#317bad"/><path d="M47.54,24.22c-.57-1.46-1.77-1.81-2.69-.79A4.78,4.78,0,0,0,44.23,28c.57,1.47,1.78,1.83,2.69.79A4.85,4.85,0,0,0,47.54,24.22Z" fill="#fff"/><path d="M47.89,32.26c-.65-1.68-2-2.09-3.1-.91a5.52,5.52,0,0,0-.72,5.22c.66,1.71,2.05,2.11,3.1.91A5.6,5.6,0,0,0,47.89,32.26Z" fill="#6bb8f2"/><path d="M44.79,31.35a4.32,4.32,0,0,0-.93,2,5.42,5.42,0,0,0,.34,1.89c.66,1.7,2.05,2.11,3.11.91a4.46,4.46,0,0,0,.93-2,5.33,5.33,0,0,0-.33-1.87C47.24,30.58,45.85,30.17,44.79,31.35Z" fill="#317bad"/><path d="M47.54,32.36c-.57-1.46-1.77-1.81-2.69-.79a4.78,4.78,0,0,0-.62,4.52c.57,1.47,1.78,1.83,2.69.79A4.85,4.85,0,0,0,47.54,32.36Z" fill="#fff"/><path d="M48.05,40.21c-.71-1.68-2.15-2-3.23-.66A5.87,5.87,0,0,0,44.17,45c.72,1.71,2.17,2,3.23.66A6,6,0,0,0,48.05,40.21Z" fill="#6bb8f2"/><path d="M44.82,39.55a4.85,4.85,0,0,0-.93,2.15,5.38,5.38,0,0,0,.39,1.92c.72,1.7,2.16,2,3.23.66a5,5,0,0,0,.92-2.17,5.31,5.31,0,0,0-.38-1.91C47.34,38.53,45.9,38.23,44.82,39.55Z" fill="#317bad"/><path d="M47.7,40.26c-.61-1.45-1.87-1.71-2.8-.57a5.09,5.09,0,0,0-.56,4.74c.62,1.47,1.87,1.73,2.8.57A5.15,5.15,0,0,0,47.7,40.26Z" fill="#fff"/><path d="M53.85,21c-.68-1.59-2.06-1.89-3.08-.68a5.39,5.39,0,0,0-.59,5.12c.69,1.61,2.07,1.92,3.08.68A5.47,5.47,0,0,0,53.85,21Z" fill="#6bb8f2"/><path d="M50.77,20.29a4.39,4.39,0,0,0-.88,2,5.08,5.08,0,0,0,.38,1.81c.69,1.61,2.07,1.92,3.08.68a4.54,4.54,0,0,0,.87-2,5,5,0,0,0-.37-1.8C53.17,19.38,51.79,19.07,50.77,20.29Z" fill="#317bad"/><path d="M53.46,21.07c-.59-1.37-1.78-1.64-2.67-.59a4.67,4.67,0,0,0-.51,4.43c.6,1.4,1.79,1.66,2.67.59A4.73,4.73,0,0,0,53.46,21.07Z" fill="#fff"/><path d="M53.85,28.85c-.68-1.59-2.06-1.89-3.08-.68a5.39,5.39,0,0,0-.59,5.12c.69,1.61,2.07,1.92,3.08.68A5.47,5.47,0,0,0,53.85,28.85Z" fill="#6bb8f2"/><path d="M50.77,28.17a4.39,4.39,0,0,0-.88,2A5.08,5.08,0,0,0,50.27,32c.69,1.61,2.07,1.92,3.08.68a4.54,4.54,0,0,0,.87-2,5,5,0,0,0-.37-1.8C53.17,27.26,51.79,27,50.77,28.17Z" fill="#317bad"/><path d="M53.46,29c-.59-1.37-1.78-1.64-2.67-.59a4.67,4.67,0,0,0-.51,4.43c.6,1.4,1.79,1.66,2.67.59A4.73,4.73,0,0,0,53.46,29Z" fill="#fff"/><path d="M54,36.74c-.57-1.63-1.9-2-3-.77a5.74,5.74,0,0,0-.91,5.19c.58,1.66,1.91,2,3,.76A5.83,5.83,0,0,0,54,36.74Z" fill="#6bb8f2"/><path d="M51,36a4.75,4.75,0,0,0-1,2,5.24,5.24,0,0,0,.25,1.85c.57,1.66,1.91,2,3,.77a4.92,4.92,0,0,0,1-2A5.14,5.14,0,0,0,54,36.74C53.39,35.1,52.06,34.76,51,36Z" fill="#317bad"/><path d="M53.56,36.85c-.49-1.41-1.65-1.71-2.58-.66a5,5,0,0,0-.79,4.5c.5,1.43,1.65,1.73,2.58.66A5,5,0,0,0,53.56,36.85Z" fill="#fff"/><path d="M30,48.77a5.51,5.51,0,0,0-3-4.68,2,2,0,0,0-3,2,5.56,5.56,0,0,0,3,4.68A2,2,0,0,0,30,48.77Z" fill="#6bb8f2"/><path d="M27,44.09a2.34,2.34,0,0,0-1.88-.1,2.57,2.57,0,0,0-.43,1.52,5.56,5.56,0,0,0,3,4.68,2.32,2.32,0,0,0,1.88.11A2.6,2.6,0,0,0,30,48.77,5.51,5.51,0,0,0,27,44.09Z" fill="#317bad"/><path d="M29.76,48.44a4.77,4.77,0,0,0-2.62-4,1.74,1.74,0,0,0-2.62,1.73,4.81,4.81,0,0,0,2.62,4A1.73,1.73,0,0,0,29.76,48.44Z" fill="#f2f2f2"/><path d="M22.12,45.16a5.51,5.51,0,0,0-3-4.68,2,2,0,0,0-3,2,5.56,5.56,0,0,0,3,4.68A2,2,0,0,0,22.12,45.16Z" fill="#6bb8f2"/><path d="M19.09,40.49a2.34,2.34,0,0,0-1.88-.1,2.57,2.57,0,0,0-.43,1.52,5.56,5.56,0,0,0,3,4.68,2.32,2.32,0,0,0,1.88.11,2.6,2.6,0,0,0,.43-1.53A5.51,5.51,0,0,0,19.09,40.49Z" fill="#317bad"/><path d="M21.85,44.84a4.77,4.77,0,0,0-2.62-4,1.74,1.74,0,0,0-2.62,1.73,4.81,4.81,0,0,0,2.62,4A1.73,1.73,0,0,0,21.85,44.84Z" fill="#f2f2f2"/><path d="M14.24,41.25a5.51,5.51,0,0,0-3-4.68,2,2,0,0,0-3,2,5.56,5.56,0,0,0,3,4.68A2,2,0,0,0,14.24,41.25Z" fill="#6bb8f2"/><path d="M11.21,36.57a2.34,2.34,0,0,0-1.88-.1A2.57,2.57,0,0,0,8.89,38a5.56,5.56,0,0,0,3,4.68,2.32,2.32,0,0,0,1.88.11,2.6,2.6,0,0,0,.43-1.53A5.51,5.51,0,0,0,11.21,36.57Z" fill="#317bad"/><path d="M14,40.92a4.77,4.77,0,0,0-2.62-4,1.74,1.74,0,0,0-2.62,1.73,4.81,4.81,0,0,0,2.62,4A1.73,1.73,0,0,0,14,40.92Z" fill="#f2f2f2"/><path d="M30,40a5.51,5.51,0,0,0-3-4.68,2,2,0,0,0-3,2A5.56,5.56,0,0,0,27,42,2,2,0,0,0,30,40Z" fill="#6bb8f2"/><path d="M27,35.35a2.34,2.34,0,0,0-1.88-.1,2.57,2.57,0,0,0-.43,1.52,5.56,5.56,0,0,0,3,4.68,2.32,2.32,0,0,0,1.88.11A2.6,2.6,0,0,0,30,40,5.51,5.51,0,0,0,27,35.35Z" fill="#317bad"/><path d="M29.76,39.7a4.77,4.77,0,0,0-2.62-4,1.74,1.74,0,0,0-2.62,1.73,4.81,4.81,0,0,0,2.62,4A1.73,1.73,0,0,0,29.76,39.7Z" fill="#f2f2f2"/><path d="M22.12,36.42a5.51,5.51,0,0,0-3-4.68,2,2,0,0,0-3,2,5.56,5.56,0,0,0,3,4.68A2,2,0,0,0,22.12,36.42Z" fill="#6bb8f2"/><path d="M19.09,31.74a2.34,2.34,0,0,0-1.88-.1,2.57,2.57,0,0,0-.43,1.52,5.56,5.56,0,0,0,3,4.68,2.32,2.32,0,0,0,1.88.11,2.6,2.6,0,0,0,.43-1.53A5.51,5.51,0,0,0,19.09,31.74Z" fill="#317bad"/><path d="M21.85,36.09a4.77,4.77,0,0,0-2.62-4,1.74,1.74,0,0,0-2.62,1.73,4.81,4.81,0,0,0,2.62,4A1.73,1.73,0,0,0,21.85,36.09Z" fill="#f2f2f2"/><path d="M14.24,32.5a5.51,5.51,0,0,0-3-4.68,2,2,0,0,0-3,2,5.56,5.56,0,0,0,3,4.68A2,2,0,0,0,14.24,32.5Z" fill="#6bb8f2"/><path d="M11.21,27.83a2.34,2.34,0,0,0-1.88-.1,2.57,2.57,0,0,0-.43,1.52,5.56,5.56,0,0,0,3,4.68A2.32,2.32,0,0,0,13.8,34a2.6,2.6,0,0,0,.43-1.53A5.51,5.51,0,0,0,11.21,27.83Z" fill="#317bad"/><path d="M14,32.18a4.77,4.77,0,0,0-2.62-4,1.74,1.74,0,0,0-2.62,1.73,4.81,4.81,0,0,0,2.62,4A1.73,1.73,0,0,0,14,32.18Z" fill="#f2f2f2"/><path d="M30,31.39a5.51,5.51,0,0,0-3-4.68,2,2,0,0,0-3,2,5.56,5.56,0,0,0,3,4.68A2,2,0,0,0,30,31.39Z" fill="#6bb8f2"/><path d="M27,26.71a2.34,2.34,0,0,0-1.88-.1,2.57,2.57,0,0,0-.43,1.52,5.56,5.56,0,0,0,3,4.68,2.32,2.32,0,0,0,1.88.11A2.6,2.6,0,0,0,30,31.39,5.51,5.51,0,0,0,27,26.71Z" fill="#317bad"/><path d="M29.76,31.06a4.77,4.77,0,0,0-2.62-4,1.74,1.74,0,0,0-2.62,1.73,4.81,4.81,0,0,0,2.62,4A1.73,1.73,0,0,0,29.76,31.06Z" fill="#f2f2f2"/><path d="M22.12,27.78a5.51,5.51,0,0,0-3-4.68,2,2,0,0,0-3,2,5.56,5.56,0,0,0,3,4.68A2,2,0,0,0,22.12,27.78Z" fill="#6bb8f2"/><path d="M19.09,23.1a2.34,2.34,0,0,0-1.88-.1,2.57,2.57,0,0,0-.43,1.52,5.56,5.56,0,0,0,3,4.68,2.32,2.32,0,0,0,1.88.11,2.6,2.6,0,0,0,.43-1.53A5.51,5.51,0,0,0,19.09,23.1Z" fill="#317bad"/><path d="M21.85,27.45a4.77,4.77,0,0,0-2.62-4,1.74,1.74,0,0,0-2.62,1.73,4.81,4.81,0,0,0,2.62,4A1.73,1.73,0,0,0,21.85,27.45Z" fill="#f2f2f2"/><path d="M14.24,23.87a5.51,5.51,0,0,0-3-4.68,2,2,0,0,0-3,2,5.56,5.56,0,0,0,3,4.68A2,2,0,0,0,14.24,23.87Z" fill="#6bb8f2"/><path d="M11.21,19.19a2.34,2.34,0,0,0-1.88-.1,2.57,2.57,0,0,0-.43,1.52,5.56,5.56,0,0,0,3,4.68,2.32,2.32,0,0,0,1.88.11,2.6,2.6,0,0,0,.43-1.53A5.51,5.51,0,0,0,11.21,19.19Z" fill="#317bad"/><path d="M14,23.54a4.77,4.77,0,0,0-2.62-4,1.74,1.74,0,0,0-2.62,1.73,4.81,4.81,0,0,0,2.62,4A1.73,1.73,0,0,0,14,23.54Z" fill="#f2f2f2"/><path d="M18.94,13.58a8.25,8.25,0,0,0-5.55.2c-1.37.69-1.1,1.74.6,2.33a8,8,0,0,0,5.55-.2C20.91,15.21,20.64,14.16,18.94,13.58Z" fill="#6bb8f2"/><path d="M13.39,13.79c-.58.29-.87.65-.87,1a2.89,2.89,0,0,0,1.23.73,8.06,8.06,0,0,0,5.55-.2c.58-.3.86-.66.87-1a2.83,2.83,0,0,0-1.22-.72A8.25,8.25,0,0,0,13.39,13.79Z" fill="#317bad"/><path d="M18.61,13.75a7.12,7.12,0,0,0-4.8.18c-1.18.6-1,1.5.52,2a7,7,0,0,0,4.8-.18C20.31,15.16,20.08,14.26,18.61,13.75Z" fill="#fff"/><path d="M26.32,10.52a8.25,8.25,0,0,0-5.55.2c-1.37.69-1.1,1.74.6,2.33a8,8,0,0,0,5.55-.2C28.29,12.14,28,11.1,26.32,10.52Z" fill="#6bb8f2"/><path d="M20.77,10.73c-.58.29-.87.65-.87,1a2.89,2.89,0,0,0,1.23.73,8.06,8.06,0,0,0,5.55-.2c.58-.3.86-.66.87-1a2.83,2.83,0,0,0-1.22-.72A8.25,8.25,0,0,0,20.77,10.73Z" fill="#317bad"/><path d="M26,10.69a7.12,7.12,0,0,0-4.8.18c-1.18.6-1,1.5.52,2a7,7,0,0,0,4.8-.18C27.69,12.1,27.46,11.19,26,10.69Z" fill="#fff"/><path d="M33.25,7.43a8.25,8.25,0,0,0-5.55.2c-1.37.69-1.1,1.74.6,2.33a8,8,0,0,0,5.55-.2C35.22,9,34.95,8,33.25,7.43Z" fill="#6bb8f2"/><path d="M27.71,7.63c-.58.29-.87.65-.87,1a2.89,2.89,0,0,0,1.23.73,8.06,8.06,0,0,0,5.55-.2c.58-.3.86-.66.87-1a2.83,2.83,0,0,0-1.22-.72A8.25,8.25,0,0,0,27.71,7.63Z" fill="#317bad"/><path d="M32.92,7.6a7.12,7.12,0,0,0-4.8.18c-1.18.6-1,1.5.52,2a7,7,0,0,0,4.8-.18C34.62,9,34.39,8.1,32.92,7.6Z" fill="#fff"/><path d="M26,16.66a8.25,8.25,0,0,0-5.55.2c-1.37.69-1.1,1.74.6,2.33a8,8,0,0,0,5.55-.2C28,18.28,27.74,17.24,26,16.66Z" fill="#6bb8f2"/><path d="M20.49,16.86c-.58.29-.87.65-.87,1a2.89,2.89,0,0,0,1.23.73,8.06,8.06,0,0,0,5.55-.2c.58-.3.86-.66.87-1A2.83,2.83,0,0,0,26,16.66,8.25,8.25,0,0,0,20.49,16.86Z" fill="#317bad"/><path d="M25.71,16.83a7.12,7.12,0,0,0-4.8.18c-1.18.6-1,1.5.52,2a7,7,0,0,0,4.8-.18C27.41,18.23,27.18,17.33,25.71,16.83Z" fill="#fff"/><path d="M33.42,13.6a8.25,8.25,0,0,0-5.55.2c-1.37.69-1.1,1.74.6,2.33a8,8,0,0,0,5.55-.2C35.39,15.22,35.12,14.18,33.42,13.6Z" fill="#6bb8f2"/><path d="M27.87,13.8c-.58.29-.87.65-.87,1a2.89,2.89,0,0,0,1.23.73,8.06,8.06,0,0,0,5.55-.2c.58-.3.86-.66.87-1a2.83,2.83,0,0,0-1.22-.72A8.25,8.25,0,0,0,27.87,13.8Z" fill="#317bad"/><path d="M33.09,13.77a7.12,7.12,0,0,0-4.8.18c-1.18.6-1,1.5.52,2a7,7,0,0,0,4.8-.18C34.79,15.17,34.56,14.27,33.09,13.77Z" fill="#fff"/><path d="M40.35,10.5a8.25,8.25,0,0,0-5.55.2c-1.37.69-1.1,1.74.6,2.33a8,8,0,0,0,5.55-.2C42.32,12.12,42,11.08,40.35,10.5Z" fill="#6bb8f2"/><path d="M34.81,10.7c-.58.29-.87.65-.87,1a2.89,2.89,0,0,0,1.23.73,8.06,8.06,0,0,0,5.55-.2c.58-.3.86-.66.87-1a2.83,2.83,0,0,0-1.22-.72A8.25,8.25,0,0,0,34.81,10.7Z" fill="#317bad"/><path d="M40,10.67a7.12,7.12,0,0,0-4.8.18c-1.18.6-1,1.5.52,2a7,7,0,0,0,4.8-.18C41.72,12.08,41.49,11.17,40,10.67Z" fill="#fff"/><path d="M34.26,19.79a8.25,8.25,0,0,0-5.55.2c-1.37.69-1.1,1.74.6,2.33a8,8,0,0,0,5.55-.2C36.22,21.41,36,20.37,34.26,19.79Z" fill="#6bb8f2"/><path d="M28.71,20c-.58.29-.87.65-.87,1a2.89,2.89,0,0,0,1.23.73,8.06,8.06,0,0,0,5.55-.2c.58-.3.86-.66.87-1a2.83,2.83,0,0,0-1.22-.72A8.25,8.25,0,0,0,28.71,20Z" fill="#317bad"/><path d="M33.93,20a7.12,7.12,0,0,0-4.8.18c-1.18.6-1,1.5.52,2a7,7,0,0,0,4.8-.18C35.63,21.37,35.39,20.46,33.93,20Z" fill="#fff"/><path d="M41.64,16.73a8.25,8.25,0,0,0-5.55.2c-1.37.69-1.1,1.74.6,2.33a8,8,0,0,0,5.55-.2C43.6,18.35,43.34,17.31,41.64,16.73Z" fill="#6bb8f2"/><path d="M36.09,16.93c-.58.29-.87.65-.87,1a2.89,2.89,0,0,0,1.23.73,8.06,8.06,0,0,0,5.55-.2c.58-.3.86-.66.87-1a2.83,2.83,0,0,0-1.22-.72A8.25,8.25,0,0,0,36.09,16.93Z" fill="#317bad"/><path d="M41.31,16.9a7.12,7.12,0,0,0-4.8.18c-1.18.6-1,1.5.52,2a7,7,0,0,0,4.8-.18C43,18.3,42.77,17.4,41.31,16.9Z" fill="#fff"/><path d="M48.57,13.63a8.25,8.25,0,0,0-5.55.2c-1.37.69-1.1,1.74.6,2.33a8,8,0,0,0,5.55-.2C50.54,15.25,50.27,14.21,48.57,13.63Z" fill="#6bb8f2"/><path d="M43,13.84c-.58.29-.87.65-.87,1a2.89,2.89,0,0,0,1.23.73,8.06,8.06,0,0,0,5.55-.2c.58-.3.86-.66.87-1a2.83,2.83,0,0,0-1.22-.72A8.25,8.25,0,0,0,43,13.84Z" fill="#317bad"/><path d="M48.24,13.8a7.12,7.12,0,0,0-4.8.18c-1.18.6-1,1.5.52,2a7,7,0,0,0,4.8-.18C49.94,15.21,49.71,14.3,48.24,13.8Z" fill="#fff"/></svg>