<svg id="Layer_1" data-name="Layer 1" xmlns="http://www.w3.org/2000/svg" xmlns:xlink="http://www.w3.org/1999/xlink" viewBox="0 0 62.65 62.65"><defs><linearGradient id="linear-gradient" x1="62.82" y1="16.22" x2="62.82" y2="21.97" gradientTransform="translate(53.28 -50.87) rotate(90)" gradientUnits="userSpaceOnUse"><stop offset="0" stop-color="#ffc256"/><stop offset="1" stop-color="#c75208"/></linearGradient><linearGradient id="linear-gradient-2" x1="62.82" y1="21.51" x2="62.82" y2="16.37" xlink:href="#linear-gradient"/><radialGradient id="radial-gradient" cx="58.28" cy="17.39" r="2.09" gradientTransform="translate(52.02 -47.05) rotate(90) scale(1.01 1.02)" gradientUnits="userSpaceOnUse"><stop offset="0" stop-color="#e5a30e"/><stop offset="1" stop-color="#ffc256"/></radialGradient><linearGradient id="linear-gradient-3" x1="62.82" y1="23.7" x2="62.82" y2="29.45" xlink:href="#linear-gradient"/><linearGradient id="linear-gradient-4" x1="62.82" y1="28.99" x2="62.82" y2="23.84" xlink:href="#linear-gradient"/><radialGradient id="radial-gradient-2" cx="58.28" cy="24.74" r="2.09" xlink:href="#radial-gradient"/><linearGradient id="linear-gradient-5" x1="82.2" y1="16.22" x2="82.2" y2="21.97" xlink:href="#linear-gradient"/><linearGradient id="linear-gradient-6" x1="82.2" y1="21.51" x2="82.2" y2="16.37" xlink:href="#linear-gradient"/><radialGradient id="radial-gradient-3" cx="77.42" cy="17.39" r="2.09" xlink:href="#radial-gradient"/><linearGradient id="linear-gradient-7" x1="72.51" y1="23.7" x2="72.51" y2="29.45" xlink:href="#linear-gradient"/><linearGradient id="linear-gradient-8" x1="72.51" y1="28.99" x2="72.51" y2="23.84" xlink:href="#linear-gradient"/><radialGradient id="radial-gradient-4" cx="67.85" cy="24.74" r="2.09" xlink:href="#radial-gradient"/><linearGradient id="linear-gradient-9" x1="101.58" y1="16.22" x2="101.58" y2="21.97" xlink:href="#linear-gradient"/><linearGradient id="linear-gradient-10" x1="101.58" y1="21.51" x2="101.58" y2="16.37" xlink:href="#linear-gradient"/><radialGradient id="radial-gradient-5" cx="96.56" cy="17.39" r="2.09" xlink:href="#radial-gradient"/><linearGradient id="linear-gradient-11" x1="82.2" y1="23.7" x2="82.2" y2="29.45" xlink:href="#linear-gradient"/><linearGradient id="linear-gradient-12" x1="82.2" y1="28.99" x2="82.2" y2="23.84" xlink:href="#linear-gradient"/><radialGradient id="radial-gradient-6" cx="77.42" cy="24.74" r="2.09" xlink:href="#radial-gradient"/><linearGradient id="linear-gradient-13" x1="91.89" y1="23.7" x2="91.89" y2="29.45" xlink:href="#linear-gradient"/><linearGradient id="linear-gradient-14" x1="91.89" y1="28.99" x2="91.89" y2="23.84" xlink:href="#linear-gradient"/><radialGradient id="radial-gradient-7" cx="86.99" cy="24.74" r="2.09" xlink:href="#radial-gradient"/><linearGradient id="linear-gradient-15" x1="91.89" y1="16.22" x2="91.89" y2="21.97" xlink:href="#linear-gradient"/><linearGradient id="linear-gradient-16" x1="91.89" y1="21.51" x2="91.89" y2="16.37" xlink:href="#linear-gradient"/><radialGradient id="radial-gradient-8" cx="86.99" cy="17.39" r="2.09" xlink:href="#radial-gradient"/><linearGradient id="linear-gradient-17" x1="101.58" y1="23.7" x2="101.58" y2="29.45" xlink:href="#linear-gradient"/><linearGradient id="linear-gradient-18" x1="101.58" y1="28.99" x2="101.58" y2="23.84" xlink:href="#linear-gradient"/><radialGradient id="radial-gradient-9" cx="96.56" cy="24.74" r="2.09" xlink:href="#radial-gradient"/><linearGradient id="linear-gradient-19" x1="72.51" y1="16.22" x2="72.51" y2="21.97" xlink:href="#linear-gradient"/><linearGradient id="linear-gradient-20" x1="72.51" y1="21.51" x2="72.51" y2="16.37" xlink:href="#linear-gradient"/><radialGradient id="radial-gradient-10" cx="67.85" cy="17.39" r="2.09" xlink:href="#radial-gradient"/></defs><title>20Icon</title><circle cx="31.33" cy="31.33" r="31.33" fill="#525731"/><circle cx="31.33" cy="31.33" r="31.33" opacity="0.3"/><path d="M31.33,60.74A29.42,29.42,0,1,1,60.74,31.33,29.45,29.45,0,0,1,31.33,60.74Z" fill="#525731"/><ellipse cx="34.35" cy="11.95" rx="2.73" ry="2.72" fill="#b9001b" opacity="0.4"/><ellipse cx="34.35" cy="11.95" rx="2.73" ry="2.72" fill="url(#linear-gradient)"/><ellipse cx="34.35" cy="11.95" rx="2.59" ry="2.58" fill="url(#linear-gradient-2)"/><ellipse cx="34.35" cy="11.95" rx="2.13" ry="2.12" fill="url(#radial-gradient)"/><ellipse cx="26.87" cy="11.95" rx="2.73" ry="2.72" fill="#b9001b" opacity="0.4"/><ellipse cx="26.87" cy="11.95" rx="2.73" ry="2.72" fill="url(#linear-gradient-3)"/><ellipse cx="26.87" cy="11.95" rx="2.59" ry="2.58" fill="url(#linear-gradient-4)"/><ellipse cx="26.87" cy="11.95" rx="2.13" ry="2.12" fill="url(#radial-gradient-2)"/><ellipse cx="34.35" cy="31.33" rx="2.73" ry="2.72" fill="#b9001b" opacity="0.4"/><ellipse cx="34.35" cy="31.33" rx="2.73" ry="2.72" fill="url(#linear-gradient-5)"/><ellipse cx="34.35" cy="31.33" rx="2.59" ry="2.58" fill="url(#linear-gradient-6)"/><ellipse cx="34.35" cy="31.33" rx="2.13" ry="2.12" fill="url(#radial-gradient-3)"/><ellipse cx="26.87" cy="21.64" rx="2.73" ry="2.72" fill="#b9001b" opacity="0.4"/><ellipse cx="26.87" cy="21.64" rx="2.73" ry="2.72" fill="url(#linear-gradient-7)"/><ellipse cx="26.87" cy="21.64" rx="2.59" ry="2.58" fill="url(#linear-gradient-8)"/><ellipse cx="26.87" cy="21.64" rx="2.13" ry="2.12" fill="url(#radial-gradient-4)"/><ellipse cx="34.35" cy="50.7" rx="2.73" ry="2.72" fill="#b9001b" opacity="0.4"/><ellipse cx="34.35" cy="50.7" rx="2.73" ry="2.72" fill="url(#linear-gradient-9)"/><ellipse cx="34.35" cy="50.7" rx="2.59" ry="2.58" fill="url(#linear-gradient-10)"/><ellipse cx="34.35" cy="50.7" rx="2.13" ry="2.12" fill="url(#radial-gradient-5)"/><ellipse cx="26.87" cy="31.33" rx="2.73" ry="2.72" fill="#b9001b" opacity="0.4"/><ellipse cx="26.87" cy="31.33" rx="2.73" ry="2.72" fill="url(#linear-gradient-11)"/><ellipse cx="26.87" cy="31.33" rx="2.59" ry="2.58" fill="url(#linear-gradient-12)"/><ellipse cx="26.87" cy="31.33" rx="2.13" ry="2.12" fill="url(#radial-gradient-6)"/><ellipse cx="26.87" cy="41.01" rx="2.73" ry="2.72" fill="#b9001b" opacity="0.4"/><ellipse cx="26.87" cy="41.01" rx="2.73" ry="2.72" fill="url(#linear-gradient-13)"/><ellipse cx="26.87" cy="41.01" rx="2.59" ry="2.58" fill="url(#linear-gradient-14)"/><ellipse cx="26.87" cy="41.01" rx="2.13" ry="2.12" fill="url(#radial-gradient-7)"/><ellipse cx="34.35" cy="41.01" rx="2.73" ry="2.72" fill="#b9001b" opacity="0.4"/><ellipse cx="34.35" cy="41.01" rx="2.73" ry="2.72" fill="url(#linear-gradient-15)"/><ellipse cx="34.35" cy="41.01" rx="2.59" ry="2.58" fill="url(#linear-gradient-16)"/><ellipse cx="34.35" cy="41.01" rx="2.13" ry="2.12" fill="url(#radial-gradient-8)"/><ellipse cx="26.87" cy="50.7" rx="2.73" ry="2.72" fill="#b9001b" opacity="0.4"/><ellipse cx="26.87" cy="50.7" rx="2.73" ry="2.72" fill="url(#linear-gradient-17)"/><ellipse cx="26.87" cy="50.7" rx="2.59" ry="2.58" fill="url(#linear-gradient-18)"/><ellipse cx="26.87" cy="50.7" rx="2.13" ry="2.12" fill="url(#radial-gradient-9)"/><ellipse cx="34.35" cy="21.64" rx="2.73" ry="2.72" fill="#b9001b" opacity="0.4"/><ellipse cx="34.35" cy="21.64" rx="2.73" ry="2.72" fill="url(#linear-gradient-19)"/><ellipse cx="34.35" cy="21.64" rx="2.59" ry="2.58" fill="url(#linear-gradient-20)"/><ellipse cx="34.35" cy="21.64" rx="2.13" ry="2.12" fill="url(#radial-gradient-10)"/><path d="M38,16.84H30.4V7.05H38Zm-7.48-.1h7.38V7.15H30.5Z" fill="#fff"/><path d="M38,26.53H30.4V16.74H38Zm-7.48-.1h7.38V16.84H30.5Z" fill="#fff"/><path d="M30.5,36.22H22.92V26.43H30.5ZM23,36.12H30.4V26.53H23Z" fill="#fff"/><path d="M30.5,45.91H22.92V36.12H30.5ZM23,45.81H30.4V36.22H23Z" fill="#fff"/><path d="M38,45.91H30.4V36.12H38Zm-7.48-.1h7.38V36.22H30.5Z" fill="#fff"/><path d="M38,55.6H30.4V45.81H38Zm-7.48-.1h7.38V45.91H30.5Z" fill="#fff"/><path d="M30.5,55.6H22.92V45.81H30.5ZM23,55.5H30.4V45.91H23Z" fill="#fff"/><path d="M38,36.22H30.4V26.43H38Zm-7.48-.1h7.38V26.53H30.5Z" fill="#fff"/><path d="M30.5,16.84H22.92V7.05H30.5ZM23,16.74H30.4V7.15H23Z" fill="#fff"/><path d="M30.5,26.53H22.92V16.74H30.5ZM23,26.43H30.4V16.84H23Z" fill="#fff"/><text transform="translate(3.7 38.3) scale(0.99 1)" font-size="15" fill="#fff" font-family="ABeeZee-Regular, ABeeZee Regular" letter-spacing="-0.01em">t<tspan x="4.88" y="0" xml:space="preserve" letter-spacing="0em">o     20</tspan></text></svg>