<svg id="Layer_1" data-name="Layer 1" xmlns="http://www.w3.org/2000/svg" xmlns:xlink="http://www.w3.org/1999/xlink" viewBox="0 0 51.42 46.95"><defs><style>.cls-1{fill:#fff;}.cls-2{fill:#fbfbfb;}.cls-3{fill:#f8f8f8;}.cls-4{fill:#f4f4f4;}.cls-5{fill:#f1f1f1;}.cls-6{fill:#ededed;}.cls-7{fill:#e9e9e9;}.cls-8{fill:#e6e6e6;}.cls-9{fill:#e2e2e2;}.cls-10{fill:#dedede;}.cls-11{fill:#dbdbdb;}.cls-12{fill:#d7d7d7;}.cls-13{fill:#d4d4d4;}.cls-14{fill:#d0d0d0;}.cls-15{fill:#ccc;}.cls-16{fill:#c9c9c9;}.cls-17{fill:#c5c5c5;}.cls-18{fill:#c1c1c1;}.cls-19{fill:#bebebe;}.cls-20{fill:#bababa;}.cls-21{fill:#b7b7b7;}.cls-22{fill:#b3b3b3;}.cls-23{fill:url(#linear-gradient);}.cls-24{fill:url(#linear-gradient-2);}.cls-25{fill:url(#linear-gradient-3);}.cls-26{fill:url(#linear-gradient-4);}.cls-27{fill:#202020;}.cls-28{fill:url(#linear-gradient-5);}.cls-29{fill:url(#linear-gradient-6);}.cls-30{fill:url(#linear-gradient-7);}.cls-31{fill:url(#linear-gradient-8);}.cls-32{fill:url(#linear-gradient-9);}.cls-33{fill:url(#linear-gradient-10);}.cls-34{fill:url(#linear-gradient-11);}.cls-35{fill:url(#linear-gradient-12);}.cls-36{fill:#303030;}.cls-37{fill:url(#linear-gradient-13);}.cls-38{fill:url(#linear-gradient-14);}.cls-39{fill:#101010;}.cls-40{fill:url(#linear-gradient-15);}.cls-41{fill:url(#linear-gradient-16);}.cls-42{fill:url(#linear-gradient-17);}.cls-43{fill:url(#linear-gradient-18);}.cls-44{fill:url(#linear-gradient-19);}.cls-45{fill:url(#linear-gradient-20);}.cls-46{fill:none;}.cls-47{fill:url(#radial-gradient);}.cls-48{fill:url(#radial-gradient-2);}.cls-49{fill:url(#radial-gradient-3);}.cls-50{fill:url(#radial-gradient-4);}.cls-51{fill:url(#radial-gradient-5);}.cls-52{fill:url(#radial-gradient-6);}.cls-53{fill:url(#radial-gradient-7);}.cls-54{fill:url(#radial-gradient-8);}.cls-55{fill:url(#radial-gradient-9);}.cls-56{fill:url(#radial-gradient-10);}.cls-57{fill:url(#radial-gradient-11);}.cls-58{fill:url(#radial-gradient-12);}.cls-59{fill:url(#radial-gradient-13);}.cls-60{fill:url(#radial-gradient-14);}.cls-61{fill:url(#radial-gradient-15);}.cls-62{fill:url(#radial-gradient-16);}.cls-63{fill:url(#radial-gradient-17);}.cls-64{fill:url(#radial-gradient-18);}.cls-65{fill:url(#radial-gradient-19);}.cls-66{fill:url(#radial-gradient-20);}.cls-67{fill:url(#radial-gradient-21);}.cls-68{fill:url(#radial-gradient-22);}</style><linearGradient id="linear-gradient" x1="-1822.51" y1="506.66" x2="-1818.24" y2="499.57" gradientTransform="matrix(0.01, 1, 1, -0.01, -435.8, 1829.73)" gradientUnits="userSpaceOnUse"><stop offset="0" stop-color="#505050"/><stop offset="1" stop-color="#303030"/></linearGradient><linearGradient id="linear-gradient-2" x1="-1724.35" y1="417.11" x2="-1719.03" y2="411.57" gradientTransform="matrix(-0.16, 0.99, 0.99, 0.16, -642.06, 1635.34)" gradientUnits="userSpaceOnUse"><stop offset="0" stop-color="#a7a7a7"/><stop offset="1" stop-color="#404040"/></linearGradient><linearGradient id="linear-gradient-3" x1="-1818.45" y1="499.66" x2="-1815.1" y2="489.33" gradientTransform="matrix(0.01, 1, 1, -0.01, -435.8, 1829.73)" gradientUnits="userSpaceOnUse"><stop offset="0" stop-color="#404040"/><stop offset="1" stop-color="#202020"/></linearGradient><linearGradient id="linear-gradient-4" x1="-1818.6" y1="498.96" x2="-1815.26" y2="488.98" gradientTransform="matrix(0.01, 1, 1, -0.01, -435.8, 1829.73)" gradientUnits="userSpaceOnUse"><stop offset="0" stop-color="#9f9f9f"/><stop offset="1" stop-color="#303030"/></linearGradient><linearGradient id="linear-gradient-5" x1="-1817.37" y1="459.53" x2="-1815.09" y2="463.95" xlink:href="#linear-gradient"/><linearGradient id="linear-gradient-6" x1="-1817.06" y1="459.57" x2="-1814.92" y2="464.3" gradientTransform="matrix(0.01, 1, 1, -0.01, -435.8, 1829.73)" xlink:href="#linear-gradient-2"/><linearGradient id="linear-gradient-7" x1="-1815.59" y1="463.8" x2="-1812.52" y2="471.35" xlink:href="#linear-gradient-3"/><linearGradient id="linear-gradient-8" x1="-1792.75" y1="431.77" x2="-1791.08" y2="438.76" gradientTransform="matrix(-0.05, 1, 1, 0.05, -514.34, 1778.06)" xlink:href="#linear-gradient-4"/><linearGradient id="linear-gradient-9" x1="-1824.24" y1="488.22" x2="-1819.36" y2="483.84" xlink:href="#linear-gradient"/><linearGradient id="linear-gradient-10" x1="-1784.96" y1="441.18" x2="-1780.18" y2="437.82" gradientTransform="matrix(-0.08, 1, 1, 0.08, -544.01, 1746.78)" xlink:href="#linear-gradient-2"/><linearGradient id="linear-gradient-11" x1="-1819.25" y1="484.02" x2="-1814.39" y2="479.91" xlink:href="#linear-gradient-3"/><linearGradient id="linear-gradient-12" x1="-1819.5" y1="483.48" x2="-1814.38" y2="479.76" xlink:href="#linear-gradient-4"/><linearGradient id="linear-gradient-13" x1="-1857.58" y1="645.94" x2="-1862.92" y2="640.55" gradientTransform="matrix(0.18, 0.98, 0.98, -0.18, -241.47, 1989.46)" gradientUnits="userSpaceOnUse"><stop offset="0" stop-color="#979797"/><stop offset="1" stop-color="#303030"/></linearGradient><linearGradient id="linear-gradient-14" x1="-1783.3" y1="499.19" x2="-1786.87" y2="489.12" gradientTransform="matrix(0.01, 1, 1, -0.01, -435.8, 1829.73)" gradientUnits="userSpaceOnUse"><stop offset="0" stop-color="#6a6a6a"/><stop offset="1" stop-color="#202020"/></linearGradient><linearGradient id="linear-gradient-15" x1="-1785.1" y1="459.52" x2="-1787.28" y2="464.03" gradientTransform="matrix(0.01, 1, 1, -0.01, -435.8, 1829.73)" xlink:href="#linear-gradient-13"/><linearGradient id="linear-gradient-16" x1="-1794.88" y1="481.81" x2="-1797.33" y2="488.99" gradientTransform="matrix(0.04, 1, 1, -0.04, -408.12, 1849.09)" xlink:href="#linear-gradient-14"/><linearGradient id="linear-gradient-17" x1="-1812.04" y1="548.82" x2="-1817.31" y2="545.14" gradientTransform="matrix(0.1, 1, 1, -0.1, -335.74, 1903.73)" xlink:href="#linear-gradient-13"/><linearGradient id="linear-gradient-18" x1="-1782.62" y1="482.81" x2="-1787.64" y2="479.89" xlink:href="#linear-gradient-14"/><linearGradient id="linear-gradient-19" x1="-1793.05" y1="456.54" x2="-1797.62" y2="460.89" gradientTransform="matrix(0.01, 1, 1, -0.01, -435.8, 1829.73)" gradientUnits="userSpaceOnUse"><stop offset="0" stop-color="#404040"/><stop offset="1" stop-color="#303030"/></linearGradient><linearGradient id="linear-gradient-20" x1="-1807.95" y1="456.78" x2="-1804.19" y2="460.94" xlink:href="#linear-gradient-19"/><radialGradient id="radial-gradient" cx="-2435.06" cy="531.68" r="12.79" gradientTransform="matrix(0.01, 0.68, 1.04, -0.01, -522.74, 1693.82)" gradientUnits="userSpaceOnUse"><stop offset="0" stop-color="#484848"/><stop offset="0.17" stop-color="#444"/><stop offset="0.35" stop-color="#373737"/><stop offset="0.53" stop-color="#232323"/><stop offset="0.72" stop-color="#060606"/><stop offset="0.75"/><stop offset="0.83" stop-color="#070707"/><stop offset="0.95" stop-color="#1b1b1b"/><stop offset="1" stop-color="#242424"/></radialGradient><radialGradient id="radial-gradient-2" cx="-2435.06" cy="531.68" r="12.79" gradientTransform="matrix(0.01, 0.68, 1.04, -0.01, -522.74, 1693.82)" gradientUnits="userSpaceOnUse"><stop offset="0" stop-color="#fff"/><stop offset="0.75"/><stop offset="0.83" stop-color="#070707"/><stop offset="0.95" stop-color="#1b1b1b"/><stop offset="1" stop-color="#242424"/></radialGradient><radialGradient id="radial-gradient-3" cx="-2435.06" cy="531.68" r="12.79" gradientTransform="matrix(0.01, 0.68, 1.04, -0.01, -522.74, 1693.82)" gradientUnits="userSpaceOnUse"><stop offset="0" stop-color="#484848"/><stop offset="0.21" stop-color="#444"/><stop offset="0.43" stop-color="#373737"/><stop offset="0.66" stop-color="#232323"/><stop offset="0.75" stop-color="#181818"/><stop offset="0.8" stop-color="#1f1f1f"/><stop offset="0.88" stop-color="#333"/><stop offset="0.97" stop-color="#535353"/><stop offset="1" stop-color="#606060"/></radialGradient><radialGradient id="radial-gradient-4" cx="-147.12" cy="239.13" r="0.15" gradientTransform="matrix(0.63, 57.73, -87.74, 0.96, 21086.39, 8283.56)" gradientUnits="userSpaceOnUse"><stop offset="0" stop-color="#ddd"/><stop offset="0.4" stop-color="#d9d9d9"/><stop offset="0.75" stop-color="#cfcfcf"/><stop offset="1" stop-color="#d6d6d6"/><stop offset="1" stop-color="#d6d6d6"/></radialGradient><radialGradient id="radial-gradient-5" cx="-147.12" cy="239.13" r="0.15" gradientTransform="matrix(0.63, 57.73, -87.74, 0.96, 21086.39, 8283.56)" gradientUnits="userSpaceOnUse"><stop offset="0" stop-color="#e9e9e9"/><stop offset="0.5" stop-color="#e5e5e5"/><stop offset="0.75" stop-color="#e0e0e0"/><stop offset="1" stop-color="#e4e4e4"/></radialGradient><radialGradient id="radial-gradient-6" cx="-147.11" cy="239.13" r="0.15" gradientTransform="matrix(0.63, 57.73, -87.74, 0.96, 21086.18, 8282.87)" gradientUnits="userSpaceOnUse"><stop offset="0" stop-color="#e1e1e1"/><stop offset="0.57" stop-color="#ddd"/><stop offset="0.75" stop-color="#dadada"/><stop offset="0.93" stop-color="#e1e1e1"/><stop offset="1" stop-color="#e5e5e5"/></radialGradient><radialGradient id="radial-gradient-7" cx="-147.12" cy="239.13" r="0.15" gradientTransform="matrix(0.63, 57.73, -87.74, 0.96, 21086.39, 8283.56)" gradientUnits="userSpaceOnUse"><stop offset="0" stop-color="#fff"/><stop offset="0.75" stop-color="#f0f0f0"/><stop offset="1" stop-color="#f2f2f2"/></radialGradient><radialGradient id="radial-gradient-8" cx="-2438.42" cy="406.9" r="26.3" gradientTransform="matrix(0.01, 0.68, 0.69, -0.01, -234.57, 1690.65)" gradientUnits="userSpaceOnUse"><stop offset="0" stop-color="#3f3f3f"/><stop offset="0.19" stop-color="#3b3b3b"/><stop offset="0.38" stop-color="#2e2e2e"/><stop offset="0.57" stop-color="#1a1a1a"/><stop offset="0.75"/><stop offset="0.81" stop-color="#070707"/><stop offset="0.9" stop-color="#1b1b1b"/><stop offset="1" stop-color="#383838"/></radialGradient><radialGradient id="radial-gradient-9" cx="-161.65" cy="241.83" r="0.15" gradientTransform="matrix(1.3, 118.7, -120.27, 1.32, 29325.87, 18887.38)" gradientUnits="userSpaceOnUse"><stop offset="0" stop-color="#202020"/><stop offset="0.26" stop-color="#1c1c1c"/><stop offset="0.54" stop-color="#0f0f0f"/><stop offset="0.75"/><stop offset="0.83" stop-color="#070707"/><stop offset="0.95" stop-color="#191919"/><stop offset="1" stop-color="#242424"/></radialGradient><radialGradient id="radial-gradient-10" cx="-2439.47" cy="391.09" r="26.22" gradientTransform="matrix(0.01, 0.68, 0.69, -0.01, -234.57, 1690.65)" gradientUnits="userSpaceOnUse"><stop offset="0" stop-color="#606060"/><stop offset="0.15" stop-color="#5c5c5c"/><stop offset="0.3" stop-color="#4f4f4f"/><stop offset="0.46" stop-color="#3b3b3b"/><stop offset="0.62" stop-color="#1e1e1e"/><stop offset="0.75"/><stop offset="0.82" stop-color="#070707"/><stop offset="0.92" stop-color="#1b1b1b"/><stop offset="1" stop-color="#303030"/></radialGradient><radialGradient id="radial-gradient-11" cx="-2439.47" cy="391.09" r="26.22" gradientTransform="matrix(0.01, 0.68, 0.69, -0.01, -234.57, 1690.65)" gradientUnits="userSpaceOnUse"><stop offset="0" stop-color="#606060"/><stop offset="0.17" stop-color="#5c5c5c"/><stop offset="0.35" stop-color="#4f4f4f"/><stop offset="0.53" stop-color="#3b3b3b"/><stop offset="0.72" stop-color="#1e1e1e"/><stop offset="0.75" stop-color="#181818"/><stop offset="0.8" stop-color="#1f1f1f"/><stop offset="0.88" stop-color="#333"/><stop offset="0.97" stop-color="#535353"/><stop offset="1" stop-color="#606060"/></radialGradient><radialGradient id="radial-gradient-12" cx="-2439.47" cy="391.09" r="26.22" gradientTransform="matrix(0.01, 0.68, 0.69, -0.01, -234.57, 1690.65)" gradientUnits="userSpaceOnUse"><stop offset="0.05" stop-color="#fff"/><stop offset="0.75"/><stop offset="0.82" stop-color="#070707"/><stop offset="0.92" stop-color="#1b1b1b"/><stop offset="1" stop-color="#303030"/></radialGradient><radialGradient id="radial-gradient-13" cx="-2439.47" cy="391.09" r="26.22" gradientTransform="matrix(0.01, 0.68, 0.69, -0.01, -234.57, 1690.65)" gradientUnits="userSpaceOnUse"><stop offset="0" stop-color="#606060"/><stop offset="0.17" stop-color="#5c5c5c"/><stop offset="0.35" stop-color="#4f4f4f"/><stop offset="0.53" stop-color="#3b3b3b"/><stop offset="0.72" stop-color="#1e1e1e"/><stop offset="0.75" stop-color="#181818"/><stop offset="0.86" stop-color="#1f1f1f"/><stop offset="1" stop-color="#303030"/></radialGradient><radialGradient id="radial-gradient-14" cx="-2388.11" cy="530.67" r="26.22" gradientTransform="matrix(0.01, 0.73, 0.89, -0.01, -423.46, 1756.04)" gradientUnits="userSpaceOnUse"><stop offset="0" stop-color="#4d4d4d"/><stop offset="0.23" stop-color="#494949"/><stop offset="0.47" stop-color="#3c3c3c"/><stop offset="0.7" stop-color="#282828"/><stop offset="0.75" stop-color="#232323"/><stop offset="0.86" stop-color="#2a2a2a"/><stop offset="1" stop-color="#3c3c3c"/></radialGradient><radialGradient id="radial-gradient-15" cx="-2388.11" cy="530.67" r="26.22" gradientTransform="matrix(0.01, 0.73, 0.89, -0.01, -423.46, 1756.04)" gradientUnits="userSpaceOnUse"><stop offset="0.05" stop-color="#9e9e9e"/><stop offset="0.75" stop-color="#232323"/><stop offset="0.86" stop-color="#2a2a2a"/><stop offset="1" stop-color="#3c3c3c"/></radialGradient><radialGradient id="radial-gradient-16" cx="-2359.35" cy="701.77" r="26.22" gradientTransform="matrix(-0.04, 0.73, 0.89, 0.04, -678.67, 1697.12)" gradientUnits="userSpaceOnUse"><stop offset="0" stop-color="#292929"/><stop offset="0.35" stop-color="#252525"/><stop offset="0.72" stop-color="#181818"/><stop offset="0.75" stop-color="#171717"/><stop offset="0.87" stop-color="#1e1e1e"/><stop offset="1" stop-color="#2b2b2b"/></radialGradient><radialGradient id="radial-gradient-17" cx="-2359.35" cy="701.77" r="26.22" gradientTransform="matrix(-0.04, 0.73, 0.89, 0.04, -678.67, 1697.12)" gradientUnits="userSpaceOnUse"><stop offset="0.05" stop-color="#bcbcbc"/><stop offset="0.75" stop-color="#232323"/><stop offset="0.86" stop-color="#2a2a2a"/><stop offset="1" stop-color="#3c3c3c"/></radialGradient><radialGradient id="radial-gradient-18" cx="-2359.35" cy="701.77" r="26.22" gradientTransform="matrix(-0.04, 0.73, 0.89, 0.04, -678.67, 1697.12)" gradientUnits="userSpaceOnUse"><stop offset="0" stop-color="#363636"/><stop offset="0.33" stop-color="#323232"/><stop offset="0.66" stop-color="#252525"/><stop offset="0.75" stop-color="#212121"/><stop offset="0.98" stop-color="#282828"/><stop offset="1" stop-color="#292929"/></radialGradient><radialGradient id="radial-gradient-19" cx="-2359.35" cy="701.77" r="26.22" gradientTransform="matrix(-0.04, 0.73, 0.89, 0.04, -678.67, 1697.12)" gradientUnits="userSpaceOnUse"><stop offset="0" stop-color="#565656"/><stop offset="0.24" stop-color="#525252"/><stop offset="0.49" stop-color="#454545"/><stop offset="0.74" stop-color="#313131"/><stop offset="0.75" stop-color="#303030"/><stop offset="0.92" stop-color="#373737"/><stop offset="1" stop-color="#3c3c3c"/></radialGradient><radialGradient id="radial-gradient-20" cx="-2359.59" cy="702.08" r="26.54" xlink:href="#radial-gradient-19"/><radialGradient id="radial-gradient-21" cx="-2429.71" cy="357.6" r="26.22" gradientTransform="matrix(0.05, 0.72, 0.88, -0.06, -161.22, 1799.09)" gradientUnits="userSpaceOnUse"><stop offset="0" stop-color="#383838"/><stop offset="0.26" stop-color="#343434"/><stop offset="0.53" stop-color="#272727"/><stop offset="0.75" stop-color="#171717"/><stop offset="0.87" stop-color="#1e1e1e"/><stop offset="1" stop-color="#2b2b2b"/></radialGradient><radialGradient id="radial-gradient-22" cx="-2429.71" cy="357.6" r="26.22" gradientTransform="matrix(0.05, 0.72, 0.88, -0.06, -161.22, 1799.09)" xlink:href="#radial-gradient-17"/></defs><title>dung beetle</title><ellipse class="cls-1" cx="47.93" cy="4.7" rx="4.11" ry="0.7" transform="translate(11.42 36.11) rotate(-46.31)"/><ellipse class="cls-2" cx="47.98" cy="4.64" rx="4.04" ry="0.68" transform="translate(11.48 36.13) rotate(-46.31)"/><ellipse class="cls-3" cx="48.04" cy="4.59" rx="3.96" ry="0.67" transform="translate(11.54 36.15) rotate(-46.31)"/><ellipse class="cls-4" cx="48.09" cy="4.53" rx="3.88" ry="0.66" transform="translate(11.59 36.18) rotate(-46.31)"/><ellipse class="cls-5" cx="48.14" cy="4.48" rx="3.8" ry="0.65" transform="translate(11.65 36.2) rotate(-46.31)"/><ellipse class="cls-6" cx="48.2" cy="4.42" rx="3.73" ry="0.64" transform="translate(11.71 36.22) rotate(-46.31)"/><ellipse class="cls-7" cx="48.25" cy="4.37" rx="3.65" ry="0.63" transform="translate(11.76 36.24) rotate(-46.31)"/><ellipse class="cls-8" cx="48.31" cy="4.31" rx="3.57" ry="0.62" transform="translate(11.82 36.26) rotate(-46.31)"/><ellipse class="cls-9" cx="48.36" cy="4.25" rx="3.49" ry="0.6" transform="translate(11.88 36.28) rotate(-46.31)"/><ellipse class="cls-10" cx="48.41" cy="4.2" rx="3.42" ry="0.59" transform="translate(11.94 36.3) rotate(-46.31)"/><ellipse class="cls-11" cx="48.47" cy="4.14" rx="3.34" ry="0.58" transform="translate(11.99 36.32) rotate(-46.31)"/><ellipse class="cls-12" cx="48.52" cy="4.09" rx="3.26" ry="0.57" transform="translate(12.05 36.35) rotate(-46.31)"/><ellipse class="cls-13" cx="48.57" cy="4.03" rx="3.18" ry="0.56" transform="translate(12.11 36.37) rotate(-46.31)"/><ellipse class="cls-14" cx="48.63" cy="3.97" rx="3.11" ry="0.55" transform="translate(12.16 36.39) rotate(-46.31)"/><ellipse class="cls-15" cx="48.68" cy="3.92" rx="3.03" ry="0.54" transform="translate(12.22 36.41) rotate(-46.31)"/><ellipse class="cls-16" cx="48.73" cy="3.86" rx="2.95" ry="0.53" transform="translate(12.28 36.43) rotate(-46.31)"/><ellipse class="cls-17" cx="48.79" cy="3.81" rx="2.87" ry="0.51" transform="translate(12.33 36.45) rotate(-46.31)"/><ellipse class="cls-18" cx="48.84" cy="3.75" rx="2.8" ry="0.5" transform="translate(12.39 36.47) rotate(-46.31)"/><ellipse class="cls-19" cx="48.89" cy="3.69" rx="2.72" ry="0.49" transform="translate(12.45 36.49) rotate(-46.31)"/><ellipse class="cls-20" cx="48.95" cy="3.64" rx="2.64" ry="0.48" transform="translate(12.5 36.52) rotate(-46.31)"/><ellipse class="cls-21" cx="49" cy="3.58" rx="2.57" ry="0.47" transform="translate(12.56 36.54) rotate(-46.31)"/><ellipse class="cls-22" cx="49.05" cy="3.53" rx="2.49" ry="0.46" transform="translate(12.62 36.56) rotate(-46.31)"/><path class="cls-23" d="M42.09,7.08s0,0,.05,0c.25.05.49.12.72.18l.15,0c.29.07.35-.41.58-.6l.1-.05.12,0,1.24-.32a5.51,5.51,0,0,0,1.39-.57l.74-.43.67-.45a6.85,6.85,0,0,0,1.15-1l1.9-2a.2.2,0,0,0-.11-.33.38.38,0,0,1-.28-.2l-.09-.16a.45.45,0,0,0-.77,0l-1.38,2a3.22,3.22,0,0,1-.5.56l-.94.84L46,5.09a2.63,2.63,0,0,1-.68.3l-2.88.81a.6.6,0,0,0-.45.62,1.09,1.09,0,0,0,0,.22A.17.17,0,0,1,42.09,7.08Z"/><path class="cls-24" d="M43.16,6.13a2.17,2.17,0,0,0,.42-.05l.9-.21a6.8,6.8,0,0,0,1.41-.49l.34-.16.5-.34a7.13,7.13,0,0,0,1.15-1l.61-.64,1.23-1.7a.29.29,0,0,1,.43,0,.34.34,0,0,1,0,.47L48.86,3.37l-.29.3a11,11,0,0,1-2.34,1.85h0l-1,.41-2.31.54a.15.15,0,0,1-.19-.14.19.19,0,0,1,.18-.19Z"/><path class="cls-25" d="M32.08,10.65a.58.58,0,0,1,.17-.78c.24-.16-.09,0,.27-.28A2.17,2.17,0,0,0,33,9.08a1.39,1.39,0,0,1,.53-.42A1.05,1.05,0,0,0,34,8.22l.2-.42a.28.28,0,0,1,.47,0c.11.15.3,0,.39-.18s.19-.41.3-.61.26,0,.4.06l0,0a.43.43,0,0,0,.32,0c.21-.08.43-.13.63-.22.46-.22,1-.42,1.14-.46s.43-.15.62-.25c.46-.25.68-.86,1.11-1.18.2-.15.42.07.44.33,0,0,0,.06,0,.09a.34.34,0,0,0,.37.28,6.79,6.79,0,0,0,2-.54l1-.48A.39.39,0,0,1,44,5c0,.24-.09.5-.12.72a1,1,0,0,0,.14.73,2.25,2.25,0,0,0,.84.68.33.33,0,0,1,0,.57l-.16.08-.58.05c-.17,0-.35.1-.36.28s-.1.3-.21.25a9.25,9.25,0,0,0-1.23-.47h-.12a11.55,11.55,0,0,0-2.55,0c-.7.14-2,.6-2.66.8A3.22,3.22,0,0,0,36.3,9a32.62,32.62,0,0,1-3.47,1.9A.6.6,0,0,1,32.08,10.65Z"/><path class="cls-26" d="M32.53,10.63a.3.3,0,0,1,0-.43c.59-.51.53-.71,1.1-1.26a2.29,2.29,0,0,1,.41-.31.63.63,0,0,0,.21-.2l0-.05c.09-.14.33-.08.47-.18l0,0L35.15,8a1.38,1.38,0,0,0,.36-.39c.05-.08.15-.26.27-.18a.18.18,0,0,0,.23,0,7.72,7.72,0,0,1,.73-.33l.43-.2a7.12,7.12,0,0,1,.76-.3l.37-.11a1.19,1.19,0,0,0,.34-.11,2.5,2.5,0,0,0,.25-.22,2.68,2.68,0,0,0,.25-.2,1.69,1.69,0,0,1,.19-.2s.14-.11.18,0,0,.11,0,.15c-.08.2.1.26.25.23.46-.08.92-.18,1.37-.29.23-.05.52-.12,1-.25a3.4,3.4,0,0,0,1.06-.48c.12-.09.24.07.14.19a.82.82,0,0,0,0,.83.93.93,0,0,0,.26.34c.19.17,0,.51-.26.51h-.19a.27.27,0,0,0-.21.1.31.31,0,0,1-.34.1l-.95-.34a1.94,1.94,0,0,0-1.19,0q-.9.25-1.81.46t-1.79.61a6.47,6.47,0,0,0-1.36.61L35,8.7a5.86,5.86,0,0,0-1.16.88c-.5.49-.37.64-.87,1.1A.3.3,0,0,1,32.53,10.63Z"/><path class="cls-27" d="M30.58,13.63a.7.7,0,0,0,.49.9l.53.14a1,1,0,0,0,1.1-.47l2-3.62a.43.43,0,0,0-.38-.65H34a.91.91,0,0,1-.65-.26l-.57-.56a.47.47,0,0,0-.78.19Z"/><ellipse class="cls-1" cx="5.92" cy="9.6" rx="0.48" ry="2.76" transform="translate(-5.32 8.64) rotate(-53.43)"/><ellipse class="cls-2" cx="5.88" cy="9.57" rx="0.48" ry="2.71" transform="translate(-5.31 8.59) rotate(-53.43)"/><ellipse class="cls-3" cx="5.84" cy="9.54" rx="0.47" ry="2.66" transform="translate(-5.3 8.55) rotate(-53.43)"/><ellipse class="cls-4" cx="5.8" cy="9.51" rx="0.46" ry="2.6" transform="translate(-5.29 8.5) rotate(-53.43)"/><ellipse class="cls-5" cx="5.76" cy="9.48" rx="0.45" ry="2.55" transform="translate(-5.28 8.46) rotate(-53.43)"/><ellipse class="cls-6" cx="5.72" cy="9.45" rx="0.44" ry="2.5" transform="translate(-5.28 8.41) rotate(-53.43)"/><ellipse class="cls-7" cx="5.67" cy="9.42" rx="0.44" ry="2.45" transform="translate(-5.27 8.36) rotate(-53.43)"/><ellipse class="cls-8" cx="5.63" cy="9.39" rx="0.43" ry="2.4" transform="translate(-5.26 8.32) rotate(-53.43)"/><ellipse class="cls-9" cx="5.59" cy="9.35" rx="0.42" ry="2.34" transform="translate(-5.25 8.27) rotate(-53.43)"/><ellipse class="cls-10" cx="5.55" cy="9.32" rx="0.41" ry="2.29" transform="translate(-5.24 8.23) rotate(-53.43)"/><ellipse class="cls-11" cx="5.51" cy="9.29" rx="0.4" ry="2.24" transform="translate(-5.24 8.18) rotate(-53.43)"/><ellipse class="cls-12" cx="5.47" cy="9.26" rx="0.4" ry="2.19" transform="translate(-5.23 8.13) rotate(-53.43)"/><ellipse class="cls-13" cx="5.42" cy="9.23" rx="0.39" ry="2.14" transform="translate(-5.22 8.09) rotate(-53.43)"/><ellipse class="cls-14" cx="5.38" cy="9.2" rx="0.38" ry="2.08" transform="translate(-5.21 8.04) rotate(-53.43)"/><ellipse class="cls-15" cx="5.34" cy="9.17" rx="0.37" ry="2.03" transform="translate(-5.2 8) rotate(-53.43)"/><ellipse class="cls-16" cx="5.3" cy="9.14" rx="0.37" ry="1.98" transform="translate(-5.2 7.95) rotate(-53.43)"/><ellipse class="cls-17" cx="5.26" cy="9.11" rx="0.36" ry="1.93" transform="translate(-5.19 7.9) rotate(-53.43)"/><ellipse class="cls-18" cx="5.22" cy="9.08" rx="0.35" ry="1.88" transform="translate(-5.18 7.86) rotate(-53.43)"/><ellipse class="cls-19" cx="5.17" cy="9.05" rx="0.34" ry="1.82" transform="translate(-5.17 7.81) rotate(-53.43)"/><ellipse class="cls-20" cx="5.13" cy="9.01" rx="0.33" ry="1.77" transform="matrix(0.6, -0.8, 0.8, 0.6, -5.17, 7.77)"/><ellipse class="cls-21" cx="5.09" cy="8.98" rx="0.33" ry="1.72" transform="translate(-5.16 7.72) rotate(-53.43)"/><ellipse class="cls-22" cx="5.05" cy="8.95" rx="0.32" ry="1.67" transform="translate(-5.15 7.67) rotate(-53.43)"/><path class="cls-28" d="M3.84,7.32a.87.87,0,0,1-.33.35.32.32,0,0,0,0,.54L5,9.27l1.25.63a3.7,3.7,0,0,0,1.42.39l2.5.16a.46.46,0,0,0,.49-.45.5.5,0,0,0-.47-.51L7.77,9.34A2.23,2.23,0,0,1,7,9.18l-1-.41a1.58,1.58,0,0,1-.59-.43l-1-1.13a.39.39,0,0,0-.64.07Z"/><path class="cls-29" d="M3.78,8.15a.14.14,0,0,1,0-.22.26.26,0,0,0,.1-.15v0a.14.14,0,0,1,.23-.06l.72.7a3.4,3.4,0,0,0,1,.69l.6.26a3.89,3.89,0,0,0,1.44.32l2.41.07a.23.23,0,0,1,.22.25.25.25,0,0,1-.26.23l-2.09-.09A5.22,5.22,0,0,1,6.9,9.92a6,6,0,0,1-1.2-.51l-1-.54Z"/><path class="cls-30" d="M8.33,9.71c.08.25.12.54,0,.7a1.44,1.44,0,0,1-.43.23c-.16.07-.21.45,0,.47a.8.8,0,0,1,.63.27.28.28,0,0,1,0,.12.09.09,0,0,0,.1.08c.52-.1.8-.15,1.34-.29a10.41,10.41,0,0,1,1.18-.14c.43,0,1.08,0,1.08,0a6.23,6.23,0,0,1,1.13.12,7.1,7.1,0,0,1,1.55.54,18.77,18.77,0,0,1,1.95,1.43c.27.18.76,0,1-.4l.15-.21c.29-.41.28-.83,0-1a7,7,0,0,1-1.3-.65l-.1-.06c-.41-.19-.42-.8-1-.61l-.06,0a11.57,11.57,0,0,0-1.56-.64c-.51-.18-.42-.19-.83-.59C13,8.9,12.7,8.6,12.62,9s-.45.23-.62.13a1.74,1.74,0,0,1-.47-.53c-.15-.22-.42,0-.47.23a.27.27,0,0,1-.25.24h-.07A6.14,6.14,0,0,1,9,8.54c-.68-.35-.85-1-1.07-.63s.11.92.26,1.44l0,.1Z"/><path class="cls-31" d="M16.5,12.71l-.44-.44a3.41,3.41,0,0,0-1-.68l-.48-.24a4.13,4.13,0,0,0-.43-.16L13.43,11A3.87,3.87,0,0,0,12,10.78l-.29,0c-.47,0-.93.07-1.39.14L9.8,11a2.22,2.22,0,0,0-.51.1,1.44,1.44,0,0,1-.26.07c-.14,0-.26-.16-.26-.33a4.41,4.41,0,0,0,.13-.58,2.64,2.64,0,0,0-.09-.74c-.07-.19.12-.34.24-.18a1.06,1.06,0,0,0,.66.34c.43.1.89.16.89.16l.46,0c.17,0,.38,0,.44-.12s.16-.2.25-.13.22.19.32.27l0,0,.05,0,.24.06c.14,0,.34.07.37-.08s.31-.17.49,0a2.46,2.46,0,0,1,.36.3.86.86,0,0,0,.23.19,17.48,17.48,0,0,1,2.42,1.25c1.17.75.62.51,1,.7.15.07.13.27,0,.42a.52.52,0,0,1-.59.11Z"/><path class="cls-27" d="M19.29,14.83a1,1,0,0,0,.13-1.21L18,11a.56.56,0,0,0-.89-.11l-.37.4a1.67,1.67,0,0,1-.61.41l-.93.36a.45.45,0,0,0-.13.76l2.84,2.42a.77.77,0,0,0,1.07-.07Z"/><ellipse class="cls-1" cx="30.38" cy="3.83" rx="4.11" ry="0.7" transform="translate(9.7 26.41) rotate(-54.71)"/><ellipse class="cls-2" cx="30.42" cy="3.77" rx="4.04" ry="0.68" transform="translate(9.77 26.42) rotate(-54.71)"/><ellipse class="cls-3" cx="30.47" cy="3.7" rx="3.96" ry="0.67" transform="matrix(0.58, -0.82, 0.82, 0.58, 9.84, 26.43)"/><ellipse class="cls-4" cx="30.51" cy="3.64" rx="3.88" ry="0.66" transform="translate(9.91 26.44) rotate(-54.71)"/><ellipse class="cls-5" cx="30.56" cy="3.58" rx="3.8" ry="0.65" transform="translate(9.98 26.45) rotate(-54.71)"/><ellipse class="cls-6" cx="30.6" cy="3.51" rx="3.73" ry="0.64" transform="translate(10.05 26.46) rotate(-54.71)"/><ellipse class="cls-7" cx="30.65" cy="3.45" rx="3.65" ry="0.63" transform="translate(10.12 26.47) rotate(-54.71)"/><ellipse class="cls-8" cx="30.69" cy="3.39" rx="3.57" ry="0.62" transform="translate(10.2 26.48) rotate(-54.71)"/><ellipse class="cls-9" cx="30.74" cy="3.32" rx="3.49" ry="0.6" transform="translate(10.27 26.49) rotate(-54.71)"/><ellipse class="cls-10" cx="30.78" cy="3.26" rx="3.42" ry="0.59" transform="translate(10.34 26.5) rotate(-54.71)"/><ellipse class="cls-11" cx="30.83" cy="3.2" rx="3.34" ry="0.58" transform="translate(10.41 26.51) rotate(-54.71)"/><ellipse class="cls-12" cx="30.87" cy="3.13" rx="3.26" ry="0.57" transform="translate(10.48 26.52) rotate(-54.71)"/><ellipse class="cls-13" cx="30.92" cy="3.07" rx="3.18" ry="0.56" transform="translate(10.55 26.53) rotate(-54.71)"/><ellipse class="cls-14" cx="30.96" cy="3.01" rx="3.11" ry="0.55" transform="translate(10.62 26.54) rotate(-54.71)"/><ellipse class="cls-15" cx="31.01" cy="2.94" rx="3.03" ry="0.54" transform="translate(10.69 26.55) rotate(-54.71)"/><ellipse class="cls-16" cx="31.05" cy="2.88" rx="2.95" ry="0.53" transform="translate(10.76 26.56) rotate(-54.71)"/><ellipse class="cls-17" cx="31.1" cy="2.82" rx="2.87" ry="0.51" transform="translate(10.83 26.57) rotate(-54.71)"/><ellipse class="cls-18" cx="31.14" cy="2.76" rx="2.8" ry="0.5" transform="translate(10.9 26.58) rotate(-54.71)"/><ellipse class="cls-19" cx="31.18" cy="2.69" rx="2.72" ry="0.49" transform="translate(10.97 26.59) rotate(-54.71)"/><ellipse class="cls-20" cx="31.23" cy="2.63" rx="2.64" ry="0.48" transform="translate(11.04 26.6) rotate(-54.7)"/><ellipse class="cls-21" cx="31.27" cy="2.57" rx="2.57" ry="0.47" transform="translate(11.11 26.61) rotate(-54.7)"/><ellipse class="cls-22" cx="31.32" cy="2.5" rx="2.49" ry="0.46" transform="translate(11.18 26.62) rotate(-54.7)"/><path class="cls-32" d="M30.69,1.92a3.08,3.08,0,0,1-.4.63L28.94,4.23a2.93,2.93,0,0,1-.54.52C27.85,5.14,26.71,6,26,6.5a1,1,0,0,1-.39.15.29.29,0,0,0-.25.18.08.08,0,0,0,.06.11c.06,0,.1.07.15.11l.07,0,.08,0a.48.48,0,0,0,.43,0l2.33-1.34a4.68,4.68,0,0,0,1.15-.94l1.86-2.08L32.83.95A.35.35,0,0,0,32.6.39a.83.83,0,0,1-.48-.26.39.39,0,0,0-.64.09Z"/><path class="cls-33" d="M26.6,6.24a.38.38,0,0,1,.2-.31l1.12-.58a4,4,0,0,0,1.14-.89l.24-.27.83-1a6.24,6.24,0,0,0,.8-1.26L31.5.75a.53.53,0,0,1,.58-.28.25.25,0,0,1,.15.4l-.45.57-.85,1.37-1.2,1.47a6.61,6.61,0,0,1-2,1.55l-.95.51A.11.11,0,0,1,26.6,6.24Z"/><path class="cls-34" d="M23.37,12.49a.56.56,0,0,1-.32-.8c.27-.53.34-.71.69-1.53l0-.09c.17-.5.2-1.12.36-1.42s.32-.3.39-.5a3.1,3.1,0,0,0,.17-.66,4.08,4.08,0,0,0,0-.64A.17.17,0,0,1,25,6.69c.2.12.32-.19.41-.41a9.74,9.74,0,0,0,.32-.95c.05-.2.3-.14.49-.09s.15,0,.28-.11L26.57,5l.59-.68a.51.51,0,0,1,.84.16l.44.81a1.06,1.06,0,0,0,.29.34c.24.19.43.5.71.57h0c.21,0,.22.37,0,.46a5.91,5.91,0,0,1-1,.23,3.69,3.69,0,0,0-1.23.59A4.4,4.4,0,0,0,26.2,8.77a37.1,37.1,0,0,1-1.89,3.44A.78.78,0,0,1,23.37,12.49Z"/><path class="cls-35" d="M23.55,12a.46.46,0,0,1-.07-.47c.11-.27.28-.73.43-1.14A5.48,5.48,0,0,1,24.44,9l0-.07a4.46,4.46,0,0,0,.45-1.33.68.68,0,0,1,.13-.25c.19-.22.45-.37.58-.63l.07-.13a1.19,1.19,0,0,0,.16-.6c0-.31.42-.32.61-.55l0,0,.63-.58a.32.32,0,0,1,.48.06,2.86,2.86,0,0,0,.5.54l.08.06c.22.18.05.52-.21.57l-.22,0a1.56,1.56,0,0,0-.63.08l-.1,0a1.34,1.34,0,0,0-.62.58q-.43.77-.91,1.52T24.72,9.9q-.32.88-.69,1.73l-.17.32A.19.19,0,0,1,23.55,12Z"/><path class="cls-27" d="M23.29,16.55a1.11,1.11,0,0,1-.63-1.08L23,10.21a.41.41,0,0,1,.65-.3l.79.6a.86.86,0,0,0,.62.17.5.5,0,0,1,.55.59l-1.07,5.09a.59.59,0,0,1-.83.41Z"/><ellipse class="cls-1" cx="48.45" cy="41.88" rx="0.7" ry="4.11" transform="translate(-15.43 46.47) rotate(-44.95)"/><ellipse class="cls-2" cx="48.5" cy="41.94" rx="0.68" ry="4.04" transform="translate(-15.45 46.52) rotate(-44.95)"/><ellipse class="cls-3" cx="48.56" cy="41.99" rx="0.67" ry="3.96" transform="translate(-15.47 46.58) rotate(-44.95)"/><ellipse class="cls-4" cx="48.61" cy="42.05" rx="0.66" ry="3.88" transform="translate(-15.5 46.63) rotate(-44.95)"/><ellipse class="cls-5" cx="48.67" cy="42.1" rx="0.65" ry="3.8" transform="translate(-15.52 46.68) rotate(-44.95)"/><ellipse class="cls-6" cx="48.72" cy="42.16" rx="0.64" ry="3.73" transform="translate(-15.54 46.74) rotate(-44.95)"/><ellipse class="cls-7" cx="48.78" cy="42.21" rx="0.63" ry="3.65" transform="translate(-15.56 46.79) rotate(-44.95)"/><ellipse class="cls-8" cx="48.83" cy="42.27" rx="0.62" ry="3.57" transform="translate(-15.59 46.85) rotate(-44.95)"/><ellipse class="cls-9" cx="48.89" cy="42.32" rx="0.6" ry="3.49" transform="translate(-15.61 46.9) rotate(-44.95)"/><ellipse class="cls-10" cx="48.94" cy="42.37" rx="0.59" ry="3.42" transform="translate(-15.63 46.96) rotate(-44.95)"/><ellipse class="cls-11" cx="49" cy="42.43" rx="0.58" ry="3.34" transform="translate(-15.66 47.01) rotate(-44.95)"/><ellipse class="cls-12" cx="49.05" cy="42.48" rx="0.57" ry="3.26" transform="translate(-15.68 47.07) rotate(-44.95)"/><ellipse class="cls-13" cx="49.11" cy="42.54" rx="0.56" ry="3.18" transform="translate(-15.7 47.12) rotate(-44.95)"/><ellipse class="cls-14" cx="49.16" cy="42.59" rx="0.55" ry="3.11" transform="translate(-15.72 47.18) rotate(-44.95)"/><ellipse class="cls-15" cx="49.21" cy="42.65" rx="0.54" ry="3.03" transform="translate(-15.75 47.23) rotate(-44.95)"/><ellipse class="cls-16" cx="49.27" cy="42.7" rx="0.53" ry="2.95" transform="translate(-15.77 47.29) rotate(-44.95)"/><ellipse class="cls-17" cx="49.32" cy="42.76" rx="0.51" ry="2.87" transform="translate(-15.79 47.34) rotate(-44.95)"/><ellipse class="cls-18" cx="49.38" cy="42.81" rx="0.5" ry="2.8" transform="translate(-15.81 47.4) rotate(-44.95)"/><ellipse class="cls-19" cx="49.43" cy="42.87" rx="0.49" ry="2.72" transform="translate(-15.84 47.45) rotate(-44.95)"/><ellipse class="cls-20" cx="49.49" cy="42.92" rx="0.48" ry="2.64" transform="translate(-15.86 47.51) rotate(-44.95)"/><ellipse class="cls-21" cx="49.54" cy="42.98" rx="0.47" ry="2.57" transform="translate(-15.88 47.56) rotate(-44.95)"/><ellipse class="cls-22" cx="49.6" cy="43.03" rx="0.46" ry="2.49" transform="translate(-15.91 47.62) rotate(-44.95)"/><path class="cls-36" d="M42.55,39.62s0,0,.05,0c.25-.06.48-.14.71-.2l.15,0c.29-.08.36.4.59.58l.1.05.12,0,1.25.3a5.51,5.51,0,0,1,1.4.54l.75.41.68.43a6.86,6.86,0,0,1,1.17.93l1.79,1.78a.31.31,0,0,1-.16.53h-.05a.69.69,0,0,0-.4.23.4.4,0,0,1-.61,0l-1.52-2a4.18,4.18,0,0,0-.51-.55l-.43-.39a3.82,3.82,0,0,0-.6-.44l-.48-.29a2.63,2.63,0,0,0-.69-.29L43,40.49a.6.6,0,0,1-.47-.61,1.1,1.1,0,0,1,0-.22A.18.18,0,0,0,42.55,39.62Z"/><path class="cls-37" d="M50.41,44.92a.23.23,0,0,1-.32-.05l-.67-.92a7.83,7.83,0,0,0-.89-1l-.48-.46a6.45,6.45,0,0,0-1.19-.92c-.28-.17-.56-.33-.59-.33l-1.49-.45a2.4,2.4,0,0,0-.66-.11h-.5a.12.12,0,0,1-.11-.16.21.21,0,0,1,.22-.14l.66.09a7.85,7.85,0,0,1,1.62.39l.15.05a6.64,6.64,0,0,1,1.73.93l.62.46,1.2,1.16,1,1.1a.19.19,0,0,1-.08.31h0A.66.66,0,0,0,50.41,44.92Z"/><path class="cls-27" d="M32.38,36.44c-.15.3-.14.74.12.91l.36.23a6.59,6.59,0,0,1,1.63,1.2,2.55,2.55,0,0,1,.21.42.28.28,0,0,0,.47,0c.11-.16.38.16.64.32a5.82,5.82,0,0,0,.82.36,1.59,1.59,0,0,1,.61.26,5,5,0,0,1,.45.66c.11.15.29,0,.37-.21a.16.16,0,0,1,.08-.07.39.39,0,0,1,.3,0,6.1,6.1,0,0,0,.64.18c1.21.32,1.78.45,2,.52.46.15.68.55.93.93a.21.21,0,0,0,.38-.18.4.4,0,0,1,0-.24c.09-.23.39-.18.62-.09l1.06.45a.38.38,0,0,0,.52-.47c-.05-.24-.11-.49-.15-.71a1,1,0,0,1,.11-.73,1.39,1.39,0,0,1,.64-.59.29.29,0,0,0-.06-.52h0a.42.42,0,0,1-.28-.52.88.88,0,0,1,.13-.21c.11-.13-.09-.32-.24-.24a5.51,5.51,0,0,1-1,.42l-.08,0-.44.12a3.31,3.31,0,0,1-.71.12,11.14,11.14,0,0,1-2.38.07A10.61,10.61,0,0,1,37,38.07c-1.2-.52-2.94-1.43-3.94-1.91A.56.56,0,0,0,32.38,36.44Z"/><path class="cls-38" d="M33.1,37.38c.61.45,1.05.7,1.33.89s.31.23.37.41l0,.09c0,.08.15.17.17.09s.18,0,.28,0a3.05,3.05,0,0,0,.39.35,6.93,6.93,0,0,0,.68.36l.6.2c.1,0,.21,0,.31.08s.21,0,.26.11.06.46.32.33a.72.72,0,0,1,.2-.06.51.51,0,0,1,.2,0q1,.23,2.08.5a5.17,5.17,0,0,0,.84.15.81.81,0,0,1,.39.14c.29.2.39.36.59.2a.65.65,0,0,1,.48-.17c.35,0,.66.13.93.15s.06-.35,0-.76.53-1-.19-.83a4.19,4.19,0,0,1-1.44.27H41.7a13,13,0,0,1-1.39-.09,5.07,5.07,0,0,1-1.37-.24c-.59-.21-2.1-.66-2.29-.7a7.67,7.67,0,0,1-2.56-1.44l-.12-.1c-.5-.42-.89-.79-.89-.79S32.42,36.87,33.1,37.38Z"/><path class="cls-39" d="M30.8,33.32a.7.7,0,0,1,.47-.91l.52-.15a1,1,0,0,1,1.11.44L35,36.28a.44.44,0,0,1-.37.66h-.33a.91.91,0,0,0-.64.27l-.56.57a.47.47,0,0,1-.78-.17Z"/><ellipse class="cls-1" cx="5.81" cy="37.95" rx="2.76" ry="0.48" transform="translate(-22.05 11.54) rotate(-37.83)"/><ellipse class="cls-2" cx="5.76" cy="37.98" rx="2.71" ry="0.48" transform="translate(-22.08 11.52) rotate(-37.83)"/><ellipse class="cls-3" cx="5.72" cy="38.01" rx="2.66" ry="0.47" transform="translate(-22.11 11.5) rotate(-37.83)"/><ellipse class="cls-4" cx="5.68" cy="38.04" rx="2.6" ry="0.46" transform="translate(-22.14 11.48) rotate(-37.83)"/><ellipse class="cls-5" cx="5.64" cy="38.08" rx="2.55" ry="0.45" transform="translate(-22.17 11.46) rotate(-37.83)"/><ellipse class="cls-6" cx="5.6" cy="38.11" rx="2.5" ry="0.44" transform="translate(-22.19 11.44) rotate(-37.83)"/><ellipse class="cls-7" cx="5.56" cy="38.14" rx="2.45" ry="0.44" transform="translate(-22.22 11.42) rotate(-37.83)"/><ellipse class="cls-8" cx="5.52" cy="38.17" rx="2.4" ry="0.43" transform="translate(-22.25 11.41) rotate(-37.83)"/><ellipse class="cls-9" cx="5.48" cy="38.2" rx="2.34" ry="0.42" transform="translate(-22.28 11.39) rotate(-37.83)"/><ellipse class="cls-10" cx="5.44" cy="38.23" rx="2.29" ry="0.41" transform="translate(-22.31 11.37) rotate(-37.83)"/><ellipse class="cls-11" cx="5.4" cy="38.27" rx="2.24" ry="0.41" transform="translate(-22.33 11.35) rotate(-37.83)"/><ellipse class="cls-12" cx="5.35" cy="38.3" rx="2.19" ry="0.4" transform="matrix(0.79, -0.61, 0.61, 0.79, -22.36, 11.33)"/><ellipse class="cls-13" cx="5.31" cy="38.33" rx="2.14" ry="0.39" transform="translate(-22.39 11.31) rotate(-37.83)"/><ellipse class="cls-14" cx="5.27" cy="38.36" rx="2.08" ry="0.38" transform="translate(-22.42 11.29) rotate(-37.83)"/><ellipse class="cls-15" cx="5.23" cy="38.39" rx="2.03" ry="0.37" transform="translate(-22.45 11.28) rotate(-37.83)"/><ellipse class="cls-16" cx="5.19" cy="38.43" rx="1.98" ry="0.37" transform="translate(-22.47 11.26) rotate(-37.82)"/><ellipse class="cls-17" cx="5.15" cy="38.46" rx="1.93" ry="0.36" transform="translate(-22.5 11.24) rotate(-37.82)"/><ellipse class="cls-18" cx="5.11" cy="38.49" rx="1.88" ry="0.35" transform="translate(-22.53 11.22) rotate(-37.82)"/><ellipse class="cls-19" cx="5.07" cy="38.52" rx="1.82" ry="0.34" transform="translate(-22.56 11.2) rotate(-37.82)"/><ellipse class="cls-20" cx="5.03" cy="38.55" rx="1.77" ry="0.33" transform="translate(-22.59 11.18) rotate(-37.82)"/><ellipse class="cls-21" cx="4.99" cy="38.58" rx="1.72" ry="0.33" transform="translate(-22.61 11.16) rotate(-37.82)"/><ellipse class="cls-22" cx="4.94" cy="38.62" rx="1.67" ry="0.32" transform="translate(-22.64 11.15) rotate(-37.82)"/><path class="cls-36" d="M4.06,40.24a.67.67,0,0,0-.3-.36.35.35,0,0,1-.06-.57l.65-.57a6.42,6.42,0,0,1,1.23-.85l.57-.3a3.7,3.7,0,0,1,1.41-.42l2.6-.22a.36.36,0,0,1,.39.34.41.41,0,0,1-.35.42l-2.55.38a2.33,2.33,0,0,0-.71.23l-1,.5a1.52,1.52,0,0,0-.55.48l-.76,1.07a.32.32,0,0,1-.56-.08Z"/><path class="cls-40" d="M4.41,39.79a.14.14,0,0,1-.25,0l0,0A.28.28,0,0,0,4,39.6a.14.14,0,0,1,0-.22L4.41,39a5.13,5.13,0,0,1,1.19-.86l.56-.29a7.06,7.06,0,0,1,2.66-.6l1.47-.13a.13.13,0,0,1,.14.17.28.28,0,0,1-.24.2l-2.59.29L6.82,38a4.6,4.6,0,0,0-1,.42l0,0a3.24,3.24,0,0,0-.8.63l-.2.21a2,2,0,0,0-.27.37Z"/><path class="cls-27" d="M8.62,38.1a1.52,1.52,0,0,0,0-.74,1.35,1.35,0,0,1,.06-1,.23.23,0,0,1,.23-.16,10.37,10.37,0,0,0,1.54.26c.43,0,1.06,0,1.57,0a7.17,7.17,0,0,0,1.55-.28c.56-.18.82-.29,1.1-.37a1.82,1.82,0,0,0,.67-.33A12.15,12.15,0,0,1,17.59,34c.31-.17.27.21.56.57l.16.19c.3.37.3.75,0,.9a10.13,10.13,0,0,0-1.62,1.09l-.06,0a1.29,1.29,0,0,0-.28.77c0,.2-.33.21-.48,0s-.1-.23-.25-.24h-.06l-.06,0c-.14.08-.72.32-1.27.52a15.63,15.63,0,0,1-1.92.49,4.28,4.28,0,0,0-.56.57c-.2.21-.31.07-.38-.18a.27.27,0,0,0-.27-.21H11a.15.15,0,0,0-.08,0,7.29,7.29,0,0,1-.77.68c-.23.16-.3.12-.37-.06v0c-.11-.19-.38-.06-.59.06l-.06,0c-.45.24-.73.93-.94.62s.17-1,.32-1.46l0-.1Z"/><path class="cls-41" d="M9.35,38.27c-.2.1-.5.23-.3-.3a1,1,0,0,0,.07-.55c-.15-.6.21-.61.48-.61h.64a7.16,7.16,0,0,0,1.19-.05l.59-.06a7.64,7.64,0,0,0,1.45-.25l.14,0c.42-.11.85-.24,1.26-.39a2.84,2.84,0,0,0,1.05-.65c.31-.32.47-.47.78-.75l.46-.33a.47.47,0,0,1,.26-.07c1,0-1.12,1.57-2,2.12a2.09,2.09,0,0,0-.44.35c-.23.25-.64.25-1,.35L14,37a2.21,2.21,0,0,0-.87.45l-.14.11c-.3.2-.76-.11-1,.16s-.68-.19-1-.05-.48.47-.67.49-.43-.15-.65-.05Z"/><path class="cls-39" d="M19.49,32.37a1,1,0,0,1,.16,1.21l-1.4,2.6a.56.56,0,0,1-.89.13L17,35.92a1.67,1.67,0,0,0-.62-.4l-.94-.34a.45.45,0,0,1-.15-.76l2.78-2.49a.77.77,0,0,1,1.08,0Z"/><ellipse class="cls-1" cx="30.82" cy="43.2" rx="0.7" ry="4.11" transform="translate(-19.66 26.85) rotate(-36.55)"/><ellipse class="cls-2" cx="30.87" cy="43.26" rx="0.68" ry="4.04" transform="translate(-19.69 26.89) rotate(-36.55)"/><ellipse class="cls-3" cx="30.91" cy="43.32" rx="0.67" ry="3.96" transform="translate(-19.72 26.93) rotate(-36.55)"/><ellipse class="cls-4" cx="30.96" cy="43.38" rx="0.66" ry="3.88" transform="translate(-19.75 26.97) rotate(-36.55)"/><ellipse class="cls-5" cx="31.01" cy="43.45" rx="0.65" ry="3.8" transform="translate(-19.77 27.01) rotate(-36.55)"/><ellipse class="cls-6" cx="31.05" cy="43.51" rx="0.64" ry="3.73" transform="translate(-19.8 27.05) rotate(-36.55)"/><ellipse class="cls-7" cx="31.1" cy="43.57" rx="0.63" ry="3.65" transform="translate(-19.83 27.09) rotate(-36.55)"/><ellipse class="cls-8" cx="31.14" cy="43.63" rx="0.62" ry="3.57" transform="translate(-19.86 27.13) rotate(-36.55)"/><ellipse class="cls-9" cx="31.19" cy="43.69" rx="0.6" ry="3.49" transform="translate(-19.89 27.17) rotate(-36.55)"/><ellipse class="cls-10" cx="31.24" cy="43.76" rx="0.59" ry="3.42" transform="translate(-19.91 27.21) rotate(-36.55)"/><ellipse class="cls-11" cx="31.28" cy="43.82" rx="0.58" ry="3.34" transform="translate(-19.94 27.25) rotate(-36.55)"/><ellipse class="cls-12" cx="31.33" cy="43.88" rx="0.57" ry="3.26" transform="translate(-19.97 27.29) rotate(-36.55)"/><ellipse class="cls-13" cx="31.37" cy="43.94" rx="0.56" ry="3.18" transform="translate(-20 27.33) rotate(-36.55)"/><ellipse class="cls-14" cx="31.42" cy="44.01" rx="0.55" ry="3.11" transform="translate(-20.03 27.37) rotate(-36.55)"/><ellipse class="cls-15" cx="31.47" cy="44.07" rx="0.54" ry="3.03" transform="translate(-20.05 27.41) rotate(-36.55)"/><ellipse class="cls-16" cx="31.51" cy="44.13" rx="0.53" ry="2.95" transform="translate(-20.08 27.44) rotate(-36.55)"/><ellipse class="cls-17" cx="31.56" cy="44.19" rx="0.51" ry="2.87" transform="translate(-20.11 27.48) rotate(-36.55)"/><ellipse class="cls-18" cx="31.61" cy="44.25" rx="0.5" ry="2.8" transform="translate(-20.14 27.52) rotate(-36.55)"/><ellipse class="cls-19" cx="31.65" cy="44.32" rx="0.49" ry="2.72" transform="translate(-20.17 27.56) rotate(-36.55)"/><ellipse class="cls-20" cx="31.7" cy="44.38" rx="0.48" ry="2.64" transform="translate(-20.19 27.6) rotate(-36.55)"/><ellipse class="cls-21" cx="31.74" cy="44.44" rx="0.47" ry="2.57" transform="translate(-20.22 27.64) rotate(-36.55)"/><ellipse class="cls-22" cx="31.79" cy="44.5" rx="0.46" ry="2.49" transform="translate(-20.25 27.68) rotate(-36.55)"/><path class="cls-36" d="M31.06,45a2.74,2.74,0,0,0-.4-.63l-1.29-1.55a2.82,2.82,0,0,0-.55-.51c-.55-.39-1.71-1.2-2.47-1.7A1,1,0,0,0,26,40.5a.29.29,0,0,1-.25-.18.08.08,0,0,1,.06-.11c.06,0,.1-.07.15-.11l.07,0,.08,0a.48.48,0,0,1,.43,0l2.36,1.29a5,5,0,0,1,1.18.9l1.4,1.44a7.63,7.63,0,0,1,.93,1.17l.87,1.35a.28.28,0,0,1-.23.43.67.67,0,0,0-.44.17l-.05,0a.46.46,0,0,1-.73-.15Z"/><path class="cls-42" d="M27.55,41a.63.63,0,0,0,.27.44l.89.59a4.73,4.73,0,0,1,1,.89l.63.75.51.66a5.51,5.51,0,0,1,.65,1.09l.4.9a.34.34,0,0,0,.41.19h0l.22,0a.13.13,0,0,0,.1-.21L31.6,44.62l-1.19-1.38-.28-.33a9.16,9.16,0,0,0-1.68-1.54l-.71-.5A.13.13,0,0,0,27.55,41Z"/><path class="cls-27" d="M23.61,34.34a.57.57,0,0,0-.35.79A15.13,15.13,0,0,1,24,36.7l0,.09a4.13,4.13,0,0,1-.16,1.67c0,.19.23.26.37.12s.34,0,.41.21c.33.89.77,1.72.85,2s.2.57.27.88.3.18.49.13.15,0,.28.12l.07.08.57.7a.5.5,0,0,0,.84-.13l.46-.8a1,1,0,0,1,.29-.33c.18-.13.34-.29.52-.43a.28.28,0,0,0-.05-.5c-.21-.09-.44-.2-.66-.31a4.31,4.31,0,0,1-1-.55,7.36,7.36,0,0,1-1.65-2,26.28,26.28,0,0,0-1.6-2.83C24.17,34.44,24,34.21,23.61,34.34Z"/><path class="cls-43" d="M23.56,34.49a.64.64,0,0,0-.1.76c.19.35.45.87.66,1.29a1.53,1.53,0,0,1,.16.72,2.52,2.52,0,0,0,0,.5c0,.16.21.23.37.28a.31.31,0,0,1,.17.21c.12.33.25.69.34,1a3.29,3.29,0,0,0,.4.79,1.24,1.24,0,0,1,.19.42c.08.36.09.66.29.84s.52.29.74.49l0,0c.59.73.68,0,.88-.33s.14-.69-.14-.76l-.07,0a1.12,1.12,0,0,1-.68-.52q-.43-.73-.9-1.43-.24-.44-.49-.87a7.54,7.54,0,0,1-.62-1.35q-.34-1-.72-1.91A.32.32,0,0,0,23.56,34.49Z"/><path class="cls-39" d="M23.45,30.57a1.11,1.11,0,0,0-.6,1.09l.48,5.25a.41.41,0,0,0,.66.28l.78-.61a.86.86,0,0,1,.62-.18.5.5,0,0,0,.54-.61l-1.18-5.06a.59.59,0,0,0-.84-.39Z"/><path class="cls-44" d="M6.18,27.32a9,9,0,0,0-1.75,2.43,10.64,10.64,0,0,1-.8,1.2,6.72,6.72,0,0,1-.93,1.13c-.41.31-1.38.76-1.84.34a2.07,2.07,0,0,1-.61-1.75c.2-1.2,1.4.68,1.34,1.3s-.53.22-.63-.1a5,5,0,0,1-.18-1.43c0-.51.37-.21.38.14,0,.17,0,1,.14.87l-.08.28c0-.23-.34-.52-.47-.67s-.09-.1-.11,0a.69.69,0,0,0,.68.76c.89,0,1.32-.66,1.83-1.26,1-1.17,1.56-2.8,2.82-3.73C6.19,26.66,6.38,27.17,6.18,27.32Z"/><path class="cls-45" d="M6.18,20.76a3.8,3.8,0,0,1-1.67-1.3,8.26,8.26,0,0,1-.57-.94,5.56,5.56,0,0,0-1.19-1.37,4.89,4.89,0,0,0-1.3-.71c-.67-.3-1,.26-1.05.8a.65.65,0,0,0,.28-.34A3.46,3.46,0,0,0,1,16.27c.07-.24.13-.36.37-.42.08,0,.16.1.19.16.31.69-.32,1.46-.55,2.08-.14.4-.42-.27-.34-.49s.15-.36.23-.53l.19-.43q.07-.17.13-.35t.08.14l.19.16c-.15,0-.53.91-.58,1a.76.76,0,0,1-.49.49.12.12,0,0,1-.1,0,1.43,1.43,0,0,1-.27-1.41c.17-.78.49-1.16,1.36-1A4.81,4.81,0,0,1,3.8,17.48c.76,1,1.08,2.19,2.35,2.65C6.39,20.22,6.43,20.85,6.18,20.76Z"/><path class="cls-36" d="M8.86,28.52a7.43,7.43,0,0,1-3.32-1.18,3.65,3.65,0,0,1-1.47-2.47c.32-.07.56-.54.55-1.11s-.26-1-.57-1.09a3.65,3.65,0,0,1,1.42-2.5,7.43,7.43,0,0,1,3.3-1.25,1.63,1.63,0,0,1,1.87,1.72v.15c0,.8-.08,1.76-.06,2.91s.06,2.11.13,2.91v.15A1.63,1.63,0,0,1,8.86,28.52Z"/><path class="cls-46" d="M4.85,23.81v0h0Z"/><path class="cls-47" d="M6.08,19.45A5.24,5.24,0,0,1,8.83,18a1.45,1.45,0,0,1,1.59,1.65c0,.19.45,2.71.47,4.09s-.39,3.9-.38,4.09A1.45,1.45,0,0,1,9,29.48,5.24,5.24,0,0,1,6.17,28a6,6,0,0,1-1.32-4.24v0A6.08,6.08,0,0,1,6.08,19.45Z"/><path class="cls-48" d="M5.13,23.76A4.77,4.77,0,0,1,6.3,20.1a5.19,5.19,0,0,1,2.62-1.26l.27,0c.39,0,.59.42.57.8-.05,1.06-.09,2.41-.07,4.09q0,.23,0,.44a.84.84,0,0,1-.85.89,13.73,13.73,0,0,1-2.49-.3C5.36,24.49,5.14,24.13,5.13,23.76Z"/><path class="cls-49" d="M9,29.48A5.24,5.24,0,0,1,6.17,28a6.08,6.08,0,0,1-1.32-4.29,4,4,0,0,0,1.31,3.3,5.88,5.88,0,0,0,2.78,1.09l.19,0c.36,0,.76.22.65.56a1.6,1.6,0,0,1-.49.77A1.23,1.23,0,0,1,9,29.48Z"/><path class="cls-50" d="M5.7,27.39c.9.48,1.84-.32,2.85-.93.69-.42,1.21.09,1.27.89,0,.28,0,.33,0,.6,0,0,0,.09,0,.13a1.75,1.75,0,0,1-.57,1.35,1.19,1.19,0,0,1-.35,0A5.25,5.25,0,0,1,6.17,28,3.91,3.91,0,0,1,5.7,27.39Z"/><path class="cls-51" d="M5.63,20.12a4,4,0,0,1,.45-.61A5.25,5.25,0,0,1,8.83,18a1.24,1.24,0,0,1,.35,0,1.75,1.75,0,0,1,.6,1.34s0,.09,0,.13c0,.26,0,.32,0,.6,0,.8-.55,1.32-1.25.92C7.47,20.39,6.51,19.62,5.63,20.12Z"/><path class="cls-52" d="M5.7,27.39a1.33,1.33,0,0,0,1.06.07,6.48,6.48,0,0,0,2.18.69l.19,0c.31,0,.66.17.67.43a1.62,1.62,0,0,1-.51.83,1.19,1.19,0,0,1-.35,0A5.25,5.25,0,0,1,6.17,28,3.91,3.91,0,0,1,5.7,27.39Z"/><path class="cls-53" d="M6.45,20a5.31,5.31,0,0,1,2.47-1.13l.27,0c.36,0,.56.37.57.74,0,0,0,0,0,.06q0,.28,0,.58c-.09.73-.58,1.16-1.23.78A6.89,6.89,0,0,0,6.45,20Z"/><path class="cls-54" d="M27,34c5.17-.06,19.21-.48,19.09-10.74S31.9,12.94,26.73,13s-9.3,5.53-9.24,10.63S21.79,34.1,27,34Z"/><path class="cls-55" d="M17.49,23.62a11.21,11.21,0,0,1,1.91-6.19c.89-.36,1-.82,2.39-1.65s1-.89,1-1.58v-.05a7.88,7.88,0,0,1,4-1.15c5.08-.06,18.72.06,19.31,9.78l-19,.6a.7.7,0,0,1-.6-.41,2,2,0,0,0-.6-.68l-1-.84c-.6-.54-1.18-1-1.61-1.43l-.24-.27a4.53,4.53,0,0,0,.34.43c.41.46,1,.93,1.56,1.5l.93.87a1.46,1.46,0,0,1,.65,1.09h0a1.47,1.47,0,0,1-.63,1.11l-.91.89c-.57.57-1.12,1.06-1.52,1.53a3.62,3.62,0,0,0-.87,1.76l0,3.29A10.38,10.38,0,0,1,17.49,23.62Z"/><path d="M10.67,29.43a27.46,27.46,0,0,1-.62-5.73A27.46,27.46,0,0,1,10.54,18v0c0,.21.06,2.69.11,5.72s0,5.51,0,5.72Z"/><path class="cls-46" d="M20.78,35.54h0Z"/><path class="cls-56" d="M12.23,32.26a4.21,4.21,0,0,1-1.56-2.83,54.08,54.08,0,0,1-.32-5.73A54.05,54.05,0,0,1,10.54,18a4.22,4.22,0,0,1,1.51-2.87,15,15,0,0,1,8.28-3.46,1.44,1.44,0,0,1,1.46,1.71l-.31,2.09a8.55,8.55,0,0,0,.41,4.15l.85,2.36a5,5,0,0,1,0,3.25L22,27.56a8.55,8.55,0,0,0-.32,4.16L22,33.81a1.46,1.46,0,0,1-1.24,1.73h-.2A15,15,0,0,1,12.23,32.26Z"/><path class="cls-57" d="M20.13,35.52a15.22,15.22,0,0,1-7.89-3.26c-.88-.69-.91-2.94,0-2.45a18.6,18.6,0,0,0,8.34,2.32h.21a.53.53,0,0,1,.51.44l.21,1.24a1.49,1.49,0,0,1-.94,1.67A1,1,0,0,1,20.13,35.52Z"/><path class="cls-58" d="M11.47,24.06a16.25,16.25,0,0,1-.29-3.13,16.26,16.26,0,0,1,.22-3.13c.11-.61,1.06-1.28,1.53-1.57A13.47,13.47,0,0,1,19,14a1.76,1.76,0,0,1,1.85,2,8.56,8.56,0,0,0,.48,3.59l.85,2.36a4.94,4.94,0,0,1,0,3.25l-.17.52a1.77,1.77,0,0,1-1.7,1.21A19,19,0,0,1,13,25.6,2.38,2.38,0,0,1,11.47,24.06Z"/><path class="cls-59" d="M15.48,34.25c.07-.89.65-.17.64-1a5.61,5.61,0,0,0-.65-2c.55.18,1.14.35,1.77.49.07.23.12.47.18.69a4.32,4.32,0,0,0,.31,1.05.7.7,0,0,0,.4.41c.26.11.36.17.43.37a2.83,2.83,0,0,1,.16,1.08A14.24,14.24,0,0,1,15.48,34.25Z"/><path class="cls-60" d="M23.42,25.4a6.2,6.2,0,0,0,0-3.69l-.82-2.52a7,7,0,0,1-.22-.86,3.62,3.62,0,0,0,.91,1.74c.41.46,1,.93,1.56,1.5l.93.87a1.46,1.46,0,0,1,.65,1.09h0a1.46,1.46,0,0,1-.63,1.11l-.91.89c-.57.57-1.12,1.06-1.52,1.53a3.62,3.62,0,0,0-.87,1.76,7,7,0,0,1,.2-.87Z"/><path class="cls-61" d="M24.06,25.54a2,2,0,0,1,0-.65,6.2,6.2,0,0,0-.17-3.18l-.21-.64a.11.11,0,0,1,.18-.12l2,1.85a1,1,0,0,1,0,1.46l-1.45,1.4A.24.24,0,0,1,24.06,25.54Z"/><path class="cls-46" d="M29.95,36.63h0Z"/><path class="cls-62" d="M24.63,36a2.49,2.49,0,0,1-2-2l-.34-2.67a7,7,0,0,1,0-2,3.55,3.55,0,0,1,1.1-2.08c.43-.43,1-.87,1.63-1.4l1-.82a1.94,1.94,0,0,0,.61-.67.69.69,0,0,1,.6-.39l19.05,1a.41.41,0,0,1,.4.44c-.57,5.87-6.15,11.9-16.77,11.38h-.1A43.35,43.35,0,0,1,24.63,36Z"/><path class="cls-63" d="M25.71,27.32a1.6,1.6,0,0,1-1-.5.44.44,0,0,1,.07-.63l1.65-1.4a1.41,1.41,0,0,0,.32-.39.66.66,0,0,1,.58-.39l14.11.71a.21.21,0,0,1,.16.35C40,26.93,36.08,28,29.25,27.64,28,27.58,26.77,27.45,25.71,27.32Z"/><path class="cls-64" d="M25.16,36.06a2.56,2.56,0,0,1-2-2.1L23,32.68a.34.34,0,0,1,.38-.38l1.4.17c1.38.2,3.4.45,5.28.55,8.45.42,13.67-2.16,15.7-5.35.12-.2.44-.09.36.13-1.73,4.94-7.13,9.28-16.21,8.83h-.11a41.72,41.72,0,0,1-4.67-.56Z"/><path class="cls-65" d="M32,35.68c0-.31.26-.35.46-.39a.78.78,0,0,0,.68-.67,6.45,6.45,0,0,0,.12-1.6q1.13,0,2.16-.17h0c-.26.46-.55,1.05-.82,1.65a.76.76,0,0,0,.14.92c.1.1.1.16.15.37s.15.53.16.54a21.59,21.59,0,0,1-3.05.31A6.09,6.09,0,0,1,32,35.68Z"/><path class="cls-66" d="M25.89,32.61c-.13.23-.66,1.15-.84,1.55s.25,1,.34,1.09.46.93.46.93l-.69-.11h0a2.55,2.55,0,0,1-2-2,.65.65,0,0,0,.69-.53,3.25,3.25,0,0,0,0-1.22l.87.11Z"/><path class="cls-46" d="M29.57,10.35h0Z"/><path class="cls-67" d="M46.67,21.35a.41.41,0,0,1-.39.45l-19,1.37a.7.7,0,0,1-.61-.38,1.94,1.94,0,0,0-.62-.66l-1-.8c-.62-.52-1.22-.95-1.66-1.36a3.55,3.55,0,0,1-1.15-2.06,7,7,0,0,1-.09-2l.28-2.68a2.49,2.49,0,0,1,1.94-2.07,43.32,43.32,0,0,1,5.21-.77h.08C40.26,9.59,46,15.5,46.67,21.35Z"/><path class="cls-68" d="M27.34,23a.66.66,0,0,1-.59-.37,1.42,1.42,0,0,0-.33-.39l-2.56-2.09L23.64,20a1.85,1.85,0,0,1-.46-.7l-.05-.13a7,7,0,0,1-.46-3.23A2.79,2.79,0,0,1,25,13.4c1.09-.16,2.42-.31,3.69-.4,9.39-.68,13.42,4,13.66,7.25a3.9,3.9,0,0,1-.12,1.29.62.62,0,0,1-.56.44Z"/></svg>