<svg xmlns="http://www.w3.org/2000/svg" xmlns:xlink="http://www.w3.org/1999/xlink" viewBox="0 0 115.09 51.59"><defs><style>.cls-1{isolation:isolate;}.cls-2{fill:url(#linear-gradient);}.cls-3{fill:url(#linear-gradient-2);}.cls-4{fill:url(#linear-gradient-3);}.cls-5{fill:url(#linear-gradient-4);}.cls-6{fill:#151516;}.cls-7{fill:#1a1a1c;}.cls-8{fill:url(#linear-gradient-5);}.cls-9{fill:url(#linear-gradient-6);}.cls-10{fill:url(#linear-gradient-7);}.cls-11{fill:url(#linear-gradient-8);}.cls-12{fill:#141414;}.cls-13{fill:url(#linear-gradient-9);}.cls-14{fill:url(#linear-gradient-10);}.cls-15{fill:url(#linear-gradient-11);}.cls-16{fill:#111;}.cls-17{fill:url(#linear-gradient-12);}.cls-18{fill:url(#linear-gradient-13);}.cls-19{fill:url(#linear-gradient-14);}.cls-20{fill:url(#linear-gradient-15);}.cls-21{fill:url(#linear-gradient-16);}.cls-22{fill:url(#linear-gradient-17);}.cls-23{fill:url(#linear-gradient-18);}.cls-24{fill:url(#linear-gradient-19);}.cls-25{fill:url(#linear-gradient-20);}.cls-26{fill:url(#linear-gradient-21);}.cls-27{fill:url(#linear-gradient-22);}.cls-28{fill:url(#linear-gradient-23);}.cls-29{fill:url(#linear-gradient-24);}.cls-30{fill:url(#linear-gradient-25);}.cls-31{fill:url(#linear-gradient-26);}.cls-32{fill:url(#linear-gradient-27);}.cls-33{fill:url(#linear-gradient-28);}.cls-34{fill:url(#linear-gradient-29);}.cls-35{fill:url(#linear-gradient-30);}.cls-36{fill:url(#linear-gradient-31);}.cls-37{fill:url(#linear-gradient-32);}.cls-38{fill:url(#linear-gradient-33);}.cls-39{fill:url(#linear-gradient-34);}.cls-40{fill:url(#linear-gradient-35);}.cls-41{fill:#1a1a1a;}.cls-42{fill:url(#linear-gradient-36);}.cls-43{fill:url(#linear-gradient-37);}.cls-44{fill:url(#linear-gradient-38);}.cls-45{fill:url(#linear-gradient-39);}.cls-46{fill:url(#linear-gradient-40);}.cls-47{fill:url(#linear-gradient-41);}.cls-48{fill:url(#linear-gradient-42);}.cls-49{fill:#999;}.cls-49,.cls-50,.cls-55,.cls-60{mix-blend-mode:multiply;}.cls-50,.cls-58{fill:#b3b3b3;}.cls-51{fill:url(#linear-gradient-43);}.cls-52,.cls-59,.cls-63,.cls-65,.cls-67{mix-blend-mode:screen;}.cls-52{fill:url(#linear-gradient-44);}.cls-53{fill:url(#linear-gradient-45);}.cls-54{fill:url(#linear-gradient-46);}.cls-56{fill:url(#linear-gradient-47);}.cls-57{fill:url(#linear-gradient-48);}.cls-59{fill:url(#linear-gradient-49);}.cls-60{fill:url(#linear-gradient-50);}.cls-61{fill:url(#linear-gradient-51);}.cls-62{fill:url(#linear-gradient-52);}.cls-63{fill:url(#linear-gradient-53);}.cls-64{fill:url(#linear-gradient-54);}.cls-65{fill:url(#linear-gradient-55);}.cls-66{fill:url(#linear-gradient-56);}.cls-67{fill:url(#linear-gradient-57);}.cls-68{fill:url(#linear-gradient-58);}.cls-69{fill:url(#linear-gradient-59);}.cls-70{fill:#333;}.cls-71{fill:url(#linear-gradient-60);}.cls-72{fill:url(#linear-gradient-61);}.cls-73{fill:url(#linear-gradient-62);}.cls-74{fill:url(#linear-gradient-63);}.cls-75{fill:url(#linear-gradient-64);}.cls-76{fill:url(#linear-gradient-65);}.cls-77{fill:url(#linear-gradient-66);}.cls-78{fill:url(#linear-gradient-67);}.cls-79{fill:url(#linear-gradient-68);}.cls-80{fill:url(#linear-gradient-69);}.cls-81{fill:url(#linear-gradient-70);}.cls-82{fill:url(#linear-gradient-71);}.cls-83{fill:url(#linear-gradient-72);}.cls-84{fill:url(#linear-gradient-73);}.cls-85{fill:url(#linear-gradient-74);}.cls-86{fill:url(#linear-gradient-75);}.cls-87{fill:url(#linear-gradient-76);}.cls-88{fill:url(#linear-gradient-77);}.cls-89{fill:url(#linear-gradient-78);}.cls-90{fill:url(#linear-gradient-79);}.cls-91{fill:url(#linear-gradient-80);}.cls-92{fill:url(#linear-gradient-81);}.cls-93{fill:url(#linear-gradient-82);}.cls-94{fill:url(#linear-gradient-83);}.cls-95{fill:url(#linear-gradient-84);}.cls-96{fill:url(#linear-gradient-85);}.cls-97{fill:url(#linear-gradient-86);}.cls-98{fill:url(#linear-gradient-87);}.cls-99{fill:url(#linear-gradient-88);}.cls-100{fill:url(#linear-gradient-89);}.cls-101{fill:url(#linear-gradient-90);}.cls-102{fill:url(#linear-gradient-91);}.cls-103{fill:url(#linear-gradient-92);}.cls-104{fill:url(#linear-gradient-93);}.cls-105{fill:url(#linear-gradient-94);}.cls-106{fill:url(#linear-gradient-95);}.cls-107{fill:url(#linear-gradient-96);}.cls-108{fill:url(#linear-gradient-97);}.cls-109{fill:url(#linear-gradient-98);}.cls-110{fill:url(#linear-gradient-99);}.cls-111{fill:#73604a;}</style><linearGradient id="linear-gradient" x1="-1606.73" y1="176.1" x2="-1603.19" y2="176.1" gradientTransform="translate(1515.6 -652.59) rotate(-18.48)" gradientUnits="userSpaceOnUse"><stop offset="0.34" stop-color="#131314"/><stop offset="1" stop-color="#1e1e1f"/></linearGradient><linearGradient id="linear-gradient-2" x1="-1603.72" y1="174.71" x2="-1605.11" y2="177.06" gradientTransform="translate(1515.6 -652.59) rotate(-18.48)" gradientUnits="userSpaceOnUse"><stop offset="0" stop-color="#131314"/><stop offset="1" stop-color="#262628"/></linearGradient><linearGradient id="linear-gradient-3" x1="-1612.22" y1="177.75" x2="-1600.33" y2="179.06" gradientTransform="translate(1515.6 -652.59) rotate(-18.48)" gradientUnits="userSpaceOnUse"><stop offset="0.34" stop-color="#131314"/><stop offset="1" stop-color="#262628"/></linearGradient><linearGradient id="linear-gradient-4" x1="-1607.94" y1="177.71" x2="-1607.94" y2="180.67" gradientTransform="translate(1515.6 -652.59) rotate(-18.48)" gradientUnits="userSpaceOnUse"><stop offset="0" stop-color="#252526"/><stop offset="0.41" stop-color="#19191a"/><stop offset="0.82" stop-color="#151516"/></linearGradient><linearGradient id="linear-gradient-5" x1="2058.82" y1="218.29" x2="2058.82" y2="218.87" gradientTransform="matrix(-0.96, 0.3, 0.3, 0.96, 1933.31, -784.07)" gradientUnits="userSpaceOnUse"><stop offset="0" stop-color="#575757"/><stop offset="1" stop-color="#292929"/></linearGradient><linearGradient id="linear-gradient-6" x1="2059.8" y1="218.12" x2="2062.69" y2="218.12" xlink:href="#linear-gradient-5"/><linearGradient id="linear-gradient-7" x1="2062.41" y1="217.81" x2="2066.52" y2="217.32" xlink:href="#linear-gradient-5"/><linearGradient id="linear-gradient-8" x1="2065.44" y1="217.44" x2="2070.69" y2="217.44" xlink:href="#linear-gradient-5"/><linearGradient id="linear-gradient-9" x1="2050.06" y1="-578.4" x2="2055.84" y2="-578.4" gradientTransform="matrix(-0.72, 0.69, 0.69, 0.72, 1893.96, -969.45)" xlink:href="#linear-gradient-5"/><linearGradient id="linear-gradient-10" x1="1822.52" y1="821.86" x2="1829.89" y2="823.82" gradientTransform="matrix(-1, -0.08, -0.08, 1, 1903.25, -641.88)" xlink:href="#linear-gradient-5"/><linearGradient id="linear-gradient-11" x1="2033.36" y1="261.77" x2="2049.14" y2="273.69" gradientTransform="matrix(-0.96, 0.27, 0.27, 0.96, 1932.78, -772.46)" xlink:href="#linear-gradient-5"/><linearGradient id="linear-gradient-12" x1="1137.38" y1="-474.39" x2="1145.41" y2="-476.93" gradientTransform="matrix(0.96, 0.27, -0.27, 0.96, -1153.46, 173.63)" xlink:href="#linear-gradient-3"/><linearGradient id="linear-gradient-13" x1="1160.21" y1="-437.41" x2="1171.63" y2="-428.79" gradientTransform="matrix(0.98, 0.22, -0.22, 0.98, -1151.71, 193.36)" xlink:href="#linear-gradient-5"/><linearGradient id="linear-gradient-14" x1="1170.14" y1="-431.41" x2="1170.14" y2="-430.71" gradientTransform="matrix(0.98, 0.22, -0.22, 0.98, -1151.71, 193.36)" xlink:href="#linear-gradient-5"/><linearGradient id="linear-gradient-15" x1="1171.04" y1="-431.62" x2="1173.7" y2="-431.62" gradientTransform="matrix(0.98, 0.22, -0.22, 0.98, -1151.71, 193.36)" xlink:href="#linear-gradient-5"/><linearGradient id="linear-gradient-16" x1="1173.42" y1="-432.06" x2="1177.23" y2="-432.52" gradientTransform="matrix(0.98, 0.22, -0.22, 0.98, -1151.71, 193.36)" xlink:href="#linear-gradient-5"/><linearGradient id="linear-gradient-17" x1="1176.22" y1="-432.48" x2="1180.9" y2="-432.48" gradientTransform="matrix(0.98, 0.22, -0.22, 0.98, -1151.71, 193.36)" xlink:href="#linear-gradient-5"/><linearGradient id="linear-gradient-18" x1="1178.99" y1="-432.58" x2="1185.78" y2="-430.77" gradientTransform="matrix(0.98, 0.22, -0.22, 0.98, -1151.71, 193.36)" xlink:href="#linear-gradient-5"/><linearGradient id="linear-gradient-19" x1="1178.4" y1="-430.39" x2="1185.19" y2="-428.58" gradientTransform="matrix(0.98, 0.22, -0.22, 0.98, -1151.71, 193.36)" gradientUnits="userSpaceOnUse"><stop offset="0" stop-color="#454545"/><stop offset="1" stop-color="#292929"/></linearGradient><linearGradient id="linear-gradient-20" x1="1184.69" y1="-430.16" x2="1189.11" y2="-430.16" gradientTransform="matrix(0.98, 0.22, -0.22, 0.98, -1151.71, 193.36)" xlink:href="#linear-gradient-5"/><linearGradient id="linear-gradient-21" x1="1137.32" y1="-474.61" x2="1145.34" y2="-477.14" gradientTransform="matrix(0.96, 0.27, -0.27, 0.96, -1153.46, 173.63)" gradientUnits="userSpaceOnUse"><stop offset="0" stop-color="#1a1a1a"/><stop offset="1" stop-color="#333"/></linearGradient><linearGradient id="linear-gradient-22" x1="1151.57" y1="-457.58" x2="1149.69" y2="-454.3" gradientTransform="matrix(0.97, 0.25, -0.25, 0.97, -1151.89, 182.18)" xlink:href="#linear-gradient-5"/><linearGradient id="linear-gradient-23" x1="1129.62" y1="-468.02" x2="1126.51" y2="-471.9" gradientTransform="matrix(0.96, 0.27, -0.27, 0.96, -1153.46, 173.63)" xlink:href="#linear-gradient-3"/><linearGradient id="linear-gradient-24" x1="1134.5" y1="-472.25" x2="1132.77" y2="-469.24" gradientTransform="matrix(0.96, 0.27, -0.27, 0.96, -1153.46, 173.63)" gradientUnits="userSpaceOnUse"><stop offset="0" stop-color="#2b2b2c"/><stop offset="1" stop-color="#1a1a1c"/></linearGradient><linearGradient id="linear-gradient-25" x1="1138.53" y1="-470.18" x2="1138.53" y2="-468.27" xlink:href="#linear-gradient-24"/><linearGradient id="linear-gradient-26" x1="1140.65" y1="-470.88" x2="1140.65" y2="-469.12" xlink:href="#linear-gradient-24"/><linearGradient id="linear-gradient-27" x1="1143.45" y1="-471.51" x2="1143.45" y2="-469.57" xlink:href="#linear-gradient-24"/><linearGradient id="linear-gradient-28" x1="1146.13" y1="-471.56" x2="1146.13" y2="-469.12" xlink:href="#linear-gradient-24"/><linearGradient id="linear-gradient-29" x1="1150.21" y1="-471.17" x2="1150.21" y2="-467.47" xlink:href="#linear-gradient-24"/><linearGradient id="linear-gradient-30" x1="1152.82" y1="-468.86" x2="1157.42" y2="-468.86" gradientTransform="matrix(0.96, 0.27, -0.27, 0.96, -1153.46, 173.63)" gradientUnits="userSpaceOnUse"><stop offset="0" stop-color="#323233"/><stop offset="1" stop-color="#1a1a1c"/></linearGradient><linearGradient id="linear-gradient-31" x1="1128.52" y1="-476.19" x2="1139.94" y2="-467.56" gradientTransform="matrix(0.96, 0.27, -0.27, 0.96, -1153.46, 173.63)" xlink:href="#linear-gradient-5"/><linearGradient id="linear-gradient-32" x1="1138.45" y1="-470.18" x2="1138.45" y2="-469.49" gradientTransform="matrix(0.96, 0.27, -0.27, 0.96, -1153.46, 173.63)" xlink:href="#linear-gradient-5"/><linearGradient id="linear-gradient-33" x1="1139.35" y1="-470.4" x2="1142.01" y2="-470.4" gradientTransform="matrix(0.96, 0.27, -0.27, 0.96, -1153.46, 173.63)" xlink:href="#linear-gradient-5"/><linearGradient id="linear-gradient-34" x1="1141.73" y1="-470.83" x2="1145.54" y2="-471.29" gradientTransform="matrix(0.96, 0.27, -0.27, 0.96, -1153.46, 173.63)" xlink:href="#linear-gradient-5"/><linearGradient id="linear-gradient-35" x1="1144.53" y1="-471.25" x2="1149.2" y2="-471.25" gradientTransform="matrix(0.96, 0.27, -0.27, 0.96, -1153.46, 173.63)" xlink:href="#linear-gradient-5"/><linearGradient id="linear-gradient-36" x1="1147.3" y1="-471.36" x2="1154.09" y2="-469.55" gradientTransform="matrix(0.96, 0.27, -0.27, 0.96, -1153.46, 173.63)" xlink:href="#linear-gradient-5"/><linearGradient id="linear-gradient-37" x1="1146.72" y1="-469.16" x2="1153.5" y2="-467.35" gradientTransform="matrix(0.96, 0.27, -0.27, 0.96, -1153.46, 173.63)" xlink:href="#linear-gradient-19"/><linearGradient id="linear-gradient-38" x1="1153" y1="-468.93" x2="1157.42" y2="-468.93" gradientTransform="matrix(0.96, 0.27, -0.27, 0.96, -1153.46, 173.63)" xlink:href="#linear-gradient-5"/><linearGradient id="linear-gradient-39" x1="1124.51" y1="-472.86" x2="1128.02" y2="-470.19" gradientTransform="matrix(0.96, 0.27, -0.27, 0.96, -1153.46, 173.63)" gradientUnits="userSpaceOnUse"><stop offset="0" stop-color="#454545"/><stop offset="0.57" stop-color="#2a2a2a"/><stop offset="1" stop-color="#1a1a1a"/></linearGradient><linearGradient id="linear-gradient-40" x1="-80.33" y1="22.57" x2="-35.65" y2="22.57" gradientTransform="translate(129.86)" gradientUnits="userSpaceOnUse"><stop offset="0" stop-color="#0f0f11"/><stop offset="0.95" stop-color="#171719"/><stop offset="1" stop-color="#18181a"/></linearGradient><linearGradient id="linear-gradient-41" x1="-73.85" y1="24.31" x2="-35.65" y2="24.31" gradientTransform="translate(129.86)" gradientUnits="userSpaceOnUse"><stop offset="0" stop-color="#18181a"/><stop offset="0.55" stop-color="#2a2a2b"/><stop offset="0.95" stop-color="#232227"/></linearGradient><linearGradient id="linear-gradient-42" x1="-79" y1="29.95" x2="-33.83" y2="29.95" gradientTransform="translate(129.86)" gradientUnits="userSpaceOnUse"><stop offset="0" stop-color="#03090e"/><stop offset="0.42" stop-color="#060b0f"/><stop offset="0.67" stop-color="#0e1114"/><stop offset="0.83" stop-color="#18181a"/><stop offset="0.87" stop-color="#1b1b1d"/><stop offset="0.9" stop-color="#242526"/><stop offset="0.93" stop-color="#333536"/><stop offset="0.96" stop-color="#494c4c"/><stop offset="0.98" stop-color="#646968"/><stop offset="1" stop-color="#818785"/></linearGradient><linearGradient id="linear-gradient-43" x1="-74.38" y1="5330.42" x2="-35.22" y2="5330.42" gradientTransform="translate(129.86 -3213.97) scale(1 0.61)" xlink:href="#linear-gradient-41"/><linearGradient id="linear-gradient-44" x1="-270.62" y1="21.15" x2="-231.67" y2="21.15" gradientTransform="translate(326.1)" gradientUnits="userSpaceOnUse"><stop offset="0" stop-color="#666"/><stop offset="0.27" stop-color="#555"/><stop offset="0.81" stop-color="#282828"/><stop offset="1" stop-color="#161616"/></linearGradient><linearGradient id="linear-gradient-45" x1="-82.99" y1="27.28" x2="-71.74" y2="27.28" gradientTransform="translate(129.86)" gradientUnits="userSpaceOnUse"><stop offset="0" stop-color="#0c0c0d"/><stop offset="0.83" stop-color="#18181a"/><stop offset="0.87" stop-color="#1b1b1d"/><stop offset="0.9" stop-color="#242526"/><stop offset="0.93" stop-color="#333536"/><stop offset="0.96" stop-color="#494c4c"/><stop offset="0.98" stop-color="#646968"/><stop offset="1" stop-color="#818785"/></linearGradient><linearGradient id="linear-gradient-46" x1="-77.44" y1="24.86" x2="-69.29" y2="31.32" gradientTransform="translate(129.86)" gradientUnits="userSpaceOnUse"><stop offset="0" stop-color="#0c0c0d"/><stop offset="0.19" stop-color="#18181a"/><stop offset="0.49" stop-color="#1b1b1d"/><stop offset="0.71" stop-color="#242526"/><stop offset="0.92" stop-color="#333536"/><stop offset="1" stop-color="#3c3e3f"/></linearGradient><linearGradient id="linear-gradient-47" x1="-19.68" y1="-361.07" x2="-19.68" y2="-316.34" gradientTransform="matrix(-0.09, 1, 1, 0.09, 414.94, 68.52)" gradientUnits="userSpaceOnUse"><stop offset="0" stop-color="#fff"/><stop offset="0.48" stop-color="#d3d3d3"/><stop offset="1" stop-color="#a8a8a8"/></linearGradient><linearGradient id="linear-gradient-48" x1="-15.66" y1="-353.16" x2="-15.66" y2="-318.2" xlink:href="#linear-gradient-47"/><linearGradient id="linear-gradient-49" x1="-55.89" y1="8.11" x2="-55.89" y2="19.35" gradientTransform="translate(129.86)" xlink:href="#linear-gradient-44"/><linearGradient id="linear-gradient-50" x1="-77.76" y1="12.25" x2="-77.76" y2="24.39" gradientTransform="translate(129.86)" gradientUnits="userSpaceOnUse"><stop offset="0" stop-color="#bdbdbd"/><stop offset="0.26" stop-color="#c4c4c4"/><stop offset="0.64" stop-color="#d7d7d7"/><stop offset="1" stop-color="#efefef"/></linearGradient><linearGradient id="linear-gradient-51" x1="-109.64" y1="17.5" x2="-75.12" y2="17.5" gradientTransform="translate(129.86)" gradientUnits="userSpaceOnUse"><stop offset="0" stop-color="#1a1a1c"/><stop offset="0.72" stop-color="#1d1d1e"/><stop offset="1" stop-color="#212122"/></linearGradient><linearGradient id="linear-gradient-52" x1="-87" y1="22.18" x2="-90.49" y2="25.34" gradientTransform="translate(129.86)" gradientUnits="userSpaceOnUse"><stop offset="0" stop-color="#1a1a1c"/><stop offset="0.5" stop-color="#272728"/><stop offset="1" stop-color="#383839"/></linearGradient><linearGradient id="linear-gradient-53" x1="-72.66" y1="15.15" x2="-85.01" y2="13.15" gradientTransform="translate(129.86)" gradientUnits="userSpaceOnUse"><stop offset="0" stop-color="#393939"/><stop offset="0.46" stop-color="#1d1d1d"/><stop offset="1"/></linearGradient><linearGradient id="linear-gradient-54" x1="-78.26" y1="7.33" x2="-104.5" y2="3.07" gradientTransform="translate(129.86)" gradientUnits="userSpaceOnUse"><stop offset="0" stop-color="#1f1f20"/><stop offset="0.31" stop-color="#262627"/><stop offset="0.76" stop-color="#393939"/><stop offset="1" stop-color="#464646"/></linearGradient><linearGradient id="linear-gradient-55" x1="-97.99" y1="7.92" x2="-84.07" y2="18.9" gradientTransform="translate(129.86)" gradientUnits="userSpaceOnUse"><stop offset="0" stop-color="#585858"/><stop offset="0.25" stop-color="#474747"/><stop offset="0.74" stop-color="#1a1a1a"/><stop offset="1"/></linearGradient><linearGradient id="linear-gradient-56" x1="-92.23" y1="21.39" x2="-92.23" y2="28.03" gradientTransform="translate(129.86)" gradientUnits="userSpaceOnUse"><stop offset="0" stop-color="#1f1f20"/><stop offset="0.47" stop-color="#262627"/><stop offset="1" stop-color="#343434"/></linearGradient><linearGradient id="linear-gradient-57" x1="-79.37" y1="10.99" x2="-79.37" y2="26.32" gradientTransform="translate(129.86)" gradientUnits="userSpaceOnUse"><stop offset="0" stop-color="#18181a"/><stop offset="0.47" stop-color="#0b0b0c"/><stop offset="1"/></linearGradient><linearGradient id="linear-gradient-58" x1="-96.15" y1="21.39" x2="-96.15" y2="24.84" gradientTransform="translate(129.86)" gradientUnits="userSpaceOnUse"><stop offset="0" stop-color="#1a1a1a"/><stop offset="1" stop-color="#343434"/></linearGradient><linearGradient id="linear-gradient-59" x1="-95.29" y1="25.76" x2="-93.19" y2="24.64" gradientTransform="translate(104.08 94.66) rotate(60.4)" xlink:href="#linear-gradient-52"/><linearGradient id="linear-gradient-60" x1="-1610.83" y1="179.89" x2="-1606.31" y2="179.89" xlink:href="#linear-gradient"/><linearGradient id="linear-gradient-61" x1="-1606.99" y1="178.12" x2="-1608.76" y2="181.12" xlink:href="#linear-gradient-2"/><linearGradient id="linear-gradient-62" x1="-1617.85" y1="182" x2="-1602.66" y2="183.67" xlink:href="#linear-gradient-3"/><linearGradient id="linear-gradient-63" x1="-1612.38" y1="181.95" x2="-1612.38" y2="185.73" xlink:href="#linear-gradient-4"/><linearGradient id="linear-gradient-64" x1="2067.94" y1="223.25" x2="2067.94" y2="223.99" xlink:href="#linear-gradient-5"/><linearGradient id="linear-gradient-65" x1="2069.2" y1="223.04" x2="2072.89" y2="223.04" xlink:href="#linear-gradient-5"/><linearGradient id="linear-gradient-66" x1="2072.53" y1="222.64" x2="2077.78" y2="222.01" xlink:href="#linear-gradient-5"/><linearGradient id="linear-gradient-67" x1="2076.4" y1="222.17" x2="2083.11" y2="222.17" xlink:href="#linear-gradient-5"/><linearGradient id="linear-gradient-68" x1="2064.09" y1="-580.15" x2="2071.47" y2="-580.15" gradientTransform="matrix(-0.72, 0.69, 0.69, 0.72, 1893.96, -969.45)" xlink:href="#linear-gradient-5"/><linearGradient id="linear-gradient-69" x1="1831.61" y1="830.64" x2="1841.02" y2="833.15" gradientTransform="matrix(-1, -0.08, -0.08, 1, 1903.25, -641.88)" xlink:href="#linear-gradient-5"/><linearGradient id="linear-gradient-70" x1="2038.39" y1="264.91" x2="2058.54" y2="280.13" gradientTransform="matrix(-0.96, 0.27, 0.27, 0.96, 1932.78, -772.46)" xlink:href="#linear-gradient-5"/><linearGradient id="linear-gradient-71" x1="1142.08" y1="-470.52" x2="1152.33" y2="-473.76" gradientTransform="matrix(0.96, 0.27, -0.27, 0.96, -1153.46, 173.63)" xlink:href="#linear-gradient-3"/><linearGradient id="linear-gradient-72" x1="1166.21" y1="-434.62" x2="1180.79" y2="-423.61" gradientTransform="matrix(0.98, 0.22, -0.22, 0.98, -1151.71, 193.36)" xlink:href="#linear-gradient-5"/><linearGradient id="linear-gradient-73" x1="1178.88" y1="-426.95" x2="1178.88" y2="-426.06" gradientTransform="matrix(0.98, 0.22, -0.22, 0.98, -1151.71, 193.36)" xlink:href="#linear-gradient-5"/><linearGradient id="linear-gradient-74" x1="1180.04" y1="-427.22" x2="1183.43" y2="-427.22" gradientTransform="matrix(0.98, 0.22, -0.22, 0.98, -1151.71, 193.36)" xlink:href="#linear-gradient-5"/><linearGradient id="linear-gradient-75" x1="1183.08" y1="-427.78" x2="1187.94" y2="-428.36" gradientTransform="matrix(0.98, 0.22, -0.22, 0.98, -1151.71, 193.36)" xlink:href="#linear-gradient-5"/><linearGradient id="linear-gradient-76" x1="1186.65" y1="-428.32" x2="1192.62" y2="-428.32" gradientTransform="matrix(0.98, 0.22, -0.22, 0.98, -1151.71, 193.36)" xlink:href="#linear-gradient-5"/><linearGradient id="linear-gradient-77" x1="1190.19" y1="-428.45" x2="1198.86" y2="-426.14" gradientTransform="matrix(0.98, 0.22, -0.22, 0.98, -1151.71, 193.36)" xlink:href="#linear-gradient-5"/><linearGradient id="linear-gradient-78" x1="1189.44" y1="-425.65" x2="1198.11" y2="-423.34" xlink:href="#linear-gradient-19"/><linearGradient id="linear-gradient-79" x1="1197.47" y1="-425.35" x2="1203.11" y2="-425.35" gradientTransform="matrix(0.98, 0.22, -0.22, 0.98, -1151.71, 193.36)" xlink:href="#linear-gradient-5"/><linearGradient id="linear-gradient-80" x1="1142" y1="-470.79" x2="1152.24" y2="-474.04" xlink:href="#linear-gradient-21"/><linearGradient id="linear-gradient-81" x1="1157.88" y1="-454.8" x2="1155.48" y2="-450.61" gradientTransform="matrix(0.97, 0.25, -0.25, 0.97, -1151.89, 182.18)" xlink:href="#linear-gradient-5"/><linearGradient id="linear-gradient-82" x1="1132.17" y1="-462.39" x2="1128.19" y2="-467.34" gradientTransform="matrix(0.96, 0.27, -0.27, 0.96, -1153.46, 173.63)" xlink:href="#linear-gradient-3"/><linearGradient id="linear-gradient-83" x1="1138.4" y1="-467.79" x2="1136.2" y2="-463.94" xlink:href="#linear-gradient-24"/><linearGradient id="linear-gradient-84" x1="1143.54" y1="-465.14" x2="1143.54" y2="-462.7" xlink:href="#linear-gradient-24"/><linearGradient id="linear-gradient-85" x1="1146.26" y1="-466.04" x2="1146.26" y2="-463.79" xlink:href="#linear-gradient-24"/><linearGradient id="linear-gradient-86" x1="1149.83" y1="-466.84" x2="1149.83" y2="-464.36" xlink:href="#linear-gradient-24"/><linearGradient id="linear-gradient-87" x1="1153.25" y1="-466.91" x2="1153.25" y2="-463.79" xlink:href="#linear-gradient-24"/><linearGradient id="linear-gradient-88" x1="1158.46" y1="-466.4" x2="1158.46" y2="-461.68" xlink:href="#linear-gradient-24"/><linearGradient id="linear-gradient-89" x1="1161.8" y1="-463.46" x2="1167.67" y2="-463.46" xlink:href="#linear-gradient-30"/><linearGradient id="linear-gradient-90" x1="1130.77" y1="-472.81" x2="1145.35" y2="-461.8" gradientTransform="matrix(0.96, 0.27, -0.27, 0.96, -1153.46, 173.63)" xlink:href="#linear-gradient-5"/><linearGradient id="linear-gradient-91" x1="1143.44" y1="-465.14" x2="1143.44" y2="-464.26" gradientTransform="matrix(0.96, 0.27, -0.27, 0.96, -1153.46, 173.63)" xlink:href="#linear-gradient-5"/><linearGradient id="linear-gradient-92" x1="1144.59" y1="-465.42" x2="1147.98" y2="-465.42" gradientTransform="matrix(0.96, 0.27, -0.27, 0.96, -1153.46, 173.63)" xlink:href="#linear-gradient-5"/><linearGradient id="linear-gradient-93" x1="1147.63" y1="-465.98" x2="1152.5" y2="-466.56" gradientTransform="matrix(0.96, 0.27, -0.27, 0.96, -1153.46, 173.63)" xlink:href="#linear-gradient-5"/><linearGradient id="linear-gradient-94" x1="1151.21" y1="-466.51" x2="1157.18" y2="-466.51" gradientTransform="matrix(0.96, 0.27, -0.27, 0.96, -1153.46, 173.63)" xlink:href="#linear-gradient-5"/><linearGradient id="linear-gradient-95" x1="1154.75" y1="-466.64" x2="1163.41" y2="-464.33" gradientTransform="matrix(0.96, 0.27, -0.27, 0.96, -1153.46, 173.63)" xlink:href="#linear-gradient-5"/><linearGradient id="linear-gradient-96" x1="1154" y1="-463.85" x2="1162.67" y2="-461.53" gradientTransform="matrix(0.96, 0.27, -0.27, 0.96, -1153.46, 173.63)" xlink:href="#linear-gradient-19"/><linearGradient id="linear-gradient-97" x1="1162.02" y1="-463.55" x2="1167.67" y2="-463.55" gradientTransform="matrix(0.96, 0.27, -0.27, 0.96, -1153.46, 173.63)" xlink:href="#linear-gradient-5"/><linearGradient id="linear-gradient-98" x1="1125.64" y1="-468.56" x2="1130.13" y2="-465.16" xlink:href="#linear-gradient-39"/><linearGradient id="linear-gradient-99" x1="1131.73" y1="-472" x2="1129.5" y2="-468.1" gradientTransform="matrix(0.96, 0.27, -0.27, 0.96, -1153.46, 173.63)" xlink:href="#linear-gradient-5"/></defs><title>rhinoceros-beetle</title><g class="cls-1"><g id="Layer_1" data-name="Layer 1"><path class="cls-2" d="M50.2,21.53c-1.43-1.78-2.42.8-2.73,2,2.28-.29,3.18.43,3.52,1.15C51.81,23.63,50.2,21.53,50.2,21.53Z"/><path class="cls-3" d="M48.32,21.54a2.69,2.69,0,0,0,2.78,1.68,6.36,6.36,0,0,0-.9-1.69C49.44,20.58,48.8,20.88,48.32,21.54Z"/><path class="cls-4" d="M42.41,25.47s2.06.46,1,2.2c0,0-.34,1.7,1.72.3a8.32,8.32,0,0,0,3.06.26,9.34,9.34,0,0,0,2.57-1.95,1.27,1.27,0,0,0,.36-1.21c-.2-.84-1-2-4-1.51A14.49,14.49,0,0,0,42.41,25.47Z"/><path class="cls-5" d="M43.68,27.1a2.17,2.17,0,0,1-.25.58s-.34,1.7,1.72.3a8.32,8.32,0,0,0,3.06.26,9.34,9.34,0,0,0,2.57-1.95,1.28,1.28,0,0,0,.38-.78C49.23,24.27,45.83,25.84,43.68,27.1Z"/><path class="cls-6" d="M46.55,24.38a5.82,5.82,0,0,1,4.44.3c-.36-.76-1.32-1.52-3.84-1.11a14.49,14.49,0,0,0-4.74,1.9,2.24,2.24,0,0,1,.29.09C44.11,25.06,45.57,24.71,46.55,24.38Z"/><path class="cls-6" d="M13.59,40.75a1,1,0,0,1,0-.44A5.51,5.51,0,0,1,14.18,39a18.71,18.71,0,0,1,1.12-1.7h0L15.5,37l.17.1-.22.35h0l0,0c-.21.35-.53.89-.82,1.44A10.15,10.15,0,0,0,14,40.28a1.58,1.58,0,0,0-.1.46.29.29,0,0,0,0,.12l0,0,0,0a.28.28,0,0,1,0-.12,1.57,1.57,0,0,1,.08-.46,10.15,10.15,0,0,1,.55-1.36l.29-.6c-.17.23-.36.5-.54.78a5.46,5.46,0,0,0-.63,1.23,1,1,0,0,0,0,.43.44.44,0,0,0,.06.14A.43.43,0,0,1,13.59,40.75Z"/><path class="cls-7" d="M32.1,34c-.37,0-1,.18-1,.18s.06.35.06.35-1-.37-1-.37c.48-.21-.09-1-.09-1a3.82,3.82,0,0,1,2-.33h0A1,1,0,0,1,32.1,34Z"/><path class="cls-7" d="M27.18,33.47a5.33,5.33,0,0,1,3-.16c.11.17.27.5.16.7a7.36,7.36,0,0,0-1.42.36,2,2,0,0,1-1.24.16C27.78,34.33,27.18,33.47,27.18,33.47Z"/><path class="cls-7" d="M23.83,34c.85-.59,2.84-.45,3.44-.39a2.55,2.55,0,0,1,.39.82,10.93,10.93,0,0,0-2.92,1C24.93,35,23.83,34,23.83,34Z"/><path class="cls-7" d="M21,34.82a11.57,11.57,0,0,1,3-.63,2.7,2.7,0,0,1,.72,1,15.22,15.22,0,0,0-3,1.55C22.28,36.21,21,34.82,21,34.82Z"/><path class="cls-7" d="M21.43,35.35a12,12,0,0,1-3.32-.06.88.88,0,0,0-.3,0c-.48.09-1.89.38-2.22.84,0,0,.46,1.58-.08,2,0,0,1.21-.6,2.33-1.09a10,10,0,0,1,3.08-.8,6.85,6.85,0,0,1,1,0A3,3,0,0,0,21.43,35.35Z"/><path class="cls-7" d="M13.27,41.7l.06-.09a3,3,0,0,1,1.53-4.08,2.12,2.12,0,0,0,.92.09,4.59,4.59,0,0,0-.19-1.48C12.82,36.91,11.39,39.83,13.27,41.7Z"/><path class="cls-8" d="M30.11,33.26l0-.07a3.82,3.82,0,0,1,2-.33h0a1.07,1.07,0,0,1,.12.21A12.59,12.59,0,0,0,30.11,33.26Z"/><path class="cls-9" d="M27.68,33.52l-.42.08-.09-.13a5.33,5.33,0,0,1,3-.16l0,0A11.85,11.85,0,0,0,27.68,33.52Z"/><path class="cls-10" d="M25.54,33.9a14,14,0,0,0-1.46.33L23.83,34c.85-.59,2.84-.45,3.44-.39l.07.1A13,13,0,0,0,25.54,33.9Z"/><path class="cls-11" d="M21.3,35.16c-.16-.21-.29-.35-.29-.35a11.57,11.57,0,0,1,3-.63l.14.14A12.51,12.51,0,0,0,21.3,35.16Z"/><path class="cls-12" d="M30,33.29l.12,0c.11.17.27.5.16.7h-.07C30.33,33.79,30.12,33.43,30,33.29Z"/><path class="cls-12" d="M27.16,33.6h.11a2.55,2.55,0,0,1,.39.82h-.09A2.81,2.81,0,0,0,27.16,33.6Z"/><path class="cls-12" d="M24,34.19a2.7,2.7,0,0,1,.72,1l-.12,0a2.81,2.81,0,0,0-.73-1Z"/><path class="cls-6" d="M13.63,38.12a2.16,2.16,0,0,1,2.59-.64,1.87,1.87,0,0,1-1.35.05,3,3,0,0,0-1.57,4l0,0A2.59,2.59,0,0,1,13.63,38.12Z"/><path class="cls-6" d="M30.67,34.09a11.4,11.4,0,0,1,1.52-.27,1.4,1.4,0,0,1-.08.17c-.37,0-1,.18-1,.18s.06.35.06.35-.66-.2-.88-.32Z"/><path class="cls-6" d="M28.8,34.12a11.38,11.38,0,0,1,1.54-.27.34.34,0,0,1,0,.16,7.36,7.36,0,0,0-1.42.36,2,2,0,0,1-1.24.16.14.14,0,0,0,0-.07C28,34.33,28.4,34.22,28.8,34.12Z"/><path class="cls-6" d="M26.73,34.42c.3-.07.59-.13.88-.18a.74.74,0,0,1,.05.2,10.93,10.93,0,0,0-2.92,1,.4.4,0,0,0,0-.29A11.16,11.16,0,0,1,26.73,34.42Z"/><path class="cls-6" d="M22,36.36A7.15,7.15,0,0,1,24.67,35a.9.9,0,0,1,.08.21,15.22,15.22,0,0,0-3,1.55C21.88,36.64,22,36.5,22,36.36Z"/><path class="cls-12" d="M32,34a1,1,0,0,0-.08-1.1l.16,0h0a.94.94,0,0,1,0,1.08Z"/><path class="cls-13" d="M13.17,41.59c-1.31-1.81.06-4.47,2.47-5.3l0-.16C12.87,36.89,11.43,39.73,13.17,41.59Z"/><path class="cls-12" d="M15.41,36.19a4.31,4.31,0,0,1,.16,1.46l.17,0a4.18,4.18,0,0,0-.15-1.49Z"/><path class="cls-14" d="M18.11,35.29a.88.88,0,0,0-.3,0c-.48.09-1.89.38-2.22.84,0,0,0,.17.1.41a10.65,10.65,0,0,1,2.89-.82,11.54,11.54,0,0,1,3-.11l-.17-.26A12,12,0,0,1,18.11,35.29Z"/><path class="cls-6" d="M21.78,35.94a13.49,13.49,0,0,0-2.78.4,10.55,10.55,0,0,0-3.27,1.32.66.66,0,0,1-.23.44s1.21-.6,2.33-1.09a10,10,0,0,1,3.08-.8,6.85,6.85,0,0,1,1,0A1.72,1.72,0,0,0,21.78,35.94Z"/><path class="cls-12" d="M21.43,35.35l-.22,0a3.48,3.48,0,0,1,.46.8h.2A3,3,0,0,0,21.43,35.35Z"/><path class="cls-7" d="M42.6,25.38c-2.09,1.21-8.87,6.46-11,6.88,0,0,2.13,1.55-1.29,3.32,0,0,1.47.31,3.91-2.38,0,0,8.59-5.25,8.85-5.32a9.08,9.08,0,0,0,.84-.38A1.5,1.5,0,0,0,42.6,25.38Z"/><path class="cls-6" d="M41.07,28.66a6.41,6.41,0,0,1-1,1c1.56-.94,2.85-1.71,2.95-1.73a9.08,9.08,0,0,0,.84-.38,3.07,3.07,0,0,0,.08-.39A4,4,0,0,0,41.07,28.66Z"/><path class="cls-15" d="M43,25.48a2.62,2.62,0,0,0-.38-.1c-2.09,1.21-8.87,6.46-11,6.88a1.85,1.85,0,0,1,.31.31h0C34.28,31.29,40.9,27.84,43,25.48Z"/><path class="cls-16" d="M44,27.63l0-.09a2,2,0,0,0-.13-1.6,1.78,1.78,0,0,0-1.14-.73l-.38.26a2.46,2.46,0,0,1,.59.24,1.22,1.22,0,0,1,.59.46,1.54,1.54,0,0,1,.11,1.19l-.13.06a2.59,2.59,0,0,1-.13.26,1.39,1.39,0,0,0,0,.26l.55-.26Z"/><path class="cls-16" d="M47.54,23.27l-.07.25c2.28-.29,3.18.43,3.52,1.15a1,1,0,0,0,.13-.21C50.79,23.73,49.89,23,47.54,23.27Z"/><path class="cls-17" d="M69.63,25.43a.79.79,0,0,1-.2-1.18c.92-1.11,3-3.2,4.92-2,0,0,2.86,1.75,0,3C71.92,26.36,70.41,25.9,69.63,25.43Z"/><path class="cls-7" d="M83.93,28.29c-2.32-.33-5.54-5.13-7.14-5.77-.2.15-.67,0-.67,0-1.69-1.35-2,.78-2,.78a.82.82,0,0,0,.3,0,.19.19,0,0,1,.19.14,4.28,4.28,0,0,0,1,1.24c.54.24,1.1.48,1.23.5s4.53,4.16,4.53,4.16c2.56,2.57,4,2.19,4,2.19C81.87,29.95,83.93,28.29,83.93,28.29Z"/><path class="cls-7" d="M83.49,30.09a8.6,8.6,0,0,1,1,0c.08.16-.06.4-.06.4s.91-.57.91-.57c-.45-.17.07-1.09.07-1.09-.61-.41-1.88-.07-1.88-.07h0A1.29,1.29,0,0,0,83.49,30.09Z"/><path class="cls-7" d="M88.1,28.74c-.92-.51-2.77.28-2.77.28-.1.21-.25.6-.14.82a5.38,5.38,0,0,1,1.33.19,1.52,1.52,0,0,0,1.16,0C87.54,29.81,88.1,28.74,88.1,28.74Z"/><path class="cls-7" d="M91.23,28.83c-.8-.54-2.66-.07-3.22.09a3.7,3.7,0,0,0-.36,1,7.93,7.93,0,0,1,2.74.64C90.21,30.08,91.23,28.83,91.23,28.83Z"/><path class="cls-7" d="M93.79,29.32A8,8,0,0,0,91,29.08a3.79,3.79,0,0,0-.66,1.24,10.36,10.36,0,0,1,2.69,1.3C92.61,31.09,93.79,29.32,93.79,29.32Z"/><path class="cls-7" d="M98.68,32.23c-.13-.61-1.27-1.32-1.66-1.54a.64.64,0,0,0-.26-.08,8.88,8.88,0,0,1-3.16-1,7,7,0,0,0-.45.9,4.77,4.77,0,0,1,.86.31,7.75,7.75,0,0,1,2.42,1.73c.81.85,1.67,1.85,1.67,1.85C97.75,33.85,98.68,32.23,98.68,32.23Z"/><path class="cls-7" d="M98.6,32.37A5.58,5.58,0,0,0,98,33.86c.75.2,1.44-.72,1.44-.72,2-.24,2.65.78,2.81,2.33l.08,0C103.13,32.89,101.16,31.24,98.6,32.37Z"/><path class="cls-6" d="M76.83,25.21c.26.06,4.53,4.16,4.53,4.16a7.28,7.28,0,0,0,3.23,2.13,33.09,33.09,0,0,1-5.77-5.61,4,4,0,0,0-3.43-1.39h0l.22.21C76.14,24.94,76.7,25.18,76.83,25.21Z"/><path class="cls-18" d="M83.93,28.29c-2.32-.33-5.54-5.13-7.14-5.77a.38.38,0,0,1-.23.06c1.94,2.27,4.51,4.83,7.07,6A1.85,1.85,0,0,1,83.93,28.29Z"/><path class="cls-19" d="M85.35,29l0-.09c-.61-.41-1.88-.07-1.88-.07h0a1.54,1.54,0,0,0-.11.26A9.68,9.68,0,0,1,85.35,29Z"/><path class="cls-20" d="M87.62,28.88l.39,0,.08-.17c-.92-.51-2.77.28-2.77.28l0,0A9.19,9.19,0,0,1,87.62,28.88Z"/><path class="cls-21" d="M89.63,29a10.26,10.26,0,0,1,1.37.15l.23-.3c-.8-.54-2.66-.07-3.22.09l-.06.13A10,10,0,0,1,89.63,29Z"/><path class="cls-22" d="M93.52,29.76c.15-.26.26-.44.26-.44A8,8,0,0,0,91,29.08l-.13.18A8.47,8.47,0,0,1,93.52,29.76Z"/><path class="cls-12" d="M85.43,29l-.11,0c-.1.21-.25.6-.14.82h.07A1.34,1.34,0,0,1,85.43,29Z"/><path class="cls-12" d="M88.11,28.89l-.11,0a3.7,3.7,0,0,0-.36,1h.08A4.08,4.08,0,0,1,88.11,28.89Z"/><path class="cls-12" d="M91,29.08a3.79,3.79,0,0,0-.66,1.24h.11a3.93,3.93,0,0,1,.67-1.25Z"/><path class="cls-23" d="M96.21,30.95a8.37,8.37,0,0,1,2.25,1.71c.12-.25.22-.43.22-.43-.13-.61-1.27-1.32-1.66-1.54a.64.64,0,0,0-.26-.08,8.88,8.88,0,0,1-3.16-1l-.18.33A8.07,8.07,0,0,1,96.21,30.95Z"/><path class="cls-24" d="M98.06,34.39l0,0,0,0Z"/><path class="cls-12" d="M93.59,29.63a7,7,0,0,0-.45.9l.16,0a6.84,6.84,0,0,1,.43-.87Z"/><path class="cls-25" d="M102.41,35.36c.65-2.53-1.29-4.11-3.81-3l-.1.19C100.83,31.6,102.74,33.09,102.41,35.36Z"/><path class="cls-6" d="M100.68,32.88a2.08,2.08,0,0,0-2.29,1,2,2,0,0,0,1.09-.74c1.91-.23,2.61.73,2.79,2.22l0-.06A2,2,0,0,0,100.68,32.88Z"/><path class="cls-12" d="M98,33.86l.13,0a8.86,8.86,0,0,1,.6-1.58l-.17.07A5.58,5.58,0,0,0,98,33.86Z"/><path class="cls-6" d="M84.84,30a8.48,8.48,0,0,0-1.43-.07,1.48,1.48,0,0,0,.08.18,8.6,8.6,0,0,1,1,0c.08.16-.06.4-.06.4s.61-.33.82-.5Z"/><path class="cls-6" d="M86.59,29.73a8.48,8.48,0,0,0-1.45-.07.41.41,0,0,0,0,.18,5.38,5.38,0,0,1,1.33.19,1.52,1.52,0,0,0,1.16,0,.18.18,0,0,1,0-.08A8.7,8.7,0,0,0,86.59,29.73Z"/><path class="cls-6" d="M88.52,29.75c-.28,0-.56-.06-.82-.07a1.08,1.08,0,0,0,0,.23,7.93,7.93,0,0,1,2.74.64.54.54,0,0,1,0-.33A8.08,8.08,0,0,0,88.52,29.75Z"/><path class="cls-6" d="M93,31.23a5.29,5.29,0,0,0-2.51-1.16,1.32,1.32,0,0,0-.08.25,10.36,10.36,0,0,1,2.69,1.3A.53.53,0,0,1,93,31.23Z"/><path class="cls-6" d="M98.09,34.43a.85.85,0,0,1-.06-.55,8.8,8.8,0,0,0-2.41-2.37,9.93,9.93,0,0,0-2.37-1.24l-.11.25a4.77,4.77,0,0,1,.86.31,7.75,7.75,0,0,1,2.42,1.73C97.24,33.43,98.09,34.43,98.09,34.43Z"/><path class="cls-6" d="M101.31,35.48a.75.75,0,0,0-.19-.33,3.8,3.8,0,0,0-1-.67,12.84,12.84,0,0,0-1.55-.69h0l-.27-.15-.09.18.31.15h0c.3.15.76.4,1.21.66a7,7,0,0,1,1,.69,1.15,1.15,0,0,1,.26.3.26.26,0,0,1,0,.11v0a.26.26,0,0,0,0-.11,1.17,1.17,0,0,0-.25-.32,7,7,0,0,0-1-.75l-.47-.3c.23.09.48.19.73.3a3.74,3.74,0,0,1,1,.61.74.74,0,0,1,.21.31.45.45,0,0,1,0,.14A.45.45,0,0,0,101.31,35.48Z"/><path class="cls-12" d="M83.6,30.08a1.3,1.3,0,0,1,.08-1.32l-.16,0h0a1.29,1.29,0,0,0,0,1.28Z"/><path class="cls-26" d="M70,25.4c.92-1.11,3-3.2,4.92-2a4.12,4.12,0,0,1,.72.59c.08-.92-1.26-1.74-1.26-1.74-1.89-1.24-4,.85-4.92,2a.79.79,0,0,0,.2,1.18l.23.13A.79.79,0,0,1,70,25.4Z"/><path class="cls-12" d="M74.71,22.27l-.07,0a1,1,0,0,0-.16.16c.42.3,1.56,1.22.93,2.13l.19.18h0C76.79,23.54,74.71,22.27,74.71,22.27Z"/><path class="cls-27" d="M76.79,22.53l-.33-.05a1.41,1.41,0,0,0-1.62-.36c.3-.1.71,0,1.25.42a2.32,2.32,0,0,0,.49.08h.13l.08,0Z"/><path class="cls-28" d="M59.09,22.05s-3.55,2.58-.84,5a2.24,2.24,0,0,0,1.82.57,1.57,1.57,0,0,0,1.13-.72,1.71,1.71,0,0,0,.16-1.35,1.68,1.68,0,0,0-.38-.81l.21-.51a5.38,5.38,0,0,1-1.14-1.49.19.19,0,0,0-.18-.15c-.16,0-.4,0-.44-.18A.51.51,0,0,0,59.09,22.05Z"/><path class="cls-29" d="M69.12,28c-2.3-.46-5.27-5.42-6.82-6.14-.2.14-.67,0-.67,0-1.61-1.44-2.06.67-2.06.67a.82.82,0,0,0,.3,0,.19.19,0,0,1,.18.15A4.28,4.28,0,0,0,61,24c.53.27,1.07.53,1.2.57S66.5,29,66.5,29c2.42,2.7,3.9,2.39,3.9,2.39C67,29.56,69.12,28,69.12,28Z"/><path class="cls-30" d="M68.59,29.79a8.6,8.6,0,0,1,1,.1c.07.16-.08.4-.08.4s.94-.52.94-.52c-.44-.19.13-1.09.13-1.09-.59-.45-1.88-.17-1.88-.17h0A1.29,1.29,0,0,0,68.59,29.79Z"/><path class="cls-31" d="M73.26,28.69c-.89-.55-2.78.13-2.78.13-.11.21-.28.59-.18.81a5.38,5.38,0,0,1,1.32.26,1.52,1.52,0,0,0,1.16,0C72.65,29.72,73.26,28.69,73.26,28.69Z"/><path class="cls-32" d="M76.38,28.94c-.77-.58-2.65-.21-3.22-.08a3.7,3.7,0,0,0-.41,1,7.93,7.93,0,0,1,2.7.79C75.3,30.14,76.38,28.94,76.38,28.94Z"/><path class="cls-33" d="M78.91,29.57a8,8,0,0,0-2.73-.39,3.79,3.79,0,0,0-.72,1.2,10.36,10.36,0,0,1,2.62,1.44C77.65,31.27,78.91,29.57,78.91,29.57Z"/><path class="cls-34" d="M83.65,32.73c-.1-.61-1.2-1.38-1.58-1.63a.64.64,0,0,0-.26-.1,8.88,8.88,0,0,1-3.11-1.13,7,7,0,0,0-.49.87,4.77,4.77,0,0,1,.84.36A7.75,7.75,0,0,1,81.38,33c.76.89,1.57,1.94,1.57,1.94C82.63,34.3,83.65,32.73,83.65,32.73Z"/><path class="cls-35" d="M83.56,32.87a5.58,5.58,0,0,0-.64,1.45c.74.24,1.48-.65,1.48-.65,2-.13,2.6.92,2.68,2.48l.08,0C88.06,33.62,86.17,31.87,83.56,32.87Z"/><path class="cls-6" d="M62.2,24.57c.26.07,4.31,4.39,4.31,4.39a7.28,7.28,0,0,0,3.11,2.3,33.09,33.09,0,0,1-5.47-5.9,4,4,0,0,0-3.36-1.57h0L61,24C61.52,24.27,62.07,24.53,62.2,24.57Z"/><path class="cls-36" d="M69.12,28c-2.3-.46-5.27-5.42-6.82-6.14a.38.38,0,0,1-.23.05c1.82,2.37,4.25,5.06,6.74,6.39A1.85,1.85,0,0,1,69.12,28Z"/><path class="cls-37" d="M70.5,28.76l0-.08c-.59-.45-1.88-.17-1.88-.17h0a1.54,1.54,0,0,0-.13.25A9.67,9.67,0,0,1,70.5,28.76Z"/><path class="cls-38" d="M72.78,28.8l.39,0,.09-.16c-.89-.55-2.78.13-2.78.13l0,0A9.19,9.19,0,0,1,72.78,28.8Z"/><path class="cls-39" d="M74.78,29a10.26,10.26,0,0,1,1.36.22l.24-.29c-.77-.58-2.65-.21-3.22-.08L73.1,29A10,10,0,0,1,74.78,29Z"/><path class="cls-40" d="M78.62,30c.16-.25.29-.42.29-.42a8,8,0,0,0-2.73-.39l-.14.17A8.47,8.47,0,0,1,78.62,30Z"/><path class="cls-41" d="M70.58,28.78l-.11,0c-.11.21-.28.59-.18.81h.07A1.34,1.34,0,0,1,70.58,28.78Z"/><path class="cls-41" d="M73.27,28.84l-.11,0a3.7,3.7,0,0,0-.41,1h.08A4.08,4.08,0,0,1,73.27,28.84Z"/><path class="cls-41" d="M76.18,29.18a3.79,3.79,0,0,0-.72,1.2l.11,0a3.93,3.93,0,0,1,.74-1.21Z"/><path class="cls-42" d="M81.25,31.32a8.37,8.37,0,0,1,2.15,1.82c.14-.25.24-.42.24-.42-.1-.61-1.2-1.38-1.58-1.63a.64.64,0,0,0-.26-.1,8.88,8.88,0,0,1-3.11-1.13l-.2.32A8.07,8.07,0,0,1,81.25,31.32Z"/><path class="cls-43" d="M82.91,34.85l0,0,0,0Z"/><path class="cls-41" d="M78.7,29.87a7,7,0,0,0-.49.87l.15.05a6.84,6.84,0,0,1,.48-.85Z"/><path class="cls-44" d="M87.2,36.05c.79-2.49-1.07-4.17-3.64-3.18l-.11.18C85.83,32.22,87.65,33.8,87.2,36.05Z"/><path class="cls-6" d="M85.61,33.49a2.08,2.08,0,0,0-2.34.87,2,2,0,0,0,1.12-.68c1.92-.13,2.57.87,2.67,2.36l0-.06A2,2,0,0,0,85.61,33.49Z"/><path class="cls-41" d="M82.92,34.32l.13,0a8.86,8.86,0,0,1,.69-1.54l-.17.06A5.58,5.58,0,0,0,82.92,34.32Z"/><path class="cls-6" d="M69.94,29.75a8.48,8.48,0,0,0-1.42-.15,1.47,1.47,0,0,0,.07.18,8.6,8.6,0,0,1,1,.1c.07.16-.08.4-.08.4s.63-.3.85-.45Z"/><path class="cls-6" d="M71.7,29.6a8.48,8.48,0,0,0-1.44-.15.41.41,0,0,0,0,.18,5.38,5.38,0,0,1,1.32.26,1.52,1.52,0,0,0,1.16,0,.18.18,0,0,1,0-.08A8.7,8.7,0,0,0,71.7,29.6Z"/><path class="cls-6" d="M73.63,29.72c-.28-.05-.55-.09-.82-.11a1.08,1.08,0,0,0-.06.23,7.93,7.93,0,0,1,2.7.79.54.54,0,0,1,0-.33A8.08,8.08,0,0,0,73.63,29.72Z"/><path class="cls-6" d="M78,31.43a5.29,5.29,0,0,0-2.45-1.29,1.32,1.32,0,0,0-.09.24,10.36,10.36,0,0,1,2.62,1.44A.53.53,0,0,1,78,31.43Z"/><path class="cls-6" d="M82.94,34.9a.85.85,0,0,1,0-.55,8.8,8.8,0,0,0-2.28-2.49,9.93,9.93,0,0,0-2.3-1.36l-.12.24a4.77,4.77,0,0,1,.84.36A7.75,7.75,0,0,1,81.38,33C82.14,33.85,82.94,34.9,82.94,34.9Z"/><path class="cls-41" d="M68.7,29.79a1.3,1.3,0,0,1,.15-1.31l-.16,0h0a1.29,1.29,0,0,0-.09,1.28Z"/><path class="cls-6" d="M61.36,25.52a1.68,1.68,0,0,0-.38-.81l.21-.51-.3-.3h0a1,1,0,0,0,0,.76,3.79,3.79,0,0,1,.18.52,1.71,1.71,0,0,1-.16,1.35,1.57,1.57,0,0,1-1.14.72,2.24,2.24,0,0,1-1.8-.56,4,4,0,0,1-.3-.29,3.63,3.63,0,0,0,.61.66A2.21,2.21,0,0,0,60,27.6a1.58,1.58,0,0,0,1.18-.73A1.71,1.71,0,0,0,61.36,25.52Z"/><path class="cls-45" d="M61.11,24.41l.09-.21a5.38,5.38,0,0,1-1.14-1.49.19.19,0,0,0-.18-.15c-.16,0-.4,0-.44-.18a.51.51,0,0,0-.34-.32s-2.85,2.08-1.49,4.22A2.66,2.66,0,0,1,61.11,24.41Z"/><path class="cls-41" d="M60.2,22.46a.19.19,0,0,0-.18-.15.66.66,0,0,1-.36-.08,2.27,2.27,0,0,0-.08.27.82.82,0,0,0,.3,0,.19.19,0,0,1,.18.15A4.28,4.28,0,0,0,61,24l.27.14.07-.18A5.38,5.38,0,0,1,60.2,22.46Z"/><path class="cls-46" d="M94.2,27.11C82.41,22.53,67.46,26,59.78,22.94a6.13,6.13,0,0,1-2.9-2.39,11,11,0,0,1-1.2-7.76,2.52,2.52,0,0,1,.15-.53h0a4.2,4.2,0,0,1-2.24,0A13.08,13.08,0,0,0,53.69,17s-1.05,4.2-3.55,6.29l-.61,2.47s4.43,2.68,6,2.14c0,0,2.64,6.05,7.43,4.15,0,0,12.28,1.72,16.73-.5a6.91,6.91,0,0,0,3,.24,5.09,5.09,0,0,0,2.46.37s2,.75,3.08.26c0,0,2.16.74,3.27.27l1.11-.46A8.3,8.3,0,0,0,94.2,27.11Z"/><path class="cls-47" d="M70.3,27.36S88,27,93.79,29.91a7.19,7.19,0,0,0,.41-2.8C82.41,22.53,67.46,26,59.78,22.94a6.13,6.13,0,0,1-2.9-2.39A8.57,8.57,0,0,1,56,18.71C56.11,22.11,58.12,27.65,70.3,27.36Z"/><path class="cls-48" d="M91.48,32.72l1.11-.46a8.3,8.3,0,0,0,1.6-5.15L94,27l-2,1.2a.94.94,0,0,0-.4.46,22.21,22.21,0,0,0-1.22,4.18A2.76,2.76,0,0,0,91.48,32.72Z"/><path class="cls-49" d="M94.2,27.11,94,27l-1.87,1.11a7.93,7.93,0,0,0-1.95-2.28l-.38-.09a8.16,8.16,0,0,1,2.18,2.46.94.94,0,0,0-.39.46,22.21,22.21,0,0,0-1.22,4.18h.17a22.45,22.45,0,0,1,1.21-4.1.94.94,0,0,1,.4-.46l2-1.2.09,0S94.2,27.12,94.2,27.11Z"/><path class="cls-50" d="M91.93,28.23a8.15,8.15,0,0,0-2.17-2.45l-.09,0a8.16,8.16,0,0,1,2.18,2.46.94.94,0,0,0-.39.46,22.21,22.21,0,0,0-1.22,4.18h.08a22.24,22.24,0,0,1,1.22-4.17A.94.94,0,0,1,91.93,28.23Z"/><path class="cls-51" d="M94.41,27.19c-11.82-4.71-26.91-1.13-34.63-4.25a6.13,6.13,0,0,1-2.9-2.39,11,11,0,0,1-1.2-7.76,2.38,2.38,0,0,1,.86-1.52c6.8-5.35,35.37,3.51,37.35,8.95C94.32,21.25,95,25.58,94.41,27.19Z"/><path class="cls-52" d="M94.2,26.81C82.7,22.49,67.5,25.67,59.78,22.55a6.13,6.13,0,0,1-2.9-2.39,9.51,9.51,0,0,1-1.4-5,9.69,9.69,0,0,0,1.4,5.43,6.13,6.13,0,0,0,2.9,2.39c7.72,3.13,22.81-.45,34.63,4.25C94.45,27.06,94.4,27,94.2,26.81Z"/><path class="cls-53" d="M56.65,27a2.9,2.9,0,0,0-1.91-2l-4-1.32-.5-.06-3.65,1.69s7.37,3.19,8.89,2.64a10.27,10.27,0,0,0,2.16,3Z"/><path class="cls-54" d="M57.64,31l-1-3.94a2.89,2.89,0,0,0-1.72-2l.54,2.89A10.27,10.27,0,0,0,57.64,31Z"/><g class="cls-55"><path class="cls-56" d="M57.29,15.11A55.9,55.9,0,0,1,88.18,18.5a31.68,31.68,0,0,1,6.12,3.37,9.44,9.44,0,0,0-.41-1.65,6.29,6.29,0,0,0-2.41-2.54,37.55,37.55,0,0,0-5.88-2.32C75.93,12.44,66.74,12,57.29,15.11Z"/><path class="cls-57" d="M64.85,19.24c9.94-2.15,21.43,1.41,29.78,6.47a16.27,16.27,0,0,0-.08-2A34,34,0,0,0,64.85,19.24Z"/></g><g class="cls-55"><path class="cls-58" d="M91.11,20.64c-.08,0-.17,0-.11.06a.12.12,0,0,0,.09.11.21.21,0,0,0,.16,0s0,0-.07-.05,0,0,0,0S91.13,20.68,91.11,20.64Z"/><path class="cls-58" d="M89.57,20.93s-.09,0-.11-.06-.17,0-.11.06a.12.12,0,0,0,.09.11.21.21,0,0,0,.16,0s0,0-.07-.05S89.57,20.95,89.57,20.93Z"/><path class="cls-58" d="M87.54,19.81s0,0,0,0-.09,0-.11-.06-.17,0-.11.06a.12.12,0,0,0,.09.11.21.21,0,0,0,.16,0S87.57,19.83,87.54,19.81Z"/><path class="cls-58" d="M87.35,19.1s0,0,0,0-.09,0-.11-.06-.17,0-.11.06a.12.12,0,0,0,.09.11.21.21,0,0,0,.16,0S87.38,19.13,87.35,19.1Z"/><path class="cls-58" d="M90.88,21.61s.12,0,.08-.06,0-.07-.06-.11a.23.23,0,0,0-.13,0C90.76,21.51,90.82,21.56,90.88,21.61Z"/><path class="cls-58" d="M89.37,24s.12,0,.08-.06,0-.07-.06-.11a.23.23,0,0,0-.13,0C89.25,23.91,89.32,24,89.37,24Z"/><path class="cls-58" d="M91.42,21.09s0,0,0,.06l.07,0a.26.26,0,0,0,.22-.15l-.11,0S91.47,21,91.42,21.09Z"/><path class="cls-58" d="M91.5,21.2h0Z"/><path class="cls-58" d="M91.3,20.27c0,.06,0,.07.09.1s0-.05.07-.09-.06,0-.07-.06S91.23,20.2,91.3,20.27Z"/><path class="cls-58" d="M91.92,20.74s-.06,0-.07,0,0,.1.1.11l.19,0-.08-.09a.24.24,0,0,1-.05-.11A.06.06,0,0,0,91.92,20.74Z"/><path class="cls-58" d="M91.86,21.51s-.06,0-.07,0,0,.1.1.11l.19,0L92,21.56a.24.24,0,0,1-.05-.11A.06.06,0,0,0,91.86,21.51Z"/><path class="cls-58" d="M91.5,22s-.06,0-.07,0,0,.1.1.11l.19,0L91.64,22a.24.24,0,0,1-.05-.11A.06.06,0,0,0,91.5,22Z"/><path class="cls-58" d="M93.59,22.36c.1.05.08.07,0,.08s-.07,0,0,0,.07,0,.11-.06,0-.09-.06-.11S93.57,22.3,93.59,22.36Z"/><path class="cls-58" d="M92,20.34h0Z"/><path class="cls-58" d="M91,24.7a.13.13,0,0,0,0,.14.26.26,0,0,0,.16,0v0s.08,0,.11,0a.09.09,0,0,0-.06-.08.39.39,0,0,1-.1,0A.28.28,0,0,0,91,24.7Z"/><path class="cls-58" d="M92.4,25.06a.26.26,0,0,0,.16,0v0s.08,0,.11,0A.09.09,0,0,0,92.6,25a.39.39,0,0,1-.1,0,.28.28,0,0,0-.14,0A.13.13,0,0,0,92.4,25.06Z"/><path class="cls-58" d="M91.68,19.78l-.05,0a.1.1,0,0,0,.07,0Z"/><path class="cls-58" d="M91.7,19.59a.14.14,0,0,0,0,0S91.72,19.59,91.7,19.59Z"/><path class="cls-58" d="M91.7,19.62l-.11.05c.05,0,.07.06.1.1S91.7,19.68,91.7,19.62Z"/><path class="cls-58" d="M89.78,19.12c.05,0,.07.06.1.1s0-.1,0-.16Z"/><path class="cls-58" d="M80.88,18.53l-.11.05c.05,0,.07.06.1.1S80.88,18.58,80.88,18.53Z"/><path class="cls-58" d="M90.69,19.49c-.07,0-.06,0,0,0h0l-.1,0a.16.16,0,0,0,.17.07A.07.07,0,0,0,90.69,19.49Z"/><path class="cls-58" d="M91.84,18.67c.08,0,0-.11-.05-.16s-.14,0-.12,0S91.75,18.71,91.84,18.67Z"/><path class="cls-58" d="M91,22.56s-.14,0-.12,0,.08.17.17.13S91,22.6,91,22.56Z"/><path class="cls-58" d="M90.21,17.78s-.14,0-.12,0,.08.17.17.13S90.27,17.82,90.21,17.78Z"/><path class="cls-58" d="M90.29,18.62s-.14,0-.12,0,.08.17.17.13S90.35,18.67,90.29,18.62Z"/><path class="cls-58" d="M83.17,17.45s-.14,0-.12,0,.08.17.17.13S83.22,17.49,83.17,17.45Z"/><path class="cls-58" d="M92.72,19.74s-.05,0-.08,0-.12,0-.12,0a.24.24,0,0,0,.06.17C92.67,19.94,92.72,19.81,92.72,19.74Z"/><path class="cls-58" d="M91.47,24.42c-.11,0-.12,0-.12,0a.24.24,0,0,0,.06.17c.08.06.14-.08.14-.14S91.49,24.46,91.47,24.42Z"/><path class="cls-58" d="M92.71,23.1c-.11,0-.12,0-.12,0a.24.24,0,0,0,.06.17c.08.06.14-.08.14-.14S92.73,23.14,92.71,23.1Z"/><path class="cls-58" d="M91.45,23.56c-.11,0-.12,0-.12,0a.24.24,0,0,0,.06.17c.08.06.14-.08.14-.14S91.47,23.59,91.45,23.56Z"/><path class="cls-58" d="M92,22.82c-.11,0-.12,0-.12,0a.24.24,0,0,0,.06.17c.08.06.14-.08.14-.14S92,22.86,92,22.82Z"/><path class="cls-58" d="M92.52,23.85c-.11,0-.12,0-.12,0a.24.24,0,0,0,.06.17c.08.06.14-.08.14-.14S92.54,23.88,92.52,23.85Z"/><path class="cls-58" d="M90.94,23.07s.13,0,.06.13c.11-.05.12-.08.05-.19S91,23.05,90.94,23.07Z"/><path class="cls-58" d="M91.29,24.09c-.1-.08,0-.09-.07-.11s-.13,0-.12.06-.13.05.07.11A.33.33,0,0,1,91.29,24.09Z"/><path class="cls-58" d="M91.65,24.17c.09.08-.13.05.07.11a.33.33,0,0,1,.12-.06c-.1-.08,0-.09-.07-.11S91.64,24.12,91.65,24.17Z"/><path class="cls-58" d="M91.1,25.36c.09.08-.13.05.07.11a.33.33,0,0,1,.12-.06c-.1-.08,0-.09-.07-.11S91.09,25.31,91.1,25.36Z"/><path class="cls-58" d="M92.9,23.8c.09.08-.13.05.07.11a.33.33,0,0,1,.12-.06c-.1-.08,0-.09-.07-.11S92.89,23.75,92.9,23.8Z"/><path class="cls-58" d="M93.23,23.34c.09.08-.13.05.07.11a.33.33,0,0,1,.12-.06c-.1-.08,0-.09-.07-.11S93.22,23.28,93.23,23.34Z"/><path class="cls-58" d="M87,23.68s-.05,0-.08,0-.12,0-.12,0a.24.24,0,0,0,.06.17C86.91,23.88,87,23.74,87,23.68Z"/><path class="cls-58" d="M87.44,23.24c-.11,0-.12,0-.12,0a.24.24,0,0,0,.06.17c.08.06.14-.08.14-.14S87.46,23.28,87.44,23.24Z"/><path class="cls-58" d="M82.67,22.24c-.09,0-.1,0-.1,0a.2.2,0,0,0,0,.14c.07,0,.12-.07.12-.12S82.69,22.27,82.67,22.24Z"/><path class="cls-58" d="M86.92,22.75s.13,0,.06.13c.11-.05.12-.08.05-.19S87,22.73,86.92,22.75Z"/><path class="cls-58" d="M81,22.81s.13,0,.06.13c.11-.05.12-.08.05-.19S81.1,22.78,81,22.81Z"/><path class="cls-58" d="M87.28,23.77c-.1-.08,0-.09-.07-.11s-.13,0-.12.06-.13.05.07.11A.33.33,0,0,1,87.28,23.77Z"/><path class="cls-58" d="M84.76,23.17c-.08,0-.13,0-.12.06s-.13.05.07.11a.33.33,0,0,1,.12-.06C84.72,23.2,84.84,23.2,84.76,23.17Z"/><path class="cls-58" d="M87.64,23.85c.09.08-.13.05.07.11a.33.33,0,0,1,.12-.06c-.1-.08,0-.09-.07-.11S87.63,23.8,87.64,23.85Z"/><path class="cls-58" d="M91.51,25.1c-.06,0-.05.08.06.11s.13,0,.11-.06a.36.36,0,0,0-.06-.11S91.45,25,91.51,25.1Z"/><path class="cls-58" d="M91.24,20.1a.11.11,0,0,0,0-.17s-.09,0-.12,0a0,0,0,0,0,0,.09S91.19,20.14,91.24,20.1Z"/><path class="cls-58" d="M91.36,18.32a0,0,0,0,0,0,.09s.08.09.12,0a.11.11,0,0,0,0-.17S91.39,18.29,91.36,18.32Z"/><path class="cls-58" d="M85.5,19.86s.08.09.12,0a.11.11,0,0,0,0-.17s-.09,0-.12,0A0,0,0,0,0,85.5,19.86Z"/><path class="cls-58" d="M90.2,19a0,0,0,0,0,0,.09s.08.09.12,0a.11.11,0,0,0,0-.17S90.23,19,90.2,19Z"/><path class="cls-58" d="M89.45,18.48s-.09,0-.12,0a0,0,0,0,0,0,.09s.08.09.12,0A.11.11,0,0,0,89.45,18.48Z"/><path class="cls-58" d="M88.19,19a.11.11,0,0,0,0-.17s-.09,0-.12,0a0,0,0,0,0,0,.09S88.14,19,88.19,19Z"/><path class="cls-58" d="M91.24,19.93h0Z"/><path class="cls-58" d="M90.65,21h0Z"/><path class="cls-58" d="M90.69,21c-.07,0-.1-.07-.1-.09l-.06,0c-.05,0,0,.05.07.09l.05,0S90.64,21,90.69,21Z"/><path class="cls-58" d="M90.64,20.86s-.05,0,0,0S90.66,20.87,90.64,20.86Z"/><path class="cls-58" d="M91.21,19.47s-.05,0,0,.06,0,0,.08,0-.05,0,0,0l.13,0s0-.09,0-.11S91.16,19.42,91.21,19.47Z"/><path class="cls-58" d="M90.28,22.78s-.05,0,0,.06,0,0,.08,0-.05,0,0,0l.13,0s0-.09,0-.11S90.23,22.72,90.28,22.78Z"/><path class="cls-58" d="M89.49,22.56s-.05,0,0,.06,0,0,.08,0-.05,0,0,0l.13,0s0-.09,0-.11S89.45,22.51,89.49,22.56Z"/><path class="cls-58" d="M91.2,18.88h0s0,0,0,0S91.17,18.85,91.2,18.88Z"/><path class="cls-58" d="M91.2,19.08s0,0,0-.06l0,0S91.12,19.07,91.2,19.08Z"/><path class="cls-58" d="M80.34,17.77c-.06,0,0,0,0,0h0S80.37,17.77,80.34,17.77Z"/><path class="cls-58" d="M80.3,17.94l0,0s0,0,.06,0S80.33,18,80.3,17.94Z"/><path class="cls-58" d="M88.57,18.19l-.1.07.05.07.11-.05S88.6,18.21,88.57,18.19Z"/><path class="cls-58" d="M82,16.06l-.1.07.05.07.11-.05S82.08,16.08,82,16.06Z"/><path class="cls-58" d="M81.29,17.14l-.1.07.05.07.11-.05S81.32,17.16,81.29,17.14Z"/><path class="cls-58" d="M86.81,19.23l.11,0s0-.06-.07-.08l-.1.07Z"/><path class="cls-58" d="M80.46,19.94l-.1.07.05.07.11,0S80.49,20,80.46,19.94Z"/><path class="cls-58" d="M91.87,19.2v0h-.13a.14.14,0,0,0-.1.05s.09.05.14.06.16,0,.16-.09-.08-.06-.11-.09S91.85,19.17,91.87,19.2Z"/><path class="cls-58" d="M91,18.39v0h-.14a.15.15,0,0,0-.11.05s.1.06.15.06.17,0,.18-.09-.09-.06-.13-.09S91,18.36,91,18.39Z"/><path class="cls-58" d="M88.54,17.55s-.08-.06-.11-.09,0,0,0,0v0h-.13a.14.14,0,0,0-.1.05s.09.05.14.06S88.53,17.62,88.54,17.55Z"/><path class="cls-58" d="M90,18s-.08-.06-.11-.09,0,0,0,0v0h-.13a.14.14,0,0,0-.1.05s.09.05.14.06S90,18,90,18Z"/><path class="cls-58" d="M91.21,20.91c-.08,0-.14,0-.12,0s-.05.08,0,.12.06,0,.12,0S91.35,21,91.21,20.91Z"/><path class="cls-58" d="M84,20.14s-.15,0-.08,0,0,.06.08.08,0,0,.06-.08S84,20.16,84,20.14Z"/><path class="cls-58" d="M84.21,19.78h.06v0Z"/><path class="cls-58" d="M84.27,19.61v0S84.28,19.61,84.27,19.61Z"/><path class="cls-58" d="M84.26,19.63l-.09,0s.06.05.08.09S84.26,19.68,84.26,19.63Z"/><path class="cls-58" d="M82.7,16.46l-.09,0s.06.05.08.09S82.7,16.5,82.7,16.46Z"/><path class="cls-58" d="M83.41,19.52c-.06,0-.05,0,0,0h0l-.09,0a.13.13,0,0,0,.14.06A.06.06,0,0,0,83.41,19.52Z"/><path class="cls-58" d="M80.65,21.62c-.06,0-.05,0,0,0h0l-.09,0a.13.13,0,0,0,.14.06A.06.06,0,0,0,80.65,21.62Z"/><path class="cls-58" d="M83.88,19.89s-.07,0-.1,0a0,0,0,0,0,0,.07s.06.07.1,0A.09.09,0,0,0,83.88,19.89Z"/><path class="cls-58" d="M81.77,21.34s-.07,0-.1,0a0,0,0,0,0,0,.07s.06.07.1,0A.09.09,0,0,0,81.77,21.34Z"/><path class="cls-58" d="M83.88,19.89h0Z"/><path class="cls-58" d="M82.54,17.18h0Z"/><path class="cls-58" d="M85.11,18.16l.11,0s0-.08,0-.1-.12,0-.08.07,0,0,0,0,0,0,.07,0S85.09,18.17,85.11,18.16Z"/><path class="cls-58" d="M83.59,18.36l.11,0s0-.08,0-.1-.12,0-.08.07,0,0,0,0,0,0,.07,0S83.57,18.37,83.59,18.36Z"/><path class="cls-58" d="M82.24,18.23l.11,0s0-.08,0-.1-.12,0-.08.07,0,0,0,0,0,0,.07,0S82.22,18.24,82.24,18.23Z"/><path class="cls-58" d="M83.52,20.18c-.06,0,0,.07,0,.1s.05,0,.1,0,.1,0,0-.1S83.51,20.14,83.52,20.18Z"/><path class="cls-58" d="M88.55,22.18c-.07,0-.05.08,0,.12s.06,0,.12,0,.12,0,0-.12S88.53,22.12,88.55,22.18Z"/><path class="cls-58" d="M90.29,20.45c-.08,0,0,.09,0,.12s.2-.07.15-.11S90.35,20.35,90.29,20.45Z"/><path class="cls-58" d="M89.9,21.28s-.12-.11-.17,0,0,.09,0,.12S90,21.33,89.9,21.28Z"/><path class="cls-58" d="M89.34,22.17c-.08,0,0,.09,0,.12s.2-.07.15-.11S89.39,22.06,89.34,22.17Z"/><path class="cls-58" d="M86.85,18.36c.06,0,.11,0,.18,0a.06.06,0,0,0,0-.05l.08,0c-.07-.12-.19-.08-.3-.11l.06.05C86.7,18.26,86.86,18.35,86.85,18.36Z"/><path class="cls-58" d="M87.27,20.5l.06.05c-.13,0,0,.1,0,.11s.11,0,.18,0a.06.06,0,0,0,0-.05l.08,0C87.5,20.5,87.38,20.53,87.27,20.5Z"/><path class="cls-58" d="M88.82,19.71c.06,0,.11,0,.18,0a.06.06,0,0,0,0-.05l.08,0c-.07-.12-.19-.08-.3-.11l.06.05C88.67,19.61,88.82,19.69,88.82,19.71Z"/><path class="cls-58" d="M86.46,21.7a.06.06,0,0,0,0-.05l.08,0c-.07-.12-.19-.08-.3-.11l.06.05c-.13,0,0,.1,0,.11S86.39,21.71,86.46,21.7Z"/><path class="cls-58" d="M88.95,20.55a.06.06,0,0,0,0-.05l.08,0c-.07-.12-.19-.08-.3-.11l.06.05c-.13,0,0,.1,0,.11S88.88,20.56,88.95,20.55Z"/><path class="cls-58" d="M88.27,20l.06.05c-.13,0,0,.1,0,.11s.11,0,.18,0a.06.06,0,0,0,0-.05l.08,0C88.5,20,88.38,20,88.27,20Z"/><path class="cls-58" d="M86.24,20.72a.06.06,0,0,0,0-.05l.08,0c-.07-.12-.19-.08-.3-.11l.06.05c-.13,0,0,.1,0,.11S86.17,20.74,86.24,20.72Z"/><path class="cls-58" d="M84.87,20.83c-.13,0,0,.1,0,.11s.11,0,.18,0a.06.06,0,0,0,0-.05l.08,0c-.07-.12-.19-.08-.3-.11Z"/><path class="cls-58" d="M84.19,22.19c-.13,0,0,.1,0,.11s.11,0,.18,0a.06.06,0,0,0,0-.05l.08,0c-.07-.12-.19-.08-.3-.11Z"/><path class="cls-58" d="M82.38,20.28a.05.05,0,0,0,0,0l.07,0c-.06-.1-.16-.07-.25-.1l0,0c-.11,0,0,.08,0,.09S82.33,20.29,82.38,20.28Z"/><path class="cls-58" d="M90.3,20s0,0,0-.06.05,0-.06-.06.06,0-.13,0,.07.12,0,.13S90.39,20,90.3,20Z"/><path class="cls-58" d="M85.85,18.26s.21.05.13,0,0,0,0-.06.05,0-.06-.06.06,0-.13,0S85.89,18.25,85.85,18.26Z"/><path class="cls-58" d="M85.35,17.31s0,0,0-.06.05,0-.06-.06.06,0-.13,0,.07.12,0,.13S85.43,17.38,85.35,17.31Z"/><path class="cls-58" d="M88.41,21.63a.12.12,0,0,0,.09.11.21.21,0,0,0,.16,0s0,0-.07-.05,0,0,0,0-.09,0-.11-.06S88.35,21.56,88.41,21.63Z"/><path class="cls-58" d="M88.71,21.21c0,.06,0,.07.09.1s0-.05.07-.09-.06,0-.07-.06S88.64,21.13,88.71,21.21Z"/><path class="cls-58" d="M88.54,20.9a0,0,0,0,0,0,.09s.08.09.12,0a.11.11,0,0,0,0-.17S88.57,20.87,88.54,20.9Z"/><path class="cls-58" d="M88,22h0Z"/><path class="cls-58" d="M88,21.82l-.06,0c-.05,0,0,.05.07.09l.05,0s0,0,0-.07S88,21.84,88,21.82Z"/><path class="cls-58" d="M82,18.93c-.07,0-.1-.07-.1-.09l-.06,0c-.05,0,0,.05.07.09L82,19S82,19,82,18.93Z"/><path class="cls-58" d="M81.17,16.35l-.06,0c-.05,0,0,.05.07.09l.05,0s0,0,0-.07S81.17,16.37,81.17,16.35Z"/><path class="cls-58" d="M78.25,15.43l-.11.05c.05,0,.07.06.1.1S78.25,15.48,78.25,15.43Z"/><path class="cls-58" d="M80.54,14.35s-.14,0-.12,0,.08.17.17.13S80.59,14.39,80.54,14.35Z"/><path class="cls-58" d="M80,19.14c-.09,0-.1,0-.1,0a.2.2,0,0,0,0,.14c.07,0,.12-.07.12-.12S80.05,19.17,80,19.14Z"/><path class="cls-58" d="M77.71,14.67c-.06,0,0,0,0,0h0S77.74,14.67,77.71,14.67Z"/><path class="cls-58" d="M77.66,14.84l0,0s0,0,.06,0S77.7,14.88,77.66,14.84Z"/><path class="cls-58" d="M79.42,13l-.1.07.05.07.11,0S79.45,13,79.42,13Z"/><path class="cls-58" d="M78.66,14l-.1.07.05.07.11-.05S78.69,14.06,78.66,14Z"/><path class="cls-58" d="M77.83,16.84l-.1.07.05.07.11-.05S77.86,16.86,77.83,16.84Z"/><path class="cls-58" d="M80.06,13.36l-.09,0s.06.05.08.09S80.06,13.4,80.06,13.36Z"/><path class="cls-58" d="M80.78,16.42c-.06,0-.05,0,0,0h0l-.09,0a.13.13,0,0,0,.14.06A.06.06,0,0,0,80.78,16.42Z"/><path class="cls-58" d="M78,18.52c-.06,0-.05,0,0,0h0l-.09,0a.13.13,0,0,0,.14.06A.06.06,0,0,0,78,18.52Z"/><path class="cls-58" d="M79.14,18.24s-.07,0-.1,0a0,0,0,0,0,0,.07s.06.07.1,0A.09.09,0,0,0,79.14,18.24Z"/><path class="cls-58" d="M79.91,14.08h0Z"/><path class="cls-58" d="M81,15.26l.11,0s0-.08,0-.1-.12,0-.08.07,0,0,0,0,0,0,.07,0S80.94,15.27,81,15.26Z"/><path class="cls-58" d="M79.61,15.14l.11,0s0-.08,0-.1-.12,0-.08.07,0,0,0,0,0,0,.07,0S79.59,15.15,79.61,15.14Z"/><path class="cls-58" d="M80.89,17.08c-.06,0,0,.07,0,.1s.05,0,.1,0,.1,0,0-.1S80.87,17,80.89,17.08Z"/><path class="cls-58" d="M79.75,17.18a.05.05,0,0,0,0,0l.07,0c-.06-.1-.16-.07-.25-.1l0,0c-.11,0,0,.08,0,.09S79.69,17.19,79.75,17.18Z"/><path class="cls-58" d="M77.36,23.34c-.09,0-.1,0-.1,0a.2.2,0,0,0,0,.14c.07,0,.12-.07.12-.12S77.38,23.38,77.36,23.34Z"/><path class="cls-58" d="M75.15,21l-.1.07.05.07.11,0S75.18,21.07,75.15,21Z"/><path class="cls-58" d="M75.34,22.73c-.06,0-.05,0,0,0h0l-.09,0a.13.13,0,0,0,.14.06A.06.06,0,0,0,75.34,22.73Z"/><path class="cls-58" d="M76.46,22.45s-.07,0-.1,0a0,0,0,0,0,0,.07s.06.07.1,0A.09.09,0,0,0,76.46,22.45Z"/><path class="cls-58" d="M77.07,21.39a.05.05,0,0,0,0,0l.07,0c-.06-.1-.16-.07-.25-.1l0,0c-.11,0,0,.08,0,.09S77,21.4,77.07,21.39Z"/><path class="cls-58" d="M79.41,15.83c-.07,0-.1-.07-.1-.09l-.06,0c-.05,0,0,.05.07.09l.05,0S79.36,15.85,79.41,15.83Z"/><path class="cls-58" d="M78.53,13.25l-.06,0c-.05,0,0,.05.07.09l.05,0s0,0,0-.07S78.54,13.27,78.53,13.25Z"/><path class="cls-58" d="M88,21.8s-.05,0,0,0S88.07,21.81,88,21.8Z"/><path class="cls-58" d="M88.35,21.19c-.08,0-.14,0-.12,0s-.05.08,0,.12.06,0,.12,0S88.49,21.26,88.35,21.19Z"/><path class="cls-58" d="M89.72,20.21c0-.06,0-.05.07-.09s-.06,0-.07-.06-.17,0-.1.06S89.68,20.18,89.72,20.21Z"/><path class="cls-58" d="M89.57,19.76s-.09,0-.12,0a0,0,0,0,0,0,.09s.08.09.12,0A.11.11,0,0,0,89.57,19.76Z"/><path class="cls-58" d="M87.54,17.58s.08.09.12,0a.11.11,0,0,0,0-.17s-.09,0-.12,0A0,0,0,0,0,87.54,17.58Z"/><path class="cls-58" d="M89.06,19s-.09,0-.12,0a0,0,0,0,0,0,.09s.08.09.12,0A.11.11,0,0,0,89.06,19Z"/><path class="cls-58" d="M82.91,23.4a0,0,0,0,0,0,.09s.08.09.12,0a.11.11,0,0,0,0-.17S82.94,23.37,82.91,23.4Z"/><path class="cls-58" d="M89.17,20.23c.05,0,.06,0,.12,0s.12,0,0-.12-.14,0-.12,0S89.1,20.19,89.17,20.23Z"/><path class="cls-58" d="M87.7,21.39c-.08,0,0,.09,0,.12s.2-.07.15-.11S87.76,21.28,87.7,21.39Z"/><path class="cls-58" d="M84.61,22.39c-.13,0,0,.1,0,.11s.11,0,.18,0a.06.06,0,0,0,0-.05l.08,0c-.07-.12-.19-.08-.3-.11Z"/><path class="cls-58" d="M86.36,21.48a.06.06,0,0,0,0-.05l.08,0c-.07-.12-.19-.08-.3-.11l.06.05c-.13,0,0,.1,0,.11S86.29,21.5,86.36,21.48Z"/><path class="cls-58" d="M81.4,20.65s0,0,0,0-.09,0-.11-.06-.17,0-.11.06a.12.12,0,0,0,.09.11.21.21,0,0,0,.16,0S81.42,20.68,81.4,20.65Z"/><path class="cls-58" d="M81.2,19.95s0,0,0,0-.09,0-.11-.06-.17,0-.11.06a.12.12,0,0,0,.09.11.21.21,0,0,0,.16,0S81.23,20,81.2,19.95Z"/><path class="cls-58" d="M79.35,20.7s.08.09.12,0a.11.11,0,0,0,0-.17s-.09,0-.12,0A0,0,0,0,0,79.35,20.7Z"/><path class="cls-58" d="M80.66,20.08l.11,0s0-.06-.07-.08l-.1.07Z"/><path class="cls-58" d="M81.13,21.34l.06.05c-.13,0,0,.1,0,.11s.11,0,.18,0a.06.06,0,0,0,0-.05l.08,0C81.36,21.34,81.23,21.37,81.13,21.34Z"/><path class="cls-58" d="M80.32,22.54a.06.06,0,0,0,0-.05l.08,0c-.07-.12-.19-.08-.3-.11l.06.05c-.13,0,0,.1,0,.11S80.25,22.55,80.32,22.54Z"/><path class="cls-58" d="M80.09,21.57a.06.06,0,0,0,0-.05l.08,0c-.07-.12-.19-.08-.3-.11l.06.05c-.13,0,0,.1,0,.11S80,21.58,80.09,21.57Z"/><path class="cls-58" d="M78.73,21.67c-.13,0,0,.1,0,.11s.11,0,.18,0a.06.06,0,0,0,0-.05l.08,0c-.07-.12-.19-.08-.3-.11Z"/><path class="cls-58" d="M81.56,22.23c-.08,0,0,.09,0,.12s.2-.07.15-.11S81.61,22.12,81.56,22.23Z"/><path class="cls-58" d="M80.21,22.33a.06.06,0,0,0,0-.05l.08,0c-.07-.12-.19-.08-.3-.11l.06.05c-.13,0,0,.1,0,.11S80.14,22.34,80.21,22.33Z"/><path class="cls-58" d="M83.61,21.06l0,0c-.11,0,0,.08,0,.09s.1,0,.16,0a.05.05,0,0,0,0,0l.07,0C83.81,21.05,83.7,21.08,83.61,21.06Z"/><path class="cls-58" d="M84.68,14.88s.08.09.12,0a.11.11,0,0,0,0-.17s-.09,0-.12,0A0,0,0,0,0,84.68,14.88Z"/><path class="cls-58" d="M83.19,15.15s-.15,0-.08,0,0,.06.08.08,0,0,.06-.08S83.2,15.18,83.19,15.15Z"/><path class="cls-58" d="M83.39,14.8h.06v0Z"/><path class="cls-58" d="M83.44,14.62a.12.12,0,0,0,0,0S83.46,14.63,83.44,14.62Z"/><path class="cls-58" d="M83.44,14.65l-.09,0s.06.05.08.09S83.44,14.7,83.44,14.65Z"/><path class="cls-58" d="M82.59,14.54c-.06,0-.05,0,0,0h0l-.09,0a.13.13,0,0,0,.14.06A.06.06,0,0,0,82.59,14.54Z"/><path class="cls-58" d="M83.05,14.91s-.07,0-.1,0A0,0,0,0,0,83,15s.06.07.1,0A.09.09,0,0,0,83.05,14.91Z"/><path class="cls-58" d="M83.05,14.91h0Z"/><path class="cls-58" d="M83,14.58l.11,0s0-.08,0-.1-.12,0-.08.07,0,0,0,0,0,0,.07,0S83,14.59,83,14.58Z"/><path class="cls-58" d="M82.7,15.2c-.06,0,0,.07,0,.1s.05,0,.1,0,.1,0,0-.1S82.69,15.16,82.7,15.2Z"/><path class="cls-58" d="M85.64,16.72a.06.06,0,0,0,0-.05l.08,0c-.07-.12-.19-.08-.3-.11l.06.05c-.13,0,0,.1,0,.11S85.57,16.73,85.64,16.72Z"/><path class="cls-58" d="M85.42,15.74a.06.06,0,0,0,0-.05l.08,0c-.07-.12-.19-.08-.3-.11l.06.05c-.13,0,0,.1,0,.11S85.35,15.76,85.42,15.74Z"/><path class="cls-58" d="M84.05,15.85c-.13,0,0,.1,0,.11s.11,0,.18,0a.06.06,0,0,0,0-.05l.08,0c-.07-.12-.19-.08-.3-.11Z"/><path class="cls-58" d="M85.54,16.5a.06.06,0,0,0,0-.05l.08,0c-.07-.12-.19-.08-.3-.11l.06.05c-.13,0,0,.1,0,.11S85.47,16.52,85.54,16.5Z"/><path class="cls-58" d="M82.79,16.08l0,0c-.11,0,0,.08,0,.09s.1,0,.16,0a.05.05,0,0,0,0,0l.07,0C83,16.07,82.88,16.1,82.79,16.08Z"/><path class="cls-58" d="M84.17,22.56s.05,0-.06-.06.06,0-.13,0,.07.12,0,.13.21.05.13,0S84.13,22.57,84.17,22.56Z"/></g><path class="cls-59" d="M56.54,11.27a2.38,2.38,0,0,0-.86,1.52,15.84,15.84,0,0,0-.19,2.94c5,1.43,46.31,9.94,35,1.32C82.31,12,62.12,6.88,56.54,11.27Z"/><path class="cls-60" d="M54.31,17.28c-.39-2.74-.31-4.14-.09-4.89a2.86,2.86,0,0,1-.65-.14A13.08,13.08,0,0,0,53.69,17s-1.05,4.2-3.55,6.29l-.26,1.05C53,22.71,54.31,17.28,54.31,17.28Z"/><path class="cls-61" d="M54.73,11c-1.17-1.1-2.82-1.91-4.08-3a42.53,42.53,0,0,0-4-3.22,16.52,16.52,0,0,0-6.5-2.56,1.23,1.23,0,0,0-.32.64c-.2,1.88,2,4.54,2,6.45a6.4,6.4,0,0,1-.64,2.54.34.34,0,0,1-.14.29A6.83,6.83,0,0,1,39,14.73c-1,1.47-1.91,3-2.82,4.52-.81,1.37-1.34,2.88-3,3.42a4.62,4.62,0,0,1-2.54.09,12.1,12.1,0,0,1-2.06-2.17C25.13,15.85,22.85,9.94,23.24,4A9.68,9.68,0,0,0,23.17.76a1.18,1.18,0,0,0-.31-.58.94.94,0,0,0-1.23.13A2.55,2.55,0,0,0,21,1.52,28.2,28.2,0,0,0,21,15a39.73,39.73,0,0,0,2.17,6.65c.71,1.67,1.46,4.1,2.61,5.48.53.64,1.54.69,2,1.32,1.26,1.64-.51,4.25,1.16,5.91a2.28,2.28,0,0,0,1.85.64c1.52-.18,2.57-1.6,4.07-1.89.47-.09,3.21.4,3.21-.39,0-.35,3.5-2.75,6.71-5.08,1.43-1,2.58-2.8,3.72-3.11,3.69-1,5.3-7.46,5.3-7.46-.31-2.12-.78-4.45.8-6Z"/><path class="cls-62" d="M42.62,24.31c0-1.12-1.91-2.61-3.1-1.58a1.72,1.72,0,0,1,1,1.58c.21.3-.16,1.36-.29,1.77C41.52,25.7,42.62,25.39,42.62,24.31Z"/><path class="cls-63" d="M47.6,12.15A2.9,2.9,0,0,1,47.3,14a1.21,1.21,0,0,0,.63,1.66c1.08.42,2.54.86,3.21.54,0,0,1.35-.21,1.21.95-.08.65.61.77,1.24.74.18-.54.26-.88.26-.88-.41-2.85-.31-4.25-.06-5a6.21,6.21,0,0,0-5.36-1.27A1.18,1.18,0,0,0,47.6,12.15Z"/><path class="cls-64" d="M40.21,4.72c.14.39.32.78.5,1.18,1.52.57,2.71,1,2.91.82A28.54,28.54,0,0,0,40.21,4.72Z"/><path class="cls-65" d="M44.69,14.14a9,9,0,0,1-1.17-2.07.73.73,0,0,1,.49-1h0A6.55,6.55,0,0,0,41.38,7.4a5.37,5.37,0,0,1,.49,1.92,6.4,6.4,0,0,1-.64,2.54.33.33,0,0,1-.14.28A6.83,6.83,0,0,1,39,14.73c-.92,1.37-1.95,3-2.87,4.6A11.68,11.68,0,0,0,40.36,19C45,17.42,44.69,14.14,44.69,14.14Z"/><path class="cls-66" d="M35.31,22.57c3.31,2.77,0,2.62,4.16,5.46.3-.77.58-1.52.78-2.14v0a5.5,5.5,0,0,0,.28-1.23.92.92,0,0,0,0-.16h0a.35.35,0,0,0-.05-.14,1.44,1.44,0,0,0,0-.28V23.9a1.37,1.37,0,0,0,0-.14l0-.09,0-.07-.05-.1,0-.07-.06-.09-.09-.12-.1-.1,0,0L39.9,23l-.12-.1,0,0-.07,0-.15-.1-.08,0-.21-.12-.13-.07-.24-.11-.14-.06-.27-.11-.14,0-.3-.1-.12,0-.34-.1-.13,0-.36-.09-.1,0-.41-.09-.08,0L36,21.58h-.08l-.46-.08h0l-.51-.08h0l-.21.37A3.22,3.22,0,0,0,35.31,22.57Z"/><path class="cls-67" d="M54.51,11c-.29.3-1.66,0-.8,5.9,0,0-1.61,6.46-5.3,7.46-.72.2-1.37,1.08-2.12,2a6.5,6.5,0,0,1,2.27-1.81c3.69-1,5.3-7.46,5.3-7.46-.89-6.18.64-5.56.84-5.94Z"/><path class="cls-68" d="M34.27,24.76s1.33-2.1,1.92-1.93c.44.12-.77-.73-1.41-1.18l-1,1.81a2.15,2.15,0,0,1-1.12,1,8.61,8.61,0,0,1-1.51.4A18.77,18.77,0,0,1,34.27,24.76Z"/><ellipse class="cls-69" cx="35.64" cy="25.19" rx="0.66" ry="0.39" transform="translate(-3.87 43.73) rotate(-60.4)"/><path class="cls-70" d="M35.78,24.8c.19.11.19.45,0,.76l-.07.11a1,1,0,0,0,.25-.3c.18-.32.17-.66,0-.76s-.41,0-.59.27A.38.38,0,0,1,35.78,24.8Z"/><path class="cls-71" d="M48.26,25.84c-1.83-2.28-3.09,1-3.49,2.54,2.91-.37,4.06.55,4.5,1.47C50.32,28.52,48.26,25.84,48.26,25.84Z"/><path class="cls-72" d="M45.86,25.85c.81,1.55,2.26,2.45,3.55,2.15a8.12,8.12,0,0,0-1.15-2.15C47.28,24.63,46.47,25,45.86,25.85Z"/><path class="cls-73" d="M38.3,30.87s2.63.59,1.31,2.82c0,0-.43,2.17,2.19.38,0,0,2.66.69,3.91.33A11.93,11.93,0,0,0,49,31.91a1.62,1.62,0,0,0,.45-1.54c-.26-1.08-1.29-2.54-5.09-1.92A18.5,18.5,0,0,0,38.3,30.87Z"/><path class="cls-74" d="M39.93,32.95a2.77,2.77,0,0,1-.32.74s-.43,2.17,2.19.38c0,0,2.66.69,3.91.33A11.93,11.93,0,0,0,49,31.91a1.64,1.64,0,0,0,.49-1C47,29.33,42.67,31.34,39.93,32.95Z"/><path class="cls-6" d="M43.6,29.47a7.43,7.43,0,0,1,5.67.39c-.46-1-1.69-1.94-4.91-1.42a18.5,18.5,0,0,0-6.06,2.43,2.86,2.86,0,0,1,.36.12C40.48,30.34,42.34,29.89,43.6,29.47Z"/><path class="cls-6" d="M1.5,50.38a1.22,1.22,0,0,1,0-.56,7,7,0,0,1,.73-1.63A23.9,23.9,0,0,1,3.7,46h0l.23-.42.22.13-.28.45h0l0,.05c-.27.45-.67,1.13-1,1.84A13,13,0,0,0,2,49.79a2,2,0,0,0-.13.58.37.37,0,0,0,0,.15l0,0,0,0a.36.36,0,0,1,0-.15,2,2,0,0,1,.1-.59A13,13,0,0,1,2.68,48l.38-.77c-.22.3-.46.64-.68,1a7,7,0,0,0-.8,1.56,1.22,1.22,0,0,0-.06.55.56.56,0,0,0,.07.18A.55.55,0,0,1,1.5,50.38Z"/><path class="cls-7" d="M25.15,41.75c-.48,0-1.32.23-1.32.23-.11.19.08.44.08.44S22.65,42,22.65,42c.61-.27-.11-1.22-.11-1.22a4.88,4.88,0,0,1,2.56-.42h0A1.22,1.22,0,0,1,25.15,41.75Z"/><path class="cls-7" d="M18.86,41.08c1.24-.74,3.79-.2,3.79-.2.14.22.35.63.2.9a9.4,9.4,0,0,0-1.81.46,2.51,2.51,0,0,1-1.58.2C19.62,42.18,18.86,41.08,18.86,41.08Z"/><path class="cls-7" d="M14.59,41.76c1.09-.75,3.63-.57,4.39-.5a3.25,3.25,0,0,1,.5,1,14,14,0,0,0-3.72,1.23C16,43,14.59,41.76,14.59,41.76Z"/><path class="cls-7" d="M11,42.81a14.77,14.77,0,0,1,3.86-.8,3.45,3.45,0,0,1,.91,1.27,19.44,19.44,0,0,0-3.78,2C12.6,44.58,11,42.81,11,42.81Z"/><path class="cls-7" d="M11.52,43.49a15.32,15.32,0,0,1-4.24-.07,1.13,1.13,0,0,0-.39,0c-.61.11-2.42.48-2.84,1.07,0,0,.59,2-.11,2.51,0,0,1.55-.77,3-1.4a12.76,12.76,0,0,1,3.94-1,8.75,8.75,0,0,1,1.22,0A3.79,3.79,0,0,0,11.52,43.49Z"/><path class="cls-7" d="M1.09,51.59l.08-.11c-.72-2-.51-3.79,2-5.21a2.71,2.71,0,0,0,1.18.11,5.86,5.86,0,0,0-.24-1.89C.52,45.47-1.3,49.21,1.09,51.59Z"/><path class="cls-75" d="M22.6,40.82l-.06-.09a4.88,4.88,0,0,1,2.56-.42h0a1.37,1.37,0,0,1,.16.27A16.07,16.07,0,0,0,22.6,40.82Z"/><path class="cls-76" d="M19.5,41.15l-.53.1-.11-.17c1.24-.74,3.79-.2,3.79-.2l0,0A15.13,15.13,0,0,0,19.5,41.15Z"/><path class="cls-77" d="M16.76,41.63a17.83,17.83,0,0,0-1.86.42l-.31-.3c1.09-.75,3.63-.57,4.39-.5l.08.13A16.65,16.65,0,0,0,16.76,41.63Z"/><path class="cls-78" d="M11.35,43.25c-.2-.27-.37-.44-.37-.44a14.77,14.77,0,0,1,3.86-.8l.17.18A16,16,0,0,0,11.35,43.25Z"/><path class="cls-12" d="M22.49,40.85l.15,0c.14.22.35.63.2.9h-.09C22.88,41.49,22.62,41,22.49,40.85Z"/><path class="cls-12" d="M18.83,41.25H19a3.25,3.25,0,0,1,.5,1l-.11,0A3.59,3.59,0,0,0,18.83,41.25Z"/><path class="cls-12" d="M14.85,42a3.45,3.45,0,0,1,.91,1.27l-.15,0A3.59,3.59,0,0,0,14.68,42Z"/><path class="cls-6" d="M1.55,47a2.76,2.76,0,0,1,3.31-.82,2.39,2.39,0,0,1-1.73.07c-2.4,1.38-2.67,3.14-2,5.06l-.05-.05A3.31,3.31,0,0,1,1.55,47Z"/><path class="cls-6" d="M23.31,41.87a14.56,14.56,0,0,1,1.94-.34,1.79,1.79,0,0,1-.11.22c-.48,0-1.32.23-1.32.23-.11.19.08.44.08.44s-.84-.26-1.13-.41Z"/><path class="cls-6" d="M20.92,41.92a14.53,14.53,0,0,1,2-.35.43.43,0,0,1,0,.21,9.4,9.4,0,0,0-1.81.46,2.51,2.51,0,0,1-1.58.2.18.18,0,0,0,0-.09C19.93,42.19,20.42,42,20.92,41.92Z"/><path class="cls-6" d="M18.29,42.3c.38-.09.76-.17,1.12-.23a.94.94,0,0,1,.07.25,14,14,0,0,0-3.72,1.23.51.51,0,0,0,0-.37A14.25,14.25,0,0,1,18.29,42.3Z"/><path class="cls-6" d="M12.24,44.78A9.13,9.13,0,0,1,15.65,43a1.15,1.15,0,0,1,.11.26,19.44,19.44,0,0,0-3.78,2C12.09,45.13,12.26,45,12.24,44.78Z"/><path class="cls-12" d="M25,41.71a1.21,1.21,0,0,0-.11-1.41l.2,0h0a1.2,1.2,0,0,1,0,1.38Z"/><path class="cls-79" d="M1,51.46c-1.67-2.31.08-5.7,3.16-6.76l-.05-.21C.58,45.46-1.25,49.08,1,51.46Z"/><path class="cls-12" d="M3.83,44.57A5.51,5.51,0,0,1,4,46.43l.21,0a5.34,5.34,0,0,0-.2-1.91Z"/><path class="cls-80" d="M7.27,43.41a1.13,1.13,0,0,0-.39,0c-.61.11-2.42.48-2.84,1.07,0,0,.06.22.12.53A13.6,13.6,0,0,1,7.86,44a14.74,14.74,0,0,1,3.88-.14l-.22-.34A15.32,15.32,0,0,1,7.27,43.41Z"/><path class="cls-6" d="M12,44.24a17.23,17.23,0,0,0-3.55.51,13.47,13.47,0,0,0-4.17,1.69.85.85,0,0,1-.3.56s1.55-.77,3-1.4a12.76,12.76,0,0,1,3.94-1,8.75,8.75,0,0,1,1.22,0A2.2,2.2,0,0,0,12,44.24Z"/><path class="cls-12" d="M11.52,43.49l-.28,0a4.45,4.45,0,0,1,.58,1h.25A3.79,3.79,0,0,0,11.52,43.49Z"/><path class="cls-7" d="M38.55,30.75C35.88,32.29,27.22,39,24.46,39.54c0,0,2.72,2-1.65,4.24,0,0,1.88.4,5-3,0,0,11-6.7,11.3-6.79a11.6,11.6,0,0,0,1.08-.49C40.66,31.58,39.58,30.95,38.55,30.75Z"/><path class="cls-6" d="M36.6,34.94a8.19,8.19,0,0,1-1.27,1.22c2-1.2,3.64-2.18,3.76-2.22a11.6,11.6,0,0,0,1.08-.49,3.92,3.92,0,0,0,.1-.5A5.12,5.12,0,0,0,36.6,34.94Z"/><path class="cls-81" d="M39,30.88a3.35,3.35,0,0,0-.48-.13C35.88,32.29,27.22,39,24.46,39.54a2.37,2.37,0,0,1,.4.39h0C27.93,38.3,36.38,33.9,39,30.88Z"/><path class="cls-16" d="M40.39,33.63l0-.12a2.54,2.54,0,0,0-.17-2,2.27,2.27,0,0,0-1.46-.94l-.49.33a3.14,3.14,0,0,1,.76.3,1.55,1.55,0,0,1,.75.58,2,2,0,0,1,.13,1.52l-.16.08a3.31,3.31,0,0,1-.17.33,1.77,1.77,0,0,0,0,.33l.7-.33Z"/><path class="cls-16" d="M44.86,28.06l-.09.33c2.91-.37,4.06.55,4.5,1.47a1.31,1.31,0,0,0,.16-.27C49,28.64,47.87,27.67,44.86,28.06Z"/><path class="cls-49" d="M90.58,42.61a1.61,1.61,0,0,1,0-.16A1.61,1.61,0,0,0,90.58,42.61Z"/><path class="cls-49" d="M90.71,42.09l-.05.13Z"/><path class="cls-49" d="M90.56,41.15h0l0,0,0,0h0l0,0Z"/><path class="cls-82" d="M73.07,30.81a1,1,0,0,1-.26-1.5c1.17-1.41,3.87-4.09,6.28-2.5,0,0,3.65,2.24,0,3.86C76,32,74.07,31.42,73.07,30.81Z"/><path class="cls-7" d="M91.33,34.48c-3-.43-7.08-6.56-9.11-7.37-.25.19-.85,0-.85,0-2.15-1.72-2.59,1-2.59,1a1,1,0,0,0,.38,0,.25.25,0,0,1,.24.18,5.47,5.47,0,0,0,1.29,1.59c.69.31,1.41.61,1.57.64.34.08,5.79,5.31,5.79,5.31,3.27,3.28,5.13,2.79,5.13,2.79C88.71,36.59,91.33,34.48,91.33,34.48Z"/><path class="cls-7" d="M90.77,36.77a11,11,0,0,1,1.24.06c.1.2-.07.52-.07.52s1.17-.73,1.17-.73c-.57-.22.09-1.4.09-1.4-.78-.53-2.4-.09-2.4-.09h0A1.64,1.64,0,0,0,90.77,36.77Z"/><path class="cls-7" d="M96.65,35c-1.17-.65-3.54.36-3.54.36-.13.27-.32.77-.18,1a6.87,6.87,0,0,1,1.7.25,2,2,0,0,0,1.48,0C95.95,36.41,96.65,35,96.65,35Z"/><path class="cls-7" d="M100.65,35.16c-1-.69-3.4-.09-4.11.11a4.73,4.73,0,0,0-.45,1.26,10.13,10.13,0,0,1,3.5.82C99.35,36.76,100.65,35.16,100.65,35.16Z"/><path class="cls-7" d="M103.92,35.79c-.66-.4-2.66-.31-3.51-.31a4.83,4.83,0,0,0-.84,1.58c.8,0,3.44,1.66,3.44,1.66C102.42,38,103.92,35.79,103.92,35.79Z"/><path class="cls-7" d="M110.17,39.5c-.17-.77-1.63-1.68-2.12-2a.82.82,0,0,0-.34-.11,11.34,11.34,0,0,1-4-1.24,8.9,8.9,0,0,0-.57,1.15,6.09,6.09,0,0,1,1.1.4,9.9,9.9,0,0,1,3.09,2.21c1,1.09,2.13,2.37,2.13,2.37C109,41.58,110.17,39.5,110.17,39.5Z"/><path class="cls-7" d="M110.07,39.69a7.12,7.12,0,0,0-.72,1.89c1,.25,1.84-.92,1.84-.92,2.5-.3,3.38,1,3.59,3l.11,0C115.85,40.34,113.34,38.23,110.07,39.69Z"/><path class="cls-6" d="M82.27,30.53c.34.08,5.79,5.31,5.79,5.31a9.29,9.29,0,0,0,4.12,2.72C89.8,37,86.69,33.62,84.81,31.4a5.12,5.12,0,0,0-4.39-1.78h0l.27.26C81.38,30.2,82.1,30.5,82.27,30.53Z"/><path class="cls-83" d="M91.33,34.48c-3-.43-7.08-6.56-9.11-7.37a.49.49,0,0,1-.29.08c2.48,2.9,5.76,6.17,9,7.7A2.37,2.37,0,0,1,91.33,34.48Z"/><path class="cls-84" d="M93.14,35.33l.06-.11c-.78-.53-2.4-.09-2.4-.09h0a2,2,0,0,0-.15.33A12.36,12.36,0,0,1,93.14,35.33Z"/><path class="cls-85" d="M96,35.23l.5,0,.11-.21c-1.17-.65-3.54.36-3.54.36l0,0A11.73,11.73,0,0,1,96,35.23Z"/><path class="cls-86" d="M98.61,35.35a13.11,13.11,0,0,1,1.75.19c.16-.23.29-.38.29-.38-1-.69-3.4-.09-4.11.11l-.08.16A12.73,12.73,0,0,1,98.61,35.35Z"/><path class="cls-87" d="M103.58,36.35c.19-.33.34-.56.34-.56-.66-.4-2.66-.31-3.51-.31l-.16.23A10.82,10.82,0,0,1,103.58,36.35Z"/><path class="cls-12" d="M93.25,35.35l-.14.05c-.13.27-.32.77-.18,1H93A1.71,1.71,0,0,1,93.25,35.35Z"/><path class="cls-12" d="M96.67,35.24l-.13,0a4.73,4.73,0,0,0-.45,1.26h.11A5.21,5.21,0,0,1,96.67,35.24Z"/><path class="cls-12" d="M100.41,35.48a4.83,4.83,0,0,0-.84,1.58h.14a5,5,0,0,1,.86-1.59Z"/><path class="cls-88" d="M107,37.86A10.68,10.68,0,0,1,109.89,40c.16-.33.28-.55.28-.55-.17-.77-1.63-1.68-2.12-2a.82.82,0,0,0-.34-.11,11.34,11.34,0,0,1-4-1.24l-.24.43A10.3,10.3,0,0,1,107,37.86Z"/><path class="cls-89" d="M109.37,42.26l0,.06,0-.06Z"/><path class="cls-12" d="M103.67,36.18a8.9,8.9,0,0,0-.57,1.15l.2.05a8.74,8.74,0,0,1,.55-1.11Z"/><path class="cls-90" d="M114.93,43.5c.83-3.23-1.65-5.24-4.86-3.82l-.12.24C112.91,38.7,115.35,40.6,114.93,43.5Z"/><path class="cls-6" d="M112.72,40.34a2.66,2.66,0,0,0-2.92,1.26,2.6,2.6,0,0,0,1.39-.94c2.43-.3,3.33.94,3.57,2.83l0-.07A2.62,2.62,0,0,0,112.72,40.34Z"/><path class="cls-12" d="M109.35,41.58l.16,0a11.31,11.31,0,0,1,.77-2l-.22.09A7.12,7.12,0,0,0,109.35,41.58Z"/><path class="cls-6" d="M92.49,36.63a10.83,10.83,0,0,0-1.82-.09,1.89,1.89,0,0,0,.1.23,11,11,0,0,1,1.24.06c.1.2-.07.52-.07.52s.78-.42,1.05-.64Z"/><path class="cls-6" d="M94.73,36.31a10.82,10.82,0,0,0-1.85-.09.52.52,0,0,0,0,.23,6.87,6.87,0,0,1,1.7.25,2,2,0,0,0,1.48,0,.22.22,0,0,1,0-.1A11.11,11.11,0,0,0,94.73,36.31Z"/><path class="cls-6" d="M97.2,36.33c-.36,0-.71-.08-1.05-.09a1.37,1.37,0,0,0-.06.29,10.13,10.13,0,0,1,3.5.82.69.69,0,0,1,0-.42A10.32,10.32,0,0,0,97.2,36.33Z"/><path class="cls-6" d="M102.87,38.22a6.76,6.76,0,0,0-3.21-1.48,1.69,1.69,0,0,0-.1.32c.8,0,3.44,1.66,3.44,1.66A.68.68,0,0,1,102.87,38.22Z"/><path class="cls-6" d="M109.42,42.31a1.09,1.09,0,0,1-.07-.7,11.24,11.24,0,0,0-3.08-3,12.68,12.68,0,0,0-3-1.58l-.14.32a6.09,6.09,0,0,1,1.1.4,9.9,9.9,0,0,1,3.09,2.21C108.33,41,109.42,42.31,109.42,42.31Z"/><path class="cls-6" d="M113.52,43.65a1,1,0,0,0-.24-.42,4.85,4.85,0,0,0-1.21-.86,16.4,16.4,0,0,0-2-.88h0l-.35-.2-.12.23.39.19h0l.06,0c.39.2,1,.51,1.55.85a8.9,8.9,0,0,1,1.28.88,1.47,1.47,0,0,1,.33.38.33.33,0,0,1,0,.13v0a.33.33,0,0,0,0-.14,1.5,1.5,0,0,0-.31-.41,9,9,0,0,0-1.24-1l-.6-.39c.29.11.61.24.93.39a4.77,4.77,0,0,1,1.24.77.94.94,0,0,1,.26.4.57.57,0,0,1,0,.18A.58.58,0,0,0,113.52,43.65Z"/><path class="cls-12" d="M90.91,36.76a1.66,1.66,0,0,1,.1-1.68l-.2,0h0a1.64,1.64,0,0,0,0,1.63Z"/><path class="cls-91" d="M73.49,30.78c1.17-1.41,3.87-4.09,6.28-2.5a5.26,5.26,0,0,1,.92.75c.1-1.18-1.6-2.22-1.6-2.22-2.41-1.59-5.11,1.09-6.28,2.5a1,1,0,0,0,.26,1.5l.3.16A1,1,0,0,1,73.49,30.78Z"/><path class="cls-12" d="M79.56,26.79l-.09-.05a1.31,1.31,0,0,0-.21.2c.53.38,2,1.56,1.18,2.72l.24.23h0C82.21,28.41,79.56,26.79,79.56,26.79Z"/><path class="cls-92" d="M82.22,27.11,81.8,27a1.8,1.8,0,0,0-2.07-.46c.39-.13.9-.05,1.59.53a3,3,0,0,0,.63.1h.16l.1,0Z"/><path class="cls-93" d="M59.61,26.51s-4.53,3.3-1.07,6.34a2.86,2.86,0,0,0,2.32.73,2,2,0,0,0,1.44-.92,2.18,2.18,0,0,0,.21-1.72,2.15,2.15,0,0,0-.48-1l.27-.65a6.87,6.87,0,0,1-1.46-1.91.25.25,0,0,0-.23-.19c-.21,0-.51,0-.56-.23A.65.65,0,0,0,59.61,26.51Z"/><path class="cls-94" d="M72.42,34.13c-2.93-.58-6.72-6.92-8.71-7.84-.26.18-.85-.06-.85-.06-2.06-1.83-2.63.86-2.63.86a1,1,0,0,0,.38.06.25.25,0,0,1,.23.19A5.47,5.47,0,0,0,62,29c.67.34,1.37.68,1.54.73.33.09,5.5,5.61,5.5,5.61,3.1,3.45,5,3.06,5,3.06C69.69,36.1,72.42,34.13,72.42,34.13Z"/><path class="cls-95" d="M71.75,36.39a11,11,0,0,1,1.23.12c.09.21-.1.51-.1.51s1.2-.67,1.2-.67c-.56-.25.17-1.39.17-1.39-.75-.57-2.39-.21-2.39-.21h0A1.64,1.64,0,0,0,71.75,36.39Z"/><path class="cls-96" d="M77.71,35c-1.13-.71-3.56.17-3.56.17-.14.26-.36.75-.24,1a6.87,6.87,0,0,1,1.68.34,2,2,0,0,0,1.48.06C76.93,36.3,77.71,35,77.71,35Z"/><path class="cls-97" d="M81.69,35.3c-1-.74-3.39-.27-4.11-.1a4.73,4.73,0,0,0-.52,1.24,10.13,10.13,0,0,1,3.45,1C80.31,36.84,81.69,35.3,81.69,35.3Z"/><path class="cls-98" d="M84.92,36.1c-.64-.43-2.64-.45-3.49-.5a4.83,4.83,0,0,0-.92,1.53c.8,0,3.34,1.84,3.34,1.84C83.31,38.28,84.92,36.1,84.92,36.1Z"/><path class="cls-99" d="M91,40.14c-.13-.78-1.54-1.77-2-2.08a.82.82,0,0,0-.33-.12,11.34,11.34,0,0,1-4-1.45A8.9,8.9,0,0,0,84,37.6a6.09,6.09,0,0,1,1.07.46,9.9,9.9,0,0,1,3,2.37c1,1.14,2,2.48,2,2.48C89.67,42.15,91,40.14,91,40.14Z"/><path class="cls-100" d="M90.86,40.32A7.12,7.12,0,0,0,90,42.17c.95.3,1.88-.83,1.88-.83,2.51-.17,3.32,1.18,3.42,3.16l.11,0C96.6,41.28,94.2,39,90.86,40.32Z"/><path class="cls-6" d="M63.58,29.71c.33.09,5.5,5.61,5.5,5.61a9.29,9.29,0,0,0,4,2.93c-2.29-1.65-5.21-5.23-7-7.54a5.12,5.12,0,0,0-4.29-2h0L62,29C62.72,29.33,63.42,29.67,63.58,29.71Z"/><path class="cls-101" d="M72.42,34.13c-2.93-.58-6.72-6.92-8.71-7.84a.49.49,0,0,1-.29.07c2.32,3,5.43,6.47,8.61,8.16A2.37,2.37,0,0,1,72.42,34.13Z"/><path class="cls-102" d="M74.19,35.08l.06-.11c-.75-.57-2.39-.21-2.39-.21h0a2,2,0,0,0-.16.32A12.35,12.35,0,0,1,74.19,35.08Z"/><path class="cls-103" d="M77.09,35.13l.5.06.12-.21c-1.13-.71-3.56.17-3.56.17l0,0A11.73,11.73,0,0,1,77.09,35.13Z"/><path class="cls-104" d="M79.65,35.39a13.1,13.1,0,0,1,1.73.28c.18-.22.31-.37.31-.37-1-.74-3.39-.27-4.11-.1l-.09.16A12.73,12.73,0,0,1,79.65,35.39Z"/><path class="cls-105" d="M84.56,36.64c.2-.32.37-.54.37-.54-.64-.43-2.64-.45-3.49-.5l-.17.22A10.82,10.82,0,0,1,84.56,36.64Z"/><path class="cls-41" d="M74.29,35.1l-.14,0c-.14.26-.36.75-.24,1H74A1.71,1.71,0,0,1,74.29,35.1Z"/><path class="cls-41" d="M77.72,35.17l-.14,0a4.73,4.73,0,0,0-.52,1.24h.11A5.21,5.21,0,0,1,77.72,35.17Z"/><path class="cls-41" d="M81.44,35.61a4.83,4.83,0,0,0-.92,1.53l.14,0a5,5,0,0,1,.94-1.54Z"/><path class="cls-106" d="M87.91,38.34a10.68,10.68,0,0,1,2.75,2.33c.17-.32.31-.53.31-.53-.13-.78-1.54-1.77-2-2.08a.82.82,0,0,0-.33-.12,11.34,11.34,0,0,1-4-1.45l-.26.41A10.3,10.3,0,0,1,87.91,38.34Z"/><path class="cls-107" d="M90,42.85l0,.06,0-.06Z"/><path class="cls-41" d="M84.66,36.48A8.9,8.9,0,0,0,84,37.6l.2.06a8.74,8.74,0,0,1,.61-1.08Z"/><path class="cls-108" d="M95.51,44.39c1-3.19-1.37-5.32-4.65-4.07l-.14.24C93.75,39.49,96.09,41.51,95.51,44.39Z"/><path class="cls-6" d="M93.48,41.11a2.66,2.66,0,0,0-3,1.11,2.6,2.6,0,0,0,1.43-.87c2.45-.17,3.28,1.11,3.41,3l0-.07A2.62,2.62,0,0,0,93.48,41.11Z"/><path class="cls-41" d="M90,42.17l.16,0a11.31,11.31,0,0,1,.88-2l-.22.08A7.12,7.12,0,0,0,90,42.17Z"/><path class="cls-6" d="M73.47,36.34a10.83,10.83,0,0,0-1.81-.19,1.88,1.88,0,0,0,.09.23,11,11,0,0,1,1.23.12c.09.21-.1.51-.1.51s.8-.38,1.08-.58Z"/><path class="cls-6" d="M75.72,36.14A10.83,10.83,0,0,0,73.88,36a.52.52,0,0,0,0,.23,6.87,6.87,0,0,1,1.68.34,2,2,0,0,0,1.48.06.22.22,0,0,1,0-.1A11.11,11.11,0,0,0,75.72,36.14Z"/><path class="cls-6" d="M78.18,36.29c-.36-.07-.71-.11-1-.15a1.37,1.37,0,0,0-.07.29,10.13,10.13,0,0,1,3.45,1,.69.69,0,0,1,0-.42A10.32,10.32,0,0,0,78.18,36.29Z"/><path class="cls-6" d="M83.75,38.48a6.76,6.76,0,0,0-3.13-1.65,1.69,1.69,0,0,0-.11.31c.8,0,3.34,1.84,3.34,1.84A.68.68,0,0,1,83.75,38.48Z"/><path class="cls-6" d="M90.07,42.91a1.09,1.09,0,0,1,0-.7A11.24,11.24,0,0,0,87.12,39a12.68,12.68,0,0,0-2.94-1.74L84,37.6a6.09,6.09,0,0,1,1.07.46,9.9,9.9,0,0,1,3,2.37C89,41.57,90.07,42.91,90.07,42.91Z"/><path class="cls-41" d="M71.88,36.39a1.66,1.66,0,0,1,.19-1.67l-.21,0h0a1.64,1.64,0,0,0-.11,1.63Z"/><path class="cls-6" d="M62.51,30.93a2.15,2.15,0,0,0-.48-1l.27-.65-.38-.39h0a1.23,1.23,0,0,0,0,1,4.83,4.83,0,0,1,.23.66,2.18,2.18,0,0,1-.21,1.72,2,2,0,0,1-1.45.93,2.86,2.86,0,0,1-2.29-.72,5.08,5.08,0,0,1-.38-.37,4.64,4.64,0,0,0,.79.85,2.82,2.82,0,0,0,2.2.69,2,2,0,0,0,1.51-.93A2.18,2.18,0,0,0,62.51,30.93Z"/><path class="cls-109" d="M62.18,29.51l.11-.27a6.87,6.87,0,0,1-1.46-1.91.25.25,0,0,0-.23-.19c-.21,0-.51,0-.56-.23a.65.65,0,0,0-.44-.41s-3.63,2.65-1.9,5.39A3.4,3.4,0,0,1,62.18,29.51Z"/><path class="cls-41" d="M61,27a.25.25,0,0,0-.23-.19.84.84,0,0,1-.46-.1,2.89,2.89,0,0,0-.11.35,1.05,1.05,0,0,0,.38.06.25.25,0,0,1,.23.19A5.47,5.47,0,0,0,62,29l.35.18.1-.23A6.87,6.87,0,0,1,61,27Z"/><path class="cls-110" d="M63.69,26.29a2.14,2.14,0,0,1-.42-.11c-.86-.77-1.52-.78-2-.54.39-.12.9,0,1.58.6a1.9,1.9,0,0,0,.56.12h.16l.11,0Z"/><path class="cls-111" d="M32.09,24.07c.46,1.34.28,2.83.66,4.2A9.87,9.87,0,0,1,33.48,31a10.66,10.66,0,0,0-.25,2.46c-.18-.18,0-.48.1-.7a6.19,6.19,0,0,0,.39-4L33.13,24a1.79,1.79,0,0,0-.19-.71c-.12-.2-.77-.72-1-.55S32,23.73,32.09,24.07Z"/></g></g></svg>