<svg id="Layer_1" data-name="Layer 1" xmlns="http://www.w3.org/2000/svg" viewBox="0 0 50.55 65.8"><defs><style>.cls-1{fill:none;stroke:#525935;stroke-linecap:round;stroke-linejoin:round;stroke-width:2px;stroke-dasharray:5.94 4.95;}.cls-2{fill:#525935;}</style></defs><title>olive-small-circle</title><circle class="cls-1" cx="25.27" cy="25.27" r="24.27"/><path class="cls-2" d="M6.92,64.35a5.13,5.13,0,0,1,0-7.13,4.86,4.86,0,0,1,3.53-1.41,5.08,5.08,0,0,1,2.76.76A4.34,4.34,0,0,1,15,58.74H13.05a2.72,2.72,0,0,0-2.6-1.47,3.19,3.19,0,0,0-2.4,1,4,4,0,0,0,0,5.11,3.19,3.19,0,0,0,2.4,1,2.72,2.72,0,0,0,2.6-1.47H15A4.3,4.3,0,0,1,13.21,65a5.11,5.11,0,0,1-2.76.76A4.87,4.87,0,0,1,6.92,64.35Z"/><path class="cls-2" d="M18.65,55.91a1,1,0,1,1-.29-.73A1,1,0,0,1,18.65,55.91Zm-1.82,9.76V58h1.6v7.71Z"/><path class="cls-2" d="M22.12,58V59.3a2.44,2.44,0,0,1,2.31-1.47v1.65H24a1.94,1.94,0,0,0-1.42.48,2.28,2.28,0,0,0-.48,1.65v4.06h-1.6V58Z"/><path class="cls-2" d="M26.42,64.7a4.49,4.49,0,0,1,0-5.78,3.62,3.62,0,0,1,2.72-1.09,3.85,3.85,0,0,1,2.32.67,3.27,3.27,0,0,1,1.24,1.9H31a1.76,1.76,0,0,0-1.83-1.22,1.93,1.93,0,0,0-1.56.69A2.93,2.93,0,0,0,27,61.8a3,3,0,0,0,.58,1.95,1.92,1.92,0,0,0,1.56.7A1.77,1.77,0,0,0,31,63.23h1.72a3.45,3.45,0,0,1-1.26,1.87,3.72,3.72,0,0,1-2.3.69A3.62,3.62,0,0,1,26.42,64.7Z"/><path class="cls-2" d="M34.3,65.67V55.31h1.6V65.67Z"/><path class="cls-2" d="M41.25,65.8a3.62,3.62,0,0,1-2.73-1.09,4,4,0,0,1-1.05-2.9,4,4,0,0,1,1.06-2.89,3.68,3.68,0,0,1,2.75-1.08,3.72,3.72,0,0,1,2.74,1,3.67,3.67,0,0,1,1,2.72,4.81,4.81,0,0,1-.05.76H39.11a2.2,2.2,0,0,0,.65,1.53,2.07,2.07,0,0,0,1.49.57,1.88,1.88,0,0,0,1.83-1.08H44.8a3.47,3.47,0,0,1-1.27,1.74A3.76,3.76,0,0,1,41.25,65.8Zm1.53-6.05a2.14,2.14,0,0,0-1.5-.57,2.06,2.06,0,0,0-1.48.57,2.29,2.29,0,0,0-.68,1.52H43.4A2,2,0,0,0,42.77,59.74Z"/></svg>