<svg id="Layer_1" data-name="Layer 1" xmlns="http://www.w3.org/2000/svg" viewBox="0 0 50.55 68.56"><defs><style>.cls-1,.cls-2{fill:none;stroke:#2e82ce;stroke-linecap:round;stroke-miterlimit:10;stroke-width:2px;}.cls-2{stroke-dasharray:6.72 5.6;}.cls-3{fill:#2e82ce;}</style></defs><title>green-small-square</title><polyline class="cls-1" points="1 4 1 1 4 1"/><line class="cls-2" x1="9.6" y1="1" x2="43.75" y2="1"/><polyline class="cls-1" points="46.55 1 49.55 1 49.55 4"/><line class="cls-2" x1="49.55" y1="9.6" x2="49.55" y2="43.75"/><polyline class="cls-1" points="49.55 46.55 49.55 49.55 46.55 49.55"/><line class="cls-2" x1="40.95" y1="49.55" x2="6.8" y2="49.55"/><polyline class="cls-1" points="4 49.55 1 49.55 1 46.55"/><line class="cls-2" x1="1" y1="40.95" x2="1" y2="6.8"/><path class="cls-3" d="M4,56.3a1.8,1.8,0,0,0-1.17.36,1.29,1.29,0,0,0-.45,1.06,1.2,1.2,0,0,0,.53,1.06,3.64,3.64,0,0,0,1.29.53q.76.17,1.52.39A2.73,2.73,0,0,1,7,60.51a2.41,2.41,0,0,1,.53,1.67,2.6,2.6,0,0,1-.91,1.94A3.43,3.43,0,0,1,4.21,65a4,4,0,0,1-2.49-.72,2.34,2.34,0,0,1-1-2H2.48a1.49,1.49,0,0,0,.48,1,1.79,1.79,0,0,0,1.24.38,1.86,1.86,0,0,0,1.29-.42,1.39,1.39,0,0,0,.18-1.9,1.77,1.77,0,0,0-.74-.48,9.26,9.26,0,0,0-1-.29q-.55-.13-1.1-.29a4.64,4.64,0,0,1-1-.44,2,2,0,0,1-.74-.78,2.53,2.53,0,0,1-.29-1.26,2.56,2.56,0,0,1,.92-2.06A3.56,3.56,0,0,1,4.08,55a3.75,3.75,0,0,1,2.34.67,2.58,2.58,0,0,1,1,2H5.63a1.41,1.41,0,0,0-.48-.94A1.64,1.64,0,0,0,4,56.3Z"/><path class="cls-3" d="M10,63.87A4.08,4.08,0,0,1,8.93,61a4,4,0,0,1,1-2.86A3.44,3.44,0,0,1,12.58,57a3.08,3.08,0,0,1,1.61.41,2.92,2.92,0,0,1,1.07,1.09V57.14h1.62V68.56H15.26V63.43a3.07,3.07,0,0,1-1.08,1.14,3,3,0,0,1-1.6.43A3.41,3.41,0,0,1,10,63.87Zm4.58-1a2.94,2.94,0,0,0,0-3.8,2.31,2.31,0,0,0-3.3,0,2.53,2.53,0,0,0-.7,1.88,2.65,2.65,0,0,0,.7,1.92,2.26,2.26,0,0,0,3.3,0Z"/><path class="cls-3" d="M24.39,57.14H26v7.74h-1.6V63.66A2.62,2.62,0,0,1,21.92,65a2.9,2.9,0,0,1-2.16-.86,3.3,3.3,0,0,1-.85-2.42V57.14H20.5v4.32A2.25,2.25,0,0,0,21,63.06a1.85,1.85,0,0,0,1.42.55,1.87,1.87,0,0,0,1.42-.55,2.22,2.22,0,0,0,.53-1.59Z"/><path class="cls-3" d="M28.61,63.87A4.08,4.08,0,0,1,27.56,61a4,4,0,0,1,1-2.86A3.44,3.44,0,0,1,31.21,57a3.08,3.08,0,0,1,1.61.41,2.92,2.92,0,0,1,1.07,1.09V57.14h1.62v7.74H33.9V63.43a3.07,3.07,0,0,1-1.08,1.14,3,3,0,0,1-1.6.43A3.41,3.41,0,0,1,28.61,63.87Zm4.58-1a2.94,2.94,0,0,0,0-3.8,2.31,2.31,0,0,0-3.3,0A2.53,2.53,0,0,0,29.2,61a2.65,2.65,0,0,0,.7,1.92,2.26,2.26,0,0,0,3.3,0Z"/><path class="cls-3" d="M39.22,57.14v1.35A2.44,2.44,0,0,1,41.53,57v1.66h-.41a2,2,0,0,0-1.42.48,2.28,2.28,0,0,0-.48,1.66v4.07h-1.6V57.14Z"/><path class="cls-3" d="M46.27,65a3.63,3.63,0,0,1-2.74-1.1A4,4,0,0,1,42.47,61a4,4,0,0,1,1.07-2.9,3.79,3.79,0,0,1,6.56,2.69,4.72,4.72,0,0,1-.06.76H44.12a2.21,2.21,0,0,0,.65,1.54,2.08,2.08,0,0,0,1.5.57,1.88,1.88,0,0,0,1.84-1.08h1.73a3.47,3.47,0,0,1-1.28,1.75A3.75,3.75,0,0,1,46.27,65Zm1.53-6.07a2.14,2.14,0,0,0-1.5-.57,2.06,2.06,0,0,0-1.48.57,2.3,2.3,0,0,0-.68,1.52h4.3A2,2,0,0,0,47.8,58.93Z"/></svg>