<svg id="Layer_1" data-name="Layer 1" xmlns="http://www.w3.org/2000/svg" xmlns:xlink="http://www.w3.org/1999/xlink" viewBox="0 0 87.77 111.32"><defs><style>.cls-1{fill:url(#linear-gradient);}.cls-2{fill:url(#linear-gradient-2);}.cls-3{fill:url(#linear-gradient-3);}.cls-4{fill:url(#linear-gradient-4);}</style><linearGradient id="linear-gradient" x1="1274.55" y1="169.34" x2="1362.16" y2="169.34" gradientTransform="translate(-1274.55 -110.38)" gradientUnits="userSpaceOnUse"><stop offset="0" stop-color="#77bd4b"/><stop offset="0.15" stop-color="#71b644"/><stop offset="0.36" stop-color="#60a330"/><stop offset="0.61" stop-color="#448310"/><stop offset="0.71" stop-color="#387502"/><stop offset="0.79" stop-color="#3d7a08"/><stop offset="0.9" stop-color="#4b8a18"/><stop offset="1" stop-color="#5d9f2d"/></linearGradient><linearGradient id="linear-gradient-2" x1="1281.28" y1="169.69" x2="1310.18" y2="169.69" gradientTransform="translate(-1274.55 -110.38)" gradientUnits="userSpaceOnUse"><stop offset="0" stop-color="#f2f9ee"/><stop offset="0.09" stop-color="#e1f1d7"/><stop offset="0.31" stop-color="#bbdea5"/><stop offset="0.52" stop-color="#9ed07e"/><stop offset="0.71" stop-color="#88c662"/><stop offset="0.88" stop-color="#7cbf51"/><stop offset="1" stop-color="#77bd4b"/></linearGradient><linearGradient id="linear-gradient-3" x1="-2413.44" y1="495.81" x2="-2325.38" y2="495.81" gradientTransform="matrix(-0.99, 0, 0, -1.02, -2311.96, 511.84)" gradientUnits="userSpaceOnUse"><stop offset="0.01" stop-color="#458411"/><stop offset="1" stop-color="#a2d284"/></linearGradient><linearGradient id="linear-gradient-4" x1="1275.97" y1="116.67" x2="1361.24" y2="116.67" gradientTransform="translate(-1274.55 -110.38)" gradientUnits="userSpaceOnUse"><stop offset="0.01" stop-color="#387502"/><stop offset="1" stop-color="#77bd4b"/></linearGradient></defs><title>screen2-hold-more</title><path class="cls-1" d="M0,6.61C9.4,8.27,39.2,8.91,43.8,9c4.6-.09,34.4-.73,43.8-2.39,0,0-2.4,75.61-16.8,99,0,0-8.62,5.45-26.4,5.69H43.2c-17.78-.24-26.4-5.69-26.4-5.69C2.4,82.21,0,6.61,0,6.61Z"/><path class="cls-2" d="M29.15,12.09s-8.72,75,6.48,96.9c0,0-4.73.75-14.2-3.24,0,0-13.45-31.14-14.7-96.16C6.72,9.18,26.16,14.09,29.15,12.09Z"/><ellipse class="cls-3" cx="43.99" cy="6.58" rx="43.78" ry="6.57" transform="translate(-0.05 0.31) rotate(-0.4)"/><ellipse class="cls-4" cx="44.05" cy="6.3" rx="42.64" ry="5.3"/></svg>