<svg xmlns="http://www.w3.org/2000/svg" xmlns:xlink="http://www.w3.org/1999/xlink" viewBox="0 0 82.12 78.3"><defs><style>.cls-1{isolation:isolate;}.cls-2{fill:url(#linear-gradient);}.cls-12,.cls-3{opacity:0.5;}.cls-3{mix-blend-mode:multiply;}.cls-4{fill:#bee2f3;opacity:0;}.cls-5{fill:#b6dbef;opacity:0.06;}.cls-6{fill:#aad6ef;opacity:0.13;}.cls-7{fill:#9ed2ec;opacity:0.19;}.cls-8{fill:#95cdea;opacity:0.25;}.cls-9{fill:#8ac9e8;opacity:0.31;}.cls-10{fill:#80c3e7;opacity:0.38;}.cls-11{fill:#78bfe5;opacity:0.44;}.cls-12{fill:#6eb9e3;}.cls-13{fill:#65b4df;opacity:0.56;}.cls-14,.cls-28{fill:#5cb0de;}.cls-14{opacity:0.63;}.cls-15{fill:#53acdc;opacity:0.69;}.cls-16{fill:#4aa9db;opacity:0.75;}.cls-17{fill:#42a3d9;opacity:0.81;}.cls-18{fill:#37a0d7;opacity:0.88;}.cls-19{fill:#309cd6;opacity:0.94;}.cls-20{fill:#2998d2;}.cls-21{opacity:0.55;fill:url(#linear-gradient-2);}.cls-21,.cls-39,.cls-40{mix-blend-mode:screen;}.cls-22{fill:#89c8e8;}.cls-23{fill:#7fc3e6;}.cls-24{fill:#7abee4;}.cls-25{fill:#73bbe2;}.cls-26{fill:#69b8e1;}.cls-27{fill:#63b4e0;}.cls-29{fill:#55acdd;}.cls-30{fill:#4ca9dc;}.cls-31{fill:#45a6da;}.cls-32{fill:#3da2da;}.cls-33{fill:#38a0d7;}.cls-34{fill:#319dd6;}.cls-35{fill:#2999d6;}.cls-36{fill:#2995d0;}.cls-37{fill:#2891c8;}.cls-38{fill:#288bc0;}.cls-39,.cls-40{opacity:0.7;}.cls-39{fill:url(#linear-gradient-3);}.cls-40{fill:url(#linear-gradient-4);}.cls-41{fill:url(#linear-gradient-5);}.cls-42{fill:url(#radial-gradient);}.cls-43{fill:#fbfbfb;opacity:0.8;}.cls-44{fill:url(#linear-gradient-6);}.cls-45{fill:url(#linear-gradient-7);}.cls-46{fill:url(#linear-gradient-8);}.cls-47{fill:url(#linear-gradient-9);}.cls-48{fill:url(#linear-gradient-10);}.cls-49{fill:url(#linear-gradient-11);}.cls-50{fill:url(#linear-gradient-12);}.cls-51{fill:url(#linear-gradient-13);}.cls-52{fill:url(#linear-gradient-14);}.cls-53{fill:url(#linear-gradient-15);}.cls-54{fill:url(#linear-gradient-16);}.cls-55{fill:url(#linear-gradient-17);}.cls-56{fill:url(#linear-gradient-18);}.cls-57{fill:url(#linear-gradient-19);}.cls-58{fill:url(#linear-gradient-20);}.cls-59{fill:url(#linear-gradient-21);}.cls-60{fill:url(#linear-gradient-22);}.cls-61{fill:url(#radial-gradient-2);}.cls-62{fill:url(#radial-gradient-3);}.cls-63{fill:url(#linear-gradient-23);}.cls-64{fill:url(#linear-gradient-24);}.cls-65{fill:url(#linear-gradient-25);}.cls-66{fill:url(#linear-gradient-26);}.cls-67{fill:url(#linear-gradient-27);}.cls-68{fill:url(#linear-gradient-28);}.cls-69{fill:#221f1f;}.cls-70{fill:#fff;}</style><linearGradient id="linear-gradient" x1="-196.86" y1="39.15" x2="-140.24" y2="39.15" gradientTransform="matrix(-1, 0, 0, 1, -114.74, 0)" gradientUnits="userSpaceOnUse"><stop offset="0" stop-color="#8fc8e9"/><stop offset="0.01" stop-color="#80c1e6"/><stop offset="0.03" stop-color="#64b5e1"/><stop offset="0.05" stop-color="#53addd"/><stop offset="0.06" stop-color="#4daadc"/><stop offset="0.19" stop-color="#7fc2e6"/><stop offset="0.43" stop-color="#7dc1e5"/><stop offset="0.7" stop-color="#2d9cd6"/><stop offset="0.74" stop-color="#288bc0"/><stop offset="0.85" stop-color="#288cc2"/><stop offset="0.88" stop-color="#2891c9"/><stop offset="0.88" stop-color="#2891c9"/><stop offset="0.91" stop-color="#359ed6"/><stop offset="1" stop-color="#7abfe4"/></linearGradient><linearGradient id="linear-gradient-2" x1="-185.53" y1="33.49" x2="-172.77" y2="33.49" gradientTransform="matrix(-1, 0, 0, 1, -114.74, 0)" gradientUnits="userSpaceOnUse"><stop offset="0"/><stop offset="0.15" stop-color="#99cdea"/><stop offset="0.85" stop-color="#99cdea"/><stop offset="1"/></linearGradient><linearGradient id="linear-gradient-3" x1="-140.88" y1="44.35" x2="-118.25" y2="44.35" gradientTransform="matrix(-1, 0, 0, 1, -114.74, 0)" gradientUnits="userSpaceOnUse"><stop offset="0" stop-color="#8d8d8d"/><stop offset="0.54" stop-color="#8d8d8d"/><stop offset="0.66" stop-color="#8a8a8a"/><stop offset="0.73" stop-color="#828282"/><stop offset="0.8" stop-color="#737373"/><stop offset="0.86" stop-color="#5e5e5e"/><stop offset="0.91" stop-color="#424242"/><stop offset="0.96" stop-color="#222"/><stop offset="1"/></linearGradient><linearGradient id="linear-gradient-4" x1="-140.95" y1="22.01" x2="-115.79" y2="22.01" xlink:href="#linear-gradient-3"/><linearGradient id="linear-gradient-5" x1="-168.55" y1="6.48" x2="-168.55" gradientTransform="matrix(-1, 0, 0, 1, -114.74, 0)" gradientUnits="userSpaceOnUse"><stop offset="0.04" stop-color="#fff"/><stop offset="0.11" stop-color="#f5f4f6"/><stop offset="0.3" stop-color="#dedde1"/><stop offset="0.5" stop-color="#ceccd2"/><stop offset="0.72" stop-color="#c5c2ca"/><stop offset="1" stop-color="#c2bfc7"/></linearGradient><radialGradient id="radial-gradient" cx="641.48" cy="20680.99" r="94.16" gradientTransform="matrix(-0.39, 0, 0, 0.04, 306.31, -906.02)" gradientUnits="userSpaceOnUse"><stop offset="0" stop-color="#e1e1e7"/><stop offset="0.19" stop-color="#dcdce2"/><stop offset="0.43" stop-color="#cdcdd4"/><stop offset="0.69" stop-color="#b5b5bc"/><stop offset="0.96" stop-color="#92939b"/><stop offset="1" stop-color="#8d8e96"/></radialGradient><linearGradient id="linear-gradient-6" x1="-148.83" y1="35.55" x2="-147.91" y2="40.07" gradientTransform="matrix(-1, 0, 0, 1, -78.77, 0)" gradientUnits="userSpaceOnUse"><stop offset="0" stop-color="#84c241"/><stop offset="0.02" stop-color="#89c441"/><stop offset="0.17" stop-color="#a3cd43"/><stop offset="0.3" stop-color="#b3d345"/><stop offset="0.4" stop-color="#b9d545"/><stop offset="1" stop-color="#456f34"/></linearGradient><linearGradient id="linear-gradient-7" x1="-149.72" y1="50.15" x2="-145.6" y2="51.17" gradientTransform="matrix(-1, 0, 0, 1, -78.77, 0)" gradientUnits="userSpaceOnUse"><stop offset="0" stop-color="#456f34"/><stop offset="0.6" stop-color="#b9d545"/><stop offset="0.7" stop-color="#b3d345"/><stop offset="0.83" stop-color="#a3cd43"/><stop offset="0.98" stop-color="#89c441"/><stop offset="1" stop-color="#84c241"/></linearGradient><linearGradient id="linear-gradient-8" x1="-149.19" y1="51.33" x2="-150.61" y2="57.65" gradientTransform="matrix(-1, 0, 0, 1, -78.77, 0)" gradientUnits="userSpaceOnUse"><stop offset="0" stop-color="#b9d545"/><stop offset="0.24" stop-color="#d5b136"/><stop offset="0.47" stop-color="#ec922a"/><stop offset="0.61" stop-color="#f58725"/><stop offset="1" stop-color="#965624"/></linearGradient><linearGradient id="linear-gradient-9" x1="-123.06" y1="42.41" x2="-119.94" y2="42.41" gradientTransform="matrix(-1, 0, 0, 1, -78.77, 0)" gradientUnits="userSpaceOnUse"><stop offset="0" stop-color="#264b9b"/><stop offset="1" stop-color="#10bef0"/></linearGradient><linearGradient id="linear-gradient-10" x1="-118.99" y1="43.84" x2="-115.63" y2="43.84" xlink:href="#linear-gradient-9"/><linearGradient id="linear-gradient-11" x1="-122.2" y1="43.07" x2="-114.17" y2="42.24" xlink:href="#linear-gradient-7"/><linearGradient id="linear-gradient-12" x1="-150.54" y1="46.68" x2="-149.68" y2="43.63" xlink:href="#linear-gradient-7"/><linearGradient id="linear-gradient-13" x1="-150.3" y1="45.56" x2="-147.86" y2="36.94" xlink:href="#linear-gradient-7"/><linearGradient id="linear-gradient-14" x1="-135.19" y1="54.02" x2="-131.11" y2="39.62" xlink:href="#linear-gradient-7"/><linearGradient id="linear-gradient-15" x1="-130.78" y1="54.83" x2="-130.02" y2="47.89" xlink:href="#linear-gradient-9"/><linearGradient id="linear-gradient-16" x1="-8940.91" y1="53.58" x2="-8931.13" y2="53.58" gradientTransform="translate(8977.99)" xlink:href="#linear-gradient-9"/><linearGradient id="linear-gradient-17" x1="-122.73" y1="63.45" x2="-128.04" y2="65.67" xlink:href="#linear-gradient-8"/><linearGradient id="linear-gradient-18" x1="-123.18" y1="63.4" x2="-127.56" y2="60.37" xlink:href="#linear-gradient-8"/><linearGradient id="linear-gradient-19" x1="-124.87" y1="52.3" x2="-120.2" y2="55.16" xlink:href="#linear-gradient-7"/><linearGradient id="linear-gradient-20" x1="-116.4" y1="58.7" x2="-113.63" y2="63.27" xlink:href="#linear-gradient-7"/><linearGradient id="linear-gradient-21" x1="-117.88" y1="54.57" x2="-116.24" y2="58.81" xlink:href="#linear-gradient-7"/><linearGradient id="linear-gradient-22" x1="-8911.41" y1="41.04" x2="-8904.16" y2="41.04" gradientTransform="translate(8977.99)" xlink:href="#linear-gradient-6"/><radialGradient id="radial-gradient-2" cx="-8907" cy="41.68" r="3.05" gradientTransform="translate(10985.75 -0.93) scale(1.23 0.99)" gradientUnits="userSpaceOnUse"><stop offset="0" stop-color="#3066af"/><stop offset="0.71" stop-color="#2b60ab"/><stop offset="1" stop-color="#285ca8"/></radialGradient><radialGradient id="radial-gradient-3" cx="-8906.93" cy="41.84" r="2.85" gradientTransform="translate(10985.75 -0.93) scale(1.23 0.99)" gradientUnits="userSpaceOnUse"><stop offset="0" stop-color="#ed4523"/><stop offset="0.13" stop-color="#e74322"/><stop offset="0.3" stop-color="#d73e20"/><stop offset="0.49" stop-color="#bb351d"/><stop offset="0.69" stop-color="#952918"/><stop offset="0.91" stop-color="#651912"/><stop offset="1" stop-color="#4e120f"/></radialGradient><linearGradient id="linear-gradient-23" x1="-131.87" y1="47.5" x2="-133.05" y2="52.87" gradientTransform="matrix(-1, 0, 0, 1, -78.77, 0)" gradientUnits="userSpaceOnUse"><stop offset="0" stop-color="#fbed34"/><stop offset="0.17" stop-color="#e9e739"/><stop offset="0.49" stop-color="#cfdd3f"/><stop offset="0.78" stop-color="#bfd744"/><stop offset="1" stop-color="#b9d545"/></linearGradient><linearGradient id="linear-gradient-24" x1="-8938.09" y1="52.77" x2="-8928.32" y2="52.77" gradientTransform="translate(8977.99)" xlink:href="#linear-gradient-9"/><linearGradient id="linear-gradient-25" x1="-138.4" y1="62.95" x2="-145.12" y2="67.51" xlink:href="#linear-gradient-8"/><linearGradient id="linear-gradient-26" x1="-142.52" y1="52.05" x2="-134.2" y2="49.69" xlink:href="#linear-gradient-7"/><linearGradient id="linear-gradient-27" x1="-139.09" y1="58.25" x2="-134.35" y2="60.26" xlink:href="#linear-gradient-7"/><linearGradient id="linear-gradient-28" x1="-138.94" y1="53.09" x2="-135.02" y2="49.25" xlink:href="#linear-gradient-9"/></defs><title>screen3-hold-less</title><g class="cls-1"><g id="Layer_1" data-name="Layer 1"><path class="cls-2" d="M25.5,70.38a3.23,3.23,0,0,0,.81,2.13c6.47,7.35,48.56,8.11,55.1-.09a3.22,3.22,0,0,0,.71-2V3.92a1.82,1.82,0,0,0-1.19-1.71C77,.74,65.38,0,53.81,0,50.34,0,32,.16,26.68,2.21a1.82,1.82,0,0,0-1.17,1.7Z"/><g class="cls-3"><path class="cls-4" d="M81.41,69.87a3.22,3.22,0,0,0,.71-2v2.56a3.22,3.22,0,0,1-.71,2c-6.55,8.2-48.63,7.43-55.1.09a3.23,3.23,0,0,1-.81-2.13V67.82A3.23,3.23,0,0,0,26.31,70C32.78,77.3,74.86,78.07,81.41,69.87Z"/><path class="cls-5" d="M81.41,70a3.22,3.22,0,0,0,.71-2v2.41a3.22,3.22,0,0,1-.71,2c-6.55,8.2-48.63,7.43-55.1.09a3.23,3.23,0,0,1-.81-2.13V68a3.23,3.23,0,0,0,.81,2.13C32.78,77.45,74.86,78.21,81.41,70Z"/><path class="cls-6" d="M81.41,70.16a3.22,3.22,0,0,0,.71-2v2.27a3.22,3.22,0,0,1-.71,2c-6.55,8.2-48.63,7.43-55.1.09a3.23,3.23,0,0,1-.81-2.13V68.11a3.23,3.23,0,0,0,.81,2.13C32.78,77.59,74.86,78.36,81.41,70.16Z"/><path class="cls-7" d="M81.41,70.31a3.22,3.22,0,0,0,.71-2v2.12a3.22,3.22,0,0,1-.71,2c-6.55,8.2-48.63,7.43-55.1.09a3.23,3.23,0,0,1-.81-2.13V68.26a3.23,3.23,0,0,0,.81,2.13C32.78,77.74,74.86,78.5,81.41,70.31Z"/><path class="cls-8" d="M81.41,70.45a3.22,3.22,0,0,0,.71-2v2a3.22,3.22,0,0,1-.71,2c-6.55,8.2-48.63,7.43-55.1.09a3.23,3.23,0,0,1-.81-2.13v-2a3.23,3.23,0,0,0,.81,2.13C32.78,77.88,74.86,78.65,81.41,70.45Z"/><path class="cls-9" d="M81.41,70.6a3.22,3.22,0,0,0,.71-2v1.83a3.22,3.22,0,0,1-.71,2c-6.55,8.2-48.63,7.43-55.1.09a3.23,3.23,0,0,1-.81-2.13V68.55a3.23,3.23,0,0,0,.81,2.13C32.78,78,74.86,78.79,81.41,70.6Z"/><path class="cls-10" d="M81.41,70.74a3.22,3.22,0,0,0,.71-2v1.68a3.22,3.22,0,0,1-.71,2c-6.55,8.2-48.63,7.43-55.1.09a3.23,3.23,0,0,1-.81-2.13V68.69a3.23,3.23,0,0,0,.81,2.13C32.78,78.17,74.86,78.94,81.41,70.74Z"/><path class="cls-11" d="M81.41,70.89a3.22,3.22,0,0,0,.71-2v1.54a3.22,3.22,0,0,1-.71,2c-6.55,8.2-48.63,7.43-55.1.09a3.23,3.23,0,0,1-.81-2.13V68.84A3.23,3.23,0,0,0,26.31,71C32.78,78.32,74.86,79.08,81.41,70.89Z"/><path class="cls-12" d="M81.41,71a3.22,3.22,0,0,0,.71-2v1.39a3.22,3.22,0,0,1-.71,2c-6.55,8.2-48.63,7.43-55.1.09a3.23,3.23,0,0,1-.81-2.13V69a3.23,3.23,0,0,0,.81,2.13C32.78,78.46,74.86,79.23,81.41,71Z"/><path class="cls-13" d="M81.41,71.18a3.22,3.22,0,0,0,.71-2v1.25a3.22,3.22,0,0,1-.71,2c-6.55,8.2-48.63,7.43-55.1.09a3.23,3.23,0,0,1-.81-2.13V69.13a3.23,3.23,0,0,0,.81,2.13C32.78,78.61,74.86,79.38,81.41,71.18Z"/><path class="cls-14" d="M81.41,71.32a3.22,3.22,0,0,0,.71-2v1.1a3.22,3.22,0,0,1-.71,2c-6.55,8.2-48.63,7.43-55.1.09a3.23,3.23,0,0,1-.81-2.13v-1.1a3.23,3.23,0,0,0,.81,2.13C32.78,78.75,74.86,79.52,81.41,71.32Z"/><path class="cls-15" d="M81.41,71.47a3.22,3.22,0,0,0,.71-2v1a3.22,3.22,0,0,1-.71,2c-6.55,8.2-48.63,7.43-55.1.09a3.23,3.23,0,0,1-.81-2.13v-1a3.23,3.23,0,0,0,.81,2.13C32.78,78.9,74.86,79.67,81.41,71.47Z"/><path class="cls-16" d="M81.41,71.61a3.22,3.22,0,0,0,.71-2v.81a3.22,3.22,0,0,1-.71,2c-6.55,8.2-48.63,7.43-55.1.09a3.23,3.23,0,0,1-.81-2.13v-.81a3.23,3.23,0,0,0,.81,2.13C32.78,79,74.86,79.81,81.41,71.61Z"/><path class="cls-17" d="M81.41,71.76a3.22,3.22,0,0,0,.71-2v.67a3.22,3.22,0,0,1-.71,2c-6.55,8.2-48.63,7.43-55.1.09a3.23,3.23,0,0,1-.81-2.13v-.67a3.23,3.23,0,0,0,.81,2.13C32.78,79.19,74.86,80,81.41,71.76Z"/><path class="cls-18" d="M81.41,71.9a3.22,3.22,0,0,0,.71-2v.52a3.22,3.22,0,0,1-.71,2c-6.55,8.2-48.63,7.43-55.1.09a3.23,3.23,0,0,1-.81-2.13v-.52A3.23,3.23,0,0,0,26.31,72C32.78,79.34,74.86,80.1,81.41,71.9Z"/><path class="cls-19" d="M81.41,72a3.22,3.22,0,0,0,.71-2v.38a3.22,3.22,0,0,1-.71,2c-6.55,8.2-48.63,7.43-55.1.09a3.23,3.23,0,0,1-.81-2.13V70a3.23,3.23,0,0,0,.81,2.13C32.78,79.48,74.86,80.25,81.41,72Z"/><path class="cls-20" d="M81.41,72.19a3.22,3.22,0,0,0,.71-2v.23a3.22,3.22,0,0,1-.71,2c-6.55,8.2-48.63,7.43-55.1.09a3.23,3.23,0,0,1-.81-2.13v-.23a3.23,3.23,0,0,0,.81,2.13C32.78,79.63,74.86,80.39,81.41,72.19Z"/></g><path class="cls-21" d="M70.79,5.62V47.43A14,14,0,0,1,58,61.36V6.18C62.68,6.11,67.08,5.92,70.79,5.62Z"/><path class="cls-22" d="M16.85,10.66c2,.07,7,.7,9.13,1,.8.94.75,5.94-.13,9.24-1.7-1-2.14-4.47-10.53-4.47-6,0-10.58,5.8-10.58,17.63S9.29,51.7,15.33,51.7c8.4,0,8.84-3.48,10.53-4.47.87,3.3.93,8.3.13,9.24-2.11.3-7.12.93-9.13,1C8.61,57.76,0,53.56,0,34.07S8.61,10.38,16.85,10.66Z"/><path class="cls-23" d="M16.81,10.81c2.05.07,7,.7,9.2,1,.76,1,.7,5.74-.13,8.92-1.68-1-2.22-4.45-10.55-4.45-6,0-10.71,5.77-10.71,17.78S9.28,51.85,15.33,51.85c8.33,0,8.87-3.42,10.55-4.45.83,3.18.89,8,.13,8.92-2.17.32-7.15.94-9.2,1C8.4,57.63.14,53.07.14,34.07S8.4,10.51,16.81,10.81Z"/><path class="cls-24" d="M16.76,11c2.09.08,7,.69,9.27,1,.71,1,.65,5.53-.13,8.6-1.66-1.06-2.3-4.44-10.57-4.44-6.05,0-10.85,5.73-10.85,17.93S9.27,52,15.33,52c8.27,0,8.91-3.37,10.57-4.44.79,3.06.84,7.62.13,8.6-2.22.33-7.17.94-9.27,1C8.2,57.5.28,52.59.28,34.07S8.2,10.63,16.76,11Z"/><path class="cls-25" d="M16.71,11.1c2.13.08,7.05.69,9.33,1,.66,1,.61,5.33-.14,8.28C24.27,19.31,23.53,16,15.33,16c-6.06,0-11,5.7-11,18.08s4.93,18.08,11,18.08c8.21,0,8.95-3.32,10.58-4.42.74,2.95.8,7.29.14,8.28-2.28.34-7.2.95-9.33,1C8,57.37.41,52.1.41,34.07S8,10.76,16.71,11.1Z"/><path class="cls-26" d="M16.66,11.25c2.17.09,7.06.68,9.4,1,.62,1,.56,5.12-.14,8-1.62-1.13-2.46-4.4-10.6-4.4C9.26,15.84,4.2,21.51,4.2,34.07S9.26,52.29,15.33,52.29c8.14,0,9-3.26,10.6-4.4.7,2.83.76,6.95.14,8-2.34.35-7.23.95-9.4,1C7.78,57.25.55,51.62.55,34.07S7.78,10.89,16.66,11.25Z"/><path class="cls-27" d="M16.62,11.4c2.21.09,7.08.68,9.47,1,.57,1,.51,4.92-.14,7.63-1.6-1.17-2.54-4.38-10.62-4.38-6.08,0-11.27,5.63-11.27,18.37S9.25,52.44,15.33,52.44c8.08,0,9-3.21,10.62-4.38.66,2.71.71,6.61.14,7.63-2.39.37-7.26,1-9.47,1C7.57,57.12.69,51.13.69,34.07S7.57,11,16.62,11.4Z"/><path class="cls-28" d="M16.57,11.55c2.24.1,7.09.68,9.53,1.05.53,1,.47,4.72-.15,7.31-1.57-1.2-2.62-4.36-10.63-4.36-6.09,0-11.4,5.6-11.4,18.52s5.32,18.52,11.4,18.52c8,0,9.06-3.16,10.63-4.36.61,2.6.67,6.27.15,7.31-2.45.38-7.29,1-9.53,1.05C7.36,57,.83,50.64.83,34.07S7.36,11.15,16.57,11.55Z"/><path class="cls-29" d="M16.52,11.69c2.28.1,7.1.67,9.6,1.06.48,1.05.42,4.51-.15,7-1.55-1.24-2.7-4.34-10.65-4.34C9.23,15.4,3.78,21,3.78,34.07S9.23,52.74,15.33,52.74c8,0,9.09-3.11,10.65-4.34.57,2.48.63,5.94.15,7-2.51.39-7.32,1-9.6,1.06C7.15,56.86,1,50.16,1,34.07S7.15,11.28,16.52,11.69Z"/><path class="cls-30" d="M16.47,11.84c2.32.11,7.11.67,9.67,1.07.43,1.07.37,4.31-.15,6.67-1.53-1.27-2.78-4.33-10.67-4.33-6.11,0-11.68,5.53-11.68,18.82S9.22,52.88,15.33,52.88c7.89,0,9.13-3.05,10.67-4.33.52,2.36.58,5.6.15,6.67-2.56.4-7.35,1-9.67,1.07C6.94,56.73,1.1,49.67,1.1,34.07S6.94,11.41,16.47,11.84Z"/><path class="cls-31" d="M16.43,12c2.36.11,7.12.66,9.74,1.08A15.88,15.88,0,0,1,26,19.41c-1.51-1.31-2.86-4.31-10.68-4.31-6.12,0-11.82,5.49-11.82,19s5.7,19,11.82,19c7.82,0,9.17-3,10.68-4.31a15.88,15.88,0,0,1,.15,6.35c-2.62.41-7.38,1-9.74,1.08-9.69.45-15.19-7-15.19-22.08S6.73,11.53,16.43,12Z"/><path class="cls-32" d="M16.38,12.13c2.4.11,7.13.66,9.8,1.08a16,16,0,0,1-.16,6C24.53,17.9,23.09,15,15.33,15c-6.12,0-12,5.46-12,19.11s5.83,19.11,12,19.11c7.76,0,9.21-2.95,10.7-4.29a16,16,0,0,1,.16,6c-2.67.43-7.41,1-9.8,1.08-9.86.47-15-7.31-15-21.93S6.52,11.66,16.38,12.13Z"/><path class="cls-33" d="M16.33,12.28c2.43.12,7.14.65,9.87,1.09A16.3,16.3,0,0,1,26,19.08c-1.47-1.38-3-4.27-10.71-4.27-6.13,0-12.09,5.43-12.09,19.26s6,19.26,12.09,19.26c7.7,0,9.24-2.89,10.71-4.27a16.3,16.3,0,0,1,.16,5.71c-2.73.44-7.44,1-9.87,1.09-10,.49-14.82-7.65-14.82-21.79S6.31,11.79,16.33,12.28Z"/><path class="cls-34" d="M16.28,12.43c2.47.12,7.15.65,9.94,1.1a16.76,16.76,0,0,1-.16,5.38C24.6,17.5,23,14.66,15.33,14.66c-6.14,0-12.23,5.39-12.23,19.41S9.18,53.48,15.33,53.48c7.63,0,9.28-2.84,10.73-4.25a16.76,16.76,0,0,1,.16,5.38c-2.79.45-7.46,1-9.94,1.1-10.18.51-14.63-8-14.63-21.64S6.1,11.92,16.28,12.43Z"/><path class="cls-35" d="M16.24,12.58c2.51.13,7.16.65,10,1.11a17.52,17.52,0,0,1-.17,5.06c-1.43-1.45-3.18-4.23-10.75-4.23C9.17,14.51,3,19.87,3,34.07S9.17,53.62,15.33,53.62c7.57,0,9.32-2.79,10.75-4.23a17.52,17.52,0,0,1,.17,5.06c-2.84.46-7.49,1-10,1.11C5.9,56.09,1.79,47.24,1.79,34.07S5.9,12,16.24,12.58Z"/><path class="cls-36" d="M16.19,12.72c2.55.13,7.17.64,10.07,1.12a18.74,18.74,0,0,1-.17,4.74c-1.41-1.48-3.26-4.22-10.76-4.22-6.16,0-12.51,5.32-12.51,19.7s6.35,19.7,12.51,19.7c7.51,0,9.35-2.73,10.76-4.22a18.74,18.74,0,0,1,.17,4.74c-2.9.47-7.52,1-10.07,1.12C5.69,56,1.93,46.75,1.93,34.07S5.69,12.18,16.19,12.72Z"/><path class="cls-37" d="M16.14,12.87c2.58.14,7.18.64,10.14,1.12a20.8,20.8,0,0,1-.17,4.42c-1.39-1.52-3.34-4.2-10.78-4.2-6.17,0-12.64,5.29-12.64,19.85S9.16,53.92,15.33,53.92c7.44,0,9.39-2.68,10.78-4.2a20.8,20.8,0,0,1,.17,4.42c-3,.49-7.55,1-10.14,1.12-10.66.56-14.07-9-14.07-21.2S5.48,12.31,16.14,12.87Z"/><path class="cls-38" d="M16.09,13c2.62.14,7.19.63,10.2,1.13a24.63,24.63,0,0,1-.18,4.1c-1.37-1.55-3.42-4.18-10.8-4.18-6.18,0-12.78,5.25-12.78,20s6.6,20,12.78,20c7.38,0,9.43-2.63,10.8-4.18A24.63,24.63,0,0,1,26.3,54c-3,.5-7.58,1-10.2,1.13C5.27,55.7,2.21,45.78,2.21,34.07S5.27,12.43,16.09,13Z"/><path class="cls-39" d="M26.13,50.56a.37.37,0,0,1-.1.3c-1.46,1.51-4.42,3.28-10.8,3.28S3.51,49,3.51,34.56h0c0,5.79,1.09,10.37,3.24,13.6a9.89,9.89,0,0,0,8.48,4.76c7.49,0,9.27-2.94,10.59-4.07a.06.06,0,0,1,.06,0,.07.07,0,0,1,0,.05C26,49.4,26.09,50,26.13,50.56Z"/><path class="cls-40" d="M1,32.31c.13-11.33,3.59-20.59,15-20.59h.73c2,.07,6.73.75,9.12,1.1a.18.18,0,0,1,.15.15,12.19,12.19,0,0,1,.12,1.53.18.18,0,0,1-.07.15.18.18,0,0,1-.17,0,35.74,35.74,0,0,0-9.19-1.77h-.69c-10.78,0-14.94,8.69-15,19.4Z"/><path class="cls-41" d="M26.14,2.53a1.83,1.83,0,0,1,.54-.32C32,.16,50.34,0,53.81,0,65.38,0,77,.74,80.92,2.21a1.83,1.83,0,0,1,.94.78l0,.06c-.28.62-1.39,1.21-3.25,1.64C73.57,5.89,63.69,6.48,53.81,6.48S34,5.89,29,4.7c-1.87-.44-3-1-3.25-1.64A1.71,1.71,0,0,1,26.14,2.53Z"/><path class="cls-42" d="M78.65,2.83a.21.21,0,0,1,0,.34c-4,3-45.73,3-49.68,0a.21.21,0,0,1,0-.34C30.95,1.32,42.38.56,53.81.56S76.68,1.32,78.65,2.83Z"/><path class="cls-43" d="M30.56,2.48C37.39.87,56.24.95,63.26,1,54.57.38,37.56.36,30.56,2.48Z"/><path class="cls-44" d="M72.82,39.33A4,4,0,0,1,68,40.76c-1.82-.68-2.61-2.42-1.77-3.89a4,4,0,0,1,4.81-1.43C72.87,36.12,73.66,37.86,72.82,39.33Z"/><path class="cls-45" d="M69.31,51.8a2.5,2.5,0,0,0-1.88.44,2.08,2.08,0,0,0-.29-.72,5.43,5.43,0,0,1-.29-.79c-.14-.36-.27-.72-.39-1.08l0-.07,2.63-1.48.06.15c.31.85.61,1.7.93,2.55a4.24,4.24,0,0,0,.55,1,2.47,2.47,0,0,0,.7.54l.25.15C70.65,52.75,70,52.13,69.31,51.8Z"/><path class="cls-46" d="M63.59,53.68a1.3,1.3,0,0,1,1.56-.41,1.32,1.32,0,0,1,.34.19c.73-.18,1.58-.25,1.88-.83a.66.66,0,0,0,.06-.39,2.5,2.5,0,0,1,1.88-.44c.67.33,1.35.95,2.24.72,1,.58,2.38.83,3.43,1.41a7.63,7.63,0,0,1,1.84,1.38c.33.35.88.77,1,1.23a1.72,1.72,0,0,1,.73.1c.66.25,1,.84.7,1.32a1.41,1.41,0,0,1-1.7.42c-.65-.24-1-.81-.72-1.29a8.4,8.4,0,0,1-1-1.14,7.54,7.54,0,0,0-2-1.69c-.26-.15-1.78-.84-1.78-.07,0,.22.37.49.5.67a8.54,8.54,0,0,1,.63,1,5.24,5.24,0,0,1,.66,2.08,1.61,1.61,0,0,1,.36.08,1,1,0,0,1,.67,1.44,1.5,1.5,0,0,1-1.79.52,1,1,0,0,1-.67-1.44,1.07,1.07,0,0,1,.18-.22,6.4,6.4,0,0,1-.69-2.2,4.72,4.72,0,0,0-.76-1.48c-.27-.4-.42-.72-1-.9a3.21,3.21,0,0,0-.46,1.85,5.2,5.2,0,0,1-.15,1.05c.52.31.75.8.52,1.2a1.52,1.52,0,0,1-1.81.36c-.73-.27-1.11-.88-.84-1.35a1.21,1.21,0,0,1,1.07-.49c0-.13,0-.26,0-.41,0-.55.35-1.88-.23-2.27-.3-.2-.7,0-1,.06a12.61,12.61,0,0,1-1.24.39l-.22.06a.73.73,0,0,1-.09.3,1.3,1.3,0,0,1-1.56.41C63.61,54.68,63.33,54.13,63.59,53.68Z"/><path class="cls-47" d="M44.29,42.18s-1.55.6-3.13,1.34a19.61,19.61,0,0,0,1.36-2.22A6.93,6.93,0,0,1,44.29,42.18Z"/><path class="cls-48" d="M36.86,46.15s.88-3.29,3.36-4.61a12.35,12.35,0,0,0-.81,2.87c-.32.18-.61.36-.86.54Z"/><path class="cls-49" d="M40.94,41.22a2.65,2.65,0,0,1,1.59.07,19.61,19.61,0,0,1-1.36,2.22c-.61.29-1.22.59-1.75.89a12.35,12.35,0,0,1,.81-2.87A4.55,4.55,0,0,1,40.94,41.22Z"/><path class="cls-50" d="M73.17,46.21A9,9,0,0,0,72,46.7h-.1c-2.56-.49-5.11.12-7.67-.73a7.61,7.61,0,0,1-.82-.21c5.36,0,10.79-.39,15.65-2.2C77.71,44.75,73.33,46.23,73.17,46.21Z"/><path class="cls-51" d="M62.54,45.1c-.26-2.69,1.81-5.09,3.65-7.37a35.53,35.53,0,0,1,4.05.53,26,26,0,0,1,5.29.79c3,.75,4.41,2.87,3.8,4.12a1.38,1.38,0,0,1-.31.39c-4.86,1.81-10.29,2.18-15.65,2.2C62.93,45.6,62.54,45.4,62.54,45.1Z"/><path class="cls-52" d="M36.94,47.31a1.54,1.54,0,0,1-.08-1.16h0l1.69-1.2c1.69-1.2,8.27-3.81,8.27-3.81a20.08,20.08,0,0,1,6.39-1,10.91,10.91,0,0,0,7.31-1.68c1.27-.77,3.61-.83,5.67-.69-1.84,2.29-3.91,4.69-3.65,7.37,0,.49,1.05.73,1.65.85,2.56.85,5.11.24,7.67.73H72c-.78.35-1.85.85-2.9,1.39l-2.63,1.48a7.08,7.08,0,0,0-.91.67,30.43,30.43,0,0,1-3.94,2.66A28.58,28.58,0,0,0,64.47,48a9.14,9.14,0,0,0-1.52.06c.26-.28.06-.51.23-.84-8.24,0-15.63,1.68-23.43,3.81l-.7-.47A5,5,0,0,1,36.94,47.31Z"/><path class="cls-53" d="M63,48.08c-4.09.51-6.68,3.77-9.11,6.4,0-.15,0-.24,0-.24-.75.81-6.28-.25-6.84-.36A23.22,23.22,0,0,1,39.75,51c7.8-2.13,15-3.81,23.26-3.81C62.85,47.57,63.21,47.8,63,48.08Z"/><path class="cls-54" d="M37.08,50c.39-.92.86-1.52,1.81-.73a29.91,29.91,0,0,1,8,8.92c-1.63-.95-3.52-1.48-5.22-2.39l.63.25S37.6,52.31,37.08,50Z"/><path class="cls-55" d="M47.48,62.39a17.4,17.4,0,0,1,2.54.36,1.85,1.85,0,0,1,1.64-.48c.88.11,1.5.66,1.39,1.21s-.91.91-1.79.8a1.61,1.61,0,0,1-1.37-.86c-.87.16-2.25.26-2.9.46-1,.32-1.84.85-1.23,1.76a2,2,0,0,1,.27.6h0c.84.11,1.41.72,1.28,1.37a1.5,1.5,0,0,1-1.74,1c-.84-.11-1.41-.72-1.28-1.37a1,1,0,0,1,.18-.4c-.13-.13-.27-.27-.4-.42A6,6,0,0,1,47,63.19C47,63,47.34,62.72,47.48,62.39Z"/><path class="cls-56" d="M47.52,61.91c-.67-.56-1.49-.37-2.27-.32.29-.15.69-.34,1.1-.5a22,22,0,0,0,2.41-1.17c.51.15.83.54.75.95a1.14,1.14,0,0,1-1.33.7h-.06a2.46,2.46,0,0,1-.59.71A.55.55,0,0,0,47.52,61.91Z"/><path class="cls-57" d="M46.8,58.11a30.06,30.06,0,0,0-7.91-8.81c-.95-.79-1.41-.19-1.81.73a1.45,1.45,0,0,1,0-.66,2.52,2.52,0,0,1,2.83-1.79c2.86,3.49,7.61,6.63,9.77,10.39a1.39,1.39,0,0,1-.32,1.48c-.2.17-.4.32-.59.47l-.67.36A2.83,2.83,0,0,0,46.8,58.11Z"/><path class="cls-58" d="M39.68,62c1.36-.12,5.12-.16,5.12-.16l.44-.23c.79,0,1.6-.24,2.27.32a.55.55,0,0,1,0,.35l-.14.12h.1c-.14.34-.46.66-.49.81a6,6,0,0,0-2.89,3.19c-.75-.85-1.49-2-2.16-2-.95-.12-3.68.54-6.58-2.13s-7.9-5.79-7.62-7.19a10.6,10.6,0,0,1,3.7,1.28C32.08,56.82,38.39,62.1,39.68,62Z"/><path class="cls-59" d="M33.35,52.94c2.85.79,6.78,2.3,8.29,2.89,1.7.91,3.59,1.44,5.22,2.39l-.06-.11a2.83,2.83,0,0,1,1.29,2.16,13.21,13.21,0,0,1-1.75.82,7.5,7.5,0,0,1-4.12-.54c-2.86-1-10.83-4.3-10.83-4.3l.05,0A10.6,10.6,0,0,0,27.75,55a.66.66,0,0,1,0-.07C28.22,53.59,29.75,51.95,33.35,52.94Z"/><path class="cls-60" d="M73.5,42.26a4,4,0,0,1-4.81,1.43c-1.82-.68-2.61-2.42-1.77-3.89a4,4,0,0,1,4.81-1.43C73.54,39.05,74.33,40.79,73.5,42.26Z"/><path class="cls-61" d="M73.33,42.31A3.65,3.65,0,0,1,69,43.61c-1.65-.62-2.37-2.2-1.61-3.54a3.65,3.65,0,0,1,4.37-1.3C73.37,39.39,74.09,41,73.33,42.31Z"/><path class="cls-62" d="M73.24,42.34a3.4,3.4,0,0,1-4.07,1.22,2.31,2.31,0,0,1-1.5-3.3A3.4,3.4,0,0,1,71.74,39,2.31,2.31,0,0,1,73.24,42.34Z"/><path class="cls-63" d="M43.89,49.83a28,28,0,0,0,2.79-.58c.58-.15,1.17-.26,1.73-.45.28-.1.57-.11.86-.18s.63-.18,1-.25c.86-.17,1.69-.3,2.56-.42.54-.07,1.08-.12,1.62-.21s1-.28,1.53-.41a8.27,8.27,0,0,1,1.95-.21c.47,0,.91.12,1.41.08.34,0,.67-.18,1-.22a16.59,16.59,0,0,1,1.92,0,2.69,2.69,0,0,1,1.38.35c.28.16.4.31.28.57a.8.8,0,0,1-.55.41c-.28.09-.38.06-.45-.09s.22-.57,0-.57A4.77,4.77,0,0,0,61,47.52l0,0a1.34,1.34,0,0,0-.42.16c-.11.08-.12.17-.17.28s-.17.46-.28.67-.39.68-.65.59-.05-.71,0-.87c.05-.32.17-.55-.35-.55s-.92,0-1.1.53-.18,1-.33,1.52A5,5,0,0,1,57.11,51c-.13.21-.47.71-.86.67s0-.5,0-.64a9.28,9.28,0,0,0,.43-1,3.12,3.12,0,0,0,.1-1.06,1.05,1.05,0,0,0-.52-1,1.39,1.39,0,0,0-1.81.44A3.34,3.34,0,0,0,54.28,51a2.89,2.89,0,0,1-.11,2,.7.7,0,0,1-.71.3c-.29-.05-.26-.18-.29-.41-.07-.65,0-1.33-.06-2a5.65,5.65,0,0,0-.43-1.81c-.19-.41-.5-.86-1.11-.64-1.07.38-1,1.5-.91,2.3,0,.33.66,2.75.09,2.8-.31,0-.6-.44-.7-.63-.2-.37-.41-.74-.59-1.11-.32-.68-.5-1.39-.84-2.06-.14-.28-.47-.53-.79-.24a1.22,1.22,0,0,0-.29.81c0,.51,0,1,0,1.53,0,.21,0,.71-.22.86s-.39-.11-.51-.28a10.25,10.25,0,0,1-.62-1,6.71,6.71,0,0,0-.29-.67c-.45-.66-1.51-.36-2.25-.33-.26,0-.67,0-.74-.29S43.63,49.86,43.89,49.83Z"/><path class="cls-64" d="M39.91,47.57a3.54,3.54,0,0,1,2.15.94S48.9,54.73,49.68,58C47.51,54.2,42.77,51.07,39.91,47.57Z"/><path class="cls-65" d="M62.09,63.86c.52-.32-.2-1.09-.3-1.85l.35.2a17.73,17.73,0,0,1,1.23-1.47.67.67,0,0,1-.05-.74,1.16,1.16,0,0,1,1.39-.38.79.79,0,0,1,.54,1.11,1.11,1.11,0,0,1-1.15.45,17.27,17.27,0,0,1-1.5,2s4-.7,5.34-.17l.27.13a1.59,1.59,0,0,1,1.07,0c.64.24.93.81.66,1.29a1.37,1.37,0,0,1-1.64.43,1,1,0,0,1-.75-1c-1.46-.79-4.74.44-4.74.44a5.6,5.6,0,0,1,4.44,3.17l0,0a1.18,1.18,0,0,1,.39.07.76.76,0,0,1,.49,1.09,1.12,1.12,0,0,1-1.34.4A.76.76,0,0,1,66.33,68a.83.83,0,0,1,.21-.23,4.66,4.66,0,0,0-.86-1.49c-1-1.4-3.94-1.14-3.94-1.14a8.51,8.51,0,0,1,0,3,2,2,0,0,1-.27.56.8.8,0,0,1,.26,1,1.34,1.34,0,0,1-1.6.41c-.62-.23-.92-.79-.65-1.26a1.3,1.3,0,0,1,1.45-.46v0c.88-1.55-.4-3.9-.4-3.9l-.73-.57A4.08,4.08,0,0,0,62.09,63.86Z"/><path class="cls-66" d="M55.61,53.89l.31-.26c2.61-2,6-3.19,7.91-5.61h.64a28.58,28.58,0,0,1-2.89,4.89c-1.48.89-2.78,1.61-2.78,1.61l.1.4A5.11,5.11,0,0,0,55.61,53.89Z"/><path class="cls-67" d="M58.9,54.91c.33,1.34,1.38,5.61,1.5,6s.9.83,1.38,1.1c.1.76.82,1.53.3,1.85a4.08,4.08,0,0,1-2.25,0c-.75-.6-2-1.64-3.4-2.89s-2.1-3.68-2.4-5.24a8.23,8.23,0,0,1,1.58-1.85A5.11,5.11,0,0,1,58.9,54.91Z"/><path class="cls-68" d="M63.83,48c-1.94,2.42-5.3,3.61-7.91,5.61A8.42,8.42,0,0,0,54,55.74c-.11-.55-.17-1-.19-1.25C56.44,51.67,59.22,48.14,63.83,48Z"/><path class="cls-69" d="M71.32,42.62l-.74-3.13A4,4,0,0,1,71.32,42.62Z"/><ellipse class="cls-70" cx="69.55" cy="40.24" rx="0.34" ry="0.27"/><path class="cls-70" d="M66.43,38.53h-.31l-.88,0c-.38,0-.84.05-1.37.11a15.2,15.2,0,0,0-1.76.3,7.86,7.86,0,0,0-2,.71l-.24.14-.22.13-.22.1-.25.09a6.32,6.32,0,0,1-1.09.26c-.77.12-1.61.15-2.46.19s-1.73.08-2.6.17a17.94,17.94,0,0,0-2.58.44,11.48,11.48,0,0,0-1.22.38L48.11,42,46,42.8l-1.9.73-.84.33-.75.31-1.22.51-.78.33-.28.12.29-.09.82-.27,1.27-.43.78-.26.87-.29,1.94-.65,2.16-.74,1.14-.4c.38-.13.76-.24,1.16-.34a17.41,17.41,0,0,1,2.49-.41c.85-.09,1.71-.13,2.56-.18a22.3,22.3,0,0,0,2.53-.24,6.28,6.28,0,0,0,1.19-.32l.28-.12.27-.14.23-.15.21-.13a7.88,7.88,0,0,1,1.82-.74c.61-.17,1.18-.29,1.69-.38s1-.16,1.34-.2l.87-.09Z"/></g></g></svg>