<svg xmlns="http://www.w3.org/2000/svg" xmlns:xlink="http://www.w3.org/1999/xlink" viewBox="0 0 75.12 61.73"><defs><style>.cls-1{fill:none;}.cls-2{isolation:isolate;}.cls-3{fill:url(#linear-gradient);}.cls-4{fill:url(#linear-gradient-2);}.cls-5{fill:url(#linear-gradient-3);}.cls-6{fill:url(#linear-gradient-4);}.cls-7{fill:url(#linear-gradient-5);}.cls-8{fill:url(#linear-gradient-6);}.cls-9{fill:url(#linear-gradient-7);}.cls-10{fill:url(#linear-gradient-8);}.cls-11{fill:url(#linear-gradient-9);}.cls-12{fill:url(#linear-gradient-10);}.cls-13{fill:url(#linear-gradient-11);}.cls-14{fill:url(#linear-gradient-12);}.cls-15,.cls-16,.cls-17,.cls-18,.cls-19,.cls-20,.cls-21,.cls-22,.cls-23,.cls-24,.cls-25,.cls-26{fill:#630000;}.cls-15,.cls-37,.cls-49{opacity:0;}.cls-16{opacity:0.01;}.cls-17{opacity:0.01;}.cls-18{opacity:0.02;}.cls-19{opacity:0.03;}.cls-20{opacity:0.04;}.cls-21{opacity:0.04;}.cls-22{opacity:0.05;}.cls-23{opacity:0.06;}.cls-24{opacity:0.07;}.cls-25{opacity:0.07;}.cls-26{opacity:0.08;}.cls-27{fill:#248000;}.cls-28{fill:#73e846;}.cls-29{fill:#288f00;}.cls-30{fill:#35bf00;}.cls-31{fill:url(#linear-gradient-13);}.cls-32{fill:#31ad00;}.cls-33{fill:url(#linear-gradient-14);}.cls-34{clip-path:url(#clip-path);}.cls-35,.cls-36{opacity:0.25;mix-blend-mode:screen;}.cls-35{fill:url(#radial-gradient);}.cls-36{fill:url(#radial-gradient-2);}.cls-37{fill:url(#linear-gradient-16);}.cls-38,.cls-50{opacity:0.09;}.cls-38{fill:url(#linear-gradient-17);}.cls-39,.cls-51{opacity:0.18;}.cls-39{fill:url(#linear-gradient-18);}.cls-40,.cls-52{opacity:0.27;}.cls-40{fill:url(#linear-gradient-19);}.cls-41,.cls-53{opacity:0.36;}.cls-41{fill:url(#linear-gradient-20);}.cls-42,.cls-54{opacity:0.45;}.cls-42{fill:url(#linear-gradient-21);}.cls-43,.cls-55{opacity:0.55;}.cls-43{fill:url(#linear-gradient-22);}.cls-44,.cls-56{opacity:0.64;}.cls-44{fill:url(#linear-gradient-23);}.cls-45,.cls-57{opacity:0.73;}.cls-45{fill:url(#linear-gradient-24);}.cls-46,.cls-58{opacity:0.82;}.cls-46{fill:url(#linear-gradient-25);}.cls-47,.cls-59{opacity:0.91;}.cls-47{fill:url(#linear-gradient-26);}.cls-48{fill:url(#linear-gradient-27);}.cls-49{fill:url(#linear-gradient-28);}.cls-50{fill:url(#linear-gradient-29);}.cls-51{fill:url(#linear-gradient-30);}.cls-52{fill:url(#linear-gradient-31);}.cls-53{fill:url(#linear-gradient-32);}.cls-54{fill:url(#linear-gradient-33);}.cls-55{fill:url(#linear-gradient-34);}.cls-56{fill:url(#linear-gradient-35);}.cls-57{fill:url(#linear-gradient-36);}.cls-58{fill:url(#linear-gradient-37);}.cls-59{fill:url(#linear-gradient-38);}.cls-60{fill:#227800;}.cls-61{fill:#2ea300;}.cls-62{fill:url(#linear-gradient-39);}.cls-63{fill:url(#linear-gradient-40);}.cls-64{fill:url(#linear-gradient-41);}.cls-65{fill:url(#linear-gradient-42);}.cls-66{fill:url(#linear-gradient-43);}.cls-67{fill:url(#linear-gradient-44);}.cls-68{fill:#ffdbba;opacity:0.2;}</style><linearGradient id="linear-gradient" x1="2.67" y1="38.75" x2="73.41" y2="38.75" gradientUnits="userSpaceOnUse"><stop offset="0" stop-color="#387502"/><stop offset="0.06" stop-color="#4e8e1b"/><stop offset="0.12" stop-color="#60a330"/><stop offset="0.19" stop-color="#6db23f"/><stop offset="0.28" stop-color="#75ba48"/><stop offset="0.4" stop-color="#77bd4b"/><stop offset="0.64" stop-color="#75bb49"/><stop offset="0.76" stop-color="#6fb441"/><stop offset="0.84" stop-color="#64a735"/><stop offset="0.92" stop-color="#549522"/><stop offset="0.98" stop-color="#407e0b"/><stop offset="1" stop-color="#387502"/></linearGradient><linearGradient id="linear-gradient-2" x1="2.67" y1="38.72" x2="73.41" y2="38.72" xlink:href="#linear-gradient"/><linearGradient id="linear-gradient-3" x1="2.67" y1="38.69" x2="73.41" y2="38.69" xlink:href="#linear-gradient"/><linearGradient id="linear-gradient-4" x1="2.67" y1="38.66" x2="73.41" y2="38.66" xlink:href="#linear-gradient"/><linearGradient id="linear-gradient-5" x1="2.67" y1="38.63" x2="73.41" y2="38.63" xlink:href="#linear-gradient"/><linearGradient id="linear-gradient-6" x1="2.67" y1="38.6" x2="73.41" y2="38.6" xlink:href="#linear-gradient"/><linearGradient id="linear-gradient-7" x1="2.67" y1="38.58" x2="73.41" y2="38.58" xlink:href="#linear-gradient"/><linearGradient id="linear-gradient-8" x1="2.67" y1="38.55" x2="73.41" y2="38.55" xlink:href="#linear-gradient"/><linearGradient id="linear-gradient-9" x1="2.67" y1="38.52" x2="73.41" y2="38.52" xlink:href="#linear-gradient"/><linearGradient id="linear-gradient-10" x1="2.67" y1="38.49" x2="73.41" y2="38.49" xlink:href="#linear-gradient"/><linearGradient id="linear-gradient-11" x1="2.67" y1="38.46" x2="73.41" y2="38.46" xlink:href="#linear-gradient"/><linearGradient id="linear-gradient-12" x1="2.67" y1="38.43" x2="73.41" y2="38.43" xlink:href="#linear-gradient"/><linearGradient id="linear-gradient-13" x1="2.31" y1="15.67" x2="73.66" y2="15.67" xlink:href="#linear-gradient"/><linearGradient id="linear-gradient-14" x1="3.39" y1="15.03" x2="74.15" y2="15.03" gradientUnits="userSpaceOnUse"><stop offset="0" stop-color="#387502"/><stop offset="0.08" stop-color="#3e7b08"/><stop offset="0.18" stop-color="#4d8d1b"/><stop offset="0.3" stop-color="#67aa38"/><stop offset="0.37" stop-color="#77bd4b"/><stop offset="0.47" stop-color="#74b947"/><stop offset="0.57" stop-color="#69ae3b"/><stop offset="0.67" stop-color="#589a28"/><stop offset="0.77" stop-color="#417f0c"/><stop offset="0.8" stop-color="#387502"/><stop offset="1" stop-color="#5d9f2d"/></linearGradient><clipPath id="clip-path" transform="translate(0 11.68)"><path class="cls-1" d="M9,29.12a6.93,6.93,0,0,1-5.38-2.19,4.27,4.27,0,0,1-1-3.57L5.74,5.51C6.18,3,9.41.94,12.95.94H63c3.53,0,6.77,2,7.21,4.57l3.11,17.84a4.27,4.27,0,0,1-1,3.57A6.93,6.93,0,0,1,67,29.12Z"/></clipPath><radialGradient id="radial-gradient" cx="695.47" cy="54.53" r="12.54" gradientTransform="matrix(0.22, 0, 0, 1.11, -145.05, -58.52)" gradientUnits="userSpaceOnUse"><stop offset="0" stop-color="#ffdbba"/><stop offset="1" stop-color="#1c0000"/></radialGradient><radialGradient id="radial-gradient-2" cx="-2214.52" cy="-69.19" r="12.54" gradientTransform="matrix(0, -0.22, -1.11, 0, -5.95, -482.63)" gradientUnits="userSpaceOnUse"><stop offset="0" stop-color="#ffdbba"/><stop offset="1" stop-color="#400000"/></radialGradient><linearGradient id="linear-gradient-16" x1="37.98" y1="43.17" x2="37.98" y2="11.95" gradientUnits="userSpaceOnUse"><stop offset="0.05" stop-color="#eb8766"/><stop offset="0.34" stop-color="#ffbd9c"/><stop offset="1" stop-color="#ffcead"/></linearGradient><linearGradient id="linear-gradient-17" x1="37.98" y1="43.11" x2="37.98" y2="12.01" gradientUnits="userSpaceOnUse"><stop offset="0" stop-color="#db855d"/><stop offset="0.05" stop-color="#db865d"/><stop offset="0.34" stop-color="#f2bc94"/><stop offset="0.37" stop-color="#f3be96"/><stop offset="0.72" stop-color="#efc098"/><stop offset="0.8" stop-color="#edc199"/><stop offset="1" stop-color="#f0caa1"/></linearGradient><linearGradient id="linear-gradient-18" x1="37.98" y1="43.06" x2="37.98" y2="12.06" gradientUnits="userSpaceOnUse"><stop offset="0" stop-color="#ca8454"/><stop offset="0.05" stop-color="#cb8455"/><stop offset="0.34" stop-color="#e5bc8c"/><stop offset="0.37" stop-color="#e6be8e"/><stop offset="0.63" stop-color="#e2bd8d"/><stop offset="0.8" stop-color="#dbba8a"/><stop offset="1" stop-color="#e2c596"/></linearGradient><linearGradient id="linear-gradient-19" x1="37.98" y1="43" x2="37.98" y2="12.12" gradientUnits="userSpaceOnUse"><stop offset="0" stop-color="#ba824b"/><stop offset="0.05" stop-color="#bb834c"/><stop offset="0.34" stop-color="#d8bb84"/><stop offset="0.37" stop-color="#dabe87"/><stop offset="0.58" stop-color="#d6bb84"/><stop offset="0.78" stop-color="#cab37c"/><stop offset="0.8" stop-color="#c9b27b"/><stop offset="1" stop-color="#d3c18a"/></linearGradient><linearGradient id="linear-gradient-20" x1="37.98" y1="42.94" x2="37.98" y2="12.18" gradientUnits="userSpaceOnUse"><stop offset="0" stop-color="#aa8042"/><stop offset="0.05" stop-color="#ab8243"/><stop offset="0.34" stop-color="#cbba7c"/><stop offset="0.37" stop-color="#cebe7f"/><stop offset="0.55" stop-color="#cabb7c"/><stop offset="0.72" stop-color="#beb072"/><stop offset="0.8" stop-color="#b7aa6c"/><stop offset="1" stop-color="#c4bd7e"/></linearGradient><linearGradient id="linear-gradient-21" x1="37.98" y1="42.88" x2="37.98" y2="12.24" gradientUnits="userSpaceOnUse"><stop offset="0" stop-color="#9a7f39"/><stop offset="0.05" stop-color="#9b813a"/><stop offset="0.34" stop-color="#beba74"/><stop offset="0.37" stop-color="#c1be78"/><stop offset="0.53" stop-color="#bdba74"/><stop offset="0.69" stop-color="#b1af69"/><stop offset="0.8" stop-color="#a5a35d"/><stop offset="1" stop-color="#b5b973"/></linearGradient><linearGradient id="linear-gradient-22" x1="37.98" y1="42.82" x2="37.98" y2="12.3" gradientUnits="userSpaceOnUse"><stop offset="0" stop-color="#897d2f"/><stop offset="0.05" stop-color="#8b7f32"/><stop offset="0.34" stop-color="#b2b96c"/><stop offset="0.37" stop-color="#b5bd70"/><stop offset="0.52" stop-color="#b1b96c"/><stop offset="0.66" stop-color="#a5ae60"/><stop offset="0.8" stop-color="#929b4d"/><stop offset="1" stop-color="#a7b467"/></linearGradient><linearGradient id="linear-gradient-23" x1="37.98" y1="42.76" x2="37.98" y2="12.36" gradientUnits="userSpaceOnUse"><stop offset="0" stop-color="#797c26"/><stop offset="0.05" stop-color="#7b7e29"/><stop offset="0.34" stop-color="#a5b964"/><stop offset="0.37" stop-color="#a8bd69"/><stop offset="0.5" stop-color="#a4b965"/><stop offset="0.63" stop-color="#99ae59"/><stop offset="0.76" stop-color="#879b46"/><stop offset="0.8" stop-color="#80943e"/><stop offset="1" stop-color="#98b05c"/></linearGradient><linearGradient id="linear-gradient-24" x1="37.98" y1="42.7" x2="37.98" y2="12.42" gradientUnits="userSpaceOnUse"><stop offset="0" stop-color="#697a1d"/><stop offset="0.05" stop-color="#6b7d20"/><stop offset="0.34" stop-color="#98b85c"/><stop offset="0.37" stop-color="#9cbd61"/><stop offset="0.49" stop-color="#98b95d"/><stop offset="0.61" stop-color="#8eae51"/><stop offset="0.73" stop-color="#7c9a3e"/><stop offset="0.8" stop-color="#6e8c2f"/><stop offset="1" stop-color="#89ac50"/></linearGradient><linearGradient id="linear-gradient-25" x1="37.98" y1="42.64" x2="37.98" y2="12.48" gradientUnits="userSpaceOnUse"><stop offset="0" stop-color="#597814"/><stop offset="0.05" stop-color="#5b7c17"/><stop offset="0.34" stop-color="#8bb754"/><stop offset="0.37" stop-color="#90bd5a"/><stop offset="0.48" stop-color="#8cb956"/><stop offset="0.59" stop-color="#82ae4a"/><stop offset="0.7" stop-color="#709a37"/><stop offset="0.8" stop-color="#5c8420"/><stop offset="1" stop-color="#7aa844"/></linearGradient><linearGradient id="linear-gradient-26" x1="37.98" y1="42.58" x2="37.98" y2="12.54" gradientUnits="userSpaceOnUse"><stop offset="0" stop-color="#48770b"/><stop offset="0.05" stop-color="#4b7a0f"/><stop offset="0.34" stop-color="#7eb74c"/><stop offset="0.37" stop-color="#83bd52"/><stop offset="0.48" stop-color="#80b94e"/><stop offset="0.58" stop-color="#75ae42"/><stop offset="0.69" stop-color="#649a2f"/><stop offset="0.79" stop-color="#4c7f13"/><stop offset="0.8" stop-color="#4a7d11"/><stop offset="1" stop-color="#6ca339"/></linearGradient><linearGradient id="linear-gradient-27" x1="37.98" y1="42.52" x2="37.98" y2="12.6" xlink:href="#linear-gradient-14"/><linearGradient id="linear-gradient-28" x1="37.69" y1="36.58" x2="37.69" y2="17.89" gradientUnits="userSpaceOnUse"><stop offset="0" stop-color="#ff9b7a"/><stop offset="0.17" stop-color="#ffb796"/><stop offset="0.91" stop-color="#ffba99"/><stop offset="0.97" stop-color="#ffcead"/></linearGradient><linearGradient id="linear-gradient-29" x1="37.69" y1="36.56" x2="37.69" y2="17.91" gradientUnits="userSpaceOnUse"><stop offset="0" stop-color="#eb986f"/><stop offset="0.17" stop-color="#ebb188"/><stop offset="0.91" stop-color="#ebb48b"/><stop offset="0.97" stop-color="#ebc69d"/></linearGradient><linearGradient id="linear-gradient-30" x1="37.69" y1="36.55" x2="37.69" y2="17.92" gradientUnits="userSpaceOnUse"><stop offset="0" stop-color="#d79564"/><stop offset="0.17" stop-color="#d7ac7b"/><stop offset="0.91" stop-color="#d7ae7d"/><stop offset="0.97" stop-color="#d7be8e"/></linearGradient><linearGradient id="linear-gradient-31" x1="37.69" y1="36.53" x2="37.69" y2="17.94" gradientUnits="userSpaceOnUse"><stop offset="0" stop-color="#c39159"/><stop offset="0.17" stop-color="#c3a66d"/><stop offset="0.91" stop-color="#c3a86f"/><stop offset="0.97" stop-color="#c3b77e"/></linearGradient><linearGradient id="linear-gradient-32" x1="37.69" y1="36.51" x2="37.69" y2="17.96" gradientUnits="userSpaceOnUse"><stop offset="0" stop-color="#af8e4e"/><stop offset="0.17" stop-color="#afa05f"/><stop offset="0.91" stop-color="#afa261"/><stop offset="0.97" stop-color="#afaf6e"/></linearGradient><linearGradient id="linear-gradient-33" x1="37.69" y1="36.49" x2="37.69" y2="17.98" gradientUnits="userSpaceOnUse"><stop offset="0" stop-color="#9b8b43"/><stop offset="0.17" stop-color="#9b9a52"/><stop offset="0.91" stop-color="#9b9c53"/><stop offset="0.97" stop-color="#9ba75e"/></linearGradient><linearGradient id="linear-gradient-34" x1="37.69" y1="36.48" x2="37.69" y2="17.99" gradientUnits="userSpaceOnUse"><stop offset="0" stop-color="#868837"/><stop offset="0.17" stop-color="#869544"/><stop offset="0.91" stop-color="#869646"/><stop offset="0.97" stop-color="#869f4f"/></linearGradient><linearGradient id="linear-gradient-35" x1="37.69" y1="36.46" x2="37.69" y2="18.01" gradientUnits="userSpaceOnUse"><stop offset="0" stop-color="#72852c"/><stop offset="0.17" stop-color="#728f37"/><stop offset="0.91" stop-color="#729038"/><stop offset="0.97" stop-color="#72973f"/></linearGradient><linearGradient id="linear-gradient-36" x1="37.69" y1="36.44" x2="37.69" y2="18.03" gradientUnits="userSpaceOnUse"><stop offset="0" stop-color="#5e8221"/><stop offset="0.17" stop-color="#5e8929"/><stop offset="0.91" stop-color="#5e8a2a"/><stop offset="0.97" stop-color="#5e8f2f"/></linearGradient><linearGradient id="linear-gradient-37" x1="37.69" y1="36.42" x2="37.69" y2="18.05" gradientUnits="userSpaceOnUse"><stop offset="0" stop-color="#4a7e16"/><stop offset="0.17" stop-color="#4a831b"/><stop offset="0.91" stop-color="#4a841c"/><stop offset="0.97" stop-color="#4a881f"/></linearGradient><linearGradient id="linear-gradient-38" x1="37.69" y1="36.41" x2="37.69" y2="18.06" gradientUnits="userSpaceOnUse"><stop offset="0" stop-color="#367b0b"/><stop offset="0.17" stop-color="#367e0e"/><stop offset="0.91" stop-color="#367e0e"/><stop offset="0.97" stop-color="#368010"/></linearGradient><linearGradient id="linear-gradient-39" x1="37.68" y1="46.05" x2="37.68" y2="17.09" gradientUnits="userSpaceOnUse"><stop offset="0" stop-color="#2b8b00"/><stop offset="0.23" stop-color="#309106"/><stop offset="0.37" stop-color="#35970d"/><stop offset="0.61" stop-color="#329309"/><stop offset="0.8" stop-color="#2b8b00"/><stop offset="1" stop-color="#319208"/></linearGradient><linearGradient id="linear-gradient-40" x1="37.67" y1="46" x2="37.67" y2="17.12" gradientUnits="userSpaceOnUse"><stop offset="0" stop-color="#2d8601"/><stop offset="0.16" stop-color="#338c07"/><stop offset="0.37" stop-color="#429e19"/><stop offset="0.54" stop-color="#3f9a15"/><stop offset="0.72" stop-color="#348e09"/><stop offset="0.8" stop-color="#2d8601"/><stop offset="1" stop-color="#3a940f"/></linearGradient><linearGradient id="linear-gradient-41" x1="37.67" y1="45.95" x2="37.67" y2="17.16" gradientUnits="userSpaceOnUse"><stop offset="0" stop-color="#308201"/><stop offset="0.12" stop-color="#368807"/><stop offset="0.28" stop-color="#459a19"/><stop offset="0.37" stop-color="#50a626"/><stop offset="0.51" stop-color="#4da222"/><stop offset="0.65" stop-color="#429716"/><stop offset="0.79" stop-color="#318403"/><stop offset="0.8" stop-color="#308201"/><stop offset="1" stop-color="#429717"/></linearGradient><linearGradient id="linear-gradient-42" x1="37.66" y1="45.9" x2="37.66" y2="17.19" gradientUnits="userSpaceOnUse"><stop offset="0" stop-color="#337e01"/><stop offset="0.1" stop-color="#398407"/><stop offset="0.23" stop-color="#489619"/><stop offset="0.37" stop-color="#5dae32"/><stop offset="0.49" stop-color="#5aaa2e"/><stop offset="0.61" stop-color="#509f22"/><stop offset="0.73" stop-color="#3f8b0f"/><stop offset="0.8" stop-color="#337e01"/><stop offset="1" stop-color="#4b9a1e"/></linearGradient><linearGradient id="linear-gradient-43" x1="37.65" y1="45.86" x2="37.65" y2="17.23" gradientUnits="userSpaceOnUse"><stop offset="0" stop-color="#357902"/><stop offset="0.09" stop-color="#3b7f08"/><stop offset="0.21" stop-color="#4b921b"/><stop offset="0.34" stop-color="#65af38"/><stop offset="0.37" stop-color="#6ab53e"/><stop offset="0.48" stop-color="#67b13a"/><stop offset="0.59" stop-color="#5ca52e"/><stop offset="0.7" stop-color="#4b921b"/><stop offset="0.8" stop-color="#357902"/><stop offset="1" stop-color="#549c25"/></linearGradient><linearGradient id="linear-gradient-44" x1="37.64" y1="45.81" x2="37.64" y2="17.26" xlink:href="#linear-gradient-14"/></defs><title>screen2-hold-less</title><g class="cls-2"><g id="Layer_1" data-name="Layer 1"><path class="cls-3" d="M2.67,27.46,5.19,45.71h0A6.06,6.06,0,0,0,11.07,50H64.89a6.06,6.06,0,0,0,5.89-4.34h0L73.3,27.46Z" transform="translate(0 11.68)"/><path class="cls-4" d="M2.67,27.46,5.19,45.67h0A6.06,6.06,0,0,0,11.07,50H64.89a6.06,6.06,0,0,0,5.89-4.32h0L73.3,27.46Z" transform="translate(0 11.68)"/><path class="cls-5" d="M2.67,27.46,5.19,45.63h0a6.06,6.06,0,0,0,5.89,4.3H64.89a6.06,6.06,0,0,0,5.89-4.3h0L73.3,27.46Z" transform="translate(0 11.68)"/><path class="cls-6" d="M2.67,27.46,5.19,45.6h0a6.05,6.05,0,0,0,5.89,4.28H64.89a6.05,6.05,0,0,0,5.89-4.28h0L73.3,27.46Z" transform="translate(0 11.68)"/><path class="cls-7" d="M2.67,27.46l2.51,18.1h0a6,6,0,0,0,5.89,4.25H64.89a6,6,0,0,0,5.89-4.25h0l2.51-18.1Z" transform="translate(0 11.68)"/><path class="cls-8" d="M2.67,27.46,5.19,45.52h0a6,6,0,0,0,5.89,4.23H64.89a6,6,0,0,0,5.89-4.23h0L73.3,27.46Z" transform="translate(0 11.68)"/><path class="cls-9" d="M2.67,27.46l2.51,18h0a6,6,0,0,0,5.89,4.21H64.89a6,6,0,0,0,5.89-4.21h0l2.51-18Z" transform="translate(0 11.68)"/><path class="cls-10" d="M2.67,27.46l2.51,18h0a6,6,0,0,0,5.89,4.19H64.89a6,6,0,0,0,5.89-4.19h0l2.51-18Z" transform="translate(0 11.68)"/><path class="cls-11" d="M2.67,27.46l2.51,18h0a6,6,0,0,0,5.89,4.17H64.89a6,6,0,0,0,5.89-4.17h0l2.51-18Z" transform="translate(0 11.68)"/><path class="cls-12" d="M2.67,27.46,5.19,45.37h0a6,6,0,0,0,5.89,4.15H64.89a6,6,0,0,0,5.89-4.15h0L73.3,27.46Z" transform="translate(0 11.68)"/><path class="cls-13" d="M2.67,27.46,5.19,45.33h0a6,6,0,0,0,5.89,4.13H64.89a6,6,0,0,0,5.89-4.13h0L73.3,27.46Z" transform="translate(0 11.68)"/><path class="cls-14" d="M2.67,27.46,5.19,45.29h0a6,6,0,0,0,5.89,4.11H64.89a6,6,0,0,0,5.89-4.11h0L73.3,27.46Z" transform="translate(0 11.68)"/><path class="cls-15" d="M2.67,29.35l1.66,2.56c.8.81,3,1.39,5.89,1.39H64.89c2.86,0,5.09-.57,5.89-1.39l2.52-2.56Z" transform="translate(0 11.68)"/><path class="cls-16" d="M2.67,29.35l1.66,2.52c.8.8,3,1.37,5.89,1.37H64.89c2.86,0,5.09-.57,5.89-1.37l2.52-2.52Z" transform="translate(0 11.68)"/><path class="cls-17" d="M2.67,29.35l1.66,2.48c.8.79,3,1.34,5.89,1.34H64.89c2.86,0,5.09-.56,5.89-1.34l2.52-2.48Z" transform="translate(0 11.68)"/><path class="cls-18" d="M2.67,29.35l1.66,2.44c.8.77,3,1.32,5.89,1.32H64.89c2.86,0,5.09-.55,5.89-1.32l2.52-2.44Z" transform="translate(0 11.68)"/><path class="cls-19" d="M2.67,29.35l1.66,2.4c.8.76,3,1.3,5.89,1.3H64.89c2.86,0,5.09-.54,5.89-1.3l2.52-2.4Z" transform="translate(0 11.68)"/><path class="cls-20" d="M2.67,29.35,4.33,31.7c.8.75,3,1.28,5.89,1.28H64.89c2.86,0,5.09-.53,5.89-1.28l2.52-2.36Z" transform="translate(0 11.68)"/><path class="cls-21" d="M2.67,29.35l1.66,2.32c.8.74,3,1.25,5.89,1.25H64.89c2.86,0,5.09-.52,5.89-1.25l2.52-2.32Z" transform="translate(0 11.68)"/><path class="cls-22" d="M2.67,29.35l1.66,2.28c.8.72,3,1.23,5.89,1.23H64.89c2.86,0,5.09-.51,5.89-1.23l2.52-2.28Z" transform="translate(0 11.68)"/><path class="cls-23" d="M2.67,29.35l1.66,2.24c.8.71,3,1.21,5.89,1.21H64.89c2.86,0,5.09-.5,5.89-1.21l2.52-2.24Z" transform="translate(0 11.68)"/><path class="cls-24" d="M2.67,29.35l1.66,2.2c.8.7,3,1.19,5.89,1.19H64.89c2.86,0,5.09-.49,5.89-1.19l2.52-2.2Z" transform="translate(0 11.68)"/><path class="cls-25" d="M2.67,29.35,4.33,31.5c.8.68,3,1.17,5.89,1.17H64.89c2.86,0,5.09-.48,5.89-1.17l2.52-2.16Z" transform="translate(0 11.68)"/><path class="cls-26" d="M2.67,29.35l1.66,2.11c.8.67,3,1.14,5.89,1.14H64.89c2.86,0,5.09-.47,5.89-1.14l2.52-2.11Z" transform="translate(0 11.68)"/><path class="cls-27" d="M75,23.57,71.92,5.93C71.33,2.6,67.42,0,63,0H12.95C8.54,0,4.64,2.6,4,5.93l-4,22.8a2.42,2.42,0,0,0,0,.73h0l.14,1.07h0a2.07,2.07,0,0,0,2.14,1.8H66.87a8.64,8.64,0,0,0,6.67-2.76,5.94,5.94,0,0,0,1.39-3.1h0l.14-1.08h0A6,6,0,0,0,75,23.57Z" transform="translate(0 11.68)"/><path class="cls-28" d="M0,28.73,4,5.93C4.6,2.6,8.51,0,12.91,0H63c4.4,0,8.31,2.6,8.9,5.93L75,23.57a5.9,5.9,0,0,1-1.35,4.92,8.68,8.68,0,0,1-6.7,2.77H2.17A2.09,2.09,0,0,1,0,28.73Z" transform="translate(0 11.68)"/><path class="cls-29" d="M2.21,31a1.91,1.91,0,0,1-1.5-.65,1.91,1.91,0,0,1-.38-1.58L4.3,6C4.87,2.77,8.67.26,12.95.26H63C67.3.26,71.1,2.77,71.66,6l3.11,17.64a5.65,5.65,0,0,1-1.3,4.71A8.42,8.42,0,0,1,67,31Z" transform="translate(0 11.68)"/><path class="cls-30" d="M.64,29.68,4.58,6.57C5.14,3.32,8.91.77,13.16.77H62.8c4.25,0,8,2.54,8.57,5.79l3.08,17.89a5.86,5.86,0,0,1-.1,2.48,5.61,5.61,0,0,0,.41-3.32L71.66,6C71.1,2.77,67.3.26,63,.26H12.95C8.67.26,4.87,2.77,4.3,6l-4,22.8a1.94,1.94,0,0,0,.29,1.45A2.3,2.3,0,0,1,.64,29.68Z" transform="translate(0 11.68)"/><path class="cls-31" d="M73.66,24.13h0a4.77,4.77,0,0,0-.07-.82L70.48,5.47C70,2.8,66.68.69,63,.69H12.95C9.29.69,6,2.8,5.49,5.47L2.38,23.31a4.77,4.77,0,0,0-.07.82h0v1.29h0c0,2.93,2.8,5.25,6.69,5.25H67c3.88,0,6.69-2.32,6.69-5.25h0Z" transform="translate(0 11.68)"/><path class="cls-32" d="M73.59,23.31c.58,3.31-2.38,6.07-6.61,6.07H9c-4.24,0-7.19-2.76-6.61-6.07L5.49,5.47C6,2.8,9.29.69,12.95.69H63c3.66,0,7,2.11,7.46,4.78Z" transform="translate(0 11.68)"/><path class="cls-33" d="M12.95.94C9.41.94,6.18,3,5.74,5.51L2.63,23.35a4.27,4.27,0,0,0,1,3.57A6.93,6.93,0,0,0,9,29.12H38V.94Z" transform="translate(0 11.68)"/><path class="cls-33" d="M73.34,23.35,70.22,5.51C69.79,3,66.55.94,63,.94H38V29.12H67a6.93,6.93,0,0,0,5.38-2.19A4.27,4.27,0,0,0,73.34,23.35Z" transform="translate(0 11.68)"/><g class="cls-34"><ellipse class="cls-35" cx="7.12" cy="1.93" rx="2.74" ry="13.91" transform="translate(-0.25 13.22) rotate(-12.15)"/><ellipse class="cls-36" cx="70.68" cy="1.93" rx="13.91" ry="2.74" transform="translate(53.92 82.3) rotate(-77.85)"/><path class="cls-37" d="M71.08,36.57c.53,3.6-2.37,6.61-6.29,6.61H11.17c-3.92,0-6.82-3-6.29-6.61l3-19.42c.43-2.91,3.51-5.21,6.9-5.21h46.3c3.38,0,6.47,2.3,6.9,5.21Z" transform="translate(0 11.68)"/><path class="cls-38" d="M71,36.53c.53,3.59-2.35,6.58-6.25,6.58H11.26c-3.91,0-6.78-3-6.25-6.58L8,17.19c.43-2.9,3.5-5.19,6.88-5.19H61.06c3.37,0,6.45,2.29,6.88,5.19Z" transform="translate(0 11.68)"/><path class="cls-39" d="M70.85,36.5c.53,3.57-2.32,6.56-6.22,6.56H11.34c-3.89,0-6.75-3-6.22-6.56l3-19.27c.43-2.89,3.49-5.17,6.86-5.17H61c3.36,0,6.43,2.28,6.86,5.17Z" transform="translate(0 11.68)"/><path class="cls-40" d="M70.73,36.47C71.26,40,68.43,43,64.55,43H11.42c-3.88,0-6.71-3-6.18-6.53l3-19.2c.43-2.88,3.48-5.15,6.84-5.15H60.92c3.35,0,6.41,2.27,6.84,5.15Z" transform="translate(0 11.68)"/><path class="cls-41" d="M70.62,36.43c.53,3.55-2.28,6.51-6.15,6.51h-53c-3.87,0-6.68-3-6.15-6.51L8.3,17.31c.43-2.86,3.47-5.13,6.81-5.13H60.85c3.34,0,6.39,2.26,6.81,5.13Z" transform="translate(0 11.68)"/><path class="cls-42" d="M70.5,36.4c.53,3.53-2.26,6.48-6.12,6.48H11.58c-3.86,0-6.64-2.95-6.12-6.48l2.93-19c.42-2.85,3.46-5.11,6.79-5.11h45.6c3.33,0,6.37,2.25,6.79,5.11Z" transform="translate(0 11.68)"/><path class="cls-43" d="M70.39,36.36c.52,3.52-2.23,6.46-6.08,6.46H11.66c-3.85,0-6.61-2.94-6.08-6.46l2.9-19c.42-2.84,3.45-5.09,6.77-5.09H60.71c3.32,0,6.35,2.25,6.77,5.09Z" transform="translate(0 11.68)"/><path class="cls-44" d="M70.27,36.33c.52,3.5-2.21,6.43-6,6.43H11.74c-3.84,0-6.57-2.93-6-6.43l2.88-18.9C9,14.6,12,12.36,15.32,12.36H60.64c3.31,0,6.33,2.24,6.75,5.07Z" transform="translate(0 11.68)"/><path class="cls-45" d="M70.16,36.29c.52,3.49-2.19,6.41-6,6.41H11.82c-3.82,0-6.53-2.91-6-6.41L8.66,17.47c.42-2.82,3.43-5,6.73-5H60.57c3.3,0,6.31,2.23,6.73,5Z" transform="translate(0 11.68)"/><path class="cls-46" d="M70,36.26c.52,3.48-2.17,6.38-6,6.38H11.91c-3.81,0-6.5-2.9-6-6.38L8.75,17.51c.42-2.81,3.42-5,6.71-5h45c3.29,0,6.29,2.22,6.71,5Z" transform="translate(0 11.68)"/><path class="cls-47" d="M69.93,36.23c.52,3.46-2.15,6.36-5.95,6.36H12c-3.8,0-6.46-2.89-5.95-6.36L8.85,17.55c.42-2.8,3.41-5,6.69-5h44.9c3.28,0,6.27,2.21,6.69,5Z" transform="translate(0 11.68)"/><path class="cls-48" d="M69.81,36.19c.52,3.45-2.12,6.33-5.91,6.33H12.07c-3.79,0-6.43-2.88-5.91-6.33L8.94,17.59c.42-2.79,3.4-5,6.67-5H60.36c3.27,0,6.25,2.2,6.67,5Z" transform="translate(0 11.68)"/><path class="cls-49" d="M62.5,34.63c.1,1.07-1.24,1.95-2.46,1.95H15.34c-1.22,0-2.56-.87-2.46-1.95l1.81-15a2.13,2.13,0,0,1,2.21-1.71H58.48a2.13,2.13,0,0,1,2.21,1.71Z" transform="translate(0 11.68)"/><path class="cls-50" d="M62.45,34.62c.1,1.07-1.21,1.94-2.43,1.94H15.36c-1.22,0-2.53-.87-2.43-1.94l1.79-15a2.12,2.12,0,0,1,2.2-1.7H58.45a2.12,2.12,0,0,1,2.2,1.7Z" transform="translate(0 11.68)"/><path class="cls-51" d="M62.4,34.61c.1,1.07-1.19,1.94-2.41,1.94H15.39c-1.22,0-2.51-.87-2.41-1.94l1.77-15a2.11,2.11,0,0,1,2.19-1.7H58.43a2.11,2.11,0,0,1,2.19,1.7Z" transform="translate(0 11.68)"/><path class="cls-52" d="M62.35,34.59c.1,1.07-1.17,1.94-2.38,1.94H15.41c-1.22,0-2.48-.87-2.38-1.94l1.75-15A2.1,2.1,0,0,1,17,17.94H58.41a2.1,2.1,0,0,1,2.18,1.7Z" transform="translate(0 11.68)"/><path class="cls-53" d="M62.3,34.58c.1,1.06-1.14,1.93-2.36,1.93H15.44c-1.22,0-2.46-.87-2.36-1.93l1.74-14.93A2.08,2.08,0,0,1,17,18h41.4a2.08,2.08,0,0,1,2.17,1.7Z" transform="translate(0 11.68)"/><path class="cls-54" d="M62.25,34.57c.1,1.06-1.12,1.93-2.33,1.93H15.46c-1.21,0-2.43-.87-2.33-1.93l1.72-14.9A2.07,2.07,0,0,1,17,18H58.36a2.07,2.07,0,0,1,2.16,1.69Z" transform="translate(0 11.68)"/><path class="cls-55" d="M62.2,34.55c.1,1.06-1.09,1.92-2.31,1.92H15.48c-1.21,0-2.4-.87-2.31-1.92l1.7-14.87A2.06,2.06,0,0,1,17,18h41.3a2.06,2.06,0,0,1,2.15,1.69Z" transform="translate(0 11.68)"/><path class="cls-56" d="M62.14,34.54c.1,1.06-1.07,1.92-2.28,1.92H15.51c-1.21,0-2.38-.86-2.28-1.92L14.91,19.7A2.05,2.05,0,0,1,17.06,18H58.32a2.05,2.05,0,0,1,2.14,1.69Z" transform="translate(0 11.68)"/><path class="cls-57" d="M62.09,34.52c.1,1.06-1,1.92-2.26,1.92H15.53c-1.21,0-2.35-.86-2.26-1.92l1.67-14.81A2,2,0,0,1,17.08,18H58.29a2,2,0,0,1,2.13,1.68Z" transform="translate(0 11.68)"/><path class="cls-58" d="M62,34.51c.1,1.05-1,1.91-2.23,1.91H15.56c-1.21,0-2.33-.86-2.23-1.91L15,19.72A2,2,0,0,1,17.1,18H58.27a2,2,0,0,1,2.12,1.68Z" transform="translate(0 11.68)"/><path class="cls-59" d="M62,34.5c.1,1.05-1,1.91-2.2,1.91H15.58c-1.21,0-2.3-.86-2.2-1.91L15,19.74a2,2,0,0,1,2.11-1.68H58.25a2,2,0,0,1,2.11,1.68Z" transform="translate(0 11.68)"/><path class="cls-60" d="M61.94,34.48a2,2,0,0,1-2.18,1.91H15.61a2,2,0,0,1-2.18-1.91L15,19.75a2,2,0,0,1,2.1-1.67H58.23a2,2,0,0,1,2.1,1.67Z" transform="translate(0 11.68)"/><path class="cls-61" d="M15.61,35.37a1.23,1.23,0,0,1-.95-.38.53.53,0,0,1-.13-.4l1.36-14.73c0-.31.53-.75,1.26-.75H58.23c.73,0,1.23.45,1.26.75l1.36,14.73a.53.53,0,0,1-.13.4,1.23,1.23,0,0,1-.95.38Z" transform="translate(0 11.68)"/><path class="cls-29" d="M15,34.61l1.44-14.86a.75.75,0,0,1,.67-.3H58.23a.75.75,0,0,1,.67.3l1.44,14.86h0C60.26,34.71,15,34.61,15,34.61Z" transform="translate(0 11.68)"/><path class="cls-62" d="M16.51,19.76a.72.72,0,0,1,.66-.29h41a.76.76,0,0,1,.67.29L60.29,34.6h0c-.07.08-45.22,0-45.22,0Z" transform="translate(0 11.68)"/><path class="cls-63" d="M16.55,19.77a.69.69,0,0,1,.64-.27h41a.76.76,0,0,1,.67.27l1.38,14.82h0c-.05.07-45.13,0-45.13,0Z" transform="translate(0 11.68)"/><path class="cls-64" d="M16.58,19.78c.06-.09.2-.26.63-.26h41a.76.76,0,0,1,.67.26l1.35,14.8h0s-45,0-45,0Z" transform="translate(0 11.68)"/><path class="cls-65" d="M16.62,19.8c.06-.09.19-.24.62-.24H58.14c.43,0,.61.15.67.24l1.32,14.78h0s-45,0-45,0Z" transform="translate(0 11.68)"/><path class="cls-66" d="M16.65,19.81c.06-.09.17-.22.6-.22H58.12c.43,0,.61.13.67.22l1.29,14.76h0s-44.87,0-44.87,0Z" transform="translate(0 11.68)"/><path class="cls-67" d="M15.26,34.56l1.43-14.74c.06-.09.16-.21.59-.21H58.1c.43,0,.61.11.67.21L60,34.56Z" transform="translate(0 11.68)"/><path class="cls-68" d="M73.25,26.56,70.14,8.25C69.71,5.71,66.51,3.64,63,3.64H12.95c-3.49,0-6.69,2.07-7.12,4.62L2.72,26.56a4.37,4.37,0,0,0,1,3.6A6.76,6.76,0,0,0,9,32.38H67a6.76,6.76,0,0,0,5.32-2.22A4.37,4.37,0,0,0,73.25,26.56Zm-1.09,3.49A6.59,6.59,0,0,1,67,32.21H9a6.59,6.59,0,0,1-5.19-2.16,4.2,4.2,0,0,1-.92-3.46L6,8.28c.42-2.47,3.54-4.47,7-4.47H63c3.41,0,6.53,2,7,4.47l3.11,18.31A4.2,4.2,0,0,1,72.16,30.05Z" transform="translate(0 11.68)"/></g></g></g></svg>