<svg id="Layer_1" data-name="Layer 1" xmlns="http://www.w3.org/2000/svg" xmlns:xlink="http://www.w3.org/1999/xlink" viewBox="0 0 43.96 69.94"><defs><style>.cls-1{fill:url(#linear-gradient);}.cls-2{fill:url(#radial-gradient);}.cls-3{fill:url(#linear-gradient-2);}.cls-4{fill:url(#linear-gradient-3);}.cls-5{fill:url(#linear-gradient-4);}.cls-6{fill:url(#linear-gradient-5);}.cls-7{fill:#fff;opacity:0.3;}.cls-8{fill:url(#linear-gradient-6);}.cls-9{fill:url(#linear-gradient-7);}</style><linearGradient id="linear-gradient" y1="33.89" x2="43.96" y2="33.89" gradientUnits="userSpaceOnUse"><stop offset="0" stop-color="#77bd4b"/><stop offset="0.15" stop-color="#71b644"/><stop offset="0.36" stop-color="#60a330"/><stop offset="0.61" stop-color="#448310"/><stop offset="0.71" stop-color="#387502"/><stop offset="0.79" stop-color="#3d7a08"/><stop offset="0.9" stop-color="#4b8a18"/><stop offset="1" stop-color="#5d9f2d"/></linearGradient><radialGradient id="radial-gradient" cx="25.31" cy="32.01" r="35.71" gradientUnits="userSpaceOnUse"><stop offset="0" stop-color="#77bd4b"/><stop offset="0.21" stop-color="#71b644"/><stop offset="0.51" stop-color="#60a330"/><stop offset="0.87" stop-color="#448310"/><stop offset="1" stop-color="#387502"/></radialGradient><linearGradient id="linear-gradient-2" x1="0.71" y1="23.58" x2="30.58" y2="31.05" gradientUnits="userSpaceOnUse"><stop offset="0" stop-color="#f2f9ee"/><stop offset="0.09" stop-color="#e1f1d7"/><stop offset="0.31" stop-color="#bbdea5"/><stop offset="0.52" stop-color="#9ed07e"/><stop offset="0.71" stop-color="#88c662"/><stop offset="0.88" stop-color="#7cbf51"/><stop offset="1" stop-color="#77bd4b"/></linearGradient><linearGradient id="linear-gradient-3" x1="59.85" y1="72.32" x2="26.08" y2="72.43" gradientTransform="translate(-16.78 -14.61) rotate(-13.66)" xlink:href="#linear-gradient-2"/><linearGradient id="linear-gradient-4" x1="1.01" y1="22.39" x2="30.88" y2="29.86" xlink:href="#linear-gradient-2"/><linearGradient id="linear-gradient-5" x1="0.42" y1="24.75" x2="30.29" y2="32.22" xlink:href="#linear-gradient-2"/><linearGradient id="linear-gradient-6" x1="16.36" y1="3.09" x2="21.21" y2="3.09" xlink:href="#linear-gradient-2"/><linearGradient id="linear-gradient-7" x1="10.97" y1="68.86" x2="34.26" y2="68.86" gradientUnits="userSpaceOnUse"><stop offset="0" stop-color="#77bd4b"/><stop offset="0.17" stop-color="#72b646"/><stop offset="0.42" stop-color="#62a237"/><stop offset="0.71" stop-color="#49821e"/><stop offset="1" stop-color="#2c5c01"/></linearGradient></defs><title>screen8-hold-less</title><path class="cls-1" d="M12.46,67.78h2C6.36,63.74.54,52.83.54,40A37.77,37.77,0,0,1,2,29.73c2.58-1.66,10.56-2.87,20-2.87s17.44,1.21,20,2.87A37.77,37.77,0,0,1,43.42,40c0,12.81-5.82,23.72-13.92,27.76h2C38.84,63,44,52.51,44,40.35a41.42,41.42,0,0,0-1.17-9.85h0l0-.06q-.1-.42-.22-.84l0-.09q-.36-1.32-.8-2.57l0-.09-.29-.8,0-.11q-.47-1.21-1-2.35l0-.1L40,22.82l-.09-.18q-.54-1.05-1.14-2l-.1-.17-.35-.55-.18-.26-.35-.52-.18-.26q-.31-.44-.64-.85l-.24-.3-.33-.4L36.07,17l-.33-.37-.34-.36-.29-.31-.6-.59-.28-.26-.41-.37-.29-.25-.45-.37-.25-.2-.69-.51-.21-.15-.53-.36-.26-.16-.54-.32-.23-.13-.77-.4-.12-.06-.67-.3-.25-.1L28,11.15l-.24-.09-.82-.26V6.6c.49-.49,2.44-2.56,2.21-4.28A3,3,0,0,0,26.71,0H17.22a2.94,2.94,0,0,0-2.39,2.32C14.6,4,16.56,6.11,17,6.6v4.19l-.82.26-.24.09-.58.23-.26.11-.66.3-.13.06-.76.4-.24.14-.52.31-.27.17L12,13.2l-.23.16-.68.51-.27.21-.43.35-.31.27L9.75,15l-.31.28-.51.5-.41.43-.3.32-.35.4-.25.29-.36.44-.16.2q-.39.49-.76,1l-.12.17-.38.56-.14.21-.39.6,0,.07q-.64,1-1.22,2.16l-.05.1A39,39,0,0,0,0,40.35C0,52.51,5.12,63,12.46,67.78Z"/><path class="cls-2" d="M12.46,67.78h19C38.84,63,44,52.51,44,40.35a41.51,41.51,0,0,0-1.08-9.45h0l-.09-.82a4.12,4.12,0,0,0-.38-1C39.91,20.33,34.56,13.61,28,11.18a2.22,2.22,0,0,1-.95.21A2.19,2.19,0,0,1,25.78,11a18,18,0,0,0-7.46,0,2.22,2.22,0,0,1-.65.21,2.24,2.24,0,0,1-1.64,0c-6.6,2.4-12,9.13-14.49,17.93a4.12,4.12,0,0,0-.38,1l-.09.82h0A41.56,41.56,0,0,0,0,40.35C0,52.51,5.12,63,12.46,67.78Z"/><path class="cls-3" d="M17.7,12.78C8.38,15.67,2.21,26,1.73,38.88,3.84,26.51,10.78,16.75,17.7,12.78Z"/><path class="cls-4" d="M30.07,60.74C38.9,57,43.33,46.16,41.66,33.46,41.63,45.84,36.32,56.14,30.07,60.74Z"/><ellipse class="cls-5" cx="12.74" cy="25.32" rx="1.84" ry="2.61"/><ellipse class="cls-6" cx="14.83" cy="28.35" rx="0.81" ry="1.14"/><path class="cls-7" d="M28.8,2.88c0,2.13-2,3.64-7.07,3.64-4.55,0-6.62-1.73-6.62-3.85C15.11,0,18,.37,21.85.37S28.79-.28,28.8,2.88Z"/><path class="cls-8" d="M21.21,3c0,.63-1.09.9-2.43.85s-2.43-.48-2.43-1.29c0-.4,1-.38,2.43-.29C20.38,2.41,21.21,2.65,21.21,3Z"/><rect class="cls-9" x="12.43" y="67.78" width="19.07" height="2.16"/></svg>