<svg xmlns="http://www.w3.org/2000/svg" xmlns:xlink="http://www.w3.org/1999/xlink" viewBox="0 0 167.56 137.69"><defs><style>.cls-1{fill:none;}.cls-2{isolation:isolate;}.cls-3{fill:url(#linear-gradient);}.cls-4{fill:url(#linear-gradient-2);}.cls-5{fill:url(#linear-gradient-3);}.cls-6{fill:url(#linear-gradient-4);}.cls-7{fill:url(#linear-gradient-5);}.cls-8{fill:url(#linear-gradient-6);}.cls-9{fill:url(#linear-gradient-7);}.cls-10{fill:url(#linear-gradient-8);}.cls-11{fill:url(#linear-gradient-9);}.cls-12{fill:url(#linear-gradient-10);}.cls-13{fill:url(#linear-gradient-11);}.cls-14{fill:url(#linear-gradient-12);}.cls-15,.cls-16,.cls-17,.cls-18,.cls-19,.cls-20,.cls-21,.cls-22,.cls-23,.cls-24,.cls-25,.cls-26{fill:#630000;}.cls-15,.cls-37,.cls-49{opacity:0;}.cls-16{opacity:0.01;}.cls-17{opacity:0.01;}.cls-18{opacity:0.02;}.cls-19{opacity:0.03;}.cls-20{opacity:0.04;}.cls-21{opacity:0.04;}.cls-22{opacity:0.05;}.cls-23{opacity:0.06;}.cls-24{opacity:0.07;}.cls-25{opacity:0.07;}.cls-26{opacity:0.08;}.cls-27{fill:#248000;}.cls-28{fill:#73e846;}.cls-29{fill:#288f00;}.cls-30{fill:#35bf00;}.cls-31{fill:url(#linear-gradient-13);}.cls-32{fill:#31ad00;}.cls-33{fill:url(#linear-gradient-14);}.cls-34{clip-path:url(#clip-path);}.cls-35,.cls-36{opacity:0.25;mix-blend-mode:screen;}.cls-35{fill:url(#radial-gradient);}.cls-36{fill:url(#radial-gradient-2);}.cls-37{fill:url(#linear-gradient-16);}.cls-38,.cls-50{opacity:0.09;}.cls-38{fill:url(#linear-gradient-17);}.cls-39,.cls-51{opacity:0.18;}.cls-39{fill:url(#linear-gradient-18);}.cls-40,.cls-52{opacity:0.27;}.cls-40{fill:url(#linear-gradient-19);}.cls-41,.cls-53{opacity:0.36;}.cls-41{fill:url(#linear-gradient-20);}.cls-42,.cls-54{opacity:0.45;}.cls-42{fill:url(#linear-gradient-21);}.cls-43,.cls-55{opacity:0.55;}.cls-43{fill:url(#linear-gradient-22);}.cls-44,.cls-56{opacity:0.64;}.cls-44{fill:url(#linear-gradient-23);}.cls-45,.cls-57{opacity:0.73;}.cls-45{fill:url(#linear-gradient-24);}.cls-46,.cls-58{opacity:0.82;}.cls-46{fill:url(#linear-gradient-25);}.cls-47,.cls-59{opacity:0.91;}.cls-47{fill:url(#linear-gradient-26);}.cls-48{fill:url(#linear-gradient-27);}.cls-49{fill:url(#linear-gradient-28);}.cls-50{fill:url(#linear-gradient-29);}.cls-51{fill:url(#linear-gradient-30);}.cls-52{fill:url(#linear-gradient-31);}.cls-53{fill:url(#linear-gradient-32);}.cls-54{fill:url(#linear-gradient-33);}.cls-55{fill:url(#linear-gradient-34);}.cls-56{fill:url(#linear-gradient-35);}.cls-57{fill:url(#linear-gradient-36);}.cls-58{fill:url(#linear-gradient-37);}.cls-59{fill:url(#linear-gradient-38);}.cls-60{fill:#227800;}.cls-61{fill:#2ea300;}.cls-62{fill:url(#linear-gradient-39);}.cls-63{fill:url(#linear-gradient-40);}.cls-64{fill:url(#linear-gradient-41);}.cls-65{fill:url(#linear-gradient-42);}.cls-66{fill:url(#linear-gradient-43);}.cls-67{fill:url(#linear-gradient-44);}.cls-68{fill:#ffdbba;opacity:0.2;}</style><linearGradient id="linear-gradient" x1="5.96" y1="86.44" x2="163.75" y2="86.44" gradientUnits="userSpaceOnUse"><stop offset="0" stop-color="#387502"/><stop offset="0.06" stop-color="#4e8e1b"/><stop offset="0.12" stop-color="#60a330"/><stop offset="0.19" stop-color="#6db23f"/><stop offset="0.28" stop-color="#75ba48"/><stop offset="0.4" stop-color="#77bd4b"/><stop offset="0.64" stop-color="#75bb49"/><stop offset="0.76" stop-color="#6fb441"/><stop offset="0.84" stop-color="#64a735"/><stop offset="0.92" stop-color="#549522"/><stop offset="0.98" stop-color="#407e0b"/><stop offset="1" stop-color="#387502"/></linearGradient><linearGradient id="linear-gradient-2" x1="5.96" y1="86.37" x2="163.75" y2="86.37" xlink:href="#linear-gradient"/><linearGradient id="linear-gradient-3" x1="5.96" y1="86.31" x2="163.75" y2="86.31" xlink:href="#linear-gradient"/><linearGradient id="linear-gradient-4" x1="5.96" y1="86.24" x2="163.75" y2="86.24" xlink:href="#linear-gradient"/><linearGradient id="linear-gradient-5" x1="5.96" y1="86.17" x2="163.75" y2="86.17" xlink:href="#linear-gradient"/><linearGradient id="linear-gradient-6" x1="5.96" y1="86.11" x2="163.75" y2="86.11" xlink:href="#linear-gradient"/><linearGradient id="linear-gradient-7" x1="5.96" y1="86.04" x2="163.75" y2="86.04" xlink:href="#linear-gradient"/><linearGradient id="linear-gradient-8" x1="5.96" y1="85.98" x2="163.75" y2="85.98" xlink:href="#linear-gradient"/><linearGradient id="linear-gradient-9" x1="5.96" y1="85.91" x2="163.75" y2="85.91" xlink:href="#linear-gradient"/><linearGradient id="linear-gradient-10" x1="5.96" y1="85.85" x2="163.75" y2="85.85" xlink:href="#linear-gradient"/><linearGradient id="linear-gradient-11" x1="5.96" y1="85.78" x2="163.75" y2="85.78" xlink:href="#linear-gradient"/><linearGradient id="linear-gradient-12" x1="5.96" y1="85.72" x2="163.75" y2="85.72" xlink:href="#linear-gradient"/><linearGradient id="linear-gradient-13" x1="5.14" y1="34.96" x2="164.31" y2="34.96" xlink:href="#linear-gradient"/><linearGradient id="linear-gradient-14" x1="7.56" y1="33.53" x2="165.39" y2="33.53" gradientUnits="userSpaceOnUse"><stop offset="0" stop-color="#387502"/><stop offset="0.08" stop-color="#3e7b08"/><stop offset="0.18" stop-color="#4d8d1b"/><stop offset="0.3" stop-color="#67aa38"/><stop offset="0.37" stop-color="#77bd4b"/><stop offset="0.47" stop-color="#74b947"/><stop offset="0.57" stop-color="#69ae3b"/><stop offset="0.67" stop-color="#589a28"/><stop offset="0.77" stop-color="#417f0c"/><stop offset="0.8" stop-color="#387502"/><stop offset="1" stop-color="#5d9f2d"/></linearGradient><clipPath id="clip-path" transform="translate(0 26.06)"><path class="cls-1" d="M20.06,64.95c-5,0-9.4-1.78-12-4.89a9.52,9.52,0,0,1-2.18-8L12.81,12.3C13.79,6.68,21,2.11,28.88,2.11H140.57c7.88,0,15.09,4.57,16.07,10.19l6.94,39.78a9.52,9.52,0,0,1-2.18,8c-2.61,3.11-7,4.89-12,4.89Z"/></clipPath><radialGradient id="radial-gradient" cx="593.81" cy="52.18" r="27.97" gradientTransform="matrix(0.22, 0, 0, 1.11, -114.04, -53.55)" gradientUnits="userSpaceOnUse"><stop offset="0" stop-color="#ffdbba"/><stop offset="1" stop-color="#1c0000"/></radialGradient><radialGradient id="radial-gradient-2" cx="-2331.3" cy="-72.19" r="27.97" gradientTransform="matrix(0, -0.22, -1.11, 0, 77.71, -505.82)" gradientUnits="userSpaceOnUse"><stop offset="0" stop-color="#ffdbba"/><stop offset="1" stop-color="#400000"/></radialGradient><linearGradient id="linear-gradient-16" x1="84.72" y1="96.3" x2="84.72" y2="26.65" gradientUnits="userSpaceOnUse"><stop offset="0.05" stop-color="#eb8766"/><stop offset="0.34" stop-color="#ffbd9c"/><stop offset="1" stop-color="#ffcead"/></linearGradient><linearGradient id="linear-gradient-17" x1="84.72" y1="96.17" x2="84.72" y2="26.78" gradientUnits="userSpaceOnUse"><stop offset="0" stop-color="#db855d"/><stop offset="0.05" stop-color="#db865d"/><stop offset="0.34" stop-color="#f2bc94"/><stop offset="0.37" stop-color="#f3be96"/><stop offset="0.72" stop-color="#efc098"/><stop offset="0.8" stop-color="#edc199"/><stop offset="1" stop-color="#f0caa1"/></linearGradient><linearGradient id="linear-gradient-18" x1="84.72" y1="96.04" x2="84.72" y2="26.91" gradientUnits="userSpaceOnUse"><stop offset="0" stop-color="#ca8454"/><stop offset="0.05" stop-color="#cb8455"/><stop offset="0.34" stop-color="#e5bc8c"/><stop offset="0.37" stop-color="#e6be8e"/><stop offset="0.63" stop-color="#e2bd8d"/><stop offset="0.8" stop-color="#dbba8a"/><stop offset="1" stop-color="#e2c596"/></linearGradient><linearGradient id="linear-gradient-19" x1="84.72" y1="95.9" x2="84.72" y2="27.04" gradientUnits="userSpaceOnUse"><stop offset="0" stop-color="#ba824b"/><stop offset="0.05" stop-color="#bb834c"/><stop offset="0.34" stop-color="#d8bb84"/><stop offset="0.37" stop-color="#dabe87"/><stop offset="0.58" stop-color="#d6bb84"/><stop offset="0.78" stop-color="#cab37c"/><stop offset="0.8" stop-color="#c9b27b"/><stop offset="1" stop-color="#d3c18a"/></linearGradient><linearGradient id="linear-gradient-20" x1="84.72" y1="95.77" x2="84.72" y2="27.17" gradientUnits="userSpaceOnUse"><stop offset="0" stop-color="#aa8042"/><stop offset="0.05" stop-color="#ab8243"/><stop offset="0.34" stop-color="#cbba7c"/><stop offset="0.37" stop-color="#cebe7f"/><stop offset="0.55" stop-color="#cabb7c"/><stop offset="0.72" stop-color="#beb072"/><stop offset="0.8" stop-color="#b7aa6c"/><stop offset="1" stop-color="#c4bd7e"/></linearGradient><linearGradient id="linear-gradient-21" x1="84.72" y1="95.64" x2="84.72" y2="27.31" gradientUnits="userSpaceOnUse"><stop offset="0" stop-color="#9a7f39"/><stop offset="0.05" stop-color="#9b813a"/><stop offset="0.34" stop-color="#beba74"/><stop offset="0.37" stop-color="#c1be78"/><stop offset="0.53" stop-color="#bdba74"/><stop offset="0.69" stop-color="#b1af69"/><stop offset="0.8" stop-color="#a5a35d"/><stop offset="1" stop-color="#b5b973"/></linearGradient><linearGradient id="linear-gradient-22" x1="84.72" y1="95.51" x2="84.72" y2="27.44" gradientUnits="userSpaceOnUse"><stop offset="0" stop-color="#897d2f"/><stop offset="0.05" stop-color="#8b7f32"/><stop offset="0.34" stop-color="#b2b96c"/><stop offset="0.37" stop-color="#b5bd70"/><stop offset="0.52" stop-color="#b1b96c"/><stop offset="0.66" stop-color="#a5ae60"/><stop offset="0.8" stop-color="#929b4d"/><stop offset="1" stop-color="#a7b467"/></linearGradient><linearGradient id="linear-gradient-23" x1="84.72" y1="95.38" x2="84.72" y2="27.57" gradientUnits="userSpaceOnUse"><stop offset="0" stop-color="#797c26"/><stop offset="0.05" stop-color="#7b7e29"/><stop offset="0.34" stop-color="#a5b964"/><stop offset="0.37" stop-color="#a8bd69"/><stop offset="0.5" stop-color="#a4b965"/><stop offset="0.63" stop-color="#99ae59"/><stop offset="0.76" stop-color="#879b46"/><stop offset="0.8" stop-color="#80943e"/><stop offset="1" stop-color="#98b05c"/></linearGradient><linearGradient id="linear-gradient-24" x1="84.72" y1="95.24" x2="84.72" y2="27.7" gradientUnits="userSpaceOnUse"><stop offset="0" stop-color="#697a1d"/><stop offset="0.05" stop-color="#6b7d20"/><stop offset="0.34" stop-color="#98b85c"/><stop offset="0.37" stop-color="#9cbd61"/><stop offset="0.49" stop-color="#98b95d"/><stop offset="0.61" stop-color="#8eae51"/><stop offset="0.73" stop-color="#7c9a3e"/><stop offset="0.8" stop-color="#6e8c2f"/><stop offset="1" stop-color="#89ac50"/></linearGradient><linearGradient id="linear-gradient-25" x1="84.72" y1="95.11" x2="84.72" y2="27.83" gradientUnits="userSpaceOnUse"><stop offset="0" stop-color="#597814"/><stop offset="0.05" stop-color="#5b7c17"/><stop offset="0.34" stop-color="#8bb754"/><stop offset="0.37" stop-color="#90bd5a"/><stop offset="0.48" stop-color="#8cb956"/><stop offset="0.59" stop-color="#82ae4a"/><stop offset="0.7" stop-color="#709a37"/><stop offset="0.8" stop-color="#5c8420"/><stop offset="1" stop-color="#7aa844"/></linearGradient><linearGradient id="linear-gradient-26" x1="84.72" y1="94.98" x2="84.72" y2="27.97" gradientUnits="userSpaceOnUse"><stop offset="0" stop-color="#48770b"/><stop offset="0.05" stop-color="#4b7a0f"/><stop offset="0.34" stop-color="#7eb74c"/><stop offset="0.37" stop-color="#83bd52"/><stop offset="0.48" stop-color="#80b94e"/><stop offset="0.58" stop-color="#75ae42"/><stop offset="0.69" stop-color="#649a2f"/><stop offset="0.79" stop-color="#4c7f13"/><stop offset="0.8" stop-color="#4a7d11"/><stop offset="1" stop-color="#6ca339"/></linearGradient><linearGradient id="linear-gradient-27" x1="84.72" y1="94.85" x2="84.72" y2="28.1" xlink:href="#linear-gradient-14"/><linearGradient id="linear-gradient-28" x1="84.06" y1="81.59" x2="84.06" y2="39.9" gradientUnits="userSpaceOnUse"><stop offset="0" stop-color="#ff9b7a"/><stop offset="0.17" stop-color="#ffb796"/><stop offset="0.91" stop-color="#ffba99"/><stop offset="0.97" stop-color="#ffcead"/></linearGradient><linearGradient id="linear-gradient-29" x1="84.06" y1="81.55" x2="84.06" y2="39.94" gradientUnits="userSpaceOnUse"><stop offset="0" stop-color="#eb986f"/><stop offset="0.17" stop-color="#ebb188"/><stop offset="0.91" stop-color="#ebb48b"/><stop offset="0.97" stop-color="#ebc69d"/></linearGradient><linearGradient id="linear-gradient-30" x1="84.06" y1="81.52" x2="84.06" y2="39.98" gradientUnits="userSpaceOnUse"><stop offset="0" stop-color="#d79564"/><stop offset="0.17" stop-color="#d7ac7b"/><stop offset="0.91" stop-color="#d7ae7d"/><stop offset="0.97" stop-color="#d7be8e"/></linearGradient><linearGradient id="linear-gradient-31" x1="84.06" y1="81.48" x2="84.06" y2="40.02" gradientUnits="userSpaceOnUse"><stop offset="0" stop-color="#c39159"/><stop offset="0.17" stop-color="#c3a66d"/><stop offset="0.91" stop-color="#c3a86f"/><stop offset="0.97" stop-color="#c3b77e"/></linearGradient><linearGradient id="linear-gradient-32" x1="84.06" y1="81.44" x2="84.06" y2="40.06" gradientUnits="userSpaceOnUse"><stop offset="0" stop-color="#af8e4e"/><stop offset="0.17" stop-color="#afa05f"/><stop offset="0.91" stop-color="#afa261"/><stop offset="0.97" stop-color="#afaf6e"/></linearGradient><linearGradient id="linear-gradient-33" x1="84.06" y1="81.4" x2="84.06" y2="40.1" gradientUnits="userSpaceOnUse"><stop offset="0" stop-color="#9b8b43"/><stop offset="0.17" stop-color="#9b9a52"/><stop offset="0.91" stop-color="#9b9c53"/><stop offset="0.97" stop-color="#9ba75e"/></linearGradient><linearGradient id="linear-gradient-34" x1="84.06" y1="81.36" x2="84.06" y2="40.13" gradientUnits="userSpaceOnUse"><stop offset="0" stop-color="#868837"/><stop offset="0.17" stop-color="#869544"/><stop offset="0.91" stop-color="#869646"/><stop offset="0.97" stop-color="#869f4f"/></linearGradient><linearGradient id="linear-gradient-35" x1="84.06" y1="81.32" x2="84.06" y2="40.17" gradientUnits="userSpaceOnUse"><stop offset="0" stop-color="#72852c"/><stop offset="0.17" stop-color="#728f37"/><stop offset="0.91" stop-color="#729038"/><stop offset="0.97" stop-color="#72973f"/></linearGradient><linearGradient id="linear-gradient-36" x1="84.06" y1="81.28" x2="84.06" y2="40.21" gradientUnits="userSpaceOnUse"><stop offset="0" stop-color="#5e8221"/><stop offset="0.17" stop-color="#5e8929"/><stop offset="0.91" stop-color="#5e8a2a"/><stop offset="0.97" stop-color="#5e8f2f"/></linearGradient><linearGradient id="linear-gradient-37" x1="84.06" y1="81.24" x2="84.06" y2="40.25" gradientUnits="userSpaceOnUse"><stop offset="0" stop-color="#4a7e16"/><stop offset="0.17" stop-color="#4a831b"/><stop offset="0.91" stop-color="#4a841c"/><stop offset="0.97" stop-color="#4a881f"/></linearGradient><linearGradient id="linear-gradient-38" x1="84.06" y1="81.21" x2="84.06" y2="40.29" gradientUnits="userSpaceOnUse"><stop offset="0" stop-color="#367b0b"/><stop offset="0.17" stop-color="#367e0e"/><stop offset="0.91" stop-color="#367e0e"/><stop offset="0.97" stop-color="#368010"/></linearGradient><linearGradient id="linear-gradient-39" x1="84.05" y1="102.71" x2="84.05" y2="38.11" gradientUnits="userSpaceOnUse"><stop offset="0" stop-color="#2b8b00"/><stop offset="0.23" stop-color="#309106"/><stop offset="0.37" stop-color="#35970d"/><stop offset="0.61" stop-color="#329309"/><stop offset="0.8" stop-color="#2b8b00"/><stop offset="1" stop-color="#319208"/></linearGradient><linearGradient id="linear-gradient-40" x1="84.03" y1="102.61" x2="84.03" y2="38.19" gradientUnits="userSpaceOnUse"><stop offset="0" stop-color="#2d8601"/><stop offset="0.16" stop-color="#338c07"/><stop offset="0.37" stop-color="#429e19"/><stop offset="0.54" stop-color="#3f9a15"/><stop offset="0.72" stop-color="#348e09"/><stop offset="0.8" stop-color="#2d8601"/><stop offset="1" stop-color="#3a940f"/></linearGradient><linearGradient id="linear-gradient-41" x1="84.01" y1="102.5" x2="84.01" y2="38.27" gradientUnits="userSpaceOnUse"><stop offset="0" stop-color="#308201"/><stop offset="0.12" stop-color="#368807"/><stop offset="0.28" stop-color="#459a19"/><stop offset="0.37" stop-color="#50a626"/><stop offset="0.51" stop-color="#4da222"/><stop offset="0.65" stop-color="#429716"/><stop offset="0.79" stop-color="#318403"/><stop offset="0.8" stop-color="#308201"/><stop offset="1" stop-color="#429717"/></linearGradient><linearGradient id="linear-gradient-42" x1="84" y1="102.39" x2="84" y2="38.35" gradientUnits="userSpaceOnUse"><stop offset="0" stop-color="#337e01"/><stop offset="0.1" stop-color="#398407"/><stop offset="0.23" stop-color="#489619"/><stop offset="0.37" stop-color="#5dae32"/><stop offset="0.49" stop-color="#5aaa2e"/><stop offset="0.61" stop-color="#509f22"/><stop offset="0.73" stop-color="#3f8b0f"/><stop offset="0.8" stop-color="#337e01"/><stop offset="1" stop-color="#4b9a1e"/></linearGradient><linearGradient id="linear-gradient-43" x1="83.98" y1="102.29" x2="83.98" y2="38.43" gradientUnits="userSpaceOnUse"><stop offset="0" stop-color="#357902"/><stop offset="0.09" stop-color="#3b7f08"/><stop offset="0.21" stop-color="#4b921b"/><stop offset="0.34" stop-color="#65af38"/><stop offset="0.37" stop-color="#6ab53e"/><stop offset="0.48" stop-color="#67b13a"/><stop offset="0.59" stop-color="#5ca52e"/><stop offset="0.7" stop-color="#4b921b"/><stop offset="0.8" stop-color="#357902"/><stop offset="1" stop-color="#549c25"/></linearGradient><linearGradient id="linear-gradient-44" x1="83.97" y1="102.18" x2="83.97" y2="38.5" xlink:href="#linear-gradient-14"/></defs><title>screen4-hold-more</title><g class="cls-2"><g id="Layer_1" data-name="Layer 1"><path class="cls-3" d="M6,61.24,11.57,102h0a13.52,13.52,0,0,0,13.13,9.67h120A13.52,13.52,0,0,0,157.88,102h0l5.61-40.72Z" transform="translate(0 26.06)"/><path class="cls-4" d="M6,61.24l5.61,40.63h0A13.51,13.51,0,0,0,24.7,111.5h120a13.51,13.51,0,0,0,13.13-9.63h0l5.61-40.63Z" transform="translate(0 26.06)"/><path class="cls-5" d="M6,61.24l5.61,40.55h0a13.51,13.51,0,0,0,13.13,9.58h120a13.51,13.51,0,0,0,13.13-9.58h0l5.61-40.55Z" transform="translate(0 26.06)"/><path class="cls-6" d="M6,61.24l5.61,40.46h0a13.5,13.5,0,0,0,13.13,9.54h120a13.5,13.5,0,0,0,13.13-9.54h0l5.61-40.46Z" transform="translate(0 26.06)"/><path class="cls-7" d="M6,61.24l5.61,40.38h0a13.49,13.49,0,0,0,13.13,9.49h120a13.49,13.49,0,0,0,13.13-9.49h0l5.61-40.38Z" transform="translate(0 26.06)"/><path class="cls-8" d="M6,61.24l5.61,40.29h0A13.49,13.49,0,0,0,24.7,111h120a13.49,13.49,0,0,0,13.13-9.44h0l5.61-40.29Z" transform="translate(0 26.06)"/><path class="cls-9" d="M6,61.24l5.61,40.21h0a13.48,13.48,0,0,0,13.13,9.4h120a13.48,13.48,0,0,0,13.13-9.4h0l5.61-40.21Z" transform="translate(0 26.06)"/><path class="cls-10" d="M6,61.24l5.61,40.12h0a13.47,13.47,0,0,0,13.13,9.35h120a13.47,13.47,0,0,0,13.13-9.35h0l5.61-40.12Z" transform="translate(0 26.06)"/><path class="cls-11" d="M6,61.24l5.61,40h0a13.47,13.47,0,0,0,13.13,9.31h120a13.47,13.47,0,0,0,13.13-9.31h0l5.61-40Z" transform="translate(0 26.06)"/><path class="cls-12" d="M6,61.24l5.61,40h0a13.46,13.46,0,0,0,13.13,9.26h120a13.46,13.46,0,0,0,13.13-9.26h0l5.61-40Z" transform="translate(0 26.06)"/><path class="cls-13" d="M6,61.24l5.61,39.87h0a13.46,13.46,0,0,0,13.13,9.22h120a13.46,13.46,0,0,0,13.13-9.22h0l5.61-39.87Z" transform="translate(0 26.06)"/><path class="cls-14" d="M6,61.24,11.57,101h0A13.45,13.45,0,0,0,24.7,110.2h120A13.45,13.45,0,0,0,157.88,101h0l5.61-39.78Z" transform="translate(0 26.06)"/><path class="cls-15" d="M6,65.46l3.7,5.72c1.78,1.81,6.75,3.09,13.13,3.09h122c6.38,0,11.35-1.28,13.13-3.09l5.61-5.72Z" transform="translate(0 26.06)"/><path class="cls-16" d="M6,65.46l3.7,5.63c1.78,1.78,6.75,3,13.13,3h122c6.38,0,11.35-1.26,13.13-3l5.61-5.63Z" transform="translate(0 26.06)"/><path class="cls-17" d="M6,65.46,9.66,71c1.78,1.76,6.75,3,13.13,3h122c6.38,0,11.35-1.24,13.13-3l5.61-5.54Z" transform="translate(0 26.06)"/><path class="cls-18" d="M6,65.46l3.7,5.45c1.78,1.73,6.75,2.95,13.13,2.95h122c6.38,0,11.35-1.22,13.13-2.95l5.61-5.45Z" transform="translate(0 26.06)"/><path class="cls-19" d="M6,65.46l3.7,5.35c1.78,1.7,6.75,2.9,13.13,2.9h122c6.38,0,11.35-1.2,13.13-2.9l5.61-5.35Z" transform="translate(0 26.06)"/><path class="cls-20" d="M6,65.46l3.7,5.26c1.78,1.67,6.75,2.85,13.13,2.85h122c6.38,0,11.35-1.18,13.13-2.85l5.61-5.26Z" transform="translate(0 26.06)"/><path class="cls-21" d="M6,65.46l3.7,5.17c1.78,1.64,6.75,2.8,13.13,2.8h122c6.38,0,11.35-1.16,13.13-2.8l5.61-5.17Z" transform="translate(0 26.06)"/><path class="cls-22" d="M6,65.46l3.7,5.08c1.78,1.61,6.75,2.75,13.13,2.75h122c6.38,0,11.35-1.14,13.13-2.75l5.61-5.08Z" transform="translate(0 26.06)"/><path class="cls-23" d="M6,65.46l3.7,5c1.78,1.58,6.75,2.7,13.13,2.7h122c6.38,0,11.35-1.12,13.13-2.7l5.61-5Z" transform="translate(0 26.06)"/><path class="cls-24" d="M6,65.46l3.7,4.9C11.43,71.91,16.41,73,22.79,73h122c6.38,0,11.35-1.1,13.13-2.65l5.61-4.9Z" transform="translate(0 26.06)"/><path class="cls-25" d="M6,65.46l3.7,4.81c1.78,1.52,6.75,2.6,13.13,2.6h122c6.38,0,11.35-1.08,13.13-2.6l5.61-4.81Z" transform="translate(0 26.06)"/><path class="cls-26" d="M6,65.46l3.7,4.72c1.78,1.49,6.75,2.55,13.13,2.55h122c6.38,0,11.35-1.06,13.13-2.55l5.61-4.72Z" transform="translate(0 26.06)"/><path class="cls-27" d="M167.35,52.57l-6.94-39.35C159.11,5.81,150.39,0,140.57,0H28.88C19.06,0,10.34,5.81,9,13.22L.16,64.07a5.41,5.41,0,0,0,0,1.63h0l.31,2.38h0a4.61,4.61,0,0,0,4.78,4H149.15c6.13,0,11.56-2.25,14.89-6.16A13.25,13.25,0,0,0,167.14,59h0l.31-2.41h0A13.34,13.34,0,0,0,167.35,52.57Z" transform="translate(0 26.06)"/><path class="cls-28" d="M.09,64.07,9,13.22C10.26,5.81,19,0,28.81,0H140.49c9.82,0,18.54,5.81,19.85,13.22l6.94,39.35a13.16,13.16,0,0,1-3,11c-3.34,3.93-8.79,6.19-14.94,6.19H4.84A4.66,4.66,0,0,1,.09,64.07Z" transform="translate(0 26.06)"/><path class="cls-29" d="M4.92,69.16a4.25,4.25,0,0,1-3.33-1.45,4.25,4.25,0,0,1-.86-3.54L9.6,13.32C10.86,6.17,19.33.57,28.88.57H140.57c9.55,0,18,5.6,19.28,12.74l6.94,39.35a12.6,12.6,0,0,1-2.89,10.5c-3.23,3.8-8.52,6-14.5,6Z" transform="translate(0 26.06)"/><path class="cls-30" d="M1.43,66.21l8.8-51.56C11.48,7.4,19.87,1.72,29.35,1.72H140.09c9.47,0,17.87,5.68,19.12,12.92l6.88,39.9a13.06,13.06,0,0,1-.22,5.53,12.51,12.51,0,0,0,.92-7.41l-6.94-39.35C158.59,6.17,150.12.57,140.57.57H28.88c-9.55,0-18,5.6-19.28,12.74L.73,64.17a4.32,4.32,0,0,0,.64,3.24A5.12,5.12,0,0,1,1.43,66.21Z" transform="translate(0 26.06)"/><path class="cls-31" d="M164.31,53.81h0a10.64,10.64,0,0,0-.16-1.83L157.21,12.2c-1-6-8.48-10.67-16.64-10.67H28.88c-8.16,0-15.6,4.71-16.64,10.67L5.3,52a10.63,10.63,0,0,0-.16,1.83h0v2.87h0c0,6.54,6.25,11.71,14.91,11.71H149.39c8.66,0,14.91-5.17,14.91-11.71h0Z" transform="translate(0 26.06)"/><path class="cls-32" d="M164.14,52c1.29,7.38-5.3,13.54-14.75,13.54H20.06C10.6,65.52,4,59.36,5.3,52L12.24,12.2c1-6,8.48-10.67,16.64-10.67H140.57c8.16,0,15.6,4.71,16.64,10.67Z" transform="translate(0 26.06)"/><path class="cls-33" d="M28.88,2.11C21,2.11,13.79,6.68,12.81,12.3L5.87,52.08a9.52,9.52,0,0,0,2.18,8c2.61,3.11,7,4.89,12,4.89H84.72V2.11Z" transform="translate(0 26.06)"/><path class="cls-33" d="M163.58,52.08,156.64,12.3c-1-5.62-8.19-10.19-16.07-10.19H84.72V64.95h64.67c5,0,9.4-1.78,12-4.89A9.52,9.52,0,0,0,163.58,52.08Z" transform="translate(0 26.06)"/><g class="cls-34"><ellipse class="cls-35" cx="15.89" cy="4.3" rx="6.12" ry="31.02" transform="translate(-0.55 29.5) rotate(-12.15)"/><ellipse class="cls-36" cx="157.66" cy="4.3" rx="31.02" ry="6.12" transform="translate(120.28 183.58) rotate(-77.85)"/><path class="cls-37" d="M158.54,81.57c1.19,8-5.28,14.73-14,14.73H24.92c-8.74,0-15.21-6.7-14-14.73l6.8-43.31c1-6.49,7.84-11.61,15.39-11.61H136.36c7.55,0,14.43,5.12,15.39,11.61Z" transform="translate(0 26.06)"/><path class="cls-38" d="M158.29,81.49c1.19,8-5.23,14.68-13.95,14.68H25.1c-8.71,0-15.13-6.68-13.95-14.68L17.9,38.35c1-6.46,7.82-11.57,15.34-11.57h103c7.53,0,14.38,5.1,15.34,11.57Z" transform="translate(0 26.06)"/><path class="cls-39" d="M158,81.41c1.18,8-5.18,14.62-13.87,14.62H25.29c-8.69,0-15.05-6.65-13.87-14.62l6.69-43c1-6.44,7.79-11.52,15.29-11.52H136c7.5,0,14.34,5.09,15.29,11.52Z" transform="translate(0 26.06)"/><path class="cls-40" d="M157.77,81.34C159,89.28,152.64,95.9,144,95.9H25.47c-8.66,0-15-6.63-13.79-14.57l6.63-42.82C19.26,32.11,26.08,27,33.55,27H135.89c7.48,0,14.29,5.07,15.25,11.48Z" transform="translate(0 26.06)"/><path class="cls-41" d="M157.52,81.26c1.18,7.91-5.08,14.51-13.72,14.51H25.65c-8.63,0-14.89-6.6-13.72-14.51l6.58-42.65c.95-6.39,7.74-11.44,15.2-11.44h102c7.46,0,14.25,5,15.2,11.44Z" transform="translate(0 26.06)"/><path class="cls-42" d="M157.26,81.19c1.17,7.88-5,14.46-13.64,14.46H25.83c-8.61,0-14.81-6.58-13.64-14.46L18.71,38.7c.95-6.36,7.72-11.39,15.15-11.39H135.58c7.43,0,14.21,5,15.15,11.39Z" transform="translate(0 26.06)"/><path class="cls-43" d="M157,81.11c1.17,7.85-5,14.4-13.57,14.4H26c-8.58,0-14.73-6.55-13.57-14.4l6.47-42.32c.94-6.34,7.7-11.35,15.11-11.35h101.4c7.41,0,14.16,5,15.11,11.35Z" transform="translate(0 26.06)"/><path class="cls-44" d="M156.74,81c1.16,7.82-4.94,14.34-13.49,14.34H26.19c-8.56,0-14.66-6.53-13.49-14.34l6.42-42.16c.94-6.32,7.67-11.3,15.06-11.3H135.27c7.39,0,14.12,5,15.06,11.3Z" transform="translate(0 26.06)"/><path class="cls-45" d="M156.49,81c1.16,7.79-4.89,14.29-13.41,14.29H26.37C17.85,95.24,11.8,88.74,13,81l6.36-42c.94-6.29,7.65-11.26,15-11.26H135.11c7.36,0,14.08,5,15,11.26Z" transform="translate(0 26.06)"/><path class="cls-46" d="M156.23,80.88c1.16,7.76-4.84,14.23-13.34,14.23H26.56c-8.5,0-14.5-6.48-13.34-14.23L19.53,39c.94-6.27,7.63-11.22,15-11.22H135c7.34,0,14,4.95,15,11.22Z" transform="translate(0 26.06)"/><path class="cls-47" d="M156,80.8C157.13,88.53,151.19,95,142.71,95h-116c-8.48,0-14.42-6.45-13.26-14.18l6.26-41.67C20.66,32.9,27.33,28,34.65,28H134.8c7.32,0,14,4.93,14.92,11.17Z" transform="translate(0 26.06)"/><path class="cls-48" d="M155.72,80.73c1.15,7.7-4.74,14.12-13.19,14.12H26.92c-8.45,0-14.34-6.42-13.19-14.12l6.2-41.5C20.86,33,27.51,28.1,34.81,28.1h99.83c7.3,0,13.94,4.91,14.87,11.13Z" transform="translate(0 26.06)"/><path class="cls-49" d="M139.4,77.25c.22,2.39-2.76,4.34-5.49,4.34H34.21c-2.72,0-5.71-2-5.49-4.34l4-33.54c.19-2.11,2.4-3.81,4.94-3.81h92.74c2.53,0,4.74,1.7,4.94,3.81Z" transform="translate(0 26.06)"/><path class="cls-50" d="M139.29,77.22c.22,2.38-2.71,4.33-5.43,4.33H34.27c-2.72,0-5.65-1.95-5.43-4.33l4-33.48c.19-2.11,2.38-3.8,4.92-3.8h92.64c2.53,0,4.72,1.7,4.92,3.8Z" transform="translate(0 26.06)"/><path class="cls-51" d="M139.17,77.19c.22,2.38-2.65,4.32-5.37,4.32H34.32c-2.72,0-5.59-1.94-5.37-4.32l4-33.42c.19-2.1,2.36-3.8,4.89-3.8h92.54c2.53,0,4.7,1.69,4.89,3.8Z" transform="translate(0 26.06)"/><path class="cls-52" d="M139.06,77.16c.22,2.38-2.6,4.32-5.32,4.32H34.38c-2.72,0-5.53-1.94-5.32-4.32L33,43.81c.19-2.1,2.34-3.79,4.87-3.79h92.43c2.53,0,4.68,1.69,4.87,3.79Z" transform="translate(0 26.06)"/><path class="cls-53" d="M139,77.13c.22,2.37-2.55,4.31-5.26,4.31H34.43c-2.71,0-5.48-1.94-5.26-4.31L33,43.84c.19-2.09,2.32-3.78,4.85-3.78h92.33c2.52,0,4.66,1.69,4.85,3.78Z" transform="translate(0 26.06)"/><path class="cls-54" d="M138.84,77.1c.22,2.37-2.49,4.3-5.2,4.3H34.49c-2.71,0-5.42-1.93-5.2-4.3l3.84-33.23c.19-2.09,2.31-3.77,4.83-3.77h92.23c2.52,0,4.63,1.68,4.83,3.77Z" transform="translate(0 26.06)"/><path class="cls-55" d="M138.73,77.07c.22,2.36-2.44,4.29-5.14,4.29h-99c-2.71,0-5.36-1.93-5.14-4.29l3.8-33.17c.19-2.09,2.29-3.77,4.8-3.77h92.13c2.52,0,4.61,1.68,4.8,3.77Z" transform="translate(0 26.06)"/><path class="cls-56" d="M138.62,77c.22,2.36-2.38,4.28-5.09,4.28H34.59c-2.7,0-5.3-1.93-5.09-4.28l3.76-33.1c.19-2.08,2.27-3.76,4.78-3.76h92c2.51,0,4.59,1.68,4.78,3.76Z" transform="translate(0 26.06)"/><path class="cls-57" d="M138.5,77c.22,2.35-2.33,4.28-5,4.28H34.65c-2.7,0-5.25-1.92-5-4.28l3.72-33c.19-2.08,2.25-3.75,4.76-3.75H130c2.51,0,4.57,1.67,4.76,3.75Z" transform="translate(0 26.06)"/><path class="cls-58" d="M138.39,77c.22,2.35-2.28,4.27-5,4.27H34.7c-2.7,0-5.19-1.92-5-4.27l3.68-33a4.53,4.53,0,0,1,4.74-3.75H130A4.53,4.53,0,0,1,134.71,44Z" transform="translate(0 26.06)"/><path class="cls-59" d="M138.28,76.95c.22,2.34-2.22,4.26-4.92,4.26H34.76c-2.69,0-5.13-1.92-4.92-4.26L33.49,44a4.5,4.5,0,0,1,4.71-3.74h91.72A4.5,4.5,0,0,1,134.64,44Z" transform="translate(0 26.06)"/><path class="cls-60" d="M138.17,76.91c.22,2.34-2.17,4.25-4.86,4.25H34.81c-2.69,0-5.08-1.91-4.86-4.25l3.61-32.85a4.48,4.48,0,0,1,4.69-3.73h91.62a4.48,4.48,0,0,1,4.69,3.73Z" transform="translate(0 26.06)"/><path class="cls-61" d="M34.81,78.89A2.74,2.74,0,0,1,32.69,78a1.18,1.18,0,0,1-.29-.89l3-32.85c.06-.69,1.19-1.68,2.81-1.68h91.62c1.62,0,2.75,1,2.81,1.68l3,32.85a1.18,1.18,0,0,1-.29.89,2.74,2.74,0,0,1-2.12.85Z" transform="translate(0 26.06)"/><path class="cls-29" d="M33.53,77.19,36.75,44a1.68,1.68,0,0,1,1.5-.68h91.62a1.68,1.68,0,0,1,1.5.68l3.21,33.15h0C134.41,77.42,33.53,77.2,33.53,77.19Z" transform="translate(0 26.06)"/><path class="cls-62" d="M36.82,44.07a1.61,1.61,0,0,1,1.47-.64h91.53a1.68,1.68,0,0,1,1.5.64l3.15,33.1h0c-.15.19-100.86,0-100.86,0Z" transform="translate(0 26.06)"/><path class="cls-63" d="M36.9,44.1a1.54,1.54,0,0,1,1.44-.61h91.44a1.69,1.69,0,0,1,1.5.61l3.08,33.06h0c-.12.15-100.66,0-100.66,0Z" transform="translate(0 26.06)"/><path class="cls-64" d="M37,44.13c.14-.21.45-.57,1.41-.57h91.35a1.7,1.7,0,0,1,1.5.57l3,33h0c-.09.11-100.47,0-100.47,0Z" transform="translate(0 26.06)"/><path class="cls-65" d="M37.06,44.16c.14-.21.41-.54,1.37-.54h91.25c1,0,1.35.33,1.5.54l2.95,33h0c-.06.07-100.27,0-100.27,0Z" transform="translate(0 26.06)"/><path class="cls-66" d="M37.14,44.19c.14-.21.38-.5,1.34-.5h91.16c1,0,1.35.29,1.5.5L134,77.11h0s-100.07,0-100.07,0Z" transform="translate(0 26.06)"/><path class="cls-67" d="M34,77.09l3.19-32.88c.14-.21.35-.46,1.31-.46H129.6c1,0,1.35.26,1.49.46l2.82,32.88Z" transform="translate(0 26.06)"/><path class="cls-68" d="M163.39,59.25l-6.94-40.84c-1-5.68-8.09-10.3-15.88-10.3H28.88C21.09,8.11,14,12.73,13,18.41L6.06,59.25a9.76,9.76,0,0,0,2.14,8c2.58,3.14,6.9,4.95,11.86,4.95H149.39c5,0,9.29-1.8,11.86-4.95A9.76,9.76,0,0,0,163.39,59.25ZM161,67c-2.5,3.06-6.72,4.81-11.57,4.81H20.06C15.21,71.84,11,70.08,8.49,67a9.38,9.38,0,0,1-2.05-7.71l6.94-40.84c.93-5.5,7.89-10,15.51-10H140.57c7.62,0,14.57,4.48,15.51,10L163,59.32A9.38,9.38,0,0,1,161,67Z" transform="translate(0 26.06)"/></g></g></g></svg>