<svg xmlns="http://www.w3.org/2000/svg" xmlns:xlink="http://www.w3.org/1999/xlink" viewBox="0 0 70.18 73.05"><defs><style>.cls-1{fill:none;}.cls-2{isolation:isolate;}.cls-3{fill:url(#linear-gradient);}.cls-4{fill:url(#linear-gradient-2);}.cls-5{fill:url(#linear-gradient-3);}.cls-6{fill:url(#linear-gradient-4);}.cls-7{fill:url(#linear-gradient-5);}.cls-8{fill:url(#linear-gradient-6);}.cls-9{fill:url(#linear-gradient-7);}.cls-10{fill:url(#linear-gradient-8);}.cls-11{fill:url(#linear-gradient-9);}.cls-12{fill:url(#linear-gradient-10);}.cls-13{fill:url(#linear-gradient-11);}.cls-14{fill:url(#linear-gradient-12);}.cls-15,.cls-16,.cls-17,.cls-18,.cls-19,.cls-20,.cls-21,.cls-22,.cls-23,.cls-24,.cls-25,.cls-26{fill:#630000;}.cls-15,.cls-38,.cls-50{opacity:0;}.cls-16{opacity:0.01;}.cls-17{opacity:0.01;}.cls-18{opacity:0.02;}.cls-19{opacity:0.03;}.cls-20{opacity:0.04;}.cls-21{opacity:0.04;}.cls-22{opacity:0.05;}.cls-23{opacity:0.06;}.cls-24{opacity:0.07;}.cls-25{opacity:0.07;}.cls-26{opacity:0.08;}.cls-27{fill:#248000;}.cls-28{fill:#73e846;}.cls-29{fill:#288f00;}.cls-30{fill:#35bf00;}.cls-31{fill:url(#linear-gradient-13);}.cls-32{fill:#31ad00;}.cls-33{fill:url(#linear-gradient-14);}.cls-34{fill:url(#linear-gradient-15);}.cls-35{clip-path:url(#clip-path);}.cls-36,.cls-37{opacity:0.25;mix-blend-mode:screen;}.cls-36{fill:url(#radial-gradient);}.cls-37{fill:url(#radial-gradient-2);}.cls-38{fill:url(#linear-gradient-16);}.cls-39,.cls-51{opacity:0.09;}.cls-39{fill:url(#linear-gradient-17);}.cls-40,.cls-52{opacity:0.18;}.cls-40{fill:url(#linear-gradient-18);}.cls-41,.cls-53{opacity:0.27;}.cls-41{fill:url(#linear-gradient-19);}.cls-42,.cls-54{opacity:0.36;}.cls-42{fill:url(#linear-gradient-20);}.cls-43,.cls-55{opacity:0.45;}.cls-43{fill:url(#linear-gradient-21);}.cls-44,.cls-56{opacity:0.55;}.cls-44{fill:url(#linear-gradient-22);}.cls-45,.cls-57{opacity:0.64;}.cls-45{fill:url(#linear-gradient-23);}.cls-46,.cls-58{opacity:0.73;}.cls-46{fill:url(#linear-gradient-24);}.cls-47,.cls-59{opacity:0.82;}.cls-47{fill:url(#linear-gradient-25);}.cls-48,.cls-60{opacity:0.91;}.cls-48{fill:url(#linear-gradient-26);}.cls-49{fill:url(#linear-gradient-27);}.cls-50{fill:url(#linear-gradient-28);}.cls-51{fill:url(#linear-gradient-29);}.cls-52{fill:url(#linear-gradient-30);}.cls-53{fill:url(#linear-gradient-31);}.cls-54{fill:url(#linear-gradient-32);}.cls-55{fill:url(#linear-gradient-33);}.cls-56{fill:url(#linear-gradient-34);}.cls-57{fill:url(#linear-gradient-35);}.cls-58{fill:url(#linear-gradient-36);}.cls-59{fill:url(#linear-gradient-37);}.cls-60{fill:url(#linear-gradient-38);}.cls-61{fill:#227800;}.cls-62{fill:#2ea300;}.cls-63{fill:url(#linear-gradient-39);}.cls-64{fill:url(#linear-gradient-40);}.cls-65{fill:url(#linear-gradient-41);}.cls-66{fill:url(#linear-gradient-42);}.cls-67{fill:url(#linear-gradient-43);}.cls-68{fill:url(#linear-gradient-44);}.cls-69{fill:#ffdbba;opacity:0.2;}</style><linearGradient id="linear-gradient" x1="2.79" y1="49.05" x2="68.38" y2="49.05" gradientUnits="userSpaceOnUse"><stop offset="0" stop-color="#387502"/><stop offset="0.06" stop-color="#4e8e1b"/><stop offset="0.12" stop-color="#60a330"/><stop offset="0.19" stop-color="#6db23f"/><stop offset="0.28" stop-color="#75ba48"/><stop offset="0.4" stop-color="#77bd4b"/><stop offset="0.64" stop-color="#75bb49"/><stop offset="0.76" stop-color="#6fb441"/><stop offset="0.84" stop-color="#64a735"/><stop offset="0.92" stop-color="#549522"/><stop offset="0.98" stop-color="#407e0b"/><stop offset="1" stop-color="#387502"/></linearGradient><linearGradient id="linear-gradient-2" x1="2.79" y1="49.02" x2="68.38" y2="49.02" xlink:href="#linear-gradient"/><linearGradient id="linear-gradient-3" x1="2.79" y1="48.99" x2="68.38" y2="48.99" xlink:href="#linear-gradient"/><linearGradient id="linear-gradient-4" x1="2.79" y1="48.95" x2="68.38" y2="48.95" xlink:href="#linear-gradient"/><linearGradient id="linear-gradient-5" x1="2.79" y1="48.92" x2="68.38" y2="48.92" xlink:href="#linear-gradient"/><linearGradient id="linear-gradient-6" x1="2.79" y1="48.89" x2="68.38" y2="48.89" xlink:href="#linear-gradient"/><linearGradient id="linear-gradient-7" x1="2.79" y1="48.86" x2="68.38" y2="48.86" xlink:href="#linear-gradient"/><linearGradient id="linear-gradient-8" x1="2.79" y1="48.83" x2="68.38" y2="48.83" xlink:href="#linear-gradient"/><linearGradient id="linear-gradient-9" x1="2.79" y1="48.8" x2="68.38" y2="48.8" xlink:href="#linear-gradient"/><linearGradient id="linear-gradient-10" x1="2.79" y1="48.77" x2="68.38" y2="48.77" xlink:href="#linear-gradient"/><linearGradient id="linear-gradient-11" x1="2.79" y1="48.74" x2="68.38" y2="48.74" xlink:href="#linear-gradient"/><linearGradient id="linear-gradient-12" x1="2.79" y1="48.71" x2="68.38" y2="48.71" xlink:href="#linear-gradient"/><linearGradient id="linear-gradient-13" x1="2.41" y1="20.66" x2="68.66" y2="20.66" xlink:href="#linear-gradient"/><linearGradient id="linear-gradient-14" x1="3.54" y1="19.98" x2="77.47" y2="19.98" gradientUnits="userSpaceOnUse"><stop offset="0" stop-color="#387502"/><stop offset="0.08" stop-color="#3e7b08"/><stop offset="0.18" stop-color="#4d8d1b"/><stop offset="0.3" stop-color="#67aa38"/><stop offset="0.37" stop-color="#77bd4b"/><stop offset="0.47" stop-color="#74b947"/><stop offset="0.57" stop-color="#69ae3b"/><stop offset="0.67" stop-color="#589a28"/><stop offset="0.77" stop-color="#417f0c"/><stop offset="0.8" stop-color="#387502"/><stop offset="1" stop-color="#5d9f2d"/></linearGradient><linearGradient id="linear-gradient-15" x1="11.65" y1="19.98" x2="68.99" y2="19.98" xlink:href="#linear-gradient-14"/><clipPath id="clip-path" transform="translate(0 12.21)"><path class="cls-1" d="M9.39,39a7.24,7.24,0,0,1-5.63-2.29,4.46,4.46,0,0,1-1-3.73L6,5.76C6.46,3.13,9.84,1,13.53,1h44c3.69,0,7.07,2.14,7.53,4.77L68.32,33a4.46,4.46,0,0,1-1,3.73A7.24,7.24,0,0,1,61.67,39Z"/></clipPath><radialGradient id="radial-gradient" cx="707.1" cy="55.48" r="13.1" gradientTransform="matrix(0.22, 0, 0, 1.11, -147.28, -59.49)" gradientUnits="userSpaceOnUse"><stop offset="0" stop-color="#ffdbba"/><stop offset="1" stop-color="#1c0000"/></radialGradient><radialGradient id="radial-gradient-2" cx="-2198.42" cy="-68.05" r="13.1" gradientTransform="matrix(0, -0.22, -1.11, 0, -9.83, -479.02)" gradientUnits="userSpaceOnUse"><stop offset="0" stop-color="#ffdbba"/><stop offset="1" stop-color="#400000"/></radialGradient><linearGradient id="linear-gradient-16" x1="35.53" y1="53.67" x2="35.53" y2="12.48" gradientUnits="userSpaceOnUse"><stop offset="0.05" stop-color="#eb8766"/><stop offset="0.34" stop-color="#ffbd9c"/><stop offset="1" stop-color="#ffcead"/></linearGradient><linearGradient id="linear-gradient-17" x1="35.53" y1="53.61" x2="35.53" y2="12.54" gradientUnits="userSpaceOnUse"><stop offset="0" stop-color="#db855d"/><stop offset="0.05" stop-color="#db865d"/><stop offset="0.34" stop-color="#f2bc94"/><stop offset="0.37" stop-color="#f3be96"/><stop offset="0.72" stop-color="#efc098"/><stop offset="0.8" stop-color="#edc199"/><stop offset="1" stop-color="#f0caa1"/></linearGradient><linearGradient id="linear-gradient-18" x1="35.53" y1="53.54" x2="35.53" y2="12.61" gradientUnits="userSpaceOnUse"><stop offset="0" stop-color="#ca8454"/><stop offset="0.05" stop-color="#cb8455"/><stop offset="0.34" stop-color="#e5bc8c"/><stop offset="0.37" stop-color="#e6be8e"/><stop offset="0.63" stop-color="#e2bd8d"/><stop offset="0.8" stop-color="#dbba8a"/><stop offset="1" stop-color="#e2c596"/></linearGradient><linearGradient id="linear-gradient-19" x1="35.53" y1="53.48" x2="35.53" y2="12.67" gradientUnits="userSpaceOnUse"><stop offset="0" stop-color="#ba824b"/><stop offset="0.05" stop-color="#bb834c"/><stop offset="0.34" stop-color="#d8bb84"/><stop offset="0.37" stop-color="#dabe87"/><stop offset="0.58" stop-color="#d6bb84"/><stop offset="0.78" stop-color="#cab37c"/><stop offset="0.8" stop-color="#c9b27b"/><stop offset="1" stop-color="#d3c18a"/></linearGradient><linearGradient id="linear-gradient-20" x1="35.53" y1="53.42" x2="35.53" y2="12.73" gradientUnits="userSpaceOnUse"><stop offset="0" stop-color="#aa8042"/><stop offset="0.05" stop-color="#ab8243"/><stop offset="0.34" stop-color="#cbba7c"/><stop offset="0.37" stop-color="#cebe7f"/><stop offset="0.55" stop-color="#cabb7c"/><stop offset="0.72" stop-color="#beb072"/><stop offset="0.8" stop-color="#b7aa6c"/><stop offset="1" stop-color="#c4bd7e"/></linearGradient><linearGradient id="linear-gradient-21" x1="35.53" y1="53.36" x2="35.53" y2="12.79" gradientUnits="userSpaceOnUse"><stop offset="0" stop-color="#9a7f39"/><stop offset="0.05" stop-color="#9b813a"/><stop offset="0.34" stop-color="#beba74"/><stop offset="0.37" stop-color="#c1be78"/><stop offset="0.53" stop-color="#bdba74"/><stop offset="0.69" stop-color="#b1af69"/><stop offset="0.8" stop-color="#a5a35d"/><stop offset="1" stop-color="#b5b973"/></linearGradient><linearGradient id="linear-gradient-22" x1="35.53" y1="53.3" x2="35.53" y2="12.85" gradientUnits="userSpaceOnUse"><stop offset="0" stop-color="#897d2f"/><stop offset="0.05" stop-color="#8b7f32"/><stop offset="0.34" stop-color="#b2b96c"/><stop offset="0.37" stop-color="#b5bd70"/><stop offset="0.52" stop-color="#b1b96c"/><stop offset="0.66" stop-color="#a5ae60"/><stop offset="0.8" stop-color="#929b4d"/><stop offset="1" stop-color="#a7b467"/></linearGradient><linearGradient id="linear-gradient-23" x1="35.53" y1="53.23" x2="35.53" y2="12.91" gradientUnits="userSpaceOnUse"><stop offset="0" stop-color="#797c26"/><stop offset="0.05" stop-color="#7b7e29"/><stop offset="0.34" stop-color="#a5b964"/><stop offset="0.37" stop-color="#a8bd69"/><stop offset="0.5" stop-color="#a4b965"/><stop offset="0.63" stop-color="#99ae59"/><stop offset="0.76" stop-color="#879b46"/><stop offset="0.8" stop-color="#80943e"/><stop offset="1" stop-color="#98b05c"/></linearGradient><linearGradient id="linear-gradient-24" x1="35.53" y1="53.17" x2="35.53" y2="12.98" gradientUnits="userSpaceOnUse"><stop offset="0" stop-color="#697a1d"/><stop offset="0.05" stop-color="#6b7d20"/><stop offset="0.34" stop-color="#98b85c"/><stop offset="0.37" stop-color="#9cbd61"/><stop offset="0.49" stop-color="#98b95d"/><stop offset="0.61" stop-color="#8eae51"/><stop offset="0.73" stop-color="#7c9a3e"/><stop offset="0.8" stop-color="#6e8c2f"/><stop offset="1" stop-color="#89ac50"/></linearGradient><linearGradient id="linear-gradient-25" x1="35.53" y1="53.11" x2="35.53" y2="13.04" gradientUnits="userSpaceOnUse"><stop offset="0" stop-color="#597814"/><stop offset="0.05" stop-color="#5b7c17"/><stop offset="0.34" stop-color="#8bb754"/><stop offset="0.37" stop-color="#90bd5a"/><stop offset="0.48" stop-color="#8cb956"/><stop offset="0.59" stop-color="#82ae4a"/><stop offset="0.7" stop-color="#709a37"/><stop offset="0.8" stop-color="#5c8420"/><stop offset="1" stop-color="#7aa844"/></linearGradient><linearGradient id="linear-gradient-26" x1="35.53" y1="53.05" x2="35.53" y2="13.1" gradientUnits="userSpaceOnUse"><stop offset="0" stop-color="#48770b"/><stop offset="0.05" stop-color="#4b7a0f"/><stop offset="0.34" stop-color="#7eb74c"/><stop offset="0.37" stop-color="#83bd52"/><stop offset="0.48" stop-color="#80b94e"/><stop offset="0.58" stop-color="#75ae42"/><stop offset="0.69" stop-color="#649a2f"/><stop offset="0.79" stop-color="#4c7f13"/><stop offset="0.8" stop-color="#4a7d11"/><stop offset="1" stop-color="#6ca339"/></linearGradient><linearGradient id="linear-gradient-27" x1="35.53" y1="52.99" x2="35.53" y2="13.16" xlink:href="#linear-gradient-14"/><linearGradient id="linear-gradient-28" x1="35.22" y1="46.78" x2="35.22" y2="18.69" gradientUnits="userSpaceOnUse"><stop offset="0" stop-color="#ff9b7a"/><stop offset="0.17" stop-color="#ffb796"/><stop offset="0.91" stop-color="#ffba99"/><stop offset="0.97" stop-color="#ffcead"/></linearGradient><linearGradient id="linear-gradient-29" x1="35.22" y1="46.76" x2="35.22" y2="18.71" gradientUnits="userSpaceOnUse"><stop offset="0" stop-color="#eb986f"/><stop offset="0.17" stop-color="#ebb188"/><stop offset="0.91" stop-color="#ebb48b"/><stop offset="0.97" stop-color="#ebc69d"/></linearGradient><linearGradient id="linear-gradient-30" x1="35.22" y1="46.74" x2="35.22" y2="18.73" gradientUnits="userSpaceOnUse"><stop offset="0" stop-color="#d79564"/><stop offset="0.17" stop-color="#d7ac7b"/><stop offset="0.91" stop-color="#d7ae7d"/><stop offset="0.97" stop-color="#d7be8e"/></linearGradient><linearGradient id="linear-gradient-31" x1="35.22" y1="46.72" x2="35.22" y2="18.75" gradientUnits="userSpaceOnUse"><stop offset="0" stop-color="#c39159"/><stop offset="0.17" stop-color="#c3a66d"/><stop offset="0.91" stop-color="#c3a86f"/><stop offset="0.97" stop-color="#c3b77e"/></linearGradient><linearGradient id="linear-gradient-32" x1="35.22" y1="46.71" x2="35.22" y2="18.76" gradientUnits="userSpaceOnUse"><stop offset="0" stop-color="#af8e4e"/><stop offset="0.17" stop-color="#afa05f"/><stop offset="0.91" stop-color="#afa261"/><stop offset="0.97" stop-color="#afaf6e"/></linearGradient><linearGradient id="linear-gradient-33" x1="35.22" y1="46.69" x2="35.22" y2="18.78" gradientUnits="userSpaceOnUse"><stop offset="0" stop-color="#9b8b43"/><stop offset="0.17" stop-color="#9b9a52"/><stop offset="0.91" stop-color="#9b9c53"/><stop offset="0.97" stop-color="#9ba75e"/></linearGradient><linearGradient id="linear-gradient-34" x1="35.22" y1="46.67" x2="35.22" y2="18.8" gradientUnits="userSpaceOnUse"><stop offset="0" stop-color="#868837"/><stop offset="0.17" stop-color="#869544"/><stop offset="0.91" stop-color="#869646"/><stop offset="0.97" stop-color="#869f4f"/></linearGradient><linearGradient id="linear-gradient-35" x1="35.22" y1="46.65" x2="35.22" y2="18.82" gradientUnits="userSpaceOnUse"><stop offset="0" stop-color="#72852c"/><stop offset="0.17" stop-color="#728f37"/><stop offset="0.91" stop-color="#729038"/><stop offset="0.97" stop-color="#72973f"/></linearGradient><linearGradient id="linear-gradient-36" x1="35.22" y1="46.63" x2="35.22" y2="18.84" gradientUnits="userSpaceOnUse"><stop offset="0" stop-color="#5e8221"/><stop offset="0.17" stop-color="#5e8929"/><stop offset="0.91" stop-color="#5e8a2a"/><stop offset="0.97" stop-color="#5e8f2f"/></linearGradient><linearGradient id="linear-gradient-37" x1="35.22" y1="46.61" x2="35.22" y2="18.85" gradientUnits="userSpaceOnUse"><stop offset="0" stop-color="#4a7e16"/><stop offset="0.17" stop-color="#4a831b"/><stop offset="0.91" stop-color="#4a841c"/><stop offset="0.97" stop-color="#4a881f"/></linearGradient><linearGradient id="linear-gradient-38" x1="35.22" y1="46.6" x2="35.22" y2="18.87" gradientUnits="userSpaceOnUse"><stop offset="0" stop-color="#367b0b"/><stop offset="0.17" stop-color="#367e0e"/><stop offset="0.91" stop-color="#367e0e"/><stop offset="0.97" stop-color="#368010"/></linearGradient><linearGradient id="linear-gradient-39" x1="35.21" y1="63.11" x2="35.21" y2="16.51" gradientUnits="userSpaceOnUse"><stop offset="0" stop-color="#2b8b00"/><stop offset="0.23" stop-color="#309106"/><stop offset="0.37" stop-color="#35970d"/><stop offset="0.61" stop-color="#329309"/><stop offset="0.8" stop-color="#2b8b00"/><stop offset="1" stop-color="#319208"/></linearGradient><linearGradient id="linear-gradient-40" x1="35.21" y1="63.06" x2="35.21" y2="16.54" gradientUnits="userSpaceOnUse"><stop offset="0" stop-color="#2d8601"/><stop offset="0.16" stop-color="#338c07"/><stop offset="0.37" stop-color="#429e19"/><stop offset="0.54" stop-color="#3f9a15"/><stop offset="0.72" stop-color="#348e09"/><stop offset="0.8" stop-color="#2d8601"/><stop offset="1" stop-color="#3a940f"/></linearGradient><linearGradient id="linear-gradient-41" x1="35.2" y1="63.01" x2="35.2" y2="16.58" gradientUnits="userSpaceOnUse"><stop offset="0" stop-color="#308201"/><stop offset="0.12" stop-color="#368807"/><stop offset="0.28" stop-color="#459a19"/><stop offset="0.37" stop-color="#50a626"/><stop offset="0.51" stop-color="#4da222"/><stop offset="0.65" stop-color="#429716"/><stop offset="0.79" stop-color="#318403"/><stop offset="0.8" stop-color="#308201"/><stop offset="1" stop-color="#429717"/></linearGradient><linearGradient id="linear-gradient-42" x1="35.19" y1="62.96" x2="35.19" y2="16.62" gradientUnits="userSpaceOnUse"><stop offset="0" stop-color="#337e01"/><stop offset="0.1" stop-color="#398407"/><stop offset="0.23" stop-color="#489619"/><stop offset="0.37" stop-color="#5dae32"/><stop offset="0.49" stop-color="#5aaa2e"/><stop offset="0.61" stop-color="#509f22"/><stop offset="0.73" stop-color="#3f8b0f"/><stop offset="0.8" stop-color="#337e01"/><stop offset="1" stop-color="#4b9a1e"/></linearGradient><linearGradient id="linear-gradient-43" x1="35.19" y1="62.91" x2="35.19" y2="16.65" gradientUnits="userSpaceOnUse"><stop offset="0" stop-color="#357902"/><stop offset="0.09" stop-color="#3b7f08"/><stop offset="0.21" stop-color="#4b921b"/><stop offset="0.34" stop-color="#65af38"/><stop offset="0.37" stop-color="#6ab53e"/><stop offset="0.48" stop-color="#67b13a"/><stop offset="0.59" stop-color="#5ca52e"/><stop offset="0.7" stop-color="#4b921b"/><stop offset="0.8" stop-color="#357902"/><stop offset="1" stop-color="#549c25"/></linearGradient><linearGradient id="linear-gradient-44" x1="35.18" y1="62.86" x2="35.18" y2="16.69" xlink:href="#linear-gradient-14"/></defs><title>screen6-hold-less</title><g class="cls-2"><g id="Layer_1" data-name="Layer 1"><path class="cls-3" d="M2.79,37.25,5.42,56.32h0a6.33,6.33,0,0,0,6.15,4.53H59.49a6.33,6.33,0,0,0,6.15-4.53h0l2.63-19.07Z" transform="translate(0 12.21)"/><path class="cls-4" d="M2.79,37.25l2.63,19h0a6.33,6.33,0,0,0,6.15,4.51H59.49a6.33,6.33,0,0,0,6.15-4.51h0l2.63-19Z" transform="translate(0 12.21)"/><path class="cls-5" d="M2.79,37.25l2.63,19h0a6.33,6.33,0,0,0,6.15,4.49H59.49a6.33,6.33,0,0,0,6.15-4.49h0l2.63-19Z" transform="translate(0 12.21)"/><path class="cls-6" d="M2.79,37.25l2.63,19h0a6.32,6.32,0,0,0,6.15,4.47H59.49a6.32,6.32,0,0,0,6.15-4.47h0l2.63-19Z" transform="translate(0 12.21)"/><path class="cls-7" d="M2.79,37.25,5.42,56.16h0a6.32,6.32,0,0,0,6.15,4.45H59.49a6.32,6.32,0,0,0,6.15-4.45h0l2.63-18.91Z" transform="translate(0 12.21)"/><path class="cls-8" d="M2.79,37.25,5.42,56.12h0a6.32,6.32,0,0,0,6.15,4.42H59.49a6.32,6.32,0,0,0,6.15-4.42h0l2.63-18.87Z" transform="translate(0 12.21)"/><path class="cls-9" d="M2.79,37.25,5.42,56.08h0a6.31,6.31,0,0,0,6.15,4.4H59.49a6.31,6.31,0,0,0,6.15-4.4h0l2.63-18.83Z" transform="translate(0 12.21)"/><path class="cls-10" d="M2.79,37.25,5.42,56h0a6.31,6.31,0,0,0,6.15,4.38H59.49A6.31,6.31,0,0,0,65.64,56h0l2.63-18.79Z" transform="translate(0 12.21)"/><path class="cls-11" d="M2.79,37.25,5.42,56h0a6.31,6.31,0,0,0,6.15,4.36H59.49A6.31,6.31,0,0,0,65.64,56h0l2.63-18.75Z" transform="translate(0 12.21)"/><path class="cls-12" d="M2.79,37.25,5.42,56h0a6.31,6.31,0,0,0,6.15,4.34H59.49A6.31,6.31,0,0,0,65.64,56h0l2.63-18.72Z" transform="translate(0 12.21)"/><path class="cls-13" d="M2.79,37.25,5.42,55.92h0a6.3,6.3,0,0,0,6.15,4.32H59.49a6.3,6.3,0,0,0,6.15-4.32h0l2.63-18.68Z" transform="translate(0 12.21)"/><path class="cls-14" d="M2.79,37.25,5.42,55.88h0a6.3,6.3,0,0,0,6.15,4.3H59.49a6.3,6.3,0,0,0,6.15-4.3h0l2.63-18.64Z" transform="translate(0 12.21)"/><path class="cls-15" d="M2.79,39.22,4.52,41.9c.83.85,3.16,1.45,6.15,1.45H59.49c3,0,5.32-.6,6.15-1.45l2.63-2.68Z" transform="translate(0 12.21)"/><path class="cls-16" d="M2.79,39.22l1.73,2.64c.83.84,3.16,1.43,6.15,1.43H59.49c3,0,5.32-.59,6.15-1.43l2.63-2.64Z" transform="translate(0 12.21)"/><path class="cls-17" d="M2.79,39.22l1.73,2.59c.83.82,3.16,1.4,6.15,1.4H59.49c3,0,5.32-.58,6.15-1.4l2.63-2.59Z" transform="translate(0 12.21)"/><path class="cls-18" d="M2.79,39.22l1.73,2.55c.83.81,3.16,1.38,6.15,1.38H59.49c3,0,5.32-.57,6.15-1.38l2.63-2.55Z" transform="translate(0 12.21)"/><path class="cls-19" d="M2.79,39.22l1.73,2.51c.83.8,3.16,1.36,6.15,1.36H59.49c3,0,5.32-.56,6.15-1.36l2.63-2.51Z" transform="translate(0 12.21)"/><path class="cls-20" d="M2.79,39.22l1.73,2.47c.83.78,3.16,1.33,6.15,1.33H59.49c3,0,5.32-.55,6.15-1.33l2.63-2.47Z" transform="translate(0 12.21)"/><path class="cls-21" d="M2.79,39.22l1.73,2.42c.83.77,3.16,1.31,6.15,1.31H59.49c3,0,5.32-.54,6.15-1.31l2.63-2.42Z" transform="translate(0 12.21)"/><path class="cls-22" d="M2.79,39.22,4.52,41.6c.83.75,3.16,1.29,6.15,1.29H59.49c3,0,5.32-.53,6.15-1.29l2.63-2.38Z" transform="translate(0 12.21)"/><path class="cls-23" d="M2.79,39.22l1.73,2.34c.83.74,3.16,1.26,6.15,1.26H59.49c3,0,5.32-.52,6.15-1.26l2.63-2.34Z" transform="translate(0 12.21)"/><path class="cls-24" d="M2.79,39.22l1.73,2.29c.83.73,3.16,1.24,6.15,1.24H59.49c3,0,5.32-.51,6.15-1.24l2.63-2.29Z" transform="translate(0 12.21)"/><path class="cls-25" d="M2.79,39.22l1.73,2.25c.83.71,3.16,1.22,6.15,1.22H59.49c3,0,5.32-.5,6.15-1.22l2.63-2.25Z" transform="translate(0 12.21)"/><path class="cls-26" d="M2.79,39.22l1.73,2.21c.83.7,3.16,1.19,6.15,1.19H59.49c3,0,5.32-.49,6.15-1.19l2.63-2.21Z" transform="translate(0 12.21)"/><path class="cls-27" d="M70.08,33.18l-3.25-27C66.22,2.72,62.14,0,57.54,0h-44c-4.6,0-8.68,2.72-9.3,6.19L.08,38.57a2.53,2.53,0,0,0,0,.76h0L.2,40.45h0a2.16,2.16,0,0,0,2.24,1.88H61.56a9,9,0,0,0,7-2.89A6.21,6.21,0,0,0,70,36.2h0l.15-1.13h0A6.25,6.25,0,0,0,70.08,33.18Z" transform="translate(0 12.21)"/><path class="cls-28" d="M0,38.57,4.2,6.19C4.81,2.72,8.89,0,13.49,0h44c4.6,0,8.68,2.72,9.3,6.19l3.25,27a6.17,6.17,0,0,1-1.41,5.14,9.07,9.07,0,0,1-7,2.9H2.27A2.18,2.18,0,0,1,0,38.57Z" transform="translate(0 12.21)"/><path class="cls-29" d="M2.31,41a2,2,0,0,1-1.56-.68,2,2,0,0,1-.4-1.66L4.5,6.24c.59-3.35,4.56-6,9-6h44c4.47,0,8.44,2.62,9,6l3.25,27a5.9,5.9,0,0,1-1.35,4.92A8.8,8.8,0,0,1,61.67,41Z" transform="translate(0 12.21)"/><path class="cls-30" d="M.67,39.57,4.79,6.86c.59-3.39,4.52-6.05,9-6.05H57.31c4.44,0,8.37,2.66,9,6.05l3.22,27.25a6.12,6.12,0,0,1-.1,2.59,5.86,5.86,0,0,0,.43-3.47l-3.25-27c-.59-3.35-4.56-6-9-6h-44c-4.47,0-8.44,2.62-9,6L.34,38.62a2,2,0,0,0,.3,1.52A2.4,2.4,0,0,1,.67,39.57Z" transform="translate(0 12.21)"/><path class="cls-31" d="M68.66,33.77h0a5,5,0,0,0-.07-.86L65.33,5.71c-.49-2.79-4-5-7.79-5h-44c-3.82,0-7.31,2.2-7.79,5L2.48,32.91a5,5,0,0,0-.07.86h0v1.35h0c0,3.06,2.93,5.48,7,5.48H61.67c4.06,0,7-2.42,7-5.48h0Z" transform="translate(0 12.21)"/><path class="cls-32" d="M68.58,32.91c.6,3.46-2.48,6.34-6.91,6.34H9.39c-4.43,0-7.51-2.88-6.91-6.34L5.73,5.71c.49-2.79,4-5,7.79-5h44c3.82,0,7.31,2.2,7.79,5Z" transform="translate(0 12.21)"/><path class="cls-33" d="M13.53,1C9.84,1,6.46,3.13,6,5.76L2.75,33a4.46,4.46,0,0,0,1,3.73A7.24,7.24,0,0,0,9.39,39H39.69V1Z" transform="translate(0 12.21)"/><path class="cls-34" d="M68.32,33,65.06,5.76C64.61,3.13,61.23,1,57.54,1H39.69V39h22a7.24,7.24,0,0,0,5.63-2.29A4.46,4.46,0,0,0,68.32,33Z" transform="translate(0 12.21)"/><g class="cls-35"><ellipse class="cls-36" cx="7.44" cy="2.01" rx="2.87" ry="14.53" transform="translate(-0.26 13.82) rotate(-12.15)"/><ellipse class="cls-37" cx="65.54" cy="2.01" rx="14.53" ry="2.87" transform="translate(49.78 77.87) rotate(-77.85)"/><path class="cls-38" d="M66,46.77c.56,3.76-2.47,6.9-6.57,6.9H11.67c-4.09,0-7.13-3.14-6.57-6.9L8.29,17.92c.45-3,3.67-5.44,7.21-5.44H55.57c3.54,0,6.76,2.4,7.21,5.44Z" transform="translate(0 12.21)"/><path class="cls-39" d="M65.84,46.73c.56,3.75-2.45,6.88-6.53,6.88H11.76c-4.08,0-7.09-3.13-6.53-6.88L8.39,18c.45-3,3.66-5.42,7.19-5.42H55.49c3.52,0,6.74,2.39,7.19,5.42Z" transform="translate(0 12.21)"/><path class="cls-40" d="M65.72,46.69c.55,3.73-2.43,6.85-6.5,6.85H11.84c-4.07,0-7.05-3.12-6.5-6.85L8.48,18c.45-3,3.65-5.4,7.16-5.4H55.42c3.51,0,6.72,2.38,7.16,5.4Z" transform="translate(0 12.21)"/><path class="cls-41" d="M65.6,46.66c.55,3.72-2.4,6.82-6.46,6.82H11.93c-4.06,0-7-3.1-6.46-6.82L8.58,18c.45-3,3.64-5.38,7.14-5.38H55.35c3.5,0,6.7,2.37,7.14,5.38Z" transform="translate(0 12.21)"/><path class="cls-42" d="M65.48,46.62c.55,3.7-2.38,6.8-6.43,6.8H12c-4,0-7-3.09-6.43-6.8L8.67,18.09c.44-3,3.63-5.36,7.12-5.36H55.27c3.49,0,6.68,2.36,7.12,5.36Z" transform="translate(0 12.21)"/><path class="cls-43" d="M65.35,46.59C65.9,50.28,63,53.36,59,53.36H12.1c-4,0-6.94-3.08-6.39-6.77L8.77,18.13c.44-3,3.62-5.34,7.1-5.34H55.2c3.48,0,6.65,2.35,7.1,5.34Z" transform="translate(0 12.21)"/><path class="cls-44" d="M65.23,46.55c.55,3.68-2.33,6.74-6.35,6.74H12.18c-4,0-6.9-3.07-6.35-6.74l3-28.38c.44-3,3.61-5.32,7.08-5.32H55.13c3.47,0,6.63,2.35,7.08,5.32Z" transform="translate(0 12.21)"/><path class="cls-45" d="M65.11,46.52c.55,3.66-2.31,6.72-6.32,6.72H12.27c-4,0-6.86-3.06-6.32-6.72L9,18.21c.44-3,3.59-5.29,7.05-5.29h39c3.46,0,6.61,2.34,7.05,5.29Z" transform="translate(0 12.21)"/><path class="cls-46" d="M65,46.48c.54,3.65-2.29,6.69-6.28,6.69H12.35c-4,0-6.83-3-6.28-6.69l3-28.23c.44-2.95,3.58-5.27,7-5.27H55c3.45,0,6.59,2.33,7,5.27Z" transform="translate(0 12.21)"/><path class="cls-47" d="M64.87,46.44c.54,3.63-2.27,6.67-6.25,6.67H12.44c-4,0-6.79-3-6.25-6.67l3-28.15c.44-2.94,3.57-5.25,7-5.25H54.91c3.44,0,6.57,2.32,7,5.25Z" transform="translate(0 12.21)"/><path class="cls-48" d="M64.75,46.41C65.29,50,62.51,53,58.54,53h-46c-4,0-6.75-3-6.21-6.64L9.24,18.33c.44-2.92,3.56-5.23,7-5.23h38.6c3.43,0,6.55,2.31,7,5.23Z" transform="translate(0 12.21)"/><path class="cls-49" d="M64.63,46.37C65.17,50,62.41,53,58.45,53H12.61c-4,0-6.72-3-6.18-6.61l2.91-28c.44-2.91,3.55-5.21,7-5.21H54.76c3.42,0,6.53,2.3,7,5.21Z" transform="translate(0 12.21)"/><path class="cls-50" d="M57,44.74c.1,1.12-1.29,2-2.57,2H16c-1.28,0-2.67-.91-2.57-2l1.89-24.27a2.22,2.22,0,0,1,2.31-1.78H52.79a2.22,2.22,0,0,1,2.31,1.78Z" transform="translate(0 12.21)"/><path class="cls-51" d="M56.94,44.73c.1,1.12-1.27,2-2.54,2H16.05c-1.27,0-2.65-.91-2.54-2l1.87-24.24a2.21,2.21,0,0,1,2.3-1.78H52.76a2.21,2.21,0,0,1,2.3,1.78Z" transform="translate(0 12.21)"/><path class="cls-52" d="M56.88,44.72c.1,1.12-1.24,2-2.52,2H16.08c-1.27,0-2.62-.91-2.52-2L15.41,20.5a2.2,2.2,0,0,1,2.29-1.78h35A2.2,2.2,0,0,1,55,20.5Z" transform="translate(0 12.21)"/><path class="cls-53" d="M56.83,44.7c.1,1.11-1.22,2-2.49,2H16.1c-1.27,0-2.59-.91-2.49-2l1.83-24.18a2.19,2.19,0,0,1,2.28-1.77h35A2.19,2.19,0,0,1,55,20.52Z" transform="translate(0 12.21)"/><path class="cls-54" d="M56.78,44.69c.1,1.11-1.19,2-2.46,2H16.13c-1.27,0-2.57-.91-2.46-2l1.81-24.15a2.18,2.18,0,0,1,2.27-1.77H52.69A2.18,2.18,0,0,1,55,20.53Z" transform="translate(0 12.21)"/><path class="cls-55" d="M56.73,44.67c.1,1.11-1.17,2-2.44,2H16.15c-1.27,0-2.54-.91-2.44-2l1.8-24.12a2.17,2.17,0,0,1,2.26-1.77h34.9a2.17,2.17,0,0,1,2.26,1.77Z" transform="translate(0 12.21)"/><path class="cls-56" d="M56.67,44.66c.1,1.11-1.14,2-2.41,2H16.18c-1.27,0-2.51-.9-2.41-2l1.78-24.09A2.15,2.15,0,0,1,17.8,18.8H52.65a2.15,2.15,0,0,1,2.25,1.76Z" transform="translate(0 12.21)"/><path class="cls-57" d="M56.62,44.64c.1,1.1-1.12,2-2.38,2h-38c-1.27,0-2.48-.9-2.38-2l1.76-24.07a2.14,2.14,0,0,1,2.24-1.76h34.8a2.14,2.14,0,0,1,2.24,1.76Z" transform="translate(0 12.21)"/><path class="cls-58" d="M56.57,44.63c.1,1.1-1.09,2-2.36,2h-38c-1.27,0-2.46-.9-2.36-2l1.74-24a2.13,2.13,0,0,1,2.23-1.76H52.6a2.13,2.13,0,0,1,2.23,1.76Z" transform="translate(0 12.21)"/><path class="cls-59" d="M56.52,44.62c.1,1.1-1.07,2-2.33,2H16.26c-1.26,0-2.43-.9-2.33-2l1.73-24a2.12,2.12,0,0,1,2.22-1.75H52.57a2.12,2.12,0,0,1,2.22,1.75Z" transform="translate(0 12.21)"/><path class="cls-60" d="M56.47,44.6c.1,1.1-1,2-2.3,2H16.28c-1.26,0-2.4-.9-2.3-2l1.71-24a2.11,2.11,0,0,1,2.21-1.75H52.55a2.11,2.11,0,0,1,2.21,1.75Z" transform="translate(0 12.21)"/><path class="cls-61" d="M56.41,44.59a2.09,2.09,0,0,1-2.28,2H16.31a2.09,2.09,0,0,1-2.28-2l1.69-23.95a2.1,2.1,0,0,1,2.2-1.75H52.53a2.1,2.1,0,0,1,2.2,1.75Z" transform="translate(0 12.21)"/><path class="cls-62" d="M16.31,45.51a1.28,1.28,0,0,1-1-.4.55.55,0,0,1-.14-.42L16.6,20.75c0-.32.56-.79,1.32-.79H52.53c.76,0,1.29.47,1.32.79l1.42,23.95a.55.55,0,0,1-.14.42,1.28,1.28,0,0,1-1,.4Z" transform="translate(0 12.21)"/><path class="cls-29" d="M15.71,44.72l1.5-24.09a.79.79,0,0,1,.7-.32H52.53a.79.79,0,0,1,.7.32l1.5,24.09h0C54.65,44.82,15.71,44.72,15.71,44.72Z" transform="translate(0 12.21)"/><path class="cls-63" d="M17.25,20.64a.76.76,0,0,1,.69-.3H52.51a.79.79,0,0,1,.7.3l1.47,24.07h0c-.07.09-38.94,0-38.94,0Z" transform="translate(0 12.21)"/><path class="cls-64" d="M17.29,20.66a.72.72,0,0,1,.67-.28H52.48a.79.79,0,0,1,.7.28l1.44,24h0c-.06.07-38.84,0-38.84,0Z" transform="translate(0 12.21)"/><path class="cls-65" d="M17.32,20.67c.07-.1.21-.27.66-.27H52.46a.79.79,0,0,1,.7.27l1.41,24h0c0,.05-38.75,0-38.75,0Z" transform="translate(0 12.21)"/><path class="cls-66" d="M17.36,20.68c.07-.1.19-.25.64-.25H52.44c.45,0,.63.15.7.25l1.38,24h0s-38.66,0-38.66,0Z" transform="translate(0 12.21)"/><path class="cls-67" d="M17.4,20.7c.07-.1.18-.23.63-.23H52.42c.45,0,.63.14.7.23l1.35,24h0s-38.57,0-38.57,0Z" transform="translate(0 12.21)"/><path class="cls-68" d="M15.94,44.67l1.5-24c.07-.1.16-.22.61-.22H52.4c.45,0,.63.12.7.22l1.32,24Z" transform="translate(0 12.21)"/><path class="cls-69" d="M68.23,36.31,65,8.62C64.52,6,61.19,3.8,57.54,3.8h-44c-3.65,0-7,2.16-7.44,4.82L2.84,36.31a4.57,4.57,0,0,0,1,3.76,7.06,7.06,0,0,0,5.56,2.32H61.67a7.06,7.06,0,0,0,5.56-2.32A4.57,4.57,0,0,0,68.23,36.31ZM67.09,40a6.89,6.89,0,0,1-5.42,2.25H9.39A6.89,6.89,0,0,1,4,40a4.39,4.39,0,0,1-1-3.61L6.26,8.65C6.7,6.08,10,4,13.53,4h44c3.57,0,6.83,2.1,7.26,4.67L68,36.34A4.39,4.39,0,0,1,67.09,40Z" transform="translate(0 12.21)"/></g></g></g></svg>