<svg xmlns="http://www.w3.org/2000/svg" xmlns:xlink="http://www.w3.org/1999/xlink" viewBox="0 0 131.44 135.21"><defs><style>.cls-1{fill:none;}.cls-2{isolation:isolate;}.cls-3{fill:url(#linear-gradient);}.cls-4{fill:url(#linear-gradient-2);}.cls-5{fill:url(#linear-gradient-3);}.cls-6{fill:url(#linear-gradient-4);}.cls-7{fill:url(#linear-gradient-5);}.cls-8{fill:url(#linear-gradient-6);}.cls-9{fill:url(#linear-gradient-7);}.cls-10{fill:url(#linear-gradient-8);}.cls-11{fill:url(#linear-gradient-9);}.cls-12{fill:url(#linear-gradient-10);}.cls-13{fill:url(#linear-gradient-11);}.cls-14{fill:url(#linear-gradient-12);}.cls-15,.cls-16,.cls-17,.cls-18,.cls-19,.cls-20,.cls-21,.cls-22,.cls-23,.cls-24,.cls-25,.cls-26{fill:#630000;}.cls-15,.cls-38,.cls-50{opacity:0;}.cls-16{opacity:0.01;}.cls-17{opacity:0.01;}.cls-18{opacity:0.02;}.cls-19{opacity:0.03;}.cls-20{opacity:0.04;}.cls-21{opacity:0.04;}.cls-22{opacity:0.05;}.cls-23{opacity:0.06;}.cls-24{opacity:0.07;}.cls-25{opacity:0.07;}.cls-26{opacity:0.08;}.cls-27{fill:#248000;}.cls-28{fill:#73e846;}.cls-29{fill:#288f00;}.cls-30{fill:#35bf00;}.cls-31{fill:url(#linear-gradient-13);}.cls-32{fill:#31ad00;}.cls-33{fill:url(#linear-gradient-14);}.cls-34{fill:url(#linear-gradient-15);}.cls-35{clip-path:url(#clip-path);}.cls-36,.cls-37{opacity:0.25;mix-blend-mode:screen;}.cls-36{fill:url(#radial-gradient);}.cls-37{fill:url(#radial-gradient-2);}.cls-38{fill:url(#linear-gradient-16);}.cls-39,.cls-51{opacity:0.09;}.cls-39{fill:url(#linear-gradient-17);}.cls-40,.cls-52{opacity:0.18;}.cls-40{fill:url(#linear-gradient-18);}.cls-41,.cls-53{opacity:0.27;}.cls-41{fill:url(#linear-gradient-19);}.cls-42,.cls-54{opacity:0.36;}.cls-42{fill:url(#linear-gradient-20);}.cls-43,.cls-55{opacity:0.45;}.cls-43{fill:url(#linear-gradient-21);}.cls-44,.cls-56{opacity:0.55;}.cls-44{fill:url(#linear-gradient-22);}.cls-45,.cls-57{opacity:0.64;}.cls-45{fill:url(#linear-gradient-23);}.cls-46,.cls-58{opacity:0.73;}.cls-46{fill:url(#linear-gradient-24);}.cls-47,.cls-59{opacity:0.82;}.cls-47{fill:url(#linear-gradient-25);}.cls-48,.cls-60{opacity:0.91;}.cls-48{fill:url(#linear-gradient-26);}.cls-49{fill:url(#linear-gradient-27);}.cls-50{fill:url(#linear-gradient-28);}.cls-51{fill:url(#linear-gradient-29);}.cls-52{fill:url(#linear-gradient-30);}.cls-53{fill:url(#linear-gradient-31);}.cls-54{fill:url(#linear-gradient-32);}.cls-55{fill:url(#linear-gradient-33);}.cls-56{fill:url(#linear-gradient-34);}.cls-57{fill:url(#linear-gradient-35);}.cls-58{fill:url(#linear-gradient-36);}.cls-59{fill:url(#linear-gradient-37);}.cls-60{fill:url(#linear-gradient-38);}.cls-61{fill:#227800;}.cls-62{fill:#2ea300;}.cls-63{fill:url(#linear-gradient-39);}.cls-64{fill:url(#linear-gradient-40);}.cls-65{fill:url(#linear-gradient-41);}.cls-66{fill:url(#linear-gradient-42);}.cls-67{fill:url(#linear-gradient-43);}.cls-68{fill:url(#linear-gradient-44);}.cls-69{fill:#ffdbba;opacity:0.2;}</style><linearGradient id="linear-gradient" x1="5.14" y1="90.97" x2="120.28" y2="90.97" gradientUnits="userSpaceOnUse"><stop offset="0" stop-color="#387502"/><stop offset="0.06" stop-color="#4e8e1b"/><stop offset="0.12" stop-color="#60a330"/><stop offset="0.19" stop-color="#6db23f"/><stop offset="0.28" stop-color="#75ba48"/><stop offset="0.4" stop-color="#77bd4b"/><stop offset="0.64" stop-color="#75bb49"/><stop offset="0.76" stop-color="#6fb441"/><stop offset="0.84" stop-color="#64a735"/><stop offset="0.92" stop-color="#549522"/><stop offset="0.98" stop-color="#407e0b"/><stop offset="1" stop-color="#387502"/></linearGradient><linearGradient id="linear-gradient-2" x1="5.14" y1="90.92" x2="120.28" y2="90.92" xlink:href="#linear-gradient"/><linearGradient id="linear-gradient-3" x1="5.14" y1="90.86" x2="120.28" y2="90.86" xlink:href="#linear-gradient"/><linearGradient id="linear-gradient-4" x1="5.14" y1="90.81" x2="120.28" y2="90.81" xlink:href="#linear-gradient"/><linearGradient id="linear-gradient-5" x1="5.14" y1="90.75" x2="120.28" y2="90.75" xlink:href="#linear-gradient"/><linearGradient id="linear-gradient-6" x1="5.14" y1="90.69" x2="120.28" y2="90.69" xlink:href="#linear-gradient"/><linearGradient id="linear-gradient-7" x1="5.14" y1="90.64" x2="120.28" y2="90.64" xlink:href="#linear-gradient"/><linearGradient id="linear-gradient-8" x1="5.14" y1="90.58" x2="120.28" y2="90.58" xlink:href="#linear-gradient"/><linearGradient id="linear-gradient-9" x1="5.14" y1="90.53" x2="120.28" y2="90.53" xlink:href="#linear-gradient"/><linearGradient id="linear-gradient-10" x1="5.14" y1="90.47" x2="120.28" y2="90.47" xlink:href="#linear-gradient"/><linearGradient id="linear-gradient-11" x1="5.14" y1="90.41" x2="120.28" y2="90.41" xlink:href="#linear-gradient"/><linearGradient id="linear-gradient-12" x1="5.14" y1="90.36" x2="120.28" y2="90.36" xlink:href="#linear-gradient"/><linearGradient id="linear-gradient-13" x1="4.44" y1="38.36" x2="123.4" y2="38.36" xlink:href="#linear-gradient"/><linearGradient id="linear-gradient-14" x1="6.73" y1="37.12" x2="160.4" y2="37.12" gradientUnits="userSpaceOnUse"><stop offset="0" stop-color="#387502"/><stop offset="0.08" stop-color="#3e7b08"/><stop offset="0.18" stop-color="#4d8d1b"/><stop offset="0.3" stop-color="#67aa38"/><stop offset="0.37" stop-color="#77bd4b"/><stop offset="0.47" stop-color="#74b947"/><stop offset="0.57" stop-color="#69ae3b"/><stop offset="0.67" stop-color="#589a28"/><stop offset="0.77" stop-color="#417f0c"/><stop offset="0.8" stop-color="#387502"/><stop offset="1" stop-color="#5d9f2d"/></linearGradient><linearGradient id="linear-gradient-15" x1="24.49" y1="37.12" x2="123.96" y2="37.12" xlink:href="#linear-gradient-14"/><clipPath id="clip-path" transform="translate(0 22.49)"><path class="cls-1" d="M17.31,72.43c-4.33,0-8.11-1.54-10.36-4.22a8.21,8.21,0,0,1-1.88-6.88L19.79,10.61c.85-4.85,7.07-8.8,13.87-8.8H109c6.8,0,13,3.95,13.87,8.8l-2.75,50.71a8.21,8.21,0,0,1-1.88,6.88c-2.25,2.68-6,4.22-10.36,4.22Z"/></clipPath><radialGradient id="radial-gradient" cx="687.45" cy="56.59" r="24.14" gradientTransform="matrix(0.22, 0, 0, 1.11, -127.97, -59.02)" gradientUnits="userSpaceOnUse"><stop offset="0" stop-color="#ffdbba"/><stop offset="1" stop-color="#1c0000"/></radialGradient><radialGradient id="radial-gradient-2" cx="-2272.97" cy="-69.28" r="24.14" gradientTransform="matrix(0, -0.22, -1.11, 0, 47.06, -493.64)" gradientUnits="userSpaceOnUse"><stop offset="0" stop-color="#ffdbba"/><stop offset="1" stop-color="#400000"/></radialGradient><linearGradient id="linear-gradient-16" x1="63.99" y1="99.49" x2="63.99" y2="23" gradientUnits="userSpaceOnUse"><stop offset="0.05" stop-color="#eb8766"/><stop offset="0.34" stop-color="#ffbd9c"/><stop offset="1" stop-color="#ffcead"/></linearGradient><linearGradient id="linear-gradient-17" x1="64.01" y1="99.37" x2="64.01" y2="23.11" gradientUnits="userSpaceOnUse"><stop offset="0" stop-color="#db855d"/><stop offset="0.05" stop-color="#db865d"/><stop offset="0.34" stop-color="#f2bc94"/><stop offset="0.37" stop-color="#f3be96"/><stop offset="0.72" stop-color="#efc098"/><stop offset="0.8" stop-color="#edc199"/><stop offset="1" stop-color="#f0caa1"/></linearGradient><linearGradient id="linear-gradient-18" x1="64.04" y1="99.26" x2="64.04" y2="23.23" gradientUnits="userSpaceOnUse"><stop offset="0" stop-color="#ca8454"/><stop offset="0.05" stop-color="#cb8455"/><stop offset="0.34" stop-color="#e5bc8c"/><stop offset="0.37" stop-color="#e6be8e"/><stop offset="0.63" stop-color="#e2bd8d"/><stop offset="0.8" stop-color="#dbba8a"/><stop offset="1" stop-color="#e2c596"/></linearGradient><linearGradient id="linear-gradient-19" x1="64.06" y1="99.15" x2="64.06" y2="23.34" gradientUnits="userSpaceOnUse"><stop offset="0" stop-color="#ba824b"/><stop offset="0.05" stop-color="#bb834c"/><stop offset="0.34" stop-color="#d8bb84"/><stop offset="0.37" stop-color="#dabe87"/><stop offset="0.58" stop-color="#d6bb84"/><stop offset="0.78" stop-color="#cab37c"/><stop offset="0.8" stop-color="#c9b27b"/><stop offset="1" stop-color="#d3c18a"/></linearGradient><linearGradient id="linear-gradient-20" x1="64.08" y1="99.03" x2="64.08" y2="23.45" gradientUnits="userSpaceOnUse"><stop offset="0" stop-color="#aa8042"/><stop offset="0.05" stop-color="#ab8243"/><stop offset="0.34" stop-color="#cbba7c"/><stop offset="0.37" stop-color="#cebe7f"/><stop offset="0.55" stop-color="#cabb7c"/><stop offset="0.72" stop-color="#beb072"/><stop offset="0.8" stop-color="#b7aa6c"/><stop offset="1" stop-color="#c4bd7e"/></linearGradient><linearGradient id="linear-gradient-21" x1="64.11" y1="98.92" x2="64.11" y2="23.57" gradientUnits="userSpaceOnUse"><stop offset="0" stop-color="#9a7f39"/><stop offset="0.05" stop-color="#9b813a"/><stop offset="0.34" stop-color="#beba74"/><stop offset="0.37" stop-color="#c1be78"/><stop offset="0.53" stop-color="#bdba74"/><stop offset="0.69" stop-color="#b1af69"/><stop offset="0.8" stop-color="#a5a35d"/><stop offset="1" stop-color="#b5b973"/></linearGradient><linearGradient id="linear-gradient-22" x1="64.13" y1="98.81" x2="64.13" y2="23.68" gradientUnits="userSpaceOnUse"><stop offset="0" stop-color="#897d2f"/><stop offset="0.05" stop-color="#8b7f32"/><stop offset="0.34" stop-color="#b2b96c"/><stop offset="0.37" stop-color="#b5bd70"/><stop offset="0.52" stop-color="#b1b96c"/><stop offset="0.66" stop-color="#a5ae60"/><stop offset="0.8" stop-color="#929b4d"/><stop offset="1" stop-color="#a7b467"/></linearGradient><linearGradient id="linear-gradient-23" x1="64.15" y1="98.69" x2="64.15" y2="23.8" gradientUnits="userSpaceOnUse"><stop offset="0" stop-color="#797c26"/><stop offset="0.05" stop-color="#7b7e29"/><stop offset="0.34" stop-color="#a5b964"/><stop offset="0.37" stop-color="#a8bd69"/><stop offset="0.5" stop-color="#a4b965"/><stop offset="0.63" stop-color="#99ae59"/><stop offset="0.76" stop-color="#879b46"/><stop offset="0.8" stop-color="#80943e"/><stop offset="1" stop-color="#98b05c"/></linearGradient><linearGradient id="linear-gradient-24" x1="64.18" y1="98.58" x2="64.18" y2="23.91" gradientUnits="userSpaceOnUse"><stop offset="0" stop-color="#697a1d"/><stop offset="0.05" stop-color="#6b7d20"/><stop offset="0.34" stop-color="#98b85c"/><stop offset="0.37" stop-color="#9cbd61"/><stop offset="0.49" stop-color="#98b95d"/><stop offset="0.61" stop-color="#8eae51"/><stop offset="0.73" stop-color="#7c9a3e"/><stop offset="0.8" stop-color="#6e8c2f"/><stop offset="1" stop-color="#89ac50"/></linearGradient><linearGradient id="linear-gradient-25" x1="64.2" y1="98.46" x2="64.2" y2="24.02" gradientUnits="userSpaceOnUse"><stop offset="0" stop-color="#597814"/><stop offset="0.05" stop-color="#5b7c17"/><stop offset="0.34" stop-color="#8bb754"/><stop offset="0.37" stop-color="#90bd5a"/><stop offset="0.48" stop-color="#8cb956"/><stop offset="0.59" stop-color="#82ae4a"/><stop offset="0.7" stop-color="#709a37"/><stop offset="0.8" stop-color="#5c8420"/><stop offset="1" stop-color="#7aa844"/></linearGradient><linearGradient id="linear-gradient-26" x1="64.22" y1="98.35" x2="64.22" y2="24.14" gradientUnits="userSpaceOnUse"><stop offset="0" stop-color="#48770b"/><stop offset="0.05" stop-color="#4b7a0f"/><stop offset="0.34" stop-color="#7eb74c"/><stop offset="0.37" stop-color="#83bd52"/><stop offset="0.48" stop-color="#80b94e"/><stop offset="0.58" stop-color="#75ae42"/><stop offset="0.69" stop-color="#649a2f"/><stop offset="0.79" stop-color="#4c7f13"/><stop offset="0.8" stop-color="#4a7d11"/><stop offset="1" stop-color="#6ca339"/></linearGradient><linearGradient id="linear-gradient-27" x1="64.25" y1="98.24" x2="64.25" y2="24.25" xlink:href="#linear-gradient-14"/><linearGradient id="linear-gradient-28" x1="64.67" y1="86.8" x2="64.67" y2="34.44" gradientUnits="userSpaceOnUse"><stop offset="0" stop-color="#ff9b7a"/><stop offset="0.17" stop-color="#ffb796"/><stop offset="0.91" stop-color="#ffba99"/><stop offset="0.97" stop-color="#ffcead"/></linearGradient><linearGradient id="linear-gradient-29" x1="64.69" y1="86.76" x2="64.69" y2="34.47" gradientUnits="userSpaceOnUse"><stop offset="0" stop-color="#eb986f"/><stop offset="0.17" stop-color="#ebb188"/><stop offset="0.91" stop-color="#ebb48b"/><stop offset="0.97" stop-color="#ebc69d"/></linearGradient><linearGradient id="linear-gradient-30" x1="64.7" y1="86.73" x2="64.7" y2="34.51" gradientUnits="userSpaceOnUse"><stop offset="0" stop-color="#d79564"/><stop offset="0.17" stop-color="#d7ac7b"/><stop offset="0.91" stop-color="#d7ae7d"/><stop offset="0.97" stop-color="#d7be8e"/></linearGradient><linearGradient id="linear-gradient-31" x1="64.72" y1="86.69" x2="64.72" y2="34.54" gradientUnits="userSpaceOnUse"><stop offset="0" stop-color="#c39159"/><stop offset="0.17" stop-color="#c3a66d"/><stop offset="0.91" stop-color="#c3a86f"/><stop offset="0.97" stop-color="#c3b77e"/></linearGradient><linearGradient id="linear-gradient-32" x1="64.74" y1="86.66" x2="64.74" y2="34.57" gradientUnits="userSpaceOnUse"><stop offset="0" stop-color="#af8e4e"/><stop offset="0.17" stop-color="#afa05f"/><stop offset="0.91" stop-color="#afa261"/><stop offset="0.97" stop-color="#afaf6e"/></linearGradient><linearGradient id="linear-gradient-33" x1="64.75" y1="86.63" x2="64.75" y2="34.61" gradientUnits="userSpaceOnUse"><stop offset="0" stop-color="#9b8b43"/><stop offset="0.17" stop-color="#9b9a52"/><stop offset="0.91" stop-color="#9b9c53"/><stop offset="0.97" stop-color="#9ba75e"/></linearGradient><linearGradient id="linear-gradient-34" x1="64.77" y1="86.59" x2="64.77" y2="34.64" gradientUnits="userSpaceOnUse"><stop offset="0" stop-color="#868837"/><stop offset="0.17" stop-color="#869544"/><stop offset="0.91" stop-color="#869646"/><stop offset="0.97" stop-color="#869f4f"/></linearGradient><linearGradient id="linear-gradient-35" x1="64.79" y1="86.56" x2="64.79" y2="34.67" gradientUnits="userSpaceOnUse"><stop offset="0" stop-color="#72852c"/><stop offset="0.17" stop-color="#728f37"/><stop offset="0.91" stop-color="#729038"/><stop offset="0.97" stop-color="#72973f"/></linearGradient><linearGradient id="linear-gradient-36" x1="64.8" y1="86.53" x2="64.8" y2="34.71" gradientUnits="userSpaceOnUse"><stop offset="0" stop-color="#5e8221"/><stop offset="0.17" stop-color="#5e8929"/><stop offset="0.91" stop-color="#5e8a2a"/><stop offset="0.97" stop-color="#5e8f2f"/></linearGradient><linearGradient id="linear-gradient-37" x1="64.82" y1="86.49" x2="64.82" y2="34.74" gradientUnits="userSpaceOnUse"><stop offset="0" stop-color="#4a7e16"/><stop offset="0.17" stop-color="#4a831b"/><stop offset="0.91" stop-color="#4a841c"/><stop offset="0.97" stop-color="#4a881f"/></linearGradient><linearGradient id="linear-gradient-38" x1="64.84" y1="86.46" x2="64.84" y2="34.77" gradientUnits="userSpaceOnUse"><stop offset="0" stop-color="#367b0b"/><stop offset="0.17" stop-color="#367e0e"/><stop offset="0.91" stop-color="#367e0e"/><stop offset="0.97" stop-color="#368010"/></linearGradient><linearGradient id="linear-gradient-39" x1="65.04" y1="117.34" x2="65.04" y2="30.32" gradientUnits="userSpaceOnUse"><stop offset="0" stop-color="#2b8b00"/><stop offset="0.23" stop-color="#309106"/><stop offset="0.37" stop-color="#35970d"/><stop offset="0.61" stop-color="#329309"/><stop offset="0.8" stop-color="#2b8b00"/><stop offset="1" stop-color="#319208"/></linearGradient><linearGradient id="linear-gradient-40" x1="65.06" y1="117.25" x2="65.06" y2="30.39" gradientUnits="userSpaceOnUse"><stop offset="0" stop-color="#2d8601"/><stop offset="0.16" stop-color="#338c07"/><stop offset="0.37" stop-color="#429e19"/><stop offset="0.54" stop-color="#3f9a15"/><stop offset="0.72" stop-color="#348e09"/><stop offset="0.8" stop-color="#2d8601"/><stop offset="1" stop-color="#3a940f"/></linearGradient><linearGradient id="linear-gradient-41" x1="65.07" y1="117.16" x2="65.07" y2="30.45" gradientUnits="userSpaceOnUse"><stop offset="0" stop-color="#308201"/><stop offset="0.12" stop-color="#368807"/><stop offset="0.28" stop-color="#459a19"/><stop offset="0.37" stop-color="#50a626"/><stop offset="0.51" stop-color="#4da222"/><stop offset="0.65" stop-color="#429716"/><stop offset="0.79" stop-color="#318403"/><stop offset="0.8" stop-color="#308201"/><stop offset="1" stop-color="#429717"/></linearGradient><linearGradient id="linear-gradient-42" x1="65.09" y1="117.07" x2="65.09" y2="30.52" gradientUnits="userSpaceOnUse"><stop offset="0" stop-color="#337e01"/><stop offset="0.1" stop-color="#398407"/><stop offset="0.23" stop-color="#489619"/><stop offset="0.37" stop-color="#5dae32"/><stop offset="0.49" stop-color="#5aaa2e"/><stop offset="0.61" stop-color="#509f22"/><stop offset="0.73" stop-color="#3f8b0f"/><stop offset="0.8" stop-color="#337e01"/><stop offset="1" stop-color="#4b9a1e"/></linearGradient><linearGradient id="linear-gradient-43" x1="65.1" y1="116.97" x2="65.1" y2="30.59" gradientUnits="userSpaceOnUse"><stop offset="0" stop-color="#357902"/><stop offset="0.09" stop-color="#3b7f08"/><stop offset="0.21" stop-color="#4b921b"/><stop offset="0.34" stop-color="#65af38"/><stop offset="0.37" stop-color="#6ab53e"/><stop offset="0.48" stop-color="#67b13a"/><stop offset="0.59" stop-color="#5ca52e"/><stop offset="0.7" stop-color="#4b921b"/><stop offset="0.8" stop-color="#357902"/><stop offset="1" stop-color="#549c25"/></linearGradient><linearGradient id="linear-gradient-44" x1="65.12" y1="116.88" x2="65.12" y2="30.66" xlink:href="#linear-gradient-14"/></defs><title>screen3-hold-more</title><g class="cls-2"><g id="Layer_1" data-name="Layer 1"><path class="cls-3" d="M5.14,69.23,10,104.37h0a11.67,11.67,0,0,0,11.33,8.35h82.59a11.67,11.67,0,0,0,11.33-8.35h0l4.84-35.14Z" transform="translate(0 22.49)"/><path class="cls-4" d="M5.14,69.23,10,104.3h0a11.66,11.66,0,0,0,11.33,8.31h82.59a11.66,11.66,0,0,0,11.33-8.31h0l4.84-35.07Z" transform="translate(0 22.49)"/><path class="cls-5" d="M5.14,69.23l4.84,35h0a11.66,11.66,0,0,0,11.33,8.27h82.59a11.66,11.66,0,0,0,11.33-8.27h0l4.84-35Z" transform="translate(0 22.49)"/><path class="cls-6" d="M5.14,69.23,10,104.15h0a11.65,11.65,0,0,0,11.33,8.23h82.59a11.65,11.65,0,0,0,11.33-8.23h0l4.84-34.92Z" transform="translate(0 22.49)"/><path class="cls-7" d="M5.14,69.23,10,104.08h0a11.64,11.64,0,0,0,11.33,8.19h82.59a11.64,11.64,0,0,0,11.33-8.19h0l4.84-34.85Z" transform="translate(0 22.49)"/><path class="cls-8" d="M5.14,69.23,10,104h0a11.64,11.64,0,0,0,11.33,8.15h82.59A11.64,11.64,0,0,0,115.25,104h0l4.84-34.78Z" transform="translate(0 22.49)"/><path class="cls-9" d="M5.14,69.23,10,103.93h0A11.63,11.63,0,0,0,21.32,112h82.59a11.63,11.63,0,0,0,11.33-8.11h0l4.84-34.7Z" transform="translate(0 22.49)"/><path class="cls-10" d="M5.14,69.23,10,103.86h0a11.63,11.63,0,0,0,11.33,8.07h82.59a11.63,11.63,0,0,0,11.33-8.07h0l4.84-34.63Z" transform="translate(0 22.49)"/><path class="cls-11" d="M5.14,69.23,10,103.79h0a11.62,11.62,0,0,0,11.33,8h82.59a11.62,11.62,0,0,0,11.33-8h0l4.84-34.56Z" transform="translate(0 22.49)"/><path class="cls-12" d="M5.14,69.23,10,103.71h0a11.62,11.62,0,0,0,11.33,8h82.59a11.62,11.62,0,0,0,11.33-8h0l4.84-34.48Z" transform="translate(0 22.49)"/><path class="cls-13" d="M5.14,69.23,10,103.64h0a11.62,11.62,0,0,0,11.33,8h82.59a11.62,11.62,0,0,0,11.33-8h0l4.84-34.41Z" transform="translate(0 22.49)"/><path class="cls-14" d="M5.14,69.23,10,103.57h0a11.61,11.61,0,0,0,11.33,7.91h82.59a11.61,11.61,0,0,0,11.33-7.91h0l4.84-34.34Z" transform="translate(0 22.49)"/><path class="cls-15" d="M5.14,72.87,8.33,77.8c1.54,1.57,5.83,2.67,11.33,2.67h84.24c5.51,0,9.8-1.11,11.33-2.67l4.84-4.94Z" transform="translate(0 22.49)"/><path class="cls-16" d="M5.14,72.87l3.19,4.86c1.54,1.54,5.83,2.63,11.33,2.63h84.24c5.51,0,9.8-1.09,11.33-2.63l4.84-4.86Z" transform="translate(0 22.49)"/><path class="cls-17" d="M5.14,72.87l3.19,4.78c1.54,1.52,5.83,2.59,11.33,2.59h84.24c5.51,0,9.8-1.07,11.33-2.59l4.84-4.78Z" transform="translate(0 22.49)"/><path class="cls-18" d="M5.14,72.87l3.19,4.7c1.54,1.49,5.83,2.54,11.33,2.54h84.24c5.51,0,9.8-1.05,11.33-2.54l4.84-4.7Z" transform="translate(0 22.49)"/><path class="cls-19" d="M5.14,72.87l3.19,4.62C9.87,79,14.16,80,19.67,80h84.24c5.51,0,9.8-1,11.33-2.5l4.84-4.62Z" transform="translate(0 22.49)"/><path class="cls-20" d="M5.14,72.87l3.19,4.54c1.54,1.44,5.83,2.46,11.33,2.46h84.24c5.51,0,9.8-1,11.33-2.46l4.84-4.54Z" transform="translate(0 22.49)"/><path class="cls-21" d="M5.14,72.87l3.19,4.46c1.54,1.42,5.83,2.41,11.33,2.41h84.24c5.51,0,9.8-1,11.33-2.41l4.84-4.46Z" transform="translate(0 22.49)"/><path class="cls-22" d="M5.14,72.87l3.19,4.38c1.54,1.39,5.83,2.37,11.33,2.37h84.24c5.51,0,9.8-1,11.33-2.37l4.84-4.38Z" transform="translate(0 22.49)"/><path class="cls-23" d="M5.14,72.87l3.19,4.31c1.54,1.37,5.83,2.33,11.33,2.33h84.24c5.51,0,9.8-1,11.33-2.33l4.84-4.31Z" transform="translate(0 22.49)"/><path class="cls-24" d="M5.14,72.87,8.33,77.1c1.54,1.34,5.83,2.29,11.33,2.29h84.24c5.51,0,9.8-.95,11.33-2.29l4.84-4.23Z" transform="translate(0 22.49)"/><path class="cls-25" d="M5.14,72.87,8.33,77c1.54,1.32,5.83,2.24,11.33,2.24h84.24c5.51,0,9.8-.93,11.33-2.24l4.84-4.15Z" transform="translate(0 22.49)"/><path class="cls-26" d="M5.14,72.87l3.19,4.07c1.54,1.29,5.83,2.2,11.33,2.2h84.24c5.51,0,9.8-.91,11.33-2.2l4.84-4.07Z" transform="translate(0 22.49)"/><path class="cls-27" d="M123.43,61.75l2.75-50.34C125,5,117.52,0,109,0H33.66c-8.48,0-16,5-17.13,11.41L.14,71.67a4.67,4.67,0,0,0,0,1.41h0l.27,2.05h0A4,4,0,0,0,4.5,78.6H107.71c5.29,0,10-1.94,12.85-5.32a11.44,11.44,0,0,0,2.68-6h0l.27-2.08h0A11.51,11.51,0,0,0,123.43,61.75Z" transform="translate(0 22.49)"/><path class="cls-28" d="M.07,71.67,16.47,11.41C17.6,5,25.12,0,33.6,0H109c8.48,0,16,5,17.13,11.41l-2.75,50.34a11.36,11.36,0,0,1-2.61,9.47c-2.88,3.39-7.58,5.34-12.9,5.34H4.18A4,4,0,0,1,.07,71.67Z" transform="translate(0 22.49)"/><path class="cls-29" d="M4.25,76.06a3.67,3.67,0,0,1-2.88-1.25,3.67,3.67,0,0,1-.74-3.05L17,11.49c1.09-6.17,8.4-11,16.64-11H109c8.24,0,15.55,4.83,16.64,11l-2.75,50.34a10.87,10.87,0,0,1-2.5,9.07c-2.79,3.28-7.35,5.17-12.52,5.17Z" transform="translate(0 22.49)"/><path class="cls-30" d="M1.23,73.52,17.56,12.64c1.08-6.25,8.33-11.15,16.5-11.15h74.56c8.17,0,15.42,4.9,16.5,11.15l-2.8,50.81a11.27,11.27,0,0,1-.19,4.77,10.8,10.8,0,0,0,.79-6.39l2.75-50.34C124.6,5.33,117.29.5,109,.5H33.66C25.42.5,18.11,5.33,17,11.49L.63,71.76a3.73,3.73,0,0,0,.55,2.8A4.42,4.42,0,0,1,1.23,73.52Z" transform="translate(0 22.49)"/><path class="cls-31" d="M120.79,62.82h0a9.18,9.18,0,0,0-.14-1.58l2.75-50.71c-.9-5.14-7.32-9.21-14.36-9.21H33.66c-7,0-13.46,4.06-14.36,9.21L4.58,61.24a9.18,9.18,0,0,0-.14,1.58h0V65.3h0c0,5.64,5.4,10.1,12.87,10.1h90.61c7.47,0,12.87-4.46,12.87-10.1h0Z" transform="translate(0 22.49)"/><path class="cls-32" d="M120.66,61.24c1.11,6.37-4.58,11.68-12.73,11.68H17.31c-8.16,0-13.84-5.32-12.73-11.68L19.3,10.53c.9-5.14,7.32-9.21,14.36-9.21H109c7,0,13.46,4.06,14.36,9.21Z" transform="translate(0 22.49)"/><path class="cls-33" d="M33.66,1.82c-6.8,0-13,3.95-13.87,8.8L5.06,61.33a8.21,8.21,0,0,0,1.88,6.88c2.25,2.68,6,4.22,10.36,4.22H73.12L81.86,1.82Z" transform="translate(0 22.49)"/><path class="cls-34" d="M120.17,61.33l2.75-50.71c-.85-4.85-7.07-8.8-13.87-8.8H81.86L73.12,72.43h34.8c4.33,0,8.11-1.54,10.36-4.22A8.21,8.21,0,0,0,120.17,61.33Z" transform="translate(0 22.49)"/><g class="cls-35"><ellipse class="cls-36" cx="22.45" cy="3.71" rx="5.28" ry="26.77" transform="translate(-0.28 27.3) rotate(-12.15)"/><ellipse class="cls-37" cx="123.8" cy="3.71" rx="26.77" ry="5.28" transform="translate(94.11 146.44) rotate(-77.85)"/><path class="cls-38" d="M115.82,86.77c1,6.93-4.56,12.72-12.1,12.72H21.51C14,99.49,8.38,93.7,9.41,86.77L24,33c.83-5.6,6.77-10,13.28-10h68.12c6.51,0,12.45,4.42,13.28,10Z" transform="translate(0 22.49)"/><path class="cls-39" d="M115.6,86.71c1,6.9-4.51,12.67-12,12.67H21.67c-7.52,0-13.06-5.76-12-12.67L24.19,33.1c.83-5.58,6.75-10,13.24-10h67.85c6.49,0,12.41,4.41,13.24,10Z" transform="translate(0 22.49)"/><path class="cls-40" d="M115.38,86.64c1,6.88-4.47,12.62-12,12.62H21.82c-7.5,0-13-5.74-12-12.62L24.36,33.17c.82-5.56,6.72-9.95,13.2-9.95h67.58c6.48,0,12.38,4.39,13.2,9.95Z" transform="translate(0 22.49)"/><path class="cls-41" d="M115.16,86.57c1,6.85-4.43,12.57-11.91,12.57H22c-7.48,0-12.92-5.72-11.91-12.57L24.54,33.25c.82-5.54,6.7-9.91,13.16-9.91H105c6.46,0,12.34,4.37,13.16,9.91Z" transform="translate(0 22.49)"/><path class="cls-42" d="M114.93,86.51c1,6.83-4.39,12.52-11.84,12.52h-81c-7.45,0-12.85-5.7-11.84-12.52L24.71,33.32c.82-5.51,6.68-9.87,13.12-9.87h67c6.44,0,12.3,4.36,13.12,9.87Z" transform="translate(0 22.49)"/><path class="cls-43" d="M114.71,86.44c1,6.8-4.34,12.48-11.77,12.48H22.29c-7.43,0-12.79-5.68-11.77-12.48l14.37-53c.82-5.49,6.66-9.83,13.08-9.83h66.77c6.42,0,12.26,4.34,13.08,9.83Z" transform="translate(0 22.49)"/><path class="cls-44" d="M114.49,86.38c1,6.77-4.3,12.43-11.71,12.43H22.45c-7.41,0-12.72-5.65-11.71-12.43l14.32-52.9c.81-5.47,6.64-9.79,13-9.79h66.5c6.4,0,12.22,4.32,13,9.79Z" transform="translate(0 22.49)"/><path class="cls-45" d="M114.27,86.31c1,6.75-4.26,12.38-11.64,12.38h-80C15.22,98.69,10,93.06,11,86.31L25.24,33.55c.81-5.45,6.62-9.76,13-9.76h66.23c6.38,0,12.19,4.31,13,9.76Z" transform="translate(0 22.49)"/><path class="cls-46" d="M114,86.25c1,6.72-4.22,12.33-11.58,12.33H22.76c-7.36,0-12.58-5.61-11.58-12.33L25.42,33.63c.81-5.43,6.6-9.72,13-9.72h66c6.36,0,12.15,4.29,13,9.72Z" transform="translate(0 22.49)"/><path class="cls-47" d="M113.82,86.18c1,6.69-4.17,12.28-11.51,12.28H22.92c-7.34,0-12.51-5.59-11.51-12.28L25.59,33.7C26.4,28.29,32.17,24,38.51,24H104.2c6.34,0,12.11,4.27,12.92,9.68Z" transform="translate(0 22.49)"/><path class="cls-48" d="M113.6,86.11c1,6.67-4.13,12.24-11.45,12.24H23.08c-7.32,0-12.44-5.57-11.45-12.24L25.77,33.78c.8-5.39,6.56-9.64,12.88-9.64h65.42c6.32,0,12.07,4.26,12.88,9.64Z" transform="translate(0 22.49)"/><path class="cls-49" d="M113.38,86c1,6.64-4.09,12.19-11.38,12.19H23.23c-7.29,0-12.38-5.54-11.38-12.19L25.94,33.85c.8-5.37,6.54-9.6,12.84-9.6h65.15c6.3,0,12,4.24,12.84,9.6Z" transform="translate(0 22.49)"/><path class="cls-50" d="M99.3,83c.19,2.06-2.38,3.75-4.74,3.75h-65c-2.35,0-4.92-1.68-4.74-3.75L37,37.73c.17-1.82,2.07-3.29,4.26-3.29h59c2.19,0,4.1,1.47,4.26,3.29Z" transform="translate(0 22.49)"/><path class="cls-51" d="M99.2,83c.19,2.06-2.34,3.74-4.69,3.74H29.58c-2.35,0-4.88-1.68-4.69-3.74L37.07,37.75c.17-1.82,2.06-3.28,4.24-3.28h58.94c2.18,0,4.08,1.46,4.24,3.28Z" transform="translate(0 22.49)"/><path class="cls-52" d="M99.1,83c.19,2.05-2.29,3.73-4.64,3.73H29.62c-2.35,0-4.83-1.68-4.64-3.73L37.13,37.78c.17-1.81,2-3.28,4.22-3.28h58.85c2.18,0,4.06,1.46,4.22,3.28Z" transform="translate(0 22.49)"/><path class="cls-53" d="M99,83c.19,2.05-2.24,3.73-4.59,3.73H29.67c-2.34,0-4.78-1.67-4.59-3.73L37.2,37.81c.17-1.81,2-3.27,4.2-3.27h58.76c2.18,0,4,1.46,4.2,3.27Z" transform="translate(0 22.49)"/><path class="cls-54" d="M98.91,82.94c.19,2-2.2,3.72-4.54,3.72H29.72c-2.34,0-4.73-1.67-4.54-3.72L37.26,37.84a4,4,0,0,1,4.18-3.26h58.68a4,4,0,0,1,4.18,3.26Z" transform="translate(0 22.49)"/><path class="cls-55" d="M98.82,82.92c.19,2-2.15,3.71-4.49,3.71H29.76c-2.34,0-4.68-1.67-4.49-3.71l12-45.05a4,4,0,0,1,4.17-3.26h58.59a4,4,0,0,1,4.17,3.26Z" transform="translate(0 22.49)"/><path class="cls-56" d="M98.72,82.89c.19,2-2.1,3.7-4.44,3.7H29.81c-2.34,0-4.63-1.67-4.44-3.7l12-45a4,4,0,0,1,4.15-3.25H100a4,4,0,0,1,4.15,3.25Z" transform="translate(0 22.49)"/><path class="cls-57" d="M98.62,82.86c.19,2-2.06,3.7-4.39,3.7H29.86c-2.33,0-4.58-1.66-4.39-3.7l12-44.95a4,4,0,0,1,4.13-3.25H100a4,4,0,0,1,4.13,3.25Z" transform="translate(0 22.49)"/><path class="cls-58" d="M98.53,82.84c.19,2-2,3.69-4.34,3.69H29.9c-2.33,0-4.53-1.66-4.34-3.69L37.51,37.95a3.93,3.93,0,0,1,4.11-3.24H99.95a3.93,3.93,0,0,1,4.11,3.24Z" transform="translate(0 22.49)"/><path class="cls-59" d="M98.43,82.81c.19,2-2,3.68-4.29,3.68H30c-2.33,0-4.48-1.66-4.29-3.68L37.58,38a3.91,3.91,0,0,1,4.09-3.23H99.9A3.91,3.91,0,0,1,104,38Z" transform="translate(0 22.49)"/><path class="cls-60" d="M98.33,82.78c.19,2-1.92,3.68-4.24,3.68H30c-2.33,0-4.43-1.65-4.24-3.68L37.64,38a3.89,3.89,0,0,1,4.07-3.23H99.86A3.89,3.89,0,0,1,103.93,38Z" transform="translate(0 22.49)"/><path class="cls-61" d="M98.24,82.76c.19,2-1.87,3.67-4.19,3.67H30c-2.32,0-4.38-1.65-4.19-3.67L37.7,38a3.86,3.86,0,0,1,4-3.22H99.81a3.86,3.86,0,0,1,4,3.22Z" transform="translate(0 22.49)"/><path class="cls-62" d="M30,84.46a2.36,2.36,0,0,1-1.83-.73A1,1,0,0,1,28,83L39.32,38.23c.05-.59,1-1.45,2.43-1.45H99.81c1.4,0,2.37.86,2.43,1.45L96.13,83a1,1,0,0,1-.25.77,2.36,2.36,0,0,1-1.83.73Z" transform="translate(0 22.49)"/><path class="cls-29" d="M28.94,83,40.45,38a1.45,1.45,0,0,1,1.3-.58H99.81a1.45,1.45,0,0,1,1.3.58l-6,45h0C95,83.19,28.94,83,28.94,83Z" transform="translate(0 22.49)"/><path class="cls-63" d="M40.52,38a1.39,1.39,0,0,1,1.27-.55h58a1.45,1.45,0,0,1,1.3.55L95,83h0c-.13.16-66,0-66,0Z" transform="translate(0 22.49)"/><path class="cls-64" d="M40.59,38.06a1.33,1.33,0,0,1,1.24-.52h57.9a1.46,1.46,0,0,1,1.3.52L95,83h0c-.1.13-65.87,0-65.87,0Z" transform="translate(0 22.49)"/><path class="cls-65" d="M40.66,38.09c.12-.18.38-.49,1.21-.49H99.69a1.46,1.46,0,0,1,1.29.49L94.85,83h0c-.08.1-65.7,0-65.7,0Z" transform="translate(0 22.49)"/><path class="cls-66" d="M40.73,38.11c.12-.18.36-.46,1.18-.46H99.65c.83,0,1.17.28,1.29.46L94.75,82.94h0c-.05.06-65.53,0-65.53,0Z" transform="translate(0 22.49)"/><path class="cls-67" d="M40.79,38.14c.12-.18.33-.43,1.16-.43H99.61c.83,0,1.17.25,1.29.43L94.66,82.93h0s-65.36,0-65.36,0Z" transform="translate(0 22.49)"/><path class="cls-68" d="M29.37,82.91,40.86,38.16c.12-.18.3-.4,1.13-.4H99.57c.83,0,1.17.22,1.29.4L94.56,82.91Z" transform="translate(0 22.49)"/><path class="cls-69" d="M120,67.51l2.75-51.62C121.92,11,115.77,7,109,7H33.66C26.94,7,20.79,11,20,15.89L5.23,67.51a8.42,8.42,0,0,0,1.84,6.93c2.22,2.71,6,4.27,10.24,4.27h90.61c4.28,0,8-1.56,10.24-4.27A8.42,8.42,0,0,0,120,67.51Zm-2.1,6.71c-2.16,2.64-5.8,4.15-10,4.15H17.31c-4.18,0-7.82-1.51-10-4.15a8.09,8.09,0,0,1-1.77-6.66L20.28,15.95c.81-4.75,6.81-8.61,13.38-8.61H109c6.57,0,12.58,3.86,13.38,8.61l-2.75,51.62A8.09,8.09,0,0,1,117.91,74.22Z" transform="translate(0 22.49)"/></g></g></g></svg>