<svg id="Layer_1" data-name="Layer 1" xmlns="http://www.w3.org/2000/svg" xmlns:xlink="http://www.w3.org/1999/xlink" viewBox="0 0 69.33 110.59"><defs><style>.cls-1{fill:url(#linear-gradient);}.cls-2{fill:url(#radial-gradient);}.cls-3{fill:url(#linear-gradient-2);}.cls-4{fill:url(#linear-gradient-3);}.cls-5{fill:url(#linear-gradient-4);}.cls-6{fill:url(#linear-gradient-5);}.cls-7{fill:#fff;opacity:0.3;}.cls-8{fill:url(#linear-gradient-6);}.cls-9{fill:url(#linear-gradient-7);}</style><linearGradient id="linear-gradient" y1="54.22" x2="69.33" y2="54.22" gradientUnits="userSpaceOnUse"><stop offset="0" stop-color="#77bd4b"/><stop offset="0.15" stop-color="#71b644"/><stop offset="0.36" stop-color="#60a330"/><stop offset="0.61" stop-color="#448310"/><stop offset="0.71" stop-color="#387502"/><stop offset="0.79" stop-color="#3d7a08"/><stop offset="0.9" stop-color="#4b8a18"/><stop offset="1" stop-color="#5d9f2d"/></linearGradient><radialGradient id="radial-gradient" cx="39.92" cy="50.48" r="56.32" gradientUnits="userSpaceOnUse"><stop offset="0" stop-color="#77bd4b"/><stop offset="0.21" stop-color="#71b644"/><stop offset="0.51" stop-color="#60a330"/><stop offset="0.87" stop-color="#448310"/><stop offset="1" stop-color="#387502"/></radialGradient><linearGradient id="linear-gradient-2" x1="1.13" y1="37.19" x2="48.22" y2="48.96" gradientUnits="userSpaceOnUse"><stop offset="0" stop-color="#f2f9ee"/><stop offset="0.09" stop-color="#e1f1d7"/><stop offset="0.31" stop-color="#bbdea5"/><stop offset="0.52" stop-color="#9ed07e"/><stop offset="0.71" stop-color="#88c662"/><stop offset="0.88" stop-color="#7cbf51"/><stop offset="1" stop-color="#77bd4b"/></linearGradient><linearGradient id="linear-gradient-3" x1="95.27" y1="46.44" x2="42.01" y2="46.62" gradientTransform="translate(-9.13 39.23) rotate(-9.78)" xlink:href="#linear-gradient-2"/><linearGradient id="linear-gradient-4" x1="1.6" y1="35.31" x2="48.69" y2="47.08" xlink:href="#linear-gradient-2"/><linearGradient id="linear-gradient-5" x1="0.67" y1="39.03" x2="47.76" y2="50.81" xlink:href="#linear-gradient-2"/><linearGradient id="linear-gradient-6" x1="25.8" y1="4.87" x2="33.46" y2="4.87" xlink:href="#linear-gradient-2"/><linearGradient id="linear-gradient-7" x1="20.43" y1="109.51" x2="50.75" y2="109.51" gradientUnits="userSpaceOnUse"><stop offset="0" stop-color="#77bd4b"/><stop offset="0.17" stop-color="#72b646"/><stop offset="0.42" stop-color="#62a237"/><stop offset="0.71" stop-color="#49821e"/><stop offset="1" stop-color="#2c5c01"/></linearGradient></defs><title>screen8-hold-more</title><path class="cls-1" d="M22.32,108.44h4.33C11.92,103.86.86,85.29.86,63.11A59.57,59.57,0,0,1,3.09,46.89c4.07-2.62,16.66-4.53,31.58-4.53s27.51,1.91,31.58,4.53a59.57,59.57,0,0,1,2.23,16.22c0,22.17-11.06,40.75-25.79,45.32H47c13-6.6,22.32-24.18,22.32-44.8a65.32,65.32,0,0,0-1.85-15.53h0l0-.1q-.16-.66-.34-1.32l0-.14q-.57-2.08-1.26-4.05l0-.14q-.23-.63-.46-1.26l-.07-.17Q64.5,39,63.64,37.23l-.07-.16Q63.31,36.52,63,36l-.15-.29Q62,34,61.08,32.48l-.16-.26-.56-.87-.28-.42-.56-.81-.29-.4q-.49-.69-1-1.35l-.37-.48-.52-.63-.45-.52-.51-.58-.53-.57-.46-.49q-.47-.48-1-.94L54,23.75l-.64-.58-.46-.4-.72-.59-.39-.31q-.54-.42-1.09-.81l-.33-.23-.84-.56L49.1,20l-.85-.5-.36-.21c-.4-.22-.8-.43-1.21-.63l-.19-.09-1.06-.48-.4-.16-.92-.36-.38-.14c-.43-.15-.86-.29-1.29-.42V10.41c.78-.78,3.86-4,3.49-6.75C45.53.65,42.31,0,42.13,0h-15C27,0,23.8.65,23.39,3.66c-.36,2.71,2.72,6,3.49,6.75V17c-.43.13-.86.27-1.29.42l-.39.14-.92.36-.4.17-1,.47-.21.1c-.4.2-.8.41-1.2.63l-.38.22-.83.49-.43.27-.81.54-.36.25q-.54.39-1.08.8l-.42.34-.68.55-.49.42-.6.54-.48.45-.8.79-.65.68-.47.51-.55.63-.39.46-.57.69-.25.32Q10.6,29,10,29.82l-.2.27-.6.88L9,31.31l-.61.95-.07.11Q7.31,34,6.4,35.77l-.08.16A61.45,61.45,0,0,0,0,63.64C0,84.25,9.32,101.84,22.32,108.44Z"/><path class="cls-2" d="M22.32,108.44H47c13-6.6,22.32-24.18,22.32-44.8a65.47,65.47,0,0,0-1.7-14.91h0q-.07-.65-.15-1.3a6.49,6.49,0,0,0-.59-1.55c-4-13.83-12.38-24.43-22.73-28.25a3.5,3.5,0,0,1-1.49.32,3.46,3.46,0,0,1-2-.62c-3.51-1-8.22-.7-11.77-.06a3.49,3.49,0,0,1-1,.33,3.53,3.53,0,0,1-2.58,0C14.89,21.39,6.41,32,2.44,45.88a6.5,6.5,0,0,0-.6,1.56q-.08.65-.15,1.3h0A65.55,65.55,0,0,0,0,63.64C0,84.25,9.32,101.84,22.32,108.44Z"/><path class="cls-3" d="M27.91,20.16C13.21,24.71,3.49,41,2.72,61.32,6,41.81,17,26.41,27.91,20.16Z"/><path class="cls-4" d="M45.93,96c14.3-5,22.42-21.53,21.14-41.68C65.7,73.81,56.25,89.45,45.93,96Z"/><ellipse class="cls-5" cx="20.1" cy="39.93" rx="2.91" ry="4.11"/><ellipse class="cls-6" cx="23.39" cy="44.71" rx="1.28" ry="1.8"/><path class="cls-7" d="M45.42,4.55c0,3.36-3.17,5.74-11.16,5.74-7.18,0-10.43-2.72-10.43-6.07C23.83,0,28.41.59,34.46.59S45.41-.44,45.42,4.55Z"/><path class="cls-8" d="M33.46,4.8c0,1-1.72,1.42-3.83,1.34s-3.83-.75-3.83-2c0-.63,1.6-.59,3.83-.46C32.15,3.8,33.46,4.18,33.46,4.8Z"/><rect class="cls-9" x="22.33" y="108.44" width="24.81" height="2.16"/></svg>