<svg id="Layer_1" data-name="Layer 1" xmlns="http://www.w3.org/2000/svg" xmlns:xlink="http://www.w3.org/1999/xlink" viewBox="0 0 60.69 76.98"><defs><style>.cls-1{fill:url(#linear-gradient);}.cls-2{fill:url(#linear-gradient-2);}.cls-3{fill:url(#linear-gradient-3);}.cls-4{fill:url(#linear-gradient-4);}</style><linearGradient id="linear-gradient" x1="1274.55" y1="151.15" x2="1335.14" y2="151.15" gradientTransform="translate(-1274.55 -110.38)" gradientUnits="userSpaceOnUse"><stop offset="0" stop-color="#77bd4b"/><stop offset="0.15" stop-color="#71b644"/><stop offset="0.36" stop-color="#60a330"/><stop offset="0.61" stop-color="#448310"/><stop offset="0.71" stop-color="#387502"/><stop offset="0.79" stop-color="#3d7a08"/><stop offset="0.9" stop-color="#4b8a18"/><stop offset="1" stop-color="#5d9f2d"/></linearGradient><linearGradient id="linear-gradient-2" x1="1279.21" y1="151.39" x2="1299.19" y2="151.39" gradientTransform="translate(-1274.55 -110.38)" gradientUnits="userSpaceOnUse"><stop offset="0" stop-color="#f2f9ee"/><stop offset="0.09" stop-color="#e1f1d7"/><stop offset="0.31" stop-color="#bbdea5"/><stop offset="0.52" stop-color="#9ed07e"/><stop offset="0.71" stop-color="#88c662"/><stop offset="0.88" stop-color="#7cbf51"/><stop offset="1" stop-color="#77bd4b"/></linearGradient><linearGradient id="linear-gradient-3" x1="-2050.19" y1="467.1" x2="-1989.29" y2="467.1" gradientTransform="matrix(-0.99, 0, 0, -1.02, -1977.84, 480.54)" gradientUnits="userSpaceOnUse"><stop offset="0.01" stop-color="#458411"/><stop offset="1" stop-color="#a2d284"/></linearGradient><linearGradient id="linear-gradient-4" x1="1275.53" y1="114.73" x2="1334.5" y2="114.73" gradientTransform="translate(-1274.55 -110.38)" gradientUnits="userSpaceOnUse"><stop offset="0.01" stop-color="#387502"/><stop offset="1" stop-color="#77bd4b"/></linearGradient></defs><title>screen4-hold-less</title><path class="cls-1" d="M0,4.57C6.5,5.72,27.11,6.16,30.29,6.22s23.79-.5,30.29-1.65c0,0-1.66,52.28-11.62,68.47,0,0-6,3.77-18.26,3.93h-.83C17.58,76.81,11.62,73,11.62,73,1.66,56.85,0,4.57,0,4.57Z"/><path class="cls-2" d="M20.16,8.36s-6,51.85,4.48,67c0,0-3.27.52-9.82-2.24,0,0-9.3-21.53-10.16-66.49C4.65,6.35,18.09,9.74,20.16,8.36Z"/><ellipse class="cls-3" cx="30.42" cy="4.55" rx="30.28" ry="4.55" transform="translate(-0.03 0.21) rotate(-0.4)"/><ellipse class="cls-4" cx="30.46" cy="4.35" rx="29.49" ry="3.66"/></svg>