<svg id="Layer_1" data-name="Layer 1" xmlns="http://www.w3.org/2000/svg" xmlns:xlink="http://www.w3.org/1999/xlink" viewBox="0 0 92.8 111.66"><defs><style>.cls-1{fill:url(#linear-gradient);}.cls-2{fill:url(#linear-gradient-2);}.cls-3{fill:url(#linear-gradient-3);}.cls-4{fill:url(#linear-gradient-4);}.cls-5{fill:url(#linear-gradient-5);}.cls-6{fill:url(#linear-gradient-6);}</style><linearGradient id="linear-gradient" x1="6.72" y1="10.44" x2="72.8" y2="10.44" gradientUnits="userSpaceOnUse"><stop offset="0.19" stop-color="#3e7c09"/><stop offset="0.21" stop-color="#417f0c"/><stop offset="0.4" stop-color="#589a28"/><stop offset="0.6" stop-color="#69ae3b"/><stop offset="0.8" stop-color="#74b947"/><stop offset="1" stop-color="#77bd4b"/></linearGradient><linearGradient id="linear-gradient-2" x1="3.47" y1="10.39" x2="74.26" y2="10.39" gradientUnits="userSpaceOnUse"><stop offset="0.01" stop-color="#458411"/><stop offset="1" stop-color="#a2d284"/></linearGradient><linearGradient id="linear-gradient-3" y1="59.46" x2="77.19" y2="59.46" gradientUnits="userSpaceOnUse"><stop offset="0" stop-color="#77bd4b"/><stop offset="0.15" stop-color="#71b644"/><stop offset="0.36" stop-color="#60a330"/><stop offset="0.61" stop-color="#448310"/><stop offset="0.71" stop-color="#387502"/><stop offset="0.79" stop-color="#3d7a08"/><stop offset="0.9" stop-color="#4b8a18"/><stop offset="1" stop-color="#5d9f2d"/></linearGradient><linearGradient id="linear-gradient-4" x1="102.79" y1="23.92" x2="76.12" y2="50.6" gradientUnits="userSpaceOnUse"><stop offset="0" stop-color="#f2f9ee"/><stop offset="0.09" stop-color="#e1f1d7"/><stop offset="0.31" stop-color="#bbdea5"/><stop offset="0.52" stop-color="#9ed07e"/><stop offset="0.71" stop-color="#88c662"/><stop offset="0.88" stop-color="#7cbf51"/><stop offset="1" stop-color="#77bd4b"/></linearGradient><linearGradient id="linear-gradient-5" x1="7.81" y1="58.51" x2="34.27" y2="58.51" xlink:href="#linear-gradient-4"/><linearGradient id="linear-gradient-6" x1="84.77" y1="50.65" x2="38.88" y2="96.54" xlink:href="#linear-gradient-4"/></defs><title>screen7-hold-more</title><path class="cls-1" d="M47.48,4.12C58.82,7.23,74.59,13,72.63,18.43c-2,3.84-26.5-3.3-36.92-7.5s-23.36-5.94-29-4C17.35-1.08,36.15,1,47.48,4.12Z"/><path class="cls-2" d="M74.23,17.12a4.36,4.36,0,0,1-.29,2.18,2.08,2.08,0,0,1-.88.83c-5,2.7-26.49-3.59-37.93-8.2C26,8.26,15.87,6.7,9.16,7.43A19.66,19.66,0,0,0,5.95,8,9.41,9.41,0,0,0,3.47,9.11C10-.65,31.44-1.73,44.88,2,57,5.28,73.39,10.55,74.23,17.12Zm-1.6,1.31c2-5.42-13.82-11.2-25.15-14.31S17.35-1.08,6.72,6.94c5.64-2,18.57-.22,29,4S70.62,22.27,72.63,18.43Z"/><path class="cls-3" d="M65.91,52c0-8.85,11.19-25.16,8.32-34.92a4.36,4.36,0,0,1-.29,2.18,2.08,2.08,0,0,1-.88.83c-5,2.7-26.49-3.59-37.93-8.2C26,8.26,15.87,6.7,9.16,7.43q.63.65,1.2,1.28a36.24,36.24,0,0,1,3.86,4.92,24.2,24.2,0,0,1,1.4,2.49,24.2,24.2,0,0,0-1.4-2.49,36.24,36.24,0,0,0-3.86-4.92q-.58-.63-1.2-1.28A19.66,19.66,0,0,0,5.95,8c7.05.29,13.94,17.5,9.66,28.61C11.27,47.92,0,66.56,0,82a37.16,37.16,0,0,0,.26,4.39C1.93,100,11.67,111.66,33.82,111.66c21.76,0,39.08-4.1,42.68-21.43A35.49,35.49,0,0,0,77.19,83C77.19,67.21,65.91,63.09,65.91,52Zm4.46-18.55c-.38.94-.77,1.84-1.17,2.73C69.61,35.33,70,34.42,70.38,33.48ZM16.19,17.41c1.43,3.49,2,7.44,2,12.73a22.58,22.58,0,0,1-1.07,6.19,22.59,22.59,0,0,0,1.07-6.19C18.21,24.84,17.62,20.9,16.19,17.41ZM7.86,58.52C9.39,55,11,51.47,12.52,48.1c.5-1.12,1-2.23,1.45-3.31l.22-.51-.22.51C13.51,45.87,13,47,12.52,48.1,11,51.47,9.39,55,7.86,58.52q-.51,1.18-1,2.36Q7.35,59.7,7.86,58.52Zm-3.7,9.41q.4-1.16.83-2.33-.44,1.17-.83,2.33c-.53,1.55-1,3.08-1.39,4.58C3.16,71,3.63,69.48,4.15,67.93Zm16.73,38.94a32.06,32.06,0,0,1-8.12-3.37,26.61,26.61,0,0,1-3.85-2.78,25.44,25.44,0,0,1-2.16-2.12,25.45,25.45,0,0,0,2.16,2.12,26.61,26.61,0,0,0,3.85,2.78,32.06,32.06,0,0,0,8.12,3.37q1.85.5,3.88.84Q22.73,107.37,20.88,106.87Zm12.8,1.54h0q2.45,0,4.82-.07Q36.14,108.41,33.68,108.41Zm6.4-.13q1.56-.07,3.08-.17Q41.64,108.22,40.08,108.28Zm29.09-8a22.56,22.56,0,0,0,4-4l-.07-.05.07.05A22.56,22.56,0,0,1,69.17,100.29Z"/><path class="cls-4" d="M81.08,34.91c-7.78-2-13.44,5.42-14.09,8.89s-4.34,6.94-6.29,3.69-2-11.06,1.52-11.71,3,2,7.16-2,15.26-11.88,22.12,0C98,45.1,78.26,63.31,78.69,69.17S79.78,80,74.14,78.71,63.51,68.3,66.55,64.39s10.84-2,14.53-7.81S89.32,37.08,81.08,34.91Z"/><path class="cls-5" d="M25.14,49.52A65,65,0,0,0,32,38.13C35.21,30.9,35.58,23.38,29.32,15c-3-3.69-14.09-8-10.62-1.3C25.27,24.68,27,32.58,26,39.12a26.84,26.84,0,0,1-3.58,9.69,106.31,106.31,0,0,1-7,9.95C6.34,70.9,1.35,99.3,24.34,106.67c2.6.87,3-1.08-1.3-6.07S9.59,71.12,19.35,57.46C21.26,54.79,23.25,52.15,25.14,49.52Z"/><path class="cls-6" d="M50.57,52.34c6.76-1.69,10.14-3.62,11.58-2.17S65,59.58,67,62.47c-1.93,2.41-3.38,5.07-.24,10.38a16.87,16.87,0,0,0,7.48,7S80.5,95.78,60,104.47c-11.1,3.38-23.89,2.9-23.89,2.9s25.1-.72,29.2-13.76c2.57-8.16.24-16.65-4.83-19.79C50.81,66.34,49.84,58.61,50.57,52.34Z"/></svg>