<svg id="Layer_1" data-name="Layer 1" xmlns="http://www.w3.org/2000/svg" xmlns:xlink="http://www.w3.org/1999/xlink" viewBox="0 0 66.82 49.31"><defs><style>.cls-1{fill:url(#linear-gradient);}.cls-2{fill:url(#linear-gradient-2);}.cls-3{fill:url(#linear-gradient-3);}.cls-4{fill:url(#linear-gradient-4);}.cls-5{fill:url(#linear-gradient-5);}.cls-6{fill:url(#linear-gradient-6);}.cls-7{fill:url(#linear-gradient-7);}.cls-8{fill:url(#linear-gradient-8);}.cls-9{fill:#387502;}.cls-10{fill:#fff;}</style><linearGradient id="linear-gradient" x1="3885.17" y1="-266.14" x2="3892.76" y2="-248.21" gradientTransform="matrix(-1, 0.08, 0.08, 1, 3910.43, -13.8)" gradientUnits="userSpaceOnUse"><stop offset="0.19" stop-color="#77bd4b"/><stop offset="0.33" stop-color="#74b947"/><stop offset="0.47" stop-color="#69ae3b"/><stop offset="0.61" stop-color="#589a28"/><stop offset="0.75" stop-color="#417f0c"/><stop offset="0.8" stop-color="#387502"/><stop offset="1" stop-color="#5d9f2d"/></linearGradient><linearGradient id="linear-gradient-2" x1="3884.02" y1="13.14" x2="3886.39" y2="18.74" gradientTransform="matrix(-1, 0, 0, 1, 3894.54, 0)" gradientUnits="userSpaceOnUse"><stop offset="0" stop-color="#f2f9ee"/><stop offset="0.14" stop-color="#eef7e9"/><stop offset="0.3" stop-color="#e4f2db"/><stop offset="0.47" stop-color="#d2eac4"/><stop offset="0.64" stop-color="#badea4"/><stop offset="0.82" stop-color="#9bcf7b"/><stop offset="1" stop-color="#77bd4b"/></linearGradient><linearGradient id="linear-gradient-3" x1="3831.84" y1="-0.31" x2="3879.06" y2="41.83" gradientTransform="matrix(-1, 0, 0, 1, 3894.54, 0)" xlink:href="#linear-gradient"/><linearGradient id="linear-gradient-4" x1="3828.02" y1="27.78" x2="3842.32" y2="27.78" gradientTransform="matrix(-1, 0, 0, 1, 3894.54, 0)" gradientUnits="userSpaceOnUse"><stop offset="0" stop-color="#fff"/><stop offset="0.61" stop-color="#77bd4b"/><stop offset="0.75" stop-color="#74b947"/><stop offset="0.89" stop-color="#69ad3b"/><stop offset="1" stop-color="#5d9f2d"/></linearGradient><linearGradient id="linear-gradient-5" x1="3830.78" y1="29" x2="3847.68" y2="29" gradientTransform="matrix(-1, 0, 0, 1, 3894.54, 0)" gradientUnits="userSpaceOnUse"><stop offset="0" stop-color="#fff"/><stop offset="1" stop-color="#77bd4b"/></linearGradient><linearGradient id="linear-gradient-6" x1="3854.54" y1="20.26" x2="3854.54" y2="0" gradientTransform="matrix(-1, 0, 0, 1, 3894.54, 0)" xlink:href="#linear-gradient"/><linearGradient id="linear-gradient-7" x1="3854.54" y1="19.52" x2="3854.54" y2="0.77" gradientTransform="matrix(-1, 0, 0, 1, 3894.54, 0)" xlink:href="#linear-gradient"/><linearGradient id="linear-gradient-8" x1="3854.54" y1="19.5" x2="3854.54" y2="1.55" gradientTransform="matrix(-1, 0, 0, 1, 3894.54, 0)" gradientUnits="userSpaceOnUse"><stop offset="0.01" stop-color="#d5c6b8"/><stop offset="0.01" stop-color="#a6ae81"/><stop offset="0.02" stop-color="#7e9954"/><stop offset="0.02" stop-color="#608a30"/><stop offset="0.03" stop-color="#4a7e17"/><stop offset="0.04" stop-color="#3d7707"/><stop offset="0.04" stop-color="#387502"/><stop offset="1" stop-color="#77bd4b"/></linearGradient></defs><title>screen10-hold-less</title><path class="cls-1" d="M16.17,23.85S13.07,16,7.41,16s-8.34,6.8-2,10.3c7.36,4,12.77,3.7,12.77,3.7s1.72-1.23,3.07,2.24c1,2.49,1.93,6.38,2.09,6.57.3.35-4.1-2.72-6.39-3.73s-7.9-2.86-10.81-4.49S.61,26.68.12,22.18s.42-7.87,4.65-9.45,10,2.33,10,2.33a7.83,7.83,0,0,1,1.6,3.61A36.65,36.65,0,0,1,16.17,23.85Z"/><path class="cls-2" d="M15.86,19.14s-8-7.78-14.52-2.85c0,0,.52-2.3,4.22-3.4s8.55,2.19,8.55,2.19A6.48,6.48,0,0,1,15.86,19.14Z"/><path class="cls-3" d="M13.66,7.39H66.25s1.3,5.9-1.4,16-9,18.76-14.29,23.15a25.47,25.47,0,0,1-10.21,1.65,25.48,25.48,0,0,1-10.21-1.65c-5.28-4.38-11.59-13-14.29-23.15S13.66,7.39,13.66,7.39Z"/><path class="cls-4" d="M64.85,23.42c-2.7,10.14-9,18.76-14.29,23.15a24.37,24.37,0,0,1-7.34,1.6c13.85-9.48,12.19-37.91,12.19-37.91,6.14-.12,9.25-1.6,10.8-2.87v0S67.56,13.28,64.85,23.42Z"/><path class="cls-5" d="M63.76,12l-4.33.88S61.08,35.47,46.86,46C46.86,46,61.9,38.75,63.76,12Z"/><path class="cls-6" d="M13.18,9.43c0,6,12,10.83,26.82,10.83S66.82,15.41,66.82,9.43,52.4.07,40.36,0,13.18,3.46,13.18,9.43Z"/><path class="cls-7" d="M13.48,9.24C13.48,14.61,25.36,19,40,19s26.52-4.36,26.52-9.73S52.26.82,40.36.76,13.48,3.86,13.48,9.24Z"/><path class="cls-8" d="M40.52,1.54c15.53,0,23.65,2.84,26,7.63C65.63,14.63,54,19,39.85,19c-13.27,0-24.27-3.79-26.33-8.75C14.38,4.76,25,1.53,40.52,1.54Z"/><path class="cls-9" d="M39.27,45C52.71,44.66,58,38.6,63.42,26.95c0,0-.13.77-.46,2a47.1,47.1,0,0,1-12.4,17.58s-3.23,2.67-10.21,2.75-10.21-2.75-10.21-2.75c-4.56-3.79-9.89-10.74-13-19.1C20.17,32.68,28.61,45.3,39.27,45Z"/><path class="cls-9" d="M54.07,29.88S51.29,46,39.86,45.82s-11.28-11-13.13-16.93c0,0,5.41,14.3,13.13,13.81S52.06,35.14,54.07,29.88Z"/><path class="cls-10" d="M27,2.87S11.46,7.16,15.05,10.12A28.48,28.48,0,0,1,27,2.87Z"/><path class="cls-10" d="M54.62,4.6s11.29,2.72,8.8,4.54A22.49,22.49,0,0,0,54.62,4.6Z"/></svg>