<svg id="Layer_1" data-name="Layer 1" xmlns="http://www.w3.org/2000/svg" viewBox="0 0 201.72 111.24"><defs><style>.cls-1{fill:#0072ab;}.cls-1,.cls-10,.cls-11,.cls-12,.cls-2,.cls-3,.cls-6,.cls-7,.cls-8,.cls-9{fill-rule:evenodd;}.cls-2{fill:#007fc7;}.cls-3{fill:#009add;}.cls-12,.cls-4{fill:#0f80b8;}.cls-5{fill:#008cd1;}.cls-6{fill:#4ab1e5;}.cls-7{fill:#0089cf;}.cls-8{fill:#00a6e3;}.cls-9{fill:#44b7e9;}.cls-10{fill:#6acff6;}.cls-11,.cls-13{fill:#fff;}.cls-14{fill:#a2d3f2;}</style></defs><title>screen5-hold-more</title><path class="cls-1" d="M152.45,96c0-7-23.1-12.72-51.59-12.72S49.27,89,49.27,96s23.1,15.21,51.59,15.21S152.45,103.06,152.45,96Z"/><path class="cls-2" d="M144.46,95.77c0-6.88-21-12.46-46.9-12.46S50.65,88.89,50.65,95.77s21,14.9,46.91,14.9S144.46,102.66,144.46,95.77Z"/><path class="cls-3" d="M127.49,95.63c0-6.22-16.29-11.27-36.39-11.27s-36.4,5-36.4,11.27S71,109.1,91.1,109.1,127.49,101.85,127.49,95.63Z"/><ellipse class="cls-4" cx="100.86" cy="17.38" rx="99.6" ry="17.38"/><ellipse class="cls-5" cx="114.19" cy="19.18" rx="82.89" ry="15"/><path class="cls-6" d="M155.81,39.73C164.33,36.42,168.43,17.5,168.43,8c0,0,0-.07,0-.11C156.6,6,136.07,4.58,119.82,4.18c0,.48,0,1,0,1.46,0,10.74,0,27.34-7.63,36.78C105.31,51,145.55,43.72,155.81,39.73Z"/><path class="cls-7" d="M200.45,17.34s0,0,0,0c0,9.6-44.59,17.38-99.59,17.38S1.26,27,1.26,17.38c0,0,0,0,0,0H.18c0,42.6,26.9,88.74,100.69,88.74S201.55,59.94,201.55,17.34Z"/><path class="cls-8" d="M100.87,34.76c-46.1,0-84.88-5.47-96.22-12.89,1.77,41.27,28,84.21,92.35,84.21,61,0,78.52-38.56,81.09-77.72C159.81,32.27,132,34.76,100.87,34.76Z"/><path class="cls-9" d="M68.23,40.36c.22-2.92.62-2.37,1.12-4C47.08,35.12,26.74,32.46,14,28.52a28.2,28.2,0,0,0,.46,3.6C26.58,35.9,45.58,38.87,68.23,40.36Z"/><path class="cls-9" d="M68,49.75C45.9,48.17,27.25,45,15.11,41c5.23,32,28.39,59.74,77.68,62.25C73.28,90.92,68.06,66.52,68,49.75Z"/><path class="cls-10" d="M100.87,42.85C48.5,42.85,5.46,35.14.49,25.76a4.5,4.5,0,0,0-.49,2C0,38.91,45.16,48.33,100.87,48.33s100.86-9.42,100.86-20.59a4.49,4.49,0,0,0-.49-2C196.27,35.14,153.23,42.85,100.87,42.85Z"/><path class="cls-11" d="M100.87,45.12c-53,0-96.39-8.53-100.51-19a5,5,0,0,0-.24.68C2.48,37.6,46.68,46.51,100.87,46.51s98.37-8.92,100.74-19.68a4.74,4.74,0,0,0-.23-.68C197.25,36.59,153.84,45.12,100.87,45.12Z"/><path class="cls-12" d="M100.87,47.14C46.16,47.14,1.65,38,.08,27.15a3.75,3.75,0,0,0-.08.6C0,38.91,45.16,48.33,100.87,48.33s100.86-9.42,100.86-20.59a3.75,3.75,0,0,0-.07-.6C200.07,38,155.57,47.14,100.87,47.14Z"/><path class="cls-13" d="M27.05,59.64c3.54,17.89,34.14,36.17,39.59,35,2.06-.93-16.66-6.86-22.7-31.78C43.06,59.28,26.42,56.43,27.05,59.64Z"/><path class="cls-13" d="M23.73,46.5c6.54,1.82,21.17,7.45,18,8.37-1.16.34-11.35-.82-16.16-1.43C23.32,53.15,22.47,46.15,23.73,46.5Z"/><path class="cls-14" d="M100.87,35.85C52.05,35.85.18,29.38.18,17.38.18,7,52.05,0,100.87,0S201.55,7,201.55,17.38C201.55,29.38,149.67,35.85,100.87,35.85Zm0-34.17c-55.2,0-93.67,8.16-93.67,15.49s38.47,15.49,93.67,15.49,93.66-8.16,93.66-15.49S156.06,1.68,100.87,1.68Z"/><path class="cls-13" d="M24.44,32.09c3.55,1,12.65,2,12.14,3.75-.3.67-6.67-.27-11.06-1.45C23,33.69,23.7,31.88,24.44,32.09Z"/><path class="cls-13" d="M22,32.15c0,2.09-3.44.7-2.81-.34a2,2,0,0,1,1.67-.88C21.71,30.8,22,31.59,22,32.15Z"/></svg>