<svg id="Layer_1" data-name="Layer 1" xmlns="http://www.w3.org/2000/svg" viewBox="0 0 101.36 111.3"><defs><style>.cls-1{fill:#55c58f;}.cls-2{fill:#40946b;}.cls-3{fill:#2b6348;}.cls-4{fill:#b3d4c4;}.cls-5{fill:#4db181;}.cls-6{fill:#95b1a3;}.cls-7{fill:#357b59;}.cls-8{fill:#85baa0;}.cls-9{fill:#48a578;}.cls-10{fill:#69ab8b;}.cls-11{fill:#367e5b;}.cls-12{fill:#e1f5eb;}.cls-13{fill:#5ba983;}.cls-14{fill:#99dcbc;}.cls-15{fill:#d6f1e4;}.cls-16{fill:#64b18b;}.cls-17{fill:#70cea1;}.cls-18{fill:#96c2ad;}.cls-19{fill:#5da281;}.cls-20{fill:#5ea482;}.cls-21{fill:#8d8c8e;}.cls-22{fill:#306f50;}.cls-23{fill:#77d1a5;}.cls-24{fill:#bbe8d2;}.cls-25{fill:#58595b;}.cls-26{fill:#414042;}.cls-27{fill:#b3b3b3;}.cls-28{fill:#917054;}.cls-29{fill:#754c29;}.cls-30{fill:#ac947f;}.cls-31{fill:#58391f;}.cls-32{fill:#313032;}</style></defs><title>screen6-hold-more</title><path class="cls-1" d="M96.26,8.73c0-3.29-.93-6-2.07-6s-2.07,2.66-2.07,6,.93,6,2.07,6,2.07-2.67,2.07-6"/><polyline class="cls-1" points="94.19 2.78 93.28 2.78 93.28 14.68 94.19 14.68 94.19 2.78"/><path class="cls-2" d="M95.35,8.73c0-3.29-.93-6-2.07-6s-2.07,2.66-2.07,6,.93,6,2.07,6,2.07-2.67,2.07-6"/><path class="cls-3" d="M94.26,8.73c0-1.48-.44-2.68-1-2.68s-1,1.2-1,2.68.44,2.69,1,2.69,1-1.2,1-2.69"/><path class="cls-2" d="M4.56,20.62c7,5.5,24.32,9.39,44.58,9.39,20.07,0,37.24-3.82,44.38-9.23-7-5.49-24.33-9.38-44.58-9.38C28.88,11.39,11.71,15.21,4.56,20.62Z"/><path class="cls-2" d="M4.89,21.85c7.11-5.44,24.33-9.27,44.44-9.27,20.39,0,37.8,3.94,44.73,9.5,2.25-1.72,3.5-3.59,3.5-5.56,0-8.19-21.46-14.84-47.94-14.84S1.68,8.32,1.68,16.51c0,1.88,1.14,3.68,3.21,5.34"/><path class="cls-1" d="M49.53,31.19c-25.23,0-45.9-6-47.79-13.69l11,80.95c0,7.1,16.86,12.86,37.65,12.86s37.65-5.76,37.65-12.86l9.3-81.13C95.77,25.06,75,31.19,49.53,31.19"/><path class="cls-4" d="M94.35,26.19C92.78,33.83,71.91,39.8,46.84,39.8c-2.86,0-5.76-.08-8.63-.24l-.05.67c4.7.46,9.57.69,14.49.69,17.11,0,32.57-2.73,41.36-7.29l.16-.08L95,26.3l-.66-.1"/><path class="cls-4" d="M24.8,90.07l-4.36-48-.32-8c-3.52-1.82-9.53-2.56-10.1-4.86l-.66.13,9.78,70.45a5.24,5.24,0,0,0,.65,2.46l.05.1.1,0c2.57,1.28,10.24,4.47,12.77,4.55l.88,0-.64-.61c-1.37-1.3-8.15-14.83-8.15-16.29"/><path class="cls-4" d="M50.37,111.3h0m0,0h0m0,0h0m0,0h0m0,0h0m0,0h0m-.08,0h0m0,0h0m0,0h0m0,0h0m0,0h0m0,0h0m0,0h0m-.07,0h0m0,0h0m0,0h0m0,0h0m0,0h0"/><path class="cls-5" d="M96.62,22C93,26.26,84.92,29.44,75,31.41q1,2.51,1.81,5.15c10-2.48,16.7-6.17,17.56-10.37l.66.1-.83,7.25-.16.08A61.44,61.44,0,0,1,77.4,38.82a55.52,55.52,0,0,1,1.66,13.51c0,26.6-18.7,48.75-43.43,53.51a110.61,110.61,0,0,0,13.73.83c21.41,0,38.77-5.76,38.77-12.86L96.62,22m.24-.29-.16.2-8.77,76.5c0,7.1-16.85,12.86-37.65,12.86a95.64,95.64,0,0,1-20.9-2.16,94.73,94.73,0,0,0,20.34,2.19h.69c20.79,0,37.65-5.76,37.65-12.86l8.8-76.73"/><path class="cls-6" d="M5,21.8H5m0,0H5m0,0H5m0,0H5m0,0H5m0,0h0m0,0h0m0,0h0M1.68,16.5h0m0,0h0m0,0h0m0,0h0m0,0h0m0,0h0m0,0h0m0,0h0m0,0h0m0,0h0m19.73-1c-7.16,1.59-12.85,3.78-16.3,6.33,3.45-2.55,9.14-4.73,16.3-6.32h0"/><path class="cls-7" d="M19.75,4.91C8.86,7.6,1.83,11.73,1.68,16.4c0,0,0,0,0,.11a5,5,0,0,0,.56,2.27,7.93,7.93,0,0,0,2.83,2.93h0c1.44-1.5,3.35-2.51,5.12-1.25l4.58,3.28a8.41,8.41,0,0,0,2.71,1.47,6.38,6.38,0,0,0,1.68.16,2.48,2.48,0,0,0,2.07-.77,2.57,2.57,0,0,0,.35-1.28,26.88,26.88,0,0,0,0-4.34c-.08-.93-.78-3-.23-3.64-1.6-1.92-1.31-4.46-1.31-6.78,0-1.35-.94-2.35-.33-3.63"/><path class="cls-2" d="M2.24,18.78a9.56,9.56,0,0,0,2.65,3.07l.05,0a9.87,9.87,0,0,1-2.7-3"/><path class="cls-6" d="M93.81,21.88h0l.11.08h0l-.11-.09"/><path class="cls-2" d="M93.92,22h0l.14.11L93.92,22"/><path class="cls-8" d="M94.35,26.19c-.86,4.19-7.55,7.89-17.56,10.37q.33,1.12.62,2.26A61.44,61.44,0,0,0,94,33.63l.16-.08L95,26.3l-.66-.1"/><path class="cls-4" d="M12.55,97.85l.08.57c0,4.39,6.45,8.27,16.3,10.59-9.77-2.32-16.17-6.19-16.17-10.56L12.7,98l-.15-.15"/><path class="cls-5" d="M32.2,105.34a7.68,7.68,0,0,0,.68,1c.93-.13,1.85-.28,2.76-.46q-1.76-.22-3.44-.5M12.7,98l.06.45c0,4.37,6.4,8.24,16.17,10.56l.45.1a50.91,50.91,0,0,1-8.12-2.53c1.46.12,2.92.2,4.41.2q2.49,0,4.93-.23a75.28,75.28,0,0,1-10.67-4.16l-.1,0-.05-.1-.09-.17a21.56,21.56,0,0,1-7-4.09"/><path class="cls-8" d="M19.7,102.08l.09.17.05.1.1,0a75.28,75.28,0,0,0,10.67,4.16c.76-.07,1.52-.16,2.27-.26a7.68,7.68,0,0,1-.68-1,62.1,62.1,0,0,1-12.5-3.25"/><path class="cls-9" d="M96.7,21.91l-.08.09L88.14,93.81c0,7.1-17.36,12.86-38.77,12.86a110.61,110.61,0,0,1-13.73-.83c-.91.18-1.83.33-2.76.46l.07.08.64.61-.88,0a10.1,10.1,0,0,1-2.1-.39q-2.44.23-4.93.23c-1.49,0-3-.08-4.41-.2a50.91,50.91,0,0,0,8.12,2.53,95.64,95.64,0,0,0,20.9,2.16c20.79,0,37.65-5.76,37.65-12.86l8.77-76.5"/><path class="cls-10" d="M32.88,106.29c-.75.1-1.51.19-2.27.26a10.1,10.1,0,0,0,2.1.39l.88,0-.64-.61-.07-.08"/><path class="cls-11" d="M97.23,17.28c0,.1-.06.2-.09.31L96.62,22l.08-.09.53-4.63"/><path class="cls-12" d="M62.43,13.15c3.89.34,7.59.83,11,1.45h0c-3.38-.61-7-1.1-10.86-1.44h-.15"/><path class="cls-13" d="M62.82,2.25a4.17,4.17,0,0,0,.35.5,21.71,21.71,0,0,1,.66,5.36,8.8,8.8,0,0,1-.74,4.49c-.89,1.62-1.8,3.25-1.49,5.18a14.48,14.48,0,0,0,.65,2.15,13.05,13.05,0,0,1,.37,6.7c.95-1.39,1.26-3.14,2.25-4.5a10.82,10.82,0,0,1,3-2.54l2.79-1.8a7,7,0,0,0,2-1.63c1.52-2.06-.12-6.44-.12-8.83a28.84,28.84,0,0,1,.25-3.81c-3.11-.53-6.44-1-9.93-1.26"/><path class="cls-12" d="M53.3,12.63h0c2.17.06,4.29.16,6.37.3h0q-3.12-.21-6.37-.3"/><path class="cls-13" d="M53.34,1.73A21.68,21.68,0,0,1,54,7.09a28,28,0,0,1-.64,4.81,26,26,0,0,0,.06,4.95,36.16,36.16,0,0,1-1,10.86C52.61,25.67,54,24,54.5,22c.34-1.37.23-2.84.77-4.14.72-1.73,2.37-2.76,3.53-4.15,1.45-1.75,1.54-4,1.54-6.17a21.71,21.71,0,0,0-.66-5.36c1,0,2,.06,2.94.1-3-.26-6.09-.44-9.29-.51"/><path class="cls-14" d="M79,4.21V4.13A132.14,132.14,0,0,0,62.71,2.45a4.2,4.2,0,0,0,.35.51h0A140.27,140.27,0,0,1,79,4.21Z"/><path class="cls-15" d="M83.88,17.13h0a33.56,33.56,0,0,1,9.93,4.74,33.53,33.53,0,0,0-9.93-4.75m13.68-.63h0m0,0h0m0,0h0m0,0h0m0,0h0m0,0h0m0,0h0m0,0h0m0,0h0"/><path class="cls-16" d="M85.66,6.74A14.49,14.49,0,0,1,86,9.65c0,5.54-2.82,11.58-6.53,15.6.43-.47,2.89-.71,3.59-1,1.34-.49,2.64-1.07,4-1.58a18.43,18.43,0,0,1,4-1.13c1-.14,2.63.41,3.37,0a8.92,8.92,0,0,0,2.7-3.34l.08-.69c0-.1.07-.2.09-.31l-.09.81a5.34,5.34,0,0,0,.23-.78l-.1.86a5,5,0,0,0,.3-1.76C97.48,12.71,93,9.32,85.66,6.74"/><path class="cls-17" d="M97.06,18.28a8.92,8.92,0,0,1-2.7,3.34l.62-.31c-.28.26-.58.51-.91.76A9.89,9.89,0,0,0,97,18.78l.06-.5m.3-1a5.34,5.34,0,0,1-.23.78l-.06.54c.07-.15.13-.31.19-.46l.1-.86"/><path class="cls-18" d="M93.81,21.88h0l.11.09-.11-.09"/><path class="cls-19" d="M94.36,21.62l-.55.26.11.09.44-.34"/><path class="cls-16" d="M95,21.31l-.62.31-.44.34.14.11c.33-.25.63-.51.91-.76"/><path class="cls-20" d="M97.23,17.28c0,.1-.06.2-.09.31l-.08.69-.06.5.07-.15.06-.54.09-.81"/><path class="cls-21" d="M8.68,23.4C8.25,20.14,7,17.62,5.85,17.76l-.9.12c-1.13.15-1.71,2.91-1.28,6.17s1.69,5.78,2.82,5.63l.9-.12C8.53,29.42,9.1,26.66,8.68,23.4Z"/><path class="cls-2" d="M49.62,33C25.56,33,0,27.24,0,16.51S25.56,0,49.62,0,99.24,5.79,99.24,16.51,73.67,33,49.62,33m0-29.67c-27.26,0-46.26,6.93-46.26,13.16s19,13.16,46.26,13.16,46.26-6.93,46.26-13.16S76.88,3.35,49.62,3.35"/><path class="cls-22" d="M49.79,33.73C25.74,33.73.18,27.94.18,17.21S25.74.7,49.79.7,98.66,6.2,98.66,16.93s-24.81,16.8-48.86,16.8m0-29.67C22.53,4.06,3.53,11,3.53,17.21s19,13.16,46.26,13.16,46.26-6.93,46.26-13.16S77.06,4.06,49.79,4.06"/><path class="cls-23" d="M49.62,32.69c-12.94,0-25.12-1.56-34.3-4.41-9.8-3-15-7.11-15-11.77s5.18-8.74,15-11.77C24.5,1.9,36.68.33,49.62.33S74.74,1.9,83.92,4.74c9.8,3,15,7.1,15,11.77s-5.18,8.74-15,11.77C74.74,31.13,62.56,32.69,49.62,32.69ZM49.62,3C22.16,3,3,10.13,3,16.51S22.16,30,49.62,30s46.6-7.11,46.6-13.49S77.08,3,49.62,3Z"/><path class="cls-24" d="M49.62,32C22.36,32,1,25.21,1,16.51S22.36,1,49.62,1,98.23,7.82,98.23,16.51,76.88,32,49.62,32Zm0-29.67C24,2.35,2.35,8.83,2.35,16.51S24,30.68,49.62,30.68s47.27-6.49,47.27-14.16S75.24,2.35,49.62,2.35Z"/><path class="cls-2" d="M6,16.35l-.9.12.08.6a10.22,10.22,0,0,0-.46,5.45,10.22,10.22,0,0,0,1.84,5.15l.08.6.9-.12C8.67,28,9.24,25.24,8.81,22S7.12,16.2,6,16.35Z"/><ellipse class="cls-1" cx="5.86" cy="22.37" rx="2.07" ry="5.95" transform="translate(-2.85 0.95) rotate(-7.45)"/><ellipse class="cls-3" cx="5.86" cy="22.37" rx="0.98" ry="2.69" transform="translate(-2.85 0.95) rotate(-7.46)"/><path class="cls-25" d="M97.29,21.38a1.61,1.61,0,0,1-.2.27l-.09.09-.08.08a.68.68,0,0,1-.17.22v0c0,.4-.08.8-.13,1.2s-.09.52-.14.78c0,.41-.07.81-.13,1.21,4.26,14.4,4.4,22.23-2.42,25.44C83.61,55.53,69,58,68.81,58A1,1,0,1,0,69,60c.7-.08,15.12-2.53,25.74-7.53C104,48.15,102.24,36.93,97.29,21.38Z"/><path class="cls-26" d="M96.45,24.33q0,.46-.1.91c4.26,14.4,4.4,22.23-2.42,25.44C83.61,55.53,69,58,68.81,58A1,1,0,0,0,68.54,60a.83.83,0,0,1,0-.1,1,1,0,0,1,.88-1.12c.17,0,14.8-2.5,25.11-7.35C101.59,48.05,101.18,39.77,96.45,24.33Z"/><path class="cls-27" d="M97.29,21.38a1.55,1.55,0,0,1-.28.35h0c4.79,15.21,6.39,26.17-2.71,30.46-10.61,5-25,7.45-25.74,7.53a1,1,0,0,1-.37,0A1,1,0,0,0,69,60c.7-.08,15.12-2.53,25.74-7.53C104,48.15,102.24,36.93,97.29,21.38Z"/><rect class="cls-28" x="44.57" y="56.66" width="24.41" height="7.8" transform="translate(-4.08 4.1) rotate(-4)"/><path class="cls-29" d="M69.22,63.6l-1.16.08C63.53,61,56.82,59.49,49.46,60a40.83,40.83,0,0,0-4.91.64l-.22-3.12,24.35-1.7c.83-.06,1.62,1.64,1.77,3.78S70,63.54,69.22,63.6Z"/><ellipse class="cls-30" cx="44.6" cy="61.41" rx="1.5" ry="3.9" transform="matrix(1, -0.07, 0.07, 1, -4.16, 3.25)"/><ellipse class="cls-28" cx="44.6" cy="61.41" rx="0.66" ry="1.72" transform="translate(-4.19 3.27) rotate(-4.01)"/><ellipse class="cls-29" cx="44.6" cy="61.41" rx="0.42" ry="1.09" transform="translate(-4.17 3.26) rotate(-4)"/><path class="cls-31" d="M70.31,62h0a3.57,3.57,0,0,1-.43,1.15l0,0-.11.15,0,0-.11.1,0,0-.11.06,0,0-.17,0-1.16.08q-.43-.26-.88-.5a20.94,20.94,0,0,0,2.09-.73,7.91,7.91,0,0,0,.25-2.78,9.67,9.67,0,0,0-.13-1c-3-.87-8.39-1.21-14.54-.79a66.22,66.22,0,0,0-9.18,1.25c-.34-1-.83-1.61-1.34-1.57l24.35-1.7a.61.61,0,0,1,.26,0h0a1,1,0,0,1,.24.15l0,0a1.73,1.73,0,0,1,.23.25l0,0a3,3,0,0,1,.22.35h0a6.15,6.15,0,0,1,.55,1.61h0c0,.21.08.43.11.66s.05.42.07.63A8.53,8.53,0,0,1,70.31,62Z"/><path class="cls-25" d="M14,57.12c9.35,6.23,29,3.51,30.62,3.25a1.91,1.91,0,0,1,.23.94,1.77,1.77,0,0,1-.1.95c-.84.15-21.45,3.47-31.86-3.46-7.46-5-9.94-16.46-8.05-37.26a1,1,0,0,1,2,.18C5,41.7,7.22,52.62,14,57.12Z"/><path class="cls-21" d="M43.66,61.08C42,61.35,22.51,64.24,13.16,58,6.4,53.5,4.19,42.59,6,22.6a1,1,0,0,0-.91-1.09,1,1,0,0,0-.27,0,1,1,0,0,1,2,.19C5,41.7,7.22,52.62,14,57.12c9.35,6.23,29,3.51,30.62,3.25a1.47,1.47,0,0,1,.19.61"/><path class="cls-32" d="M12.8,58.51c10.41,6.93,31,3.61,31.86,3.46a1.77,1.77,0,0,0,.1-.94,3.7,3.7,0,0,0,0-.41,3,3,0,0,1,.12.69,1.77,1.77,0,0,1-.1.95c-.84.15-21.45,3.47-31.86-3.46-3.54-2.36-6-6.2-7.32-11.81C6.92,52.44,9.32,56.19,12.8,58.51Z"/></svg>