<svg id="Layer_1" data-name="Layer 1" xmlns="http://www.w3.org/2000/svg" xmlns:xlink="http://www.w3.org/1999/xlink" viewBox="0 0 44.91 64.14"><defs><style>.cls-1{fill:url(#linear-gradient);}.cls-2,.cls-3{opacity:0.2;}.cls-2{fill:url(#linear-gradient-2);}.cls-3{fill:url(#linear-gradient-3);}.cls-4{opacity:0.3;fill:url(#linear-gradient-4);}.cls-5{fill:url(#radial-gradient);}.cls-6{fill:url(#radial-gradient-2);}</style><linearGradient id="linear-gradient" y1="34.87" x2="44.91" y2="34.87" gradientUnits="userSpaceOnUse"><stop offset="0" stop-color="#57e4ff"/><stop offset="0.01" stop-color="#48ddfd"/><stop offset="0.03" stop-color="#2cd1fa"/><stop offset="0.05" stop-color="#1bc9f9"/><stop offset="0.06" stop-color="#15c6f8"/><stop offset="0.19" stop-color="#47deff"/><stop offset="0.43" stop-color="#45ddff"/><stop offset="0.7" stop-color="#0ab8f2"/><stop offset="0.74" stop-color="#0aa7dc"/><stop offset="0.85" stop-color="#0aa8de"/><stop offset="0.88" stop-color="#0aade5"/><stop offset="0.88" stop-color="#0aade5"/><stop offset="0.91" stop-color="#0abaf2"/><stop offset="1" stop-color="#42dbff"/></linearGradient><linearGradient id="linear-gradient-2" x1="44.84" y1="55.26" x2="44.91" y2="55.26" gradientUnits="userSpaceOnUse"><stop offset="0"/><stop offset="0.02" stop-color="#010e12"/><stop offset="0.04" stop-color="#031c23"/><stop offset="0.06" stop-color="#032129"/><stop offset="0.19" stop-color="#16444f"/><stop offset="0.43" stop-color="#267a8c"/><stop offset="0.7" stop-color="#044f69"/><stop offset="0.74" stop-color="#066a8c"/><stop offset="0.79" stop-color="#06698a"/><stop offset="0.8" stop-color="#066383"/><stop offset="0.81" stop-color="#055b78"/><stop offset="0.82" stop-color="#044e67"/><stop offset="0.83" stop-color="#033d51"/><stop offset="0.84" stop-color="#033647"/><stop offset="0.84" stop-color="#033e51"/><stop offset="0.85" stop-color="#05536d"/><stop offset="0.87" stop-color="#07759b"/><stop offset="0.88" stop-color="#09a4d9"/><stop offset="0.88" stop-color="#0aade5"/><stop offset="0.89" stop-color="#09a1d5"/><stop offset="0.9" stop-color="#0782ab"/><stop offset="0.91" stop-color="#044f67"/><stop offset="0.91" stop-color="#04475c"/><stop offset="1" stop-color="#267f94"/></linearGradient><linearGradient id="linear-gradient-3" x1="0.04" y1="55.09" x2="0.08" y2="55.09" xlink:href="#linear-gradient-2"/><linearGradient id="linear-gradient-4" x1="2.76" y1="59.82" x2="46.77" y2="59.82" xlink:href="#linear-gradient-2"/><radialGradient id="radial-gradient" cx="-83.93" cy="3.32" r="63.53" gradientTransform="translate(77.49) scale(0.69 1)" gradientUnits="userSpaceOnUse"><stop offset="0" stop-color="#e1e1e7"/><stop offset="0.19" stop-color="#dcdce2"/><stop offset="0.43" stop-color="#cdcdd4"/><stop offset="0.69" stop-color="#b5b5bc"/><stop offset="0.96" stop-color="#92939b"/><stop offset="1" stop-color="#8d8e96"/></radialGradient><radialGradient id="radial-gradient-2" cx="-80.1" cy="7.27" r="22.6" xlink:href="#radial-gradient"/></defs><title>screen7-hold-less</title><path class="cls-1" d="M44.91,5.61H0V57.66h0a1.69,1.69,0,0,0-.08.47c0,3.32,10.05,6,22.46,6s22.46-2.69,22.46-6a1.69,1.69,0,0,0-.08-.47h.08Z"/><path class="cls-2" d="M44.91,55.5V55h-.08A1.73,1.73,0,0,1,44.91,55.5Z"/><path class="cls-3" d="M.08,55H0v.14S.06,55.07.08,55Z"/><path class="cls-4" d="M22.46,61.59C10.51,61.59.74,59.06,0,55.87v1.71h0a1.73,1.73,0,0,0-.08.48c0,3.36,10.05,6.09,22.46,6.09s22.46-2.73,22.46-6.09a1.73,1.73,0,0,0-.08-.48h.08V55.5C44.91,58.86,34.86,61.59,22.46,61.59Z"/><ellipse class="cls-5" cx="22.46" cy="5.61" rx="22.46" ry="5.61"/><ellipse class="cls-6" cx="22.46" cy="5.61" rx="19.37" ry="4.84"/></svg>