<svg id="Layer_1" data-name="Layer 1" xmlns="http://www.w3.org/2000/svg" xmlns:xlink="http://www.w3.org/1999/xlink" viewBox="0 0 676.02 148.88"><defs><style>.cls-1{fill:none;}.cls-2{fill:#4b95b3;}.cls-10,.cls-11,.cls-118,.cls-119,.cls-12,.cls-120,.cls-121,.cls-122,.cls-123,.cls-125,.cls-126,.cls-127,.cls-129,.cls-13,.cls-130,.cls-131,.cls-132,.cls-133,.cls-134,.cls-136,.cls-137,.cls-138,.cls-14,.cls-15,.cls-2,.cls-3,.cls-4,.cls-5,.cls-6,.cls-7,.cls-8,.cls-9{fill-rule:evenodd;}.cls-3{fill:url(#linear-gradient);}.cls-4{fill:url(#linear-gradient-2);}.cls-5{fill:url(#linear-gradient-3);}.cls-6{fill:#808184;}.cls-7{fill:url(#linear-gradient-4);}.cls-8{fill:#67cdf6;}.cls-9{fill:#73bcd9;}.cls-10{fill:url(#linear-gradient-5);}.cls-11{fill:#a5dff6;}.cls-12{fill:#f59579;}.cls-13{fill:url(#GradientFill_38);}.cls-116,.cls-14,.cls-21{fill:#fff;}.cls-15{fill:url(#GradientFill_39);}.cls-117,.cls-128,.cls-16,.cls-42,.cls-68,.cls-90{opacity:0.58;}.cls-16{fill:url(#GradientFill_15);}.cls-17{fill:#231f20;}.cls-18{fill:url(#linear-gradient-6);}.cls-19{fill:url(#linear-gradient-7);}.cls-20{fill:url(#linear-gradient-8);}.cls-22{fill:url(#linear-gradient-9);}.cls-23{fill:url(#linear-gradient-10);}.cls-119,.cls-127,.cls-24{fill:#fffffb;}.cls-25{fill:#0e1f31;}.cls-26{fill:url(#linear-gradient-12);}.cls-27{fill:#daf8ff;}.cls-28{fill:url(#linear-gradient-15);}.cls-29{fill:url(#linear-gradient-16);}.cls-30{fill:url(#linear-gradient-17);}.cls-31{fill:url(#linear-gradient-18);}.cls-32{fill:url(#linear-gradient-19);}.cls-33{fill:url(#radial-gradient);}.cls-34{fill:#eaffff;}.cls-35{fill:url(#radial-gradient-2);}.cls-36{fill:url(#linear-gradient-20);}.cls-37{fill:url(#linear-gradient-21);}.cls-38{fill:url(#linear-gradient-22);}.cls-39{fill:#c1e5f8;}.cls-40{fill:#e2f9ff;}.cls-41{fill:url(#linear-gradient-23);}.cls-42{fill:url(#GradientFill_15-2);}.cls-43{fill:#489ce0;}.cls-44{fill:url(#linear-gradient-24);}.cls-45{fill:url(#linear-gradient-25);}.cls-46{fill:#231f1f;}.cls-47{fill:url(#linear-gradient-26);}.cls-48{fill:url(#linear-gradient-27);}.cls-49{fill:url(#linear-gradient-28);}.cls-50{fill:url(#linear-gradient-29);}.cls-51{fill:#8bb3d0;}.cls-52{fill:#001634;}.cls-53{fill:url(#linear-gradient-30);}.cls-54{fill:url(#linear-gradient-31);}.cls-55{fill:url(#linear-gradient-32);}.cls-56{fill:url(#linear-gradient-34);}.cls-57{fill:url(#linear-gradient-37);}.cls-58{fill:url(#linear-gradient-38);}.cls-59{fill:url(#linear-gradient-39);}.cls-60{fill:url(#linear-gradient-40);}.cls-61{fill:url(#linear-gradient-41);}.cls-62{fill:url(#radial-gradient-3);}.cls-63{fill:url(#radial-gradient-4);}.cls-64{fill:url(#linear-gradient-42);}.cls-65{fill:url(#linear-gradient-43);}.cls-66{fill:url(#linear-gradient-44);}.cls-67{fill:url(#linear-gradient-45);}.cls-68{fill:url(#GradientFill_15-3);}.cls-69{fill:url(#linear-gradient-46);}.cls-70{fill:url(#linear-gradient-47);}.cls-71{fill:url(#linear-gradient-48);}.cls-72{fill:url(#linear-gradient-49);}.cls-73{fill:url(#linear-gradient-50);}.cls-74{fill:url(#linear-gradient-51);}.cls-75{fill:url(#linear-gradient-52);}.cls-76{fill:url(#linear-gradient-53);}.cls-77{fill:url(#linear-gradient-54);}.cls-78{fill:url(#linear-gradient-56);}.cls-79{fill:url(#linear-gradient-59);}.cls-80{fill:url(#linear-gradient-60);}.cls-81{fill:url(#linear-gradient-61);}.cls-82{fill:url(#linear-gradient-62);}.cls-83{fill:url(#linear-gradient-63);}.cls-84{fill:url(#radial-gradient-5);}.cls-85{fill:url(#radial-gradient-6);}.cls-86{fill:url(#linear-gradient-64);}.cls-87{fill:url(#linear-gradient-65);}.cls-88{fill:url(#linear-gradient-66);}.cls-89{fill:url(#linear-gradient-67);}.cls-90{fill:url(#GradientFill_15-4);}.cls-91{fill:url(#linear-gradient-68);}.cls-92{fill:url(#linear-gradient-69);}.cls-93{fill:url(#linear-gradient-70);}.cls-94{fill:url(#linear-gradient-71);}.cls-95{fill:url(#linear-gradient-72);}.cls-96{fill:url(#linear-gradient-73);}.cls-97{fill:#607985;}.cls-98{fill:url(#linear-gradient-74);}.cls-99{fill:url(#linear-gradient-75);}.cls-100{fill:url(#linear-gradient-76);}.cls-101{fill:url(#linear-gradient-77);}.cls-102{fill:url(#linear-gradient-78);}.cls-103{fill:url(#linear-gradient-79);}.cls-104{fill:url(#linear-gradient-80);}.cls-105{fill:url(#linear-gradient-81);}.cls-106{fill:url(#linear-gradient-82);}.cls-107{fill:url(#linear-gradient-83);}.cls-108{fill:url(#linear-gradient-84);}.cls-109{fill:#8baebf;}.cls-110{fill:url(#linear-gradient-85);}.cls-111{fill:#f0fcff;}.cls-111,.cls-119,.cls-130{opacity:0.6;}.cls-112{fill:url(#linear-gradient-86);}.cls-113{clip-path:url(#clip-path);}.cls-114{fill:#b2def5;}.cls-115{fill:#a5cee3;}.cls-116,.cls-127,.cls-138{opacity:0.8;}.cls-117{fill:url(#GradientFill_15-5);}.cls-118{fill:url(#linear-gradient-87);}.cls-120{fill:url(#radial-gradient-7);}.cls-121{fill:url(#GradientFill_43);}.cls-122{fill:url(#GradientFill_44);}.cls-123{fill:url(#GradientFill_45);}.cls-124{fill:#c6e9fa;}.cls-125{fill:url(#GradientFill_46);}.cls-126{fill:#c7dae4;}.cls-129{fill:url(#GradientFill_15-6);}.cls-130{fill:url(#GradientFill_15-7);}.cls-131{fill:url(#GradientFill_15-8);}.cls-132{fill:url(#GradientFill_15-9);}.cls-133{fill:url(#GradientFill_15-10);}.cls-134{fill:url(#GradientFill_15-11);}.cls-135{fill:url(#GradientFill_15-12);}.cls-136{fill:url(#GradientFill_15-13);}.cls-137{fill:url(#GradientFill_15-14);}.cls-138{fill:url(#GradientFill_15-15);}.cls-139{fill:url(#linear-gradient-88);}</style><linearGradient id="linear-gradient" x1="674.15" y1="86.8" x2="663.25" y2="86.8" gradientUnits="userSpaceOnUse"><stop offset="0" stop-color="#a0ddf6"/><stop offset="1" stop-color="#c4f7ff"/></linearGradient><linearGradient id="linear-gradient-2" x1="639.47" y1="144.55" x2="639.47" y2="43.4" xlink:href="#linear-gradient"/><linearGradient id="linear-gradient-3" x1="701.48" y1="23.93" x2="629.77" y2="21.43" gradientUnits="userSpaceOnUse"><stop offset="0" stop-color="#e1fbff"/><stop offset="1" stop-color="#a0ddf6"/></linearGradient><linearGradient id="linear-gradient-4" x1="694.55" y1="9.29" x2="640.66" y2="7.41" xlink:href="#linear-gradient-3"/><linearGradient id="linear-gradient-5" x1="674.39" y1="15.7" x2="657.04" y2="18.14" gradientUnits="userSpaceOnUse"><stop offset="0" stop-color="#e1fbff"/><stop offset="1" stop-color="#c5e8f6"/></linearGradient><linearGradient id="GradientFill_38" x1="645.65" y1="16.74" x2="637.84" y2="26.04" gradientUnits="userSpaceOnUse"><stop offset="0" stop-color="#e8856a"/><stop offset="1" stop-color="#b01117"/></linearGradient><linearGradient id="GradientFill_39" x1="638.1" y1="20.97" x2="644.74" y2="13.05" gradientUnits="userSpaceOnUse"><stop offset="0" stop-color="#f59579"/><stop offset="1" stop-color="#ffe9d1"/></linearGradient><linearGradient id="GradientFill_15" x1="615.22" y1="93.54" x2="676.02" y2="93.54" gradientUnits="userSpaceOnUse"><stop offset="0" stop-color="#2e78c1"/><stop offset="0.37" stop-color="#2e8edb"/><stop offset="0.63" stop-color="#2e99e3"/><stop offset="1" stop-color="#2e7ac6"/></linearGradient><linearGradient id="linear-gradient-6" x1="3451.41" y1="55.83" x2="3440" y2="31.37" gradientTransform="matrix(-1, 0, 0, 1, 3753.63, 0)" gradientUnits="userSpaceOnUse"><stop offset="0" stop-color="#95cff2"/><stop offset="0.33" stop-color="#89bdd1"/><stop offset="0.42" stop-color="#8fc1d4"/><stop offset="0.55" stop-color="#9fccdc"/><stop offset="0.68" stop-color="#badfe8"/><stop offset="0.83" stop-color="#e0f8fa"/><stop offset="0.87" stop-color="#eaffff"/><stop offset="0.92" stop-color="#e7fdff"/><stop offset="0.95" stop-color="#dff8fd"/><stop offset="0.97" stop-color="#d1eefa"/><stop offset="0.99" stop-color="#bde0f6"/><stop offset="1" stop-color="#b1d8f4"/></linearGradient><linearGradient id="linear-gradient-7" x1="3405.69" y1="75.19" x2="3457.92" y2="75.19" gradientTransform="matrix(-1, 0, 0, 1, 3753.63, 0)" gradientUnits="userSpaceOnUse"><stop offset="0" stop-color="#b7e2f5"/><stop offset="0.04" stop-color="#bde6f7"/><stop offset="0.15" stop-color="#cbeefc"/><stop offset="0.29" stop-color="#d3f4fe"/><stop offset="0.56" stop-color="#d5f5ff"/><stop offset="0.71" stop-color="#d2f3fe"/><stop offset="0.8" stop-color="#c9eefa"/><stop offset="0.89" stop-color="#bae5f4"/><stop offset="0.96" stop-color="#a5d9eb"/><stop offset="1" stop-color="#98d1e5"/></linearGradient><linearGradient id="linear-gradient-8" x1="3324.88" y1="52.87" x2="3463.92" y2="52.87" gradientTransform="matrix(-1, 0, 0, 1, 3753.63, 0)" gradientUnits="userSpaceOnUse"><stop offset="0" stop-color="#b7e2f5"/><stop offset="0.06" stop-color="#c2e9f8"/><stop offset="0.17" stop-color="#d0f2fc"/><stop offset="0.3" stop-color="#d8f7fe"/><stop offset="0.56" stop-color="#daf8ff"/><stop offset="0.74" stop-color="#d7f6fe"/><stop offset="0.86" stop-color="#cef1fc"/><stop offset="0.96" stop-color="#c0e7f7"/><stop offset="1" stop-color="#b7e2f5"/></linearGradient><linearGradient id="linear-gradient-9" x1="3431.07" y1="57.75" x2="3513.53" y2="57.75" gradientTransform="matrix(-1, 0, 0, 1, 3753.63, 0)" gradientUnits="userSpaceOnUse"><stop offset="0" stop-color="#fff"/><stop offset="0.32" stop-color="#f8fbfb"/><stop offset="0.79" stop-color="#e5eff0"/><stop offset="1" stop-color="#dae9ea"/></linearGradient><linearGradient id="linear-gradient-10" x1="3430.24" y1="58.81" x2="3517.44" y2="58.81" gradientTransform="matrix(-1, 0, 0, 1, 3753.63, 0)" gradientUnits="userSpaceOnUse"><stop offset="0" stop-color="#9fd5e8"/><stop offset="0.09" stop-color="#b2e1f2"/><stop offset="0.19" stop-color="#c0eaf9"/><stop offset="0.32" stop-color="#c8effe"/><stop offset="0.56" stop-color="#caf1ff"/><stop offset="0.72" stop-color="#c7effe"/><stop offset="0.83" stop-color="#beeaf9"/><stop offset="0.92" stop-color="#b0e0f1"/><stop offset="1" stop-color="#9cd4e7"/></linearGradient><linearGradient id="linear-gradient-12" x1="3430.24" y1="100.57" x2="3517.68" y2="100.57" xlink:href="#linear-gradient-8"/><linearGradient id="linear-gradient-15" x1="3430.24" y1="66.52" x2="3517.44" y2="66.52" xlink:href="#linear-gradient-10"/><linearGradient id="linear-gradient-16" x1="3431.07" y1="60.98" x2="3513.48" y2="60.98" gradientTransform="matrix(-1, 0, 0, 1, 3753.63, 0)" gradientUnits="userSpaceOnUse"><stop offset="0" stop-color="#eaffff"/><stop offset="0.32" stop-color="#e3fbfe"/><stop offset="0.79" stop-color="#d0effd"/><stop offset="1" stop-color="#c5e9fc"/></linearGradient><linearGradient id="linear-gradient-17" x1="3430.24" y1="60.98" x2="3517.44" y2="60.98" gradientTransform="matrix(-1, 0, 0, 1, 3753.63, 0)" gradientUnits="userSpaceOnUse"><stop offset="0" stop-color="#b3e0f3"/><stop offset="0.12" stop-color="#c0e9fa"/><stop offset="0.27" stop-color="#c8effe"/><stop offset="0.56" stop-color="#caf1ff"/><stop offset="0.98" stop-color="#cdeeff"/><stop offset="1" stop-color="#cdeeff"/></linearGradient><linearGradient id="linear-gradient-18" x1="3431.07" y1="65.39" x2="3513.47" y2="65.39" gradientTransform="matrix(-1, 0, 0, 1, 3753.63, 0)" gradientUnits="userSpaceOnUse"><stop offset="0.31" stop-color="#dffaff"/><stop offset="1" stop-color="#b0def8"/></linearGradient><linearGradient id="linear-gradient-19" x1="3430.24" y1="65.39" x2="3517.44" y2="65.39" gradientTransform="matrix(-1, 0, 0, 1, 3753.63, 0)" gradientUnits="userSpaceOnUse"><stop offset="0" stop-color="#c0e7f9"/><stop offset="0.19" stop-color="#c8effe"/><stop offset="0.56" stop-color="#caf1ff"/><stop offset="0.85" stop-color="#c8eefe"/><stop offset="1" stop-color="#c3e8fb"/></linearGradient><radialGradient id="radial-gradient" cx="3473.88" cy="130.23" r="30.05" gradientTransform="matrix(-1, 0, 0, 1, 3753.63, 0)" gradientUnits="userSpaceOnUse"><stop offset="0" stop-color="#b7e2f5"/><stop offset="0.33" stop-color="#bde6f7"/><stop offset="0.75" stop-color="#cdf0fb"/><stop offset="1" stop-color="#daf8ff"/></radialGradient><radialGradient id="radial-gradient-2" cx="3473.88" cy="130.23" r="30.05" xlink:href="#radial-gradient"/><linearGradient id="linear-gradient-20" x1="3431.07" y1="132.47" x2="3513.48" y2="132.47" gradientTransform="matrix(-1, 0, 0, 1, 3753.63, 0)" xlink:href="#linear-gradient-5"/><linearGradient id="linear-gradient-21" x1="3483.12" y1="81.96" x2="3492.78" y2="81.96" gradientTransform="matrix(-1, 0, 0, 1, 3753.63, 0)" gradientUnits="userSpaceOnUse"><stop offset="0" stop-color="#daf8ff"/><stop offset="0.33" stop-color="#d4f4fd"/><stop offset="0.75" stop-color="#c4eaf9"/><stop offset="1" stop-color="#b7e2f5"/></linearGradient><linearGradient id="linear-gradient-22" x1="3488.83" y1="81.76" x2="3507.38" y2="81.76" gradientTransform="matrix(-1, 0, 0, 1, 3753.63, 0)" gradientUnits="userSpaceOnUse"><stop offset="0" stop-color="#b7e2f5"/><stop offset="0.26" stop-color="#bde5f6"/><stop offset="0.6" stop-color="#cdeff9"/><stop offset="0.98" stop-color="#e8feff"/><stop offset="1" stop-color="#eaffff"/></linearGradient><linearGradient id="linear-gradient-23" x1="3326.01" y1="128.65" x2="3465.05" y2="128.65" xlink:href="#linear-gradient-8"/><linearGradient id="GradientFill_15-2" x1="233.98" y1="115.67" x2="326.04" y2="115.67" xlink:href="#GradientFill_15"/><linearGradient id="linear-gradient-24" x1="238.84" y1="82.45" x2="320.88" y2="82.45" gradientUnits="userSpaceOnUse"><stop offset="0" stop-color="#2f92e0"/><stop offset="0.48" stop-color="#72b5e3"/><stop offset="1" stop-color="#2f92e0"/></linearGradient><linearGradient id="linear-gradient-25" x1="3438.04" y1="40.58" x2="3455.86" y2="40.58" gradientTransform="matrix(-1, 0, 0, 1, 3753.63, 0)" gradientUnits="userSpaceOnUse"><stop offset="0.09" stop-color="#c5eafc"/><stop offset="0.37" stop-color="#c1e7f9"/><stop offset="0.63" stop-color="#b6def1"/><stop offset="0.88" stop-color="#a3cee3"/><stop offset="1" stop-color="#97c4da"/></linearGradient><linearGradient id="linear-gradient-26" x1="3431.21" y1="55.14" x2="3516.2" y2="55.14" gradientTransform="matrix(-1, 0, 0, 1, 3753.63, 0)" gradientUnits="userSpaceOnUse"><stop offset="0.75" stop-color="#daf8ff"/><stop offset="0.82" stop-color="#d6f5fd"/><stop offset="0.89" stop-color="#cbecf7"/><stop offset="0.95" stop-color="#b8dded"/><stop offset="1" stop-color="#a5cee3"/></linearGradient><linearGradient id="linear-gradient-27" x1="3431.21" y1="55.14" x2="3516.2" y2="55.14" xlink:href="#linear-gradient-26"/><linearGradient id="linear-gradient-28" x1="3431.21" y1="46.01" x2="3516.2" y2="46.01" gradientTransform="matrix(-1, 0, 0, 1, 3753.63, 0)" gradientUnits="userSpaceOnUse"><stop offset="0.75" stop-color="#c5eafc"/><stop offset="0.83" stop-color="#c1e7f9"/><stop offset="0.9" stop-color="#b6def1"/><stop offset="0.97" stop-color="#a3cee3"/><stop offset="1" stop-color="#97c4da"/></linearGradient><linearGradient id="linear-gradient-29" x1="3430.24" y1="61.37" x2="3517.44" y2="61.37" xlink:href="#linear-gradient-10"/><linearGradient id="linear-gradient-30" x1="3459.69" y1="52.87" x2="3598.73" y2="52.87" xlink:href="#linear-gradient-8"/><linearGradient id="linear-gradient-31" x1="3565.88" y1="57.75" x2="3648.34" y2="57.75" xlink:href="#linear-gradient-9"/><linearGradient id="linear-gradient-32" x1="3565.05" y1="58.81" x2="3652.25" y2="58.81" xlink:href="#linear-gradient-10"/><linearGradient id="linear-gradient-34" x1="3565.05" y1="100.57" x2="3652.49" y2="100.57" xlink:href="#linear-gradient-8"/><linearGradient id="linear-gradient-37" x1="3565.05" y1="66.52" x2="3652.25" y2="66.52" xlink:href="#linear-gradient-10"/><linearGradient id="linear-gradient-38" x1="3565.88" y1="60.98" x2="3648.29" y2="60.98" xlink:href="#linear-gradient-16"/><linearGradient id="linear-gradient-39" x1="3565.05" y1="60.98" x2="3652.26" y2="60.98" xlink:href="#linear-gradient-17"/><linearGradient id="linear-gradient-40" x1="3565.88" y1="65.39" x2="3648.29" y2="65.39" xlink:href="#linear-gradient-18"/><linearGradient id="linear-gradient-41" x1="3565.05" y1="65.39" x2="3652.25" y2="65.39" xlink:href="#linear-gradient-19"/><radialGradient id="radial-gradient-3" cx="3608.69" cy="130.23" r="30.05" xlink:href="#radial-gradient"/><radialGradient id="radial-gradient-4" cx="3608.69" cy="130.23" r="30.05" xlink:href="#radial-gradient"/><linearGradient id="linear-gradient-42" x1="3565.88" y1="132.47" x2="3648.29" y2="132.47" gradientTransform="matrix(-1, 0, 0, 1, 3753.63, 0)" xlink:href="#linear-gradient-5"/><linearGradient id="linear-gradient-43" x1="3617.93" y1="81.96" x2="3627.59" y2="81.96" xlink:href="#linear-gradient-21"/><linearGradient id="linear-gradient-44" x1="3623.64" y1="81.76" x2="3642.19" y2="81.76" xlink:href="#linear-gradient-22"/><linearGradient id="linear-gradient-45" x1="3460.82" y1="128.65" x2="3599.86" y2="128.65" xlink:href="#linear-gradient-8"/><linearGradient id="GradientFill_15-3" x1="99.89" y1="115.67" x2="191.2" y2="115.67" xlink:href="#GradientFill_15"/><linearGradient id="linear-gradient-46" x1="104.02" y1="82.45" x2="186.08" y2="82.45" xlink:href="#linear-gradient-24"/><linearGradient id="linear-gradient-47" x1="3572.85" y1="40.58" x2="3590.67" y2="40.58" xlink:href="#linear-gradient-25"/><linearGradient id="linear-gradient-48" x1="3566.02" y1="55.14" x2="3651.01" y2="55.14" xlink:href="#linear-gradient-26"/><linearGradient id="linear-gradient-49" x1="3566.02" y1="55.14" x2="3651.01" y2="55.14" xlink:href="#linear-gradient-26"/><linearGradient id="linear-gradient-50" x1="3566.03" y1="46.01" x2="3651.01" y2="46.01" xlink:href="#linear-gradient-28"/><linearGradient id="linear-gradient-51" x1="3565.05" y1="61.37" x2="3652.25" y2="61.37" xlink:href="#linear-gradient-10"/><linearGradient id="linear-gradient-52" x1="3200.98" y1="84.82" x2="3331.68" y2="84.82" xlink:href="#linear-gradient-8"/><linearGradient id="linear-gradient-53" x1="3300.8" y1="88.06" x2="3378.31" y2="88.06" xlink:href="#linear-gradient-9"/><linearGradient id="linear-gradient-54" x1="3300.02" y1="88.76" x2="3381.98" y2="88.76" xlink:href="#linear-gradient-10"/><linearGradient id="linear-gradient-56" x1="3300.02" y1="116.51" x2="3382.21" y2="116.51" xlink:href="#linear-gradient-8"/><linearGradient id="linear-gradient-59" x1="3300.02" y1="93.89" x2="3381.99" y2="93.89" xlink:href="#linear-gradient-10"/><linearGradient id="linear-gradient-60" x1="3300.8" y1="90.2" x2="3378.26" y2="90.2" xlink:href="#linear-gradient-16"/><linearGradient id="linear-gradient-61" x1="3300.02" y1="90.2" x2="3381.99" y2="90.2" xlink:href="#linear-gradient-17"/><linearGradient id="linear-gradient-62" x1="3300.8" y1="93.14" x2="3378.26" y2="93.14" xlink:href="#linear-gradient-18"/><linearGradient id="linear-gradient-63" x1="3300.02" y1="93.14" x2="3381.99" y2="93.14" xlink:href="#linear-gradient-19"/><radialGradient id="radial-gradient-5" cx="3341.04" cy="175.04" r="28.24" gradientTransform="matrix(-1, 0, 0, 0.71, 3753.63, 12.49)" xlink:href="#radial-gradient"/><radialGradient id="radial-gradient-6" cx="3341.04" cy="175.04" r="28.24" gradientTransform="matrix(-1, 0, 0, 0.71, 3753.63, 12.49)" xlink:href="#radial-gradient"/><linearGradient id="linear-gradient-64" x1="3300.8" y1="137.71" x2="3378.26" y2="137.71" gradientTransform="matrix(-1, 0, 0, 1, 3753.63, 0)" xlink:href="#linear-gradient-5"/><linearGradient id="linear-gradient-65" x1="3349.73" y1="104.15" x2="3358.81" y2="104.15" xlink:href="#linear-gradient-21"/><linearGradient id="linear-gradient-66" x1="3355.09" y1="104.01" x2="3372.53" y2="104.01" xlink:href="#linear-gradient-22"/><linearGradient id="linear-gradient-67" x1="3202.05" y1="135.16" x2="3332.74" y2="135.16" xlink:href="#linear-gradient-8"/><linearGradient id="GradientFill_15-4" x1="369.59" y1="126.31" x2="456.53" y2="126.31" xlink:href="#GradientFill_15"/><linearGradient id="linear-gradient-68" x1="374.1" y1="104.01" x2="451.29" y2="104.01" xlink:href="#linear-gradient-24"/><linearGradient id="linear-gradient-69" x1="3307.35" y1="76.66" x2="3324.1" y2="76.66" xlink:href="#linear-gradient-25"/><linearGradient id="linear-gradient-70" x1="3300.93" y1="86.33" x2="3380.82" y2="86.33" xlink:href="#linear-gradient-26"/><linearGradient id="linear-gradient-71" x1="3300.93" y1="86.33" x2="3380.82" y2="86.33" xlink:href="#linear-gradient-26"/><linearGradient id="linear-gradient-72" x1="3300.94" y1="80.26" x2="3380.82" y2="80.26" xlink:href="#linear-gradient-28"/><linearGradient id="linear-gradient-73" x1="3300.02" y1="90.47" x2="3381.99" y2="90.47" xlink:href="#linear-gradient-10"/><linearGradient id="linear-gradient-74" x1="496.67" y1="135.49" x2="573.44" y2="135.49" gradientUnits="userSpaceOnUse"><stop offset="0.75" stop-color="#6b8590"/><stop offset="0.97" stop-color="#67828f"/><stop offset="1" stop-color="#66818e"/></linearGradient><linearGradient id="linear-gradient-75" x1="496.67" y1="135.46" x2="573.44" y2="135.46" gradientUnits="userSpaceOnUse"><stop offset="0.75" stop-color="#76909b"/><stop offset="0.92" stop-color="#728d99"/><stop offset="1" stop-color="#6d8896"/></linearGradient><linearGradient id="linear-gradient-76" x1="496.67" y1="135.43" x2="573.44" y2="135.43" gradientUnits="userSpaceOnUse"><stop offset="0.75" stop-color="#819ca6"/><stop offset="0.88" stop-color="#7d99a4"/><stop offset="1" stop-color="#73909f"/></linearGradient><linearGradient id="linear-gradient-77" x1="496.67" y1="135.41" x2="573.44" y2="135.41" gradientUnits="userSpaceOnUse"><stop offset="0.75" stop-color="#8ca7b1"/><stop offset="0.87" stop-color="#88a4af"/><stop offset="0.97" stop-color="#7d9ba9"/><stop offset="1" stop-color="#7998a7"/></linearGradient><linearGradient id="linear-gradient-78" x1="496.67" y1="135.38" x2="573.44" y2="135.38" gradientUnits="userSpaceOnUse"><stop offset="0.75" stop-color="#97b3bc"/><stop offset="0.86" stop-color="#93b0ba"/><stop offset="0.95" stop-color="#88a7b5"/><stop offset="1" stop-color="#7fa0b0"/></linearGradient><linearGradient id="linear-gradient-79" x1="496.67" y1="135.35" x2="573.44" y2="135.35" gradientUnits="userSpaceOnUse"><stop offset="0.75" stop-color="#a3bec8"/><stop offset="0.85" stop-color="#9fbbc6"/><stop offset="0.93" stop-color="#94b2c0"/><stop offset="1" stop-color="#86a7b8"/></linearGradient><linearGradient id="linear-gradient-80" x1="496.67" y1="135.32" x2="573.44" y2="135.32" gradientUnits="userSpaceOnUse"><stop offset="0.75" stop-color="#aecad3"/><stop offset="0.84" stop-color="#aac7d1"/><stop offset="0.92" stop-color="#9fbecb"/><stop offset="1" stop-color="#8cafc1"/><stop offset="1" stop-color="#8cafc1"/></linearGradient><linearGradient id="linear-gradient-81" x1="496.67" y1="135.3" x2="573.44" y2="135.3" gradientUnits="userSpaceOnUse"><stop offset="0.75" stop-color="#b9d5de"/><stop offset="0.83" stop-color="#b5d2dc"/><stop offset="0.91" stop-color="#aacad6"/><stop offset="0.98" stop-color="#97bbcc"/><stop offset="1" stop-color="#92b7c9"/></linearGradient><linearGradient id="linear-gradient-82" x1="496.67" y1="135.27" x2="573.44" y2="135.27" gradientUnits="userSpaceOnUse"><stop offset="0.75" stop-color="#c4e1e9"/><stop offset="0.83" stop-color="#c0dee7"/><stop offset="0.9" stop-color="#b5d5e1"/><stop offset="0.97" stop-color="#a2c7d7"/><stop offset="1" stop-color="#98bfd2"/></linearGradient><linearGradient id="linear-gradient-83" x1="496.67" y1="135.24" x2="573.44" y2="135.24" gradientUnits="userSpaceOnUse"><stop offset="0.75" stop-color="#cfecf4"/><stop offset="0.83" stop-color="#cbe9f2"/><stop offset="0.9" stop-color="#c0e0ec"/><stop offset="0.96" stop-color="#add1e2"/><stop offset="1" stop-color="#9fc6da"/></linearGradient><linearGradient id="linear-gradient-84" x1="496.67" y1="135.21" x2="573.44" y2="135.21" gradientTransform="matrix(1, 0, 0, 1, 0, 0)" xlink:href="#linear-gradient-26"/><linearGradient id="linear-gradient-85" x1="534.63" y1="126.14" x2="534.63" y2="96.15" gradientUnits="userSpaceOnUse"><stop offset="0" stop-color="#a5cee3"/><stop offset="0.06" stop-color="#a7cfe3"/><stop offset="0.51" stop-color="#b2d3e3"/><stop offset="1" stop-color="#b6d4e3"/></linearGradient><linearGradient id="linear-gradient-86" x1="535.05" y1="96.88" x2="535.05" y2="124.36" gradientUnits="userSpaceOnUse"><stop offset="0.66" stop-color="#d1f6ff"/><stop offset="0.76" stop-color="#cdf3fd"/><stop offset="0.86" stop-color="#c2e8f6"/><stop offset="0.96" stop-color="#afd7ea"/><stop offset="1" stop-color="#a5cee3"/></linearGradient><clipPath id="clip-path"><path class="cls-1" d="M502.69,124.06a6.61,6.61,0,0,1-5.14-2.09,4.07,4.07,0,0,1-.93-3.41l3-17c.42-2.4,3.5-4.36,6.87-4.36h57.17c3.37,0,6.45,2,6.87,4.36l3,17a4.07,4.07,0,0,1-.93,3.41,6.61,6.61,0,0,1-5.13,2.09Z"/></clipPath><linearGradient id="GradientFill_15-5" x1="494.12" y1="122.44" x2="575.18" y2="122.44" xlink:href="#GradientFill_15"/><linearGradient id="linear-gradient-87" x1="0.3" y1="78.43" x2="54.57" y2="78.43" xlink:href="#linear-gradient-5"/><radialGradient id="radial-gradient-7" cx="26.96" cy="139.1" r="19.17" gradientTransform="matrix(1, 0, 0, 1, 0, 0)" xlink:href="#radial-gradient"/><linearGradient id="GradientFill_43" x1="11.5" y1="17.57" x2="45.06" y2="17.57" gradientUnits="userSpaceOnUse"><stop offset="0" stop-color="#0060a1"/><stop offset="0.27" stop-color="#39a6dd"/><stop offset="1" stop-color="#0e1e62"/></linearGradient><linearGradient id="GradientFill_44" x1="10.49" y1="9.03" x2="46.17" y2="9.03" gradientUnits="userSpaceOnUse"><stop offset="0" stop-color="#0094d9"/><stop offset="0.27" stop-color="#6dcef5"/><stop offset="1" stop-color="#0071bb"/></linearGradient><linearGradient id="GradientFill_45" x1="10.49" y1="10.09" x2="46.17" y2="10.09" gradientUnits="userSpaceOnUse"><stop offset="0" stop-color="#0071bb"/><stop offset="0.33" stop-color="#00adee"/><stop offset="1" stop-color="#034ea1"/></linearGradient><linearGradient id="GradientFill_46" x1="27.55" y1="3.97" x2="28.07" y2="9.87" gradientUnits="userSpaceOnUse"><stop offset="0" stop-color="#00adee"/><stop offset="1" stop-color="#a2ddf8"/></linearGradient><linearGradient id="GradientFill_15-6" x1="0.3" y1="92.49" x2="54.57" y2="92.49" xlink:href="#GradientFill_15"/><linearGradient id="GradientFill_15-7" x1="41.18" y1="9.15" x2="42.86" y2="9.15" xlink:href="#GradientFill_15"/><linearGradient id="GradientFill_15-8" x1="1.18" y1="139.1" x2="52.74" y2="139.1" xlink:href="#GradientFill_15"/><linearGradient id="GradientFill_15-9" x1="11.5" y1="17.57" x2="45.06" y2="17.57" xlink:href="#GradientFill_15"/><linearGradient id="GradientFill_15-10" x1="10.49" y1="9.03" x2="46.17" y2="9.03" xlink:href="#GradientFill_15"/><linearGradient id="GradientFill_15-11" x1="10.49" y1="10.09" x2="46.17" y2="10.09" xlink:href="#GradientFill_15"/><linearGradient id="GradientFill_15-12" x1="11.36" y1="2.31" x2="43.42" y2="2.31" xlink:href="#GradientFill_15"/><linearGradient id="GradientFill_15-13" x1="27.55" y1="3.97" x2="28.07" y2="9.87" xlink:href="#GradientFill_15"/><linearGradient id="GradientFill_15-14" x1="1.57" y1="124.35" x2="53.25" y2="124.35" xlink:href="#GradientFill_15"/><linearGradient id="GradientFill_15-15" x1="1.18" y1="90.36" x2="14.7" y2="90.36" xlink:href="#GradientFill_15"/><linearGradient id="linear-gradient-88" x1="9.66" y1="35.94" x2="45.22" y2="35.94" xlink:href="#linear-gradient-24"/></defs><title>static-litre</title><rect y="131.43" width="676.02" height="17.44"/><polygon class="cls-2" points="667.1 12.85 676.02 24.81 676.02 137.74 663.5 148.88 615.22 145.44 615.22 29.98 626.05 11.99 626.09 2.21 665.66 2.68 667.15 2.8 667.1 12.85"/><polygon class="cls-3" points="663.29 148.28 675.44 137.48 675.44 128.19 675.44 25.33 663.29 32.67 663.29 132.83 663.29 148.28"/><polygon class="cls-4" points="615.9 144.76 663.04 148.27 662.89 32.59 615.96 30.3 615.9 144.76"/><polygon class="cls-5" points="615.98 30.04 626.93 12.16 665.15 13.07 662.79 32.17 615.98 30.04"/><path class="cls-6" d="M640.75,13.9A5.6,5.6,0,0,1,644.28,15a4.18,4.18,0,0,1,.32.34.81.81,0,0,1,.24.19c.2.23,2,2.72,2.1,3a4.73,4.73,0,0,1,.4,3.39,7.41,7.41,0,0,1-2.84,4.14,8.33,8.33,0,0,1-4.93,1.71,5.35,5.35,0,0,1-4.14-1.71,14.31,14.31,0,0,1-2-2.82h0a4.72,4.72,0,0,1-.46-3.5A8.2,8.2,0,0,1,640.75,13.9Z"/><polygon class="cls-7" points="665.14 12.52 665.26 3.61 626.85 2.98 626.95 11.58 665.14 12.52"/><path class="cls-8" d="M652.95,8.5l0-1.74a1,1,0,0,0-.88-1l-12.62-.1a.84.84,0,0,0-.65.27,1,1,0,0,0-.26.7l0,1.49a1,1,0,0,0,.88,1L652,9.45a.83.83,0,0,0,.64-.26A1,1,0,0,0,652.95,8.5Z"/><polygon class="cls-9" points="675.44 25 663.29 32.19 665.51 13.18 665.63 3.26 666.57 3.35 666.52 13.04 675.44 25"/><polygon class="cls-10" points="666.35 3.55 666.31 13.06 674.35 24.61 664.17 30.52 665.84 13.19 665.85 3.51 666.35 3.55"/><polygon class="cls-11" points="664.77 24.23 674.35 24.61 664.17 30.52 664.77 24.23"/><path class="cls-12" d="M644.67,15.68c.2.23,1.91,2.65,2.05,2.92a4.62,4.62,0,0,1,.39,3.31,7.24,7.24,0,0,1-2.77,4,8.14,8.14,0,0,1-4.82,1.68,5.23,5.23,0,0,1-4-1.68,14,14,0,0,1-1.95-2.75C632.77,20.46,643,13.79,644.67,15.68Z"/><path class="cls-13" d="M644.67,15.68v0l0,0,0,0Zm.45.61h0c.44.62,1.09,1.53,1.41,2l-.73-.9-.33-.41a4.47,4.47,0,0,0-.34-.7Zm1.91,3h0l-1.39-1.7a4.7,4.7,0,0,1,.09.58L647.2,20a4.59,4.59,0,0,0-.16-.67Zm.21,1.16h0a4.89,4.89,0,0,1,0,.5l-1.52-1.87q0-.24,0-.47l1.49,1.84Zm0,.92h0c0,.15,0,.3-.08.45l-1.55-1.91,0-.16.05-.26,1.54,1.89Zm-.18.83h0l-1.57-1.92c0,.13-.09.27-.15.4l1.58,1.94c.05-.14.1-.27.14-.41Zm-.28.77h0l-1.59-1.95-.2.39,1.59,2c.07-.13.13-.26.19-.4Zm-.39.74h0l-1.6-2-.26.37,1.61,2,.25-.38Zm-.5.72h0l-.31.37-1.62-2,.32-.36,1.62,2Zm-.61.69h0l-.38.36-1.64-2,.38-.35,1.63,2Zm-.63.58h0l-.28.22-.13.1-1.65-2,.42-.31,1.64,2Zm-.77.56h0l-1.65-2-.42.24,1.66,2,.41-.25Zm-.77.44h0l-1.67-2-.41.18,1.67,2.06.41-.19Zm-.76.34h0l-.4.15-1.69-2.07.41-.14,1.68,2.06Zm-.75.25h0l-.39.1-1.7-2.09.4-.09,1.69,2.08Zm-.74.17h0l-1.71-2.1-.4.05,1.72,2.11.39-.06Zm-.74.1h0l-1.72-2.12H638l1.73,2.13.39,0Zm-.74,0h0l-.4,0-1.76-2.16.41,0,1.74,2.14Zm-.76-.06h0l-.42-.08-1.79-2.2.44.1,1.77,2.18Zm-.8-.17h0l-1.69-2.08-.13-.16a5.22,5.22,0,0,1-.51-.21l.44.54,1.43,1.75.46.16Zm-.91-.36h0l-1.15-1.41-.8-1a4.37,4.37,0,0,1-1.39-1.44h0a1.4,1.4,0,0,0,.1.24l1.9,2.33.72.88A4.93,4.93,0,0,0,636.87,27Z"/><path class="cls-14" d="M640.68,14.06c3.46,0,5.67,2.56,4.94,5.71A8,8,0,0,1,638,25.49c-3.46,0-5.67-2.56-4.94-5.72A8,8,0,0,1,640.68,14.06Z"/><path class="cls-15" d="M640.68,14.06a5.48,5.48,0,0,1,3.45,1.11,4.44,4.44,0,0,1,1.2,4.36,8,8,0,0,1-7.59,5.72,5.48,5.48,0,0,1-3.45-1.11,4.44,4.44,0,0,1-1.2-4.35A8,8,0,0,1,640.68,14.06Z"/><polygon class="cls-16" points="615.22 42.75 615.22 143.49 663.5 148.88 676.02 131.38 675.44 38.19 663.04 44.81 615.22 42.75"/><path d="M634.69,137.37h0l-1,.53-.15-.58,1.24-.66h.65v5.67h-.74Z"/><path d="M639.6,136.13h.77v6.2h-.77Z"/><path d="M642.52,136.91a.48.48,0,0,1-1,0,.47.47,0,0,1,.48-.48A.46.46,0,0,1,642.52,136.91Zm-.86,5.41V138.1h.77v4.22Z"/><path d="M644.63,136.88v1.21h1.1v.58h-1.1V141c0,.52.15.82.58.82a1.69,1.69,0,0,0,.44-.05l0,.58a1.87,1.87,0,0,1-.68.11,1.07,1.07,0,0,1-.83-.32,1.57,1.57,0,0,1-.3-1.1v-2.3h-.65v-.58h.65v-1Z"/><path d="M646.59,139.42c0-.5,0-.92,0-1.32h.67l0,.83h0a1.27,1.27,0,0,1,1.17-.93.82.82,0,0,1,.22,0v.72a1.14,1.14,0,0,0-.26,0,1.08,1.08,0,0,0-1,1,2.14,2.14,0,0,0,0,.36v2.25h-.76Z"/><path d="M649.79,140.35a1.35,1.35,0,0,0,1.45,1.47,2.77,2.77,0,0,0,1.17-.22l.13.55a3.41,3.41,0,0,1-1.41.26,2,2,0,0,1-2.08-2.13,2.05,2.05,0,0,1,2-2.28,1.79,1.79,0,0,1,1.75,2,2.86,2.86,0,0,1,0,.36Zm2.25-.55a1.09,1.09,0,0,0-1.06-1.25,1.27,1.27,0,0,0-1.18,1.25Z"/><path class="cls-17" d="M336.08,60c0-10.24-3.8-17.93-8.85-22.22a9.72,9.72,0,0,0-.91-.68,4.56,4.56,0,0,0-.49-.33l-.35-.2a35.17,35.17,0,0,0-9.1-3.86,7.23,7.23,0,0,0-1.6-.27h-.48a17.24,17.24,0,0,0-8.08,2.66,65,65,0,0,0-11.45,8.84c-1.56,1.47-2.87,2.79-3.79,3.74l-1.06,1.13-.22.24a.78.78,0,0,0-.13.2h0a2.81,2.81,0,0,0-.18.62,5.68,5.68,0,0,0-.09,1,4.62,4.62,0,0,0,1.53,3.57,9,9,0,0,0,6,2.29,6.93,6.93,0,0,0,1.44-.14l.09,0,.1,0a.78.78,0,0,0,.35-.21,62.76,62.76,0,0,1,6.31-5.67l.14-.11a39.41,39.41,0,0,1,6.13-4,16.18,16.18,0,0,1,6.11-1.9l.25.29c2.74,2.91,4.48,8.21,4.48,14.83h0v0c0,10.3-4.15,23.77-14.77,36.44v0l-.73.87h-.1l-.08.22a8,8,0,0,0-1.48,4.93h0c0,2.35.78,5.49,3.33,9.39a.78.78,0,0,0,.3.27l5.38,2.78a.81.81,0,0,0,1.16-.72.79.79,0,0,0,0-.12c-.09-.57-.36-2.09-.48-3.06a6.74,6.74,0,0,1-.07-.69h0c0-3,1.19-4.16,1.21-4.19h0l0,0h0c14.67-17.77,20-33.32,20.18-45.4h0v-.45s0,0,0,0ZM312.6,99.66l0,0h0a7.35,7.35,0,0,0-1.44,4.71,23,23,0,0,0,3,9.8.32.32,0,0,0,.28.16l.11,0a.32.32,0,0,0,.11-.07.33.33,0,0,0,.08-.11.32.32,0,0,1-.08.11l0,0a.32.32,0,0,1-.35,0l-5.38-2.78a.32.32,0,0,1-.12-.11c-2.52-3.84-3.26-6.88-3.26-9.13a7.35,7.35,0,0,1,1.44-4.71h0c11.29-13,15.69-27,15.69-37.7,0-6.72-1.74-12.13-4.6-15.18l-.38-.45H318a7.24,7.24,0,0,1,4.64,1.56c3.48,2.77,5.65,8.65,5.65,16.15C328.29,72.65,323.89,86.63,312.6,99.66Z"/><path class="cls-18" d="M320.9,36c-5.49,0-11.76,4.07-16.68,8.12a82.27,82.27,0,0,0-6.08,5.58c-.75.76-1.35,1.39-1.76,1.84l-.57.63a.32.32,0,0,0-.07.13h0a.32.32,0,0,0-.22-.09,7.5,7.5,0,0,1-4.16-1.85,6.74,6.74,0,0,1-1-.88.32.32,0,0,0-.34-.08l0,0a.32.32,0,0,1,.06-.09l.22-.24L291.28,48c.91-1,2.21-2.27,3.77-3.73a64.55,64.55,0,0,1,11.36-8.77,16.81,16.81,0,0,1,7.85-2.6h0a7,7,0,0,1,1.94.26,34.7,34.7,0,0,1,9,3.82,7.09,7.09,0,0,1,.81.51A9,9,0,0,0,320.93,36Z"/><path class="cls-19" d="M295.74,52.36a.32.32,0,0,1,.08.22,5.26,5.26,0,0,0,1.2,2.6,9.58,9.58,0,0,0,.82.74,2.34,2.34,0,0,1,.3.25.32.32,0,0,0,.25-.1,63.12,63.12,0,0,1,6.5-5.83h0c3.76-2.91,8.53-5.82,12.73-6H318a7.24,7.24,0,0,1,4.64,1.56c3.48,2.77,5.65,8.65,5.65,16.15,0,10.68-4.4,24.67-15.69,37.7l0,0h0a7.35,7.35,0,0,0-1.44,4.71,23,23,0,0,0,3,9.8.32.32,0,0,0,.28.16l.11,0a.32.32,0,0,0,.21-.35c-.12-.75-.55-3.21-.55-3.82h0c0-3.09,1.26-4.42,1.34-4.51l0,0C330.31,87.68,335.58,72.05,335.58,60h0s0,0,0,0h0c0-10.13-3.75-17.69-8.69-21.88a9.25,9.25,0,0,0-.88-.66A9,9,0,0,0,320.93,36h0c-5.49,0-11.76,4.07-16.68,8.12a82.27,82.27,0,0,0-6.08,5.58c-.75.76-1.35,1.39-1.76,1.84l-.57.63a.32.32,0,0,0-.07.13Zm16.8,47.4,0,0Z"/><path class="cls-20" d="M289.94,49.48h0l0,0a.32.32,0,0,1,.34.08,6.74,6.74,0,0,0,1,.88,7.5,7.5,0,0,0,4.16,1.85.32.32,0,0,1,.22.09h0v0a.32.32,0,0,1,.08.22,5.26,5.26,0,0,0,1.2,2.6,9.58,9.58,0,0,0,.82.74,2.34,2.34,0,0,1,.3.25s0,0,0,0a8.3,8.3,0,0,1-7-2A4.52,4.52,0,0,1,289.94,49.48Z"/><path class="cls-21" d="M310.19,40.22a22.84,22.84,0,0,1,10.49-3.67h0a.46.46,0,0,0,.44-.48h0a.46.46,0,0,0-.48-.44h0a23.73,23.73,0,0,0-10.93,3.8h0a.46.46,0,0,0-.15.64h0a.46.46,0,0,0,.4.22h0a.46.46,0,0,0,.24-.07Z"/><path class="cls-17" d="M326.29,76.11a45.1,45.1,0,0,0,2.31-13.77h0c0-9.95-4.06-15.06-4.09-15.09h0a.28.28,0,0,0-.39,0h0a.28.28,0,0,0,0,.39h0l0,.05h0l.12.17h0c.11.15.26.38.45.69h0a19.72,19.72,0,0,1,1.36,2.78h0a29.46,29.46,0,0,1,2,11.06h0a44.54,44.54,0,0,1-2.29,13.6h0a.28.28,0,0,0,.18.35H326a.28.28,0,0,0,.26-.19Z"/><path class="cls-22" d="M322.56,57.7v0l0,.09Z"/><path class="cls-23" d="M323,56.65a9.21,9.21,0,0,0,.4-1.28l-.2,5.66a9.67,9.67,0,0,1-.79,1.2l.16-4.52A5.8,5.8,0,0,0,323,56.65Z"/><path class="cls-24" d="M321,45.92a10.37,10.37,0,0,1,2,3,9.33,9.33,0,0,1,.18,7.53.32.32,0,1,1-.59-.24,8.59,8.59,0,0,0-.16-7,9.93,9.93,0,0,0-1.89-2.8.32.32,0,0,1,.44-.46Z"/><path class="cls-25" d="M312.18,38.67s6.29-4.74,12.28-1.57a11.21,11.21,0,0,0-7.08.41l2-1.12A16.31,16.31,0,0,0,312.18,38.67Z"/><path class="cls-20" d="M289.94,49.48h0l0,0a.32.32,0,0,1,.34.08,6.74,6.74,0,0,0,1,.88,7.5,7.5,0,0,0,4.16,1.85.32.32,0,0,1,.22.09h0v0a.32.32,0,0,1,.08.22,5.26,5.26,0,0,0,1.2,2.6,9.58,9.58,0,0,0,.82.74,2.34,2.34,0,0,1,.3.25s0,0,0,0a8.3,8.3,0,0,1-7-2A4.52,4.52,0,0,1,289.94,49.48Z"/><path class="cls-26" d="M236.32,52.45a8,8,0,0,0-.08,1.11c0,1.65.93,8.16,9.72,12.1,4.8,2.15-7.54,17.06,18.69,5.21A98.43,98.43,0,0,0,279.93,72a95,95,0,0,0,19.68-2c13.9-2.46,22.21-9.27,23.39-13.4a9.21,9.21,0,0,0,.4-1.28l-2.68,75.93h0c0,9.59-18.41,17.37-41.13,17.37s-41.13-7.78-41.13-17.37c0-.64-2.47-78.86-2.47-78.86Z"/><path class="cls-22" d="M322.56,57.7v0l0,.09Z"/><path class="cls-27" d="M316,136.44A7.76,7.76,0,0,0,316,124V69.27l.17-.1a5.6,5.6,0,0,0,2.33-3.28,23.71,23.71,0,0,0,2-1.65,15.83,15.83,0,0,0,1.85-2L320,129.76h0c0,2.63-1.42,5.12-3.94,7.35Z"/><path class="cls-27" d="M241.11,133.34c3.58,7.31,19.52,12.83,38.64,12.83a82.85,82.85,0,0,0,23.7-3.21v.54a82,82,0,0,1-23.75,3.27c-19.63,0-36-5.93-39.55-13.77Z"/><path class="cls-23" d="M323,56.65a9.21,9.21,0,0,0,.4-1.28l-.2,5.66a9.67,9.67,0,0,1-.79,1.2l.16-4.52A5.8,5.8,0,0,0,323,56.65Z"/><path class="cls-28" d="M315.56,64.79a38.87,38.87,0,0,1-6.16,3.16l-.12,2.8a53.25,53.25,0,0,1-9.41,2.51,98.51,98.51,0,0,1-20,2,102.68,102.68,0,0,1-14.75-1,24.85,24.85,0,0,0,0-3.3A98,98,0,0,0,280,72a94.44,94.44,0,0,0,19.62-2c12.63-2.24,20.64-8.1,22.84-12.25a10.28,10.28,0,0,1-1.4,2.23A23,23,0,0,1,315.56,64.79Z"/><path class="cls-29" d="M320.55,64.24c.18-1.76.37-3.13.56-4.2a10.28,10.28,0,0,0,1.4-2.23l0-.09-.16,4.52A15.83,15.83,0,0,1,320.55,64.24Z"/><path class="cls-30" d="M320.55,64.24c.18-1.76.37-3.13.56-4.2a10.28,10.28,0,0,0,1.4-2.23l0-.09-.16,4.52A15.83,15.83,0,0,1,320.55,64.24Z"/><path class="cls-31" d="M315.56,64.79A23,23,0,0,0,321.11,60c-.19,1.07-.38,2.44-.56,4.2a34.46,34.46,0,0,1-11.28,6.51l.12-2.8A38.87,38.87,0,0,0,315.56,64.79Z"/><path class="cls-32" d="M315.56,64.79A23,23,0,0,0,321.11,60c-.19,1.07-.38,2.44-.56,4.2a34.46,34.46,0,0,1-11.28,6.51l.12-2.8A38.87,38.87,0,0,0,315.56,64.79Z"/><path class="cls-33" d="M307.06,120.23c0,9.4-18,17-40.29,17a79.56,79.56,0,0,1-25.66-3.9,7,7,0,0,1-.75-3.11c0-8.8,17.63-15.94,39.39-15.94,10.65,0,20.31,1.71,27.41,4.49l-.06,1.46Z"/><path class="cls-34" d="M280.12,114c2.34,0,4.64.08,6.87.24q-2.36-.11-4.81-.12c-22.24,0-40.27,7.3-40.27,16.3,0,8.05,14.43,14.74,33.4,16.06-20-1-35.47-7.84-35.47-16.18C239.84,121.35,257.87,114,280.12,114Z"/><path class="cls-35" d="M319.14,130.23c0,8.8-17.64,15.94-39.39,15.94-19.12,0-35.06-5.51-38.64-12.83a79.56,79.56,0,0,0,25.66,3.9c22.25,0,40.29-7.62,40.29-17h0l.06-1.46C314.55,121.67,319.14,125.73,319.14,130.23Z"/><path class="cls-36" d="M319.14,130.23c0,8.8-17.64,15.94-39.39,15.94-19.12,0-35.06-5.51-38.64-12.83a79.56,79.56,0,0,0,25.66,3.9c22.25,0,40.29-7.62,40.29-17h0l.06-1.46C314.55,121.67,319.14,125.73,319.14,130.23Z"/><path class="cls-37" d="M264.29,71.56s1.07,6.77-3.44,20.06a16.07,16.07,0,0,0,7.48.47c3.44-.83,1.78-19,1.78-19.58S264.29,71.56,264.29,71.56Z"/><path class="cls-38" d="M264.8,71.9s0,15.8-4,19.72c0,0-9.5-1.19-14.6-17.57C246.25,74,248.27,79.39,264.8,71.9Z"/><path d="M323.93,52.42l-2.79,79.09h0c-.14,4.65-4.45,9-12.18,12.26s-18.16,5.11-29.18,5.11-21.38-1.81-29.17-5.11-12.19-7.76-12.19-12.5c0-.63-2.44-78.07-2.47-78.85h.47c.1,3.19,2.47,78.23,2.47,78.86a9.36,9.36,0,0,0,3.16,6.59,27.41,27.41,0,0,0,8.74,5.47c7.74,3.27,18,5.07,29,5.07s21.25-1.8,29-5.07a27.41,27.41,0,0,0,8.74-5.47,9.36,9.36,0,0,0,3.16-6.59V131h0l2.77-78.63Z"/><path class="cls-34" d="M319,134.79a.4.4,0,0,1,.1.55c-2.35,3.37-7,6.34-13.35,8.59a.4.4,0,0,1-.26-.75c6.22-2.19,10.71-5.06,13-8.29A.4.4,0,0,1,319,134.79Z"/><path class="cls-34" d="M242.49,136.79c3.84,3.61,10.61,6.58,19.05,8.35a.4.4,0,0,1-.16.77c-8.59-1.8-15.49-4.84-19.43-8.55a.4.4,0,1,1,.54-.58Z"/><path class="cls-21" d="M237.74,62.58l2.14,69.57a.4.4,0,0,1-.79,0L236.95,62.6a.4.4,0,0,1,.79,0Z"/><path class="cls-34" d="M262.84,71.1a.24.24,0,0,1-.11.32c-.36.17-8.91,4.18-14.14,3.46a.24.24,0,0,1,.06-.47c5.09.69,13.79-3.38,13.87-3.42A.24.24,0,0,1,262.84,71.1Z"/><path class="cls-24" d="M316.12,63.47a.24.24,0,0,1-.06.33,40.59,40.59,0,0,1-8.81,4,84.4,84.4,0,0,1-26.45,4,.24.24,0,0,1,0-.47,84,84,0,0,0,26.28-4,40.21,40.21,0,0,0,8.72-3.91A.24.24,0,0,1,316.12,63.47Z"/><path class="cls-39" d="M320.53,72a48.44,48.44,0,0,0,1.61-9.36l.32-.4-1.3,36.93q-.77,1.07-1.58,2.15Z"/><path class="cls-40" d="M319.57,101.32q-1.57,2.08-3.3,4.2l.79-24.11A58.23,58.23,0,0,0,320.53,72Z"/><path class="cls-41" d="M288.81,125.25h0l0,0a.32.32,0,0,1,.34.08,6.74,6.74,0,0,0,1,.88,7.5,7.5,0,0,0,4.16,1.85.32.32,0,0,1,.22.09h0v0a.32.32,0,0,1,.08.22,5.26,5.26,0,0,0,1.2,2.6,9.58,9.58,0,0,0,.82.74,2.34,2.34,0,0,1,.3.25s0,0,0,0a8.3,8.3,0,0,1-7-2A4.52,4.52,0,0,1,288.81,125.25Z"/><path class="cls-24" d="M320.37,45.92a10.37,10.37,0,0,1,2,3,9.33,9.33,0,0,1,.18,7.53.32.32,0,1,1-.59-.24,8.59,8.59,0,0,0-.16-7,9.93,9.93,0,0,0-1.89-2.8.32.32,0,0,1,.44-.46Z"/><path class="cls-42" d="M237.27,82.45c.08,2.57,1.12,48.73,1.12,48.82,0,4.74,4.33,9.18,12.19,12.5s18.16,5.11,29.17,5.11,21.38-1.81,29.18-5.11,12-7.61,12.18-12.26h0l1.31-49.05Z"/><ellipse class="cls-43" cx="279.86" cy="82.45" rx="42.55" ry="6.49"/><path class="cls-44" d="M279.86,87.49c-24.12,0-39.28-2.93-41-5,1.74-2.11,16.9-5,41-5s39.28,2.93,41,5C319.14,84.56,304,87.49,279.86,87.49Z"/><rect x="267.06" y="141.93" width="8.1" height="0.79"/><rect x="267.06" y="134.79" width="8.1" height="0.79"/><rect x="267.06" y="127.65" width="8.1" height="0.79"/><rect x="267.06" y="120.51" width="8.1" height="0.79"/><rect x="267.06" y="113.37" width="11.97" height="0.79"/><rect x="267.06" y="106.24" width="8.1" height="0.79"/><rect x="267.06" y="99.1" width="8.1" height="0.79"/><rect x="267.06" y="91.96" width="8.1" height="0.79"/><rect x="267.06" y="84.82" width="8.1" height="0.79"/><rect x="267.06" y="77.68" width="11.97" height="0.79"/><path class="cls-45" d="M315.59,44.39a15,15,0,0,0-3.24.9A53.81,53.81,0,0,0,297.77,40c.77-.64,1.57-1.28,2.39-1.9,17.22,4.13-19.14-9,9.21,3A34.48,34.48,0,0,1,315.59,44.39Z"/><path class="cls-46" d="M317.62,43.66s-5.79-4.69-20.1-7.27c0,0,11.1,2,20.1,8.08Z"/><path class="cls-47" d="M310.41,41.34a28.36,28.36,0,0,1,9,5.65c2.08,2.08,3.13,4.25,3.13,6.46h0a7.3,7.3,0,0,1-.55,2.71l0,0v.05c-.44,1.54-2.37,4.11-6.49,6.74a44.12,44.12,0,0,1-16.09,5.93h0a93.33,93.33,0,0,1-19.46,2,97.29,97.29,0,0,1-15.12-1.15l-.3,0-.28.13A61.17,61.17,0,0,1,253,74c-2.59.56-3.71.27-4.2-.08-.85-.59-.73-2.22-.61-3.8.15-2,.34-4.5-1.79-5.46a16.07,16.07,0,0,1-7.68-6.49,10,10,0,0,1-1.43-4.68c0-2.21,1.05-4.39,3.13-6.46a28.36,28.36,0,0,1,9-5.65c8.13-3.44,19-5.33,30.49-5.33S302.29,37.9,310.41,41.34Z"/><path class="cls-48" d="M299.35,68.79h0a44,44,0,0,0,16-5.91c4.08-2.6,6-5.14,6.42-6.65l0-.06,0-.06a7.14,7.14,0,0,0,.54-2.65c0-2.17-1-4.3-3.08-6.35a28.2,28.2,0,0,0-9-5.62c-8.11-3.43-18.91-5.32-30.43-5.32s-22.32,1.89-30.43,5.32a28.21,28.21,0,0,0-9,5.62c-2,2-3.09,4.18-3.09,6.35a9.78,9.78,0,0,0,1.41,4.6,15.92,15.92,0,0,0,7.61,6.42c2.23,1,2,3.56,1.89,5.61-.12,1.53-.24,3.12.54,3.66.46.32,1.54.59,4.07.05a61,61,0,0,0,11.21-4.12l.32-.15.35.06a97.12,97.12,0,0,0,15.1,1.15A93.17,93.17,0,0,0,299.35,68.79Z"/><path class="cls-49" d="M237.92,55.94c0-.17,0-.29,0-.36,0-2.17,1-4.3,3.09-6.35a28.21,28.21,0,0,1,9-5.62c8.11-3.43,18.91-5.32,30.43-5.32s22.32,1.89,30.43,5.32a28.2,28.2,0,0,1,9,5.62,11,11,0,0,1,2.6,3.8,9.27,9.27,0,0,0-3.08-6,28.2,28.2,0,0,0-9-5.62c-8.11-3.43-18.91-5.32-30.43-5.32S257.61,38,249.5,41.39a28.21,28.21,0,0,0-9,5.62c-2,2-3.09,4.18-3.09,6.35A8.42,8.42,0,0,0,237.92,55.94Z"/><path class="cls-50" d="M236.56,52.45a8,8,0,0,0-.08,1.11c0,1.65.93,8.16,9.69,12.1a2.06,2.06,0,0,1,1.17,1.61,25.2,25.2,0,0,0-1,3,2,2,0,0,0-1.15-1.43c-5-2.2-7.5-5.21-8.74-7.72l-.27-8.69Z"/><path class="cls-51" d="M279.93,33.86c-11.82,0-23,2-31.35,5.5-8.72,3.69-13.52,8.71-13.52,14.15,0,.87.29,8.64,10.42,13.19.66.3.62,1.49.49,3.27-.15,2-.34,4.46,1.54,5.78,1.27.89,3.15,1,5.93.43a61.09,61.09,0,0,0,11.37-4.13,99.69,99.69,0,0,0,15.11,1.13,95.56,95.56,0,0,0,19.9-2,46.34,46.34,0,0,0,16.88-6.24c4-2.52,6.64-5.4,7.4-7.91a9.49,9.49,0,0,0,.7-3.5c0-5.44-4.8-10.47-13.52-14.15C302.88,35.82,291.75,33.86,279.93,33.86Zm0,36.95a97.12,97.12,0,0,1-15.1-1.15l-.35-.06-.32.15a61,61,0,0,1-11.21,4.12c-2.53.54-3.61.27-4.07-.05-.77-.54-.66-2.13-.54-3.66.16-2.06.35-4.61-1.89-5.61a15.92,15.92,0,0,1-7.61-6.42,9.78,9.78,0,0,1-1.41-4.6c0-2.17,1-4.3,3.09-6.35a28.21,28.21,0,0,1,9-5.62c8.11-3.43,18.91-5.32,30.43-5.32s22.32,1.89,30.43,5.32a28.2,28.2,0,0,1,9,5.62c2,2,3.08,4.18,3.08,6.35a7.14,7.14,0,0,1-.54,2.65l0,.06,0,.06c-.43,1.51-2.34,4-6.42,6.65a44,44,0,0,1-16,5.91h0A93.17,93.17,0,0,1,279.93,70.81Z"/><path class="cls-24" d="M293.77,35.48a.24.24,0,0,1-.09.47,88.53,88.53,0,0,0-17.28-1,84.82,84.82,0,0,0-16.63,2.17,62,62,0,0,0-17.56,7,.24.24,0,0,1-.24-.41,62.52,62.52,0,0,1,17.7-7,85.31,85.31,0,0,1,16.73-2.18A89,89,0,0,1,293.77,35.48Z"/><path class="cls-21" d="M236.14,56.18c.7,1.77,2.62,5.2,7.61,8.24a.24.24,0,1,1-.25.41c-5.12-3.12-7.09-6.65-7.81-8.48a.24.24,0,1,1,.44-.17Z"/><path class="cls-52" d="M236.24,52.83c0,.65.22,5.87,6.59,9.81-5.35-3.83-5.55-8.51-5.55-9.12,0-9.45,19.53-17.43,42.64-17.43,14.84,0,28.19,3.29,35.86,8.15-7.45-5.24-21.36-8.84-36.9-8.84C255.77,35.4,236.24,43.38,236.24,52.83Zm11,22.47a3.39,3.39,0,0,0,.39.34c2.43,1.7,7.61.57,17.21-3.74A99.55,99.55,0,0,0,279.93,73a95.41,95.41,0,0,0,19.86-2c14.66-2.6,23-9.83,24.17-14a9.36,9.36,0,0,0,.69-3.48c0-4.19-2.89-8-7.84-11.17,4.32,3,6.8,6.59,6.8,10.48a9.36,9.36,0,0,1-.69,3.48c-1.19,4.21-9.51,11.44-24.17,14a95.35,95.35,0,0,1-19.86,2,99.32,99.32,0,0,1-15.12-1.14C254.93,75.17,249.85,76.43,247.2,75.3Zm-1-10.71c1.2,1.18,1.06,3.19.94,4.87s-.24,3.2.6,3.79a2,2,0,0,0,.69.29,6.65,6.65,0,0,1-.25-3.38c.15-2,.34-4.51-1.8-5.47Z"/><path class="cls-46" d="M317.62,43.66s-5.79-4.69-20.1-7.27c0,0,11.1,2,20.1,8.08Z"/><path d="M283.09,76.5h0l-.75.4-.11-.44.94-.5h.5v4.3h-.56Z"/><path d="M286.81,75.56h.58v4.7h-.58Z"/><path d="M289,76.15a.36.36,0,0,1-.72,0,.36.36,0,0,1,.36-.36A.35.35,0,0,1,289,76.15Zm-.65,4.11V77.05H289v3.21Z"/><path d="M290.62,76.13v.92h.83v.44h-.83v1.73c0,.4.11.62.44.62a1.31,1.31,0,0,0,.34,0l0,.44a1.44,1.44,0,0,1-.52.08.81.81,0,0,1-.63-.25,1.19,1.19,0,0,1-.22-.83V77.5h-.5v-.44h.5v-.77Z"/><path d="M292.11,78.05c0-.38,0-.7,0-1h.51l0,.63h0a1,1,0,0,1,.89-.7l.17,0v.55l-.2,0a.82.82,0,0,0-.78.75,1.69,1.69,0,0,0,0,.27v1.71h-.58Z"/><path d="M294.53,78.76a1,1,0,0,0,1.1,1.11,2.11,2.11,0,0,0,.89-.17l.1.42a2.59,2.59,0,0,1-1.07.2A1.49,1.49,0,0,1,294,78.71a1.56,1.56,0,0,1,1.5-1.73,1.36,1.36,0,0,1,1.32,1.51,2.17,2.17,0,0,1,0,.27Zm1.71-.42a.83.83,0,0,0-.81-.95,1,1,0,0,0-.89.95Z"/><path d="M284.7,112h-1.64l-.17,1.11a2.25,2.25,0,0,1,.35,0,1.82,1.82,0,0,1,.93.23,1.23,1.23,0,0,1,.62,1.11,1.49,1.49,0,0,1-1.6,1.47,2.11,2.11,0,0,1-1.07-.26l.15-.44a1.92,1.92,0,0,0,.92.24,1,1,0,0,0,1-.93c0-.56-.38-1-1.24-1a4.5,4.5,0,0,0-.6,0l.28-2.07h2.06Z"/><path d="M288.39,113.62c0,1.46-.54,2.27-1.5,2.27s-1.41-.79-1.42-2.21.62-2.24,1.5-2.24S288.39,112.25,288.39,113.62Zm-2.34.07c0,1.12.34,1.75.87,1.75s.88-.7.88-1.79-.27-1.75-.87-1.75S286.05,112.52,286.05,113.69Z"/><path d="M291.79,113.62c0,1.46-.54,2.27-1.5,2.27s-1.41-.79-1.42-2.21.62-2.24,1.5-2.24S291.79,112.25,291.79,113.62Zm-2.34.07c0,1.12.34,1.75.87,1.75s.88-.7.88-1.79-.27-1.75-.87-1.75S289.45,112.52,289.45,113.69Z"/><path d="M292.51,113.48c0-.33,0-.6,0-.87H293l0,.52h0a1.1,1.1,0,0,1,1-.59,1,1,0,0,1,.91.64h0a1.32,1.32,0,0,1,.36-.42,1.1,1.1,0,0,1,.71-.22c.42,0,1.05.28,1.05,1.39v1.89h-.57V114c0-.62-.23-1-.7-1a.76.76,0,0,0-.69.53,1,1,0,0,0,0,.29v2h-.57V113.9c0-.51-.23-.88-.67-.88a.87.87,0,0,0-.77.87v1.93h-.57Z"/><path d="M298,111.12h.58v4.7H298Z"/><path d="M284.1,140.83c0,1.46-.54,2.27-1.5,2.27s-1.41-.79-1.42-2.21.62-2.24,1.5-2.24S284.1,139.46,284.1,140.83Zm-2.34.07c0,1.12.34,1.75.87,1.75s.88-.7.88-1.79-.27-1.75-.87-1.75S281.76,139.73,281.76,140.9Z"/><path d="M284.82,140.69c0-.33,0-.6,0-.87h.51l0,.52h0a1.1,1.1,0,0,1,1-.59,1,1,0,0,1,.91.64h0a1.31,1.31,0,0,1,.36-.42,1.09,1.09,0,0,1,.71-.23c.42,0,1.05.28,1.05,1.39V143h-.57v-1.81c0-.62-.23-1-.7-1a.76.76,0,0,0-.69.53,1,1,0,0,0,0,.29v2h-.57v-1.92c0-.51-.23-.88-.67-.88a.87.87,0,0,0-.77.87V143h-.57Z"/><path d="M290.34,138.33h.58V143h-.58Z"/><path class="cls-53" d="M155.13,49.48h0l0,0a.32.32,0,0,1,.34.08,6.74,6.74,0,0,0,1,.88,7.5,7.5,0,0,0,4.16,1.85.32.32,0,0,1,.22.09h0v0a.32.32,0,0,1,.08.22,5.26,5.26,0,0,0,1.2,2.6,9.58,9.58,0,0,0,.82.74,2.34,2.34,0,0,1,.3.25s0,0,0,0a8.3,8.3,0,0,1-7-2A4.52,4.52,0,0,1,155.13,49.48Z"/><path class="cls-54" d="M187.75,57.7v0l0,.09Z"/><path class="cls-55" d="M188.18,56.65a9.21,9.21,0,0,0,.4-1.28l-.2,5.66a9.67,9.67,0,0,1-.79,1.2l.16-4.52A5.8,5.8,0,0,0,188.18,56.65Z"/><path class="cls-24" d="M186.2,45.92a10.37,10.37,0,0,1,2,3,9.33,9.33,0,0,1,.18,7.53.32.32,0,1,1-.59-.24,8.59,8.59,0,0,0-.16-7,9.93,9.93,0,0,0-1.89-2.8.32.32,0,0,1,.44-.46Z"/><path class="cls-53" d="M155.13,49.48h0l0,0a.32.32,0,0,1,.34.08,6.74,6.74,0,0,0,1,.88,7.5,7.5,0,0,0,4.16,1.85.32.32,0,0,1,.22.09h0v0a.32.32,0,0,1,.08.22,5.26,5.26,0,0,0,1.2,2.6,9.58,9.58,0,0,0,.82.74,2.34,2.34,0,0,1,.3.25s0,0,0,0a8.3,8.3,0,0,1-7-2A4.52,4.52,0,0,1,155.13,49.48Z"/><path class="cls-56" d="M101.51,52.45a8,8,0,0,0-.08,1.11c0,1.65.93,8.16,9.72,12.1,4.8,2.15-7.54,17.06,18.69,5.21A98.43,98.43,0,0,0,145.11,72a95,95,0,0,0,19.68-2c13.9-2.46,22.21-9.27,23.39-13.4a9.21,9.21,0,0,0,.4-1.28l-2.68,75.93h0c0,9.59-18.41,17.37-41.13,17.37s-41.13-7.78-41.13-17.37c0-.64-2.47-78.86-2.47-78.86Z"/><path class="cls-54" d="M187.75,57.7v0l0,.09Z"/><path class="cls-27" d="M181.23,136.44a7.76,7.76,0,0,0,0-12.41V69.27l.17-.1a5.6,5.6,0,0,0,2.33-3.28,23.71,23.71,0,0,0,2-1.65,15.83,15.83,0,0,0,1.85-2l-2.38,67.52h0c0,2.63-1.42,5.12-3.94,7.35Z"/><path class="cls-27" d="M106.3,133.34c3.58,7.31,19.52,12.83,38.64,12.83a82.85,82.85,0,0,0,23.7-3.21v.54a82,82,0,0,1-23.75,3.27c-19.63,0-36-5.93-39.55-13.77Z"/><path class="cls-55" d="M188.18,56.65a9.21,9.21,0,0,0,.4-1.28l-.2,5.66a9.67,9.67,0,0,1-.79,1.2l.16-4.52A5.8,5.8,0,0,0,188.18,56.65Z"/><path class="cls-57" d="M180.74,64.79a38.87,38.87,0,0,1-6.16,3.16l-.12,2.8A53.25,53.25,0,0,1,165,73.26a98.51,98.51,0,0,1-20,2,102.68,102.68,0,0,1-14.75-1,24.85,24.85,0,0,0,0-3.3,98,98,0,0,0,15,1.13,94.44,94.44,0,0,0,19.62-2c12.63-2.24,20.64-8.1,22.84-12.25A10.28,10.28,0,0,1,186.3,60,23,23,0,0,1,180.74,64.79Z"/><path class="cls-58" d="M185.74,64.24c.18-1.76.37-3.13.56-4.2a10.28,10.28,0,0,0,1.4-2.23l0-.09-.16,4.52A15.83,15.83,0,0,1,185.74,64.24Z"/><path class="cls-59" d="M185.74,64.24c.18-1.76.37-3.13.56-4.2a10.28,10.28,0,0,0,1.4-2.23l0-.09-.16,4.52A15.83,15.83,0,0,1,185.74,64.24Z"/><path class="cls-60" d="M180.74,64.79A23,23,0,0,0,186.3,60c-.19,1.07-.38,2.44-.56,4.2a34.46,34.46,0,0,1-11.28,6.51l.12-2.8A38.87,38.87,0,0,0,180.74,64.79Z"/><path class="cls-61" d="M180.74,64.79A23,23,0,0,0,186.3,60c-.19,1.07-.38,2.44-.56,4.2a34.46,34.46,0,0,1-11.28,6.51l.12-2.8A38.87,38.87,0,0,0,180.74,64.79Z"/><path class="cls-62" d="M172.24,120.23c0,9.4-18,17-40.29,17a79.56,79.56,0,0,1-25.66-3.9,7,7,0,0,1-.75-3.11c0-8.8,17.63-15.94,39.39-15.94,10.65,0,20.31,1.71,27.41,4.49l-.06,1.46Z"/><path class="cls-34" d="M145.3,114c2.34,0,4.64.08,6.87.24q-2.36-.11-4.81-.12c-22.24,0-40.27,7.3-40.27,16.3,0,8.05,14.43,14.74,33.4,16.06-20-1-35.47-7.84-35.47-16.18C105,121.35,123.06,114,145.3,114Z"/><path class="cls-63" d="M184.33,130.23c0,8.8-17.64,15.94-39.39,15.94-19.12,0-35.06-5.51-38.64-12.83a79.56,79.56,0,0,0,25.66,3.9c22.25,0,40.29-7.62,40.29-17h0l.06-1.46C179.73,121.67,184.33,125.73,184.33,130.23Z"/><path class="cls-64" d="M184.33,130.23c0,8.8-17.64,15.94-39.39,15.94-19.12,0-35.06-5.51-38.64-12.83a79.56,79.56,0,0,0,25.66,3.9c22.25,0,40.29-7.62,40.29-17h0l.06-1.46C179.73,121.67,184.33,125.73,184.33,130.23Z"/><path class="cls-65" d="M129.48,71.56s1.07,6.77-3.44,20.06a16.07,16.07,0,0,0,7.48.47c3.44-.83,1.78-19,1.78-19.58S129.48,71.56,129.48,71.56Z"/><path class="cls-66" d="M130,71.9s0,15.8-4,19.72c0,0-9.5-1.19-14.6-17.57C111.44,74,113.45,79.39,130,71.9Z"/><path d="M189.12,52.42l-2.79,79.09h0c-.14,4.65-4.45,9-12.18,12.26s-18.16,5.11-29.18,5.11-21.38-1.81-29.17-5.11-12.19-7.76-12.19-12.5c0-.63-2.44-78.07-2.47-78.85h.47c.1,3.19,2.47,78.23,2.47,78.86a9.36,9.36,0,0,0,3.16,6.59,27.41,27.41,0,0,0,8.74,5.47c7.74,3.27,18,5.07,29,5.07s21.25-1.8,29-5.07a27.41,27.41,0,0,0,8.74-5.47,9.36,9.36,0,0,0,3.16-6.59V131h0l2.77-78.63Z"/><path class="cls-34" d="M184.15,134.79a.4.4,0,0,1,.1.55c-2.35,3.37-7,6.34-13.35,8.59a.4.4,0,0,1-.26-.75c6.22-2.19,10.71-5.06,13-8.29A.4.4,0,0,1,184.15,134.79Z"/><path class="cls-34" d="M107.67,136.79c3.84,3.61,10.61,6.58,19.05,8.35a.4.4,0,0,1-.16.77c-8.59-1.8-15.49-4.84-19.43-8.55a.4.4,0,1,1,.54-.58Z"/><path class="cls-21" d="M102.93,62.58l2.14,69.57a.4.4,0,0,1-.79,0L102.14,62.6a.4.4,0,0,1,.79,0Z"/><path class="cls-34" d="M128,71.1a.24.24,0,0,1-.11.32c-.36.17-8.91,4.18-14.14,3.46a.24.24,0,0,1,.06-.47c5.09.69,13.79-3.38,13.87-3.42A.24.24,0,0,1,128,71.1Z"/><path class="cls-24" d="M181.31,63.47a.24.24,0,0,1-.06.33,40.59,40.59,0,0,1-8.81,4,84.4,84.4,0,0,1-26.45,4,.24.24,0,0,1,0-.47,84,84,0,0,0,26.28-4A40.21,40.21,0,0,0,181,63.41.24.24,0,0,1,181.31,63.47Z"/><path class="cls-39" d="M185.72,72a48.44,48.44,0,0,0,1.61-9.36l.32-.4-1.3,36.93q-.77,1.07-1.58,2.15Z"/><path class="cls-40" d="M184.76,101.32q-1.57,2.08-3.3,4.2l.79-24.11A58.23,58.23,0,0,0,185.72,72Z"/><path class="cls-67" d="M154,125.25h0l0,0a.32.32,0,0,1,.34.08,6.74,6.74,0,0,0,1,.88,7.5,7.5,0,0,0,4.16,1.85.32.32,0,0,1,.22.09h0v0a.32.32,0,0,1,.08.22,5.26,5.26,0,0,0,1.2,2.6,9.58,9.58,0,0,0,.82.74,2.34,2.34,0,0,1,.3.25s0,0,0,0a8.3,8.3,0,0,1-7-2A4.52,4.52,0,0,1,154,125.25Z"/><path class="cls-24" d="M185.56,45.92a10.37,10.37,0,0,1,2,3,9.33,9.33,0,0,1,.18,7.53.32.32,0,1,1-.59-.24,8.59,8.59,0,0,0-.16-7,9.93,9.93,0,0,0-1.89-2.8.32.32,0,0,1,.44-.46Z"/><path class="cls-68" d="M103.15,82.45c.08,2.57.42,48.73.42,48.82,0,4.74,4.33,9.18,12.19,12.5s18.16,5.11,29.17,5.11,21.38-1.81,29.18-5.11,12-7.61,12.18-12.26h0l1.31-49.05Z"/><ellipse class="cls-43" cx="145.05" cy="82.45" rx="42.56" ry="6.49"/><path class="cls-69" d="M145,87.49c-24.12,0-39.29-2.93-41-5,1.74-2.11,16.91-5,41-5s39.29,2.93,41,5C184.33,84.57,169.17,87.49,145,87.49Z"/><rect x="132.24" y="141.93" width="8.1" height="0.79"/><rect x="132.24" y="134.79" width="8.1" height="0.79"/><rect x="132.24" y="127.65" width="8.1" height="0.79"/><rect x="132.24" y="120.51" width="8.1" height="0.79"/><rect x="132.24" y="113.37" width="11.97" height="0.79"/><rect x="132.24" y="106.24" width="8.1" height="0.79"/><rect x="132.24" y="99.1" width="8.1" height="0.79"/><rect x="132.24" y="91.96" width="8.1" height="0.79"/><rect x="132.24" y="84.82" width="8.1" height="0.79"/><rect x="132.24" y="77.68" width="11.97" height="0.79"/><path class="cls-70" d="M180.78,44.39a15,15,0,0,0-3.24.9A53.81,53.81,0,0,0,163,40c.77-.64,1.57-1.28,2.39-1.9,17.22,4.13-19.14-9,9.21,3A34.48,34.48,0,0,1,180.78,44.39Z"/><path class="cls-46" d="M182.81,43.66S177,39,162.71,36.39c0,0,11.1,2,20.1,8.08Z"/><path class="cls-71" d="M175.6,41.34a28.36,28.36,0,0,1,9,5.65c2.08,2.08,3.13,4.25,3.13,6.46h0a7.3,7.3,0,0,1-.55,2.71l0,0v.05c-.44,1.54-2.37,4.11-6.49,6.74a44.12,44.12,0,0,1-16.09,5.93h0a93.33,93.33,0,0,1-19.46,2A97.29,97.29,0,0,1,130,69.75l-.3,0-.28.13A61.17,61.17,0,0,1,118.16,74c-2.59.56-3.71.27-4.2-.08-.85-.59-.73-2.22-.61-3.8.15-2,.34-4.5-1.79-5.46a16.07,16.07,0,0,1-7.68-6.49,10,10,0,0,1-1.43-4.68c0-2.21,1.05-4.39,3.13-6.46a28.36,28.36,0,0,1,9-5.65c8.13-3.44,19-5.33,30.49-5.33S167.48,37.9,175.6,41.34Z"/><path class="cls-72" d="M164.54,68.79h0a44,44,0,0,0,16-5.91c4.08-2.6,6-5.14,6.42-6.65l0-.06,0-.06a7.14,7.14,0,0,0,.54-2.65c0-2.17-1-4.3-3.08-6.35a28.2,28.2,0,0,0-9-5.62c-8.11-3.43-18.91-5.32-30.43-5.32s-22.32,1.89-30.43,5.32a28.21,28.21,0,0,0-9,5.62c-2,2-3.09,4.18-3.09,6.35a9.78,9.78,0,0,0,1.41,4.6,15.92,15.92,0,0,0,7.61,6.42c2.23,1,2,3.56,1.89,5.61-.12,1.53-.24,3.12.54,3.66.46.32,1.54.59,4.07.05a61,61,0,0,0,11.21-4.12l.32-.15.35.06a97.12,97.12,0,0,0,15.1,1.15A93.17,93.17,0,0,0,164.54,68.79Z"/><path class="cls-73" d="M103.1,55.94c0-.17,0-.29,0-.36,0-2.17,1-4.3,3.09-6.35a28.21,28.21,0,0,1,9-5.62c8.11-3.43,18.91-5.32,30.43-5.32s22.32,1.89,30.43,5.32a28.2,28.2,0,0,1,9,5.62,11,11,0,0,1,2.6,3.8,9.27,9.27,0,0,0-3.08-6,28.2,28.2,0,0,0-9-5.62c-8.11-3.43-18.91-5.32-30.43-5.32S122.79,38,114.68,41.39a28.21,28.21,0,0,0-9,5.62c-2,2-3.09,4.18-3.09,6.35A8.42,8.42,0,0,0,103.1,55.94Z"/><path class="cls-74" d="M101.75,52.45a8,8,0,0,0-.08,1.11c0,1.65.93,8.16,9.69,12.1a2.06,2.06,0,0,1,1.17,1.61,25.2,25.2,0,0,0-1,3,2,2,0,0,0-1.15-1.43c-5-2.2-7.5-5.21-8.74-7.72l-.27-8.69Z"/><path class="cls-51" d="M145.11,33.86c-11.82,0-23,2-31.35,5.5-8.72,3.69-13.52,8.71-13.52,14.15,0,.87.29,8.64,10.42,13.19.66.3.62,1.49.49,3.27-.15,2-.34,4.46,1.54,5.78,1.27.89,3.15,1,5.93.43A61.09,61.09,0,0,0,130,72.05a99.69,99.69,0,0,0,15.11,1.13,95.56,95.56,0,0,0,19.9-2,46.34,46.34,0,0,0,16.88-6.24c4-2.52,6.64-5.4,7.4-7.91a9.49,9.49,0,0,0,.7-3.5c0-5.44-4.8-10.47-13.52-14.15C168.07,35.82,156.94,33.86,145.11,33.86Zm0,36.95A97.12,97.12,0,0,1,130,69.66l-.35-.06-.32.15a61,61,0,0,1-11.21,4.12c-2.53.54-3.61.27-4.07-.05-.77-.54-.66-2.13-.54-3.66.16-2.06.35-4.61-1.89-5.61A15.92,15.92,0,0,1,104,58.12a9.78,9.78,0,0,1-1.41-4.6c0-2.17,1-4.3,3.09-6.35a28.21,28.21,0,0,1,9-5.62c8.11-3.43,18.91-5.32,30.43-5.32s22.32,1.89,30.43,5.32a28.2,28.2,0,0,1,9,5.62c2,2,3.08,4.18,3.08,6.35a7.14,7.14,0,0,1-.54,2.65l0,.06,0,.06c-.43,1.51-2.34,4-6.42,6.65a44,44,0,0,1-16,5.91h0A93.17,93.17,0,0,1,145.11,70.81Z"/><path class="cls-24" d="M159,35.48a.24.24,0,0,1-.09.47,88.53,88.53,0,0,0-17.28-1A84.82,84.82,0,0,0,125,37.12a62,62,0,0,0-17.56,7,.24.24,0,0,1-.24-.41,62.52,62.52,0,0,1,17.7-7,85.31,85.31,0,0,1,16.73-2.18A89,89,0,0,1,159,35.48Z"/><path class="cls-21" d="M101.33,56.18c.7,1.77,2.62,5.2,7.61,8.24a.24.24,0,1,1-.25.41c-5.12-3.12-7.09-6.65-7.81-8.48a.24.24,0,1,1,.44-.17Z"/><path class="cls-52" d="M101.43,52.83c0,.65.22,5.87,6.59,9.81-5.35-3.83-5.55-8.51-5.55-9.12,0-9.45,19.53-17.43,42.64-17.43,14.84,0,28.19,3.29,35.86,8.15-7.45-5.24-21.36-8.84-36.9-8.84C121,35.4,101.43,43.38,101.43,52.83Zm11,22.47a3.39,3.39,0,0,0,.39.34c2.43,1.7,7.61.57,17.21-3.74A99.55,99.55,0,0,0,145.11,73,95.41,95.41,0,0,0,165,71c14.66-2.6,23-9.83,24.17-14a9.36,9.36,0,0,0,.69-3.48c0-4.19-2.89-8-7.84-11.17,4.32,3,6.8,6.59,6.8,10.48a9.36,9.36,0,0,1-.69,3.48c-1.19,4.21-9.51,11.44-24.17,14a95.35,95.35,0,0,1-19.86,2,99.32,99.32,0,0,1-15.12-1.14C120.12,75.17,115,76.43,112.39,75.3Zm-1-10.71c1.2,1.18,1.06,3.19.94,4.87s-.24,3.2.6,3.79a2,2,0,0,0,.69.29,6.65,6.65,0,0,1-.25-3.38c.15-2,.34-4.51-1.8-5.47Z"/><path class="cls-46" d="M182.81,43.66S177,39,162.71,36.39c0,0,11.1,2,20.1,8.08Z"/><path d="M148.28,76.5h0l-.75.4-.11-.44.94-.5h.5v4.3h-.56Z"/><path d="M152,75.56h.58v4.7H152Z"/><path d="M154.21,76.15a.36.36,0,0,1-.72,0,.36.36,0,0,1,.36-.36A.35.35,0,0,1,154.21,76.15Zm-.65,4.11V77.05h.58v3.21Z"/><path d="M155.81,76.13v.92h.83v.44h-.83v1.73c0,.4.11.62.44.62a1.31,1.31,0,0,0,.34,0l0,.44a1.44,1.44,0,0,1-.52.08.81.81,0,0,1-.63-.25,1.19,1.19,0,0,1-.22-.83V77.5h-.5v-.44h.5v-.77Z"/><path d="M157.3,78.05c0-.38,0-.7,0-1h.51l0,.63h0a1,1,0,0,1,.89-.7l.17,0v.55l-.2,0a.82.82,0,0,0-.78.75,1.69,1.69,0,0,0,0,.27v1.71h-.58Z"/><path d="M159.72,78.76a1,1,0,0,0,1.1,1.11,2.11,2.11,0,0,0,.89-.17l.1.42a2.59,2.59,0,0,1-1.07.2,1.49,1.49,0,0,1-1.58-1.62,1.56,1.56,0,0,1,1.5-1.73A1.36,1.36,0,0,1,162,78.49a2.17,2.17,0,0,1,0,.27Zm1.71-.42a.83.83,0,0,0-.81-.95,1,1,0,0,0-.89.95Z"/><path d="M149.89,112h-1.64l-.17,1.11a2.25,2.25,0,0,1,.35,0,1.82,1.82,0,0,1,.93.23,1.23,1.23,0,0,1,.62,1.11,1.49,1.49,0,0,1-1.6,1.47,2.11,2.11,0,0,1-1.07-.26l.15-.44a1.92,1.92,0,0,0,.92.24,1,1,0,0,0,1-.93c0-.56-.38-1-1.24-1a4.5,4.5,0,0,0-.6,0l.28-2.07h2.06Z"/><path d="M153.58,113.62c0,1.46-.54,2.27-1.5,2.27s-1.41-.79-1.42-2.21.62-2.24,1.5-2.24S153.58,112.25,153.58,113.62Zm-2.34.07c0,1.12.34,1.75.87,1.75s.88-.7.88-1.79-.27-1.75-.87-1.75S151.24,112.52,151.24,113.69Z"/><path d="M157,113.62c0,1.46-.54,2.27-1.5,2.27s-1.41-.79-1.42-2.21.62-2.24,1.5-2.24S157,112.25,157,113.62Zm-2.34.07c0,1.12.34,1.75.87,1.75s.88-.7.88-1.79-.27-1.75-.87-1.75S154.64,112.52,154.64,113.69Z"/><path d="M157.69,113.48c0-.33,0-.6,0-.87h.51l0,.52h0a1.1,1.1,0,0,1,1-.59,1,1,0,0,1,.91.64h0a1.32,1.32,0,0,1,.36-.42,1.1,1.1,0,0,1,.71-.22c.42,0,1.05.28,1.05,1.39v1.89h-.57V114c0-.62-.23-1-.7-1a.76.76,0,0,0-.69.53,1,1,0,0,0,0,.29v2h-.57V113.9c0-.51-.23-.88-.67-.88a.87.87,0,0,0-.77.87v1.93h-.57Z"/><path d="M163.21,111.12h.58v4.7h-.58Z"/><path d="M149.29,140.83c0,1.46-.54,2.27-1.5,2.27s-1.41-.79-1.42-2.21.62-2.24,1.5-2.24S149.29,139.46,149.29,140.83Zm-2.34.07c0,1.12.34,1.75.87,1.75s.88-.7.88-1.79-.27-1.75-.87-1.75S146.95,139.73,146.95,140.9Z"/><path d="M150,140.69c0-.33,0-.6,0-.87h.51l0,.52h0a1.1,1.1,0,0,1,1-.59,1,1,0,0,1,.91.64h0a1.31,1.31,0,0,1,.36-.42,1.09,1.09,0,0,1,.71-.23c.42,0,1.05.28,1.05,1.39V143H154v-1.81c0-.62-.23-1-.7-1a.76.76,0,0,0-.69.53,1,1,0,0,0,0,.29v2H152v-1.92c0-.51-.23-.88-.67-.88a.87.87,0,0,0-.77.87V143H150Z"/><path d="M155.53,138.33h.58V143h-.58Z"/><path class="cls-75" d="M422.17,82.56h0l0,0a.4.4,0,0,1,.32.06,6.22,6.22,0,0,0,1,.59,8.62,8.62,0,0,0,3.91,1.23.37.37,0,0,1,.2.06h0a.18.18,0,0,1,.07.14,3.08,3.08,0,0,0,1.13,1.73,8.69,8.69,0,0,0,.77.49,2.19,2.19,0,0,1,.28.17s0,0,0,0a10.36,10.36,0,0,1-6.61-1.36A2.39,2.39,0,0,1,422.17,82.56Z"/><path class="cls-76" d="M452.83,88h0l0,.06Z"/><path class="cls-77" d="M453.23,87.33a4.92,4.92,0,0,0,.37-.85l-.19,3.76a6.74,6.74,0,0,1-.74.8l.15-3A3.32,3.32,0,0,0,453.23,87.33Z"/><path class="cls-24" d="M451.37,80.2a7.54,7.54,0,0,1,1.9,2,4.58,4.58,0,0,1,.17,5,.35.35,0,0,1-.39.12c-.15,0-.23-.17-.17-.27a4.21,4.21,0,0,0-.15-4.65A7.2,7.2,0,0,0,451,80.51a.17.17,0,0,1,0-.3A.39.39,0,0,1,451.37,80.2Z"/><path class="cls-75" d="M422.17,82.56h0l0,0a.4.4,0,0,1,.32.06,6.22,6.22,0,0,0,1,.59,8.62,8.62,0,0,0,3.91,1.23.37.37,0,0,1,.2.06h0a.18.18,0,0,1,.07.14,3.08,3.08,0,0,0,1.13,1.73,8.69,8.69,0,0,0,.77.49,2.19,2.19,0,0,1,.28.17s0,0,0,0a10.36,10.36,0,0,1-6.61-1.36A2.39,2.39,0,0,1,422.17,82.56Z"/><path class="cls-78" d="M371.77,84.54a3.78,3.78,0,0,0-.08.74c0,1.09.87,5.42,9.13,8,4.51,1.43-7.09,11.33,17.56,3.46a130.21,130.21,0,0,0,14.37.77,125.11,125.11,0,0,0,18.49-1.32c13.06-1.63,20.88-6.16,22-8.9a4.92,4.92,0,0,0,.37-.85l-2.51,50.45h0c0,6.37-17.31,11.54-38.66,11.54s-38.66-5.17-38.66-11.54c0-.42-2.32-52.39-2.32-52.39Z"/><path class="cls-76" d="M452.83,88h0l0,.06Z"/><path class="cls-27" d="M446.7,140.34c1.88-1.27,2.91-2.66,2.91-4.12s-1-2.85-2.91-4.12V95.72l.16-.07A4.08,4.08,0,0,0,449,93.47c.7-.37,1.33-.73,1.89-1.1A13.11,13.11,0,0,0,452.68,91l-2.24,44.86h0c0,1.75-1.33,3.4-3.71,4.88Z"/><path class="cls-27" d="M376.27,138.28c3.36,4.86,18.34,8.52,36.32,8.52a108.34,108.34,0,0,0,22.28-2.13V145a107.17,107.17,0,0,1-22.32,2.17c-18.45,0-33.8-3.94-37.17-9.15Z"/><path class="cls-77" d="M453.23,87.33a4.92,4.92,0,0,0,.37-.85l-.19,3.76a6.74,6.74,0,0,1-.74.8l.15-3A3.32,3.32,0,0,0,453.23,87.33Z"/><path class="cls-79" d="M446.24,92.74a43.71,43.71,0,0,1-5.79,2.1l-.12,1.86a67.22,67.22,0,0,1-8.85,1.67,129.85,129.85,0,0,1-18.85,1.32A135.93,135.93,0,0,1,398.78,99a11.69,11.69,0,0,0,0-2.19,129.68,129.68,0,0,0,14.13.75,124.44,124.44,0,0,0,18.44-1.32c11.87-1.49,19.4-5.38,21.47-8.14a7,7,0,0,1-1.32,1.48A21.33,21.33,0,0,1,446.24,92.74Z"/><path class="cls-80" d="M450.94,92.37c.17-1.17.35-2.08.52-2.79a7,7,0,0,0,1.32-1.48l0-.06-.15,3A13.1,13.1,0,0,1,450.94,92.37Z"/><path class="cls-81" d="M450.94,92.37c.17-1.17.35-2.08.52-2.79a7,7,0,0,0,1.32-1.48l0-.06-.15,3A13.1,13.1,0,0,1,450.94,92.37Z"/><path class="cls-82" d="M446.24,92.74a21.33,21.33,0,0,0,5.22-3.16c-.17.71-.36,1.62-.52,2.79a37.16,37.16,0,0,1-10.6,4.33l.12-1.86A43.71,43.71,0,0,0,446.24,92.74Z"/><path class="cls-83" d="M446.24,92.74a21.33,21.33,0,0,0,5.22-3.16c-.17.71-.36,1.62-.52,2.79a37.16,37.16,0,0,1-10.6,4.33l.12-1.86A43.71,43.71,0,0,0,446.24,92.74Z"/><path class="cls-84" d="M438.25,129.57c0,6.24-17,11.3-37.87,11.3a103.58,103.58,0,0,1-24.12-2.59,3.61,3.61,0,0,1-.71-2.07c0-5.85,16.58-10.59,37-10.59a100.61,100.61,0,0,1,25.76,3l-.06,1Z"/><path class="cls-34" d="M412.93,125.47c2.2,0,4.36.05,6.46.16q-2.22-.08-4.52-.08c-20.91,0-37.85,4.85-37.85,10.83,0,5.35,13.57,9.8,31.4,10.67-18.78-.64-33.34-5.21-33.34-10.75C375.08,130.31,392,125.47,412.93,125.47Z"/><path class="cls-85" d="M449.62,136.22c0,5.85-16.58,10.59-37,10.59-18,0-33-3.66-36.32-8.52a103.58,103.58,0,0,0,24.12,2.59c20.91,0,37.87-5.06,37.87-11.3h0l.06-1C445.3,130.53,449.62,133.23,449.62,136.22Z"/><path class="cls-86" d="M449.62,136.22c0,5.85-16.58,10.59-37,10.59-18,0-33-3.66-36.32-8.52a103.58,103.58,0,0,0,24.12,2.59c20.91,0,37.87-5.06,37.87-11.3h0l.06-1C445.3,130.53,449.62,133.23,449.62,136.22Z"/><path class="cls-87" d="M398.06,97.23s1,4.5-3.24,13.33a21.09,21.09,0,0,0,7,.32c3.24-.55,1.67-12.62,1.67-13S398.06,97.23,398.06,97.23Z"/><path class="cls-88" d="M398.54,97.46s0,10.5-3.72,13.1c0,0-8.93-.79-13.72-11.67C381.1,98.89,383,102.44,398.54,97.46Z"/><path d="M454.12,84.52l-2.62,52.54h0c-.13,3.09-4.19,6-11.45,8.15s-17.07,3.39-27.42,3.39-20.1-1.2-27.42-3.39-11.46-5.16-11.46-8.31c0-.42-2.3-51.87-2.32-52.39h.45c.09,2.12,2.32,52,2.32,52.4,0,1.51,1,3,3,4.38a28.8,28.8,0,0,0,8.21,3.63c7.27,2.17,17,3.37,27.25,3.37s20-1.2,27.25-3.37a28.8,28.8,0,0,0,8.21-3.63c2-1.39,3-2.87,3-4.38v-.16h0l2.6-52.24Z"/><path class="cls-34" d="M449.45,139.25c.17.08.21.25.09.37-2.21,2.24-6.55,4.21-12.55,5.7a.43.43,0,0,1-.47-.16c-.07-.14,0-.29.23-.34,5.85-1.45,10.06-3.36,12.18-5.51A.48.48,0,0,1,449.45,139.25Z"/><path class="cls-34" d="M377.56,140.57c3.61,2.4,10,4.37,17.91,5.55.2,0,.33.17.29.31a.39.39,0,0,1-.44.2c-8.07-1.2-14.56-3.21-18.27-5.68a.21.21,0,0,1,0-.37A.49.49,0,0,1,377.56,140.57Z"/><path class="cls-21" d="M373.1,91.27l2,46.22c0,.15-.15.27-.36.27s-.38-.11-.38-.25l-2-46.22c0-.15.15-.27.36-.27S373.1,91.12,373.1,91.27Z"/><path class="cls-34" d="M396.7,96.93c.05.08,0,.17-.11.21-.34.11-8.37,2.77-13.29,2.3-.12,0-.21-.09-.19-.18a.22.22,0,0,1,.25-.13c4.79.46,13-2.25,13-2.27A.27.27,0,0,1,396.7,96.93Z"/><path class="cls-24" d="M446.77,91.86c.07.07,0,.17-.06.22a46.68,46.68,0,0,1-8.28,2.63,109.74,109.74,0,0,1-24.87,2.68c-.12,0-.22-.07-.22-.16s.1-.16.22-.16a109.16,109.16,0,0,0,24.7-2.66,46.27,46.27,0,0,0,8.2-2.6A.28.28,0,0,1,446.77,91.86Z"/><path class="cls-39" d="M450.92,97.52a23.77,23.77,0,0,0,1.51-6.22l.3-.26-1.22,24.54q-.72.71-1.49,1.43Z"/><path class="cls-40" d="M450,117q-1.47,1.38-3.11,2.79l.74-16a32.42,32.42,0,0,0,3.27-6.26Z"/><path class="cls-89" d="M421.1,132.91h0l0,0a.4.4,0,0,1,.32.06,6.22,6.22,0,0,0,1,.59,8.62,8.62,0,0,0,3.91,1.23.37.37,0,0,1,.2.06h0a.18.18,0,0,1,.07.14,3.08,3.08,0,0,0,1.13,1.73,8.69,8.69,0,0,0,.77.49,2.19,2.19,0,0,1,.28.17s0,0,0,0a10.36,10.36,0,0,1-6.61-1.36A2.39,2.39,0,0,1,421.1,132.91Z"/><path class="cls-24" d="M450.77,80.2a7.54,7.54,0,0,1,1.9,2,4.58,4.58,0,0,1,.17,5,.35.35,0,0,1-.39.12c-.15,0-.23-.17-.17-.27a4.21,4.21,0,0,0-.15-4.65,7.2,7.2,0,0,0-1.78-1.86.17.17,0,0,1,0-.3A.39.39,0,0,1,450.77,80.2Z"/><path class="cls-90" d="M372.7,104c.07,1.71,1,32.84,1,32.9,0,3.15,4.07,6.1,11.46,8.31s17.07,3.39,27.42,3.39,20.1-1.2,27.42-3.39,11.32-5.06,11.45-8.15h0L453.14,104Z"/><ellipse class="cls-43" cx="412.69" cy="104.01" rx="40.04" ry="4.39"/><path class="cls-91" d="M412.69,107.42c-22.69,0-37-2-38.6-3.41,1.64-1.43,15.9-3.41,38.6-3.41s37,2,38.6,3.41C449.65,105.44,435.38,107.42,412.69,107.42Z"/><rect x="405.34" y="145.31" width="4.61" height="0.44"/><rect x="405.34" y="141.34" width="4.61" height="0.44"/><rect x="405.34" y="137.38" width="4.61" height="0.44"/><rect x="405.34" y="133.41" width="4.61" height="0.44"/><rect x="405.34" y="129.45" width="6.81" height="0.44"/><rect x="405.34" y="125.48" width="4.61" height="0.44"/><rect x="405.34" y="121.51" width="4.61" height="0.44"/><rect x="405.34" y="117.55" width="4.61" height="0.44"/><rect x="405.34" y="113.58" width="4.61" height="0.44"/><rect x="405.34" y="109.62" width="6.81" height="0.44"/><path class="cls-92" d="M446.27,79.19a18.8,18.8,0,0,0-3,.6,65.09,65.09,0,0,0-13.71-3.53c.73-.43,1.48-.85,2.24-1.26,16.19,2.74-18-6,8.66,2A38.28,38.28,0,0,1,446.27,79.19Z"/><path class="cls-46" d="M448.19,78.7s-5.45-3.12-18.89-4.83c0,0,10.43,1.35,18.89,5.37Z"/><path class="cls-93" d="M441.41,77.16a29.8,29.8,0,0,1,8.49,3.75c2,1.38,2.94,2.82,2.94,4.29h0a3.66,3.66,0,0,1-.51,1.8l0,0v0c-.41,1-2.23,2.73-6.1,4.48a52.92,52.92,0,0,1-15.12,3.94h0a123,123,0,0,1-18.29,1.3A128.71,128.71,0,0,1,398.54,96l-.29,0-.26.08a74.32,74.32,0,0,1-10.57,2.74c-2.43.37-3.49.18-3.95-.05-.8-.39-.68-1.48-.57-2.52.14-1.33.32-3-1.68-3.63-3.33-1.06-5.76-2.51-7.22-4.31a5.23,5.23,0,0,1-1.34-3.11c0-1.47,1-2.91,2.94-4.29a29.8,29.8,0,0,1,8.49-3.75c7.64-2.28,17.82-3.54,28.66-3.54S433.77,74.88,441.41,77.16Z"/><path class="cls-94" d="M431,95.39h0a52.73,52.73,0,0,0,15.07-3.92c3.83-1.73,5.63-3.41,6-4.42l0,0,0,0a3.58,3.58,0,0,0,.5-1.76c0-1.44-1-2.86-2.9-4.22a29.64,29.64,0,0,0-8.44-3.73c-7.62-2.28-17.78-3.53-28.6-3.53s-21,1.25-28.6,3.53A29.65,29.65,0,0,0,375.71,81c-1.92,1.36-2.9,2.78-2.9,4.22a5.14,5.14,0,0,0,1.32,3.06c1.44,1.78,3.85,3.22,7.15,4.27,2.1.67,1.92,2.36,1.77,3.73-.11,1-.22,2.07.51,2.43.43.21,1.45.39,3.83,0A74.14,74.14,0,0,0,397.93,96l.3-.1.33,0a128.49,128.49,0,0,0,14.19.76A122.78,122.78,0,0,0,431,95.39Z"/><path class="cls-95" d="M373.27,86.86a2.28,2.28,0,0,1,0-.24c0-1.44,1-2.86,2.9-4.22a29.65,29.65,0,0,1,8.45-3.73c7.62-2.28,17.78-3.53,28.6-3.53s21,1.25,28.6,3.53a29.64,29.64,0,0,1,8.45,3.73,7.82,7.82,0,0,1,2.45,2.53c-.09-1.36-1.07-2.71-2.89-4a29.64,29.64,0,0,0-8.44-3.73c-7.62-2.28-17.78-3.53-28.6-3.53s-21,1.25-28.6,3.53a29.65,29.65,0,0,0-8.45,3.73c-1.92,1.36-2.9,2.78-2.9,4.22A4.15,4.15,0,0,0,373.27,86.86Z"/><path class="cls-96" d="M372,84.54a3.8,3.8,0,0,0-.08.74c0,1.09.87,5.42,9.11,8a1.51,1.51,0,0,1,1.1,1.07,13.59,13.59,0,0,0-.92,2,1.54,1.54,0,0,0-1.08-.95c-4.7-1.46-7.05-3.46-8.22-5.13l-.26-5.78Z"/><path class="cls-51" d="M412.75,72.19c-11.11,0-21.58,1.3-29.47,3.66-8.2,2.45-12.71,5.79-12.71,9.4,0,.58.27,5.74,9.79,8.76.62.2.59,1,.46,2.17s-.32,3,1.45,3.84c1.19.59,3,.68,5.58.28a74.34,74.34,0,0,0,10.69-2.74,131.92,131.92,0,0,0,14.21.75A125.93,125.93,0,0,0,431.46,97a55.55,55.55,0,0,0,15.86-4.15c3.72-1.67,6.24-3.59,7-5.26a4.75,4.75,0,0,0,.65-2.33c0-3.62-4.51-7-12.71-9.4C434.33,73.49,423.87,72.19,412.75,72.19Zm0,24.55A128.49,128.49,0,0,1,398.56,96l-.33,0-.3.1a74.14,74.14,0,0,1-10.54,2.73c-2.38.36-3.4.18-3.83,0-.73-.36-.62-1.41-.51-2.43.15-1.37.33-3.06-1.77-3.73-3.3-1-5.71-2.48-7.15-4.27a5.14,5.14,0,0,1-1.32-3.06c0-1.44,1-2.86,2.9-4.22a29.65,29.65,0,0,1,8.45-3.73c7.62-2.28,17.78-3.53,28.6-3.53s21,1.25,28.6,3.53A29.64,29.64,0,0,1,449.8,81c1.92,1.36,2.9,2.78,2.9,4.22a3.58,3.58,0,0,1-.5,1.76l0,0,0,0c-.4,1-2.2,2.69-6,4.42a52.73,52.73,0,0,1-15.07,3.92h0A122.78,122.78,0,0,1,412.75,96.74Z"/><path class="cls-24" d="M425.77,73.26c.12,0,.2.1.18.18a.23.23,0,0,1-.26.13,117.13,117.13,0,0,0-16.24-.66,111.22,111.22,0,0,0-15.64,1.44A73.94,73.94,0,0,0,377.31,79a.28.28,0,0,1-.31-.05c-.06-.07,0-.17.08-.22A74.51,74.51,0,0,1,393.72,74a111.87,111.87,0,0,1,15.73-1.45A117.74,117.74,0,0,1,425.77,73.26Z"/><path class="cls-21" d="M371.6,87c.66,1.18,2.46,3.46,7.15,5.48.11,0,.14.14.07.22a.28.28,0,0,1-.31.05c-4.81-2.07-6.66-4.42-7.34-5.63,0-.08,0-.17.13-.2A.26.26,0,0,1,371.6,87Z"/><path class="cls-52" d="M371.69,84.79c0,.43.21,3.9,6.19,6.52-5-2.55-5.21-5.65-5.21-6.06,0-6.28,18.35-11.58,40.08-11.58,13.95,0,26.5,2.19,33.7,5.41-7-3.48-20.08-5.88-34.68-5.88C390,73.21,371.69,78.51,371.69,84.79ZM382,99.72a3.11,3.11,0,0,0,.36.23c2.29,1.13,7.15.38,16.18-2.49a131.72,131.72,0,0,0,14.22.76,125.74,125.74,0,0,0,18.67-1.33c13.78-1.72,21.6-6.53,22.72-9.33a4.68,4.68,0,0,0,.65-2.31c0-2.78-2.71-5.33-7.37-7.42,4.06,2,6.39,4.38,6.39,7a4.68,4.68,0,0,1-.65,2.31c-1.12,2.8-8.94,7.6-22.72,9.33a125.66,125.66,0,0,1-18.67,1.33A131.42,131.42,0,0,1,397.56,97C389.26,99.63,384.49,100.48,382,99.72Zm-.94-7.12c1.13.78,1,2.12.88,3.23s-.23,2.12.56,2.52a2.39,2.39,0,0,0,.65.19,3.2,3.2,0,0,1-.24-2.24c.14-1.34.32-3-1.69-3.64Z"/><path class="cls-46" d="M448.19,78.7s-5.45-3.12-18.89-4.83c0,0,10.43,1.35,18.89,5.37Z"/><path d="M415.12,107.85h0l-.75.4-.11-.44.94-.5h.5v4.3h-.56Z"/><path d="M418.84,106.91h.58v4.7h-.58Z"/><path d="M421.05,107.5a.36.36,0,0,1-.72,0,.36.36,0,0,1,.36-.36A.35.35,0,0,1,421.05,107.5Zm-.65,4.11V108.4H421v3.21Z"/><path d="M422.65,107.48v.92h.83v.44h-.83v1.73c0,.4.11.62.44.62a1.32,1.32,0,0,0,.34,0l0,.44a1.41,1.41,0,0,1-.52.08.81.81,0,0,1-.63-.25,1.19,1.19,0,0,1-.22-.83v-1.75h-.5v-.44h.5v-.77Z"/><path d="M424.14,109.4c0-.38,0-.7,0-1h.51l0,.63h0a1,1,0,0,1,.89-.7l.17,0v.55l-.2,0a.82.82,0,0,0-.78.75,1.71,1.71,0,0,0,0,.27v1.71h-.58Z"/><path d="M426.57,110.11a1,1,0,0,0,1.1,1.11,2.11,2.11,0,0,0,.89-.17l.1.42a2.59,2.59,0,0,1-1.07.2,1.49,1.49,0,0,1-1.58-1.62,1.56,1.56,0,0,1,1.5-1.73,1.36,1.36,0,0,1,1.32,1.51,2.17,2.17,0,0,1,0,.27Zm1.71-.42a.83.83,0,0,0-.81-.95,1,1,0,0,0-.89.95Z"/><path d="M416.74,128.32H415.1l-.17,1.11a2.38,2.38,0,0,1,.35,0,1.83,1.83,0,0,1,.93.23,1.23,1.23,0,0,1,.62,1.11,1.49,1.49,0,0,1-1.6,1.47,2.1,2.1,0,0,1-1.07-.26l.15-.44a1.94,1.94,0,0,0,.92.24,1,1,0,0,0,1-.93c0-.56-.38-1-1.24-1a4.32,4.32,0,0,0-.6,0l.28-2.07h2.06Z"/><path d="M420.43,129.94c0,1.46-.54,2.27-1.5,2.27s-1.41-.79-1.42-2.21.62-2.24,1.5-2.24S420.43,128.57,420.43,129.94Zm-2.34.07c0,1.12.34,1.75.87,1.75s.88-.7.88-1.79-.27-1.75-.87-1.75S418.09,128.83,418.09,130Z"/><path d="M423.82,129.94c0,1.46-.54,2.27-1.5,2.27s-1.41-.79-1.42-2.21.62-2.24,1.5-2.24S423.82,128.57,423.82,129.94Zm-2.34.07c0,1.12.34,1.75.87,1.75s.88-.7.88-1.79-.27-1.75-.87-1.75S421.49,128.83,421.49,130Z"/><path d="M424.54,129.8c0-.33,0-.6,0-.87H425l0,.52h0a1.1,1.1,0,0,1,1-.59,1,1,0,0,1,.91.64h0a1.31,1.31,0,0,1,.36-.42,1.09,1.09,0,0,1,.71-.23c.42,0,1.05.28,1.05,1.39v1.89h-.57v-1.81c0-.62-.23-1-.7-1a.76.76,0,0,0-.69.53,1,1,0,0,0,0,.29v2h-.57v-1.92c0-.51-.23-.88-.67-.88a.87.87,0,0,0-.77.87v1.93h-.57Z"/><path d="M430.06,127.43h.58v4.7h-.58Z"/><path d="M417.18,144.61c0,1.46-.54,2.27-1.5,2.27s-1.41-.79-1.42-2.21.62-2.24,1.5-2.24S417.18,143.24,417.18,144.61Zm-2.34.07c0,1.12.34,1.75.87,1.75s.88-.7.88-1.79-.27-1.75-.87-1.75S414.85,143.5,414.85,144.67Z"/><path d="M417.9,144.47c0-.33,0-.6,0-.87h.51l0,.52h0a1.1,1.1,0,0,1,1-.59,1,1,0,0,1,.91.64h0a1.32,1.32,0,0,1,.36-.42,1.1,1.1,0,0,1,.71-.22c.42,0,1.05.28,1.05,1.39v1.89h-.57V145c0-.62-.23-1-.7-1a.76.76,0,0,0-.69.53,1,1,0,0,0,0,.29v2h-.57v-1.92c0-.51-.23-.88-.67-.88a.87.87,0,0,0-.77.87v1.93h-.57Z"/><path d="M423.42,142.11H424v4.7h-.58Z"/><path class="cls-97" d="M496.67,122.48l2.4,21.94h0a5.78,5.78,0,0,0,5.61,4.14h60.75a5.78,5.78,0,0,0,5.61-4.14h0l2.4-21.94Z"/><path class="cls-98" d="M496.67,122.48l2.4,21.91h0a5.78,5.78,0,0,0,5.61,4.12h60.75a5.78,5.78,0,0,0,5.61-4.12h0l2.4-21.91Z"/><path class="cls-99" d="M496.67,122.48l2.4,21.87h0a5.78,5.78,0,0,0,5.61,4.1h60.75a5.78,5.78,0,0,0,5.61-4.1h0l2.4-21.87Z"/><path class="cls-100" d="M496.67,122.48l2.4,21.84h0a5.77,5.77,0,0,0,5.61,4.08h60.75a5.77,5.77,0,0,0,5.61-4.08h0l2.4-21.84Z"/><path class="cls-101" d="M496.67,122.48l2.4,21.8h0a5.77,5.77,0,0,0,5.61,4.06h60.75a5.77,5.77,0,0,0,5.61-4.06h0l2.4-21.8Z"/><path class="cls-102" d="M496.67,122.48l2.4,21.76h0a5.77,5.77,0,0,0,5.61,4h60.75a5.77,5.77,0,0,0,5.61-4h0l2.4-21.76Z"/><path class="cls-103" d="M496.67,122.48l2.4,21.73h0a5.76,5.76,0,0,0,5.61,4h60.75a5.76,5.76,0,0,0,5.61-4h0l2.4-21.73Z"/><path class="cls-104" d="M496.67,122.48l2.4,21.69h0a5.76,5.76,0,0,0,5.61,4h60.75a5.76,5.76,0,0,0,5.61-4h0l2.4-21.69Z"/><path class="cls-105" d="M496.67,122.48l2.4,21.65h0a5.76,5.76,0,0,0,5.61,4h60.75a5.76,5.76,0,0,0,5.61-4h0l2.4-21.65Z"/><path class="cls-106" d="M496.67,122.48l2.4,21.62h0a5.76,5.76,0,0,0,5.61,4h60.75a5.76,5.76,0,0,0,5.61-4h0l2.4-21.62Z"/><path class="cls-107" d="M496.67,122.48l2.4,21.58h0a5.75,5.75,0,0,0,5.61,3.94h60.75a5.75,5.75,0,0,0,5.61-3.94h0l2.4-21.58Z"/><path class="cls-108" d="M496.67,122.48l2.4,21.55h0a5.75,5.75,0,0,0,5.61,3.92h60.75A5.75,5.75,0,0,0,571,144h0l2.4-21.55Z"/><path class="cls-109" d="M575.09,118.77l-3-16.83c-.56-3.17-4.29-5.65-8.49-5.65H506.47c-4.2,0-7.93,2.48-8.49,5.65l-3.79,21.75a2.31,2.31,0,0,0,0,.7h0l.13,1h0a2,2,0,0,0,2,1.72h71a8.24,8.24,0,0,0,6.37-2.64,5.67,5.67,0,0,0,1.33-3h0l.13-1h0A5.7,5.7,0,0,0,575.09,118.77Z"/><path class="cls-110" d="M494.15,123.69l3.79-21.75c.56-3.17,4.29-5.65,8.49-5.65h57.17c4.2,0,7.93,2.48,8.49,5.65l3,16.83a5.63,5.63,0,0,1-1.29,4.69,8.28,8.28,0,0,1-6.39,2.65H496.19A2,2,0,0,1,494.15,123.69Z"/><path class="cls-111" d="M573.79,119.3h0a4.55,4.55,0,0,0-.07-.78l-3-17c-.44-2.55-3.62-4.56-7.12-4.56H506.47c-3.49,0-6.67,2-7.12,4.56l-3,17a4.55,4.55,0,0,0-.07.78h0v1.23h0c0,2.8,2.67,5,6.38,5h64.72c3.7,0,6.38-2.21,6.38-5h0Z"/><path class="cls-112" d="M573.72,118.52c.55,3.15-2.27,5.79-6.31,5.79H502.69c-4,0-6.86-2.63-6.31-5.79l3-17c.44-2.55,3.62-4.56,7.12-4.56h57.17c3.49,0,6.67,2,7.12,4.56Z"/><g class="cls-113"><path class="cls-114" d="M562.61,129.18a1.9,1.9,0,0,1-2.08,1.82H509a1.9,1.9,0,0,1-2.08-1.82l1.54-14a1.91,1.91,0,0,1,2-1.6h48.59a1.91,1.91,0,0,1,2,1.6Z"/><path class="cls-115" d="M509,130a1.17,1.17,0,0,1-.91-.36.5.5,0,0,1-.13-.38l1.3-14c0-.29.51-.72,1.2-.72h48.59c.69,0,1.18.43,1.2.72l1.3,14a.5.5,0,0,1-.13.38,1.17,1.17,0,0,1-.91.36Z"/><path class="cls-116" d="M573.4,121.63l-3-17.46c-.41-2.43-3.46-4.4-6.79-4.4H506.47c-3.33,0-6.38,2-6.79,4.4l-3,17.46a4.17,4.17,0,0,0,.91,3.43,6.45,6.45,0,0,0,5.07,2.12h64.72a6.45,6.45,0,0,0,5.07-2.12A4.17,4.17,0,0,0,573.4,121.63Zm-1,3.33a6.29,6.29,0,0,1-4.95,2.06H502.69a6.29,6.29,0,0,1-4.95-2.06,4,4,0,0,1-.88-3.3l3-17.46c.4-2.35,3.37-4.27,6.63-4.27h57.17c3.26,0,6.23,1.91,6.63,4.27l3,17.46A4,4,0,0,1,572.36,125Z"/></g><path class="cls-117" d="M575.09,118.77l-3-16.83c-.56-3.17-4.29-5.65-8.49-5.65h-57.2c-4.2,0-7.93,2.48-8.49,5.65l-3.79,21.75a2.21,2.21,0,0,0,.06,1l.09.7h0a2,2,0,0,0,2,1.72h.83l1.89,17.3a5.78,5.78,0,0,0,6.18,4.14h60.52c4,0,5.28-4.14,5.28-4.14L573.17,125a6.43,6.43,0,0,0,.51-.49,5.67,5.67,0,0,0,1.33-3h0l.13-1h0A5.7,5.7,0,0,0,575.09,118.77Z"/><path d="M526.28,138.55h0l-1,.53-.15-.58,1.22-.66H527v5.6h-.73Z"/><path d="M531.13,137.33h.76v6.12h-.76Z"/><path d="M534,138.11a.47.47,0,0,1-.94,0,.46.46,0,0,1,.47-.47A.45.45,0,0,1,534,138.11Zm-.84,5.35v-4.17h.76v4.17Z"/><path d="M536.1,138.08v1.2h1.09v.58H536.1v2.25c0,.52.15.81.57.81a1.68,1.68,0,0,0,.44-.05l0,.57a1.86,1.86,0,0,1-.67.1,1.05,1.05,0,0,1-.82-.32,1.55,1.55,0,0,1-.29-1.09v-2.28h-.65v-.58h.65v-1Z"/><path d="M538,140.58c0-.49,0-.91,0-1.3h.66l0,.82h0a1.25,1.25,0,0,1,1.16-.91.81.81,0,0,1,.22,0v.72a1.13,1.13,0,0,0-.26,0,1.06,1.06,0,0,0-1,1,2.14,2.14,0,0,0,0,.35v2.22H538Z"/><path d="M541.2,141.5a1.34,1.34,0,0,0,1.43,1.45,2.74,2.74,0,0,0,1.16-.22l.13.54a3.38,3.38,0,0,1-1.39.26,1.94,1.94,0,0,1-2.05-2.1,2,2,0,0,1,2-2.25,1.77,1.77,0,0,1,1.72,2,2.88,2.88,0,0,1,0,.35Zm2.22-.54a1.08,1.08,0,0,0-1.05-1.23,1.26,1.26,0,0,0-1.16,1.23Z"/><path class="cls-118" d="M13.52,12.61a3.66,3.66,0,0,1-1-4.14L12.74,8h29l.24.2a2.25,2.25,0,0,1,.53.62,2.77,2.77,0,0,1,.08,2.46,3,3,0,0,1-1.26,1.43A171.42,171.42,0,0,0,49,46.44c1.25,3.85,2.62,7.68,3.85,11.54.7,2.2,1.69,5.27,1.69,7.58v54.17a4.13,4.13,0,0,1-.73,2.14,1.12,1.12,0,0,0-.14.51,1.33,1.33,0,0,0,.13.55c.14.32.31.61.44.94a4.16,4.16,0,0,1,.3,1.59v9.33A11.48,11.48,0,0,1,53.36,140C46,152.39,6.66,151.81.92,138.27a10.1,10.1,0,0,1-.61-3.48v-9.46A3.73,3.73,0,0,1,1.13,123a1,1,0,0,0,.17-.57.87.87,0,0,0-.18-.56,3.39,3.39,0,0,1-.81-2.26v-54c0-2.31,1-5.39,1.69-7.59,1.23-3.87,2.6-7.7,3.85-11.56A171.82,171.82,0,0,0,13.52,12.61Z"/><path class="cls-119" d="M42.85,10.32a2.56,2.56,0,0,0-.3-1.51A2.25,2.25,0,0,0,42,8.19L41.77,8h-.59A7.75,7.75,0,0,1,42.85,10.32Z"/><path class="cls-120" d="M36.14,139.8c-11.32-.15-22-3.06-32.32-7.43a9.57,9.57,0,0,1-2.64-1.64v4.06c0,14.79,44.47,17.39,51.56,3.87A112.48,112.48,0,0,1,36.14,139.8Z"/><path class="cls-121" d="M12.45,17.14a5.52,5.52,0,0,1-.28-1.55c4.2,2.67,26.07,2.1,30.59.11a10.15,10.15,0,0,1-.15,1.65C41.91,19.86,13.47,20.75,12.45,17.14Z"/><path class="cls-122" d="M11.5,15.19c-.66-1.32-.51-11.74-.12-12.77,0-2.89,32-2.73,32-.11.42.71.51,11.78.15,13.09C42.83,18.09,12.59,19,11.5,15.19Z"/><path class="cls-123" d="M11.5,15.19A12.06,12.06,0,0,1,11.11,12V5.44a16.79,16.79,0,0,1,.27-3h0a.71.71,0,0,0,.27.33V15.48a.94.94,0,0,1-.15-.29Zm1.19-12v13a4.11,4.11,0,0,1-.52-.27V3l.52.2Zm1,.29V16.6l-.49-.16V3.4l.49.12Zm1,.22V16.86l-.47-.11V3.65l.47.09Zm1,.17V17.06L15.35,17V3.84l.45.07Zm1,.14V17.22l-.42-.06V4l.42.06Zm1,.12V17.35l-.4,0V4.13l.4,0Zm1,.1V17.45l-.38,0V4.24l.38,0Zm1,.09V17.54l-.36,0V4.33l.36,0Zm1,.07V17.6l-.33,0V4.41l.33,0Zm1,.06V17.66l-.31,0V4.48l.31,0Zm1,0V17.7h-.29V4.53Zm1,0V17.73h-.26V4.57Zm1,0V17.74H24.9V4.6Zm1,0V17.75H26V4.62Zm1,0V17.75H27V4.62Zm1.3,0V17.73h-.2V4.62Zm1.06,0V17.7h-.22V4.61Zm1.06,0V17.67h-.24V4.58Zm1.06,0V17.62h-.26V4.55Zm1.06,0V17.57l-.29,0V4.51Zm1.06-.06V17.5l-.31,0V4.45l.31,0Zm1.06-.07V17.42l-.33,0V4.38l.33,0Zm1.06-.09V17.32l-.36,0V4.3l.36,0ZM37,4.16V17.22l-.38,0V4.2l.38,0ZM38.06,4V17.09l-.4.05V4.09l.4-.05Zm1.06-.15v13L38.7,17V4l.42-.06Zm1.06-.18V16.76l-.45.08V3.79l.45-.08Zm1.06-.23V16.53l-.47.11V3.58l.47-.11Zm1.06-.31V16.23l-.49.15V3.32l.49-.16Zm1.06-.66v13.2a2.12,2.12,0,0,1-.52.32V2.92A1.22,1.22,0,0,0,43.37,2.5Z"/><ellipse class="cls-124" cx="27.39" cy="2.31" rx="16.03" ry="2.31"/><path class="cls-125" d="M27.39,0c8.37,0,15.25.93,16,2.11-.72,1.18-7.6,2.11-16,2.11s-15.24-.93-16-2.11C12.14.93,19,0,27.39,0Z"/><path class="cls-126" d="M53.25,121.12a2.48,2.48,0,0,0-.43,1.26,2.11,2.11,0,0,0,0,.22c-13.89,7.51-36.65,6.29-50.65-.19v0a2.34,2.34,0,0,0-.61-1.46C15.4,127.8,39.94,129.29,53.25,121.12Z"/><path class="cls-127" d="M14.7,30.59a64.77,64.77,0,0,1-1.58-9.09C9.15,44.14,1.18,59.55,1.18,65.56v54c0,1.56,1,1.58,1,2.82s-1,1.33-1,2.94v9.46c0,4.39,3.92,7.7,9.62,9.84-.82-8.84-.67-17.75-.88-26.64-.31-13.52.25-27,.25-40.53,0-13.18-.3-26.32,2.68-39.24C13.44,35.72,14,33.16,14.7,30.59Z"/><g class="cls-128"><path class="cls-129" d="M54.57,119.73V65.56c0-2.31-1-5.38-1.69-7.58-1.23-3.86-2.6-7.68-3.85-11.54Q47.36,41.27,46,36.1h-37q-1.4,5.17-3.07,10.32C4.59,50.28,3.22,54.11,2,58,1.29,60.18.3,63.25.3,65.56v54a3.39,3.39,0,0,0,.81,2.26.87.87,0,0,1,.18.56,1,1,0,0,1-.17.57,3.73,3.73,0,0,0-.82,2.37v9.46a10.1,10.1,0,0,0,.61,3.48C6.66,151.81,46,152.39,53.36,140a11.48,11.48,0,0,0,1.22-5.22v-9.33a4.16,4.16,0,0,0-.3-1.59c-.13-.33-.3-.62-.44-.94a1.33,1.33,0,0,1-.13-.55,1.12,1.12,0,0,1,.14-.51A4.14,4.14,0,0,0,54.57,119.73Z"/><path class="cls-130" d="M42.85,10.32a2.56,2.56,0,0,0-.3-1.51A2.25,2.25,0,0,0,42,8.19L41.77,8h-.59A7.75,7.75,0,0,1,42.85,10.32Z"/><path class="cls-131" d="M36.14,139.8c-11.32-.15-22-3.06-32.32-7.43a9.57,9.57,0,0,1-2.64-1.64v4.06c0,14.79,44.47,17.39,51.56,3.87A112.48,112.48,0,0,1,36.14,139.8Z"/><path class="cls-132" d="M12.45,17.14a5.52,5.52,0,0,1-.28-1.55c4.2,2.67,26.07,2.1,30.59.11a10.15,10.15,0,0,1-.15,1.65C41.91,19.86,13.47,20.75,12.45,17.14Z"/><path class="cls-133" d="M11.5,15.19c-.66-1.32-.51-11.74-.12-12.77,0-2.89,32-2.73,32-.11.42.71.51,11.78.15,13.09C42.83,18.09,12.59,19,11.5,15.19Z"/><path class="cls-134" d="M11.5,15.19A12.06,12.06,0,0,1,11.11,12V5.44a16.79,16.79,0,0,1,.27-3h0a.71.71,0,0,0,.27.33V15.48a.94.94,0,0,1-.15-.29Zm1.19-12v13a4.11,4.11,0,0,1-.52-.27V3l.52.2Zm1,.29V16.6l-.49-.16V3.4l.49.12Zm1,.22V16.86l-.47-.11V3.65l.47.09Zm1,.17V17.06L15.35,17V3.84l.45.07Zm1,.14V17.22l-.42-.06V4l.42.06Zm1,.12V17.35l-.4,0V4.13l.4,0Zm1,.1V17.45l-.38,0V4.24l.38,0Zm1,.09V17.54l-.36,0V4.33l.36,0Zm1,.07V17.6l-.33,0V4.41l.33,0Zm1,.06V17.66l-.31,0V4.48l.31,0Zm1,0V17.7h-.29V4.53Zm1,0V17.73h-.26V4.57Zm1,0V17.74H24.9V4.6Zm1,0V17.75H26V4.62Zm1,0V17.75H27V4.62Zm1.3,0V17.73h-.2V4.62Zm1.06,0V17.7h-.22V4.61Zm1.06,0V17.67h-.24V4.58Zm1.06,0V17.62h-.26V4.55Zm1.06,0V17.57l-.29,0V4.51Zm1.06-.06V17.5l-.31,0V4.45l.31,0Zm1.06-.07V17.42l-.33,0V4.38l.33,0Zm1.06-.09V17.32l-.36,0V4.3l.36,0ZM37,4.16V17.22l-.38,0V4.2l.38,0ZM38.06,4V17.09l-.4.05V4.09l.4-.05Zm1.06-.15v13L38.7,17V4l.42-.06Zm1.06-.18V16.76l-.45.08V3.79l.45-.08Zm1.06-.23V16.53l-.47.11V3.58l.47-.11Zm1.06-.31V16.23l-.49.15V3.32l.49-.16Zm1.06-.66v13.2a2.12,2.12,0,0,1-.52.32V2.92A1.22,1.22,0,0,0,43.37,2.5Z"/><ellipse class="cls-135" cx="27.39" cy="2.31" rx="16.03" ry="2.31"/><path class="cls-136" d="M27.39,0c8.37,0,15.25.93,16,2.11-.72,1.18-7.6,2.11-16,2.11s-15.24-.93-16-2.11C12.14.93,19,0,27.39,0Z"/><path class="cls-137" d="M53.25,121.12a2.48,2.48,0,0,0-.43,1.26,2.11,2.11,0,0,0,0,.22c-13.89,7.51-36.65,6.29-50.65-.19v0a2.34,2.34,0,0,0-.61-1.46C15.4,127.8,39.94,129.29,53.25,121.12Z"/><path class="cls-138" d="M13.36,36.1H9.85C5.87,50.8,1.18,61,1.18,65.56v54c0,1.56,1,1.58,1,2.82s-1,1.33-1,2.94v9.46c0,4.39,3.92,7.7,9.62,9.84-.82-8.84-.67-17.75-.88-26.64-.31-13.52.25-27,.25-40.53,0-13.18-.3-26.32,2.68-39.24C13,37.52,13.19,36.81,13.36,36.1Z"/></g><ellipse class="cls-43" cx="27.44" cy="35.94" rx="18.44" ry="2.76"/><path class="cls-139" d="M27.44,38.09c-10.45,0-17-1.24-17.78-2.14C10.41,35,17,33.8,27.44,33.8s17,1.24,17.78,2.14C44.46,36.84,37.89,38.09,27.44,38.09Z"/><path d="M18.79,134.67h0l-1,.53-.15-.58,1.24-.66h.65v5.67h-.74Z"/><path d="M23.7,133.43h.77v6.2H23.7Z"/><path d="M26.61,134.21a.48.48,0,0,1-1,0,.47.47,0,0,1,.48-.48A.46.46,0,0,1,26.61,134.21Zm-.86,5.41V135.4h.77v4.22Z"/><path d="M28.73,134.19v1.21h1.1V136h-1.1v2.28c0,.52.15.82.58.82a1.69,1.69,0,0,0,.44-.05l0,.58a1.89,1.89,0,0,1-.68.1,1.06,1.06,0,0,1-.83-.32,1.57,1.57,0,0,1-.3-1.1V136h-.65v-.58H28v-1Z"/><path d="M30.69,136.72c0-.5,0-.93,0-1.32h.67l0,.83h0a1.27,1.27,0,0,1,1.17-.92.82.82,0,0,1,.22,0v.72a1.14,1.14,0,0,0-.26,0,1.08,1.08,0,0,0-1,1,2.16,2.16,0,0,0,0,.36v2.25h-.76Z"/><path d="M33.89,137.65a1.35,1.35,0,0,0,1.45,1.47,2.78,2.78,0,0,0,1.17-.22l.13.55a3.42,3.42,0,0,1-1.41.26,2,2,0,0,1-2.08-2.13,2.05,2.05,0,0,1,2-2.28,1.79,1.79,0,0,1,1.75,2,2.89,2.89,0,0,1,0,.36Zm2.25-.55a1.09,1.09,0,0,0-1.06-1.25,1.27,1.27,0,0,0-1.18,1.25Z"/></svg>