<svg id="Layer_1" data-name="Layer 1" xmlns="http://www.w3.org/2000/svg" xmlns:xlink="http://www.w3.org/1999/xlink" viewBox="0 0 62.65 62.65"><defs><style>.cls-1{fill:#73adff;}.cls-2{fill:#808184;}.cls-3{fill:url(#linear-gradient);}.cls-4{fill:#d4cedb;}.cls-5{fill:#000009;}.cls-6{fill:#bcdef7;}.cls-7{fill:url(#linear-gradient-2);}.cls-8,.cls-9{opacity:0.5;}.cls-8{fill:url(#linear-gradient-3);}.cls-9{fill:url(#linear-gradient-4);}.cls-10{fill:#225173;}.cls-11{fill:url(#linear-gradient-5);}.cls-12{fill:url(#linear-gradient-6);}.cls-13{fill:url(#linear-gradient-7);}.cls-14{fill:#fffffb;}.cls-15{fill:url(#linear-gradient-9);}.cls-16{fill:#daf8ff;}.cls-17{fill:url(#linear-gradient-12);}.cls-18{fill:url(#linear-gradient-13);}.cls-19{fill:url(#linear-gradient-14);}.cls-20{fill:url(#linear-gradient-15);}.cls-21{fill:url(#linear-gradient-16);}.cls-22{fill:url(#radial-gradient);}.cls-23{fill:#eaffff;}.cls-24{fill:url(#linear-gradient-17);}.cls-25{fill:url(#linear-gradient-18);}.cls-26{fill:url(#linear-gradient-19);}.cls-27{fill:#fff;}.cls-28{fill:#c1e5f8;}.cls-29{fill:#e2f9ff;}.cls-30{fill:url(#linear-gradient-20);}.cls-31{opacity:0.58;fill:url(#GradientFill_15);}.cls-32{fill:#489ce0;}.cls-33{fill:url(#linear-gradient-21);}.cls-34{fill:url(#linear-gradient-22);}.cls-35{fill:#231f1f;}.cls-36{fill:url(#linear-gradient-23);}.cls-37{fill:url(#linear-gradient-24);}.cls-38{fill:url(#linear-gradient-25);}.cls-39{fill:url(#linear-gradient-26);}.cls-40{fill:#8bb3d0;}.cls-41{fill:#001634;}</style><linearGradient id="linear-gradient" x1="9.33" y1="53.32" x2="52.39" y2="10.26" gradientUnits="userSpaceOnUse"><stop offset="0" stop-color="#babcbf" stop-opacity="0"/><stop offset="1" stop-color="#b8bcc1"/></linearGradient><linearGradient id="linear-gradient-2" x1="31.33" y1="4.07" x2="31.33" y2="52.18" gradientUnits="userSpaceOnUse"><stop offset="0" stop-color="#89b8e4" stop-opacity="0"/><stop offset="1" stop-color="#a0c3e4"/></linearGradient><linearGradient id="linear-gradient-3" x1="28.65" y1="28.74" x2="12.07" y2="10.57" gradientUnits="userSpaceOnUse"><stop offset="0" stop-color="#e2f3ff" stop-opacity="0.1"/><stop offset="1" stop-color="#e2f3ff"/></linearGradient><linearGradient id="linear-gradient-4" x1="36.51" y1="36.51" x2="59.07" y2="59.07" xlink:href="#linear-gradient-3"/><linearGradient id="linear-gradient-5" x1="3013.3" y1="31.05" x2="3047.26" y2="31.05" gradientTransform="matrix(-1, 0, 0, 1, 3080.82, 0)" gradientUnits="userSpaceOnUse"><stop offset="0" stop-color="#b7e2f5"/><stop offset="0.06" stop-color="#c2e9f8"/><stop offset="0.17" stop-color="#d0f2fc"/><stop offset="0.3" stop-color="#d8f7fe"/><stop offset="0.56" stop-color="#daf8ff"/><stop offset="0.74" stop-color="#d7f6fe"/><stop offset="0.86" stop-color="#cef1fc"/><stop offset="0.96" stop-color="#c0e7f7"/><stop offset="1" stop-color="#b7e2f5"/></linearGradient><linearGradient id="linear-gradient-6" x1="3039.24" y1="32.24" x2="3059.38" y2="32.24" gradientTransform="matrix(-1, 0, 0, 1, 3080.82, 0)" gradientUnits="userSpaceOnUse"><stop offset="0" stop-color="#fff"/><stop offset="0.32" stop-color="#f8fbfb"/><stop offset="0.79" stop-color="#e5eff0"/><stop offset="1" stop-color="#dae9ea"/></linearGradient><linearGradient id="linear-gradient-7" x1="3039.03" y1="32.5" x2="3060.33" y2="32.5" gradientTransform="matrix(-1, 0, 0, 1, 3080.82, 0)" gradientUnits="userSpaceOnUse"><stop offset="0" stop-color="#9fd5e8"/><stop offset="0.09" stop-color="#b2e1f2"/><stop offset="0.19" stop-color="#c0eaf9"/><stop offset="0.32" stop-color="#c8effe"/><stop offset="0.56" stop-color="#caf1ff"/><stop offset="0.72" stop-color="#c7effe"/><stop offset="0.83" stop-color="#beeaf9"/><stop offset="0.92" stop-color="#b0e0f1"/><stop offset="1" stop-color="#9cd4e7"/></linearGradient><linearGradient id="linear-gradient-9" x1="3039.03" y1="42.7" x2="3060.39" y2="42.7" xlink:href="#linear-gradient-5"/><linearGradient id="linear-gradient-12" x1="3039.03" y1="34.38" x2="3060.33" y2="34.38" xlink:href="#linear-gradient-7"/><linearGradient id="linear-gradient-13" x1="3039.24" y1="33.03" x2="3059.36" y2="33.03" gradientTransform="matrix(-1, 0, 0, 1, 3080.82, 0)" gradientUnits="userSpaceOnUse"><stop offset="0" stop-color="#eaffff"/><stop offset="0.32" stop-color="#e3fbfe"/><stop offset="0.79" stop-color="#d0effd"/><stop offset="1" stop-color="#c5e9fc"/></linearGradient><linearGradient id="linear-gradient-14" x1="3039.03" y1="33.03" x2="3060.33" y2="33.03" gradientTransform="matrix(-1, 0, 0, 1, 3080.82, 0)" gradientUnits="userSpaceOnUse"><stop offset="0" stop-color="#b3e0f3"/><stop offset="0.12" stop-color="#c0e9fa"/><stop offset="0.27" stop-color="#c8effe"/><stop offset="0.56" stop-color="#caf1ff"/><stop offset="0.98" stop-color="#cdeeff"/><stop offset="1" stop-color="#cdeeff"/></linearGradient><linearGradient id="linear-gradient-15" x1="3039.24" y1="34.11" x2="3059.36" y2="34.11" gradientTransform="matrix(-1, 0, 0, 1, 3080.82, 0)" gradientUnits="userSpaceOnUse"><stop offset="0.31" stop-color="#dffaff"/><stop offset="1" stop-color="#b0def8"/></linearGradient><linearGradient id="linear-gradient-16" x1="3039.03" y1="34.11" x2="3060.33" y2="34.11" gradientTransform="matrix(-1, 0, 0, 1, 3080.82, 0)" gradientUnits="userSpaceOnUse"><stop offset="0" stop-color="#c0e7f9"/><stop offset="0.19" stop-color="#c8effe"/><stop offset="0.56" stop-color="#caf1ff"/><stop offset="0.85" stop-color="#c8eefe"/><stop offset="1" stop-color="#c3e8fb"/></linearGradient><radialGradient id="radial-gradient" cx="3049.69" cy="49.94" r="7.34" gradientTransform="matrix(-1, 0, 0, 1, 3080.82, 0)" gradientUnits="userSpaceOnUse"><stop offset="0" stop-color="#b7e2f5"/><stop offset="0.33" stop-color="#bde6f7"/><stop offset="0.75" stop-color="#cdf0fb"/><stop offset="1" stop-color="#daf8ff"/></radialGradient><linearGradient id="linear-gradient-17" x1="3039.24" y1="50.49" x2="3059.36" y2="50.49" gradientTransform="matrix(-1, 0, 0, 1, 3080.82, 0)" gradientUnits="userSpaceOnUse"><stop offset="0" stop-color="#e1fbff"/><stop offset="1" stop-color="#c5e8f6"/></linearGradient><linearGradient id="linear-gradient-18" x1="3051.95" y1="38.15" x2="3054.31" y2="38.15" gradientTransform="matrix(-1, 0, 0, 1, 3080.82, 0)" gradientUnits="userSpaceOnUse"><stop offset="0" stop-color="#daf8ff"/><stop offset="0.33" stop-color="#d4f4fd"/><stop offset="0.75" stop-color="#c4eaf9"/><stop offset="1" stop-color="#b7e2f5"/></linearGradient><linearGradient id="linear-gradient-19" x1="3053.34" y1="38.1" x2="3057.87" y2="38.1" gradientTransform="matrix(-1, 0, 0, 1, 3080.82, 0)" gradientUnits="userSpaceOnUse"><stop offset="0" stop-color="#b7e2f5"/><stop offset="0.26" stop-color="#bde5f6"/><stop offset="0.6" stop-color="#cdeff9"/><stop offset="0.98" stop-color="#e8feff"/><stop offset="1" stop-color="#eaffff"/></linearGradient><linearGradient id="linear-gradient-20" x1="3013.58" y1="49.55" x2="3047.54" y2="49.55" xlink:href="#linear-gradient-5"/><linearGradient id="GradientFill_15" x1="19.87" y1="46.58" x2="42.46" y2="46.58" gradientUnits="userSpaceOnUse"><stop offset="0" stop-color="#2e78c1"/><stop offset="0.37" stop-color="#2e8edb"/><stop offset="0.63" stop-color="#2e99e3"/><stop offset="1" stop-color="#2e7ac6"/></linearGradient><linearGradient id="linear-gradient-21" x1="21.1" y1="38.67" x2="41.21" y2="38.67" gradientUnits="userSpaceOnUse"><stop offset="0" stop-color="#2f92e0"/><stop offset="0.48" stop-color="#72b5e3"/><stop offset="1" stop-color="#2f92e0"/></linearGradient><linearGradient id="linear-gradient-22" x1="3040.94" y1="28.05" x2="3045.29" y2="28.05" gradientTransform="matrix(-1, 0, 0, 1, 3080.82, 0)" gradientUnits="userSpaceOnUse"><stop offset="0.09" stop-color="#c5eafc"/><stop offset="0.37" stop-color="#c1e7f9"/><stop offset="0.63" stop-color="#b6def1"/><stop offset="0.88" stop-color="#a3cee3"/><stop offset="1" stop-color="#97c4da"/></linearGradient><linearGradient id="linear-gradient-23" x1="3039.27" y1="31.6" x2="3060.03" y2="31.6" gradientTransform="matrix(-1, 0, 0, 1, 3080.82, 0)" gradientUnits="userSpaceOnUse"><stop offset="0.75" stop-color="#daf8ff"/><stop offset="0.82" stop-color="#d6f5fd"/><stop offset="0.89" stop-color="#cbecf7"/><stop offset="0.95" stop-color="#b8dded"/><stop offset="1" stop-color="#a5cee3"/></linearGradient><linearGradient id="linear-gradient-24" x1="3039.27" y1="31.6" x2="3060.03" y2="31.6" xlink:href="#linear-gradient-23"/><linearGradient id="linear-gradient-25" x1="3039.27" y1="29.37" x2="3060.03" y2="29.37" gradientTransform="matrix(-1, 0, 0, 1, 3080.82, 0)" gradientUnits="userSpaceOnUse"><stop offset="0.75" stop-color="#c5eafc"/><stop offset="0.83" stop-color="#c1e7f9"/><stop offset="0.9" stop-color="#b6def1"/><stop offset="0.97" stop-color="#a3cee3"/><stop offset="1" stop-color="#97c4da"/></linearGradient><linearGradient id="linear-gradient-26" x1="3039.03" y1="33.12" x2="3060.33" y2="33.12" xlink:href="#linear-gradient-7"/></defs><title>left-litre-icon</title><path class="cls-1" d="M31.33,58.35a27,27,0,1,1,27-27A27.05,27.05,0,0,1,31.33,58.35Z"/><path class="cls-2" d="M31.33,62.65A31.33,31.33,0,1,1,62.65,31.33,31.36,31.36,0,0,1,31.33,62.65Z"/><path class="cls-3" d="M31.33,62.65A31.33,31.33,0,1,1,62.65,31.33,31.36,31.36,0,0,1,31.33,62.65Z"/><path class="cls-4" d="M31.33,59.78A28.46,28.46,0,1,1,59.78,31.33,28.49,28.49,0,0,1,31.33,59.78Z"/><path class="cls-5" d="M31.33,59.3a28,28,0,1,1,28-28A28,28,0,0,1,31.33,59.3Z"/><path class="cls-6" d="M31.33,58.59A27.26,27.26,0,1,1,58.59,31.33,27.29,27.29,0,0,1,31.33,58.59Z"/><circle class="cls-7" cx="31.33" cy="31.33" r="26.78"/><path class="cls-8" d="M30.14,28.55V7.2A24.16,24.16,0,0,0,7.33,28.55Z"/><path class="cls-9" d="M47.17,13.09A24.15,24.15,0,0,1,13.09,47.17,24.15,24.15,0,1,0,47.17,13.09Z"/><path class="cls-10" d="M24.78,22.13v-.84a.5.5,0,0,0-.5-.5H21.89v-7a.5.5,0,0,0-.5-.5H20.31a.5.5,0,0,0-.5.5v8.32a.5.5,0,0,0,.5.5h4A.5.5,0,0,0,24.78,22.13Z"/><rect class="cls-10" x="24.91" y="15.04" width="2.08" height="7.59" rx="0.5" ry="0.5"/><path class="cls-10" d="M26,15a1.21,1.21,0,0,0,.88-.36,1.26,1.26,0,0,0,0-1.76,1.23,1.23,0,0,0-1.74,0,1.27,1.27,0,0,0,0,1.75A1.19,1.19,0,0,0,26,15Z"/><path class="cls-10" d="M27.17,16.43a.5.5,0,0,0,.5.5H28v3.51a2,2,0,0,0,2.2,2.19H31.3a.5.5,0,0,0,.5-.5v-.89a.5.5,0,0,0-.5-.5h-.89a1.06,1.06,0,0,1-.27,0h0a.67.67,0,0,1,0-.28V16.93h1.19a.5.5,0,0,0,.5-.5v-.89a.5.5,0,0,0-.5-.5H30.1V13.91a.5.5,0,0,0-.5-.5H28.51a.5.5,0,0,0-.5.5V15h-.34a.5.5,0,0,0-.5.5Z"/><path class="cls-10" d="M32.49,22.63h1.08a.5.5,0,0,0,.5-.5v-3.6a1.64,1.64,0,0,1,.29-1.17,1.23,1.23,0,0,1,.91-.29h.29a.5.5,0,0,0,.5-.5V15.43a.5.5,0,0,0-.5-.5,2.71,2.71,0,0,0-1.52.42.5.5,0,0,0-.46-.31H32.49a.5.5,0,0,0-.5.5v6.59A.5.5,0,0,0,32.49,22.63Z"/><path class="cls-10" d="M42.27,16A3.86,3.86,0,0,0,37,16a3.91,3.91,0,0,0-1,2.81,4,4,0,0,0,1,2.81,3.48,3.48,0,0,0,2.65,1.09,3.58,3.58,0,0,0,2.19-.66A3.53,3.53,0,0,0,43,20.41a.5.5,0,0,0-.47-.67H41.39a.5.5,0,0,0-.46.3,1.27,1.27,0,0,1-.49.57,1.5,1.5,0,0,1-.85.22,1.45,1.45,0,0,1-1.09-.42,1.54,1.54,0,0,1-.39-.7h4.61a.5.5,0,0,0,.49-.42,4.48,4.48,0,0,0,.05-.73A3.59,3.59,0,0,0,42.27,16Zm-2.66.87a1.49,1.49,0,0,1,1.09.43,1.41,1.41,0,0,1,.38.66H38.14a1.51,1.51,0,0,1,.39-.67A1.47,1.47,0,0,1,39.61,16.83Z"/><path d="M20.31,13.81h1.08v7.48h2.89v.84h-4Z"/><path d="M26.48,14.27a.71.71,0,0,1-.52.22.69.69,0,0,1-.52-.22.73.73,0,0,1-.21-.53.72.72,0,0,1,.21-.53.73.73,0,0,1,1,0,.76.76,0,0,1,0,1.06Zm-1.07,7.86V15.54h1.08v6.59Z"/><path d="M30.41,21.24h.89v.89H30.21a1.5,1.5,0,0,1-1.7-1.69v-4h-.84v-.89h.84V13.91H29.6v1.63h1.69v.89H29.6v4a.67.67,0,0,0,.81.8Z"/><path d="M33.57,15.54v1.12a2,2,0,0,1,2-1.22v1.14h-.29A1.7,1.7,0,0,0,34,17a2.12,2.12,0,0,0-.43,1.52v3.6H32.49V15.54Z"/><path d="M39.59,22.24a3,3,0,0,1-2.28-.94,3.46,3.46,0,0,1-.88-2.47,3.41,3.41,0,0,1,.89-2.47,3.36,3.36,0,0,1,4.59,0,3.09,3.09,0,0,1,.86,2.25,4.09,4.09,0,0,1,0,.65H37.54a2.28,2.28,0,0,0,.61,1.55,1.94,1.94,0,0,0,1.44.57,2,2,0,0,0,1.12-.3,1.78,1.78,0,0,0,.67-.79h1.16a3,3,0,0,1-1.06,1.43A3.08,3.08,0,0,1,39.59,22.24Zm1.46-5.33a2.11,2.11,0,0,0-2.87,0,2.24,2.24,0,0,0-.63,1.53h4.1A2.07,2.07,0,0,0,41.05,16.9Z"/><path class="cls-10" d="M39,27.29a20.77,20.77,0,0,0-7.85-1.38,20.77,20.77,0,0,0-7.85,1.38c-2.33,1-3.61,2.38-3.61,3.92A3.4,3.4,0,0,0,20,32.37c.11,3.51.56,17.83.56,17.83a2.49,2.49,0,0,0,.24,1.06,5.59,5.59,0,0,0,3,2.45A19.39,19.39,0,0,0,31.13,55a19.4,19.4,0,0,0,7.32-1.29,6.38,6.38,0,0,0,2.72-1.92,2.85,2.85,0,0,0,.49-1h.06l.65-18.38a.81.81,0,0,0,.06-.13,2.82,2.82,0,0,0,.2-1C42.63,29.66,41.35,28.27,39,27.29Z"/><path class="cls-11" d="M33.62,30.22h0a.08.08,0,0,1,.08,0,1.65,1.65,0,0,0,.25.22,1.83,1.83,0,0,0,1,.45l.05,0h0a.08.08,0,0,1,0,.05,1.29,1.29,0,0,0,.29.63,2.34,2.34,0,0,0,.2.18l.07.06s0,0,0,0a2,2,0,0,1-1.72-.5A1.1,1.1,0,0,1,33.62,30.22Z"/><path class="cls-12" d="M41.58,32.23h0v0Z"/><path class="cls-13" d="M41.69,32a2.25,2.25,0,0,0,.1-.31l0,1.38a2.36,2.36,0,0,1-.19.29l0-1.1A1.42,1.42,0,0,0,41.69,32Z"/><path class="cls-14" d="M41.2,29.35a2.53,2.53,0,0,1,.49.73,2.28,2.28,0,0,1,0,1.84.08.08,0,1,1-.14-.06,2.1,2.1,0,0,0,0-1.71,2.43,2.43,0,0,0-.46-.68.08.08,0,0,1,.11-.11Z"/><path class="cls-11" d="M33.62,30.22h0a.08.08,0,0,1,.08,0,1.65,1.65,0,0,0,.25.22,1.83,1.83,0,0,0,1,.45l.05,0h0a.08.08,0,0,1,0,.05,1.29,1.29,0,0,0,.29.63,2.34,2.34,0,0,0,.2.18l.07.06s0,0,0,0a2,2,0,0,1-1.72-.5A1.1,1.1,0,0,1,33.62,30.22Z"/><path class="cls-15" d="M20.52,30.95a1.94,1.94,0,0,0,0,.27,3.49,3.49,0,0,0,2.37,3c1.17.53-1.84,4.17,4.56,1.27a24,24,0,0,0,3.73.28A23.19,23.19,0,0,0,36,35.24c3.39-.6,5.43-2.27,5.71-3.27a2.25,2.25,0,0,0,.1-.31L41.13,50.2h0c0,2.34-4.5,4.24-10,4.24s-10-1.9-10-4.24c0-.16-.6-19.26-.6-19.26Z"/><path class="cls-12" d="M41.58,32.23h0v0Z"/><path class="cls-16" d="M40,51.46a1.9,1.9,0,0,0,0-3V35.05l0,0a1.37,1.37,0,0,0,.57-.8,5.79,5.79,0,0,0,.49-.4,3.87,3.87,0,0,0,.45-.49L41,49.83h0a2.44,2.44,0,0,1-1,1.79Z"/><path class="cls-16" d="M21.69,50.7c.87,1.79,4.77,3.13,9.44,3.13A20.23,20.23,0,0,0,36.91,53v.13a20,20,0,0,1-5.8.8c-4.79,0-8.78-1.45-9.66-3.36Z"/><path class="cls-13" d="M41.69,32a2.25,2.25,0,0,0,.1-.31l0,1.38a2.36,2.36,0,0,1-.19.29l0-1.1A1.42,1.42,0,0,0,41.69,32Z"/><path class="cls-17" d="M39.87,34a9.49,9.49,0,0,1-1.5.77l0,.69A13,13,0,0,1,36,36a24.06,24.06,0,0,1-4.9.48,25.08,25.08,0,0,1-3.6-.25,6.07,6.07,0,0,0,0-.8,23.94,23.94,0,0,0,3.67.28A23.07,23.07,0,0,0,36,35.24c3.08-.55,5-2,5.58-3a2.51,2.51,0,0,1-.34.55A5.63,5.63,0,0,1,39.87,34Z"/><path class="cls-18" d="M41.09,33.82c0-.43.09-.76.14-1a2.51,2.51,0,0,0,.34-.55v0l0,1.1A3.87,3.87,0,0,1,41.09,33.82Z"/><path class="cls-19" d="M41.09,33.82c0-.43.09-.76.14-1a2.51,2.51,0,0,0,.34-.55v0l0,1.1A3.87,3.87,0,0,1,41.09,33.82Z"/><path class="cls-20" d="M39.87,34a5.63,5.63,0,0,0,1.36-1.16c0,.26-.09.6-.14,1a8.41,8.41,0,0,1-2.75,1.59l0-.69A9.49,9.49,0,0,0,39.87,34Z"/><path class="cls-21" d="M39.87,34a5.63,5.63,0,0,0,1.36-1.16c0,.26-.09.6-.14,1a8.41,8.41,0,0,1-2.75,1.59l0-.69A9.49,9.49,0,0,0,39.87,34Z"/><path class="cls-22" d="M37.8,47.5c0,2.29-4.4,4.15-9.84,4.15a19.43,19.43,0,0,1-6.27-1,1.72,1.72,0,0,1-.18-.76c0-2.15,4.31-3.89,9.62-3.89a18.94,18.94,0,0,1,6.69,1.1l0,.36Z"/><path class="cls-23" d="M31.22,46c.57,0,1.13,0,1.68.06l-1.17,0c-5.43,0-9.84,1.78-9.84,4,0,2,3.53,3.6,8.16,3.92-4.88-.23-8.66-1.91-8.66-4C21.38,47.77,25.78,46,31.22,46Z"/><path class="cls-22" d="M40.75,49.94c0,2.15-4.31,3.89-9.62,3.89-4.67,0-8.56-1.35-9.44-3.13a19.43,19.43,0,0,0,6.27,1c5.43,0,9.84-1.86,9.84-4.15h0l0-.36C39.63,47.85,40.75,48.84,40.75,49.94Z"/><path class="cls-24" d="M40.75,49.94c0,2.15-4.31,3.89-9.62,3.89-4.67,0-8.56-1.35-9.44-3.13a19.43,19.43,0,0,0,6.27,1c5.43,0,9.84-1.86,9.84-4.15h0l0-.36C39.63,47.85,40.75,48.84,40.75,49.94Z"/><path class="cls-25" d="M27.35,35.61a11.51,11.51,0,0,1-.84,4.9,3.92,3.92,0,0,0,1.83.12c.84-.2.43-4.64.43-4.78S27.35,35.61,27.35,35.61Z"/><path class="cls-26" d="M27.48,35.69s0,3.86-1,4.82c0,0-2.32-.29-3.57-4.29C22.94,36.22,23.44,37.52,27.48,35.69Z"/><path d="M41.92,30.94l-.68,19.31h0c0,1.14-1.09,2.2-3,3a18.9,18.9,0,0,1-7.13,1.25A18.9,18.9,0,0,1,24,53.25c-1.92-.81-3-1.9-3-3.05,0-.15-.6-19.07-.6-19.26h.12c0,.78.6,19.11.6,19.26a2.29,2.29,0,0,0,.77,1.61A6.69,6.69,0,0,0,24,53.14a18.78,18.78,0,0,0,7.08,1.24,18.78,18.78,0,0,0,7.08-1.24,6.69,6.69,0,0,0,2.13-1.34,2.29,2.29,0,0,0,.77-1.61v-.06h0l.68-19.2Z"/><path class="cls-23" d="M40.7,51.05a.1.1,0,0,1,0,.13,6.59,6.59,0,0,1-3.26,2.1.1.1,0,0,1-.06-.18,6.41,6.41,0,0,0,3.17-2A.1.1,0,0,1,40.7,51.05Z"/><path class="cls-23" d="M22,51.54a10,10,0,0,0,4.65,2,.1.1,0,0,1,0,.19,10.17,10.17,0,0,1-4.75-2.09.1.1,0,1,1,.13-.14Z"/><path class="cls-27" d="M20.87,33.42l.52,17a.1.1,0,0,1-.19,0l-.52-17a.1.1,0,0,1,.19,0Z"/><path class="cls-23" d="M27,35.5a.06.06,0,0,1,0,.08,8.19,8.19,0,0,1-3.45.85.06.06,0,0,1,0-.11,8.26,8.26,0,0,0,3.39-.84A.06.06,0,0,1,27,35.5Z"/><path class="cls-14" d="M40,33.64a.06.06,0,0,1,0,.08,9.91,9.91,0,0,1-2.15,1,20.61,20.61,0,0,1-6.46,1,.06.06,0,0,1,0-.12,20.5,20.5,0,0,0,6.42-1,9.82,9.82,0,0,0,2.13-1A.06.06,0,0,1,40,33.64Z"/><path class="cls-28" d="M41.09,35.72a11.83,11.83,0,0,0,.39-2.28l.08-.1-.32,9-.39.52Z"/><path class="cls-29" d="M40.85,42.88q-.38.51-.81,1L40.24,38a14.22,14.22,0,0,0,.85-2.3Z"/><path class="cls-30" d="M33.34,48.72h0a.08.08,0,0,1,.08,0,1.65,1.65,0,0,0,.25.22,1.83,1.83,0,0,0,1,.45l.05,0h0a.08.08,0,0,1,0,.05,1.29,1.29,0,0,0,.29.63,2.34,2.34,0,0,0,.2.18l.07.06s0,0,0,0a2,2,0,0,1-1.72-.5A1.1,1.1,0,0,1,33.34,48.72Z"/><path class="cls-14" d="M41,29.35a2.53,2.53,0,0,1,.49.73,2.28,2.28,0,0,1,0,1.84.08.08,0,1,1-.14-.06,2.1,2.1,0,0,0,0-1.71,2.43,2.43,0,0,0-.46-.68.08.08,0,0,1,.11-.11Z"/><path class="cls-31" d="M20.67,38.67c0,.63.35,11.51.35,11.53,0,1.16,1.06,2.24,3,3.05a18.9,18.9,0,0,0,7.13,1.25,18.9,18.9,0,0,0,7.13-1.25c1.89-.8,2.94-1.86,3-3h0l.35-11.59Z"/><ellipse class="cls-32" cx="31.15" cy="38.67" rx="10.43" ry="1.56"/><path class="cls-33" d="M31.15,39.88c-5.91,0-9.63-.7-10.06-1.21.43-.51,4.14-1.21,10.06-1.21s9.63.7,10.06,1.21C40.78,39.17,37.07,39.88,31.15,39.88Z"/><rect x="28.03" y="52.8" width="1.98" height="0.19"/><rect x="28.03" y="51.05" width="1.98" height="0.19"/><rect x="28.03" y="49.31" width="1.98" height="0.19"/><rect x="28.03" y="47.57" width="1.98" height="0.19"/><rect x="28.03" y="45.82" width="2.92" height="0.19"/><rect x="28.03" y="44.08" width="1.98" height="0.19"/><rect x="28.03" y="42.34" width="1.98" height="0.19"/><rect x="28.03" y="40.59" width="1.98" height="0.19"/><rect x="28.03" y="38.85" width="1.98" height="0.19"/><rect x="28.03" y="37.11" width="2.92" height="0.19"/><path d="M31.71,52.91c0,.27-.1.41-.27.41s-.26-.14-.26-.4.11-.41.27-.41S31.71,52.67,31.71,52.91Zm-.43,0c0,.2.06.32.16.32s.16-.13.16-.33,0-.32-.16-.32S31.28,52.71,31.28,52.93Z"/><path d="M31.84,52.89c0-.06,0-.11,0-.16h.09v.09h0a.2.2,0,0,1,.18-.11.17.17,0,0,1,.16.12h0a.24.24,0,0,1,.07-.08.2.2,0,0,1,.13,0c.08,0,.19.05.19.25v.34h-.1V53c0-.11,0-.18-.13-.18a.14.14,0,0,0-.13.1.17.17,0,0,0,0,.05v.36h-.1V53c0-.09,0-.16-.12-.16a.14.14,0,0,0-.13.11.15.15,0,0,0,0,.05v.35h-.1Z"/><path d="M32.84,52.46H33v.86h-.11Z"/><path d="M31.42,36.94h0l-.14.07,0-.08.17-.09h.09v.78h-.1Z"/><path d="M32.09,36.77h.11v.86h-.11Z"/><path d="M32.5,36.88a.07.07,0,0,1-.13,0,.06.06,0,0,1,.07-.07A.06.06,0,0,1,32.5,36.88Zm-.12.75V37h.11v.58Z"/><path d="M32.79,36.87V37h.15v.08h-.15v.31c0,.07,0,.11.08.11h.06v.08h-.09a.15.15,0,0,1-.11,0,.22.22,0,0,1,0-.15v-.32h-.09V37h.09V36.9Z"/><path d="M33.06,37.22c0-.07,0-.13,0-.18h.09v.11h0a.17.17,0,0,1,.16-.13h0v.1h0a.15.15,0,0,0-.14.14.3.3,0,0,0,0,0v.31h-.1Z"/><path d="M33.5,37.35a.19.19,0,0,0,.2.2.38.38,0,0,0,.16,0l0,.08a.47.47,0,0,1-.19,0,.27.27,0,0,1-.29-.29.28.28,0,0,1,.27-.31.25.25,0,0,1,.24.27.4.4,0,0,1,0,0Zm.31-.08a.15.15,0,0,0-.15-.17.18.18,0,0,0-.16.17Z"/><path d="M31.65,45.65h-.3l0,.2h.06a.33.33,0,0,1,.17,0,.22.22,0,0,1,.11.2.27.27,0,0,1-.29.27.38.38,0,0,1-.2,0l0-.08a.35.35,0,0,0,.17,0,.17.17,0,0,0,.19-.17c0-.1-.07-.17-.23-.17h-.11l.05-.38h.37Z"/><path d="M32.33,45.94c0,.27-.1.41-.27.41s-.26-.14-.26-.4.11-.41.27-.41S32.33,45.69,32.33,45.94Zm-.43,0c0,.2.06.32.16.32s.16-.13.16-.33,0-.32-.16-.32S31.9,45.74,31.9,46Z"/><path d="M32.94,45.94c0,.27-.1.41-.27.41s-.26-.14-.26-.4.11-.41.27-.41S32.94,45.69,32.94,45.94Zm-.43,0c0,.2.06.32.16.32s.16-.13.16-.33,0-.32-.16-.32S32.52,45.74,32.52,46Z"/><path d="M33.08,45.92c0-.06,0-.11,0-.16h.09v.09h0a.2.2,0,0,1,.18-.11.17.17,0,0,1,.16.12h0a.24.24,0,0,1,.07-.08.2.2,0,0,1,.13,0c.08,0,.19.05.19.25v.34h-.1V46c0-.11,0-.18-.13-.18a.14.14,0,0,0-.13.1.17.17,0,0,0,0,.05v.36h-.1V46c0-.09,0-.16-.12-.16a.14.14,0,0,0-.13.11.15.15,0,0,0,0,.05v.35h-.1Z"/><path d="M34.08,45.49h.11v.86h-.11Z"/><path class="cls-34" d="M39.88,29a3.65,3.65,0,0,0-.79.22,13.14,13.14,0,0,0-3.56-1.3l.58-.46c4.21,1-4.68-2.2,2.25.73A8.42,8.42,0,0,1,39.88,29Z"/><path class="cls-35" d="M40.38,28.8A11.56,11.56,0,0,0,35.47,27a14.82,14.82,0,0,1,4.91,2Z"/><path class="cls-36" d="M38.62,28.23a6.93,6.93,0,0,1,2.21,1.38,2.25,2.25,0,0,1,.76,1.58h0a1.78,1.78,0,0,1-.13.66h0a3.59,3.59,0,0,1-1.58,1.65A10.78,10.78,0,0,1,35.93,35h0a22.79,22.79,0,0,1-4.75.48,23.76,23.76,0,0,1-3.69-.28H27.4l-.07,0a14.94,14.94,0,0,1-2.75,1c-.63.14-.91.06-1,0s-.18-.54-.15-.93.08-1.1-.44-1.33a3.93,3.93,0,0,1-1.88-1.58,2.43,2.43,0,0,1-.35-1.14,2.25,2.25,0,0,1,.76-1.58,6.93,6.93,0,0,1,2.21-1.38,19.73,19.73,0,0,1,7.45-1.3A19.73,19.73,0,0,1,38.62,28.23Z"/><path class="cls-37" d="M35.91,34.93h0a10.74,10.74,0,0,0,3.92-1.44,3.55,3.55,0,0,0,1.57-1.62h0a1.74,1.74,0,0,0,.13-.65,2.22,2.22,0,0,0-.75-1.55,6.89,6.89,0,0,0-2.19-1.37A19.69,19.69,0,0,0,31.17,27a19.69,19.69,0,0,0-7.43,1.3,6.89,6.89,0,0,0-2.19,1.37,2.22,2.22,0,0,0-.75,1.55,2.39,2.39,0,0,0,.34,1.12A3.89,3.89,0,0,0,23,33.88c.55.24.5.87.46,1.37s-.06.76.13.89.38.15,1,0a14.9,14.9,0,0,0,2.74-1l.08,0h.09a23.72,23.72,0,0,0,3.69.28A22.75,22.75,0,0,0,35.91,34.93Z"/><path class="cls-38" d="M20.91,31.8s0-.07,0-.09a2.22,2.22,0,0,1,.75-1.55,6.89,6.89,0,0,1,2.19-1.37,19.69,19.69,0,0,1,7.43-1.3,19.69,19.69,0,0,1,7.43,1.3,6.89,6.89,0,0,1,2.19,1.37,2.7,2.7,0,0,1,.64.93,2.26,2.26,0,0,0-.75-1.47,6.89,6.89,0,0,0-2.19-1.37,19.69,19.69,0,0,0-7.43-1.3,19.69,19.69,0,0,0-7.43,1.3,6.89,6.89,0,0,0-2.19,1.37,2.22,2.22,0,0,0-.75,1.55A2.06,2.06,0,0,0,20.91,31.8Z"/><path class="cls-39" d="M20.58,30.95a2,2,0,0,0,0,.27,3.49,3.49,0,0,0,2.37,3,.5.5,0,0,1,.29.39,6.15,6.15,0,0,0-.24.74.49.49,0,0,0-.28-.35,4.08,4.08,0,0,1-2.13-1.89l-.07-2.12Z"/><path class="cls-40" d="M31.17,26.4a20.28,20.28,0,0,0-7.66,1.34c-2.13.9-3.3,2.13-3.3,3.46,0,.21.07,2.11,2.54,3.22.16.07.15.36.12.8s-.08,1.09.38,1.41a1.83,1.83,0,0,0,1.45.1,14.92,14.92,0,0,0,2.78-1,24.35,24.35,0,0,0,3.69.28A23.34,23.34,0,0,0,36,35.52,11.32,11.32,0,0,0,40.15,34,4.12,4.12,0,0,0,42,32.06a2.32,2.32,0,0,0,.17-.86c0-1.33-1.17-2.56-3.3-3.46A20.28,20.28,0,0,0,31.17,26.4Zm0,9a23.72,23.72,0,0,1-3.69-.28H27.4l-.08,0a14.9,14.9,0,0,1-2.74,1c-.62.13-.88.07-1,0s-.16-.52-.13-.89.09-1.13-.46-1.37a3.89,3.89,0,0,1-1.86-1.57,2.39,2.39,0,0,1-.34-1.12,2.22,2.22,0,0,1,.75-1.55,6.89,6.89,0,0,1,2.19-1.37A19.69,19.69,0,0,1,31.17,27a19.69,19.69,0,0,1,7.43,1.3,6.89,6.89,0,0,1,2.19,1.37,2.22,2.22,0,0,1,.75,1.55,1.74,1.74,0,0,1-.13.65h0a3.55,3.55,0,0,1-1.57,1.62,10.74,10.74,0,0,1-3.92,1.44h0A22.75,22.75,0,0,1,31.17,35.43Z"/><path class="cls-14" d="M34.55,26.8a.06.06,0,0,1,0,.11,21.62,21.62,0,0,0-4.22-.24,20.71,20.71,0,0,0-4.06.53A15.15,15.15,0,0,0,22,28.91a.06.06,0,0,1-.06-.1,15.27,15.27,0,0,1,4.32-1.72,20.83,20.83,0,0,1,4.09-.53A21.73,21.73,0,0,1,34.55,26.8Z"/><path class="cls-27" d="M20.48,31.86a4.29,4.29,0,0,0,1.86,2,.06.06,0,1,1-.06.1,4.4,4.4,0,0,1-1.91-2.07.06.06,0,1,1,.11,0Z"/><path class="cls-41" d="M20.5,31a3,3,0,0,0,1.61,2.4,2.9,2.9,0,0,1-1.35-2.23c0-2.31,4.77-4.26,10.41-4.26a17.44,17.44,0,0,1,8.76,2c-1.82-1.28-5.22-2.16-9-2.16C25.27,26.78,20.5,28.73,20.5,31Zm2.68,5.49.09.08c.59.42,1.86.14,4.2-.91a24.31,24.31,0,0,0,3.69.28A23.3,23.3,0,0,0,36,35.48c3.58-.63,5.61-2.4,5.9-3.43a2.29,2.29,0,0,0,.17-.85,3.44,3.44,0,0,0-1.92-2.73A3.26,3.26,0,0,1,41.84,31a2.29,2.29,0,0,1-.17.85c-.29,1-2.32,2.8-5.9,3.43a23.29,23.29,0,0,1-4.85.49,24.26,24.26,0,0,1-3.69-.28C25.07,36.49,23.83,36.8,23.18,36.52Zm-.24-2.62a1.5,1.5,0,0,1,.23,1.19c0,.38-.06.78.15.93a.5.5,0,0,0,.17.07,1.62,1.62,0,0,1-.06-.83c0-.49.08-1.1-.44-1.34Z"/><path class="cls-35" d="M40.38,28.8A11.56,11.56,0,0,0,35.47,27a14.82,14.82,0,0,1,4.91,2Z"/></svg>