<svg id="Layer_1" data-name="Layer 1" xmlns="http://www.w3.org/2000/svg" xmlns:xlink="http://www.w3.org/1999/xlink" viewBox="0 0 62.65 62.65"><defs><style>.cls-1{fill:#73adff;}.cls-2{fill:#808184;}.cls-3{fill:url(#linear-gradient);}.cls-4{fill:#d4cedb;}.cls-5{fill:#000009;}.cls-6{fill:#bcdef7;}.cls-7{fill:url(#linear-gradient-2);}.cls-8,.cls-9{opacity:0.5;}.cls-8{fill:url(#linear-gradient-3);}.cls-9{fill:url(#linear-gradient-4);}.cls-10{fill:url(#linear-gradient-5);}.cls-11{fill:url(#linear-gradient-6);}.cls-12{fill:url(#linear-gradient-7);}.cls-13{fill:url(#linear-gradient-8);}.cls-14{fill:url(#linear-gradient-9);}.cls-15{fill:url(#linear-gradient-10);}.cls-16{fill:url(#linear-gradient-11);}.cls-17{fill:url(#linear-gradient-12);}.cls-18{fill:url(#linear-gradient-13);}.cls-19{fill:url(#linear-gradient-14);}</style><linearGradient id="linear-gradient" x1="9.33" y1="53.32" x2="52.39" y2="10.26" gradientUnits="userSpaceOnUse"><stop offset="0" stop-color="#babcbf" stop-opacity="0"/><stop offset="1" stop-color="#b8bcc1"/></linearGradient><linearGradient id="linear-gradient-2" x1="31.33" y1="4.07" x2="31.33" y2="52.18" gradientUnits="userSpaceOnUse"><stop offset="0" stop-color="#89b8e4" stop-opacity="0"/><stop offset="1" stop-color="#a0c3e4"/></linearGradient><linearGradient id="linear-gradient-3" x1="28.65" y1="28.74" x2="12.07" y2="10.57" gradientUnits="userSpaceOnUse"><stop offset="0" stop-color="#e2f3ff" stop-opacity="0.1"/><stop offset="1" stop-color="#e2f3ff"/></linearGradient><linearGradient id="linear-gradient-4" x1="36.51" y1="36.51" x2="59.07" y2="59.07" xlink:href="#linear-gradient-3"/><linearGradient id="linear-gradient-5" x1="-221.13" y1="-636.2" x2="-220.86" y2="-614.66" gradientTransform="matrix(-1, 0, 0, 1, -207.18, 655.04)" gradientUnits="userSpaceOnUse"><stop offset="0" stop-color="#77bd4b"/><stop offset="0.2" stop-color="#74b947"/><stop offset="0.4" stop-color="#69ae3b"/><stop offset="0.6" stop-color="#589a28"/><stop offset="0.79" stop-color="#417f0c"/><stop offset="0.81" stop-color="#3e7c09"/></linearGradient><linearGradient id="linear-gradient-6" x1="-214.62" y1="-621.52" x2="-222.39" y2="-625.14" gradientTransform="matrix(-1, 0, 0, 1, -207.18, 655.04)" gradientUnits="userSpaceOnUse"><stop offset="0" stop-color="#f2f9ee"/><stop offset="0.09" stop-color="#e1f1d7"/><stop offset="0.31" stop-color="#bbdea5"/><stop offset="0.52" stop-color="#9ed07e"/><stop offset="0.71" stop-color="#88c662"/><stop offset="0.88" stop-color="#7cbf51"/><stop offset="1" stop-color="#77bd4b"/></linearGradient><linearGradient id="linear-gradient-7" x1="-262.25" y1="-636.14" x2="-250.69" y2="-636.14" xlink:href="#linear-gradient-5"/><linearGradient id="linear-gradient-8" x1="-262.25" y1="-636.14" x2="-250.69" y2="-636.14" xlink:href="#linear-gradient-6"/><linearGradient id="linear-gradient-9" x1="477.04" y1="-330.23" x2="484.9" y2="-330.23" gradientTransform="translate(-57.95 593.22) rotate(-45)" gradientUnits="userSpaceOnUse"><stop offset="0.19" stop-color="#3e7c09"/><stop offset="0.21" stop-color="#417f0c"/><stop offset="0.4" stop-color="#589a28"/><stop offset="0.6" stop-color="#69ae3b"/><stop offset="0.8" stop-color="#74b947"/><stop offset="1" stop-color="#77bd4b"/></linearGradient><linearGradient id="linear-gradient-10" x1="-249.74" y1="-620.09" x2="-226.09" y2="-619.85" gradientTransform="matrix(-1, 0, 0, 1, -207.18, 655.04)" gradientUnits="userSpaceOnUse"><stop offset="0" stop-color="#77bd4b"/><stop offset="0.15" stop-color="#71b644"/><stop offset="0.36" stop-color="#60a330"/><stop offset="0.61" stop-color="#448310"/><stop offset="0.71" stop-color="#387502"/><stop offset="0.79" stop-color="#3d7a08"/><stop offset="0.9" stop-color="#4b8a18"/><stop offset="1" stop-color="#5d9f2d"/></linearGradient><linearGradient id="linear-gradient-11" x1="-247.24" y1="-619.8" x2="-243.45" y2="-619.8" xlink:href="#linear-gradient-6"/><linearGradient id="linear-gradient-12" x1="-262.37" y1="-626.74" x2="-250.97" y2="-626.74" xlink:href="#linear-gradient-10"/><linearGradient id="linear-gradient-13" x1="-222.17" y1="-636.14" x2="-252.9" y2="-636.14" gradientTransform="matrix(-1, 0, 0, 1, -207.18, 655.04)" gradientUnits="userSpaceOnUse"><stop offset="0.01" stop-color="#458411"/><stop offset="1" stop-color="#a2d284"/></linearGradient><linearGradient id="linear-gradient-14" x1="-249.87" y1="-639.39" x2="-226.63" y2="-633.27" gradientTransform="matrix(-1, 0, 0, 1, -207.18, 655.04)" xlink:href="#linear-gradient-9"/></defs><title>mug-icon</title><path class="cls-1" d="M31.33,58.35a27,27,0,1,1,27-27A27.05,27.05,0,0,1,31.33,58.35Z"/><path class="cls-2" d="M31.33,62.65A31.33,31.33,0,1,1,62.65,31.33,31.36,31.36,0,0,1,31.33,62.65Z"/><path class="cls-3" d="M31.33,62.65A31.33,31.33,0,1,1,62.65,31.33,31.36,31.36,0,0,1,31.33,62.65Z"/><path class="cls-4" d="M31.33,59.78A28.46,28.46,0,1,1,59.78,31.33,28.49,28.49,0,0,1,31.33,59.78Z"/><path class="cls-5" d="M31.33,59.3a28,28,0,1,1,28-28A28,28,0,0,1,31.33,59.3Z"/><path class="cls-6" d="M31.33,58.59A27.26,27.26,0,1,1,58.59,31.33,27.29,27.29,0,0,1,31.33,58.59Z"/><circle class="cls-7" cx="31.33" cy="31.33" r="26.78"/><path class="cls-8" d="M30.14,28.55V7.2A24.16,24.16,0,0,0,7.33,28.55Z"/><path class="cls-9" d="M47.17,13.09A24.15,24.15,0,0,1,13.09,47.17,24.15,24.15,0,1,0,47.17,13.09Z"/><path class="cls-10" d="M15,18.9l.9,3.66s-9.73-2-4,6.06c0,0,6.45,8.09,7.44,8.63L20,40.46S.92,23.05,10.07,19.53A13.58,13.58,0,0,1,15,18.9Z"/><path class="cls-11" d="M15,18.9l.9,3.66s-9.73-2-4,6.06c0,0,6.45,8.09,7.44,8.63L20,40.46S.92,23.05,10.07,19.53A13.58,13.58,0,0,1,15,18.9Z"/><path class="cls-12" d="M43.85,17.13l11.21,3.34-10.94.18A3.38,3.38,0,0,1,43.85,17.13Z"/><path class="cls-13" d="M43.85,17.13l11.21,3.34-10.94.18A3.38,3.38,0,0,1,43.85,17.13Z"/><path class="cls-14" d="M43.85,17.13l11.21,3.34-10.94.18A3.38,3.38,0,0,1,43.85,17.13Z"/><path class="cls-15" d="M14.93,18.9l7,30.14s.33,1.48,2.71,1.6c0,0,7.77,1.81,13.08-.15,0,0,1.81-.27,2.08-2.86L45.7,19.23Z"/><path class="cls-16" d="M35.38,40a177.56,177.56,0,0,0,1.4-20.68v-.22l4.25,0c0,.52,0,1,0,1.57,0,2.09-.13,4.16-.31,6.24a101.81,101.81,0,0,1-3.82,20.87q-.49,1.61-1.07,3.17l-.23.05a2.44,2.44,0,0,0-.42,0,14.67,14.67,0,0,1-2.06.27h-.29A71.58,71.58,0,0,0,35.38,40Z"/><path class="cls-17" d="M55.06,20.48,42.21,36.12s-1.73-10.52,2-15.64Z"/><ellipse class="cls-18" cx="30.34" cy="18.9" rx="15.41" ry="3.66"/><path class="cls-19" d="M30.34,22.2a49.06,49.06,0,0,0,10.81-1.06c3.12-.74,4.24-1.64,4.24-2.24s-1.11-1.49-4.24-2.24A49.06,49.06,0,0,0,30.34,15.6a49.06,49.06,0,0,0-10.81,1.06c-3.12.74-4.24,1.64-4.24,2.24s1.11,1.49,4.24,2.24A49.06,49.06,0,0,0,30.34,22.2Z"/></svg>