<svg xmlns="http://www.w3.org/2000/svg" xmlns:xlink="http://www.w3.org/1999/xlink" viewBox="0 0 62.65 62.65"><defs><style>.cls-1{isolation:isolate;}.cls-2{fill:#3e4225;}.cls-3{fill:#525731;}.cls-10,.cls-11,.cls-12,.cls-13,.cls-14,.cls-15,.cls-16,.cls-17,.cls-18,.cls-19,.cls-20,.cls-21,.cls-22,.cls-23,.cls-24,.cls-25,.cls-26,.cls-27,.cls-28,.cls-29,.cls-30,.cls-31,.cls-32,.cls-33,.cls-34,.cls-35,.cls-36,.cls-37,.cls-38,.cls-39,.cls-4,.cls-40,.cls-41,.cls-42,.cls-43,.cls-44,.cls-45,.cls-46,.cls-47,.cls-48,.cls-49,.cls-5,.cls-50,.cls-51,.cls-52,.cls-53,.cls-54,.cls-55,.cls-56,.cls-57,.cls-58,.cls-59,.cls-6,.cls-7,.cls-8,.cls-9{stroke:#3d4800;}.cls-10,.cls-102,.cls-103,.cls-104,.cls-105,.cls-108,.cls-109,.cls-11,.cls-110,.cls-111,.cls-12,.cls-120,.cls-123,.cls-13,.cls-130,.cls-131,.cls-132,.cls-134,.cls-135,.cls-136,.cls-138,.cls-139,.cls-14,.cls-142,.cls-15,.cls-16,.cls-17,.cls-18,.cls-19,.cls-20,.cls-21,.cls-22,.cls-23,.cls-24,.cls-25,.cls-26,.cls-27,.cls-28,.cls-29,.cls-30,.cls-31,.cls-32,.cls-33,.cls-34,.cls-35,.cls-36,.cls-37,.cls-38,.cls-39,.cls-4,.cls-40,.cls-41,.cls-42,.cls-43,.cls-44,.cls-45,.cls-46,.cls-47,.cls-48,.cls-49,.cls-5,.cls-50,.cls-51,.cls-52,.cls-53,.cls-54,.cls-55,.cls-56,.cls-57,.cls-58,.cls-59,.cls-6,.cls-61,.cls-62,.cls-63,.cls-65,.cls-66,.cls-67,.cls-69,.cls-7,.cls-70,.cls-75,.cls-8,.cls-9,.cls-91,.cls-92,.cls-93,.cls-94,.cls-95{stroke-linecap:round;stroke-linejoin:round;stroke-width:0.32px;}.cls-4{fill:url(#radial-gradient);}.cls-5{fill:url(#radial-gradient-2);}.cls-6{fill:url(#radial-gradient-3);}.cls-7{fill:url(#radial-gradient-4);}.cls-8{fill:url(#radial-gradient-5);}.cls-9{fill:url(#radial-gradient-6);}.cls-10{fill:url(#radial-gradient-7);}.cls-11{fill:url(#radial-gradient-8);}.cls-12{fill:url(#radial-gradient-9);}.cls-13{fill:url(#radial-gradient-10);}.cls-14{fill:url(#radial-gradient-11);}.cls-15{fill:url(#radial-gradient-12);}.cls-16{fill:url(#radial-gradient-13);}.cls-17{fill:url(#radial-gradient-14);}.cls-18{fill:url(#radial-gradient-15);}.cls-19{fill:url(#radial-gradient-16);}.cls-20{fill:url(#radial-gradient-17);}.cls-21{fill:url(#radial-gradient-18);}.cls-22{fill:url(#radial-gradient-19);}.cls-23{fill:url(#radial-gradient-20);}.cls-24{fill:url(#radial-gradient-21);}.cls-25{fill:url(#radial-gradient-22);}.cls-26{fill:url(#radial-gradient-23);}.cls-27{fill:url(#radial-gradient-24);}.cls-28{fill:url(#radial-gradient-25);}.cls-29{fill:url(#radial-gradient-26);}.cls-30{fill:url(#radial-gradient-27);}.cls-31{fill:url(#radial-gradient-28);}.cls-32{fill:url(#radial-gradient-29);}.cls-33{fill:url(#radial-gradient-30);}.cls-34{fill:url(#radial-gradient-31);}.cls-35{fill:url(#radial-gradient-32);}.cls-36{fill:url(#radial-gradient-33);}.cls-37{fill:url(#radial-gradient-34);}.cls-38{fill:url(#radial-gradient-35);}.cls-39{fill:url(#radial-gradient-36);}.cls-40{fill:url(#radial-gradient-37);}.cls-41{fill:url(#radial-gradient-38);}.cls-42{fill:url(#radial-gradient-39);}.cls-43{fill:url(#radial-gradient-40);}.cls-44{fill:url(#radial-gradient-41);}.cls-45{fill:url(#radial-gradient-42);}.cls-46{fill:url(#radial-gradient-43);}.cls-47{fill:url(#radial-gradient-44);}.cls-48{fill:url(#radial-gradient-45);}.cls-49{fill:url(#radial-gradient-46);}.cls-50{fill:url(#radial-gradient-47);}.cls-51{fill:url(#radial-gradient-48);}.cls-52{fill:url(#radial-gradient-49);}.cls-53{fill:url(#radial-gradient-50);}.cls-54{fill:url(#radial-gradient-51);}.cls-55{fill:url(#radial-gradient-52);}.cls-56{fill:url(#radial-gradient-53);}.cls-57{fill:url(#radial-gradient-54);}.cls-58{fill:url(#radial-gradient-55);}.cls-59{fill:url(#radial-gradient-56);}.cls-107,.cls-126,.cls-60,.cls-98{fill:#ffff8c;}.cls-60{opacity:0.72;}.cls-107,.cls-60{mix-blend-mode:overlay;}.cls-102,.cls-103,.cls-104,.cls-105,.cls-108,.cls-120,.cls-130,.cls-131,.cls-132,.cls-134,.cls-135,.cls-136,.cls-138,.cls-139,.cls-142,.cls-61,.cls-62,.cls-63,.cls-65,.cls-66,.cls-67,.cls-69,.cls-70,.cls-75{stroke:#468800;}.cls-61{fill:url(#radial-gradient-57);}.cls-62{fill:url(#radial-gradient-58);}.cls-63{fill:url(#radial-gradient-59);}.cls-101,.cls-106,.cls-112,.cls-113,.cls-114,.cls-115,.cls-117,.cls-122,.cls-125,.cls-129,.cls-133,.cls-137,.cls-143,.cls-151,.cls-64,.cls-68,.cls-71,.cls-73,.cls-76,.cls-77,.cls-85,.cls-88,.cls-90,.cls-97{mix-blend-mode:multiply;}.cls-64{fill:url(#radial-gradient-60);}.cls-65{fill:url(#radial-gradient-61);}.cls-66{fill:url(#radial-gradient-62);}.cls-67{fill:url(#radial-gradient-63);}.cls-137,.cls-143,.cls-151,.cls-68,.cls-76,.cls-85{opacity:0.66;}.cls-68{fill:url(#radial-gradient-64);}.cls-69{fill:url(#radial-gradient-65);}.cls-70{fill:url(#radial-gradient-66);}.cls-106,.cls-126,.cls-71{opacity:0.5;}.cls-72{fill:url(#radial-gradient-67);}.cls-73{opacity:0.64;}.cls-74{fill:url(#radial-gradient-68);}.cls-75{fill:url(#radial-gradient-69);}.cls-76{fill:url(#radial-gradient-70);}.cls-77{opacity:0.74;}.cls-78{fill:url(#radial-gradient-71);}.cls-126,.cls-145,.cls-146,.cls-147,.cls-148,.cls-149,.cls-150,.cls-152,.cls-153,.cls-79,.cls-80,.cls-81,.cls-82,.cls-83,.cls-84,.cls-86,.cls-87,.cls-89,.cls-98,.cls-99{mix-blend-mode:screen;}.cls-79{fill:url(#radial-gradient-72);}.cls-80{fill:url(#radial-gradient-73);}.cls-81{fill:url(#radial-gradient-74);}.cls-82{fill:url(#radial-gradient-75);}.cls-83{fill:url(#radial-gradient-76);}.cls-84{fill:url(#radial-gradient-77);}.cls-85{fill:url(#radial-gradient-78);}.cls-86{fill:url(#radial-gradient-79);}.cls-87{fill:url(#radial-gradient-80);}.cls-128,.cls-89,.cls-90{fill:#abdd00;}.cls-91,.cls-92,.cls-93,.cls-94,.cls-95{stroke:#6d7500;}.cls-91{fill:url(#radial-gradient-81);}.cls-92{fill:url(#radial-gradient-82);}.cls-93{fill:url(#radial-gradient-83);}.cls-94{fill:url(#radial-gradient-84);}.cls-95{fill:url(#radial-gradient-85);}.cls-96{opacity:0.46;}.cls-101,.cls-97{fill:#6d7500;}.cls-97{opacity:0.55;}.cls-98,.cls-99{opacity:0.12;}.cls-99{fill:#363d00;}.cls-100,.cls-105{fill:none;}.cls-101{opacity:0.52;}.cls-102{fill:url(#radial-gradient-86);}.cls-103{fill:url(#radial-gradient-87);}.cls-104{fill:url(#radial-gradient-88);}.cls-106{fill:url(#radial-gradient-89);}.cls-107,.cls-124{opacity:0.2;}.cls-108{fill:url(#radial-gradient-90);}.cls-109,.cls-110,.cls-111{stroke:#4d6a00;}.cls-109{fill:url(#radial-gradient-91);}.cls-110{fill:url(#radial-gradient-92);}.cls-111{fill:url(#radial-gradient-93);}.cls-112,.cls-113,.cls-114,.cls-115,.cls-125{opacity:0.3;}.cls-112{fill:url(#radial-gradient-94);}.cls-113{fill:url(#radial-gradient-95);}.cls-114{fill:url(#radial-gradient-96);}.cls-116{fill:url(#radial-gradient-97);}.cls-117{opacity:0.6;}.cls-118{fill:url(#radial-gradient-98);}.cls-119{fill:url(#radial-gradient-99);}.cls-120{fill:url(#radial-gradient-100);}.cls-121{fill:#468800;}.cls-122{fill:#6eb900;}.cls-123{stroke:#2f3d00;fill:url(#radial-gradient-101);}.cls-124{mix-blend-mode:color-burn;fill:url(#radial-gradient-102);}.cls-125{fill:url(#radial-gradient-103);}.cls-127{opacity:0.61;fill:url(#radial-gradient-104);}.cls-129{opacity:0.79;}.cls-130{fill:url(#radial-gradient-105);}.cls-131{fill:url(#radial-gradient-106);}.cls-132{fill:url(#radial-gradient-107);}.cls-133{fill:url(#radial-gradient-108);}.cls-134{fill:url(#radial-gradient-109);}.cls-135{fill:url(#radial-gradient-110);}.cls-136{fill:url(#radial-gradient-111);}.cls-137{fill:url(#radial-gradient-112);}.cls-138{fill:url(#radial-gradient-113);}.cls-139{fill:url(#radial-gradient-114);}.cls-140{fill:url(#radial-gradient-115);}.cls-141{fill:url(#radial-gradient-116);}.cls-142{fill:url(#radial-gradient-117);}.cls-143{fill:url(#radial-gradient-118);}.cls-144{fill:url(#radial-gradient-119);}.cls-145{fill:url(#radial-gradient-120);}.cls-146{fill:url(#radial-gradient-121);}.cls-147{fill:url(#radial-gradient-122);}.cls-148{fill:url(#radial-gradient-123);}.cls-149{fill:url(#radial-gradient-124);}.cls-150{fill:url(#radial-gradient-125);}.cls-151{fill:url(#radial-gradient-126);}.cls-152{fill:url(#radial-gradient-127);}.cls-153{fill:url(#radial-gradient-128);}</style><radialGradient id="radial-gradient" cx="65.84" cy="133.01" r="33.6" gradientTransform="translate(-67.05 -110.8) rotate(-16.66)" gradientUnits="userSpaceOnUse"><stop offset="0" stop-color="#fef458"/><stop offset="0.09" stop-color="#f4e743"/><stop offset="0.39" stop-color="#d4be00"/><stop offset="0.49" stop-color="#b2af00"/><stop offset="0.67" stop-color="#799700"/><stop offset="0.8" stop-color="#580"/><stop offset="0.87" stop-color="#488200"/></radialGradient><radialGradient id="radial-gradient-2" cx="65.84" cy="133.01" r="33.6" xlink:href="#radial-gradient"/><radialGradient id="radial-gradient-3" cx="65.84" cy="133.02" r="33.59" xlink:href="#radial-gradient"/><radialGradient id="radial-gradient-4" cx="65.84" cy="133.01" r="33.59" xlink:href="#radial-gradient"/><radialGradient id="radial-gradient-5" cx="65.84" cy="133" r="33.62" xlink:href="#radial-gradient"/><radialGradient id="radial-gradient-6" cx="65.84" cy="133.01" r="33.6" xlink:href="#radial-gradient"/><radialGradient id="radial-gradient-7" cx="65.84" cy="132.99" r="33.63" xlink:href="#radial-gradient"/><radialGradient id="radial-gradient-8" cx="65.84" cy="133.01" r="33.6" xlink:href="#radial-gradient"/><radialGradient id="radial-gradient-9" cx="65.83" cy="133.01" r="33.6" xlink:href="#radial-gradient"/><radialGradient id="radial-gradient-10" cx="65.84" cy="133.01" r="33.6" xlink:href="#radial-gradient"/><radialGradient id="radial-gradient-11" cx="65.84" cy="133.01" r="33.61" xlink:href="#radial-gradient"/><radialGradient id="radial-gradient-12" cx="65.84" cy="133.02" r="33.59" xlink:href="#radial-gradient"/><radialGradient id="radial-gradient-13" cx="65.84" cy="133" r="33.61" xlink:href="#radial-gradient"/><radialGradient id="radial-gradient-14" cx="65.84" cy="133.01" r="33.6" xlink:href="#radial-gradient"/><radialGradient id="radial-gradient-15" cx="65.84" cy="133.01" r="33.59" xlink:href="#radial-gradient"/><radialGradient id="radial-gradient-16" cx="65.84" cy="133.01" r="33.6" xlink:href="#radial-gradient"/><radialGradient id="radial-gradient-17" cx="65.84" cy="133.02" r="33.59" xlink:href="#radial-gradient"/><radialGradient id="radial-gradient-18" cx="65.84" cy="133.01" r="33.6" xlink:href="#radial-gradient"/><radialGradient id="radial-gradient-19" cx="65.84" cy="133.01" r="33.59" xlink:href="#radial-gradient"/><radialGradient id="radial-gradient-20" cx="65.84" cy="133.01" r="33.6" xlink:href="#radial-gradient"/><radialGradient id="radial-gradient-21" cx="65.84" cy="133.01" r="33.6" xlink:href="#radial-gradient"/><radialGradient id="radial-gradient-22" cx="65.84" cy="133.01" r="33.6" xlink:href="#radial-gradient"/><radialGradient id="radial-gradient-23" cx="65.84" cy="133" r="33.62" xlink:href="#radial-gradient"/><radialGradient id="radial-gradient-24" cx="65.84" cy="133.02" r="33.58" xlink:href="#radial-gradient"/><radialGradient id="radial-gradient-25" cx="65.84" cy="133" r="33.62" xlink:href="#radial-gradient"/><radialGradient id="radial-gradient-26" cx="65.84" cy="133" r="33.61" xlink:href="#radial-gradient"/><radialGradient id="radial-gradient-27" cx="65.84" cy="133.01" r="33.6" xlink:href="#radial-gradient"/><radialGradient id="radial-gradient-28" cx="65.84" cy="133.01" r="33.61" xlink:href="#radial-gradient"/><radialGradient id="radial-gradient-29" cx="65.84" cy="133.01" r="33.59" xlink:href="#radial-gradient"/><radialGradient id="radial-gradient-30" cx="65.84" cy="133.01" r="33.59" xlink:href="#radial-gradient"/><radialGradient id="radial-gradient-31" cx="65.84" cy="133.01" r="33.6" xlink:href="#radial-gradient"/><radialGradient id="radial-gradient-32" cx="65.84" cy="133.01" r="33.6" xlink:href="#radial-gradient"/><radialGradient id="radial-gradient-33" cx="65.84" cy="133.01" r="33.6" xlink:href="#radial-gradient"/><radialGradient id="radial-gradient-34" cx="65.84" cy="133.01" r="33.59" xlink:href="#radial-gradient"/><radialGradient id="radial-gradient-35" cx="65.84" cy="133.02" r="33.59" xlink:href="#radial-gradient"/><radialGradient id="radial-gradient-36" cx="65.84" cy="133.01" r="33.6" xlink:href="#radial-gradient"/><radialGradient id="radial-gradient-37" cx="65.84" cy="133.01" r="33.6" xlink:href="#radial-gradient"/><radialGradient id="radial-gradient-38" cx="65.84" cy="133.01" r="33.6" xlink:href="#radial-gradient"/><radialGradient id="radial-gradient-39" cx="65.84" cy="133.01" r="33.61" xlink:href="#radial-gradient"/><radialGradient id="radial-gradient-40" cx="65.84" cy="133" r="33.61" xlink:href="#radial-gradient"/><radialGradient id="radial-gradient-41" cx="65.84" cy="133.01" r="33.6" xlink:href="#radial-gradient"/><radialGradient id="radial-gradient-42" cx="65.84" cy="133" r="33.61" xlink:href="#radial-gradient"/><radialGradient id="radial-gradient-43" cx="65.84" cy="133" r="33.61" xlink:href="#radial-gradient"/><radialGradient id="radial-gradient-44" cx="65.84" cy="133.01" r="33.6" xlink:href="#radial-gradient"/><radialGradient id="radial-gradient-45" cx="65.83" cy="133.01" r="33.6" xlink:href="#radial-gradient"/><radialGradient id="radial-gradient-46" cx="65.84" cy="133.01" r="33.6" xlink:href="#radial-gradient"/><radialGradient id="radial-gradient-47" cx="65.84" cy="133.01" r="33.6" xlink:href="#radial-gradient"/><radialGradient id="radial-gradient-48" cx="65.84" cy="133.01" r="33.6" xlink:href="#radial-gradient"/><radialGradient id="radial-gradient-49" cx="65.84" cy="133.01" r="33.6" xlink:href="#radial-gradient"/><radialGradient id="radial-gradient-50" cx="65.84" cy="133.01" r="33.6" xlink:href="#radial-gradient"/><radialGradient id="radial-gradient-51" cx="65.84" cy="133" r="33.61" xlink:href="#radial-gradient"/><radialGradient id="radial-gradient-52" cx="65.84" cy="133.01" r="33.59" xlink:href="#radial-gradient"/><radialGradient id="radial-gradient-53" cx="65.84" cy="133.01" r="33.59" xlink:href="#radial-gradient"/><radialGradient id="radial-gradient-54" cx="65.84" cy="133" r="33.61" xlink:href="#radial-gradient"/><radialGradient id="radial-gradient-55" cx="65.84" cy="133.01" r="33.6" xlink:href="#radial-gradient"/><radialGradient id="radial-gradient-56" cx="65.84" cy="133.01" r="33.6" xlink:href="#radial-gradient"/><radialGradient id="radial-gradient-57" cx="39.17" cy="95.27" r="23.01" gradientTransform="translate(-84.93 -0.87) rotate(-46.6)" gradientUnits="userSpaceOnUse"><stop offset="0" stop-color="#fef458"/><stop offset="0.16" stop-color="#dbee31"/><stop offset="0.32" stop-color="#bce90d"/><stop offset="0.4" stop-color="#b0e700"/><stop offset="0.54" stop-color="#9fd500"/><stop offset="0.75" stop-color="#8bc000"/><stop offset="0.89" stop-color="#83b800"/></radialGradient><radialGradient id="radial-gradient-58" cx="43.31" cy="145.03" r="23.01" gradientTransform="translate(-67.05 -110.8) rotate(-16.66)" xlink:href="#radial-gradient-57"/><radialGradient id="radial-gradient-59" cx="43.31" cy="145.03" r="23.01" gradientTransform="translate(-67.05 -110.8) rotate(-16.66)" xlink:href="#radial-gradient-57"/><radialGradient id="radial-gradient-60" cx="43.31" cy="145.03" r="23.01" gradientTransform="translate(-67.05 -110.8) rotate(-16.66)" gradientUnits="userSpaceOnUse"><stop offset="0" stop-color="#fef458"/><stop offset="0.12" stop-color="#dbee31"/><stop offset="0.24" stop-color="#bce90d"/><stop offset="0.31" stop-color="#b0e700"/><stop offset="0.63" stop-color="#b0e300"/><stop offset="0.64" stop-color="#afe200"/><stop offset="0.77" stop-color="#97cb00"/><stop offset="0.9" stop-color="#88bd00"/><stop offset="1" stop-color="#83b800"/></radialGradient><radialGradient id="radial-gradient-61" cx="56.78" cy="162.34" r="2.45" gradientTransform="translate(-67.05 -110.8) rotate(-16.66)" gradientUnits="userSpaceOnUse"><stop offset="0" stop-color="#fef458"/><stop offset="0.16" stop-color="#dbee31"/><stop offset="0.32" stop-color="#bce90d"/><stop offset="0.4" stop-color="#b0e700"/><stop offset="0.46" stop-color="#a5db00"/><stop offset="0.64" stop-color="#85b800"/><stop offset="0.79" stop-color="#71a300"/><stop offset="0.89" stop-color="#6a9b00"/></radialGradient><radialGradient id="radial-gradient-62" cx="43.3" cy="145.03" r="23.01" gradientTransform="translate(-67.05 -110.8) rotate(-16.66)" xlink:href="#radial-gradient-57"/><radialGradient id="radial-gradient-63" cx="54.91" cy="94.78" r="23.01" gradientTransform="translate(-17.21 -82.02) rotate(7.04)" xlink:href="#radial-gradient-57"/><radialGradient id="radial-gradient-64" cx="54.91" cy="94.78" r="23.01" gradientTransform="translate(-17.21 -82.02) rotate(7.04)" xlink:href="#radial-gradient-60"/><radialGradient id="radial-gradient-65" cx="43.31" cy="145.03" r="23.01" gradientTransform="translate(-67.05 -110.8) rotate(-16.66)" xlink:href="#radial-gradient-57"/><radialGradient id="radial-gradient-66" cx="43.31" cy="145.03" r="23.01" gradientTransform="translate(-67.05 -110.8) rotate(-16.66)" xlink:href="#radial-gradient-57"/><radialGradient id="radial-gradient-67" cx="51.77" cy="158.29" r="7.72" xlink:href="#radial-gradient-60"/><radialGradient id="radial-gradient-68" cx="43.3" cy="145.03" r="23.01" xlink:href="#radial-gradient-60"/><radialGradient id="radial-gradient-69" cx="43.31" cy="145.17" r="23" gradientTransform="translate(-67.05 -110.8) rotate(-16.66)" xlink:href="#radial-gradient-57"/><radialGradient id="radial-gradient-70" cx="43.31" cy="145.16" r="23.01" xlink:href="#radial-gradient-60"/><radialGradient id="radial-gradient-71" cx="43.31" cy="145.03" r="23.01" xlink:href="#radial-gradient-60"/><radialGradient id="radial-gradient-72" cx="44.68" cy="120.06" r="16.2" gradientTransform="translate(-84.93 -0.87) rotate(-46.6)" xlink:href="#radial-gradient-60"/><radialGradient id="radial-gradient-73" cx="57.59" cy="156.38" r="10.72" xlink:href="#radial-gradient-60"/><radialGradient id="radial-gradient-74" cx="43.11" cy="158.34" r="12.27" xlink:href="#radial-gradient-60"/><radialGradient id="radial-gradient-75" cx="-12.94" cy="123.88" r="45.8" xlink:href="#radial-gradient-60"/><radialGradient id="radial-gradient-76" cx="43.38" cy="145.15" r="15" xlink:href="#radial-gradient-60"/><radialGradient id="radial-gradient-77" cx="39.49" cy="166.32" r="8.36" xlink:href="#radial-gradient-60"/><radialGradient id="radial-gradient-78" cx="43.31" cy="145.03" r="23.01" xlink:href="#radial-gradient-60"/><radialGradient id="radial-gradient-79" cx="41.47" cy="151.93" r="6.24" xlink:href="#radial-gradient-60"/><radialGradient id="radial-gradient-80" cx="50.72" cy="102.88" r="15.47" gradientTransform="translate(-17.21 -82.02) rotate(7.04)" xlink:href="#radial-gradient-60"/><radialGradient id="radial-gradient-81" cx="42.21" cy="156.22" r="26" xlink:href="#radial-gradient"/><radialGradient id="radial-gradient-82" cx="42.21" cy="156.22" r="26.01" xlink:href="#radial-gradient"/><radialGradient id="radial-gradient-83" cx="42.21" cy="156.22" r="26.01" xlink:href="#radial-gradient"/><radialGradient id="radial-gradient-84" cx="42.21" cy="156.22" r="26.01" xlink:href="#radial-gradient"/><radialGradient id="radial-gradient-85" cx="42.21" cy="156.22" r="26.01" xlink:href="#radial-gradient"/><radialGradient id="radial-gradient-86" cx="57.79" cy="173.13" r="7.73" xlink:href="#radial-gradient-60"/><radialGradient id="radial-gradient-87" cx="57.79" cy="173.13" r="7.73" gradientTransform="translate(-67.05 -110.8) rotate(-16.66)" gradientUnits="userSpaceOnUse"><stop offset="0.01" stop-color="#b0e300"/><stop offset="0.2" stop-color="#98cb00"/><stop offset="0.45" stop-color="#81b300"/><stop offset="0.68" stop-color="#73a400"/><stop offset="0.88" stop-color="#6e9f00"/></radialGradient><radialGradient id="radial-gradient-88" cx="34.12" cy="145.64" r="43.47" xlink:href="#radial-gradient-60"/><radialGradient id="radial-gradient-89" cx="63.16" cy="165.66" r="3.79" xlink:href="#radial-gradient-60"/><radialGradient id="radial-gradient-90" cx="35.9" cy="145.62" r="41.51" xlink:href="#radial-gradient-60"/><radialGradient id="radial-gradient-91" cx="64.48" cy="166.38" r="7.47" xlink:href="#radial-gradient"/><radialGradient id="radial-gradient-92" cx="64.48" cy="166.38" r="7.47" xlink:href="#radial-gradient"/><radialGradient id="radial-gradient-93" cx="64.48" cy="166.38" r="7.47" xlink:href="#radial-gradient"/><radialGradient id="radial-gradient-94" cx="64.48" cy="166.38" r="7.47" xlink:href="#radial-gradient-60"/><radialGradient id="radial-gradient-95" cx="64.48" cy="166.38" r="7.47" xlink:href="#radial-gradient-60"/><radialGradient id="radial-gradient-96" cx="64.48" cy="166.38" r="7.47" xlink:href="#radial-gradient-60"/><radialGradient id="radial-gradient-97" cx="35.9" cy="145.62" r="41.51" xlink:href="#radial-gradient-60"/><radialGradient id="radial-gradient-98" cx="35.9" cy="145.63" r="41.51" xlink:href="#radial-gradient-60"/><radialGradient id="radial-gradient-99" cx="63.35" cy="162.35" r="8.77" xlink:href="#radial-gradient-60"/><radialGradient id="radial-gradient-100" cx="44.87" cy="146.22" r="28.58" gradientTransform="translate(-67.05 -110.8) rotate(-16.66)" gradientUnits="userSpaceOnUse"><stop offset="0" stop-color="#fef458"/><stop offset="0.16" stop-color="#dbee31"/><stop offset="0.32" stop-color="#bce90d"/><stop offset="0.4" stop-color="#b0e700"/><stop offset="0.62" stop-color="#a5d400"/><stop offset="0.77" stop-color="#a0cc00"/><stop offset="0.97" stop-color="#acc200"/></radialGradient><radialGradient id="radial-gradient-101" cx="67.29" cy="165.1" r="3.98" gradientTransform="translate(182.67 -88.1) rotate(72.12)" gradientUnits="userSpaceOnUse"><stop offset="0" stop-color="#aebb29"/><stop offset="0.01" stop-color="#a9b627"/><stop offset="0.18" stop-color="#768212"/><stop offset="0.31" stop-color="#566105"/><stop offset="0.38" stop-color="#4a5500"/><stop offset="0.52" stop-color="#3b4400"/><stop offset="0.7" stop-color="#2f3500"/><stop offset="0.86" stop-color="#2b3000"/></radialGradient><radialGradient id="radial-gradient-102" cx="67.39" cy="165.15" r="3.75" gradientTransform="translate(-67.05 -110.8) rotate(-16.66)" xlink:href="#radial-gradient-101"/><radialGradient id="radial-gradient-103" cx="74.08" cy="164.83" r="3.53" gradientTransform="matrix(1.07, -0.32, 0.29, 0.97, -81.83, -107.88)" xlink:href="#radial-gradient-101"/><radialGradient id="radial-gradient-104" cx="59.3" cy="171" r="4.86" xlink:href="#radial-gradient-60"/><radialGradient id="radial-gradient-105" cx="42.65" cy="149.89" r="23.01" gradientTransform="translate(-67.05 -110.8) rotate(-16.66)" xlink:href="#radial-gradient-57"/><radialGradient id="radial-gradient-106" cx="42.65" cy="149.89" r="23.01" gradientTransform="translate(-67.05 -110.8) rotate(-16.66)" xlink:href="#radial-gradient-57"/><radialGradient id="radial-gradient-107" cx="42.66" cy="149.89" r="23.01" gradientTransform="translate(-67.05 -110.8) rotate(-16.66)" xlink:href="#radial-gradient-57"/><radialGradient id="radial-gradient-108" cx="42.66" cy="149.89" r="23.01" xlink:href="#radial-gradient-60"/><radialGradient id="radial-gradient-109" cx="56.13" cy="167.19" r="2.45" xlink:href="#radial-gradient-61"/><radialGradient id="radial-gradient-110" cx="42.65" cy="149.89" r="23.01" gradientTransform="translate(-67.05 -110.8) rotate(-16.66)" xlink:href="#radial-gradient-57"/><radialGradient id="radial-gradient-111" cx="42.65" cy="149.89" r="23.01" gradientTransform="translate(-67.05 -110.8) rotate(-16.66)" xlink:href="#radial-gradient-57"/><radialGradient id="radial-gradient-112" cx="42.65" cy="149.89" r="23.01" xlink:href="#radial-gradient-60"/><radialGradient id="radial-gradient-113" cx="42.65" cy="149.89" r="23.01" gradientTransform="translate(-67.05 -110.8) rotate(-16.66)" xlink:href="#radial-gradient-57"/><radialGradient id="radial-gradient-114" cx="42.65" cy="149.89" r="23.01" gradientTransform="translate(-67.05 -110.8) rotate(-16.66)" xlink:href="#radial-gradient-57"/><radialGradient id="radial-gradient-115" cx="51.12" cy="163.15" r="7.72" xlink:href="#radial-gradient-60"/><radialGradient id="radial-gradient-116" cx="42.66" cy="149.89" r="23.01" xlink:href="#radial-gradient-60"/><radialGradient id="radial-gradient-117" cx="42.65" cy="150.02" r="23.01" gradientTransform="translate(-67.05 -110.8) rotate(-16.66)" xlink:href="#radial-gradient-57"/><radialGradient id="radial-gradient-118" cx="42.65" cy="150.02" r="23.01" xlink:href="#radial-gradient-60"/><radialGradient id="radial-gradient-119" cx="42.65" cy="149.89" r="23.01" xlink:href="#radial-gradient-60"/><radialGradient id="radial-gradient-120" cx="48.16" cy="174.68" r="16.2" xlink:href="#radial-gradient-60"/><radialGradient id="radial-gradient-121" cx="56.94" cy="161.24" r="10.72" xlink:href="#radial-gradient-60"/><radialGradient id="radial-gradient-122" cx="42.46" cy="163.19" r="12.27" xlink:href="#radial-gradient-60"/><radialGradient id="radial-gradient-123" cx="-13.59" cy="128.74" r="45.8" xlink:href="#radial-gradient-60"/><radialGradient id="radial-gradient-124" cx="42.73" cy="150.01" r="15" xlink:href="#radial-gradient-60"/><radialGradient id="radial-gradient-125" cx="38.84" cy="171.18" r="8.36" xlink:href="#radial-gradient-60"/><radialGradient id="radial-gradient-126" cx="42.65" cy="149.89" r="23.01" xlink:href="#radial-gradient-60"/><radialGradient id="radial-gradient-127" cx="40.82" cy="156.79" r="6.24" xlink:href="#radial-gradient-60"/><radialGradient id="radial-gradient-128" cx="38.46" cy="157.98" r="15.47" xlink:href="#radial-gradient-60"/></defs><title>left-icon</title><g class="cls-1"><g id="Layer_1" data-name="Layer 1"><circle class="cls-2" cx="31.33" cy="31.33" r="31.33"/><path class="cls-3" d="M31.33,61.65A30.33,30.33,0,1,1,61.65,31.33,30.36,30.36,0,0,1,31.33,61.65Z"/><path class="cls-4" d="M25.72,22.35a2,2,0,0,1,.17.41l.74-.27.46-.17a2.44,2.44,0,0,0-.19-.37Z"/><path class="cls-5" d="M28.11,21.51a2.88,2.88,0,0,1,.16.36l1-.39a2.17,2.17,0,0,0-.16-.34Z"/><path class="cls-6" d="M26.89,21.94a2.44,2.44,0,0,1,.19.37l1.19-.45a2.88,2.88,0,0,0-.16-.36Z"/><path class="cls-7" d="M25.72,22.35l-1.07.34a2.93,2.93,0,0,1,.18.42l1.05-.36A2,2,0,0,0,25.72,22.35Z"/><path class="cls-8" d="M29.15,21.13a2.17,2.17,0,0,1,.16.34L30.5,21a2.52,2.52,0,0,0-.19-.33Z"/><path class="cls-9" d="M33,19.68l-1,.4a2.83,2.83,0,0,1,.15.34l1-.4A2,2,0,0,0,33,19.68Z"/><path class="cls-10" d="M30.31,20.7a2.52,2.52,0,0,1,.19.33l1.63-.62a2.83,2.83,0,0,0-.15-.34Z"/><path class="cls-11" d="M47.1,24l.36,0a6.22,6.22,0,0,0,.37-1.23,3.47,3.47,0,0,1-.44.18A6.53,6.53,0,0,1,47.1,24Z"/><path class="cls-12" d="M19.29,23.59a2.59,2.59,0,0,1-.74-.17c-.72-.32-.87.49.11.75a3.1,3.1,0,0,0,.81.07A2.44,2.44,0,0,0,19.29,23.59Z"/><path class="cls-13" d="M46.4,25.39l.29-.09a6.75,6.75,0,0,0,.77-1.39l-.36,0A6.92,6.92,0,0,1,46.4,25.39Z"/><path class="cls-14" d="M22,23.4a8.76,8.76,0,0,1-1.1.17,3,3,0,0,1,.11.5q.5-.09,1.09-.22A2,2,0,0,0,22,23.4Z"/><path class="cls-15" d="M23.23,23.11c-.43.12-.82.22-1.19.29a2,2,0,0,1,.1.46q.58-.13,1.24-.31A2.5,2.5,0,0,0,23.23,23.11Z"/><path class="cls-16" d="M23.23,23.11a2.5,2.5,0,0,1,.15.44q.69-.19,1.45-.44a2.93,2.93,0,0,0-.18-.42Z"/><path class="cls-17" d="M20.78,23.59a8.52,8.52,0,0,1-1.49,0,2.44,2.44,0,0,1,.19.66,10.68,10.68,0,0,0,1.58-.17,3,3,0,0,0-.11-.5Z"/><path class="cls-18" d="M36.51,18.38l-.7.25-.35.13a2.92,2.92,0,0,1,.13.32l1-.38A1.92,1.92,0,0,0,36.51,18.38Z"/><path class="cls-19" d="M47.35,19.62a4.83,4.83,0,0,0-.68-.91,5.12,5.12,0,0,0-.54-.5,1.44,1.44,0,0,1-.12.48,4.69,4.69,0,0,1,1,1.38A1.38,1.38,0,0,0,47.35,19.62Z"/><path class="cls-20" d="M33,19.68a2,2,0,0,1,.15.34l1.18-.45a2.54,2.54,0,0,0-.18-.33Z"/><path class="cls-21" d="M43.43,17.12a2.38,2.38,0,0,1,.1.51,5.56,5.56,0,0,1,1.28.32,2.43,2.43,0,0,0-.06-.51A6,6,0,0,0,43.43,17.12Z"/><path class="cls-22" d="M44.75,17.44a2.43,2.43,0,0,1,.06.51,3.69,3.69,0,0,1,1.2.74h0a1.44,1.44,0,0,0,.12-.48A5,5,0,0,0,44.75,17.44Z"/><path class="cls-23" d="M47.44,21.46a5.11,5.11,0,0,1-.05,1.4,3.47,3.47,0,0,0,.44-.18,4.76,4.76,0,0,0,0-1.52A1.65,1.65,0,0,1,47.44,21.46Z"/><path class="cls-24" d="M47.35,19.62a1.38,1.38,0,0,1-.3.45,4.23,4.23,0,0,1,.39,1.39,1.65,1.65,0,0,0,.44-.3A4.18,4.18,0,0,0,47.35,19.62Z"/><path class="cls-25" d="M43.43,17.12a7.88,7.88,0,0,0-1.13-.06,2.79,2.79,0,0,1,.1.5,8.36,8.36,0,0,1,1.13.07A2.38,2.38,0,0,0,43.43,17.12Z"/><path class="cls-26" d="M37.69,18a2.5,2.5,0,0,1,.16.34l1-.27a3,3,0,0,0-.08-.4Z"/><path class="cls-27" d="M36.51,18.38a1.92,1.92,0,0,1,.12.32c.36-.12.77-.26,1.22-.38a2.5,2.5,0,0,0-.16-.34Z"/><path class="cls-28" d="M34.17,19.24a2.54,2.54,0,0,1,.18.33l.7-.27.53-.22a2.92,2.92,0,0,0-.13-.32Z"/><path class="cls-29" d="M39.86,17.37c-.36.08-.72.17-1.07.27a3,3,0,0,1,.08.4c.36-.09.72-.17,1.1-.23A2.08,2.08,0,0,0,39.86,17.37Z"/><path class="cls-30" d="M41.07,17.16c-.4.05-.81.13-1.21.22a2.08,2.08,0,0,1,.1.43c.41-.08.83-.14,1.25-.18A2.53,2.53,0,0,0,41.07,17.16Z"/><path class="cls-31" d="M42.3,17.06a10.56,10.56,0,0,0-1.23.09,2.53,2.53,0,0,1,.15.47,11.7,11.7,0,0,1,1.18-.06A2.79,2.79,0,0,0,42.3,17.06Z"/><path class="cls-32" d="M33.72,15l-1.07.25a2.77,2.77,0,0,1,.09.33l.21,0,.88-.2A2.34,2.34,0,0,0,33.72,15Z"/><path class="cls-33" d="M35.27,14.65,33.72,15a2.34,2.34,0,0,1,.11.34L35.35,15A2.44,2.44,0,0,0,35.27,14.65Z"/><path class="cls-34" d="M32.65,15.26l-1.25.28a2.5,2.5,0,0,1,.1.33l1.24-.28A2.77,2.77,0,0,0,32.65,15.26Z"/><path class="cls-35" d="M35.27,14.65a2.44,2.44,0,0,1,.08.35l1.18-.26a2.89,2.89,0,0,0-.05-.36Z"/><path class="cls-36" d="M36.47,14.38a2.89,2.89,0,0,1,.05.36l1.08-.24a1.76,1.76,0,0,0,0-.35Z"/><path class="cls-37" d="M38.79,13.9l-1.23.24a1.76,1.76,0,0,1,0,.35l.38-.08.88-.19A2.26,2.26,0,0,0,38.79,13.9Z"/><path class="cls-38" d="M31.41,15.55l-1.21.26a2,2,0,0,1,.07.35l1.24-.28A2.5,2.5,0,0,0,31.41,15.55Z"/><path class="cls-39" d="M48.94,23.56l.3.07a11.35,11.35,0,0,0,.7-1.18,1.76,1.76,0,0,1-.33-.07A12.3,12.3,0,0,1,48.94,23.56Z"/><path class="cls-40" d="M48.36,24.4a13.13,13.13,0,0,1-1,1.25l.36-.11a11.7,11.7,0,0,0,.91-1Z"/><path class="cls-41" d="M48.36,24.4l.23.11c.2-.26.42-.55.64-.88l-.3-.07C48.74,23.86,48.55,24.15,48.36,24.4Z"/><path class="cls-42" d="M25.48,16a.21.21,0,0,0-.19.31c0,.13.34.26.88.32a2.69,2.69,0,0,0-.22-.49A2.67,2.67,0,0,1,25.48,16Z"/><path class="cls-43" d="M30.19,15.8c-.47.09-.92.18-1.35.24a3,3,0,0,1,.14.37l1.28-.26A2,2,0,0,0,30.19,15.8Z"/><path class="cls-44" d="M26,16.14a2.69,2.69,0,0,1,.22.49,7.31,7.31,0,0,0,1.3,0,2.56,2.56,0,0,0-.16-.42A5.81,5.81,0,0,1,26,16.14Z"/><path class="cls-45" d="M27.31,16.21a2.56,2.56,0,0,1,.16.42A13.63,13.63,0,0,0,29,16.42h0a3,3,0,0,0-.14-.37A15,15,0,0,1,27.31,16.21Z"/><path class="cls-46" d="M41.25,13.51a1.94,1.94,0,0,1,.05.33c.42,0,.84-.07,1.27-.08a2.4,2.4,0,0,0-.07-.33Q41.9,13.45,41.25,13.51Z"/><path class="cls-47" d="M50.7,18.71c0-.09,0-.18,0-.27a6.43,6.43,0,0,0-.31-1,1.27,1.27,0,0,1-.19.25,4.45,4.45,0,0,1,.28,1.5A1.26,1.26,0,0,0,50.7,18.71Z"/><path class="cls-48" d="M49.57,16a2.5,2.5,0,0,1-.15.35c.12.15.23.3.33.46a4.36,4.36,0,0,1,.4.81,1.27,1.27,0,0,0,.19-.25A5.71,5.71,0,0,0,49.57,16Z"/><path class="cls-49" d="M49.57,16a5.68,5.68,0,0,0-.94-1,2.59,2.59,0,0,1-.13.37,6.32,6.32,0,0,1,.92,1A2.5,2.5,0,0,0,49.57,16Z"/><path class="cls-50" d="M50.12,21.09a9.25,9.25,0,0,1-.52,1.28,1.76,1.76,0,0,0,.33.07A8.34,8.34,0,0,0,50.51,21,1.36,1.36,0,0,1,50.12,21.09Z"/><path class="cls-51" d="M38.79,13.9a2.26,2.26,0,0,1,.08.33c.45-.09.89-.17,1.33-.24a3.08,3.08,0,0,0-.05-.32Z"/><path class="cls-52" d="M50.51,21a5.42,5.42,0,0,0,.19-2.3,1.26,1.26,0,0,1-.27.43,6.15,6.15,0,0,1-.31,2A1.36,1.36,0,0,0,50.51,21Z"/><path class="cls-53" d="M47.71,14.44a2.71,2.71,0,0,1-.13.35h0a5.54,5.54,0,0,1,.91.62,2.59,2.59,0,0,0,.13-.37A6.22,6.22,0,0,0,47.71,14.44Z"/><path class="cls-54" d="M46.61,14a2.53,2.53,0,0,1-.12.36,7.91,7.91,0,0,1,1.08.48,2.71,2.71,0,0,0,.13-.35A7.32,7.32,0,0,0,46.61,14Z"/><path class="cls-55" d="M44.53,13.49c-.28,0-.57-.06-.88-.07a3,3,0,0,1,0,.34l.73.06A3,3,0,0,0,44.53,13.49Z"/><path class="cls-56" d="M40.58,13.6l-.43.07a3.08,3.08,0,0,1,.05.32q.55-.09,1.1-.14a1.94,1.94,0,0,0-.05-.33Z"/><path class="cls-57" d="M42.51,13.42a2.4,2.4,0,0,1,.07.33H43l.68,0a3,3,0,0,0,0-.34C43.29,13.41,42.9,13.41,42.51,13.42Z"/><path class="cls-58" d="M44.53,13.49a3,3,0,0,1-.17.34,10.39,10.39,0,0,1,1.15.2,2.1,2.1,0,0,0,.13-.35A10.41,10.41,0,0,0,44.53,13.49Z"/><path class="cls-59" d="M45.64,13.68a2.1,2.1,0,0,1-.13.35,9.08,9.08,0,0,1,1,.28,2.53,2.53,0,0,0,.12-.36A8.75,8.75,0,0,0,45.64,13.68Z"/><path class="cls-60" d="M45,17.71a8.73,8.73,0,0,0-5.46-.11S42.91,16.8,45,17.71Z"/><path class="cls-61" d="M56.06,32.12s-.05-.31-.64-.1-3.79,2.5-3.9,2.55-.14.34.23.19,3.39-2.25,3.77-2.3S56.22,32.29,56.06,32.12Z"/><path class="cls-62" d="M38.62,28.76s-.54-.19-.68.2.13,1.17,1.5,1.3a50.17,50.17,0,0,0,7-.37.32.32,0,0,0,.21-.39c-.08-.28-4.21.24-5.46.07A9.09,9.09,0,0,1,38.62,28.76Z"/><path class="cls-63" d="M47,29.52s-.31-.15-.41.14S47,30.16,47.8,31a46.61,46.61,0,0,0,3.79,3.75c.18-.07.18-.16-.09-.45Z"/><path class="cls-64" d="M50.79,33.52c-.48-.41-1-.82-1.44-1.23s-1-.89-1.44-1.37a6.75,6.75,0,0,0-1.26-1.08A11.68,11.68,0,0,0,47.8,31a46.61,46.61,0,0,0,3.79,3.75c.18-.07.18-.16-.09-.45Z"/><path class="cls-65" d="M36.6,30.54s0-.45-1.25-.51-2.62-.1-3-.1-.38.84.78,1.11S36.92,31.35,36.6,30.54Z"/><path class="cls-66" d="M33.15,30.79a.71.71,0,0,0-.68-.77s-.26,0-.22.62.26,4.14.29,5.4-.16,1.84,0,2,.56.64.56.33-.1-4.79,0-6.07A8.49,8.49,0,0,0,33.15,30.79Z"/><path class="cls-67" d="M13.52,41.06s.23-.49-.14-.54a9.3,9.3,0,0,0-4.15,1.32c-1.37,1-.16.94.33.61a8.71,8.71,0,0,1,2.54-1C13.12,41.19,13.38,41.32,13.52,41.06Z"/><path class="cls-68" d="M13.38,40.52a3,3,0,0,0-.63.06c.1.31-.64.58-1,.69A6.16,6.16,0,0,0,9,42.65a1.39,1.39,0,0,0,.57-.2,8.71,8.71,0,0,1,2.54-1c1-.23,1.28-.1,1.42-.36C13.52,41.06,13.75,40.56,13.38,40.52Z"/><path class="cls-69" d="M17.67,22a1,1,0,0,0-.22,1.34c.44.61-.16.77-.08,1.37s-.49.68-.41,1.26-.06.74-.19.84a1.43,1.43,0,0,0-.21,1.15c.16.37-.35.85-.23,1.18s-.18.47-.08,1.07-.43.57-.22.88-.3.46-.13.71.23.53-.15,1,0,.48-.49,1.24-1,4.63-1.24,5.78-.45,1-.72.71,2.2-11.23,2.25-11.78S17,21.18,17.16,21s.36.06.36.06S18,21.57,17.67,22Z"/><path class="cls-70" d="M37.69,30.42a.48.48,0,0,0,.06-.09c.11-.21.2-.75-1.46-.88-.59,0-.6-.05-1.34-.15,0,0-14.24-8.26-17.46-8.31,0,0-.17.05,0,.32S33,30.2,33,30.2a1.39,1.39,0,0,0,.78.23C34.35,30.45,37,31,37.69,30.42Z"/><g class="cls-71"><path class="cls-72" d="M36.81,29.52l.13.1c1.19.81-2.62,1-7.55-2.47A51.22,51.22,0,0,0,17.92,21.6C20.44,23.14,33,30.2,33,30.2a1.39,1.39,0,0,0,.78.23c.53,0,3.22.55,3.88,0a.48.48,0,0,0,.06-.09C37.84,30.15,37.93,29.71,36.81,29.52Z"/></g><g class="cls-73"><path class="cls-74" d="M33.11,30.61s-.28-.38-.37.11a44.1,44.1,0,0,0,.08,4.46s.12,2.11.06,2.21-.1.51-.35-.24l0,0c0,.54-.07.82.06.91s.56.64.56.33-.1-4.79,0-6.07a8.49,8.49,0,0,0,0-1.48,1,1,0,0,0,0-.15Z"/></g><path class="cls-75" d="M32.84,38s-.3-.23-.68.47-1.39,2.43-1.55,2.69,0,.62.42.21a19.37,19.37,0,0,0,2.05-2.79C33.1,38.46,33.26,38.12,32.84,38Z"/><path class="cls-76" d="M32.84,38a.25.25,0,0,0-.21,0,.79.79,0,0,1-.07.7,2,2,0,0,1-.44.9,8.32,8.32,0,0,0-1.49,2c.08,0,.21,0,.41-.17a19.37,19.37,0,0,0,2.05-2.79C33.1,38.46,33.26,38.12,32.84,38Z"/><g class="cls-77"><path class="cls-78" d="M46.17,29.42c0,.13-.46.25-2.59.36s-4,.23-5-.27c-.65-.34-.55-.62-.42-.77a.35.35,0,0,0-.24.23c-.14.4.13,1.17,1.5,1.3a50.17,50.17,0,0,0,7-.37.32.32,0,0,0,.21-.39C46.6,29.45,46.43,29.42,46.17,29.42Z"/></g><path class="cls-79" d="M55.81,32.11a3.32,3.32,0,0,0-1.09.48c-.71.43-2,1.31-2,1.31a15.15,15.15,0,0,1,3-1.67S55.93,32.16,55.81,32.11Z"/><path class="cls-80" d="M46.95,29.63s-.12.06,0,.14S49.21,32,49.21,32Z"/><path class="cls-81" d="M41.18,29.72a7.51,7.51,0,0,1-1.82-.49c-.69-.34-1.16-.46-.93-.16A4.43,4.43,0,0,0,41.18,29.72Z"/><path class="cls-82" d="M34.46,29.21s-9.28-5-10.44-5.54c0,0,5.92,3.21,7.14,4S35.34,29.85,34.46,29.21Z"/><path class="cls-83" d="M32.7,30.41a4.81,4.81,0,0,0-.09,1.71c.08,1.21.15,3.39.15,3.39s-.27-4.52-.25-5S32.74,30.29,32.7,30.41Z"/><path class="cls-84" d="M32.56,38.36a10,10,0,0,1-1,1.65C31,40.63,32.68,37.94,32.56,38.36Z"/><path class="cls-85" d="M17.52,21.05s-.2-.25-.36-.06a12.32,12.32,0,0,0-.38,1.53,1.36,1.36,0,0,1,.12.72c-.11,1.18.29.66,0,1.51A6,6,0,0,0,16.33,27c.11.58-.24,1.15-.38,1.94a6.27,6.27,0,0,1-.48,2.31c-.39.55.07,1.06-.4,2a5.12,5.12,0,0,0-.59,2.28c-.24,1.46-.78,4.22-.78,4.22s-.24.41-.37.1a1.88,1.88,0,0,0,0,.71c.26.26.5.44.72-.71s.76-5,1.24-5.78.11-.74.49-1.24.32-.79.15-1,.34-.4.13-.71.33-.28.22-.88.2-.73.08-1.07.38-.81.23-1.18a1.43,1.43,0,0,1,.21-1.15c.13-.11.27-.27.19-.84s.5-.66.41-1.26.52-.76.08-1.37A1,1,0,0,1,17.67,22C18,21.57,17.52,21.05,17.52,21.05Z"/><path class="cls-86" d="M16.65,24.25l-1.1,5.4S16.44,26,16.65,24.25Z"/><path class="cls-87" d="M12.29,40.88a10.84,10.84,0,0,0-3.17,1.4A4.61,4.61,0,0,1,12.29,40.88Z"/><g class="cls-88"><path class="cls-89" d="M56.06,32.12s-.05-.31-.64-.1-3.11,2-3.75,2.45a1.64,1.64,0,0,0-.16-.19l-.71-.76h0l-3.76-4s-.31-.15-.41.14a.24.24,0,0,0,0,.19h0a2.81,2.81,0,0,0,.58.59l.11.1,0,0,.17.17,0,0,.2.2c.72.74,3,3.21,3.66,3.67,0,.09,0,.21.29.1s3.39-2.25,3.77-2.3S56.22,32.29,56.06,32.12Z"/><path class="cls-90" d="M37.77,30h0a.48.48,0,0,0-.14-.18h0l-.08-.06h0a1.49,1.49,0,0,0-.36-.15h0l-.16,0h0a5.07,5.07,0,0,0-.71-.1c-.59,0-.6-.05-1.34-.15,0,0-14.24-8.26-17.46-8.31h0a.2.2,0,0,0-.3,0l0,0h0l0,.06v0l0,.09v0l0,.11v0l0,.13v.05l0,.15,0,.07,0,.16,0,.08,0,.14,0,.13,0,.14,0,.11h0c-.47,2.15-1.19,5.85-1.23,6.24s-1.86,8.6-2.21,11.08h0c0,.1,0,.19,0,.28h0v.38a9.53,9.53,0,0,0-4,1.33c-.95.66-.66.86-.24.81H9l.14,0h0a1.5,1.5,0,0,0,.28-.1h0l.12-.07a8.71,8.71,0,0,1,2.54-1c1-.23,1.28-.1,1.42-.36a.8.8,0,0,0,.07-.31c.15,0,.29-.2.42-.9.21-1.15.76-5,1.24-5.78s.11-.74.49-1.24.32-.79.15-1,.34-.4.13-.71.33-.28.22-.88.2-.73.08-1.07.38-.81.23-1.18a1.43,1.43,0,0,1,.21-1.15c.13-.11.27-.27.19-.84s.5-.66.41-1.26.52-.76.08-1.37A1,1,0,0,1,17.67,22a.5.5,0,0,0,.12-.47l.38.23h0l.11.07.05,0,.11.06.07,0,.12.07.07,0,.13.08.07,0,.14.08.08,0,.15.09.07,0,.16.1.05,0,1.21.7h0l.26.15h0l.56.32,0,0c2.15,1.23,4.77,2.71,7,3.94l0,0,.25.14.09,0,.77.44h0l2.35,1.32.3.17.14.08h-.25c-.26,0-.34.34-.07.66,0,0,0,0,0,.06,0,.62.26,4.14.29,5.4,0,.44,0,.8,0,1.09s0,.26,0,.37v.13s0,.05,0,.08,0,0,0,0,0,.06,0,.09h0v.09l0,0h0l0,0a1,1,0,0,0-.41.47c-.38.7-1.39,2.43-1.55,2.69s-.08.42.11.39h.1l0,0,0,0,0,0,0,0,.08-.06a19.37,19.37,0,0,0,2.05-2.79s0-.1,0-.16a.13.13,0,0,0,0-.08c0-.31-.1-4.79,0-6.07,0-.64,0-1,0-1.22,1.12.24,3.44.28,3.46-.38a1.86,1.86,0,0,0,1.07-.25.48.48,0,0,0,.06-.09l0,0h0v0h0v0h0a.38.38,0,0,0,0-.16h0Z"/><path class="cls-89" d="M46.59,29.48h-.35c-1.05,0-4.05.29-5.09.16a9.09,9.09,0,0,1-2.53-.82s-.37-.13-.58,0h0l0,0v0l0,.08c-.14.4.13,1.17,1.5,1.3a50.17,50.17,0,0,0,7-.37.32.32,0,0,0,.21-.39Z"/></g><path class="cls-91" d="M12,36.35C10.13,37,9,37.69,9.16,38.19s1.95,1.49,4.92,2A8,8,0,0,1,12,36.35Z"/><path class="cls-92" d="M27.65,33.4a10.14,10.14,0,0,0,2,4.24c.82-.36,1.56-.72,2.23-1.06A13.61,13.61,0,0,1,29.74,33Z"/><path class="cls-93" d="M27.65,33.4c-4.45.78-9.65,1.58-12,2a25.76,25.76,0,0,0-3.72.95,8,8,0,0,0,2.1,3.88,20.39,20.39,0,0,0,3.17.33,9,9,0,0,1-2-3.39,9,9,0,0,0,2,3.39,21.8,21.8,0,0,0,2.51-.08,10.52,10.52,0,0,1-1.81-3.79,10.52,10.52,0,0,0,1.81,3.79c.73-.07,1.48-.17,2.25-.32A17.44,17.44,0,0,1,20.16,36,17.44,17.44,0,0,0,22,40.15c.67-.13,1.35-.29,2.05-.49l.81-.24a11.74,11.74,0,0,1-2.27-4.64,11.74,11.74,0,0,0,2.27,4.64c.91-.28,1.77-.57,2.58-.87C26.14,37.08,25.33,34,25.27,34s.87,3.09,2.18,4.56c.8-.3,1.55-.6,2.25-.91A10.14,10.14,0,0,1,27.65,33.4Z"/><path class="cls-94" d="M29.74,33a13.61,13.61,0,0,0,2.18,3.55c.81-.42,1.51-.82,2.1-1.18a9.82,9.82,0,0,1-1.86-2.84Z"/><path class="cls-95" d="M34.73,31.93a24.8,24.8,0,0,1-2.57.63A9.82,9.82,0,0,0,34,35.39a19.65,19.65,0,0,0,2.49-1.75S37.34,31,34.73,31.93Z"/><g class="cls-96"><path class="cls-97" d="M34.73,31.93a24.8,24.8,0,0,1-2.57.63L29.74,33l-2.09.37c-4.45.78-9.65,1.58-12,2a25.76,25.76,0,0,0-3.72.95,6.16,6.16,0,0,0-2.72,1.48c1,0,2.66.13,3.12.75s.8,1.09,1.18,1.55l.52.1.33.06c-.23-.39-.45-.87-.26-1.06a2,2,0,0,1,2.32.4c.7.7.88.92.88.92v0h.57l-.21-.11s-.82-.87-.76-1.3,1.63-.35,2,0,.66,1.19,1,1.22l.11,0,.55-.06c-.15,0-.55-.21-.82-.93-.34-.9,1-1.07,1.31-.67a15.51,15.51,0,0,0,1,1.36l.56-.12a3.05,3.05,0,0,1-.7-1.32c-.11-.69,1.2-1.17,2-.45a1.91,1.91,0,0,1,.59,1.29l.45-.14c.91-.28,1.77-.57,2.58-.87s1.55-.6,2.25-.91,1.56-.72,2.23-1.06,1.51-.82,2.1-1.18a19.65,19.65,0,0,0,2.49-1.75S37.34,31,34.73,31.93ZM26,38.63c-.75.47-1.39-.37-1.56-.79s1-.63,1-.63C26.13,37.12,26.44,38.33,26,38.63Zm1.87-.93c-.71,0-1.62-.8-.31-1.37.46-.2.95.39.93.8A.56.56,0,0,1,27.83,37.71Zm2.26-.82c-.36.09-.72-.3-.86-.58-.27-.54.06-.64.51-.82s.6.22.71.53S30.59,36.76,30.09,36.89Zm2-1.05c-.27.17-.72-.62-.86-.88s.31-.37.31-.37C32.41,34.41,32.41,35.66,32.14,35.83Z"/></g><path class="cls-98" d="M16.49,40.15a1.71,1.71,0,0,0-1.69-.7c-1.1.21,0,.72.39.76S16.82,40.49,16.49,40.15Z"/><path class="cls-98" d="M17.78,39.27s-.74-.08-.33.54,1.6.47,1.54.26A1.49,1.49,0,0,0,17.78,39.27Z"/><path class="cls-98" d="M20.6,39.33s-.73,0-.35.47S22,39.36,20.6,39.33Z"/><path class="cls-98" d="M23.41,38.67s-1.11-.09-1,.51C22.46,40.18,24.69,39.08,23.41,38.67Z"/><path class="cls-99" d="M24.94,37.71c-.15.11-.19.28,0,.54s1,.48,1-.13c0-.4-.14-.58-.54-.55A1.07,1.07,0,0,0,24.94,37.71Z"/><path class="cls-100" d="M29.74,35.48c-.45.19-.78.28-.51.82.14.28.5.67.86.58s.48-.56.36-.87S30.24,35.38,29.74,35.48Z"/><path class="cls-100" d="M25.42,37.22s-1.19.22-1,.63.81,1.26,1.56.79C26.44,38.33,26.13,37.12,25.42,37.22Z"/><path class="cls-100" d="M27.52,36.34c-1.3.57-.4,1.37.31,1.37a.56.56,0,0,0,.62-.57C28.47,36.72,28,36.13,27.52,36.34Z"/><path class="cls-100" d="M31.58,34.59s-.45.11-.31.37.59,1.05.86.88S32.41,34.41,31.58,34.59Z"/><path class="cls-101" d="M25.67,36.82c.41,0,1.1,1.34,1.39,1.25s-1-1.08-.19-1.64,1.54-.58,1.82-.13.66.8.5.43-.67-.93-.1-1.2,1.2-.71,1.48-.31.94,1,.88.78-.62-1.37-.26-1.57,2.6-1,3.05-1.89a2,2,0,0,0,.14-.53c-.53.15-1.3.33-2.23.52L29.74,33l-2.09.37c-4.45.78-9.65,1.58-12,2a25.76,25.76,0,0,0-3.72.95,10.52,10.52,0,0,0-2.06.92,14.36,14.36,0,0,0,7.52,1.42A45.1,45.1,0,0,0,25.67,36.82Z"/><path class="cls-102" d="M41,32.61c-.15.11-3.42,2.36-5.22,2.09a1.68,1.68,0,0,1-1.06-2.77,37,37,0,0,1,4.46-2.12Z"/><path class="cls-103" d="M41,32.61c-.15.11-3.42,2.36-5.22,2.09a1.68,1.68,0,0,1-1.06-2.77,37,37,0,0,1,4.46-2.12Z"/><path class="cls-104" d="M43.23,26.37a1.48,1.48,0,0,0-1.74-.22,4,4,0,0,0-2.7.42,2.25,2.25,0,0,0-1.85.79c-.66.89.55,1.27.65,2.47s-.46,2.86,1.59,3.76,5-.95,5.46-2.86S43.55,26.86,43.23,26.37Z"/><path class="cls-105" d="M41.11,31.3a6.62,6.62,0,0,0,.39-5.15"/><path class="cls-105" d="M39.87,31.67s.91-3.09-1-5.1"/><path class="cls-106" d="M43.23,26.37a1.48,1.48,0,0,0-1.74-.22,4,4,0,0,0-2.7.42,2.25,2.25,0,0,0-1.85.79c-.66.89.55,1.27.65,2.47s-.46,2.86,1.59,3.76,5-.95,5.46-2.86S43.55,26.86,43.23,26.37Zm-.67,1.47c-.07.61-.17,2.18-.35,3.65a2,2,0,0,1-2.89,1.43c-1.06-.44-1.38-1.83-1-3.25a2,2,0,0,0-.55-2.13c-.13-.33.32-.44.32-.44.55-.07.8.15,1.42,1.44a6.79,6.79,0,0,1,.2,3.44,7,7,0,0,0,0-4.19,1.21,1.21,0,0,1,1.34.39c.43.68.1,2.72-.11,3.11s0,.33,0,.33a11.34,11.34,0,0,0,1-4,2.33,2.33,0,0,0,0-.32C42.16,27,42.63,27.23,42.56,27.84Z"/><path class="cls-107" d="M38.47,27.33c-.16,0-.37.09-.24.28a2.43,2.43,0,0,1,.49,1.7c0,1.11-.65,1.85.17,2.36a.46.46,0,0,0,.46-.1,1.43,1.43,0,0,0,.23-.76,4.66,4.66,0,0,0-.27-2.35,3.91,3.91,0,0,0-.47-.83.84.84,0,0,0-.36-.3Z"/><path class="cls-107" d="M40.41,28s-.44-.09-.29.26a3.57,3.57,0,0,1,.21,2.61c-.41,1.22.61.63.7-.92S40.64,28.14,40.41,28Z"/><path class="cls-108" d="M45.72,25c-2.18.47-2.41,1.51-2.41,1.51a26.11,26.11,0,0,0-.69,4.81c0,2,0,4.69,2.18,4.67a7.74,7.74,0,0,1,.92-2.92c.6-1.15.71-1.49,2-1.93a3.06,3.06,0,0,0,.94-.49,9.63,9.63,0,0,0,.14-2.27C48.6,26.69,47.9,24.58,45.72,25Z"/><path class="cls-109" d="M45.19,34.32A5.37,5.37,0,0,0,44.81,36a3.08,3.08,0,0,0,.59-.06,3.4,3.4,0,0,0,2.16-1.9A3.94,3.94,0,0,1,45.19,34.32Z"/><path class="cls-110" d="M48.15,32.66a13,13,0,0,0,.48-2,3.06,3.06,0,0,1-.94.49A2.47,2.47,0,0,0,46,32.67,2.59,2.59,0,0,0,48.15,32.66Z"/><path class="cls-111" d="M48.15,32.66a2.59,2.59,0,0,1-2.2,0l-.23.45a10.37,10.37,0,0,0-.53,1.21,3.94,3.94,0,0,0,2.36-.25A8.73,8.73,0,0,0,48.15,32.66Z"/><path class="cls-107" d="M45.36,34.56A6.59,6.59,0,0,0,45,35.83h0a5,5,0,0,1,.67-1.21Z"/><path class="cls-112" d="M46.84,34.3a4.86,4.86,0,0,1-2,1.66s0,.05,0,.08a3.08,3.08,0,0,0,.59-.06,3.4,3.4,0,0,0,2.16-1.9A4.54,4.54,0,0,1,46.84,34.3Z"/><path class="cls-107" d="M46.83,32.23a3.71,3.71,0,0,1,.31-.42c.1-.11.1-.2.05-.26a2.31,2.31,0,0,0-1,1.15l.34.13A3.53,3.53,0,0,1,46.83,32.23Z"/><path class="cls-113" d="M47.76,31.15a.53.53,0,0,1,.1.23,2.82,2.82,0,0,1-.26,1.46,2.92,2.92,0,0,0,.56-.19,13,13,0,0,0,.48-2A3,3,0,0,1,47.76,31.15Z"/><path class="cls-107" d="M46.1,32.85l-.23.43a9.71,9.71,0,0,0-.41.91l.38.08a4.07,4.07,0,0,0,.33-.61c.09-.22.21-.47.3-.7A2.92,2.92,0,0,1,46.1,32.85Z"/><path class="cls-114" d="M47.59,32.84l-.17.4a5.59,5.59,0,0,1-.59,1.05,4.54,4.54,0,0,0,.72-.23,8.73,8.73,0,0,0,.6-1.41A2.92,2.92,0,0,1,47.59,32.84Z"/><g class="cls-115"><path class="cls-116" d="M45.72,25a3.47,3.47,0,0,0-2.24,1.19c.37-.32.94-.66,1-.28s-1.09,1.54-.06,4.06c.74,1.81,1.49,1.31,1.06,2.79s-2,3-2.8.66c.17,1.39.68,2.59,2.1,2.58a7.74,7.74,0,0,1,.92-2.92c.6-1.15.71-1.49,2-1.93a3.06,3.06,0,0,0,.94-.49,9.63,9.63,0,0,0,.14-2.27C48.6,26.69,47.9,24.58,45.72,25Z"/></g><g class="cls-117"><path class="cls-118" d="M44.41,35.22A2.2,2.2,0,0,1,43,34.6,1.86,1.86,0,0,0,44.81,36a3.51,3.51,0,0,1,.11-.83Z"/><path class="cls-119" d="M46.34,25c1.32.51,1.69,2.7,1.75,4a3.4,3.4,0,0,1-.15,1.46c-.21.49-.68.67-1.1.93A2.56,2.56,0,0,0,46,32.6l-.12.25a2.59,2.59,0,0,1,1.83-1.67,3.06,3.06,0,0,0,.94-.49,9.63,9.63,0,0,0,.14-2.27C48.62,26.87,48,25,46.34,25Z"/></g><path class="cls-107" d="M44,26.2c-.72.59-.73,1.92-.84,2.77a16.89,16.89,0,0,0-.19,3.51A3.83,3.83,0,0,0,43.3,34a31.88,31.88,0,0,1,.18-4.47C43.72,27.81,44.23,26,44,26.2Z"/><path class="cls-120" d="M37.06,27.34A115.51,115.51,0,0,1,23,29.46C15.41,30.11,6.49,31.29,5.2,33s4.28,4.84,8.94,5.39,13-2.28,16.86-4.07,6.61-3.46,6.61-3.46S38.94,28.35,37.06,27.34Z"/><path class="cls-121" d="M38,28.42A54.27,54.27,0,0,1,30.59,30a33.22,33.22,0,0,0-6.09,1.52,27.13,27.13,0,0,1-3.44,1l-.27,0c-1.43.24-3.29.55-5.13.76h0a28.86,28.86,0,0,1-3.73.21c-1.13,0-2.27,0-3.32,0,1.09-.22,3.87-.81,5.8-1.39A11.16,11.16,0,0,0,16,31.45c1.63.34,4.21-.17,6.09-.54a19.45,19.45,0,0,1,2-.34c1.44-.09,5.34-.94,5.38-.95a19.12,19.12,0,0,1,2.63-.49l.48,0a15.2,15.2,0,0,0,2-.27c.46-.09,1-.25,1.59-.41.8-.24,1.51-.48,1.52-.49a0,0,0,1,0,0-.08,30.23,30.23,0,0,1-3.09.9,15.14,15.14,0,0,1-2,.27l-.48,0a19.28,19.28,0,0,0-2.64.49s-2.73.59-4.46.84l0,0a12.41,12.41,0,0,0-3.49-.76,0,0,0,1,0,0,.09,12.63,12.63,0,0,1,3.37.71l-.76.08a19.44,19.44,0,0,0-2,.34c-1.88.37-4.46.89-6.07.54-2.33-.5-7.3.15-7.35.16a0,0,0,0,0,0,0,0,0,0,0,0,.05,0s4.83-.63,7.19-.18a57.4,57.4,0,0,1-7.71,2h0a13.75,13.75,0,0,0-3,.34,0,0,0,0,0,0,.05,0,0,0,0,0,.05,0,29.25,29.25,0,0,1,6.82-.31c.68,0,1.41,0,2.17-.06a14.24,14.24,0,0,1-6.5,2.18h0c-.75-.18-1.19-.33-1.21-.33a0,0,0,0,0-.06,0,0,0,0,0,0,0,.06,23.69,23.69,0,0,0,10.46.68l.86-.15a13,13,0,0,1-6.29,1.83,0,0,0,0,0,0,0,0,0,0,0,0,0,0,10,10,0,0,0,3.15-.46,15.09,15.09,0,0,0,3.38-1.49h0c1.11-.22,2.07-.46,2.94-.72,1.47-.44,2.63-.91,3.65-1.32a20.46,20.46,0,0,1,3.06-1.06l.37-.09c-2.12,3-9.29,5.44-9.36,5.47a0,0,0,0,0,0,.06,0,0,0,0,0,.05,0h0c.07,0,7.41-2.52,9.47-5.59l1.59-.43h0c1.75-.5,3.91-1.18,5.6-1.71a15.59,15.59,0,0,1-6.49,4.69,0,0,0,0,0,0,.08h0a15.67,15.67,0,0,0,6.59-4.81h0L38,29.62a0,0,0,0,0,0-.08h0c-.06,0-4.49,1.47-7.81,2.44a17.08,17.08,0,0,0,3.43-2.4v0C36,29.08,38,28.51,38,28.5h0a0,0,0,0,0,0-.05A0,0,0,0,0,38,28.42ZM16.76,36a24,24,0,0,1-8.9-.28,9.81,9.81,0,0,0,2.39-.43,17.3,17.3,0,0,0,4-1.84h0l1.4-.13a15.89,15.89,0,0,1,6.89,1.18A31.12,31.12,0,0,1,16.76,36Zm12.85-3.87c-.83.24-1.56.44-2.1.56a20.5,20.5,0,0,0-3.08,1.07c-.54.22-1.12.45-1.77.69v0a15,15,0,0,0-6.23-1.21c1.6-.2,3.15-.46,4.39-.67l.27,0a27.25,27.25,0,0,0,3.45-1A33.22,33.22,0,0,1,30.6,30c1-.12,1.93-.28,2.84-.45A16,16,0,0,1,29.62,32.14Z"/><path class="cls-107" d="M42.33,29.3s0-.46-.15-.39-.1,1.9-.83,2.55.52.82.75-.55S42.33,29.3,42.33,29.3Z"/><ellipse class="cls-122" cx="46.29" cy="28.18" rx="2.03" ry="1.24" transform="translate(17.11 73.85) rotate(-88.77)"/><ellipse class="cls-123" cx="46.21" cy="28.11" rx="2.03" ry="1.12" transform="translate(17.12 73.71) rotate(-88.77)"/><path class="cls-124" d="M46.4,27.88a2.46,2.46,0,0,1,.89.36s0-.05,0-.08c0-1.06-.43-1.92-1-1.94s-1.07.83-1.1,1.89c0,.07,0,.13,0,.19A1.29,1.29,0,0,1,46.4,27.88Z"/><path class="cls-125" d="M46.28,26.22c-.58,0-1.07.83-1.1,1.89s.43,1.92,1,1.94,1.07-.83,1.1-1.89S46.86,26.23,46.28,26.22ZM47,28c0,.79-.46,1.44-.93,1.44s-.82-.64-.78-1.43.46-1.44.93-1.44S47,27.18,47,28Z"/><ellipse class="cls-126" cx="45.83" cy="27.5" rx="0.5" ry="0.27" transform="translate(14.99 71.14) rotate(-85.71)"/><ellipse class="cls-126" cx="45.73" cy="28.51" rx="0.23" ry="0.12" transform="translate(13.82 71.94) rotate(-85.64)"/><path class="cls-127" d="M35.76,32.31s1.26-.89,1.45-.37a3,3,0,0,0,1,1.37c.35.21-.35.78-1.33,1s-2.32-.42-2.08-1A2.67,2.67,0,0,1,35.76,32.31Z"/><g class="cls-71"><path class="cls-128" d="M37.06,27.34l-.88.19a1.23,1.23,0,0,1,1,.73c.36.91-12.67,7-21.75,7-8.34,0-9.11-2.76-5.89-4-2.23.5-3.84,1.09-4.33,1.75-1.29,1.73,4.28,4.84,8.94,5.39s13-2.28,16.86-4.07,6.61-3.46,6.61-3.46S38.94,28.35,37.06,27.34Z"/></g><g class="cls-129"><path class="cls-128" d="M36.72,29.9c-1,.84-5.83,3.6-13.3,6.06s-14.63.39-16.5-1.55c-1.28-1.32-.21-2.18.6-2.6A4.93,4.93,0,0,0,5.2,33c-1.29,1.73,4.28,4.84,8.94,5.39s13-2.28,16.86-4.07,6.61-3.46,6.61-3.46,1.15-2.18-.2-3.31v0C37.76,29,37.67,29.06,36.72,29.9Z"/></g><path class="cls-98" d="M35.23,28.43s.07-.27-.81-.13-5.59.84-7.9,1.16S18,30.2,15.83,30.52s-7.17.94-6.6,2.13,6.25,2.21,12,.81a83.64,83.64,0,0,0,11.56-3.61C34.56,29.09,35.6,28.75,35.23,28.43Z"/><path class="cls-130" d="M57.63,39.48s.11-.3-.51-.4-4.54.28-4.65.26-.29.23.1.28,4.06-.26,4.42-.12S57.69,39.71,57.63,39.48Z"/><path class="cls-131" d="M39.38,33.6s-.54-.19-.68.2.13,1.17,1.5,1.3a50.23,50.23,0,0,0,7-.37.32.32,0,0,0,.21-.39c-.08-.28-4.21.24-5.46.07A9.1,9.1,0,0,1,39.38,33.6Z"/><path class="cls-132" d="M47.8,34.35s-.31-.15-.41.14.37.51,1.17,1.33a46.66,46.66,0,0,0,3.79,3.75c.18-.07.18-.16-.09-.45Z"/><path class="cls-133" d="M51.56,38.36c-.48-.41-1-.82-1.44-1.23s-1-.89-1.45-1.37a6.72,6.72,0,0,0-1.26-1.08,11.71,11.71,0,0,0,1.15,1.14,46.66,46.66,0,0,0,3.79,3.75c.18-.07.18-.16-.09-.45Z"/><path class="cls-134" d="M37.37,35.37s0-.45-1.25-.51-2.63-.1-3-.1-.38.84.78,1.11S37.69,36.19,37.37,35.37Z"/><path class="cls-135" d="M33.92,35.63a.71.71,0,0,0-.68-.77s-.26,0-.22.62.26,4.14.29,5.4-.16,1.84,0,2,.56.64.56.33-.1-4.79,0-6.07A8.43,8.43,0,0,0,33.92,35.63Z"/><path class="cls-136" d="M14.6,45.86s0-.54-.35-.44A9.3,9.3,0,0,0,11,48.3c-.87,1.43.23.92.54.42a8.73,8.73,0,0,1,1.92-2C14.29,46.14,14.59,46.16,14.6,45.86Z"/><path class="cls-137" d="M14.26,45.42a3,3,0,0,0-.55.3c.22.24-.35.79-.64,1a6.16,6.16,0,0,0-2,2.38,1.38,1.38,0,0,0,.44-.41,8.73,8.73,0,0,1,1.92-2c.83-.62,1.13-.6,1.15-.9C14.6,45.86,14.61,45.32,14.26,45.42Z"/><path class="cls-138" d="M18.43,26.81a1,1,0,0,0-.22,1.34c.44.61-.16.77-.08,1.37s-.49.68-.41,1.26-.06.74-.19.84a1.43,1.43,0,0,0-.21,1.15c.16.37-.35.85-.23,1.18s-.18.47-.07,1.07-.43.57-.22.88-.3.46-.13.71.23.53-.15,1,0,.48-.49,1.24-1,4.63-1.24,5.78-.45,1-.72.71,2.2-11.23,2.25-11.78,1.45-7.59,1.61-7.78.36.06.36.06S18.8,26.4,18.43,26.81Z"/><path class="cls-139" d="M38.46,35.26a.49.49,0,0,0,.06-.09c.11-.21.2-.75-1.46-.88-.59,0-.6-.05-1.34-.15,0,0-14.24-8.26-17.46-8.31,0,0-.17.05,0,.32S33.8,35,33.8,35a1.38,1.38,0,0,0,.78.23C35.12,35.29,37.81,35.81,38.46,35.26Z"/><g class="cls-71"><path class="cls-140" d="M37.58,34.36l.13.1c1.19.81-2.62,1-7.55-2.47a51.22,51.22,0,0,0-11.47-5.54C21.2,28,33.8,35,33.8,35a1.38,1.38,0,0,0,.78.23c.53,0,3.22.55,3.88,0a.49.49,0,0,0,.06-.09C38.61,35,38.7,34.55,37.58,34.36Z"/></g><g class="cls-73"><path class="cls-141" d="M33.88,35.44s-.28-.38-.37.11A44,44,0,0,0,33.59,40s.12,2.11.06,2.21-.1.51-.35-.24v0c0,.54-.07.82.06.91s.56.64.56.33-.1-4.79,0-6.07a8.43,8.43,0,0,0,0-1.48.9.9,0,0,0,0-.15Z"/></g><path class="cls-142" d="M33.61,42.85s-.3-.23-.68.47S31.54,45.74,31.38,46s0,.62.42.21a19.34,19.34,0,0,0,2.05-2.79C33.86,43.3,34,43,33.61,42.85Z"/><path class="cls-143" d="M33.61,42.85a.25.25,0,0,0-.21,0,.79.79,0,0,1-.07.7,2,2,0,0,1-.44.9,8.37,8.37,0,0,0-1.49,2c.08,0,.21,0,.41-.17a19.34,19.34,0,0,0,2.05-2.79C33.86,43.3,34,43,33.61,42.85Z"/><g class="cls-77"><path class="cls-144" d="M46.93,34.26c0,.13-.46.25-2.59.36s-4,.23-5-.27c-.65-.34-.55-.62-.42-.77a.35.35,0,0,0-.24.23c-.14.4.13,1.17,1.5,1.3a50.23,50.23,0,0,0,7-.37.32.32,0,0,0,.21-.39C47.36,34.29,47.2,34.26,46.93,34.26Z"/></g><path class="cls-145" d="M57.42,39.34a3.33,3.33,0,0,0-1.18-.13c-.83,0-2.37.15-2.37.15a15.12,15.12,0,0,1,3.41,0S57.5,39.46,57.42,39.34Z"/><path class="cls-146" d="M47.71,34.47s-.12.06,0,.14S50,36.88,50,36.88Z"/><path class="cls-147" d="M41.94,34.56a7.51,7.51,0,0,1-1.82-.49c-.69-.34-1.16-.46-.93-.16A4.44,4.44,0,0,0,41.94,34.56Z"/><path class="cls-148" d="M35.22,34.05s-9.28-5-10.44-5.54c0,0,5.92,3.21,7.14,4S36.11,34.69,35.22,34.05Z"/><path class="cls-149" d="M33.46,35.24A4.81,4.81,0,0,0,33.37,37c.08,1.21.15,3.39.15,3.39s-.27-4.52-.25-5S33.5,35.12,33.46,35.24Z"/><path class="cls-150" d="M33.32,43.2a10,10,0,0,1-1,1.65C31.76,45.47,33.45,42.78,33.32,43.2Z"/><path class="cls-151" d="M18.29,25.89s-.2-.25-.36-.06a12.44,12.44,0,0,0-.38,1.53,1.37,1.37,0,0,1,.12.72c-.11,1.18.29.65,0,1.51a6,6,0,0,0-.59,2.28c.11.58-.24,1.15-.38,1.94a6.27,6.27,0,0,1-.48,2.31c-.39.55.07,1.06-.4,2a5.11,5.11,0,0,0-.59,2.28c-.24,1.46-.78,4.22-.78,4.22s-.24.41-.37.1a1.87,1.87,0,0,0,0,.71c.26.26.5.44.72-.71s.76-5,1.24-5.78.11-.74.49-1.24.32-.79.15-1,.34-.4.13-.71.33-.28.22-.88.2-.73.07-1.07.38-.81.23-1.18a1.43,1.43,0,0,1,.21-1.15c.13-.11.27-.27.19-.84s.5-.66.41-1.26.52-.76.08-1.37a1,1,0,0,1,.22-1.34C18.8,26.4,18.29,25.89,18.29,25.89Z"/><path class="cls-152" d="M17.42,29.09l-1.1,5.4S17.2,30.84,17.42,29.09Z"/><path class="cls-153" d="M13.4,46.19a10.83,10.83,0,0,0-2.34,2.56A4.61,4.61,0,0,1,13.4,46.19Z"/><path class="cls-98" d="M9.71,38.09s-.26,0-.07.23a9.58,9.58,0,0,0,3.3,1.35A4.13,4.13,0,0,0,9.71,38.09Z"/><path class="cls-60" d="M26.26,16.32a13.91,13.91,0,0,0,5-.56S26.5,17,26.26,16.32Z"/></g></g></svg>