<svg id="Layer_1" data-name="Layer 1" xmlns="http://www.w3.org/2000/svg" viewBox="0 0 62.65 62.65"><defs><style>.cls-1{fill:#3e4225;}.cls-2{fill:#525731;}.cls-3{fill:#240902;}.cls-4{fill:#461103;}.cls-5{fill:#170601;}.cls-6{fill:#390e02;}.cls-7{fill:#2485b0;}.cls-8{fill:#2a9dd1;}.cls-9{fill:#2eabe3;}.cls-10{fill:#4fbef0;}.cls-11{fill:#54caff;}.cls-12{fill:#71cff3;}.cls-13{font-size:15px;fill:#fff;font-family:ABeeZee-Regular, ABeeZee;}.cls-14{letter-spacing:-0.03em;}</style></defs><title>one metre-icon</title><circle class="cls-1" cx="31.33" cy="31.33" r="31.33"/><path class="cls-2" d="M31.33,61.65A30.33,30.33,0,1,1,61.65,31.33,30.36,30.36,0,0,1,31.33,61.65Z"/><rect class="cls-3" x="9.66" y="49.85" width="1.97" height="1.84"/><rect class="cls-4" x="8.93" y="49.85" width="1.97" height="1.84"/><rect class="cls-5" x="15.5" y="49.85" width="1.97" height="1.84"/><rect class="cls-6" x="14.77" y="49.85" width="1.97" height="1.84"/><rect class="cls-5" x="52.27" y="49.85" width="1.97" height="1.84"/><rect class="cls-6" x="51.54" y="49.85" width="1.97" height="1.84"/><rect class="cls-3" x="47.41" y="49.85" width="1.97" height="1.84"/><rect class="cls-4" x="46.68" y="49.85" width="1.97" height="1.84"/><path class="cls-7" d="M38,41.7a1.85,1.85,0,0,1-1.85,1.85L16.63,44.86A1.85,1.85,0,0,1,14.78,43l3.34-11A1.85,1.85,0,0,1,20,30.13H40.51c1,0-4.33.83-4.33,1.85Z"/><rect class="cls-8" x="11.41" y="36.84" width="4.71" height="13.42"/><rect class="cls-9" x="8.93" y="41.54" width="37.6" height="8.71"/><polygon class="cls-7" points="54.24 41.54 54.24 41.54 36.18 41.54 36.18 41.54 36.18 30.13 36.18 30.13 54.24 30.13 54.24 41.54"/><rect class="cls-7" x="8.63" y="41.54" width="4.28" height="8.71"/><rect class="cls-7" x="8.82" y="41.54" width="37.71" height="1.26"/><polygon class="cls-10" points="34.17 41.54 16.12 41.54 16.12 30.13 34.17 30.13 34.17 30.13 34.17 41.54"/><polygon class="cls-11" points="32.98 40.79 17.31 40.79 17.31 30.89 17.32 30.89 32.98 30.89 32.98 40.79"/><rect class="cls-10" x="34.18" y="30.13" width="18.06" height="11.41"/><polygon class="cls-11" points="51.04 40.79 35.37 40.79 35.37 40.79 35.37 30.89 35.37 30.89 51.04 30.89 51.04 40.79"/><rect class="cls-12" x="46.53" y="36.84" width="3" height="13.42"/><rect class="cls-8" x="49.53" y="36.84" width="4.71" height="13.42"/><rect class="cls-12" x="8.41" y="36.84" width="3" height="13.42"/><text class="cls-13" transform="translate(17.24 14.93) scale(0.99 1)">One<tspan x="-6.54" y="12">met</tspan><tspan class="cls-14" x="21.3" y="12">r</tspan><tspan x="26.83" y="12">e</tspan></text></svg>