<svg id="Layer_1" data-name="Layer 1" xmlns="http://www.w3.org/2000/svg" xmlns:xlink="http://www.w3.org/1999/xlink" viewBox="0 0 95.26 111.96"><defs><linearGradient id="linear-gradient" x1="-81.59" y1="300.67" x2="-80.45" y2="306.29" gradientTransform="matrix(-0.96, 0.26, 0.26, 0.96, -96.67, -228.59)" gradientUnits="userSpaceOnUse"><stop offset="0" stop-color="#85c340"/><stop offset="0.02" stop-color="#8ac540"/><stop offset="0.17" stop-color="#a4ce43"/><stop offset="0.3" stop-color="#b4d344"/><stop offset="0.4" stop-color="#bad545"/><stop offset="1" stop-color="#436e1e"/></linearGradient><linearGradient id="linear-gradient-2" x1="-82.6" y1="318.78" x2="-77.57" y2="320.04" gradientTransform="matrix(-0.96, 0.26, 0.26, 0.96, -96.67, -228.59)" gradientUnits="userSpaceOnUse"><stop offset="0" stop-color="#436e1e"/><stop offset="0.6" stop-color="#bad545"/><stop offset="0.7" stop-color="#b4d344"/><stop offset="0.83" stop-color="#a4ce43"/><stop offset="0.98" stop-color="#8ac540"/><stop offset="1" stop-color="#85c340"/></linearGradient><linearGradient id="linear-gradient-3" x1="-81.94" y1="320.26" x2="-83.69" y2="328.07" gradientTransform="matrix(-0.96, 0.26, 0.26, 0.96, -96.67, -228.59)" gradientUnits="userSpaceOnUse"><stop offset="0" stop-color="#bad545"/><stop offset="0.23" stop-color="#d5b238"/><stop offset="0.47" stop-color="#ec932d"/><stop offset="0.61" stop-color="#f58829"/><stop offset="1" stop-color="#975410"/></linearGradient><linearGradient id="linear-gradient-4" x1="-49.99" y1="309.3" x2="-46.16" y2="309.3" gradientTransform="matrix(-0.96, 0.26, 0.26, 0.96, -96.67, -228.59)" gradientUnits="userSpaceOnUse"><stop offset="0" stop-color="#254a9d"/><stop offset="1" stop-color="#00bff2"/></linearGradient><linearGradient id="linear-gradient-5" x1="-45.01" y1="311.1" x2="-40.87" y2="311.1" xlink:href="#linear-gradient-4"/><linearGradient id="linear-gradient-6" x1="-48.94" y1="310.12" x2="-39.08" y2="309.11" xlink:href="#linear-gradient-2"/><linearGradient id="linear-gradient-7" x1="-83.66" y1="314.46" x2="-82.61" y2="310.75" xlink:href="#linear-gradient-2"/><linearGradient id="linear-gradient-8" x1="-83.35" y1="313.03" x2="-80.35" y2="302.44" xlink:href="#linear-gradient-2"/><linearGradient id="linear-gradient-9" x1="-64.85" y1="323.6" x2="-59.82" y2="305.85" xlink:href="#linear-gradient-2"/><linearGradient id="linear-gradient-10" x1="-59.42" y1="324.65" x2="-58.48" y2="316.03" xlink:href="#linear-gradient-4"/><linearGradient id="linear-gradient-11" x1="-9060.71" y1="323.16" x2="-9048.77" y2="323.16" gradientTransform="translate(8684.85 -2621.95) rotate(-15.25)" xlink:href="#linear-gradient-4"/><linearGradient id="linear-gradient-12" x1="-49.49" y1="335.41" x2="-55.99" y2="338.13" xlink:href="#linear-gradient-3"/><linearGradient id="linear-gradient-13" x1="-50.04" y1="335.31" x2="-55.43" y2="331.57" xlink:href="#linear-gradient-3"/><linearGradient id="linear-gradient-14" x1="-52.14" y1="321.61" x2="-46.45" y2="325.09" xlink:href="#linear-gradient-2"/><linearGradient id="linear-gradient-15" x1="-41.74" y1="329.56" x2="-38.33" y2="335.21" xlink:href="#linear-gradient-2"/><linearGradient id="linear-gradient-16" x1="-43.59" y1="324.41" x2="-41.56" y2="329.65" xlink:href="#linear-gradient-2"/><linearGradient id="linear-gradient-17" x1="-9024.52" y1="307.47" x2="-9015.64" y2="307.47" gradientTransform="translate(8684.85 -2621.95) rotate(-15.25)" xlink:href="#linear-gradient"/><radialGradient id="radial-gradient" cx="-8997.35" cy="310.3" r="3.78" gradientTransform="matrix(1.17, -0.32, 0.26, 0.96, 10508.75, -3163.43)" gradientUnits="userSpaceOnUse"><stop offset="0" stop-color="#3165af"/><stop offset="0.64" stop-color="#2b60ac"/><stop offset="1" stop-color="#255ba9"/></radialGradient><radialGradient id="radial-gradient-2" cx="-8997.26" cy="310.5" r="3.52" gradientTransform="matrix(1.17, -0.32, 0.26, 0.96, 10508.75, -3163.43)" gradientUnits="userSpaceOnUse"><stop offset="0" stop-color="#ee4323"/><stop offset="0.13" stop-color="#e84122"/><stop offset="0.3" stop-color="#d83a1e"/><stop offset="0.49" stop-color="#bc2f18"/><stop offset="0.7" stop-color="#96200f"/><stop offset="0.92" stop-color="#660c05"/><stop offset="1" stop-color="#520400"/></radialGradient><linearGradient id="linear-gradient-18" x1="-60.76" y1="315.59" x2="-62.22" y2="322.22" gradientTransform="matrix(-0.96, 0.26, 0.26, 0.96, -96.67, -228.59)" gradientUnits="userSpaceOnUse"><stop offset="0" stop-color="#fff229"/><stop offset="0.2" stop-color="#eae931"/><stop offset="0.51" stop-color="#d0de3c"/><stop offset="0.79" stop-color="#c0d743"/><stop offset="1" stop-color="#bad545"/></linearGradient><linearGradient id="linear-gradient-19" x1="-9057.24" y1="322.15" x2="-9045.31" y2="322.15" gradientTransform="translate(8684.85 -2621.95) rotate(-15.25)" xlink:href="#linear-gradient-4"/><linearGradient id="linear-gradient-20" x1="-68.69" y1="334.72" x2="-76.92" y2="340.31" xlink:href="#linear-gradient-3"/><linearGradient id="linear-gradient-21" x1="-73.79" y1="321.17" x2="-63.61" y2="318.28" xlink:href="#linear-gradient-2"/><linearGradient id="linear-gradient-22" x1="-69.6" y1="328.88" x2="-63.74" y2="331.36" xlink:href="#linear-gradient-2"/><linearGradient id="linear-gradient-23" x1="-69.37" y1="322.42" x2="-64.63" y2="317.78" xlink:href="#linear-gradient-4"/></defs><title>8</title><path d="M95.26,104.19V99.62a4.49,4.49,0,0,1,0-9V88.43a4.49,4.49,0,0,1,0-9V77.25a4.49,4.49,0,1,1,0-9V66.06a4.49,4.49,0,1,1,0-9V54.87a4.49,4.49,0,1,1,0-9V43.69a4.49,4.49,0,0,1,0-9V32.5a4.49,4.49,0,0,1,0-9V21.31a4.49,4.49,0,1,1,0-9V7.77A7.77,7.77,0,0,1,87.49,0H7.77A7.77,7.77,0,0,1,0,7.77v4.56a4.49,4.49,0,0,1,4.49,4.49A4.49,4.49,0,0,1,0,21.31v2.21A4.49,4.49,0,0,1,4.49,28,4.49,4.49,0,0,1,0,32.5v2.21A4.49,4.49,0,0,1,4.49,39.2,4.49,4.49,0,0,1,0,43.69V45.9a4.49,4.49,0,0,1,4.49,4.49A4.49,4.49,0,0,1,0,54.87v2.21a4.49,4.49,0,0,1,4.49,4.49A4.49,4.49,0,0,1,0,66.06v2.21a4.49,4.49,0,1,1,0,9v2.21a4.49,4.49,0,0,1,4.49,4.49A4.49,4.49,0,0,1,0,88.43v2.21a4.49,4.49,0,0,1,4.49,4.49A4.49,4.49,0,0,1,0,99.62v4.56A7.77,7.77,0,0,1,7.77,112H87.49A7.77,7.77,0,0,1,95.26,104.19Z" fill="#ed5d54"/><path d="M95.26,57.09v-1H0v1a4.49,4.49,0,0,1,4.49,4.49A4.49,4.49,0,0,1,0,66.06v2.21a4.49,4.49,0,1,1,0,9v2.21a4.49,4.49,0,0,1,4.49,4.49A4.49,4.49,0,0,1,0,88.43v2.21a4.49,4.49,0,0,1,4.49,4.49A4.49,4.49,0,0,1,0,99.62v4.56A7.77,7.77,0,0,1,7.77,112H87.49a7.77,7.77,0,0,1,7.77-7.77V99.62a4.49,4.49,0,0,1,0-9V88.43a4.49,4.49,0,0,1,0-9V77.25a4.49,4.49,0,1,1,0-9V66.06a4.49,4.49,0,1,1,0-9Z" fill="#d8423f"/><path d="M11,9.95V102H84.31V9.95ZM83.31,101H12V10.95H83.31Z" fill="#7c0704" opacity="0.35"/><rect x="11.95" y="10.95" width="71.36" height="90.07" fill="#eef3cc"/><polygon points="83.31 56.06 83.31 101.01 11.95 101.01 11.95 56.06 10.95 56.06 10.95 102.01 84.31 102.01 84.31 56.06 83.31 56.06" fill="#7c0704" opacity="0.2"/><polygon points="34.93 9.94 21.85 9.94 26.85 0 39.93 0 34.93 9.94" fill="#fff" opacity="0.2"/><polygon points="40.07 9.94 37.6 9.94 42.6 0 45.07 0 40.07 9.94" fill="#fff" opacity="0.2"/><text transform="translate(64.89 24.39) scale(0.99 1)" font-size="15" fill="#d8423f" font-family="ABeeZee-Regular, ABeeZee Regular">1c</text><path d="M65.6,43.67A4.91,4.91,0,0,1,60.39,47c-2.36-.22-3.86-2-3.34-4.08a4.91,4.91,0,0,1,5.21-3.29C64.62,39.81,66.12,41.64,65.6,43.67Z" fill="url(#linear-gradient)"/><path d="M65.46,59.76a3,3,0,0,0-2.07,1.14,2.58,2.58,0,0,0-.58-.76,6.73,6.73,0,0,1-.6-.85c-.28-.39-.55-.77-.81-1.17L61.34,58,64,55.4l.12.16c.63.92,1.27,1.84,1.92,2.76a5.23,5.23,0,0,0,1,1.06,3,3,0,0,0,1,.42l.34.1C67.35,60.46,66.36,59.93,65.46,59.76Z" fill="url(#linear-gradient-2)"/><path d="M59.31,63.88A1.67,1.67,0,0,1,61.49,63c.8-.45,1.79-.82,1.95-1.61a.82.82,0,0,0-.05-.48,3,3,0,0,1,2.07-1.14c.9.17,1.9.69,2.87.14,1.4.36,3.08.21,4.5.57a9.26,9.26,0,0,1,2.62,1.06A4.73,4.73,0,0,1,77,62.67a2.08,2.08,0,0,1,.9-.12c.86.08,1.42.68,1.26,1.35A1.73,1.73,0,0,1,77.32,65c-.84-.08-1.39-.66-1.26-1.31a10.26,10.26,0,0,1-1.56-1,9.17,9.17,0,0,0-2.87-1.38c-.36-.09-2.37-.43-2.12.49.07.26.59.47.8.64a10.5,10.5,0,0,1,1.06,1,6.52,6.52,0,0,1,1.45,2.27,2,2,0,0,1,.45,0,1.26,1.26,0,0,1,1.26,1.51,1.83,1.83,0,0,1-1.95,1.21,1.26,1.26,0,0,1-1.26-1.51,1.34,1.34,0,0,1,.14-.33,8,8,0,0,1-1.53-2.41,5.83,5.83,0,0,0-1.37-1.53,2.13,2.13,0,0,0-1.42-.77,4,4,0,0,0,.06,2.36,6.54,6.54,0,0,1,.16,1.31c.71.2,1.14.71,1,1.27a1.86,1.86,0,0,1-2,1c-1-.09-1.59-.69-1.42-1.35a1.49,1.49,0,0,1,1.1-.94c0-.16-.06-.32-.09-.5-.13-.67-.19-2.36-1-2.64-.42-.14-.84.17-1.16.4a15.41,15.41,0,0,1-1.34.87l-.24.14a.91.91,0,0,1,0,.39,1.59,1.59,0,0,1-1.71,1C59.66,65.07,59.15,64.5,59.31,63.88Z" fill="url(#linear-gradient-3)"/><path d="M32.82,56.4S31.19,57.62,29.56,59a24.63,24.63,0,0,0,.9-3.11A8.37,8.37,0,0,1,32.82,56.4Z" fill="url(#linear-gradient-4)"/><path d="M25.32,63.59s0-4.23,2.48-6.62a15.56,15.56,0,0,0,0,3.71c-.32.32-.61.64-.84.92Z" fill="url(#linear-gradient-5)"/><path d="M28.55,56.35a3.2,3.2,0,0,1,1.9-.43,24.63,24.63,0,0,1-.9,3.11c-.63.54-1.25,1.11-1.78,1.64a15.56,15.56,0,0,1,0-3.71A5.58,5.58,0,0,1,28.55,56.35Z" fill="url(#linear-gradient-6)"/><path d="M68.22,51.8a11,11,0,0,0-1.27,1h-.12c-3.18.25-6,1.82-9.29,1.63a9.18,9.18,0,0,1-1,0c6.32-1.77,12.62-4,17.77-7.74C73.11,48.57,68.42,51.78,68.22,51.8Z" fill="url(#linear-gradient-7)"/><path d="M55.31,53.95c-1.18-3.13.5-6.69,1.93-10a42.9,42.9,0,0,1,5-.69,31.42,31.42,0,0,1,6.51-.78c3.78-.08,6.13,2,5.82,3.69a1.73,1.73,0,0,1-.25.56c-5.16,3.76-11.45,6-17.77,7.74C55.93,54.42,55.4,54.3,55.31,53.95Z" fill="url(#linear-gradient-8)"/><path d="M25.79,65a1.93,1.93,0,0,1-.47-1.37h0l1.61-2c1.61-2,8.54-7.26,8.54-7.26s4-2.73,7.21-3.33a13.3,13.3,0,0,0,8.09-4.4c1.26-1.34,4-2.18,6.47-2.68-1.43,3.34-3.11,6.89-1.93,10,.16.58,1.48.53,2.23.48,3.29.19,6.12-1.38,9.29-1.63h.12c-.81.68-1.9,1.63-3,2.62L61.34,58a8.78,8.78,0,0,0-.86,1.1,37.65,37.65,0,0,1-3.8,4.47,35.9,35.9,0,0,0,1.84-6.8,11.07,11.07,0,0,0-1.78.57c.21-.42-.09-.63,0-1.08C47,59,38.84,63.42,30.31,68.51l-1-.33A6.09,6.09,0,0,1,25.79,65Z" fill="url(#linear-gradient-9)"/><path d="M56.75,57.38c-4.67,1.95-6.67,6.69-8.69,10.65L48,67.75c-.62,1.21-7.49,1.75-8.2,1.8-4.69,0-7-.26-9.44-1,8.52-5.1,16.52-9.47,26.25-12.16C56.47,56.8,57,57,56.75,57.38Z" fill="url(#linear-gradient-10)"/><path d="M26.84,68.16c.17-1.23.53-2.1,1.9-1.46,4.84,2.12,9,4.62,12.28,8.08-2.22-.6-4.63-.62-6.93-1.15l.83.1S28.17,70.73,26.84,68.16Z" fill="url(#linear-gradient-11)"/><path d="M43.09,79.57a21,21,0,0,1,3.11-.4A2.26,2.26,0,0,1,48,78.05c1.08-.15,2,.3,2,1s-.78,1.39-1.86,1.54A2,2,0,0,1,46.27,80c-1,.47-2.58,1-3.28,1.49-1.12.72-1.9,1.62-.88,2.5a2.42,2.42,0,0,1,.51.63h0a1.57,1.57,0,0,1,2,1.22,1.86,1.86,0,0,1-1.75,1.74,1.57,1.57,0,0,1-2-1.22,1.24,1.24,0,0,1,.08-.54c-.2-.11-.4-.24-.6-.37a7.48,7.48,0,0,1,2.38-4.76C42.76,80.51,43,80,43.09,79.57Z" fill="url(#linear-gradient-12)"/><path d="M43,79c-1-.45-1.87,0-2.79.35.29-.27.7-.63,1.14-1a27,27,0,0,0,2.47-2.19,1.1,1.1,0,0,1,1.2.89c0,.59-.56,1.16-1.35,1.27h-.07a3.08,3.08,0,0,1-.47,1A.69.69,0,0,0,43,79Z" fill="url(#linear-gradient-13)"/><path d="M40.91,74.67a36.74,36.74,0,0,0-12.17-8c-1.37-.64-1.73.23-1.9,1.46a1.82,1.82,0,0,1-.23-.79,3.12,3.12,0,0,1,2.77-3.07c4.51,3.25,11.12,5.46,14.88,9.26a1.74,1.74,0,0,1,.09,1.88c-.18.27-.37.52-.55.76l-.67.65A3.49,3.49,0,0,0,40.91,74.67Z" fill="url(#linear-gradient-14)"/><path d="M33.75,81.63c1.57-.59,6-1.87,6-1.87l.45-.43C41.11,79,42,78.53,43,79a.69.69,0,0,1,.12.42l-.13.19.12,0c-.06.45-.34.94-.32,1.13a7.48,7.48,0,0,0-2.38,4.76c-1.17-.78-2.38-1.85-3.21-1.74-1.16.16-4.17,1.84-8.45-.4S17.54,79,17.42,77.19a12.8,12.8,0,0,1,4.78.32C23.11,77.94,32.25,82.2,33.75,81.63Z" fill="url(#linear-gradient-15)"/><path d="M23.36,72.87c3.62,0,8.74.54,10.72.76,2.3.53,4.71.55,6.93,1.15l-.11-.11a3.49,3.49,0,0,1,2.22,2.17,16.23,16.23,0,0,1-1.8,1.55,9.06,9.06,0,0,1-5,.7c-3.7-.28-14.17-1.61-14.17-1.61l.08,0a12.8,12.8,0,0,0-4.78-.32.83.83,0,0,1,0-.08C17.51,75.32,18.79,72.85,23.36,72.87Z" fill="url(#linear-gradient-16)"/><path d="M67.34,47a4.91,4.91,0,0,1-5.21,3.29c-2.36-.22-3.86-2-3.34-4.09A4.91,4.91,0,0,1,64,42.88C66.36,43.1,67.85,44.93,67.34,47Z" fill="url(#linear-gradient-17)"/><path d="M67.15,47.08a4.46,4.46,0,0,1-4.74,3c-2.15-.2-3.51-1.86-3-3.71a4.47,4.47,0,0,1,4.74-3C66.26,43.56,67.62,45.23,67.15,47.08Z" fill="url(#radial-gradient)"/><path d="M67.06,47.15a4.16,4.16,0,0,1-4.42,2.79c-2-.19-3.27-1.74-2.83-3.46a4.16,4.16,0,0,1,4.42-2.79C66.23,43.87,67.5,45.42,67.06,47.15Z" fill="url(#radial-gradient-2)"/><path d="M34.8,65.7a34.12,34.12,0,0,0,3.11-1.61c.64-.37,1.3-.69,1.9-1.1.3-.21.63-.32,1-.49s.68-.43,1-.61c1-.48,1.9-.92,2.89-1.34.61-.26,1.24-.5,1.84-.78s1.1-.67,1.67-1a10,10,0,0,1,2.23-.89c.56-.16,1.12-.16,1.69-.37.39-.15.73-.43,1.12-.59a20.08,20.08,0,0,1,2.27-.63,3.24,3.24,0,0,1,1.74,0c.38.1.57.24.51.59a1,1,0,0,1-.52.67c-.3.2-.43.2-.56,0,0-.32.07-.76-.21-.68a5.77,5.77,0,0,0-2.25.47h-.06a1.64,1.64,0,0,0-.44.32c-.11.13-.09.25-.11.4s-.05.6-.11.89-.25.95-.58.92-.29-.84-.31-1c0-.41,0-.72-.59-.55s-1.08.3-1.13,1,.12,1.28.1,1.93a6.3,6.3,0,0,1-.2,1.57c-.09.29-.33,1-.81,1.08s-.18-.6-.15-.78A11.68,11.68,0,0,0,50,61.77a3.92,3.92,0,0,0-.22-1.31,1.3,1.3,0,0,0-.95-1.08,1.7,1.7,0,0,0-2,1.12,4.2,4.2,0,0,0,.59,3.21A3.64,3.64,0,0,1,48,66.18a.86.86,0,0,1-.74.59c-.36,0-.37-.12-.47-.4-.3-.76-.43-1.59-.71-2.36A7.05,7.05,0,0,0,45,62c-.36-.44-.86-.87-1.51-.4-1.14.81-.67,2.11-.33,3,.14.38,1.67,3.08,1,3.33-.35.13-.85-.34-1-.52-.36-.37-.72-.75-1.05-1.14-.6-.71-1-1.51-1.65-2.19-.26-.29-.72-.49-1,0a1.54,1.54,0,0,0-.09,1.06c.12.62.32,1.23.49,1.84.07.25.26.84,0,1.1s-.5,0-.69-.17a12.6,12.6,0,0,1-1-.94,8.32,8.32,0,0,0-.56-.71c-.75-.64-1.9.06-2.76.34-.31.1-.79.21-1-.1S34.52,65.82,34.8,65.7Z" fill="url(#linear-gradient-18)"/><path d="M29.38,64.3a4.28,4.28,0,0,1,2.85.42s10.08,5.21,12,8.84C40.5,69.76,33.88,67.55,29.38,64.3Z" fill="url(#linear-gradient-19)"/><path d="M60.81,76.57c.51-.55-.59-1.24-1-2.11l.48.12a22.18,22.18,0,0,1,1-2.16.84.84,0,0,1-.3-.87,1.42,1.42,0,0,1,1.52-.91c.69.06,1.14.58,1,1.15a1.36,1.36,0,0,1-1.21.91,21.63,21.63,0,0,1-1.13,2.87s4.53-2.15,6.25-1.95l.36.07a1.92,1.92,0,0,1,1.27-.34c.83.08,1.37.67,1.2,1.33a1.67,1.67,0,0,1-1.8,1,1.25,1.25,0,0,1-1.21-.94c-2-.46-5.46,2.07-5.46,2.07a6.81,6.81,0,0,1,6.27,2.35l0,0a1.43,1.43,0,0,1,.48,0,.94.94,0,0,1,.92,1.14,1.37,1.37,0,0,1-1.45.92.94.94,0,0,1-.92-1.14,1,1,0,0,1,.17-.35,5.75,5.75,0,0,0-1.5-1.5c-1.65-1.35-5-.09-5-.09a10.68,10.68,0,0,1,1,3.52,2.48,2.48,0,0,1-.14.76,1,1,0,0,1,.64,1.15,1.64,1.64,0,0,1-1.76,1c-.81-.08-1.34-.65-1.18-1.29a1.59,1.59,0,0,1,1.56-1v0c.54-2.14-1.73-4.55-1.73-4.55l-1-.45A5,5,0,0,0,60.81,76.57Z" fill="url(#linear-gradient-20)"/><path d="M50,66.73l.28-.41c2.44-3.25,6-5.77,7.54-9.3.25-.08.5-.15.76-.21a35.9,35.9,0,0,1-1.84,6.8c-1.47,1.55-2.76,2.83-2.76,2.83l.24.45A6.17,6.17,0,0,0,50,66.73Z" fill="url(#linear-gradient-21)"/><path d="M54.17,66.89c.82,1.5,3.44,6.27,3.7,6.69a4.65,4.65,0,0,0,2,.87c.37.87,1.46,1.56,1,2.11a5,5,0,0,1-2.66.75c-1.08-.47-2.9-1.3-4.95-2.35s-3.66-3.73-4.52-5.5A10.29,10.29,0,0,1,50,66.73,6.17,6.17,0,0,1,54.17,66.89Z" fill="url(#linear-gradient-22)"/><path d="M57.77,57c-1.51,3.53-5.1,6.05-7.54,9.3a10.52,10.52,0,0,0-1.54,3.14c-.3-.62-.51-1.14-.63-1.43C50.22,63.8,52.37,58.67,57.77,57Z" fill="url(#linear-gradient-23)"/><path d="M64.88,48.1,63,44.6A5,5,0,0,1,64.88,48.1Z" fill="#231f20"/><ellipse cx="62.03" cy="45.84" rx="0.41" ry="0.34" transform="translate(-9.97 18.19) rotate(-15.46)" fill="#fff"/><path d="M57.79,44.8l-.37.1c-.24.07-.59.17-1,.32s-1,.34-1.58.58a18.49,18.49,0,0,0-2,.93,9.62,9.62,0,0,0-2.1,1.49l-.24.24-.22.23-.23.2c-.09.06-.16.13-.26.19a7.7,7.7,0,0,1-1.21.67,30.23,30.23,0,0,1-2.84,1c-1,.33-2,.66-3,1.05a21.82,21.82,0,0,0-2.91,1.38,14,14,0,0,0-1.32.85l-1.2.87L35,56.6l-2,1.5-.89.67-.79.62-1.28,1-.82.65-.29.23.31-.21.88-.59,1.36-.92.83-.57.93-.63,2.08-1.42,2.31-1.6,1.22-.85c.4-.27.82-.54,1.26-.79a21.17,21.17,0,0,1,2.81-1.3c1-.39,2-.72,3-1.05a27.06,27.06,0,0,0,2.91-1.12,7.66,7.66,0,0,0,1.31-.77c.1-.07.19-.15.29-.23l.27-.26.23-.25.21-.23A9.67,9.67,0,0,1,53,47c.66-.4,1.3-.74,1.88-1s1.09-.5,1.52-.68l1-.4Z" fill="#fff"/></svg>