<svg id="Layer_1" data-name="Layer 1" xmlns="http://www.w3.org/2000/svg" xmlns:xlink="http://www.w3.org/1999/xlink" viewBox="0 0 159.43 111.95"><defs><linearGradient id="linear-gradient" x1="-49.5" y1="277.03" x2="-47.6" y2="286.32" gradientTransform="matrix(-0.96, 0.26, 0.26, 0.96, -32.75, -237.14)" gradientUnits="userSpaceOnUse"><stop offset="0" stop-color="#85c340"/><stop offset="0.02" stop-color="#8ac540"/><stop offset="0.17" stop-color="#a4ce43"/><stop offset="0.3" stop-color="#b4d344"/><stop offset="0.4" stop-color="#bad545"/><stop offset="1" stop-color="#436e1e"/></linearGradient><linearGradient id="linear-gradient-2" x1="-51.17" y1="307.01" x2="-42.84" y2="309.08" gradientTransform="matrix(-0.96, 0.26, 0.26, 0.96, -32.75, -237.14)" gradientUnits="userSpaceOnUse"><stop offset="0" stop-color="#436e1e"/><stop offset="0.6" stop-color="#bad545"/><stop offset="0.7" stop-color="#b4d344"/><stop offset="0.83" stop-color="#a4ce43"/><stop offset="0.98" stop-color="#8ac540"/><stop offset="1" stop-color="#85c340"/></linearGradient><linearGradient id="linear-gradient-3" x1="-50.07" y1="309.46" x2="-52.96" y2="322.39" gradientTransform="matrix(-0.96, 0.26, 0.26, 0.96, -32.75, -237.14)" gradientUnits="userSpaceOnUse"><stop offset="0" stop-color="#bad545"/><stop offset="0.23" stop-color="#d5b238"/><stop offset="0.47" stop-color="#ec932d"/><stop offset="0.61" stop-color="#f58829"/><stop offset="1" stop-color="#975410"/></linearGradient><linearGradient id="linear-gradient-4" x1="2.8" y1="291.32" x2="9.16" y2="291.32" gradientTransform="matrix(-0.96, 0.26, 0.26, 0.96, -32.75, -237.14)" gradientUnits="userSpaceOnUse"><stop offset="0" stop-color="#254a9d"/><stop offset="1" stop-color="#00bff2"/></linearGradient><linearGradient id="linear-gradient-5" x1="11.06" y1="294.29" x2="17.91" y2="294.29" xlink:href="#linear-gradient-4"/><linearGradient id="linear-gradient-6" x1="4.55" y1="292.68" x2="20.87" y2="291" xlink:href="#linear-gradient-2"/><linearGradient id="linear-gradient-7" x1="-52.92" y1="299.86" x2="-51.17" y2="293.7" xlink:href="#linear-gradient-2"/><linearGradient id="linear-gradient-8" x1="-52.41" y1="297.49" x2="-47.44" y2="279.95" xlink:href="#linear-gradient-2"/><linearGradient id="linear-gradient-9" x1="-21.78" y1="314.97" x2="-13.46" y2="285.6" xlink:href="#linear-gradient-2"/><linearGradient id="linear-gradient-10" x1="-12.8" y1="316.72" x2="-11.24" y2="302.45" xlink:href="#linear-gradient-4"/><linearGradient id="linear-gradient-11" x1="-9054.25" y1="314.25" x2="-9034.48" y2="314.25" gradientTransform="translate(8686 -2613.4) rotate(-15.25)" xlink:href="#linear-gradient-4"/><linearGradient id="linear-gradient-12" x1="3.63" y1="334.54" x2="-7.12" y2="339.03" xlink:href="#linear-gradient-3"/><linearGradient id="linear-gradient-13" x1="2.73" y1="334.36" x2="-6.2" y2="328.18" xlink:href="#linear-gradient-3"/><linearGradient id="linear-gradient-14" x1="-0.74" y1="311.69" x2="8.67" y2="317.45" xlink:href="#linear-gradient-2"/><linearGradient id="linear-gradient-15" x1="16.47" y1="324.84" x2="22.12" y2="334.2" xlink:href="#linear-gradient-2"/><linearGradient id="linear-gradient-16" x1="13.41" y1="316.32" x2="16.77" y2="324.99" xlink:href="#linear-gradient-2"/><linearGradient id="linear-gradient-17" x1="-8994.35" y1="288.29" x2="-8979.66" y2="288.29" gradientTransform="translate(8686 -2613.4) rotate(-15.25)" xlink:href="#linear-gradient"/><radialGradient id="radial-gradient" cx="-8964.06" cy="290.54" r="6.25" gradientTransform="matrix(1.17, -0.32, 0.26, 0.96, 10503.22, -3152.9)" gradientUnits="userSpaceOnUse"><stop offset="0" stop-color="#3165af"/><stop offset="0.64" stop-color="#2b60ac"/><stop offset="1" stop-color="#255ba9"/></radialGradient><radialGradient id="radial-gradient-2" cx="-8963.92" cy="290.87" r="5.83" gradientTransform="matrix(1.17, -0.32, 0.26, 0.96, 10503.22, -3152.9)" gradientUnits="userSpaceOnUse"><stop offset="0" stop-color="#ee4323"/><stop offset="0.13" stop-color="#e84122"/><stop offset="0.3" stop-color="#d83a1e"/><stop offset="0.49" stop-color="#bc2f18"/><stop offset="0.7" stop-color="#96200f"/><stop offset="0.92" stop-color="#660c05"/><stop offset="1" stop-color="#520400"/></radialGradient><linearGradient id="linear-gradient-18" x1="-15.02" y1="301.73" x2="-17.43" y2="312.7" gradientTransform="matrix(-0.96, 0.26, 0.26, 0.96, -32.75, -237.14)" gradientUnits="userSpaceOnUse"><stop offset="0" stop-color="#fff229"/><stop offset="0.2" stop-color="#eae931"/><stop offset="0.51" stop-color="#d0de3c"/><stop offset="0.79" stop-color="#c0d743"/><stop offset="1" stop-color="#bad545"/></linearGradient><linearGradient id="linear-gradient-19" x1="-9048.51" y1="312.57" x2="-9028.77" y2="312.57" gradientTransform="translate(8686 -2613.4) rotate(-15.25)" xlink:href="#linear-gradient-4"/><linearGradient id="linear-gradient-20" x1="-28.13" y1="333.39" x2="-41.76" y2="342.64" xlink:href="#linear-gradient-3"/><linearGradient id="linear-gradient-21" x1="-36.59" y1="310.96" x2="-19.73" y2="306.18" xlink:href="#linear-gradient-2"/><linearGradient id="linear-gradient-22" x1="-29.64" y1="323.71" x2="-19.96" y2="327.83" xlink:href="#linear-gradient-2"/><linearGradient id="linear-gradient-23" x1="-29.27" y1="313.03" x2="-21.42" y2="305.35" xlink:href="#linear-gradient-4"/></defs><title>6</title><path d="M159.43,104.18V98.07a5.25,5.25,0,0,1,0-10.51V83.33a5.25,5.25,0,0,1,0-10.51V68.6a5.25,5.25,0,0,1,0-10.51V53.86a5.25,5.25,0,0,1,0-10.51V39.13a5.25,5.25,0,0,1,0-10.51V24.39a5.25,5.25,0,0,1,0-10.51V7.77A7.77,7.77,0,0,1,151.66,0H7.77A7.77,7.77,0,0,1,0,7.77v6.11a5.25,5.25,0,0,1,5.25,5.25A5.25,5.25,0,0,1,0,24.39v4.23a5.25,5.25,0,0,1,5.25,5.25A5.25,5.25,0,0,1,0,39.13v4.23a5.25,5.25,0,0,1,5.25,5.25A5.25,5.25,0,0,1,0,53.86v4.23a5.25,5.25,0,0,1,5.25,5.25A5.25,5.25,0,0,1,0,68.6v4.23a5.25,5.25,0,0,1,5.25,5.25A5.25,5.25,0,0,1,0,83.33v4.23a5.25,5.25,0,0,1,5.25,5.25A5.25,5.25,0,0,1,0,98.07v6.11A7.77,7.77,0,0,1,7.77,112H151.66A7.77,7.77,0,0,1,159.43,104.18Z" fill="#ed5d54"/><path d="M2.33,53.29A5.2,5.2,0,0,1,0,53.86v4.23a5.25,5.25,0,0,1,5.25,5.25A5.25,5.25,0,0,1,0,68.6v4.23a5.25,5.25,0,0,1,5.25,5.25A5.25,5.25,0,0,1,0,83.33v4.23a5.25,5.25,0,0,1,5.25,5.25A5.25,5.25,0,0,1,0,98.07v6.11A7.77,7.77,0,0,1,7.77,112H151.66a7.77,7.77,0,0,1,7.77-7.77V98.07a5.25,5.25,0,0,1,0-10.51V83.33a5.25,5.25,0,0,1,0-10.51V68.6a5.25,5.25,0,0,1,0-10.51V53.86a5.2,5.2,0,0,1-2.33-.57Z" fill="#d8423f"/><path d="M11.9,12.56V99.39H147.54V12.56ZM146.54,98.39H12.9V13.56H146.54Z" fill="#7c0704" opacity="0.35"/><rect x="12.9" y="13.56" width="133.64" height="84.83" fill="#eef3cc"/><polygon points="46.09 12.54 29.47 12.54 34.7 0 51.33 0 46.09 12.54" fill="#fff" opacity="0.2"/><polygon points="50.95 12.54 48.18 12.54 53.41 0 56.19 0 50.95 12.54" fill="#fff" opacity="0.2"/><polygon points="146.54 53.3 146.54 98.39 12.89 98.39 12.89 53.3 11.89 53.3 11.89 99.39 147.54 99.39 147.54 53.3 146.54 53.3" fill="#560606" opacity="0.2"/><path d="M95.28,23.12c-.85,3.37-4.72,5.81-8.63,5.44s-6.39-3.39-5.53-6.76,4.72-5.81,8.63-5.44S96.13,19.75,95.28,23.12Z" fill="url(#linear-gradient)"/><path d="M95,49.75c-1.43,0-2.39.93-3.43,1.88a4.28,4.28,0,0,0-1-1.26,11.15,11.15,0,0,1-1-1.41c-.46-.64-.91-1.27-1.34-1.93l-.08-.14,4.35-4.36.19.27c1.05,1.52,2.1,3,3.17,4.56a8.65,8.65,0,0,0,1.64,1.75,5,5,0,0,0,1.65.69l.56.16C98.18,50.9,96.53,50,95,49.75Z" fill="url(#linear-gradient-2)"/><path d="M84.87,56.56a2.77,2.77,0,0,1,3.6-1.47c1.33-.75,3-1.36,3.22-2.66a1.37,1.37,0,0,0-.08-.8c1-.95,2-1.92,3.43-1.88,1.49.29,3.14,1.15,4.76.22,2.32.6,5.1.36,7.45.94a15.33,15.33,0,0,1,4.33,1.75c.84.52,2.13,1.06,2.64,1.89a3.45,3.45,0,0,1,1.48-.19c1.43.13,2.36,1.13,2.08,2.23a2.86,2.86,0,0,1-3.09,1.76c-1.39-.13-2.31-1.09-2.09-2.16A17,17,0,0,1,110,54.49a15.18,15.18,0,0,0-4.76-2.29c-.59-.15-3.92-.71-3.52.82.11.44,1,.77,1.32,1.06a17.38,17.38,0,0,1,1.75,1.63,10.79,10.79,0,0,1,2.4,3.76,3.22,3.22,0,0,1,.74,0A2.08,2.08,0,0,1,110,62a3,3,0,0,1-3.22,2,2.08,2.08,0,0,1-2.08-2.5,2.22,2.22,0,0,1,.23-.54c-1.24-1-1.83-2.79-2.53-4a9.65,9.65,0,0,0-2.27-2.53,3.53,3.53,0,0,0-2.35-1.27c-.57,1.15-.12,2.77.09,3.91a10.83,10.83,0,0,1,.27,2.17c1.17.33,1.89,1.18,1.66,2.1-.28,1.09-1.77,1.85-3.35,1.7s-2.63-1.15-2.35-2.23a2.47,2.47,0,0,1,1.83-1.55c-.06-.26-.1-.53-.15-.82-.22-1.1-.32-3.91-1.66-4.37-.69-.24-1.4.28-1.92.66A25.5,25.5,0,0,1,90,56.12l-.4.24a1.51,1.51,0,0,1,0,.64,2.63,2.63,0,0,1-2.83,1.66C85.45,58.54,84.61,57.6,84.87,56.56Z" fill="url(#linear-gradient-3)"/><path d="M41,44.19s-2.7,2-5.4,4.35a40.76,40.76,0,0,0,1.48-5.14A13.86,13.86,0,0,1,41,44.19Z" fill="url(#linear-gradient-4)"/><path d="M28.61,56.09s0-7,4.1-11a25.75,25.75,0,0,0,0,6.14c-.53.53-1,1.05-1.39,1.53Z" fill="url(#linear-gradient-5)"/><path d="M34,44.11a5.3,5.3,0,0,1,3.15-.72,40.76,40.76,0,0,1-1.48,5.14c-1,.9-2.07,1.83-3,2.72a25.75,25.75,0,0,1,0-6.14A9.24,9.24,0,0,1,34,44.11Z" fill="url(#linear-gradient-6)"/><path d="M99.61,36.57a18.27,18.27,0,0,0-2.1,1.63l-.19,0c-5.26.42-9.93,3-15.38,2.7a15.2,15.2,0,0,1-1.72,0c10.47-2.93,20.89-6.6,29.42-12.82C107.71,31.23,99.95,36.53,99.61,36.57Z" fill="url(#linear-gradient-7)"/><path d="M78.24,40.12c-1.95-5.19.83-11.07,3.2-16.6a71,71,0,0,1,8.2-1.14,52,52,0,0,1,10.77-1.29c6.26-.13,10.15,3.31,9.63,6.1a2.86,2.86,0,0,1-.41.93C101.1,34.36,90.68,38,80.21,41,79.28,40.91,78.4,40.71,78.24,40.12Z" fill="url(#linear-gradient-8)"/><path d="M29.39,58.35a3.2,3.2,0,0,1-.78-2.26h0l2.67-3.3c2.67-3.3,14.13-12,14.13-12s6.64-4.51,11.94-5.52A22,22,0,0,0,70.74,28c2.08-2.22,6.61-3.6,10.71-4.43-2.37,5.52-5.15,11.41-3.2,16.6.26,1,2.45.88,3.69.8,5.45.31,10.12-2.28,15.38-2.7l.19,0c-1.34,1.12-3.15,2.69-4.92,4.33L88.23,46.9a14.53,14.53,0,0,0-1.42,1.82,62.32,62.32,0,0,1-6.28,7.41,59.42,59.42,0,0,0,3-11.26,18.32,18.32,0,0,0-2.94.95c.36-.69-.15-1,0-1.79C64.53,48.48,51,55.8,36.87,64.24c-.53-.17-1.07-.35-1.63-.55A10.08,10.08,0,0,1,29.39,58.35Z" fill="url(#linear-gradient-9)"/><path d="M80.64,45.81C72.91,49,69.59,56.9,66.25,63.44L66.07,63c-1,2-12.4,2.89-13.57,3-7.76.06-11.55-.43-15.63-1.71C51,55.8,64.22,48.57,80.32,44.11,80.17,44.86,81,45.12,80.64,45.81Z" fill="url(#linear-gradient-10)"/><path d="M31.12,63.66c.27-2,.87-3.48,3.14-2.42,8,3.51,14.94,7.64,20.33,13.37-3.68-1-7.66-1-11.47-1.91l1.37.16S33.33,67.91,31.12,63.66Z" fill="url(#linear-gradient-11)"/><path d="M58,82.54a34.78,34.78,0,0,1,5.15-.67A3.74,3.74,0,0,1,66.12,80c1.78-.25,3.29.49,3.37,1.65S68.19,84,66.41,84.24a3.24,3.24,0,0,1-3.13-1c-1.62.79-4.27,1.73-5.42,2.47-1.86,1.19-3.14,2.68-1.46,4.14a4,4,0,0,1,.84,1h.06c1.69-.24,3.14.67,3.23,2s-1.2,2.64-2.89,2.88-3.14-.67-3.24-2a2.06,2.06,0,0,1,.14-.9c-.33-.18-.66-.39-1-.62,0-2.73,1.75-5.61,3.94-7.88C57.47,84.09,57.92,83.29,58,82.54Z" fill="url(#linear-gradient-12)"/><path d="M57.84,81.57c-1.61-.75-3.1.08-4.62.59.49-.45,1.16-1,1.88-1.58a44.71,44.71,0,0,0,4.09-3.63,1.83,1.83,0,0,1,2,1.48c.07,1-.93,1.93-2.23,2.11h-.12A5.09,5.09,0,0,1,58,82.27,1.14,1.14,0,0,0,57.84,81.57Z" fill="url(#linear-gradient-13)"/><path d="M54.41,74.43C49,68.79,42.17,64.71,34.26,61.24c-2.27-1.06-2.87.38-3.14,2.42a3,3,0,0,1-.38-1.31c-.08-2.77,2-4.6,4.59-5.09,7.46,5.38,18.4,9,24.63,15.32a2.89,2.89,0,0,1,.15,3.11c-.3.45-.6.86-.91,1.25L58.09,78A5.77,5.77,0,0,0,54.41,74.43Z" fill="url(#linear-gradient-14)"/><path d="M42.55,86c2.6-1,9.93-3.09,9.93-3.09s.29-.29.74-.7c1.52-.51,3-1.34,4.62-.59a1.14,1.14,0,0,1,.2.69c-.13.19-.22.31-.22.31l.2,0c-.1.75-.56,1.55-.53,1.86-2.19,2.27-3.93,5.14-3.94,7.88-1.93-1.29-3.95-3.07-5.31-2.88-1.92.27-6.9,3.05-14-.67S15.72,81.53,15.53,78.6a21.18,21.18,0,0,1,7.91.53C25,79.84,40.08,86.89,42.55,86Z" fill="url(#linear-gradient-15)"/><path d="M25.37,71.44c6,0,14.47.89,17.75,1.26,3.81.88,7.79.92,11.47,1.91l-.18-.18A5.77,5.77,0,0,1,58.09,78a26.87,26.87,0,0,1-3,2.56c-2.29,1.2-4.9,1.41-8.34,1.16-6.13-.46-23.46-2.66-23.46-2.66l.12.06a21.18,21.18,0,0,0-7.91-.53,1.37,1.37,0,0,1,0-.14C15.68,75.5,17.8,71.42,25.37,71.44Z" fill="url(#linear-gradient-16)"/><path d="M98.16,28.57c-.86,3.37-4.72,5.81-8.63,5.44S83.14,30.63,84,27.26s4.72-5.81,8.63-5.44S99,25.2,98.16,28.57Z" fill="url(#linear-gradient-17)"/><path d="M97.85,28.76C97.07,31.82,93.56,34,90,33.7s-5.81-3.08-5-6.14,4.29-5.28,7.84-4.95S98.63,25.69,97.85,28.76Z" fill="url(#radial-gradient)"/><path d="M97.69,28.87c-.72,2.86-4,4.92-7.31,4.61S85,30.61,85.69,27.75s4-4.92,7.31-4.61S98.42,26,97.69,28.87Z" fill="url(#radial-gradient-2)"/><path d="M44.3,59.58a56.47,56.47,0,0,0,5.14-2.66c1.06-.61,2.16-1.15,3.15-1.83.5-.34,1-.53,1.58-.82s1.13-.71,1.73-1c1.59-.79,3.14-1.52,4.78-2.21,1-.43,2.06-.83,3-1.29s1.82-1.1,2.76-1.64a16.61,16.61,0,0,1,3.7-1.47c.93-.26,1.85-.26,2.8-.61.65-.24,1.21-.72,1.85-1a33.24,33.24,0,0,1,3.76-1,5.37,5.37,0,0,1,2.89,0c.62.17.95.4.84,1a1.63,1.63,0,0,1-.86,1.1c-.5.33-.71.32-.93.07,0-.53.12-1.25-.35-1.12a9.55,9.55,0,0,0-3.72.77h-.09a2.72,2.72,0,0,0-.73.54c-.18.21-.15.41-.19.66-.08.49-.09,1-.19,1.48-.06.31-.41,1.57-1,1.53s-.48-1.39-.51-1.71c-.07-.67,0-1.19-1-.91-1.19.33-1.79.5-1.87,1.64s.2,2.12.16,3.2a10.42,10.42,0,0,1-.32,2.61c-.14.49-.55,1.66-1.33,1.79s-.3-1-.25-1.29a19.33,19.33,0,0,0,.3-2.21,6.49,6.49,0,0,0-.37-2.16,2.16,2.16,0,0,0-1.57-1.79A2.82,2.82,0,0,0,64.27,51c-.68,1.75.22,3.8,1,5.31.55,1.11,1.3,2.79.88,4.08a1.42,1.42,0,0,1-1.23,1c-.59.06-.6-.21-.78-.66-.49-1.26-.71-2.63-1.18-3.91a11.67,11.67,0,0,0-1.8-3.36c-.59-.72-1.43-1.43-2.51-.67-1.88,1.34-1.12,3.5-.55,5,.23.63,2.76,5.1,1.66,5.51-.58.21-1.41-.56-1.7-.86-.59-.62-1.19-1.24-1.74-1.88-1-1.17-1.71-2.49-2.74-3.63-.43-.48-1.2-.8-1.67,0a2.55,2.55,0,0,0-.15,1.76c.2,1,.53,2,.81,3,.11.42.44,1.39,0,1.83s-.82,0-1.14-.27a20.86,20.86,0,0,1-1.72-1.56,13.76,13.76,0,0,0-.92-1.18c-1.23-1.06-3.15.1-4.57.56-.51.16-1.31.35-1.59-.17S43.83,59.79,44.3,59.58Z" fill="url(#linear-gradient-18)"/><path d="M35.32,57.26A7.08,7.08,0,0,1,40,58S56.72,66.58,60,72.59C53.72,66.3,42.78,62.65,35.32,57.26Z" fill="url(#linear-gradient-19)"/><path d="M87.35,77.57c.85-.91-1-2.05-1.58-3.5l.79.2a36.71,36.71,0,0,1,1.63-3.58,1.39,1.39,0,0,1-.49-1.44,2.35,2.35,0,0,1,2.51-1.51c1.15.11,1.89,1,1.65,1.9a2.25,2.25,0,0,1-2,1.51A35.8,35.8,0,0,1,88,75.9s7.5-3.56,10.34-3.22a4.36,4.36,0,0,1,.6.11,3.18,3.18,0,0,1,2.11-.55c1.37.13,2.26,1.11,2,2.2a2.77,2.77,0,0,1-3,1.73,2.07,2.07,0,0,1-2-1.56C94.75,73.85,89,78,89,78c6.24-.67,8.83,2.4,10.38,3.89l.06.07a2.36,2.36,0,0,1,.8-.06,1.55,1.55,0,0,1,1.53,1.89,2.26,2.26,0,0,1-2.4,1.52,1.56,1.56,0,0,1-1.53-1.89,1.72,1.72,0,0,1,.28-.57,9.51,9.51,0,0,0-2.48-2.48c-2.73-2.23-8.3-.14-8.3-.14S89,83.81,89,86.1a4.1,4.1,0,0,1-.22,1.25,1.65,1.65,0,0,1,1.06,1.9,2.71,2.71,0,0,1-2.92,1.68c-1.34-.12-2.22-1.08-1.95-2.13a2.63,2.63,0,0,1,2.58-1.69v0c.9-3.55-2.86-7.53-2.86-7.53S84,79.28,83,78.8C84.64,78.6,86.36,78.47,87.35,77.57Z" fill="url(#linear-gradient-20)"/><path d="M69.39,61.29c.15-.23.3-.46.46-.68,4-5.38,10-9.56,12.47-15.4.41-.13.82-.24,1.25-.34a59.42,59.42,0,0,1-3,11.26C78.11,58.69,76,60.81,76,60.81l.4.74A10.21,10.21,0,0,0,69.39,61.29Z" fill="url(#linear-gradient-21)"/><path d="M76.37,61.55c1.36,2.48,5.69,10.37,6.13,11.08s2.21,1.15,3.29,1.44c.61,1.44,2.42,2.59,1.58,3.5s-2.72,1-4.4,1.23c-1.79-.79-4.81-2.15-8.19-3.89s-6.06-6.17-7.48-9.1a17,17,0,0,1,2.09-4.52A10.21,10.21,0,0,1,76.37,61.55Z" fill="url(#linear-gradient-22)"/><path d="M82.32,45.21c-2.5,5.84-8.44,10-12.47,15.4a17.42,17.42,0,0,0-2.55,5.2c-.5-1-.85-1.88-1-2.37C69.83,56.44,73.38,47.94,82.32,45.21Z" fill="url(#linear-gradient-23)"/><path d="M94.08,30.45,91,24.65A8.26,8.26,0,0,1,94.08,30.45Z" fill="#231f20"/><ellipse cx="89.36" cy="26.7" rx="0.69" ry="0.56" transform="translate(-3.88 24.79) rotate(-15.46)" fill="#fff"/><path d="M82.35,25l-.61.17c-.4.11-1,.28-1.72.53s-1.62.56-2.62,1a30.6,30.6,0,0,0-3.28,1.54,15.93,15.93,0,0,0-3.48,2.47l-.4.4-.37.38-.38.33c-.14.11-.27.22-.43.32a12.75,12.75,0,0,1-2,1.11,50,50,0,0,1-4.71,1.71c-1.65.54-3.33,1.09-5,1.74a36.11,36.11,0,0,0-4.81,2.28,23.22,23.22,0,0,0-2.18,1.4l-2,1.44c-1.31.94-2.55,1.87-3.74,2.74s-2.3,1.71-3.33,2.48l-1.47,1.11-1.31,1-2.12,1.67-1.35,1.08-.48.38.52-.34,1.46-1,2.25-1.53,1.38-.94,1.54-1c1.07-.72,2.23-1.51,3.45-2.35s2.51-1.72,3.83-2.64L51,41c.67-.45,1.36-.9,2.09-1.31a35,35,0,0,1,4.64-2.16c1.61-.64,3.27-1.19,4.92-1.75A44.78,44.78,0,0,0,67.49,34a12.68,12.68,0,0,0,2.16-1.27c.17-.12.32-.26.48-.38s.31-.28.45-.42l.37-.41.35-.37a16,16,0,0,1,3.17-2.44c1.1-.66,2.15-1.22,3.11-1.67s1.81-.83,2.52-1.12,1.27-.52,1.66-.66Z" fill="#fff"/><text transform="translate(119.56 26.9) scale(0.99 1)" font-size="15" fill="#d8423f" font-family="ABeeZee-Regular, ABeeZee Regular">20c</text></svg>