<svg id="Layer_1" data-name="Layer 1" xmlns="http://www.w3.org/2000/svg" viewBox="0 0 159.43 140.19"><title>9</title><path d="M159.43,132.42v-4.54a4.56,4.56,0,0,1,0-9.12v-4.18a4.56,4.56,0,0,1,0-9.12v-4.18a4.56,4.56,0,0,1,0-9.12V88a4.56,4.56,0,0,1,0-9.12V74.66a4.56,4.56,0,0,1,0-9.12V61.35a4.56,4.56,0,0,1,0-9.12V48a4.56,4.56,0,0,1,0-9.12V34.74a4.56,4.56,0,0,1,0-9.12V21.44a4.56,4.56,0,0,1,0-9.12V7.77A7.77,7.77,0,0,1,151.66,0H7.77A7.77,7.77,0,0,1,0,7.77v4.54a4.56,4.56,0,0,1,4.56,4.56A4.56,4.56,0,0,1,0,21.44v4.18a4.56,4.56,0,0,1,4.56,4.56A4.56,4.56,0,0,1,0,34.74v4.18a4.56,4.56,0,0,1,4.56,4.56A4.56,4.56,0,0,1,0,48v4.18a4.56,4.56,0,0,1,4.56,4.56A4.56,4.56,0,0,1,0,61.35v4.18A4.56,4.56,0,0,1,4.56,70.1,4.56,4.56,0,0,1,0,74.66v4.18A4.56,4.56,0,0,1,4.56,83.4,4.56,4.56,0,0,1,0,88v4.18a4.56,4.56,0,0,1,4.56,4.56A4.56,4.56,0,0,1,0,101.27v4.18A4.56,4.56,0,0,1,4.56,110,4.56,4.56,0,0,1,0,114.58v4.18a4.56,4.56,0,0,1,4.56,4.56A4.56,4.56,0,0,1,0,127.88v4.54a7.77,7.77,0,0,1,7.77,7.77H151.66A7.77,7.77,0,0,1,159.43,132.42Z" fill="#ed5d54"/><path d="M154.87,70.1s0,0,0,0H4.56s0,0,0,0A4.56,4.56,0,0,1,0,74.66v4.18A4.56,4.56,0,0,1,4.56,83.4,4.56,4.56,0,0,1,0,88v4.18a4.56,4.56,0,0,1,4.56,4.56A4.56,4.56,0,0,1,0,101.27v4.18A4.56,4.56,0,0,1,4.56,110,4.56,4.56,0,0,1,0,114.57v4.18a4.56,4.56,0,0,1,4.56,4.56A4.56,4.56,0,0,1,0,127.88v4.54a7.77,7.77,0,0,1,7.77,7.77H151.66a7.77,7.77,0,0,1,7.77-7.77v-4.54a4.56,4.56,0,0,1,0-9.12v-4.18a4.56,4.56,0,1,1,0-9.12v-4.18a4.56,4.56,0,0,1,0-9.12V88a4.56,4.56,0,0,1,0-9.12V74.66A4.56,4.56,0,0,1,154.87,70.1Z" fill="#d8423f"/><path d="M11,10V130.19H148.48V10ZM147.48,129.19H12V11H147.48Z" fill="#7c0704" opacity="0.35"/><rect x="11.95" y="11" width="135.53" height="118.18" fill="#eef3cc"/><polygon points="147.48 70.05 147.48 129.19 11.95 129.19 11.95 70.05 10.95 70.05 10.95 130.19 148.48 130.19 148.48 70.05 147.48 70.05" fill="#7c0704" opacity="0.2"/><polygon points="45.48 9.94 33.23 9.94 38.23 0 50.48 0 45.48 9.94" fill="#fff" opacity="0.2"/><polygon points="51.78 9.94 48.98 9.94 53.98 0 56.78 0 51.78 9.94" fill="#fff" opacity="0.2"/><text transform="translate(120.1 24.44) scale(0.99 1)" font-size="15" fill="#d8423f" font-family="ABeeZee-Regular, ABeeZee Regular">50c</text><g id="_Group_" data-name="&lt;Group&gt;"><path d="M81.26,66.64c1,.72,2.3.58,3.36,1.21a42.11,42.11,0,0,1,4.84,3.34c2.74,8.89-1.7,14.48,5,21.08a10.48,10.48,0,0,0-1.8,1.39c-1.33,1.57.58,4-.68,5.45-.71.84-2.5-2.55-4.49-.2-.87,1-1,2.66-1.7,3.86-2.48-1.27-5.56-3.82-8.23-1.08a.93.93,0,0,1-1.43.12c-.74-.63-1.38-2.17-2-2.71-.82-.69-3.63,1.78-4.43,1.11s.32-3.82-1.4-5.47c-.19-.18-.11-.51,0-.7A7.93,7.93,0,0,0,69,88.92c2.26-10.19,10.17-13.79,12.12-22.1C73.24,70.14,71,78.53,61.34,82.46A7.93,7.93,0,0,0,56.41,84c-.18.12-.49.25-.69.1-1.92-1.41-4.73.29-5.63-.47s1.17-3.87.35-4.56c-.64-.54-2.27-.91-3-1.54a.93.93,0,0,1-.12-1.43c2.25-3.09-.77-5.71-2.44-7.93,1.06-.89,2.65-1.29,3.52-2.32,2-2.35-1.66-3.55-.95-4.39,1.26-1.49,3.93,0,5.26-1.58a10.48,10.48,0,0,0,1.07-2c7.63,5.53,12.4.21,21.62,1.43a42.11,42.11,0,0,1,4.1,4.22C80.3,64.48,80.39,65.83,81.26,66.64Z" fill="#00a7ee"/><path d="M98.8,98.71c-1.22,1.45-3.14-.7-4.14.48-.74.87.8,3.14-.73,5-1.88,2.23-4.1-1.78-5.47-.16-.68.8-1,2.7-2.1,4-1.61,1.91-2.4-1.48-6,1.7-.43.38-1.6-.26-2,.16-4.57,5.41-3.9,11.24-5.58,13.23-.65.77-1.33,1.25-2.46.3-2.06-1.74.28-4.35,2.27-6.7l.93-1.1c1.06-1.26,1.15-4.46-.35-5.73s-3.36.7-4,.15c-.45-.38,0-1.38-.77-2.06-1.37-1.16-3,.74-4.5-.55s2.87-4.44,1.45-5.64c-.29-.24-.74-.48-1.09-.78-2-1.69,3.7-4.64,4.29-9.61.1-.85.24-1.66.41-2.44A7.93,7.93,0,0,1,68.29,94c-.09.19-.16.52,0,.7,1.72,1.66.5,4.71,1.4,5.47s3.62-1.8,4.43-1.11c.64.54,1.27,2.08,2,2.71a.93.93,0,0,0,1.43-.12c2.67-2.73,5.76-.19,8.23,1.08.7-1.2.83-2.83,1.7-3.86,2-2.35,3.77,1,4.49.2,1.26-1.49-.65-3.88.68-5.45a10.48,10.48,0,0,1,1.8-1.39c-6.72-6.6-2.28-12.19-5-21.08l.81.66C104.09,83.54,99.78,97.55,98.8,98.71Z" fill="#010101"/><path d="M46.71,54.7c-1.22,1.45,1.21,3,.21,4.16-.74.87-3.23-.27-4.76,1.55-1.88,2.23,2.44,3.75,1.07,5.37-.68.8-2.49,1.44-3.58,2.73C38,70.42,41.51,70.62,39,74.72c-.3.49.52,1.53.16,2C34.57,82.08,28.71,82.39,27,84.38c-.65.77-1,1.52.12,2.47,2.06,1.74,4.24-1,6.23-3.36l.93-1.1c1.06-1.26,4.2-1.88,5.7-.61s-.13,3.43.52,4c.45.38,1.35-.26,2.15.42,1.37,1.16-.23,3.05,1.3,4.35s3.9-3.57,5.31-2.37c.29.24.6.65.95.95,2,1.69,4-4.42,8.75-5.83.83-.24,1.6-.52,2.33-.81A7.93,7.93,0,0,0,56.41,84c-.18.12-.49.25-.69.1-1.92-1.41-4.73.29-5.63-.47s1.17-3.87.35-4.56c-.64-.54-2.27-.91-3-1.54a.93.93,0,0,1-.12-1.43c2.25-3.09-.77-5.71-2.44-7.93,1.06-.89,2.65-1.29,3.52-2.32,2-2.35-1.66-3.55-.95-4.39,1.26-1.49,3.93,0,5.26-1.58a10.48,10.48,0,0,0,1.07-2c7.63,5.53,12.4.21,21.62,1.43l-.79-.68C60.78,46.94,47.69,53.54,46.71,54.7Z" fill="#010101"/></g><path d="M78.51,72.68c-3.19,5.86.72,3.31-7.55,18-.71,1.25-2.42,4.1-3.78,4.58l-.1-.12a3.19,3.19,0,0,1,.68-.85c3.05-3.48,7.52-12.35,8.1-14.05s.86-4.71,2.51-7.67Z" fill="#1e0e00"/><path d="M75.85,70.48c-4.64,3.73-5.89,1.18-17.74,12a12.23,12.23,0,0,0-1.91,2.11,3.19,3.19,0,0,1-.72.81l-.14-.08c.4-2.28,7-7,9.33-8.68,4.82-3.38,3.24-2.21,7.68-4.23a15.8,15.8,0,0,0,3.4-2Z" fill="#1e0e00"/><path d="M79.28,71.59c0,2.3.67,2.74.51,4.21-.41,4-.91,11.19,3,10.37.29-.06.24-.11.44-.32l.81-.9c2-2.19-1-4.67.11-8.23l.15.06c-1.06,3.53,2,6-.12,8.29-1.11,1.24-1,1.36-2,1.32-4.55-.29-2.44-10.22-3-12.28a4.91,4.91,0,0,1-.14-2.53Z" fill="#1e0e00"/><path d="M76.75,69.57a4.91,4.91,0,0,1-2.51.29c-1.9-.16-2,.43-5.92,1.07-3,.49-6.87.49-6.75-2.59,0-.38.09-.33.29-.59A6,6,0,0,1,63.49,66c2.13-1,4.42.69,7.26-.71l.08.13c-3.82,1.91-6.48-1.67-9,2.66a1.65,1.65,0,0,0,0,.84c.82,3.36,7.35,1.6,10.67.68,1.39-.4,2,.14,4.23-.2Z" fill="#1e0e00"/><path d="M85,83c5.47,5.54,7.51,11.43,7.77,13.24l-.15,0C91.45,94.34,90.63,89.51,85,83Z" fill="#1e0e00"/><path d="M64.46,65.68c-7.33-4.47-12.16-4.45-14.37-5.3l0-.15C52.19,60.17,58.5,61.5,64.46,65.68Z" fill="#1e0e00"/><path d="M83.53,85.69c3.25,10.39,1.4,5,4.29,15.43a1.3,1.3,0,0,1,.07.73l-.15,0a1.28,1.28,0,0,1-.3-.66C84.94,91.46,86.93,98.3,83.53,85.69Z" fill="#1e0e00"/><path d="M62.1,67.58c-13.2-1.26-6.17-.44-16-1.25a1.28,1.28,0,0,1-.7-.19l0-.16a1.3,1.3,0,0,1,.73-.06C57.19,67.06,51.13,66.08,62.1,67.58Z" fill="#1e0e00"/><path d="M81.59,86.29c-.82,3.95-.65,9.64-1.95,16.35l-.55-.14C80.61,95.85,80.63,90.22,81.59,86.29Z" fill="#1e0e00"/><path d="M61.83,69.6c-3.84,1.65-9.11,2.5-15.56,5.17L46,74.24C52.68,71.75,57.91,71.12,61.83,69.6Z" fill="#1e0e00"/><path d="M80.33,85c-1.35,3.61-1.75,2-3.72,7.94-1.28,3.88-.63,2-2.93,8.33l-.45-.19c2.49-6.28,1.66-4.11,3.71-9.77C77.93,88.33,79.16,87.85,80.33,85Z" fill="#1e0e00"/><path d="M63.35,70.62c-2.21,1.37-2.45,2.16-4.29,3.56,0,0-5.59,3.23-10.38,6.13l-.26-.41C61.69,72.35,57,75.74,62,71.5A9.06,9.06,0,0,1,63.35,70.62Z" fill="#1e0e00"/><path d="M79.42,80.78c-4.22,6.09-7.1,15.08-11.8,17.88l-.11-.11a8.91,8.91,0,0,1,1.18-1.61C75.25,89.26,74,87.69,79.42,80.78Z" fill="#1e0e00"/><path d="M67.63,70.81c-5.7,6.29-7.82,5.71-14.14,13.28a8.91,8.91,0,0,1-1.39,1.43L52,85.43C53.87,80.52,62.57,75.75,67.63,70.81Z" fill="#1e0e00"/><g id="_Group_2" data-name="&lt;Group&gt;"><path d="M95.87,69.83c-.4-.56-.67-.9-.61-.75S95.52,69.39,95.87,69.83ZM76.52,53.23c.16,0-.22-.17-.84-.47C76.17,53,76.43,53.21,76.52,53.23Zm7.15,10.56q1-.55,2.1-1.08c5.51,2.32,12.56,2.8,17.07-2,2.38-2.53,6-.9,9.22-.38a4.05,4.05,0,0,0-.57.54c-.83,1-.27,1.73.63,2.48,4,3.36-4.71-1.55,1.46,5.72a52.5,52.5,0,0,1-5.4-.93c.33,1.55,2.15,2.18,2.2,3.85A11.34,11.34,0,0,1,106,69.75c-.46-.38-.39-.28-.43-.27a35.06,35.06,0,0,1,2.35,3.71c.4.82,1,2.17,1.1,2.34,1.33,1.93-3.34-1-7.4-4.52a9.1,9.1,0,0,1-1.35-1.41h0s9.07,12.56,5.29,9.36c-3-2.53-2.53-1.64-6.62-4.85-.08-.06-1-1.4-1.9-2.68a16.26,16.26,0,0,0-1.1-1.56L97,71.4c.2.32.41.67.63,1.07.09.16,6.43,11.39,4,9.37-1.68-1.42-4-2-5.64-3.39a5.66,5.66,0,0,1-1.14-1.28c2,3.38,3.62,7.14,5.82,10.39l-.33-.27C96.19,83.76,93,79.51,90,77c-1.59-1.34-3.31-2.57-4.89-3.9a16.27,16.27,0,0,1-4.58-5.58,16.27,16.27,0,0,1-6.26-3.58c-1.58-1.33-3.07-2.82-4.66-4.17-3-2.55-7.74-5-11.92-8.48L57.38,51C61,52.6,64.94,53.54,68.6,55a5.66,5.66,0,0,1-1.45-.91c-1.66-1.4-2.61-3.58-4.29-5-2.39-2,9.75,2.36,9.92,2.42.43.15.81.3,1.16.44l1.73.83a16.26,16.26,0,0,0-1.73-.83c-1.41-.67-2.89-1.35-3-1.42-3.85-3.49-2.89-3.18-5.89-5.71C61.3,41.6,75.2,48.45,75.2,48.45h0a9.1,9.1,0,0,1-1.62-1.1c-4.11-3.43-7.82-7.53-5.69-6.54.18.08,1.62.43,2.49.7a35.06,35.06,0,0,1,4,1.7s.12,0-.34-.38a11.34,11.34,0,0,1-2.95-4c1.65-.24,2.59,1.46,4.17,1.52a52.5,52.5,0,0,1-1.81-5.17c8.19,4.87,1.9-2.88,5.88.49.89.76,1.72,1.19,2.55.2a4.05,4.05,0,0,0,.43-.65c1,3.06,3.26,6.39,1.16,9.16-4,5.25-2.33,12.12.88,17.16Q84,62.72,83.67,63.79Z" fill="#0088c6"/><path d="M101.58,71c4.06,3.48,8.73,6.45,7.4,4.52-.11-.16-.7-1.52-1.1-2.34a32.59,32.59,0,0,0-2.35-3.71s0-.13.43.27A11.34,11.34,0,0,0,110.37,72c0-1.67-1.87-2.31-2.2-3.85a52.5,52.5,0,0,0,5.4.93c-6.17-7.27,2.52-2.35-1.46-5.72-.89-.76-1.46-1.5-.63-2.48a4.05,4.05,0,0,1,.57-.54c-3.19-.52-6.85-2.15-9.22.38-4.51,4.8-11.56,4.32-17.07,2,11.69-5.63,32-9,42.83.16,3.3,2.79,5.71,8.38,3.68,10.78-1.3,1.54-7.21,2.19-11.5,7.26-.82,1-1.72,2.38-1.77,2.44-1.28,1.51-3.66,1.58-5.46,2.75-3.77,2.46-6.12,6.94-12.84,1.46-2.2-3.25-3.8-7-5.82-10.39A5.66,5.66,0,0,0,96,78.45c1.66,1.4,4,2,5.64,3.39,2.39,2-4-9.22-4-9.37-.22-.4-2.23-3.27-2.42-3.59a36.09,36.09,0,0,0,4,4.74c2.86,3,3.31,2.78,6.3,5.31,3.79,3.2-5.29-9.36-5.29-9.36h0A9.1,9.1,0,0,0,101.58,71Z" fill="#010101"/><path d="M73.56,47.33c-4.11-3.43-7.82-7.53-5.69-6.54.18.08,1.62.43,2.49.7a32.59,32.59,0,0,1,4,1.7s.14,0-.34-.38a11.34,11.34,0,0,1-2.95-4c1.65-.24,2.59,1.46,4.17,1.52a52.5,52.5,0,0,1-1.81-5.17c8.19,4.87,1.9-2.88,5.88.49.89.76,1.72,1.19,2.55.2a4.05,4.05,0,0,0,.43-.65c1,3.06,3.26,6.39,1.16,9.16-4,5.25-2.33,12.12.88,17.16,3.6-12.47,3.57-33-7.3-42.2-3.3-2.79-9.21-4.23-11.24-1.83-1.3,1.54-1,7.48-5.24,12.55-.82,1-2.06,2.09-2.11,2.15-1.28,1.51-.94,3.87-1.8,5.84-1.79,4.12-5.82,7.19.7,12.9C61,52.6,64.94,53.54,68.6,55a5.66,5.66,0,0,1-1.45-.91c-1.66-1.4-2.61-3.58-4.29-5-2.39-2,9.75,2.36,9.92,2.42.43.15,3.6,1.65,3.94,1.79a36.09,36.09,0,0,1-5.34-3.16c-3.47-2.32-3.3-2.79-6.29-5.33C61.3,41.6,75.2,48.45,75.2,48.45h0A9.1,9.1,0,0,1,73.56,47.33Z" fill="#010101"/></g><path d="M102.29,60.14c2.7-1.67,5.26,1.94,6.21,1.49,1.92-1.78,2.46-2.43,4.3-2.16l0,.15a2.67,2.67,0,0,0-1.73.25c-3.74,2.45-1.31,3-5.25.74-2.29-1.34-3.42-.34-3.42-.34Z" fill="#1e0e00"/><path d="M84,44.76A2.43,2.43,0,0,0,84,43c-.39-1.23-1.68-2.3-2.4-3.19-.91-1.18.08-.85,1.31-3.68.15-1.16.19-.84,0-1.74l.14-.06c.58,1.77,0,2.4-1.41,4.6-.28,1,3.69,3,2.51,5.87Z" fill="#1e0e00"/><path d="M108.64,61.69c.22.17.4.16.63.54.86,1.75-.56,5.48-1.05,6.06-3.24,3.52-15.46.11-22.91-.77-4.17-.51-4.44.24-5-2.64-2-8.27-7.55-18.93-5.66-23.57.34-1,.87-1.49,2.86-2.41,1.42-.64,3.2-1.26,4.1-.1l-.12.1c-.75-1.14-2.68-.43-3.91.15-4.59,2.19-3.79,4.1,1.12,19.51.44,1.38.87,2.77,1.22,4.17.66,2.58.54,3.25,1.15,4.16h0a5,5,0,0,0,2.12.32c8.73.25,21.06,4.06,24.51,1.27,1-.65,2.44-5,1.31-6.37-.07-.12-.28-.2-.42-.3Z" fill="#1e0e00"/><path d="M95.84,78.57c-.26-.31-2.89-3.36-3.17-3.65-5.38-5.86-7.49-4.49-12.23-7.31a17.16,17.16,0,0,1-2.69-4.08c-2.67-4.46-3.48-4.91-10.69-9.27l0,0c12.64,6.3,9.13,7.74,13.56,13.18l0,0c5.93,3.36,7-.15,15.26,11.17Z" fill="#1e0e00"/><path d="M82.32,68.24c.37.15.51.49.81.74,2.14,2,3.31,2.56,2.89,4.8.28-3.14-3.49-4-3.81-5.44Z" fill="#1e0e00"/><path d="M79.42,66c-1.47-.07-3-3.65-6-2.85,1.86-.69,2.85.12,4.35,1.36a16,16,0,0,0,1.52,1.12,1.08,1.08,0,0,1,.21.23Z" fill="#1e0e00"/><path d="M80.43,69.41c.85,5.14-.2,3.94,7.06,10.12,5,4.25,7.05,6.75,8.79,9.6l-.14.08c-1.59-2.64-3.58-5.21-8.78-9.54-7.4-6.22-6.81-5.3-7.1-10.25Z" fill="#1e0e00"/><path d="M78.68,68.07c-4.8.53-3.9,1-11.29-5.29-5.24-4.5-8.11-6-10.87-7.06l.05-.15c9.32,3.72,14.74,12,18.88,12.39,1.65,0,2.22,0,3.21,0Z" fill="#1e0e00"/><path d="M84.16,63c-1,1.86-1.2,4.7-2.46,6.78,0,.05-4.48,4.42-4.48,4.42-.24.29-7.59,7.86-8.51,7.09s5.36-9,5.6-9.31c0,0,3.53-5.37,3.57-5.41C79.72,65,82.49,64.27,84.16,63Z" fill="#31100d"/><path d="M88.75,57.58c.51.53.13,2.34-.3,2.85-.28.33-.54.32-1.34-.36L87,60l-.19-.16-.19-.17-.08-.07c-.8-.68-.86-.93-.58-1.26C86.41,57.85,88.14,57.16,88.75,57.58Z" fill="#031825"/><path d="M88.93,58.63l-.14.14c-.38.45-.34.94-.22,1s.3.2.55-.1a.74.74,0,0,0-.09-1Z" fill="#cdcac5"/><path d="M87.68,57.58l-.12.16c-.38.45-.87.49-1,.39s-.24-.27,0-.56a.74.74,0,0,1,1-.08Z" fill="#cdcac5"/><path d="M87,59.6l.29.22a1.66,1.66,0,0,1,.41.51A3.68,3.68,0,0,1,87,64.52a12.4,12.4,0,0,1-4.34,2.9c-.75.26-2.81-1.35-2.59-2.23a12,12,0,0,1,2.13-4.76,3.69,3.69,0,0,1,4-1.4,1.66,1.66,0,0,1,.57.32Z" fill="#1a1119"/><path d="M88.36,58.26c1.85-3.33,13.3.47,17.4-2.32,1.07-.74,1.08-1.31.85-1.3l0,0,0,0a.13.13,0,0,1,.12.09c.05.15-.1.34-.26.55-3.26,4-14.42-.25-18,3.09Z" fill="#1a1119"/><path d="M88.25,57.72c1.82-3-2.14-14.91-1.11-17.68.08-.23.21-.45.37-.42s0,.19,0,.17.09-.1-.05-.17c-1.3-.23.37,7.67.6,8.91.93,5,1.32,7.84.44,9.36Z" fill="#1a1119"/></svg>