<svg id="Layer_1" data-name="Layer 1" xmlns="http://www.w3.org/2000/svg" viewBox="0 0 159.43 111.95"><title>3</title><path d="M159.43,104.18V99.64a4.41,4.41,0,0,1,0-8.81V88.43a4.41,4.41,0,0,1,0-8.81v-2.4a4.41,4.41,0,1,1,0-8.81V66a4.41,4.41,0,0,1,0-8.81v-2.4a4.41,4.41,0,0,1,0-8.81v-2.4a4.41,4.41,0,0,1,0-8.81v-2.4a4.41,4.41,0,0,1,0-8.81v-2.4a4.41,4.41,0,0,1,0-8.81V7.77A7.77,7.77,0,0,1,151.66,0H7.77A7.77,7.77,0,0,1,0,7.77v4.54a4.41,4.41,0,0,1,4.41,4.41A4.41,4.41,0,0,1,0,21.12v2.4a4.41,4.41,0,0,1,0,8.81v2.4a4.41,4.41,0,0,1,0,8.81V46a4.41,4.41,0,0,1,4.41,4.41A4.41,4.41,0,0,1,0,54.77v2.4A4.41,4.41,0,0,1,0,66V68.4A4.41,4.41,0,0,1,4.41,72.8,4.41,4.41,0,0,1,0,77.21v2.4A4.41,4.41,0,0,1,4.41,84,4.41,4.41,0,0,1,0,88.43v2.41a4.41,4.41,0,0,1,4.41,4.41A4.41,4.41,0,0,1,0,99.64v4.54A7.77,7.77,0,0,1,7.77,112H151.66A7.77,7.77,0,0,1,159.43,104.18Z" fill="#ed5d54"/><polygon points="147.45 55.48 147.45 100.98 11.98 100.98 11.98 55.48 10.98 55.48 10.98 101.98 148.45 101.98 148.45 55.48 147.45 55.48" fill="#7c0704" opacity="0.35"/><path d="M0,57.18A4.41,4.41,0,0,1,0,66V68.4A4.41,4.41,0,0,1,4.41,72.8,4.41,4.41,0,0,1,0,77.21v2.4A4.41,4.41,0,0,1,4.41,84,4.41,4.41,0,0,1,0,88.43v2.41a4.41,4.41,0,0,1,4.41,4.41A4.41,4.41,0,0,1,0,99.64v4.54A7.77,7.77,0,0,1,7.77,112H151.66a7.77,7.77,0,0,1,7.77-7.77V99.64a4.41,4.41,0,0,1,0-8.81V88.43a4.41,4.41,0,0,1,0-8.81v-2.4a4.41,4.41,0,1,1,0-8.81V66a4.41,4.41,0,0,1,0-8.81v-1.7H0Z" fill="#d8423f"/><path d="M11,10v92H148.45V10Zm136.46,91H12V11H147.45Z" fill="#7c0704" opacity="0.2"/><rect x="11.98" y="10.98" width="135.46" height="90" fill="#eef3cc"/><polygon points="49.23 9.98 36.64 9.98 41.64 0 54.23 0 49.23 9.98" fill="#fff" opacity="0.2"/><polygon points="56.27 9.98 52.81 9.98 57.81 0 61.27 0 56.27 9.98" fill="#fff" opacity="0.2"/><text transform="translate(129 24.37) scale(0.99 1)" font-size="15" fill="#d8423f" font-family="ABeeZee-Regular, ABeeZee Regular">5c</text><path d="M35.82,88.24A8.21,8.21,0,0,1,33,89.58a27.39,27.39,0,0,1,3.41-2.77,2.27,2.27,0,0,1-1.83,0l3.53-1.65a6.48,6.48,0,0,1,2.25-.74c.38,0,.91-.15.84-.56a.74.74,0,0,0-.15-.3l-2-2.74a8.89,8.89,0,0,1-1.8-2.66,1.67,1.67,0,0,1-.06-.79c.08-.34.68-.51,1-.54,1.85,2.72,5.07,4.18,6.73,7a1.73,1.73,0,0,1,.26,1.62,1.56,1.56,0,0,1-1.14.61l-1.2.24-.44.09a4.71,4.71,0,0,0-2.62,1.13,3.67,3.67,0,0,0-.75,1.34,17.27,17.27,0,0,1-.85,2.48,5.27,5.27,0,0,1,.15-2.88c-1.71,1.3-2.43,3.6-3.75,5.33,0-1.92,1.9-3.26,2-5.17a23.34,23.34,0,0,1-4.26,3.12,2.32,2.32,0,0,1,.79-1.09Z" fill="#080307"/><path d="M41.65,83a3.54,3.54,0,0,0,1.62,2.29,1.2,1.2,0,0,0,.73.21.54.54,0,0,0,.49-.51,1,1,0,0,0-.43-.66A7.82,7.82,0,0,1,42.62,83c-.2-.26-.35-.56-.55-.81a1.16,1.16,0,0,0-.78-.5c-.1.23,0,.34.14.53A2.91,2.91,0,0,1,41.65,83Z" fill="#fff" opacity="0.25"/><path d="M67.79,70a4.2,4.2,0,0,1,.27-1.1h0a1.68,1.68,0,0,1,.34-.52,2.72,2.72,0,0,1,.83-.52l1.67-.77a.84.84,0,0,1,.64-.11c.39.14.43.7.4,1.13v.08l-.16,2.31L71.67,72h0v0a2.93,2.93,0,0,1,1.7-1.29,20.2,20.2,0,0,1,2.12-.46,19.69,19.69,0,0,0,5-2.1,5.15,5.15,0,0,0,1.77-1.31,1.47,1.47,0,0,1,0,.47h0a1.94,1.94,0,0,1-.53,1.17,4.64,4.64,0,0,1-1.44.92l-3.55,1.71,0,0a5.68,5.68,0,0,0,2.63,1.12,16.21,16.21,0,0,0,3.7.62,20.61,20.61,0,0,1,6,1.17,1.36,1.36,0,0,0,1,.09,1.3,1.3,0,0,1-.47.36,2,2,0,0,1-1,.16A12.13,12.13,0,0,1,87,74.28a11.68,11.68,0,0,0-2.7-.22q-1.78,0-3.56.06a2.18,2.18,0,0,1,.88.27c.38.18.77.41,1,.53l2,.85c.39.17,1.36.36,1.46.88a.56.56,0,0,1,0,.32c-.14.37-.74.35-1.07.26a15.32,15.32,0,0,1-2.67-1l0,0-.08.08a.93.93,0,0,1-.79,0l-2.19-.74a.53.53,0,0,0-.33,0,1,1,0,0,0-.22.15c-.33.23-.78,0-1.13-.21L75.8,74.4,75.11,74a6.35,6.35,0,0,0-2.54,2h0l-.13.14a5.16,5.16,0,0,1-2.19,1.57,2.39,2.39,0,0,1-.73.1,1.37,1.37,0,0,1-.66-.16,1.53,1.53,0,0,1-.4-.36,5.74,5.74,0,0,1-.88-3.85A29.85,29.85,0,0,1,67.79,70Z" fill="#2a304a"/><path d="M71.48,75.72c0-.08.05-.18,0-.24a.26.26,0,0,0-.16,0,.5.5,0,0,1-.4-.35,1.4,1.4,0,0,1-.05-.56,19.72,19.72,0,0,1,.32-2.43,4.78,4.78,0,0,1,.19-.8,9.06,9.06,0,0,1,.44-.89A4.73,4.73,0,0,0,72.24,69a1.17,1.17,0,0,0,0-.5.46.46,0,0,0-.33-.34c-.22,0-.38.16-.51.34l-.45.63a.74.74,0,0,0-.19.69c0,.07.07.12.1.19a.8.8,0,0,1-.08.62,9.76,9.76,0,0,0-.54,1.68l.38-.48a.71.71,0,0,1-.09.59,6,6,0,0,0-.26,3.11,1.36,1.36,0,0,0,.11.45C70.68,76.62,71.28,76.16,71.48,75.72Z" fill="#fff" opacity="0.25"/><path d="M67.79,70a4.2,4.2,0,0,1,.27-1.1h0l1.87-.27a3.75,3.75,0,0,1-.35,1.31,12.38,12.38,0,0,0-.68,6,2.31,2.31,0,0,0,.59,1.46,1.35,1.35,0,0,0,.74.32,2.39,2.39,0,0,1-.73.1,1.37,1.37,0,0,1-.66-.16,1.53,1.53,0,0,1-.4-.36,5.74,5.74,0,0,1-.88-3.85A29.85,29.85,0,0,1,67.79,70Z" fill="#080307"/><path d="M71.67,72v0a2.93,2.93,0,0,1,1.7-1.29,20.2,20.2,0,0,1,2.12-.46,19.69,19.69,0,0,0,5-2.1,5.15,5.15,0,0,0,1.77-1.31,1.47,1.47,0,0,1,0,.47h0A5.52,5.52,0,0,1,80,68.88l-1.28.58-1.43.65a7.35,7.35,0,0,1-2.25.74,2.82,2.82,0,0,0-.66.1,2,2,0,0,0-.47.27,7.34,7.34,0,0,0-1.3,1.06,2.72,2.72,0,0,0-.73,1.54c0,.28,0,.61-.2.8a.19.19,0,0,1-.21.06c-.08,0-.11-.15-.12-.25A5.14,5.14,0,0,1,71.67,72Z" fill="#080307"/><path d="M86.1,76.64a.56.56,0,0,1,0,.32,8.92,8.92,0,0,0-2.23-.89,18.71,18.71,0,0,1-4.2-1.94,10,10,0,0,1,1.92.26c.38.18.77.41,1,.53l2,.85C85,75.93,86,76.12,86.1,76.64Z" fill="#080307"/><path d="M79.68,75.22a6.34,6.34,0,0,1,2.66,1l0,0-.08.08a1,1,0,0,0-.22-.21,3.1,3.1,0,0,0-1-.33A6,6,0,0,1,79.68,75.22Z" fill="#080307"/><path d="M76.46,71.35a.88.88,0,0,1,.34-.2,5.68,5.68,0,0,0,2.63,1.12,16.21,16.21,0,0,0,3.7.62,20.61,20.61,0,0,1,6,1.17,1.36,1.36,0,0,0,1,.09,1.3,1.3,0,0,1-.47.36c-1.33-.3-2.65-.6-4-.88a11.73,11.73,0,0,0-1.58-.25c-.53,0-1.06,0-1.59,0a13.55,13.55,0,0,1-3.54-.63A4.82,4.82,0,0,1,76.46,71.35Z" fill="#080307"/><path d="M72.57,76a6.13,6.13,0,0,1,1.34-2.14,6.6,6.6,0,0,1,.82-.63,2.87,2.87,0,0,1,.69-.38,2.32,2.32,0,0,1,.75-.09,11.24,11.24,0,0,1,3.43.79c-.48.22-1.07,0-1.56.16a.29.29,0,0,0-.16.12.31.31,0,0,0,0,.28,1.16,1.16,0,0,0,.73.51l.81.28c-.64.14-1.31-.32-2-.25a1.32,1.32,0,0,0,.5.59c0,.05-.07.06-.12.05a4,4,0,0,1-1.08-.59,1.52,1.52,0,0,0-1-.29L75.11,74A6.35,6.35,0,0,0,72.57,76Z" fill="#fff" opacity="0.25"/><path d="M38.1,86.58a2.58,2.58,0,0,1,1.29-.71c.72-.08,1.41.42,2.13.5a8.18,8.18,0,0,0,1.08,0h.31l-.44.09a4.71,4.71,0,0,0-2.62,1.13,3.67,3.67,0,0,0-.75,1.34c-.06-.24-.12-.48-.18-.67s-.16-.4-.34-.42c.08-.05,0-.2,0-.24a.23.23,0,0,0-.25.08,2.58,2.58,0,0,0-.16.24.62.62,0,0,1-.51.26,1.77,1.77,0,0,1,.44-.75A.67.67,0,0,0,38.1,86.58Z" fill="#fff" opacity="0.25"/><path d="M19.42,83.87c1.19-1,2.18-1.72,2.18-1.72l0,0a35.9,35.9,0,0,1,6-4.84,16.84,16.84,0,0,0,6.1-3.54l.19-.18c.45-.42.68-.69.68-.69s-1.95-1.4,0-1.86a5.58,5.58,0,0,0,.69-.23c2.73-1.05,9.72-5,15.43-7.88,3-1.52,7.08-1.82,10.45-1.73.76,0,1.48.06,2.16.11,1.58.12,2.87.3,3.61.42l.68.12s.77-.3,2.11-.73c5-1.63,18-5.22,27.81-2.39a38.78,38.78,0,0,1,5.53,2c1.5.69,2.64,1.79,4.16,2.47a45.34,45.34,0,0,0,10.6,3.24,14.74,14.74,0,0,0,3.47.29c3.36-.21,6.09-1.73,9.07-3.06a61,61,0,0,1,10.39-3.22,13,13,0,0,1,3.13-.5,73.21,73.21,0,0,0-10.51,4.9c-3.16,1.74-6.15,4-9.73,4.75-5.35,1.11-11.09-.39-16.13-2.83a48.07,48.07,0,0,0-12.5-3.92c-7.34-1.39-14.78,1.54-18.84,3.88-1.31.75-2.55,1.42-3.75,2l-.28.14-.39.19-1.14.57-1.23.59L67.68,71,65.6,72l-.12.06a64.17,64.17,0,0,1-12.83,4.67,57.4,57.4,0,0,0-6.85,2c-1,.34-1.74.61-2.3.76a4.86,4.86,0,0,0-.79.32c-.28.14-.6.31-.94.51-.61.36-1.31.81-2,1.33a29.19,29.19,0,0,0-5.17,4.63C31.91,89.49,27,91.59,27,91.59a4.41,4.41,0,0,1-4.73,1,9.44,9.44,0,0,0-1.86-.36l-2.84-.35-.52-.07a2.17,2.17,0,0,1-1.61-1.73,3.64,3.64,0,0,1-.11-.56C15.17,87.87,17.55,85.48,19.42,83.87Z" fill="#161416"/><path d="M107.41,63.4a.39.39,0,0,0,.08.22,2.08,2.08,0,0,1,.16.22.44.44,0,0,1-.2.6,4.86,4.86,0,0,0,2.23,1,4.47,4.47,0,0,1,2.2,1.09s.07.09.05.14a.11.11,0,0,1-.05,0,2,2,0,0,1-1,.15,1.51,1.51,0,0,0-.82.18c-.22.14-.16.34-.19.59,4.45,1.82,9.3,2.77,13.86,1.83,3.58-.74,6.57-3,9.73-4.75A73.21,73.21,0,0,1,144,59.87a13,13,0,0,0-3.13.5,61,61,0,0,0-10.39,3.22c-3,1.33-5.71,2.84-9.07,3.06a14.74,14.74,0,0,1-3.47-.29q-1.57-.28-3.13-.67-1.95-.49-3.86-1.15-1-.33-1.9-.71l-.94-.39c-.14-.06-.63-.38-.68-.09Z" fill="#2c73e7"/><path d="M16.09,90.54a.36.36,0,0,1,.13-.41c.17-.1.38,0,.58,0a1,1,0,0,0,.75-.37,2.63,2.63,0,0,1,.64-.59,1.91,1.91,0,0,1,1.18,0,5.83,5.83,0,0,0,4.42-.62,1.54,1.54,0,0,1,.35-.22,2.2,2.2,0,0,1,.41-.08,1.49,1.49,0,0,0,1.06-.78.56.56,0,0,1,.16-.22c.17-.11.39,0,.59.07.37.05.63-.31.93-.53a2.77,2.77,0,0,1,2.21-.17l-2.63.91a1.14,1.14,0,0,0-.28.13c-.25.17-.34.52-.57.72s-.91.17-1.35.32a2.55,2.55,0,0,0-.48.25,6.26,6.26,0,0,1-3.81.85,3.31,3.31,0,0,0-1.78.07,7.8,7.8,0,0,0-.86.64.9.9,0,0,1-1,.09s-.29.26-.36.25S16.12,90.65,16.09,90.54Z" fill="#e3793d"/><path d="M17.58,91.92l.31-.11c.92-.27,1.95.05,2.87-.22a6.58,6.58,0,0,0,1.12-.53,7.15,7.15,0,0,1,2.32-.72,3.52,3.52,0,0,0,1.59-.4,2.4,2.4,0,0,1,.39-.26,1.32,1.32,0,0,1,.38-.08l1.13-.12a.12.12,0,0,1,.1,0,.12.12,0,0,1,0,.11.81.81,0,0,1-.7.53,5.71,5.71,0,0,0-.9.12c-.19.06-.36.18-.54.26a8,8,0,0,1-1.93.24,5.2,5.2,0,0,0-1.53.61l-1.08.57a4.09,4.09,0,0,1-.67.33h0Z" fill="#e3793d"/><path d="M29.27,88a1.77,1.77,0,0,1,.26-.38.16.16,0,0,1,.1-.05.14.14,0,0,1,.13.11.41.41,0,0,1,0,.18q0,.27-.1.53a.62.62,0,0,1-.07.19.52.52,0,0,1-.11.12,2.07,2.07,0,0,1-.55.34c-.4.17-.34,0-.14-.31A6.86,6.86,0,0,0,29.27,88Z" fill="#e3793d"/><path d="M30.59,87.2a.62.62,0,0,1-.44.19c-.14,0-.23-.17-.29-.31a2.65,2.65,0,0,1-.14-.36.48.48,0,0,1,0-.28.4.4,0,0,1,.34-.23c.26-.05.57-.29.71.15A1.54,1.54,0,0,1,30.59,87.2Z" fill="#e3793d"/><path d="M22.49,85.59a1.42,1.42,0,0,1,.46-.22c.13,0,.26,0,.38,0a1.41,1.41,0,0,0,.4-.21,22.87,22.87,0,0,1,3-1.28,14,14,0,0,0,2.58-1.65l1.2-.92a.33.33,0,0,1,.1.39.89.89,0,0,1-.26.32,7,7,0,0,0-.94,1,3,3,0,0,1-.33.4,2.4,2.4,0,0,1-.44.31,8.68,8.68,0,0,1-1.13.61c-.74.31-1.55.41-2.28.73a9.25,9.25,0,0,1-1,.46c-.23.07-.47.1-.7.17-1.28.39-2,1.86-3.3,2.26a4.41,4.41,0,0,1-.64.13c-.24,0-1,.06-.55-.32A13.27,13.27,0,0,1,20.19,87Z" fill="#e3793d"/><path d="M19.42,83.87l1.4-.87c.16-.1.31-.19.47-.28a2.56,2.56,0,0,1,1.86-.21,1.13,1.13,0,0,1,.84-.75c.33-.06.72,0,1-.21s.25-.42.47-.46.27,0,.39,0c.29-.07.33-.59.62-.61.12.14.3.23.35.41s-.16.47-.39.52a6.09,6.09,0,0,0-.7.09,4.9,4.9,0,0,0-.61.4,4.19,4.19,0,0,1-.47.18,7.52,7.52,0,0,0-.83.46c-1.09.59-2.46.51-3.5,1.2a2.93,2.93,0,0,0-1,1.2,13.13,13.13,0,0,1-.68,1.65c-.45.7-1.26,1-1.89,1.53a4,4,0,0,0-1.26,2,3.64,3.64,0,0,1-.11-.56C15.17,87.87,17.55,85.48,19.42,83.87Z" fill="#50311f"/><path d="M27.92,79.84s.56-.3,1.51-.87c.47-.29,1-.64,1.68-1.07s1.35-.94,2.1-1.52q.56-.44,1.14-.95l.29-.26.29-.27.57-.57c.38-.39.79-.79,1.22-1.18l.66-.58.69-.57.35-.28.36-.28.36-.28.37-.27.75-.55.77-.53.39-.26.4-.25.8-.51.82-.48.41-.24.42-.23.84-.45.21-.11.21-.11.42-.21.85-.42.86-.39.85-.38.85-.35.85-.34.84-.3.83-.3.83-.26c.55-.17,1.08-.34,1.6-.48l.78-.21.38-.1.19-.05h.1l.1,0c.51-.09,1-.17,1.47-.23.94-.13,1.82-.19,2.59-.22s1.45,0,2,0l.4,0,.35,0,.3,0,.25,0,.46.06-.46,0-.25,0h-.3l-.35,0h-.39c-.56,0-1.23,0-2,.06s-1.63.15-2.57.29c-.47.07-1,.16-1.45.26l-.09,0H55.7l-.19.05-.38.11-.77.22c-.52.14-1,.33-1.59.51l-.82.27-.82.31-.84.31-.84.34-.85.35-.84.38-.85.39-.84.42-.42.21-.21.11-.21.11-.83.45-.41.23-.41.24-.82.48-.8.5-.4.25-.39.26-.77.52-.75.53-.37.27L39,71.7,38.6,72l-.35.28-.69.56-.66.57c-.43.38-.84.76-1.23,1.14l-.59.57-.3.27-.29.26q-.59.5-1.17.93c-.76.58-1.49,1.06-2.15,1.47s-1.24.75-1.72,1-.87.47-1.13.6Z" fill="#e3793d"/><path d="M28.79,82.76C28.87,82.7,36.73,76,39.44,74s14.12-8.06,18.9-8.13c3.6,0,10.47-2.46,13.21-3.47l1.17-.44A53.56,53.56,0,0,1,85,59.12a42,42,0,0,1,10.8.12l.61.1A27.21,27.21,0,0,1,107.9,64l-.28.47c-7.21-5.2-16.24-5.46-22.56-4.77a53.14,53.14,0,0,0-12.13,2.8L71.59,63c-2.86,1.06-9.57,3.39-13.22,3.44-4.6.06-16,6.12-18.61,8s-10.55,8.68-10.62,8.75Z" fill="#e3793d"/><path d="M30.27,86.44a36,36,0,0,0,5.36-4.71c1.45-1.92,8-6.1,12.23-7.84l2-.82a70.35,70.35,0,0,1,13-4.28,60.59,60.59,0,0,0,10.41-3.34c.56-.25.85-.4.86-.4a40,40,0,0,1,7.12-2.73,35.55,35.55,0,0,1,14.65-1.2q.62.09,1.23.22c6,1.2,9.42,3.18,11.19,4.63a5.73,5.73,0,0,0,2.55,1.54,5.92,5.92,0,0,1,1.62.4,6.17,6.17,0,0,0-1-.19,14.19,14.19,0,0,1-1.87-.31,3,3,0,0,1-.9-.35c-.27-.19-.52-.47-.78-.68-1.72-1.39-5-3.3-10.9-4.47a34.22,34.22,0,0,0-15.64,1,39.67,39.67,0,0,0-7,2.7s-.33.17-1,.45A61.38,61.38,0,0,1,63,69.34a69.92,69.92,0,0,0-12.93,4.25l-2,.83c-4.55,1.86-10.73,6-12,7.68a35.67,35.67,0,0,1-5.46,4.81Z" fill="#e3793d"/><path d="M42.71,79.85a29.3,29.3,0,0,1,5.37-2.7,40.45,40.45,0,0,0,3.87-1.63,26.32,26.32,0,0,1,7.56-2.36,71.38,71.38,0,0,0,13-4.48C70.06,69.94,67.79,71,65.6,72a46.17,46.17,0,0,1-6,1.69A25.64,25.64,0,0,0,52.18,76a40.59,40.59,0,0,1-3.91,1.65,23.81,23.81,0,0,0-2.47,1.07c-1,.34-1.74.61-2.3.76A4.86,4.86,0,0,0,42.71,79.85Z" fill="#e3793d"/><path d="M21.65,82.11a35.9,35.9,0,0,1,6-4.84,16.84,16.84,0,0,0,6.1-3.54v0a.8.8,0,0,1-.31.66A10.54,10.54,0,0,1,31,76.5c-1.09.58-2.41.82-3.2,1.81a.6.6,0,0,1-.2.19c-.14.06-.31,0-.47,0a.92.92,0,0,0-.7.35,5.42,5.42,0,0,1-.55.61c-.33.26-.81.36-1,.76a.29.29,0,0,0,0,.29s.07.06.1.1,0,.26-.16.33c-.64.36-1.48.32-2,.82l-.1-.31A1.37,1.37,0,0,1,21.65,82.11Z" fill="#50311f"/><path d="M21.93,73.44l.22-.15a1.88,1.88,0,0,1-2.24-.92,1.69,1.69,0,0,1-.11-1.9,3.74,3.74,0,0,0,1.12,1.75,1.32,1.32,0,0,0,.73.37,1.39,1.39,0,0,0,.66-.17,13.35,13.35,0,0,0,2.8-1.73,6.74,6.74,0,0,0-1.47.4,2.6,2.6,0,0,1-1.51.11,1.34,1.34,0,0,1-1-1.16c0-.06.12,0,.15,0a.94.94,0,0,1,.06.19c.08.21.31.25.53.22l.24-.06a20.32,20.32,0,0,1,3.64-.85,4.07,4.07,0,0,0,.63-.12,1.48,1.48,0,0,0,.29-.12c.15-.08.28-.2.43-.29a4.21,4.21,0,0,1,.89-.3,7.11,7.11,0,0,0,1.59-.84c.22-.14.44-.27.67-.38a2.39,2.39,0,0,1,2.47,0,4.13,4.13,0,0,1,.94,1.18,12.85,12.85,0,0,0,2.81,3.12.9.9,0,0,1,.26.28.83.83,0,0,1-.08.7c-.32.71-.88,1.44-1.63,1.39s-1.18-.67-1.65-1.2a10.26,10.26,0,0,0-1.51-1.38,1.82,1.82,0,0,0-.76-.39,1.25,1.25,0,0,0-.63.08c-.2.07-.39.17-.58.25a14.64,14.64,0,0,1-2,.53,3.62,3.62,0,0,0-1.6,1.2,7.35,7.35,0,0,1-1.65,1.33A2.5,2.5,0,0,1,25.51,73l-3,1.84a1.75,1.75,0,0,1-.71.3.74.74,0,0,1-.23,0,.64.64,0,0,1-.4-.26l0-.07-1.06.39a.93.93,0,0,1-.63.08.43.43,0,0,1-.22-.18.32.32,0,0,1,0-.36A9.5,9.5,0,0,0,21.93,73.44Z" fill="#080307"/><path d="M19.91,72.37a1.69,1.69,0,0,1-.11-1.9,3.74,3.74,0,0,0,1.12,1.75,1.32,1.32,0,0,0,.73.37,1.39,1.39,0,0,0,.66-.17,13.35,13.35,0,0,0,2.8-1.73,6.74,6.74,0,0,0-1.47.4,2.6,2.6,0,0,1-1.51.11,1.34,1.34,0,0,1-1-1.16c0-.06.12,0,.15,0a.94.94,0,0,1,.06.19c.08.21.31.25.53.22a.55.55,0,0,0,.4.41,1.09,1.09,0,0,0,.52-.15,2.29,2.29,0,0,1,.64-.09,6.18,6.18,0,0,0,2.49-.69.82.82,0,0,0,.45-.44l0-.07a1.48,1.48,0,0,0,.29-.12c.15-.08.28-.2.43-.29a4.21,4.21,0,0,1,.89-.3,7.11,7.11,0,0,0,1.59-.84l.07,0c.41-.13.81-.44,1.22-.27s.49.49.76.71l.06,0c.21.14.46.17.66.31a.86.86,0,0,1,.21,1.12.45.45,0,0,1-.2.17c-.32.12-.63-.29-1-.31a.43.43,0,0,0-.19,0c-.29.12-.44.54-.53.89s-.12.44-.19.66-.39.17-.58.25a14.64,14.64,0,0,1-2,.53,3.62,3.62,0,0,0-1.6,1.2,7.35,7.35,0,0,1-1.65,1.33A2.5,2.5,0,0,1,25.51,73l-3,1.84a1.75,1.75,0,0,1-.71.3.74.74,0,0,1-.23,0,1,1,0,0,1,.33-.28A26.81,26.81,0,0,0,25,72.57c-1,.35-1.77,1.24-2.73,1.74-.31.16-.63.28-.92.46l-.16.11,0-.07-1.06.39a.93.93,0,0,1-.63.08.43.43,0,0,1-.22-.18,1.42,1.42,0,0,1,.41-.12,11.28,11.28,0,0,0,4.32-2.25,7,7,0,0,0,.94-.77,21.17,21.17,0,0,1-2.36,1.27,2.82,2.82,0,0,1-.59.21l.22-.15A1.88,1.88,0,0,1,19.91,72.37Z" fill="#fff" opacity="0.25"/><path d="M26.53,71.17a1.38,1.38,0,0,0,.3-.1.6.6,0,0,0,.3-.56.3.3,0,0,0-.08-.21.31.31,0,0,0-.17-.06,1.61,1.61,0,0,0-1,.18.61.61,0,0,0-.16.12,2.26,2.26,0,0,0-.22.49c-.08.15-.25.3-.24.49s.13.17.26.12A8,8,0,0,1,26.53,71.17Z" fill="#fff" opacity="0.25"/><path d="M28.48,70.26a3.55,3.55,0,0,1,2-1.75,4.85,4.85,0,0,1,.61-.14,3.42,3.42,0,0,1,.53-.06l.06,0c.21.14.46.17.66.31a.86.86,0,0,1,.21,1.12.45.45,0,0,1-.2.17c-.32.12-.63-.29-1-.31a.43.43,0,0,0-.19,0,.51.51,0,0,0-.42-.12,1.28,1.28,0,0,0-.47.19,2.09,2.09,0,0,0-.49.35c-.16.16-.26.38-.41.55a.63.63,0,0,1-.59.26.64.64,0,0,1-.36-.26.37.37,0,0,1-.08-.18A.38.38,0,0,1,28.48,70.26Z" fill="#fff" opacity="0.25"/><path d="M45.32,69.85a29.71,29.71,0,0,0-3.85,2.44,32.66,32.66,0,0,0-7.11,7.13c-1.37,2-3.93,2.5-6.1,3.44a28.48,28.48,0,0,0-4.82,2.88,1.61,1.61,0,0,0-.73.82c-.1.37.17.89.53.84a.77.77,0,0,1,.7-1,1.39,1.39,0,0,0,1.28.66c-.52-.11-.49-1-.07-1.31a4.53,4.53,0,0,1,1.48-.43A6.47,6.47,0,0,1,27.76,85a.84.84,0,0,1,.94.62,3,3,0,0,1-.22-1.33l1,.81a1.4,1.4,0,0,1-.32-1.38,2.85,2.85,0,0,1,1.19,1.15,2.47,2.47,0,0,1-.16-1.66,3.28,3.28,0,0,0,1,1,2.89,2.89,0,0,1-.32-1.29,3.78,3.78,0,0,0,1.11,1l-.36-1,1.19.56-.43-1a2.78,2.78,0,0,0,1.1.28l-.07-.45L36.51,80a43.34,43.34,0,0,1,4.25-3c1.17-.69,2.4-1.27,3.63-1.85l12.81-6A26.56,26.56,0,0,1,61,67.57c4.32-1.26,8.77-1.79,13.05-3.14,1.32-.42,2.63-.87,4-1.28,6.29-1.95,13-3,19.58-1.59a25.28,25.28,0,0,1,5.16,1.71,24.78,24.78,0,0,1,4.74,2.83,9.72,9.72,0,0,0,2.33,1.55,5.45,5.45,0,0,0,.75.2,27.55,27.55,0,0,1,3.8.66,13.88,13.88,0,0,0,7.64.3,40.16,40.16,0,0,0,7.21-2.56,3.61,3.61,0,0,0,1.64-1.1l-4.24,1.46a25.41,25.41,0,0,1-7.7,1.79,26.23,26.23,0,0,1-4.11-.35c-1.74-.24-3.78-.22-5.41-1.07-.27-.14-.43-.38-.68-.54s-.62-.36-.91-.58-.75-.56-1.13-.82q-1.14-.8-2.33-1.49a26.54,26.54,0,0,0-5-2.23,22.73,22.73,0,0,0-3.7-.89c-5.64-.85-11.32-.11-16.84.95a28.16,28.16,0,0,0-3.77.92c-1.11.38-2.18.88-3.3,1.21-2.5.74-5.2.6-7.76,1.12-2.39.48-4.82.79-7.24,1.1a31.69,31.69,0,0,0-3.65.6A31.61,31.61,0,0,0,45.32,69.85Z" fill="#fff" opacity="0.37"/><path d="M97.12,61.32q1,.2,2,.46A28.9,28.9,0,0,1,105.3,64l.65.35a24.25,24.25,0,0,1,3.37,2.35,5.3,5.3,0,0,0,1.69.67q.48.17,1,.37a9.45,9.45,0,0,0,.9.41,11.14,11.14,0,0,0-2-.27,3.5,3.5,0,0,1-1.6-.51c-.49-.33-.94-.77-1.4-1.15A16.74,16.74,0,0,0,103.94,64,32.75,32.75,0,0,0,97,61.88a34.22,34.22,0,0,0-15.64,1,39.67,39.67,0,0,0-7,2.7s-.33.17-1,.45a3.49,3.49,0,0,0-.17-.55c.56-.25.85-.4.86-.4a40,40,0,0,1,7.12-2.73,35.55,35.55,0,0,1,14.65-1.2Q96.5,61.2,97.12,61.32Z" fill="#2c73e7"/><path d="M71.55,62.39l1.17-.44A53.56,53.56,0,0,1,85,59.12a42,42,0,0,1,10.8.12l.61.1A27.21,27.21,0,0,1,107.9,64l-.28.47c-7.21-5.2-16.24-5.46-22.56-4.77a53.14,53.14,0,0,0-12.13,2.8L71.59,63A1.86,1.86,0,0,1,71.55,62.39Z" fill="#2c73e7"/><path d="M60.11,58.76a4.36,4.36,0,0,1,.9-1.92,10.18,10.18,0,0,1,1.27-1.4,13.55,13.55,0,0,1,2.21-1.64,3,3,0,0,0,1-.76A5.28,5.28,0,0,0,66,51.69a3.38,3.38,0,0,1,1.89-2,.54.54,0,0,0-.14.36,5,5,0,0,1,4.59-.37l-.72.15,4.65.55L71,50.86a1.63,1.63,0,0,0-1.38.63,7,7,0,0,1,3.11.24,50.63,50.63,0,0,1,5.5,1.66A2.61,2.61,0,0,1,80,54.82a5.71,5.71,0,0,1-1.92-.37l-3.07-1a9.74,9.74,0,0,0-3.57-.65,3.21,3.21,0,0,0-2.84,1.92,8.9,8.9,0,0,1,5.28,2.65l-3.51-1.3A3.33,3.33,0,0,0,68,55.84a3,3,0,0,0-.86.63l-.42.41a20.17,20.17,0,0,0-1.76,2,1.9,1.9,0,0,1,.89.17,23.87,23.87,0,0,0,2.88,1c.62.14,1.27.5,1,1.36a1.82,1.82,0,0,1-1.33,1.14c-1.48.44-3.09-.08-4.59-.58l-1.92-.65a3.23,3.23,0,0,1-1.2-.6A2.33,2.33,0,0,1,60.11,58.76Z" fill="#080307"/><path d="M61.72,57a5.91,5.91,0,0,0,.57-1.55,13.55,13.55,0,0,1,2.21-1.64,3,3,0,0,0,1-.76A5.28,5.28,0,0,0,66,51.69a3.38,3.38,0,0,1,1.89-2,.54.54,0,0,0-.14.36,5,5,0,0,1,4.59-.37l-.72.15,4.65.55L71,50.86a1.63,1.63,0,0,0-1.38.63,7,7,0,0,1,3.11.24,50.63,50.63,0,0,1,5.5,1.66A2.61,2.61,0,0,1,80,54.82a5.71,5.71,0,0,1-1.92-.37l-3.07-1a9.74,9.74,0,0,0-3.57-.65,3.21,3.21,0,0,0-2.84,1.92,8.9,8.9,0,0,1,5.28,2.65l-3.51-1.3A3.33,3.33,0,0,0,68,55.84a3,3,0,0,0-.86.63l-.42.41a2.38,2.38,0,0,0-1.41.4,6.37,6.37,0,0,0-1.32.89,2.66,2.66,0,0,0-.82,1.38c0,.22-.27.26-.15.45a2.62,2.62,0,0,0,1.49,1.08,14.6,14.6,0,0,0,1.48.17,1.7,1.7,0,0,1,1.28.76,4,4,0,0,1-2.41-.16,12,12,0,0,1-2.61-1.19A2.46,2.46,0,0,1,60.9,59C60.83,58.21,61.37,57.61,61.72,57Z" fill="#2a304a"/><path d="M63,57a8.73,8.73,0,0,1,1.45-1.18,3.83,3.83,0,0,0,1.27-1.38c.1-.22.19-.47.4-.57s.69.18.75.54a1.34,1.34,0,0,1-.32,1,19.83,19.83,0,0,1-2.44,2.07c-.22.22-1.41,1.85-1.72,1.66C61.9,58.79,62.81,57.17,63,57Z" fill="#080307"/><path d="M30.08,21.78a5,5,0,0,0-1.7-.82,16.75,16.75,0,0,0,2.08,1.7,1.39,1.39,0,0,0-1.12,0l2.16,1a4,4,0,0,0,1.37.45c.23,0,.56.09.52.34a.45.45,0,0,1-.09.18l-1.2,1.67A5.43,5.43,0,0,0,31,27.94a1,1,0,0,0,0,.48c0,.21.41.31.62.33,1.13-1.66,3.1-2.56,4.12-4.3a1.06,1.06,0,0,0,.16-1,1,1,0,0,0-.7-.37l-.73-.15-.27-.06a2.88,2.88,0,0,1-1.6-.69,2.25,2.25,0,0,1-.46-.82,10.56,10.56,0,0,0-.52-1.51,3.22,3.22,0,0,0,.09,1.76c-1-.79-1.49-2.2-2.3-3.26,0,1.17,1.16,2,1.21,3.16A14.27,14.27,0,0,0,28,19.63a1.42,1.42,0,0,0,.48.67Z" fill="#080307"/><path d="M33.65,25a2.17,2.17,0,0,1,1-1.4.73.73,0,0,1,.45-.13.33.33,0,0,1,.3.31.58.58,0,0,1-.26.4,4.78,4.78,0,0,0-.88.79c-.12.16-.21.34-.34.5a.71.71,0,0,1-.48.3c-.06-.14,0-.21.09-.32A1.78,1.78,0,0,0,33.65,25Z" fill="#fff" opacity="0.25"/><path d="M49.63,32.93a2.57,2.57,0,0,0,.17.67h0a1,1,0,0,0,.21.32,1.66,1.66,0,0,0,.51.32l1,.47a.51.51,0,0,0,.39.07c.24-.09.26-.43.25-.69v0l-.1-1.41L52,31.74h0v0a1.79,1.79,0,0,0,1,.79,12.35,12.35,0,0,0,1.29.28,12,12,0,0,1,3,1.29,3.15,3.15,0,0,1,1.08.8.9.9,0,0,0,0-.29h0a1.18,1.18,0,0,0-.32-.72,2.83,2.83,0,0,0-.88-.57l-2.17-1,0,0a3.47,3.47,0,0,1,1.61-.68A9.91,9.91,0,0,1,59,31.17a12.6,12.6,0,0,0,3.66-.72.83.83,0,0,1,.59-.06.8.8,0,0,0-.29-.22,1.25,1.25,0,0,0-.63-.09,7.41,7.41,0,0,0-1,.23,7.14,7.14,0,0,1-1.65.13q-1.09,0-2.18,0a1.33,1.33,0,0,0,.54-.16c.23-.11.47-.25.64-.32l1.23-.52c.24-.1.83-.22.89-.54a.34.34,0,0,0,0-.19c-.09-.22-.45-.21-.66-.16a9.37,9.37,0,0,0-1.63.6h0l-.05,0a.57.57,0,0,0-.48,0l-1.34.45a.33.33,0,0,1-.2,0,.62.62,0,0,1-.14-.09c-.2-.14-.47,0-.69.13l-1.07.65-.42.25a3.88,3.88,0,0,1-1.55-1.23h0l-.08-.09a3.15,3.15,0,0,0-1.34-1,1.46,1.46,0,0,0-.45-.06.83.83,0,0,0-.4.1.94.94,0,0,0-.25.22,3.51,3.51,0,0,0-.54,2.36A18.25,18.25,0,0,0,49.63,32.93Z" fill="#2a304a"/><path d="M51.88,29.44s0,.11,0,.14a.16.16,0,0,1-.1,0,.3.3,0,0,0-.24.21.86.86,0,0,0,0,.34,12.05,12.05,0,0,0,.2,1.48,2.92,2.92,0,0,0,.12.49,5.54,5.54,0,0,0,.27.55,2.89,2.89,0,0,1,.26.86.72.72,0,0,1,0,.31.28.28,0,0,1-.2.21c-.13,0-.23-.1-.31-.21l-.27-.39a.46.46,0,0,1-.11-.42l.06-.11a.49.49,0,0,0-.05-.38,6,6,0,0,1-.33-1l.23.29a.44.44,0,0,0-.05-.36,3.67,3.67,0,0,1-.16-1.9.83.83,0,0,1,.07-.27C51.4,28.88,51.76,29.17,51.88,29.44Z" fill="#fff" opacity="0.25"/><path d="M49.63,32.93a2.57,2.57,0,0,0,.17.67h0l1.14.16a2.29,2.29,0,0,0-.21-.8,7.57,7.57,0,0,1-.41-3.67,1.41,1.41,0,0,1,.36-.89.83.83,0,0,1,.45-.19,1.46,1.46,0,0,0-.45-.06.83.83,0,0,0-.4.1.94.94,0,0,0-.25.22,3.51,3.51,0,0,0-.54,2.36A18.25,18.25,0,0,0,49.63,32.93Z" fill="#080307"/><path d="M52,31.74v0a1.79,1.79,0,0,0,1,.79,12.35,12.35,0,0,0,1.29.28,12,12,0,0,1,3,1.29,3.15,3.15,0,0,1,1.08.8.9.9,0,0,0,0-.29h0a3.38,3.38,0,0,0-1.41-1l-.78-.35-.88-.4A4.49,4.49,0,0,0,54,32.42a1.73,1.73,0,0,1-.4-.06,1.23,1.23,0,0,1-.29-.16,4.49,4.49,0,0,1-.8-.65,1.66,1.66,0,0,1-.45-.94c0-.17,0-.37-.12-.49a.12.12,0,0,0-.13,0c-.05,0-.07.09-.07.15A3.14,3.14,0,0,0,52,31.74Z" fill="#080307"/><path d="M60.82,28.87a.34.34,0,0,0,0-.19,5.46,5.46,0,0,1-1.36.54,11.44,11.44,0,0,0-2.57,1.19,6.1,6.1,0,0,0,1.17-.16c.23-.11.47-.25.64-.32l1.23-.52C60.16,29.31,60.76,29.19,60.82,28.87Z" fill="#080307"/><path d="M56.9,29.74a3.88,3.88,0,0,0,1.63-.62h0l-.05,0a.61.61,0,0,1-.14.13,1.9,1.9,0,0,1-.6.2A3.66,3.66,0,0,0,56.9,29.74Z" fill="#080307"/><path d="M54.93,32.11a.54.54,0,0,0,.21.12,3.47,3.47,0,0,1,1.61-.68A9.91,9.91,0,0,1,59,31.17a12.6,12.6,0,0,0,3.66-.72.83.83,0,0,1,.59-.06.8.8,0,0,0-.29-.22c-.81.19-1.62.37-2.44.54a7.17,7.17,0,0,1-1,.15c-.32,0-.65,0-1,0a8.28,8.28,0,0,0-2.16.38A3,3,0,0,0,54.93,32.11Z" fill="#080307"/><path d="M52.55,29.27a3.75,3.75,0,0,0,.82,1.31,4,4,0,0,0,.5.39,1.76,1.76,0,0,0,.42.23,1.42,1.42,0,0,0,.46.06,6.87,6.87,0,0,0,2.1-.48c-.29-.13-.65,0-1-.1a.18.18,0,0,1-.1-.07.19.19,0,0,1,0-.17.71.71,0,0,1,.45-.31l.5-.17c-.39-.08-.8.2-1.2.16a.81.81,0,0,1,.3-.36s0,0-.07,0a2.44,2.44,0,0,0-.66.36.93.93,0,0,1-.61.18l-.42.25A3.88,3.88,0,0,1,52.55,29.27Z" fill="#fff" opacity="0.25"/><path d="M31.48,22.8a1.58,1.58,0,0,0,.79.43c.44.05.86-.26,1.3-.31a5,5,0,0,1,.66,0h.19l-.27-.06a2.88,2.88,0,0,1-1.6-.69,2.25,2.25,0,0,1-.46-.82c0,.15-.07.29-.11.41s-.1.24-.21.26c0,0,0,.12,0,.15a.14.14,0,0,1-.16,0,1.58,1.58,0,0,1-.1-.15.38.38,0,0,0-.31-.16,1.08,1.08,0,0,0,.27.46A.41.41,0,0,1,31.48,22.8Z" fill="#fff" opacity="0.25"/><path d="M20.06,24.45c.73.62,1.33,1.05,1.33,1.05l0,0a22,22,0,0,0,3.69,3,10.3,10.3,0,0,1,3.73,2.16l.12.11c.27.26.42.42.42.42s-1.19.86,0,1.14a3.41,3.41,0,0,1,.42.14c1.67.64,5.94,3.07,9.43,4.82a14.1,14.1,0,0,0,6.39,1.06c.46,0,.91,0,1.32-.07,1-.07,1.76-.18,2.21-.26l.42-.07s.47.18,1.29.45c3.07,1,11,3.19,17,1.46a23.71,23.71,0,0,0,3.38-1.21c.92-.42,1.62-1.1,2.54-1.51a27.72,27.72,0,0,1,6.48-2A9,9,0,0,1,82.4,35c2.05.13,3.72,1.06,5.54,1.87a37.31,37.31,0,0,0,6.35,2,7.93,7.93,0,0,0,1.91.31,44.76,44.76,0,0,1-6.42-3c-1.93-1.07-3.76-2.45-5.95-2.9-3.27-.68-6.78.24-9.86,1.73a29.39,29.39,0,0,1-7.64,2.39c-4.49.85-9-.94-11.52-2.37-.8-.46-1.56-.87-2.29-1.24l-.17-.09-.24-.12-.7-.35-.75-.36-1.11-.53-1.27-.61-.07,0a39.23,39.23,0,0,0-7.84-2.86,35.1,35.1,0,0,1-4.19-1.22c-.59-.2-1.06-.37-1.4-.47a3,3,0,0,1-.49-.2l-.57-.31c-.37-.22-.8-.5-1.25-.82A17.85,17.85,0,0,1,29.31,23a14.5,14.5,0,0,0-4.61-3.22,2.69,2.69,0,0,0-2.89-.63,5.77,5.77,0,0,1-1.14.22l-1.74.22-.32,0a1.33,1.33,0,0,0-1,1.06,2.22,2.22,0,0,0-.07.34C17.46,22,18.91,23.47,20.06,24.45Z" fill="#161416"/><path d="M73.85,37a.24.24,0,0,1,0-.14,1.27,1.27,0,0,0,.1-.14.27.27,0,0,0-.12-.37,3,3,0,0,1,1.36-.63A2.73,2.73,0,0,0,76.59,35s0-.06,0-.08l0,0a1.25,1.25,0,0,0-.61-.09.92.92,0,0,1-.5-.11c-.13-.09-.09-.21-.11-.36a14.79,14.79,0,0,1,8.48-1.12c2.19.45,4,1.84,5.95,2.9a44.76,44.76,0,0,0,6.42,3,7.93,7.93,0,0,1-1.91-.31,37.31,37.31,0,0,1-6.35-2C86.13,36,84.46,35.11,82.4,35a9,9,0,0,0-2.12.18q-1,.17-1.91.41-1.19.3-2.36.7l-1.16.43-.57.24c-.09,0-.38.23-.42.06Z" fill="#2c73e7"/><path d="M18,20.37a.22.22,0,0,0,.08.25c.1.06.23,0,.35,0a.58.58,0,0,1,.46.23,1.61,1.61,0,0,0,.39.36,1.17,1.17,0,0,0,.72,0,3.56,3.56,0,0,1,2.7.38.94.94,0,0,0,.22.14,1.34,1.34,0,0,0,.25,0,.91.91,0,0,1,.65.48.34.34,0,0,0,.1.13c.1.07.24,0,.36,0s.39.19.57.32a1.69,1.69,0,0,0,1.35.1l-1.61-.55a.7.7,0,0,1-.17-.08c-.15-.1-.21-.32-.35-.44s-.55-.1-.82-.2a1.56,1.56,0,0,1-.29-.15,3.83,3.83,0,0,0-2.33-.52,2,2,0,0,1-1.09,0,4.77,4.77,0,0,1-.52-.39.55.55,0,0,0-.62-.06s-.17-.16-.22-.15S18,20.31,18,20.37Z" fill="#e3793d"/><path d="M18.93,19.53l.19.07c.56.17,1.19,0,1.75.13a4,4,0,0,1,.69.32A4.37,4.37,0,0,0,23,20.5a2.15,2.15,0,0,1,1,.25,1.47,1.47,0,0,0,.24.16.81.81,0,0,0,.23,0l.69.08a.07.07,0,0,0,.06,0,.07.07,0,0,0,0-.07.5.5,0,0,0-.43-.32,3.49,3.49,0,0,1-.55-.08c-.11,0-.22-.11-.33-.16a4.87,4.87,0,0,0-1.18-.14,3.18,3.18,0,0,1-.94-.37l-.66-.35a2.5,2.5,0,0,0-.41-.2h0Z" fill="#e3793d"/><path d="M26.08,21.9a1.09,1.09,0,0,0,.16.23.1.1,0,0,0,.06,0,.09.09,0,0,0,.08-.07.25.25,0,0,0,0-.11q0-.16-.06-.33a.38.38,0,0,0,0-.11l-.07-.07a1.27,1.27,0,0,0-.34-.21c-.25-.1-.21,0-.09.19A4.2,4.2,0,0,1,26.08,21.9Z" fill="#e3793d"/><path d="M26.89,22.42l-.07-.06a.27.27,0,0,0-.2-.06c-.08,0-.14.11-.18.19a1.62,1.62,0,0,0-.09.22.29.29,0,0,0,0,.17.25.25,0,0,0,.21.14c.16,0,.35.18.43-.09A.94.94,0,0,0,26.89,22.42Z" fill="#e3793d"/><path d="M21.93,23.4a.87.87,0,0,0,.28.13l.23,0a.86.86,0,0,1,.24.13,14,14,0,0,0,1.84.78,8.56,8.56,0,0,1,1.58,1l.73.56a.2.2,0,0,0,.06-.24.55.55,0,0,0-.16-.19,4.29,4.29,0,0,1-.58-.64,1.86,1.86,0,0,0-.2-.25,1.47,1.47,0,0,0-.27-.19,5.3,5.3,0,0,0-.69-.37c-.45-.19-.95-.25-1.39-.45a5.65,5.65,0,0,0-.62-.28l-.43-.11c-.78-.24-1.23-1.14-2-1.38a2.7,2.7,0,0,0-.39-.08c-.15,0-.63,0-.34.19a8.11,8.11,0,0,0,.72.45Z" fill="#e3793d"/><path d="M20.06,24.45l.85.53.29.17a1.56,1.56,0,0,0,1.13.13.69.69,0,0,0,.51.46c.2,0,.44,0,.6.13s.15.26.29.28.16,0,.24,0,.2.36.38.37.18-.14.21-.25-.09-.29-.24-.32a3.72,3.72,0,0,1-.43-.06,3,3,0,0,1-.37-.24,2.56,2.56,0,0,0-.29-.11,4.6,4.6,0,0,1-.51-.28c-.67-.36-1.5-.31-2.14-.73a1.79,1.79,0,0,1-.63-.74,8,8,0,0,0-.41-1c-.28-.43-.77-.62-1.16-.94a2.44,2.44,0,0,1-.77-1.19,2.22,2.22,0,0,0-.07.34C17.46,22,18.91,23.47,20.06,24.45Z" fill="#50311f"/><path d="M25.25,26.92s.34.18.92.53c.29.18.64.39,1,.66s.83.57,1.28.93q.34.27.7.58l.18.16.18.17.35.35c.23.24.49.48.75.72l.4.36.42.35.22.17.22.17.22.17.23.17.46.33.47.32.24.16.24.15.49.31.5.29.25.15.25.14.51.28.13.07.13.06.26.13.52.26.52.24.52.23.52.21.52.21.52.19.51.18.5.16c.33.1.66.21,1,.29l.47.13.23.06.11,0h.12l.9.14c.58.08,1.11.12,1.58.14s.89,0,1.23,0h.24l.21,0,.18,0,.15,0,.28,0-.28,0H46c-.34,0-.75,0-1.22,0s-1-.09-1.57-.18l-.89-.16h-.11l-.11,0-.23-.07-.47-.14c-.32-.09-.64-.2-1-.31l-.5-.17-.5-.19-.51-.19-.51-.21-.52-.22-.52-.23-.52-.24-.51-.26-.26-.13L36,34.4l-.13-.07-.51-.28-.25-.14-.25-.15-.5-.29-.49-.31L33.62,33l-.24-.16-.47-.32-.46-.33-.23-.16L32,31.89l-.22-.17-.22-.17-.42-.34-.4-.35c-.26-.23-.51-.46-.75-.7l-.36-.35-.18-.16-.18-.16q-.36-.31-.71-.57c-.47-.35-.91-.65-1.31-.9s-.76-.46-1.05-.62L25.5,27Z" fill="#e3793d"/><path d="M25.78,25.13s4.86,4.14,6.51,5.36,8.63,4.93,11.55,5c2.2,0,6.4,1.5,8.08,2.12l.72.27a32.74,32.74,0,0,0,7.48,1.73,25.68,25.68,0,0,0,6.6-.07l.37-.06a16.64,16.64,0,0,0,7-2.84L74,36.33C69.57,39.5,64,39.66,60.19,39.24a32.49,32.49,0,0,1-7.41-1.71L52,37.22c-1.75-.65-5.85-2.07-8.08-2.1-2.81,0-9.79-3.74-11.38-4.91S26,24.9,26,24.85Z" fill="#e3793d"/><path d="M26.69,22.89A22,22,0,0,1,30,25.76c.89,1.17,4.87,3.73,7.48,4.79l1.21.5a43,43,0,0,0,8,2.62,37,37,0,0,1,6.37,2l.53.25a24.46,24.46,0,0,0,4.35,1.67,21.73,21.73,0,0,0,9,.73l.75-.13a15.39,15.39,0,0,0,6.84-2.83A3.5,3.5,0,0,1,76,34.47a3.62,3.62,0,0,0,1-.25,3.77,3.77,0,0,1-.6.12,8.67,8.67,0,0,0-1.14.19,1.84,1.84,0,0,0-.55.21c-.17.12-.32.29-.48.42a15.14,15.14,0,0,1-6.66,2.73A20.92,20.92,0,0,1,58,37.3a24.26,24.26,0,0,1-4.3-1.65s-.2-.1-.58-.27a37.53,37.53,0,0,0-6.38-2,42.75,42.75,0,0,1-7.9-2.6l-1.21-.5c-2.78-1.14-6.56-3.65-7.35-4.7a21.8,21.8,0,0,0-3.34-2.94Z" fill="#e3793d"/><path d="M34.29,26.91a17.91,17.91,0,0,0,3.28,1.65,24.73,24.73,0,0,1,2.37,1A16.09,16.09,0,0,0,44.57,31a43.64,43.64,0,0,1,8,2.74c-1.51-.77-2.9-1.4-4.24-2a28.23,28.23,0,0,0-3.65-1,15.68,15.68,0,0,1-4.55-1.42,24.82,24.82,0,0,0-2.39-1,14.56,14.56,0,0,1-1.51-.65c-.59-.2-1.06-.37-1.4-.47A3,3,0,0,1,34.29,26.91Z" fill="#e3793d"/><path d="M21.42,25.53a22,22,0,0,0,3.69,3,10.3,10.3,0,0,1,3.73,2.16h0a.49.49,0,0,0-.19-.4A6.44,6.44,0,0,0,27.11,29c-.67-.35-1.47-.5-2-1.11a.36.36,0,0,0-.12-.12c-.09,0-.19,0-.29,0a.56.56,0,0,1-.43-.22,3.31,3.31,0,0,0-.34-.37c-.2-.16-.49-.22-.6-.46a.18.18,0,0,1,0-.18l.06-.06c0-.07,0-.16-.1-.2-.39-.22-.9-.2-1.24-.5l-.06.19A.83.83,0,0,0,21.42,25.53Z" fill="#50311f"/><path d="M21.59,30.83l.13.09a1.15,1.15,0,0,0-1.37.56,1,1,0,0,0-.06,1.16A2.28,2.28,0,0,1,21,31.58a.81.81,0,0,1,.45-.23.85.85,0,0,1,.4.11,8.16,8.16,0,0,1,1.71,1.06,4.12,4.12,0,0,1-.9-.24,1.59,1.59,0,0,0-.92-.07.82.82,0,0,0-.6.71s.07,0,.09,0a.58.58,0,0,0,0-.12c0-.13.19-.15.33-.13l.15,0a12.42,12.42,0,0,0,2.22.52,2.49,2.49,0,0,1,.39.07l.18.07.27.18a2.57,2.57,0,0,0,.54.18,4.34,4.34,0,0,1,1,.51l.41.24a1.46,1.46,0,0,0,1.51,0,2.53,2.53,0,0,0,.57-.72,7.85,7.85,0,0,1,1.72-1.91.55.55,0,0,0,.16-.17.51.51,0,0,0,0-.43c-.2-.43-.54-.88-1-.85s-.72.41-1,.74a6.28,6.28,0,0,1-.92.85,1.11,1.11,0,0,1-.46.24.76.76,0,0,1-.39,0c-.12,0-.24-.1-.35-.16a9,9,0,0,0-1.24-.33,2.21,2.21,0,0,1-1-.73,4.49,4.49,0,0,0-1-.81,1.53,1.53,0,0,0,.52.93L21.94,30a1.07,1.07,0,0,0-.43-.18h-.14a.39.39,0,0,0-.25.16l0,0-.65-.24a.57.57,0,0,0-.39,0,.27.27,0,0,0-.13.11.2.2,0,0,0,0,.22A5.81,5.81,0,0,1,21.59,30.83Z" fill="#080307"/><path d="M20.36,31.49a1,1,0,0,0-.06,1.16A2.28,2.28,0,0,1,21,31.58a.81.81,0,0,1,.45-.23.85.85,0,0,1,.4.11,8.16,8.16,0,0,1,1.71,1.06,4.12,4.12,0,0,1-.9-.24,1.59,1.59,0,0,0-.92-.07.82.82,0,0,0-.6.71s.07,0,.09,0a.58.58,0,0,0,0-.12c0-.13.19-.15.33-.13a.33.33,0,0,1,.24-.25.67.67,0,0,1,.32.09,1.4,1.4,0,0,0,.39.05A3.78,3.78,0,0,1,24,33a.5.5,0,0,1,.28.27v0l.18.07.27.18a2.57,2.57,0,0,0,.54.18,4.34,4.34,0,0,1,1,.51h0c.25.08.5.27.75.16s.3-.3.47-.43l0,0c.13-.08.28-.1.41-.19a.52.52,0,0,0,.13-.68A.27.27,0,0,0,28,33c-.19-.07-.39.18-.6.19l-.11,0c-.18-.07-.27-.33-.33-.54s-.07-.27-.12-.41-.24-.1-.35-.16a9,9,0,0,0-1.24-.33,2.21,2.21,0,0,1-1-.73,4.49,4.49,0,0,0-1-.81,1.53,1.53,0,0,0,.52.93L21.94,30a1.07,1.07,0,0,0-.43-.18h-.14a.63.63,0,0,0,.2.17,16.39,16.39,0,0,1,1.88,1.4,13.32,13.32,0,0,1-1.67-1.06c-.19-.1-.39-.17-.57-.28l-.1-.07,0,0-.65-.24a.57.57,0,0,0-.39,0,.27.27,0,0,0-.13.11.87.87,0,0,0,.25.07,6.9,6.9,0,0,1,2.64,1.38,4.27,4.27,0,0,1,.57.47A12.94,12.94,0,0,0,22,31a1.72,1.72,0,0,0-.36-.13l.13.09A1.15,1.15,0,0,0,20.36,31.49Z" fill="#fff" opacity="0.25"/><path d="M24.4,32.22a.84.84,0,0,1,.18.06.37.37,0,0,1,.19.34.18.18,0,0,1-.05.13.19.19,0,0,1-.1,0,1,1,0,0,1-.61-.11.38.38,0,0,1-.1-.08,1.38,1.38,0,0,1-.13-.3c0-.09-.16-.18-.15-.3s.08-.1.16-.07A4.88,4.88,0,0,0,24.4,32.22Z" fill="#fff" opacity="0.25"/><path d="M25.6,32.77a2.17,2.17,0,0,0,1.25,1.07l.37.09a2.09,2.09,0,0,0,.33,0l0,0c.13-.08.28-.1.41-.19a.52.52,0,0,0,.13-.68A.27.27,0,0,0,28,33c-.19-.07-.39.18-.6.19l-.11,0a.31.31,0,0,1-.25.08.79.79,0,0,1-.29-.12,1.28,1.28,0,0,1-.3-.22c-.1-.1-.16-.23-.25-.34a.38.38,0,0,0-.36-.16.39.39,0,0,0-.22.16.22.22,0,0,0,0,.11A.23.23,0,0,0,25.6,32.77Z" fill="#fff" opacity="0.25"/><path d="M35.89,33a18.16,18.16,0,0,1-2.35-1.49,20,20,0,0,1-4.34-4.36c-.84-1.22-2.4-1.53-3.73-2.1a17.41,17.41,0,0,1-2.95-1.76,1,1,0,0,1-.45-.5c-.06-.23.1-.54.32-.51a.47.47,0,0,0,.43.58.85.85,0,0,1,.78-.41c-.32.07-.3.61,0,.8a2.77,2.77,0,0,0,.91.26,4,4,0,0,0,.69.23.51.51,0,0,0,.58-.38,1.85,1.85,0,0,0-.14.82l.6-.49a.86.86,0,0,0-.2.85,1.74,1.74,0,0,0,.73-.7,1.51,1.51,0,0,0-.1,1,2,2,0,0,1,.64-.62,1.77,1.77,0,0,0-.19.79,2.31,2.31,0,0,1,.68-.62l-.22.63.73-.34-.26.6a1.7,1.7,0,0,1,.67-.17l0,.27,1.87,1.44a26.49,26.49,0,0,0,2.6,1.83c.72.42,1.47.78,2.22,1.13l7.83,3.67a16.24,16.24,0,0,0,2.31.94c2.64.77,5.36,1.09,8,1.92.81.25,1.61.53,2.42.78a23.7,23.7,0,0,0,12,1A15.45,15.45,0,0,0,71,37a15.15,15.15,0,0,0,2.9-1.73,5.94,5.94,0,0,1,1.43-.95,3.33,3.33,0,0,1,.46-.12,16.84,16.84,0,0,0,2.33-.4,8.48,8.48,0,0,1,4.67-.18,24.55,24.55,0,0,1,4.41,1.56,2.21,2.21,0,0,1,1,.67L85.6,35a15.54,15.54,0,0,0-4.71-1.09,16,16,0,0,0-2.51.22,10,10,0,0,0-3.31.66c-.16.09-.26.23-.42.33s-.38.22-.56.35l-.69.5q-.69.49-1.43.91a16.23,16.23,0,0,1-3,1.37,13.89,13.89,0,0,1-2.26.54,30.51,30.51,0,0,1-10.3-.58,17.21,17.21,0,0,1-2.31-.56c-.68-.23-1.33-.54-2-.74-1.53-.45-3.18-.37-4.74-.69s-2.94-.48-4.42-.67a19.37,19.37,0,0,1-2.23-.37A19.32,19.32,0,0,1,35.89,33Z" fill="#fff" opacity="0.37"/><path d="M67.56,38.24q.63-.13,1.25-.28a17.67,17.67,0,0,0,3.75-1.37l.4-.22A14.82,14.82,0,0,0,75,34.93a3.24,3.24,0,0,1,1-.41l.58-.23a5.78,5.78,0,0,1,.55-.25,6.81,6.81,0,0,1-1.25.16,2.14,2.14,0,0,0-1,.31c-.3.2-.57.47-.85.7a10.23,10.23,0,0,1-2.38,1.39,20,20,0,0,1-4.21,1.28A20.92,20.92,0,0,1,58,37.3a24.26,24.26,0,0,1-4.3-1.65s-.2-.1-.58-.27a2.13,2.13,0,0,1-.1.34l.53.25a24.46,24.46,0,0,0,4.35,1.67,21.73,21.73,0,0,0,9,.73Z" fill="#2c73e7"/><path d="M51.93,37.58l.72.27a32.74,32.74,0,0,0,7.48,1.73,25.68,25.68,0,0,0,6.6-.07l.37-.06a16.64,16.64,0,0,0,7-2.84L74,36.33C69.57,39.5,64,39.66,60.19,39.24a32.49,32.49,0,0,1-7.41-1.71L52,37.22A1.14,1.14,0,0,0,51.93,37.58Z" fill="#2c73e7"/><path d="M44.94,39.81A2.66,2.66,0,0,0,45.49,41a6.23,6.23,0,0,0,.78.86,8.28,8.28,0,0,0,1.35,1,1.82,1.82,0,0,1,.59.47,3.23,3.23,0,0,1,.31.83,2.06,2.06,0,0,0,1.15,1.24.33.33,0,0,1-.09-.22,3,3,0,0,0,2.81.22l-.44-.09L54.79,45l-3.22-.32a1,1,0,0,1-.84-.38,4.29,4.29,0,0,0,1.9-.15,31,31,0,0,0,3.36-1,1.59,1.59,0,0,0,1.1-.88,3.49,3.49,0,0,0-1.17.23L54.05,43a6,6,0,0,1-2.18.4,2,2,0,0,1-1.74-1.17,5.44,5.44,0,0,0,3.23-1.62l-2.15.79a2,2,0,0,1-1.45.16,1.82,1.82,0,0,1-.53-.39L49,41a12.33,12.33,0,0,1-1.07-1.24,1.16,1.16,0,0,0,.55-.11A14.59,14.59,0,0,1,50.21,39c.38-.08.78-.3.63-.83a1.11,1.11,0,0,0-.81-.7,4.8,4.8,0,0,0-2.81.36l-1.17.4a2,2,0,0,0-.73.37A1.42,1.42,0,0,0,44.94,39.81Z" fill="#080307"/><path d="M45.92,40.89a3.62,3.62,0,0,1,.35.95,8.28,8.28,0,0,0,1.35,1,1.82,1.82,0,0,1,.59.47,3.23,3.23,0,0,1,.31.83,2.06,2.06,0,0,0,1.15,1.24.33.33,0,0,1-.09-.22,3,3,0,0,0,2.81.22l-.44-.09L54.79,45l-3.22-.32a1,1,0,0,1-.84-.38,4.29,4.29,0,0,0,1.9-.15,31,31,0,0,0,3.36-1,1.59,1.59,0,0,0,1.1-.88,3.49,3.49,0,0,0-1.17.23L54.05,43a6,6,0,0,1-2.18.4,2,2,0,0,1-1.74-1.17,5.44,5.44,0,0,0,3.23-1.62l-2.15.79a2,2,0,0,1-1.45.16,1.82,1.82,0,0,1-.53-.39L49,41a1.46,1.46,0,0,1-.86-.24,3.89,3.89,0,0,1-.8-.54,1.62,1.62,0,0,1-.5-.85c0-.13-.17-.16-.09-.27a1.6,1.6,0,0,1,.91-.66,8.92,8.92,0,0,1,.91-.1,1,1,0,0,0,.78-.46,2.42,2.42,0,0,0-1.47.1,7.34,7.34,0,0,0-1.6.73,1.51,1.51,0,0,0-.83,1C45.38,40.14,45.7,40.51,45.92,40.89Z" fill="#2a304a"/><path d="M46.7,40.91a5.34,5.34,0,0,0,.89.72,2.34,2.34,0,0,1,.78.84c.06.13.12.29.24.35s.42-.11.46-.33a.82.82,0,0,0-.2-.61,12.12,12.12,0,0,0-1.49-1.27c-.14-.13-.86-1.13-1-1S46.58,40.78,46.7,40.91Z" fill="#080307"/></svg>