<svg id="Layer_1" data-name="Layer 1" xmlns="http://www.w3.org/2000/svg" viewBox="0 0 132.1 36.73"><title>tadpole</title><path d="M77.17,35.64c-12.11,2.15-33.16-.54-47.87-8C18.34,22,.6,19.53.21,17.62-1.15,11.08,18.41,5.32,33.89,6.4c7.37.51,27.05-5,41.48-6.26S112,7,112.75,7c9.67,17.23-8.59,23.86-35.59,28.66" fill="#78866c" fill-rule="evenodd"/><path d="M53,35.42A84.48,84.48,0,0,1,29.26,28c-6-3.05-14-5.18-20.14-6.8C4,19.82.27,18.82.07,17.84A3.41,3.41,0,0,1,0,17c.1-1.86,1.75-3.63,4.41-5.16A39.57,39.57,0,0,1,14.75,8,66.73,66.73,0,0,1,33.94,6.39c3.88.27,11.24-1.15,19.43-2.73C60.65,2.26,68.6.73,75.39.13c5.4-.47,11.87.36,17.9,1.59,7.09,1.45,11.9,3.35,19,3.5a25.14,25.14,0,0,1,12.18,3.09,14.75,14.75,0,0,1,6.83,8.3,9.5,9.5,0,0,1,.31,1,9.35,9.35,0,0,1,.19,1,9.21,9.21,0,0,1,.2,2.75c-.08.7-.33,1.22-.79,1.39l-.17.06-.1,0c-1.32,1.86-3.87,3.08-6.59,4.38-.64.31-1.29.62-1.93.94l-1.11.57c-3.06,1.57-6.56,3.37-10.6,3.29a40.26,40.26,0,0,1-4.61-.3C97,30.5,99.24,31.17,90,33.39c-4,1-8.24,1.81-12.77,2.62-6.35,1.13-15.14.93-24.19-.59M89.93,33a96,96,0,0,0,10.72-3.17l.06,0,.06,0a18.84,18.84,0,0,0,5.43,1.48,40.06,40.06,0,0,0,4.57.3c4,.08,7.41-1.69,10.44-3.25l1.11-.57c.65-.33,1.3-.64,1.94-.94,2.7-1.29,5.23-2.5,6.49-4.32l0-.05.06,0,.15,0,.15-.05c.31-.11.48-.52.55-1.08a8.82,8.82,0,0,0-.2-2.62h0a8.83,8.83,0,0,0-.19-1,9.39,9.39,0,0,0-.3-1h0c-.82-3-3.19-5.67-6.53-7.61a25.63,25.63,0,0,0-12.21-3.21q-1,0-1.88,0t-1.86.14h-.06c-3.64-1.11-9.23-2.74-15.24-4S80.78,0,75.42.51c-6.77.59-14.71,2.12-22,3.53C45.22,5.63,37.85,7,33.92,6.78a66.42,66.42,0,0,0-19.1,1.65A39.24,39.24,0,0,0,4.58,12.16C2,13.63.44,15.29.36,17a3,3,0,0,0,.06.75c.15.75,3.82,1.72,8.78,3,6.12,1.62,14.18,3.76,20.2,6.82A84.19,84.19,0,0,0,53.09,35c9,1.51,17.77,1.71,24.08.59C81.7,34.83,86,34,89.93,33Z" fill="#303c36"/><path d="M77.21,30.61C65.11,32,44.06,30,29.32,24.68c-11-4-28.71-5.84-29.11-7.19C-1.16,12.89,18.37,9,33.86,9.83c7.37.41,27-3.34,41.46-4.13s36.62,5,37.4,5c9.72,12.15-8.52,16.69-35.5,19.88" fill="#84a18f" fill-rule="evenodd"/><path d="M77.21,30.75c-12.1,1.07-33.16-.61-47.9-4.86-11-3.17-27-8.24-27.45-9.3-1.38-3.6,16.47-3,32-2.31,7.37.35,27-2.49,41.45-3.05s36.63,4.11,37.41,4.11c9.75,9.56-8.49,13-35.46,15.41" fill="#9dad90" fill-rule="evenodd"/><path d="M7.7,16.79c-1.88-.38-3.65.08-5.89-.19,18.94-2.2,41.75,2.2,64.93-2.14C71.41,13.58,95.88,12,97.21,10c3.58-2.84,9-4.59,15-4.47,9.46.2,17.3,4.93,18.92,11-2.39-5.36-9.71-9.37-18.41-9.55-6-.13-11.46,1.63-15,4.47-1.33,2-25.79,3.58-30.47,4.46-20.93,3.92-41.76.06-59.55.89" fill="#192121" fill-rule="evenodd"/><path d="M95.61,25a207.84,207.84,0,0,0-38-.63,103.28,103.28,0,0,1-34.08-2.74C17,20.12,11.33,17.77,1.8,16.6c18.94-2.2,42,3,65.19-1.33A268.72,268.72,0,0,1,96.74,12q.34-.6.72-1.17c3.58-2.84,9-4.6,15-4.47,10,.21,18.26,5.53,19.15,12.14.36,1.77.38,3.62-.47,3.92l-.32.1c-1.59,2.29-5.1,3.61-8.49,5.32s-7.14,3.93-11.63,3.84C107,31.57,98.65,31.36,95.61,25" fill="#333633" fill-rule="evenodd"/><path d="M97.12,27.21,97,26.92h-.11l.26.3M68.35,17.15A268.51,268.51,0,0,1,98.1,13.86q.34-.6.72-1.17c3.58-2.84,9-4.6,15-4.47,7.17.15,13.4,2.9,16.71,6.86-2.73-5-9.75-8.58-18-8.76-6-.13-11.46,1.63-15,4.47-1.33,2-25.79,3.58-30.47,4.46C43.87,19.6,20.81,14.4,1.86,16.59a79.6,79.6,0,0,1,8,1.4C27.44,17.36,47.84,21,68.35,17.15Z" fill="#303c36" fill-rule="evenodd"/><path d="M95.47,25a205.28,205.28,0,0,0-37.81-.62,102.11,102.11,0,0,1-33.88-2.74c-6.45-1.55-12.09-3.9-21.56-5.07A94.74,94.74,0,0,1,12.79,16c4.55,1.11,8.27,2.4,12.31,3.37A102.1,102.1,0,0,0,59,22.12a205.39,205.39,0,0,1,37.81.62c3,6.32,11.33,6.53,15,6.61,4.47.09,8.28-2.18,11.56-3.84,6.41-3.25,4.88-1.66,4.42-1s-.45.62-5.76,3.31c-3.28,1.66-7.09,3.93-11.56,3.84-3.71-.08-12-.28-15-6.61" fill="#384240" fill-rule="evenodd"/><path d="M106.63,30.85c-7.34-.91-12.06-6.6-10.54-12.7s8.71-10.31,16.05-9.41,12.06,6.6,10.54,12.7S114,31.76,106.63,30.85" fill="#242424" fill-rule="evenodd"/><path d="M105.05,9.7c-1.05.72-2.41,2.28-2.62,2s.9-2,2-2.77,2.57-1.08,2.85-.64-1.13.67-2.19,1.39" fill="#4b5c5a" fill-rule="evenodd"/><path d="M105.43,8.88c.08.12.16.12.3.12a1.51,1.51,0,0,0,.55-.24c.16-.57-1.28-.54-.84.12" fill="#fff" fill-rule="evenodd"/><path d="M104.87,8.82s.05,0,.09,0,.08-.07.12-.12-.38,0-.21.13" fill="#fff" fill-rule="evenodd"/><path d="M110.2,28.31c-6.25-.1-10.65-4.46-9.84-9.74s6.53-9.48,12.78-9.38,10.65,4.46,9.84,9.74-6.53,9.48-12.78,9.38" fill="#333633" fill-rule="evenodd"/><path d="M112.33,26.18c-5.38-.08-9.18-3.84-8.48-8.4s5.63-8.17,11-8.09,9.18,3.84,8.48,8.4-5.63,8.17-11,8.09" fill="#3e4b4a" fill-rule="evenodd"/><path d="M112.88,18.07c-3.22.6-6-.34-6.25-2.09s2.2-3.66,5.42-4.26,6,.34,6.25,2.09-2.2,3.66-5.42,4.26" fill="#4b5c5a" fill-rule="evenodd"/><path d="M127.14,23.45a4.52,4.52,0,0,1,1.54.9,7.9,7.9,0,0,1-.93.73l0-.05a6.68,6.68,0,0,0-1-1.11,5.42,5.42,0,0,0,.44-.46" fill="#4b5c5a" fill-rule="evenodd"/><path d="M127.57,22a5,5,0,0,0,3.46.33c1.39-.46.18-5.22-.79-6,.94,2.37.73,4.66-.34,5-1.91.63-.91.11-2.33.66" fill="#4b5c5a" fill-rule="evenodd"/><path d="M129.87,19.63c-.2-.24-.46-.34-.57-.23s0,.4.16.64.46.34.57.23,0-.4-.16-.64" fill="#151515" fill-rule="evenodd"/><path d="M126.6,23a8.13,8.13,0,0,0,4.67-.54,1.34,1.34,0,0,0,.36-.23h0a9.15,9.15,0,0,1-5.71.35l-.14,0c.15.85,1.9.86,3.25,1.87l.11-.12A8.58,8.58,0,0,0,126.6,23" fill-rule="evenodd"/><path d="M124.65,12.26a3,3,0,0,0-4,1.73,3.38,3.38,0,0,0,2.45,3.85,3,3,0,0,0,4-1.73,3.38,3.38,0,0,0-2.45-3.85" fill="#f9fae8" fill-rule="evenodd"/><path d="M124.47,12.54c-1.62-.53-3.23.1-3.58,1.43s.66,2.83,2.29,3.36,3.23-.1,3.58-1.43-.66-2.83-2.29-3.36" fill="#4b5c5a" fill-rule="evenodd"/><path d="M124.45,13.23a2.07,2.07,0,0,0-2.79,1.11,2.35,2.35,0,0,0,1.78,2.61,2.07,2.07,0,0,0,2.79-1.11,2.35,2.35,0,0,0-1.78-2.61" fill="#0e1f26" fill-rule="evenodd"/><path d="M125.77,13.71a.61.61,0,0,0-.75.48.69.69,0,0,0,.38.85.61.61,0,0,0,.74-.48.69.69,0,0,0-.38-.85" fill="#f9fae8" fill-rule="evenodd"/><path d="M125.17,16.73a.32.32,0,0,0-.38.27.37.37,0,0,0,.18.46c.15.05.32-.07.38-.27a.37.37,0,0,0-.18-.46" fill="#f9fae8" fill-rule="evenodd"/><path d="M122.19,14.75a.86.86,0,0,0-1,.73,1,1,0,0,0,.49,1.22c.41.14.87-.19,1-.73a1,1,0,0,0-.48-1.22" fill="#f9fae8" fill-rule="evenodd"/><path d="M124.66,10.25a1.14,1.14,0,0,0-1.47.58c-.1.38.36.42,1,.7s1.31.72,1.41.34a1.78,1.78,0,0,0-1-1.62" fill="#4b5c5a" fill-rule="evenodd"/><path d="M124.72,10.54a.54.54,0,0,0-.7.28c0,.18.17.2.49.34s.62.34.67.16a.85.85,0,0,0-.46-.77" fill="#c9e8e7" fill-rule="evenodd"/><path d="M91.21,3.32a.39.39,0,0,1,.57.06.47.47,0,0,1-.05.62.38.38,0,0,1-.57-.06.47.47,0,0,1,0-.62m2.88-.72a.25.25,0,0,1,.05.33.21.21,0,0,1-.31.06.25.25,0,0,1-.05-.33A.21.21,0,0,1,94.09,2.6Zm-5.81-.71a.33.33,0,0,1,0,.44.27.27,0,0,1-.4,0,.33.33,0,0,1,0-.44A.27.27,0,0,1,88.28,1.89Zm-2.22,2a.33.33,0,0,1-.25.39A.32.32,0,0,1,85.45,4a.33.33,0,0,1,.25-.39A.32.32,0,0,1,86.07,3.93Zm-.69-2.06a.4.4,0,0,1,0,.53.33.33,0,0,1-.49-.05.4.4,0,0,1,0-.53A.33.33,0,0,1,85.37,1.87ZM96.58,4.49a.56.56,0,0,1-.42.65.53.53,0,0,1-.6-.46A.55.55,0,0,1,96,4,.53.53,0,0,1,96.58,4.49ZM99.15,4a.54.54,0,0,1-.06.72.45.45,0,0,1-.66-.07.54.54,0,0,1,.06-.72A.45.45,0,0,1,99.15,4Zm3,1.38a.39.39,0,0,1-.17.5.34.34,0,0,1-.46-.19.39.39,0,0,1,.17-.5A.34.34,0,0,1,102.14,5.33ZM80.34,1.71a.31.31,0,0,1-.13.39A.27.27,0,0,1,79.84,2,.31.31,0,0,1,80,1.56.27.27,0,0,1,80.34,1.71ZM81.75,3a.48.48,0,0,1-.05.65.4.4,0,0,1-.6-.06A.49.49,0,0,1,81.16,3,.4.4,0,0,1,81.75,3Zm-4.7-1.1a.53.53,0,0,1,.11.69.43.43,0,0,1-.64.12A.53.53,0,0,1,76.42,2,.43.43,0,0,1,77.05,1.92Zm-3.4-.51a.37.37,0,0,1,0,.5.31.31,0,0,1-.46,0,.37.37,0,0,1,0-.5A.31.31,0,0,1,73.66,1.42ZM73,3.8a.31.31,0,0,1,0,.41.26.26,0,0,1-.38,0,.31.31,0,0,1,0-.41A.25.25,0,0,1,73,3.8Zm3-3a.24.24,0,0,1-.1.31A.21.21,0,0,1,75.61,1a.24.24,0,0,1,.1-.31A.21.21,0,0,1,76,.76ZM69.35,2.94a.55.55,0,0,1,.12.72.45.45,0,0,1-.66.12.55.55,0,0,1-.12-.72A.45.45,0,0,1,69.35,2.94ZM70.29,1a.41.41,0,0,1,0,.55.34.34,0,0,1-.51-.05.41.41,0,0,1,0-.55A.34.34,0,0,1,70.29,1ZM62.16,4.25a.91.91,0,0,1-.69,1.07.87.87,0,0,1-1-.76.92.92,0,0,1,.69-1.07A.87.87,0,0,1,62.16,4.25Zm1.67-1.37a.45.45,0,0,1,0,.6.37.37,0,0,1-.55-.06.45.45,0,0,1,0-.6A.37.37,0,0,1,63.83,2.89ZM54.92,5a.39.39,0,0,1-.29.45.37.37,0,0,1-.42-.32.39.39,0,0,1,.29-.45A.37.37,0,0,1,54.92,5Zm-7.36,2a.65.65,0,0,1-.28.83.56.56,0,0,1-.77-.31.65.65,0,0,1,.28-.83A.57.57,0,0,1,47.56,6.94ZM51.08,5.1a.6.6,0,0,1,.32.74.52.52,0,0,1-.68.34.6.6,0,0,1-.32-.74A.52.52,0,0,1,51.08,5.1ZM89.64,4a.49.49,0,0,1,.1.64.4.4,0,0,1-.59.11.49.49,0,0,1-.1-.64A.4.4,0,0,1,89.64,4Z" fill="#303c36" fill-rule="evenodd"/><path d="M76,33.89a.38.38,0,0,0,.57,0,.47.47,0,0,0,0-.62.38.38,0,0,0-.57,0,.47.47,0,0,0,0,.62m2.84,1a.25.25,0,0,0,.07-.33.21.21,0,0,0-.3-.08.25.25,0,0,0-.07.33A.21.21,0,0,0,78.81,34.84ZM73,35.06a.33.33,0,0,0,0-.44.27.27,0,0,0-.4,0,.33.33,0,0,0,0,.44A.27.27,0,0,0,73,35.06Zm-2.1-2.22a.34.34,0,0,0-.23-.41.31.31,0,0,0-.37.25.34.34,0,0,0,.23.41A.31.31,0,0,0,70.88,32.85Zm-.81,2a.4.4,0,0,0,0-.54.33.33,0,0,0-.49,0,.4.4,0,0,0,0,.53A.33.33,0,0,0,70.07,34.84Zm11.32-1.68a.57.57,0,0,0-.38-.68.51.51,0,0,0-.62.41.57.57,0,0,0,.38.68A.51.51,0,0,0,81.39,33.17Zm2.54.75a.54.54,0,0,0,0-.72.44.44,0,0,0-.67,0,.54.54,0,0,0,0,.72A.44.44,0,0,0,83.94,33.92ZM87,32.79a.4.4,0,0,0-.14-.51.33.33,0,0,0-.47.15.39.39,0,0,0,.14.51A.33.33,0,0,0,87,32.79ZM65,34.58a.31.31,0,0,0-.11-.4.26.26,0,0,0-.37.12.31.31,0,0,0,.11.4A.26.26,0,0,0,65,34.58Zm1.49-1.19a.49.49,0,0,0,0-.65.4.4,0,0,0-.6,0,.49.49,0,0,0,0,.65A.4.4,0,0,0,66.52,33.39Zm-4.75.71a.52.52,0,0,0,.15-.68.44.44,0,0,0-.63-.17.52.52,0,0,0-.15.68A.44.44,0,0,0,61.77,34.1Zm-3.42.22a.37.37,0,0,0,0-.5.31.31,0,0,0-.46,0,.37.37,0,0,0,0,.5A.31.31,0,0,0,58.36,34.32Zm-.55-2.44a.31.31,0,0,0,0-.41.25.25,0,0,0-.38,0,.31.31,0,0,0,0,.41A.25.25,0,0,0,57.81,31.88Zm2.85,3.28a.25.25,0,0,0-.09-.32.21.21,0,0,0-.29.09.25.25,0,0,0,.09.32A.21.21,0,0,0,60.66,35.17Zm-6.52-2.72a.54.54,0,0,0,.16-.71.46.46,0,0,0-.65-.18.54.54,0,0,0-.16.71A.46.46,0,0,0,54.14,32.44Zm.84,2a.42.42,0,0,0,0-.55.34.34,0,0,0-.51,0,.42.42,0,0,0,0,.55A.34.34,0,0,0,55,34.46ZM47,30.53a.94.94,0,0,0-.63-1.12.84.84,0,0,0-1,.68A.94.94,0,0,0,46,31.21.85.85,0,0,0,47,30.53ZM48.63,32a.45.45,0,0,0,0-.6.37.37,0,0,0-.55,0,.45.45,0,0,0,0,.6A.37.37,0,0,0,48.63,32Zm-8.77-2.8a.4.4,0,0,0-.27-.48.36.36,0,0,0-.44.29.4.4,0,0,0,.27.48A.36.36,0,0,0,39.86,29.23Zm-7.23-2.6a.66.66,0,0,0-.23-.86.55.55,0,0,0-.79.25.66.66,0,0,0,.23.86A.55.55,0,0,0,32.63,26.63ZM36,28.76a.58.58,0,0,0,.36-.72.53.53,0,0,0-.66-.4.58.58,0,0,0-.36.72A.53.53,0,0,0,36,28.76Zm38.41,4.35a.48.48,0,0,0,.14-.63.4.4,0,0,0-.58-.16.48.48,0,0,0-.14.63A.4.4,0,0,0,74.44,33.11Z" fill="#303c36" fill-rule="evenodd"/><path d="M35.13,11.64a.38.38,0,0,1-.57,0,.47.47,0,0,1,0-.62.38.38,0,0,1,.57,0,.47.47,0,0,1,0,.62m-2.86.83a.25.25,0,0,1-.07-.33.21.21,0,0,1,.3-.07.25.25,0,0,1,.06.33A.21.21,0,0,1,32.27,12.47Zm5.83.48a.33.33,0,0,1,0-.44.27.27,0,0,1,.4,0,.33.33,0,0,1,0,.44A.27.27,0,0,1,38.1,12.95Zm2.15-2.12a.33.33,0,0,1,.24-.4.32.32,0,0,1,.37.26.33.33,0,0,1-.24.4A.31.31,0,0,1,40.25,10.83Zm.76,2a.4.4,0,0,1,0-.53.33.33,0,0,1,.49,0,.4.4,0,0,1,0,.53A.33.33,0,0,1,41,12.86ZM29.73,10.68a.56.56,0,0,1,.4-.66.52.52,0,0,1,.61.44.56.56,0,0,1-.4.66A.52.52,0,0,1,29.73,10.68Zm-2.56.64a.54.54,0,0,1,0-.72.45.45,0,0,1,.66,0,.55.55,0,0,1,0,.72A.45.45,0,0,1,27.17,11.32Zm-3-1.26a.39.39,0,0,1,.15-.5.34.34,0,0,1,.46.17.39.39,0,0,1-.15.5A.34.34,0,0,1,24.14,10.06ZM46,12.82a.31.31,0,0,1,.12-.4.27.27,0,0,1,.37.13.31.31,0,0,1-.12.4A.27.27,0,0,1,46,12.82Zm-1.46-1.26a.49.49,0,0,1,0-.65.4.4,0,0,1,.6,0,.49.49,0,0,1,0,.65A.4.4,0,0,1,44.58,11.56Zm4.73.92a.53.53,0,0,1-.14-.69.43.43,0,0,1,.63-.14.53.53,0,0,1,.14.69A.43.43,0,0,1,49.32,12.48Zm3.41.37a.37.37,0,0,1,0-.5.31.31,0,0,1,.46,0,.37.37,0,0,1,0,.5A.31.31,0,0,1,52.73,12.85Zm.6-2.41a.31.31,0,0,1,0-.41.26.26,0,0,1,.38,0,.31.31,0,0,1,0,.41A.26.26,0,0,1,53.33,10.44ZM50.4,13.6a.24.24,0,0,1,.1-.32.21.21,0,0,1,.29.1.24.24,0,0,1-.09.32A.21.21,0,0,1,50.4,13.6ZM57,11.17a.55.55,0,0,1-.14-.72.45.45,0,0,1,.66-.15.55.55,0,0,1,.14.72A.45.45,0,0,1,57,11.17Zm-.88,2a.41.41,0,0,1,0-.55.34.34,0,0,1,.51,0,.41.41,0,0,1,0,.55A.34.34,0,0,1,56.1,13.14Zm8-3.58a.92.92,0,0,1,.66-1.1.86.86,0,0,1,1,.72.92.92,0,0,1-.66,1.1A.87.87,0,0,1,64.12,9.57ZM62.5,11a.45.45,0,0,1,0-.6.37.37,0,0,1,.55,0,.45.45,0,0,1,0,.6A.37.37,0,0,1,62.5,11Zm8.83-2.41a.39.39,0,0,1,.28-.46.37.37,0,0,1,.43.31.39.39,0,0,1-.28.47A.37.37,0,0,1,71.33,8.59Zm7.29-2.28a.65.65,0,0,1,.25-.84.56.56,0,0,1,.78.28.65.65,0,0,1-.25.84A.56.56,0,0,1,78.61,6.31Zm-3.45,2a.6.6,0,0,1-.34-.73.52.52,0,0,1,.67-.37.6.6,0,0,1,.34.73A.52.52,0,0,1,75.16,8.29ZM36.68,10.94a.48.48,0,0,1-.13-.63.4.4,0,0,1,.58-.13.48.48,0,0,1,.12.63A.4.4,0,0,1,36.68,10.94Z" fill="#303c36" fill-rule="evenodd"/><path d="M49.1,26.48a.39.39,0,0,1-.57-.11.46.46,0,0,1,.1-.61.39.39,0,0,1,.57.11.46.46,0,0,1-.1.61m-2.93.45a.25.25,0,0,1,0-.34.21.21,0,0,1,.31,0,.25.25,0,0,1,0,.34A.21.21,0,0,1,46.17,26.93Zm5.74,1.23a.33.33,0,0,1,.07-.43.27.27,0,0,1,.4.08.33.33,0,0,1-.07.43A.27.27,0,0,1,51.91,28.16Zm2.37-1.83a.33.33,0,0,1,.28-.37.32.32,0,0,1,.34.31.33.33,0,0,1-.28.37A.32.32,0,0,1,54.28,26.33Zm.54,2.11a.4.4,0,0,1,.08-.53.33.33,0,0,1,.48.09.4.4,0,0,1-.08.53A.33.33,0,0,1,54.81,28.44Zm-11-3.61a.55.55,0,0,1,.47-.61.54.54,0,0,1,.56.51.55.55,0,0,1-.47.61A.54.54,0,0,1,43.84,24.83Zm-2.61.3a.54.54,0,0,1,.11-.71.45.45,0,0,1,.66.13.54.54,0,0,1-.11.71A.45.45,0,0,1,41.23,25.13Zm-2.87-1.64a.38.38,0,0,1,.2-.48.34.34,0,0,1,.44.23.38.38,0,0,1-.2.48A.34.34,0,0,1,38.35,23.49Zm21.47,5.57a.3.3,0,0,1,.16-.38.27.27,0,0,1,.35.18.3.3,0,0,1-.16.38A.27.27,0,0,1,59.82,29.06Zm-1.31-1.44a.48.48,0,0,1,.1-.64.4.4,0,0,1,.59.11.48.48,0,0,1-.1.64A.4.4,0,0,1,58.51,27.62Zm4.61,1.52a.53.53,0,0,1-.06-.7.43.43,0,0,1,.64-.06.53.53,0,0,1,.06.7A.43.43,0,0,1,63.11,29.14Zm3.35.81a.37.37,0,0,1,.08-.49.31.31,0,0,1,.45.09.37.37,0,0,1-.08.49A.31.31,0,0,1,66.46,30Zm.86-2.31a.31.31,0,0,1,.06-.41.26.26,0,0,1,.37.07.31.31,0,0,1-.06.41A.26.26,0,0,1,67.32,27.64Zm-3.25,2.75a.24.24,0,0,1,.13-.3.21.21,0,0,1,.28.14.24.24,0,0,1-.13.3A.21.21,0,0,1,64.07,30.39Zm6.81-1.56a.55.55,0,0,1-.06-.73.45.45,0,0,1,.67-.06.55.55,0,0,1,.06.73A.45.45,0,0,1,70.88,28.83Zm-1.09,1.85a.41.41,0,0,1,.09-.54.34.34,0,0,1,.5.1.41.41,0,0,1-.09.54A.34.34,0,0,1,69.79,30.67Zm8.36-2.51a.9.9,0,0,1,.77-1,.89.89,0,0,1,.93.85.9.9,0,0,1-.77,1A.88.88,0,0,1,78.14,28.16Zm-1.77,1.21a.45.45,0,0,1,.09-.59.37.37,0,0,1,.55.11.45.45,0,0,1-.09.59A.37.37,0,0,1,76.37,29.37Zm9-1.25a.38.38,0,0,1,.33-.43.38.38,0,0,1,.39.36.38.38,0,0,1-.33.42A.38.38,0,0,1,85.41,28.12Zm7.49-1.32a.64.64,0,0,1,.34-.8.57.57,0,0,1,.74.38.64.64,0,0,1-.34.8A.57.57,0,0,1,92.91,26.8Zm-3.65,1.52a.6.6,0,0,1-.26-.77.51.51,0,0,1,.7-.28A.6.6,0,0,1,90,28,.51.51,0,0,1,89.26,28.32ZM50.72,26a.49.49,0,0,1-.05-.64.4.4,0,0,1,.59-.05.49.49,0,0,1,.05.65A.4.4,0,0,1,50.72,26Z" fill="#303c36" fill-rule="evenodd"/></svg>