<svg id="Layer_1" data-name="Layer 1" xmlns="http://www.w3.org/2000/svg" viewBox="0 0 404.82 100"><defs><style>.cls-1{fill:#00a7ee;}.cls-2{fill:#010101;}.cls-3{fill:#1e0e00;}.cls-4{fill:#0088c6;}.cls-5{fill:#31100d;}.cls-6{fill:#031825;}.cls-7{fill:#cdcac5;}.cls-8{fill:#1a1119;}</style></defs><title>butterfly-mirror</title><g id="_Group_" data-name=" Group "><path class="cls-1" d="M358.53,42.31A39.45,39.45,0,0,1,362.92,39c8.73.12,12.44,5.68,20.27,1.61a9.76,9.76,0,0,0,.72,2c1,1.6,3.7.62,4.66,2.17.54.88-3,1.48-1.48,3.93.69,1.07,2.09,1.66,3,2.62-1.85,1.83-5,3.84-3.35,7a.86.86,0,0,1-.32,1.3c-.76.44-2.32.61-3,1-.85.53.54,3.76-.29,4.26s-3.32-1.38-5.29-.33c-.22.12-.49,0-.63-.18a7.47,7.47,0,0,0-4.36-2.08c-8.45-4.95-9.42-13-16.22-17.17.69,7.92,7.54,12.36,8.26,22.08a7.36,7.36,0,0,0-.05,4.81c.06.19.08.5-.12.65-1.82,1.3-1.1,4.3-2,4.87s-3.11-2.15-4-1.62c-.68.41-1.49,1.73-2.26,2.23l-.14.09a.87.87,0,0,1-1.17-.39c-2.13-2.88-5.33-1-7.79-.11-.49-1.21-.39-2.73-1.06-3.8-1.52-2.47-3.63.45-4.19-.42-1-1.52,1.1-3.47.11-5.09a9.82,9.82,0,0,0-1.48-1.53c7.14-5.21,3.76-11,7.52-18.8a39.55,39.55,0,0,1,5-2.42c1.07-.44,2.3-.12,3.28-.66S357.65,43.09,358.53,42.31Z"/><path class="cls-2" d="M347.38,48.61l.84-.5c-3.74,7.83-.4,13.59-7.53,18.8a9.82,9.82,0,0,1,1.48,1.53c1,1.6-1.08,3.55-.11,5.09.55.88,2.67-2,4.19.42.67,1.07.59,2.62,1.06,3.8,2.47-.85,5.69-2.78,7.79.11l.09.14a.87.87,0,0,0,1.22.17c.8-.48,1.6-1.82,2.26-2.23.85-.53,3.13,2.12,4,1.62s.22-3.57,2-4.87c.2-.14.18-.45.12-.65a7.36,7.36,0,0,1,.05-4.81c.05.74.05,1.5.05,2.3-.15,4.67,4.77,8.17,2.68,9.46-.37.22-.83.38-1.13.57-1.49.91,2.26,4.35.57,5.4s-2.83-1-4.26-.1c-.83.52-.53,1.51-1,1.79-.68.42-2.13-1.66-3.7-.68s-1.92,3.95-1.1,5.25l.71,1.13c1.55,2.45,3.35,5.17,1.2,6.5-1.16.73-1.72.19-2.22-.61-1.3-2.07.1-7.36-3.4-13-.28-.42-1.45,0-1.79-.42-2.93-3.42-4.11-.4-5.35-2.38-.84-1.34-.91-3.14-1.4-4-1-1.68-3.65,1.73-5.09-.59-1.17-1.88.57-3.77,0-4.68-.77-1.22-2.84.49-3.78-1C335.08,71,333,57.48,347.38,48.61Z"/><path class="cls-2" d="M363.73,38.49l-.81.49c8.73.12,12.44,5.68,20.27,1.61a9.76,9.76,0,0,0,.72,2c1,1.6,3.7.62,4.66,2.17.54.88-3,1.48-1.48,3.93.69,1.07,2.09,1.66,3,2.62-1.85,1.83-5,3.84-3.35,7a.86.86,0,0,1-.33,1.31c-.74.46-2.33.61-3,1-.85.53.54,3.76-.29,4.26s-3.32-1.38-5.29-.33c-.22.12-.49,0-.63-.18a7.47,7.47,0,0,0-4.36-2.08q1,.56,2.05,1.06c4.28,2,5.27,7.87,7.36,6.58.36-.24.71-.56,1-.75,1.48-.91,2.92,4,4.61,2.91s.36-2.94,1.79-3.82c.84-.52,1.6.19,2.06-.1.68-.42-.54-2.64,1-3.61s4.4,0,5.21,1.34l.71,1.13c1.53,2.46,3.19,5.29,5.34,4,1.18-.72.95-1.47.45-2.26-1.29-2.07-6.71-3.15-10.18-8.77-.27-.44.63-1.29.41-1.78-1.79-4.13,1.46-3.84.22-5.82-.83-1.31-2.46-2.18-3-3-1.08-1.68,3.15-2.5,1.7-4.82-1.18-1.88-3.65-1.17-4.21-2.07-.76-1.23,1.7-2.32.76-3.82C389.41,37.4,378.15,29.53,363.73,38.49Z"/></g><path class="cls-3" d="M358.35,50.91c1.13,2.94,1,5.77,1.34,7.4s3.23,10.48,5.6,14.09a3,3,0,0,1,.49.87l-.11.1c-1.19-.63-2.4-3.5-2.89-4.75-5.7-14.72-2.41-11.81-4.57-17.68Z"/><path class="cls-3" d="M361.1,49.15A14.83,14.83,0,0,0,364,51.5c3.85,2.44,2.55,1.19,6.56,4.95,1.88,1.84,7.43,7.12,7.49,9.28l-.14.05a3,3,0,0,1-.57-.85,11.43,11.43,0,0,0-1.51-2.21c-9.54-11.58-11-9.4-14.85-13.47Z"/><path class="cls-3" d="M357.77,49.81a4.57,4.57,0,0,1-.46,2.33c-.79,1.83-.15,11.32-4.42,10.95-.92-.1-.8-.2-1.66-1.49-1.65-2.45,1.52-4.28,1-7.68l.15,0c.52,3.44-2.62,5.33-1,7.62l.63.94c.16.22.1.26.36.36,3.56,1.29,4.07-5.46,4.23-9.18.05-1.38.7-1.7,1-3.82Z"/><path class="cls-3" d="M360.32,48.17c2,.6,2.67.2,3.91.76,3,1.3,8.78,3.82,10,.82a1.53,1.53,0,0,0,.13-.78c-1.81-4.36-4.74-1.43-8-3.69l.08-.1c2.45,1.68,4.81.4,6.64,1.64a5.38,5.38,0,0,1,1.3,1.82c.14.25.21.22.18.57-.31,2.88-3.85,2.31-6.62,1.47-3.57-1.12-3.55-1.68-5.35-1.79a4.62,4.62,0,0,1-2.29-.61Z"/><path class="cls-3" d="M341.88,70.83l-.13-.07c.49-1.61,3.18-6.77,9-11.15C344.67,64.82,343.26,69.17,341.88,70.83Z"/><path class="cls-3" d="M386.26,43.25v.15c-2.17.49-6.65-.19-14.06,2.95C378.3,43.29,384.34,42.91,386.26,43.25Z"/><path class="cls-3" d="M346.05,76.1a1.2,1.2,0,0,1-.37.57l-.13-.06a1.21,1.21,0,0,1,.16-.66c4.1-9.25,1.65-4.51,6.07-13.68C346.92,73.44,349.69,67.4,346.05,76.1Z"/><path class="cls-3" d="M389.14,49.06a1.22,1.22,0,0,1,.67.15v.15a1.21,1.21,0,0,1-.68.08c-9.21-.58-2.55-.38-15-1C384.51,48.52,378.78,48.61,389.14,49.06Z"/><path class="cls-3" d="M353.63,78.39l-.53.06c-.29-6.39.65-11.62.41-15.37C353.88,66.84,353.12,72,353.63,78.39Z"/><path class="cls-3" d="M388.16,56.75l-.28.45c-5.63-3.33-10.4-4.83-13.75-6.87C377.54,52.27,382.31,53.56,388.16,56.75Z"/><path class="cls-3" d="M357.14,68.29c1.13,5.51.66,3.39,2.12,9.53l-.45.11c-1.26-6.13-.91-4.33-1.57-8.09-1-5.78-1.62-4.31-2.38-7.83C355.57,64.85,356.63,65.45,357.14,68.29Z"/><path class="cls-3" d="M373.69,52.07c4.07,4.58.18.82,11.47,9.56l-.3.35c-4.05-3.33-8.8-7.08-8.8-7.08-1.52-1.52-1.63-2.26-3.5-3.84A8.49,8.49,0,0,1,373.69,52.07Z"/><path class="cls-3" d="M364.06,74.66a8.32,8.32,0,0,1,.85,1.66l-.12.08c-4-3.22-5.44-11.89-8.54-18.11C360.38,65.4,359,66.68,364.06,74.66Z"/><path class="cls-3" d="M381.14,66.3l-.13.07a8.34,8.34,0,0,1-1.1-1.52C375.08,57,373,57.27,368.59,50.64,372.59,55.92,380,61.5,381.14,66.3Z"/><g id="_Group_2" data-name=" Group 2"><path class="cls-4" d="M343.14,45.31c.07-.13-.22.15-.67.61A5,5,0,0,0,343.14,45.31Zm20.4-12.42c-.62.2-1,.32-.84.32S363,33.08,363.54,32.89Zm-9.21,6.94c3.66-4.23,6.13-10.37,3.14-15.74-1.56-2.86,1-5.63,2.32-8.32a3.78,3.78,0,0,0,.32.65c.62,1,1.47.72,2.4.16,4.14-2.55-2.76,3.75,5.55.35a49.58,49.58,0,0,1-2.39,4.53c1.45.15,2.55-1.28,4-.84a10.61,10.61,0,0,1-3.35,3.27c-.48.31-.37.27-.37.31a33,33,0,0,1,4-1c.84-.12,2.22-.25,2.41-.31,2.11-.63-1.89,2.66-6.17,5.27a8.55,8.55,0,0,1-1.65.79h0s13.85-4.43,9.88-2c-3.11,1.91-2.17,1.78-6.23,4.48-.06.05-1.51.46-2.92.91a15.28,15.28,0,0,0-1.7.53l1.7-.53c.33-.08.72-.17,1.13-.25.17,0,12-2.42,9.54-.88-1.75,1.08-2.94,3-4.66,4a5.32,5.32,0,0,1-1.48.64c3.62-.83,7.44-1.15,11-2.18l-.33.21c-4.36,2.7-9.06,4.28-12.22,6.23-1.65,1-3.25,2.22-4.89,3.22a15.28,15.28,0,0,1-6.32,2.45,15.22,15.22,0,0,1-5,4.53c-1.7,1-3.44,1.92-5.09,2.94-3.15,1.95-6.65,5.45-11,8.14l-.34.21c2.46-2.71,4.45-6,6.79-8.81a5.3,5.3,0,0,1-1.22,1c-1.74,1.05-4,1.27-5.7,2.35-2.5,1.57,4.91-8,5-8.09.25-.34.5-.64.72-.91.46-.47.91-.94,1.25-1.3a15.2,15.2,0,0,0-1.25,1.3c-1,1.09-2,2.17-2.12,2.22-4.22,2.42-3.66,1.65-6.79,3.59-4,2.45,6.18-7.92,6.18-7.92h0A8.52,8.52,0,0,1,337,46.21c-4.25,2.66-9,4.78-7.48,3.18.13-.14.85-1.31,1.34-2a32.75,32.75,0,0,1,2.69-3.14s0-.11-.44.19a10.67,10.67,0,0,1-4.4,1.47c.25-1.53,2-1.87,2.55-3.26a50.4,50.4,0,0,1-5.12.12c6.73-5.89-2-2.52,2.15-5.09.92-.56,1.56-1.17.92-2.19a3.79,3.79,0,0,0-.45-.57c3,0,6.62-1.05,8.49,1.61,3.51,5.08,10.12,5.58,15.54,4.19q1,.65,1.8,1.29A15.18,15.18,0,0,1,354.33,39.83Z"/><path class="cls-2" d="M338.45,45.17h0s-10.14,10.36-6.18,7.92c3.12-1.94,3.52-1.64,6.57-4.06a33.76,33.76,0,0,0,4.36-3.84c-.23.26-2.48,2.65-2.73,3-.1.11-7.51,9.63-5,8.09,1.74-1.06,4-1.28,5.7-2.35a5.3,5.3,0,0,0,1.22-1c-2.3,2.85-4.28,6.1-6.79,8.81-7,4.14-8.55-.31-11.72-3.09-1.52-1.31-3.7-1.72-4.7-3.29a28.17,28.17,0,0,0-1.31-2.5c-3.29-5.28-8.69-6.67-9.71-8.26-1.56-2.5,1.43-7.34,4.87-9.46,11.34-7,29.69-1.13,39.78,5.66-5.39,1.37-12,.86-15.54-4.19-1.85-2.66-5.45-1.65-8.49-1.61a3.79,3.79,0,0,1,.45.57c.64,1,0,1.62-.92,2.19-4.17,2.58,4.57-.79-2.15,5.09a45.85,45.85,0,0,0,5.12-.12c-.5,1.38-2.29,1.72-2.55,3.26a10.67,10.67,0,0,0,4.4-1.47c.5-.31.44-.19.44-.19a30.44,30.44,0,0,0-2.68,3.11c-.49.7-1.22,1.88-1.34,2C328,51,332.77,48.9,337,46.24A8.52,8.52,0,0,0,338.45,45.17Z"/><path class="cls-2" d="M364.57,29h0s13.85-4.43,9.88-2c-3.12,1.93-3,2.39-6.58,4.06a33.92,33.92,0,0,1-5.39,2.19c.35-.1,3.49-1.05,3.91-1.13.17,0,12-2.42,9.54-.88-1.75,1.08-2.94,3-4.66,4a5.32,5.32,0,0,1-1.48.64c3.62-.83,7.44-1.15,11-2.18,6.83-4.4,3.5-7.75,2.4-11.82-.53-2,.12-4.09-.88-5.66,0-.06-1-1.26-1.66-2.26-3.3-5.26-2.17-10.71-3.17-12.31-1.56-2.5-7.24-2-10.69.16-11.33,7-14.15,26-12.5,38,3.66-4.23,6.13-10.37,3.14-15.74-1.56-2.86,1-5.63,2.32-8.32a3.78,3.78,0,0,0,.32.65c.62,1,1.47.72,2.4.16,4.14-2.55-2.76,3.75,5.55.35a49.58,49.58,0,0,1-2.39,4.53c1.45.15,2.55-1.28,4-.84a10.61,10.61,0,0,1-3.28,3.29c-.5.31-.37.31-.37.31a30.67,30.67,0,0,1,4-1c.84-.12,2.22-.25,2.41-.31,2.11-.63-1.89,2.66-6.17,5.27A8.55,8.55,0,0,1,364.57,29Z"/></g><path class="cls-3" d="M337.72,36.18s-.91-1.08-3.22-.15c-4,1.52-1.6,1.38-4.77-1.39a2.51,2.51,0,0,0-1.57-.46V34c1.75,0,2.16.69,3.7,2.59.82.55,3.7-2.43,6-.53Z"/><path class="cls-3" d="M356.74,24.43c-.7-2.86,3.25-4.14,3.12-5.09-1-2.23-1.46-2.88-.68-4.44l.12.08c-.35.8-.28.52-.28,1.61.79,2.78,1.72,2.6.72,3.57-.8.71-2.14,1.52-2.67,2.61a2.26,2.26,0,0,0-.2,1.61Z"/><path class="cls-3" d="M331.78,36.77c-.14.07-.35.11-.43.22-1.24,1.15-.5,5.32.35,6.06,2.83,3,14.79,1.2,22.93,2.16a4.7,4.7,0,0,0,2,0h0c.7-.75.67-1.39,1.63-3.68.52-1.25,1.13-2.47,1.7-3.69,6.64-13.56,7.64-15.22,3.68-17.86-1.06-.7-2.77-1.61-3.61-.66l-.09-.11c1-1,2.56-.14,3.79.65,1.72,1.12,2.16,1.6,2.33,2.61,1.13,4.54-5.49,13.65-8.44,21-.95,2.59-1.07,1.86-5,1.76-7-.22-18.86,1.27-21.38-2.42-.38-.6-1.19-4.24-.16-5.75.26-.32.43-.28.66-.41Z"/><path class="cls-3" d="M341.26,54c9.19-9.34,9.72-5.93,15.68-8.25h0c4.86-4.42,1.79-6.24,14.39-10.34v0c-7.27,3-8.09,3.36-11.18,7.13A16.14,16.14,0,0,1,357.1,46c-4.78,2-6.55.41-12.35,5.09-.3.23-3.15,2.7-3.44,2.95Z"/><path class="cls-3" d="M355.37,46.38c-.5,1.34-4.12,1.59-4.28,4.53-.07-2.13,1.06-2.54,3.33-4,.28-.19.49-.49.85-.57Z"/><path class="cls-3" d="M358.17,44.5a1,1,0,0,1,.23-.19,15,15,0,0,0,1.59-.83c1.56-.95,2.6-1.56,4.23-.67-2.71-1.15-4.58,1.94-6,1.82Z"/><path class="cls-3" d="M357,47.72c-.94,4.53-.27,3.74-8,8.49-5.41,3.29-7.6,5.39-9.44,7.62l-.12-.09c2-2.42,4.26-4.45,9.47-7.7,7.57-4.74,6.43-3.77,7.92-8.41Z"/><path class="cls-3" d="M358.7,46.49c.93.14,1.45.22,3,.48,3.9.23,10-6.72,19.18-8.91l.05.16c-2.7.66-5.56,1.61-11,5-7.71,4.79-6.81,4.49-11.2,3.36Z"/><path class="cls-5" d="M359.6,45.35s2.58,5.48,2.58,5.48c.2.31,4.91,8.77,4,9.36s-6.75-7.4-6.94-7.7c0,0-3.57-4.64-3.57-4.69-.89-2.07-.72-4.74-1.36-6.59C355.65,42.6,358.12,43.62,359.6,45.35Z"/><path class="cls-6" d="M353.2,36.67c.22.33.13.58-.71,1.08l-.08.06-.19.12-.2.13-.08.06c-.83.52-1.08.49-1.29.15-.33-.53-.46-2.25.11-2.68S352.88,36.14,353.2,36.67Z"/><path class="cls-7" d="M350.32,36.56a.69.69,0,0,0-.22.94c.2.31.38.25.5.17a.85.85,0,0,0-.06-1l-.11-.15Z"/><path class="cls-7" d="M351.8,35.66a.7.7,0,0,1,.94.19c.22.31.08.46,0,.53a.88.88,0,0,1-.87-.5l-.09-.16Z"/><path class="cls-8" d="M352.34,37.49a1.56,1.56,0,0,1,.57-.22,3.47,3.47,0,0,1,3.55,1.84,11,11,0,0,1,1.34,4.66c.08.83-2.05,2-2.71,1.7a11.37,11.37,0,0,1-3.63-3.27,3.4,3.4,0,0,1-.15-4,1.55,1.55,0,0,1,.45-.41l.31-.16A1.13,1.13,0,0,1,352.34,37.49Z"/><path class="cls-8" d="M350.84,36.34C348,32.78,337.08,35.18,334.59,31c-.12-.24-.23-.44-.16-.57a.12.12,0,0,1,.12-.07l0,0,0,0c-.21,0-.28.49.62,1.31,3.44,3.16,14.58,1.2,15.85,4.53Z"/><path class="cls-8" d="M350.88,35.89c-.62-1.53.18-4.13,1.7-8.59.38-1.11,3-8.19,1.76-8.15-.13,0-.08.14-.07.15s-.08-.15.07-.15.23.22.28.44c.58,2.69-4.71,13.17-3.43,16.18Z"/><g id="_Group_3" data-name=" Group 3"><path class="cls-1" d="M253.1,43.33a39.18,39.18,0,0,1,4.09-3.62c8.58-.46,12.55,4.83,20,.25A9.78,9.78,0,0,0,278,41.9c1.1,1.56,3.67.38,4.71,1.85.59.87-2.85,1.69-1.2,4,.71,1,2.14,1.51,3,2.41-1.7,1.95-4.67,4.16-2.83,7.19l.09.12a.87.87,0,0,1-.3,1.19c-.73.53-2.23.74-2.88,1.21s.89,3.64,0,4.26-3.34-1.17-5.21,0a.57.57,0,0,1-.63-.14,7.25,7.25,0,0,0-4.41-1.79c-8.59-4.36-10-12.32-17-16,1.16,7.88,8.15,11.77,9.47,21.4a7.47,7.47,0,0,0,.25,4.8.57.57,0,0,1-.07.65c-1.7,1.42-.91,4.41-1.7,5s-3.19-1.92-4-1.35c-.59.46-1.32,1.85-2.05,2.37l-.14.1a.85.85,0,0,1-1.16-.32c-2.25-2.72-5.28-.59-7.65.41-.54-1.16-.54-2.69-1.27-3.71-1.65-2.33-3.57.7-4.14-.14-1-1.45.88-3.54-.22-5.09a9.62,9.62,0,0,0-1.55-1.4c6.7-5.66,3-11.17,6.23-19.25a38.92,38.92,0,0,1,4.7-2.75c1-.51,2.25-.28,3.18-.88S252.33,44.15,253.1,43.33Z"/><path class="cls-2" d="M242.63,50.3q.39-.29.79-.57c-3.22,8.08.43,13.59-6.23,19.25a9.62,9.62,0,0,1,1.55,1.4c1.1,1.54-.83,3.62.22,5.09.58.83,2.49-2.18,4.14.14.7,1,.7,2.55,1.27,3.71,2.37-1,5.38-3.14,7.65-.41a.85.85,0,0,0,1.3.22c.72-.53,1.4-1.9,2.05-2.37.81-.58,3.11,2,4,1.35s0-3.57,1.7-5c.19-.15.14-.46.07-.65a7.47,7.47,0,0,1-.25-4.8,22.22,22.22,0,0,1,.2,2.3c.18,4.66,5.17,7.83,3.22,9.24-.35.25-.79.44-1.06.64-1.39,1,2.42,4.25.91,5.34s-2.84-.79-4.18.19c-.8.57-.44,1.53-.88,1.85-.64.46-2.2-1.51-3.67-.44s-1.64,4.05-.76,5.3l.78,1.09c1.67,2.34,3.6,4.93,1.58,6.4-1.09.81-1.68.31-2.22-.45-1.39-2-.33-7.36-4.13-12.72-.3-.42-1.42.08-1.79-.29-3.09-3.23-4.07-.14-5.41-2-.9-1.27-1.06-3.07-1.62-3.86-1.14-1.61-3.48,2-5-.25-1.27-1.77.31-3.78-.3-4.64-.83-1.17-2.75.68-3.76-.75C231.92,73.43,229,60.1,242.63,50.3Z"/><path class="cls-2" d="M258,39.17q-.4.27-.78.57c8.58-.46,12.55,4.83,20,.25a9.78,9.78,0,0,0,.83,1.94c1.1,1.56,3.67.38,4.71,1.85.59.87-2.85,1.69-1.2,4,.71,1,2.14,1.51,3,2.41-1.7,1.95-4.67,4.16-2.83,7.19l.09.12a.87.87,0,0,1-.3,1.19c-.73.53-2.23.74-2.88,1.21s.89,3.64,0,4.26-3.34-1.17-5.21,0a.57.57,0,0,1-.63-.14,7.25,7.25,0,0,0-4.41-1.79c.66.32,1.35.63,2.09.92,4.32,1.66,5.66,7.47,7.61,6.06.35-.24.67-.61.95-.81,1.39-1,3.18,3.69,4.7,2.59s.18-3,1.52-4c.79-.59,1.58.07,2-.24.64-.46-.7-2.59.78-3.66s4.31-.26,5.2,1l.77,1.09c1.66,2.33,3.45,5,5.47,3.57,1.11-.78.83-1.51.29-2.26-1.39-2-6.76-2.68-10.55-8-.27-.42.53-1.33.29-1.81-2-4,1.19-3.93-.14-5.82-.9-1.3-2.52-2-3.08-2.8-1.14-1.63,2.95-2.72,1.38-4.94-1.27-1.79-3.65-.93-4.26-1.79-.83-1.17,1.52-2.42.51-3.85C283.12,36.34,271.6,29.26,258,39.17Z"/></g><path class="cls-3" d="M253.5,51.82c1.31,2.87,1.34,5.67,1.73,7.31s3.83,10.2,6.37,13.66a3,3,0,0,1,.57.84l-.1.1c-1.22-.57-2.56-3.29-3.13-4.53-6.48-14.29-3.06-11.65-5.58-17.31Z"/><path class="cls-3" d="M256.06,49.94a14.5,14.5,0,0,0,3,2.15c3.89,2.22,2.55,1,6.72,4.49,2,1.72,7.73,6.6,7.92,8.75l-.13.06a3,3,0,0,1-.6-.8,11.32,11.32,0,0,0-1.6-2.1C261.28,51.56,259.91,53.83,256,50Z"/><path class="cls-3" d="M252.87,50.83a4.63,4.63,0,0,1-.32,2.34c-.65,1.88.55,11.26-3.66,11.2-.92,0-.79-.14-1.73-1.38-1.78-2.32,1.23-4.36.52-7.72l.14,0c.75,3.39-2.22,5.48-.53,7.66l.68.89c.17.21.11.25.38.33,3.58,1,3.66-5.71,3.58-9.42,0-1.39.58-1.75.79-3.89Z"/><path class="cls-3" d="M255.2,49c2,.5,2.62,0,3.88.5,3,1.1,8.85,3.22,9.86.15a1.56,1.56,0,0,0,.08-.79c-2-4.21-4.69-1.08-8.09-3.13l.08-.12c2.5,1.52,4.74.06,6.62,1.19A5.54,5.54,0,0,1,269,48.54c.15.25.22.21.22.57-.12,2.86-3.65,2.58-6.4,1.91-3.57-.88-3.6-1.45-5.36-1.45a4.48,4.48,0,0,1-2.26-.45Z"/><path class="cls-3" d="M238.58,72.83l-.14-.06c.38-1.66,2.71-7,8.15-11.73C241,66.64,239.82,71.06,238.58,72.83Z"/><path class="cls-3" d="M280.42,42.39v.15c-2.1.63-6.53.26-13.61,3.88C272.6,43,278.5,42.18,280.42,42.39Z"/><path class="cls-3" d="M243,77.78a1.21,1.21,0,0,1-.33.57l-.14-.05a1.23,1.23,0,0,1,.11-.67c3.43-9.5,1.32-4.61,5.09-14C243.68,75.08,246,68.86,243,77.78Z"/><path class="cls-3" d="M283.6,48a1.19,1.19,0,0,1,.66.11v.14a1.18,1.18,0,0,1-.66.12c-9,0-2.55-.21-14.77,0C279,47.75,273.38,48.21,283.6,48Z"/><path class="cls-3" d="M250.58,79.55l-.52.09c-.7-6.33-.11-11.6-.57-15.33C250.07,68,249.67,73.25,250.58,79.55Z"/><path class="cls-3" d="M283.12,55.71l-.25.46c-5.76-3-10.55-4.13-13.94-5.94C272.41,51.94,277.18,52.91,283.12,55.71Z"/><path class="cls-3" d="M253.42,69.26c1.45,5.39.85,3.32,2.67,9.35l-.43.15c-1.64-6-1.18-4.26-2.07-8-1.38-5.69-1.86-4.19-2.83-7.65C251.62,65.93,252.71,66.47,253.42,69.26Z"/><path class="cls-3" d="M268.61,52c4.26,4.31.22.81,11.84,8.79l-.27.36c-4.17-3.06-9.06-6.46-9.06-6.46-1.58-1.43-1.74-2.18-3.67-3.62A8.33,8.33,0,0,1,268.61,52Z"/><path class="cls-3" d="M260.55,75.15a8.28,8.28,0,0,1,1,1.58l-.11.09c-4.1-2.94-6.1-11.51-9.49-17.48C256.39,66.16,255.1,67.53,260.55,75.15Z"/><path class="cls-3" d="M276.79,65.67l-.12.08a8.25,8.25,0,0,1-1.17-1.44c-5.24-7.49-7.23-7.1-12-13.37C267.78,55.91,275.42,61,276.79,65.67Z"/><g id="_Group_4" data-name=" Group 4"><path class="cls-4" d="M238.22,47.3c.09-.13-.2.15-.61.66C238,47.58,238.13,47.43,238.22,47.3Zm19.25-13.72c-.6.24-1,.38-.81.38A7.89,7.89,0,0,0,257.47,33.58Zm-8.19,9.69q-.26-1-.58-2.12c3.33-4.45,5.37-10.72,2.11-15.88-1.72-2.72.57-5.65,1.76-8.42a3.77,3.77,0,0,0,.35.63c.67,1,1.49.63,2.37,0,3.91-2.83-2.48,3.93,5.44,0a50.53,50.53,0,0,1-2.06,4.67c1.48,0,2.46-1.48,4-1.13a10.6,10.6,0,0,1-3,3.48c-.45.33-.34.29-.34.33a32.21,32.21,0,0,1,3.85-1.28c.85-.18,2.2-.4,2.37-.46,2-.77-1.69,2.77-5.73,5.66a8.41,8.41,0,0,1-1.57.89h0s13.28-5.34,9.56-2.67c-2.94,2.13-2,1.92-5.85,4.88-.07.06-1.48.58-2.83,1.1a15,15,0,0,0-1.65.64l1.65-.64c.33-.1.69-.22,1.1-.32.16,0,11.65-3.22,9.3-1.52-1.65,1.19-2.69,3.15-4.32,4.33a5.22,5.22,0,0,1-1.4.74c3.48-1.06,7.22-1.65,10.61-2.9l-.32.23c-4.11,3-8.62,4.86-11.59,7-1.55,1.13-3,2.4-4.59,3.53a15,15,0,0,1-6,2.88,15.18,15.18,0,0,1-4.63,4.85c-1.56,1.12-3.22,2.13-4.78,3.27-3,2.15-6.19,5.87-10.3,8.85l-.32.23c2.28-2.86,4-6.24,6.14-9.23A5.28,5.28,0,0,1,236.83,56c-1.64,1.18-3.8,1.55-5.45,2.74-2.37,1.7,4.33-8.27,4.42-8.41.23-.35.45-.66.66-.95L237.6,48a15.2,15.2,0,0,0-1.13,1.38c-.92,1.13-1.87,2.3-1.95,2.35-4,2.71-3.5,1.89-6.45,4-3.73,2.69,5.56-8.31,5.56-8.31h0a8.49,8.49,0,0,1-1.35,1.21c-4,2.94-8.51,5.36-7.14,3.66.12-.15.76-1.37,1.19-2.1A32.83,32.83,0,0,1,228.79,47s0-.1-.41.22a10.44,10.44,0,0,1-4.23,1.75c.16-1.52,1.89-2,2.31-3.4a48.06,48.06,0,0,1-5,.46c6.23-6.3-2.13-2.37,1.78-5.2.88-.64,1.45-1.29.76-2.26a3.75,3.75,0,0,0-.49-.57c3-.25,6.44-1.5,8.43,1,3.8,4.82,10.31,4.87,15.55,3.12q1,.59,1.85,1.16Z"/><path class="cls-2" d="M233.71,47.43h0s-9.29,11-5.56,8.31c2.94-2.14,3.33-1.87,6.19-4.48a33.65,33.65,0,0,0,4-4.13c-.21.28-2.27,2.81-2.5,3.16-.09.14-6.77,10.11-4.42,8.41,1.65-1.19,3.81-1.56,5.45-2.74A5.28,5.28,0,0,0,238,54.83c-2.12,3-3.88,6.37-6.14,9.23-6.58,4.6-8.39.26-11.67-2.29-1.57-1.23-3.75-1.46-4.81-3a27.85,27.85,0,0,0-1.44-2.4c-3.56-5-8.95-6.07-10-7.6-1.69-2.39.95-7.42,4.19-9.75,10.69-7.75,29.06-3.08,39.38,3-5.25,1.74-11.75,1.68-15.55-3.12-2-2.52-5.46-1.27-8.43-1a3.75,3.75,0,0,1,.49.57c.69,1,.11,1.63-.76,2.26-3.91,2.83,4.47-1.13-1.77,5.21a43.88,43.88,0,0,0,5-.46c-.42,1.41-2.14,1.85-2.31,3.4a10.44,10.44,0,0,0,4.23-1.75c.47-.35.41-.22.41-.22a30.5,30.5,0,0,0-2.45,3.28c-.44.74-1.08,2-1.19,2.1-1.35,1.7,3.15-.73,7.14-3.66A8.49,8.49,0,0,0,233.71,47.43Z"/><path class="cls-2" d="M258.21,29.59h0s13.29-5.35,9.58-2.65c-2.94,2.15-2.82,2.59-6.19,4.49A33.27,33.27,0,0,1,256.43,34c.33-.11,3.35-1.27,3.76-1.38.16,0,11.65-3.22,9.3-1.52-1.65,1.19-2.69,3.15-4.32,4.33a5.22,5.22,0,0,1-1.4.74c3.48-1.06,7.22-1.65,10.61-2.9,6.42-4.83,3-8,1.62-11.93-.65-1.91-.15-4.06-1.22-5.56,0-.06-1.1-1.19-1.78-2.16-3.56-5-2.79-10.52-3.87-12-1.68-2.38-7.22-1.47-10.47.87-10.69,7.74-12.27,26.82-9.91,38.68,3.33-4.45,5.37-10.72,2.11-15.88-1.7-2.72.57-5.65,1.77-8.43a3.77,3.77,0,0,0,.35.63c.67,1,1.49.63,2.37,0,3.91-2.83-2.48,3.93,5.44,0a50.53,50.53,0,0,1-2.06,4.67c1.48,0,2.46-1.48,4-1.13a10.6,10.6,0,0,1-3,3.5c-.47.33-.34.33-.34.33a29.94,29.94,0,0,1,3.85-1.28c.85-.18,2.2-.4,2.37-.46,2-.77-1.69,2.77-5.73,5.66A8.41,8.41,0,0,1,258.21,29.59Z"/></g><path class="cls-3" d="M232.35,38.6s-1-1-3.17.06c-3.79,1.76-1.52,1.48-4.77-1.07a2.43,2.43,0,0,0-1.57-.36v-.14c1.72-.1,2.16.54,3.79,2.34.84.49,3.46-2.68,5.82-.93Z"/><path class="cls-3" d="M250.27,25.6c-.87-2.81,2.93-4.35,2.75-5.29-1.16-2.16-1.61-2.77-.95-4.38l.12.07c-.28.82-.23.53-.17,1.62.93,2.72,1.86,2.48.93,3.52-.75.77-2,1.65-2.45,2.78a2.26,2.26,0,0,0-.1,1.62Z"/><path class="cls-3" d="M226.45,39.59c-.13.09-.33.14-.41.25-1.13,1.23-.15,5.34.74,6,3,2.85,14.6.21,22.64.62a4.56,4.56,0,0,0,2-.15h0c.63-.82.57-1.44,1.37-3.79.45-1.27.93-2.53,1.44-3.78,5.68-14,6.55-15.67,2.51-18.05-1.08-.63-2.81-1.44-3.58-.42l-.1-.1c.93-1,2.51-.31,3.76.39,1.78,1,2.24,1.44,2.47,2.45,1.42,4.47-4.49,14-7,21.51-.76,2.64-1,1.91-4.83,2.08-6.91.27-18.4,2.54-21.11-1-.41-.57-1.43-4.14-.51-5.71.24-.36.4-.33.62-.48Z"/><path class="cls-3" d="M237,56.08c8.45-9.91,9.18-6.57,14.88-9.26h0c4.48-4.73,1.36-6.36,13.45-11.26v0c-7,3.53-7.74,3.87-10.53,7.83A15.68,15.68,0,0,1,252,47c-4.58,2.28-6.38.85-11.8,5.9-.28.24-2.93,2.89-3.19,3.16Z"/><path class="cls-3" d="M250.32,47.58c-.41,1.34-3.92,1.84-3.92,4.78-.23-2.12.88-2.56,3-4.26.29-.21.45-.52.8-.63Z"/><path class="cls-3" d="M252.94,45.44a1,1,0,0,1,.21-.2,14.8,14.8,0,0,0,1.47-.91c1.48-1,2.45-1.73,4.11-1-2.73-1-4.38,2.25-5.73,2.21Z"/><path class="cls-3" d="M252,48.73c-.63,4.57,0,3.76-7.3,9-5.12,3.66-7.14,5.89-8.8,8.22l-.12-.08c1.82-2.54,3.91-4.7,8.81-8.28,7.14-5.21,6.08-4.17,7.26-8.89Z"/><path class="cls-3" d="M253.55,47.45c.92.08,1.44.11,3,.28,3.83,0,9.44-7.36,18.29-10.13l0,.14c-2.6.81-5.37,2-10.52,5.77-7.24,5.29-6.38,4.93-10.75,4.09Z"/><path class="cls-5" d="M254.38,46.23s2.88,5.29,2.88,5.29c.2.28,5.34,8.41,4.45,9.06s-7.09-6.93-7.29-7.21c0,0-3.78-4.38-3.78-4.43-1-2-1-4.68-1.75-6.48C250.33,43.77,252.83,44.63,254.38,46.23Z"/><path class="cls-6" d="M247.57,38c.23.33.16.57-.63,1.13l-.08.06-.18.14-.19.13-.08.06c-.8.58-1,.57-1.26.24-.36-.5-.57-2.21-.06-2.67S247.21,37.52,247.57,38Z"/><path class="cls-7" d="M244.74,38.12a.7.7,0,0,0-.15.94c.2.29.38.22.5.14a.87.87,0,0,0-.12-1l-.11-.15Z"/><path class="cls-7" d="M246.15,37.1a.68.68,0,0,1,.93.15c.21.29.08.44,0,.52s-.57,0-.88-.44l-.1-.16Z"/><path class="cls-8" d="M246.75,38.91a1.53,1.53,0,0,1,.57-.25,3.37,3.37,0,0,1,3.6,1.59,11.19,11.19,0,0,1,1.6,4.58c.14.83-1.88,2.18-2.55,1.88a11.44,11.44,0,0,1-3.77-3,3.55,3.55,0,0,1-.4-4,1.55,1.55,0,0,1,.42-.44l.28-.19C246.62,39,246.69,39,246.75,38.91Z"/><path class="cls-8" d="M245.23,37.87c-3-3.36-13.57-.23-16.27-4.19-.13-.2-.25-.4-.19-.53a.12.12,0,0,1,.12-.08h0c-.2,0-.24.5.69,1.26,3.55,2.86,14.37.2,15.82,3.42Z"/><path class="cls-8" d="M245.23,37.4c-.67-1.51-.1-4.14,1.13-8.67.31-1.13,2.44-8.36,1.23-8.24-.14.06-.1.14-.06.16s-.08-.14.06-.16.24.2.31.42c.74,2.65-3.8,13.43-2.36,16.35Z"/><g id="_Group_5" data-name=" Group 5"><path class="cls-1" d="M146.24,43.76a32.83,32.83,0,0,1,3.63-3.49c8.22-.36,12.45,4.85,19.25.49a10.71,10.71,0,0,0,1,1.9c1.18,1.55,3.54.4,4.68,1.85.65.8-2.58,1.61-.82,3.88.78,1,2.18,1.49,3.13,2.38-1.48,1.9-4.15,4-2.15,7,.4.59.28,1-.1,1.28-.66.48-2.1.69-2.67,1.13-.72.58,1.12,3.55.32,4.17s-3.3-1.16-5,0c-.19.11-.46,0-.62-.16a7.57,7.57,0,0,0-4.38-1.79c-8.61-4.35-10.62-12.13-17.61-15.76,1.78,7.68,8.79,11.58,10.83,21a7.57,7.57,0,0,0,.63,4.69.53.53,0,0,1,0,.63c-1.51,1.36-.44,4.23-1.23,4.85s-3.24-1.93-4-1.36c-.57.41-1.13,1.75-1.78,2.26-.37.29-.79.35-1.27-.22-2.37-2.69-5.11-.64-7.3.32-.62-1.14-.74-2.63-1.52-3.63-1.75-2.29-3.32.64-4-.18-1.13-1.45.56-3.46-.62-5a10.71,10.71,0,0,0-1.6-1.4c5.95-5.43,2-10.85,4.39-18.68a32.83,32.83,0,0,1,4.29-2.64c.95-.49,2.14-.26,3-.83S145.6,44.51,146.24,43.76Z"/><path class="cls-2" d="M136.79,50.32l.72-.54c-2.41,7.82,1.56,13.24-4.39,18.68a10.71,10.71,0,0,1,1.6,1.4c1.19,1.53-.51,3.53.62,5,.61.82,2.21-2.08,4,.18.77,1,.89,2.5,1.52,3.63,2.21-.95,4.92-3,7.3-.32.48.54.89.51,1.27.22.65-.48,1.22-1.82,1.78-2.26.75-.55,3.16,2,4,1.36s-.29-3.48,1.23-4.85c.15-.15.08-.45,0-.63a7.57,7.57,0,0,1-.63-4.69,19.41,19.41,0,0,1,.37,2.26c.54,4.56,5.62,7.69,3.84,9.06-.29.24-.71.42-1,.62-1.26,1,2.75,4.09,1.3,5.22s-2.79-.78-4,.15c-.71.55-.29,1.49-.68,1.8-.57.45-2.22-1.51-3.56-.46s-1.25,4-.3,5.18l.83,1.07c1.78,2.3,3.86,4.85,2,6.26-1,.78-1.62.27-2.18-.46-1.52-2-.95-7.18-5-12.45-.32-.41-1.35.07-1.74-.31-3.2-3.15-3.89-.15-5.33-2-1-1.26-1.27-3-1.87-3.78-1.22-1.58-3.16,1.88-4.86-.3-1.37-1.75,0-3.68-.66-4.53-.89-1.15-2.59.64-3.68-.77C128.4,72.9,124.51,59.86,136.79,50.32Z"/><path class="cls-2" d="M150.63,39.66l-.72.57c8.19-.36,12.44,4.85,19.17.46a10.71,10.71,0,0,0,1,1.9c1.18,1.55,3.54.4,4.68,1.85.65.8-2.58,1.61-.82,3.88.78,1,2.18,1.49,3.13,2.38-1.48,1.9-4.15,4-2.15,7,.4.59.28,1-.1,1.28-.66.48-2.1.69-2.67,1.13-.72.58,1.12,3.55.32,4.17s-3.3-1.16-5,0c-.19.11-.46,0-.62-.16a7.57,7.57,0,0,0-4.38-1.79,18.44,18.44,0,0,0,2.1.93c4.27,1.66,6,7.36,7.79,6,.31-.22.58-.59.84-.78,1.25-1,3.28,3.71,4.73,2.58s-.08-2.9,1.13-3.83c.71-.55,1.52.1,1.91-.2.57-.45-.91-2.54.45-3.57s4.15-.21,5.09,1l.83,1.08c1.75,2.29,3.7,4.95,5.52,3.54,1-.78.66-1.5.1-2.23-1.47-1.94-6.68-2.69-10.75-8-.32-.41.41-1.29.14-1.75-2.24-3.89.82-3.8-.62-5.66-1-1.26-2.59-2-3.19-2.77-1.22-1.57,2.63-2.6.93-4.78-1.35-1.78-3.56-.93-4.22-1.78-.89-1.15,1.27-2.34.18-3.75C174.52,37.21,162.88,30.2,150.63,39.66Z"/></g><path class="cls-3" d="M147.35,52c1.48,2.82,1.74,5.57,2.26,7.15s4.52,10,7.24,13.38a3.29,3.29,0,0,1,.61.82l-.09.1c-1.23-.55-2.76-3.27-3.4-4.46-7.38-14-3.92-11.38-6.75-16.94Z"/><path class="cls-3" d="M149.64,50.2a15.89,15.89,0,0,0,3,2.12c4,2.18,2.55,1,6.84,4.45,2,1.69,8,6.52,8.33,8.62l-.12.06a3.29,3.29,0,0,1-.65-.79,12.64,12.64,0,0,0-1.7-2.07c-10.56-10.73-11.65-8.52-15.79-12.28Z"/><path class="cls-3" d="M146.69,51a4.47,4.47,0,0,1-.12,2.3c-.47,1.83,1.46,11-2.6,10.89-.88,0-.78-.15-1.77-1.36-1.9-2.28.82-4.24-.13-7.52l.12,0c1,3.32-1.71,5.33.12,7.47l.72.88c.18.2.12.25.38.32,3.52,1,3.05-5.55,2.67-9.15-.13-1.34.44-1.69.44-3.77Z"/><path class="cls-3" d="M148.8,49.27c2,.49,2.52.05,3.76.52,3,1.1,8.76,3.22,9.48.24a1.52,1.52,0,0,0,0-.76c-2.29-4.13-4.64-1.1-8-3.14l.07-.12c2.53,1.5,4.56.1,6.45,1.23a6.07,6.07,0,0,1,1.48,1.7c.17.26.25.22.25.57.11,2.79-3.29,2.48-6,1.79-3.5-.88-3.57-1.44-5.26-1.44a4.47,4.47,0,0,1-2.22-.46Z"/><path class="cls-3" d="M134.75,72.35l-.14,0c.22-1.62,2-6.79,6.86-11.37C136.51,66.35,135.79,70.66,134.75,72.35Z"/><path class="cls-3" d="M172.43,43.08v.14c-2,.59-6.25.19-12.75,3.65C165,43.58,170.55,42.86,172.43,43.08Z"/><path class="cls-3" d="M139.38,77.19a1,1,0,0,1-.27.59l-.14,0a1.18,1.18,0,0,1,.06-.65c2.54-9.23.93-4.49,3.76-13.64C139.83,74.61,141.57,68.58,139.38,77.19Z"/><path class="cls-3" d="M175.89,48.55a1.18,1.18,0,0,1,.65.11v.14a1,1,0,0,1-.61.12c-8.67-.05-2.45-.23-14.15-.15C171.51,48.31,166.14,48.68,175.89,48.55Z"/><path class="cls-3" d="M146.79,79.06l-.49.08c-1.17-6.19-1-11.33-1.78-15C145.39,67.8,145.42,72.89,146.79,79.06Z"/><path class="cls-3" d="M176.06,56.1l-.2.45c-5.73-2.93-10.44-4.12-13.83-5.93C165.51,52.33,170.15,53.32,176.06,56.1Z"/><path class="cls-3" d="M148.69,69c1.85,5.26,1.1,3.25,3.33,9.15l-.4.14c-2.06-5.89-1.49-4.17-2.63-7.78-1.79-5.58-2.14-4.1-3.35-7.49C146.7,65.77,147.78,66.31,148.69,69Z"/><path class="cls-3" d="M161.88,52.33c4.44,4.25.27.77,12.07,8.69l-.24.36c-4.25-3-9.23-6.39-9.23-6.39-1.64-1.41-1.85-2.15-3.82-3.57A9.16,9.16,0,0,1,161.88,52.33Z"/><path class="cls-3" d="M156,74.85a9.2,9.2,0,0,1,1.05,1.56l-.1.08c-4.18-2.92-6.76-11.29-10.53-17.15C151.28,66,150.17,67.36,156,74.85Z"/><path class="cls-3" d="M170.85,65.77l-.11.08a9.2,9.2,0,0,1-1.24-1.42c-5.64-7.36-7.51-7-12.6-13.17C161.39,56.15,169.15,61.17,170.85,65.77Z"/><g id="_Group_6" data-name=" Group 6"><path class="cls-4" d="M132.33,47.48c0-.12-.18.14-.54.63A5.56,5.56,0,0,0,132.33,47.48Zm17.34-13.19c-.55.23-.89.36-.75.36S149.24,34.47,149.67,34.28Zm-7,9.3q-.34-1-.68-2.07c2.83-4.31,4.28-10.38.72-15.48-1.87-2.68.09-5.52,1-8.21a4.18,4.18,0,0,0,.38.62c.74.94,1.47.61,2.26,0,3.55-2.73-2,3.79,5.25,0A44.45,44.45,0,0,1,150,23c1.43.09,2.22-1.42,3.69-1a9,9,0,0,1-2.6,3.4c-.4.32-.3.28-.3.32a28,28,0,0,1,3.59-1.21c.78-.17,2.05-.37,2.21-.43,1.88-.72-1.42,2.69-5,5.47a7.11,7.11,0,0,1-1.43.86h0s12.31-5.09,9-2.5c-2.65,2.07-1.79,1.88-5.22,4.72,0,.07-1.35.57-2.6,1.06a12.89,12.89,0,0,0-1.53.63l1.46-.57q.47-.17,1-.32c.17-.06,10.92-3.05,8.77-1.44-1.48,1.15-2.34,3.05-3.79,4.18a4.44,4.44,0,0,1-1.29.71c3.25-1,6.79-1.54,10-2.73l-.28.23c-3.7,2.86-7.88,4.66-10.56,6.73-1.4,1.09-2.73,2.32-4.13,3.4a12.81,12.81,0,0,1-5.55,2.75,12.81,12.81,0,0,1-4,4.68C139.9,53,138.38,54,137,55c-2.68,2.07-5.47,5.66-9.17,8.52l-.29.22c1.94-2.75,3.35-6.06,5.14-8.95a4.44,4.44,0,0,1-1,1.07c-1.47,1.13-3.54,1.49-5,2.62-2.11,1.64,3.48-8,3.55-8.17.2-.35.39-.65.57-.92l1-1.33a12.9,12.9,0,0,0-.95,1.36c-.82,1.08-1.62,2.21-1.7,2.26-3.59,2.59-3.2,1.81-5.86,3.87-3.35,2.59,4.66-8.05,4.66-8.05h0a7.11,7.11,0,0,1-1.21,1.18c-3.59,2.82-7.74,5.15-6.56,3.5.1-.14.62-1.32,1-2A28,28,0,0,1,123.18,47s0-.1-.38.22a9,9,0,0,1-3.93,1.7c0-1.51,1.66-1.94,1.94-3.32-1.57.05-3.2.5-4.78.41,5.46-6.08-2.24-2.33,1.28-5.06.8-.61,1.3-1.24.57-2.2a4.18,4.18,0,0,0-.5-.53c2.83-.22,6.07-1.4,8.19,1.09,4,4.71,10.27,4.88,15.16,3.18q1,.57,1.86,1.13Z"/><path class="cls-2" d="M128,47.53h0s-8,10.65-4.66,8.05c2.67-2,3-1.79,5.58-4.31a28.34,28.34,0,0,0,3.54-4c-.17.27-1.95,2.71-2.14,3.06-.09.11-5.66,9.78-3.56,8.14,1.49-1.18,3.54-1.49,5-2.62a4.44,4.44,0,0,0,1-1.07c-1.79,2.9-3.19,6.18-5.14,8.95-6,4.44-8.05.17-11.41-2.35-1.61-1.23-3.73-1.47-4.86-2.93,0-.06-.85-1.4-1.58-2.35-3.83-4.95-9.11-6-10.24-7.51-1.81-2.34.32-7.21,3.23-9.47,9.63-7.45,27.63-2.74,38,3.3-4.89,1.66-11.15,1.53-15.16-3.18-2.12-2.47-5.36-1.3-8.19-1.09a4.18,4.18,0,0,1,.5.53c.72,1,.23,1.58-.57,2.2-3.55,2.74,4.17-1-1.28,5.06a45.84,45.84,0,0,0,4.78-.41c-.29,1.4-1.91,1.81-1.94,3.32a9,9,0,0,0,3.93-1.7c.41-.33.38-.22.38-.22a26,26,0,0,0-2.07,3.19c-.36.71-.87,1.9-1,2-1.17,1.65,3-.67,6.56-3.5A7.11,7.11,0,0,0,128,47.53Z"/><path class="cls-2" d="M150.1,30.39h0s12.31-5.09,9-2.5c-2.66,2.05-2.5,2.5-5.57,4.32a28.34,28.34,0,0,1-4.72,2.4c.31-.1,3.12-1.2,3.5-1.3.15,0,10.91-3,8.8-1.39-1.48,1.15-2.34,3.05-3.79,4.18a4.44,4.44,0,0,1-1.29.71c3.25-1,6.79-1.54,10-2.73,5.76-4.65,2.17-7.75.57-11.63-.78-1.86-.49-4-1.62-5.44A27.76,27.76,0,0,1,163,14.9c-3.82-5-3.53-10.31-4.72-11.77-1.81-2.34-7.08-1.52-10,.75-9.63,7.44-9.59,26.06-6.36,37.64,2.83-4.31,4.28-10.38.72-15.48-1.87-2.68.09-5.52,1-8.21a4.18,4.18,0,0,0,.38.62c.74.94,1.47.61,2.26,0,3.55-2.73-2,3.79,5.25,0A44.45,44.45,0,0,1,150,23c1.43.09,2.22-1.42,3.69-1a9,9,0,0,1-2.6,3.4c-.42.32-.3.32-.3.32a26,26,0,0,1,3.59-1.21c.78-.17,2.05-.37,2.21-.43,1.88-.72-1.42,2.69-5,5.47A7.11,7.11,0,0,1,150.1,30.39Z"/></g><path class="cls-3" d="M128.13,42.5s-1.17-.83-3,.5c-3.18,2.22-1.09,1.61-4.78-.36a2.45,2.45,0,0,0-1.57-.15l-.06-.14c1.6-.33,2.18.22,4.14,1.7.91.34,2.67-3,5.31-1.7Z"/><path class="cls-3" d="M142.11,26.37c-1.06-2.71,2.46-4.18,2.21-5.09-1.25-2.11-1.75-2.72-1.25-4.28l.13.07c-.21.79-.18.52,0,1.57,1.1,2.66,2,2.43,1.17,3.44-.64.74-1.78,1.61-2.12,2.69a2.26,2.26,0,0,0,0,1.58Z"/><path class="cls-3" d="M120.46,39.76c-.12.08-.31.13-.37.24-1,1.18.28,5.2,1.18,5.88,3.08,2.83,14,.37,21.76.85a4.22,4.22,0,0,0,1.88-.11h0c.54-.78.44-1.41,1-3.67.32-1.25.69-2.46,1.08-3.68,4.35-13.56,5-15.23,1-17.58-1.09-.62-2.82-1.42-3.48-.44l-.1-.1c.81-1,2.37-.28,3.64.41,1.75,1,2.25,1.43,2.55,2.4,1.69,4.35-3.2,13.54-5,20.9-.5,2.55-.76,1.86-4.47,2-6.61.22-17.45,2.32-20.34-1.13-.44-.57-1.7-4.06-1-5.58.21-.33.37-.31.57-.44Z"/><path class="cls-3" d="M131.82,56c7.29-9.59,8.26-6.32,13.51-8.89h0c3.92-4.57.8-6.18,12-10.86v0c-6.39,3.36-7.1,3.7-9.46,7.53a13.59,13.59,0,0,1-2.37,3.49c-4.2,2.19-6.09.79-10.83,5.66-.24.23-2.57,2.8-2.8,3.06Z"/><path class="cls-3" d="M143.94,47.85c-.31,1.32-3.66,1.75-3.4,4.62-.38-2.07.66-2.5,2.55-4.12.29-.2.41-.5.74-.6Z"/><path class="cls-3" d="M146.32,45.83a.85.85,0,0,1,.19-.19,12.45,12.45,0,0,0,1.34-.89c1.34-1,2.21-1.66,3.86-.88-2.69-1-4,2.16-5.32,2.1Z"/><path class="cls-3" d="M145.65,49c-.27,4.45.24,3.67-6.3,8.71-4.6,3.5-6.36,5.69-7.77,8l-.12-.08c1.55-2.44,3.36-4.54,7.78-8,6.45-5,5.52-4,6.27-8.59Z"/><path class="cls-3" d="M147.09,47.76c.86.07,1.36.12,2.83.29,3.67,0,8.46-7.08,16.72-9.7l0,.14c-2.43.76-5,1.87-9.62,5.52-6.54,5.09-5.74,4.75-10,3.88Z"/><path class="cls-5" d="M147.73,46.61s3.19,5.19,3.19,5.19c.22.26,5.79,8.24,5,8.86s-7.36-6.83-7.57-7.11c0,0-3.93-4.31-4-4.36-1.14-2-1.35-4.57-2.21-6.33C143.68,44.15,146.14,45,147.73,46.61Z"/><path class="cls-6" d="M140.53,38.49c.28.33.22.53-.5,1.1l-.07.06-.16.14-.17.12-.07.06c-.69.56-.94.55-1.19.22-.38-.49-.74-2.14-.28-2.6S140.15,38,140.53,38.49Z"/><path class="cls-7" d="M137.83,38.59a.67.67,0,0,0-.08.91c.23.28.38.21.49.12s.14-.53-.2-1l-.12-.14Z"/><path class="cls-7" d="M139.12,37.59a.67.67,0,0,1,.9.15c.22.29.11.43,0,.51s-.54,0-.88-.44l-.11-.15Z"/><path class="cls-8" d="M139.83,39.34a1.31,1.31,0,0,1,.5-.25,3.52,3.52,0,0,1,3.58,1.59,12.07,12.07,0,0,1,1.91,4.48c.2.82-1.63,2.11-2.29,1.81a12.51,12.51,0,0,1-3.86-3,3.53,3.53,0,0,1-.7-3.86,1.31,1.31,0,0,1,.37-.42l.26-.18Z"/><path class="cls-8" d="M138.28,38.32c-3.14-3.33-13.05-.37-16-4.25-.14-.2-.27-.38-.23-.52a.11.11,0,0,1,.11-.08h0c-.2,0-.21.49.76,1.25,3.66,2.84,13.81.33,15.46,3.5Z"/><path class="cls-8" d="M138.27,37.87c-.78-1.46-.45-4,.35-8.42.2-1.12,1.64-8.15.51-8-.12.05,0,.14,0,.15s-.1-.13,0-.15.25.2.33.41c.92,2.59-2.55,13.1-.93,15.93Z"/><g id="_Group_7" data-name=" Group 7"><path class="cls-1" d="M41.12,43.47a20.8,20.8,0,0,1,2.7-2.94c7.12.27,11.48,5.37,16.82,1.84a13.25,13.25,0,0,0,1.08,1.82c1.22,1.49,3.14.64,4.31,2.06.66.84-2.05,1.26-.22,3.53.8,1,2.09,1.54,3,2.43-1,1.62-3.11,3.37-1,6.26.43.61.36.93.07,1.17-.48.42-1.74.5-2.18.85s1.43,3.33.82,3.84-3-1.31-4.36-.41c-.15.11-.41,0-.57-.17a8.19,8.19,0,0,0-4-2C49.54,57.14,46.8,49.84,40.24,46c2.48,7.18,9.12,11.3,12.1,20.11a8.19,8.19,0,0,0,1.13,4.35c.07.16.2.44.07.57-1.15,1.13.09,3.91-.45,4.35s-3-2-3.61-1.55-.75,1.55-1.26,2c-.29.27-.65.24-1.13-.3-2.42-2.65-4.53-1-6.33-.27-.68-1.1-1-2.47-1.78-3.45-1.83-2.24-2.84.33-3.5-.47-1.17-1.42.05-3.14-1.17-4.63a13.25,13.25,0,0,0-1.57-1.41c4.5-4.55.32-9.83,1.45-16.84a20.8,20.8,0,0,1,3.4-2.09c.76-.37,1.83-.07,2.5-.53S40.57,44.1,41.12,43.47Z"/><path class="cls-2" d="M33.56,48.8l.57-.42c-1.11,7,3,12.31-1.45,16.84a13.25,13.25,0,0,1,1.57,1.41c1.22,1.49,0,3.21,1.17,4.63.67.8,1.66-1.79,3.5.47.78,1,1.1,2.36,1.78,3.45,1.8-.71,3.91-2.39,6.33.27.47.53.84.54,1.13.3.52-.43.83-1.62,1.26-2s3,2.05,3.61,1.55-.68-3.22.45-4.35c.12-.11,0-.4-.07-.57a8.19,8.19,0,0,1-1.13-4.35q.34,1,.61,2.09c1,4.22,5.87,7.47,4.5,8.6-.22.2-.55.34-.75.5-1,.79,2.85,4,1.8,4.9S55.92,81.2,55,82c-.55.47-.06,1.35-.36,1.6s-2.14-1.53-3.16-.69-.58,3.52.4,4.72l.86,1c1.85,2.25,4,4.77,2.58,5.9-.77.62-1.36.12-2-.61-1.55-1.89-1.71-6.65-5.94-11.8-.33-.41-1.18,0-1.56-.41-3.22-3.15-3.42-.45-4.91-2.26-1-1.23-1.49-2.84-2.11-3.62-1.27-1.54-2.54,1.48-4.28-.64-1.39-1.73-.44-3.42-1.13-4.23-.92-1.13-2.17.39-3.3-1C29.19,68.87,24.15,56.6,33.56,48.8Z"/><path class="cls-2" d="M44.39,40.05l-.54.46c7.12.27,11.48,5.37,16.79,1.79a13.25,13.25,0,0,0,1.08,1.82c1.22,1.49,3.14.64,4.31,2.06.66.84-2.05,1.26-.22,3.53.8,1,2.09,1.54,3,2.43-1,1.62-3.11,3.37-1,6.26.43.61.36.93.07,1.17-.48.42-1.74.5-2.18.85s1.43,3.33.82,3.84-3-1.31-4.36-.41c-.15.11-.41,0-.57-.17a8.19,8.19,0,0,0-4-2c.62.36,1.25.69,1.93,1,4,1.87,6.21,7.24,7.58,6.11.24-.19.44-.5.63-.66,1-.8,3.4,3.59,4.45,2.72s-.46-2.67.48-3.44c.55-.45,1.34.21,1.64,0s-1.07-2.39-.06-3.24,3.55.12,4.53,1.31l.84,1.06c1.85,2.25,3.88,4.81,5.29,3.68.78-.63.4-1.31-.2-2-1.55-1.91-6.18-3-10.41-8.13-.32-.4.2-1.15-.09-1.6-2.47-3.76.23-3.44-1.26-5.26-1-1.21-2.52-2-3.14-2.76-1.26-1.54,1.95-2.2.2-4.32-1.41-1.72-3.23-1.15-3.92-2-.9-1.13.8-2.06-.33-3.44C64.86,39.62,53.82,32.26,44.39,40.05Z"/></g><path class="cls-3" d="M43,51.14a39.64,39.64,0,0,1,2.87,6.74,84.69,84.69,0,0,0,8,12.84,4.15,4.15,0,0,1,.63.79l-.06.08c-1.13-.59-2.8-3.22-3.51-4.35-8.2-13.42-4.83-10.74-8-16.07Z"/><path class="cls-3" d="M44.81,49.68a19.08,19.08,0,0,0,2.9,2.17c3.7,2.31,2.35,1.12,6.53,4.61C56.23,58.15,62,63,62.58,65l-.1,0a4.15,4.15,0,0,1-.66-.8,16,16,0,0,0-1.74-2c-10.56-10.68-11.24-8.74-15.32-12.5Z"/><path class="cls-3" d="M42.32,50.17a4.35,4.35,0,0,1,.19,2.08c-.18,1.64,2.65,10.21-.88,9.8-.75-.11-.68-.2-1.7-1.38-1.94-2.24.18-3.83-1.07-6.92H39c1.27,3.1-.8,4.74,1.06,6.85l.74.87c.18.2.14.25.38.33,3.21,1.25,2-4.85,1.17-8.2-.31-1.25.13-1.53-.11-3.44Z"/><path class="cls-3" d="M44,48.76c1.77.59,2.19.23,3.32.76,2.72,1.24,8,3.63,8.29.95a1.51,1.51,0,0,0-.09-.7c-2.52-4-4.18-1.38-7.41-3.5l0-.1c2.38,1.57,4,.49,5.78,1.62a7.76,7.76,0,0,1,1.51,1.66c.18.24.23.22.29.53.46,2.58-2.54,2-5,1.2-3.22-1.11-3.32-1.6-4.79-1.74a4.35,4.35,0,0,1-2-.59Z"/><path class="cls-3" d="M34.67,68.83l-.13,0a16.44,16.44,0,0,1,4.53-9.92C35.42,63.47,35.35,67.36,34.67,68.83Z"/><path class="cls-3" d="M63.77,44.83l0,.13c-1.64.4-5.43-.31-10.65,2.38A16.81,16.81,0,0,1,63.77,44.83Z"/><path class="cls-3" d="M39.31,73.64a.76.76,0,0,1-.16.51l-.14,0a1.13,1.13,0,0,1,0-.6c1-8.27.22-4,1.55-12.23C39.36,71.32,40.12,65.9,39.31,73.64Z"/><path class="cls-3" d="M67.52,50.11a1.13,1.13,0,0,1,.57.15l0,.14a.76.76,0,0,1-.53.06c-7.59-.71-2.19-.4-12.38-1.22C63.65,49.57,59,49.51,67.52,50.11Z"/><path class="cls-3" d="M46,75.93l-.41,0c-1.81-5.77-2.32-10.49-3.45-13.89C43.35,65.48,44,70.19,46,75.93Z"/><path class="cls-3" d="M68.59,57.07l-.12.4c-5.36-3.1-9.59-4.57-12.8-6.49C58.93,52.8,63.1,54.07,68.59,57.07Z"/><path class="cls-3" d="M46.38,66.86c2.27,5,1.37,3.07,4.06,8.66l-.33.1c-2.55-5.58-1.83-4-3.28-7.36C44.58,63,44.45,64.33,43,61.13,44.25,63.72,45.25,64.29,46.38,66.86Z"/><path class="cls-3" d="M55.76,52.55c4.42,4.22.37.71,11.64,8.86l-.16.31c-4.1-3.09-8.86-6.57-8.86-6.57-1.61-1.41-1.87-2.09-3.79-3.55A11.13,11.13,0,0,1,55.76,52.55Z"/><path class="cls-3" d="M53.49,72.74a11.58,11.58,0,0,1,1.13,1.53l-.07.07c-4-3-7.34-10.9-11.37-16.56C48.27,64.31,47.46,65.44,53.49,72.74Z"/><path class="cls-3" d="M65.28,65.53l-.08.06a11.59,11.59,0,0,1-1.26-1.39c-5.87-7.19-7.44-7-12.66-13.05C55.81,56,63.2,61.2,65.28,65.53Z"/><g id="_Group_8" data-name=" Group 8"><path class="cls-4" d="M29.35,45.81c0-.12-.13.12-.38.54A5.66,5.66,0,0,0,29.35,45.81ZM42.82,35c-.45.16-.72.27-.61.27A5.66,5.66,0,0,0,42.82,35Zm-4.94,8q-.42-1-.79-1.95a13.15,13.15,0,0,0-1.34-14.15c-2-2.6-.62-5.06-.16-7.46A5.25,5.25,0,0,0,36,20a1.19,1.19,0,0,0,2,.19c2.73-2.24-1.31,3.35,4.56.43a37.11,37.11,0,0,1-.82,4c1.23.17,1.76-1.09,3.09-.68A6,6,0,0,1,43,26.93c-.31.27-.22.27-.22.27a19.15,19.15,0,0,1,3-.85c.62-.1,1.72-.19,1.85-.23,1.55-.52-.87,2.38-3.7,4.64a4.53,4.53,0,0,1-1.21.7h0s10.1-3.76,7.5-1.61c-2.08,1.66-1.35,1.56-4,3.92,0,0-1.12.41-2.15.76a8.62,8.62,0,0,0-1.26.44l1.26-.44c.25-.07.54-.13.85-.2.14-.06,9.14-2,7.5-.62-1.14.94-1.64,2.62-2.77,3.55a2.83,2.83,0,0,1-1,.57c2.71-.67,5.69-.9,8.33-1.74l-.22.19c-2.85,2.35-6.27,3.68-8.34,5.38-1.08.91-2.08,1.94-3.16,2.83a8.37,8.37,0,0,1-4.49,2.09,8.37,8.37,0,0,1-2.89,4c-1.1.91-2.31,1.66-3.4,2.56-2.07,1.7-4,4.79-6.9,7.14l-.22.18c1.35-2.42,2.16-5.33,3.35-7.85a2.83,2.83,0,0,1-.76.88c-1.14.93-2.89,1.09-4,2-1.63,1.34,2-7.1,2.07-7.23.12-.28.25-.56.37-.8L29,46.38a8.62,8.62,0,0,0-.68,1.13c-.55.95-1.12,1.92-1.17,2-2.83,2.1-2.57,1.41-4.62,3.11-2.62,2.13,3-7,3-7h0a4.53,4.53,0,0,1-.89,1c-2.78,2.31-6.09,4.13-5.28,2.72l.57-1.8a19.15,19.15,0,0,1,1.41-2.76s0-.1-.31.16a6,6,0,0,1-3.19,1.25c-.16-1.38,1.19-1.66,1.27-2.9a36.24,36.24,0,0,1-4.15,0c4-5.15-2.26-2.26.47-4.53a1.19,1.19,0,0,0,.2-2,5.25,5.25,0,0,0-.5-.53c2.45,0,5.12-.83,7.29,1.62a13.15,13.15,0,0,0,13.63,4.08q.93.6,1.77,1.2Z"/><path class="cls-2" d="M25.57,45.53h0s-5.66,9.2-3,7C24.58,50.9,25,51.16,26.84,49a18.33,18.33,0,0,0,2.58-3.4c-.13.23-1.35,2.34-1.48,2.64-.05.12-3.7,8.57-2.07,7.23,1.15-.95,2.89-1.1,4-2a2.83,2.83,0,0,0,.74-.91c-1.19,2.55-2,5.45-3.35,7.85-4.58,3.61-7-.45-10.24-3-1.56-1.24-3.43-1.62-4.61-3.07a25.63,25.63,0,0,0-1.65-2.27c-4-4.85-8.68-6.22-9.88-7.68C-1,42.11.27,37.79,2.53,35.94,10,29.83,26.25,35.52,36,41.85a13.15,13.15,0,0,1-13.63-4.08c-2.19-2.45-4.85-1.62-7.29-1.62a5.25,5.25,0,0,1,.5.53,1.19,1.19,0,0,1-.2,2C12.7,40.87,18.92,38,15,43.18a33.82,33.82,0,0,0,4.15,0c-.07,1.25-1.43,1.51-1.27,2.9A6,6,0,0,0,21,44.84c.34-.27.31-.16.31-.16a17.8,17.8,0,0,0-1.41,2.76c-.2.63-.5,1.68-.57,1.8-.82,1.42,2.5-.4,5.28-2.72A4.53,4.53,0,0,0,25.57,45.53Z"/><path class="cls-2" d="M42.7,31.49h0s10.1-3.76,7.5-1.61c-2,1.68-1.86,2.09-4.31,3.54a18.33,18.33,0,0,1-3.82,1.87c.24-.07,2.56-.87,2.88-.93.14-.06,9.14-2,7.5-.62-1.14.94-1.64,2.62-2.77,3.55a2.83,2.83,0,0,1-1,.57c2.71-.67,5.69-.9,8.33-1.74,4.44-3.85.92-7-1-10.64-.91-1.78-.92-3.68-2.11-5.12,0-.06-1.15-1.17-1.91-2.09-4-4.83-4.39-9.73-5.59-11.19-1.87-2.29-6.34-1.93-8.6-.07-7.43,6.11-5.06,23.21-.75,34.09a13.15,13.15,0,0,0-1.34-14.15c-2-2.6-.62-5.06-.16-7.46a5.25,5.25,0,0,0,.41.59,1.19,1.19,0,0,0,2,.19c2.73-2.24-1.31,3.35,4.56.43a37.11,37.11,0,0,1-.82,4c1.23.17,1.76-1.09,3.09-.68A6,6,0,0,1,42.94,27c-.33.27-.22.27-.22.27a17.8,17.8,0,0,1,3-.85c.62-.1,1.72-.19,1.85-.23,1.55-.52-.87,2.38-3.7,4.64A4.53,4.53,0,0,1,42.7,31.49Z"/></g><path class="cls-3" d="M22.74,37.48a2.31,2.31,0,0,0-2.62-.24c-2.82,1.31-1,1.22-4.2-1.35a2.44,2.44,0,0,0-1.39-.44l0-.14c1.41,0,1.94.71,3.63,2.41.8.51,2.38-2.13,4.69-.36Z"/><path class="cls-3" d="M35.23,27.19c-1.28-2.59,1.6-3.67,1.27-4.53-1.39-2-1.89-2.64-1.65-4l.12.07c-.08.72-.11.46.18,1.45,1.3,2.52,2,2.38,1.46,3.24-.46.62-1.35,1.35-1.51,2.32a2.39,2.39,0,0,0,.23,1.45Z"/><path class="cls-3" d="M18.09,37.89c-.1.07-.27.1-.29.19-.72,1,.9,4.8,1.78,5.49,3,2.8,12.29,1.39,19.09,2.41a3.4,3.4,0,0,0,1.62,0h0c.4-.67.23-1.24.44-3.29.08-1.13.26-2.22.44-3.31,2-12.14,2.43-13.61-1.42-16.08-1-.67-2.63-1.52-3.08-.67l-.1-.1c.57-.84,2-.07,3.23.66,1.66,1,2.13,1.49,2.52,2.41,2,4.13-1.09,12.22-1.66,18.82-.13,2.32-.43,1.64-3.64,1.48-5.75-.36-14.92.78-17.88-2.62-.46-.55-2-3.86-1.55-5.2.13-.28.28-.25.43-.36Z"/><path class="cls-3" d="M30,53.56c5.14-8.26,6.4-5.17,10.65-7.13h0c2.83-3.87-.12-5.58,9.06-9v0c-5.13,2.63-5.71,2.89-7.28,6.23a9.32,9.32,0,0,1-1.62,3c-3.38,1.68-5.2.24-8.73,4.35-.19.21-1.88,2.37-2.05,2.59Z"/><path class="cls-3" d="M39.52,47c-.09,1.18-2.92,1.35-2.35,4-.6-1.94.26-2.26,1.7-3.59.23-.16.29-.43.57-.5Z"/><path class="cls-3" d="M41.34,45.37a.57.57,0,0,1,.14-.16,7.85,7.85,0,0,0,1.05-.72c1-.83,1.74-1.35,3.25-.52-2.47-1.1-3.24,1.67-4.37,1.52Z"/><path class="cls-3" d="M41.18,48.21c.36,4.09.73,3.4-4.36,7.53-3.57,2.86-4.82,4.73-5.76,6.69l-.12-.08c1-2.12,2.37-3.91,5.77-6.74,5-4.12,4.29-3.29,4.35-7.43Z"/><path class="cls-3" d="M42.26,47.18c.78.14,1.22.22,2.52.49,3.19.28,6.48-5.86,13.34-7.65l.06.13c-2,.51-4.11,1.34-7.69,4.34-5.06,4.2-4.43,4-8.24,2.83Z"/><path class="cls-5" d="M42.7,46.16s3.44,5,3.44,5c.23.27,6.13,8,5.5,8.54s-7.3-6.82-7.52-7.09l-4-4.31c-1.23-1.9-1.75-4.29-2.73-6C38.83,43.62,41.08,44.59,42.7,46.16Z"/><path class="cls-6" d="M35.38,38.22c.26.32.26.52-.31,1l-.06,0-.13.11-.13.1-.06,0c-.53.46-.75.42-1,.11-.39-.48-.91-2-.57-2.42S35,37.71,35.38,38.22Z"/><path class="cls-7" d="M33.05,38.08a.61.61,0,0,0,0,.83c.24.27.38.22.45.14s0-.48-.31-.91L33.11,38Z"/><path class="cls-7" d="M34,37.27a.62.62,0,0,1,.81.2c.23.28.16.4.07.47s-.48,0-.83-.46L34,37.32Z"/><path class="cls-8" d="M34.9,38.92a.85.85,0,0,1,.41-.19c1.17-.2,2.36.56,3.32,1.73a14.58,14.58,0,0,1,2.23,4.26c.28.77-1.15,1.82-1.77,1.49a15.11,15.11,0,0,1-3.75-3c-1-1.18-1.52-2.47-1.1-3.6a.85.85,0,0,1,.26-.36l.2-.14Z"/><path class="cls-8" d="M33.4,37.83C30.23,34.57,22,36.51,18.94,32.73c-.15-.2-.3-.38-.27-.49h0a.07.07,0,0,1,.08,0h0c-.19,0-.14.42.81,1.19,3.54,2.93,12.08,1.36,13.92,4.39Z"/><path class="cls-8" d="M33.31,37.48c-.87-1.39-.91-3.74-.76-7.73.05-1,.43-7.36-.57-7.36-.12,0-.08.11,0,.13s-.08-.12,0-.13.25.2.34.4c1.13,2.46-.57,11.81,1.21,14.56Z"/></svg>