<svg id="Layer_1" data-name="Layer 1" xmlns="http://www.w3.org/2000/svg" viewBox="0 0 59.75 60.31"><defs><style>.cls-1{fill:#00a7ee;}.cls-2{fill:#010101;}.cls-3{fill:#1e0e00;}.cls-4{fill:#0088c6;}.cls-5{fill:#31100d;}.cls-6{fill:#031825;}.cls-7{fill:#cdcac5;}.cls-8{fill:#1a1119;}</style></defs><title>butterfly</title><g id="_Group_" data-name="&lt;Group&gt;"><path class="cls-1" d="M30.74,28.22c.53.4,1.29.32,1.88.68a23.61,23.61,0,0,1,2.72,1.87c1.54,5-1,8.12,2.81,11.82a5.87,5.87,0,0,0-1,.78c-.74.88.32,2.22-.38,3.05-.4.47-1.4-1.43-2.52-.11-.49.58-.56,1.49-1,2.16-1.39-.71-3.12-2.14-4.61-.61a.52.52,0,0,1-.8.07c-.42-.35-.77-1.22-1.13-1.52s-2,1-2.49.62.18-2.14-.78-3.07c-.1-.1-.06-.28,0-.39a4.45,4.45,0,0,0,.39-2.86C25.12,35,29.55,33,30.65,28.32c-4.41,1.86-5.66,6.56-11.08,8.77a4.45,4.45,0,0,0-2.76.86c-.1.07-.27.14-.39.05-1.08-.79-2.65.16-3.15-.26s.66-2.17.2-2.55-1.27-.51-1.69-.86a.52.52,0,0,1-.07-.8c1.26-1.73-.43-3.2-1.37-4.45.6-.5,1.48-.72,2-1.3,1.11-1.32-.93-2-.53-2.46.71-.83,2.2,0,2.95-.88a5.87,5.87,0,0,0,.6-1.12c4.28,3.1,7,.12,12.12.8a23.61,23.61,0,0,1,2.3,2.36C30.2,27,30.25,27.76,30.74,28.22Z"/><path class="cls-2" d="M40.57,46.19c-.68.81-1.76-.39-2.32.27-.41.49.45,1.76-.41,2.78-1.06,1.25-2.3-1-3.07-.09-.38.45-.56,1.51-1.18,2.24-.9,1.07-1.34-.83-3.37,1-.24.21-.89-.15-1.1.09-2.56,3-2.19,6.3-3.13,7.41-.36.43-.74.7-1.38.17-1.15-1,.16-2.44,1.27-3.76l.52-.61a2.67,2.67,0,0,0-.2-3.21c-.86-.73-1.88.39-2.25.09s0-.77-.43-1.15c-.77-.65-1.67.42-2.53-.31s1.61-2.49.81-3.16c-.16-.14-.42-.27-.61-.44-1.12-.95,2.07-2.6,2.41-5.38.06-.48.14-.93.23-1.37a4.45,4.45,0,0,1-.39,2.86c-.05.11-.09.29,0,.39,1,.93.28,2.64.78,3.07s2-1,2.49-.62.71,1.17,1.13,1.52a.52.52,0,0,0,.8-.07c1.49-1.53,3.23-.11,4.61.61.39-.67.47-1.58,1-2.16,1.11-1.32,2.12.58,2.52.11.71-.83-.36-2.17.38-3.05a5.87,5.87,0,0,1,1-.78c-3.77-3.7-1.28-6.83-2.81-11.82l.45.37C43.54,37.69,41.12,45.54,40.57,46.19Z"/><path class="cls-2" d="M11.37,21.52c-.68.81.68,1.67.12,2.33-.41.49-1.81-.15-2.67.87-1.06,1.25,1.37,2.1.6,3-.38.45-1.4.81-2,1.53-.9,1.07,1,1.19-.37,3.48-.17.27.29.86.09,1.1-2.56,3-5.85,3.21-6.79,4.32-.36.43-.57.85.07,1.39,1.15,1,2.38-.56,3.49-1.88L4.42,37a2.67,2.67,0,0,1,3.2-.34c.86.73-.07,1.92.29,2.23s.76-.15,1.21.23c.77.65-.13,1.71.73,2.44s2.19-2,3-1.33c.16.14.34.37.53.53,1.12.95,2.22-2.48,4.91-3.27.46-.14.9-.29,1.31-.46a4.45,4.45,0,0,0-2.76.86c-.1.07-.27.14-.39.05-1.08-.79-2.65.16-3.15-.26s.66-2.17.2-2.55-1.27-.51-1.69-.86a.52.52,0,0,1-.07-.8c1.26-1.73-.43-3.2-1.37-4.45.6-.5,1.48-.72,2-1.3,1.11-1.32-.93-2-.53-2.46.71-.83,2.2,0,2.95-.88a5.87,5.87,0,0,0,.6-1.12c4.28,3.1,7,.12,12.12.8L27,23.73C19.26,17.18,11.92,20.87,11.37,21.52Z"/></g><path class="cls-3" d="M29.2,31.6c-1.79,3.28.4,1.85-4.23,10.11-.4.7-1.35,2.3-2.12,2.57l-.06-.07a1.79,1.79,0,0,1,.38-.47,38.71,38.71,0,0,0,4.54-7.88,19,19,0,0,1,1.41-4.3Z"/><path class="cls-3" d="M27.71,30.37c-2.6,2.09-3.3.66-9.94,6.71a6.86,6.86,0,0,0-1.07,1.18,1.79,1.79,0,0,1-.4.45l-.08,0c.22-1.28,3.95-3.93,5.23-4.86a14.28,14.28,0,0,1,4.31-2.37,8.86,8.86,0,0,0,1.9-1.14Z"/><path class="cls-3" d="M29.63,31c0,1.29.37,1.54.28,2.36-.23,2.22-.51,6.27,1.71,5.81.17,0,.13-.06.24-.18l.45-.5c1.15-1.23-.55-2.62.06-4.62l.08,0c-.59,2,1.13,3.34-.07,4.65-.62.69-.56.76-1.12.74-2.55-.16-1.37-5.73-1.66-6.89A2.75,2.75,0,0,1,29.54,31Z"/><path class="cls-3" d="M28.21,29.86A2.75,2.75,0,0,1,26.8,30c-1.07-.09-1.11.24-3.32.6-1.71.27-3.85.27-3.79-1.45,0-.21.05-.18.16-.33a3.35,3.35,0,0,1,.93-1c1.19-.58,2.48.39,4.07-.4l0,.08c-2.14,1.07-3.63-.94-5.07,1.49a.92.92,0,0,0,0,.47c.46,1.88,4.12.9,6,.38.78-.22,1.12.08,2.37-.11Z"/><path class="cls-3" d="M32.84,37.41a15.87,15.87,0,0,1,4.36,7.42l-.08,0C36.45,43.74,36,41,32.84,37.41Z"/><path class="cls-3" d="M21.32,27.68c-4.11-2.51-6.82-2.49-8.06-3v-.09A16.33,16.33,0,0,1,21.32,27.68Z"/><path class="cls-3" d="M32,38.89c1.82,5.82.78,2.8,2.41,8.65a.73.73,0,0,1,0,.41l-.08,0a.72.72,0,0,1-.17-.37C32.8,42.13,33.91,46,32,38.89Z"/><path class="cls-3" d="M20,28.74c-7.4-.71-3.46-.25-9-.7a.72.72,0,0,1-.39-.11v-.09a.73.73,0,0,1,.41,0C17.25,28.45,13.85,27.9,20,28.74Z"/><path class="cls-3" d="M30.92,39.23c-.46,2.21-.36,5.4-1.09,9.16l-.31-.08C30.37,44.59,30.39,41.44,30.92,39.23Z"/><path class="cls-3" d="M19.85,29.87c-2.15.93-5.11,1.4-8.72,2.9L11,32.48C14.72,31.08,17.65,30.73,19.85,29.87Z"/><path class="cls-3" d="M30.22,38.48c-.76,2-1,1.1-2.09,4.45-.72,2.17-.35,1.14-1.64,4.67l-.25-.11c1.4-3.52.93-2.3,2.08-5.48C28.87,40.37,29.56,40.1,30.22,38.48Z"/><path class="cls-3" d="M20.7,30.45a21.94,21.94,0,0,0-2.4,2s-3.13,1.81-5.82,3.44l-.15-.23c7.43-4.23,4.81-2.33,7.6-4.7A5.08,5.08,0,0,1,20.7,30.45Z"/><path class="cls-3" d="M29.71,36.14c-2.37,3.41-4,8.46-6.61,10L23,46.11a5,5,0,0,1,.66-.9C27.37,40.9,26.66,40,29.71,36.14Z"/><path class="cls-3" d="M23.1,30.55c-3.2,3.53-4.38,3.2-7.93,7.44a5,5,0,0,1-.78.8l-.07-.05C15.38,36,20.26,33.33,23.1,30.55Z"/><g id="_Group_2" data-name="&lt;Group&gt;"><path class="cls-4" d="M38.93,30c-.23-.32-.37-.51-.34-.42S38.73,29.76,38.93,30ZM28.08,20.7c.09,0-.12-.09-.47-.26C27.88,20.59,28,20.69,28.08,20.7Zm4,5.92q.56-.31,1.17-.61c3.09,1.3,7,1.57,9.57-1.12,1.33-1.42,3.38-.5,5.17-.21a2.27,2.27,0,0,0-.32.3c-.47.55-.15,1,.35,1.39,2.23,1.88-2.64-.87.82,3.2a29.43,29.43,0,0,1-3-.52c.18.87,1.21,1.22,1.23,2.16A6.36,6.36,0,0,1,44.58,30c-.26-.22-.22-.16-.24-.15a19.65,19.65,0,0,1,1.32,2.08c.23.46.55,1.22.62,1.31.75,1.08-1.87-.59-4.15-2.53a5.1,5.1,0,0,1-.76-.79h0s5.08,7,3,5.25c-1.68-1.42-1.42-.92-3.71-2.72,0,0-.56-.78-1.06-1.5a9.12,9.12,0,0,0-.62-.88l.62.88c.11.18.23.38.35.6s3.6,6.39,2.26,5.25c-.94-.79-2.23-1.12-3.16-1.9a3.17,3.17,0,0,1-.64-.72c1.14,1.89,2,4,3.26,5.83l-.18-.15c-2.34-2-4.11-4.36-5.8-5.79-.89-.75-1.85-1.44-2.74-2.19a9.12,9.12,0,0,1-2.57-3.13,9.12,9.12,0,0,1-3.51-2c-.89-.75-1.72-1.58-2.61-2.34-1.69-1.43-4.34-2.78-6.68-4.76l-.18-.16c2,.91,4.23,1.44,6.29,2.25a3.17,3.17,0,0,1-.82-.51c-.93-.79-1.46-2-2.4-2.8-1.34-1.13,5.46,1.32,5.56,1.35l.65.25,1,.46a9.12,9.12,0,0,0-1-.46c-.79-.37-1.62-.76-1.66-.8-2.16-2-1.62-1.78-3.3-3.2-2.12-1.79,5.67,2,5.67,2h0a5.1,5.1,0,0,1-.91-.62c-2.3-1.92-4.38-4.22-3.19-3.67.1,0,.91.24,1.4.39a19.65,19.65,0,0,1,2.27,1s.07,0-.19-.21a6.36,6.36,0,0,1-1.65-2.23c.93-.13,1.45.82,2.34.85a29.43,29.43,0,0,1-1-2.9c4.59,2.73,1.07-1.61,3.3.27.5.42,1,.67,1.43.11a2.27,2.27,0,0,0,.24-.36c.59,1.72,1.83,3.58.65,5.13-2.23,2.94-1.31,6.79.49,9.62Q32.3,26,32.09,26.62Z"/><path class="cls-2" d="M42.13,30.66c2.28,1.95,4.89,3.62,4.15,2.53-.06-.09-.39-.85-.62-1.31a18.27,18.27,0,0,0-1.32-2.08s0-.07.24.15a6.36,6.36,0,0,0,2.47,1.26c0-.94-1-1.29-1.23-2.16a29.43,29.43,0,0,0,3,.52c-3.46-4.07,1.41-1.32-.82-3.2-.5-.42-.82-.84-.35-1.39a2.27,2.27,0,0,1,.32-.3c-1.79-.29-3.84-1.2-5.17.21-2.53,2.69-6.48,2.42-9.57,1.12,6.55-3.15,17.91-5.06,24,.09,1.85,1.56,3.2,4.7,2.06,6-.73.86-4,1.23-6.45,4.07-.46.54-1,1.33-1,1.37-.72.85-2,.88-3.06,1.54-2.11,1.38-3.43,3.89-7.2.82C40.4,38.12,39.5,36,38.37,34.12a3.17,3.17,0,0,0,.64.72c.93.79,2.22,1.11,3.16,1.9,1.34,1.13-2.21-5.17-2.26-5.25s-1.25-1.83-1.36-2a20.23,20.23,0,0,0,2.24,2.66,27.16,27.16,0,0,0,3.53,3c2.12,1.79-3-5.25-3-5.25h0A5.1,5.1,0,0,0,42.13,30.66Z"/><path class="cls-2" d="M26.42,17.39c-2.3-1.92-4.38-4.22-3.19-3.67.1,0,.91.24,1.4.39a18.27,18.27,0,0,1,2.27,1s.08,0-.19-.21a6.36,6.36,0,0,1-1.65-2.23c.93-.13,1.45.82,2.34.85a29.43,29.43,0,0,1-1-2.9c4.59,2.73,1.07-1.61,3.3.27.5.42,1,.67,1.43.11a2.27,2.27,0,0,0,.24-.36c.59,1.72,1.83,3.58.65,5.13-2.23,2.94-1.31,6.79.49,9.62,2-7,2-18.51-4.09-23.65-1.85-1.56-5.16-2.37-6.3-1-.73.86-.53,4.19-2.94,7C18.7,8.26,18,8.89,18,8.93c-.72.85-.53,2.17-1,3.28-1,2.31-3.26,4,.39,7.23,2,.91,4.23,1.44,6.29,2.25a3.17,3.17,0,0,1-.82-.51c-.93-.79-1.46-2-2.4-2.8-1.34-1.13,5.46,1.32,5.56,1.35s2,.92,2.21,1a20.23,20.23,0,0,1-3-1.77,27.16,27.16,0,0,1-3.53-3c-2.12-1.79,5.67,2,5.67,2h0A5.1,5.1,0,0,1,26.42,17.39Z"/></g><path class="cls-3" d="M42.53,24.57c1.51-.94,2.95,1.09,3.48.84,1.07-1,1.38-1.36,2.41-1.21l0,.09a1.49,1.49,0,0,0-1,.14c-2.1,1.37-.74,1.66-2.94.41-1.28-.75-1.92-.19-1.92-.19Z"/><path class="cls-3" d="M32.28,16a1.36,1.36,0,0,0,0-1A6.3,6.3,0,0,0,31,13.19c-.51-.66,0-.48.73-2.06.09-.65.11-.47,0-1l.08,0c.32,1,0,1.34-.79,2.58-.16.55,2.07,1.66,1.4,3.29Z"/><path class="cls-3" d="M46.09,25.44c.12.1.23.09.35.3.48,1-.31,3.07-.59,3.4-1.82,2-8.66.06-12.84-.43-2.34-.29-2.49.14-2.82-1.48C29.06,22.6,26,16.62,27,14c.19-.59.49-.84,1.6-1.35.8-.36,1.79-.71,2.3-.05l-.07.06c-.42-.64-1.5-.24-2.19.08-2.57,1.23-2.12,2.3.63,10.94.24.77.49,1.55.69,2.34.37,1.45.3,1.82.64,2.33h0a2.8,2.8,0,0,0,1.19.18c4.89.14,11.8,2.27,13.74.71.57-.36,1.37-2.78.73-3.57,0-.07-.16-.11-.24-.17Z"/><path class="cls-3" d="M38.91,34.9c-.15-.17-1.62-1.88-1.78-2-3-3.28-4.2-2.52-6.85-4.1a9.62,9.62,0,0,1-1.51-2.29c-1.5-2.5-1.95-2.75-6-5.2v0c7.08,3.53,5.12,4.34,7.6,7.39h0c3.32,1.88,3.93-.08,8.55,6.26Z"/><path class="cls-3" d="M31.33,29.12c.21.08.28.27.45.41C33,30.64,33.64,31,33.4,32.22c.16-1.76-2-2.22-2.14-3.05Z"/><path class="cls-3" d="M29.71,27.86c-.82,0-1.66-2-3.36-1.6,1-.39,1.6.07,2.44.76a9,9,0,0,0,.85.63.61.61,0,0,1,.12.13Z"/><path class="cls-3" d="M30.27,29.77c.48,2.88-.11,2.21,4,5.67a21.13,21.13,0,0,1,4.93,5.38l-.08,0a20.06,20.06,0,0,0-4.92-5.35c-4.15-3.49-3.82-3-4-5.75Z"/><path class="cls-3" d="M29.29,29c-2.69.3-2.19.55-6.33-3a20,20,0,0,0-6.09-4l0-.08c5.22,2.09,8.26,6.74,10.58,6.94.93,0,1.24,0,1.8,0Z"/><path class="cls-5" d="M32.37,26.18c-.54,1-.67,2.64-1.38,3.8,0,0-2.51,2.48-2.51,2.48-.14.16-4.26,4.41-4.77,4s3-5.06,3.14-5.22c0,0,2-3,2-3C29.88,27.28,31.43,26.89,32.37,26.18Z"/><path class="cls-6" d="M34.94,23.14c.29.3.07,1.31-.17,1.6s-.3.18-.75-.2l0,0-.11-.09-.1-.09,0,0c-.45-.38-.48-.52-.32-.71S34.59,22.91,34.94,23.14Z"/><path class="cls-7" d="M35,23.73l-.08.08c-.21.25-.19.53-.12.58s.17.11.31-.06a.42.42,0,0,0-.05-.57Z"/><path class="cls-7" d="M34.34,23.14l-.07.09c-.21.25-.49.28-.56.22s-.14-.15,0-.32a.42.42,0,0,1,.57,0Z"/><path class="cls-8" d="M34,24.27l.16.13a.93.93,0,0,1,.23.28A2.06,2.06,0,0,1,33.94,27a7,7,0,0,1-2.43,1.62c-.42.15-1.58-.76-1.45-1.25a6.7,6.7,0,0,1,1.2-2.67A2.07,2.07,0,0,1,33.51,24a.93.93,0,0,1,.32.18Z"/><path class="cls-8" d="M34.72,23.52c1-1.86,7.46.26,9.75-1.3.6-.41.6-.73.48-.73l0,0,0,0a.07.07,0,0,1,.07.05c0,.08-.05.19-.14.31-1.83,2.24-8.08-.14-10.07,1.73Z"/><path class="cls-8" d="M34.66,23.22c1-1.68-1.2-8.36-.62-9.91,0-.13.12-.25.21-.24s0,.11,0,.1,0-.06,0-.1c-.73-.13.21,4.3.34,5,.52,2.78.74,4.39.25,5.25Z"/></svg>