<svg id="Layer_1" data-name="Layer 1" xmlns="http://www.w3.org/2000/svg" xmlns:xlink="http://www.w3.org/1999/xlink" viewBox="0 0 49.66 38.48"><defs><style>.cls-1{fill:url(#radial-gradient);}.cls-2{fill:url(#radial-gradient-2);}.cls-3{fill:#871f06;}.cls-4{fill:#af0704;}.cls-5{fill:#fff;}.cls-6{fill:#ffc800;}.cls-7{fill:#ffea00;}</style><radialGradient id="radial-gradient" cx="4.33" cy="14.88" r="42.2" gradientUnits="userSpaceOnUse"><stop offset="0" stop-color="#8cb300"/><stop offset="0.32" stop-color="#bd7400"/><stop offset="0.6" stop-color="#e63f00"/><stop offset="1" stop-color="#ad1100"/></radialGradient><radialGradient id="radial-gradient-2" cx="2.9" cy="14.14" r="38.06" gradientUnits="userSpaceOnUse"><stop offset="0" stop-color="#b2d62f"/><stop offset="0.09" stop-color="#c6bd30"/><stop offset="0.22" stop-color="#de9c31"/><stop offset="0.34" stop-color="#f08532"/><stop offset="0.46" stop-color="#fb7733"/><stop offset="0.56" stop-color="#ff7233"/><stop offset="1" stop-color="#e04433"/></radialGradient></defs><title>Fruit</title><path class="cls-1" d="M1.59,16.35c.64-6.5,11.28-5,14.67-7.31C22.85,4.52,27.63-1,35.66.15S45.2,6.32,45.83,9.09,56.61,23.7,35.66,30.75C15.48,37.54.75,24.84,1.59,16.35Z"/><path class="cls-2" d="M28.49,17.23C40.89,12.58,44.37,2,36.31.8s-13.46,5.86-19.12,9C12.84,12.15,2.88,10.5,2.24,17,1.71,22.4,16,21.93,28.49,17.23Z"/><path class="cls-3" d="M46.17,10.62c-.48-1.1-.82-2.28-1.49-2s-.81,1.42-.33,2.52,1.42,1.75,2.08,1.46S46.66,11.71,46.17,10.62Z"/><path class="cls-4" d="M49.21,9c-.14-.31-.58-.94-.91-.36a2.3,2.3,0,0,1-2.78,1.2c-.36-.11-.42.74-.17,1.3s1,1.12,1.08.75S49,11,49.6,9.86C49.84,9.39,49.3,9.21,49.21,9Z"/><ellipse class="cls-5" cx="32.17" cy="3.46" rx="2.15" ry="1.59" transform="translate(0.27 8.88) rotate(-15.77)"/><ellipse class="cls-5" cx="4.78" cy="15.2" rx="1.36" ry="1.01" transform="translate(-8.23 6) rotate(-37.27)"/><path class="cls-4" d="M0,32.19c5,5.76,14.36,8,23.44,4.91S38.6,26.62,39.11,19Z"/><path class="cls-6" d="M0,32.19c4.86,5.24,14.06,7.09,23.14,4S38.42,26.11,39.11,19Z"/><path class="cls-7" d="M0,32.19C3.81,34.35,12.27,34,21.35,30.9S37.38,23,39.11,19C23.39,23.41,14.78,26.58,0,32.19Z"/></svg>