
<svg id="Layer_1" data-name="Layer 1" xmlns="http://www.w3.org/2000/svg" xmlns:xlink="http://www.w3.org/1999/xlink" viewBox="0 0 144 228.71"><defs><style>.cls-1{fill:url(#linear-gradient);}.cls-2{fill:url(#linear-gradient-2);}.cls-3{fill:url(#linear-gradient-3);}.cls-4{fill:url(#linear-gradient-4);}.cls-5{fill:url(#Neutral_4);}.cls-6{fill:url(#linear-gradient-5);}.cls-7{opacity:0.59;}.cls-8{fill:url(#linear-gradient-6);}.cls-9{fill:url(#Neutral_4-2);}.cls-10{fill:url(#linear-gradient-7);}.cls-11{fill:url(#linear-gradient-8);}.cls-12{fill:url(#Neutral_4-3);}.cls-13{fill:url(#Neutral_4-4);}.cls-14{mask:url(#mask);}.cls-15{fill:#7f7f7f;}.cls-16{fill:#bbbcbe;opacity:0.27;}.cls-17{mask:url(#mask-2);}.cls-18,.cls-21,.cls-23,.cls-28,.cls-42,.cls-45{fill:#fff;}.cls-18{opacity:0.54;}.cls-19{fill:#595b5c;}.cls-20{mask:url(#mask-3);}.cls-22{fill:#6b6d6f;}.cls-23{opacity:0.51;}.cls-24{mask:url(#mask-4);}.cls-25{fill:#aaadb0;}.cls-26{mask:url(#mask-5);}.cls-27{fill:#7d7f81;}.cls-28{opacity:0.16;}.cls-29{fill:#797c7e;}.cls-29,.cls-45{opacity:0.71;}.cls-30{fill:#aeafb0;}.cls-31{fill:#e1e2e3;opacity:0.66;}.cls-32{mask:url(#mask-6);}.cls-33{mask:url(#mask-7);}.cls-34{fill:#a5a7aa;}.cls-35{fill:#b4b6b8;}.cls-36{mask:url(#mask-8);}.cls-37{fill:url(#linear-gradient-9);}.cls-38{mask:url(#mask-9);}.cls-39{fill:#d6d6d6;}.cls-40{mask:url(#mask-10);}.cls-41{mask:url(#mask-11);}.cls-42{opacity:0.32;}.cls-43{fill:#a16733;}.cls-44{mask:url(#mask-12);}.cls-46{fill:#ba773b;}.cls-47{fill:url(#linear-gradient-10);}.cls-48{fill:url(#linear-gradient-11);}.cls-49{fill:url(#linear-gradient-12);}.cls-50{fill:url(#linear-gradient-13);}.cls-51{fill:url(#linear-gradient-14);}.cls-52{fill:url(#linear-gradient-15);}.cls-53{fill:url(#linear-gradient-16);}.cls-54{fill:url(#linear-gradient-17);}.cls-55{fill:url(#linear-gradient-18);}.cls-56{fill:url(#linear-gradient-19);}.cls-57{fill:url(#linear-gradient-20);}.cls-58{fill:url(#linear-gradient-21);}.cls-59{fill:url(#linear-gradient-22);}.cls-60{fill:url(#linear-gradient-23);}.cls-61{fill:url(#linear-gradient-24);}.cls-62{fill:url(#linear-gradient-25);}.cls-63{fill:url(#linear-gradient-26);}.cls-64{fill:url(#radial-gradient);}.cls-65{fill:url(#radial-gradient-2);}.cls-66{fill:url(#linear-gradient-27);}.cls-67{fill:url(#linear-gradient-28);}.cls-68{fill:url(#linear-gradient-29);}.cls-69{fill:url(#linear-gradient-30);}.cls-70{fill:url(#linear-gradient-31);}.cls-71{fill:url(#linear-gradient-32);}.cls-72{fill:#231f20;}.cls-73{fill:url(#linear-gradient-33);}.cls-74{fill:url(#linear-gradient-34);}.cls-75{fill:url(#linear-gradient-35);}.cls-76{fill:url(#linear-gradient-36);}.cls-77{fill:url(#linear-gradient-37);}.cls-78{fill:url(#linear-gradient-38);}.cls-79{fill:url(#linear-gradient-39);}.cls-80{fill:url(#linear-gradient-40);}.cls-81{fill:url(#linear-gradient-41);}.cls-82{fill:url(#linear-gradient-42);}.cls-83{fill:url(#linear-gradient-43);}.cls-84{fill:url(#linear-gradient-44);}.cls-85{fill:url(#linear-gradient-45);}.cls-86{fill:url(#linear-gradient-46);}.cls-87{fill:url(#linear-gradient-47);}.cls-88{fill:url(#linear-gradient-48);}.cls-89{fill:url(#linear-gradient-49);}.cls-90{fill:url(#radial-gradient-3);}.cls-91{fill:url(#radial-gradient-4);}.cls-92{fill:url(#linear-gradient-50);}.cls-93{fill:url(#linear-gradient-51);}.cls-94{fill:url(#linear-gradient-52);}.cls-95{fill:url(#linear-gradient-53);}.cls-96{fill:url(#linear-gradient-54);}.cls-97{fill:url(#linear-gradient-55);}.cls-98{fill:#e55942;}</style><linearGradient id="linear-gradient" y1="115.5" x2="144" y2="115.5" gradientUnits="userSpaceOnUse"><stop offset="0.05" stop-color="#fff"/><stop offset="0.09" stop-color="#fafafa"/><stop offset="0.13" stop-color="#ececec"/><stop offset="0.18" stop-color="#d5d5d5"/><stop offset="0.22" stop-color="#b4b4b4"/><stop offset="0.27" stop-color="#8a8a8a"/><stop offset="0.32" stop-color="#575757"/><stop offset="0.46"/><stop offset="0.55"/><stop offset="0.61" stop-color="#232222"/><stop offset="0.69" stop-color="#4e4c4b"/><stop offset="0.93" stop-color="#fff"/></linearGradient><linearGradient id="linear-gradient-2" x1="60.21" y1="122.64" x2="136.35" y2="122.64" gradientUnits="userSpaceOnUse"><stop offset="0.03"/><stop offset="1" stop-color="#fff"/></linearGradient><linearGradient id="linear-gradient-3" x1="-682.65" y1="30.96" x2="-638.7" y2="30.96" gradientTransform="matrix(-1, 0, 0, 1, -618.28, 0)" gradientUnits="userSpaceOnUse"><stop offset="0.07"/><stop offset="0.88" stop-color="#fff"/><stop offset="0.99"/></linearGradient><linearGradient id="linear-gradient-4" x1="74.06" y1="23.34" x2="116.57" y2="23.34" gradientUnits="userSpaceOnUse"><stop offset="0.03"/><stop offset="0.89" stop-color="#fff"/><stop offset="1"/></linearGradient><linearGradient id="Neutral_4" x1="99.4" y1="125.63" x2="132.91" y2="125.63" gradientUnits="userSpaceOnUse"><stop offset="0.03" stop-color="#231f20"/><stop offset="1" stop-color="#fff"/></linearGradient><linearGradient id="linear-gradient-5" x1="116.28" y1="125.63" x2="126.34" y2="125.63" gradientUnits="userSpaceOnUse"><stop offset="0.03" stop-color="gray"/><stop offset="0.72" stop-color="#fff"/></linearGradient><linearGradient id="linear-gradient-6" x1="102.11" y1="174.59" x2="102.11" y2="188.69" gradientUnits="userSpaceOnUse"><stop offset="0.28"/><stop offset="0.39" stop-color="#030303"/><stop offset="0.49" stop-color="#0e0e0e"/><stop offset="0.57" stop-color="#1f1f1f"/><stop offset="0.66" stop-color="#373737"/><stop offset="0.73" stop-color="#575757"/><stop offset="0.81" stop-color="#7d7d7d"/><stop offset="0.89" stop-color="#ababab"/><stop offset="0.96" stop-color="#dfdfdf"/><stop offset="1" stop-color="#fff"/></linearGradient><linearGradient id="Neutral_4-2" x1="75.19" y1="47.22" x2="119.39" y2="47.22" xlink:href="#Neutral_4"/><linearGradient id="linear-gradient-7" x1="-702.07" y1="122.64" x2="-625.93" y2="122.64" gradientTransform="matrix(-1, 0, 0, 1, -618.28, 0)" xlink:href="#linear-gradient-2"/><linearGradient id="linear-gradient-8" x1="-660.17" y1="174.59" x2="-660.17" y2="188.69" gradientTransform="matrix(-1, 0, 0, 1, -618.28, 0)" xlink:href="#linear-gradient-6"/><linearGradient id="Neutral_4-3" x1="81.77" y1="191.53" x2="125.98" y2="191.53" xlink:href="#Neutral_4"/><linearGradient id="Neutral_4-4" x1="-135.11" y1="16.02" x2="-114.53" y2="16.02" gradientTransform="translate(-100.67 141.65) rotate(180)" xlink:href="#Neutral_4"/><mask id="mask" x="0" y="42.3" width="144" height="146.39" maskUnits="userSpaceOnUse"><path class="cls-1" d="M126.16,57.26c-.83-1.21-1.91-15-1.91-15H19.75s-1.08,13.76-1.91,15C14.64,61.9,0,63.29,0,74.95V183.51c0,2.86,2.85,5.18,6.37,5.18H137.63c3.52,0,6.37-2.32,6.37-5.18V74.95C144,63.29,129.36,61.9,126.16,57.26Z"/></mask><mask id="mask-2" x="60.21" y="56.53" width="76.14" height="132.16" maskUnits="userSpaceOnUse"><path class="cls-2" d="M118.52,57.26c-.83-1.21-56.36-.43-56.36-.43l-1.94-.13v132H130c3.52,0,6.37-2.32,6.37-5.18V74.95C136.35,63.29,121.71,61.9,118.52,57.26Z"/></mask><mask id="mask-3" x="99.4" y="70.54" width="33.52" height="110.18" maskUnits="userSpaceOnUse"><path class="cls-5" d="M132.91,175.54c0,2.86-2.85,5.18-6.37,5.18H105.77c-3.52,0-6.37-2.32-6.37-5.18V75.72c0-2.86,2.85-5.18,6.37-5.18h20.77c3.52,0,6.37,2.32,6.37,5.18Z"/></mask><mask id="mask-4" x="113.73" y="70.54" width="15.93" height="110.18" maskUnits="userSpaceOnUse"><path class="cls-6" d="M126.34,175.54c0,2.86-.86,5.18-1.91,5.18H118.2c-1.06,0-1.91-2.32-1.91-5.18V75.72c0-2.86.86-5.18,1.91-5.18h6.24c1.06,0,1.91,2.32,1.91,5.18Z"/></mask><mask id="mask-5" x="60.21" y="174.59" width="83.79" height="14.1" maskUnits="userSpaceOnUse"><g class="cls-7"><path class="cls-8" d="M143.85,175.51c0,2.86-3.14,10.36-7,10.36,0,0-37-3.38-76.63-3.38v6.2H137c3.87,0,7-2.32,7-5.18v-8.92A6,6,0,0,0,143.85,175.51Z"/></g></mask><mask id="mask-6" x="75.19" y="46.27" width="44.21" height="1.9" maskUnits="userSpaceOnUse"><path class="cls-9" d="M119.39,47.22c0-.52-.61-1-1.36-1H76.55c-.75,0-1.36.43-1.36,1s.61,1,1.36,1H118C118.78,48.17,119.39,47.75,119.39,47.22Z"/></mask><mask id="mask-7" x="7.65" y="56.53" width="76.14" height="132.16" maskUnits="userSpaceOnUse"><path class="cls-10" d="M25.48,57.26c.83-1.21,56.36-.43,56.36-.43l1.94-.13v132H14c-3.52,0-6.37-2.32-6.37-5.18V74.95C7.65,63.29,22.29,61.9,25.48,57.26Z"/></mask><mask id="mask-8" x="0" y="174.59" width="83.79" height="14.1" maskUnits="userSpaceOnUse"><g class="cls-7"><path class="cls-11" d="M.15,175.51c0,2.86,3.14,10.36,7,10.36,0,0,37-3.38,76.63-3.38v6.2H7c-3.87,0-7-2.32-7-5.18v-8.92A6,6,0,0,1,.15,175.51Z"/></g></mask><linearGradient id="linear-gradient-9" x1="72" y1="188.69" x2="72" y2="189.9" gradientUnits="userSpaceOnUse"><stop offset="0" stop-color="#5e5e5e"/><stop offset="1" stop-color="#a5a7aa"/></linearGradient><mask id="mask-9" x="81.77" y="190.86" width="44.21" height="1.33" maskUnits="userSpaceOnUse"><path class="cls-12" d="M126,191.53c0-.37-.61-.66-1.36-.66H83.13c-.75,0-1.36.3-1.36.66s.61.66,1.36.66h41.49C125.37,192.19,126,191.89,126,191.53Z"/></mask><mask id="mask-10" x="13.86" y="70.54" width="20.57" height="110.18" maskUnits="userSpaceOnUse"><path class="cls-13" d="M13.86,75.72c0-2.86,1.75-5.18,3.91-5.18H30.53c2.16,0,3.91,2.32,3.91,5.18v99.81c0,2.86-1.75,5.18-3.91,5.18H17.77c-2.16,0-3.91-2.32-3.91-5.18Z"/></mask><mask id="mask-11" x="20.42" y="30.43" width="43.96" height="1.05" maskUnits="userSpaceOnUse"><path class="cls-3" d="M64.37,31a.59.59,0,0,1-.64.52H21.05a.59.59,0,0,1-.64-.52h0a.59.59,0,0,1,.64-.52H63.74a.59.59,0,0,1,.64.52Z"/></mask><mask id="mask-12" x="74.06" y="22.5" width="42.51" height="1.68" maskUnits="userSpaceOnUse"><path class="cls-4" d="M74.06,23.34c0,.46.28.84.62.84H116c.34,0,.62-.38.62-.84h0c0-.46-.28-.84-.62-.84H74.68c-.34,0-.62.38-.62.84Z"/></mask><linearGradient id="linear-gradient-10" x1="26.83" y1="75.33" x2="28.13" y2="81.69" gradientUnits="userSpaceOnUse"><stop offset="0" stop-color="#85c340"/><stop offset="0.02" stop-color="#8ac540"/><stop offset="0.17" stop-color="#a4ce43"/><stop offset="0.3" stop-color="#b4d344"/><stop offset="0.4" stop-color="#bad545"/><stop offset="1" stop-color="#436e1e"/></linearGradient><linearGradient id="linear-gradient-11" x1="25.62" y1="95.89" x2="31.31" y2="97.31" gradientUnits="userSpaceOnUse"><stop offset="0" stop-color="#436e1e"/><stop offset="0.6" stop-color="#bad545"/><stop offset="0.7" stop-color="#b4d344"/><stop offset="0.83" stop-color="#a4ce43"/><stop offset="0.98" stop-color="#8ac540"/><stop offset="1" stop-color="#85c340"/></linearGradient><linearGradient id="linear-gradient-12" x1="26.35" y1="97.56" x2="24.37" y2="106.45" gradientUnits="userSpaceOnUse"><stop offset="0" stop-color="#bad545"/><stop offset="0.23" stop-color="#d5b238"/><stop offset="0.47" stop-color="#ec932d"/><stop offset="0.61" stop-color="#f58829"/><stop offset="1" stop-color="#975410"/></linearGradient><linearGradient id="linear-gradient-13" x1="62.51" y1="84.98" x2="66.83" y2="84.98" gradientUnits="userSpaceOnUse"><stop offset="0" stop-color="#254a9d"/><stop offset="1" stop-color="#00bff2"/></linearGradient><linearGradient id="linear-gradient-14" x1="68.15" y1="87" x2="72.79" y2="87" xlink:href="#linear-gradient-13"/><linearGradient id="linear-gradient-15" x1="63.71" y1="85.9" x2="74.8" y2="84.76" xlink:href="#linear-gradient-11"/><linearGradient id="linear-gradient-16" x1="24.45" y1="90.99" x2="25.66" y2="86.75" xlink:href="#linear-gradient-11"/><linearGradient id="linear-gradient-17" x1="24.8" y1="89.38" x2="28.22" y2="77.31" xlink:href="#linear-gradient-11"/><linearGradient id="linear-gradient-18" x1="45.68" y1="101.3" x2="51.4" y2="81.09" xlink:href="#linear-gradient-11"/><linearGradient id="linear-gradient-19" x1="51.81" y1="102.47" x2="52.88" y2="92.69" xlink:href="#linear-gradient-13"/><linearGradient id="linear-gradient-20" x1="-9123.94" y1="100.71" x2="-9110.41" y2="100.71" gradientTransform="matrix(-1, 0, 0, 1, -9051.46, 0)" xlink:href="#linear-gradient-13"/><linearGradient id="linear-gradient-21" x1="62.96" y1="114.68" x2="55.62" y2="117.74" xlink:href="#linear-gradient-12"/><linearGradient id="linear-gradient-22" x1="62.35" y1="114.52" x2="56.27" y2="110.31" xlink:href="#linear-gradient-12"/><linearGradient id="linear-gradient-23" x1="60.04" y1="98.98" x2="66.44" y2="102.9" xlink:href="#linear-gradient-11"/><linearGradient id="linear-gradient-24" x1="71.76" y1="107.99" x2="75.61" y2="114.35" xlink:href="#linear-gradient-11"/><linearGradient id="linear-gradient-25" x1="69.67" y1="102.13" x2="71.95" y2="108.03" xlink:href="#linear-gradient-11"/><linearGradient id="linear-gradient-26" x1="-9083.1" y1="83.05" x2="-9073.07" y2="83.05" gradientTransform="matrix(-1, 0, 0, 1, -9051.46, 0)" xlink:href="#linear-gradient-10"/><radialGradient id="radial-gradient" cx="-9045.54" cy="81.73" r="4.23" gradientTransform="matrix(-1.22, 0, 0, 1.01, -11039.14, -0.18)" gradientUnits="userSpaceOnUse"><stop offset="0" stop-color="#3165af"/><stop offset="0.64" stop-color="#2b60ac"/><stop offset="1" stop-color="#255ba9"/></radialGradient><radialGradient id="radial-gradient-2" cx="-9045.45" cy="81.95" r="3.95" gradientTransform="matrix(-1.22, 0, 0, 1.01, -11039.14, -0.18)" gradientUnits="userSpaceOnUse"><stop offset="0" stop-color="#ee4323"/><stop offset="0.13" stop-color="#e84122"/><stop offset="0.3" stop-color="#d83a1e"/><stop offset="0.49" stop-color="#bc2f18"/><stop offset="0.7" stop-color="#96200f"/><stop offset="0.92" stop-color="#660c05"/><stop offset="1" stop-color="#520400"/></radialGradient><linearGradient id="linear-gradient-27" x1="50.31" y1="92.17" x2="48.65" y2="99.71" gradientUnits="userSpaceOnUse"><stop offset="0" stop-color="#fff229"/><stop offset="0.2" stop-color="#eae931"/><stop offset="0.51" stop-color="#d0de3c"/><stop offset="0.79" stop-color="#c0d743"/><stop offset="1" stop-color="#bad545"/></linearGradient><linearGradient id="linear-gradient-28" x1="-9120.04" y1="99.58" x2="-9106.51" y2="99.58" gradientTransform="matrix(-1, 0, 0, 1, -9051.46, 0)" xlink:href="#linear-gradient-13"/><linearGradient id="linear-gradient-29" x1="41.29" y1="113.95" x2="31.94" y2="120.29" xlink:href="#linear-gradient-12"/><linearGradient id="linear-gradient-30" x1="35.59" y1="98.55" x2="47.06" y2="95.29" xlink:href="#linear-gradient-11"/><linearGradient id="linear-gradient-31" x1="40.28" y1="107.3" x2="46.88" y2="110.1" xlink:href="#linear-gradient-11"/><linearGradient id="linear-gradient-32" x1="40.57" y1="99.94" x2="45.93" y2="94.71" xlink:href="#linear-gradient-13"/><linearGradient id="linear-gradient-33" x1="75.88" y1="125.22" x2="77.18" y2="131.58" xlink:href="#linear-gradient-10"/><linearGradient id="linear-gradient-34" x1="74.67" y1="145.78" x2="80.36" y2="147.2" xlink:href="#linear-gradient-11"/><linearGradient id="linear-gradient-35" x1="75.41" y1="147.46" x2="73.42" y2="156.34" xlink:href="#linear-gradient-12"/><linearGradient id="linear-gradient-36" x1="111.56" y1="134.87" x2="115.89" y2="134.87" xlink:href="#linear-gradient-13"/><linearGradient id="linear-gradient-37" x1="117.2" y1="136.9" x2="121.85" y2="136.9" xlink:href="#linear-gradient-13"/><linearGradient id="linear-gradient-38" x1="112.76" y1="135.79" x2="123.86" y2="134.66" xlink:href="#linear-gradient-11"/><linearGradient id="linear-gradient-39" x1="73.51" y1="140.89" x2="74.71" y2="136.64" xlink:href="#linear-gradient-11"/><linearGradient id="linear-gradient-40" x1="73.86" y1="139.27" x2="77.28" y2="127.2" xlink:href="#linear-gradient-11"/><linearGradient id="linear-gradient-41" x1="94.73" y1="151.19" x2="100.46" y2="130.98" xlink:href="#linear-gradient-11"/><linearGradient id="linear-gradient-42" x1="100.86" y1="152.36" x2="101.94" y2="142.58" xlink:href="#linear-gradient-13"/><linearGradient id="linear-gradient-43" x1="-9173" y1="150.61" x2="-9159.46" y2="150.61" gradientTransform="matrix(-1, 0, 0, 1, -9051.46, 0)" xlink:href="#linear-gradient-13"/><linearGradient id="linear-gradient-44" x1="112.01" y1="164.57" x2="104.67" y2="167.63" xlink:href="#linear-gradient-12"/><linearGradient id="linear-gradient-45" x1="111.4" y1="164.41" x2="105.32" y2="160.2" xlink:href="#linear-gradient-12"/><linearGradient id="linear-gradient-46" x1="109.09" y1="148.88" x2="115.5" y2="152.79" xlink:href="#linear-gradient-11"/><linearGradient id="linear-gradient-47" x1="120.82" y1="157.88" x2="124.66" y2="164.24" xlink:href="#linear-gradient-11"/><linearGradient id="linear-gradient-48" x1="118.72" y1="152.03" x2="121.01" y2="157.92" xlink:href="#linear-gradient-11"/><linearGradient id="linear-gradient-49" x1="-9132.16" y1="132.94" x2="-9122.13" y2="132.94" gradientTransform="matrix(-1, 0, 0, 1, -9051.46, 0)" xlink:href="#linear-gradient-10"/><radialGradient id="radial-gradient-3" cx="-9085.64" cy="131.21" r="4.23" xlink:href="#radial-gradient"/><radialGradient id="radial-gradient-4" cx="-9085.55" cy="131.44" r="3.95" xlink:href="#radial-gradient-2"/><linearGradient id="linear-gradient-50" x1="99.37" y1="142.06" x2="97.71" y2="149.6" xlink:href="#linear-gradient-27"/><linearGradient id="linear-gradient-51" x1="-9169.09" y1="149.47" x2="-9155.56" y2="149.47" gradientTransform="matrix(-1, 0, 0, 1, -9051.46, 0)" xlink:href="#linear-gradient-13"/><linearGradient id="linear-gradient-52" x1="90.34" y1="163.85" x2="81" y2="170.18" xlink:href="#linear-gradient-12"/><linearGradient id="linear-gradient-53" x1="84.65" y1="148.44" x2="96.12" y2="145.19" xlink:href="#linear-gradient-11"/><linearGradient id="linear-gradient-54" x1="89.34" y1="157.19" x2="95.93" y2="159.99" xlink:href="#linear-gradient-11"/><linearGradient id="linear-gradient-55" x1="89.63" y1="149.84" x2="94.98" y2="144.6" xlink:href="#linear-gradient-13"/></defs><title>frog-jar</title><g class="cls-14"><path class="cls-15" d="M126.16,57.26c-.83-1.21-1.91-15-1.91-15H19.75s-1.08,13.76-1.91,15C14.64,61.9,0,63.29,0,74.95V183.51c0,2.86,2.85,5.18,6.37,5.18H137.63c3.52,0,6.37-2.32,6.37-5.18V74.95C144,63.29,129.36,61.9,126.16,57.26Z"/></g><path class="cls-16" d="M121.07,57.26c-.83-1.21-1.91-15-1.91-15H24.85s-1.08,13.76-1.92,15c-3.2,4.63-17.84,6-17.84,17.68V183.51c0,2.86,2.85,5.18,6.37,5.18H132.53c3.52,0,6.37-2.32,6.37-5.18V74.95C138.9,63.29,124.26,61.9,121.07,57.26Z"/><g class="cls-17"><path class="cls-18" d="M118.52,57.26c-.83-1.21-46.52-.56-46.52-.56v132h58c3.52,0,6.37-2.32,6.37-5.18V74.95C136.35,63.29,121.71,61.9,118.52,57.26Z"/></g><path class="cls-19" d="M124.24,43.34h.09c-.06-.65-.09-1-.09-1H72v1Z"/><g class="cls-20"><path class="cls-21" d="M132.91,175.54c0,2.86-2.85,5.18-6.37,5.18H105.77c-3.52,0-6.37-2.32-6.37-5.18V75.72c0-2.86,2.85-5.18,6.37-5.18h20.77c3.52,0,6.37,2.32,6.37,5.18Z"/></g><path class="cls-22" d="M72,52.15h53.21c-.09-.62-.17-1.26-.25-1.9H72Z"/><path class="cls-23" d="M118.52,57.26a17.64,17.64,0,0,1-.86-4.34H101.73a17.68,17.68,0,0,0,.86,4.34c3.2,4.63,17.84,6,17.84,17.68V183.51c0,2.86-2.85,5.18-6.37,5.18H130c3.52,0,6.37-2.32,6.37-5.18V74.95C136.35,63.29,121.71,61.9,118.52,57.26Z"/><g class="cls-24"><path class="cls-21" d="M129.66,175.54c0,2.86-1.36,5.18-3,5.18h-9.87c-1.67,0-3-2.32-3-5.18V75.72c0-2.86,1.36-5.18,3-5.18h9.87c1.67,0,3,2.32,3,5.18Z"/></g><g class="cls-7"><path class="cls-25" d="M143.85,175.51c0,2.86-3.14,10.36-7,10.36,0,0-25.22-3.38-64.84-3.38v6.2h65c3.87,0,7-2.32,7-5.18v-8.92A6,6,0,0,0,143.85,175.51Z"/></g><g class="cls-26"><path class="cls-27" d="M143.85,175.51c0,2.86-3.14,10.36-7,10.36,0,0-25.22-3.38-64.84-3.38v6.2h65c3.87,0,7-2.32,7-5.18v-8.92A6,6,0,0,0,143.85,175.51Z"/></g><path class="cls-28" d="M114.43,185.88S100,184.05,72,184.05v3.35h42.53C117.27,187.4,117.17,185.88,114.43,185.88Z"/><path class="cls-29" d="M72,44.72h52.45l-.13-1.39H72Z"/><path class="cls-27" d="M126.5,44.66H72v5.56h54.5a2.8,2.8,0,0,0,0-5.56Z"/><path class="cls-30" d="M124.91,44.72H72v4.73h52.91a2.36,2.36,0,1,0,0-4.73Z"/><path class="cls-31" d="M121.16,45.49H72v3.76h49.16a1.89,1.89,0,1,0,0-3.76Z"/><g class="cls-32"><path class="cls-21" d="M119.39,47.22c0-.52-.61-1-1.36-1H76.55c-.75,0-1.36.43-1.36,1s.61,1,1.36,1H118C118.78,48.17,119.39,47.75,119.39,47.22Z"/></g><g class="cls-33"><path class="cls-18" d="M25.48,57.26c.83-1.21,46.52-.56,46.52-.56v132H14c-3.52,0-6.37-2.32-6.37-5.18V74.95C7.65,63.29,22.29,61.9,25.48,57.26Z"/></g><path class="cls-19" d="M19.76,43.34h-.09c.06-.65.09-1,.09-1H72v1Z"/><path class="cls-34" d="M7.56,188.69C8.1,192.38,9.44,195,11,195H133c1.57,0,2.92-2.62,3.46-6.31Z"/><path class="cls-35" d="M10,190.49a3.6,3.6,0,0,0,3.35,2.4H130.7a3.6,3.6,0,0,0,3.35-2.4Z"/><path class="cls-22" d="M72,52.15H18.79c.09-.62.17-1.26.25-1.9H72Z"/><g class="cls-7"><path class="cls-25" d="M.15,175.51c0,2.86,3.14,10.36,7,10.36,0,0,25.22-3.38,64.84-3.38v6.2H7c-3.87,0-7-2.32-7-5.18v-8.92A6,6,0,0,1,.15,175.51Z"/></g><g class="cls-36"><path class="cls-27" d="M.15,175.51c0,2.86,3.14,10.36,7,10.36,0,0,25.22-3.38,64.84-3.38v6.2H7c-3.87,0-7-2.32-7-5.18v-8.92A6,6,0,0,1,.15,175.51Z"/></g><path class="cls-28" d="M29.57,185.88S44,184.05,72,184.05v3.35H29.47C26.73,187.4,26.83,185.88,29.57,185.88Z"/><path class="cls-29" d="M72,44.72H19.55c.05-.54.1-1,.13-1.39H72Z"/><path class="cls-37" d="M7.56,188.69A7.13,7.13,0,0,0,8,189.9H136a7.1,7.1,0,0,0,.43-1.21Z"/><path class="cls-27" d="M17.5,44.66H72v5.56H17.5a2.8,2.8,0,0,1,0-5.56Z"/><path class="cls-30" d="M19.09,44.72H72v4.73H19.09a2.36,2.36,0,1,1,0-4.73Z"/><path class="cls-31" d="M22.84,45.49H72v3.76H22.84a1.89,1.89,0,1,1,0-3.76Z"/><g class="cls-38"><path class="cls-39" d="M126,191.53c0-.37-.61-.66-1-.66H83.45c-1.07,0-1.68.3-1.68.66s.61.66,1.36.66h41.49C125.37,192.19,126,191.89,126,191.53Z"/></g><g class="cls-40"><path class="cls-21" d="M13.86,75.72c0-2.86,1.75-5.18,3.91-5.18H30.53c2.16,0,3.91,2.32,3.91,5.18v99.81c0,2.86-1.75,5.18-3.91,5.18H17.77c-2.16,0-3.91-2.32-3.91-5.18Z"/></g><path class="cls-23" d="M62.66,57.85H35.12a14.83,14.83,0,0,0-4.31,2.73,17.1,17.1,0,0,0-3.66,3.75H62.27A59,59,0,0,1,62.66,57.85Z"/><path class="cls-19" d="M123.93,43.56H124c-.06-.65-.09-1-.09-1H71.7v1.05Z"/><path class="cls-29" d="M71.7,45h52.44l-.13-1.4H71.7Z"/><path class="cls-19" d="M19.47,43.56h-.09c.06-.65.09-1,.09-1H71.7v1.05Z"/><path class="cls-29" d="M71.7,45H19.26c.05-.54.1-1,.13-1.4H71.7Z"/><g class="cls-41"><path class="cls-42" d="M64.37,31a.59.59,0,0,1-.64.52H21.05a.59.59,0,0,1-.64-.52h0a.59.59,0,0,1,.64-.52H63.74a.59.59,0,0,1,.64.52Z"/></g><path class="cls-43" d="M127.37,26.48H71.7v21h55.67c3.73,0,6.75-3.76,6.75-8.39V34.87C134.12,30.24,131.1,26.48,127.37,26.48Z"/><path class="cls-43" d="M124,27.53H71.7V46.4H124c3.54,0,6.41-3.38,6.41-7.55V35.08C130.42,30.91,127.55,27.53,124,27.53Z"/><g class="cls-44"><path class="cls-45" d="M74.06,23.34c0,.46.28.84.62.84H116c.34,0,.62-.38.62-.84h0c0-.46-.28-.84-.62-.84H74.68c-.34,0-.62.38-.62.84Z"/></g><path class="cls-43" d="M16,26.48H71.7v21H16c-3.73,0-6.75-3.76-6.75-8.39V34.87C9.28,30.24,12.3,26.48,16,26.48Z"/><path class="cls-43" d="M19.39,27.53H71.7V46.4H19.39C15.85,46.4,13,43,13,38.85V35.08C13,30.91,15.85,27.53,19.39,27.53Z"/><path class="cls-46" d="M117.2,21.81h-91c-3.23,0-5.84,4.56-5.84,10.18v5.09c0,5.62,2.62,10.18,5.84,10.18h91c3.23,0,5.84-4.56,5.84-10.18V32C123,26.37,120.43,21.81,117.2,21.81Z"/><path class="cls-47" d="M23,80.65c1.16,2.07,4.14,3,6.65,2s3.61-3.41,2.45-5.48-4.14-3-6.65-2S21.85,78.57,23,80.65Z"/><path class="cls-48" d="M27.88,98.21a3.41,3.41,0,0,1,2.6.61,3,3,0,0,1,.41-1,7.73,7.73,0,0,0,.4-1.11c.19-.51.37-1,.54-1.52l0-.1L28.22,93l-.08.21c-.42,1.2-.84,2.4-1.28,3.6a6,6,0,0,1-.77,1.46,3.43,3.43,0,0,1-1,.76l-.34.21C26,99.55,26.95,98.67,27.88,98.21Z"/><path class="cls-49" d="M35.79,100.85a1.78,1.78,0,0,0-2.16-.58,1.82,1.82,0,0,0-.47.27c-1-.25-2.19-.36-2.6-1.17a.94.94,0,0,1-.09-.54,3.41,3.41,0,0,0-2.6-.61c-.93.46-1.86,1.33-3.1,1-1.42.82-3.3,1.17-4.74,2a10.58,10.58,0,0,0-2.54,1.95c-.46.49-1.22,1.09-1.4,1.74a2.35,2.35,0,0,0-1,.14c-.92.35-1.35,1.18-1,1.86a1.94,1.94,0,0,0,2.35.6c.9-.34,1.33-1.14,1-1.81a11.76,11.76,0,0,0,1.4-1.6,10.49,10.49,0,0,1,2.73-2.38c.36-.21,2.46-1.19,2.46-.1,0,.31-.51.69-.69.94a12.06,12.06,0,0,0-.87,1.4,7.48,7.48,0,0,0-.91,2.92,2.2,2.2,0,0,0-.49.12,1.44,1.44,0,0,0-.93,2,2.05,2.05,0,0,0,2.48.74,1.44,1.44,0,0,0,.93-2,1.51,1.51,0,0,0-.25-.32,9.13,9.13,0,0,0,1-3.1,6.69,6.69,0,0,1,1.05-2.09c.37-.56.58-1,1.32-1.27a4.58,4.58,0,0,1,.63,2.6A7.44,7.44,0,0,0,27.5,105c-.72.43-1,1.13-.72,1.69a2.08,2.08,0,0,0,2.51.51c1-.39,1.53-1.24,1.16-1.91a1.67,1.67,0,0,0-1.48-.69c0-.18,0-.37,0-.57-.05-.77-.48-2.65.32-3.19.41-.28,1-.07,1.38.09a17.23,17.23,0,0,0,1.71.55l.31.08a1,1,0,0,0,.12.42,1.78,1.78,0,0,0,2.16.58A1.25,1.25,0,0,0,35.79,100.85Z"/><path class="cls-50" d="M62.51,84.66s2.14.84,4.33,1.89a27.72,27.72,0,0,1-1.89-3.13A9.53,9.53,0,0,0,62.51,84.66Z"/><path class="cls-51" d="M72.79,90.25s-1.22-4.63-4.65-6.5a17.64,17.64,0,0,1,1.12,4c.44.26.85.51,1.19.75Z"/><path class="cls-52" d="M67.15,83.31a3.6,3.6,0,0,0-2.2.1,27.72,27.72,0,0,0,1.89,3.13c.84.4,1.69.83,2.43,1.26a17.64,17.64,0,0,0-1.12-4A6.24,6.24,0,0,0,67.15,83.31Z"/><path class="cls-53" d="M22.53,90.33a12.34,12.34,0,0,1,1.67.69l.13,0c3.54-.69,7.08.17,10.62-1a10.39,10.39,0,0,0,1.14-.29c-7.42,0-14.94-.55-21.67-3.1C16.25,88.28,22.3,90.37,22.53,90.33Z"/><path class="cls-54" d="M37.25,88.77c.37-3.79-2.51-7.17-5-10.39a48.38,48.38,0,0,0-5.61.74,35.43,35.43,0,0,0-7.33,1.12c-4.15,1.06-6.11,4-5.27,5.8a1.94,1.94,0,0,0,.43.54c6.73,2.55,14.25,3.07,21.67,3.1C36.71,89.48,37.25,89.19,37.25,88.77Z"/><path class="cls-55" d="M72.68,91.89a2.21,2.21,0,0,0,.11-1.64h0l-2.34-1.7C68.1,86.86,59,83.19,59,83.19s-5.18-1.77-8.85-1.47A14.89,14.89,0,0,1,40,79.36c-1.76-1.09-5-1.17-7.85-1,2.54,3.22,5.41,6.6,5,10.39,0,.69-1.46,1-2.29,1.2-3.54,1.2-7.08.34-10.62,1l-.13,0c1.08.49,2.55,1.2,4,2l3.64,2.09a9.82,9.82,0,0,1,1.26.95,42.09,42.09,0,0,0,5.45,3.75,40.42,40.42,0,0,1-4-6.89,12.43,12.43,0,0,1,2.11.09c-.36-.39-.09-.72-.31-1.18,11.4,0,21.64,2.36,32.43,5.36l1-.66A7,7,0,0,0,72.68,91.89Z"/><path class="cls-56" d="M36.68,93c5.66.72,9.24,5.31,12.61,9,0-.22,0-.34,0-.34,1,1.13,8.69-.35,9.47-.51,5.13-1.38,7.54-2.4,10-4-10.79-3-20.8-5.36-32.2-5.36C36.81,92.26,36.32,92.58,36.68,93Z"/><path class="cls-57" d="M72.48,95.72c-.54-1.3-1.19-2.14-2.5-1-4.66,3.79-8.5,7.78-11,12.56,2.25-1.33,4.87-2.08,7.22-3.36l-.88.36S71.77,98.93,72.48,95.72Z"/><path class="cls-58" d="M58.09,113.12a23.69,23.69,0,0,0-3.51.5,2.53,2.53,0,0,0-2.27-.68c-1.22.16-2.08.93-1.93,1.71s1.26,1.29,2.48,1.13a2.23,2.23,0,0,0,1.89-1.21c1.21.22,3.12.37,4,.64,1.43.45,2.54,1.2,1.7,2.47a2.78,2.78,0,0,0-.37.84h0c-1.16.15-2,1-1.77,1.93a2.08,2.08,0,0,0,2.41,1.37c1.16-.15,2-1,1.78-1.93a1.4,1.4,0,0,0-.25-.57c.18-.18.37-.38.55-.59a8.39,8.39,0,0,0-4-4.49C58.73,114,58.29,113.6,58.09,113.12Z"/><path class="cls-59" d="M58,112.45c.93-.79,2.06-.52,3.15-.46-.4-.21-1-.48-1.52-.7a30.18,30.18,0,0,1-3.34-1.65,1.26,1.26,0,0,0-1,1.34,1.58,1.58,0,0,0,1.84,1l.08,0a3.45,3.45,0,0,0,.82,1A.79.79,0,0,1,58,112.45Z"/><path class="cls-60" d="M59,107.1c2.54-4.71,6.34-8.66,10.95-12.41,1.31-1.12,2-.27,2.5,1a2.08,2.08,0,0,0,0-.93,3.49,3.49,0,0,0-3.92-2.53c-4,4.92-10.53,9.34-13.53,14.64A2,2,0,0,0,55.5,109c.28.24.55.46.82.66l.92.5A4,4,0,0,1,59,107.1Z"/><path class="cls-61" d="M68.89,112.55c-1.89-.17-7.09-.23-7.09-.23l-.61-.33c-1.09-.06-2.22-.33-3.15.46a.79.79,0,0,0,0,.5l.2.17h-.14c.2.48.64.92.68,1.14a8.39,8.39,0,0,1,4,4.49c1-1.2,2.06-2.75,3-2.87,1.31-.17,5.09.76,9.1-3s10.93-8.15,10.54-10.13a14.51,14.51,0,0,0-5.12,1.8C79.41,105.29,70.68,112.72,68.89,112.55Z"/><path class="cls-62" d="M77.65,99.81c-3.95,1.11-9.38,3.24-11.48,4.08-2.35,1.28-5,2-7.22,3.36l.09-.15a4,4,0,0,0-1.79,3,18.14,18.14,0,0,0,2.42,1.15,10.21,10.21,0,0,0,5.7-.76c4-1.42,15-6.05,15-6.05l-.07.06a14.51,14.51,0,0,1,5.12-1.8.94.94,0,0,0,0-.09C84.76,100.73,82.64,98.42,77.65,99.81Z"/><path class="cls-63" d="M22.08,84.78c1.16,2.07,4.14,3,6.65,2s3.61-3.41,2.45-5.48-4.14-3-6.65-2S20.92,82.71,22.08,84.78Z"/><path class="cls-64" d="M22.31,84.84a5,5,0,0,0,6,1.84c2.28-.87,3.28-3.1,2.23-5a5,5,0,0,0-6-1.84C22.25,80.73,21.26,83,22.31,84.84Z"/><path class="cls-65" d="M22.43,84.89a4.67,4.67,0,0,0,5.64,1.71c2.13-.81,3.06-2.89,2.08-4.65a4.66,4.66,0,0,0-5.64-1.71C22.38,81.06,21.45,83.14,22.43,84.89Z"/><path class="cls-66" d="M63.07,95.43a38.2,38.2,0,0,1-3.86-.82c-.81-.21-1.63-.36-2.4-.63-.39-.13-.78-.16-1.19-.25s-.87-.26-1.32-.35c-1.19-.23-2.34-.43-3.54-.59-.74-.1-1.5-.17-2.24-.3s-1.39-.4-2.11-.58a11.26,11.26,0,0,0-2.7-.3c-.66,0-1.26.17-2,.11-.47,0-.93-.25-1.4-.31a22.58,22.58,0,0,0-2.66,0,3.67,3.67,0,0,0-1.91.5c-.38.23-.56.44-.38.8a1.1,1.1,0,0,0,.76.57c.39.13.53.08.62-.12-.09-.35-.3-.81,0-.81a6.49,6.49,0,0,1,2.59-.17l.06,0a1.84,1.84,0,0,1,.58.22c.16.11.17.24.24.4.14.31.23.64.39.94s.55,1,.9.83.07-1,0-1.23c-.07-.46-.24-.78.48-.78s1.27,0,1.52.74.25,1.44.46,2.15a7.12,7.12,0,0,0,.67,1.66c.18.3.66,1,1.2.94s0-.71-.07-.9a13.19,13.19,0,0,1-.59-1.41,4.47,4.47,0,0,1-.14-1.5,1.49,1.49,0,0,1,.72-1.47,1.91,1.91,0,0,1,2.5.62c.76,1,.53,2.55.3,3.69a4.14,4.14,0,0,0,.15,2.86,1,1,0,0,0,1,.42c.4-.07.36-.25.4-.58.1-.92,0-1.87.08-2.8a8.08,8.08,0,0,1,.59-2.55c.26-.58.69-1.21,1.53-.9,1.48.54,1.35,2.11,1.26,3.24,0,.46-.91,3.88-.12,3.94.42,0,.83-.63,1-.88.28-.51.57-1,.81-1.56.44-1,.69-2,1.16-2.9.2-.4.65-.75,1.09-.34A1.74,1.74,0,0,1,58,96.16c0,.72,0,1.44,0,2.16,0,.3,0,1,.3,1.21s.54-.15.71-.39a14.47,14.47,0,0,0,.86-1.34,9.54,9.54,0,0,1,.4-.95c.63-.93,2.09-.51,3.11-.46.36,0,.93,0,1-.4S63.42,95.48,63.07,95.43Z"/><path class="cls-67" d="M68.58,92.26a4.86,4.86,0,0,0-3,1.32s-9.47,8.75-10.54,13.31C58,101.6,64.61,97.18,68.58,92.26Z"/><path class="cls-68" d="M37.87,115.2c-.72-.45.28-1.54.42-2.6l-.48.28a24.89,24.89,0,0,0-1.71-2.07,1,1,0,0,0,.07-1,1.59,1.59,0,0,0-1.92-.54,1.12,1.12,0,0,0-.75,1.56,1.52,1.52,0,0,0,1.59.63,24.29,24.29,0,0,0,2.07,2.8s-5.58-1-7.39-.24a3,3,0,0,0-.37.18,2.16,2.16,0,0,0-1.49,0c-.88.34-1.29,1.15-.92,1.82a1.87,1.87,0,0,0,2.27.6,1.43,1.43,0,0,0,1-1.4c2-1.11,6.56.62,6.56.62a7.78,7.78,0,0,0-6.15,4.47l0,.06a1.61,1.61,0,0,0-.54.1,1.07,1.07,0,0,0-.67,1.53,1.53,1.53,0,0,0,1.85.57A1.07,1.07,0,0,0,32,121a1.16,1.16,0,0,0-.28-.33,6.6,6.6,0,0,1,1.19-2.09c1.41-2,5.45-1.61,5.45-1.61a12.19,12.19,0,0,0,0,4.16,2.79,2.79,0,0,0,.37.79,1.14,1.14,0,0,0-.36,1.45,1.83,1.83,0,0,0,2.22.58c.86-.33,1.27-1.12.91-1.77a1.78,1.78,0,0,0-2-.64v0c-1.22-2.18.55-5.5.55-5.5l1-.8A5.56,5.56,0,0,1,37.87,115.2Z"/><path class="cls-69" d="M46.83,101.15l-.42-.37c-3.61-2.82-8.27-4.5-10.95-7.9-.29,0-.59,0-.89,0a40.42,40.42,0,0,0,4,6.89C40.62,101,42.41,102,42.41,102l-.13.56A7,7,0,0,1,46.83,101.15Z"/><path class="cls-70" d="M42.28,102.6c-.46,1.89-1.91,7.9-2.08,8.45s-1.25,1.17-1.91,1.55c-.14,1.06-1.14,2.15-.42,2.6a5.56,5.56,0,0,0,3.12,0c1-.85,2.79-2.3,4.71-4.07S48.6,106,49,103.76a11.54,11.54,0,0,0-2.18-2.6A7,7,0,0,0,42.28,102.6Z"/><path class="cls-71" d="M35.46,92.88c2.68,3.41,7.34,5.08,10.95,7.9a11.8,11.8,0,0,1,2.6,3c.15-.77.23-1.4.27-1.76C45.68,98,41.84,93.05,35.46,92.88Z"/><path class="cls-72" d="M25.09,85.27l1-4.4A5.72,5.72,0,0,0,25.09,85.27Z"/><ellipse class="cls-21" cx="27.54" cy="81.93" rx="0.47" ry="0.39"/><path class="cls-21" d="M31.86,79.51h.43c.28,0,.7,0,1.22,0s1.17.07,1.9.16a20.72,20.72,0,0,1,2.43.42,10.76,10.76,0,0,1,2.73,1l.34.19.31.19.31.15c.11,0,.22.1.34.13a8.62,8.62,0,0,0,1.51.37,33.93,33.93,0,0,0,3.41.27c1.18.06,2.39.11,3.6.24a24.44,24.44,0,0,1,3.58.63,15.69,15.69,0,0,1,1.69.53l1.56.59,2.95,1.13,2.63,1L64,87l1,.44,1.69.72,1.08.47.38.17-.4-.13-1.13-.38-1.75-.6-1.07-.37-1.2-.41L59.92,86l-3-1-1.58-.56c-.52-.18-1.06-.34-1.61-.48a23.73,23.73,0,0,0-3.44-.58c-1.17-.13-2.37-.19-3.55-.26a30.35,30.35,0,0,1-3.5-.34,8.57,8.57,0,0,1-1.65-.44c-.13,0-.26-.11-.38-.17l-.37-.2-.32-.21-.29-.18a10.81,10.81,0,0,0-2.52-1A24,24,0,0,0,35.36,80c-.71-.12-1.34-.22-1.86-.28l-1.21-.13Z"/><path class="cls-73" d="M72.06,130.54c1.16,2.07,4.14,3,6.65,2s3.61-3.41,2.45-5.48-4.14-3-6.65-2S70.9,128.47,72.06,130.54Z"/><path class="cls-74" d="M76.93,148.11a3.41,3.41,0,0,1,2.6.61,3,3,0,0,1,.41-1,7.73,7.73,0,0,0,.4-1.11c.19-.51.37-1,.54-1.52l0-.1-3.64-2.09-.08.21c-.42,1.2-.84,2.4-1.28,3.6a6,6,0,0,1-.77,1.46,3.43,3.43,0,0,1-1,.76l-.34.21C75.07,149.44,76,148.57,76.93,148.11Z"/><path class="cls-75" d="M84.84,150.75a1.78,1.78,0,0,0-2.16-.58,1.82,1.82,0,0,0-.47.27c-1-.25-2.19-.36-2.6-1.17a.94.94,0,0,1-.09-.54,3.41,3.41,0,0,0-2.6-.61c-.93.46-1.86,1.33-3.1,1-1.42.82-3.3,1.17-4.74,2a10.58,10.58,0,0,0-2.54,1.95c-.46.49-1.22,1.09-1.4,1.74a2.35,2.35,0,0,0-1,.14c-.92.35-1.35,1.18-1,1.86a1.94,1.94,0,0,0,2.35.6c.9-.34,1.33-1.14,1-1.81a11.76,11.76,0,0,0,1.4-1.6,10.49,10.49,0,0,1,2.73-2.38c.36-.21,2.46-1.19,2.46-.1,0,.31-.51.69-.69.94a12.06,12.06,0,0,0-.87,1.4,7.48,7.48,0,0,0-.91,2.92,2.2,2.2,0,0,0-.49.12,1.44,1.44,0,0,0-.93,2,2.05,2.05,0,0,0,2.48.74,1.44,1.44,0,0,0,.93-2,1.51,1.51,0,0,0-.25-.32,9.13,9.13,0,0,0,1-3.1,6.69,6.69,0,0,1,1.05-2.09c.37-.56.58-1,1.32-1.27a4.58,4.58,0,0,1,.63,2.6,7.44,7.44,0,0,0,.21,1.48c-.72.43-1,1.13-.72,1.69a2.08,2.08,0,0,0,2.51.51c1-.39,1.53-1.24,1.16-1.91a1.67,1.67,0,0,0-1.48-.69c0-.18,0-.37,0-.57-.05-.77-.48-2.65.32-3.19.41-.28,1-.07,1.38.09a17.23,17.23,0,0,0,1.71.55l.31.08a1,1,0,0,0,.12.42,1.78,1.78,0,0,0,2.16.58A1.25,1.25,0,0,0,84.84,150.75Z"/><path class="cls-76" d="M111.56,134.55s2.14.84,4.33,1.89a27.72,27.72,0,0,1-1.89-3.13A9.53,9.53,0,0,0,111.56,134.55Z"/><path class="cls-77" d="M121.85,140.15s-1.22-4.63-4.65-6.5a17.64,17.64,0,0,1,1.12,4c.44.26.85.51,1.19.75Z"/><path class="cls-78" d="M116.2,133.2a3.6,3.6,0,0,0-2.2.1,27.72,27.72,0,0,0,1.89,3.13c.84.4,1.69.83,2.43,1.26a17.64,17.64,0,0,0-1.12-4A6.24,6.24,0,0,0,116.2,133.2Z"/><path class="cls-79" d="M71.59,140.23a12.34,12.34,0,0,1,1.67.69l.13,0c3.54-.69,7.08.17,10.62-1a10.39,10.39,0,0,0,1.14-.29c-7.42,0-14.94-.55-21.67-3.1C65.3,138.18,71.36,140.26,71.59,140.23Z"/><path class="cls-80" d="M86.3,138.67c.37-3.79-2.51-7.17-5-10.39a48.38,48.38,0,0,0-5.61.74,35.43,35.43,0,0,0-7.33,1.12c-4.15,1.06-6.11,4-5.27,5.8a1.94,1.94,0,0,0,.43.54c6.73,2.55,14.25,3.07,21.67,3.1C85.76,139.38,86.3,139.09,86.3,138.67Z"/><path class="cls-81" d="M121.74,141.78a2.21,2.21,0,0,0,.11-1.64h0l-2.34-1.7c-2.35-1.7-11.45-5.37-11.45-5.37s-5.18-1.77-8.85-1.47a14.89,14.89,0,0,1-10.11-2.36c-1.76-1.09-5-1.17-7.85-1,2.54,3.22,5.41,6.6,5,10.39,0,.69-1.46,1-2.29,1.2-3.54,1.2-7.08.34-10.62,1l-.13,0c1.08.49,2.55,1.2,4,2L80.92,145a9.82,9.82,0,0,1,1.26.95,42.09,42.09,0,0,0,5.45,3.75,40.42,40.42,0,0,1-4-6.89,12.43,12.43,0,0,1,2.11.09c-.36-.39-.09-.72-.31-1.18,11.4,0,21.64,2.36,32.43,5.36l1-.66A7,7,0,0,0,121.74,141.78Z"/><path class="cls-82" d="M85.73,142.87c5.66.72,9.24,5.31,12.61,9,0-.22,0-.34,0-.34,1,1.13,8.69-.35,9.47-.51,5.13-1.38,7.54-2.4,10-4-10.79-3-20.8-5.36-32.2-5.36C85.87,142.15,85.37,142.48,85.73,142.87Z"/><path class="cls-83" d="M121.54,145.61c-.54-1.3-1.19-2.14-2.5-1-4.66,3.79-8.5,7.78-11,12.56,2.25-1.33,4.87-2.08,7.22-3.36l-.88.36S120.83,148.82,121.54,145.61Z"/><path class="cls-84" d="M107.14,163a23.69,23.69,0,0,0-3.51.5,2.53,2.53,0,0,0-2.27-.68c-1.22.16-2.08.93-1.93,1.71s1.26,1.29,2.48,1.13a2.23,2.23,0,0,0,1.89-1.21c1.21.22,3.12.37,4,.64,1.43.45,2.54,1.2,1.7,2.47a2.78,2.78,0,0,0-.37.84h0c-1.16.15-2,1-1.77,1.93a2.08,2.08,0,0,0,2.41,1.37c1.16-.15,2-1,1.78-1.93a1.4,1.4,0,0,0-.25-.57c.18-.18.37-.38.55-.59a8.39,8.39,0,0,0-4-4.49C107.78,163.94,107.34,163.49,107.14,163Z"/><path class="cls-85" d="M107.09,162.34c.93-.79,2.06-.52,3.15-.46-.4-.21-1-.48-1.52-.7a30.18,30.18,0,0,1-3.34-1.65,1.26,1.26,0,0,0-1,1.34,1.58,1.58,0,0,0,1.84,1l.08,0a3.45,3.45,0,0,0,.82,1A.79.79,0,0,1,107.09,162.34Z"/><path class="cls-86" d="M108.09,157c2.54-4.71,6.34-8.66,10.95-12.41,1.31-1.12,2-.27,2.5,1a2.08,2.08,0,0,0,0-.93,3.49,3.49,0,0,0-3.92-2.53c-4,4.92-10.53,9.34-13.53,14.64a2,2,0,0,0,.45,2.08c.28.24.55.46.82.66l.92.5A4,4,0,0,1,108.09,157Z"/><path class="cls-87" d="M117.94,162.44c-1.89-.17-7.09-.23-7.09-.23l-.61-.33c-1.09-.06-2.22-.33-3.15.46a.79.79,0,0,0,0,.5l.2.17h-.14c.2.48.64.92.68,1.14a8.39,8.39,0,0,1,4,4.49c1-1.2,2.06-2.75,3-2.87,1.31-.17,5.09.76,9.1-3s10.93-8.15,10.54-10.13a14.51,14.51,0,0,0-5.12,1.8C128.47,155.18,119.74,162.61,117.94,162.44Z"/><path class="cls-88" d="M126.7,149.71c-3.95,1.11-9.38,3.24-11.48,4.08-2.35,1.28-5,2-7.22,3.36l.09-.15a4,4,0,0,0-1.79,3,18.14,18.14,0,0,0,2.42,1.15,10.21,10.21,0,0,0,5.7-.76c4-1.42,15-6.05,15-6.05l-.07.06a14.51,14.51,0,0,1,5.12-1.8.94.94,0,0,0,0-.09C133.81,150.62,131.69,148.31,126.7,149.71Z"/><path class="cls-89" d="M71.13,134.67c1.16,2.07,4.14,3,6.65,2s3.61-3.41,2.45-5.48-4.14-3-6.65-2S70,132.6,71.13,134.67Z"/><path class="cls-90" d="M71.37,134.74a5,5,0,0,0,6,1.84c2.28-.87,3.28-3.1,2.23-5a5,5,0,0,0-6-1.84C71.31,130.62,70.31,132.85,71.37,134.74Z"/><path class="cls-91" d="M71.49,134.78a4.67,4.67,0,0,0,5.64,1.71c2.13-.81,3.06-2.89,2.08-4.65a4.66,4.66,0,0,0-5.64-1.71C71.44,130.95,70.51,133,71.49,134.78Z"/><path class="cls-92" d="M112.12,145.32a38.2,38.2,0,0,1-3.86-.82c-.81-.21-1.63-.36-2.4-.63-.39-.13-.78-.16-1.19-.25s-.87-.26-1.32-.35c-1.19-.23-2.34-.43-3.54-.59-.74-.1-1.5-.17-2.24-.3s-1.39-.4-2.11-.58a11.26,11.26,0,0,0-2.7-.3c-.66,0-1.26.17-2,.11-.47,0-.93-.25-1.4-.31a22.58,22.58,0,0,0-2.66,0,3.67,3.67,0,0,0-1.91.5c-.38.23-.56.44-.38.8a1.1,1.1,0,0,0,.76.57c.39.13.53.08.62-.12-.09-.35-.3-.81,0-.81a6.49,6.49,0,0,1,2.59-.17l.06,0a1.84,1.84,0,0,1,.58.22c.16.11.17.24.24.4.14.31.23.64.39.94s.55,1,.9.83.07-1,0-1.23c-.07-.46-.24-.78.48-.78s1.27,0,1.52.74.25,1.44.46,2.15a7.12,7.12,0,0,0,.67,1.66c.18.3.66,1,1.2.94s0-.71-.07-.9a13.19,13.19,0,0,1-.59-1.41,4.47,4.47,0,0,1-.14-1.5,1.49,1.49,0,0,1,.72-1.47,1.91,1.91,0,0,1,2.5.62c.76,1,.53,2.55.3,3.69a4.14,4.14,0,0,0,.15,2.86,1,1,0,0,0,1,.42c.4-.07.36-.25.4-.58.1-.92,0-1.87.08-2.8a8.08,8.08,0,0,1,.59-2.55c.26-.58.69-1.21,1.53-.9,1.48.54,1.35,2.11,1.26,3.24,0,.46-.91,3.88-.12,3.94.42,0,.83-.63,1-.88.28-.51.57-1,.81-1.56.44-1,.69-2,1.16-2.9.2-.4.65-.75,1.09-.34a1.74,1.74,0,0,1,.41,1.14c0,.72,0,1.44,0,2.16,0,.3,0,1,.3,1.21s.54-.15.71-.39a14.47,14.47,0,0,0,.86-1.34,9.54,9.54,0,0,1,.4-.95c.63-.93,2.09-.51,3.11-.46.36,0,.93,0,1-.4S112.47,145.38,112.12,145.32Z"/><path class="cls-93" d="M117.63,142.15a4.86,4.86,0,0,0-3,1.32s-9.47,8.75-10.54,13.31C107.1,151.49,113.67,147.07,117.63,142.15Z"/><path class="cls-94" d="M86.93,165.09c-.72-.45.28-1.54.42-2.6l-.48.28a24.89,24.89,0,0,0-1.71-2.07,1,1,0,0,0,.07-1,1.59,1.59,0,0,0-1.92-.54,1.12,1.12,0,0,0-.75,1.56,1.52,1.52,0,0,0,1.59.63,24.29,24.29,0,0,0,2.07,2.8s-5.58-1-7.39-.24a3,3,0,0,0-.37.18,2.16,2.16,0,0,0-1.49,0c-.88.34-1.29,1.15-.92,1.82a1.87,1.87,0,0,0,2.27.6,1.43,1.43,0,0,0,1-1.4c2-1.11,6.56.62,6.56.62a7.78,7.78,0,0,0-6.15,4.47l0,.06a1.61,1.61,0,0,0-.54.1,1.07,1.07,0,0,0-.67,1.53,1.53,1.53,0,0,0,1.85.57,1.07,1.07,0,0,0,.67-1.53,1.16,1.16,0,0,0-.28-.33A6.6,6.6,0,0,1,82,168.48c1.41-2,5.45-1.61,5.45-1.61a12.19,12.19,0,0,0,0,4.16,2.79,2.79,0,0,0,.37.79,1.14,1.14,0,0,0-.36,1.45,1.83,1.83,0,0,0,2.22.58c.86-.33,1.27-1.12.91-1.77a1.78,1.78,0,0,0-2-.64v0c-1.22-2.18.55-5.5.55-5.5l1-.8A5.56,5.56,0,0,1,86.93,165.09Z"/><path class="cls-95" d="M95.89,151l-.42-.37c-3.61-2.82-8.27-4.5-10.95-7.9-.29,0-.59,0-.89,0a40.42,40.42,0,0,0,4,6.89c2.05,1.25,3.84,2.26,3.84,2.26l-.13.56A7,7,0,0,1,95.89,151Z"/><path class="cls-96" d="M91.33,152.49c-.46,1.89-1.91,7.9-2.08,8.45s-1.25,1.17-1.91,1.55c-.14,1.06-1.14,2.15-.42,2.6a5.56,5.56,0,0,0,3.12,0c1-.85,2.79-2.3,4.71-4.07s2.9-5.19,3.32-7.38a11.54,11.54,0,0,0-2.18-2.6A7,7,0,0,0,91.33,152.49Z"/><path class="cls-97" d="M84.51,142.78c2.68,3.41,7.34,5.08,10.95,7.9a11.8,11.8,0,0,1,2.6,3c.15-.77.23-1.4.27-1.76C94.74,147.92,90.89,142.94,84.51,142.78Z"/><path class="cls-72" d="M74.15,135.17l1-4.4A5.72,5.72,0,0,0,74.15,135.17Z"/><ellipse class="cls-21" cx="76.59" cy="131.83" rx="0.47" ry="0.39"/><path class="cls-21" d="M80.92,129.41h.43c.28,0,.7,0,1.22,0s1.17.07,1.9.16a20.72,20.72,0,0,1,2.43.42,10.76,10.76,0,0,1,2.73,1l.34.19.31.19.31.15c.11,0,.22.1.34.13a8.62,8.62,0,0,0,1.51.37,33.93,33.93,0,0,0,3.41.27c1.18.06,2.39.11,3.6.24a24.44,24.44,0,0,1,3.58.63,15.69,15.69,0,0,1,1.69.53l1.56.59,2.95,1.13,2.63,1,1.17.46,1,.44,1.69.72,1.08.47.38.17-.4-.13-1.13-.38-1.75-.6-1.07-.37-1.2-.41-2.69-.92-3-1-1.58-.56c-.52-.18-1.06-.34-1.61-.48a23.73,23.73,0,0,0-3.44-.58C98.18,133.1,97,133,95.8,133a30.35,30.35,0,0,1-3.5-.34,8.57,8.57,0,0,1-1.65-.44c-.13,0-.26-.11-.38-.17l-.37-.2-.32-.21-.29-.18a10.81,10.81,0,0,0-2.52-1,24,24,0,0,0-2.34-.54c-.71-.12-1.34-.22-1.86-.28l-1.21-.13Z"/><path class="cls-98" d="M46,219.95V206h8.18v1.78h-5.9V212h4.6v1.76h-4.6v6.14Z"/><path class="cls-98" d="M58.59,208.93v1.92a3.48,3.48,0,0,1,3.3-2.1v2.36h-.58a2.78,2.78,0,0,0-2,.68,3.25,3.25,0,0,0-.69,2.36v5.8H56.31v-11Z"/><path class="cls-98" d="M68.78,220.13a5.36,5.36,0,0,1-4-1.57,5.59,5.59,0,0,1-1.56-4.12,5.62,5.62,0,1,1,9.59,4.11A5.65,5.65,0,0,1,68.78,220.13Zm2.37-2.92a4.4,4.4,0,0,0,0-5.55,3.17,3.17,0,0,0-2.35-1,3.07,3.07,0,0,0-2.32,1,3.88,3.88,0,0,0-.94,2.78,3.93,3.93,0,0,0,.92,2.78,3,3,0,0,0,2.29,1A3.24,3.24,0,0,0,71.15,217.21Z"/><path class="cls-98" d="M77.49,218.52A5.81,5.81,0,0,1,76,214.4a5.69,5.69,0,0,1,1.49-4.08,4.91,4.91,0,0,1,3.71-1.57,4.39,4.39,0,0,1,2.29.59A4.16,4.16,0,0,1,85,210.89v-2h2.3v11.2a5.21,5.21,0,0,1-1.43,3.79,5.07,5.07,0,0,1-3.81,1.47,6.52,6.52,0,0,1-3.86-1.05,3.87,3.87,0,0,1-1.68-2.85h2.26a2.45,2.45,0,0,0,1.11,1.39,4,4,0,0,0,2.13.53,2.91,2.91,0,0,0,2.13-.84,3.28,3.28,0,0,0,.85-2.44v-2.24a4.36,4.36,0,0,1-1.54,1.63,4.23,4.23,0,0,1-2.28.61A4.85,4.85,0,0,1,77.49,218.52ZM84,217.14a4.19,4.19,0,0,0,0-5.41,3.19,3.19,0,0,0-2.35-1,3.23,3.23,0,0,0-2.35,1,3.6,3.6,0,0,0-1,2.68,3.78,3.78,0,0,0,1,2.73,3.22,3.22,0,0,0,4.7,0Z"/><path class="cls-98" d="M89.81,212.08A3,3,0,0,1,91,209.71a4.72,4.72,0,0,1,3.1-1,4.59,4.59,0,0,1,3,1,3.44,3.44,0,0,1,1.21,2.59H96a1.83,1.83,0,0,0-.57-1.28,2.06,2.06,0,0,0-1.43-.46,2.28,2.28,0,0,0-1.44.41A1.31,1.31,0,0,0,92,212a1.16,1.16,0,0,0,.66,1,5.11,5.11,0,0,0,1.61.56q1,.18,1.9.44a3.45,3.45,0,0,1,1.61,1,2.57,2.57,0,0,1,.66,1.85,2.79,2.79,0,0,1-1.21,2.34,5.08,5.08,0,0,1-3.11.9,4.87,4.87,0,0,1-3.08-.92,3.46,3.46,0,0,1-1.3-2.62h2.36a1.77,1.77,0,0,0,.6,1.28,2.19,2.19,0,0,0,1.47.46,2.42,2.42,0,0,0,1.48-.41,1.29,1.29,0,0,0,.55-1.09,1.17,1.17,0,0,0-.66-1.06A5.3,5.3,0,0,0,94,215.2q-.95-.19-1.9-.44a3.48,3.48,0,0,1-1.61-.91A2.38,2.38,0,0,1,89.81,212.08Z"/><path class="cls-98" d="M53,3a3.92,3.92,0,0,1,1.44-1,5.68,5.68,0,0,1,2.22-.38A4.82,4.82,0,0,1,59,2.17a3.72,3.72,0,0,1,1.55,1.59,11.43,11.43,0,0,1,1,5.16q0,4.16-1.48,5.9a4.44,4.44,0,0,1-3.54,1.4q-4.26,0-4.9-5a20.45,20.45,0,0,1-.12-2.33,18.62,18.62,0,0,1,.13-2.32,9.12,9.12,0,0,1,.48-2A5,5,0,0,1,53,3Zm6.24,2a2.53,2.53,0,0,0-1-1.32,2.91,2.91,0,0,0-1.63-.45,3.32,3.32,0,0,0-1.55.32,2.55,2.55,0,0,0-1,.82,4.05,4.05,0,0,0-.54,1.29,8.58,8.58,0,0,0-.25,1.52q0,.73,0,1.73t0,1.73a8.58,8.58,0,0,0,.25,1.52,4.05,4.05,0,0,0,.54,1.29,2.55,2.55,0,0,0,1,.82,3.45,3.45,0,0,0,2.9,0,2.65,2.65,0,0,0,1-.82,3.65,3.65,0,0,0,.53-1.3,12,12,0,0,0,.32-2.9,21.67,21.67,0,0,0-.11-2.5A8.29,8.29,0,0,0,59.27,5Z"/><path class="cls-98" d="M64.8,9.7V8.14h8V9.7Z"/><path class="cls-98" d="M77.34,16.24V3.66H75.7V2h3.42v14.2Z"/><path class="cls-98" d="M83.91,3a3.92,3.92,0,0,1,1.44-1,5.68,5.68,0,0,1,2.22-.38,4.82,4.82,0,0,1,2.34.55,3.72,3.72,0,0,1,1.55,1.59,11.43,11.43,0,0,1,1,5.16q0,4.16-1.48,5.9a4.44,4.44,0,0,1-3.54,1.4q-4.26,0-4.9-5a20.45,20.45,0,0,1-.12-2.33,18.61,18.61,0,0,1,.13-2.32,9.09,9.09,0,0,1,.48-2A5,5,0,0,1,83.91,3Zm6.24,2a2.53,2.53,0,0,0-1-1.32,2.91,2.91,0,0,0-1.63-.45A3.32,3.32,0,0,0,86,3.56a2.55,2.55,0,0,0-1,.82,4.08,4.08,0,0,0-.54,1.29,8.63,8.63,0,0,0-.25,1.52q0,.73,0,1.73t0,1.73a8.63,8.63,0,0,0,.25,1.52A4.08,4.08,0,0,0,85,13.46a2.55,2.55,0,0,0,1,.82,3.45,3.45,0,0,0,2.9,0,2.65,2.65,0,0,0,1-.82,3.65,3.65,0,0,0,.53-1.3,12,12,0,0,0,.32-2.9,21.8,21.8,0,0,0-.11-2.5A8.29,8.29,0,0,0,90.15,5Z"/></svg>
