<svg xmlns="http://www.w3.org/2000/svg" xmlns:xlink="http://www.w3.org/1999/xlink" viewBox="0 0 280.8 174.11"><defs><style>.cls-1{isolation:isolate;}.cls-2{fill:#525731;}.cls-10,.cls-11,.cls-12,.cls-13,.cls-14,.cls-15,.cls-16,.cls-17,.cls-18,.cls-19,.cls-20,.cls-21,.cls-22,.cls-23,.cls-24,.cls-25,.cls-26,.cls-27,.cls-28,.cls-29,.cls-3,.cls-30,.cls-31,.cls-32,.cls-33,.cls-34,.cls-35,.cls-36,.cls-37,.cls-38,.cls-39,.cls-4,.cls-40,.cls-41,.cls-42,.cls-43,.cls-44,.cls-45,.cls-46,.cls-47,.cls-48,.cls-49,.cls-5,.cls-50,.cls-51,.cls-52,.cls-53,.cls-54,.cls-55,.cls-56,.cls-57,.cls-58,.cls-6,.cls-7,.cls-8,.cls-9{stroke:#3d4800;}.cls-10,.cls-101,.cls-102,.cls-103,.cls-104,.cls-107,.cls-108,.cls-109,.cls-11,.cls-110,.cls-119,.cls-12,.cls-122,.cls-129,.cls-13,.cls-130,.cls-131,.cls-133,.cls-134,.cls-135,.cls-137,.cls-138,.cls-14,.cls-141,.cls-15,.cls-16,.cls-17,.cls-18,.cls-19,.cls-20,.cls-21,.cls-22,.cls-23,.cls-24,.cls-25,.cls-26,.cls-27,.cls-28,.cls-29,.cls-3,.cls-30,.cls-31,.cls-32,.cls-33,.cls-34,.cls-35,.cls-36,.cls-37,.cls-38,.cls-39,.cls-4,.cls-40,.cls-41,.cls-42,.cls-43,.cls-44,.cls-45,.cls-46,.cls-47,.cls-48,.cls-49,.cls-5,.cls-50,.cls-51,.cls-52,.cls-53,.cls-54,.cls-55,.cls-56,.cls-57,.cls-58,.cls-6,.cls-60,.cls-61,.cls-62,.cls-64,.cls-65,.cls-66,.cls-68,.cls-69,.cls-7,.cls-74,.cls-8,.cls-9,.cls-90,.cls-91,.cls-92,.cls-93,.cls-94{stroke-linecap:round;stroke-linejoin:round;stroke-width:0.32px;}.cls-3{fill:url(#radial-gradient);}.cls-4{fill:url(#radial-gradient-2);}.cls-5{fill:url(#radial-gradient-3);}.cls-6{fill:url(#radial-gradient-4);}.cls-7{fill:url(#radial-gradient-5);}.cls-8{fill:url(#radial-gradient-6);}.cls-9{fill:url(#radial-gradient-7);}.cls-10{fill:url(#radial-gradient-8);}.cls-11{fill:url(#radial-gradient-9);}.cls-12{fill:url(#radial-gradient-10);}.cls-13{fill:url(#radial-gradient-11);}.cls-14{fill:url(#radial-gradient-12);}.cls-15{fill:url(#radial-gradient-13);}.cls-16{fill:url(#radial-gradient-14);}.cls-17{fill:url(#radial-gradient-15);}.cls-18{fill:url(#radial-gradient-16);}.cls-19{fill:url(#radial-gradient-17);}.cls-20{fill:url(#radial-gradient-18);}.cls-21{fill:url(#radial-gradient-19);}.cls-22{fill:url(#radial-gradient-20);}.cls-23{fill:url(#radial-gradient-21);}.cls-24{fill:url(#radial-gradient-22);}.cls-25{fill:url(#radial-gradient-23);}.cls-26{fill:url(#radial-gradient-24);}.cls-27{fill:url(#radial-gradient-25);}.cls-28{fill:url(#radial-gradient-26);}.cls-29{fill:url(#radial-gradient-27);}.cls-30{fill:url(#radial-gradient-28);}.cls-31{fill:url(#radial-gradient-29);}.cls-32{fill:url(#radial-gradient-30);}.cls-33{fill:url(#radial-gradient-31);}.cls-34{fill:url(#radial-gradient-32);}.cls-35{fill:url(#radial-gradient-33);}.cls-36{fill:url(#radial-gradient-34);}.cls-37{fill:url(#radial-gradient-35);}.cls-38{fill:url(#radial-gradient-36);}.cls-39{fill:url(#radial-gradient-37);}.cls-40{fill:url(#radial-gradient-38);}.cls-41{fill:url(#radial-gradient-39);}.cls-42{fill:url(#radial-gradient-40);}.cls-43{fill:url(#radial-gradient-41);}.cls-44{fill:url(#radial-gradient-42);}.cls-45{fill:url(#radial-gradient-43);}.cls-46{fill:url(#radial-gradient-44);}.cls-47{fill:url(#radial-gradient-45);}.cls-48{fill:url(#radial-gradient-46);}.cls-49{fill:url(#radial-gradient-47);}.cls-50{fill:url(#radial-gradient-48);}.cls-51{fill:url(#radial-gradient-49);}.cls-52{fill:url(#radial-gradient-50);}.cls-53{fill:url(#radial-gradient-51);}.cls-54{fill:url(#radial-gradient-52);}.cls-55{fill:url(#radial-gradient-53);}.cls-56{fill:url(#radial-gradient-54);}.cls-57{fill:url(#radial-gradient-55);}.cls-58{fill:url(#radial-gradient-56);}.cls-106,.cls-125,.cls-59,.cls-97{fill:#ffff8c;}.cls-59{opacity:0.72;}.cls-106,.cls-59{mix-blend-mode:overlay;}.cls-101,.cls-102,.cls-103,.cls-104,.cls-107,.cls-119,.cls-129,.cls-130,.cls-131,.cls-133,.cls-134,.cls-135,.cls-137,.cls-138,.cls-141,.cls-60,.cls-61,.cls-62,.cls-64,.cls-65,.cls-66,.cls-68,.cls-69,.cls-74{stroke:#468800;}.cls-60{fill:url(#radial-gradient-57);}.cls-61{fill:url(#radial-gradient-58);}.cls-62{fill:url(#radial-gradient-59);}.cls-100,.cls-105,.cls-111,.cls-112,.cls-113,.cls-114,.cls-116,.cls-121,.cls-124,.cls-128,.cls-132,.cls-136,.cls-142,.cls-150,.cls-63,.cls-67,.cls-70,.cls-72,.cls-75,.cls-76,.cls-84,.cls-87,.cls-89,.cls-96{mix-blend-mode:multiply;}.cls-63{fill:url(#radial-gradient-60);}.cls-64{fill:url(#radial-gradient-61);}.cls-65{fill:url(#radial-gradient-62);}.cls-66{fill:url(#radial-gradient-63);}.cls-136,.cls-142,.cls-150,.cls-67,.cls-75,.cls-84{opacity:0.66;}.cls-67{fill:url(#radial-gradient-64);}.cls-68{fill:url(#radial-gradient-65);}.cls-69{fill:url(#radial-gradient-66);}.cls-105,.cls-125,.cls-70{opacity:0.5;}.cls-71{fill:url(#radial-gradient-67);}.cls-72{opacity:0.64;}.cls-73{fill:url(#radial-gradient-68);}.cls-74{fill:url(#radial-gradient-69);}.cls-75{fill:url(#radial-gradient-70);}.cls-76{opacity:0.74;}.cls-77{fill:url(#radial-gradient-71);}.cls-125,.cls-144,.cls-145,.cls-146,.cls-147,.cls-148,.cls-149,.cls-151,.cls-152,.cls-78,.cls-79,.cls-80,.cls-81,.cls-82,.cls-83,.cls-85,.cls-86,.cls-88,.cls-97,.cls-98{mix-blend-mode:screen;}.cls-78{fill:url(#radial-gradient-72);}.cls-79{fill:url(#radial-gradient-73);}.cls-80{fill:url(#radial-gradient-74);}.cls-81{fill:url(#radial-gradient-75);}.cls-82{fill:url(#radial-gradient-76);}.cls-83{fill:url(#radial-gradient-77);}.cls-84{fill:url(#radial-gradient-78);}.cls-85{fill:url(#radial-gradient-79);}.cls-86{fill:url(#radial-gradient-80);}.cls-127,.cls-88,.cls-89{fill:#abdd00;}.cls-90,.cls-91,.cls-92,.cls-93,.cls-94{stroke:#6d7500;}.cls-90{fill:url(#radial-gradient-81);}.cls-91{fill:url(#radial-gradient-82);}.cls-92{fill:url(#radial-gradient-83);}.cls-93{fill:url(#radial-gradient-84);}.cls-94{fill:url(#radial-gradient-85);}.cls-95{opacity:0.46;}.cls-100,.cls-96{fill:#6d7500;}.cls-96{opacity:0.55;}.cls-97,.cls-98{opacity:0.12;}.cls-98{fill:#363d00;}.cls-104,.cls-99{fill:none;}.cls-100{opacity:0.52;}.cls-101{fill:url(#radial-gradient-86);}.cls-102{fill:url(#radial-gradient-87);}.cls-103{fill:url(#radial-gradient-88);}.cls-105{fill:url(#radial-gradient-89);}.cls-106,.cls-123{opacity:0.2;}.cls-107{fill:url(#radial-gradient-90);}.cls-108,.cls-109,.cls-110{stroke:#4d6a00;}.cls-108{fill:url(#radial-gradient-91);}.cls-109{fill:url(#radial-gradient-92);}.cls-110{fill:url(#radial-gradient-93);}.cls-111,.cls-112,.cls-113,.cls-114,.cls-124{opacity:0.3;}.cls-111{fill:url(#radial-gradient-94);}.cls-112{fill:url(#radial-gradient-95);}.cls-113{fill:url(#radial-gradient-96);}.cls-115{fill:url(#radial-gradient-97);}.cls-116{opacity:0.6;}.cls-117{fill:url(#radial-gradient-98);}.cls-118{fill:url(#radial-gradient-99);}.cls-119{fill:url(#radial-gradient-100);}.cls-120{fill:#468800;}.cls-121{fill:#6eb900;}.cls-122{stroke:#2f3d00;fill:url(#radial-gradient-101);}.cls-123{mix-blend-mode:color-burn;fill:url(#radial-gradient-102);}.cls-124{fill:url(#radial-gradient-103);}.cls-126{opacity:0.61;fill:url(#radial-gradient-104);}.cls-128{opacity:0.79;}.cls-129{fill:url(#radial-gradient-105);}.cls-130{fill:url(#radial-gradient-106);}.cls-131{fill:url(#radial-gradient-107);}.cls-132{fill:url(#radial-gradient-108);}.cls-133{fill:url(#radial-gradient-109);}.cls-134{fill:url(#radial-gradient-110);}.cls-135{fill:url(#radial-gradient-111);}.cls-136{fill:url(#radial-gradient-112);}.cls-137{fill:url(#radial-gradient-113);}.cls-138{fill:url(#radial-gradient-114);}.cls-139{fill:url(#radial-gradient-115);}.cls-140{fill:url(#radial-gradient-116);}.cls-141{fill:url(#radial-gradient-117);}.cls-142{fill:url(#radial-gradient-118);}.cls-143{fill:url(#radial-gradient-119);}.cls-144{fill:url(#radial-gradient-120);}.cls-145{fill:url(#radial-gradient-121);}.cls-146{fill:url(#radial-gradient-122);}.cls-147{fill:url(#radial-gradient-123);}.cls-148{fill:url(#radial-gradient-124);}.cls-149{fill:url(#radial-gradient-125);}.cls-150{fill:url(#radial-gradient-126);}.cls-151{fill:url(#radial-gradient-127);}.cls-152{fill:url(#radial-gradient-128);}</style><radialGradient id="radial-gradient" cx="228.25" cy="46.52" r="188.74" gradientTransform="matrix(-1, -0.05, -0.05, 1, 303.15, -123.46)" gradientUnits="userSpaceOnUse"><stop offset="0" stop-color="#fef458"/><stop offset="0.09" stop-color="#f4e743"/><stop offset="0.39" stop-color="#d4be00"/><stop offset="0.49" stop-color="#b2af00"/><stop offset="0.67" stop-color="#799700"/><stop offset="0.8" stop-color="#580"/><stop offset="0.87" stop-color="#488200"/></radialGradient><radialGradient id="radial-gradient-2" cx="228.25" cy="46.53" r="188.73" xlink:href="#radial-gradient"/><radialGradient id="radial-gradient-3" cx="228.25" cy="46.56" r="188.7" xlink:href="#radial-gradient"/><radialGradient id="radial-gradient-4" cx="228.23" cy="46.55" r="188.7" xlink:href="#radial-gradient"/><radialGradient id="radial-gradient-5" cx="228.25" cy="46.46" r="188.82" xlink:href="#radial-gradient"/><radialGradient id="radial-gradient-6" cx="228.24" cy="46.52" r="188.74" xlink:href="#radial-gradient"/><radialGradient id="radial-gradient-7" cx="228.25" cy="46.41" r="188.89" xlink:href="#radial-gradient"/><radialGradient id="radial-gradient-8" cx="228.25" cy="46.53" r="188.72" xlink:href="#radial-gradient"/><radialGradient id="radial-gradient-9" cx="228.22" cy="46.52" r="188.71" xlink:href="#radial-gradient"/><radialGradient id="radial-gradient-10" cx="228.24" cy="46.53" r="188.73" xlink:href="#radial-gradient"/><radialGradient id="radial-gradient-11" cx="228.26" cy="46.5" r="188.76" xlink:href="#radial-gradient"/><radialGradient id="radial-gradient-12" cx="228.24" cy="46.59" r="188.67" xlink:href="#radial-gradient"/><radialGradient id="radial-gradient-13" cx="228.24" cy="46.49" r="188.76" xlink:href="#radial-gradient"/><radialGradient id="radial-gradient-14" cx="228.24" cy="46.53" r="188.72" xlink:href="#radial-gradient"/><radialGradient id="radial-gradient-15" cx="228.24" cy="46.55" r="188.68" xlink:href="#radial-gradient"/><radialGradient id="radial-gradient-16" cx="228.25" cy="46.52" r="188.73" xlink:href="#radial-gradient"/><radialGradient id="radial-gradient-17" cx="228.24" cy="46.57" r="188.66" xlink:href="#radial-gradient"/><radialGradient id="radial-gradient-18" cx="228.25" cy="46.52" r="188.73" xlink:href="#radial-gradient"/><radialGradient id="radial-gradient-19" cx="228.24" cy="46.56" r="188.68" xlink:href="#radial-gradient"/><radialGradient id="radial-gradient-20" cx="228.23" cy="46.52" r="188.73" xlink:href="#radial-gradient"/><radialGradient id="radial-gradient-21" cx="228.25" cy="46.53" r="188.71" xlink:href="#radial-gradient"/><radialGradient id="radial-gradient-22" cx="228.24" cy="46.51" r="188.75" xlink:href="#radial-gradient"/><radialGradient id="radial-gradient-23" cx="228.24" cy="46.46" r="188.83" xlink:href="#radial-gradient"/><radialGradient id="radial-gradient-24" cx="228.24" cy="46.58" r="188.63" xlink:href="#radial-gradient"/><radialGradient id="radial-gradient-25" cx="228.25" cy="46.47" r="188.82" xlink:href="#radial-gradient"/><radialGradient id="radial-gradient-26" cx="228.24" cy="46.49" r="188.79" xlink:href="#radial-gradient"/><radialGradient id="radial-gradient-27" cx="228.24" cy="46.52" r="188.74" xlink:href="#radial-gradient"/><radialGradient id="radial-gradient-28" cx="228.24" cy="46.5" r="188.76" xlink:href="#radial-gradient"/><radialGradient id="radial-gradient-29" cx="228.25" cy="46.54" r="188.7" xlink:href="#radial-gradient"/><radialGradient id="radial-gradient-30" cx="228.24" cy="46.55" r="188.67" xlink:href="#radial-gradient"/><radialGradient id="radial-gradient-31" cx="228.25" cy="46.52" r="188.73" xlink:href="#radial-gradient"/><radialGradient id="radial-gradient-32" cx="228.24" cy="46.53" r="188.7" xlink:href="#radial-gradient"/><radialGradient id="radial-gradient-33" cx="228.24" cy="46.51" r="188.75" xlink:href="#radial-gradient"/><radialGradient id="radial-gradient-34" cx="228.24" cy="46.54" r="188.69" xlink:href="#radial-gradient"/><radialGradient id="radial-gradient-35" cx="228.23" cy="46.57" r="188.64" xlink:href="#radial-gradient"/><radialGradient id="radial-gradient-36" cx="228.24" cy="46.51" r="188.74" xlink:href="#radial-gradient"/><radialGradient id="radial-gradient-37" cx="228.23" cy="46.53" r="188.72" xlink:href="#radial-gradient"/><radialGradient id="radial-gradient-38" cx="228.25" cy="46.53" r="188.72" xlink:href="#radial-gradient"/><radialGradient id="radial-gradient-39" cx="228.26" cy="46.51" r="188.76" xlink:href="#radial-gradient"/><radialGradient id="radial-gradient-40" cx="228.25" cy="46.49" r="188.79" xlink:href="#radial-gradient"/><radialGradient id="radial-gradient-41" cx="228.24" cy="46.51" r="188.74" xlink:href="#radial-gradient"/><radialGradient id="radial-gradient-42" cx="228.24" cy="46.49" r="188.77" xlink:href="#radial-gradient"/><radialGradient id="radial-gradient-43" cx="228.24" cy="46.5" r="188.77" xlink:href="#radial-gradient"/><radialGradient id="radial-gradient-44" cx="228.24" cy="46.52" r="188.73" xlink:href="#radial-gradient"/><radialGradient id="radial-gradient-45" cx="228.21" cy="46.53" r="188.73" xlink:href="#radial-gradient"/><radialGradient id="radial-gradient-46" cx="228.24" cy="46.51" r="188.74" xlink:href="#radial-gradient"/><radialGradient id="radial-gradient-47" cx="228.24" cy="46.53" r="188.72" xlink:href="#radial-gradient"/><radialGradient id="radial-gradient-48" cx="228.24" cy="46.52" r="188.72" xlink:href="#radial-gradient"/><radialGradient id="radial-gradient-49" cx="228.25" cy="46.53" r="188.71" xlink:href="#radial-gradient"/><radialGradient id="radial-gradient-50" cx="228.25" cy="46.5" r="188.75" xlink:href="#radial-gradient"/><radialGradient id="radial-gradient-51" cx="228.24" cy="46.5" r="188.76" xlink:href="#radial-gradient"/><radialGradient id="radial-gradient-52" cx="228.25" cy="46.54" r="188.7" xlink:href="#radial-gradient"/><radialGradient id="radial-gradient-53" cx="228.24" cy="46.55" r="188.68" xlink:href="#radial-gradient"/><radialGradient id="radial-gradient-54" cx="228.24" cy="46.5" r="188.77" xlink:href="#radial-gradient"/><radialGradient id="radial-gradient-55" cx="228.24" cy="46.52" r="188.74" xlink:href="#radial-gradient"/><radialGradient id="radial-gradient-56" cx="228.23" cy="46.53" r="188.73" xlink:href="#radial-gradient"/><radialGradient id="radial-gradient-57" cx="38.16" cy="90.55" r="129.22" gradientTransform="matrix(-0.84, -0.54, -0.54, 0.84, 331.08, 34.69)" gradientUnits="userSpaceOnUse"><stop offset="0" stop-color="#fef458"/><stop offset="0.16" stop-color="#dbee31"/><stop offset="0.32" stop-color="#bce90d"/><stop offset="0.4" stop-color="#b0e700"/><stop offset="0.54" stop-color="#9fd500"/><stop offset="0.75" stop-color="#8bc000"/><stop offset="0.89" stop-color="#83b800"/></radialGradient><radialGradient id="radial-gradient-58" cx="101.67" cy="114.04" r="129.23" gradientTransform="matrix(-1, -0.05, -0.05, 1, 303.15, -123.46)" xlink:href="#radial-gradient-57"/><radialGradient id="radial-gradient-59" cx="101.68" cy="114.04" r="129.23" gradientTransform="matrix(-1, -0.05, -0.05, 1, 303.15, -123.46)" xlink:href="#radial-gradient-57"/><radialGradient id="radial-gradient-60" cx="101.7" cy="114.04" r="129.22" gradientTransform="matrix(-1, -0.05, -0.05, 1, 303.15, -123.46)" gradientUnits="userSpaceOnUse"><stop offset="0" stop-color="#fef458"/><stop offset="0.12" stop-color="#dbee31"/><stop offset="0.24" stop-color="#bce90d"/><stop offset="0.31" stop-color="#b0e700"/><stop offset="0.63" stop-color="#b0e300"/><stop offset="0.64" stop-color="#afe200"/><stop offset="0.77" stop-color="#97cb00"/><stop offset="0.9" stop-color="#88bd00"/><stop offset="1" stop-color="#83b800"/></radialGradient><radialGradient id="radial-gradient-61" cx="177.35" cy="211.26" r="13.75" gradientTransform="matrix(-1, -0.05, -0.05, 1, 303.15, -123.46)" gradientUnits="userSpaceOnUse"><stop offset="0" stop-color="#fef458"/><stop offset="0.16" stop-color="#dbee31"/><stop offset="0.32" stop-color="#bce90d"/><stop offset="0.4" stop-color="#b0e700"/><stop offset="0.46" stop-color="#a5db00"/><stop offset="0.64" stop-color="#85b800"/><stop offset="0.79" stop-color="#71a300"/><stop offset="0.89" stop-color="#6a9b00"/></radialGradient><radialGradient id="radial-gradient-62" cx="101.67" cy="114.04" r="129.23" gradientTransform="matrix(-1, -0.05, -0.05, 1, 303.15, -123.46)" xlink:href="#radial-gradient-57"/><radialGradient id="radial-gradient-63" cx="150.12" cy="96.79" r="129.24" gradientTransform="matrix(-0.93, 0.36, 0.36, 0.93, 253.1, -128.79)" xlink:href="#radial-gradient-57"/><radialGradient id="radial-gradient-64" cx="150.12" cy="96.8" r="129.23" gradientTransform="matrix(-0.93, 0.36, 0.36, 0.93, 253.1, -128.79)" xlink:href="#radial-gradient-60"/><radialGradient id="radial-gradient-65" cx="101.67" cy="114.05" r="129.23" gradientTransform="matrix(-1, -0.05, -0.05, 1, 303.15, -123.46)" xlink:href="#radial-gradient-57"/><radialGradient id="radial-gradient-66" cx="101.67" cy="114.05" r="129.23" gradientTransform="matrix(-1, -0.05, -0.05, 1, 303.15, -123.46)" xlink:href="#radial-gradient-57"/><radialGradient id="radial-gradient-67" cx="149.2" cy="188.55" r="43.38" xlink:href="#radial-gradient-60"/><radialGradient id="radial-gradient-68" cx="101.67" cy="114.04" r="129.23" xlink:href="#radial-gradient-60"/><radialGradient id="radial-gradient-69" cx="101.67" cy="114.81" r="129.21" gradientTransform="matrix(-1, -0.05, -0.05, 1, 303.15, -123.46)" xlink:href="#radial-gradient-57"/><radialGradient id="radial-gradient-70" cx="101.67" cy="114.8" r="129.22" xlink:href="#radial-gradient-60"/><radialGradient id="radial-gradient-71" cx="101.67" cy="114.06" r="129.22" xlink:href="#radial-gradient-60"/><radialGradient id="radial-gradient-72" cx="69.1" cy="229.79" r="90.98" gradientTransform="matrix(-0.84, -0.54, -0.54, 0.84, 331.08, 34.69)" xlink:href="#radial-gradient-60"/><radialGradient id="radial-gradient-73" cx="181.93" cy="177.81" r="60.22" xlink:href="#radial-gradient-60"/><radialGradient id="radial-gradient-74" cx="100.58" cy="188.8" r="68.92" xlink:href="#radial-gradient-60"/><radialGradient id="radial-gradient-75" cx="-214.28" cy="-4.73" r="257.27" xlink:href="#radial-gradient-60"/><radialGradient id="radial-gradient-76" cx="102.07" cy="114.71" r="84.26" xlink:href="#radial-gradient-60"/><radialGradient id="radial-gradient-77" cx="80.26" cy="233.63" r="46.98" xlink:href="#radial-gradient-60"/><radialGradient id="radial-gradient-78" cx="101.67" cy="114.05" r="129.23" xlink:href="#radial-gradient-60"/><radialGradient id="radial-gradient-79" cx="91.38" cy="152.82" r="35.02" xlink:href="#radial-gradient-60"/><radialGradient id="radial-gradient-80" cx="126.58" cy="142.3" r="86.88" gradientTransform="matrix(-0.93, 0.36, 0.36, 0.93, 253.1, -128.79)" xlink:href="#radial-gradient-60"/><radialGradient id="radial-gradient-81" cx="95.52" cy="176.92" r="146.07" xlink:href="#radial-gradient"/><radialGradient id="radial-gradient-82" cx="95.52" cy="176.91" r="146.08" xlink:href="#radial-gradient"/><radialGradient id="radial-gradient-83" cx="95.52" cy="176.91" r="146.07" xlink:href="#radial-gradient"/><radialGradient id="radial-gradient-84" cx="95.52" cy="176.91" r="146.07" xlink:href="#radial-gradient"/><radialGradient id="radial-gradient-85" cx="95.52" cy="176.91" r="146.07" xlink:href="#radial-gradient"/><radialGradient id="radial-gradient-86" cx="183" cy="271.88" r="43.41" xlink:href="#radial-gradient-60"/><radialGradient id="radial-gradient-87" cx="183" cy="271.88" r="43.41" gradientTransform="matrix(-1, -0.05, -0.05, 1, 303.15, -123.46)" gradientUnits="userSpaceOnUse"><stop offset="0.01" stop-color="#b0e300"/><stop offset="0.2" stop-color="#98cb00"/><stop offset="0.45" stop-color="#81b300"/><stop offset="0.68" stop-color="#73a400"/><stop offset="0.88" stop-color="#6e9f00"/></radialGradient><radialGradient id="radial-gradient-88" cx="50.09" cy="117.45" r="244.16" xlink:href="#radial-gradient-60"/><radialGradient id="radial-gradient-89" cx="213.17" cy="229.93" r="21.3" xlink:href="#radial-gradient-60"/><radialGradient id="radial-gradient-90" cx="60.1" cy="117.37" r="233.15" xlink:href="#radial-gradient-60"/><radialGradient id="radial-gradient-91" cx="220.59" cy="233.96" r="41.98" xlink:href="#radial-gradient"/><radialGradient id="radial-gradient-92" cx="220.59" cy="233.96" r="41.98" xlink:href="#radial-gradient"/><radialGradient id="radial-gradient-93" cx="220.59" cy="233.95" r="41.98" xlink:href="#radial-gradient"/><radialGradient id="radial-gradient-94" cx="220.59" cy="233.96" r="41.98" xlink:href="#radial-gradient-60"/><radialGradient id="radial-gradient-95" cx="220.59" cy="233.96" r="41.98" xlink:href="#radial-gradient-60"/><radialGradient id="radial-gradient-96" cx="220.58" cy="233.96" r="41.98" xlink:href="#radial-gradient-60"/><radialGradient id="radial-gradient-97" cx="60.1" cy="117.37" r="233.15" xlink:href="#radial-gradient-60"/><radialGradient id="radial-gradient-98" cx="60.05" cy="117.39" r="233.18" xlink:href="#radial-gradient-60"/><radialGradient id="radial-gradient-99" cx="214.27" cy="211.34" r="49.27" xlink:href="#radial-gradient-60"/><radialGradient id="radial-gradient-100" cx="110.49" cy="120.7" r="160.5" gradientTransform="matrix(-1, -0.05, -0.05, 1, 303.15, -123.46)" gradientUnits="userSpaceOnUse"><stop offset="0" stop-color="#fef458"/><stop offset="0.16" stop-color="#dbee31"/><stop offset="0.32" stop-color="#bce90d"/><stop offset="0.4" stop-color="#b0e700"/><stop offset="0.62" stop-color="#a5d400"/><stop offset="0.77" stop-color="#a0cc00"/><stop offset="0.97" stop-color="#acc200"/></radialGradient><radialGradient id="radial-gradient-101" cx="236.41" cy="226.75" r="22.38" gradientTransform="matrix(-0.95, -0.31, -0.31, 0.95, 351.39, -48.94)" gradientUnits="userSpaceOnUse"><stop offset="0" stop-color="#aebb29"/><stop offset="0.01" stop-color="#a9b627"/><stop offset="0.18" stop-color="#768212"/><stop offset="0.31" stop-color="#566105"/><stop offset="0.38" stop-color="#4a5500"/><stop offset="0.52" stop-color="#3b4400"/><stop offset="0.7" stop-color="#2f3500"/><stop offset="0.86" stop-color="#2b3000"/></radialGradient><radialGradient id="radial-gradient-102" cx="236.95" cy="227.07" r="21.09" gradientTransform="matrix(-1, -0.05, -0.05, 1, 303.15, -123.46)" xlink:href="#radial-gradient-101"/><radialGradient id="radial-gradient-103" cx="237.87" cy="226.12" r="19.85" gradientTransform="matrix(-1.11, -0.05, -0.05, 1.01, 330.78, -123.65)" xlink:href="#radial-gradient-101"/><radialGradient id="radial-gradient-104" cx="191.49" cy="259.91" r="27.31" xlink:href="#radial-gradient-60"/><radialGradient id="radial-gradient-105" cx="98.01" cy="141.34" r="129.22" gradientTransform="matrix(-1, -0.05, -0.05, 1, 303.15, -123.46)" xlink:href="#radial-gradient-57"/><radialGradient id="radial-gradient-106" cx="98.01" cy="141.31" r="129.23" gradientTransform="matrix(-1, -0.05, -0.05, 1, 303.15, -123.46)" xlink:href="#radial-gradient-57"/><radialGradient id="radial-gradient-107" cx="98.03" cy="141.32" r="129.22" gradientTransform="matrix(-1, -0.05, -0.05, 1, 303.15, -123.46)" xlink:href="#radial-gradient-57"/><radialGradient id="radial-gradient-108" cx="98.04" cy="141.32" r="129.22" xlink:href="#radial-gradient-60"/><radialGradient id="radial-gradient-109" cx="173.69" cy="238.53" r="13.75" xlink:href="#radial-gradient-61"/><radialGradient id="radial-gradient-110" cx="98.02" cy="141.32" r="129.22" gradientTransform="matrix(-1, -0.05, -0.05, 1, 303.15, -123.46)" xlink:href="#radial-gradient-57"/><radialGradient id="radial-gradient-111" cx="98.01" cy="141.32" r="129.23" gradientTransform="matrix(-1, -0.05, -0.05, 1, 303.15, -123.46)" xlink:href="#radial-gradient-57"/><radialGradient id="radial-gradient-112" cx="98.01" cy="141.32" r="129.22" xlink:href="#radial-gradient-60"/><radialGradient id="radial-gradient-113" cx="98.02" cy="141.32" r="129.23" gradientTransform="matrix(-1, -0.05, -0.05, 1, 303.15, -123.46)" xlink:href="#radial-gradient-57"/><radialGradient id="radial-gradient-114" cx="98.02" cy="141.32" r="129.23" gradientTransform="matrix(-1, -0.05, -0.05, 1, 303.15, -123.46)" xlink:href="#radial-gradient-57"/><radialGradient id="radial-gradient-115" cx="145.54" cy="215.82" r="43.38" xlink:href="#radial-gradient-60"/><radialGradient id="radial-gradient-116" cx="98.02" cy="141.32" r="129.22" xlink:href="#radial-gradient-60"/><radialGradient id="radial-gradient-117" cx="98.02" cy="142.08" r="129.22" gradientTransform="matrix(-1, -0.05, -0.05, 1, 303.15, -123.46)" xlink:href="#radial-gradient-57"/><radialGradient id="radial-gradient-118" cx="98.01" cy="142.07" r="129.23" xlink:href="#radial-gradient-60"/><radialGradient id="radial-gradient-119" cx="98.01" cy="141.32" r="129.23" xlink:href="#radial-gradient-60"/><radialGradient id="radial-gradient-120" cx="128.94" cy="280.57" r="90.99" xlink:href="#radial-gradient-60"/><radialGradient id="radial-gradient-121" cx="178.28" cy="205.1" r="60.21" xlink:href="#radial-gradient-60"/><radialGradient id="radial-gradient-122" cx="96.92" cy="216.06" r="68.92" xlink:href="#radial-gradient-60"/><radialGradient id="radial-gradient-123" cx="-217.92" cy="22.54" r="257.27" xlink:href="#radial-gradient-60"/><radialGradient id="radial-gradient-124" cx="98.43" cy="141.99" r="84.25" xlink:href="#radial-gradient-60"/><radialGradient id="radial-gradient-125" cx="76.59" cy="260.9" r="46.98" xlink:href="#radial-gradient-60"/><radialGradient id="radial-gradient-126" cx="98.02" cy="141.32" r="129.23" xlink:href="#radial-gradient-60"/><radialGradient id="radial-gradient-127" cx="87.72" cy="180.09" r="35.02" xlink:href="#radial-gradient-60"/><radialGradient id="radial-gradient-128" cx="74.48" cy="186.8" r="86.9" xlink:href="#radial-gradient-60"/></defs><title>play 10</title><g class="cls-1"><g id="Layer_1" data-name="Layer 1"><rect class="cls-2" x="0.07" y="120.28" width="280.67" height="53.83"/><path class="cls-3" d="M152.37,35a11.24,11.24,0,0,0-.37,2.46q-2.14-.2-4.38-.46l-2.73-.31a13.72,13.72,0,0,1,.53-2.28C147.77,34.64,150.1,34.84,152.37,35Z"/><path class="cls-4" d="M138.19,33.72a16.2,16.2,0,0,0-.4,2.17l-6.23-.72a12.19,12.19,0,0,1,.42-2.1Z"/><path class="cls-5" d="M145.42,34.42a13.72,13.72,0,0,0-.53,2.28l-7.1-.81a16.2,16.2,0,0,1,.4-2.17C140.62,34,143,34.21,145.42,34.42Z"/><path class="cls-6" d="M152.37,35c2.14.17,4.24.31,6.27.43a16.47,16.47,0,0,0-.42,2.54q-3-.2-6.23-.51A11.24,11.24,0,0,1,152.37,35Z"/><path class="cls-7" d="M132,33.07a12.19,12.19,0,0,0-.42,2.1l-7-.83a14.15,14.15,0,0,1,.58-2Z"/><path class="cls-8" d="M109,30.38l6.2.75a15.92,15.92,0,0,0-.34,2.06l-6.23-.75A11.11,11.11,0,0,1,109,30.38Z"/><path class="cls-9" d="M125.11,32.3a14.15,14.15,0,0,0-.58,2l-9.72-1.16a15.92,15.92,0,0,1,.34-2.06Z"/><path class="cls-10" d="M38,72.83a16.52,16.52,0,0,1-2,.28,34.94,34.94,0,0,1-3.7-6.2,19.51,19.51,0,0,0,2.65.4A36.65,36.65,0,0,0,38,72.83Z"/><path class="cls-11" d="M189.08,33a14.55,14.55,0,0,0,3.79-1.92c3.5-2.71,5.42,1.5.43,4.26a17.44,17.44,0,0,1-4.33,1.5A13.7,13.7,0,0,1,189.08,33Z"/><path class="cls-12" d="M43.77,79.71l-1.68-.08A37.93,37.93,0,0,1,36,73.11a16.52,16.52,0,0,0,2-.28A38.85,38.85,0,0,0,43.77,79.71Z"/><path class="cls-13" d="M173.8,35.78a49.19,49.19,0,0,0,6.25-.55,16.55,16.55,0,0,0,.08,2.89q-2.87.22-6.24.29A11.19,11.19,0,0,1,173.8,35.78Z"/><path class="cls-14" d="M166.93,35.8c2.48.06,4.79.06,6.86,0a11.19,11.19,0,0,0,.08,2.63q-3.34.07-7.16,0A14,14,0,0,1,166.93,35.8Z"/><path class="cls-15" d="M166.93,35.8a14,14,0,0,0-.22,2.59q-4-.1-8.49-.4a16.47,16.47,0,0,1,.42-2.54C161.56,35.62,164.34,35.74,166.93,35.8Z"/><path class="cls-16" d="M180.95,35.06a47.87,47.87,0,0,0,8.13-2,13.7,13.7,0,0,0-.12,3.84,60,60,0,0,1-8.84,1.24,16.55,16.55,0,0,1-.08-2.89Z"/><path class="cls-17" d="M88.17,28l4.17.41,2.06.21a16.4,16.4,0,0,0-.26,1.93c-1.59-.2-3.72-.45-6.21-.66A10.76,10.76,0,0,1,88.17,28Z"/><path class="cls-18" d="M30.75,49.58a27.14,27.14,0,0,1,2.45-5.89,28.76,28.76,0,0,1,2.28-3.48,8.1,8.1,0,0,0,1.28,2.44A26.32,26.32,0,0,0,33,51.6,7.78,7.78,0,0,1,30.75,49.58Z"/><path class="cls-19" d="M109,30.38a11.11,11.11,0,0,0-.38,2.06l-7-.85a14.28,14.28,0,0,1,.54-2Z"/><path class="cls-20" d="M48.74,30.59a13.38,13.38,0,0,0,.14,2.91A31.24,31.24,0,0,0,42.33,37a13.67,13.67,0,0,1-.38-2.83A33.41,33.41,0,0,1,48.74,30.59Z"/><path class="cls-21" d="M41.95,34.14A13.67,13.67,0,0,0,42.33,37a20.73,20.73,0,0,0-5.53,5.64l0,0a8.1,8.1,0,0,1-1.28-2.44A27.87,27.87,0,0,1,41.95,34.14Z"/><path class="cls-22" d="M32.77,59.72A28.67,28.67,0,0,0,35,67.31a19.51,19.51,0,0,1-2.65-.4A26.76,26.76,0,0,1,30,58.7,9.24,9.24,0,0,0,32.77,59.72Z"/><path class="cls-23" d="M30.75,49.58a7.78,7.78,0,0,0,2.27,2,23.77,23.77,0,0,0-.25,8.12,9.24,9.24,0,0,1-2.79-1A23.46,23.46,0,0,1,30.75,49.58Z"/><path class="cls-24" d="M48.74,30.59a44.24,44.24,0,0,1,6.06-1.85,15.67,15.67,0,0,0,.12,2.85,47,47,0,0,0-6,1.91A13.38,13.38,0,0,1,48.74,30.59Z"/><path class="cls-25" d="M81.17,27.46a14,14,0,0,0-.39,2c-1.91-.07-3.91-.11-6-.09a16.73,16.73,0,0,1-.12-2.28C76.88,27.2,79.05,27.31,81.17,27.46Z"/><path class="cls-26" d="M88.17,28a10.76,10.76,0,0,0-.23,1.9c-2.14-.18-4.56-.34-7.15-.44a14,14,0,0,1,.39-2C83.58,27.63,85.93,27.83,88.17,28Z"/><path class="cls-27" d="M102.09,29.55a14.28,14.28,0,0,0-.54,2l-4.2-.52s-1.17-.2-3.19-.46a16.4,16.4,0,0,1,.26-1.93C96.64,28.91,99.23,29.21,102.09,29.55Z"/><path class="cls-28" d="M68.5,27.13c2.07-.06,4.13,0,6.18,0a16.73,16.73,0,0,0,.12,2.28c-2.05,0-4.16.08-6.29.21A11.67,11.67,0,0,1,68.5,27.13Z"/><path class="cls-29" d="M61.64,27.59c2.26-.25,4.56-.4,6.86-.46a11.67,11.67,0,0,0,0,2.5c-2.35.15-4.72.38-7.06.71A14.21,14.21,0,0,1,61.64,27.59Z"/><path class="cls-30" d="M54.81,28.74a59.34,59.34,0,0,1,6.83-1.15,14.21,14.21,0,0,0-.18,2.75,65.72,65.72,0,0,0-6.53,1.25A15.67,15.67,0,0,1,54.81,28.74Z"/><path class="cls-31" d="M98.76,5.92l6.17-.08a15.54,15.54,0,0,0,0,1.95l-1.19,0-5.08.1A13.13,13.13,0,0,1,98.76,5.92Z"/><path class="cls-32" d="M89.85,6l8.91-.12a13.13,13.13,0,0,0-.15,2l-8.71.17A13.72,13.72,0,0,1,89.85,6Z"/><path class="cls-33" d="M104.93,5.83q3.68-.06,7.19-.15a14.05,14.05,0,0,0-.09,2l-7.15.14A15.54,15.54,0,0,1,104.93,5.83Z"/><path class="cls-34" d="M89.85,6a13.72,13.72,0,0,0,0,2l-6.79.16a16.24,16.24,0,0,1-.19-2Q86.4,6.09,89.85,6Z"/><path class="cls-35" d="M82.92,6.19a16.24,16.24,0,0,0,.19,2l-6.23.15a9.9,9.9,0,0,1-.23-2Q79.78,6.27,82.92,6.19Z"/><path class="cls-36" d="M69.64,6.73q3.49-.21,7-.34a9.9,9.9,0,0,0,.23,2l-2.16.05c-1.71,0-3.4.11-5.07.18A12.67,12.67,0,0,1,69.64,6.73Z"/><path class="cls-37" d="M112.12,5.69c2.39-.06,4.71-.14,6.95-.25a11.11,11.11,0,0,0,.12,2q-3.58.11-7.15.19A14.05,14.05,0,0,1,112.12,5.69Z"/><path class="cls-38" d="M27.45,73.18c-.46.26-1,.54-1.53.81a63.76,63.76,0,0,1-5.4-5.51,9.88,9.88,0,0,0,1.69-.84A69.11,69.11,0,0,0,27.45,73.18Z"/><path class="cls-39" d="M31.72,77a73.78,73.78,0,0,0,7.35,5.41L37,82.27a65.74,65.74,0,0,1-6.36-4.37C31,77.59,31.39,77.27,31.72,77Z"/><path class="cls-40" d="M31.72,77c-.33.31-.71.63-1.11.94-1.45-1.12-3-2.43-4.69-3.92.55-.27,1.07-.55,1.53-.81C28.93,74.58,30.38,75.85,31.72,77Z"/><path class="cls-41" d="M145,.17a1.21,1.21,0,0,1,1.43,1.41c0,.77-1.48,1.88-4.35,2.92a15.11,15.11,0,0,1,.53-3A15,15,0,0,0,145,.17Z"/><path class="cls-42" d="M119.07,5.44c2.7-.13,5.27-.3,7.69-.52a16.57,16.57,0,0,0-.26,2.23c-2.43.13-4.87.22-7.31.3A11.11,11.11,0,0,1,119.07,5.44Z"/><path class="cls-43" d="M142.63,1.53a15.11,15.11,0,0,0-.53,3A41,41,0,0,1,135,6.25a14.4,14.4,0,0,1,.33-2.52A32.62,32.62,0,0,0,142.63,1.53Z"/><path class="cls-44" d="M135.37,3.73A14.4,14.4,0,0,0,135,6.25a76.55,76.55,0,0,1-8.49.9h-.05a16.57,16.57,0,0,1,.26-2.23A84,84,0,0,0,135.37,3.73Z"/><path class="cls-45" d="M55.7,8a10.91,10.91,0,0,0,.16,1.84c-2.35.33-4.69.76-7.05,1.28a13.46,13.46,0,0,1-.07-1.92Q52.08,8.49,55.7,8Z"/><path class="cls-46" d="M11.25,49.14c-.05-.52-.1-1-.12-1.56a36.09,36.09,0,0,1,.3-6.11,7.16,7.16,0,0,0,1.39,1.12,25,25,0,0,0,.51,8.53A7.09,7.09,0,0,1,11.25,49.14Z"/><path class="cls-47" d="M13.77,33a14,14,0,0,0,1.32,1.71c-.44,1-.84,2-1.17,2.94a24.48,24.48,0,0,0-1.11,5,7.16,7.16,0,0,1-1.39-1.12A32,32,0,0,1,13.77,33Z"/><path class="cls-48" d="M13.77,33a31.92,31.92,0,0,1,3.83-6.54,14.57,14.57,0,0,0,1.21,1.81,35.52,35.52,0,0,0-3.72,6.44A14,14,0,0,1,13.77,33Z"/><path class="cls-49" d="M17.64,61.34a51.94,51.94,0,0,0,4.57,6.3,9.88,9.88,0,0,1-1.69.84,46.85,46.85,0,0,1-5.08-7A7.63,7.63,0,0,0,17.64,61.34Z"/><path class="cls-50" d="M69.64,6.73a12.67,12.67,0,0,0,0,1.89c-2.55.11-5.06.27-7.56.49a17.33,17.33,0,0,1-.15-1.81Q65.75,7,69.64,6.73Z"/><path class="cls-51" d="M15.44,61.44a30.46,30.46,0,0,1-4.19-12.3,7.09,7.09,0,0,0,2.07,2,34.54,34.54,0,0,0,4.31,10.22A7.63,7.63,0,0,1,15.44,61.44Z"/><path class="cls-52" d="M21.79,21.83A15.24,15.24,0,0,0,23,23.57l-.06,0a31.11,31.11,0,0,0-4.13,4.65,14.57,14.57,0,0,1-1.21-1.81A35,35,0,0,1,21.79,21.83Z"/><path class="cls-53" d="M27.11,17.67a14.22,14.22,0,0,0,1.13,1.82A44.4,44.4,0,0,0,23,23.57a15.24,15.24,0,0,1-1.21-1.73A41.09,41.09,0,0,1,27.11,17.67Z"/><path class="cls-54" d="M37.8,12.33c1.5-.56,3.06-1.09,4.68-1.57a17,17,0,0,0,.59,1.85c-1.3.4-2.59.85-3.87,1.34A17,17,0,0,1,37.8,12.33Z"/><path class="cls-55" d="M59.49,7.54l2.44-.23a17.33,17.33,0,0,0,.15,1.81q-3.11.28-6.21.72A10.91,10.91,0,0,1,55.7,8C56.94,7.82,58.19,7.67,59.49,7.54Z"/><path class="cls-56" d="M48.74,9.2a13.46,13.46,0,0,0,.07,1.92c-.69.15-1.38.3-2.07.47-1.22.3-2.45.65-3.68,1a17,17,0,0,1-.59-1.85C44.47,10.17,46.56,9.65,48.74,9.2Z"/><path class="cls-57" d="M37.8,12.33a17,17,0,0,0,1.4,1.62,58.38,58.38,0,0,0-6,2.67A11.77,11.77,0,0,1,32,14.87,58.49,58.49,0,0,1,37.8,12.33Z"/><path class="cls-58" d="M32,14.87a11.77,11.77,0,0,0,1.19,1.75,51,51,0,0,0-5,2.88,14.22,14.22,0,0,1-1.13-1.82A49.14,49.14,0,0,1,32,14.87Z"/><path class="cls-59" d="M40.93,35.94a49,49,0,0,1,29.59-8S51.16,28.17,40.93,35.94Z"/><path class="cls-60" d="M.28,129.5s-.15-1.78,3.37-1.4,24.08,8.49,24.71,8.6,1.2,1.66-1,1.36-21.55-7.66-23.67-7.44S-.36,130.67.28,129.5Z"/><path class="cls-61" d="M90.77,87.49s2.66-1.79,4,.19.86,6.54-6.42,9.11-31.11,6.71-38.47,7.45a1.78,1.78,0,0,1-1.66-1.83c.08-1.66,23.26-4.41,29.88-7A51.08,51.08,0,0,0,90.77,87.49Z"/><path class="cls-62" d="M45.93,103.05s1.47-1.26,2.4.19-1.32,3.27-4.57,8.86-14.51,25.72-15.59,25.58S27,137.05,28,135.1,45.93,103.05,45.93,103.05Z"/><path class="cls-63" d="M30.89,130c2.08-2.91,4.24-5.78,6.18-8.69,2.07-3.11,4.14-6.18,6-9.41a37.91,37.91,0,0,1,5.41-7.6c-.29,1.39-2.2,3.45-4.74,7.8-3.26,5.59-14.51,25.72-15.59,25.58S27,137.05,28,135.1Z"/><path class="cls-64" d="M104.19,94.44S103.63,92,110.31,90s14.18-4.09,16.36-4.65,3.22,4.06-2.74,7.11S103.55,99.32,104.19,94.44Z"/><path class="cls-65" d="M123.32,91.16S122.09,87.11,126,86c0,0,1.43-.35,2,3.09S132.17,112,133.77,119s3.37,9.81,2.5,10.77-2.2,4.23-2.62,2.54-5.94-26.25-8.12-33.09S123.32,91.16,123.32,91.16Z"/><path class="cls-66" d="M244.25,120.42s-1.9-2.39,0-3.14,15.61-1.81,24.39,1.58,2.14,4.88-1,3.76a49,49,0,0,0-15.26-2.15C246.62,120.57,245.36,121.69,244.25,120.42Z"/><path class="cls-67" d="M244.29,117.28a16.86,16.86,0,0,1,3.5-.55c-.15,1.83,4.28,2.3,6.41,2.37,5.5.18,12,.79,16.88,3.82a7.8,7.8,0,0,1-3.36-.31,49,49,0,0,0-15.26-2.15c-5.84.11-7.11,1.22-8.22,0C244.25,120.42,242.35,118,244.29,117.28Z"/><path class="cls-68" d="M195.74,22.06c1.44,1,4.6,3.09,3,7s1.94,4,2.28,7.35,3.6,3,4,6.3,1.32,3.93,2.17,4.35,3.07,3.76,2.72,6,3.05,4.14,2.84,6.13,1.64,2.32,1.86,5.71,3.13,2.52,2.41,4.48,2.27,2.1,1.7,3.7-.52,3.22,2.24,5.47.71,2.61,4.38,6.11,11.88,23.86,14.6,29.81,3.78,4.67,4.86,2.89-27.27-58.2-28.3-61.16S198.28,16.81,197.15,16s-1.87.83-1.87.83S193.2,20.32,195.74,22.06Z"/><path class="cls-69" d="M98.07,95.32a2.67,2.67,0,0,1-.43-.41c-.88-1-2.13-3.82,6.76-6.79,3.18-1.06,3.21-1.1,7.12-2.66,0,0,66.42-64.35,83.87-69,0,0,1,0,.42,1.77s-72.65,69.55-72.65,69.55a7.8,7.8,0,0,1-3.94,2.31C116.34,90.92,102.38,97.43,98.07,95.32Z"/><g class="cls-70"><path class="cls-71" d="M101.63,89.17a8.6,8.6,0,0,1-.56.71c-5.4,6,15.57,1.72,37.8-23.75,19.4-22.23,48-41.29,55-45.79-11.61,11.8-70.69,67.4-70.69,67.4a7.8,7.8,0,0,1-3.94,2.31c-2.87.87-16.82,7.38-21.13,5.26a2.67,2.67,0,0,1-.43-.41C96.87,94,95.81,91.73,101.63,89.17Z"/></g><g class="cls-72"><path class="cls-73" d="M123.28,90.08s1-2.45,2.16.1,4.55,18.44,5.61,24.4c0,0,2.21,11.67,2.69,12.11s1.21,2.64,1.58-1.76c0-.08,0-.15,0-.23.91,2.91,1.49,4.39.91,5-.88,1-2.2,4.23-2.62,2.54s-5.94-26.25-8.12-33.09-2.21-8-2.21-8a5.37,5.37,0,0,1-.15-.86Z"/></g><path class="cls-74" d="M134.83,130.07s1.33-1.68,4.33,1.62S150,143,151.24,144.24s1.09,3.3-2,1.74-14.77-11.76-15-12.43S132.7,131.22,134.83,130.07Z"/><path class="cls-75" d="M134.83,130.07a1.39,1.39,0,0,1,1.1-.43,4.42,4.42,0,0,0,1.34,3.7,11.21,11.21,0,0,0,3.63,4.3c3.53,2.7,8.18,5,10.79,8.69-.36.3-1.13.3-2.44-.36-3.09-1.56-14.77-11.76-15-12.43S132.7,131.22,134.83,130.07Z"/><g class="cls-76"><path class="cls-77" d="M50.53,101.34c.41.66,2.83.73,14.62-1.56,12.47-2.42,22.17-4.21,26.73-8.25,3.07-2.71,2.17-4.14,1.26-4.78a2,2,0,0,1,1.62.92c1.33,2,.86,6.54-6.42,9.11s-31.11,6.71-38.47,7.45a1.78,1.78,0,0,1-1.66-1.83C48.23,102.09,49.09,101.73,50.53,101.34Z"/></g><path class="cls-78" d="M1.64,129.09s2.12-.23,6.57,1.14,12.54,4.47,12.54,4.47S5.28,128.95,2.29,129.6C2.29,129.6,1,129.58,1.64,129.09Z"/><path class="cls-79" d="M46.56,103.54s.74.16.34.7-9.4,15.55-9.4,15.55Z"/><path class="cls-80" d="M78.13,96.22s5.94-2.39,9.23-5.15S93,87,92.2,89,84,95.41,78.13,96.22Z"/><path class="cls-81" d="M114.06,84.32s43.8-39.8,49.39-44.41c0,0-27.91,25.55-33.54,31.28S110.1,89,114.06,84.32Z"/><path class="cls-82" d="M125.28,88.42s1.63,2.49,2.82,9.2,3.8,18.66,3.8,18.66-4.67-25-5.39-27.47S124.89,87.82,125.28,88.42Z"/><path class="cls-83" d="M136.85,131.58a55.88,55.88,0,0,0,7.89,7.61C148.44,141.86,135.61,129.44,136.85,131.58Z"/><path class="cls-84" d="M195.28,16.83s.74-1.63,1.87-.83c.32.23,2,3.39,4.17,7.84a7.66,7.66,0,0,0,.35,4.1c2.21,6.27-.68,4,1.95,8.25s6.11,8.27,6.29,11.61,2.89,6,4.7,10,2.89,9.46,5.77,11.92,1.06,5.88,4.85,10.21,3,4,6.29,11.61,10,21.94,10,21.94,1.89,1.91,2.15,0c.88,2.17,1.33,3.54,1.17,3.79-1.08,1.78-2.14,3.06-4.86-2.89S229,88.16,225.35,84.66s-1.61-3.86-4.38-6.11-2.82-3.88-2.24-5.47-2.42-1.74-1.7-3.7-2.2-1.1-2.41-4.48-2.08-3.72-1.86-5.71-3.19-3.89-2.84-6.13-1.86-5.58-2.72-6S205.37,46,205,42.72s-3.61-2.92-4-6.3-3.84-3.42-2.28-7.35-1.61-6-3-7C193.2,20.32,195.28,16.83,195.28,16.83Z"/><path class="cls-85" d="M204.35,33.07l13.31,28S207.91,42.35,204.35,33.07Z"/><path class="cls-86" d="M250.71,117.76s12.64.22,19.18,3.31C269.89,121.07,264,116.13,250.71,117.76Z"/><g class="cls-87"><path class="cls-88" d="M.28,129.5s-.15-1.78,3.37-1.4c3.12.33,19.68,6.77,23.78,8.28A9.2,9.2,0,0,1,28,135.1l2.85-5.1h0l15-27s1.47-1.26,2.4.19a1.35,1.35,0,0,1,.16,1.06h0c-.19.91-1.07,2.1-2.36,4l-.45.67-.19.29-.73,1.14-.18.29c-.27.44-.55.89-.83,1.38-2.92,5-12.24,21.66-14.93,25,.25.47.08,1.17-1.44,1-2.18-.31-21.55-7.66-23.67-7.44S-.36,130.67.28,129.5Z"/><path class="cls-89" d="M97.06,93h0a2.71,2.71,0,0,1,.54-1.15h0a5,5,0,0,1,.36-.42h0a8.36,8.36,0,0,1,1.77-1.33h0c.26-.15.53-.3.83-.45l0,0a28.49,28.49,0,0,1,3.76-1.52c3.18-1.06,3.21-1.1,7.12-2.66,0,0,66.42-64.35,83.87-69l.13,0c.3-.43.88-1,1.64-.45a1,1,0,0,1,.14.16l0,0,.21.32.05.09.27.46.07.13.31.56.08.15.35.65.14.26.4.77.18.35.43.84.21.42.35.7.32.65.35.71.27.55,0,0h0c5.49,11.09,14.45,30.23,15.19,32.35.88,2.54,21.84,44.36,27.12,57.37h0c.22.53.41,1,.57,1.45l0,.06.19.52,0,.13.13.37,0,.14.08.28,0,.13,0,.22,0,.11c0,.06,0,.1,0,.15,3.19-.72,15.65-1.44,23.86,1.73,6.05,2.34,4.79,3.77,2.39,4.07h0a7.22,7.22,0,0,1-.79.05h-.06a8.4,8.4,0,0,1-1.67-.15h-.06a6,6,0,0,1-.75-.21,49,49,0,0,0-15.26-2.15c-5.84.11-7.11,1.22-8.22,0a4.51,4.51,0,0,1-.79-1.61c-.81.23-1.85-.69-3.51-4.34-2.72-6-10.93-26.31-14.6-29.81s-1.61-3.86-4.38-6.11-2.82-3.88-2.24-5.47-2.42-1.74-1.7-3.7-2.2-1.1-2.41-4.48-2.08-3.72-1.86-5.71-3.19-3.89-2.84-6.13-1.86-5.58-2.72-6S205.37,46,205,42.72s-3.61-2.92-4-6.3-3.84-3.42-2.28-7.35-1.61-6-3-7a2.8,2.8,0,0,1-1.26-2.38c-.47.49-1.07,1.09-1.77,1.79l-.11.11-.52.52-.24.23-.5.5-.32.31-.55.54-.31.3-.62.61-.31.31-.64.63-.35.34-.69.67-.33.32-.77.74-.23.23-5.65,5.44-.08.08-1.22,1.18-.09.08-2.6,2.49-.13.12c-10.05,9.62-22.33,21.27-32.58,31l-.14.13-1.19,1.12-.4.38-3.62,3.42-.09.08-11,10.4L126,85.05l-.66.62,1.33-.35c1.39-.36,2.31,1.39,1.26,3.49,0,.1,0,.2.06.32.59,3.44,4.18,22.92,5.78,29.82.56,2.43,1.15,4.36,1.63,5.89.24.75.45,1.41.62,2l.14.45.07.25.11.42,0,.18c0,.18.07.35.09.51s0,0,0,0a2.89,2.89,0,0,1,0,.39s0,.07,0,.1a1.51,1.51,0,0,1,0,.25l0,.09a.77.77,0,0,1-.13.22,5.68,5.68,0,0,1,2.88,2c3,3.3,10.88,11.33,12.07,12.55.86.88,1,2.19-.07,2.28h-.41l-.17,0-.21,0-.18-.05-.28-.1-.17-.07-.5-.23c-3.09-1.56-14.77-11.76-15-12.43-.07-.21-.24-.51-.38-.85a.71.71,0,0,1-.22-.42c-.42-1.68-5.94-26.25-8.12-33.09-1.09-3.42-1.64-5.43-1.92-6.57-5.77,2.84-18.37,6.19-19.37,2.63-2.57.57-4.83.75-6.16.09a2.67,2.67,0,0,1-.43-.41l-.14-.17,0,0-.13-.19,0,0a2.11,2.11,0,0,1-.12-.22v0a2.13,2.13,0,0,1-.19-.87h0A1.85,1.85,0,0,1,97.06,93Z"/><path class="cls-88" d="M48.28,102.26l0,0,.12-.1.09-.06.2-.11.1,0,.36-.15.23-.08.22-.07.32-.1.16,0c5.69-1.66,22.5-3.91,28-6.07a51.08,51.08,0,0,0,12.68-7.9S92.6,86.27,94,87L94,87a1.73,1.73,0,0,1,.29.2l.1.08a2.18,2.18,0,0,1,.32.38c1.33,2,.86,6.54-6.42,9.11s-31.11,6.71-38.47,7.45a1.78,1.78,0,0,1-1.66-1.83A.26.26,0,0,1,48.28,102.26Z"/></g><path class="cls-90" d="M246.27,92.64c10.91,1,17.85,3.33,17.87,6.22,0,2.4-8.6,10.77-24,17.8A45.1,45.1,0,0,0,246.27,92.64Z"/><path class="cls-91" d="M156.85,97.86c.06,12.36-2.77,20.52-5.37,25.9-4.94-.84-9.47-1.79-13.59-2.76,4-6.86,6.1-17.07,7.06-22.33C148.76,98.43,152.75,98.16,156.85,97.86Z"/><path class="cls-92" d="M156.85,97.86c25.32-1.82,54.73-4.48,67.88-5.33a144.7,144.7,0,0,1,21.54.11,45.1,45.1,0,0,1-6.17,24,114.52,114.52,0,0,1-16.84,6.08c5.93-9.64,6.47-21.24,6.47-21.24s-.54,11.6-6.47,21.24a122.43,122.43,0,0,1-13.81,3c5-10.64,4.74-23.11,4.74-23.11s.26,12.48-4.74,23.11c-4,.63-8.28,1.08-12.69,1.32,4-10,4.27-24.64,4.47-25-.21.38-.5,15-4.47,25-3.82.2-7.76.26-11.85.12-1.6-.06-3.17-.13-4.73-.21,2.76-5.7,5.79-14.5,6.05-28.37-.26,13.88-3.29,22.67-6.05,28.37-5.36-.29-10.43-.73-15.22-1.27,5.14-9.8,5.43-27.42,5.67-27.83-.24.41-.53,18-5.67,27.83-4.78-.54-9.27-1.19-13.47-1.91C154.08,118.38,156.91,110.22,156.85,97.86Z"/><path class="cls-93" d="M145,98.67c-1,5.26-3.08,15.47-7.06,22.33-5-1.18-9.34-2.41-13.07-3.59a55.15,55.15,0,0,0,6.3-18C135.27,99.24,139.94,99,145,98.67Z"/><path class="cls-94" d="M116.27,99.49a139.32,139.32,0,0,0,14.86-.08,55.15,55.15,0,0,1-6.3,18,110.34,110.34,0,0,1-16-6.15S100.81,98.19,116.27,99.49Z"/><g class="cls-95"><path class="cls-96" d="M108.86,111.26a110.34,110.34,0,0,0,16,6.15c3.73,1.17,8.09,2.41,13.07,3.59,4.12,1,8.65,1.92,13.59,2.76,4.2.72,8.69,1.37,13.47,1.91s9.86,1,15.22,1.27l2.66.12a10.73,10.73,0,0,1,1.44-7.8c3.1-5,10.93-4.11,11.25-.23s-1.95,8-2,8.14c1.08,0,2.16-.07,3.22-.13.78-1.13,2.56-6.21,3.56-8.78s8.65-3.47,8,1.87c-.5,4.28-2.47,5.76-3.23,6.18,1-.12,2.06-.26,3.07-.4a1.55,1.55,0,0,1,.54-.39c1.65-.55,2.37-5.38,3.61-7.95s9.73-5.17,10.62-2.88-2.37,8.13-2.37,8.13-.44.37-1,.89c1.05-.26,2.08-.52,3.1-.8l0-.11s.69-1.47,3.53-6.21,9.8-6.78,12.11-5.31c1.26.81.74,3.7,0,6.16l1.74-.77c.92-.42,1.81-.84,2.69-1.27,1.45-3,2.89-6.69,4.33-10.08,1.68-4,10.77-6.92,16-8.31-2.31-2-8.37-3.62-16.82-4.36a144.7,144.7,0,0,0-21.54-.11c-13.14.85-42.56,3.51-67.88,5.33-4.1.29-8.09.57-11.89.81-5,.32-9.69.57-13.83.74a139.32,139.32,0,0,1-14.86.08C100.81,98.19,108.86,111.26,108.86,111.26Zm65.35,4.41s6.76-.43,6.4,2-2.7,8-7.41,6.4C170.12,123.09,170.19,116.1,174.21,115.66Zm-16.62,3.66c-.67-2.22,1.19-6.1,4-5.62,7.89,1.35,4,6.92.16,7.9A3.14,3.14,0,0,1,157.59,119.33Zm-12.49-3.39c.21-1.86.3-3.73,3.18-3.85,2.73.39,4.62.47,3.9,3.78-.37,1.71-1.82,4.34-3.9,4.33C145.4,120.19,144.89,117.8,145.1,115.94ZM137,109.69s2.62,0,2.17,1.6-1.8,6.53-3.52,6S132.27,109.85,137,109.69Z"/></g><path class="cls-97" d="M226.85,119.48s2-5.77,8.28-6.11,1.07,3.92-1.09,4.69S225.5,121.79,226.85,119.48Z"/><path class="cls-97" d="M218.62,116.48s3.94-1.44,2.51,2.49-8.09,4.74-8,3.5S215.21,117.32,218.62,116.48Z"/><path class="cls-97" d="M203.32,120.64s4-.81,2.52,2.12S195.86,122.66,203.32,120.64Z"/><path class="cls-97" d="M187.13,120.85s5.94-2,6.42,1.36C194.33,127.77,180.7,124.81,187.13,120.85Z"/><path class="cls-98" d="M177.45,117.69c1,.37,1.41,1.24.75,2.91-.91,2.29-5,4-5.87.72-.56-2.17,0-3.35,2.18-3.72A6,6,0,0,1,177.45,117.69Z"/><path class="cls-99" d="M148.28,112.09c2.73.39,4.62.47,3.9,3.78-.37,1.71-1.82,4.34-3.9,4.33-2.87,0-3.38-2.4-3.18-4.27S145.4,112.21,148.28,112.09Z"/><path class="cls-99" d="M174.21,115.66s6.76-.43,6.4,2-2.7,8-7.41,6.4C170.12,123.09,170.19,116.1,174.21,115.66Z"/><path class="cls-99" d="M161.56,113.7c7.89,1.35,4,6.92.16,7.9a3.14,3.14,0,0,1-4.14-2.27C156.92,117.11,158.78,113.23,161.56,113.7Z"/><path class="cls-99" d="M137,109.69s2.62,0,2.17,1.6-1.8,6.53-3.52,6S132.27,109.85,137,109.69Z"/><path class="cls-100" d="M172.3,113.83c-2.16.77-4.15,8.8-5.9,8.72s4.21-7.3-1.2-9.17-9.19-1.05-10.07,1.78-2.49,5.25-2.14,3,2.4-6-1.06-6.67-7.51-2.22-8.51.35-3.7,6.95-3.75,5.44,1.51-8.3-.71-8.9-15.52-1.84-19.2-6.13a11.22,11.22,0,0,1-1.48-2.67c3.12.11,7.53,0,12.85-.19,4.14-.17,8.81-.43,13.83-.74,3.8-.24,7.79-.51,11.89-.81,25.32-1.82,54.73-4.48,67.88-5.33a144.7,144.7,0,0,1,21.54.11,59.06,59.06,0,0,1,12.45,2.21,80.64,80.64,0,0,1-39.05,17.93C195.14,116.64,174.46,113.05,172.3,113.83Z"/><path class="cls-101" d="M83,111.7c1,.4,21.84,8.24,31.27,4.31s6-14.45,2-16.51S89.06,94,89.06,94Z"/><path class="cls-102" d="M83,111.7c1,.4,21.84,8.24,31.27,4.31s6-14.45,2-16.51S89.06,94,89.06,94Z"/><path class="cls-103" d="M62.37,80.76a8.31,8.31,0,0,1,9.15-3.57s4.81-3.19,15.3-1.37c0,0,6.34-2.13,11.15,1.8S96.7,85.27,97.81,92s6.38,14.95-3.55,22.64-28.5,1.62-33.63-8.15S61.31,83.87,62.37,80.76Z"/><path class="cls-104" d="M80.65,104.75s-11-11.66-9.13-27.56"/><path class="cls-104" d="M87.92,105.08s-9.14-15.62-1.39-29.16"/><path class="cls-105" d="M60.63,106.47c5.13,9.77,23.7,15.84,33.63,8.15S98.91,98.69,97.81,92s5-10.43.16-14.36-11.15-1.8-11.15-1.8c-10.49-1.82-15.3,1.37-15.3,1.37a8.31,8.31,0,0,0-9.15,3.57C61.31,83.87,55.51,96.7,60.63,106.47Zm10-22.25A13.1,13.1,0,0,0,71,86c.22.6,3.54,11.51,11,20.3,0,0,1.21,0-.43-1.82s-6.22-12.53-4.82-16.79,6.75-3.93,6.75-3.93-1.09,14,5.47,22.87c0,0-5.22-11.12-3.61-19s2.69-9.45,5.78-9.8c0,0,2.58,0,2.32,2s-4.26,5.19-.09,12.38,4.28,15.18-.88,19-14.74,3.9-17.71-3.86S69.21,91.06,68,87.85,69,82.48,70.61,84.22Z"/><path class="cls-106" d="M89.64,79.53c.82-.43,2.11,0,1.7,1.19-.67,1.93-1.83,3.91-.37,10s6.06,9.17,2.3,13.08a2.6,2.6,0,0,1-2.64.08c-1.18-.81-1.82-2.53-2.3-3.81-1.53-4-2.47-8.83-1.74-13.14A22,22,0,0,1,88,81.7a4.72,4.72,0,0,1,1.56-2.15Z"/><path class="cls-106" d="M80,86S82.32,84.9,82,87s-1.47,8.4,2.41,14.49-2.45,4.28-5.06-4.06S78.9,86.88,80,86Z"/><path class="cls-107" d="M47,76.93c12.51-.42,15.17,5,15.17,5s7.2,13.67,10.28,25.27c2.84,10.68,6.11,25.61-5.54,28.4-1.07-4.5-5.77-11.09-9-14.67-4.86-5.47-5.91-7.14-13.37-7.86a17.19,17.19,0,0,1-5.77-1.39A54.12,54.12,0,0,1,35,99.47C33.57,89.78,34.52,77.34,47,76.93Z"/><path class="cls-108" d="M62.49,126.74a30.15,30.15,0,0,1,4.44,8.82,17.28,17.28,0,0,1-3.29.45c-5.32.22-10.19-2.87-14.35-7.41A22.14,22.14,0,0,0,62.49,126.74Z"/><path class="cls-109" d="M44.09,121.71a73.23,73.23,0,0,1-5.27-10.08A17.19,17.19,0,0,0,44.6,113c6.39.62,8.08,1.94,11.49,5.74A14.56,14.56,0,0,1,44.09,121.71Z"/><path class="cls-110" d="M44.09,121.71a14.56,14.56,0,0,0,12-2.94L58,120.88a58.25,58.25,0,0,1,4.52,5.85,22.14,22.14,0,0,1-13.2,1.86A49,49,0,0,1,44.09,121.71Z"/><path class="cls-106" d="M61.88,128.26a37,37,0,0,1,3.6,6.47l0,0a28,28,0,0,0-5.3-5.7C60.71,128.79,61.29,128.54,61.88,128.26Z"/><path class="cls-111" d="M53.5,128.87a27.31,27.31,0,0,0,13.3,6.29c0,.14.09.28.12.41a17.28,17.28,0,0,1-3.29.45c-5.32.22-10.19-2.87-14.35-7.41A25.49,25.49,0,0,0,53.5,128.87Z"/><path class="cls-106" d="M50.72,117.58a20.87,20.87,0,0,0-2.28-1.84c-.67-.48-.8-.93-.65-1.37,3.06.8,4.59,2.2,7,4.89a15.27,15.27,0,0,1-1.7,1.17A19.83,19.83,0,0,0,50.72,117.58Z"/><path class="cls-112" d="M44.19,113a3,3,0,0,0-.21,1.38c.18,2.66,1.76,5.31,3.41,7.6a16.41,16.41,0,0,1-3.3-.25,73.23,73.23,0,0,1-5.27-10.08A16.6,16.6,0,0,0,44.19,113Z"/><path class="cls-106" d="M55.56,119.93,57.38,122a54.52,54.52,0,0,1,3.48,4.41c-.66.31-1.31.66-2,.94a22.88,22.88,0,0,1-2.65-2.86c-.8-1.06-1.79-2.27-2.59-3.4A16.42,16.42,0,0,0,55.56,119.93Z"/><path class="cls-113" d="M47.4,122c.49.69,1,1.36,1.46,2a31.41,31.41,0,0,0,4.64,4.93,25.49,25.49,0,0,1-4.22-.27,49,49,0,0,1-5.19-6.89A16.41,16.41,0,0,0,47.4,122Z"/><g class="cls-114"><path class="cls-115" d="M47,76.93c8.08-.27,12,1.88,13.83,3.44-2.44-1.26-6-2.31-6-.14.07,3,8,6.89,5.85,22-1.58,10.88-6.36,9.17-2,16.65,4.06,7,15.18,13.82,16.16-.23.94,7.79-.19,15-8,16.9-1.07-4.5-5.77-11.09-9-14.67-4.86-5.47-5.91-7.14-13.37-7.86a17.19,17.19,0,0,1-5.77-1.39A54.12,54.12,0,0,1,35,99.47C33.57,89.78,34.52,77.34,47,76.93Z"/></g><g class="cls-116"><path class="cls-117" d="M68,130.57a12.35,12.35,0,0,0,7.09-5.34c-.47,5-2.64,9-8.13,10.33a19.72,19.72,0,0,0-1.75-4.38C66.17,131,67.12,130.79,68,130.57Z"/><path class="cls-118" d="M43.57,77.41c-6.49,4.55-5.53,17-4.05,24.28.53,2.61,1.18,5.61,2.82,7.77,1.8,2.36,4.62,2.71,7.28,3.58s4.52,3.24,6.22,5.38c.21.26.58.68,1,1.21-3.95-4.46-5.4-5.93-12.25-6.6a17.19,17.19,0,0,1-5.77-1.39A54.12,54.12,0,0,1,35,99.47C33.71,90.76,34.35,79.84,43.57,77.41Z"/></g><path class="cls-106" d="M58.16,80.81c4.75,2.24,6.57,9.46,8.35,14a94.89,94.89,0,0,1,5.79,18.9,21.53,21.53,0,0,1,.11,8.91s-3-14.15-7.06-24.14C61.65,89.24,56.42,80,58.16,80.81Z"/><path class="cls-119" d="M97.31,77.63a648.83,648.83,0,0,0,79.52-7.55c42.27-6.78,92.48-12.44,101.86-4.76S262,97.51,237.3,106.85s-74.16,5.3-97.43.72S99.13,97.7,99.13,97.7,88.44,85.71,97.31,77.63Z"/><path class="cls-120" d="M93.39,85a.25.25,0,0,0,.24.26h0c.16,0,11.65.43,25.62-.27a.23.23,0,0,0,.08.1,95.93,95.93,0,0,0,21.93,8.42c-19.44-.79-45.54-2.66-45.89-2.68h0a.25.25,0,0,0,0,.5c.17,0,6.57.47,15.34,1,0,0,0,0,0,.05.18.15,18.16,14.8,42.48,17.26h0a.25.25,0,0,0,0-.5c-21.94-2.21-38.69-14.42-41.72-16.75,9.93.62,22.66,1.36,32.86,1.72l.09,0h.07c3.44.12,6.59.2,9.24.21C169.16,108.3,212.52,111.93,213,112h0a.25.25,0,0,0,.26-.23.25.25,0,0,0-.23-.27c-.43,0-42.84-3.59-58.47-17.08h2.12c5.91-.1,11.58.71,18.14,1.64,6.14.87,13.12,1.86,21.72,2.25,5,.23,10.66.26,17-.05,0,0,0,0,0,0A84.75,84.75,0,0,0,234,101.8,56,56,0,0,0,251.75,100a.24.24,0,0,0,.17-.31.25.25,0,0,0-.31-.17c-15,4.29-32.2-.08-36.75-1.41,1.6-.09,3.23-.2,4.91-.33a133,133,0,0,0,56.05-17.92.25.25,0,0,0,.07-.34.24.24,0,0,0-.35-.07c-.07,0-2.25,1.44-6.12,3.44a.24.24,0,0,0-.18,0c-15.37,3.82-34.32-1.74-38.41-3.05,4.2-.74,8.24-1.6,11.91-2.61,14.34-4,29.06-7.79,37.57-7.57a.25.25,0,0,0,.26-.24.24.24,0,0,0-.24-.26C276,69,270,70,263.37,71.43h0c-.34,0-33.37,1.71-44.71-.36,12.27-5.64,39.16-8.74,39.44-8.77a.25.25,0,0,0,.22-.28.25.25,0,0,0-.28-.22c-.28,0-28.3,3.26-40.29,9.15-8.31,4.08-23.05,4.79-33.81,5.31a109.19,109.19,0,0,0-11.53.89c-1.15.21-2.61.4-4.25.58,6.51-4.94,17.31-8.44,17.41-8.48a.25.25,0,1,0-.15-.47c-.11,0-11.44,3.71-18,8.87a.25.25,0,0,0-.09.17c-9.78,1-25.27,1.47-25.46,1.48a108.28,108.28,0,0,0-15.08.91l-2.67.43a85.06,85.06,0,0,1-11.37,1.25c-6.42.36-18-.66-18.08-.67a.25.25,0,1,0,0,.5c.07,0,4.22.37,8.94.59,3.18.15,6.61.23,9.21.08a85.36,85.36,0,0,0,11.42-1.26l2.66-.42a107.4,107.4,0,0,1,15-.9c.24,0,22.61-.7,30.59-2.14a109.22,109.22,0,0,1,11.46-.88c10.77-.52,25.51-1.23,33.93-5.32a62.69,62.69,0,0,0,9.32,1c11.36.53,27.26-.06,33.52-.33-5.75,1.34-11.94,3-18.07,4.69a162.12,162.12,0,0,1-20.63,4h0l-.06,0c-10.34,1.4-20.88,2.22-29,2.86l-1.51.12c-5.5.43-12.55,0-20-.53-10.89-.72-23.23-1.54-35.25,0C116,85.62,93.87,84.8,93.64,84.79A.25.25,0,0,0,93.39,85ZM186,97c1.7-1.43,13.17-10.46,36-15.77,2.63-.36,5.25-.75,7.82-1.19,0,0,0,0,0,0a97.16,97.16,0,0,0,24.39,4.59,55.09,55.09,0,0,0,13.63-.92A135.08,135.08,0,0,1,219.73,97.3,174.82,174.82,0,0,1,186,97ZM120.11,85c5.2-.28,10.71-.71,16.09-1.38,12-1.49,24.29-.68,35.15,0,7.48.5,14.55,1,20.09.53l1.51-.12c7-.55,15.87-1.24,24.84-2.32-22,5.88-32.2,15-32.31,15.06a.22.22,0,0,0-.05.11c-3.84-.42-7.33-.91-10.58-1.37-6.58-.93-12.27-1.74-18.22-1.64-3.12.05-7.39,0-12.22-.21C133.54,91.83,122.62,86.3,120.11,85Z"/><path class="cls-106" d="M71.26,95.49s-.63-2.53.28-2.32,3.1,10.22,8,12.78-1.74,5.16-4.82-2S71.26,95.49,71.26,95.49Z"/><ellipse class="cls-121" cx="48.19" cy="94.76" rx="6.98" ry="11.39" transform="matrix(0.96, -0.26, 0.26, 0.96, -23.2, 15.99)"/><ellipse class="cls-122" cx="48.48" cy="94.27" rx="6.29" ry="11.41" transform="matrix(0.96, -0.26, 0.26, 0.96, -23.05, 16.04)"/><path class="cls-123" d="M47.13,93.26a13.81,13.81,0,0,0-4.35,3.15c0-.14-.09-.28-.12-.42-1.56-5.73-.26-11.07,2.9-11.93s7,3.09,8.55,8.82c.1.35.18.71.26,1.06A7.23,7.23,0,0,0,47.13,93.26Z"/><path class="cls-124" d="M42.66,96c1.56,5.73,5.39,9.68,8.55,8.82s4.46-6.2,2.9-11.93-5.39-9.68-8.55-8.82S41.1,90.27,42.66,96ZM46.4,85.71c2.58-.63,5.73,2.32,7,6.59s.25,8.23-2.33,8.86-5.72-2.32-7-6.58S43.82,86.34,46.4,85.71Z"/><ellipse class="cls-125" cx="49.73" cy="90.41" rx="1.52" ry="2.79" transform="translate(-25.86 20.17) rotate(-18.29)"/><ellipse class="cls-125" cx="51.68" cy="95.82" rx="0.7" ry="1.28" transform="translate(-27.55 21.16) rotate(-18.36)"/><path class="cls-126" d="M111.18,102.94s-8.09-3.12-8.43,0-1.71,7.16-3.34,8.77,2.95,3.76,8.69,3.9,12.09-5.45,9.89-8.53C116,104.35,111.18,102.94,111.18,102.94Z"/><g class="cls-70"><path class="cls-127" d="M97.31,77.63s1.8,0,5.06-.17a6.91,6.91,0,0,0-4.42,5.32c-.75,5.46,78.55,21,128.08,8.81,45.51-11.15,45.89-27.43,26.67-29.91,12.82-.29,22.4.7,26,3.64C288.07,73,262,97.51,237.3,106.85s-74.16,5.3-97.43.72S99.13,97.7,99.13,97.7,88.44,85.71,97.31,77.63Z"/></g><g class="cls-128"><path class="cls-127" d="M102.68,91.12c6.34,3.29,36.67,11.69,80.71,15s80.24-17.75,87.84-30.89c5.17-8.93-1.81-12.19-6.81-13.36,6.85.43,11.88,1.51,14.27,3.46C288.07,73,262,97.51,237.3,106.85s-74.16,5.3-97.43.72S99.13,97.7,99.13,97.7s-9.21-10.34-3.41-18.29c0,0,0,.1,0,.15C95.84,87.8,96.34,87.83,102.68,91.12Z"/></g><path class="cls-97" d="M108.8,81.08s-.77-1.37,4.24-1.8,31.61-3,44.66-4.42,47.64-7.61,59.67-8.72,40.34-4.62,38.84,2.63-31.09,20.53-64.06,20.67-57-2.31-67.91-4S107.2,83.34,108.8,81.08Z"/><path class="cls-129" d="M1.71,171.76s-1-1.46,2.21-2.89S29,164.2,29.62,164s1.88.84-.16,1.66S7,169.75,5.24,171,1.73,173.09,1.71,171.76Z"/><path class="cls-130" d="M93.16,114.9s2.66-1.79,4,.19.86,6.53-6.42,9.11-31.11,6.71-38.47,7.46a1.79,1.79,0,0,1-1.66-1.83c.08-1.66,23.26-4.41,29.88-7A51.11,51.11,0,0,0,93.16,114.9Z"/><path class="cls-131" d="M48.33,130.47s1.47-1.26,2.4.2-1.31,3.27-4.57,8.86-14.51,25.72-15.59,25.58-1.22-.64-.13-2.59Z"/><path class="cls-132" d="M33.28,157.42c2.08-2.91,4.24-5.78,6.19-8.69,2.07-3.11,4.14-6.18,6-9.41a37.77,37.77,0,0,1,5.41-7.6c-.29,1.39-2.2,3.45-4.74,7.8-3.26,5.59-14.51,25.72-15.59,25.58s-1.22-.64-.13-2.59Z"/><path class="cls-133" d="M106.58,121.85s-.55-2.44,6.12-4.46,14.18-4.09,16.37-4.65,3.23,4.06-2.74,7.12S105.93,126.73,106.58,121.85Z"/><path class="cls-134" d="M125.71,118.57s-1.22-4.05,2.66-5.12c0,0,1.43-.35,2,3.09s4.18,22.92,5.78,29.82,3.37,9.81,2.49,10.77-2.19,4.23-2.61,2.54-5.94-26.25-8.12-33.09S125.71,118.57,125.71,118.57Z"/><path class="cls-135" d="M244.88,148.08s-.78-3,1.3-2.85,15,4.61,21.7,11.25,0,5.33-2.39,3.05a49,49,0,0,0-13.11-8.1C247,149.18,245.39,149.68,244.88,148.08Z"/><path class="cls-136" d="M246.18,145.22a16.94,16.94,0,0,1,3.43.9c-.87,1.61,3,3.83,4.91,4.75,5,2.38,10.7,5.56,13.92,10.28a7.76,7.76,0,0,1-2.95-1.63,49,49,0,0,0-13.11-8.1c-5.39-2.25-7-1.74-7.5-3.35C244.88,148.08,244.1,145.13,246.18,145.22Z"/><path class="cls-137" d="M198.13,49.47c1.44,1,4.6,3.08,3,7s1.94,4,2.28,7.35,3.6,3,4,6.3,1.31,3.93,2.17,4.34,3.07,3.77,2.72,6,3.05,4.14,2.84,6.13,1.64,2.32,1.86,5.71,3.13,2.52,2.42,4.48,2.28,2.1,1.7,3.7-.53,3.22,2.24,5.47.71,2.61,4.38,6.11,11.88,23.86,14.6,29.81,3.78,4.67,4.86,2.89-27.27-58.2-28.29-61.17-18.24-39.39-19.36-40.19-1.87.83-1.87.83S195.59,47.73,198.13,49.47Z"/><path class="cls-138" d="M100.46,122.73a2.74,2.74,0,0,1-.43-.41c-.88-1-2.13-3.83,6.76-6.79,3.18-1.06,3.21-1.1,7.12-2.66,0,0,66.42-64.35,83.86-69,0,0,1,0,.42,1.77s-72.65,69.55-72.65,69.55a7.77,7.77,0,0,1-3.94,2.32C118.73,118.34,104.78,124.84,100.46,122.73Z"/><g class="cls-70"><path class="cls-139" d="M104,116.59a8.08,8.08,0,0,1-.57.71c-5.4,6,15.57,1.72,37.8-23.75,19.4-22.23,48-41.29,55-45.79-11.61,11.8-70.69,67.4-70.69,67.4a7.77,7.77,0,0,1-3.94,2.32c-2.87.87-16.82,7.37-21.14,5.26a2.74,2.74,0,0,1-.43-.41C99.26,121.43,98.2,119.14,104,116.59Z"/></g><g class="cls-72"><path class="cls-140" d="M125.68,117.49s1-2.45,2.16.1,4.55,18.44,5.61,24.4c0,0,2.2,11.68,2.68,12.11s1.21,2.64,1.58-1.76c0-.08,0-.15,0-.23.91,2.91,1.49,4.39.91,5-.88,1-2.19,4.23-2.61,2.54s-5.94-26.25-8.12-33.09-2.21-8-2.21-8a5.06,5.06,0,0,1-.15-.85Z"/></g><path class="cls-141" d="M137.22,157.49s1.33-1.69,4.33,1.62,10.88,11.32,12.07,12.54,1.09,3.3-2,1.74-14.77-11.76-15-12.43S135.09,158.63,137.22,157.49Z"/><path class="cls-142" d="M137.22,157.49a1.4,1.4,0,0,1,1.1-.42,4.44,4.44,0,0,0,1.34,3.7,11.23,11.23,0,0,0,3.63,4.3c3.53,2.71,8.17,5,10.79,8.69-.36.3-1.13.3-2.44-.36-3.09-1.56-14.77-11.76-15-12.43S135.09,158.63,137.22,157.49Z"/><g class="cls-76"><path class="cls-143" d="M52.92,128.76c.41.66,2.83.73,14.63-1.56C80,124.78,89.71,123,94.27,118.95c3.07-2.72,2.17-4.14,1.26-4.78a2,2,0,0,1,1.63.92c1.32,2,.86,6.53-6.42,9.11s-31.11,6.71-38.47,7.46a1.79,1.79,0,0,1-1.66-1.83C50.62,129.51,51.48,129.15,52.92,128.76Z"/></g><path class="cls-144" d="M2.67,170.72s1.72-1.25,6.27-2.29S22,166,22,166s-16.28,2.74-18.54,4.8C3.5,170.84,2.39,171.46,2.67,170.72Z"/><path class="cls-145" d="M48.95,131s.74.16.34.7-9.4,15.55-9.4,15.55Z"/><path class="cls-146" d="M80.52,123.64s5.94-2.39,9.23-5.15,5.68-4.07,4.84-2.11S86.39,122.83,80.52,123.64Z"/><path class="cls-147" d="M116.45,111.74s43.8-39.8,49.38-44.41c0,0-27.91,25.55-33.54,31.28S112.49,116.42,116.45,111.74Z"/><path class="cls-148" d="M127.67,115.84s1.63,2.49,2.82,9.2,3.8,18.66,3.8,18.66-4.67-25-5.39-27.47S127.28,115.24,127.67,115.84Z"/><path class="cls-149" d="M139.23,159a56.08,56.08,0,0,0,7.89,7.61C150.83,169.27,138,156.86,139.23,159Z"/><path class="cls-150" d="M197.67,44.25s.74-1.63,1.87-.83a69.87,69.87,0,0,1,4.17,7.84,7.71,7.71,0,0,0,.35,4.1c2.21,6.26-.68,4,1.95,8.25s6.11,8.27,6.29,11.61,2.88,6,4.69,10,2.89,9.46,5.77,11.92,1.06,5.88,4.85,10.21,3,4,6.29,11.61,10,21.94,10,21.94,1.89,1.91,2.15,0c.88,2.17,1.33,3.54,1.17,3.79-1.08,1.78-2.14,3.06-4.86-2.89s-10.93-26.31-14.6-29.81-1.61-3.86-4.38-6.11-2.82-3.88-2.24-5.47-2.42-1.74-1.7-3.7-2.2-1.1-2.42-4.48-2.07-3.72-1.86-5.71S212,82.7,212.3,80.47s-1.86-5.58-2.72-6-1.82-1.08-2.17-4.34-3.61-2.92-4-6.3-3.84-3.43-2.28-7.35-1.61-6-3-7C195.59,47.73,197.67,44.25,197.67,44.25Z"/><path class="cls-151" d="M206.74,60.48l13.31,28S210.3,69.77,206.74,60.48Z"/><path class="cls-152" d="M251.86,148.24s11.49,5.28,16.23,10.74C268.1,159,264.67,152.08,251.86,148.24Z"/><path class="cls-97" d="M261,99.09s1.39-.43.7,1.16-9.27,8.69-16.16,11.86C245.55,112.11,249,102.53,261,99.09Z"/><path class="cls-59" d="M141.23,2.88s-9.8,4-28.27,3.81C113,6.69,140.81,6.73,141.23,2.88Z"/></g></g></svg>