<svg id="Layer_1" data-name="Layer 1" xmlns="http://www.w3.org/2000/svg" xmlns:xlink="http://www.w3.org/1999/xlink" viewBox="0 0 447.88 174.12"><defs><style>.cls-1{fill:#525731;}.cls-2{fill:url(#radial-gradient);}.cls-3{fill:url(#radial-gradient-2);}.cls-4{fill:#2a2f78;}.cls-5{fill:url(#linear-gradient);}.cls-6{fill:url(#linear-gradient-2);}.cls-7{fill:url(#linear-gradient-3);}.cls-8{fill:url(#linear-gradient-4);}.cls-9{fill:url(#linear-gradient-5);}.cls-10{fill:url(#linear-gradient-6);}.cls-11{fill:url(#linear-gradient-7);}.cls-12{fill:url(#linear-gradient-8);}.cls-13{opacity:0.5;fill:url(#radial-gradient-3);}</style><radialGradient id="radial-gradient" cx="-8080.95" cy="-7428.34" r="5.19" gradientTransform="translate(8072.97 -6126.13) rotate(-90) scale(0.77 1.08)" gradientUnits="userSpaceOnUse"><stop offset="0" stop-color="#ff6b4a"/><stop offset="0.39" stop-color="#f88e51"/><stop offset="0.78" stop-color="#f3ab57"/><stop offset="1" stop-color="#f1b659"/></radialGradient><radialGradient id="radial-gradient-2" cx="-8047.57" cy="-7426.34" r="4.85" xlink:href="#radial-gradient"/><linearGradient id="linear-gradient" x1="-8075.67" y1="-7126.05" x2="-8035.35" y2="-7126.05" gradientTransform="translate(7485.58 -7999.2) rotate(-90)" gradientUnits="userSpaceOnUse"><stop offset="0" stop-color="#ff7500"/><stop offset="1" stop-color="#d62700"/></linearGradient><linearGradient id="linear-gradient-2" x1="-8075.67" y1="-7205.49" x2="-8031.3" y2="-7205.49" xlink:href="#linear-gradient"/><linearGradient id="linear-gradient-3" x1="-8075.67" y1="-7282.66" x2="-8036.28" y2="-7282.66" xlink:href="#linear-gradient"/><linearGradient id="linear-gradient-4" x1="-8079.44" y1="-7357.61" x2="-8050.42" y2="-7357.61" xlink:href="#linear-gradient"/><linearGradient id="linear-gradient-5" x1="9713.24" y1="-7126.05" x2="9753.56" y2="-7126.05" gradientTransform="matrix(0, 1, 1, 0, 7485.58, -9614.36)" xlink:href="#linear-gradient"/><linearGradient id="linear-gradient-6" x1="9713.24" y1="-7205.49" x2="9757.61" y2="-7205.49" gradientTransform="matrix(0, 1, 1, 0, 7485.58, -9614.36)" xlink:href="#linear-gradient"/><linearGradient id="linear-gradient-7" x1="9713.24" y1="-7282.66" x2="9752.63" y2="-7282.66" gradientTransform="matrix(0, 1, 1, 0, 7485.58, -9614.36)" xlink:href="#linear-gradient"/><linearGradient id="linear-gradient-8" x1="9709.47" y1="-7357.61" x2="9738.5" y2="-7357.61" gradientTransform="matrix(0, 1, 1, 0, 7485.58, -9614.36)" xlink:href="#linear-gradient"/><radialGradient id="radial-gradient-3" cx="251.91" cy="65.02" r="129.07" gradientTransform="translate(-18.03 37.38) scale(1.08 0.77)" gradientUnits="userSpaceOnUse"><stop offset="0" stop-color="#fff"/><stop offset="0.06" stop-color="#fff" stop-opacity="0.92"/><stop offset="0.33" stop-color="#fff" stop-opacity="0.6"/><stop offset="0.57" stop-color="#fff" stop-opacity="0.34"/><stop offset="0.76" stop-color="#fff" stop-opacity="0.16"/><stop offset="0.91" stop-color="#fff" stop-opacity="0.04"/><stop offset="1" stop-color="#fff" stop-opacity="0"/></radialGradient></defs><title>play-4</title><rect class="cls-1" y="120.29" width="447.88" height="53.83"/><path d="M386.25,91.08A157.69,157.69,0,0,0,365.67,90c-.89,2.58-1.75,5.12-2.65,7.69-.4,1.17-.83,2.35-1.34,3.51a109.74,109.74,0,0,0,18.78.93,10.35,10.35,0,0,0,.95,3.42,6.9,6.9,0,0,0,1,1.48,7.05,7.05,0,0,0-.54,5.1,2.77,2.77,0,0,0,.66,1.2,2.69,2.69,0,0,0,1.28,3.76c-.26.41-.55.82-.83,1.25a2.17,2.17,0,0,0-.23,1.76,169,169,0,0,1-38.6,3.08c-3.2-.13-4,3.65-.83,4,30.72,3.23,100.53-5,103.53-35.4,3.38-34.11-62.67-49.07-101.41-46.18-4.43.34-7,3.45-5,6.2,3.53,5,11.13,7.22,18.2,9.2a156.55,156.55,0,0,1,29,11.67,13.23,13.23,0,0,0,.89,2.14,43.53,43.53,0,0,0-7.92.38c-3.92.55-4.66,4.34-2.32,6a67.48,67.48,0,0,0,11.77,6.35,5.49,5.49,0,0,0,.08.88A28.44,28.44,0,0,0,386.25,91.08ZM364,53.54c1.44.09,2.9.19,4.37.31a2.71,2.71,0,0,0,1,1.53L367,54.51C366.07,54.14,365,53.84,364,53.54Z"/><path d="M11.06,125.13c7.77-1.39,13.64-5.54,18.12-10.06,3.08-3.12,6.55-6.72,10.73-9.43a17.08,17.08,0,0,0,6.89,5.54c11.53,5.35,27.75.2,37.52-5.1,3.73-2,4.28-5.61,2.47-8.12.77-3.7-.48-8.1-.83-12.13a6.34,6.34,0,0,0,.74-2.49,2.88,2.88,0,0,0,.46.14c2.46.4,4.93.72,7.39,1.08-1.49.75-2.26,2.37-.54,3.29,9.8,5.24,30.49,3.28,41.92,3.83,6.23.28,12.48.49,18.79.67,18.39,2.39,38.76,5,57.13,3a4.29,4.29,0,0,0,1.37-.39c16.13,1.93,34.17,1,48.73,1,11.89,0,23.79-.42,35.62-1.14,27.07,7.49,60.86,7.42,90.5,4.31.24-1.78.58-3.57.95-5.28s.55-3.65.82-5.51c-15.23-1.82-31.33-2.17-47.37-2.09-.35-1.6-2.08-3-4.89-3.06-39.79-.61-79.54.14-119.3-1.57-19.91-.83-39.77-2-59.71-2.58C144,78.53,129.36,76.49,115,78c-9.08-.25-18.1-.31-26.92.09a1.16,1.16,0,0,0-.24.05,1.14,1.14,0,0,1,.13-.17c2.47-2.63.26-5.74-2.88-7.33-5.06-2.63-11.7-4-17.29-6-5.27-1.93-10.92-1.17-15.74.88A25.27,25.27,0,0,0,41.68,73c-5.35-3.94-8.85-9.14-14.13-13.09-4.62-3.48-10.44-7.27-16.65-9.21C3.14,48.28-3.48,56.39,4.36,59,17.59,63.32,31,69.31,38.74,78.21a36.71,36.71,0,0,0-2.21,11.61,30.74,30.74,0,0,0,1,10.83c-10,6.5-22,11.27-32.17,17.7C.79,121.23,5.84,126.08,11.06,125.13Z"/><path d="M33.23,39.11c4.41,6.43,11.82,9.67,19.85,9.42,4.53-.15,9-1,13.52-1.27,11.42-.59,12.79,8.81,18.09,16,1.86,2.52,6.93,1.82,6.56-1.74-1-9.79-4.23-21.61-16.46-21.26-10.82.32-31.2,8-37.66-3.4C35.74,34.42,31.6,36.74,33.23,39.11Z"/><path d="M85.56,117a32.66,32.66,0,0,0-2.37,6.19c-.27,1-.53,1.92-.78,2.89a10.51,10.51,0,0,0-.59,1.32c-4.65.17-9.2-.15-13.91.79a35.56,35.56,0,0,0-14.57,6.07c-5.33,3.92-9.57,10-15.4,13.11-3.76,2,1,7,3.56,4.12,4.42-5,12.06-10,18.26-13,8.24-3.93,15.16-3.24,24-1.87,9.44,1.46,9.85-12,10.5-17.59C94.71,114.84,87.38,113.23,85.56,117Z"/><path d="M89.46,29.6c2.71-.39,5.21,2.07,7.62,2.72,3.73,1,7.43.71,11.18,1.56,6.41,1.45,13.34,1.86,20,2.5a18.64,18.64,0,0,0,1.77,9.2c1.54,3.13,7.08,1.43,6.88-1.76-.26-3.75,1.13-7.38.6-11.14-.4-2.91-2.73-4.4-5.86-4-7,1-13.63-.14-20.59.3-6.44.41-14.94,1.59-19.72-3.88S81.92,30.72,89.46,29.6Z"/><path d="M150.33,131.67c-3.12,3.33-2.7,6.86-3.16,10.75a95.7,95.7,0,0,0-19.49,1.9c-7.76,1.52-16.32,2.11-23.69,5.25-2.95,1.27-.89,6.12,1.76,4.37,6.12-4,18.47-3.9,25.72-4.43,4.08-.27,8.58-2.18,12.53,0a10.51,10.51,0,0,0,6.4,1.65,4,4,0,0,0,3.72-3.23c1.06-4.26.08-8.8,1-13.22C155.84,131.57,152.37,129.5,150.33,131.67Z"/><path d="M277.43,135.58c-4,4.82-3.22,15.94,3.15,18.52,5.75,2.34,12.07,1.14,18,3.08,8.75,2.87,16.33,9.2,22.68,15.91,3.27,3.43,7.71-2.57,3.77-5.35-7.92-5.57-16-11.17-24.72-15.23a56.5,56.5,0,0,0-10.69-3.72c-6.33-1.5-7-4.88-6.68-10.83C283.1,135,279.2,133.46,277.43,135.58Z"/><path d="M303.24.55c-2.31,1.88-5,2.83-7.65,4.08-4.21,1.94-6.94,5.28-11.78,6.23-7.16,1.42-14,2.64-21.26,3.46-10.17,1.17-5.88,16.35-.69,21a2.08,2.08,0,0,0,3.51-1c.29-1.59.69-11.9-.63-11.74,4.45-.54,8.5-2.08,12.82-3.31a78.21,78.21,0,0,0,13.55-5.25,100.07,100.07,0,0,0,14.93-8.69C308.86,3.28,306-1.64,303.24.55Z"/><path d="M294.09,32.18a3.71,3.71,0,0,0,6.76,2.89c3.4-5.14,7.58-3.17,12.66-2.38,4.15.65,8.54-.15,12.75.07,6.32.34,12.44,0,18.64,1a2.83,2.83,0,0,0,2.8-.8,2.51,2.51,0,0,1,.17-.24,2.83,2.83,0,0,0-.09-3.79l-.17-.2A2.79,2.79,0,0,0,344.8,28c-10.32,3-22.6,2.78-32.72-1.28C304.86,23.83,296.31,22,294.09,32.18Z"/><path d="M408.17,127.67c-11.49,1.49-21.09,3.52-31.83,7.89-4.74,1.94-8.78,3.62-14,3.66-3.66,0-3.38-6.62-6.26-9.32a1.22,1.22,0,0,0-1.69,0c-6,6.24-1.4,18.56,8.12,17.49C376.69,145.77,389,128,405,134.33,408.13,140.46,417.63,126.45,408.17,127.67Z"/><path d="M80.51,112.59a9.58,9.58,0,0,0,4,1.38c7.58,5.93,19.51,10.36,28.83,13.53,30.18,10.22,67.15,12.32,100,14.45,39.65,2.58,78.84-.88,118.34-3.1,17.34-1,33.88-5.07,49.86-9.72,5.52-1.61,11.12-3,16.71-4.32,8.12-4.12,26.1-9.45,32.87-22.86a15.82,15.82,0,0,1,1.34-1.92,8.46,8.46,0,0,0-.54-5.24,80.21,80.21,0,0,0-9,0c-3.61-.63-7.32-1-10.41-1.39-35.41-4.56-71.53-1.71-107.25-3.42-37.63-1.8-73.77-4-111.51-2.41-17.71.74-35.51,1-53.28,1.2-12,.13-23.71-1.44-35.51-2.41,2.43-.4,4.87-.86,7.47-1.27,12.67-2,25.81-1.72,38.68-1.52,27.8.44,55.62,1.7,83.42,2.26,53.9,1.1,107.66.41,161.49,3.29,11.68.62,23.34,1.3,35,1.82l.52,0C448.16,77.51,410,56.09,393.76,47.08c-1.9-.56-3.79-1.12-5.77-1.64C363.43,39,335.52,37,309.71,34.58a567.88,567.88,0,0,0-151.44,6.17A521.82,521.82,0,0,0,95,56.25C84.12,59.57,72.86,66.68,76.41,75.11a7,7,0,0,0,0,1.81c.56,3.95,4,7.76,9.23,8.8-4,.33-7.17,2.22-8.5,4.66C69.25,95.42,73.56,108.18,80.51,112.59ZM422.71,76.78c1.39.72,2.78,1.43,4.15,2.17-1.47-.06-2.93-.14-4.42-.25A5.3,5.3,0,0,0,422.71,76.78Z"/><path d="M361.36,76.43C314.17,56.9,256.82,50,202.49,52.13c-13.93.56-27.62,2.65-41.55,3.27-15.15.66-30.43.36-45.52,1.78-20.22,1.88-31.72,12-33.06,25.38a6.12,6.12,0,0,0-.68,1.65,12.31,12.31,0,0,0,3.95,1.51,13.45,13.45,0,0,0-4.11,1,5.65,5.65,0,0,0,.26,1,7.35,7.35,0,0,0-2.54,3c-9.28,21,84.85,28.88,97.91,30.08,30.66,2.81,61.13,4.42,92,3.3,16.74-.58,32.95-2.84,49.46-4.58,12.75-1.33,23.09-4.08,35.28-6.46,6.62-1.3,14-2.81,16.39-8,1.65-3.61.33-8.32-4.07-10.77a9,9,0,0,0,3.71-3.6c-21.57-.34-43.26.27-64.78-.76-37.63-1.8-73.77-4-111.51-2.41-17.71.74-35.51,1-53.28,1.2-12,.13-23.71-1.44-35.51-2.41,2.43-.4,4.87-.86,7.47-1.27,12.67-2,25.81-1.72,38.68-1.52,27.8.44,55.62,1.7,83.42,2.26,45.5.93,90.91.61,136.33,2.21C371.12,83.82,367.86,79.12,361.36,76.43Z"/><path d="M121.42,72.78c-13.08.88-29.3,2.48-40,8.19-3.14,1.67-3.12,4.52-1.12,6.17a2.59,2.59,0,0,0,1,3.45c18.35,11,52.77,10.12,75.45,11.28,32.06,1.62,63.36,5.21,95.6,4.19,30.89-1,62.32.52,93.33.32,25.21-.16,47.46-7.62,71.09-12.24,0,0,.1,0,.11.08,4.31,3.82,11.93-1.72,7.5-5.5-4.09-3.47-12.53-3.64-18.28-4.23-11.12-1.11-22-3.1-33.18-4-32.77-2.65-65.6-6-98.47-7.92-34.49-2-68.76-1.76-103.34-2.14C154.39,70.25,138,71.68,121.42,72.78Zm140.47,5.93c29,1.48,57.55,5.75,86.49,7.8,16.12,1.15,31.82,1.9,47.72,4.36,1.95.3,4.85.4,7.93.58-4.26,1.15-8.49,2.42-12.77,3.46a213.29,213.29,0,0,1-40,5.72c-30.71,1.26-61.94-1.07-92.66-1.24-34.27-.21-66.43-4.37-100.07-8.57-14.38-1.81-29.08-1.48-43.49-3.5-3.36-.47-6.64-1.14-9.87-1.77C125.65,83.18,146.64,82,167,79.63,198.27,76,230.36,77.1,261.89,78.71Z"/><path class="cls-2" d="M38.23,100.44c0,2.18,2.62,4,5.69,3.93s5.56-1.87,5.52-4.06-2.64-4-5.7-3.94S38.19,98.25,38.23,100.44Z"/><path class="cls-3" d="M40.76,74.72c0,2,2.44,3.71,5.33,3.68s5.2-1.76,5.16-3.8-2.47-3.72-5.34-3.68S40.71,72.66,40.76,74.72Z"/><path class="cls-4" d="M81.67,84.21a5.61,5.61,0,0,0-.17,2.48,13.45,13.45,0,0,1,4.11-1A12.31,12.31,0,0,1,81.67,84.21Z"/><path d="M188.52,87.44c-.24.08-.45.18-.67.28,1.94-.06,3.89-.11,5.81-.2l3.94-.11a1.62,1.62,0,0,0-.87-1.85l-1.58-.87c-4.81-.16-9.65-.29-14.45-.44C183.24,85.39,185.83,86.48,188.52,87.44Z"/><path d="M284.27,87.1a1.71,1.71,0,0,1,.64,1.85l6.7.32c.28-.39.61-.77.91-1.17a1.65,1.65,0,0,0,.23-1.58c-3.08,0-6.18-.07-9.3-.1C283.73,86.65,284,86.89,284.27,87.1Z"/><path d="M319.15,88.3c-1.51.13-2.58.94-2.43,2,2.51.07,5,.11,7.57.14a.76.76,0,0,1,.17-.08c1.73-.74,2.1-2.3,1.19-3.48-3.64,0-7.28-.11-10.9-.15A6,6,0,0,0,319.15,88.3Z"/><path d="M378,89.84c-.15.33-.23.68-.37,1,3.54.1,7.07.23,10.58.42.3-.84.65-1.66,1-2.5-3.48-.17-7-.34-10.41-.49C378.49,88.8,378.22,89.3,378,89.84Z"/><path class="cls-5" d="M339.84,52.49c-.1,5.23,5.33,9.52,9.29,13.92,3,3.37,5.65,7.3,10.69,9.08,6.08,2.14,13.33.36,19.56-1.56,4.72-1.45,9.75-3.21,12.05-6.49s1.23-7.32.07-11q-7.72-1.51-15.34-3.25A7.86,7.86,0,0,1,373,52c-1-.81-1.1-2-1.58-3-1.56-3.28-6.79-4.82-11.56-5.49s-10-1-13.64-3.27c-.79-.49-1.37-1.11-2.13-1.61a5.87,5.87,0,0,0-1.82-.92,6.3,6.3,0,0,0-1-.12c-.45,0-.86-.18-1.29-.26s-1.16,0-1.73-.08-.95-.24-1.44-.31c-1.18-.16-2.4-.15-3.59-.22-1.42-.09-2.83-.19-4.25-.35l-1.74-.22c-.49-.07-.78,0-.72.42s-.16.68-.2,1a4.66,4.66,0,0,0,.06,1.13C327.22,44.94,340,44.93,339.84,52.49Z"/><path class="cls-6" d="M258.42,50.08c-.11,5.75,5.87,10.48,10.22,15.33,3.34,3.71,6.22,8,11.76,10,6.69,2.36,14.67.4,21.52-1.71,5.2-1.6,10.73-3.53,13.27-7.14s1.36-8.06.07-12.06q-8.5-1.66-16.89-3.57a8.65,8.65,0,0,1-3.49-1.34c-1.09-.89-1.21-2.17-1.74-3.3-1.71-3.61-7.48-5.3-12.72-6s-11-1.1-15-3.6c-.87-.53-1.51-1.22-2.34-1.78a6.46,6.46,0,0,0-2-1,6.93,6.93,0,0,0-1.13-.14c-.49,0-.94-.2-1.42-.29-.64-.12-1.28,0-1.91-.08s-1-.26-1.59-.34c-1.3-.18-2.64-.16-4-.24-1.56-.1-3.12-.21-4.67-.39l-1.91-.24c-.54-.07-.85,0-.79.46s-.18.75-.22,1.12a5.13,5.13,0,0,0,.07,1.25C244.53,41.77,258.58,41.76,258.42,50.08Z"/><path class="cls-7" d="M184.37,53.88c-.09,4.92,5,9,8.75,13.12,2.86,3.18,5.32,6.88,10.07,8.55,5.73,2,12.56.34,18.42-1.47,4.45-1.37,9.18-3,11.35-6.11s1.16-6.9.06-10.32q-7.27-1.42-14.45-3.06a7.41,7.41,0,0,1-3-1.14c-.93-.77-1-1.86-1.49-2.82-1.47-3.09-6.4-4.54-10.89-5.18s-9.38-.95-12.84-3.08c-.74-.46-1.29-1-2-1.52a11.7,11.7,0,0,0-2.05-1,4.26,4.26,0,0,1-1.64-1.57,2.8,2.8,0,0,0-2.06-1.21,4.85,4.85,0,0,0-1.08.13c-1.32.25-9.91.56-9.75,1.7,0,.32-.15.64-.19,1a4.39,4.39,0,0,0,.06,1.07C172.48,46.77,184.51,46.76,184.37,53.88Z"/><path class="cls-8" d="M114.31,63.6c-.07,3.63,3.7,6.61,6.45,9.67,2.11,2.34,3.92,5.07,7.42,6.3,4.22,1.49,9.25.25,13.57-1.08,3.28-1,6.77-2.23,8.37-4.5s.86-5.08,0-7.61q-5.36-1-10.65-2.25a5.46,5.46,0,0,1-2.2-.84c-.69-.56-.76-1.37-1.1-2.08-1.08-2.28-4.72-3.34-8-3.81s-6.91-.7-9.47-2.27c-.55-.34-1-.77-1.48-1.12a8.62,8.62,0,0,0-1.51-.73,3.14,3.14,0,0,1-1.21-1.16,2.06,2.06,0,0,0-1.51-.89,3.57,3.57,0,0,0-.8.1c-1,.18-7.3.41-7.19,1.25,0,.24-.11.47-.14.71a3.24,3.24,0,0,0,0,.79C105.54,58.36,114.4,58.35,114.31,63.6Z"/><path class="cls-9" d="M339.84,122.87c-.1-5.23,5.33-9.52,9.29-13.92,3-3.37,5.65-7.3,10.69-9.08,6.08-2.14,13.33-.36,19.56,1.56,4.72,1.45,9.75,3.21,12.05,6.49s1.23,7.32.07,11q-7.72,1.51-15.34,3.25a7.86,7.86,0,0,0-3.17,1.21c-1,.81-1.1,2-1.58,3-1.56,3.28-6.79,4.82-11.56,5.49s-10,1-13.64,3.27c-.79.49-1.37,1.11-2.13,1.61a5.87,5.87,0,0,1-1.82.92,6.3,6.3,0,0,1-1,.12c-.45,0-.86.18-1.29.26s-1.16,0-1.73.08-.95.24-1.44.31c-1.18.16-2.4.15-3.59.22-1.42.09-2.83.19-4.25.35l-1.74.22c-.49.07-.78,0-.72-.42s-.16-.68-.2-1a4.66,4.66,0,0,1,.06-1.13C327.22,130.42,340,130.43,339.84,122.87Z"/><path class="cls-10" d="M258.42,125.28c-.11-5.75,5.87-10.48,10.22-15.33,3.34-3.71,6.22-8,11.76-10,6.69-2.36,14.67-.4,21.52,1.71,5.2,1.6,10.73,3.53,13.27,7.14s1.36,8.06.07,12.06q-8.5,1.66-16.89,3.57a8.65,8.65,0,0,0-3.49,1.34c-1.09.89-1.21,2.17-1.74,3.3-1.71,3.61-7.48,5.3-12.72,6s-11,1.1-15,3.6c-.87.53-1.51,1.22-2.34,1.78a6.46,6.46,0,0,1-2,1,6.93,6.93,0,0,1-1.13.14c-.49,0-.94.2-1.42.29-.64.12-1.28,0-1.91.08s-1,.26-1.59.34c-1.3.18-2.64.16-4,.24-1.56.1-3.12.21-4.67.39l-1.91.24c-.54.07-.85,0-.79-.46s-.18-.75-.22-1.12a5.13,5.13,0,0,1,.07-1.25C244.53,133.59,258.58,133.6,258.42,125.28Z"/><path class="cls-11" d="M184.37,121.48c-.09-4.92,5-9,8.75-13.12,2.86-3.18,5.32-6.88,10.07-8.55,5.73-2,12.56-.34,18.42,1.47,4.45,1.37,9.18,3,11.35,6.11s1.16,6.9.06,10.32q-7.27,1.42-14.45,3.06a7.41,7.41,0,0,0-3,1.14c-.93.77-1,1.86-1.49,2.82-1.47,3.09-6.4,4.54-10.89,5.18s-9.38.95-12.84,3.08c-.74.46-1.29,1-2,1.52a11.7,11.7,0,0,1-2.05,1,4.26,4.26,0,0,0-1.64,1.57,2.8,2.8,0,0,1-2.06,1.21,4.85,4.85,0,0,1-1.08-.13c-1.32-.25-9.91-.56-9.75-1.7,0-.32-.15-.64-.19-1a4.39,4.39,0,0,1,.06-1.07C172.48,128.59,184.51,128.59,184.37,121.48Z"/><path class="cls-12" d="M114.31,111.76c-.07-3.63,3.7-6.61,6.45-9.67,2.11-2.34,3.92-5.07,7.42-6.3,4.22-1.49,9.25-.25,13.57,1.08,3.28,1,6.77,2.23,8.37,4.5s.86,5.08,0,7.61q-5.36,1-10.65,2.25a5.46,5.46,0,0,0-2.2.84c-.69.56-.76,1.37-1.1,2.08-1.08,2.28-4.72,3.34-8,3.81s-6.91.7-9.47,2.27c-.55.34-1,.77-1.48,1.12a8.62,8.62,0,0,1-1.51.73,3.14,3.14,0,0,0-1.21,1.16,2.06,2.06,0,0,1-1.51.89,3.57,3.57,0,0,1-.8-.1c-1-.18-7.3-.41-7.19-1.25,0-.24-.11-.47-.14-.71a3.24,3.24,0,0,1,0-.79C105.54,117,114.4,117,114.31,111.76Z"/><path class="cls-13" d="M158.27,40.75A521.81,521.81,0,0,0,95,56.25C84.12,59.57,72.86,66.68,76.41,75.11a7,7,0,0,0,0,1.81,9.86,9.86,0,0,0,3.08,5.69,3.27,3.27,0,0,0,.78,4.53c0,.08,0,.17-.07.25a8.14,8.14,0,0,0-3.06,3c-7.87,5-3.56,17.8,3.39,22.21a9.57,9.57,0,0,0,4,1.38c7.58,5.93,19.51,10.36,28.83,13.53,30.18,10.22,67.15,12.32,100,14.45,39.65,2.58,78.84-.88,118.34-3.1,17.34-1,33.88-5.07,49.86-9.73,5.52-1.61,11.12-3,16.71-4.32,8.12-4.12,26.1-9.45,32.87-22.86a15.78,15.78,0,0,1,1.34-1.92,8.46,8.46,0,0,0-.54-5.24,81.69,81.69,0,0,0-8.69-.05c1.67-.9,2.78-2.5,2.41-4.1l5.36.27.52,0C448.16,77.51,410,56.09,393.76,47.08c-1.9-.56-3.79-1.12-5.77-1.64C363.43,39,335.52,37,309.71,34.58A567.88,567.88,0,0,0,158.27,40.75ZM404,91.45l-2.67.74c-22-1.95-44.18-1.59-66.34-1.65-2.81,0-5.61,0-8.42-.07-2.11,0-4.23,0-6.34-.08-5-.1-10.07-.23-15.09-.47-37.63-1.8-73.77-4-111.51-2.41-17.71.74-35.51,1-53.28,1.2a247.73,247.73,0,0,1-26.44-1.59c-2.3-.35-4.57-.77-6.81-1.21,1.71-.3,3.39-.6,5.21-.89,12.67-2,25.81-1.72,38.68-1.52,27.8.44,55.62,1.7,83.42,2.26,10.39.21,20.77.35,31.14.47,34.4.4,68.76.52,103.13,1.69,9.14.69,18.24,1.52,27.39,2.93C398,91.17,400.94,91.27,404,91.45Zm22.83-12.51c-1.47-.06-2.93-.14-4.42-.25a5.3,5.3,0,0,0,.27-1.92C424.1,77.5,425.49,78.22,426.86,78.95Z"/></svg>