<svg id="Layer_1" data-name="Layer 1" xmlns="http://www.w3.org/2000/svg" viewBox="0 0 223.83 119.81"><defs><style>.cls-1{fill:#525731;}.cls-2{fill:#23366a;}.cls-3{fill:#384a96;}.cls-4{fill:#5282ab;}.cls-5{fill:#70bfeb;}</style></defs><title>play-3</title><rect class="cls-1" y="65.98" width="223.83" height="53.83"/><path d="M42.49,24.44c-2.6,2.42-5.29,4.74-7.84,7.21-1.5,1.45-3.42,4.29-5.82,4.11-2-.14-3.91-1.13-5.84-1.6a51.46,51.46,0,0,0-10.29-1.75c-2.37-.1-4.66-.76-7-.44l-.37-.15L5,31.72l0,0c-.07,0-.61-.41-.3-.17l-.9-.71a2,2,0,0,0-2.75.7,2,2,0,0,0,1.18,3l.76.24c-.06.15-.14.3-.2.44A4.46,4.46,0,0,0,2.4,37.5a1.44,1.44,0,0,0,2.38.64,10.75,10.75,0,0,0,1-1.52l.25-.37.07-.09a7.63,7.63,0,0,1,1.51.06l-.06.11c-.4.85-.62,2.34.47,2.82a2.1,2.1,0,0,0,2.45-.55c.34-.29.6-.69.95-1a1.58,1.58,0,0,0,.49-.73l2.45.26a3.19,3.19,0,0,0,.28,2.06,1.45,1.45,0,0,0,1.95.53,3,3,0,0,0,1.13-1.16l.16-.23a2.09,2.09,0,0,0,.66-.56q1.14.21,2.29.48a3.71,3.71,0,0,0,0,1.26c0,.07,0,.18,0,.33a1.74,1.74,0,0,0,.07.5,1.49,1.49,0,0,0,1.05,1.06,1.83,1.83,0,0,0,1.41-.21,3.18,3.18,0,0,0,.88-.87,2.63,2.63,0,0,0,.42-1c2.67.82,5.24,1.35,7.69-.84,4.17-3.74,7.66-8,12.21-11.37,1-.75,2.22-1.29,3.3-1.94,2.58-1.56,4,.8,5.28,2.67a11.23,11.23,0,0,1,1.72,6.25,9.37,9.37,0,0,0-5.19-.3C40.41,35.55,33.5,46.9,31.18,55.21,28.34,65.38,39.8,77.8,48,82a7.05,7.05,0,0,0,8.37-1.15c1.38,2.6-1.62,5.39-3.41,7.43s-3.23,4.88-6.55,2.28c-4.08-3.2-7.21-7-11.93-9.42A11.07,11.07,0,0,0,30.71,80a2,2,0,0,0-1.92-2.09,2,2,0,0,0-1.93,2.36,16.15,16.15,0,0,0-2.4.8,3.79,3.79,0,0,0-.51-1.17A2,2,0,0,0,21.8,79a1.91,1.91,0,0,0-1.35,2.34,5.79,5.79,0,0,0,.74,1.39c-.56.33-1.12.67-1.67,1,0-.1-.09-.19-.15-.29-.25-.45-.54-.88-.76-1.34a1.79,1.79,0,0,0-2.44-.66,1.82,1.82,0,0,0-.66,2.44,5.23,5.23,0,0,0,1.09,1.34l.23.23c-.75.47-1.5.94-2.25,1.37-.21-.18-.43-.35-.65-.54-.48-.42-.92-.86-1.39-1.29a2.91,2.91,0,0,0-.7-.7,2.12,2.12,0,0,0-2.9.74l-.05.11a2.2,2.2,0,0,0,.75,2.93c.28.22.6.45.94.68l-.34.13a22.13,22.13,0,0,0-2.82-2.2C5.65,85.31,3.29,88.34,5,89.71c.38.3,1.11.84,1.34,1l0,0a4.52,4.52,0,0,0-1,1.55,1.9,1.9,0,0,0,1.8,2.4,4,4,0,0,0,2.51-1.31,6.46,6.46,0,0,0,1.07-1A14.23,14.23,0,0,0,14.38,91c3-1.53,6.17-2.85,9.13-4.51,2.31-1.3,3.59-3,6.49-3.41,2.66-.34,5.41,1.57,7.36,3.1,2.61,2,4.63,4.65,7.33,6.59A14.37,14.37,0,0,0,51,95.12c1.94.26,4.54-3.56,5.6-4.74C60,86.66,61.82,81.76,58,77.94c.43-1.51.63-3.32,1-4.52.21-.64,1-7.57,2.49-5a29.69,29.69,0,0,0,8.22,9.64c1.58,1.2,4.71,3.18,6.72,2,1.15-.66.75-2.73-.69-2.62-.55,0,83.38,1,82.49-.06,10.93-.94,16.85-9.6,18.69-12.63,4.69-7.69-4.6-16.21-12-20.51-9.87-5.73-85.36-4.33-89.6-5.61-4-1.23-8.59,1.26-10.84,4.51A19.68,19.68,0,0,0,62.92,46c-1,2.07-2.82.59-3-1.16a24.22,24.22,0,0,0-1.55-7,7.74,7.74,0,0,0-.87-1.57c1.64-4.72-.78-9.86-3.47-13.85C50.63,17.33,45.48,21.64,42.49,24.44Z"/><path d="M9.73,49.64c1,.81,2,1.59,3.05,2.3a13.33,13.33,0,0,0,1.67.92,9.35,9.35,0,0,1,1.8,1.2,8.68,8.68,0,0,0-1.07,1.88,13.12,13.12,0,0,0,.93,11.76l0,.07-.49.27a14.78,14.78,0,0,1-2.05.84c-1.54.52-3.06,1.13-3.83,2.68s1.18,3.34,2.53,2a27.77,27.77,0,0,1,3-2.25,7.07,7.07,0,0,0,1.45-1.56c.14-.19.29-.37.45-.55,2.41,2.67,6.24,4.47,9.29,1.9,1.3-1.09.4-2.61-.86-3a4,4,0,0,0,1.11-.91c2.84-1.61,3.29-4.75,2.45-7.85a9,9,0,0,0-.59-1.51c-.09-2.73-1-5.45-3.45-6.65-2.56-1.27-5.34-.42-7.39,1.32l-.89-1a17.17,17.17,0,0,0-1.52-1.85c-.93-.85-2.31-1.71-3.14-2.36C10.48,45.79,8,48.19,9.73,49.64Z"/><path d="M149.74,14.33a34.12,34.12,0,0,1-4.67,9.27c-1.58,2.42-4.82,2.55-8.1,2.11-.17-.16-.35-.31-.51-.48-2.66-2.64-4.35-5.87-6.64-8.78a2.15,2.15,0,0,0-3,0c-2.07,2.08-3.19,4.66-4.59,7.16-1.87-.17-3.74-.35-5.61-.54-5-.52-9.7-1.82-14.59-2.53A2.13,2.13,0,0,0,99.4,22c-.87,4.27-3.62,9.23-.49,13.28,1.37,1.79,3.93-.46,3-2.28-1.24-2.42.58-5.53,1.31-8.31,4.93.15,10,.94,14.91,1.34l2.4.22c-1.59,2.31-3.3,4.47-3.84,7.32a2.06,2.06,0,0,0,4,1.12c1.14-3,3.22-5.31,4.88-8q5,.52,9.92,1.22A26.1,26.1,0,0,0,141,32.11c3.39,1.88,6.61,4.66,10.5,5.3A1.4,1.4,0,0,0,153,36.8c3.52-5.19,9.13-8.12,12.12-13.59a1.59,1.59,0,0,0,.63-.62l.14-.23a1.38,1.38,0,0,0-1.54-2l-.21.05-.13.06a1.25,1.25,0,0,0-.92,1.66c-.71,2.62-5,5-6.68,6.84-1.31,1.49-2.65,2.62-4.06,4-1.66,1.63-2.74,1.68-4.87.26-2.46-1.64-4.9-3.08-7.2-4.77a7.57,7.57,0,0,0,6.06-2.4c2.64-2.84,4.65-7.39,6.09-11C153.08,13.45,150.22,12.57,149.74,14.33Zm-20.41,5.76a22.52,22.52,0,0,0,2.15,3.37c.39.49.79,1,1.19,1.45-1-.21-2-.41-2.8-.51s-1.93-.23-2.89-.34A33.57,33.57,0,0,1,129.33,20.09Z"/><path d="M150.42,82.7A41,41,0,0,0,140.08,89,6.73,6.73,0,0,1,140,88a1.46,1.46,0,0,0-1.81-1.4,48.35,48.35,0,0,0-7.62,2.61c-1.76.68-3.59,1.2-5.43,1.72q-.3-.45-.58-.9c-1.1-1.8-2.09-3.63-4.27-4.14a1.23,1.23,0,0,0-1.38,1.78c.87,1.4,1.48,3,2.23,4.43l-1.17.38c-3.7,1.26-8.51,3.24-12.18,4.37a2.41,2.41,0,0,1-.39,0c-.92-3.11,0-8.28-.83-11.36a1.64,1.64,0,0,0-3.14,0c-1.13,4.14-.71,10.36,1.58,14.11,1.26,2.07,1.91,1.2,4.54,0a20.47,20.47,0,0,1,4.87-2.46c2.69-.6,5.26-1.47,7.87-2.31l.44-.14a57.89,57.89,0,0,0,6.48,7.78,2.26,2.26,0,0,0,3.51-.43,55.07,55.07,0,0,1,4.5-6.65,25.36,25.36,0,0,1,1.8-1.84c1.18,2.12,2.66,4.15,3.68,6.22.69,1.41,2.9.16,2.12-1.22A76.13,76.13,0,0,1,141,91.86c1.74-1.42,3.59-2.76,5.27-4,3.63-2.63,6.71-4.37,9.24.58,1.51,3,4.79,5.32,5.57,8.56.41,1.71,3.2.94,2.62-.7-1.29-3.68-4.25-7-6.26-10.33C155.57,82.89,154.12,81.21,150.42,82.7Zm-19.63,15c-1.32-1.37-2.66-2.85-3.88-4.35l3.1-1c2.46-.78,4.83-2.21,7.37-2.73a12.16,12.16,0,0,0,.39,1.28C135.33,93.07,133,95.39,130.79,97.71Z"/><path d="M59.13,21.27c2,2.75,3.59,5.28,7.36,4.78s7.53-.51,11.29-.84c3.06-.27,7.44-.54,10.68.29a54.54,54.54,0,0,0,2,6.91c.63,1.71,3.47,1.62,3.37-.44a34,34,0,0,0-1.48-8.71,2.17,2.17,0,0,0-2.64-1.52c-3.86,1.43-9.41.55-13.53.91-2.23.2-4.48.24-6.71.38-.68,0-1.36.11-2,.2-4,.53-4.38-.81-6.16-3.21C60.35,18.77,58.19,20,59.13,21.27Z"/><path d="M95.78,86.84c-.26,1.71-.19,3.49-.34,5.23-.09,1,.22,3.29.15,4.86-3.46-1.19-6.68-2.89-10-4.37a90.34,90.34,0,0,0-10.4-3.44c-3.08-.94-6.24-3-9.33-3.65-2.43-.52-3.55,1.68-5.11,3.34-1,1.1.35,3.17,1.67,2.2a9.71,9.71,0,0,0,2.43-2.26c.68-.82-.27-.93,1.22-.76,3.37.38,6.87,2.77,10,4,6.89,2.77,13.15,7,20.36,9a1.81,1.81,0,0,0,1.78-.46c2-2.28,1.46-4.68,1.66-7.55.15-2.16.62-5.23-1.1-6.9C97.86,85.26,96,85.47,95.78,86.84Z"/><path class="cls-2" d="M77.45,32.41c-4.53,1.18-10.82,7.12-9.68,13.22C70.17,58.47,79.3,59,79.3,59s70.92-.46,81.45.51,13.11-.36,13.71-1.7c.83-1.84-2.65-5.52-8.87-11.08C158,39.94,149,34.84,137.24,33.26S82,31.23,77.45,32.41Z"/><path class="cls-2" d="M160.75,60.72C150.2,61.56,79,60.29,79,60.29s-8.83.2-11.4,13.1c-1.21,6.09,5,12.11,9.51,13.34s48,1.33,59.8-.1,20.89-6.42,28.53-13.08c6.28-5.47,9.82-9.11,9-11C173.85,61.25,171.3,59.89,160.75,60.72Z"/><path class="cls-2" d="M45.58,35.95c-6.83.82-10.57,7.19-16.89,8.74-3.17.78-5.42,1.38-7.43,4.08a3.6,3.6,0,0,0,.88,4.86c4.63,2.88,4.44,7,1.54,11.11-1.28,1.79-2.46,4-1.48,6.2,2.22,5,8.47,3.44,12.69,2.2,2.13,1,3.58,3.14,5.56,4.63s5,1.64,7.4,1.09c6.23-1.4,8.33-9.67,9-15C58,55.42,59.23,34.32,45.58,35.95Z"/><path class="cls-3" d="M160.75,60.72C150.2,61.56,79,60.29,79,60.29s-4.6.11-8.13,5c7,1.52,15.06.34,22.12.25,9.09-.12,18.17,0,27.26-.15,9.37-.19,18.72-1.15,28.09-1.06,4.41,0,8.82.13,13.23.15,3.06,0,6.3.46,9.31-.16a2.68,2.68,0,0,0,2-.6l.48-.37a2,2,0,0,0,.79-1.27C173.08,60.94,170,60,160.75,60.72Z"/><path class="cls-3" d="M165.44,58.08c-4.68,0-9.37-.14-14-.16-4.43,0-9-1.07-13.39-1.49-5.25-.5-10.56-.27-15.82-.62-9.3-.62-18.32-2.67-27.69-2.71a127.54,127.54,0,0,0-13.19.42c-2.92.29-6.54-.62-9.18.78a2.33,2.33,0,0,0-.44.31,12.37,12.37,0,0,0,6,4,33.86,33.86,0,0,0,5-.15c4.47-.33,9-.17,13.53-.15a85.73,85.73,0,0,1,8.6.52c21.45,0,49.59,0,55.93.61,10.54,1,13.11-.36,13.71-1.7a1.38,1.38,0,0,0,.11-.5,2.29,2.29,0,0,0-.41-.07C171.28,57,168.36,58.08,165.44,58.08Z"/><path class="cls-3" d="M170.31,66.61c-8.45,0-16.94.59-25.37.18a178.57,178.57,0,0,0-25.65.7,157.39,157.39,0,0,1-26.09-.15c-7.6-.55-15.91-1.23-23.52-.08a20.37,20.37,0,0,0-1.34,3.25l.07,0c8,1.55,16.62.88,24.76,1.43a159.6,159.6,0,0,0,26.09,0c4-.38,7.91-1.13,11.93-1.35,4.58-.24,9.15.08,13.72,0,8.12-.12,16.24-.45,24.36-.5,1-.92,1.85-1.77,2.57-2.56A1.6,1.6,0,0,0,170.31,66.61Z"/><path class="cls-3" d="M164.4,73c-7.08-.1-14.17.83-21.24,1.27-8.24.52-16.52.6-24.78.78-16.3.35-32.48-2.44-48.74-2.28-1.63,0-2.13,2.67-.42,2.94a284.7,284.7,0,0,0,47.39,3.06c8.27-.11,16.52-.57,24.77-1.09,7.1-.46,14.09-1.57,21.2-1.76q1.46-1.14,2.86-2.35l0,0A1.32,1.32,0,0,0,164.4,73Z"/><path class="cls-3" d="M150.27,50.3c-8.91-.65-17.87-.45-26.79-1.1-9.32-.68-18.53-.55-27.87-.63-4.39,0-8.78-.11-13.17-.16-4.73-.06-9.55-1-14.24-.83a21,21,0,0,0,1.32,3.63c3.71.29,7.38.87,11.15.93,4.42.07,8.85,0,13.27,0,9.3,0,18.52-.16,27.8.58,9,.71,17.89.81,26.86,1.13,4.33.16,8.57,1,12.9,1.19s8.62,1.47,12.91,1.35h0a11.89,11.89,0,0,0-2.56-3.7c-2.92-.34-5.83-1-8.78-1.15C158.79,51.37,154.57,50.61,150.27,50.3Z"/><path class="cls-3" d="M146.64,43.19c-9-1.21-18-1.92-27.08-2.5S101.4,39.42,92.3,39.2c-4.53-.11-9.08-.11-13.6.23-2.86.22-7.25,1.49-10.1.65a10,10,0,0,0-.9,3c1.27.74,2.68.54,4.22.49,4.52-.16,9-.7,13.53-.79,9.67-.2,19.33.46,29,1.07s19.22,1.22,28.82,2.26c4.33.47,8.65.88,13,1.48s8.44,1.63,12.69,2.13q-1.49-1.41-3.31-3c-.48-.42-1-.84-1.44-1.25-1.58-.27-3.16-.54-4.75-.7C155.14,44.3,150.89,43.76,146.64,43.19Z"/><path class="cls-3" d="M57.33,49.33a43,43,0,0,0-13.06-3.66,2.17,2.17,0,0,0-2.22,2.2,2.23,2.23,0,0,0-.36,1.91,6.39,6.39,0,0,0,.76,1.43,2.39,2.39,0,0,0,.24,1.45,8.1,8.1,0,0,0,1.79,2.16,2,2,0,0,0-.07,2.24c.14.18.29.34.43.51a2,2,0,0,0,1.09,3.15l.26.05c-2.35.35-4.71.64-7.1.9a1.85,1.85,0,0,0,0,3.7c5.93.54,12.09-.62,17.85-2.1,0,0,.5-3.7.62-6.84A70.64,70.64,0,0,0,57.33,49.33Z"/><path class="cls-3" d="M22.21,53.69c-1.06-1.85-1.77-5.55.52-5.5,10,.21,9.2,21.08-.86,21.14a3.19,3.19,0,0,1,.53-2.57c1.47-2.62,2.22-4.11,2.06-6.64C24.12,54.91,22.21,53.69,22.21,53.69Z"/><path class="cls-4" d="M50.06,45.83a1.24,1.24,0,0,0,2.48,0A1.24,1.24,0,0,0,50.06,45.83Z"/><path class="cls-4" d="M51.61,49.3a1.12,1.12,0,0,0,2.23,0A1.12,1.12,0,0,0,51.61,49.3Z"/><path class="cls-4" d="M52.9,53.89a1.37,1.37,0,0,0,.47.53.93.93,0,0,0,1,0,1.44,1.44,0,0,0,.47-.52,1.1,1.1,0,1,0-1.9,0Z"/><path class="cls-4" d="M48.79,54.91a2.23,2.23,0,0,1,.38,1.21,4.31,4.31,0,0,1-.07,1A20.18,20.18,0,0,1,48.79,54.91Z"/><path class="cls-4" d="M50,71.16a1.42,1.42,0,1,0,1.43-1.41A1.43,1.43,0,0,0,50,71.16Z"/><path class="cls-4" d="M52.08,66.86a1.11,1.11,0,0,0,2.22,0A1.11,1.11,0,0,0,52.08,66.86Z"/><path class="cls-4" d="M53.05,62.54a1,1,0,0,0,1.63.86h0l.15-.07a.92.92,0,0,0,0-1.58l-.15-.07h0A1,1,0,0,0,53.05,62.54Z"/><path class="cls-4" d="M25.89,73.07a5.51,5.51,0,0,0-1.2-3.45l-.12-.42a1.34,1.34,0,0,0-1.43-1,1.23,1.23,0,0,0-1.21.16,4.26,4.26,0,0,0,.27,2.56,5.4,5.4,0,0,0,3.95,3.24,1.53,1.53,0,0,0,0-.4Z"/><path class="cls-4" d="M22.32,53.5l0-.07.17-.41a6.72,6.72,0,0,0,1.28-3.48l.3-.26a1.51,1.51,0,0,0-.84-2.49,8.9,8.9,0,0,0-2,2,3.6,3.6,0,0,0,.88,4.86l.09.06.08-.2Z"/><path class="cls-4" d="M45.58,35.95a11.55,11.55,0,0,0-1.68.34c2,2,5,2.18,7.83,1.43a1.4,1.4,0,0,0,.45-.22A8.8,8.8,0,0,0,45.58,35.95Z"/><path class="cls-4" d="M77.12,81.93c1.23-1.37,1.72-3.93.35-5.4-2.92-3.12-5-6.06-8.83-6.92a25.2,25.2,0,0,0-1,3.78c0,.26-.07.51-.1.76h.06a1.5,1.5,0,0,0,.12,1c1.08,2,2.2,3.72,2,6.06a16.21,16.21,0,0,0,4.84,4.38,5.56,5.56,0,0,0,.93-2.31A8,8,0,0,0,77.12,81.93Zm-3-5-.48-1.1c1.17,1.2,2.08,2.6,1.54,4A20.74,20.74,0,0,0,74.13,76.92Z"/><path class="cls-4" d="M75.86,48.45c1.25-1.92,1.76-4.64,2.19-6.87.61-3.13-1.65-5.77-4.41-7.3a16.7,16.7,0,0,0-2,1.67l.4.16a1,1,0,0,0-.63.83,1,1,0,0,0-.46-.27,14.22,14.22,0,0,0-2.08,2.94c2.62,2.44.77,4.83-.85,7.16A21,21,0,0,0,69.93,52C71.79,50.5,74.43,50.64,75.86,48.45ZM74.07,37.58v-.09a6.58,6.58,0,0,1,1.59,2.37,2.63,2.63,0,0,1,0,1.46A8.64,8.64,0,0,0,74.07,37.58Zm-1.53,4.36a10.86,10.86,0,0,0-.3-1.79,1.13,1.13,0,0,0,.42-.2,4.67,4.67,0,0,1,.07,4.16c-.1.21-.22.48-.37.77A8.29,8.29,0,0,0,72.54,41.94Z"/><path class="cls-4" d="M95.76,73c-1.13-2.09-.94-3-.77-5a2.72,2.72,0,0,0-.48-2,24.35,24.35,0,0,1-3.22-4.36c.18-.12.37-.22.54-.35a6.62,6.62,0,0,0,.91-.89l-5.21-.08a1,1,0,0,0,0,.15,12.87,12.87,0,0,1-1.85.24,1,1,0,0,0,.06-.41L79,60.29a7.67,7.67,0,0,0-1.77.33,1.09,1.09,0,0,0,.48,1.31c4.16,2.26,5.15,7.2,7.76,11a5.48,5.48,0,0,1,.33,3.54,1.29,1.29,0,0,0-.17,1.08c-.26,1.48-.62,3-.69,3.92a29.11,29.11,0,0,0,.56,5.95c4.91.18,11.38.28,18.15.28a25.77,25.77,0,0,0-3.59-6.55C98.29,78.6,97.22,75.74,95.76,73ZM83.89,64.18a38.83,38.83,0,0,1,4.2,1.33c-1.06.24-2.25.24-3.26.39l-.15,0C84.44,65.35,84.19,64.75,83.89,64.18Zm8.18,5.5A14.13,14.13,0,0,1,87.39,68,8.54,8.54,0,0,0,91,66.88l.26.29a3.79,3.79,0,0,1,.9,2.54Zm8.49,17.54c-1-.1-2-.18-3-.22.41,0,.83-.08,1.24-.11a1.29,1.29,0,0,0,1.19-.83C100.21,86.44,100.39,86.83,100.56,87.22Zm-3.67-3.37a1.18,1.18,0,0,0,.18.25A7,7,0,0,1,93.84,83,7,7,0,0,1,96.89,83.85Zm-7.39-11a11.19,11.19,0,0,0,2.84-1,5.27,5.27,0,0,0,.21,1,17.22,17.22,0,0,0,.7,1.79C92.64,73.52,90.92,73.36,89.49,72.9Zm-.68,2.25c.45.1,2,.21,1.35.4a7.77,7.77,0,0,1-1.39.25C88.79,75.58,88.81,75.36,88.82,75.15Zm2.77,2.71c.95-.32,1.68-.82,1.82-1.63a2.5,2.5,0,0,0-.11-1.45A45.36,45.36,0,0,0,97,81.07a9.2,9.2,0,0,0-2.68-.7C94.09,79.33,92.92,78.52,91.59,77.86Zm-1.11,3.69a16.71,16.71,0,0,1-2.15.76,25.59,25.59,0,0,1,0-3c.92.41,1.86.8,2.75,1.27a.35.35,0,0,1,.21.22A1.63,1.63,0,0,0,90.47,81.55Z"/><path class="cls-4" d="M84.62,34.53A10.63,10.63,0,0,0,84,41.77c1,3.77-1.73,5.55-3.54,8.34-1.52,2.34-1,6.13-2.08,8.71a6.46,6.46,0,0,0,.94.15h1.46c.12-.34.24-.69.34-1a4.48,4.48,0,0,0,.41.31l.28.15c-.29.18-.57.38-.86.59l7.07,0,.33-.07c.51-.12,1.3-.43,1.9-.59-.31.23-.62.45-.94.65l4.63,0A35.15,35.15,0,0,0,99.67,50c2.75-5.56,5.35-11.92,5.72-18.18-2.36,0-4.7-.05-7-.06l-1.33.44-.47-.44c-3.85,0-7.42,0-10.42.1C85.46,33.08,84.65,34.45,84.62,34.53Zm6.56,9.73a20.89,20.89,0,0,0,4.46-1,9.45,9.45,0,0,0,.22,1.21C94.47,44.26,92.68,44.39,91.17,44.26Zm-8.29,7.29a4.54,4.54,0,0,1,.56-.83,1.21,1.21,0,0,0,.87.91l.51.12c-.05.09-.11.17-.16.27l-.09-.12a1.09,1.09,0,0,0-1.71.21,7.6,7.6,0,0,0-.66,2.12l-.27.08A12.69,12.69,0,0,1,82.88,51.55Zm4.17.57a13.9,13.9,0,0,1,2.81.68,9.3,9.3,0,0,1-3.6.81A9.76,9.76,0,0,1,87,52.12ZM85.92,56.2l-.63.33-.93-.13v-.06A12.5,12.5,0,0,1,86,56.13Zm6.77-.36a4.4,4.4,0,0,0-2.14-.23l.41-.33a7.31,7.31,0,0,0,2.1-1.63,1.33,1.33,0,0,0,0-1.85,4.73,4.73,0,0,0-.78-.65,11.51,11.51,0,0,0,4.18-1.52A33.84,33.84,0,0,1,92.69,55.84Zm-6.16-6.75-1.42,0a17.63,17.63,0,0,0,1.37-1.34,2.61,2.61,0,0,0,.15,1.2Zm6.08-2a8.15,8.15,0,0,1-3.34,1.09,5.44,5.44,0,0,0,.19-.68,1.35,1.35,0,0,0-.13-.83,12.57,12.57,0,0,0,2.88.42Zm6.19-2.34a.93.93,0,0,0-.55-.32,5.41,5.41,0,0,1-.18-2.37,14.79,14.79,0,0,0,2.57-1.81C100.09,41.81,99.46,43.32,98.8,44.77ZM88.49,40.31a4.79,4.79,0,0,1,.32-2.6c.53.71,1.09,1.39,1.67,2.06C89.35,40.21,88.51,40.48,88.49,40.31Zm5.49-2L92.44,39c-.52-.66-1.05-1.3-1.56-2A3.8,3.8,0,0,1,94,38.3Zm7.88-2-.08,0a6.42,6.42,0,0,0-3,.09.42.42,0,0,1,.13-.18,1.32,1.32,0,0,0,.27-.23c1.22,0,2-1.17,2.77-2.2l.51-.14C102.29,34.54,102.09,35.44,101.86,36.35Zm-12.6-2.79a5.75,5.75,0,0,0-1.15.76A8.63,8.63,0,0,1,89,33l.2-.25A3.63,3.63,0,0,0,89.26,33.56Z"/><path class="cls-4" d="M130.35,86c-.23-2.1-2.44-1.93-3.94-1.42-.66.22-1.4.57-2.12.79l-.3-.17-.22-.1h0a1.78,1.78,0,0,0-.66-.16,4.26,4.26,0,0,0-1.07-3.6A13.94,13.94,0,0,0,118.3,79c-3.31-1.69-.84-5.55,1.91-6a4.68,4.68,0,0,0,2.34-.92c3.84-2.32.22-5.72-.25-8.54a1.2,1.2,0,0,0-1.15-.89c-2.73-.07-11.1,2.11-10.76-1.88L99,60.61a2,2,0,0,0-.21.86,3.44,3.44,0,0,0,.83,2.08c1.38,2,.62,4.42,1.05,6.58a14,14,0,0,0,4,6.85,14.83,14.83,0,0,1,4,9.21h0a1.14,1.14,0,0,0-.8,1.47l5.22,0a13.06,13.06,0,0,1,1.38-.13l.45.1,4.26-.07a1.3,1.3,0,0,0-.66-1.85,10.41,10.41,0,0,0-3.63-.6c-.14-.2.4-.52.15-1.38l.56.2a1.17,1.17,0,0,0,1.32-1.69,3.81,3.81,0,0,0-3.15-1.93l-.54-.33c-1.67-1.09-1.54-2.34-.91-3.11a15.26,15.26,0,0,0,2.08.24,5.12,5.12,0,0,0,2.09,3.4,19.71,19.71,0,0,0,2.21,1.18,2.88,2.88,0,0,1,1.8,2.68,2.13,2.13,0,0,0-.19,1.44,8.07,8.07,0,0,1-.72,1.72c2.84-.06,5.55-.14,8-.25a1.22,1.22,0,0,0-.28-.57l.25-.08a3.56,3.56,0,0,1,.46-.1l0,.16a1.59,1.59,0,0,1-.3.59l2.67-.12A3.66,3.66,0,0,0,130.35,86ZM114.43,68.39a1,1,0,0,0,.84,0l2.92,1.36c.07.07.14.15.22.23a1,1,0,0,0,1.51-1.15c-.06-.13-.13-.24-.19-.36l-.13-.47.18.11a.9.9,0,0,0,1-.06c-.22,1.32-.87,2.62-2.32,2.85a3.71,3.71,0,0,0-1.59.68,1.25,1.25,0,0,0-.89-1.22,21.38,21.38,0,0,0-5.42-1,8.61,8.61,0,0,1-3.51-2c2-.19,3.91.93,5.71,1.73A1.22,1.22,0,0,0,114.43,68.39Zm-.5-1.27c-.52-.31-1-.6-1.56-.87a.79.79,0,0,0,.18-.12l1.76.57A.92.92,0,0,0,113.93,67.12Zm4.94-1.91a.9.9,0,0,0-.67,1,1.67,1.67,0,0,0-.35.32,3.33,3.33,0,0,0-1.26-.31,1.93,1.93,0,0,0-.17-.63c1-.15,2-.34,2.91-.47ZM103,64.87a4,4,0,0,0-.14-.61,4.43,4.43,0,0,0,4.48-.21,11.08,11.08,0,0,1,2.81,1.25,7.59,7.59,0,0,0-5.81.2,1.3,1.3,0,0,0-.47,1.75A6.79,6.79,0,0,0,106.18,70a10,10,0,0,0-1,.38,1.27,1.27,0,0,0-.63,1.14C103.2,69.93,103.32,66.91,103,64.87Zm4.69,7.3A9.33,9.33,0,0,1,110,71.9a23.14,23.14,0,0,0,5.52.94c-.19.24-.38.48-.56.72a3.46,3.46,0,0,0-.28.46,5.24,5.24,0,0,0-3.34.1A8.19,8.19,0,0,1,107.73,72.17Zm.37,3.23c.34.18.68.36,1,.51,0,.06-.07.12-.1.18a3.4,3.4,0,0,0-.12.37C108.65,76.11,108.38,75.76,108.1,75.41Z"/><path class="cls-4" d="M126.33,32.77l-.36-.09a1.37,1.37,0,0,1,.08-.27c-4.52-.22-9.72-.39-15-.5a30.89,30.89,0,0,0-1.86,4,22.7,22.7,0,0,0-1.94,8.88c-.2,5.14.86,11.77-5.38,13.77a6,6,0,0,0-.85.34h4.95c.25-.22.48-.46.7-.69a2.6,2.6,0,0,0,.12.69H111c.08-.17.17-.34.27-.52.36-.63,1.35-.68,1.82-1.2l.28-.32c1.09.14,2.31,0,3,.15,1.55.22,3.48,2.4,5.17,1.19s1.25-3.63.1-5.05a3.63,3.63,0,0,0-2.42-1c-.73-.07-2,.23-1.89-.65a.86.86,0,0,0,0-.31,9.52,9.52,0,0,1,3.15-2c2.6-1.1,4.41-2.47,3.86-5.47-.43-2.37-2.81-3.32-2.41-6.08a7.16,7.16,0,0,1,.19-.86,6,6,0,0,0,1.07-.65c.68-.5.87-.68,1.65-.32s1.77,1.07,2.81.72c1.49-.5,1.89-2.34,1.5-3.9L127,32.45A.92.92,0,0,0,126.33,32.77ZM111.78,54.6c-.06-.19-.13-.37-.19-.56H112a.94.94,0,0,0,.29,0,5.57,5.57,0,0,1-.41.55Zm4.41,0c-.39-.06-.78-.1-1.19-.13l.45-.77A3.88,3.88,0,0,0,116.19,54.6Zm-6.69-2a.87.87,0,0,0-.14.77c.13.48.29,1,.44,1.43a3.08,3.08,0,0,1-.4-.08,1,1,0,0,0-1,1.25c0,.08,0,.17.05.25a3.25,3.25,0,0,0-.57.15,11.87,11.87,0,0,0,1.26-4.06Zm8.29-5.06a1.06,1.06,0,0,0,.77-.42c.1.09.22.18.35.27-.87.53-1.82,1-2.67,1.57a1.08,1.08,0,0,0-.48-.51c-.53-.3-1.06-.59-1.6-.85a18.28,18.28,0,0,1-2-1.29l.18,0A10.14,10.14,0,0,0,117.79,47.53Zm-.37-2.32a9.67,9.67,0,0,0-4.1-1c-1.81-1.44,3.06-2.67,3.85.14C117.26,44.67,117.34,45,117.42,45.21Zm3.33-2.94a3,3,0,0,1,.84,2.17,12.55,12.55,0,0,0-1.6-2.18A.94.94,0,0,0,120.76,42.27Zm-3.56-1.44c0,.09,0,.17.07.25a6.76,6.76,0,0,0-5-.33,2.54,2.54,0,0,0-1.67,3.81,9.74,9.74,0,0,0-1.09.38l-.06,0v-.22a18.43,18.43,0,0,1,.66-4.78l.07.19a1.12,1.12,0,0,0,2.15,0C112.71,39.06,115.16,39.9,117.2,40.84Zm2-4.11h0a8.51,8.51,0,0,0-.27,1.1c-.87-1-2-1.37-3.23-2C117,35.49,118.32,35.43,119.23,36.73Zm-6.7-1.13a.84.84,0,0,0,.11.46,7.35,7.35,0,0,0-1.29.54c.22-.47.46-.93.72-1.39A1.4,1.4,0,0,0,112.52,35.6Zm4.47-2a7.94,7.94,0,0,0-1.39.25,5.79,5.79,0,0,1,1.22-.61A.8.8,0,0,0,117,33.57Zm6.61,0c.17-.32.33-.64.48-1a2.81,2.81,0,0,0,.1,1,2.35,2.35,0,0,0-.26,0A1.11,1.11,0,0,0,123.6,33.54Z"/><path class="cls-4" d="M151.13,75c-2.18-2.87-5.13-2.59-8.39-2.12-2.47.36-7.71.19-9.31,2.51a6.37,6.37,0,0,0-.76,5.43,10.51,10.51,0,0,0,1.63,2.92,4.34,4.34,0,0,1,.33,3.12c.85-.07,1.62-.15,2.28-.23a50.68,50.68,0,0,0,11.3-2.7,4.62,4.62,0,0,1,.38-1.12C149.63,80.81,153.06,77.54,151.13,75Zm-4.49,3.34a2.82,2.82,0,0,1,.17.33,1.09,1.09,0,0,0,1,.76c-.33.54-.67,1-.95,1.45l0,0c-1.74-2.16-4.7-2-7.37-2a3,3,0,0,1,.86-.39,14.85,14.85,0,0,1,2.68-.07c.83.12,1.63.31,2.28.45a1,1,0,0,0,1.11-.49Zm-1-3.21c.23,0,.45,0,.68-.06,2-.07,2.58.62,2.56,1.57-.34,0-.68,0-1,0A6.6,6.6,0,0,0,145.63,75.13Zm-10.2,4c-.64-1.8.49-2.45,1.79-2.74a4.71,4.71,0,0,0-.64.88,1,1,0,0,0,.3,1.3,5.25,5.25,0,0,0-.45.94,1.06,1.06,0,0,0,1,1.33c1.71.15,4.1-.24,6,.27a24.82,24.82,0,0,0-6.05,1.55A28.23,28.23,0,0,1,135.44,79.1Zm8.43,5.63a11.88,11.88,0,0,0-2.4.27,4,4,0,0,1-3-.28,1,1,0,0,0-.44-.1l0,0c2.34-1.31,5.44-1.06,8-2C145.71,83.75,145.39,84.73,143.86,84.73Z"/><path class="cls-4" d="M142.32,62.37a4.25,4.25,0,0,0,2.57,1.7c-1.53.51-3.38.27-4.9.59a16.58,16.58,0,0,1-3.72.61,4.11,4.11,0,0,1-2.4-.93c-.91-.77,0-2.16-.62-2.52l1.15-.32c.4-.11,3.39-.42,2.58-.17s-1.57.28-2.32.55a1.23,1.23,0,0,0-.3,2.21c2.77,2.13,6.57-.16,7.12-3.09-3.72,0-7.75,0-11.9-.05a3,3,0,0,0,1.23.92,5.21,5.21,0,0,0,1.61,4.89c2.88,2.57,6.84.69,10.07.36,4.6-.46,7.51-3,8.33-6.14-2.53,0-5.39,0-8.48,0A1,1,0,0,0,142.32,62.37Z"/><path class="cls-4" d="M146.42,51.54c-5.3-3.54-16.83-5.19-18.3,3a10,10,0,0,0,.38,4.32h2.62a3.14,3.14,0,0,1-.31-.76,2.24,2.24,0,0,0,.51.76c4.17,0,8.18,0,11.85.09a3.6,3.6,0,0,0,1.15-2.76l.45.36.65.64a3.14,3.14,0,0,1,.69.85,1.18,1.18,0,0,0-.33,1l5.27.08C151,56.44,149.56,53.63,146.42,51.54Zm-4.62,4.24c-.67.4-1.12.36-1.35-.1A8.82,8.82,0,0,1,141.8,55.78Zm-4.43,0,.45,0c.24.35.46.72.67,1.08a9.32,9.32,0,0,0-2,.09c-.65.08-1.29.24-1.93.36l-.87.1a4.52,4.52,0,0,1,1-2.54A5.68,5.68,0,0,0,137.37,55.75Zm-6.73,1.53a11.18,11.18,0,0,1,0-3c.58-3.14,3.66-3.75,7.11-3.09a12.54,12.54,0,0,0-1.74.09,2.56,2.56,0,0,0-2.29,1.45,7,7,0,0,0-1.08.59A5,5,0,0,0,130.64,57.28Z"/><path class="cls-4" d="M145.63,35.1c-.84-.26-1.69-.49-2.56-.71a3.23,3.23,0,0,1,.49.57A1.3,1.3,0,0,0,145.63,35.1Z"/><path class="cls-4" d="M147.23,36.5l-.81-.24c-1.17-.32-2.34-.55-3.49-.95a13.48,13.48,0,0,1-2-1.43c-1.19-.24-2.39-.46-3.64-.63-1-.13-2.23-.26-3.65-.38a8.57,8.57,0,0,0-.29,3.64,8.77,8.77,0,0,0,1.92,4.59c1.73,2,4.21,2.28,6.42,3.52,3.51,2,7.83,2.93,10.82-.59a9.27,9.27,0,0,0,1.95-5.25,50.11,50.11,0,0,0-4.8-2.25A11.81,11.81,0,0,0,147.23,36.5Zm-8.81-.82c0-.12,0-.2,0-.31v0a5.17,5.17,0,0,0,2.08,1.78C139.27,37.12,138.43,36.75,138.42,35.69Zm8.7,7.94a5.92,5.92,0,0,0,1.53-.48,6.09,6.09,0,0,0,.77-.09A3.38,3.38,0,0,1,147.11,43.63Zm-7.29-3a4.75,4.75,0,0,1-2.08-1.47,6.68,6.68,0,0,0,3.28.7,1.32,1.32,0,0,0,.13.64,7.5,7.5,0,0,0,.7,1.07A13.82,13.82,0,0,0,139.82,40.59Zm8-.07-.06,0a8.9,8.9,0,0,1-1-.21,10.79,10.79,0,0,1-2.25-1c.68-.14,1.36-.29,2-.41C147.61,39.31,148.74,39.85,147.81,40.52Z"/><path class="cls-4" d="M158.77,60.83c-2.6,1.11-5,3.26-5.34,5.7a4.58,4.58,0,0,0,1.56,3.9,12.44,12.44,0,0,0,2,1.45c2.52,1.67,2,3.78,1.62,6.3a1.05,1.05,0,0,0,.05.49q1.36-.89,2.67-1.85a7.51,7.51,0,0,0,.23-1.19,7.76,7.76,0,0,1,.12.92c1.28-1,2.52-2,3.72-3l1-.87c0-.23,0-.46,0-.71,0-1.56-3.61-4.92-2.56-6s1.85-1.71,1.83-3.16a3,3,0,0,0-1.64-2.27c-1,0-2.13.11-3.35.21C160.23,60.76,159.56,60.8,158.77,60.83Zm3.37,9A4,4,0,0,1,163.33,73a33.24,33.24,0,0,1-1.48-3.51Zm-3-1.7a9.33,9.33,0,0,0,.52,2.26,18.31,18.31,0,0,0-1.84-1.36,3.24,3.24,0,0,1-1.31-1.47A11.82,11.82,0,0,0,159.16,68.18Zm1.55-2a.86.86,0,0,0-.13-.06c-1-.27-2.13-.27-3.19-.48a10,10,0,0,0,3.56-.3A3.31,3.31,0,0,0,160.71,66.2ZM163,63a5,5,0,0,1-1.15,1.23.91.91,0,0,0-.94-.81l-.51,0A3.36,3.36,0,0,1,163,63Z"/><path class="cls-4" d="M159.32,43.55c0,1,.38,2.89-1,3.31a4,4,0,0,0-1.77.93c-1.6,1.62-2.51,3.85-1.36,6,1.56,2.95,8,7,10.3,2.57,1.25-2.46-2.51-5.14-1.1-6.57a11.94,11.94,0,0,0,2-2.46l-.75-.68a61.76,61.76,0,0,0-6.26-4.91C159.33,42.36,159.32,43,159.32,43.55Zm2.66,12a3.73,3.73,0,0,1-1.61-.39,1.58,1.58,0,0,0,.3-.77,1.28,1.28,0,0,0,1.24-1.26c0-.17,0-.34,0-.52C162.78,53.84,164.12,55.55,162,55.57Zm-2.62-3.64a9.28,9.28,0,0,0-1.07.26,1.24,1.24,0,0,0-.66.45c-.78-1.5.46-2.36,1.74-3C159.35,50.37,159.36,51.15,159.36,51.93Zm4.84-5.47a6.74,6.74,0,0,1-1.09,1.2,9.74,9.74,0,0,0-1.25,1.27,7.85,7.85,0,0,1,1-3.67Z"/><path class="cls-4" d="M38.86,41c-2.86,1.68-5.48,4.8-8.72,5.71-1.94.55-3.7.84-5.11,2.35a1.32,1.32,0,0,0-.21,1.58,39.23,39.23,0,0,1,3.76,6.92c1.11,3.07-.68,5.69-2,8.25-.71,1.33-1.16,4,.76,4.63a5.85,5.85,0,0,0,2.93.2,12.82,12.82,0,0,1,6.18.54c2.42.78,3.71,2.68,5.42,4-.16.07-.33.13-.5.21a5.27,5.27,0,0,0-1.62,1.73q.36.31.74.6A7.07,7.07,0,0,0,43.61,79a11.58,11.58,0,0,1,1-.79,2,2,0,0,1,2.61.72h0l.59-.11a7.79,7.79,0,0,0,2.6-1.13v0a5.07,5.07,0,0,0-1-1.73,1.84,1.84,0,0,0,.48-.25h0a1.6,1.6,0,0,0,0-2.74h0a1.76,1.76,0,0,0-1.51-.31,1.81,1.81,0,0,0-1.22,1.21,1.74,1.74,0,0,0,0,.78h0a1.27,1.27,0,0,0-1-.94,5.85,5.85,0,0,1-2.3-1,1.12,1.12,0,0,0,.07-1c-1.53-3.22-1.92-5.1.58-7.67a14.34,14.34,0,0,1,3.22-2,5.74,5.74,0,0,0,2.82-2.25c.89-1.43,1.46-5,.16-6.35a10.81,10.81,0,0,0-3.71-2.15c-1.47-.69-2.65-2.22-4.09-3a5.08,5.08,0,0,0-.6-.3.83.83,0,0,0-.11-.53c-1.23-2-.9-4.1,1.25-5.26a1.08,1.08,0,0,0,.37-.33,4.88,4.88,0,0,1,4.83,1.65c.92,1,2.33-.45,1.49-1.47C46.76,37.92,43.17,38.47,38.86,41Zm2.35,29.54A5.48,5.48,0,0,0,40.14,70c-.31-.25-.42-.53-.11-.83A1.75,1.75,0,0,0,40.6,68,9.73,9.73,0,0,0,41.21,70.55Zm-3-2a4,4,0,0,0-.33.67,12.15,12.15,0,0,0-1.33-.4,3.34,3.34,0,0,0,.55-.85,1.37,1.37,0,0,1,1.44-.78C39.64,67.1,38.16,68.62,38.18,68.58Zm-2.45-2.33a3.78,3.78,0,0,0-.85,1.07,5.34,5.34,0,0,0-.37-1.75A6.21,6.21,0,0,0,35.73,66.24Zm-3.27-.48c.48.74.28,1.83.49,2.68l-1.21,0a3.65,3.65,0,0,0,0-1.58,1.75,1.75,0,0,0-1.23-1.23C31.13,65.07,31.77,64.7,32.46,65.77Zm-1.2-4.89a6.33,6.33,0,0,0,1.35,1.92c0,.06,0,.12.06.18a1.86,1.86,0,0,0-2,.22A10.15,10.15,0,0,0,31.26,60.88Zm3.12-.59a3,3,0,0,0,.58.27.32.32,0,0,0,.05.25l.13.17h0a.08.08,0,0,0,0,0,.38.38,0,0,0,0,.16A2.66,2.66,0,0,0,35,62s0,0,0,.07l-.15-.19a.59.59,0,0,0,.09-.8A8.54,8.54,0,0,1,34.39,60.29Zm6,1.62a1,1,0,0,1-.25.66,1,1,0,0,1-1,.79,2.62,2.62,0,0,1-2.32-1.21,1,1,0,0,1,0-.1,2,2,0,0,1-.11-1.68,1.7,1.7,0,0,1,1.9-1.21,1.34,1.34,0,0,1,.66.36l.07,0A2.76,2.76,0,0,1,40.42,61.91Zm6.91-2.59c-.66.35-1.43.62-2.18,1a8.79,8.79,0,0,0,.32-2.11,6.07,6.07,0,0,0,1.72,0A8.17,8.17,0,0,0,47.33,59.32Zm-18.6-9.25c.14-.66,1,.32,1.21.53s.18.24.28.36l-.14,0a.82.82,0,0,0-.43.11,2.41,2.41,0,0,0-.65.24A1.37,1.37,0,0,1,28.74,50.07Zm.84,3.28a1.85,1.85,0,0,0,.31-.22,1.13,1.13,0,0,0,1.25-.55l.12.29a10.25,10.25,0,0,0-.53,2.78A18.32,18.32,0,0,0,29.57,53.36Zm16.77,1.8a6.48,6.48,0,0,1,.81.2c0,.48,0,1,0,1.44a11.19,11.19,0,0,1-1.15.13h-.53c0-.62-.07-1.24-.13-1.85A7,7,0,0,1,46.34,55.16Zm.87-1.4a.67.67,0,0,0-.05.18,5,5,0,0,0-1.92,0c0-.42-.1-.82-.15-1.18A18.65,18.65,0,0,0,47.21,53.76Zm-8-2.81a1.2,1.2,0,0,1,1,1.47.86.86,0,0,1-.09.23A4,4,0,0,1,40,54.1a1,1,0,0,1-.53.62,1.46,1.46,0,0,1-1.59.57,2.26,2.26,0,0,1-.5-.25,2,2,0,0,1-1.77-2,2.83,2.83,0,0,1,2.12-2.35A2,2,0,0,1,39.21,50.95Zm-6.5-.54c-.12.13-.24.26-.35.4a6.41,6.41,0,0,0-1.46-1.92c.51-.17,1-.34,1.5-.53A8.24,8.24,0,0,0,32.71,50.4Zm7-3.75c-.62-.1-.72-1.44-1-2.41l.87-.6A5.58,5.58,0,0,0,39.72,46.65Z"/><path class="cls-5" d="M37.45,48.18c-4.47.63-6.22,4.41-6.5,8.44-.18,2.5,0,6.85,2.91,7.7a1.3,1.3,0,0,0,.82,0,6,6,0,0,0,3.95,1.93c1.74.18,3.25-1,4.24-2.27,1.55-2,4-2.19,5.68-3.82,1.95-1.93,1.24-6-1-7.44a30.74,30.74,0,0,1-5.09-3.64C41.11,47.82,39.09,47.95,37.45,48.18Zm-3.15,8.69a1.8,1.8,0,0,0,.2.14,9.14,9.14,0,0,0,1.56.62,4.8,4.8,0,0,0-1.87,2A16.52,16.52,0,0,1,34.29,56.87ZM41,61.37a1,1,0,0,0-.35,1.54c-.1.07-.19.16-.3.22-1.5,1-4.6.56-4.1-2.24l2.56-1.75Q40.76,58.71,41,61.37Zm6.28-3.46c-.3.9-1.72,1.53-2.73,2,0-.26,0-.51,0-.74A19.62,19.62,0,0,1,45,54C46.8,54.54,48.06,55.51,47.25,57.91ZM41,51.24a1,1,0,0,0,.15.93c1.58,2-.47,4-2.51,4.11a5,5,0,0,1-2.73-.94A2.8,2.8,0,0,1,35,53.61C36.11,51.58,38.88,49.56,41,51.24Z"/><path class="cls-5" d="M25.73,68.28a1.66,1.66,0,1,0,1.68-1.65A1.68,1.68,0,0,0,25.73,68.28Z"/><path class="cls-5" d="M28,64.31a1.19,1.19,0,0,0,2.39,0A1.19,1.19,0,0,0,28,64.31Z"/><path class="cls-5" d="M29.11,59.54a.76.76,0,0,0,1.52,0A.76.76,0,0,0,29.11,59.54Z"/><path class="cls-5" d="M29.19,56.66l0,0a.84.84,0,1,0,.85,0h0A.8.8,0,0,0,29.19,56.66Z"/><path class="cls-5" d="M28.37,53.8a.76.76,0,0,0,1.51,0A.76.76,0,0,0,28.37,53.8Z"/><path class="cls-5" d="M27,51.31a.87.87,0,0,0,1.36,1.06C29.31,51.46,27.63,50.21,27,51.31Z"/><path class="cls-5" d="M25.32,49.45a1.22,1.22,0,0,0,1,1.83h.11a1.16,1.16,0,0,0,1-1.72l-.06-.09A1.22,1.22,0,0,0,25.32,49.45Z"/><path class="cls-5" d="M76.55,77.22h0a1,1,0,0,0,1-.54s-.06-.1-.11-.15c-2.42-2.59-4.3-5-7-6.29-2.45,3,2.48,8.32,5.79,7.21A.66.66,0,0,0,76.55,77.22Z"/><path class="cls-5" d="M72.71,44c-1.79,1.51-3,5.24-1.77,7.41,1.71-.89,3.72-1.1,4.91-2.92a17.49,17.49,0,0,0,2-6C76.12,41.88,74.21,42.7,72.71,44Z"/><path class="cls-5" d="M140.79,42.33a.61.61,0,0,0-.24.19,2.31,2.31,0,0,0-1.56-.11,1.33,1.33,0,0,0-.6,2.21c2.06,1.66,4.6,1.8,7.15,1.77a1.71,1.71,0,0,0,.2,0,6.61,6.61,0,0,0,.8-.09,1.22,1.22,0,0,0,.74-1.77C146.25,42.38,142.86,41.45,140.79,42.33Z"/><path class="cls-5" d="M141.69,71.51a9.59,9.59,0,0,0-2.66.89h-.15a1.25,1.25,0,0,0-.93.86l-.1.12a1.27,1.27,0,0,0,.44,1.74,6.51,6.51,0,0,0,3,.43,11.34,11.34,0,0,0,1.21-.1c1.28-.17,3.44-1.06,2.83-2.78S143.06,71.22,141.69,71.51Z"/><path class="cls-5" d="M77.48,61.22a.81.81,0,0,0-.25.15,1,1,0,0,0,.47.56,8.73,8.73,0,0,1,1.48,1,44.13,44.13,0,0,0,7,.32,15.69,15.69,0,0,0,5.74-.51l-.65-1c.18-.12.37-.22.54-.35a6.15,6.15,0,0,0,.85-.83l-.06-.06-1.59,0C86.7,61.8,81.77,59.72,77.48,61.22Z"/><path class="cls-5" d="M85.64,64.89c-1.25,0-3.17-.25-4.58.19.29.42.57.86.83,1.32,1.61.21,3.25.2,4.88.25a41.92,41.92,0,0,0,8,0,1.48,1.48,0,0,0-.3-.49,13.57,13.57,0,0,1-1.1-1.25C90.82,65,88.24,64.84,85.64,64.89Z"/><path class="cls-5" d="M83.07,68.62l.52,1c1.38.11,2.79.07,4.17.08,2.41,0,4.75.43,7.12.69a10.08,10.08,0,0,1,0-1.63C91,68.66,87,68.06,83.07,68.62Z"/><path class="cls-5" d="M84.72,71.73c.19.32.38.63.59.94,3.64.73,7.38,1.74,11,1.49-.19-.38-.38-.76-.58-1.13-.05-.1-.09-.18-.13-.27-2-.2-4-.26-5.95-.51A40.23,40.23,0,0,0,84.72,71.73Z"/><path class="cls-5" d="M90.43,76.38a24.28,24.28,0,0,1-4.63,0s0,.08,0,.12a1.3,1.3,0,0,0-.19,1,11.67,11.67,0,0,0,3.61.37c1.71,0,3.42,0,5.12.06a21.4,21.4,0,0,0,3.83,0c-.27-.53-.54-1.07-.8-1.61C95.06,76.23,92.72,76.32,90.43,76.38Z"/><path class="cls-5" d="M94,57.24a21.06,21.06,0,0,1-6.2-.22,32.54,32.54,0,0,0-9,.26,8.85,8.85,0,0,1-.35,1.24,5,5,0,0,0,1.41.43h.89c.12-.34.24-.69.34-1a4.48,4.48,0,0,0,.41.31l.28.15c-.29.18-.57.38-.86.59l7.07,0,.33-.07c.51-.12,1.3-.43,1.9-.59-.31.23-.62.45-.94.65l4.63,0c.41-.42.79-.87,1.17-1.33A1.26,1.26,0,0,0,94,57.24Z"/><path class="cls-5" d="M79.22,54.54c-.06.45-.11.9-.17,1.35A95.47,95.47,0,0,0,95.54,57c.52-.68,1-1.4,1.47-2.14l-.11,0C91.17,54.44,85,53.91,79.22,54.54Z"/><path class="cls-5" d="M79.85,51.39a8.54,8.54,0,0,0-.28,1c3,.73,6.28.57,9.37.63,2.93.06,6,.68,8.88.49.33-.58.64-1.16.95-1.74-2.59-1.21-5.58-1.09-8.41-1.12A44.7,44.7,0,0,0,79.85,51.39Z"/><path class="cls-5" d="M91.79,46.89c-2.14-.08-7-1-9.1.24l-.34.45a.4.4,0,0,0,.26.33c2.68.73,5.64.67,8.41.85,2.14.14,4.29.29,6.43.47.67.06,1.59.3,2.42.34.3-.62.61-1.25.9-1.89C98.63,46.44,93.64,46.95,91.79,46.89Z"/><path class="cls-5" d="M102.35,44c-2.68-.89-6.42-.5-9-.65-2.82-.17-6.32-1-9.18-.23a4.94,4.94,0,0,1-.08,1.06c5.86.19,11.75,1.54,17.62,1.36C101.93,45.06,102.15,44.55,102.35,44Z"/><path class="cls-5" d="M99.09,60.61l1.78,0A5.45,5.45,0,0,0,99.09,60.61Z"/><path class="cls-5" d="M110.39,60.76l-2.41,0c-.92,0-1.84,0-2.77.05-1.33,0-2.68-.18-4-.1l-.33,0-1.78,0h0a2,2,0,0,0-.21.85,2.56,2.56,0,0,0,.06.56l.12.07a.67.67,0,0,0,.27.17,25.17,25.17,0,0,0,11.81.84,1.11,1.11,0,0,0,.6-.34A1.85,1.85,0,0,1,110.39,60.76Z"/><path class="cls-5" d="M99.84,63.87a4.82,4.82,0,0,1,.48,1.17c5.76,1,12.44,1.34,17.89-1,.53-.23.4-.92,0-1.19l-1.36.14C111.28,64.51,105.53,63.88,99.84,63.87Z"/><path class="cls-5" d="M100.56,67.65c0,.32,0,.63,0,1,3.24.89,7.18.12,10.37-.14a122.74,122.74,0,0,0,12.66-1.61c-.24-.53-.5-1.06-.73-1.59-2.91.42-5.86.68-8.76,1.12C110.24,67,104.71,68.16,100.56,67.65Z"/><path class="cls-5" d="M101.06,71.4c.09.28.19.55.3.82,3.6,0,7.25-1.17,10.84-1.45,4-.32,8-.42,12-.49a3,3,0,0,0,.08-1.52q-6,0-12,.38C108.36,69.39,104.82,70.89,101.06,71.4Z"/><path class="cls-5" d="M103,74.39a.35.35,0,0,0-.27.25c.13.19.28.38.43.56,2.7.43,5.38-.21,8.09-.38,2-.13,4.08.11,6.11.05a4.67,4.67,0,0,1,1.6-1.44C113.69,72.61,108.19,73.52,103,74.39Z"/><path class="cls-5" d="M105.42,57.21c-.33,0-.68-.07-1-.09a7.45,7.45,0,0,1-2.57,1.39l-.17.06,1.29.28h3c.25-.22.48-.46.7-.69a2.6,2.6,0,0,0,.12.69H111c.08-.17.17-.34.27-.52a1.32,1.32,0,0,1,.55-.49.84.84,0,0,0-.22-.11C109.63,57.2,107.46,57.46,105.42,57.21Z"/><path class="cls-5" d="M116,56.69c-1.74-.84-3.81-.79-5.7-1.11a20.56,20.56,0,0,0-4.2-.74,7.21,7.21,0,0,1-.63,1.09,43.84,43.84,0,0,0,4.42,1.1,23.37,23.37,0,0,0,2.58.51,1.93,1.93,0,0,0,.61-.4l.28-.32c1,.12,2.15.06,2.88.14A.44.44,0,0,0,116,56.69Z"/><path class="cls-5" d="M106.8,52.72c-.08.38-.18.76-.29,1.12a62.21,62.21,0,0,0,7.72,1.38c2.79.44,5.55,1.06,8.35,1.49a3.65,3.65,0,0,0,0-1.94C117.48,53.76,111.89,52.27,106.8,52.72Z"/><path class="cls-5" d="M115.65,50.28c-2.83.11-5.78-.36-8.57.2,0,.26,0,.51-.07.77,3.39.79,6.92.33,10.38.4a.61.61,0,0,1,0-.21.86.86,0,0,0,0-.31,7.7,7.7,0,0,1,1.12-.91C117.52,50.17,116.55,50.24,115.65,50.28Z"/><path class="cls-5" d="M122.26,47.27c-4.87-.3-10.16-1.52-15-.45,0,0-.06,0-.09.06,0,.17,0,.34,0,.51s0,.05.09.06a34.38,34.38,0,0,0,6.29.5c2.74.13,5.48.54,8.22.58a7.81,7.81,0,0,0,1.09-.7A.62.62,0,0,0,122.26,47.27Z"/><path class="cls-5" d="M145,56.81l.4.39a3.14,3.14,0,0,1,.69.85,1.18,1.18,0,0,0-.33,1l5.27.08a7.51,7.51,0,0,0-.35-2.17,1.52,1.52,0,0,0-.38,0C148.6,56.89,146.82,56.86,145,56.81Z"/><path class="cls-5" d="M131.12,58.88a3.14,3.14,0,0,1-.31-.76,2.24,2.24,0,0,0,.51.76c4.17,0,8.18,0,11.85.09a3.66,3.66,0,0,0,1.11-2.17c-5.41-.13-11-.27-16.08.79a10.53,10.53,0,0,0,.31,1.28Z"/><path class="cls-5" d="M128.1,54.71a7.34,7.34,0,0,0-.07,1c4.78.12,9.69-.24,14.46-.52,1.27-.08,5.39-1,7.14-.54a10.33,10.33,0,0,0-1.34-1.63c-1.59,0-3.31.38-4.37.45C138.67,53.9,133.25,53.58,128.1,54.71Z"/><path class="cls-5" d="M134.47,61a27.37,27.37,0,0,0-3,0Z"/><path class="cls-5" d="M134.65,61.89c.76-.27,1.56-.31,2.32-.55s-2.18.06-2.58.17l-1.15.32c.4.24.14.94.2,1.6l.44.07A1.19,1.19,0,0,1,134.65,61.89Z"/><path class="cls-5" d="M133.24,61.83l1.15-.32c.4-.11,3.39-.42,2.58-.17s-1.57.28-2.32.55a1.19,1.19,0,0,0-.77,1.61,55.21,55.21,0,0,0,5.64.46,5,5,0,0,0,1.86-2.63c-.73-.06-1.42-.11-2-.11-1.61,0-3.25-.15-4.89-.24l-3,0a15,15,0,0,0-1.7.19,2.85,2.85,0,0,0,1,.72,4.78,4.78,0,0,0-.1,1.09c.9.18,1.81.34,2.73.47C133.38,62.77,133.64,62.07,133.24,61.83Z"/><path class="cls-5" d="M149.87,61.15c-2,.89-5.08.51-7.75.25a1,1,0,0,0,.2,1,5,5,0,0,0,1.92,1.52,50.83,50.83,0,0,0,5.49-.61,7.2,7.2,0,0,0,1-2.17A1.09,1.09,0,0,0,149.87,61.15Z"/><path class="cls-5" d="M164.1,60.52c-1,0-2.13.11-3.35.21-.52,0-1.19.08-2,.11a11.49,11.49,0,0,0-2.39,1.39.56.56,0,0,0,.66.14l.16-.07c-.43.18,1,.41,1.24.43.72.08,1.43.13,2.15.17a13.73,13.73,0,0,0,3.83-.41,1.08,1.08,0,0,0,.87-.93A3.83,3.83,0,0,0,164.1,60.52Z"/><path class="cls-5" d="M155.17,63.29a7.88,7.88,0,0,0-.91,1.17,34.47,34.47,0,0,0,8.4.52c.66,0,1.42,0,2.2,0a3.33,3.33,0,0,0,.82-1.53C162.26,63.82,158.6,63,155.17,63.29Z"/><path class="cls-5" d="M158,66.11a27.81,27.81,0,0,1-4.42-.23,4.5,4.5,0,0,0-.17.66,3.66,3.66,0,0,0,0,.38c1,.7,2.49.68,3.61.72a39.41,39.41,0,0,0,6.94-.31,1.36,1.36,0,0,1-.11-1.29A44.66,44.66,0,0,1,158,66.11Z"/><path class="cls-5" d="M163.4,56.3a19.12,19.12,0,0,0-1.95-.08,8.4,8.4,0,0,0-2.47,0l-1.42,0a.82.82,0,0,0-.29.05,10.56,10.56,0,0,0,3,1.74l.7.07c.6.07,1.32.24,2,.26a3.32,3.32,0,0,0,2.46-1.89,0,0,0,0,1,0,0A15.53,15.53,0,0,0,163.4,56.3Z"/><path class="cls-5" d="M155.67,54.08a.34.34,0,0,0-.23.22,6.67,6.67,0,0,0,.42.55,17,17,0,0,0,4.55.4c1.77,0,3.53.18,5.29.26a3.21,3.21,0,0,0-.14-1.15C162.35,53.84,158.63,53.22,155.67,54.08Z"/><path class="cls-5" d="M154.65,51.92a4.62,4.62,0,0,0,.09.74,24.6,24.6,0,0,0,5.44.19c1.67,0,3.34.46,5,.54-.26-.55-.56-1.08-.8-1.57-1.15-.13-2.4-.08-3.4-.12A22.4,22.4,0,0,0,154.65,51.92Z"/><path d="M218.25,69.57c-2.64,1.38-4,3.92-5.6,6.33-2.95,4.39-7.8,8.05-11.65,11.65-7.42,7-16.41,11.53-25.46,15.94a138.64,138.64,0,0,1-63.4,14.23c-21.83-.24-42.86-3.27-63.55-10.41-9.81-3.39-18.47-7.45-25.52-15.24C18.6,87.13,12.81,79.31,11.69,72.45c-.33-2-3.42-1.19-3.1.83,1,6.23,5.8,13.15,9.59,17.93,5.92,7.46,13,12.18,21.81,15.58C61.63,115.15,84,119,107.18,119.34c22.2.34,42.76-3.11,63.25-11.93,9.37-4,19.06-8.64,27.1-15,3.93-3.11,7.51-6.61,11.14-10.06a43.42,43.42,0,0,0,4.66-4.87c1.77-2.32,3-5.19,5.69-6.59C219.89,70.43,219.12,69.11,218.25,69.57Z"/><path d="M103,.07c-12.3.32-24.64.79-36.94,1.3A83.9,83.9,0,0,0,36.12,8.27c-8.26,3.56-15.21,8.56-20.35,16A49.5,49.5,0,0,0,9.25,37.66c-1,3.37-.61,6.79-1.31,10.15-.37,1.79,2.3,2.57,2.75.78.71-2.8.49-5.85,1.07-8.69,1-5.07,3.87-9.77,6.61-14.08,5.08-8,13.72-13.39,22.32-16.86,10.26-4.14,20.8-5.34,31.79-5.61,11.91-.29,23.77-1.14,35.68-1.52,22.57-.72,45.06,3.52,66.35,10.9a110,110,0,0,1,27.7,13.91c6.9,4.9,11.84,12.37,20.06,15.3.79.28,1.16-1,.35-1.25-9.28-2.55-14.47-11.36-22-16.66C191.91,18,182,13.8,172,10.44A198.31,198.31,0,0,0,103,.07Z"/></svg>