<svg id="Layer_1" data-name="Layer 1" xmlns="http://www.w3.org/2000/svg" xmlns:xlink="http://www.w3.org/1999/xlink" viewBox="0 0 432.73 31.06"><defs><style>.cls-1{fill:#eeda17;}.cls-2{fill:url(#linear-gradient);}.cls-3{fill:url(#linear-gradient-2);}.cls-4{font-size:17.42px;font-family:ABeeZee-Regular, ABeeZee;}</style><linearGradient id="linear-gradient" x1="-522.72" y1="741.76" x2="-531.66" y2="741.82" gradientTransform="translate(532.15 -726.26)" gradientUnits="userSpaceOnUse"><stop offset="0" stop-color="#cda21f"/><stop offset="0.22" stop-color="#dbba1d"/><stop offset="0.47" stop-color="#e5cc1c"/><stop offset="0.72" stop-color="#ecd71b"/><stop offset="1" stop-color="#eedb1b"/></linearGradient><linearGradient id="linear-gradient-2" x1="-532.15" y1="741.79" x2="-520.99" y2="741.79" gradientTransform="translate(532.15 -726.26)" gradientUnits="userSpaceOnUse"><stop offset="0" stop-color="#bababa"/><stop offset="0.02" stop-color="#cfcfcf"/><stop offset="0.05" stop-color="#e4e4e4"/><stop offset="0.09" stop-color="#f3f3f3"/><stop offset="0.13" stop-color="#fcfcfc"/><stop offset="0.19" stop-color="#fff"/><stop offset="0.34" stop-color="#f7f7f7"/><stop offset="0.65" stop-color="#ececec"/><stop offset="1" stop-color="#e8e8e8"/></linearGradient></defs><title>scale</title><rect class="cls-1" x="2.52" y="0.66" width="79.45" height="29.74"/><rect x="42.92" y="0.66" width="1.17" height="29.74"/><rect x="49.69" y="0.66" width="0.47" height="4.73"/><rect x="59.32" y="0.66" width="0.47" height="4.73"/><rect x="72.16" y="0.66" width="0.47" height="4.73"/><rect x="75.37" y="0.66" width="0.47" height="4.73"/><rect x="68.95" y="0.66" width="0.47" height="4.73"/><rect x="65.74" y="0.66" width="0.47" height="4.73"/><rect x="62.53" y="0.66" width="0.47" height="4.73"/><rect x="56.11" y="0.66" width="0.47" height="4.73"/><rect x="52.9" y="0.66" width="0.47" height="4.73"/><rect x="46.48" y="0.66" width="0.47" height="4.73"/><rect x="49.69" y="25.67" width="0.47" height="4.73"/><rect x="59.32" y="25.67" width="0.47" height="4.73"/><rect x="72.16" y="25.67" width="0.47" height="4.73"/><rect x="75.37" y="25.67" width="0.47" height="4.73"/><rect x="68.95" y="25.67" width="0.47" height="4.73"/><rect x="65.74" y="25.67" width="0.47" height="4.73"/><rect x="62.53" y="25.67" width="0.47" height="4.73"/><rect x="56.11" y="25.67" width="0.47" height="4.73"/><rect x="52.9" y="25.67" width="0.47" height="4.73"/><rect x="46.48" y="25.67" width="0.47" height="4.73"/><rect x="78.22" y="0.66" width="1.17" height="29.74"/><rect x="81.78" y="0.66" width="0.19" height="4.73"/><rect x="81.78" y="25.67" width="0.19" height="4.73"/><path class="cls-2" d="M2.52,30.4H9.1a42.48,42.48,0,0,0,2.58-14.87A42.48,42.48,0,0,0,9.1.66H2.52Z"/><path class="cls-3" d="M0,31.06H8.34a42.17,42.17,0,0,0,2.82-15.53A42.16,42.16,0,0,0,8.34,0H0Z"/><text class="cls-4" transform="translate(14.44 22.2) scale(0.99 1)">cm</text><rect class="cls-1" x="79.12" y="0.66" width="353.61" height="29.74"/><rect x="79.12" y="0.66" width="0.25" height="29.74"/><rect x="84.97" y="0.66" width="0.47" height="4.73"/><rect x="94.6" y="0.66" width="0.47" height="4.73"/><rect x="107.43" y="0.66" width="0.47" height="4.73"/><rect x="110.64" y="0.66" width="0.47" height="4.73"/><rect x="104.22" y="0.66" width="0.47" height="4.73"/><rect x="101.01" y="0.66" width="0.47" height="4.73"/><rect x="97.81" y="0.66" width="0.47" height="4.73"/><rect x="91.39" y="0.66" width="0.47" height="4.73"/><rect x="88.18" y="0.66" width="0.47" height="4.73"/><rect x="81.76" y="0.66" width="0.47" height="4.73"/><rect x="84.97" y="25.67" width="0.47" height="4.73"/><rect x="94.6" y="25.67" width="0.47" height="4.73"/><rect x="107.43" y="25.67" width="0.47" height="4.73"/><rect x="110.64" y="25.67" width="0.47" height="4.73"/><rect x="104.22" y="25.67" width="0.47" height="4.73"/><rect x="101.01" y="25.67" width="0.47" height="4.73"/><rect x="97.81" y="25.67" width="0.47" height="4.73"/><rect x="91.39" y="25.67" width="0.47" height="4.73"/><rect x="88.18" y="25.67" width="0.47" height="4.73"/><rect x="81.76" y="25.67" width="0.47" height="4.73"/><rect x="113.5" y="0.66" width="1.17" height="29.74"/><rect x="120.27" y="0.66" width="0.47" height="4.73"/><rect x="129.9" y="0.66" width="0.47" height="4.73"/><rect x="142.73" y="0.66" width="0.47" height="4.73"/><rect x="145.94" y="0.66" width="0.47" height="4.73"/><rect x="139.52" y="0.66" width="0.47" height="4.73"/><rect x="136.32" y="0.66" width="0.47" height="4.73"/><rect x="133.11" y="0.66" width="0.47" height="4.73"/><rect x="126.69" y="0.66" width="0.47" height="4.73"/><rect x="123.48" y="0.66" width="0.47" height="4.73"/><rect x="117.06" y="0.66" width="0.47" height="4.73"/><rect x="120.27" y="25.67" width="0.47" height="4.73"/><rect x="129.9" y="25.67" width="0.47" height="4.73"/><rect x="142.73" y="25.67" width="0.47" height="4.73"/><rect x="145.94" y="25.67" width="0.47" height="4.73"/><rect x="139.52" y="25.67" width="0.47" height="4.73"/><rect x="136.32" y="25.67" width="0.47" height="4.73"/><rect x="133.11" y="25.67" width="0.47" height="4.73"/><rect x="126.69" y="25.67" width="0.47" height="4.73"/><rect x="123.48" y="25.67" width="0.47" height="4.73"/><rect x="117.06" y="25.67" width="0.47" height="4.73"/><rect x="148.8" y="0.66" width="1.17" height="29.74"/><rect x="155.57" y="0.66" width="0.47" height="4.73"/><rect x="165.2" y="0.66" width="0.47" height="4.73"/><rect x="178.03" y="0.66" width="0.47" height="4.73"/><rect x="181.24" y="0.66" width="0.47" height="4.73"/><rect x="174.82" y="0.66" width="0.47" height="4.73"/><rect x="171.62" y="0.66" width="0.47" height="4.73"/><rect x="168.41" y="0.66" width="0.47" height="4.73"/><rect x="161.99" y="0.66" width="0.47" height="4.73"/><rect x="158.78" y="0.66" width="0.47" height="4.73"/><rect x="152.36" y="0.66" width="0.47" height="4.73"/><rect x="155.57" y="25.67" width="0.47" height="4.73"/><rect x="165.2" y="25.67" width="0.47" height="4.73"/><rect x="178.03" y="25.67" width="0.47" height="4.73"/><rect x="181.24" y="25.67" width="0.47" height="4.73"/><rect x="174.82" y="25.67" width="0.47" height="4.73"/><rect x="171.62" y="25.67" width="0.47" height="4.73"/><rect x="168.41" y="25.67" width="0.47" height="4.73"/><rect x="161.99" y="25.67" width="0.47" height="4.73"/><rect x="158.78" y="25.67" width="0.47" height="4.73"/><rect x="152.36" y="25.67" width="0.47" height="4.73"/><rect x="184.1" y="0.66" width="1.17" height="29.74"/><rect x="190.87" y="0.66" width="0.47" height="4.73"/><rect x="200.5" y="0.66" width="0.47" height="4.73"/><rect x="213.33" y="0.66" width="0.47" height="4.73"/><rect x="216.54" y="0.66" width="0.47" height="4.73"/><rect x="210.12" y="0.66" width="0.47" height="4.73"/><rect x="206.92" y="0.66" width="0.47" height="4.73"/><rect x="203.71" y="0.66" width="0.47" height="4.73"/><rect x="197.29" y="0.66" width="0.47" height="4.73"/><rect x="194.08" y="0.66" width="0.47" height="4.73"/><rect x="187.66" y="0.66" width="0.47" height="4.73"/><rect x="190.87" y="25.67" width="0.47" height="4.73"/><rect x="200.5" y="25.67" width="0.47" height="4.73"/><rect x="213.33" y="25.67" width="0.47" height="4.73"/><rect x="216.54" y="25.67" width="0.47" height="4.73"/><rect x="210.12" y="25.67" width="0.47" height="4.73"/><rect x="206.92" y="25.67" width="0.47" height="4.73"/><rect x="203.71" y="25.67" width="0.47" height="4.73"/><rect x="197.29" y="25.67" width="0.47" height="4.73"/><rect x="194.08" y="25.67" width="0.47" height="4.73"/><rect x="187.66" y="25.67" width="0.47" height="4.73"/><rect x="219.4" y="0.66" width="1.17" height="29.74"/><rect x="226.17" y="0.66" width="0.47" height="4.73"/><rect x="235.8" y="0.66" width="0.47" height="4.73"/><rect x="248.63" y="0.66" width="0.47" height="4.73"/><rect x="251.84" y="0.66" width="0.47" height="4.73"/><rect x="245.42" y="0.66" width="0.47" height="4.73"/><rect x="242.22" y="0.66" width="0.47" height="4.73"/><rect x="239.01" y="0.66" width="0.47" height="4.73"/><rect x="232.59" y="0.66" width="0.47" height="4.73"/><rect x="229.38" y="0.66" width="0.47" height="4.73"/><rect x="222.96" y="0.66" width="0.47" height="4.73"/><rect x="226.17" y="25.67" width="0.47" height="4.73"/><rect x="235.8" y="25.67" width="0.47" height="4.73"/><rect x="248.63" y="25.67" width="0.47" height="4.73"/><rect x="251.84" y="25.67" width="0.47" height="4.73"/><rect x="245.42" y="25.67" width="0.47" height="4.73"/><rect x="242.22" y="25.67" width="0.47" height="4.73"/><rect x="239.01" y="25.67" width="0.47" height="4.73"/><rect x="232.59" y="25.67" width="0.47" height="4.73"/><rect x="229.38" y="25.67" width="0.47" height="4.73"/><rect x="222.96" y="25.67" width="0.47" height="4.73"/><rect x="254.7" y="0.66" width="1.17" height="29.74"/><rect x="261.47" y="0.66" width="0.47" height="4.73"/><rect x="271.1" y="0.66" width="0.47" height="4.73"/><rect x="283.93" y="0.66" width="0.47" height="4.73"/><rect x="287.14" y="0.66" width="0.47" height="4.73"/><rect x="280.72" y="0.66" width="0.47" height="4.73"/><rect x="277.52" y="0.66" width="0.47" height="4.73"/><rect x="274.31" y="0.66" width="0.47" height="4.73"/><rect x="267.89" y="0.66" width="0.47" height="4.73"/><rect x="264.68" y="0.66" width="0.47" height="4.73"/><rect x="258.26" y="0.66" width="0.47" height="4.73"/><rect x="261.47" y="25.67" width="0.47" height="4.73"/><rect x="271.1" y="25.67" width="0.47" height="4.73"/><rect x="283.93" y="25.67" width="0.47" height="4.73"/><rect x="287.14" y="25.67" width="0.47" height="4.73"/><rect x="280.72" y="25.67" width="0.47" height="4.73"/><rect x="277.52" y="25.67" width="0.47" height="4.73"/><rect x="274.31" y="25.67" width="0.47" height="4.73"/><rect x="267.89" y="25.67" width="0.47" height="4.73"/><rect x="264.68" y="25.67" width="0.47" height="4.73"/><rect x="258.26" y="25.67" width="0.47" height="4.73"/><rect x="290" y="0.66" width="1.17" height="29.74"/><rect x="296.77" y="0.66" width="0.47" height="4.73"/><rect x="306.4" y="0.66" width="0.47" height="4.73"/><rect x="319.23" y="0.66" width="0.47" height="4.73"/><rect x="322.44" y="0.66" width="0.47" height="4.73"/><rect x="316.02" y="0.66" width="0.47" height="4.73"/><rect x="312.82" y="0.66" width="0.47" height="4.73"/><rect x="309.61" y="0.66" width="0.47" height="4.73"/><rect x="303.19" y="0.66" width="0.47" height="4.73"/><rect x="299.98" y="0.66" width="0.47" height="4.73"/><rect x="293.56" y="0.66" width="0.47" height="4.73"/><rect x="296.77" y="25.67" width="0.47" height="4.73"/><rect x="306.4" y="25.67" width="0.47" height="4.73"/><rect x="319.23" y="25.67" width="0.47" height="4.73"/><rect x="322.44" y="25.67" width="0.47" height="4.73"/><rect x="316.02" y="25.67" width="0.47" height="4.73"/><rect x="312.82" y="25.67" width="0.47" height="4.73"/><rect x="309.61" y="25.67" width="0.47" height="4.73"/><rect x="303.19" y="25.67" width="0.47" height="4.73"/><rect x="299.98" y="25.67" width="0.47" height="4.73"/><rect x="293.56" y="25.67" width="0.47" height="4.73"/><rect x="325.3" y="0.66" width="1.17" height="29.74"/><rect x="332.07" y="0.66" width="0.47" height="4.73"/><rect x="341.7" y="0.66" width="0.47" height="4.73"/><rect x="354.53" y="0.66" width="0.47" height="4.73"/><rect x="357.74" y="0.66" width="0.47" height="4.73"/><rect x="351.33" y="0.66" width="0.47" height="4.73"/><rect x="348.12" y="0.66" width="0.47" height="4.73"/><rect x="344.91" y="0.66" width="0.47" height="4.73"/><rect x="338.49" y="0.66" width="0.47" height="4.73"/><rect x="335.28" y="0.66" width="0.47" height="4.73"/><rect x="328.86" y="0.66" width="0.47" height="4.73"/><rect x="332.07" y="25.67" width="0.47" height="4.73"/><rect x="341.7" y="25.67" width="0.47" height="4.73"/><rect x="354.53" y="25.67" width="0.47" height="4.73"/><rect x="357.74" y="25.67" width="0.47" height="4.73"/><rect x="351.33" y="25.67" width="0.47" height="4.73"/><rect x="348.12" y="25.67" width="0.47" height="4.73"/><rect x="344.91" y="25.67" width="0.47" height="4.73"/><rect x="338.49" y="25.67" width="0.47" height="4.73"/><rect x="335.28" y="25.67" width="0.47" height="4.73"/><rect x="328.86" y="25.67" width="0.47" height="4.73"/><rect x="360.6" y="0.66" width="1.17" height="29.74"/><rect x="367.37" y="0.66" width="0.47" height="4.73"/><rect x="377" y="0.66" width="0.47" height="4.73"/><rect x="389.83" y="0.66" width="0.47" height="4.73"/><rect x="393.04" y="0.66" width="0.47" height="4.73"/><rect x="386.63" y="0.66" width="0.47" height="4.73"/><rect x="383.42" y="0.66" width="0.47" height="4.73"/><rect x="380.21" y="0.66" width="0.47" height="4.73"/><rect x="373.79" y="0.66" width="0.47" height="4.73"/><rect x="370.58" y="0.66" width="0.47" height="4.73"/><rect x="364.16" y="0.66" width="0.47" height="4.73"/><rect x="367.37" y="25.67" width="0.47" height="4.73"/><rect x="377" y="25.67" width="0.47" height="4.73"/><rect x="389.83" y="25.67" width="0.47" height="4.73"/><rect x="393.04" y="25.67" width="0.47" height="4.73"/><rect x="386.63" y="25.67" width="0.47" height="4.73"/><rect x="383.42" y="25.67" width="0.47" height="4.73"/><rect x="380.21" y="25.67" width="0.47" height="4.73"/><rect x="373.79" y="25.67" width="0.47" height="4.73"/><rect x="370.58" y="25.67" width="0.47" height="4.73"/><rect x="364.16" y="25.67" width="0.47" height="4.73"/><rect x="395.9" y="0.66" width="1.17" height="29.74"/><rect x="402.67" y="0.66" width="0.47" height="4.73"/><rect x="412.3" y="0.66" width="0.47" height="4.73"/><rect x="425.13" y="0.66" width="0.47" height="4.73"/><rect x="428.34" y="0.66" width="0.47" height="4.73"/><rect x="421.93" y="0.66" width="0.47" height="4.73"/><rect x="418.72" y="0.66" width="0.47" height="4.73"/><rect x="415.51" y="0.66" width="0.47" height="4.73"/><rect x="409.09" y="0.66" width="0.47" height="4.73"/><rect x="405.88" y="0.66" width="0.47" height="4.73"/><rect x="399.46" y="0.66" width="0.47" height="4.73"/><rect x="402.67" y="25.67" width="0.47" height="4.73"/><rect x="412.3" y="25.67" width="0.47" height="4.73"/><rect x="425.13" y="25.67" width="0.47" height="4.73"/><rect x="428.34" y="25.67" width="0.47" height="4.73"/><rect x="421.93" y="25.67" width="0.47" height="4.73"/><rect x="418.72" y="25.67" width="0.47" height="4.73"/><rect x="415.51" y="25.67" width="0.47" height="4.73"/><rect x="409.09" y="25.67" width="0.47" height="4.73"/><rect x="405.88" y="25.67" width="0.47" height="4.73"/><rect x="399.46" y="25.67" width="0.47" height="4.73"/><rect x="431.2" y="0.66" width="1.17" height="29.74"/><path d="M108.64,9.57V20.12h2v1.36h-5.93V20.12h2.41v-8.6l-2.26,1.72L104,12.11l3.49-2.54Z"/><path d="M139.08,21.49a3.85,3.85,0,0,1-.05-.63,4.78,4.78,0,0,1,.4-2,7.18,7.18,0,0,1,1-1.61,12.49,12.49,0,0,1,1.27-1.34q.68-.62,1.27-1.19a7.79,7.79,0,0,0,1-1.14,2.1,2.1,0,0,0,.4-1.22,1.52,1.52,0,0,0-.52-1.18,1.94,1.94,0,0,0-1.35-.47,2.93,2.93,0,0,0-1.29.28,4.35,4.35,0,0,0-1.09.76l-.84-1a5.8,5.8,0,0,1,1.49-1,4.5,4.5,0,0,1,1.9-.37,4,4,0,0,1,1.36.22,3,3,0,0,1,1,.62,2.85,2.85,0,0,1,.67.93,2.77,2.77,0,0,1,.24,1.14,3.19,3.19,0,0,1-.36,1.51,6.7,6.7,0,0,1-.91,1.31,13.22,13.22,0,0,1-1.2,1.19q-.65.57-1.22,1.17a8.85,8.85,0,0,0-1,1.24,3.12,3.12,0,0,0-.51,1.4h5.19v1.4Z"/><path d="M177.25,21.69a5.3,5.3,0,0,1-3.29-1l.69-1.28a5.44,5.44,0,0,0,1.09.63,3.76,3.76,0,0,0,1.53.27,2.53,2.53,0,0,0,1.76-.59,1.92,1.92,0,0,0,.65-1.49,2.19,2.19,0,0,0-.19-.89,1.93,1.93,0,0,0-.58-.74,3.06,3.06,0,0,0-1-.5,4.78,4.78,0,0,0-1.42-.19h-.94V14.66h.88a4.23,4.23,0,0,0,1.3-.18,2.67,2.67,0,0,0,.92-.48,2,2,0,0,0,.54-.69,1.87,1.87,0,0,0,.18-.79,1.6,1.6,0,0,0-.6-1.29,2.24,2.24,0,0,0-1.47-.49,3.52,3.52,0,0,0-1.42.26,4.09,4.09,0,0,0-1,.59l-.62-1.21a7.65,7.65,0,0,1,1.3-.67,4.79,4.79,0,0,1,1.85-.33,4.24,4.24,0,0,1,1.47.24,3.28,3.28,0,0,1,1.1.65,2.8,2.8,0,0,1,.68.95,3,3,0,0,1-.26,2.81A3.73,3.73,0,0,1,179,15.12a3.71,3.71,0,0,1,1.66,1.19,3,3,0,0,1,.6,1.86,3.62,3.62,0,0,1-.24,1.3,3.24,3.24,0,0,1-.73,1.13,3.57,3.57,0,0,1-1.25.79A4.83,4.83,0,0,1,177.25,21.69Z"/><path d="M215.29,18.95v2.54h-1.52V18.95h-5V17.72l3.52-8.28,1.31.56-3.19,7.54h3.39V14.17h1.52v3.39h1.4v1.4Z"/><path d="M251.94,17.79a4.08,4.08,0,0,1-.29,1.57,3.55,3.55,0,0,1-.84,1.23,3.89,3.89,0,0,1-1.31.81,4.7,4.7,0,0,1-1.69.29,6,6,0,0,1-1.78-.23,4.83,4.83,0,0,1-1.34-.66l.79-1.31a4.86,4.86,0,0,0,1,.57,3.44,3.44,0,0,0,1.3.23,2.91,2.91,0,0,0,1-.17,2.24,2.24,0,0,0,.79-.49,2.27,2.27,0,0,0,.51-.74,2.33,2.33,0,0,0,.19-.94,2.25,2.25,0,0,0-.72-1.74,2.9,2.9,0,0,0-2-.66h-2.09v-6h5.83v1.38h-4.4v3.24h.84a5.42,5.42,0,0,1,1.75.26,3.75,3.75,0,0,1,1.31.75,3.28,3.28,0,0,1,.83,1.15A3.63,3.63,0,0,1,251.94,17.79Z"/><path d="M285.48,10.93a4.2,4.2,0,0,0-3,1.13A5.12,5.12,0,0,0,281,15.17a5.14,5.14,0,0,1,1.21-.84,3.61,3.61,0,0,1,1.69-.38,3.28,3.28,0,0,1,1.31.25,3.1,3.1,0,0,1,1,.71,3.33,3.33,0,0,1,.69,1.12,4.07,4.07,0,0,1,.25,1.47,4.9,4.9,0,0,1-.29,1.71,3.91,3.91,0,0,1-.79,1.32,3.56,3.56,0,0,1-1.21.85,3.83,3.83,0,0,1-1.53.31,3.94,3.94,0,0,1-1.53-.3,3.37,3.37,0,0,1-1.26-.92,4.52,4.52,0,0,1-.85-1.58,7.27,7.27,0,0,1-.31-2.25,9.51,9.51,0,0,1,.39-2.74,6.82,6.82,0,0,1,1.15-2.26,5.52,5.52,0,0,1,1.89-1.54,5.76,5.76,0,0,1,2.63-.57h.33l.31,0V11l-.3,0Zm-2,4.29a2.83,2.83,0,0,0-1.39.36,4.11,4.11,0,0,0-1.16,1v.37a5.25,5.25,0,0,0,.21,1.43,3.41,3.41,0,0,0,.52,1.06,2.25,2.25,0,0,0,.77.66,2,2,0,0,0,1,.23,2.12,2.12,0,0,0,.92-.2,2.07,2.07,0,0,0,.71-.54,2.49,2.49,0,0,0,.46-.83,3.25,3.25,0,0,0,.16-1,2.63,2.63,0,0,0-.59-1.79A2,2,0,0,0,283.51,15.22Z"/><path d="M316.91,21.49a20.51,20.51,0,0,1,.26-3.47,13.67,13.67,0,0,1,.76-2.76A10.62,10.62,0,0,1,319.17,13a17.83,17.83,0,0,1,1.7-2h-5.68V9.57h7.48v1.23A17.53,17.53,0,0,0,320.74,13a10.09,10.09,0,0,0-1.25,2.3,12.08,12.08,0,0,0-.67,2.72,26,26,0,0,0-.2,3.47Z"/><path d="M352,15.07a4,4,0,0,1-1.38-1.15,2.71,2.71,0,0,1-.47-1.63,2.66,2.66,0,0,1,.26-1.18,2.82,2.82,0,0,1,.72-.93,3.34,3.34,0,0,1,1.1-.6,4.22,4.22,0,0,1,1.36-.21,4.4,4.4,0,0,1,1.42.22,3.35,3.35,0,0,1,1.11.62,3,3,0,0,1,.72.93,2.54,2.54,0,0,1,.26,1.14,2.6,2.6,0,0,1-.52,1.69,4.19,4.19,0,0,1-1.4,1.09,5.16,5.16,0,0,1,1.91,1.32,2.84,2.84,0,0,1,.66,1.9,3.24,3.24,0,0,1-.3,1.4,3.11,3.11,0,0,1-.84,1.08,4,4,0,0,1-1.28.69,5.05,5.05,0,0,1-1.6.25,5.6,5.6,0,0,1-1.74-.25,3.93,3.93,0,0,1-1.32-.71,3.2,3.2,0,0,1-.83-1.06,2.93,2.93,0,0,1-.29-1.3,3.19,3.19,0,0,1,.59-1.93A4.47,4.47,0,0,1,352,15.07Zm4.2,3.24a1.94,1.94,0,0,0-.72-1.46,6,6,0,0,0-2-1.11,4.63,4.63,0,0,0-.93.33,3.22,3.22,0,0,0-.77.51,2.45,2.45,0,0,0-.53.68,1.77,1.77,0,0,0-.2.84,2,2,0,0,0,.2.89,2.19,2.19,0,0,0,.56.71,2.64,2.64,0,0,0,.84.47,3.22,3.22,0,0,0,1.06.17,2.71,2.71,0,0,0,1.77-.56A1.8,1.8,0,0,0,356.19,18.3Zm-4.58-6a1.84,1.84,0,0,0,.59,1.34,3.77,3.77,0,0,0,1.6.89,3.13,3.13,0,0,0,.7-.32,3.17,3.17,0,0,0,.58-.46,2,2,0,0,0,.4-.58,1.62,1.62,0,0,0,.15-.7,1.64,1.64,0,0,0-.16-.72,1.76,1.76,0,0,0-.44-.57,2.1,2.1,0,0,0-.65-.37,2.33,2.33,0,0,0-.81-.14,2.18,2.18,0,0,0-1.42.45A1.45,1.45,0,0,0,351.61,12.26Z"/><path d="M386.64,19.22a3,3,0,0,0,2.26,1.07,2,2,0,0,0,1-.26,2.39,2.39,0,0,0,.83-.81,4.58,4.58,0,0,0,.57-1.4,8.76,8.76,0,0,0,.21-2.05,4.81,4.81,0,0,1-1.16.81,3.08,3.08,0,0,1-1.39.31,3.7,3.7,0,0,1-1.3-.23,3.24,3.24,0,0,1-1.11-.69,3.38,3.38,0,0,1-.78-1.14,4,4,0,0,1-.29-1.58,4.09,4.09,0,0,1,.28-1.51,3.82,3.82,0,0,1,.77-1.23,3.62,3.62,0,0,1,1.2-.83,3.85,3.85,0,0,1,1.56-.31,3.75,3.75,0,0,1,1.5.27,3.18,3.18,0,0,1,1,.72,3.91,3.91,0,0,1,.53.71,4.15,4.15,0,0,1,.39,1,7.53,7.53,0,0,1,.24,1.34q.08.78.08,1.89a11.63,11.63,0,0,1-.32,2.92,5.93,5.93,0,0,1-.89,2,3.57,3.57,0,0,1-1.34,1.15,3.85,3.85,0,0,1-1.68.37,4.22,4.22,0,0,1-1.75-.35,4.83,4.83,0,0,1-1.42-1Zm2.56-3.59a2.57,2.57,0,0,0,1.24-.32,4.45,4.45,0,0,0,1.05-.78V14a4.1,4.1,0,0,0-.62-2.45,2,2,0,0,0-1.66-.83,2.23,2.23,0,0,0-.9.18,2.27,2.27,0,0,0-.72.49,2.23,2.23,0,0,0-.49.77,2.74,2.74,0,0,0-.18,1,2.71,2.71,0,0,0,.19,1,2.35,2.35,0,0,0,.5.77,2.18,2.18,0,0,0,.72.49A2.26,2.26,0,0,0,389.21,15.63Z"/><path d="M416.05,9.57V20.12h2v1.36h-5.93V20.12h2.41v-8.6l-2.26,1.72-.83-1.14,3.49-2.54Z"/><path d="M424.89,9.36a3.54,3.54,0,0,1,1.74.42A3.48,3.48,0,0,1,427.89,11a6.11,6.11,0,0,1,.77,1.94,11.85,11.85,0,0,1,.26,2.61,8.3,8.3,0,0,1-1,4.55,3.39,3.39,0,0,1-3,1.59,3.34,3.34,0,0,1-3-1.62,8.51,8.51,0,0,1-1-4.56,8.3,8.3,0,0,1,1-4.55A3.39,3.39,0,0,1,424.89,9.36Zm0,1.4a2.09,2.09,0,0,0-1,.25,2,2,0,0,0-.78.8,4.59,4.59,0,0,0-.49,1.46,12.46,12.46,0,0,0-.17,2.23,7.92,7.92,0,0,0,.64,3.58,2,2,0,0,0,1.8,1.22,2.07,2.07,0,0,0,1-.25,2,2,0,0,0,.78-.8,4.64,4.64,0,0,0,.49-1.46,12.46,12.46,0,0,0,.17-2.23,7.92,7.92,0,0,0-.64-3.58A2,2,0,0,0,424.87,10.76Z"/><text class="cls-4" transform="translate(65.74 22.2) scale(0.99 1)">0</text></svg>