<svg id="Layer_1" data-name="Layer 1" xmlns="http://www.w3.org/2000/svg" xmlns:xlink="http://www.w3.org/1999/xlink" viewBox="0 0 131.33 87.05"><defs><style>.cls-1{opacity:0.1;}.cls-2{fill:url(#radial-gradient);}.cls-3{fill:url(#linear-gradient);}.cls-4{fill:url(#linear-gradient-2);}</style><radialGradient id="radial-gradient" cx="-129.02" cy="-223.25" r="53.87" gradientTransform="matrix(0.91, 0.4, -0.4, 0.91, 95.1, 289.24)" gradientUnits="userSpaceOnUse"><stop offset="0" stop-color="#fe0010"/><stop offset="1" stop-color="#bf2424"/></radialGradient><linearGradient id="linear-gradient" x1="-146.02" y1="-199.78" x2="-60.6" y2="-199.78" gradientTransform="matrix(0.91, 0.4, -0.4, 0.91, 95.1, 289.24)" xlink:href="#radial-gradient"/><linearGradient id="linear-gradient-2" x1="-191.6" y1="-182.63" x2="-140.18" y2="-182.63" gradientTransform="matrix(0.91, 0.4, -0.4, 0.91, 95.1, 289.24)" xlink:href="#radial-gradient"/></defs><title>rectangular-prism</title><g id="_4" data-name="4"><polygon class="cls-1" points="131.33 42.48 128.35 63.71 31.08 87.05 34.07 65.81 131.33 42.48"/><polygon class="cls-1" points="34.07 65.81 31.08 87.05 0 44.57 2.98 23.34 34.07 65.81"/><polygon class="cls-2" points="131.33 42.48 34.07 65.81 2.98 23.34 100.25 0 131.33 42.48"/></g><polygon class="cls-3" points="131.33 42.48 128.35 63.71 31.08 87.05 34.07 65.81 131.33 42.48"/><polygon class="cls-4" points="34.07 65.81 31.08 87.05 0 44.57 2.98 23.34 34.07 65.81"/><polygon class="cls-1" points="131.33 42.48 128.35 63.71 31.08 87.05 34.07 65.81 131.33 42.48"/><polygon class="cls-1" points="34.07 65.81 31.08 87.05 0 44.57 2.98 23.34 34.07 65.81"/><polygon class="cls-1" points="131.33 42.48 128.35 63.71 31.08 87.05 34.07 65.81 131.33 42.48"/><polygon class="cls-1" points="34.07 65.81 31.08 87.05 0 44.57 2.98 23.34 34.07 65.81"/></svg>