<svg xmlns="http://www.w3.org/2000/svg" xmlns:xlink="http://www.w3.org/1999/xlink" viewBox="0 0 343.62 14.76"><defs><style>.cls-1{isolation:isolate;}.cls-2{fill:url(#radial-gradient);}.cls-3{fill:url(#radial-gradient-2);}.cls-4{fill:none;}.cls-10,.cls-11,.cls-12,.cls-13,.cls-14,.cls-5,.cls-6,.cls-9{mix-blend-mode:screen;}.cls-5{fill:url(#radial-gradient-3);}.cls-6{fill:url(#radial-gradient-4);}.cls-7,.cls-8{mix-blend-mode:multiply;}.cls-7{fill:url(#radial-gradient-5);}.cls-8{fill:url(#radial-gradient-6);}.cls-9{fill:url(#radial-gradient-7);}.cls-10{fill:url(#radial-gradient-8);}.cls-11{fill:url(#radial-gradient-9);}.cls-12{fill:url(#radial-gradient-10);}.cls-13{fill:url(#radial-gradient-11);}.cls-14{fill:url(#radial-gradient-12);}</style><radialGradient id="radial-gradient" cx="-270.3" cy="-29.76" r="260.07" gradientTransform="matrix(1.14, -0.06, 0.06, 1, 194.8, 19.3)" gradientUnits="userSpaceOnUse"><stop offset="0.2" stop-color="#ffcc98"/><stop offset="0.67" stop-color="#ffc830"/><stop offset="0.82" stop-color="#ffa21f"/><stop offset="0.99" stop-color="#ff720a"/></radialGradient><radialGradient id="radial-gradient-2" cx="-97.73" cy="-19.43" r="227.15" xlink:href="#radial-gradient"/><radialGradient id="radial-gradient-3" cx="28.24" cy="-25.1" r="98.37" gradientTransform="matrix(1.14, -0.06, 0.06, 1, 194.8, 19.3)" gradientUnits="userSpaceOnUse"><stop offset="0.01" stop-color="#ffd48d"/><stop offset="0.26" stop-color="#ffb564"/><stop offset="0.6" stop-color="#ff9134"/><stop offset="0.85" stop-color="#ff7a15"/><stop offset="1" stop-color="#ff720a"/></radialGradient><radialGradient id="radial-gradient-4" cx="-126.04" cy="-38.61" r="112.26" gradientTransform="matrix(1.14, -0.06, 0.06, 1, 194.8, 19.3)" gradientUnits="userSpaceOnUse"><stop offset="0.01" stop-color="#ffd48d"/><stop offset="0.22" stop-color="#ffc76c"/><stop offset="0.58" stop-color="#ffb43c"/><stop offset="0.85" stop-color="#ffa81d"/><stop offset="1" stop-color="#ffa412"/></radialGradient><radialGradient id="radial-gradient-5" cx="-88.42" cy="-16.06" r="104.48" gradientTransform="matrix(1.14, -0.06, 0.06, 1, 194.8, 19.3)" gradientUnits="userSpaceOnUse"><stop offset="0.01" stop-color="#ffa412"/><stop offset="1" stop-color="#ffe3ff"/></radialGradient><radialGradient id="radial-gradient-6" cx="61.61" cy="-6.13" r="90.48" xlink:href="#radial-gradient-5"/><radialGradient id="radial-gradient-7" cx="-98.4" cy="-87.12" r="151.8" gradientTransform="matrix(1.14, -0.06, 0.06, 1, 194.8, 19.3)" gradientUnits="userSpaceOnUse"><stop offset="0.01" stop-color="#ffd48d"/><stop offset="0.36" stop-color="#ffc05a"/><stop offset="0.79" stop-color="#ffaa20"/><stop offset="1" stop-color="#ffa10a"/></radialGradient><radialGradient id="radial-gradient-8" cx="52.77" cy="-65.27" r="128.9" xlink:href="#radial-gradient-7"/><radialGradient id="radial-gradient-9" cx="-186.41" cy="-7.45" r="169.36" gradientTransform="matrix(1.14, -0.06, 0.06, 1, 194.8, 19.3)" gradientUnits="userSpaceOnUse"><stop offset="0" stop-color="#ffa412"/><stop offset="0.45" stop-color="#ff8c0e"/><stop offset="1" stop-color="#ff720a"/></radialGradient><radialGradient id="radial-gradient-10" cx="-23.95" cy="0.34" r="147.53" xlink:href="#radial-gradient-9"/><radialGradient id="radial-gradient-11" cx="28.25" cy="-27.45" r="98.49" xlink:href="#radial-gradient-3"/><radialGradient id="radial-gradient-12" cx="-125.06" cy="-40.13" r="113.14" xlink:href="#radial-gradient-4"/></defs><title>balance</title><g class="cls-1"><g id="Layer_1" data-name="Layer 1"><path class="cls-2" d="M1.33,1.16,0,1.23v.25l.11,2,1.33-.07.21,3.84L.33,7.31l.32,5.74.09,1.71,183.8,0c-.75-4.48-1.5-9-2.11-13.46Z"/><path class="cls-3" d="M341.21.09,182.44,1.28c.61,4.5,1.36,9,2.11,13.46l159.07-1.2-.09-1.71-.32-5.74-1.67.09-.21-3.84L343,2.24l-.11-2V0Z"/><path class="cls-4" d="M1.33,1.16v.25l181.13.12,0-.25Z"/><path class="cls-4" d="M341.21.09,182.44,1.28l0,.25L341.22.35Z"/><path class="cls-5" d="M342.62,1.18,182.18,2.45l0,.25L342.63,1.43Z"/><path class="cls-6" d="M0,1.55v.25l182.46,0,0-.25Z"/><path class="cls-7" d="M.63,12.61l.09,1.71,183.75,0-.29-1.7Z"/><path class="cls-8" d="M343.5,11.38,184.19,12.6l.29,1.7L343.6,13.09Z"/><path class="cls-9" d="M0,2,.19,4.72l182.74,0q-.2-1.35-.39-2.71Z"/><path class="cls-10" d="M342.92.76,182.54,2q.19,1.36.39,2.71L343.07,3.49Z"/><path class="cls-11" d="M.33,7.31l.32,5.74,183.61,0q-.48-2.85-.93-5.71Z"/><path class="cls-12" d="M343.21,6.08,183.33,7.32q.45,2.86.93,5.71l159.26-1.21Z"/><path class="cls-13" d="M341.33,2.33,182.75,3.5q.28,1.91.58,3.82L341.54,6.17Z"/><path class="cls-14" d="M1.46,3.39l.21,3.84,181.66.09q-.3-1.91-.58-3.82Z"/></g></g></svg>