<svg id="Layer_1" data-name="Layer 1" xmlns="http://www.w3.org/2000/svg" xmlns:xlink="http://www.w3.org/1999/xlink" viewBox="0 0 75.79 76.34"><defs><style>.cls-1,.cls-3,.cls-5{stroke:#8c4732;stroke-miterlimit:10;}.cls-1{fill:url(#linear-gradient);}.cls-2{fill:url(#radial-gradient);}.cls-3{fill:url(#linear-gradient-2);}.cls-4{fill:url(#linear-gradient-3);}.cls-5{fill:url(#linear-gradient-4);}.cls-6{fill:url(#linear-gradient-5);}</style><linearGradient id="linear-gradient" x1="-51.05" y1="-538.88" x2="7.01" y2="-538.88" gradientTransform="translate(-519.05 68.7) rotate(90) scale(1.02 1.02)" gradientUnits="userSpaceOnUse"><stop offset="0" stop-color="#d05400"/><stop offset="0.36" stop-color="#e75c00"/><stop offset="0.72" stop-color="#f86100"/><stop offset="1" stop-color="#fe6300"/></linearGradient><radialGradient id="radial-gradient" cx="-22.02" cy="-538.88" r="31.55" gradientTransform="translate(-519.05 68.7) rotate(90) scale(1.02 1.02)" gradientUnits="userSpaceOnUse"><stop offset="0" stop-color="#fe6300"/><stop offset="1" stop-color="#d65700"/></radialGradient><linearGradient id="linear-gradient-2" x1="-66.71" y1="-517.97" x2="-46.98" y2="-515.55" gradientTransform="translate(-478.82 66.09) rotate(90)" xlink:href="#linear-gradient"/><linearGradient id="linear-gradient-3" x1="-65.92" y1="-517.87" x2="-47.71" y2="-515.64" gradientTransform="translate(-478.82 66.09) rotate(90)" xlink:href="#linear-gradient"/><linearGradient id="linear-gradient-4" x1="-28.75" y1="-555.84" x2="-27.12" y2="-535.04" gradientTransform="translate(-478.82 66.09) rotate(90)" xlink:href="#linear-gradient"/><linearGradient id="linear-gradient-5" x1="-28.68" y1="-554.9" x2="-27.19" y2="-535.95" gradientTransform="translate(-478.82 66.09) rotate(90)" xlink:href="#linear-gradient"/></defs><title>box-click</title><rect class="cls-1" x="0.5" y="16.66" width="59.17" height="59.18" rx="1.04" ry="1.04"/><rect class="cls-2" x="1.54" y="17.7" width="57.09" height="57.11"/><path class="cls-3" d="M1.54,18.74A1,1,0,0,1,.79,17L16.41.82A1,1,0,0,1,17.16.5H74.25A1,1,0,0,1,75,2.26L59.37,18.42a1,1,0,0,1-.75.32Z"/><polygon class="cls-4" points="17.16 1.54 1.54 17.7 58.63 17.7 74.25 1.54 17.16 1.54"/><path class="cls-5" d="M58.63,75.84a1,1,0,0,1-1-1V17.7a1,1,0,0,1,.29-.72L73.5.82a1,1,0,0,1,1.78.72V58.64a1,1,0,0,1-.29.72L59.37,75.53A1,1,0,0,1,58.63,75.84Z"/><polygon class="cls-6" points="74.25 1.54 58.63 17.7 58.63 74.81 74.25 58.64 74.25 1.54"/></svg>