<svg id="Layer_1" data-name="Layer 1" xmlns="http://www.w3.org/2000/svg" viewBox="0 0 520.24 170.72"><defs><style>.cls-1{fill:#2f3232;}.cls-2{fill:#f7b318;}.cls-3{fill:#e73f00;}</style></defs><title>python1s</title><path class="cls-1" d="M511.55,73.3C502.28,45.79,519.26,0,519.26,0,504,14.58,493.68,56.67,499.08,84.75c3.66,19-.73,49.5-26.57,49.5-2,0-22.91,3.17-27.3,3-7.16-.27,9.35,1.2,9.09,3-.59,4,19.73,1.63,19.19,3-.36.93,10.81,10.24,19.17,6.67C535.56,131.58,517,89.45,511.55,73.3Z"/><path class="cls-2" d="M511.42,101.57c1.67,3.86-3.06,9.91-4.89,13.45s-4.69,13.56-6.81,11.53c-1.58-1.52.52-10.24,2.61-17.5a75.23,75.23,0,0,0,2.44-7.82C506.83,96.27,509.87,98,511.42,101.57Z"/><path class="cls-2" d="M506.42,45.07c1.67,3.86-.06,9.91-1.89,13.45s3.31,13.56,1.19,11.53c-1.58-1.52-7.48-10.24-5.39-17.5a75.23,75.23,0,0,0,2.44-7.82C507.51,35.5,504.87,41.5,506.42,45.07Z"/><path class="cls-3" d="M3.13,34.86s-.22.62-.44-.06c-.84-2.63-4-3.83-2.11-11C2.09,17.92,7.29,16.85,9.17,18Z"/><path class="cls-3" d="M19.6,39s10.49,1.24,10.88-6.61c.55-11-7.61-8.73-7.61-8.73Z"/><path class="cls-1" d="M18.29,146.23c-3.71-2.93-8.87-13.79-12.15-28.44-1.78-8-3.38-15.29-3.35-26.6,0-8-.65-16.28.2-24.52.77-7.42.22-12.1,0-17.57-.73-17.85-.32-21.63,3.07-28C14.26,5.75,19-.57,22,.44c3.42,1.14,3.24,8.81,4.69,27.19,1.07,13.61-5.17,28.94-5.17,28.94s.73,1.18.24,11.94c-.28,6.08,1.13,13.84,2.43,21.69,1.34,8.08,4.12,17.05,5.51,24.57,2,11,12.26,17.94,15.62,20.87-.58-.25-18.8,7.42-19.41,7.26C25.06,140.16,25.36,150.83,18.29,146.23Z"/><path class="cls-2" d="M21.72,105.44c-1.94,9.05-9.7,9.19-10.36-7.16-.67-16.59-3.67-21-2.42-26,1.82-7.17,5.89-3.45,6,2.09S24.43,92.77,21.72,105.44Z"/><path class="cls-1" d="M351,138.75c-42,4-61.57,5.88-92.42,3.33-22.78-1.88-21.19-1.26-44-.5-10,.33-33.67-2.33-46.5-1.25-4.83.41-9.7,1.74-14.5,1.42-5.74-.39-15.26,1.94-21,1.67-7.84-.37-23-1.65-30.83-2.5-9.71-1.06-26,.28-38.67.5-9.5.17-23.83-8.83-28.08-15.17-1.22,3.5-10.3,6.25-9.75,10C26,141,12.94,139.22,17,145c2,2.83,13.5,15.75,37.92,20.92,2.21.47,7.31,1,9.5,1.33s7.67-.18,9.83-.17c10.88,0,9.37,1,20.17,2.67,7.64,1.17,14.49,0,22.17.83,3.88.44,11-.29,14.83-.5,3.13-.17,10.59.6,13.67,0,8.19-1.59,19.24-.12,27.5-1,27.39-2.91,45.72,3.38,73.13,1,28.87-2.5,46.79,1.41,74.37-.5,23.76-1.65,35.67.17,54.17-1.33,6.11-.5,19.84-.5,26-.5,8,0,26.15-.37,29.5-.5,13-.5,28.35-1.33,38.5-3,11.76-1.94,37.26-15.38,45-29.75,3.5-6.5-25.6,10.09-25.41,9.13.35-1.7-.86-3.21-2-4.32-5.57-5.65,13.49-2.2,9-6.73-1.57-1.59,3-10.7,1-10-5.67,2-14.92,8.92-27.17,11.17a204.8,204.8,0,0,1-34,3c-7.08.08-13.32-.83-26.5,1C394.43,139.67,362.26,139.5,351,138.75Z"/><path class="cls-2" d="M309.36,154.07c-.41-.91-4.43-1.16-7.07,2.83-.05.08-.17.09-.21.26-.47,2.06-3.7,2.7-.1,6.2,1.61,1.56-1.39,4.23,3.39,6.75.08,0,.12.11.18,0C306.82,168.65,335.26,170.58,309.36,154.07Z"/><path class="cls-2" d="M460.27,138.42c.08-1-7.37-1.34-7.58,2.62,0,.17-.18.08-.22.24a9.89,9.89,0,0,0-.1,5.74C455.05,155,482.44,156.8,460.27,138.42Z"/><path class="cls-2" d="M10.94,53.28c-.16-.3-2.18,0-2.72.94,0,0-.06,0-.08.09-.18.68,2.75,1.38,3,2.06.08.24.34,1.89,1.31,2.24h.07C14.14,59,19,58.44,10.94,53.28Z"/><path class="cls-2" d="M383.06,140.11c2.13,0,14.94,14.81,11.86,22-4.63,10.8-17.69-1.63-27.79-7.19S372,140,383.06,140.11Z"/><path class="cls-2" d="M166.69,148.46a139.35,139.35,0,0,0-14.34-4.37c-1.79-.41-3.54,1.12-4.53,3.93-2.06,5.82-7.72,11-2.59,18.72,4.15,6.21,18.46-1.61,26-.2S177.5,158.16,166.69,148.46Z"/><path class="cls-2" d="M87.48,148.66c-.11-.18-7.74-3.15-13.15-7.28-1.66-1.27-3.55-.7-4.89,1.44-2.77,4.44-8.95,2.65-5.06,12.37,3.14,7.87,17.94,7.61,25,12.64S96.54,163.08,87.48,148.66Z"/><path class="cls-2" d="M268.1,157c0,3.26-.6,9.34-3.53,10.85-1.73.89-6.71-2.36-9.07-1.19-5.83,2.88-12.23-4.45-12.23-9.66s7.89-9.44,13.92-9.44S268.1,151.83,268.1,157Z"/><path class="cls-2" d="M491.47,128.53c.11-1.15-9.77-1.56-10,3.05a12.27,12.27,0,0,1-.29,1.28c-.67,2.22-1,3.52-.14,5.7C485.91,151.44,516.9,145.35,491.47,128.53Z"/><path class="cls-2" d="M47.32,142.62c-.11-.18-7.78-7.19-13.2-11.4-1.66-1.29-3.57-.7-4.93,1.51-2.81,4.57-9,6.77-5.17,16.74,3.11,8.06,18,7.7,25.07,12.83S56.35,157.38,47.32,142.62Z"/><path class="cls-2" d="M17.82,136.73a25.4,25.4,0,0,1-4.31-.39c-.58-.83-7.5-18.92-3.08-18.9C16.47,117.46,20.76,135.22,17.82,136.73Z"/></svg>