<svg id="Layer_1" data-name="Layer 1" xmlns="http://www.w3.org/2000/svg" viewBox="0 0 270.26 221.26"><defs><style>.cls-1{fill:#31331c;}.cls-2{fill:#525731;}.cls-3{fill:#ff7add;}.cls-4{fill:#66f;}</style></defs><title>butterfly dots4</title><path class="cls-1" d="M270.26,12.79c0-.35,0-.69,0-1v-.05a10,10,0,0,0-.91-4.84l0-.07c-.13-.3-.26-.59-.42-.87l0,0c-2.56-4.6-7.5-6.66-14.23-5.82a73.5,73.5,0,0,0-24.38,8.06c-5.87,3.27-17.51,10.59-21.74,13.67-5.35,3.89-44.12,42-49,48.14-7.07,8.93-15,23.09-18.43,33a4.38,4.38,0,0,0-.76-.7,10,10,0,0,0,3.07-7.43,10.81,10.81,0,0,0-1.23-5.08,2.24,2.24,0,0,0,.66-1.58,2.31,2.31,0,0,0-2.34-2.28,2.33,2.33,0,0,0-1.49.56l-.11-.05a47.57,47.57,0,0,0,2.24-4.52c2.45-5.67,5.1-11.24,7.7-16.84a69.71,69.71,0,0,0,2.68-7.56c4.25-1.74,6.49-6.91,8.36-10.69,1.3-3.45,1.73-8.29-2.53-3.33-4.12,4.19-5.67,10-7.35,15.5-1.56,5.64-4.47,10.74-6.81,16.06-1.71,3.68-3.17,7.47-4.79,11.19a5.88,5.88,0,0,0-2.25-.49,5.81,5.81,0,0,0-1,.09,5.81,5.81,0,0,0-1-.09,5.88,5.88,0,0,0-2.25.49c-1.61-3.72-3.08-7.51-4.79-11.19-2.34-5.32-5.25-10.42-6.81-16.06-1.67-5.46-3.23-11.31-7.35-15.5-4.26-5-3.82-.12-2.53,3.33,1.86,3.78,4.11,8.95,8.36,10.69a69.74,69.74,0,0,0,2.68,7.56c2.61,5.59,5.26,11.17,7.7,16.84a47.57,47.57,0,0,0,2.24,4.52l-.11.05a2.33,2.33,0,0,0-1.49-.56,2.31,2.31,0,0,0-2.34,2.28,2.24,2.24,0,0,0,.66,1.58,10.81,10.81,0,0,0-1.23,5.08,10,10,0,0,0,3.07,7.43,4.36,4.36,0,0,0-.76.7c-3.47-9.89-11.36-24.05-18.43-33-4.87-6.15-43.65-44.25-49-48.14C57.55,18.84,45.91,11.52,40,8.24A73.5,73.5,0,0,0,15.66.18C8.93-.66,4,1.41,1.42,6l0,0c-.15.28-.28.57-.42.87l0,.07A10,10,0,0,0,0,11.75v.05c0,.3,0,.64,0,1,0,0,0,.07,0,.11H0c0,.22,0,.43,0,.67a28.09,28.09,0,0,0,1.36,8.88l.1.32q.21.66.47,1.38l.12.35h0c.75,2.05,1.76,4.46,3.1,7.47l.56,1.27c.71,1.58,1.33,3,1.91,4.31h0c.44,1,.85,2,1.24,2.9h0l.32.79h0l.09.22c.95,2.33,1.76,4.51,2.56,6.84h0c.34,1,.68,2,1,3.11h0l.23.71h0l.49,1.56h0l.52,1.66.08.27c.34,1.12.68,2.3,1,3.51l.24.9c.46,1.72.92,3.54,1.37,5.41h0c.55,2.31,1.1,4.73,1.63,7.28.35,1.7.69,3.45,1,5.25h0l.06.32q.66,3.51,1.28,7.27c.11.64.21,1.26.32,1.9q.42,2.62.83,5.35l.07.45h0c0,.19.05.37.08.55h0a21.19,21.19,0,0,0,2.42,7.48,24.5,24.5,0,0,0,3.09,4.82l.2.24q.38.44.78.85l.37.38q.44.43.92.83l.2.18h0c2.9,2.38,6.69,4.07,12.14,5.6,5.17,1.45,5.56,1.5,14.27,1.71,7.83.19,9.08.13,9.92-.46s4.09-.95,4.09-.35a46.06,46.06,0,0,1-6.26,3.41,100.75,100.75,0,0,0-12.1,7.17c-6.46,4.5-8.15,5.45-12.58,7-.74.27-1.35.5-1.91.72l-.22.09-.75.31-.29.13-.55.26-.32.17-.4.22-.38.24-.25.17q-.29.21-.56.45h0a14.3,14.3,0,0,0-1.25,1.24c-.14.15-.26.35-.4.52-.26.32-.52.64-.77,1s-.32.52-.48.78-.42.7-.62,1.08-.26.53-.39.8c-.2.43-.4.88-.58,1.33-.1.25-.2.49-.29.75-.19.54-.37,1.08-.53,1.64,0,.15-.1.28-.14.43h0a27.24,27.24,0,0,0-.94,5.64h0c0,.44,0,.89,0,1.33s0,1.19.07,1.85c0,.15,0,.3,0,.46q.08.93.2,1.93l0,.13a55.69,55.69,0,0,0,1.91,9.07l0,.08a62.12,62.12,0,0,0,2.61,6.22l0,.09.51,1.06.11.23.33.67h0l.16.31a75.82,75.82,0,0,1,3.34,7.25h0c.17.45.32.88.46,1.3l0,.12c.13.39.24.77.34,1.14l.06.24c.09.34.16.68.22,1,0,.1,0,.19,0,.29a12.37,12.37,0,0,1,.14,1.38c0,.22,0,.43,0,.65s0,.31,0,.47,0,.49-.06.73,0,.29-.07.43-.09.49-.15.74-.07.28-.11.42c-.7,2.37-2.26,4.76-4.72,7.89-5.9,7.52-13,18.37-13,19.91,0,2.56,2.75,1,9.7-5.52,4.35-4.08,6.4-5.85,8.31-6.6a6.67,6.67,0,0,1,.73-.24l.2-.05a12.38,12.38,0,0,1,2.85-.25,13,13,0,0,1,3.07.27H45a6.3,6.3,0,0,1,.73.24l.13.05a6.67,6.67,0,0,1,.69.33l.15.09c.23.14.47.29.71.46l.13.1c.26.19.53.4.82.65h0c.31.27.65.56,1,.89h0l.92.86a24.3,24.3,0,0,0,2,1.68h0l.2.14q.7.53,1.42,1l.49.31q.78.47,1.59.87l.25.14a24.83,24.83,0,0,1,2.55,1.45,23.39,23.39,0,0,1,3,2.22c4.62,4.22,6.13,4.87,8.25,3.57,1.35-.84,3.32-3.58,5.05-7a12.73,12.73,0,0,1,2.4-3.43,9.89,9.89,0,0,1,1.29-1.09l.09-.05a11.1,11.1,0,0,1,1.41-.81l.4-.18a15.17,15.17,0,0,1,1.45-.56l.37-.12c.66-.2,1.36-.38,2.12-.54l.61-.15.77-.19.62-.19.81-.28.47-.18q.52-.22,1-.46l.18-.09a11.85,11.85,0,0,0,1.12-.67h0a8.65,8.65,0,0,0,2-1.87,55.46,55.46,0,0,0,5-10.38,63.88,63.88,0,0,0,1.5-7.45c1.38-9.13,2.7-12.86,7-19.93.92-1.5,3.37-6,5.44-10a96.81,96.81,0,0,1,10.65-17,51.59,51.59,0,0,0,4.76-7.75,12.33,12.33,0,0,0,.54,1.32l.47,1-.6.61a5.59,5.59,0,0,0-1.45,2.78,14.62,14.62,0,0,0-.68,5.12c0,1.94,0,2.24.31,2.92a1.85,1.85,0,0,0,.42.75c.21,0,.13.36-.18.88a2.61,2.61,0,0,0-.29,1.61,4.32,4.32,0,0,0,1.38,3.28l.68.8-.34.46a6.38,6.38,0,0,0,.34,7.46l.38.32-.46.6c-1,1.36-.86,2.54.6,3.79.6.51.6.26.05,2.18a3.71,3.71,0,0,0-.13,1.51,5,5,0,0,0,1,2.5,2.42,2.42,0,0,1,.29,2.56,3.89,3.89,0,0,0-.23,2.6c.94,2.43,1.36,4,3.87,4.64l1.75-.18.91-.29.91.29,1.75.18c2.52-.6,2.93-2.21,3.87-4.64a3.89,3.89,0,0,0-.23-2.6,2.42,2.42,0,0,1,.29-2.56,5,5,0,0,0,1-2.5,3.7,3.7,0,0,0-.13-1.51c-.55-1.92-.55-1.67.05-2.18,1.46-1.25,1.64-2.43.6-3.79l-.46-.6.38-.32a6.38,6.38,0,0,0,.34-7.46l-.34-.46.68-.8a4.32,4.32,0,0,0,1.38-3.28,2.61,2.61,0,0,0-.29-1.61c-.31-.52-.38-.88-.18-.88a1.86,1.86,0,0,0,.42-.75c.27-.68.3-1,.31-2.92a14.63,14.63,0,0,0-.68-5.12,5.59,5.59,0,0,0-1.45-2.78l-.6-.61.47-1a12.33,12.33,0,0,0,.54-1.32,51.58,51.58,0,0,0,4.76,7.75,96.81,96.81,0,0,1,10.65,17c2.08,4,4.53,8.53,5.44,10,4.33,7.07,5.64,10.8,7,19.93a63.88,63.88,0,0,0,1.5,7.45,55.45,55.45,0,0,0,5,10.38,8.62,8.62,0,0,0,2,1.86h0a11.87,11.87,0,0,0,1.13.67l.18.08q.48.24,1,.46l.47.18.81.28.62.19.77.19.61.15c.76.16,1.46.34,2.12.54l.37.12a15.09,15.09,0,0,1,1.45.56l.4.18a11.1,11.1,0,0,1,1.41.81l.09.05a9.91,9.91,0,0,1,1.29,1.09,12.73,12.73,0,0,1,2.4,3.43c1.73,3.46,3.7,6.21,5.05,7,2.12,1.31,3.63.66,8.25-3.57a23.35,23.35,0,0,1,3-2.21,24.87,24.87,0,0,1,2.57-1.46l.25-.14q.82-.4,1.59-.87l.49-.31q.72-.46,1.42-1l.2-.14h0a24.27,24.27,0,0,0,2-1.67l.92-.86h0c.36-.33.69-.62,1-.89h0c.29-.24.56-.45.82-.65l.13-.09c.24-.17.48-.33.71-.46l.15-.08a6.69,6.69,0,0,1,.69-.33l.13-.05a6.31,6.31,0,0,1,.74-.24h.06a13,13,0,0,1,3.07-.27,12.38,12.38,0,0,1,2.85.25l.2.05a6.65,6.65,0,0,1,.73.24c1.92.76,4,2.53,8.31,6.6,7,6.52,9.7,8.08,9.7,5.52,0-1.53-7.08-12.39-13-19.91-2.46-3.13-4-5.52-4.72-7.89,0-.14-.08-.28-.11-.41s-.11-.5-.16-.75-.05-.29-.07-.43,0-.48-.06-.73,0-.31,0-.47,0-.42,0-.63a12.35,12.35,0,0,1,.15-1.39c0-.09,0-.19,0-.28.06-.33.14-.66.22-1l.06-.24q.15-.56.34-1.14l0-.12c.14-.42.29-.85.46-1.3h0a75.54,75.54,0,0,1,3.34-7.25l.16-.31h0l.33-.67.11-.23.49-1,.06-.12a62.15,62.15,0,0,0,2.6-6.21l0-.08a55.66,55.66,0,0,0,1.9-9.07l0-.14q.12-1,.2-1.93c0-.16,0-.31,0-.46,0-.66.08-1.29.07-1.84s0-.88,0-1.33h0a27.24,27.24,0,0,0-.94-5.64h0c0-.15-.1-.28-.14-.43-.16-.56-.34-1.11-.53-1.64-.09-.25-.19-.5-.29-.74-.18-.46-.38-.9-.58-1.33-.13-.27-.26-.54-.39-.8s-.41-.73-.62-1.08-.31-.53-.48-.78-.51-.68-.77-1c-.14-.17-.26-.36-.4-.52a14.3,14.3,0,0,0-1.25-1.24h0c-.18-.16-.37-.31-.57-.45l-.25-.17-.37-.24-.4-.23-.32-.17-.55-.26-.29-.13-.75-.31-.23-.09-1.05-.4h0l-.86-.31c-4.42-1.59-6.12-2.54-12.58-7a100.75,100.75,0,0,0-12.1-7.17,46.06,46.06,0,0,1-6.26-3.41c0-.6,3.12-.33,4.09.35s2.08.65,9.92.46c8.71-.21,9.1-.26,14.27-1.71,5.44-1.53,9.24-3.22,12.14-5.6h0l.2-.18q.48-.4.92-.83l.36-.37q.41-.41.79-.86l.2-.24a24.51,24.51,0,0,0,3.09-4.82,21.19,21.19,0,0,0,2.42-7.48h0c0-.18.05-.36.08-.55h0l.07-.45q.41-2.73.83-5.35c.1-.65.21-1.26.32-1.9q.63-3.76,1.28-7.28l.06-.31h0c.34-1.8.68-3.56,1-5.25.53-2.55,1.07-5,1.63-7.28h0c.45-1.89.91-3.71,1.37-5.43l.23-.87c.33-1.21.67-2.39,1-3.51l.09-.3.51-1.63h0l.49-1.56h0l.23-.71h0c.35-1.09.69-2.12,1-3.11h0c.79-2.33,1.61-4.5,2.55-6.83l.09-.23h0l.32-.79h0c.38-.92.79-1.88,1.23-2.9h0c.58-1.33,1.2-2.73,1.91-4.31l.55-1.24c1.35-3,2.36-5.43,3.11-7.49h0l.12-.36q.25-.71.47-1.37l.1-.32a28.08,28.08,0,0,0,1.36-8.87c0-.25,0-.45,0-.67h0S270.26,12.83,270.26,12.79Z"/><path class="cls-2" d="M202.11,220.26a2.48,2.48,0,0,1-1.3-.46c-1-.61-2.81-2.9-4.68-6.64a13.73,13.73,0,0,0-2.6-3.69,10.76,10.76,0,0,0-1.42-1.2l-.12-.07a12,12,0,0,0-1.51-.87l-.34-.16-.09,0a16.06,16.06,0,0,0-1.54-.6l-.38-.13c-.73-.22-1.46-.41-2.21-.57l-.32-.08-.25-.07-.74-.18-.55-.17-.79-.27-.44-.17q-.49-.2-.94-.43l-.11-.05a10.74,10.74,0,0,1-1-.6l-.08-.06a7.65,7.65,0,0,1-1.79-1.64A54.54,54.54,0,0,1,174,192a64,64,0,0,1-1.46-7.28c-1.41-9.29-2.75-13.09-7.16-20.3-.9-1.47-3.33-5.94-5.41-10a97.88,97.88,0,0,0-10.73-17.17,50.11,50.11,0,0,1-4.66-7.59l-1.08-2.17-.76,2.3a11.37,11.37,0,0,1-.5,1.22l-.76,1.65,1.08,1.1a4.65,4.65,0,0,1,1.21,2.37,13.69,13.69,0,0,1,.63,4.83c0,1.91,0,2.06-.23,2.55-.05.14-.11.25-.15.33a1.09,1.09,0,0,0-.31.34,1.85,1.85,0,0,0,.28,1.83c.11.19.16.26.16,1.1,0,1-.14,1.43-1.15,2.64l-1.18,1.41.82,1.09a5,5,0,0,1,.79,3.64,5.24,5.24,0,0,1-1,2.46l-1.11.93,1,1.36c.62.81.72,1.41-.46,2.42l-.14.11c-.91.74-.74,1.34-.36,2.65l.13.45a2.73,2.73,0,0,1,.09,1.12,4,4,0,0,1-.82,2.09,3.39,3.39,0,0,0-.38,3.41,3,3,0,0,1,.22,2l-.2.51c-.77,2-1.13,3-2.8,3.42l-1.47-.15-1.12-.35-1.12.35-1.48.15c-1.67-.45-2-1.4-2.8-3.42l-.19-.51a3,3,0,0,1,.22-2,3.39,3.39,0,0,0-.38-3.41,4,4,0,0,1-.82-2.09,2.72,2.72,0,0,1,.09-1.12l.13-.45c.38-1.31.56-1.91-.36-2.65l-.14-.11c-1.18-1-1.08-1.61-.46-2.42l1-1.36-1.12-.93a5.26,5.26,0,0,1-1-2.46,5,5,0,0,1,.79-3.63l.83-1.1-1.19-1.41c-1-1.21-1.14-1.63-1.14-2.64,0-.83,0-.9.15-1.09a1.85,1.85,0,0,0,.28-1.84,1.09,1.09,0,0,0-.31-.35c0-.08-.09-.19-.15-.33-.2-.49-.23-.64-.24-2.55a13.67,13.67,0,0,1,.63-4.83,4.64,4.64,0,0,1,1.21-2.37l1.08-1.1-.76-1.65a11.46,11.46,0,0,1-.5-1.22l-.76-2.3-1.08,2.17A50.21,50.21,0,0,1,121,137.3a97.79,97.79,0,0,0-10.73,17.17c-2.08,4-4.51,8.49-5.41,10-4.41,7.21-5.75,11-7.16,20.3A64,64,0,0,1,96.21,192,54.44,54.44,0,0,1,91.4,202.1a7.65,7.65,0,0,1-1.79,1.65l-.11.08c-.32.21-.63.39-.94.55l-.18.09c-.29.15-.6.29-.92.42l-.4.16-.8.28-.59.19-.66.17-.35.09-.31.08c-.75.16-1.48.34-2.21.57l-.38.13a16.25,16.25,0,0,0-1.55.6l-.1,0-.33.15a11.88,11.88,0,0,0-1.53.88l-.09.05a10.79,10.79,0,0,0-1.43,1.21,13.74,13.74,0,0,0-2.59,3.69c-1.87,3.75-3.7,6-4.68,6.64a2.47,2.47,0,0,1-1.3.46c-1.07,0-2.63-1.06-5.75-3.91A24.23,24.23,0,0,0,59.27,214a25.27,25.27,0,0,0-2.67-1.51l-.25-.13c-.51-.25-1-.53-1.51-.82l-.46-.29c-.46-.3-.92-.61-1.36-.95l-.19-.14A23.12,23.12,0,0,1,51,208.57l-.94-.87-1.23-1.13v0c-.24-.2-.46-.37-.68-.53L48,206q-.39-.28-.78-.51l-.18-.1a7.77,7.77,0,0,0-.78-.38l-.12,0a7.67,7.67,0,0,0-.89-.29l-.1,0a13.66,13.66,0,0,0-3.28-.29,13.56,13.56,0,0,0-3.08.27l-.24.06a7.65,7.65,0,0,0-.83.27c-2.13.84-4.27,2.72-8.63,6.81-5.31,5-7.29,6.18-8,6.38,0,0,0-.08,0-.13.21-1.37,6.47-11.26,12.77-19.29,2.37-3,4.11-5.57,4.89-8.22,0-.15.09-.3.13-.46s.12-.54.17-.81l0-.1c0-.13,0-.25.06-.38s.05-.53.07-.8v-.15c0-.12,0-.24,0-.36s0-.35,0-.53v-.17a13.32,13.32,0,0,0-.16-1.49l0-.3c-.06-.35-.15-.71-.24-1.07l-.06-.25c-.1-.39-.22-.78-.35-1.19l0-.12c-.14-.43-.3-.88-.48-1.34a75,75,0,0,0-3.38-7.35l-.56-1.12-.54-1.12a61.13,61.13,0,0,1-2.6-6.18,55.3,55.3,0,0,1-1.89-9l0-.13c-.08-.66-.15-1.29-.19-1.89l0-.45c0-.63-.07-1.24-.07-1.77,0-.21,0-.42,0-.64h0l0-.64a26.09,26.09,0,0,1,.91-5.43l.06-.22.06-.18c.16-.54.33-1.07.51-1.58.09-.25.18-.48.28-.72.18-.44.36-.86.56-1.28s.25-.53.37-.77.39-.69.59-1l.13-.21c.11-.18.21-.36.33-.53.22-.33.47-.62.71-.92l.21-.27a2.62,2.62,0,0,1,.16-.21,13.14,13.14,0,0,1,1.16-1.16c.16-.14.33-.28.5-.4l.23-.15.33-.21.36-.2.29-.16.52-.25.27-.12.73-.3.17-.07,1.94-.73c4.5-1.61,6.3-2.62,12.81-7.16a100,100,0,0,1,12-7.09C71.5,116,71.5,115.72,71.5,115c0-.5-.27-1.33-2.08-1.33a7.36,7.36,0,0,0-3.58.86c-.35.24-1,.37-3.6.37-1.23,0-2.89,0-5.72-.1-8.67-.21-8.93-.24-14-1.67-5.46-1.53-9.09-3.2-11.77-5.41l-.19-.16c-.3-.26-.59-.52-.87-.79l-.35-.35q-.39-.4-.75-.81l-.19-.22a23.51,23.51,0,0,1-3-4.63,20.2,20.2,0,0,1-2.33-7.2l-.15-1q-.41-2.74-.83-5.36l-.32-1.91c-.42-2.5-.84-4.91-1.27-7.19l-.08-.42c-.34-1.8-.68-3.57-1-5.27-.41-2-.85-4-1.34-6.08h0l-.29-1.23c-.48-2-.93-3.8-1.37-5.44l-.24-.9c-.31-1.13-.62-2.22-.94-3.28h0l-.67-2.18L13.78,51c-.34-1.05-.67-2.06-1-3l-.52-1.52h0c-.64-1.81-1.31-3.55-2.05-5.38l-.34-.84h0L9.79,40c-.38-.93-.8-1.89-1.24-2.91L8,35.79H8c-.41-.93-.85-1.91-1.33-3l-.55-1.26C4.68,28.42,3.7,26.07,3,24.15l-.16-.45q-.23-.64-.42-1.23l-.09-.31A27,27,0,0,1,1,13.57v-.78c0-.35,0-.68,0-1a9.09,9.09,0,0,1,.82-4.49l.07-.14L2,7l.3-.48C4.29,2.9,7.94,1,12.83,1a22,22,0,0,1,2.71.18,73,73,0,0,1,24,7.94C45.44,12.4,57,19.65,61.19,22.72c5.25,3.81,44,41.91,48.8,48,7,8.8,14.83,22.86,18.27,32.69l.57,1.64,1.13-1.32a3.39,3.39,0,0,1,.59-.54l1-.73-.92-.83a9,9,0,0,1-2.73-6.69A9.82,9.82,0,0,1,129,90.28l.35-.65-.52-.52a1.25,1.25,0,0,1-.37-.88,1.31,1.31,0,0,1,1.34-1.28,1.33,1.33,0,0,1,.85.33l.52.43.52-.28.59-.24a4.88,4.88,0,0,1,1.87-.42,4.77,4.77,0,0,1,.81.08l.17,0,.17,0a4.75,4.75,0,0,1,.81-.08,4.88,4.88,0,0,1,1.87.42l.68.28.4.18.55-.37a1.33,1.33,0,0,1,.85-.33,1.31,1.31,0,0,1,1.34,1.28,1.25,1.25,0,0,1-.37.88l-.52.52.35.65a9.81,9.81,0,0,1,1.11,4.61,9,9,0,0,1-2.73,6.69l-.92.83,1,.73a3.39,3.39,0,0,1,.59.54l1.13,1.32.57-1.64c3.45-9.83,11.3-23.89,18.27-32.69,4.79-6,43.55-44.14,48.8-48,4.23-3.07,15.75-10.32,21.63-13.6a73,73,0,0,1,24-7.94A22,22,0,0,1,257.44,1C262.33,1,266,2.9,268,6.49l.52.94a9,9,0,0,1,.77,4.34c0,.35,0,1.47,0,1.47v.34a27,27,0,0,1-1.32,8.58l-.1.32c-.14.43-.29.87-.46,1.33l-.13.34c-.71,1.94-1.66,4.23-3.08,7.43l-.55,1.24c-.48,1.06-.92,2-1.33,3h0l-.58,1.35c-.44,1-.86,2-1.24,2.91L260,41.12h0c-.68,1.68-1.3,3.28-1.89,4.93v0L257.47,48c-.34,1-.68,2-1,3.13l-.35,1.1h0l-1,3.25h0c-.33,1.09-.65,2.23-1,3.4l-.23.88c-.44,1.64-.89,3.43-1.38,5.46l-.29,1.23h0c-.49,2.12-.94,4.12-1.34,6.08-.35,1.7-.7,3.47-1,5.27l-.22,1.19h0c-.38,2.08-.76,4.22-1.13,6.43l-.32,1.91q-.42,2.63-.83,5.36l-.15,1a20.2,20.2,0,0,1-2.33,7.2,23.57,23.57,0,0,1-3,4.63l-.13.15c-.3.35-.55.62-.81.88l-.35.35c-.28.27-.57.53-.87.79l-.19.16c-2.69,2.21-6.32,3.88-11.77,5.41-5.1,1.43-5.36,1.46-14,1.67-2.83.07-4.49.1-5.72.1-2.58,0-3.26-.13-3.6-.37a7.36,7.36,0,0,0-3.58-.86c-1.81,0-2.08.83-2.08,1.33,0,.67,0,.94,6.82,4.31a100,100,0,0,1,12,7.09c6.51,4.54,8.31,5.54,12.81,7.16l1,.36.9.34.22.09.72.3.25.11.54.25.23.12.42.23.3.19.26.17c.16.11.31.23.46.36l0,0a13.36,13.36,0,0,1,1.16,1.16c.06.06.11.14.16.21l.2.27c.25.3.49.6.72.93.11.16.22.34.32.52l.13.22c.2.33.4.67.59,1s.25.51.37.77c.2.42.38.84.56,1.28.09.24.19.47.28.71.19.52.36,1,.52,1.58l.06.2.06.2a26.07,26.07,0,0,1,.91,5.43l0,.64h0c0,.21,0,.42,0,.63,0,.54,0,1.14-.07,1.77l0,.45q-.07.91-.19,1.88l0,.13a54.55,54.55,0,0,1-1.87,8.9l0,.1a60.92,60.92,0,0,1-2.55,6.07l-.69,1.43-.45.9A75.72,75.72,0,0,0,232.5,181c-.17.46-.33.91-.47,1.34l0,.13c-.13.4-.25.8-.35,1.19l0,.16c-.11.46-.2.81-.26,1.16l0,.21a14.14,14.14,0,0,0-.17,1.6v.16c0,.18,0,.36,0,.53s0,.24,0,.36v.15c0,.27,0,.54.07.8s0,.24.06.35l0,.12c0,.28.1.55.17.82s.08.3.12.45c.79,2.66,2.52,5.21,4.89,8.23,6.3,8,12.56,17.91,12.77,19.33,0,0,0,.06,0,.09-.73-.2-2.7-1.4-8-6.38-4.36-4.09-6.5-6-8.63-6.81a7.73,7.73,0,0,0-.84-.27l-.24-.06a18.07,18.07,0,0,0-6.38,0,7.17,7.17,0,0,0-.92.29L224,205a7.32,7.32,0,0,0-.78.38l-.16.09c-.27.16-.53.33-.8.52l-.15.11-.55.42v-.06l-1.35,1.24-.94.87a22.87,22.87,0,0,1-1.88,1.61l-.19.14c-.44.33-.9.65-1.35.94l-.47.3c-.5.3-1,.58-1.52.83l-.18.1A27.26,27.26,0,0,0,211,214a24.16,24.16,0,0,0-3.12,2.31C204.74,219.2,203.18,220.26,202.11,220.26Zm-50.25-164c1.37-4.4,3-8.78,6.17-12a9.39,9.39,0,0,1,1.71-1.66,11,11,0,0,1-.83,3.94l-.39.79C156.92,50.53,155,54.51,151.85,56.24Zm-33.45,0c-3.13-1.73-5.07-5.71-6.65-9l-.43-.88a10.78,10.78,0,0,1-.79-3.85,9.17,9.17,0,0,1,1.66,1.62C115.43,47.46,117,51.84,118.41,56.24Z"/><circle class="cls-3" cx="50.58" cy="54.9" r="12.6"/><circle class="cls-3" cx="29.36" cy="25.49" r="12.6"/><circle class="cls-3" cx="88.4" cy="77.73" r="12.6"/><circle class="cls-3" cx="53" cy="93.16" r="12.6"/><circle class="cls-4" cx="221.52" cy="54.49" r="12.6"/><circle class="cls-4" cx="241.58" cy="29.24" r="12.6"/><circle class="cls-4" cx="187.28" cy="69.64" r="12.6"/><circle class="cls-4" cx="219.19" cy="91.24" r="12.6"/><circle class="cls-4" cx="165.9" cy="121.51" r="12.6"/><circle class="cls-4" cx="188.81" cy="147.69" r="12.6"/><circle class="cls-4" cx="200.37" cy="188.08" r="12.6"/><circle class="cls-4" cx="219.77" cy="160.88" r="12.6"/><circle class="cls-4" cx="104.52" cy="121.51" r="12.6"/><circle class="cls-4" cx="81.6" cy="147.69" r="12.6"/><circle class="cls-4" cx="70.05" cy="188.08" r="12.6"/><circle class="cls-4" cx="50.65" cy="160.88" r="12.6"/></svg>