<svg id="Layer_1" data-name="Layer 1" xmlns="http://www.w3.org/2000/svg" xmlns:xlink="http://www.w3.org/1999/xlink" viewBox="0 0 102.5 50.71"><defs><style>.cls-1{fill:none;}.cls-2,.cls-7{fill:#fa7901;}.cls-3{fill:#f6e6c2;}.cls-4{fill:#ffa91e;}.cls-5,.cls-6,.cls-7{opacity:0.5;}.cls-6,.cls-8{fill:#d6390c;}.cls-6,.cls-7,.cls-8{isolation:isolate;}.cls-8{opacity:0.3;}.cls-9{clip-path:url(#clip-path);}.cls-10{clip-path:url(#clip-path-2);}</style><clipPath id="clip-path" transform="translate(5.41 5.24)"><path class="cls-1" d="M39.63,19.62C37.8,28.75,28.47,36,18.63,36c-10.1,0-17.3-7.47-16-16.92C4.05,9.34,13.92,1.49,24.48,1.8,34.83,2.11,41.52,10.18,39.63,19.62Z"/></clipPath><clipPath id="clip-path-2" transform="translate(5.41 5.24)"><path class="cls-1" d="M88.23,19.62C86.4,28.75,77.07,36,67.23,36c-10.06,0-17.29-7.43-15.94-16.87C52.68,9.39,62.55,1.54,73.11,1.85,83.43,2.11,90.12,10.18,88.23,19.62Z"/></clipPath></defs><title>one-half</title><path class="cls-2" d="M42.59,18.17S40.33,36,28.12,40.08s-22.79-4.16-24.39-6c0,0-8.79-13.1.85-24.28L18.87,31.86Z" transform="translate(5.41 5.24)"/><path class="cls-3" d="M40.25,26s-3.32,8.71-15.57,12.08a21.25,21.25,0,0,1-13-.47A17.66,17.66,0,0,1,.38,25.05a12.71,12.71,0,0,1-.25-4.93c1-6,3.71-8.61,3.71-8.61l2.57.9L18.87,31.86l18.65-6.75Z" transform="translate(5.41 5.24)"/><path class="cls-4" d="M37.52,25.11S34.17,33.62,26,35.36a30,30,0,0,1-11.64,0,14.41,14.41,0,0,1-9.18-5.87,12.82,12.82,0,0,1-2.4-7.34c0-7.94,3.69-9.76,3.69-9.76a130.72,130.72,0,0,0,13.63,6.47C26.7,21.47,37.52,25.11,37.52,25.11Z" transform="translate(5.41 5.24)"/><path class="cls-3" d="M20.33,19l3.2,1.2.66,1.35a3.28,3.28,0,0,0,.87,1.08l9.27,7.55-.21.24-9.72-8-.47-.18a1.08,1.08,0,0,0-1.39.63l0,.05h0l2,12.67-.19,0L22.33,23s-.72-1.15-1.2-1.27-1.35.27-1.85,1.63-3.7,12.31-3.7,12.31l-.35-.06L19,23.12s0-1.19-.57-1.29-1.65.86-1.65.86L6.24,30.91,6,30.62l10.86-8.49s.7-1.11.52-1.46-1.81-.49-1.81-.49L2.81,23.37,2.9,23,16,19.88a1.93,1.93,0,0,0,1.24-1.21c.46-1-1.52-1.64-1.52-1.64Z" transform="translate(5.41 5.24)"/><g class="cls-5"><path class="cls-6" d="M23.14,30.9a1.08,1.08,0,0,0-.12-.41H23c-.05,0,0,.1,0,.18a10.77,10.77,0,0,0,0,1.74,12,12,0,0,0,.58,2.46,10.78,10.78,0,0,0-.22-2.49Z" transform="translate(5.41 5.24)"/><path class="cls-7" d="M20.72,31.62a1.08,1.08,0,0,0-.12-.41h-.05c-.05,0,0,.1,0,.18a10.77,10.77,0,0,0,0,1.74,12,12,0,0,0,.56,2.49,10.78,10.78,0,0,0-.18-2.46Z" transform="translate(5.41 5.24)"/><path class="cls-8" d="M21.6,29.5a.76.76,0,0,0-.1-.26c-.07-.1-.16-.08-.2,0a.9.9,0,0,0-.08.33c-.06.44-.24,4.51.26,4.44S21.75,30.14,21.6,29.5Z" transform="translate(5.41 5.24)"/><path class="cls-7" d="M21.58,26.84l.47,2a14.25,14.25,0,0,0-.54-5.44A2.92,2.92,0,0,0,21.24,25,11.63,11.63,0,0,0,21.58,26.84Z" transform="translate(5.41 5.24)"/><path class="cls-8" d="M19,33.83c.09.28.27.58.45.56s.24-.5.24-.86a5.44,5.44,0,0,1,.15-1.31c.09-.37.22-.71.32-1.08a6.38,6.38,0,0,0,0-2.75,17.66,17.66,0,0,0-1.17,3.8,4,4,0,0,0-.12.76A2.68,2.68,0,0,0,19,33.83Z" transform="translate(5.41 5.24)"/><path class="cls-7" d="M18.88,28.5a1,1,0,0,0,.09.79,17.2,17.2,0,0,0,2.1-4.9,2,2,0,0,0,.12-1c0-.17-.14-.36-.26-.37s-.17.16-.21.3a23.45,23.45,0,0,1-1.16,3.4A9,9,0,0,0,18.88,28.5Z" transform="translate(5.41 5.24)"/><path class="cls-2" d="M17.28,32.37a9.13,9.13,0,0,0,.94-3.31,13.21,13.21,0,0,0-1,2.23,1.71,1.71,0,0,0-.11.53A.85.85,0,0,0,17.28,32.37Z" transform="translate(5.41 5.24)"/><path class="cls-8" d="M19.33,26.43a9.13,9.13,0,0,0,.94-3.31,13.21,13.21,0,0,0-1,2.23,1.71,1.71,0,0,0-.11.53A.85.85,0,0,0,19.33,26.43Z" transform="translate(5.41 5.24)"/><path class="cls-2" d="M18.7,31.1l-1.37,3.46a2.28,2.28,0,0,0-.19.76c.11.06.23-.12.33-.3l.24-.41a6.21,6.21,0,0,0,.49-.94A8.55,8.55,0,0,0,18.7,31.1Z" transform="translate(5.41 5.24)"/><path class="cls-2" d="M22,33.71l.19,1.38a2.72,2.72,0,0,0,0-1.42,4.45,4.45,0,0,1-.09-1.47A2.45,2.45,0,0,0,22,33.71Z" transform="translate(5.41 5.24)"/><path class="cls-2" d="M20.89,27.08l.19,1.38a2.72,2.72,0,0,0,0-1.42A4.45,4.45,0,0,1,21,25.57,2.44,2.44,0,0,0,20.89,27.08Z" transform="translate(5.41 5.24)"/><path class="cls-2" d="M22.61,27a9.13,9.13,0,0,1-.12,2.51A4.6,4.6,0,0,0,22.61,27Z" transform="translate(5.41 5.24)"/><path class="cls-2" d="M22.16,29.55A9.13,9.13,0,0,1,22,32.06,4.6,4.6,0,0,0,22.16,29.55Z" transform="translate(5.41 5.24)"/></g><g class="cls-5"><path class="cls-6" d="M33.33,23.89a2,2,0,0,0-.44-.12h-.05a.65.65,0,0,0,.14.09,16.55,16.55,0,0,0,1.58.72,21.6,21.6,0,0,0,2.55.77,17.46,17.46,0,0,0-2.32-1Z" transform="translate(5.41 5.24)"/><path class="cls-7" d="M32.64,25.31a2,2,0,0,0-.44-.12h-.05a.65.65,0,0,0,.14.09,16.55,16.55,0,0,0,1.58.72,21.6,21.6,0,0,0,2.55.77,17.47,17.47,0,0,0-2.32-1Z" transform="translate(5.41 5.24)"/><path class="cls-8" d="M31.19,24A1.44,1.44,0,0,0,30.9,24c-.13,0-.16,0-.12.09a1,1,0,0,0,.25.18c.36.21,3.93,2,4.16,1.75S31.85,24.21,31.19,24Z" transform="translate(5.41 5.24)"/><path class="cls-7" d="M28.78,22.9l2,.62a23.51,23.51,0,0,0-5.21-2,3.63,3.63,0,0,0,1.33.81Z" transform="translate(5.41 5.24)"/><path class="cls-8" d="M33.6,27c.31.08.68.12.76,0s-.31-.32-.64-.47a7.33,7.33,0,0,1-1.1-.62c-.29-.2-.51-.4-.8-.6a9.57,9.57,0,0,0-2.49-1.13,18.39,18.39,0,0,0,2.77,2.13,5.1,5.1,0,0,0,.62.37A4.56,4.56,0,0,0,33.6,27Z" transform="translate(5.41 5.24)"/><path class="cls-7" d="M28.75,24.82a1.65,1.65,0,0,0,.76.29,15,15,0,0,0-3.23-3,2.67,2.67,0,0,0-.88-.5.77.77,0,0,0-.48,0c-.07,0,0,.14.16.22a23.38,23.38,0,0,1,2.42,2A8.46,8.46,0,0,0,28.75,24.82Z" transform="translate(5.41 5.24)"/><path class="cls-2" d="M31.33,27.17a9.79,9.79,0,0,0-2.46-1.82,11.21,11.21,0,0,0,1.46,1.4,2.05,2.05,0,0,0,.42.27A1.55,1.55,0,0,0,31.33,27.17Z" transform="translate(5.41 5.24)"/><path class="cls-8" d="M27.1,23.77A9.79,9.79,0,0,0,24.64,22a11.21,11.21,0,0,0,1.44,1.39,2.05,2.05,0,0,0,.42.27A1.55,1.55,0,0,0,27.1,23.77Z" transform="translate(5.41 5.24)"/><path class="cls-2" d="M31,26l2.34,2.08a2.56,2.56,0,0,0,.58.41c.11,0,0-.16-.08-.28l-.23-.28a4.78,4.78,0,0,0-.57-.61A10.34,10.34,0,0,0,31,26Z" transform="translate(5.41 5.24)"/><path class="cls-2" d="M35.24,25.62l1.36.49a4,4,0,0,0-1.27-.65A7.15,7.15,0,0,1,34,24.88C34.07,25.13,34.69,25.38,35.24,25.62Z" transform="translate(5.41 5.24)"/><path class="cls-2" d="M28.6,23.31,30,23.8a4,4,0,0,0-1.26-.61,7.15,7.15,0,0,1-1.37-.57C27.43,22.86,28.05,23.11,28.6,23.31Z" transform="translate(5.41 5.24)"/><path class="cls-2" d="M29.52,22.5a13.21,13.21,0,0,1,2.2,1.12A6.57,6.57,0,0,0,29.52,22.5Z" transform="translate(5.41 5.24)"/><path class="cls-2" d="M31.56,23.78a13.21,13.21,0,0,1,2.2,1.11A6.57,6.57,0,0,0,31.56,23.78Z" transform="translate(5.41 5.24)"/></g><g class="cls-5"><path class="cls-6" d="M30.49,28a1.08,1.08,0,0,0-.29-.31h-.06a.27.27,0,0,0,.05.18A10.77,10.77,0,0,0,31,29.41a12,12,0,0,0,1.66,1.9,10.78,10.78,0,0,0-1.35-2.09Z" transform="translate(5.41 5.24)"/><path class="cls-7" d="M27.46,30.37a1.08,1.08,0,0,0-.29-.31h-.06a.27.27,0,0,0,.05.18A10.77,10.77,0,0,0,28,31.77a12,12,0,0,0,1.66,1.9,10.78,10.78,0,0,0-1.32-2Z" transform="translate(5.41 5.24)"/><path class="cls-8" d="M27.78,28.19a.76.76,0,0,0-.21-.18c-.11,0-.18,0-.18.09a.9.9,0,0,0,.08.33c.15.42,1.9,4.1,2.31,3.8S28.21,28.68,27.78,28.19Z" transform="translate(5.41 5.24)"/><path class="cls-7" d="M26,25.71l1.36,1.52a14.25,14.25,0,0,0-3-4.55,2.92,2.92,0,0,0,.53,1.57A11.63,11.63,0,0,0,26,25.71Z" transform="translate(5.41 5.24)"/><path class="cls-8" d="M26.91,33.12c.21.21.51.39.66.28s0-.55-.19-.87a5.43,5.43,0,0,1-.49-1.23c-.09-.37-.13-.73-.23-1.11a6.38,6.38,0,0,0-1.28-2.44,17.66,17.66,0,0,0,.76,3.87,4,4,0,0,0,.25.73A2.68,2.68,0,0,0,26.91,33.12Z" transform="translate(5.41 5.24)"/><path class="cls-7" d="M24.33,28.44a1,1,0,0,0,.45.65,17.2,17.2,0,0,0-.45-5.3,2,2,0,0,0-.39-1c-.11-.14-.29-.26-.4-.21s-.07.22,0,.36a23.45,23.45,0,0,1,.57,3.55A9,9,0,0,0,24.33,28.44Z" transform="translate(5.41 5.24)"/><path class="cls-2" d="M24.75,32.62A9.13,9.13,0,0,0,24,29.25a13.21,13.21,0,0,0,.15,2.44,1.71,1.71,0,0,0,.15.52A.85.85,0,0,0,24.75,32.62Z" transform="translate(5.41 5.24)"/><path class="cls-8" d="M23.74,26.42A9.13,9.13,0,0,0,23,23.05a13.21,13.21,0,0,0,.15,2.44,1.71,1.71,0,0,0,.15.52A.85.85,0,0,0,23.74,26.42Z" transform="translate(5.41 5.24)"/><path class="cls-2" d="M25.41,30.82l.4,3.7a2.28,2.28,0,0,0,.19.76c.12,0,.14-.22.15-.42v-.47a6.21,6.21,0,0,0,0-1.06A8.56,8.56,0,0,0,25.41,30.82Z" transform="translate(5.41 5.24)"/><path class="cls-2" d="M30.41,31.29l.82,1.13a2.72,2.72,0,0,0-.64-1.27,4.45,4.45,0,0,1-.77-1.26C29.73,30.29,30.08,30.84,30.41,31.29Z" transform="translate(5.41 5.24)"/><path class="cls-2" d="M26.16,26.93,27,28.06a2.72,2.72,0,0,0-.65-1.27,4.45,4.45,0,0,1-.77-1.26C25.47,25.92,25.83,26.48,26.16,26.93Z" transform="translate(5.41 5.24)"/><path class="cls-2" d="M27,25.38A9.13,9.13,0,0,1,28,27.62,4.6,4.6,0,0,0,27,25.38Z" transform="translate(5.41 5.24)"/><path class="cls-2" d="M28.57,27a9.13,9.13,0,0,1,1.07,2.27A4.6,4.6,0,0,0,28.57,27Z" transform="translate(5.41 5.24)"/></g><g class="cls-5"><path class="cls-6" d="M15.71,30.79a1.08,1.08,0,0,0,.13-.41v0s-.09.07-.13.13a10.77,10.77,0,0,0-.94,1.47,12,12,0,0,0-.86,2.38,10.78,10.78,0,0,0,1.2-2.15Z" transform="translate(5.41 5.24)"/><path class="cls-7" d="M13.26,30.1a1.08,1.08,0,0,0,.13-.41v0s-.09.07-.13.13a10.77,10.77,0,0,0-.93,1.47,12,12,0,0,0-.9,2.38,10.78,10.78,0,0,0,1.2-2.15Z" transform="translate(5.41 5.24)"/><path class="cls-8" d="M15.19,28.78a.76.76,0,0,0,.06-.27c0-.12-.09-.16-.17-.12a.9.9,0,0,0-.25.23c-.29.34-2.67,3.64-2.22,3.86S15,29.39,15.19,28.78Z" transform="translate(5.41 5.24)"/><path class="cls-7" d="M16.63,26.55l-.69,1.91a14.25,14.25,0,0,0,2.53-4.84,2.92,2.92,0,0,0-1.14,1.22A11.63,11.63,0,0,0,16.63,26.55Z" transform="translate(5.41 5.24)"/><path class="cls-8" d="M10.6,31c-.08.28-.09.63.07.71s.47-.28.67-.59a5.44,5.44,0,0,1,.84-1c.28-.26.58-.47.86-.73A6.38,6.38,0,0,0,14.56,27a17.66,17.66,0,0,0-3.06,2.54,4,4,0,0,0-.52.57A2.68,2.68,0,0,0,10.6,31Z" transform="translate(5.41 5.24)"/><path class="cls-7" d="M13.46,26.45a1,1,0,0,0-.36.71,17.2,17.2,0,0,0,4.44-2.94,2,2,0,0,0,.68-.81c.06-.17.08-.38,0-.45s-.23,0-.34.14A23.45,23.45,0,0,1,15,25.32,9,9,0,0,0,13.46,26.45Z" transform="translate(5.41 5.24)"/><path class="cls-2" d="M10,28.81a9.13,9.13,0,0,0,2.6-2.26,13.21,13.21,0,0,0-2.06,1.31,1.71,1.71,0,0,0-.38.39A.85.85,0,0,0,10,28.81Z" transform="translate(5.41 5.24)"/><path class="cls-8" d="M14.93,24.94a9.13,9.13,0,0,0,2.6-2.26A13.21,13.21,0,0,0,15.47,24a1.71,1.71,0,0,0-.38.39A.85.85,0,0,0,14.93,24.94Z" transform="translate(5.41 5.24)"/><path class="cls-2" d="M11.89,28.53l-3,2.14a2.28,2.28,0,0,0-.58.53c.06.11.26,0,.44-.07l.43-.21a6.21,6.21,0,0,0,.92-.52A8.55,8.55,0,0,0,11.89,28.53Z" transform="translate(5.41 5.24)"/><path class="cls-2" d="M13.24,32.54l-.6,1.26a2.72,2.72,0,0,0,.81-1.18,4.45,4.45,0,0,1,.73-1.28C13.79,31.45,13.48,32,13.24,32.54Z" transform="translate(5.41 5.24)"/><path class="cls-2" d="M15.92,26.36l-.59,1.26a2.72,2.72,0,0,0,.81-1.17,4.45,4.45,0,0,1,.73-1.28C16.47,25.28,16.16,25.86,15.92,26.36Z" transform="translate(5.41 5.24)"/><path class="cls-2" d="M17.39,27.25a9.13,9.13,0,0,1-1.47,2A4.6,4.6,0,0,0,17.39,27.25Z" transform="translate(5.41 5.24)"/><path class="cls-2" d="M15.62,29.13a9.13,9.13,0,0,1-1.47,2A4.6,4.6,0,0,0,15.62,29.13Z" transform="translate(5.41 5.24)"/></g><g class="cls-5"><path class="cls-6" d="M10.72,26.72a1,1,0,0,0,.28-.29v0s-.11,0-.17.06a11.2,11.2,0,0,0-1.5.88A11.54,11.54,0,0,0,7.57,29a11,11,0,0,0,2-1.35Z" transform="translate(5.41 5.24)"/><path class="cls-7" d="M7.9,25.29A1,1,0,0,0,8.18,25v0S8.07,25,8,25a11.2,11.2,0,0,0-1.47.88,11.54,11.54,0,0,0-1.76,1.65,11,11,0,0,0,2-1.35Z" transform="translate(5.41 5.24)"/><path class="cls-8" d="M11.05,24.88a.7.7,0,0,0,.17-.21c0-.1,0-.16-.11-.16a1,1,0,0,0-.32.1c-.41.17-4,2-3.62,2.4S10.59,25.3,11.05,24.88Z" transform="translate(5.41 5.24)"/><path class="cls-7" d="M13.33,23.55l-1.41,1.33a14.39,14.39,0,0,0,4.31-3.1,3.18,3.18,0,0,0-1.54.61A11.42,11.42,0,0,0,13.33,23.55Z" transform="translate(5.41 5.24)"/><path class="cls-8" d="M5.91,25.05c-.19.21-.34.49-.22.61s.55-.06.86-.25a5.85,5.85,0,0,1,1.19-.54c.37-.12.73-.19,1.09-.3a6.66,6.66,0,0,0,2.34-1.36,19.78,19.78,0,0,0-3.87,1,4.37,4.37,0,0,0-.71.29A2.67,2.67,0,0,0,5.91,25.05Z" transform="translate(5.41 5.24)"/><path class="cls-7" d="M10.39,22.35a1,1,0,0,0-.62.46A19.52,19.52,0,0,0,15.08,22a2.16,2.16,0,0,0,1-.43c.13-.11.23-.28.17-.37s-.23,0-.37,0a26.38,26.38,0,0,1-3.52.82A10.21,10.21,0,0,0,10.39,22.35Z" transform="translate(5.41 5.24)"/><path class="cls-2" d="M6.22,23.07a10.18,10.18,0,0,0,3.33-.94,15,15,0,0,0-2.44.35,1.88,1.88,0,0,0-.51.18A.79.79,0,0,0,6.22,23.07Z" transform="translate(5.41 5.24)"/><path class="cls-8" d="M12.33,21.62a10.17,10.17,0,0,0,3.33-.94,15,15,0,0,0-2.44.35,1.88,1.88,0,0,0-.51.18A.79.79,0,0,0,12.33,21.62Z" transform="translate(5.41 5.24)"/><path class="cls-2" d="M8.09,23.51l-3.7.69a2.53,2.53,0,0,0-.75.24c0,.11.23.11.44.1h.48a7.09,7.09,0,0,0,1.06-.1A9.39,9.39,0,0,0,8.09,23.51Z" transform="translate(5.41 5.24)"/><path class="cls-2" d="M6.89,28l-1.06.83a2.85,2.85,0,0,0,1.22-.68,4.55,4.55,0,0,1,1.2-.8A2.29,2.29,0,0,0,6.89,28Z" transform="translate(5.41 5.24)"/><path class="cls-2" d="M12.71,23.15,11.65,24a2.85,2.85,0,0,0,1.22-.68,4.55,4.55,0,0,1,1.2-.8A2.29,2.29,0,0,0,12.71,23.15Z" transform="translate(5.41 5.24)"/><path class="cls-2" d="M13.72,24.4a9.65,9.65,0,0,1-2.19,1.16A4.86,4.86,0,0,0,13.72,24.4Z" transform="translate(5.41 5.24)"/><path class="cls-2" d="M11.33,25.32a9.65,9.65,0,0,1-2.19,1.16A4.86,4.86,0,0,0,11.33,25.32Z" transform="translate(5.41 5.24)"/></g><g class="cls-5"><path class="cls-6" d="M7.4,21.57a1.31,1.31,0,0,0,.47-.08v0s-.11,0-.2-.06a13.52,13.52,0,0,0-2-.15,14.76,14.76,0,0,0-2.79.34,13.51,13.51,0,0,0,2.76.06Z" transform="translate(5.41 5.24)"/><path class="cls-7" d="M7.86,18a1.32,1.32,0,0,0,.47-.08v0s-.11,0-.2-.06a13.52,13.52,0,0,0-1.92-.16A14.76,14.76,0,0,0,3.42,18,13.51,13.51,0,0,0,6.18,18Z" transform="translate(5.41 5.24)"/><path class="cls-8" d="M9.92,19.2a.91.91,0,0,0,.3-.07c.12-.06.11-.15,0-.2a1.11,1.11,0,0,0-.36-.11c-.49-.1-5-.68-5-.17S9.19,19.28,9.92,19.2Z" transform="translate(5.41 5.24)"/><path class="cls-7" d="M12.19,19,10,19.3a17.8,17.8,0,0,0,6.12,0,3.63,3.63,0,0,0-1.8-.42A14.44,14.44,0,0,0,12.19,19Z" transform="translate(5.41 5.24)"/><path class="cls-8" d="M5.17,16.14c-.32.06-.67.21-.66.4s.53.29.94.32a6.8,6.8,0,0,1,1.45.27c.41.13.77.29,1.18.42a8,8,0,0,0,3.07.28A21.62,21.62,0,0,0,7,16.3a5,5,0,0,0-.84-.19A3.33,3.33,0,0,0,5.17,16.14Z" transform="translate(5.41 5.24)"/><path class="cls-7" d="M10.56,16.16a1.24,1.24,0,0,0-.89,0A20.61,20.61,0,0,0,15,18.73a2.51,2.51,0,0,0,1.16.22c.2,0,.42-.1.43-.22s-.16-.18-.32-.24A28.58,28.58,0,0,1,12.53,17,10.92,10.92,0,0,0,10.56,16.16Z" transform="translate(5.41 5.24)"/><path class="cls-2" d="M6.38,14.2A11.2,11.2,0,0,0,10,15.45a15.77,15.77,0,0,0-2.4-1.22A2.13,2.13,0,0,0,7,14.07,1,1,0,0,0,6.38,14.2Z" transform="translate(5.41 5.24)"/><path class="cls-8" d="M12.85,16.77A11.2,11.2,0,0,0,16.47,18a15.78,15.78,0,0,0-2.4-1.22,2.13,2.13,0,0,0-.59-.16A1,1,0,0,0,12.85,16.77Z" transform="translate(5.41 5.24)"/><path class="cls-2" d="M9.76,16.62,6,14.92a2.82,2.82,0,0,0-.84-.26c-.07.1.12.24.31.36l.43.28a7.31,7.31,0,0,0,1,.58A10.62,10.62,0,0,0,9.76,16.62Z" transform="translate(5.41 5.24)"/><path class="cls-2" d="M4.9,20.05l-1.57.06a3.4,3.4,0,0,0,1.58.17,5.58,5.58,0,0,1,1.65,0A2.67,2.67,0,0,0,4.9,20.05Z" transform="translate(5.41 5.24)"/><path class="cls-2" d="M12,18.31l-1.56.06a3.4,3.4,0,0,0,1.58.17,5.58,5.58,0,0,1,1.65,0A2.67,2.67,0,0,0,12,18.31Z" transform="translate(5.41 5.24)"/><path class="cls-2" d="M11.78,20.72A11.45,11.45,0,0,1,9,20.36,5.75,5.75,0,0,0,11.78,20.72Z" transform="translate(5.41 5.24)"/><path class="cls-2" d="M8.84,20.3a11.45,11.45,0,0,1-2.79-.36A5.75,5.75,0,0,0,8.84,20.3Z" transform="translate(5.41 5.24)"/></g><path class="cls-3" d="M42.33,20.23c-2,10.39-12.68,18.63-23.94,18.63C7,38.86-1.26,30.38.33,19.62,1.87,8.62,13.08-.38,25.08,0,36.87.35,44.5,9.52,42.33,20.23Z" transform="translate(5.41 5.24)"/><g class="cls-9"><path class="cls-2" d="M23.33,44.47s-11.3,4.9-22-7.22C-9.06,25.37-4.67,10.62-3.43,8c0,0,7-17.17,24-12.06L6,22.84Z" transform="translate(5.41 5.24)"/><path class="cls-3" d="M23.33,44.47S11.76,44.8,1.94,32.38A26.26,26.26,0,0,1-3.79,17.62,21.25,21.25,0,0,1,4.63-.88,15.37,15.37,0,0,1,9.94-3.53c7.18-1.85,11.39-.12,11.39-.12l.26,3.27L6,22.84l16.89,18Z" transform="translate(5.41 5.24)"/><path class="cls-4" d="M22.94,40.87s-11.32.22-17.35-8.34A37.22,37.22,0,0,1-.07,19.41,17.41,17.41,0,0,1,2,6.41,15.42,15.42,0,0,1,9,.25C17.72-3.6,21.59-.38,21.59-.38a156.77,156.77,0,0,0-.43,18.3C21.58,26.71,22.94,40.87,22.94,40.87Z" transform="translate(5.41 5.24)"/><path class="cls-3" d="M21.16,18.29l.25,4.2-1.19,1.39a4,4,0,0,0-.81,1.54l-3.82,14.2-.38-.13,4.12-14.93V24a1.36,1.36,0,0,0-1.44-1.27h0L4.62,31.07l-.17-.28,13.13-8.36s.93-1.37.83-2-1-1.39-2.75-1.3S.13,20.93.13,20.93l-.06-.36,15.79-1.79s1.33-.59,1.16-1.26-1.78-1.44-1.78-1.44L1,8.33,1.15,8l14.73,8s1.59.26,1.9-.12-.34-2.23-.34-2.23L7.65.94,8.11.86l9.88,13a2.41,2.41,0,0,0,2,.8c1.41,0,1.07-2.49,1.07-2.49Z" transform="translate(5.41 5.24)"/><g class="cls-5"><path class="cls-6" d="M9.21,27.2a1.29,1.29,0,0,0,.4-.33V26.8H9.39a12.94,12.94,0,0,0-1.94.85A14.35,14.35,0,0,0,5,29.48,12.92,12.92,0,0,0,7.64,28.1Z" transform="translate(5.41 5.24)"/><path class="cls-7" d="M7.16,24.82a1.29,1.29,0,0,0,.4-.33v-.07H7.34a12.93,12.93,0,0,0-1.94.85A14.35,14.35,0,0,0,2.94,27.1,12.92,12.92,0,0,0,5.6,25.73Z" transform="translate(5.41 5.24)"/><path class="cls-8" d="M10,24.79a.91.91,0,0,0,.24-.24c.07-.13,0-.22-.09-.23a1.1,1.1,0,0,0-.41.06c-.52.14-5.15,1.88-4.84,2.42S9.33,25.26,10,24.79Z" transform="translate(5.41 5.24)"/><path class="cls-7" d="M13,23.49,11,25a17.15,17.15,0,0,0,5.83-3.22,3.55,3.55,0,0,0-2,.48A14,14,0,0,0,13,23.49Z" transform="translate(5.41 5.24)"/><path class="cls-8" d="M3.88,23.87c-.27.24-.51.58-.4.77s.67,0,1.07-.14A6.53,6.53,0,0,1,6.09,24c.46-.08.9-.09,1.36-.16a7.67,7.67,0,0,0,3.09-1.26,21.39,21.39,0,0,0-4.82.5,4.82,4.82,0,0,0-.9.23A3.21,3.21,0,0,0,3.88,23.87Z" transform="translate(5.41 5.24)"/><path class="cls-7" d="M9.79,21.24a1.21,1.21,0,0,0-.84.48,21,21,0,0,0,6.52,0,2.44,2.44,0,0,0,1.24-.37c.18-.13.34-.33.29-.46s-.26-.11-.44-.09a28.66,28.66,0,0,1-4.38.33A11,11,0,0,0,9.79,21.24Z" transform="translate(5.41 5.24)"/><path class="cls-2" d="M4.69,21.3a11,11,0,0,0,4.15-.53,16,16,0,0,0-3-.06,2.07,2.07,0,0,0-.65.13A1,1,0,0,0,4.69,21.3Z" transform="translate(5.41 5.24)"/><path class="cls-8" d="M12.33,20.7a11.13,11.13,0,0,0,4.18-.54,16.22,16.22,0,0,0-3-.06,2.08,2.08,0,0,0-.65.13A1,1,0,0,0,12.33,20.7Z" transform="translate(5.41 5.24)"/><path class="cls-2" d="M6.81,22.29l-4.48.11a2.74,2.74,0,0,0-.94.15c0,.15.25.2.49.23l.57.08a7.51,7.51,0,0,0,1.28.1A10.3,10.3,0,0,0,6.81,22.29Z" transform="translate(5.41 5.24)"/><path class="cls-2" d="M5.51,27.29l-1.45.88a3.26,3.26,0,0,0,1.6-.64,5.34,5.34,0,0,1,1.6-.81C6.8,26.56,6.1,26.94,5.51,27.29Z" transform="translate(5.41 5.24)"/><path class="cls-2" d="M12.33,22.83l-1.45.88a3.28,3.28,0,0,0,1.61-.64,5.37,5.37,0,0,1,1.6-.81C13.67,22.09,13,22.47,12.33,22.83Z" transform="translate(5.41 5.24)"/><path class="cls-2" d="M13.33,24.74a11,11,0,0,1-2.87,1.07A5.55,5.55,0,0,0,13.33,24.74Z" transform="translate(5.41 5.24)"/><path class="cls-2" d="M10.22,25.44a11,11,0,0,1-2.89,1.07A5.53,5.53,0,0,0,10.22,25.44Z" transform="translate(5.41 5.24)"/></g><g class="cls-5"><path class="cls-6" d="M22.19,35.45a2.49,2.49,0,0,0-.09-.56v.16a20.67,20.67,0,0,0,0,2.17,27.37,27.37,0,0,0,.42,3.31,22,22,0,0,0-.1-3.14Z" transform="translate(5.41 5.24)"/><path class="cls-7" d="M20.23,35.34a2.49,2.49,0,0,0-.08-.56v.16a20.67,20.67,0,0,0,0,2.17,27.35,27.35,0,0,0,.42,3.31,22,22,0,0,0-.24-3.14Z" transform="translate(5.41 5.24)"/><path class="cls-8" d="M21,33.06a1.81,1.81,0,0,0-.08-.37c-.05-.15-.12-.17-.16-.1a1.23,1.23,0,0,0-.07.37c-.06.52-.28,5.48.12,5.62S21.08,33.91,21,33.06Z" transform="translate(5.41 5.24)"/><path class="cls-7" d="M21,29.77l.31,2.64A29.17,29.17,0,0,0,21,25.48a4.44,4.44,0,0,0-.25,1.9C20.81,28.14,20.91,29,21,29.77Z" transform="translate(5.41 5.24)"/><path class="cls-8" d="M18.77,37.27c.07.39.2.84.35.89s.2-.51.21-1a9.1,9.1,0,0,1,.15-1.54c.08-.42.19-.78.28-1.2a11.89,11.89,0,0,0,.07-3.4,22.55,22.55,0,0,0-1,4.2,6.32,6.32,0,0,0-.11.89A5.73,5.73,0,0,0,18.77,37.27Z" transform="translate(5.41 5.24)"/><path class="cls-7" d="M18.82,30.62a2,2,0,0,0,.06,1,18.23,18.23,0,0,0,1.77-5.13,3.28,3.28,0,0,0,.12-1.24.77.77,0,0,0-.2-.56c-.1-.05-.14.12-.17.28a28.44,28.44,0,0,1-1,3.69A10.3,10.3,0,0,0,18.82,30.62Z" transform="translate(5.41 5.24)"/><path class="cls-2" d="M17.47,34.74a12,12,0,0,0,.86-3.69,13.66,13.66,0,0,0-.85,2.32,2.53,2.53,0,0,0-.1.61A2,2,0,0,0,17.47,34.74Z" transform="translate(5.41 5.24)"/><path class="cls-8" d="M19.19,28.27A11.93,11.93,0,0,0,20,24.62a13.58,13.58,0,0,0-.84,2.31,2.51,2.51,0,0,0-.1.61A1.94,1.94,0,0,0,19.19,28.27Z" transform="translate(5.41 5.24)"/><path class="cls-2" d="M18.63,33.78l-1.17,3.69a3.17,3.17,0,0,0-.17.86c.09.12.18-.06.27-.23l.2-.4a5.82,5.82,0,0,0,.41-1A12.78,12.78,0,0,0,18.63,33.78Z" transform="translate(5.41 5.24)"/><path class="cls-2" d="M21.25,38.47l.13,1.8a5,5,0,0,0,.05-1.75,9,9,0,0,1,0-1.87A3.58,3.58,0,0,0,21.25,38.47Z" transform="translate(5.41 5.24)"/><path class="cls-2" d="M20.46,29.76l.13,1.79a4.92,4.92,0,0,0,.05-1.74,8.87,8.87,0,0,1,0-1.86A3.54,3.54,0,0,0,20.46,29.76Z" transform="translate(5.41 5.24)"/><path class="cls-2" d="M21.84,30.42a16.37,16.37,0,0,1-.14,3A8.13,8.13,0,0,0,21.84,30.42Z" transform="translate(5.41 5.24)"/><path class="cls-2" d="M21.42,33.36a16.43,16.43,0,0,1-.09,3.06A8.17,8.17,0,0,0,21.42,33.36Z" transform="translate(5.41 5.24)"/></g><g class="cls-5"><path class="cls-6" d="M16.1,34.17a1.31,1.31,0,0,0,.2-.48v-.07a.76.76,0,0,0-.18.14,13,13,0,0,0-1.31,1.69,14.58,14.58,0,0,0-1.32,2.82,13,13,0,0,0,1.71-2.5Z" transform="translate(5.41 5.24)"/><path class="cls-7" d="M11.93,31.85a1.31,1.31,0,0,0,.2-.48V31.3a.62.62,0,0,0-.17.14,13,13,0,0,0-1.31,1.68,14.58,14.58,0,0,0-1.32,2.81A13,13,0,0,0,11,33.44Z" transform="translate(5.41 5.24)"/><path class="cls-8" d="M14.55,31.17a.93.93,0,0,0,.1-.33c0-.15-.09-.2-.19-.17a1.09,1.09,0,0,0-.33.25c-.39.37-3.67,4.13-3.13,4.46S14.2,31.89,14.55,31.17Z" transform="translate(5.41 5.24)"/><path class="cls-7" d="M16.43,27.91l-1,2.26a17.16,17.16,0,0,0,3.62-5.62,3.51,3.51,0,0,0-1.5,1.36A14,14,0,0,0,16.43,27.91Z" transform="translate(5.41 5.24)"/><path class="cls-8" d="M8.58,32.54c-.13.34-.18.76,0,.88s.61-.28.88-.63a6.53,6.53,0,0,1,1.15-1.17c.37-.29.76-.5,1.13-.79a7.67,7.67,0,0,0,2.11-2.62,21.19,21.19,0,0,0-4,2.72,4.81,4.81,0,0,0-.69.63A3.24,3.24,0,0,0,8.58,32.54Z" transform="translate(5.41 5.24)"/><path class="cls-7" d="M12.56,27.4a1.21,1.21,0,0,0-.51.82,20.71,20.71,0,0,0,5.75-3,2.42,2.42,0,0,0,.91-.91c.1-.2.14-.46,0-.55s-.28,0-.43.13a28.22,28.22,0,0,1-3.7,2.35A10.86,10.86,0,0,0,12.56,27.4Z" transform="translate(5.41 5.24)"/><path class="cls-2" d="M8.08,29.84a11,11,0,0,0,3.42-2.43,15.87,15.87,0,0,0-2.66,1.34,2.05,2.05,0,0,0-.51.43A1,1,0,0,0,8.08,29.84Z" transform="translate(5.41 5.24)"/><path class="cls-8" d="M14.53,25.73A11,11,0,0,0,18,23.29a15.93,15.93,0,0,0-2.62,1.33,2.06,2.06,0,0,0-.51.43A1,1,0,0,0,14.53,25.73Z" transform="translate(5.41 5.24)"/><path class="cls-2" d="M10.42,29.74,6.42,32a2.74,2.74,0,0,0-.76.58c.06.14.31.06.55,0l.54-.2a7.44,7.44,0,0,0,1.18-.51A10.26,10.26,0,0,0,10.42,29.74Z" transform="translate(5.41 5.24)"/><path class="cls-2" d="M12.33,35.62l-.87,1.48a3.27,3.27,0,0,0,1.12-1.34,5.38,5.38,0,0,1,1-1.49C13.15,34.4,12.71,35.07,12.33,35.62Z" transform="translate(5.41 5.24)"/><path class="cls-2" d="M15.15,28.72l-.82,1.47a3.27,3.27,0,0,0,1.11-1.33,5.36,5.36,0,0,1,1-1.48C15.94,27.46,15.5,28.13,15.15,28.72Z" transform="translate(5.41 5.24)"/><path class="cls-2" d="M17.33,28.88a11,11,0,0,1-2,2.31A5.53,5.53,0,0,0,17.33,28.88Z" transform="translate(5.41 5.24)"/><path class="cls-2" d="M16.27,31.51a11,11,0,0,1-2,2.31A5.53,5.53,0,0,0,16.27,31.51Z" transform="translate(5.41 5.24)"/></g><g class="cls-5"><path class="cls-6" d="M5.69,18.78a1.3,1.3,0,0,0,.51,0v-.06c0-.06-.07,0-.17,0a13.08,13.08,0,0,0-2.09-.35,14.42,14.42,0,0,0-3,.17,13,13,0,0,0,3,.31Z" transform="translate(5.41 5.24)"/><path class="cls-7" d="M5.27,15.72a1.3,1.3,0,0,0,.51,0v-.06c0-.06-.11-.06-.21-.08a13.07,13.07,0,0,0-2.08-.34,14.41,14.41,0,0,0-3,.18,13,13,0,0,0,3,.31Z" transform="translate(5.41 5.24)"/><path class="cls-8" d="M7.67,17.24A.92.92,0,0,0,8,17.18c.13-.06.13-.17,0-.24a1.11,1.11,0,0,0-.38-.17c-.46-.15-5.29-1.25-5.29-.64S6.88,17.28,7.67,17.24Z" transform="translate(5.41 5.24)"/><path class="cls-7" d="M10.86,17.78l-2.47.15a17.44,17.44,0,0,0,6.65.51,3.62,3.62,0,0,0-1.92-.67A14.21,14.21,0,0,0,10.86,17.78Z" transform="translate(5.41 5.24)"/><path class="cls-8" d="M3,13.16c-.35,0-.74.2-.75.42s.54.39,1,.47a6.6,6.6,0,0,1,1.54.45c.43.19.8.42,1.23.61a7.77,7.77,0,0,0,3.3.6A21.6,21.6,0,0,0,5,13.51a4.87,4.87,0,0,0-.88-.3A3.23,3.23,0,0,0,3,13.16Z" transform="translate(5.41 5.24)"/><path class="cls-7" d="M9.41,14.19a1.22,1.22,0,0,0-1-.06,21.24,21.24,0,0,0,5.46,3.55,2.49,2.49,0,0,0,1.24.37c.22,0,.47-.09.49-.23s-.16-.24-.33-.31A29.06,29.06,0,0,1,11.4,15.4,11.12,11.12,0,0,0,9.41,14.19Z" transform="translate(5.41 5.24)"/><path class="cls-2" d="M5.11,11.47a11.14,11.14,0,0,0,3.77,1.81,16.15,16.15,0,0,0-2.45-1.66,2.09,2.09,0,0,0-.62-.24A1,1,0,0,0,5.11,11.47Z" transform="translate(5.41 5.24)"/><path class="cls-8" d="M11.82,15.11a11.3,11.3,0,0,0,3.81,1.83,16.4,16.4,0,0,0-2.49-1.68,2.11,2.11,0,0,0-.62-.24A1,1,0,0,0,11.82,15.11Z" transform="translate(5.41 5.24)"/><path class="cls-2" d="M6.33,13.44,2.48,11.08a2.76,2.76,0,0,0-.87-.38c-.09.12.1.3.29.46l.43.37a7.54,7.54,0,0,0,1,.77A10.4,10.4,0,0,0,6.33,13.44Z" transform="translate(5.41 5.24)"/><path class="cls-2" d="M2.55,16.86.86,16.8a3.29,3.29,0,0,0,1.69.34,5.39,5.39,0,0,1,1.78.2C4,17,3.23,16.89,2.55,16.86Z" transform="translate(5.41 5.24)"/><path class="cls-2" d="M10.72,16.9,9,16.84a3.33,3.33,0,0,0,1.7.34,5.46,5.46,0,0,1,1.79.2C12.21,17,11.41,16.93,10.72,16.9Z" transform="translate(5.41 5.24)"/><path class="cls-2" d="M10.45,19a11.18,11.18,0,0,1-3-.68A5.63,5.63,0,0,0,10.45,19Z" transform="translate(5.41 5.24)"/><path class="cls-2" d="M7.49,17.89a11.12,11.12,0,0,1-3-.67A5.6,5.6,0,0,0,7.49,17.89Z" transform="translate(5.41 5.24)"/></g><g class="cls-5"><path class="cls-6" d="M7.78,11.27a1.24,1.24,0,0,0,.46.18h0a.88.88,0,0,0-.15-.16,13.66,13.66,0,0,0-1.69-1.21A14,14,0,0,0,3.77,8.92a13.35,13.35,0,0,0,2.46,1.55Z" transform="translate(5.41 5.24)"/><path class="cls-7" d="M8,7.46a1.24,1.24,0,0,0,.46.17h0a.88.88,0,0,0-.15-.16,13.61,13.61,0,0,0-1.68-1.2A14,14,0,0,0,4,5.12a13.3,13.3,0,0,0,2.45,1.5Z" transform="translate(5.41 5.24)"/><path class="cls-8" d="M10,10.76a.85.85,0,0,0,.31.09c.13,0,.17-.09.12-.2a1.23,1.23,0,0,0-.27-.31C9.76,10,6,7,5.73,7.48S9.33,10.45,10,10.76Z" transform="translate(5.41 5.24)"/><path class="cls-7" d="M12.57,12.62l-2.18-.93A17.77,17.77,0,0,0,16,15a3.94,3.94,0,0,0-1.44-1.39A14.1,14.1,0,0,0,12.57,12.62Z" transform="translate(5.41 5.24)"/><path class="cls-8" d="M7.33,5.15C7,5,6.62,5,6.55,5.2s.34.58.69.83A7.1,7.1,0,0,1,8.42,7.09c.31.35.56.71.87,1.06a8.14,8.14,0,0,0,2.65,2,24.08,24.08,0,0,0-3-3.8,5.3,5.3,0,0,0-.66-.65A3.24,3.24,0,0,0,7.33,5.15Z" transform="translate(5.41 5.24)"/><path class="cls-7" d="M12.47,8.8a1.23,1.23,0,0,0-.81-.46,23.92,23.92,0,0,0,3.57,5.5,2.68,2.68,0,0,0,1,.86c.19.09.43.12.5,0s-.06-.28-.18-.42a32.52,32.52,0,0,1-2.66-3.53A12.49,12.49,0,0,0,12.47,8.8Z" transform="translate(5.41 5.24)"/><path class="cls-2" d="M9.64,4.55a12.36,12.36,0,0,0,2.69,3.22,18.22,18.22,0,0,0-1.59-2.53,2.29,2.29,0,0,0-.45-.48A1,1,0,0,0,9.64,4.55Z" transform="translate(5.41 5.24)"/><path class="cls-8" d="M14.26,10.62A12.55,12.55,0,0,0,17,13.88a18.5,18.5,0,0,0-1.63-2.52,2.32,2.32,0,0,0-.46-.48A1,1,0,0,0,14.26,10.62Z" transform="translate(5.41 5.24)"/><path class="cls-2" d="M10.07,6.82,7.51,3.08a3,3,0,0,0-.63-.71c-.12.07,0,.31.1.53l.25.52a8.52,8.52,0,0,0,.63,1.12A11.38,11.38,0,0,0,10.07,6.82Z" transform="translate(5.41 5.24)"/><path class="cls-2" d="M4.52,7.62,3.09,6.84a3.45,3.45,0,0,0,1.34,1,5.52,5.52,0,0,1,1.47.94C5.76,8.35,5.1,8,4.52,7.62Z" transform="translate(5.41 5.24)"/><path class="cls-2" d="M12.73,11.77,11.33,11a3.51,3.51,0,0,0,1.36,1,5.62,5.62,0,0,1,1.48.95A3.3,3.3,0,0,0,12.73,11.77Z" transform="translate(5.41 5.24)"/><path class="cls-2" d="M11.83,13.49a11.86,11.86,0,0,1-2.36-1.87A6,6,0,0,0,11.83,13.49Z" transform="translate(5.41 5.24)"/><path class="cls-2" d="M9.62,11.26A11.79,11.79,0,0,1,7.27,9.38,5.93,5.93,0,0,0,9.62,11.26Z" transform="translate(5.41 5.24)"/></g><g class="cls-5"><path class="cls-6" d="M11.88,5.12a1.59,1.59,0,0,0,.31.48h.07a1.86,1.86,0,0,0,0-.25,16.25,16.25,0,0,0-.79-2.22A17.73,17.73,0,0,0,9.73.22,16.17,16.17,0,0,0,11,3.28Z" transform="translate(5.41 5.24)"/><path class="cls-7" d="M16.1,3.9a1.6,1.6,0,0,0,.31.48h.07a1.86,1.86,0,0,0,0-.25,16.26,16.26,0,0,0-.79-2.22A17.77,17.77,0,0,0,13.94-1a16.19,16.19,0,0,0,1.29,3.06Z" transform="translate(5.41 5.24)"/><path class="cls-8" d="M15.75,6.77a1.12,1.12,0,0,0,.23.3A.14.14,0,0,0,16.22,7a1.34,1.34,0,0,0,0-.45C16.09,6,14.5.69,14,1S15.33,6,15.75,6.77Z" transform="translate(5.41 5.24)"/><path class="cls-7" d="M17.08,9.21,15.66,6.85a21.75,21.75,0,0,0,3,6.8,4.41,4.41,0,0,0-.33-2.21A17.7,17.7,0,0,0,17.08,9.21Z" transform="translate(5.41 5.24)"/><path class="cls-8" d="M16.81.05c-.23-.32-.57-.63-.76-.53s-.06.73.1,1.19a8.13,8.13,0,0,1,.42,1.73c.06.51.06,1,.12,1.51A9.66,9.66,0,0,0,17.9,7.49a25.87,25.87,0,0,0-.35-5.33,6,6,0,0,0-.2-1A4,4,0,0,0,16.81.05Z" transform="translate(5.41 5.24)"/><path class="cls-7" d="M19.46,6A1.51,1.51,0,0,0,19,5a24.76,24.76,0,0,0-.24,7.12,3.06,3.06,0,0,0,.33,1.4c.12.21.32.42.46.38s.12-.27.1-.47a34.52,34.52,0,0,1-.18-4.83A13.1,13.1,0,0,0,19.46,6Z" transform="translate(5.41 5.24)"/><path class="cls-2" d="M19.57.45A13.38,13.38,0,0,0,20,5.06a18.79,18.79,0,0,0,.16-3.24A2.54,2.54,0,0,0,20,1.09,1.25,1.25,0,0,0,19.57.45Z" transform="translate(5.41 5.24)"/><path class="cls-8" d="M19.92,8.85a13.56,13.56,0,0,0,.4,4.65,19,19,0,0,0,.16-3.27,2.57,2.57,0,0,0-.11-.73A1.27,1.27,0,0,0,19.92,8.85Z" transform="translate(5.41 5.24)"/><path class="cls-2" d="M18.6,5.33v-5a3.35,3.35,0,0,0-.12-1c-.15,0-.21.25-.25.51l-.1.61A8.68,8.68,0,0,0,18,1.84,12.72,12.72,0,0,0,18.6,5.33Z" transform="translate(5.41 5.24)"/><path class="cls-2" d="M12.33,1.62,11.5-.06a4.06,4.06,0,0,0,.59,1.82,6.7,6.7,0,0,1,.76,1.86A3.19,3.19,0,0,0,12.33,1.62Z" transform="translate(5.41 5.24)"/><path class="cls-2" d="M17.77,8.62l-.84-1.7a4.12,4.12,0,0,0,.59,1.84,6.8,6.8,0,0,1,.81,1.86A3.24,3.24,0,0,0,17.77,8.62Z" transform="translate(5.41 5.24)"/><path class="cls-2" d="M15,9.57A13.85,13.85,0,0,1,14,6.3,7,7,0,0,0,15,9.57Z" transform="translate(5.41 5.24)"/><path class="cls-2" d="M14,6.11a13.76,13.76,0,0,1-1-3.26A6.91,6.91,0,0,0,14,6.11Z" transform="translate(5.41 5.24)"/></g><path class="cls-2" d="M20.26,44.46s11.64,5,22-7.25,5-27.24,3.49-29.88c0,0-8.23-17.23-25.25-11.35L36.66,22.62Z" transform="translate(5.41 5.24)"/><path class="cls-3" d="M20.26,44.46s11.68.4,21.14-12.2A25.55,25.55,0,0,0,46.6,17.1,22,22,0,0,0,36.92-1.5,16.06,16.06,0,0,0,31.33-4c-7.36-1.53-11.47.35-11.47.35L19.75-1.3,36.66,22.62,20.46,40.87Z" transform="translate(5.41 5.24)"/><path class="cls-4" d="M20.46,40.87s11.42.24,17.17-8.43A36,36,0,0,0,42.81,19,17.68,17.68,0,0,0,40,5.85a16.18,16.18,0,0,0-7.44-6c-9.08-3.56-12.75-1-12.75-1A188.24,188.24,0,0,1,21.09,18C21.11,26.71,20.46,40.87,20.46,40.87Z" transform="translate(5.41 5.24)"/><path class="cls-3" d="M21.1,18.29v4.2l1.23,1.38a4.14,4.14,0,0,1,.89,1.54l4.56,14.21.38-.13-4.89-15v-.57a1.3,1.3,0,0,1,1.29-1.31h.13l13.86,8.32.16-.28-13.8-8.28s-1-1.36-.93-2S24.9,19,26.68,19s16,1.5,16,1.5v-.37L26.45,18.67s-1.37-.57-1.23-1.25S27,15.94,27,15.94l14.2-8.18L41,7.4,26.33,15.85s-1.59.29-1.92-.08.24-2.28.24-2.28l9.29-13L33.46.43l-9.4,13.34a2.35,2.35,0,0,1-1.94.85c-1.41,0-1.2-2.46-1.2-2.46Z" transform="translate(5.41 5.24)"/><g class="cls-5"><path class="cls-6" d="M33.64,27.07a1.39,1.39,0,0,1-.43-.33v-.07h.23a13.91,13.91,0,0,1,2,.84,15.62,15.62,0,0,1,2.63,1.83A14,14,0,0,1,35.33,28Z" transform="translate(5.41 5.24)"/><path class="cls-7" d="M35.61,24.62a1.39,1.39,0,0,1-.43-.33v-.07h.23a13.93,13.93,0,0,1,2,.84A15.63,15.63,0,0,1,40,26.89a14,14,0,0,1-2.78-1.27Z" transform="translate(5.41 5.24)"/><path class="cls-8" d="M32.7,24.62a1,1,0,0,1-.26-.24.15.15,0,0,1,.08-.24,1.15,1.15,0,0,1,.42.06c.54.14,5.38,1.84,5.08,2.39S33.33,25.11,32.7,24.62Z" transform="translate(5.41 5.24)"/><path class="cls-7" d="M29.61,23.37l2.09,1.46a18.21,18.21,0,0,1-6.07-3.15,3.68,3.68,0,0,1,2,.46A14.88,14.88,0,0,1,29.61,23.37Z" transform="translate(5.41 5.24)"/><path class="cls-8" d="M38.94,23.62c.29.24.56.58.45.78s-.69,0-1.11-.13a7,7,0,0,0-1.6-.45c-.48-.07-.93-.08-1.41-.14a8.19,8.19,0,0,1-3.22-1.27,22.39,22.39,0,0,1,5,.44,5.15,5.15,0,0,1,.94.22A3.48,3.48,0,0,1,38.94,23.62Z" transform="translate(5.41 5.24)"/><path class="cls-7" d="M32.74,21.06a1.29,1.29,0,0,1,.88.47,21.52,21.52,0,0,1-6.62.12,2.54,2.54,0,0,1-1.27-.35c-.18-.12-.36-.33-.31-.46s.26-.12.44-.09a29.4,29.4,0,0,0,4.46.26A11.35,11.35,0,0,1,32.74,21.06Z" transform="translate(5.41 5.24)"/><path class="cls-2" d="M38,21a11.61,11.61,0,0,1-4.29-.47,16.62,16.62,0,0,1,3-.11,2.19,2.19,0,0,1,.67.12A1.1,1.1,0,0,1,38,21Z" transform="translate(5.41 5.24)"/><path class="cls-8" d="M30.15,20.56a11.47,11.47,0,0,1-4.25-.47,16.45,16.45,0,0,1,3-.11,2.16,2.16,0,0,1,.67.12A1.08,1.08,0,0,1,30.15,20.56Z" transform="translate(5.41 5.24)"/><path class="cls-2" d="M35.85,22.06h4.67a2.93,2.93,0,0,1,1,.14c0,.15-.25.2-.5.24l-.59.09a7.83,7.83,0,0,1-1.32.12A11,11,0,0,1,35.85,22.06Z" transform="translate(5.41 5.24)"/><path class="cls-2" d="M37.43,27.12,39,28a3.52,3.52,0,0,1-1.64-.63,5.78,5.78,0,0,0-1.69-.81C36.07,26.39,36.81,26.77,37.43,27.12Z" transform="translate(5.41 5.24)"/><path class="cls-2" d="M30.19,22.7l1.52.87A3.47,3.47,0,0,1,30,22.94a5.69,5.69,0,0,0-1.67-.8C28.84,22,29.57,22.35,30.19,22.7Z" transform="translate(5.41 5.24)"/><path class="cls-2" d="M29.33,24.62a11.68,11.68,0,0,0,3,1A5.88,5.88,0,0,1,29.33,24.62Z" transform="translate(5.41 5.24)"/><path class="cls-2" d="M32.51,25.3a11.74,11.74,0,0,0,3,1A5.91,5.91,0,0,1,32.51,25.3Z" transform="translate(5.41 5.24)"/></g><g class="cls-5"><path class="cls-6" d="M20.94,35.45a2.45,2.45,0,0,1,.06-.56v.16a20.77,20.77,0,0,1,.13,2.17,27,27,0,0,1-.25,3.31,22,22,0,0,1-.06-3.14Z" transform="translate(5.41 5.24)"/><path class="cls-7" d="M22.89,35.34a2.45,2.45,0,0,1,.06-.56v.16a20.77,20.77,0,0,1,.13,2.17,27,27,0,0,1-.25,3.31,22,22,0,0,1-.06-3.14Z" transform="translate(5.41 5.24)"/><path class="cls-8" d="M22,33.05a1.77,1.77,0,0,1,.06-.37c0-.15.12-.17.16-.1a1.27,1.27,0,0,1,.09.37c.08.52.56,5.49.16,5.63S22,33.9,22,33.05Z" transform="translate(5.41 5.24)"/><path class="cls-7" d="M21.82,29.76l-.21,2.64a29.1,29.1,0,0,1,0-6.93A4.52,4.52,0,0,1,22,27.36C22,28.14,21.89,29,21.82,29.76Z" transform="translate(5.41 5.24)"/><path class="cls-8" d="M24.45,37.27c0,.39-.16.84-.31.89s-.23-.51-.26-1a9.26,9.26,0,0,0-.22-1.54c-.1-.42-.23-.78-.34-1.2a12,12,0,0,1-.24-3.4,23.32,23.32,0,0,1,1.25,4.2,6.46,6.46,0,0,1,.16.89A5.69,5.69,0,0,1,24.45,37.27Z" transform="translate(5.41 5.24)"/><path class="cls-7" d="M24.06,30.62a2,2,0,0,1,0,1,19,19,0,0,1-2-5.12,3.32,3.32,0,0,1-.18-1.24.82.82,0,0,1,.17-.56c.09-.05.14.12.18.28a29.37,29.37,0,0,0,1.1,3.71A10.7,10.7,0,0,1,24.06,30.62Z" transform="translate(5.41 5.24)"/><path class="cls-2" d="M25.63,34.72a12.4,12.4,0,0,1-1-3.7,14.3,14.3,0,0,1,1,2.32,2.59,2.59,0,0,1,.13.62A1.92,1.92,0,0,1,25.63,34.72Z" transform="translate(5.41 5.24)"/><path class="cls-8" d="M23.58,28.25a12.26,12.26,0,0,1-1-3.67,14.12,14.12,0,0,1,1,2.3,2.57,2.57,0,0,1,.13.61A1.91,1.91,0,0,1,23.58,28.25Z" transform="translate(5.41 5.24)"/><path class="cls-2" d="M24.42,33.76l1.36,3.7a3.27,3.27,0,0,1,.21.87c-.08.12-.19-.06-.29-.23l-.23-.4a6.16,6.16,0,0,1-.46-1A13.1,13.1,0,0,1,24.42,33.76Z" transform="translate(5.41 5.24)"/><path class="cls-2" d="M22,38.47v1.8a5,5,0,0,1-.14-1.76,9,9,0,0,0,0-1.87A3.64,3.64,0,0,1,22,38.47Z" transform="translate(5.41 5.24)"/><path class="cls-2" d="M22.33,29.75v1.79a5,5,0,0,1-.14-1.74,8.87,8.87,0,0,0,0-1.86A3.59,3.59,0,0,1,22.33,29.75Z" transform="translate(5.41 5.24)"/><path class="cls-2" d="M21,30.42a16.52,16.52,0,0,0,.29,3A8.22,8.22,0,0,1,21,30.42Z" transform="translate(5.41 5.24)"/><path class="cls-2" d="M21.59,33.36a16.6,16.6,0,0,0,.3,3.06A8.25,8.25,0,0,1,21.59,33.36Z" transform="translate(5.41 5.24)"/></g><g class="cls-5"><path class="cls-6" d="M27,34.15a1.38,1.38,0,0,1-.23-.49v-.07a.6.6,0,0,1,.18.14,14,14,0,0,1,1.41,1.69,15.5,15.5,0,0,1,1.48,2.84A14,14,0,0,1,28,35.74Z" transform="translate(5.41 5.24)"/><path class="cls-7" d="M31.1,31.78a1.38,1.38,0,0,1-.23-.49v-.07a.6.6,0,0,1,.18.14,14,14,0,0,1,1.42,1.69A15.5,15.5,0,0,1,34,35.89a14,14,0,0,1-1.87-2.51Z" transform="translate(5.41 5.24)"/><path class="cls-8" d="M28.41,31.12a1,1,0,0,1-.12-.33c0-.15.08-.2.19-.17a1.17,1.17,0,0,1,.35.25c.42.37,3.94,4.14,3.41,4.48S28.79,31.85,28.41,31.12Z" transform="translate(5.41 5.24)"/><path class="cls-7" d="M26.33,27.86l1.17,2.26a18.18,18.18,0,0,1-3.93-5.6,3.72,3.72,0,0,1,1.58,1.34A14.8,14.8,0,0,1,26.33,27.86Z" transform="translate(5.41 5.24)"/><path class="cls-8" d="M34.55,32.46c.15.34.22.77,0,.89s-.64-.28-.94-.63a7.08,7.08,0,0,0-1.18-1.1c-.39-.29-.8-.5-1.19-.79A8.23,8.23,0,0,1,29,28.2a22.84,22.84,0,0,1,4.23,2.71,5.23,5.23,0,0,1,.74.63A3.47,3.47,0,0,1,34.55,32.46Z" transform="translate(5.41 5.24)"/><path class="cls-7" d="M30.23,27.3a1.29,1.29,0,0,1,.56.83,22,22,0,0,1-6-3,2.56,2.56,0,0,1-1-.9c-.11-.19-.17-.45-.06-.55s.29,0,.44.12A29.94,29.94,0,0,0,28,26.11,11.59,11.59,0,0,1,30.23,27.3Z" transform="translate(5.41 5.24)"/><path class="cls-2" d="M34.92,29.73a11.83,11.83,0,0,1-3.59-2.43,17.05,17.05,0,0,1,2.76,1.32,2.23,2.23,0,0,1,.54.43A1.08,1.08,0,0,1,34.92,29.73Z" transform="translate(5.41 5.24)"/><path class="cls-8" d="M28.15,25.62a11.65,11.65,0,0,1-3.58-2.4,16.8,16.8,0,0,1,2.76,1.34,2.19,2.19,0,0,1,.54.42A1.07,1.07,0,0,1,28.15,25.62Z" transform="translate(5.41 5.24)"/><path class="cls-2" d="M32.53,29.62l4.16,2.23a3,3,0,0,1,.81.58c-.06.14-.32.06-.56,0l-.57-.2a8.06,8.06,0,0,1-1.24-.51A11.14,11.14,0,0,1,32.53,29.62Z" transform="translate(5.41 5.24)"/><path class="cls-2" d="M30.85,35.62l1,1.49a3.55,3.55,0,0,1-1.2-1.35,5.79,5.79,0,0,0-1.12-1.5C30,34.36,30.47,35,30.85,35.62Z" transform="translate(5.41 5.24)"/><path class="cls-2" d="M27.67,28.62l.95,1.47a3.5,3.5,0,0,1-1.2-1.33,5.7,5.7,0,0,0-1.09-1.44C26.81,27.4,27.33,28.07,27.67,28.62Z" transform="translate(5.41 5.24)"/><path class="cls-2" d="M25.51,28.84a11.75,11.75,0,0,0,2.16,2.31A5.91,5.91,0,0,1,25.51,28.84Z" transform="translate(5.41 5.24)"/><path class="cls-2" d="M26.68,31.47a11.81,11.81,0,0,0,2.17,2.32A6,6,0,0,1,26.68,31.47Z" transform="translate(5.41 5.24)"/></g><g class="cls-5"><path class="cls-6" d="M36.82,18.5a1.37,1.37,0,0,1-.53,0s-.05,0,0-.06a.34.34,0,0,1,.21-.09A13.44,13.44,0,0,1,38.63,18a15.25,15.25,0,0,1,3.17.12,13.57,13.57,0,0,1-3.06.37Z" transform="translate(5.41 5.24)"/><path class="cls-7" d="M37.1,15.38a1.37,1.37,0,0,1-.53,0s-.05,0,0-.06.11-.07.21-.09a13.46,13.46,0,0,1,2.13-.4,15.25,15.25,0,0,1,3.16.11,13.58,13.58,0,0,1-3.05.38Z" transform="translate(5.41 5.24)"/><path class="cls-8" d="M34.71,17a1,1,0,0,1-.35-.06c-.14-.06-.14-.17-.06-.25a1.1,1.1,0,0,1,.38-.18c.52-.18,5.43-1.37,5.49-.75S35.52,17,34.71,17Z" transform="translate(5.41 5.24)"/><path class="cls-7" d="M31.47,17.62l2.53.1a17.75,17.75,0,0,1-6.74.64,3.57,3.57,0,0,1,1.91-.74A14.57,14.57,0,0,1,31.47,17.62Z" transform="translate(5.41 5.24)"/><path class="cls-8" d="M39.27,12.73c.37,0,.78.19.8.41s-.54.41-1,.5a6.73,6.73,0,0,0-1.56.49c-.43.2-.81.44-1.23.64a7.93,7.93,0,0,1-3.35.68,21.53,21.53,0,0,1,4.31-2.32,5,5,0,0,1,.89-.33A3.38,3.38,0,0,1,39.27,12.73Z" transform="translate(5.41 5.24)"/><path class="cls-7" d="M32.77,13.92a1.26,1.26,0,0,1,1-.08,20.8,20.8,0,0,1-5.44,3.7,2.47,2.47,0,0,1-1.24.39c-.22,0-.48-.08-.51-.22s.15-.24.31-.32a28.44,28.44,0,0,0,3.82-2.2A11,11,0,0,1,32.77,13.92Z" transform="translate(5.41 5.24)"/><path class="cls-2" d="M37,11.07A11.15,11.15,0,0,1,33.26,13a16,16,0,0,1,2.44-1.74,2.11,2.11,0,0,1,.62-.26A1.08,1.08,0,0,1,37,11.07Z" transform="translate(5.41 5.24)"/><path class="cls-8" d="M30.33,14.91a11.1,11.1,0,0,1-3.77,1.92A15.94,15.94,0,0,1,29,15.09a2.09,2.09,0,0,1,.62-.26A1.07,1.07,0,0,1,30.33,14.91Z" transform="translate(5.41 5.24)"/><path class="cls-2" d="M35.87,13.09l3.84-2.47a2.81,2.81,0,0,1,.88-.41c.1.12-.09.3-.28.47l-.43.39a7.5,7.5,0,0,1-1,.81A10.52,10.52,0,0,1,35.87,13.09Z" transform="translate(5.41 5.24)"/><path class="cls-2" d="M40,16.48l1.74-.1a3.39,3.39,0,0,1-1.73.38,5.6,5.6,0,0,0-1.83.24C38.44,16.62,39.26,16.52,40,16.48Z" transform="translate(5.41 5.24)"/><path class="cls-2" d="M31.57,16.69l1.76-.07a3.37,3.37,0,0,1-1.72.38,5.54,5.54,0,0,0-1.81.24C30.06,16.82,30.87,16.73,31.57,16.69Z" transform="translate(5.41 5.24)"/><path class="cls-2" d="M32,18.78A11.3,11.3,0,0,0,35,18,5.69,5.69,0,0,1,32,18.78Z" transform="translate(5.41 5.24)"/><path class="cls-2" d="M34.92,17.62a11.34,11.34,0,0,0,3-.74A5.71,5.71,0,0,1,34.92,17.62Z" transform="translate(5.41 5.24)"/></g><g class="cls-5"><path class="cls-6" d="M34.33,10.94a1.25,1.25,0,0,1-.46.19h-.06A1.22,1.22,0,0,1,34,11a13.53,13.53,0,0,1,1.63-1.34,14.16,14.16,0,0,1,2.74-1.21,13.34,13.34,0,0,1-2.45,1.64Z" transform="translate(5.41 5.24)"/><path class="cls-7" d="M33.88,7.09a1.25,1.25,0,0,1-.46.19h-.06a1.22,1.22,0,0,1,.15-.17,13.54,13.54,0,0,1,1.66-1.26,14.17,14.17,0,0,1,2.7-1.25,13.35,13.35,0,0,1-2.44,1.64Z" transform="translate(5.41 5.24)"/><path class="cls-8" d="M32,10.47a.86.86,0,0,1-.31.1c-.14,0-.18-.09-.13-.19a1.2,1.2,0,0,1,.26-.32c.38-.38,4.13-3.55,4.38-3S32.7,10.14,32,10.47Z" transform="translate(5.41 5.24)"/><path class="cls-7" d="M29.48,12.41l2.17-1a17.43,17.43,0,0,1-5.49,3.47,3.81,3.81,0,0,1,1.39-1.46A13.89,13.89,0,0,1,29.48,12.41Z" transform="translate(5.41 5.24)"/><path class="cls-8" d="M34.47,4.73c.32-.12.72-.17.81,0s-.32.6-.66.86A7,7,0,0,0,33.46,6.7c-.3.36-.54.74-.83,1.1a8,8,0,0,1-2.6,2,23.6,23.6,0,0,1,2.88-3.92,5.23,5.23,0,0,1,.64-.67A3.25,3.25,0,0,1,34.47,4.73Z" transform="translate(5.41 5.24)"/><path class="cls-7" d="M29.38,8.57a1.22,1.22,0,0,1,.8-.49,23.29,23.29,0,0,1-3.34,5.63,2.6,2.6,0,0,1-.92.89c-.19.09-.43.13-.51,0s0-.28.16-.42a31.53,31.53,0,0,0,2.52-3.56A12.18,12.18,0,0,1,29.38,8.57Z" transform="translate(5.41 5.24)"/><path class="cls-2" d="M32.05,4.19a12.14,12.14,0,0,1-2.56,3.33A17.87,17.87,0,0,1,31,4.92a2.25,2.25,0,0,1,.44-.5A1,1,0,0,1,32.05,4.19Z" transform="translate(5.41 5.24)"/><path class="cls-8" d="M27.67,10.49a12.17,12.17,0,0,1-2.56,3.34,17.94,17.94,0,0,1,1.49-2.61,2.26,2.26,0,0,1,.44-.5A1,1,0,0,1,27.67,10.49Z" transform="translate(5.41 5.24)"/><path class="cls-2" d="M31.73,6.5l2.43-3.88a3,3,0,0,1,.6-.74c.12.06,0,.31-.08.54L34.45,3a8.4,8.4,0,0,1-.59,1.16A11.23,11.23,0,0,1,31.73,6.5Z" transform="translate(5.41 5.24)"/><path class="cls-2" d="M37.45,7.16l1.44-.83a3.44,3.44,0,0,1-1.33,1.08,5.52,5.52,0,0,0-1.46,1C36.21,7.92,36.87,7.5,37.45,7.16Z" transform="translate(5.41 5.24)"/><path class="cls-2" d="M29.27,11.57l1.43-.83a3.44,3.44,0,0,1-1.37,1.08,5.5,5.5,0,0,0-1.46,1C28,12.32,28.7,11.9,29.27,11.57Z" transform="translate(5.41 5.24)"/><path class="cls-2" d="M30.27,13.28a11.62,11.62,0,0,0,2.31-2A5.85,5.85,0,0,1,30.27,13.28Z" transform="translate(5.41 5.24)"/><path class="cls-2" d="M32.4,11a11.63,11.63,0,0,0,2.31-2A5.85,5.85,0,0,1,32.4,11Z" transform="translate(5.41 5.24)"/></g><g class="cls-5"><path class="cls-6" d="M29.8,4.84a1.56,1.56,0,0,1-.29.49h-.07a1.9,1.9,0,0,1,0-.25,16,16,0,0,1,.69-2.26,17.5,17.5,0,0,1,1.62-3A16,16,0,0,1,30.6,3Z" transform="translate(5.41 5.24)"/><path class="cls-7" d="M25.46,3.75a1.57,1.57,0,0,1-.29.49H25.1a1.9,1.9,0,0,1,0-.25,16,16,0,0,1,.69-2.25,17.52,17.52,0,0,1,1.62-3,16,16,0,0,1-1.08,3.15Z" transform="translate(5.41 5.24)"/><path class="cls-8" d="M26,6.62a1.09,1.09,0,0,1-.22.31c-.12.1-.22,0-.24-.06a1.33,1.33,0,0,1,0-.46c.1-.59,1.44-5.94,2-5.68S26.33,5.84,26,6.62Z" transform="translate(5.41 5.24)"/><path class="cls-7" d="M24.75,9.1l1.31-2.41a21.24,21.24,0,0,1-2.73,6.93,4.36,4.36,0,0,1,.31-2.23A17.24,17.24,0,0,1,24.75,9.1Z" transform="translate(5.41 5.24)"/><path class="cls-8" d="M24.56-.09c.21-.33.54-.66.74-.56s.1.73,0,1.19A8.06,8.06,0,0,0,25,2.29V3.81A9.51,9.51,0,0,1,24,7.4a25.82,25.82,0,0,1,.08-5.35,5.93,5.93,0,0,1,.15-1A4,4,0,0,1,24.56-.09Z" transform="translate(5.41 5.24)"/><path class="cls-7" d="M22.2,6a1.48,1.48,0,0,1,.41-1,24.85,24.85,0,0,1,.59,7.12,3,3,0,0,1-.26,1.41c-.11.21-.3.43-.44.39s-.17-.28-.17-.45a34.48,34.48,0,0,0,0-4.83A13.12,13.12,0,0,1,22.2,6Z" transform="translate(5.41 5.24)"/><path class="cls-2" d="M21.8.41A13.34,13.34,0,0,1,21.63,5a18.87,18.87,0,0,1-.3-3.24,2.52,2.52,0,0,1,.08-.73A1.22,1.22,0,0,1,21.8.41Z" transform="translate(5.41 5.24)"/><path class="cls-8" d="M21.88,8.83a13.49,13.49,0,0,1-.17,4.66,19.13,19.13,0,0,1-.32-3.27,2.55,2.55,0,0,1,.08-.74A1.23,1.23,0,0,1,21.88,8.83Z" transform="translate(5.41 5.24)"/><path class="cls-2" d="M23,5.26l-.29-5a3.34,3.34,0,0,1,.07-1c.15,0,.22.24.27.5l.13.61a8.73,8.73,0,0,1,.21,1.38A12.64,12.64,0,0,1,23,5.26Z" transform="translate(5.41 5.24)"/><path class="cls-2" d="M29.16,1.35l.75-1.73a4,4,0,0,1-.5,1.86,6.61,6.61,0,0,0-.68,1.88A3.17,3.17,0,0,1,29.16,1.35Z" transform="translate(5.41 5.24)"/><path class="cls-2" d="M24,8.56l.76-1.73a4.06,4.06,0,0,1-.51,1.86,6.66,6.66,0,0,0-.67,1.93A3.2,3.2,0,0,1,24,8.56Z" transform="translate(5.41 5.24)"/><path class="cls-2" d="M26.89,9.41a13.65,13.65,0,0,0,.82-3.32A6.86,6.86,0,0,1,26.89,9.41Z" transform="translate(5.41 5.24)"/><path class="cls-2" d="M27.7,5.9a13.59,13.59,0,0,0,.82-3.28A6.83,6.83,0,0,1,27.7,5.9Z" transform="translate(5.41 5.24)"/></g></g><path class="cls-2" d="M91.18,18.17S88.94,36,76.71,40.08s-22.81-4.16-24.39-6c0,0-8.79-13.1.85-24.28L67.45,31.86Z" transform="translate(5.41 5.24)"/><path class="cls-3" d="M88.85,26s-3.32,8.71-15.57,12.08a21.25,21.25,0,0,1-13-.46A17.66,17.66,0,0,1,49,25.06a12.71,12.71,0,0,1-.25-4.93c1-6,3.71-8.61,3.71-8.61l2.57.9L67.48,31.87l18.65-6.75Z" transform="translate(5.41 5.24)"/><path class="cls-4" d="M86.11,25.11s-3.34,8.5-11.56,10.26a30,30,0,0,1-11.64,0,14.41,14.41,0,0,1-9.18-5.87,12.82,12.82,0,0,1-2.4-7.34c0-7.94,3.69-9.76,3.69-9.76a130.72,130.72,0,0,0,13.63,6.47C75.33,21.47,86.11,25.11,86.11,25.11Z" transform="translate(5.41 5.24)"/><path class="cls-3" d="M68.91,19l3.2,1.2.66,1.35a3.28,3.28,0,0,0,.89,1.12l9.26,7.5-.21.24L73,22.4l-.47-.18a1.08,1.08,0,0,0-1.39.63l0,.05h0l2,12.67h-.26L70.85,23s-.72-1.15-1.2-1.27S68.3,22,67.8,23.32s-3.7,12.31-3.7,12.31l-.29-.07L67.56,23s0-1.19-.57-1.29-1.65.86-1.65.86L54.83,30.83l-.2-.21,10.86-8.49s.7-1.11.52-1.46-1.81-.49-1.81-.49L51.42,23.34l.09-.38,13.07-3.11a1.93,1.93,0,0,0,1.24-1.21c.46-1-1.52-1.64-1.52-1.64Z" transform="translate(5.41 5.24)"/><g class="cls-5"><path class="cls-6" d="M71.74,30.9a1.08,1.08,0,0,0-.12-.41h-.05c-.05,0,0,.1,0,.18a10.77,10.77,0,0,0,0,1.74,12,12,0,0,0,.58,2.46A10.78,10.78,0,0,0,72,32.41Z" transform="translate(5.41 5.24)"/><path class="cls-7" d="M69.33,31.62a1.08,1.08,0,0,0-.12-.41h-.05c-.05,0,0,.1,0,.18a10.77,10.77,0,0,0,0,1.74,12,12,0,0,0,.58,2.46,10.78,10.78,0,0,0-.18-2.46Z" transform="translate(5.41 5.24)"/><path class="cls-8" d="M70.2,29.5a.76.76,0,0,0-.1-.26c-.07-.1-.16-.08-.2,0a.9.9,0,0,0-.08.33c-.06.44-.24,4.51.26,4.44S70.33,30.14,70.2,29.5Z" transform="translate(5.41 5.24)"/><path class="cls-7" d="M70.18,26.84l.47,2a14.25,14.25,0,0,0-.54-5.44A2.92,2.92,0,0,0,69.84,25,11.63,11.63,0,0,0,70.18,26.84Z" transform="translate(5.41 5.24)"/><path class="cls-8" d="M67.55,33.83c.09.28.27.58.45.56s.24-.5.24-.86a5.44,5.44,0,0,1,.15-1.31c.09-.37.22-.71.32-1.08a6.38,6.38,0,0,0,0-2.75,17.66,17.66,0,0,0-1.17,3.8,4,4,0,0,0-.12.76A2.68,2.68,0,0,0,67.55,33.83Z" transform="translate(5.41 5.24)"/><path class="cls-7" d="M67.48,28.5a1,1,0,0,0,.09.79,17.2,17.2,0,0,0,2.1-4.9,2,2,0,0,0,.12-1c0-.17-.14-.36-.26-.37s-.17.16-.21.3a23.45,23.45,0,0,1-1.16,3.4A9,9,0,0,0,67.48,28.5Z" transform="translate(5.41 5.24)"/><path class="cls-2" d="M65.87,32.37a9.13,9.13,0,0,0,.94-3.31,13.21,13.21,0,0,0-1,2.23,1.71,1.71,0,0,0-.11.53A.85.85,0,0,0,65.87,32.37Z" transform="translate(5.41 5.24)"/><path class="cls-8" d="M67.88,26.43a9.13,9.13,0,0,0,.94-3.31,13.21,13.21,0,0,0-1,2.23,1.71,1.71,0,0,0-.11.53A.85.85,0,0,0,67.88,26.43Z" transform="translate(5.41 5.24)"/><path class="cls-2" d="M67.33,31.1,66,34.56a2.28,2.28,0,0,0-.19.76c.11.06.23-.12.33-.3l.24-.4a6.21,6.21,0,0,0,.49-.94A8.55,8.55,0,0,0,67.33,31.1Z" transform="translate(5.41 5.24)"/><path class="cls-2" d="M70.63,33.71l.19,1.38a2.72,2.72,0,0,0,0-1.42,4.45,4.45,0,0,1-.09-1.47A2.38,2.38,0,0,0,70.63,33.71Z" transform="translate(5.41 5.24)"/><path class="cls-2" d="M69.49,27.08l.19,1.38a2.72,2.72,0,0,0,0-1.42,4.45,4.45,0,0,1-.09-1.47C69.33,25.87,69.41,26.52,69.49,27.08Z" transform="translate(5.41 5.24)"/><path class="cls-2" d="M71.21,27a9.13,9.13,0,0,1-.12,2.51A4.6,4.6,0,0,0,71.21,27Z" transform="translate(5.41 5.24)"/><path class="cls-2" d="M70.75,29.55a9.13,9.13,0,0,1-.12,2.51A4.6,4.6,0,0,0,70.75,29.55Z" transform="translate(5.41 5.24)"/></g><g class="cls-5"><path class="cls-6" d="M81.92,23.89a2,2,0,0,0-.44-.12h-.05a.65.65,0,0,0,.14.09,16.55,16.55,0,0,0,1.58.72,21.6,21.6,0,0,0,2.55.77,17.46,17.46,0,0,0-2.32-1Z" transform="translate(5.41 5.24)"/><path class="cls-7" d="M81.24,25.31a2,2,0,0,0-.44-.12h-.05a.65.65,0,0,0,.14.09,16.55,16.55,0,0,0,1.58.72,21.6,21.6,0,0,0,2.55.77,17.47,17.47,0,0,0-2.32-1Z" transform="translate(5.41 5.24)"/><path class="cls-8" d="M79.79,24A1.44,1.44,0,0,0,79.5,24c-.13,0-.16,0-.12.09a1,1,0,0,0,.25.18c.36.21,3.93,2,4.16,1.75S80.45,24.21,79.79,24Z" transform="translate(5.41 5.24)"/><path class="cls-7" d="M77.33,22.9l2,.62a23.51,23.51,0,0,0-5.21-2,3.63,3.63,0,0,0,1.33.81C76.12,22.52,76.75,22.71,77.33,22.9Z" transform="translate(5.41 5.24)"/><path class="cls-8" d="M82.19,27c.31.08.68.12.76,0s-.31-.32-.64-.47a7.33,7.33,0,0,1-1.1-.62c-.29-.2-.51-.4-.8-.6a9.57,9.57,0,0,0-2.48-1.16,18.39,18.39,0,0,0,2.77,2.13,5.1,5.1,0,0,0,.62.37A4.56,4.56,0,0,0,82.19,27Z" transform="translate(5.41 5.24)"/><path class="cls-7" d="M77.33,24.82a1.65,1.65,0,0,0,.76.29,15,15,0,0,0-3.23-3,2.67,2.67,0,0,0-.88-.5.77.77,0,0,0-.48,0c-.07,0,0,.14.16.22a23.38,23.38,0,0,1,2.42,2A8.46,8.46,0,0,0,77.33,24.82Z" transform="translate(5.41 5.24)"/><path class="cls-2" d="M79.93,27.17a9.79,9.79,0,0,0-2.46-1.82,11.21,11.21,0,0,0,1.44,1.39,2,2,0,0,0,.42.27A1.55,1.55,0,0,0,79.93,27.17Z" transform="translate(5.41 5.24)"/><path class="cls-8" d="M75.7,23.77A9.79,9.79,0,0,0,73.24,22a11.21,11.21,0,0,0,1.44,1.39,2,2,0,0,0,.42.27A1.55,1.55,0,0,0,75.7,23.77Z" transform="translate(5.41 5.24)"/><path class="cls-2" d="M79.59,26l2.35,2.08a2.56,2.56,0,0,0,.58.41c.11,0,0-.16-.08-.28l-.23-.28a4.78,4.78,0,0,0-.57-.61A10.34,10.34,0,0,0,79.59,26Z" transform="translate(5.41 5.24)"/><path class="cls-2" d="M83.84,25.62l1.36.49a4,4,0,0,0-1.26-.61,7.15,7.15,0,0,1-1.38-.58C82.67,25.13,83.33,25.38,83.84,25.62Z" transform="translate(5.41 5.24)"/><path class="cls-2" d="M77.2,23.31l1.36.49a4,4,0,0,0-1.26-.61,7.15,7.15,0,0,1-1.38-.58C76,22.86,76.65,23.11,77.2,23.31Z" transform="translate(5.41 5.24)"/><path class="cls-2" d="M78.12,22.5a13.21,13.21,0,0,1,2.21,1.12A6.57,6.57,0,0,0,78.12,22.5Z" transform="translate(5.41 5.24)"/><path class="cls-2" d="M80.15,23.78a13.21,13.21,0,0,1,2.2,1.11A6.57,6.57,0,0,0,80.15,23.78Z" transform="translate(5.41 5.24)"/></g><g class="cls-5"><path class="cls-6" d="M79.09,28a1.08,1.08,0,0,0-.29-.31h-.06a.27.27,0,0,0,.05.18,10.77,10.77,0,0,0,.83,1.53,12,12,0,0,0,1.66,1.9A10.78,10.78,0,0,0,80,29.22Z" transform="translate(5.41 5.24)"/><path class="cls-7" d="M76.05,30.37a1.08,1.08,0,0,0-.29-.31H75.7a.27.27,0,0,0,.05.18,10.77,10.77,0,0,0,.83,1.53,12,12,0,0,0,1.66,1.9,10.78,10.78,0,0,0-1.3-2Z" transform="translate(5.41 5.24)"/><path class="cls-8" d="M76.33,28.19a.76.76,0,0,0-.21-.18c-.11,0-.18,0-.18.09a.9.9,0,0,0,.08.33c.15.42,1.9,4.1,2.31,3.8S76.81,28.68,76.33,28.19Z" transform="translate(5.41 5.24)"/><path class="cls-7" d="M74.56,25.71l1.34,1.52a14.25,14.25,0,0,0-3-4.55,2.92,2.92,0,0,0,.53,1.57A11.63,11.63,0,0,0,74.56,25.71Z" transform="translate(5.41 5.24)"/><path class="cls-8" d="M75.51,33.12c.21.21.51.39.66.28s0-.55-.19-.87a5.43,5.43,0,0,1-.49-1.23c-.09-.37-.13-.73-.23-1.11A6.38,6.38,0,0,0,74,27.75a17.66,17.66,0,0,0,.75,3.87,4,4,0,0,0,.25.73A2.68,2.68,0,0,0,75.51,33.12Z" transform="translate(5.41 5.24)"/><path class="cls-7" d="M73,28.44a1,1,0,0,0,.45.65A17.2,17.2,0,0,0,73,23.78a2,2,0,0,0-.39-1c-.11-.14-.29-.26-.4-.21s-.07.22,0,.36a23.45,23.45,0,0,1,.57,3.55A9,9,0,0,0,73,28.44Z" transform="translate(5.41 5.24)"/><path class="cls-2" d="M73.33,32.62a9.13,9.13,0,0,0-.72-3.37,13.21,13.21,0,0,0,.15,2.44,1.71,1.71,0,0,0,.15.52A.85.85,0,0,0,73.33,32.62Z" transform="translate(5.41 5.24)"/><path class="cls-8" d="M72.33,26.42a9.13,9.13,0,0,0-.72-3.37,13.21,13.21,0,0,0,.15,2.44,1.71,1.71,0,0,0,.15.52A.85.85,0,0,0,72.33,26.42Z" transform="translate(5.41 5.24)"/><path class="cls-2" d="M74,30.82l.4,3.7a2.28,2.28,0,0,0,.19.76c.12,0,.14-.22.15-.42v-.47a6.21,6.21,0,0,0,0-1.06A8.56,8.56,0,0,0,74,30.82Z" transform="translate(5.41 5.24)"/><path class="cls-2" d="M79,31.29l.82,1.13a2.72,2.72,0,0,0-.64-1.27,4.45,4.45,0,0,1-.77-1.26C78.33,30.29,78.68,30.84,79,31.29Z" transform="translate(5.41 5.24)"/><path class="cls-2" d="M74.76,26.93l.82,1.13a2.72,2.72,0,0,0-.64-1.27,4.45,4.45,0,0,1-.77-1.26C74.07,25.92,74.43,26.48,74.76,26.93Z" transform="translate(5.41 5.24)"/><path class="cls-2" d="M75.55,25.38a9.13,9.13,0,0,1,1.07,2.24A4.6,4.6,0,0,0,75.55,25.38Z" transform="translate(5.41 5.24)"/><path class="cls-2" d="M77.17,27a9.13,9.13,0,0,1,1.07,2.27A4.6,4.6,0,0,0,77.17,27Z" transform="translate(5.41 5.24)"/></g><g class="cls-5"><path class="cls-6" d="M64.33,30.79a1.08,1.08,0,0,0,.13-.41v0s-.09.07-.13.13a10.77,10.77,0,0,0-.94,1.47,12,12,0,0,0-.86,2.38,10.78,10.78,0,0,0,1.2-2.15Z" transform="translate(5.41 5.24)"/><path class="cls-7" d="M61.86,30.1a1.08,1.08,0,0,0,.13-.41v0s-.09.07-.13.13a10.77,10.77,0,0,0-.94,1.47A12,12,0,0,0,60,33.62a10.78,10.78,0,0,0,1.2-2.15Z" transform="translate(5.41 5.24)"/><path class="cls-8" d="M63.78,28.78a.76.76,0,0,0,.06-.27c0-.12-.09-.16-.17-.12a.9.9,0,0,0-.25.23c-.29.34-2.67,3.64-2.22,3.86S63.56,29.39,63.78,28.78Z" transform="translate(5.41 5.24)"/><path class="cls-7" d="M65.22,26.55l-.69,1.91a14.25,14.25,0,0,0,2.54-4.84A2.92,2.92,0,0,0,66,24.84,11.63,11.63,0,0,0,65.22,26.55Z" transform="translate(5.41 5.24)"/><path class="cls-8" d="M59.19,31c-.08.28-.09.63.07.71s.47-.28.67-.59a5.44,5.44,0,0,1,.84-1c.28-.26.58-.47.86-.73A6.38,6.38,0,0,0,63.15,27a17.66,17.66,0,0,0-3.06,2.54,4,4,0,0,0-.52.57A2.68,2.68,0,0,0,59.19,31Z" transform="translate(5.41 5.24)"/><path class="cls-7" d="M62.05,26.45a1,1,0,0,0-.36.71,17.2,17.2,0,0,0,4.44-2.94,2,2,0,0,0,.68-.81c.06-.17.08-.38,0-.45s-.23,0-.34.14a23.45,23.45,0,0,1-2.83,2.21A9,9,0,0,0,62.05,26.45Z" transform="translate(5.41 5.24)"/><path class="cls-2" d="M58.59,28.81a9.13,9.13,0,0,0,2.6-2.26,13.21,13.21,0,0,0-2.06,1.31,1.71,1.71,0,0,0-.38.39A.85.85,0,0,0,58.59,28.81Z" transform="translate(5.41 5.24)"/><path class="cls-8" d="M63.53,24.94a9.13,9.13,0,0,0,2.6-2.26A13.21,13.21,0,0,0,64.07,24a1.71,1.71,0,0,0-.38.39A.85.85,0,0,0,63.53,24.94Z" transform="translate(5.41 5.24)"/><path class="cls-2" d="M60.48,28.53l-3,2.14a2.28,2.28,0,0,0-.58.53c.06.11.26,0,.44-.07l.43-.21a6.21,6.21,0,0,0,.92-.52A8.55,8.55,0,0,0,60.48,28.53Z" transform="translate(5.41 5.24)"/><path class="cls-2" d="M61.84,32.54l-.6,1.26a2.72,2.72,0,0,0,.81-1.17,4.45,4.45,0,0,1,.73-1.28C62.39,31.45,62.08,32,61.84,32.54Z" transform="translate(5.41 5.24)"/><path class="cls-2" d="M64.52,26.36l-.59,1.26a2.72,2.72,0,0,0,.81-1.17,4.45,4.45,0,0,1,.73-1.28C65.07,25.28,64.76,25.86,64.52,26.36Z" transform="translate(5.41 5.24)"/><path class="cls-2" d="M66,27.25a9.13,9.13,0,0,1-1.47,2A4.6,4.6,0,0,0,66,27.25Z" transform="translate(5.41 5.24)"/><path class="cls-2" d="M64.22,29.13a9.13,9.13,0,0,1-1.47,2A4.6,4.6,0,0,0,64.22,29.13Z" transform="translate(5.41 5.24)"/></g><g class="cls-5"><path class="cls-6" d="M59.33,26.72a1,1,0,0,0,.28-.29v0s-.11,0-.17.06a11.2,11.2,0,0,0-1.47.88A11.54,11.54,0,0,0,56.21,29a11,11,0,0,0,2-1.35Z" transform="translate(5.41 5.24)"/><path class="cls-7" d="M56.5,25.29a1,1,0,0,0,.28-.29v0s-.11,0-.17.06a11.2,11.2,0,0,0-1.47.88,11.54,11.54,0,0,0-1.81,1.65,11,11,0,0,0,2-1.35Z" transform="translate(5.41 5.24)"/><path class="cls-8" d="M59.65,24.88a.7.7,0,0,0,.17-.21c0-.1,0-.16-.11-.16a1,1,0,0,0-.32.1c-.41.17-4,2-3.62,2.4S59.19,25.3,59.65,24.88Z" transform="translate(5.41 5.24)"/><path class="cls-7" d="M61.89,23.55l-1.41,1.33a14.39,14.39,0,0,0,4.31-3.1,3.18,3.18,0,0,0-1.54.61A11.42,11.42,0,0,0,61.89,23.55Z" transform="translate(5.41 5.24)"/><path class="cls-8" d="M54.51,25.05c-.19.21-.34.49-.22.61s.55-.06.86-.25a5.85,5.85,0,0,1,1.19-.54c.37-.12.73-.19,1.09-.3a6.66,6.66,0,0,0,2.34-1.36,19.78,19.78,0,0,0-3.87,1,4.37,4.37,0,0,0-.71.29A2.67,2.67,0,0,0,54.51,25.05Z" transform="translate(5.41 5.24)"/><path class="cls-7" d="M59,22.35a1,1,0,0,0-.62.46A19.52,19.52,0,0,0,63.67,22a2.16,2.16,0,0,0,1-.43c.13-.11.23-.28.17-.37s-.23,0-.37,0A26.38,26.38,0,0,1,61,22,10.21,10.21,0,0,0,59,22.35Z" transform="translate(5.41 5.24)"/><path class="cls-2" d="M54.82,23.07a10.18,10.18,0,0,0,3.33-.94,15,15,0,0,0-2.44.35,1.88,1.88,0,0,0-.51.18A.79.79,0,0,0,54.82,23.07Z" transform="translate(5.41 5.24)"/><path class="cls-8" d="M61,21.62a10.17,10.17,0,0,0,3.33-.94,15,15,0,0,0-2.44.35,1.88,1.88,0,0,0-.51.18A.79.79,0,0,0,61,21.62Z" transform="translate(5.41 5.24)"/><path class="cls-2" d="M56.69,23.51,53,24.2a2.53,2.53,0,0,0-.75.24c0,.11.23.11.44.1h.48a7.09,7.09,0,0,0,1.06-.1A9.39,9.39,0,0,0,56.69,23.51Z" transform="translate(5.41 5.24)"/><path class="cls-2" d="M55.49,28l-1.06.83a2.85,2.85,0,0,0,1.22-.68,4.55,4.55,0,0,1,1.2-.8A2.29,2.29,0,0,0,55.49,28Z" transform="translate(5.41 5.24)"/><path class="cls-2" d="M61.33,23.15,60.27,24a2.85,2.85,0,0,0,1.22-.68,4.55,4.55,0,0,1,1.2-.8A2.29,2.29,0,0,0,61.33,23.15Z" transform="translate(5.41 5.24)"/><path class="cls-2" d="M62.33,24.4a9.65,9.65,0,0,1-2.19,1.16A4.86,4.86,0,0,0,62.33,24.4Z" transform="translate(5.41 5.24)"/><path class="cls-2" d="M59.91,25.32a9.65,9.65,0,0,1-2.19,1.16A4.86,4.86,0,0,0,59.91,25.32Z" transform="translate(5.41 5.24)"/></g><g class="cls-5"><path class="cls-6" d="M56,21.57a1.31,1.31,0,0,0,.47-.08v0s-.11,0-.2-.06a13.52,13.52,0,0,0-1.95-.15,14.76,14.76,0,0,0-2.79.34,13.51,13.51,0,0,0,2.8.05Z" transform="translate(5.41 5.24)"/><path class="cls-7" d="M56.46,18a1.32,1.32,0,0,0,.47-.08v0s-.11,0-.2-.06a13.52,13.52,0,0,0-1.95-.15A14.76,14.76,0,0,0,52,18a13.51,13.51,0,0,0,2.76.06Z" transform="translate(5.41 5.24)"/><path class="cls-8" d="M58.51,19.2a.91.91,0,0,0,.3-.07c.12-.06.11-.15,0-.2a1.11,1.11,0,0,0-.36-.11c-.49-.1-5-.68-5-.17S57.79,19.28,58.51,19.2Z" transform="translate(5.41 5.24)"/><path class="cls-7" d="M60.79,19l-2.24.28a17.8,17.8,0,0,0,6.12,0,3.63,3.63,0,0,0-1.8-.42A14.44,14.44,0,0,0,60.79,19Z" transform="translate(5.41 5.24)"/><path class="cls-8" d="M53.76,16.14c-.32.06-.67.21-.66.4s.53.29.94.32a6.8,6.8,0,0,1,1.45.27c.41.13.77.29,1.18.42a8,8,0,0,0,3.07.28,21.62,21.62,0,0,0-4.15-1.53,5,5,0,0,0-.84-.19A3.33,3.33,0,0,0,53.76,16.14Z" transform="translate(5.41 5.24)"/><path class="cls-7" d="M59.16,16.16a1.24,1.24,0,0,0-.89,0,20.61,20.61,0,0,0,5.29,2.57,2.51,2.51,0,0,0,1.16.22c.2,0,.42-.1.43-.22s-.16-.18-.32-.24A28.58,28.58,0,0,1,61.13,17,10.92,10.92,0,0,0,59.16,16.16Z" transform="translate(5.41 5.24)"/><path class="cls-2" d="M55,14.2a11.2,11.2,0,0,0,3.62,1.25,15.77,15.77,0,0,0-2.4-1.22,2.13,2.13,0,0,0-.59-.16A1,1,0,0,0,55,14.2Z" transform="translate(5.41 5.24)"/><path class="cls-8" d="M61.45,16.77A11.2,11.2,0,0,0,65.07,18a15.78,15.78,0,0,0-2.4-1.22,2.13,2.13,0,0,0-.59-.16A1,1,0,0,0,61.45,16.77Z" transform="translate(5.41 5.24)"/><path class="cls-2" d="M58.33,16.62l-3.75-1.7a2.82,2.82,0,0,0-.84-.26c-.07.1.12.24.31.36l.43.28a7.31,7.31,0,0,0,1,.58A10.62,10.62,0,0,0,58.33,16.62Z" transform="translate(5.41 5.24)"/><path class="cls-2" d="M53.5,20.05l-1.56.06a3.4,3.4,0,0,0,1.58.17,5.58,5.58,0,0,1,1.65,0A2.67,2.67,0,0,0,53.5,20.05Z" transform="translate(5.41 5.24)"/><path class="cls-2" d="M60.59,18.31,59,18.37a3.4,3.4,0,0,0,1.58.17,5.58,5.58,0,0,1,1.65,0A2.67,2.67,0,0,0,60.59,18.31Z" transform="translate(5.41 5.24)"/><path class="cls-2" d="M60.33,20.72a11.45,11.45,0,0,1-2.79-.36A5.75,5.75,0,0,0,60.33,20.72Z" transform="translate(5.41 5.24)"/><path class="cls-2" d="M57.44,20.3a11.45,11.45,0,0,1-2.79-.36A5.75,5.75,0,0,0,57.44,20.3Z" transform="translate(5.41 5.24)"/></g><path class="cls-3" d="M91,20.23C88.88,30.64,78.25,38.87,67,38.87c-11.45,0-19.65-8.49-18.11-19.23C50.44,8.58,61.65-.36,73.65,0,85.47.35,93.1,9.52,91,20.23Z" transform="translate(5.41 5.24)"/><g class="cls-10"><path class="cls-2" d="M71.91,44.47s-11.3,4.9-22-7.22C39.54,25.37,43.88,10.62,45.17,8c0,0,7-17.17,24-12.06L54.64,22.84Z" transform="translate(5.41 5.24)"/><path class="cls-3" d="M71.91,44.47s-11.57.33-21.39-12.09a26.26,26.26,0,0,1-5.71-14.76A21.25,21.25,0,0,1,53.23-.88a15.37,15.37,0,0,1,5.31-2.65c7.18-1.81,11.37-.09,11.37-.09l.27,3.27L54.64,22.84l16.89,18Z" transform="translate(5.41 5.24)"/><path class="cls-4" d="M71.53,40.87s-11.32.22-17.35-8.34a37.22,37.22,0,0,1-5.66-13.12,17.41,17.41,0,0,1,2.08-13A15.42,15.42,0,0,1,57.54.25C66.33-3.6,70.18-.38,70.18-.38a156.77,156.77,0,0,0-.43,18.3C70.18,26.71,71.53,40.87,71.53,40.87Z" transform="translate(5.41 5.24)"/><path class="cls-3" d="M69.76,18.29l.25,4.2-1.19,1.39A4,4,0,0,0,68,25.42l-3.83,14.2-.38-.13,4.11-14.93V24a1.36,1.36,0,0,0-1.44-1.27h0L53.25,31.07l-.17-.28,13.13-8.36s.93-1.37.83-2-1-1.39-2.75-1.3-15.53,1.75-15.53,1.75l-.06-.36,15.79-1.79s1.33-.59,1.16-1.26S63.87,16,63.87,16L49.62,8.29l.17-.36,14.73,8s1.59.26,1.9-.12S66,13.62,66,13.62L56.25,1,56.71.9l9.88,13a2.41,2.41,0,0,0,2,.8c1.41,0,1.07-2.49,1.07-2.49Z" transform="translate(5.41 5.24)"/><g class="cls-5"><path class="cls-6" d="M57.8,27.2a1.29,1.29,0,0,0,.4-.33V26.8H58a12.94,12.94,0,0,0-1.94.85,14.35,14.35,0,0,0-2.47,1.83,12.92,12.92,0,0,0,2.66-1.38Z" transform="translate(5.41 5.24)"/><path class="cls-7" d="M55.76,24.82a1.29,1.29,0,0,0,.4-.33v-.07h-.22a12.93,12.93,0,0,0-1.94.85,14.35,14.35,0,0,0-2.46,1.83,12.92,12.92,0,0,0,2.66-1.37Z" transform="translate(5.41 5.24)"/><path class="cls-8" d="M58.61,24.79a.91.91,0,0,0,.24-.24c.07-.13,0-.22-.09-.23a1.1,1.1,0,0,0-.41.06c-.52.14-5.15,1.88-4.84,2.42S58,25.26,58.61,24.79Z" transform="translate(5.41 5.24)"/><path class="cls-7" d="M61.57,23.49l-2,1.48a17.15,17.15,0,0,0,5.83-3.22,3.55,3.55,0,0,0-2,.48A14,14,0,0,0,61.57,23.49Z" transform="translate(5.41 5.24)"/><path class="cls-8" d="M52.48,23.87c-.27.24-.51.58-.4.77s.67,0,1.07-.14A6.53,6.53,0,0,1,54.69,24c.46-.08.9-.09,1.36-.16a7.67,7.67,0,0,0,3.09-1.26,21.39,21.39,0,0,0-4.82.5,4.82,4.82,0,0,0-.9.23A3.21,3.21,0,0,0,52.48,23.87Z" transform="translate(5.41 5.24)"/><path class="cls-7" d="M58.38,21.24a1.21,1.21,0,0,0-.84.48,21,21,0,0,0,6.52,0,2.44,2.44,0,0,0,1.24-.37c.18-.13.34-.33.29-.46s-.26-.11-.44-.09a28.66,28.66,0,0,1-4.38.33A11,11,0,0,0,58.38,21.24Z" transform="translate(5.41 5.24)"/><path class="cls-2" d="M53.33,21.3a11,11,0,0,0,4.15-.53,16,16,0,0,0-3-.06,2.07,2.07,0,0,0-.65.13A1,1,0,0,0,53.33,21.3Z" transform="translate(5.41 5.24)"/><path class="cls-8" d="M60.91,20.7a11.13,11.13,0,0,0,4.18-.54,16.22,16.22,0,0,0-3-.06,2.08,2.08,0,0,0-.65.13A1,1,0,0,0,60.91,20.7Z" transform="translate(5.41 5.24)"/><path class="cls-2" d="M55.4,22.29l-4.52.11a2.74,2.74,0,0,0-.94.15c0,.15.25.2.49.23l.57.08a7.51,7.51,0,0,0,1.28.1A10.3,10.3,0,0,0,55.4,22.29Z" transform="translate(5.41 5.24)"/><path class="cls-2" d="M54.11,27.29l-1.45.88a3.26,3.26,0,0,0,1.6-.64,5.34,5.34,0,0,1,1.6-.81C55.4,26.56,54.7,26.94,54.11,27.29Z" transform="translate(5.41 5.24)"/><path class="cls-2" d="M61,22.83l-1.45.88a3.28,3.28,0,0,0,1.61-.64,5.37,5.37,0,0,1,1.6-.81C62.26,22.09,61.56,22.47,61,22.83Z" transform="translate(5.41 5.24)"/><path class="cls-2" d="M61.89,24.74A11,11,0,0,1,59,25.81,5.55,5.55,0,0,0,61.89,24.74Z" transform="translate(5.41 5.24)"/><path class="cls-2" d="M58.82,25.44A11,11,0,0,1,56,26.51,5.53,5.53,0,0,0,58.82,25.44Z" transform="translate(5.41 5.24)"/></g><g class="cls-5"><path class="cls-6" d="M70.78,35.45a2.49,2.49,0,0,0-.09-.56v.16a20.67,20.67,0,0,0,0,2.17,27.37,27.37,0,0,0,.42,3.31,22,22,0,0,0-.1-3.14Z" transform="translate(5.41 5.24)"/><path class="cls-7" d="M68.83,35.34a2.49,2.49,0,0,0-.08-.56v.16a20.67,20.67,0,0,0,0,2.17,27.35,27.35,0,0,0,.42,3.31,22,22,0,0,0-.09-3.13Z" transform="translate(5.41 5.24)"/><path class="cls-8" d="M69.58,33.06a1.81,1.81,0,0,0-.08-.37c-.05-.15-.12-.17-.16-.1a1.23,1.23,0,0,0-.07.37c-.06.52-.28,5.48.12,5.62S69.68,33.91,69.58,33.06Z" transform="translate(5.41 5.24)"/><path class="cls-7" d="M69.61,29.77,70,32.41a29.17,29.17,0,0,0-.32-6.93,4.44,4.44,0,0,0-.25,1.9C69.41,28.14,69.51,29,69.61,29.77Z" transform="translate(5.41 5.24)"/><path class="cls-8" d="M67.33,37.27c.07.39.2.84.35.89s.2-.51.21-1A9.1,9.1,0,0,1,68,35.59c.08-.42.19-.78.28-1.2a11.89,11.89,0,0,0,.07-3.4,22.55,22.55,0,0,0-1,4.2,6.32,6.32,0,0,0-.11.89A5.73,5.73,0,0,0,67.33,37.27Z" transform="translate(5.41 5.24)"/><path class="cls-7" d="M67.42,30.62a2,2,0,0,0,.06,1,18.23,18.23,0,0,0,1.77-5.13,3.28,3.28,0,0,0,.12-1.24.77.77,0,0,0-.2-.56c-.1-.05-.14.12-.17.28a28.44,28.44,0,0,1-1,3.69A10.3,10.3,0,0,0,67.42,30.62Z" transform="translate(5.41 5.24)"/><path class="cls-2" d="M66.06,34.74a12,12,0,0,0,.82-3.69A13.66,13.66,0,0,0,66,33.37a2.53,2.53,0,0,0-.1.61A2,2,0,0,0,66.06,34.74Z" transform="translate(5.41 5.24)"/><path class="cls-8" d="M67.79,28.27a11.93,11.93,0,0,0,.81-3.67,13.58,13.58,0,0,0-.84,2.31,2.51,2.51,0,0,0-.1.61A1.94,1.94,0,0,0,67.79,28.27Z" transform="translate(5.41 5.24)"/><path class="cls-2" d="M67.23,33.78l-1.17,3.69a3.17,3.17,0,0,0-.17.86c.09.12.18-.06.27-.23l.2-.4a5.82,5.82,0,0,0,.41-1A12.78,12.78,0,0,0,67.23,33.78Z" transform="translate(5.41 5.24)"/><path class="cls-2" d="M69.84,38.47l.13,1.8A5,5,0,0,0,70,38.52a9,9,0,0,1,0-1.87A3.58,3.58,0,0,0,69.84,38.47Z" transform="translate(5.41 5.24)"/><path class="cls-2" d="M69.06,29.76l.13,1.79a4.92,4.92,0,0,0,.05-1.74,8.87,8.87,0,0,1,0-1.86A3.54,3.54,0,0,0,69.06,29.76Z" transform="translate(5.41 5.24)"/><path class="cls-2" d="M70.43,30.42a16.37,16.37,0,0,1-.14,3A8.13,8.13,0,0,0,70.43,30.42Z" transform="translate(5.41 5.24)"/><path class="cls-2" d="M70,33.36a16.43,16.43,0,0,1-.14,3.06A8.17,8.17,0,0,0,70,33.36Z" transform="translate(5.41 5.24)"/></g><g class="cls-5"><path class="cls-6" d="M64.7,34.17a1.31,1.31,0,0,0,.2-.48v-.07a.76.76,0,0,0-.18.14,13,13,0,0,0-1.39,1.69A14.58,14.58,0,0,0,62,38.27a13,13,0,0,0,1.71-2.5Z" transform="translate(5.41 5.24)"/><path class="cls-7" d="M60.53,31.85a1.31,1.31,0,0,0,.2-.48V31.3a.62.62,0,0,0-.17.14,13,13,0,0,0-1.31,1.68,14.58,14.58,0,0,0-1.32,2.81,13,13,0,0,0,1.7-2.49Z" transform="translate(5.41 5.24)"/><path class="cls-8" d="M63.14,31.17a.93.93,0,0,0,.1-.33c0-.15-.09-.2-.19-.17a1.09,1.09,0,0,0-.33.25c-.39.37-3.67,4.13-3.13,4.46S62.8,31.89,63.14,31.17Z" transform="translate(5.41 5.24)"/><path class="cls-7" d="M65,27.91l-1,2.26a17.16,17.16,0,0,0,3.62-5.62,3.51,3.51,0,0,0-1.5,1.36A14,14,0,0,0,65,27.91Z" transform="translate(5.41 5.24)"/><path class="cls-8" d="M57.17,32.54c-.13.34-.18.76,0,.88s.61-.28.88-.63a6.53,6.53,0,0,1,1.16-1.17c.37-.29.76-.5,1.13-.79a7.67,7.67,0,0,0,2.11-2.62,21.19,21.19,0,0,0-4,2.72,4.81,4.81,0,0,0-.69.63A3.24,3.24,0,0,0,57.17,32.54Z" transform="translate(5.41 5.24)"/><path class="cls-7" d="M61.15,27.4a1.21,1.21,0,0,0-.51.82,20.71,20.71,0,0,0,5.75-3,2.42,2.42,0,0,0,.91-.91c.1-.2.14-.46,0-.55s-.28,0-.43.13a28.22,28.22,0,0,1-3.7,2.35A10.86,10.86,0,0,0,61.15,27.4Z" transform="translate(5.41 5.24)"/><path class="cls-2" d="M56.68,29.84a11,11,0,0,0,3.42-2.43,15.87,15.87,0,0,0-2.66,1.34,2.05,2.05,0,0,0-.51.43A1,1,0,0,0,56.68,29.84Z" transform="translate(5.41 5.24)"/><path class="cls-8" d="M63.12,25.73a11,11,0,0,0,3.42-2.44,15.93,15.93,0,0,0-2.65,1.33,2.06,2.06,0,0,0-.51.43A1,1,0,0,0,63.12,25.73Z" transform="translate(5.41 5.24)"/><path class="cls-2" d="M59,29.74,55,32a2.74,2.74,0,0,0-.76.58c.06.14.31.06.55,0l.54-.2a7.44,7.44,0,0,0,1.18-.51A10.26,10.26,0,0,0,59,29.74Z" transform="translate(5.41 5.24)"/><path class="cls-2" d="M61,35.62l-.87,1.48a3.27,3.27,0,0,0,1.12-1.34,5.38,5.38,0,0,1,1-1.49C61.75,34.4,61.33,35.07,61,35.62Z" transform="translate(5.41 5.24)"/><path class="cls-2" d="M63.75,28.72l-.87,1.47A3.27,3.27,0,0,0,64,28.86a5.36,5.36,0,0,1,1-1.48C64.54,27.46,64.1,28.13,63.75,28.72Z" transform="translate(5.41 5.24)"/><path class="cls-2" d="M65.89,28.88a11,11,0,0,1-2,2.31A5.53,5.53,0,0,0,65.89,28.88Z" transform="translate(5.41 5.24)"/><path class="cls-2" d="M64.87,31.51a11,11,0,0,1-2,2.31A5.53,5.53,0,0,0,64.87,31.51Z" transform="translate(5.41 5.24)"/></g><g class="cls-5"><path class="cls-6" d="M54.33,18.78a1.3,1.3,0,0,0,.51,0v-.06c0-.06-.12-.06-.21-.08a13.08,13.08,0,0,0-2.09-.35,14.42,14.42,0,0,0-3.05.17,13,13,0,0,0,3,.31Z" transform="translate(5.41 5.24)"/><path class="cls-7" d="M53.86,15.72a1.3,1.3,0,0,0,.51,0v-.06c0-.06-.11-.06-.21-.08a13.07,13.07,0,0,0-2.08-.34,14.41,14.41,0,0,0-3,.18,13,13,0,0,0,3,.31Z" transform="translate(5.41 5.24)"/><path class="cls-8" d="M56.27,17.24a.92.92,0,0,0,.33-.06c.13-.06.13-.17,0-.24a1.11,1.11,0,0,0-.38-.17c-.51-.16-5.33-1.24-5.36-.62S55.48,17.28,56.27,17.24Z" transform="translate(5.41 5.24)"/><path class="cls-7" d="M59.46,17.78,57,17.93a17.44,17.44,0,0,0,6.65.51,3.62,3.62,0,0,0-1.92-.67A14.21,14.21,0,0,0,59.46,17.78Z" transform="translate(5.41 5.24)"/><path class="cls-8" d="M51.63,13.16c-.35,0-.74.2-.75.42s.54.39,1,.47a6.6,6.6,0,0,1,1.54.45c.43.19.8.42,1.23.61a7.77,7.77,0,0,0,3.3.6,21.6,21.6,0,0,0-4.32-2.2,4.87,4.87,0,0,0-.88-.3A3.23,3.23,0,0,0,51.63,13.16Z" transform="translate(5.41 5.24)"/><path class="cls-7" d="M58,14.19a1.22,1.22,0,0,0-1-.06,21.24,21.24,0,0,0,5.46,3.55,2.49,2.49,0,0,0,1.24.37c.22,0,.47-.09.49-.23s-.16-.24-.33-.31A29.06,29.06,0,0,1,60,15.4,11.12,11.12,0,0,0,58,14.19Z" transform="translate(5.41 5.24)"/><path class="cls-2" d="M53.71,11.47a11.14,11.14,0,0,0,3.77,1.81A16.15,16.15,0,0,0,55,11.62a2.09,2.09,0,0,0-.62-.24A1,1,0,0,0,53.71,11.47Z" transform="translate(5.41 5.24)"/><path class="cls-8" d="M60.42,15.11a11.3,11.3,0,0,0,3.81,1.83,16.4,16.4,0,0,0-2.49-1.68,2.11,2.11,0,0,0-.62-.24A1,1,0,0,0,60.42,15.11Z" transform="translate(5.41 5.24)"/><path class="cls-2" d="M54.94,13.44l-3.85-2.36a2.76,2.76,0,0,0-.87-.38c-.09.12.1.3.29.46l.43.37a7.54,7.54,0,0,0,1,.77A10.4,10.4,0,0,0,54.94,13.44Z" transform="translate(5.41 5.24)"/><path class="cls-2" d="M51.15,16.86l-1.69-.06a3.29,3.29,0,0,0,1.69.34,5.39,5.39,0,0,1,1.78.2C52.62,17,51.82,16.89,51.15,16.86Z" transform="translate(5.41 5.24)"/><path class="cls-2" d="M59.33,16.9l-1.7-.06a3.33,3.33,0,0,0,1.7.34,5.46,5.46,0,0,1,1.79.2C60.8,17,60,16.93,59.33,16.9Z" transform="translate(5.41 5.24)"/><path class="cls-2" d="M59.05,19a11.18,11.18,0,0,1-3-.68A5.63,5.63,0,0,0,59.05,19Z" transform="translate(5.41 5.24)"/><path class="cls-2" d="M56.09,17.89a11.12,11.12,0,0,1-3-.67A5.6,5.6,0,0,0,56.09,17.89Z" transform="translate(5.41 5.24)"/></g><g class="cls-5"><path class="cls-6" d="M56.33,11.27a1.24,1.24,0,0,0,.46.18h.05a.88.88,0,0,0-.15-.16A13.66,13.66,0,0,0,55,10.08a14,14,0,0,0-2.67-1.19,13.35,13.35,0,0,0,2.46,1.55Z" transform="translate(5.41 5.24)"/><path class="cls-7" d="M56.59,7.46a1.24,1.24,0,0,0,.46.17h.05A.88.88,0,0,0,57,7.47a13.61,13.61,0,0,0-1.68-1.2,14,14,0,0,0-2.68-1.15,13.3,13.3,0,0,0,2.46,1.5Z" transform="translate(5.41 5.24)"/><path class="cls-8" d="M58.58,10.76a.85.85,0,0,0,.31.09c.13,0,.17-.09.12-.2a1.23,1.23,0,0,0-.27-.31C58.35,10,54.54,7,54.32,7.48S57.89,10.45,58.58,10.76Z" transform="translate(5.41 5.24)"/><path class="cls-7" d="M61.17,12.62,59,11.69A17.77,17.77,0,0,0,64.57,15a3.94,3.94,0,0,0-1.44-1.39A14.1,14.1,0,0,0,61.17,12.62Z" transform="translate(5.41 5.24)"/><path class="cls-8" d="M55.9,5.15c-.32-.11-.71-.14-.78,0s.34.58.69.83A7.1,7.1,0,0,1,57,7.09c.31.35.56.71.87,1.06a8.14,8.14,0,0,0,2.65,2,24.08,24.08,0,0,0-3-3.8,5.3,5.3,0,0,0-.66-.65A3.24,3.24,0,0,0,55.9,5.15Z" transform="translate(5.41 5.24)"/><path class="cls-7" d="M61.07,8.8a1.23,1.23,0,0,0-.81-.46,23.92,23.92,0,0,0,3.57,5.5,2.68,2.68,0,0,0,1,.86c.19.09.43.12.5,0s-.06-.28-.18-.42a32.52,32.52,0,0,1-2.66-3.53A12.49,12.49,0,0,0,61.07,8.8Z" transform="translate(5.41 5.24)"/><path class="cls-2" d="M58.23,4.55A12.36,12.36,0,0,0,60.9,7.77a18.22,18.22,0,0,0-1.57-2.53,2.29,2.29,0,0,0-.45-.48A1,1,0,0,0,58.23,4.55Z" transform="translate(5.41 5.24)"/><path class="cls-8" d="M62.86,10.62a12.55,12.55,0,0,0,2.7,3.26A18.5,18.5,0,0,0,64,11.32a2.32,2.32,0,0,0-.46-.48A1,1,0,0,0,62.86,10.62Z" transform="translate(5.41 5.24)"/><path class="cls-2" d="M58.66,6.82,56.1,3.08a3,3,0,0,0-.63-.71c-.12.07,0,.31.1.53l.25.52a8.52,8.52,0,0,0,.63,1.12A11.38,11.38,0,0,0,58.66,6.82Z" transform="translate(5.41 5.24)"/><path class="cls-2" d="M53.12,7.62l-1.43-.78a3.45,3.45,0,0,0,1.34,1,5.52,5.52,0,0,1,1.47.94A3.21,3.21,0,0,0,53.12,7.62Z" transform="translate(5.41 5.24)"/><path class="cls-2" d="M61.33,11.77,59.88,11a3.51,3.51,0,0,0,1.36,1,5.62,5.62,0,0,1,1.48.95C62.58,12.5,61.91,12.09,61.33,11.77Z" transform="translate(5.41 5.24)"/><path class="cls-2" d="M60.42,13.49a11.86,11.86,0,0,1-2.36-1.87A6,6,0,0,0,60.42,13.49Z" transform="translate(5.41 5.24)"/><path class="cls-2" d="M58.22,11.26a11.79,11.79,0,0,1-2.35-1.88A5.93,5.93,0,0,0,58.22,11.26Z" transform="translate(5.41 5.24)"/></g><g class="cls-5"><path class="cls-6" d="M60.48,5.12a1.59,1.59,0,0,0,.31.48h.07a1.86,1.86,0,0,0,0-.25,16.25,16.25,0,0,0-.79-2.22A17.73,17.73,0,0,0,58.33.24,16.17,16.17,0,0,0,59.61,3.3Z" transform="translate(5.41 5.24)"/><path class="cls-7" d="M64.7,3.9a1.6,1.6,0,0,0,.31.48h.07a1.86,1.86,0,0,0,0-.25,16.26,16.26,0,0,0-.79-2.22A17.77,17.77,0,0,0,62.54-1a16.19,16.19,0,0,0,1.29,3.06Z" transform="translate(5.41 5.24)"/><path class="cls-8" d="M64.33,6.77a1.12,1.12,0,0,0,.23.3A.14.14,0,0,0,64.8,7a1.34,1.34,0,0,0,0-.45C64.67,6,63.08.69,62.53,1S63.9,6,64.33,6.77Z" transform="translate(5.41 5.24)"/><path class="cls-7" d="M65.68,9.21,64.26,6.85a21.75,21.75,0,0,0,3,6.8,4.41,4.41,0,0,0-.42-2.22A17.7,17.7,0,0,0,65.68,9.21Z" transform="translate(5.41 5.24)"/><path class="cls-8" d="M65.41.05c-.23-.32-.57-.63-.76-.53s-.06.73.1,1.19a8.13,8.13,0,0,1,.42,1.73c.06.51.06,1,.12,1.51A9.66,9.66,0,0,0,66.5,7.49a25.87,25.87,0,0,0-.35-5.33,6,6,0,0,0-.2-1A4,4,0,0,0,65.41.05Z" transform="translate(5.41 5.24)"/><path class="cls-7" d="M68.05,6a1.51,1.51,0,0,0-.46-1,24.76,24.76,0,0,0-.24,7.12,3.06,3.06,0,0,0,.33,1.4c.12.21.32.42.46.38s.12-.27.1-.47a34.52,34.52,0,0,1-.19-4.84A13.1,13.1,0,0,0,68.05,6Z" transform="translate(5.41 5.24)"/><path class="cls-2" d="M68.17.45a13.38,13.38,0,0,0,.4,4.61,18.79,18.79,0,0,0,.16-3.24,2.54,2.54,0,0,0-.11-.73A1.25,1.25,0,0,0,68.17.45Z" transform="translate(5.41 5.24)"/><path class="cls-8" d="M68.51,8.85a13.56,13.56,0,0,0,.4,4.65,19,19,0,0,0,.16-3.27A2.57,2.57,0,0,0,69,9.5,1.27,1.27,0,0,0,68.51,8.85Z" transform="translate(5.41 5.24)"/><path class="cls-2" d="M67.2,5.33v-5a3.35,3.35,0,0,0-.12-1c-.15,0-.21.25-.25.51l-.1.61a8.68,8.68,0,0,0-.14,1.39A12.72,12.72,0,0,0,67.2,5.33Z" transform="translate(5.41 5.24)"/><path class="cls-2" d="M60.93,1.62,60.1-.06a4.06,4.06,0,0,0,.59,1.82,6.7,6.7,0,0,1,.76,1.84A3.19,3.19,0,0,0,60.93,1.62Z" transform="translate(5.41 5.24)"/><path class="cls-2" d="M66.33,8.62l-.84-1.7a4.12,4.12,0,0,0,.59,1.84,6.8,6.8,0,0,1,.77,1.86A3.24,3.24,0,0,0,66.33,8.62Z" transform="translate(5.41 5.24)"/><path class="cls-2" d="M63.57,9.57a13.85,13.85,0,0,1-1-3.27A7,7,0,0,0,63.57,9.57Z" transform="translate(5.41 5.24)"/><path class="cls-2" d="M62.59,6.11a13.76,13.76,0,0,1-1-3.26A6.91,6.91,0,0,0,62.59,6.11Z" transform="translate(5.41 5.24)"/></g><path class="cls-2" d="M68.86,44.46s11.64,5,22-7.25,5-27.24,3.49-29.88c0,0-8.23-17.23-25.25-11.35L85.26,22.62Z" transform="translate(5.41 5.24)"/><path class="cls-3" d="M68.86,44.46s11.68.4,21.14-12.2A25.55,25.55,0,0,0,95.2,17.1,22,22,0,0,0,85.52-1.5,16.06,16.06,0,0,0,80-4c-7.36-1.53-11.47.35-11.47.35l-.15,2.33L85.26,22.62,69.06,40.87Z" transform="translate(5.41 5.24)"/><path class="cls-4" d="M69.05,40.87s11.42.24,17.17-8.43A36,36,0,0,0,91.41,19,17.68,17.68,0,0,0,88.59,5.86a16.18,16.18,0,0,0-7.44-6c-9.08-3.56-12.75-1-12.75-1A188.24,188.24,0,0,1,69.69,18C69.7,26.71,69.05,40.87,69.05,40.87Z" transform="translate(5.41 5.24)"/><path class="cls-3" d="M69.7,18.29v4.2L71,23.87a4.14,4.14,0,0,1,.89,1.54l4.48,14.21.38-.13-4.89-15v-.57a1.3,1.3,0,0,1,1.28-1.32l.23,0h0l13.86,8.32.14-.32-13.8-8.28s-1-1.36-.93-2,.92-1.41,2.7-1.35,16,1.5,16,1.5v-.37L75,18.59s-1.37-.57-1.23-1.25,1.73-1.48,1.73-1.48l14.2-8.18-.2-.36L74.88,15.77s-1.59.29-1.92-.08.24-2.28.24-2.28l9.29-13L82,.35,72.65,13.7a2.35,2.35,0,0,1-1.94.85c-1.41,0-1.2-2.46-1.2-2.46Z" transform="translate(5.41 5.24)"/><g class="cls-5"><path class="cls-6" d="M82.24,27.07a1.39,1.39,0,0,1-.43-.33v-.07H82a13.91,13.91,0,0,1,2,.84,15.62,15.62,0,0,1,2.63,1.83A14,14,0,0,1,83.86,28Z" transform="translate(5.41 5.24)"/><path class="cls-7" d="M84.21,24.62a1.39,1.39,0,0,1-.43-.33v-.07H84a13.93,13.93,0,0,1,2,.84,15.63,15.63,0,0,1,2.63,1.83,14,14,0,0,1-2.79-1.27Z" transform="translate(5.41 5.24)"/><path class="cls-8" d="M81.33,24.62a1,1,0,0,1-.26-.24.15.15,0,0,1,.08-.24,1.15,1.15,0,0,1,.42.06c.54.14,5.38,1.84,5.08,2.39S82,25.11,81.33,24.62Z" transform="translate(5.41 5.24)"/><path class="cls-7" d="M78.21,23.37l2.12,1.47a18.21,18.21,0,0,1-6.07-3.15,3.68,3.68,0,0,1,2,.46A14.88,14.88,0,0,1,78.21,23.37Z" transform="translate(5.41 5.24)"/><path class="cls-8" d="M87.54,23.62c.29.24.56.58.45.78s-.69,0-1.11-.13a7,7,0,0,0-1.6-.45c-.48-.07-.93-.08-1.41-.14a8.19,8.19,0,0,1-3.22-1.27,22.39,22.39,0,0,1,5,.44,5.15,5.15,0,0,1,.94.22A3.48,3.48,0,0,1,87.54,23.62Z" transform="translate(5.41 5.24)"/><path class="cls-7" d="M81.33,21.06a1.29,1.29,0,0,1,.88.47,21.52,21.52,0,0,1-6.62.12,2.54,2.54,0,0,1-1.27-.35c-.18-.12-.36-.33-.31-.46s.26-.12.44-.09a29.4,29.4,0,0,0,4.46.26A11.35,11.35,0,0,1,81.33,21.06Z" transform="translate(5.41 5.24)"/><path class="cls-2" d="M86.57,21a11.61,11.61,0,0,1-4.29-.47,16.62,16.62,0,0,1,3-.11,2.19,2.19,0,0,1,.67.12A1.1,1.1,0,0,1,86.57,21Z" transform="translate(5.41 5.24)"/><path class="cls-8" d="M78.75,20.56a11.47,11.47,0,0,1-4.25-.47,16.45,16.45,0,0,1,3-.11,2.16,2.16,0,0,1,.67.12A1.08,1.08,0,0,1,78.75,20.56Z" transform="translate(5.41 5.24)"/><path class="cls-2" d="M84.44,22.06h4.67a2.93,2.93,0,0,1,1,.14c0,.15-.25.2-.5.24l-.59.09a7.83,7.83,0,0,1-1.32.12A11,11,0,0,1,84.44,22.06Z" transform="translate(5.41 5.24)"/><path class="cls-2" d="M86,27.12l1.54.88a3.52,3.52,0,0,1-1.69-.63,5.78,5.78,0,0,0-1.69-.81C84.67,26.39,85.41,26.77,86,27.12Z" transform="translate(5.41 5.24)"/><path class="cls-2" d="M78.78,22.7l1.52.87a3.47,3.47,0,0,1-1.67-.63,5.69,5.69,0,0,0-1.67-.8C77.44,22,78.17,22.35,78.78,22.7Z" transform="translate(5.41 5.24)"/><path class="cls-2" d="M78,24.62a11.68,11.68,0,0,0,3,1A5.88,5.88,0,0,1,78,24.62Z" transform="translate(5.41 5.24)"/><path class="cls-2" d="M81.11,25.3a11.74,11.74,0,0,0,3,1A5.91,5.91,0,0,1,81.11,25.3Z" transform="translate(5.41 5.24)"/></g><g class="cls-5"><path class="cls-6" d="M69.53,35.45a2.45,2.45,0,0,1,.06-.56v.16a20.77,20.77,0,0,1,.13,2.17,27,27,0,0,1-.25,3.31,22,22,0,0,1-.06-3.14Z" transform="translate(5.41 5.24)"/><path class="cls-7" d="M71.49,35.34a2.45,2.45,0,0,1,.06-.56v.16a20.77,20.77,0,0,1,.13,2.17,27,27,0,0,1-.25,3.31,22,22,0,0,1-.06-3.14Z" transform="translate(5.41 5.24)"/><path class="cls-8" d="M70.62,33.05a1.77,1.77,0,0,1,.06-.37c0-.15.12-.17.16-.1a1.27,1.27,0,0,1,.09.37c.08.52.56,5.49.16,5.63S70.56,33.9,70.62,33.05Z" transform="translate(5.41 5.24)"/><path class="cls-7" d="M70.42,29.76l-.21,2.64a29.1,29.1,0,0,1,0-6.93,4.52,4.52,0,0,1,.34,1.89C70.55,28.14,70.48,29,70.42,29.76Z" transform="translate(5.41 5.24)"/><path class="cls-8" d="M73,37.27c0,.39-.16.84-.31.89s-.23-.51-.26-1a9.26,9.26,0,0,0-.22-1.57c-.1-.42-.23-.78-.34-1.2a12,12,0,0,1-.24-3.4,23.32,23.32,0,0,1,1.23,4.2,6.46,6.46,0,0,1,.16.89A5.69,5.69,0,0,1,73,37.27Z" transform="translate(5.41 5.24)"/><path class="cls-7" d="M72.66,30.62a2,2,0,0,1,0,1,19,19,0,0,1-2-5.12,3.32,3.32,0,0,1-.18-1.24.82.82,0,0,1,.17-.56c.09-.05.14.12.18.28A29.37,29.37,0,0,0,72,28.66,10.7,10.7,0,0,1,72.66,30.62Z" transform="translate(5.41 5.24)"/><path class="cls-2" d="M74.23,34.72a12.4,12.4,0,0,1-1-3.7,14.3,14.3,0,0,1,1,2.32,2.59,2.59,0,0,1,.13.62A1.92,1.92,0,0,1,74.23,34.72Z" transform="translate(5.41 5.24)"/><path class="cls-8" d="M72.17,28.25a12.26,12.26,0,0,1-1-3.67,14.12,14.12,0,0,1,1,2.3,2.57,2.57,0,0,1,.13.61A1.91,1.91,0,0,1,72.17,28.25Z" transform="translate(5.41 5.24)"/><path class="cls-2" d="M73,33.76l1.36,3.7a3.27,3.27,0,0,1,.21.87c-.08.12-.19-.06-.29-.23l-.23-.4a6.16,6.16,0,0,1-.46-1A13.1,13.1,0,0,1,73,33.76Z" transform="translate(5.41 5.24)"/><path class="cls-2" d="M70.62,38.47v1.8a5,5,0,0,1-.14-1.76,9,9,0,0,0,0-1.87A3.64,3.64,0,0,1,70.62,38.47Z" transform="translate(5.41 5.24)"/><path class="cls-2" d="M71,29.75v1.79a5,5,0,0,1-.14-1.74,8.87,8.87,0,0,0,0-1.86A3.59,3.59,0,0,1,71,29.75Z" transform="translate(5.41 5.24)"/><path class="cls-2" d="M69.63,30.42a16.52,16.52,0,0,0,.29,3A8.22,8.22,0,0,1,69.63,30.42Z" transform="translate(5.41 5.24)"/><path class="cls-2" d="M70.19,33.36a16.6,16.6,0,0,0,.3,3.06A8.25,8.25,0,0,1,70.19,33.36Z" transform="translate(5.41 5.24)"/></g><g class="cls-5"><path class="cls-6" d="M75.58,34.15a1.38,1.38,0,0,1-.25-.53v-.07a.6.6,0,0,1,.18.14,14,14,0,0,1,1.41,1.69,15.5,15.5,0,0,1,1.48,2.84,14,14,0,0,1-1.86-2.52Z" transform="translate(5.41 5.24)"/><path class="cls-7" d="M79.69,31.78a1.38,1.38,0,0,1-.23-.49v-.07a.6.6,0,0,1,.18.14,14,14,0,0,1,1.42,1.69,15.5,15.5,0,0,1,1.49,2.84,14,14,0,0,1-1.87-2.51Z" transform="translate(5.41 5.24)"/><path class="cls-8" d="M77,31.12a1,1,0,0,1-.12-.33c0-.15.08-.2.19-.17a1.17,1.17,0,0,1,.35.25c.42.37,3.94,4.14,3.41,4.48S77.39,31.85,77,31.12Z" transform="translate(5.41 5.24)"/><path class="cls-7" d="M74.93,27.86l1.17,2.26a18.18,18.18,0,0,1-3.93-5.6,3.72,3.72,0,0,1,1.58,1.34A14.8,14.8,0,0,1,74.93,27.86Z" transform="translate(5.41 5.24)"/><path class="cls-8" d="M83.15,32.46c.15.34.22.77,0,.89s-.64-.28-.94-.63A7.08,7.08,0,0,0,81,31.62c-.39-.29-.8-.5-1.19-.79a8.23,8.23,0,0,1-2.27-2.63,22.84,22.84,0,0,1,4.23,2.71,5.23,5.23,0,0,1,.74.63A3.47,3.47,0,0,1,83.15,32.46Z" transform="translate(5.41 5.24)"/><path class="cls-7" d="M78.83,27.3a1.29,1.29,0,0,1,.56.83,22,22,0,0,1-6-3,2.56,2.56,0,0,1-1-.9c-.11-.19-.17-.45-.06-.55s.29,0,.44.12a29.94,29.94,0,0,0,3.85,2.31A11.59,11.59,0,0,1,78.83,27.3Z" transform="translate(5.41 5.24)"/><path class="cls-2" d="M83.52,29.73a11.83,11.83,0,0,1-3.61-2.43,17,17,0,0,1,2.78,1.32,2.23,2.23,0,0,1,.54.43A1.08,1.08,0,0,1,83.52,29.73Z" transform="translate(5.41 5.24)"/><path class="cls-8" d="M76.75,25.62a11.65,11.65,0,0,1-3.58-2.4,16.8,16.8,0,0,1,2.75,1.32,2.19,2.19,0,0,1,.54.42A1.07,1.07,0,0,1,76.75,25.62Z" transform="translate(5.41 5.24)"/><path class="cls-2" d="M81.13,29.62l4.2,2.25a3,3,0,0,1,.81.58c-.06.14-.32.06-.56,0l-.57-.2a8.06,8.06,0,0,1-1.24-.51A11.14,11.14,0,0,1,81.13,29.62Z" transform="translate(5.41 5.24)"/><path class="cls-2" d="M79.45,35.62l1,1.49a3.55,3.55,0,0,1-1.2-1.35,5.79,5.79,0,0,0-1.12-1.5C78.58,34.36,79.06,35,79.45,35.62Z" transform="translate(5.41 5.24)"/><path class="cls-2" d="M76.26,28.62l.95,1.47A3.5,3.5,0,0,1,76,28.76a5.7,5.7,0,0,0-1.11-1.48C75.4,27.4,75.88,28.07,76.26,28.62Z" transform="translate(5.41 5.24)"/><path class="cls-2" d="M74.11,28.84a11.75,11.75,0,0,0,2.16,2.31A5.91,5.91,0,0,1,74.11,28.84Z" transform="translate(5.41 5.24)"/><path class="cls-2" d="M75.27,31.47a11.81,11.81,0,0,0,2.17,2.32A6,6,0,0,1,75.27,31.47Z" transform="translate(5.41 5.24)"/></g><g class="cls-5"><path class="cls-6" d="M85.42,18.5a1.37,1.37,0,0,1-.53,0s-.05,0,0-.06a.34.34,0,0,1,.21-.09A13.44,13.44,0,0,1,87.23,18a15.25,15.25,0,0,1,3.17.12,13.57,13.57,0,0,1-3.06.37Z" transform="translate(5.41 5.24)"/><path class="cls-7" d="M85.69,15.38a1.37,1.37,0,0,1-.53,0s-.05,0,0-.06.11-.07.21-.09a13.46,13.46,0,0,1,2.13-.4,15.25,15.25,0,0,1,3.16.11,13.58,13.58,0,0,1-3.05.38Z" transform="translate(5.41 5.24)"/><path class="cls-8" d="M83.33,17a1,1,0,0,1-.35-.06c-.14-.06-.14-.17-.06-.25a1.1,1.1,0,0,1,.38-.18c.52-.18,5.43-1.37,5.49-.75S84.12,17,83.33,17Z" transform="translate(5.41 5.24)"/><path class="cls-7" d="M80.07,17.62l2.53.1a17.75,17.75,0,0,1-6.74.64,3.57,3.57,0,0,1,1.91-.71A14.57,14.57,0,0,1,80.07,17.62Z" transform="translate(5.41 5.24)"/><path class="cls-8" d="M87.86,12.73c.37,0,.78.19.8.41s-.54.41-1,.5a6.73,6.73,0,0,0-1.56.49c-.43.2-.81.44-1.23.64a7.93,7.93,0,0,1-3.35.68,21.53,21.53,0,0,1,4.31-2.32,5,5,0,0,1,.89-.33A3.38,3.38,0,0,1,87.86,12.73Z" transform="translate(5.41 5.24)"/><path class="cls-7" d="M81.33,13.92a1.26,1.26,0,0,1,1-.08A20.8,20.8,0,0,1,77,17.54a2.47,2.47,0,0,1-1.24.39c-.22,0-.48-.08-.51-.22s.15-.24.31-.32a28.44,28.44,0,0,0,3.82-2.2A11,11,0,0,1,81.33,13.92Z" transform="translate(5.41 5.24)"/><path class="cls-2" d="M85.63,11.07A11.15,11.15,0,0,1,81.85,13a16,16,0,0,1,2.48-1.74A2.11,2.11,0,0,1,85,11,1.08,1.08,0,0,1,85.63,11.07Z" transform="translate(5.41 5.24)"/><path class="cls-8" d="M79,14.91a11.1,11.1,0,0,1-3.77,1.92,15.94,15.94,0,0,1,2.43-1.74,2.09,2.09,0,0,1,.62-.26A1.07,1.07,0,0,1,79,14.91Z" transform="translate(5.41 5.24)"/><path class="cls-2" d="M84.47,13.09l3.86-2.47a2.81,2.81,0,0,1,.88-.41c.1.12-.09.3-.28.47l-.43.39a7.5,7.5,0,0,1-1,.81A10.52,10.52,0,0,1,84.47,13.09Z" transform="translate(5.41 5.24)"/><path class="cls-2" d="M88.56,16.48l1.74-.1a3.39,3.39,0,0,1-1.73.38,5.6,5.6,0,0,0-1.83.24C87,16.62,87.86,16.52,88.56,16.48Z" transform="translate(5.41 5.24)"/><path class="cls-2" d="M80.17,16.69l1.73-.1a3.37,3.37,0,0,1-1.72.38,5.54,5.54,0,0,0-1.81.24C78.66,16.82,79.47,16.73,80.17,16.69Z" transform="translate(5.41 5.24)"/><path class="cls-2" d="M80.55,18.78a11.3,11.3,0,0,0,3-.74A5.69,5.69,0,0,1,80.55,18.78Z" transform="translate(5.41 5.24)"/><path class="cls-2" d="M83.52,17.62a11.34,11.34,0,0,0,3-.74A5.71,5.71,0,0,1,83.52,17.62Z" transform="translate(5.41 5.24)"/></g><g class="cls-5"><path class="cls-6" d="M82.89,10.94a1.25,1.25,0,0,1-.46.19h-.06a1.22,1.22,0,0,1,.15-.17,13.53,13.53,0,0,1,1.66-1.34,14.16,14.16,0,0,1,2.7-1.25A13.34,13.34,0,0,1,84.43,10Z" transform="translate(5.41 5.24)"/><path class="cls-7" d="M82.47,7.09a1.25,1.25,0,0,1-.46.19H82a1.22,1.22,0,0,1,.15-.17,13.54,13.54,0,0,1,1.66-1.26,14.17,14.17,0,0,1,2.7-1.25A13.35,13.35,0,0,1,84,6.24Z" transform="translate(5.41 5.24)"/><path class="cls-8" d="M80.61,10.47a.86.86,0,0,1-.31.1c-.14,0-.18-.09-.13-.19a1.2,1.2,0,0,1,.26-.32c.38-.38,4.13-3.55,4.38-3S81.33,10.14,80.61,10.47Z" transform="translate(5.41 5.24)"/><path class="cls-7" d="M78.07,12.41l2.17-1a17.43,17.43,0,0,1-5.49,3.47,3.81,3.81,0,0,1,1.39-1.46A13.89,13.89,0,0,1,78.07,12.41Z" transform="translate(5.41 5.24)"/><path class="cls-8" d="M83.07,4.73c.32-.12.72-.17.81,0s-.32.6-.66.86A7,7,0,0,0,82.06,6.7c-.3.36-.54.74-.83,1.1a8,8,0,0,1-2.6,2,23.6,23.6,0,0,1,2.88-3.92,5.23,5.23,0,0,1,.64-.67A3.25,3.25,0,0,1,83.07,4.73Z" transform="translate(5.41 5.24)"/><path class="cls-7" d="M78,8.57a1.22,1.22,0,0,1,.8-.49,23.29,23.29,0,0,1-3.34,5.63,2.6,2.6,0,0,1-.92.89c-.19.09-.43.13-.51,0s0-.28.16-.42a31.53,31.53,0,0,0,2.52-3.56A12.18,12.18,0,0,1,78,8.57Z" transform="translate(5.41 5.24)"/><path class="cls-2" d="M80.65,4.19a12.14,12.14,0,0,1-2.56,3.33,17.87,17.87,0,0,1,1.49-2.6,2.25,2.25,0,0,1,.44-.5A1,1,0,0,1,80.65,4.19Z" transform="translate(5.41 5.24)"/><path class="cls-8" d="M76.26,10.49a12.17,12.17,0,0,1-2.56,3.34,17.94,17.94,0,0,1,1.49-2.61,2.26,2.26,0,0,1,.44-.5A1,1,0,0,1,76.26,10.49Z" transform="translate(5.41 5.24)"/><path class="cls-2" d="M80.33,6.5l2.42-3.88a3,3,0,0,1,.6-.74c.12.06,0,.31-.08.54L83,3a8.4,8.4,0,0,1-.59,1.16A11.23,11.23,0,0,1,80.33,6.5Z" transform="translate(5.41 5.24)"/><path class="cls-2" d="M86.05,7.16l1.44-.83a3.44,3.44,0,0,1-1.33,1.08,5.52,5.52,0,0,0-1.46,1C84.81,7.92,85.47,7.5,86.05,7.16Z" transform="translate(5.41 5.24)"/><path class="cls-2" d="M77.87,11.57l1.43-.83A3.44,3.44,0,0,1,78,11.82a5.5,5.5,0,0,0-1.46,1C76.64,12.32,77.33,11.9,77.87,11.57Z" transform="translate(5.41 5.24)"/><path class="cls-2" d="M78.87,13.28a11.62,11.62,0,0,0,2.31-2A5.85,5.85,0,0,1,78.87,13.28Z" transform="translate(5.41 5.24)"/><path class="cls-2" d="M81,11a11.63,11.63,0,0,0,2.31-2A5.85,5.85,0,0,1,81,11Z" transform="translate(5.41 5.24)"/></g><g class="cls-5"><path class="cls-6" d="M78.39,4.84a1.56,1.56,0,0,1-.29.49H78a1.9,1.9,0,0,1,0-.25,16,16,0,0,1,.69-2.26,17.5,17.5,0,0,1,1.62-3A16,16,0,0,1,79.19,3Z" transform="translate(5.41 5.24)"/><path class="cls-7" d="M74.06,3.75a1.57,1.57,0,0,1-.29.49H73.7a1.9,1.9,0,0,1,0-.25,16,16,0,0,1,.69-2.25,17.52,17.52,0,0,1,1.62-3,16,16,0,0,1-1.15,3.12Z" transform="translate(5.41 5.24)"/><path class="cls-8" d="M74.56,6.62a1.09,1.09,0,0,1-.22.31c-.12.1-.22,0-.24-.06a1.33,1.33,0,0,1,0-.46c.1-.59,1.44-5.94,2-5.68S75,5.84,74.56,6.62Z" transform="translate(5.41 5.24)"/><path class="cls-7" d="M73.33,9.1l1.31-2.41a21.24,21.24,0,0,1-2.71,6.93,4.36,4.36,0,0,1,.31-2.23A17.24,17.24,0,0,1,73.33,9.1Z" transform="translate(5.41 5.24)"/><path class="cls-8" d="M73.15-.09c.21-.33.54-.66.74-.56s.1.73,0,1.19a8.06,8.06,0,0,0-.33,1.75V3.81a9.51,9.51,0,0,1-1,3.59,25.82,25.82,0,0,1,.08-5.35,5.93,5.93,0,0,1,.15-1A4,4,0,0,1,73.15-.09Z" transform="translate(5.41 5.24)"/><path class="cls-7" d="M70.8,6a1.48,1.48,0,0,1,.41-1,24.85,24.85,0,0,1,.59,7.12,3,3,0,0,1-.26,1.41c-.11.21-.3.43-.44.39s-.14-.27-.13-.47a34.48,34.48,0,0,0-.05-4.85A13.12,13.12,0,0,1,70.8,6Z" transform="translate(5.41 5.24)"/><path class="cls-2" d="M70.4.41A13.34,13.34,0,0,1,70.23,5a18.87,18.87,0,0,1-.32-3.24A2.52,2.52,0,0,1,70,1.06,1.22,1.22,0,0,1,70.4.41Z" transform="translate(5.41 5.24)"/><path class="cls-8" d="M70.48,8.83a13.49,13.49,0,0,1-.17,4.66A19.13,19.13,0,0,1,70,10.22a2.55,2.55,0,0,1,.08-.74A1.23,1.23,0,0,1,70.48,8.83Z" transform="translate(5.41 5.24)"/><path class="cls-2" d="M71.62,5.26l-.29-5a3.34,3.34,0,0,1,.07-1c.15,0,.22.24.27.5l.13.61A8.73,8.73,0,0,1,72,1.7,12.64,12.64,0,0,1,71.62,5.26Z" transform="translate(5.41 5.24)"/><path class="cls-2" d="M77.76,1.35l.76-1.73A4,4,0,0,1,78,1.48a6.61,6.61,0,0,0-.68,1.88A3.17,3.17,0,0,1,77.76,1.35Z" transform="translate(5.41 5.24)"/><path class="cls-2" d="M72.62,8.56l.76-1.73a4.06,4.06,0,0,1-.51,1.86,6.66,6.66,0,0,0-.68,1.89A3.2,3.2,0,0,1,72.62,8.56Z" transform="translate(5.41 5.24)"/><path class="cls-2" d="M75.48,9.41a13.65,13.65,0,0,0,.82-3.32A6.86,6.86,0,0,1,75.48,9.41Z" transform="translate(5.41 5.24)"/><path class="cls-2" d="M76.33,5.9a13.59,13.59,0,0,0,.82-3.31A6.83,6.83,0,0,1,76.33,5.9Z" transform="translate(5.41 5.24)"/></g></g></svg>