<svg id="Layer_1" data-name="Layer 1" xmlns="http://www.w3.org/2000/svg" xmlns:xlink="http://www.w3.org/1999/xlink" viewBox="0 0 112.56 96.02"><defs><filter id="AI_GaussianBlur_4" name="AI_GaussianBlur_4"><feGaussianBlur stdDeviation="4"/></filter><linearGradient id="linear-gradient" x1="67.54" y1="63.22" x2="67.54" y2="14.44" gradientUnits="userSpaceOnUse"><stop offset="0" stop-color="#b13227" stop-opacity="0.1"/><stop offset="1" stop-color="#b13227"/></linearGradient></defs><title>butterfly</title><g opacity="0.2" filter="url(#AI_GaussianBlur_4)"><path d="M94.4,102.32a3.33,3.33,0,0,1-1.79-.54,9.79,9.79,0,0,1-2.77-3.64,3.15,3.15,0,0,0-.59-.85,2.1,2.1,0,0,0-.22-.19l0,0a2.56,2.56,0,0,0-.33-.19l-.1,0-.39-.15.51-1.94-.62,1.9q-.3-.09-.67-.17l-.25-.06.42-2L87,96.38l-.33-.08-.32-.1L86,96,85.72,96l-.54-.25-.1,0c-.21-.11-.4-.23-.58-.34l-.17-.1-.07-.07a5.38,5.38,0,0,1-1.12-1.08,23.62,23.62,0,0,1-2.3-4.75A27.27,27.27,0,0,1,80.15,86a15.57,15.57,0,0,0-2.56-7.27C77.16,78,76.1,76,75.33,74.55S74,72.1,73.45,71.16A3.32,3.32,0,0,1,73,72.34a4.73,4.73,0,0,1,.16,2,5,5,0,0,1-.34,1.23A2.8,2.8,0,0,1,72.46,78a3.47,3.47,0,0,1,0,1A3.66,3.66,0,0,1,72,80.46a3.35,3.35,0,0,1,0,1.84l0,.11-.12.32A3.94,3.94,0,0,1,69,85.61l-.33.08-1.12-.11-1.12.11-.33-.08a3.94,3.94,0,0,1-2.88-2.87l-.13-.33,0-.11a3.34,3.34,0,0,1,0-1.84,3.67,3.67,0,0,1-.49-1.52,3.51,3.51,0,0,1,0-1,2.8,2.8,0,0,1-.39-2.41,5,5,0,0,1-.34-1.23,4.72,4.72,0,0,1,.16-2,3.32,3.32,0,0,1-.42-1.18c-.58.94-1.12,1.93-1.88,3.39S57.92,78,57.48,78.71A15.57,15.57,0,0,0,54.93,86a27.33,27.33,0,0,1-.69,3.33,23.62,23.62,0,0,1-2.3,4.75,5.36,5.36,0,0,1-1.11,1.07l0,0-.17.1c-.19.13-.39.25-.61.36l-.13.06-.51.24-.27.1-.4.14-.32.1-.34.09-.35.09c-.24.05-.46.11-.67.17l-.13,0-.37.14-1-1.76.85,1.81a2.45,2.45,0,0,0-.31.18l-.06,0a2.05,2.05,0,0,0-.22.19,3.16,3.16,0,0,0-.59.85,9.81,9.81,0,0,1-2.77,3.64,3.34,3.34,0,0,1-1.79.54c-1.41,0-2.57-1-3.93-2.2a7.44,7.44,0,0,0-.93-.68A8.13,8.13,0,0,0,35,99l-.07,0-.12-.07c-.2-.09-.46-.24-.72-.39l-.2-.13c-.28-.18-.52-.34-.75-.52L32.06,97l0-.1-.32-.3-.27-.24-.34-.23,0-.07L31,96,30.89,96h0a3.94,3.94,0,0,0-.77-.05,3.3,3.3,0,0,0-.7,0,13.33,13.33,0,0,0-2.81,2.29c-2.64,2.48-3.8,3.23-5,3.23A2.32,2.32,0,0,1,19.31,99c0-2,5.59-9.17,5.65-9.24a8.37,8.37,0,0,0,1.55-2.5,2.49,2.49,0,0,0,.06-.25,1.69,1.69,0,0,0,0-.23v-.25a2.86,2.86,0,0,0,0-.32l0-.11-.06-.25c0-.19-.08-.31-.12-.43s-.11-.32-.17-.47a28.09,28.09,0,0,0-1.26-2.72l1.72-1-1.77.93-.21-.41-.22-.45a27.29,27.29,0,0,1-1.16-2.78l0-.13a24.66,24.66,0,0,1-.81-3.91c0-.36-.07-.64-.1-.92,0,0,0-.37,0-.45l-.74.38L22.8,69l.05-.16c.07-.25.16-.51.25-.76l.14-.36c.09-.23.18-.44.28-.65l.19-.39c.1-.2.21-.38.32-.56l.24-.39c.13-.19.26-.36.4-.53a3.57,3.57,0,0,1,.23-.3,7.72,7.72,0,0,1,.68-.67l.36-.29.15-.1.25-.16.19-.11.23-.12.44-.2.46-.19.82-.31a15.7,15.7,0,0,0,4.59-2.59l.53-.36a14.08,14.08,0,0,1-3.92-.69,18.54,18.54,0,0,1-4.08-1.59l-.1.1L24,56.49l-.11-.1L23.51,56l-.18-.18c-.15-.15-.28-.3-.41-.45l-.09-.11a11.86,11.86,0,0,1-1.51-2.34A11.69,11.69,0,0,1,20.53,51h-.08l-.35-2.11q-.16-1.09-.33-2.13L19.64,46c-.17-1-.33-2-.51-2.88l0-.13Q18.91,42,18.7,41c-.21-1-.42-2-.64-2.87l-.18-.77c-.11-.46-.23-.92-.35-1.35l-.09-.35q-.2-.71-.39-1.37l0-.1L16.35,32l-.22-.67c-.26-.75-.52-1.45-.8-2.18L15,28.34l-.29-.7-.19-.44-.76-1.71-.34-.78-.1.11-1.12-3.1c-.08-.23-.15-.44-.22-.64l0-.11a13.29,13.29,0,0,1-.65-4.18V16a5.9,5.9,0,0,1,.54-2.7l.07-.14c.07-.16.13-.27.19-.39l1.06-1.88.31.2a7.29,7.29,0,0,1,5-1.75,11.2,11.2,0,0,1,1.39.09,31.54,31.54,0,0,1,10.54,3.48c2.43,1.36,7.19,4.35,8.95,5.63,2.27,1.65,18,17.15,20.1,19.75A44.57,44.57,0,0,1,62,41.93l-1.12-2.42-.55-1.18a24.45,24.45,0,0,1-.93-2.51,10.48,10.48,0,0,1-3.32-4.45l-.21-.43,0-.09c-.44-1.18-.81-2.82,0-3.93a2.24,2.24,0,0,1,1.84-1,3.53,3.53,0,0,1,2.56,1.5C62,29.37,62.77,31.82,63.43,34l.14.47a26.57,26.57,0,0,0,1.76,4.3c.31.65.61,1.29.9,1.94.42.9.82,1.86,1.22,2.82l.1.23.1-.24c.4-1,.79-1.91,1.23-2.85.27-.62.58-1.26.89-1.91a26.59,26.59,0,0,0,1.74-4.25l.16-.52c.66-2.17,1.4-4.62,3.25-6.53A3.53,3.53,0,0,1,77.47,26a2.24,2.24,0,0,1,1.84,1c.77,1.11.41,2.75,0,3.93l0,.09-.21.43a10.47,10.47,0,0,1-3.32,4.44,24.41,24.41,0,0,1-.91,2.48l-.58,1.25L73.1,41.93a44.5,44.5,0,0,1,2.59-3.68c2.05-2.59,17.84-18.09,20.1-19.74,1.76-1.28,6.52-4.27,8.95-5.63a31.52,31.52,0,0,1,10.54-3.48,11.2,11.2,0,0,1,1.39-.09,7.25,7.25,0,0,1,5.08,1.83L122,11l1,1.78c.07.13.14.28.21.42l0,0a5.9,5.9,0,0,1,.58,2.7v.9a13.21,13.21,0,0,1-.64,4.15l-.06.18c0,.16-.12.36-.19.57l-1.11,3.13-.12-.12-.35.79c-.28.63-.53,1.18-.76,1.71l-.26.6-.23.54-.31.75c-.32.8-.58,1.52-.84,2.29l-.26.78L118,34.25c-.13.44-.26.9-.39,1.37l-.09.34c-.13.47-.25,1-.37,1.46l-.16.68c-.22.91-.43,1.87-.64,2.87-.14.67-.28,1.37-.41,2.08l0,.1c-.18,1-.35,1.92-.51,2.91l-.13.75q-.17,1-.33,2.13l-.06.43L114.64,51h-.09a13.7,13.7,0,0,1-2.3,4.24l-.11.13-.39.42-.18.18c-.17.16-.32.3-.49.44l-.12.11-1.4,1.11-.1-.1a18.5,18.5,0,0,1-4.09,1.6,14.08,14.08,0,0,1-3.92.69l.53.36a15.69,15.69,0,0,0,4.59,2.59l.83.31.45.19.44.2.18.09.24.14.25.16.15.11.36.29a7.66,7.66,0,0,1,.67.67,3.44,3.44,0,0,1,.23.29c.13.17.27.34.41.54l.21.34c.14.23.25.41.35.61s.13.26.2.4.19.42.28.65l.13.35c.09.26.18.52.26.79,0,0,0,.12.06.19l1.24,4.38-.79-.4,0,.39c0,.34-.06.63-.09.92a25,25,0,0,1-.83,4l0,.1a28.8,28.8,0,0,1-1.14,2.74l-.49,1A28.37,28.37,0,0,0,108.88,85l-.15.43c-.06.18-.09.29-.12.41s-.06.25-.08.35a3.61,3.61,0,0,0,0,.41v.15l0,.24s0,.19,0,.25l0,.09a8.45,8.45,0,0,0,1.55,2.49c.06.07,5.65,7.25,5.65,9.24a2.32,2.32,0,0,1-2.32,2.47c-1.15,0-2.31-.75-5-3.23A14.83,14.83,0,0,0,105.78,96l.4-2L105.66,96a3.48,3.48,0,0,0-.66,0,4,4,0,0,0-.76.05l-.16.05-.15.11-.2.15-.17.17-.07,0-.68.63v.05l-.83.65-.11.07c-.16.13-.4.29-.63.44l-.23.15c-.27.16-.54.31-.81.44h0l-.12.07a8.3,8.3,0,0,0-.81.47,7.41,7.41,0,0,0-.92.68C97,101.37,95.82,102.32,94.4,102.32Z" transform="translate(-11.26 -6.3)"/></g><path d="M94.4,99.32a3.33,3.33,0,0,1-1.79-.54,9.79,9.79,0,0,1-2.77-3.64,3.15,3.15,0,0,0-.59-.85,2.1,2.1,0,0,0-.22-.19l0,0a2.56,2.56,0,0,0-.33-.19l-.1,0-.39-.15.51-1.94-.62,1.9q-.3-.09-.67-.17l-.25-.06.42-2L87,93.38l-.33-.08-.32-.1L86,93,85.72,93l-.54-.25-.1,0c-.21-.11-.4-.23-.58-.34l-.17-.1-.07-.07a5.38,5.38,0,0,1-1.12-1.08,23.62,23.62,0,0,1-2.3-4.75A27.27,27.27,0,0,1,80.15,83a15.57,15.57,0,0,0-2.56-7.27C77.16,75,76.1,73,75.33,71.55S74,69.1,73.45,68.16A3.32,3.32,0,0,1,73,69.34a4.73,4.73,0,0,1,.16,2,5,5,0,0,1-.34,1.23A2.8,2.8,0,0,1,72.46,75a3.47,3.47,0,0,1,0,1A3.66,3.66,0,0,1,72,77.46a3.35,3.35,0,0,1,0,1.84l0,.11-.12.32A3.94,3.94,0,0,1,69,82.61l-.33.08-1.12-.11-1.12.11-.33-.08a3.94,3.94,0,0,1-2.88-2.87l-.13-.33,0-.11a3.34,3.34,0,0,1,0-1.84,3.67,3.67,0,0,1-.49-1.52,3.51,3.51,0,0,1,0-1,2.8,2.8,0,0,1-.39-2.41,5,5,0,0,1-.34-1.23,4.72,4.72,0,0,1,.16-2,3.32,3.32,0,0,1-.42-1.18c-.58.94-1.12,1.93-1.88,3.39S57.92,75,57.48,75.71A15.57,15.57,0,0,0,54.93,83a27.33,27.33,0,0,1-.69,3.33,23.62,23.62,0,0,1-2.3,4.75,5.36,5.36,0,0,1-1.11,1.07l0,0-.17.1c-.19.13-.39.25-.61.36l-.13.06-.51.24-.27.1-.4.14-.32.1-.34.09-.35.09c-.24.05-.46.11-.67.17l-.13,0-.37.14-1-1.76.85,1.81a2.45,2.45,0,0,0-.31.18l-.06,0a2.05,2.05,0,0,0-.22.19,3.16,3.16,0,0,0-.59.85,9.81,9.81,0,0,1-2.77,3.64,3.34,3.34,0,0,1-1.79.54c-1.41,0-2.57-1-3.93-2.2a7.44,7.44,0,0,0-.93-.68A8.13,8.13,0,0,0,35,96l-.07,0-.12-.07c-.2-.09-.46-.24-.72-.39l-.2-.13c-.28-.18-.52-.34-.75-.52L32.06,94l0-.1-.32-.3-.27-.24-.34-.23,0-.07L31,93,30.89,93h0a3.94,3.94,0,0,0-.77-.05,3.3,3.3,0,0,0-.7,0,13.33,13.33,0,0,0-2.81,2.29c-2.64,2.48-3.8,3.23-5,3.23A2.32,2.32,0,0,1,19.31,96c0-2,5.59-9.17,5.65-9.24a8.37,8.37,0,0,0,1.55-2.5,2.49,2.49,0,0,0,.06-.25,1.69,1.69,0,0,0,0-.23v-.25a2.86,2.86,0,0,0,0-.32l0-.11-.06-.25c0-.19-.08-.31-.12-.43s-.11-.32-.17-.47a28.09,28.09,0,0,0-1.26-2.72l1.72-1-1.77.93-.21-.41-.22-.45a27.29,27.29,0,0,1-1.16-2.78l0-.13a24.66,24.66,0,0,1-.81-3.91c0-.36-.07-.64-.1-.92,0,0,0-.37,0-.45l-.74.38L22.8,66l.05-.16c.07-.25.16-.51.25-.76l.14-.36c.09-.23.18-.44.28-.65l.19-.39c.1-.2.21-.38.32-.56l.24-.39c.13-.19.26-.36.4-.53a3.57,3.57,0,0,1,.23-.3,7.72,7.72,0,0,1,.68-.67l.36-.29.15-.1.25-.16.19-.11.23-.12.44-.2.46-.19.82-.31a15.7,15.7,0,0,0,4.59-2.59l.53-.36a14.08,14.08,0,0,1-3.92-.69,18.54,18.54,0,0,1-4.08-1.59l-.1.1L24,53.49l-.11-.1L23.51,53l-.18-.18c-.15-.15-.28-.3-.41-.45l-.09-.11a11.86,11.86,0,0,1-1.51-2.34A11.69,11.69,0,0,1,20.53,48h-.08l-.35-2.11q-.16-1.09-.33-2.13L19.64,43c-.17-1-.33-2-.51-2.88l0-.13Q18.91,39,18.7,38c-.21-1-.42-2-.64-2.87l-.18-.77c-.11-.46-.23-.92-.35-1.35l-.09-.35q-.2-.71-.39-1.37l0-.1L16.35,29l-.22-.67c-.26-.75-.52-1.45-.8-2.18L15,25.34l-.29-.7-.19-.44-.76-1.71-.34-.78-.1.11-1.12-3.1c-.08-.23-.15-.44-.22-.64l0-.11a13.29,13.29,0,0,1-.65-4.18V13a5.9,5.9,0,0,1,.54-2.7l.07-.14c.07-.16.13-.27.19-.39l1.06-1.88.31.2a7.29,7.29,0,0,1,5-1.75,11.2,11.2,0,0,1,1.39.09A31.54,31.54,0,0,1,30.34,9.87c2.43,1.36,7.19,4.35,8.95,5.63,2.27,1.65,18,17.15,20.1,19.75A44.57,44.57,0,0,1,62,38.93l-1.12-2.42-.55-1.18a24.45,24.45,0,0,1-.93-2.51,10.48,10.48,0,0,1-3.32-4.45l-.21-.43,0-.09c-.44-1.18-.81-2.82,0-3.93a2.24,2.24,0,0,1,1.84-1,3.53,3.53,0,0,1,2.56,1.5C62,26.37,62.77,28.82,63.43,31l.14.47a26.57,26.57,0,0,0,1.76,4.3c.31.65.61,1.29.9,1.94.42.9.82,1.86,1.22,2.82l.1.23.1-.24c.4-1,.79-1.91,1.23-2.85.27-.62.58-1.26.89-1.91a26.59,26.59,0,0,0,1.74-4.25l.16-.52c.66-2.17,1.4-4.62,3.25-6.53A3.53,3.53,0,0,1,77.47,23a2.24,2.24,0,0,1,1.84,1c.77,1.11.41,2.75,0,3.93l0,.09-.21.43a10.47,10.47,0,0,1-3.32,4.44,24.41,24.41,0,0,1-.91,2.48l-.58,1.25L73.1,38.93a44.5,44.5,0,0,1,2.59-3.68c2.05-2.59,17.84-18.09,20.1-19.74,1.76-1.28,6.52-4.27,8.95-5.63a31.52,31.52,0,0,1,10.54-3.48,11.2,11.2,0,0,1,1.39-.09,7.25,7.25,0,0,1,5.08,1.83L122,8l1,1.78c.07.13.14.28.21.42l0,0a5.9,5.9,0,0,1,.58,2.7v.9a13.21,13.21,0,0,1-.64,4.15l-.06.18c0,.16-.12.36-.19.57l-1.11,3.13-.12-.12-.35.79c-.28.63-.53,1.18-.76,1.71l-.26.6-.23.54-.31.75c-.32.8-.58,1.52-.84,2.29l-.26.78L118,31.25c-.13.44-.26.9-.39,1.37l-.09.34c-.13.47-.25,1-.37,1.46l-.16.68c-.22.91-.43,1.87-.64,2.87-.14.67-.28,1.37-.41,2.08l0,.1c-.18,1-.35,1.92-.51,2.91l-.13.75q-.17,1-.33,2.13l-.06.43L114.64,48h-.09a13.7,13.7,0,0,1-2.3,4.24l-.11.13-.39.42-.18.18c-.17.16-.32.3-.49.44l-.12.11-1.4,1.11-.1-.1a18.5,18.5,0,0,1-4.09,1.6,14.08,14.08,0,0,1-3.92.69l.53.36a15.69,15.69,0,0,0,4.59,2.59l.83.31.45.19.44.2.18.09.24.14.25.16.15.11.36.29a7.66,7.66,0,0,1,.67.67,3.44,3.44,0,0,1,.23.29c.13.17.27.34.41.54l.21.34c.14.23.25.41.35.61s.13.26.2.4.19.42.28.65l.13.35c.09.26.18.52.26.79,0,0,0,.12.06.19l1.24,4.38-.79-.4,0,.39c0,.34-.06.63-.09.92a25,25,0,0,1-.83,4l0,.1a28.8,28.8,0,0,1-1.14,2.74l-.49,1A28.37,28.37,0,0,0,108.88,82l-.15.43c-.06.18-.09.29-.12.41s-.06.25-.08.35a3.61,3.61,0,0,0,0,.41v.15l0,.24s0,.19,0,.25l0,.09a8.45,8.45,0,0,0,1.55,2.49c.06.07,5.65,7.25,5.65,9.24a2.32,2.32,0,0,1-2.32,2.47c-1.15,0-2.31-.75-5-3.23A14.83,14.83,0,0,0,105.78,93l.4-2L105.66,93a3.48,3.48,0,0,0-.66,0,4,4,0,0,0-.76.05l-.16.05-.15.11-.2.15-.17.17-.07,0-.68.63v.05l-.83.65-.11.07c-.16.13-.4.29-.63.44l-.23.15c-.27.16-.54.31-.81.44h0l-.12.07a8.3,8.3,0,0,0-.81.47,7.41,7.41,0,0,0-.92.68C97,98.37,95.82,99.32,94.4,99.32Z" transform="translate(-11.26 -6.3)" fill="#e55942"/><path d="M94.4,99.32a3.33,3.33,0,0,1-1.79-.54,9.79,9.79,0,0,1-2.77-3.64,3.15,3.15,0,0,0-.59-.85,2.1,2.1,0,0,0-.22-.19l0,0a2.56,2.56,0,0,0-.33-.19l-.1,0-.39-.15.51-1.94-.62,1.9q-.3-.09-.67-.17l-.25-.06.42-2L87,93.38l-.33-.08-.32-.1L86,93,85.72,93l-.54-.25-.1,0c-.21-.11-.4-.23-.58-.34l-.17-.1-.07-.07a5.38,5.38,0,0,1-1.12-1.08,23.62,23.62,0,0,1-2.3-4.75A27.27,27.27,0,0,1,80.15,83a15.57,15.57,0,0,0-2.56-7.27C77.16,75,76.1,73,75.33,71.55S74,69.1,73.45,68.16A3.32,3.32,0,0,1,73,69.34a4.73,4.73,0,0,1,.16,2,5,5,0,0,1-.34,1.23A2.8,2.8,0,0,1,72.46,75a3.47,3.47,0,0,1,0,1A3.66,3.66,0,0,1,72,77.46a3.35,3.35,0,0,1,0,1.84l0,.11-.12.32A3.94,3.94,0,0,1,69,82.61l-.33.08-1.12-.11-1.12.11-.33-.08a3.94,3.94,0,0,1-2.88-2.87l-.13-.33,0-.11a3.34,3.34,0,0,1,0-1.84,3.67,3.67,0,0,1-.49-1.52,3.51,3.51,0,0,1,0-1,2.8,2.8,0,0,1-.39-2.41,5,5,0,0,1-.34-1.23,4.72,4.72,0,0,1,.16-2,3.32,3.32,0,0,1-.42-1.18c-.58.94-1.12,1.93-1.88,3.39S57.92,75,57.48,75.71A15.57,15.57,0,0,0,54.93,83a27.33,27.33,0,0,1-.69,3.33,23.62,23.62,0,0,1-2.3,4.75,5.36,5.36,0,0,1-1.11,1.07l0,0-.17.1c-.19.13-.39.25-.61.36l-.13.06-.51.24-.27.1-.4.14-.32.1-.34.09-.35.09c-.24.05-.46.11-.67.17l-.13,0-.37.14-1-1.76.85,1.81a2.45,2.45,0,0,0-.31.18l-.06,0a2.05,2.05,0,0,0-.22.19,3.16,3.16,0,0,0-.59.85,9.81,9.81,0,0,1-2.77,3.64,3.34,3.34,0,0,1-1.79.54c-1.41,0-2.57-1-3.93-2.2a7.44,7.44,0,0,0-.93-.68A8.13,8.13,0,0,0,35,96l-.07,0-.12-.07c-.2-.09-.46-.24-.72-.39l-.2-.13c-.28-.18-.52-.34-.75-.52L32.06,94l0-.1-.32-.3-.27-.24-.34-.23,0-.07L31,93,30.89,93h0a3.94,3.94,0,0,0-.77-.05,3.3,3.3,0,0,0-.7,0,13.33,13.33,0,0,0-2.81,2.29c-2.64,2.48-3.8,3.23-5,3.23A2.32,2.32,0,0,1,19.31,96c0-2,5.59-9.17,5.65-9.24a8.37,8.37,0,0,0,1.55-2.5,2.49,2.49,0,0,0,.06-.25,1.69,1.69,0,0,0,0-.23v-.25a2.86,2.86,0,0,0,0-.32l0-.11-.06-.25c0-.19-.08-.31-.12-.43s-.11-.32-.17-.47a28.09,28.09,0,0,0-1.26-2.72l1.72-1-1.77.93-.21-.41-.22-.45a27.29,27.29,0,0,1-1.16-2.78l0-.13a24.66,24.66,0,0,1-.81-3.91c0-.36-.07-.64-.1-.92,0,0,0-.37,0-.45l-.74.38L22.8,66l.05-.16c.07-.25.16-.51.25-.76l.14-.36c.09-.23.18-.44.28-.65l.19-.39c.1-.2.21-.38.32-.56l.24-.39c.13-.19.26-.36.4-.53a3.57,3.57,0,0,1,.23-.3,7.72,7.72,0,0,1,.68-.67l.36-.29.15-.1.25-.16.19-.11.23-.12.44-.2.46-.19.82-.31a15.7,15.7,0,0,0,4.59-2.59l.53-.36a14.08,14.08,0,0,1-3.92-.69,18.54,18.54,0,0,1-4.08-1.59l-.1.1L24,53.49l-.11-.1L23.51,53l-.18-.18c-.15-.15-.28-.3-.41-.45l-.09-.11a11.86,11.86,0,0,1-1.51-2.34A11.69,11.69,0,0,1,20.53,48h-.08l-.35-2.11q-.16-1.09-.33-2.13L19.64,43c-.17-1-.33-2-.51-2.88l0-.13Q18.91,39,18.7,38c-.21-1-.42-2-.64-2.87l-.18-.77c-.11-.46-.23-.92-.35-1.35l-.09-.35q-.2-.71-.39-1.37l0-.1L16.35,29l-.22-.67c-.26-.75-.52-1.45-.8-2.18L15,25.34l-.29-.7-.19-.44-.76-1.71-.34-.78-.1.11-1.12-3.1c-.08-.23-.15-.44-.22-.64l0-.11a13.29,13.29,0,0,1-.65-4.18V13a5.9,5.9,0,0,1,.54-2.7l.07-.14c.07-.16.13-.27.19-.39l1.06-1.88.31.2a7.29,7.29,0,0,1,5-1.75,11.2,11.2,0,0,1,1.39.09A31.54,31.54,0,0,1,30.34,9.87c2.43,1.36,7.19,4.35,8.95,5.63,2.27,1.65,18,17.15,20.1,19.75A44.57,44.57,0,0,1,62,38.93l-1.12-2.42-.55-1.18a24.45,24.45,0,0,1-.93-2.51,10.48,10.48,0,0,1-3.32-4.45l-.21-.43,0-.09c-.44-1.18-.81-2.82,0-3.93a2.24,2.24,0,0,1,1.84-1,3.53,3.53,0,0,1,2.56,1.5C62,26.37,62.77,28.82,63.43,31l.14.47a26.57,26.57,0,0,0,1.76,4.3c.31.65.61,1.29.9,1.94.42.9.82,1.86,1.22,2.82l.1.23.1-.24c.4-1,.79-1.91,1.23-2.85.27-.62.58-1.26.89-1.91a26.59,26.59,0,0,0,1.74-4.25l.16-.52c.66-2.17,1.4-4.62,3.25-6.53A3.53,3.53,0,0,1,77.47,23a2.24,2.24,0,0,1,1.84,1c.77,1.11.41,2.75,0,3.93l0,.09-.21.43a10.47,10.47,0,0,1-3.32,4.44,24.41,24.41,0,0,1-.91,2.48l-.58,1.25L73.1,38.93a44.5,44.5,0,0,1,2.59-3.68c2.05-2.59,17.84-18.09,20.1-19.74,1.76-1.28,6.52-4.27,8.95-5.63a31.52,31.52,0,0,1,10.54-3.48,11.2,11.2,0,0,1,1.39-.09,7.25,7.25,0,0,1,5.08,1.83L122,8l1,1.78c.07.13.14.28.21.42l0,0a5.9,5.9,0,0,1,.58,2.7v.9a13.21,13.21,0,0,1-.64,4.15l-.06.18c0,.16-.12.36-.19.57l-1.11,3.13-.12-.12-.35.79c-.28.63-.53,1.18-.76,1.71l-.26.6-.23.54-.31.75c-.32.8-.58,1.52-.84,2.29l-.26.78L118,31.25c-.13.44-.26.9-.39,1.37l-.09.34c-.13.47-.25,1-.37,1.46l-.16.68c-.22.91-.43,1.87-.64,2.87-.14.67-.28,1.37-.41,2.08l0,.1c-.18,1-.35,1.92-.51,2.91l-.13.75q-.17,1-.33,2.13l-.06.43L114.64,48h-.09a13.7,13.7,0,0,1-2.3,4.24l-.11.13-.39.42-.18.18c-.17.16-.32.3-.49.44l-.12.11-1.4,1.11-.1-.1a18.5,18.5,0,0,1-4.09,1.6,14.08,14.08,0,0,1-3.92.69l.53.36a15.69,15.69,0,0,0,4.59,2.59l.83.31.45.19.44.2.18.09.24.14.25.16.15.11.36.29a7.66,7.66,0,0,1,.67.67,3.44,3.44,0,0,1,.23.29c.13.17.27.34.41.54l.21.34c.14.23.25.41.35.61s.13.26.2.4.19.42.28.65l.13.35c.09.26.18.52.26.79,0,0,0,.12.06.19l1.24,4.38-.79-.4,0,.39c0,.34-.06.63-.09.92a25,25,0,0,1-.83,4l0,.1a28.8,28.8,0,0,1-1.14,2.74l-.49,1A28.37,28.37,0,0,0,108.88,82l-.15.43c-.06.18-.09.29-.12.41s-.06.25-.08.35a3.61,3.61,0,0,0,0,.41v.15l0,.24s0,.19,0,.25l0,.09a8.45,8.45,0,0,0,1.55,2.49c.06.07,5.65,7.25,5.65,9.24a2.32,2.32,0,0,1-2.32,2.47c-1.15,0-2.31-.75-5-3.23A14.83,14.83,0,0,0,105.78,93l.4-2L105.66,93a3.48,3.48,0,0,0-.66,0,4,4,0,0,0-.76.05l-.16.05-.15.11-.2.15-.17.17-.07,0-.68.63v.05l-.83.65-.11.07c-.16.13-.4.29-.63.44l-.23.15c-.27.16-.54.31-.81.44h0l-.12.07a8.3,8.3,0,0,0-.81.47,7.41,7.41,0,0,0-.92.68C97,98.37,95.82,99.32,94.4,99.32Z" transform="translate(-11.26 -6.3)" fill="url(#linear-gradient)"/><path d="M49.07,49.63V61.19H47.28v-14h2.5L55.9,58.83V47.19h1.78v14H55.22Z" transform="translate(-11.26 -6.3)" fill="#fff"/><path d="M62.17,56.73a3.73,3.73,0,0,0,1,2.28,3,3,0,0,0,2.2.82,6.22,6.22,0,0,0,1.6-.19,8.53,8.53,0,0,0,1.37-.49l.42,1.54a7.54,7.54,0,0,1-1.6.54,9.18,9.18,0,0,1-2,.2,5.18,5.18,0,0,1-2-.37A4.18,4.18,0,0,1,61.65,60a4.71,4.71,0,0,1-1-1.7A7.29,7.29,0,0,1,60.35,56a6.73,6.73,0,0,1,.34-2.16,5.25,5.25,0,0,1,1-1.73A4.38,4.38,0,0,1,63.1,51a4.34,4.34,0,0,1,1.9-.41,4.63,4.63,0,0,1,1.94.38,3.89,3.89,0,0,1,1.39,1,4.43,4.43,0,0,1,.83,1.54,6.16,6.16,0,0,1,.28,1.86q0,.7-.06,1.36ZM65,52.11a2.49,2.49,0,0,0-1.91.8,4,4,0,0,0-.9,2.36H67.8A3.34,3.34,0,0,0,67,52.93,2.68,2.68,0,0,0,65,52.11Z" transform="translate(-11.26 -6.3)" fill="#fff"/><path d="M74.09,55.91l-3.52-4.12L72,50.57l3.19,4.16,3.13-4.08,1.33,1.14-3.43,4,3.76,4.38-1.35,1.16L75.12,57l-3.43,4.3-1.27-1.12Z" transform="translate(-11.26 -6.3)" fill="#fff"/><path d="M82.53,47.89h1.37v3.28h2.85v1.56H83.89v5a3.23,3.23,0,0,0,.13,1,1.72,1.72,0,0,0,.35.64,1.29,1.29,0,0,0,.52.35,1.9,1.9,0,0,0,.64.11,2.69,2.69,0,0,0,.93-.16,5.93,5.93,0,0,0,.83-.38l.5,1.44a5.59,5.59,0,0,1-1.07.47,4.3,4.3,0,0,1-1.4.23,3,3,0,0,1-2.35-1,4.17,4.17,0,0,1-.86-2.84V52.73H80.33V51.17h1.82Z" transform="translate(-11.26 -6.3)" fill="#fff"/></svg>