<svg id="Layer_1" data-name="Layer 1" xmlns="http://www.w3.org/2000/svg" xmlns:xlink="http://www.w3.org/1999/xlink" viewBox="0 0 270.26 221.26"><defs><style>.cls-1{fill:#31331c;}.cls-2{fill:#525731;}.cls-3{fill:#fa7901;}.cls-4{fill:#ffa12d;}.cls-5{fill:#ffe1b4;}.cls-6{fill:#e03c00;}.cls-7{fill:#777626;}.cls-8{fill:url(#radial-gradient);}.cls-9{fill:#367a00;}.cls-10{fill:#2c5509;}.cls-11{fill:#83b264;}.cls-12{fill:#060108;}.cls-13{fill:url(#radial-gradient-2);}.cls-14{fill:url(#radial-gradient-3);}.cls-15{fill:#fc0;}.cls-16{fill:url(#radial-gradient-4);}.cls-17{fill:url(#radial-gradient-5);}.cls-18{fill:url(#radial-gradient-6);}</style><radialGradient id="radial-gradient" cx="1202.44" cy="84.33" r="9.1" gradientTransform="matrix(-1, 0, 0, 1, 1275.35, 0)" gradientUnits="userSpaceOnUse"><stop offset="0.09" stop-color="#d6390c"/><stop offset="0.53" stop-color="#e95a06"/><stop offset="1" stop-color="#fa7901"/></radialGradient><radialGradient id="radial-gradient-2" cx="-953.81" cy="134.75" r="9.1" gradientTransform="translate(1057.48)" xlink:href="#radial-gradient"/><radialGradient id="radial-gradient-3" cx="-982.14" cy="183.25" r="9.1" gradientTransform="translate(1057.48)" xlink:href="#radial-gradient"/><radialGradient id="radial-gradient-4" cx="1242.86" cy="45.75" r="9.1" xlink:href="#radial-gradient"/><radialGradient id="radial-gradient-5" cx="-808.06" cy="84.33" r="9.1" gradientTransform="translate(1008.39)" xlink:href="#radial-gradient"/><radialGradient id="radial-gradient-6" cx="-767.64" cy="45.75" r="9.1" gradientTransform="translate(1008.39)" xlink:href="#radial-gradient"/></defs><title>orange 2.1</title><path class="cls-1" d="M270.26,12.79c0-.35,0-.69,0-1v-.05a10,10,0,0,0-.91-4.84l0-.07c-.13-.3-.26-.59-.42-.87l0,0c-2.56-4.6-7.5-6.66-14.23-5.82a73.5,73.5,0,0,0-24.38,8.06c-5.87,3.27-17.51,10.59-21.74,13.67-5.35,3.89-44.12,42-49,48.14-7.07,8.93-15,23.09-18.43,33a4.38,4.38,0,0,0-.76-.7,10,10,0,0,0,3.07-7.43,10.81,10.81,0,0,0-1.23-5.08,2.24,2.24,0,0,0,.66-1.58,2.31,2.31,0,0,0-2.34-2.28,2.33,2.33,0,0,0-1.49.56l-.11-.05a47.57,47.57,0,0,0,2.24-4.52c2.45-5.67,5.1-11.24,7.7-16.84a69.71,69.71,0,0,0,2.68-7.56c4.25-1.74,6.49-6.91,8.36-10.69,1.3-3.45,1.73-8.29-2.53-3.33-4.12,4.19-5.67,10-7.35,15.5-1.56,5.64-4.47,10.74-6.81,16.06-1.71,3.68-3.17,7.47-4.79,11.19a5.88,5.88,0,0,0-2.25-.49,5.81,5.81,0,0,0-1,.09,5.81,5.81,0,0,0-1-.09,5.88,5.88,0,0,0-2.25.49c-1.61-3.72-3.08-7.51-4.79-11.19-2.34-5.32-5.25-10.42-6.81-16.06-1.67-5.46-3.23-11.31-7.35-15.5-4.26-5-3.82-.12-2.53,3.33,1.86,3.78,4.11,8.95,8.36,10.69a69.74,69.74,0,0,0,2.68,7.56c2.61,5.59,5.26,11.17,7.7,16.84a47.57,47.57,0,0,0,2.24,4.52l-.11.05a2.33,2.33,0,0,0-1.49-.56,2.31,2.31,0,0,0-2.34,2.28,2.24,2.24,0,0,0,.66,1.58,10.81,10.81,0,0,0-1.23,5.08,10,10,0,0,0,3.07,7.43,4.36,4.36,0,0,0-.76.7c-3.47-9.89-11.36-24.05-18.43-33-4.87-6.15-43.65-44.25-49-48.14C57.55,18.84,45.91,11.52,40,8.24A73.5,73.5,0,0,0,15.66.18C8.93-.66,4,1.41,1.42,6l0,0c-.15.28-.28.57-.42.87l0,.07A10,10,0,0,0,0,11.75v.05c0,.3,0,.64,0,1,0,0,0,.07,0,.11H0c0,.22,0,.43,0,.67a28.09,28.09,0,0,0,1.36,8.88l.1.32q.21.66.47,1.38l.12.35h0c.75,2.05,1.76,4.46,3.1,7.47l.56,1.27c.71,1.58,1.33,3,1.91,4.31h0c.44,1,.85,2,1.24,2.9h0l.32.79h0l.09.22c.95,2.33,1.76,4.51,2.56,6.84h0c.34,1,.68,2,1,3.11h0l.23.71h0l.49,1.56h0l.52,1.66.08.27c.34,1.12.68,2.3,1,3.51l.24.9c.46,1.72.92,3.54,1.37,5.41h0c.55,2.31,1.1,4.73,1.63,7.28.35,1.7.69,3.45,1,5.25h0l.06.32q.66,3.51,1.28,7.27c.11.64.21,1.26.32,1.9q.42,2.62.83,5.35l.07.45h0c0,.19.05.37.08.55h0a21.19,21.19,0,0,0,2.42,7.48,24.5,24.5,0,0,0,3.09,4.82l.2.24q.38.44.78.85l.37.38q.44.43.92.83l.2.18h0c2.9,2.38,6.69,4.07,12.14,5.6,5.17,1.45,5.56,1.5,14.27,1.71,7.83.19,9.08.13,9.92-.46s4.09-.95,4.09-.35a46.06,46.06,0,0,1-6.26,3.41,100.75,100.75,0,0,0-12.1,7.17c-6.46,4.5-8.15,5.45-12.58,7-.74.27-1.35.5-1.91.72l-.22.09-.75.31-.29.13-.55.26-.32.17-.4.22-.38.24-.25.17q-.29.21-.56.45h0a14.3,14.3,0,0,0-1.25,1.24c-.14.15-.26.35-.4.52-.26.32-.52.64-.77,1s-.32.52-.48.78-.42.7-.62,1.08-.26.53-.39.8c-.2.43-.4.88-.58,1.33-.1.25-.2.49-.29.75-.19.54-.37,1.08-.53,1.64,0,.15-.1.28-.14.43h0a27.24,27.24,0,0,0-.94,5.64h0c0,.44,0,.89,0,1.33s0,1.19.07,1.85c0,.15,0,.3,0,.46q.08.93.2,1.93l0,.13a55.69,55.69,0,0,0,1.91,9.07l0,.08a62.12,62.12,0,0,0,2.61,6.22l0,.09.51,1.06.11.23.33.67h0l.16.31a75.82,75.82,0,0,1,3.34,7.25h0c.17.45.32.88.46,1.3l0,.12c.13.39.24.77.34,1.14l.06.24c.09.34.16.68.22,1,0,.1,0,.19,0,.29a12.37,12.37,0,0,1,.14,1.38c0,.22,0,.43,0,.65s0,.31,0,.47,0,.49-.06.73,0,.29-.07.43-.09.49-.15.74-.07.28-.11.42c-.7,2.37-2.26,4.76-4.72,7.89-5.9,7.52-13,18.37-13,19.91,0,2.56,2.75,1,9.7-5.52,4.35-4.08,6.4-5.85,8.31-6.6a6.67,6.67,0,0,1,.73-.24l.2-.05a12.38,12.38,0,0,1,2.85-.25,13,13,0,0,1,3.07.27H45a6.3,6.3,0,0,1,.73.24l.13.05a6.67,6.67,0,0,1,.69.33l.15.09c.23.14.47.29.71.46l.13.1c.26.19.53.4.82.65h0c.31.27.65.56,1,.89h0l.92.86a24.3,24.3,0,0,0,2,1.68h0l.2.14q.7.53,1.42,1l.49.31q.78.47,1.59.87l.25.14a24.83,24.83,0,0,1,2.55,1.45,23.39,23.39,0,0,1,3,2.22c4.62,4.22,6.13,4.87,8.25,3.57,1.35-.84,3.32-3.58,5.05-7a12.73,12.73,0,0,1,2.4-3.43,9.89,9.89,0,0,1,1.29-1.09l.09-.05a11.1,11.1,0,0,1,1.41-.81l.4-.18a15.17,15.17,0,0,1,1.45-.56l.37-.12c.66-.2,1.36-.38,2.12-.54l.61-.15.77-.19.62-.19.81-.28.47-.18q.52-.22,1-.46l.18-.09a11.85,11.85,0,0,0,1.12-.67h0a8.65,8.65,0,0,0,2-1.87,55.46,55.46,0,0,0,5-10.38,63.88,63.88,0,0,0,1.5-7.45c1.38-9.13,2.7-12.86,7-19.93.92-1.5,3.37-6,5.44-10a96.81,96.81,0,0,1,10.65-17,51.59,51.59,0,0,0,4.76-7.75,12.33,12.33,0,0,0,.54,1.32l.47,1-.6.61a5.59,5.59,0,0,0-1.45,2.78,14.62,14.62,0,0,0-.68,5.12c0,1.94,0,2.24.31,2.92a1.85,1.85,0,0,0,.42.75c.21,0,.13.36-.18.88a2.61,2.61,0,0,0-.29,1.61,4.32,4.32,0,0,0,1.38,3.28l.68.8-.34.46a6.38,6.38,0,0,0,.34,7.46l.38.32-.46.6c-1,1.36-.86,2.54.6,3.79.6.51.6.26.05,2.18a3.71,3.71,0,0,0-.13,1.51,5,5,0,0,0,1,2.5,2.42,2.42,0,0,1,.29,2.56,3.89,3.89,0,0,0-.23,2.6c.94,2.43,1.36,4,3.87,4.64l1.75-.18.91-.29.91.29,1.75.18c2.52-.6,2.93-2.21,3.87-4.64a3.89,3.89,0,0,0-.23-2.6,2.42,2.42,0,0,1,.29-2.56,5,5,0,0,0,1-2.5,3.7,3.7,0,0,0-.13-1.51c-.55-1.92-.55-1.67.05-2.18,1.46-1.25,1.64-2.43.6-3.79l-.46-.6.38-.32a6.38,6.38,0,0,0,.34-7.46l-.34-.46.68-.8a4.32,4.32,0,0,0,1.38-3.28,2.61,2.61,0,0,0-.29-1.61c-.31-.52-.38-.88-.18-.88a1.86,1.86,0,0,0,.42-.75c.27-.68.3-1,.31-2.92a14.63,14.63,0,0,0-.68-5.12,5.59,5.59,0,0,0-1.45-2.78l-.6-.61.47-1a12.33,12.33,0,0,0,.54-1.32,51.58,51.58,0,0,0,4.76,7.75,96.81,96.81,0,0,1,10.65,17c2.08,4,4.53,8.53,5.44,10,4.33,7.07,5.64,10.8,7,19.93a63.88,63.88,0,0,0,1.5,7.45,55.45,55.45,0,0,0,5,10.38,8.62,8.62,0,0,0,2,1.86h0a11.87,11.87,0,0,0,1.13.67l.18.08q.48.24,1,.46l.47.18.81.28.62.19.77.19.61.15c.76.16,1.46.34,2.12.54l.37.12a15.09,15.09,0,0,1,1.45.56l.4.18a11.1,11.1,0,0,1,1.41.81l.09.05a9.91,9.91,0,0,1,1.29,1.09,12.73,12.73,0,0,1,2.4,3.43c1.73,3.46,3.7,6.21,5.05,7,2.12,1.31,3.63.66,8.25-3.57a23.35,23.35,0,0,1,3-2.21,24.87,24.87,0,0,1,2.57-1.46l.25-.14q.82-.4,1.59-.87l.49-.31q.72-.46,1.42-1l.2-.14h0a24.27,24.27,0,0,0,2-1.67l.92-.86h0c.36-.33.69-.62,1-.89h0c.29-.24.56-.45.82-.65l.13-.09c.24-.17.48-.33.71-.46l.15-.08a6.69,6.69,0,0,1,.69-.33l.13-.05a6.31,6.31,0,0,1,.74-.24h.06a13,13,0,0,1,3.07-.27,12.38,12.38,0,0,1,2.85.25l.2.05a6.65,6.65,0,0,1,.73.24c1.92.76,4,2.53,8.31,6.6,7,6.52,9.7,8.08,9.7,5.52,0-1.53-7.08-12.39-13-19.91-2.46-3.13-4-5.52-4.72-7.89,0-.14-.08-.28-.11-.41s-.11-.5-.16-.75-.05-.29-.07-.43,0-.48-.06-.73,0-.31,0-.47,0-.42,0-.63a12.35,12.35,0,0,1,.15-1.39c0-.09,0-.19,0-.28.06-.33.14-.66.22-1l.06-.24q.15-.56.34-1.14l0-.12c.14-.42.29-.85.46-1.3h0a75.54,75.54,0,0,1,3.34-7.25l.16-.31h0l.33-.67.11-.23.49-1,.06-.12a62.15,62.15,0,0,0,2.6-6.21l0-.08a55.66,55.66,0,0,0,1.9-9.07l0-.14q.12-1,.2-1.93c0-.16,0-.31,0-.46,0-.66.08-1.29.07-1.84s0-.88,0-1.33h0a27.24,27.24,0,0,0-.94-5.64h0c0-.15-.1-.28-.14-.43-.16-.56-.34-1.11-.53-1.64-.09-.25-.19-.5-.29-.74-.18-.46-.38-.9-.58-1.33-.13-.27-.26-.54-.39-.8s-.41-.73-.62-1.08-.31-.53-.48-.78-.51-.68-.77-1c-.14-.17-.26-.36-.4-.52a14.3,14.3,0,0,0-1.25-1.24h0c-.18-.16-.37-.31-.57-.45l-.25-.17-.37-.24-.4-.23-.32-.17-.55-.26-.29-.13-.75-.31-.23-.09-1.05-.4h0l-.86-.31c-4.42-1.59-6.12-2.54-12.58-7a100.75,100.75,0,0,0-12.1-7.17,46.06,46.06,0,0,1-6.26-3.41c0-.6,3.12-.33,4.09.35s2.08.65,9.92.46c8.71-.21,9.1-.26,14.27-1.71,5.44-1.53,9.24-3.22,12.14-5.6h0l.2-.18q.48-.4.92-.83l.36-.37q.41-.41.79-.86l.2-.24a24.51,24.51,0,0,0,3.09-4.82,21.19,21.19,0,0,0,2.42-7.48h0c0-.18.05-.36.08-.55h0l.07-.45q.41-2.73.83-5.35c.1-.65.21-1.26.32-1.9q.63-3.76,1.28-7.28l.06-.31h0c.34-1.8.68-3.56,1-5.25.53-2.55,1.07-5,1.63-7.28h0c.45-1.89.91-3.71,1.37-5.43l.23-.87c.33-1.21.67-2.39,1-3.51l.09-.3.51-1.63h0l.49-1.56h0l.23-.71h0c.35-1.09.69-2.12,1-3.11h0c.79-2.33,1.61-4.5,2.55-6.83l.09-.23h0l.32-.79h0c.38-.92.79-1.88,1.23-2.9h0c.58-1.33,1.2-2.73,1.91-4.31l.55-1.24c1.35-3,2.36-5.43,3.11-7.49h0l.12-.36q.25-.71.47-1.37l.1-.32a28.08,28.08,0,0,0,1.36-8.87c0-.25,0-.45,0-.67h0S270.26,12.83,270.26,12.79Z"/><path class="cls-2" d="M202.11,220.26a2.48,2.48,0,0,1-1.3-.46c-1-.61-2.81-2.9-4.68-6.64a13.76,13.76,0,0,0-2.59-3.69,10.77,10.77,0,0,0-1.42-1.2l-.12-.07a12.07,12.07,0,0,0-1.51-.87l-.35-.16a16.43,16.43,0,0,0-1.63-.63l-.38-.13c-.73-.22-1.46-.41-2.21-.57l-.32-.08-.25-.07-.74-.18-.56-.17-.78-.27-.44-.17c-.33-.14-.64-.28-.94-.43l-.11-.05a10.75,10.75,0,0,1-1-.6l-.09-.06a7.62,7.62,0,0,1-1.79-1.64A54.54,54.54,0,0,1,174,192a64,64,0,0,1-1.46-7.28c-1.41-9.29-2.75-13.09-7.16-20.3-.9-1.47-3.33-5.94-5.41-10a97.9,97.9,0,0,0-10.73-17.17,50.23,50.23,0,0,1-4.66-7.59l-1.08-2.17-.76,2.3a11.21,11.21,0,0,1-.5,1.22l-.76,1.65,1.08,1.1a4.64,4.64,0,0,1,1.21,2.37,13.68,13.68,0,0,1,.63,4.83c0,1.91,0,2.06-.23,2.55-.06.14-.11.25-.15.33a1.08,1.08,0,0,0-.31.34,1.84,1.84,0,0,0,.28,1.83c.11.19.16.27.16,1.1,0,1-.14,1.43-1.15,2.64l-1.18,1.41.82,1.09a5,5,0,0,1,.79,3.64,5.23,5.23,0,0,1-1,2.46l-1.11.93,1,1.36c.62.81.72,1.41-.46,2.42l-.14.11c-.91.74-.74,1.34-.35,2.65l.13.45a2.74,2.74,0,0,1,.09,1.12,4,4,0,0,1-.82,2.09,3.39,3.39,0,0,0-.38,3.41,2.94,2.94,0,0,1,.22,2l-.2.51c-.77,2-1.13,3-2.8,3.42l-1.47-.15-1.12-.35-1.12.35-1.47.15c-1.67-.44-2-1.4-2.8-3.42l-.2-.51a3,3,0,0,1,.22-2,3.38,3.38,0,0,0-.38-3.41,4,4,0,0,1-.82-2.09,2.75,2.75,0,0,1,.09-1.12l.13-.45c.38-1.31.56-1.91-.35-2.65l-.14-.11c-1.18-1-1.08-1.61-.46-2.42l1-1.36-1.12-.93a5.24,5.24,0,0,1-1-2.46,5,5,0,0,1,.79-3.63l.83-1.1-1.19-1.41c-1-1.21-1.14-1.63-1.14-2.64,0-.83,0-.9.15-1.09a1.85,1.85,0,0,0,.28-1.84,1.09,1.09,0,0,0-.31-.34c0-.08-.09-.19-.15-.33-.2-.49-.23-.64-.24-2.55a13.68,13.68,0,0,1,.63-4.83,4.64,4.64,0,0,1,1.21-2.37l1.08-1.1-.76-1.65a11.63,11.63,0,0,1-.5-1.22l-.76-2.3-1.08,2.17A50.33,50.33,0,0,1,121,137.3a97.78,97.78,0,0,0-10.73,17.17c-2.08,4-4.51,8.49-5.41,10-4.42,7.21-5.75,11-7.16,20.3A64,64,0,0,1,96.21,192,54.47,54.47,0,0,1,91.4,202.1a7.66,7.66,0,0,1-1.79,1.65l-.08.06c-.33.22-.64.4-1,.57l-.17.08c-.29.15-.6.29-.93.42l-.37.15-.82.29-.59.19-.67.17-.33.08-.31.08c-.75.16-1.48.34-2.21.57l-.38.13a15.91,15.91,0,0,0-1.55.6l-.44.2a12,12,0,0,0-1.53.88l-.09.06a10.78,10.78,0,0,0-1.42,1.2,13.77,13.77,0,0,0-2.59,3.69c-1.87,3.75-3.7,6-4.68,6.64a2.48,2.48,0,0,1-1.3.46c-1.08,0-2.63-1.06-5.75-3.91A24.3,24.3,0,0,0,59.27,214a25.52,25.52,0,0,0-2.67-1.51l-.25-.13c-.51-.25-1-.53-1.51-.82l-.46-.3c-.46-.29-.92-.61-1.36-.95l-.19-.14A23.33,23.33,0,0,1,51,208.57l-.94-.87-1.24-1.14v0l-.67-.52-.16-.11c-.25-.18-.51-.35-.77-.5l-.17-.1a7.5,7.5,0,0,0-.79-.38l-.12,0a7.78,7.78,0,0,0-.88-.29l-.1,0a13.67,13.67,0,0,0-3.28-.29,13.56,13.56,0,0,0-3.08.27l-.24.06a7.43,7.43,0,0,0-.83.27c-2.13.84-4.27,2.72-8.63,6.81-5.31,5-7.29,6.18-8,6.38,0,0,0-.08,0-.13.21-1.37,6.47-11.26,12.77-19.29,2.37-3,4.11-5.57,4.89-8.22,0-.15.09-.31.13-.46s.12-.54.17-.81l0-.1c0-.12,0-.25.06-.37s.05-.53.07-.8v-.14c0-.12,0-.25,0-.37s0-.36,0-.55v-.15a13.54,13.54,0,0,0-.16-1.49l0-.31c-.06-.35-.15-.7-.24-1.07l-.07-.26c-.1-.38-.22-.78-.35-1.18l0-.13c-.14-.42-.29-.87-.47-1.33a75.17,75.17,0,0,0-3.38-7.35l-.59-1.19-.5-1a61.36,61.36,0,0,1-2.6-6.19,55.3,55.3,0,0,1-1.89-9v-.13c-.08-.66-.15-1.29-.19-1.89l0-.44c0-.64-.07-1.24-.07-1.78,0-.21,0-.42,0-.63h0l0-.64a26.2,26.2,0,0,1,.91-5.43l.06-.21.06-.19c.16-.54.33-1.07.51-1.58.09-.25.18-.48.28-.72.18-.44.36-.86.56-1.28s.26-.54.37-.76.39-.69.59-1l.13-.22c.11-.18.21-.35.32-.51.23-.33.47-.63.71-.93l.2-.27a2.7,2.7,0,0,1,.16-.21,13.34,13.34,0,0,1,1.16-1.16c.16-.14.33-.27.5-.4l.22-.15.33-.21.36-.2.29-.16.52-.25.27-.12.73-.3.14-.06c.63-.24,1.23-.47,2-.74,4.5-1.61,6.3-2.62,12.81-7.16a100,100,0,0,1,12-7.09C71.5,116,71.5,115.72,71.5,115c0-.5-.27-1.33-2.08-1.33a7.36,7.36,0,0,0-3.58.86c-.35.24-1,.37-3.6.37-1.23,0-2.89,0-5.72-.1-8.67-.21-8.93-.24-14-1.67-5.46-1.53-9.09-3.2-11.77-5.41l-.19-.16c-.3-.26-.59-.52-.87-.79l-.35-.35q-.38-.39-.74-.81l-.19-.23a23.49,23.49,0,0,1-3-4.63,20.17,20.17,0,0,1-2.33-7.2l-.16-1q-.41-2.73-.83-5.36l-.32-1.9c-.37-2.23-.75-4.39-1.12-6.43l-.22-1.19c-.34-1.8-.68-3.57-1-5.27-.42-2-.86-4-1.36-6.14h0l-.28-1.17c-.48-2-.93-3.78-1.37-5.44l-.24-.9c-.31-1.13-.63-2.23-.94-3.29l-.66-2.17c-.17-.54-.75-2.4-.75-2.4-.34-1.05-.67-2.05-1-3l-.44-1.3h0c-.67-1.89-1.36-3.7-2.13-5.6l-.42-1c-.38-.93-.8-1.89-1.24-2.91L8,35.79H8c-.41-.93-.85-1.91-1.33-3-.2-.44-.38-.85-.55-1.25C4.65,28.37,3.71,26.08,3,24.15l-.19-.51q-.21-.61-.4-1.17l-.07-.22A27.14,27.14,0,0,1,1,13.57v-.78c0-.35,0-.68,0-1a9.09,9.09,0,0,1,.82-4.49l.07-.14L2,7l.3-.48C4.3,2.9,7.94,1,12.83,1a22,22,0,0,1,2.71.18,73,73,0,0,1,24,7.94C45.44,12.4,57,19.65,61.19,22.72c5.25,3.82,44,41.91,48.8,48,7,8.8,14.83,22.86,18.27,32.69l.57,1.64,1.13-1.32a3.39,3.39,0,0,1,.58-.54l1-.73-.92-.83a9,9,0,0,1-2.73-6.69A9.83,9.83,0,0,1,129,90.28l.35-.65-.52-.52a1.25,1.25,0,0,1-.37-.88,1.31,1.31,0,0,1,1.34-1.28,1.33,1.33,0,0,1,.85.33l.52.43.52-.28.59-.24a4.88,4.88,0,0,1,1.87-.42,4.77,4.77,0,0,1,.81.08l.17,0,.17,0a4.77,4.77,0,0,1,.81-.08,4.88,4.88,0,0,1,1.87.42l.69.28.4.18.54-.37a1.32,1.32,0,0,1,2.19,1,1.26,1.26,0,0,1-.37.88l-.52.52.35.65a9.82,9.82,0,0,1,1.11,4.61,9,9,0,0,1-2.73,6.69l-.92.83,1,.73a3.36,3.36,0,0,1,.59.54l1.13,1.32.57-1.64c3.45-9.83,11.3-23.89,18.27-32.69,4.78-6,43.55-44.13,48.8-48,4.23-3.07,15.75-10.32,21.63-13.6a73,73,0,0,1,24-7.94A21.94,21.94,0,0,1,257.43,1C262.33,1,266,2.9,268,6.49l.52.93a9,9,0,0,1,.78,4.34c0,.35,0,1.47,0,1.47v.33a27,27,0,0,1-1.32,8.58l-.1.32c-.12.39-.26.79-.41,1.2l-.17.48c-.71,1.94-1.66,4.23-3.08,7.43l-.55,1.24c-.48,1.06-.92,2-1.33,3h0l-.58,1.35c-.44,1-.86,2-1.24,2.91L260,41.12h0c-.68,1.68-1.3,3.28-1.89,4.93v0L257.47,48c-.34,1-.68,2-1,3.13l-.35,1.1h0l-1,3.14h0c-.34,1.13-.68,2.3-1,3.51l-.24.88c-.44,1.64-.89,3.43-1.38,5.46-.62,2.61-1.15,5-1.63,7.31-.35,1.7-.7,3.47-1,5.27l-.22,1.19h0c-.38,2-.75,4.2-1.12,6.43l-.32,1.91q-.42,2.63-.83,5.36l-.15,1a20.21,20.21,0,0,1-2.33,7.2,23.54,23.54,0,0,1-3,4.63l-.19.22q-.36.42-.74.81l-.35.35q-.42.41-.87.79l-.19.16c-2.69,2.21-6.32,3.88-11.77,5.41-5.1,1.43-5.36,1.46-14,1.67-2.83.07-4.49.1-5.72.1-2.58,0-3.26-.13-3.6-.37a7.36,7.36,0,0,0-3.58-.86c-1.81,0-2.08.83-2.08,1.33,0,.67,0,.94,6.82,4.31a99.93,99.93,0,0,1,12,7.09c6.51,4.54,8.31,5.54,12.81,7.16l.85.31,1,.39.16.06.79.32.27.12.53.25.34.18.32.18.31.2.24.16c.17.13.34.26.5.4a13.38,13.38,0,0,1,1.16,1.16c.06.06.11.14.16.21l.2.26c.25.3.49.6.72.93.11.16.21.33.31.51l.13.23c.2.33.4.67.59,1s.25.51.37.77c.2.42.38.84.56,1.28.09.24.19.47.27.71.19.52.36,1,.52,1.59l.06.2.05.2a26.21,26.21,0,0,1,.91,5.43l0,.64h0c0,.21,0,.42,0,.64,0,.54,0,1.14-.07,1.77l0,.45c0,.61-.11,1.23-.19,1.88l0,.13a54.56,54.56,0,0,1-1.87,8.9l0,.1a60.59,60.59,0,0,1-2.55,6.07l-.06.13-.49,1-.59,1.19A75.26,75.26,0,0,0,232.5,181c-.18.46-.33.91-.47,1.34l0,.12c-.13.41-.25.81-.35,1.2l0,.17c-.11.45-.19.8-.26,1.15,0,.07,0,.15,0,.22a13.8,13.8,0,0,0-.17,1.59v.17c0,.17,0,.35,0,.52s0,.24,0,.37v.14c0,.27,0,.54.07.8s0,.24.06.35l0,.12c0,.28.1.55.17.82s.08.3.12.45c.79,2.66,2.52,5.21,4.89,8.23,6.3,8,12.56,17.91,12.77,19.33,0,0,0,.06,0,.09-.73-.2-2.7-1.4-8-6.38-4.36-4.09-6.5-6-8.63-6.81a7.78,7.78,0,0,0-.84-.27l-.24-.06a13.54,13.54,0,0,0-3.08-.27,13.68,13.68,0,0,0-3.3.3,7.18,7.18,0,0,0-.92.29L224,205a7.57,7.57,0,0,0-.78.38l-.16.09c-.27.16-.53.33-.8.52l-.15.11c-.24.18-.49.37-.76.59v0l-1.14,1-.93.87a22.73,22.73,0,0,1-1.88,1.61l-.19.14c-.45.34-.9.65-1.36.95l-.47.3c-.5.3-1,.58-1.51.83l-.18.1A27.21,27.21,0,0,0,211,214a24.17,24.17,0,0,0-3.12,2.31C204.74,219.2,203.18,220.26,202.11,220.26Zm-83.7-164c-3.13-1.73-5.07-5.71-6.65-9l-.43-.88a10.77,10.77,0,0,1-.79-3.85,9.17,9.17,0,0,1,1.66,1.62C115.43,47.46,117,51.84,118.41,56.24Zm33.45,0c1.37-4.4,3-8.78,6.17-12a9.39,9.39,0,0,1,1.71-1.66,11,11,0,0,1-.83,3.94l-.39.79C156.92,50.53,155,54.51,151.85,56.24Z"/><path class="cls-3" d="M70.64,99.53S63.57,94.78,63.57,86,67.1,72.76,67.1,72.76,73,65,80,64.58,90.94,66.2,90.94,66.2s7.57,3.94,10.4,10.91,0,14.54,0,14.54a24.21,24.21,0,0,1-7.17,8.8c-4.65,3.22-12.52,2.71-12.52,2.71S74.88,102.55,70.64,99.53Z"/><path class="cls-4" d="M89.79,81.66a4.32,4.32,0,0,1-2.66-.58,8.7,8.7,0,0,1-4.29-3.81,16.07,16.07,0,0,1-1.08-1.66,35.47,35.47,0,0,1-1.4-3.45,6.13,6.13,0,0,0-2.18-2.95c-.55-.35-1.19-.56-1.76-.87a2.38,2.38,0,0,1-1.26-1.43,1,1,0,0,1,.16-.85,1.16,1.16,0,0,1,.6-.31c.75-.19,1.54-.16,2.3-.28.59-.09,1.17-.28,1.75-.4a16.14,16.14,0,0,1,5.41.13,14.82,14.82,0,0,1,2.49.49,17.88,17.88,0,0,1,2.39,1.06,51.24,51.24,0,0,1,4.85,2.68,3,3,0,0,1,.64.51,6.47,6.47,0,0,1,.7,1.16c.56,1,1.48,1.77,1.75,2.87.41,1.64-.77,3.31-1.64,4.63q-.39.59-.79,1.17a4.79,4.79,0,0,1-1,1.16,4.65,4.65,0,0,1-2.68.65Z"/><path class="cls-5" d="M83.73,67.65a1.11,1.11,0,0,1,.14,1.44,10.92,10.92,0,0,1-1.73,2.47.18.18,0,0,1-.13.08.17.17,0,0,1-.1,0,2.18,2.18,0,0,1-.58-1.53A3.26,3.26,0,0,1,81.6,68a1.64,1.64,0,0,1,1.23-.74,1,1,0,0,1,.63.14A1.26,1.26,0,0,1,83.73,67.65Z"/><path class="cls-5" d="M94.44,69.72a19.31,19.31,0,0,1,1.63,1.76,5.21,5.21,0,0,1,.26,5.86,10.42,10.42,0,0,1-2.8,2.91,3.12,3.12,0,0,1-1.28,0,3.81,3.81,0,0,1-1.38-.8,4.54,4.54,0,0,1-1.15-2.6,7.37,7.37,0,0,1-.12-2.34A15.14,15.14,0,0,1,90,72.87a10.89,10.89,0,0,1,.84-2.7,2.26,2.26,0,0,1,2.32-1.26A2.92,2.92,0,0,1,94.44,69.72Z"/><path class="cls-6" d="M84.66,72.41a1.28,1.28,0,0,1-.53.8A3.3,3.3,0,0,0,82.85,77a9.16,9.16,0,0,1,2.52-4.17.47.47,0,0,1,.31-.2.43.43,0,0,1,.21.07,4.18,4.18,0,0,1,1.63,1.94c.36.78.58,1.62.89,2.42a4.16,4.16,0,0,0-.19-2.13,11.85,11.85,0,0,0-1.29-1.65,1,1,0,0,1-.22-.55.45.45,0,0,1,.32-.46.68.68,0,0,1,.38.07c2,.78,3.94,1.7,5.88,2.61a12.82,12.82,0,0,0-2.77-2.4,5.54,5.54,0,0,0-3.5-.84,9.79,9.79,0,0,1,3.22-3.09,2.11,2.11,0,0,0-1.41.63,22.11,22.11,0,0,0-2.23,2.08l-.4-.1c-.23-.81-1.1-1.38-1.44-2.21a11,11,0,0,1-.32-1.26,1.5,1.5,0,0,0-.75-1A40.42,40.42,0,0,0,85,71a3.48,3.48,0,0,0-2.56-1,8.6,8.6,0,0,0-2.73.59q-1,.35-2,.75a12.36,12.36,0,0,1,5.58-.14C84,71.32,84.79,71.6,84.66,72.41Z"/><path class="cls-7" d="M85.93,72.74A2.62,2.62,0,0,1,84.74,72a2.31,2.31,0,0,1-.39-1.3c0-.38,0-.81.44-1a.88.88,0,0,1,.42-.08,2.16,2.16,0,0,1,1.21.61l.51.42a3.08,3.08,0,0,1,.82.86A.93.93,0,0,1,86.86,73,3.08,3.08,0,0,1,85.93,72.74Z"/><path class="cls-8" d="M64.14,85.61c0,4.88,6.65,10.38,9.53,10.45,3.11.08,10.46-4.27,11-7.37.42-2.28.2-6.82-2.34-9.88a12.72,12.72,0,0,0-8.9-4.19C70.35,74.63,64.14,80.73,64.14,85.61Z"/><path class="cls-9" d="M87.37,69.52s.21-.58-2-2.82a9.4,9.4,0,0,0-1.27-7.21,19.17,19.17,0,0,0-4.57-4.79,14.93,14.93,0,0,0-7.17-1.82,13,13,0,0,0-7.5,2.72s1.32-1.17,2.13-.45a7.57,7.57,0,0,1,1.41,1.93,9.41,9.41,0,0,0,2.77,3.35c2.06,1.63,10.67,7.45,13.91,6.7a5.51,5.51,0,0,1,2,2.5Z"/><path class="cls-10" d="M85.08,66.86a19.05,19.05,0,0,0-4.15-5.43C78,58.68,70.52,55,70.52,55a3.5,3.5,0,0,0-3.28.42s.45.06,1.65,2.59,9.83,7.21,9.83,7.21S82.61,67.5,85,67.12Z"/><path class="cls-11" d="M77.24,57.2A2.52,2.52,0,0,1,76.92,56a1.31,1.31,0,0,0-.6-1.09,1.47,1.47,0,0,0-.79-.05l-2.81.33c-.29,0-.63.11-.74.38a5.6,5.6,0,0,0,2,1.2,24.9,24.9,0,0,1,3.87,2.34c.3.2.67.42,1,.24a.67.67,0,0,0,.14-.94,1.89,1.89,0,0,0-.87-.6A2.09,2.09,0,0,1,77.24,57.2Z"/><path class="cls-12" d="M85.24,71.72a26,26,0,0,0,2-2.8s.62.76,1.07.66c0,0-2.07,1.73-2.07,2.52C86.24,72.1,85.86,72.2,85.24,71.72Z"/><path class="cls-3" d="M105.94,149.94S113,145.2,113,136.41s-3.53-13.23-3.53-13.23-5.86-7.78-12.93-8.18-10.91,1.62-10.91,1.62-7.57,3.94-10.4,10.91,0,14.54,0,14.54a24.21,24.21,0,0,0,7.17,8.8c4.65,3.22,12.52,2.71,12.52,2.71S101.7,153,105.94,149.94Z"/><path class="cls-4" d="M86.79,132.07a4.32,4.32,0,0,0,2.66-.58,8.7,8.7,0,0,0,4.29-3.81A16.07,16.07,0,0,0,94.83,126a35.47,35.47,0,0,0,1.4-3.45,6.13,6.13,0,0,1,2.18-2.95c.55-.35,1.19-.56,1.76-.87a2.38,2.38,0,0,0,1.26-1.43,1,1,0,0,0-.16-.85,1.16,1.16,0,0,0-.6-.31c-.75-.19-1.54-.16-2.3-.28-.59-.09-1.17-.28-1.75-.4a16.14,16.14,0,0,0-5.41.13,14.82,14.82,0,0,0-2.49.49,17.88,17.88,0,0,0-2.39,1.06,51.24,51.24,0,0,0-4.85,2.68,3,3,0,0,0-.64.51,6.47,6.47,0,0,0-.7,1.16c-.56,1-1.48,1.77-1.75,2.87C78,126,79.16,127.69,80,129q.39.59.79,1.17a4.79,4.79,0,0,0,1,1.16,4.65,4.65,0,0,0,2.68.65Z"/><path class="cls-5" d="M92.85,118.07a1.11,1.11,0,0,0-.14,1.44A10.92,10.92,0,0,0,94.44,122a.18.18,0,0,0,.13.08.17.17,0,0,0,.1,0,2.18,2.18,0,0,0,.58-1.53,3.26,3.26,0,0,0-.26-2.11,1.64,1.64,0,0,0-1.23-.74,1,1,0,0,0-.63.14A1.26,1.26,0,0,0,92.85,118.07Z"/><path class="cls-5" d="M82.14,120.14a19.31,19.31,0,0,0-1.63,1.76,5.21,5.21,0,0,0-.26,5.86,10.42,10.42,0,0,0,2.8,2.91,3.12,3.12,0,0,0,1.28,0,3.81,3.81,0,0,0,1.38-.8,4.54,4.54,0,0,0,1.15-2.6A7.37,7.37,0,0,0,87,125a15.14,15.14,0,0,0-.42-1.68,10.89,10.89,0,0,0-.84-2.7,2.26,2.26,0,0,0-2.32-1.26A2.92,2.92,0,0,0,82.14,120.14Z"/><path class="cls-6" d="M91.92,122.83a1.28,1.28,0,0,0,.53.8,3.3,3.3,0,0,1,1.28,3.74,9.16,9.16,0,0,0-2.52-4.17.47.47,0,0,0-.31-.2.43.43,0,0,0-.21.07A4.18,4.18,0,0,0,89.06,125c-.36.78-.58,1.62-.89,2.42a4.16,4.16,0,0,1,.19-2.13,11.85,11.85,0,0,1,1.29-1.65,1,1,0,0,0,.22-.55.45.45,0,0,0-.32-.46.68.68,0,0,0-.38.07c-2,.78-3.94,1.7-5.88,2.61a12.82,12.82,0,0,1,2.77-2.4,5.54,5.54,0,0,1,3.5-.84A9.79,9.79,0,0,0,86.36,119a2.11,2.11,0,0,1,1.41.63A22.11,22.11,0,0,1,90,121.7l.4-.1c.23-.81,1.1-1.38,1.44-2.21a11,11,0,0,0,.32-1.26,1.5,1.5,0,0,1,.75-1,40.42,40.42,0,0,1-1.34,4.27,3.48,3.48,0,0,1,2.56-1,8.6,8.6,0,0,1,2.73.59q1,.35,2,.75a12.36,12.36,0,0,0-5.58-.14C92.59,121.74,91.79,122,91.92,122.83Z"/><path class="cls-7" d="M90.65,123.15a2.62,2.62,0,0,0,1.19-.72,2.31,2.31,0,0,0,.39-1.3c0-.38,0-.81-.44-1a.88.88,0,0,0-.42-.08,2.16,2.16,0,0,0-1.21.61l-.51.42a3.08,3.08,0,0,0-.82.86.93.93,0,0,0,.89,1.47A3.08,3.08,0,0,0,90.65,123.15Z"/><path class="cls-13" d="M112.44,136c0,4.88-6.65,10.38-9.53,10.45-3.11.08-10.46-4.27-11-7.37-.42-2.28-.2-6.82,2.34-9.88a12.72,12.72,0,0,1,8.9-4.19C106.23,125,112.44,131.15,112.44,136Z"/><path class="cls-9" d="M89.21,119.94s-.21-.58,2-2.82a9.4,9.4,0,0,1,1.27-7.21,19.17,19.17,0,0,1,4.57-4.79,14.93,14.93,0,0,1,7.17-1.82,13,13,0,0,1,7.5,2.72s-1.32-1.17-2.13-.45a7.57,7.57,0,0,0-1.41,1.93,9.41,9.41,0,0,1-2.77,3.35c-2.06,1.63-10.67,7.45-13.91,6.7a5.51,5.51,0,0,0-2,2.5Z"/><path class="cls-10" d="M91.5,117.28a19.05,19.05,0,0,1,4.15-5.43c2.95-2.75,10.41-6.41,10.41-6.41a3.5,3.5,0,0,1,3.28.42s-.45.06-1.65,2.59-9.83,7.21-9.83,7.21-3.88,2.24-6.29,1.86Z"/><path class="cls-11" d="M99.34,107.61a2.52,2.52,0,0,0,.33-1.24,1.31,1.31,0,0,1,.6-1.09,1.47,1.47,0,0,1,.79-.05l2.81.33c.29,0,.63.11.74.38a5.6,5.6,0,0,1-2,1.2,24.9,24.9,0,0,0-3.87,2.34c-.3.2-.67.42-1,.24a.67.67,0,0,1-.14-.94,1.89,1.89,0,0,1,.87-.6A2.09,2.09,0,0,0,99.34,107.61Z"/><path class="cls-12" d="M91.34,122.14a26,26,0,0,1-2-2.8s-.62.76-1.07.66c0,0,2.07,1.73,2.07,2.52C90.34,122.52,90.72,122.62,91.34,122.14Z"/><path class="cls-3" d="M77.61,198.44s7.07-4.75,7.07-13.53-3.53-13.23-3.53-13.23-5.86-7.78-12.93-8.18-10.91,1.62-10.91,1.62-7.57,3.94-10.4,10.91,0,14.54,0,14.54a24.21,24.21,0,0,0,7.17,8.8c4.65,3.22,12.52,2.71,12.52,2.71S73.37,201.47,77.61,198.44Z"/><path class="cls-4" d="M58.46,180.57a4.32,4.32,0,0,0,2.66-.58,11.58,11.58,0,0,0,1.7-.93,11.61,11.61,0,0,0,2.59-2.88,16.07,16.07,0,0,0,1.08-1.66,35.47,35.47,0,0,0,1.4-3.45,6.13,6.13,0,0,1,2.18-2.95c.55-.35,1.19-.56,1.76-.87a2.38,2.38,0,0,0,1.26-1.43,1,1,0,0,0-.16-.85,1.16,1.16,0,0,0-.6-.31c-.75-.19-1.54-.16-2.3-.28-.59-.09-1.17-.28-1.75-.4a16.14,16.14,0,0,0-5.41.13,14.82,14.82,0,0,0-2.49.49A17.88,17.88,0,0,0,58,165.67a51.24,51.24,0,0,0-4.85,2.68,3,3,0,0,0-.64.51,6.47,6.47,0,0,0-.7,1.16c-.56,1-1.48,1.77-1.75,2.87-.41,1.64.77,3.31,1.64,4.63q.39.59.79,1.17a4.79,4.79,0,0,0,1,1.16,4.65,4.65,0,0,0,2.68.65Z"/><path class="cls-5" d="M64.52,166.57a1.11,1.11,0,0,0-.14,1.44,10.92,10.92,0,0,0,1.73,2.47.18.18,0,0,0,.13.08.17.17,0,0,0,.1,0,2.18,2.18,0,0,0,.58-1.53,3.26,3.26,0,0,0-.26-2.11,1.64,1.64,0,0,0-1.23-.74,1,1,0,0,0-.63.14A1.26,1.26,0,0,0,64.52,166.57Z"/><path class="cls-5" d="M53.8,168.64a19.31,19.31,0,0,0-1.63,1.76,5.21,5.21,0,0,0-.26,5.86,10.42,10.42,0,0,0,2.8,2.91,3.12,3.12,0,0,0,1.28,0,3.81,3.81,0,0,0,1.38-.8,4.54,4.54,0,0,0,1.15-2.6,7.37,7.37,0,0,0,.12-2.34,15.14,15.14,0,0,0-.42-1.68,10.89,10.89,0,0,0-.84-2.7,2.26,2.26,0,0,0-2.32-1.26A2.92,2.92,0,0,0,53.8,168.64Z"/><path class="cls-6" d="M63.59,171.33a1.28,1.28,0,0,0,.53.8,3.3,3.3,0,0,1,1.28,3.74,9.16,9.16,0,0,0-2.52-4.17.47.47,0,0,0-.31-.2.43.43,0,0,0-.21.07,4.18,4.18,0,0,0-1.63,1.94c-.36.78-.58,1.62-.89,2.42A4.16,4.16,0,0,1,60,173.8a11.85,11.85,0,0,1,1.29-1.65,1,1,0,0,0,.22-.55.45.45,0,0,0-.32-.46.68.68,0,0,0-.38.07c-2,.78-3.94,1.7-5.88,2.61a12.82,12.82,0,0,1,2.77-2.4,5.54,5.54,0,0,1,3.5-.84A9.79,9.79,0,0,0,58,167.49a2.11,2.11,0,0,1,1.41.63,22.11,22.11,0,0,1,2.23,2.08l.4-.1c.23-.81,1.1-1.38,1.44-2.21a11,11,0,0,0,.32-1.26,1.5,1.5,0,0,1,.75-1,40.42,40.42,0,0,1-1.34,4.27,3.48,3.48,0,0,1,2.56-1,8.6,8.6,0,0,1,2.73.59q1,.35,2,.75a12.36,12.36,0,0,0-5.58-.14C64.25,170.24,63.46,170.52,63.59,171.33Z"/><path class="cls-7" d="M62.32,171.65a2.62,2.62,0,0,0,1.19-.72,2.31,2.31,0,0,0,.39-1.3c0-.38,0-.81-.44-1a.88.88,0,0,0-.42-.08,2.16,2.16,0,0,0-1.21.61l-.51.42a3.08,3.08,0,0,0-.82.86.93.93,0,0,0,.89,1.47A3.08,3.08,0,0,0,62.32,171.65Z"/><path class="cls-14" d="M84.1,184.53c0,4.88-6.65,10.38-9.53,10.45-3.11.08-10.46-4.27-11-7.37-.42-2.28-.2-6.82,2.34-9.88a12.72,12.72,0,0,1,8.9-4.19C77.9,173.54,84.1,179.65,84.1,184.53Z"/><path class="cls-9" d="M60.88,168.44s-.21-.58,2-2.82a9.4,9.4,0,0,1,1.27-7.21,19.17,19.17,0,0,1,4.57-4.79,14.93,14.93,0,0,1,7.17-1.82,13,13,0,0,1,7.5,2.72s-1.32-1.17-2.13-.45A7.57,7.57,0,0,0,79.91,156a9.41,9.41,0,0,1-2.77,3.35c-2.06,1.63-10.67,7.45-13.91,6.7a5.51,5.51,0,0,0-2,2.5Z"/><path class="cls-10" d="M63.17,165.78a19.05,19.05,0,0,1,4.15-5.43c2.95-2.75,10.41-6.41,10.41-6.41a3.5,3.5,0,0,1,3.28.42s-.45.06-1.65,2.59-9.83,7.21-9.83,7.21-3.88,2.24-6.29,1.86Z"/><path class="cls-11" d="M71,156.11a2.52,2.52,0,0,0,.33-1.24,1.31,1.31,0,0,1,.6-1.09,1.47,1.47,0,0,1,.79-.05l2.81.33c.29,0,.63.11.74.38a5.6,5.6,0,0,1-2,1.2A24.9,24.9,0,0,0,70.37,158c-.3.2-.67.42-1,.24a.67.67,0,0,1-.14-.94,1.89,1.89,0,0,1,.87-.6A2.09,2.09,0,0,0,71,156.11Z"/><path class="cls-12" d="M63,170.64a26,26,0,0,1-2-2.8s-.62.76-1.07.66c0,0,2.07,1.73,2.07,2.52C62,171,62.39,171.12,63,170.64Z"/><path class="cls-15" d="M197.17,142.06s2.83-7.57,0-14.54-10.4-10.91-10.4-10.91a17.45,17.45,0,0,0-5.38-1.44,8.83,8.83,0,0,0-1.5-5.27,19.18,19.18,0,0,0-4.57-4.79,14.93,14.93,0,0,0-7.17-1.82,12.85,12.85,0,0,0-7.26,2.54c.42-.3,1.29-.8,1.88-.27a7.57,7.57,0,0,1,1.41,1.93,6.69,6.69,0,0,0,.55,1v0A5.73,5.73,0,0,0,166,110a10.86,10.86,0,0,0,.91.81,56.22,56.22,0,0,0,7,4.48c-6.15,1.51-11,7.86-11,7.86s-3.53,4.44-3.53,13.23,7.07,13.53,7.07,13.53c4.24,3,11,3.64,11,3.64s7.88.5,12.52-2.71A24.21,24.21,0,0,0,197.17,142.06Z"/><path class="cls-15" d="M160.88,105.83l-.24.19Z"/><path class="cls-15" d="M225.5,176c-2.83-7-10.4-10.91-10.4-10.91a17.45,17.45,0,0,0-5.38-1.44,8.83,8.83,0,0,0-1.5-5.27,19.17,19.17,0,0,0-4.57-4.79,14.93,14.93,0,0,0-7.17-1.82,12.85,12.85,0,0,0-7.26,2.54c.42-.3,1.29-.8,1.88-.27a7.56,7.56,0,0,1,1.41,1.93,6.7,6.7,0,0,0,.55,1v0a5.73,5.73,0,0,0,1.31,1.56,10.93,10.93,0,0,0,.91.81,56.21,56.21,0,0,0,7,4.48c-6.15,1.51-11,7.86-11,7.86s-3.53,4.44-3.53,13.23,7.07,13.53,7.07,13.53c4.24,3,11,3.64,11,3.64s7.88.5,12.52-2.71a24.21,24.21,0,0,0,7.17-8.8S228.33,183,225.5,176Z"/><path class="cls-15" d="M189.21,154.33l-.24.19Z"/><path class="cls-3" d="M30.22,60.94s-7.07-4.75-7.07-13.53,3.53-13.23,3.53-13.23S32.54,26.4,39.61,26s10.91,1.62,10.91,1.62,7.57,3.94,10.4,10.91,0,14.54,0,14.54a24.21,24.21,0,0,1-7.17,8.8c-4.65,3.22-12.52,2.71-12.52,2.71S34.46,64,30.22,60.94Z"/><path class="cls-4" d="M49.37,43.07a4.32,4.32,0,0,1-2.66-.58,11.58,11.58,0,0,1-1.7-.93,11.61,11.61,0,0,1-2.59-2.88A16.07,16.07,0,0,1,41.34,37a35.47,35.47,0,0,1-1.4-3.45,6.13,6.13,0,0,0-2.18-2.95c-.55-.35-1.19-.56-1.76-.87a2.38,2.38,0,0,1-1.26-1.43,1,1,0,0,1,.16-.85,1.16,1.16,0,0,1,.6-.31c.75-.19,1.54-.16,2.3-.28.59-.09,1.17-.28,1.75-.4a16.14,16.14,0,0,1,5.41.13,14.82,14.82,0,0,1,2.49.49,17.88,17.88,0,0,1,2.39,1.06,51.24,51.24,0,0,1,4.85,2.68,3,3,0,0,1,.64.51,6.47,6.47,0,0,1,.7,1.16c.56,1,1.48,1.77,1.75,2.87C58.19,37,57,38.69,56.14,40q-.39.59-.79,1.17a4.79,4.79,0,0,1-1,1.16,4.65,4.65,0,0,1-2.68.65Z"/><path class="cls-5" d="M43.31,29.07a1.11,1.11,0,0,1,.14,1.44A10.92,10.92,0,0,1,41.72,33a.18.18,0,0,1-.13.08.17.17,0,0,1-.1,0,2.18,2.18,0,0,1-.58-1.53,3.26,3.26,0,0,1,.26-2.11,1.64,1.64,0,0,1,1.23-.74,1,1,0,0,1,.63.14A1.26,1.26,0,0,1,43.31,29.07Z"/><path class="cls-5" d="M54,31.14a19.31,19.31,0,0,1,1.63,1.76,5.21,5.21,0,0,1,.26,5.86,10.42,10.42,0,0,1-2.8,2.91,3.12,3.12,0,0,1-1.28,0,3.81,3.81,0,0,1-1.38-.8,4.54,4.54,0,0,1-1.15-2.6A7.37,7.37,0,0,1,49.19,36a15.14,15.14,0,0,1,.42-1.68,10.89,10.89,0,0,1,.84-2.7,2.26,2.26,0,0,1,2.32-1.26A2.92,2.92,0,0,1,54,31.14Z"/><path class="cls-6" d="M44.24,33.83a1.28,1.28,0,0,1-.53.8,3.3,3.3,0,0,0-1.28,3.74,9.16,9.16,0,0,1,2.52-4.17.47.47,0,0,1,.31-.2.43.43,0,0,1,.21.07A4.18,4.18,0,0,1,47.1,36c.36.78.58,1.62.89,2.42a4.16,4.16,0,0,0-.19-2.13,11.85,11.85,0,0,0-1.29-1.65,1,1,0,0,1-.22-.55.45.45,0,0,1,.32-.46.68.68,0,0,1,.38.07c2,.78,3.94,1.7,5.88,2.61a12.82,12.82,0,0,0-2.77-2.4,5.54,5.54,0,0,0-3.5-.84A9.79,9.79,0,0,1,49.81,30a2.11,2.11,0,0,0-1.41.63,22.11,22.11,0,0,0-2.23,2.08l-.4-.1c-.23-.81-1.1-1.38-1.44-2.21A11,11,0,0,1,44,29.13a1.5,1.5,0,0,0-.75-1,40.42,40.42,0,0,0,1.34,4.27,3.48,3.48,0,0,0-2.56-1,8.6,8.6,0,0,0-2.73.59q-1,.35-2,.75a12.36,12.36,0,0,1,5.58-.14C43.58,32.74,44.37,33,44.24,33.83Z"/><path class="cls-7" d="M45.51,34.15a2.62,2.62,0,0,1-1.19-.72,2.31,2.31,0,0,1-.39-1.3c0-.38,0-.81.44-1a.88.88,0,0,1,.42-.08,2.16,2.16,0,0,1,1.21.61l.51.42a3.08,3.08,0,0,1,.82.86.93.93,0,0,1-.89,1.47A3.08,3.08,0,0,1,45.51,34.15Z"/><path class="cls-16" d="M23.73,47c0,4.88,6.65,10.38,9.53,10.45,3.11.08,10.46-4.27,11-7.37.42-2.28.2-6.82-2.34-9.88A12.72,12.72,0,0,0,33,36C29.93,36,23.73,42.15,23.73,47Z"/><path class="cls-9" d="M46.95,30.94s.21-.58-2-2.82a9.4,9.4,0,0,0-1.27-7.21,19.17,19.17,0,0,0-4.57-4.79,14.93,14.93,0,0,0-7.17-1.82A13,13,0,0,0,24.39,17s1.32-1.17,2.13-.45a7.57,7.57,0,0,1,1.41,1.93,9.41,9.41,0,0,0,2.77,3.35c2.06,1.63,10.67,7.45,13.91,6.7a5.51,5.51,0,0,1,2,2.5Z"/><path class="cls-10" d="M44.66,28.28a19.05,19.05,0,0,0-4.15-5.43C37.56,20.1,30.1,16.45,30.1,16.45a3.5,3.5,0,0,0-3.28.42s.45.06,1.65,2.59,9.83,7.21,9.83,7.21,3.88,2.24,6.29,1.86Z"/><path class="cls-11" d="M36.83,18.61a2.52,2.52,0,0,1-.33-1.24,1.31,1.31,0,0,0-.6-1.09,1.47,1.47,0,0,0-.79-.05l-2.81.33c-.29,0-.63.11-.74.38a5.6,5.6,0,0,0,2,1.2,24.9,24.9,0,0,1,3.87,2.34c.3.2.67.42,1,.24a.67.67,0,0,0,.14-.94,1.89,1.89,0,0,0-.87-.6A2.09,2.09,0,0,1,36.83,18.61Z"/><path class="cls-12" d="M44.82,33.14a26,26,0,0,0,2-2.8s.62.76,1.07.66c0,0-2.07,1.73-2.07,2.52C45.82,33.52,45.44,33.62,44.82,33.14Z"/><path class="cls-3" d="M202.61,99.53s7.07-4.75,7.07-13.53-3.53-13.23-3.53-13.23-5.86-7.78-12.93-8.18-10.91,1.62-10.91,1.62-7.57,3.94-10.4,10.91,0,14.54,0,14.54a24.21,24.21,0,0,0,7.17,8.8c4.65,3.22,12.52,2.71,12.52,2.71S198.37,102.55,202.61,99.53Z"/><path class="cls-4" d="M183.46,81.66a4.32,4.32,0,0,0,2.66-.58,8.7,8.7,0,0,0,4.29-3.81,16.07,16.07,0,0,0,1.08-1.66,35.47,35.47,0,0,0,1.4-3.45,6.13,6.13,0,0,1,2.18-2.95c.55-.35,1.19-.56,1.76-.87a2.38,2.38,0,0,0,1.26-1.43,1,1,0,0,0-.16-.85,1.16,1.16,0,0,0-.6-.31c-.75-.19-1.54-.16-2.3-.28-.59-.09-1.17-.28-1.75-.4a16.14,16.14,0,0,0-5.41.13,14.82,14.82,0,0,0-2.49.49A17.88,17.88,0,0,0,183,66.75a51.24,51.24,0,0,0-4.85,2.68,3,3,0,0,0-.64.51,6.47,6.47,0,0,0-.7,1.16c-.56,1-1.48,1.77-1.75,2.87-.41,1.64.77,3.31,1.64,4.63q.39.59.79,1.17a4.79,4.79,0,0,0,1,1.16,4.65,4.65,0,0,0,2.68.65Z"/><path class="cls-5" d="M189.52,67.65a1.11,1.11,0,0,0-.14,1.44,10.92,10.92,0,0,0,1.73,2.47.18.18,0,0,0,.13.08.17.17,0,0,0,.1,0,2.18,2.18,0,0,0,.58-1.53,3.26,3.26,0,0,0-.26-2.11,1.64,1.64,0,0,0-1.23-.74,1,1,0,0,0-.63.14A1.26,1.26,0,0,0,189.52,67.65Z"/><path class="cls-5" d="M178.8,69.72a19.31,19.31,0,0,0-1.63,1.76,5.21,5.21,0,0,0-.26,5.86,10.42,10.42,0,0,0,2.8,2.91,3.12,3.12,0,0,0,1.28,0,3.81,3.81,0,0,0,1.38-.8,4.54,4.54,0,0,0,1.15-2.6,7.37,7.37,0,0,0,.12-2.34,15.14,15.14,0,0,0-.42-1.68,10.89,10.89,0,0,0-.84-2.7,2.26,2.26,0,0,0-2.32-1.26A2.92,2.92,0,0,0,178.8,69.72Z"/><path class="cls-6" d="M188.59,72.41a1.28,1.28,0,0,0,.53.8A3.3,3.3,0,0,1,190.4,77a9.16,9.16,0,0,0-2.52-4.17.47.47,0,0,0-.31-.2.43.43,0,0,0-.21.07,4.18,4.18,0,0,0-1.63,1.94c-.36.78-.58,1.62-.89,2.42a4.16,4.16,0,0,1,.19-2.13,11.85,11.85,0,0,1,1.29-1.65,1,1,0,0,0,.22-.55.45.45,0,0,0-.32-.46.68.68,0,0,0-.38.07c-2,.78-3.94,1.7-5.88,2.61a12.82,12.82,0,0,1,2.77-2.4,5.54,5.54,0,0,1,3.5-.84A9.79,9.79,0,0,0,183,68.58a2.11,2.11,0,0,1,1.41.63,22.11,22.11,0,0,1,2.23,2.08l.4-.1c.23-.81,1.1-1.38,1.44-2.21a11,11,0,0,0,.32-1.26,1.5,1.5,0,0,1,.75-1A40.42,40.42,0,0,1,188.23,71a3.48,3.48,0,0,1,2.56-1,8.6,8.6,0,0,1,2.73.59q1,.35,2,.75a12.36,12.36,0,0,0-5.58-.14C189.25,71.32,188.46,71.6,188.59,72.41Z"/><path class="cls-7" d="M187.32,72.74a2.62,2.62,0,0,0,1.19-.72,2.31,2.31,0,0,0,.39-1.3c0-.38,0-.81-.44-1a.88.88,0,0,0-.42-.08,2.16,2.16,0,0,0-1.21.61l-.51.42a3.08,3.08,0,0,0-.82.86.93.93,0,0,0,.89,1.47A3.08,3.08,0,0,0,187.32,72.74Z"/><path class="cls-17" d="M209.1,85.61c0,4.88-6.65,10.38-9.53,10.45-3.11.08-10.46-4.27-11-7.37-.42-2.28-.2-6.82,2.34-9.88a12.72,12.72,0,0,1,8.9-4.19C202.9,74.63,209.1,80.73,209.1,85.61Z"/><path class="cls-9" d="M185.88,69.52s-.21-.58,2-2.82a9.4,9.4,0,0,1,1.27-7.21,19.17,19.17,0,0,1,4.57-4.79,14.93,14.93,0,0,1,7.17-1.82,13,13,0,0,1,7.5,2.72s-1.32-1.17-2.13-.45a7.57,7.57,0,0,0-1.41,1.93,9.41,9.41,0,0,1-2.77,3.35c-2.06,1.63-10.67,7.45-13.91,6.7a5.51,5.51,0,0,0-2,2.5Z"/><path class="cls-10" d="M188.17,66.86a19.05,19.05,0,0,1,4.15-5.43c2.95-2.75,10.41-6.41,10.41-6.41a3.5,3.5,0,0,1,3.28.42s-.45.06-1.65,2.59-9.83,7.21-9.83,7.21-3.88,2.24-6.29,1.86Z"/><path class="cls-11" d="M196,57.2a2.52,2.52,0,0,0,.33-1.24,1.31,1.31,0,0,1,.6-1.09,1.47,1.47,0,0,1,.79-.05l2.81.33c.29,0,.63.11.74.38a5.6,5.6,0,0,1-2,1.2,24.9,24.9,0,0,0-3.87,2.34c-.3.2-.67.42-1,.24a.67.67,0,0,1-.14-.94,1.89,1.89,0,0,1,.87-.6A2.09,2.09,0,0,0,196,57.2Z"/><path class="cls-12" d="M188,71.72a26,26,0,0,1-2-2.8s-.62.76-1.07.66c0,0,2.07,1.73,2.07,2.52C187,72.1,187.39,72.2,188,71.72Z"/><path class="cls-3" d="M243,60.94s7.07-4.75,7.07-13.53-3.53-13.23-3.53-13.23S240.7,26.4,233.63,26s-10.91,1.62-10.91,1.62-7.57,3.94-10.4,10.91,0,14.54,0,14.54a24.21,24.21,0,0,0,7.17,8.8c4.65,3.22,12.52,2.71,12.52,2.71S238.78,64,243,60.94Z"/><path class="cls-4" d="M223.88,43.07a4.32,4.32,0,0,0,2.66-.58,11.58,11.58,0,0,0,1.7-.93,11.61,11.61,0,0,0,2.59-2.88A16.07,16.07,0,0,0,231.91,37a35.47,35.47,0,0,0,1.4-3.45,6.13,6.13,0,0,1,2.18-2.95c.55-.35,1.19-.56,1.76-.87a2.38,2.38,0,0,0,1.26-1.43,1,1,0,0,0-.16-.85,1.16,1.16,0,0,0-.6-.31c-.75-.19-1.54-.16-2.3-.28-.59-.09-1.17-.28-1.75-.4a16.14,16.14,0,0,0-5.41.13,14.82,14.82,0,0,0-2.49.49,17.88,17.88,0,0,0-2.39,1.06,51.24,51.24,0,0,0-4.85,2.68,3,3,0,0,0-.64.51,6.47,6.47,0,0,0-.7,1.16c-.56,1-1.48,1.77-1.75,2.87-.41,1.64.77,3.31,1.64,4.63q.39.59.79,1.17a4.79,4.79,0,0,0,1,1.16,4.65,4.65,0,0,0,2.68.65Z"/><path class="cls-5" d="M229.94,29.07a1.11,1.11,0,0,0-.14,1.44A10.92,10.92,0,0,0,231.52,33a.18.18,0,0,0,.13.08.17.17,0,0,0,.1,0,2.18,2.18,0,0,0,.58-1.53,3.26,3.26,0,0,0-.26-2.11,1.64,1.64,0,0,0-1.23-.74,1,1,0,0,0-.63.14A1.26,1.26,0,0,0,229.94,29.07Z"/><path class="cls-5" d="M219.22,31.14a19.31,19.31,0,0,0-1.63,1.76,5.21,5.21,0,0,0-.26,5.86,10.42,10.42,0,0,0,2.8,2.91,3.12,3.12,0,0,0,1.28,0,3.81,3.81,0,0,0,1.38-.8,4.54,4.54,0,0,0,1.15-2.6,7.37,7.37,0,0,0,.12-2.34,15.14,15.14,0,0,0-.42-1.68,10.89,10.89,0,0,0-.84-2.7,2.26,2.26,0,0,0-2.32-1.26A2.92,2.92,0,0,0,219.22,31.14Z"/><path class="cls-6" d="M229,33.83a1.28,1.28,0,0,0,.53.8,3.3,3.3,0,0,1,1.28,3.74,9.16,9.16,0,0,0-2.52-4.17A.47.47,0,0,0,228,34a.43.43,0,0,0-.21.07A4.18,4.18,0,0,0,226.15,36c-.36.78-.58,1.62-.89,2.42a4.16,4.16,0,0,1,.19-2.13,11.85,11.85,0,0,1,1.29-1.65,1,1,0,0,0,.22-.55.45.45,0,0,0-.32-.46.68.68,0,0,0-.38.07c-2,.78-3.94,1.7-5.88,2.61a12.82,12.82,0,0,1,2.77-2.4,5.54,5.54,0,0,1,3.5-.84A9.79,9.79,0,0,0,223.44,30a2.11,2.11,0,0,1,1.41.63,22.11,22.11,0,0,1,2.23,2.08l.4-.1c.23-.81,1.1-1.38,1.44-2.21a11,11,0,0,0,.32-1.26,1.5,1.5,0,0,1,.75-1,40.42,40.42,0,0,1-1.34,4.27,3.48,3.48,0,0,1,2.56-1,8.6,8.6,0,0,1,2.73.59q1,.35,2,.75a12.36,12.36,0,0,0-5.58-.14C229.67,32.74,228.87,33,229,33.83Z"/><path class="cls-7" d="M227.73,34.15a2.62,2.62,0,0,0,1.19-.72,2.31,2.31,0,0,0,.39-1.3c0-.38,0-.81-.44-1a.88.88,0,0,0-.42-.08,2.16,2.16,0,0,0-1.21.61l-.51.42a3.08,3.08,0,0,0-.82.86.93.93,0,0,0,.89,1.47A3.08,3.08,0,0,0,227.73,34.15Z"/><path class="cls-18" d="M249.52,47c0,4.88-6.65,10.38-9.53,10.45-3.11.08-10.46-4.27-11-7.37-.42-2.28-.2-6.82,2.34-9.88a12.72,12.72,0,0,1,8.9-4.19C243.31,36,249.52,42.15,249.52,47Z"/><path class="cls-9" d="M226.3,30.94s-.21-.58,2-2.82a9.4,9.4,0,0,1,1.27-7.21,19.17,19.17,0,0,1,4.57-4.79,14.93,14.93,0,0,1,7.17-1.82,13,13,0,0,1,7.5,2.72s-1.32-1.17-2.13-.45a7.57,7.57,0,0,0-1.41,1.93,9.41,9.41,0,0,1-2.77,3.35c-2.06,1.63-10.67,7.45-13.91,6.7a5.51,5.51,0,0,0-2,2.5Z"/><path class="cls-10" d="M228.59,28.28a19.05,19.05,0,0,1,4.15-5.43c2.95-2.75,10.41-6.41,10.41-6.41a3.5,3.5,0,0,1,3.28.42s-.45.06-1.65,2.59-9.83,7.21-9.83,7.21-3.88,2.24-6.29,1.86Z"/><path class="cls-11" d="M236.42,18.61a2.52,2.52,0,0,0,.33-1.24,1.31,1.31,0,0,1,.6-1.09,1.47,1.47,0,0,1,.79-.05l2.81.33c.29,0,.63.11.74.38a5.6,5.6,0,0,1-2,1.2,24.9,24.9,0,0,0-3.87,2.34c-.3.2-.67.42-1,.24a.67.67,0,0,1-.14-.94,1.89,1.89,0,0,1,.87-.6A2.09,2.09,0,0,0,236.42,18.61Z"/><path class="cls-12" d="M228.42,33.14a26,26,0,0,1-2-2.8s-.62.76-1.07.66c0,0,2.07,1.73,2.07,2.52C227.42,33.52,227.8,33.62,228.42,33.14Z"/></svg>