<svg id="Layer_1" data-name="Layer 1" xmlns="http://www.w3.org/2000/svg" xmlns:xlink="http://www.w3.org/1999/xlink" viewBox="0 0 100.2 124.99"><defs><style>.cls-1{fill:url(#linear-gradient);}.cls-2{fill:#fc0;}.cls-3{fill:#110600;}.cls-4{fill:#2b2200;}.cls-5{fill:#d2691e;}.cls-6{fill:url(#linear-gradient-2);}.cls-7{fill:url(#linear-gradient-3);}.cls-8{fill:url(#linear-gradient-4);}</style><linearGradient id="linear-gradient" x1="-2480.73" y1="-834.05" x2="-2307.55" y2="-507.8" gradientTransform="matrix(0.28, 0, 0, -0.28, 712.89, -126.07)" gradientUnits="userSpaceOnUse"><stop offset="0" stop-color="#af5700"/><stop offset="1" stop-color="#fad564"/></linearGradient><linearGradient id="linear-gradient-2" x1="2.32" y1="68.87" x2="4.25" y2="68.87" gradientTransform="matrix(1, 0, 0, 1, 0, 0)" xlink:href="#linear-gradient"/><linearGradient id="linear-gradient-3" x1="1.26" y1="78.55" x2="4.61" y2="78.55" gradientTransform="matrix(1, 0, 0, 1, 0, 0)" xlink:href="#linear-gradient"/><linearGradient id="linear-gradient-4" x1="0.2" y1="59.07" x2="4.6" y2="59.07" gradientTransform="matrix(1, 0, 0, 1, 0, 0)" xlink:href="#linear-gradient"/></defs><title>orange-butterfly-half-right</title><g id="g9953"><path id="path9385" class="cls-1" d="M38.17,124.55a5.33,5.33,0,0,1-.87-2.06c-.45-2.11-1.44-3-4-3.62a21.52,21.52,0,0,1-3.18-1c-2.14-1-5.13-4.55-10-11.87A40.73,40.73,0,0,1,15,96c-.43-1.2-1.37-3.5-2.1-5.11C8,80.08,4,67.28,4,62.55c0-7.74,12.4-27.79,23.44-37.88a56.32,56.32,0,0,1,12.16-9C44,13.15,62.24,4.13,65.27,3c7.87-3,18.38-3.83,25-2.1a30,30,0,0,1,8.18,3.55c1.72,1.31,2,4.32,1.44,14-.46,7.5-1.75,12.55-5.25,20.47a65.87,65.87,0,0,1-7.5,12.93C80.82,60.72,76.83,65.15,73.55,67c-2.63,1.47-4.43,1.82-9.58,1.87-4,0-4.48.1-4.56.5-.12.6,1.37,2,4.64,4.52a52.86,52.86,0,0,1,8.81,8.57c2.83,3.55,3.54,5.92,2.25,7.46S73.51,92.33,73.7,95c.16,2.21.12,2.52-.37,3.15a5.62,5.62,0,0,1-2,1.25c-3.09,1.16-3.49,1.8-3.21,5.2.15,1.8.1,2.42-.23,3.07-.5,1-.67,1-2.75,1.29-3.5.42-4.23,1.21-4.26,4.61,0,2.17-.05,2.31-.8,3a1.54,1.54,0,0,1-1.48.51c-.38-.09-2-.24-3.57-.33-3.83-.22-4.29.05-5,3.05-.47,1.84-.71,2-3.72,1.78-3.47-.21-4.3.07-5.71,1.93s-1.63,1.88-2.35,1.12Z"/><path class="cls-2" d="M32.56,71.74c-.93,0-2.09.28-.31.53,5.37.64,10.88-.73,16.14.89a26.83,26.83,0,0,1,9.68,4.41c2.07,1.2,1-1.27-.3-1.56-4.8-3.67-11.11-4.33-17-4.11C38.06,71.9,35.29,72.28,32.56,71.74Zm-11.27,2.4c-1.71.1,1.83,1.15,2.26,1.72A37.39,37.39,0,0,0,40.2,81a39.42,39.42,0,0,1,16,4.84c1,.63,3.67,2.09,4.16.64-5.29-3.79-11.88-5.33-18.3-5.76A36.7,36.7,0,0,1,26,76.63C24.38,75.88,22.93,74.82,21.28,74.14ZM9.88,76.89c-2.08-.33-.11,2.41.52,3.19,2,2.38,4.9,3.58,7.81,4.41,3.37,1,7,1.62,9.82,3.89a26.68,26.68,0,0,1,7.9,8.8,48.47,48.47,0,0,0,5.41,7.3c2.09.78-.76-1.94-1.16-2.54C37,97.85,34.8,93,31,89.34a15.1,15.1,0,0,0-7.71-4.46C19.84,83.82,16,83,13.43,80.29A30,30,0,0,1,9.88,76.89Z"/><path class="cls-3" d="M82.74,0H81.54A50.74,50.74,0,0,0,65.27,3C62.24,4.13,44,13.15,39.62,15.7a56.28,56.28,0,0,0-12.16,9c-1.25,1.14-2.51,2.43-3.78,3.8a3.92,3.92,0,0,1,1.83,1.25c.74.82,1.63,1.3,2.35,2.06a9.43,9.43,0,0,0,2.06,1.77,6.27,6.27,0,0,0,3.2.83,26.67,26.67,0,0,0,3.37.12c1.2-.11,2.44-.17,3.63-.38s1.93-.51,2.81.38c.3.3,1.71,1.68.75,2.06a5.31,5.31,0,0,1-1.81.66,8.46,8.46,0,0,1-1.56-.09,13.33,13.33,0,0,0-1.53-.28c-.56,0-1.16,0-1.71,0A18.79,18.79,0,0,0,35,36.7a18.13,18.13,0,0,0-2.49,0,15,15,0,0,1-3.52.38c-.95-.09-2.63.12-3.49-.25A11.38,11.38,0,0,0,23,36.13c-.79-.15-2.38,0-3-.41s-.95-.83-1.47-1.18C10.65,44.65,4,56.89,4,62.55A13.37,13.37,0,0,0,4.12,64a3.63,3.63,0,0,0,.62-.73,9.14,9.14,0,0,1,1.68-2.06,21.59,21.59,0,0,0,2-2.23,16.07,16.07,0,0,1,2-2.1,26.72,26.72,0,0,1,2.09-1.7A30.09,30.09,0,0,0,15,53.32c.78-.66,1.57-1.31,2.38-1.94a28.85,28.85,0,0,1,3-2.23,13.74,13.74,0,0,1,2.85-1.52,6.9,6.9,0,0,1,2.49-.49c.93.09,1.84,0,2.78.08a11.06,11.06,0,0,0,2.42.34,3.92,3.92,0,0,0,2.13-1c1-.89.91-.3,2-.53.57-.12,1.85-.66,2.41-.29.71.47.9.37,1.11,1.36.13.61-.16,1.4.82,1.4.57,0,1.18-.12,1.74-.08a10.05,10.05,0,0,0,2.31,0,11.21,11.21,0,0,1,2.74-.16,11.44,11.44,0,0,0,2.85,0c.69-.09,2.05-.6,2.67-.21s1.67.77,1.6,1.77c0,.38.08,1.74-.29,1.94a8.52,8.52,0,0,0-1.64,1.12c-.49.43-1.27,1.48-1.84,1.69a13.56,13.56,0,0,1-2.17.7c-.84.16-1.67.23-2.53.41a8.37,8.37,0,0,1-2.49.45,19.76,19.76,0,0,0-2.74-.38,12.66,12.66,0,0,0-2.28,0,15.52,15.52,0,0,1-2.88.16,6.49,6.49,0,0,1-2.21-.12c-.62-.31-2-.69-2.09-1.69s.16-1.4-.78-1.07a17.51,17.51,0,0,0-2.17.87c-.72.36-1.5,1.06-2.21,1.31a23.84,23.84,0,0,0-2.57,1.08c-.72.36-1.55.56-2.24,1-.53.33-1,.56-1.53.87s-1,.75-1.56,1.07-1.06.81-1.63,1.08-1,.38-1.57.66c-.89.46-1.84,1.07-2.74,1.65C10,63.39,9.1,64.23,8,65a13.42,13.42,0,0,0-2.66,2.39L4.87,68c.18.78.37,1.6.61,2.46l.22,0c1.17,0,2.42-.24,3.63-.16s4.58-.54,3.63.21a33.81,33.81,0,0,1-3,1.73,13,13,0,0,0-3.23,2.31l-.06.06Q7.3,76.53,8,78.5a4.69,4.69,0,0,1,.81-.21c1.3-.22,2.62-.27,3.92-.5a36.79,36.79,0,0,0,3.91-1.27,38.57,38.57,0,0,1,4.55-1.41c1.37-.21,2.81-.64,4.17-.74s2.93-.41,4.41-.62c1.76-.25,3.47-.8,5.23-1,1.53-.2,2.93-.73,4.42-1a5.76,5.76,0,0,0,2.38-.62c.9-.71,1.28-.94.17-1.69l-.25-.15a2.68,2.68,0,0,0,1.39.15c.83-.06,1.53,0,2.35-.12A24.55,24.55,0,0,1,48.66,69c.55,0,2.6-.33,3,0a11,11,0,0,1,2.06,1.81A16.74,16.74,0,0,1,55.24,73a8.83,8.83,0,0,1,1.15,2.18,7.1,7.1,0,0,0,.49,2.23c.44.72.89,1.39,1.39,2.06a11.33,11.33,0,0,1,1.53,2.28A2.67,2.67,0,0,1,60,84c-.44,1-.46,1.18-1.6,1.4s-2.22.35-1.14,1.45c.38.39,1.75,1.47,1.81,2A3.5,3.5,0,0,1,59,91a5.81,5.81,0,0,1-1.53,2.06c-.52.43-1.05,1.06-1.85.95s-1.64-.14-2.49-.2c-1.06-.08-1.47-.07-.42.7.44.33,1.79,1.1,1.67,1.81-.09.53-.08,2-.82,2.1a13.23,13.23,0,0,1-2.74.16,9.24,9.24,0,0,1-2.59-.12c-.26-.08-2.14-.95-2.3-.74a1.52,1.52,0,0,0-.25,2.11c.25.5,1.71,2.18,1.67,2.59-.11,1.08.19.86-1.1,1.41a4.25,4.25,0,0,1-2.31.57,4.11,4.11,0,0,1-1.77-.57,18.44,18.44,0,0,0-1.89-1.2,4.43,4.43,0,0,0-.32,1.57,10.52,10.52,0,0,1-.15,2.52c-.64.19-1.18.45-1.81.62s-1.38.62-2,.83c-1.13.36-.83.58-1.81-.45-.15-.16-1.67-1.71-1.78-1.57-.45.55-.92.68-.74,1.81.08.49.56,2.1-.42,1.86-.55-.13-1.07-.63-1.85,0a5.88,5.88,0,0,0-2.06,2.14,20.7,20.7,0,0,1-1,2.48v0a12.83,12.83,0,0,0,3.84,3.4,21.45,21.45,0,0,0,3.18,1c2.56.62,3.55,1.51,4,3.62a5.32,5.32,0,0,0,.87,2.05c.72.77,1.06.62,2.36-1.11s2.24-2.14,5.71-1.93c3,.18,3.25.06,3.71-1.78.76-3,1.21-3.27,5-3,1.58.09,3.19.24,3.58.33a1.53,1.53,0,0,0,1.48-.51c.74-.64.78-.78.8-3,0-3.4.75-4.19,4.25-4.61,2.08-.25,2.26-.33,2.76-1.29.34-.65.38-1.26.23-3.07-.28-3.39.11-4,3.2-5.2a5.6,5.6,0,0,0,2-1.25c.49-.63.53-.93.38-3.14-.19-2.65,0-3.42,1.42-5.08s.57-3.9-2.26-7.45a52.94,52.94,0,0,0-8.8-8.57C60.79,71.4,59.3,70,59.41,69.36c.08-.4.6-.46,4.56-.5,5.15-.05,6.95-.4,9.58-1.87,3.28-1.83,7.27-6.27,13.63-15.14a65.87,65.87,0,0,0,7.49-12.93c3.5-7.92,4.79-13,5.25-20.47.59-9.67.28-12.68-1.44-14A30,30,0,0,0,90.3.89,31.64,31.64,0,0,0,82.74,0Zm-21,12.26c.55-.08-2.66,4.95-2.66,4.95l-1.68,1s-1.26-1.48-1.83-1.61-2.9-1.93-2.38-2.36S61.15,12.33,61.71,12.26Zm11.56,1.91a2.9,2.9,0,0,1,1.59.21c.54.55-4.56,3.24-5.11,3.53a15.59,15.59,0,0,1-4.35.26S64,16.26,66.68,15.31A25.38,25.38,0,0,1,73.27,14.17ZM44,19.07c1,0,1,1.2,1.29,1.65s4.93,3.58,5.34,4.11a6.18,6.18,0,0,1,.61,2.08S58.51,30.6,59,31.13s.43,2.26-.1,2.39-11.14,1.28-11.61.73-2.13-6.59-2.65-7A23.59,23.59,0,0,0,41,24.81c-.56-.13-4.77.61-5-.36,0,0,5.36-4.27,7.18-5.14A2.16,2.16,0,0,1,44,19.07Zm31.31,1c.59,0,6.49.17,8.07,1.36s-1,3.13-1.5,3.24-12.26.72-12.46.59c0,0-6.42-1.36-4.67-3.07S74.71,20,75.3,20.05ZM91,28.88c.39,0,.06,1.06.19,2.82s-.6,3.11-1.11,2.94-6.73-1.75-6.75-2c0,0-9.73-2.27-4.78-3S90.38,29,90.9,28.89ZM60.65,34.52c3.11-.08,10.07,2.47,9.89,2.89,1.89.69,4.65,4.29-1.08,2.85,0,0-5.58-.47-7.32-1.3-1.39-.66-3.55-3.35-2.74-4.1A2,2,0,0,1,60.65,34.52ZM82.4,38.37s6,.22,6.22.73-1.75,4.76-2.26,4.65S82.1,39.26,82.4,38.37ZM53.61,42c1.75,0,3.07.23,3.2.86.36,1.67-4.12,4-4.69,4.24s-12,.06-12,.06v-.57a7.69,7.69,0,0,1,4.59-3.58A49.84,49.84,0,0,1,53.61,42Zm13,.43a13.56,13.56,0,0,1,1.54.07c6.19.59,8.87,2.08,10.42,3.11s2.9,3.59,2.29,4.1-12.16-.66-12.72-.61-4.4-3.22-4.66-3.71C63.47,45.42,62.22,42.57,66.59,42.47Zm-2.73,7.85a7.56,7.56,0,0,1,1.21.12c3.89,1.44,11.11,3.21,10.8,5.14s-15.69,2-16.19,2.1C50.74,57,57.68,50.21,63.86,50.32ZM53.24,58.53a2.32,2.32,0,0,1,.46,0s7.88.36,9.3,1.71.46,4.19.07,4.79-5.69,2.52-6.21,2.22-5.83-4.22-6-4.73S51.05,58.59,53.24,58.53Z"/><path class="cls-2" d="M62.64,75.15a1.45,1.45,0,0,0-.47.12c-1.5.66,1.06,3.2,1.56,3.18,0,.06,2,.4,2.77-.55S64.31,75,62.64,75.15ZM68,84.23a.28.28,0,0,0-.12,0c-.56.17-.76,4.64-.24,4.66a5.53,5.53,0,0,0,2.54-2.1C70.07,86.39,68.64,84.34,68,84.23Zm-.37,9.3a6.18,6.18,0,0,0-3.32,1.61c-.85,1-.09,3.11,2.11,3.09s.65-2.08.65-2.08c.15-.76,1.08-.77,1.24-2.08C68.38,93.65,68.09,93.5,67.64,93.53Zm-7.51,9.66a3,3,0,0,0-1.86.43c-.91.82-.76,3.5-.18,3.56s2.32-1.4,2.32-1.4a2.65,2.65,0,0,0,2.1-1.43C62.8,103.63,61.42,103.21,60.13,103.19Zm-8.35,6.45a7.4,7.4,0,0,0-2.15.29c-1.45.47-1.35,2.33.07,4s2.62-1.57,2.62-1.57c.83-.61,1.44-.12,1.8-1.5C54.35,110,53.09,109.65,51.78,109.64Zm-9,4.3A4.4,4.4,0,0,0,40,115c-2.37,1.93-.11,3.31-.11,3.31,1-.08,1.26-1,1.8-1.22s2.53,0,3.13-1.43C45.25,114.72,44.19,113.93,42.77,113.94Zm-8.52.74c.13,0-1.84,1.33-1.91,1.9s2.23,1.57,3.64,1.26S34.79,114.95,34.25,114.68Z"/><path class="cls-4" d="M41.36,75.21a8.09,8.09,0,0,0-1.1.15c-.36.07-.72.19-1.08.29s-.53.39-.71.63.47.75.59.89.51.16.76.21a2.44,2.44,0,0,1,.51.22,11.19,11.19,0,0,0,2.42.78c.86.15,1.57.66,2.4.87a3.83,3.83,0,0,1,1.86.86c.4.35,1.21.34,1.72.57a3.19,3.19,0,0,0,1.79-.12c.44-.09.4-.62.4-1,0-.54-.44-1-.74-1.4a4,4,0,0,0-.95-.85,5.3,5.3,0,0,0-1-.51,9.47,9.47,0,0,0-1.78-.55,11.36,11.36,0,0,0-2-.37c-.4,0-.83-.38-1.27-.47a10.6,10.6,0,0,0-1.39-.24Zm-13,7.41H28c-.4,0-.38.24-.54.55-.3.59.39.58.73.57-.57,0,1.14.31,1.57.68s.35.69.28,1.15-.76.67-1,.8c-.56.29-.37,0-.47.55,0,.18,1.32.88,1.48,1,.55.35,1.13.56,1.68.94l1.41,1c.53.39,1.06.74,1.62,1.08a6.15,6.15,0,0,0,2,.86,7.48,7.48,0,0,0,2.31.16c.66-.06,1.27,0,1.93-.07s.62-.31,1-.72.11-.7.09-1,.71-.19.83-.19c.41,0,.63-.42.83-.72s.14-.73-.06-1.17-.49-1-.74-1.45a4.12,4.12,0,0,0-1-.95c-.34-.28-.67-.55-1-.79s-.65-.38-1-.59a7.53,7.53,0,0,0-1-.49,2.13,2.13,0,0,0-.94-.15c-.54,0-.6.27-.71.7s.15.52-.51.62a4,4,0,0,1-1.37-.12,4.54,4.54,0,0,1-1.55-.55,10.31,10.31,0,0,0-1.37-.61A10.2,10.2,0,0,0,31,83.29a7.74,7.74,0,0,1-1.14-.46,2.87,2.87,0,0,0-1-.2Zm16.87,1.76-.16,0c-.18,0-.78,0-.64.43a4.9,4.9,0,0,0,.36.81,6.86,6.86,0,0,0,.47.94c.22.27.47.84.78,1s.61.51.95.73a11.16,11.16,0,0,0,1.2.84,3.11,3.11,0,0,0,1.53.57,1.38,1.38,0,0,0,1.12-.44c.25-.24.79-.67.81-1.06s.17-.81-.12-1.1-.56-.81-.9-.93a5.1,5.1,0,0,1-1.11-.53,8.56,8.56,0,0,0-1.48-.57,8.84,8.84,0,0,0-1.75-.43C45.79,84.75,45.62,84.39,45.27,84.37ZM14,84.73c-.19,0-.35,0-.55.06-.41,0-.31.38-.28.72l.23.56a21.27,21.27,0,0,0,1.22,1.75c.31.58.72,1.12,1.06,1.69s1,1.32,1.52,2a6.88,6.88,0,0,1,1,2.05c.21.68.49,1.36.71,2a4.4,4.4,0,0,0,1,1.61,13.54,13.54,0,0,0,1.48,1.38A8.9,8.9,0,0,1,22.84,100a4,4,0,0,0,1,1.08c.26.16.89-.44,1-.58s.52-.09.85.11a8,8,0,0,1,1,1.1,6.83,6.83,0,0,1,.85,1.35c.25.41.55.79.82,1.2.12.17.39.13.59.2.48.17,0-1,0-1.51a6.51,6.51,0,0,1,.36-1.69c.13-.52.27-.63.77-.79a7.08,7.08,0,0,1,1.2.24c.54,0,1,.19,1.59.19s.63.13,1.14-.08.47-.62.59-.95a3.47,3.47,0,0,0,.09-1.29c0-.4-.41-.86-.61-1.2s-.47-.62-.66-1a4.16,4.16,0,0,0-1.11-1,2.47,2.47,0,0,0-1.2-.41,9.76,9.76,0,0,1-1.39-.4,3.56,3.56,0,0,1-1.2-1,12.63,12.63,0,0,1-1.24-1.53,17,17,0,0,1-.87-2,2.06,2.06,0,0,0-1.27-.95,1.37,1.37,0,0,0-1.13.22c-.34.17-.52.76-.71,1.08-.33.54-.19.69-.77.39s-.83-.93-1.19-1.29a9.48,9.48,0,0,0-2-1.27c-.36-.22-.6-.83-.87-1.17a7.61,7.61,0,0,1-.64-1c-.24-.41-.5-.42-.93-.51a8.6,8.6,0,0,1-1.08-.22,8.17,8.17,0,0,1-.82-.43,2.3,2.3,0,0,0-.73-.19Z"/><path id="path9395" class="cls-3" d="M27.5,55.59a14,14,0,0,1,1.2-1.92c.61-.72,1.14-1.5,1.73-2.24A87.75,87.75,0,0,1,37,44.08c.74-.68,1.5-1.35,2.25-2A2.42,2.42,0,0,1,41,41.9c.54.42-.6.74-.87,1.07a51.31,51.31,0,0,0-6.9,7.16c-.8,1-1.6,1.9-2.42,2.83-.64.87-1.41,1.63-2.13,2.44-.19.35-.56.21-.88.21Z"/><path id="path3236" class="cls-3" d="M19.93,58.84a5.15,5.15,0,0,1,.74-1.61,38.74,38.74,0,0,0,3.39-7.61c.39-1.08.56-2.23,1-3.28.14-.49.39-1.12,1-1.13a.56.56,0,0,1,.63.69,11.06,11.06,0,0,1-.39,2.34A29.63,29.63,0,0,1,25,52.41,39.25,39.25,0,0,1,22.06,58c-.27.29-.52.81-.92.86Z"/><path id="path9398" class="cls-3" d="M41.41,29.93c.27-.32.61-.6.91-.9a37.8,37.8,0,0,0,3.08-3.37c.69-.86,1.35-1.73,2-2.63a3.21,3.21,0,0,1,.87-1.08.93.93,0,0,1,.77-.32c.17,0,.44,0,.42.21,0,.63-.55,1-.89,1.52-.69,1-1.39,1.9-2.14,2.8S44.86,28,44,28.83A9.49,9.49,0,0,1,42.55,30Z"/><path id="path9400" class="cls-3" d="M48.76,35.13c.25-.57.76-1,1-1.54,1.08-1.47,2.26-2.85,3.47-4.21.75-.83,1.5-1.65,2.28-2.45a10.53,10.53,0,0,1,2.36-2.26,1.49,1.49,0,0,1,1-.18.38.38,0,0,1,.33.65c-.66.94-1.53,1.71-2.24,2.62-1.73,1.87-3.39,3.82-5,5.81-.52.5-.9,1.12-1.42,1.61-.17.12-.42,0-.62,0Z"/><path id="path9402" class="cls-3" d="M28.37,40a2.06,2.06,0,0,1-.08-1.59,21.83,21.83,0,0,1,.77-2.57,19,19,0,0,1,1-2.26,3.77,3.77,0,0,1,1.82-1.82.63.63,0,0,1,.47-.09.89.89,0,0,1,.27.82,5.74,5.74,0,0,1-.69,1.69c-.38.76-.71,1.54-1.12,2.29s-.52,1.47-.85,2.17a4.17,4.17,0,0,1-.7,1.36Z"/><path id="path9404" class="cls-3" d="M36.44,40c-.1-.34.08-.69.08-1,.07-.58.13-1.16.23-1.74s.23-1.06.32-1.6a23.26,23.26,0,0,1,1-2.9,2.6,2.6,0,0,1,1.2-1.32.68.68,0,0,1,.52-.1c.17,0,.34,0,.43.17.34.34.19.87.07,1.27-.36.93-.67,1.88-1,2.81a11.78,11.78,0,0,0-.57,1.53c-.18.63-.4,1.25-.53,1.89a5,5,0,0,0-.11,1Z"/></g><g id="g9430"><path class="cls-3" d="M6.51,81.08a1.19,1.19,0,0,0,.27-.48A4.25,4.25,0,0,0,7,78.73a9.33,9.33,0,0,0-.43-3.26,3.57,3.57,0,0,0-.93-1.77l-.38-.39.3-.65a5.61,5.61,0,0,0,.6-2.87A4,4,0,0,0,5.91,68a14.31,14.31,0,0,0-.62-1.42,2,2,0,0,1-.11-2.16c.15-.37.38-1.11.52-1.64A6.31,6.31,0,0,0,6,60.58a8.71,8.71,0,0,0-.18-2.07A10.48,10.48,0,0,0,4.27,54.6a3.94,3.94,0,0,0-2.78-1.32l-.45,0H1l-.46,0a4.29,4.29,0,0,0-.51.08q0,5.39.07,10.76.13,19.58.41,39.15l.44.14,1.12.11c1.61-.38,1.87-1.41,2.47-3a2.48,2.48,0,0,0-.15-1.66,1.55,1.55,0,0,1,.19-1.64,3.16,3.16,0,0,0,.61-1.59,2.37,2.37,0,0,0-.08-1c-.35-1.22-.35-1.06,0-1.39.93-.8,1-1.55.38-2.42l-.29-.38.25-.2a4.07,4.07,0,0,0,.22-4.76l-.22-.29.43-.51a2.76,2.76,0,0,0,.88-2.09,1.67,1.67,0,0,0-.19-1C6.43,81.31,6.38,81.08,6.51,81.08Z"/><path id="path9436" class="cls-5" d="M5.28,45.06a1.49,1.49,0,1,1-1.49-1.46,1.48,1.48,0,0,1,1.49,1.46Z"/><path class="cls-3" d="M1,43.49a3.72,3.72,0,0,0-1,.15Q0,49.33.06,55a3.74,3.74,0,0,0,1,.13c2.56,0,4.63-2.61,4.63-5.83S3.57,43.49,1,43.49Z"/><path id="path9440" d="M16.16,18.65c-1.19,2.41-2.62,5.71-5.33,6.82A44.94,44.94,0,0,1,9.12,30.3C7.45,33.87,5.76,37.43,4.2,41,3.57,42.6,2.66,44,2,45.53c-.37.1,0-.37,0-.54,1.25-2.75,2.3-5.59,3.57-8.33C7,33.27,8.86,30,9.86,26.42s2.06-7.21,4.69-9.89C17.26,13.36,17,16.45,16.16,18.65Z"/></g><path class="cls-6" d="M2.54,67.32a1.79,1.79,0,0,0,.31-.63c0-.29-.11-.66.12-.85a.44.44,0,0,1,.61.15,1.26,1.26,0,0,1,.13.69v1.69a1.52,1.52,0,0,0,.23,1,2.46,2.46,0,0,1,.23.26.75.75,0,0,1,.09.39A3.06,3.06,0,0,1,4,71.14a1.57,1.57,0,0,1-.48.73C2.23,72.79,2.13,68,2.54,67.32Z"/><path class="cls-7" d="M2.3,77.33a2.16,2.16,0,0,1-.1-.87.73.73,0,0,1,.53-.63.7.7,0,0,1,.62.24,1.5,1.5,0,0,1,.31.62,3.67,3.67,0,0,0,.24.76.75.75,0,0,0,.62.43c-.19.47.27,1,0,1.49-.06.12-.16.21-.22.33a.53.53,0,0,0,.07.57c.05.06.13.12.12.2s-.08.14-.16.18q-.58.32-1.18.59a.38.38,0,0,1-.26,0,.37.37,0,0,1-.16-.14,3.67,3.67,0,0,1-.7-1.34,1.65,1.65,0,0,0-.22-.62.41.41,0,0,0-.58-.1.64.64,0,0,1,.44-.63.73.73,0,0,1,.73.24C2.72,78.34,2.4,77.72,2.3,77.33Z"/><path class="cls-2" d="M2.67,88.33a1.12,1.12,0,0,0,.23-.2A.75.75,0,0,0,3,87.71a1.67,1.67,0,0,1,.72-1.36.23.23,0,0,0,.16.26c-.07-.16.14-.34.31-.28a.46.46,0,0,1,.26.43c0,.18,0,.35,0,.53,0,.51.44.93.49,1.44a2.06,2.06,0,0,1-.28,1.05l-.46,1a1.34,1.34,0,0,0-.19.83c-.52.16-1.16.47-1.11,1a1.43,1.43,0,0,0,.28.61,4,4,0,0,1,.58,2.37,3.11,3.11,0,0,0-2.13-.88l0-2.54a1.58,1.58,0,0,1,0-.37c0-.1.07-.19.1-.29a1.67,1.67,0,0,0,0-.29A8.52,8.52,0,0,0,1.15,87a9.73,9.73,0,0,0,1.3,2.61C2.47,89.19,2.26,88.68,2.67,88.33Z"/><path class="cls-2" d="M1.65,101a3.1,3.1,0,0,1-.17-1.69c.2-.11.42.17.64.15s.27-.17.37-.29.29-.23.42-.13a.37.37,0,0,1,.11.18l.54,1.44c.12.33.23.75,0,1a1,1,0,0,1-.21.16,2.18,2.18,0,0,1-1.84.42c-.19-.28-.37-.68-.13-.91a.93.93,0,0,1,.39-.17.44.44,0,0,0,.32-.26c0-.14-.13-.31-.24-.22l.11.29"/><path class="cls-8" d="M1.36,56.21c.33.1.34.57.54.85a.85.85,0,0,0,.77.28,2.5,2.5,0,0,0,.81-.28l.22.66A7.76,7.76,0,0,1,4,58.89c.07.44.15,1,.58,1.12l-.66.44a.61.61,0,0,1,.09.66,1.12,1.12,0,0,1-.48.5c-.12.07-.28.19-.23.32a2.73,2.73,0,0,0-2.18-.32c-.35-.36-.23-.94-.35-1.43a4,4,0,0,0-.53-1,.24.24,0,0,1,0-.16c0-.07.08-.11.14-.14.44-.25,1.07-.44,1.22-1A8,8,0,0,0,1.36,56.21Z"/></svg>