<svg id="Layer_1" data-name="Layer 1" xmlns="http://www.w3.org/2000/svg" viewBox="0 0 270.26 221.26"><defs><style>.cls-1{fill:#31331c;}.cls-2{fill:#525731;}.cls-3{fill:#3c6715;}.cls-4{fill:#7bb51f;}.cls-5{fill:#405113;}.cls-6{fill:#549911;}.cls-7{fill:#f4a608;}.cls-8{fill:#fdd211;}.cls-9{fill:#ffff50;}.cls-10{fill:#ffffe9;}.cls-11{fill:#9e591b;stroke:#9e591b;stroke-miterlimit:10;stroke-width:0.32px;}.cls-12{fill:#fc0;}</style></defs><title>pineapply2.1</title><path class="cls-1" d="M270.26,12.79c0-.35,0-.69,0-1v-.05a10,10,0,0,0-.91-4.84l0-.07c-.13-.3-.26-.59-.42-.87l0,0c-2.56-4.6-7.5-6.66-14.23-5.82a73.5,73.5,0,0,0-24.38,8.06c-5.87,3.27-17.51,10.59-21.74,13.67-5.35,3.89-44.12,42-49,48.14-7.07,8.93-15,23.09-18.43,33a4.38,4.38,0,0,0-.76-.7,10,10,0,0,0,3.07-7.43,10.81,10.81,0,0,0-1.23-5.08,2.24,2.24,0,0,0,.66-1.58,2.31,2.31,0,0,0-2.34-2.28,2.33,2.33,0,0,0-1.49.56l-.11-.05a47.57,47.57,0,0,0,2.24-4.52c2.45-5.67,5.1-11.24,7.7-16.84a69.71,69.71,0,0,0,2.68-7.56c4.25-1.74,6.49-6.91,8.36-10.69,1.3-3.45,1.73-8.29-2.53-3.33-4.12,4.19-5.67,10-7.35,15.5-1.56,5.64-4.47,10.74-6.81,16.06-1.71,3.68-3.17,7.47-4.79,11.19a5.88,5.88,0,0,0-2.25-.49,5.81,5.81,0,0,0-1,.09,5.81,5.81,0,0,0-1-.09,5.88,5.88,0,0,0-2.25.49c-1.61-3.72-3.08-7.51-4.79-11.19-2.34-5.32-5.25-10.42-6.81-16.06-1.67-5.46-3.23-11.31-7.35-15.5-4.26-5-3.82-.12-2.53,3.33,1.86,3.78,4.11,8.95,8.36,10.69a69.74,69.74,0,0,0,2.68,7.56c2.61,5.59,5.26,11.17,7.7,16.84a47.57,47.57,0,0,0,2.24,4.52l-.11.05a2.33,2.33,0,0,0-1.49-.56,2.31,2.31,0,0,0-2.34,2.28,2.24,2.24,0,0,0,.66,1.58,10.81,10.81,0,0,0-1.23,5.08,10,10,0,0,0,3.07,7.43,4.36,4.36,0,0,0-.76.7c-3.47-9.89-11.36-24.05-18.43-33-4.87-6.15-43.65-44.25-49-48.14C57.55,18.84,45.91,11.52,40,8.24A73.5,73.5,0,0,0,15.66.18C8.93-.66,4,1.41,1.42,6l0,0c-.15.28-.28.57-.42.87l0,.07A10,10,0,0,0,0,11.75v.05c0,.3,0,.64,0,1,0,0,0,.07,0,.11H0c0,.22,0,.43,0,.67a28.09,28.09,0,0,0,1.36,8.88l.1.32q.21.66.47,1.38l.12.35h0c.75,2.05,1.76,4.46,3.1,7.47l.56,1.27c.71,1.58,1.33,3,1.91,4.31h0c.44,1,.85,2,1.24,2.9h0l.32.79h0l.09.22c.95,2.33,1.76,4.51,2.56,6.84h0c.34,1,.68,2,1,3.11h0l.23.71h0l.49,1.56h0l.52,1.66.08.27c.34,1.12.68,2.3,1,3.51l.24.9c.46,1.72.92,3.54,1.37,5.41h0c.55,2.31,1.1,4.73,1.63,7.28.35,1.7.69,3.45,1,5.25h0l.06.32q.66,3.51,1.28,7.27c.11.64.21,1.26.32,1.9q.42,2.62.83,5.35l.07.45h0c0,.19.05.37.08.55h0a21.19,21.19,0,0,0,2.42,7.48,24.5,24.5,0,0,0,3.09,4.82l.2.24q.38.44.78.85l.37.38q.44.43.92.83l.2.18h0c2.9,2.38,6.69,4.07,12.14,5.6,5.17,1.45,5.56,1.5,14.27,1.71,7.83.19,9.08.13,9.92-.46s4.09-.95,4.09-.35a46.06,46.06,0,0,1-6.26,3.41,100.75,100.75,0,0,0-12.1,7.17c-6.46,4.5-8.15,5.45-12.58,7-.74.27-1.35.5-1.91.72l-.22.09-.75.31-.29.13-.55.26-.32.17-.4.22-.38.24-.25.17q-.29.21-.56.45h0a14.3,14.3,0,0,0-1.25,1.24c-.14.15-.26.35-.4.52-.26.32-.52.64-.77,1s-.32.52-.48.78-.42.7-.62,1.08-.26.53-.39.8c-.2.43-.4.88-.58,1.33-.1.25-.2.49-.29.75-.19.54-.37,1.08-.53,1.64,0,.15-.1.28-.14.43h0a27.24,27.24,0,0,0-.94,5.64h0c0,.44,0,.89,0,1.33s0,1.19.07,1.85c0,.15,0,.3,0,.46q.08.93.2,1.93l0,.13a55.69,55.69,0,0,0,1.91,9.07l0,.08a62.12,62.12,0,0,0,2.61,6.22l0,.09.51,1.06.11.23.33.67h0l.16.31a75.82,75.82,0,0,1,3.34,7.25h0c.17.45.32.88.46,1.3l0,.12c.13.39.24.77.34,1.14l.06.24c.09.34.16.68.22,1,0,.1,0,.19,0,.29a12.37,12.37,0,0,1,.14,1.38c0,.22,0,.43,0,.65s0,.31,0,.47,0,.49-.06.73,0,.29-.07.43-.09.49-.15.74-.07.28-.11.42c-.7,2.37-2.26,4.76-4.72,7.89-5.9,7.52-13,18.37-13,19.91,0,2.56,2.75,1,9.7-5.52,4.35-4.08,6.4-5.85,8.31-6.6a6.67,6.67,0,0,1,.73-.24l.2-.05a12.38,12.38,0,0,1,2.85-.25,13,13,0,0,1,3.07.27H45a6.3,6.3,0,0,1,.73.24l.13.05a6.67,6.67,0,0,1,.69.33l.15.09c.23.14.47.29.71.46l.13.1c.26.19.53.4.82.65h0c.31.27.65.56,1,.89h0l.92.86a24.3,24.3,0,0,0,2,1.68h0l.2.14q.7.53,1.42,1l.49.31q.78.47,1.59.87l.25.14a24.83,24.83,0,0,1,2.55,1.45,23.39,23.39,0,0,1,3,2.22c4.62,4.22,6.13,4.87,8.25,3.57,1.35-.84,3.32-3.58,5.05-7a12.73,12.73,0,0,1,2.4-3.43,9.89,9.89,0,0,1,1.29-1.09l.09-.05a11.1,11.1,0,0,1,1.41-.81l.4-.18a15.17,15.17,0,0,1,1.45-.56l.37-.12c.66-.2,1.36-.38,2.12-.54l.61-.15.77-.19.62-.19.81-.28.47-.18q.52-.22,1-.46l.18-.09a11.85,11.85,0,0,0,1.12-.67h0a8.65,8.65,0,0,0,2-1.87,55.46,55.46,0,0,0,5-10.38,63.88,63.88,0,0,0,1.5-7.45c1.38-9.13,2.7-12.86,7-19.93.92-1.5,3.37-6,5.44-10a96.81,96.81,0,0,1,10.65-17,51.59,51.59,0,0,0,4.76-7.75,12.33,12.33,0,0,0,.54,1.32l.47,1-.6.61a5.59,5.59,0,0,0-1.45,2.78,14.62,14.62,0,0,0-.68,5.12c0,1.94,0,2.24.31,2.92a1.85,1.85,0,0,0,.42.75c.21,0,.13.36-.18.88a2.61,2.61,0,0,0-.29,1.61,4.32,4.32,0,0,0,1.38,3.28l.68.8-.34.46a6.38,6.38,0,0,0,.34,7.46l.38.32-.46.6c-1,1.36-.86,2.54.6,3.79.6.51.6.26.05,2.18a3.71,3.71,0,0,0-.13,1.51,5,5,0,0,0,1,2.5,2.42,2.42,0,0,1,.29,2.56,3.89,3.89,0,0,0-.23,2.6c.94,2.43,1.36,4,3.87,4.64l1.75-.18.91-.29.91.29,1.75.18c2.52-.6,2.93-2.21,3.87-4.64a3.89,3.89,0,0,0-.23-2.6,2.42,2.42,0,0,1,.29-2.56,5,5,0,0,0,1-2.5,3.7,3.7,0,0,0-.13-1.51c-.55-1.92-.55-1.67.05-2.18,1.46-1.25,1.64-2.43.6-3.79l-.46-.6.38-.32a6.38,6.38,0,0,0,.34-7.46l-.34-.46.68-.8a4.32,4.32,0,0,0,1.38-3.28,2.61,2.61,0,0,0-.29-1.61c-.31-.52-.38-.88-.18-.88a1.86,1.86,0,0,0,.42-.75c.27-.68.3-1,.31-2.92a14.63,14.63,0,0,0-.68-5.12,5.59,5.59,0,0,0-1.45-2.78l-.6-.61.47-1a12.33,12.33,0,0,0,.54-1.32,51.58,51.58,0,0,0,4.76,7.75,96.81,96.81,0,0,1,10.65,17c2.08,4,4.53,8.53,5.44,10,4.33,7.07,5.64,10.8,7,19.93a63.88,63.88,0,0,0,1.5,7.45,55.45,55.45,0,0,0,5,10.38,8.62,8.62,0,0,0,2,1.86h0a11.87,11.87,0,0,0,1.13.67l.18.08q.48.24,1,.46l.47.18.81.28.62.19.77.19.61.15c.76.16,1.46.34,2.12.54l.37.12a15.09,15.09,0,0,1,1.45.56l.4.18a11.1,11.1,0,0,1,1.41.81l.09.05a9.91,9.91,0,0,1,1.29,1.09,12.73,12.73,0,0,1,2.4,3.43c1.73,3.46,3.7,6.21,5.05,7,2.12,1.31,3.63.66,8.25-3.57a23.35,23.35,0,0,1,3-2.21,24.87,24.87,0,0,1,2.57-1.46l.25-.14q.82-.4,1.59-.87l.49-.31q.72-.46,1.42-1l.2-.14h0a24.27,24.27,0,0,0,2-1.67l.92-.86h0c.36-.33.69-.62,1-.89h0c.29-.24.56-.45.82-.65l.13-.09c.24-.17.48-.33.71-.46l.15-.08a6.69,6.69,0,0,1,.69-.33l.13-.05a6.31,6.31,0,0,1,.74-.24h.06a13,13,0,0,1,3.07-.27,12.38,12.38,0,0,1,2.85.25l.2.05a6.65,6.65,0,0,1,.73.24c1.92.76,4,2.53,8.31,6.6,7,6.52,9.7,8.08,9.7,5.52,0-1.53-7.08-12.39-13-19.91-2.46-3.13-4-5.52-4.72-7.89,0-.14-.08-.28-.11-.41s-.11-.5-.16-.75-.05-.29-.07-.43,0-.48-.06-.73,0-.31,0-.47,0-.42,0-.63a12.35,12.35,0,0,1,.15-1.39c0-.09,0-.19,0-.28.06-.33.14-.66.22-1l.06-.24q.15-.56.34-1.14l0-.12c.14-.42.29-.85.46-1.3h0a75.54,75.54,0,0,1,3.34-7.25l.16-.31h0l.33-.67.11-.23.49-1,.06-.12a62.15,62.15,0,0,0,2.6-6.21l0-.08a55.66,55.66,0,0,0,1.9-9.07l0-.14q.12-1,.2-1.93c0-.16,0-.31,0-.46,0-.66.08-1.29.07-1.84s0-.88,0-1.33h0a27.24,27.24,0,0,0-.94-5.64h0c0-.15-.1-.28-.14-.43-.16-.56-.34-1.11-.53-1.64-.09-.25-.19-.5-.29-.74-.18-.46-.38-.9-.58-1.33-.13-.27-.26-.54-.39-.8s-.41-.73-.62-1.08-.31-.53-.48-.78-.51-.68-.77-1c-.14-.17-.26-.36-.4-.52a14.3,14.3,0,0,0-1.25-1.24h0c-.18-.16-.37-.31-.57-.45l-.25-.17-.37-.24-.4-.23-.32-.17-.55-.26-.29-.13-.75-.31-.23-.09-1.05-.4h0l-.86-.31c-4.42-1.59-6.12-2.54-12.58-7a100.75,100.75,0,0,0-12.1-7.17,46.06,46.06,0,0,1-6.26-3.41c0-.6,3.12-.33,4.09.35s2.08.65,9.92.46c8.71-.21,9.1-.26,14.27-1.71,5.44-1.53,9.24-3.22,12.14-5.6h0l.2-.18q.48-.4.92-.83l.36-.37q.41-.41.79-.86l.2-.24a24.51,24.51,0,0,0,3.09-4.82,21.19,21.19,0,0,0,2.42-7.48h0c0-.18.05-.36.08-.55h0l.07-.45q.41-2.73.83-5.35c.1-.65.21-1.26.32-1.9q.63-3.76,1.28-7.28l.06-.31h0c.34-1.8.68-3.56,1-5.25.53-2.55,1.07-5,1.63-7.28h0c.45-1.89.91-3.71,1.37-5.43l.23-.87c.33-1.21.67-2.39,1-3.51l.09-.3.51-1.63h0l.49-1.56h0l.23-.71h0c.35-1.09.69-2.12,1-3.11h0c.79-2.33,1.61-4.5,2.55-6.83l.09-.23h0l.32-.79h0c.38-.92.79-1.88,1.23-2.9h0c.58-1.33,1.2-2.73,1.91-4.31l.55-1.24c1.35-3,2.36-5.43,3.11-7.49h0l.12-.36q.25-.71.47-1.37l.1-.32a28.08,28.08,0,0,0,1.36-8.87c0-.25,0-.45,0-.67h0S270.26,12.83,270.26,12.79Z"/><path class="cls-2" d="M202.11,220.26a2.48,2.48,0,0,1-1.3-.46c-1-.61-2.81-2.9-4.68-6.64a13.76,13.76,0,0,0-2.59-3.69,10.77,10.77,0,0,0-1.42-1.2l-.12-.07a12.07,12.07,0,0,0-1.51-.87l-.35-.16a16.43,16.43,0,0,0-1.63-.63l-.38-.13c-.73-.22-1.46-.41-2.21-.57l-.32-.08-.25-.07-.74-.18-.56-.17-.78-.27-.44-.17c-.33-.14-.64-.28-.94-.43l-.11-.05a10.75,10.75,0,0,1-1-.6l-.09-.06a7.62,7.62,0,0,1-1.79-1.64A54.54,54.54,0,0,1,174,192a64,64,0,0,1-1.46-7.28c-1.41-9.29-2.75-13.09-7.16-20.3-.9-1.47-3.33-5.94-5.41-10a97.9,97.9,0,0,0-10.73-17.17,50.23,50.23,0,0,1-4.66-7.59l-1.08-2.17-.76,2.3a11.21,11.21,0,0,1-.5,1.22l-.76,1.65,1.08,1.1a4.64,4.64,0,0,1,1.21,2.37,13.68,13.68,0,0,1,.63,4.83c0,1.91,0,2.06-.23,2.55-.06.14-.11.25-.15.33a1.08,1.08,0,0,0-.31.34,1.84,1.84,0,0,0,.28,1.83c.11.19.16.27.16,1.1,0,1-.14,1.43-1.15,2.64l-1.18,1.41.82,1.09a5,5,0,0,1,.79,3.64,5.23,5.23,0,0,1-1,2.46l-1.11.93,1,1.36c.62.81.72,1.41-.46,2.42l-.14.11c-.91.74-.74,1.34-.35,2.65l.13.45a2.74,2.74,0,0,1,.09,1.12,4,4,0,0,1-.82,2.09,3.39,3.39,0,0,0-.38,3.41,2.94,2.94,0,0,1,.22,2l-.2.51c-.77,2-1.13,3-2.8,3.42l-1.47-.15-1.12-.35-1.12.35-1.47.15c-1.67-.44-2-1.4-2.8-3.42l-.2-.51a3,3,0,0,1,.22-2,3.38,3.38,0,0,0-.38-3.41,4,4,0,0,1-.82-2.09,2.75,2.75,0,0,1,.09-1.12l.13-.45c.38-1.31.56-1.91-.35-2.65l-.14-.11c-1.18-1-1.08-1.61-.46-2.42l1-1.36-1.12-.93a5.24,5.24,0,0,1-1-2.46,5,5,0,0,1,.79-3.63l.83-1.1-1.19-1.41c-1-1.21-1.14-1.63-1.14-2.64,0-.83,0-.9.15-1.09a1.85,1.85,0,0,0,.28-1.84,1.09,1.09,0,0,0-.31-.34c0-.08-.09-.19-.15-.33-.2-.49-.23-.64-.24-2.55a13.68,13.68,0,0,1,.63-4.83,4.64,4.64,0,0,1,1.21-2.37l1.08-1.1-.76-1.65a11.63,11.63,0,0,1-.5-1.22l-.76-2.3-1.08,2.17A50.33,50.33,0,0,1,121,137.3a97.78,97.78,0,0,0-10.73,17.17c-2.08,4-4.51,8.49-5.41,10-4.42,7.21-5.75,11-7.16,20.3A64,64,0,0,1,96.21,192,54.47,54.47,0,0,1,91.4,202.1a7.66,7.66,0,0,1-1.79,1.65l-.08.06c-.33.22-.64.4-1,.57l-.17.08c-.29.15-.6.29-.93.42l-.37.15-.82.29-.59.19-.67.17-.33.08-.31.08c-.75.16-1.48.34-2.21.57l-.38.13a15.91,15.91,0,0,0-1.55.6l-.44.2a12,12,0,0,0-1.53.88l-.09.06a10.78,10.78,0,0,0-1.42,1.2,13.77,13.77,0,0,0-2.59,3.69c-1.87,3.75-3.7,6-4.68,6.64a2.48,2.48,0,0,1-1.3.46c-1.08,0-2.63-1.06-5.75-3.91A24.3,24.3,0,0,0,59.27,214a25.52,25.52,0,0,0-2.67-1.51l-.25-.13c-.51-.25-1-.53-1.51-.82l-.46-.3c-.46-.29-.92-.61-1.36-.95l-.19-.14A23.33,23.33,0,0,1,51,208.57l-.94-.87-1.24-1.14v0l-.67-.52-.16-.11c-.25-.18-.51-.35-.77-.5l-.17-.1a7.5,7.5,0,0,0-.79-.38l-.12,0a7.78,7.78,0,0,0-.88-.29l-.1,0a13.67,13.67,0,0,0-3.28-.29,13.56,13.56,0,0,0-3.08.27l-.24.06a7.43,7.43,0,0,0-.83.27c-2.13.84-4.27,2.72-8.63,6.81-5.31,5-7.29,6.18-8,6.38,0,0,0-.08,0-.13.21-1.37,6.47-11.26,12.77-19.29,2.37-3,4.11-5.57,4.89-8.22,0-.15.09-.31.13-.46s.12-.54.17-.81l0-.1c0-.12,0-.25.06-.37s.05-.53.07-.8v-.14c0-.12,0-.25,0-.37s0-.36,0-.55v-.15a13.54,13.54,0,0,0-.16-1.49l0-.31c-.06-.35-.15-.7-.24-1.07l-.07-.26c-.1-.38-.22-.78-.35-1.18l0-.13c-.14-.42-.29-.87-.47-1.33a75.17,75.17,0,0,0-3.38-7.35l-.59-1.19-.5-1a61.36,61.36,0,0,1-2.6-6.19,55.3,55.3,0,0,1-1.89-9v-.13c-.08-.66-.15-1.29-.19-1.89l0-.44c0-.64-.07-1.24-.07-1.78,0-.21,0-.42,0-.63h0l0-.64a26.2,26.2,0,0,1,.91-5.43l.06-.21.06-.19c.16-.54.33-1.07.51-1.58.09-.25.18-.48.28-.72.18-.44.36-.86.56-1.28s.26-.54.37-.76.39-.69.59-1l.13-.22c.11-.18.21-.35.32-.51.23-.33.47-.63.71-.93l.2-.27a2.7,2.7,0,0,1,.16-.21,13.34,13.34,0,0,1,1.16-1.16c.16-.14.33-.27.5-.4l.22-.15.33-.21.36-.2.29-.16.52-.25.27-.12.73-.3.14-.06c.63-.24,1.23-.47,2-.74,4.5-1.61,6.3-2.62,12.81-7.16a100,100,0,0,1,12-7.09C71.5,116,71.5,115.72,71.5,115c0-.5-.27-1.33-2.08-1.33a7.36,7.36,0,0,0-3.58.86c-.35.24-1,.37-3.6.37-1.23,0-2.89,0-5.72-.1-8.67-.21-8.93-.24-14-1.67-5.46-1.53-9.09-3.2-11.77-5.41l-.19-.16c-.3-.26-.59-.52-.87-.79l-.35-.35q-.38-.39-.74-.81l-.19-.23a23.49,23.49,0,0,1-3-4.63,20.17,20.17,0,0,1-2.33-7.2l-.16-1q-.41-2.73-.83-5.36l-.32-1.9c-.37-2.23-.75-4.39-1.12-6.43l-.22-1.19c-.34-1.8-.68-3.57-1-5.27-.42-2-.86-4-1.36-6.14h0l-.28-1.17c-.48-2-.93-3.78-1.37-5.44l-.24-.9c-.31-1.13-.63-2.23-.94-3.29l-.66-2.17c-.17-.54-.75-2.4-.75-2.4-.34-1.05-.67-2.05-1-3l-.44-1.3h0c-.67-1.89-1.36-3.7-2.13-5.6l-.42-1c-.38-.93-.8-1.89-1.24-2.91L8,35.79H8c-.41-.93-.85-1.91-1.33-3-.2-.44-.38-.85-.55-1.25C4.65,28.37,3.71,26.08,3,24.15l-.19-.51q-.21-.61-.4-1.17l-.07-.22A27.14,27.14,0,0,1,1,13.57v-.78c0-.35,0-.68,0-1a9.09,9.09,0,0,1,.82-4.49l.07-.14L2,7l.3-.48C4.3,2.9,7.94,1,12.83,1a22,22,0,0,1,2.71.18,73,73,0,0,1,24,7.94C45.44,12.4,57,19.65,61.19,22.72c5.25,3.82,44,41.91,48.8,48,7,8.8,14.83,22.86,18.27,32.69l.57,1.64,1.13-1.32a3.39,3.39,0,0,1,.58-.54l1-.73-.92-.83a9,9,0,0,1-2.73-6.69A9.83,9.83,0,0,1,129,90.28l.35-.65-.52-.52a1.25,1.25,0,0,1-.37-.88,1.31,1.31,0,0,1,1.34-1.28,1.33,1.33,0,0,1,.85.33l.52.43.52-.28.59-.24a4.88,4.88,0,0,1,1.87-.42,4.77,4.77,0,0,1,.81.08l.17,0,.17,0a4.77,4.77,0,0,1,.81-.08,4.88,4.88,0,0,1,1.87.42l.69.28.4.18.54-.37a1.32,1.32,0,0,1,2.19,1,1.26,1.26,0,0,1-.37.88l-.52.52.35.65a9.82,9.82,0,0,1,1.11,4.61,9,9,0,0,1-2.73,6.69l-.92.83,1,.73a3.36,3.36,0,0,1,.59.54l1.13,1.32.57-1.64c3.45-9.83,11.3-23.89,18.27-32.69,4.78-6,43.55-44.13,48.8-48,4.23-3.07,15.75-10.32,21.63-13.6a73,73,0,0,1,24-7.94A21.94,21.94,0,0,1,257.43,1C262.33,1,266,2.9,268,6.49l.52.93a9,9,0,0,1,.78,4.34c0,.35,0,1.47,0,1.47v.33a27,27,0,0,1-1.32,8.58l-.1.32c-.12.39-.26.79-.41,1.2l-.17.48c-.71,1.94-1.66,4.23-3.08,7.43l-.55,1.24c-.48,1.06-.92,2-1.33,3h0l-.58,1.35c-.44,1-.86,2-1.24,2.91L260,41.12h0c-.68,1.68-1.3,3.28-1.89,4.93v0L257.47,48c-.34,1-.68,2-1,3.13l-.35,1.1h0l-1,3.14h0c-.34,1.13-.68,2.3-1,3.51l-.24.88c-.44,1.64-.89,3.43-1.38,5.46-.62,2.61-1.15,5-1.63,7.31-.35,1.7-.7,3.47-1,5.27l-.22,1.19h0c-.38,2-.75,4.2-1.12,6.43l-.32,1.91q-.42,2.63-.83,5.36l-.15,1a20.21,20.21,0,0,1-2.33,7.2,23.54,23.54,0,0,1-3,4.63l-.19.22q-.36.42-.74.81l-.35.35q-.42.41-.87.79l-.19.16c-2.69,2.21-6.32,3.88-11.77,5.41-5.1,1.43-5.36,1.46-14,1.67-2.83.07-4.49.1-5.72.1-2.58,0-3.26-.13-3.6-.37a7.36,7.36,0,0,0-3.58-.86c-1.81,0-2.08.83-2.08,1.33,0,.67,0,.94,6.82,4.31a99.93,99.93,0,0,1,12,7.09c6.51,4.54,8.31,5.54,12.81,7.16l.85.31,1,.39.16.06.79.32.27.12.53.25.34.18.32.18.31.2.24.16c.17.13.34.26.5.4a13.38,13.38,0,0,1,1.16,1.16c.06.06.11.14.16.21l.2.26c.25.3.49.6.72.93.11.16.21.33.31.51l.13.23c.2.33.4.67.59,1s.25.51.37.77c.2.42.38.84.56,1.28.09.24.19.47.27.71.19.52.36,1,.52,1.59l.06.2.05.2a26.21,26.21,0,0,1,.91,5.43l0,.64h0c0,.21,0,.42,0,.64,0,.54,0,1.14-.07,1.77l0,.45c0,.61-.11,1.23-.19,1.88l0,.13a54.56,54.56,0,0,1-1.87,8.9l0,.1a60.59,60.59,0,0,1-2.55,6.07l-.06.13-.49,1-.59,1.19A75.26,75.26,0,0,0,232.5,181c-.18.46-.33.91-.47,1.34l0,.12c-.13.41-.25.81-.35,1.2l0,.17c-.11.45-.19.8-.26,1.15,0,.07,0,.15,0,.22a13.8,13.8,0,0,0-.17,1.59v.17c0,.17,0,.35,0,.52s0,.24,0,.37v.14c0,.27,0,.54.07.8s0,.24.06.35l0,.12c0,.28.1.55.17.82s.08.3.12.45c.79,2.66,2.52,5.21,4.89,8.23,6.3,8,12.56,17.91,12.77,19.33,0,0,0,.06,0,.09-.73-.2-2.7-1.4-8-6.38-4.36-4.09-6.5-6-8.63-6.81a7.78,7.78,0,0,0-.84-.27l-.24-.06a13.54,13.54,0,0,0-3.08-.27,13.68,13.68,0,0,0-3.3.3,7.18,7.18,0,0,0-.92.29L224,205a7.57,7.57,0,0,0-.78.38l-.16.09c-.27.16-.53.33-.8.52l-.15.11c-.24.18-.49.37-.76.59v0l-1.14,1-.93.87a22.73,22.73,0,0,1-1.88,1.61l-.19.14c-.45.34-.9.65-1.36.95l-.47.3c-.5.3-1,.58-1.51.83l-.18.1A27.21,27.21,0,0,0,211,214a24.17,24.17,0,0,0-3.12,2.31C204.74,219.2,203.18,220.26,202.11,220.26Zm-83.7-164c-3.13-1.73-5.07-5.71-6.65-9l-.43-.88a10.77,10.77,0,0,1-.79-3.85,9.17,9.17,0,0,1,1.66,1.62C115.43,47.46,117,51.84,118.41,56.24Zm33.45,0c1.37-4.4,3-8.78,6.17-12a9.39,9.39,0,0,1,1.71-1.66,11,11,0,0,1-.83,3.94l-.39.79C156.92,50.53,155,54.51,151.85,56.24Z"/><path class="cls-3" d="M180.6,121.14s-5.15-6.28-14.65-.13c0,0,11.22-.71,13.81,4.56Z"/><path class="cls-4" d="M179.18,115.62a14.43,14.43,0,0,0-15.4-1.63s9.86,1.36,16,8Z"/><path class="cls-5" d="M179.85,119.93s-8.62-11.13-14.35-11.59a17,17,0,0,1,16.28,5.61Z"/><path class="cls-6" d="M180,116.7s-4.35-9.33-8.91-13c0,0,7.53.13,11.59,8.33Z"/><path class="cls-3" d="M180.09,114.17s-4.88-6.83,1.1-15.33a25.34,25.34,0,0,1,1,15.11Z"/><path class="cls-4" d="M182.86,109.11c3.75-2.86,10.67-1.41,10.67-1.41-6.08,1.27-13.88,11.09-13.88,11.09A8.48,8.48,0,0,1,182.86,109.11Z"/><path class="cls-6" d="M186.26,112.89a14.36,14.36,0,0,1,8-.22s-9.37,3.34-14,11.1C180.24,123.76,176,116.59,186.26,112.89Z"/><path class="cls-5" d="M180.51,125.9s-4.17-5.62,4.07-8.27c2.09-.67,4.93-.4,8.52,1,0,0-11.12,1.6-12.59,7.29"/><path class="cls-7" d="M179.3,157c-6.85,0-10.58-1.92-13.29-6.85s-1.8-14.78,1.93-21.1c2.71-4.58,6.74-7.1,11.36-7.1s8.65,2.52,11.36,7.1c3.73,6.32,4.64,16.17,1.93,21.09S186.15,157,179.3,157Z"/><path class="cls-8" d="M174.63,124.55c3-1.42,10.74-3.49,12.41,11.63,1.15,10.4-7,19.48-13.4,17.33s-8-8.41-7.18-15.7C167.08,132,170.18,126.67,174.63,124.55Z"/><path class="cls-9" d="M169.4,141.18c-1-3.88-.68-8.62,4.18-13.23,5.3-5,10.46-.67,5,12C175.19,147.83,170,143.33,169.4,141.18Z"/><path class="cls-10" d="M172.11,133.92c.85-2.25,2.38-5.21,4.06-4.39s.82,6.77-.67,8.45S170.91,137.09,172.11,133.92Z"/><path class="cls-11" d="M192.39,149.93a9,9,0,0,0-.89-2.53c.73-.53,1.41-1.08,2-1.64a5.5,5.5,0,0,1-.14,1.87.4.4,0,0,0,.07.37,18,18,0,0,0,.64-3.94l0,.05a9.66,9.66,0,0,0-1.32-2.81,10.27,10.27,0,0,0,1.23-1.68q-.08-.69-.19-1.39a.4.4,0,0,0-.1.14,8.06,8.06,0,0,1-1.43,2.26,14,14,0,0,0-2-2c-.33-.29-.7-.58-1.08-.87a20.5,20.5,0,0,0,2.84-2.71,13.57,13.57,0,0,1,1.24,1.25.39.39,0,0,0,.13.1q-.17-.78-.39-1.54l-.48-.45.24-.36q-.16-.51-.34-1l0,0a7.08,7.08,0,0,1-.5.8c-1-.81-2.19-1.65-3.5-2.52a8.33,8.33,0,0,0,1.35-2.12c.54.37,1.05.74,1.52,1.11-.21-.42-.43-.84-.67-1.23l-.29-.47-.27-.19.05-.16h0l0-.06q-.24-.36-.49-.69l-.05-.07h0c0,.17-.1.34-.16.52-.87-.58-1.79-1.18-2.75-1.79a10.19,10.19,0,0,0,.77-1c-.2-.18-.41-.35-.63-.52a9.4,9.4,0,0,1-.84,1.13l-.32-.2c-1-.62-1.95-1.24-2.91-1.87q.48-.42.91-.85-.42-.16-.86-.3-.36.34-.75.68-.86-.57-1.68-1.15c-.35,0-.7,0-1.06,0s-.71,0-1.06,0q-.82.58-1.68,1.15-.39-.34-.75-.68-.43.13-.85.3.43.42.91.85c-1,.63-1.94,1.26-2.91,1.88l-.32.2a9.42,9.42,0,0,1-.83-1.13c-.21.17-.42.34-.63.52a10.21,10.21,0,0,0,.77,1c-1,.61-1.88,1.21-2.75,1.79-.06-.17-.11-.35-.16-.52q-.3.4-.59.83l.05.16-.28.2-.28.46q-.35.6-.67,1.23c.47-.36,1-.73,1.53-1.11a8.36,8.36,0,0,0,1.35,2.12c-1.31.87-2.51,1.71-3.5,2.52a7.09,7.09,0,0,1-.52-.85c-.12.34-.23.68-.34,1l.24.36-.48.45q-.2.69-.36,1.4a.4.4,0,0,0,.25-.13,13.51,13.51,0,0,1,1.08-1.08,20.47,20.47,0,0,0,2.84,2.71c-.38.29-.75.58-1.08.87a14.06,14.06,0,0,0-2,2,8.07,8.07,0,0,1-1.43-2.26.4.4,0,0,0-.1-.14q-.11.7-.19,1.39a10.27,10.27,0,0,0,1.23,1.68,9.67,9.67,0,0,0-1.32,2.81l0,0a18,18,0,0,0,.64,3.94.4.4,0,0,0,.07-.37,5.55,5.55,0,0,1-.13-1.86c.62.56,1.3,1.1,2,1.62a9,9,0,0,0-.89,2.53l-.48-.31c.09.2.19.39.29.58q.41.75.86,1.4,0-.14,0-.29l.82.52,2.2,1.39a8.22,8.22,0,0,0-.22,1.37q.38.28.79.53a7.29,7.29,0,0,1,.15-1.42,36.41,36.41,0,0,1,3.41,2.49l-.1.32a17.6,17.6,0,0,0,2,.36c-.29-.31-.6-.62-.93-.92a9.88,9.88,0,0,1,1.48-2.39c.71.51,1.39,1,2,1.54l.26.23A12.73,12.73,0,0,0,177.3,157l1,0a12.42,12.42,0,0,1,1-1.16,12.32,12.32,0,0,1,1,1.16l1,0a12.72,12.72,0,0,0-1.41-1.67l.26-.23c.61-.52,1.29-1,2-1.54a9.79,9.79,0,0,1,1.48,2.39c-.33.3-.64.61-.93.92a17.61,17.61,0,0,0,2-.36c0-.11-.06-.22-.1-.33a36.38,36.38,0,0,1,3.4-2.49,7.3,7.3,0,0,1,.16,1.42q.4-.25.78-.52a8.34,8.34,0,0,0-.22-1.37l2.2-1.39.82-.52c0,.1,0,.2,0,.3.3-.44.58-.91.86-1.41.1-.18.2-.38.29-.58Zm1-5.13a23.71,23.71,0,0,1-2.3,1.9,12.57,12.57,0,0,0-1.9-2.31,24.31,24.31,0,0,0,3-2.48A8.61,8.61,0,0,1,193.4,144.79Zm-22.71-.49a42.37,42.37,0,0,1,3.92-2.85l2.64,1.7,1.3.83c-1.49,1-2.87,1.9-4,2.8l0,0C173.2,146,171.9,145.14,170.68,144.3Zm3.18,3-.17.14a13.94,13.94,0,0,0-2,2c-1.22-.77-2.44-1.54-3.57-2.34a11.78,11.78,0,0,1,1.91-2.31C171.28,145.7,172.58,146.52,173.87,147.32Zm5.43-8.89,1.53,1,2.42,1.55-2.34,1.5-1.62,1-1.61-1-2.34-1.5,2.42-1.55Zm0-1c-1.38-.9-2.77-1.82-4-2.74l.69-.44c1.12-.72,2.26-1.44,3.36-2.17,1.1.73,2.23,1.45,3.36,2.17l.69.44C182.06,135.65,180.68,136.57,179.29,137.47Zm2,1.26-1.22-.78c1.4-.91,2.78-1.83,4-2.75,1.37.88,2.67,1.73,3.81,2.55-1.21.92-2.54,1.84-3.9,2.73Zm2.78-4.52-1-.61c-1-.64-2-1.3-3.06-2,1.24-.83,2.42-1.67,3.48-2.51l1.19.76,2.51,1.61A27.26,27.26,0,0,1,184,134.21Zm-4.74-3.07c-1.22-.82-2.41-1.65-3.49-2.49,1.2-.77,2.37-1.55,3.49-2.33,1.11.78,2.29,1.56,3.49,2.33C181.71,129.49,180.52,130.33,179.29,131.15Zm-.73.49c-1,.67-2.06,1.33-3.06,2l-1,.61a27.16,27.16,0,0,1-3.17-2.72l2.51-1.61,1.19-.76C176.15,130,177.33,130.8,178.56,131.63Zm0,6.32-1.22.78c-.93.6-1.85,1.18-2.72,1.75-1.36-.9-2.7-1.81-3.9-2.73,1.14-.82,2.44-1.67,3.81-2.55C175.77,136.12,177.14,137,178.55,137.95Zm.74,6.51c1.49,1,2.87,1.89,4,2.78-1.39.87-2.77,1.76-4,2.68-1.26-.92-2.65-1.81-4-2.68C176.42,146.35,177.81,145.43,179.29,144.46ZM180,144l1.31-.83,2.64-1.7a42.41,42.41,0,0,1,3.92,2.85c-1.22.84-2.52,1.65-3.81,2.46l0,0C182.91,145.89,181.53,145,180,144Zm8.48.88a11.75,11.75,0,0,1,1.91,2.31c-1.13.8-2.35,1.58-3.57,2.34a13.79,13.79,0,0,0-2-2l-.17-.14C186,146.52,187.31,145.7,188.52,144.86Zm1.26-5.64a13.12,13.12,0,0,1,1.93,2,23.59,23.59,0,0,1-3.12,2.59l-.11-.1a40.7,40.7,0,0,0-3.76-2.76c1.36-.9,2.67-1.81,3.85-2.72C189,138.58,189.41,138.9,189.78,139.22Zm1.67-4.72a20.53,20.53,0,0,1-2.9,2.73c-1.13-.82-2.42-1.67-3.78-2.55a26.17,26.17,0,0,0,3.13-2.73C189.23,132.83,190.45,133.69,191.45,134.5Zm-5.34-7.72c1.05.67,2.07,1.33,3,2l0,.07a7.52,7.52,0,0,1-1.33,2.06l-2.63-1.69-1-.62A21.92,21.92,0,0,0,186.11,126.79Zm-4-2.58c1,.68,2.08,1.35,3.11,2l.2.13a22.56,22.56,0,0,1-2,1.78c-1.18-.76-2.35-1.53-3.46-2.3C180.73,125.28,181.44,124.74,182.09,124.2Zm-2.8-1.92c.68.49,1.38,1,2.1,1.45-.65.53-1.35,1.06-2.09,1.6-.74-.53-1.44-1.06-2.09-1.6C177.92,123.25,178.62,122.77,179.29,122.29Zm-5.91,3.93c1-.66,2.09-1.33,3.12-2,.65.54,1.36,1.08,2.1,1.62-1.1.77-2.27,1.54-3.46,2.3a22.63,22.63,0,0,1-2-1.78Zm-3.88,2.62,0-.07c.94-.64,2-1.3,3-2a21.79,21.79,0,0,0,1.94,1.8l-1,.61-2.63,1.69A7.51,7.51,0,0,1,169.5,128.83Zm-2.36,5.67c1-.81,2.21-1.67,3.55-2.55a26.12,26.12,0,0,0,3.13,2.73c-1.36.88-2.65,1.73-3.78,2.55A20.44,20.44,0,0,1,167.14,134.5Zm1.67,4.72c.37-.32.78-.64,1.21-1,1.18.91,2.49,1.82,3.85,2.72a40.57,40.57,0,0,0-3.76,2.76l-.11.1a23.51,23.51,0,0,1-3.11-2.59A12.88,12.88,0,0,1,168.81,139.22Zm-3.6,5.59a8.68,8.68,0,0,1,1.21-2.89,24.34,24.34,0,0,0,3,2.47,12.54,12.54,0,0,0-1.9,2.31A23.72,23.72,0,0,1,165.21,144.81Zm4.92,7.6-2-1.27-1.18-.74a8.11,8.11,0,0,1,.82-2.52c1.12.78,2.31,1.54,3.5,2.29A9.91,9.91,0,0,0,170.12,152.4Zm4.21,3a39.73,39.73,0,0,0-3.51-2.53,9.1,9.1,0,0,1,1.11-2.26l.08.05c1.27.79,2.56,1.6,3.77,2.43A10.72,10.72,0,0,0,174.33,155.39Zm2-2.92c-1.24-.85-2.57-1.69-3.87-2.5l0,0a13.14,13.14,0,0,1,1.81-1.86l.37-.31c1.38.87,2.77,1.75,4,2.65-.36.28-.72.56-1,.84A15.06,15.06,0,0,0,176.32,152.47Zm3.29,2-.32.28-.32-.28c-.61-.52-1.28-1-2-1.54a14,14,0,0,1,1.11-1.05c.38-.32.78-.64,1.2-1,.42.32.83.63,1.2,1a14.06,14.06,0,0,1,1.11,1.05C180.9,153.44,180.22,153.95,179.61,154.47Zm1.41-3.2c-.33-.28-.69-.56-1-.84,1.26-.91,2.65-1.79,4-2.65l.37.31a13.16,13.16,0,0,1,1.81,1.86l0,0c-1.3.82-2.63,1.65-3.87,2.5A15,15,0,0,0,181,151.27Zm3.24,4.12a10.66,10.66,0,0,0-1.46-2.31c1.21-.83,2.5-1.64,3.77-2.43l.08,0a9.1,9.1,0,0,1,1.11,2.26A40,40,0,0,0,184.26,155.38Zm6.22-4.25-2,1.27a10,10,0,0,0-1.13-2.24c1.19-.75,2.38-1.51,3.5-2.29a8.1,8.1,0,0,1,.82,2.52Z"/><path class="cls-3" d="M200.11,67s-5.15-6.28-14.65-.13c0,0,11.22-.71,13.81,4.56Z"/><path class="cls-4" d="M198.69,61.46a14.43,14.43,0,0,0-15.4-1.63s9.86,1.36,16,8Z"/><path class="cls-5" d="M199.36,65.77S190.74,54.63,185,54.18a17,17,0,0,1,16.28,5.61Z"/><path class="cls-6" d="M199.53,62.54s-4.35-9.33-8.91-13c0,0,7.53.13,11.59,8.33Z"/><path class="cls-3" d="M199.6,60s-4.88-6.83,1.1-15.33a25.34,25.34,0,0,1,1,15.11Z"/><path class="cls-4" d="M202.37,55c3.75-2.86,10.67-1.41,10.67-1.41-6.08,1.27-13.88,11.09-13.88,11.09A8.48,8.48,0,0,1,202.37,55Z"/><path class="cls-6" d="M205.77,58.73a14.36,14.36,0,0,1,8-.22s-9.37,3.34-14,11.1C199.75,69.61,195.51,62.43,205.77,58.73Z"/><path class="cls-5" d="M200,71.74s-4.17-5.62,4.07-8.27c2.09-.67,4.93-.4,8.52,1,0,0-11.12,1.6-12.59,7.29"/><path class="cls-7" d="M198.81,102.87c-6.85,0-10.58-1.92-13.29-6.85s-1.8-14.78,1.93-21.1c2.71-4.58,6.74-7.1,11.36-7.1s8.65,2.52,11.36,7.1C213.9,81.24,214.8,91.1,212.1,96S205.66,102.87,198.81,102.87Z"/><path class="cls-8" d="M194.14,70.39c3-1.42,10.74-3.49,12.41,11.63,1.15,10.4-7,19.48-13.4,17.33s-8-8.41-7.18-15.7C186.59,77.88,189.69,72.51,194.14,70.39Z"/><path class="cls-9" d="M188.91,87c-1-3.88-.68-8.62,4.18-13.23,5.3-5,10.46-.67,5,12C194.7,93.67,189.46,89.17,188.91,87Z"/><path class="cls-10" d="M191.63,79.76c.85-2.25,2.38-5.21,4.06-4.39s.82,6.77-.67,8.45S190.43,82.93,191.63,79.76Z"/><path class="cls-11" d="M211.91,95.77a9,9,0,0,0-.89-2.53c.73-.53,1.41-1.08,2-1.64a5.5,5.5,0,0,1-.14,1.87.4.4,0,0,0,.07.37,18,18,0,0,0,.64-3.94l0,.05a9.66,9.66,0,0,0-1.32-2.81,10.27,10.27,0,0,0,1.23-1.68q-.08-.69-.19-1.39a.4.4,0,0,0-.1.14,8.06,8.06,0,0,1-1.43,2.26,14,14,0,0,0-2-2c-.33-.29-.7-.58-1.08-.87a20.5,20.5,0,0,0,2.84-2.71,13.57,13.57,0,0,1,1.24,1.25.39.39,0,0,0,.13.1q-.17-.78-.39-1.54l-.48-.45.24-.36q-.16-.51-.34-1l0,0a7.08,7.08,0,0,1-.5.8c-1-.81-2.19-1.65-3.5-2.52a8.33,8.33,0,0,0,1.35-2.12c.54.37,1.05.74,1.52,1.11-.21-.42-.43-.84-.67-1.23l-.29-.47-.27-.19.05-.16h0l0-.06q-.24-.36-.49-.69l-.05-.07h0c0,.17-.1.34-.16.52-.87-.58-1.79-1.18-2.75-1.79a10.19,10.19,0,0,0,.77-1c-.2-.18-.41-.35-.63-.52a9.4,9.4,0,0,1-.84,1.13l-.32-.2c-1-.62-1.95-1.24-2.91-1.87q.48-.42.91-.85-.42-.16-.86-.3-.36.34-.75.68-.86-.57-1.68-1.15c-.35,0-.7,0-1.06,0s-.71,0-1.06,0q-.82.58-1.68,1.15-.39-.34-.75-.68-.43.13-.85.3.43.42.91.85c-1,.63-1.94,1.26-2.91,1.88l-.32.2a9.42,9.42,0,0,1-.83-1.13c-.21.17-.42.34-.63.52a10.21,10.21,0,0,0,.77,1c-1,.61-1.88,1.21-2.75,1.79-.06-.17-.11-.35-.16-.52q-.3.4-.59.83l.05.16-.28.2-.28.46q-.35.6-.67,1.23c.47-.36,1-.73,1.53-1.11a8.36,8.36,0,0,0,1.35,2.12c-1.31.87-2.51,1.71-3.5,2.52a7.09,7.09,0,0,1-.52-.85c-.12.34-.23.68-.34,1l.24.36-.48.45q-.2.69-.36,1.4a.4.4,0,0,0,.25-.13A13.51,13.51,0,0,1,186,80.87a20.47,20.47,0,0,0,2.84,2.71c-.38.29-.75.58-1.08.87a14.06,14.06,0,0,0-2,2,8.07,8.07,0,0,1-1.43-2.26.4.4,0,0,0-.1-.14q-.11.7-.19,1.39a10.27,10.27,0,0,0,1.23,1.68A9.67,9.67,0,0,0,184,90l0,0a18,18,0,0,0,.64,3.94.4.4,0,0,0,.07-.37,5.55,5.55,0,0,1-.13-1.86c.62.56,1.3,1.1,2,1.62a9,9,0,0,0-.89,2.53l-.48-.31c.09.2.19.39.29.58q.41.75.86,1.4,0-.14,0-.29l.82.52L189.4,99a8.22,8.22,0,0,0-.22,1.37q.38.28.79.53a7.29,7.29,0,0,1,.15-1.42,36.41,36.41,0,0,1,3.41,2.49l-.1.32a17.6,17.6,0,0,0,2,.36c-.29-.31-.6-.62-.93-.92A9.88,9.88,0,0,1,196,99.38c.71.51,1.39,1,2,1.54l.26.23a12.73,12.73,0,0,0-1.41,1.67l1,0a12.42,12.42,0,0,1,1-1.16,12.32,12.32,0,0,1,1,1.16l1,0a12.72,12.72,0,0,0-1.41-1.67l.26-.23c.61-.52,1.29-1,2-1.54a9.79,9.79,0,0,1,1.48,2.39c-.33.3-.64.61-.93.92a17.61,17.61,0,0,0,2-.36c0-.11-.06-.22-.1-.33a36.38,36.38,0,0,1,3.4-2.49,7.3,7.3,0,0,1,.16,1.42q.4-.25.78-.52a8.34,8.34,0,0,0-.22-1.37l2.2-1.39.82-.52c0,.1,0,.2,0,.3.3-.44.58-.91.86-1.41.1-.18.2-.38.29-.58Zm1-5.13a23.71,23.71,0,0,1-2.3,1.9,12.57,12.57,0,0,0-1.9-2.31,24.31,24.31,0,0,0,3-2.48A8.61,8.61,0,0,1,212.91,90.63Zm-22.71-.49a42.37,42.37,0,0,1,3.92-2.85l2.64,1.7,1.3.83c-1.49,1-2.87,1.9-4,2.8l0,0C192.72,91.79,191.42,91,190.2,90.14Zm3.18,3-.17.14a13.94,13.94,0,0,0-2,2c-1.22-.77-2.44-1.54-3.57-2.34a11.78,11.78,0,0,1,1.91-2.31C190.8,91.54,192.09,92.36,193.38,93.16Zm5.43-8.89,1.53,1,2.42,1.55-2.34,1.5-1.62,1-1.61-1-2.34-1.5,2.42-1.55Zm0-1c-1.38-.9-2.77-1.82-4-2.74l.69-.44c1.12-.72,2.26-1.44,3.36-2.17,1.1.73,2.23,1.45,3.36,2.17l.69.44C201.58,81.5,200.19,82.41,198.81,83.31Zm2,1.26-1.22-.78c1.4-.91,2.78-1.83,4-2.75,1.37.88,2.67,1.73,3.81,2.55-1.21.92-2.54,1.84-3.9,2.73Zm2.78-4.52-1-.61c-1-.64-2-1.3-3.06-2C200.78,76.64,202,75.8,203,75l1.19.76,2.51,1.61A27.26,27.26,0,0,1,203.55,80.05ZM198.81,77c-1.22-.82-2.41-1.65-3.49-2.49,1.2-.77,2.37-1.55,3.49-2.33,1.11.78,2.29,1.56,3.49,2.33C201.22,75.33,200,76.17,198.81,77Zm-.73.49c-1,.67-2.06,1.33-3.06,2l-1,.61a27.16,27.16,0,0,1-3.17-2.72l2.51-1.61L194.6,75C195.66,75.8,196.84,76.64,198.08,77.47Zm0,6.32-1.22.78c-.93.6-1.85,1.18-2.72,1.75-1.36-.9-2.7-1.81-3.9-2.73,1.14-.82,2.44-1.67,3.81-2.55C195.28,82,196.66,82.88,198.06,83.79Zm.74,6.51c1.49,1,2.87,1.89,4,2.78-1.39.87-2.77,1.76-4,2.68-1.26-.92-2.65-1.81-4-2.68C195.93,92.2,197.32,91.27,198.81,90.3Zm.74-.48,1.31-.83,2.64-1.7a42.41,42.41,0,0,1,3.92,2.85c-1.22.84-2.52,1.65-3.81,2.46l0,0C202.42,91.73,201,90.79,199.55,89.82Zm8.48.88A11.75,11.75,0,0,1,209.95,93c-1.13.8-2.35,1.58-3.57,2.34a13.79,13.79,0,0,0-2-2l-.17-.14C205.52,92.36,206.82,91.54,208,90.7Zm1.26-5.64a13.12,13.12,0,0,1,1.93,2,23.59,23.59,0,0,1-3.12,2.59l-.11-.1a40.7,40.7,0,0,0-3.76-2.76c1.36-.9,2.67-1.81,3.85-2.72C208.51,84.42,208.92,84.74,209.29,85.06ZM211,80.34a20.53,20.53,0,0,1-2.9,2.73c-1.13-.82-2.42-1.67-3.78-2.55a26.17,26.17,0,0,0,3.13-2.73C208.75,78.68,210,79.53,211,80.34Zm-5.34-7.72c1.05.67,2.07,1.33,3,2l0,.07a7.52,7.52,0,0,1-1.33,2.06L204.65,75l-1-.62A21.92,21.92,0,0,0,205.62,72.63Zm-4-2.58c1,.68,2.08,1.35,3.11,2l.2.13A22.56,22.56,0,0,1,203,74c-1.18-.76-2.35-1.53-3.46-2.3C200.25,71.13,201,70.58,201.61,70Zm-2.8-1.92c.68.49,1.38,1,2.1,1.45-.65.53-1.35,1.06-2.09,1.6-.74-.53-1.44-1.06-2.09-1.6C197.43,69.1,198.13,68.61,198.81,68.13Zm-5.91,3.93c1-.66,2.09-1.33,3.12-2,.65.54,1.36,1.08,2.1,1.62-1.1.77-2.27,1.54-3.46,2.3a22.63,22.63,0,0,1-2-1.78ZM189,74.67l0-.07c.94-.64,2-1.3,3-2a21.79,21.79,0,0,0,1.94,1.8L193,75l-2.63,1.69A7.51,7.51,0,0,1,189,74.67Zm-2.36,5.67c1-.81,2.21-1.67,3.55-2.55a26.12,26.12,0,0,0,3.13,2.73c-1.36.88-2.65,1.73-3.78,2.55A20.44,20.44,0,0,1,186.66,80.34Zm1.67,4.72c.37-.32.78-.64,1.21-1,1.18.91,2.49,1.82,3.85,2.72a40.57,40.57,0,0,0-3.76,2.76l-.11.1a23.51,23.51,0,0,1-3.11-2.59A12.88,12.88,0,0,1,188.33,85.06Zm-3.6,5.59a8.68,8.68,0,0,1,1.21-2.89,24.34,24.34,0,0,0,3,2.47,12.54,12.54,0,0,0-1.9,2.31A23.72,23.72,0,0,1,184.72,90.65Zm4.92,7.6-2-1.27-1.18-.74a8.11,8.11,0,0,1,.82-2.52c1.12.78,2.31,1.54,3.5,2.29A9.91,9.91,0,0,0,189.64,98.24Zm4.21,3a39.73,39.73,0,0,0-3.51-2.53,9.1,9.1,0,0,1,1.11-2.26l.08.05c1.27.79,2.56,1.6,3.77,2.43A10.72,10.72,0,0,0,193.84,101.23Zm2-2.92c-1.24-.85-2.57-1.69-3.87-2.5l0,0a13.14,13.14,0,0,1,1.81-1.86l.37-.31c1.38.87,2.77,1.75,4,2.65-.36.28-.72.56-1,.84A15.06,15.06,0,0,0,195.83,98.31Zm3.29,2-.32.28-.32-.28c-.61-.52-1.28-1-2-1.54a14,14,0,0,1,1.11-1.05c.38-.32.78-.64,1.2-1,.42.32.83.63,1.2,1a14.06,14.06,0,0,1,1.11,1.05C200.41,99.28,199.74,99.79,199.13,100.31Zm1.41-3.2c-.33-.28-.69-.56-1-.84,1.26-.91,2.65-1.79,4-2.65l.37.31a13.16,13.16,0,0,1,1.81,1.86l0,0c-1.3.82-2.63,1.65-3.87,2.5A15,15,0,0,0,200.53,97.11Zm3.24,4.12a10.66,10.66,0,0,0-1.46-2.31c1.21-.83,2.5-1.64,3.77-2.43l.08,0a9.1,9.1,0,0,1,1.11,2.26A40,40,0,0,0,203.78,101.22ZM210,97l-2,1.27A10,10,0,0,0,206.85,96c1.19-.75,2.38-1.51,3.5-2.29a8.1,8.1,0,0,1,.82,2.52Z"/><path class="cls-3" d="M234.94,36.45s-5.15-6.28-14.65-.13c0,0,11.22-.71,13.81,4.56Z"/><path class="cls-4" d="M233.52,30.93a14.43,14.43,0,0,0-15.4-1.63s9.86,1.36,16,8Z"/><path class="cls-5" d="M234.19,35.24s-8.62-11.13-14.35-11.59a17,17,0,0,1,16.28,5.61Z"/><path class="cls-6" d="M234.36,32s-4.35-9.33-8.91-13c0,0,7.53.13,11.59,8.33Z"/><path class="cls-3" d="M234.43,29.48s-4.88-6.83,1.1-15.33a25.34,25.34,0,0,1,1,15.11Z"/><path class="cls-4" d="M237.2,24.43c3.75-2.86,10.67-1.41,10.67-1.41C241.8,24.29,234,34.11,234,34.11A8.48,8.48,0,0,1,237.2,24.43Z"/><path class="cls-6" d="M240.6,28.2a14.36,14.36,0,0,1,8-.22s-9.37,3.34-14,11.1C234.58,39.08,230.34,31.9,240.6,28.2Z"/><path class="cls-5" d="M234.85,41.21s-4.17-5.62,4.07-8.27c2.09-.67,4.93-.4,8.52,1,0,0-11.12,1.6-12.59,7.29"/><path class="cls-7" d="M233.64,72.34c-6.85,0-10.58-1.92-13.29-6.85s-1.8-14.78,1.93-21.1c2.71-4.58,6.74-7.1,11.36-7.1s8.65,2.52,11.36,7.1c3.73,6.32,4.64,16.17,1.93,21.09S240.49,72.34,233.64,72.34Z"/><path class="cls-8" d="M229,39.86c3-1.42,10.74-3.49,12.41,11.63,1.15,10.4-7,19.48-13.4,17.33s-8-8.41-7.18-15.7C221.42,47.35,224.52,42,229,39.86Z"/><path class="cls-9" d="M223.74,56.49c-1-3.88-.68-8.62,4.18-13.23,5.3-5,10.46-.67,5,12C229.53,63.14,224.3,58.64,223.74,56.49Z"/><path class="cls-10" d="M226.46,49.23c.85-2.25,2.38-5.21,4.06-4.39s.82,6.77-.67,8.45S225.26,52.4,226.46,49.23Z"/><path class="cls-11" d="M246.74,65.24a9,9,0,0,0-.89-2.53c.73-.53,1.41-1.08,2-1.64a5.5,5.5,0,0,1-.14,1.87.4.4,0,0,0,.07.37,18,18,0,0,0,.64-3.94l0,.05a9.66,9.66,0,0,0-1.32-2.81,10.27,10.27,0,0,0,1.23-1.68q-.08-.69-.19-1.39a.4.4,0,0,0-.1.14,8.06,8.06,0,0,1-1.43,2.26,14,14,0,0,0-2-2c-.33-.29-.7-.58-1.08-.87a20.5,20.5,0,0,0,2.84-2.71,13.57,13.57,0,0,1,1.24,1.25.39.39,0,0,0,.13.1q-.17-.78-.39-1.54l-.48-.45.24-.36q-.16-.51-.34-1l0,0a7.08,7.08,0,0,1-.5.8c-1-.81-2.19-1.65-3.5-2.52a8.33,8.33,0,0,0,1.35-2.12c.54.37,1.05.74,1.52,1.11-.21-.42-.43-.84-.67-1.23l-.29-.47-.27-.19.05-.16h0l0-.06q-.24-.36-.49-.69l-.05-.07h0c0,.17-.1.34-.16.52-.87-.58-1.79-1.18-2.75-1.79a10.19,10.19,0,0,0,.77-1c-.2-.18-.41-.35-.63-.52a9.4,9.4,0,0,1-.84,1.13l-.32-.2c-1-.62-1.95-1.24-2.91-1.87q.48-.42.91-.85-.42-.16-.86-.3-.36.34-.75.68-.86-.57-1.68-1.15c-.35,0-.7,0-1.06,0s-.71,0-1.06,0q-.82.58-1.68,1.15-.39-.34-.75-.68-.43.13-.85.3.43.42.91.85c-1,.63-1.94,1.26-2.91,1.88L227,41a9.42,9.42,0,0,1-.83-1.13c-.21.17-.42.34-.63.52a10.21,10.21,0,0,0,.77,1c-1,.61-1.88,1.21-2.75,1.79-.06-.17-.11-.35-.16-.52q-.3.4-.59.83l.05.16-.28.2-.28.46q-.35.6-.67,1.23c.47-.36,1-.73,1.53-1.11a8.36,8.36,0,0,0,1.35,2.12c-1.31.87-2.51,1.71-3.5,2.52a7.09,7.09,0,0,1-.52-.85c-.12.34-.23.68-.34,1l.24.36-.48.45q-.2.69-.36,1.4a.4.4,0,0,0,.25-.13,13.51,13.51,0,0,1,1.08-1.08A20.47,20.47,0,0,0,223.71,53c-.38.29-.75.58-1.08.87a14.06,14.06,0,0,0-2,2,8.07,8.07,0,0,1-1.43-2.26.4.4,0,0,0-.1-.14q-.11.7-.19,1.39a10.27,10.27,0,0,0,1.23,1.68,9.67,9.67,0,0,0-1.32,2.81l0,0a18,18,0,0,0,.64,3.94.4.4,0,0,0,.07-.37,5.55,5.55,0,0,1-.13-1.86c.62.56,1.3,1.1,2,1.62a9,9,0,0,0-.89,2.53l-.48-.31c.09.2.19.39.29.58q.41.75.86,1.4,0-.14,0-.29l.82.52,2.2,1.39a8.22,8.22,0,0,0-.22,1.37q.38.28.79.53a7.29,7.29,0,0,1,.15-1.42,36.41,36.41,0,0,1,3.41,2.49l-.1.32a17.6,17.6,0,0,0,2,.36c-.29-.31-.6-.62-.93-.92a9.88,9.88,0,0,1,1.48-2.39c.71.51,1.39,1,2,1.54l.26.23a12.73,12.73,0,0,0-1.41,1.67l1,0a12.42,12.42,0,0,1,1-1.16,12.32,12.32,0,0,1,1,1.16l1,0a12.72,12.72,0,0,0-1.41-1.67l.26-.23c.61-.52,1.29-1,2-1.54A9.79,9.79,0,0,1,238,71.25c-.33.3-.64.61-.93.92a17.61,17.61,0,0,0,2-.36c0-.11-.06-.22-.1-.33a36.38,36.38,0,0,1,3.4-2.49,7.3,7.3,0,0,1,.16,1.42q.4-.25.78-.52a8.34,8.34,0,0,0-.22-1.37l2.2-1.39.82-.52c0,.1,0,.2,0,.3.3-.44.58-.91.86-1.41.1-.18.2-.38.29-.58Zm1-5.13a23.71,23.71,0,0,1-2.3,1.9,12.57,12.57,0,0,0-1.9-2.31,24.31,24.31,0,0,0,3-2.48A8.61,8.61,0,0,1,247.74,60.1ZM225,59.62a42.37,42.37,0,0,1,3.92-2.85l2.64,1.7,1.3.83c-1.49,1-2.87,1.9-4,2.8l0,0C227.55,61.27,226.25,60.45,225,59.62Zm3.18,3-.17.14a13.94,13.94,0,0,0-2,2c-1.22-.77-2.44-1.54-3.57-2.34a11.78,11.78,0,0,1,1.91-2.31C225.63,61,226.92,61.83,228.21,62.63Zm5.43-8.89,1.53,1,2.42,1.55-2.34,1.5-1.62,1-1.61-1-2.34-1.5,2.42-1.55Zm0-1c-1.38-.9-2.77-1.82-4-2.74l.69-.44c1.12-.72,2.26-1.44,3.36-2.17,1.1.73,2.23,1.45,3.36,2.17l.69.44C236.41,51,235,51.89,233.64,52.78Zm2,1.26-1.22-.78c1.4-.91,2.78-1.83,4-2.75,1.37.88,2.67,1.73,3.81,2.55-1.21.92-2.54,1.84-3.9,2.73Zm2.78-4.52-1-.61c-1-.64-2-1.3-3.06-2,1.24-.83,2.42-1.67,3.48-2.51l1.19.76,2.51,1.61A27.26,27.26,0,0,1,238.38,49.53Zm-4.74-3.07c-1.22-.82-2.41-1.65-3.49-2.49,1.2-.77,2.37-1.55,3.49-2.33,1.11.78,2.29,1.56,3.49,2.33C236.05,44.8,234.86,45.64,233.64,46.46Zm-.73.49c-1,.67-2.06,1.33-3.06,2l-1,.61a27.16,27.16,0,0,1-3.17-2.72l2.51-1.61,1.19-.76C230.49,45.27,231.67,46.11,232.91,46.94Zm0,6.32-1.22.78c-.93.6-1.85,1.18-2.72,1.75-1.36-.9-2.7-1.81-3.9-2.73,1.14-.82,2.44-1.67,3.81-2.55C230.12,51.43,231.49,52.35,232.89,53.26Zm.74,6.51c1.49,1,2.87,1.89,4,2.78-1.39.87-2.77,1.76-4,2.68-1.26-.92-2.65-1.81-4-2.68C230.76,61.67,232.15,60.74,233.64,59.77Zm.74-.48,1.31-.83,2.64-1.7a42.41,42.41,0,0,1,3.92,2.85c-1.22.84-2.52,1.65-3.81,2.46l0,0C237.25,61.2,235.87,60.26,234.38,59.29Zm8.48.88a11.75,11.75,0,0,1,1.91,2.31c-1.13.8-2.35,1.58-3.57,2.34a13.79,13.79,0,0,0-2-2l-.17-.14C240.35,61.83,241.65,61,242.87,60.17Zm1.26-5.64a13.12,13.12,0,0,1,1.93,2,23.59,23.59,0,0,1-3.12,2.59l-.11-.1a40.7,40.7,0,0,0-3.76-2.76c1.36-.9,2.67-1.81,3.85-2.72C243.35,53.89,243.75,54.21,244.12,54.53Zm1.67-4.72a20.53,20.53,0,0,1-2.9,2.73c-1.13-.82-2.42-1.67-3.78-2.55a26.17,26.17,0,0,0,3.13-2.73C243.58,48.15,244.79,49,245.79,49.81Zm-5.34-7.72c1.05.67,2.07,1.33,3,2l0,.07a7.52,7.52,0,0,1-1.33,2.06l-2.63-1.69-1-.62A21.92,21.92,0,0,0,240.45,42.1Zm-4-2.58c1,.68,2.08,1.35,3.11,2l.2.13a22.56,22.56,0,0,1-2,1.78c-1.18-.76-2.35-1.53-3.46-2.3C235.08,40.6,235.79,40.06,236.44,39.51Zm-2.8-1.92c.68.49,1.38,1,2.1,1.45-.65.53-1.35,1.06-2.09,1.6-.74-.53-1.44-1.06-2.09-1.6C232.26,38.57,233,38.08,233.64,37.6Zm-5.91,3.93c1-.66,2.09-1.33,3.12-2,.65.54,1.36,1.08,2.1,1.62-1.1.77-2.27,1.54-3.46,2.3a22.63,22.63,0,0,1-2-1.78Zm-3.88,2.62,0-.07c.94-.64,2-1.3,3-2a21.79,21.79,0,0,0,1.94,1.8l-1,.61-2.63,1.69A7.51,7.51,0,0,1,223.85,44.14Zm-2.36,5.67c1-.81,2.21-1.67,3.55-2.55A26.12,26.12,0,0,0,228.16,50c-1.36.88-2.65,1.73-3.78,2.55A20.44,20.44,0,0,1,221.49,49.81Zm1.67,4.72c.37-.32.78-.64,1.21-1,1.18.91,2.49,1.82,3.85,2.72A40.57,40.57,0,0,0,224.46,59l-.11.1a23.51,23.51,0,0,1-3.11-2.59A12.88,12.88,0,0,1,223.16,54.53Zm-3.6,5.59a8.68,8.68,0,0,1,1.21-2.89,24.34,24.34,0,0,0,3,2.47,12.54,12.54,0,0,0-1.9,2.31A23.72,23.72,0,0,1,219.55,60.12Zm4.92,7.6-2-1.27-1.18-.74a8.11,8.11,0,0,1,.82-2.52c1.12.78,2.31,1.54,3.5,2.29A9.91,9.91,0,0,0,224.47,67.72Zm4.21,3a39.73,39.73,0,0,0-3.51-2.53,9.1,9.1,0,0,1,1.11-2.26l.08.05c1.27.79,2.56,1.6,3.77,2.43A10.72,10.72,0,0,0,228.67,70.7Zm2-2.92c-1.24-.85-2.57-1.69-3.87-2.5l0,0a13.14,13.14,0,0,1,1.81-1.86l.37-.31c1.38.87,2.77,1.75,4,2.65-.36.28-.72.56-1,.84A15.06,15.06,0,0,0,230.66,67.78Zm3.29,2-.32.28-.32-.28c-.61-.52-1.28-1-2-1.54a14,14,0,0,1,1.11-1.05c.38-.32.78-.64,1.2-1,.42.32.83.63,1.2,1a14.06,14.06,0,0,1,1.11,1.05C235.24,68.75,234.57,69.26,234,69.78Zm1.41-3.2c-.33-.28-.69-.56-1-.84,1.26-.91,2.65-1.79,4-2.65l.37.31a13.16,13.16,0,0,1,1.81,1.86l0,0c-1.3.82-2.63,1.65-3.87,2.5A15,15,0,0,0,235.37,66.58Zm3.24,4.12a10.66,10.66,0,0,0-1.46-2.31c1.21-.83,2.5-1.64,3.77-2.43l.08,0a9.1,9.1,0,0,1,1.11,2.26A40,40,0,0,0,238.61,70.69Zm6.22-4.25-2,1.27a10,10,0,0,0-1.13-2.24c1.19-.75,2.38-1.51,3.5-2.29a8.1,8.1,0,0,1,.82,2.52Z"/><path class="cls-12" d="M88.25,85.47h0c0-.1,0-.2,0-.3,0-.32-.08-.65-.13-1l0-.12h0q-.16-1-.39-2h0l0-.09c-.09-.38-.19-.76-.29-1.13l0-.18h0c-.08-.27-.15-.54-.24-.8h0l0-.14a23.61,23.61,0,0,0-2.11-4.81,13.88,13.88,0,0,0-8.1-6.65c4.23-1.79,10.09-1.42,10.09-1.42-4-2.56-7.16-3-9.55-2.57a32.38,32.38,0,0,1,11.73-4.46,15,15,0,0,0-9.47-1.17c2.54-2.29,5.39-4.29,7.75-4.48A16.56,16.56,0,0,0,76.8,55.48a26.4,26.4,0,0,1,5-6,13.26,13.26,0,0,0-7.16,2.8,15.31,15.31,0,0,0-2.93-7.66A24.94,24.94,0,0,0,70,54.93c-3.75-2.83-10.64-1.38-10.64-1.38,3,.63,6.49,3.39,9.2,6a18.32,18.32,0,0,0-1.93-.82,14.36,14.36,0,0,0-8-.22,33,33,0,0,1,8.17,4.67,15.56,15.56,0,0,0-7,1.28s6.5.93,10.21,3.92a14,14,0,0,0-7.77,6.55,23.44,23.44,0,0,0-2,4.58l-.12.36h0c-.08.27-.16.54-.24.81h0l0,.19c-.11.39-.21.78-.3,1.17l0,.18h0q-.21.93-.36,1.86h0l0,.15c0,.29-.08.59-.12.88,0,.12,0,.24,0,.36h0a26.47,26.47,0,0,0-.13,4.44h0s0,.07,0,.11q.06.92.19,1.79c0,.13,0,.25.07.38.09.52.2,1,.33,1.49,0,.06,0,.12,0,.17h0A11.37,11.37,0,0,0,60,95.48l0,0c.09.2.19.39.29.58s.13.2.19.31q.24.43.5.82l.17.28v0a12,12,0,0,0,2.81,3h0q.38.28.78.52v0a12.09,12.09,0,0,0,3.46,1.39h0a17.6,17.6,0,0,0,2,.36l0,0c.46.06.94.1,1.43.13v0l1,0h0l1,0,1,0h0l1,0v0c.49,0,1-.07,1.43-.13l0,0a17.6,17.6,0,0,0,2-.36h0a12.09,12.09,0,0,0,3.46-1.39v0q.41-.25.79-.53h0a12,12,0,0,0,2.8-3v0l.17-.28q.26-.4.5-.83c.06-.1.12-.19.18-.3s.2-.38.29-.58l0,0a11.38,11.38,0,0,0,.62-1.64h0c0-.06,0-.13,0-.19.13-.47.24-1,.33-1.49,0-.12,0-.24.06-.36q.14-.88.2-1.82s0-.06,0-.09h0A26.46,26.46,0,0,0,88.25,85.47Z"/><path class="cls-12" d="M44.79,28.12c2.54-2.29,5.39-4.29,7.75-4.48A16.57,16.57,0,0,0,42,25a26.4,26.4,0,0,1,5-6,13.26,13.26,0,0,0-7.16,2.8,15.31,15.31,0,0,0-2.93-7.66A24.94,24.94,0,0,0,35.14,24.4C31.39,21.57,24.51,23,24.51,23c3,.63,6.49,3.39,9.2,6a18.35,18.35,0,0,0-1.93-.82,14.36,14.36,0,0,0-8-.22A33,33,0,0,1,32,32.65a15.56,15.56,0,0,0-7,1.28s6.5.93,10.21,3.92a14,14,0,0,0-7.77,6.55,23.43,23.43,0,0,0-2,4.58l-.12.36h0c-.08.27-.16.54-.24.81h0l0,.19c-.11.39-.21.78-.3,1.17l0,.18h0q-.21.93-.36,1.86h0l0,.15c0,.3-.08.59-.12.88,0,.12,0,.24,0,.36h0a26.5,26.5,0,0,0-.13,4.44h0s0,.07,0,.11q.06.92.19,1.79c0,.13,0,.25.07.38.09.52.2,1,.33,1.49,0,.06,0,.12,0,.17h0a11.34,11.34,0,0,0,.62,1.64l0,0c.09.2.19.39.29.58s.13.2.19.31q.24.43.5.82l.17.28v0a12,12,0,0,0,2.81,3h0q.38.28.78.52v0a12.09,12.09,0,0,0,3.46,1.39h0a17.62,17.62,0,0,0,2,.36l0,0c.46.06.94.1,1.43.13v0l1,0h0l1,0,1,0h0l1,0v0c.49,0,1-.07,1.43-.13l0,0a17.61,17.61,0,0,0,2-.36h0a12.09,12.09,0,0,0,3.46-1.39v0q.41-.25.79-.53h0a12,12,0,0,0,2.8-3v0l.17-.28q.26-.4.5-.83c.06-.1.13-.19.18-.3s.2-.38.29-.58l0,0a11.35,11.35,0,0,0,.62-1.64h0c0-.06,0-.13,0-.19.13-.47.24-1,.33-1.48,0-.12,0-.24.06-.36q.14-.88.2-1.82s0-.06,0-.09h0a26.49,26.49,0,0,0-.13-4.44h0c0-.1,0-.2,0-.3,0-.32-.08-.65-.13-1l0-.12h0q-.16-1-.39-2h0l0-.09c-.09-.38-.19-.76-.29-1.13l0-.18h0c-.08-.27-.15-.54-.24-.8h0l-.05-.15a23.58,23.58,0,0,0-2.1-4.8A13.88,13.88,0,0,0,42,37.74c4.23-1.79,10.09-1.42,10.09-1.42-4-2.56-7.16-3-9.55-2.57A32.38,32.38,0,0,1,54.26,29.3,15,15,0,0,0,44.79,28.12Z"/><path class="cls-3" d="M209.62,164s-5.15-6.28-14.65-.13c0,0,11.22-.71,13.81,4.56Z"/><path class="cls-4" d="M208.19,158.52a14.43,14.43,0,0,0-15.4-1.63s9.86,1.36,16,8Z"/><path class="cls-5" d="M208.86,162.83s-8.62-11.13-14.35-11.59a17,17,0,0,1,16.28,5.61Z"/><path class="cls-6" d="M209,159.61s-4.35-9.33-8.91-13c0,0,7.53.13,11.59,8.33Z"/><path class="cls-3" d="M209.1,157.08s-4.88-6.83,1.1-15.33a25.34,25.34,0,0,1,1,15.11Z"/><path class="cls-4" d="M211.87,152c3.75-2.86,10.67-1.41,10.67-1.41-6.08,1.27-13.88,11.09-13.88,11.09A8.48,8.48,0,0,1,211.87,152Z"/><path class="cls-6" d="M215.28,155.79a14.36,14.36,0,0,1,8-.22s-9.37,3.34-14,11.1C209.26,166.67,205,159.5,215.28,155.79Z"/><path class="cls-5" d="M209.52,168.81s-4.17-5.62,4.07-8.27c2.09-.67,4.93-.4,8.52,1,0,0-11.12,1.6-12.59,7.29"/><path class="cls-7" d="M208.31,199.94c-6.85,0-10.58-1.92-13.29-6.85S193.22,178.3,197,172c2.71-4.58,6.74-7.1,11.36-7.1s8.65,2.52,11.36,7.1c3.73,6.32,4.64,16.17,1.93,21.09S215.16,199.94,208.31,199.94Z"/><path class="cls-8" d="M203.65,167.46c3-1.42,10.74-3.49,12.41,11.63,1.15,10.4-7,19.48-13.4,17.33s-8-8.41-7.18-15.7C196.1,174.94,199.19,169.58,203.65,167.46Z"/><path class="cls-9" d="M198.41,184.09c-1-3.88-.68-8.62,4.18-13.23,5.3-5,10.46-.67,5,12C204.2,190.74,199,186.24,198.41,184.09Z"/><path class="cls-10" d="M201.13,176.82c.85-2.25,2.38-5.21,4.06-4.39s.82,6.77-.67,8.45S199.93,180,201.13,176.82Z"/><path class="cls-11" d="M221.41,192.83a9,9,0,0,0-.89-2.53c.73-.53,1.41-1.08,2-1.64a5.5,5.5,0,0,1-.14,1.87.4.4,0,0,0,.07.37,18,18,0,0,0,.64-3.94l0,.05a9.66,9.66,0,0,0-1.32-2.81,10.27,10.27,0,0,0,1.23-1.68q-.08-.69-.19-1.39a.4.4,0,0,0-.1.14,8.06,8.06,0,0,1-1.43,2.26,14,14,0,0,0-2-2c-.33-.29-.7-.58-1.08-.87a20.5,20.5,0,0,0,2.84-2.71,13.57,13.57,0,0,1,1.24,1.25.39.39,0,0,0,.13.1q-.17-.78-.39-1.54l-.48-.45.24-.36q-.16-.51-.34-1l0,0a7.08,7.08,0,0,1-.5.8c-1-.81-2.19-1.65-3.5-2.52a8.33,8.33,0,0,0,1.35-2.12c.54.37,1.05.74,1.52,1.11-.21-.42-.43-.84-.67-1.23l-.29-.47-.27-.19.05-.16h0l0-.06q-.24-.36-.49-.69l-.05-.07h0c0,.17-.1.34-.16.52-.87-.58-1.79-1.18-2.75-1.79a10.19,10.19,0,0,0,.77-1c-.2-.18-.41-.35-.63-.52a9.4,9.4,0,0,1-.84,1.13l-.32-.2c-1-.62-1.95-1.24-2.91-1.87q.48-.42.91-.85-.42-.16-.86-.3-.36.34-.75.68-.86-.57-1.68-1.15c-.35,0-.7,0-1.06,0s-.71,0-1.06,0q-.82.58-1.68,1.15-.39-.34-.75-.68-.43.13-.85.3.43.42.91.85c-1,.63-1.94,1.26-2.91,1.88l-.32.2a9.42,9.42,0,0,1-.83-1.13c-.21.17-.42.34-.63.52a10.21,10.21,0,0,0,.77,1c-1,.61-1.88,1.21-2.75,1.79-.06-.17-.11-.35-.16-.52q-.3.4-.59.83l.05.16-.28.2L197,172q-.35.6-.67,1.23c.47-.36,1-.73,1.53-1.11a8.36,8.36,0,0,0,1.35,2.12c-1.31.87-2.51,1.71-3.5,2.52a7.09,7.09,0,0,1-.52-.85c-.12.34-.23.68-.34,1l.24.36-.48.45q-.2.69-.36,1.4a.4.4,0,0,0,.25-.13,13.51,13.51,0,0,1,1.08-1.08,20.47,20.47,0,0,0,2.84,2.71c-.38.29-.75.58-1.08.87a14.06,14.06,0,0,0-2,2,8.07,8.07,0,0,1-1.43-2.26.4.4,0,0,0-.1-.14q-.11.7-.19,1.39a10.27,10.27,0,0,0,1.23,1.68,9.67,9.67,0,0,0-1.32,2.81l0,0a18,18,0,0,0,.64,3.94.4.4,0,0,0,.07-.37,5.55,5.55,0,0,1-.13-1.86c.62.56,1.3,1.1,2,1.62a9,9,0,0,0-.89,2.53l-.48-.31c.09.2.19.39.29.58q.41.75.86,1.4,0-.14,0-.29l.82.52,2.2,1.39a8.22,8.22,0,0,0-.22,1.37q.38.28.79.53a7.29,7.29,0,0,1,.15-1.42,36.41,36.41,0,0,1,3.41,2.49l-.1.32a17.6,17.6,0,0,0,2,.36c-.29-.31-.6-.62-.93-.92a9.88,9.88,0,0,1,1.48-2.39c.71.51,1.39,1,2,1.54l.26.23a12.73,12.73,0,0,0-1.41,1.67l1,0a12.42,12.42,0,0,1,1-1.16,12.32,12.32,0,0,1,1,1.16l1,0a12.72,12.72,0,0,0-1.41-1.67l.26-.23c.61-.52,1.29-1,2-1.54a9.79,9.79,0,0,1,1.48,2.39c-.33.3-.64.61-.93.92a17.61,17.61,0,0,0,2-.36c0-.11-.06-.22-.1-.33a36.38,36.38,0,0,1,3.4-2.49,7.3,7.3,0,0,1,.16,1.42q.4-.25.78-.52a8.34,8.34,0,0,0-.22-1.37l2.2-1.39.82-.52c0,.1,0,.2,0,.3.3-.44.58-.91.86-1.41.1-.18.2-.38.29-.58Zm1-5.13a23.71,23.71,0,0,1-2.3,1.9,12.57,12.57,0,0,0-1.9-2.31,24.31,24.31,0,0,0,3-2.48A8.61,8.61,0,0,1,222.41,187.7Zm-22.71-.49a42.37,42.37,0,0,1,3.92-2.85l2.64,1.7,1.3.83c-1.49,1-2.87,1.9-4,2.8l0,0C202.22,188.86,200.92,188,199.7,187.21Zm3.18,3-.17.14a13.94,13.94,0,0,0-2,2c-1.22-.77-2.44-1.54-3.57-2.34a11.78,11.78,0,0,1,1.91-2.31C200.3,188.61,201.6,189.42,202.88,190.23Zm5.43-8.89,1.53,1,2.42,1.55-2.34,1.5-1.62,1-1.61-1-2.34-1.5,2.42-1.55Zm0-1c-1.38-.9-2.77-1.82-4-2.74l.69-.44c1.12-.72,2.26-1.44,3.36-2.17,1.1.73,2.23,1.45,3.36,2.17l.69.44C211.08,178.56,209.7,179.48,208.31,180.38Zm2,1.26-1.22-.78c1.4-.91,2.78-1.83,4-2.75,1.37.88,2.67,1.73,3.81,2.55-1.21.92-2.54,1.84-3.9,2.73Zm2.78-4.52-1-.61c-1-.64-2-1.3-3.06-2,1.24-.83,2.42-1.67,3.48-2.51l1.19.76,2.51,1.61A27.26,27.26,0,0,1,213.06,177.12Zm-4.74-3.07c-1.22-.82-2.41-1.65-3.49-2.49,1.2-.77,2.37-1.55,3.49-2.33,1.11.78,2.29,1.56,3.49,2.33C210.72,172.4,209.54,173.23,208.31,174.05Zm-.73.49c-1,.67-2.06,1.33-3.06,2l-1,.61a27.16,27.16,0,0,1-3.17-2.72l2.51-1.61,1.19-.76C205.16,172.87,206.34,173.7,207.58,174.54Zm0,6.32-1.22.78c-.93.6-1.85,1.18-2.72,1.75-1.36-.9-2.7-1.81-3.9-2.73,1.14-.82,2.44-1.67,3.81-2.55C204.79,179,206.16,179.94,207.57,180.85Zm.74,6.51c1.49,1,2.87,1.89,4,2.78-1.39.87-2.77,1.76-4,2.68-1.26-.92-2.65-1.81-4-2.68C205.44,189.26,206.82,188.33,208.31,187.37Zm.74-.48,1.31-.83,2.64-1.7a42.41,42.41,0,0,1,3.92,2.85c-1.22.84-2.52,1.65-3.81,2.46l0,0C211.92,188.79,210.54,187.86,209.05,186.89Zm8.48.88a11.75,11.75,0,0,1,1.91,2.31c-1.13.8-2.35,1.58-3.57,2.34a13.79,13.79,0,0,0-2-2l-.17-.14C215,189.42,216.32,188.61,217.54,187.76Zm1.26-5.64a13.12,13.12,0,0,1,1.93,2,23.59,23.59,0,0,1-3.12,2.59l-.11-.1a40.7,40.7,0,0,0-3.76-2.76c1.36-.9,2.67-1.81,3.85-2.72C218,181.49,218.42,181.81,218.79,182.12Zm1.67-4.72a20.53,20.53,0,0,1-2.9,2.73c-1.13-.82-2.42-1.67-3.78-2.55a26.17,26.17,0,0,0,3.13-2.73C218.25,175.74,219.47,176.59,220.46,177.41Zm-5.34-7.72c1.05.67,2.07,1.33,3,2l0,.07a7.52,7.52,0,0,1-1.33,2.06l-2.63-1.69-1-.62A21.92,21.92,0,0,0,215.12,169.69Zm-4-2.58c1,.68,2.08,1.35,3.11,2l.2.13a22.56,22.56,0,0,1-2,1.78c-1.18-.76-2.35-1.53-3.46-2.3C209.75,168.19,210.46,167.65,211.11,167.11Zm-2.8-1.92c.68.49,1.38,1,2.1,1.45-.65.53-1.35,1.06-2.09,1.6-.74-.53-1.44-1.06-2.09-1.6C206.93,166.16,207.63,165.68,208.31,165.19Zm-5.91,3.93c1-.66,2.09-1.33,3.12-2,.65.54,1.36,1.08,2.1,1.62-1.1.77-2.27,1.54-3.46,2.3a22.63,22.63,0,0,1-2-1.78Zm-3.88,2.62,0-.07c.94-.64,2-1.3,3-2a21.79,21.79,0,0,0,1.94,1.8l-1,.61-2.63,1.69A7.51,7.51,0,0,1,198.52,171.73Zm-2.36,5.67c1-.81,2.21-1.67,3.55-2.55a26.12,26.12,0,0,0,3.13,2.73c-1.36.88-2.65,1.73-3.78,2.55A20.44,20.44,0,0,1,196.16,177.41Zm1.67,4.72c.37-.32.78-.64,1.21-1,1.18.91,2.49,1.82,3.85,2.72a40.57,40.57,0,0,0-3.76,2.76l-.11.1a23.51,23.51,0,0,1-3.11-2.59A12.88,12.88,0,0,1,197.83,182.12Zm-3.6,5.59a8.68,8.68,0,0,1,1.21-2.89,24.34,24.34,0,0,0,3,2.47,12.54,12.54,0,0,0-1.9,2.31A23.72,23.72,0,0,1,194.22,187.71Zm4.92,7.6-2-1.27L196,193.3a8.11,8.11,0,0,1,.82-2.52c1.12.78,2.31,1.54,3.5,2.29A9.91,9.91,0,0,0,199.14,195.31Zm4.21,3a39.73,39.73,0,0,0-3.51-2.53A9.1,9.1,0,0,1,201,193.5l.08.05c1.27.79,2.56,1.6,3.77,2.43A10.72,10.72,0,0,0,203.35,198.29Zm2-2.92c-1.24-.85-2.57-1.69-3.87-2.5l0,0a13.14,13.14,0,0,1,1.81-1.86l.37-.31c1.38.87,2.77,1.75,4,2.65-.36.28-.72.56-1,.84A15.06,15.06,0,0,0,205.34,195.37Zm3.29,2-.32.28-.32-.28c-.61-.52-1.28-1-2-1.54a14,14,0,0,1,1.11-1.05c.38-.32.78-.64,1.2-1,.42.32.83.63,1.2,1a14.06,14.06,0,0,1,1.11,1.05C209.91,196.34,209.24,196.85,208.63,197.38Zm1.41-3.2c-.33-.28-.69-.56-1-.84,1.26-.91,2.65-1.79,4-2.65l.37.31a13.16,13.16,0,0,1,1.81,1.86l0,0c-1.3.82-2.63,1.65-3.87,2.5A15,15,0,0,0,210,194.17Zm3.24,4.12a10.66,10.66,0,0,0-1.46-2.31c1.21-.83,2.5-1.64,3.77-2.43l.08,0a9.1,9.1,0,0,1,1.11,2.26A40,40,0,0,0,213.28,198.29Zm6.22-4.25-2,1.27a10,10,0,0,0-1.13-2.24c1.19-.75,2.38-1.51,3.5-2.29a8.1,8.1,0,0,1,.82,2.52Z"/><path class="cls-12" d="M107.92,139.63h0c0-.1,0-.2,0-.3,0-.32-.08-.65-.13-1l0-.12h0q-.16-1-.39-2h0l0-.09c-.09-.38-.19-.75-.29-1.13l0-.18h0c-.08-.27-.15-.54-.24-.8h0l-.05-.15a23.6,23.6,0,0,0-2.1-4.8,13.88,13.88,0,0,0-8.1-6.65c4.23-1.79,10.09-1.42,10.09-1.42-4-2.56-7.16-3-9.55-2.57A32.38,32.38,0,0,1,108.76,114a15,15,0,0,0-9.47-1.17c2.54-2.29,5.39-4.29,7.75-4.48a16.57,16.57,0,0,0-10.57,1.31,26.39,26.39,0,0,1,5-6,13.27,13.27,0,0,0-7.16,2.8,15.31,15.31,0,0,0-2.93-7.66,24.94,24.94,0,0,0-1.71,10.26C85.89,106.26,79,107.71,79,107.71c3,.63,6.49,3.39,9.2,6a18.32,18.32,0,0,0-1.93-.82,14.36,14.36,0,0,0-8-.22,33,33,0,0,1,8.17,4.67,15.56,15.56,0,0,0-7,1.28s6.5.93,10.21,3.92a14,14,0,0,0-7.77,6.55,23.42,23.42,0,0,0-2,4.58l-.12.36h0c-.08.27-.16.54-.24.81h0l0,.19c-.11.39-.21.78-.3,1.17l0,.18h0q-.21.93-.36,1.86h0l0,.15c0,.3-.08.59-.12.88,0,.12,0,.24,0,.36h0a26.47,26.47,0,0,0-.13,4.44h0s0,.07,0,.11q.06.92.19,1.79c0,.13,0,.25.07.38.09.52.2,1,.33,1.49,0,.05,0,.12,0,.17h0a11.37,11.37,0,0,0,.62,1.64l0,0c.09.2.19.39.29.58s.13.2.19.31q.24.43.5.82l.17.28v0a12,12,0,0,0,2.81,3h0q.38.28.78.52v0a12.09,12.09,0,0,0,3.46,1.39h0a17.63,17.63,0,0,0,2,.36l0,0c.46.06.94.1,1.43.13v0l1,0h0l1,0,1,0h0l1,0v0c.49,0,1-.07,1.43-.13l0,0a17.6,17.6,0,0,0,2-.36h0a12.08,12.08,0,0,0,3.46-1.39v0q.41-.25.79-.53h0a12,12,0,0,0,2.8-3v0l.17-.28q.26-.4.51-.83c.06-.1.12-.19.18-.3s.2-.38.29-.58l0,0a11.38,11.38,0,0,0,.62-1.64h0c0-.06,0-.13,0-.19.13-.47.24-1,.33-1.48,0-.12,0-.24.06-.36q.14-.88.2-1.82s0-.06,0-.09h0A26.49,26.49,0,0,0,107.92,139.63Z"/><path class="cls-12" d="M70.28,155.72c2.54-2.29,5.39-4.29,7.75-4.48a16.56,16.56,0,0,0-10.57,1.31,26.39,26.39,0,0,1,5-6,13.26,13.26,0,0,0-7.16,2.8,15.31,15.31,0,0,0-2.93-7.66A24.94,24.94,0,0,0,60.63,152C56.88,149.17,50,150.61,50,150.61c3,.63,6.49,3.39,9.2,6a18.34,18.34,0,0,0-1.93-.82,14.36,14.36,0,0,0-8-.22,33,33,0,0,1,8.17,4.67,15.56,15.56,0,0,0-7,1.28s6.5.93,10.21,3.92A14,14,0,0,0,52.87,172a23.43,23.43,0,0,0-2,4.58l-.12.36h0c-.08.27-.16.54-.24.81h0l0,.19c-.11.39-.21.78-.3,1.17l0,.18h0q-.21.93-.36,1.86h0l0,.15c0,.29-.08.59-.12.88,0,.12,0,.24,0,.36h0a26.47,26.47,0,0,0-.13,4.44h0s0,.07,0,.11q.06.92.19,1.79c0,.13,0,.25.07.38.09.52.2,1,.33,1.49,0,.05,0,.12,0,.17h0a11.37,11.37,0,0,0,.62,1.64l0,0c.09.2.19.39.29.58s.13.2.19.31q.25.43.5.82l.17.28v0a12,12,0,0,0,2.81,3h0q.38.28.78.52v0a12.09,12.09,0,0,0,3.46,1.39h0a17.62,17.62,0,0,0,2,.36l0,0c.46.06.94.1,1.43.13v0l1,0h0l1,0,1,0h0l1,0v0c.49,0,1-.07,1.43-.13l0,0a17.6,17.6,0,0,0,2-.36h0A12.08,12.08,0,0,0,73.07,198v0q.41-.25.79-.53h0a12,12,0,0,0,2.8-3v0l.17-.28q.26-.4.51-.83c.06-.1.12-.19.18-.3s.2-.38.29-.58l0,0a11.38,11.38,0,0,0,.62-1.64h0c0-.06,0-.13,0-.19.13-.47.24-1,.33-1.48,0-.12,0-.24.06-.36q.14-.88.2-1.82s0-.06,0-.09h0a26.46,26.46,0,0,0-.13-4.44h0c0-.1,0-.2,0-.3,0-.32-.08-.65-.13-1l0-.12h0q-.16-1-.39-2h0l0-.09c-.09-.38-.19-.75-.29-1.13l0-.18h0c-.08-.27-.15-.54-.24-.8h0l-.05-.15a23.58,23.58,0,0,0-2.1-4.8,13.88,13.88,0,0,0-8.1-6.65c4.23-1.79,10.09-1.42,10.09-1.42-4-2.56-7.16-3-9.55-2.57a32.38,32.38,0,0,1,11.73-4.46A15,15,0,0,0,70.28,155.72Z"/></svg>