<svg id="Layer_1" data-name="Layer 1" xmlns="http://www.w3.org/2000/svg" viewBox="0 0 206.88 206.88"><defs><style>.cls-1{fill:#525731;}.cls-2{fill:#00e000;}</style></defs><title>tiltedquatergreen</title><path class="cls-1" d="M155.64,52.21l-.48-.48-.48-.48L103.44,0,52.2,51.24l-.48.48-.48.48L0,103.44l51.24,51.24.48.48.48.48,51.24,51.24,51.24-51.24.48-.48.48-.48,51.24-51.24Zm-1,1,.48.48h0l49.79,49.79-49.78,49.78h0l-.48.48-50.27-50.27Zm-101-1.46h0L103.44,1.93l49.79,49.79h0l.48.48-50.27,50.27L53.17,52.2Zm-1.44,102-.48-.48h0L1.93,103.44,51.72,53.65h0l.48-.48,50.27,50.27Zm101,1.46h0l-49.78,49.78L53.66,155.16h0l-.48-.48,50.27-50.27,50.27,50.27Z"/><polygon class="cls-2" points="53.65 51.72 53.65 51.72 103.44 1.93 153.22 51.72 153.22 51.73 153.71 52.21 103.44 102.47 53.17 52.2 53.65 51.72"/></svg>