<svg id="Layer_1" data-name="Layer 1" xmlns="http://www.w3.org/2000/svg" xmlns:xlink="http://www.w3.org/1999/xlink"
     viewBox="0 0 109.95 24.67">
    <defs>
        <style>
            .cls-1{opacity:0.2;}.cls-2{fill:#c27029;}.cls-3{fill:url(#linear-gradient);}.cls-4{fill:#fcee8a;}.cls-5{fill:url(#linear-gradient-2);}.cls-6{fill:url(#linear-gradient-3);}.cls-7{fill:url(#linear-gradient-4);}.cls-8{fill:url(#linear-gradient-5);}.cls-9{fill:url(#linear-gradient-6);}.cls-10{fill:url(#linear-gradient-7);}.cls-11{fill:url(#linear-gradient-8);}.cls-12{fill:url(#linear-gradient-9);}.cls-13{fill:url(#linear-gradient-10);}.cls-14{fill:#fff;}
        </style>
        <linearGradient id="linear-gradient" x1="54.97" y1="2.21" x2="54.97" y2="22.96" gradientUnits="userSpaceOnUse">
            <stop offset="0.1" stop-color="#e89649" stop-opacity="0"/>
            <stop offset="0.32" stop-color="#e89649" stop-opacity="0.32"/>
            <stop offset="1" stop-color="#e89649"/>
        </linearGradient>
        <linearGradient id="linear-gradient-2" x1="8.19" y1="4.46" x2="8.19" y2="20.09" gradientUnits="userSpaceOnUse">
            <stop offset="0" stop-color="#f4c43b"/>
            <stop offset="1" stop-color="#f4c43b" stop-opacity="0"/>
        </linearGradient>
        <linearGradient id="linear-gradient-3" x1="19.99" y1="4.46" x2="19.99" y2="20.09"
                        xlink:href="#linear-gradient-2"/>
        <linearGradient id="linear-gradient-4" x1="31.12" y1="4.46" x2="31.12" y2="20.09"
                        xlink:href="#linear-gradient-2"/>
        <linearGradient id="linear-gradient-5" x1="44.67" y1="4.46" x2="44.67" y2="20.09"
                        xlink:href="#linear-gradient-2"/>
        <linearGradient id="linear-gradient-6" x1="55.29" y1="4.46" x2="55.29" y2="20.09"
                        xlink:href="#linear-gradient-2"/>
        <linearGradient id="linear-gradient-7" x1="63.37" y1="4.46" x2="63.37" y2="20.09"
                        xlink:href="#linear-gradient-2"/>
        <linearGradient id="linear-gradient-8" x1="73.97" y1="4.46" x2="73.97" y2="20.09"
                        xlink:href="#linear-gradient-2"/>
        <linearGradient id="linear-gradient-9" x1="88.91" y1="4.46" x2="88.91" y2="20.09"
                        xlink:href="#linear-gradient-2"/>
        <linearGradient id="linear-gradient-10" x1="102.04" y1="4.46" x2="102.04" y2="20.09"
                        xlink:href="#linear-gradient-2"/>
    </defs>
    <title>title</title>
    <path class="cls-1"
          d="M109.54,15.5a6.11,6.11,0,0,0-1.45-2.22l-.13-.12a3,3,0,0,0,.92-1.35l.63-1.85A3,3,0,0,0,108,6.33a11.91,11.91,0,0,0-2.32-.89,11.55,11.55,0,0,0-3-.37,10.28,10.28,0,0,0-3,.4,7.83,7.83,0,0,0-2.51,1.25A6.57,6.57,0,0,0,96,8q-.18-.26-.37-.5A6.9,6.9,0,0,0,90,5.08a7.91,7.91,0,0,0-3.08.59,3,3,0,0,0-1.29-.29H83.45a3,3,0,0,0-2.91,2.25,9.12,9.12,0,0,0-2.92-1.87,10.09,10.09,0,0,0-7.33,0A9,9,0,0,0,67.4,7.62a2.94,2.94,0,0,0-.18-.49,4.61,4.61,0,0,0,.72-2.55A4.49,4.49,0,0,0,66.6,1.34,4.54,4.54,0,0,0,58.8,4.58,4.62,4.62,0,0,0,59,5.87l-.3,0h-.6V4.75a3,3,0,0,0-3-3H53.35a3,3,0,0,0-3,2.65L50.2,5.88h0a10.66,10.66,0,0,0-1.57-.52,11.24,11.24,0,0,0-2.66-.28,9.16,9.16,0,0,0-3.87.81,9,9,0,0,0-2.81,2,3,3,0,0,0-3-2.54H34.25a3,3,0,0,0-.9.14,8.34,8.34,0,0,0-2.72-.44,8.87,8.87,0,0,0-3.74.8q-.38.18-.76.4a3,3,0,0,0-1.48-.94,7,7,0,0,0-1.12-.2,10.11,10.11,0,0,0-1-.05,7.11,7.11,0,0,0-2.59.47l-.3.12a3,3,0,0,0-1.29-.29H16.38V3.88a3,3,0,0,0-3-3H3a3,3,0,0,0-3,3v17.5a3,3,0,0,0,3,3H5.38a3,3,0,0,0,3-3V16.23H12a3,3,0,0,0,1.07-.2v5.35a3,3,0,0,0,3,3h2.25a3,3,0,0,0,3-3V15.3a4.49,4.49,0,0,1,.13-1.17q0,.41,0,.82a10.92,10.92,0,0,0,.65,3.84A9.55,9.55,0,0,0,24,21.86a8.46,8.46,0,0,0,2.86,2.08,8.55,8.55,0,0,0,3.51.74,8.14,8.14,0,0,0,2.18-.29,7.73,7.73,0,0,0,1.6-.64,6.64,6.64,0,0,0,3.19.75A3,3,0,0,0,40,22.7a8.63,8.63,0,0,0,2,1.22,9.15,9.15,0,0,0,3.74.76,11.61,11.61,0,0,0,2.94-.35,11.12,11.12,0,0,0,2.4-.93,3,3,0,0,0,.84-.66,6.78,6.78,0,0,0,4.93,1.94,8.52,8.52,0,0,0,2.73-.44c.34-.11.66-.24,1-.37a3,3,0,0,0,1.68.52H64.5a3,3,0,0,0,2.91-2.28,9.08,9.08,0,0,0,2.81,1.85,10,10,0,0,0,7.46,0,9.08,9.08,0,0,0,2.86-1.86,3,3,0,0,0,2.91,2.27H85.7a3,3,0,0,0,3-3V13.75l0-.05a3,3,0,0,1,.38-.36v8a3,3,0,0,0,3,3h2.25a3,3,0,0,0,2.14-.9,10.15,10.15,0,0,0,1.64.68,11.81,11.81,0,0,0,3.59.52,11.17,11.17,0,0,0,2.93-.37,8,8,0,0,0,2.6-1.21,6.46,6.46,0,0,0,1.94-2.2,6.26,6.26,0,0,0,.73-3A7,7,0,0,0,109.54,15.5ZM31,16.64a.78.78,0,0,1-.23,0,.73.73,0,0,1-.33-.06.89.89,0,0,1-.3-.24,1.55,1.55,0,0,1-.28-.53,3.06,3.06,0,0,1-.14-1,3.27,3.27,0,0,1,.15-1,1.7,1.7,0,0,1,.28-.55.73.73,0,0,1,.26-.2.89.89,0,0,1,.38-.07H31ZM49.82,16a3,3,0,0,0-2.27.25,4.57,4.57,0,0,1-.86.38,2.85,2.85,0,0,1-.77.08.58.58,0,0,1-.25,0,.84.84,0,0,1-.28-.24,1.93,1.93,0,0,1-.31-.61,3.1,3.1,0,0,1-.14-1,3,3,0,0,1,.14-1,1.47,1.47,0,0,1,.27-.49.69.69,0,0,1,.25-.18,1.15,1.15,0,0,1,.46-.09,2.61,2.61,0,0,1,.64.06,4.51,4.51,0,0,1,.8.31,3,3,0,0,0,1.3.3,3,3,0,0,0,.8-.11l.2.06Zm9.42,0a3,3,0,0,0-1.17.29V13.8h.6a3,3,0,0,0,.58-.06ZM75,15.89a1.51,1.51,0,0,1-.27.51.68.68,0,0,1-.25.19,1.29,1.29,0,0,1-.52.08.63.63,0,0,1-.31-.06,1.25,1.25,0,0,1-.4-.32,1.85,1.85,0,0,1-.33-.61,2.52,2.52,0,0,1-.14-.86,2.31,2.31,0,0,1,.39-1.51c.07-.08.2-.24.78-.24a.62.62,0,0,1,.3.06,1.34,1.34,0,0,1,.42.33A1.78,1.78,0,0,1,75,14a2.47,2.47,0,0,1,.14.84A3.28,3.28,0,0,1,75,15.89Z"/>
    <path class="cls-2"
          d="M108.6,14.85A5.13,5.13,0,0,0,107.39,13a7.16,7.16,0,0,0-1.54-1.15h.2a2,2,0,0,0,1.9-1.36l.63-1.85a2,2,0,0,0-1-2.42,10.92,10.92,0,0,0-2.13-.81,10.57,10.57,0,0,0-2.76-.33,9.27,9.27,0,0,0-2.67.36,6.82,6.82,0,0,0-2.19,1.09,5.41,5.41,0,0,0-1.53,1.8,5,5,0,0,0-.35.88,6.46,6.46,0,0,0-1.13-2.08A5.93,5.93,0,0,0,90,5.08a6.76,6.76,0,0,0-3.14.72,2,2,0,0,0-1.23-.42H83.45a2,2,0,0,0-2,2V9.5a8,8,0,0,0-4.19-3.81,9.09,9.09,0,0,0-6.59,0,8,8,0,0,0-2.73,1.8,8.09,8.09,0,0,0-1.44,2V7.38A2,2,0,0,0,66,6.06a3.53,3.53,0,0,0,.94-2.49A3.51,3.51,0,0,0,65.9,1a3.54,3.54,0,0,0-6.1,2.53,3.5,3.5,0,0,0,1,2.45,2,2,0,0,0-.42.74,2,2,0,0,0-1.68-.92h-1.6V3.75a2,2,0,0,0-2-2H53.35a2,2,0,0,0-2,1.77l-.27,2.33h-.52a2,2,0,0,0-.51.07,10.08,10.08,0,0,0-1.7-.59,10.25,10.25,0,0,0-2.42-.26,8.17,8.17,0,0,0-3.45.72,8,8,0,0,0-2.64,1.95,8.39,8.39,0,0,0-1.56,2.59v-3a2,2,0,0,0-2-2H34.25a2,2,0,0,0-.89.21,7.21,7.21,0,0,0-2.73-.51,7.73,7.73,0,0,0-4.85,1.64,1.94,1.94,0,0,0-1.4-1.42,5.94,5.94,0,0,0-1-.17,9.08,9.08,0,0,0-.94,0,6.12,6.12,0,0,0-2.23.4,6.71,6.71,0,0,0-.72.33,2,2,0,0,0-1.23-.43H16.12a2,2,0,0,0-.87.21,2,2,0,0,0,.12-.66v-2a2,2,0,0,0-2-2H3a2,2,0,0,0-2,2v17.5a2,2,0,0,0,2,2H5.38a2,2,0,0,0,2-2V14.23H12a2,2,0,0,0,2-2v-2a2,2,0,0,0-2-2H7.38V6.92h6a2,2,0,0,0,.87-.21,2,2,0,0,0-.12.66v13a2,2,0,0,0,2,2h2.25a2,2,0,0,0,2-2V14.3a5.1,5.1,0,0,1,.21-1.58,2.62,2.62,0,0,1,.45-.87,1.38,1.38,0,0,1,.48-.38,1.29,1.29,0,0,1,.54-.12,1,1,0,0,1,.35,0,2,2,0,0,0,.36.11A10.32,10.32,0,0,0,22.47,14a9.93,9.93,0,0,0,.59,3.49,8.55,8.55,0,0,0,1.64,2.75A7.47,7.47,0,0,0,27.22,22a7.56,7.56,0,0,0,3.1.65,7.13,7.13,0,0,0,1.91-.25,6.61,6.61,0,0,0,1.61-.69l.26-.17a5.32,5.32,0,0,0,3.18.93A2,2,0,0,0,39.23,21l.34-1.25c.09.11.17.22.26.33A7.58,7.58,0,0,0,42.44,22a8.16,8.16,0,0,0,3.34.67,10.61,10.61,0,0,0,2.68-.32,10.11,10.11,0,0,0,2.18-.84,2,2,0,0,0,1.06-1.77,5.62,5.62,0,0,0,.72,1,5.77,5.77,0,0,0,4.46,1.9,7.52,7.52,0,0,0,2.42-.39,9.46,9.46,0,0,0,1.44-.62,2,2,0,0,0,1.52.71H64.5a2,2,0,0,0,2-2V18.18a8.3,8.3,0,0,0,1.39,2A8.07,8.07,0,0,0,70.61,22a8.61,8.61,0,0,0,3.36.66A8.7,8.7,0,0,0,77.3,22,8.07,8.07,0,0,0,80,20.19a8.15,8.15,0,0,0,1.42-2v2.17a2,2,0,0,0,2,2H85.7a2,2,0,0,0,2-2v-8L88,12a3.88,3.88,0,0,1,.62-.58,2.64,2.64,0,0,1,.6-.34,1.11,1.11,0,0,1,.4-.08c.22,0,.25,0,.27.06a1.8,1.8,0,0,1,.23,1v8.23a2,2,0,0,0,2,2h2.25a2,2,0,0,0,1.85-1.24,8.56,8.56,0,0,0,2.24,1.07,10.82,10.82,0,0,0,3.28.47,10.16,10.16,0,0,0,2.67-.33,7,7,0,0,0,2.28-1.06,5.47,5.47,0,0,0,1.64-1.86,5.27,5.27,0,0,0,.61-2.52A5.94,5.94,0,0,0,108.6,14.85ZM32,11.26v5a2.69,2.69,0,0,1-.36.23,1.79,1.79,0,0,1-.86.22,1.73,1.73,0,0,1-.76-.16,1.89,1.89,0,0,1-.63-.49,2.5,2.5,0,0,1-.47-.86,4,4,0,0,1-.19-1.3,4.26,4.26,0,0,1,.2-1.34,2.66,2.66,0,0,1,.47-.88,1.73,1.73,0,0,1,.6-.46,1.86,1.86,0,0,1,.8-.16,3.08,3.08,0,0,1,1,.17Zm18.83,5.9A2,2,0,0,0,48,16.1a5.51,5.51,0,0,1-1.06.46,3.8,3.8,0,0,1-1.06.12,1.5,1.5,0,0,1-.71-.15,1.84,1.84,0,0,1-.6-.5,2.91,2.91,0,0,1-.48-.92,4.08,4.08,0,0,1-.19-1.27,4,4,0,0,1,.2-1.33,2.44,2.44,0,0,1,.47-.83,1.69,1.69,0,0,1,.61-.43,2.14,2.14,0,0,1,.85-.17,3.63,3.63,0,0,1,.89.1,5.51,5.51,0,0,1,1,.38,2,2,0,0,0,1.63,0l.07,0a2,2,0,0,0,.92.24h.25v4.1a10.18,10.18,0,0,0,.09,1.37ZM59.37,16a2,2,0,0,0-1,.25,5.54,5.54,0,0,1-.77.35,1.41,1.41,0,0,1-.49.08h0a2.09,2.09,0,0,1-.06-.6V11.8h1.6A2,2,0,0,0,60.25,11v5.2l-.16-.08A2,2,0,0,0,59.37,16Zm15.53.5a2.23,2.23,0,0,1-.93.17,1.63,1.63,0,0,1-.76-.17,2.24,2.24,0,0,1-.71-.56A2.85,2.85,0,0,1,72,15a3.54,3.54,0,0,1-.2-1.2,3.23,3.23,0,0,1,.63-2.16A1.81,1.81,0,0,1,74,11.08a1.63,1.63,0,0,1,.75.17,2.35,2.35,0,0,1,.72.56,2.76,2.76,0,0,1,.5.89,3.44,3.44,0,0,1,.2,1.18A4.28,4.28,0,0,1,76,15.2a2.49,2.49,0,0,1-.45.85A1.69,1.69,0,0,1,74.9,16.5Zm25.83-.09.83.31a4.19,4.19,0,0,1-1.19-.23,3,3,0,0,1-1-.54,2,2,0,0,0-.25-.19A12.76,12.76,0,0,0,100.74,16.41Zm-4.36,0V13.29a4.77,4.77,0,0,0,.89,1.19,7.2,7.2,0,0,0,1.56,1.12,2,2,0,0,0-2.46.82Z"/>
    <path class="cls-3"
          d="M108.6,14.85A5.13,5.13,0,0,0,107.39,13a7.16,7.16,0,0,0-1.54-1.15h.2a2,2,0,0,0,1.9-1.36l.63-1.85a2,2,0,0,0-1-2.42,10.92,10.92,0,0,0-2.13-.81,10.57,10.57,0,0,0-2.76-.33,9.27,9.27,0,0,0-2.67.36,6.82,6.82,0,0,0-2.19,1.09,5.41,5.41,0,0,0-1.53,1.8,5,5,0,0,0-.35.88,6.46,6.46,0,0,0-1.13-2.08A5.93,5.93,0,0,0,90,5.08a6.76,6.76,0,0,0-3.14.72,2,2,0,0,0-1.23-.42H83.45a2,2,0,0,0-2,2V9.5a8,8,0,0,0-4.19-3.81,9.09,9.09,0,0,0-6.59,0,8,8,0,0,0-2.73,1.8,8.09,8.09,0,0,0-1.44,2V7.38A2,2,0,0,0,66,6.06a3.53,3.53,0,0,0,.94-2.49A3.51,3.51,0,0,0,65.9,1a3.54,3.54,0,0,0-6.1,2.53,3.5,3.5,0,0,0,1,2.45,2,2,0,0,0-.42.74,2,2,0,0,0-1.68-.92h-1.6V3.75a2,2,0,0,0-2-2H53.35a2,2,0,0,0-2,1.77l-.27,2.33h-.52a2,2,0,0,0-.51.07,10.08,10.08,0,0,0-1.7-.59,10.25,10.25,0,0,0-2.42-.26,8.17,8.17,0,0,0-3.45.72,8,8,0,0,0-2.64,1.95,8.39,8.39,0,0,0-1.56,2.59v-3a2,2,0,0,0-2-2H34.25a2,2,0,0,0-.89.21,7.21,7.21,0,0,0-2.73-.51,7.73,7.73,0,0,0-4.85,1.64,1.94,1.94,0,0,0-1.4-1.42,5.94,5.94,0,0,0-1-.17,9.08,9.08,0,0,0-.94,0,6.12,6.12,0,0,0-2.23.4,6.71,6.71,0,0,0-.72.33,2,2,0,0,0-1.23-.43H16.12a2,2,0,0,0-.87.21,2,2,0,0,0,.12-.66v-2a2,2,0,0,0-2-2H3a2,2,0,0,0-2,2v17.5a2,2,0,0,0,2,2H5.38a2,2,0,0,0,2-2V14.23H12a2,2,0,0,0,2-2v-2a2,2,0,0,0-2-2H7.38V6.92h6a2,2,0,0,0,.87-.21,2,2,0,0,0-.12.66v13a2,2,0,0,0,2,2h2.25a2,2,0,0,0,2-2V14.3a5.1,5.1,0,0,1,.21-1.58,2.62,2.62,0,0,1,.45-.87,1.38,1.38,0,0,1,.48-.38,1.29,1.29,0,0,1,.54-.12,1,1,0,0,1,.35,0,2,2,0,0,0,.36.11A10.32,10.32,0,0,0,22.47,14a9.93,9.93,0,0,0,.59,3.49,8.55,8.55,0,0,0,1.64,2.75A7.47,7.47,0,0,0,27.22,22a7.56,7.56,0,0,0,3.1.65,7.13,7.13,0,0,0,1.91-.25,6.61,6.61,0,0,0,1.61-.69l.26-.17a5.32,5.32,0,0,0,3.18.93A2,2,0,0,0,39.23,21l.34-1.25c.09.11.17.22.26.33A7.58,7.58,0,0,0,42.44,22a8.16,8.16,0,0,0,3.34.67,10.61,10.61,0,0,0,2.68-.32,10.11,10.11,0,0,0,2.18-.84,2,2,0,0,0,1.06-1.77,5.62,5.62,0,0,0,.72,1,5.77,5.77,0,0,0,4.46,1.9,7.52,7.52,0,0,0,2.42-.39,9.46,9.46,0,0,0,1.44-.62,2,2,0,0,0,1.52.71H64.5a2,2,0,0,0,2-2V18.18a8.3,8.3,0,0,0,1.39,2A8.07,8.07,0,0,0,70.61,22a8.61,8.61,0,0,0,3.36.66A8.7,8.7,0,0,0,77.3,22,8.07,8.07,0,0,0,80,20.19a8.15,8.15,0,0,0,1.42-2v2.17a2,2,0,0,0,2,2H85.7a2,2,0,0,0,2-2v-8L88,12a3.88,3.88,0,0,1,.62-.58,2.64,2.64,0,0,1,.6-.34,1.11,1.11,0,0,1,.4-.08c.22,0,.25,0,.27.06a1.8,1.8,0,0,1,.23,1v8.23a2,2,0,0,0,2,2h2.25a2,2,0,0,0,1.85-1.24,8.56,8.56,0,0,0,2.24,1.07,10.82,10.82,0,0,0,3.28.47,10.16,10.16,0,0,0,2.67-.33,7,7,0,0,0,2.28-1.06,5.47,5.47,0,0,0,1.64-1.86,5.27,5.27,0,0,0,.61-2.52A5.94,5.94,0,0,0,108.6,14.85ZM32,11.26v5a2.69,2.69,0,0,1-.36.23,1.79,1.79,0,0,1-.86.22,1.73,1.73,0,0,1-.76-.16,1.89,1.89,0,0,1-.63-.49,2.5,2.5,0,0,1-.47-.86,4,4,0,0,1-.19-1.3,4.26,4.26,0,0,1,.2-1.34,2.66,2.66,0,0,1,.47-.88,1.73,1.73,0,0,1,.6-.46,1.86,1.86,0,0,1,.8-.16,3.08,3.08,0,0,1,1,.17Zm18.83,5.9A2,2,0,0,0,48,16.1a5.51,5.51,0,0,1-1.06.46,3.8,3.8,0,0,1-1.06.12,1.5,1.5,0,0,1-.71-.15,1.84,1.84,0,0,1-.6-.5,2.91,2.91,0,0,1-.48-.92,4.08,4.08,0,0,1-.19-1.27,4,4,0,0,1,.2-1.33,2.44,2.44,0,0,1,.47-.83,1.69,1.69,0,0,1,.61-.43,2.14,2.14,0,0,1,.85-.17,3.63,3.63,0,0,1,.89.1,5.51,5.51,0,0,1,1,.38,2,2,0,0,0,1.63,0l.07,0a2,2,0,0,0,.92.24h.25v4.1a10.18,10.18,0,0,0,.09,1.37ZM59.37,16a2,2,0,0,0-1,.25,5.54,5.54,0,0,1-.77.35,1.41,1.41,0,0,1-.49.08h0a2.09,2.09,0,0,1-.06-.6V11.8h1.6A2,2,0,0,0,60.25,11v5.2l-.16-.08A2,2,0,0,0,59.37,16Zm15.53.5a2.23,2.23,0,0,1-.93.17,1.63,1.63,0,0,1-.76-.17,2.24,2.24,0,0,1-.71-.56A2.85,2.85,0,0,1,72,15a3.54,3.54,0,0,1-.2-1.2,3.23,3.23,0,0,1,.63-2.16A1.81,1.81,0,0,1,74,11.08a1.63,1.63,0,0,1,.75.17,2.35,2.35,0,0,1,.72.56,2.76,2.76,0,0,1,.5.89,3.44,3.44,0,0,1,.2,1.18A4.28,4.28,0,0,1,76,15.2a2.49,2.49,0,0,1-.45.85A1.69,1.69,0,0,1,74.9,16.5Zm25.83-.09.83.31a4.19,4.19,0,0,1-1.19-.23,3,3,0,0,1-1-.54,2,2,0,0,0-.25-.19A12.76,12.76,0,0,0,100.74,16.41Zm-4.36,0V13.29a4.77,4.77,0,0,0,.89,1.19,7.2,7.2,0,0,0,1.56,1.12,2,2,0,0,0-2.46.82Z"/>
    <path class="cls-4" d="M3,2.88H13.38v2h-8v5.35H12v2H5.38v8.15H3Z"/>
    <path class="cls-4"
          d="M23.17,9.55A2.9,2.9,0,0,0,22,9.35a3.27,3.27,0,0,0-1.36.3,3.36,3.36,0,0,0-1.17.9,4.56,4.56,0,0,0-.83,1.54,7,7,0,0,0-.31,2.21v6.08H16.12v-13H18.3V10.2A6,6,0,0,1,18.9,9a4.45,4.45,0,0,1,.89-1A4.27,4.27,0,0,1,21,7.34a4.11,4.11,0,0,1,1.5-.26,7.19,7.19,0,0,1,.74,0,4,4,0,0,1,.64.11Z"/>
    <path class="cls-4"
          d="M24.47,14a8,8,0,0,1,.45-2.71A6.67,6.67,0,0,1,26.19,9a5.8,5.8,0,0,1,2-1.45,5.86,5.86,0,0,1,2.49-.52,5.16,5.16,0,0,1,2,.39,6.13,6.13,0,0,1,1.59,1v-1H36.3v9.85q0,.95.46,1.24a1.88,1.88,0,0,0,1,.29L37.3,20.5q-2.4,0-2.9-2a7.3,7.3,0,0,1-.69.79,4.53,4.53,0,0,1-2,1.16,5.11,5.11,0,0,1-1.37.17A5.54,5.54,0,0,1,28,20.2a5.46,5.46,0,0,1-1.85-1.35,6.54,6.54,0,0,1-1.25-2.11A7.91,7.91,0,0,1,24.47,14Zm6.35,4.72a3.79,3.79,0,0,0,1.8-.45A4.46,4.46,0,0,0,34,17v-7a6.14,6.14,0,0,0-1.49-.76A5.1,5.1,0,0,0,30.85,9a3.85,3.85,0,0,0-1.65.35,3.73,3.73,0,0,0-1.29,1,4.62,4.62,0,0,0-.84,1.54,6.21,6.21,0,0,0-.3,2,6,6,0,0,0,.3,1.94,4.5,4.5,0,0,0,.85,1.52,3.88,3.88,0,0,0,1.29,1A3.71,3.71,0,0,0,30.82,18.67Z"/>
    <path class="cls-4"
          d="M48.82,9.75a7.51,7.51,0,0,0-1.35-.51,5.59,5.59,0,0,0-1.4-.16,4.14,4.14,0,0,0-1.64.32,3.68,3.68,0,0,0-1.31.94,4.43,4.43,0,0,0-.86,1.49,5.92,5.92,0,0,0-.31,2,6,6,0,0,0,.29,1.9A4.91,4.91,0,0,0,43,17.26a3.83,3.83,0,0,0,1.25,1,3.48,3.48,0,0,0,1.63.38,5.77,5.77,0,0,0,1.63-.2A7.44,7.44,0,0,0,49,17.85l.7,1.9a8.07,8.07,0,0,1-1.75.67,8.58,8.58,0,0,1-2.17.25,6.15,6.15,0,0,1-2.52-.5,5.56,5.56,0,0,1-1.93-1.4,6.35,6.35,0,0,1-1.24-2.15,8.27,8.27,0,0,1-.44-2.75,7.85,7.85,0,0,1,.44-2.64,6.42,6.42,0,0,1,1.26-2.16,6,6,0,0,1,2-1.46,6.16,6.16,0,0,1,2.61-.54,8.36,8.36,0,0,1,2,.2,8,8,0,0,1,1.6.58Z"/>
    <path class="cls-4"
          d="M53.35,3.75h1.73v4.1h3.6V9.8h-3.6v6.28a4,4,0,0,0,.16,1.22,2.14,2.14,0,0,0,.44.8,1.61,1.61,0,0,0,.66.44,2.4,2.4,0,0,0,.81.14,3.41,3.41,0,0,0,1.17-.2,7.47,7.47,0,0,0,1-.48L60,19.8a7.08,7.08,0,0,1-1.35.59,5.51,5.51,0,0,1-1.78.29,3.76,3.76,0,0,1-3-1.22,5.18,5.18,0,0,1-1.09-3.55V9.8H50.57V7.85h2.3Z"/>
    <path class="cls-4"
          d="M63.37,5.15a1.51,1.51,0,0,1-1.11-.46,1.51,1.51,0,0,1-.46-1.11,1.55,1.55,0,0,1,.43-1.15A1.55,1.55,0,0,1,63.37,2a1.52,1.52,0,0,1,1.11.46,1.52,1.52,0,0,1,.46,1.11,1.55,1.55,0,0,1-.43,1.15A1.55,1.55,0,0,1,63.37,5.15ZM64.5,20.38H62.25v-13H64.5Z"/>
    <path class="cls-4"
          d="M67.5,13.88A7.65,7.65,0,0,1,68,11,6.32,6.32,0,0,1,69.36,8.9a6,6,0,0,1,2.05-1.35,7.09,7.09,0,0,1,5.1,0A6.09,6.09,0,0,1,78.57,8.9,6.26,6.26,0,0,1,79.95,11a7.49,7.49,0,0,1,.5,2.8A7.75,7.75,0,0,1,80,16.64,6.32,6.32,0,0,1,78.6,18.8a6,6,0,0,1-2.06,1.39,6.68,6.68,0,0,1-2.56.49,6.59,6.59,0,0,1-2.59-.5,6.06,6.06,0,0,1-2.05-1.4A6.47,6.47,0,0,1,68,16.63,7.51,7.51,0,0,1,67.5,13.88Zm10.65,0A5.46,5.46,0,0,0,77.84,12,4.75,4.75,0,0,0,77,10.5a4.35,4.35,0,0,0-1.32-1A3.62,3.62,0,0,0,74,9.08a3.81,3.81,0,0,0-3.08,1.3,5.16,5.16,0,0,0-1.1,3.45,5.56,5.56,0,0,0,.31,1.86A4.86,4.86,0,0,0,71,17.24a4.24,4.24,0,0,0,1.33,1.05,3.62,3.62,0,0,0,1.66.39,4.21,4.21,0,0,0,1.75-.35,3.68,3.68,0,0,0,1.31-1,4.49,4.49,0,0,0,.82-1.51A6.23,6.23,0,0,0,78.15,13.88Z"/>
    <path class="cls-4"
          d="M85.62,9.55a6.22,6.22,0,0,1,1.79-1.76A4.61,4.61,0,0,1,90,7.08,4,4,0,0,1,93.29,8.4a5.34,5.34,0,0,1,1.09,3.5v8.48H92.12V12.15a3.6,3.6,0,0,0-.65-2.26A2.2,2.2,0,0,0,89.62,9a3.1,3.1,0,0,0-1.12.21,4.61,4.61,0,0,0-1.06.59,5.84,5.84,0,0,0-.95.88,8.65,8.65,0,0,0-.79,1v8.6H83.45v-13h2.17Z"/>
    <path class="cls-4"
          d="M98.07,17.45a4.91,4.91,0,0,0,1.64.92,6.28,6.28,0,0,0,2.11.35,3.91,3.91,0,0,0,2.11-.46,1.38,1.38,0,0,0,.71-1.19,1.79,1.79,0,0,0-.14-.7,1.7,1.7,0,0,0-.5-.62,4.55,4.55,0,0,0-1-.59q-.62-.29-1.62-.64A7.38,7.38,0,0,1,98.65,13a3.15,3.15,0,0,1-.9-2.39,3,3,0,0,1,.34-1.4,3.41,3.41,0,0,1,1-1.14,4.82,4.82,0,0,1,1.55-.76,7.25,7.25,0,0,1,2.09-.27,8.55,8.55,0,0,1,2.24.26,8.89,8.89,0,0,1,1.74.66L106,9.85a6.61,6.61,0,0,0-1.54-.65A6.87,6.87,0,0,0,102.6,9a3.17,3.17,0,0,0-2,.52,1.47,1.47,0,0,0-.67,1.15,1.32,1.32,0,0,0,.11.55,1.26,1.26,0,0,0,.41.48,4.25,4.25,0,0,0,.8.45q.5.22,1.25.48a16.2,16.2,0,0,1,2.08.86,5.48,5.48,0,0,1,1.38,1,3.14,3.14,0,0,1,.75,1.14,3.93,3.93,0,0,1,.23,1.36,3.28,3.28,0,0,1-.37,1.58,3.48,3.48,0,0,1-1.05,1.19,5,5,0,0,1-1.64.75,8.13,8.13,0,0,1-2.14.26,8.79,8.79,0,0,1-2.67-.37,6.28,6.28,0,0,1-2-1Z"/>
    <path class="cls-5" d="M3,2.88H13.38v2h-8v5.35H12v2H5.38v8.15H3Z"/>
    <path class="cls-6"
          d="M23.17,9.55A2.9,2.9,0,0,0,22,9.35a3.27,3.27,0,0,0-1.36.3,3.36,3.36,0,0,0-1.17.9,4.56,4.56,0,0,0-.83,1.54,7,7,0,0,0-.31,2.21v6.08H16.12v-13H18.3V10.2A6,6,0,0,1,18.9,9a4.45,4.45,0,0,1,.89-1A4.27,4.27,0,0,1,21,7.34a4.11,4.11,0,0,1,1.5-.26,7.19,7.19,0,0,1,.74,0,4,4,0,0,1,.64.11Z"/>
    <path class="cls-7"
          d="M24.47,14a8,8,0,0,1,.45-2.71A6.67,6.67,0,0,1,26.19,9a5.8,5.8,0,0,1,2-1.45,5.86,5.86,0,0,1,2.49-.52,5.16,5.16,0,0,1,2,.39,6.13,6.13,0,0,1,1.59,1v-1H36.3v9.85q0,.95.46,1.24a1.88,1.88,0,0,0,1,.29L37.3,20.5q-2.4,0-2.9-2a7.3,7.3,0,0,1-.69.79,4.53,4.53,0,0,1-2,1.16,5.11,5.11,0,0,1-1.37.17A5.54,5.54,0,0,1,28,20.2a5.46,5.46,0,0,1-1.85-1.35,6.54,6.54,0,0,1-1.25-2.11A7.91,7.91,0,0,1,24.47,14Zm6.35,4.72a3.79,3.79,0,0,0,1.8-.45A4.46,4.46,0,0,0,34,17v-7a6.14,6.14,0,0,0-1.49-.76A5.1,5.1,0,0,0,30.85,9a3.85,3.85,0,0,0-1.65.35,3.73,3.73,0,0,0-1.29,1,4.62,4.62,0,0,0-.84,1.54,6.21,6.21,0,0,0-.3,2,6,6,0,0,0,.3,1.94,4.5,4.5,0,0,0,.85,1.52,3.88,3.88,0,0,0,1.29,1A3.71,3.71,0,0,0,30.82,18.67Z"/>
    <path class="cls-8"
          d="M48.82,9.75a7.51,7.51,0,0,0-1.35-.51,5.59,5.59,0,0,0-1.4-.16,4.14,4.14,0,0,0-1.64.32,3.68,3.68,0,0,0-1.31.94,4.43,4.43,0,0,0-.86,1.49,5.92,5.92,0,0,0-.31,2,6,6,0,0,0,.29,1.9A4.91,4.91,0,0,0,43,17.26a3.83,3.83,0,0,0,1.25,1,3.48,3.48,0,0,0,1.63.38,5.77,5.77,0,0,0,1.63-.2A7.44,7.44,0,0,0,49,17.85l.7,1.9a8.07,8.07,0,0,1-1.75.67,8.58,8.58,0,0,1-2.17.25,6.15,6.15,0,0,1-2.52-.5,5.56,5.56,0,0,1-1.93-1.4,6.35,6.35,0,0,1-1.24-2.15,8.27,8.27,0,0,1-.44-2.75,7.85,7.85,0,0,1,.44-2.64,6.42,6.42,0,0,1,1.26-2.16,6,6,0,0,1,2-1.46,6.16,6.16,0,0,1,2.61-.54,8.36,8.36,0,0,1,2,.2,8,8,0,0,1,1.6.58Z"/>
    <path class="cls-9"
          d="M53.35,3.75h1.73v4.1h3.6V9.8h-3.6v6.28a4,4,0,0,0,.16,1.22,2.14,2.14,0,0,0,.44.8,1.61,1.61,0,0,0,.66.44,2.4,2.4,0,0,0,.81.14,3.41,3.41,0,0,0,1.17-.2,7.47,7.47,0,0,0,1-.48L60,19.8a7.08,7.08,0,0,1-1.35.59,5.51,5.51,0,0,1-1.78.29,3.76,3.76,0,0,1-3-1.22,5.18,5.18,0,0,1-1.09-3.55V9.8H50.57V7.85h2.3Z"/>
    <path class="cls-10"
          d="M63.37,5.15a1.51,1.51,0,0,1-1.11-.46,1.51,1.51,0,0,1-.46-1.11,1.55,1.55,0,0,1,.43-1.15A1.55,1.55,0,0,1,63.37,2a1.52,1.52,0,0,1,1.11.46,1.52,1.52,0,0,1,.46,1.11,1.55,1.55,0,0,1-.43,1.15A1.55,1.55,0,0,1,63.37,5.15ZM64.5,20.38H62.25v-13H64.5Z"/>
    <path class="cls-11"
          d="M67.5,13.88A7.65,7.65,0,0,1,68,11,6.32,6.32,0,0,1,69.36,8.9a6,6,0,0,1,2.05-1.35,7.09,7.09,0,0,1,5.1,0A6.09,6.09,0,0,1,78.57,8.9,6.26,6.26,0,0,1,79.95,11a7.49,7.49,0,0,1,.5,2.8A7.75,7.75,0,0,1,80,16.64,6.32,6.32,0,0,1,78.6,18.8a6,6,0,0,1-2.06,1.39,6.68,6.68,0,0,1-2.56.49,6.59,6.59,0,0,1-2.59-.5,6.06,6.06,0,0,1-2.05-1.4A6.47,6.47,0,0,1,68,16.63,7.51,7.51,0,0,1,67.5,13.88Zm10.65,0A5.46,5.46,0,0,0,77.84,12,4.75,4.75,0,0,0,77,10.5a4.35,4.35,0,0,0-1.32-1A3.62,3.62,0,0,0,74,9.08a3.81,3.81,0,0,0-3.08,1.3,5.16,5.16,0,0,0-1.1,3.45,5.56,5.56,0,0,0,.31,1.86A4.86,4.86,0,0,0,71,17.24a4.24,4.24,0,0,0,1.33,1.05,3.62,3.62,0,0,0,1.66.39,4.21,4.21,0,0,0,1.75-.35,3.68,3.68,0,0,0,1.31-1,4.49,4.49,0,0,0,.82-1.51A6.23,6.23,0,0,0,78.15,13.88Z"/>
    <path class="cls-12"
          d="M85.62,9.55a6.22,6.22,0,0,1,1.79-1.76A4.61,4.61,0,0,1,90,7.08,4,4,0,0,1,93.29,8.4a5.34,5.34,0,0,1,1.09,3.5v8.48H92.12V12.15a3.6,3.6,0,0,0-.65-2.26A2.2,2.2,0,0,0,89.62,9a3.1,3.1,0,0,0-1.12.21,4.61,4.61,0,0,0-1.06.59,5.84,5.84,0,0,0-.95.88,8.65,8.65,0,0,0-.79,1v8.6H83.45v-13h2.17Z"/>
    <path class="cls-13"
          d="M98.07,17.45a4.91,4.91,0,0,0,1.64.92,6.28,6.28,0,0,0,2.11.35,3.91,3.91,0,0,0,2.11-.46,1.38,1.38,0,0,0,.71-1.19,1.79,1.79,0,0,0-.14-.7,1.7,1.7,0,0,0-.5-.62,4.55,4.55,0,0,0-1-.59q-.62-.29-1.62-.64A7.38,7.38,0,0,1,98.65,13a3.15,3.15,0,0,1-.9-2.39,3,3,0,0,1,.34-1.4,3.41,3.41,0,0,1,1-1.14,4.82,4.82,0,0,1,1.55-.76,7.25,7.25,0,0,1,2.09-.27,8.55,8.55,0,0,1,2.24.26,8.89,8.89,0,0,1,1.74.66L106,9.85a6.61,6.61,0,0,0-1.54-.65A6.87,6.87,0,0,0,102.6,9a3.17,3.17,0,0,0-2,.52,1.47,1.47,0,0,0-.67,1.15,1.32,1.32,0,0,0,.11.55,1.26,1.26,0,0,0,.41.48,4.25,4.25,0,0,0,.8.45q.5.22,1.25.48a16.2,16.2,0,0,1,2.08.86,5.48,5.48,0,0,1,1.38,1,3.14,3.14,0,0,1,.75,1.14,3.93,3.93,0,0,1,.23,1.36,3.28,3.28,0,0,1-.37,1.58,3.48,3.48,0,0,1-1.05,1.19,5,5,0,0,1-1.64.75,8.13,8.13,0,0,1-2.14.26,8.79,8.79,0,0,1-2.67-.37,6.28,6.28,0,0,1-2-1Z"/>
    <rect class="cls-14" x="3" y="19.67" width="2.38" height="0.7"/>
    <rect class="cls-14" x="5.38" y="4.22" width="8" height="0.7"/>
    <rect class="cls-14" x="5.38" y="11.53" width="6.67" height="0.7"/>
    <path class="cls-14"
          d="M23.17,8.85A2.9,2.9,0,0,0,22,8.65a3.27,3.27,0,0,0-1.36.3,3.36,3.36,0,0,0-1.17.9,4.56,4.56,0,0,0-.83,1.54,7,7,0,0,0-.31,2.21v.7a7,7,0,0,1,.31-2.21,4.56,4.56,0,0,1,.83-1.54,3.36,3.36,0,0,1,1.17-.9A3.27,3.27,0,0,1,22,9.35a2.9,2.9,0,0,1,1.13.2l.68-2.32-.19,0Z"/>
    <rect class="cls-14" x="16.12" y="19.67" width="2.25" height="0.7"/>
    <path class="cls-14"
          d="M32.56,8.61a5.1,5.1,0,0,0-1.71-.29,3.85,3.85,0,0,0-1.65.35,3.73,3.73,0,0,0-1.29,1,4.62,4.62,0,0,0-.84,1.54,6.21,6.21,0,0,0-.3,2c0,.12,0,.23,0,.35a6.08,6.08,0,0,1,.27-1.62,4.62,4.62,0,0,1,.84-1.54,3.73,3.73,0,0,1,1.29-1A3.85,3.85,0,0,1,30.85,9a5.1,5.1,0,0,1,1.71.29,6.14,6.14,0,0,1,1.49.76v-.7A6.14,6.14,0,0,0,32.56,8.61Z"/>
    <path class="cls-14"
          d="M37.3,19.8q-2.4,0-2.9-2a7.3,7.3,0,0,1-.69.79,4.53,4.53,0,0,1-2,1.16,5.11,5.11,0,0,1-1.37.17A5.54,5.54,0,0,1,28,19.5a5.46,5.46,0,0,1-1.85-1.35A6.54,6.54,0,0,1,24.94,16a7.63,7.63,0,0,1-.44-2.31c0,.08,0,.15,0,.23a7.91,7.91,0,0,0,.46,2.79,6.54,6.54,0,0,0,1.25,2.11A5.46,5.46,0,0,0,28,20.2a5.54,5.54,0,0,0,2.29.47,5.11,5.11,0,0,0,1.38-.17,4.53,4.53,0,0,0,2-1.16,7.3,7.3,0,0,0,.69-.79q.5,2,2.9,2l.47-1.75-.18,0Z"/>
    <path class="cls-14"
          d="M47.47,8.54a5.59,5.59,0,0,0-1.4-.16,4.14,4.14,0,0,0-1.64.32,3.68,3.68,0,0,0-1.31.94,4.43,4.43,0,0,0-.86,1.49,5.92,5.92,0,0,0-.31,2c0,.12,0,.23,0,.35a5.75,5.75,0,0,1,.29-1.65,4.43,4.43,0,0,1,.86-1.49,3.68,3.68,0,0,1,1.31-.94,4.14,4.14,0,0,1,1.64-.32,5.59,5.59,0,0,1,1.4.16,7.51,7.51,0,0,1,1.35.51l.68-1.9-.22-.09L48.82,9A7.51,7.51,0,0,0,47.47,8.54Z"/>
    <path class="cls-14"
          d="M47.95,19.72a8.58,8.58,0,0,1-2.17.25,6.15,6.15,0,0,1-2.52-.5,5.56,5.56,0,0,1-1.93-1.4,6.35,6.35,0,0,1-1.24-2.15,8.14,8.14,0,0,1-.41-2.39c0,.12,0,.22,0,.34a8.27,8.27,0,0,0,.44,2.75,6.35,6.35,0,0,0,1.24,2.15,5.56,5.56,0,0,0,1.93,1.4,6.15,6.15,0,0,0,2.52.5,8.58,8.58,0,0,0,2.17-.25,8.07,8.07,0,0,0,1.75-.67l-.22-.6A8.13,8.13,0,0,1,47.95,19.72Z"/>
    <rect class="cls-14" x="50.57" y="9.1" width="2.25" height="0.7"/>
    <rect class="cls-14" x="55.07" y="9.1" width="3.6" height="0.7"/>
    <path class="cls-14"
          d="M58.65,19.69a5.51,5.51,0,0,1-1.78.29,3.76,3.76,0,0,1-3-1.22,5.18,5.18,0,0,1-1.09-3.55v.7a5.18,5.18,0,0,0,1.09,3.55,3.76,3.76,0,0,0,3,1.22,5.51,5.51,0,0,0,1.78-.29A7.08,7.08,0,0,0,60,19.8l-.21-.6A7.59,7.59,0,0,1,58.65,19.69Z"/>
    <rect class="cls-14" x="62.25" y="19.67" width="2.25" height="0.7"/>
    <path class="cls-14"
          d="M64.52,4a1.55,1.55,0,0,1-1.15.42A1.51,1.51,0,0,1,62.26,4a1.52,1.52,0,0,1-.41-.72,1.86,1.86,0,0,0-.05.31,1.51,1.51,0,0,0,.46,1.11,1.51,1.51,0,0,0,1.11.46,1.55,1.55,0,0,0,1.15-.42,1.55,1.55,0,0,0,.43-1.15,1.61,1.61,0,0,0-.05-.39A1.46,1.46,0,0,1,64.52,4Z"/>
    <path class="cls-14"
          d="M77.84,11.32A4.75,4.75,0,0,0,77,9.8a4.35,4.35,0,0,0-1.32-1A3.62,3.62,0,0,0,74,8.38a3.81,3.81,0,0,0-3.08,1.3,5.16,5.16,0,0,0-1.1,3.45c0,.11,0,.21,0,.32a5,5,0,0,1,1.07-3.07A3.81,3.81,0,0,1,74,9.08a3.62,3.62,0,0,1,1.66.39,4.35,4.35,0,0,1,1.32,1A4.75,4.75,0,0,1,77.84,12a5.41,5.41,0,0,1,.29,1.53c0-.13,0-.25,0-.38A5.46,5.46,0,0,0,77.84,11.32Z"/>
    <path class="cls-14"
          d="M80,15.94A6.32,6.32,0,0,1,78.6,18.1a6,6,0,0,1-2.06,1.39A6.68,6.68,0,0,1,74,20a6.59,6.59,0,0,1-2.59-.5,6.06,6.06,0,0,1-2.05-1.4A6.47,6.47,0,0,1,68,15.92a7.37,7.37,0,0,1-.47-2.4c0,.12,0,.23,0,.35A7.51,7.51,0,0,0,68,16.63a6.47,6.47,0,0,0,1.35,2.15,6.06,6.06,0,0,0,2.05,1.4,6.59,6.59,0,0,0,2.59.5,6.68,6.68,0,0,0,2.56-.49A6,6,0,0,0,78.6,18.8,6.32,6.32,0,0,0,80,16.64a7.75,7.75,0,0,0,.49-2.81c0-.12,0-.23,0-.34A7.58,7.58,0,0,1,80,15.94Z"/>
    <rect class="cls-14" x="83.45" y="19.67" width="2.25" height="0.7"/>
    <path class="cls-14"
          d="M92.12,11.45a3.6,3.6,0,0,0-.65-2.26,2.2,2.2,0,0,0-1.85-.84,3.1,3.1,0,0,0-1.12.21,4.61,4.61,0,0,0-1.06.59,5.84,5.84,0,0,0-.95.88,8.65,8.65,0,0,0-.79,1v.7a8.65,8.65,0,0,1,.79-1,5.84,5.84,0,0,1,.95-.88,4.61,4.61,0,0,1,1.06-.59A3.1,3.1,0,0,1,89.62,9a2.2,2.2,0,0,1,1.85.84,3.6,3.6,0,0,1,.65,2.26Z"/>
    <rect class="cls-14" x="92.12" y="19.67" width="2.25" height="0.7"/>
    <path class="cls-14"
          d="M104.51,8.5a6.87,6.87,0,0,0-1.91-.25,3.17,3.17,0,0,0-2,.52,1.47,1.47,0,0,0-.67,1.15,1.37,1.37,0,0,0,.05.37,1.69,1.69,0,0,1,.62-.82,3.17,3.17,0,0,1,2-.52,6.87,6.87,0,0,1,1.91.25,6.61,6.61,0,0,1,1.54.65L106.67,8l-.21-.09L106,9.15A6.61,6.61,0,0,0,104.51,8.5Z"/>
    <path class="cls-14"
          d="M101.4,14.52q1,.35,1.63.64a4.55,4.55,0,0,1,1,.59,1.51,1.51,0,0,1,.6.94,1.32,1.32,0,0,0,0-.32,1.79,1.79,0,0,0-.14-.7A1.7,1.7,0,0,0,104,15a4.55,4.55,0,0,0-1-.59q-.62-.29-1.62-.64a7.38,7.38,0,0,1-2.75-1.49,3,3,0,0,1-.87-2c0,.09,0,.18,0,.28a3.15,3.15,0,0,0,.9,2.39A7.38,7.38,0,0,0,101.4,14.52Z"/>
    <path class="cls-14"
          d="M106.57,17.78A3.48,3.48,0,0,1,105.52,19a5,5,0,0,1-1.64.75,8.13,8.13,0,0,1-2.14.26,8.79,8.79,0,0,1-2.67-.37,6.48,6.48,0,0,1-1.68-.81l-.27.53a6.28,6.28,0,0,0,2,1,8.79,8.79,0,0,0,2.67.38,8.13,8.13,0,0,0,2.14-.26,5,5,0,0,0,1.64-.75,3.48,3.48,0,0,0,1.05-1.19,3.28,3.28,0,0,0,.38-1.58c0-.14,0-.28,0-.41A3.22,3.22,0,0,1,106.57,17.78Z"/>
</svg>
