<svg id="Layer_1" data-name="Layer 1" xmlns="http://www.w3.org/2000/svg" xmlns:xlink="http://www.w3.org/1999/xlink" viewBox="0 0 49.06 51.57"><defs><style>.cls-1{fill:url(#linear-gradient);}.cls-2{fill:url(#linear-gradient-2);}.cls-3{fill:url(#linear-gradient-3);}.cls-4{fill:url(#linear-gradient-4);}.cls-5{fill:url(#linear-gradient-5);}.cls-6{fill:url(#linear-gradient-6);}.cls-7{fill:gray;}</style><linearGradient id="linear-gradient" x1="24.54" y1="52.4" x2="24.54" y2="2.66" gradientTransform="matrix(1, 0, 0, -1, 0, 52)" gradientUnits="userSpaceOnUse"><stop offset="0" stop-color="#ececec"/><stop offset="0.33" stop-color="#e1e1e1"/><stop offset="0.78" stop-color="#d6d6d6"/><stop offset="1" stop-color="#a8a8a8"/></linearGradient><linearGradient id="linear-gradient-2" x1="27.13" y1="28.03" x2="4.77" y2="24.21" gradientTransform="matrix(1, 0, 0, -1, 0, 52)" gradientUnits="userSpaceOnUse"><stop offset="0" stop-color="#ececec"/><stop offset="0.15" stop-color="#e1e1e1"/><stop offset="0.36" stop-color="#d6d6d6"/><stop offset="0.65" stop-color="#a8a8a8"/><stop offset="0.79" stop-color="#a5a5a5"/><stop offset="0.88" stop-color="#9d9d9d"/><stop offset="0.95" stop-color="#8f8f8f"/><stop offset="1" stop-color="#7f7f7f"/></linearGradient><linearGradient id="linear-gradient-3" x1="16.23" y1="36.35" x2="40.96" y2="18.09" gradientTransform="matrix(1, 0, 0, -1, 0, 52)" gradientUnits="userSpaceOnUse"><stop offset="0.65" stop-color="#a8a8a8"/><stop offset="0.79" stop-color="#a5a5a5"/><stop offset="0.88" stop-color="#9d9d9d"/><stop offset="0.95" stop-color="#8f8f8f"/><stop offset="1" stop-color="#7f7f7f"/></linearGradient><linearGradient id="linear-gradient-4" x1="24.52" y1="29.54" x2="24.52" y2="4.38" gradientTransform="matrix(1, 0, 0, -1, 0, 52)" gradientUnits="userSpaceOnUse"><stop offset="0" stop-color="#f3f3f3"/><stop offset="0.19" stop-color="#e9e9e9"/><stop offset="0.49" stop-color="#dedede"/><stop offset="0.84" stop-color="#afafaf"/><stop offset="1" stop-color="#979797"/></linearGradient><linearGradient id="linear-gradient-5" x1="24.52" y1="28.54" x2="24.52" y2="3.18" gradientTransform="matrix(1, 0, 0, -1, 0, 52)" gradientUnits="userSpaceOnUse"><stop offset="0" stop-color="#f3f3f3"/><stop offset="0.14" stop-color="#e9e9e9"/><stop offset="0.36" stop-color="#dedede"/><stop offset="0.65" stop-color="#afafaf"/><stop offset="0.76" stop-color="#acacac"/><stop offset="0.84" stop-color="#a4a4a4"/><stop offset="0.9" stop-color="#969696"/><stop offset="0.95" stop-color="#828282"/><stop offset="0.99" stop-color="#686868"/><stop offset="1" stop-color="#646464"/></linearGradient><linearGradient id="linear-gradient-6" x1="43.02" y1="26.63" x2="43.02" y2="1.27" gradientTransform="matrix(1, 0, 0, -1, 0, 52)" gradientUnits="userSpaceOnUse"><stop offset="0" stop-color="#f3f3f3"/><stop offset="0.31" stop-color="#e9e9e9"/><stop offset="0.78" stop-color="#dedede"/><stop offset="1" stop-color="#afafaf"/></linearGradient></defs><title>10c-cents</title><circle class="cls-1" cx="24.54" cy="24.52" r="24.52"/><path class="cls-2" d="M24.54,5.2V3.47a21.06,21.06,0,0,0,0,42.11V43.85a19.32,19.32,0,1,1,0-38.65Z"/><path class="cls-3" d="M24.54,3.47V5.2a19.33,19.33,0,0,1,0,38.65v1.73a21.06,21.06,0,0,0,.92-42.11Z"/><path class="cls-4" d="M24.54,49A24.52,24.52,0,0,1,0,24.81v.28a24.52,24.52,0,0,0,49,2q0-1,0-2v-.28A24.52,24.52,0,0,1,24.54,49Z"/><path class="cls-5" d="M24.54,49.61A24.52,24.52,0,0,1,0,25.57v.49a24.52,24.52,0,1,0,49,2q0-1,0-2v-.49A24.52,24.52,0,0,1,24.54,49.61Z"/><path class="cls-6" d="M49,25.57A24.51,24.51,0,0,1,37,46.22v1A24.51,24.51,0,0,0,49,26.06Z"/><path d="M11.55,24.28l.06-.64a8.79,8.79,0,0,0,2-.17.51.51,0,0,0,.23-.17,3.19,3.19,0,0,0,.31-1q.29-1.44,1-5.53.55-3.12.58-3.41l-.17.09-2.19,1-1,.47-.17-.14.31-1.24L14.09,13q.71-.19,1.68-.55t1.71-.72a4.53,4.53,0,0,0,.58-.32l.34.26q-.07.31-.61,3.24l-.91,5q-.4,2.22-.45,2.67a3.14,3.14,0,0,0,0,.33.56.56,0,0,0,.17.45,1.44,1.44,0,0,0,.77.18q.87.06,1.57.06l-.11.64L17,24.18H13Z"/><path d="M21,20.09A12.8,12.8,0,0,1,22.35,14q1.37-2.57,3.67-2.57a3.05,3.05,0,0,1,1.55.38,2.87,2.87,0,0,1,1,1,4.6,4.6,0,0,1,.56,1.47,8.62,8.62,0,0,1,.19,1.81,13.38,13.38,0,0,1-.65,4.1,7.82,7.82,0,0,1-2.16,3.6,3.41,3.41,0,0,1-2.3.84,2.94,2.94,0,0,1-1.67-.48,3.28,3.28,0,0,1-1.15-1.45A6.45,6.45,0,0,1,21,20.09Zm2.14,2.08a2.16,2.16,0,0,0,.31,1.32,1,1,0,0,0,.79.4,1.22,1.22,0,0,0,1-.52,14.2,14.2,0,0,0,1.38-4.68,27.66,27.66,0,0,0,.55-4.79,2.06,2.06,0,0,0-.34-1.31,1.05,1.05,0,0,0-.84-.41,1.08,1.08,0,0,0-.73.28A3.55,3.55,0,0,0,24.45,14a27.79,27.79,0,0,0-.82,3.54,27.3,27.3,0,0,0-.51,4.63Z"/><path d="M37,22l.21.59q-1.18.82-1.9,1.22a6.85,6.85,0,0,1-1.37.6,4.18,4.18,0,0,1-1.2.2,2.73,2.73,0,0,1-1.3-.31,2,2,0,0,1-.86-.9,3,3,0,0,1-.28-1.34,8.79,8.79,0,0,1,.35-2.41,5.58,5.58,0,0,1,.79-1.81,4.59,4.59,0,0,1,1.26-1.08l1.58-1a3.48,3.48,0,0,1,1.58-.37,4.07,4.07,0,0,1,.92.11,6.71,6.71,0,0,1,1.08.37,7.63,7.63,0,0,0-.31,1q-.22.88-.33,1.6h-.62a6,6,0,0,0,.08-1v-.28a3,3,0,0,0-.85-.51,2.51,2.51,0,0,0-.91-.17,1.75,1.75,0,0,0-.9.22,2.12,2.12,0,0,0-.7.78,5.07,5.07,0,0,0-.43,1.18,11.47,11.47,0,0,0-.43,2.76,2,2,0,0,0,.4,1.35,1.28,1.28,0,0,0,1,.46A4,4,0,0,0,35.42,23,6.52,6.52,0,0,0,37,22Z"/><path class="cls-7" d="M11.55,23.93l.06-.64a8.79,8.79,0,0,0,2-.17.51.51,0,0,0,.23-.17,3.19,3.19,0,0,0,.31-1q.29-1.44,1-5.53.55-3.12.58-3.41l-.17.09-2.19,1-1,.47-.17-.14.31-1.24,1.61-.44q.71-.19,1.68-.55t1.71-.72a4.53,4.53,0,0,0,.58-.32l.34.26q-.07.31-.61,3.24l-.91,5q-.4,2.22-.45,2.67a3.14,3.14,0,0,0,0,.33.56.56,0,0,0,.17.45,1.44,1.44,0,0,0,.77.18q.87.06,1.57.06l-.11.64L17,23.93H11.55Z"/><path class="cls-7" d="M21,19.74a12.8,12.8,0,0,1,1.37-6.05q1.33-2.61,3.63-2.61a3.05,3.05,0,0,1,1.55.38,2.87,2.87,0,0,1,1,1,4.6,4.6,0,0,1,.56,1.47,8.62,8.62,0,0,1,.19,1.81,13.38,13.38,0,0,1-.65,4.1,7.82,7.82,0,0,1-2.16,3.6,3.41,3.41,0,0,1-2.3.84,2.94,2.94,0,0,1-1.67-.48,3.28,3.28,0,0,1-1.15-1.45A6.45,6.45,0,0,1,21,19.74Zm2.14,2.08a2.16,2.16,0,0,0,.31,1.32,1,1,0,0,0,.79.4,1.22,1.22,0,0,0,1-.52,14.2,14.2,0,0,0,1.38-4.68,27.66,27.66,0,0,0,.55-4.79,2.06,2.06,0,0,0-.34-1.31,1.05,1.05,0,0,0-.84-.41,1.08,1.08,0,0,0-.73.28,3.55,3.55,0,0,0-.83,1.53,27.79,27.79,0,0,0-.82,3.54,27.3,27.3,0,0,0-.51,4.64Z"/><path class="cls-7" d="M37,21.66l.21.59q-1.18.82-1.9,1.22a6.85,6.85,0,0,1-1.37.6,4.18,4.18,0,0,1-1.2.2,2.73,2.73,0,0,1-1.3-.31,2,2,0,0,1-.86-.9,3,3,0,0,1-.28-1.34,8.79,8.79,0,0,1,.35-2.41,5.58,5.58,0,0,1,.79-1.81,4.59,4.59,0,0,1,1.26-1.08l1.58-1a3.48,3.48,0,0,1,1.58-.37,4.07,4.07,0,0,1,.92.11,6.71,6.71,0,0,1,1.08.37,7.63,7.63,0,0,0-.31,1q-.22.88-.33,1.6h-.62a6,6,0,0,0,.08-1v-.28a3,3,0,0,0-.85-.51,2.51,2.51,0,0,0-.91-.17,1.75,1.75,0,0,0-.9.22,2.12,2.12,0,0,0-.7.78,5.07,5.07,0,0,0-.43,1.18,11.47,11.47,0,0,0-.43,2.76,2,2,0,0,0,.4,1.35,1.28,1.28,0,0,0,1,.46,4,4,0,0,0,1.55-.38A6.52,6.52,0,0,0,37,21.66Z"/><path d="M13.94,34.85l-.12.41a7.54,7.54,0,0,1-.91.51,4.82,4.82,0,0,1-.87.34,4.12,4.12,0,0,1-1.09.14A3.44,3.44,0,0,1,9.68,36a2.47,2.47,0,0,1-.86-.55,2.08,2.08,0,0,1-.48-.75,3.53,3.53,0,0,1-.2-1.22,5.39,5.39,0,0,1,.3-1.78,4.77,4.77,0,0,1,.7-1.14,6.5,6.5,0,0,1,1.24-1.08A6,6,0,0,1,11.51,29a3.62,3.62,0,0,1,1.13-.17,4.66,4.66,0,0,1,1.18.17,2.5,2.5,0,0,1,.81.33,9.36,9.36,0,0,0-.4,1.72h-.36v-.87a.3.3,0,0,0,0-.17.64.64,0,0,0-.21-.18,4,4,0,0,0-.5-.22,3.2,3.2,0,0,0-.92-.12,2.65,2.65,0,0,0-1,.16,2.17,2.17,0,0,0-.71.47,2.63,2.63,0,0,0-.54.83A4.67,4.67,0,0,0,9.66,32a8.73,8.73,0,0,0-.1,1.42,2.68,2.68,0,0,0,.22,1.12,1.54,1.54,0,0,0,.68.74,2.23,2.23,0,0,0,1.08.25,3.29,3.29,0,0,0,.84-.11,4.09,4.09,0,0,0,.72-.25l.73-.43Z"/><path d="M14.68,36.07l.05-.32a1.82,1.82,0,0,0,.61-.15.28.28,0,0,0,.09-.12,10.58,10.58,0,0,0,.31-1.4l.41-2.31q.35-2,.35-2.19a.21.21,0,0,0,0-.15.52.52,0,0,0-.28-.1l-.67-.06.07-.33h1.66L19,29h1.21a5,5,0,0,1,.6,0l0,.06q-.06.27-.21,1.16a1.49,1.49,0,0,1-.06.43h-.35V29.9a.51.51,0,0,0,0-.19.18.18,0,0,0-.08-.08.72.72,0,0,0-.24-.08l-.58-.07H18.8a6.45,6.45,0,0,0-1,.06l-.36,1.8q-.07.33-.15.79h2.43v.06l-.13.49H17.22L17,34.14l-.18,1a3.38,3.38,0,0,0,0,.34,8.49,8.49,0,0,0,1.19.06h.67l.74-.09a.54.54,0,0,0,.2-.08.4.4,0,0,0,.12-.15A6.68,6.68,0,0,1,20,34.3h.38l-.15.69L20,36h0a4.58,4.58,0,0,1-.64,0h-3Q15.36,36,14.68,36.07Z"/><path d="M20.93,36.07V35.7a4.85,4.85,0,0,0,.61,0,.36.36,0,0,0,.16-.12,1.75,1.75,0,0,0,.16-.52q.25-1.15.39-1.84.49-2.55.62-3.29a2.09,2.09,0,0,0-.33-.42.54.54,0,0,0-.22-.09l-.72-.08V29h2.23l.33.57.51.92,1.43,2.45q.57,1,1,1.68.83-4.49.83-5a.21.21,0,0,0-.16-.22,3.66,3.66,0,0,0-.77-.08l0-.34L28,29h1.53l0,.36h-.44a.47.47,0,0,0-.24.07.26.26,0,0,0-.1.1,12.16,12.16,0,0,0-.42,1.68q-.32,1.5-.65,3.29-.12.65-.26,1.67h-.9l-3.23-5.64q-.32,1.69-.39,2.11-.35,2.08-.38,2.38a4,4,0,0,0,0,.41.33.33,0,0,0,0,.2.35.35,0,0,0,.19.1,3.53,3.53,0,0,0,.68,0l-.06.37H21.88Z"/><path d="M30.13,36.07v-.36a3,3,0,0,0,.79,0,.28.28,0,0,0,.13-.09,1.06,1.06,0,0,0,.13-.39q.17-.81.49-2.63t.52-3h-.27a4.17,4.17,0,0,0-1.49.13,2.44,2.44,0,0,0-.4,1.12h-.38q.14-.74.26-1.73L30,29l1.3,0H35q.61,0,1,0h0q-.22,1.11-.26,1.33a3.27,3.27,0,0,0,0,.4h-.38a6.8,6.8,0,0,0,0-.79.63.63,0,0,0,0-.32.32.32,0,0,0-.18-.09,6.29,6.29,0,0,0-1,0h-.56l-.45,2.34q-.2,1-.4,2.29-.14.83-.16,1.06t0,.19a.27.27,0,0,0,0,.17.29.29,0,0,0,.17.08,5.09,5.09,0,0,0,.77,0V36H31.82Z"/><path d="M35.88,35.69q.06-.21.15-.76t.11-.82h.34V35a1.5,1.5,0,0,0,.61.46,2.17,2.17,0,0,0,1,.22,1.6,1.6,0,0,0,1.19-.37,1.27,1.27,0,0,0,.36-.92,1.53,1.53,0,0,0-.06-.46.72.72,0,0,0-.2-.32A1.08,1.08,0,0,0,39,33.4l-.73-.24A3.18,3.18,0,0,1,37,32.63a1.55,1.55,0,0,1-.48-1.23,2.39,2.39,0,0,1,.82-1.79,2.83,2.83,0,0,1,2-.77,3.05,3.05,0,0,1,.86.12,2.51,2.51,0,0,1,.73.35q-.1.37-.15.67t-.13.86h-.33V30a1.11,1.11,0,0,0-.23-.24,1.71,1.71,0,0,0-.47-.24,2,2,0,0,0-.65-.1,1.65,1.65,0,0,0-.79.18,1.18,1.18,0,0,0-.5.48,1.57,1.57,0,0,0-.17.74,1.1,1.1,0,0,0,.15.61,1.3,1.3,0,0,0,.66.38l1.06.27a4.54,4.54,0,0,1,.7.26,1,1,0,0,1,.47.48,1.67,1.67,0,0,1,.17.77A2.25,2.25,0,0,1,40.27,35a3.27,3.27,0,0,1-1.11,1,3,3,0,0,1-1.43.34,3.43,3.43,0,0,1-1-.15A2.59,2.59,0,0,1,35.88,35.69Z"/><path class="cls-7" d="M13.94,34.51l-.12.41a7.54,7.54,0,0,1-.91.51,4.82,4.82,0,0,1-.87.34,4.12,4.12,0,0,1-1.09.14,3.44,3.44,0,0,1-1.28-.21,2.47,2.47,0,0,1-.86-.55,2.08,2.08,0,0,1-.48-.75,3.53,3.53,0,0,1-.2-1.22,5.39,5.39,0,0,1,.3-1.78,4.77,4.77,0,0,1,.7-1.14,6.5,6.5,0,0,1,1.24-1.08,6,6,0,0,1,1.13-.52,3.62,3.62,0,0,1,1.13-.17,4.66,4.66,0,0,1,1.19.15,2.5,2.5,0,0,1,.81.33,9.36,9.36,0,0,0-.4,1.72h-.36v-.87a.3.3,0,0,0,0-.17.64.64,0,0,0-.21-.18,4,4,0,0,0-.5-.22,3.2,3.2,0,0,0-.92-.12,2.65,2.65,0,0,0-1,.16,2.17,2.17,0,0,0-.71.47,2.63,2.63,0,0,0-.54.83,4.67,4.67,0,0,0-.33,1.11,8.73,8.73,0,0,0-.1,1.42,2.68,2.68,0,0,0,.22,1.12,1.54,1.54,0,0,0,.68.74,2.23,2.23,0,0,0,1.08.25,3.29,3.29,0,0,0,.84-.11,4.09,4.09,0,0,0,.72-.25l.73-.43Z"/><path class="cls-7" d="M14.68,35.72l.05-.32a1.82,1.82,0,0,0,.61-.15.28.28,0,0,0,.09-.12,10.58,10.58,0,0,0,.31-1.4l.41-2.31q.35-2,.35-2.19a.21.21,0,0,0,0-.15.52.52,0,0,0-.28-.1l-.67-.06.07-.33h4.72a5,5,0,0,1,.6,0l0,.06q-.06.27-.21,1.16a1.49,1.49,0,0,1-.06.43h-.35v-.73a.51.51,0,0,0,0-.19.18.18,0,0,0-.08-.08.72.72,0,0,0-.27,0l-.58-.07h-.56a6.45,6.45,0,0,0-1,.06L17.53,31q-.07.33-.15.79h2.43v.06l-.13.49H17.31L17,33.79l-.18,1a3.38,3.38,0,0,0,0,.34,8.49,8.49,0,0,0,1.19.06h.67l.74-.09a.54.54,0,0,0,.2-.08.4.4,0,0,0,.12-.15A6.68,6.68,0,0,1,20,34h.38l-.15.69-.18,1,0,.06a4.58,4.58,0,0,1-.64,0h-3Q15.36,35.67,14.68,35.72Z"/><path class="cls-7" d="M20.93,35.72v-.37a4.85,4.85,0,0,0,.61,0,.36.36,0,0,0,.16-.12,1.75,1.75,0,0,0,.16-.52q.25-1.15.39-1.84.49-2.55.62-3.29a2.09,2.09,0,0,0-.33-.42.54.54,0,0,0-.22-.09l-.72-.08V28.6h2.23l.33.57.51.92,1.43,2.45q.57,1,1,1.68.83-4.49.83-5a.21.21,0,0,0-.16-.22,3.66,3.66,0,0,0-.77-.08l0-.34H29.5l0,.36H29a.47.47,0,0,0-.24.07.26.26,0,0,0-.1.1,12.16,12.16,0,0,0-.42,1.68q-.32,1.5-.65,3.29-.12.65-.26,1.67h-.9l-3.23-5.64q-.32,1.69-.39,2.11-.35,2.08-.38,2.38a4,4,0,0,0,0,.41.33.33,0,0,0,0,.2.35.35,0,0,0,.19.1,3.53,3.53,0,0,0,.68,0l-.06.37H21.83Z"/><path class="cls-7" d="M30.13,35.72v-.36a3,3,0,0,0,.79,0,.28.28,0,0,0,.13-.09,1.06,1.06,0,0,0,.13-.39q.17-.81.49-2.63t.52-3h-.27a4.17,4.17,0,0,0-1.49.13A2.44,2.44,0,0,0,30,30.5h-.38q.14-.74.26-1.73l.06-.06,1.3,0h3.65A6.41,6.41,0,0,0,36,28.69l.07.09q-.22,1.11-.26,1.33a3.27,3.27,0,0,0,0,.4h-.38a6.8,6.8,0,0,0,0-.79.63.63,0,0,0,0-.32.32.32,0,0,0-.18-.09,6.29,6.29,0,0,0-1,0h-.56l-.45,2.34q-.2,1-.4,2.29-.14.83-.16,1.06t0,.19a.27.27,0,0,0,0,.17.29.29,0,0,0,.17.08,5.09,5.09,0,0,0,.77,0v.36H31.85Z"/><path class="cls-7" d="M35.88,35.34q.06-.21.15-.76t.11-.82h.34v.89a1.5,1.5,0,0,0,.61.46,2.17,2.17,0,0,0,1,.22A1.6,1.6,0,0,0,39.24,35a1.27,1.27,0,0,0,.36-.92,1.53,1.53,0,0,0-.06-.46.72.72,0,0,0-.2-.32,1.08,1.08,0,0,0-.35-.21l-.73-.24A3.18,3.18,0,0,1,37,32.28a1.55,1.55,0,0,1-.5-1.28,2.39,2.39,0,0,1,.82-1.79,2.83,2.83,0,0,1,2-.77,3.05,3.05,0,0,1,.86.12,2.51,2.51,0,0,1,.73.35q-.1.37-.15.67t-.13.86h-.33V29.6a1.11,1.11,0,0,0-.23-.24,1.71,1.71,0,0,0-.47-.24A2,2,0,0,0,39,29a1.65,1.65,0,0,0-.79.18,1.18,1.18,0,0,0-.5.48,1.57,1.57,0,0,0-.17.74,1.1,1.1,0,0,0,.15.61,1.3,1.3,0,0,0,.66.38l1.06.27a4.54,4.54,0,0,1,.7.26,1,1,0,0,1,.47.48,1.67,1.67,0,0,1,.17.77,2.25,2.25,0,0,1-.47,1.37,3.27,3.27,0,0,1-1.11,1,3,3,0,0,1-1.43.34,3.43,3.43,0,0,1-1-.15A2.59,2.59,0,0,1,35.88,35.34Z"/></svg>