<svg id="Layer_1" data-name="Layer 1" xmlns="http://www.w3.org/2000/svg" xmlns:xlink="http://www.w3.org/1999/xlink" viewBox="0 0 61.54 63.47"><defs><style>.cls-1{fill:url(#linear-gradient);}.cls-2{fill:url(#linear-gradient-2);}.cls-3{fill:url(#linear-gradient-3);}.cls-4{fill:url(#linear-gradient-4);}.cls-5{fill:url(#linear-gradient-5);}.cls-6{fill:url(#linear-gradient-6);}.cls-7{fill:#6e3500;}.cls-8{fill:#b95a00;}</style><linearGradient id="linear-gradient" x1="30.77" y1="-0.51" x2="30.77" y2="61.91" gradientUnits="userSpaceOnUse"><stop offset="0" stop-color="#fbda6c"/><stop offset="0.39" stop-color="#f9ca61"/><stop offset="0.78" stop-color="#f7bf59"/><stop offset="1" stop-color="#ed7f22"/></linearGradient><linearGradient id="linear-gradient-2" x1="34.01" y1="30.03" x2="5.95" y2="34.81" gradientUnits="userSpaceOnUse"><stop offset="0" stop-color="#fbdc75"/><stop offset="0.19" stop-color="#f9ca64"/><stop offset="0.36" stop-color="#f7bf59"/><stop offset="0.65" stop-color="#ed7f22"/><stop offset="0.77" stop-color="#ea7d22"/><stop offset="0.85" stop-color="#e37923"/><stop offset="0.92" stop-color="#ce6c24"/><stop offset="1" stop-color="#b05925"/></linearGradient><linearGradient id="linear-gradient-3" x1="20.23" y1="19.78" x2="51.26" y2="42.69" gradientUnits="userSpaceOnUse"><stop offset="0.65" stop-color="#ed7f22"/><stop offset="0.77" stop-color="#ea7d22"/><stop offset="0.85" stop-color="#e27823"/><stop offset="0.91" stop-color="#d46f23"/><stop offset="0.97" stop-color="#c06324"/><stop offset="1" stop-color="#b05925"/></linearGradient><linearGradient id="linear-gradient-4" x1="30.77" y1="28.18" x2="30.77" y2="59.75" gradientUnits="userSpaceOnUse"><stop offset="0" stop-color="#fbdc75"/><stop offset="0.26" stop-color="#f9ca64"/><stop offset="0.49" stop-color="#f7bf59"/><stop offset="0.84" stop-color="#ed7f22"/><stop offset="1" stop-color="#b86d32"/></linearGradient><linearGradient id="linear-gradient-5" x1="30.77" y1="29.43" x2="30.77" y2="61.26" gradientUnits="userSpaceOnUse"><stop offset="0" stop-color="#fbdc75"/><stop offset="0.19" stop-color="#f9ca64"/><stop offset="0.36" stop-color="#f7bf59"/><stop offset="0.65" stop-color="#ed7f22"/><stop offset="0.75" stop-color="#ea7d22"/><stop offset="0.81" stop-color="#e27822"/><stop offset="0.87" stop-color="#d46f21"/><stop offset="0.91" stop-color="#c06221"/><stop offset="0.95" stop-color="#a55220"/><stop offset="0.99" stop-color="#853e1f"/><stop offset="1" stop-color="#7e391f"/></linearGradient><linearGradient id="linear-gradient-6" x1="53.95" y1="31.83" x2="53.95" y2="63.65" gradientUnits="userSpaceOnUse"><stop offset="0" stop-color="#fbdc75"/><stop offset="0.41" stop-color="#f9ca64"/><stop offset="0.78" stop-color="#f7bf59"/><stop offset="1" stop-color="#ed7f22"/></linearGradient></defs><title>1 doller</title><circle class="cls-1" cx="30.77" cy="30.77" r="30.77"/><path class="cls-2" d="M30.77,6.53V4.35a26.42,26.42,0,0,0,0,52.84V55a24.24,24.24,0,0,1,0-48.49Z"/><path class="cls-3" d="M30.77,4.35V6.53a24.24,24.24,0,1,1,0,48.49v2.18a26.42,26.42,0,1,0,0-52.84Z"/><path class="cls-4" d="M30.77,61.54A30.77,30.77,0,0,1,0,31.12c0,.12,0,.23,0,.35a30.77,30.77,0,1,0,61.54,0c0-.12,0-.23,0-.35A30.77,30.77,0,0,1,30.77,61.54Z"/><path class="cls-5" d="M30.77,62.25A30.76,30.76,0,0,1,0,32.09c0,.2,0,.4,0,.61a30.77,30.77,0,1,0,61.54,0c0-.2,0-.41,0-.61A30.76,30.76,0,0,1,30.77,62.25Z"/><path class="cls-6" d="M61.53,32.09A30.76,30.76,0,0,1,46.38,58q0,.61,0,1.23A30.75,30.75,0,0,0,61.54,32.7C61.54,32.49,61.53,32.29,61.53,32.09Z"/><path class="cls-7" d="M35.08,29.77H26.91v-1q.59-.26,1.19-.46T29.32,28V17.13l.09-1.39A6.6,6.6,0,0,1,28,16a11.16,11.16,0,0,1-1.46,0l-.12-.87a26.67,26.67,0,0,0,2.73-.9A17.18,17.18,0,0,0,31.92,13h.8V28q.59.14,1.18.34t1.18.46Z"/><path class="cls-8" d="M35.08,29.34H26.91v-1q.59-.26,1.19-.46t1.22-.34V16.69l.09-1.39a6.6,6.6,0,0,1-1.37.28,11.16,11.16,0,0,1-1.46,0l-.12-.87a26.67,26.67,0,0,0,2.73-.9,17.18,17.18,0,0,0,2.73-1.32h.8v15q.59.14,1.18.34t1.18.46Z"/><path class="cls-7" d="M10.66,43.67l.07-.38a2.68,2.68,0,0,1,.42-.17,3.24,3.24,0,0,1,.47-.11l1.19-5.63a2.83,2.83,0,0,1-.42-.12,1.85,1.85,0,0,1-.33-.16l.08-.38h1.58l.53,0,.53,0h.43a4.86,4.86,0,0,1,1.42.18,2.47,2.47,0,0,1,.94.51,1.92,1.92,0,0,1,.53.78,2.91,2.91,0,0,1,.16,1,6.48,6.48,0,0,1-.1,1.13,4.67,4.67,0,0,1-.33,1.08,4.36,4.36,0,0,1-.59,1,3.58,3.58,0,0,1-.88.78,4.41,4.41,0,0,1-1.21.52,5.94,5.94,0,0,1-1.57.19l-.35,0-.48,0-.51,0H10.66ZM15,37.27h-.34l-.3,0-1.22,5.76.34,0h.3a2.3,2.3,0,0,0,1.35-.38,2.94,2.94,0,0,0,.88-1,4.47,4.47,0,0,0,.48-1.34A7.49,7.49,0,0,0,16.61,39a3,3,0,0,0-.08-.73,1.25,1.25,0,0,0-.27-.53,1.17,1.17,0,0,0-.51-.32A2.43,2.43,0,0,0,15,37.27Z"/><path class="cls-7" d="M18.78,41a5.1,5.1,0,0,1,.28-1.71,4.1,4.1,0,0,1,.82-1.39,3.81,3.81,0,0,1,1.3-.93,4.25,4.25,0,0,1,1.74-.34,3.36,3.36,0,0,1,1.18.19,2.38,2.38,0,0,1,.87.56,2.36,2.36,0,0,1,.54.88,3.46,3.46,0,0,1,.18,1.16A5.32,5.32,0,0,1,25.46,41a4.21,4.21,0,0,1-.76,1.41,3.83,3.83,0,0,1-1.27,1,3.92,3.92,0,0,1-1.78.38,3.29,3.29,0,0,1-1.22-.21,2.57,2.57,0,0,1-.9-.59,2.49,2.49,0,0,1-.56-.89A3.22,3.22,0,0,1,18.78,41Zm1.69.19a2.45,2.45,0,0,0,.37,1.49,1.2,1.2,0,0,0,1,.49,1.4,1.4,0,0,0,1-.37,2.91,2.91,0,0,0,.68-.94,5.06,5.06,0,0,0,.39-1.28,8.1,8.1,0,0,0,.12-1.4,2.77,2.77,0,0,0-.3-1.4,1.07,1.07,0,0,0-1-.52,1.42,1.42,0,0,0-.7.17,2.05,2.05,0,0,0-.57.47,3.07,3.07,0,0,0-.44.69,5.14,5.14,0,0,0-.3.83,6.86,6.86,0,0,0-.24,1.76Z"/><path class="cls-7" d="M26.89,36.71h3.26l-.08.38a2.67,2.67,0,0,1-.49.18,3.6,3.6,0,0,1-.52.1L27.87,43h1.92l1-1.78h.42q0,.23,0,.54t-.08.65q0,.34-.11.67t-.13.58H25.42l.07-.38A4.23,4.23,0,0,1,26,43.1a2.8,2.8,0,0,1,.41-.1l1.19-5.63a2.74,2.74,0,0,1-.42-.11,1.16,1.16,0,0,1-.34-.18Z"/><path class="cls-7" d="M32.63,36.71h3.26l-.08.38a2.67,2.67,0,0,1-.49.18,3.6,3.6,0,0,1-.52.1L33.6,43h1.92l1-1.78H37q0,.23,0,.54t-.08.65q0,.34-.11.67t-.13.58H31.16l.07-.38a4.23,4.23,0,0,1,.48-.19,2.8,2.8,0,0,1,.41-.1l1.19-5.63a2.74,2.74,0,0,1-.42-.11,1.16,1.16,0,0,1-.34-.18Z"/><path class="cls-7" d="M39.17,43.67H36.7l.07-.38a2.8,2.8,0,0,1,.38-.17,2.58,2.58,0,0,1,.4-.11l3.94-6.41h.73L43.33,43a2,2,0,0,1,.37.12,1.84,1.84,0,0,1,.31.17l-.08.38H40.87l.07-.38a3.51,3.51,0,0,1,.44-.17l.44-.11-.24-1.58h-2.2L38.45,43a2.14,2.14,0,0,1,.42.1,1.81,1.81,0,0,1,.38.18Zm.56-2.89h1.78l-.28-1.9V38h0l-.38.87Z"/><path class="cls-7" d="M46.54,43l.38.13.31.15-.07.38H44.09l.07-.38a3.31,3.31,0,0,1,.46-.18L45,43l1.19-5.63a2.27,2.27,0,0,1-.76-.29l.08-.38h1.51l.53,0,.57,0h.55a2.59,2.59,0,0,1,1.64.43,1.47,1.47,0,0,1,.53,1.21,2.14,2.14,0,0,1-.47,1.35,2.42,2.42,0,0,1-.58.52,2.9,2.9,0,0,1-.8.35,10,10,0,0,0,.64,1.27L50.42,43l.42.32-.07.34H49.19l-.37-.33a7.92,7.92,0,0,1-.62-1.27,7.73,7.73,0,0,1-.41-1.42H47Zm1.72-5.73-.29,0-.24,0-.59,2.75h.58a1.56,1.56,0,0,0,.71-.15,1.43,1.43,0,0,0,.5-.41,1.84,1.84,0,0,0,.3-.6,2.5,2.5,0,0,0,.1-.71.86.86,0,0,0-.25-.72A1.28,1.28,0,0,0,48.26,37.27Z"/><path class="cls-8" d="M10.66,43.23l.07-.38a2.68,2.68,0,0,1,.42-.17,3.24,3.24,0,0,1,.47-.11l1.19-5.63a2.83,2.83,0,0,1-.42-.12,1.85,1.85,0,0,1-.33-.16l.08-.38h1.58l.53,0,.53,0h.43a4.86,4.86,0,0,1,1.42.18,2.47,2.47,0,0,1,.94.51,1.92,1.92,0,0,1,.53.78,2.91,2.91,0,0,1,.16,1,6.48,6.48,0,0,1-.1,1.13,4.67,4.67,0,0,1-.33,1.08,4.36,4.36,0,0,1-.59,1,3.58,3.58,0,0,1-.88.78,4.41,4.41,0,0,1-1.21.52,5.94,5.94,0,0,1-1.57.19l-.35,0-.48,0-.51,0H10.66ZM15,36.84h-.34l-.3,0-1.22,5.76.34,0h.3a2.3,2.3,0,0,0,1.35-.38,2.94,2.94,0,0,0,.88-1A4.47,4.47,0,0,0,16.46,40a7.49,7.49,0,0,0,.14-1.44,3,3,0,0,0-.08-.73,1.25,1.25,0,0,0-.27-.53,1.17,1.17,0,0,0-.51-.32A2.43,2.43,0,0,0,15,36.84Z"/><path class="cls-8" d="M18.78,40.54a5.1,5.1,0,0,1,.28-1.71,4.1,4.1,0,0,1,.82-1.39,3.81,3.81,0,0,1,1.3-.93,4.25,4.25,0,0,1,1.74-.34,3.36,3.36,0,0,1,1.18.19,2.38,2.38,0,0,1,.87.56,2.36,2.36,0,0,1,.54.88,3.46,3.46,0,0,1,.18,1.16,5.32,5.32,0,0,1-.25,1.61A4.21,4.21,0,0,1,24.71,42a3.83,3.83,0,0,1-1.27,1,3.92,3.92,0,0,1-1.78.38,3.29,3.29,0,0,1-1.22-.21,2.57,2.57,0,0,1-.9-.59,2.49,2.49,0,0,1-.56-.89A3.22,3.22,0,0,1,18.78,40.54Zm1.69.19a2.45,2.45,0,0,0,.37,1.49,1.2,1.2,0,0,0,1,.49,1.4,1.4,0,0,0,1-.37,2.91,2.91,0,0,0,.68-.94,5.06,5.06,0,0,0,.39-1.28,8.1,8.1,0,0,0,.12-1.4,2.77,2.77,0,0,0-.3-1.4,1.07,1.07,0,0,0-1-.52A1.42,1.42,0,0,0,22,37a2.05,2.05,0,0,0-.57.47,3.07,3.07,0,0,0-.44.69,5.14,5.14,0,0,0-.3.83,6.86,6.86,0,0,0-.24,1.76Z"/><path class="cls-8" d="M26.89,36.27h3.26l-.08.38a2.67,2.67,0,0,1-.49.18,3.6,3.6,0,0,1-.52.1l-1.19,5.65h1.92l1-1.78h.42q0,.23,0,.54t-.08.65q0,.34-.11.67t-.13.58H25.42l.07-.38a4.23,4.23,0,0,1,.48-.19,2.8,2.8,0,0,1,.41-.1l1.19-5.63a2.74,2.74,0,0,1-.42-.11,1.16,1.16,0,0,1-.34-.18Z"/><path class="cls-8" d="M32.63,36.27h3.26l-.08.38a2.67,2.67,0,0,1-.49.18,3.6,3.6,0,0,1-.52.1L33.6,42.58h1.92l1-1.78H37q0,.23,0,.54t-.08.65q0,.34-.11.67t-.13.58H31.16l.07-.38a4.23,4.23,0,0,1,.48-.19,2.8,2.8,0,0,1,.41-.1l1.19-5.63a2.74,2.74,0,0,1-.42-.11,1.16,1.16,0,0,1-.34-.18Z"/><path class="cls-8" d="M39.17,43.23H36.7l.07-.38a2.8,2.8,0,0,1,.38-.17,2.58,2.58,0,0,1,.4-.11l3.94-6.41h.73l1.12,6.41a2,2,0,0,1,.37.12,1.84,1.84,0,0,1,.31.17l-.08.38H40.87l.07-.38a3.51,3.51,0,0,1,.44-.17l.44-.11L41.59,41h-2.2l-.94,1.58a2.14,2.14,0,0,1,.42.1,1.81,1.81,0,0,1,.38.18Zm.56-2.89h1.78l-.28-1.9v-.85h0l-.38.87Z"/><path class="cls-8" d="M46.54,42.56l.38.13.31.15-.07.38H44.09l.07-.38a3.31,3.31,0,0,1,.46-.18l.42-.1,1.19-5.63a2.27,2.27,0,0,1-.76-.29l.08-.38h1.51l.53,0,.57,0h.55a2.59,2.59,0,0,1,1.64.43,1.47,1.47,0,0,1,.53,1.21,2.14,2.14,0,0,1-.47,1.35,2.42,2.42,0,0,1-.58.52A2.9,2.9,0,0,1,49,40a10,10,0,0,0,.64,1.27l.75,1.25.42.32-.07.34H49.19l-.37-.33a7.92,7.92,0,0,1-.62-1.27,7.73,7.73,0,0,1-.41-1.42H47Zm1.72-5.73-.29,0-.24,0-.59,2.75h.58a1.56,1.56,0,0,0,.71-.15,1.43,1.43,0,0,0,.5-.41,1.84,1.84,0,0,0,.3-.6,2.5,2.5,0,0,0,.1-.71.86.86,0,0,0-.25-.72A1.28,1.28,0,0,0,48.26,36.84Z"/></svg>