<svg id="Layer_1" data-name="Layer 1" xmlns="http://www.w3.org/2000/svg" xmlns:xlink="http://www.w3.org/1999/xlink" viewBox="0 0 64.7 66.72"><defs><style>.cls-1{fill:url(#linear-gradient);}.cls-2{fill:url(#linear-gradient-2);}.cls-3{fill:url(#linear-gradient-3);}.cls-4{fill:url(#linear-gradient-4);}.cls-5{fill:url(#linear-gradient-5);}.cls-6{fill:url(#linear-gradient-6);}.cls-7{fill:gray;}</style><linearGradient id="linear-gradient" x1="32.35" y1="-0.53" x2="32.35" y2="65.08" gradientUnits="userSpaceOnUse"><stop offset="0" stop-color="#ececec"/><stop offset="0.33" stop-color="#e1e1e1"/><stop offset="0.78" stop-color="#d6d6d6"/><stop offset="1" stop-color="#a8a8a8"/></linearGradient><linearGradient id="linear-gradient-2" x1="35.75" y1="31.57" x2="6.25" y2="36.6" gradientUnits="userSpaceOnUse"><stop offset="0" stop-color="#ececec"/><stop offset="0.15" stop-color="#e1e1e1"/><stop offset="0.36" stop-color="#d6d6d6"/><stop offset="0.65" stop-color="#a8a8a8"/><stop offset="0.79" stop-color="#a5a5a5"/><stop offset="0.88" stop-color="#9d9d9d"/><stop offset="0.95" stop-color="#8f8f8f"/><stop offset="1" stop-color="#7f7f7f"/></linearGradient><linearGradient id="linear-gradient-3" x1="21.26" y1="20.8" x2="53.89" y2="44.88" gradientUnits="userSpaceOnUse"><stop offset="0.65" stop-color="#a8a8a8"/><stop offset="0.79" stop-color="#a5a5a5"/><stop offset="0.88" stop-color="#9d9d9d"/><stop offset="0.95" stop-color="#8f8f8f"/><stop offset="1" stop-color="#7f7f7f"/></linearGradient><linearGradient id="linear-gradient-4" x1="32.35" y1="29.63" x2="32.35" y2="62.82" gradientUnits="userSpaceOnUse"><stop offset="0" stop-color="#f3f3f3"/><stop offset="0.19" stop-color="#e9e9e9"/><stop offset="0.49" stop-color="#dedede"/><stop offset="0.84" stop-color="#afafaf"/><stop offset="1" stop-color="#979797"/></linearGradient><linearGradient id="linear-gradient-5" x1="32.35" y1="30.94" x2="32.35" y2="64.4" gradientUnits="userSpaceOnUse"><stop offset="0" stop-color="#f3f3f3"/><stop offset="0.14" stop-color="#e9e9e9"/><stop offset="0.36" stop-color="#dedede"/><stop offset="0.65" stop-color="#afafaf"/><stop offset="0.76" stop-color="#acacac"/><stop offset="0.84" stop-color="#a4a4a4"/><stop offset="0.9" stop-color="#969696"/><stop offset="0.95" stop-color="#828282"/><stop offset="0.99" stop-color="#686868"/><stop offset="1" stop-color="#646464"/></linearGradient><linearGradient id="linear-gradient-6" x1="56.72" y1="33.46" x2="56.72" y2="66.92" gradientUnits="userSpaceOnUse"><stop offset="0" stop-color="#f3f3f3"/><stop offset="0.31" stop-color="#e9e9e9"/><stop offset="0.78" stop-color="#dedede"/><stop offset="1" stop-color="#afafaf"/></linearGradient></defs><title>20c-cents</title><circle class="cls-1" cx="32.35" cy="32.35" r="32.35"/><path class="cls-2" d="M32.35,6.86V4.57a27.78,27.78,0,0,0,0,55.55V57.84a25.49,25.49,0,0,1,0-51Z"/><path class="cls-3" d="M32.35,4.57V6.86a25.49,25.49,0,1,1,0,51v2.29a27.78,27.78,0,1,0,0-55.55Z"/><path class="cls-4" d="M32.35,64.7A32.34,32.34,0,0,1,0,32.72c0,.12,0,.25,0,.37a32.35,32.35,0,0,0,64.7,0c0-.12,0-.25,0-.37A32.34,32.34,0,0,1,32.35,64.7Z"/><path class="cls-5" d="M32.35,65.44A32.34,32.34,0,0,1,0,33.73c0,.21,0,.43,0,.64a32.35,32.35,0,1,0,64.7,0c0-.21,0-.43,0-.64A32.34,32.34,0,0,1,32.35,65.44Z"/><path class="cls-6" d="M64.68,33.73A32.34,32.34,0,0,1,48.76,61q0,.64,0,1.29a32.33,32.33,0,0,0,16-27.88C64.7,34.16,64.69,33.95,64.68,33.73Z"/><path d="M14.15,31.92l.1-.68,1.82-1.72q1.37-1.33,2.76-2.93A20.31,20.31,0,0,0,21,23.68a10.71,10.71,0,0,0,1.1-2.4,5.07,5.07,0,0,0,.21-1.38,2.71,2.71,0,0,0-.67-2,2.5,2.5,0,0,0-1.86-.68,3.09,3.09,0,0,0-1.33.26,2.75,2.75,0,0,0-1,.82,10.88,10.88,0,0,0-.92,1.53l-.74-.24,1.38-3.33a5.12,5.12,0,0,1,1.47-.93,5.6,5.6,0,0,1,2-.35,5.85,5.85,0,0,1,2.46.51A3.54,3.54,0,0,1,24.79,17a4.48,4.48,0,0,1,.55,2.25,5.07,5.07,0,0,1-.17,1.37,5.74,5.74,0,0,1-.59,1.32,12.69,12.69,0,0,1-1.37,1.8q-.65.76-1.76,1.84-2.68,2.6-3.85,3.68v.15h1.31l3.33,0q1.45,0,1.91-.05t1.07-.15l.19.18a9.49,9.49,0,0,0-.34.91q-.3,1-.47,1.7Q21,31.8,19.44,31.8q-.9,0-2.44,0Q15,31.92,14.15,31.92Z"/><path d="M27.65,26.41a16.89,16.89,0,0,1,1.81-8Q31.27,15,34.28,15a4,4,0,0,1,2,.5,3.79,3.79,0,0,1,1.35,1.28,6.07,6.07,0,0,1,.74,1.94,11.38,11.38,0,0,1,.25,2.39,17.65,17.65,0,0,1-.86,5.4A10.31,10.31,0,0,1,35,31.25a4.5,4.5,0,0,1-3,1.1,3.88,3.88,0,0,1-2.2-.63,4.32,4.32,0,0,1-1.51-1.91A8.51,8.51,0,0,1,27.65,26.41Zm2.82,2.74a2.85,2.85,0,0,0,.41,1.74,1.27,1.27,0,0,0,1,.52,1.61,1.61,0,0,0,1.37-.69q.9-1.22,1.82-6.18a36.48,36.48,0,0,0,.73-6.32,2.71,2.71,0,0,0-.45-1.73,1.39,1.39,0,0,0-1.11-.55,1.43,1.43,0,0,0-1,.36,4.68,4.68,0,0,0-1.09,2A36.66,36.66,0,0,0,31.15,23,36,36,0,0,0,30.47,29.14Z"/><path d="M48.81,28.94l.28.78q-1.56,1.08-2.51,1.61a9,9,0,0,1-1.81.79,5.51,5.51,0,0,1-1.59.26A3.61,3.61,0,0,1,41.47,32a2.58,2.58,0,0,1-1.14-1.18A4,4,0,0,1,40,29a11.6,11.6,0,0,1,.46-3.17,7.36,7.36,0,0,1,1-2.39A6.05,6.05,0,0,1,43.12,22l2.08-1.26a4.6,4.6,0,0,1,2.08-.48,5.36,5.36,0,0,1,1.22.14,8.86,8.86,0,0,1,1.42.49,10.06,10.06,0,0,0-.41,1.36q-.29,1.16-.44,2.11h-.82a8,8,0,0,0,.11-1.28c0-.08,0-.2,0-.36a3.94,3.94,0,0,0-1.11-.67,3.31,3.31,0,0,0-1.2-.22,2.31,2.31,0,0,0-1.19.28,2.8,2.8,0,0,0-.92,1,6.69,6.69,0,0,0-.57,1.55,15.13,15.13,0,0,0-.57,3.63,2.67,2.67,0,0,0,.53,1.79,1.69,1.69,0,0,0,1.34.61,5.28,5.28,0,0,0,2-.5A8.6,8.6,0,0,0,48.81,28.94Z"/><path class="cls-7" d="M14.15,31.46l.1-.68,1.82-1.72q1.37-1.33,2.76-2.93A20.31,20.31,0,0,0,21,23.22a10.71,10.71,0,0,0,1.1-2.4,5.07,5.07,0,0,0,.21-1.38,2.71,2.71,0,0,0-.67-2,2.5,2.5,0,0,0-1.86-.68,3.09,3.09,0,0,0-1.33.26,2.75,2.75,0,0,0-1,.82,10.88,10.88,0,0,0-.92,1.53l-.74-.24,1.38-3.33a5.12,5.12,0,0,1,1.47-.93,5.6,5.6,0,0,1,2-.35,5.85,5.85,0,0,1,2.46.51,3.54,3.54,0,0,1,1.67,1.48,4.48,4.48,0,0,1,.55,2.25,5.07,5.07,0,0,1-.17,1.37,5.74,5.74,0,0,1-.59,1.32,12.69,12.69,0,0,1-1.37,1.8q-.65.76-1.76,1.84-2.68,2.6-3.85,3.68v.15h1.31l3.33,0q1.45,0,1.91-.05t1.07-.15l.19.18a9.49,9.49,0,0,0-.34.91q-.3,1-.47,1.7-3.61-.13-5.16-.13-.9,0-2.44,0Q15,31.46,14.15,31.46Z"/><path class="cls-7" d="M27.65,25.95a16.89,16.89,0,0,1,1.81-8q1.81-3.44,4.83-3.44a4,4,0,0,1,2,.5,3.79,3.79,0,0,1,1.35,1.28,6.07,6.07,0,0,1,.74,1.94,11.38,11.38,0,0,1,.25,2.39,17.65,17.65,0,0,1-.86,5.4A10.31,10.31,0,0,1,35,30.79a4.5,4.5,0,0,1-3,1.1,3.88,3.88,0,0,1-2.2-.63,4.32,4.32,0,0,1-1.51-1.91A8.51,8.51,0,0,1,27.65,25.95Zm2.82,2.74a2.85,2.85,0,0,0,.41,1.74,1.27,1.27,0,0,0,1,.52,1.61,1.61,0,0,0,1.37-.69q.9-1.22,1.82-6.18a36.48,36.48,0,0,0,.73-6.32A2.71,2.71,0,0,0,35.39,16a1.39,1.39,0,0,0-1.11-.55,1.43,1.43,0,0,0-1,.36,4.68,4.68,0,0,0-1.09,2,36.66,36.66,0,0,0-1.08,4.68A36,36,0,0,0,30.47,28.69Z"/><path class="cls-7" d="M48.81,28.48l.28.78q-1.56,1.08-2.51,1.61a9,9,0,0,1-1.81.79,5.51,5.51,0,0,1-1.59.26,3.61,3.61,0,0,1-1.72-.41,2.58,2.58,0,0,1-1.14-1.18A4,4,0,0,1,40,28.57a11.6,11.6,0,0,1,.46-3.17,7.36,7.36,0,0,1,1-2.39,6.05,6.05,0,0,1,1.66-1.43l2.08-1.26a4.6,4.6,0,0,1,2.08-.48A5.36,5.36,0,0,1,48.5,20a8.86,8.86,0,0,1,1.42.49,10.06,10.06,0,0,0-.41,1.36q-.29,1.16-.44,2.11h-.82a8,8,0,0,0,.11-1.28c0-.08,0-.2,0-.36a3.94,3.94,0,0,0-1.11-.67,3.31,3.31,0,0,0-1.2-.22,2.31,2.31,0,0,0-1.19.28,2.8,2.8,0,0,0-.92,1,6.69,6.69,0,0,0-.57,1.55,15.13,15.13,0,0,0-.57,3.63,2.67,2.67,0,0,0,.53,1.79,1.69,1.69,0,0,0,1.34.61,5.28,5.28,0,0,0,2-.5A8.6,8.6,0,0,0,48.81,28.48Z"/><path d="M18.37,45.88l-.15.54a10,10,0,0,1-1.2.68,6.36,6.36,0,0,1-1.15.44,5.44,5.44,0,0,1-1.44.18,4.53,4.53,0,0,1-1.69-.28,3.25,3.25,0,0,1-1.13-.73,2.74,2.74,0,0,1-.63-1,4.66,4.66,0,0,1-.26-1.6,7.1,7.1,0,0,1,.39-2.35A6.29,6.29,0,0,1,12,40.27a8.58,8.58,0,0,1,1.63-1.42,7.94,7.94,0,0,1,1.49-.68,4.77,4.77,0,0,1,1.49-.23,6.14,6.14,0,0,1,1.57.19,3.3,3.3,0,0,1,1.07.44,12.34,12.34,0,0,0-.52,2.27h-.48l0-1.15a.39.39,0,0,0-.05-.23.84.84,0,0,0-.28-.24,5.33,5.33,0,0,0-.65-.29,4.22,4.22,0,0,0-1.21-.16,3.49,3.49,0,0,0-1.3.21,2.86,2.86,0,0,0-.94.62,3.46,3.46,0,0,0-.72,1.09,6.16,6.16,0,0,0-.43,1.46A11.51,11.51,0,0,0,12.59,44a3.54,3.54,0,0,0,.29,1.48,2,2,0,0,0,.9,1,2.94,2.94,0,0,0,1.43.33,4.34,4.34,0,0,0,1.11-.14,5.39,5.39,0,0,0,.95-.34q.13-.06,1-.57Z"/><path d="M19.34,47.48l.07-.42a2.4,2.4,0,0,0,.8-.19.37.37,0,0,0,.11-.16,14,14,0,0,0,.4-1.84q.13-.73.54-3,.46-2.6.46-2.88a.28.28,0,0,0-.06-.2.69.69,0,0,0-.37-.13q-.17,0-.89-.07l.09-.43,2.19,0,2.44,0h1.6a6.59,6.59,0,0,1,.79,0l.07.08q-.08.36-.27,1.53,0,.31-.07.56h-.46v-1a.68.68,0,0,0,0-.25.24.24,0,0,0-.1-.1,1,1,0,0,0-.31-.11l-.76-.09q-.34,0-.74,0a8.51,8.51,0,0,0-1.27.08l-.47,2.37q-.09.44-.19,1l1.89,0q.61,0,1.27,0l0,.08-.17.65-1.32,0-1.17,0-.64,0q-.13.78-.36,2l-.23,1.31a4.46,4.46,0,0,0-.05.45,11.2,11.2,0,0,0,1.57.08q.56,0,.88,0,.8-.08,1-.12a.72.72,0,0,0,.27-.11.52.52,0,0,0,.15-.2q.06-.13.37-1.21h.5l-.19.91-.24,1.34-.07.08a6,6,0,0,1-.84,0l-2,0-1.95,0Q20.24,47.42,19.34,47.48Z"/><path d="M27.59,47.48l.05-.49a6.4,6.4,0,0,0,.81-.07.47.47,0,0,0,.21-.16,2.31,2.31,0,0,0,.21-.68q.34-1.52.51-2.42.65-3.37.81-4.34a2.76,2.76,0,0,0-.44-.55.71.71,0,0,0-.29-.12q-.17,0-.95-.1l0-.44,1.08,0,1.87,0,.44.75.68,1.21,1.89,3.24q.75,1.31,1.31,2.21,1.1-5.92,1.1-6.57a.28.28,0,0,0-.2-.29,4.83,4.83,0,0,0-1-.1l.07-.44q.52,0,1.21,0l2,0-.07.48h-.58a.62.62,0,0,0-.32.09.35.35,0,0,0-.13.13A16,16,0,0,0,37.36,41q-.42,2-.85,4.34-.15.86-.35,2.2H35l-4.27-7.43q-.42,2.23-.52,2.78-.46,2.74-.51,3.14a5.31,5.31,0,0,0-.05.54.44.44,0,0,0,.06.27A.46.46,0,0,0,30,47a4.66,4.66,0,0,0,.9,0l-.07.49-1.88,0Z"/><path d="M39.72,47.48l.05-.48a4,4,0,0,0,1-.06.37.37,0,0,0,.17-.11,1.39,1.39,0,0,0,.17-.51q.22-1.07.64-3.47t.69-4h-.4a5.5,5.5,0,0,0-2,.18,3.22,3.22,0,0,0-.53,1.47h-.5q.18-1,.34-2.29l.07-.08,1.71.07q.77,0,1.77,0,1.4,0,3,0,.87,0,1.4-.09l.09.11q-.29,1.46-.34,1.75t-.07.53h-.5a9,9,0,0,0,.07-1,.84.84,0,0,0-.06-.42.42.42,0,0,0-.24-.12A8.3,8.3,0,0,0,45,38.85h-.74l-.59,3.09q-.26,1.38-.53,3Q43,46.06,43,46.37q0,.13,0,.26a.35.35,0,0,0,.06.23.38.38,0,0,0,.22.11,6.72,6.72,0,0,0,1,0l-.05.48-2.31-.05Q41.17,47.43,39.72,47.48Z"/><path d="M47.3,47q.07-.28.2-1t.15-1.08h.44v.76q0,.14,0,.41a2,2,0,0,0,.81.61,2.86,2.86,0,0,0,1.26.29,2.11,2.11,0,0,0,1.57-.49,1.68,1.68,0,0,0,.47-1.21,2,2,0,0,0-.08-.6.94.94,0,0,0-.26-.42A1.43,1.43,0,0,0,51.4,44l-1-.32a4.2,4.2,0,0,1-1.66-.7,2,2,0,0,1-.64-1.62A3.15,3.15,0,0,1,49.22,39a3.73,3.73,0,0,1,2.66-1,4,4,0,0,1,1.14.15,3.32,3.32,0,0,1,1,.46q-.13.49-.2.88t-.17,1.14h-.44q0-.27,0-.47t0-.63a1.47,1.47,0,0,0-.3-.32,2.26,2.26,0,0,0-.62-.31,2.65,2.65,0,0,0-.86-.13,2.18,2.18,0,0,0-1,.23,1.56,1.56,0,0,0-.65.63,2.06,2.06,0,0,0-.22,1,1.45,1.45,0,0,0,.19.8,1.72,1.72,0,0,0,.87.5q.87.2,1.39.35a6,6,0,0,1,.92.34,1.36,1.36,0,0,1,.62.63,2.2,2.2,0,0,1,.22,1,3,3,0,0,1-.62,1.8,4.31,4.31,0,0,1-1.46,1.27,4,4,0,0,1-1.89.44,4.52,4.52,0,0,1-1.33-.19A3.42,3.42,0,0,1,47.3,47Z"/><path class="cls-7" d="M18.37,45.42l-.15.54a10,10,0,0,1-1.2.68,6.36,6.36,0,0,1-1.15.44,5.44,5.44,0,0,1-1.44.18A4.53,4.53,0,0,1,12.74,47a3.25,3.25,0,0,1-1.13-.73,2.74,2.74,0,0,1-.63-1,4.66,4.66,0,0,1-.26-1.6,7.1,7.1,0,0,1,.39-2.35A6.29,6.29,0,0,1,12,39.81a8.58,8.58,0,0,1,1.63-1.42,7.94,7.94,0,0,1,1.49-.68,4.77,4.77,0,0,1,1.49-.23,6.14,6.14,0,0,1,1.57.19,3.3,3.3,0,0,1,1.07.44,12.34,12.34,0,0,0-.52,2.27h-.48l0-1.15a.39.39,0,0,0-.05-.23.84.84,0,0,0-.28-.24,5.33,5.33,0,0,0-.65-.29,4.22,4.22,0,0,0-1.21-.16,3.49,3.49,0,0,0-1.3.21,2.86,2.86,0,0,0-.94.62,3.46,3.46,0,0,0-.72,1.09,6.16,6.16,0,0,0-.43,1.46,11.51,11.51,0,0,0-.13,1.87A3.54,3.54,0,0,0,12.88,45a2,2,0,0,0,.9,1,2.94,2.94,0,0,0,1.43.33,4.34,4.34,0,0,0,1.11-.14,5.39,5.39,0,0,0,.95-.34q.13-.06,1-.57Z"/><path class="cls-7" d="M19.34,47l.07-.42a2.4,2.4,0,0,0,.8-.19.37.37,0,0,0,.11-.16,14,14,0,0,0,.4-1.84q.13-.73.54-3,.46-2.6.46-2.88a.28.28,0,0,0-.06-.2.69.69,0,0,0-.37-.13q-.17,0-.89-.07l.09-.43,2.19,0,2.44,0h1.6a6.59,6.59,0,0,1,.79,0l.07.08q-.08.36-.27,1.53,0,.31-.07.56h-.46v-1a.68.68,0,0,0,0-.25.24.24,0,0,0-.1-.1,1,1,0,0,0-.31-.11l-.76-.09q-.34,0-.74,0a8.51,8.51,0,0,0-1.27.08l-.47,2.37q-.09.44-.19,1l1.89,0q.61,0,1.27,0l0,.08-.17.65-1.32,0-1.17,0-.64,0q-.13.78-.36,2l-.23,1.31a4.46,4.46,0,0,0-.05.45,11.2,11.2,0,0,0,1.57.08q.56,0,.88,0,.8-.08,1-.12a.72.72,0,0,0,.27-.11.52.52,0,0,0,.15-.2q.06-.13.37-1.21h.5l-.19.91-.24,1.34-.07.08a6,6,0,0,1-.84,0l-2,0-1.95,0Q20.24,47,19.34,47Z"/><path class="cls-7" d="M27.59,47l.05-.49a6.4,6.4,0,0,0,.81-.07.47.47,0,0,0,.21-.16,2.31,2.31,0,0,0,.21-.68q.34-1.52.51-2.42.65-3.37.81-4.34a2.76,2.76,0,0,0-.44-.55.71.71,0,0,0-.29-.12q-.17,0-.95-.1l0-.44,1.08,0,1.87,0,.44.75.68,1.21,1.89,3.24q.75,1.31,1.31,2.21,1.1-5.92,1.1-6.57a.28.28,0,0,0-.2-.29,4.83,4.83,0,0,0-1-.1l.07-.44q.52,0,1.21,0l2,0-.07.48h-.58a.62.62,0,0,0-.32.09.35.35,0,0,0-.13.13,16,16,0,0,0-.55,2.21q-.42,2-.85,4.34-.15.86-.35,2.2H35l-4.27-7.43q-.42,2.23-.52,2.78-.46,2.74-.51,3.14a5.31,5.31,0,0,0-.05.54.44.44,0,0,0,.06.27.46.46,0,0,0,.26.13,4.66,4.66,0,0,0,.9,0l-.07.49L28.9,47Z"/><path class="cls-7" d="M39.72,47l.05-.48a4,4,0,0,0,1-.06.37.37,0,0,0,.17-.11,1.39,1.39,0,0,0,.17-.51q.22-1.07.64-3.47t.69-4h-.4a5.5,5.5,0,0,0-2,.18A3.22,3.22,0,0,0,39.59,40h-.5q.18-1,.34-2.29l.07-.08,1.71.07q.77,0,1.77,0,1.4,0,3,0,.87,0,1.4-.09l.09.11q-.29,1.46-.34,1.75t-.07.53h-.5a9,9,0,0,0,.07-1,.84.84,0,0,0-.06-.42.42.42,0,0,0-.24-.12A8.3,8.3,0,0,0,45,38.39h-.74l-.59,3.09q-.26,1.38-.53,3Q43,45.6,43,45.91q0,.13,0,.26a.35.35,0,0,0,.06.23.38.38,0,0,0,.22.11,6.72,6.72,0,0,0,1,0l-.05.48L41.88,47Q41.17,47,39.72,47Z"/><path class="cls-7" d="M47.3,46.52q.07-.28.2-1t.15-1.08h.44v.76q0,.14,0,.41a2,2,0,0,0,.81.61,2.86,2.86,0,0,0,1.26.29A2.11,2.11,0,0,0,51.73,46a1.68,1.68,0,0,0,.47-1.21,2,2,0,0,0-.08-.6.94.94,0,0,0-.26-.42,1.43,1.43,0,0,0-.46-.28l-1-.32a4.2,4.2,0,0,1-1.66-.7,2,2,0,0,1-.64-1.62,3.15,3.15,0,0,1,1.08-2.36,3.73,3.73,0,0,1,2.66-1,4,4,0,0,1,1.14.15,3.32,3.32,0,0,1,1,.46q-.13.49-.2.88t-.17,1.14h-.44q0-.27,0-.47t0-.63a1.47,1.47,0,0,0-.3-.32,2.26,2.26,0,0,0-.62-.31,2.65,2.65,0,0,0-.86-.13,2.18,2.18,0,0,0-1,.23,1.56,1.56,0,0,0-.65.63,2.06,2.06,0,0,0-.22,1,1.45,1.45,0,0,0,.19.8,1.72,1.72,0,0,0,.87.5q.87.2,1.39.35a6,6,0,0,1,.92.34,1.36,1.36,0,0,1,.62.63,2.2,2.2,0,0,1,.22,1,3,3,0,0,1-.62,1.8,4.31,4.31,0,0,1-1.46,1.27,4,4,0,0,1-1.89.44,4.52,4.52,0,0,1-1.33-.19A3.42,3.42,0,0,1,47.3,46.52Z"/></svg>