<svg id="Layer_1" data-name="Layer 1" xmlns="http://www.w3.org/2000/svg" xmlns:xlink="http://www.w3.org/1999/xlink" viewBox="0 0 50.88 52.47"><defs><style>.cls-1{fill:url(#linear-gradient);}.cls-2{fill:url(#linear-gradient-2);}.cls-3{fill:url(#linear-gradient-3);}.cls-4{fill:url(#linear-gradient-4);}.cls-5{fill:url(#linear-gradient-5);}.cls-6{fill:url(#linear-gradient-6);}.cls-7{fill:#6e3500;}.cls-8{fill:#b95a00;}</style><linearGradient id="linear-gradient" x1="25.44" y1="-0.42" x2="25.44" y2="51.18" gradientUnits="userSpaceOnUse"><stop offset="0" stop-color="#fbda6c"/><stop offset="0.39" stop-color="#f9ca61"/><stop offset="0.78" stop-color="#f7bf59"/><stop offset="1" stop-color="#ed7f22"/></linearGradient><linearGradient id="linear-gradient-2" x1="28.12" y1="24.83" x2="4.92" y2="28.78" gradientUnits="userSpaceOnUse"><stop offset="0" stop-color="#fbdc75"/><stop offset="0.19" stop-color="#f9ca64"/><stop offset="0.36" stop-color="#f7bf59"/><stop offset="0.65" stop-color="#ed7f22"/><stop offset="0.77" stop-color="#ea7d22"/><stop offset="0.85" stop-color="#e37923"/><stop offset="0.92" stop-color="#ce6c24"/><stop offset="1" stop-color="#b05925"/></linearGradient><linearGradient id="linear-gradient-3" x1="16.72" y1="16.35" x2="42.38" y2="35.3" gradientUnits="userSpaceOnUse"><stop offset="0.65" stop-color="#ed7f22"/><stop offset="0.77" stop-color="#ea7d22"/><stop offset="0.85" stop-color="#e27823"/><stop offset="0.91" stop-color="#d46f23"/><stop offset="0.97" stop-color="#c06324"/><stop offset="1" stop-color="#b05925"/></linearGradient><linearGradient id="linear-gradient-4" x1="25.44" y1="23.3" x2="25.44" y2="49.4" gradientUnits="userSpaceOnUse"><stop offset="0" stop-color="#fbdc75"/><stop offset="0.26" stop-color="#f9ca64"/><stop offset="0.49" stop-color="#f7bf59"/><stop offset="0.84" stop-color="#ed7f22"/><stop offset="1" stop-color="#b86d32"/></linearGradient><linearGradient id="linear-gradient-5" x1="25.44" y1="24.34" x2="25.44" y2="50.65" gradientUnits="userSpaceOnUse"><stop offset="0" stop-color="#fbdc75"/><stop offset="0.19" stop-color="#f9ca64"/><stop offset="0.36" stop-color="#f7bf59"/><stop offset="0.65" stop-color="#ed7f22"/><stop offset="0.75" stop-color="#ea7d22"/><stop offset="0.81" stop-color="#e27822"/><stop offset="0.87" stop-color="#d46f21"/><stop offset="0.91" stop-color="#c06221"/><stop offset="0.95" stop-color="#a55220"/><stop offset="0.99" stop-color="#853e1f"/><stop offset="1" stop-color="#7e391f"/></linearGradient><linearGradient id="linear-gradient-6" x1="44.61" y1="26.31" x2="44.61" y2="52.63" gradientUnits="userSpaceOnUse"><stop offset="0" stop-color="#fbdc75"/><stop offset="0.41" stop-color="#f9ca64"/><stop offset="0.78" stop-color="#f7bf59"/><stop offset="1" stop-color="#ed7f22"/></linearGradient></defs><title>2 dollar</title><circle class="cls-1" cx="25.44" cy="25.44" r="25.44"/><path class="cls-2" d="M25.44,5.4V3.6a21.84,21.84,0,0,0,0,43.69v-1.8a20,20,0,0,1,0-40.09Z"/><path class="cls-3" d="M25.44,3.6V5.4a20,20,0,1,1,0,40.09v1.8a21.84,21.84,0,1,0,0-43.69Z"/><path class="cls-4" d="M25.44,50.88A25.44,25.44,0,0,1,0,25.73c0,.1,0,.19,0,.29a25.44,25.44,0,1,0,50.88,0c0-.1,0-.19,0-.29A25.44,25.44,0,0,1,25.44,50.88Z"/><path class="cls-5" d="M25.44,51.47A25.44,25.44,0,0,1,0,26.53c0,.17,0,.33,0,.5a25.44,25.44,0,0,0,50.88,0c0-.17,0-.34,0-.5A25.44,25.44,0,0,1,25.44,51.47Z"/><path class="cls-6" d="M50.87,26.53A25.43,25.43,0,0,1,38.35,47.95q0,.51,0,1A25.42,25.42,0,0,0,50.88,27C50.88,26.86,50.87,26.7,50.87,26.53Z"/><path class="cls-7" d="M22.88,14.37h-.66L22,13.69l-.3-.82q-.16-.43-.29-.85t-.21-.77a6.27,6.27,0,0,1,1.75-1,6.92,6.92,0,0,1,2.59-.43,5.63,5.63,0,0,1,1.85.27,3.6,3.6,0,0,1,1.3.76A3,3,0,0,1,29.39,12a3.88,3.88,0,0,1,.24,1.39,4.87,4.87,0,0,1-.55,2.25,10.11,10.11,0,0,1-1.35,2A16.51,16.51,0,0,1,26,19.32l-1.66,1.43-1,.68v.08l1.19-.12H27.9l1-2.19h.66q.06.47.13,1.09t.13,1.26q.06.63.1,1.21t0,.93H21V22.45l1.15-1q.64-.59,1.31-1.31t1.31-1.51A15.5,15.5,0,0,0,25.89,17a8.91,8.91,0,0,0,.81-1.69,5,5,0,0,0,.3-1.68,2.59,2.59,0,0,0-.58-1.75,2,2,0,0,0-1.63-.67,4.12,4.12,0,0,0-.6,0,4.47,4.47,0,0,0-.6.14Z"/><path class="cls-8" d="M22.88,14h-.66L22,13.33l-.3-.82q-.16-.43-.29-.85t-.21-.77a6.27,6.27,0,0,1,1.75-1,6.92,6.92,0,0,1,2.59-.43,5.63,5.63,0,0,1,1.85.27,3.6,3.6,0,0,1,1.3.76,3,3,0,0,1,.76,1.13A3.88,3.88,0,0,1,29.64,13a4.87,4.87,0,0,1-.55,2.25,10.11,10.11,0,0,1-1.35,2A16.51,16.51,0,0,1,26,19L24.37,20.4l-1,.68v.08L24.54,21H27.9l1-2.19h.66q.06.47.13,1.09t.13,1.26q.06.63.1,1.21t0,.93H21V22.09l1.15-1q.64-.59,1.31-1.31t1.31-1.51a15.5,15.5,0,0,0,1.15-1.63,8.91,8.91,0,0,0,.81-1.69,5,5,0,0,0,.3-1.68,2.59,2.59,0,0,0-.58-1.75,2,2,0,0,0-1.63-.67,4.12,4.12,0,0,0-.6,0,4.47,4.47,0,0,0-.6.14Z"/><path class="cls-7" d="M7.86,35l.05-.29a2,2,0,0,1,.32-.13l.35-.09.9-4.25-.32-.09A1.39,1.39,0,0,1,8.91,30L9,29.72h1.19l.4,0,.4,0h.33a3.67,3.67,0,0,1,1.07.14,1.86,1.86,0,0,1,.71.38,1.45,1.45,0,0,1,.4.59,2.2,2.2,0,0,1,.12.75,4.88,4.88,0,0,1-.08.85,3.52,3.52,0,0,1-.25.82,3.3,3.3,0,0,1-.44.73,2.7,2.7,0,0,1-.66.59,3.32,3.32,0,0,1-.91.39,4.48,4.48,0,0,1-1.19.14H9.8l-.36,0L9,35H7.86Zm3.25-4.83h-.26l-.23,0-.92,4.35.26,0h.23a1.74,1.74,0,0,0,1-.29,2.23,2.23,0,0,0,.67-.74,3.38,3.38,0,0,0,.36-1,5.66,5.66,0,0,0,.11-1.09,2.27,2.27,0,0,0-.06-.55.94.94,0,0,0-.2-.4.88.88,0,0,0-.38-.24A1.84,1.84,0,0,0,11.11,30.15Z"/><path class="cls-7" d="M14,32.95a3.85,3.85,0,0,1,.21-1.3,3.1,3.1,0,0,1,.62-1.05,2.88,2.88,0,0,1,1-.71,3.21,3.21,0,0,1,1.32-.26,2.54,2.54,0,0,1,.89.15,1.8,1.8,0,0,1,.66.42,1.78,1.78,0,0,1,.41.66,2.61,2.61,0,0,1,.14.88A4,4,0,0,1,19,33,3.18,3.18,0,0,1,18.48,34a2.9,2.9,0,0,1-1,.76,3,3,0,0,1-1.35.29,2.49,2.49,0,0,1-.92-.16,1.94,1.94,0,0,1-.68-.45,1.88,1.88,0,0,1-.42-.68A2.43,2.43,0,0,1,14,32.95Zm1.28.14a1.85,1.85,0,0,0,.28,1.12.91.91,0,0,0,.76.37,1.06,1.06,0,0,0,.74-.28,2.2,2.2,0,0,0,.51-.71,3.82,3.82,0,0,0,.3-1A6.13,6.13,0,0,0,18,31.57a2.09,2.09,0,0,0-.23-1.06.81.81,0,0,0-.76-.39,1.07,1.07,0,0,0-.53.13,1.55,1.55,0,0,0-.43.36,2.33,2.33,0,0,0-.33.52,3.89,3.89,0,0,0-.23.63,5.09,5.09,0,0,0-.14.67A5,5,0,0,0,15.28,33.09Z"/><path class="cls-7" d="M20.13,29.72h2.46l-.06.29a2,2,0,0,1-.37.14,2.75,2.75,0,0,1-.39.08l-.9,4.27h1.45l.78-1.34h.32q0,.17,0,.41t-.06.49q0,.26-.09.5t-.1.44H19l.05-.29.36-.14.31-.08.9-4.25-.32-.08a.88.88,0,0,1-.26-.14Z"/><path class="cls-7" d="M24.46,29.72h2.46l-.06.29a2,2,0,0,1-.37.14,2.75,2.75,0,0,1-.39.08l-.9,4.27h1.45l.78-1.34h.32q0,.17,0,.41t-.06.49q0,.26-.09.5t-.1.44H23.35l.05-.29.36-.14.31-.08.9-4.25-.32-.08A.88.88,0,0,1,24.4,30Z"/><path class="cls-7" d="M29.41,35H27.54l.05-.29.29-.13.3-.09,3-4.85h.55l.85,4.85a1.48,1.48,0,0,1,.28.09l.24.13L33,35H30.69l.05-.29.33-.13.33-.09-.18-1.19H29.57l-.71,1.19a1.62,1.62,0,0,1,.32.08,1.39,1.39,0,0,1,.29.14Zm.42-2.19h1.34L31,31.36v-.65h0l-.29.66Z"/><path class="cls-7" d="M35,34.48l.29.1.23.12-.05.29H33.13l.05-.29a2.47,2.47,0,0,1,.35-.14l.32-.08.9-4.25a1.72,1.72,0,0,1-.57-.22l.06-.29h1.14l.4,0,.43,0h.41a2,2,0,0,1,1.24.32,1.11,1.11,0,0,1,.4.92,1.62,1.62,0,0,1-.36,1,1.82,1.82,0,0,1-.44.39,2.19,2.19,0,0,1-.6.27,7.52,7.52,0,0,0,.48,1l.57.95.32.24-.05.26H37l-.28-.25a6,6,0,0,1-.47-1,5.84,5.84,0,0,1-.31-1.07h-.57Zm1.3-4.33-.22,0-.18,0-.44,2.08h.44a1.18,1.18,0,0,0,.54-.12,1.08,1.08,0,0,0,.38-.31A1.39,1.39,0,0,0,37,31.4a1.88,1.88,0,0,0,.08-.54.65.65,0,0,0-.19-.54A1,1,0,0,0,36.27,30.15Z"/><path class="cls-7" d="M39.56,34.36a.8.8,0,0,0,.27.15,1.14,1.14,0,0,0,.41.08,2.19,2.19,0,0,0,.44,0,1.07,1.07,0,0,0,.35-.13.65.65,0,0,0,.23-.24.72.72,0,0,0,.08-.36.75.75,0,0,0-.14-.46,1.74,1.74,0,0,0-.35-.35q-.21-.16-.46-.31a2.89,2.89,0,0,1-.46-.35,1.77,1.77,0,0,1-.35-.46,1.34,1.34,0,0,1-.14-.65,1.48,1.48,0,0,1,.16-.7A1.45,1.45,0,0,1,40,30a2,2,0,0,1,.66-.3,3.29,3.29,0,0,1,.84-.1,5.07,5.07,0,0,1,.84.06,2.55,2.55,0,0,1,.66.2c0,.1-.06.22-.1.35s-.08.26-.13.39l-.14.36-.12.28h-.31l-.13-1a.87.87,0,0,0-.28-.09,2.17,2.17,0,0,0-.36,0,1.54,1.54,0,0,0-.36,0,.87.87,0,0,0-.29.13.63.63,0,0,0-.27.54.74.74,0,0,0,.15.46,1.8,1.8,0,0,0,.36.36l.47.32a3.2,3.2,0,0,1,.47.36,1.87,1.87,0,0,1,.36.46,1.28,1.28,0,0,1,.15.63,1.41,1.41,0,0,1-.59,1.22,2.86,2.86,0,0,1-1.69.42l-.48,0L39.24,35l-.38-.11a.74.74,0,0,1-.24-.13q0-.18.11-.38l.14-.4q.08-.2.15-.38l.15-.31h.31Z"/><path class="cls-8" d="M7.86,34.62l.05-.29a2,2,0,0,1,.32-.13l.35-.09.9-4.25-.32-.09a1.39,1.39,0,0,1-.25-.12L9,29.36h1.19l.4,0,.4,0h.33a3.67,3.67,0,0,1,1.07.14,1.86,1.86,0,0,1,.71.38,1.45,1.45,0,0,1,.4.59,2.2,2.2,0,0,1,.12.75,4.88,4.88,0,0,1-.08.85,3.52,3.52,0,0,1-.25.82,3.3,3.3,0,0,1-.44.73,2.7,2.7,0,0,1-.66.59,3.32,3.32,0,0,1-.91.39,4.48,4.48,0,0,1-1.19.14H9.8l-.36,0-.39,0H7.86Zm3.25-4.83h-.26l-.23,0-.92,4.35.26,0h.23a1.74,1.74,0,0,0,1-.29,2.23,2.23,0,0,0,.67-.74,3.38,3.38,0,0,0,.36-1,5.66,5.66,0,0,0,.11-1.09,2.27,2.27,0,0,0-.06-.55.94.94,0,0,0-.2-.4.88.88,0,0,0-.38-.24A1.84,1.84,0,0,0,11.11,29.79Z"/><path class="cls-8" d="M14,32.59a3.85,3.85,0,0,1,.21-1.3,3.1,3.1,0,0,1,.62-1.05,2.88,2.88,0,0,1,1-.71,3.21,3.21,0,0,1,1.32-.26,2.54,2.54,0,0,1,.89.15,1.8,1.8,0,0,1,.66.42,1.78,1.78,0,0,1,.41.66,2.61,2.61,0,0,1,.14.88A4,4,0,0,1,19,32.6a3.18,3.18,0,0,1-.57,1.07,2.9,2.9,0,0,1-1,.76,3,3,0,0,1-1.35.29,2.49,2.49,0,0,1-.92-.16,1.94,1.94,0,0,1-.68-.45,1.88,1.88,0,0,1-.42-.68A2.43,2.43,0,0,1,14,32.59Zm1.28.14a1.85,1.85,0,0,0,.28,1.12.91.91,0,0,0,.76.37,1.06,1.06,0,0,0,.74-.28,2.2,2.2,0,0,0,.51-.71,3.82,3.82,0,0,0,.3-1A6.13,6.13,0,0,0,18,31.21a2.09,2.09,0,0,0-.23-1.06.81.81,0,0,0-.76-.39,1.07,1.07,0,0,0-.53.13,1.55,1.55,0,0,0-.43.36,2.33,2.33,0,0,0-.33.52,3.89,3.89,0,0,0-.23.63,5.09,5.09,0,0,0-.14.67A5,5,0,0,0,15.28,32.73Z"/><path class="cls-8" d="M20.13,29.36h2.46l-.06.29a2,2,0,0,1-.37.14,2.75,2.75,0,0,1-.39.08l-.9,4.27h1.45l.78-1.34h.32q0,.17,0,.41t-.06.49q0,.26-.09.5t-.1.44H19l.05-.29.36-.14.31-.08.9-4.25-.32-.08a.88.88,0,0,1-.26-.14Z"/><path class="cls-8" d="M24.46,29.36h2.46l-.06.29a2,2,0,0,1-.37.14,2.75,2.75,0,0,1-.39.08l-.9,4.27h1.45l.78-1.34h.32q0,.17,0,.41t-.06.49q0,.26-.09.5t-.1.44H23.35l.05-.29.36-.14.31-.08.9-4.25-.32-.08a.88.88,0,0,1-.26-.14Z"/><path class="cls-8" d="M29.41,34.62H27.54l.05-.29.29-.13.3-.09,3-4.85h.55l.85,4.85a1.48,1.48,0,0,1,.28.09l.24.13-.06.29H30.69l.05-.29.33-.13.33-.09-.18-1.19H29.57l-.71,1.19a1.62,1.62,0,0,1,.32.08,1.39,1.39,0,0,1,.29.14Zm.42-2.19h1.34L31,31v-.65h0l-.29.66Z"/><path class="cls-8" d="M35,34.12l.29.1.23.12-.05.29H33.13l.05-.29a2.47,2.47,0,0,1,.35-.14l.32-.08.9-4.25a1.72,1.72,0,0,1-.57-.22l.06-.29h1.14l.4,0,.43,0h.41a2,2,0,0,1,1.24.32,1.11,1.11,0,0,1,.4.92,1.62,1.62,0,0,1-.36,1,1.82,1.82,0,0,1-.44.39,2.19,2.19,0,0,1-.6.27,7.52,7.52,0,0,0,.48,1l.57.95.32.24-.05.26H37l-.28-.25a6,6,0,0,1-.47-1,5.84,5.84,0,0,1-.31-1.07h-.57Zm1.3-4.33-.22,0-.18,0-.44,2.08h.44a1.18,1.18,0,0,0,.54-.12,1.08,1.08,0,0,0,.38-.31A1.39,1.39,0,0,0,37,31a1.88,1.88,0,0,0,.08-.54.65.65,0,0,0-.19-.54A1,1,0,0,0,36.27,29.79Z"/><path class="cls-8" d="M39.56,34a.8.8,0,0,0,.27.15,1.14,1.14,0,0,0,.41.08,2.19,2.19,0,0,0,.44,0,1.07,1.07,0,0,0,.35-.13.65.65,0,0,0,.23-.24.72.72,0,0,0,.08-.36.75.75,0,0,0-.14-.46,1.74,1.74,0,0,0-.35-.35q-.21-.16-.46-.31a2.89,2.89,0,0,1-.46-.35,1.77,1.77,0,0,1-.35-.46,1.34,1.34,0,0,1-.14-.65,1.48,1.48,0,0,1,.16-.7,1.45,1.45,0,0,1,.44-.5,2,2,0,0,1,.66-.3,3.29,3.29,0,0,1,.84-.1,5.07,5.07,0,0,1,.84.06,2.55,2.55,0,0,1,.66.2c0,.1-.06.22-.1.35s-.08.26-.13.39l-.14.36-.12.28h-.31l-.13-1a.87.87,0,0,0-.28-.09,2.17,2.17,0,0,0-.36,0,1.54,1.54,0,0,0-.36,0,.87.87,0,0,0-.29.13.63.63,0,0,0-.27.54.74.74,0,0,0,.15.46,1.8,1.8,0,0,0,.36.36l.47.32A3.2,3.2,0,0,1,42,32a1.87,1.87,0,0,1,.36.46,1.28,1.28,0,0,1,.15.63,1.41,1.41,0,0,1-.59,1.22,2.86,2.86,0,0,1-1.69.42l-.48,0-.46-.08-.38-.11a.74.74,0,0,1-.24-.13q0-.18.11-.38l.14-.4q.08-.2.15-.38l.15-.31h.31Z"/></svg>