<svg id="Layer_1" data-name="Layer 1" xmlns="http://www.w3.org/2000/svg" xmlns:xlink="http://www.w3.org/1999/xlink" viewBox="0 0 70.99 74.29"><defs><style>.cls-1{fill:url(#linear-gradient);}.cls-2{fill:url(#linear-gradient-2);}.cls-3{fill:url(#linear-gradient-3);}.cls-4{fill:url(#linear-gradient-4);}.cls-5{fill:url(#linear-gradient-5);}.cls-6{fill:url(#linear-gradient-6);}.cls-7{fill:gray;}</style><linearGradient id="linear-gradient" x1="35.5" y1="69.19" x2="35.5" y2="1.98" gradientUnits="userSpaceOnUse"><stop offset="0" stop-color="#a8a8a8"/><stop offset="0.22" stop-color="#d6d6d6"/><stop offset="0.67" stop-color="#e1e1e1"/><stop offset="1" stop-color="#ececec"/></linearGradient><linearGradient id="linear-gradient-2" x1="35.84" y1="15.71" x2="57.88" y2="63.74" gradientUnits="userSpaceOnUse"><stop offset="0.65" stop-color="#a8a8a8"/><stop offset="0.79" stop-color="#a5a5a5"/><stop offset="0.88" stop-color="#9d9d9d"/><stop offset="0.95" stop-color="#8f8f8f"/><stop offset="1" stop-color="#7f7f7f"/></linearGradient><linearGradient id="linear-gradient-3" x1="39.99" y1="35.09" x2="9.7" y2="37.06" gradientUnits="userSpaceOnUse"><stop offset="0" stop-color="#ececec"/><stop offset="0.15" stop-color="#e1e1e1"/><stop offset="0.36" stop-color="#d6d6d6"/><stop offset="0.65" stop-color="#a8a8a8"/><stop offset="0.79" stop-color="#a5a5a5"/><stop offset="0.88" stop-color="#9d9d9d"/><stop offset="0.95" stop-color="#8f8f8f"/><stop offset="1" stop-color="#7f7f7f"/></linearGradient><linearGradient id="linear-gradient-4" x1="35.5" y1="37.22" x2="35.5" y2="71.67" gradientUnits="userSpaceOnUse"><stop offset="0" stop-color="#f3f3f3"/><stop offset="0.14" stop-color="#e9e9e9"/><stop offset="0.36" stop-color="#dedede"/><stop offset="0.65" stop-color="#afafaf"/><stop offset="0.76" stop-color="#acacac"/><stop offset="0.84" stop-color="#a4a4a4"/><stop offset="0.9" stop-color="#969696"/><stop offset="0.95" stop-color="#828282"/><stop offset="0.99" stop-color="#686868"/><stop offset="1" stop-color="#646464"/></linearGradient><linearGradient id="linear-gradient-5" x1="62.96" y1="37.22" x2="62.96" y2="71.67" gradientUnits="userSpaceOnUse"><stop offset="0" stop-color="#f3f3f3"/><stop offset="0.31" stop-color="#e9e9e9"/><stop offset="0.78" stop-color="#dedede"/><stop offset="1" stop-color="#afafaf"/></linearGradient><linearGradient id="linear-gradient-6" x1="35.5" y1="37.29" x2="35.5" y2="70.01" gradientUnits="userSpaceOnUse"><stop offset="0" stop-color="#f3f3f3"/><stop offset="0.19" stop-color="#e9e9e9"/><stop offset="0.49" stop-color="#dedede"/><stop offset="0.84" stop-color="#afafaf"/><stop offset="1" stop-color="#979797"/></linearGradient></defs><title>50c-cents</title><polygon class="cls-1" points="35.5 0 20.98 3.09 8.97 11.81 1.55 24.66 0 39.42 4.59 53.54 14.52 64.57 28.08 70.6 42.92 70.6 56.48 64.57 66.41 53.54 70.99 39.42 69.44 24.66 62.02 11.81 50.01 3.09 35.5 0"/><polygon class="cls-2" points="64.21 26.36 57.94 15.49 47.78 8.11 35.5 5.5 35.08 5.59 35.08 8.33 35.5 8.25 46.66 10.62 55.89 17.33 61.6 27.21 62.79 38.56 59.27 49.41 51.63 57.9 41.2 62.54 35.08 62.54 35.08 65.23 41.77 65.23 53.24 60.12 61.65 50.79 65.53 38.85 64.21 26.36"/><polygon class="cls-3" points="35.08 62.54 29.79 62.54 19.36 57.9 11.73 49.41 8.2 38.56 9.39 27.21 15.1 17.33 24.33 10.62 35.08 8.33 35.08 5.59 23.21 8.11 13.06 15.49 6.78 26.36 5.47 38.85 9.35 50.79 17.75 60.12 29.22 65.23 35.08 65.23 35.08 62.54"/><polygon class="cls-4" points="66.41 53.54 56.48 64.57 42.92 70.6 28.08 70.6 14.52 64.57 4.59 53.54 0.29 40.32 0 43.11 4.59 57.23 14.52 68.26 28.08 74.29 42.92 74.29 56.48 68.26 66.41 57.23 70.99 43.11 70.7 40.32 66.41 53.54"/><polygon class="cls-5" points="70.7 40.32 66.41 53.54 56.48 64.57 54.92 65.26 54.92 68.95 56.48 68.26 66.41 57.23 70.99 43.11 70.7 40.32"/><polygon class="cls-6" points="66.41 53.54 56.48 64.57 42.92 70.6 28.08 70.6 14.52 64.57 4.59 53.54 0.11 39.77 0 40.85 4.59 54.97 14.52 66 28.08 72.03 42.92 72.03 56.48 66 66.41 54.97 70.99 40.85 70.88 39.77 66.41 53.54"/><path d="M21.94,50.78l-.15.52a9.64,9.64,0,0,1-1.16.66,6.16,6.16,0,0,1-1.12.43,5.27,5.27,0,0,1-1.39.18,4.4,4.4,0,0,1-1.64-.27,3.15,3.15,0,0,1-1.1-.71,2.66,2.66,0,0,1-.61-1,4.51,4.51,0,0,1-.25-1.55,6.89,6.89,0,0,1,.38-2.28,6.09,6.09,0,0,1,.89-1.46A8.32,8.32,0,0,1,17.38,44a7.7,7.7,0,0,1,1.45-.66,4.62,4.62,0,0,1,1.44-.22,6,6,0,0,1,1.52.19,3.2,3.2,0,0,1,1,.42,12,12,0,0,0-.51,2.2h-.46l0-1.11a.38.38,0,0,0-.05-.22.82.82,0,0,0-.27-.23,5.17,5.17,0,0,0-.63-.28,4.09,4.09,0,0,0-1.18-.16,3.39,3.39,0,0,0-1.26.2,2.77,2.77,0,0,0-.91.6,3.36,3.36,0,0,0-.7,1.06,6,6,0,0,0-.42,1.42A11.16,11.16,0,0,0,16.34,49a3.43,3.43,0,0,0,.28,1.43,2,2,0,0,0,.87.94,2.85,2.85,0,0,0,1.39.32,4.2,4.2,0,0,0,1.07-.14,5.23,5.23,0,0,0,.92-.33l.93-.55Z"/><path d="M22.89,52.34l.06-.41a2.32,2.32,0,0,0,.77-.19.36.36,0,0,0,.11-.16,13.52,13.52,0,0,0,.39-1.79q.13-.71.52-3,.44-2.52.44-2.8a.27.27,0,0,0-.06-.2.67.67,0,0,0-.36-.12q-.17,0-.86-.07l.08-.42,2.13,0,2.36,0H30a6.38,6.38,0,0,1,.76,0l.06.08q-.08.34-.27,1.48,0,.3-.07.55h-.44v-.94a.66.66,0,0,0,0-.25.23.23,0,0,0-.1-.1.92.92,0,0,0-.3-.1l-.74-.09q-.33,0-.72,0A8.25,8.25,0,0,0,27,44l-.46,2.3q-.08.42-.19,1l1.83,0q.59,0,1.24,0l0,.08-.16.63-1.28,0-1.13,0-.62,0q-.13.75-.34,2l-.23,1.27a4.33,4.33,0,0,0-.05.44,10.86,10.86,0,0,0,1.52.08q.55,0,.85,0,.77-.08.94-.12a.7.7,0,0,0,.26-.1.51.51,0,0,0,.15-.2q.06-.13.36-1.18h.49l-.19.88-.23,1.29-.07.08a5.86,5.86,0,0,1-.81,0l-2,0-1.89,0Q23.76,52.27,22.89,52.34Z"/><path d="M30.88,52.34l.05-.47a6.21,6.21,0,0,0,.78-.06.46.46,0,0,0,.21-.16,2.24,2.24,0,0,0,.2-.66q.33-1.48.49-2.35.63-3.26.79-4.21a2.68,2.68,0,0,0-.42-.53.69.69,0,0,0-.28-.12q-.17,0-.92-.1l0-.43,1,0,1.81,0,.42.73.66,1.17,1.83,3.14q.73,1.27,1.27,2.14,1.07-5.74,1.07-6.37a.27.27,0,0,0-.2-.28,4.68,4.68,0,0,0-1-.1l.06-.43,1.18,0,2,0-.06.46h-.57a.6.6,0,0,0-.31.08.34.34,0,0,0-.12.12,15.55,15.55,0,0,0-.53,2.14q-.41,1.92-.83,4.21-.15.83-.34,2.13H38l-4.14-7.21q-.41,2.16-.5,2.69-.44,2.65-.49,3a5.15,5.15,0,0,0,0,.52.42.42,0,0,0,.06.26.45.45,0,0,0,.25.12,4.51,4.51,0,0,0,.87,0l-.07.47-1.82,0Z"/><path d="M42.64,52.34l.05-.46a3.91,3.91,0,0,0,1-.06.35.35,0,0,0,.16-.11,1.35,1.35,0,0,0,.17-.49q.21-1,.62-3.36T45.32,44h-.39a5.33,5.33,0,0,0-1.91.17,3.12,3.12,0,0,0-.51,1.43H42q.18-.94.33-2.22l.07-.08,1.66.06,1.72,0q1.35,0,3,0,.84,0,1.36-.08l.09.11q-.28,1.42-.33,1.7t-.07.52h-.49a8.7,8.7,0,0,0,.06-1,.81.81,0,0,0-.06-.41A.41.41,0,0,0,49.1,44,8,8,0,0,0,47.79,44h-.72l-.57,3q-.25,1.34-.51,2.93-.18,1.06-.2,1.36,0,.13,0,.25a.34.34,0,0,0,.06.22.37.37,0,0,0,.21.1,6.51,6.51,0,0,0,1,0l-.05.46-2.24-.05Q44,52.28,42.64,52.34Z"/><path d="M50,51.85q.07-.27.19-1t.15-1.05h.43v.74q0,.14,0,.4a1.92,1.92,0,0,0,.78.59,2.77,2.77,0,0,0,1.22.28,2,2,0,0,0,1.52-.47,1.63,1.63,0,0,0,.46-1.17,2,2,0,0,0-.07-.58.92.92,0,0,0-.25-.4,1.38,1.38,0,0,0-.45-.27L53,48.62a4.07,4.07,0,0,1-1.61-.68,2,2,0,0,1-.62-1.57,3.06,3.06,0,0,1,1-2.29,3.62,3.62,0,0,1,2.58-1,3.9,3.9,0,0,1,1.1.15,3.21,3.21,0,0,1,.94.45q-.12.47-.2.86t-.17,1.1h-.42q0-.26,0-.46t0-.61a1.42,1.42,0,0,0-.29-.31,2.19,2.19,0,0,0-.6-.3,2.57,2.57,0,0,0-.83-.13,2.12,2.12,0,0,0-1,.23,1.51,1.51,0,0,0-.63.61,2,2,0,0,0-.21.95,1.4,1.4,0,0,0,.19.77,1.66,1.66,0,0,0,.84.49q.85.2,1.35.34a5.81,5.81,0,0,1,.89.33,1.32,1.32,0,0,1,.6.61,2.13,2.13,0,0,1,.22,1,2.88,2.88,0,0,1-.6,1.75,4.18,4.18,0,0,1-1.41,1.24,3.87,3.87,0,0,1-1.83.43,4.38,4.38,0,0,1-1.29-.19A3.32,3.32,0,0,1,50,51.85Z"/><path class="cls-7" d="M21.94,50.34l-.15.52a9.64,9.64,0,0,1-1.16.66,6.16,6.16,0,0,1-1.12.43,5.27,5.27,0,0,1-1.39.18,4.4,4.4,0,0,1-1.64-.27,3.15,3.15,0,0,1-1.1-.71,2.66,2.66,0,0,1-.61-1,4.51,4.51,0,0,1-.25-1.55,6.89,6.89,0,0,1,.38-2.28,6.09,6.09,0,0,1,.89-1.46,8.32,8.32,0,0,1,1.58-1.38,7.7,7.7,0,0,1,1.45-.66,4.62,4.62,0,0,1,1.44-.22,6,6,0,0,1,1.52.19,3.2,3.2,0,0,1,1,.42,12,12,0,0,0-.51,2.2h-.46l0-1.11a.38.38,0,0,0-.05-.22.82.82,0,0,0-.27-.23,5.17,5.17,0,0,0-.63-.28,4.09,4.09,0,0,0-1.18-.16,3.39,3.39,0,0,0-1.26.2,2.77,2.77,0,0,0-.91.6,3.36,3.36,0,0,0-.7,1.06,6,6,0,0,0-.42,1.42,11.16,11.16,0,0,0-.13,1.81A3.43,3.43,0,0,0,16.62,50a2,2,0,0,0,.87.94,2.85,2.85,0,0,0,1.39.32,4.2,4.2,0,0,0,1.07-.14,5.23,5.23,0,0,0,.92-.33l.93-.55Z"/><path class="cls-7" d="M22.89,51.89l.06-.41a2.32,2.32,0,0,0,.77-.19.36.36,0,0,0,.11-.16,13.52,13.52,0,0,0,.39-1.79q.13-.71.52-3,.44-2.52.44-2.8a.27.27,0,0,0-.06-.2.67.67,0,0,0-.36-.12q-.17,0-.86-.07l.08-.42,2.13,0,2.36,0H30a6.38,6.38,0,0,1,.76,0l.06.08q-.08.34-.27,1.48,0,.3-.07.55h-.44V44a.66.66,0,0,0,0-.25.23.23,0,0,0-.1-.1.92.92,0,0,0-.3-.1l-.74-.09q-.33,0-.72,0a8.25,8.25,0,0,0-1.23.08l-.46,2.3q-.08.42-.19,1l1.83,0q.59,0,1.24,0l0,.08-.16.63-1.28,0-1.13,0-.62,0q-.13.75-.34,2l-.23,1.27a4.33,4.33,0,0,0-.05.44,10.86,10.86,0,0,0,1.52.08q.55,0,.85,0,.77-.08.94-.12a.7.7,0,0,0,.26-.1.51.51,0,0,0,.15-.2q.06-.13.36-1.18h.49l-.19.88-.23,1.29-.07.08a5.86,5.86,0,0,1-.81,0l-2,0-1.89,0Q23.76,51.83,22.89,51.89Z"/><path class="cls-7" d="M30.88,51.89l.05-.47a6.21,6.21,0,0,0,.78-.06.46.46,0,0,0,.21-.16,2.24,2.24,0,0,0,.2-.66q.33-1.48.49-2.35.63-3.26.79-4.21a2.68,2.68,0,0,0-.42-.53.69.69,0,0,0-.28-.12q-.17,0-.92-.1l0-.43,1,0,1.81,0,.42.73.66,1.17,1.83,3.14q.73,1.27,1.27,2.14,1.07-5.74,1.07-6.37a.27.27,0,0,0-.2-.28,4.68,4.68,0,0,0-1-.1l.06-.43,1.18,0,2,0-.06.46h-.57a.6.6,0,0,0-.31.08.34.34,0,0,0-.12.12,15.55,15.55,0,0,0-.53,2.14q-.41,1.92-.83,4.21-.15.83-.34,2.13H38l-4.14-7.21q-.41,2.16-.5,2.69-.44,2.65-.49,3a5.15,5.15,0,0,0,0,.52.42.42,0,0,0,.06.26.45.45,0,0,0,.25.12,4.51,4.51,0,0,0,.87,0l-.07.47-1.82,0Z"/><path class="cls-7" d="M42.64,51.89l.05-.46a3.91,3.91,0,0,0,1-.06.35.35,0,0,0,.16-.11,1.35,1.35,0,0,0,.17-.49q.21-1,.62-3.36t.67-3.88h-.39A5.33,5.33,0,0,0,43,43.7a3.12,3.12,0,0,0-.51,1.43H42q.18-.94.33-2.22l.07-.08,1.66.06,1.72,0q1.35,0,3,0,.84,0,1.36-.08l.09.11q-.28,1.42-.33,1.7t-.07.52h-.49a8.7,8.7,0,0,0,.06-1,.81.81,0,0,0-.06-.41.41.41,0,0,0-.23-.12,8,8,0,0,0-1.31-.06h-.72l-.57,3q-.25,1.34-.51,2.93-.18,1.06-.2,1.36,0,.13,0,.25a.34.34,0,0,0,.06.22.37.37,0,0,0,.21.1,6.51,6.51,0,0,0,1,0l-.05.46-2.24-.05Q44,51.84,42.64,51.89Z"/><path class="cls-7" d="M50,51.4q.07-.27.19-1t.15-1.05h.43v.74q0,.14,0,.4a1.92,1.92,0,0,0,.78.59,2.77,2.77,0,0,0,1.22.28,2,2,0,0,0,1.52-.47,1.63,1.63,0,0,0,.46-1.17,2,2,0,0,0-.07-.58.92.92,0,0,0-.25-.4,1.38,1.38,0,0,0-.45-.27L53,48.17a4.07,4.07,0,0,1-1.61-.68,2,2,0,0,1-.62-1.57,3.06,3.06,0,0,1,1-2.29,3.62,3.62,0,0,1,2.58-1,3.9,3.9,0,0,1,1.1.15,3.21,3.21,0,0,1,.94.45q-.12.47-.2.86t-.17,1.1h-.42q0-.26,0-.46t0-.61a1.42,1.42,0,0,0-.29-.31,2.19,2.19,0,0,0-.6-.3,2.57,2.57,0,0,0-.83-.13,2.12,2.12,0,0,0-1,.23,1.51,1.51,0,0,0-.63.61,2,2,0,0,0-.21.95,1.4,1.4,0,0,0,.19.77,1.66,1.66,0,0,0,.84.49q.85.2,1.35.34a5.81,5.81,0,0,1,.89.33,1.32,1.32,0,0,1,.6.61,2.13,2.13,0,0,1,.22,1,2.88,2.88,0,0,1-.6,1.75,4.18,4.18,0,0,1-1.41,1.24,3.87,3.87,0,0,1-1.83.43,4.38,4.38,0,0,1-1.29-.19A3.32,3.32,0,0,1,50,51.4Z"/><path d="M18.16,34.74q.2-.78.39-1.8a17.32,17.32,0,0,0,.25-1.72l.71.09a4.59,4.59,0,0,0-.06.68,3.42,3.42,0,0,0,.34,1.55,2.37,2.37,0,0,0,1,1,2.83,2.83,0,0,0,1.41.35,2.53,2.53,0,0,0,1.37-.35,3.48,3.48,0,0,0,1-.93,5.39,5.39,0,0,0,.68-1.27,7.33,7.33,0,0,0,.44-2.56A3.19,3.19,0,0,0,25,27.57a2.47,2.47,0,0,0-1.9-.74,2.89,2.89,0,0,0-1.41.34,3.28,3.28,0,0,0-1.12,1.09l-.74-.32.51-2.6q.57-3,.71-3.79t.3-2l.12-.09a36.83,36.83,0,0,0,3.91.16q2.48,0,3.83-.1l.14.22-1.07,2.12q-2,.16-2.92.16-2.65,0-3.32-.08l-1,4.71a5.36,5.36,0,0,1,1.48-.88,5.1,5.1,0,0,1,1.86-.31,5.19,5.19,0,0,1,2.35.5,3.43,3.43,0,0,1,1.53,1.49,4.28,4.28,0,0,1,.53,2A6.58,6.58,0,0,1,28,32.38a6,6,0,0,1-2.24,2.46,6.49,6.49,0,0,1-3.6,1A8.4,8.4,0,0,1,20,35.55,8.29,8.29,0,0,1,18.16,34.74Z"/><path d="M30.95,30.21a16.28,16.28,0,0,1,1.75-7.69q1.75-3.32,4.65-3.32a3.88,3.88,0,0,1,2,.48,3.65,3.65,0,0,1,1.3,1.24,5.86,5.86,0,0,1,.71,1.87,11,11,0,0,1,.24,2.31,17,17,0,0,1-.83,5.21A9.94,9.94,0,0,1,38,34.88a4.34,4.34,0,0,1-2.92,1.06A3.74,3.74,0,0,1,33,35.33a4.17,4.17,0,0,1-1.46-1.84A8.2,8.2,0,0,1,30.95,30.21Zm2.72,2.64a2.75,2.75,0,0,0,.4,1.68,1.23,1.23,0,0,0,1,.5,1.56,1.56,0,0,0,1.32-.67q.86-1.18,1.75-6a35.13,35.13,0,0,0,.7-6.09,2.62,2.62,0,0,0-.43-1.67,1.34,1.34,0,0,0-1.07-.53,1.38,1.38,0,0,0-.92.35,4.51,4.51,0,0,0-1.05,1.95,35.28,35.28,0,0,0-1,4.51A34.69,34.69,0,0,0,33.67,32.85Z"/><path d="M51.34,32.65l.27.75q-1.51,1-2.42,1.55a8.71,8.71,0,0,1-1.74.76,5.31,5.31,0,0,1-1.53.25,3.48,3.48,0,0,1-1.66-.39,2.49,2.49,0,0,1-1.1-1.14,3.86,3.86,0,0,1-.36-1.7,11.19,11.19,0,0,1,.44-3.06,7.09,7.09,0,0,1,1-2.3A5.84,5.84,0,0,1,45.86,26l2-1.21a4.43,4.43,0,0,1,2-.47,5.17,5.17,0,0,1,1.17.13,8.51,8.51,0,0,1,1.37.47,9.66,9.66,0,0,0-.4,1.31q-.28,1.12-.42,2h-.79A7.65,7.65,0,0,0,50.91,27q0-.12,0-.35A3.79,3.79,0,0,0,49.83,26a3.19,3.19,0,0,0-1.16-.22,2.22,2.22,0,0,0-1.14.27,2.7,2.7,0,0,0-.89,1,6.42,6.42,0,0,0-.55,1.49,14.57,14.57,0,0,0-.55,3.5A2.57,2.57,0,0,0,46,33.79a1.63,1.63,0,0,0,1.29.59,5.09,5.09,0,0,0,2-.48A8.28,8.28,0,0,0,51.34,32.65Z"/><path class="cls-7" d="M18.16,34.29q.2-.78.39-1.8a17.32,17.32,0,0,0,.25-1.72l.71.09a4.56,4.56,0,0,0-.06.68,3.42,3.42,0,0,0,.34,1.55,2.37,2.37,0,0,0,1,1,2.83,2.83,0,0,0,1.41.35,2.53,2.53,0,0,0,1.37-.35,3.48,3.48,0,0,0,1-.93,5.39,5.39,0,0,0,.68-1.27,7.33,7.33,0,0,0,.44-2.56A3.18,3.18,0,0,0,25,27.13a2.47,2.47,0,0,0-1.9-.74,2.9,2.9,0,0,0-1.41.34,3.28,3.28,0,0,0-1.12,1.09l-.74-.32.51-2.6q.57-3,.71-3.79t.3-2l.12-.09a36.82,36.82,0,0,0,3.91.16q2.48,0,3.83-.1l.14.22-1.07,2.12q-2,.16-2.92.16-2.65,0-3.32-.08l-1,4.71a5.36,5.36,0,0,1,1.48-.88A5.1,5.1,0,0,1,24.33,25a5.19,5.19,0,0,1,2.35.5A3.43,3.43,0,0,1,28.2,27a4.28,4.28,0,0,1,.53,2A6.59,6.59,0,0,1,28,31.93a6,6,0,0,1-2.24,2.46,6.49,6.49,0,0,1-3.6,1A8.4,8.4,0,0,1,20,35.11,8.29,8.29,0,0,1,18.16,34.29Z"/><path class="cls-7" d="M30.95,29.76a16.28,16.28,0,0,1,1.75-7.69q1.75-3.32,4.65-3.32a3.88,3.88,0,0,1,2,.48,3.65,3.65,0,0,1,1.3,1.24,5.86,5.86,0,0,1,.71,1.87,11,11,0,0,1,.24,2.31,17,17,0,0,1-.83,5.21A9.94,9.94,0,0,1,38,34.43a4.34,4.34,0,0,1-2.92,1.06A3.74,3.74,0,0,1,33,34.89,4.17,4.17,0,0,1,31.5,33,8.19,8.19,0,0,1,30.95,29.76Zm2.72,2.64a2.75,2.75,0,0,0,.4,1.68,1.23,1.23,0,0,0,1,.5,1.56,1.56,0,0,0,1.32-.67q.86-1.18,1.75-6a35.15,35.15,0,0,0,.7-6.09,2.62,2.62,0,0,0-.43-1.67,1.34,1.34,0,0,0-1.07-.53,1.38,1.38,0,0,0-.92.35A4.51,4.51,0,0,0,35.36,22a35.31,35.31,0,0,0-1,4.51A34.69,34.69,0,0,0,33.67,32.4Z"/><path class="cls-7" d="M51.34,32.2l.27.75q-1.51,1-2.42,1.55a8.72,8.72,0,0,1-1.74.76,5.31,5.31,0,0,1-1.53.25,3.48,3.48,0,0,1-1.66-.39A2.49,2.49,0,0,1,43.17,34a3.86,3.86,0,0,1-.36-1.7,11.18,11.18,0,0,1,.44-3.06,7.09,7.09,0,0,1,1-2.3,5.83,5.83,0,0,1,1.6-1.38l2-1.21a4.43,4.43,0,0,1,2-.47A5.17,5.17,0,0,1,51,24a8.5,8.5,0,0,1,1.37.47,9.69,9.69,0,0,0-.4,1.31q-.28,1.12-.42,2h-.79a7.65,7.65,0,0,0,.11-1.24c0-.08,0-.19,0-.35a3.79,3.79,0,0,0-1.07-.65,3.19,3.19,0,0,0-1.16-.22,2.22,2.22,0,0,0-1.14.27,2.7,2.7,0,0,0-.89,1,6.43,6.43,0,0,0-.55,1.49,14.58,14.58,0,0,0-.55,3.5A2.57,2.57,0,0,0,46,33.34a1.63,1.63,0,0,0,1.29.59,5.09,5.09,0,0,0,2-.48A8.28,8.28,0,0,0,51.34,32.2Z"/></svg>