<svg id="Layer_1" data-name="Layer 1" xmlns="http://www.w3.org/2000/svg" xmlns:xlink="http://www.w3.org/1999/xlink" viewBox="0 0 39.19 40.42"><defs><style>.cls-1{fill:url(#linear-gradient);}.cls-2{fill:url(#linear-gradient-2);}.cls-3{fill:url(#linear-gradient-3);}.cls-4{fill:url(#linear-gradient-4);}.cls-5{fill:url(#linear-gradient-5);}.cls-6{fill:url(#linear-gradient-6);}.cls-7{fill:gray;}</style><linearGradient id="linear-gradient" x1="19.59" y1="-0.32" x2="19.59" y2="39.42" gradientUnits="userSpaceOnUse"><stop offset="0" stop-color="#ececec"/><stop offset="0.33" stop-color="#e1e1e1"/><stop offset="0.78" stop-color="#d6d6d6"/><stop offset="1" stop-color="#a8a8a8"/></linearGradient><linearGradient id="linear-gradient-2" x1="766.14" y1="387.61" x2="748.27" y2="390.66" gradientUnits="userSpaceOnUse"><stop offset="0" stop-color="#ececec"/><stop offset="0.15" stop-color="#e1e1e1"/><stop offset="0.36" stop-color="#d6d6d6"/><stop offset="0.65" stop-color="#a8a8a8"/><stop offset="0.79" stop-color="#a5a5a5"/><stop offset="0.88" stop-color="#9d9d9d"/><stop offset="0.95" stop-color="#8f8f8f"/><stop offset="1" stop-color="#7f7f7f"/></linearGradient><linearGradient id="linear-gradient-3" x1="757.37" y1="381.09" x2="777.13" y2="395.68" gradientUnits="userSpaceOnUse"><stop offset="0.65" stop-color="#a8a8a8"/><stop offset="0.79" stop-color="#a5a5a5"/><stop offset="0.88" stop-color="#9d9d9d"/><stop offset="0.95" stop-color="#8f8f8f"/><stop offset="1" stop-color="#7f7f7f"/></linearGradient><linearGradient id="linear-gradient-4" x1="764.08" y1="386.44" x2="764.08" y2="406.54" gradientUnits="userSpaceOnUse"><stop offset="0" stop-color="#f3f3f3"/><stop offset="0.19" stop-color="#e9e9e9"/><stop offset="0.49" stop-color="#dedede"/><stop offset="0.84" stop-color="#afafaf"/><stop offset="1" stop-color="#979797"/></linearGradient><linearGradient id="linear-gradient-5" x1="764.08" y1="387.23" x2="764.08" y2="407.5" gradientUnits="userSpaceOnUse"><stop offset="0" stop-color="#f3f3f3"/><stop offset="0.14" stop-color="#e9e9e9"/><stop offset="0.36" stop-color="#dedede"/><stop offset="0.65" stop-color="#afafaf"/><stop offset="0.76" stop-color="#acacac"/><stop offset="0.84" stop-color="#a4a4a4"/><stop offset="0.9" stop-color="#969696"/><stop offset="0.95" stop-color="#828282"/><stop offset="0.99" stop-color="#686868"/><stop offset="1" stop-color="#646464"/></linearGradient><linearGradient id="linear-gradient-6" x1="778.84" y1="388.76" x2="778.84" y2="409.03" gradientUnits="userSpaceOnUse"><stop offset="0" stop-color="#f3f3f3"/><stop offset="0.31" stop-color="#e9e9e9"/><stop offset="0.78" stop-color="#dedede"/><stop offset="1" stop-color="#afafaf"/></linearGradient></defs><title>5c-cents</title><circle class="cls-1" cx="19.59" cy="19.59" r="19.59"/><path class="cls-2" d="M764.08,372.65v-1.39a16.82,16.82,0,0,0,0,33.65v-1.39a15.44,15.44,0,0,1,0-30.88Z" transform="translate(-744.49 -368.49)"/><path class="cls-3" d="M764.08,371.26v1.39a15.44,15.44,0,1,1,0,30.88v1.39a16.82,16.82,0,1,0,0-33.65Z" transform="translate(-744.49 -368.49)"/><path class="cls-4" d="M764.08,407.68a19.59,19.59,0,0,1-19.59-19.37c0,.08,0,.15,0,.22a19.59,19.59,0,1,0,39.19,0c0-.08,0-.15,0-.22A19.59,19.59,0,0,1,764.08,407.68Z" transform="translate(-744.49 -368.49)"/><path class="cls-5" d="M764.08,408.13a19.59,19.59,0,0,1-19.59-19.21c0,.13,0,.26,0,.39a19.59,19.59,0,1,0,39.19,0c0-.13,0-.26,0-.39A19.59,19.59,0,0,1,764.08,408.13Z" transform="translate(-744.49 -368.49)"/><path class="cls-6" d="M783.67,388.92a19.59,19.59,0,0,1-9.64,16.5q0,.39,0,.78a19.58,19.58,0,0,0,9.66-16.89C783.68,389.18,783.67,389.05,783.67,388.92Z" transform="translate(-744.49 -368.49)"/><path d="M756.95,387.39q.12-.49.25-1.13a10.89,10.89,0,0,0,.16-1.08l.45.06a2.88,2.88,0,0,0,0,.43,2.15,2.15,0,0,0,.22,1,1.49,1.49,0,0,0,.61.65,1.78,1.78,0,0,0,.88.22,1.59,1.59,0,0,0,.86-.22,2.19,2.19,0,0,0,.62-.59,3.38,3.38,0,0,0,.43-.8,4.61,4.61,0,0,0,.28-1.61,2,2,0,0,0-.43-1.41,1.55,1.55,0,0,0-1.2-.47,1.82,1.82,0,0,0-.89.21,2.07,2.07,0,0,0-.7.68l-.46-.2.32-1.64q.36-1.88.44-2.38t.19-1.23l.07-.06a23.14,23.14,0,0,0,2.46.1q1.56,0,2.41-.07l.09.14-.68,1.34q-1.26.1-1.83.1-1.67,0-2.08-.05l-.63,3a3.37,3.37,0,0,1,.93-.55,3.2,3.2,0,0,1,1.17-.19,3.26,3.26,0,0,1,1.47.32,2.16,2.16,0,0,1,1,.94,2.69,2.69,0,0,1,.33,1.28,4.14,4.14,0,0,1-.44,1.8,3.8,3.8,0,0,1-1.41,1.55,4.08,4.08,0,0,1-2.26.62,5.28,5.28,0,0,1-1.39-.18A5.2,5.2,0,0,1,756.95,387.39Z" transform="translate(-744.49 -368.49)"/><path d="M770.29,386.08l.17.47q-.95.65-1.52,1a5.47,5.47,0,0,1-1.09.48,3.34,3.34,0,0,1-1,.16,2.18,2.18,0,0,1-1-.25,1.56,1.56,0,0,1-.69-.72,2.43,2.43,0,0,1-.23-1.07,7,7,0,0,1,.28-1.92,4.46,4.46,0,0,1,.63-1.45,3.67,3.67,0,0,1,1-.87l1.26-.76a2.78,2.78,0,0,1,1.26-.29,3.25,3.25,0,0,1,.74.08,5.37,5.37,0,0,1,.86.3,6.09,6.09,0,0,0-.25.82q-.18.7-.26,1.28h-.5a4.82,4.82,0,0,0,.07-.78s0-.12,0-.22a2.38,2.38,0,0,0-.68-.41,2,2,0,0,0-.73-.14,1.4,1.4,0,0,0-.72.17,1.7,1.7,0,0,0-.56.62,4.05,4.05,0,0,0-.34.94,9.16,9.16,0,0,0-.34,2.2,1.62,1.62,0,0,0,.32,1.08,1,1,0,0,0,.81.37,3.2,3.2,0,0,0,1.24-.3A5.21,5.21,0,0,0,770.29,386.08Z" transform="translate(-744.49 -368.49)"/><path class="cls-7" d="M756.95,387.11q.12-.49.25-1.13a10.89,10.89,0,0,0,.16-1.08l.45.06a2.88,2.88,0,0,0,0,.43,2.15,2.15,0,0,0,.22,1,1.49,1.49,0,0,0,.61.65,1.78,1.78,0,0,0,.88.22,1.59,1.59,0,0,0,.86-.22,2.19,2.19,0,0,0,.62-.59,3.38,3.38,0,0,0,.43-.8,4.61,4.61,0,0,0,.28-1.61,2,2,0,0,0-.43-1.41,1.55,1.55,0,0,0-1.2-.47,1.82,1.82,0,0,0-.89.21,2.07,2.07,0,0,0-.7.68l-.46-.2.32-1.64q.36-1.88.44-2.38t.19-1.23l.07-.06a23.14,23.14,0,0,0,2.46.1q1.56,0,2.41-.07l.09.14-.68,1.34q-1.26.1-1.83.1-1.67,0-2.08-.05l-.63,3a3.37,3.37,0,0,1,.93-.55,3.2,3.2,0,0,1,1.17-.19,3.26,3.26,0,0,1,1.47.32,2.16,2.16,0,0,1,1,.94,2.69,2.69,0,0,1,.33,1.28,4.14,4.14,0,0,1-.44,1.8,3.8,3.8,0,0,1-1.41,1.55,4.08,4.08,0,0,1-2.26.62,5.28,5.28,0,0,1-1.39-.18A5.2,5.2,0,0,1,756.95,387.11Z" transform="translate(-744.49 -368.49)"/><path class="cls-7" d="M770.29,385.8l.17.47q-.95.65-1.52,1a5.47,5.47,0,0,1-1.09.48,3.34,3.34,0,0,1-1,.16,2.18,2.18,0,0,1-1-.25,1.56,1.56,0,0,1-.69-.72,2.43,2.43,0,0,1-.23-1.07,7,7,0,0,1,.28-1.92,4.46,4.46,0,0,1,.63-1.45,3.67,3.67,0,0,1,1-.87l1.26-.76a2.78,2.78,0,0,1,1.26-.29,3.25,3.25,0,0,1,.74.08,5.37,5.37,0,0,1,.86.3,6.09,6.09,0,0,0-.25.82q-.18.7-.26,1.28h-.5a4.82,4.82,0,0,0,.07-.78s0-.12,0-.22a2.38,2.38,0,0,0-.68-.41,2,2,0,0,0-.73-.14,1.4,1.4,0,0,0-.72.17,1.7,1.7,0,0,0-.56.62,4.05,4.05,0,0,0-.34.94,9.16,9.16,0,0,0-.34,2.2,1.62,1.62,0,0,0,.32,1.08,1,1,0,0,0,.81.37,3.2,3.2,0,0,0,1.24-.3A5.21,5.21,0,0,0,770.29,385.8Z" transform="translate(-744.49 -368.49)"/><path d="M755.61,396.34l-.09.33a6,6,0,0,1-.73.41,3.85,3.85,0,0,1-.7.27,3.29,3.29,0,0,1-.87.11,2.75,2.75,0,0,1-1-.17,2,2,0,0,1-.68-.44,1.66,1.66,0,0,1-.38-.6,2.82,2.82,0,0,1-.16-1,4.3,4.3,0,0,1,.24-1.42,3.81,3.81,0,0,1,.56-.91,5.2,5.2,0,0,1,1-.86,4.81,4.81,0,0,1,.9-.41,2.89,2.89,0,0,1,.9-.14,3.72,3.72,0,0,1,.95.12,2,2,0,0,1,.65.26,7.48,7.48,0,0,0-.32,1.37h-.29l0-.69a.24.24,0,0,0,0-.14.51.51,0,0,0-.17-.14,3.23,3.23,0,0,0-.4-.18,2.56,2.56,0,0,0-.74-.1,2.12,2.12,0,0,0-.79.13,1.73,1.73,0,0,0-.57.38,2.1,2.1,0,0,0-.43.66,3.73,3.73,0,0,0-.26.89,7,7,0,0,0-.08,1.13,2.14,2.14,0,0,0,.18.89,1.23,1.23,0,0,0,.54.59,1.78,1.78,0,0,0,.87.2,2.63,2.63,0,0,0,.67-.09,3.27,3.27,0,0,0,.57-.2l.58-.35Z" transform="translate(-744.49 -368.49)"/><path d="M756.2,397.31l0-.26a1.45,1.45,0,0,0,.48-.12.22.22,0,0,0,.07-.1,8.45,8.45,0,0,0,.24-1.12q.08-.44.33-1.84.28-1.57.28-1.75a.17.17,0,0,0,0-.12.42.42,0,0,0-.22-.08l-.54,0,.05-.26,1.33,0,1.48,0h1l.48,0,0,0q0,.22-.17.93,0,.19,0,.34h-.28v-.59a.41.41,0,0,0,0-.15.14.14,0,0,0-.06-.06.57.57,0,0,0-.19-.07L760,392l-.45,0a5.16,5.16,0,0,0-.77,0l-.28,1.44q-.05.26-.12.63l1.14,0,.77,0,0,0-.1.39-.8,0-.71,0h-.39l-.22,1.22-.14.79a2.7,2.7,0,0,0,0,.27,6.78,6.78,0,0,0,1,0l.53,0,.59-.07a.44.44,0,0,0,.16-.07.32.32,0,0,0,.09-.12q0-.08.23-.74h.3l-.12.55-.15.81,0,0a3.66,3.66,0,0,1-.51,0l-1.24,0-1.18,0Q756.75,397.27,756.2,397.31Z" transform="translate(-744.49 -368.49)"/><path d="M761.2,397.31l0-.3.49,0a.29.29,0,0,0,.13-.1,1.4,1.4,0,0,0,.13-.41q.2-.92.31-1.47.39-2,.49-2.63a1.67,1.67,0,0,0-.26-.33.43.43,0,0,0-.17-.08l-.58-.06,0-.27.65,0,1.13,0,.26.46.41.73,1.14,2q.46.79.79,1.34.67-3.58.67-4a.17.17,0,0,0-.12-.17,2.92,2.92,0,0,0-.61-.06l0-.27.74,0,1.22,0,0,.29h-.35a.38.38,0,0,0-.2.05.21.21,0,0,0-.08.08,9.72,9.72,0,0,0-.33,1.34q-.26,1.2-.52,2.63-.09.52-.21,1.33h-.72l-2.58-4.5q-.26,1.35-.31,1.68-.28,1.66-.31,1.9a3.22,3.22,0,0,0,0,.33.27.27,0,0,0,0,.16.28.28,0,0,0,.15.08,2.82,2.82,0,0,0,.54,0l0,.3-1.14,0Z" transform="translate(-744.49 -368.49)"/><path d="M768.54,397.31l0-.29a2.44,2.44,0,0,0,.63,0,.22.22,0,0,0,.1-.07.84.84,0,0,0,.11-.31q.13-.65.39-2.1t.42-2.42H770a3.33,3.33,0,0,0-1.19.11,2,2,0,0,0-.32.89h-.3q.11-.59.21-1.39l0,0,1,0,1.07,0,1.84,0q.52,0,.85-.05l.06.07q-.17.89-.21,1.06t0,.32h-.3a5.44,5.44,0,0,0,0-.63.51.51,0,0,0,0-.26.25.25,0,0,0-.14-.07,5,5,0,0,0-.82,0h-.45L771,394q-.16.84-.32,1.83-.11.66-.13.85t0,.15a.22.22,0,0,0,0,.14.23.23,0,0,0,.13.07,4.07,4.07,0,0,0,.62,0l0,.29-1.4,0Z" transform="translate(-744.49 -368.49)"/><path d="M773.14,397q0-.17.12-.61t.09-.66h.27v.46q0,.09,0,.25a1.2,1.2,0,0,0,.49.37,1.73,1.73,0,0,0,.76.17,1.28,1.28,0,0,0,1-.3,1,1,0,0,0,.28-.73,1.23,1.23,0,0,0,0-.36.57.57,0,0,0-.16-.25.86.86,0,0,0-.28-.17L775,395a2.54,2.54,0,0,1-1-.43,1.24,1.24,0,0,1-.39-1,1.91,1.91,0,0,1,.65-1.43,2.26,2.26,0,0,1,1.61-.62,2.44,2.44,0,0,1,.69.09,2,2,0,0,1,.59.28q-.08.3-.12.53t-.11.69h-.26q0-.16,0-.28s0-.16,0-.38a.89.89,0,0,0-.18-.19,1.37,1.37,0,0,0-.38-.19,1.6,1.6,0,0,0-.52-.08,1.32,1.32,0,0,0-.63.14.94.94,0,0,0-.4.38,1.25,1.25,0,0,0-.13.59.88.88,0,0,0,.12.48,1,1,0,0,0,.52.3l.84.21a3.63,3.63,0,0,1,.56.21.82.82,0,0,1,.38.38,1.33,1.33,0,0,1,.14.62,1.8,1.8,0,0,1-.37,1.09,2.61,2.61,0,0,1-.88.77,2.42,2.42,0,0,1-1.14.27,2.74,2.74,0,0,1-.8-.12A2.07,2.07,0,0,1,773.14,397Z" transform="translate(-744.49 -368.49)"/><path class="cls-7" d="M755.61,396.06l-.09.33a6,6,0,0,1-.73.41,3.85,3.85,0,0,1-.7.27,3.29,3.29,0,0,1-.87.11,2.75,2.75,0,0,1-1-.17,2,2,0,0,1-.68-.44,1.66,1.66,0,0,1-.38-.6,2.82,2.82,0,0,1-.16-1,4.3,4.3,0,0,1,.24-1.42,3.81,3.81,0,0,1,.56-.91,5.2,5.2,0,0,1,1-.86,4.81,4.81,0,0,1,.9-.41,2.89,2.89,0,0,1,.9-.14,3.72,3.72,0,0,1,.95.12,2,2,0,0,1,.65.26,7.48,7.48,0,0,0-.32,1.37h-.29l0-.69a.24.24,0,0,0,0-.14.51.51,0,0,0-.17-.14,3.23,3.23,0,0,0-.4-.18,2.56,2.56,0,0,0-.74-.1,2.12,2.12,0,0,0-.79.13,1.73,1.73,0,0,0-.57.38,2.1,2.1,0,0,0-.43.66,3.73,3.73,0,0,0-.26.89,7,7,0,0,0-.08,1.13,2.14,2.14,0,0,0,.18.89,1.23,1.23,0,0,0,.54.59,1.78,1.78,0,0,0,.87.2,2.63,2.63,0,0,0,.67-.09,3.27,3.27,0,0,0,.57-.2l.58-.35Z" transform="translate(-744.49 -368.49)"/><path class="cls-7" d="M756.2,397l0-.26a1.45,1.45,0,0,0,.48-.12.22.22,0,0,0,.07-.1,8.45,8.45,0,0,0,.24-1.12q.08-.44.33-1.84.28-1.57.28-1.75a.17.17,0,0,0,0-.12.42.42,0,0,0-.22-.08l-.54,0,.05-.26,1.33,0,1.48,0h1l.48,0,0,0q0,.22-.17.93,0,.19,0,.34h-.28v-.59a.41.41,0,0,0,0-.15.14.14,0,0,0-.06-.06.57.57,0,0,0-.19-.07l-.46-.06-.45,0a5.16,5.16,0,0,0-.77,0l-.28,1.44q-.05.26-.12.63l1.14,0,.77,0,0,0-.1.39-.8,0-.71,0h-.39l-.22,1.22-.14.79a2.7,2.7,0,0,0,0,.27,6.78,6.78,0,0,0,1,0l.53,0,.59-.07a.44.44,0,0,0,.16-.07.32.32,0,0,0,.09-.12q0-.08.23-.74h.3l-.12.55-.15.81,0,0a3.66,3.66,0,0,1-.51,0l-1.24,0-1.18,0Q756.75,397,756.2,397Z" transform="translate(-744.49 -368.49)"/><path class="cls-7" d="M761.2,397l0-.3.49,0a.29.29,0,0,0,.13-.1,1.4,1.4,0,0,0,.13-.41q.2-.92.31-1.47.39-2,.49-2.63a1.67,1.67,0,0,0-.26-.33.43.43,0,0,0-.17-.08l-.58-.06,0-.27.65,0,1.13,0,.26.46.41.73,1.14,2q.46.79.79,1.34.67-3.58.67-4a.17.17,0,0,0-.12-.17,2.92,2.92,0,0,0-.61-.06l0-.27.74,0,1.22,0,0,.29h-.35a.38.38,0,0,0-.2.05.21.21,0,0,0-.08.08,9.72,9.72,0,0,0-.33,1.34q-.26,1.2-.52,2.63-.09.52-.21,1.33h-.72l-2.58-4.5q-.26,1.35-.31,1.68-.28,1.66-.31,1.9a3.22,3.22,0,0,0,0,.33.27.27,0,0,0,0,.16.28.28,0,0,0,.15.08,2.82,2.82,0,0,0,.54,0l0,.3L762,397Z" transform="translate(-744.49 -368.49)"/><path class="cls-7" d="M768.54,397l0-.29a2.44,2.44,0,0,0,.63,0,.22.22,0,0,0,.1-.07.84.84,0,0,0,.11-.31q.13-.65.39-2.1t.42-2.42H770a3.33,3.33,0,0,0-1.19.11,2,2,0,0,0-.32.89h-.3q.11-.59.21-1.39l0,0,1,0,1.07,0,1.84,0q.52,0,.85-.05l.06.07q-.17.89-.21,1.06t0,.32h-.3a5.44,5.44,0,0,0,0-.63.51.51,0,0,0,0-.26.25.25,0,0,0-.14-.07,5,5,0,0,0-.82,0h-.45l-.36,1.87q-.16.84-.32,1.83-.11.66-.13.85t0,.15a.22.22,0,0,0,0,.14.23.23,0,0,0,.13.07,4.07,4.07,0,0,0,.62,0l0,.29-1.4,0Z" transform="translate(-744.49 -368.49)"/><path class="cls-7" d="M773.14,396.73q0-.17.12-.61t.09-.66h.27v.46q0,.09,0,.25a1.2,1.2,0,0,0,.49.37,1.73,1.73,0,0,0,.76.17,1.28,1.28,0,0,0,1-.3,1,1,0,0,0,.28-.73,1.23,1.23,0,0,0,0-.36.57.57,0,0,0-.16-.25.86.86,0,0,0-.28-.17l-.58-.2a2.54,2.54,0,0,1-1-.43,1.24,1.24,0,0,1-.39-1,1.91,1.91,0,0,1,.65-1.43,2.26,2.26,0,0,1,1.61-.62,2.44,2.44,0,0,1,.69.09,2,2,0,0,1,.59.28q-.08.3-.12.53t-.11.69h-.26q0-.16,0-.28s0-.16,0-.38a.89.89,0,0,0-.18-.19,1.37,1.37,0,0,0-.38-.19,1.6,1.6,0,0,0-.52-.08,1.32,1.32,0,0,0-.63.14.94.94,0,0,0-.4.38,1.25,1.25,0,0,0-.13.59.88.88,0,0,0,.12.48,1,1,0,0,0,.52.3l.84.21a3.63,3.63,0,0,1,.56.21.82.82,0,0,1,.38.38,1.33,1.33,0,0,1,.14.62,1.8,1.8,0,0,1-.37,1.09,2.61,2.61,0,0,1-.88.77,2.42,2.42,0,0,1-1.14.27,2.74,2.74,0,0,1-.8-.12A2.07,2.07,0,0,1,773.14,396.73Z" transform="translate(-744.49 -368.49)"/></svg>