<?xml version="1.0" encoding="utf-8"?>
<svg version="1.1" id="Layer_1"  xmlns="http://www.w3.org/2000/svg"
	 x="0px" y="0px" viewBox="0 0 100 100" enable-background="new -0.5 -0.5 100 100" xml:space="preserve">
     <g id="cross">
		<path style="fill:#00CC00;" d="M67,14.2c-7.1,2.9-15,9-23.9,18.4l-2.7,2.8l2.1,2.5c8.1,8.6,15.8,12.8,22.9,12.8l5.6-0.9l-5.6,8.9
			L59,60.6c-5.4,0-12.8-4.8-22-14.2l-3.6-3l-1.6,1.9C23,55.7,16.3,61,11.6,61C8,61,4.6,58.3,1,53l2.9,0.2c5.9,0,12.7-4.8,20.3-14.1
			l2.7-3.1l-1.8-1.9c-9.2-10.4-13.9-17.6-13.9-21.5c0-3.1,2.4-7,7.3-11.7c2.1,9,6.6,17.5,13.2,25.2l1.6,1.9l2.6-3.4
			C45.4,13.8,53,8.4,58.7,8.4l6.8,3.9L67,14.2"/>
	</g>
</svg>