<svg xmlns="http://www.w3.org/2000/svg" xmlns:xlink="http://www.w3.org/1999/xlink" viewBox="0 0 46.74 49.67"><defs><style>.cls-1{isolation:isolate;}.cls-2{fill:url(#radial-gradient);}.cls-3{fill:#fff;}.cls-4{fill:url(#linear-gradient);}.cls-5{mix-blend-mode:multiply;fill:url(#radial-gradient-2);}.cls-6,.cls-7{mix-blend-mode:screen;}.cls-6{fill:url(#linear-gradient-2);}.cls-7{fill:url(#linear-gradient-3);}.cls-8{fill:#94a7af;}.cls-9{fill:url(#radial-gradient-3);}.cls-10{fill:url(#radial-gradient-4);}.cls-11{fill:#263032;}.cls-12{fill:url(#radial-gradient-5);}.cls-13{fill:url(#radial-gradient-6);}</style><radialGradient id="radial-gradient" cx="26.4" cy="23.12" r="23.23" gradientUnits="userSpaceOnUse"><stop offset="0" stop-color="#fff200"/><stop offset="0.44" stop-color="#fff002"/><stop offset="0.6" stop-color="#feea09"/><stop offset="0.72" stop-color="#fedf14"/><stop offset="0.81" stop-color="#fdd025"/><stop offset="0.89" stop-color="#fbbc3b"/><stop offset="0.9" stop-color="#fbb840"/></radialGradient><linearGradient id="linear-gradient" x1="25.23" y1="34.47" x2="25.23" y2="10.85" gradientUnits="userSpaceOnUse"><stop offset="0" stop-color="#fbb840"/><stop offset="0.37" stop-color="#fdd223"/><stop offset="0.76" stop-color="#fee909"/><stop offset="1" stop-color="#fff200"/></linearGradient><radialGradient id="radial-gradient-2" cx="26" cy="22.97" r="15.36" xlink:href="#radial-gradient"/><linearGradient id="linear-gradient-2" x1="25.23" y1="11.31" x2="25.23" y2="19.73" gradientUnits="userSpaceOnUse"><stop offset="0" stop-color="#a7a9ac"/><stop offset="0.15" stop-color="#a3a5a8"/><stop offset="0.3" stop-color="#97999b"/><stop offset="0.46" stop-color="#838487"/><stop offset="0.62" stop-color="#666869"/><stop offset="0.78" stop-color="#424344"/><stop offset="0.94" stop-color="#161617"/><stop offset="1" stop-color="#050505"/></linearGradient><linearGradient id="linear-gradient-3" x1="25.19" y1="11.31" x2="25.19" y2="16.01" gradientUnits="userSpaceOnUse"><stop offset="0" stop-color="#a7a9ac"/><stop offset="0.16" stop-color="#a3a5a8"/><stop offset="0.33" stop-color="#97999b"/><stop offset="0.51" stop-color="#848487"/><stop offset="0.68" stop-color="#686769"/><stop offset="0.86" stop-color="#454344"/><stop offset="1" stop-color="#231f20"/></linearGradient><radialGradient id="radial-gradient-3" cx="35.62" cy="-3.89" r="24.86" gradientUnits="userSpaceOnUse"><stop offset="0" stop-color="#f4f5f9"/><stop offset="0.09" stop-color="#eff1f6"/><stop offset="0.2" stop-color="#e2e7ee"/><stop offset="0.31" stop-color="#ccd5e0"/><stop offset="0.42" stop-color="#acbdcd"/><stop offset="0.46" stop-color="#9eb2c4"/><stop offset="0.55" stop-color="#91a4b4"/><stop offset="0.71" stop-color="#6e7e8a"/><stop offset="0.94" stop-color="#364246"/><stop offset="1" stop-color="#263032"/></radialGradient><radialGradient id="radial-gradient-4" cx="38.93" cy="-8.41" r="27.76" xlink:href="#radial-gradient-3"/><radialGradient id="radial-gradient-5" cx="18.46" cy="23.38" r="38.5" gradientUnits="userSpaceOnUse"><stop offset="0" stop-color="#9eb2c4"/><stop offset="0.16" stop-color="#91a4b4"/><stop offset="0.46" stop-color="#6e7e8a"/><stop offset="0.88" stop-color="#364246"/><stop offset="1" stop-color="#263032"/></radialGradient><radialGradient id="radial-gradient-6" cx="23.59" cy="16.39" r="42.98" xlink:href="#radial-gradient-5"/></defs><title>CloudSun</title><g class="cls-1"><g id="Layer_1" data-name="Layer 1"><path class="cls-2" d="M43.22,22.66c0,1-3.88,1.56-4,2.46s3.28,2.82,3,3.69-4.17.12-4.64.93,2.11,3.77,1.51,4.48-4-1.32-4.68-.71.71,4.26-.11,4.73S31,35.65,30.08,36s-.79,4.24-1.72,4.41-2.17-3.56-3.12-3.56S23,40.54,22.11,40.38s-.85-4.09-1.72-4.41S17,38.71,16.23,38.24s.61-4.13-.11-4.73-4.08,1.43-4.68.71,2-3.67,1.51-4.48-4.32,0-4.64-.93,3.12-2.76,3-3.69-4-1.51-4-2.46,3.88-1.56,4-2.46-3.28-2.82-3-3.69,4.17-.12,4.64-.93-2.11-3.77-1.51-4.48,4,1.32,4.68.71-.71-4.26.11-4.73,3.27,2.59,4.15,2.27.79-4.24,1.72-4.41S24.28,8.5,25.23,8.5s2.22-3.72,3.12-3.56S29.21,9,30.08,9.35s3.35-2.73,4.15-2.27-.61,4.13.11,4.73,4.08-1.43,4.68-.71-2,3.67-1.51,4.48,4.32,0,4.64.93-3.12,2.76-3,3.69S43.22,21.71,43.22,22.66Z"/><circle class="cls-3" cx="25.35" cy="22.66" r="12.77"/><circle class="cls-4" cx="25.23" cy="22.66" r="11.81"/><circle class="cls-5" cx="25.23" cy="22.66" r="11.81"/><path class="cls-6" d="M34.45,19.73a9,9,0,0,0-9.22-8.42A9,9,0,0,0,16,19.73Z"/><path class="cls-7" d="M31.69,16c-.14-2.61-3-4.7-6.5-4.7s-6.36,2.09-6.5,4.7Z"/><path class="cls-8" d="M34.93,13.08a3.87,3.87,0,0,1-3-1.32,2,2,0,0,1-1.48.64,2,2,0,0,1-1.78-1,3.43,3.43,0,0,1-1.64.42,3.21,3.21,0,0,1-3.3-3.11,3.16,3.16,0,0,1,2.84-3.08,2.05,2.05,0,0,1,2.06-1.9,2.11,2.11,0,0,1,.53.07C29,2,30.6.42,32.82.07A5.54,5.54,0,0,1,33.67,0,4.46,4.46,0,0,1,36.4.86,2.91,2.91,0,0,1,37,.79a4.44,4.44,0,0,1,2.27.69,3.76,3.76,0,0,1,1.95,2.78h.09a4.42,4.42,0,0,1,2.26,1A2,2,0,0,1,44.39,7a1.52,1.52,0,0,1-.07.29c1.56.43,2.57,1.5,2.41,2.59s-1.37,1.8-3,1.8a5.36,5.36,0,0,1-.73-.05,4.92,4.92,0,0,1-1.5-.47,2,2,0,0,1-1.41.56,2.1,2.1,0,0,1-.36,0,2,2,0,0,1-1.14-.62,4.15,4.15,0,0,1-3,2,4.65,4.65,0,0,1-.72.06Z"/><path class="cls-9" d="M44.1,7.4A1.42,1.42,0,0,0,44.23,7c.17-1.15-1.14-2.3-2.91-2.55l-.22,0a3.48,3.48,0,0,0-1.87-2.79A3.86,3.86,0,0,0,36.36,1,4.54,4.54,0,0,0,32.84.22c-2.23.35-3.81,2-3.54,3.71V4a2,2,0,0,0-.71-.14,1.89,1.89,0,0,0-1.92,1.87h0a3,3,0,0,0-2.83,2.94,3.06,3.06,0,0,0,3.15,3,3.29,3.29,0,0,0,1.71-.47,1.89,1.89,0,0,0,3.2.38,3.82,3.82,0,0,0,3.71,1.35,3.92,3.92,0,0,0,3-2.07,1.89,1.89,0,0,0,2.91.18,4.67,4.67,0,0,0,1.55.5c1.78.26,3.35-.47,3.52-1.62S45.65,7.76,44.1,7.4Z"/><path class="cls-10" d="M30.07,4.24a2.09,2.09,0,0,0,.09.34,2.15,2.15,0,0,1-.34-.85C29.59,2.24,31,.79,32.91.49c1.79-.28,2.53.17,3.28,1.18a3.56,3.56,0,0,0-3-.67C31.22,1.3,29.84,2.75,30.07,4.24Zm9-2.37c-1.34-.82-2.87-.79-3.4.08a1.31,1.31,0,0,0-.18.68,1.15,1.15,0,0,1,.15-.42c.51-.82,1.94-.86,3.21-.08S40.76,4.21,40.25,5a1.31,1.31,0,0,1-.79.55,1.5,1.5,0,0,0,1.11-.65C41.11,4.07,40.45,2.69,39.11,1.86Zm2.4,2.93a4,4,0,0,0-.94,0l.31,0c1.71.25,3,1.35,2.8,2.46a1.37,1.37,0,0,1-.07.27,1.22,1.22,0,0,0,.3-.63C44,6,43,5,41.51,4.8ZM27.25,10.94a2.51,2.51,0,0,0,.58-.07,2.72,2.72,0,0,1-1,.19,2.51,2.51,0,0,1-2.59-2.43,2.51,2.51,0,0,1,2.59-2.43,2.82,2.82,0,0,1,.43,0A2.4,2.4,0,0,0,24.8,8.6,2.4,2.4,0,0,0,27.25,10.94Zm3,.73a1.86,1.86,0,0,1-1.33-1.84,1.58,1.58,0,0,0-.09.32,1.62,1.62,0,0,0,3.19.57,1.67,1.67,0,0,0,0-.25A1.79,1.79,0,0,1,30.25,11.68ZM38.4,9.38a2.24,2.24,0,0,0-.16-.56s0,.07,0,.11a3,3,0,0,1-2.72,3.17A3,3,0,0,1,32,9.93s0-.08,0-.13a2.22,2.22,0,0,0,0,.59,3,3,0,0,0,3.63,2.16A3,3,0,0,0,38.4,9.38Zm1.47,1.79a1.93,1.93,0,0,1-1.2-.74,1.74,1.74,0,0,0,3.09,0A1.94,1.94,0,0,1,39.88,11.17ZM28.93,4.22a2.08,2.08,0,0,1,.56.08,1.64,1.64,0,0,0-1-.31,1.6,1.6,0,0,0-1.62,1.58,1.57,1.57,0,0,0,0,.24A2,2,0,0,1,28.93,4.22Zm15,3.44c1.25.45,2.05,1.22,1.93,2C45.69,10.65,44,11.25,42,11h0a5,5,0,0,0,1,.23c1.69.22,3.19-.41,3.34-1.41S45.4,8,43.92,7.66ZM32.28,9.82a2.32,2.32,0,0,1,.47-1.76,2.42,2.42,0,0,0-.92,2.21,2.82,2.82,0,0,0,3.4,2,3.5,3.5,0,0,0,1.45-.57,4.19,4.19,0,0,1-.72.18C34.16,12.2,32.51,11.26,32.28,9.82Z"/><path class="cls-11" d="M17.39,49.67a6,6,0,0,1-4.68-2,3.13,3.13,0,0,1-2.29,1,3.21,3.21,0,0,1-.55,0A3.17,3.17,0,0,1,7.66,47a5.32,5.32,0,0,1-2.55.64A5,5,0,0,1,0,42.82a4.9,4.9,0,0,1,4.39-4.76,3.18,3.18,0,0,1,3.19-2.94,3.27,3.27,0,0,1,.82.11c-.21-2.65,2.28-5.17,5.72-5.71a8.52,8.52,0,0,1,1.32-.1,6.92,6.92,0,0,1,4.23,1.33,4.53,4.53,0,0,1,1-.11,6.87,6.87,0,0,1,3.52,1.08,5.83,5.83,0,0,1,3,4.31l.14,0a6.84,6.84,0,0,1,3.5,1.51A3.05,3.05,0,0,1,32,40.25a2.27,2.27,0,0,1-.11.45c2.42.67,4,2.32,3.74,4s-2.12,2.79-4.58,2.79a8,8,0,0,1-1.13-.08,7.62,7.62,0,0,1-2.32-.72,3.16,3.16,0,0,1-4.5-.14,6.43,6.43,0,0,1-4.62,3,7.29,7.29,0,0,1-1.12.09Z"/><path class="cls-12" d="M31.6,40.86a2.18,2.18,0,0,0,.2-.65c.26-1.79-1.76-3.55-4.51-4l-.34,0c.06-1.44-1-3.18-2.9-4.32A6,6,0,0,0,19.61,31a7,7,0,0,0-5.45-1.25c-3.45.54-5.9,3.11-5.49,5.75l0,.07a3,3,0,0,0-1.1-.21,2.93,2.93,0,0,0-3,2.89v0a4.57,4.57,0,1,0,.49,9.13,5.09,5.09,0,0,0,2.64-.73,2.92,2.92,0,0,0,5,.59,5.91,5.91,0,0,0,5.75,2.09,6.08,6.08,0,0,0,4.61-3.21,2.93,2.93,0,0,0,4.5.28,7.21,7.21,0,0,0,2.4.78c2.75.4,5.19-.73,5.45-2.51C35.66,43,34,41.43,31.6,40.86Z"/><path class="cls-13" d="M9.87,36a3.25,3.25,0,0,0,.14.53,3.33,3.33,0,0,1-.52-1.32c-.36-2.3,1.78-4.54,4.79-5,2.77-.44,3.92.27,5.08,1.83a5.51,5.51,0,0,0-4.69-1C11.65,31.43,9.51,33.67,9.87,36Zm14-3.68c-2.08-1.28-4.44-1.22-5.27.13a2,2,0,0,0-.29,1.05,1.86,1.86,0,0,1,.23-.65c.78-1.27,3-1.33,5-.12s2.92,3.21,2.13,4.49a2,2,0,0,1-1.23.86,2.32,2.32,0,0,0,1.72-1C27,35.7,25.94,33.57,23.86,32.29Zm3.71,4.54a6.17,6.17,0,0,0-1.45,0l.48.05c2.65.39,4.59,2.09,4.34,3.81a2.11,2.11,0,0,1-.11.41,1.89,1.89,0,0,0,.46-1C31.51,38.62,29.84,37.17,27.58,36.84ZM5.5,46.35a3.9,3.9,0,0,0,.89-.1,4.2,4.2,0,0,1-1.57.3,3.76,3.76,0,1,1,0-7.51,4.21,4.21,0,0,1,.67.06,3.63,3.63,0,1,0,0,7.26Zm4.65,1.13a2.87,2.87,0,0,1-2.07-2.84,2.53,2.53,0,0,0-.15.5,2.51,2.51,0,1,0,5,.49A2.76,2.76,0,0,1,10.15,47.49Zm12.62-3.55a3.57,3.57,0,0,0-.25-.86c0,.06,0,.12,0,.17.36,2.28-1.53,4.48-4.22,4.9s-5.16-1.09-5.52-3.37c0-.07,0-.13,0-.19a3.48,3.48,0,0,0,0,.92c.36,2.28,2.88,3.78,5.63,3.35S23.13,46.22,22.77,43.94Zm2.28,2.77a3,3,0,0,1-1.86-1.15,2.69,2.69,0,0,0,4.78,0A3,3,0,0,1,25.05,46.71ZM8.1,35.95a3.26,3.26,0,0,1,.86.13,2.53,2.53,0,0,0-1.48-.48A2.48,2.48,0,0,0,5,38.05a2.35,2.35,0,0,0,0,.38A3.13,3.13,0,0,1,8.1,35.95Zm23.21,5.32c1.93.69,3.18,1.89,3,3.06-.25,1.57-2.93,2.5-6,2.1h0a7.61,7.61,0,0,0,1.49.35c2.61.35,4.94-.63,5.18-2.18S33.6,41.76,31.31,41.27Zm-18,3.35A3.6,3.6,0,0,1,14,41.9a3.75,3.75,0,0,0-1.43,3.43c.34,2.14,2.69,3.54,5.27,3.14a5.41,5.41,0,0,0,2.25-.89,6.42,6.42,0,0,1-1.11.28C16.2,48.3,13.64,46.85,13.29,44.62Z"/></g></g></svg>