<?xml version="1.0" encoding="utf-8"?>
<svg version="1.1" id="Layer_1"  xmlns="http://www.w3.org/2000/svg"
	 x="0px" y="0px" viewBox="0 0 225 245" enable-background="new -0.5 -0.5 225 245" xml:space="preserve">
<g id="frogBottleButton" cursor="pointer">
	<g id="Layer_2_1_">
		<g>
			<path fill="#999999" d="M219.9,167.2V85.4c-0.8-15.4-9.3-23.8-25.7-24.9c-4-5.6-4.1-11.7-0.4-18.2L194,42l0.4-1.4
				c0-0.6-0.2-1.1-0.6-1.5l-0.9-0.8l-0.4-0.2l-1.6-0.4L29.1,37.6L28,37.7l-0.6,0.2l-0.8,0.6c-0.4,0.4-0.6,0.7-0.8,1.2v0.1v0.1
				c-0.2,0.5-0.2,0.8-0.2,1.2v0.1l0.4,1.1c3.8,6.5,3.6,12.7-0.2,18.2C9.3,61.7,0.8,70.1,0,85.4v81.8c0.6,14,9.1,21.1,25.3,21.3
				l0.2,13.3c0.2,0.6,0.4,1.1,0.9,1.5l0.6,0.4l1,0.5h0.2c53.6,12.4,108,12.4,163.5,0l1.5-0.5l0.4-0.4l0.8-0.9l0.2-0.6v-0.7v-12.5
				C210.9,188.3,219.4,181.1,219.9,167.2"/>
			<path fill="#FFFFFF" d="M213.4,166.9V85.4c-0.6-12.3-7.7-18.8-21.1-19.4l-1.5-0.4l-1-0.8c-5.5-6.6-6.6-13.7-3.6-21.3l-152.3,0
				c3,7.7,1.9,14.8-3.6,21.4l-1,0.8L28,66.1c-13.6,0.5-20.6,7-21.2,19.3v81.5c0.6,10.9,8.1,15.9,22,15.5l1.7,0.4l1.1,1.3
				c0.2,0.5,0.4,0.9,0.4,1.5v13.3c51.1,11.5,103.1,11.5,155.8,0v-13.3c0-0.6,0.2-1.1,0.6-1.5l1.1-1.2l1.7-0.4
				C205.2,183.1,212.8,177.8,213.4,166.9"/>
			<path fill="#FFCC00" d="M203.9,14.2c-0.2,3.5-9.1,6.6-27.1,9.2c-12.9,1.9-27.8,3.2-44.5,3.7l-20.8,0.3c-25.5,0-47.3-1.3-65.3-4
				c-13-2-21.4-4.3-25-6.7c-1.3-0.9-2.1-1.9-2.1-2.8l-0.4,31.9c0.2,0.9,1,1.9,2.3,2.8c3.5,2.5,12,4.8,25.1,6.6
				c18.1,2.7,39.9,4,65.3,4l20.8-0.4c16.8-0.6,31.6-1.8,44.5-3.7c17.9-2.6,26.9-5.8,27.1-9.6L203.9,14.2"/>
			<path fill="#FFCC00" d="M176.8,23.3c17.9-2.6,26.9-5.7,27.1-9.2v-0.5c-0.2-3.7-9.1-6.9-27.1-9.6c-18.1-2.5-39.9-4-65.3-4
				S64.2,1.3,46.1,4c-18,2.6-26.9,5.8-27.1,9.6v0.1c0,0.9,0.8,1.9,2.1,2.8c3.5,2.5,11.9,4.8,25,6.6c18.1,2.7,39.9,4,65.3,4l20.8-0.4
				C149.1,26.5,163.9,25.2,176.8,23.3"/>
			<path vector-effect="non-scaling-stroke" fill="none" stroke="#FF9900" stroke-linecap="round" stroke-linejoin="round" d="
				M203.9,45.6V14.1v-0.5c-0.2-3.7-9.1-6.9-27.1-9.6c-18.1-2.5-39.9-4-65.3-4S64.2,1.3,46.1,4c-18,2.6-26.9,5.8-27.1,9.6v0.1
				l-0.4,31.9c0.2,0.9,1,1.9,2.3,2.8c3.5,2.5,12,4.8,25.1,6.6c18.1,2.7,39.9,4,65.3,4l20.8-0.4c16.8-0.6,31.6-1.8,44.5-3.7
				C194.8,52.6,203.8,49.4,203.9,45.6"/>
			<path vector-effect="non-scaling-stroke" fill="none" stroke="#FF9900" stroke-linecap="round" stroke-linejoin="round" d="
				M203.9,14.2c-0.2,3.5-9.1,6.6-27.1,9.2c-12.9,1.9-27.8,3.2-44.5,3.7l-20.8,0.3c-25.5,0-47.3-1.3-65.3-4c-13-2-21.4-4.3-25-6.7
				c-1.3-0.9-2.1-1.9-2.1-2.8"/>
			<path fill="#FF9900" d="M27.2,23.1v23.4h3.2V23.1H27.2"/>
			<path fill="#FF9900" d="M38.1,27.1v23.4h3.2V27.1H38.1"/>
			<path fill="#FF9900" d="M49,28.5v23.4h3.2V28.5H49"/>
			<path fill="#FF9900" d="M59.9,30.1v23.3h3.2V29.9L59.9,30.1"/>
			<path fill="#FF9900" d="M71,30.9v23.4h3.2V30.9H71"/>
			<path fill="#FF9900" d="M81.9,32.1v23.4h3.2V32.1H81.9"/>
			<path fill="#FF9900" d="M92.8,32.4v23.3H96V32.3L92.8,32.4"/>
			<path fill="#FF9900" d="M103.6,33v23.4h3.2V33H103.6"/>
			<path fill="#FF9900" d="M195.5,23.1v23.4h-3.2V23.1H195.5"/>
			<path fill="#FF9900" d="M184.6,27.1v23.4h-3.2V27.1H184.6"/>
			<path fill="#FF9900" d="M173.6,28.5v23.4h-3.2V28.5H173.6"/>
			<path fill="#FF9900" d="M162.8,30.1v23.3h-3.2V29.9L162.8,30.1"/>
			<path fill="#FF9900" d="M151.8,30.9v23.4h-3.2V30.9H151.8"/>
			<path fill="#FF9900" d="M140.8,32.1v23.4h-3.2V32.1H140.8"/>
			<path fill="#FF9900" d="M130,32.4v23.3h-3.2V32.3L130,32.4"/>
			<path fill="#FF9900" d="M118.9,33v23.4h-3.2V33H118.9"/>
			<path fill="#999999" d="M175.3,171.3l-1.1-0.2H46.3c-0.6,0-0.9,0.1-1.1,0.2c-0.2,0.2-0.6,0.5-0.6,0.7v47.1c0,0.2,0.2,0.5,0.6,0.7
				l1.1,0.2h128l1-0.2l0.2-0.2v-48.2L175.3,171.3"/>
			<path fill="#FFFFFF" d="M172.5,218.2v-45.1H48v45.1L172.5,218.2"/>
			<path d="M140.2,190.1c0-0.7-0.2-1.3-0.8-1.5c-0.4-0.2-1.1-0.4-2.1-0.4c-2.2,0-3.9,0.1-5.1,0.6c-1.9,0.6-2.8,1.7-2.8,3.3
				c0,1.2,0.6,2.2,1.9,3c0.6,0.4,1.7,0.8,3.5,1.5c1.3,0.5,1.9,0.9,1.9,1.4c0,0.6-0.9,0.9-2.7,0.9c-0.4,0-1-0.1-1.9-0.4
				c-0.8-0.2-1.3-0.4-1.9-0.4c-1,0-1.6,0.4-1.6,1.2s0.6,1.5,1.9,2c1,0.4,2.1,0.5,3.2,0.5c1.7,0,3.1-0.2,4.4-0.8
				c1.5-0.7,2.1-1.8,2.1-3.2c0-1.1-0.6-2-1.9-2.8c-0.6-0.5-1.9-1.1-3.6-1.8c-1.3-0.5-1.9-0.9-1.9-1.2c0-0.6,1-0.8,3.1-0.8
				c0.4,0,0.8,0,1.1,0.1c0.2,0.7,0.6,1.1,1.6,1.1C139.7,192.2,140.2,191.6,140.2,190.1"/>
			<path d="M125.8,189.9c-0.4-0.4-0.8-0.7-1.5-0.8c-0.6-0.2-1.3-0.4-2.1-0.4c-2.6,0-4.7,0.7-6.3,2.2c-1.5,1.3-2.2,3.1-2.2,5.3
				c0,1.7,0.6,3,1.7,4c1,1.1,2.5,1.5,4.4,1.5c0.6,0,1.3-0.1,1.9-0.4s1-0.5,1.5-0.9c-0.2,1.5-0.4,2.7-1,3.5c-0.6,0.7-1.7,1.1-3,1.1
				c-0.6,0-1.3-0.1-1.9-0.2c-0.8-0.1-1.3-0.1-1.7-0.1c-0.6,0-0.9,0.1-1.1,0.4c-0.2,0.2-0.6,0.6-0.6,1.1c0,1.3,1.7,1.9,5.1,1.9
				c3,0,5.1-0.8,6.3-2.4c0.9-1.2,1.3-3.1,1.5-5.7c0-2.2,0.2-4.1,0.6-6.1c0.2-0.9,0.2-1.7,0.2-2.2
				C127.6,190.6,127.1,190.1,125.8,189.9 M118.5,192.9c0.8-0.9,1.9-1.3,3.5-1.3c0.2,0,0.6,0,0.9,0.1s0.6,0.2,0.8,0.4
				c-0.2,1.7-0.4,2.8-0.6,3.5s-0.6,1.4-1.1,2.2c-0.8,0.7-1.5,1.2-2.2,1.2c-0.8,0-1.3-0.2-1.7-0.7s-0.6-1.2-0.6-2.2
				C117.6,194.8,117.9,193.7,118.5,192.9"/>
			<path d="M111.4,190.5c-1-1.3-2.5-1.9-4.4-1.9c-2.3,0-4.4,0.8-5.6,2.5c-1.1,1.4-1.7,3-1.7,4.8c0,1.9,0.8,3.5,2.1,4.5
				c1.1,1.1,2.6,1.5,4.4,1.5c2.1,0,3.8-0.7,5.1-2.2c1-1.3,1.7-3,1.7-4.8C112.7,193.1,112.3,191.7,111.4,190.5 M106.8,191.7
				c1.6,0,2.3,1.3,2.2,4c0,0.9-0.4,1.7-1,2.2s-1.3,0.7-2.1,0.7c-0.6,0-1.1-0.2-1.7-0.6c-0.6-0.5-0.9-1.3-0.9-2.2
				c0-1.1,0.2-1.9,0.8-2.7C104.9,192.2,105.8,191.7,106.8,191.7"/>
			<path d="M98.6,192.5c0-0.1,0-0.4,0-0.8c0-2.2-0.9-3.2-2.7-3.2c-1.9,0-3.6,0.5-5.3,1.5c-0.2-0.9-0.8-1.3-1.7-1.3
				c-0.6,0-0.9,0.1-1.1,0.5s-0.4,0.7-0.4,1.2c0,0.2,0,0.6-0.2,1.1c0,0.5,0,0.9,0,1.2v8.1c0,0.5,0.2,0.8,0.4,1.1
				c0.2,0.4,0.8,0.5,1.3,0.5c0.6,0,1-0.1,1.3-0.5c0.4-0.4,0.6-0.7,0.6-1.1l-0.2-6.1c0.9-1.5,2.3-2.5,4.4-2.8l0.2,1.3
				c0,1.1,0.6,1.7,1.7,1.7C97.9,194.3,98.6,193.7,98.6,192.5"/>
			<path d="M82.8,181.8c-2.2,0-3.8,0.6-4.7,1.7c-0.8,0.8-1.5,2.2-1.7,4c-0.2,0.8-0.2,1.2-0.2,1.3c-1.1,0-1.9,0.1-2.3,0.2
				c-0.9,0.2-1.3,0.7-1.3,1.5c0,0.5,0.2,0.8,0.6,1.2s0.9,0.5,1.5,0.5c0.2,0,0.4,0,0.8-0.1s0.8-0.1,0.9-0.1v6.1
				c0,1.1-0.2,2.2-0.4,3.3c0,0.1,0,0.1,0,0.4c0,0.5,0.2,0.8,0.6,1.1c0.4,0.4,0.8,0.5,1.3,0.5c0.9,0,1.6-0.5,1.7-1.3
				c0.2-0.8,0.2-2,0.2-3.5c0-0.2,0-1.3,0-3.3c0-1.3,0-2.4,0-3.3c1.1-0.1,1.9-0.1,2.5-0.1c1.9,0,2.7-0.5,2.7-1.5s-0.8-1.5-2.5-1.5
				c-0.6,0-1.5,0-2.6,0.1v-0.4c0.2-1.1,0.4-1.9,0.8-2.4c0.6-0.7,1.3-1.1,2.3-1.1c1.6,0,2.3-0.5,2.3-1.5
				C85.3,182.4,84.5,181.8,82.8,181.8"/>
			<path fill="#FF6600" d="M136.9,10c0-2-0.6-3.7-1.6-5.2c-1.3-1.7-3.1-2.5-5.3-2.5c-2.5,0-4.4,0.9-5.7,3c-1.1,1.5-1.7,3.5-1.7,5.4
				c0,2.5,0.4,4.4,1.3,5.9c1.1,2.2,3.1,3.1,5.7,3.1c2.5,0,4.4-0.8,5.6-2.4C136.2,15.6,136.9,13.1,136.9,10 M132.6,6.4
				c0.6,0.8,0.9,2.2,0.9,3.9c0,2.2-0.4,3.9-1,5s-1.7,1.5-3,1.7c-1.6,0-2.6-0.7-3.2-2.2c-0.4-0.9-0.6-2.4-0.6-4.1
				c0-1.3,0.4-2.5,1-3.5c0.8-1.2,1.9-1.8,3.1-1.8C131,5.1,132,5.6,132.6,6.4"/>
			<path fill="#FF6600" d="M116.6,3.5c0-0.8-0.4-1.2-1.1-1.2c-0.6,0-1.1,0.2-1.7,0.6L111,4.8c-0.6,0.5-0.8,0.8-0.8,1.3
				c0,0.4,0.2,0.7,0.6,0.9c0.4,0.4,0.8,0.5,1.1,0.5c0.2,0,0.6-0.2,1.5-0.7v9.7c-0.2,0-0.4,0-0.6,0c-1.7,0-2.5,0.5-2.5,1.5
				c0,0.8,0.8,1.3,2.3,1.3h4.8c0.4,0,0.8-0.1,1.1-0.5c0.2-0.2,0.4-0.6,0.4-1.1c0-0.4-0.2-0.7-0.4-1.1c-0.4-0.2-0.8-0.5-1.1-0.5h-0.8
				v-2.7c0-3,0-5.2,0.2-6.7C116.5,5.4,116.6,4.3,116.6,3.5"/>
			<path fill="#FF6600" d="M104.2,13.3c0-0.5-0.2-0.8-0.6-1.1c-0.4-0.2-0.8-0.4-1.3-0.4c-0.6,0-1.6,0-2.8,0s-2.2,0-2.8,0
				c-0.6,0-0.9,0.1-1.3,0.4c-0.4,0.2-0.6,0.6-0.6,1.1c0,0.4,0.2,0.7,0.6,0.9s0.8,0.4,1.3,0.4c2.8,0,4.8,0,6-0.1
				C103.8,14.4,104.2,14.1,104.2,13.3"/>
			<path fill="#FF6600" d="M91.7,10c0-2-0.6-3.7-1.6-5.2c-1.3-1.7-3.1-2.5-5.3-2.5c-2.5,0-4.4,0.9-5.7,3c-1.1,1.4-1.6,3.4-1.6,5.3
				c0,2.5,0.4,4.4,1.3,5.9c1.1,2.2,3.1,3.1,5.7,3.1c2.5,0,4.4-0.8,5.6-2.4C91.1,15.6,91.7,13.1,91.7,10 M87.3,6.4
				c0.6,0.8,0.9,2.2,0.9,3.9c0,2.2-0.2,3.9-1,5c-0.6,1.1-1.7,1.5-3,1.7c-1.6,0-2.6-0.7-3.2-2.2c-0.4-0.9-0.6-2.4-0.6-4.1
				c0-1.3,0.4-2.5,1-3.5c0.8-1.2,1.9-1.8,3.1-1.8C85.8,5.1,86.6,5.6,87.3,6.4"/>
			<path fill="#669900" d="M52.4,124.3l0.8-0.1c0.8,0.4,1.5,0.9,1.9,1.8c0.4,2.4,0.2,4.8-0.2,7l-0.2,0.8l-1.1,0.2
				c-0.6-0.2-1,0-1.7,0.6l-0.4-0.4l-0.4-0.7l-0.6-1.3l-0.4-0.9l-0.2-0.2c-0.2-0.5-0.2-1.1-0.4-1.7l-0.2-0.6c-0.2-0.8,0-1.5,0.2-2.2
				C50.1,125.3,50.9,124.5,52.4,124.3 M31.6,108.4c0,1.1-0.2,3.1-0.8,6.1l-0.2-0.8c-0.2-0.4-0.2-0.7-0.2-1.3l0.2-1.4L31.6,108.4
				 M23.1,139.5c3-17.5,12-29.6,26.8-36.4L51,103l9.6-0.5C42.7,102.9,30,115.2,23.1,139.5"/>
			<path fill="#66FF00" d="M60.8,102.5l0.2-0.2c0.8-1.2,1.9-1.8,3.4-1.7l2.8,0.6c1,0.4,1.6,1.2,1.5,2.2L60.8,102.5 M42.4,157.4
				l4.7-0.8l3-0.6l0.9-0.2c4.7-1.2,7.5-0.9,8.7,0.7c-4.1,5-13.2,6.7-27.1,5.2l0,0C36.1,160.1,39.3,158.7,42.4,157.4 M58.9,117.2
				l0.4-0.7l0.6-1.1c0.6-0.9,1.1-1.8,1.9-2.5l0.6-0.6c1.1-1.1,2.8-1.8,4.7-2.4l1.3-0.2c1-0.1,1.9-0.5,2.3-1.1
				c0.8-0.8,1.7-1.4,2.8-1.8l-0.9,0.6c-0.6,0.4-0.8,1.1-1,2c0.4-0.4,0.9-0.5,1.7-0.2c-0.9,0.8-0.8,2.4,0.4,4.6
				c-0.9,0.4-1.5,0.4-1.7-0.2c-0.4-0.8-0.6-1.8-0.6-2.8l-2.5-0.2c-2.1,0.1-3.9,0.9-5.2,2.5c-0.9,0.9-1.9,2.2-2.7,3.5l-0.2,0.2
				l-2.5,3.5l-1.9,2c-0.9,0.8-1.9,1.4-3.1,2l-0.8,0.1c-1.6,0.2-2.3,0.9-2.7,2.4c-2.6,2.2-7.8,3.9-15.5,5.4c2.3-2.4,4.8-4.6,7.4-6.6
				C46.9,121.2,52.7,118.5,58.9,117.2"/>
			<path fill="#66CC00" d="M60.8,102.5l7.8,0.9c0.8,1.5,1.9,2.5,3.8,2.7h0.2l2.1,0.4l-1,0.2c-1.1,0.2-2.2,0.8-2.8,1.8
				c-0.6,0.6-1.3,0.9-2.3,1.1l-1.3,0.2c-1.9,0.6-3.5,1.4-4.7,2.4l-0.6,0.6c-0.6,0.7-1.3,1.5-1.9,2.5l-0.6,1.1l-0.4,0.7
				c-6.4,1.3-12.1,4-17.3,8.3c-2.6,2.2-5.1,4.3-7.4,6.6c-2.2,2.2-4.1,4.4-6.3,6.7l-0.2,0.2c-1.3,0.2-1.9,1.3-1.6,3.2
				c0.6,1.3,1.5,2.4,2.3,3.2c-0.6-0.1-1.3-0.5-1.9-1.1c-1.5-1.3-2.6-2.8-3.5-4.8c-0.4,0.1-0.8-0.6-1-2.2l1.6-5.6v-0.4
				c1.5-4.6,3.4-9.4,5.7-14.2l1.5-2.7l0-0.3c0.4-0.7,1.1-1.8,2.6-3l2.2-2c-0.2-0.2-0.2-0.7,0-1.1s0.2-0.9,0.2-1.5
				c0.2-1.2,0.6-2,1.5-2.4l1.1-0.1c0.9,0.1,1.9,0.6,2.7,1.3c1.7-0.7,3.5-1.3,5.6-1.7l3-0.6C35,109.6,26,121.8,23.1,139.3
				C30,115.2,42.7,102.9,60.8,102.5 M55.2,135.9c-1.5-0.1-2.5-0.5-3.2-1.3c0.6-0.6,1-0.8,1.7-0.6l1.1-0.2h0.6c0.8,0,0.9,0.5,0.6,1.3
				l-0.2,0.4C55.6,135.8,55.6,135.9,55.2,135.9 M42.4,157.4c-3.2,1.3-6.5,2.7-9.8,4.3h-0.2h-0.2l-1-0.1c-0.6-0.1-0.9-0.4-1-0.7
				l-0.2-0.7c-0.2-1.2,0.2-2.2,0.6-2.8c13.1-6.5,22.9-12.3,29.1-17.5c1.3,0.9,1.9,2.5,1.3,4.6l-0.2,0.8l-0.4,0.6l-0.2,0.1l-4.9,3.7
				C51.8,152.9,47.6,155.5,42.4,157.4 M22.5,121.1c0.4-6.6,0.2-12-0.4-16.2l0.8,0.2l0.6-0.2l0.4,2.4l0.9-0.6l0.6-0.6
				c0,0.7,0.2,1.3,0.6,1.4c-0.6,0.2-0.9,0.6-1.3,1.1l-0.2,0.2c-0.8,1.7-0.9,4.3-0.6,7.8L22.5,121.1"/>
			<path fill="#9900FF" d="M75.6,108.5c-1,0-1.9,0.2-2.3,0.7c-0.8-0.2-1.3-0.1-1.7,0.2c0.2-0.9,0.6-1.7,1-2l0.9-0.6l1-0.2
				c1,0.2,1.9,1.1,2.1,2.5C76.5,108.7,76.1,108.5,75.6,108.5 M23.8,131.4c2.2-13.6,4.1-20.2,5.6-19.8c0.6-0.1,0.6,1.8,0.2,5.7
				C27,122,25.1,126.8,23.8,131.4 M46.2,144.7c-6.8,0.1-10.6-1.5-11.9-5.1c6.8-1.7,13.6-1.4,20.4,0.9
				C51.5,141.5,48.7,142.8,46.2,144.7"/>
			<path fill="#FF6600" d="M76.5,111.6l-0.6,0.6c-0.8,0.8-1.5,1.4-2.1,1.7c-1.1-2.2-1.3-3.7-0.4-4.6c0.6-0.5,1.3-0.8,2.3-0.7
				c0.4,0,0.8,0.1,1.1,0.5c0.2,0.2,0.2,0.6,0.2,1.3c-1.1-0.2-2.3-0.1-3.2,0.4C74.3,111.3,75.2,111.6,76.5,111.6"/>
			<path fill="#339900" d="M75.9,112.3l0.2,1.4c-1,0.8-2.3,1.3-3.8,1.3c-0.6,0.5-1.5,0.7-2.3,0.6c0.2,0.4,0.4,0.6,0.6,0.6
				c-0.6,0.5-1.1,0.7-2.1,0.7s-1.7,0.2-2.3,0.7H66l-1.9-0.4l-3.5-0.5l0.2-0.2c0.9-1.3,1.9-2.5,2.7-3.5c1.5-1.5,3.1-2.4,5.2-2.5
				l2.5,0.2c-0.2,1.1,0.2,2,0.6,2.8c0.2,0.5,0.9,0.6,1.7,0.2C74.3,113.6,75.2,113.1,75.9,112.3"/>
			<path fill="#FF6633" d="M26.4,142.1c-0.4-1.9,0.2-3,1.6-3.2l0.2-0.2c7.5-1.5,14.9-4,22.1-7.4c-1.6,2.8-4,4.8-7.3,6.1l5.1,0.2
				c-0.2-0.2,0-0.4,0.2-0.5l0.6-0.2c0.2-0.1,0.2-0.2,0.2-0.4c-0.2-0.4-0.2-0.8-0.2-1.2c0-0.1,0.2-0.2,0.2-0.4l0.8-0.2
				c0.4,0,0.9-0.1,1.3-0.5c-0.4-0.7-0.6-1.5-0.8-2.5l-0.2-0.6l0,0l0.4,0.9l0.6,1.3l0.4,0.7l0.4,0.4c0.8,0.7,1.9,1.2,3.2,1.3
				c0.2,0,0.6-0.1,0.8-0.4l-0.4,0.9c-0.2,0.5-0.6,0.8-1,0.9c-0.2,0.6-0.2,1.1,0.2,1.3c1.9,0.4,3.5,0.7,5.2,1.3
				c-1.7,0-3.4,0.2-5.2,0.7c-6.8-2.2-13.6-2.6-20.4-0.9c1.1,3.5,5.1,5.2,11.9,5.1l-4.7,3.5l-0.2-0.4c-0.9-0.7-2.2-1.2-3.6-1.4
				l-1.9-0.4l-6.4-0.7l-0.6-0.1C27.7,144.5,26.8,143.6,26.4,142.1 M60.6,145.9l0.2-0.1c0.2,0.9,0.9,1.5,1.9,2
				c-1.6,0.2-2.8,0.8-4.4,1.7c-0.8,0.6-1.6,1.3-2.3,2.2c-0.9,1.2-1.9,2.2-2.7,3.1l0,0l-1,0.2l1.5-1.3l1.5-2c0.4-0.6,0.6-1.2,0.6-2
				L60.6,145.9 M65.2,150.2l-2.8,0.2c-1.3,0.4-2.5,0.8-3.8,1.3c-0.2,0.1-0.6,0.2-0.8,0.5c-1.1,0.9-2.3,1.7-3.6,2.2l1.3-1.3
				c0.6-0.4,1-0.8,1.7-1.4c1.5-1.2,3.1-2.2,4.9-2.8c1.9-0.8,3.6-0.9,5.3-0.4l0.4,0.1c-0.6,0.2-0.6,0.9-0.6,2.2
				C66.8,150.4,66.1,150.2,65.2,150.2 M64.8,155.6l5.2,0.6h0.2c-0.6,2.2-3,2-6.9-0.8L64.8,155.6 M22.1,104.9l-0.3-0.4
				c-0.2-0.4-0.6-0.7-0.6-1.2s0.2-0.9,0.6-1.3s0.8-0.5,1.1-0.5c0.4,0,0.8,0.1,1.1,0.5c0.2,0.2,0.4,0.6,0.6,0.9v0.2
				c0,0.5-0.2,0.8-0.6,1.2l-0.4,0.4L23,105L22.1,104.9 M24,116.6c-0.4-3.5-0.2-6.1,0.6-7.8l0.2-0.2c0.4-0.5,0.8-0.8,1.3-1.1
				c-0.4-0.2-0.6-0.7-0.6-1.4l0,0l0.6-0.7c0.2-0.4,0.6-0.5,1.1-0.5h0.2l0.4,0.2c0.4,0.1,0.6,0.5,0.6,0.8v0.8c-0.2,0.7-0.4,1.1-1,1.2
				h-0.6c0,0.5-0.2,0.9-0.4,1.3c-0.4,0.8-0.6,1.7-0.6,2.5v0.7L24,116.6 M29.7,107l0.8-0.7l1.1-0.2c0.4,0,0.8,0.1,1.1,0.6
				c0.2,0.4,0.2,0.7,0,0.9c-0.2,0.2-0.6,0.4-1.1,0.4l-0.2-0.4c-0.2-0.2-0.6-0.5-0.9-0.6L29.7,107"/>
			<path fill="#CC6633" d="M53.3,124.2c1.1-0.5,2.2-1.2,3.1-2l1.9-2l2.5-3.5l3.5,0.5l-2.1,2.8c-0.6,0.8-1.5,1.8-2.5,2.6
				c-0.9,0.8-2.6,1.9-4.8,3.2C54.8,125.3,54.1,124.6,53.3,124.2 M53.3,154.8c0.9-0.8,1.9-1.9,2.7-3.1c0.8-0.9,1.6-1.7,2.3-2.2
				c1.3-0.8,2.7-1.4,4.4-1.7l1.6-0.2c1.3,0,2.3,0.2,3.2,0.8c-1.7-0.5-3.5-0.4-5.3,0.4c-1.9,0.8-3.5,1.8-4.9,2.8
				c-0.6,0.5-1.1,0.9-1.7,1.4l-1.3,1.3L53.3,154.8 M67.7,153.7l-3.2-0.7l1.7,0.1c1.1,0.1,2.2-0.1,3.1-0.5c-0.2,0.8,0,1.4,0.6,1.9
				C69.4,153.9,68.7,153.7,67.7,153.7 M25.5,106.1L25.5,106.1l-0.6,0.7l-0.9,0.6l-0.4-2.4l0.4-0.4c0.4-0.4,0.6-0.7,0.6-1.2v-0.2
				c0.9,0.4,1.3,1.1,1.5,2.2L25.5,106.1 M29.7,107l-0.6,0.1l-0.6,0.2l-0.6,0.9c-0.8,1.2-1.6,2.6-2.3,4.3v-0.7
				c0.2-0.8,0.2-1.7,0.6-2.5c0.2-0.4,0.2-0.8,0.4-1.3h0.6c0.6-0.1,0.9-0.5,1-1.2V106l0.2-0.1l0.8-0.2c0.6-0.1,0.8,0.1,0.9,0.7
				L29.7,107"/>
			<path fill="#336600" d="M76.1,113.6c0,0.2-0.2,0.6-0.4,0.8c-3.1,2.6-6.3,3.7-9.4,3.2c0.6-0.5,1.5-0.7,2.3-0.7
				c0.9,0,1.6-0.2,2.1-0.7c-0.4-0.1-0.6-0.4-0.6-0.6c0.9,0.1,1.7-0.1,2.3-0.6C73.6,115.1,74.9,114.6,76.1,113.6 M18.3,138.7
				c1.1-6.9,2.6-12.8,4.1-17.6l1.6-4.5l1.7-4.1c0.8-1.5,1.6-3,2.3-4.3l0.6-0.9l0.6-0.2l0.6-0.1l0.8,0.1c-1.9,1.1-4.4,6.4-7.5,16.2
				C21.5,127.6,19.8,132.7,18.3,138.7"/>
			<path fill="#FF9900" d="M31.6,156.5c3.2-3.2,6.5-5.9,9.8-8.3h0.2l4.7-3.5c2.6-1.9,5.5-3.2,8.6-4.1c1.9-0.6,3.6-0.8,5.2-0.7
				C51.1,142.1,41.8,147.6,31.6,156.5 M30.6,111l-0.2,1.4c0,0.6,0,0.9,0.2,1.3l0.2,0.8l-1.5,2.7c0.6-3.9,0.6-5.7-0.2-5.7
				c-1.6-0.5-3.4,6.1-5.6,19.8l-0.2,0.2l-1.6,5.6c-0.8-4-0.6-8.7,0.8-14c3.1-9.8,5.6-15.1,7.5-16.2c0.4,0.1,0.6,0.2,0.9,0.6l0.2,0.4
				l0.2,0.6L30.6,111"/>
			<path fill="#FF9933" d="M50.2,131.4L50.2,131.4c-7.2,3.5-14.6,5.8-22.1,7.4c1.9-2.4,4-4.6,6.3-6.7c7.7-1.5,12.9-3.3,15.5-5.4
				c-0.2,0.6-0.2,1.3-0.2,2.2l0.2,0.6c0.2,0.6,0.2,1.2,0.4,1.7L50.2,131.4"/>
			<path fill="#FFCC00" d="M63.2,155.4l-0.9-0.1c-0.8,0-1.6,0.4-2.5,1.1c-1.1-1.7-4.1-1.9-8.7-0.7l1-0.7l1-0.2l0,0l0.9-0.4
				c1.3-0.5,2.6-1.2,3.6-2.2c0.2-0.2,0.6-0.4,0.8-0.5c1.1-0.6,2.5-1.1,3.8-1.3l2.8-0.2c0.8,0,1.5,0.2,2.1,0.7c1,0.2,1.7,0.7,2.1,1.7
				c-0.9,0.4-1.9,0.5-3.1,0.5l-1.7-0.1l3.2,0.7c0.8,0.1,1.5,0.5,1.9,0.8c0.6,0.5,1,1.1,1.3,1.8h-1h-0.2l-5.2-0.6L63.2,155.4
				 M59.9,139.9c-6.3,5.1-16,11-29.1,17.5l0.8-0.8C41.8,147.6,51.1,142.1,59.9,139.9"/>
			<path fill="#330000" d="M73.6,110.7c0.9-0.5,2.1-0.6,3.2-0.4l-0.2,0.6l-0.6,0.8C75.2,111.6,74.3,111.3,73.6,110.7"/>
			<path fill="#00FF00" d="M22.9,123.2c-1.3,5.3-1.6,10-0.8,14l-0.8,2.8c-0.2,0.4-0.2,0.6-0.6,0.8c-0.2,0.2-0.4,0.4-0.8,0.5
				c-0.6,0.1-1,0-1.5-0.4l-0.2-0.2l-0.2-2.2C19.8,132.7,21.5,127.6,22.9,123.2"/>

				<path fill="none" stroke="#00CC00" stroke-width="0.7" stroke-linecap="round" stroke-linejoin="round" stroke-miterlimit="3" d="
				M60.8,102.5c-18.1,0.2-30.6,12.7-37.6,36.9c3-17.5,12-29.6,26.8-36.4l1.1-0.1 M58.9,117.2l0.4-0.7l0.6-1.1
				c0.6-0.9,1.1-1.8,1.9-2.5l0.6-0.6c1.1-1.1,2.8-1.8,4.7-2.4l1.3-0.2c1-0.1,1.9-0.5,2.3-1.1c0.8-0.8,1.7-1.4,2.8-1.8 M66.3,117.7
				c0.6-0.5,1.5-0.7,2.3-0.7s1.6-0.2,2.1-0.7c-0.4-0.1-0.6-0.4-0.6-0.6c0.9,0.1,1.7-0.1,2.3-0.6c1.5,0,2.7-0.5,3.8-1.3 M51.1,155.8
				c4.7-1.2,7.5-0.9,8.7,0.7"/>
			<path fill="#669900" d="M120.1,92.4l0.8-0.1c0.8,0.4,1.5,0.9,1.9,1.8c0.4,2.4,0.2,4.8-0.2,7l-0.2,0.8l-1.1,0.2
				c-0.6-0.2-1,0-1.7,0.6l-0.4-0.4l-0.4-0.7l-0.6-1.3l-0.4-0.9l-0.2-0.2c-0.2-0.5-0.2-1.1-0.4-1.7l-0.2-0.6c-0.2-0.8,0-1.5,0.2-2.2
				C117.6,93.3,118.5,92.6,120.1,92.4 M99,76.5c0,1.1-0.2,3.1-0.8,6.1L98,81.8c-0.2-0.4-0.2-0.7-0.2-1.3l0.2-1.4L99,76.5
				 M90.8,107.6c3-17.5,12-29.6,26.8-36.4l1.1-0.1l9.6-0.5C110.3,71,97.7,83.2,90.8,107.6"/>
			<path fill="#66FF00" d="M128.4,70.7l0.2-0.2c0.8-1.2,1.9-1.8,3.4-1.7l2.8,0.6c1,0.4,1.6,1.2,1.5,2.2L128.4,70.7 M110,125.5
				l4.7-0.8l3-0.6l0.9-0.2c4.7-1.2,7.5-0.9,8.7,0.7c-4.1,5-13.2,6.7-27.1,5.2l0,0C103.6,128.2,106.8,126.8,110,125.5 M126.5,85.3
				l0.4-0.7l0.6-1.1c0.6-0.9,1.1-1.8,1.9-2.5l0.6-0.6c1.1-1.1,2.8-1.8,4.7-2.4l1.3-0.2c1-0.1,1.9-0.5,2.3-1.1
				c0.8-0.8,1.7-1.4,2.8-1.8l-0.9,0.6c-0.6,0.4-0.8,1.1-1,2c0.4-0.4,0.9-0.5,1.7-0.2c-0.9,0.8-0.8,2.4,0.4,4.6
				c-0.9,0.4-1.5,0.4-1.7-0.2c-0.4-0.8-0.6-1.8-0.6-2.8l-2.5-0.2c-2.1,0.1-3.9,0.9-5.2,2.5c-0.9,0.9-1.9,2.2-2.7,3.5l-0.2,0.2
				l-2.5,3.5l-1.9,2c-0.9,0.8-1.9,1.4-3.1,2h-0.8c-1.6,0.2-2.3,0.9-2.7,2.4c-2.6,2.2-7.8,3.9-15.5,5.4c2.3-2.4,4.8-4.6,7.4-6.6
				C114.5,89.4,120.2,86.5,126.5,85.3"/>
			<path fill="#66CC00" d="M128.4,70.7l7.8,0.9c0.8,1.5,1.9,2.5,3.8,2.7h0.2l2.1,0.4l-1,0.2c-1.1,0.2-2.2,0.8-2.8,1.8
				c-0.6,0.6-1.3,0.9-2.3,1.1l-1.3,0.2c-1.9,0.6-3.5,1.4-4.7,2.4l-0.6,0.6c-0.6,0.7-1.3,1.5-1.9,2.5l-0.6,1.1l-0.6,0.7
				c-6.4,1.3-12.1,4-17.3,8.3c-2.6,2.2-5.1,4.3-7.4,6.6c-2.2,2.2-4.1,4.4-6.3,6.7l-0.2,0.2c-1.3,0.2-1.9,1.3-1.6,3.2
				c0.6,1.3,1.5,2.4,2.3,3.2c-0.6-0.1-1.3-0.5-1.9-1.1c-1.5-1.3-2.6-2.8-3.5-4.8c-0.4,0.1-0.8-0.6-1-2.2l1.6-5.6l0.2-0.2
				c1.5-4.6,3.4-9.4,5.7-14.2l1.5-2.7l0.2-0.4c0.4-0.7,1.1-1.8,2.6-3l2.2-2c-0.2-0.2-0.2-0.7,0-1.1s0.2-0.9,0.2-1.5
				c0.2-1.2,0.6-2,1.5-2.4l1.1-0.1c0.9,0.1,1.9,0.6,2.7,1.3c1.7-0.7,3.5-1.3,5.6-1.7l3-0.6c-14.9,6.7-23.9,18.9-26.8,36.4
				C97.7,83.2,110.3,71,128.4,70.7 M122.8,104c-1.5-0.1-2.5-0.5-3.2-1.3c0.6-0.6,1-0.8,1.7-0.6l1.1-0.2h0.6c0.8,0,0.9,0.5,0.6,1.3
				l-0.2,0.4C123.2,103.8,123.1,104,122.8,104 M110,125.5c-3.2,1.3-6.5,2.7-9.8,4.3H100h-0.2l-1-0.1c-0.6-0.1-0.9-0.4-1-0.7
				l-0.2-0.7c-0.2-1.2,0.2-2.2,0.6-2.8c13.1-6.5,22.9-12.3,29.1-17.5c1.3,0.9,1.9,2.5,1.3,4.6l-0.2,0.8L128,114l-0.2,0.1l-4.9,3.7
				C119.4,121.1,115.2,123.6,110,125.5 M89.9,89.1c0.4-6.6,0.2-12-0.4-16.2l0.8,0.2l0.6-0.2l0.4,2.4l0.9-0.6l0.6-0.6
				c0,0.7,0.2,1.3,0.6,1.4c-0.6,0.2-0.9,0.6-1.3,1.1l-0.2,0.2c-0.8,1.7-0.9,4.3-0.6,7.8L89.9,89.1"/>
			<path fill="#9900FF" d="M143.3,76.7c-1,0-1.9,0.2-2.3,0.7c-0.8-0.2-1.3-0.1-1.7,0.2c0.2-0.9,0.6-1.7,1-2l0.9-0.6l1-0.2
				c1,0.2,1.9,1.1,2.1,2.5C144.1,76.9,143.7,76.7,143.3,76.7 M91.2,99.6c2.2-13.6,4.1-20.2,5.6-19.8c0.6-0.1,0.6,1.8,0.2,5.7
				C94.5,90.1,92.8,94.8,91.2,99.6 M113.7,112.8c-6.8,0.1-10.6-1.5-11.9-5.1c6.8-1.7,13.6-1.4,20.4,0.9
				C119.1,109.7,116.3,111,113.7,112.8"/>
			<path fill="#FF6600" d="M144.1,79.8l-0.6,0.6c-0.8,0.8-1.5,1.4-2.1,1.7c-1.1-2.2-1.3-3.7-0.4-4.6c0.6-0.5,1.3-0.8,2.3-0.7
				c0.4,0,0.8,0.1,1.1,0.5c0.2,0.2,0.2,0.6,0.2,1.3c-1.1-0.2-2.3-0.1-3.2,0.4C142,79.4,142.7,79.7,144.1,79.8"/>
			<path fill="#339900" d="M143.4,80.4l0.2,1.4c-1,0.8-2.3,1.3-3.8,1.3c-0.6,0.5-1.5,0.7-2.3,0.6c0.2,0.4,0.4,0.6,0.6,0.6
				c-0.6,0.5-1.1,0.7-2.1,0.7s-1.7,0.2-2.3,0.7h-0.2l-1.9-0.4l-3.5-0.5l0.2-0.2c0.9-1.3,1.9-2.5,2.7-3.5c1.5-1.5,3.1-2.4,5.2-2.5
				l2.5,0.2c-0.2,1.1,0.2,2,0.6,2.8c0.2,0.5,0.9,0.6,1.7,0.2C142,81.7,142.7,81.3,143.4,80.4"/>
			<path fill="#FF6633" d="M93.8,110.2c-0.4-1.9,0.2-3,1.6-3.2l0.2-0.2c7.5-1.5,14.9-4,22.1-7.4c-1.6,2.8-4,4.8-7.3,6.1l5.1,0.2
				c-0.2-0.2,0-0.4,0.2-0.5l0.6-0.2c0.2-0.1,0.2-0.2,0.2-0.4c-0.2-0.4-0.2-0.8-0.2-1.2c0-0.1,0.2-0.2,0.2-0.4l1-0.1
				c0.4,0,0.9-0.1,1.3-0.5c-0.4-0.7-0.6-1.5-0.8-2.5l-0.2-0.6l0,0l0.4,0.9l0.6,1.3l0.4,0.7l0.4,0.4c0.8,0.7,1.9,1.2,3.2,1.3
				c0.2,0,0.6-0.1,0.8-0.4l-0.4,0.9c-0.2,0.5-0.6,0.8-1,0.9c-0.2,0.6-0.2,1.1,0.2,1.3c1.9,0.4,3.5,0.7,5.2,1.3
				c-1.7,0-3.4,0.2-5.2,0.7c-6.8-2.2-13.6-2.6-20.4-0.9c1.1,3.5,5.1,5.2,11.9,5.1l-4.7,3.5l-0.2-0.4c-0.9-0.7-2.2-1.2-3.6-1.4
				l-2.2-0.2l-6.4-0.7l-0.6-0.1C95.1,112.7,94.5,111.6,93.8,110.2 M128.2,114l0.2-0.1c0.2,0.9,0.9,1.5,1.9,2
				c-1.6,0.2-2.8,0.8-4.4,1.7c-0.8,0.6-1.6,1.3-2.3,2.2c-0.9,1.2-1.9,2.2-2.7,3.1l0,0l-1,0.2l1.5-1.3l1.5-2c0.4-0.6,0.6-1.2,0.6-2
				L128.2,114 M132.8,118.3l-2.8,0.2c-1.3,0.4-2.5,0.8-3.8,1.3c-0.2,0.1-0.6,0.2-0.8,0.5c-1.1,0.9-2.3,1.7-3.6,2.2l1.3-1.3
				c0.6-0.4,1-0.8,1.7-1.4c1.5-1.2,3.1-2.2,4.9-2.8c1.9-0.8,3.6-0.9,5.3-0.4l0.4,0.1c-0.6,0.2-0.6,0.9-0.6,2.2
				C134.2,118.5,133.7,118.3,132.8,118.3 M132.3,123.7l5.2,0.6h0.2c-0.6,2.2-3,2-6.9-0.8L132.3,123.7 M89.5,73l-0.4-0.4
				c-0.2-0.4-0.6-0.7-0.6-1.2c0-0.4,0.2-0.9,0.6-1.3s0.8-0.5,1.1-0.5s0.8,0.1,1.1,0.5c0.2,0.2,0.4,0.6,0.6,0.9v0.2
				c0,0.5-0.2,0.8-0.6,1.2L91,72.8L90.3,73H89.5 M91.5,84.7c-0.4-3.5-0.2-6.1,0.6-7.8l0.2-0.2c0.4-0.5,0.8-0.8,1.3-1.1
				c-0.4-0.2-0.6-0.7-0.6-1.4l0,0l0.6-0.7c0.2-0.4,0.6-0.5,1.1-0.5H95l0.4,0.2c0.4,0.1,0.6,0.5,0.6,0.8v0.8c-0.2,0.7-0.4,1.1-1,1.2
				h-0.6c0,0.5-0.2,0.9-0.4,1.3c-0.4,0.8-0.6,1.7-0.6,2.5v0.7L91.5,84.7 M97,75.1l0.8-0.7l1.1-0.2c0.4,0,0.8,0.1,1.1,0.6
				c0.2,0.4,0.2,0.7,0,0.9c-0.2,0.2-0.6,0.4-1.1,0.4l-0.2-0.4c-0.2-0.2-0.6-0.5-0.9-0.6L97,75.1"/>
			<path fill="#CC6633" d="M120.9,92.4c1.1-0.5,2.2-1.2,3.1-2l1.9-2l2.5-3.5l3.5,0.5l-2.1,2.8c-0.6,0.8-1.5,1.8-2.5,2.6
				c-0.9,0.8-2.6,1.9-4.8,3.2C122.3,93.3,121.6,92.7,120.9,92.4 M120.9,122.9c0.9-0.8,1.9-1.9,2.7-3.1c0.8-0.9,1.6-1.7,2.3-2.2
				c1.3-0.8,2.7-1.4,4.4-1.7l1.6-0.2c1.3,0,2.3,0.2,3.2,0.8c-1.7-0.5-3.5-0.4-5.3,0.4c-1.9,0.8-3.5,1.8-4.9,2.8
				c-0.6,0.5-1.1,0.9-1.7,1.4l-1.3,1.3L120.9,122.9 M135.5,121.7l-3.2-0.7l1.7,0.1c1.1,0.1,2.2-0.1,3.1-0.5c-0.2,0.8,0,1.4,0.6,1.9
				C136.9,122.2,136.2,121.8,135.5,121.7 M93.2,74.1L93.2,74.1l-0.6,0.7l-0.9,0.6L91.2,73l0.4-0.4c0.4-0.4,0.6-0.7,0.6-1.2V71
				c0.9,0.4,1.3,1.1,1.5,2.2L93.2,74.1 M97,75.1l-0.6,0.1l-0.6,0.2l-0.6,0.9c-0.8,1.2-1.6,2.6-2.3,4.3V80c0.2-0.8,0.2-1.7,0.6-2.5
				c0.2-0.4,0.2-0.8,0.4-1.3h0.6c0.6-0.1,0.9-0.5,1-1.2v-0.8l0.2-0.1l0.8-0.2c0.6-0.1,0.8,0.1,0.9,0.7L97,75.1"/>
			<path fill="#336600" d="M143.7,81.8c0,0.2-0.2,0.6-0.4,0.8c-3.1,2.6-6.3,3.7-9.4,3.2c0.6-0.5,1.5-0.7,2.3-0.7s1.6-0.2,2.1-0.7
				c-0.4-0.1-0.6-0.4-0.6-0.6c0.9,0.1,1.7-0.1,2.3-0.6C141.3,83.1,142.6,82.7,143.7,81.8 M85.8,106.8c1.1-6.9,2.6-12.8,4.1-17.6
				l1.6-4.5l1.7-4.1c0.8-1.5,1.6-3,2.3-4.3l0.6-0.9l0.6-0.2l0.6-0.1l0.8,0.1c-1.9,1.1-4.4,6.4-7.5,16.2
				C88.9,95.7,87.5,100.9,85.8,106.8"/>
			<path fill="#FF9900" d="M99,124.6c3.2-3.2,6.5-5.9,9.8-8.3h0.2l4.7-3.5c2.6-1.9,5.5-3.2,8.6-4.1c1.9-0.6,3.6-0.8,5.2-0.7
				C118.8,110.1,109.3,115.7,99,124.6 M98.2,79.1L98,80.5c0,0.6,0,0.9,0.2,1.3l0.2,0.8L97,85.4c0.6-3.9,0.6-5.7-0.2-5.7
				c-1.6-0.5-3.4,6.1-5.6,19.8L91,99.7l-1.6,5.6c-0.8-4-0.6-8.7,0.8-14c3.1-9.8,5.6-15.1,7.5-16.2c0.4,0.1,0.6,0.2,0.9,0.6l0.2,0.4
				l0.2,0.6L98.2,79.1"/>
			<path fill="#FF9933" d="M117.8,99.5L117.8,99.5c-7.2,3.5-14.6,5.8-22.1,7.4c1.9-2.4,4-4.6,6.3-6.7c7.7-1.5,12.9-3.3,15.5-5.4
				c-0.2,0.6-0.2,1.3-0.2,2.2l0.2,0.6c0.2,0.6,0.2,1.2,0.4,1.7L117.8,99.5"/>
			<path fill="#FFCC00" d="M130.8,123.6l-0.9-0.1c-0.8,0-1.6,0.4-2.5,1.1c-1.1-1.7-4.1-1.9-8.7-0.7l1-0.7l1-0.2l0,0l0.9-0.4
				c1.3-0.5,2.6-1.2,3.6-2.2c0.2-0.2,0.6-0.4,0.8-0.5c1.1-0.6,2.5-1.1,3.8-1.3l2.8-0.2c0.8,0,1.5,0.2,2.1,0.7c1,0.2,1.7,0.7,2.1,1.7
				c-0.9,0.4-1.9,0.5-3.1,0.5l-1.7-0.1l3.2,0.7c0.8,0.1,1.5,0.5,1.9,0.8c0.6,0.5,1,1.1,1.3,1.8h-1h-0.2l-5.2-0.6L130.8,123.6
				 M127.5,108c-6.3,5.1-16,11-29.1,17.5l0.8-0.8C109.3,115.7,118.8,110.1,127.5,108"/>
			<path fill="#330000" d="M141.2,78.7c0.9-0.5,2.1-0.6,3.2-0.4l-0.2,0.6l-0.6,0.8C142.7,79.7,142,79.4,141.2,78.7"/>
			<path fill="#00FF00" d="M90.4,91.3c-1.3,5.3-1.6,10-0.8,14l-0.8,2.8c-0.2,0.4-0.2,0.6-0.6,0.8c-0.2,0.2-0.4,0.4-0.8,0.5
				c-0.6,0.1-1,0-1.5-0.4l0.2-0.1l-0.2-2.2C87.5,100.9,88.9,95.7,90.4,91.3"/>

				<path fill="none" stroke="#00CC00" stroke-width="0.7" stroke-linecap="round" stroke-linejoin="round" stroke-miterlimit="3" d="
				M128.4,70.7c-18.1,0.2-30.6,12.7-37.6,36.9c3-17.5,12-29.6,26.8-36.4l1.1-0.1 M126.5,85.3l0.4-0.7l0.6-1.1
				c0.6-0.9,1.1-1.8,1.9-2.5l0.6-0.6c1.1-1.1,2.8-1.8,4.7-2.4l1.3-0.2c1-0.1,1.9-0.5,2.3-1.1c0.8-0.8,1.7-1.4,2.8-1.8 M133.9,85.7
				c0.6-0.5,1.5-0.7,2.3-0.7s1.6-0.2,2.1-0.7c-0.4-0.1-0.6-0.4-0.6-0.6c0.9,0.1,1.7-0.1,2.3-0.6c1.5,0,2.7-0.5,3.8-1.3 M118.5,123.8
				c4.7-1.2,7.5-0.9,8.7,0.7"/>
			<path fill="#669900" d="M182.9,123.2l0.8-0.1c0.8,0.4,1.5,0.9,1.9,1.8c0.4,2.4,0.2,4.8-0.2,7l-0.2,0.8l-1.1,0.2
				c-0.6-0.2-1,0-1.7,0.6l-0.4-0.4l-0.4-0.7l-0.6-1.3l-0.4-0.9l-0.2-0.2c-0.2-0.5-0.2-1.1-0.4-1.7v-0.6c-0.2-0.8,0-1.5,0.2-2.2
				C180.5,124.2,181.4,123.4,182.9,123.2 M162,107.4c0,1.1-0.2,3.1-0.8,6.1l-0.2-0.8c-0.2-0.4-0.2-0.7-0.2-1.3l0.2-1.4L162,107.4
				 M153.5,138.4c3-17.5,12-29.6,26.8-36.4l1.1-0.1l9.6-0.5C173,101.7,160.6,114,153.5,138.4"/>
			<path fill="#66FF00" d="M191.1,101.5l0.2-0.2c0.8-1.2,1.9-1.8,3.4-1.7l2.8,0.6c1,0.4,1.6,1.2,1.5,2.2L191.1,101.5 M172.9,156.3
				l4.7-0.8l3-0.6l0.9-0.2c4.7-1.2,7.5-0.9,8.7,0.7c-4.1,5-13.2,6.7-27.1,5.2l0,0C166.4,158.9,169.6,157.5,172.9,156.3 M189.3,116
				l0.4-0.7l0.6-1.1c0.6-0.9,1.1-1.8,1.9-2.5l0.6-0.6c1.1-1.1,2.8-1.8,4.7-2.4l1.3-0.2c1-0.1,1.9-0.5,2.3-1.1
				c0.8-0.8,1.7-1.4,2.8-1.8l-0.9,0.6c-0.6,0.4-0.8,1.1-1,2c0.4-0.4,0.9-0.5,1.7-0.2c-0.9,0.8-0.8,2.4,0.4,4.6
				c-0.9,0.4-1.5,0.4-1.7-0.2c-0.4-0.8-0.6-1.8-0.6-2.8l-2.5-0.2c-2.1,0.1-3.9,0.9-5.2,2.5c-0.9,0.9-1.9,2.2-2.7,3.5l-0.2,0.2
				l-2.5,3.5l-1.9,2c-0.9,0.8-1.9,1.4-3.1,2l-0.8,0.1c-1.6,0.2-2.3,0.9-2.7,2.4c-2.6,2.2-7.8,3.9-15.5,5.4c2.3-2.4,4.8-4.6,7.4-6.6
				C177.2,120.1,183.1,117.5,189.3,116"/>
			<path fill="#66CC00" d="M191.1,101.5l7.8,0.9c0.8,1.5,1.9,2.5,3.8,2.7h0.2l2.1,0.4l-1,0.2c-1.1,0.2-2.2,0.8-2.8,1.8
				c-0.6,0.6-1.3,0.9-2.3,1.1l-1.3,0.2c-1.9,0.6-3.5,1.4-4.7,2.4l-0.6,0.6c-0.6,0.7-1.3,1.5-1.9,2.5l-0.6,1.1l-0.4,0.7
				c-6.4,1.3-12.1,4-17.3,8.3c-2.6,2.2-5.1,4.3-7.4,6.6c-2.2,2.2-4.1,4.4-6.3,6.7l-0.2,0.2c-1.3,0.2-1.9,1.3-1.6,3.2
				c0.6,1.3,1.5,2.4,2.3,3.2c-0.6-0.1-1.3-0.5-1.9-1.1c-1.5-1.3-2.6-2.8-3.5-4.8c-0.4,0.1-0.8-0.6-1-2.2l1.6-5.6l0.2-0.2
				c1.5-4.6,3.4-9.4,5.7-14.2l1.5-2.7l0.2-0.4c0.4-0.7,1.1-1.8,2.6-3l2.2-2c-0.2-0.2-0.2-0.7,0-1.1s0.2-0.9,0.2-1.5
				c0.2-1.2,0.6-2,1.5-2.4l1.1-0.1c0.9,0.1,1.9,0.6,2.7,1.3c1.7-0.7,3.5-1.3,5.6-1.7l3-0.6c-14.9,6.7-23.9,18.9-26.8,36.4
				C160.6,114,173,101.7,191.1,101.5 M185.7,134.7c-1.5-0.1-2.5-0.5-3.2-1.3c0.6-0.6,1-0.8,1.7-0.6l1.1-0.2h0.6
				c0.8,0,0.9,0.5,0.6,1.3l-0.2,0.4C186.2,134.6,185.9,134.7,185.7,134.7 M172.9,156.3c-3.2,1.3-6.5,2.7-9.8,4.3H163h-0.2l-1-0.1
				c-0.6-0.1-0.9-0.4-1-0.7l-0.2-0.7c-0.2-1.2,0.2-2.2,0.6-2.8c13.1-6.5,22.9-12.3,29.1-17.5c1.3,0.9,1.9,2.5,1.3,4.6l-0.2,0.8
				l-0.4,0.6l-0.2,0.1l-4.9,3.7C182.3,151.9,177.9,154.4,172.9,156.3 M152.8,119.9c0.4-6.6,0.2-12-0.4-16.2l0.8,0.2l0.6-0.2l0.4,2.4
				l0.9-0.6l0.6-0.6c0,0.7,0.2,1.3,0.6,1.4c-0.6,0.2-0.9,0.6-1.3,1.1l-0.2,0.2c-0.8,1.7-0.9,4.3-0.6,7.8L152.8,119.9"/>
			<path fill="#9900FF" d="M205.9,107.5c-1,0-1.9,0.2-2.3,0.7c-0.8-0.2-1.3-0.1-1.7,0.2c0.2-0.9,0.6-1.7,1-2l0.9-0.6l1-0.2
				c1,0.2,1.9,1.1,2.1,2.5C206.8,107.6,206.4,107.4,205.9,107.5 M154.1,130.3c2.2-13.6,4.1-20.2,5.6-19.8c0.6-0.1,0.6,1.8,0.2,5.7
				C157.5,121,155.5,125.8,154.1,130.3 M176.5,143.7c-6.8,0.1-10.6-1.5-11.9-5.1c6.8-1.7,13.6-1.4,20.4,0.9
				C181.7,140.4,179,141.8,176.5,143.7"/>
			<path fill="#FF6600" d="M206.8,110.6l-0.6,0.6c-0.8,0.8-1.5,1.4-2.1,1.7c-1.1-2.2-1.3-3.7-0.4-4.6c0.6-0.5,1.3-0.8,2.3-0.7
				c0.4,0,0.8,0.1,1.1,0.5c0.2,0.2,0.2,0.6,0.2,1.3c-1.1-0.2-2.3-0.1-3.2,0.4C204.6,110.1,205.7,110.5,206.8,110.6"/>
			<path fill="#339900" d="M206.3,111.1l0.2,1.4c-1,0.8-2.3,1.3-3.8,1.3c-0.6,0.5-1.5,0.7-2.3,0.6c0.2,0.4,0.4,0.6,0.6,0.6
				c-0.6,0.5-1.1,0.7-2.1,0.7c-0.9,0-1.7,0.2-2.3,0.7h-0.2l-1.9-0.4l-3.5-0.5l0.2-0.2c0.9-1.3,1.9-2.5,2.7-3.5
				c1.5-1.5,3.1-2.4,5.2-2.5l2.5,0.2c-0.2,1.1,0.2,2,0.6,2.8c0.2,0.5,0.9,0.6,1.7,0.2C204.8,112.5,205.5,112,206.3,111.1"/>
			<path fill="#FF6633" d="M156.7,141.1c-0.4-1.9,0.2-3,1.6-3.2l0.2-0.2c7.5-1.5,14.9-4,22.1-7.4c-1.6,2.8-4,4.8-7.3,6.1l5.1,0.2
				c-0.2-0.2,0-0.4,0.2-0.5l0.6-0.2c0.2-0.1,0.2-0.2,0.2-0.4c-0.2-0.4-0.2-0.8-0.2-1.2c0-0.1,0.2-0.2,0.2-0.4l1-0.1
				c0.4,0,0.9-0.1,1.3-0.5c-0.4-0.7-0.6-1.5-0.8-2.5l-0.2-0.6l0,0l0.4,0.9l0.6,1.3l0.4,0.7l0.4,0.4c0.8,0.7,1.9,1.2,3.2,1.3
				c0.2,0,0.6-0.1,0.8-0.4l-0.4,0.9c-0.2,0.5-0.6,0.8-1,0.9c-0.2,0.6-0.2,1.1,0.2,1.3c1.9,0.4,3.5,0.7,5.2,1.3
				c-1.7,0-3.4,0.2-5.2,0.7c-6.8-2.2-13.6-2.6-20.4-0.9c1.1,3.5,5.1,5.2,11.9,5.1l-4.7,3.5l-0.2-0.4c-0.9-0.7-2.2-1.2-3.6-1.4
				l-1.9-0.4l-6.4-0.7l-0.6-0.1C158.1,143.5,157.1,142.3,156.7,141.1 M190.9,144.9l0.2-0.1c0.2,0.9,0.9,1.5,1.9,2
				c-1.6,0.2-2.8,0.8-4.4,1.7c-0.8,0.6-1.6,1.3-2.3,2.2c-0.9,1.2-1.9,2.2-2.7,3.1l0,0l-1,0.1l1.5-1.3l1.5-2c0.4-0.6,0.6-1.2,0.6-2
				L190.9,144.9 M195.5,149l-2.8,0.2c-1.3,0.4-2.5,0.8-3.8,1.3c-0.2,0.1-0.6,0.2-0.8,0.5c-1.1,0.9-2.3,1.7-3.6,2.2l1.3-1.3
				c0.6-0.4,1-0.8,1.7-1.4c1.5-1.2,3.1-2.2,4.9-2.8c1.9-0.8,3.6-0.9,5.3-0.4l0.4,0.1c-0.6,0.2-0.6,0.9-0.6,2.2
				C197.1,149.3,196.3,149.1,195.5,149 M195.1,154.6l5.2,0.6h0.2c-0.6,2.2-3,2-6.9-0.8L195.1,154.6 M152.5,103.8l-0.4-0.4
				c-0.2-0.4-0.6-0.7-0.6-1.2s0.2-0.9,0.6-1.3c0.4-0.4,0.8-0.5,1.1-0.5s0.8,0.1,1.1,0.5c0.2,0.2,0.4,0.6,0.6,0.9v0.2
				c0,0.5-0.2,0.8-0.6,1.2l-0.4,0.4l-0.6,0.2L152.5,103.8 M154.3,115.4c-0.4-3.5-0.2-6.1,0.6-7.8l0.2-0.2c0.4-0.5,0.8-0.8,1.3-1.1
				c-0.4-0.2-0.6-0.7-0.6-1.4l0,0l0.6-0.7c0.2-0.4,0.6-0.5,1.1-0.5h0.2l0.4,0.2c0.4,0.1,0.6,0.5,0.6,0.8v0.8c-0.2,0.7-0.4,1.1-1,1.2
				h-0.6c0,0.5-0.2,0.9-0.4,1.3c-0.4,0.8-0.6,1.7-0.6,2.5v0.7L154.3,115.4 M160,105.9l0.8-0.7l1.1-0.2c0.4,0,0.8,0.1,1.1,0.6
				c0.2,0.4,0.2,0.7,0,0.9c-0.2,0.2-0.6,0.4-1.1,0.4l-0.2-0.4c-0.2-0.2-0.6-0.5-0.9-0.6L160,105.9"/>
			<path fill="#CC6633" d="M183.6,123.2c1.1-0.5,2.2-1.2,3.1-2l1.9-2l2.5-3.5l3.5,0.5l-2.1,2.8c-0.6,0.8-1.5,1.8-2.5,2.6
				c-0.9,0.8-2.6,1.9-4.8,3.2C185,124.1,184.4,123.4,183.6,123.2 M183.6,153.7c0.9-0.8,1.9-1.9,2.7-3.1c0.8-0.9,1.6-1.7,2.3-2.2
				c1.3-0.8,2.7-1.4,4.4-1.7l1.6-0.2c1.3,0,2.3,0.2,3.2,0.8c-1.7-0.5-3.5-0.4-5.3,0.4c-1.9,0.8-3.5,1.8-4.9,2.8
				c-0.6,0.5-1.1,0.9-1.7,1.4l-1.3,1.3L183.6,153.7 M198,152.4l-3.2-0.7l1.7,0.1c1.1,0.1,2.2-0.1,3.1-0.5c-0.2,0.8,0,1.4,0.6,1.9
				C199.7,152.9,199,152.5,198,152.4 M155.8,104.9L155.8,104.9l-0.6,0.7l-0.9,0.6l-0.4-2.4l0.4-0.4c0.4-0.4,0.6-0.7,0.6-1.2V102
				c0.9,0.4,1.3,1.1,1.5,2.2L155.8,104.9 M160,105.9l-0.6,0.1l-0.6,0.2l-0.6,0.9c-0.8,1.2-1.6,2.6-2.3,4.3v-0.7
				c0.2-0.8,0.2-1.7,0.6-2.5c0.2-0.4,0.2-0.8,0.4-1.3h0.6c0.6-0.1,0.9-0.5,1-1.2V105l0.2-0.1l0.8-0.2c0.6-0.1,0.8,0.1,0.9,0.7
				L160,105.9"/>
			<path fill="#336600" d="M206.5,112.6c0,0.2-0.2,0.6-0.4,0.8c-3.1,2.6-6.3,3.7-9.4,3.2c0.6-0.5,1.5-0.7,2.3-0.7
				c0.9,0,1.6-0.2,2.1-0.7c-0.4-0.1-0.6-0.4-0.6-0.6c0.9,0.1,1.7-0.1,2.3-0.6C204.2,113.9,205.2,113.4,206.5,112.6 M148.6,137.7
				c1.1-6.9,2.6-12.8,4.1-17.6l1.6-4.5l1.7-4.1c0.8-1.5,1.6-3,2.3-4.3l0.6-0.9l0.6-0.2l0.6-0.1l0.8,0.1c-1.9,1.1-4.4,6.4-7.5,16.2
				C151.8,126.5,150.3,131.7,148.6,137.7"/>
			<path fill="#FF9900" d="M162,155.4c3.2-3.2,6.5-5.9,9.8-8.3h0.2l4.7-3.5c2.6-1.9,5.5-3.2,8.6-4.1c1.9-0.6,3.6-0.8,5.2-0.7
				C181.5,141,172.1,146.5,162,155.4 M160.9,109.9l-0.2,1.4c0,0.6,0,0.9,0.2,1.3l0.2,0.8l-1.5,2.7c0.6-3.9,0.6-5.7-0.2-5.7
				c-1.6-0.5-3.4,6.1-5.6,19.8l-0.2,0.2L152,136c-0.8-4-0.6-8.7,0.8-14c3.1-9.8,5.6-15.1,7.5-16.2c0.4,0.1,0.6,0.2,0.9,0.6l0.2,0.4
				l0.2,0.6L160.9,109.9"/>
			<path fill="#FF9933" d="M180.5,130.3L180.5,130.3c-7.2,3.5-14.6,5.8-22.1,7.4c1.9-2.4,4-4.6,6.3-6.7c7.7-1.5,12.9-3.3,15.5-5.4
				c-0.2,0.6-0.2,1.3-0.2,2.2l0.2,0.6c0.2,0.6,0.2,1.2,0.4,1.7L180.5,130.3"/>
			<path fill="#FFCC00" d="M193.5,154.4l-0.9-0.1c-0.8,0-1.6,0.4-2.5,1.1c-1.1-1.7-4.1-1.9-8.7-0.7l1-0.7l1-0.2l0,0l0.9-0.4
				c1.3-0.5,2.6-1.2,3.6-2.2c0.2-0.2,0.6-0.4,0.8-0.5c1.1-0.6,2.5-1.1,3.8-1.3l2.8-0.2c0.8,0,1.5,0.2,2.1,0.7c1,0.2,1.7,0.7,2.1,1.7
				c-0.9,0.4-1.9,0.5-3.1,0.5l-1.7-0.1l3.2,0.7c0.8,0.1,1.5,0.5,1.9,0.8c0.6,0.5,1,1.1,1.3,1.8h-1h-0.2l-5.2-0.6L193.5,154.4
				 M190.2,138.7c-6.3,5.1-16,11-29.1,17.5l0.8-0.8C172.1,146.5,181.5,141,190.2,138.7"/>
			<path fill="#330000" d="M203.9,109.5c0.9-0.5,2.1-0.6,3.2-0.4l-0.2,0.6l-0.6,0.8C205.7,110.5,204.6,110.1,203.9,109.5"/>
			<path fill="#00FF00" d="M153.2,122.2c-1.3,5.3-1.6,10-0.8,14l-0.8,2.8c-0.2,0.4-0.2,0.6-0.6,0.8c-0.2,0.2-0.4,0.4-0.8,0.5
				c-0.6,0.1-1,0-1.5-0.4l-0.2-0.2l-0.2-2.2C150.3,131.7,151.8,126.5,153.2,122.2"/>

				<path fill="none" stroke="#00CC00" stroke-width="0.7" stroke-linecap="round" stroke-linejoin="round" stroke-miterlimit="3" d="
				M191.1,101.5c-18.1,0.2-30.6,12.7-37.6,36.9c3-17.5,12-29.6,26.8-36.4l1.1-0.1 M189.3,116l0.4-0.7l0.6-1.1
				c0.6-0.9,1.1-1.8,1.9-2.5l0.6-0.6c1.1-1.1,2.8-1.8,4.7-2.4l1.3-0.2c1-0.1,1.9-0.5,2.3-1.1c0.8-0.8,1.7-1.4,2.8-1.8 M196.6,116.6
				c0.6-0.5,1.5-0.7,2.3-0.7c0.9,0,1.6-0.2,2.1-0.7c-0.4-0.1-0.6-0.4-0.6-0.6c0.9,0.1,1.7-0.1,2.3-0.6c1.5,0,2.7-0.5,3.8-1.3
				 M181.5,154.6c4.7-1.2,7.5-0.9,8.7,0.7"/>
		</g>
	</g>
</g>
</svg>