<?xml version="1.0" encoding="utf-8"?>
<svg version="1.1" id="Layer_1"  xmlns="http://www.w3.org/2000/svg"
	 x="0px" y="0px" viewBox="0 0 86 98" enable-background="new -0.5 -0.5 86 98" xml:space="preserve">

<g id="frogLeft">
	<g transform="matrix(1.4453,0,0,1.4453,21,-8)">
		<g id="_x30_:150:71:48:25:1:14">
			<g transform="matrix(0.507782,0,0,0.601807,22.5,25.8)">
				<g id="_x30_:150:71:48:25:1:14:1:13">
					<g transform="matrix(1,0,0,1,0,0)">
						<path fill="#669900" d="M-4.7,9.6L-3,9.5c1.6,0.8,2.8,1.8,3.7,3.2c0.7,4.4,0.6,8.7-0.6,12.8l-0.2,1.4l-2.2,0.4
							c-1.1-0.4-2.2,0-3.3,1.2l-0.8-0.7l-0.8-1.3l-1.3-2.4l-0.7-1.7L-9.3,22c-0.2-0.9-0.6-2-0.8-3l-0.1-1c-0.1-1.6-0.1-2.9,0.1-3.9
							C-9.5,11.4-7.6,10-4.7,9.6 M-46.4-19.3c0,2-0.4,5.6-1.5,11.1l-0.6-1.5c-0.4-0.5-0.6-1.3-0.4-2.4l0.4-2.6L-46.4-19.3
							 M-63.2,37.5c6-32,23.8-54.2,53.7-66.5l2.4-0.2L12.1-30C-24.2-29.6-49.3-7.1-63.2,37.5"/>
						<path fill="#66FF00" d="M12-30.2l0.4-0.4c1.6-2.2,3.8-3.2,6.7-3.1l5.8,1.2c2.1,0.8,3,2.1,2.8,4.1L12-30.2 M-24.5,70.2l9.5-1.5
							l5.9-1.2l1.7-0.4c9.3-2.2,15.1-1.8,17.6,1.3C1.9,77.7-16.2,80.8-43.9,78l0,0C-37.4,75.2-30.9,72.6-24.5,70.2 M8.4-3.4l0.8-1.3
							l1.2-2c1.1-1.7,2.2-3.2,3.7-4.6l1.2-1c2.5-1.8,5.7-3.2,9.4-4.3l2.7-0.5c2.1-0.2,3.7-0.9,4.8-2c1.5-1.6,3.5-2.6,5.8-3.2l-2,1.2
							c-0.9,0.7-1.6,2-2.1,3.8c0.7-0.7,1.7-0.8,3.3-0.5c-1.9,1.6-1.6,4.3,0.8,8.3c-1.9,0.7-3,0.6-3.6-0.5c-0.9-1.5-1.2-3.2-1.2-5.2
							l-5-0.5c-4.2,0.1-7.7,1.7-10.4,4.6c-1.7,1.8-3.6,3.9-5.4,6.4L12-4.2L6.9,2L3.1,5.7c-1.9,1.5-4,2.7-6.4,3.7L-5,9.5
							c-3,0.4-4.8,1.8-5.4,4.4c-5.3,3.8-15.6,7.1-31,9.9c4.8-4.3,9.8-8.3,15-12.2C-15.8,4.1-4.3-0.9,8.4-3.4"/>
						<path fill="#66CC00" d="M12-30.2l15.8,1.8c1.5,2.9,4,4.6,7.7,4.9H36l4,0.5l-2,0.5c-2.4,0.5-4.4,1.6-5.8,3.2
							c-1.1,1.2-2.7,1.8-4.8,2l-2.7,0.5c-3.8,1-7,2.5-9.4,4.3l-1.2,1c-1.5,1.3-2.7,2.9-3.7,4.6L9.2-4.8L8.4-3.4
							C-4.3-0.9-15.8,4-26.3,11.7c-5.1,3.8-10.2,7.9-15,12.2c-4.3,3.9-8.5,8-12.4,12.2l-0.4,0.4c-2.7,0.4-3.7,2.4-3,5.9
							c1.2,2.5,2.8,4.4,4.8,5.7c-1.5-0.2-2.8-0.9-3.8-2c-2.9-2.4-5.3-5.2-7.2-8.6c-0.8,0.2-1.5-1-2.1-4.1l3-10.2l0.1-0.5
							c2.9-8.5,6.7-17.2,11.5-26l2.8-5.1l0.4-0.7c0.7-1.5,2.4-3.2,5.1-5.5l4.5-3.7c-0.4-0.5-0.6-1.2-0.1-2c0.2-0.8,0.6-1.7,0.6-2.7
							c0.1-2.2,1.2-3.7,3-4.4l2.4-0.2c1.7,0.2,3.6,1,5.6,2.5c3.3-1.3,7-2.4,11.1-3.1l5.9-1C-39.2-16.7-57.2,5.4-63.2,37.4
							C-49.3-7.1-24.2-29.6,12-30.2 M1,30.7c-2.8-0.1-5-0.9-6.6-2.4c1.1-1.2,2.2-1.5,3.3-1.2l2.2-0.4h1.5c1.5,0.1,1.9,0.9,1.3,2.5
							L2.4,30C2,30.6,1.5,30.9,1,30.7 M-24.5,70.2c-6.4,2.4-13,4.9-19.6,7.7h-0.2l-0.4,0.1l-2-0.1c-1.1-0.1-1.7-0.5-2.1-1.3
							l-0.6-1.3c-0.2-2.2,0.2-3.9,1.5-5.2c26.3-11.9,45.6-22.5,58.2-31.9c2.6,1.6,3.5,4.4,2.6,8.5l-0.6,1.5l-0.7,1l-0.1,0.1
							l-9.9,6.9C-5.8,62-14.5,66.7-24.5,70.2 M-64.8,3.8c0.7-12.1,0.6-22.1-0.7-29.6l1.6,0.4l1.5-0.4l0.8,4.4l1.7-1.2l1.3-1.2
							c0,1.5,0.4,2.4,1.2,2.6c-0.9,0.4-1.9,1-2.7,2l-0.4,0.4c-1.5,3-1.9,7.8-1.2,14.3L-64.8,3.8"/>
						<path fill="#9900FF" d="M41.7-19.2c-2.1,0-3.6,0.4-4.5,1.3c-1.5-0.4-2.7-0.1-3.3,0.5c0.6-1.8,1.2-3.1,2.1-3.8l2-1.2l2-0.5
							c2.1,0.4,3.6,1.8,4.1,4.6C43.3-19,42.5-19.2,41.7-19.2 M-62.2,22.6c4.5-24.9,8.2-37,11.2-36.2c1.2-0.1,1.3,3.2,0.2,10.3
							C-55.5,5.6-59.3,14.2-62.2,22.6 M-17.4,47c-13.5,0.2-21.3-2.7-23.5-9.3c13.6-3.1,27.1-2.5,40.7,1.7
							C-6.4,41.2-12.1,43.6-17.4,47"/>
						<path fill="#FF6600" d="M43.2-13.5l-1.1,1.2c-1.5,1.6-2.9,2.5-4.2,3c-2.4-4-2.7-6.8-0.8-8.3c0.9-0.9,2.5-1.5,4.5-1.3
							c0.8,0,1.5,0.2,2.4,0.9c0.2,0.4,0.2,1.2,0.1,2.4c-2.5-0.5-4.6-0.2-6.6,0.7C39.2-14.3,41-13.6,43.2-13.5"/>
						<path fill="#339900" d="M42.1-12.5l0.4,2.6c-2.1,1.6-4.6,2.5-7.7,2.5c-1.3,0.9-2.8,1.3-4.6,1.2c0.2,0.7,0.8,1,1.5,1.2
							c-0.9,0.9-2.4,1.3-4.1,1.3c-1.9,0-3.5,0.4-4.8,1.3h-0.2l-3.7-0.7l-7-0.9l0.4-0.5c1.9-2.5,3.7-4.6,5.4-6.4
							c2.8-2.9,6.2-4.3,10.4-4.6l5,0.5c-0.1,2,0.2,3.8,1.2,5.2c0.7,0.9,1.9,1,3.5,0.4C39.2-9.8,40.7-10.9,42.1-12.5"/>
						<path fill="#FF6633" d="M-56.9,42.3c-0.7-3.5,0.4-5.5,3-5.9l0.4-0.4c15.1-2.9,29.7-7.3,44.2-13.6c-3.2,5.1-8.1,8.9-14.7,11.1
							l10.2,0.4c-0.1-0.4,0-0.8,0.2-0.8l0.9-0.5c0.4-0.1,0.6-0.4,0.4-0.8c-0.2-0.8-0.4-1.5-0.2-2.2c0-0.2,0.1-0.5,0.4-0.7l2-0.1
							c0.8,0,1.7-0.2,2.7-0.8c-0.8-1.5-1.3-2.9-1.6-4.6l-0.1-1.2l0,0l0.7,1.7l1.3,2.4l0.8,1.3l0.8,0.7c1.6,1.5,3.8,2.1,6.6,2.4
							c0.7,0,1.1-0.1,1.5-0.7L2,31.8c-0.4,0.9-1.2,1.5-2,1.7c-0.4,1.2-0.2,2,0.1,2.4c3.6,0.7,7,1.5,10.4,2.4
							c-3.3-0.1-6.9,0.4-10.6,1.5c-13.7-4.3-27.1-4.9-40.7-1.8c2.2,6.5,10.2,9.5,23.5,9.3l-9.4,6.4l-0.4-0.5c-2-1.2-4.4-2.1-7.2-2.7
							l-3.8-0.7l-12.7-1.3l-1.2-0.1C-54.3,46.8-55.9,44.8-56.9,42.3 M11.5,49.2l0.2-0.1c0.6,1.7,1.9,2.9,3.8,3.7
							c-3,0.4-5.8,1.5-8.5,3c-1.7,1-3.2,2.4-4.6,4c-1.9,2.1-3.7,4-5.6,5.6l0,0l-2,0.5l2.8-2.5l2.8-3.7c0.7-1,1.1-2.2,1.2-3.7
							L11.5,49.2 M20.8,57l-5.7,0.4c-2.5,0.7-5,1.5-7.4,2.5c-0.6,0.1-1.1,0.5-1.6,0.9c-2.2,1.7-4.8,3.1-7.4,4l2.5-2.4
							c0.9-0.8,2.1-1.6,3.5-2.6c2.9-2.1,6.2-3.8,9.9-5.2c3.6-1.5,7.3-1.7,10.8-0.8l0.8,0.1c-0.9,0.5-1.3,1.8-1.2,4
							C23.7,57.4,22.4,57.1,20.8,57 M19.8,66.9l10.6,1.2h0.4c-1.3,4.1-5.9,3.7-13.8-1.5L19.8,66.9 M-65.4-25.9l-0.8-0.5
							c-0.7-0.7-0.9-1.3-0.9-2.2c0-0.9,0.2-1.7,0.9-2.4c0.7-0.7,1.5-0.9,2.4-0.9c0.9,0,1.6,0.2,2.2,0.9c0.6,0.5,0.9,1.2,1.1,1.8v0.5
							c0,0.9-0.4,1.6-1.1,2.2l-0.8,0.7l-1.5,0.4L-65.4-25.9 M-61.7-4.5c-0.7-6.5-0.2-11.2,1.2-14.3l0.4-0.4c0.8-0.9,1.7-1.6,2.7-2
							c-0.7-0.4-1.1-1.3-1.2-2.6l0.1-0.1l0.9-1.3c0.6-0.5,1.3-0.8,2.4-0.8h0.4l0.8,0.4c0.8,0.2,1.2,0.8,1.3,1.6l-0.1,1.5
							c-0.1,1.2-0.8,2-2.1,2.1h-1.2c-0.1,0.9-0.2,1.7-0.7,2.4c-0.7,1.6-1.2,3.1-1.3,4.7l-0.1,1.3L-61.7-4.5 M-50.3-22.1l1.6-1.3
							l2.2-0.5c0.8,0,1.6,0.2,2.2,1c0.6,0.7,0.6,1.3,0,1.8s-1.3,0.8-2.2,0.7l-0.6-0.5c-0.6-0.5-1.1-0.9-1.9-1L-50.3-22.1"/>
						<path fill="#CC6633" d="M-3,9.5c2.2-0.9,4.4-2.1,6.4-3.7l3.8-3.7l5-6.3l7,0.9l-4,5.2c-1.3,1.6-2.9,3.1-4.9,4.7
							s-5.1,3.5-9.5,5.9C-0.2,11.3-1.6,10.3-3,9.5 M-3.1,65.4c1.9-1.6,3.7-3.5,5.6-5.6c1.5-1.7,3-3.1,4.6-4c2.7-1.6,5.4-2.5,8.5-3
							l3.2-0.4c2.5,0,4.6,0.5,6.5,1.6c-3.5-0.9-7.2-0.7-10.8,0.8c-3.7,1.5-7,3.1-9.9,5.2C3.2,61,2,61.9,1,62.7l-2.5,2.4L-3.1,65.4
							 M26.1,63.2l-6.6-1.3l3.3,0.1c2.4,0.1,4.5-0.1,6.4-0.8c-0.4,1.5,0,2.6,1.1,3.5C28.9,64,27.6,63.5,26.1,63.2 M-58.5-23.8
							L-58.5-23.8l-1.5,1.3l-1.7,1.2l-0.8-4.4l0.8-0.7c0.7-0.7,1.1-1.3,1.1-2.2v-0.5c1.7,0.7,2.8,2,3,4L-58.5-23.8 M-50.3-22.1
							l-1.1,0.1l-1.1,0.5l-1.2,1.7c-1.6,2.2-3.2,4.8-4.6,7.7l0.1-1.3c0.1-1.6,0.7-3.1,1.3-4.7c0.4-0.7,0.6-1.5,0.7-2.4h1.2
							c1.2-0.1,1.9-0.9,2.1-2.1l0.1-1.5l0.6-0.1l1.7-0.5c1.1-0.1,1.7,0.2,1.9,1.3L-50.3-22.1"/>
						<path fill="#336600" d="M42.6-9.8c0,0.5-0.2,1-0.8,1.6c-6.2,4.8-12.5,6.8-18.9,5.7c1.3-0.9,2.9-1.3,4.8-1.3
							c1.7,0.1,3-0.4,4.1-1.3c-0.7-0.1-1.2-0.5-1.5-1.2c1.9,0.1,3.3-0.2,4.6-1.2C37.9-7.3,40.4-8.1,42.6-9.8 M-72.9,36
							c2.5-12.5,5.1-23.3,8.2-32.4l3-8.2l3.5-7.6c1.5-2.9,3-5.5,4.6-7.7l1.2-1.7l1.1-0.5l1.1-0.1l1.5,0.1
							c-3.7,1.8-8.7,11.8-15.1,29.7C-66.6,15.6-69.6,25.1-72.9,36"/>
						<path fill="#FF9900" d="M-46.4,68.7c6.5-5.9,13-11,19.5-15.1l0.1-0.1l9.4-6.4c5.3-3.4,11-5.9,17.2-7.6c3.7-1,7.3-1.5,10.6-1.5
							C-7.2,42.1-26.1,52.3-46.4,68.7 M-48.3-14.8l-0.4,2.6c0,1,0.1,1.8,0.4,2.4l0.6,1.5l-2.8,5.1c1.1-7.1,1.1-10.5-0.3-10.4
							c-3-0.8-6.7,11.3-11.2,36.3l-0.1,0.5l-3,10.2c-1.7-7.3-1.2-15.8,1.5-25.7c6.2-17.9,11.2-27.8,15-29.7c0.8,0.1,1.3,0.5,1.9,1
							l0.6,0.5l0.1,1L-48.3-14.8"/>
						<path fill="#FF9933" d="M-9.3,22.6L-9.3,22.6c-14.4,6.1-29.2,10.7-44.3,13.5c4-4.3,8.1-8.3,12.4-12.2
							c15.4-2.7,25.8-6.2,31.1-9.9c-0.2,1.2-0.4,2.5-0.1,3.9l0.1,1c0.1,1,0.4,2.1,0.8,3L-9.3,22.6"/>
						<path fill="#FFCC00" d="M16.9,66.6L15,66.5c-1.5-0.1-3.2,0.5-4.8,2C7.8,65.3,2,64.9-7.4,67.1l2.1-1.3l2-0.5l0,0l1.9-0.5
							c2.7-0.9,5.1-2.2,7.4-4c0.6-0.4,1.1-0.8,1.6-0.9c2.4-1,4.9-1.8,7.4-2.5l5.7-0.4c1.6,0,2.9,0.5,4.1,1.2c2,0.4,3.5,1.5,4.2,3.1
							c-1.9,0.7-4,0.9-6.4,0.8L19.3,62l6.6,1.3c1.6,0.2,2.9,0.8,4,1.6s2,2,2.7,3.2h-2h-0.2l-10.6-1.2L16.9,66.6 M10.3,38.2
							C-2.3,47.6-21.6,58.3-48,70.1l1.6-1.5C-26.1,52.3-7.2,42.1,10.3,38.2"/>
						<path fill="#330000" d="M37.6-15.3c2-0.9,4.1-1.2,6.6-0.7l-0.1,1l-0.9,1.5C41-13.6,39.2-14.3,37.6-15.3"/>
						<path fill="#00FF00" d="M-63.8,7.7c-2.7,9.8-3.2,18.4-1.5,25.7l-1.6,5.2c-0.2,0.7-0.6,1.2-1.1,1.6c-0.4,0.4-0.8,0.7-1.5,0.8
							c-1.2,0.2-2.1,0-2.8-0.7l-0.1-0.4L-73,36C-69.6,25.1-66.6,15.6-63.8,7.7"/>

							<path fill="none" stroke="#00CC00" stroke-width="0.7" stroke-linecap="round" stroke-linejoin="round" stroke-miterlimit="3" d="
							M12-30.2c-36.3,0.5-61.2,23.1-75.1,67.7c5.9-32,23.7-54.2,53.6-66.5l2.4-0.2 M8.4-3.4l0.8-1.3l1.2-2c1.1-1.7,2.2-3.2,3.7-4.6
							l1.2-1c2.5-1.8,5.7-3.2,9.4-4.3l2.7-0.5c2.1-0.2,3.7-0.9,4.8-2c1.5-1.6,3.5-2.6,5.8-3.2 M22.9-2.5c1.3-0.9,2.9-1.3,4.8-1.3
							c1.7,0.1,3-0.4,4.1-1.3c-0.7-0.1-1.2-0.5-1.5-1.2c1.9,0.1,3.3-0.2,4.6-1.2c2.9,0,5.4-0.8,7.7-2.5 M-7.4,67.1
							c9.3-2.2,15.1-1.8,17.6,1.3"/>
					</g>
				</g>
			</g>
		</g>
	</g>
</g>

</svg>
