<?xml version="1.0" encoding="utf-8"?>
<svg version="1.1" id="Layer_1"  xmlns="http://www.w3.org/2000/svg"
	 x="0px" y="0px" viewBox="0 0 87 87" enable-background="new -0.5 -0.5 87 87" xml:space="preserve">
<g id="gameIcon">
	<g id="Scene_1_f6">
		<path fill="#0099FF" stroke="#000000" stroke-width="4" stroke-linecap="round" stroke-linejoin="round" d="M40.732,0.848
			c-10.73,0-19.889,3.632-27.479,10.768C5.663,18.877,2,27.642,2,37.909c0,10.265,3.794,19.03,11.252,26.167
			c7.591,7.261,16.749,10.893,27.479,10.893c10.73,0,19.889-3.632,27.48-10.893c7.589-7.261,11.384-16.026,11.384-26.167
			c0-10.142-3.795-19.032-11.384-26.293C60.621,4.354,51.462,0.848,40.732,0.848"/>
		<path fill="#FF6633" d="M43.741,2.601c-0.392-0.376-0.785-0.5-1.177-0.5c-0.393,0-0.917,0.125-1.309,0.5
			c-0.393,0.376-0.523,0.751-0.523,1.252l0.13,0.375l0.524,0.877l0.654,0.375l0.654,0.127c0.523,0,0.915-0.127,1.309-0.501
			l0.131-0.251c0.261-0.25,0.393-0.626,0.393-1.001C44.265,3.352,44.134,2.851,43.741,2.601"/>
		<path fill="#CC6633" d="M41.91,5.479l-1.439,2.005l1.176,0.25l1.048,0.125V7.734l0.785-0.125h0.13
			c0.785-0.877,0.917-1.878,0.394-2.755l-0.13,0.251c-0.393,0.375-0.787,0.501-1.309,0.501L41.91,5.479"/>
		<path fill="#66CC00" d="M40.471,7.484l1.439-2.005l-0.655-0.375l-0.523-0.877c-0.785,1.002-1.569,1.878-2.487,3.006
			c-2.354,2.629-5.496,5.509-9.159,8.765l4.448-2.003c2.356-2.756,4.45-4.382,6.283-5.008h0.391c0.654,0,1.309,0,1.833,0.25
			c-0.13-0.375,0-0.876,0.523-1.377l-1.047-0.125L40.471,7.484"/>
		<path fill="#FF6633" d="M43.61,7.609h-0.13l-0.785,0.125v0.125c-0.523,0.501-0.785,1.002-0.523,1.377
			c-0.524-0.25-1.179-0.25-1.833-0.25h-0.392c-1.833,0.626-3.795,2.379-6.28,5.008l4.448-1.628l0.655-0.501
			c0.654-0.5,1.439-0.876,2.356-1.252c0.521-0.125,0.915-0.375,1.308-0.75l0.522,0.501c0.524,0.376,1.179,0.376,1.703-0.125
			l0.523-0.501c0.261-0.376,0.261-0.751,0.131-1.127l-0.131-0.5l-0.132-0.126c-0.13-0.125-0.391-0.25-0.522-0.375
			C44.003,7.609,43.741,7.609,43.61,7.609"/>
		<path fill="#00FF00" d="M11.421,27.016v0.125c0,0.501,0.13,1,0.654,1.377c0.261,0.25,0.654,0.25,0.916,0.25
			c0.393,0,0.654-0.125,1.047-0.25l2.748-1.377c2.224-3.38,5.887-6.511,10.991-9.265c-4.317,2.003-9.291,4.508-15.047,7.511
			L11.421,27.016"/>
		<path fill="#66CC00" d="M16.917,27.141c-0.917,1.377-1.178,2.252-0.785,2.504C31.441,19.503,47.406,17.75,64.286,24.26
			l-2.748-1.876c-1.963-1.379-3.795-2.38-5.758-3.131c-0.13-1.252-0.654-2.379-1.309-3.005l-1.046-0.876
			c-1.048-0.376-1.963-0.251-3.01,0.626c-0.522,0.375-0.916,0.626-1.176,0.876c-0.524,0.125-0.787,0.376-0.917,0.751l-3.14-0.375
			c-1.963-0.127-3.401-0.127-4.319,0.125L40.471,17.5l-3.141,0.75c-5.365,1.629-10.337,3.507-14.917,5.635L16.917,27.141"/>
		<path fill="#FF6633" d="M16.654,33.777c-0.522,1.376-0.785,2.754-0.522,4.132l6.28,7.636c0.916,1.252,1.57,2.504,1.832,3.757
			l-0.131,0.376l6.281,1.125c-5.495-5.007-7.328-9.264-5.627-12.645c6.543,4.006,11.778,9.39,15.441,16.151
			c1.833,1,3.402,2.252,4.711,3.505c-0.916-1.627-1.963-3.255-3.139-4.882c0-0.252,0.261-0.626,0.784-1.002
			c0.392,0.252,0.916,0.252,1.439,0.125l1.046-0.375c-0.261,0.125-0.522,0-0.915-0.376c-1.046-1.127-1.701-2.252-1.701-3.38v-0.501
			l0.655-2.253l0.392-0.877l0,0l-0.524,0.501c-0.522,0.751-0.915,1.504-1.176,2.38c-0.524-0.125-1.048-0.376-1.439-0.626
			l-0.917-0.751c-0.131,0-0.261,0-0.392,0.125c-0.394,0.25-0.654,0.501-0.917,1.002c0,0.25-0.13,0.25-0.391,0.125L37.2,46.924
			c-0.131-0.126-0.394,0-0.524,0.125l-3.926-4.008c3.533,1.628,7.068,2.005,10.339,1.252c-8.246-3.128-15.834-7.01-23.032-11.644
			l-0.392,0.126C18.88,31.898,17.702,32.149,16.654,33.777"/>
		<path fill="#66CC00" d="M16.132,37.909c-0.263-1.252-0.132-2.631,0.522-4.132c1.178-1.627,2.356-1.879,3.535-1.001l0.391-0.126
			c3.271-0.125,6.543-0.125,9.945,0c3.533,0.126,7.198,0.501,10.861,1.002c7.197,1.001,13.872,3.505,19.758,7.386l0.917-0.125
			l1.176-0.375c1.178-0.251,2.226-0.376,3.271-0.376l0.916,0.125c1.178,0.125,2.356,0.501,3.665,1.002
			c0.654,0.25,1.309,0.626,1.963,1l1.309,0.751c0.916,0.626,1.7,1.002,2.617,1.002h0.131c1.178,0,2.486,0.376,3.663,1.127
			l1.047,0.501l-1.308-1.628l-0.262-0.25c-1.308-1.629-1.571-3.255-1.047-4.883l-5.625-6.761c-0.524-0.501-1.179-1.002-1.703-1.628
			c-0.654-0.626-1.439-1.127-2.094-1.627c-14.001-10.392-31.797-10.142-53.257,0.751c-0.785,2.003-0.915,4.006-0.654,6.01
			C15.478,36.531,15.739,37.283,16.132,37.909"/>
		<path fill="#FF9900" d="M16.917,27.141l5.626-2.881c11.909-7.888,18.189-11.143,19.104-9.766c0.655,0.376-0.785,1.753-4.056,4.008
			l3.141-0.752l0.394-0.751c0.13-0.375,0.392-0.751,0.785-1.126l1.308-0.752l2.618-1l0.391-0.501l0.131-0.376
			c0-0.375-0.131-0.75-0.392-1.125c-2.226-0.753-8.243,1.252-17.927,5.759C22.673,20.63,19.141,23.761,16.917,27.141"/>
		<path fill="#FF6633" d="M45.704,12.117c0.263,0.375,0.394,0.75,0.394,1.125l-0.131,0.376c0.392,0.376,0.785,0.626,1.178,0.626
			c0.392,0,0.654-0.25,0.785-0.751c0-0.501-0.131-0.877-0.393-1.252l-1.046-0.751h-1.178L45.704,12.117"/>
		<path fill="#CC6633" d="M46.358,11.616c0.263-0.376,0.132-0.751-0.392-1.127l-1.047-0.625l-0.524,0.501
			c-0.522,0.376-1.177,0.501-1.7,0.125l-0.523-0.5c-0.392,0.376-0.785,0.625-1.309,0.752c-0.916,0.375-1.7,0.751-2.354,1.25
			l-0.654,0.501c1.833-0.501,3.402-1,4.972-1.252l1.178-0.125l0.524,0.125l0.392,0.376H46.358"/>
		<path fill="#336600" d="M45.181,11.491l-0.393-0.376l-0.524-0.125l-1.178,0.125c-1.569,0.25-3.14,0.751-4.972,1.252l-4.448,1.628
			l-4.45,2.003c-4.841,2.377-10.336,5.508-16.356,9.515c5.756-3.004,10.73-5.508,15.047-7.511c9.683-4.507,15.702-6.51,17.928-5.759
			L45.181,11.491"/>
		<path fill="#669900" d="M43.086,15.121l-1.307,0.752c-0.394,0.375-0.654,0.751-0.787,1.126l-0.392,0.751
			c2.617-1.752,4.318-3.004,5.103-3.755L43.086,15.121"/>
		<path fill="#9900FF" d="M37.46,18.627c3.272-2.254,4.711-3.631,4.057-4.005c-0.785-1.504-7.196,1.751-19.104,9.766
			C26.993,22.008,31.965,20.129,37.46,18.627"/>
		<path fill="#66FF00" d="M41.255,33.777c-3.665-0.501-7.328-0.876-10.861-1.001c7.196,4.757,12.692,7.511,16.357,8.013
			c1.178-0.751,2.487-0.626,3.926,0.376l0.654,0.626c1.309,0.499,2.617,0.875,4.057,1l3.008,0.125l4.581-0.626h0.393
			c1.701-0.25,3.27-0.375,4.709-0.375c1.047,0,2.095,0.125,3.01,0.5c1.047,0.376,2.094,1.002,3.009,1.878l1.833,2.005
			c-0.785,0.751-1.44,1.502-1.701,2.502c-0.132,0.626,0.261,1.127,1.307,1.377c0.132-0.624,0.394-1.125,0.523-1.501
			c0.654-1.377,1.439-2.128,2.487-2.003c-0.394-0.751-0.916-1.128-1.439-1.128c0.915-0.5,1.7-0.751,2.354-0.626l1.178,0.376
			c-1.178-0.75-2.354-1.127-3.663-1.127h-0.132c-0.785,0-1.7-0.25-2.615-1l-1.309-0.753c-0.654-0.375-1.309-0.624-1.963-1
			c-1.309-0.501-2.487-0.876-3.665-1.002l-0.916-0.125c-1.047,0-2.093,0-3.271,0.376l-1.179,0.375l-0.916,0.127
			C54.995,37.156,48.451,34.779,41.255,33.777"/>
		<path fill="#FF9933" d="M30.395,32.775c-3.271-0.126-6.673-0.126-9.945,0c7.065,4.632,14.787,8.514,23.03,11.644h0.13l0.131-0.376
			c0.263-0.501,0.524-1.002,0.917-1.502l0.391-0.376c0.523-0.625,1.048-1.127,1.702-1.501
			C42.956,40.162,37.591,37.533,30.395,32.775"/>
		<path fill="#669900" d="M65.332,25.138l-1.046-0.751c-16.88-6.637-32.845-4.884-48.153,5.383
			c21.458-10.893,39.256-11.143,53.255-0.751c0.655,0.501,1.441,1.127,2.095,1.627L65.332,25.138"/>
		<path fill="#66FF00" d="M73.577,32.149h-0.394l5.626,6.761c0.786-0.751,0.917-1.627,0.523-2.629L77.5,33.651
			c-0.391-0.376-0.654-0.626-1.045-0.876C75.538,32.149,74.623,31.898,73.577,32.149"/>
		<path fill="#9900FF" d="M80.381,45.045l-1.178-0.376c-0.654-0.125-1.439,0.125-2.356,0.626c0.524,0,1.048,0.376,1.441,1.127
			c0.785,0,1.57,0.501,2.485,1.252c0.263,0.25,0.524,0.751,0.524,1.252c0.915-1.252,0.915-2.379,0.13-3.382L80.381,45.045"/>
		<path fill="#FF6600" d="M81.166,48.927c0-0.501-0.263-1.002-0.524-1.252c-0.785-0.751-1.7-1.252-2.486-1.252
			c-1.046,0-1.831,0.626-2.485,2.003c-0.263,0.501-0.393,1.001-0.523,1.502c0,0,0,0,0.13,0c0.655,0.376,1.569,0.501,2.748,0.501
			h0.917c-0.787-0.875-1.309-1.878-1.572-2.88c1.179,0.376,2.093,1.127,2.88,2.255C80.903,49.427,81.166,49.177,81.166,48.927"/>
		<path fill="#330000" d="M78.942,50.429l0.915-0.251l0.524-0.374c-0.785-1.127-1.702-1.878-2.88-2.255
			C77.633,48.676,78.155,49.553,78.942,50.429"/>
		<path fill="#339900" d="M75.67,46.171l-1.832-2.003c-0.916-0.876-1.963-1.502-3.009-1.878c-0.917-0.375-1.963-0.499-3.011-0.499
			c-1.439,0-3.009,0.125-4.71,0.374h-0.392l2.354,3.006l1.178,1.627l0.13,0.126c0.916,0.125,1.701,0.625,2.487,1.25
			c0.13,0.251,0.392,0.376,0.522,0.501c0.524,0.376,0.917,0.501,1.572,0.501c-0.263-0.25-0.263-0.626-0.13-1.002
			c0.654,0.753,1.306,1.252,2.354,1.379c0.523,0.499,1.178,1,1.832,1.25c0.654,0.376,1.439,0.501,2.224,0.626l0.785-1.126
			c-1.178,0-2.093-0.126-2.748-0.5h-0.13c-1.048-0.376-1.439-0.751-1.309-1.377C74.231,47.675,74.753,46.797,75.67,46.171"/>
		<path fill="#336600" d="M70.959,49.302c-0.524,0-1.048-0.125-1.572-0.501c-0.13-0.125-0.392-0.375-0.522-0.5
			c-0.786-0.752-1.571-1.252-2.487-1.252c0.785,1,1.701,1.878,2.748,2.504c1.57,1,3.402,1.751,5.626,2.253
			c0.524,0.125,0.917,0.125,1.439,0.25c0.523-0.125,0.786-0.25,1.047-0.375c-0.785-0.125-1.57-0.251-2.224-0.626
			c-0.654-0.376-1.178-0.751-1.832-1.251c-0.916-0.125-1.701-0.501-2.354-1.377C70.697,48.676,70.697,49.052,70.959,49.302"/>
		<path fill="#CC6633" d="M57.612,45.671c1.309,0.125,2.617,0.125,3.926,0.125l3.663-0.501l-2.354-3.005l-4.58,0.626l-3.008-0.125
			c-1.309-0.125-2.75-0.376-4.059-1c0.394,0.875,0.394,1.751,0.132,2.629C54.21,45.045,56.173,45.545,57.612,45.671"/>
		<path fill="#669900" d="M51.332,41.791l-0.654-0.626c-1.439-1.003-2.748-1.127-3.926-0.376c-0.654,0.376-1.179,0.876-1.702,1.501
			l-0.391,0.376c-0.394,0.501-0.655,1-0.917,1.502l-0.131,0.251l-0.392,0.875l-0.654,2.253v0.501c0.916,0,1.439,0.251,1.831,0.878
			l1.047,0.751l0.785-0.501c2.094-1.252,3.796-2.754,5.366-4.757C51.723,43.417,51.593,42.541,51.332,41.791"/>
		<path fill="#0099FF" d="M43.61,44.419l0.131-0.251L43.61,44.419L43.61,44.419"/>
		<path fill="#66CC00" d="M42.564,48.049c0,1.127,0.654,2.254,1.701,3.38c0.263,0.251,0.524,0.376,0.917,0.376l0.392-0.125
			c0.785-0.376,0.917-0.878,0.394-1.377l-0.524-0.5l-1.047-0.751C44.003,48.301,43.48,48.049,42.564,48.049"/>
		<path fill="#FF6633" d="M34.321,61.572c-0.654,0.501-1.309,0.751-1.963,1.002l-2.617,0.375l-2.093-0.125l0.915,0.626
			c1.439,0.125,3.011,0.125,4.45-0.125c1.309-0.125,2.485,0,3.533,0.25c1.7,0.376,3.139,1.127,4.58,2.003
			c-0.394-1.125-0.394-2.003,0-2.878h-0.133l-0.13-0.125L34.321,61.572"/>
		<path fill="#FF6633" d="M31.573,63.826l-1.833-0.127c1.439,0.626,2.879,1.127,4.581,1.379c0.392,0.125,0.785,0.125,1.046,0.25
			c1.439,0.501,2.748,1.127,3.926,1.878l2.487,2.003c0.522,0.377,0.784,0.875,1.045,1.377c0.13,0.125,0.13,0.376,0.13,0.626
			c0.263-0.25,0.524-0.501,0.785-0.751c0.524-0.377,0.917-0.377,1.309-0.25l-0.261-0.501c-1.048-1.753-2.487-3.006-4.711-3.757
			c-2.093-0.875-4.056-1.501-6.019-1.753C33.012,63.951,32.226,63.826,31.573,63.826"/>
		<path fill="#CC6633" d="M29.61,63.699l1.831,0.127c0.654,0,1.439,0.125,2.487,0.25c1.963,0.25,3.926,0.876,6.019,1.753
			c2.094,0.875,3.663,2.128,4.711,3.757c-0.263-1.128-1.048-2.13-2.094-3.006l-1.309-1.127c-1.309-1.001-2.878-1.627-4.58-2.003
			c-1.047-0.25-2.224-0.376-3.533-0.25c-1.569,0.125-3.141,0.125-4.449,0.125L29.61,63.699"/>
		<path fill="#FFCC00" d="M28.693,63.325l-0.916-0.625l-1.438-0.376c4.58,2.629,6.673,5.008,6.41,7.136
			c1.179,0.127,2.094,0.501,2.748,1.127l0.655,0.626l0.917,1.377l3.793,4.383l0.13,0.124l0.787,0.751
			c0.13-0.499,0.261-1.125,0.261-1.626c0-0.252,0-0.502,0-0.627c-0.13-0.75-0.394-1.377-0.915-2.13l-2.226-3.003l1.309,1.252
			c0.917,0.875,1.833,1.627,2.878,2.128c0.263-1.001,0.132-1.878-0.522-2.879c0-0.251-0.13-0.376-0.13-0.626
			c-0.262-0.501-0.523-1.001-1.047-1.376l-2.487-2.005c-1.176-0.751-2.485-1.377-3.926-1.876c-0.261-0.127-0.522-0.127-1.046-0.252
			c-1.702-0.25-3.142-0.626-4.58-1.377L28.693,63.325"/>
		<path fill="#66FF00" d="M32.749,69.586c0.263-2.13-1.83-4.507-6.41-7.137l-8.113-5.385c-3.402-1.502-7.067-3.003-10.73-4.507
			h-0.13c0.13,0.124,0.261,0.251,0.392,0.376C17.441,64.326,25.814,69.834,32.749,69.586"/>
		<path fill="#66CC00" d="M41.125,62.699L41.125,62.699l0.654-0.125l0.915-0.501c1.833-1.252,2.617-2.629,2.224-4.258
			c-8.767-1.125-20.806-4.507-36.115-9.89c-0.917,0-1.832,0.501-2.486,1.377l-0.392,0.75c-0.132,0.376,0,0.878,0.392,1.252
			l0.654,0.878l0.263,0.125l0.131,0.125h0.13c3.794,1.501,7.328,2.88,10.73,4.507c5.365,2.379,10.73,3.882,16.095,4.508
			L41.125,62.699L41.125,62.699"/>
		<path fill="#FF9900" d="M40.208,54.31c-3.139-1.753-6.411-2.88-9.943-3.507l-6.282-1.125h-0.131
			c-4.317-0.878-8.897-1.377-13.869-1.629c14.654,1.377,26.3,4.632,34.806,9.766C43.61,56.563,42.041,55.311,40.208,54.31"/>
		<path fill="#9900FF" d="M30.395,50.803c3.533,0.626,6.805,1.878,9.944,3.507c-3.663-6.762-8.897-12.146-15.439-16.151
			C23.067,41.539,24.899,45.796,30.395,50.803"/>
		<path fill="#FFCC00" d="M10.113,48.049H8.804c15.31,5.385,27.348,8.64,36.115,9.891C36.415,52.681,24.767,49.427,10.113,48.049"/>
		<path fill="#CC6633" d="M39.032,70.586l2.224,3.006c0.524,0.751,0.785,1.377,0.916,2.128c-0.131-0.751,0.262-1.377,1.047-1.754
			c-1.047-0.501-1.963-1.125-2.88-2.127L39.032,70.586"/>
		<path fill="#FF6633" d="M41.125,77.222l-0.133-0.125L37.2,72.714l-0.917-1.377c0.524,2.38,1.047,4.006,1.832,5.009
			C38.769,77.474,39.817,77.848,41.125,77.222"/>
		<path vector-effect="non-scaling-stroke" fill="none" stroke="#00CC00" stroke-linecap="round" stroke-linejoin="round" d="
			M71.483,30.521c0.654,0.501,1.177,1.002,1.701,1.628 M64.286,24.387l1.046,0.751"/>
		<path vector-effect="non-scaling-stroke" fill="none" stroke="#00CC00" stroke-linecap="round" stroke-linejoin="round" d="
			M16.132,29.645C31.441,19.503,47.406,17.75,64.286,24.26"/>
		<path vector-effect="non-scaling-stroke" fill="none" stroke="#00CC00" stroke-linecap="round" stroke-linejoin="round" d="
			M61.014,41.038l0.916-0.125l1.179-0.375c1.178-0.251,2.224-0.376,3.271-0.376l0.916,0.125c1.178,0.125,2.356,0.501,3.665,1.002
			c0.654,0.25,1.309,0.626,1.963,1l1.309,0.751c0.916,0.626,1.701,1.002,2.615,1.002h0.132c1.177,0,2.485,0.376,3.663,1.127
			 M71.483,30.521c-0.654-0.626-1.44-1.127-2.095-1.627c-14-10.392-31.797-10.142-53.255,0.751"/>
		<path vector-effect="non-scaling-stroke" fill="none" stroke="#00CC00" stroke-linecap="round" stroke-linejoin="round" d="
			M66.509,47.049c0.916,0.125,1.703,0.626,2.487,1.252c0.13,0.25,0.392,0.375,0.524,0.5c0.522,0.376,0.916,0.501,1.57,0.501
			c-0.261-0.25-0.261-0.626-0.13-1.001c0.654,0.751,1.309,1.252,2.354,1.377c0.524,0.499,1.178,1,1.833,1.252
			c0.654,0.375,1.439,0.5,2.224,0.626"/>
		<path vector-effect="non-scaling-stroke" fill="none" stroke="#00CC00" stroke-linecap="round" stroke-linejoin="round" d="
			M26.339,62.449c4.58,2.629,6.673,5.007,6.41,7.137"/>
	</g>
</g>
</svg>
