<?xml version="1.0" encoding="utf-8"?>
<svg version="1.1" id="Layer_1"  xmlns="http://www.w3.org/2000/svg"
	 x="0px" y="0px" viewBox="0 0 55 250" enable-background="new -0.5 -0.5 55 250" xml:space="preserve">

<g id="leafLeft">
	<g id="Scene_1_f6">
		<g id="MovieClip_sprite_4">
			<path fill="#00CC00" d="M1.1,60.8v-25c5.8,8.2,11,19.7,15.4,34.1c4.5,13.7,7.3,28.2,8.7,43.2c1.3,14.2,2,28.8,1.8,43.6
				c-0.1,6.6-0.1,13.3-0.1,20c-0.6-9.3-1.3-19.3-2.2-29.9c-1.4-15.3-4.2-30.6-8.4-45.5C12.1,86.5,7,72.8,1.1,60.8"/>
			<path vector-effect="non-scaling-stroke" fill="none" stroke="#009900" stroke-linecap="round" stroke-linejoin="round" d="
				M16.5,70C12,55.6,6.8,44.2,1.1,36 M25.3,113.1c-1.4-15.1-4.5-29.5-8.8-43.1 M27,156.7c0.2-14.8-0.4-29.3-1.8-43.6 M26.9,176.7
				c0-6.6,0-13.3,0.1-20 M26.9,176.7v1.2 M24.7,146.9c1,10.5,1.8,20.4,2.2,29.9 M16.2,101.3c4.2,15.1,7,30.3,8.4,45.5 M1.1,60.8
				c6,12.1,11.1,25.7,15.1,40.4 M1.1,35.9v24.9"/>
		</g>
		<g id="MovieClip_sprite_4_1_">
			<path fill="#00CC00" d="M1.1,106.5V79.4c5.8,9,11,21.4,15.4,37.1c4.5,14.9,7.3,30.7,8.7,47c1.3,15.5,2,31.4,1.8,47.3
				c-0.1,7.3-0.1,14.5-0.1,21.7c-0.6-10.3-1.3-21-2.2-32.3c-1.4-16.7-4.2-33.3-8.4-49.5S7,119.7,1.1,106.5"/>
			<path vector-effect="non-scaling-stroke" fill="none" stroke="#009900" stroke-linecap="round" stroke-linejoin="round" d="
				M16.5,116.5C12,100.8,6.8,88.4,1.1,79.4 M25.3,163.6c-1.4-16.4-4.5-32.2-8.7-47 M27,210.9c0.2-16-0.4-31.9-1.8-47.3 M26.9,232.6
				c0-7.3,0-14.5,0.1-21.7 M26.9,232.6v1.4 M24.7,200.3c1,11.4,1.8,22.2,2.2,32.3 M16.2,150.7c4.2,16.4,7,32.9,8.4,49.5 M1.1,106.5
				c6,13.2,11.1,27.9,15.2,44 M1.1,79.5v27.2"/>
		</g>
		<g id="MovieClip_sprite_4_2_">
			<path fill="#00CC00" d="M1,25.9V1c8.7,8.2,16.6,19.7,23.8,34.2c6.8,13.7,11.2,28.2,13.4,43.2c2.1,14.2,3,28.8,2.7,43.6
				c-0.1,6.6-0.2,13.3-0.2,20c-0.8-9.3-2-19.2-3.3-29.9C35.3,96.9,31,81.6,24.6,66.6C18.1,51.6,10.2,38,1,25.9"/>

				<path vector-effect="non-scaling-stroke" fill="none" stroke="#009900" stroke-width="1.029" stroke-linecap="round" stroke-linejoin="round" d="
				M24.8,35.2C17.8,20.7,9.8,9.4,1,1 M38.3,78.3c-2.2-15.2-6.8-29.6-13.4-43.2 M40.9,121.8c0.4-14.8-0.6-29.3-2.7-43.6 M40.7,141.8
				c0-6.6,0.1-13.3,0.2-20 M40.7,141.8v1.2 M37.3,112c1.4,10.5,2.7,20.4,3.3,29.9 M24.4,66.4c6.4,15.1,10.7,30.3,12.8,45.5 M1,25.9
				C10.2,38,18.1,51.5,24.3,66.3 M1,1v24.9"/>
		</g>
	</g>
</g>
</svg>
