<svg id="Layer_1" data-name="Layer 1" xmlns="http://www.w3.org/2000/svg" viewBox="0 0 180.35 105.01"><defs><style>.cls-1{fill:#ed5d54;}.cls-2,.cls-7{fill:#d8423f;}.cls-3,.cls-5{fill:#7c0704;}.cls-3{opacity:0.35;}.cls-4{fill:#eef3cc;}.cls-5,.cls-6{opacity:0.2;}.cls-10,.cls-6{fill:#fff;}.cls-7{font-size:20px;font-family:Poppins-Regular, Poppins;}.cls-8{fill:#70a8a8;}.cls-9{fill:#5f5e01;}.cls-11{fill:#fc0;}.cls-12{fill:#595801;}.cls-13{fill:#f90;}.cls-14{fill:#747401;}.cls-15{fill:#3f3f01;}.cls-16{fill:#416967;}.cls-17{fill:#458787;}.cls-18{fill:#e8e802;}.cls-19{fill:#737201;}.cls-20{fill:#b8b801;}.cls-21{fill:#330;}.cls-22{fill:#89992f;}.cls-23{fill:#542e00;}.cls-24{fill:#3b0b00;}.cls-25{fill:#ffbf00;}</style></defs><title>$1-bug</title><path class="cls-1" d="M170.35,0H10A9.87,9.87,0,0,1,0,9.75v5.69a4.88,4.88,0,1,1,0,9.75v3.13a4.88,4.88,0,1,1,0,9.75v3.13a4.88,4.88,0,1,1,0,9.75v3.13a4.88,4.88,0,1,1,0,9.75v3.13a4.88,4.88,0,1,1,0,9.75v3.13a4.88,4.88,0,1,1,0,9.75v5.69A9.87,9.87,0,0,1,10,105H170.35a9.87,9.87,0,0,1,10-9.75V89.57a4.88,4.88,0,1,1,0-9.75V76.69a4.88,4.88,0,1,1,0-9.75V63.82a4.88,4.88,0,1,1,0-9.75V50.94a4.88,4.88,0,1,1,0-9.75V38.07a4.88,4.88,0,1,1,0-9.75V25.19a4.88,4.88,0,1,1,0-9.75V9.75A9.87,9.87,0,0,1,170.35,0Z"/><path class="cls-2" d="M0,54.07a4.88,4.88,0,1,1,0,9.75v3.13a4.88,4.88,0,1,1,0,9.75v3.13A4.94,4.94,0,0,1,5,84.7a4.94,4.94,0,0,1-5,4.87v5.69A9.87,9.87,0,0,1,10,105H170.35a9.87,9.87,0,0,1,10-9.75V89.57a4.88,4.88,0,1,1,0-9.75V76.69a4.88,4.88,0,1,1,0-9.75V63.82a4.88,4.88,0,1,1,0-9.75V52.51H0Z"/><path class="cls-3" d="M14.11,12.43V92.58H166.24V12.43ZM165,91.33H15.39V13.68H165Z"/><rect class="cls-4" x="15.39" y="13.68" width="149.56" height="77.64"/><polygon class="cls-5" points="164.96 52.51 164.96 91.33 15.39 91.33 15.39 52.51 14.11 52.51 14.11 92.58 166.24 92.58 166.24 52.51 164.96 52.51"/><polygon class="cls-6" points="51.18 12.43 35.23 12.43 41.66 0 57.61 0 51.18 12.43"/><polygon class="cls-6" points="59.82 12.43 55.4 12.43 61.83 0 66.25 0 59.82 12.43"/><text class="cls-7" transform="translate(140.32 34.92) scale(1.01 1)">$1</text><path class="cls-8" d="M68.26,39.57a.5.5,0,0,1-.31.12,17,17,0,0,1-2.78-.1c-.32,0-.28-.25-.27-.5.66-6.13,9.69-3.94,9.69-3.94a4.09,4.09,0,0,0-2.94.78A10.14,10.14,0,0,0,69.39,38q-.38.46-.72.94A3.13,3.13,0,0,1,68.26,39.57Z"/><path class="cls-9" d="M65.15,39.75c-.45-.05-.43-.39-.42-.62v-.07a4.43,4.43,0,0,1,1.85-3.31c2.85-2,7.83-.82,8-.77l-.08.32h0a4.14,4.14,0,0,0-2.76.77,9.9,9.9,0,0,0-2.23,2.06c-.25.3-.49.61-.71.93,0,.07-.09.14-.13.22a1.48,1.48,0,0,1-.31.42h0a.67.67,0,0,1-.41.16l-.79,0A17.17,17.17,0,0,1,65.15,39.75Zm3-.31a1.23,1.23,0,0,0,.24-.34c0-.08.09-.17.15-.25.23-.33.47-.65.73-1a10.22,10.22,0,0,1,2.3-2.12,6,6,0,0,1,1.55-.73c-1.7-.21-4.53-.31-6.34,1a4.11,4.11,0,0,0-1.71,3.07v.06c0,.26,0,.26.13.28a16.89,16.89,0,0,0,2.75.1.34.34,0,0,0,.21-.08Z"/><path class="cls-10" d="M67.44,73.54s-1,.16,2,2.68a7.15,7.15,0,0,0,1.53-3.12Z"/><path class="cls-9" d="M69.37,76.27c-1.55-1.3-2.28-2.17-2.16-2.6a.28.28,0,0,1,.22-.2L70.94,73H71l0,.09a7.15,7.15,0,0,1-1.55,3.15l0,0ZM67.45,73.6a.15.15,0,0,0-.11.11c0,.17.07.74,2.07,2.42a7.37,7.37,0,0,0,1.45-3Z"/><path class="cls-10" d="M71.72,73s-.22,1.75,3.23,3c0,0-.38-3.23,0-3.78C74.95,72.17,71.94,72.39,71.72,73Z"/><path class="cls-9" d="M74.93,76c-3.46-1.21-3.28-3-3.27-3h0c.23-.62,3-.84,3.29-.86h.14l-.08.11c-.3.43-.09,2.84,0,3.73V76Zm-3.15-3a1.7,1.7,0,0,0,.32,1,5.24,5.24,0,0,0,2.77,1.86,13.19,13.19,0,0,1,0-3.61C73.94,72.32,72,72.57,71.78,73Z"/><path class="cls-10" d="M76.26,72.22a4.73,4.73,0,0,0,2.46,4.05s1.59-.22,3.07-4.05Z"/><path class="cls-9" d="M78.69,76.33a4.83,4.83,0,0,1-2.5-4.11v-.06h5.69l0,.09c-1.48,3.83-3.05,4.09-3.12,4.09h0Zm-2.37-4a4.71,4.71,0,0,0,2.41,3.92c.19,0,1.62-.49,3-3.92Z"/><path class="cls-10" d="M82.34,72.44A7.78,7.78,0,0,0,84.7,78a5.83,5.83,0,0,0,3.89-5.26Z"/><path class="cls-9" d="M84.65,78a7.91,7.91,0,0,1-2.38-5.58v-.07l6.31.28h.06v.06c-.05,4-3.9,5.31-3.93,5.32h0Zm-2.25-5.51a7.77,7.77,0,0,0,2.31,5.39,5.78,5.78,0,0,0,3.81-5.12Z"/><path class="cls-10" d="M89.19,74s-.71,2,1,4.93A7,7,0,0,0,96,76.28S90.28,72.77,89.19,74Z"/><path class="cls-9" d="M90.17,79h0l0,0c-1.69-2.9-1-5-1-5v0c1.12-1.23,6.69,2.14,6.93,2.29l.06,0,0,.06A7.13,7.13,0,0,1,90.54,79ZM93,74.73c-2-.93-3.31-1.18-3.75-.72a6.33,6.33,0,0,0,1,4.83,7,7,0,0,0,5.72-2.55C95.64,76.12,94.36,75.36,93,74.73Z"/><path class="cls-10" d="M94.34,75.62a10.83,10.83,0,0,0,1.1,5.31s.82.27.93-.27a8.08,8.08,0,0,0,3.18-3.94S95,73.81,94.34,75.62Z"/><path class="cls-9" d="M95.41,81h0v0a11,11,0,0,1-1.1-5.35v0a.93.93,0,0,1,.61-.57c1.43-.46,4.56,1.54,4.69,1.63l0,0,0,0a8.23,8.23,0,0,1-3.18,4,.44.44,0,0,1-.21.29.71.71,0,0,1-.36.08A1.56,1.56,0,0,1,95.41,81Zm-.49-5.84a.79.79,0,0,0-.52.48,10.84,10.84,0,0,0,1.08,5.24,1,1,0,0,0,.67,0,.32.32,0,0,0,.15-.23v0l0,0a8.08,8.08,0,0,0,3.13-3.86C99.07,76.5,96.21,74.74,94.92,75.15Z"/><path class="cls-10" d="M100,78.14a6,6,0,0,0,0,3.29s1.1.49,2.85-2.36C102.88,79.07,100.19,77.45,100,78.14Z"/><path class="cls-9" d="M100,81.48h0v0a6,6,0,0,1,0-3.32.26.26,0,0,1,.16-.18c.57-.24,2.56.94,2.79,1.08l.06,0,0,.06c-1.31,2.13-2.27,2.42-2.69,2.42A.62.62,0,0,1,100,81.48Zm.17-3.43a.13.13,0,0,0-.08.1h0a6,6,0,0,0,0,3.21c.18,0,1.18.16,2.7-2.28C102.15,78.71,100.59,77.89,100.18,78.06Z"/><path class="cls-10" d="M103,79.56a8,8,0,0,0-.27,3s2.63.22,3.83-1.21C106.61,81.31,103.92,78.74,103,79.56Z"/><path class="cls-9" d="M102.77,82.59h-.06v-.06a8,8,0,0,1,.28-3l0,0c.91-.86,3.54,1.65,3.65,1.75l0,0,0,0a4.71,4.71,0,0,1-3.48,1.24Zm2.35-2.4c-.69-.48-1.59-1-2-.59a8.18,8.18,0,0,0-.27,2.86c.38,0,2.59.08,3.68-1.14A13.49,13.49,0,0,0,105.12,80.18Z"/><path class="cls-11" d="M67,73.37s25.37-4.54,42.9,11.34l1.42-3.51s-1.75,7.45,2.3,8.54c0,0,5.7,4.93,6.57-4.16,0,0-.22-10.36-1.21-12.63,0,0-4.05-5.18-3.83-8.65Z"/><path class="cls-12" d="M113.54,89.9c-3-.85-2.93-5-2.64-7.22L110,85l-.17-.16C92.52,69.19,67.27,73.48,67,73.53L67,73.2l48.37-9.1v.21c-.21,3.37,3.76,8.49,3.8,8.54l0,0c1,2.27,1.21,12.27,1.22,12.71-.29,3.05-1.17,4.89-2.59,5.46a2.7,2.7,0,0,1-1,.19A5.73,5.73,0,0,1,113.54,89.9ZM115,64.5,71.07,72.77c7.9-.52,25.59-.14,38.76,11.67l1.34-3.29.31.1c0,.07-1.67,7.31,2.18,8.35l.06,0s2.16,1.84,3.92,1.13c1.3-.52,2.1-2.27,2.38-5.17,0-.1-.23-10.29-1.18-12.55C118.55,72.67,114.92,67.92,115,64.5Z"/><path class="cls-13" d="M104.42,71.07a11.33,11.33,0,0,1,6.26,6.26s-5.1-6.26-6.91-5.38Z"/><path class="cls-9" d="M110.54,77.43c-1.39-1.71-5.32-6-6.71-5.34l-.61.29,1.13-1.51.11,0a11.61,11.61,0,0,1,6.36,6.35l.45,1.06Zm-6.4-5.73c1.61,0,4.39,2.91,5.81,4.53a11.27,11.27,0,0,0-5.48-5Z"/><path class="cls-13" d="M96.44,71.88s9.14,2.77,13,7.52c0,0-12.52-7.68-14.87-7Z"/><path class="cls-9" d="M109.37,79.54c-4.29-2.63-12.86-7.47-14.72-7h0l-.09-.32h0l1.88-.49h0c.09,0,9.23,2.84,13.1,7.57l.62.75ZM95.64,72.26c3.15.67,10.32,4.85,12.94,6.42-4-4-11.5-6.42-12.15-6.62Z"/><path class="cls-13" d="M85.4,72.36s12.82,1.81,19.72,6.33c0,0-16.84-6.16-20.21-5.59S85.4,72.36,85.4,72.36Z"/><path class="cls-9" d="M105.06,78.84c-.17-.06-16.83-6.14-20.13-5.58-1.35.23-1.52.17-1.57,0s-.08-.33,2-1h.08c.13,0,12.93,1.86,19.79,6.35l1.2.78ZM84,73.06l.85-.12c2.78-.47,14.39,3.49,18.7,5-6.8-3.71-17.43-5.32-18.16-5.43C84.92,72.7,84.38,72.9,84,73.06Z"/><path class="cls-8" d="M126.3,37s1.53-4.18,4.76-4.11c0,0-4.79-1.79-7.28.66Z"/><path class="cls-9" d="M123.56,33.53l.1-.1c2.54-2.49,7.25-.77,7.45-.69l.9.34-1,0H131c-3,0-4.52,4-4.53,4l-.11.29Zm.43,0,2.26,3.1c.37-.86,1.65-3.38,4-3.86C128.79,32.43,125.8,31.92,124,33.57Z"/><path class="cls-8" d="M124.05,34.07s.33-5.83,1.56-7.81c0,0,.45-.74-.78-.53,0,0-3.78.25-6.2,4.64Z"/><path class="cls-9" d="M118.41,30.43l.07-.13a8.59,8.59,0,0,1,6.32-4.72c.52-.09.84,0,1,.19a.59.59,0,0,1,0,.6c-1.2,1.91-1.53,7.67-1.54,7.73l0,.29Zm6.43-4.53a8.21,8.21,0,0,0-6,4.43l5.06,3.45c.08-1.22.47-5.84,1.57-7.59,0-.06.08-.19,0-.24s-.07-.08-.3-.08A2.3,2.3,0,0,0,124.84,25.9Z"/><path class="cls-8" d="M118.05,29.72a18.53,18.53,0,0,0,2.46-11.83s-.53-1.56-1.89,0c0,0-6.45,6.7-9.37,7.64Z"/><path class="cls-9" d="M108.82,25.5l.39-.13c2.84-.92,9.23-7.53,9.29-7.59.49-.57,1-.82,1.37-.74s.79.76.8.82a18.86,18.86,0,0,1-2.49,11.95l-.08.12Zm9.93-7.5c-.25.26-6,6.23-9.07,7.54l8.31,4a18.49,18.49,0,0,0,2.37-11.57s-.18-.5-.55-.57h-.09A1.51,1.51,0,0,0,118.75,18Z"/><path class="cls-8" d="M108.61,25.25s-1.51-8.84-1.18-10.37c0,0-.12-1.76-1.49-.51,0,0-3.87,3.58-4.76,8.31Z"/><path class="cls-9" d="M101,22.79l0-.14c.89-4.73,4.77-8.36,4.81-8.4.47-.43.86-.58,1.18-.45.5.2.57,1,.58,1.07v0c-.31,1.48,1.17,10.22,1.19,10.31l0,.27Zm5.9-8.68c-.19-.08-.48.06-.84.38a17.34,17.34,0,0,0-4.69,8.08l7,2.43c-.25-1.52-1.42-8.67-1.14-10.13C107.24,14.69,107.15,14.21,106.89,14.11Z"/><path class="cls-14" d="M74.59,35.14a7,7,0,0,1,8-4.93s21.53,1.4,23.66,23.09c0,0,8.54,5,4.93,13,0,0-1,5.18-9.45,5.92,0,0-41.16.41-44,2.22,0,0-8,0-8.44-2.3,0,0-5.81-3,1.75-11.28,0,0,1.75-2.74,2.63-10.3,0,0,2.52-12.82,14.57-11C68.27,39.58,71.17,34.65,74.59,35.14Z"/><path class="cls-14" d="M74.59,35.14a7,7,0,0,1,8-4.93s21.53,1.4,23.66,23.09c0,0,8.54,5,4.93,13,0,0-1,5.18-9.45,5.92,0,0-41.16.41-44,2.22,0,0-8,0-8.44-2.3,0,0-5.81-3,1.75-11.28,0,0,1.75-2.74,2.63-10.3,0,0,2.52-12.82,14.57-11C68.27,39.58,71.17,34.65,74.59,35.14Z"/><path class="cls-9" d="M49.17,72.22a4.44,4.44,0,0,1-2.07-3c-.43-2.35.86-5.21,3.83-8.47,0,0,1.74-2.79,2.61-10.24,0-.13,2.66-12.88,14.65-11.1.43-.7,3.08-4.77,6.29-4.44A7.68,7.68,0,0,1,76,32.29,7.22,7.22,0,0,1,82.57,30a30.24,30.24,0,0,1,11.1,3.43c5.18,2.8,11.58,8.5,12.71,19.72.83.52,8.38,5.53,4.94,13.11a6.12,6.12,0,0,1-1.59,2.76c-1.21,1.29-3.58,2.9-8,3.29-.41,0-41.15.43-43.87,2.19l0,0h0C57.42,74.58,49.78,74.55,49.17,72.22ZM76.27,32.5a7.32,7.32,0,0,0-1.52,2.68l0,.14-.15,0c-3.27-.47-6.13,4.31-6.16,4.36l-.06.1-.11,0c-11.76-1.81-14.36,10.7-14.38,10.81C53,58.06,51.28,60.8,51.19,60.94c-2.91,3.2-4.18,6-3.77,8.21a4.16,4.16,0,0,0,2,2.82l.07,0,0,.08c.34,1.76,6,2.16,8.23,2.17,3.14-1.79,42.33-2.2,44-2.22,8.23-.72,9.29-5.73,9.31-5.82a8.65,8.65,0,0,0-1.09-9.3,14.55,14.55,0,0,0-3.78-3.47l-.07,0v-.08C105,42.19,98.64,36.54,93.52,33.77a29.9,29.9,0,0,0-11-3.4,10,10,0,0,0-1.13-.07A6.59,6.59,0,0,0,76.27,32.5Z"/><path class="cls-15" d="M133.12,48s0,.23,0,.66c.09,2.79-.5,14-14.28,23.66,0,0-5.15-2.41-5-13.69,0,0-1.86-6.68-6.68-5.81,0,0-2.91-7.72-6-11.55,0,0,8.06-7.51,23,2a5.11,5.11,0,0,1,2.41.88S130.38,49.87,133.12,48Z"/><path class="cls-9" d="M118.81,72.48c-.21-.1-5.24-2.58-5.13-13.82-.12-.41-2-6.48-6.49-5.67L107,53l0-.13c0-.08-2.94-7.74-6-11.51l-.09-.12.11-.1a12.31,12.31,0,0,1,6-2.61c6.44-1.14,12.88,1.86,17.15,4.59a5.19,5.19,0,0,1,2.46.91l0,0s2.48,3.65,4.78,4.09a2,2,0,0,0,1.56-.3l.22-.15,0,.27s0,.24,0,.67c.1,3.15-.65,14.16-14.35,23.8l-.08.05Zm12.6-24c-2.37-.46-4.75-3.87-5-4.21a5,5,0,0,0-2.3-.83l-.08,0c-13.66-8.74-21.6-3-22.64-2.14,2.8,3.58,5.47,10.34,5.85,11.34,4.81-.74,6.72,5.88,6.74,5.95v0c-.1,10.25,4.21,13.12,4.86,13.5,13.48-9.53,14.23-20.37,14.13-23.46,0-.16,0-.29,0-.39A2.34,2.34,0,0,1,131.4,48.5Z"/><path class="cls-10" d="M122.89,59.11c-3.27.22-5.44.53-8.47-1l-.92-.45A8.67,8.67,0,0,0,110,53.26a59.17,59.17,0,0,1,10.51-.66,25.61,25.61,0,0,1,6.78,1.24,41.11,41.11,0,0,1,4.59,2.29A27.68,27.68,0,0,1,129,62,7.21,7.21,0,0,0,122.89,59.11Z"/><path class="cls-16" d="M127,44.84s2.85-8-6-13.69c0,0-24.1-18.18-40.42-1.53,0,0-12.38,7.12,2.3,13.69,0,0,19.28.55,21-2.08S127,44.84,127,44.84Z"/><path class="cls-9" d="M126.94,45C121,43.27,105.39,39.24,104,41.31c-1.78,2.67-20.38,2.18-21.17,2.15h-.06c-4.69-2.1-7.14-4.49-7.27-7.1-.19-3.79,4.54-6.64,4.94-6.87,8.49-8.64,19.08-7.76,26.48-5.5A51.17,51.17,0,0,1,121,31c8.88,5.7,6.12,13.81,6.09,13.89l-.05.15ZM80.65,29.72l0,0s-5,2.91-4.79,6.58c.12,2.47,2.5,4.76,7,6.8,6.65.19,19.51,0,20.86-2,1.74-2.61,21,2.9,23.14,3.5.32-1.11,2-8.22-6-13.36a50.83,50.83,0,0,0-14-7,32.87,32.87,0,0,0-9.52-1.51A22.53,22.53,0,0,0,80.65,29.72Z"/><path class="cls-8" d="M99,23S87.3,21.75,79.6,30.7c0,0,32.54,6.82,38.37.66C118,31.36,100.69,26.62,99,23Z"/><path class="cls-9" d="M79.57,30.86l-.27-.06.18-.21c7.66-8.92,19.47-7.76,19.59-7.75h.09l0,.09c1.59,3.5,18.65,8.22,18.82,8.26l.26.07-.19.2c-1.86,2-6.34,2.64-11.6,2.64C95.28,34.12,80.48,31.05,79.57,30.86Zm19.37-7.7c-1.09-.09-11.83-.72-19,7.44,3.13.63,31.84,6.24,37.74.84C115.37,30.8,100.71,26.58,98.94,23.16Z"/><path class="cls-9" d="M98.55,53.51c-3.7.81-7.53,2-11.31,2.3a47.84,47.84,0,0,1-6.48,0c-1.77-.1-4.6.15-6.07-1l0,0a4.26,4.26,0,0,0-.72-.85c-1.11-2-.27-5.35,0-7.59a2.35,2.35,0,0,0,0-.31c0-.11,0-.22,0-.32a2.06,2.06,0,0,0-.44-1.58l-.22-.63a2.34,2.34,0,0,0-.11-.25,2.14,2.14,0,0,0,.19-.26,3.85,3.85,0,0,0,.27-.5,6.53,6.53,0,0,0,.38-.9,2.19,2.19,0,0,0,.11-.61,4.55,4.55,0,0,0,.82-.69,2.73,2.73,0,0,0,.34-.45,26.56,26.56,0,0,0,9.12,0c1.62.32,3.24.66,4.85,1a20.05,20.05,0,0,1,5.24,1.82,15.37,15.37,0,0,0,1.42.72c2.72,1.31,5.87,2,8.12,4.06h0a2,2,0,0,0,1.12.76,29.59,29.59,0,0,1,.9,4.78C103.74,52.29,101,53,98.55,53.51Z"/><path class="cls-17" d="M74.76,35.72s0-.09.06-.25c.37-1.38,2.69-7.83,12.92-3.86,0,0,9.2,3.62,12.57,7.39,0,0,2.38,2.46-.74,2.55,0,0-21.44-2.63-24.24-1.23,0,0-3.45-.58-3.89-1.83C71.44,38.48,70.4,36.13,74.76,35.72Z"/><path class="cls-9" d="M75.4,40.46l0,0H75.3c-.14,0-3.55-.61-4-1.93A1.78,1.78,0,0,1,71.41,37c.46-.79,1.54-1.27,3.22-1.45l0-.14A7.17,7.17,0,0,1,78.2,31c2.41-1.22,5.63-1.06,9.6.48.38.15,9.28,3.67,12.63,7.43,0,.05,1.2,1.25.85,2.09-.19.46-.76.71-1.73.73C99.33,41.69,78.12,39.1,75.4,40.46Zm2.94-9.2A6.83,6.83,0,0,0,75,35.51c0,.15-.06.24-.06.24l0,.12h-.12c-1.6.15-2.67.6-3.08,1.29a1.45,1.45,0,0,0-.09,1.25c.33.94,2.74,1.55,3.71,1.72,3-1.35,23.41,1.13,24.26,1.24s1.28-.2,1.41-.53c.22-.54-.49-1.44-.79-1.75-3.3-3.71-12.42-7.31-12.51-7.35a16.35,16.35,0,0,0-5.82-1.27A7.67,7.67,0,0,0,78.35,31.26Z"/><path class="cls-8" d="M95.31,55.91a1.54,1.54,0,0,0,.45-.47,4.17,4.17,0,0,0,.69-1.63.7.7,0,0,1,.09-.34.53.53,0,0,1,.16-.14,5.13,5.13,0,0,1,1.95-.52c1.14-.17,2.27-.43,3.41-.53a7.21,7.21,0,0,1,3.4.38,1.66,1.66,0,0,1,.75.56.84.84,0,0,0,.12.15,3.1,3.1,0,0,0,.35.23,14.71,14.71,0,0,1,1.22.94,13,13,0,0,1,3,3.64,8.73,8.73,0,0,1,1,5.71,10.1,10.1,0,0,1-.76,2.39s-1,5.18-9.45,5.92c0,0-6,.06-13.55.23l-.06-.14.1,0A1,1,0,0,1,88,72a8.54,8.54,0,0,1-.4-.86,10,10,0,0,1-.71-3.07,9.84,9.84,0,0,1,.71-4.34,13.75,13.75,0,0,1,3.67-5,22.07,22.07,0,0,1,2.12-1.67q.62-.43,1.26-.83C94.9,56.15,95.11,56,95.31,55.91Z"/><path class="cls-9" d="M88,72.48l0-.08L87.82,72h0a8.81,8.81,0,0,1-.37-.8,10,10,0,0,1,0-7.54,13.85,13.85,0,0,1,3.71-5A22.28,22.28,0,0,1,93.33,57c.4-.28.83-.56,1.27-.83l.24-.14.37-.23h0a1.36,1.36,0,0,0,.41-.42,4.07,4.07,0,0,0,.67-1.61.76.76,0,0,1,.11-.38.69.69,0,0,1,.21-.18,4.75,4.75,0,0,1,1.83-.52l.18,0,1.29-.21c.7-.12,1.41-.25,2.13-.32a7.26,7.26,0,0,1,3.48.39,1.84,1.84,0,0,1,.82.62l0,.06.06.07a1.18,1.18,0,0,0,.2.13l.14.09a14.91,14.91,0,0,1,1.24,1,13.16,13.16,0,0,1,3.06,3.69,8.84,8.84,0,0,1,1,5.81,10,10,0,0,1-.76,2.39,6.12,6.12,0,0,1-1.59,2.76c-1.21,1.29-3.58,2.9-8,3.29-.06,0-6.07.06-13.55.23H88Zm14.08-20c-.71.07-1.42.19-2.11.31l-1.3.22-.18,0a4.51,4.51,0,0,0-1.71.47.39.39,0,0,0-.11.09.49.49,0,0,0-.05.22v0a4.32,4.32,0,0,1-.72,1.7,1.69,1.69,0,0,1-.5.52c-.12.09-.26.16-.39.24l-.24.14c-.44.27-.86.55-1.26.82a22,22,0,0,0-2.11,1.66,13.52,13.52,0,0,0-3.62,4.91,9.72,9.72,0,0,0-.7,4.27,9.83,9.83,0,0,0,.69,3,8.3,8.3,0,0,0,.39.84l0,.09a.76.76,0,0,0,.08.16h0l0,.05h0c7.42-.17,13.38-.23,13.42-.23,8.23-.72,9.29-5.73,9.31-5.82a10,10,0,0,0,.74-2.35,8.51,8.51,0,0,0-1-5.6,12.83,12.83,0,0,0-3-3.6,14.56,14.56,0,0,0-1.21-.93l-.12-.07a1.44,1.44,0,0,1-.25-.17.64.64,0,0,1-.1-.12l0,0a1.51,1.51,0,0,0-.68-.51,6.17,6.17,0,0,0-2.36-.42Q102.58,52.39,102.08,52.44Z"/><path class="cls-18" d="M47.59,69.94c.48.68,2.92,2.53,14-2.48,0,0,14.46-5.42,22.32-7.59,0,0,5.83.1,1.07,2.64,0,0-16.43,7.06-17.5,10.59h.37l-.13.09c-5.24.31-9.21.72-10,1.23,0,0-8,0-8.44-2.3A4.29,4.29,0,0,1,47.49,70Z"/><path class="cls-9" d="M49.17,72.22A4.47,4.47,0,0,1,47.33,70l-.06-.16.21-.07h0l.12,0,.07.1c1.89,2.67,11.87-1.65,13.85-2.54.14-.05,14.56-5.45,22.33-7.59h0c.48,0,2.86.09,3.09,1,.13.54-.49,1.16-2,1.94-.16.07-15.7,6.78-17.32,10.27l.7,0-.49.32-.12.09,0,0h0c-7.34.44-9.45.9-9.93,1.21l0,0h0C57.42,74.58,49.78,74.55,49.17,72.22Zm35.78-9.86c1.72-.92,1.82-1.4,1.78-1.57-.12-.49-1.67-.74-2.75-.76-7.77,2.14-22.14,7.52-22.27,7.57-9.29,4.18-12.62,3.66-13.8,2.86A4.14,4.14,0,0,0,49.39,72l.07,0,0,.08c.34,1.76,6,2.16,8.23,2.17.81-.47,4-.86,9.67-1.21C68.49,69.47,84.29,62.65,84.95,62.36Z"/><path class="cls-9" d="M111.15,66.28a10.1,10.1,0,0,0,.76-2.39,8.73,8.73,0,0,0-1-5.71,13,13,0,0,0-3-3.64,14.7,14.7,0,0,0-1.22-.94,3.1,3.1,0,0,1-.35-.23.84.84,0,0,1-.12-.15,1.63,1.63,0,0,0-.64-.51,3,3,0,0,1,.49-1.38s.31.08.83.24c.17.78.26,1.26.26,1.26,4.82-.88,6.68,5.81,6.68,5.81a23.73,23.73,0,0,0,1.34,8.78c-.46,1.7-1.31,3.59-2.79,3.5A4.07,4.07,0,0,1,109,69.55,6.39,6.39,0,0,0,111.15,66.28Z"/><path class="cls-19" d="M108.86,69.66l-.11-.13.13-.11A6.3,6.3,0,0,0,111,66.25v0a10,10,0,0,0,.74-2.35,8.51,8.51,0,0,0-1-5.6,12.83,12.83,0,0,0-3-3.6,14.48,14.48,0,0,0-1.21-.93l-.12-.07a1.44,1.44,0,0,1-.25-.17.66.66,0,0,1-.1-.12l0,0a1.46,1.46,0,0,0-.58-.46l-.11-.05,0-.12a3.1,3.1,0,0,1,.52-1.46l.07-.08.1,0s.32.08.84.24l.09,0,0,.09c.12.52.19.91.23,1.11,4.8-.72,6.69,5.88,6.71,6v0a23.82,23.82,0,0,0,1.33,8.72l0,.05v.05c-.67,2.45-1.71,3.71-2.93,3.62a2.69,2.69,0,0,1-.38,0A4.25,4.25,0,0,1,108.86,69.66ZM115,67.43a24.19,24.19,0,0,1-1.33-8.77c-.12-.41-2-6.48-6.49-5.67L107,53l0-.16s-.08-.44-.24-1.17l-.63-.18a2.94,2.94,0,0,0-.37,1.1,1.76,1.76,0,0,1,.59.51l0,.06.06.07a1.18,1.18,0,0,0,.2.13l.14.09a14.85,14.85,0,0,1,1.24,1,13.16,13.16,0,0,1,3.06,3.69,8.84,8.84,0,0,1,1,5.81,10.28,10.28,0,0,1-.76,2.41,6.5,6.5,0,0,1-2.09,3.23,4,4,0,0,0,3.18,1.2C113.77,70.85,114.57,69,115,67.43Z"/><path class="cls-11" d="M87.08,55.56S83.3,50.83,87,46.48c0,0,2.38-3.7-1.64-5.59H76.73s-5.5.41-2.05,6.24c0,0,.66,6.75-.08,8.14C74.59,55.27,76.56,58.2,87.08,55.56Z"/><path class="cls-12" d="M74.46,55.37l-.05-.08,0-.09c.68-1.28.12-7.48.07-8-1.16-2-1.44-3.55-.83-4.71a4,4,0,0,1,3-1.75h8.63l.07,0a3.93,3.93,0,0,1,2.31,2.41,4.61,4.61,0,0,1-.61,3.43c-3.56,4.2,0,8.83.08,8.87l.16.2-.25.06a31.75,31.75,0,0,1-7.58,1.11C75.51,56.83,74.51,55.45,74.46,55.37Zm12.4-9a4.35,4.35,0,0,0,.56-3.15,3.6,3.6,0,0,0-2.1-2.19H76.74A3.71,3.71,0,0,0,74,42.63c-.55,1.06-.27,2.54.84,4.42l0,.07c0,.27.63,6.52-.05,8.13.39.41,2.89,2.45,12,.21C86.13,54.5,83.57,50.27,86.86,46.39Z"/><path class="cls-20" d="M96.53,54.28c-1.07,1.81-6.24,5.83-6.24,5.83-6.37,6.3-1.89,12.21-1.89,12.21l-20.87.77C68.59,69.57,85,62.51,85,62.51,89.79,60,84,59.87,84,59.87,76.1,62,61.64,67.46,61.64,67.46c-13.15,5.92-14.16,2.27-14.16,2.27-1.64-7.89,11.17-10.85,11.17-10.85a74.87,74.87,0,0,1,16.15-4c4.35,1.89,14.66.35,14.66.35a5.85,5.85,0,0,0,.84,0,7.24,7.24,0,0,1-1.6-.83A6.76,6.76,0,0,1,86,50.91a4.6,4.6,0,0,1,4.61-6.12A6.88,6.88,0,0,1,94.52,46a6.76,6.76,0,0,1,2.66,3.54,4.78,4.78,0,0,1-.55,4.13c0,.14,0,.29,0,.43S96.57,54.22,96.53,54.28Z"/><path class="cls-9" d="M67.37,73.05c1.08-3.57,16.92-10.41,17.58-10.69,1.72-.92,1.82-1.4,1.78-1.57-.12-.49-1.67-.74-2.75-.76-7.77,2.14-22.14,7.52-22.27,7.57-8.41,3.78-12,3.74-13.48,3a1.54,1.54,0,0,1-.9-.87c-1.66-8,11.17-11,11.28-11a75.7,75.7,0,0,1,16.19-4h0l0,0c4.26,1.85,14.47.35,14.61.34h0a7.25,7.25,0,0,1-.9-.53A6.93,6.93,0,0,1,85.89,51a4.76,4.76,0,0,1,4.77-6.33,7,7,0,0,1,4,1.28,6.93,6.93,0,0,1,2.72,3.63,5,5,0,0,1-.55,4.24l0,.18c0,.07,0,.14,0,.21a.29.29,0,0,1-.06.17l0,0c-1.07,1.81-6.07,5.71-6.27,5.87-6.19,6.12-2.05,11.76-1.87,12l.19.25-21.41.79ZM90.18,60c.05,0,5.16-4,6.2-5.79h0l0-.06c0-.07,0-.15,0-.22s0-.14,0-.21v0l0,0a4.61,4.61,0,0,0,.53-4,6.6,6.6,0,0,0-2.59-3.45A6.72,6.72,0,0,0,90.66,45a4.44,4.44,0,0,0-4.45,5.9,6.6,6.6,0,0,0,2.59,3.45,7.05,7.05,0,0,0,1.56.81l.74.28-.79,0a5.11,5.11,0,0,1-.83,0c-.42.06-10.34,1.52-14.71-.34a75.53,75.53,0,0,0-16.09,4,25.67,25.67,0,0,0-6.16,2.45c-3.91,2.25-5.56,5-4.89,8.19,0,0,.12.38.76.67,1.19.54,4.5.86,13.19-3,.14-.05,14.56-5.45,22.33-7.59h0c.48,0,2.86.09,3.09,1,.13.54-.49,1.16-2,1.94-.16.07-15.7,6.78-17.32,10.27l20.33-.75C87.33,71,84.51,65.59,90.18,60Z"/><path class="cls-21" d="M93.77,47.51c2.17,1.5,3,4.12,1.77,5.84s-3.92,1.9-6.09.4a5.61,5.61,0,0,1-2-2.32,2.86,2.86,0,0,1-.28-1.29c0-.5-.34-.93-.31-1.43A1.9,1.9,0,0,1,87,48.3l.18-.62a.29.29,0,0,1,.24-.25c.57-.19,1.1-.4,1.65-.63a4.06,4.06,0,0,1,1.49-.3A5.52,5.52,0,0,1,93.77,47.51Z"/><ellipse class="cls-22" cx="65.47" cy="50.97" rx="8.27" ry="10.74"/><ellipse class="cls-8" cx="65.47" cy="51.55" rx="8.27" ry="10.15"/><ellipse class="cls-23" cx="65.47" cy="51.86" rx="6.93" ry="8.51"/><ellipse class="cls-20" cx="65.47" cy="51.86" rx="5.61" ry="7.19"/><ellipse class="cls-24" cx="65.47" cy="52.79" rx="4.63" ry="5.33"/><ellipse class="cls-25" cx="65.47" cy="52.79" rx="3.97" ry="4.67"/><circle class="cls-24" cx="66.32" cy="52.97" r="2.69"/><ellipse class="cls-24" cx="51.03" cy="66.77" rx="0.7" ry="1.1"/><ellipse class="cls-10" cx="82.45" cy="68.78" rx="1.79" ry="0.86" transform="translate(-12.98 19.57) rotate(-12.56)"/><path class="cls-9" d="M80.64,69.19a.82.82,0,0,1,.4-.78,3.05,3.05,0,0,1,1.21-.53c1-.23,1.9,0,2,.5s-.59,1.08-1.61,1.31a3.56,3.56,0,0,1-.77.09C81.22,69.78,80.72,69.56,80.64,69.19ZM82.27,68a2.92,2.92,0,0,0-1.15.51c-.27.22-.4.44-.35.64.09.42.94.61,1.85.4s1.6-.73,1.51-1.15-.53-.49-1.13-.49A3.37,3.37,0,0,0,82.27,68Z"/><ellipse class="cls-10" cx="78.75" cy="69.93" rx="1.42" ry="0.69" transform="translate(-13.32 18.79) rotate(-12.56)"/><path class="cls-9" d="M77.86,70.69c-.32-.07-.52-.23-.56-.43a.66.66,0,0,1,.32-.63,2.68,2.68,0,0,1,2-.45c.32.07.52.23.56.43a.66.66,0,0,1-.32.63,2.44,2.44,0,0,1-1,.43,2.83,2.83,0,0,1-.61.07A2,2,0,0,1,77.86,70.69Zm.76-1.36a2.31,2.31,0,0,0-.91.4c-.21.17-.31.35-.28.5s.2.27.46.33a2.56,2.56,0,0,0,1.91-.43c.21-.17.31-.35.28-.5s-.2-.27-.46-.33a1.83,1.83,0,0,0-.42,0A2.7,2.7,0,0,0,78.61,69.33Z"/><ellipse class="cls-10" cx="74.95" cy="70.78" rx="1.25" ry="0.6" transform="translate(-13.59 17.99) rotate(-12.56)"/><path class="cls-9" d="M73.67,71.06h0A.59.59,0,0,1,74,70.5a2.15,2.15,0,0,1,.85-.38c.72-.16,1.34,0,1.42.37a.59.59,0,0,1-.29.56,2.15,2.15,0,0,1-.85.38,2.5,2.5,0,0,1-.54.06C74.09,71.49,73.73,71.33,73.67,71.06Zm1.16-.81a2,2,0,0,0-.8.35c-.18.14-.27.3-.24.43h0c.06.28.64.41,1.27.27a2,2,0,0,0,.79-.35c.18-.14.27-.3.24-.43s-.36-.32-.76-.32A2.35,2.35,0,0,0,74.84,70.26Z"/><ellipse class="cls-10" cx="103.82" cy="62.43" rx="1.76" ry="1.3"/><path class="cls-9" d="M102,62.43c0-.75.82-1.37,1.82-1.37s1.82.61,1.82,1.37-.82,1.37-1.82,1.37S102,63.19,102,62.43Zm.13,0c0,.68.76,1.23,1.69,1.23s1.69-.55,1.69-1.23-.76-1.23-1.69-1.23S102.13,61.75,102.13,62.43Z"/><ellipse class="cls-10" cx="92.19" cy="62.83" rx="1.3" ry="1.76" transform="translate(-12.3 101.93) rotate(-54.79)"/><path class="cls-9" d="M91.4,63.95a2.16,2.16,0,0,1-.82-1.06,1.21,1.21,0,0,1,.12-1.11h0a1.21,1.21,0,0,1,1-.48,2.19,2.19,0,0,1,1.27.42,1.65,1.65,0,0,1,.7,2.17,1.23,1.23,0,0,1-1,.48A2.18,2.18,0,0,1,91.4,63.95Zm.3-2.52a1.09,1.09,0,0,0-.9.43h0a1.09,1.09,0,0,0-.1,1,2,2,0,0,0,.77,1,1.3,1.3,0,1,0,1.42-2,2,2,0,0,0-1.16-.39Z"/><ellipse class="cls-10" cx="91.28" cy="67.14" rx="1.76" ry="1.3" transform="translate(-21.52 77.94) rotate(-41.8)"/><path class="cls-9" d="M89.92,68.36h0a1.22,1.22,0,0,1-.24-1.09,2.16,2.16,0,0,1,.69-1.15,1.42,1.42,0,1,1,1.82,2,2.16,2.16,0,0,1-1.22.56h-.15A1.17,1.17,0,0,1,89.92,68.36Zm.54-2.13a2,2,0,0,0-.65,1.08,1.09,1.09,0,0,0,.21,1h0a1.08,1.08,0,0,0,.94.32,2,2,0,0,0,1.14-.53,1.52,1.52,0,0,0,.44-2,1,1,0,0,0-.8-.33A2,2,0,0,0,90.46,66.22Z"/><ellipse class="cls-10" cx="106.36" cy="66.33" rx="1.73" ry="1.4"/><path class="cls-9" d="M104.57,66.33a1.83,1.83,0,1,1,1.79,1.46A1.65,1.65,0,0,1,104.57,66.33Zm.13,0A1.7,1.7,0,1,0,106.36,65,1.52,1.52,0,0,0,104.7,66.33Z"/><ellipse class="cls-10" cx="108.44" cy="60.76" rx="2.24" ry="1.81"/><path class="cls-9" d="M106.13,60.76a2.35,2.35,0,1,1,2.3,1.88A2.12,2.12,0,0,1,106.13,60.76Zm.13,0A2.22,2.22,0,1,0,108.44,59,2,2,0,0,0,106.27,60.76Z"/><ellipse class="cls-10" cx="96.48" cy="60.05" rx="1.89" ry="1.53" transform="translate(-16.52 72.09) rotate(-37.98)"/><path class="cls-9" d="M96.09,61.79a1.46,1.46,0,0,1-1.15-.54h0a1.81,1.81,0,0,1,.56-2.47,2.2,2.2,0,0,1,1.34-.48h0a1.46,1.46,0,0,1,1.15.54,1.81,1.81,0,0,1-.56,2.47,2.2,2.2,0,0,1-1.34.48Zm-.51-2.9A1.68,1.68,0,0,0,95,61.18h0a1.33,1.33,0,0,0,1.05.49h0a2.07,2.07,0,0,0,1.26-.46,1.68,1.68,0,0,0,.54-2.28,1.33,1.33,0,0,0-1.05-.49h0A2.07,2.07,0,0,0,95.58,58.89Z"/><ellipse class="cls-10" cx="103.57" cy="54.77" rx="1.07" ry="1.26" transform="translate(13.02 129.11) rotate(-67.26)"/><path class="cls-9" d="M103.13,55.82a1.15,1.15,0,1,1,.88-2.09,1.44,1.44,0,0,1,.73.66,1,1,0,0,1-.62,1.49,1.35,1.35,0,0,1-.41.06A1.51,1.51,0,0,1,103.13,55.82Zm-.66-1.51a1.11,1.11,0,0,0,.71,1.39,1.31,1.31,0,0,0,.9.05.89.89,0,0,0,.54-1.3,1.31,1.31,0,0,0-.67-.6,1.38,1.38,0,0,0-.53-.11A1,1,0,0,0,102.47,54.31Z"/><ellipse class="cls-10" cx="104.03" cy="57.45" rx="1.13" ry="0.96" transform="translate(-14.25 45.96) rotate(-23.36)"/><path class="cls-9" d="M103.54,58.45a.92.92,0,0,1-.58-1.34,1.3,1.3,0,0,1,.65-.6,1.12,1.12,0,0,1,1.5.47,1,1,0,0,1,0,.81,1.3,1.3,0,0,1-.65.6,1.36,1.36,0,0,1-.54.11A1.2,1.2,0,0,1,103.54,58.45Zm.13-1.82a1.17,1.17,0,0,0-.59.54.79.79,0,0,0,.5,1.15,1.21,1.21,0,0,0,1.39-.6.82.82,0,0,0,0-.7.89.89,0,0,0-.85-.5A1.22,1.22,0,0,0,103.67,56.63Z"/><ellipse class="cls-10" cx="100.71" cy="54.77" rx="1.13" ry="0.96" transform="translate(-13.46 44.42) rotate(-23.36)"/><path class="cls-9" d="M100.23,55.77a1,1,0,0,1-.61-.53,1.21,1.21,0,0,1,2.19-.95,1,1,0,0,1,0,.81,1.3,1.3,0,0,1-.65.6h0a1.36,1.36,0,0,1-.54.11A1.2,1.2,0,0,1,100.23,55.77Zm.84-.18a1.16,1.16,0,0,0,.59-.54.82.82,0,0,0,0-.7,1.08,1.08,0,0,0-2,.84.82.82,0,0,0,.53.45,1.17,1.17,0,0,0,.8-.06Z"/><ellipse class="cls-10" cx="101.18" cy="57.3" rx="0.96" ry="1.13" transform="translate(-10.88 88.33) rotate(-45)"/><path class="cls-9" d="M101.26,58.41a1.29,1.29,0,0,1-.8-.39h0a1.3,1.3,0,0,1-.39-.8,1,1,0,0,1,.26-.76,1.12,1.12,0,0,1,1.57.12,1.29,1.29,0,0,1,.39.8,1,1,0,0,1-.26.76.93.93,0,0,1-.67.27Zm-.83-1.86a.82.82,0,0,0-.23.66,1.16,1.16,0,0,0,.35.72h0a1.16,1.16,0,0,0,.72.35.79.79,0,0,0,.89-.89,1.16,1.16,0,0,0-.35-.72,1.15,1.15,0,0,0-.8-.35A.81.81,0,0,0,100.43,56.55Z"/><ellipse class="cls-10" cx="99.28" cy="68.8" rx="2.58" ry="1.84" transform="translate(-15.8 32.12) rotate(-17.05)"/><path class="cls-9" d="M97.9,70.64A1.57,1.57,0,0,1,97.1,68,3.42,3.42,0,0,1,100.67,67a1.57,1.57,0,0,1,.79,2.59,3.22,3.22,0,0,1-1.62,1.07,3.55,3.55,0,0,1-1,.16A2.86,2.86,0,0,1,97.9,70.64Zm.86-3.54a3.09,3.09,0,0,0-1.55,1,1.44,1.44,0,0,0,.73,2.39,3.29,3.29,0,0,0,3.42-1,1.44,1.44,0,0,0-.73-2.39,2.74,2.74,0,0,0-.86-.13A3.42,3.42,0,0,0,98.76,67.1Z"/><circle class="cls-10" cx="97.31" cy="66.61" r="0.44"/><path class="cls-9" d="M96.8,66.61a.51.51,0,1,1,.51.51A.51.51,0,0,1,96.8,66.61Zm.13,0a.38.38,0,1,0,.38-.38A.38.38,0,0,0,96.93,66.61Z"/><circle class="cls-10" cx="99.28" cy="65.86" r="0.42"/><path class="cls-9" d="M98.8,65.86a.48.48,0,1,1,.48.48A.49.49,0,0,1,98.8,65.86Zm.13,0a.35.35,0,1,0,.35-.35A.35.35,0,0,0,98.93,65.86Z"/><circle class="cls-10" cx="101.31" cy="66.3" r="0.44"/><path class="cls-9" d="M100.81,66.3a.5.5,0,1,1,.5.5A.5.5,0,0,1,100.81,66.3Zm.13,0a.37.37,0,1,0,.37-.37A.37.37,0,0,0,100.94,66.3Z"/><path class="cls-13" d="M112.3,79.18s.08,8,3.62,10.43c0,0-2.46-7.15-.58-12.24Z"/><path class="cls-9" d="M115.82,89.75c-3.56-2.48-3.68-10.24-3.69-10.57v-.09L115.66,77l-.16.44c-1.85,5,.55,12.06.58,12.13l.16.48Zm-3.35-10.48c0,.86.3,7.35,3.13,9.88-.5-1.68-1.91-7.16-.56-11.41Z"/><path class="cls-13" d="M116,77.37s3.53,6.57,2.71,13c0,0-.62.53-1.73-.37,0,0-5.55-9.45-4.81-12Z"/><path class="cls-9" d="M116.88,90.11l0,0c-.23-.39-5.57-9.54-4.82-12.08l0-.1,4-.69.06.1c0,.07,3.55,6.69,2.73,13.08v.06l0,0a1,1,0,0,1-.63.2A2.1,2.1,0,0,1,116.88,90.11Zm-1-12.56-3.6.62c-.53,2.49,4.49,11.16,4.8,11.7.81.65,1.3.47,1.44.38C119.27,84.44,116.35,78.41,115.91,77.55Z"/><path class="cls-13" d="M113.95,73.54s-1,9.09,2.08,13c0,0,.3-11.2,1.21-13Z"/><path class="cls-9" d="M115.9,86.67c-3.07-4-2.16-12.78-2.11-13.15l0-.15h3.7l-.12.24c-.88,1.78-1.19,12.86-1.19,13V87Zm-1.8-13c-.1,1.14-.68,8.64,1.78,12.38.07-2.11.37-10.26,1.11-12.38Z"/><path class="cls-13" d="M113.1,75.31a1.46,1.46,0,0,1-.86-.77,18.54,18.54,0,0,1-1.46-2.92,1.57,1.57,0,0,1-.15-.79c0-.21,1.39.11,1.53.22a1.56,1.56,0,0,1,.43,1C112.82,73.09,112.65,74.27,113.1,75.31Z"/><path class="cls-9" d="M113.07,75.47a1.58,1.58,0,0,1-1-.85,18.72,18.72,0,0,1-1.47-3,1.71,1.71,0,0,1-.16-.88.23.23,0,0,1,.15-.18,3.4,3.4,0,0,1,1.64.29,1.5,1.5,0,0,1,.46,1l0,.11a9.1,9.1,0,0,1,.16,1.35,5.73,5.73,0,0,0,.35,1.92l.12.28Zm-2.29-4.56a1.6,1.6,0,0,0,.15.64,18.41,18.41,0,0,0,1.44,2.9,2.14,2.14,0,0,0,.43.54,7.48,7.48,0,0,1-.24-1.64,8.9,8.9,0,0,0-.15-1.3l0-.12a1.24,1.24,0,0,0-.34-.76,4.48,4.48,0,0,0-1.22-.26Z"/></svg>