<svg id="Layer_1" data-name="Layer 1" xmlns="http://www.w3.org/2000/svg" xmlns:xlink="http://www.w3.org/1999/xlink" viewBox="0 0 180.35 105.01"><defs><style>.cls-1{fill:#ed5d54;}.cls-2,.cls-7{fill:#d8423f;}.cls-3,.cls-5{fill:#7c0704;}.cls-3{opacity:0.35;}.cls-4{fill:#eef3cc;}.cls-5,.cls-6{opacity:0.2;}.cls-34,.cls-6{fill:#fff;}.cls-7{font-size:20px;font-family:Poppins-Regular, Poppins;}.cls-8{fill:url(#linear-gradient);}.cls-9{fill:url(#linear-gradient-2);}.cls-10{fill:url(#linear-gradient-3);}.cls-11{fill:url(#linear-gradient-4);}.cls-12{fill:url(#linear-gradient-5);}.cls-13{fill:url(#linear-gradient-6);}.cls-14{fill:url(#linear-gradient-7);}.cls-15{fill:url(#linear-gradient-8);}.cls-16{fill:url(#linear-gradient-9);}.cls-17{fill:url(#linear-gradient-10);}.cls-18{fill:url(#linear-gradient-11);}.cls-19{fill:url(#linear-gradient-12);}.cls-20{fill:url(#linear-gradient-13);}.cls-21{fill:url(#linear-gradient-14);}.cls-22{fill:url(#linear-gradient-15);}.cls-23{fill:url(#linear-gradient-16);}.cls-24{fill:url(#linear-gradient-17);}.cls-25{fill:url(#radial-gradient);}.cls-26{fill:url(#radial-gradient-2);}.cls-27{fill:url(#linear-gradient-18);}.cls-28{fill:url(#linear-gradient-19);}.cls-29{fill:url(#linear-gradient-20);}.cls-30{fill:url(#linear-gradient-21);}.cls-31{fill:url(#linear-gradient-22);}.cls-32{fill:url(#linear-gradient-23);}.cls-33{fill:#231f20;}</style><linearGradient id="linear-gradient" x1="-48.35" y1="279.24" x2="-46.6" y2="287.81" gradientTransform="matrix(-0.96, 0.26, 0.26, 0.96, -10.36, -240.14)" gradientUnits="userSpaceOnUse"><stop offset="0" stop-color="#85c340"/><stop offset="0.02" stop-color="#8ac540"/><stop offset="0.17" stop-color="#a4ce43"/><stop offset="0.3" stop-color="#b4d344"/><stop offset="0.4" stop-color="#bad545"/><stop offset="1" stop-color="#436e1e"/></linearGradient><linearGradient id="linear-gradient-2" x1="-49.9" y1="306.89" x2="-42.21" y2="308.81" gradientTransform="matrix(-0.96, 0.26, 0.26, 0.96, -10.36, -240.14)" gradientUnits="userSpaceOnUse"><stop offset="0" stop-color="#436e1e"/><stop offset="0.6" stop-color="#bad545"/><stop offset="0.7" stop-color="#b4d344"/><stop offset="0.83" stop-color="#a4ce43"/><stop offset="0.98" stop-color="#8ac540"/><stop offset="1" stop-color="#85c340"/></linearGradient><linearGradient id="linear-gradient-3" x1="-48.88" y1="309.15" x2="-51.55" y2="321.08" gradientTransform="matrix(-0.96, 0.26, 0.26, 0.96, -10.36, -240.14)" gradientUnits="userSpaceOnUse"><stop offset="0" stop-color="#bad545"/><stop offset="0.23" stop-color="#d5b238"/><stop offset="0.47" stop-color="#ec932d"/><stop offset="0.61" stop-color="#f58829"/><stop offset="1" stop-color="#975410"/></linearGradient><linearGradient id="linear-gradient-4" x1="-0.1" y1="292.42" x2="5.76" y2="292.42" gradientTransform="matrix(-0.96, 0.26, 0.26, 0.96, -10.36, -240.14)" gradientUnits="userSpaceOnUse"><stop offset="0" stop-color="#254a9d"/><stop offset="1" stop-color="#00bff2"/></linearGradient><linearGradient id="linear-gradient-5" x1="7.52" y1="295.16" x2="13.83" y2="295.16" xlink:href="#linear-gradient-4"/><linearGradient id="linear-gradient-6" x1="1.51" y1="293.67" x2="16.57" y2="292.13" xlink:href="#linear-gradient-2"/><linearGradient id="linear-gradient-7" x1="-51.51" y1="300.3" x2="-49.9" y2="294.62" xlink:href="#linear-gradient-2"/><linearGradient id="linear-gradient-8" x1="-51.04" y1="298.11" x2="-46.46" y2="281.93" xlink:href="#linear-gradient-2"/><linearGradient id="linear-gradient-9" x1="-22.78" y1="314.24" x2="-15.1" y2="287.14" xlink:href="#linear-gradient-2"/><linearGradient id="linear-gradient-10" x1="-14.5" y1="315.86" x2="-13.05" y2="302.69" xlink:href="#linear-gradient-4"/><linearGradient id="linear-gradient-11" x1="-9027.85" y1="313.57" x2="-9009.61" y2="313.57" gradientTransform="translate(8686.81 -2610.52) rotate(-15.25)" xlink:href="#linear-gradient-4"/><linearGradient id="linear-gradient-12" x1="0.67" y1="332.29" x2="-9.25" y2="336.43" xlink:href="#linear-gradient-3"/><linearGradient id="linear-gradient-13" x1="-0.17" y1="332.13" x2="-8.4" y2="326.43" xlink:href="#linear-gradient-3"/><linearGradient id="linear-gradient-14" x1="-3.37" y1="311.22" x2="5.32" y2="316.52" xlink:href="#linear-gradient-2"/><linearGradient id="linear-gradient-15" x1="12.5" y1="323.35" x2="17.72" y2="331.98" xlink:href="#linear-gradient-2"/><linearGradient id="linear-gradient-16" x1="9.68" y1="315.48" x2="12.78" y2="323.49" xlink:href="#linear-gradient-2"/><linearGradient id="linear-gradient-17" x1="-8972.58" y1="289.62" x2="-8959.03" y2="289.62" gradientTransform="translate(8686.81 -2610.52) rotate(-15.25)" xlink:href="#linear-gradient"/><radialGradient id="radial-gradient" cx="-8944.69" cy="292.02" r="5.77" gradientTransform="matrix(1.17, -0.32, 0.26, 0.96, 10501.74, -3149.35)" gradientUnits="userSpaceOnUse"><stop offset="0" stop-color="#3165af"/><stop offset="0.64" stop-color="#2b60ac"/><stop offset="1" stop-color="#255ba9"/></radialGradient><radialGradient id="radial-gradient-2" cx="-8944.56" cy="292.33" r="5.38" gradientTransform="matrix(1.17, -0.32, 0.26, 0.96, 10501.74, -3149.35)" gradientUnits="userSpaceOnUse"><stop offset="0" stop-color="#ee4323"/><stop offset="0.13" stop-color="#e84122"/><stop offset="0.3" stop-color="#d83a1e"/><stop offset="0.49" stop-color="#bc2f18"/><stop offset="0.7" stop-color="#96200f"/><stop offset="0.92" stop-color="#660c05"/><stop offset="1" stop-color="#520400"/></radialGradient><linearGradient id="linear-gradient-18" x1="-16.54" y1="302.02" x2="-18.76" y2="312.14" gradientTransform="matrix(-0.96, 0.26, 0.26, 0.96, -10.36, -240.14)" gradientUnits="userSpaceOnUse"><stop offset="0" stop-color="#fff229"/><stop offset="0.2" stop-color="#eae931"/><stop offset="0.51" stop-color="#d0de3c"/><stop offset="0.79" stop-color="#c0d743"/><stop offset="1" stop-color="#bad545"/></linearGradient><linearGradient id="linear-gradient-19" x1="-9022.55" y1="312.03" x2="-9004.34" y2="312.03" gradientTransform="translate(8686.81 -2610.52) rotate(-15.25)" xlink:href="#linear-gradient-4"/><linearGradient id="linear-gradient-20" x1="-28.64" y1="331.24" x2="-41.21" y2="339.76" xlink:href="#linear-gradient-3"/><linearGradient id="linear-gradient-21" x1="-36.44" y1="310.54" x2="-20.89" y2="306.13" xlink:href="#linear-gradient-2"/><linearGradient id="linear-gradient-22" x1="-30.03" y1="322.31" x2="-21.1" y2="326.1" xlink:href="#linear-gradient-2"/><linearGradient id="linear-gradient-23" x1="-29.69" y1="312.45" x2="-22.44" y2="305.36" xlink:href="#linear-gradient-4"/></defs><title>$2-frog</title><path class="cls-1" d="M170.35,0H10A9.87,9.87,0,0,1,0,9.75v5.69a4.88,4.88,0,1,1,0,9.75v3.13a4.88,4.88,0,1,1,0,9.75v3.13a4.88,4.88,0,1,1,0,9.75v3.13a4.88,4.88,0,1,1,0,9.75v3.13a4.88,4.88,0,1,1,0,9.75v3.13a4.88,4.88,0,1,1,0,9.75v5.69A9.87,9.87,0,0,1,10,105H170.35a9.87,9.87,0,0,1,10-9.75V89.57a4.88,4.88,0,1,1,0-9.75V76.69a4.88,4.88,0,1,1,0-9.75V63.82a4.88,4.88,0,1,1,0-9.75V50.94a4.88,4.88,0,1,1,0-9.75V38.07a4.88,4.88,0,1,1,0-9.75V25.19a4.88,4.88,0,1,1,0-9.75V9.75A9.87,9.87,0,0,1,170.35,0Z"/><path class="cls-2" d="M0,54.07a4.88,4.88,0,1,1,0,9.75v3.13a4.88,4.88,0,1,1,0,9.75v3.13A4.94,4.94,0,0,1,5,84.7a4.94,4.94,0,0,1-5,4.87v5.69A9.87,9.87,0,0,1,10,105H170.35a9.87,9.87,0,0,1,10-9.75V89.57a4.88,4.88,0,1,1,0-9.75V76.69a4.88,4.88,0,1,1,0-9.75V63.82a4.88,4.88,0,1,1,0-9.75V52.51H0Z"/><path class="cls-3" d="M14.11,12.43V92.58H166.24V12.43ZM165,91.33H15.39V13.68H165Z"/><rect class="cls-4" x="15.39" y="13.68" width="149.56" height="77.64"/><polygon class="cls-5" points="164.96 52.51 164.96 91.33 15.39 91.33 15.39 52.51 14.11 52.51 14.11 92.58 166.24 92.58 166.24 52.51 164.96 52.51"/><polygon class="cls-6" points="51.18 12.43 35.23 12.43 41.66 0 57.61 0 51.18 12.43"/><polygon class="cls-6" points="59.82 12.43 55.4 12.43 61.83 0 66.25 0 59.82 12.43"/><text class="cls-7" transform="translate(135.08 34.92) scale(1.01 1)">$2</text><path class="cls-8" d="M116.57,22.09c-.79,3.11-4.35,5.36-8,5s-5.9-3.13-5.11-6.24,4.35-5.36,8-5S117.36,19,116.57,22.09Z"/><path class="cls-9" d="M116.35,46.66c-1.32,0-2.2.86-3.17,1.73a4,4,0,0,0-.88-1.16,10.28,10.28,0,0,1-.91-1.3c-.42-.59-.84-1.18-1.24-1.78l-.08-.12,4-4,.18.25c1,1.4,1.94,2.81,2.93,4.21a8,8,0,0,0,1.51,1.62,4.59,4.59,0,0,0,1.53.64l.52.15C119.24,47.72,117.72,46.92,116.35,46.66Z"/><path class="cls-10" d="M107,52.94a2.55,2.55,0,0,1,3.32-1.35c1.22-.69,2.73-1.25,3-2.46a1.26,1.26,0,0,0-.08-.74c1-.87,1.85-1.77,3.17-1.73,1.37.26,2.89,1.06,4.39.21,2.14.55,4.71.33,6.87.87a14.14,14.14,0,0,1,4,1.61A7.22,7.22,0,0,1,134,51.1a3.18,3.18,0,0,1,1.37-.18c1.32.12,2.18,1,1.92,2.06a2.64,2.64,0,0,1-2.85,1.62c-1.29-.12-2.13-1-1.93-2A15.67,15.67,0,0,1,130.16,51a14,14,0,0,0-4.39-2.11c-.55-.14-3.62-.66-3.24.75.11.4.9.71,1.22,1a16,16,0,0,1,1.62,1.51,10,10,0,0,1,2.21,3.47,3,3,0,0,1,.68,0,1.92,1.92,0,0,1,1.92,2.31,2.8,2.8,0,0,1-3,1.85,1.92,1.92,0,0,1-1.92-2.31,2.05,2.05,0,0,1,.21-.5c-1.14-.91-1.69-2.57-2.33-3.68a8.9,8.9,0,0,0-2.1-2.33,3.26,3.26,0,0,0-2.17-1.18c-.53,1.06-.11,2.56.08,3.61a10,10,0,0,1,.25,2c1.08.31,1.75,1.09,1.53,1.93-.25,1-1.64,1.7-3.09,1.57s-2.43-1.06-2.17-2.06a2.27,2.27,0,0,1,1.68-1.43c-.05-.24-.09-.49-.14-.76-.2-1-.3-3.61-1.53-4-.64-.22-1.29.26-1.77.61a23.53,23.53,0,0,1-2,1.33l-.37.22a1.39,1.39,0,0,1,0,.59,2.42,2.42,0,0,1-2.61,1.53C107.5,54.77,106.73,53.9,107,52.94Z"/><path class="cls-11" d="M66.51,41.53s-2.49,1.87-5,4a37.61,37.61,0,0,0,1.37-4.75A12.79,12.79,0,0,1,66.51,41.53Z"/><path class="cls-12" d="M55.06,52.5s0-6.45,3.79-10.12a23.76,23.76,0,0,0,0,5.66c-.49.49-.93,1-1.28,1.41Z"/><path class="cls-13" d="M60,41.46a4.89,4.89,0,0,1,2.9-.66,37.61,37.61,0,0,1-1.37,4.75c-1,.83-1.91,1.69-2.72,2.51a23.76,23.76,0,0,1,0-5.66A8.53,8.53,0,0,1,60,41.46Z"/><path class="cls-14" d="M120.56,34.5a16.86,16.86,0,0,0-1.94,1.5l-.18,0c-4.85.38-9.16,2.77-14.19,2.49a14,14,0,0,1-1.59,0c9.66-2.71,19.27-6.09,27.14-11.83C128,29.57,120.88,34.46,120.56,34.5Z"/><path class="cls-15" d="M100.85,37.78c-1.8-4.78.77-10.21,3-15.31a65.5,65.5,0,0,1,7.57-1.06,48,48,0,0,1,9.94-1.19c5.78-.12,9.37,3.06,8.88,5.63a2.64,2.64,0,0,1-.38.86c-7.87,5.74-17.49,9.12-27.14,11.83C101.81,38.5,101,38.32,100.85,37.78Z"/><path class="cls-16" d="M55.78,54.59a3,3,0,0,1-.72-2.09h0l2.46-3c2.46-3,13-11.09,13-11.09s6.13-4.16,11-5.09a20.31,20.31,0,0,0,12.35-6.71c1.92-2.05,6.1-3.32,9.88-4.09-2.19,5.1-4.75,10.53-3,15.31.24.89,2.26.81,3.4.74,5,.29,9.34-2.1,14.19-2.49l.18,0c-1.24,1-2.91,2.48-4.54,4l-4,4a13.41,13.41,0,0,0-1.31,1.68,57.5,57.5,0,0,1-5.8,6.83,54.82,54.82,0,0,0,2.81-10.39,16.9,16.9,0,0,0-2.71.87c.33-.64-.13-1,0-1.65C88.2,45.49,75.7,52.24,62.68,60l-1.5-.5A9.3,9.3,0,0,1,55.78,54.59Z"/><path class="cls-17" d="M103.06,43c-7.13,3-10.19,10.22-13.27,16.26l-.16-.43c-.95,1.85-11.44,2.67-12.52,2.75-7.16.06-10.66-.39-14.42-1.58,13-7.78,25.23-14.46,40.08-18.56C102.63,42.14,103.39,42.39,103.06,43Z"/><path class="cls-18" d="M57.37,59.49c.25-1.88.81-3.21,2.9-2.23,7.39,3.24,13.78,7,18.76,12.34-3.4-.92-7.07-.95-10.58-1.76l1.27.15S59.42,63.41,57.37,59.49Z"/><path class="cls-19" d="M82.2,76.91a32.08,32.08,0,0,1,4.75-.62,3.45,3.45,0,0,1,2.72-1.7c1.64-.23,3,.45,3.11,1.52s-1.19,2.13-2.84,2.36A3,3,0,0,1,87,77.58c-1.49.72-3.94,1.6-5,2.28-1.71,1.1-2.9,2.47-1.35,3.82a3.7,3.7,0,0,1,.77,1h.06c1.56-.22,2.9.61,3,1.86a2.83,2.83,0,0,1-2.67,2.65c-1.56.22-2.9-.61-3-1.86a1.9,1.9,0,0,1,.13-.83c-.3-.17-.61-.36-.92-.57,0-2.52,1.62-5.17,3.64-7.27C81.68,78.34,82.1,77.6,82.2,76.91Z"/><path class="cls-20" d="M82,76c-1.48-.69-2.86.07-4.26.54.45-.41,1.07-1,1.74-1.46a41.24,41.24,0,0,0,3.77-3.35,1.69,1.69,0,0,1,1.83,1.36c.06.91-.86,1.78-2.06,1.94h-.11a4.7,4.7,0,0,1-.72,1.59A1.06,1.06,0,0,0,82,76Z"/><path class="cls-21" d="M78.86,69.43c-4.95-5.2-11.29-9-18.59-12.17-2.09-1-2.65.35-2.9,2.23A2.78,2.78,0,0,1,57,58.28C57,55.73,58.91,54,61.25,53.59c6.88,5,17,8.34,22.73,14.13a2.66,2.66,0,0,1,.14,2.87c-.28.41-.56.79-.84,1.15l-1,1A5.33,5.33,0,0,0,78.86,69.43Z"/><path class="cls-22" d="M67.93,80.06c2.4-.91,9.16-2.85,9.16-2.85s.27-.27.69-.65c1.4-.47,2.78-1.23,4.26-.54a1.06,1.06,0,0,1,.18.64c-.12.18-.2.29-.2.29l.19,0c-.09.69-.51,1.43-.49,1.72-2,2.09-3.63,4.75-3.64,7.27-1.78-1.19-3.64-2.83-4.9-2.65-1.77.25-6.36,2.82-12.91-.62S43.17,76,43,73.27a19.54,19.54,0,0,1,7.3.49C51.69,74.42,65.65,80.92,67.93,80.06Z"/><path class="cls-23" d="M52.07,66.67c5.53,0,13.35.82,16.37,1.16,3.51.82,7.19.84,10.58,1.76l-.17-.17a5.33,5.33,0,0,1,3.4,3.31,24.79,24.79,0,0,1-2.75,2.36c-2.11,1.1-4.52,1.3-7.69,1.07-5.65-.42-21.64-2.46-21.64-2.46l.12.05a19.54,19.54,0,0,0-7.3-.49,1.27,1.27,0,0,1,0-.13C43.13,70.42,45.08,66.65,52.07,66.67Z"/><path class="cls-24" d="M119.22,27.12c-.79,3.11-4.35,5.36-8,5s-5.9-3.13-5.11-6.24,4.35-5.36,8-5S120,24,119.22,27.12Z"/><path class="cls-25" d="M118.94,27.29c-.72,2.82-4,4.87-7.23,4.56s-5.36-2.84-4.64-5.67,4-4.87,7.24-4.56S119.66,24.46,118.94,27.29Z"/><path class="cls-26" d="M118.8,27.4c-.67,2.63-3.69,4.54-6.75,4.25s-5-2.65-4.32-5.28,3.69-4.54,6.74-4.25S119.46,24.76,118.8,27.4Z"/><path class="cls-27" d="M69.54,55.72a52.1,52.1,0,0,0,4.74-2.45c1-.56,2-1.06,2.91-1.69.46-.32,1-.49,1.46-.75s1-.65,1.6-.93c1.47-.73,2.9-1.4,4.41-2,.93-.4,1.9-.76,2.81-1.19s1.68-1,2.55-1.51a15.33,15.33,0,0,1,3.41-1.35c.86-.24,1.71-.24,2.58-.56.6-.22,1.12-.66,1.71-.91a30.67,30.67,0,0,1,3.47-1,5,5,0,0,1,2.66,0c.58.16.88.36.78.9a1.5,1.5,0,0,1-.79,1c-.46.31-.66.3-.86.06,0-.49.11-1.15-.33-1a8.81,8.81,0,0,0-3.43.71h-.08a2.51,2.51,0,0,0-.68.5c-.17.2-.13.38-.17.6-.08.45-.08.92-.17,1.36-.06.29-.38,1.45-.88,1.41s-.44-1.28-.47-1.58c-.06-.62,0-1.1-.9-.84-1.09.31-1.66.47-1.72,1.51s.18,2,.15,3a9.62,9.62,0,0,1-.3,2.41c-.13.45-.51,1.53-1.23,1.65s-.28-.91-.23-1.19a17.84,17.84,0,0,0,.28-2,6,6,0,0,0-.34-2A2,2,0,0,0,91,46.09a2.6,2.6,0,0,0-3,1.71c-.63,1.62.2,3.5.9,4.9.51,1,1.2,2.57.81,3.76a1.31,1.31,0,0,1-1.13.9c-.54.05-.56-.19-.72-.61-.45-1.16-.66-2.43-1.08-3.61A10.77,10.77,0,0,0,85.07,50c-.54-.67-1.32-1.32-2.31-.62-1.74,1.23-1,3.23-.51,4.65.21.58,2.54,4.71,1.53,5.08-.54.2-1.3-.51-1.57-.8-.54-.57-1.1-1.14-1.61-1.74-.91-1.08-1.58-2.3-2.53-3.35-.4-.45-1.1-.74-1.54,0a2.35,2.35,0,0,0-.14,1.62c.19.95.49,1.88.74,2.81.1.38.4,1.28,0,1.69s-.76,0-1.06-.25a19.25,19.25,0,0,1-1.59-1.44,12.7,12.7,0,0,0-.85-1.09c-1.14-1-2.91.09-4.21.52-.47.15-1.21.32-1.47-.16S69.1,55.92,69.54,55.72Z"/><path class="cls-28" d="M61.25,53.59a6.53,6.53,0,0,1,4.35.64S81,62.19,84,67.73C78.23,61.93,68.13,58.56,61.25,53.59Z"/><path class="cls-29" d="M109.26,72.32c.78-.84-.89-1.9-1.45-3.23l.73.18A33.87,33.87,0,0,1,110,66a1.28,1.28,0,0,1-.46-1.33,2.16,2.16,0,0,1,2.32-1.4c1.06.1,1.74.88,1.52,1.75a2.08,2.08,0,0,1-1.85,1.39,33,33,0,0,1-1.73,4.39s6.92-3.29,9.54-3a4,4,0,0,1,.55.11,2.94,2.94,0,0,1,1.94-.51c1.27.12,2.08,1,1.83,2A2.55,2.55,0,0,1,121,71a1.91,1.91,0,0,1-1.85-1.44c-3-.71-8.33,3.17-8.33,3.17,5.75-.62,8.14,2.21,9.57,3.58l.06.06a2.18,2.18,0,0,1,.74-.06,1.43,1.43,0,0,1,1.41,1.74,2.09,2.09,0,0,1-2.21,1.41,1.43,1.43,0,0,1-1.41-1.74,1.58,1.58,0,0,1,.26-.53,8.78,8.78,0,0,0-2.29-2.29c-2.52-2.06-7.66-.13-7.66-.13s1.54,3.27,1.51,5.38a3.78,3.78,0,0,1-.21,1.16,1.52,1.52,0,0,1,1,1.76,2.5,2.5,0,0,1-2.69,1.55c-1.24-.11-2-1-1.8-2a2.42,2.42,0,0,1,2.38-1.56v0c.83-3.27-2.63-6.94-2.63-6.94s-.59-.24-1.59-.68C106.75,73.27,108.34,73.16,109.26,72.32Z"/><path class="cls-30" d="M92.68,57.31c.14-.21.28-.42.42-.63,3.72-5,9.2-8.82,11.51-14.21.38-.12.76-.22,1.16-.31A54.82,54.82,0,0,1,103,52.54c-2.24,2.37-4.22,4.32-4.22,4.32l.37.68A9.41,9.41,0,0,0,92.68,57.31Z"/><path class="cls-31" d="M99.12,57.54c1.25,2.28,5.25,9.57,5.65,10.22s2,1.06,3,1.33c.56,1.33,2.24,2.39,1.45,3.23s-2.51.95-4.06,1.14c-1.65-.72-4.43-2-7.55-3.59s-5.59-5.69-6.9-8.39a15.71,15.71,0,0,1,1.93-4.17A9.41,9.41,0,0,1,99.12,57.54Z"/><path class="cls-32" d="M104.62,42.47c-2.31,5.39-7.79,9.24-11.51,14.21a16.07,16.07,0,0,0-2.36,4.8c-.46-.95-.79-1.73-1-2.19C93.09,52.83,96.36,45,104.62,42.47Z"/><path class="cls-33" d="M115.46,28.85l-2.88-5.35A7.62,7.62,0,0,1,115.46,28.85Z"/><ellipse class="cls-34" cx="111.11" cy="25.4" rx="0.63" ry="0.52" transform="translate(-2.75 30.54) rotate(-15.46)"/><path class="cls-34" d="M104.64,23.81l-.56.15c-.37.1-.91.26-1.58.49s-1.49.52-2.42.89a28.23,28.23,0,0,0-3,1.42A14.7,14.7,0,0,0,93.84,29l-.37.37-.34.35-.35.3c-.13.1-.25.2-.4.3a11.76,11.76,0,0,1-1.84,1A46.17,46.17,0,0,1,86.19,33c-1.52.5-3.08,1-4.61,1.6a33.31,33.31,0,0,0-4.44,2.1,21.42,21.42,0,0,0-2,1.3l-1.83,1.33c-1.2.87-2.35,1.72-3.45,2.53s-2.12,1.57-3.07,2.28l-1.36,1-1.21.94-2,1.54-1.25,1-.44.35.48-.32,1.35-.9,2.07-1.41,1.27-.87,1.42-1,3.18-2.16c1.13-.77,2.32-1.58,3.53-2.44l1.86-1.3c.62-.42,1.26-.83,1.93-1.21a32.34,32.34,0,0,1,4.28-2c1.48-.59,3-1.1,4.53-1.61a41.32,41.32,0,0,0,4.44-1.71,11.7,11.7,0,0,0,2-1.17c.16-.11.29-.24.44-.35s.28-.26.42-.39l.34-.38.32-.35a14.76,14.76,0,0,1,2.92-2.25c1-.61,2-1.12,2.87-1.54s1.67-.77,2.32-1l1.53-.61Z"/></svg>