<svg id="Layer_1" data-name="Layer 1" xmlns="http://www.w3.org/2000/svg" xmlns:xlink="http://www.w3.org/1999/xlink" viewBox="0 0 120.06 131.29"><defs><style>.cls-1{fill:#ed5d54;}.cls-2,.cls-7{fill:#d8423f;}.cls-3,.cls-5{fill:#7c0704;}.cls-3{opacity:0.35;}.cls-4{fill:#eef3cc;}.cls-5,.cls-6{opacity:0.2;}.cls-6{fill:#fff;}.cls-7{font-size:20px;font-family:Poppins-Regular, Poppins;}.cls-8{fill:#6d6d00;}.cls-9{fill:#141400;}.cls-10{fill:#7a7a00;}.cls-11{fill:#575700;}.cls-12{fill:#990;}.cls-13{fill:#300;}.cls-14{fill:#330;}.cls-15{fill:url(#radial-gradient);}.cls-16{fill:url(#radial-gradient-2);}.cls-17{fill:url(#radial-gradient-3);}.cls-18{fill:url(#radial-gradient-4);}.cls-19{fill:url(#radial-gradient-5);}.cls-20{fill:url(#radial-gradient-6);}.cls-21{fill:url(#radial-gradient-7);}.cls-22{fill:url(#radial-gradient-8);}.cls-23{fill:url(#radial-gradient-9);}.cls-24{fill:url(#radial-gradient-10);}.cls-25{fill:url(#radial-gradient-11);}.cls-26{fill:url(#radial-gradient-12);}.cls-27{fill:url(#radial-gradient-13);}.cls-28{fill:url(#radial-gradient-14);}.cls-29{fill:url(#radial-gradient-15);}.cls-30{fill:url(#radial-gradient-16);}.cls-31{fill:url(#linear-gradient);}.cls-32{fill:url(#linear-gradient-2);}.cls-33{fill:url(#linear-gradient-3);}.cls-34{fill:url(#linear-gradient-4);}.cls-35{fill:url(#linear-gradient-5);}.cls-36{fill:url(#linear-gradient-6);}.cls-37{fill:url(#linear-gradient-7);}.cls-38{fill:url(#linear-gradient-8);}.cls-39{fill:url(#linear-gradient-9);}.cls-40{fill:url(#linear-gradient-10);}.cls-41{fill:url(#linear-gradient-11);}.cls-42{fill:url(#linear-gradient-12);}.cls-43{fill:url(#linear-gradient-13);}.cls-44{fill:url(#linear-gradient-14);}.cls-45{fill:url(#linear-gradient-15);}.cls-46{fill:url(#linear-gradient-16);}.cls-47{fill:url(#linear-gradient-17);}.cls-48{fill:url(#linear-gradient-18);}.cls-49{fill:url(#linear-gradient-19);}.cls-50{fill:url(#linear-gradient-20);}.cls-51{fill:url(#linear-gradient-21);}.cls-52{fill:url(#linear-gradient-22);}.cls-53{fill:url(#linear-gradient-23);}.cls-54{fill:url(#linear-gradient-24);}.cls-55{fill:url(#linear-gradient-25);}.cls-56{fill:url(#linear-gradient-26);}.cls-57{fill:url(#linear-gradient-27);}.cls-58{fill:url(#linear-gradient-28);}</style><radialGradient id="radial-gradient" cx="102.9" cy="171.57" r="1.43" gradientTransform="translate(230.37 -31.51) rotate(90)" gradientUnits="userSpaceOnUse"><stop offset="0" stop-color="#ffa300"/><stop offset="1" stop-color="#fe0"/></radialGradient><radialGradient id="radial-gradient-2" cx="102.75" cy="169.23" r="1.52" xlink:href="#radial-gradient"/><radialGradient id="radial-gradient-3" cx="108.92" cy="175.91" r="1.89" xlink:href="#radial-gradient"/><radialGradient id="radial-gradient-4" cx="113.03" cy="175.88" r="1.41" xlink:href="#radial-gradient"/><radialGradient id="radial-gradient-5" cx="116.21" cy="175.84" r="1.14" xlink:href="#radial-gradient"/><radialGradient id="radial-gradient-6" cx="119.5" cy="175.5" r="1.23" xlink:href="#radial-gradient"/><radialGradient id="radial-gradient-7" cx="124.62" cy="174.02" r="1.33" xlink:href="#radial-gradient"/><radialGradient id="radial-gradient-8" cx="123.51" cy="177.59" r="1.48" xlink:href="#radial-gradient"/><radialGradient id="radial-gradient-9" cx="132.71" cy="174.74" r="3.89" xlink:href="#radial-gradient"/><radialGradient id="radial-gradient-10" cx="108.92" cy="164.63" r="1.89" xlink:href="#radial-gradient"/><radialGradient id="radial-gradient-11" cx="113.03" cy="164.66" r="1.41" xlink:href="#radial-gradient"/><radialGradient id="radial-gradient-12" cx="116.21" cy="164.7" r="1.14" xlink:href="#radial-gradient"/><radialGradient id="radial-gradient-13" cx="119.5" cy="165.04" r="1.23" xlink:href="#radial-gradient"/><radialGradient id="radial-gradient-14" cx="124.62" cy="166.51" r="1.33" xlink:href="#radial-gradient"/><radialGradient id="radial-gradient-15" cx="123.51" cy="162.95" r="1.48" xlink:href="#radial-gradient"/><radialGradient id="radial-gradient-16" cx="132.71" cy="165.8" r="3.89" xlink:href="#radial-gradient"/><linearGradient id="linear-gradient" x1="83.16" y1="177.89" x2="89.81" y2="177.89" gradientTransform="translate(230.37 -31.51) rotate(90)" gradientUnits="userSpaceOnUse"><stop offset="0" stop-color="#677d00"/><stop offset="1" stop-color="#a1a100"/></linearGradient><linearGradient id="linear-gradient-2" x1="88.4" y1="182.57" x2="91.05" y2="182.57" xlink:href="#linear-gradient"/><linearGradient id="linear-gradient-3" x1="100.11" y1="189.9" x2="102.41" y2="189.9" xlink:href="#linear-gradient"/><linearGradient id="linear-gradient-4" x1="101.71" y1="192.44" x2="108.1" y2="192.44" xlink:href="#linear-gradient"/><linearGradient id="linear-gradient-5" x1="106.65" y1="196.94" x2="112.71" y2="196.94" xlink:href="#linear-gradient"/><linearGradient id="linear-gradient-6" x1="112.04" y1="200.83" x2="117.43" y2="200.83" xlink:href="#linear-gradient"/><linearGradient id="linear-gradient-7" x1="117.46" y1="203.15" x2="123.64" y2="203.15" xlink:href="#linear-gradient"/><linearGradient id="linear-gradient-8" x1="123.09" y1="203.65" x2="126.18" y2="203.65" xlink:href="#linear-gradient"/><linearGradient id="linear-gradient-9" x1="125.97" y1="203.02" x2="128.88" y2="203.02" xlink:href="#linear-gradient"/><linearGradient id="linear-gradient-10" x1="128.64" y1="202.04" x2="130.75" y2="202.04" xlink:href="#linear-gradient"/><linearGradient id="linear-gradient-11" x1="130.32" y1="200.55" x2="132.36" y2="200.55" xlink:href="#linear-gradient"/><linearGradient id="linear-gradient-12" x1="125.37" y1="195.61" x2="132.33" y2="195.61" xlink:href="#linear-gradient"/><linearGradient id="linear-gradient-13" x1="131.43" y1="198.76" x2="132.71" y2="198.76" xlink:href="#linear-gradient"/><linearGradient id="linear-gradient-14" x1="89.58" y1="186.34" x2="100.84" y2="186.34" xlink:href="#linear-gradient"/><linearGradient id="linear-gradient-15" x1="83.16" y1="162.78" x2="89.81" y2="162.78" xlink:href="#linear-gradient"/><linearGradient id="linear-gradient-16" x1="88.4" y1="158.11" x2="91.05" y2="158.11" xlink:href="#linear-gradient"/><linearGradient id="linear-gradient-17" x1="100.11" y1="150.78" x2="102.41" y2="150.78" xlink:href="#linear-gradient"/><linearGradient id="linear-gradient-18" x1="101.71" y1="148.24" x2="108.1" y2="148.24" xlink:href="#linear-gradient"/><linearGradient id="linear-gradient-19" x1="106.65" y1="143.73" x2="112.71" y2="143.73" xlink:href="#linear-gradient"/><linearGradient id="linear-gradient-20" x1="112.04" y1="139.84" x2="117.43" y2="139.84" xlink:href="#linear-gradient"/><linearGradient id="linear-gradient-21" x1="117.46" y1="137.52" x2="123.64" y2="137.52" xlink:href="#linear-gradient"/><linearGradient id="linear-gradient-22" x1="123.09" y1="137.02" x2="126.18" y2="137.02" xlink:href="#linear-gradient"/><linearGradient id="linear-gradient-23" x1="125.97" y1="137.65" x2="128.88" y2="137.65" xlink:href="#linear-gradient"/><linearGradient id="linear-gradient-24" x1="128.64" y1="138.63" x2="130.75" y2="138.63" xlink:href="#linear-gradient"/><linearGradient id="linear-gradient-25" x1="130.32" y1="140.13" x2="132.36" y2="140.13" xlink:href="#linear-gradient"/><linearGradient id="linear-gradient-26" x1="125.37" y1="145.07" x2="132.33" y2="145.07" xlink:href="#linear-gradient"/><linearGradient id="linear-gradient-27" x1="131.43" y1="141.91" x2="132.71" y2="141.91" xlink:href="#linear-gradient"/><linearGradient id="linear-gradient-28" x1="89.58" y1="154.33" x2="100.84" y2="154.33" xlink:href="#linear-gradient"/></defs><title>20c-bug</title><path class="cls-1" d="M120.06,122.17v-5.35a5.28,5.28,0,1,1,0-10.52V103.7a5.28,5.28,0,1,1,0-10.52V90.58a5.28,5.28,0,1,1,0-10.52V77.47a5.28,5.28,0,1,1,0-10.52V64.35a5.28,5.28,0,1,1,0-10.52V51.23a5.28,5.28,0,1,1,0-10.52V38.11a5.47,5.47,0,0,1-5.66-5.26,5.47,5.47,0,0,1,5.66-5.26V25a5.47,5.47,0,0,1-5.66-5.26,5.47,5.47,0,0,1,5.66-5.26V9.12c-5.41,0-9.79-4.08-9.79-9.11H9.79C9.79,5,5.41,9.12,0,9.12v5.35a5.47,5.47,0,0,1,5.66,5.26A5.47,5.47,0,0,1,0,25v2.59a5.47,5.47,0,0,1,5.66,5.26A5.47,5.47,0,0,1,0,38.11V40.7A5.28,5.28,0,1,1,0,51.23v2.59A5.28,5.28,0,1,1,0,64.35v2.59A5.28,5.28,0,1,1,0,77.47v2.59A5.28,5.28,0,1,1,0,90.58v2.59A5.28,5.28,0,1,1,0,103.7v2.59a5.28,5.28,0,1,1,0,10.52v5.35c5.41,0,9.79,4.08,9.79,9.11H110.27C110.27,126.25,114.65,122.17,120.06,122.17Z"/><path class="cls-2" d="M120.06,66.94v-1.2H0v1.2A5.28,5.28,0,1,1,0,77.47v2.59A5.28,5.28,0,1,1,0,90.58v2.59A5.28,5.28,0,1,1,0,103.7v2.59a5.28,5.28,0,1,1,0,10.52v5.35c5.41,0,9.79,4.08,9.79,9.11H110.27c0-5,4.39-9.11,9.79-9.11v-5.35a5.28,5.28,0,1,1,0-10.52V103.7a5.28,5.28,0,1,1,0-10.52V90.58a5.28,5.28,0,1,1,0-10.52V77.47a5.28,5.28,0,1,1,0-10.52Z"/><path class="cls-3" d="M13.8,11.66v108h92.45v-108ZM105,118.45H15.06V12.84H105Z"/><rect class="cls-4" x="15.06" y="12.84" width="89.93" height="105.62"/><polygon class="cls-5" points="105 65.74 105 118.45 15.06 118.45 15.06 65.74 13.8 65.74 13.8 119.63 106.26 119.63 106.26 65.74 105 65.74"/><polygon class="cls-6" points="44.03 11.66 27.54 11.66 33.84 0 50.33 0 44.03 11.66"/><polygon class="cls-6" points="50.5 11.66 47.39 11.66 53.69 0 56.8 0 50.5 11.66"/><text class="cls-7" transform="translate(63.33 34.12) scale(1.01 1)">20c</text><path class="cls-8" d="M65,57.42a2.84,2.84,0,0,0-.16-1.19,2.19,2.19,0,0,0-.47-.63,5.33,5.33,0,0,0-2.49-1.41.81.81,0,0,0-.76.09,1.41,1.41,0,0,0-.2.32,1.12,1.12,0,0,1-1.53.36c-.15-.1-.28-.24-.43-.34a1.82,1.82,0,0,0-1.5,0A9.07,9.07,0,0,0,55,55.8a1,1,0,0,0-.35.35,1.09,1.09,0,0,0-.08.51l0,5.34a4.64,4.64,0,0,0,.5,2.53.94.94,0,0,0,.26.29,1.05,1.05,0,0,0,.37.13c2,.4,4-.45,5.95-.45a15.64,15.64,0,0,0,2.6,0c1.07-.18,1.09-.46,1-1.41A50.47,50.47,0,0,1,65,57.42Z"/><path class="cls-9" d="M60.65,54.94c.14.18.24.39.37.59A3.71,3.71,0,0,0,62.4,56.7a5.6,5.6,0,0,0,2.64.53,2.43,2.43,0,0,0-.16-1,2.19,2.19,0,0,0-.47-.63,5.33,5.33,0,0,0-2.49-1.41.81.81,0,0,0-.76.09,1.41,1.41,0,0,0-.2.32A1,1,0,0,1,60.65,54.94Z"/><path class="cls-9" d="M57.1,56.46a3.25,3.25,0,0,0,2-1.75L59,54.62a1.82,1.82,0,0,0-1.5,0A9.07,9.07,0,0,0,55,55.8a1,1,0,0,0-.35.35,1.09,1.09,0,0,0-.08.51V57A5.9,5.9,0,0,0,57.1,56.46Z"/><path class="cls-10" d="M61.71,64.49a15.63,15.63,0,0,0,2.6,0c1.07-.18,1.09-.46,1-1.41s-.16-1.8-.21-2.7a8.17,8.17,0,0,1-2.53.39,4.2,4.2,0,0,1-1.48-.21c-.26-.09-.51-.23-.78-.31a1.34,1.34,0,0,0-1,.16,5.53,5.53,0,0,1-2.82.33A4.77,4.77,0,0,1,54.62,60v2a4.64,4.64,0,0,0,.5,2.53.94.94,0,0,0,.26.29,1.05,1.05,0,0,0,.37.13C57.72,65.34,59.71,64.5,61.71,64.49Z"/><path class="cls-11" d="M67.67,67.35a26.22,26.22,0,0,0,2.22-2.77.54.54,0,0,0,.08-.24.45.45,0,0,0-.19-.34c-.67-.55-1.73,0-2.51-.39s-.9-1-1.14-1.71a.7.7,0,0,0-.2-.33.71.71,0,0,0-.44-.1,8.57,8.57,0,0,0-4.73.86,2,2,0,0,1-.6.31c-.52.12-1-.27-1.44-.54A8.06,8.06,0,0,0,54,61.41a1,1,0,0,0-.4.08c-.52.27-.21,1.11-.51,1.61a1.25,1.25,0,0,1-.5.42,5.34,5.34,0,0,1-1.71.58,1.56,1.56,0,0,0-.93.33c-.41.43-.09,1.16.38,1.51a10.6,10.6,0,0,1,1.48.95,2.78,2.78,0,0,1,.47.73A10.13,10.13,0,0,1,53,69.76a2.81,2.81,0,0,0,.26.8,2.23,2.23,0,0,0,1.49.88,24.43,24.43,0,0,0,2.72.42,35.92,35.92,0,0,0,5,.45A10.69,10.69,0,0,0,64.92,72c.56-.14,1.57-.34,1.88-.9s0-1.06,0-1.53A4,4,0,0,1,67.67,67.35Z"/><path class="cls-10" d="M64.92,72c.56-.14,1.57-.34,1.88-.9s0-1.06,0-1.53a3.53,3.53,0,0,1,.36-1.41L65.73,68c-.72-.07-1.43-.06-2.15-.09a8.62,8.62,0,0,1-1.85-.25A11.93,11.93,0,0,0,60,67.14a6.47,6.47,0,0,0-2.1.38,20.38,20.38,0,0,1-2.08.38,17.9,17.9,0,0,1-3.42-.1,10.12,10.12,0,0,1,.67,2,2.81,2.81,0,0,0,.26.8,2.23,2.23,0,0,0,1.49.88,24.43,24.43,0,0,0,2.72.42,35.92,35.92,0,0,0,5,.45A10.69,10.69,0,0,0,64.92,72Z"/><path class="cls-11" d="M48.07,45.66a.4.4,0,0,0-.09-.29c-.1-.1-.27-.08-.41-.1a.78.78,0,0,1-.67-.73.23.23,0,0,1,.07-.2.26.26,0,0,1,.15,0,2.47,2.47,0,0,1,.62.05.81.81,0,0,0-.17-.7,1.49,1.49,0,0,0-.25-.14.87.87,0,0,1-.4-1l.52-.1c-.05-.27-.15-.59-.42-.67-.08,0-.17,0-.26,0-.38-.08-.52-.54-.54-.93a1.48,1.48,0,0,0-.31-1.08,1.27,1.27,0,0,1,.94.13,5,5,0,0,1-.28-1.52A2.45,2.45,0,0,1,47,36.87a2,2,0,0,1,2.59-.47.83.83,0,0,1,.27.25.9.9,0,0,1,.1.46,2.88,2.88,0,0,1-.25,1.21,3.17,3.17,0,0,1-.69-.89,2.16,2.16,0,0,0-1,2.43.2.2,0,0,0,0,.09c.1.09.24-.07.29-.2A1.75,1.75,0,0,1,49,39a.4.4,0,0,1,.22-.09.37.37,0,0,1,.18.06,1.15,1.15,0,0,1,.52,1.19c-.15.69-.91,1.14-1,1.84L50,42a.72.72,0,0,1-.16.75c-.1.1-.24.17-.33.29a1.15,1.15,0,0,0-.15.88c0,.17.11.4.28.37s.13-.09.21-.1.22.24.19.41l-.34,1.95A2.55,2.55,0,0,1,49.11,48,5.19,5.19,0,0,1,48,47.63a1,1,0,0,1-.43-.34c-.19-.3,0-.45.2-.67A1.61,1.61,0,0,0,48.07,45.66Z"/><path class="cls-12" d="M47.74,44.12l.37.21a1.21,1.21,0,0,0,1.43-.13.54.54,0,0,1-.13-.32,1.15,1.15,0,0,1,.15-.88c.1-.11.23-.18.33-.29A.72.72,0,0,0,50,42l-.92,0c-.31.18-.39.62-.74.76a.39.39,0,0,1-.32,0c-.25-.1-.5-.19-.75-.28l-.4.08a.87.87,0,0,0,.4,1,1.49,1.49,0,0,1,.25.14A.6.6,0,0,1,47.74,44.12Z"/><path class="cls-12" d="M54.61,67.56A5.16,5.16,0,0,0,53.75,66a7.55,7.55,0,0,0-2.62-1.83c-.59-.31-.59-.74-.94-1.25a6.27,6.27,0,0,0-1.14-1.14,16.69,16.69,0,0,0-1.54-1.19,4.78,4.78,0,0,0-1.59-.71,7,7,0,0,0,0-1.57L45.73,55c-.06-.88-.39-2.09.34-2.78.15-.15.35-.25.51-.38a8.7,8.7,0,0,0,.86-1,12.25,12.25,0,0,0,1.12-1.1c.55-.79.41-1.93,1-2.69a2.23,2.23,0,0,0,.33-.46A1.35,1.35,0,0,0,50,46V45a2.12,2.12,0,0,0,0-.91,6.43,6.43,0,0,1-1,.47,2.09,2.09,0,0,1-1.08,0,1.55,1.55,0,0,0-.54-.12c-.18,0-.38.16-.36.34,0-.06.39.12.41.14a1,1,0,0,1,.28.43,1.77,1.77,0,0,1,.09,1.12,3.49,3.49,0,0,1-.47.9L45.5,50a3.83,3.83,0,0,0-.93,2,.94.94,0,0,1,0,.21.87.87,0,0,1-.12.25,5.94,5.94,0,0,0-.46,3,17.49,17.49,0,0,0,.28,3.28,7.77,7.77,0,0,0,2.21,4.26c.34.31.72.58,1.09.86a24,24,0,0,1,3,2.67c.31.33.6.66.93,1a6.37,6.37,0,0,0,.53.46,3.62,3.62,0,0,1,.6.4,3,3,0,0,1,.26.68,2,2,0,0,0,.49.68,1,1,0,0,0,1.05.18,1.26,1.26,0,0,0,.45-1.24A4.84,4.84,0,0,0,54.61,67.56Z"/><path class="cls-11" d="M49.39,47.27a1.88,1.88,0,0,1,.18-.28,2.23,2.23,0,0,0,.33-.46A1.35,1.35,0,0,0,50,46V45a2.12,2.12,0,0,0,0-.91,6.42,6.42,0,0,1-1,.47,2.09,2.09,0,0,1-1.08,0,1.55,1.55,0,0,0-.54-.12c-.18,0-.38.16-.36.34,0-.06.39.12.41.14a1,1,0,0,1,.28.43,1.93,1.93,0,0,1,.14.9C48.61,46,49.11,46.58,49.39,47.27Z"/><path class="cls-11" d="M72.11,45.66a.4.4,0,0,1,.09-.29c.1-.1.27-.08.41-.1a.78.78,0,0,0,.67-.73.23.23,0,0,0-.07-.2.26.26,0,0,0-.15,0,2.47,2.47,0,0,0-.62.05.81.81,0,0,1,.17-.7,1.49,1.49,0,0,1,.25-.14.87.87,0,0,0,.4-1l-.52-.1c.05-.27.15-.59.42-.67.08,0,.17,0,.26,0,.38-.08.52-.54.54-.93a1.48,1.48,0,0,1,.31-1.08,1.27,1.27,0,0,0-.94.13,5,5,0,0,0,.28-1.52,2.45,2.45,0,0,0-.44-1.46,2,2,0,0,0-2.59-.47.83.83,0,0,0-.27.25.9.9,0,0,0-.1.46,2.88,2.88,0,0,0,.25,1.21,3.17,3.17,0,0,0,.69-.89,2.16,2.16,0,0,1,1,2.43.2.2,0,0,1,0,.09c-.1.09-.24-.07-.29-.2a1.75,1.75,0,0,0-.61-.75.4.4,0,0,0-.22-.09.37.37,0,0,0-.18.06,1.15,1.15,0,0,0-.52,1.19c.15.69.91,1.14,1,1.84l-1.13,0a.72.72,0,0,0,.16.75c.1.1.24.17.33.29a1.15,1.15,0,0,1,.15.88c0,.17-.11.4-.28.37s-.13-.09-.21-.1-.22.24-.19.41l.34,1.95A2.55,2.55,0,0,0,71.07,48a5.19,5.19,0,0,0,1.12-.41,1,1,0,0,0,.43-.34c.19-.3,0-.45-.2-.67A1.61,1.61,0,0,1,72.11,45.66Z"/><path class="cls-12" d="M72.44,44.12l-.37.21a1.21,1.21,0,0,1-1.43-.13.54.54,0,0,0,.13-.32,1.15,1.15,0,0,0-.15-.88c-.1-.11-.23-.18-.33-.29a.72.72,0,0,1-.16-.75L71,42c.31.18.39.62.74.76a.39.39,0,0,0,.32,0c.25-.1.5-.19.75-.28l.4.08a.87.87,0,0,1-.4,1,1.49,1.49,0,0,0-.25.14A.6.6,0,0,0,72.44,44.12Z"/><path class="cls-12" d="M65.57,67.56A5.16,5.16,0,0,1,66.43,66,7.55,7.55,0,0,1,69,64.17c.59-.31.59-.74.94-1.25a6.27,6.27,0,0,1,1.14-1.14,16.69,16.69,0,0,1,1.54-1.19,4.78,4.78,0,0,1,1.59-.71,7,7,0,0,1,0-1.57L74.45,55c.06-.88.39-2.09-.34-2.78-.15-.15-.35-.25-.51-.38a8.7,8.7,0,0,1-.86-1,12.25,12.25,0,0,1-1.12-1.1c-.55-.79-.41-1.93-1-2.69a2.23,2.23,0,0,1-.33-.46,1.35,1.35,0,0,1-.07-.53V45a2.12,2.12,0,0,1,0-.91,6.43,6.43,0,0,0,1,.47,2.09,2.09,0,0,0,1.08,0,1.55,1.55,0,0,1,.54-.12c.18,0,.38.16.36.34,0-.06-.39.12-.41.14a1,1,0,0,0-.28.43,1.77,1.77,0,0,0-.09,1.12,3.49,3.49,0,0,0,.47.9L74.67,50a3.83,3.83,0,0,1,.93,2,.94.94,0,0,0,0,.21.87.87,0,0,0,.12.25,5.94,5.94,0,0,1,.46,3,17.49,17.49,0,0,1-.28,3.28,7.77,7.77,0,0,1-2.21,4.26c-.34.31-.72.58-1.09.86a24,24,0,0,0-3,2.67c-.31.33-.6.66-.93,1a6.37,6.37,0,0,1-.53.46,3.62,3.62,0,0,0-.6.4,3,3,0,0,0-.26.68,2,2,0,0,1-.49.68,1,1,0,0,1-1.05.18,1.26,1.26,0,0,1-.45-1.24A4.84,4.84,0,0,1,65.57,67.56Z"/><path class="cls-11" d="M70.79,47.27a1.88,1.88,0,0,0-.18-.28,2.23,2.23,0,0,1-.33-.46,1.35,1.35,0,0,1-.07-.53V45a2.12,2.12,0,0,1,0-.91,6.42,6.42,0,0,0,1,.47,2.09,2.09,0,0,0,1.08,0,1.55,1.55,0,0,1,.54-.12c.18,0,.38.16.36.34,0-.06-.39.12-.41.14a1,1,0,0,0-.28.43,1.93,1.93,0,0,0-.14.9C71.57,46,71.07,46.58,70.79,47.27Z"/><path class="cls-12" d="M48.34,75.58c-2,.92-4.08,1.9-5.46,3.62-1.6,2-2,4.64-2.41,7.17a5.14,5.14,0,0,0,.23,3.17l1.57,4.66-1.42.63.87,1.36-.88.37a.73.73,0,0,0-.37.26c-.19.32.17.68.49.87-.27.35-.87.16-1.23.41a1.14,1.14,0,0,0-.35.52L38.82,100a.62.62,0,0,1,.67.25,2.76,2.76,0,0,0-.48,2.35,2.17,2.17,0,0,0,.51.67,1.85,1.85,0,0,0,1.93.59,1.12,1.12,0,0,0,.46-1.54l-.46.85c-.18-.51-.88-.69-1.06-1.2a1.24,1.24,0,0,1,0-.75,5.09,5.09,0,0,1,.67-1.41l.5,1.85a1.81,1.81,0,0,0,.89-1.5,5.33,5.33,0,0,0-.27-1.8l.95.31q0-1.23-.08-2.45a.77.77,0,0,0,1-.22,1.74,1.74,0,0,0,.29-1.07c0-.33,0-.66,0-1a12.42,12.42,0,0,0-.39-2.57c-.5-1.68-1.72-3.15-1.83-4.9a6.8,6.8,0,0,1,.24-2,21.27,21.27,0,0,1,1.35-3.92,1.12,1.12,0,0,1,.23-.36,1.15,1.15,0,0,1,.42-.22l2.31-.81a8.71,8.71,0,0,0,2.83-1.39c.59-.5,1.42-1.6,1.15-2.44S48.88,75.34,48.34,75.58Z"/><path class="cls-13" d="M44.08,79.78c-.06-.42-.32-1-.8-1L43,79.1a.5.5,0,0,0,.1.1c.15.1.33.15.48.26a1.24,1.24,0,0,1,.45.63L44.1,80A1.78,1.78,0,0,0,44.08,79.78Z"/><path class="cls-11" d="M44.08,96a1.74,1.74,0,0,0,.29-1.07c0-.33,0-.66,0-1l0-.31a3.27,3.27,0,0,0-.82.35,2,2,0,0,1-1.28.3l-1.36.61.62,1a1.57,1.57,0,0,1,1.54,0,1,1,0,0,1,.32.46A.85.85,0,0,0,44.08,96Z"/><path class="cls-11" d="M41.45,103.83a1.12,1.12,0,0,0,.46-1.54l-.46.85c-.18-.51-.88-.69-1.06-1.2a1.24,1.24,0,0,1,0-.75,5.09,5.09,0,0,1,.67-1.41l.5,1.85a1.81,1.81,0,0,0,.89-1.5,5.33,5.33,0,0,0-.27-1.8l.12,0,0-.1c-.29-.8-1-.49-1.57-.39-.3.12-.72,0-1,.24a1.14,1.14,0,0,0-.35.52L38.82,100a.62.62,0,0,1,.67.25,2.76,2.76,0,0,0-.48,2.35,2.17,2.17,0,0,0,.51.67A1.85,1.85,0,0,0,41.45,103.83Z"/><path class="cls-12" d="M46.83,116.57a1.12,1.12,0,0,0,.46-1.54l-.46.85c-.18-.51-.88-.69-1.06-1.2a1.24,1.24,0,0,1,0-.75,5.09,5.09,0,0,1,.67-1.41l.5,1.85a1.81,1.81,0,0,0,.89-1.5,5.33,5.33,0,0,0-.27-1.8l.95.31q0-1.23-.08-2.45a.77.77,0,0,0,1-.22,1.74,1.74,0,0,0,.29-1.07c0-.33,0-.66,0-1a12.42,12.42,0,0,0-.39-2.57c-.5-1.68-1.72-3.15-1.83-4.9a6.8,6.8,0,0,1,.24-2,21.27,21.27,0,0,1,1.35-3.92,1.12,1.12,0,0,1,.23-.36,1.15,1.15,0,0,1,.42-.22L52,91.86l.38-.13a7.16,7.16,0,0,0-1.47-2,9.75,9.75,0,0,0-2.69,2.22c-1.6,2-2,4.64-2.41,7.17a5.14,5.14,0,0,0,.23,3.17L47.64,107l-1.42.63.87,1.36-.88.37a.73.73,0,0,0-.37.26c-.19.32.17.68.49.87-.27.35-.87.16-1.23.41a1.14,1.14,0,0,0-.35.52l-.56,1.33a.62.62,0,0,1,.67.25,2.76,2.76,0,0,0-.48,2.35,2.17,2.17,0,0,0,.51.67A1.85,1.85,0,0,0,46.83,116.57Z"/><path class="cls-13" d="M49.28,92.7a1.3,1.3,0,0,1,.05.16l0,0a1.4,1.4,0,0,0-.4-1,.9.9,0,0,0-.37-.23l-.24.27a2.62,2.62,0,0,1,.69.49A1.38,1.38,0,0,1,49.28,92.7Z"/><path class="cls-11" d="M49.46,108.7a1.74,1.74,0,0,0,.29-1.07c0-.33,0-.66,0-1l0-.31a3.27,3.27,0,0,0-.82.35,2,2,0,0,1-1.28.3l-1.36.61.62,1a1.57,1.57,0,0,1,1.54,0,1,1,0,0,1,.32.46A.85.85,0,0,0,49.46,108.7Z"/><path class="cls-11" d="M46.83,116.57a1.12,1.12,0,0,0,.46-1.54l-.46.85c-.18-.51-.88-.69-1.06-1.2a1.24,1.24,0,0,1,0-.75,5.09,5.09,0,0,1,.67-1.41l.5,1.85a1.81,1.81,0,0,0,.89-1.5,5.33,5.33,0,0,0-.27-1.8l.12,0,0-.1c-.29-.8-1-.49-1.57-.39-.3.12-.72,0-1,.24a1.14,1.14,0,0,0-.35.52l-.56,1.33a.62.62,0,0,1,.67.25,2.76,2.76,0,0,0-.48,2.35,2.17,2.17,0,0,0,.51.67A1.85,1.85,0,0,0,46.83,116.57Z"/><path class="cls-12" d="M71.72,75.58c2,.92,4.08,1.9,5.46,3.62,1.6,2,2,4.64,2.41,7.17a5.14,5.14,0,0,1-.23,3.17l-1.57,4.66,1.42.63-.87,1.36.88.37a.73.73,0,0,1,.37.26c.19.32-.17.68-.49.87.27.35.87.16,1.23.41a1.14,1.14,0,0,1,.35.52l.56,1.33a.62.62,0,0,0-.67.25,2.76,2.76,0,0,1,.48,2.35,2.17,2.17,0,0,1-.51.67,1.85,1.85,0,0,1-1.93.59,1.12,1.12,0,0,1-.46-1.54l.46.85c.18-.51.88-.69,1.06-1.2a1.24,1.24,0,0,0,0-.75A5.09,5.09,0,0,0,79,99.77l-.5,1.85a1.81,1.81,0,0,1-.89-1.5,5.33,5.33,0,0,1,.27-1.8l-.95.31q0-1.23.08-2.45A.77.77,0,0,1,76,96a1.74,1.74,0,0,1-.29-1.07c0-.33,0-.66,0-1a12.42,12.42,0,0,1,.39-2.57c.5-1.68,1.72-3.15,1.83-4.9a6.8,6.8,0,0,0-.24-2,21.27,21.27,0,0,0-1.35-3.92,1.12,1.12,0,0,0-.23-.36,1.15,1.15,0,0,0-.42-.22l-2.31-.81a8.71,8.71,0,0,1-2.83-1.39c-.59-.5-1.42-1.6-1.15-2.44S71.18,75.34,71.72,75.58Z"/><path class="cls-13" d="M76,79.78c.06-.42.32-1,.8-1l.31.34a.5.5,0,0,1-.1.1c-.15.1-.33.15-.48.26a1.24,1.24,0,0,0-.45.63L76,80A1.78,1.78,0,0,1,76,79.78Z"/><path class="cls-11" d="M76,96a1.74,1.74,0,0,1-.29-1.07c0-.33,0-.66,0-1l0-.31a3.27,3.27,0,0,1,.82.35,2,2,0,0,0,1.28.3l1.36.61-.62,1a1.57,1.57,0,0,0-1.54,0,1,1,0,0,0-.32.46A.85.85,0,0,1,76,96Z"/><path class="cls-11" d="M78.61,103.83a1.12,1.12,0,0,1-.46-1.54l.46.85c.18-.51.88-.69,1.06-1.2a1.24,1.24,0,0,0,0-.75A5.09,5.09,0,0,0,79,99.77l-.5,1.85a1.81,1.81,0,0,1-.89-1.5,5.33,5.33,0,0,1,.27-1.8l-.12,0,0-.1c.29-.8,1-.49,1.57-.39.3.12.72,0,1,.24a1.14,1.14,0,0,1,.35.52l.56,1.33a.62.62,0,0,0-.67.25,2.76,2.76,0,0,1,.48,2.35,2.17,2.17,0,0,1-.51.67A1.85,1.85,0,0,1,78.61,103.83Z"/><path class="cls-12" d="M73.23,116.57a1.12,1.12,0,0,1-.46-1.54l.46.85c.18-.51.88-.69,1.06-1.2a1.24,1.24,0,0,0,0-.75,5.09,5.09,0,0,0-.67-1.41l-.5,1.85a1.81,1.81,0,0,1-.89-1.5,5.33,5.33,0,0,1,.27-1.8l-.95.31q0-1.23.08-2.45a.77.77,0,0,1-1-.22,1.74,1.74,0,0,1-.29-1.07c0-.33,0-.66,0-1a12.42,12.42,0,0,1,.39-2.57c.5-1.68,1.72-3.15,1.83-4.9a6.8,6.8,0,0,0-.24-2A21.27,21.27,0,0,0,71,93.25a1.12,1.12,0,0,0-.23-.36,1.15,1.15,0,0,0-.42-.22L68,91.86l-.38-.13a7.16,7.16,0,0,1,1.47-2,9.75,9.75,0,0,1,2.69,2.22c1.6,2,2,4.64,2.41,7.17a5.14,5.14,0,0,1-.23,3.17L72.42,107l1.42.63L73,108.95l.88.37a.73.73,0,0,1,.37.26c.19.32-.17.68-.49.87.27.35.87.16,1.23.41a1.14,1.14,0,0,1,.35.52l.56,1.33a.62.62,0,0,0-.67.25,2.76,2.76,0,0,1,.48,2.35,2.17,2.17,0,0,1-.51.67A1.85,1.85,0,0,1,73.23,116.57Z"/><path class="cls-13" d="M70.78,92.7a1.3,1.3,0,0,0-.05.16l0,0a1.4,1.4,0,0,1,.4-1,.9.9,0,0,1,.37-.23l.24.27a2.62,2.62,0,0,0-.69.49A1.38,1.38,0,0,0,70.78,92.7Z"/><path class="cls-11" d="M70.6,108.7a1.74,1.74,0,0,1-.29-1.07c0-.33,0-.66,0-1l0-.31a3.27,3.27,0,0,1,.82.35,2,2,0,0,0,1.28.3l1.36.61-.62,1a1.57,1.57,0,0,0-1.54,0,1,1,0,0,0-.32.46A.85.85,0,0,1,70.6,108.7Z"/><path class="cls-11" d="M73.23,116.57a1.12,1.12,0,0,1-.46-1.54l.46.85c.18-.51.88-.69,1.06-1.2a1.24,1.24,0,0,0,0-.75,5.09,5.09,0,0,0-.67-1.41l-.5,1.85a1.81,1.81,0,0,1-.89-1.5,5.33,5.33,0,0,1,.27-1.8l-.12,0,0-.1c.29-.8,1-.49,1.57-.39.3.12.72,0,1,.24a1.14,1.14,0,0,1,.35.52l.56,1.33a.62.62,0,0,0-.67.25,2.76,2.76,0,0,1,.48,2.35,2.17,2.17,0,0,1-.51.67A1.85,1.85,0,0,1,73.23,116.57Z"/><path class="cls-13" d="M49.89,84.37,50,88c.06,1.62,0,3.2.1,4.82a9.23,9.23,0,0,0,.18,2.23c.26.9.58,1.78.89,2.65a39.92,39.92,0,0,0,1.5,3.76,20.22,20.22,0,0,0,2.94,4.5,5.43,5.43,0,0,0,1,1,2.69,2.69,0,0,1,.61.46,2.57,2.57,0,0,1,.28.51,5.27,5.27,0,0,0,.59.9,2.7,2.7,0,0,0,1.23,1,2,2,0,0,0,1.76-.38,8.13,8.13,0,0,0,1.15-1.29c.36-.39.79-.74,1.17-1.13A23.21,23.21,0,0,0,69,96.23,58.8,58.8,0,0,0,70.35,84q.06-2.17.1-4.34c0-1.61,0-3.23-.07-4.85a19.71,19.71,0,0,0-.57-4.93c-.16-.57-.55-1.84-1.38-1.41-.51.26-.43,1-.5,1.48a18.36,18.36,0,0,1-1.71-.89.6.6,0,0,0-.42-.1,3,3,0,0,0-.28.15c-.38.15-.68-.34-1-.54-.51-.27-1.11.09-1.64.35a9,9,0,0,1-3.79.67,3.33,3.33,0,0,1-1.53-.18,10.07,10.07,0,0,0-1.34-.82,1.43,1.43,0,0,0-1.67.73.26.26,0,0,1-.11.14c-.07,0-.16,0-.23-.06-.74-.43-1.6,0-2.26.38.16-.3-.23-.9-.48-1.07a1.09,1.09,0,0,0-.94-.16L50,71.39a9.43,9.43,0,0,0,0,1.49c0,.64-.11,1.28-.14,1.91C49.66,78,49.77,81.18,49.89,84.37Z"/><path class="cls-13" d="M59.7,69.62l-.65,0a3.33,3.33,0,0,1-1.53-.18,10.07,10.07,0,0,0-1.34-.82,1.43,1.43,0,0,0-1.67.73.26.26,0,0,1-.11.14c-.07,0-.16,0-.23-.06-.74-.43-1.6,0-2.26.38.16-.3-.23-.9-.48-1.07a1.09,1.09,0,0,0-.94-.16L50,71.39a9.43,9.43,0,0,0,0,1.49c0,.64-.11,1.28-.14,1.91-.18,3.19-.06,6.38.05,9.57L50,88c.06,1.62,0,3.2.1,4.82a9.23,9.23,0,0,0,.18,2.23c.26.9.58,1.78.89,2.65a39.93,39.93,0,0,0,1.5,3.76,20.22,20.22,0,0,0,2.94,4.5,5.43,5.43,0,0,0,1,1,2.69,2.69,0,0,1,.61.46,2.57,2.57,0,0,1,.28.51,5.27,5.27,0,0,0,.59.9,2.69,2.69,0,0,0,1.23,1,1.54,1.54,0,0,0,.32.06Z"/><path class="cls-13" d="M62.84,69a6.85,6.85,0,0,1-2.59.61v40.25a2.39,2.39,0,0,0,.88-.4,8.13,8.13,0,0,0,1.15-1.29c.36-.39.79-.74,1.17-1.13A23.21,23.21,0,0,0,69,96.23,58.8,58.8,0,0,0,70.35,84q.06-2.17.1-4.34c0-1.61,0-3.23-.07-4.85a19.71,19.71,0,0,0-.57-4.93c-.16-.57-.55-1.84-1.38-1.41-.51.26-.43,1-.5,1.48a18.36,18.36,0,0,1-1.71-.89.6.6,0,0,0-.42-.1,3,3,0,0,0-.28.15c-.38.15-.68-.34-1-.54C64,68.34,63.36,68.71,62.84,69Z"/><path class="cls-8" d="M58.09,107.75a1.72,1.72,0,0,0,.36-.07.09.09,0,0,1,.07,0,1.88,1.88,0,0,0,1.18-.83V69.62l-.65,0a3.33,3.33,0,0,1-1.53-.18,10.07,10.07,0,0,0-1.34-.82,1.43,1.43,0,0,0-1.67.73.26.26,0,0,1-.11.14c-.07,0-.16,0-.23-.06-.74-.43-1.6,0-2.26.38.16-.3-.23-.9-.48-1.07a1.09,1.09,0,0,0-.94-.16L50,71.39a9.44,9.44,0,0,0,0,1.49c0,.64-.11,1.28-.14,1.91-.18,3.19-.06,6.38.05,9.57L50,88c.06,1.62,0,3.2.1,4.82a9.23,9.23,0,0,0,.18,2.23c.26.9.58,1.78.89,2.65a39.94,39.94,0,0,0,1.5,3.76,20.22,20.22,0,0,0,2.94,4.5,5.43,5.43,0,0,0,1,1l.23.15a2.24,2.24,0,0,0,.51-.12h0l.27-.24a2,2,0,0,0,.5-.92,6,6,0,0,0,.14-2.39,16.19,16.19,0,0,0-1.25-4.48c-1.2-2.92-2.63-5.72-3.25-8.84-.3-1.54-.68-3-.88-4.61s-.3-3.23-.45-4.84-.29-3.18-.32-4.78q0-1.16,0-2.33c0-.77.18-1.53.16-2.3a.09.09,0,0,1,.18,0,10.53,10.53,0,0,1-.14,1.32,10.54,10.54,0,0,0,0,1.15c0,.81,0,1.62,0,2.42,0,1.69.21,3.36.36,5,.13,1.5.23,3,.43,4.5s.58,3,.88,4.55a43.7,43.7,0,0,0,3.08,8.35c1,2.31,2.06,5.27,1.08,7.75-.16.41-.51.61-.8.91a.52.52,0,0,0,.66.52Z"/><path class="cls-8" d="M60.31,106.13a2.66,2.66,0,0,0,.18.9,2.26,2.26,0,0,0,1.34.57c.21,0,.86.14.8-.28,0-.17-.36-.36-.47-.51a3.49,3.49,0,0,1-.53-1.66,8.79,8.79,0,0,1,0-2.2,18.53,18.53,0,0,1,.94-3.75,23.48,23.48,0,0,1,1.67-3.34A15.76,15.76,0,0,0,65.6,92.1,37,37,0,0,0,66.47,88c.2-1.44.28-2.88.42-4.32s.34-2.84.48-4.26.17-2.8.23-4.21.12-2.87.12-4.31a.09.09,0,0,1,.18,0,89.58,89.58,0,0,1-.53,10.25c-.18,1.51-.33,3-.46,4.53a31.92,31.92,0,0,1-.61,4.34c-.16.73-.36,1.45-.54,2.17s-.31,1.4-.56,2.08a36.08,36.08,0,0,1-1.83,3.55A17.65,17.65,0,0,0,62,102a10.52,10.52,0,0,0-.25,2.32,4.72,4.72,0,0,0,.47,2.28c.12.21.48.44.59.7a.44.44,0,0,0,.39,0l.24-.23A23.21,23.21,0,0,0,69,96.23,58.8,58.8,0,0,0,70.35,84q.06-2.17.1-4.34c0-1.61,0-3.23-.07-4.85a19.71,19.71,0,0,0-.57-4.93c-.16-.57-.55-1.84-1.38-1.41-.51.26-.43,1-.5,1.48a18.36,18.36,0,0,1-1.71-.89.6.6,0,0,0-.42-.1,3,3,0,0,0-.28.15c-.38.15-.68-.34-1-.54-.51-.27-1.11.09-1.64.35a6.85,6.85,0,0,1-2.59.61V106A.09.09,0,0,1,60.31,106.13Z"/><path class="cls-14" d="M59.7,106.72a2.48,2.48,0,0,1-1.09.77,3.1,3.1,0,0,1-1.2.13l.15.3a5.27,5.27,0,0,0,.59.9,2.69,2.69,0,0,0,1.23,1,1.54,1.54,0,0,0,.32.06Z"/><path class="cls-14" d="M61.45,107.67a3.45,3.45,0,0,1-1.2-1.07v3.23a2.39,2.39,0,0,0,.88-.4,8.13,8.13,0,0,0,1.15-1.29l.24-.24A2.64,2.64,0,0,1,61.45,107.67Z"/><path class="cls-14" d="M57.91,69.59c-.05,3.75-.1,8.07,1.79,11.39V69.62l-.65,0A5,5,0,0,1,57.91,69.59Z"/><path class="cls-14" d="M61.77,74.94c0-1.89.21-3.77.26-5.66a8.38,8.38,0,0,1-1.77.3V80.92A9.84,9.84,0,0,0,61.77,74.94Z"/><path class="cls-15" d="M57.89,71.66a3.47,3.47,0,0,0,.74,1,2.16,2.16,0,0,0,1.07.54V69.62l-.65,0a5,5,0,0,1-1.14,0C57.9,70.26,57.89,71,57.89,71.66Z"/><path class="cls-16" d="M60.25,73.21a1.57,1.57,0,0,0,.64-.23,4.54,4.54,0,0,0,1-1.08c.05-.87.11-1.75.13-2.62a8.38,8.38,0,0,1-1.77.3Z"/><path class="cls-17" d="M54.33,75.55a2.36,2.36,0,0,1,.15-.19.55.55,0,0,1,.41-.11,1.23,1.23,0,0,1,1,1.74c-.08.17-.19.32-.27.49a1.39,1.39,0,0,0-.1.9.74.74,0,0,1,0,.38c-.07.23-.38.28-.62.26s-.54,0-.68.16-.07.15-.11.21a.54.54,0,0,1-.79,0,1.44,1.44,0,0,1-.34-.82,12.46,12.46,0,0,1-.18-2.38C52.9,75.08,53.82,76.12,54.33,75.55Z"/><path class="cls-18" d="M53.72,80.24a.43.43,0,0,1,.12-.14.39.39,0,0,1,.2,0,2.47,2.47,0,0,1,1.28.28.93.93,0,0,1,.41.36,1.14,1.14,0,0,1,.09.54v1.16a.53.53,0,0,1-.15.45.52.52,0,0,1-.19.07,3.56,3.56,0,0,1-.76.1,1.79,1.79,0,0,1-1.15-.44,1.1,1.1,0,0,1-.23-.27C52.9,81.56,53.35,80.85,53.72,80.24Z"/><path class="cls-19" d="M53.55,83.79a.32.32,0,0,1,.07-.23.29.29,0,0,1,.14-.06,1.21,1.21,0,0,1,.74.08,5.32,5.32,0,0,0,.77.41.43.43,0,0,1,.25.11.34.34,0,0,1,0,.22l0,.65a1.06,1.06,0,0,1-.09.49.86.86,0,0,1-.43.34,1.37,1.37,0,0,1-1,.08C53.28,85.61,53.52,84.43,53.55,83.79Z"/><path class="cls-20" d="M54.21,86.63a.26.26,0,0,1,.07-.14.27.27,0,0,1,.18,0h.38a1,1,0,0,1,.58.11.72.72,0,0,1,.23.72c0,.26-.17.51-.23.76a5.51,5.51,0,0,1-.28,1.33.36.36,0,0,1-.15.16c-.15.07-.33-.06-.43-.19A3.2,3.2,0,0,1,54.21,86.63Z"/><path class="cls-21" d="M55.6,92.1a.86.86,0,0,1,.2-.47.77.77,0,0,1,.76-.06.56.56,0,0,1,.3.18c.15.21,0,.52.08.76s.18.22.26.33a.72.72,0,0,1,0,.73,2.19,2.19,0,0,1-.51.56.73.73,0,0,0-.2.24,1.55,1.55,0,0,1-.09.25.32.32,0,0,1-.34.11.6.6,0,0,1-.3-.21C55.18,93.84,55.44,92.86,55.6,92.1Z"/><path class="cls-22" d="M52.64,90.31a.43.43,0,0,1,.13-.1c.19-.08.38.13.44.33s.06.72.18,1.06.33.55.41.86a1.92,1.92,0,0,1,0,.51v.51a.26.26,0,0,1-.29.31c-1,.1-1.4-.57-1.73-1.43S52.1,90.84,52.64,90.31Z"/><path class="cls-23" d="M54.08,96.17c.45-.13.89.28,1.09.71a6,6,0,0,0,.56,1.3c.28.36.76.58.89,1s-.1.9.1,1.29a2,2,0,0,1,.24.42c.06.27-.16.53-.12.81s.49.49.72.77a1.57,1.57,0,0,1,.18,1.23l-.22,1.72c0,.31-.11.67-.39.81a.21.21,0,0,1-.21,0,.24.24,0,0,1-.08-.13c-.19-.54-.14-1.15-.35-1.68-.32-.8-1.2-1.31-1.38-2.15s.24-1.44.15-2.16a.32.32,0,0,0-.09-.22.42.42,0,0,0-.22-.06,1.07,1.07,0,0,1-.89-.86,2.7,2.7,0,0,0-.12-.79c-.18-.34-.47-.51-.48-.92A1.08,1.08,0,0,1,54.08,96.17Z"/><path class="cls-24" d="M65.86,75.55a2.36,2.36,0,0,0-.15-.19.55.55,0,0,0-.41-.11,1.23,1.23,0,0,0-1,1.74c.08.17.19.32.27.49a1.39,1.39,0,0,1,.1.9.74.74,0,0,0,0,.38c.07.23.38.28.62.26s.54,0,.68.16.07.15.11.21a.54.54,0,0,0,.79,0,1.44,1.44,0,0,0,.34-.82,12.46,12.46,0,0,0,.18-2.38C67.3,75.08,66.37,76.12,65.86,75.55Z"/><path class="cls-25" d="M66.47,80.24a.43.43,0,0,0-.12-.14.39.39,0,0,0-.2,0,2.47,2.47,0,0,0-1.28.28.93.93,0,0,0-.41.36,1.14,1.14,0,0,0-.09.54v1.16a.53.53,0,0,0,.15.45.52.52,0,0,0,.19.07,3.56,3.56,0,0,0,.76.1,1.79,1.79,0,0,0,1.15-.44,1.1,1.1,0,0,0,.23-.27C67.29,81.56,66.84,80.85,66.47,80.24Z"/><path class="cls-26" d="M66.64,83.79a.32.32,0,0,0-.07-.23.29.29,0,0,0-.14-.06,1.21,1.21,0,0,0-.74.08,5.32,5.32,0,0,1-.77.41.43.43,0,0,0-.25.11.34.34,0,0,0,0,.22l0,.65a1.06,1.06,0,0,0,.09.49.86.86,0,0,0,.43.34,1.37,1.37,0,0,0,1,.08C66.91,85.61,66.68,84.43,66.64,83.79Z"/><path class="cls-27" d="M66,86.63a.26.26,0,0,0-.07-.14.27.27,0,0,0-.18,0h-.38a1,1,0,0,0-.58.11.72.72,0,0,0-.23.72c0,.26.17.51.23.76a5.51,5.51,0,0,0,.28,1.33.36.36,0,0,0,.15.16c.15.07.33-.06.43-.19A3.2,3.2,0,0,0,66,86.63Z"/><path class="cls-28" d="M64.6,92.1a.86.86,0,0,0-.2-.47.77.77,0,0,0-.76-.06.56.56,0,0,0-.3.18c-.15.21,0,.52-.08.76s-.18.22-.26.33a.72.72,0,0,0,0,.73,2.19,2.19,0,0,0,.51.56.73.73,0,0,1,.2.24,1.55,1.55,0,0,0,.09.25.32.32,0,0,0,.34.11.6.6,0,0,0,.3-.21C65,93.84,64.76,92.86,64.6,92.1Z"/><path class="cls-29" d="M67.56,90.31a.43.43,0,0,0-.13-.1c-.19-.08-.38.13-.44.33s-.06.72-.18,1.06-.33.55-.41.86a1.92,1.92,0,0,0,0,.51v.51a.26.26,0,0,0,.29.31c1,.1,1.4-.57,1.73-1.43S68.1,90.84,67.56,90.31Z"/><path class="cls-30" d="M66.12,96.17c-.45-.13-.89.28-1.09.71a6,6,0,0,1-.56,1.3c-.28.36-.76.58-.89,1s.1.9-.1,1.29a2,2,0,0,0-.24.42c-.06.27.16.53.12.81s-.49.49-.72.77a1.57,1.57,0,0,0-.18,1.23l.22,1.72c0,.31.11.67.39.81a.21.21,0,0,0,.21,0,.24.24,0,0,0,.08-.13c.19-.54.14-1.15.35-1.68.32-.8,1.2-1.31,1.38-2.15s-.24-1.44-.15-2.16a.32.32,0,0,1,.09-.22.42.42,0,0,1,.22-.06,1.07,1.07,0,0,0,.89-.86,2.7,2.7,0,0,1,.12-.79c.18-.34.47-.51.48-.92A1.08,1.08,0,0,0,66.12,96.17Z"/><path class="cls-12" d="M56.69,54.29a4.11,4.11,0,0,0,.89-.1,1.92,1.92,0,0,1,1.78.41c.21.24.37.6.69.59s.49-.52.8-.74a1,1,0,0,1,.53-.14,4,4,0,0,0,1.6-.09,1.15,1.15,0,0,0-.21-2.17,1.84,1.84,0,0,0-1.38.36,11.53,11.53,0,0,1-1.21.82.38.38,0,0,1-.19.05.43.43,0,0,1-.22-.11A6,6,0,0,0,58,52.28a2.86,2.86,0,0,0-1.06-.16,1.52,1.52,0,0,0-1.14.62.53.53,0,0,0,0,.39l0,.24a.62.62,0,0,0,0,.13,1.12,1.12,0,0,1,.13.31c0,.1,0,.14.06.23A1,1,0,0,0,56.69,54.29Z"/><path class="cls-13" d="M55.65,51.71a1.4,1.4,0,0,0-.27.11,6.64,6.64,0,0,0-1.1,1,4.94,4.94,0,0,1-2.09.91,3.94,3.94,0,0,0-1,.59L50,55l-1.38.87a4,4,0,0,0-.63.41c-.18.17-.37.31-.56.46a.57.57,0,0,1-.18.11l-.12,0a.82.82,0,0,0-.57.4,1.61,1.61,0,0,0-.11.25A8.63,8.63,0,0,1,45.77,59L42,65.52l-1,1.69-.49.85c-.13.21-.2.4-.45.5a2,2,0,0,0-.52.21.76.76,0,0,0-.26.44,2.27,2.27,0,0,0,0,.52,1.1,1.1,0,0,1-.13.72,5.75,5.75,0,0,1-.52.83q-.64,1-1.36,1.94-.35.47-.72.92c-.21.25-.35.58-.65.73a4.8,4.8,0,0,0-.51.23.16.16,0,0,0-.07.08c0,.05,0,.1,0,.15s-.19.38-.3.51-.42.43-.62.64q-.62.62-1.28,1.2c-.61.54-1.24,1.06-1.8,1.64-.24.26-.48.52-.7.8-.08.1-.14.22-.23.32s-.26.09-.43,0a19.46,19.46,0,0,1-1.15,2.06,10.12,10.12,0,0,0-.53,1c-.2.47-.34,1-.54,1.45s-.49,1-.71,1.44a4.52,4.52,0,0,0-.28.76c-.09.34-.26.62-.33,1s-.17.86-.25,1.29q-.22,1.28-.32,2.57a.6.6,0,0,0,0,.25.21.21,0,0,0,.18.15,9.28,9.28,0,0,0,.07,1.68,1.35,1.35,0,0,0,.22.66,1,1,0,0,1,.2.28.61.61,0,0,1,0,.21,4.85,4.85,0,0,0,.06,1.08,1.54,1.54,0,0,0,.07.4c.07.14.26.23.36.35a1.83,1.83,0,0,1,.24.43c.18.4.4.79.62,1.17a2.28,2.28,0,0,0,.4.56c.25.23.59.34.85.56a2.61,2.61,0,0,1,.43.48c.11.15.18.37.34.46a3,3,0,0,0,2,.42,3.22,3.22,0,0,0,1.28-.49,4.78,4.78,0,0,1,.63-.21,3.61,3.61,0,0,0,.61-.32A4.88,4.88,0,0,0,36.2,98a7.28,7.28,0,0,0,.37-1c.09-.34.13-.71.23-1a3.18,3.18,0,0,0-.27-2s-.05-.11-.1-.11-.08.08-.09.14a20.91,20.91,0,0,1-.43,2.32,8.25,8.25,0,0,1-.22.85,5.9,5.9,0,0,1-.36.82,3.85,3.85,0,0,1-2.45,2,3.77,3.77,0,0,1-3.41-1.21,7.43,7.43,0,0,1-1.67-3.35,14,14,0,0,1-.32-1.69,15,15,0,0,1,.46-6,14.85,14.85,0,0,1,2.72-5.3,1.61,1.61,0,0,1,.84-.54.29.29,0,0,0,.15-.07.26.26,0,0,0,0-.17.91.91,0,0,1,0-.4A1.78,1.78,0,0,1,32,81c.38-.38.8-.69,1.15-1.09l1.25-1.4a7.6,7.6,0,0,1,.64-.66,4.28,4.28,0,0,0,.87-.79c0-.08.08-.32.14-.37s.22,0,.33.07.28-.15.35-.31c.43-.91,1.14-1.67,1.62-2.55.15-.27.28-.55.42-.83s.2-.36.32-.53a11.27,11.27,0,0,1,1-1.28,2.89,2.89,0,0,1,.44-.48c.2-.14.46-.18.67-.31a.92.92,0,0,0,.51-.77c0-.08,0-.16,0-.24a1.1,1.1,0,0,1,.14-.36q.64-1.23,1.31-2.44c.42-.76.68-1.61,1.09-2.39a16.41,16.41,0,0,1,2-3c.31-.37.65-.72,1-1.06a2.14,2.14,0,0,1,1-.71,2.73,2.73,0,0,0,.6-.15.88.88,0,0,0,.42-.42c.07-.14.09-.31.16-.45.21-.49.81-.79,1.23-1.08h0a18.49,18.49,0,0,1,2.94-1.66,8.89,8.89,0,0,1,2-.66l.77-.15a1.82,1.82,0,0,0,.79-.32,1.31,1.31,0,0,0,.41-.74,3.36,3.36,0,0,0,0-1,1.63,1.63,0,0,0-.11-.47A1.48,1.48,0,0,0,55.65,51.71Z"/><path class="cls-31" d="M47.43,56.76c.33.07.66.13,1,.18a1.62,1.62,0,0,1,.73.23.8.8,0,0,1,.29.68c0,.14,0,.29,0,.44a4.31,4.31,0,0,1,1.11-.87h0a18.49,18.49,0,0,1,2.94-1.66,8.89,8.89,0,0,1,2-.66l.77-.15a1.82,1.82,0,0,0,.79-.32,1.31,1.31,0,0,0,.41-.74,3.36,3.36,0,0,0,0-1,1.63,1.63,0,0,0-.11-.47,1.48,1.48,0,0,0-1.73-.66,1.4,1.4,0,0,0-.27.11,6.64,6.64,0,0,0-1.1,1,4.94,4.94,0,0,1-2.09.91,3.94,3.94,0,0,0-1,.59L50,55l-1.38.87a4,4,0,0,0-.63.41c-.18.17-.37.31-.56.46Z"/><path class="cls-32" d="M46.9,58.5a1.73,1.73,0,0,0,1.2,1l.06,0a2.73,2.73,0,0,0,.6-.15.88.88,0,0,0,.42-.42,1.61,1.61,0,0,0,.08-.22c0-.17,0-.34,0-.51,0-.45,0-.86-.51-1s-1.1-.19-1.63-.32a.82.82,0,0,0-.55.4,1.61,1.61,0,0,0-.11.25l-.13.35A1.46,1.46,0,0,1,46.9,58.5Z"/><path class="cls-33" d="M40.16,70.3a1.16,1.16,0,0,1,.21.61l.13-.11c.2-.14.46-.18.67-.31a.92.92,0,0,0,.51-.77c0-.06,0-.11,0-.17l-.11-.09c-.16-.11-.34-.2-.5-.31a1.87,1.87,0,0,0-1.05-.5.09.09,0,0,1-.08,0,1.26,1.26,0,0,0-.4.17.76.76,0,0,0-.26.44,2.26,2.26,0,0,0,0,.52c0,.1,0,.19,0,.28A1,1,0,0,1,40.16,70.3Z"/><path class="cls-34" d="M36,75.34a2.22,2.22,0,0,1,0,.7c0,.37.31.54.64.56l.07-.12c.43-.91,1.14-1.67,1.62-2.55.15-.27.28-.55.42-.83s.2-.36.32-.53a11.27,11.27,0,0,1,1-1.28l.14-.17a1.33,1.33,0,0,0-.14-.62c-.18-.32-.51-.3-.82-.29a.69.69,0,0,1-.11.25,5.75,5.75,0,0,1-.52.83q-.64,1-1.36,1.94-.35.47-.72.92c-.21.25-.35.58-.65.73l-.22.09A.5.5,0,0,1,36,75.34Z"/><path class="cls-35" d="M30.36,80.49a3.55,3.55,0,0,1,.42.37,1.31,1.31,0,0,0,1,.35L32,81c.38-.38.8-.69,1.15-1.09l1.25-1.4a7.59,7.59,0,0,1,.64-.66,4.28,4.28,0,0,0,.87-.79c0-.08.08-.32.14-.37s.22,0,.33.07h.08a.78.78,0,0,1-.58-.37c-.15-.29.15-1.57-.56-1.18h0a.75.75,0,0,0,0,.12c0,.18-.19.38-.3.51s-.42.43-.62.64q-.62.62-1.28,1.2c-.61.54-1.24,1.06-1.8,1.64-.24.26-.48.52-.7.8-.08.1-.14.22-.23.32Z"/><path class="cls-36" d="M28.68,85.7a14.28,14.28,0,0,1,2-3.23,1.61,1.61,0,0,1,.84-.54.29.29,0,0,0,.15-.07.26.26,0,0,0,0-.17c0-.08,0-.18,0-.28a1.43,1.43,0,0,1-.52-.08c-.47-.17-.7-.7-1.19-.8h0a20.44,20.44,0,0,1-1.13,2,10.12,10.12,0,0,0-.53,1c-.2.47-.34,1-.54,1.45-.11.26-.24.51-.37.75A1.31,1.31,0,0,0,28.68,85.7Z"/><path class="cls-37" d="M26.81,91.76a1.18,1.18,0,0,0,.56-.58,15.25,15.25,0,0,1,.56-3.42A15.61,15.61,0,0,1,28.57,86a1.37,1.37,0,0,1-1.27,0c-.09.17-.17.34-.25.51a4.52,4.52,0,0,0-.28.76c-.09.34-.26.62-.33,1s-.17.86-.25,1.29q-.22,1.28-.32,2.57v.07A2.07,2.07,0,0,0,26.81,91.76Z"/><path class="cls-38" d="M27.54,94.24c0-.16-.05-.32-.07-.49a14.63,14.63,0,0,1-.11-2.17,1.57,1.57,0,0,1-.44.35,2.39,2.39,0,0,1-1,.4.2.2,0,0,0,.17.12,9.28,9.28,0,0,0,.07,1.68,1.63,1.63,0,0,0,.15.54A1.84,1.84,0,0,0,27.54,94.24Z"/><path class="cls-39" d="M28.12,97.15a.87.87,0,0,0,.15-.24,10.51,10.51,0,0,1-.48-1.46c-.08-.32-.15-.65-.21-1a2,2,0,0,1-1.16.4.57.57,0,0,1,.14.21.61.61,0,0,1,0,.21,4.85,4.85,0,0,0,.06,1.08,1.54,1.54,0,0,0,.07.4c.07.14.26.23.36.35a1.17,1.17,0,0,1,.15.23A.88.88,0,0,0,28.12,97.15Z"/><path class="cls-40" d="M28.35,99.19c.3-.09.83-.24,1-.53a6.09,6.09,0,0,1-1-1.52.9.9,0,0,1-.2.24,1.07,1.07,0,0,1-.86.18c.18.39.39.77.61,1.15a2.4,2.4,0,0,0,.37.54A.09.09,0,0,1,28.35,99.19Z"/><path class="cls-41" d="M30.15,100.83a2,2,0,0,0,.91-.28c.26-.19.1-.46,0-.71a4.28,4.28,0,0,1-1.54-1,2,2,0,0,1-1,.55c.23.17.5.27.73.45a2.61,2.61,0,0,1,.43.48c.11.15.18.37.34.46l.16.09Z"/><path class="cls-42" d="M32.65,100a.79.79,0,0,1,.33.34.49.49,0,0,1,0,.44l.24-.13a4.79,4.79,0,0,1,.63-.21,3.61,3.61,0,0,0,.61-.32A4.88,4.88,0,0,0,36.2,98a7.29,7.29,0,0,0,.37-1c.09-.34.13-.71.23-1a3.18,3.18,0,0,0-.27-2s-.05-.11-.1-.11-.08.08-.09.14a20.93,20.93,0,0,1-.43,2.32,8.25,8.25,0,0,1-.22.85,5.9,5.9,0,0,1-.36.82,3.85,3.85,0,0,1-2.45,2Z"/><path class="cls-43" d="M31.91,101.18a2.51,2.51,0,0,0,.63-.16.08.08,0,0,1,0,0c.18-.15.34-.35.18-.58a1,1,0,0,0-.53-.32h0a3.38,3.38,0,0,1-.93-.14c.13.24.22.49,0,.71a1.61,1.61,0,0,1-.88.36A3.11,3.11,0,0,0,31.91,101.18Z"/><path class="cls-44" d="M41.4,69.11a2.87,2.87,0,0,1,.33.22,1.84,1.84,0,0,1,.1-.21q.64-1.23,1.31-2.44c.42-.76.68-1.61,1.09-2.39a16.41,16.41,0,0,1,2-3c.31-.37.65-.72,1-1.06a3.8,3.8,0,0,1,.64-.56,1.81,1.81,0,0,1-.73-.47,2.51,2.51,0,0,1-.38-.63,1.37,1.37,0,0,0-.46-.5,9.09,9.09,0,0,1-.48.94L42,65.52l-1,1.69-.49.85a1.34,1.34,0,0,1-.29.41A3.78,3.78,0,0,1,41.4,69.11Z"/><path class="cls-13" d="M64.4,51.71a1.4,1.4,0,0,1,.27.11,6.64,6.64,0,0,1,1.1,1,4.94,4.94,0,0,0,2.09.91,3.94,3.94,0,0,1,1,.59L70,55l1.38.87a4,4,0,0,1,.63.41c.18.17.37.31.56.46a.57.57,0,0,0,.18.11l.12,0a.82.82,0,0,1,.57.4,1.61,1.61,0,0,1,.11.25A8.63,8.63,0,0,0,74.29,59l3.77,6.51,1,1.69.49.85c.13.21.2.4.45.5a2,2,0,0,1,.52.21.76.76,0,0,1,.26.44,2.27,2.27,0,0,1,0,.52,1.1,1.1,0,0,0,.13.72,5.75,5.75,0,0,0,.52.83q.64,1,1.36,1.94.35.47.72.92c.21.25.35.58.65.73a4.8,4.8,0,0,1,.51.23.16.16,0,0,1,.07.08c0,.05,0,.1,0,.15s.19.38.3.51.42.43.62.64q.62.62,1.28,1.2c.61.54,1.24,1.06,1.8,1.64.24.26.48.52.7.8.08.1.14.22.23.32s.26.09.43,0a19.46,19.46,0,0,0,1.15,2.06,10.12,10.12,0,0,1,.53,1c.2.47.34,1,.54,1.45s.49,1,.71,1.44a4.52,4.52,0,0,1,.28.76c.09.34.26.62.33,1s.17.86.25,1.29q.22,1.28.32,2.57a.6.6,0,0,1,0,.25.21.21,0,0,1-.18.15,9.28,9.28,0,0,1-.07,1.68,1.35,1.35,0,0,1-.22.66,1,1,0,0,0-.2.28.61.61,0,0,0,0,.21,4.85,4.85,0,0,1-.06,1.08,1.54,1.54,0,0,1-.07.4c-.07.14-.26.23-.36.35a1.83,1.83,0,0,0-.24.43c-.18.4-.4.79-.62,1.17a2.28,2.28,0,0,1-.4.56c-.25.23-.59.34-.85.56a2.61,2.61,0,0,0-.43.48c-.11.15-.18.37-.34.46a3,3,0,0,1-2,.42,3.22,3.22,0,0,1-1.28-.49,4.78,4.78,0,0,0-.63-.21,3.61,3.61,0,0,1-.61-.32A4.88,4.88,0,0,1,83.86,98a7.28,7.28,0,0,1-.37-1c-.09-.34-.13-.71-.23-1a3.18,3.18,0,0,1,.27-2s.05-.11.1-.11.08.08.09.14a20.91,20.91,0,0,0,.43,2.32,8.25,8.25,0,0,0,.22.85,5.9,5.9,0,0,0,.36.82,3.85,3.85,0,0,0,2.45,2,3.77,3.77,0,0,0,3.41-1.21,7.43,7.43,0,0,0,1.67-3.35,14,14,0,0,0,.32-1.69,15,15,0,0,0-.46-6,14.85,14.85,0,0,0-2.72-5.3,1.61,1.61,0,0,0-.84-.54.29.29,0,0,1-.15-.07.26.26,0,0,1,0-.17.91.91,0,0,0,0-.4A1.78,1.78,0,0,0,88,81c-.38-.38-.8-.69-1.15-1.09l-1.25-1.4a7.6,7.6,0,0,0-.64-.66,4.28,4.28,0,0,1-.87-.79c0-.08-.08-.32-.14-.37s-.22,0-.33.07-.28-.15-.35-.31c-.43-.91-1.14-1.67-1.62-2.55-.15-.27-.28-.55-.42-.83s-.2-.36-.32-.53a11.27,11.27,0,0,0-1-1.28,2.89,2.89,0,0,0-.44-.48c-.2-.14-.46-.18-.67-.31a.92.92,0,0,1-.51-.77c0-.08,0-.16,0-.24a1.1,1.1,0,0,0-.14-.36q-.64-1.23-1.31-2.44c-.42-.76-.68-1.61-1.09-2.39a16.41,16.41,0,0,0-2-3c-.31-.37-.65-.72-1-1.06a2.14,2.14,0,0,0-1-.71,2.73,2.73,0,0,1-.6-.15.88.88,0,0,1-.42-.42c-.07-.14-.09-.31-.16-.45-.21-.49-.81-.79-1.23-1.08h0a18.49,18.49,0,0,0-2.94-1.66,8.89,8.89,0,0,0-2-.66L63.81,55a1.82,1.82,0,0,1-.79-.32,1.31,1.31,0,0,1-.41-.74,3.36,3.36,0,0,1,0-1,1.63,1.63,0,0,1,.11-.47A1.48,1.48,0,0,1,64.4,51.71Z"/><path class="cls-45" d="M72.63,56.76c-.33.07-.66.13-1,.18a1.62,1.62,0,0,0-.73.23.8.8,0,0,0-.29.68c0,.14,0,.29,0,.44a4.31,4.31,0,0,0-1.11-.87h0a18.49,18.49,0,0,0-2.94-1.66,8.89,8.89,0,0,0-2-.66L63.81,55a1.82,1.82,0,0,1-.79-.32,1.31,1.31,0,0,1-.41-.74,3.36,3.36,0,0,1,0-1,1.63,1.63,0,0,1,.11-.47,1.48,1.48,0,0,1,1.73-.66,1.4,1.4,0,0,1,.27.11,6.64,6.64,0,0,1,1.1,1,4.94,4.94,0,0,0,2.09.91,3.94,3.94,0,0,1,1,.59L70,55l1.38.87a4,4,0,0,1,.63.41c.18.17.37.31.56.46Z"/><path class="cls-46" d="M73.16,58.5a1.73,1.73,0,0,1-1.2,1l-.06,0a2.73,2.73,0,0,1-.6-.15.88.88,0,0,1-.42-.42,1.61,1.61,0,0,1-.08-.22c0-.17,0-.34,0-.51,0-.45,0-.86.51-1s1.1-.19,1.63-.32a.82.82,0,0,1,.55.4,1.61,1.61,0,0,1,.11.25l.13.35A1.46,1.46,0,0,0,73.16,58.5Z"/><path class="cls-47" d="M79.9,70.3a1.16,1.16,0,0,0-.21.61l-.13-.11c-.2-.14-.46-.18-.67-.31a.92.92,0,0,1-.51-.77c0-.06,0-.11,0-.17l.11-.09c.16-.11.34-.2.5-.31a1.87,1.87,0,0,1,1.05-.5.09.09,0,0,0,.08,0,1.26,1.26,0,0,1,.4.17.76.76,0,0,1,.26.44,2.26,2.26,0,0,1,0,.52c0,.1,0,.19,0,.28A1,1,0,0,0,79.9,70.3Z"/><path class="cls-48" d="M84.06,75.34a2.22,2.22,0,0,0,0,.7c0,.37-.31.54-.64.56l-.07-.12c-.43-.91-1.14-1.67-1.62-2.55-.15-.27-.28-.55-.42-.83s-.2-.36-.32-.53a11.27,11.27,0,0,0-1-1.28l-.14-.17A1.33,1.33,0,0,1,80,70.5c.18-.32.51-.3.82-.29a.69.69,0,0,0,.11.25,5.75,5.75,0,0,0,.52.83q.64,1,1.36,1.94.35.47.72.92c.21.25.35.58.65.73l.22.09A.5.5,0,0,0,84.06,75.34Z"/><path class="cls-49" d="M89.7,80.49a3.55,3.55,0,0,0-.42.37,1.31,1.31,0,0,1-1,.35L88,81c-.38-.38-.8-.69-1.15-1.09l-1.25-1.4a7.59,7.59,0,0,0-.64-.66,4.28,4.28,0,0,1-.87-.79c0-.08-.08-.32-.14-.37s-.22,0-.33.07h-.08a.78.78,0,0,0,.58-.37c.15-.29-.15-1.57.56-1.18h0a.75.75,0,0,1,0,.12c0,.18.19.38.3.51s.42.43.62.64q.62.62,1.28,1.2c.61.54,1.24,1.06,1.8,1.64.24.26.48.52.7.8.08.1.14.22.23.32Z"/><path class="cls-50" d="M91.38,85.7a14.28,14.28,0,0,0-2-3.23,1.61,1.61,0,0,0-.84-.54.29.29,0,0,1-.15-.07.26.26,0,0,1,0-.17c0-.08,0-.18,0-.28a1.43,1.43,0,0,0,.52-.08c.47-.17.7-.7,1.19-.8h0a20.44,20.44,0,0,0,1.13,2,10.12,10.12,0,0,1,.53,1c.2.47.34,1,.54,1.45.11.26.24.51.37.75A1.31,1.31,0,0,1,91.38,85.7Z"/><path class="cls-51" d="M93.25,91.76a1.18,1.18,0,0,1-.56-.58,15.25,15.25,0,0,0-.56-3.42A15.61,15.61,0,0,0,91.49,86a1.37,1.37,0,0,0,1.27,0c.09.17.17.34.25.51a4.52,4.52,0,0,1,.28.76c.09.34.26.62.33,1s.17.86.25,1.29q.22,1.28.32,2.57v.07A2.07,2.07,0,0,1,93.25,91.76Z"/><path class="cls-52" d="M92.52,94.24c0-.16.05-.32.07-.49a14.63,14.63,0,0,0,.11-2.17,1.57,1.57,0,0,0,.44.35,2.39,2.39,0,0,0,1,.4.2.2,0,0,1-.17.12,9.28,9.28,0,0,1-.07,1.68,1.63,1.63,0,0,1-.15.54A1.84,1.84,0,0,1,92.52,94.24Z"/><path class="cls-53" d="M91.94,97.15a.87.87,0,0,1-.15-.24,10.51,10.51,0,0,0,.48-1.46c.08-.32.15-.65.21-1a2,2,0,0,0,1.16.4.57.57,0,0,0-.14.21.61.61,0,0,0,0,.21,4.85,4.85,0,0,1-.06,1.08,1.54,1.54,0,0,1-.07.4c-.07.14-.26.23-.36.35a1.17,1.17,0,0,0-.15.23A.88.88,0,0,1,91.94,97.15Z"/><path class="cls-54" d="M91.71,99.19c-.3-.09-.83-.24-1-.53a6.09,6.09,0,0,0,1-1.52.9.9,0,0,0,.2.24,1.07,1.07,0,0,0,.86.18c-.18.39-.39.77-.61,1.15a2.4,2.4,0,0,1-.37.54A.09.09,0,0,0,91.71,99.19Z"/><path class="cls-55" d="M89.91,100.83a2,2,0,0,1-.91-.28c-.26-.19-.1-.46,0-.71a4.28,4.28,0,0,0,1.54-1,2,2,0,0,0,1,.55c-.23.17-.5.27-.73.45a2.61,2.61,0,0,0-.43.48c-.11.15-.18.37-.34.46l-.16.09Z"/><path class="cls-56" d="M87.41,100a.79.79,0,0,0-.33.34.49.49,0,0,0,0,.44l-.24-.13a4.79,4.79,0,0,0-.63-.21,3.61,3.61,0,0,1-.61-.32A4.88,4.88,0,0,1,83.86,98a7.29,7.29,0,0,1-.37-1c-.09-.34-.13-.71-.23-1a3.18,3.18,0,0,1,.27-2s.05-.11.1-.11.08.08.09.14a20.93,20.93,0,0,0,.43,2.32,8.25,8.25,0,0,0,.22.85,5.9,5.9,0,0,0,.36.82,3.85,3.85,0,0,0,2.45,2Z"/><path class="cls-57" d="M88.15,101.18a2.51,2.51,0,0,1-.63-.16.08.08,0,0,0,0,0c-.18-.15-.34-.35-.18-.58a1,1,0,0,1,.53-.32h0a3.38,3.38,0,0,0,.93-.14c-.13.24-.22.49,0,.71a1.61,1.61,0,0,0,.88.36A3.11,3.11,0,0,1,88.15,101.18Z"/><path class="cls-58" d="M78.66,69.11a2.87,2.87,0,0,0-.33.22,1.84,1.84,0,0,0-.1-.21q-.64-1.23-1.31-2.44c-.42-.76-.68-1.61-1.09-2.39a16.41,16.41,0,0,0-2-3c-.31-.37-.65-.72-1-1.06a3.8,3.8,0,0,0-.64-.56,1.81,1.81,0,0,0,.73-.47,2.51,2.51,0,0,0,.38-.63,1.37,1.37,0,0,1,.46-.5,9.09,9.09,0,0,0,.48.94l3.77,6.51,1,1.69.49.85a1.34,1.34,0,0,0,.29.41A3.78,3.78,0,0,0,78.66,69.11Z"/><path class="cls-13" d="M58.62,70.79a.93.93,0,0,0,.13.28c.07.08.27.27.39.2s.18-.51.17-.72,0-.61-.05-.92h-.68A2.47,2.47,0,0,0,58.62,70.79Z"/><path class="cls-13" d="M60.61,70.75c0,.17.08.63.35.54s.18-.33.2-.44a5.79,5.79,0,0,0,.09-1.38l-.63.09A5,5,0,0,0,60.61,70.75Z"/></svg>