<svg id="Layer_1" data-name="Layer 1" xmlns="http://www.w3.org/2000/svg" viewBox="0 0 180.24 131.33"><defs><style>.cls-1{fill:#ed5d54;}.cls-2,.cls-7{fill:#d8423f;}.cls-3,.cls-5{fill:#7c0704;}.cls-3{opacity:0.35;}.cls-4{fill:#eef3cc;}.cls-5,.cls-6{opacity:0.2;}.cls-6{fill:#fff;}.cls-7{font-size:20px;font-family:Poppins-Regular, Poppins;}.cls-8{fill:#2e7d33;}.cls-9{fill:#549b41;}.cls-10{fill:#427a3b;}.cls-11{fill:#8cc442;}.cls-12{fill:#306528;}.cls-13{fill:#488839;}.cls-14{fill:#2d6e2e;}.cls-15{fill:#1c6221;}.cls-16{fill:#256c29;}.cls-17{fill:#328237;}.cls-18{fill:#2d7a37;}.cls-19{fill:#277e30;}.cls-20{fill:#73ae42;}.cls-21{fill:#6dbc46;}.cls-22{fill:#51a93a;}.cls-23{fill:#7dbd43;}.cls-24{fill:#52aa42;}.cls-25{fill:#597e31;}.cls-26{fill:#4d9a32;}.cls-27{fill:#61a43c;}.cls-28{fill:#5eb74a;}.cls-29{fill:#07762f;}.cls-30{fill:#89c041;}.cls-31{fill:#abce64;}.cls-32{fill:#89b73f;}.cls-33{fill:#7ea839;}.cls-34{fill:#7ca639;}.cls-35{fill:#81b43d;}.cls-36{fill:#7cac3a;}.cls-37{fill:#648b2f;}.cls-38{fill:#5aa645;}.cls-39{fill:#8cc844;}.cls-40{fill:#75b13a;}.cls-41{fill:#6ca235;}.cls-42{fill:#5e852d;}.cls-43{fill:#577a29;}.cls-44{fill:#5f7a2b;}.cls-45{fill:#78a939;}.cls-46{fill:#63842d;}.cls-47{fill:#b0c032;}.cls-48{fill:#4b7d32;}.cls-49{fill:#63772b;}.cls-50{fill:#66752b;}.cls-51{fill:#78c03e;}.cls-52{fill:#3a893c;}.cls-53{fill:#005f26;}.cls-54{fill:#4aa426;}.cls-55{fill:#6eb41e;}.cls-56{fill:#5f9833;}.cls-57{fill:#82c73f;}.cls-58{fill:#4b923b;}.cls-59{fill:#519c40;}.cls-60{fill:#386d2c;}.cls-61{fill:#307c33;}.cls-62{fill:#5cad41;}.cls-63{fill:#4d822c;}.cls-64{fill:#70b940;}.cls-65{fill:#396f2d;}.cls-66{fill:#3f7b33;}.cls-67{fill:#4a903b;}.cls-68{fill:#51ae44;}.cls-69{fill:#bfe18c;}.cls-70{fill:#9ec465;}</style></defs><title>50c-bug</title><path class="cls-1" d="M180.24,124v-4.25c-2.85,0-5.16-1.91-5.16-4.27s2.31-4.27,5.16-4.27v-3.92c-2.85,0-5.16-1.91-5.16-4.27s2.31-4.27,5.16-4.27V94.86c-2.85,0-5.16-1.91-5.16-4.27s2.31-4.27,5.16-4.27V82.4c-2.85,0-5.16-1.91-5.16-4.27s2.31-4.27,5.16-4.27V69.94c-2.85,0-5.16-1.91-5.16-4.27s2.31-4.27,5.16-4.27V57.47c-2.85,0-5.16-1.91-5.16-4.27s2.31-4.27,5.16-4.27V45c-2.85,0-5.16-1.91-5.16-4.27s2.31-4.27,5.16-4.27V32.54c-2.85,0-5.16-1.91-5.16-4.27S177.39,24,180.24,24V20.08c-2.85,0-5.16-1.91-5.16-4.27s2.31-4.27,5.16-4.27V7.28c-4.85,0-8.79-3.26-8.79-7.28H8.79C8.79,4,4.85,7.28,0,7.28v4.25c2.85,0,5.16,1.91,5.16,4.27S2.85,20.08,0,20.08V24c2.85,0,5.16,1.91,5.16,4.27S2.85,32.54,0,32.54v3.92c2.85,0,5.16,1.91,5.16,4.27S2.85,45,0,45v3.92c2.85,0,5.16,1.91,5.16,4.27S2.85,57.47,0,57.47v3.92c2.85,0,5.16,1.91,5.16,4.27S2.85,69.94,0,69.94v3.92c2.85,0,5.16,1.91,5.16,4.27S2.85,82.4,0,82.4v3.92c2.85,0,5.16,1.91,5.16,4.27S2.85,94.86,0,94.86v3.92c2.85,0,5.16,1.91,5.16,4.27S2.85,107.33,0,107.33v3.92c2.85,0,5.16,1.91,5.16,4.27S2.85,119.79,0,119.79V124c4.85,0,8.79,3.26,8.79,7.28H171.46C171.46,127.3,175.39,124,180.24,124Z"/><path class="cls-2" d="M175.09,65.66s0,0,0,0H5.15s0,0,0,0C5.16,68,2.85,69.94,0,69.94v3.92c2.85,0,5.16,1.91,5.16,4.27S2.85,82.4,0,82.4v3.92c2.85,0,5.16,1.91,5.16,4.27S2.85,94.87,0,94.87v3.92c2.85,0,5.16,1.91,5.16,4.27S2.85,107.33,0,107.33v3.92c2.85,0,5.16,1.91,5.16,4.27S2.85,119.79,0,119.79V124c4.85,0,8.79,3.26,8.79,7.28H171.46c0-4,3.93-7.28,8.79-7.28v-4.25c-2.85,0-5.16-1.91-5.16-4.27s2.31-4.27,5.16-4.27v-3.92c-2.85,0-5.16-1.91-5.16-4.27s2.31-4.27,5.16-4.27V94.87c-2.85,0-5.16-1.91-5.16-4.27s2.31-4.27,5.16-4.27V82.4c-2.85,0-5.16-1.91-5.16-4.27s2.31-4.27,5.16-4.27V69.94C177.39,69.94,175.09,68,175.09,65.66Z"/><path class="cls-3" d="M12.38,9.37V122H167.86V9.37ZM166.73,121H13.51V10.31H166.73Z"/><rect class="cls-4" x="13.51" y="10.31" width="153.22" height="110.71"/><polygon class="cls-5" points="166.73 65.62 166.73 121.02 13.51 121.02 13.51 65.62 12.38 65.62 12.38 121.95 167.86 121.95 167.86 65.62 166.73 65.62"/><polygon class="cls-6" points="51.42 9.31 37.57 9.31 43.22 0 57.07 0 51.42 9.31"/><polygon class="cls-6" points="58.53 9.31 55.38 9.31 61.03 0 64.19 0 58.53 9.31"/><text class="cls-7" transform="translate(123.94 31.62) scale(1.01 1)">50c</text><path class="cls-8" d="M144.07,82.25s8.62-2.47,10.15-.82c0,0-3.78-1.07-9.35,1.32,0,0,.75.85,1.64,1.67,1.68,1.56,4.66,3.69,4.66,4.49l-7.31-5.75Z"/><path class="cls-9" d="M144,82.68l.13-.21.74-.22c2.12-.61,8.13-2.18,9.38-.83a6,6,0,0,0-1.69-.31,15,15,0,0,0-3.68.23A19.8,19.8,0,0,0,145,82.51l-.4.17a3.76,3.76,0,0,0,.49.64c.45.41,2.39,2.06,2.95,2.53a16.1,16.1,0,0,1,3.14,3.06l-2.43-2.14L144,83Z"/><path class="cls-10" d="M140.09,81.26s4.58.49,4.26,1.32c0,0-.22,1.81-5.35-.66Z"/><path class="cls-11" d="M139.33,81.72l.65-.24s4.44.27,4.11,1.1c0,0-.18,1.34-5-.74Z"/><path class="cls-12" d="M135.34,79.91s5,.16,4.91,1.4-2,1.32-2.51,1.15-3.93-1.81-3.93-1.81Z"/><path class="cls-11" d="M134.67,80.23l.47-.18s5,.05,4.87,1.29-1.71,1.12-2.26,1S134,80.52,134,80.52Z"/><polygon class="cls-13" points="132.83 73.95 134.25 78.18 135.87 79.53 133.79 81.43 132.12 78.34 131.19 74.28 132.83 73.95"/><polygon class="cls-11" points="132.7 73.97 134.05 78.19 135.65 79.56 133.79 81.18 133.34 80.22 132.23 78.18 131.36 74.28 132.7 73.97"/><polygon class="cls-14" points="129.5 65.72 136.29 74.76 132.3 74.83 129.72 76.33 128.23 66.03 129.5 65.72"/><polygon class="cls-11" points="129.32 65.86 135.87 74.55 132.3 74.49 129.79 76 128.45 66.11 129.32 65.86"/><path class="cls-15" d="M126.94,59.21s4.61,7.19,6.14,7.44l-4.12.08-2.7,2.47-.41-5.36-.33-4.4Z"/><path class="cls-11" d="M126.85,59.26s4.36,7.07,5.89,7.32h-3.93L126.3,69l-.65-9.62Z"/><path class="cls-16" d="M126.37,55.75s.53.75,1.31,1.71c1.35,1.67,3.44,4,4.69,4,0,0-3.71.08-6.11-1.64,0,0-1.27,3.15-2.8,3.4,0,0,1.31-5.29.44-7.18l.95-1Z"/><path class="cls-11" d="M126.26,55.8s.67.94,1.45,1.89c1.33,1.63,3.27,3.61,4.06,3.61a10.76,10.76,0,0,1-5.53-1.74s-1.2,3.07-2.66,3.51a23.87,23.87,0,0,0,.73-4.14,7.19,7.19,0,0,0-.18-3l.73-.93Z"/><path class="cls-17" d="M122.45,47.89l3.38,5.51,4,2.55s-1.2.9-4.91-.58c0,0-2.95,2.71-3.93,2.71l1.09-4.52L121,48.47Z"/><path class="cls-11" d="M122.23,47.89l3.53,5.73,3.94,2.29s-1.21.75-4.92-.73c0,0-2.64,2.78-3.62,2.78l1.15-4.4L121,48.47Z"/><path class="cls-18" d="M117.39,35.64s2.73,8.47,4.91,10.19a17.89,17.89,0,0,1,2.28,1.71c.78.73,1.3,1.49.56,1.82l-2.95-1.07L119,50l.22-3.86-3.93-10.6Z"/><path class="cls-11" d="M117.23,35.64s2.4,8.59,4.91,10.27c0,0,3.82,2.63,3,3.29L122.19,48l-2.95,1.73.44-3.62-4.09-10.56Z"/><path class="cls-19" d="M96.77,53.64c-9.8,10.15-20.56,20.64-21.82,21-4.78,1.51-12.86.25-5.31-8.82L94.8,46.37,112.92,32.6l4.8-.22h2.58a4.35,4.35,0,0,1-.82,2.58c-.68.82-2,1.48-4.24.74l-1.45-.3S105.7,44.4,96.77,53.64Z"/><path class="cls-11" d="M74.95,74.69C70.17,76.2,62.16,75,69.71,66L113,32.71l.8-.05,6.26-.16a1.84,1.84,0,0,1,0,1.18c-.37,1.25-1.62,2.94-4.69,1.89l-1.56-.27S77.35,73.92,74.95,74.69Z"/><path class="cls-20" d="M105.22,41.92c-3.55,3.32-8.34,7.74-13,12.16C90.11,56.14,86.36,59.91,83,63c-1,.94-2,1.83-2.86,2.58-.38.33-.75.62-1.09.88s-.75.54-1.08.74a5.38,5.38,0,0,1-1.61.8c-.35-.17.36-1.39,1.21-2.51.21-.28,0-4.72.71-4.8.47-.06.53,3.35.76,3.15L82,61.38c.31-.26,1.17-3.8,1.51-4.08s.19,2.64.57,2.32l2.65-2.24c.23-.19,1.15-3.6,1.38-3.79s-.23,2.82,0,2.62L91,53.78c.34-.29,1.44-2.86,1.78-3.15,0,0,0,1.68.31,1.38l2.49-2.11c.25-.21.79-2.17,1-2.38s.07,1.44.24,1.29l2.22-1.88c.22-.18.91-2.25,1.12-2.44s0,1.48.24,1.27c3.72-3.17,6.77-5.89,8.7-7.64,1.39-1.26,2.24-2.06,2.28-2.08S106.86,40.39,105.22,41.92Z"/><path class="cls-20" d="M78.59,66.68c.33-.21,6.16-.86,6.14-1.39,0-.36-4.47.21-4.25,0l2.68-2.6c.29-.28,4.75-1.55,5.06-1.85s-3.49.33-3.14,0l2.45-2.37c.21-.2,4.49-1.49,4.71-1.7s-3.64.67-3.43.47l2.66-2.56c.31-.3,3.48-1.58,3.8-1.89,0,0-2.19.33-1.86,0l2.31-2.22c.23-.22,2.69-1,2.92-1.19s-1.9.21-1.73.05l2.06-2c.2-.19,2.78-1.08,3-1.27s-1.93.26-1.71,0C106.22,40.51,77.28,67.51,78.59,66.68Z"/><path class="cls-21" d="M137.5,67.47l8.15-.52a2,2,0,0,1,1,1c.63.51.52,2.17-.17,3a2.85,2.85,0,0,1-2.53.78c-.57.33-1,1.23-1.73,1.65s-1.94,1-2.86.57c0,0-2.25,3.41-6.77,1.41,0,0-1.52,5.35-6.69,3A8.78,8.78,0,0,1,123,80.27a7.65,7.65,0,0,1-3.78.51,8.79,8.79,0,0,1-3.49-1.26s-3.06,6.16-12.66.88c0,0-5.67,6.54-12.66,1a14.37,14.37,0,0,1-8.17,1.79,11.81,11.81,0,0,1-7.83-4.3s-18,7.54-27.93-7.79l3.78-4.78,7-7.29s1.46-2.76,4.95-.75,42.48,9.3,48.88,10.56,20.08-2.51,20.08-2.51Z"/><path class="cls-22" d="M145,65.44s2.55,3.31,1.22,5.11a1.86,1.86,0,0,1-1.81.59c-.61-.08-.86-.52-.91-.44-.19.29-.26,2.71-3.46,2.13a3,3,0,0,1-1.25-.77s-2.27,5.31-6.38.89a4.32,4.32,0,0,1-.95,2.57,5.07,5.07,0,0,1-3.78,1.18,4.06,4.06,0,0,1-2.88-1.77s-3.86,6.6-10,1.35a6.24,6.24,0,0,1-4.81,3.61c-1.86.28-4.35-.1-7.65-1.89,0,0-2.65,5.12-10.13,2.05a20.87,20.87,0,0,1-2.6-1.3s-8.85,7.32-16.58-3.27c0,0-18.36,7.54-28.42-7.79l3.85-4.78,7.11-7.29s1.48-2.76,5-.75,43.22,9.3,49.74,10.56,20.43-2.51,20.43-2.51Z"/><path class="cls-23" d="M73.11,75.49S54.75,83,44.69,67.7l3.85-4.78,7.11-7.29s1.48-2.76,5-.75S66.22,66.32,73.11,75.49Z"/><path class="cls-24" d="M58.69,71.86c-1.94,2.92-4.71,4.31-8.27,1.83a21.64,21.64,0,0,1-5.74-6l3.85-4.78,7.11-7.29s1.48-2.76,5-.75C63,56.18,57.49,64.56,58.69,71.86Z"/><ellipse class="cls-25" cx="82.8" cy="72.91" rx="8.29" ry="7.54"/><path class="cls-26" d="M79.68,68.46c-1.61.94-3.21,2.64-3.21,4.51A7,7,0,0,0,77,75.59a8.73,8.73,0,0,0,.91,1.67,6,6,0,0,0,3.11,2.26A7.55,7.55,0,0,0,86.24,79a6.41,6.41,0,0,0,3.22-5.18c0-2.45-1.42-5.09-5.12-6a6.81,6.81,0,0,0-1.53-.23A6.21,6.21,0,0,0,79.68,68.46Z"/><path class="cls-27" d="M80.3,69.44c-1.31.76-2.6,2.15-2.6,3.66,0,2.37,2.36,5.43,5,5.43s5.58-2.38,5.58-4.75A4.89,4.89,0,0,0,84.08,69a5.52,5.52,0,0,0-1.25-.19A5,5,0,0,0,80.3,69.44Z"/><path class="cls-25" d="M74.51,72.91c0,2.2,3.92-1.57,8.29-1.7,3.89-.11,8.29,3.66,8.29,1.7,0-4.16-3.71-7.54-8.29-7.54S74.51,68.75,74.51,72.91Z"/><ellipse class="cls-25" cx="96.33" cy="73.89" rx="6.22" ry="5.66"/><path class="cls-26" d="M94,70.55a4.39,4.39,0,0,0-2.4,3.39,5.26,5.26,0,0,0,.42,2,6.5,6.5,0,0,0,.68,1.25A4.51,4.51,0,0,0,95,78.85a5.66,5.66,0,0,0,3.89-.39,4.81,4.81,0,0,0,2.41-3.89,4.51,4.51,0,0,0-3.84-4.47,5.1,5.1,0,0,0-1.15-.18A4.65,4.65,0,0,0,94,70.55Z"/><path class="cls-27" d="M94.45,71.28a3.56,3.56,0,0,0-2,2.75c0,1.78,1.77,4.08,3.72,4.08s4.19-1.78,4.19-3.56a3.67,3.67,0,0,0-3.12-3.63,4.14,4.14,0,0,0-.93-.14A3.78,3.78,0,0,0,94.45,71.28Z"/><path class="cls-25" d="M90.11,73.89c0,1.65,2.94-1.18,6.22-1.27,2.92-.09,6.22,2.74,6.22,1.27a6.25,6.25,0,0,0-12.44,0Z"/><ellipse class="cls-25" cx="108.55" cy="73.29" rx="6.22" ry="5.66"/><path class="cls-26" d="M106.21,70a4.39,4.39,0,0,0-2.4,3.39,5.26,5.26,0,0,0,.42,2,6.5,6.5,0,0,0,.68,1.25,4.51,4.51,0,0,0,2.33,1.7,5.66,5.66,0,0,0,3.89-.39A4.81,4.81,0,0,0,113.54,74a4.51,4.51,0,0,0-3.84-4.47,5.1,5.1,0,0,0-1.15-.18A4.65,4.65,0,0,0,106.21,70Z"/><path class="cls-27" d="M106.67,70.68a3.56,3.56,0,0,0-2,2.75c0,1.78,1.77,4.08,3.72,4.08s4.19-1.78,4.19-3.56a3.67,3.67,0,0,0-3.12-3.63,4.14,4.14,0,0,0-.93-.14A3.78,3.78,0,0,0,106.67,70.68Z"/><path class="cls-25" d="M102.33,73.29c0,1.65,2.94.35,6.22.25,2.92-.09,6.22,1.22,6.22-.25a6.25,6.25,0,0,0-12.44,0Z"/><ellipse class="cls-25" cx="119.46" cy="73.17" rx="4.7" ry="4.27"/><path class="cls-26" d="M117.7,70.64a3.32,3.32,0,0,0-1.82,2.56,4,4,0,0,0,.32,1.48,4.94,4.94,0,0,0,.52.95,3.4,3.4,0,0,0,1.76,1.28,4.28,4.28,0,0,0,2.94-.29,3.63,3.63,0,0,0,1.82-2.94,3.41,3.41,0,0,0-2.9-3.37,3.86,3.86,0,0,0-.87-.13A3.51,3.51,0,0,0,117.7,70.64Z"/><path class="cls-27" d="M118,71.2a2.69,2.69,0,0,0-1.48,2.08,3.28,3.28,0,0,0,2.81,3.08c1.48,0,3.16-1.35,3.16-2.69a2.77,2.77,0,0,0-2.36-2.74,3.12,3.12,0,0,0-.71-.11A2.85,2.85,0,0,0,118,71.2Z"/><path class="cls-25" d="M114.77,73.16c0,1.25,2.31.49,4.79.42,2.2-.06,4.61.69,4.61-.42a4.72,4.72,0,0,0-9.4,0Z"/><ellipse class="cls-25" cx="128.3" cy="72.63" rx="4.04" ry="3.68"/><path class="cls-26" d="M126.78,70.46a2.86,2.86,0,0,0-1.56,2.2,3.42,3.42,0,0,0,.27,1.28,4.27,4.27,0,0,0,.45.82,2.93,2.93,0,0,0,1.52,1.1A3.69,3.69,0,0,0,130,75.6a3.13,3.13,0,0,0,1.57-2.53,2.94,2.94,0,0,0-2.5-2.9,3.32,3.32,0,0,0-.75-.11A3,3,0,0,0,126.78,70.46Z"/><path class="cls-27" d="M127.08,70.94a2.32,2.32,0,0,0-1.27,1.79,2.82,2.82,0,0,0,2.42,2.65c1.27,0,2.72-1.16,2.72-2.31a2.38,2.38,0,0,0-2-2.36,2.68,2.68,0,0,0-.61-.09A2.46,2.46,0,0,0,127.08,70.94Z"/><path class="cls-25" d="M127.36,69.05a3.77,3.77,0,0,0-3.1,3.58c0,1.08,1.8.5,3.94.44.91,0,4.15.06,4.15-.44a3.87,3.87,0,0,0-4-3.68A4.45,4.45,0,0,0,127.36,69.05Z"/><ellipse class="cls-25" cx="135.37" cy="71.25" rx="3.23" ry="2.93"/><path class="cls-26" d="M134.15,69.52a2.28,2.28,0,0,0-1.25,1.76,2.73,2.73,0,0,0,.22,1,3.41,3.41,0,0,0,.36.65,2.34,2.34,0,0,0,1.21.88,2.94,2.94,0,0,0,2-.2,2.49,2.49,0,0,0,1.25-2,2.34,2.34,0,0,0-2-2.32,2.64,2.64,0,0,0-.6-.09A2.41,2.41,0,0,0,134.15,69.52Z"/><path class="cls-27" d="M134.4,69.9a1.85,1.85,0,0,0-1,1.43,2.06,2.06,0,0,0,4.1.27,1.9,1.9,0,0,0-1.62-1.88,2.14,2.14,0,0,0-.48-.07A2,2,0,0,0,134.4,69.9Z"/><path class="cls-25" d="M132.14,71.25c0,.86,1.5.6,3.2.55,1.51,0,3.26.21,3.26-.55a3.24,3.24,0,0,0-6.45,0Z"/><ellipse class="cls-25" cx="140.93" cy="70.31" rx="2.5" ry="2.27"/><path class="cls-26" d="M140,69a1.77,1.77,0,0,0-1,1.36,2.11,2.11,0,0,0,.17.79,2.66,2.66,0,0,0,.28.5,1.81,1.81,0,0,0,.94.68,2.28,2.28,0,0,0,1.56-.16,1.93,1.93,0,0,0,1-1.56,1.81,1.81,0,0,0-1.54-1.8,2.05,2.05,0,0,0-.46-.07A1.87,1.87,0,0,0,140,69Z"/><path class="cls-27" d="M140.18,69.26a1.43,1.43,0,0,0-.79,1.11,1.59,1.59,0,0,0,3.18.21,1.47,1.47,0,0,0-1.25-1.46,1.66,1.66,0,0,0-.38-.06A1.52,1.52,0,0,0,140.18,69.26Z"/><path class="cls-25" d="M138.43,70.31c0,.66.66.35,2,.31.52,0,1.12-.29,1.69-.28s1.33.3,1.33,0a2.51,2.51,0,0,0-5,0Z"/><path class="cls-25" d="M144.21,67.83A1.65,1.65,0,0,0,143,69.36a1.8,1.8,0,0,0,3.58,0,2.06,2.06,0,0,0-.18-1.16,2.08,2.08,0,0,0-1.61-.47A2,2,0,0,0,144.21,67.83Z"/><path class="cls-26" d="M144.13,68.4a1.27,1.27,0,0,0-.69,1,1.52,1.52,0,0,0,.12.57,1.91,1.91,0,0,0,.2.36,1.3,1.3,0,0,0,.67.49,1.63,1.63,0,0,0,1.12-.11,1.39,1.39,0,0,0,.7-1.12,1.3,1.3,0,0,0-1.11-1.29,1.48,1.48,0,0,0-.33-.05A1.34,1.34,0,0,0,144.13,68.4Z"/><path class="cls-27" d="M144.27,68.61a1,1,0,0,0-.56.79,1.14,1.14,0,0,0,2.28.15,1.06,1.06,0,0,0-.9-1,1.19,1.19,0,0,0-.27,0A1.09,1.09,0,0,0,144.27,68.61Z"/><path class="cls-25" d="M143.52,68a1.56,1.56,0,0,0-.29,1.5c.08.25.31.19.64,0a7.09,7.09,0,0,1,1.11-.46c.81-.22,1.58-.24,1.54-.62a.85.85,0,0,0-.35-.63,2,2,0,0,0-1.72-.4A1.74,1.74,0,0,0,143.52,68Z"/><path class="cls-28" d="M27.71,57.44a23.26,23.26,0,0,1,11-25.58s-13,6-10.36,24.91Z"/><path class="cls-28" d="M56.92,37.1a36.33,36.33,0,0,0-19.4,6.52c-4,3-10.18,9.56-9.83,13.6A34.27,34.27,0,0,1,56.92,37.1Z"/><path class="cls-29" d="M59.82,53.75s6.73-.34,17.09-.19c13,.19,31.35.82,48.37,1.57A172,172,0,0,0,160.49,53s-1.15,8.39-11.57,13.95c-9.81,5.24-28.87,8.93-63.72,3.2C85.2,70.15,57.27,64.68,59.82,53.75Z"/><path class="cls-30" d="M59.82,53.75s79.14,5,99.8-.5c0,0-2.33,27.9-74.2,16.09C85.42,69.33,56.32,61.29,59.82,53.75Z"/><path class="cls-31" d="M98.72,62.43c-1-.59-1.69-1.25-1.39-1.9,0,0,32.11-1.84,37.19-3.2,0,0-13.21,9.94-30.89,7A25.52,25.52,0,0,1,98.72,62.43Z"/><path class="cls-32" d="M59.82,53.75s8.08,9.42,33,10.62c15.27.73,37.11,2.76,66.79-11.12,0,0-1.25,15-30.37,18.36-10.54,1.2-24.73.87-43.83-2.27C85.42,69.33,56.32,61.29,59.82,53.75Z"/><path class="cls-33" d="M69.16,64.21c-5.89-3-10.92-7.06-9.35-10.46,0,0,10.72,10.68,35.64,11.88,2.14.1,10.09,1.65,18.62,2.2,5.52.35,27.66,1.17,27.58,1.24a8.91,8.91,0,0,1-2.11.63,76.07,76.07,0,0,1-10.3,1.91,126,126,0,0,1-23,.24C100.06,71.41,81.82,70.71,69.16,64.21Z"/><path class="cls-34" d="M78.07,63.19c-8.17-2.24-14.12-5-16.65-7.28-1-.87-2-1.37-1.6-2.17,0,0,8.8,9.24,33,11.31,6.64.57,15,.32,24.78-.18a110.93,110.93,0,0,0,31.74-6.17,51,51,0,0,0,6.14-2.85,25.4,25.4,0,0,0,4.12-2.61s-6.67,8.31-35.79,11.62C117.31,65.61,96.4,68.23,78.07,63.19Z"/><path class="cls-35" d="M62.14,58.27a3.46,3.46,0,0,1-2.33-4.52s79.14,5,99.8-.5c0,0,1.31,2.2-24.88,4.65C125.28,58.78,75.49,63,62.14,58.27Z"/><path class="cls-36" d="M123.17,55.82c1.66,1.38-12,3.89-20.51,4.26-16.12.69-33.44.7-40.52-1.81a3.46,3.46,0,0,1-2.33-4.52s20.22.34,40.24.93C103.54,54.79,123,55.67,123.17,55.82Z"/><path class="cls-37" d="M87.82,59.59c30.77-.75,35.25-3.85,35.35-3.77,1.66,1.38-12,3.89-20.51,4.26-16.12.69-33.44.7-40.52-1.81a4.19,4.19,0,0,1-1.36-.77C60.19,57,73.32,59.95,87.82,59.59Z"/><path class="cls-28" d="M29.41,54.63s-5.6,4.08.51,10.24c0,0,7.49,5.47,8.8,8.17A1.7,1.7,0,0,0,41,71.91a3.31,3.31,0,0,0,3.2-2.37s1.76-4.35,1.68-6.65c-.09-2.61-2.24-6.2-10.92-9.71A5.66,5.66,0,0,0,29.41,54.63Z"/><path class="cls-38" d="M37.27,65.12c-1.38,2.68-8-.92-7.35-.25,0,0,7.49,5.47,8.8,8.17A1.7,1.7,0,0,0,41,71.91a3.31,3.31,0,0,0,3.2-2.37s1.76-4.35,1.68-6.65c-.09-2.61-2.24-6.2-10.92-9.71C34.94,53.18,38.72,62.29,37.27,65.12Z"/><path class="cls-39" d="M41.54,57.43a17.74,17.74,0,0,0-2.6-1.88A33.37,33.37,0,0,0,32.55,53a124.31,124.31,0,0,1,18.38-.22,77.8,77.8,0,0,1,9,.85,14.52,14.52,0,0,0,1.78.18c.3,0,.61.06.93.12,0,0-.13,6.14-6.24,7.09,0,0,1.38,8-10,10.09L43.9,69.91A9.92,9.92,0,0,0,41.54,57.43Z"/><path class="cls-40" d="M41.54,57.43a17.74,17.74,0,0,0-2.6-1.88A33.37,33.37,0,0,0,32.55,53a131.18,131.18,0,0,1,15.12-.41c1.09,0,2.19.1,3.27.19.77.06,4,.22,6.47.45a14.34,14.34,0,0,1,2.95.49.47.47,0,0,1,.24.36c.24,1.39-4.63,4.47-5.72,6.83a23.85,23.85,0,0,1-8.44,10.18L43.9,69.91A9.92,9.92,0,0,0,41.54,57.43Z"/><path class="cls-41" d="M41.54,57.43a17.74,17.74,0,0,0-2.6-1.88A33.37,33.37,0,0,0,32.55,53s5.67-.42,10.76-.49c3.71-.05,7.17.23,7.63.27.77.06,4,.22,6.47.45,1.48.14-15.52-2.5-11,17.86L43.9,69.91A9.92,9.92,0,0,0,41.54,57.43Z"/><path class="cls-8" d="M139.7,89.57s8.62-2.83,10.15-.94c0,0-3.78-1.23-9.35,1.51,0,0,.75,1,1.64,1.92,1.68,1.78,4.66,4.23,4.66,5.15l-7.31-6.6Z"/><path class="cls-9" d="M139.6,90.06l.13-.24.74-.25c2.12-.7,8.13-2.5,9.38-.95a5.29,5.29,0,0,0-1.69-.35,13.15,13.15,0,0,0-3.68.26,18,18,0,0,0-3.85,1.34l-.4.19a4.36,4.36,0,0,0,.49.73c.45.47,2.39,2.37,2.95,2.9a17.49,17.49,0,0,1,3.14,3.51l-2.43-2.45-4.72-4.34Z"/><path class="cls-10" d="M135.72,88.43s4.58.57,4.26,1.51c0,0-.22,2.07-5.35-.75Z"/><path class="cls-11" d="M135,89l.65-.27s4.44.31,4.11,1.26c0,0-.18,1.54-5-.85Z"/><path class="cls-12" d="M131,86.88s5,.19,4.91,1.6-2,1.51-2.51,1.32-3.93-2.07-3.93-2.07Z"/><path class="cls-11" d="M130.3,87.25l.47-.2s5,.06,4.87,1.48-1.71,1.29-2.26,1.1-3.71-2-3.71-2Z"/><polygon class="cls-13" points="128.47 80.05 129.88 84.9 131.5 86.45 129.43 88.62 127.76 85.09 126.83 80.42 128.47 80.05"/><polygon class="cls-11" points="128.34 80.08 129.68 84.92 131.28 86.49 129.43 88.34 128.98 87.25 127.87 84.9 126.99 80.42 128.34 80.08"/><polygon class="cls-14" points="125.14 70.61 131.93 80.97 127.94 81.06 125.35 82.78 123.87 70.97 125.14 70.61"/><polygon class="cls-11" points="124.96 70.78 131.5 80.74 127.94 80.67 125.43 82.4 124.08 71.06 124.96 70.78"/><path class="cls-15" d="M122.57,63.15s4.61,8.25,6.14,8.53l-4.12.09-2.7,2.83-.41-6.15-.33-5Z"/><path class="cls-11" d="M122.48,63.21s4.36,8.11,5.89,8.39h-3.93l-2.51,2.83-.65-11Z"/><path class="cls-16" d="M122,59.18s.53.86,1.31,2c1.35,1.92,3.44,4.55,4.69,4.55,0,0-3.71.09-6.11-1.89,0,0-1.27,3.61-2.8,3.9,0,0,1.31-6.06.44-8.23l.95-1.13Z"/><path class="cls-11" d="M121.89,59.24s.67,1.08,1.45,2.17c1.33,1.87,3.27,4.15,4.06,4.15a9.75,9.75,0,0,1-5.53-2s-1.2,3.52-2.66,4a31,31,0,0,0,.73-4.74,9.41,9.41,0,0,0-.18-3.42l.73-1.07Z"/><path class="cls-17" d="M118.08,50.17l3.38,6.32,4,2.92s-1.2,1-4.91-.66c0,0-2.95,3.11-3.93,3.11l1.09-5.18-1.09-5.84Z"/><path class="cls-11" d="M117.86,50.17l3.53,6.57,3.94,2.62s-1.21.86-4.92-.83c0,0-2.64,3.19-3.62,3.19l1.15-5-1.27-5.84Z"/><path class="cls-18" d="M113,36.12s2.73,9.71,4.91,11.69a18.25,18.25,0,0,1,2.28,2c.78.84,1.3,1.71.56,2.09l-2.95-1.23-3.16,2,.22-4.43L111,36Z"/><path class="cls-11" d="M112.86,36.12s2.4,9.85,4.91,11.78c0,0,3.82,3,3,3.77l-2.95-1.37-2.95,2,.44-4.15L111.23,36Z"/><path class="cls-19" d="M92.4,56.76C82.6,68.4,71.84,80.44,70.58,80.89c-4.78,1.74-12.86.29-5.31-10.12L90.44,48.42l18.11-15.79,4.8-.25h2.58a5.55,5.55,0,0,1-.82,3c-.68.94-2,1.7-4.24.84l-1.45-.35S101.33,46.16,92.4,56.76Z"/><path class="cls-11" d="M70.58,80.89c-4.78,1.74-12.78.41-5.24-10l43.25-38.14.8-.06,6.26-.19a2.41,2.41,0,0,1,0,1.35C115.28,35.3,114,37.23,111,36l-1.56-.31S73,80,70.58,80.89Z"/><path class="cls-20" d="M100.86,43.32c-3.55,3.81-8.34,8.87-13,13.94-2.15,2.36-5.9,6.68-9.22,10.24-1,1.08-2,2.09-2.86,3-.38.38-.75.71-1.09,1s-.75.61-1.08.85a5.09,5.09,0,0,1-1.61.91c-.35-.19.36-1.6,1.21-2.88.21-.32,0-5.41.71-5.51.47-.06.53,3.84.76,3.61l2.91-2.81c.31-.3,1.17-4.35,1.51-4.68s.19,3,.57,2.66l2.65-2.57c.23-.22,1.15-4.13,1.38-4.35s-.23,3.23,0,3l2.87-2.78c.34-.33,1.44-3.28,1.78-3.62,0,0,0,1.93.31,1.58l2.49-2.42c.25-.24.79-2.49,1-2.73s.07,1.66.24,1.48l2.22-2.16c.22-.21.91-2.58,1.12-2.79s0,1.69.24,1.46c3.72-3.63,6.77-6.75,8.7-8.76,1.39-1.45,2.24-2.36,2.28-2.39S102.49,41.57,100.86,43.32Z"/><path class="cls-20" d="M74.22,71.71c.33-.24,6.16-1,6.14-1.59,0-.41-4.47.24-4.25,0l2.68-3c.29-.32,4.75-1.78,5.06-2.12s-3.49.38-3.14,0l2.45-2.71c.21-.23,4.49-1.71,4.71-2s-3.64.77-3.43.53l2.66-2.94c.31-.35,3.48-1.81,3.8-2.16,0,0-2.19.38-1.86,0l2.31-2.55c.23-.25,2.69-1.12,2.92-1.37s-1.9.24-1.73.06l2.06-2.27c.2-.22,2.78-1.23,3-1.45s-1.93.3-1.71.06C101.85,41.7,72.91,72.66,74.22,71.71Z"/><path class="cls-42" d="M44.77,80.39s-1-.22-1.13.34c0,0,.16-.42,1.16-.15Z"/><path class="cls-43" d="M44.81,80.63a1.87,1.87,0,0,1-1.17.27s.44.4,1.34-.09Z"/><path class="cls-44" d="M45.19,80.88a2.38,2.38,0,0,0,.73-.12c.43-.15.79-.47.44-1.07a.92.92,0,0,0-.77-.14,3.12,3.12,0,0,0-.68.49C44.33,80.51,44.71,80.88,45.19,80.88Z"/><path class="cls-45" d="M45.21,80.83a5.15,5.15,0,0,0,.73-.17c.43-.15.65-.36.42-1a1,1,0,0,0-.75-.06,2.62,2.62,0,0,0-.65.42C44.37,80.53,44.73,80.83,45.21,80.83Z"/><path class="cls-46" d="M49.34,76.06a5.52,5.52,0,0,0-1.71,1c-.33.26-1.6,1.19-1.38,2.48a1.75,1.75,0,0,0,1.11,1.1,6.34,6.34,0,0,0,.85.27,10.2,10.2,0,0,0,5.39-.38S49.73,79.66,49.34,76.06Z"/><path class="cls-45" d="M49.34,76.06a8.66,8.66,0,0,0-1.68,1.08c-.84.68-1.58,1.54-1.33,2.37a1.91,1.91,0,0,0,1.15,1,4.19,4.19,0,0,0,.71.24,12.17,12.17,0,0,0,5.41-.29S49.73,79.66,49.34,76.06Z"/><path class="cls-47" d="M50.46,78.89a3,3,0,0,1-.87-1.48A7.15,7.15,0,0,1,49.4,76s-1,.93,0,2.91c.71,1.33,3.15,1.7,4.11,1.56A18,18,0,0,1,50.46,78.89Z"/><path class="cls-45" d="M75.89,97.51a4.77,4.77,0,0,1,5.78-2.26s-2.95-.66-5.56,2.83Z"/><path class="cls-45" d="M76.17,97.73c-.06,0-.42,0-.21.18.81.67,4.27,2.17,6.78,1.27A11.07,11.07,0,0,1,76.17,97.73Z"/><path class="cls-48" d="M75.61,98.16c-1.11.13-3.23,0-4-1.25,0,0,3.31-.26,4.69.92C76.26,97.83,76.25,98.08,75.61,98.16Z"/><path class="cls-45" d="M75.52,98A4.61,4.61,0,0,1,71.75,97s.66,0,1.61,0a4.58,4.58,0,0,1,2.73.85S76.15,98,75.52,98Z"/><path class="cls-49" d="M71.45,97.48c-1.32.19-3.83-.05-4.8-1.79,0,0,3.93-.38,5.56,1.32C72.22,97,72.21,97.38,71.45,97.48Z"/><path class="cls-45" d="M71.45,97.39a5.45,5.45,0,0,1-4.8-1.7,24.73,24.73,0,0,1,3.93.47,2.72,2.72,0,0,1,1.47.85S72.21,97.28,71.45,97.39Z"/><path class="cls-50" d="M67.18,91.95a4.54,4.54,0,0,0-.4,1.66c0,1,.39,2.18,1.13,2.4a9.06,9.06,0,0,1-2.59-.47c-.64-.23-1.76-.43-2.17-.94,0,0,2.72-1.17,2.55-3Z"/><path class="cls-45" d="M67,91.9a5.2,5.2,0,0,0-.4,1.73c0,1,.25,2,1,2.25a9.81,9.81,0,0,1-2.29-.54c-.64-.23-1.55-.25-2-.76a3.17,3.17,0,0,0,.88-.44,3,3,0,0,0,1.44-2.54Z"/><path class="cls-51" d="M66.69,91.93a3.75,3.75,0,0,0-.42,1.55c0,1,0,1.56.38,1.76,0,0-1.8-.37-2-.85a3.13,3.13,0,0,0,1-1.06,3.22,3.22,0,0,0,.26-1.72Z"/><path class="cls-50" d="M68.22,88.62a4.56,4.56,0,0,0-.4,1.66c0,1,.39,2.18,1.13,2.39a9.05,9.05,0,0,1-2.59-.47c-.64-.23-1.76-.43-2.17-.94,0,0,2.72-1.17,2.55-3Z"/><path class="cls-45" d="M68.08,88.57a5.22,5.22,0,0,0-.4,1.74c0,1,.25,2,1,2.25A9.84,9.84,0,0,1,66.38,92c-.64-.23-1.55-.24-2-.76a3.16,3.16,0,0,0,.88-.44,3,3,0,0,0,1.44-2.54Z"/><path class="cls-51" d="M67.73,88.6a3.74,3.74,0,0,0-.42,1.55c0,1,0,1.56.38,1.76,0,0-1.8-.37-2-.85a3.14,3.14,0,0,0,1-1.06A3.22,3.22,0,0,0,67,88.28Z"/><path class="cls-50" d="M69.41,84.43a5.44,5.44,0,0,0-.47,2c0,1.24.46,2.6,1.35,2.86a10.8,10.8,0,0,1-3.09-.57c-.76-.28-2.11-.51-2.59-1.13,0,0,3.24-1.4,3-3.56Z"/><path class="cls-45" d="M69.24,84.37a6.21,6.21,0,0,0-.47,2.07c0,1.24.3,2.43,1.18,2.68a11.7,11.7,0,0,1-2.74-.64c-.76-.28-1.85-.29-2.33-.9a3.79,3.79,0,0,0,1-.53,3.53,3.53,0,0,0,1.72-3Z"/><path class="cls-51" d="M68.83,84.4a4.47,4.47,0,0,0-.5,1.85c0,1.16,0,1.86.46,2.1,0,0-2.15-.44-2.4-1a3.74,3.74,0,0,0,1.23-1.27A3.85,3.85,0,0,0,67.94,84Z"/><path class="cls-50" d="M71.09,80a5.85,5.85,0,0,0-.51,2.14c0,1.33.5,2.8,1.46,3.08a11.64,11.64,0,0,1-3.33-.61c-.82-.3-2.27-.55-2.78-1.21,0,0,3.49-1.51,3.27-3.83Z"/><path class="cls-45" d="M70.91,80a6.71,6.71,0,0,0-.51,2.23c0,1.33.32,2.62,1.27,2.89a12.6,12.6,0,0,1-2.95-.69c-.82-.3-2-.31-2.51-1a4.08,4.08,0,0,0,1.13-.57,3.8,3.8,0,0,0,1.86-3.27Z"/><path class="cls-51" d="M70.46,80a4.81,4.81,0,0,0-.54,2c0,1.24,0,2,.49,2.26,0,0-2.32-.47-2.58-1.09a4,4,0,0,0,1.33-1.36,4.15,4.15,0,0,0,.34-2.21Z"/><path class="cls-52" d="M73.64,71.41s-2.25,7.74-.51,8.55c0,0-2.16,1.27-5.27-1.18,0,0,2.84-2.59,3.27-5.8Z"/><path class="cls-45" d="M73.64,71.41S70.76,79.2,73.13,80c0,0-2,.69-5.27-1.18a6.26,6.26,0,0,0,1.67-1.68,10.71,10.71,0,0,0,1.82-4.21Z"/><path class="cls-51" d="M72.67,71.41s-1.63,6.67-.72,7.37a3.46,3.46,0,0,1-2-.85,14.18,14.18,0,0,0,2-5.51Z"/><path class="cls-53" d="M50.86,79.43a4.14,4.14,0,0,1-1.52-3.38l1.08-.28c4.45-1.15,21.21-5.43,22.91-5.32l.41.9s-9.2,8.35-20.11,9.17A6.13,6.13,0,0,1,50.86,79.43Z"/><path class="cls-54" d="M49.56,76.24s9.72-2.39,16.73-4.08c3.45-.83,6.26-1.68,6.91-1.63l.44.88s-9.82,8-20.08,8.86C53.56,80.27,49.56,79.83,49.56,76.24Z"/><path class="cls-55" d="M54.63,76.16s9.93-2.68,10.83-2.62l.2.4s-4.5,3.66-9.2,4.06C56.46,78,54.63,77.8,54.63,76.16Z"/><path class="cls-56" d="M21.72,80.18a14.76,14.76,0,0,0,1.58.16c1.73.08,3.88-.18,4.2-1.89a6.15,6.15,0,0,0-4.33,0,5,5,0,0,0-1.61,1.07c-.17.17-1.65,1.49-1.81,1.69C19.75,81.19,21.31,80.12,21.72,80.18Z"/><path class="cls-57" d="M21.77,80c.41.06,2.17.14,2.47.13,1.5-.05,2.73-.38,3.25-1.71a7.29,7.29,0,0,0-4.38.24,3.94,3.94,0,0,0-1.49.88c-.1.1-1.61,1.28-1.87,1.62C19.75,81.19,21.37,80,21.77,80Z"/><path class="cls-58" d="M42,57.58A21,21,0,0,0,38,55C36.72,54.42,32.55,53,32.55,53a53,53,0,0,1,3.91,5.06,38.26,38.26,0,0,1,2.91,5.37c.59,1.35,1,2.14,1,2.14l4.72.45S46.29,61.56,42,57.58Z"/><path class="cls-59" d="M42,57.58A21,21,0,0,0,38,55C36.72,54.42,32.55,53,32.55,53a36.58,36.58,0,0,1,4.31,5.09,44,44,0,0,1,3.6,7.35l4.69.47S46.29,61.56,42,57.58Z"/><path class="cls-60" d="M42,57.58A21,21,0,0,0,38,55C36.72,54.42,32.55,53,32.55,53s5.37,2.26,7.91,5.34a17.71,17.71,0,0,1,3.23,7.19c0,.15,0,.24,0,.24l.23,0,1.18.12S46.29,61.56,42,57.58Z"/><path class="cls-61" d="M27.39,79.27c1.51,1,3.9-1.61,5.29-3.09a21.94,21.94,0,0,0,3.63-6.11,4.81,4.81,0,0,0-1,.52,46,46,0,0,0-5.05,3.78C29.69,74.84,25.41,77.94,27.39,79.27Z"/><path class="cls-57" d="M27.37,79.13a.84.84,0,0,0,.94.15c1.2-.4,2.94-2.3,4-3.42a21.42,21.42,0,0,0,4-5.8,4.81,4.81,0,0,0-1,.52c-1.17.76-6,4.8-6.48,5.31S26.19,77.87,27.37,79.13Z"/><path class="cls-62" d="M28.68,78c.62.1,2.73-1.06,3.6-2a22.43,22.43,0,0,0,4-6,4.81,4.81,0,0,0-1,.52C34.88,70.84,27.56,77.83,28.68,78Z"/><path class="cls-63" d="M37.3,69.72a18.67,18.67,0,0,1,4.81-.2,10.82,10.82,0,0,1,1.79.42,6,6,0,0,1,.72.32,2.56,2.56,0,0,1,.41.84,9.23,9.23,0,0,1-1.38.3,19.4,19.4,0,0,1-4.31.21c-.69-.07-3.27-.47-3.38-1.44A5.63,5.63,0,0,1,37.3,69.72Z"/><path class="cls-64" d="M37.19,69.91c.36-.08,4.73-.8,6.71.19.22.11.46,0,.7.16a2.56,2.56,0,0,1,.41.84c-.21.06-.69,0-1.38.13a23.34,23.34,0,0,1-4.08.14c-1.52-.1-3-.41-3.62-1.2Z"/><path class="cls-65" d="M45.58,71.38c.61,0,1.49-.47,1-2.06a3.73,3.73,0,0,0-1.18-1.5,1.35,1.35,0,0,0-1-.21,1,1,0,0,0-.89.8A2.83,2.83,0,0,0,45.58,71.38Z"/><path class="cls-59" d="M45.51,71.08c.51,0,1.26-.39.84-1.73a3.13,3.13,0,0,0-1-1.26,1.14,1.14,0,0,0-.82-.18.84.84,0,0,0-.76.68A2.38,2.38,0,0,0,45.51,71.08Z"/><path class="cls-66" d="M30.34,60.81a2.07,2.07,0,0,0,2.2.28c.68-.22,1.09-1.37,1.11-2.34a6.26,6.26,0,0,0-1.28-3.65,2.18,2.18,0,0,0-2.16-.86A1.94,1.94,0,0,0,28.52,56a7.23,7.23,0,0,0,.26,2.22,5.56,5.56,0,0,0,.75,1.65A4.09,4.09,0,0,0,30.34,60.81Z"/><path class="cls-67" d="M30.43,60.43a1.82,1.82,0,0,0,1.93.24c.59-.2,1-1.2,1-2a5.48,5.48,0,0,0-1.12-3.2,1.91,1.91,0,0,0-1.9-.76,1.7,1.7,0,0,0-1.48,1.59,6.33,6.33,0,0,0,.23,1.95,4.87,4.87,0,0,0,.66,1.44A3.58,3.58,0,0,0,30.43,60.43Z"/><path class="cls-68" d="M30.07,59.36a1.77,1.77,0,0,0,1.76.18c.55-.17.89-1,.92-1.74a4.31,4.31,0,0,0-1-2.69A1.77,1.77,0,0,0,30,54.49a1.55,1.55,0,0,0-1.37,1.36,4.94,4.94,0,0,0,.18,1.64,3.84,3.84,0,0,0,.58,1.21A3,3,0,0,0,30.07,59.36Z"/><path class="cls-69" d="M30,57.13a.84.84,0,0,0,.84.09c.26-.08.42-.49.44-.83a2,2,0,0,0-.47-1.28.84.84,0,0,0-.82-.29.74.74,0,0,0-.65.65,2.33,2.33,0,0,0,.09.78,1.81,1.81,0,0,0,.28.58A1.41,1.41,0,0,0,30,57.13Z"/><path class="cls-70" d="M55.42,60a6.5,6.5,0,0,1,.77-.95,6.37,6.37,0,0,0-1.39-3.28C53.31,54.33,49.7,53,48.1,57.2c0,0-1.16,6,6.26,4.65C54.36,61.85,55.1,60.55,55.42,60Z"/></svg>