<svg id="Layer_1" data-name="Layer 1" xmlns="http://www.w3.org/2000/svg" xmlns:xlink="http://www.w3.org/1999/xlink" viewBox="0 0 122.59 144.03"><defs><linearGradient id="linear-gradient" x1="-72.82" y1="313.32" x2="-71.34" y2="320.54" gradientTransform="matrix(-0.96, 0.26, 0.26, 0.96, -74, -231.62)" gradientUnits="userSpaceOnUse"><stop offset="0" stop-color="#85c340"/><stop offset="0.02" stop-color="#8ac540"/><stop offset="0.17" stop-color="#a4ce43"/><stop offset="0.3" stop-color="#b4d344"/><stop offset="0.4" stop-color="#bad545"/><stop offset="1" stop-color="#436e1e"/></linearGradient><linearGradient id="linear-gradient-2" x1="-74.12" y1="336.62" x2="-67.64" y2="338.23" gradientTransform="matrix(-0.96, 0.26, 0.26, 0.96, -74, -231.62)" gradientUnits="userSpaceOnUse"><stop offset="0" stop-color="#436e1e"/><stop offset="0.6" stop-color="#bad545"/><stop offset="0.7" stop-color="#b4d344"/><stop offset="0.83" stop-color="#a4ce43"/><stop offset="0.98" stop-color="#8ac540"/><stop offset="1" stop-color="#85c340"/></linearGradient><linearGradient id="linear-gradient-3" x1="-73.27" y1="338.52" x2="-75.51" y2="348.57" gradientTransform="matrix(-0.96, 0.26, 0.26, 0.96, -74, -231.62)" gradientUnits="userSpaceOnUse"><stop offset="0" stop-color="#bad545"/><stop offset="0.23" stop-color="#d5b238"/><stop offset="0.47" stop-color="#ec932d"/><stop offset="0.61" stop-color="#f58829"/><stop offset="1" stop-color="#975410"/></linearGradient><linearGradient id="linear-gradient-4" x1="-32.15" y1="324.42" x2="-27.22" y2="324.42" gradientTransform="matrix(-0.96, 0.26, 0.26, 0.96, -74, -231.62)" gradientUnits="userSpaceOnUse"><stop offset="0" stop-color="#254a9d"/><stop offset="1" stop-color="#00bff2"/></linearGradient><linearGradient id="linear-gradient-5" x1="-25.73" y1="326.73" x2="-20.42" y2="326.73" xlink:href="#linear-gradient-4"/><linearGradient id="linear-gradient-6" x1="-30.8" y1="325.48" x2="-18.11" y2="324.17" xlink:href="#linear-gradient-2"/><linearGradient id="linear-gradient-7" x1="-75.48" y1="331.06" x2="-74.12" y2="326.28" xlink:href="#linear-gradient-2"/><linearGradient id="linear-gradient-8" x1="-75.08" y1="329.22" x2="-71.22" y2="315.59" xlink:href="#linear-gradient-2"/><linearGradient id="linear-gradient-9" x1="-51.27" y1="342.81" x2="-44.8" y2="319.97" xlink:href="#linear-gradient-2"/><linearGradient id="linear-gradient-10" x1="-44.29" y1="344.17" x2="-43.07" y2="333.08" xlink:href="#linear-gradient-4"/><linearGradient id="linear-gradient-11" x1="-9053.66" y1="342.24" x2="-9038.29" y2="342.24" gradientTransform="translate(8681.07 -2617.78) rotate(-15.25)" xlink:href="#linear-gradient-4"/><linearGradient id="linear-gradient-12" x1="-31.51" y1="358.01" x2="-39.87" y2="361.5" xlink:href="#linear-gradient-3"/><linearGradient id="linear-gradient-13" x1="-32.22" y1="357.88" x2="-39.16" y2="353.07" xlink:href="#linear-gradient-3"/><linearGradient id="linear-gradient-14" x1="-34.91" y1="340.25" x2="-27.59" y2="344.73" xlink:href="#linear-gradient-2"/><linearGradient id="linear-gradient-15" x1="-21.54" y1="350.47" x2="-17.14" y2="357.75" xlink:href="#linear-gradient-2"/><linearGradient id="linear-gradient-16" x1="-23.91" y1="343.85" x2="-21.3" y2="350.59" xlink:href="#linear-gradient-2"/><linearGradient id="linear-gradient-17" x1="-9007.09" y1="322.07" x2="-8995.67" y2="322.07" gradientTransform="translate(8681.07 -2617.78) rotate(-15.25)" xlink:href="#linear-gradient"/><radialGradient id="radial-gradient" cx="-8979.11" cy="326.12" r="4.85" gradientTransform="matrix(1.17, -0.32, 0.26, 0.96, 10514.67, -3162.64)" gradientUnits="userSpaceOnUse"><stop offset="0" stop-color="#3165af"/><stop offset="0.64" stop-color="#2b60ac"/><stop offset="1" stop-color="#255ba9"/></radialGradient><radialGradient id="radial-gradient-2" cx="-8979" cy="326.38" r="4.53" gradientTransform="matrix(1.17, -0.32, 0.26, 0.96, 10514.67, -3162.64)" gradientUnits="userSpaceOnUse"><stop offset="0" stop-color="#ee4323"/><stop offset="0.13" stop-color="#e84122"/><stop offset="0.3" stop-color="#d83a1e"/><stop offset="0.49" stop-color="#bc2f18"/><stop offset="0.7" stop-color="#96200f"/><stop offset="0.92" stop-color="#660c05"/><stop offset="1" stop-color="#520400"/></radialGradient><linearGradient id="linear-gradient-18" x1="-46.01" y1="332.51" x2="-47.88" y2="341.04" gradientTransform="matrix(-0.96, 0.26, 0.26, 0.96, -74, -231.62)" gradientUnits="userSpaceOnUse"><stop offset="0" stop-color="#fff229"/><stop offset="0.2" stop-color="#eae931"/><stop offset="0.51" stop-color="#d0de3c"/><stop offset="0.79" stop-color="#c0d743"/><stop offset="1" stop-color="#bad545"/></linearGradient><linearGradient id="linear-gradient-19" x1="-9049.2" y1="340.94" x2="-9033.85" y2="340.94" gradientTransform="translate(8681.07 -2617.78) rotate(-15.25)" xlink:href="#linear-gradient-4"/><linearGradient id="linear-gradient-20" x1="-56.21" y1="357.13" x2="-66.8" y2="364.31" xlink:href="#linear-gradient-3"/><linearGradient id="linear-gradient-21" x1="-62.78" y1="339.69" x2="-49.68" y2="335.97" xlink:href="#linear-gradient-2"/><linearGradient id="linear-gradient-22" x1="-57.38" y1="349.6" x2="-49.85" y2="352.8" xlink:href="#linear-gradient-2"/><linearGradient id="linear-gradient-23" x1="-57.09" y1="341.3" x2="-50.99" y2="335.33" xlink:href="#linear-gradient-4"/></defs><title>frog</title><path d="M122.59,134v-5.87a5.77,5.77,0,1,1,0-11.55v-2.85a5.77,5.77,0,1,1,0-11.55V99.38a5.77,5.77,0,1,1,0-11.55V85a5.77,5.77,0,1,1,0-11.55V70.59a5.77,5.77,0,1,1,0-11.55V56.2a5.77,5.77,0,1,1,0-11.55V41.81a5.77,5.77,0,1,1,0-11.55V27.42a5.77,5.77,0,1,1,0-11.55V10a10,10,0,0,1-10-10H10A10,10,0,0,1,0,10v5.87a5.77,5.77,0,0,1,5.77,5.77A5.77,5.77,0,0,1,0,27.42v2.85A5.77,5.77,0,0,1,5.77,36,5.77,5.77,0,0,1,0,41.81v2.85a5.77,5.77,0,0,1,5.77,5.77A5.77,5.77,0,0,1,0,56.2V59a5.77,5.77,0,0,1,5.77,5.77A5.77,5.77,0,0,1,0,70.59v2.85a5.77,5.77,0,0,1,5.77,5.77A5.77,5.77,0,0,1,0,85v2.85A5.77,5.77,0,1,1,0,99.38v2.85A5.77,5.77,0,0,1,5.77,108,5.77,5.77,0,0,1,0,113.77v2.85a5.77,5.77,0,0,1,5.77,5.77A5.77,5.77,0,0,1,0,128.16V134a10,10,0,0,1,10,10H112.59A10,10,0,0,1,122.59,134Z" fill="#ed5d54"/><path d="M122.59,73.44V72.12H0v1.32a5.77,5.77,0,0,1,5.77,5.77A5.77,5.77,0,0,1,0,85v2.85A5.77,5.77,0,1,1,0,99.38v2.85A5.77,5.77,0,0,1,5.77,108,5.77,5.77,0,0,1,0,113.77v2.85a5.77,5.77,0,0,1,5.77,5.77A5.77,5.77,0,0,1,0,128.16V134a10,10,0,0,1,10,10H112.59a10,10,0,0,1,10-10v-5.87a5.77,5.77,0,1,1,0-11.55v-2.85a5.77,5.77,0,1,1,0-11.55V99.38a5.77,5.77,0,1,1,0-11.55V85a5.77,5.77,0,1,1,0-11.55Z" fill="#d8423f"/><path d="M14.1,12.79V131.24h94.4V12.79ZM107.21,130H15.38V14.08h91.83Z" fill="#7c0704" opacity="0.35"/><rect x="15.38" y="14.08" width="91.83" height="115.87" fill="#eef3cc"/><polygon points="107.21 72.12 107.21 129.95 15.38 129.95 15.38 72.12 14.1 72.12 14.1 131.24 108.5 131.24 108.5 72.12 107.21 72.12" fill="#7c0704" opacity="0.2"/><polygon points="44.96 12.79 28.12 12.79 34.55 0 51.39 0 44.96 12.79" fill="#fff" opacity="0.2"/><polygon points="51.57 12.79 48.39 12.79 54.82 0 58 0 51.57 12.79" fill="#fff" opacity="0.2"/><text transform="translate(83.51 31.38) scale(0.99 1)" font-size="19.3" fill="#d8423f" font-family="ABeeZee-Regular, ABeeZee Regular">1c</text><path d="M84.42,56.18c-.66,2.62-3.67,4.51-6.71,4.23s-5-2.64-4.3-5.25,3.67-4.51,6.71-4.23S85.09,53.57,84.42,56.18Z" fill="url(#linear-gradient)"/><path d="M84.24,76.88c-1.11,0-1.86.72-2.67,1.46a3.32,3.32,0,0,0-.74-1,8.66,8.66,0,0,1-.77-1.1c-.36-.5-.71-1-1-1.5l-.07-.11,3.38-3.39.15.21c.82,1.18,1.63,2.37,2.47,3.55a6.73,6.73,0,0,0,1.27,1.36,3.87,3.87,0,0,0,1.29.54l.44.13C86.68,77.78,85.39,77.11,84.24,76.88Z" fill="url(#linear-gradient-2)"/><path d="M76.33,82.17A2.15,2.15,0,0,1,79.13,81c1-.58,2.3-1.06,2.51-2.07a1.06,1.06,0,0,0-.06-.62c.81-.74,1.56-1.49,2.67-1.46,1.16.22,2.44.89,3.7.17,1.8.47,4,.28,5.79.73a11.92,11.92,0,0,1,3.37,1.36,6.09,6.09,0,0,1,2.05,1.47,2.68,2.68,0,0,1,1.15-.15c1.11.1,1.83.88,1.62,1.74a2.22,2.22,0,0,1-2.4,1.36c-1.08-.1-1.79-.85-1.62-1.68a13.2,13.2,0,0,1-2-1.33,11.8,11.8,0,0,0-3.7-1.78c-.46-.12-3-.55-2.73.64.09.34.76.6,1,.82a13.51,13.51,0,0,1,1.36,1.27,8.39,8.39,0,0,1,1.86,2.92,2.51,2.51,0,0,1,.57,0,1.62,1.62,0,0,1,1.62,1.94,2.36,2.36,0,0,1-2.51,1.56A1.62,1.62,0,0,1,91.77,86a1.73,1.73,0,0,1,.18-.42c-1-.77-1.42-2.17-2-3.1a7.5,7.5,0,0,0-1.77-2,2.74,2.74,0,0,0-1.83-1c-.44.9-.09,2.15.07,3a8.41,8.41,0,0,1,.21,1.68c.91.26,1.47.92,1.29,1.63a2.39,2.39,0,0,1-2.61,1.32c-1.23-.11-2-.89-1.83-1.73a1.92,1.92,0,0,1,1.42-1.21c0-.2-.08-.42-.12-.64-.17-.86-.25-3-1.29-3.4-.54-.18-1.09.22-1.49.52a19.83,19.83,0,0,1-1.72,1.12L80,82a1.17,1.17,0,0,1,0,.5,2,2,0,0,1-2.2,1.29C76.78,83.71,76.13,83,76.33,82.17Z" fill="url(#linear-gradient-3)"/><path d="M42.24,72.56s-2.1,1.57-4.2,3.38a31.67,31.67,0,0,0,1.15-4A10.78,10.78,0,0,1,42.24,72.56Z" fill="url(#linear-gradient-4)"/><path d="M32.59,81.81s0-5.44,3.19-8.52a20,20,0,0,0,0,4.77c-.41.42-.78.82-1.08,1.19Z" fill="url(#linear-gradient-5)"/><path d="M36.75,72.5a4.12,4.12,0,0,1,2.45-.56,31.67,31.67,0,0,1-1.15,4c-.81.7-1.61,1.43-2.3,2.12a20,20,0,0,1,0-4.77A7.19,7.19,0,0,1,36.75,72.5Z" fill="url(#linear-gradient-6)"/><path d="M87.79,66.64a14.21,14.21,0,0,0-1.63,1.27l-.15,0c-4.09.32-7.72,2.34-12,2.1a11.82,11.82,0,0,1-1.34,0c8.14-2.28,16.24-5.13,22.87-10C94.09,62.49,88.05,66.61,87.79,66.64Z" fill="url(#linear-gradient-7)"/><path d="M71.18,69.4c-1.52-4,.65-8.61,2.49-12.9A55.22,55.22,0,0,1,80,55.61a40.45,40.45,0,0,1,8.37-1c4.87-.1,7.89,2.57,7.49,4.74a2.22,2.22,0,0,1-.32.73c-6.64,4.83-14.74,7.68-22.87,10C72,70,71.3,69.86,71.18,69.4Z" fill="url(#linear-gradient-8)"/><path d="M33.19,83.57a2.49,2.49,0,0,1-.61-1.76h0l2.07-2.57c2.08-2.57,11-9.35,11-9.35s5.16-3.51,9.28-4.29a17.12,17.12,0,0,0,10.41-5.66c1.62-1.73,5.14-2.8,8.33-3.45-1.84,4.29-4,8.87-2.49,12.9.2.75,1.9.68,2.87.62,4.24.24,7.87-1.77,12-2.1l.15,0c-1,.87-2.45,2.09-3.83,3.37l-3.38,3.39a11.29,11.29,0,0,0-1.1,1.42A48.44,48.44,0,0,1,73,81.84a46.17,46.17,0,0,0,2.37-8.75,14.25,14.25,0,0,0-2.29.74c.28-.54-.11-.81,0-1.39C60.52,75.89,50,81.59,39,88.14l-1.26-.42A7.84,7.84,0,0,1,33.19,83.57Z" fill="url(#linear-gradient-9)"/><path d="M73,73.82c-6,2.51-8.59,8.61-11.19,13.7l-.14-.36c-.8,1.55-9.64,2.25-10.55,2.32-6,0-9-.33-12.15-1.33C50,81.59,60.27,76,72.79,72.5,72.68,73.08,73.32,73.29,73,73.82Z" fill="url(#linear-gradient-10)"/><path d="M34.54,87.69c.21-1.58.68-2.7,2.44-1.88,6.22,2.73,11.62,5.94,15.81,10.39-2.86-.77-6-.8-8.92-1.48l1.07.12S36.26,91,34.54,87.69Z" fill="url(#linear-gradient-11)"/><path d="M55.45,102.37a27,27,0,0,1,4-.52,2.91,2.91,0,0,1,2.29-1.43c1.39-.19,2.56.38,2.62,1.28s-1,1.79-2.39,2a2.52,2.52,0,0,1-2.43-.75c-1.26.61-3.32,1.35-4.22,1.92-1.44.92-2.44,2.08-1.14,3.22a3.12,3.12,0,0,1,.65.81h0a2,2,0,0,1,2.51,1.57,2.39,2.39,0,0,1-2.25,2.24,2,2,0,0,1-2.52-1.57,1.6,1.6,0,0,1,.11-.7c-.26-.14-.52-.31-.78-.48,0-2.12,1.36-4.36,3.07-6.12C55,103.57,55.38,102.95,55.45,102.37Z" fill="url(#linear-gradient-12)"/><path d="M55.32,101.61c-1.25-.58-2.41.06-3.59.46.38-.35.91-.81,1.46-1.23A34.75,34.75,0,0,0,56.37,98a1.42,1.42,0,0,1,1.54,1.15c.05.76-.72,1.5-1.73,1.64h-.1a4,4,0,0,1-.61,1.34A.89.89,0,0,0,55.32,101.61Z" fill="url(#linear-gradient-13)"/><path d="M52.64,96.06C48.48,91.68,43.13,88.51,37,85.81c-1.77-.82-2.23.29-2.44,1.88a2.34,2.34,0,0,1-.3-1,4,4,0,0,1,3.57-4c5.8,4.18,14.31,7,19.15,11.91A2.24,2.24,0,0,1,57.08,97c-.23.35-.47.67-.71,1l-.87.83A4.49,4.49,0,0,0,52.64,96.06Z" fill="url(#linear-gradient-14)"/><path d="M43.43,105c2-.76,7.72-2.4,7.72-2.4s.23-.23.58-.55c1.18-.4,2.34-1,3.59-.46a.89.89,0,0,1,.15.54l-.17.24.16,0c-.08.58-.43,1.21-.42,1.45-1.7,1.76-3.06,4-3.07,6.12-1.5-1-3.07-2.38-4.13-2.23-1.49.21-5.36,2.37-10.88-.52s-14.4-5.6-14.55-7.88a16.47,16.47,0,0,1,6.15.41C29.74,100.27,41.51,105.75,43.43,105Z" fill="url(#linear-gradient-15)"/><path d="M30.07,93.74c4.66,0,11.25.69,13.8,1,3,.69,6.06.71,8.92,1.48l-.14-.14a4.49,4.49,0,0,1,2.86,2.79,20.89,20.89,0,0,1-2.31,2c-1.78.93-3.81,1.1-6.48.9-4.76-.35-18.24-2.07-18.24-2.07l.1,0a16.47,16.47,0,0,0-6.15-.41,1.07,1.07,0,0,1,0-.11C22.53,96.9,24.18,93.73,30.07,93.74Z" fill="url(#linear-gradient-16)"/><path d="M86.66,60.42C86,63,83,64.94,79.95,64.65S75,62,75.65,59.4s3.67-4.51,6.71-4.23S87.32,57.8,86.66,60.42Z" fill="url(#linear-gradient-17)"/><path d="M86.42,60.57c-.6,2.38-3.33,4.1-6.1,3.84s-4.51-2.4-3.91-4.78,3.33-4.1,6.1-3.85S87,58.18,86.42,60.57Z" fill="url(#radial-gradient)"/><path d="M86.3,60.66a5.36,5.36,0,0,1-5.69,3.58C78,64,76.4,62,77,59.79a5.36,5.36,0,0,1,5.68-3.58C85.23,56.44,86.86,58.44,86.3,60.66Z" fill="url(#radial-gradient-2)"/><path d="M44.79,84.52a43.91,43.91,0,0,0,4-2.07c.83-.47,1.68-.89,2.45-1.42.39-.27.82-.41,1.23-.64s.88-.55,1.35-.78c1.24-.62,2.44-1.18,3.71-1.72.79-.34,1.6-.64,2.37-1S61.31,76,62,75.61a12.92,12.92,0,0,1,2.87-1.14c.72-.2,1.44-.2,2.18-.47.51-.19.94-.56,1.44-.76a25.85,25.85,0,0,1,2.92-.8,4.17,4.17,0,0,1,2.24,0c.49.13.74.31.66.76a1.27,1.27,0,0,1-.67.86c-.39.26-.55.25-.72.05,0-.42.09-1-.28-.87a7.42,7.42,0,0,0-2.89.6h-.07a2.12,2.12,0,0,0-.57.42c-.14.17-.11.32-.15.51-.07.38-.07.78-.15,1.15s-.32,1.22-.74,1.19-.37-1.08-.4-1.33c-.05-.52,0-.93-.76-.71s-1.4.39-1.45,1.27.15,1.65.12,2.49a8.1,8.1,0,0,1-.25,2c-.11.38-.43,1.29-1,1.39s-.23-.77-.19-1a15,15,0,0,0,.24-1.72,5,5,0,0,0-.29-1.68,1.68,1.68,0,0,0-1.22-1.39,2.19,2.19,0,0,0-2.57,1.44c-.53,1.36.17,3,.76,4.12.43.86,1,2.17.68,3.17a1.1,1.1,0,0,1-1,.76c-.46,0-.47-.16-.61-.51-.38-1-.55-2-.91-3a9.07,9.07,0,0,0-1.4-2.61c-.46-.56-1.11-1.11-1.95-.52-1.46,1-.87,2.72-.43,3.92.18.49,2.14,4,1.29,4.28-.45.17-1.09-.43-1.32-.67-.46-.48-.93-1-1.35-1.46-.77-.91-1.33-1.94-2.13-2.82-.33-.38-.93-.62-1.3,0a2,2,0,0,0-.11,1.37c.16.8.41,1.58.63,2.37.09.32.34,1.08,0,1.42s-.64,0-.89-.21A16.22,16.22,0,0,1,49,86.14a10.7,10.7,0,0,0-.72-.92c-1-.82-2.45.08-3.55.44-.39.13-1,.27-1.24-.13S44.42,84.68,44.79,84.52Z" fill="url(#linear-gradient-18)"/><path d="M37.81,82.72a5.51,5.51,0,0,1,3.66.54S54.44,90,57,94.63C52.11,89.74,43.6,86.9,37.81,82.72Z" fill="url(#linear-gradient-19)"/><path d="M78.26,98.5c.66-.71-.75-1.6-1.22-2.72l.61.15a28.53,28.53,0,0,1,1.27-2.78A1.08,1.08,0,0,1,78.53,92a1.82,1.82,0,0,1,2-1.18c.89.08,1.47.75,1.28,1.48a1.75,1.75,0,0,1-1.56,1.17,27.82,27.82,0,0,1-1.45,3.7s5.83-2.77,8-2.5a3.39,3.39,0,0,1,.46.09,2.48,2.48,0,0,1,1.64-.43c1.07.1,1.76.86,1.54,1.71a2.15,2.15,0,0,1-2.32,1.35,1.61,1.61,0,0,1-1.56-1.21c-2.55-.6-7,2.67-7,2.67a8.76,8.76,0,0,1,8.07,3l0,.05a1.84,1.84,0,0,1,.62-.05,1.21,1.21,0,0,1,1.19,1.47,1.76,1.76,0,0,1-1.86,1.18,1.21,1.21,0,0,1-1.19-1.47,1.33,1.33,0,0,1,.21-.45,7.39,7.39,0,0,0-1.93-1.93c-2.12-1.73-6.45-.11-6.45-.11a13.73,13.73,0,0,1,1.27,4.53,3.18,3.18,0,0,1-.17,1,1.28,1.28,0,0,1,.83,1.48,2.11,2.11,0,0,1-2.27,1.31c-1-.1-1.72-.84-1.52-1.66a2,2,0,0,1,2-1.31v0c.7-2.76-2.22-5.85-2.22-5.85l-1.34-.57C76.15,99.3,77.49,99.21,78.26,98.5Z" fill="url(#linear-gradient-20)"/><path d="M64.29,85.85l.36-.53c3.14-4.18,7.75-7.43,9.7-12,.32-.1.64-.19,1-.27A46.17,46.17,0,0,1,73,81.84c-1.89,2-3.55,3.64-3.55,3.64l.31.57A7.94,7.94,0,0,0,64.29,85.85Z" fill="url(#linear-gradient-21)"/><path d="M69.72,86.05c1.06,1.92,4.42,8.06,4.76,8.61s1.72.9,2.55,1.12c.47,1.12,1.89,2,1.22,2.72s-2.11.8-3.42,1c-1.39-.61-3.74-1.67-6.36-3s-4.71-4.8-5.81-7.07a13.23,13.23,0,0,1,1.63-3.51A7.94,7.94,0,0,1,69.72,86.05Z" fill="url(#linear-gradient-22)"/><path d="M74.35,73.35c-1.94,4.54-6.56,7.79-9.7,12a13.54,13.54,0,0,0-2,4c-.39-.8-.66-1.46-.81-1.84C64.63,82.08,67.39,75.47,74.35,73.35Z" fill="url(#linear-gradient-23)"/><path d="M83.49,61.88l-2.42-4.51A6.42,6.42,0,0,1,83.49,61.88Z" fill="#231f20"/><ellipse cx="79.82" cy="58.97" rx="0.53" ry="0.44" transform="translate(-12.83 23.4) rotate(-15.45)" fill="#fff"/><path d="M74.37,57.63l-.48.13c-.31.09-.76.22-1.33.41s-1.26.43-2,.75A23.8,23.8,0,0,0,68,60.12,12.38,12.38,0,0,0,65.27,62l-.31.31-.29.3-.3.26c-.11.08-.21.17-.33.25a9.91,9.91,0,0,1-1.55.86,38.91,38.91,0,0,1-3.66,1.33c-1.28.42-2.59.85-3.89,1.35a28.08,28.08,0,0,0-3.74,1.77,18.05,18.05,0,0,0-1.69,1.09L48,70.68c-1,.73-2,1.45-2.91,2.13l-2.59,1.92-1.15.86-1,.79-1.65,1.3-1.05.84-.37.3.4-.27,1.13-.76,1.75-1.19,1.07-.73,1.2-.81,2.68-1.82c.95-.65,2-1.33,3-2.05L50,70.1c.52-.35,1.06-.7,1.63-1a27.25,27.25,0,0,1,3.61-1.68c1.25-.5,2.54-.93,3.82-1.36a34.83,34.83,0,0,0,3.74-1.44,9.86,9.86,0,0,0,1.68-1c.13-.09.25-.2.37-.3s.24-.22.35-.33l.29-.32.27-.29a12.44,12.44,0,0,1,2.46-1.9c.85-.51,1.67-.95,2.42-1.3s1.41-.65,2-.87l1.29-.51Z" fill="#fff"/></svg>