<svg id="Layer_1" data-name="Layer 1" xmlns="http://www.w3.org/2000/svg" xmlns:xlink="http://www.w3.org/1999/xlink" viewBox="0 0 62.65 62.65"><defs><style>.cls-1{fill:#73adff;}.cls-2{fill:#808184;}.cls-3{fill:url(#linear-gradient);}.cls-4{fill:#d4cedb;}.cls-5{fill:#000009;}.cls-6{fill:#bcdef7;}.cls-7{fill:url(#linear-gradient-2);}.cls-8,.cls-9{opacity:0.5;}.cls-8{fill:url(#linear-gradient-3);}.cls-9{fill:url(#linear-gradient-4);}.cls-10{fill:url(#radial-gradient);}.cls-11{fill:url(#linear-gradient-5);}.cls-12{fill:url(#linear-gradient-6);}.cls-13{fill:url(#linear-gradient-7);}.cls-14{fill:url(#linear-gradient-8);}.cls-15{fill:url(#linear-gradient-9);}.cls-16{fill:url(#linear-gradient-10);}.cls-17{fill:url(#linear-gradient-11);}.cls-18{fill:url(#linear-gradient-12);}.cls-19{fill:url(#linear-gradient-13);}.cls-20{fill:url(#linear-gradient-14);}.cls-21{fill:url(#linear-gradient-15);}.cls-22{fill:url(#linear-gradient-16);}.cls-23{fill:url(#linear-gradient-17);}.cls-24{fill:url(#linear-gradient-18);}.cls-25{fill:url(#linear-gradient-19);}.cls-26{fill:url(#linear-gradient-20);}.cls-27{fill:url(#linear-gradient-21);}.cls-28{fill:url(#linear-gradient-22);}.cls-29{fill:url(#linear-gradient-23);}.cls-30{fill:url(#radial-gradient-2);}.cls-31{fill:url(#radial-gradient-3);}.cls-32{fill:url(#linear-gradient-24);}.cls-33{fill:url(#linear-gradient-25);}.cls-34{fill:url(#linear-gradient-26);}.cls-35{fill:url(#linear-gradient-27);}.cls-36{fill:url(#linear-gradient-28);}.cls-37{fill:url(#linear-gradient-29);}.cls-38{fill:#221f1f;}.cls-39,.cls-53{fill:#fff;}.cls-40{fill:url(#radial-gradient-4);}.cls-41{fill:url(#linear-gradient-30);}.cls-42{fill:url(#linear-gradient-31);}.cls-43{fill:#78866c;}.cls-43,.cls-45,.cls-46,.cls-47,.cls-48,.cls-49,.cls-50,.cls-51,.cls-52,.cls-53,.cls-54,.cls-55,.cls-56,.cls-57,.cls-58,.cls-59{fill-rule:evenodd;}.cls-44,.cls-49{fill:#303c36;}.cls-45{fill:#84a18f;}.cls-46{fill:#9dad90;}.cls-47{fill:#192121;}.cls-48{fill:#333633;}.cls-50{fill:#384240;}.cls-51{fill:#242424;}.cls-52{fill:#4b5c5a;}.cls-54{fill:#3e4b4a;}.cls-55{fill:#151515;}.cls-57{fill:#f9fae8;}.cls-58{fill:#0e1f26;}.cls-59{fill:#c9e8e7;}</style><linearGradient id="linear-gradient" x1="9.33" y1="53.32" x2="52.39" y2="10.26" gradientUnits="userSpaceOnUse"><stop offset="0" stop-color="#babcbf" stop-opacity="0"/><stop offset="1" stop-color="#b8bcc1"/></linearGradient><linearGradient id="linear-gradient-2" x1="31.33" y1="4.07" x2="31.33" y2="52.18" gradientUnits="userSpaceOnUse"><stop offset="0" stop-color="#89b8e4" stop-opacity="0"/><stop offset="1" stop-color="#a0c3e4"/></linearGradient><linearGradient id="linear-gradient-3" x1="28.65" y1="28.74" x2="12.07" y2="10.57" gradientUnits="userSpaceOnUse"><stop offset="0" stop-color="#e2f3ff" stop-opacity="0.1"/><stop offset="1" stop-color="#e2f3ff"/></linearGradient><linearGradient id="linear-gradient-4" x1="36.51" y1="36.51" x2="59.07" y2="59.07" xlink:href="#linear-gradient-3"/><radialGradient id="radial-gradient" cx="-24.42" cy="-550.37" r="13.56" gradientTransform="translate(-532.11 68.39) rotate(90) scale(1.02 1.02)" gradientUnits="userSpaceOnUse"><stop offset="0" stop-color="#ffe035"/><stop offset="1" stop-color="#ffc62b"/></radialGradient><linearGradient id="linear-gradient-5" x1="-37.48" y1="-523.46" x2="-31.43" y2="-522.72" gradientTransform="translate(-491.75 65.67) rotate(90)" gradientUnits="userSpaceOnUse"><stop offset="0" stop-color="#ffd138"/><stop offset="0.44" stop-color="#ffda36"/><stop offset="1" stop-color="#ffe035"/></linearGradient><linearGradient id="linear-gradient-6" x1="-25.1" y1="-535.77" x2="-24.61" y2="-529.47" xlink:href="#linear-gradient-5"/><linearGradient id="linear-gradient-7" x1="-1957.94" y1="37.55" x2="-1957.62" y2="39.12" gradientTransform="translate(1981)" gradientUnits="userSpaceOnUse"><stop offset="0" stop-color="#84c241"/><stop offset="0.02" stop-color="#89c441"/><stop offset="0.17" stop-color="#a3cd43"/><stop offset="0.3" stop-color="#b3d345"/><stop offset="0.4" stop-color="#b9d545"/><stop offset="1" stop-color="#456f34"/></linearGradient><linearGradient id="linear-gradient-8" x1="-1958.25" y1="42.62" x2="-1956.83" y2="42.98" gradientTransform="translate(1981)" gradientUnits="userSpaceOnUse"><stop offset="0" stop-color="#456f34"/><stop offset="0.6" stop-color="#b9d545"/><stop offset="0.7" stop-color="#b3d345"/><stop offset="0.83" stop-color="#a3cd43"/><stop offset="0.98" stop-color="#89c441"/><stop offset="1" stop-color="#84c241"/></linearGradient><linearGradient id="linear-gradient-9" x1="-1958.06" y1="43.03" x2="-1958.55" y2="45.23" gradientTransform="translate(1981)" gradientUnits="userSpaceOnUse"><stop offset="0" stop-color="#b9d545"/><stop offset="0.24" stop-color="#d5b136"/><stop offset="0.47" stop-color="#ec922a"/><stop offset="0.61" stop-color="#f58725"/><stop offset="1" stop-color="#965624"/></linearGradient><linearGradient id="linear-gradient-10" x1="-1949.05" y1="39.93" x2="-1947.98" y2="39.93" gradientTransform="translate(1981)" gradientUnits="userSpaceOnUse"><stop offset="0" stop-color="#264b9b"/><stop offset="1" stop-color="#10bef0"/></linearGradient><linearGradient id="linear-gradient-11" x1="-1947.65" y1="40.43" x2="-1946.49" y2="40.43" xlink:href="#linear-gradient-10"/><linearGradient id="linear-gradient-12" x1="-1948.76" y1="40.16" x2="-1945.99" y2="39.88" xlink:href="#linear-gradient-8"/><linearGradient id="linear-gradient-13" x1="-1958.53" y1="41.42" x2="-1958.23" y2="40.36" xlink:href="#linear-gradient-8"/><linearGradient id="linear-gradient-14" x1="-1958.45" y1="41.02" x2="-1957.6" y2="38.04" xlink:href="#linear-gradient-8"/><linearGradient id="linear-gradient-15" x1="-1953.24" y1="43.97" x2="-1951.83" y2="38.97" xlink:href="#linear-gradient-8"/><linearGradient id="linear-gradient-16" x1="-1951.72" y1="44.25" x2="-1951.45" y2="41.84" xlink:href="#linear-gradient-10"/><linearGradient id="linear-gradient-17" x1="-7185.73" y1="43.81" x2="-7182.36" y2="43.81" gradientTransform="matrix(-1, 0, 0, 1, -7151.3, 0)" xlink:href="#linear-gradient-10"/><linearGradient id="linear-gradient-18" x1="-1948.94" y1="47.25" x2="-1950.77" y2="48.02" xlink:href="#linear-gradient-9"/><linearGradient id="linear-gradient-19" x1="-1949.09" y1="47.23" x2="-1950.61" y2="46.18" xlink:href="#linear-gradient-9"/><linearGradient id="linear-gradient-20" x1="-1949.67" y1="43.38" x2="-1948.07" y2="44.36" xlink:href="#linear-gradient-8"/><linearGradient id="linear-gradient-21" x1="-1946.75" y1="45.6" x2="-1945.8" y2="47.18" xlink:href="#linear-gradient-8"/><linearGradient id="linear-gradient-22" x1="-1947.27" y1="44.16" x2="-1946.7" y2="45.62" xlink:href="#linear-gradient-8"/><linearGradient id="linear-gradient-23" x1="-7175.56" y1="39.46" x2="-7173.06" y2="39.46" gradientTransform="matrix(-1, 0, 0, 1, -7151.3, 0)" xlink:href="#linear-gradient-7"/><radialGradient id="radial-gradient-2" cx="-7524.14" cy="37.08" r="1.03" gradientTransform="matrix(-1.25, 0, 0, 1.02, -9373.03, 1.46)" gradientUnits="userSpaceOnUse"><stop offset="0" stop-color="#3066af"/><stop offset="0.71" stop-color="#2b60ab"/><stop offset="1" stop-color="#285ca8"/></radialGradient><radialGradient id="radial-gradient-3" cx="-7524.12" cy="37.13" r="0.96" gradientTransform="matrix(-1.25, 0, 0, 1.02, -9373.03, 1.46)" gradientUnits="userSpaceOnUse"><stop offset="0" stop-color="#ed4523"/><stop offset="0.13" stop-color="#e74322"/><stop offset="0.3" stop-color="#d73e20"/><stop offset="0.49" stop-color="#bb351d"/><stop offset="0.69" stop-color="#952918"/><stop offset="0.91" stop-color="#651912"/><stop offset="1" stop-color="#4e120f"/></radialGradient><linearGradient id="linear-gradient-24" x1="-1952.09" y1="41.7" x2="-1952.5" y2="43.57" gradientTransform="translate(1981)" gradientUnits="userSpaceOnUse"><stop offset="0" stop-color="#fbed34"/><stop offset="0.17" stop-color="#e9e739"/><stop offset="0.49" stop-color="#cfdd3f"/><stop offset="0.78" stop-color="#bfd744"/><stop offset="1" stop-color="#b9d545"/></linearGradient><linearGradient id="linear-gradient-25" x1="-7184.76" y1="43.53" x2="-7181.39" y2="43.53" gradientTransform="matrix(-1, 0, 0, 1, -7151.3, 0)" xlink:href="#linear-gradient-10"/><linearGradient id="linear-gradient-26" x1="-1954.34" y1="47.08" x2="-1956.66" y2="48.65" xlink:href="#linear-gradient-9"/><linearGradient id="linear-gradient-27" x1="-1955.76" y1="43.28" x2="-1952.9" y2="42.47" xlink:href="#linear-gradient-8"/><linearGradient id="linear-gradient-28" x1="-1954.59" y1="45.44" x2="-1952.95" y2="46.14" xlink:href="#linear-gradient-8"/><linearGradient id="linear-gradient-29" x1="-1954.53" y1="43.64" x2="-1953.18" y2="42.32" xlink:href="#linear-gradient-10"/><radialGradient id="radial-gradient-4" cx="-43.04" cy="-550.37" r="13.56" gradientTransform="translate(-532.11 68.39) rotate(90) scale(1.02 1.02)" gradientUnits="userSpaceOnUse"><stop offset="0" stop-color="#afce22"/><stop offset="1" stop-color="#81bf2e"/></radialGradient><linearGradient id="linear-gradient-30" x1="-56.46" y1="-523.46" x2="-50.4" y2="-522.72" gradientTransform="translate(-491.75 65.67) rotate(90)" gradientUnits="userSpaceOnUse"><stop offset="0" stop-color="#81bf2e"/><stop offset="0.36" stop-color="#98c728"/><stop offset="0.72" stop-color="#a9cc24"/><stop offset="1" stop-color="#afce22"/></linearGradient><linearGradient id="linear-gradient-31" x1="-44.08" y1="-535.77" x2="-43.58" y2="-529.47" xlink:href="#linear-gradient-30"/></defs><title>tadpol-frog-icon</title><path class="cls-1" d="M31.33,58.35a27,27,0,1,1,27-27A27.05,27.05,0,0,1,31.33,58.35Z"/><path class="cls-2" d="M31.33,62.65A31.33,31.33,0,1,1,62.65,31.33,31.36,31.36,0,0,1,31.33,62.65Z"/><path class="cls-3" d="M31.33,62.65A31.33,31.33,0,1,1,62.65,31.33,31.36,31.36,0,0,1,31.33,62.65Z"/><path class="cls-4" d="M31.33,59.78A28.46,28.46,0,1,1,59.78,31.33,28.49,28.49,0,0,1,31.33,59.78Z"/><path class="cls-5" d="M31.33,59.3a28,28,0,1,1,28-28A28,28,0,0,1,31.33,59.3Z"/><path class="cls-6" d="M31.33,58.59A27.26,27.26,0,1,1,58.59,31.33,27.29,27.29,0,0,1,31.33,58.59Z"/><circle class="cls-7" cx="31.33" cy="31.33" r="26.78"/><path class="cls-8" d="M30.14,28.55V7.2A24.16,24.16,0,0,0,7.33,28.55Z"/><path class="cls-9" d="M47.17,13.09A24.15,24.15,0,0,1,13.09,47.17,24.15,24.15,0,1,0,47.17,13.09Z"/><rect class="cls-10" x="19.24" y="34.01" width="18.97" height="18.98"/><polygon class="cls-11" points="24.43 28.64 19.25 34.01 38.22 34.01 43.41 28.64 24.43 28.64"/><polygon class="cls-12" points="43.41 28.64 38.22 34.01 38.22 52.99 43.41 47.62 43.41 28.64"/><path class="cls-13" d="M22.1,38.86a1.38,1.38,0,0,0,1.66.5A1,1,0,0,0,24.37,38a1.38,1.38,0,0,0-1.66-.5A1,1,0,0,0,22.1,38.86Z"/><path class="cls-14" d="M23.32,43.2a.86.86,0,0,1,.65.15.73.73,0,0,1,.1-.25,1.9,1.9,0,0,0,.1-.27l.14-.38v0l-.91-.52,0,.05-.32.89a1.48,1.48,0,0,1-.19.36.85.85,0,0,1-.24.19l-.08.05C22.85,43.53,23.08,43.31,23.32,43.2Z"/><path class="cls-15" d="M25.29,43.85a.45.45,0,0,0-.54-.14l-.12.07c-.25-.06-.55-.09-.65-.29a.23.23,0,0,1,0-.13.86.86,0,0,0-.65-.15c-.23.11-.46.33-.77.25-.35.2-.82.29-1.18.49a2.63,2.63,0,0,0-.63.48c-.12.12-.3.27-.35.43a.59.59,0,0,0-.25,0c-.23.09-.34.29-.24.46a.49.49,0,0,0,.58.15c.22-.08.33-.28.25-.45a2.91,2.91,0,0,0,.35-.4,2.61,2.61,0,0,1,.68-.59c.09-.05.61-.29.61,0,0,.08-.13.17-.17.23a3,3,0,0,0-.22.35,1.83,1.83,0,0,0-.23.72l-.12,0a.35.35,0,0,0-.23.5A.51.51,0,0,0,22,46a.35.35,0,0,0,.23-.5l-.06-.08a2.24,2.24,0,0,0,.24-.76,1.64,1.64,0,0,1,.26-.51c.09-.14.15-.25.33-.31a1.12,1.12,0,0,1,.16.64,1.82,1.82,0,0,0,.05.37c-.18.11-.26.28-.18.42a.52.52,0,0,0,.63.13c.25-.1.38-.31.29-.47a.42.42,0,0,0-.37-.17s0-.09,0-.14-.12-.65.08-.79.24,0,.34,0l.43.14.08,0a.25.25,0,0,0,0,.1.45.45,0,0,0,.54.14C25.28,44.2,25.37,44,25.29,43.85Z"/><path class="cls-16" d="M31.94,39.85s.53.21,1.08.47a6.83,6.83,0,0,1-.47-.77A2.38,2.38,0,0,0,31.94,39.85Z"/><path class="cls-17" d="M34.51,41.23a2.84,2.84,0,0,0-1.16-1.6,4.32,4.32,0,0,1,.28,1l.3.19Z"/><path class="cls-18" d="M33.1,39.52a.91.91,0,0,0-.55,0,6.83,6.83,0,0,0,.47.77c.21.1.42.21.61.31a4.32,4.32,0,0,0-.28-1Z"/><path class="cls-19" d="M22,41.25l.42.17h0a18.64,18.64,0,0,0,2.65-.25l.28-.07a15.57,15.57,0,0,1-5.4-.76A7.14,7.14,0,0,0,22,41.25Z"/><path class="cls-20" d="M25.65,40.87c.09-.93-.62-1.77-1.26-2.56a12.16,12.16,0,0,0-1.4.18,8.91,8.91,0,0,0-1.83.28c-1,.26-1.52,1-1.31,1.43a.48.48,0,0,0,.11.13,15.57,15.57,0,0,0,5.4.76C25.51,41,25.65,41,25.65,40.87Z"/><path class="cls-21" d="M34.48,41.64a.54.54,0,0,0,0-.4h0l-.58-.42a24,24,0,0,0-2.85-1.32,6.88,6.88,0,0,0-2.2-.36,3.74,3.74,0,0,1-2.52-.58,3.74,3.74,0,0,0-2-.24c.63.79,1.35,1.63,1.26,2.56,0,.17-.36.25-.57.3a18.64,18.64,0,0,1-2.65.25h0c.27.12.64.3,1,.48l.91.52a2.44,2.44,0,0,1,.31.23,10.49,10.49,0,0,0,1.36.92,10,10,0,0,1-1-1.7,3.13,3.13,0,0,1,.52,0c-.09-.1,0-.18-.08-.29a29.75,29.75,0,0,1,8.08,1.32l.24-.16A1.72,1.72,0,0,0,34.48,41.64Z"/><path class="cls-22" d="M25.51,41.91c1.41.18,2.3,1.31,3.14,2.23V44c.26.28,2.16-.09,2.36-.13a8,8,0,0,0,2.49-1,29.35,29.35,0,0,0-8-1.32C25.54,41.73,25.42,41.81,25.51,41.91Z"/><path class="cls-23" d="M34.43,42.58c-.13-.32-.3-.53-.62-.25a10.37,10.37,0,0,0-2.75,3.1c.56-.33,1.21-.51,1.8-.83l-.22.09S34.25,43.37,34.43,42.58Z"/><path class="cls-24" d="M30.84,46.88A6,6,0,0,0,30,47a.63.63,0,0,0-.57-.17c-.3,0-.52.23-.48.42s.31.32.62.28a.56.56,0,0,0,.47-.3c.3.06.78.09,1,.16s.63.3.42.61a.68.68,0,0,0-.09.21h0c-.29,0-.49.25-.44.48a.52.52,0,0,0,.6.34c.29,0,.49-.25.44-.48a.34.34,0,0,0-.06-.14l.14-.15a2.08,2.08,0,0,0-1-1.11C31,47.1,30.89,47,30.84,46.88Z"/><path class="cls-25" d="M30.83,46.71c.23-.19.51-.13.78-.11l-.38-.17A7.55,7.55,0,0,1,30.4,46a.31.31,0,0,0-.26.33.39.39,0,0,0,.46.24h0a.85.85,0,0,0,.2.25A.19.19,0,0,1,30.83,46.71Z"/><path class="cls-26" d="M31.08,45.39a10.42,10.42,0,0,1,2.73-3.06c.33-.28.49-.07.62.25a.51.51,0,0,0,0-.23.87.87,0,0,0-1-.62c-1,1.21-2.62,2.3-3.37,3.61a.48.48,0,0,0,.11.51l.2.16.23.12A1,1,0,0,1,31.08,45.39Z"/><path class="cls-27" d="M33.53,46.74c-.47,0-1.77-.06-1.77-.06l-.15-.08c-.27,0-.55-.08-.78.11a.19.19,0,0,0,0,.12l.05,0h0c0,.12.16.23.17.28a2.08,2.08,0,0,1,1,1.11c.26-.3.51-.68.75-.71A2.9,2.9,0,0,0,35,46.82c1-.91,2.72-2,2.63-2.5a3.64,3.64,0,0,0-1.28.44C36.15,44.94,34,46.78,33.53,46.74Z"/><path class="cls-28" d="M35.72,43.59c-1,.27-2.34.8-2.86,1s-1.24.5-1.8.83l0,0a1,1,0,0,0-.45.75,4.54,4.54,0,0,0,.6.28,2.57,2.57,0,0,0,1.42-.19c1-.35,3.74-1.49,3.74-1.49l0,0a3.64,3.64,0,0,1,1.28-.44v0C37.49,43.82,37,43.25,35.72,43.59Z"/><path class="cls-29" d="M21.87,39.88a1.38,1.38,0,0,0,1.66.5A1,1,0,0,0,24.14,39a1.38,1.38,0,0,0-1.66-.5A1,1,0,0,0,21.87,39.88Z"/><path class="cls-30" d="M21.93,39.9a1.25,1.25,0,0,0,1.51.45A.86.86,0,0,0,24,39.12a1.25,1.25,0,0,0-1.51-.45A.86.86,0,0,0,21.93,39.9Z"/><path class="cls-31" d="M22,39.91a1.17,1.17,0,0,0,1.4.42.81.81,0,0,0,.52-1.15,1.17,1.17,0,0,0-1.4-.42A.81.81,0,0,0,22,39.91Z"/><path class="cls-32" d="M32.08,42.51a9.6,9.6,0,0,1-1-.2c-.2-.05-.4-.09-.6-.16s-.2,0-.3-.06L29.9,42,29,41.86l-.56-.07c-.19,0-.35-.1-.53-.14a2.83,2.83,0,0,0-.67-.07c-.16,0-.32,0-.49,0s-.23-.06-.35-.08a5.68,5.68,0,0,0-.66,0,.92.92,0,0,0-.48.12c-.1.06-.14.11-.1.2a.27.27,0,0,0,.19.14c.1,0,.13,0,.16,0s-.08-.2,0-.2a1.63,1.63,0,0,1,.64,0h0a.46.46,0,0,1,.14.05s0,.06.06.1.06.16.1.23.14.24.22.21,0-.25,0-.3-.06-.19.12-.19.32,0,.38.18.06.36.12.53a1.75,1.75,0,0,0,.17.41c0,.07.16.25.3.23s0-.18,0-.22a3.24,3.24,0,0,1-.15-.35,1.09,1.09,0,0,1,0-.37.37.37,0,0,1,.18-.36.48.48,0,0,1,.62.15,1.17,1.17,0,0,1,.07.91,1,1,0,0,0,0,.71.24.24,0,0,0,.24.1c.1,0,.09-.06.1-.14s0-.46,0-.69a2,2,0,0,1,.15-.63c.06-.14.17-.3.38-.22.37.13.34.52.31.8,0,.11-.23,1,0,1s.21-.15.24-.22.14-.26.2-.39.17-.48.29-.72.16-.19.27-.08a.43.43,0,0,1,.1.28c0,.18,0,.36,0,.53s0,.25.08.3.13,0,.18-.1a3.57,3.57,0,0,0,.21-.33,2.34,2.34,0,0,1,.1-.23c.16-.23.52-.13.77-.11.09,0,.23,0,.25-.1S32.17,42.52,32.08,42.51Z"/><path class="cls-33" d="M33.46,41.73a1.22,1.22,0,0,0-.74.33s-2.36,2.16-2.63,3.29C30.83,44,32.47,42.94,33.46,41.73Z"/><path class="cls-34" d="M25.8,47.39c-.18-.11.07-.38.1-.64l-.12.07a6.15,6.15,0,0,0-.43-.51.23.23,0,0,0,0-.26.4.4,0,0,0-.48-.13.27.27,0,0,0-.19.38.38.38,0,0,0,.4.16,6,6,0,0,0,.52.69,5.54,5.54,0,0,0-1.84-.06l-.09,0a.54.54,0,0,0-.37,0c-.22.08-.32.28-.23.45a.47.47,0,0,0,.57.15.35.35,0,0,0,.26-.34c.5-.27,1.63.15,1.63.15A1.93,1.93,0,0,0,24,48.64h0l-.13,0a.26.26,0,0,0-.17.38.38.38,0,0,0,.46.14.26.26,0,0,0,.17-.38.29.29,0,0,0-.07-.08,1.62,1.62,0,0,1,.3-.52c.35-.49,1.36-.4,1.36-.4a3,3,0,0,0,0,1A.69.69,0,0,0,26,49a.28.28,0,0,0-.09.36.46.46,0,0,0,.55.14c.22-.08.32-.28.23-.44a.45.45,0,0,0-.5-.16h0c-.3-.54.14-1.36.14-1.36l.25-.2A1.4,1.4,0,0,1,25.8,47.39Z"/><path class="cls-35" d="M28,43.92l-.11-.09c-.9-.7-2.06-1.11-2.73-2H25a10,10,0,0,0,1,1.7c.51.31,1,.56,1,.56l0,.14A1.75,1.75,0,0,1,28,43.92Z"/><path class="cls-36" d="M26.9,44.28c-.11.47-.48,1.95-.52,2.08s-.31.29-.48.38c0,.26-.28.53-.1.64a1.4,1.4,0,0,0,.78,0c.26-.21.69-.57,1.17-1a3.47,3.47,0,0,0,.83-1.82,2.85,2.85,0,0,0-.54-.64A1.75,1.75,0,0,0,26.9,44.28Z"/><path class="cls-37" d="M25.2,41.88c.67.84,1.83,1.25,2.73,2a2.92,2.92,0,0,1,.65.73c0-.19.06-.35.07-.43C27.75,43.15,26.79,41.92,25.2,41.88Z"/><path class="cls-38" d="M22.62,40l.26-1.09A1.4,1.4,0,0,0,22.62,40Z"/><ellipse class="cls-39" cx="23.23" cy="39.18" rx="0.12" ry="0.1"/><path class="cls-39" d="M24.31,38.58h.41l.47,0a5.21,5.21,0,0,1,.61.1,2.7,2.7,0,0,1,.68.25l.08,0,.08,0,.08,0,.08,0a2.16,2.16,0,0,0,.38.09c.27,0,.56.05.85.07s.6,0,.9.06a6.14,6.14,0,0,1,.89.15l.42.13.39.15.73.28.66.25.29.11.26.11.42.18.27.12.1,0-.1,0L33,40.75l-.44-.15-.27-.09-.3-.1-.67-.23-.75-.26-.39-.14-.4-.12a6,6,0,0,0-.86-.14c-.29,0-.59,0-.88-.06a7.63,7.63,0,0,1-.87-.08,2.15,2.15,0,0,1-.41-.11l-.1,0-.09,0-.08-.05-.07,0a2.71,2.71,0,0,0-.63-.26c-.21-.06-.41-.1-.58-.13l-.46-.07-.3,0Z"/><rect class="cls-40" x="19.24" y="15.04" width="18.97" height="18.98"/><polygon class="cls-41" points="24.43 9.66 19.25 15.04 38.22 15.04 43.41 9.66 24.43 9.66"/><polygon class="cls-42" points="43.41 9.66 38.22 15.04 38.22 34.01 43.41 28.64 43.41 9.66"/><path class="cls-43" d="M32.33,25.58a16,16,0,0,1-7.18,5.26c-2.12.71-4.72,2.72-5,2.52-1-.69.76-4,2.89-5.93,1-.91,2.83-4.23,4.52-6.3s5.58-3.93,5.68-4c3.46,1,2,4.29-.89,8.49"/><path class="cls-44" d="M29.2,28.74a15.21,15.21,0,0,1-4,2.16,19.44,19.44,0,0,0-3.46,1.76c-.83.49-1.44.86-1.59.76l-.12-.1a1.4,1.4,0,0,1-.1-1.26,7.48,7.48,0,0,1,.84-1.86A12.38,12.38,0,0,1,23,27.43a18.84,18.84,0,0,0,2.15-2.93c.76-1.15,1.58-2.4,2.38-3.37A12.05,12.05,0,0,1,30,19a17.68,17.68,0,0,0,2.9-2.05,4.54,4.54,0,0,1,2-1.2,2.62,2.62,0,0,1,1.94.19L37,16l.15.11a1.69,1.69,0,0,1,.38.34.29.29,0,0,1,.08.29v0a3.24,3.24,0,0,1-.28,1.45l-.13.38-.07.22a4.19,4.19,0,0,1-.94,1.83,7.38,7.38,0,0,1-.63.57c-1.33,1-1,.84-1.86,2.36-.39.65-.83,1.33-1.31,2a13.9,13.9,0,0,1-3.18,3.12m4.43-5.19a18.09,18.09,0,0,0,1-1.83h0a3.4,3.4,0,0,0,.89-.52,7.34,7.34,0,0,0,.63-.56,4.14,4.14,0,0,0,.92-1.81l.07-.22.13-.38a3.16,3.16,0,0,0,.28-1.43h0V16.7c0-.06,0-.13-.07-.22a1.62,1.62,0,0,0-.36-.32h0l-.15-.1L36.82,16h0A2.36,2.36,0,0,0,35,15.83,4.63,4.63,0,0,0,33,17l-.24.25-.22.26h0c-.61.33-1.54.86-2.47,1.49a12,12,0,0,0-2.49,2.14c-.79,1-1.62,2.22-2.37,3.37a18.82,18.82,0,0,1-2.16,2.94,12.32,12.32,0,0,0-2.24,2.74A7.42,7.42,0,0,0,20,32.06a1.34,1.34,0,0,0,.08,1.2l.1.09c.12.08.71-.28,1.52-.76a19.49,19.49,0,0,1,3.47-1.77,15.15,15.15,0,0,0,4-2.15,13.84,13.84,0,0,0,3.17-3.1C32.81,24.88,33.25,24.2,33.63,23.55Z"/><path class="cls-45" d="M31.69,24.91a22.26,22.26,0,0,1-6.92,5.54c-1.92.92-4.44,3-4.67,2.89-.77-.43,1.24-3.52,3.34-5.46,1-.92,3-4,4.8-6a31,31,0,0,1,5.45-4.27c2.81.32,1.05,3.33-2,7.32"/><path class="cls-46" d="M31.7,24.93a28.19,28.19,0,0,1-6.78,5.68A33.43,33.43,0,0,1,20.2,33c-.64-.29,1.72-2.58,3.81-4.53,1-.93,3.15-3.9,4.93-5.88a39.22,39.22,0,0,1,5.34-4.4c2.48,0,.58,2.84-2.58,6.72"/><path class="cls-47" d="M21,32.27c-.29.2-.46.49-.78.75,2.15-2.79,5.65-5.22,8.07-8.86.49-.73,3.43-4.18,3.34-4.61A4.46,4.46,0,0,1,33,17c1.24-1.22,2.86-1.63,3.85-1a3.62,3.62,0,0,0-3.59,1.17,4.45,4.45,0,0,0-1.36,2.58c.08.44-2.85,3.88-3.34,4.61-2.19,3.28-5.36,5.52-7.54,8"/><path class="cls-48" d="M33.33,21.75a38.24,38.24,0,0,0-5,4.94,18.91,18.91,0,0,1-4.73,4.14A28,28,0,0,0,20.19,33c2.15-2.79,5.78-5.15,8.21-8.78a50,50,0,0,1,3.4-4.36q0-.12-.06-.25A4.45,4.45,0,0,1,33.1,17c1.32-1.3,3.06-1.68,4-.93.27.19.51.43.44.58l0,.06a4.42,4.42,0,0,1-.41,1.82,4.69,4.69,0,0,1-1,2c-.49.48-1.59,1.56-2.79,1.12"/><path class="cls-49" d="M33.81,21.83l-.06,0h.06m-5,2.47a49.91,49.91,0,0,1,3.4-4.36q0-.12-.06-.25a4.46,4.46,0,0,1,1.36-2.58,4,4,0,0,1,3-1.3A3.74,3.74,0,0,0,33.11,17a4.46,4.46,0,0,0-1.36,2.58c.08.44-2.85,3.88-3.34,4.61-2.42,3.64-6.05,6-8.21,8.78a14.46,14.46,0,0,1,1.21-.87C23.59,29.73,26.68,27.52,28.82,24.3Z"/><path class="cls-50" d="M33.31,21.76a37.77,37.77,0,0,0-4.94,4.91,18.69,18.69,0,0,1-4.71,4.11A27.59,27.59,0,0,0,20.25,33a17.53,17.53,0,0,1,1.29-1.47c.73-.45,1.37-.78,2-1.18a18.69,18.69,0,0,0,4.71-4.11,37.79,37.79,0,0,1,4.94-4.91c1.2.44,2.3-.63,2.78-1.11a4.65,4.65,0,0,0,1-2c.41-1.28.41-.86.43-.72s0,.14-.31,1.2a4.65,4.65,0,0,1-1,2c-.49.48-1.58,1.55-2.78,1.11"/><path class="cls-51" d="M35.5,21.06a1.93,1.93,0,0,1-3-.29,2.75,2.75,0,0,1,.85-3.36,1.93,1.93,0,0,1,3,.29,2.75,2.75,0,0,1-.85,3.36"/><path class="cls-52" d="M32.57,18.47c0,.23,0,.62-.08.61s-.15-.39-.1-.62.19-.48.28-.46-.06.24-.1.47"/><path class="cls-53" d="M32.52,18.31s0,0,.05,0a.29.29,0,0,0,0-.1c-.05-.1-.23.1-.09.13"/><path class="cls-53" d="M32.44,18.38h0a.08.08,0,0,0,0,0s0,.05,0,0"/><path class="cls-48" d="M35.63,20.25a1.61,1.61,0,0,1-2.52,0,2.38,2.38,0,0,1,.44-2.93,1.61,1.61,0,0,1,2.52,0,2.38,2.38,0,0,1-.44,2.93"/><path class="cls-54" d="M35.63,19.69a1.38,1.38,0,0,1-2.17,0,2,2,0,0,1,.38-2.52,1.38,1.38,0,0,1,2.17,0,2,2,0,0,1-.38,2.52"/><path class="cls-52" d="M34.66,18.54c-.34.5-.82.75-1.07.55s-.19-.77.15-1.28.82-.75,1.07-.55.19.77-.15,1.28"/><path class="cls-52" d="M37.18,17.37a.8.8,0,0,1,.31-.09,1.51,1.51,0,0,1,0,.22h0a1.18,1.18,0,0,0-.27,0,1,1,0,0,0,0-.12"/><path class="cls-52" d="M37,17.12a.91.91,0,0,0,.49-.41c.12-.24-.65-.71-.87-.69.43.19.69.52.6.71s-.1.13-.21.4"/><path class="cls-55" d="M37,16.51c-.06,0-.1,0-.1,0s0,.06.1.06.1,0,.1,0,0-.06-.1-.06"/><path class="cls-56" d="M37,17.38a1.51,1.51,0,0,0,.53-.69.26.26,0,0,0,0-.08h0a1.69,1.69,0,0,1-.69.8h0c.13.09.35-.14.66-.18v0a1.53,1.53,0,0,0-.49.16"/><path class="cls-57" d="M35.42,16.22a.56.56,0,0,0-.29.75.6.6,0,0,0,.81.18.56.56,0,0,0,.29-.75.6.6,0,0,0-.81-.18"/><path class="cls-52" d="M35.43,16.28a.5.5,0,0,0-.28.66.54.54,0,0,0,.73.14.5.5,0,0,0,.28-.66.54.54,0,0,0-.73-.14"/><path class="cls-58" d="M35.52,16.38a.39.39,0,0,0-.22.51.42.42,0,0,0,.56.11.39.39,0,0,0,.22-.51.42.42,0,0,0-.56-.11"/><path class="cls-57" d="M35.75,16.27a.12.12,0,0,0,0,.16.12.12,0,0,0,.16.06.12.12,0,0,0,0-.16.12.12,0,0,0-.16-.06"/><path class="cls-57" d="M36.06,16.74a.06.06,0,0,0,0,.09.07.07,0,0,0,.08,0,.06.06,0,0,0,0-.09.07.07,0,0,0-.08,0"/><path class="cls-57" d="M35.43,16.88a.16.16,0,0,0,0,.23.18.18,0,0,0,.22.1.16.16,0,0,0,0-.23.18.18,0,0,0-.22-.1"/><path class="cls-52" d="M35.17,16a.22.22,0,0,0-.11.27c0,.06.1,0,.22,0s.26-.08.22-.14a.32.32,0,0,0-.33-.09"/><path class="cls-59" d="M35.21,16a.1.1,0,0,0-.05.13s0,0,.11,0,.12,0,.11-.07a.15.15,0,0,0-.16,0"/><path class="cls-49" d="M30,19.46a.07.07,0,0,1,.08-.07.09.09,0,0,1,.07.09.07.07,0,0,1-.08.07.09.09,0,0,1-.07-.09m.28-.48a0,0,0,0,1,0,0,0,0,0,0,1,0,0,0,0,0,0,1,0,0A0,0,0,0,1,30.25,19Zm-.84.67a.06.06,0,0,1,.05.06,0,0,0,0,1-.06,0,.06.06,0,0,1-.05-.06A0,0,0,0,1,29.42,19.66Zm0,.56a.06.06,0,0,1,0,.08.06.06,0,0,1-.08,0,.06.06,0,0,1,0-.08A.06.06,0,0,1,29.39,20.22ZM29,20a.07.07,0,0,1,.06.08.06.06,0,0,1-.07.06A.07.07,0,0,1,29,20.1.06.06,0,0,1,29,20Zm1.78-1.13a.11.11,0,0,1,0,.14.09.09,0,0,1-.14,0,.11.11,0,0,1,0-.14A.09.09,0,0,1,30.82,18.9Zm.26-.41a.1.1,0,0,1,.09.1.08.08,0,0,1-.09.08.1.1,0,0,1-.09-.1A.08.08,0,0,1,31.08,18.49Zm.56-.21a.07.07,0,0,1,0,.09.06.06,0,0,1-.08,0,.07.07,0,0,1,0-.09A.06.06,0,0,1,31.64,18.28Zm-3.27,2.4a.06.06,0,0,1,0,.07,0,0,0,0,1-.07,0,.06.06,0,0,1,0-.07A0,0,0,0,1,28.37,20.68Zm.35,0a.09.09,0,0,1,.08.09.07.07,0,0,1-.08.07.09.09,0,0,1-.08-.09A.07.07,0,0,1,28.72,20.67Zm-.75.48a.1.1,0,0,1,.1.08.08.08,0,0,1-.07.1.1.1,0,0,1-.1-.08A.08.08,0,0,1,28,21.14Zm-.5.38a.07.07,0,0,1,.06.07.06.06,0,0,1-.06.05.07.07,0,0,1-.06-.07A.06.06,0,0,1,27.48,21.52Zm.22.41a.06.06,0,0,1,0,.06,0,0,0,0,1-.05,0,.06.06,0,0,1,0-.06A0,0,0,0,1,27.7,21.93Zm0-.8a0,0,0,0,1,0,.05,0,0,0,0,1-.05,0,0,0,0,0,1,0-.05A0,0,0,0,1,27.69,21.13Zm-.58,1.17a.1.1,0,0,1,.11.08.08.08,0,0,1-.07.1A.1.1,0,0,1,27,22.4.08.08,0,0,1,27.12,22.29ZM27,21.91a.08.08,0,0,1,.06.08.06.06,0,0,1-.07.06.08.08,0,0,1-.07-.08A.06.06,0,0,1,27,21.91Zm-.63,1.5a.17.17,0,0,1,0,.23.16.16,0,0,1-.23,0,.17.17,0,0,1,0-.23A.16.16,0,0,1,26.36,23.42Zm0-.4a.08.08,0,0,1,.07.09.07.07,0,0,1-.08.07.08.08,0,0,1-.07-.09A.07.07,0,0,1,26.4,23Zm-.88,1.45a.07.07,0,0,1,0,.1.07.07,0,0,1-.1,0,.07.07,0,0,1,0-.1A.07.07,0,0,1,25.52,24.46Zm-.69,1.23a.12.12,0,0,1,.07.15.1.1,0,0,1-.14.06.12.12,0,0,1-.07-.15A.1.1,0,0,1,24.83,25.7ZM25,25a.11.11,0,0,1,.14.06.1.1,0,0,1,0,.13.11.11,0,0,1-.14-.06A.1.1,0,0,1,25,25Zm4.81-5.24a.09.09,0,0,1,.1.07.07.07,0,0,1-.06.09.09.09,0,0,1-.1-.07A.07.07,0,0,1,29.86,19.75Z"/><path class="cls-49" d="M31.95,25.51a.07.07,0,0,0,.07-.08.09.09,0,0,0-.08-.08.07.07,0,0,0-.07.08.09.09,0,0,0,.08.08m.49-.25a0,0,0,0,0,0-.05,0,0,0,0,0,0,0,0,0,0,0,0,0,.05A0,0,0,0,0,32.44,25.26Zm-.72.8a.06.06,0,0,0-.06-.06,0,0,0,0,0-.05.05.06.06,0,0,0,.06.06A0,0,0,0,0,31.71,26.06Zm-.55,0a.06.06,0,0,0-.08,0,.06.06,0,0,0,0,.08.06.06,0,0,0,.08,0A.06.06,0,0,0,31.16,26Zm.15.37a.07.07,0,0,0-.07-.07.06.06,0,0,0-.06.07.07.07,0,0,0,.07.07A.06.06,0,0,0,31.31,26.41Zm1.24-1.72a.1.1,0,0,0-.14,0,.1.1,0,0,0,0,.14.1.1,0,0,0,.14,0A.1.1,0,0,0,32.55,24.7Zm.42-.24a.1.1,0,0,0-.1-.09.08.08,0,0,0-.08.09.1.1,0,0,0,.1.09A.08.08,0,0,0,33,24.46Zm.25-.55a.07.07,0,0,0-.08,0,.06.06,0,0,0,0,.08.07.07,0,0,0,.08,0A.06.06,0,0,0,33.22,23.91ZM30.63,27a.06.06,0,0,0-.07,0,0,0,0,0,0,0,.06.06.06,0,0,0,.07,0A0,0,0,0,0,30.63,27Zm0-.35a.09.09,0,0,0-.09-.08.07.07,0,0,0-.08.08.09.09,0,0,0,.09.08A.07.07,0,0,0,30.67,26.69Zm-.52.72a.1.1,0,0,0-.07-.11.08.08,0,0,0-.1.06.1.1,0,0,0,.07.11A.08.08,0,0,0,30.15,27.41Zm-.41.48a.07.07,0,0,0-.07-.06.06.06,0,0,0-.06.06.07.07,0,0,0,.07.06A.06.06,0,0,0,29.74,27.89Zm-.38-.25a.06.06,0,0,0-.05-.05,0,0,0,0,0,0,.05.06.06,0,0,0,.05.05A0,0,0,0,0,29.36,27.64Zm.79.06a0,0,0,0,0-.05,0,0,0,0,0,0,0,.05,0,0,0,0,0,.05,0A0,0,0,0,0,30.15,27.7ZM29,28.2a.1.1,0,0,0-.07-.11.08.08,0,0,0-.11.06.1.1,0,0,0,.07.11A.08.08,0,0,0,29,28.2Zm.37.16a.08.08,0,0,0-.07-.07.06.06,0,0,0-.06.07.08.08,0,0,0,.07.07A.06.06,0,0,0,29.32,28.36Zm-1.52.53a.17.17,0,0,0-.23-.07.16.16,0,0,0,0,.23.17.17,0,0,0,.23.07A.16.16,0,0,0,27.8,28.88Zm.4,0a.08.08,0,0,0-.08-.08.07.07,0,0,0-.07.07.08.08,0,0,0,.08.08A.07.07,0,0,0,28.2,28.87Zm-1.49.79a.07.07,0,0,0-.1,0,.07.07,0,0,0,0,.1.07.07,0,0,0,.1,0A.07.07,0,0,0,26.71,29.66Zm-1.26.61a.12.12,0,0,0-.14-.08.1.1,0,0,0-.07.14.12.12,0,0,0,.14.08A.1.1,0,0,0,25.44,30.27Zm.71-.17a.11.11,0,0,0,0-.14A.09.09,0,0,0,26,30a.11.11,0,0,0,0,.14A.1.1,0,0,0,26.16,30.11Zm5.5-4.5a.09.09,0,0,0-.06-.1.07.07,0,0,0-.09.06.09.09,0,0,0,.06.1A.07.07,0,0,0,31.65,25.61Z"/><path class="cls-49" d="M23.84,28a.07.07,0,0,1-.08.07.09.09,0,0,1-.08-.09.07.07,0,0,1,.08-.07.09.09,0,0,1,.08.09m-.26.49a0,0,0,0,1-.05,0,0,0,0,0,1,0,0,0,0,0,0,1,.05,0A0,0,0,0,1,23.58,28.45Zm.81-.71a.06.06,0,0,1-.05-.06,0,0,0,0,1,.05,0,.06.06,0,0,1,.05.06A0,0,0,0,1,24.39,27.74Zm0-.56a.06.06,0,0,1,0-.08.06.06,0,0,1,.08,0,.06.06,0,0,1,0,.08A.06.06,0,0,1,24.39,27.18Zm.36.17a.07.07,0,0,1-.07-.07.06.06,0,0,1,.07-.06.07.07,0,0,1,.07.07A.06.06,0,0,1,24.75,27.35ZM23,28.55a.11.11,0,0,1,0-.14.09.09,0,0,1,.14,0,.11.11,0,0,1,0,.14A.09.09,0,0,1,23,28.55Zm-.25.42a.1.1,0,0,1-.09-.1.08.08,0,0,1,.09-.08.1.1,0,0,1,.09.1A.08.08,0,0,1,22.77,29Zm-.55.23a.07.07,0,0,1,0-.09.06.06,0,0,1,.08,0,.07.07,0,0,1,0,.09A.06.06,0,0,1,22.22,29.2Zm3.17-2.53a.06.06,0,0,1,0-.07,0,0,0,0,1,.06,0,.06.06,0,0,1,0,.07A0,0,0,0,1,25.39,26.68Zm-.35,0a.09.09,0,0,1-.08-.09.07.07,0,0,1,.08-.07.09.09,0,0,1,.08.09A.07.07,0,0,1,25,26.7Zm.73-.5a.1.1,0,0,1-.11-.07.08.08,0,0,1,.06-.1.1.1,0,0,1,.11.07A.08.08,0,0,1,25.77,26.2Zm.49-.4a.07.07,0,0,1-.06-.07.06.06,0,0,1,.06-.06.07.07,0,0,1,.06.07A.06.06,0,0,1,26.26,25.8ZM26,25.4a.06.06,0,0,1-.05-.06,0,0,0,0,1,.05,0,.06.06,0,0,1,.05.06A0,0,0,0,1,26,25.4Zm0,.8a0,0,0,0,1,0-.05,0,0,0,0,1,.05,0,0,0,0,0,1,0,.05A0,0,0,0,1,26.05,26.2ZM26.59,25a.1.1,0,0,1-.11-.08.08.08,0,0,1,.07-.11.1.1,0,0,1,.11.08A.08.08,0,0,1,26.59,25Zm.14.38a.08.08,0,0,1-.07-.08.06.06,0,0,1,.07-.06.08.08,0,0,1,.07.08A.06.06,0,0,1,26.73,25.39Zm.57-1.53a.17.17,0,0,1-.06-.23.15.15,0,0,1,.22,0,.17.17,0,0,1,.06.23A.15.15,0,0,1,27.3,23.86Zm0,.4a.08.08,0,0,1-.07-.08.07.07,0,0,1,.08-.07.08.08,0,0,1,.07.08A.07.07,0,0,1,27.27,24.26Zm.82-1.48a.07.07,0,0,1,0-.1.07.07,0,0,1,.09,0,.07.07,0,0,1,0,.1A.07.07,0,0,1,28.1,22.78Zm.64-1.26a.12.12,0,0,1-.08-.14.1.1,0,0,1,.14-.07.12.12,0,0,1,.08.14A.1.1,0,0,1,28.74,21.52Zm-.19.72a.11.11,0,0,1-.14-.05.1.1,0,0,1,0-.14.11.11,0,0,1,.14.05A.1.1,0,0,1,28.55,22.23Zm-4.61,5.43a.09.09,0,0,1-.1-.07.07.07,0,0,1,.06-.09.09.09,0,0,1,.1.07A.07.07,0,0,1,23.95,27.67Z"/><path class="cls-49" d="M27.54,28.08a.07.07,0,0,1-.09.06.09.09,0,0,1-.07-.09.07.07,0,0,1,.09-.06.09.09,0,0,1,.07.09m-.32.45a0,0,0,0,1,0,0,0,0,0,0,1,0,0,0,0,0,0,1,0,0A0,0,0,0,1,27.22,28.52Zm.9-.6a.06.06,0,0,1,0-.07,0,0,0,0,1,.06,0,.06.06,0,0,1,0,.07A0,0,0,0,1,28.12,27.93Zm.07-.55a.06.06,0,0,1,0-.09.06.06,0,0,1,.08,0,.06.06,0,0,1,0,.09A.06.06,0,0,1,28.19,27.37Zm.34.21a.07.07,0,0,1-.06-.08.06.06,0,0,1,.07-.05.07.07,0,0,1,.06.08A.06.06,0,0,1,28.53,27.58Zm-1.88,1a.1.1,0,0,1,0-.14.1.1,0,0,1,.14,0,.1.1,0,0,1,0,.14A.1.1,0,0,1,26.65,28.55Zm-.3.38a.1.1,0,0,1-.08-.11.08.08,0,0,1,.1-.07.1.1,0,0,1,.08.11A.08.08,0,0,1,26.36,28.94Zm-.58.16a.07.07,0,0,1,0-.09.06.06,0,0,1,.09,0,.07.07,0,0,1,0,.09A.06.06,0,0,1,25.78,29.1ZM29.25,27a.06.06,0,0,1,0-.07,0,0,0,0,1,.07,0,.06.06,0,0,1,0,.07A0,0,0,0,1,29.25,27Zm-.35,0a.09.09,0,0,1-.07-.1.07.07,0,0,1,.09-.06.09.09,0,0,1,.07.1A.07.07,0,0,1,28.9,27Zm.79-.41a.1.1,0,0,1-.1-.08.08.08,0,0,1,.08-.09.1.1,0,0,1,.1.08A.08.08,0,0,1,29.69,26.58Zm.53-.34a.07.07,0,0,1-.05-.08.06.06,0,0,1,.07,0,.07.07,0,0,1,.05.08A.06.06,0,0,1,30.22,26.24ZM30,25.82a.06.06,0,0,1,0-.06,0,0,0,0,1,.06,0,.06.06,0,0,1,0,.06A0,0,0,0,1,30,25.82Zm-.06.79a0,0,0,0,1,0-.06,0,0,0,0,1,.05,0,0,0,0,0,1,0,.06A0,0,0,0,1,30,26.62Zm.67-1.11a.1.1,0,0,1-.1-.09.08.08,0,0,1,.08-.1.1.1,0,0,1,.1.09A.08.08,0,0,1,30.64,25.51Zm.1.39a.08.08,0,0,1-.06-.08.06.06,0,0,1,.08-.05.08.08,0,0,1,.06.08A.06.06,0,0,1,30.74,25.9Zm.75-1.44a.17.17,0,0,1,0-.23.16.16,0,0,1,.23,0,.17.17,0,0,1,0,.23A.16.16,0,0,1,31.49,24.46Zm-.07.39a.08.08,0,0,1-.06-.09.07.07,0,0,1,.08-.06.08.08,0,0,1,.06.09A.07.07,0,0,1,31.42,24.86Zm1-1.36a.07.07,0,0,1,0-.1.07.07,0,0,1,.1,0,.07.07,0,0,1,0,.1A.07.07,0,0,1,32.42,23.5Zm.79-1.16a.12.12,0,0,1-.06-.15.1.1,0,0,1,.14,0,.12.12,0,0,1,.06.15A.1.1,0,0,1,33.21,22.34Zm-.27.68a.11.11,0,0,1-.13-.07.1.1,0,0,1,.05-.13.11.11,0,0,1,.13.07A.1.1,0,0,1,32.94,23ZM27.69,27.8a.09.09,0,0,1-.09-.08.07.07,0,0,1,.07-.09.09.09,0,0,1,.09.08A.07.07,0,0,1,27.69,27.8Z"/></svg>