<svg id="Layer_1" data-name="Layer 1" xmlns="http://www.w3.org/2000/svg" xmlns:xlink="http://www.w3.org/1999/xlink" viewBox="0 0 62.65 62.65"><defs><style>.cls-1{fill:#73adff;}.cls-2{fill:#808184;}.cls-3{fill:url(#linear-gradient);}.cls-4{fill:#d4cedb;}.cls-5{fill:#000009;}.cls-6{fill:#bcdef7;}.cls-7{fill:url(#linear-gradient-2);}.cls-8,.cls-9{opacity:0.5;}.cls-8{fill:url(#linear-gradient-3);}.cls-9{fill:url(#linear-gradient-4);}.cls-10{font-size:7.99px;font-family:Poppins-SemiBold, Poppins;font-weight:700;}.cls-11{fill:#525731;}.cls-12,.cls-13{fill:none;stroke:#7ae700;stroke-linecap:round;stroke-miterlimit:10;stroke-width:2px;}.cls-13{stroke-dasharray:5.05 5.05;}.cls-14{fill:url(#linear-gradient-5);}.cls-15{fill:url(#linear-gradient-6);}.cls-16{fill:url(#linear-gradient-7);}.cls-17{fill:url(#linear-gradient-8);}.cls-18{fill:url(#linear-gradient-9);}.cls-19{fill:url(#linear-gradient-10);}.cls-20{fill:url(#linear-gradient-11);}.cls-21{fill:url(#linear-gradient-12);}.cls-22{fill:url(#linear-gradient-13);}.cls-23{fill:url(#linear-gradient-14);}.cls-24{fill:url(#linear-gradient-15);}.cls-25{fill:url(#linear-gradient-16);}.cls-26{fill:url(#linear-gradient-17);}.cls-27{fill:url(#linear-gradient-18);}.cls-28{fill:url(#linear-gradient-19);}.cls-29{fill:url(#linear-gradient-20);}.cls-30{fill:url(#linear-gradient-21);}.cls-31{fill:url(#radial-gradient);}.cls-32{fill:url(#radial-gradient-2);}.cls-33{fill:url(#linear-gradient-22);}.cls-34{fill:url(#linear-gradient-23);}.cls-35{fill:url(#linear-gradient-24);}.cls-36{fill:url(#linear-gradient-25);}.cls-37{fill:url(#linear-gradient-26);}.cls-38{fill:url(#linear-gradient-27);}.cls-39{fill:#221f1f;}.cls-40{fill:#fff;}</style><linearGradient id="linear-gradient" x1="9.33" y1="53.32" x2="52.39" y2="10.26" gradientUnits="userSpaceOnUse"><stop offset="0" stop-color="#babcbf" stop-opacity="0"/><stop offset="1" stop-color="#b8bcc1"/></linearGradient><linearGradient id="linear-gradient-2" x1="31.33" y1="4.07" x2="31.33" y2="52.18" gradientUnits="userSpaceOnUse"><stop offset="0" stop-color="#89b8e4" stop-opacity="0"/><stop offset="1" stop-color="#a0c3e4"/></linearGradient><linearGradient id="linear-gradient-3" x1="28.65" y1="28.74" x2="12.07" y2="10.57" gradientUnits="userSpaceOnUse"><stop offset="0" stop-color="#e2f3ff" stop-opacity="0.1"/><stop offset="1" stop-color="#e2f3ff"/></linearGradient><linearGradient id="linear-gradient-4" x1="36.51" y1="36.51" x2="59.07" y2="59.07" xlink:href="#linear-gradient-3"/><linearGradient id="linear-gradient-5" x1="2251.46" y1="19.1" x2="2251.66" y2="20.06" gradientTransform="translate(-2204.66)" gradientUnits="userSpaceOnUse"><stop offset="0" stop-color="#84c241"/><stop offset="0.02" stop-color="#89c441"/><stop offset="0.17" stop-color="#a3cd43"/><stop offset="0.3" stop-color="#b3d345"/><stop offset="0.4" stop-color="#b9d545"/><stop offset="1" stop-color="#456f34"/></linearGradient><linearGradient id="linear-gradient-6" x1="2251.27" y1="22.21" x2="2252.14" y2="22.43" gradientTransform="translate(-2204.66)" gradientUnits="userSpaceOnUse"><stop offset="0" stop-color="#456f34"/><stop offset="0.6" stop-color="#b9d545"/><stop offset="0.7" stop-color="#b3d345"/><stop offset="0.83" stop-color="#a3cd43"/><stop offset="0.98" stop-color="#89c441"/><stop offset="1" stop-color="#84c241"/></linearGradient><linearGradient id="linear-gradient-7" x1="2251.39" y1="22.46" x2="2251.09" y2="23.81" gradientTransform="translate(-2204.66)" gradientUnits="userSpaceOnUse"><stop offset="0" stop-color="#b9d545"/><stop offset="0.24" stop-color="#d5b136"/><stop offset="0.47" stop-color="#ec922a"/><stop offset="0.61" stop-color="#f58725"/><stop offset="1" stop-color="#965624"/></linearGradient><linearGradient id="linear-gradient-8" x1="2256.91" y1="20.56" x2="2257.57" y2="20.56" gradientTransform="translate(-2204.66)" gradientUnits="userSpaceOnUse"><stop offset="0" stop-color="#264b9b"/><stop offset="1" stop-color="#10bef0"/></linearGradient><linearGradient id="linear-gradient-9" x1="2257.77" y1="20.87" x2="2258.48" y2="20.87" xlink:href="#linear-gradient-8"/><linearGradient id="linear-gradient-10" x1="2257.09" y1="20.7" x2="2258.79" y2="20.53" xlink:href="#linear-gradient-6"/><linearGradient id="linear-gradient-11" x1="2251.1" y1="21.47" x2="2251.28" y2="20.82" xlink:href="#linear-gradient-6"/><linearGradient id="linear-gradient-12" x1="2251.15" y1="21.23" x2="2251.67" y2="19.4" xlink:href="#linear-gradient-6"/><linearGradient id="linear-gradient-13" x1="2254.34" y1="23.03" x2="2255.21" y2="19.97" xlink:href="#linear-gradient-6"/><linearGradient id="linear-gradient-14" x1="2255.28" y1="23.2" x2="2255.44" y2="21.73" xlink:href="#linear-gradient-8"/><linearGradient id="linear-gradient-15" x1="-11392.54" y1="22.94" x2="-11390.48" y2="22.94" gradientTransform="matrix(-1, 0, 0, 1, -11338.77, 0)" xlink:href="#linear-gradient-8"/><linearGradient id="linear-gradient-16" x1="2256.98" y1="25.04" x2="2255.86" y2="25.51" xlink:href="#linear-gradient-7"/><linearGradient id="linear-gradient-17" x1="2256.88" y1="25.03" x2="2255.96" y2="24.39" xlink:href="#linear-gradient-7"/><linearGradient id="linear-gradient-18" x1="2256.53" y1="22.67" x2="2257.51" y2="23.27" xlink:href="#linear-gradient-6"/><linearGradient id="linear-gradient-19" x1="2258.32" y1="24.03" x2="2258.9" y2="25" xlink:href="#linear-gradient-6"/><linearGradient id="linear-gradient-20" x1="2258" y1="23.15" x2="2258.35" y2="24.05" xlink:href="#linear-gradient-6"/><linearGradient id="linear-gradient-21" x1="-11386.31" y1="20.27" x2="-11384.77" y2="20.27" gradientTransform="matrix(-1, 0, 0, 1, -11338.77, 0)" xlink:href="#linear-gradient-5"/><radialGradient id="radial-gradient" cx="-10936.41" cy="20.14" r="0.65" gradientTransform="matrix(-1.23, 0, 0, 1, -13355.25, 0)" gradientUnits="userSpaceOnUse"><stop offset="0" stop-color="#3066af"/><stop offset="0.71" stop-color="#2b60ab"/><stop offset="1" stop-color="#285ca8"/></radialGradient><radialGradient id="radial-gradient-2" cx="-10936.39" cy="20.18" r="0.6" gradientTransform="matrix(-1.23, 0, 0, 1, -13355.25, 0)" gradientUnits="userSpaceOnUse"><stop offset="0" stop-color="#ed4523"/><stop offset="0.13" stop-color="#e74322"/><stop offset="0.3" stop-color="#d73e20"/><stop offset="0.49" stop-color="#bb351d"/><stop offset="0.69" stop-color="#952918"/><stop offset="0.91" stop-color="#651912"/><stop offset="1" stop-color="#4e120f"/></radialGradient><linearGradient id="linear-gradient-22" x1="2255.05" y1="21.64" x2="2254.79" y2="22.79" gradientTransform="translate(-2204.66)" gradientUnits="userSpaceOnUse"><stop offset="0" stop-color="#fbed34"/><stop offset="0.17" stop-color="#e9e739"/><stop offset="0.49" stop-color="#cfdd3f"/><stop offset="0.78" stop-color="#bfd744"/><stop offset="1" stop-color="#b9d545"/></linearGradient><linearGradient id="linear-gradient-23" x1="-11391.95" y1="22.77" x2="-11389.88" y2="22.77" gradientTransform="matrix(-1, 0, 0, 1, -11338.77, 0)" xlink:href="#linear-gradient-8"/><linearGradient id="linear-gradient-24" x1="2253.67" y1="24.94" x2="2252.24" y2="25.9" xlink:href="#linear-gradient-7"/><linearGradient id="linear-gradient-25" x1="2252.8" y1="22.61" x2="2254.55" y2="22.11" xlink:href="#linear-gradient-6"/><linearGradient id="linear-gradient-26" x1="2253.52" y1="23.93" x2="2254.52" y2="24.36" xlink:href="#linear-gradient-6"/><linearGradient id="linear-gradient-27" x1="2253.55" y1="22.83" x2="2254.38" y2="22.02" xlink:href="#linear-gradient-8"/></defs><title>number-line-icon</title><path class="cls-1" d="M31.33,58.35a27,27,0,1,1,27-27A27.05,27.05,0,0,1,31.33,58.35Z"/><path class="cls-2" d="M31.33,62.65A31.33,31.33,0,1,1,62.65,31.33,31.36,31.36,0,0,1,31.33,62.65Z"/><path class="cls-3" d="M31.33,62.65A31.33,31.33,0,1,1,62.65,31.33,31.36,31.36,0,0,1,31.33,62.65Z"/><path class="cls-4" d="M31.33,59.78A28.46,28.46,0,1,1,59.78,31.33,28.49,28.49,0,0,1,31.33,59.78Z"/><path class="cls-5" d="M31.33,59.3a28,28,0,1,1,28-28A28,28,0,0,1,31.33,59.3Z"/><path class="cls-6" d="M31.33,58.59A27.26,27.26,0,1,1,58.59,31.33,27.29,27.29,0,0,1,31.33,58.59Z"/><circle class="cls-7" cx="31.33" cy="31.33" r="26.78"/><path class="cls-8" d="M30.14,28.55V7.2A24.16,24.16,0,0,0,7.33,28.55Z"/><path class="cls-9" d="M47.17,13.09A24.15,24.15,0,0,1,13.09,47.17,24.15,24.15,0,1,0,47.17,13.09Z"/><text class="cls-10" transform="translate(6.2 41.35) scale(0.99 1)">0</text><text class="cls-10" transform="translate(21.39 41.35) scale(0.99 1)">1</text><text class="cls-10" transform="translate(34.77 41.35) scale(0.99 1)">2</text><text class="cls-10" transform="translate(48.81 41.35) scale(0.99 1)">3</text><rect class="cls-11" x="7.99" y="30.05" width="44.27" height="2.1"/><rect class="cls-11" x="50.41" y="23.71" width="1.55" height="8.44" rx="0.78" ry="0.78"/><rect class="cls-11" x="36.27" y="23.71" width="1.55" height="8.44" rx="0.78" ry="0.78"/><rect class="cls-11" x="22.13" y="23.71" width="1.55" height="8.44" rx="0.78" ry="0.78"/><rect class="cls-11" x="7.99" y="23.71" width="1.55" height="8.44" rx="0.78" ry="0.78"/><path class="cls-12" d="M9,22.75a1.77,1.77,0,0,1,.31-.94"/><path class="cls-13" d="M10.59,20.55c3.16-2.25,10.7-4.25,19.51-4.25,9.52,0,17.56,2.34,20.19,4.8"/><path class="cls-12" d="M50.88,21.8a1.77,1.77,0,0,1,.31.94"/><path class="cls-12" d="M51.41,22.75a1.77,1.77,0,0,1,.31-.94"/><path class="cls-14" d="M46.22,19.9a.85.85,0,0,0,1,.31.58.58,0,0,0,.37-.83.85.85,0,0,0-1-.31A.58.58,0,0,0,46.22,19.9Z"/><path class="cls-15" d="M47,22.56a.53.53,0,0,1,.4.09.45.45,0,0,1,.06-.15,1.16,1.16,0,0,0,.06-.17l.08-.23v0L47,21.77v0l-.2.54a.9.9,0,0,1-.12.22.52.52,0,0,1-.15.12l-.05,0C46.68,22.76,46.82,22.63,47,22.56Z"/><path class="cls-16" d="M48.17,23a.27.27,0,0,0-.33-.09l-.07,0c-.15,0-.33-.05-.4-.18a.14.14,0,0,1,0-.08.53.53,0,0,0-.4-.09c-.14.07-.28.2-.47.15-.22.12-.5.18-.72.3a1.61,1.61,0,0,0-.39.29c-.07.07-.19.16-.21.26a.36.36,0,0,0-.15,0c-.14.05-.21.18-.15.28a.3.3,0,0,0,.36.09c.14-.05.2-.17.15-.27a1.78,1.78,0,0,0,.21-.24,1.6,1.6,0,0,1,.42-.36c.06,0,.38-.18.38,0s-.08.1-.1.14a1.82,1.82,0,0,0-.13.21,1.12,1.12,0,0,0-.14.44l-.08,0a.22.22,0,0,0-.14.31.31.31,0,0,0,.38.11A.22.22,0,0,0,46.3,24l0,0a1.37,1.37,0,0,0,.15-.47,1,1,0,0,1,.16-.32c.06-.09.09-.15.2-.19a.69.69,0,0,1,.1.39,1.11,1.11,0,0,0,0,.22c-.11.07-.16.17-.11.26a.32.32,0,0,0,.38.08c.15-.06.23-.19.18-.29a.26.26,0,0,0-.23-.1v-.09c0-.12-.07-.4,0-.48s.15,0,.21,0l.26.08h0a.16.16,0,0,0,0,.06.27.27,0,0,0,.33.09C48.16,23.17,48.22,23.06,48.17,23Z"/><path class="cls-17" d="M52.25,20.51s.33.13.66.29a4.18,4.18,0,0,1-.29-.47A1.46,1.46,0,0,0,52.25,20.51Z"/><path class="cls-18" d="M53.82,21.36a1.74,1.74,0,0,0-.71-1,2.65,2.65,0,0,1,.17.61l.18.11Z"/><path class="cls-19" d="M53,20.31a.56.56,0,0,0-.34,0,4.18,4.18,0,0,0,.29.47l.37.19a2.65,2.65,0,0,0-.17-.61Z"/><path class="cls-20" d="M46.14,21.37l.26.1h0A11.43,11.43,0,0,0,48,21.32l.17,0a9.54,9.54,0,0,1-3.31-.47A4.38,4.38,0,0,0,46.14,21.37Z"/><path class="cls-21" d="M48.39,21.13a2.42,2.42,0,0,0-.77-1.57,7.46,7.46,0,0,0-.86.11,5.46,5.46,0,0,0-1.12.17c-.63.16-.93.61-.8.88a.29.29,0,0,0,.07.08,9.54,9.54,0,0,0,3.31.47C48.31,21.24,48.39,21.2,48.39,21.13Z"/><path class="cls-22" d="M53.8,21.6a.33.33,0,0,0,0-.25h0l-.36-.26a14.72,14.72,0,0,0-1.75-.81,4.22,4.22,0,0,0-1.35-.22,2.29,2.29,0,0,1-1.54-.36,2.29,2.29,0,0,0-1.2-.15,2.42,2.42,0,0,1,.77,1.57c0,.1-.22.16-.35.18a11.43,11.43,0,0,1-1.62.16h0l.61.3.56.32.19.14a6.43,6.43,0,0,0,.83.57,6.1,6.1,0,0,1-.61-1h.32c-.05-.06,0-.11,0-.18a18.23,18.23,0,0,1,5,.81l.15-.1A1.06,1.06,0,0,0,53.8,21.6Z"/><path class="cls-23" d="M48.3,21.77a3.35,3.35,0,0,1,1.92,1.36v-.05c.16.17,1.33-.05,1.45-.08a4.89,4.89,0,0,0,1.53-.6,18,18,0,0,0-4.92-.81C48.32,21.66,48.25,21.71,48.3,21.77Z"/><path class="cls-24" d="M53.77,22.18c-.08-.2-.18-.32-.38-.15a6.35,6.35,0,0,0-1.68,1.9c.34-.2.74-.31,1.1-.51l-.13.05S53.66,22.67,53.77,22.18Z"/><path class="cls-25" d="M51.57,24.81a3.65,3.65,0,0,0-.54.08.39.39,0,0,0-.35-.1c-.19,0-.32.14-.29.26s.19.19.38.17a.34.34,0,0,0,.29-.18c.18,0,.48.06.61.1s.39.18.26.37a.42.42,0,0,0-.06.13h0c-.18,0-.3.15-.27.29a.32.32,0,0,0,.37.21c.18,0,.3-.15.27-.29a.21.21,0,0,0,0-.09l.08-.09a1.27,1.27,0,0,0-.61-.68S51.6,24.89,51.57,24.81Z"/><path class="cls-26" d="M51.56,24.71c.14-.12.31-.08.48-.07l-.23-.11a4.63,4.63,0,0,1-.51-.25.19.19,0,0,0-.16.2.24.24,0,0,0,.28.15h0a.52.52,0,0,0,.13.15A.12.12,0,0,1,51.56,24.71Z"/><path class="cls-27" d="M51.72,23.9A6.39,6.39,0,0,1,53.39,22c.2-.17.3,0,.38.15a.31.31,0,0,0,0-.14.53.53,0,0,0-.6-.38,20.83,20.83,0,0,0-2.07,2.21.3.3,0,0,0,.07.32l.13.1.14.08A.6.6,0,0,1,51.72,23.9Z"/><path class="cls-28" d="M53.22,24.73c-.29,0-1.08,0-1.08,0l-.09,0c-.17,0-.34-.05-.48.07a.12.12,0,0,0,0,.07l0,0h0c0,.07.1.14.1.17a1.27,1.27,0,0,1,.61.68c.16-.18.31-.42.46-.43a1.78,1.78,0,0,0,1.39-.45c.6-.56,1.67-1.23,1.61-1.53a2.23,2.23,0,0,0-.78.27C54.83,23.63,53.5,24.75,53.22,24.73Z"/><path class="cls-29" d="M54.56,22.8c-.6.17-1.43.49-1.75.62s-.76.31-1.1.51v0a.6.6,0,0,0-.27.46,2.78,2.78,0,0,0,.37.17,1.57,1.57,0,0,0,.87-.11c.6-.21,2.29-.91,2.29-.91h0a2.23,2.23,0,0,1,.78-.27h0C55.64,22.94,55.32,22.59,54.56,22.8Z"/><path class="cls-30" d="M46.07,20.53a.85.85,0,0,0,1,.31.58.58,0,0,0,.37-.83.85.85,0,0,0-1-.31A.58.58,0,0,0,46.07,20.53Z"/><path class="cls-31" d="M46.11,20.54a.77.77,0,0,0,.92.28.53.53,0,0,0,.34-.75.77.77,0,0,0-.92-.28A.53.53,0,0,0,46.11,20.54Z"/><path class="cls-32" d="M46.13,20.55a.72.72,0,0,0,.86.26.49.49,0,0,0,.32-.7.72.72,0,0,0-.86-.26A.49.49,0,0,0,46.13,20.55Z"/><path class="cls-33" d="M52.33,22.14a5.88,5.88,0,0,1-.59-.12l-.37-.1-.18,0-.2-.05-.54-.09-.34,0c-.11,0-.21-.06-.32-.09a1.74,1.74,0,0,0-.41,0c-.1,0-.19,0-.3,0l-.21,0a3.48,3.48,0,0,0-.41,0,.56.56,0,0,0-.29.08c-.06,0-.08.07-.06.12a.17.17,0,0,0,.12.09c.06,0,.08,0,.1,0s0-.12,0-.12a1,1,0,0,1,.4,0h0l.09,0s0,0,0,.06,0,.1.06.14.08.15.14.13,0-.15,0-.19,0-.12.07-.12.19,0,.23.11,0,.22.07.32a1.07,1.07,0,0,0,.1.25s.1.15.18.14,0-.11,0-.14a2,2,0,0,1-.09-.21.67.67,0,0,1,0-.23.23.23,0,0,1,.11-.22.29.29,0,0,1,.38.09.72.72,0,0,1,0,.56.62.62,0,0,0,0,.43.15.15,0,0,0,.15.06c.06,0,.06,0,.06-.09s0-.28,0-.42a1.21,1.21,0,0,1,.09-.39c0-.09.11-.18.23-.14s.21.32.19.49-.14.59,0,.6.13-.09.15-.13l.12-.24c.07-.14.11-.3.18-.44s.1-.11.17-.05a.26.26,0,0,1,.06.17c0,.11,0,.22,0,.33s0,.15,0,.18.08,0,.11-.06a2.18,2.18,0,0,0,.13-.2,1.44,1.44,0,0,1,.06-.14c.1-.14.32-.08.47-.07s.14,0,.16-.06S52.39,22.15,52.33,22.14Z"/><path class="cls-34" d="M53.17,21.66a.75.75,0,0,0-.46.2s-1.45,1.32-1.61,2A20.83,20.83,0,0,1,53.17,21.66Z"/><path class="cls-35" d="M48.49,25.13c-.11-.07,0-.23.06-.39l-.07,0a3.77,3.77,0,0,0-.26-.31.14.14,0,0,0,0-.16.24.24,0,0,0-.29-.08.17.17,0,0,0-.11.24.23.23,0,0,0,.24.09,3.67,3.67,0,0,0,.32.42,3.4,3.4,0,0,0-1.13,0l-.06,0A.33.33,0,0,0,47,25c-.13.05-.2.17-.14.27a.29.29,0,0,0,.35.09.22.22,0,0,0,.16-.21c.31-.17,1,.09,1,.09a1.19,1.19,0,0,0-.94.68h0l-.08,0a.16.16,0,0,0-.1.23.24.24,0,0,0,.28.09.16.16,0,0,0,.1-.23l0,0a1,1,0,0,1,.18-.32c.21-.3.83-.24.83-.24a1.82,1.82,0,0,0,0,.63.42.42,0,0,0,.06.12.17.17,0,0,0-.06.22.28.28,0,0,0,.34.09c.13,0,.19-.17.14-.27a.27.27,0,0,0-.31-.1h0c-.19-.33.08-.83.08-.83l.15-.12A.86.86,0,0,1,48.49,25.13Z"/><path class="cls-36" d="M49.85,23l-.06-.06a9.14,9.14,0,0,1-1.67-1.19H48a6.1,6.1,0,0,0,.61,1l.59.34,0,.08A1.07,1.07,0,0,1,49.85,23Z"/><path class="cls-37" d="M49.16,23.22c-.07.28-.29,1.19-.32,1.28s-.19.18-.29.24-.17.33-.06.39a.86.86,0,0,0,.48,0c.16-.13.43-.35.72-.62a2.13,2.13,0,0,0,.51-1.12,1.75,1.75,0,0,0-.33-.39A1.07,1.07,0,0,0,49.16,23.22Z"/><path class="cls-38" d="M48.12,21.75a9.14,9.14,0,0,0,1.67,1.19,1.79,1.79,0,0,1,.4.45c0-.12,0-.21,0-.27A3.1,3.1,0,0,0,48.12,21.75Z"/><path class="cls-39" d="M46.54,20.6l.16-.67A.86.86,0,0,0,46.54,20.6Z"/><ellipse class="cls-40" cx="46.91" cy="20.1" rx="0.07" ry="0.06"/><path class="cls-40" d="M47.57,19.73h.25l.29,0,.37.06a1.65,1.65,0,0,1,.42.15L49,20l0,0,0,0,.05,0,.23.06c.16,0,.34,0,.52,0l.55,0a3.77,3.77,0,0,1,.55.09l.26.08.24.09.45.17.4.16.18.07.16.07.26.11.17.07.06,0-.06,0-.17-.06L52.61,21l-.16-.06-.18-.06-.41-.14-.46-.16-.24-.08-.25-.07a3.66,3.66,0,0,0-.53-.09l-.54,0a4.68,4.68,0,0,1-.53-.05,1.32,1.32,0,0,1-.25-.07l-.06,0-.06,0,0,0,0,0a1.66,1.66,0,0,0-.38-.16l-.36-.08-.28,0-.18,0Z"/></svg>