<svg id="Layer_1" data-name="Layer 1" xmlns="http://www.w3.org/2000/svg" xmlns:xlink="http://www.w3.org/1999/xlink" viewBox="0 0 62.65 62.65"><defs><style>.cls-1{fill:#2f331d;}.cls-2{fill:#525731;}.cls-3{fill:url(#linear-gradient);}.cls-4{fill:url(#linear-gradient-2);}.cls-5{fill:url(#linear-gradient-3);}.cls-6{fill:url(#linear-gradient-4);}.cls-7{fill:url(#linear-gradient-5);}.cls-8{fill:url(#linear-gradient-6);}.cls-9{fill:url(#linear-gradient-7);}.cls-10{fill:url(#linear-gradient-8);}.cls-11{fill:url(#linear-gradient-9);}.cls-12{fill:url(#linear-gradient-10);}.cls-13{fill:url(#linear-gradient-11);}.cls-14{fill:url(#linear-gradient-12);}.cls-15{fill:url(#linear-gradient-13);}.cls-16{fill:url(#linear-gradient-14);}.cls-17{fill:url(#linear-gradient-15);}.cls-18{fill:url(#linear-gradient-16);}.cls-19{fill:#172b00;opacity:0.1;}.cls-20{fill:#78866c;}.cls-20,.cls-22,.cls-23,.cls-24,.cls-25,.cls-26,.cls-27,.cls-28,.cls-29,.cls-30,.cls-31,.cls-32,.cls-33,.cls-34,.cls-35,.cls-36{fill-rule:evenodd;}.cls-21,.cls-26{fill:#303c36;}.cls-22{fill:#84a18f;}.cls-23{fill:#9dad90;}.cls-24{fill:#192121;}.cls-25{fill:#333633;}.cls-27{fill:#384240;}.cls-28{fill:#242424;}.cls-29{fill:#4b5c5a;}.cls-30{fill:#fff;}.cls-31{fill:#3e4b4a;}.cls-32{fill:#151515;}.cls-34{fill:#f9fae8;}.cls-35{fill:#0e1f26;}.cls-36{fill:#c9e8e7;}</style><linearGradient id="linear-gradient" x1="58.51" y1="-77.01" x2="14.8" y2="-48.65" gradientTransform="matrix(0.64, -0.77, -0.77, -0.64, -37.17, 21.13)" gradientUnits="userSpaceOnUse"><stop offset="0.05" stop-color="#9ded16"/><stop offset="0.32" stop-color="#85de0a"/><stop offset="0.51" stop-color="#71d200"/><stop offset="0.92" stop-color="#54b000"/></linearGradient><linearGradient id="linear-gradient-2" x1="59.63" y1="-70.54" x2="21.05" y2="-45.5" gradientTransform="matrix(0.64, -0.77, -0.77, -0.64, -37.17, 21.13)" gradientUnits="userSpaceOnUse"><stop offset="0.05" stop-color="#9ded16"/><stop offset="0.6" stop-color="#85de0a"/><stop offset="1" stop-color="#71d200"/></linearGradient><linearGradient id="linear-gradient-3" x1="52.03" y1="-79.68" x2="13.61" y2="-54.75" xlink:href="#linear-gradient-2"/><linearGradient id="linear-gradient-4" x1="39.53" y1="-82.87" x2="38.32" y2="-38.45" gradientTransform="translate(-34.32 51.2) rotate(39.6)" gradientUnits="userSpaceOnUse"><stop offset="0" stop-color="#71d200"/><stop offset="0.92" stop-color="#277400"/></linearGradient><linearGradient id="linear-gradient-5" x1="20.44" y1="-69.34" x2="21.84" y2="-53.43" gradientTransform="matrix(0.64, -0.77, -0.77, -0.64, -37.17, 21.13)" gradientUnits="userSpaceOnUse"><stop offset="0.16" stop-color="#d2ff29"/><stop offset="0.56" stop-color="#d2fd28"/><stop offset="0.71" stop-color="#d3f625"/><stop offset="0.81" stop-color="#d5eb20"/><stop offset="0.9" stop-color="#d7da18"/><stop offset="0.97" stop-color="#dac40e"/><stop offset="1" stop-color="#dcb708"/></linearGradient><linearGradient id="linear-gradient-6" x1="28.83" y1="-75.32" x2="30.03" y2="-61.9" xlink:href="#linear-gradient-5"/><linearGradient id="linear-gradient-7" x1="38.3" y1="-77.12" x2="36.9" y2="-67.03" xlink:href="#linear-gradient-5"/><linearGradient id="linear-gradient-8" x1="44.93" y1="-76.33" x2="44.46" y2="-70.71" xlink:href="#linear-gradient-5"/><linearGradient id="linear-gradient-9" x1="52.72" y1="-76.29" x2="50.15" y2="-71.66" xlink:href="#linear-gradient-5"/><linearGradient id="linear-gradient-10" x1="50.5" y1="-70.61" x2="56.57" y2="-70.61" gradientTransform="matrix(0.64, -0.77, -0.77, -0.64, -37.17, 21.13)" gradientUnits="userSpaceOnUse"><stop offset="0" stop-color="#dcb708"/><stop offset="0.03" stop-color="#dac40e"/><stop offset="0.1" stop-color="#d7da18"/><stop offset="0.19" stop-color="#d5eb20"/><stop offset="0.29" stop-color="#d3f625"/><stop offset="0.44" stop-color="#d2fd28"/><stop offset="0.84" stop-color="#d2ff29"/></linearGradient><linearGradient id="linear-gradient-11" x1="43.09" y1="-68.35" x2="54.9" y2="-68.35" xlink:href="#linear-gradient-10"/><linearGradient id="linear-gradient-12" x1="36.08" y1="-63.79" x2="51.4" y2="-63.79" xlink:href="#linear-gradient-10"/><linearGradient id="linear-gradient-13" x1="29.29" y1="-58.45" x2="47.35" y2="-58.45" xlink:href="#linear-gradient-10"/><linearGradient id="linear-gradient-14" x1="22.41" y1="-51.02" x2="42.95" y2="-51.02" xlink:href="#linear-gradient-10"/><linearGradient id="linear-gradient-15" x1="41.31" y1="-75.97" x2="34.4" y2="-34.61" gradientTransform="matrix(0.64, -0.77, -0.77, -0.64, -37.17, 21.13)" gradientUnits="userSpaceOnUse"><stop offset="0.16" stop-color="#d2ff29"/><stop offset="0.56" stop-color="#d2fd28"/><stop offset="0.71" stop-color="#d4f624"/><stop offset="0.82" stop-color="#d6eb1d"/><stop offset="0.85" stop-color="#d7e51a"/><stop offset="0.86" stop-color="#d8df18"/><stop offset="0.87" stop-color="#d9cf11"/><stop offset="0.88" stop-color="#dcb708"/><stop offset="1" stop-color="#4b4100"/></linearGradient><linearGradient id="linear-gradient-16" x1="35.86" y1="-84.63" x2="31.72" y2="-33.09" gradientTransform="translate(-34.32 51.2) rotate(39.6)" gradientUnits="userSpaceOnUse"><stop offset="0.04" stop-color="#91b708"/><stop offset="0.92" stop-color="#dcb708"/><stop offset="1" stop-color="#4b4100"/></linearGradient></defs><title>lefticon-cicadas</title><circle class="cls-1" cx="31.33" cy="31.33" r="31.33"/><path class="cls-2" d="M31.33,61.65A30.33,30.33,0,1,1,61.65,31.33,30.36,30.36,0,0,1,31.33,61.65Z"/><path class="cls-3" d="M7.54,34.63c4-1.77,4.38-5.65,8.54-9.49s9-5.38,17.24-4.91,20.52,1.54,25,.26C56.39,25.37,50.6,38,43,44s-15.68,6.34-22.58,3.24C14,44.3,9.74,38.22,7.54,34.63Z"/><path class="cls-4" d="M56,21.83c-11.8,3.07-21.62-1.35-30.39.24s-9,7.13-14.71,11.36C24.15,37.71,44,34.92,56,21.83Z"/><path class="cls-5" d="M10.94,37.58c10.34,2.33,28.26,6.69,44.58-12.64-1.88,5.49-9.71,19-19.85,22.51C27.44,50.33,16.06,46.08,10.94,37.58Z"/><path class="cls-6" d="M7.5,34.54a8,8,0,0,0,2.92-2.24,24.65,24.65,0,0,0,1.7-2.39,31,31,0,0,1,2.28-3.16A18.77,18.77,0,0,1,16,25.06c4.29-4,9.3-5.39,17.31-4.93l4.14.25c7.6.48,17.07,1.09,20.84,0l.2-.06-.07.19c-.78,2-5,12.12-11.06,19.32a30,30,0,0,1-4.26,4.21c-7,5.52-15.06,6.68-22.69,3.25C15.56,45.12,11.32,41,7.46,34.67l-.06-.09ZM58.16,20.63c-3.92,1-13.21.42-20.7-.05l-4.14-.25c-7.95-.45-12.92,1-17.17,4.88a18.53,18.53,0,0,0-1.6,1.68A30.89,30.89,0,0,0,12.28,30a24.76,24.76,0,0,1-1.72,2.41,8.13,8.13,0,0,1-2.89,2.24c3.83,6.23,8,10.31,12.8,12.46C28,50.53,36,49.38,43,43.9a29.81,29.81,0,0,0,4.24-4.18C53.1,32.74,57.22,23,58.16,20.63Z"/><path class="cls-7" d="M17.16,36.85l-.08.17a6.91,6.91,0,0,1,3.49,4,12.69,12.69,0,0,0,2.85,4.33,15.94,15.94,0,0,0,6.9,3.81l0-.19a15.71,15.71,0,0,1-6.8-3.75A12.51,12.51,0,0,1,20.74,41,7.08,7.08,0,0,0,17.16,36.85Z"/><path class="cls-8" d="M27.24,37l-.06.18a8.35,8.35,0,0,1,4,3.45,15.19,15.19,0,0,0,4,4.05,7.88,7.88,0,0,0,5.18,1.24l0-.19a7.66,7.66,0,0,1-5-1.21,15,15,0,0,1-4-4A8.52,8.52,0,0,0,27.24,37Z"/><path class="cls-9" d="M36.18,35.6l0,.19a9,9,0,0,1,4.48,2.46,6.36,6.36,0,0,0,2.7,1.67,7.41,7.41,0,0,0,4-.11l-.08-.18a7.36,7.36,0,0,1-3.92.1,6.11,6.11,0,0,1-2.61-1.62A9.21,9.21,0,0,0,36.18,35.6Z"/><path class="cls-10" d="M43.93,32.57v.19a5.47,5.47,0,0,1,2.45.86,8.32,8.32,0,0,0,2.25,1,4.42,4.42,0,0,0,2.91-.51l-.11-.17a4.3,4.3,0,0,1-2.76.49,8,8,0,0,1-2.2-.94A5.72,5.72,0,0,0,43.93,32.57Z"/><path class="cls-11" d="M50.43,28.3l-.08.17c2.83,1.35,4.24.22,4.3.17l-.13-.15S53.13,29.58,50.43,28.3Z"/><path class="cls-12" d="M52.08,21.57s-2.19,3.62-1.56,6.55l.19,0c-.62-2.86,1.52-6.39,1.54-6.42Z"/><path class="cls-13" d="M47.32,23.67a8,8,0,0,0-1.05,1.58,9.85,9.85,0,0,0-.76,3.17c-.2,1.53-.38,3-1.45,3.95l.14.14c1.12-1,1.31-2.57,1.5-4.06a9.72,9.72,0,0,1,.75-3.11,9.42,9.42,0,0,1,3.28-3.5l-.11-.17A10,10,0,0,0,47.32,23.67Z"/><path class="cls-14" d="M41.08,23.31a12.44,12.44,0,0,0-1,1.43,12.09,12.09,0,0,0-1.23,4.13c-.38,2.1-.82,4.48-2.36,6.33l.16.13c1.57-1.88,2-4.29,2.4-6.41a12,12,0,0,1,1.21-4.07,10.52,10.52,0,0,1,3.42-3.51l-.1-.17A9.67,9.67,0,0,0,41.08,23.31Z"/><path class="cls-15" d="M34.4,23.18a16.09,16.09,0,0,0-1.63,2.34A18.1,18.1,0,0,0,31,30.63c-.54,2.25-1.06,4.38-3.07,6.27L28,37c2-1.93,2.57-4.08,3.12-6.36a18,18,0,0,1,1.8-5.06A11.25,11.25,0,0,1,37,21.15l-.1-.17A8.71,8.71,0,0,0,34.4,23.18Z"/><path class="cls-16" d="M24.09,25.19a19,19,0,0,0-2.78,5.21c-1.06,2.6-2.06,5.06-4.42,6.28l.1.17c2.41-1.25,3.43-3.73,4.5-6.37a18.85,18.85,0,0,1,2.75-5.16c3-3.56,5.45-4.48,5.47-4.49l-.08-.18S27.13,21.58,24.09,25.19Z"/><path class="cls-17" d="M58.32,20.48a45.05,45.05,0,0,1-9.2,9.2A43.74,43.74,0,0,1,25.55,37.8C16.22,38,6.09,35.18,3.84,34.68a11.15,11.15,0,0,1-2.21-.29c-.61-.66,0-2.75,1.26-3.32.55.18,1.34,1.19,1.76,1.59,4,2.46,13.73,4.73,24.14,3.89a43.59,43.59,0,0,0,19.27-6.8C52.1,27.13,55.28,23.69,58.32,20.48Z"/><path class="cls-18" d="M2.84,31l0,0h0a4.45,4.45,0,0,1,1.4,1.19c.15.16.29.31.4.42,4,2.5,13.82,4.7,24.06,3.87A43.71,43.71,0,0,0,48,29.68,54.72,54.72,0,0,0,57.72,21l.53-.55.16.12s-.6.84-1.63,2.06a44,44,0,0,1-7.6,7.16c-2.56,1.85-11.84,7.9-23.63,8.14-8.23.17-17.23-2-20.62-2.86l-1.1-.26a11.78,11.78,0,0,1-2.22-.29h0l0,0c-.5-.54-.25-2,.51-2.86h0A2.23,2.23,0,0,1,2.84,31Zm1,3.6h0L5,34.85c3.38.83,12.36,3,20.57,2.86,11.73-.24,21-6.26,23.52-8.1a43.85,43.85,0,0,0,7.56-7.13L57,22a50.2,50.2,0,0,1-8.88,7.81A43.91,43.91,0,0,1,28.8,36.65c-10.29.84-20.15-1.39-24.2-3.9h0c-.12-.11-.26-.27-.42-.44A4.71,4.71,0,0,0,2.9,31.17a2.07,2.07,0,0,0-.68.54h0c-.68.81-1,2.1-.55,2.59A11.29,11.29,0,0,0,3.83,34.58Z"/><path class="cls-19" d="M58.42,20.52l.07-.19-.2.06c-3.77,1.08-13.23.48-20.84,0l-4.14-.25c-8-.46-13,1-17.31,4.93a18.77,18.77,0,0,0-1.62,1.69,31,31,0,0,0-2.28,3.16,24.65,24.65,0,0,1-1.7,2.39A8.15,8.15,0,0,1,8.2,34.18a18.27,18.27,0,0,1-3.49-1.59c-.11-.11-.25-.26-.4-.42A4.45,4.45,0,0,0,2.91,31h0l0,0a2.23,2.23,0,0,0-.77.61h0c-.76.9-1,2.32-.51,2.86l0,0h0a11.78,11.78,0,0,0,2.22.29l1.1.26c.8.19,1.9.46,3.23.76,3.67,5.69,7.69,9.46,12.24,11.5,7.62,3.43,15.68,2.28,22.69-3.25a30,30,0,0,0,4.26-4.21C53.44,32.64,57.64,22.49,58.42,20.52Z"/><path class="cls-20" d="M35.34,28.34c-4.44.79-12.15-.2-17.54-2.94-4-2-10.51-3-10.66-3.66-.5-2.4,6.67-4.51,12.35-4.11,2.7.19,9.92-1.83,15.2-2.29s13.42,2.51,13.7,2.51c3.55,6.31-3.15,8.74-13,10.5"/><path class="cls-21" d="M26.5,28.26a31,31,0,0,1-8.72-2.73A39.65,39.65,0,0,0,10.4,23c-1.86-.49-3.24-.86-3.32-1.22a1.25,1.25,0,0,1,0-.31c0-.68.64-1.33,1.62-1.89a14.5,14.5,0,0,1,3.79-1.38,24.46,24.46,0,0,1,7-.61,37.08,37.08,0,0,0,7.12-1c2.67-.51,5.58-1.08,8.07-1.29a24.15,24.15,0,0,1,6.56.58c2.6.53,4.36,1.23,7,1.28a9.21,9.21,0,0,1,4.46,1.13,5.4,5.4,0,0,1,2.5,3,3.48,3.48,0,0,1,.11.37,3.43,3.43,0,0,1,.07.37,3.38,3.38,0,0,1,.07,1c0,.26-.12.45-.29.51l-.06,0h0a6.2,6.2,0,0,1-2.41,1.61L52,25.6l-.41.21A8.14,8.14,0,0,1,47.66,27,14.75,14.75,0,0,1,46,26.91c-3.35-.45-2.54-.2-5.92.61-1.45.35-3,.66-4.68,1a27.71,27.71,0,0,1-8.86-.21M40,27.38A35.2,35.2,0,0,0,44,26.22h0a6.9,6.9,0,0,0,2,.54,14.68,14.68,0,0,0,1.67.11,8.05,8.05,0,0,0,3.83-1.19l.41-.21.71-.35A6,6,0,0,0,55,23.55v0h0l.06,0,.06,0c.11,0,.18-.19.2-.39a3.23,3.23,0,0,0-.07-1h0a3.24,3.24,0,0,0-.07-.36,3.44,3.44,0,0,0-.11-.35h0a4.87,4.87,0,0,0-2.39-2.79,9.39,9.39,0,0,0-4.48-1.18h-.69l-.68.05h0c-1.33-.41-3.38-1-5.59-1.45a24,24,0,0,0-6.53-.58c-2.48.22-5.39.78-8.06,1.29a37,37,0,0,1-7.15,1,24.34,24.34,0,0,0-7,.6,14.38,14.38,0,0,0-3.75,1.37c-.94.54-1.52,1.15-1.55,1.78a1.09,1.09,0,0,0,0,.28c.06.27,1.4.63,3.22,1.11a39.74,39.74,0,0,1,7.4,2.5,30.86,30.86,0,0,0,8.68,2.72,27.58,27.58,0,0,0,8.82.22C37,28,38.57,27.73,40,27.38Z"/><path class="cls-22" d="M35.36,26.5a44.71,44.71,0,0,1-17.55-2.17c-4-1.46-10.52-2.14-10.67-2.63-.5-1.68,6.66-3.12,12.33-2.81,2.7.15,9.91-1.22,15.19-1.52s13.42,1.84,13.71,1.84c3.56,4.45-3.12,6.12-13,7.29"/><path class="cls-23" d="M35.36,26.55A56.52,56.52,0,0,1,17.8,24.77c-4-1.16-9.91-3-10.06-3.41-.51-1.32,6-1.12,11.71-.85,2.7.13,9.91-.91,15.19-1.12S48.07,20.9,48.36,20.9c3.57,3.5-3.11,4.77-13,5.65"/><path class="cls-24" d="M9.88,21.43c-.69-.14-1.34,0-2.16-.07,6.94-.8,15.3.81,23.8-.78,1.72-.32,10.68-.91,11.17-1.63a8.67,8.67,0,0,1,5.51-1.64c3.47.07,6.34,1.81,6.93,4-.88-2-3.56-3.44-6.75-3.5a8.67,8.67,0,0,0-5.51,1.64c-.49.73-9.45,1.31-11.17,1.63-7.67,1.44-15.3,0-21.82.32"/><path class="cls-25" d="M42.1,24.46a76.17,76.17,0,0,0-13.94-.23,37.85,37.85,0,0,1-12.49-1,56.63,56.63,0,0,0-7.95-1.86c6.94-.8,15.39,1.1,23.89-.49a98.48,98.48,0,0,1,10.9-1.2q.12-.22.26-.43a8.67,8.67,0,0,1,5.51-1.64c3.68.08,6.69,2,7,4.45.13.65.14,1.33-.17,1.44l-.12,0c-.58.84-1.87,1.32-3.11,1.95a9.11,9.11,0,0,1-4.26,1.41c-1.37,0-4.43-.11-5.54-2.42"/><path class="cls-26" d="M42.66,25.25l-.05-.11h0l.09.11M32.11,21.57A98.41,98.41,0,0,1,43,20.36q.12-.22.26-.43a8.67,8.67,0,0,1,5.51-1.64,8.27,8.27,0,0,1,6.12,2.52c-1-1.82-3.57-3.15-6.6-3.21a8.67,8.67,0,0,0-5.51,1.64c-.49.73-9.45,1.31-11.17,1.63-8.5,1.59-16.95-.32-23.89.49a29.17,29.17,0,0,1,2.94.51C17.12,21.64,24.6,23,32.11,21.57Z"/><path class="cls-27" d="M42.05,24.45a75.23,75.23,0,0,0-13.86-.23,37.42,37.42,0,0,1-12.42-1,55.9,55.9,0,0,0-7.9-1.86,34.72,34.72,0,0,1,3.88-.21c1.67.41,3,.88,4.51,1.24a37.42,37.42,0,0,0,12.42,1,75.27,75.27,0,0,1,13.86.23C43.65,25.93,46.69,26,48.05,26a9,9,0,0,0,4.24-1.41c2.35-1.19,1.79-.61,1.62-.38s-.17.23-2.11,1.21a9,9,0,0,1-4.24,1.41c-1.36,0-4.4-.1-5.51-2.42"/><path class="cls-28" d="M46.14,26.59c-2.69-.33-4.42-2.42-3.86-4.65s3.19-3.78,5.88-3.45S52.58,20.9,52,23.14s-3.19,3.78-5.88,3.45"/><path class="cls-29" d="M45.56,18.84c-.39.26-.88.83-1,.74s.33-.75.72-1,.94-.39,1-.23-.42.24-.8.51"/><path class="cls-30" d="M45.7,18.53s.06,0,.11,0a.55.55,0,0,0,.2-.09c.06-.21-.47-.2-.31,0"/><path class="cls-30" d="M45.5,18.51h0l0,0c0-.06-.14,0-.08,0"/><path class="cls-25" d="M47.45,25.66c-2.29,0-3.9-1.63-3.61-3.57s2.39-3.48,4.68-3.44,3.9,1.63,3.61,3.57-2.39,3.48-4.68,3.44"/><path class="cls-31" d="M48.23,24.87c-2,0-3.37-1.41-3.11-3.08a3.94,3.94,0,0,1,4-3c2,0,3.37,1.41,3.11,3.08a3.94,3.94,0,0,1-4,3"/><path class="cls-29" d="M48.43,21.9c-1.18.22-2.21-.12-2.29-.77s.8-1.34,2-1.56,2.21.12,2.29.77-.8,1.34-2,1.56"/><path class="cls-29" d="M53.66,23.87a1.66,1.66,0,0,1,.57.33,2.9,2.9,0,0,1-.34.27v0A2.45,2.45,0,0,0,53.5,24l.16-.17"/><path class="cls-29" d="M53.82,23.33a1.83,1.83,0,0,0,1.27.12c.51-.17.07-1.91-.29-2.2.35.87.27,1.71-.12,1.84-.7.23-.33,0-.86.24"/><path class="cls-32" d="M54.66,22.47c-.07-.09-.17-.12-.21-.08s0,.15.06.23.17.12.21.08,0-.15-.06-.23"/><path class="cls-33" d="M53.46,23.69a3,3,0,0,0,1.71-.2.49.49,0,0,0,.13-.08h0a3.35,3.35,0,0,1-2.09.13h0c.05.31.7.32,1.19.69l0,0a3.14,3.14,0,0,0-.93-.48"/><path class="cls-34" d="M52.75,19.77a1.09,1.09,0,0,0-1.46.64,1.24,1.24,0,0,0,.9,1.41,1.09,1.09,0,0,0,1.46-.64,1.24,1.24,0,0,0-.9-1.41"/><path class="cls-29" d="M52.68,19.88a1,1,0,0,0-1.31.52,1.11,1.11,0,0,0,.84,1.23,1,1,0,0,0,1.31-.52,1.11,1.11,0,0,0-.84-1.23"/><path class="cls-35" d="M52.67,20.13a.76.76,0,0,0-1,.41.86.86,0,0,0,.65,1,.76.76,0,0,0,1-.41.86.86,0,0,0-.65-1"/><path class="cls-34" d="M53.15,20.3a.22.22,0,0,0-.27.18.25.25,0,0,0,.14.31.22.22,0,0,0,.27-.18.25.25,0,0,0-.14-.31"/><path class="cls-34" d="M52.94,21.41a.12.12,0,0,0-.14.1.13.13,0,0,0,.07.17c.06,0,.12,0,.14-.1a.13.13,0,0,0-.07-.17"/><path class="cls-34" d="M51.84,20.69a.32.32,0,0,0-.37.27.36.36,0,0,0,.18.45c.15,0,.32-.07.37-.27a.36.36,0,0,0-.18-.45"/><path class="cls-29" d="M52.75,19a.42.42,0,0,0-.54.21c0,.14.13.15.38.26s.48.26.52.12a.65.65,0,0,0-.36-.59"/><path class="cls-36" d="M52.77,19.14a.2.2,0,0,0-.26.1c0,.07.06.07.18.12s.23.12.25.06a.31.31,0,0,0-.17-.28"/><path class="cls-26" d="M40.49,16.5a.14.14,0,0,1,.21,0,.17.17,0,0,1,0,.23.14.14,0,0,1-.21,0,.17.17,0,0,1,0-.23m1.06-.26a.09.09,0,0,1,0,.12.08.08,0,0,1-.11,0,.09.09,0,0,1,0-.12A.08.08,0,0,1,41.55,16.23ZM39.42,16a.12.12,0,0,1,0,.16.1.1,0,0,1-.15,0,.12.12,0,0,1,0-.16A.1.1,0,0,1,39.42,16Zm-.81.75a.12.12,0,0,1-.09.14.12.12,0,0,1-.13-.1.12.12,0,0,1,.09-.14A.12.12,0,0,1,38.61,16.72ZM38.35,16a.15.15,0,0,1,0,.2.12.12,0,0,1-.18,0,.15.15,0,0,1,0-.2A.12.12,0,0,1,38.35,16Zm4.11,1a.2.2,0,0,1-.15.24.19.19,0,0,1-.22-.17.2.2,0,0,1,.15-.24A.19.19,0,0,1,42.46,16.93Zm.94-.2a.2.2,0,0,1,0,.26.16.16,0,0,1-.24,0,.2.2,0,0,1,0-.26A.16.16,0,0,1,43.4,16.73Zm1.09.5a.14.14,0,0,1-.06.18.12.12,0,0,1-.17-.07.14.14,0,0,1,.06-.18A.12.12,0,0,1,44.5,17.23Zm-8-1.33a.11.11,0,0,1,0,.14.1.1,0,0,1-.13-.05.11.11,0,0,1,0-.14A.1.1,0,0,1,36.51,15.91Zm.52.48a.18.18,0,0,1,0,.24.15.15,0,0,1-.22,0,.18.18,0,0,1,0-.24A.15.15,0,0,1,37,16.39ZM35.3,16a.19.19,0,0,1,0,.25.16.16,0,0,1-.23,0,.19.19,0,0,1,0-.25A.16.16,0,0,1,35.3,16Zm-1.25-.19A.14.14,0,0,1,34,16a.11.11,0,0,1-.17,0,.14.14,0,0,1,0-.18A.11.11,0,0,1,34.06,15.8Zm-.25.87a.11.11,0,0,1,0,.15.09.09,0,0,1-.14,0,.11.11,0,0,1,0-.15A.09.09,0,0,1,33.81,16.67Zm1.11-1.11a.09.09,0,0,1,0,.11.08.08,0,0,1-.11,0,.09.09,0,0,1,0-.11A.08.08,0,0,1,34.92,15.56Zm-2.44.8a.2.2,0,0,1,0,.26.16.16,0,0,1-.24,0,.2.2,0,0,1,0-.26A.16.16,0,0,1,32.48,16.36Zm.35-.71a.15.15,0,0,1,0,.2.12.12,0,0,1-.19,0,.15.15,0,0,1,0-.2A.12.12,0,0,1,32.82,15.65Zm-3,1.19a.33.33,0,0,1-.25.39.32.32,0,0,1-.36-.28.34.34,0,0,1,.25-.39A.32.32,0,0,1,29.84,16.84Zm.61-.5a.16.16,0,0,1,0,.22.14.14,0,0,1-.2,0,.17.17,0,0,1,0-.22A.14.14,0,0,1,30.46,16.34Zm-3.26.76a.14.14,0,0,1-.11.17.14.14,0,0,1-.15-.12A.14.14,0,0,1,27,17,.14.14,0,0,1,27.19,17.09Zm-2.7.73a.24.24,0,0,1-.1.31.21.21,0,0,1-.28-.11.24.24,0,0,1,.1-.31A.21.21,0,0,1,24.49,17.82Zm1.29-.68a.22.22,0,0,1,.12.27.19.19,0,0,1-.25.12.22.22,0,0,1-.12-.27A.19.19,0,0,1,25.78,17.15Zm14.13-.42A.18.18,0,0,1,40,17a.15.15,0,0,1-.21,0,.18.18,0,0,1,0-.23A.15.15,0,0,1,39.91,16.73Z"/><path class="cls-26" d="M34.91,27.7a.14.14,0,0,0,.21,0,.17.17,0,0,0,0-.23.14.14,0,0,0-.21,0,.17.17,0,0,0,0,.23m1,.35a.09.09,0,0,0,0-.12.08.08,0,0,0-.11,0,.09.09,0,0,0,0,.12A.08.08,0,0,0,35.95,28Zm-2.14.08a.12.12,0,0,0,0-.16.1.1,0,0,0-.15,0,.12.12,0,0,0,0,.16A.1.1,0,0,0,33.81,28.13ZM33,27.32a.13.13,0,0,0-.08-.15.11.11,0,0,0-.14.09.13.13,0,0,0,.08.15A.11.11,0,0,0,33,27.32Zm-.3.73a.15.15,0,0,0,0-.2.12.12,0,0,0-.18,0,.15.15,0,0,0,0,.2A.12.12,0,0,0,32.74,28Zm4.15-.61a.21.21,0,0,0-.14-.25.19.19,0,0,0-.23.15.21.21,0,0,0,.14.25A.19.19,0,0,0,36.89,27.44Zm.93.27a.2.2,0,0,0,0-.27.16.16,0,0,0-.24,0,.2.2,0,0,0,0,.27A.16.16,0,0,0,37.82,27.71Zm1.12-.41a.14.14,0,0,0-.05-.19.12.12,0,0,0-.17.05.14.14,0,0,0,.05.19A.12.12,0,0,0,38.94,27.3Zm-8,.66a.11.11,0,0,0,0-.15.1.1,0,0,0-.14,0,.11.11,0,0,0,0,.15A.1.1,0,0,0,30.9,28Zm.55-.44a.18.18,0,0,0,0-.24.15.15,0,0,0-.22,0,.18.18,0,0,0,0,.24A.15.15,0,0,0,31.44,27.52Zm-1.74.26a.19.19,0,0,0,.06-.25.16.16,0,0,0-.23-.06.19.19,0,0,0-.06.25A.16.16,0,0,0,29.7,27.78Zm-1.25.08a.14.14,0,0,0,0-.18.11.11,0,0,0-.17,0,.14.14,0,0,0,0,.18A.11.11,0,0,0,28.45,27.86Zm-.2-.89a.11.11,0,0,0,0-.15.09.09,0,0,0-.14,0,.11.11,0,0,0,0,.15A.09.09,0,0,0,28.25,27Zm1,1.2a.09.09,0,0,0,0-.12.08.08,0,0,0-.11,0,.09.09,0,0,0,0,.12A.08.08,0,0,0,29.29,28.17Zm-2.39-1a.2.2,0,0,0,.06-.26.17.17,0,0,0-.24-.06.2.2,0,0,0-.06.26A.17.17,0,0,0,26.9,27.17Zm.31.74a.15.15,0,0,0,0-.2.12.12,0,0,0-.19,0,.15.15,0,0,0,0,.2A.12.12,0,0,0,27.21,27.91ZM24.3,26.47a.35.35,0,0,0-.23-.41.31.31,0,0,0-.38.25.35.35,0,0,0,.23.41A.31.31,0,0,0,24.3,26.47Zm.58.55a.17.17,0,0,0,0-.22.14.14,0,0,0-.2,0,.17.17,0,0,0,0,.22A.14.14,0,0,0,24.89,27Zm-3.22-1a.15.15,0,0,0-.1-.17.13.13,0,0,0-.16.11.15.15,0,0,0,.1.18A.13.13,0,0,0,21.67,26ZM19,25a.24.24,0,0,0-.09-.31.2.2,0,0,0-.29.09.24.24,0,0,0,.09.31A.2.2,0,0,0,19,25Zm1.25.78a.21.21,0,0,0,.13-.26.19.19,0,0,0-.24-.14.21.21,0,0,0-.13.26A.19.19,0,0,0,20.27,25.82Zm14.08,1.6a.18.18,0,0,0,.05-.23.15.15,0,0,0-.21-.06.18.18,0,0,0-.05.23A.15.15,0,0,0,34.35,27.42Z"/><path class="cls-26" d="M19.94,19.55a.14.14,0,0,1-.21,0,.17.17,0,0,1,0-.23.14.14,0,0,1,.21,0,.17.17,0,0,1,0,.23m-1,.3a.09.09,0,0,1,0-.12.08.08,0,0,1,.11,0,.09.09,0,0,1,0,.12A.08.08,0,0,1,18.89,19.85ZM21,20a.12.12,0,0,1,0-.16.1.1,0,0,1,.15,0,.12.12,0,0,1,0,.16A.1.1,0,0,1,21,20Zm.79-.78a.12.12,0,0,1,.09-.15.12.12,0,0,1,.14.1.12.12,0,0,1-.09.15A.12.12,0,0,1,21.81,19.25Zm.28.74a.15.15,0,0,1,0-.2.12.12,0,0,1,.18,0,.15.15,0,0,1,0,.2A.12.12,0,0,1,22.09,20ZM18,19.19A.2.2,0,0,1,18.1,19a.19.19,0,0,1,.23.16.2.2,0,0,1-.15.24A.19.19,0,0,1,18,19.19Zm-.94.23a.2.2,0,0,1,0-.26.16.16,0,0,1,.24,0,.2.2,0,0,1,0,.27A.16.16,0,0,1,17,19.43ZM15.91,19a.14.14,0,0,1,.06-.18.12.12,0,0,1,.17.06.14.14,0,0,1-.05.18A.12.12,0,0,1,15.91,19Zm8,1a.11.11,0,0,1,0-.15.1.1,0,0,1,.13,0,.11.11,0,0,1,0,.15A.1.1,0,0,1,23.94,20Zm-.53-.46a.18.18,0,0,1,0-.24.15.15,0,0,1,.22,0,.18.18,0,0,1,0,.24A.15.15,0,0,1,23.4,19.52Zm1.73.34a.19.19,0,0,1,0-.25.16.16,0,0,1,.23-.05.19.19,0,0,1,0,.25A.16.16,0,0,1,25.14,19.85Zm1.25.14a.14.14,0,0,1,0-.18.11.11,0,0,1,.17,0,.14.14,0,0,1,0,.18A.11.11,0,0,1,26.39,20Zm.22-.88a.11.11,0,0,1,0-.15.09.09,0,0,1,.14,0,.11.11,0,0,1,0,.15A.09.09,0,0,1,26.61,19.11Zm-1.07,1.16a.09.09,0,0,1,0-.12.08.08,0,0,1,.11,0,.09.09,0,0,1,0,.12A.08.08,0,0,1,25.54,20.26Zm2.41-.89a.2.2,0,0,1-.05-.26.17.17,0,0,1,.24-.05.2.2,0,0,1,.05.26A.17.17,0,0,1,27.95,19.37Zm-.32.72a.15.15,0,0,1,0-.2.12.12,0,0,1,.19,0,.15.15,0,0,1,0,.2A.12.12,0,0,1,27.62,20.1Zm2.94-1.31a.34.34,0,0,1,.24-.4.32.32,0,0,1,.37.26.34.34,0,0,1-.24.4A.32.32,0,0,1,30.56,18.79Zm-.6.53a.17.17,0,0,1,0-.22.14.14,0,0,1,.2,0,.17.17,0,0,1,0,.22A.14.14,0,0,1,30,19.31Zm3.24-.88a.14.14,0,0,1,.1-.17.13.13,0,0,1,.16.11.14.14,0,0,1-.1.17A.13.13,0,0,1,33.2,18.43Zm2.67-.83a.24.24,0,0,1,.09-.31.21.21,0,0,1,.29.1.24.24,0,0,1-.09.31A.21.21,0,0,1,35.87,17.59Zm-1.26.73a.22.22,0,0,1-.13-.27.19.19,0,0,1,.25-.13.22.22,0,0,1,.13.27A.19.19,0,0,1,34.61,18.32Zm-14.11,1a.18.18,0,0,1,0-.23.15.15,0,0,1,.21,0,.18.18,0,0,1,0,.23A.15.15,0,0,1,20.5,19.29Z"/><path class="cls-26" d="M25.06,25a.14.14,0,0,1-.21,0,.17.17,0,0,1,0-.22.14.14,0,0,1,.21,0,.17.17,0,0,1,0,.22M24,25.15A.09.09,0,0,1,24,25a.08.08,0,0,1,.11,0,.09.09,0,0,1,0,.12A.08.08,0,0,1,24,25.15Zm2.1.45a.12.12,0,0,1,0-.16.1.1,0,0,1,.15,0,.12.12,0,0,1,0,.16A.1.1,0,0,1,26.09,25.6Zm.87-.67a.12.12,0,0,1,.1-.13.12.12,0,0,1,.12.11.12.12,0,0,1-.1.13A.12.12,0,0,1,27,24.93Zm.2.77a.15.15,0,0,1,0-.19.12.12,0,0,1,.18,0,.15.15,0,0,1,0,.19A.12.12,0,0,1,27.15,25.7Zm-4-1.32a.2.2,0,0,1,.17-.22.2.2,0,0,1,.21.19.2.2,0,0,1-.17.22A.2.2,0,0,1,23.13,24.38Zm-1,.11a.2.2,0,0,1,0-.26.16.16,0,0,1,.24,0,.2.2,0,0,1,0,.26A.16.16,0,0,1,22.17,24.49Zm-1.05-.6a.14.14,0,0,1,.08-.18.12.12,0,0,1,.16.08.14.14,0,0,1-.07.18A.13.13,0,0,1,21.12,23.89Zm7.87,2a.11.11,0,0,1,.06-.14.1.1,0,0,1,.13.07.11.11,0,0,1-.06.14A.1.1,0,0,1,29,25.93Zm-.48-.53a.18.18,0,0,1,0-.23.15.15,0,0,1,.22,0,.18.18,0,0,1,0,.23A.15.15,0,0,1,28.51,25.4Zm1.69.56a.19.19,0,0,1,0-.26.16.16,0,0,1,.24,0,.19.19,0,0,1,0,.26A.16.16,0,0,1,30.19,26Zm1.23.3a.14.14,0,0,1,0-.18.11.11,0,0,1,.17,0,.14.14,0,0,1,0,.18A.11.11,0,0,1,31.42,26.26Zm.32-.85a.11.11,0,0,1,0-.15.09.09,0,0,1,.14,0,.11.11,0,0,1,0,.15A.09.09,0,0,1,31.74,25.41Zm-1.19,1a.09.09,0,0,1,0-.11.08.08,0,0,1,.1.05.09.09,0,0,1,0,.11A.08.08,0,0,1,30.54,26.42ZM33,25.85a.2.2,0,0,1,0-.27.16.16,0,0,1,.25,0,.2.2,0,0,1,0,.27A.16.16,0,0,1,33,25.85Zm-.4.68a.15.15,0,0,1,0-.2.13.13,0,0,1,.18,0,.15.15,0,0,1,0,.2A.13.13,0,0,1,32.64,26.52Zm3.06-.92a.33.33,0,0,1,.28-.37.33.33,0,0,1,.34.31.33.33,0,0,1-.28.37A.32.32,0,0,1,35.7,25.6Zm-.65.44a.16.16,0,0,1,0-.22.14.14,0,0,1,.2,0,.16.16,0,0,1,0,.22A.14.14,0,0,1,35.05,26Zm3.31-.46a.14.14,0,0,1,.12-.16.14.14,0,0,1,.14.13.14.14,0,0,1-.12.16A.14.14,0,0,1,38.37,25.59Zm2.75-.48a.23.23,0,0,1,.13-.29.21.21,0,0,1,.27.14.23.23,0,0,1-.13.29A.21.21,0,0,1,41.11,25.1Zm-1.34.56a.22.22,0,0,1-.1-.28.19.19,0,0,1,.26-.1.22.22,0,0,1,.1.28A.19.19,0,0,1,39.78,25.66ZM25.65,24.8a.18.18,0,0,1,0-.24.15.15,0,0,1,.22,0,.18.18,0,0,1,0,.24A.15.15,0,0,1,25.65,24.8Z"/><path class="cls-20" d="M35.34,47c-4.44.79-12.15-.2-17.54-2.94-4-2-10.51-3-10.66-3.66-.5-2.4,6.67-4.51,12.35-4.11,2.7.19,9.92-1.83,15.2-2.29s13.42,2.51,13.7,2.51c3.55,6.31-3.15,8.74-13,10.5"/><path class="cls-21" d="M26.5,46.89a31,31,0,0,1-8.72-2.73,39.65,39.65,0,0,0-7.38-2.49c-1.86-.49-3.24-.86-3.32-1.22a1.25,1.25,0,0,1,0-.31c0-.68.64-1.33,1.62-1.89a14.5,14.5,0,0,1,3.79-1.38,24.46,24.46,0,0,1,7-.61,37.08,37.08,0,0,0,7.12-1c2.67-.51,5.58-1.08,8.07-1.29a24.15,24.15,0,0,1,6.56.58c2.6.53,4.36,1.23,7,1.28A9.21,9.21,0,0,1,52.7,37a5.4,5.4,0,0,1,2.5,3,3.48,3.48,0,0,1,.11.37,3.43,3.43,0,0,1,.07.37,3.38,3.38,0,0,1,.07,1c0,.26-.12.45-.29.51l-.06,0h0a6.2,6.2,0,0,1-2.41,1.61l-.71.34-.41.21a8.14,8.14,0,0,1-3.88,1.2A14.75,14.75,0,0,1,46,45.54c-3.35-.45-2.54-.2-5.92.61-1.45.35-3,.66-4.68,1a27.71,27.71,0,0,1-8.86-.21M40,46A35.2,35.2,0,0,0,44,44.85h0a6.9,6.9,0,0,0,2,.54,14.68,14.68,0,0,0,1.67.11,8.05,8.05,0,0,0,3.83-1.19l.41-.21.71-.35A6,6,0,0,0,55,42.18v0h0l.06,0,.06,0c.11,0,.18-.19.2-.39a3.23,3.23,0,0,0-.07-1h0a3.24,3.24,0,0,0-.07-.36,3.44,3.44,0,0,0-.11-.35h0a4.87,4.87,0,0,0-2.39-2.79,9.39,9.39,0,0,0-4.48-1.18h-.69l-.68.05h0c-1.33-.41-3.38-1-5.59-1.45a24,24,0,0,0-6.53-.58c-2.48.22-5.39.78-8.06,1.29a37,37,0,0,1-7.15,1,24.34,24.34,0,0,0-7,.6,14.38,14.38,0,0,0-3.75,1.37c-.94.54-1.52,1.15-1.55,1.78a1.09,1.09,0,0,0,0,.28c.06.27,1.4.63,3.22,1.11a39.74,39.74,0,0,1,7.4,2.5,30.86,30.86,0,0,0,8.68,2.72,27.58,27.58,0,0,0,8.82.22C37,46.67,38.57,46.36,40,46Z"/><path class="cls-22" d="M35.36,45.13A44.71,44.71,0,0,1,17.81,43c-4-1.46-10.52-2.14-10.67-2.63-.5-1.68,6.66-3.12,12.33-2.81,2.7.15,9.91-1.22,15.19-1.52s13.42,1.84,13.71,1.84c3.56,4.45-3.12,6.12-13,7.29"/><path class="cls-23" d="M35.36,45.18A56.52,56.52,0,0,1,17.8,43.4c-4-1.16-9.91-3-10.06-3.41-.51-1.32,6-1.12,11.71-.85,2.7.13,9.91-.91,15.19-1.12s13.43,1.51,13.71,1.51c3.57,3.5-3.11,4.77-13,5.65"/><path class="cls-24" d="M9.88,40.06c-.69-.14-1.34,0-2.16-.07,6.94-.8,15.3.81,23.8-.78,1.72-.32,10.68-.91,11.17-1.63a8.67,8.67,0,0,1,5.51-1.64c3.47.07,6.34,1.81,6.93,4-.88-2-3.56-3.44-6.75-3.5a8.67,8.67,0,0,0-5.51,1.64c-.49.73-9.45,1.31-11.17,1.63-7.67,1.44-15.3,0-21.82.32"/><path class="cls-25" d="M42.1,43.08a76.17,76.17,0,0,0-13.94-.23,37.85,37.85,0,0,1-12.49-1A56.63,56.63,0,0,0,7.72,40c6.94-.8,15.39,1.1,23.89-.49a98.48,98.48,0,0,1,10.9-1.2q.12-.22.26-.43a8.67,8.67,0,0,1,5.51-1.64c3.68.08,6.69,2,7,4.45.13.65.14,1.33-.17,1.44l-.12,0c-.58.84-1.87,1.32-3.11,1.95a9.11,9.11,0,0,1-4.26,1.41c-1.37,0-4.43-.11-5.54-2.42"/><path class="cls-26" d="M42.66,43.88l-.05-.11h0l.09.11M32.11,40.19A98.41,98.41,0,0,1,43,39q.12-.22.26-.43a8.67,8.67,0,0,1,5.51-1.64,8.27,8.27,0,0,1,6.12,2.52c-1-1.82-3.57-3.15-6.6-3.21a8.67,8.67,0,0,0-5.51,1.64c-.49.73-9.45,1.31-11.17,1.63-8.5,1.59-16.95-.32-23.89.49a29.17,29.17,0,0,1,2.94.51C17.12,40.27,24.6,41.6,32.11,40.19Z"/><path class="cls-27" d="M42.05,43.07a75.23,75.23,0,0,0-13.86-.23,37.42,37.42,0,0,1-12.42-1A55.9,55.9,0,0,0,7.87,40a34.72,34.72,0,0,1,3.88-.21c1.67.41,3,.88,4.51,1.24a37.42,37.42,0,0,0,12.42,1,75.27,75.27,0,0,1,13.86.23c1.11,2.32,4.15,2.39,5.51,2.42a9,9,0,0,0,4.24-1.41c2.35-1.19,1.79-.61,1.62-.38s-.17.23-2.11,1.21a9,9,0,0,1-4.24,1.41c-1.36,0-4.4-.1-5.51-2.42"/><path class="cls-28" d="M46.14,45.22c-2.69-.33-4.42-2.42-3.86-4.65s3.19-3.78,5.88-3.45,4.42,2.42,3.86,4.65-3.19,3.78-5.88,3.45"/><path class="cls-29" d="M45.56,37.46c-.39.26-.88.83-1,.74s.33-.75.72-1,.94-.39,1-.23-.42.24-.8.51"/><path class="cls-30" d="M45.7,37.16s.06,0,.11,0a.55.55,0,0,0,.2-.09c.06-.21-.47-.2-.31,0"/><path class="cls-30" d="M45.5,37.14h0l0,0c0-.06-.14,0-.08,0"/><path class="cls-25" d="M47.45,44.28c-2.29,0-3.9-1.63-3.61-3.57s2.39-3.48,4.68-3.44,3.9,1.63,3.61,3.57-2.39,3.48-4.68,3.44"/><path class="cls-31" d="M48.23,43.5c-2,0-3.37-1.41-3.11-3.08a3.94,3.94,0,0,1,4-3c2,0,3.37,1.41,3.11,3.08a3.94,3.94,0,0,1-4,3"/><path class="cls-29" d="M48.43,40.53c-1.18.22-2.21-.12-2.29-.77s.8-1.34,2-1.56,2.21.12,2.29.77-.8,1.34-2,1.56"/><path class="cls-29" d="M53.66,42.5a1.66,1.66,0,0,1,.57.33,2.9,2.9,0,0,1-.34.27v0a2.45,2.45,0,0,0-.37-.41l.16-.17"/><path class="cls-29" d="M53.82,42a1.83,1.83,0,0,0,1.27.12c.51-.17.07-1.91-.29-2.2.35.87.27,1.71-.12,1.84-.7.23-.33,0-.86.24"/><path class="cls-32" d="M54.66,41.1c-.07-.09-.17-.12-.21-.08s0,.15.06.23.17.12.21.08,0-.15-.06-.23"/><path class="cls-33" d="M53.46,42.32a3,3,0,0,0,1.71-.2A.49.49,0,0,0,55.3,42h0a3.35,3.35,0,0,1-2.09.13h0c.05.31.7.32,1.19.69l0,0a3.14,3.14,0,0,0-.93-.48"/><path class="cls-34" d="M52.75,38.4a1.09,1.09,0,0,0-1.46.64,1.24,1.24,0,0,0,.9,1.41,1.09,1.09,0,0,0,1.46-.64,1.24,1.24,0,0,0-.9-1.41"/><path class="cls-29" d="M52.68,38.5a1,1,0,0,0-1.31.52,1.11,1.11,0,0,0,.84,1.23,1,1,0,0,0,1.31-.52,1.11,1.11,0,0,0-.84-1.23"/><path class="cls-35" d="M52.67,38.76a.76.76,0,0,0-1,.41.86.86,0,0,0,.65,1,.76.76,0,0,0,1-.41.86.86,0,0,0-.65-1"/><path class="cls-34" d="M53.15,38.93a.22.22,0,0,0-.27.18.25.25,0,0,0,.14.31.22.22,0,0,0,.27-.18.25.25,0,0,0-.14-.31"/><path class="cls-34" d="M52.94,40a.12.12,0,0,0-.14.1.13.13,0,0,0,.07.17c.06,0,.12,0,.14-.1a.13.13,0,0,0-.07-.17"/><path class="cls-34" d="M51.84,39.31a.32.32,0,0,0-.37.27.36.36,0,0,0,.18.45c.15,0,.32-.07.37-.27a.36.36,0,0,0-.18-.45"/><path class="cls-29" d="M52.75,37.67a.42.42,0,0,0-.54.21c0,.14.13.15.38.26s.48.26.52.12a.65.65,0,0,0-.36-.59"/><path class="cls-36" d="M52.77,37.77a.2.2,0,0,0-.26.1c0,.07.06.07.18.12s.23.12.25.06a.31.31,0,0,0-.17-.28"/><path class="cls-26" d="M40.49,35.13a.14.14,0,0,1,.21,0,.17.17,0,0,1,0,.23.14.14,0,0,1-.21,0,.17.17,0,0,1,0-.23m1.06-.26a.09.09,0,0,1,0,.12.08.08,0,0,1-.11,0,.09.09,0,0,1,0-.12A.08.08,0,0,1,41.55,34.86Zm-2.13-.26a.12.12,0,0,1,0,.16.1.1,0,0,1-.15,0,.12.12,0,0,1,0-.16A.1.1,0,0,1,39.42,34.6Zm-.81.75a.12.12,0,0,1-.09.14.12.12,0,0,1-.13-.1.12.12,0,0,1,.09-.14A.12.12,0,0,1,38.61,35.35Zm-.25-.75a.15.15,0,0,1,0,.2.12.12,0,0,1-.18,0,.15.15,0,0,1,0-.2A.12.12,0,0,1,38.35,34.6Zm4.11,1a.2.2,0,0,1-.15.24.19.19,0,0,1-.22-.17.2.2,0,0,1,.15-.24A.19.19,0,0,1,42.46,35.55Zm.94-.2a.2.2,0,0,1,0,.26.16.16,0,0,1-.24,0,.2.2,0,0,1,0-.26A.16.16,0,0,1,43.4,35.36Zm1.09.5a.14.14,0,0,1-.06.18.12.12,0,0,1-.17-.07.14.14,0,0,1,.06-.18A.12.12,0,0,1,44.5,35.86Zm-8-1.33a.11.11,0,0,1,0,.14.1.1,0,0,1-.13-.05.11.11,0,0,1,0-.14A.1.1,0,0,1,36.51,34.54ZM37,35a.18.18,0,0,1,0,.24.15.15,0,0,1-.22,0,.18.18,0,0,1,0-.24A.15.15,0,0,1,37,35Zm-1.72-.4a.19.19,0,0,1,0,.25.16.16,0,0,1-.23,0,.19.19,0,0,1,0-.25A.16.16,0,0,1,35.3,34.61Zm-1.25-.19a.14.14,0,0,1,0,.18.11.11,0,0,1-.17,0,.14.14,0,0,1,0-.18A.11.11,0,0,1,34.06,34.43Zm-.25.87a.11.11,0,0,1,0,.15.09.09,0,0,1-.14,0,.11.11,0,0,1,0-.15A.09.09,0,0,1,33.81,35.3Zm1.11-1.11a.09.09,0,0,1,0,.11.08.08,0,0,1-.11,0,.09.09,0,0,1,0-.11A.08.08,0,0,1,34.92,34.19Zm-2.44.8a.2.2,0,0,1,0,.26.16.16,0,0,1-.24,0,.2.2,0,0,1,0-.26A.16.16,0,0,1,32.48,35Zm.35-.71a.15.15,0,0,1,0,.2.12.12,0,0,1-.19,0,.15.15,0,0,1,0-.2A.12.12,0,0,1,32.82,34.27Zm-3,1.19a.33.33,0,0,1-.25.39.32.32,0,0,1-.36-.28.34.34,0,0,1,.25-.39A.32.32,0,0,1,29.84,35.47Zm.61-.5a.16.16,0,0,1,0,.22.14.14,0,0,1-.2,0,.17.17,0,0,1,0-.22A.14.14,0,0,1,30.46,35Zm-3.26.76a.14.14,0,0,1-.11.17.14.14,0,0,1-.15-.12A.14.14,0,0,1,27,35.6.14.14,0,0,1,27.19,35.72Zm-2.7.73a.24.24,0,0,1-.1.31.21.21,0,0,1-.28-.11.24.24,0,0,1,.1-.31A.21.21,0,0,1,24.49,36.45Zm1.29-.68a.22.22,0,0,1,.12.27.19.19,0,0,1-.25.12.22.22,0,0,1-.12-.27A.19.19,0,0,1,25.78,35.78Zm14.13-.42a.18.18,0,0,1,0,.23.15.15,0,0,1-.21,0,.18.18,0,0,1,0-.23A.15.15,0,0,1,39.91,35.36Z"/><path class="cls-26" d="M34.91,46.33a.14.14,0,0,0,.21,0,.17.17,0,0,0,0-.23.14.14,0,0,0-.21,0,.17.17,0,0,0,0,.23m1,.35a.09.09,0,0,0,0-.12.08.08,0,0,0-.11,0,.09.09,0,0,0,0,.12A.08.08,0,0,0,35.95,46.68Zm-2.14.08a.12.12,0,0,0,0-.16.1.1,0,0,0-.15,0,.12.12,0,0,0,0,.16A.1.1,0,0,0,33.81,46.76ZM33,45.95A.13.13,0,0,0,33,45.8a.11.11,0,0,0-.14.09.13.13,0,0,0,.08.15A.11.11,0,0,0,33,45.95Zm-.3.73a.15.15,0,0,0,0-.2.12.12,0,0,0-.18,0,.15.15,0,0,0,0,.2A.12.12,0,0,0,32.74,46.68Zm4.15-.61a.21.21,0,0,0-.14-.25.19.19,0,0,0-.23.15.21.21,0,0,0,.14.25A.19.19,0,0,0,36.89,46.06Zm.93.27a.2.2,0,0,0,0-.27.16.16,0,0,0-.24,0,.2.2,0,0,0,0,.27A.16.16,0,0,0,37.82,46.34Zm1.12-.41a.14.14,0,0,0-.05-.19.12.12,0,0,0-.17.05.14.14,0,0,0,.05.19A.12.12,0,0,0,38.94,45.93Zm-8,.66a.11.11,0,0,0,0-.15.1.1,0,0,0-.14,0,.11.11,0,0,0,0,.15A.1.1,0,0,0,30.9,46.58Zm.55-.44a.18.18,0,0,0,0-.24.15.15,0,0,0-.22,0,.18.18,0,0,0,0,.24A.15.15,0,0,0,31.44,46.15Zm-1.74.26a.19.19,0,0,0,.06-.25.16.16,0,0,0-.23-.06.19.19,0,0,0-.06.25A.16.16,0,0,0,29.7,46.4Zm-1.25.08a.14.14,0,0,0,0-.18.11.11,0,0,0-.17,0,.14.14,0,0,0,0,.18A.11.11,0,0,0,28.45,46.49Zm-.2-.89a.11.11,0,0,0,0-.15.09.09,0,0,0-.14,0,.11.11,0,0,0,0,.15A.09.09,0,0,0,28.25,45.59Zm1,1.2a.09.09,0,0,0,0-.12.08.08,0,0,0-.11,0,.09.09,0,0,0,0,.12A.08.08,0,0,0,29.29,46.8Zm-2.39-1a.2.2,0,0,0,.06-.26.17.17,0,0,0-.24-.06.2.2,0,0,0-.06.26A.17.17,0,0,0,26.9,45.8Zm.31.74a.15.15,0,0,0,0-.2.12.12,0,0,0-.19,0,.15.15,0,0,0,0,.2A.12.12,0,0,0,27.21,46.54ZM24.3,45.1a.35.35,0,0,0-.23-.41.31.31,0,0,0-.38.25.35.35,0,0,0,.23.41A.31.31,0,0,0,24.3,45.1Zm.58.55a.17.17,0,0,0,0-.22.14.14,0,0,0-.2,0,.17.17,0,0,0,0,.22A.14.14,0,0,0,24.89,45.65Zm-3.22-1a.15.15,0,0,0-.1-.17.13.13,0,0,0-.16.11.15.15,0,0,0,.1.18A.13.13,0,0,0,21.67,44.62Zm-2.65-1a.24.24,0,0,0-.09-.31.2.2,0,0,0-.29.09.24.24,0,0,0,.09.31A.2.2,0,0,0,19,43.67Zm1.25.78a.21.21,0,0,0,.13-.26.19.19,0,0,0-.24-.14.21.21,0,0,0-.13.26A.19.19,0,0,0,20.27,44.45ZM34.35,46a.18.18,0,0,0,.05-.23.15.15,0,0,0-.21-.06.18.18,0,0,0-.05.23A.15.15,0,0,0,34.35,46Z"/><path class="cls-26" d="M19.94,38.17a.14.14,0,0,1-.21,0,.17.17,0,0,1,0-.23.14.14,0,0,1,.21,0,.17.17,0,0,1,0,.23m-1,.3a.09.09,0,0,1,0-.12.08.08,0,0,1,.11,0,.09.09,0,0,1,0,.12A.08.08,0,0,1,18.89,38.48Zm2.14.18a.12.12,0,0,1,0-.16.1.1,0,0,1,.15,0,.12.12,0,0,1,0,.16A.1.1,0,0,1,21,38.65Zm.79-.78a.12.12,0,0,1,.09-.15.12.12,0,0,1,.14.1.12.12,0,0,1-.09.15A.12.12,0,0,1,21.81,37.88Zm.28.74a.15.15,0,0,1,0-.2.12.12,0,0,1,.18,0,.15.15,0,0,1,0,.2A.12.12,0,0,1,22.09,38.62ZM18,37.82a.2.2,0,0,1,.15-.24.19.19,0,0,1,.23.16.2.2,0,0,1-.15.24A.19.19,0,0,1,18,37.82Zm-.94.23a.2.2,0,0,1,0-.26.16.16,0,0,1,.24,0,.2.2,0,0,1,0,.27A.16.16,0,0,1,17,38.06Zm-1.11-.46a.14.14,0,0,1,.06-.18.12.12,0,0,1,.17.06.14.14,0,0,1-.05.18A.12.12,0,0,1,15.91,37.59Zm8,1a.11.11,0,0,1,0-.15.1.1,0,0,1,.13,0,.11.11,0,0,1,0,.15A.1.1,0,0,1,23.94,38.61Zm-.53-.46a.18.18,0,0,1,0-.24.15.15,0,0,1,.22,0,.18.18,0,0,1,0,.24A.15.15,0,0,1,23.4,38.15Zm1.73.34a.19.19,0,0,1,0-.25.16.16,0,0,1,.23-.05.19.19,0,0,1,0,.25A.16.16,0,0,1,25.14,38.48Zm1.25.14a.14.14,0,0,1,0-.18.11.11,0,0,1,.17,0,.14.14,0,0,1,0,.18A.11.11,0,0,1,26.39,38.62Zm.22-.88a.11.11,0,0,1,0-.15.09.09,0,0,1,.14,0,.11.11,0,0,1,0,.15A.09.09,0,0,1,26.61,37.74Zm-1.07,1.16a.09.09,0,0,1,0-.12.08.08,0,0,1,.11,0,.09.09,0,0,1,0,.12A.08.08,0,0,1,25.54,38.89ZM27.95,38a.2.2,0,0,1-.05-.26.17.17,0,0,1,.24-.05.2.2,0,0,1,.05.26A.17.17,0,0,1,27.95,38Zm-.32.72a.15.15,0,0,1,0-.2.12.12,0,0,1,.19,0,.15.15,0,0,1,0,.2A.12.12,0,0,1,27.62,38.73Zm2.94-1.31a.34.34,0,0,1,.24-.4.32.32,0,0,1,.37.26.34.34,0,0,1-.24.4A.32.32,0,0,1,30.56,37.42Zm-.6.53a.17.17,0,0,1,0-.22.14.14,0,0,1,.2,0,.17.17,0,0,1,0,.22A.14.14,0,0,1,30,37.94Zm3.24-.88a.14.14,0,0,1,.1-.17.13.13,0,0,1,.16.11.14.14,0,0,1-.1.17A.13.13,0,0,1,33.2,37.06Zm2.67-.83a.24.24,0,0,1,.09-.31.21.21,0,0,1,.29.1.24.24,0,0,1-.09.31A.21.21,0,0,1,35.87,36.22Zm-1.26.73a.22.22,0,0,1-.13-.27.19.19,0,0,1,.25-.13.22.22,0,0,1,.13.27A.19.19,0,0,1,34.61,36.95Zm-14.11,1a.18.18,0,0,1,0-.23.15.15,0,0,1,.21,0,.18.18,0,0,1,0,.23A.15.15,0,0,1,20.5,37.92Z"/><path class="cls-26" d="M25.06,43.61a.14.14,0,0,1-.21,0,.17.17,0,0,1,0-.22.14.14,0,0,1,.21,0,.17.17,0,0,1,0,.22M24,43.78a.09.09,0,0,1,0-.12.08.08,0,0,1,.11,0,.09.09,0,0,1,0,.12A.08.08,0,0,1,24,43.78Zm2.1.45a.12.12,0,0,1,0-.16.1.1,0,0,1,.15,0,.12.12,0,0,1,0,.16A.1.1,0,0,1,26.09,44.23Zm.87-.67a.12.12,0,0,1,.1-.13.12.12,0,0,1,.12.11.12.12,0,0,1-.1.13A.12.12,0,0,1,27,43.56Zm.2.77a.15.15,0,0,1,0-.19.12.12,0,0,1,.18,0,.15.15,0,0,1,0,.19A.12.12,0,0,1,27.15,44.33Zm-4-1.32a.2.2,0,0,1,.17-.22.2.2,0,0,1,.21.19.2.2,0,0,1-.17.22A.2.2,0,0,1,23.13,43Zm-1,.11a.2.2,0,0,1,0-.26.16.16,0,0,1,.24,0,.2.2,0,0,1,0,.26A.16.16,0,0,1,22.17,43.12Zm-1.05-.6a.14.14,0,0,1,.08-.18.12.12,0,0,1,.16.08.14.14,0,0,1-.07.18A.13.13,0,0,1,21.12,42.52Zm7.87,2a.11.11,0,0,1,.06-.14.1.1,0,0,1,.13.07.11.11,0,0,1-.06.14A.1.1,0,0,1,29,44.56ZM28.51,44a.18.18,0,0,1,0-.23.15.15,0,0,1,.22,0,.18.18,0,0,1,0,.23A.15.15,0,0,1,28.51,44Zm1.69.56a.19.19,0,0,1,0-.26.16.16,0,0,1,.24,0,.19.19,0,0,1,0,.26A.16.16,0,0,1,30.19,44.59Zm1.23.3a.14.14,0,0,1,0-.18.11.11,0,0,1,.17,0,.14.14,0,0,1,0,.18A.11.11,0,0,1,31.42,44.89Zm.32-.85a.11.11,0,0,1,0-.15.09.09,0,0,1,.14,0,.11.11,0,0,1,0,.15A.09.09,0,0,1,31.74,44Zm-1.19,1a.09.09,0,0,1,0-.11.08.08,0,0,1,.1.05.09.09,0,0,1,0,.11A.08.08,0,0,1,30.54,45ZM33,44.47a.2.2,0,0,1,0-.27.16.16,0,0,1,.25,0,.2.2,0,0,1,0,.27A.16.16,0,0,1,33,44.47Zm-.4.68a.15.15,0,0,1,0-.2.13.13,0,0,1,.18,0,.15.15,0,0,1,0,.2A.13.13,0,0,1,32.64,45.15Zm3.06-.92a.33.33,0,0,1,.28-.37.33.33,0,0,1,.34.31.33.33,0,0,1-.28.37A.32.32,0,0,1,35.7,44.23Zm-.65.44a.16.16,0,0,1,0-.22.14.14,0,0,1,.2,0,.16.16,0,0,1,0,.22A.14.14,0,0,1,35.05,44.67Zm3.31-.46a.14.14,0,0,1,.12-.16.14.14,0,0,1,.14.13.14.14,0,0,1-.12.16A.14.14,0,0,1,38.37,44.21Zm2.75-.48a.23.23,0,0,1,.13-.29.21.21,0,0,1,.27.14.23.23,0,0,1-.13.29A.21.21,0,0,1,41.11,43.73Zm-1.34.56a.22.22,0,0,1-.1-.28.19.19,0,0,1,.26-.1.22.22,0,0,1,.1.28A.19.19,0,0,1,39.78,44.29Zm-14.13-.86a.18.18,0,0,1,0-.24.15.15,0,0,1,.22,0,.18.18,0,0,1,0,.24A.15.15,0,0,1,25.65,43.43Z"/></svg>