<?xml version="1.0" encoding="utf-8"?>
<!-- Generator: Adobe Illustrator 21.0.0, SVG Export Plug-In . SVG Version: 6.00 Build 0)  -->
<svg version="1.1" id="Layer_1" xmlns="http://www.w3.org/2000/svg" xmlns:xlink="http://www.w3.org/1999/xlink" x="0px" y="0px"
	 viewBox="0 0 512 128" width="40%" height="25%" style="enable-background:new 0 0 512 128;" xml:space="preserve">
<g id="_x31_" transform="matrix( 1, 0, 0, 1, 23.25,19.95) ">
	<g transform="matrix( 1, 0, 0, 1, 0,0) ">
		<g transform="matrix( 1, 0, 0, 1, 0,0) ">
			<g>
				<g id="Graphic_shape_275_0_Layer0_0_FILL">
					
						<radialGradient id="SVGID_1_" cx="-430.176" cy="878.4302" r="5.3687" gradientTransform="matrix(-0.837 -0.5472 0.617 -0.8324 -913.6068 481.9349)" gradientUnits="userSpaceOnUse">
						<stop  offset="0" style="stop-color:#BEDEEB;stop-opacity:0.451"/>
						<stop  offset="1" style="stop-color:#46B954"/>
					</radialGradient>
					<path style="fill:url(#SVGID_1_);" d="M-10.4-9.4c-0.3,0.3-0.7,0.5-1.1,0.6c-1,0.3-1.8,0-2.4-0.7c-1.1-1.1-1.5-2.5-1.3-4.1
						c0.2-1.4,0.7-2.7,1.7-3.9l0.6-0.9l0.9-1.5l2.3,3.6c0.6,0.9,0.9,1.9,1,3C-8.6-11.8-9.1-10.5-10.4-9.4z"/>
				</g>
			</g>
		</g>
	</g>
</g>
<g id="_x32_" transform="matrix( 1, 0, 0, 0.938018798828125, 23.25,19.95) " style="opacity:0.9;">
	<g transform="matrix( 1, 0, 0, 1, 0,0) ">
		<g transform="matrix( 1, 0, 0, 1, 0,0) ">
			<g>
				<g id="Graphic_shape_275_0_Layer0_0_FILL_10_">
					
						<radialGradient id="SVGID_2_" cx="-463.1618" cy="944.4736" r="5.3687" gradientTransform="matrix(-0.837 -0.5472 0.5788 -0.7808 -913.6068 481.1418)" gradientUnits="userSpaceOnUse">
						<stop  offset="0" style="stop-color:#BEDEEB;stop-opacity:0.451"/>
						<stop  offset="1" style="stop-color:#46B954"/>
					</radialGradient>
					<path style="fill:url(#SVGID_2_);" d="M21.9,1.6c-0.3,0.3-0.7,0.5-1.1,0.6c-1,0.3-1.8,0-2.5-0.7c-1.1-1.1-1.5-2.5-1.3-4.1
						c0.2-1.4,0.7-2.7,1.7-3.9l0.6-0.9l0.9-1.5l2.3,3.6c0.6,0.9,0.9,1.9,1,3C23.7-0.8,23.1,0.5,21.9,1.6z"/>
				</g>
			</g>
		</g>
	</g>
</g>
<g id="_x33_" transform="matrix( 1, 0, 0, 0.87603759765625, 23.25,19.95) " style="opacity:0.8;">
	<g transform="matrix( 1, 0, 0, 1, 0,0) ">
		<g transform="matrix( 1, 0, 0, 1, 0,0) ">
			<g>
				<g id="Graphic_shape_275_0_Layer0_0_FILL_13_">
					
						<radialGradient id="SVGID_3_" cx="-497.4563" cy="1018.2982" r="5.3407" gradientTransform="matrix(-0.837 -0.5472 0.5405 -0.7292 -913.6068 480.2366)" gradientUnits="userSpaceOnUse">
						<stop  offset="0" style="stop-color:#BEDEEB;stop-opacity:0.451"/>
						<stop  offset="1" style="stop-color:#46B954"/>
					</radialGradient>
					<path style="fill:url(#SVGID_3_);" d="M54.4,14.3c-0.3,0.3-0.7,0.5-1.1,0.6c-1,0.2-1.8,0-2.4-0.7c-1.1-1.1-1.5-2.5-1.3-4.1
						c0.2-1.4,0.7-2.7,1.6-3.9l0.6-0.9l0.9-1.5l2.3,3.6c0.6,0.9,0.9,1.9,1,3C56.1,12,55.6,13.3,54.4,14.3z"/>
				</g>
			</g>
		</g>
	</g>
</g>
<g id="_x34_" transform="matrix( 1, 0, 0, 0.8140716552734375, 23.25,19.95) " style="opacity:0.7;">
	<g transform="matrix( 1, 0, 0, 1, 0,0) ">
		<g transform="matrix( 1, 0, 0, 1, 0,0) ">
			<g>
				<g id="Graphic_shape_275_0_Layer0_0_FILL_16_">
					
						<radialGradient id="SVGID_4_" cx="-532.013" cy="1101.9709" r="5.3687" gradientTransform="matrix(-0.837 -0.5472 0.5023 -0.6776 -913.6068 479.1939)" gradientUnits="userSpaceOnUse">
						<stop  offset="0" style="stop-color:#BEDEEB;stop-opacity:0.451"/>
						<stop  offset="1" style="stop-color:#46B954"/>
					</radialGradient>
					<path style="fill:url(#SVGID_4_);" d="M86.4,28c-0.3,0.3-0.7,0.5-1.2,0.6c-1,0.3-1.8,0-2.4-0.7c-1.1-1.1-1.5-2.5-1.3-4.1
						c0.2-1.4,0.7-2.7,1.7-3.9l0.6-0.9l1-1.5l2.3,3.6c0.6,0.9,0.9,1.9,1,3C88.2,25.7,87.6,27,86.4,28z"/>
				</g>
			</g>
		</g>
	</g>
</g>
<g id="_x35_" transform="matrix( 1, 0, 0, 0.7520904541015625, 23.25,19.95) " style="opacity:0.65;">
	<g transform="matrix( 1, 0, 0, 1, 0,0) ">
		<g transform="matrix( 1, 0, 0, 1, 0,0) ">
			<g>
				<g id="Graphic_shape_275_0_Layer0_0_FILL_19_">
					
						<radialGradient id="SVGID_5_" cx="-567.8808" cy="1207.0463" r="10.7374" gradientTransform="matrix(-0.428 -0.2736 0.2373 -0.313 -412.5774 262.6918)" gradientUnits="userSpaceOnUse">
						<stop  offset="0" style="stop-color:#BEDEEB;stop-opacity:0.451"/>
						<stop  offset="1" style="stop-color:#46B954"/>
					</radialGradient>
					<path style="fill:url(#SVGID_5_);" d="M118.1,44.7c-0.3,0.3-0.7,0.5-1.2,0.6c-1,0.3-1.8,0-2.5-0.7c-1.1-1.2-1.5-2.5-1.4-4.1
						c0.2-1.4,0.7-2.7,1.7-3.9l0.6-0.9l1-1.6l2.3,3.6c0.6,0.9,0.9,1.9,1,3C119.9,42.3,119.4,43.6,118.1,44.7z"/>
				</g>
			</g>
		</g>
	</g>
</g>
<g id="_x36_" transform="matrix( 1, 0, 0, 0.6901092529296875, 23.25,19.95) " style="opacity:0.6;">
	<g transform="matrix( 1, 0, 0, 1, 0,0) ">
		<g transform="matrix( 1, 0, 0, 1, 0,0) ">
			<g>
				<g id="Graphic_shape_275_0_Layer0_0_FILL_23_">
					
						<radialGradient id="SVGID_6_" cx="-607.2881" cy="1308.9514" r="10.7374" gradientTransform="matrix(-0.4035 -0.3118 0.2052 -0.3273 -365.344 300.4541)" gradientUnits="userSpaceOnUse">
						<stop  offset="0" style="stop-color:#BEDEEB;stop-opacity:0.451"/>
						<stop  offset="1" style="stop-color:#46B954"/>
					</radialGradient>
					<path style="fill:url(#SVGID_6_);" d="M149.5,66.4c-0.3,0.3-0.7,0.5-1.1,0.7c-0.9,0.3-1.7,0-2.4-0.8c-1-1.3-1.5-2.9-1.3-4.7
						c0.2-1.6,0.7-3.1,1.6-4.4l0.6-1l0.9-1.8l2.2,4.1c0.5,1,0.9,2.2,1,3.4C151.2,63.7,150.7,65.2,149.5,66.4z"/>
				</g>
			</g>
		</g>
	</g>
</g>
<g id="_x37_" transform="matrix( 1, 0, 0, 0.6281280517578125, 23.25,19.95) " style="opacity:0.55;">
	<g transform="matrix( 1, 0, 0, 1, 0,0) ">
		<g transform="matrix( 1, 0, 0, 1, 0,0) ">
			<g>
				<g id="Graphic_shape_275_0_Layer0_0_FILL_27_">
					
						<radialGradient id="SVGID_7_" cx="-647.9656" cy="1425.4614" r="5.3687" gradientTransform="matrix(-0.837 -0.5472 0.3876 -0.5228 -913.6068 474.8305)" gradientUnits="userSpaceOnUse">
						<stop  offset="0" style="stop-color:#BEDEEB;stop-opacity:0.451"/>
						<stop  offset="1" style="stop-color:#46B954"/>
					</radialGradient>
					<path style="fill:url(#SVGID_7_);" d="M182.4,88.5c-0.3,0.3-0.7,0.5-1.2,0.6c-1,0.3-1.8,0-2.4-0.7c-1.1-1.2-1.5-2.5-1.3-4.1
						c0.2-1.4,0.7-2.7,1.6-3.9l0.6-0.9l0.9-1.5l2.3,3.6c0.6,0.9,0.9,1.9,1,3C184.2,86.2,183.6,87.5,182.4,88.5z"/>
				</g>
			</g>
		</g>
	</g>
</g>
<g id="_x38_" transform="matrix( 1, 0, 0, 0.566162109375, 23.25,19.95) " style="opacity:0.5;">
	<g transform="matrix( 1, 0, 0, 1, 0,0) ">
		<g transform="matrix( 1, 0, 0, 1, 0,0) ">
			<g>
				<g id="Graphic_shape_275_0_Layer0_0_FILL_30_">
					
						<radialGradient id="SVGID_8_" cx="-692.6941" cy="1564.4753" r="5.3687" gradientTransform="matrix(-0.837 -0.5472 0.3493 -0.4713 -913.6068 472.7396)" gradientUnits="userSpaceOnUse">
						<stop  offset="0" style="stop-color:#BEDEEB;stop-opacity:0.451"/>
						<stop  offset="1" style="stop-color:#46B954"/>
					</radialGradient>
					<path style="fill:url(#SVGID_8_);" d="M213.9,118.9c-0.3,0.3-0.7,0.5-1.2,0.6c-1,0.3-1.8,0-2.4-0.7c-1.1-1.2-1.5-2.5-1.3-4.1
						c0.2-1.4,0.7-2.7,1.6-3.9l0.6-0.9l0.9-1.6l2.3,3.6c0.6,0.9,0.9,1.9,1,3C215.7,116.6,215.1,117.9,213.9,118.9z"/>
				</g>
			</g>
		</g>
	</g>
</g>
<g id="_x39_" transform="matrix( 1, 0, 0, 0.504180908203125, 23.25,19.95) " style="opacity:0.45;">
	<g transform="matrix( 1, 0, 0, 1, 0,0) ">
		<g transform="matrix( 1, 0, 0, 1, 0,0) ">
			<g>
				<g id="Graphic_shape_275_0_Layer0_0_FILL_33_">
					
						<radialGradient id="SVGID_9_" cx="-741.6045" cy="1728.8105" r="5.6969" gradientTransform="matrix(-0.837 -0.5472 0.3111 -0.4197 -913.6068 470.1338)" gradientUnits="userSpaceOnUse">
						<stop  offset="0" style="stop-color:#BEDEEB;stop-opacity:0.451"/>
						<stop  offset="1" style="stop-color:#46B954"/>
					</radialGradient>
					<path style="fill:url(#SVGID_9_);" d="M246.2,155.1c-0.4,0.3-0.8,0.5-1.2,0.6c-1,0.3-1.9,0-2.6-0.7c-1.1-1.2-1.6-2.7-1.4-4.4
						c0.2-1.5,0.8-2.9,1.8-4.1l0.7-0.9l1-1.6l2.4,3.8c0.6,1,1,2,1.1,3.2C248.1,152.6,247.5,154,246.2,155.1z"/>
				</g>
			</g>
		</g>
	</g>
</g>
<g id="_x31_0" style="opacity:0.45;">
	<g transform="matrix( 1, 0, 0, 0.44219970703125, 24.4,27.8) ">
		<g transform="matrix( 1, 0, 0, 1, 0,0) ">
			<g transform="matrix( 1, 0, 0, 1, 0,0) ">
				<g>
					<g id="Graphic_shape_275_0_Layer0_0_FILL_51_">
						
							<radialGradient id="SVGID_10_" cx="-784.8361" cy="1939.1079" r="5.7585" gradientTransform="matrix(-0.837 -0.5472 0.2728 -0.3681 -909.7258 459.6341)" gradientUnits="userSpaceOnUse">
							<stop  offset="0" style="stop-color:#BEDEEB;stop-opacity:0.451"/>
							<stop  offset="1" style="stop-color:#46B954"/>
						</radialGradient>
						<path style="fill:url(#SVGID_10_);" d="M277.5,180.1c-0.4,0.3-0.8,0.5-1.2,0.6c-1.1,0.3-1.9,0-2.6-0.7
							c-1.1-1.2-1.6-2.7-1.4-4.4c0.2-1.5,0.8-2.9,1.8-4.2l0.7-0.9l1-1.7l2.4,3.8c0.6,1,1,2,1.1,3.2
							C279.4,177.5,278.9,179,277.5,180.1z"/>
					</g>
				</g>
			</g>
		</g>
	</g>
	<g transform="matrix( -0.22296142578125, -0.22296142578125, 0.4072265625, -0.4072265625, 32.75,19.65) ">
		<g transform="matrix( 1, 0, 0, 1, 0,0) ">
			<g transform="matrix( 1, 0, 0, 1, 0,0) ">
				<g>
					<g id="Graphic_shape_275_0_Layer0_0_FILL_49_">
						
							<radialGradient id="SVGID_11_" cx="-350.8724" cy="1065.962" r="5.7585" gradientTransform="matrix(4.905737e-02 0.3076 -0.5921 0.1161 -142.5641 218.8665)" gradientUnits="userSpaceOnUse">
							<stop  offset="0" style="stop-color:#BEDEEB;stop-opacity:0.451"/>
							<stop  offset="1" style="stop-color:#46B954"/>
						</radialGradient>
						<path style="fill:url(#SVGID_11_);" d="M-789.7,239.5c-0.4,0.3-0.8,0.5-1.2,0.6c-1.1,0.3-1.9,0-2.6-0.7
							c-1.1-1.2-1.6-2.7-1.4-4.4c0.2-1.5,0.8-2.9,1.8-4.2l0.7-0.9l1-1.7l2.4,3.8c0.6,1,1,2,1.1,3.2
							C-787.8,237-788.4,238.4-789.7,239.5z"/>
					</g>
				</g>
			</g>
		</g>
	</g>
	<g transform="matrix( 0.22296142578125, -0.22296142578125, -0.4072265625, -0.4072265625, 13.75,19.65) ">
		<g transform="matrix( 1, 0, 0, 1, 0,0) ">
			<g transform="matrix( 1, 0, 0, 1, 0,0) ">
				<g>
					<g id="Graphic_shape_275_0_Layer0_0_FILL_47_">
						
							<radialGradient id="SVGID_12_" cx="-5424.2471" cy="-1597.9283" r="5.7585" gradientTransform="matrix(-0.3242 6.359270e-02 8.960080e-02 0.5618 -1167.2012 798.9692)" gradientUnits="userSpaceOnUse">
							<stop  offset="0" style="stop-color:#BEDEEB;stop-opacity:0.451"/>
							<stop  offset="1" style="stop-color:#46B954"/>
						</radialGradient>
						<path style="fill:url(#SVGID_12_);" d="M449.4-438.9c-0.4,0.3-0.8,0.5-1.2,0.6c-1.1,0.3-1.9,0-2.6-0.7
							c-1.1-1.2-1.6-2.7-1.4-4.4c0.2-1.5,0.8-2.9,1.8-4.2l0.7-0.9l1-1.7l2.4,3.8c0.6,1,1,2,1.1,3.2
							C451.3-441.4,450.7-440,449.4-438.9z"/>
					</g>
				</g>
			</g>
		</g>
	</g>
	<g transform="matrix( -0.3153076171875, 0, 0, -0.575897216796875, 24,13.65) ">
		<g transform="matrix( 1, 0, 0, 1, 0,0) ">
			<g transform="matrix( 1, 0, 0, 1, 0,0) ">
				<g>
					<g id="Graphic_shape_275_0_Layer0_0_FILL_45_">
						
							<radialGradient id="SVGID_13_" cx="-3616.4407" cy="-85.1157" r="5.7585" gradientTransform="matrix(0.2639 0.1725 -0.3553 0.4794 49.6677 519.6057)" gradientUnits="userSpaceOnUse">
							<stop  offset="0" style="stop-color:#BEDEEB;stop-opacity:0.451"/>
							<stop  offset="1" style="stop-color:#46B954"/>
						</radialGradient>
						<path style="fill:url(#SVGID_13_);" d="M-873.3-140.3c-0.4,0.3-0.8,0.5-1.2,0.6c-1.1,0.3-1.9,0-2.6-0.7
							c-1.1-1.2-1.6-2.7-1.4-4.4c0.2-1.5,0.8-2.9,1.8-4.2l0.7-0.9l1-1.7l2.4,3.8c0.6,1,1,2,1.1,3.2
							C-871.4-142.9-871.9-141.5-873.3-140.3z"/>
					</g>
				</g>
			</g>
		</g>
	</g>
</g>
<g id="_x31_1" style="opacity:0.45;">
	<g transform="matrix( 1, 0, 0, 0.3716278076171875, 24.45,30) ">
		<g transform="matrix( 1, 0, 0, 1, 0,0) ">
			<g transform="matrix( 1, 0, 0, 1, 0,0) ">
				<g>
					<g id="Graphic_shape_275_0_Layer0_0_FILL_55_">
						
							<radialGradient id="SVGID_14_" cx="-829.8119" cy="2268.7642" r="5.4698" gradientTransform="matrix(-0.837 -0.5472 0.2293 -0.3093 -908.4103 452.6223)" gradientUnits="userSpaceOnUse">
							<stop  offset="0" style="stop-color:#BEDEEB;stop-opacity:0.451"/>
							<stop  offset="1" style="stop-color:#46B954"/>
						</radialGradient>
						<path style="fill:url(#SVGID_14_);" d="M307.6,209.4c-0.3,0.3-0.7,0.5-1.2,0.6c-1,0.3-1.8,0-2.5-0.7c-1.1-1.2-1.5-2.6-1.3-4.2
							c0.2-1.4,0.7-2.8,1.7-4l0.6-0.9l1-1.6l2.3,3.6c0.6,0.9,0.9,1.9,1,3C309.4,207,308.9,208.3,307.6,209.4z"/>
					</g>
				</g>
			</g>
		</g>
	</g>
	<g transform="matrix( -0.2229461669921875, -0.2229461669921875, 0.4072113037109375, -0.4072113037109375, 34.2,19.35) ">
		<g transform="matrix( 1, 0, 0, 1, 0,0) ">
			<g transform="matrix( 1, 0, 0, 1, 0,0) ">
				<g>
					<g id="Graphic_shape_275_0_Layer0_0_FILL_53_">
						
							<radialGradient id="SVGID_15_" cx="-276.2827" cy="1181.0929" r="5.4698" gradientTransform="matrix(4.905401e-02 0.3076 -0.5921 0.1161 -143.9252 218.3131)" gradientUnits="userSpaceOnUse">
							<stop  offset="0" style="stop-color:#BEDEEB;stop-opacity:0.451"/>
							<stop  offset="1" style="stop-color:#46B954"/>
						</radialGradient>
						<path style="fill:url(#SVGID_15_);" d="M-855.6,275.1c-0.3,0.3-0.7,0.5-1.2,0.6c-1,0.3-1.8,0-2.5-0.7
							c-1.1-1.2-1.5-2.6-1.3-4.2c0.2-1.4,0.7-2.8,1.7-4l0.6-0.9l1-1.6l2.3,3.6c0.6,0.9,0.9,1.9,1,3
							C-853.8,272.6-854.3,274-855.6,275.1z"/>
					</g>
				</g>
			</g>
		</g>
	</g>
	<g transform="matrix( 0.2229461669921875, -0.2229461669921875, -0.4072113037109375, -0.4072113037109375, 12.3,19.35) ">
		<g transform="matrix( 1, 0, 0, 1, 0,0) ">
			<g transform="matrix( 1, 0, 0, 1, 0,0) ">
				<g>
					<g id="Graphic_shape_275_0_Layer0_0_FILL_52_">
						
							<radialGradient id="SVGID_16_" cx="-5648.9229" cy="-1642.8728" r="5.4698" gradientTransform="matrix(-0.3242 6.358854e-02 8.959718e-02 0.5618 -1166.205 800.025)" gradientUnits="userSpaceOnUse">
							<stop  offset="0" style="stop-color:#BEDEEB;stop-opacity:0.451"/>
							<stop  offset="1" style="stop-color:#46B954"/>
						</radialGradient>
						<path style="fill:url(#SVGID_16_);" d="M519-477.5c-0.3,0.3-0.7,0.5-1.2,0.6c-1,0.3-1.8,0-2.5-0.7c-1.1-1.2-1.5-2.6-1.3-4.2
							c0.2-1.4,0.7-2.8,1.7-4l0.6-0.9l1-1.6l2.3,3.6c0.6,0.9,0.9,1.9,1,3C520.8-480,520.3-478.6,519-477.5z"/>
					</g>
				</g>
			</g>
		</g>
	</g>
	<g transform="matrix( -0.3152923583984375, 0, 0, -0.5758819580078125, 24.2,12.2) ">
		<g transform="matrix( 1, 0, 0, 1, 0,0) ">
			<g transform="matrix( 1, 0, 0, 1, 0,0) ">
				<g>
					<g id="Graphic_shape_275_0_Layer0_0_FILL_54_">
						
							<radialGradient id="SVGID_17_" cx="-3862.5083" cy="-1.9424" r="5.4698" gradientTransform="matrix(0.2639 0.1725 -0.3553 0.4793 48.6413 520.7036)" gradientUnits="userSpaceOnUse">
							<stop  offset="0" style="stop-color:#BEDEEB;stop-opacity:0.451"/>
							<stop  offset="1" style="stop-color:#46B954"/>
						</radialGradient>
						<path style="fill:url(#SVGID_17_);" d="M-968.8-142c-0.3,0.3-0.7,0.5-1.2,0.6c-1,0.3-1.8,0-2.5-0.7c-1.1-1.2-1.5-2.6-1.3-4.2
							c0.2-1.4,0.7-2.8,1.7-4l0.6-0.9l1-1.6l2.3,3.6c0.6,0.9,0.9,1.9,1,3C-967-144.4-967.6-143.1-968.8-142z"/>
					</g>
				</g>
			</g>
		</g>
	</g>
</g>
<g id="_x31_2" style="opacity:0.4;">
	<g transform="matrix( 1, 0, 0, 0.30108642578125, 24.5,32.25) ">
		<g transform="matrix( 1, 0, 0, 1, 0,0) ">
			<g transform="matrix( 1, 0, 0, 1, 0,0) ">
				<g>
					<g id="Graphic_shape_275_0_Layer0_0_FILL_67_">
						
							<radialGradient id="SVGID_18_" cx="-885.7863" cy="2715.7476" r="5.3954" gradientTransform="matrix(-0.837 -0.5472 0.1858 -0.2506 -907.0639 443.1577)" gradientUnits="userSpaceOnUse">
							<stop  offset="0" style="stop-color:#BEDEEB;stop-opacity:0.451"/>
							<stop  offset="1" style="stop-color:#46B954"/>
						</radialGradient>
						<path style="fill:url(#SVGID_18_);" d="M340.1,251.7c-0.3,0.3-0.7,0.5-1.2,0.6c-1,0.3-1.8,0-2.5-0.7c-1.1-1.2-1.5-2.5-1.3-4.1
							c0.2-1.4,0.7-2.7,1.7-3.9l0.6-0.9l1-1.6l2.3,3.6c0.6,0.9,0.9,1.9,1,3C341.8,249.3,341.3,250.6,340.1,251.7z"/>
					</g>
				</g>
			</g>
		</g>
	</g>
	<g transform="matrix( -0.2229461669921875, -0.2229461669921875, 0.4072113037109375, -0.4072113037109375, 35.7,19.05) ">
		<g transform="matrix( 1, 0, 0, 1, 0,0) ">
			<g transform="matrix( 1, 0, 0, 1, 0,0) ">
				<g>
					<g id="Graphic_shape_275_0_Layer0_0_FILL_65_">
						
							<radialGradient id="SVGID_19_" cx="-193.1734" cy="1304.4406" r="5.3954" gradientTransform="matrix(4.905401e-02 0.3076 -0.5921 0.1161 -145.3659 217.7421)" gradientUnits="userSpaceOnUse">
							<stop  offset="0" style="stop-color:#BEDEEB;stop-opacity:0.451"/>
							<stop  offset="1" style="stop-color:#46B954"/>
						</radialGradient>
						<path style="fill:url(#SVGID_19_);" d="M-926,314.3c-0.3,0.3-0.7,0.5-1.2,0.6c-1,0.3-1.8,0-2.5-0.7c-1.1-1.2-1.5-2.5-1.3-4.1
							c0.2-1.4,0.7-2.7,1.7-3.9l0.6-0.9l1-1.6l2.3,3.6c0.6,0.9,0.9,1.9,1,3C-924.2,311.9-924.8,313.3-926,314.3z"/>
					</g>
				</g>
			</g>
		</g>
	</g>
	<g transform="matrix( 0.2229461669921875, -0.2229461669921875, -0.4072113037109375, -0.4072113037109375, 10.8,19.05) ">
		<g transform="matrix( 1, 0, 0, 1, 0,0) ">
			<g transform="matrix( 1, 0, 0, 1, 0,0) ">
				<g>
					<g id="Graphic_shape_275_0_Layer0_0_FILL_63_">
						
							<radialGradient id="SVGID_20_" cx="-5891.4316" cy="-1689.5369" r="5.3954" gradientTransform="matrix(-0.3242 6.358854e-02 8.959718e-02 0.5618 -1165.1345 801.0955)" gradientUnits="userSpaceOnUse">
							<stop  offset="0" style="stop-color:#BEDEEB;stop-opacity:0.451"/>
							<stop  offset="1" style="stop-color:#46B954"/>
						</radialGradient>
						<path style="fill:url(#SVGID_20_);" d="M594.5-518.2c-0.3,0.3-0.7,0.5-1.2,0.6c-1,0.3-1.8,0-2.5-0.7c-1.1-1.2-1.5-2.5-1.3-4.1
							c0.2-1.4,0.7-2.7,1.7-3.9l0.6-0.9l1-1.6l2.3,3.6c0.6,0.9,0.9,1.9,1,3C596.3-520.6,595.8-519.2,594.5-518.2z"/>
					</g>
				</g>
			</g>
		</g>
	</g>
	<g transform="matrix( -0.3152923583984375, 0, 0, -0.5758819580078125, 24.35,10.8) ">
		<g transform="matrix( 1, 0, 0, 1, 0,0) ">
			<g transform="matrix( 1, 0, 0, 1, 0,0) ">
				<g>
					<g id="Graphic_shape_275_0_Layer0_0_FILL_61_">
						
							<radialGradient id="SVGID_21_" cx="-4125.6455" cy="89.4795" r="5.3954" gradientTransform="matrix(0.2639 0.1725 -0.3553 0.4793 47.652 521.7868)" gradientUnits="userSpaceOnUse">
							<stop  offset="0" style="stop-color:#BEDEEB;stop-opacity:0.451"/>
							<stop  offset="1" style="stop-color:#46B954"/>
						</radialGradient>
						<path style="fill:url(#SVGID_21_);" d="M-1071.8-142.6c-0.3,0.3-0.7,0.5-1.2,0.6c-1,0.3-1.8,0-2.5-0.7
							c-1.1-1.2-1.5-2.5-1.3-4.1c0.2-1.4,0.7-2.7,1.7-3.9l0.6-0.9l1-1.6l2.3,3.6c0.6,0.9,0.9,1.9,1,3
							C-1070-145-1070.5-143.6-1071.8-142.6z"/>
					</g>
				</g>
			</g>
		</g>
	</g>
</g>
<g id="_x31_3" style="opacity:0.4;">
	<g transform="matrix( 1, 0, 0, 0.23052978515625, 24.15,34.45) ">
		<g transform="matrix( 1, 0, 0, 1, 0,0) ">
			<g transform="matrix( 1, 0, 0, 1, 0,0) ">
				<g>
					<g id="Graphic_shape_275_0_Layer0_0_FILL_79_">
						
							<radialGradient id="SVGID_22_" cx="-960.2142" cy="3327.3972" r="6.0838" gradientTransform="matrix(-0.837 -0.5472 0.1422 -0.1919 -905.4135 429.3186)" gradientUnits="userSpaceOnUse">
							<stop  offset="0" style="stop-color:#BEDEEB;stop-opacity:0.451"/>
							<stop  offset="1" style="stop-color:#46B954"/>
						</radialGradient>
						<path style="fill:url(#SVGID_22_);" d="M372.9,321.3c-0.4,0.3-0.8,0.5-1.3,0.7c-1.1,0.3-2,0-2.8-0.8c-1.2-1.3-1.7-2.9-1.5-4.6
							c0.2-1.6,0.8-3.1,1.9-4.4l0.7-1l1.1-1.8l2.6,4.1c0.6,1,1,2.2,1.2,3.4C375,318.6,374.3,320.1,372.9,321.3z"/>
					</g>
				</g>
			</g>
		</g>
	</g>
	<g transform="matrix( -0.2229461669921875, -0.2229461669921875, 0.4072113037109375, -0.4072113037109375, 36.75,18.65) ">
		<g transform="matrix( 1, 0, 0, 1, 0,0) ">
			<g transform="matrix( 1, 0, 0, 1, 0,0) ">
				<g>
					<g id="Graphic_shape_275_0_Layer0_0_FILL_77_">
						
							<radialGradient id="SVGID_23_" cx="-103.5937" cy="1429.306" r="6.0838" gradientTransform="matrix(4.905401e-02 0.3076 -0.5921 0.1161 -146.4916 217.5005)" gradientUnits="userSpaceOnUse">
							<stop  offset="0" style="stop-color:#BEDEEB;stop-opacity:0.451"/>
							<stop  offset="1" style="stop-color:#46B954"/>
						</radialGradient>
						<path style="fill:url(#SVGID_23_);" d="M-996.5,356.7c-0.4,0.3-0.8,0.5-1.3,0.7c-1.1,0.3-2,0-2.8-0.8
							c-1.2-1.3-1.7-2.9-1.5-4.6c0.2-1.6,0.8-3.1,1.9-4.4l0.7-1l1.1-1.8l2.6,4.1c0.6,1,1,2.2,1.2,3.4
							C-994.5,354-995.1,355.5-996.5,356.7z"/>
					</g>
				</g>
			</g>
		</g>
	</g>
	<g transform="matrix( 0.2229461669921875, -0.2229461669921875, -0.4072113037109375, -0.4072113037109375, 8.95,18.65) ">
		<g transform="matrix( 1, 0, 0, 1, 0,0) ">
			<g transform="matrix( 1, 0, 0, 1, 0,0) ">
				<g>
					<g id="Graphic_shape_275_0_Layer0_0_FILL_76_">
						
							<radialGradient id="SVGID_24_" cx="-6132.4453" cy="-1732.7318" r="6.0838" gradientTransform="matrix(-0.3242 6.358854e-02 8.959718e-02 0.5618 -1163.8329 802.4406)" gradientUnits="userSpaceOnUse">
							<stop  offset="0" style="stop-color:#BEDEEB;stop-opacity:0.451"/>
							<stop  offset="1" style="stop-color:#46B954"/>
						</radialGradient>
						<path style="fill:url(#SVGID_24_);" d="M670.2-555.8c-0.4,0.3-0.8,0.5-1.3,0.7c-1.1,0.3-2,0-2.8-0.8c-1.2-1.3-1.7-2.9-1.5-4.6
							c0.2-1.6,0.8-3.1,1.9-4.4l0.7-1l1.1-1.8l2.6,4.1c0.6,1,1,2.2,1.2,3.4C672.2-558.5,671.6-557,670.2-555.8z"/>
					</g>
				</g>
			</g>
		</g>
	</g>
	<g transform="matrix( -0.3152923583984375, 0, 0, -0.5758819580078125, 24.15,9.3) ">
		<g transform="matrix( 1, 0, 0, 1, 0,0) ">
			<g transform="matrix( 1, 0, 0, 1, 0,0) ">
				<g>
					<g id="Graphic_shape_275_0_Layer0_0_FILL_78_">
						
							<radialGradient id="SVGID_25_" cx="-4385.5605" cy="184.9702" r="6.0838" gradientTransform="matrix(0.2639 0.1725 -0.3553 0.4793 46.8939 523.1448)" gradientUnits="userSpaceOnUse">
							<stop  offset="0" style="stop-color:#BEDEEB;stop-opacity:0.451"/>
							<stop  offset="1" style="stop-color:#46B954"/>
						</radialGradient>
						<path style="fill:url(#SVGID_25_);" d="M-1174.9-139.7c-0.4,0.3-0.8,0.5-1.3,0.7c-1.1,0.3-2,0-2.8-0.8
							c-1.2-1.3-1.7-2.9-1.5-4.6c0.2-1.6,0.8-3.1,1.9-4.4l0.7-1l1.1-1.8l2.6,4.1c0.6,1,1,2.2,1.2,3.4
							C-1172.9-142.4-1173.5-140.9-1174.9-139.7z"/>
					</g>
				</g>
			</g>
		</g>
	</g>
</g>
<g id="_x31_4" style="opacity:0.4;">
	<g transform="matrix( 1, 0, 0, 0.1599884033203125, 24.2,36.7) ">
		<g transform="matrix( 1, 0, 0, 1, 0,0) ">
			<g transform="matrix( 1, 0, 0, 1, 0,0) ">
				<g>
					<g id="Graphic_shape_275_0_Layer0_0_FILL_91_">
						
							<radialGradient id="SVGID_26_" cx="-1074.0502" cy="4145.605" r="4.8093" gradientTransform="matrix(-0.837 -0.5472 9.871338e-02 -0.1332 -904.0671 404.4684)" gradientUnits="userSpaceOnUse">
							<stop  offset="0" style="stop-color:#BEDEEB;stop-opacity:0.451"/>
							<stop  offset="1" style="stop-color:#46B954"/>
						</radialGradient>
						<path style="fill:url(#SVGID_26_);" d="M405.2,444.1c-0.3,0.3-0.6,0.4-1,0.5c-0.9,0.2-1.6,0-2.2-0.6c-1-1-1.4-2.3-1.2-3.7
							c0.1-1.3,0.6-2.4,1.5-3.5l0.6-0.8l0.9-1.4l2,3.2c0.5,0.8,0.8,1.7,0.9,2.7C406.8,441.9,406.3,443.1,405.2,444.1z"/>
					</g>
				</g>
			</g>
		</g>
	</g>
	<g transform="matrix( -0.2229461669921875, -0.2229461669921875, 0.4072113037109375, -0.4072113037109375, 38.25,18.35) ">
		<g transform="matrix( 1, 0, 0, 1, 0,0) ">
			<g transform="matrix( 1, 0, 0, 1, 0,0) ">
				<g>
					<g id="Graphic_shape_275_0_Layer0_0_FILL_89_">
						
							<radialGradient id="SVGID_27_" cx="-30.2729" cy="1551.4918" r="4.8093" gradientTransform="matrix(4.905401e-02 0.3076 -0.5921 0.1161 -147.9322 216.9295)" gradientUnits="userSpaceOnUse">
							<stop  offset="0" style="stop-color:#BEDEEB;stop-opacity:0.451"/>
							<stop  offset="1" style="stop-color:#46B954"/>
						</radialGradient>
						<path style="fill:url(#SVGID_27_);" d="M-1067,391.8c-0.3,0.3-0.6,0.4-1,0.5c-0.9,0.2-1.6,0-2.2-0.6c-1-1-1.4-2.3-1.2-3.7
							c0.1-1.3,0.6-2.4,1.5-3.5l0.6-0.8l0.9-1.4l2,3.2c0.5,0.8,0.8,1.7,0.9,2.7C-1065.4,389.7-1065.9,390.9-1067,391.8z"/>
					</g>
				</g>
			</g>
		</g>
	</g>
	<g transform="matrix( 0.2229461669921875, -0.2229461669921875, -0.4072113037109375, -0.4072113037109375, 7.45,18.35) ">
		<g transform="matrix( 1, 0, 0, 1, 0,0) ">
			<g transform="matrix( 1, 0, 0, 1, 0,0) ">
				<g>
					<g id="Graphic_shape_275_0_Layer0_0_FILL_88_">
						
							<radialGradient id="SVGID_28_" cx="-6382.1372" cy="-1785.6986" r="4.8093" gradientTransform="matrix(-0.3242 6.358854e-02 8.959718e-02 0.5618 -1162.7623 803.511)" gradientUnits="userSpaceOnUse">
							<stop  offset="0" style="stop-color:#BEDEEB;stop-opacity:0.451"/>
							<stop  offset="1" style="stop-color:#46B954"/>
						</radialGradient>
						<path style="fill:url(#SVGID_28_);" d="M747.2-601.5c-0.3,0.3-0.6,0.4-1,0.5c-0.9,0.2-1.6,0-2.2-0.6c-1-1-1.4-2.3-1.2-3.7
							c0.1-1.3,0.6-2.4,1.5-3.5l0.6-0.8l0.9-1.4l2,3.2c0.5,0.8,0.8,1.7,0.9,2.7C748.8-603.6,748.3-602.4,747.2-601.5z"/>
					</g>
				</g>
			</g>
		</g>
	</g>
	<g transform="matrix( -0.3152923583984375, 0, 0, -0.5758819580078125, 24.3,7.9) ">
		<g transform="matrix( 1, 0, 0, 1, 0,0) ">
			<g transform="matrix( 1, 0, 0, 1, 0,0) ">
				<g>
					<g id="Graphic_shape_275_0_Layer0_0_FILL_90_">
						
							<radialGradient id="SVGID_29_" cx="-4658.2432" cy="271.3222" r="4.8093" gradientTransform="matrix(0.2639 0.1725 -0.3553 0.4793 45.9045 524.228)" gradientUnits="userSpaceOnUse">
							<stop  offset="0" style="stop-color:#BEDEEB;stop-opacity:0.451"/>
							<stop  offset="1" style="stop-color:#46B954"/>
						</radialGradient>
						<path style="fill:url(#SVGID_29_);" d="M-1278.8-145.3c-0.3,0.3-0.6,0.4-1,0.5c-0.9,0.2-1.6,0-2.2-0.6c-1-1-1.4-2.3-1.2-3.7
							c0.1-1.3,0.6-2.4,1.5-3.5l0.6-0.8l0.9-1.4l2,3.2c0.5,0.8,0.8,1.7,0.9,2.7C-1277.2-147.5-1277.7-146.3-1278.8-145.3z"/>
					</g>
				</g>
			</g>
		</g>
	</g>
</g>
<g id="_x31_5" style="opacity:0.35;">
	<g transform="matrix( 1, 0, 0, 0.089447021484375, 24.25,38.9) ">
		<g transform="matrix( 1, 0, 0, 1, 0,0) ">
			<g transform="matrix( 1, 0, 0, 1, 0,0) ">
				<g>
					<g id="Graphic_shape_275_0_Layer0_0_FILL_103_">
						
							<radialGradient id="SVGID_30_" cx="-1334.8442" cy="4018.6667" r="5.002" gradientTransform="matrix(-0.837 -0.5472 5.518923e-02 -7.445342e-02 -902.7515 343.4567)" gradientUnits="userSpaceOnUse">
							<stop  offset="0" style="stop-color:#BEDEEB;stop-opacity:0.451"/>
							<stop  offset="1" style="stop-color:#46B954"/>
						</radialGradient>
						<path style="fill:url(#SVGID_30_);" d="M437.4,778.8c-0.3,0.3-0.7,0.4-1.1,0.5c-0.9,0.2-1.7,0-2.3-0.6c-1-1.1-1.4-2.3-1.2-3.8
							c0.2-1.3,0.7-2.5,1.5-3.6l0.6-0.8l0.9-1.4l2.1,3.3c0.5,0.9,0.8,1.8,1,2.8C439.1,776.6,438.6,777.8,437.4,778.8z"/>
					</g>
				</g>
			</g>
		</g>
	</g>
	<g transform="matrix( -0.22296142578125, -0.22296142578125, 0.4072265625, -0.4072265625, 39.7,17.95) ">
		<g transform="matrix( 1, 0, 0, 1, 0,0) ">
			<g transform="matrix( 1, 0, 0, 1, 0,0) ">
				<g>
					<g id="Graphic_shape_275_0_Layer0_0_FILL_101_">
						
							<radialGradient id="SVGID_31_" cx="50.9309" cy="1675.2465" r="5.002" gradientTransform="matrix(4.905737e-02 0.3076 -0.5921 0.1161 -149.4304 216.4788)" gradientUnits="userSpaceOnUse">
							<stop  offset="0" style="stop-color:#BEDEEB;stop-opacity:0.451"/>
							<stop  offset="1" style="stop-color:#46B954"/>
						</radialGradient>
						<path style="fill:url(#SVGID_31_);" d="M-1137.8,430.9c-0.3,0.3-0.7,0.4-1.1,0.5c-0.9,0.2-1.7,0-2.3-0.6
							c-1-1.1-1.4-2.3-1.2-3.8c0.2-1.3,0.7-2.5,1.5-3.6l0.6-0.8l0.9-1.4l2.1,3.3c0.5,0.9,0.8,1.8,1,2.8
							C-1136.1,428.7-1136.6,429.9-1137.8,430.9z"/>
					</g>
				</g>
			</g>
		</g>
	</g>
	<g transform="matrix( 0.22296142578125, -0.22296142578125, -0.4072265625, -0.4072265625, 6,17.95) ">
		<g transform="matrix( 1, 0, 0, 1, 0,0) ">
			<g transform="matrix( 1, 0, 0, 1, 0,0) ">
				<g>
					<g id="Graphic_shape_275_0_Layer0_0_FILL_100_">
						
							<radialGradient id="SVGID_32_" cx="-6617.4492" cy="-1832.1526" r="5.002" gradientTransform="matrix(-0.3242 6.359270e-02 8.960080e-02 0.5618 -1161.7631 804.6247)" gradientUnits="userSpaceOnUse">
							<stop  offset="0" style="stop-color:#BEDEEB;stop-opacity:0.451"/>
							<stop  offset="1" style="stop-color:#46B954"/>
						</radialGradient>
						<path style="fill:url(#SVGID_32_);" d="M820.5-641.3c-0.3,0.3-0.7,0.4-1.1,0.5c-0.9,0.2-1.7,0-2.3-0.6c-1-1.1-1.4-2.3-1.2-3.8
							c0.2-1.3,0.7-2.5,1.5-3.6l0.6-0.8l0.9-1.4l2.1,3.3c0.5,0.9,0.8,1.8,1,2.8C822.2-643.5,821.7-642.3,820.5-641.3z"/>
					</g>
				</g>
			</g>
		</g>
	</g>
	<g transform="matrix( -0.3153076171875, 0, 0, -0.575897216796875, 24.5,6.45) ">
		<g transform="matrix( 1, 0, 0, 1, 0,0) ">
			<g transform="matrix( 1, 0, 0, 1, 0,0) ">
				<g>
					<g id="Graphic_shape_275_0_Layer0_0_FILL_102_">
						
							<radialGradient id="SVGID_33_" cx="-4917.7764" cy="361.3202" r="5.002" gradientTransform="matrix(0.2639 0.1725 -0.3553 0.4794 44.8067 525.3253)" gradientUnits="userSpaceOnUse">
							<stop  offset="0" style="stop-color:#BEDEEB;stop-opacity:0.451"/>
							<stop  offset="1" style="stop-color:#46B954"/>
						</radialGradient>
						<path style="fill:url(#SVGID_33_);" d="M-1380.4-145.8c-0.3,0.3-0.7,0.4-1.1,0.5c-0.9,0.2-1.7,0-2.3-0.6
							c-1-1.1-1.4-2.3-1.2-3.8c0.2-1.3,0.7-2.5,1.5-3.6l0.6-0.8l0.9-1.4l2.1,3.3c0.5,0.9,0.8,1.8,1,2.8
							C-1378.7-148-1379.2-146.7-1380.4-145.8z"/>
					</g>
				</g>
			</g>
		</g>
	</g>
</g>
</svg>
