<svg id="Layer_1" data-name="Layer 1" xmlns="http://www.w3.org/2000/svg" xmlns:xlink="http://www.w3.org/1999/xlink" viewBox="0 0 146.39 175.71"><defs><style>.cls-1{fill:url(#linear-gradient);}.cls-2{fill:url(#linear-gradient-2);}.cls-3{fill:url(#linear-gradient-3);}.cls-4{fill:url(#linear-gradient-4);}.cls-5{fill:url(#linear-gradient-5);}.cls-6{fill:url(#linear-gradient-6);}.cls-7{fill:url(#linear-gradient-7);}.cls-8{fill:url(#linear-gradient-8);}.cls-9{fill:url(#linear-gradient-9);}.cls-10{fill:url(#linear-gradient-10);}.cls-11{fill:url(#linear-gradient-11);}.cls-12{fill:url(#linear-gradient-12);}.cls-13{fill:url(#linear-gradient-13);}.cls-14{fill:url(#linear-gradient-14);}.cls-15{fill:url(#linear-gradient-15);}.cls-16{fill:url(#linear-gradient-16);}.cls-17{fill:url(#linear-gradient-17);}.cls-18{fill:url(#radial-gradient);}.cls-19{fill:url(#radial-gradient-2);}.cls-20{fill:url(#linear-gradient-18);}.cls-21{fill:url(#linear-gradient-19);}.cls-22{fill:url(#linear-gradient-20);}.cls-23{fill:url(#linear-gradient-21);}.cls-24{fill:url(#linear-gradient-22);}.cls-25{fill:url(#linear-gradient-23);}.cls-26{fill:#221f1f;}.cls-27{fill:#fff;}.cls-28{fill:url(#linear-gradient-24);}.cls-29{fill:url(#linear-gradient-25);}.cls-30{fill:url(#linear-gradient-26);}.cls-31{fill:url(#linear-gradient-27);}.cls-32{fill:url(#linear-gradient-28);}.cls-33{fill:url(#linear-gradient-29);}.cls-34{fill:url(#linear-gradient-30);}.cls-35{fill:url(#linear-gradient-31);}.cls-36{fill:url(#linear-gradient-32);}.cls-37{fill:url(#linear-gradient-33);}.cls-38{fill:url(#linear-gradient-34);}.cls-39{fill:url(#linear-gradient-35);}.cls-40{fill:url(#linear-gradient-36);}.cls-41{fill:url(#linear-gradient-37);}.cls-42{fill:url(#linear-gradient-38);}.cls-43{fill:url(#linear-gradient-39);}.cls-44{fill:url(#linear-gradient-40);}.cls-45{fill:url(#radial-gradient-3);}.cls-46{fill:url(#radial-gradient-4);}.cls-47{fill:url(#linear-gradient-41);}.cls-48{fill:url(#linear-gradient-42);}.cls-49{fill:url(#linear-gradient-43);}.cls-50{fill:url(#linear-gradient-44);}.cls-51{fill:url(#linear-gradient-45);}.cls-52{fill:url(#linear-gradient-46);}.cls-53{fill:url(#linear-gradient-47);}.cls-54{fill:url(#linear-gradient-48);}.cls-55{fill:url(#linear-gradient-49);}.cls-56{fill:url(#linear-gradient-50);}.cls-57{fill:url(#linear-gradient-51);}.cls-58{fill:url(#linear-gradient-52);}.cls-59{fill:url(#linear-gradient-53);}.cls-60{fill:url(#linear-gradient-54);}.cls-61{fill:url(#linear-gradient-55);}.cls-62{fill:url(#linear-gradient-56);}.cls-63{fill:url(#linear-gradient-57);}.cls-64{fill:url(#linear-gradient-58);}.cls-65{fill:url(#linear-gradient-59);}.cls-66{fill:url(#linear-gradient-60);}.cls-67{fill:url(#linear-gradient-61);}.cls-68{fill:url(#linear-gradient-62);}.cls-69{fill:url(#linear-gradient-63);}.cls-70{fill:url(#radial-gradient-5);}.cls-71{fill:url(#radial-gradient-6);}.cls-72{fill:url(#linear-gradient-64);}.cls-73{fill:url(#linear-gradient-65);}.cls-74{fill:url(#linear-gradient-66);}.cls-75{fill:url(#linear-gradient-67);}.cls-76{fill:url(#linear-gradient-68);}.cls-77{fill:url(#linear-gradient-69);}.cls-78{fill:url(#linear-gradient-70);}.cls-79{fill:url(#linear-gradient-71);}.cls-80{fill:url(#linear-gradient-72);}.cls-81{fill:url(#linear-gradient-73);}.cls-82{fill:url(#linear-gradient-74);}.cls-83{fill:url(#linear-gradient-75);}.cls-84{fill:url(#linear-gradient-76);}.cls-85{fill:url(#linear-gradient-77);}.cls-86{fill:url(#linear-gradient-78);}.cls-87{fill:url(#linear-gradient-79);}.cls-88{fill:url(#linear-gradient-80);}.cls-89{fill:url(#linear-gradient-81);}.cls-90{fill:url(#linear-gradient-82);}.cls-91{fill:url(#linear-gradient-83);}.cls-92{fill:url(#linear-gradient-84);}.cls-93{fill:url(#linear-gradient-85);}.cls-94{fill:url(#linear-gradient-86);}.cls-95{fill:url(#radial-gradient-7);}.cls-96{fill:url(#radial-gradient-8);}.cls-97{fill:url(#linear-gradient-87);}.cls-98{fill:url(#linear-gradient-88);}.cls-99{fill:url(#linear-gradient-89);}.cls-100{fill:url(#linear-gradient-90);}.cls-101{fill:url(#linear-gradient-91);}.cls-102{fill:url(#linear-gradient-92);}</style><linearGradient id="linear-gradient" x1="-541.34" y1="174.85" x2="-539.76" y2="167.1" gradientTransform="matrix(1, 0, 0, -1, 575.85, 175.5)" gradientUnits="userSpaceOnUse"><stop offset="0" stop-color="#84c241"/><stop offset="0.02" stop-color="#89c441"/><stop offset="0.17" stop-color="#a3cd43"/><stop offset="0.3" stop-color="#b3d345"/><stop offset="0.4" stop-color="#b9d545"/><stop offset="1" stop-color="#456f34"/></linearGradient><linearGradient id="linear-gradient-2" x1="-542.91" y1="149.84" x2="-535.75" y2="148.05" gradientTransform="matrix(1, 0, 0, -1, 575.85, 175.5)" gradientUnits="userSpaceOnUse"><stop offset="0" stop-color="#456f34"/><stop offset="0.6" stop-color="#b9d545"/><stop offset="0.7" stop-color="#b3d345"/><stop offset="0.83" stop-color="#a3cd43"/><stop offset="0.98" stop-color="#89c441"/><stop offset="1" stop-color="#84c241"/></linearGradient><linearGradient id="linear-gradient-3" x1="-542.02" y1="147.84" x2="-544.44" y2="136.99" gradientTransform="matrix(1, 0, 0, -1, 575.85, 175.5)" gradientUnits="userSpaceOnUse"><stop offset="0" stop-color="#b9d545"/><stop offset="0.24" stop-color="#d5b136"/><stop offset="0.47" stop-color="#ec922a"/><stop offset="0.61" stop-color="#f58725"/><stop offset="1" stop-color="#965624"/></linearGradient><linearGradient id="linear-gradient-4" x1="-496.64" y1="163.12" x2="-491.22" y2="163.12" gradientTransform="matrix(1, 0, 0, -1, 575.85, 175.5)" gradientUnits="userSpaceOnUse"><stop offset="0" stop-color="#264b9b"/><stop offset="1" stop-color="#10bef0"/></linearGradient><linearGradient id="linear-gradient-5" x1="-489.57" y1="160.64" x2="-483.75" y2="160.64" xlink:href="#linear-gradient-4"/><linearGradient id="linear-gradient-6" x1="-495.15" y1="161.97" x2="-481.2" y2="163.4" xlink:href="#linear-gradient-2"/><linearGradient id="linear-gradient-7" x1="-544.3" y1="155.79" x2="-542.81" y2="161.06" xlink:href="#linear-gradient-2"/><linearGradient id="linear-gradient-8" x1="-543.88" y1="157.68" x2="-539.68" y2="172.5" xlink:href="#linear-gradient-2"/><linearGradient id="linear-gradient-9" x1="-517.68" y1="143.18" x2="-510.67" y2="167.94" xlink:href="#linear-gradient-2"/><linearGradient id="linear-gradient-10" x1="-510.05" y1="141.82" x2="-508.75" y2="153.7" xlink:href="#linear-gradient-4"/><linearGradient id="linear-gradient-11" x1="-9551.4" y1="143.98" x2="-9534.44" y2="143.98" gradientTransform="translate(-9459.68 175.5) rotate(180)" xlink:href="#linear-gradient-4"/><linearGradient id="linear-gradient-12" x1="-496.07" y1="127.13" x2="-505.31" y2="123.27" xlink:href="#linear-gradient-3"/><linearGradient id="linear-gradient-13" x1="-496.84" y1="127.13" x2="-504.42" y2="132.38" xlink:href="#linear-gradient-3"/><linearGradient id="linear-gradient-14" x1="-499.85" y1="146.19" x2="-491.66" y2="141.19" xlink:href="#linear-gradient-2"/><linearGradient id="linear-gradient-15" x1="-485.09" y1="135.29" x2="-480.3" y2="127.36" xlink:href="#linear-gradient-2"/><linearGradient id="linear-gradient-16" x1="-487.65" y1="142.3" x2="-484.8" y2="134.93" xlink:href="#linear-gradient-2"/><linearGradient id="linear-gradient-17" x1="-9500.2" y1="165.46" x2="-9487.63" y2="165.46" gradientTransform="translate(-9459.68 175.5) rotate(180)" xlink:href="#linear-gradient"/><radialGradient id="radial-gradient" cx="-9467.45" cy="166.33" r="5.16" gradientTransform="translate(-11870.59 175.32) rotate(180) scale(1.26 1)" gradientUnits="userSpaceOnUse"><stop offset="0" stop-color="#3066af"/><stop offset="0.71" stop-color="#2b60ab"/><stop offset="1" stop-color="#285ca8"/></radialGradient><radialGradient id="radial-gradient-2" cx="-9467.33" cy="166.06" r="4.81" gradientTransform="translate(-11870.59 175.32) rotate(180) scale(1.26 1)" gradientUnits="userSpaceOnUse"><stop offset="0" stop-color="#ed4523"/><stop offset="0.13" stop-color="#e74322"/><stop offset="0.3" stop-color="#d73e20"/><stop offset="0.49" stop-color="#bb351d"/><stop offset="0.69" stop-color="#952918"/><stop offset="0.91" stop-color="#651912"/><stop offset="1" stop-color="#4e120f"/></radialGradient><linearGradient id="linear-gradient-18" x1="-511.97" y1="154.41" x2="-513.99" y2="145.2" gradientTransform="matrix(1, 0, 0, -1, 575.85, 175.5)" gradientUnits="userSpaceOnUse"><stop offset="0" stop-color="#fbed34"/><stop offset="0.17" stop-color="#e9e739"/><stop offset="0.49" stop-color="#cfdd3f"/><stop offset="0.78" stop-color="#bfd744"/><stop offset="1" stop-color="#b9d545"/></linearGradient><linearGradient id="linear-gradient-19" x1="-9546.5" y1="145.35" x2="-9529.54" y2="145.35" gradientTransform="translate(-9459.68 175.5) rotate(180)" xlink:href="#linear-gradient-4"/><linearGradient id="linear-gradient-20" x1="-523.29" y1="127.98" x2="-534.91" y2="120.11" xlink:href="#linear-gradient-3"/><linearGradient id="linear-gradient-21" x1="-530.44" y1="146.58" x2="-515.95" y2="150.68" xlink:href="#linear-gradient-2"/><linearGradient id="linear-gradient-22" x1="-524.41" y1="136" x2="-516.21" y2="132.52" xlink:href="#linear-gradient-2"/><linearGradient id="linear-gradient-23" x1="-524.25" y1="144.74" x2="-517.36" y2="151.48" xlink:href="#linear-gradient-4"/><linearGradient id="linear-gradient-24" x1="-537.15" y1="55.16" x2="-535.67" y2="47.91" xlink:href="#linear-gradient"/><linearGradient id="linear-gradient-25" x1="-538.62" y1="31.78" x2="-531.92" y2="30.11" xlink:href="#linear-gradient-2"/><linearGradient id="linear-gradient-26" x1="-537.72" y1="29.9" x2="-539.98" y2="19.76" xlink:href="#linear-gradient-3"/><linearGradient id="linear-gradient-27" x1="-495.37" y1="44.19" x2="-490.3" y2="44.19" xlink:href="#linear-gradient-4"/><linearGradient id="linear-gradient-28" x1="-488.76" y1="41.89" x2="-483.32" y2="41.89" xlink:href="#linear-gradient-4"/><linearGradient id="linear-gradient-29" x1="-493.98" y1="43.12" x2="-480.93" y2="44.46" xlink:href="#linear-gradient-2"/><linearGradient id="linear-gradient-30" x1="-539.84" y1="37.32" x2="-538.45" y2="42.25" xlink:href="#linear-gradient-2"/><linearGradient id="linear-gradient-31" x1="-539.55" y1="39.11" x2="-535.62" y2="52.96" xlink:href="#linear-gradient-2"/><linearGradient id="linear-gradient-32" x1="-515.01" y1="25.54" x2="-508.46" y2="48.69" xlink:href="#linear-gradient-2"/><linearGradient id="linear-gradient-33" x1="-507.91" y1="24.3" x2="-506.69" y2="35.4" xlink:href="#linear-gradient-4"/><linearGradient id="linear-gradient-34" x1="-9551.85" y1="26.3" x2="-9535.99" y2="26.3" gradientTransform="translate(-9459.68 175.5) rotate(180)" xlink:href="#linear-gradient-4"/><linearGradient id="linear-gradient-35" x1="-494.82" y1="10.51" x2="-503.45" y2="6.91" xlink:href="#linear-gradient-3"/><linearGradient id="linear-gradient-36" x1="-495.56" y1="10.55" x2="-502.65" y2="15.45" xlink:href="#linear-gradient-3"/><linearGradient id="linear-gradient-37" x1="-498.35" y1="28.39" x2="-490.7" y2="23.72" xlink:href="#linear-gradient-2"/><linearGradient id="linear-gradient-38" x1="-484.58" y1="18.17" x2="-480.1" y2="10.76" xlink:href="#linear-gradient-2"/><linearGradient id="linear-gradient-39" x1="-486.94" y1="24.74" x2="-484.27" y2="17.85" xlink:href="#linear-gradient-2"/><linearGradient id="linear-gradient-40" x1="-9504" y1="46.38" x2="-9492.25" y2="46.38" gradientTransform="translate(-9459.68 175.5) rotate(180)" xlink:href="#linear-gradient"/><radialGradient id="radial-gradient-3" cx="38.23" cy="46.12" r="4.83" gradientTransform="matrix(1, 0, 0, -1, 0, 175.5)" xlink:href="#radial-gradient"/><radialGradient id="radial-gradient-4" cx="38.05" cy="45.95" r="4.5" gradientTransform="matrix(1, 0, 0, -1, 0, 175.5)" xlink:href="#radial-gradient-2"/><linearGradient id="linear-gradient-41" x1="-509.71" y1="36.06" x2="-511.6" y2="27.45" xlink:href="#linear-gradient-18"/><linearGradient id="linear-gradient-42" x1="-9547.28" y1="27.6" x2="-9531.42" y2="27.6" gradientTransform="translate(-9459.68 175.5) rotate(180)" xlink:href="#linear-gradient-4"/><linearGradient id="linear-gradient-43" x1="-520.29" y1="11.37" x2="-531.15" y2="4.01" xlink:href="#linear-gradient-3"/><linearGradient id="linear-gradient-44" x1="-526.95" y1="28.69" x2="-513.41" y2="32.53" xlink:href="#linear-gradient-2"/><linearGradient id="linear-gradient-45" x1="-521.35" y1="18.79" x2="-513.68" y2="15.54" xlink:href="#linear-gradient-2"/><linearGradient id="linear-gradient-46" x1="-521.17" y1="27" x2="-514.73" y2="33.3" xlink:href="#linear-gradient-4"/><linearGradient id="linear-gradient-47" x1="-563.64" y1="116.85" x2="-562.45" y2="111.05" xlink:href="#linear-gradient"/><linearGradient id="linear-gradient-48" x1="-564.83" y1="98.14" x2="-559.47" y2="96.8" xlink:href="#linear-gradient-2"/><linearGradient id="linear-gradient-49" x1="-564.13" y1="96.67" x2="-565.94" y2="88.56" xlink:href="#linear-gradient-3"/><linearGradient id="linear-gradient-50" x1="-530.26" y1="108.08" x2="-526.2" y2="108.08" xlink:href="#linear-gradient-4"/><linearGradient id="linear-gradient-51" x1="-524.98" y1="106.23" x2="-520.62" y2="106.23" xlink:href="#linear-gradient-4"/><linearGradient id="linear-gradient-52" x1="-529.14" y1="107.23" x2="-518.72" y2="108.3" xlink:href="#linear-gradient-2"/><linearGradient id="linear-gradient-53" x1="-565.86" y1="102.6" x2="-564.74" y2="106.55" xlink:href="#linear-gradient-2"/><linearGradient id="linear-gradient-54" x1="-565.55" y1="104.02" x2="-562.41" y2="115.09" xlink:href="#linear-gradient-2"/><linearGradient id="linear-gradient-55" x1="-545.93" y1="93.17" x2="-540.69" y2="111.66" xlink:href="#linear-gradient-2"/><linearGradient id="linear-gradient-56" x1="-540.29" y1="92.19" x2="-539.31" y2="101.06" xlink:href="#linear-gradient-4"/><linearGradient id="linear-gradient-57" x1="-9514.62" y1="93.78" x2="-9501.95" y2="93.78" gradientTransform="translate(-9459.68 175.5) rotate(180)" xlink:href="#linear-gradient-4"/><linearGradient id="linear-gradient-58" x1="-529.82" y1="81.19" x2="-536.72" y2="78.31" xlink:href="#linear-gradient-3"/><linearGradient id="linear-gradient-59" x1="-530.42" y1="81.18" x2="-536.08" y2="85.1" xlink:href="#linear-gradient-3"/><linearGradient id="linear-gradient-60" x1="-532.63" y1="95.46" x2="-526.52" y2="91.72" xlink:href="#linear-gradient-2"/><linearGradient id="linear-gradient-61" x1="-521.63" y1="87.29" x2="-518.05" y2="81.37" xlink:href="#linear-gradient-2"/><linearGradient id="linear-gradient-62" x1="-523.51" y1="92.55" x2="-521.37" y2="87.05" xlink:href="#linear-gradient-2"/><linearGradient id="linear-gradient-63" x1="-9476.38" y1="109.83" x2="-9466.99" y2="109.83" gradientTransform="translate(-9459.68 175.5) rotate(180)" xlink:href="#linear-gradient"/><radialGradient id="radial-gradient-5" cx="11.83" cy="109.64" r="3.88" gradientTransform="matrix(1, 0, 0, -1, 0, 175.5)" xlink:href="#radial-gradient"/><radialGradient id="radial-gradient-6" cx="11.69" cy="109.49" r="3.61" gradientTransform="matrix(1, 0, 0, -1, 0, 175.5)" xlink:href="#radial-gradient-2"/><linearGradient id="linear-gradient-64" x1="-541.74" y1="101.59" x2="-543.25" y2="94.71" xlink:href="#linear-gradient-18"/><linearGradient id="linear-gradient-65" x1="-9510.96" y1="94.82" x2="-9498.3" y2="94.82" gradientTransform="translate(-9459.68 175.5) rotate(180)" xlink:href="#linear-gradient-4"/><linearGradient id="linear-gradient-66" x1="-550.14" y1="81.81" x2="-558.81" y2="75.92" xlink:href="#linear-gradient-3"/><linearGradient id="linear-gradient-67" x1="-555.5" y1="95.72" x2="-544.68" y2="98.78" xlink:href="#linear-gradient-2"/><linearGradient id="linear-gradient-68" x1="-551" y1="87.83" x2="-544.88" y2="85.23" xlink:href="#linear-gradient-2"/><linearGradient id="linear-gradient-69" x1="-550.87" y1="94.35" x2="-545.72" y2="99.39" xlink:href="#linear-gradient-4"/><linearGradient id="linear-gradient-70" x1="-492.77" y1="111.62" x2="-491.41" y2="104.94" xlink:href="#linear-gradient"/><linearGradient id="linear-gradient-71" x1="-494.13" y1="90.09" x2="-487.95" y2="88.54" xlink:href="#linear-gradient-2"/><linearGradient id="linear-gradient-72" x1="-493.33" y1="88.34" x2="-495.43" y2="78.98" xlink:href="#linear-gradient-3"/><linearGradient id="linear-gradient-73" x1="-454.24" y1="101.48" x2="-449.57" y2="101.48" xlink:href="#linear-gradient-4"/><linearGradient id="linear-gradient-74" x1="-448.15" y1="99.38" x2="-443.13" y2="99.38" xlink:href="#linear-gradient-4"/><linearGradient id="linear-gradient-75" x1="-452.96" y1="100.52" x2="-440.93" y2="101.75" xlink:href="#linear-gradient-2"/><linearGradient id="linear-gradient-76" x1="-495.32" y1="95.19" x2="-494.04" y2="99.74" xlink:href="#linear-gradient-2"/><linearGradient id="linear-gradient-77" x1="-494.97" y1="96.82" x2="-491.35" y2="109.59" xlink:href="#linear-gradient-2"/><linearGradient id="linear-gradient-78" x1="-472.36" y1="84.31" x2="-466.32" y2="105.65" xlink:href="#linear-gradient-2"/><linearGradient id="linear-gradient-79" x1="-465.81" y1="83.16" x2="-464.69" y2="93.4" xlink:href="#linear-gradient-4"/><linearGradient id="linear-gradient-80" x1="-9592.07" y1="85" x2="-9577.45" y2="85" gradientTransform="translate(-9459.68 175.5) rotate(180)" xlink:href="#linear-gradient-4"/><linearGradient id="linear-gradient-81" x1="-453.74" y1="70.48" x2="-461.7" y2="67.15" xlink:href="#linear-gradient-3"/><linearGradient id="linear-gradient-82" x1="-454.4" y1="70.51" x2="-460.93" y2="75.04" xlink:href="#linear-gradient-3"/><linearGradient id="linear-gradient-83" x1="-456.99" y1="86.95" x2="-449.93" y2="82.64" xlink:href="#linear-gradient-2"/><linearGradient id="linear-gradient-84" x1="-444.29" y1="77.51" x2="-440.16" y2="70.68" xlink:href="#linear-gradient-2"/><linearGradient id="linear-gradient-85" x1="-446.47" y1="83.57" x2="-444.01" y2="77.22" xlink:href="#linear-gradient-2"/><linearGradient id="linear-gradient-86" x1="-9547.95" y1="103.57" x2="-9537.11" y2="103.57" gradientTransform="translate(-9459.68 175.5) rotate(180)" xlink:href="#linear-gradient"/><radialGradient id="radial-gradient-7" cx="82.65" cy="103.29" r="4.46" gradientTransform="matrix(1, 0, 0, -1, 0, 175.5)" xlink:href="#radial-gradient"/><radialGradient id="radial-gradient-8" cx="82.48" cy="103.13" r="4.16" gradientTransform="matrix(1, 0, 0, -1, 0, 175.5)" xlink:href="#radial-gradient-2"/><linearGradient id="linear-gradient-87" x1="-467.44" y1="94" x2="-469.18" y2="86.06" xlink:href="#linear-gradient-18"/><linearGradient id="linear-gradient-88" x1="-9587.85" y1="86.18" x2="-9573.24" y2="86.18" gradientTransform="translate(-9459.68 175.5) rotate(180)" xlink:href="#linear-gradient-4"/><linearGradient id="linear-gradient-89" x1="-477.19" y1="71.18" x2="-487.2" y2="64.39" xlink:href="#linear-gradient-3"/><linearGradient id="linear-gradient-90" x1="-483.37" y1="87.26" x2="-470.89" y2="90.8" xlink:href="#linear-gradient-2"/><linearGradient id="linear-gradient-91" x1="-478.18" y1="78.11" x2="-471.12" y2="75.12" xlink:href="#linear-gradient-2"/><linearGradient id="linear-gradient-92" x1="-478.04" y1="85.67" x2="-472.1" y2="91.48" xlink:href="#linear-gradient-4"/></defs><title>3in_3</title><path class="cls-1" d="M29.69,7.13c1.45,2.52,5.19,3.62,8.34,2.46s4.53-4.15,3.07-6.67S35.92-.7,32.77.46,28.24,4.61,29.69,7.13Z"/><path class="cls-2" d="M35.8,28.48c1.17-.35,2.18.22,3.25.75A3.54,3.54,0,0,1,39.56,28a9.21,9.21,0,0,0,.5-1.35c.24-.62.47-1.23.68-1.85v-.13l-4.56-2.54-.1.26c-.53,1.46-1.06,2.91-1.61,4.37a7.22,7.22,0,0,1-1,1.77,4.29,4.29,0,0,1-1.21.93l-.43.26C33.47,30.11,34.64,29,35.8,28.48Z"/><path class="cls-3" d="M45.69,31.7A2.27,2.27,0,0,0,43,31a2.31,2.31,0,0,0-.59.33c-1.26-.31-2.75-.43-3.25-1.42a1.11,1.11,0,0,1-.11-.66c-1.07-.53-2.08-1.1-3.25-.75-1.17.56-2.34,1.62-3.88,1.24-1.78,1-4.14,1.42-5.94,2.41a13.22,13.22,0,0,0-3.19,2.37c-.58.6-1.53,1.33-1.76,2.11a3,3,0,0,0-1.27.17c-1.15.42-1.7,1.44-1.22,2.26a2.47,2.47,0,0,0,2.94.72c1.12-.41,1.67-1.39,1.25-2.2a14.44,14.44,0,0,0,1.76-2,13,13,0,0,1,3.42-2.9c.46-.25,3.08-1.45,3.09-.12,0,.38-.64.84-.86,1.15A14.59,14.59,0,0,0,29,35.45,8.9,8.9,0,0,0,27.89,39a2.83,2.83,0,0,0-.62.14,1.74,1.74,0,0,0-1.16,2.47,2.62,2.62,0,0,0,3.11.9,1.74,1.74,0,0,0,1.16-2.47,1.84,1.84,0,0,0-.31-.39c.8-1.07.89-2.65,1.2-3.77a8,8,0,0,1,1.32-2.54c.47-.69.73-1.24,1.66-1.55C35,32.6,35,34,35,35a8.79,8.79,0,0,0,.26,1.8c-.9.53-1.3,1.37-.91,2s1.88,1.09,3.15.62,1.92-1.51,1.45-2.32a2.11,2.11,0,0,0-1.85-.84,2.88,2.88,0,0,0-.06-.7c-.06-.94-.6-3.22.4-3.88a2,2,0,0,1,1.73.11,22.09,22.09,0,0,0,2.15.67l.39.1a1.23,1.23,0,0,0,.15.51,2.27,2.27,0,0,0,2.7.71C45.69,33.41,46.16,32.47,45.69,31.7Z"/><path class="cls-4" d="M79.21,12s2.68,1,5.43,2.29a33.51,33.51,0,0,1-2.37-3.81A12.08,12.08,0,0,0,79.21,12Z"/><path class="cls-5" d="M92.1,18.81s-1.53-5.63-5.82-7.9a20.94,20.94,0,0,1,1.4,4.92,15.68,15.68,0,0,1,1.49.92Z"/><path class="cls-6" d="M85,10.37a4.65,4.65,0,0,0-2.76.12,33.51,33.51,0,0,0,2.37,3.81,32.19,32.19,0,0,1,3,1.53,20.94,20.94,0,0,0-1.4-4.92A8,8,0,0,0,85,10.37Z"/><path class="cls-7" d="M29.1,18.9a15.75,15.75,0,0,1,2.1.84h.17c4.44-.83,8.87.21,13.31-1.25a13.35,13.35,0,0,0,1.43-.35c-9.3,0-18.72-.66-27.16-3.76C21.22,16.41,28.82,19,29.1,18.9Z"/><path class="cls-8" d="M47.55,17c.46-4.6-3.14-8.72-6.33-12.63a62.41,62.41,0,0,0-7,.9A45.71,45.71,0,0,0,25,6.64c-5.2,1.29-7.65,4.92-6.6,7a2.37,2.37,0,0,0,.55.66c8.43,3.1,17.86,3.73,27.16,3.76C46.87,17.87,47.55,17.52,47.55,17Z"/><path class="cls-9" d="M92,20.75a2.61,2.61,0,0,0,.14-2h0l-2.94-2c-2.94-2.06-14.35-6.52-14.35-6.52S68.33,8.07,63.69,8.44A19.13,19.13,0,0,1,51,5.57c-2.21-1.33-6.26-1.43-9.83-1.18C44.36,8.3,48,12.39,47.51,17c0,.83-1.83,1.25-2.87,1.46-4.43,1.46-8.87.42-13.31,1.25h-.17c1.36.6,3.2,1.46,5,2.39l4.56,2.54a12.28,12.28,0,0,1,1.57,1.15,52.84,52.84,0,0,0,6.84,4.56,48.81,48.81,0,0,1-5-8.37,16.06,16.06,0,0,1,2.64.11c-.45-.48-.11-.87-.39-1.44,14.29,0,27.12,2.87,40.65,6.52l1.22-.8A8.47,8.47,0,0,0,92,20.75Z"/><path class="cls-10" d="M46.83,22.12c7.1.88,11.59,6.45,15.8,11V32.7c1.29,1.38,10.89-.43,11.88-.62,6.43-1.68,9.45-2.91,12.54-4.85C73.52,23.58,61,20.71,46.68,20.71,47,21.24,46.38,21.64,46.83,22.12Z"/><path class="cls-11" d="M91.69,25.45c-.68-1.58-1.49-2.6-3.13-1.25-5.84,4.6-10.65,9.46-13.83,15.27,2.82-1.62,6.1-2.53,9.06-4.09l-1.1.43S90.83,29.36,91.69,25.45Z"/><path class="cls-12" d="M73.69,46.61a30.57,30.57,0,0,0-4.4.61,3.23,3.23,0,0,0-2.84-.83c-1.53.19-2.61,1.13-2.42,2.08s1.58,1.57,3.11,1.37a2.8,2.8,0,0,0,2.37-1.47c1.51.27,3.91.45,5,.78,1.8.54,3.19,1.46,2.13,3a3.33,3.33,0,0,0-.46,1h-.06c-1.45.19-2.45,1.23-2.22,2.34a2.61,2.61,0,0,0,3,1.67c1.45-.19,2.45-1.23,2.23-2.34a1.68,1.68,0,0,0-.32-.69q.35-.33.69-.72c-.62-2.2-2.69-4.12-5-5.46C74.47,47.75,73.92,47.19,73.69,46.61Z"/><path class="cls-13" d="M73.6,45.75c1.16-1,2.58-.63,3.94-.55a20.37,20.37,0,0,0-1.91-.85,38.32,38.32,0,0,1-4.19-2c-.88.26-1.45.93-1.31,1.63a2,2,0,0,0,2.31,1.2h.1a4.23,4.23,0,0,0,1,1.22A.93.93,0,0,1,73.6,45.75Z"/><path class="cls-14" d="M74.86,39.29c3.18-5.72,8-10.53,13.72-15.08,1.64-1.36,2.46-.33,3.13,1.25a2.45,2.45,0,0,0,0-1.14c-.55-2.24-2.71-3.24-4.92-3.07-5,6-13.2,11.36-17,17.79a2.36,2.36,0,0,0,.56,2.53l1,.8,1.16.61A4.84,4.84,0,0,1,74.86,39.29Z"/><path class="cls-15" d="M87.21,45.92c-2.37-.21-8.89-.28-8.89-.28l-.77-.4c-1.37-.07-2.78-.4-3.94.55a.93.93,0,0,0,0,.6l.25.2h-.17c.25.58.8,1.12.86,1.38,2.31,1.34,4.39,3.26,5,5.46,1.31-1.46,2.58-3.34,3.75-3.49,1.65-.21,6.38.92,11.41-3.65s13.7-9.91,13.22-12.31a18.56,18.56,0,0,0-6.42,2.18C100.4,37.09,89.46,46.12,87.21,45.92Z"/><path class="cls-16" d="M98.19,30.43c-5,1.35-11.76,3.93-14.39,5-3,1.56-6.23,2.47-9.06,4.09l.11-.19A4.84,4.84,0,0,0,72.6,43a23.07,23.07,0,0,0,3,1.4c2.16.45,4.36,0,7.15-.92,5-1.73,18.79-7.36,18.79-7.36l-.09.07A18.56,18.56,0,0,1,107.87,34s0-.07,0-.11C107.1,31.54,104.44,28.75,98.19,30.43Z"/><path class="cls-17" d="M28.53,12.15c1.45,2.52,5.19,3.62,8.34,2.46s4.53-4.15,3.07-6.67S34.75,4.32,31.6,5.48,27.08,9.63,28.53,12.15Z"/><path class="cls-18" d="M28.82,12.23c1.32,2.29,4.71,3.29,7.58,2.23s4.11-3.77,2.79-6.06-4.71-3.29-7.58-2.23S27.5,9.94,28.82,12.23Z"/><path class="cls-19" d="M29,12.29c1.23,2.13,4.4,3.07,7.07,2.08s3.83-3.52,2.64-5.62S34.3,5.68,31.63,6.67,27.75,10.15,29,12.29Z"/><path class="cls-20" d="M79.91,25.1a49.18,49.18,0,0,1-4.84-1c-1-.25-2-.44-3-.77-.49-.16-1-.19-1.49-.31s-1.09-.32-1.65-.42c-1.49-.28-2.93-.52-4.44-.72-.93-.12-1.88-.21-2.81-.36S59.93,21,59,20.82a14.53,14.53,0,0,0-3.38-.36c-.82,0-1.59.2-2.45.13a15.64,15.64,0,0,1-1.75-.38,29.17,29.17,0,0,0-3.33,0,4.71,4.71,0,0,0-2.39.61c-.48.28-.7.53-.48,1a1.38,1.38,0,0,0,1,.7c.48.16.66.1.78-.15-.11-.43-.38-1,0-1a8.38,8.38,0,0,1,3.24-.21h.07a2.35,2.35,0,0,1,.73.27c.2.13.21.3.3.49.18.37.29.78.48,1.15s.68,1.17,1.13,1,.09-1.22,0-1.49c-.09-.56-.3-1,.6-1s1.6,0,1.91.9.31,1.75.58,2.61a8.51,8.51,0,0,0,.85,2c.23.36.82,1.21,1.5,1.14s0-.86-.08-1.09a15.78,15.78,0,0,1-.74-1.71,5.28,5.28,0,0,1-.17-1.82,1.8,1.8,0,0,1,.9-1.78,2.44,2.44,0,0,1,3.14.75c1,1.26.66,3.1.37,4.48-.21,1-.46,2.53.18,3.48a1.22,1.22,0,0,0,1.23.51c.5-.09.45-.3.5-.7.13-1.12,0-2.28.1-3.41a9.58,9.58,0,0,1,.74-3.1c.33-.71.86-1.47,1.92-1.1,1.85.66,1.7,2.56,1.57,3.93,0,.56-1.15,4.71-.15,4.79.53,0,1-.76,1.21-1.07.35-.63.71-1.26,1-1.9.56-1.16.86-2.38,1.46-3.53.25-.48.81-.91,1.37-.41A2.08,2.08,0,0,1,73.48,26c.06.87,0,1.76,0,2.63,0,.36,0,1.21.38,1.48s.68-.18.88-.47A17.53,17.53,0,0,0,75.82,28a11.42,11.42,0,0,1,.5-1.15c.79-1.13,2.62-.62,3.9-.57.45,0,1.16,0,1.28-.49S80.35,25.16,79.91,25.1Z"/><path class="cls-21" d="M86.82,21.25a6.18,6.18,0,0,0-3.74,1.61S71.21,33.5,69.86,39.05C73.62,32.6,81.85,27.23,86.82,21.25Z"/><path class="cls-22" d="M48.33,49.14c-.9-.54.35-1.87.53-3.16l-.61.34a30.46,30.46,0,0,0-2.14-2.57,1.14,1.14,0,0,0,.09-1.27,2,2,0,0,0-2.41-.66c-.93.34-1.35,1.19-.94,1.89a1.93,1.93,0,0,0,2,.76,29.62,29.62,0,0,0,2.6,3.41s-7-1.2-9.26-.29a3.81,3.81,0,0,0-.47.22,2.79,2.79,0,0,0-1.86,0c-1.11.41-1.62,1.4-1.15,2.21a2.39,2.39,0,0,0,2.85.73,1.75,1.75,0,0,0,1.31-1.7c2.54-1.35,8.22.75,8.22.75a9.7,9.7,0,0,0-7.71,5.43v.07a2.08,2.08,0,0,0-.68.13,1.3,1.3,0,0,0-.85,1.86,2,2,0,0,0,2.32.69A1.3,1.3,0,0,0,41,56.12a1.43,1.43,0,0,0-.36-.4,8,8,0,0,1,1.5-2.55c1.76-2.4,6.83-2,6.83-2a14.38,14.38,0,0,0-.06,5,3.35,3.35,0,0,0,.46,1A1.36,1.36,0,0,0,48.94,59a2.34,2.34,0,0,0,2.75.76c1.08-.4,1.59-1.36,1.14-2.15a2.27,2.27,0,0,0-2.51-.78h0c-1.53-2.65.69-6.69.69-6.69s.47-.35,1.26-1C50.8,49.36,49.35,49.64,48.33,49.14Z"/><path class="cls-23" d="M59.56,32.06,59,31.61C54.5,28.18,48.67,26.14,45.3,22H44.19a48.81,48.81,0,0,0,5,8.37C51.76,31.89,54,33.12,54,33.12l-.17.68A8.94,8.94,0,0,1,59.56,32.06Z"/><path class="cls-24" d="M53.85,33.82c-.57,2.29-2.4,9.6-2.6,10.27S49.68,45.51,48.86,46c-.18,1.29-1.43,2.62-.53,3.16s2.48.22,3.91,0c1.31-1,3.49-2.8,5.9-5s3.64-6.31,4.16-9A14.14,14.14,0,0,0,59.57,32,8.94,8.94,0,0,0,53.85,33.82Z"/><path class="cls-25" d="M45.3,22c3.36,4.14,9.2,6.18,13.73,9.61a14.49,14.49,0,0,1,3.27,3.61c.18-.94.29-1.7.34-2.14C58.12,28.25,53.3,22.21,45.3,22Z"/><path class="cls-26" d="M32.31,12.75,33.6,7.39A6.81,6.81,0,0,0,32.31,12.75Z"/><ellipse class="cls-27" cx="35.38" cy="8.69" rx="0.59" ry="0.47"/><path class="cls-27" d="M40.79,5.75h2.08a23.68,23.68,0,0,1,2.38.19,26.7,26.7,0,0,1,3,.51,13.76,13.76,0,0,1,3.39,1.3l.42.24.39.23.39.18a4.29,4.29,0,0,0,.43.16,11.08,11.08,0,0,0,1.9.45c1.34.21,2.79.25,4.27.33s3,.14,4.52.29a31.5,31.5,0,0,1,4.48.76A20.12,20.12,0,0,1,70.6,11l2,.72,3.7,1.37,3.3,1.25,1.46.56,1.31.53,2.12.87,1.36.57.48.2-.5-.16-1.42-.46-2.2-.73-1.35-.45-1.5-.49L76,13.69l-3.75-1.27-2-.68c-.65-.22-1.32-.42-2-.59a30.59,30.59,0,0,0-4.32-.7c-1.47-.16-3-.23-4.45-.31a39.19,39.19,0,0,1-4.39-.42A11,11,0,0,1,53,9.18c-.17-.06-.32-.14-.48-.2l-.47-.24-.4-.25-.37-.22A13.78,13.78,0,0,0,48.13,7a29.44,29.44,0,0,0-2.94-.66c-.94-.16-1.68-.27-2.33-.34l-1.53-.26Z"/><path class="cls-28" d="M34.2,126.39c1.36,2.36,4.85,3.38,7.79,2.3s4.23-3.88,2.87-6.23-4.85-3.38-7.8-2.3S32.84,124,34.2,126.39Z"/><path class="cls-29" d="M39.91,146.36c1.1-.33,2,.2,3,.7a3.31,3.31,0,0,1,.48-1.15,8.61,8.61,0,0,0,.47-1.27c.22-.58.44-1.15.64-1.73v-.12l-4.27-2.37-.09.24-1.5,4.09a6.75,6.75,0,0,1-.9,1.66,4,4,0,0,1-1.13.87l-.4.24C37.69,147.88,38.81,146.88,39.91,146.36Z"/><path class="cls-30" d="M49.17,149.36a2.12,2.12,0,0,0-2.48-.61,2.16,2.16,0,0,0-.55.31c-1.18-.29-2.57-.41-3-1.33a1,1,0,0,1-.1-.62,4.15,4.15,0,0,0-3-.7c-1.09.52-2.19,1.52-3.63,1.16-1.67.93-3.87,1.33-5.56,2.26a12.36,12.36,0,0,0-3,2.21c-.54.56-1.43,1.24-1.65,2a2.83,2.83,0,0,0-1.19.16c-1.08.4-1.59,1.34-1.14,2.11a2.31,2.31,0,0,0,2.75.68c1-.39,1.56-1.3,1.16-2.06a13.5,13.5,0,0,0,1.65-1.82,12.19,12.19,0,0,1,3.2-2.71c.43-.24,2.88-1.35,2.89-.12,0,.35-.59.78-.8,1.07a13.64,13.64,0,0,0-1,1.59,8.32,8.32,0,0,0-1.07,3.32,2.65,2.65,0,0,0-.58.13A1.62,1.62,0,0,0,31,158.7a2.45,2.45,0,0,0,2.91.84A1.62,1.62,0,0,0,35,157.23a1.72,1.72,0,0,0-.29-.36c.75-1,.83-2.48,1.12-3.52A7.52,7.52,0,0,1,37,151c.44-.64.68-1.16,1.55-1.45.68.75.67,2.06.74,3a8.22,8.22,0,0,0,.24,1.68c-.84.49-1.22,1.28-.85,1.92a2.68,2.68,0,0,0,2.94.58c1.19-.42,1.79-1.41,1.36-2.17a2,2,0,0,0-1.73-.79,3,3,0,0,0,0-.65c-.06-.88-.56-3,.38-3.63.48-.32,1.14-.08,1.62.1a20.65,20.65,0,0,0,2,.63l.36.09a1.15,1.15,0,0,0,.14.48,2.12,2.12,0,0,0,2.53.66A1.55,1.55,0,0,0,49.17,149.36Z"/><path class="cls-31" d="M80.48,131s2.51,1,5.07,2.14a31.33,31.33,0,0,1-2.21-3.56A11.29,11.29,0,0,0,80.48,131Z"/><path class="cls-32" d="M92.54,137.31s-1.43-5.26-5.44-7.39a19.57,19.57,0,0,1,1.31,4.6,14.84,14.84,0,0,1,1.39.86Z"/><path class="cls-33" d="M85.92,129.42a4.34,4.34,0,0,0-2.58.12,31.33,31.33,0,0,0,2.21,3.56c1,.46,2,.95,2.85,1.43a19.57,19.57,0,0,0-1.31-4.6A7.43,7.43,0,0,0,85.92,129.42Z"/><path class="cls-34" d="M33.69,137.4a14.72,14.72,0,0,1,2,.79h.16c4.15-.78,8.29.2,12.44-1.17a12.48,12.48,0,0,0,1.33-.33c-8.69,0-17.5-.62-25.39-3.52C26.28,135.07,33.37,137.44,33.69,137.4Z"/><path class="cls-35" d="M50.88,135.63c.43-4.3-2.94-8.15-5.92-11.81a58.34,58.34,0,0,0-6.57.84,42.73,42.73,0,0,0-8.59,1.27c-4.86,1.21-7.16,4.6-6.17,6.59a2.22,2.22,0,0,0,.51.62c7.88,2.9,16.69,3.49,25.39,3.52C50.25,136.44,50.88,136.11,50.88,135.63Z"/><path class="cls-36" d="M92.41,139.17a2.44,2.44,0,0,0,.13-1.86h0l-2.75-1.93c-2.75-1.93-13.41-6.1-13.41-6.1s-6.07-2-10.36-1.67a17.88,17.88,0,0,1-11.85-2.69c-2.07-1.24-5.85-1.34-9.19-1.11,3,3.66,6.34,7.5,5.92,11.81,0,.78-1.71,1.17-2.68,1.37-4.15,1.37-8.29.39-12.44,1.17h-.16c1.27.56,3,1.37,4.7,2.23l4.27,2.37a11.48,11.48,0,0,1,1.47,1.08,49.4,49.4,0,0,0,6.39,4.26,45.62,45.62,0,0,1-4.69-7.83,15,15,0,0,1,2.47.1c-.42-.45-.1-.82-.37-1.34,13.36,0,25.35,2.68,38,6.09l1.14-.75A7.91,7.91,0,0,0,92.41,139.17Z"/><path class="cls-37" d="M50.22,140.41c6.64.82,10.83,6,14.77,10.25v-.39c1.21,1.29,10.18-.4,11.1-.58,6-1.57,8.84-2.72,11.72-4.54-12.65-3.41-24.37-6.09-37.74-6.09C50.38,139.59,49.8,140,50.22,140.41Z"/><path class="cls-38" d="M92.17,143.52c-.63-1.48-1.4-2.43-2.93-1.16-5.45,4.3-10,8.85-12.93,14.28,2.64-1.51,5.71-2.36,8.47-3.82l-1,.4S91.34,147.18,92.17,143.52Z"/><path class="cls-39" d="M75.3,163.31a28.57,28.57,0,0,0-4.12.57,3,3,0,0,0-2.66-.77c-1.43.18-2.44,1.05-2.26,1.94s1.48,1.46,2.91,1.28A2.62,2.62,0,0,0,71.39,165c1.41.25,3.65.42,4.7.73,1.68.51,3,1.36,2,2.81a3.11,3.11,0,0,0-.43,1h0c-1.36.17-2.29,1.15-2.08,2.19a2.44,2.44,0,0,0,2.83,1.56c1.36-.17,2.29-1.15,2.08-2.19a1.57,1.57,0,0,0-.29-.64c.22-.21.43-.43.65-.67-.58-2.05-2.52-3.85-4.68-5.1C76.06,164.36,75.54,163.85,75.3,163.31Z"/><path class="cls-40" d="M75.24,162.54c1.08-.9,2.41-.59,3.69-.52-.47-.23-1.12-.54-1.78-.8a35.82,35.82,0,0,1-3.91-1.88c-.82.24-1.35.87-1.22,1.52A1.86,1.86,0,0,0,74.18,162h.1a4,4,0,0,0,1,1.14A.87.87,0,0,1,75.24,162.54Z"/><path class="cls-41" d="M76.41,156.46c3-5.35,7.43-9.84,12.83-14.1,1.53-1.27,2.3-.31,2.93,1.16a2.29,2.29,0,0,0,0-1.06c-.51-2.1-2.54-3-4.6-2.87-4.65,5.6-12.34,10.62-15.85,16.63a2.2,2.2,0,0,0,.53,2.37,10,10,0,0,0,1,.75l1.08.57A4.52,4.52,0,0,1,76.41,156.46Z"/><path class="cls-42" d="M88,162.66c-2.21-.2-8.31-.26-8.31-.26l-.72-.37c-1.28-.07-2.6-.38-3.69.52a.87.87,0,0,0,0,.56l.24.19h-.16c.23.54.75,1.05.8,1.29,2.16,1.25,4.1,3,4.68,5.1,1.22-1.37,2.41-3.12,3.51-3.26,1.54-.2,6,.86,10.67-3.41s12.81-9.27,12.35-11.51a17.35,17.35,0,0,0-6,2C100.29,154.4,90.06,162.84,88,162.66Z"/><path class="cls-43" d="M98.23,148.18c-4.63,1.26-11,3.68-13.45,4.63-2.76,1.46-5.83,2.31-8.47,3.82l.1-.18a4.52,4.52,0,0,0-2.1,3.46,21.57,21.57,0,0,0,2.83,1.31c2,.42,4.08,0,6.68-.86,4.64-1.62,17.57-6.88,17.57-6.88l-.08.07a17.35,17.35,0,0,1,6-2,1,1,0,0,0,0-.11C106.55,149.22,104.07,146.59,98.23,148.18Z"/><path class="cls-44" d="M33.11,131.09c1.36,2.35,4.85,3.38,7.8,2.3s4.23-3.88,2.87-6.23-4.85-3.38-7.8-2.3S31.75,128.75,33.11,131.09Z"/><path class="cls-45" d="M33.38,131.16c1.23,2.14,4.41,3.08,7.08,2.09s3.85-3.52,2.61-5.66-4.41-3.07-7.08-2.09S32.15,129,33.38,131.16Z"/><path class="cls-46" d="M33.53,131.22c1.15,2,4.11,2.87,6.6,1.95s3.58-3.28,2.43-5.28S38.45,125,36,125.94,32.38,129.22,33.53,131.22Z"/><path class="cls-47" d="M81.14,143.2a46,46,0,0,1-4.52-.93c-1-.24-1.9-.41-2.81-.72-.46-.15-.92-.18-1.39-.29s-1-.3-1.55-.4c-1.39-.26-2.74-.49-4.15-.67-.87-.11-1.76-.19-2.62-.34s-1.63-.45-2.48-.66a13.58,13.58,0,0,0-3.16-.34c-.77,0-1.48.19-2.29.12a16.57,16.57,0,0,1-1.64-.35,27.27,27.27,0,0,0-3.12,0,4.4,4.4,0,0,0-2.24.57c-.45.26-.65.49-.45.91a1.29,1.29,0,0,0,.89.65c.45.15.62.1.73-.14-.11-.4-.35-.92,0-.92a7.84,7.84,0,0,1,3-.19h.07a2.2,2.2,0,0,1,.68.25c.18.12.2.28.28.45.17.35.28.73.45,1.07s.64,1.09,1.06.95.08-1.14,0-1.39c-.09-.52-.28-.89.56-.88s1.49,0,1.78.84.29,1.64.54,2.44a8,8,0,0,0,.79,1.89c.21.34.77,1.13,1.4,1.07s0-.81-.08-1a14.75,14.75,0,0,1-.69-1.6,4.93,4.93,0,0,1-.16-1.7,1.68,1.68,0,0,1,.84-1.67,2.28,2.28,0,0,1,2.93.7c.89,1.18.62,2.9.35,4.19-.2.95-.43,2.37.17,3.25a1.14,1.14,0,0,0,1.15.48c.47-.08.42-.28.47-.66.12-1,0-2.13.1-3.19a9,9,0,0,1,.69-2.9c.3-.66.81-1.37,1.8-1,1.73.61,1.59,2.4,1.47,3.68,0,.52-1.07,4.41-.14,4.48.5,0,1-.71,1.13-1,.33-.58.67-1.18,1-1.78.52-1.09.81-2.23,1.36-3.3.23-.45.76-.85,1.28-.38a1.94,1.94,0,0,1,.48,1.29c.06.81,0,1.64,0,2.46,0,.34,0,1.13.36,1.38s.63-.17.83-.44a16.39,16.39,0,0,0,1-1.53,10.67,10.67,0,0,1,.47-1.08c.73-1.05,2.45-.58,3.64-.53.42,0,1.09,0,1.19-.46S81.55,143.26,81.14,143.2Z"/><path class="cls-48" d="M87.6,139.59a5.78,5.78,0,0,0-3.5,1.5S73,151,71.74,156.22C75.25,150.21,83,145.19,87.6,139.59Z"/><path class="cls-49" d="M51.61,165.66c-.84-.51.32-1.75.49-3l-.57.31a28.48,28.48,0,0,0-2-2.35,1.06,1.06,0,0,0,.08-1.18,1.89,1.89,0,0,0-2.25-.61c-.87.32-1.26,1.11-.88,1.77a1.81,1.81,0,0,0,1.86.71,27.69,27.69,0,0,0,2.43,3.18s-6.53-1.12-8.66-.27a3.56,3.56,0,0,0-.44.21,2.61,2.61,0,0,0-1.74,0c-1,.38-1.52,1.3-1.08,2.06a2.24,2.24,0,0,0,2.66.68,1.64,1.64,0,0,0,1.22-1.59c2.37-1.26,7.69.7,7.69.7a9.07,9.07,0,0,0-7.21,5.08v.06a1.94,1.94,0,0,0-.63.12,1.21,1.21,0,0,0-.79,1.74,1.82,1.82,0,0,0,2.17.65,1.21,1.21,0,0,0,.79-1.74,1.33,1.33,0,0,0-.33-.37,7.43,7.43,0,0,1,1.4-2.38c1.65-2.24,6.38-1.83,6.38-1.83a13.45,13.45,0,0,0,0,4.72,3.13,3.13,0,0,0,.43.89,1.27,1.27,0,0,0-.43,1.65,2.19,2.19,0,0,0,2.6.66c1-.37,1.49-1.27,1.06-2a2.12,2.12,0,0,0-2.34-.73h0c-1.43-2.48.64-6.25.64-6.25l1.18-.91C53.93,165.87,52.57,166.14,51.61,165.66Z"/><path class="cls-50" d="M62.12,149.75l-.5-.42c-4.23-3.21-9.69-5.11-12.83-9h-1a45.62,45.62,0,0,0,4.69,7.83c2.41,1.42,4.5,2.57,4.5,2.57l-.16.64A8.36,8.36,0,0,1,62.12,149.75Z"/><path class="cls-51" d="M56.78,151.34c-.54,2.14-2.24,9-2.43,9.6s-1.47,1.33-2.24,1.77c-.17,1.21-1.34,2.45-.49,3s2.31.21,3.65,0c1.22-1,3.27-2.62,5.52-4.63s3.4-5.9,3.89-8.39a13.22,13.22,0,0,0-2.56-3A8.36,8.36,0,0,0,56.78,151.34Z"/><path class="cls-52" d="M48.79,140.3c3.14,3.87,8.6,5.78,12.83,9a13.55,13.55,0,0,1,3,3.38c.17-.88.27-1.59.32-2C60.77,146.14,56.27,140.49,48.79,140.3Z"/><path class="cls-26" d="M36.69,131.65l1.21-5A6.36,6.36,0,0,0,36.69,131.65Z"/><ellipse class="cls-27" cx="39.51" cy="127.86" rx="0.55" ry="0.44"/><path class="cls-27" d="M44.57,125.11h2a20.28,20.28,0,0,1,2.22.18,25,25,0,0,1,2.85.48,12.86,12.86,0,0,1,3.2,1.13l.39.22.36.21.36.17c.13.05.26.11.4.15a10.36,10.36,0,0,0,1.77.42c1.26.19,2.61.24,4,.31s2.8.13,4.22.27a29.45,29.45,0,0,1,4.19.71,18.8,18.8,0,0,1,2,.6l1.83.67,3.46,1.28,3.09,1.17,1.37.53,1.22.5,2,.81,1.27.53.45.19-.47-.15-1.33-.43-2-.68L82.06,134l-1.4-.46-3.15-1L74,131.31l-1.85-.64c-.61-.2-1.24-.39-1.89-.55a28.59,28.59,0,0,0-4-.66c-1.38-.15-2.77-.21-4.16-.29a36.64,36.64,0,0,1-4.1-.39,10.29,10.29,0,0,1-1.94-.51c-.15-.05-.3-.13-.45-.19l-.44-.23-.37-.23-.35-.21a12.88,12.88,0,0,0-3-1.18c-1-.27-1.91-.47-2.75-.61s-1.57-.25-2.18-.32l-1.42-.15Z"/><path class="cls-53" d="M8.61,63.49c1.09,1.88,3.87,2.7,6.23,1.84s3.38-3.1,2.3-5-3.87-2.7-6.23-1.84S7.53,61.61,8.61,63.49Z"/><path class="cls-54" d="M13.17,79.45A3.27,3.27,0,0,1,15.6,80a2.65,2.65,0,0,1,.38-.92,6.88,6.88,0,0,0,.38-1q.27-.69.51-1.38v-.1l-3.38-1.86-.07.19c-.4,1.09-.79,2.18-1.2,3.27a5.4,5.4,0,0,1-.72,1.32,3.2,3.2,0,0,1-.91.69l-.32.19C11.43,80.66,12.3,79.86,13.17,79.45Z"/><path class="cls-55" d="M20.58,81.85a1.7,1.7,0,0,0-2-.53,1.72,1.72,0,0,0-.44.24c-.94-.23-2-.32-2.43-1.06a.83.83,0,0,1-.08-.49,3.27,3.27,0,0,0-2.43-.56c-.87.42-1.75,1.21-2.9.92-1.33.75-3.09,1.06-4.44,1.8a9.88,9.88,0,0,0-2.38,1.77c-.43.45-1.14,1-1.31,1.58a2.26,2.26,0,0,0-1,.13C.36,86,0,86.72.31,87.34a1.85,1.85,0,0,0,2.2.54c.84-.31,1.24-1,.93-1.64a10.79,10.79,0,0,0,1.25-1.49,9.74,9.74,0,0,1,2.56-2.16c.34-.19,2.3-1.08,2.31-.09,0,.28-.47.63-.64.86a10.9,10.9,0,0,0-.81,1.27,6.65,6.65,0,0,0-.86,2.66,2.11,2.11,0,0,0-.46.11,1.3,1.3,0,0,0-.87,1.85,2,2,0,0,0,2.32.67,1.3,1.3,0,0,0,.87-1.85,1.38,1.38,0,0,0-.23-.29A8.11,8.11,0,0,0,9.78,85a6,6,0,0,1,1-1.9c.35-.51.55-.93,1.24-1.16a4.06,4.06,0,0,1,.59,2.36,6.57,6.57,0,0,0,.2,1.35c-.67.39-1,1-.68,1.53a2,2,0,0,0,2.35.46c1-.35,1.43-1.12,1.08-1.73a1.58,1.58,0,0,0-1.38-.63v-.52c0-.7-.45-2.4.3-2.9.39-.26.91-.06,1.3.08a16.5,16.5,0,0,0,1.6.5l.29.07a.92.92,0,0,0,.12.38,1.7,1.7,0,0,0,2,.53A1.1,1.1,0,0,0,20.58,81.85Z"/><path class="cls-56" d="M45.6,67.13s2,.77,4,1.71A25,25,0,0,1,47.88,66,9,9,0,0,0,45.6,67.13Z"/><path class="cls-57" d="M55.23,72.22s-1.14-4.21-4.35-5.9a15.64,15.64,0,0,1,1,3.68,9.79,9.79,0,0,1,1.11.69Z"/><path class="cls-58" d="M49.94,65.91a3.47,3.47,0,0,0-2.06.09,25,25,0,0,0,1.81,2.85c.79.37,1.58.76,2.27,1.14a15.64,15.64,0,0,0-1-3.68A5.94,5.94,0,0,0,49.94,65.91Z"/><path class="cls-59" d="M8.17,72.29a11.76,11.76,0,0,1,1.57.63h.12c3.31-.62,6.63.16,9.94-.93a10,10,0,0,0,1.07-.26c-7,0-14-.49-20.29-2.81C2.28,70.43,8,72.32,8.17,72.29Z"/><path class="cls-60" d="M22,70.87c.34-3.44-2.35-6.51-4.73-9.43a46.62,46.62,0,0,0-5.25.67,34.14,34.14,0,0,0-6.86,1c-3.89,1-5.72,3.68-4.93,5.27a1.77,1.77,0,0,0,.41.49c6.3,2.32,13.34,2.79,20.29,2.81C21.44,71.52,22,71.25,22,70.87Z"/><path class="cls-61" d="M55.13,73.75a2,2,0,0,0,.11-1.49h0l-2.19-1.54c-2.2-1.54-10.72-4.87-10.72-4.87s-4.85-1.61-8.28-1.33a14.29,14.29,0,0,1-9.47-2.15c-1.65-1-4.68-1.07-7.35-.88,2.38,2.92,5.07,6,4.73,9.43,0,.62-1.36.94-2.14,1.09-3.31,1.09-6.63.31-9.94.93H9.76c1,.45,2.39,1.09,3.76,1.78l3.41,1.9a9.17,9.17,0,0,1,1.18.86,39.47,39.47,0,0,0,5.11,3.4,36.46,36.46,0,0,1-3.75-6.25,12,12,0,0,1,2,.08c-.33-.36-.08-.65-.29-1.07,10.68,0,20.26,2.15,30.36,4.87l.91-.6A6.32,6.32,0,0,0,55.13,73.75Z"/><path class="cls-62" d="M21.41,74.69c5.3.66,8.65,4.82,11.8,8.19v-.31c1,1,8.14-.32,8.87-.46,4.8-1.25,7.06-2.18,9.36-3.62C41.33,75.77,32,73.62,21.29,73.62,21.54,74,21.08,74.33,21.41,74.69Z"/><path class="cls-63" d="M54.94,77.18c-.51-1.18-1.12-1.94-2.34-.93-4.36,3.44-8,7.07-10.33,11.41,2.11-1.21,4.56-1.89,6.76-3.05l-.82.32S54.27,80.1,54.94,77.18Z"/><path class="cls-64" d="M41.46,93a22.83,22.83,0,0,0-3.29.45,2.41,2.41,0,0,0-2.12-.62c-1.14.15-2,.84-1.81,1.55s1.18,1.17,2.32,1a2.09,2.09,0,0,0,1.77-1.1c1.13.2,2.92.33,3.76.58,1.34.41,2.38,1.09,1.59,2.25a2.49,2.49,0,0,0-.34.77h0c-1.08.14-1.83.92-1.66,1.75a2,2,0,0,0,2.26,1.25c1.09-.14,1.83-.92,1.66-1.75a1.26,1.26,0,0,0-.24-.52c.17-.16.34-.35.52-.54A7.7,7.7,0,0,0,42.14,94C42.06,93.83,41.69,93.42,41.46,93Z"/><path class="cls-65" d="M41.41,92.38c.87-.72,1.93-.47,3-.41-.38-.19-.89-.43-1.42-.64a28.62,28.62,0,0,1-3.13-1.5,1.19,1.19,0,0,0-1,1.21,1.48,1.48,0,0,0,1.73.9h.08a3.16,3.16,0,0,0,.77.91A.7.7,0,0,1,41.41,92.38Z"/><path class="cls-66" d="M42.35,87.52c2.38-4.28,5.94-7.87,10.25-11.27,1.23-1,1.83-.25,2.34.93a1.83,1.83,0,0,0,0-.85A3.27,3.27,0,0,0,51.27,74c-3.71,4.47-9.86,8.48-12.67,13.29A1.76,1.76,0,0,0,39,89.22c.26.22.52.42.77.6l.86.46A3.61,3.61,0,0,1,42.35,87.52Z"/><path class="cls-67" d="M51.57,92.47c-1.77-.16-6.64-.21-6.64-.21l-.58-.3c-1-.05-2.08-.3-3,.41a.7.7,0,0,0,0,.45l.19.15h-.13c.19.43.6.84.64,1a7.7,7.7,0,0,1,3.74,4.08c1-1.09,1.93-2.5,2.8-2.61,1.23-.16,4.76.69,8.53-2.72s10.24-7.4,9.87-9.2a13.86,13.86,0,0,0-4.8,1.63C61.42,85.87,53.25,92.62,51.57,92.47Z"/><path class="cls-68" d="M59.78,80.9c-3.7,1-8.78,2.94-10.75,3.7-2.2,1.16-4.66,1.84-6.76,3.05l.08-.14a3.61,3.61,0,0,0-1.66,2.77,17.23,17.23,0,0,0,2.26,1,9.83,9.83,0,0,0,5.34-.69c3.71-1.29,14-5.5,14-5.5l-.07.06A13.86,13.86,0,0,1,67,83.52s0-.05,0-.08C66.43,81.75,64.45,79.63,59.78,80.9Z"/><path class="cls-69" d="M7.69,67.25c1.09,1.88,3.88,2.7,6.23,1.84s3.38-3.1,2.3-5-3.87-2.7-6.23-1.83S6.69,65.36,7.69,67.25Z"/><path class="cls-70" d="M8,67.3A4.76,4.76,0,0,0,13.62,69c2.14-.79,3.07-2.82,2.09-4.53a4.77,4.77,0,0,0-5.66-1.69C7.91,63.57,7,65.59,8,67.3Z"/><path class="cls-71" d="M8.08,67.35a4.44,4.44,0,0,0,5.28,1.55c2-.73,2.86-2.62,1.94-4.22A4.44,4.44,0,0,0,10,63.13C8,63.86,7.15,65.75,8.08,67.35Z"/><path class="cls-72" d="M46.12,76.92a36.74,36.74,0,0,1-3.61-.74c-.76-.19-1.52-.33-2.25-.57-.37-.12-.73-.14-1.11-.23s-.81-.24-1.24-.32c-1.11-.21-2.19-.39-3.32-.54-.7-.09-1.41-.15-2.1-.27s-1.3-.36-2-.53A10.85,10.85,0,0,0,28,73.45c-.62,0-1.18.15-1.83.1a12.24,12.24,0,0,1-1.31-.28,21.79,21.79,0,0,0-2.49,0,3.52,3.52,0,0,0-1.79.45c-.36.21-.52.4-.36.73a1,1,0,0,0,.71.52c.36.12.49.08.58-.11-.09-.32-.28-.73,0-.73A6.26,6.26,0,0,1,23.9,74H24a1.75,1.75,0,0,1,.54.2c.15.1.16.22.22.36s.22.58.36.86.51.87.84.76.07-.91,0-1.11c-.07-.41-.22-.71.45-.71s1.19,0,1.42.67.23,1.31.43,1.95a6.35,6.35,0,0,0,.63,1.51c.17.27.61.9,1.12.85s0-.65-.06-.81a11.79,11.79,0,0,1-.55-1.28,3.94,3.94,0,0,1-.13-1.36,1.34,1.34,0,0,1,.67-1.33,1.82,1.82,0,0,1,2.34.56c.71.94.49,2.32.28,3.35a3.66,3.66,0,0,0,.14,2.6.91.91,0,0,0,.92.38c.37-.06.34-.22.37-.53.1-.84,0-1.7.08-2.55A7.16,7.16,0,0,1,34.58,76c.24-.53.65-1.1,1.44-.82,1.38.49,1.27,1.91,1.18,2.94,0,.42-.86,3.52-.11,3.58.4,0,.78-.57.9-.8.26-.47.53-.94.76-1.42.42-.87.65-1.78,1.09-2.63.19-.36.61-.68,1-.31a1.55,1.55,0,0,1,.38,1v2c0,.27,0,.91.28,1.1s.51-.14.66-.35A13.09,13.09,0,0,0,43,79.1a8.52,8.52,0,0,1,.38-.86c.59-.84,2-.46,2.91-.42.34,0,.87,0,1-.36S46.45,77,46.12,76.92Z"/><path class="cls-73" d="M51.28,74a4.62,4.62,0,0,0-2.79,1.2s-8.87,7.95-9.87,12.09C41.42,82.52,47.57,78.51,51.28,74Z"/><path class="cls-74" d="M22.53,94.87c-.68-.41.26-1.39.39-2.36l-.45.25a22.76,22.76,0,0,0-1.6-1.88.85.85,0,0,0,.07-.95,1.51,1.51,0,0,0-1.8-.49c-.69.26-1,.89-.7,1.41a1.45,1.45,0,0,0,1.49.57A22.13,22.13,0,0,0,21.87,94s-5.22-.89-6.92-.22l-.35.17a2.08,2.08,0,0,0-1.39,0c-.83.3-1.21,1-.86,1.65a1.79,1.79,0,0,0,2.13.55,1.31,1.31,0,0,0,1-1.27c1.9-1,6.14.56,6.14.56a7.25,7.25,0,0,0-5.76,4.06v.05a1.55,1.55,0,0,0-.51.09,1,1,0,0,0-.63,1.39,1.46,1.46,0,0,0,1.73.52,1,1,0,0,0,.63-1.39,1.07,1.07,0,0,0-.27-.3,5.94,5.94,0,0,1,1.12-1.9c1.32-1.79,5.1-1.46,5.1-1.46a10.74,10.74,0,0,0,0,3.78,2.5,2.5,0,0,0,.35.71,1,1,0,0,0-.34,1.32,1.75,1.75,0,0,0,2.08.53c.81-.3,1.19-1,.85-1.61a1.69,1.69,0,0,0-1.87-.58h0c-1.14-2,.51-5,.51-5l.94-.73A5.36,5.36,0,0,1,22.53,94.87Z"/><path class="cls-75" d="M30.92,82.12l-.4-.33c-3.38-2.56-7.74-4.08-10.25-7.18h-.83a36.46,36.46,0,0,0,3.75,6.25c1.92,1.14,3.6,2.06,3.6,2.06l-.13.51A6.68,6.68,0,0,1,30.92,82.12Z"/><path class="cls-76" d="M26.69,83.43c-.43,1.71-1.79,7.17-2,7.67S23.57,92.16,23,92.51c-.13,1-1.07,2-.39,2.36a5.36,5.36,0,0,0,2.92,0c1-.77,2.61-2.09,4.41-3.7s2.72-4.71,3.11-6.7a10.56,10.56,0,0,0-2-2.36A6.68,6.68,0,0,0,26.69,83.43Z"/><path class="cls-77" d="M20.27,74.61c2.51,3.09,6.87,4.62,10.25,7.18A10.82,10.82,0,0,1,33,84.49c.14-.7.21-1.27.25-1.6C29.85,79.27,26.25,74.75,20.27,74.61Z"/><path class="cls-26" d="M10.57,67.7l1-4A5.09,5.09,0,0,0,10.57,67.7Z"/><ellipse class="cls-27" cx="12.86" cy="64.66" rx="0.44" ry="0.35"/><path class="cls-27" d="M16.9,62.46h1.55c.5,0,1.09.07,1.78.14a20,20,0,0,1,2.28.38,10.28,10.28,0,0,1,2.56.9l.31.18.29.17.29.13.32.12a8.28,8.28,0,0,0,1.42.33c1,.15,2.09.19,3.19.25s2.24.1,3.37.21a23.53,23.53,0,0,1,3.35.57,15,15,0,0,1,1.58.48l1.46.54,2.76,1,2.47.93,1.09.42,1,.4,1.58.65,1,.43.36.15-.38-.12-1.06-.34-1.64-.55-1-.34-1.14-.3-2.52-.84-2.8-.95-1.48-.51c-.49-.16-1-.31-1.51-.44a22.85,22.85,0,0,0-3.22-.52c-1.1-.12-2.22-.17-3.32-.23a29.28,29.28,0,0,1-3.28-.31A8.23,8.23,0,0,1,26,65c-.12,0-.24-.1-.36-.15l-.35-.18-.3-.19-.28-.17a10.3,10.3,0,0,0-2.36-.94,20.8,20.8,0,0,0-2.2-.49c-.67-.11-1.25-.2-1.74-.26l-1.13-.12Z"/><path class="cls-78" d="M78.93,69.46c1.25,2.17,4.47,3.12,7.19,2.12S90,68,88.77,65.83s-4.47-3.08-7.19-2.08S77.69,67.29,78.93,69.46Z"/><path class="cls-79" d="M84.2,87.87a3.78,3.78,0,0,1,2.8.64,3.06,3.06,0,0,1,.44-1.06,7.94,7.94,0,0,0,.43-1.17c.2-.53.4-1.06.59-1.59v-.11l-3.93-2.19-.08.22c-.46,1.26-.91,2.51-1.39,3.77a6.23,6.23,0,0,1-.83,1.53,3.69,3.69,0,0,1-1,.8l-.37.22C82.18,89.27,83.19,88.36,84.2,87.87Z"/><path class="cls-80" d="M92.74,90.64a2.08,2.08,0,0,0-2.84-.33c-1.09-.26-2.37-.37-2.8-1.23a1,1,0,0,1-.09-.57,3.78,3.78,0,0,0-2.8-.64c-1,.48-2,1.4-3.34,1.07-1.54.86-3.57,1.22-5.12,2.08A11.4,11.4,0,0,0,73,93c-.5.52-1.32,1.14-1.52,1.82a2.61,2.61,0,0,0-1.09.15c-1,.37-1.46,1.24-1,1.95a2.13,2.13,0,0,0,2.54.62c1-.36,1.44-1.2,1.07-1.9A12.45,12.45,0,0,0,74.47,94a11.24,11.24,0,0,1,3-2.5c.39-.22,2.66-1.25,2.66-.11,0,.32-.55.72-.74,1a12.58,12.58,0,0,0-.94,1.47,7.67,7.67,0,0,0-1,3.07,2.44,2.44,0,0,0-.53.12,1.5,1.5,0,0,0-1,2.13,2.26,2.26,0,0,0,2.68.77,1.5,1.5,0,0,0,1-2.13,1.59,1.59,0,0,0-.27-.33,9.36,9.36,0,0,0,1-3.25A6.93,6.93,0,0,1,81.47,92c.41-.59.63-1.07,1.43-1.33a4.69,4.69,0,0,1,.68,2.73A7.58,7.58,0,0,0,83.81,95c-.77.46-1.12,1.18-.78,1.77a2.3,2.3,0,0,0,2.71.54c1.09-.4,1.65-1.3,1.25-2a1.82,1.82,0,0,0-1.6-.73V94c-.06-.81-.52-2.77.35-3.35.45-.3,1-.07,1.5.09a19,19,0,0,0,1.85.58l.33.09a1.06,1.06,0,0,0,.13.44,2,2,0,0,0,2.33.61A1.28,1.28,0,0,0,92.74,90.64Z"/><path class="cls-81" d="M121.61,73.66s2.31.88,4.68,2a28.89,28.89,0,0,1-2-3.28A10.41,10.41,0,0,0,121.61,73.66Z"/><path class="cls-82" d="M132.69,79.53s-1.32-4.85-5-6.81A18,18,0,0,1,128.9,77c.48.27.92.54,1.28.79Z"/><path class="cls-83" d="M126.63,72.26a4,4,0,0,0-2.38.11,28.89,28.89,0,0,0,2,3.28c.91.42,1.83.87,2.62,1.32a18,18,0,0,0-1.18-4.22A6.85,6.85,0,0,0,126.63,72.26Z"/><path class="cls-84" d="M78.42,79.61a13.58,13.58,0,0,1,1.81.73h.14c3.82-.72,7.65.18,11.47-1.08A11.51,11.51,0,0,0,93.07,79c-8,0-16.14-.57-23.41-3.24C71.63,77.47,78.17,79.65,78.42,79.61Z"/><path class="cls-85" d="M94.32,78c.4-4-2.71-7.51-5.45-10.89a53.8,53.8,0,0,0-6.06.78A39.4,39.4,0,0,0,74.89,69c-4.48,1.11-6.6,4.24-5.69,6.08a2,2,0,0,0,.47.57c7.27,2.67,15.39,3.22,23.41,3.24C93.69,78.75,94.32,78.42,94.32,78Z"/><path class="cls-86" d="M132.61,81.25a2.25,2.25,0,0,0,.12-1.72h0l-2.54-1.78c-2.53-1.78-12.37-5.62-12.37-5.62s-5.59-1.85-9.56-1.54a16.49,16.49,0,0,1-10.93-2.48c-1.91-1.14-5.4-1.23-8.48-1C91.59,70.48,94.7,74,94.3,78c0,.72-1.57,1.08-2.47,1.26-3.82,1.26-7.65.36-11.47,1.08h-.14c1.17.52,2.76,1.26,4.34,2.06l3.93,2.19a10.58,10.58,0,0,1,1.36,1,45.55,45.55,0,0,0,5.89,3.93,42.07,42.07,0,0,1-4.32-7.22,13.84,13.84,0,0,1,2.28.09c-.39-.41-.1-.75-.34-1.24,12.32,0,23.38,2.48,35,5.62l1-.69A7.3,7.3,0,0,0,132.61,81.25Z"/><path class="cls-87" d="M93.69,82.38c6.12.76,10,5.56,13.62,9.46v-.36c1.12,1.19,9.39-.37,10.24-.53,5.54-1.45,8.15-2.51,10.81-4.18-11.66-3.14-22.48-5.62-34.8-5.62C93.85,81.63,93.32,82,93.69,82.38Z"/><path class="cls-88" d="M132.39,85.26c-.59-1.36-1.29-2.24-2.7-1.07-5,4-9.18,8.16-11.92,13.16,2.43-1.4,5.26-2.18,7.81-3.52l-1,.37S131.63,88.63,132.39,85.26Z"/><path class="cls-89" d="M116.84,103.5a26.35,26.35,0,0,0-3.79.52,2.79,2.79,0,0,0-2.45-.71c-1.32.17-2.25,1-2.08,1.79s1.36,1.35,2.68,1.18a2.41,2.41,0,0,0,2-1.27c1.3.23,3.37.38,4.34.67,1.55.47,2.75,1.26,1.84,2.59a2.87,2.87,0,0,0-.4.88h0c-1.25.16-2.11,1.06-1.92,2a2.25,2.25,0,0,0,2.61,1.44c1.25-.16,2.11-1.06,1.92-2a1.45,1.45,0,0,0-.27-.59c.2-.19.4-.4.6-.62-.53-1.89-2.32-3.55-4.32-4.7C117.53,104.47,117.05,104,116.84,103.5Z"/><path class="cls-90" d="M116.78,102.75c1-.83,2.22-.54,3.4-.48a15.74,15.74,0,0,0-1.64-.74,33,33,0,0,1-3.61-1.73c-.76.22-1.25.8-1.13,1.4a1.71,1.71,0,0,0,2,1h.09a3.65,3.65,0,0,0,.89,1A.8.8,0,0,1,116.78,102.75Z"/><path class="cls-91" d="M117.86,97.19c2.74-4.93,6.85-9.08,11.83-13,1.41-1.17,2.12-.29,2.7,1.07a2.12,2.12,0,0,0,0-1c-.47-1.93-2.34-2.79-4.24-2.65-4.26,5.14-11.36,9.81-14.59,15.36a2,2,0,0,0,.48,2.18c.3.25.59.48.89.69l1,.53A4.17,4.17,0,0,1,117.86,97.19Z"/><path class="cls-92" d="M128.51,102.9c-2-.18-7.67-.24-7.67-.24l-.66-.35c-1.18-.06-2.4-.35-3.4.48a.8.8,0,0,0,0,.52l.22.17h-.15c.22.5.69,1,.74,1.19,2,1.15,3.78,2.81,4.32,4.7,1.13-1.26,2.22-2.88,3.23-3,1.42-.18,5.5.79,9.84-3.14s11.81-8.54,11.39-10.61a16,16,0,0,0-5.53,1.88C139.88,95.29,130.44,103.07,128.51,102.9Z"/><path class="cls-93" d="M138,89.55c-4.27,1.16-10.13,3.39-12.4,4.27-2.54,1.34-5.37,2.13-7.81,3.52l.09-.16a4.17,4.17,0,0,0-1.94,3.19,19.89,19.89,0,0,0,2.61,1.2,11.35,11.35,0,0,0,6.17-.82c4.28-1.49,16.2-6.34,16.2-6.34l-.08.06a16,16,0,0,1,5.53-1.88,1,1,0,0,0,0-.1C145.69,90.51,143.36,88.09,138,89.55Z"/><path class="cls-94" d="M77.93,73.75c1.25,2.17,4.47,3.12,7.19,2.12s3.9-3.57,2.65-5.75S83.3,67,80.58,68,76.69,71.62,77.93,73.75Z"/><path class="cls-95" d="M78.18,73.86c1.14,2,4.06,2.84,6.53,1.92s3.55-3.25,2.41-5.22-4.06-2.84-6.53-1.93S77,71.89,78.18,73.86Z"/><path class="cls-96" d="M78.31,73.91c1.06,1.84,3.79,2.64,6.09,1.79s3.31-3,2.24-4.87S82.85,68.19,80.55,69,77.25,72.07,78.31,73.91Z"/><path class="cls-97" d="M122.22,85a42.39,42.39,0,0,1-4.17-.86c-.87-.22-1.76-.38-2.6-.66-.42-.14-.85-.16-1.28-.26s-.94-.27-1.43-.37c-1.28-.24-2.53-.45-3.83-.62-.8-.11-1.62-.18-2.42-.31s-1.51-.42-2.28-.61A12.52,12.52,0,0,0,101.3,81a20.83,20.83,0,0,1-2.11.11,11.66,11.66,0,0,1-1.51-.33,25.15,25.15,0,0,0-2.87,0,4.06,4.06,0,0,0-2.06.52c-.41.24-.6.46-.41.84a1.19,1.19,0,0,0,.82.6c.42.14.57.09.67-.13-.1-.37-.33-.84,0-.84a7.23,7.23,0,0,1,2.8-.18h.06a2,2,0,0,1,.63.23c.17.11.18.26.26.42.15.32.25.67.42,1s.59,1,1,.88.08-1.05,0-1.29c-.08-.48-.26-.82.52-.82s1.37,0,1.64.78.27,1.51.5,2.25a7.33,7.33,0,0,0,.73,1.74c.19.31.71,1,1.29,1s0-.74-.07-.94a13.6,13.6,0,0,1-.64-1.48,4.55,4.55,0,0,1-.15-1.57,1.55,1.55,0,0,1,.78-1.54,2.1,2.1,0,0,1,2.7.65c.82,1.08.57,2.67.32,3.86a4.22,4.22,0,0,0,.16,3,1,1,0,0,0,1.06.44c.43-.07.39-.26.43-.61.11-1,0-2,.09-2.94a8.26,8.26,0,0,1,.64-2.67c.28-.61.74-1.27,1.66-.94,1.6.57,1.46,2.21,1.36,3.39,0,.48-1,4.06-.13,4.13.46,0,.89-.66,1-.92.3-.54.61-1.09.88-1.64.48-1,.74-2.05,1.26-3,.21-.42.7-.79,1.18-.35a1.79,1.79,0,0,1,.48,1.14c0,.75,0,1.51,0,2.26,0,.31,0,1,.33,1.27s.59-.16.76-.41a15.11,15.11,0,0,0,.93-1.41,9.83,9.83,0,0,1,.43-1c.68-1,2.26-.53,3.36-.49.39,0,1,0,1.1-.42S122.59,85,122.22,85Z"/><path class="cls-98" d="M128.17,81.63A5.33,5.33,0,0,0,125,83s-10.23,9.17-11.39,14C116.79,91.42,123.89,86.75,128.17,81.63Z"/><path class="cls-99" d="M95,105.67c-.78-.47.3-1.61.45-2.72l-.52.29a26.26,26.26,0,0,0-1.84-2.17,1,1,0,0,0,.08-1.09,1.75,1.75,0,0,0-2.08-.57c-.8.29-1.16,1-.81,1.63a1.67,1.67,0,0,0,1.72.66,25.53,25.53,0,0,0,2.24,2.94s-6-1-8-.25a3.28,3.28,0,0,0-.4.19,2.41,2.41,0,0,0-1.61,0c-1,.35-1.4,1.2-1,1.9a2.06,2.06,0,0,0,2.46.63,1.51,1.51,0,0,0,1.13-1.46c2.19-1.16,7.09.65,7.09.65A8.36,8.36,0,0,0,87.25,111V111a1.79,1.79,0,0,0-.58.11,1.12,1.12,0,0,0-.73,1.6,1.68,1.68,0,0,0,2,.6,1.12,1.12,0,0,0,.75-1.6,1.23,1.23,0,0,0-.31-.35,6.85,6.85,0,0,1,1.29-2.19c1.52-2.07,5.89-1.69,5.89-1.69a12.4,12.4,0,0,0,0,4.36,2.89,2.89,0,0,0,.4.82,1.17,1.17,0,0,0-.39,1.52,2,2,0,0,0,2.4.61c.93-.34,1.37-1.17,1-1.85a2,2,0,0,0-2.16-.67h0c-1.32-2.29.59-5.76.59-5.76l1.09-.84C97.13,105.87,95.87,106.11,95,105.67Z"/><path class="cls-100" d="M104.69,91l-.46-.39c-3.9-3-8.93-4.71-11.83-8.28h-1a42.07,42.07,0,0,0,4.32,7.22c2.22,1.31,4.15,2.37,4.15,2.37l-.15.59A7.71,7.71,0,0,1,104.69,91Z"/><path class="cls-101" d="M99.75,92.47c-.49,2-2.07,8.28-2.24,8.85s-1.35,1.22-2.06,1.63c-.16,1.12-1.23,2.26-.45,2.72s2.13.19,3.37,0c1.13-.89,3-2.41,5.09-4.27S106.6,96,107,93.66A12.19,12.19,0,0,0,104.69,91,7.71,7.71,0,0,0,99.75,92.47Z"/><path class="cls-102" d="M92.38,82.29c2.9,3.57,7.93,5.33,11.83,8.28A12.49,12.49,0,0,1,107,93.68c.16-.81.25-1.47.29-1.84C103.43,87.67,99.28,82.46,92.38,82.29Z"/><path class="cls-26" d="M81.19,74.31l1.11-4.62A5.87,5.87,0,0,0,81.19,74.31Z"/><ellipse class="cls-27" cx="83.83" cy="70.81" rx="0.51" ry="0.4"/><path class="cls-27" d="M88.5,68.27h1.79a19.6,19.6,0,0,1,2,.17,23,23,0,0,1,2.63.44,11.86,11.86,0,0,1,3,1l.36.2.34.19.33.15c.12,0,.24.1.37.14a9.55,9.55,0,0,0,1.63.38,35.48,35.48,0,0,0,3.68.28c1.27.06,2.58.12,3.89.25a27.15,27.15,0,0,1,3.86.66,17.34,17.34,0,0,1,1.82.56l1.69.62,3.19,1.18L122,75.57l1.26.48,1.13.46,1.83.75,1.17.49.41.17-.43-.14-1.23-.4-1.89-.63-1.16-.39-1.3-.42-2.91-1-3.23-1.1-1.71-.59c-.56-.19-1.14-.36-1.74-.5a26.36,26.36,0,0,0-3.72-.61c-1.27-.13-2.56-.2-3.84-.27a33.78,33.78,0,0,1-3.78-.36A9.49,9.49,0,0,1,99.06,71c-.14,0-.28-.12-.41-.17l-.4-.21-.35-.22-.32-.19a11.88,11.88,0,0,0-2.72-1.09,25.71,25.71,0,0,0-2.53-.56c-.77-.13-1.45-.23-2-.29L89,68.17Z"/></svg>