<svg id="Layer_1" data-name="Layer 1" xmlns="http://www.w3.org/2000/svg" viewBox="0 0 146.58 176.13"><defs><style>.cls-1{fill:#303c36;}.cls-2{fill:#78866c;}.cls-3{fill:#84a18f;}.cls-4{fill:#9dad90;}.cls-5{fill:#192121;}.cls-6{fill:#333633;}</style></defs><title>3in_1</title><ellipse class="cls-1" cx="49.18" cy="23.73" rx="23.41" ry="23.73"/><path class="cls-2" d="M49.18,46.44A22.57,22.57,0,1,1,71.59,23.71v0A22.59,22.59,0,0,1,49.18,46.44Z"/><path class="cls-3" d="M49.18,45.42a21.55,21.55,0,1,1,21.4-21.69A21.57,21.57,0,0,1,49.18,45.42Z"/><path class="cls-4" d="M54,29.33a12.85,12.85,0,1,1,12.66-13q0,.09,0,.19A12.78,12.78,0,0,1,54,29.33Z"/><path class="cls-5" d="M54,27.93A11.41,11.41,0,1,1,65.23,16.34s0,.09,0,.14A11.35,11.35,0,0,1,54,27.93Z"/><path class="cls-6" d="M54,26.45a10,10,0,1,1,9.83-10.17q0,.08,0,.17a9.91,9.91,0,0,1-9.82,10Z"/><ellipse class="cls-1" cx="92.98" cy="116.95" rx="23.41" ry="23.73"/><path class="cls-2" d="M93,139.66a22.72,22.72,0,1,1,22.38-23.06q0,.16,0,.33A22.59,22.59,0,0,1,93,139.66Z"/><path class="cls-3" d="M93,138.64a21.7,21.7,0,1,1,21.38-22q0,.15,0,.31A21.57,21.57,0,0,1,93,138.64Z"/><path class="cls-4" d="M97.78,122.55a12.85,12.85,0,1,1,12.68-13q0,.08,0,.17A12.78,12.78,0,0,1,97.78,122.55Z"/><path class="cls-5" d="M97.78,121.11A11.41,11.41,0,1,1,109,109.51q0,.09,0,.19A11.35,11.35,0,0,1,97.78,121.11Z"/><path class="cls-6" d="M97.78,119.67a10,10,0,1,1,9.83-10.17q0,.08,0,.17a9.91,9.91,0,0,1-9.82,10Z"/><ellipse class="cls-1" cx="23.41" cy="75.11" rx="23.41" ry="23.73"/><path class="cls-2" d="M23.42,97.82a22.72,22.72,0,0,1,0-45.43,22.72,22.72,0,0,1,0,45.43Z"/><path class="cls-3" d="M23.42,96.8a21.7,21.7,0,0,1,0-43.39,21.7,21.7,0,0,1,0,43.39Z"/><path class="cls-4" d="M28.22,80.71a12.85,12.85,0,1,1,12.67-13q0,.09,0,.18A12.78,12.78,0,0,1,28.22,80.71Z"/><path class="cls-5" d="M28.22,79.27A11.41,11.41,0,1,1,39.47,67.7q0,.08,0,.16A11.35,11.35,0,0,1,28.22,79.27Z"/><path class="cls-6" d="M28.22,77.83A10,10,0,1,1,38,67.66q0,.08,0,.17a9.91,9.91,0,0,1-9.82,10Z"/><ellipse class="cls-1" cx="84.08" cy="59.11" rx="23.41" ry="23.73"/><path class="cls-2" d="M84.08,81.82a22.72,22.72,0,1,1,22.41-23q0,.16,0,.32A22.59,22.59,0,0,1,84.08,81.82Z"/><path class="cls-3" d="M84.08,80.8a21.7,21.7,0,1,1,21.4-22q0,.15,0,.31A21.57,21.57,0,0,1,84.08,80.8Z"/><path class="cls-4" d="M88.88,64.71a12.85,12.85,0,1,1,12.68-13q0,.08,0,.17A12.78,12.78,0,0,1,88.88,64.71Z"/><path class="cls-5" d="M88.88,63.27a11.41,11.41,0,1,1,11.26-11.56s0,.1,0,.15A11.35,11.35,0,0,1,88.88,63.27Z"/><path class="cls-6" d="M88.88,61.83a10,10,0,1,1,9.83-10.17q0,.08,0,.17a9.91,9.91,0,0,1-9.82,10Z"/><ellipse class="cls-1" cx="39.96" cy="152.4" rx="23.41" ry="23.73"/><path class="cls-2" d="M40,175.12a22.72,22.72,0,1,1,22.41-23q0,.16,0,.32A22.59,22.59,0,0,1,40,175.12Z"/><path class="cls-3" d="M40,174.1a21.7,21.7,0,1,1,21.4-22q0,.15,0,.31A21.57,21.57,0,0,1,40,174.1Z"/><path class="cls-4" d="M44.76,158a12.85,12.85,0,1,1,12.68-13q0,.08,0,.17A12.78,12.78,0,0,1,44.76,158Z"/><path class="cls-5" d="M44.76,156.56A11.41,11.41,0,1,1,56,145q0,.09,0,.18A11.35,11.35,0,0,1,44.76,156.56Z"/><path class="cls-6" d="M44.76,155.12A10,10,0,1,1,54.59,145q0,.08,0,.17a9.91,9.91,0,0,1-9.82,10Z"/><ellipse class="cls-1" cx="55.63" cy="95.93" rx="23.41" ry="23.73"/><path class="cls-2" d="M55.63,118.65A22.72,22.72,0,1,1,78,95.58q0,.17,0,.35A22.59,22.59,0,0,1,55.63,118.65Z"/><path class="cls-3" d="M55.63,117.63A21.7,21.7,0,1,1,77,95.6q0,.16,0,.33A21.57,21.57,0,0,1,55.63,117.63Z"/><path class="cls-4" d="M60.43,101.54a12.85,12.85,0,1,1,12.68-13q0,.08,0,.17A12.78,12.78,0,0,1,60.43,101.54Z"/><path class="cls-5" d="M60.43,100.09A11.41,11.41,0,1,1,71.69,88.53q0,.08,0,.16A11.35,11.35,0,0,1,60.43,100.09Z"/><path class="cls-6" d="M60.43,98.65a10,10,0,1,1,9.83-10.17q0,.08,0,.17a9.91,9.91,0,0,1-9.82,10Z"/><ellipse class="cls-1" cx="123.17" cy="83.73" rx="23.41" ry="23.73"/><path class="cls-2" d="M123.17,106.44a22.72,22.72,0,1,1,22.41-23q0,.16,0,.32A22.59,22.59,0,0,1,123.17,106.44Z"/><path class="cls-3" d="M123.17,105.42a21.7,21.7,0,1,1,21.4-22q0,.15,0,.31A21.57,21.57,0,0,1,123.17,105.42Z"/><path class="cls-4" d="M128,89.33a12.85,12.85,0,1,1,12.68-13q0,.08,0,.17A12.78,12.78,0,0,1,128,89.33Z"/><path class="cls-5" d="M128,87.93a11.41,11.41,0,1,1,11.26-11.56s0,.1,0,.15A11.35,11.35,0,0,1,128,87.93Z"/><path class="cls-6" d="M128,86.45a10,10,0,1,1,9.83-10.17q0,.08,0,.17a9.91,9.91,0,0,1-9.82,10Z"/></svg>