<?xml version="1.0" encoding="utf-8"?>
<!-- Generator: Adobe Illustrator 20.1.0, SVG Export Plug-In . SVG Version: 6.00 Build 0)  -->
<svg version="1.1" id="Layer_1" xmlns="http://www.w3.org/2000/svg" xmlns:xlink="http://www.w3.org/1999/xlink" x="0px" y="0px"
	 viewBox="0 0 375 375" style="enable-background:new 0 0 375 375;" xml:space="preserve">
<g id="mainClock">
	<g id="Layer_8_1_">
		<g id="Scene_1_f7_1_">
			<g id="Graphic_shape_181_3_">
				<path style="fill:#00CC00;" d="M368.1,135L368.1,135c-8.3-29.9-24.4-56.6-48-80.2C283.6,18.1,239.3-0.1,187.6,0
					c-51.8,0-96,18.3-132.7,54.8C18.4,91.4,0,135.7,0,187.4S18.3,283.3,54.9,320s80.9,55,132.7,55s96-18.4,132.5-55H320
					c23.6-23.5,39.7-50.2,48-80.1c4.7-16.6,7-34,7-52.6C375,169,372.7,151.6,368.1,135"/>
				<path d="M355.6,138.7c-7.8-27.8-22.7-52.6-44.6-74.6c-34-34-75.1-51-123.4-51c-48.1,0-89.2,17-123.4,51L64,64.2
					c-34,34.2-51,75.4-51,123.4c0,48.1,17,89.3,51,123.4c34.2,34.2,75.3,51.3,123.5,51.3S276.9,345.1,311,311
					c21.9-21.9,36.8-46.7,44.6-74.3v-0.1c4.3-15.5,6.5-31.8,6.5-48.9C362.1,170.3,359.9,154,355.6,138.7"/>
			</g>
			<g id="MovieClip_sprite_115_2_">
				<path style="fill:none;stroke:#999999;stroke-width:3.365;stroke-linecap:round;stroke-linejoin:round;" d="M349,187.7
					c0-44.7-15.9-83-47.6-114.5c-31.8-31.7-70.2-47.5-115.2-47.5S103,41.5,71.2,73.2C39.4,104.7,23.5,143,23.5,187.7
					s15.9,83,47.7,114.7c31.7,31.6,70,47.3,115,47.3s83.3-15.8,115.2-47.3C333.1,270.7,349,232.4,349,187.7"/>
				<g id="MovieClip_sprite_119_3_" style="opacity:0.43;">
					<g id="Graphic_x5F_shape_x5F_109_x5F__x28_Hit_x29__23_">
						<path style="fill:none;stroke:#FFFFFF;stroke-width:1.196;stroke-linecap:round;stroke-linejoin:round;" d="M292,189.9H84.9"
							/>
					</g>
					<g id="Graphic_x5F_shape_x5F_109_x5F__x28_Hit_x29__22_">
						<path style="fill:none;stroke:#FFFFFF;stroke-width:1.197;stroke-linecap:round;stroke-linejoin:round;" d="M188.5,293V86.9"
							/>
					</g>
					<g id="Graphic_x5F_shape_x5F_109_x5F__x28_Hit_x29__21_">
						<path style="fill:none;stroke:#FFFFFF;stroke-width:1.196;stroke-linecap:round;stroke-linejoin:round;" d="M278.2,138.4
							l-179.5,103"/>
					</g>
					<g id="Graphic_x5F_shape_x5F_109_x5F__x28_Hit_x29__20_">
						<path style="fill:none;stroke:#FFFFFF;stroke-width:1.197;stroke-linecap:round;stroke-linejoin:round;" d="M240.3,100.6
							L136.7,279.3"/>
					</g>
					<g id="Graphic_x5F_shape_x5F_109_x5F__x28_Hit_x29__19_">
						<path style="fill:none;stroke:#FFFFFF;stroke-width:1.197;stroke-linecap:round;stroke-linejoin:round;" d="M240.3,279.3
							L136.7,100.6"/>
					</g>
					<g id="Graphic_x5F_shape_x5F_109_x5F__x28_Hit_x29__18_">
						<path style="fill:none;stroke:#FFFFFF;stroke-width:1.196;stroke-linecap:round;stroke-linejoin:round;" d="M278.2,241.4
							l-179.5-103"/>
					</g>
				</g>
				<g id="MovieClip_sprite_118_5_" style="opacity:0.3;">
					<path style="fill:#666666;" d="M227.3,151.2c-10.7-10.7-23.7-16-38.9-16c-15.1,0-28.2,5.3-38.9,16s-16,23.6-16,38.7
						s5.3,28,16,38.7s23.7,16,38.9,16c15.3,0,28.2-5.3,38.9-16s16-23.6,16-38.7C243.5,174.8,238,161.9,227.3,151.2"/>
				</g>
				<g id="MovieClip_sprite_117_2_">
					<path style="fill:#FFFFFF;" d="M262,89.7V60.4h-6.5c-0.9,1.8-2.1,3.3-3.7,4.6c-1.4,1.2-3.5,2.3-6.3,3.1v6.5l4.6-1.7l3.9-2.3
						v19.2L262,89.7"/>
					<path style="fill:#FFFFFF;" d="M200.1,64.7l3.4-2.3c2.7-2,4.6-3.7,5.6-5.3s1.6-3.3,1.6-5.1c0-1.6-0.4-3-1.3-4.3l-3.7-3l-6.5-1
						l-6.4,1l-3.5,3l-1.7,5.2l8.1,0.7c0.3-1.7,0.7-2.7,1.3-3.4l2.3-1l2.5,1l1,2.2l-1,2.5l-4.6,4c-3.8,2.7-6.5,5.2-8,7.4l-2.5,6.8
						H211v-6.5h-12.7L200.1,64.7"/>
					<path style="fill:#FFFFFF;" d="M314.6,121.7c1-1.6,1.6-3.3,1.6-5.1c0-1.6-0.4-3-1.3-4.3l-3.7-3l-6.5-1l-6.4,1l-3.5,3
						c-0.8,1.2-1.3,3-1.7,5.2l8.1,0.7c0.3-1.7,0.7-2.7,1.3-3.4c0.5-0.7,1.3-1,2.3-1l2.5,1l1,2.2l-1,2.5l-4.6,4
						c-3.8,2.7-6.5,5.2-8,7.4c-1.3,2.1-2.2,4.4-2.5,6.8h24.3v-6.5h-12.7l1.8-1.7l3.4-2.3C311.7,125.2,313.6,123.4,314.6,121.7"/>
					<path style="fill:#FFFFFF;" d="M317.7,176.3c-1.8,1.2-3,3.1-3.7,5.6l7.6,1.3c0.3-1.4,0.7-2.5,1.2-3l2.3-0.8l2.2,0.8l0.8,2
						c0,0.9-0.4,1.7-1.2,2.3c-0.7,0.7-1.6,1-2.5,1h-1.2l-0.4,5.7l2.5-0.5c1.2,0,2.2,0.4,2.9,1.2l1,3l-1,3.1
						c-0.7,0.8-1.6,1.2-2.7,1.2l-2.5-1c-0.7-0.5-1.2-1.7-1.6-3.4l-8.1,1.2l2.3,4.4l3.7,2.7l6.3,1l6.5-1.2l3.9-3.7l1.2-4.7l-0.7-3.5
						l-2.3-2.3l-2.5-1l3-2.7c0.8-1,1.2-2.1,1.2-3.4c0-2.1-0.8-3.9-2.5-5.2c-1.7-1.4-4.4-2.2-8.2-2.2
						C322,174.3,319.6,174.9,317.7,176.3"/>
					<path style="fill:#FFFFFF;" d="M306.7,263.7v5.3h6.9v-5.3h3.7v-6.3h-3.7v-17.9h-6.9L292,257v6.5h14.7 M298.8,257.5l7.8-9.1v9.1
						H298.8"/>
					<path style="fill:#FFFFFF;" d="M252.7,299.3l0.7-4.4h13v-6.4H247l-2.5,15.7l6.9,0.8l1.7-1.3l2.3-0.7c1.2,0,2.2,0.4,2.9,1.2
						c0.8,0.8,1.2,2.1,1.2,3.9c0,1.7-0.4,2.9-1.2,3.7c-0.7,0.9-1.6,1.3-2.7,1.3l-2.7-1c-0.7-0.7-1.2-1.7-1.3-3l-8.1,0.8
						c0.4,1.4,0.8,2.6,1.6,3.5l2.2,2.3c1,0.7,2.2,1.2,3.5,1.7l5,0.5l6.5-1.3c1.7-0.9,3-2.2,4-4c0.9-1.7,1.3-3.5,1.3-5.3
						c0-2.6-0.9-4.8-2.7-6.5c-1.8-1.7-4.2-2.5-7-2.5l-2.7,0.1L252.7,299.3"/>
					<path style="fill:#FFFFFF;" d="M198.9,309.8c-0.9-1-2.1-1.8-3.4-2.3l-5.3-0.8c-3.9,0-6.9,1.2-9.1,3.7
						c-2.2,2.5-3.4,6.3-3.4,11.5c0,3.5,0.5,6.4,1.6,8.6l4.2,4.7c1.8,1,4.2,1.6,7,1.6l5.9-1.2c1.7-0.8,3-2,3.9-3.7
						c0.9-1.6,1.3-3.3,1.3-5.2c0-2.7-0.9-5.1-2.7-6.9c-1.8-2-4-2.9-6.5-2.9l-3.5,0.8l-3,2l1.2-6c0.8-1.2,1.8-1.8,3-1.8
						c0.8,0,1.4,0.3,1.8,0.7l1.2,2.3l8-1L198.9,309.8 M192.9,323c0.7,0.8,1,2,1,3.7l-1,3.5c-0.7,0.8-1.6,1.2-2.7,1.2
						c-1.2,0-2.1-0.4-2.9-1.3c-0.8-0.9-1.2-2.1-1.2-3.7c0-1.4,0.4-2.6,1.2-3.5c0.8-0.8,1.7-1.2,2.9-1.2
						C191.2,321.7,192.1,322.2,192.9,323"/>
					<path style="fill:#FFFFFF;" d="M44.5,175.6c-1.7,0.8-3,2-3.9,3.5c-0.9,1.6-1.3,3.3-1.3,5.2c0,2.7,0.9,5.1,2.7,6.9
						c1.8,2,4,2.9,6.5,2.9l3.5-0.7l3-2.2l-1.2,6c-0.8,1.3-1.8,2-3,2l-1.8-0.7l-1.2-2.5l-8,1l2.2,4l3.4,2.3l5.3,0.8
						c3.9,0,6.9-1.2,9.1-3.7c2.2-2.3,3.4-6.1,3.4-11.5c0-3.5-0.5-6.4-1.6-8.6c-1.2-2.1-2.5-3.7-4.2-4.7l-7-1.6L44.5,175.6
						 M50.7,179.3c1.2,0,2.1,0.4,2.9,1.3c0.8,0.9,1.2,2.1,1.2,3.7c0,1.6-0.4,2.7-1.2,3.5s-1.7,1.2-2.9,1.2c-1,0-2-0.4-2.7-1.2
						l-1-3.7l1-3.7C48.8,179.7,49.6,179.3,50.7,179.3"/>
					<path style="fill:#FFFFFF;" d="M168.8,57.8l4.6-1.7c1.2-0.7,2.5-1.4,3.9-2.3V73h8.1V43.6h-6.5c-0.9,1.8-2.1,3.3-3.7,4.6
						c-1.4,1.2-3.5,2.3-6.3,3.1v6.5"/>
					<path style="fill:#FFFFFF;" d="M138.9,60.4h-6.5c-0.9,1.8-2.1,3.3-3.7,4.6l-6.3,3.1v6.5l4.6-1.7c1.2-0.7,2.5-1.4,3.9-2.3v19.2
						h8.1V60.4"/>
					<path style="fill:#FFFFFF;" d="M112,60.4c-0.9,1.8-2.1,3.3-3.7,4.6c-1.4,1.2-3.5,2.3-6.3,3.1v6.5l4.6-1.7l3.9-2.3v19.2h8.1
						V60.4H112"/>
					<path style="fill:#FFFFFF;" d="M96.7,110.9l-3-1.8l-5-0.8c-4,0-7,1.2-9,3.4c-2.1,2.1-3,6-3,11.5l0.5,6.3l1.7,4.4l3.7,3.4
						c1.4,0.8,3.4,1.2,5.9,1.2c4.4,0,7.4-1.2,9.1-3.7c1.8-2.3,2.7-6.1,2.7-11.5l-0.8-6.8l-1-3L96.7,110.9 M91.4,115.6
						c0.7,1.3,1,3.9,1,7.7c0,2.6-0.1,4.4-0.5,5.7c-0.3,1.2-0.7,2.1-1.3,2.7c-0.5,0.5-1.2,0.8-2.1,0.8c-1.2,0-2.2-0.7-2.9-2
						c-0.7-1.3-1-3.8-1-7.4l0.8-7.6c0.7-1.3,1.7-2,3-2C89.7,113.6,90.8,114.3,91.4,115.6"/>
					<path style="fill:#FFFFFF;" d="M62.7,120.8l3.9-2.3v19.2h8.1v-29.3h-6.5c-0.9,1.8-2.1,3.3-3.7,4.6l-6.3,3.1v6.5L62.7,120.8"/>
					<path style="fill:#FFFFFF;" d="M83.2,241.8c-1.8-1.4-4.7-2.2-8.6-2.2c-2.9,0-5.3,0.7-7,1.8c-2.2,1.6-3.4,3.5-3.4,5.9l1.2,3.9
						l2.9,2.3c-1.7,0.5-2.9,1.4-3.7,2.7c-0.8,1.2-1.2,2.5-1.2,4.2l1.2,4.8l3.7,3l7,1.2l8.2-2l2.3-2.9c0.7-1.2,1-2.6,1-4
						c0-1.6-0.4-3-1.2-4.2c-0.7-1.2-1.8-2.2-3.4-2.9l2.5-2.5c0.8-1.2,1.2-2.3,1.2-3.7C86.1,245.2,85,243.4,83.2,241.8 M72.7,250.3
						l-1-2.3l1-2.3c0.5-0.7,1.3-1,2.3-1c0.9,0,1.7,0.4,2.3,1c0.5,0.5,0.8,1.3,0.8,2.3s-0.3,1.8-0.8,2.3l-2.3,1L72.7,250.3
						 M78.8,260.3c0,1.2-0.4,2.2-1,3c-0.8,0.9-1.7,1.3-2.7,1.3s-2-0.4-2.7-1.3c-0.8-0.8-1.2-1.8-1.2-3c0-1.3,0.4-2.3,1.2-3.1
						C73,256.4,74,256,75,256s2,0.4,2.7,1.2C78.4,257.9,78.8,259,78.8,260.3"/>
					<path style="fill:#FFFFFF;" d="M115,305.5c-1.3,3.3-2.3,7.2-2.9,11.9h8l1.6-8.7l4-8.7l5.1-6v-5.3h-23.5v6.9h14.3
						C118.6,299.1,116.3,302.3,115,305.5"/>
				</g>
			</g>
		</g>
	</g>
</g>
</svg>