<svg id="Layer_1" data-name="Layer 1" xmlns="http://www.w3.org/2000/svg" viewBox="0 0 588.87 182.67"><defs><style>.cls-1{font-size:10px;}.cls-1,.cls-2{font-family:ABeeZee-Regular, ABeeZee;}.cls-2{font-size:11px;stroke:#231f20;stroke-miterlimit:10;stroke-width:0.75px;}.cls-3{fill:#525731;}.cls-4{fill:#7ae700;}</style></defs><title>dotted-line</title><text class="cls-1" transform="translate(575.43 53.39) scale(0.99 1)">35</text><text class="cls-1" transform="translate(542.56 53.43) scale(0.99 1)">33</text><text class="cls-1" transform="translate(558.99 53.43) scale(0.99 1)">34</text><text class="cls-1" transform="translate(526.13 53.43) scale(0.99 1)">32</text><text class="cls-1" transform="translate(509.7 53.43) scale(0.99 1)">31</text><text class="cls-1" transform="translate(476.84 53.43) scale(0.99 1)">29</text><text class="cls-1" transform="translate(443.98 53.43) scale(0.99 1)">27</text><text class="cls-1" transform="translate(411.11 53.43) scale(0.99 1)">25</text><text class="cls-1" transform="translate(378.25 53.43) scale(0.99 1)">23</text><text class="cls-2" transform="translate(493.27 53.43) scale(0.99 1)">30</text><text class="cls-1" transform="translate(460.41 53.43) scale(0.99 1)">28</text><text class="cls-1" transform="translate(427.55 53.43) scale(0.99 1)">26</text><text class="cls-1" transform="translate(394.68 53.43) scale(0.99 1)">24</text><text class="cls-2" transform="translate(328.96 53.43) scale(0.99 1)">20</text><text class="cls-1" transform="translate(345.39 53.43) scale(0.99 1)">21</text><text class="cls-1" transform="translate(296.1 53.43) scale(0.99 1)">18</text><text class="cls-1" transform="translate(246.8 53.43) scale(0.99 1)">15</text><text class="cls-1" transform="translate(312.53 53.43) scale(0.99 1)">19</text><text class="cls-1" transform="translate(263.23 53.43) scale(0.99 1)">16</text><text class="cls-1" transform="translate(213.94 53.43) scale(0.99 1)">13</text><text class="cls-2" transform="translate(164.65 53.43) scale(0.99 1)">10</text><text class="cls-1" transform="translate(230.37 53.43) scale(0.99 1)">14</text><text class="cls-1" transform="translate(181.08 53.43) scale(0.99 1)">11</text><text class="cls-1" transform="translate(151.19 53.43) scale(0.99 1)">9</text><text class="cls-1" transform="translate(118.33 53.43) scale(0.99 1)">7</text><text class="cls-1" transform="translate(85.47 53.43) scale(0.99 1)">5</text><text class="cls-1" transform="translate(52.61 53.43) scale(0.99 1)">3</text><text class="cls-2" transform="translate(3.31 53.43) scale(0.99 1)">0</text><text class="cls-1" transform="translate(19.75 53.43) scale(0.99 1)">1</text><text class="cls-1" transform="translate(134.76 53.43) scale(0.99 1)">8</text><text class="cls-1" transform="translate(101.9 53.43) scale(0.99 1)">6</text><text class="cls-1" transform="translate(69.04 53.43) scale(0.99 1)">4</text><text class="cls-1" transform="translate(36.18 53.43) scale(0.99 1)">2</text><text class="cls-1" transform="translate(197.51 53.43) scale(0.99 1)">12</text><text class="cls-1" transform="translate(279.67 53.43) scale(0.99 1)">17</text><text class="cls-1" transform="translate(361.82 53.43) scale(0.99 1)">22</text><rect class="cls-3" x="5.38" y="36.21" width="576.9" height="2.44"/><rect class="cls-3" x="580.47" y="18.71" width="1.8" height="19.93" rx="0.9" ry="0.9"/><rect class="cls-3" x="564.04" y="26.59" width="1.8" height="12.06" rx="0.9" ry="0.9"/><rect class="cls-3" x="547.61" y="26.59" width="1.8" height="12.06" rx="0.9" ry="0.9"/><rect class="cls-3" x="531.18" y="26.59" width="1.8" height="12.06" rx="0.9" ry="0.9"/><rect class="cls-3" x="514.75" y="26.59" width="1.8" height="12.06" rx="0.9" ry="0.9"/><rect class="cls-3" x="498.31" y="18.71" width="1.8" height="19.93" rx="0.9" ry="0.9"/><rect class="cls-3" x="481.88" y="26.59" width="1.8" height="12.06" rx="0.9" ry="0.9"/><rect class="cls-3" x="465.45" y="26.59" width="1.8" height="12.06" rx="0.9" ry="0.9"/><rect class="cls-3" x="449.02" y="26.59" width="1.8" height="12.06" rx="0.9" ry="0.9"/><rect class="cls-3" x="432.59" y="26.59" width="1.8" height="12.06" rx="0.9" ry="0.9"/><rect class="cls-3" x="416.16" y="18.71" width="1.8" height="19.93" rx="0.9" ry="0.9"/><rect class="cls-3" x="399.73" y="26.59" width="1.8" height="12.06" rx="0.9" ry="0.9"/><rect class="cls-3" x="383.3" y="26.59" width="1.8" height="12.06" rx="0.9" ry="0.9"/><rect class="cls-3" x="366.87" y="26.59" width="1.8" height="12.06" rx="0.9" ry="0.9"/><rect class="cls-3" x="350.44" y="26.59" width="1.8" height="12.06" rx="0.9" ry="0.9"/><rect class="cls-3" x="301.14" y="26.59" width="1.8" height="12.06" rx="0.9" ry="0.9"/><rect class="cls-3" x="284.71" y="26.59" width="1.8" height="12.06" rx="0.9" ry="0.9"/><rect class="cls-3" x="268.28" y="26.59" width="1.8" height="12.06" rx="0.9" ry="0.9"/><rect class="cls-3" x="251.85" y="18.71" width="1.8" height="19.93" rx="0.9" ry="0.9"/><rect class="cls-3" x="235.42" y="26.59" width="1.8" height="12.06" rx="0.9" ry="0.9"/><rect class="cls-3" x="218.99" y="26.59" width="1.8" height="12.06" rx="0.9" ry="0.9"/><rect class="cls-3" x="202.56" y="26.59" width="1.8" height="12.06" rx="0.9" ry="0.9"/><rect class="cls-3" x="186.13" y="26.59" width="1.8" height="12.06" rx="0.9" ry="0.9"/><rect class="cls-3" x="169.69" y="18.71" width="1.8" height="19.93" rx="0.9" ry="0.9"/><rect class="cls-3" x="153.26" y="26.59" width="1.8" height="12.06" rx="0.9" ry="0.9"/><rect class="cls-3" x="136.83" y="26.59" width="1.8" height="12.06" rx="0.9" ry="0.9"/><rect class="cls-3" x="120.4" y="26.59" width="1.8" height="12.06" rx="0.9" ry="0.9"/><rect class="cls-3" x="103.97" y="26.59" width="1.8" height="12.06" rx="0.9" ry="0.9"/><rect class="cls-3" x="87.54" y="18.71" width="1.8" height="19.93" rx="0.9" ry="0.9"/><rect class="cls-3" x="71.11" y="26.59" width="1.8" height="12.06" rx="0.9" ry="0.9"/><rect class="cls-3" x="54.68" y="26.59" width="1.8" height="12.06" rx="0.9" ry="0.9"/><rect class="cls-3" x="38.25" y="26.59" width="1.8" height="12.06" rx="0.9" ry="0.9"/><rect class="cls-3" x="21.81" y="26.59" width="1.8" height="12.06" rx="0.9" ry="0.9"/><rect class="cls-3" x="5.38" y="18.71" width="1.8" height="19.93" rx="0.9" ry="0.9"/><rect class="cls-3" x="317.57" y="26.59" width="1.8" height="12.06" rx="0.9" ry="0.9"/><path class="cls-4" d="M8.12,19.19c-.67,0-1.22-.38-1.22-.85,0-1.76,1-3.48,3.06-5.12a1.61,1.61,0,0,1,1.72-.09.69.69,0,0,1,.12,1.2c-1.64,1.32-2.47,2.67-2.47,4C9.33,18.81,8.79,19.19,8.12,19.19Zm160.64,0h0c-.67,0-1.22-.38-1.21-.85a3.44,3.44,0,0,0-.22-1.2c-.17-.45.23-.92.88-1a1.32,1.32,0,0,1,1.48.61,4.66,4.66,0,0,1,.29,1.62C170,18.81,169.43,19.19,168.76,19.19Zm-4.2-5.59a1.54,1.54,0,0,1-.83-.23,32.46,32.46,0,0,0-5.72-2.8c-.59-.23-.8-.75-.47-1.16a1.53,1.53,0,0,1,1.66-.33,35,35,0,0,1,6.18,3,.68.68,0,0,1,.07,1.2A1.5,1.5,0,0,1,164.56,13.59ZM16.49,11.4a1.4,1.4,0,0,1-1-.4c-.36-.4-.18-.92.38-1.17a61.86,61.86,0,0,1,6.63-2.41,1.46,1.46,0,0,1,1.6.44c.27.43,0,.93-.63,1.12a58.69,58.69,0,0,0-6.31,2.29A1.62,1.62,0,0,1,16.49,11.4ZM152,8.5a1.7,1.7,0,0,1-.45-.06c-2.09-.59-4.37-1.15-6.79-1.68-.64-.14-1-.61-.8-1.06a1.37,1.37,0,0,1,1.52-.56c2.48.54,4.82,1.12,7,1.72.62.18.92.67.67,1.1A1.3,1.3,0,0,1,152,8.5ZM29.78,7.24a1.26,1.26,0,0,1-1.15-.58c-.21-.45.13-.92.77-1.07,2.21-.51,4.59-1,7.07-1.46A1.32,1.32,0,0,1,38,4.73c.17.45-.22.92-.87,1-2.44.45-4.77.93-6.92,1.43A1.69,1.69,0,0,1,29.78,7.24Zm108.33-1.8-.29,0c-2.25-.39-4.63-.75-7.07-1.08-.66-.09-1.09-.54-1-1a1.26,1.26,0,0,1,1.43-.67c2.48.34,4.9.71,7.19,1.1.65.11,1.05.57.89,1A1.21,1.21,0,0,1,138.11,5.44ZM43.88,4.63A1.19,1.19,0,0,1,42.69,4c-.14-.46.29-.91.94-1q3.49-.51,7.23-.94a1.23,1.23,0,0,1,1.4.7c.11.46-.34.9-1,1q-3.68.42-7.12.92Zm79.9-1.16h-.19q-3.5-.37-7.19-.67c-.67-.05-1.14-.48-1.07-.94a1.19,1.19,0,0,1,1.35-.74q3.73.3,7.28.68c.66.07,1.12.5,1,1A1.16,1.16,0,0,1,123.78,3.48ZM58.28,3a1.15,1.15,0,0,1-1.21-.74c-.08-.46.39-.89,1.05-.95Q61.7,1,65.43.72c.7,0,1.26.3,1.32.77s-.43.88-1.1.92Q62,2.65,58.44,3Zm51-.68h-.1q-3.56-.21-7.24-.34c-.67,0-1.19-.42-1.15-.89s.6-.83,1.28-.8q3.72.14,7.32.35c.67,0,1.17.45,1.11.92S109.91,2.29,109.29,2.29ZM72.82,2c-.64,0-1.17-.35-1.21-.8s.47-.87,1.14-.9Q76.35.18,80.07.09c.58-.06,1.23.35,1.25.82s-.5.86-1.18.88q-3.68.08-7.26.24Zm21.89-.28h0q-3.09-.05-6.24-.05h-1c-.67,0-1.22-.38-1.22-.85S86.73,0,87.41,0h1q3.18,0,6.3.05c.67,0,1.2.4,1.19.87S95.37,1.75,94.71,1.75Z"/><path class="cls-4" d="M172.45,19.19c-.67,0-1.22-.38-1.22-.85,0-1.76,1-3.48,3.06-5.12a1.61,1.61,0,0,1,1.72-.09.69.69,0,0,1,.12,1.2c-1.64,1.32-2.47,2.67-2.47,4C173.67,18.81,173.12,19.19,172.45,19.19Zm160.64,0h0c-.67,0-1.22-.38-1.21-.85a3.44,3.44,0,0,0-.22-1.2c-.17-.45.23-.92.88-1a1.32,1.32,0,0,1,1.48.61,4.66,4.66,0,0,1,.29,1.62C334.31,18.81,333.77,19.19,333.09,19.19Zm-4.2-5.59a1.54,1.54,0,0,1-.83-.23,32.46,32.46,0,0,0-5.72-2.8c-.59-.23-.8-.75-.47-1.16a1.53,1.53,0,0,1,1.66-.33,35,35,0,0,1,6.18,3,.68.68,0,0,1,.07,1.2A1.5,1.5,0,0,1,328.9,13.59ZM180.83,11.4a1.4,1.4,0,0,1-1-.4c-.36-.4-.18-.92.38-1.17a61.86,61.86,0,0,1,6.63-2.41,1.46,1.46,0,0,1,1.6.44c.27.43,0,.93-.63,1.12a58.69,58.69,0,0,0-6.31,2.29A1.62,1.62,0,0,1,180.83,11.4ZM316.35,8.5a1.7,1.7,0,0,1-.45-.06c-2.09-.59-4.37-1.15-6.79-1.68-.64-.14-1-.61-.8-1.06a1.37,1.37,0,0,1,1.52-.56c2.48.54,4.82,1.12,7,1.72.62.18.92.67.67,1.1A1.3,1.3,0,0,1,316.35,8.5ZM194.11,7.24A1.26,1.26,0,0,1,193,6.66c-.21-.45.13-.92.77-1.07,2.21-.51,4.59-1,7.07-1.46a1.32,1.32,0,0,1,1.48.61c.17.45-.22.92-.87,1-2.44.45-4.77.93-6.92,1.43A1.69,1.69,0,0,1,194.11,7.24Zm108.33-1.8-.29,0c-2.25-.39-4.63-.75-7.07-1.08-.66-.09-1.09-.54-1-1a1.26,1.26,0,0,1,1.43-.67c2.48.34,4.9.71,7.19,1.1.65.11,1.05.57.89,1A1.21,1.21,0,0,1,302.44,5.44Zm-94.22-.81A1.19,1.19,0,0,1,207,4c-.14-.46.29-.91.94-1q3.49-.51,7.23-.94a1.23,1.23,0,0,1,1.4.7c.11.46-.34.9-1,1q-3.68.42-7.12.92Zm79.9-1.16h-.19q-3.5-.37-7.19-.67c-.67-.05-1.14-.48-1.07-.94A1.19,1.19,0,0,1,281,1.11q3.73.3,7.28.68c.66.07,1.12.5,1,1A1.16,1.16,0,0,1,288.12,3.48ZM222.62,3a1.15,1.15,0,0,1-1.21-.74c-.08-.46.39-.89,1.05-.95Q226,1,229.76.72c.7,0,1.26.3,1.32.77s-.43.88-1.1.92q-3.69.24-7.22.55Zm51-.68h-.1q-3.56-.21-7.24-.34c-.67,0-1.19-.42-1.15-.89s.6-.83,1.28-.8q3.72.14,7.32.35c.67,0,1.17.45,1.11.92S274.25,2.29,273.62,2.29ZM237.15,2c-.64,0-1.17-.35-1.21-.8s.47-.87,1.14-.9q3.61-.16,7.33-.24c.58-.06,1.23.35,1.25.82s-.5.86-1.18.88q-3.68.08-7.26.24ZM259,1.75h0q-3.09-.05-6.24-.05h-1c-.67,0-1.22-.38-1.22-.85s.54-.85,1.21-.85h1q3.18,0,6.3.05c.67,0,1.2.4,1.19.87S259.7,1.75,259,1.75Z"/><path class="cls-4" d="M336.8,19.19c-.67,0-1.22-.38-1.22-.85,0-1.76,1-3.48,3.06-5.12a1.61,1.61,0,0,1,1.72-.09.69.69,0,0,1,.12,1.2c-1.64,1.32-2.47,2.67-2.47,4C338,18.81,337.47,19.19,336.8,19.19Zm160.64,0h0c-.67,0-1.22-.38-1.21-.85a3.44,3.44,0,0,0-.22-1.2c-.17-.45.23-.92.88-1a1.32,1.32,0,0,1,1.48.61,4.66,4.66,0,0,1,.29,1.62C498.65,18.81,498.11,19.19,497.44,19.19Zm-4.2-5.59a1.54,1.54,0,0,1-.83-.23,32.46,32.46,0,0,0-5.72-2.8c-.59-.23-.8-.75-.47-1.16a1.53,1.53,0,0,1,1.66-.33,35,35,0,0,1,6.18,3,.68.68,0,0,1,.07,1.2A1.5,1.5,0,0,1,493.24,13.59ZM345.17,11.4a1.4,1.4,0,0,1-1-.4c-.36-.4-.18-.92.38-1.17a61.86,61.86,0,0,1,6.63-2.41,1.46,1.46,0,0,1,1.6.44c.27.43,0,.93-.63,1.12a58.69,58.69,0,0,0-6.31,2.29A1.62,1.62,0,0,1,345.17,11.4ZM480.7,8.5a1.7,1.7,0,0,1-.45-.06c-2.09-.59-4.37-1.15-6.79-1.68-.64-.14-1-.61-.8-1.06a1.37,1.37,0,0,1,1.52-.56c2.48.54,4.82,1.12,7,1.72.62.18.92.67.67,1.1A1.3,1.3,0,0,1,480.7,8.5ZM358.46,7.24a1.26,1.26,0,0,1-1.15-.58c-.21-.45.13-.92.77-1.07,2.21-.51,4.59-1,7.07-1.46a1.32,1.32,0,0,1,1.48.61c.17.45-.22.92-.87,1-2.44.45-4.77.93-6.92,1.43A1.69,1.69,0,0,1,358.46,7.24Zm108.33-1.8-.29,0c-2.25-.39-4.63-.75-7.07-1.08-.66-.09-1.09-.54-1-1a1.26,1.26,0,0,1,1.43-.67c2.48.34,4.9.71,7.19,1.1.65.11,1.05.57.89,1A1.21,1.21,0,0,1,466.78,5.44Zm-94.22-.81A1.19,1.19,0,0,1,371.37,4c-.14-.46.29-.91.94-1q3.49-.51,7.23-.94a1.23,1.23,0,0,1,1.4.7c.11.46-.34.9-1,1q-3.68.42-7.12.92Zm79.9-1.16h-.19q-3.5-.37-7.19-.67c-.67-.05-1.14-.48-1.07-.94a1.19,1.19,0,0,1,1.35-.74q3.73.3,7.28.68c.66.07,1.12.5,1,1A1.16,1.16,0,0,1,452.46,3.48ZM387,3a1.15,1.15,0,0,1-1.21-.74c-.08-.46.39-.89,1.05-.95q3.57-.31,7.3-.56c.7,0,1.26.3,1.32.77s-.43.88-1.1.92q-3.69.24-7.22.55Zm51-.68h-.1q-3.56-.21-7.24-.34c-.67,0-1.19-.42-1.15-.89s.6-.83,1.28-.8q3.72.14,7.32.35c.67,0,1.17.45,1.11.92S438.59,2.29,438,2.29ZM401.5,2c-.64,0-1.17-.35-1.21-.8s.47-.87,1.14-.9Q405,.18,408.75.09c.58-.06,1.23.35,1.25.82s-.5.86-1.18.88q-3.68.08-7.26.24Zm21.89-.28h0q-3.09-.05-6.24-.05h-1c-.67,0-1.22-.38-1.22-.85s.54-.85,1.21-.85h1q3.18,0,6.3.05c.67,0,1.2.4,1.19.87S424,1.75,423.39,1.75Z"/><path class="cls-4" d="M558.31.72q-3.73.24-7.3.56c-.67.06-1.14.48-1.05.95a1.15,1.15,0,0,0,1.21.74h.15q3.53-.31,7.22-.55c.67,0,1.16-.46,1.1-.92S559,.68,558.31.72Z"/><path class="cls-4" d="M529.35,4.13c-2.49.46-4.87.95-7.07,1.46-.64.15-1,.63-.77,1.07a1.26,1.26,0,0,0,1.15.58,1.69,1.69,0,0,0,.38,0c2.16-.5,4.48-1,6.92-1.43.65-.12,1-.58.87-1A1.32,1.32,0,0,0,529.35,4.13Z"/><path class="cls-4" d="M543.74,2q-3.73.43-7.23.94c-.66.1-1.08.54-.94,1a1.19,1.19,0,0,0,1.19.68l.25,0q3.44-.5,7.13-.92c.66-.08,1.11-.51,1-1A1.23,1.23,0,0,0,543.74,2Z"/><path class="cls-4" d="M502.84,13.22c-2,1.64-3.06,3.36-3.06,5.12,0,.47.54.85,1.22.85s1.22-.38,1.22-.85c0-1.34.83-2.69,2.47-4a.69.69,0,0,0-.12-1.2A1.61,1.61,0,0,0,502.84,13.22Z"/><path class="cls-4" d="M573,.09q-3.71.08-7.33.24c-.67,0-1.18.43-1.14.9s.57.8,1.21.8h.08q3.57-.15,7.26-.24c.67,0,1.2-.41,1.18-.88S573.53,0,573,.09Z"/><path class="cls-4" d="M515.35,7.43a61.85,61.85,0,0,0-6.63,2.41c-.57.25-.74.77-.38,1.17a1.4,1.4,0,0,0,1,.4,1.62,1.62,0,0,0,.64-.13A58.69,58.69,0,0,1,516.33,9c.62-.19.9-.69.63-1.12A1.46,1.46,0,0,0,515.35,7.43Z"/><path class="cls-4" d="M582.3,0h-2c-.67,0-1.21.38-1.21.85s.55.85,1.22.85h2Z"/><rect class="cls-3" x="334" y="18.71" width="1.8" height="19.93" rx="0.9" ry="0.9"/><text class="cls-2" transform="translate(494.34 179.41) scale(0.99 1)">100</text><text class="cls-1" transform="translate(476.88 179.41) scale(0.99 1)">99</text><text class="cls-1" transform="translate(460.44 179.41) scale(0.99 1)">98</text><text class="cls-1" transform="translate(444.01 179.41) scale(0.99 1)">97</text><text class="cls-1" transform="translate(411.15 179.41) scale(0.99 1)">95</text><text class="cls-1" transform="translate(378.29 179.41) scale(0.99 1)">93</text><text class="cls-1" transform="translate(345.43 179.41) scale(0.99 1)">91</text><text class="cls-1" transform="translate(312.56 179.41) scale(0.99 1)">89</text><text class="cls-1" transform="translate(427.58 179.41) scale(0.99 1)">96</text><text class="cls-1" transform="translate(394.72 179.41) scale(0.99 1)">94</text><text class="cls-1" transform="translate(361.86 179.41) scale(0.99 1)">92</text><text class="cls-2" transform="translate(329 179.41) scale(0.99 1)">90</text><text class="cls-1" transform="translate(263.27 179.41) scale(0.99 1)">86</text><text class="cls-1" transform="translate(279.7 179.41) scale(0.99 1)">87</text><text class="cls-1" transform="translate(230.41 179.41) scale(0.99 1)">84</text><text class="cls-1" transform="translate(181.12 179.41) scale(0.99 1)">81</text><text class="cls-1" transform="translate(246.84 179.41) scale(0.99 1)">85</text><text class="cls-1" transform="translate(197.55 179.41) scale(0.99 1)">82</text><text class="cls-1" transform="translate(148.25 179.41) scale(0.99 1)">79</text><text class="cls-1" transform="translate(98.96 179.41) scale(0.99 1)">76</text><text class="cls-1" transform="translate(66.1 179.41) scale(0.99 1)">74</text><text class="cls-1" transform="translate(16.81 179.41) scale(0.99 1)">71</text><text class="cls-1" transform="translate(33.24 179.41) scale(0.99 1)">72</text><text class="cls-2" transform="translate(164.69 179.41) scale(0.99 1)">80</text><text class="cls-1" transform="translate(115.39 179.41) scale(0.99 1)">77</text><text class="cls-1" transform="translate(82.53 179.41) scale(0.99 1)">75</text><text class="cls-1" transform="translate(49.67 179.41) scale(0.99 1)">73</text><text class="cls-2" transform="translate(0.38 179.41) scale(0.99 1)">70</text><text class="cls-1" transform="translate(131.82 179.41) scale(0.99 1)">78</text><text class="cls-1" transform="translate(213.98 179.41) scale(0.99 1)">83</text><text class="cls-1" transform="translate(296.13 179.41) scale(0.99 1)">88</text><rect class="cls-3" x="5.38" y="162.21" width="495.08" height="2.44"/><rect class="cls-3" x="498.31" y="144.71" width="1.8" height="19.93" rx="0.9" ry="0.9"/><rect class="cls-3" x="481.88" y="152.59" width="1.8" height="12.06" rx="0.9" ry="0.9"/><rect class="cls-3" x="465.45" y="152.59" width="1.8" height="12.06" rx="0.9" ry="0.9"/><rect class="cls-3" x="449.02" y="152.59" width="1.8" height="12.06" rx="0.9" ry="0.9"/><rect class="cls-3" x="432.59" y="152.59" width="1.8" height="12.06" rx="0.9" ry="0.9"/><rect class="cls-3" x="416.16" y="144.71" width="1.8" height="19.93" rx="0.9" ry="0.9"/><rect class="cls-3" x="399.73" y="152.59" width="1.8" height="12.06" rx="0.9" ry="0.9"/><rect class="cls-3" x="383.3" y="152.59" width="1.8" height="12.06" rx="0.9" ry="0.9"/><rect class="cls-3" x="366.87" y="152.59" width="1.8" height="12.06" rx="0.9" ry="0.9"/><rect class="cls-3" x="350.44" y="152.59" width="1.8" height="12.06" rx="0.9" ry="0.9"/><rect class="cls-3" x="301.14" y="152.59" width="1.8" height="12.06" rx="0.9" ry="0.9"/><rect class="cls-3" x="284.71" y="152.59" width="1.8" height="12.06" rx="0.9" ry="0.9"/><rect class="cls-3" x="268.28" y="152.59" width="1.8" height="12.06" rx="0.9" ry="0.9"/><rect class="cls-3" x="251.85" y="144.71" width="1.8" height="19.93" rx="0.9" ry="0.9"/><rect class="cls-3" x="235.42" y="152.59" width="1.8" height="12.06" rx="0.9" ry="0.9"/><rect class="cls-3" x="218.99" y="152.59" width="1.8" height="12.06" rx="0.9" ry="0.9"/><rect class="cls-3" x="202.56" y="152.59" width="1.8" height="12.06" rx="0.9" ry="0.9"/><rect class="cls-3" x="186.13" y="152.59" width="1.8" height="12.06" rx="0.9" ry="0.9"/><rect class="cls-3" x="169.69" y="144.71" width="1.8" height="19.93" rx="0.9" ry="0.9"/><rect class="cls-3" x="153.26" y="152.59" width="1.8" height="12.06" rx="0.9" ry="0.9"/><rect class="cls-3" x="136.83" y="152.59" width="1.8" height="12.06" rx="0.9" ry="0.9"/><rect class="cls-3" x="120.4" y="152.59" width="1.8" height="12.06" rx="0.9" ry="0.9"/><rect class="cls-3" x="103.97" y="152.59" width="1.8" height="12.06" rx="0.9" ry="0.9"/><rect class="cls-3" x="87.54" y="144.71" width="1.8" height="19.93" rx="0.9" ry="0.9"/><rect class="cls-3" x="71.11" y="152.59" width="1.8" height="12.06" rx="0.9" ry="0.9"/><rect class="cls-3" x="54.68" y="152.59" width="1.8" height="12.06" rx="0.9" ry="0.9"/><rect class="cls-3" x="38.25" y="152.59" width="1.8" height="12.06" rx="0.9" ry="0.9"/><rect class="cls-3" x="21.81" y="152.59" width="1.8" height="12.06" rx="0.9" ry="0.9"/><rect class="cls-3" x="5.38" y="144.71" width="1.8" height="19.93" rx="0.9" ry="0.9"/><rect class="cls-3" x="317.57" y="152.59" width="1.8" height="12.06" rx="0.9" ry="0.9"/><path class="cls-4" d="M8.12,145.19a1.11,1.11,0,0,1-1.22-1c0-2,1-3.9,3.06-5.74a1.47,1.47,0,0,1,1.72-.1.82.82,0,0,1,.12,1.34c-1.64,1.48-2.47,3-2.47,4.5A1.11,1.11,0,0,1,8.12,145.19Zm160.64,0h0a1.11,1.11,0,0,1-1.21-1,4.28,4.28,0,0,0-.22-1.34c-.17-.51.23-1,.88-1.16a1.27,1.27,0,0,1,1.48.69,5.8,5.8,0,0,1,.29,1.82A1.11,1.11,0,0,1,168.76,145.19Zm-4.2-6.27a1.41,1.41,0,0,1-.83-.25,31.17,31.17,0,0,0-5.72-3.14.85.85,0,0,1-.47-1.3,1.41,1.41,0,0,1,1.66-.37,33.65,33.65,0,0,1,6.18,3.41.81.81,0,0,1,.07,1.35A1.39,1.39,0,0,1,164.56,138.91ZM16.49,136.46a1.33,1.33,0,0,1-1-.45.84.84,0,0,1,.38-1.31,57.68,57.68,0,0,1,6.63-2.7,1.37,1.37,0,0,1,1.6.49.89.89,0,0,1-.63,1.25,54.72,54.72,0,0,0-6.31,2.57A1.47,1.47,0,0,1,16.49,136.46ZM152,133.2a1.53,1.53,0,0,1-.45-.07c-2.09-.66-4.37-1.29-6.79-1.88-.64-.16-1-.69-.8-1.19a1.3,1.3,0,0,1,1.52-.63c2.48.6,4.82,1.25,7,1.93a.9.9,0,0,1,.67,1.24A1.26,1.26,0,0,1,152,133.2ZM29.78,131.79a1.23,1.23,0,0,1-1.15-.65c-.21-.5.13-1,.77-1.2,2.21-.58,4.59-1.13,7.07-1.64A1.27,1.27,0,0,1,38,129c.17.51-.22,1-.87,1.16-2.44.5-4.77,1-6.92,1.6A1.52,1.52,0,0,1,29.78,131.79Zm108.33-2a1.48,1.48,0,0,1-.29,0c-2.25-.43-4.63-.84-7.07-1.22-.66-.1-1.09-.6-1-1.12a1.23,1.23,0,0,1,1.43-.75c2.48.38,4.9.79,7.19,1.24.65.13,1.05.64.89,1.15A1.2,1.2,0,0,1,138.11,129.77Zm-94.22-.91a1.18,1.18,0,0,1-1.19-.76c-.14-.52.29-1,.94-1.13q3.49-.57,7.23-1.05a1.2,1.2,0,0,1,1.4.78c.11.52-.34,1-1,1.09q-3.68.47-7.12,1Zm79.9-1.3h-.19q-3.5-.42-7.19-.76c-.67-.06-1.14-.53-1.07-1.06a1.18,1.18,0,0,1,1.35-.83q3.73.34,7.28.77c.66.08,1.12.56,1,1.08A1.16,1.16,0,0,1,123.78,127.57ZM58.28,127a1.15,1.15,0,0,1-1.21-.83c-.08-.52.39-1,1.05-1.06q3.57-.35,7.3-.62a1.15,1.15,0,0,1,1.32.86c.06.52-.43,1-1.1,1q-3.69.27-7.22.62Zm51-.76h-.1q-3.56-.23-7.24-.39a1.08,1.08,0,0,1-1.15-1,1.13,1.13,0,0,1,1.28-.9q3.72.15,7.32.39c.67,0,1.17.5,1.11,1A1.14,1.14,0,0,1,109.29,126.24Zm-36.47-.3a1.13,1.13,0,0,1-1.21-.89c0-.53.47-1,1.14-1q3.61-.17,7.33-.27a1.15,1.15,0,0,1,1.25.92,1.09,1.09,0,0,1-1.18,1q-3.68.09-7.26.27Zm21.89-.31h0q-3.09-.06-6.24-.06h-1a1,1,0,1,1,0-1.9h1q3.18,0,6.3.06a1.09,1.09,0,0,1,1.19,1A1.12,1.12,0,0,1,94.71,125.63Z"/><path class="cls-4" d="M172.45,145.19a1.11,1.11,0,0,1-1.22-1c0-2,1-3.9,3.06-5.74a1.47,1.47,0,0,1,1.72-.1.82.82,0,0,1,.12,1.34c-1.64,1.48-2.47,3-2.47,4.5A1.11,1.11,0,0,1,172.45,145.19Zm160.64,0h0a1.11,1.11,0,0,1-1.21-1,4.28,4.28,0,0,0-.22-1.34c-.17-.51.23-1,.88-1.16a1.27,1.27,0,0,1,1.48.69,5.8,5.8,0,0,1,.29,1.82A1.11,1.11,0,0,1,333.09,145.19Zm-4.2-6.27a1.41,1.41,0,0,1-.83-.25,31.17,31.17,0,0,0-5.72-3.14.85.85,0,0,1-.47-1.3,1.41,1.41,0,0,1,1.66-.37,33.65,33.65,0,0,1,6.18,3.41.81.81,0,0,1,.07,1.35A1.39,1.39,0,0,1,328.9,138.91Zm-148.07-2.46a1.33,1.33,0,0,1-1-.45.84.84,0,0,1,.38-1.31,57.68,57.68,0,0,1,6.63-2.7,1.37,1.37,0,0,1,1.6.49.89.89,0,0,1-.63,1.25,54.72,54.72,0,0,0-6.31,2.57A1.47,1.47,0,0,1,180.83,136.46Zm135.52-3.26a1.53,1.53,0,0,1-.45-.07c-2.09-.66-4.37-1.29-6.79-1.88-.64-.16-1-.69-.8-1.19a1.3,1.3,0,0,1,1.52-.63c2.48.6,4.82,1.25,7,1.93a.9.9,0,0,1,.67,1.24A1.26,1.26,0,0,1,316.35,133.2Zm-122.24-1.41a1.23,1.23,0,0,1-1.15-.65c-.21-.5.13-1,.77-1.2,2.21-.58,4.59-1.13,7.07-1.64a1.27,1.27,0,0,1,1.48.68c.17.51-.22,1-.87,1.16-2.44.5-4.77,1-6.92,1.6A1.52,1.52,0,0,1,194.11,131.79Zm108.33-2a1.48,1.48,0,0,1-.29,0c-2.25-.43-4.63-.84-7.07-1.22-.66-.1-1.09-.6-1-1.12a1.23,1.23,0,0,1,1.43-.75c2.48.38,4.9.79,7.19,1.24.65.13,1.05.64.89,1.15A1.2,1.2,0,0,1,302.44,129.77Zm-94.22-.91a1.18,1.18,0,0,1-1.19-.76c-.14-.52.29-1,.94-1.13q3.49-.57,7.23-1.05a1.2,1.2,0,0,1,1.4.78c.11.52-.34,1-1,1.09q-3.68.47-7.12,1Zm79.9-1.3h-.19q-3.5-.42-7.19-.76c-.67-.06-1.14-.53-1.07-1.06a1.18,1.18,0,0,1,1.35-.83q3.73.34,7.28.77c.66.08,1.12.56,1,1.08A1.16,1.16,0,0,1,288.12,127.57Zm-65.5-.57a1.15,1.15,0,0,1-1.21-.83c-.08-.52.39-1,1.05-1.06q3.57-.35,7.3-.62a1.15,1.15,0,0,1,1.32.86c.06.52-.43,1-1.1,1q-3.69.27-7.22.62Zm51-.76h-.1q-3.56-.23-7.24-.39a1.08,1.08,0,0,1-1.15-1,1.13,1.13,0,0,1,1.28-.9q3.72.15,7.32.39c.67,0,1.17.5,1.11,1A1.14,1.14,0,0,1,273.62,126.24Zm-36.47-.3a1.13,1.13,0,0,1-1.21-.89c0-.53.47-1,1.14-1q3.61-.17,7.33-.27a1.15,1.15,0,0,1,1.25.92,1.09,1.09,0,0,1-1.18,1q-3.68.09-7.26.27Zm21.89-.31h0q-3.09-.06-6.24-.06h-1a1,1,0,1,1,0-1.9h1q3.18,0,6.3.06a1.09,1.09,0,0,1,1.19,1A1.12,1.12,0,0,1,259,125.63Z"/><path class="cls-4" d="M336.8,145.19a1.11,1.11,0,0,1-1.22-1c0-2,1-3.9,3.06-5.74a1.47,1.47,0,0,1,1.72-.1.82.82,0,0,1,.12,1.34c-1.64,1.48-2.47,3-2.47,4.5A1.11,1.11,0,0,1,336.8,145.19Zm160.64,0h0a1.11,1.11,0,0,1-1.21-1,4.28,4.28,0,0,0-.22-1.34c-.17-.51.23-1,.88-1.16a1.27,1.27,0,0,1,1.48.69,5.8,5.8,0,0,1,.29,1.82A1.11,1.11,0,0,1,497.44,145.19Zm-4.2-6.27a1.41,1.41,0,0,1-.83-.25,31.17,31.17,0,0,0-5.72-3.14.85.85,0,0,1-.47-1.3,1.41,1.41,0,0,1,1.66-.37,33.65,33.65,0,0,1,6.18,3.41.81.81,0,0,1,.07,1.35A1.39,1.39,0,0,1,493.24,138.91Zm-148.07-2.46a1.33,1.33,0,0,1-1-.45.84.84,0,0,1,.38-1.31,57.68,57.68,0,0,1,6.63-2.7,1.37,1.37,0,0,1,1.6.49.89.89,0,0,1-.63,1.25,54.72,54.72,0,0,0-6.31,2.57A1.47,1.47,0,0,1,345.17,136.46ZM480.7,133.2a1.53,1.53,0,0,1-.45-.07c-2.09-.66-4.37-1.29-6.79-1.88-.64-.16-1-.69-.8-1.19a1.3,1.3,0,0,1,1.52-.63c2.48.6,4.82,1.25,7,1.93a.9.9,0,0,1,.67,1.24A1.26,1.26,0,0,1,480.7,133.2Zm-122.24-1.41a1.23,1.23,0,0,1-1.15-.65c-.21-.5.13-1,.77-1.2,2.21-.58,4.59-1.13,7.07-1.64a1.27,1.27,0,0,1,1.48.68c.17.51-.22,1-.87,1.16-2.44.5-4.77,1-6.92,1.6A1.52,1.52,0,0,1,358.46,131.79Zm108.33-2a1.48,1.48,0,0,1-.29,0c-2.25-.43-4.63-.84-7.07-1.22-.66-.1-1.09-.6-1-1.12a1.23,1.23,0,0,1,1.43-.75c2.48.38,4.9.79,7.19,1.24.65.13,1.05.64.89,1.15A1.2,1.2,0,0,1,466.78,129.77Zm-94.22-.91a1.18,1.18,0,0,1-1.19-.76c-.14-.52.29-1,.94-1.13q3.49-.57,7.23-1.05a1.2,1.2,0,0,1,1.4.78c.11.52-.34,1-1,1.09q-3.68.47-7.12,1Zm79.9-1.3h-.19q-3.5-.42-7.19-.76c-.67-.06-1.14-.53-1.07-1.06a1.18,1.18,0,0,1,1.35-.83q3.73.34,7.28.77c.66.08,1.12.56,1,1.08A1.16,1.16,0,0,1,452.46,127.57ZM387,127a1.15,1.15,0,0,1-1.21-.83c-.08-.52.39-1,1.05-1.06q3.57-.35,7.3-.62a1.15,1.15,0,0,1,1.32.86c.06.52-.43,1-1.1,1q-3.69.27-7.22.62Zm51-.76h-.1q-3.56-.23-7.24-.39a1.08,1.08,0,0,1-1.15-1,1.13,1.13,0,0,1,1.28-.9q3.72.15,7.32.39c.67,0,1.17.5,1.11,1A1.14,1.14,0,0,1,438,126.24Zm-36.47-.3a1.13,1.13,0,0,1-1.21-.89c0-.53.47-1,1.14-1q3.61-.17,7.33-.27a1.15,1.15,0,0,1,1.25.92,1.09,1.09,0,0,1-1.18,1q-3.68.09-7.26.27Zm21.89-.31h0q-3.09-.06-6.24-.06h-1a1,1,0,1,1,0-1.9h1q3.18,0,6.3.06a1.09,1.09,0,0,1,1.19,1A1.12,1.12,0,0,1,423.39,125.63Z"/><rect class="cls-3" x="334" y="144.71" width="1.8" height="19.93" rx="0.9" ry="0.9"/><text class="cls-2" transform="translate(575.43 116.41) scale(0.99 1)">70</text><text class="cls-1" transform="translate(542.56 116.46) scale(0.99 1)">68</text><text class="cls-1" transform="translate(558.99 116.46) scale(0.99 1)">69</text><text class="cls-1" transform="translate(526.13 116.46) scale(0.99 1)">67</text><text class="cls-1" transform="translate(509.7 116.46) scale(0.99 1)">66</text><text class="cls-1" transform="translate(476.84 116.46) scale(0.99 1)">64</text><text class="cls-1" transform="translate(443.98 116.46) scale(0.99 1)">62</text><text class="cls-2" transform="translate(411.11 116.46) scale(0.99 1)">60</text><text class="cls-1" transform="translate(378.25 116.46) scale(0.99 1)">58</text><text class="cls-1" transform="translate(493.27 116.46) scale(0.99 1)">65</text><text class="cls-1" transform="translate(460.41 116.46) scale(0.99 1)">63</text><text class="cls-1" transform="translate(427.55 116.46) scale(0.99 1)">61</text><text class="cls-1" transform="translate(394.68 116.46) scale(0.99 1)">59</text><text class="cls-1" transform="translate(328.96 116.46) scale(0.99 1)">55</text><text class="cls-1" transform="translate(345.39 116.46) scale(0.99 1)">56</text><text class="cls-1" transform="translate(296.1 116.46) scale(0.99 1)">53</text><text class="cls-2" transform="translate(246.8 116.46) scale(0.99 1)">50</text><text class="cls-1" transform="translate(312.53 116.46) scale(0.99 1)">54</text><text class="cls-1" transform="translate(263.23 116.46) scale(0.99 1)">51</text><text class="cls-1" transform="translate(213.94 116.46) scale(0.99 1)">48</text><text class="cls-1" transform="translate(164.65 116.46) scale(0.99 1)">45</text><text class="cls-1" transform="translate(131.79 116.46) scale(0.99 1)">43</text><text class="cls-2" transform="translate(82.49 116.46) scale(0.99 1)">40</text><text class="cls-1" transform="translate(49.63 116.46) scale(0.99 1)">38</text><text class="cls-1" transform="translate(16.77 116.46) scale(0.99 1)">36</text><text class="cls-1" transform="translate(98.92 116.46) scale(0.99 1)">41</text><text class="cls-1" transform="translate(230.37 116.46) scale(0.99 1)">49</text><text class="cls-1" transform="translate(181.08 116.46) scale(0.99 1)">46</text><text class="cls-1" transform="translate(148.22 116.46) scale(0.99 1)">44</text><text class="cls-1" transform="translate(115.36 116.46) scale(0.99 1)">42</text><text class="cls-1" transform="translate(66.06 116.46) scale(0.99 1)">39</text><text class="cls-1" transform="translate(33.2 116.46) scale(0.99 1)">37</text><text class="cls-1" transform="translate(0.34 116.46) scale(0.99 1)">35</text><text class="cls-1" transform="translate(197.51 116.46) scale(0.99 1)">47</text><text class="cls-1" transform="translate(279.67 116.46) scale(0.99 1)">52</text><text class="cls-1" transform="translate(361.82 116.46) scale(0.99 1)">57</text><rect class="cls-3" x="5.4" y="99.22" width="576.9" height="2.44"/><rect class="cls-3" x="5.41" y="81.73" width="1.8" height="19.93" rx="0.9" ry="0.9"/><rect class="cls-3" x="21.84" y="89.6" width="1.8" height="12.06" rx="0.9" ry="0.9"/><rect class="cls-3" x="38.27" y="89.6" width="1.8" height="12.06" rx="0.9" ry="0.9"/><rect class="cls-3" x="54.7" y="89.6" width="1.8" height="12.06" rx="0.9" ry="0.9"/><rect class="cls-3" x="71.13" y="89.6" width="1.8" height="12.06" rx="0.9" ry="0.9"/><rect class="cls-3" x="87.56" y="81.73" width="1.8" height="19.93" rx="0.9" ry="0.9"/><rect class="cls-3" x="103.99" y="89.6" width="1.8" height="12.06" rx="0.9" ry="0.9"/><rect class="cls-3" x="120.43" y="89.6" width="1.8" height="12.06" rx="0.9" ry="0.9"/><rect class="cls-3" x="136.86" y="89.6" width="1.8" height="12.06" rx="0.9" ry="0.9"/><rect class="cls-3" x="153.29" y="89.6" width="1.8" height="12.06" rx="0.9" ry="0.9"/><rect class="cls-3" x="169.72" y="81.73" width="1.8" height="19.93" rx="0.9" ry="0.9"/><rect class="cls-3" x="186.15" y="89.6" width="1.8" height="12.06" rx="0.9" ry="0.9"/><rect class="cls-3" x="202.58" y="89.6" width="1.8" height="12.06" rx="0.9" ry="0.9"/><rect class="cls-3" x="219.01" y="89.6" width="1.8" height="12.06" rx="0.9" ry="0.9"/><rect class="cls-3" x="235.44" y="89.6" width="1.8" height="12.06" rx="0.9" ry="0.9"/><rect class="cls-3" x="284.74" y="89.6" width="1.8" height="12.06" rx="0.9" ry="0.9"/><rect class="cls-3" x="301.17" y="89.6" width="1.8" height="12.06" rx="0.9" ry="0.9"/><rect class="cls-3" x="317.6" y="89.6" width="1.8" height="12.06" rx="0.9" ry="0.9"/><rect class="cls-3" x="334.03" y="81.73" width="1.8" height="19.93" rx="0.9" ry="0.9"/><rect class="cls-3" x="350.46" y="89.6" width="1.8" height="12.06" rx="0.9" ry="0.9"/><rect class="cls-3" x="366.89" y="89.6" width="1.8" height="12.06" rx="0.9" ry="0.9"/><rect class="cls-3" x="383.32" y="89.6" width="1.8" height="12.06" rx="0.9" ry="0.9"/><rect class="cls-3" x="399.75" y="89.6" width="1.8" height="12.06" rx="0.9" ry="0.9"/><rect class="cls-3" x="416.18" y="81.73" width="1.8" height="19.93" rx="0.9" ry="0.9"/><rect class="cls-3" x="432.62" y="89.6" width="1.8" height="12.06" rx="0.9" ry="0.9"/><rect class="cls-3" x="449.05" y="89.6" width="1.8" height="12.06" rx="0.9" ry="0.9"/><rect class="cls-3" x="465.48" y="89.6" width="1.8" height="12.06" rx="0.9" ry="0.9"/><rect class="cls-3" x="481.91" y="89.6" width="1.8" height="12.06" rx="0.9" ry="0.9"/><rect class="cls-3" x="498.34" y="81.73" width="1.8" height="19.93" rx="0.9" ry="0.9"/><rect class="cls-3" x="514.77" y="89.6" width="1.8" height="12.06" rx="0.9" ry="0.9"/><rect class="cls-3" x="531.2" y="89.6" width="1.8" height="12.06" rx="0.9" ry="0.9"/><rect class="cls-3" x="547.63" y="89.6" width="1.8" height="12.06" rx="0.9" ry="0.9"/><rect class="cls-3" x="564.06" y="89.6" width="1.8" height="12.06" rx="0.9" ry="0.9"/><rect class="cls-3" x="580.49" y="81.73" width="1.8" height="19.93" rx="0.9" ry="0.9"/><rect class="cls-3" x="268.31" y="89.6" width="1.8" height="12.06" rx="0.9" ry="0.9"/><path class="cls-4" d="M578.34,81.29c0-1.44-.83-2.9-2.47-4.33a.77.77,0,0,1,.12-1.29,1.51,1.51,0,0,1,1.72.09c2,1.77,3.06,3.63,3.06,5.52,0,.51-.54.92-1.22.92S578.34,81.79,578.34,81.29Zm-160.64,0a5.38,5.38,0,0,1,.29-1.75,1.29,1.29,0,0,1,1.48-.66c.65.13,1,.62.88,1.11a4,4,0,0,0-.22,1.29c0,.51-.54.92-1.21.92h0C418.25,82.2,417.7,81.79,417.7,81.29Zm4.52-5.42a.77.77,0,0,1,.07-1.29,34.06,34.06,0,0,1,6.18-3.28,1.45,1.45,0,0,1,1.66.35.81.81,0,0,1-.47,1.25,31.56,31.56,0,0,0-5.72,3,1.45,1.45,0,0,1-.83.24A1.43,1.43,0,0,1,422.22,75.87Zm148.32-2.21a56,56,0,0,0-6.31-2.47c-.62-.2-.9-.74-.63-1.21a1.4,1.4,0,0,1,1.6-.47,59,59,0,0,1,6.63,2.6.8.8,0,0,1,.38,1.26,1.35,1.35,0,0,1-1,.43A1.52,1.52,0,0,1,570.54,73.66Zm-136-3.57c-.25-.47,0-1,.67-1.19,2.15-.65,4.5-1.28,7-1.86a1.32,1.32,0,0,1,1.52.6c.2.48-.16,1-.8,1.15-2.41.57-4.7,1.17-6.79,1.81a1.58,1.58,0,0,1-.45.07A1.27,1.27,0,0,1,434.53,70.1Zm123-.83c-2.16-.54-4.48-1.06-6.92-1.54-.65-.13-1-.63-.87-1.12a1.29,1.29,0,0,1,1.48-.65c2.49.49,4.87,1,7.07,1.58.64.16,1,.68.77,1.16a1.24,1.24,0,0,1-1.15.63A1.57,1.57,0,0,1,557.52,69.26ZM448.39,66.67c-.16-.49.24-1,.89-1.11,2.29-.42,4.71-.82,7.19-1.19a1.24,1.24,0,0,1,1.43.72c.13.5-.3,1-1,1.07-2.44.36-4.82.75-7.07,1.17l-.29,0A1.2,1.2,0,0,1,448.39,66.67Zm95.15-.19q-3.44-.54-7.12-1c-.66-.08-1.11-.55-1-1.05a1.21,1.21,0,0,1,1.4-.75q3.73.46,7.23,1c.66.1,1.08.59.94,1.08a1.19,1.19,0,0,1-1.19.73Zm-80.85-2c-.1-.5.35-1,1-1q3.55-.41,7.28-.74a1.18,1.18,0,0,1,1.35.8c.08.5-.4,1-1.07,1q-3.69.32-7.19.73h-.19A1.16,1.16,0,0,1,462.69,64.48Zm66.55.22q-3.53-.34-7.22-.59c-.67,0-1.16-.49-1.1-1a1.15,1.15,0,0,1,1.32-.83q3.73.26,7.3.6c.67.06,1.14.52,1.05,1a1.15,1.15,0,0,1-1.21.8Zm-52.06-1.56c-.06-.5.44-.95,1.11-1q3.6-.23,7.32-.38a1.13,1.13,0,0,1,1.28.87c0,.51-.48.94-1.15,1q-3.68.15-7.24.37h-.1A1.13,1.13,0,0,1,477.18,63.14Zm37.6.55q-3.57-.16-7.26-.26c-.67,0-1.2-.44-1.18-.94a1.14,1.14,0,0,1,1.25-.89q3.71.09,7.33.26c.67,0,1.18.47,1.14,1a1.12,1.12,0,0,1-1.21.86Zm-23-1.19c0-.51.52-.93,1.19-.94q3.12-.06,6.3-.06h1c.67,0,1.21.41,1.21.92s-.55.91-1.22.91h-1q-3.15,0-6.24.06h0A1.11,1.11,0,0,1,491.75,62.49Z"/><path class="cls-4" d="M414,81.29c0-1.44-.83-2.9-2.47-4.33a.77.77,0,0,1,.12-1.29,1.51,1.51,0,0,1,1.72.09c2,1.77,3.06,3.63,3.06,5.52,0,.51-.54.92-1.22.92S414,81.79,414,81.29Zm-160.64,0a5.38,5.38,0,0,1,.29-1.75,1.29,1.29,0,0,1,1.48-.66c.65.13,1,.62.88,1.11a4,4,0,0,0-.22,1.29c0,.51-.54.92-1.21.92h0C253.91,82.2,253.37,81.79,253.37,81.29Zm4.52-5.42a.77.77,0,0,1,.07-1.29,34.06,34.06,0,0,1,6.18-3.28,1.45,1.45,0,0,1,1.66.35.81.81,0,0,1-.47,1.25,31.56,31.56,0,0,0-5.72,3,1.45,1.45,0,0,1-.83.24A1.43,1.43,0,0,1,257.89,75.87Zm148.32-2.21a56,56,0,0,0-6.31-2.47c-.62-.2-.9-.74-.63-1.21a1.4,1.4,0,0,1,1.6-.47,59,59,0,0,1,6.63,2.6.8.8,0,0,1,.38,1.26,1.35,1.35,0,0,1-1,.43A1.52,1.52,0,0,1,406.21,73.66Zm-136-3.57c-.25-.47,0-1,.67-1.19,2.15-.65,4.5-1.28,7-1.86a1.32,1.32,0,0,1,1.52.6c.2.48-.16,1-.8,1.15-2.41.57-4.7,1.17-6.79,1.81a1.58,1.58,0,0,1-.45.07A1.27,1.27,0,0,1,270.2,70.1Zm123-.83c-2.16-.54-4.48-1.06-6.92-1.54-.65-.13-1-.63-.87-1.12a1.29,1.29,0,0,1,1.48-.65c2.49.49,4.87,1,7.07,1.58.64.16,1,.68.77,1.16a1.24,1.24,0,0,1-1.15.63A1.57,1.57,0,0,1,393.18,69.26ZM284.06,66.67c-.16-.49.24-1,.89-1.11,2.29-.42,4.71-.82,7.19-1.19a1.24,1.24,0,0,1,1.43.72c.13.5-.3,1-1,1.07-2.44.36-4.82.75-7.07,1.17l-.29,0A1.2,1.2,0,0,1,284.06,66.67Zm95.15-.19q-3.44-.54-7.12-1c-.66-.08-1.11-.55-1-1.05a1.21,1.21,0,0,1,1.4-.75q3.73.46,7.23,1c.66.1,1.08.59.94,1.08a1.19,1.19,0,0,1-1.19.73Zm-80.85-2c-.1-.5.35-1,1-1q3.55-.41,7.28-.74a1.18,1.18,0,0,1,1.35.8c.08.5-.4,1-1.07,1q-3.69.32-7.19.73h-.19A1.16,1.16,0,0,1,298.36,64.48Zm66.55.22q-3.53-.34-7.22-.59c-.67,0-1.16-.49-1.1-1a1.15,1.15,0,0,1,1.32-.83q3.73.26,7.3.6c.67.06,1.14.52,1.05,1a1.15,1.15,0,0,1-1.21.8Zm-52.06-1.56c-.06-.5.44-.95,1.11-1q3.6-.23,7.32-.38a1.13,1.13,0,0,1,1.28.87c0,.51-.48.94-1.15,1q-3.68.15-7.24.37h-.1A1.13,1.13,0,0,1,312.85,63.14Zm37.6.55q-3.57-.16-7.26-.26c-.67,0-1.2-.44-1.18-.94a1.14,1.14,0,0,1,1.25-.89q3.71.09,7.33.26c.67,0,1.18.47,1.14,1a1.12,1.12,0,0,1-1.21.86Zm-23-1.19c0-.51.52-.93,1.19-.94q3.12-.06,6.3-.06h1c.67,0,1.21.41,1.21.92s-.55.91-1.22.91h-1q-3.15,0-6.24.06h0A1.11,1.11,0,0,1,327.42,62.49Z"/><path class="cls-4" d="M249.67,81.29c0-1.44-.83-2.9-2.47-4.33a.77.77,0,0,1,.12-1.29,1.51,1.51,0,0,1,1.72.09c2,1.77,3.06,3.63,3.06,5.52,0,.51-.54.92-1.22.92S249.67,81.79,249.67,81.29ZM89,81.29a5.38,5.38,0,0,1,.29-1.75,1.29,1.29,0,0,1,1.48-.66c.65.13,1,.62.88,1.11a4,4,0,0,0-.22,1.29c0,.51-.54.92-1.21.92h0C89.57,82.2,89,81.79,89,81.29Zm4.52-5.42a.77.77,0,0,1,.07-1.29A34.06,34.06,0,0,1,99.8,71.3a1.45,1.45,0,0,1,1.66.35A.81.81,0,0,1,101,72.9a31.56,31.56,0,0,0-5.72,3,1.45,1.45,0,0,1-.83.24A1.43,1.43,0,0,1,93.55,75.87Zm148.32-2.21a56,56,0,0,0-6.31-2.47c-.62-.2-.9-.74-.63-1.21a1.4,1.4,0,0,1,1.6-.47,59,59,0,0,1,6.63,2.6.8.8,0,0,1,.38,1.26,1.35,1.35,0,0,1-1,.43A1.52,1.52,0,0,1,241.86,73.66Zm-136-3.57c-.25-.47,0-1,.67-1.19,2.15-.65,4.5-1.28,7-1.86a1.32,1.32,0,0,1,1.52.6c.2.48-.16,1-.8,1.15-2.41.57-4.7,1.17-6.79,1.81a1.58,1.58,0,0,1-.45.07A1.27,1.27,0,0,1,105.86,70.1Zm123-.83c-2.16-.54-4.48-1.06-6.92-1.54-.65-.13-1-.63-.87-1.12a1.29,1.29,0,0,1,1.48-.65c2.49.49,4.87,1,7.07,1.58.64.16,1,.68.77,1.16a1.24,1.24,0,0,1-1.15.63A1.57,1.57,0,0,1,228.84,69.26ZM119.72,66.67c-.16-.49.24-1,.89-1.11,2.29-.42,4.71-.82,7.19-1.19a1.24,1.24,0,0,1,1.43.72c.13.5-.3,1-1,1.07-2.44.36-4.82.75-7.07,1.17l-.29,0A1.2,1.2,0,0,1,119.72,66.67Zm95.15-.19q-3.44-.54-7.12-1c-.66-.08-1.11-.55-1-1.05a1.21,1.21,0,0,1,1.4-.75q3.73.46,7.23,1c.66.1,1.08.59.94,1.08a1.19,1.19,0,0,1-1.19.73Zm-80.85-2c-.1-.5.35-1,1-1q3.55-.41,7.28-.74a1.18,1.18,0,0,1,1.35.8c.08.5-.4,1-1.07,1q-3.69.32-7.19.73h-.19A1.16,1.16,0,0,1,134,64.48Zm66.55.22q-3.53-.34-7.22-.59c-.67,0-1.16-.49-1.1-1a1.15,1.15,0,0,1,1.32-.83q3.73.26,7.3.6c.67.06,1.14.52,1.05,1a1.15,1.15,0,0,1-1.21.8Zm-52.06-1.56c-.06-.5.44-.95,1.11-1q3.6-.23,7.32-.38a1.13,1.13,0,0,1,1.28.87c0,.51-.48.94-1.15,1q-3.68.15-7.24.37h-.1A1.13,1.13,0,0,1,148.51,63.14Zm37.6.55q-3.57-.16-7.26-.26c-.67,0-1.2-.44-1.18-.94a1.14,1.14,0,0,1,1.25-.89q3.71.09,7.33.26c.67,0,1.18.47,1.14,1a1.12,1.12,0,0,1-1.21.86Zm-23-1.19c0-.51.52-.93,1.19-.94q3.12-.06,6.3-.06h1c.67,0,1.21.41,1.21.92s-.55.91-1.22.91h-1q-3.15,0-6.24.06h0A1.11,1.11,0,0,1,163.08,62.49Z"/><path class="cls-4" d="M29.37,62.28q3.73.26,7.3.6c.67.06,1.14.52,1.05,1a1.15,1.15,0,0,1-1.21.8h-.15q-3.53-.34-7.22-.59c-.67,0-1.16-.49-1.1-1A1.15,1.15,0,0,1,29.37,62.28Z"/><path class="cls-4" d="M58.33,66c2.49.49,4.87,1,7.07,1.58.64.16,1,.68.77,1.16a1.24,1.24,0,0,1-1.15.63,1.58,1.58,0,0,1-.38,0c-2.16-.54-4.48-1.06-6.92-1.54-.65-.13-1-.63-.87-1.12A1.29,1.29,0,0,1,58.33,66Z"/><path class="cls-4" d="M43.94,63.68q3.73.46,7.23,1c.66.1,1.08.59.94,1.08a1.19,1.19,0,0,1-1.19.73l-.25,0q-3.44-.54-7.12-1c-.66-.08-1.11-.55-1-1.05A1.21,1.21,0,0,1,43.94,63.68Z"/><path class="cls-4" d="M84.84,75.76c2,1.77,3.06,3.63,3.06,5.52,0,.51-.54.92-1.22.92s-1.22-.41-1.22-.92c0-1.44-.83-2.9-2.47-4.33a.77.77,0,0,1,.12-1.29A1.51,1.51,0,0,1,84.84,75.76Z"/><path class="cls-4" d="M14.73,61.6q3.71.09,7.33.26c.67,0,1.18.46,1.14,1a1.12,1.12,0,0,1-1.21.86h-.08q-3.57-.17-7.26-.26c-.67,0-1.2-.44-1.18-.94A1.14,1.14,0,0,1,14.73,61.6Z"/><path class="cls-4" d="M72.33,69.52A59,59,0,0,1,79,72.11a.8.8,0,0,1,.38,1.26,1.35,1.35,0,0,1-1,.43,1.52,1.52,0,0,1-.64-.14,56,56,0,0,0-6.31-2.47c-.62-.2-.9-.74-.63-1.21A1.4,1.4,0,0,1,72.33,69.52Z"/><path class="cls-4" d="M5.38,61.51h2c.67,0,1.21.41,1.21.92s-.55.91-1.22.91h-2Z"/><rect class="cls-3" x="251.87" y="81.73" width="1.8" height="19.93" rx="0.9" ry="0.9"/></svg>