<svg id="Layer_1" data-name="Layer 1" xmlns="http://www.w3.org/2000/svg" viewBox="0 0 587.73 163.34"><defs><style>.cls-1{font-size:10px;font-family:ABeeZee-Regular, ABeeZee;}.cls-2{fill:#525731;}</style></defs><title>number-line</title><text class="cls-1" transform="translate(575.09 34.68) scale(0.99 1)">35</text><text class="cls-1" transform="translate(542.22 34.72) scale(0.99 1)">33</text><text class="cls-1" transform="translate(558.65 34.72) scale(0.99 1)">34</text><text class="cls-1" transform="translate(525.79 34.72) scale(0.99 1)">32</text><text class="cls-1" transform="translate(509.36 34.72) scale(0.99 1)">31</text><text class="cls-1" transform="translate(476.5 34.72) scale(0.99 1)">29</text><text class="cls-1" transform="translate(443.64 34.72) scale(0.99 1)">27</text><text class="cls-1" transform="translate(410.78 34.72) scale(0.99 1)">25</text><text class="cls-1" transform="translate(377.91 34.72) scale(0.99 1)">23</text><text class="cls-1" transform="translate(460.07 34.72) scale(0.99 1)">28</text><text class="cls-1" transform="translate(427.21 34.72) scale(0.99 1)">26</text><text class="cls-1" transform="translate(394.34 34.72) scale(0.99 1)">24</text><text class="cls-1" transform="translate(345.05 34.72) scale(0.99 1)">21</text><text class="cls-1" transform="translate(295.76 34.72) scale(0.99 1)">18</text><text class="cls-1" transform="translate(246.47 34.72) scale(0.99 1)">15</text><text class="cls-1" transform="translate(312.19 34.72) scale(0.99 1)">19</text><text class="cls-1" transform="translate(262.9 34.72) scale(0.99 1)">16</text><text class="cls-1" transform="translate(213.6 34.72) scale(0.99 1)">13</text><text class="cls-1" transform="translate(230.03 34.72) scale(0.99 1)">14</text><text class="cls-1" transform="translate(180.74 34.72) scale(0.99 1)">11</text><text class="cls-1" transform="translate(150.86 34.72) scale(0.99 1)">9</text><text class="cls-1" transform="translate(117.99 34.72) scale(0.99 1)">7</text><text class="cls-1" transform="translate(85.13 34.72) scale(0.99 1)">5</text><text class="cls-1" transform="translate(52.27 34.72) scale(0.99 1)">3</text><text class="cls-1" transform="translate(19.41 34.72) scale(0.99 1)">1</text><text class="cls-1" transform="translate(134.42 34.72) scale(0.99 1)">8</text><text class="cls-1" transform="translate(101.56 34.72) scale(0.99 1)">6</text><text class="cls-1" transform="translate(68.7 34.72) scale(0.99 1)">4</text><text class="cls-1" transform="translate(35.84 34.72) scale(0.99 1)">2</text><text class="cls-1" transform="translate(197.17 34.72) scale(0.99 1)">12</text><text class="cls-1" transform="translate(279.33 34.72) scale(0.99 1)">17</text><text class="cls-1" transform="translate(361.48 34.72) scale(0.99 1)">22</text><text class="cls-1" transform="translate(164.86 34.72) scale(0.99 1)">10</text><text class="cls-1" transform="translate(328.86 34.72) scale(0.99 1)">20</text><text class="cls-1" transform="translate(492.86 34.72) scale(0.99 1)">30</text><rect class="cls-2" x="5.05" y="17.5" width="576.9" height="2.44"/><rect class="cls-2" x="580.13" width="1.8" height="19.93" rx="0.9" ry="0.9"/><rect class="cls-2" x="563.7" y="7.88" width="1.8" height="12.06" rx="0.9" ry="0.9"/><rect class="cls-2" x="547.27" y="7.88" width="1.8" height="12.06" rx="0.9" ry="0.9"/><rect class="cls-2" x="530.84" y="7.88" width="1.8" height="12.06" rx="0.9" ry="0.9"/><rect class="cls-2" x="514.41" y="7.88" width="1.8" height="12.06" rx="0.9" ry="0.9"/><rect class="cls-2" x="497.98" width="1.8" height="19.93" rx="0.9" ry="0.9"/><rect class="cls-2" x="481.55" y="7.88" width="1.8" height="12.06" rx="0.9" ry="0.9"/><rect class="cls-2" x="465.11" y="7.88" width="1.8" height="12.06" rx="0.9" ry="0.9"/><rect class="cls-2" x="448.68" y="7.88" width="1.8" height="12.06" rx="0.9" ry="0.9"/><rect class="cls-2" x="432.25" y="7.88" width="1.8" height="12.06" rx="0.9" ry="0.9"/><rect class="cls-2" x="415.82" width="1.8" height="19.93" rx="0.9" ry="0.9"/><rect class="cls-2" x="399.39" y="7.88" width="1.8" height="12.06" rx="0.9" ry="0.9"/><rect class="cls-2" x="382.96" y="7.88" width="1.8" height="12.06" rx="0.9" ry="0.9"/><rect class="cls-2" x="366.53" y="7.88" width="1.8" height="12.06" rx="0.9" ry="0.9"/><rect class="cls-2" x="350.1" y="7.88" width="1.8" height="12.06" rx="0.9" ry="0.9"/><rect class="cls-2" x="300.8" y="7.88" width="1.8" height="12.06" rx="0.9" ry="0.9"/><rect class="cls-2" x="284.37" y="7.88" width="1.8" height="12.06" rx="0.9" ry="0.9"/><rect class="cls-2" x="267.94" y="7.88" width="1.8" height="12.06" rx="0.9" ry="0.9"/><rect class="cls-2" x="251.51" width="1.8" height="19.93" rx="0.9" ry="0.9"/><rect class="cls-2" x="235.08" y="7.88" width="1.8" height="12.06" rx="0.9" ry="0.9"/><rect class="cls-2" x="218.65" y="7.88" width="1.8" height="12.06" rx="0.9" ry="0.9"/><rect class="cls-2" x="202.22" y="7.88" width="1.8" height="12.06" rx="0.9" ry="0.9"/><rect class="cls-2" x="185.79" y="7.88" width="1.8" height="12.06" rx="0.9" ry="0.9"/><rect class="cls-2" x="169.36" width="1.8" height="19.93" rx="0.9" ry="0.9"/><rect class="cls-2" x="152.92" y="7.88" width="1.8" height="12.06" rx="0.9" ry="0.9"/><rect class="cls-2" x="136.49" y="7.88" width="1.8" height="12.06" rx="0.9" ry="0.9"/><rect class="cls-2" x="120.06" y="7.88" width="1.8" height="12.06" rx="0.9" ry="0.9"/><rect class="cls-2" x="103.63" y="7.88" width="1.8" height="12.06" rx="0.9" ry="0.9"/><rect class="cls-2" x="87.2" width="1.8" height="19.93" rx="0.9" ry="0.9"/><rect class="cls-2" x="70.77" y="7.88" width="1.8" height="12.06" rx="0.9" ry="0.9"/><rect class="cls-2" x="54.34" y="7.88" width="1.8" height="12.06" rx="0.9" ry="0.9"/><rect class="cls-2" x="37.91" y="7.88" width="1.8" height="12.06" rx="0.9" ry="0.9"/><rect class="cls-2" x="21.48" y="7.88" width="1.8" height="12.06" rx="0.9" ry="0.9"/><rect class="cls-2" x="5.05" width="1.8" height="19.93" rx="0.9" ry="0.9"/><rect class="cls-2" x="317.24" y="7.88" width="1.8" height="12.06" rx="0.9" ry="0.9"/><rect class="cls-2" x="333.67" width="1.8" height="19.93" rx="0.9" ry="0.9"/><text class="cls-1" transform="translate(476.54 160.7) scale(0.99 1)">99</text><text class="cls-1" transform="translate(460.11 160.7) scale(0.99 1)">98</text><text class="cls-1" transform="translate(443.67 160.7) scale(0.99 1)">97</text><text class="cls-1" transform="translate(410.81 160.7) scale(0.99 1)">95</text><text class="cls-1" transform="translate(377.95 160.7) scale(0.99 1)">93</text><text class="cls-1" transform="translate(345.09 160.7) scale(0.99 1)">91</text><text class="cls-1" transform="translate(312.23 160.7) scale(0.99 1)">89</text><text class="cls-1" transform="translate(427.24 160.7) scale(0.99 1)">96</text><text class="cls-1" transform="translate(394.38 160.7) scale(0.99 1)">94</text><text class="cls-1" transform="translate(361.52 160.7) scale(0.99 1)">92</text><text class="cls-1" transform="translate(262.93 160.7) scale(0.99 1)">86</text><text class="cls-1" transform="translate(279.36 160.7) scale(0.99 1)">87</text><text class="cls-1" transform="translate(230.07 160.7) scale(0.99 1)">84</text><text class="cls-1" transform="translate(180.78 160.7) scale(0.99 1)">81</text><text class="cls-1" transform="translate(246.5 160.7) scale(0.99 1)">85</text><text class="cls-1" transform="translate(197.21 160.7) scale(0.99 1)">82</text><text class="cls-1" transform="translate(147.92 160.7) scale(0.99 1)">79</text><text class="cls-1" transform="translate(98.62 160.7) scale(0.99 1)">76</text><text class="cls-1" transform="translate(65.76 160.7) scale(0.99 1)">74</text><text class="cls-1" transform="translate(16.47 160.7) scale(0.99 1)">71</text><text class="cls-1" transform="translate(32.9 160.7) scale(0.99 1)">72</text><text class="cls-1" transform="translate(115.05 160.7) scale(0.99 1)">77</text><text class="cls-1" transform="translate(82.19 160.7) scale(0.99 1)">75</text><text class="cls-1" transform="translate(49.33 160.7) scale(0.99 1)">73</text><text class="cls-1" transform="translate(131.48 160.7) scale(0.99 1)">78</text><text class="cls-1" transform="translate(213.64 160.7) scale(0.99 1)">83</text><text class="cls-1" transform="translate(295.8 160.7) scale(0.99 1)">88</text><rect class="cls-2" x="5.05" y="143.5" width="495.08" height="2.44"/><rect class="cls-2" x="497.98" y="126" width="1.8" height="19.93" rx="0.9" ry="0.9"/><rect class="cls-2" x="481.55" y="133.88" width="1.8" height="12.06" rx="0.9" ry="0.9"/><rect class="cls-2" x="465.11" y="133.88" width="1.8" height="12.06" rx="0.9" ry="0.9"/><rect class="cls-2" x="448.68" y="133.88" width="1.8" height="12.06" rx="0.9" ry="0.9"/><rect class="cls-2" x="432.25" y="133.88" width="1.8" height="12.06" rx="0.9" ry="0.9"/><rect class="cls-2" x="415.82" y="126" width="1.8" height="19.93" rx="0.9" ry="0.9"/><rect class="cls-2" x="399.39" y="133.88" width="1.8" height="12.06" rx="0.9" ry="0.9"/><rect class="cls-2" x="382.96" y="133.88" width="1.8" height="12.06" rx="0.9" ry="0.9"/><rect class="cls-2" x="366.53" y="133.88" width="1.8" height="12.06" rx="0.9" ry="0.9"/><rect class="cls-2" x="350.1" y="133.88" width="1.8" height="12.06" rx="0.9" ry="0.9"/><rect class="cls-2" x="300.8" y="133.88" width="1.8" height="12.06" rx="0.9" ry="0.9"/><rect class="cls-2" x="284.37" y="133.88" width="1.8" height="12.06" rx="0.9" ry="0.9"/><rect class="cls-2" x="267.94" y="133.88" width="1.8" height="12.06" rx="0.9" ry="0.9"/><rect class="cls-2" x="251.51" y="126" width="1.8" height="19.93" rx="0.9" ry="0.9"/><rect class="cls-2" x="235.08" y="133.88" width="1.8" height="12.06" rx="0.9" ry="0.9"/><rect class="cls-2" x="218.65" y="133.88" width="1.8" height="12.06" rx="0.9" ry="0.9"/><rect class="cls-2" x="202.22" y="133.88" width="1.8" height="12.06" rx="0.9" ry="0.9"/><rect class="cls-2" x="185.79" y="133.88" width="1.8" height="12.06" rx="0.9" ry="0.9"/><rect class="cls-2" x="169.36" y="126" width="1.8" height="19.93" rx="0.9" ry="0.9"/><rect class="cls-2" x="152.92" y="133.88" width="1.8" height="12.06" rx="0.9" ry="0.9"/><rect class="cls-2" x="136.49" y="133.88" width="1.8" height="12.06" rx="0.9" ry="0.9"/><rect class="cls-2" x="120.06" y="133.88" width="1.8" height="12.06" rx="0.9" ry="0.9"/><rect class="cls-2" x="103.63" y="133.88" width="1.8" height="12.06" rx="0.9" ry="0.9"/><rect class="cls-2" x="87.2" y="126" width="1.8" height="19.93" rx="0.9" ry="0.9"/><rect class="cls-2" x="70.77" y="133.88" width="1.8" height="12.06" rx="0.9" ry="0.9"/><rect class="cls-2" x="54.34" y="133.88" width="1.8" height="12.06" rx="0.9" ry="0.9"/><rect class="cls-2" x="37.91" y="133.88" width="1.8" height="12.06" rx="0.9" ry="0.9"/><rect class="cls-2" x="21.48" y="133.88" width="1.8" height="12.06" rx="0.9" ry="0.9"/><rect class="cls-2" x="5.05" y="126" width="1.8" height="19.93" rx="0.9" ry="0.9"/><rect class="cls-2" x="317.24" y="133.88" width="1.8" height="12.06" rx="0.9" ry="0.9"/><rect class="cls-2" x="333.67" y="126" width="1.8" height="19.93" rx="0.9" ry="0.9"/><text class="cls-1" transform="translate(542.22 97.74) scale(0.99 1)">68</text><text class="cls-1" transform="translate(558.65 97.74) scale(0.99 1)">69</text><text class="cls-1" transform="translate(525.79 97.74) scale(0.99 1)">67</text><text class="cls-1" transform="translate(509.36 97.74) scale(0.99 1)">66</text><text class="cls-1" transform="translate(476.5 97.74) scale(0.99 1)">64</text><text class="cls-1" transform="translate(443.64 97.74) scale(0.99 1)">62</text><text class="cls-1" transform="translate(377.91 97.74) scale(0.99 1)">58</text><text class="cls-1" transform="translate(492.93 97.74) scale(0.99 1)">65</text><text class="cls-1" transform="translate(460.07 97.74) scale(0.99 1)">63</text><text class="cls-1" transform="translate(427.21 97.74) scale(0.99 1)">61</text><text class="cls-1" transform="translate(394.34 97.74) scale(0.99 1)">59</text><text class="cls-1" transform="translate(328.62 97.74) scale(0.99 1)">55</text><text class="cls-1" transform="translate(345.05 97.74) scale(0.99 1)">56</text><text class="cls-1" transform="translate(295.76 97.74) scale(0.99 1)">53</text><text class="cls-1" transform="translate(312.19 97.74) scale(0.99 1)">54</text><text class="cls-1" transform="translate(262.9 97.74) scale(0.99 1)">51</text><text class="cls-1" transform="translate(213.6 97.74) scale(0.99 1)">48</text><text class="cls-1" transform="translate(164.31 97.74) scale(0.99 1)">45</text><text class="cls-1" transform="translate(131.45 97.74) scale(0.99 1)">43</text><text class="cls-1" transform="translate(49.29 97.74) scale(0.99 1)">38</text><text class="cls-1" transform="translate(16.43 97.74) scale(0.99 1)">36</text><text class="cls-1" transform="translate(98.59 97.74) scale(0.99 1)">41</text><text class="cls-1" transform="translate(230.03 97.74) scale(0.99 1)">49</text><text class="cls-1" transform="translate(180.74 97.74) scale(0.99 1)">46</text><text class="cls-1" transform="translate(147.88 97.74) scale(0.99 1)">44</text><text class="cls-1" transform="translate(115.02 97.74) scale(0.99 1)">42</text><text class="cls-1" transform="translate(65.72 97.74) scale(0.99 1)">39</text><text class="cls-1" transform="translate(32.86 97.74) scale(0.99 1)">37</text><text class="cls-1" transform="translate(0 97.74) scale(0.99 1)">35</text><text class="cls-1" transform="translate(197.17 97.74) scale(0.99 1)">47</text><text class="cls-1" transform="translate(279.33 97.74) scale(0.99 1)">52</text><text class="cls-1" transform="translate(361.48 97.74) scale(0.99 1)">57</text><rect class="cls-2" x="5.06" y="80.51" width="576.9" height="2.44"/><rect class="cls-2" x="5.07" y="63.01" width="1.8" height="19.93" rx="0.9" ry="0.9"/><rect class="cls-2" x="21.5" y="70.89" width="1.8" height="12.06" rx="0.9" ry="0.9"/><rect class="cls-2" x="37.93" y="70.89" width="1.8" height="12.06" rx="0.9" ry="0.9"/><rect class="cls-2" x="54.36" y="70.89" width="1.8" height="12.06" rx="0.9" ry="0.9"/><rect class="cls-2" x="70.79" y="70.89" width="1.8" height="12.06" rx="0.9" ry="0.9"/><rect class="cls-2" x="87.23" y="63.01" width="1.8" height="19.93" rx="0.9" ry="0.9"/><rect class="cls-2" x="103.66" y="70.89" width="1.8" height="12.06" rx="0.9" ry="0.9"/><rect class="cls-2" x="120.09" y="70.89" width="1.8" height="12.06" rx="0.9" ry="0.9"/><rect class="cls-2" x="136.52" y="70.89" width="1.8" height="12.06" rx="0.9" ry="0.9"/><rect class="cls-2" x="152.95" y="70.89" width="1.8" height="12.06" rx="0.9" ry="0.9"/><rect class="cls-2" x="169.38" y="63.01" width="1.8" height="19.93" rx="0.9" ry="0.9"/><rect class="cls-2" x="185.81" y="70.89" width="1.8" height="12.06" rx="0.9" ry="0.9"/><rect class="cls-2" x="202.24" y="70.89" width="1.8" height="12.06" rx="0.9" ry="0.9"/><rect class="cls-2" x="218.67" y="70.89" width="1.8" height="12.06" rx="0.9" ry="0.9"/><rect class="cls-2" x="235.1" y="70.89" width="1.8" height="12.06" rx="0.9" ry="0.9"/><rect class="cls-2" x="284.4" y="70.89" width="1.8" height="12.06" rx="0.9" ry="0.9"/><rect class="cls-2" x="300.83" y="70.89" width="1.8" height="12.06" rx="0.9" ry="0.9"/><rect class="cls-2" x="317.26" y="70.89" width="1.8" height="12.06" rx="0.9" ry="0.9"/><rect class="cls-2" x="333.69" y="63.01" width="1.8" height="19.93" rx="0.9" ry="0.9"/><rect class="cls-2" x="350.12" y="70.89" width="1.8" height="12.06" rx="0.9" ry="0.9"/><rect class="cls-2" x="366.55" y="70.89" width="1.8" height="12.06" rx="0.9" ry="0.9"/><rect class="cls-2" x="382.98" y="70.89" width="1.8" height="12.06" rx="0.9" ry="0.9"/><rect class="cls-2" x="399.42" y="70.89" width="1.8" height="12.06" rx="0.9" ry="0.9"/><rect class="cls-2" x="415.85" y="63.01" width="1.8" height="19.93" rx="0.9" ry="0.9"/><rect class="cls-2" x="432.28" y="70.89" width="1.8" height="12.06" rx="0.9" ry="0.9"/><rect class="cls-2" x="448.71" y="70.89" width="1.8" height="12.06" rx="0.9" ry="0.9"/><rect class="cls-2" x="465.14" y="70.89" width="1.8" height="12.06" rx="0.9" ry="0.9"/><rect class="cls-2" x="481.57" y="70.89" width="1.8" height="12.06" rx="0.9" ry="0.9"/><rect class="cls-2" x="498" y="63.01" width="1.8" height="19.93" rx="0.9" ry="0.9"/><rect class="cls-2" x="514.43" y="70.89" width="1.8" height="12.06" rx="0.9" ry="0.9"/><rect class="cls-2" x="530.86" y="70.89" width="1.8" height="12.06" rx="0.9" ry="0.9"/><rect class="cls-2" x="547.29" y="70.89" width="1.8" height="12.06" rx="0.9" ry="0.9"/><rect class="cls-2" x="563.73" y="70.89" width="1.8" height="12.06" rx="0.9" ry="0.9"/><rect class="cls-2" x="580.16" y="63.01" width="1.8" height="19.93" rx="0.9" ry="0.9"/><rect class="cls-2" x="267.97" y="70.89" width="1.8" height="12.06" rx="0.9" ry="0.9"/><rect class="cls-2" x="251.54" y="63.01" width="1.8" height="19.93" rx="0.9" ry="0.9"/><text class="cls-1" transform="translate(575.86 97.72) scale(0.99 1)">70</text><text class="cls-1" transform="translate(3.86 34.72) scale(0.99 1)">0</text><text class="cls-1" transform="translate(81.86 97.72) scale(0.99 1)">40</text><text class="cls-1" transform="translate(246.86 97.72) scale(0.99 1)">50</text><text class="cls-1" transform="translate(411.86 97.72) scale(0.99 1)">60</text><text class="cls-1" transform="translate(0.86 160.72) scale(0.99 1)">70</text><text class="cls-1" transform="translate(163.86 160.72) scale(0.99 1)">80</text><text class="cls-1" transform="translate(328.86 160.72) scale(0.99 1)">90</text><text class="cls-1" transform="translate(491.86 160.72) scale(0.99 1)">100</text></svg>