<svg id="Layer_1" data-name="Layer 1" xmlns="http://www.w3.org/2000/svg" viewBox="0 0 47.59 68.48"><title>monkey</title><path d="M23.2,39.37a7,7,0,0,1,1.15,6.69c-1.67,5.19-3.65,7-4.8,9.65-1.37,3.11-1.51,6-.66,8.13.76,1.93,4.67,6.68,7,3.46.88-1.52-1.77-2.42-3.38-3.8a5.81,5.81,0,0,1-1.24-7.18c2.24-3.73,9.1-13.05,2.21-17.73A1.75,1.75,0,0,1,23.2,39.37Z" fill="#6b2503"/><path d="M25.38,42.39c.83,5-2.25,8.88-4.84,13.18-3.31,5.48.57,9.65,4.93,12.22C23.1,70,19.6,65.66,18.89,63.85c-.85-2.15-.71-5,.66-8.13,1.15-2.61,3.13-4.46,4.8-9.65a7,7,0,0,0-1.15-6.69,2.47,2.47,0,0,0,.15-.27A4.16,4.16,0,0,1,25.38,42.39Z" fill="#752c03"/><path d="M22.14,55.1c-.29.46-.56.89-.79,1.26a5,5,0,0,0-.75,2.84,6.15,6.15,0,0,0,2,4.24,14.82,14.82,0,0,0,1.51,1.07c1.05.69,2.05,1.34,2.08,2.16h0a1.25,1.25,0,0,1-.19.68,2.35,2.35,0,0,1-2.29,1.11c-2.09-.27-4.32-3.17-4.87-4.58a8,8,0,0,1-.53-2.67,12.81,12.81,0,0,1,1.19-5.52A22.24,22.24,0,0,1,21,53a28.73,28.73,0,0,0,3.31-7,7.53,7.53,0,0,0,.37-2.57,6.74,6.74,0,0,0-1.5-4l-.06-.07.07-.05a.68.68,0,0,0,.26-.49l.21-.23A6.59,6.59,0,0,1,26.56,44C26.69,47.91,24,52.24,22.14,55.1Zm1.18-15.72a7,7,0,0,1,1.49,4.09,7.69,7.69,0,0,1-.38,2.62,28.84,28.84,0,0,1-3.33,7,22.17,22.17,0,0,0-1.47,2.65,12.65,12.65,0,0,0-1.18,5.45A7.87,7.87,0,0,0,19,63.82c.54,1.38,2.71,4.22,4.74,4.48a2.2,2.2,0,0,0,2.13-1,1.07,1.07,0,0,0,.16-.58h0c0-.74-1-1.36-2-2a14.77,14.77,0,0,1-1.52-1.09,6.33,6.33,0,0,1-2-4.36,5.16,5.16,0,0,1,.77-2.93c.22-.37.5-.8.79-1.26,1.8-2.85,4.53-7.15,4.4-11a6.43,6.43,0,0,0-2.77-5.23A1.59,1.59,0,0,1,23.31,39.38Z" fill="#330e01"/><path d="M23.75,22.13a43.78,43.78,0,0,1,6.87.6,8.35,8.35,0,0,0,4,0c1-.56,4.7-4.51,4.7-7.1,1.25,1.14,2.8,2.42,2.8,2.42s-3.1,3.45-4.53,5.07a7.21,7.21,0,0,1-6.34,2.53c-2.81-.12-3.22.39-2.86,1.07.93,1.76,1.85,5.45.94,8.1,1.24-.24,4.51-1.27,6,1.06a15,15,0,0,1,1.81,5.33,16.36,16.36,0,0,1-1.86.37s-2-3.31-2-4.57a14.15,14.15,0,0,0-3.25,1.16c-1.47.57-3.18,1.76-5.51,1.84-1.92.07-5.65-.23-7.77-1.84a22.53,22.53,0,0,1-4.23-4c-.77-1.14-3.88.53-4.94.1a16.53,16.53,0,0,0-.46-2.85,27.62,27.62,0,0,1,6.59,0A3.41,3.41,0,0,1,16,33.2c-.15-1.78,2-5.81,3.39-7-1.29,0-8,1.71-14.38-1.83,0-1,.15-3,.15-3s5.69,2.35,6.46,2.61a3.45,3.45,0,0,0,2.15.1S20.93,22,23.75,22.13Z" fill="#6b2503"/><path d="M33.56,36c-4.13.66-6.92,4.18-13.11,2.7-4.23-1.06-5.73-5-7.79-5.82-1.69-.53-3.27.07-5,.55-.14-.8-.48-2-.48-2a27.62,27.62,0,0,1,6.59,0A3.41,3.41,0,0,1,16,33.2c-.15-1.78,2-5.81,3.39-7-1.29,0-8,1.71-14.38-1.83,0-1,.15-3,.15-3s5.69,2.35,6.46,2.61a3.45,3.45,0,0,0,2.15.1s7.13-2.18,9.95-2a43.78,43.78,0,0,1,6.87.6,8.35,8.35,0,0,0,4,0c1-.56,4.7-4.51,4.7-7.1,1.25,1.14,2.8,2.42,2.8,2.42s-3.1,3.45-4.53,5.07a7.21,7.21,0,0,1-6.34,2.53c-2.81-.12-3.22.39-2.86,1.07.93,1.76,1.85,5.45.94,8.1,1.24-.24,4.51-1.27,6,1.06a15,15,0,0,1,1.81,5.33c-.31.07-1.2.22-1.43.27C35.5,39.08,34.6,35.83,33.56,36Z" fill="#6b2503"/><path d="M7.14,31.38a43.47,43.47,0,0,1,6.59,0A3.58,3.58,0,0,1,16,33.08a17.62,17.62,0,0,0,.61,1.84c-.09-2.59.65-5.48,3.69-9.22C13.56,26,9.45,26.21,5.09,23c0-.8.1-1.54.1-1.54s5.69,2.35,6.46,2.61a3.45,3.45,0,0,0,2.15.1s7.13-2.18,9.95-2a43.78,43.78,0,0,1,6.87.6,8.35,8.35,0,0,0,4,0c1-.56,4.7-4.51,4.7-7.1,1.25,1.14,2.8,2.42,2.8,2.42s-3.1,3.45-4.53,5.07a7.21,7.21,0,0,1-6.34,2.53c-2.81-.12-3.22.39-2.86,1.07.93,1.76,1.85,5.45.94,8.1,1.24-.24,4.51-1.27,6,1.06a15,15,0,0,1,1.81,5.33c-.31.07-1.2.22-1.43.27-.2-2.39-1.1-5.65-2.14-5.48-4.13.66-6.92,4.18-13.11,2.7-4.23-1.06-5.73-5-7.79-5.82-1.69-.53-3.27.07-5,.55C7.49,32.62,7.14,31.38,7.14,31.38Z" fill="#6b2503"/><path d="M7.14,31.38a43.47,43.47,0,0,1,6.59,0A3.58,3.58,0,0,1,16,33.08a17.62,17.62,0,0,0,.61,1.84c-.09-2.59.65-5.48,3.69-9.22C13.56,26,9.45,26.21,5.09,23c0-.8.1-1.54.1-1.54s5.69,2.35,6.46,2.61a3.45,3.45,0,0,0,2.15.1s7.13-2.18,9.95-2a43.78,43.78,0,0,1,6.87.6,8.35,8.35,0,0,0,4,0c1-.56,4.7-4.51,4.7-7.1.57.52,1.2,1.06,1.71,1.5-1.5,3.68-4.66,6.69-7.94,7.49-2.59.56-6.55-.4-5.79,1.62,1.31,3.55,2.13,6.3,1.13,10,.3-.46.72-.91,1.07-1.42,1.35-.29,4.4-1.14,5.78,1.09a15,15,0,0,1,1.81,5.33c-.31.07-.82.15-1,.2-.64-2.3-1.85-5.59-2.52-5.41-4,1.08-6.92,4.18-13.11,2.7-4.23-1.06-5.73-5-7.79-5.82-1.69-.53-3.27.07-5,.55C7.49,32.62,7.14,31.38,7.14,31.38Z" fill="#6b2503"/><path d="M7.14,31.38a43.47,43.47,0,0,1,6.59,0A3.58,3.58,0,0,1,16,33.08a17.62,17.62,0,0,0,.61,1.84c-.09-2.59.65-5.48,3.69-9.22C13.56,26,9.45,26.21,5.09,23c0-.8.1-1.54.1-1.54s5.69,2.35,6.46,2.61a3.45,3.45,0,0,0,2.15.1s7.13-2.18,9.95-2a43.78,43.78,0,0,1,6.87.6,8.35,8.35,0,0,0,4,0c1-.56,4.7-4.51,4.7-7.1.57.52,1.2,1.06,1.71,1.5-1.5,3.68-4.66,6.69-7.94,7.49-2.59.56-6.55-.4-5.79,1.62,1.31,3.55,2.13,6.3,1.13,10,.3-.46.72-.91,1.07-1.42,1.35-.29,4.4-1.14,5.78,1.09a15,15,0,0,1,1.81,5.33c-.31.07-1.2.22-1.43.27C35.06,39.18,34,36,33.28,36.2c-4,1.07-6.64,4-12.83,2.5-4.23-1.06-5.73-5-7.79-5.82-1.69-.53-3.27.07-5,.55C7.49,32.62,7.14,31.38,7.14,31.38Z" fill="#752c03"/><path d="M7.3,32c-.09-.34-.16-.59-.16-.59a43.47,43.47,0,0,1,6.59,0A3.58,3.58,0,0,1,16,33.08c.07.24.12.43.17.6C13.93,31.44,10.39,31.54,7.3,32Z" fill="#7f3713"/><path d="M33.95,35.13c-1.55-.72-3.12.14-4.71.07.1-.13.2-.27.3-.41,1.35-.29,4.4-1.14,5.78,1.09a15,15,0,0,1,1.81,5.33l-.23,0C36,39.14,35.75,36.2,33.95,35.13Z" fill="#7f3713"/><path d="M5.17,21.76l0-.32s5.69,2.35,6.46,2.61a3.45,3.45,0,0,0,2.15.1s2.34-.72,4.88-1.3C12.84,26.24,11.07,24.88,5.17,21.76Z" fill="#7f3713"/><path d="M34.75,23.2c-3.22.89-5.46-.19-9.17-1a35.79,35.79,0,0,1,5,.54,8.35,8.35,0,0,0,4,0c1-.56,4.7-4.51,4.7-7.1l.3.27A10.58,10.58,0,0,1,34.75,23.2Z" fill="#7f3713"/><path d="M37.15,41.29a16.4,16.4,0,0,1-1.87.37h-.05l0,0c-.08-.13-1.9-3.21-2-4.52a3.79,3.79,0,0,0-1,.26c-.37.13-.78.31-1.17.48l-1,.41c-.38.15-.78.34-1.2.54s-1.11.53-1.74.76a8.28,8.28,0,0,1-2.6.54c-.53,0-5.22.12-7.82-1.85a22.52,22.52,0,0,1-4.25-4.06c-.42-.62-1.62-.34-2.77-.07a4.3,4.3,0,0,1-2.13.2l-.06,0v-.06a16.59,16.59,0,0,0-.46-2.82l0-.09h.09a27.88,27.88,0,0,1,6.62,0,3.25,3.25,0,0,1,2.19,1.59c.05-1.84,1.87-5.34,3.24-6.61l-.78.09c-2.41.31-8.06,1-13.41-1.94l0,0v0c0-1,.15-3,.15-3v-.11l.1,0c.06,0,5.7,2.35,6.45,2.61a3.35,3.35,0,0,0,2.1.1c.07,0,7.17-2.18,10-2a44.22,44.22,0,0,1,6.89.6,8.23,8.23,0,0,0,4,0c.9-.53,4.66-4.45,4.66-7v-.19l.14.13C40.65,16.7,42.2,18,42.21,18l.07.06-.06.06s-3.11,3.46-4.53,5.07a7.15,7.15,0,0,1-2.93,2.1,8.85,8.85,0,0,1-3.47.46c-1.74-.07-2.71.1-2.86.49a.56.56,0,0,0,.07.46c.93,1.76,1.83,5.38,1,8l.3-.07c1.49-.33,4.27-1,5.6,1.19a15.2,15.2,0,0,1,1.82,5.36v.07ZM31.29,25.57a8.7,8.7,0,0,0,3.41-.45,7,7,0,0,0,2.87-2.05c1.31-1.49,4-4.53,4.48-5-.3-.25-1.54-1.28-2.61-2.25-.17,2.63-3.84,6.46-4.73,7a8.54,8.54,0,0,1-4.1,0,44,44,0,0,0-6.86-.6c-2.79-.16-9.85,2-9.91,2a3.52,3.52,0,0,1-2.21-.1c-.71-.24-5.55-2.24-6.36-2.57,0,.43-.14,2-.14,2.8,5.3,2.92,10.88,2.21,13.27,1.9.48-.06.82-.11,1-.11h.24l-.18.15c-1.4,1.13-3.5,5.16-3.35,6.9l0,.29-.3-.41a3.12,3.12,0,0,0-2.12-1.57,26.92,26.92,0,0,0-6.47,0,16.17,16.17,0,0,1,.44,2.72,4.69,4.69,0,0,0,2-.22c1.21-.28,2.47-.58,2.95.14a22.38,22.38,0,0,0,4.21,4C19.38,40,24,39.95,24.54,39.93a8.11,8.11,0,0,0,2.55-.53c.62-.23,1.18-.5,1.73-.76s.82-.39,1.21-.54l1-.41c.4-.17.81-.35,1.18-.48a3.51,3.51,0,0,1,1.11-.27h.08V37c0,1.14,1.68,4.07,1.92,4.48.17,0,.74-.11,1.73-.35a14.92,14.92,0,0,0-1.79-5.22c-1.27-2-4-1.44-5.42-1.11l-.44.09-.14,0,0-.14c.89-2.62,0-6.27-.94-8a.71.71,0,0,1-.08-.59.77.77,0,0,1,.5-.41A7.27,7.27,0,0,1,31.29,25.57Z" fill="#330e01"/><path d="M34,10.37a3.16,3.16,0,0,1,2.51-2c1.91-.23,2.25,1.87,2.36,2.67s-.21,3.33-2.65,3.26C35.25,13.8,33.41,11.38,34,10.37Z" fill="#e09068"/><path d="M34,10.37a3.16,3.16,0,0,1,2.51-2,1.75,1.75,0,0,1,1.33.33c1.3,1.17.84,4.12-.55,5A2.45,2.45,0,0,0,34,11.35,1.25,1.25,0,0,1,34,10.37Z" fill="#fdb086"/><path d="M34.3,9.8a3,3,0,0,1,2.23-1.45,1.69,1.69,0,0,1,1.53.53A3.65,3.65,0,0,0,34.3,9.8Z" fill="#f9bb9b"/><path d="M36.25,14.36h0a5.87,5.87,0,0,1-2.31-2.94,1.33,1.33,0,0,1,0-1.07,3.3,3.3,0,0,1,1.87-1.91,3.11,3.11,0,0,1,.71-.17c2-.24,2.35,2,2.46,2.74a3.06,3.06,0,0,1-1.67,3.2h0A2.81,2.81,0,0,1,36.25,14.36Zm-2.16-3.95a1.19,1.19,0,0,0,0,1,5.8,5.8,0,0,0,2.21,2.83,2.65,2.65,0,0,0,1-.15h0c1.46-.54,1.66-2.4,1.56-3-.18-1.21-.61-2.8-2.27-2.6a2.94,2.94,0,0,0-.67.16A3.21,3.21,0,0,0,34.09,10.42Z" fill="#bf6440"/><path d="M34.61,12.54s.67-2.16,1.69-2.33c.42-.07.85.22,1.29.84a1.46,1.46,0,0,0-.77-.93,1,1,0,0,0-.55-.07c-1.12.18-1.8,2.35-1.83,2.44Z" fill="#bf6440"/><path d="M15.61,17.16a3.16,3.16,0,0,0-3.23.09c-1.6,1.07-.5,2.88-.07,3.57s2.32,2.4,4.13.76C16.9,20.56,16.73,17.53,15.61,17.16Z" fill="#e09068"/><path d="M15.22,21.6a1.7,1.7,0,0,1,.28-.81c-.05.75.31,1.44-1.24,1-2.1-.55-2.94-3.26-1.81-4.6a3.17,3.17,0,0,1,3.17-.06.81.81,0,0,1,.24.13C15,18.68,14.27,20.59,15.22,21.6Z" fill="#fdb086"/><path d="M12.25,20.86c-.39-.63-1.6-2.55.09-3.68a3.1,3.1,0,0,1,.65-.33,3.28,3.28,0,0,1,2.65.23,1.34,1.34,0,0,1,.74.8,5.87,5.87,0,0,1,.15,3.73l0,0a2.81,2.81,0,0,1-.91.57A3.06,3.06,0,0,1,12.25,20.86Zm4-2.91a1.2,1.2,0,0,0-.65-.72A3.19,3.19,0,0,0,13,17a2.94,2.94,0,0,0-.62.32c-1.39.93-.69,2.42,0,3.45.33.53,1.69,1.82,3.15,1.28a2.65,2.65,0,0,0,.84-.52A5.8,5.8,0,0,0,16.22,17.95Z" fill="#bf6440"/><path d="M15.31,18.47s-2-.8-2.06,1c.23,0,.71-.63,1-.34S15.51,19.5,15.31,18.47Z" fill="#c97049"/><path d="M35,11.29s1.07-2,2.3-.69c-.18.13-.78,0-.91.32C36.2,11.45,35.62,12,35,11.29Z" fill="#c97049"/><path d="M16.57,19.19l.09-.14c-.08-.05-2-1.27-3-.67a1,1,0,0,0-.35.38,1.23,1.23,0,0,0,0,1.24c-.07-.76.07-1.25.44-1.47C14.66,18,16.55,19.18,16.57,19.19Z" fill="#bf6440"/><path d="M15.76,18.2a8.2,8.2,0,0,1-1.68-8.06c.65-2.38,3-4.76,4.7-6,.76-.54-.11-1,.78-1.73,0,0,0,.74.32.84a4.84,4.84,0,0,1,.4-1.73A2.51,2.51,0,0,1,21.53.17a3.47,3.47,0,0,0,.22,2.36,2.82,2.82,0,0,1,.81-1.15,1.25,1.25,0,0,0,1.36,1.49C25,2.75,28.58,2.65,30.62,4a8.2,8.2,0,0,1,4,7.22,3.5,3.5,0,0,1,2.48,2,4.73,4.73,0,0,0-1.22-.53,3.29,3.29,0,0,1,1.05,3c-.24-.26-.63-.91-1-1a2.92,2.92,0,0,1-.38,3,5.56,5.56,0,0,0-.2-1s-.23,1.14-1.06,1.1l-6.57,3.68h0L20.3,23c-.61.58-1.52-.14-1.52-.14a5.61,5.61,0,0,0,.51.91,2.91,2.91,0,0,1-2.21-2c-.25.27-.13,1-.14,1.37a3.29,3.29,0,0,1-1.16-3,4.74,4.74,0,0,0-.59,1.2A3.5,3.5,0,0,1,15.76,18.2Z" fill="#602202"/><path d="M20.86,1.86a1.7,1.7,0,0,1,0-.23C20.89,1.71,20.87,1.79,20.86,1.86Z" fill="#752c03"/><path d="M18.29,22.12a.66.66,0,0,0,0,.61,4.14,4.14,0,0,1-1.33-2.48,3.28,3.28,0,0,0-.5,1.83,3.86,3.86,0,0,1,.15-3.22c-.27-.1-.93.45-1,.94a2.09,2.09,0,0,1,.75-1.75c-5.5-7.82,1.37-12.4,3.29-14.41A1.86,1.86,0,0,0,20,4.75c0-.84.07-2.56.81-2.89a1.66,1.66,0,0,0,1,1.38,1.6,1.6,0,0,1,.45-.95c.08.38.48.76.91.47a1.27,1.27,0,0,0,.71.11C25,2.75,28.58,2.65,30.62,4a8.2,8.2,0,0,1,4,7.22,3.5,3.5,0,0,1,2.48,2,4.73,4.73,0,0,0-1.22-.53,3.29,3.29,0,0,1,1.05,3c-.24-.26-.63-.91-1-1a2.92,2.92,0,0,1-.38,3,5.56,5.56,0,0,0-.2-1s-.23,1.14-1.06,1.1l-6.57,3.68h0L20.3,23a1,1,0,0,1-1.06.12A1.42,1.42,0,0,1,18.29,22.12Z" fill="#752c03"/><path d="M35.1,14c.41-.15.77.18,1.26.24a4.9,4.9,0,0,0-1.87-1.89,2,2,0,0,0,1.11-.17A3.24,3.24,0,0,0,34,11.62c.4-4.33-3.13-7.5-7-8.73a8.17,8.17,0,0,1,7.65,8.37,3.5,3.5,0,0,1,2.48,2,4.73,4.73,0,0,0-1.22-.53,3.29,3.29,0,0,1,1.05,3c-.24-.26-.63-.91-1-1a2.92,2.92,0,0,1-.38,3c0-.14,0-.29-.06-.42C35.69,16.17,36,15,35.1,14Z" fill="#7f3713"/><path d="M27.71,21.62l-.07,0v0l-7.29,1.45a.89.89,0,0,1-.29.17A1.34,1.34,0,0,1,19,23.09a5.16,5.16,0,0,0,.38.63l.12.17-.21,0A3,3,0,0,1,17.06,22a2.56,2.56,0,0,0,0,.83c0,.13,0,.25,0,.35v.14l-.12-.07a3.24,3.24,0,0,1-1.22-2.73,3.64,3.64,0,0,0-.4.89l-.05.23-.1-.22a3.61,3.61,0,0,1,.54-3.19A8.26,8.26,0,0,1,14,10.12c.62-2.29,2.85-4.65,4.73-6.09A.65.65,0,0,0,19,3.34a1.09,1.09,0,0,1,.46-1l.13-.11v.17A1.76,1.76,0,0,0,19.8,3a5.06,5.06,0,0,1,.4-1.58A2.57,2.57,0,0,1,21.5.09L21.71,0,21.6.21a4,4,0,0,0,.12,2.15,3,3,0,0,1,.79-1l.19-.16-.05.24a1.29,1.29,0,0,0,.3,1.05,1.1,1.1,0,0,0,1,.34c.18,0,4.38-.44,6.75,1.19a8.27,8.27,0,0,1,4,7.22,3.61,3.61,0,0,1,2.48,2.07l.06.23L37,13.35a3.63,3.63,0,0,0-.89-.42A3.24,3.24,0,0,1,37,15.8l0,.13-.1-.1c-.07-.07-.14-.17-.22-.27A2.56,2.56,0,0,0,36,15a3,3,0,0,1-.45,2.88l-.13.17,0-.21a5.09,5.09,0,0,0-.12-.73,1.34,1.34,0,0,1-.71.82.89.89,0,0,1-.33.05l-6.5,3.64v0Zm6.55-3.84a.72.72,0,0,0,.29,0c.52-.19.69-1,.69-1l.06-.32.1.31a5.74,5.74,0,0,1,.18.83,2.83,2.83,0,0,0,.24-2.71l-.06-.13.14,0c.31,0,.6.42.84.72l.11.14a3.3,3.3,0,0,0-1.07-2.79l-.26-.23.34.09a5.59,5.59,0,0,1,1,.41,3.57,3.57,0,0,0-2.32-1.74H34.5v-.08a8.13,8.13,0,0,0-3.92-7.16C28.71,2.84,25.42,2.8,23.93,3a1.25,1.25,0,0,1-1.12-.4,1.48,1.48,0,0,1-.36-1,2.49,2.49,0,0,0-.63,1l0,.11-.09-.06c-.31-.21-.45-1.63-.31-2.26a2.48,2.48,0,0,0-1,1.17A4.78,4.78,0,0,0,20,3.2v.12l-.11,0c-.24-.08-.33-.5-.36-.74a.9.9,0,0,0-.29.8.81.81,0,0,1-.38.83c-1.85,1.42-4.06,3.75-4.67,6a8.13,8.13,0,0,0,1.66,8l0,.06-.06.05a3.57,3.57,0,0,0-.64,2.83,5.64,5.64,0,0,1,.53-1l.2-.29,0,.35a3.31,3.31,0,0,0,1,2.81c0-.06,0-.12,0-.18,0-.39,0-.87.17-1.09l.1-.1,0,.14a2.83,2.83,0,0,0,1.94,1.91,5.74,5.74,0,0,1-.4-.74l-.13-.3.26.2a1.45,1.45,0,0,0,1.17.3.72.72,0,0,0,.25-.16l0,0h0l7.37-1.46,6.56-3.67h0Z" fill="#6b2503"/><path d="M15.28,14.36c-.88-3.12,2-5,3.87-5.23a9.69,9.69,0,0,1,4.37,1.09,9.61,9.61,0,0,1,2.61-3.66c1.54-1,5-1.48,6.34,1.46s.91,3.85.78,4.14c.53.27,3.22,4.26.67,6.49s-3.64,1.61-4.24,2.42a3.6,3.6,0,0,1-1.74,1.11h0a3.6,3.6,0,0,1-2,.29c-1-.22-1.41,1-4.8.91s-3.93-4.82-3.7-5.37C17.09,17.89,16.16,17.49,15.28,14.36Z" fill="#e09068"/><path d="M29.68,20.33c-1.17,1-2,2-5.1,1.58-1,0-3.45,2.56-5.49-.71a8.63,8.63,0,0,1-1.19-3.48c-3-2.38-3.75-10.69,5.77-7.06a1.42,1.42,0,0,0-.16-.43,9.61,9.61,0,0,1,2.61-3.66c1.54-1,5-1.48,6.34,1.46s.91,3.85.78,4.14a5.5,5.5,0,0,1,1.41,2.28C35.32,19.48,30.27,19.69,29.68,20.33Z" fill="#fdb086"/><path d="M29.62,6.18c-2.11-.56-3.57.65-5,2a6,6,0,0,1,1.48-1.59c1.54-1,5-1.48,6.34,1.46s.91,3.85.78,4.14a5.5,5.5,0,0,1,1.41,2.28c0,.1,0,.19,0,.29a8.06,8.06,0,0,0-1.83-2.39C33.07,10.54,32.22,6.86,29.62,6.18Z" fill="#f9bb9b"/><path d="M25.85,22.56a1.63,1.63,0,0,0-1.08.23l-.56.23h0a8.35,8.35,0,0,1-3.15.46,3.28,3.28,0,0,1-2.79-1.61,6.57,6.57,0,0,1-1-3.8c-.35-.17-1.24-.72-2.07-3.68-.7-2.51,1-4.36,2.93-5.08a4.37,4.37,0,0,1,1-.25,9.45,9.45,0,0,1,4.33,1.06,9.32,9.32,0,0,1,2.6-3.62A4.44,4.44,0,0,1,27,6c2-.72,4.44-.4,5.53,2,1.28,2.77,1,3.77.81,4.14A6.57,6.57,0,0,1,35,15.68a3.28,3.28,0,0,1-1.07,3,8.35,8.35,0,0,1-2.69,1.7l-.57.19a1.63,1.63,0,0,0-1,.53,3.46,3.46,0,0,1-1.54,1.06l-.24.08-.24.1A3.46,3.46,0,0,1,25.85,22.56Zm2.05-.45.23-.08a3.29,3.29,0,0,0,1.47-1,1.35,1.35,0,0,1,.67-.46l.38-.12.56-.19a8.19,8.19,0,0,0,2.64-1.66,3.12,3.12,0,0,0,1-2.89,6.25,6.25,0,0,0-1.67-3.46l-.07,0,0-.07c.13-.29.55-1.18-.79-4.06-1.2-2.59-3.91-2.4-5.32-1.88a4.27,4.27,0,0,0-.9.45,9.59,9.59,0,0,0-2.57,3.63v0h0a.1.1,0,0,1-.08,0,9.43,9.43,0,0,0-4.3-1.08,4.27,4.27,0,0,0-1,.24c-1.41.52-3.6,2.14-2.83,4.88.86,3.06,1.75,3.46,2,3.6l.07,0,0,.07a6.25,6.25,0,0,0,1,3.72,3.12,3.12,0,0,0,2.65,1.54,8.19,8.19,0,0,0,3.09-.45h0l.55-.22.37-.15a1.35,1.35,0,0,1,.81-.08,3.29,3.29,0,0,0,1.77-.19l.23-.09h0Z" fill="#bf6440"/><path d="M30.23,8.58s-.36-2.41-2.44-1.88c-.47.13-.79.67-.48.61C28.5,7.09,29.72,8.09,30.23,8.58Z" fill="#752c03"/><path d="M30.17,8.64a3.71,3.71,0,0,0-2.85-1.25c-.13,0-.19,0-.21-.1s.24-.52.57-.64l.08,0a1.84,1.84,0,0,1,1.52.2,2.8,2.8,0,0,1,1,1.75l0,.24ZM27.26,7.22h0a3.64,3.64,0,0,1,2.79,1.12,2.46,2.46,0,0,0-.89-1.39,1.68,1.68,0,0,0-1.39-.17l-.07,0A.88.88,0,0,0,27.26,7.22Z" fill="#4c1601"/><ellipse cx="29.11" cy="11.44" rx="2.17" ry="3.47" transform="translate(-2.16 10.78) rotate(-20.24)" fill="#e09068"/><ellipse cx="29.24" cy="11.79" rx="1.91" ry="3.1" transform="translate(-2.27 10.84) rotate(-20.24)" fill="#4c1601"/><ellipse cx="29.3" cy="11.93" rx="1.91" ry="2.95" transform="translate(-2.32 10.87) rotate(-20.24)" fill="#ddd"/><path d="M28,13.57a4.37,4.37,0,0,1-.51-1c-.56-1.53-.22-3.06.77-3.43s2.25.58,2.81,2.11l0,.09C30.89,12.33,29.21,13.18,28,13.57Z" fill="#fafafa"/><path d="M27.43,12.61c-.58-1.57-.21-3.15.82-3.53s2.34.59,2.91,2.16.21,3.15-.82,3.53S28,14.18,27.43,12.61Zm.16-.06c.55,1.48,1.76,2.41,2.7,2.06s1.27-1.84.72-3.32-1.76-2.41-2.7-2.06S27,11.07,27.58,12.56Z" fill="#4c1601"/><ellipse cx="29.06" cy="12.64" rx="1.07" ry="1.44" transform="translate(-2.58 10.83) rotate(-20.24)" fill="#9e480b"/><path d="M28,13a1.38,1.38,0,0,1,.55-1.83,1.38,1.38,0,0,1,1.6,1,1.38,1.38,0,0,1-.55,1.83A1.38,1.38,0,0,1,28,13Zm.15-.06c.26.7.88,1.12,1.39.94A1.22,1.22,0,0,0,30,12.3c-.26-.7-.88-1.12-1.39-.94A1.22,1.22,0,0,0,28.14,13Z" fill="#662a01"/><ellipse cx="29.16" cy="12.97" rx="0.65" ry="0.88" transform="translate(-2.69 10.89) rotate(-20.24)"/><ellipse cx="28.87" cy="12.45" rx="0.42" ry="0.43" transform="translate(-2.52 10.75) rotate(-20.24)" fill="#fff"/><ellipse cx="29.69" cy="12.84" rx="0.21" ry="0.22" transform="translate(-2.61 11.06) rotate(-20.24)" fill="#fff"/><ellipse cx="23.24" cy="32.22" rx="6.03" ry="4.27" transform="translate(-11.84 50.85) rotate(-82.16)" fill="#e09068"/><path d="M19.46,29.85c.88-2.34,2.72-3.87,4.61-3.61,2.34.32,3.86,3.26,3.41,6.55a8.32,8.32,0,0,1-.4,1.66C22.51,39.87,19.12,34.06,19.46,29.85Z" fill="#fdb086"/><path d="M20.09,28.56a4.2,4.2,0,0,1,4-2.31c2.65.37,4.44,4.37,3,8.21C27.53,28.82,24.87,25,20.09,28.56Z" fill="#f9bb9b"/><path d="M22.41,38.27C20,37.94,18.47,35,18.93,31.62c.34-2.5,1.77-4.62,3.56-5.28a3.27,3.27,0,0,1,1.59-.18,3.83,3.83,0,0,1,2.81,2.2,7.49,7.49,0,0,1,.67,4.44c-.34,2.5-1.77,4.62-3.56,5.28A3.27,3.27,0,0,1,22.41,38.27Zm-3.32-6.63c-.45,3.25,1.05,6.15,3.34,6.46a3.1,3.1,0,0,0,1.51-.17c1.73-.64,3.12-2.7,3.45-5.15a7.33,7.33,0,0,0-.65-4.34,3.67,3.67,0,0,0-2.69-2.12,3.1,3.1,0,0,0-1.51.17C20.81,27.14,19.43,29.2,19.09,31.64Z" fill="#bf6440"/><path d="M29.11,35.56a6.77,6.77,0,0,0,.47-1.17l-.16,0A5.53,5.53,0,0,1,28,36.78S28.6,36.67,29.11,35.56Z" fill="#330e01"/><path d="M19.4,26.36a7.5,7.5,0,0,1,1-.68,2.44,2.44,0,0,0-1.08.55Z" fill="#330e01"/><path d="M17.07,35.57a5.56,5.56,0,0,1-1-2.6l-.16,0a6.74,6.74,0,0,0,.25,1.2C16.7,35.57,17.07,35.57,17.07,35.57Z" fill="#330e01"/><path d="M40.82,13.39s.58-1,.48-1.45a.75.75,0,0,0-1.21-.53,3.15,3.15,0,0,0-1.27,3.09c.22,1.44.58,3.23,2.28,3.86s2.59-.38,3.24-1a4.61,4.61,0,0,1,1.32-.78c1.08-.41,2.79-1.25,1.2-2.21.47-.42,1.05-2.07-1.32-1.63.37-.6,0-1.71-1.6-1a4.26,4.26,0,0,0-2.41,2.06C41.29,13.57,41.19,13.39,40.82,13.39Z" fill="#e09068"/><path d="M43.16,17.4c-1.39,1.16-2.66.39-3.91-1a9.58,9.58,0,0,1-.43-1.86,3.15,3.15,0,0,1,1.27-3.09.75.75,0,0,1,1.21.53c.1.43-.48,1.45-.48,1.45.37,0,.48.18.71.34a4.26,4.26,0,0,1,2.41-2.06c1.61-.67,2,.44,1.6,1,2.38-.44,1.79,1.2,1.32,1.63a2,2,0,0,1,.43.34C45.63,16.46,45.14,15.61,43.16,17.4Z" fill="#fdb086"/><path d="M45.07,11.76a2.66,2.66,0,0,0-1.57.33A2.3,2.3,0,0,0,42,14.67a2.34,2.34,0,0,0-1.43-1.13c.22-.28.78,0,1,.19a4.26,4.26,0,0,1,2.41-2.06c1.61-.67,2,.44,1.6,1,1.71-.32,1.89.44,1.68,1.05l-.14-.39c-.28-.75-1-.47-1.71-.55C45.56,12,45.3,11.83,45.07,11.76Z" fill="#f9bb9b"/><path d="M39.55,11.84a1.86,1.86,0,0,1,.53-.44.75.75,0,0,1,1.21.53c.09.37-.37,1.62-.77,1.61a1.17,1.17,0,0,0,0-1.5A.89.89,0,0,0,39.55,11.84Z" fill="#f9bb9b"/><path d="M41.07,18.43c-1.7-.63-2.1-2.35-2.34-3.92A3.23,3.23,0,0,1,40,11.33a.91.91,0,0,1,.89-.07,1,1,0,0,1,.44.66,2.83,2.83,0,0,1-.43,1.4.88.88,0,0,1,.48.24l.06,0a4.54,4.54,0,0,1,2.42-2c1-.43,1.48-.12,1.66.09a.93.93,0,0,1,.12.91c1.07-.16,1.47.13,1.61.42a1.31,1.31,0,0,1-.3,1.3c.42.27.62.57.59.87,0,.49-.68,1-1.9,1.43a4.5,4.5,0,0,0-1.29.76l-.09.09a4,4,0,0,1-1.4,1A2.57,2.57,0,0,1,41.07,18.43ZM44,11.75a4.18,4.18,0,0,0-2.37,2l0,.1-.09-.06-.15-.12a.69.69,0,0,0-.51-.21h-.14l.07-.12A3.1,3.1,0,0,0,41.22,12a.85.85,0,0,0-.36-.55.77.77,0,0,0-.73.08,3.06,3.06,0,0,0-1.23,3c.23,1.52.61,3.2,2.23,3.79a2.42,2.42,0,0,0,1.72.06,3.81,3.81,0,0,0,1.34-1l.09-.09a4.68,4.68,0,0,1,1.35-.8c1.43-.55,1.77-1,1.79-1.29s-.18-.51-.6-.77l-.1-.06.08-.07a1.17,1.17,0,0,0,.34-1.18c-.18-.36-.73-.46-1.59-.3l-.18,0,.1-.16a.78.78,0,0,0,0-.87c-.24-.29-.71-.33-1.33-.1Z" fill="#bf6440"/><path d="M42,14.49a1.87,1.87,0,0,0-.59-.94l-.1.13a1.51,1.51,0,0,1,.42,1.84A1.11,1.11,0,0,0,42,14.49Z" fill="#bf6440"/><path d="M43.56,14.49a4.73,4.73,0,0,1,2-1.71l-.07-.15a4.81,4.81,0,0,0-2.12,1.79Z" fill="#bf6440"/><path d="M44.34,15.59c1.57-1.71,2.47-1.19,2.48-1.19l.09-.14s-1-.61-2.69,1.22Z" fill="#bf6440"/><path d="M44.27,15.23a1.74,1.74,0,0,0-.6-.78.89.89,0,0,0-.79-.13c.05,0,1.3.05,1.42,1.82A1.28,1.28,0,0,0,44.27,15.23Z" fill="#bf6440"/><path d="M36.08,40.47s3.06-.55,3.68,0,3,2.11,1.75,3.75a1.35,1.35,0,0,1-1.44,1.25,1,1,0,0,1-1.57.12c-.63-.62-1.73-2.51-2.57-2.52a2.6,2.6,0,0,0-1.91.47c-.4.44-1.8,1.09-1.86.1S34,41,36.08,40.47Z" fill="#e09068"/><path d="M40.25,42.25c.61,1.5-.54,1.72-1.24.89.15.41.38.8.17,1.11-1,1.13-1.76-3.29-5-1.3-1.14.58-1.6-.46-.68-1.18a6.1,6.1,0,0,1,2.62-1.3C40.65,39.48,41.62,43.25,40.25,42.25Z" fill="#fdb086"/><path d="M38.44,45.63a9.21,9.21,0,0,1-.67-.81c-.58-.75-1.3-1.68-1.85-1.69a4.1,4.1,0,0,0-1.4.16,1.11,1.11,0,0,0-.45.29,2.35,2.35,0,0,1-.86.54h0a1.05,1.05,0,0,1-.9,0,.6.6,0,0,1-.25-.5c-.06-1,1.4-2.35,3.12-3a6.11,6.11,0,0,1,.86-.25c.12,0,2.87-.74,3.75,0l.24.19c.79.64,2.64,2.12,1.54,3.65a1.4,1.4,0,0,1-1.46,1.3.93.93,0,0,1-.48.38A1.1,1.1,0,0,1,38.44,45.63Zm1.63-.26a1.24,1.24,0,0,0,1.35-1.17v0c1-1.4-.67-2.78-1.5-3.44l-.24-.2c-.82-.68-3.58,0-3.61,0a6,6,0,0,0-.84.24c-1.78.66-3.06,2-3,2.82a.45.45,0,0,0,.18.37.88.88,0,0,0,.75,0,2.21,2.21,0,0,0,.79-.49,1.27,1.27,0,0,1,.51-.33A4.25,4.25,0,0,1,35.93,43c.63,0,1.35.93,2,1.75a9.2,9.2,0,0,0,.65.79.94.94,0,0,0,1,.24.71.71,0,0,0,.41-.34l0-.05Z" fill="#bf6440"/><path d="M40,45.65s.65-.88-.94-2.54c-.75-.79-1.07-.75-1.07-.75,2.63,2.13,1.89,3.19,1.88,3.2Z" fill="#bf6440"/><path d="M41.56,44.37c0-.05,0-1.13-1.52-2.42A1.82,1.82,0,0,0,39,41.37c2.42,1.54,2.42,3,2.42,3Z" fill="#bf6440"/><path d="M2.53,19.7s1.71-.82,2.24.17,1.58,3.22,1,4.63A1.54,1.54,0,0,1,3.08,25C2.64,23.76,2.1,19.87,2.53,19.7Z" fill="#e09068"/><path d="M4.19,25.19a.68.68,0,0,0-.38-1c.58-.17.51-1.34.08-1.56,1-1-.16-2.35-1.52-1.89,0-.55,0-.94.15-1s1.71-.82,2.24.17a10.73,10.73,0,0,1,1,2.73A2.85,2.85,0,0,1,4.19,25.19Z" fill="#fdb086"/><path d="M3,25.08H3v0c-.4-1.14-1-5.22-.51-5.42l.27-.11c.48-.18,1.64-.5,2.08.32.76,1.42,1.54,3.39,1,4.7a2,2,0,0,1-1.09,1.05h0A1.47,1.47,0,0,1,3,25.08Zm-.46-5.3c-.31.13.1,3.76.59,5.2a1.33,1.33,0,0,0,1.5.45,1.83,1.83,0,0,0,1-1c.58-1.31-.35-3.42-1-4.55-.37-.7-1.44-.4-1.87-.24Z" fill="#bf6440"/><ellipse cx="2.27" cy="24.76" rx="1.02" ry="1.59" transform="translate(-22.54 26.38) rotate(-88.49)" fill="#e09068"/><path d="M.72,24.51a1.58,1.58,0,0,1,1.58-.77c.82,0,1.48.43,1.56.95C2.87,25.42,1.49,25.69.72,24.51Z" fill="#feb086"/><path d="M2.24,25.87a2.19,2.19,0,0,1-1.16-.34,1,1,0,0,1-.48-.81,1.1,1.1,0,0,1,.83-.93,2.37,2.37,0,0,1,.87-.14A2.19,2.19,0,0,1,3.46,24a1,1,0,0,1,.48.81,1.1,1.1,0,0,1-.83.93A2.37,2.37,0,0,1,2.24,25.87ZM.76,24.72a.81.81,0,0,0,.41.67,2,2,0,0,0,1.07.32,2.2,2.2,0,0,0,.81-.13c.44-.16.71-.45.72-.77a.81.81,0,0,0-.41-.67,2,2,0,0,0-1.07-.32,2.2,2.2,0,0,0-.81.13C1,24.11.77,24.4.76,24.72Z" fill="#bf6440"/><ellipse cx="2.01" cy="23.31" rx="1.18" ry="1.9" transform="translate(-21.34 24.7) rotate(-88.49)" fill="#e09068"/><path d="M.15,23A1.88,1.88,0,0,1,2,22.13,2,2,0,0,1,3.85,23,2.33,2.33,0,0,1,.15,23Z" fill="#feb086"/><path d="M2,24.57c-1.09,0-2-.62-2-1.31a1.26,1.26,0,0,1,1-1A2.89,2.89,0,0,1,2,22a2.67,2.67,0,0,1,1.38.39,1.1,1.1,0,0,1,.57.92,1.26,1.26,0,0,1-1,1A2.89,2.89,0,0,1,2,24.57ZM.19,23.26c0,.6.79,1.12,1.79,1.14a2.72,2.72,0,0,0,1-.15c.52-.19.84-.53.85-.89a.94.94,0,0,0-.5-.78A2.51,2.51,0,0,0,2,22.21a2.72,2.72,0,0,0-1,.15C.51,22.56.2,22.89.19,23.26Z" fill="#bf6440"/><ellipse cx="2.04" cy="21.76" rx="1.21" ry="1.96" transform="translate(-19.76 23.22) rotate(-88.48)" fill="#e09068"/><path d="M.38,21.1a2.39,2.39,0,0,1,1.7-.55,1.94,1.94,0,0,1,1.9,1A2.06,2.06,0,0,1,.38,21.1Z" fill="#feb086"/><path d="M2,23a2.76,2.76,0,0,1-1.42-.4A1.12,1.12,0,0,1,0,21.7c0-.45.38-.84,1-1.07a3,3,0,0,1,1.1-.17c1.13,0,2,.63,2,1.34,0,.45-.38.84-1,1.07A3,3,0,0,1,2,23ZM.17,21.71a1,1,0,0,0,.51.8A2.59,2.59,0,0,0,2,22.88a2.82,2.82,0,0,0,1-.16c.53-.2.86-.54.87-.92,0-.62-.81-1.15-1.85-1.17a2.82,2.82,0,0,0-1,.16C.5,21,.18,21.33.17,21.71Z" fill="#bf6440"/><path d="M3.09,31.9s-.82-1.85.8-2.62,4.41,0,4,2.95c.25.32,1.18,3.68-1.62,3.69C5.75,35.21,3.09,31.9,3.09,31.9Z" fill="#e09068"/><path d="M3.88,29.28c1.62-.77,4.41,0,4,2.95.22,1,.14,2.68-1.16,2.37.31-.47.51-1.1-.29-1.38.72-.63.06-2-.86-1.72-.71.24-.94,1.11-1.3,1.88L3.09,31.9S2.27,30,3.88,29.28Z" fill="#fdb086"/><path d="M6.27,36h0l0,0C5.69,35.26,3,32,3,32v0S2.18,30,3.85,29.2l.23-.1a3.17,3.17,0,0,1,3,.43A2.74,2.74,0,0,1,8,32.21a3.88,3.88,0,0,1,.25,2.45,1.68,1.68,0,0,1-1.07,1.2h0A2.58,2.58,0,0,1,6.27,36ZM3.92,29.35a1.88,1.88,0,0,0-.76,2.51c.15.19,2.6,3.23,3.15,4a2.39,2.39,0,0,0,.78-.13h0a1.52,1.52,0,0,0,1-1.09,3.67,3.67,0,0,0-.24-2.34l0,0v0A2.59,2.59,0,0,0,7,29.67a3,3,0,0,0-2.82-.41Z" fill="#bf6440"/><ellipse cx="5" cy="35.64" rx="1.91" ry="1.22" transform="translate(-6.27 1.46) rotate(-10.26)" fill="#e09068"/><path d="M3.11,35.9c0-.64.68-1.28,1.67-1.46a1.89,1.89,0,0,1,2,.64A3,3,0,0,1,3.11,35.9Z" fill="#fdb086"/><path d="M5.23,36.93a2.63,2.63,0,0,1-1.44-.12A1.14,1.14,0,0,1,3,36c-.11-.58.4-1.2,1.22-1.5a3,3,0,0,1,.51-.14,2.62,2.62,0,0,1,1.44.12,1.14,1.14,0,0,1,.76.81c.1.58-.4,1.2-1.23,1.5h0A3,3,0,0,1,5.23,36.93Zm-2-1a1,1,0,0,0,.66.69,2.45,2.45,0,0,0,1.35.11,2.87,2.87,0,0,0,.48-.13h0c.75-.28,1.21-.82,1.12-1.32a1,1,0,0,0-.66-.69,2.46,2.46,0,0,0-1.35-.11,2.88,2.88,0,0,0-.48.13C3.57,34.93,3.11,35.47,3.2,36Z" fill="#bf6440"/><ellipse cx="4.51" cy="34.26" rx="2.03" ry="1.22" transform="translate(-6.03 1.35) rotate(-10.26)" fill="#e09068"/><path d="M2.49,34.48c0-.62.77-1.24,1.79-1.42s2,.14,2.19.74A3.14,3.14,0,0,1,2.49,34.48Z" fill="#fdb086"/><path d="M4.74,35.54a2.91,2.91,0,0,1-1.52-.1,1.13,1.13,0,0,1-.79-.81c-.11-.58.41-1.19,1.28-1.51A3.38,3.38,0,0,1,4.27,33a2.91,2.91,0,0,1,1.52.1,1.13,1.13,0,0,1,.79.81c.11.58-.41,1.19-1.28,1.51h0A3.39,3.39,0,0,1,4.74,35.54Zm-2.15-.94a1,1,0,0,0,.69.68,2.75,2.75,0,0,0,1.44.09,3.22,3.22,0,0,0,.54-.15h0c.78-.29,1.26-.83,1.18-1.32a1,1,0,0,0-.69-.68,2.75,2.75,0,0,0-1.44-.09,3.24,3.24,0,0,0-.54.15C3,33.57,2.5,34.12,2.59,34.61Z" fill="#bf6440"/><ellipse cx="4.26" cy="32.81" rx="2.17" ry="1.22" transform="translate(-5.78 1.28) rotate(-10.26)" fill="#e09068"/><path d="M2.13,32.91A2.28,2.28,0,0,1,4,31.61c1.11-.2,2.11.11,2.32.7A3.1,3.1,0,0,1,2.13,32.91Z" fill="#fdb086"/><path d="M4.49,34.1c-1.22.22-2.32-.17-2.45-.88S2.48,32,3.38,31.7A3.84,3.84,0,0,1,4,31.53c1.22-.22,2.32.17,2.45.88S6,33.59,5.13,33.92A3.85,3.85,0,0,1,4.49,34.1ZM2.2,33.19c.11.62,1.12,1,2.26.75a3.68,3.68,0,0,0,.61-.17c.82-.3,1.32-.85,1.24-1.33s-1.13-1-2.26-.75a3.68,3.68,0,0,0-.61.17C2.62,32.16,2.12,32.71,2.2,33.19Z" fill="#bf6440"/><path d="M31.92,13.88s-1.35-.59-3.4,1.18a6.89,6.89,0,0,0,1.89.05A7.5,7.5,0,0,0,31.92,13.88Z" fill="#fdb086"/><path d="M32,13.9a1.54,1.54,0,0,0-1.11-.2,4.62,4.62,0,0,0-1.84.75,1.78,1.78,0,0,0-.59.65C30.45,13.39,32,13.89,32,13.9Z" fill="#bf6440"/><path d="M29.24,15.19a2.38,2.38,0,0,0-2.58.61" fill="#fdb086"/><path d="M29.21,15.26a1.46,1.46,0,0,0-1-.3,2.38,2.38,0,0,0-1.62.78l.12.11A2.31,2.31,0,0,1,29.21,15.26Z" fill="#bf6440"/><path d="M3.06,31.83s.89,1.92,1.95,1-.1-2.3-.1-2.3Z" fill="#e09068"/><path d="M4.91,30.57a3,3,0,0,1,.45.83c-.27.95-1.19,1-2.06.85a3.64,3.64,0,0,1-.24-.42Z" fill="#fdb086"/><path d="M4.73,33.14a1.14,1.14,0,0,0,.33-.2,1.52,1.52,0,0,0,.3-1.85,1.29,1.29,0,0,0-.51-.59S6,32,5,32.81a.76.76,0,0,1-.67.2c-.66-.15-1.16-1.23-1.17-1.24l-.14.1s.53,1.13,1.26,1.3A.83.83,0,0,0,4.73,33.14Z" fill="#bf6440"/><path d="M3.28,20.26S3.93,22,2.5,22.18c-1.76,0-1.33-1.92-.61-2.62a2.47,2.47,0,0,1,2.61-.49c1.42.54,1.68,3.2,1.07,3.72Z" fill="#e09068"/><path d="M1.61,20.73a1.1,1.1,0,0,1-.2-.41,2.2,2.2,0,0,1,.48-.77,2.47,2.47,0,0,1,2.61-.49c1.42.54,1.68,3.2,1.07,3.72L3.28,20.26a2.86,2.86,0,0,1,.13.55A1.36,1.36,0,0,1,1.61,20.73Z" fill="#fdb086"/><path d="M5.82,22.64a3.2,3.2,0,0,0,.06-1.54A2.59,2.59,0,0,0,4.52,19a2.55,2.55,0,0,0-2.69.51,2.15,2.15,0,0,0-.56,2.06,1.2,1.2,0,0,0,1.23.7,1,1,0,0,0,.83-.46,1.72,1.72,0,0,0,.17-1.14.77.77,0,0,0-.27-.46,2.12,2.12,0,0,1,0,1.51.89.89,0,0,1-.7.38,1.05,1.05,0,0,1-1.07-.6,2,2,0,0,1,.52-1.88,2.39,2.39,0,0,1,2.52-.47,2.44,2.44,0,0,1,1.26,2,2.22,2.22,0,0,1-.23,1.74S5.77,22.79,5.82,22.64Z" fill="#bf6440"/><path d="M17.33,13.33s-1.29-2.07.63-3c.44-.21,1,0,.76.15C17.67,11.08,17.4,12.63,17.33,13.33Z" fill="#752c03"/><path d="M17.26,13.38a2.8,2.8,0,0,1-.37-2,1.84,1.84,0,0,1,1-1.14c.35-.17.84-.11.93.08s0,.15-.1.21a3.71,3.71,0,0,0-1.35,2.8l0,.24Zm.8-3-.06,0a1.68,1.68,0,0,0-.95,1,2.46,2.46,0,0,0,.23,1.63,3.64,3.64,0,0,1,1.4-2.66h0A.8.8,0,0,0,18.06,10.37Z" fill="#4c1601"/><path d="M26.67,18.78l2.47-1.18s-.57,2.75-1.73,3.18S24,19.49,24,19.49Z" fill="#590202"/><path d="M28.28,19.92a1.91,1.91,0,0,1-.87.86,2,2,0,0,1-1.31-.12A2.09,2.09,0,0,1,28.28,19.92Z" fill="#f95858"/><path d="M26.34,20.37a2.25,2.25,0,0,1,1.92-.45A1.46,1.46,0,0,1,26.34,20.37Z" fill="#fc7575"/><path d="M26.07,20.74l-.1,0,.06-.09a1.7,1.7,0,0,1,.86-.69,2.85,2.85,0,0,1,1.4-.09l.12,0-.06.1a2,2,0,0,1-.92.9h0A2,2,0,0,1,26.07,20.74Zm.88-.66a1.54,1.54,0,0,0-.72.54,1.79,1.79,0,0,0,1.15.08,1.69,1.69,0,0,0,.77-.72A2.59,2.59,0,0,0,26.95,20.09Z" fill="#f42c2c"/><path d="M26.67,18.78l2.47-1.18a9.89,9.89,0,0,1-.59,1.81,3.86,3.86,0,0,0-3.07,1A10.12,10.12,0,0,1,24,19.49Z" fill="#7f0101"/><path d="M24,19.55l-.13-.1,2.79-.74,2.62-1.25,0,.16c0,.11-.6,2.8-1.78,3.24h0C26.25,21.3,24.07,19.62,24,19.55Zm2.71-.69-2.48.66c.5.36,2.22,1.53,3.16,1.18s1.49-2.36,1.64-3Z" fill="#bf6440"/><ellipse cx="20.01" cy="14.8" rx="2.14" ry="3.47" transform="translate(-3.88 7.83) rotate(-20.24)" fill="#e09068"/><ellipse cx="20.16" cy="15.14" rx="1.91" ry="3.1" transform="translate(-3.99 7.91) rotate(-20.24)" fill="#4c1601"/><ellipse cx="20.21" cy="15.28" rx="1.91" ry="2.95" transform="translate(-4.04 7.93) rotate(-20.24)" fill="#ddd"/><path d="M18.4,15.85c-.52-1.5-.17-3,.8-3.34s2.25.58,2.81,2.11a4.19,4.19,0,0,1,.27,1.55A5.63,5.63,0,0,1,18.4,15.85Z" fill="#fafafa"/><path d="M18.35,16c-.58-1.57-.21-3.15.82-3.53s2.34.59,2.91,2.16.21,3.15-.82,3.53S18.92,17.53,18.35,16Zm.16-.06c.55,1.48,1.76,2.41,2.7,2.06s1.27-1.84.72-3.32-1.76-2.41-2.7-2.06S18,14.42,18.5,15.91Z" fill="#4c1601"/><ellipse cx="20.85" cy="15.67" rx="1.07" ry="1.44" transform="translate(-4.13 8.18) rotate(-20.24)" fill="#9e480b"/><path d="M19.77,16.06a1.38,1.38,0,0,1,.55-1.83,1.38,1.38,0,0,1,1.6,1,1.38,1.38,0,0,1-.55,1.83A1.38,1.38,0,0,1,19.77,16.06Zm.16-.06c.26.7.88,1.12,1.39.94a1.22,1.22,0,0,0,.45-1.62c-.26-.7-.88-1.12-1.39-.94A1.22,1.22,0,0,0,19.93,16Z" fill="#662a01"/><ellipse cx="21" cy="15.98" rx="0.65" ry="0.88" transform="matrix(0.94, -0.35, 0.35, 0.94, -4.23, 8.25)"/><ellipse cx="20.87" cy="15.4" rx="0.42" ry="0.43" transform="translate(-4.04 8.17) rotate(-20.24)" fill="#fff"/><ellipse cx="20.51" cy="16.22" rx="0.21" ry="0.22" transform="translate(-4.35 8.09) rotate(-20.24)" fill="#fff"/><path d="M19.48,18.46s.62-1.37,3.33-1.36a7.55,7.55,0,0,1-1.44,1.3A7,7,0,0,1,19.48,18.46Z" fill="#fdb086"/><path d="M19.44,18.53s.85-1.39,3.47-1.38A1.4,1.4,0,0,0,22,17a4.57,4.57,0,0,0-1.93.65A1.47,1.47,0,0,0,19.44,18.53Z" fill="#bf6440"/><path d="M22.37,17.72a2.38,2.38,0,0,1,2.35-1.21" fill="#fdb086"/><path d="M22.45,17.76a2.28,2.28,0,0,1,2.27-1.17l0-.16a2.38,2.38,0,0,0-1.65.4A1.6,1.6,0,0,0,22.45,17.76Z" fill="#bf6440"/><path d="M25.4,15.36c1-.36,1.68-.42,1.64.3a2,2,0,0,1-1,1.54,2,2,0,0,1-1.73-.54C23.86,16.13,24.39,15.72,25.4,15.36Z" fill="#3a1301"/><path d="M24.65,15.69a4.7,4.7,0,0,1,.75-.33c1-.36,1.68-.42,1.64.3a2,2,0,0,1-.6,1.25A2.17,2.17,0,0,1,24.65,15.69Z" fill="#4f1c02"/><path d="M26.1,17.27h0a2.12,2.12,0,0,1-1.81-.57.59.59,0,0,1-.19-.54c.07-.31.45-.58,1.2-.85l.08,0c.82-.29,1.3-.34,1.55-.15a.58.58,0,0,1,.2.53,2.11,2.11,0,0,1-1,1.61ZM24.25,16.2a.43.43,0,0,0,.15.39,2,2,0,0,0,1.63.53h0A2,2,0,0,0,27,15.65a.43.43,0,0,0-.13-.39c-.27-.2-.93,0-1.4.17l-.08,0C24.68,15.71,24.31,16,24.25,16.2Z" fill="#260b00"/><path d="M30.24,16.17s-2.62,5.19-7.81,2.77" fill="#fdb086"/><path d="M26.83,19.35a7.18,7.18,0,0,0,3.48-3.15l-.15-.07c0,.05-2.65,5.09-7.7,2.74L22.4,19A5.59,5.59,0,0,0,26.83,19.35Z" fill="#bf6440"/><path d="M32.14,15.1a2.15,2.15,0,0,1-2.46,1" fill="#fdb086"/><path d="M31.09,16.1a2.17,2.17,0,0,0,.42-.21c.61-.42.55-.83.55-.83a2.06,2.06,0,0,1-2.37,1,1.54,1.54,0,0,0,.88.19A2.36,2.36,0,0,0,31.09,16.1Z" fill="#bf6440"/><path d="M20.1,19.54a2.15,2.15,0,0,0,2.54-.82" fill="#fdb086"/><path d="M21.55,19.62a2.51,2.51,0,0,0,.77-.46.63.63,0,0,0,.26-.49,2.06,2.06,0,0,1-2.44.8S20.38,20,21.55,19.62Z" fill="#bf6440"/><ellipse cx="26.17" cy="16" rx="0.5" ry="0.29" transform="translate(-3.92 10.04) rotate(-20.24)" fill="#a06145"/><ellipse cx="27.2" cy="20.25" rx="0.32" ry="0.13" transform="translate(-5.32 10.66) rotate(-20.24)" fill="#f9bdbd"/></svg>