<svg xmlns="http://www.w3.org/2000/svg" xmlns:xlink="http://www.w3.org/1999/xlink" viewBox="0 0 62.65 62.65"><defs><style>.cls-1{fill:none;}.cls-2{isolation:isolate;}.cls-3{fill:#2f331d;}.cls-4{fill:#525731;}.cls-5{fill:url(#radial-gradient);}.cls-6{fill:url(#linear-gradient);}.cls-7{fill:url(#linear-gradient-2);}.cls-8{fill:#00a7ee;}.cls-9{fill:#010101;}.cls-10{fill:#1e0e00;}.cls-11{fill:#0088c6;}.cls-12{fill:#31100d;}.cls-13{fill:#031825;}.cls-14{fill:#cdcac5;}.cls-15{fill:#1a1119;}.cls-16{fill:url(#radial-gradient-2);}.cls-17{fill:url(#linear-gradient-3);}.cls-18{fill:url(#linear-gradient-4);}.cls-19{fill:#e5e8d4;}.cls-20{fill:#dccbb6;}.cls-21{fill:#9d9d8a;}.cls-22{fill:#5a2835;}.cls-23{fill:#260617;}.cls-24{fill:#321029;}.cls-25{fill:#44323c;}.cls-26{fill:#e29813;}.cls-27{fill:#f4ab37;}.cls-28{fill:#3b0526;}.cls-29{fill:#a9783f;}.cls-30{clip-path:url(#clip-path);}.cls-31,.cls-32,.cls-34,.cls-35,.cls-52{mix-blend-mode:screen;}.cls-31{fill:url(#radial-gradient-3);}.cls-32{fill:url(#radial-gradient-4);}.cls-33{clip-path:url(#clip-path-2);}.cls-34{fill:url(#radial-gradient-5);}.cls-35{fill:url(#radial-gradient-6);}.cls-36{fill:#5c2312;}.cls-37{fill:#7a3a4e;}.cls-38{fill:#6a3526;}.cls-39{fill:#efac3f;}.cls-40{fill:#eea835;}.cls-41{fill:#f9af38;}.cls-42{fill:#af6d04;}.cls-43{fill:#c9b472;mix-blend-mode:multiply;}.cls-44{fill:#cc9a69;}.cls-45{fill:#633d3d;}.cls-46{fill:#442424;}.cls-47{fill:#fff;}.cls-48{fill:#7f4c36;}.cls-49{fill:#c7bdb4;}.cls-50{fill:#c1bbac;}.cls-51{fill:#afa194;}</style><radialGradient id="radial-gradient" cx="213" cy="-83.92" r="14.49" gradientTransform="translate(-67.1 -176.11) rotate(90) scale(1.02 1.02)" gradientUnits="userSpaceOnUse"><stop offset="0" stop-color="#7dcc00"/><stop offset="1" stop-color="#7db200"/></radialGradient><linearGradient id="linear-gradient" x1="196.71" y1="-50.49" x2="203.18" y2="-49.7" gradientTransform="translate(-28.89 -172.07) rotate(90)" gradientUnits="userSpaceOnUse"><stop offset="0" stop-color="#7dbd00"/><stop offset="0.44" stop-color="#7dc600"/><stop offset="1" stop-color="#7dcc00"/></linearGradient><linearGradient id="linear-gradient-2" x1="209.93" y1="-63.64" x2="210.46" y2="-56.91" xlink:href="#linear-gradient"/><radialGradient id="radial-gradient-2" cx="199.63" cy="-103.81" r="11.2" gradientTransform="translate(-67.1 -176.11) rotate(90) scale(1.02 1.02)" gradientUnits="userSpaceOnUse"><stop offset="0" stop-color="#29aad8"/><stop offset="1" stop-color="#2990ce"/></radialGradient><linearGradient id="linear-gradient-3" x1="183.09" y1="-70.75" x2="189.55" y2="-69.96" gradientTransform="translate(-28.89 -172.07) rotate(90)" gradientUnits="userSpaceOnUse"><stop offset="0" stop-color="#299bdb"/><stop offset="0.44" stop-color="#29a4d9"/><stop offset="1" stop-color="#29aad8"/></linearGradient><linearGradient id="linear-gradient-4" x1="196.31" y1="-83.9" x2="196.84" y2="-77.17" xlink:href="#linear-gradient-3"/><clipPath id="clip-path"><path class="cls-1" d="M42.58,27.94a2.51,2.51,0,0,0-.49-.33l-.27-.12-.09,0h0a1.77,1.77,0,0,0-1.23.06l-.25.12a2.64,2.64,0,0,0-.62-1.76l-.32,0-.36.05a2.69,2.69,0,0,0-.35.08.31.31,0,0,1-.09-.06.47.47,0,0,1-.08-.11.51.51,0,0,1-.05-.12l0-.17.15-.55h0L38.36,25A1.49,1.49,0,0,0,38,25a1.68,1.68,0,0,0-.39.06,2,2,0,0,0-.85.48,1.92,1.92,0,0,0-.31.41h0a1.79,1.79,0,0,0-.18.43,1.62,1.62,0,0,0-.06.39,1.4,1.4,0,0,0,0,.31,1.47,1.47,0,0,0,.05.21h0l.55-.14.17,0,.12.05.11.08a.31.31,0,0,1,.06.09,2.58,2.58,0,0,0-.08.35c0,.1,0,.22-.05.36s0,.2,0,.32a2.63,2.63,0,0,0,1.76.62,1.78,1.78,0,0,0-.12.25,1.75,1.75,0,0,0-.06,1.23h0l0,.09a1.87,1.87,0,0,0,.12.27h0a2.55,2.55,0,0,0,.33.48,3.39,3.39,0,0,0,.37.38l.33.26a5.24,5.24,0,0,0,.76.45l.33.15.49.19h0a7.64,7.64,0,0,0,.79.24,6.44,6.44,0,0,0,.79.15A2,2,0,0,0,44.33,33a2,2,0,0,0,.08-1.23h0a6.9,6.9,0,0,0-.15-.79h0a8,8,0,0,0-.25-.79h0q-.09-.24-.19-.49l-.15-.33a5.12,5.12,0,0,0-.46-.76,4,4,0,0,0-.26-.32A3.39,3.39,0,0,0,42.58,27.94Z"/></clipPath><radialGradient id="radial-gradient-3" cx="4565.16" cy="-410.18" r="10.51" gradientTransform="matrix(0.31, 0, 0, 0.44, -1370.62, 210.11)" gradientUnits="userSpaceOnUse"><stop offset="0" stop-color="#fae282"/><stop offset="0.19" stop-color="#e0853b"/><stop offset="0.37" stop-color="#78471e"/><stop offset="0.53" stop-color="#40260f"/><stop offset="0.7" stop-color="#140c03"/><stop offset="0.84" stop-color="#060401"/><stop offset="1"/></radialGradient><radialGradient id="radial-gradient-4" cx="4565.22" cy="-421.47" r="5.14" gradientTransform="matrix(0.31, 0, 0, 0.44, -1373.99, 211.46)" xlink:href="#radial-gradient-3"/><clipPath id="clip-path-2"><path class="cls-1" d="M36.5,23.88a3.58,3.58,0,0,0-.39,0h0l-.35,0a.54.54,0,0,0-.57.57,2.72,2.72,0,0,0,0,.35,3.35,3.35,0,0,0,0,.39s-.22,1,1.13,1.14a1.79,1.79,0,0,1,.18-.43h0a1.92,1.92,0,0,1,.31-.41,2,2,0,0,1,.85-.48C37.53,23.66,36.5,23.88,36.5,23.88Z"/></clipPath><radialGradient id="radial-gradient-5" cx="3891.99" cy="-128.38" r="5.14" gradientTransform="matrix(0, 0.31, -0.44, 0, -19.64, -1177.52)" xlink:href="#radial-gradient-3"/><radialGradient id="radial-gradient-6" cx="3895.09" cy="-131.75" r="5.14" gradientTransform="matrix(0, 0.31, -0.44, 0, -19.9, -1179.74)" xlink:href="#radial-gradient-3"/></defs><title>left icon</title><g class="cls-2"><g id="Layer_1" data-name="Layer 1"><circle class="cls-3" cx="31.33" cy="31.33" r="31.33"/><path class="cls-4" d="M31.33,61.65A30.33,30.33,0,1,1,61.65,31.33,30.36,30.36,0,0,1,31.33,61.65Z"/><rect class="cls-5" x="8.29" y="30.87" width="20.27" height="20.27"/><polygon class="cls-6" points="13.83 25.13 8.29 30.87 28.55 30.87 34.1 25.13 13.83 25.13"/><polygon class="cls-7" points="34.1 25.13 28.55 30.87 28.55 51.14 34.1 45.41 34.1 25.13"/><g id="_Group_" data-name="&lt;Group&gt;"><path class="cls-8" d="M18.66,40.43c.17.13.41.11.61.23a7.94,7.94,0,0,1,.88.61c.52,1.59-.26,2.57,1,3.76a1.77,1.77,0,0,0-.32.24c-.23.27.12.71-.1,1s-.46-.46-.8-.05c-.15.18-.17.47-.29.68-.45-.23-1-.7-1.47-.22a.17.17,0,0,1-.25,0c-.13-.11-.25-.39-.37-.49s-.64.3-.79.18,0-.68-.27-1a.11.11,0,0,1,0-.12,1.38,1.38,0,0,0,.11-.91c.37-1.8,1.77-2.42,2.09-3.89-1.39.56-1.76,2-3.48,2.71a1.38,1.38,0,0,0-.87.26.11.11,0,0,1-.12,0c-.35-.26-.84,0-1-.1s.2-.68,0-.81-.41-.17-.54-.28a.17.17,0,0,1,0-.25c.39-.54-.16-1-.46-1.42.19-.15.47-.22.62-.4.35-.41-.31-.64-.18-.78s.7,0,.93-.26a1.77,1.77,0,0,0,.18-.35c1.38,1,2.22.08,3.87.33a7.94,7.94,0,0,1,.75.76C18.48,40,18.5,40.28,18.66,40.43Z"/><path class="cls-9" d="M21.9,46.19c-.21.25-.56-.13-.74.07s.15.56-.11.88-.74-.33-1,0-.17.48-.36.7-.43-.27-1.07.28c-.08.07-.29-.05-.35,0-.8.95-.66,2-1,2.33-.11.13-.23.22-.44,0-.37-.32,0-.77.38-1.18l.16-.19a.85.85,0,0,0-.08-1c-.28-.24-.6.11-.72,0s0-.24-.14-.37-.53.12-.81-.11.5-.78.24-1l-.2-.14c-.36-.31.65-.81.73-1.69a4.35,4.35,0,0,1,.07-.43,1.38,1.38,0,0,1-.11.91.11.11,0,0,0,0,.12c.31.3.11.84.27,1s.64-.31.79-.18.23.37.37.49a.17.17,0,0,0,.25,0c.47-.48,1,0,1.47.22.12-.21.14-.5.29-.68.35-.41.68.2.8.05s-.13-.69.1-1a1.77,1.77,0,0,1,.32-.24c-1.22-1.2-.45-2.17-1-3.76l.15.12C22.8,43.51,22.07,46,21.9,46.19Z"/><path class="cls-9" d="M12.44,38.19c-.21.25.23.53.05.74s-.58-.06-.85.26.45.67.21,1-.44.25-.63.47.34.38-.1,1.1c-.05.09.1.27,0,.35-.8.95-1.85,1-2.14,1.33-.11.13-.18.27,0,.44.37.32.75-.16,1.1-.58l.16-.19a.85.85,0,0,1,1-.09c.28.24,0,.61.11.71s.24,0,.39.08,0,.54.25.78.69-.62.94-.4l.17.17c.36.31.69-.77,1.55-1l.41-.14a1.38,1.38,0,0,0-.87.26.11.11,0,0,1-.12,0c-.35-.26-.84,0-1-.1s.2-.68,0-.81-.41-.17-.54-.28a.17.17,0,0,1,0-.25c.39-.54-.16-1-.46-1.42.19-.15.47-.22.62-.4.35-.41-.31-.64-.18-.78s.7,0,.93-.26a1.77,1.77,0,0,0,.18-.35c1.38,1,2.22.08,3.87.33L17.44,39C14.93,36.86,12.61,38,12.44,38.19Z"/></g><path class="cls-10" d="M18.19,41.5c-.55,1,.14.59-1.29,3.18-.12.22-.42.72-.66.8l0,0a.54.54,0,0,1,.12-.15,11.67,11.67,0,0,0,1.4-2.47,5.82,5.82,0,0,1,.42-1.35Z"/><path class="cls-10" d="M17.7,41.1c-.82.65-1,.19-3.13,2.07a2.06,2.06,0,0,0-.33.37.54.54,0,0,1-.13.14h0c.06-.4,1.24-1.22,1.64-1.51a4.35,4.35,0,0,1,1.36-.73,2.69,2.69,0,0,0,.6-.35Z"/><path class="cls-10" d="M18.32,41.3c0,.41.13.49.1.75-.06.7-.12,2,.58,1.85.05,0,0,0,.08-.05l.14-.16c.36-.38-.19-.83,0-1.46h0c-.18.62.38,1.07,0,1.47-.19.22-.17.24-.35.23-.82-.07-.47-1.82-.57-2.19a.87.87,0,0,1,0-.45Z"/><path class="cls-10" d="M17.86,40.94a.87.87,0,0,1-.45,0c-.34,0-.35.07-1.05.17-.54.08-1.23.06-1.22-.48,0-.07,0-.06,0-.1s.17-.23.29-.3c.38-.18.79.14,1.3-.1v0c-.68.33-1.16-.32-1.61.44a.29.29,0,0,0,0,.15c.16.6,1.32.31,1.91.16.25-.07.36,0,.76,0Z"/><path class="cls-10" d="M19.38,43.36a5.27,5.27,0,0,1,1.43,2.38h0A8.27,8.27,0,0,0,19.38,43.36Z"/><path class="cls-10" d="M15.65,40.2a8.24,8.24,0,0,0-2.59-1v0A5.42,5.42,0,0,1,15.65,40.2Z"/><path class="cls-10" d="M19.13,43.82c.62,1.86.27.89.82,2.76a.23.23,0,0,1,0,.13h0a.24.24,0,0,1-.06-.12C19.4,44.85,19.78,46.08,19.13,43.82Z"/><path class="cls-10" d="M15.23,40.53c-2.36-.27-1.1-.1-2.86-.28a.24.24,0,0,1-.13,0v0a.23.23,0,0,1,.13,0C14.35,40.42,13.27,40.23,15.23,40.53Z"/><path class="cls-10" d="M18.78,43.92c-.13.7-.08,1.71-.29,2.9l-.1,0C18.64,45.62,18.62,44.62,18.78,43.92Z"/><path class="cls-10" d="M15.19,40.89c-.68.28-1.62.41-2.76.87l0-.09C13.56,41.24,14.5,41.15,15.19,40.89Z"/><path class="cls-10" d="M18.55,43.68c-.23.64-.31.34-.64,1.4-.22.68-.11.36-.5,1.47l-.08,0c.42-1.11.28-.72.63-1.72C18.13,44.27,18.35,44.19,18.55,43.68Z"/><path class="cls-10" d="M15.47,41.08a6.61,6.61,0,0,0-.75.62s-1,.55-1.83,1.05l0-.07c2.35-1.3,1.52-.71,2.4-1.45A1.54,1.54,0,0,1,15.47,41.08Z"/><path class="cls-10" d="M18.38,42.94c-.73,1.07-1.22,2.66-2,3.14l0,0a1.5,1.5,0,0,1,.21-.28C17.66,44.43,17.43,44.15,18.38,42.94Z"/><path class="cls-10" d="M16.23,41.13c-1,1.1-1.38,1-2.48,2.31a1.5,1.5,0,0,1-.24.25l0,0C13.81,42.8,15.35,42,16.23,41.13Z"/><g id="_Group_2" data-name="&lt;Group&gt;"><path class="cls-11" d="M21.28,41c-.07-.1-.12-.16-.11-.14Zm-3.52-3-.15-.09Zm1.31,1.9.37-.19a2.67,2.67,0,0,0,3-.3c.42-.44,1.07-.14,1.65,0l-.1.09c-.14.17,0,.31.12.44.72.61-.85-.29.28,1a9.62,9.62,0,0,1-1-.18c.06.28.39.4.41.69a2.13,2.13,0,0,1-.8-.41C23,41,23,41,23,41a6.56,6.56,0,0,1,.43.67c.07.15.18.39.2.42.24.35-.6-.2-1.34-.83a1.72,1.72,0,0,1-.25-.26h0s1.66,2.26,1,1.68-.46-.3-1.2-.89l-.35-.48a3,3,0,0,0-.2-.28l.2.28.12.19s1.19,2,.75,1.68-.72-.37-1-.62a1.07,1.07,0,0,1-.21-.23c.37.61.67,1.28,1.08,1.87l-.06,0c-.76-.64-1.34-1.41-1.89-1.87-.29-.24-.6-.47-.89-.71a3.06,3.06,0,0,1-.84-1,3.06,3.06,0,0,1-1.13-.66c-.29-.24-.56-.51-.85-.76-.55-.46-1.4-.91-2.16-1.55l-.06-.05c.64.3,1.36.48,2,.75a1.07,1.07,0,0,1-.26-.17c-.3-.25-.48-.64-.78-.9s1.75.45,1.78.46l.21.08.31.15-.31-.15-.53-.26c-.7-.63-.53-.58-1.07-1s1.82.68,1.82.68h0a1.72,1.72,0,0,1-.29-.2c-.75-.62-1.42-1.36-1-1.18l.45.13a6.55,6.55,0,0,1,.73.32s0,0-.06-.07a2.13,2.13,0,0,1-.54-.72c.29,0,.47.27.75.28a9.64,9.64,0,0,1-.34-.92c1.48.89.33-.5,1.05.11.16.14.31.22.46,0l.08-.11c.2.55.6,1.15.24,1.63a2.67,2.67,0,0,0,.22,3.05Q19.14,39.74,19.08,39.93Z"/><path class="cls-9" d="M22.3,41.28c.74.63,1.58,1.18,1.34.83,0,0-.13-.27-.2-.42A6.1,6.1,0,0,0,23,41s0,0,.08,0a2.13,2.13,0,0,0,.8.41c0-.3-.34-.42-.41-.69a9.62,9.62,0,0,0,1,.18c-1.13-1.31.44-.41-.28-1-.16-.14-.27-.27-.12-.44l.1-.09c-.57-.1-1.23-.41-1.65,0a2.67,2.67,0,0,1-3,.3c2.07-1,5.68-1.5,7.66.17.6.51,1,1.51.69,1.93-.23.27-1.28.36-2,1.25-.14.17-.3.42-.31.43-.22.26-.65.27-1,.47-.67.42-1.07,1.21-2.29.22-.4-.59-.7-1.26-1.08-1.87a1.07,1.07,0,0,0,.21.23c.3.25.72.36,1,.62s-.74-1.65-.75-1.68-.41-.59-.45-.65a6.79,6.79,0,0,0,.73.86,9.15,9.15,0,0,0,1.14,1c.69.58-1-1.68-1-1.68h0A1.72,1.72,0,0,0,22.3,41.28Z"/><path class="cls-9" d="M17.21,37c-.75-.62-1.42-1.36-1-1.18l.45.13a6.09,6.09,0,0,1,.73.32s0,0-.06-.07a2.13,2.13,0,0,1-.54-.72c.29,0,.47.27.75.28a9.64,9.64,0,0,1-.34-.92c1.48.89.33-.5,1.05.11.16.14.31.22.46,0l.08-.11c.2.55.6,1.15.24,1.63a2.67,2.67,0,0,0,.22,3.05c.6-2.2.53-5.85-1.45-7.52-.6-.51-1.66-.78-2-.36-.23.27-.14,1.33-.89,2.21-.14.17-.36.36-.37.38-.22.26-.16.68-.3,1-.31.73-1,1.26.17,2.29.64.3,1.36.48,2,.75a1.07,1.07,0,0,1-.26-.17c-.3-.25-.48-.64-.78-.9s1.75.45,1.78.46l.71.33a6.79,6.79,0,0,1-1-.58,9.15,9.15,0,0,1-1.14-1c-.69-.58,1.82.68,1.82.68h0A1.72,1.72,0,0,1,17.21,37Z"/></g><path class="cls-10" d="M22.39,39.35c.48-.29.95.36,1.11.29.34-.31.43-.42.76-.37v0a.47.47,0,0,0-.31,0c-.66.42-.22.52-.94.11-.41-.25-.61-.07-.61-.07Z"/><path class="cls-10" d="M19.07,36.55a.43.43,0,0,0,0-.31,2.11,2.11,0,0,0-.44-.58c-.17-.21,0-.15.22-.65,0-.2,0-.15,0-.31h0c.11.32,0,.43-.24.81,0,.17.67.54.47,1.05Z"/><path class="cls-10" d="M23.53,39.64s.07,0,.11.1a1.46,1.46,0,0,1-.17,1.07c-.57.61-2.76,0-4.1-.21-.75-.11-.79,0-.91-.49-.39-1.48-1.41-3.39-1.09-4.21.06-.19.15-.26.5-.42s.57-.21.73,0l0,0c-.14-.2-.48-.09-.7,0-.81.37-.66.72.27,3.47.08.25.16.49.23.75.13.46.11.58.22.74h0a.91.91,0,0,0,.38.06c1.56.07,3.78.79,4.39.31.18-.11.42-.87.21-1.13,0,0-.05,0-.08-.05Z"/><path class="cls-10" d="M21.3,42.6l-.58-.66c-1-1.06-1.35-.82-2.21-1.34a3.21,3.21,0,0,1-.49-.73c-.49-.8-.64-.88-1.94-1.68h0c2.28,1.16,1.66,1.41,2.47,2.39h0c1.07.62,1.25,0,2.77,2Z"/><path class="cls-10" d="M18.85,40.72c.07,0,.09.09.15.13.39.36.6.47.53.86,0-.56-.64-.72-.7-1Z"/><path class="cls-10" d="M18.33,40.31c-.26,0-.54-.66-1.08-.53.33-.12.51,0,.78.26a3,3,0,0,0,.27.2l0,0Z"/><path class="cls-10" d="M18.52,40.92c.17.92,0,.7,1.3,1.82a7.1,7.1,0,0,1,1.6,1.74h0a6.74,6.74,0,0,0-1.6-1.72c-1.34-1.13-1.24-1-1.3-1.85Z"/><path class="cls-10" d="M18.2,40.68c-.86.08-.69.16-2-1a6.71,6.71,0,0,0-2-1.29v0c1.68.69,2.68,2.19,3.42,2.27h.57Z"/><path class="cls-12" d="M19.16,39.79c-.17.33-.2.83-.42,1.2l-.79.77c0,.05-1.33,1.37-1.5,1.23s.93-1.59,1-1.64l.62-.95C18.38,40.13,18.87,40,19.16,39.79Z"/><path class="cls-13" d="M20,38.85c.09.1,0,.42,0,.51s-.09.06-.24-.07h0l0,0,0,0h0c-.15-.12-.16-.17-.11-.23S19.85,38.77,20,38.85Z"/><path class="cls-14" d="M20,39l0,0a.16.16,0,0,0,0,.18s.05,0,.1,0A.13.13,0,0,0,20,39Z"/><path class="cls-14" d="M19.77,38.84l0,0c-.07.08-.15.08-.18.07s0,0,0-.1a.13.13,0,0,1,.18,0Z"/><path class="cls-15" d="M19.67,39.2l.05,0a.31.31,0,0,1,.07.09.64.64,0,0,1-.12.74,2.11,2.11,0,0,1-.77.5c-.13,0-.51-.25-.47-.41a2,2,0,0,1,.37-.84.64.64,0,0,1,.72-.24l.1.06Z"/><path class="cls-15" d="M19.9,39c.32-.58,2.38.13,3.1-.35.19-.13.19-.23.15-.23h0l0,0s0,.06,0,.1c-.57.7-2.58-.09-3.2.49Z"/><path class="cls-15" d="M19.88,38.87c.31-.53-.43-2.66-.26-3.15,0,0,0-.08.06-.07a0,0,0,0,1,0,0s0,0,0,0c-.23,0,.09,1.37.14,1.59.18.88.26,1.4.11,1.66Z"/><rect class="cls-16" x="28.55" y="17.24" width="20.27" height="20.27"/><polygon class="cls-17" points="34.1 11.51 28.55 17.24 48.82 17.24 54.36 11.51 34.1 11.51"/><polygon class="cls-18" points="54.36 11.51 48.82 17.24 48.82 37.52 54.36 31.78 54.36 11.51"/><path class="cls-19" d="M33.08,30.45a1,1,0,0,1,.92-.11,5.83,5.83,0,0,0-.46.85,2.74,2.74,0,0,1-.81.44C32.43,31,33.08,30.45,33.08,30.45Z"/><path class="cls-19" d="M33,29.29a1.16,1.16,0,0,1,1.1,0,6,6,0,0,0-.79.84s-.63.3-.9,0A1.46,1.46,0,0,1,33,29.29Z"/><path class="cls-19" d="M33.08,30.45s-.65.57-.34,1.18a2.94,2.94,0,0,1-.4.11c0-.4-.55-.79-.55-.79A2.14,2.14,0,0,0,33.08,30.45Z"/><path class="cls-19" d="M33.31,30.1a3.47,3.47,0,0,0-.23.35,2.14,2.14,0,0,1-1.29.5c0-.26-.13-.32-.13-.32a1.7,1.7,0,0,1,.7-.56h.05C32.68,30.4,33.31,30.1,33.31,30.1Z"/><path class="cls-19" d="M31.38,30.65a.07.07,0,0,1,0,0,2.33,2.33,0,0,1-.58-.58c.32.31.87-.19.87-.19a.56.56,0,0,0,.73.23,1.7,1.7,0,0,0-.7.56A.44.44,0,0,1,31.38,30.65Z"/><path class="cls-20" d="M31.66,30.63s.14.07.13.32a.48.48,0,0,1-.33.06.69.69,0,0,1-.07-.17.37.37,0,0,1,0-.19A.44.44,0,0,0,31.66,30.63Z"/><path class="cls-19" d="M31.79,31s.54.39.55.79a4,4,0,0,1-1.33,0,1.54,1.54,0,0,1,.45-.77A.48.48,0,0,0,31.79,31Z"/><path class="cls-19" d="M31.38,30.84a.69.69,0,0,0,.07.17,1.54,1.54,0,0,0-.45.77,4.62,4.62,0,0,1-.72-.16.91.91,0,0,0-.42-.58,1.81,1.81,0,0,0,.79,0A2.59,2.59,0,0,0,31.38,30.84Z"/><path class="cls-19" d="M31.34,30.62a.07.07,0,0,0,0,0,.37.37,0,0,0,0,.19,2.59,2.59,0,0,1-.74.23,1.34,1.34,0,0,1,.11-1A2.33,2.33,0,0,0,31.34,30.62Z"/><path class="cls-19" d="M29.86,31a.91.91,0,0,1,.42.58,1.79,1.79,0,0,1-1-.54,1.07,1.07,0,0,1,.08-.27s0,.29.47.23Z"/><path class="cls-19" d="M29.73,30.3h0a.34.34,0,0,0,.27.14.76.76,0,0,1-.15.59c-.44.06-.47-.23-.47-.23A1.73,1.73,0,0,1,29.73,30.3Z"/><path class="cls-20" d="M31.4,29.17a.33.33,0,0,1,.38.25s-.09.27-.15.42-.55.5-.87.19a1,1,0,0,1,.26-.66l.38-.2Z"/><path class="cls-19" d="M31.78,29.42c.82-.69,1.23-.14,1.23-.14a1.46,1.46,0,0,0-.6.77h-.05a.56.56,0,0,1-.73-.23C31.69,29.7,31.78,29.42,31.78,29.42Z"/><path class="cls-19" d="M30,30.45c.34,0,.76-.41.76-.41a1.34,1.34,0,0,0-.11,1,1.81,1.81,0,0,1-.79,0h0A.76.76,0,0,0,30,30.45Z"/><path class="cls-19" d="M31,29.37a1,1,0,0,0-.26.66s-.42.43-.76.41a.34.34,0,0,1-.27-.14h0A5.33,5.33,0,0,1,31,29.37Z"/><path class="cls-19" d="M42.35,18.55h0a1.81,1.81,0,0,1,0,.79,1.35,1.35,0,0,0-1,.11s.43-.42.41-.76A.76.76,0,0,0,42.35,18.55Z"/><path class="cls-19" d="M42.12,18.08s.29,0,.23.47a.76.76,0,0,1-.6.15.34.34,0,0,0-.14-.27h0A1.73,1.73,0,0,1,42.12,18.08Z"/><path class="cls-19" d="M42,20.08a.44.44,0,0,1,0,.28,1.7,1.7,0,0,0-.56.7.56.56,0,0,0-.23-.73s.5-.55.19-.87a2.28,2.28,0,0,1,.58.58A.07.07,0,0,1,42,20.08Z"/><path class="cls-19" d="M40.68,19.71a1,1,0,0,1,.66-.25c.31.32-.19.87-.19.87l-.42.15a.33.33,0,0,1-.25-.38h0Z"/><path class="cls-19" d="M42.35,18.56a.9.9,0,0,0,.58.42,4.62,4.62,0,0,1,.16.72,1.53,1.53,0,0,0-.77.45.69.69,0,0,0-.17-.07,2.59,2.59,0,0,0,.23-.74A1.81,1.81,0,0,0,42.35,18.56Z"/><path class="cls-20" d="M42.15,20.08a.69.69,0,0,1,.17.07.48.48,0,0,1-.06.33c-.26,0-.32-.13-.32-.13a.44.44,0,0,0,0-.28A.36.36,0,0,1,42.15,20.08Z"/><path class="cls-19" d="M41.61,18.43a.34.34,0,0,1,.14.27c0,.35-.41.76-.41.76a1,1,0,0,0-.66.25,5.32,5.32,0,0,1,.93-1.29Z"/><path class="cls-19" d="M42.39,18a1.79,1.79,0,0,1,.54,1,.9.9,0,0,1-.58-.42h0c.06-.44-.23-.47-.23-.47A1.07,1.07,0,0,1,42.39,18Z"/><path class="cls-19" d="M42.32,20.15a1.53,1.53,0,0,1,.77-.45,4,4,0,0,1,0,1.33c-.4,0-.79-.55-.79-.55A.48.48,0,0,0,42.32,20.15Z"/><path class="cls-20" d="M41.34,19.46a1.35,1.35,0,0,1,1-.11,2.59,2.59,0,0,1-.23.74.36.36,0,0,0-.19,0,.07.07,0,0,0,0,0A2.28,2.28,0,0,0,41.34,19.46Z"/><path class="cls-19" d="M41.94,20.36s.07.14.32.13a2.14,2.14,0,0,1-.5,1.29,3.55,3.55,0,0,0-.35.23s.3-.63,0-.9v0h0A1.7,1.7,0,0,1,41.94,20.36Z"/><path class="cls-19" d="M42.26,20.48s.39.54.79.55a2.83,2.83,0,0,1-.11.4c-.61-.31-1.18.34-1.18.34A2.14,2.14,0,0,0,42.26,20.48Z"/><path class="cls-19" d="M42.94,21.44a2.74,2.74,0,0,1-.44.81,5.68,5.68,0,0,0-.84.46,1,1,0,0,1,.11-.92S42.33,21.13,42.94,21.44Z"/><path class="cls-20" d="M34,30.34a9.59,9.59,0,0,1,.71-1,6.48,6.48,0,0,1,0,1.76,1.46,1.46,0,0,1-1.16.06A5.83,5.83,0,0,1,34,30.34Z"/><path class="cls-20" d="M35.08,30.94a4.77,4.77,0,0,1,1.34-2.49,4.41,4.41,0,0,0-.6,1.87A3.72,3.72,0,0,1,35.08,30.94Z"/><path class="cls-20" d="M34.52,27.94a.49.49,0,0,0,0,.29A2.62,2.62,0,0,0,33,29.29s-.41-.56-1.23.14a.33.33,0,0,0-.38-.25h0A22.66,22.66,0,0,1,34.52,27.94Z"/><path class="cls-20" d="M34.71,29.37a9.59,9.59,0,0,0-.71,1,1,1,0,0,0-.92.11,3.47,3.47,0,0,1,.23-.35,6,6,0,0,1,.79-.84h0a8.2,8.2,0,0,1,.83-.66.89.89,0,0,0,.45,0C35.13,28.88,34.91,29.13,34.71,29.37Z"/><path class="cls-19" d="M37.17,28.32h0c0,.19,0,.41,0,.65a1.22,1.22,0,0,1-.57,1,4.2,4.2,0,0,0,0-1.79l.19-.29A2.87,2.87,0,0,0,37.17,28.32Z"/><path class="cls-19" d="M36.55,28.21l-.13.23a4.77,4.77,0,0,0-1.34,2.49,2.38,2.38,0,0,1-.37.19,6.48,6.48,0,0,0,0-1.76c.19-.24.42-.49.67-.75C35.38,28.62,35.73,29,36.55,28.21Z"/><path class="cls-20" d="M36.55,28.21h0a4.2,4.2,0,0,1,0,1.79,2.12,2.12,0,0,1-.77.31,4.41,4.41,0,0,1,.6-1.87Z"/><path class="cls-20" d="M36.39,27.4a1.59,1.59,0,0,0,.11.22,12.58,12.58,0,0,0-1.12,1,.89.89,0,0,1-.45,0,.59.59,0,0,1-.42-.37.49.49,0,0,1,0-.29C35.27,27.7,35.93,27.52,36.39,27.4Z"/><path class="cls-20" d="M36.51,27.62a2.21,2.21,0,0,0,.23.3l-.19.29h0c-.82.79-1.16.41-1.16.41A12.58,12.58,0,0,1,36.51,27.62Z"/><path class="cls-20" d="M34.51,28.23a.59.59,0,0,0,.42.37,8.2,8.2,0,0,0-.83.66h0a1.16,1.16,0,0,0-1.1,0A2.62,2.62,0,0,1,34.51,28.23Z"/><path class="cls-20" d="M41.31,25.28a1.22,1.22,0,0,1-1,.57l-.65,0h0a2.85,2.85,0,0,0-.39-.44l.29-.19A4.19,4.19,0,0,0,41.31,25.28Z"/><path class="cls-20" d="M41.15,20.33a.56.56,0,0,1,.23.73h0v0a1.45,1.45,0,0,0-.77.59s-.56-.41.14-1.22Z"/><path class="cls-20" d="M39.54,23.21a2.62,2.62,0,0,1,1.06-1.51,1.16,1.16,0,0,0,0,1.09h0a8.2,8.2,0,0,0-.66.83A.59.59,0,0,0,39.54,23.21Z"/><path class="cls-20" d="M42.43,23.41a2.4,2.4,0,0,1-.19.37,4.78,4.78,0,0,0-2.49,1.34h0l-.24.13c.79-.82.41-1.16.41-1.16.26-.25.51-.48.75-.67A6.47,6.47,0,0,0,42.43,23.41Z"/><path class="cls-20" d="M40.67,23.41c-.24.19-.49.42-.75.67a.88.88,0,0,0,0-.45,8.2,8.2,0,0,1,.66-.83h0A6,6,0,0,1,41.4,22a3.55,3.55,0,0,1,.35-.23,1,1,0,0,0-.11.92A9.23,9.23,0,0,0,40.67,23.41Z"/><path class="cls-20" d="M40.48,20.1h0a.33.33,0,0,0,.25.38c-.69.81-.14,1.22-.14,1.22a2.62,2.62,0,0,0-1.06,1.51.5.5,0,0,0-.29,0A22.55,22.55,0,0,1,40.48,20.1Z"/><path class="cls-20" d="M42.49,22.24a1.46,1.46,0,0,1-.06,1.16,6.47,6.47,0,0,1-1.76,0,9.23,9.23,0,0,1,1-.71A5.68,5.68,0,0,1,42.49,22.24Z"/><path class="cls-19" d="M41.36,21.11c.34.27,0,.9,0,.9a6,6,0,0,0-.85.79,1.16,1.16,0,0,1,0-1.09A1.45,1.45,0,0,1,41.36,21.11Z"/><path class="cls-20" d="M39.75,25.11a4.38,4.38,0,0,1,1.86-.6,2.12,2.12,0,0,1-.31.77,4.19,4.19,0,0,1-1.79,0Z"/><path class="cls-19" d="M42.24,23.77a3.73,3.73,0,0,1-.62.73,4.38,4.38,0,0,0-1.86.6h0A4.78,4.78,0,0,1,42.24,23.77Z"/><path class="cls-20" d="M39.93,24.08s.38.35-.41,1.16l-.29.19a2.25,2.25,0,0,0-.3-.23A12.53,12.53,0,0,1,39.93,24.08Z"/><path class="cls-20" d="M39.54,23.21a.59.59,0,0,1,.37.42.88.88,0,0,1,0,.45,12.53,12.53,0,0,0-1,1.12l-.22-.11c.12-.46.31-1.12.55-1.87A.5.5,0,0,1,39.54,23.21Z"/><path class="cls-21" d="M36.34,27.26h0a.9.9,0,0,0,.05.14c-.46.12-1.13.31-1.87.55a22.66,22.66,0,0,0-3.12,1.23l-.38.2a5.33,5.33,0,0,0-1.29.93,1.73,1.73,0,0,0-.35.51,1.07,1.07,0,0,0-.08.27C28.72,29.48,34.31,27.81,36.34,27.26Z"/><path class="cls-21" d="M42.39,18a1.07,1.07,0,0,0-.27.08,1.73,1.73,0,0,0-.51.35,5.32,5.32,0,0,0-.93,1.29l-.2.38a22.55,22.55,0,0,0-1.23,3.12c-.24.75-.43,1.41-.55,1.87L38.56,25h0C39.11,23,40.78,17.42,42.39,18Z"/><path class="cls-22" d="M32,25.3c.12-.14.42.22.68.44a.46.46,0,0,0-.23,0c-.08-.08-.31-.25-.31-.25-.76.44-.89-.07-.89-.07C31.52,25.69,31.93,25.44,32,25.3Z"/><path class="cls-22" d="M36.74,20s.51.13.08.89c0,0,.18.23.25.31a.46.46,0,0,0,0,.23,3.48,3.48,0,0,1-.46-.55.1.1,0,0,1,0-.13C36.74,20.63,37,20.21,36.74,20Z"/><path class="cls-22" d="M46.74,27.48c.05,0,.83,0,.55.72,0,0,0-.63-.59-.59l0-.08a.23.23,0,0,0,0-.06Z"/><path class="cls-22" d="M47.51,30.68c.49.11.91.42.33.93,0,0,.45-.55-.42-.82Z"/><path class="cls-22" d="M42.92,36.53c-.52.58-.82.16-.93-.33l.11-.08C42.37,37,42.92,36.53,42.92,36.53Z"/><path class="cls-22" d="M38.84,35.42l.08,0c0,.55.54.59.59.59-.77.28-.73-.5-.72-.55h.06Z"/><path class="cls-23" d="M46.3,27.24c.27,0,.45.07.44.24h0a.23.23,0,0,1,0,.06l0,.08h0c-.07.14-.24.16-.5,0h0A.83.83,0,0,0,46.3,27.24Z"/><path class="cls-23" d="M47.09,30.26c.31,0,.56.18.42.42l-.08.11c-.12.12-.26.07-.47-.24A2.08,2.08,0,0,0,47.09,30.26Z"/><path class="cls-23" d="M41.86,35.65c.31.21.36.35.24.47L42,36.2c-.24.14-.37-.11-.42-.42A1.9,1.9,0,0,0,41.86,35.65Z"/><path class="cls-23" d="M38.89,34.89h0c.19.26.18.42,0,.5h0l-.08,0h-.06c-.17,0-.2-.16-.24-.44A.83.83,0,0,0,38.89,34.89Z"/><path class="cls-22" d="M38.39,33h0a3.53,3.53,0,0,0,.48,1.3c.18.28.18.46,0,.56a.83.83,0,0,1-.34.1c-.46.06-.48-1.15-.37-1.84A.61.61,0,0,0,38.39,33Z"/><path class="cls-22" d="M44.46,26.87c.69-.11,1.9-.09,1.84.37a.83.83,0,0,1-.1.34c-.1.16-.28.16-.56,0a3.56,3.56,0,0,0-1.3-.48h0A.61.61,0,0,0,44.46,26.87Z"/><path class="cls-24" d="M43.73,26.61c.65-.09.85-.09.73.26a.61.61,0,0,1-.12.21.69.69,0,0,1-.69.16,11.52,11.52,0,0,0-1.4-.08c.06-.06.11-.11.1-.16s-.06-.07-.15-.08C42.26,26.9,43.1,26.7,43.73,26.61Z"/><path class="cls-22" d="M45.7,29.05c.53.21,1.58.71,1.47,1l-.08.21a2.08,2.08,0,0,1-.14.29c-.09.15-.2.24-.33.18a6.74,6.74,0,0,1-1.82-1.57,1,1,0,0,0,.08-.17C45.13,29.13,45.16,28.84,45.7,29.05Z"/><path class="cls-22" d="M40.47,33.49A6.74,6.74,0,0,1,42,35.31c.07.13,0,.24-.18.33a1.9,1.9,0,0,1-.29.14l-.21.08c-.29.11-.79-.94-1-1.47s.08-.56-.06-.81Z"/><path class="cls-24" d="M38.3,31c.05,0,.11,0,.16-.1a11.52,11.52,0,0,0,.08,1.4.69.69,0,0,1-.16.69.61.61,0,0,1-.21.12c-.34.12-.34-.08-.26-.73s.29-1.47.3-1.53C38.23,31,38.25,31,38.3,31Z"/><path class="cls-24" d="M42.58,27.94a2.51,2.51,0,0,0-.49-.33c1.13.31,2.9.87,2.84,1.17a1.33,1.33,0,0,1-.06.21,1,1,0,0,1-.08.17c-.09.16-.23.26-.39.15s-1.45-1-1.45-1A3.39,3.39,0,0,0,42.58,27.94Z"/><path class="cls-24" d="M39.24,31.28a3.39,3.39,0,0,0,.37.38s.83,1.17,1,1.45,0,.3-.15.39l-.17.08-.21.06c-.3.06-.86-1.71-1.17-2.84A2.55,2.55,0,0,0,39.24,31.28Z"/><path class="cls-24" d="M42.2,26.91c.09,0,.14,0,.15.08s0,.11-.1.16a2.28,2.28,0,0,1-.51.3h0a1.77,1.77,0,0,0-1.23.06h0a3.21,3.21,0,0,1,1.7-.6Z"/><path class="cls-24" d="M38.82,29.19h0a1.75,1.75,0,0,0-.06,1.23h0a2.27,2.27,0,0,1-.3.51c-.06.06-.11.1-.16.1s-.07-.06-.08-.15h0A3.21,3.21,0,0,1,38.82,29.19Z"/><path class="cls-24" d="M32.49,25.76a.46.46,0,0,1,.23,0h0a.53.53,0,0,1,.38.22,2.14,2.14,0,0,0,1,.67,1.14,1.14,0,0,0,0,.13h0A1.67,1.67,0,0,1,32.35,26,.2.2,0,0,1,32.49,25.76Z"/><path class="cls-24" d="M37.07,21.19a.2.2,0,0,1,.22-.14,1.67,1.67,0,0,1,.78,1.78h0l-.13,0a2.17,2.17,0,0,0-.68-1,.53.53,0,0,1-.22-.38h0A.46.46,0,0,1,37.07,21.19Z"/><path class="cls-25" d="M35.88,20.64c.12-.91.33-1,.5-.86A4.27,4.27,0,0,0,36.11,21a3.88,3.88,0,0,0,.16,1.47.28.28,0,0,0-.14.07A4.58,4.58,0,0,1,35.88,20.64Z"/><path class="cls-24" d="M38.07,22.83c.36,0,.42.18.33.63a8.15,8.15,0,0,0,0,1.52A1.49,1.49,0,0,0,38,25c0-.62-.59-2-.11-2.11Z"/><path class="cls-26" d="M42.58,27.94a3.39,3.39,0,0,1,.38.37,4,4,0,0,1,.26.32,6.52,6.52,0,0,1-3.28,3.28l-.33-.26a3.39,3.39,0,0,1-.37-.38c-.07-.53.85-1.67,1.26-2.08S42,27.87,42.58,27.94Z"/><path class="cls-23" d="M42.1,27.61a2.51,2.51,0,0,1,.49.33c-.53-.07-1.67.85-2.08,1.26s-1.33,1.54-1.26,2.08a2.55,2.55,0,0,1-.33-.48h0a1.87,1.87,0,0,1-.12-.27c0-.73,1-1.73,1.14-1.89s1.16-1.12,1.89-1.15Z"/><path class="cls-23" d="M43.22,28.63a5.12,5.12,0,0,1,.46.76,4.34,4.34,0,0,1-1.18,1.79,4.32,4.32,0,0,1-1.79,1.18,5.24,5.24,0,0,1-.76-.45,6.52,6.52,0,0,0,3.28-3.28Z"/><path class="cls-26" d="M41.73,27.45l.09,0c-.73,0-1.73,1-1.89,1.15s-1.12,1.16-1.14,1.89l0-.09h0a1.75,1.75,0,0,1,.06-1.23,1.78,1.78,0,0,1,.12-.25,1.34,1.34,0,0,0,1.31-1.31l.25-.12a1.77,1.77,0,0,1,1.23-.06Z"/><path class="cls-26" d="M43.67,29.4l.15.33q.11.25.19.49h0a4.59,4.59,0,0,1-2.49,2.49h0L41,32.52l-.33-.15a4.32,4.32,0,0,0,1.79-1.18A4.34,4.34,0,0,0,43.67,29.4Z"/><path class="cls-27" d="M39.23,25.43a2.85,2.85,0,0,1,.39.44h0l-.32,0-.36.05a2.69,2.69,0,0,0-.35.08.31.31,0,0,1-.09-.06A7.11,7.11,0,0,1,39.23,25.43Z"/><path class="cls-27" d="M38.92,25.2a2.25,2.25,0,0,1,.3.23,7.11,7.11,0,0,0-.72.55.47.47,0,0,1-.08-.11l.12-.17Z"/><path class="cls-27" d="M38.7,25.09l.22.11-.38.51h0S38.6,25.47,38.7,25.09Z"/><path class="cls-23" d="M36.14,22.55a.28.28,0,0,1,.14-.07,4,4,0,0,0-.17,1.39l-.35,0A1.94,1.94,0,0,1,36.14,22.55Z"/><path class="cls-27" d="M38.42,25.58l.15-.55.14.05c-.1.39-.16.62-.16.62h0l-.12.17a.51.51,0,0,1-.05-.12Z"/><path class="cls-26" d="M37.65,25A1.68,1.68,0,0,1,38,25a1.49,1.49,0,0,1,.31,0l.21.05h0l-.15.55a1.21,1.21,0,0,0-1.53,1.53l-.55.14h0a1.47,1.47,0,0,1-.05-.21,1.4,1.4,0,0,1,0-.31,1.63,1.63,0,0,1,.06-.39,1.79,1.79,0,0,1,.18-.43h0a1.92,1.92,0,0,1,.31-.41,2,2,0,0,1,.85-.48Z"/><path class="cls-28" d="M39.31,25.91l.32,0a2.64,2.64,0,0,1,.62,1.76,1.34,1.34,0,0,1-1.31,1.31,2.63,2.63,0,0,1-1.76-.62q0-.18,0-.32a1.81,1.81,0,0,0,2.32.23A1.81,1.81,0,0,0,39.31,25.91Z"/><path class="cls-23" d="M44,30.22a8,8,0,0,1,.25.79h0a2.37,2.37,0,0,1-.76,1.19,2.31,2.31,0,0,1-1.19.75,7.64,7.64,0,0,1-.79-.24A4.59,4.59,0,0,0,44,30.22Z"/><path class="cls-26" d="M38.95,26l.36-.05a1.81,1.81,0,0,1,.23,2.32A1.81,1.81,0,0,1,37.22,28c0-.14,0-.26.05-.36A1.19,1.19,0,0,0,38.95,26Z"/><path class="cls-22" d="M38.95,26a1.19,1.19,0,0,1-1.68,1.68,2.58,2.58,0,0,1,.08-.35.31.31,0,0,0-.06-.09l-.11-.08-.12-.05-.17,0a1.21,1.21,0,0,1,1.53-1.53l0,.17a.51.51,0,0,0,.05.12.47.47,0,0,0,.08.11.31.31,0,0,0,.09.06A2.69,2.69,0,0,1,38.95,26Z"/><path class="cls-26" d="M43.5,32.2A2.37,2.37,0,0,0,44.26,31a6.9,6.9,0,0,1,.15.79h0a2.36,2.36,0,0,1-1.31,1.31,6.44,6.44,0,0,1-.79-.15A2.31,2.31,0,0,0,43.5,32.2Z"/><path class="cls-23" d="M36.5,23.89s1-.22,1.14,1.12a1.87,1.87,0,0,0-.43.18C36.49,24.84,36.23,24.22,36.5,23.89Z"/><path class="cls-23" d="M44.41,31.8A2,2,0,0,1,44.33,33a2,2,0,0,1-1.23.08,2.36,2.36,0,0,0,1.31-1.31Z"/><path class="cls-29" d="M36.11,23.87a3.6,3.6,0,0,1,.39,0c-.27.33,0,1,.71,1.3a1.87,1.87,0,0,0-.42.31,1.92,1.92,0,0,0-.31.41c-.34-.72-1-1-1.3-.71a3.36,3.36,0,0,1,0-.39,2.72,2.72,0,0,1,0-.35.54.54,0,0,1,.57-.57l.35,0Z"/><path class="cls-23" d="M35.19,25.2c.33-.27,1,0,1.3.71h0a1.79,1.79,0,0,0-.18.43C35,26.23,35.19,25.2,35.19,25.2Z"/><path class="cls-23" d="M33.85,24.83a1.94,1.94,0,0,1,1.34-.38,2.72,2.72,0,0,0,0,.35,4,4,0,0,0-1.39.17A.28.28,0,0,1,33.85,24.83Z"/><path class="cls-27" d="M37.18,27.12l.11.08h0a7.37,7.37,0,0,0-.55.71,2.21,2.21,0,0,1-.23-.3l.5-.38Z"/><path class="cls-27" d="M37.29,27.21h0a.31.31,0,0,1,.06.09,2.58,2.58,0,0,0-.08.35c0,.1,0,.22-.05.36s0,.2,0,.32h0a2.87,2.87,0,0,1-.44-.4A7.37,7.37,0,0,1,37.29,27.21Z"/><path class="cls-27" d="M36.89,27.11l.17,0,.12.05-.17.12h0l-.62.16a.9.9,0,0,1-.05-.14Z"/><path class="cls-27" d="M37,27.24h0l-.5.38a1.59,1.59,0,0,1-.11-.22Z"/><path class="cls-24" d="M36.26,26.74a1.4,1.4,0,0,0,0,.31,8.21,8.21,0,0,0-1.52,0c-.45.09-.66,0-.63-.33a1.14,1.14,0,0,1,0-.13C34.24,26.15,35.64,26.74,36.26,26.74Z"/><path class="cls-25" d="M33.85,24.83a.28.28,0,0,0-.07.14,4.27,4.27,0,0,0-2.64.08l-.06,0c-.14-.17,0-.38.86-.5A4.59,4.59,0,0,1,33.85,24.83Z"/><g class="cls-30"><ellipse class="cls-31" cx="40.75" cy="30.67" rx="3.25" ry="4.59" transform="translate(-9.96 36.15) rotate(-43.13)"/><ellipse class="cls-32" cx="37.39" cy="27.06" rx="1.59" ry="2.25" transform="translate(-8.4 32.88) rotate(-43.13)"/></g><g class="cls-33"><ellipse class="cls-34" cx="36.47" cy="26.26" rx="2.25" ry="1.59" transform="translate(3.84 57.17) rotate(-79.21)"/><ellipse class="cls-35" cx="37.68" cy="25" rx="2.25" ry="1.59" transform="translate(6.07 57.33) rotate(-79.21)"/></g><path class="cls-36" d="M38.17,33.15a.56.56,0,0,0,.32-.43,1.08,1.08,0,0,0,0-.28c0-.09,0-.2-.05-.3s0-.4,0-.6a4.92,4.92,0,0,1,0-.6h0c0,.4,0,.8.06,1.19,0,.1,0,.2,0,.3a1,1,0,0,1,0,.3.55.55,0,0,1-.13.27.64.64,0,0,1-.25.16Z"/><path class="cls-22" d="M38.23,30.89a6.84,6.84,0,0,1-.12,1.28c0,.21-.07.42-.11.62a.93.93,0,0,0,0,.28s0,.05.05.07h.15v0a.5.5,0,0,1-.16,0,.14.14,0,0,1-.13-.09.84.84,0,0,1,0-.32c0-.21,0-.43.08-.64.07-.42.17-.84.27-1.26Z"/><path class="cls-37" d="M38.18,33.15c0,.19,0,.37,0,.55a4.29,4.29,0,0,0,.05.54,1.88,1.88,0,0,0,.13.49c.09.15.09.13.29.08a.33.33,0,0,0,.16-.07s0-.06,0-.13a1,1,0,0,0-.1-.22,1.8,1.8,0,0,1-.13-.26,2.66,2.66,0,0,1-.24-1.1h0a2.15,2.15,0,0,0,.13.53,4.5,4.5,0,0,0,.21.51,5.31,5.31,0,0,1,.26.49.29.29,0,0,1,0,.28.46.46,0,0,1-.25.14l-.14,0a.29.29,0,0,1-.14,0,.36.36,0,0,1-.2-.2,1.67,1.67,0,0,1-.12-.54,4.7,4.7,0,0,1,0-1.11Z"/><path class="cls-36" d="M44.46,26.87a.64.64,0,0,1-.16.25.55.55,0,0,1-.27.13,1,1,0,0,1-.3,0l-.3,0c-.4,0-.79-.05-1.19-.06h0a4.93,4.93,0,0,1,.6,0c.2,0,.4,0,.6,0l.3.05a1.09,1.09,0,0,0,.28,0,.56.56,0,0,0,.43-.32Z"/><path class="cls-22" d="M42.19,26.91c.42-.1.84-.19,1.26-.27l.64-.08a.84.84,0,0,1,.32,0,.13.13,0,0,1,.09.13.5.5,0,0,1,0,.16h0a.61.61,0,0,0,0-.15s0,0-.07-.05a.93.93,0,0,0-.28,0l-.62.11a6.84,6.84,0,0,1-1.28.12Z"/><path class="cls-37" d="M44.46,26.86a4.71,4.71,0,0,1,1.11,0,1.68,1.68,0,0,1,.54.12.36.36,0,0,1,.2.2.29.29,0,0,1,0,.14,1.34,1.34,0,0,1,0,.14.46.46,0,0,1-.14.25.29.29,0,0,1-.28,0,5.31,5.31,0,0,1-.49-.26,4.5,4.5,0,0,0-.51-.21,2.15,2.15,0,0,0-.53-.13v0a2.66,2.66,0,0,1,1.1.24l.26.13a1,1,0,0,0,.22.1c.07,0,.11,0,.13,0a.33.33,0,0,0,.07-.16c0-.2.07-.2-.08-.29a1.88,1.88,0,0,0-.49-.13A4.3,4.3,0,0,0,45,26.9c-.18,0-.37,0-.55,0Z"/><path class="cls-36" d="M42.35,27a.23.23,0,0,1-.1.17l-.16.12a3,3,0,0,1-.36.18h0a1.07,1.07,0,0,1,.15-.13l.16-.11.16-.1.07-.05a.14.14,0,0,0,.06-.07Z"/><path class="cls-22" d="M40.49,27.51a4,4,0,0,1,.89-.46,3.09,3.09,0,0,1,.49-.13l.25,0h.13s.09,0,.1.08h0s-.06,0-.1,0l-.11,0-.23.07-.45.16-.46.16c-.16.05-.31.11-.48.15Z"/><path class="cls-36" d="M44.94,28.78a1.35,1.35,0,0,1-.1.32.5.5,0,0,1-.22.25.22.22,0,0,1-.17,0,.93.93,0,0,1-.14-.09L44,29.08,43,28.31h0l.29.16.28.17.55.37.27.19.13.08a.16.16,0,0,0,.11,0,.45.45,0,0,0,.2-.21,1.32,1.32,0,0,0,.14-.3Z"/><path class="cls-22" d="M42.1,27.6c.5.13,1,.28,1.5.45.25.09.49.18.73.28l.35.17.16.11s.11.09.1.17h0c0-.06-.07-.09-.12-.12l-.17-.08-.36-.13-.73-.24a10.64,10.64,0,0,1-1.45-.59Z"/><path class="cls-37" d="M47.19,30.06a4.08,4.08,0,0,1-.16.4,1.09,1.09,0,0,1-.11.19.32.32,0,0,1-.18.13.2.2,0,0,1-.12,0l-.1-.05-.18-.11L46,30.35c-.22-.17-.44-.35-.65-.55a3.76,3.76,0,0,1-.56-.64l0,0,.71.46.34.23.33.24.32.25.15.12,0,0h0s0,0,0,0a.73.73,0,0,0,.13-.12c.09-.1.18-.22.29-.33Z"/><path class="cls-38" d="M44.88,29A.26.26,0,0,0,45,29l.16,0a.67.67,0,0,1,.34,0,4.78,4.78,0,0,1,.63.25,5.77,5.77,0,0,1,.59.32,2.1,2.1,0,0,1,.27.2.71.71,0,0,1,.11.13.19.19,0,0,1,0,.17h0c0-.11-.11-.17-.19-.22l-.28-.16-.59-.28-.3-.14-.15-.07-.14-.06a.66.66,0,0,0-.28-.05H45a.25.25,0,0,1-.17-.08Z"/><path class="cls-36" d="M38.29,31a.14.14,0,0,0,.07-.06l.05-.07.1-.16.11-.16a1.07,1.07,0,0,1,.13-.15h0a3,3,0,0,1-.18.36,1.2,1.2,0,0,1-.12.16.23.23,0,0,1-.17.1Z"/><path class="cls-22" d="M38.83,29.2c0,.17-.1.33-.15.48l-.16.46c-.06.15-.11.3-.16.45s0,.15-.07.23a.76.76,0,0,0,0,.11s0,.07,0,.1v0c-.05,0-.07-.06-.08-.1a.6.6,0,0,1,0-.13,1.56,1.56,0,0,1,0-.25,3.09,3.09,0,0,1,.13-.49,4,4,0,0,1,.46-.89Z"/><path class="cls-36" d="M40.08,33.63a1.32,1.32,0,0,0,.3-.14.45.45,0,0,0,.21-.2.16.16,0,0,0,0-.11,1,1,0,0,0-.08-.13l-.19-.27c-.12-.19-.25-.37-.37-.55l-.17-.28-.16-.29h0l.77,1.08.19.27a.93.93,0,0,1,.09.14.22.22,0,0,1,0,.17.5.5,0,0,1-.25.22,1.36,1.36,0,0,1-.32.1Z"/><path class="cls-22" d="M38.92,30.79a10.63,10.63,0,0,1,.59,1.45c.08.25.17.49.24.73s.08.24.13.36a1.24,1.24,0,0,0,.08.17c0,.05.06.11.12.12v0c-.08,0-.13-.05-.17-.1a1.25,1.25,0,0,1-.11-.16,3.71,3.71,0,0,1-.17-.35c-.1-.24-.2-.48-.28-.73-.17-.5-.31-1-.45-1.5Z"/><path class="cls-38" d="M41.36,35.85c.12-.08.25-.14.36-.22l.15-.12s.07-.09.07-.11v0l0,0,0,0-.12-.17-.25-.33-.5-.66-.26-.32c-.09-.11-.18-.21-.28-.32h0a3.76,3.76,0,0,1,.63.56c.19.21.37.42.54.65l.24.35.11.18a.3.3,0,0,1,.06.21.31.31,0,0,1-.13.17l-.18.11a4,4,0,0,1-.39.16Z"/><path class="cls-37" d="M40.31,33.57a.26.26,0,0,1,.12.18c0,.08,0,.14,0,.19a.73.73,0,0,0,.09.23l.07.12.08.14.15.29L41,35c0,.1.08.2.12.3l.11.29a1.14,1.14,0,0,0,.06.14s0,.08.1.1v0a.2.2,0,0,1-.17,0,.73.73,0,0,1-.13-.11,2.12,2.12,0,0,1-.2-.27,5.79,5.79,0,0,1-.33-.59,4.75,4.75,0,0,1-.25-.63.68.68,0,0,1,0-.34,1.38,1.38,0,0,0,0-.16.25.25,0,0,0,0-.15Z"/><path class="cls-39" d="M39,29a2.76,2.76,0,0,0-.12.48,1.61,1.61,0,0,0,0,.47,2,2,0,0,0,.33.84,3.25,3.25,0,0,0,.63.68,4.75,4.75,0,0,0,.79.53,7.23,7.23,0,0,0,.88.42c.3.13.61.24.92.34a8.36,8.36,0,0,0,1,.25,3.6,3.6,0,0,0,.49.08h.25a.5.5,0,0,0,.23,0l0,0a.52.52,0,0,1-.24.1l-.25,0a3.71,3.71,0,0,1-.51,0,6.3,6.3,0,0,1-1-.17,8.85,8.85,0,0,1-1-.3,7,7,0,0,1-.93-.42,3.9,3.9,0,0,1-1.49-1.37,2,2,0,0,1-.28-1,1.9,1.9,0,0,1,.27-1Z"/><path class="cls-40" d="M40.24,27.61a1.92,1.92,0,0,1,1-.27,2,2,0,0,1,1,.28,3.91,3.91,0,0,1,1.38,1.49A7,7,0,0,1,44,30a8.84,8.84,0,0,1,.3,1,6.3,6.3,0,0,1,.17,1,3.69,3.69,0,0,1,0,.51,2,2,0,0,1,0,.26.53.53,0,0,1-.1.25l0,0a.51.51,0,0,0,0-.23,2,2,0,0,0,0-.24,4.54,4.54,0,0,0-.1-.48c-.08-.32-.18-.63-.29-.93s-.23-.61-.36-.9a7.34,7.34,0,0,0-.41-.85,4.74,4.74,0,0,0-.51-.77A3.36,3.36,0,0,0,42,28a2,2,0,0,0-.78-.36,2.1,2.1,0,0,0-1,0Z"/><path class="cls-41" d="M41.82,27.5a1.45,1.45,0,0,0-.53.15,3.45,3.45,0,0,0-.48.28,6.29,6.29,0,0,0-1.58,1.58,3.43,3.43,0,0,0-.28.48,1.44,1.44,0,0,0-.15.53h0a1.35,1.35,0,0,1,.09-.57,3.45,3.45,0,0,1,.25-.52,4.72,4.72,0,0,1,1.61-1.61,3.47,3.47,0,0,1,.52-.25,1.35,1.35,0,0,1,.57-.09Z"/><path class="cls-22" d="M42.58,27.95a1.15,1.15,0,0,0-.59.16,4.35,4.35,0,0,0-.53.32,6.56,6.56,0,0,0-1.74,1.74,4.32,4.32,0,0,0-.32.53,1.15,1.15,0,0,0-.16.59h0a.69.69,0,0,1,0-.32,2.05,2.05,0,0,1,.09-.31,4.3,4.3,0,0,1,.29-.56,4.72,4.72,0,0,1,.36-.52c.13-.17.26-.33.41-.48s.32-.28.48-.41a4.75,4.75,0,0,1,.52-.36A4.36,4.36,0,0,1,42,28l.31-.09a.69.69,0,0,1,.32,0Z"/><path class="cls-41" d="M42.58,28a1.42,1.42,0,0,0-.52.28c-.16.12-.31.25-.46.38s-.3.26-.45.4-.3.27-.43.4-.27.28-.4.43-.26.3-.4.45-.26.3-.38.46a1.42,1.42,0,0,0-.28.52h0a1.17,1.17,0,0,1,.15-.6,4.39,4.39,0,0,1,.32-.54,6,6,0,0,1,1.75-1.75,4.37,4.37,0,0,1,.54-.32,1.18,1.18,0,0,1,.6-.15Z"/><path class="cls-42" d="M43.23,28.63a1.7,1.7,0,0,1-.23.55c-.1.17-.21.34-.33.5A6.74,6.74,0,0,1,41,31.36c-.16.12-.33.23-.5.33a1.7,1.7,0,0,1-.55.23v0a2.6,2.6,0,0,0,.46-.36l.43-.39.42-.39c.14-.13.28-.26.41-.4s.27-.27.4-.41l.39-.42.39-.43a2.57,2.57,0,0,0,.36-.46Z"/><path class="cls-22" d="M43.68,29.4a1.53,1.53,0,0,1-.18.51,4.2,4.2,0,0,1-.29.46,6.48,6.48,0,0,1-1.53,1.53,4.2,4.2,0,0,1-.46.29,1.53,1.53,0,0,1-.51.18v0a1.71,1.71,0,0,0,.47-.24,4.34,4.34,0,0,0,.43-.32,10.9,10.9,0,0,0,1.5-1.5,4.27,4.27,0,0,0,.32-.43,1.71,1.71,0,0,0,.25-.47Z"/><path class="cls-42" d="M44,30.22a2.22,2.22,0,0,1-.3.89,3.51,3.51,0,0,1-1.32,1.32,2.23,2.23,0,0,1-.89.3v0a3.38,3.38,0,0,0,.8-.42A5.38,5.38,0,0,0,43.58,31a3.38,3.38,0,0,0,.42-.8Z"/><path class="cls-22" d="M44.27,31a1.82,1.82,0,0,1-.29.65,3.86,3.86,0,0,1-1,1,1.82,1.82,0,0,1-.65.29v0a1.72,1.72,0,0,0,.3-.18l.28-.21c.17-.15.34-.3.51-.47s.32-.33.47-.51.14-.18.21-.27a1.71,1.71,0,0,0,.18-.3Z"/><path class="cls-41" d="M43.68,29.4a1.34,1.34,0,0,1-.09.56,3.06,3.06,0,0,1-.25.51A4.56,4.56,0,0,1,41.77,32a3.07,3.07,0,0,1-.51.25,1.35,1.35,0,0,1-.56.09v0a1.51,1.51,0,0,0,.5-.18,4.16,4.16,0,0,0,.45-.29,7.27,7.27,0,0,0,1.53-1.53,4.19,4.19,0,0,0,.29-.45,1.5,1.5,0,0,0,.18-.5Z"/><path class="cls-41" d="M44.27,31a1.25,1.25,0,0,1-.16.75,2.51,2.51,0,0,1-1.06,1.05,1.25,1.25,0,0,1-.75.16v0a1.8,1.8,0,0,0,.64-.3,4.54,4.54,0,0,0,1-1,1.8,1.8,0,0,0,.3-.64Z"/><path class="cls-42" d="M44.42,31.8a1,1,0,0,1-.1.51,1.45,1.45,0,0,1-.71.71,1,1,0,0,1-.51.1v0a2.5,2.5,0,0,0,1.31-1.31Z"/><path class="cls-43" d="M40.53,27.48a2,2,0,0,1,0,.51,1.48,1.48,0,0,1-1.19,1.19,2,2,0,0,1-.51,0l.15-.3a1.33,1.33,0,0,0,1.29-1.3Z"/><path class="cls-22" d="M39.62,25.87a3.13,3.13,0,0,1,.61,1.32,1.43,1.43,0,0,1-1.75,1.75,3.13,3.13,0,0,1-1.32-.61h0a3.91,3.91,0,0,0,.64.35,2.52,2.52,0,0,0,.69.2,1.82,1.82,0,0,0,.7,0,1.23,1.23,0,0,0,.93-.93,1.81,1.81,0,0,0,0-.7,2.51,2.51,0,0,0-.2-.69,3.91,3.91,0,0,0-.35-.64Z"/><path class="cls-44" d="M36.5,23.91a3.87,3.87,0,0,1-.58.21l-.24.08a.39.39,0,0,0-.12.06.37.37,0,0,0-.06.12c0,.07-.05.15-.08.24a3.92,3.92,0,0,1-.21.58h0a3,3,0,0,1,0-.6,1.71,1.71,0,0,1,0-.3.47.47,0,0,1,.42-.42,1.72,1.72,0,0,1,.3,0,3,3,0,0,1,.6,0Z"/><path class="cls-45" d="M35.2,25.2a1,1,0,0,0,0,.45.83.83,0,0,0,.25.37,1.47,1.47,0,0,0,.85.31v0a1.05,1.05,0,0,1-.49,0,1,1,0,0,1-.47-.22.82.82,0,0,1-.27-.46.72.72,0,0,1,.08-.5Z"/><path class="cls-46" d="M35.18,25.19a.52.52,0,0,1,.4-.1.92.92,0,0,1,.39.16,1.66,1.66,0,0,1,.52.66h0l-.31-.29a2.82,2.82,0,0,0-.29-.24,1.23,1.23,0,0,0-.31-.17.62.62,0,0,0-.37,0Z"/><path class="cls-45" d="M36.5,23.88a.72.72,0,0,1,.5-.08.82.82,0,0,1,.46.27,1,1,0,0,1,.22.47,1.05,1.05,0,0,1,0,.49h0a1.47,1.47,0,0,0-.31-.85.83.83,0,0,0-.38-.25,1,1,0,0,0-.45,0Z"/><path class="cls-46" d="M36.51,23.89a.62.62,0,0,0,0,.37,1.23,1.23,0,0,0,.17.31,2.82,2.82,0,0,0,.24.29l.29.31v0a1.66,1.66,0,0,1-.66-.52.92.92,0,0,1-.16-.39.52.52,0,0,1,.1-.4Z"/><path class="cls-47" d="M35.36,25.19c-.15,0-.15.47,0,.51S35.52,25.19,35.36,25.19Z"/><path class="cls-47" d="M36.52,24.08c-.1,0,0,.34.06.34S36.62,24.05,36.52,24.08Z"/><path class="cls-42" d="M38.42,25.6a.92.92,0,0,0-.66-.05,1.39,1.39,0,0,0-.91.91.92.92,0,0,0,.05.66h0a.71.71,0,0,1-.16-.32,1.12,1.12,0,0,1,0-.37,1.23,1.23,0,0,1,.35-.66,1.25,1.25,0,0,1,.66-.35.83.83,0,0,1,.7.17Z"/><path class="cls-48" d="M38.41,25.6a1.35,1.35,0,0,0-.59.17,1.63,1.63,0,0,0-.22.15,1.41,1.41,0,0,0-.2.18l-.05.05,0,0-.08.1a1.65,1.65,0,0,0-.15.22,1.34,1.34,0,0,0-.16.59l0,0a1,1,0,0,1-.06-.68,1.34,1.34,0,0,1,.94-.94,1,1,0,0,1,.68.06Z"/><path class="cls-42" d="M39,26a.74.74,0,0,1,.37.34,1.17,1.17,0,0,1,.14.5,1.34,1.34,0,0,1-.08.53,1.38,1.38,0,0,1-.3.48l0,0-.06,0-.12.08a1.22,1.22,0,0,1-.25.12,1.34,1.34,0,0,1-.53.08,1.17,1.17,0,0,1-.5-.14.74.74,0,0,1-.34-.37l0,0a1,1,0,0,0,.8.26,1.18,1.18,0,0,0,1.12-1.12,1,1,0,0,0-.26-.8Z"/><path class="cls-22" d="M34.16,26.63a.88.88,0,0,0,.06.29c0,.07.09.08.17.08a1.37,1.37,0,0,0,.28,0l.33-.06a3.45,3.45,0,0,1,.65,0,2.86,2.86,0,0,1,.64.13v0a9.45,9.45,0,0,0-1.27,0,3.6,3.6,0,0,1-.64.07.33.33,0,0,1-.15-.06.24.24,0,0,1-.09-.14.76.76,0,0,1,0-.32Z"/><path class="cls-36" d="M36.26,26.74a2,2,0,0,1-.56,0l-.55-.11-.54-.11a1,1,0,0,0-.26,0,.21.21,0,0,0-.2.14h0a.23.23,0,0,1,.2-.18,1,1,0,0,1,.28,0,4.24,4.24,0,0,1,.55.09l.54.12a2.92,2.92,0,0,0,.55.08Z"/><path class="cls-22" d="M34.15,26.64a4.33,4.33,0,0,1-.53-.16,1.64,1.64,0,0,1-.49-.3A2.48,2.48,0,0,1,33,26a.4.4,0,0,0-.17-.1.38.38,0,0,0-.19,0c-.06,0-.08,0-.08.05v0h0l.05.09a1.27,1.27,0,0,0,.16.18,2.78,2.78,0,0,0,.41.29,1.69,1.69,0,0,0,.47.2,1.12,1.12,0,0,0,.52,0v0a1.35,1.35,0,0,1-1.05-.12,2.2,2.2,0,0,1-.45-.3,1.44,1.44,0,0,1-.19-.19.33.33,0,0,1-.1-.26.25.25,0,0,1,.21-.18.54.54,0,0,1,.27,0,.55.55,0,0,1,.24.14c.06.07.11.15.17.21a2.67,2.67,0,0,0,.92.53Z"/><path class="cls-43" d="M36.21,27a1.3,1.3,0,0,1-.08-.32h.14a1.56,1.56,0,0,0,0,.31Z"/><path class="cls-43" d="M36.13,26.4s0-.09,0-.13a1.76,1.76,0,0,1,1.42-1.42l.12,0,0,.21h0a1.86,1.86,0,0,0-1.28,1.28v0Z"/><path class="cls-43" d="M38.36,25A1.56,1.56,0,0,0,38,25v-.14a1.29,1.29,0,0,1,.32.08Z"/><path class="cls-41" d="M38.56,25a1.88,1.88,0,0,0-.91.09,2.11,2.11,0,0,0-.75.47,2.15,2.15,0,0,0-.47.74,1.6,1.6,0,0,0-.1.44,1.81,1.81,0,0,0,0,.47h0a1.6,1.6,0,0,1,0-.95A1.82,1.82,0,0,1,37.62,25a1.6,1.6,0,0,1,1,0Z"/><path class="cls-36" d="M37.94,22.84a.76.76,0,0,1,.32,0,.24.24,0,0,1,.13.09.32.32,0,0,1,.05.15,3.59,3.59,0,0,1-.07.63,9.44,9.44,0,0,0,0,1.27h0a4.71,4.71,0,0,1-.07-.64,5.32,5.32,0,0,1,0-.64,4.55,4.55,0,0,0,.09-.62.2.2,0,0,0-.13-.2.8.8,0,0,0-.31,0Z"/><path class="cls-22" d="M38,25a2.92,2.92,0,0,0-.08-.55l-.13-.54a4.27,4.27,0,0,1-.09-.55,1,1,0,0,1,0-.28.24.24,0,0,1,.18-.2v0a.2.2,0,0,0-.1.2,1.36,1.36,0,0,0,0,.25l.12.52a5,5,0,0,1,.09.55,1.49,1.49,0,0,1,0,.57Z"/><path class="cls-22" d="M37.93,22.85a2.67,2.67,0,0,0-.53-.92c-.06-.06-.14-.11-.21-.17a.55.55,0,0,1-.14-.24.54.54,0,0,1,0-.27.25.25,0,0,1,.18-.21.33.33,0,0,1,.26.1,1.44,1.44,0,0,1,.19.19,2.2,2.2,0,0,1,.3.45,1.35,1.35,0,0,1,.12,1.05h0a1.12,1.12,0,0,0,0-.52,1.69,1.69,0,0,0-.2-.47,2.78,2.78,0,0,0-.29-.41,1.27,1.27,0,0,0-.18-.16l-.09-.05h0s0,0-.05.08a.38.38,0,0,0,0,.19.4.4,0,0,0,.1.17,2.49,2.49,0,0,1,.2.18,1.64,1.64,0,0,1,.3.49,4.32,4.32,0,0,1,.16.53Z"/><path class="cls-22" d="M39.31,25.91a1.67,1.67,0,0,1,.42.49A2.18,2.18,0,0,1,40,27a1.73,1.73,0,0,1,0,.68,1.27,1.27,0,0,1-.32.64,1.28,1.28,0,0,1-.63.31,1.72,1.72,0,0,1-.68,0,2.18,2.18,0,0,1-.63-.22,1.67,1.67,0,0,1-.49-.42h0a2,2,0,0,0,1.12.53,1.82,1.82,0,0,0,.63,0,1,1,0,0,0,.83-.83,1.81,1.81,0,0,0,0-.63,2,2,0,0,0-.53-1.12Z"/><path class="cls-49" d="M29.31,31.08a.53.53,0,0,0,.2.19l.25.13a3.77,3.77,0,0,0,.53.19,4.74,4.74,0,0,0,1.11.18,3.84,3.84,0,0,0,1.12-.1,2.62,2.62,0,0,0,1-.5h0a1.27,1.27,0,0,0,.62.07,1.87,1.87,0,0,0,.61-.18,3.49,3.49,0,0,0,1-.78h0a2.08,2.08,0,0,0,.83-.36,1.18,1.18,0,0,0,.46-.75c0-.15,0-.31,0-.46s0-.31,0-.47a4.63,4.63,0,0,1,.18-.92h0a5.62,5.62,0,0,0-.14.93q0,.23,0,.47c0,.16,0,.31,0,.47a1.22,1.22,0,0,1-.49.81,2,2,0,0,1-.88.38h0a3.35,3.35,0,0,1-1,.77,2,2,0,0,1-.63.17,1.3,1.3,0,0,1-.64-.09h0a3,3,0,0,1-1,.52,3.47,3.47,0,0,1-1.14.13,4.47,4.47,0,0,1-1.13-.2,3.8,3.8,0,0,1-.53-.21l-.25-.15a.55.55,0,0,1-.2-.21Z"/><path class="cls-50" d="M37.06,27.08c-.74.19-1.48.39-2.21.62s-1.46.47-2.17.75a15,15,0,0,0-2.08,1,4.68,4.68,0,0,0-.93.67,1.58,1.58,0,0,0-.34.46.73.73,0,0,0,0,.55h0a.74.74,0,0,1,0-.57,1.61,1.61,0,0,1,.33-.48,4.71,4.71,0,0,1,.92-.7,14.37,14.37,0,0,1,2.08-1q1.08-.41,2.18-.73l1.11-.3,1.12-.26Z"/><path class="cls-51" d="M33.54,31.19a5.47,5.47,0,0,1,.3-.62q.18-.3.37-.58a10.54,10.54,0,0,1,.87-1.08,11.91,11.91,0,0,1,1-1l.54-.44.57-.39-.54.42L36.1,28a11.87,11.87,0,0,0-1,1A10.5,10.5,0,0,0,34.25,30c-.13.19-.26.38-.37.58A5.55,5.55,0,0,0,33.54,31.19Z"/><path class="cls-51" d="M35.81,30.31a2.73,2.73,0,0,1,0-.44c0-.14.07-.29.11-.43a5.45,5.45,0,0,1,.33-.81,6.46,6.46,0,0,1,.45-.75l.26-.35.3-.32-.26.35-.26.35a6.41,6.41,0,0,0-.44.75,5.4,5.4,0,0,0-.33.81,4.31,4.31,0,0,0-.11.42A2.78,2.78,0,0,0,35.81,30.31Z"/><path class="cls-51" d="M36.41,28.45l-.23.28L36,29a5.32,5.32,0,0,0-.39.6,4.26,4.26,0,0,0-.3.65,3.46,3.46,0,0,0-.1.34,3.1,3.1,0,0,0-.09.35,3.17,3.17,0,0,1,0-.36,3.51,3.51,0,0,1,.11-.35,4.31,4.31,0,0,1,.3-.65,5.36,5.36,0,0,1,.4-.6l.23-.28Z"/><path class="cls-51" d="M34.71,29.37c0,.07,0,.14,0,.22l0,.22c0,.15,0,.29,0,.44s0,.3,0,.44,0,.15,0,.22a1.42,1.42,0,0,1-.06.21,1.39,1.39,0,0,0,0-.22c0-.07,0-.15,0-.22s0-.29,0-.44,0-.29,0-.44l0-.22Z"/><path class="cls-51" d="M36.55,28.22c0,.07,0,.14.07.22l0,.22q0,.22,0,.45a3.67,3.67,0,0,1,0,.45c0,.08,0,.15,0,.23a2,2,0,0,1-.07.22,2,2,0,0,0,0-.22c0-.07,0-.15,0-.22a3.61,3.61,0,0,0,0-.45q0-.22,0-.45t0-.22Z"/><path class="cls-51" d="M34.52,27.94a.48.48,0,0,0,0,.32.5.5,0,0,0,.21.23.88.88,0,0,0,.63.11h0a.39.39,0,0,0,.29.08.87.87,0,0,0,.31-.1,1.78,1.78,0,0,0,.28-.18l.27-.2-.24.24a1.83,1.83,0,0,1-.28.18.91.91,0,0,1-.32.1.43.43,0,0,1-.33-.1h0a.85.85,0,0,1-.34,0,.92.92,0,0,1-.32-.12.54.54,0,0,1-.23-.25A.5.5,0,0,1,34.52,27.94Z"/><path class="cls-51" d="M34.93,28.6c-.18.13-.34.28-.51.41s-.34.28-.49.43a4.57,4.57,0,0,0-.83,1h0a1.43,1.43,0,0,0-.36.53,1,1,0,0,0-.06.32.76.76,0,0,0,.07.32.77.77,0,0,1-.1-.32.75.75,0,0,1,0-.33,1.47,1.47,0,0,1,.38-.55h0a4.61,4.61,0,0,1,.83-1c.16-.15.33-.3.5-.44A4.92,4.92,0,0,1,34.93,28.6Z"/><path class="cls-51" d="M34,30.34l-.12,0-.12,0a.92.92,0,0,0-.24,0l-.23.06-.11,0-.12,0,.1-.07.11,0,.24-.06a1,1,0,0,1,.25,0l.12,0Z"/><path class="cls-51" d="M34.1,29.25a1.22,1.22,0,0,0-.27-.08,1.85,1.85,0,0,0-.28,0,1,1,0,0,0-.53.15h0v0a.57.57,0,0,0-.27-.18.66.66,0,0,0-.33,0,1.43,1.43,0,0,0-.59.33l0,0v0a.45.45,0,0,0-.13-.2.29.29,0,0,0-.23-.06.31.31,0,0,1,.25,0,.37.37,0,0,1,.15.21h0a1.47,1.47,0,0,1,.61-.34.7.7,0,0,1,.35,0,.61.61,0,0,1,.3.19h0a1,1,0,0,1,.55-.16,1,1,0,0,1,.29,0A1.24,1.24,0,0,1,34.1,29.25Z"/><path class="cls-51" d="M33.31,30.1a1.38,1.38,0,0,1-.46.14.64.64,0,0,1-.25,0,.43.43,0,0,1-.21-.14h0a.84.84,0,0,1-.45.06.47.47,0,0,1-.21-.09.52.52,0,0,1-.14-.18h0a1.36,1.36,0,0,1-.42.26.58.58,0,0,1-.25,0,.38.38,0,0,1-.23-.11h0a1.81,1.81,0,0,1-.49.35.56.56,0,0,1-.3.06.35.35,0,0,1-.25-.16.34.34,0,0,0,.25.13.67.67,0,0,0,.28-.07,1.77,1.77,0,0,0,.48-.34h0a.33.33,0,0,0,.2.09.54.54,0,0,0,.23,0,1.32,1.32,0,0,0,.41-.25l0,0v0a.44.44,0,0,0,.32.26A.8.8,0,0,0,32.4,30h0a.39.39,0,0,0,.19.13.66.66,0,0,0,.23,0A1.37,1.37,0,0,0,33.31,30.1Z"/><path class="cls-51" d="M34.51,28.23a3.13,3.13,0,0,0-.43.18,4.08,4.08,0,0,0-.4.23,2.65,2.65,0,0,0-.36.29,2,2,0,0,0-.29.36h0a1.85,1.85,0,0,0-.36.33,1,1,0,0,0-.22.43h0a1.67,1.67,0,0,0-.74.57v0a.28.28,0,0,1,.12.16.51.51,0,0,1,0,.19v0a1.69,1.69,0,0,1,.35.35.81.81,0,0,1,.18.46.79.79,0,0,0-.21-.44,2.34,2.34,0,0,0-.35-.34h0a.46.46,0,0,0,0-.17.24.24,0,0,0-.1-.13h0v0A1.71,1.71,0,0,1,32.4,30v0a1,1,0,0,1,.23-.45,1.89,1.89,0,0,1,.37-.34h0a2,2,0,0,1,.3-.37,2.7,2.7,0,0,1,.37-.3,2.21,2.21,0,0,1,.41-.23A3.18,3.18,0,0,1,34.51,28.23Z"/><path class="cls-51" d="M31.78,29.42s0,0,0,.06l0,.05,0,.11,0,.11,0,.05,0,0v-.06l0-.05,0-.11,0-.11,0-.05Z"/><path class="cls-51" d="M31,29.37a2.34,2.34,0,0,0-.17.32.85.85,0,0,0-.07.34h0a1.8,1.8,0,0,0,.26.31,3.53,3.53,0,0,0,.31.27h0l.05,0h.08l.16,0-.16,0h-.09a.12.12,0,0,1-.08-.06h0a3.58,3.58,0,0,1-.32-.27,1.83,1.83,0,0,1-.27-.32h0a.88.88,0,0,1,.07-.36.72.72,0,0,1,.09-.16Z"/><path class="cls-51" d="M31,31.78a.59.59,0,0,1,0-.22,1.6,1.6,0,0,1,.1-.2,1.82,1.82,0,0,1,.28-.36v0a.68.68,0,0,1-.07-.18.31.31,0,0,1,0-.19.32.32,0,0,0,0,.09s0,.06,0,.09a.64.64,0,0,0,.07.17h0a1.78,1.78,0,0,0-.28.35,1.56,1.56,0,0,0-.1.2C31.06,31.64,31,31.71,31,31.78Z"/><path class="cls-51" d="M31.45,31a.36.36,0,0,0,.17,0l.16-.06h0a1.43,1.43,0,0,0,.34,0,2.16,2.16,0,0,0,.33-.11l.31-.16.3-.18a1.39,1.39,0,0,1-.28.21l-.32.16a2.2,2.2,0,0,1-.34.11,1.46,1.46,0,0,1-.36,0h0a.46.46,0,0,1-.17.06A.34.34,0,0,1,31.45,31Z"/><path class="cls-51" d="M30,30.45a.73.73,0,0,1,0,.16.72.72,0,0,1,0,.16.62.62,0,0,1-.14.29v0a1,1,0,0,1,.28.25.91.91,0,0,1,.1.16.71.71,0,0,1,0,.18.89.89,0,0,0-.08-.17.79.79,0,0,0-.09-.15.94.94,0,0,0-.27-.24h0l0,0a.58.58,0,0,0,.13-.27,1,1,0,0,0,0-.15A1,1,0,0,0,30,30.45Z"/><path class="cls-51" d="M29.38,30.81a.26.26,0,0,0,.07.12.32.32,0,0,0,.12.07.58.58,0,0,0,.28,0h0a1.5,1.5,0,0,0,.38.06,2.17,2.17,0,0,0,.39,0A2.53,2.53,0,0,0,31,31l.37-.12A1.65,1.65,0,0,1,31,31a2.54,2.54,0,0,1-.39.09,2.22,2.22,0,0,1-.4,0,1.53,1.53,0,0,1-.39-.06h0a.64.64,0,0,1-.3,0A.28.28,0,0,1,29.38,30.81Z"/><path class="cls-51" d="M30.76,30l0,.13,0,.12a1.35,1.35,0,0,0-.05.26,1.34,1.34,0,0,0,0,.26s0,.09,0,.13,0,.09,0,.13l-.05-.13s0-.09,0-.13a1.39,1.39,0,0,1,.06-.54l0-.13Z"/><path class="cls-49" d="M42.39,18a.55.55,0,0,1,.21.2,2.08,2.08,0,0,1,.15.25A3.8,3.8,0,0,1,43,19a4.46,4.46,0,0,1,.2,1.13A3.46,3.46,0,0,1,43,21.24a3,3,0,0,1-.52,1v0a1.3,1.3,0,0,1,.09.64,2,2,0,0,1-.17.63,3.35,3.35,0,0,1-.77,1v0a2,2,0,0,1-.38.88,1.22,1.22,0,0,1-.81.49c-.16,0-.32,0-.47,0l-.47,0a5.63,5.63,0,0,0-.93.14h0a4.64,4.64,0,0,1,.93-.18l.47,0c.16,0,.32,0,.47,0a1.18,1.18,0,0,0,.76-.46,2.08,2.08,0,0,0,.36-.83v0h0a3.49,3.49,0,0,0,.78-1,1.87,1.87,0,0,0,.18-.61,1.27,1.27,0,0,0-.07-.62h0a2.62,2.62,0,0,0,.5-1,3.84,3.84,0,0,0,.1-1.12A4.73,4.73,0,0,0,42.9,19a3.76,3.76,0,0,0-.19-.53,2.13,2.13,0,0,0-.13-.25.53.53,0,0,0-.19-.2Z"/><path class="cls-50" d="M38.37,25.76c.08-.37.17-.75.26-1.12s.2-.74.3-1.11q.32-1.1.73-2.18a14.35,14.35,0,0,1,1-2.08,4.7,4.7,0,0,1,.7-.92,1.61,1.61,0,0,1,.48-.33.74.74,0,0,1,.57,0h0a.73.73,0,0,0-.56,0,1.58,1.58,0,0,0-.46.34,4.68,4.68,0,0,0-.67.92,15,15,0,0,0-1,2.08c-.28.71-.52,1.44-.75,2.17s-.43,1.47-.62,2.21Z"/><path class="cls-51" d="M42.5,22.24a5.55,5.55,0,0,0-.6.33c-.2.12-.39.24-.58.37a10.5,10.5,0,0,0-1.07.86,11.87,11.87,0,0,0-1,1q-.23.26-.44.53l-.42.54q.19-.29.39-.57t.44-.53a11.91,11.91,0,0,1,1-1,10.54,10.54,0,0,1,1.08-.87q.28-.2.58-.37A5.47,5.47,0,0,1,42.5,22.24Z"/><path class="cls-51" d="M41.62,24.51a2.78,2.78,0,0,0-.43.08l-.42.11A5.4,5.4,0,0,0,40,25a6.42,6.42,0,0,0-.75.44l-.35.26-.35.26.32-.3.35-.26a6.46,6.46,0,0,1,.76-.45,5.45,5.45,0,0,1,.81-.33l.43-.11A2.73,2.73,0,0,1,41.62,24.51Z"/><path class="cls-51" d="M39.75,25.11l.25-.26.28-.23a5.36,5.36,0,0,1,.6-.4,4.32,4.32,0,0,1,.65-.3l.35-.11.36,0-.35.09-.34.1a4.26,4.26,0,0,0-.65.3,5.32,5.32,0,0,0-.6.39l-.28.22Z"/><path class="cls-51" d="M40.67,23.41h.22l.22,0,.44,0H42l.22,0,.22,0-.21.06-.22,0h-.44l-.44,0-.22,0Z"/><path class="cls-51" d="M39.52,25.24l.23,0,.22,0,.45,0h.45l.22,0,.22,0-.22.07-.23,0h-.45l-.45,0-.22,0Z"/><path class="cls-51" d="M39.25,23.22a.5.5,0,0,1,.33,0,.54.54,0,0,1,.25.23.92.92,0,0,1,.12.32.84.84,0,0,1,0,.34v0a.43.43,0,0,1,.1.33.91.91,0,0,1-.1.32,1.83,1.83,0,0,1-.18.28l-.24.24a3.15,3.15,0,0,0,.2-.27,1.78,1.78,0,0,0,.18-.28.87.87,0,0,0,.1-.31.39.39,0,0,0-.08-.29h0a.88.88,0,0,0-.11-.62.5.5,0,0,0-.23-.21A.48.48,0,0,0,39.25,23.22Z"/><path class="cls-51" d="M39.9,23.63a4.92,4.92,0,0,1,.38-.54c.14-.17.28-.34.44-.5a4.61,4.61,0,0,1,1-.83h0a1.47,1.47,0,0,1,.55-.38.75.75,0,0,1,.33,0,.77.77,0,0,1,.32.1.76.76,0,0,0-.32-.07,1,1,0,0,0-.32.06,1.43,1.43,0,0,0-.53.36h0a4.57,4.57,0,0,0-1,.83c-.15.16-.3.32-.44.49S40,23.45,39.9,23.63Z"/><path class="cls-51" d="M41.65,22.7a.45.45,0,0,1-.06-.11.81.81,0,0,1,0-.12,1,1,0,0,1,0-.25,1.19,1.19,0,0,1,.06-.24l0-.11.07-.1,0,.12,0,.11a1.15,1.15,0,0,0-.06.23.92.92,0,0,0,0,.23.76.76,0,0,0,0,.12A.67.67,0,0,0,41.65,22.7Z"/><path class="cls-51" d="M40.56,22.8a1.23,1.23,0,0,1-.11-.27,1,1,0,0,1,0-.29,1,1,0,0,1,.16-.55v0a.61.61,0,0,1-.19-.3.7.7,0,0,1,0-.35,1.47,1.47,0,0,1,.34-.61v0a.37.37,0,0,1-.21-.15.31.31,0,0,1,0-.25.29.29,0,0,0,.06.23.45.45,0,0,0,.2.13h0l0,0a1.43,1.43,0,0,0-.33.59.66.66,0,0,0,0,.33.57.57,0,0,0,.18.27h0v0a1,1,0,0,0-.15.53,1.85,1.85,0,0,0,0,.28A1.22,1.22,0,0,0,40.56,22.8Z"/><path class="cls-51" d="M41.4,22a1.36,1.36,0,0,0,.1-.47.66.66,0,0,0,0-.23.39.39,0,0,0-.13-.19h0v0a.8.8,0,0,0,.06-.43.44.44,0,0,0-.26-.32h0l0,0a1.32,1.32,0,0,0,.25-.4.54.54,0,0,0,0-.23.33.33,0,0,0-.09-.2h0v0a1.77,1.77,0,0,0,.34-.48.67.67,0,0,0,.07-.28.34.34,0,0,0-.13-.25.35.35,0,0,1,.16.25.56.56,0,0,1-.06.3,1.81,1.81,0,0,1-.35.49v0a.38.38,0,0,1,.11.23.58.58,0,0,1,0,.25,1.36,1.36,0,0,1-.26.42v0a.52.52,0,0,1,.18.14.47.47,0,0,1,.09.21.84.84,0,0,1-.06.45v0a.43.43,0,0,1,.14.21.64.64,0,0,1,0,.25A1.38,1.38,0,0,1,41.4,22Z"/><path class="cls-51" d="M39.54,23.21a3.17,3.17,0,0,1,.15-.45,2.21,2.21,0,0,1,.23-.41,2.7,2.7,0,0,1,.3-.37,2,2,0,0,1,.37-.3h0a1.89,1.89,0,0,1,.34-.37,1,1,0,0,1,.45-.23h0a1.71,1.71,0,0,1,.58-.76h0v0a.24.24,0,0,0,.13.1.46.46,0,0,0,.17,0h0a2.34,2.34,0,0,0,.34.35.79.79,0,0,0,.44.21.81.81,0,0,1-.46-.18,1.69,1.69,0,0,1-.35-.35h0a.51.51,0,0,1-.19,0,.28.28,0,0,1-.16-.12h0a1.67,1.67,0,0,0-.57.74h0a1,1,0,0,0-.43.22,1.85,1.85,0,0,0-.33.36h0a2,2,0,0,0-.36.29,2.65,2.65,0,0,0-.29.36,4.07,4.07,0,0,0-.23.4A3.13,3.13,0,0,0,39.54,23.21Z"/><path class="cls-51" d="M40.73,20.48l0,0,.05,0,.11,0,.11,0,.05,0h.06l0,0-.05,0-.11,0-.11,0-.05,0Z"/><path class="cls-51" d="M40.68,19.72l.14-.12a.72.72,0,0,1,.16-.09.88.88,0,0,1,.36-.07h0a1.83,1.83,0,0,1,.32.27,3.59,3.59,0,0,1,.27.32h0a.12.12,0,0,1,.06.08.28.28,0,0,1,0,.09.8.8,0,0,1,0,.16.78.78,0,0,0,0-.16.36.36,0,0,0,0-.08.08.08,0,0,0,0-.05h0a3.53,3.53,0,0,0-.27-.31,1.8,1.8,0,0,0-.31-.26h0a.85.85,0,0,0-.34.07A2.34,2.34,0,0,0,40.68,19.72Z"/><path class="cls-51" d="M43.08,19.7l-.21.09-.2.1a1.78,1.78,0,0,0-.35.28h0l-.17-.07-.09,0H42a.31.31,0,0,1,.19,0,.68.68,0,0,1,.18.07h0a1.82,1.82,0,0,1,.36-.28l.2-.1A.59.59,0,0,1,43.08,19.7Z"/><path class="cls-51" d="M42.32,20.15a.34.34,0,0,1,0,.18.46.46,0,0,1-.06.17h0a1.46,1.46,0,0,1,0,.35,2.2,2.2,0,0,1-.11.34,2.61,2.61,0,0,1-.16.32,1.39,1.39,0,0,1-.21.28l.18-.3a2.53,2.53,0,0,0,.16-.31,2.16,2.16,0,0,0,.11-.33,1.43,1.43,0,0,0,0-.34h0a.94.94,0,0,0,.06-.16A.36.36,0,0,0,42.32,20.15Z"/><path class="cls-51" d="M41.75,18.7h.16l.15,0a.58.58,0,0,0,.27-.13l0,0v0a.94.94,0,0,0,.24.27l.15.09.17.08-.18,0-.16-.1a1,1,0,0,1-.25-.28h0a.62.62,0,0,1-.29.14l-.16,0Z"/><path class="cls-51" d="M42.12,18.08a.28.28,0,0,1,.23.18.64.64,0,0,1,0,.3h0a1.53,1.53,0,0,1,.06.39,2.22,2.22,0,0,1,0,.4,2.53,2.53,0,0,1-.09.39,1.65,1.65,0,0,1-.16.36c0-.12.08-.25.12-.37a2.52,2.52,0,0,0,.09-.38,2.17,2.17,0,0,0,0-.39,1.5,1.5,0,0,0-.06-.38h0a.58.58,0,0,0,0-.28.32.32,0,0,0-.07-.12A.26.26,0,0,0,42.12,18.08Z"/><path class="cls-51" d="M41.34,19.46l.11-.08.13,0,.27-.06h.27l.13,0,.13.05h-.13l-.13,0h-.26l-.26.05-.12,0Z"/><g class="cls-52"><path class="cls-47" d="M40.46,33.88a.26.26,0,0,0,0,.22,1.83,1.83,0,0,0,.1.22c.07.14.15.28.23.42a4.29,4.29,0,0,1,.23.42,1.57,1.57,0,0,1,.14.46h0a4.66,4.66,0,0,0-.21-.43l-.21-.43c-.07-.14-.15-.28-.21-.43a1.85,1.85,0,0,1-.08-.23.28.28,0,0,1,0-.24Z"/></g><g class="cls-52"><path class="cls-47" d="M45.09,29.31a9.84,9.84,0,0,0,1,.63,3.17,3.17,0,0,1,.45.35c.07.06.15.11.22.07a.62.62,0,0,0,.16-.22h0a.52.52,0,0,1-.13.26.16.16,0,0,1-.16,0,.54.54,0,0,1-.13-.07c-.16-.12-.29-.24-.44-.35l-.47-.32a5.63,5.63,0,0,1-.45-.36Z"/></g><g class="cls-52"><path class="cls-47" d="M39.37,31.9l.33.76c.06.13.12.25.17.38l.15.39h0a1.91,1.91,0,0,1-.22-.36,4,4,0,0,1-.16-.39q-.15-.39-.27-.79Z"/></g><g class="cls-52"><path class="cls-47" d="M43,28l.85.25a4,4,0,0,1,.42.15,1.56,1.56,0,0,1,.39.23h0l-.41-.16-.41-.17L43,28Z"/></g><g class="cls-52"><path class="cls-47" d="M38.18,31.45l-.07.76c0,.13,0,.25,0,.38s0,.25-.07.38h0a2.25,2.25,0,0,1,0-.39c0-.13,0-.25.05-.38s.08-.5.13-.76Z"/></g><g class="cls-52"><path class="cls-47" d="M38.22,33.82a3.47,3.47,0,0,0,.11.63,1.21,1.21,0,0,0,.12.28.2.2,0,0,0,.24.1h0a.2.2,0,0,1-.17,0,.28.28,0,0,1-.15-.1.75.75,0,0,1-.12-.31,2.84,2.84,0,0,1,0-.65Z"/></g><g class="cls-52"><path class="cls-47" d="M42.87,26.83c.26-.06.52-.11.78-.15a2.47,2.47,0,0,1,.4,0l.2,0,.1,0a.09.09,0,0,1,0,0,.06.06,0,0,1,0,.05h0s0-.05,0-.06h-.28l-.39,0-.79.09Z"/></g><g class="cls-52"><path class="cls-47" d="M45,26.85a4,4,0,0,1,.66.06A1.19,1.19,0,0,1,46,27a.53.53,0,0,1,.14.1.17.17,0,0,1,0,.17h0c0-.11-.12-.16-.21-.19l-.3-.11a5.3,5.3,0,0,0-.65-.12Z"/></g><g class="cls-52"><path class="cls-47" d="M32.52,25.94a.16.16,0,0,0,0,.08l.07.07.15.13c.1.08.21.17.32.24a1.37,1.37,0,0,0,.75.25h0a1.33,1.33,0,0,1-.79-.2,1.67,1.67,0,0,1-.34-.24,1.38,1.38,0,0,1-.14-.16.31.31,0,0,1-.08-.19Z"/></g><g class="cls-52"><path class="cls-47" d="M37.25,21.22a.71.71,0,0,0,0,.19.56.56,0,0,0,0,.17,1.12,1.12,0,0,0,.23.31h0a1,1,0,0,1-.28-.28.34.34,0,0,1-.06-.2.29.29,0,0,1,.09-.19Z"/></g></g></g></svg>