<svg xmlns="http://www.w3.org/2000/svg" xmlns:xlink="http://www.w3.org/1999/xlink" viewBox="0 0 62.65 62.65"><defs><style>.cls-1{fill:none;}.cls-2{isolation:isolate;}.cls-3{fill:#2f331d;}.cls-4{fill:#525731;}.cls-5{fill:#e5e8d4;}.cls-6{fill:#dccbb6;}.cls-7{fill:#9d9d8a;}.cls-8{fill:#5a2835;}.cls-9{fill:#260617;}.cls-10{fill:#321029;}.cls-11{fill:#44323c;}.cls-12{fill:#e29813;}.cls-13{fill:#f4ab37;}.cls-14{fill:#3b0526;}.cls-15{fill:#a9783f;}.cls-16{clip-path:url(#clip-path);}.cls-17,.cls-18,.cls-20,.cls-21,.cls-38{mix-blend-mode:screen;}.cls-17{fill:url(#radial-gradient);}.cls-18{fill:url(#radial-gradient-2);}.cls-19{clip-path:url(#clip-path-2);}.cls-20{fill:url(#radial-gradient-3);}.cls-21{fill:url(#radial-gradient-4);}.cls-22{fill:#5c2312;}.cls-23{fill:#7a3a4e;}.cls-24{fill:#6a3526;}.cls-25{fill:#efac3f;}.cls-26{fill:#eea835;}.cls-27{fill:#f9af38;}.cls-28{fill:#af6d04;}.cls-29{fill:#c9b472;mix-blend-mode:multiply;}.cls-30{fill:#cc9a69;}.cls-31{fill:#633d3d;}.cls-32{fill:#442424;}.cls-33{fill:#fff;}.cls-34{fill:#7f4c36;}.cls-35{fill:#c7bdb4;}.cls-36{fill:#c1bbac;}.cls-37{fill:#afa194;}</style><clipPath id="clip-path"><path class="cls-1" d="M14.24,38a4.84,4.84,0,0,1,.94-.64,3.61,3.61,0,0,1,.53-.23l.17-.06h0a3.66,3.66,0,0,1,2.86.35A5.1,5.1,0,0,1,19.95,34l.62.06c.27,0,.5.07.69.1a5.2,5.2,0,0,1,.67.16.6.6,0,0,0,.17-.12.91.91,0,0,0,.16-.21,1,1,0,0,0,.1-.23l-.08-.33c-.06-.24-.16-.6-.28-1.06h0a2.84,2.84,0,0,1,.4-.1A2.87,2.87,0,0,1,23,32.2a3.24,3.24,0,0,1,.76.11,3.81,3.81,0,0,1,1.64.93A3.7,3.7,0,0,1,26,34h0a3.47,3.47,0,0,1,.34.84,3.14,3.14,0,0,1,.11.76,2.71,2.71,0,0,1-.05.61,2.84,2.84,0,0,1-.1.4h0l-1.06-.28-.34-.08a1,1,0,0,0-.23.1.91.91,0,0,0-.21.16.6.6,0,0,0-.12.17,5,5,0,0,1,.16.68c0,.19.07.42.1.69s0,.39.06.62a5.08,5.08,0,0,1-3.39,1.2,3.43,3.43,0,0,1,.23.47,3.39,3.39,0,0,1,.12,2.38h0l-.06.17a3.61,3.61,0,0,1-.23.53h0a4.93,4.93,0,0,1-.64.93,6.55,6.55,0,0,1-.71.73,7.6,7.6,0,0,1-.63.5,10.11,10.11,0,0,1-1.47.88l-.64.29c-.32.14-.64.26-.94.37h0a14.75,14.75,0,0,1-1.53.47,12.44,12.44,0,0,1-1.52.3,3.78,3.78,0,0,1-2.37-.16,3.76,3.76,0,0,1-.16-2.37h0a13.32,13.32,0,0,1,.3-1.52h0a15.52,15.52,0,0,1,.48-1.52h0q.16-.46.37-.94c.09-.22.19-.43.29-.64A9.88,9.88,0,0,1,13,39.3a7.64,7.64,0,0,1,.5-.63A6.55,6.55,0,0,1,14.24,38Z"/></clipPath><radialGradient id="radial-gradient" cx="10149.81" cy="3808.26" r="20.3" gradientTransform="matrix(0, -0.31, -0.44, 0, 1680.87, 3181.73)" gradientUnits="userSpaceOnUse"><stop offset="0" stop-color="#fae282"/><stop offset="0.19" stop-color="#e0853b"/><stop offset="0.37" stop-color="#78471e"/><stop offset="0.53" stop-color="#40260f"/><stop offset="0.7" stop-color="#140c03"/><stop offset="0.84" stop-color="#060401"/><stop offset="1"/></radialGradient><radialGradient id="radial-gradient-2" cx="10149.91" cy="3786.46" r="9.93" gradientTransform="matrix(0, -0.31, -0.44, 0, 1677.78, 3174.82)" xlink:href="#radial-gradient"/><clipPath id="clip-path-2"><path class="cls-1" d="M26,30.14a6.92,6.92,0,0,1,.76,0h0a4.82,4.82,0,0,1,.68,0,1,1,0,0,1,1.09,1.09,5.26,5.26,0,0,1,0,.68,6.47,6.47,0,0,1,0,.76s.43,2-2.17,2.21A3.47,3.47,0,0,0,26,34h0a3.7,3.7,0,0,0-.59-.8,3.81,3.81,0,0,0-1.64-.93C24,29.7,26,30.14,26,30.14Z"/></clipPath><radialGradient id="radial-gradient-3" cx="11964.2" cy="-1094.84" r="9.93" gradientTransform="matrix(-0.31, 0, 0, 0.44, 3726.62, 513.09)" xlink:href="#radial-gradient"/><radialGradient id="radial-gradient-4" cx="11970.18" cy="-1101.33" r="9.93" gradientTransform="matrix(-0.31, 0, 0, 0.44, 3726.12, 513.5)" xlink:href="#radial-gradient"/></defs><title>game-icon</title><g class="cls-2"><g id="Layer_1" data-name="Layer 1"><circle class="cls-3" cx="31.33" cy="31.33" r="31.33"/><path class="cls-4" d="M31.33,61.65A30.33,30.33,0,1,1,61.65,31.33,30.36,30.36,0,0,1,31.33,61.65Z"/><path class="cls-5" d="M32.6,42.82a1.89,1.89,0,0,0-1.78-.21,11.26,11.26,0,0,1,.88,1.63,5.29,5.29,0,0,0,1.56.86C33.86,43.92,32.6,42.82,32.6,42.82Z"/><path class="cls-5" d="M32.74,40.56a2.24,2.24,0,0,0-2.12-.06,11.61,11.61,0,0,1,1.53,1.63s1.22.58,1.74-.08A2.81,2.81,0,0,0,32.74,40.56Z"/><path class="cls-5" d="M32.6,42.82s1.26,1.1.66,2.28a5.67,5.67,0,0,0,.78.22c0-.78,1.06-1.52,1.06-1.52A4.14,4.14,0,0,1,32.6,42.82Z"/><path class="cls-5" d="M32.15,42.13a6.7,6.7,0,0,1,.45.68,4.14,4.14,0,0,0,2.5,1c0-.5.25-.62.25-.62A3.28,3.28,0,0,0,34,42.09h0l0,0h0C33.38,42.71,32.15,42.13,32.15,42.13Z"/><path class="cls-5" d="M35.88,43.2a.13.13,0,0,0,.07-.06A4.5,4.5,0,0,0,37.08,42c-.62.6-1.68-.37-1.68-.37a1.08,1.08,0,0,1-1.41.44,3.28,3.28,0,0,1,1.35,1.07A.84.84,0,0,0,35.88,43.2Z"/><path class="cls-6" d="M35.34,43.16s-.28.13-.25.62a.93.93,0,0,0,.65.11,1.33,1.33,0,0,0,.14-.33.71.71,0,0,0,0-.37A.84.84,0,0,1,35.34,43.16Z"/><path class="cls-5" d="M35.1,43.79s-1,.75-1.06,1.52a7.63,7.63,0,0,0,2.58.07,3,3,0,0,0-.87-1.48A.93.93,0,0,1,35.1,43.79Z"/><path class="cls-5" d="M35.88,43.57a1.33,1.33,0,0,1-.14.33,3,3,0,0,1,.87,1.48A8.91,8.91,0,0,0,38,45.07,1.75,1.75,0,0,1,38.82,44,3.49,3.49,0,0,1,37.3,44,5,5,0,0,1,35.88,43.57Z"/><path class="cls-5" d="M36,43.14a.13.13,0,0,1-.07.06.71.71,0,0,1,0,.37A5,5,0,0,0,37.3,44a2.59,2.59,0,0,0-.22-2A4.5,4.5,0,0,1,36,43.14Z"/><path class="cls-5" d="M38.82,44A1.75,1.75,0,0,0,38,45.07a3.46,3.46,0,0,0,1.88-1,2.07,2.07,0,0,0-.15-.52s-.06.55-.91.44Z"/><path class="cls-5" d="M39.07,42.53h0a.66.66,0,0,1-.52.28A1.47,1.47,0,0,0,38.83,44c.85.11.91-.44.91-.44A3.35,3.35,0,0,0,39.07,42.53Z"/><path class="cls-6" d="M35.84,40.34a.64.64,0,0,0-.73.49s.17.52.29.81c0,0,1.05,1,1.68.37a1.89,1.89,0,0,0-.49-1.28l-.74-.39Z"/><path class="cls-5" d="M35.11,40.83c-1.57-1.34-2.37-.27-2.37-.27A2.81,2.81,0,0,1,33.89,42h0l0,0h0a1.08,1.08,0,0,0,1.41-.44C35.29,41.36,35.11,40.83,35.11,40.83Z"/><path class="cls-5" d="M38.55,42.81c-.66,0-1.47-.79-1.47-.79a2.59,2.59,0,0,1,.22,2A3.49,3.49,0,0,0,38.82,44h0A1.47,1.47,0,0,1,38.55,42.81Z"/><path class="cls-5" d="M36.58,40.73A1.89,1.89,0,0,1,37.08,42s.81.83,1.47.79a.66.66,0,0,0,.52-.28h0A10.29,10.29,0,0,0,36.58,40.73Z"/><path class="cls-5" d="M14.7,19.83h0a3.49,3.49,0,0,0-.06,1.52,2.6,2.6,0,0,1,2,.22s-.83-.81-.8-1.47A1.47,1.47,0,0,1,14.7,19.83Z"/><path class="cls-5" d="M15.14,18.92s-.55.06-.44.91a1.47,1.47,0,0,0,1.15.28.66.66,0,0,1,.28-.52h0A3.35,3.35,0,0,0,15.14,18.92Z"/><path class="cls-5" d="M15.46,22.79a.84.84,0,0,0,0,.54,3.28,3.28,0,0,1,1.08,1.35A1.08,1.08,0,0,1,17,23.26s-1-1.05-.36-1.67a4.41,4.41,0,0,0-1.13,1.13A.13.13,0,0,0,15.46,22.79Z"/><path class="cls-5" d="M17.93,22.08a1.87,1.87,0,0,0-1.28-.49c-.61.62.36,1.67.36,1.67.29.12.82.29.82.29a.64.64,0,0,0,.49-.73h0C18.19,22.57,18.06,22.32,17.93,22.08Z"/><path class="cls-5" d="M14.69,19.84a1.74,1.74,0,0,1-1.11.81,8.93,8.93,0,0,0-.31,1.4,3,3,0,0,1,1.48.87,1.33,1.33,0,0,1,.33-.13,5,5,0,0,1-.45-1.42A3.49,3.49,0,0,1,14.69,19.84Z"/><path class="cls-6" d="M15.08,22.79a1.33,1.33,0,0,0-.33.13.94.94,0,0,0,.11.65c.5,0,.63-.24.63-.24a.84.84,0,0,1,0-.54A.7.7,0,0,0,15.08,22.79Z"/><path class="cls-5" d="M16.13,19.6a.66.66,0,0,0-.28.52c0,.67.8,1.47.8,1.47a1.87,1.87,0,0,1,1.28.49,10.27,10.27,0,0,0-1.8-2.48Z"/><path class="cls-5" d="M14.62,18.78a3.46,3.46,0,0,0-1,1.88,1.74,1.74,0,0,0,1.11-.81h0c-.11-.85.44-.91.44-.91A2.07,2.07,0,0,0,14.62,18.78Z"/><path class="cls-5" d="M14.76,22.92a3,3,0,0,0-1.48-.87,7.68,7.68,0,0,0,.07,2.57c.78,0,1.53-1.06,1.53-1.06A.94.94,0,0,1,14.76,22.92Z"/><path class="cls-6" d="M16.65,21.59a2.6,2.6,0,0,0-2-.22,5,5,0,0,0,.45,1.42.7.7,0,0,1,.37,0,.13.13,0,0,1,.06-.07A4.41,4.41,0,0,1,16.65,21.59Z"/><path class="cls-5" d="M15.49,23.32s-.13.28-.63.24a4.14,4.14,0,0,0,1,2.5,6.86,6.86,0,0,1,.68.45s-.58-1.22.09-1.74v0l0,0v0A3.28,3.28,0,0,0,15.49,23.32Z"/><path class="cls-5" d="M14.87,23.57s-.75,1-1.53,1.06a5.47,5.47,0,0,0,.22.78c1.18-.6,2.28.66,2.28.66A4.14,4.14,0,0,1,14.87,23.57Z"/><path class="cls-5" d="M13.56,25.4A5.29,5.29,0,0,0,14.42,27a11,11,0,0,1,1.63.88,1.86,1.86,0,0,0-.21-1.78S14.74,24.81,13.56,25.4Z"/><path class="cls-6" d="M30.82,42.61a18.53,18.53,0,0,0-1.37-1.88,12.51,12.51,0,0,0,0,3.4,2.81,2.81,0,0,0,2.25.12A11.26,11.26,0,0,0,30.82,42.61Z"/><path class="cls-6" d="M28.74,43.75a9.22,9.22,0,0,0-2.58-4.8,8.52,8.52,0,0,1,1.17,3.6A7.17,7.17,0,0,0,28.74,43.75Z"/><path class="cls-6" d="M29.82,38a.94.94,0,0,1,0,.55,5.05,5.05,0,0,1,2.91,2s.79-1.07,2.37.27a.64.64,0,0,1,.73-.49h0A43.76,43.76,0,0,0,29.82,38Z"/><path class="cls-6" d="M29.44,40.72a18.53,18.53,0,0,1,1.37,1.88,1.89,1.89,0,0,1,1.78.21,6.7,6.7,0,0,0-.45-.68,11.61,11.61,0,0,0-1.53-1.63h0A15.84,15.84,0,0,0,29,39.24a1.71,1.71,0,0,1-.87,0C28.64,39.78,29.07,40.27,29.44,40.72Z"/><path class="cls-5" d="M24.69,38.69h0c0,.37.05.78.06,1.25a2.35,2.35,0,0,0,1.11,2,8.11,8.11,0,0,1,.06-3.46c-.11-.18-.23-.38-.36-.57A5.55,5.55,0,0,1,24.69,38.69Z"/><path class="cls-5" d="M25.9,38.5c.09.15.18.3.26.45a9.22,9.22,0,0,1,2.58,4.8,4.59,4.59,0,0,0,.71.37,12.51,12.51,0,0,1,0-3.4c-.38-.46-.81-.94-1.3-1.44C28.15,39.28,27.48,40,25.9,38.5Z"/><path class="cls-6" d="M25.9,38.5h0A8.11,8.11,0,0,0,25.84,42a4.1,4.1,0,0,0,1.49.6,8.52,8.52,0,0,0-1.17-3.6C26.08,38.8,26,38.65,25.9,38.5Z"/><path class="cls-6" d="M26.2,36.92a3.08,3.08,0,0,1-.22.43,24.29,24.29,0,0,1,2.17,1.94,1.71,1.71,0,0,0,.87,0,1.14,1.14,0,0,0,.81-.71.94.94,0,0,0,0-.55C28.37,37.51,27.08,37.15,26.2,36.92Z"/><path class="cls-6" d="M26,37.35a4.26,4.26,0,0,1-.44.58c.13.19.25.38.36.57h0c1.58,1.52,2.24.79,2.24.79A24.29,24.29,0,0,0,26,37.35Z"/><path class="cls-6" d="M29.83,38.53a1.14,1.14,0,0,1-.81.71,15.84,15.84,0,0,1,1.61,1.27h0a2.24,2.24,0,0,1,2.12.06A5.05,5.05,0,0,0,29.83,38.53Z"/><path class="cls-6" d="M16.71,32.82a2.35,2.35,0,0,0,2,1.11c.47,0,.89,0,1.25.06v0a5.5,5.5,0,0,1,.76-.85l-.56-.36A8.09,8.09,0,0,1,16.71,32.82Z"/><path class="cls-6" d="M17,23.26a1.08,1.08,0,0,0-.44,1.41v0l0,0v0a2.8,2.8,0,0,1,1.48,1.15s1.08-.79-.27-2.36C17.83,23.56,17.3,23.38,17,23.26Z"/><path class="cls-6" d="M20.13,28.83a5.05,5.05,0,0,0-2-2.91A2.24,2.24,0,0,1,18.15,28h0a15.84,15.84,0,0,1,1.27,1.61A1.15,1.15,0,0,1,20.13,28.83Z"/><path class="cls-6" d="M14.53,29.21a4.64,4.64,0,0,0,.37.71,9.22,9.22,0,0,1,4.81,2.58h0l.45.26c-1.52-1.58-.79-2.24-.79-2.24-.5-.49-1-.92-1.44-1.3A12.49,12.49,0,0,1,14.53,29.21Z"/><path class="cls-6" d="M17.93,29.22c.46.38.94.81,1.44,1.3a1.69,1.69,0,0,1,0-.87A15.84,15.84,0,0,0,18.15,28h0a11.63,11.63,0,0,0-1.63-1.52,6.86,6.86,0,0,0-.68-.45A1.86,1.86,0,0,1,16,27.85,17.82,17.82,0,0,1,17.93,29.22Z"/><path class="cls-6" d="M18.32,22.82h0a.64.64,0,0,1-.49.73c1.34,1.57.27,2.36.27,2.36a5.05,5.05,0,0,1,2,2.91,1,1,0,0,1,.56,0A43.56,43.56,0,0,0,18.32,22.82Z"/><path class="cls-6" d="M14.42,27a2.81,2.81,0,0,0,.12,2.25,12.49,12.49,0,0,0,3.4,0A17.82,17.82,0,0,0,16,27.85,11,11,0,0,0,14.42,27Z"/><path class="cls-5" d="M16.61,24.77c-.66.52-.09,1.74-.09,1.74A11.63,11.63,0,0,1,18.15,28a2.24,2.24,0,0,0-.06-2.11A2.8,2.8,0,0,0,16.61,24.77Z"/><path class="cls-6" d="M19.71,32.5a8.46,8.46,0,0,0-3.6-1.17,4.1,4.1,0,0,0,.6,1.49,8.09,8.09,0,0,0,3.46-.07Z"/><path class="cls-5" d="M14.9,29.92a7.2,7.2,0,0,0,1.2,1.42,8.46,8.46,0,0,1,3.6,1.17h0A9.22,9.22,0,0,0,14.9,29.92Z"/><path class="cls-6" d="M19.37,30.52s-.73.67.79,2.24l.56.36a4.35,4.35,0,0,1,.59-.44A24.19,24.19,0,0,0,19.37,30.52Z"/><path class="cls-6" d="M20.13,28.83a1.15,1.15,0,0,0-.71.81,1.69,1.69,0,0,0,0,.87,24.19,24.19,0,0,1,1.94,2.17,3.16,3.16,0,0,1,.43-.22c-.23-.88-.59-2.17-1.06-3.61A1,1,0,0,0,20.13,28.83Z"/><path class="cls-7" d="M26.3,36.65h0a1.73,1.73,0,0,1-.1.27c.88.23,2.17.59,3.62,1.06a43.76,43.76,0,0,1,6,2.37l.74.39a10.29,10.29,0,0,1,2.48,1.8,3.35,3.35,0,0,1,.67,1,2.07,2.07,0,0,1,.15.52C41,40.93,30.23,37.71,26.3,36.65Z"/><path class="cls-7" d="M14.62,18.78a2.07,2.07,0,0,1,.52.15,3.35,3.35,0,0,1,1,.67,10.27,10.27,0,0,1,1.8,2.48c.13.24.26.49.39.74a43.56,43.56,0,0,1,2.37,6c.46,1.44.83,2.73,1.06,3.61l.27-.1h0C20.95,28.43,17.72,17.66,14.62,18.78Z"/><path class="cls-8" d="M34.59,32.87c-.22-.27-.81.43-1.3.85a.88.88,0,0,1,.44,0c.16-.15.6-.49.6-.49,1.46.84,1.72-.14,1.72-.14C35.62,33.62,34.82,33.14,34.59,32.87Z"/><path class="cls-8" d="M25.54,22.61s-1,.26-.15,1.72c0,0-.34.45-.49.6a.89.89,0,0,1,.05.44,6.71,6.71,0,0,0,.88-1.06.2.2,0,0,0,0-.24C25.52,23.85,25,23,25.54,22.61Z"/><path class="cls-8" d="M6.23,37.08c-.1,0-1.6-.08-1.06,1.4,0-.09.07-1.21,1.14-1.14a.82.82,0,0,1-.05-.15.44.44,0,0,1,0-.11Z"/><path class="cls-8" d="M4.73,43.26c-.95.22-1.76.81-.64,1.8,0,0-.87-1.07.8-1.59A1,1,0,0,1,4.73,43.26Z"/><path class="cls-8" d="M13.59,54.56c1,1.11,1.59.31,1.8-.64a1,1,0,0,1-.21-.16C14.66,55.43,13.59,54.56,13.59,54.56Z"/><path class="cls-8" d="M21.47,52.4l-.15-.05c.08,1.07-1,1.13-1.14,1.14,1.48.54,1.4-1,1.4-1.06h0Z"/><path class="cls-9" d="M7.07,36.62c-.53.07-.86.14-.84.46h0a.44.44,0,0,0,0,.11.82.82,0,0,0,.05.15h0c.14.28.46.3,1-.07h0A1.6,1.6,0,0,1,7.07,36.62Z"/><path class="cls-9" d="M5.54,42.45c-.59.09-1.08.34-.81.81a1,1,0,0,0,.16.21c.23.23.5.13.91-.47A4,4,0,0,1,5.54,42.45Z"/><path class="cls-9" d="M15.65,52.85c-.6.41-.7.68-.46.91a1,1,0,0,0,.21.16c.47.28.72-.22.81-.81A3.68,3.68,0,0,1,15.65,52.85Z"/><path class="cls-9" d="M21.38,51.38h0c-.37.5-.35.82-.07,1h0l.15.05.11,0h0c.32,0,.39-.31.46-.84A1.61,1.61,0,0,1,21.38,51.38Z"/><path class="cls-8" d="M22.35,47.79h0a6.81,6.81,0,0,1-.93,2.51c-.34.55-.34.89,0,1.08a1.61,1.61,0,0,0,.66.2c.89.12.93-2.21.72-3.55A1.17,1.17,0,0,1,22.35,47.79Z"/><path class="cls-8" d="M10.62,35.9c-1.34-.22-3.67-.17-3.56.72a1.6,1.6,0,0,0,.2.66c.2.31.53.31,1.08,0a6.88,6.88,0,0,1,2.51-.93h0A1.17,1.17,0,0,1,10.62,35.9Z"/><path class="cls-10" d="M12,35.4c-1.26-.17-1.64-.17-1.41.5a1.17,1.17,0,0,0,.24.41,1.33,1.33,0,0,0,1.33.3,22.25,22.25,0,0,1,2.7-.16c-.12-.11-.2-.22-.19-.32S14.82,36,15,36C14.87,36,13.24,35.56,12,35.4Z"/><path class="cls-8" d="M8.23,40.11c-1,.41-3.05,1.38-2.85,1.93l.15.4A4,4,0,0,0,5.8,43c.17.29.39.47.64.35a13,13,0,0,0,3.52-3A2,2,0,0,1,9.81,40C9.32,40.27,9.27,39.71,8.23,40.11Z"/><path class="cls-8" d="M18.33,48.69a13,13,0,0,0-3,3.51c-.13.25.06.47.35.64a3.68,3.68,0,0,0,.55.26l.41.15c.55.2,1.52-1.82,1.93-2.85s-.16-1.09.12-1.57A2,2,0,0,1,18.33,48.69Z"/><path class="cls-10" d="M22.52,43.95c-.1,0-.21-.06-.32-.19A22.24,22.24,0,0,1,22,46.46a1.33,1.33,0,0,0,.3,1.33,1.17,1.17,0,0,0,.41.24c.66.23.66-.15.5-1.41s-.55-2.83-.58-3C22.66,43.83,22.61,43.93,22.52,43.95Z"/><path class="cls-10" d="M14.25,38a4.84,4.84,0,0,1,.94-.64C13,37.92,9.58,39,9.69,39.59a2.58,2.58,0,0,0,.11.4,2,2,0,0,0,.15.33c.18.31.44.5.76.3.54-.35,2.8-1.94,2.8-1.94A6.55,6.55,0,0,1,14.25,38Z"/><path class="cls-10" d="M20.69,44.41a6.55,6.55,0,0,1-.71.73s-1.6,2.25-1.94,2.79c-.21.32,0,.58.3.76a2,2,0,0,0,.33.15,2.58,2.58,0,0,0,.4.11c.58.12,1.67-3.29,2.26-5.48A4.93,4.93,0,0,1,20.69,44.41Z"/><path class="cls-10" d="M15,36c-.17,0-.27.07-.29.15s.06.21.19.32a4.4,4.4,0,0,0,1,.58h0a3.42,3.42,0,0,1,2.38.12h0A6.2,6.2,0,0,0,15,36Z"/><path class="cls-10" d="M21.51,40.38h0a3.39,3.39,0,0,1,.12,2.38h0a4.39,4.39,0,0,0,.58,1c.11.12.22.2.32.19s.14-.12.15-.29h0A6.19,6.19,0,0,0,21.51,40.38Z"/><path class="cls-10" d="M33.73,33.76a.88.88,0,0,0-.44,0h0a1,1,0,0,0-.73.42,4.14,4.14,0,0,1-2,1.3,2.2,2.2,0,0,1,0,.26h0A3.23,3.23,0,0,0,34,34.18.39.39,0,0,0,33.73,33.76Z"/><path class="cls-10" d="M24.9,24.93a.39.39,0,0,0-.42-.27A3.23,3.23,0,0,0,23,28.09h0l.26,0a4.19,4.19,0,0,1,1.3-2,1,1,0,0,0,.42-.73h0A.89.89,0,0,0,24.9,24.93Z"/><path class="cls-11" d="M27.18,23.88c-.23-1.75-.64-1.92-1-1.66a8.24,8.24,0,0,1,.52,2.38,7.49,7.49,0,0,1-.32,2.83.53.53,0,0,1,.27.14A8.84,8.84,0,0,0,27.18,23.88Z"/><path class="cls-10" d="M23,28.1c-.7-.06-.82.35-.64,1.22a15.74,15.74,0,0,1,.09,2.93A2.87,2.87,0,0,1,23,32.2c0-1.19,1.14-3.9.2-4.07Z"/><path class="cls-12" d="M14.25,38a6.55,6.55,0,0,0-.73.71,7.64,7.64,0,0,0-.5.63c.07.69,1.42,2.58,2.58,3.75s3,2.5,3.75,2.58a7.6,7.6,0,0,0,.63-.5,6.55,6.55,0,0,0,.71-.73c.14-1-1.64-3.22-2.43-4S15.27,37.83,14.25,38Z"/><path class="cls-9" d="M15.18,37.32a4.84,4.84,0,0,0-.94.64c1-.14,3.22,1.64,4,2.44s2.57,3,2.43,4a4.93,4.93,0,0,0,.64-.93h0a3.61,3.61,0,0,0,.23-.53c-.05-1.4-1.91-3.34-2.21-3.64s-2.24-2.16-3.64-2.21A3.61,3.61,0,0,0,15.18,37.32Z"/><path class="cls-9" d="M13,39.3a9.88,9.88,0,0,0-.88,1.48c.12,1,1.48,2.67,2.28,3.46s2.43,2.16,3.46,2.27a10.11,10.11,0,0,0,1.47-.88c-.7-.08-2.59-1.42-3.75-2.58S13.09,40,13,39.3Z"/><path class="cls-12" d="M15.89,37l-.17.06c1.4.05,3.34,1.9,3.64,2.21s2.16,2.24,2.21,3.64l.06-.17h0a3.39,3.39,0,0,0-.12-2.38,3.43,3.43,0,0,0-.23-.47,2.58,2.58,0,0,1-2.53-2.53A3.66,3.66,0,0,0,15.89,37Z"/><path class="cls-12" d="M12.14,40.78c-.1.21-.2.42-.29.64s-.26.64-.37.94h0a7.66,7.66,0,0,0,1.93,2.89,7.68,7.68,0,0,0,2.89,1.93h0c.31-.11.62-.23.94-.37l.64-.29c-1-.11-2.67-1.48-3.46-2.27S12.26,41.81,12.14,40.78Z"/><path class="cls-13" d="M20.73,33.12A5.5,5.5,0,0,0,20,34v0l.62.06c.27,0,.5.07.69.1a5.19,5.19,0,0,1,.67.16.6.6,0,0,0,.17-.12A13.74,13.74,0,0,0,20.73,33.12Z"/><path class="cls-13" d="M21.31,32.68a4.35,4.35,0,0,0-.59.44,13.74,13.74,0,0,1,1.39,1.07.91.91,0,0,0,.16-.21L22,33.66C21.8,33.32,21.56,33,21.31,32.68Z"/><path class="cls-13" d="M21.74,32.46a3.16,3.16,0,0,0-.43.22c.24.31.49.64.73,1h0S21.94,33.21,21.74,32.46Z"/><path class="cls-9" d="M26.69,27.56a.53.53,0,0,0-.27-.14,7.75,7.75,0,0,1,.33,2.68,4.79,4.79,0,0,1,.68,0A3.74,3.74,0,0,0,26.69,27.56Z"/><path class="cls-13" d="M22.29,33.42c-.06-.24-.16-.6-.28-1.06l-.27.1c.2.75.3,1.2.3,1.2h0l.23.32a1,1,0,0,0,.1-.23Z"/><path class="cls-12" d="M23.78,32.31A3.24,3.24,0,0,0,23,32.2a2.87,2.87,0,0,0-.61.05,2.84,2.84,0,0,0-.4.1h0c.13.46.22.82.28,1.06a2.33,2.33,0,0,1,3,3l1.06.28h0a2.84,2.84,0,0,0,.1-.4,2.71,2.71,0,0,0,.05-.61,3.14,3.14,0,0,0-.11-.76A3.47,3.47,0,0,0,26,34h0a3.7,3.7,0,0,0-.59-.8,3.81,3.81,0,0,0-1.64-.93Z"/><path class="cls-14" d="M20.57,34,20,34a5.1,5.1,0,0,0-1.21,3.39,2.58,2.58,0,0,0,2.53,2.53,5.08,5.08,0,0,0,3.39-1.2q0-.34-.06-.62c-1.23,1.23-3.49,1.43-4.48.44S19.34,35.28,20.57,34Z"/><path class="cls-9" d="M11.48,42.36A15.52,15.52,0,0,0,11,43.89h0a4.57,4.57,0,0,0,1.46,2.3,4.47,4.47,0,0,0,2.3,1.46,14.75,14.75,0,0,0,1.53-.47,7.68,7.68,0,0,1-2.89-1.93A7.66,7.66,0,0,1,11.48,42.36Z"/><path class="cls-12" d="M21.27,34.15c-.19,0-.42-.07-.69-.1-1.23,1.23-1.43,3.49-.44,4.48s3.25.79,4.48-.44c0-.27-.07-.5-.1-.69a2.3,2.3,0,0,1-3.24-3.24Z"/><path class="cls-8" d="M21.27,34.15a2.3,2.3,0,0,0,3.24,3.24,5,5,0,0,0-.16-.68.6.6,0,0,1,.12-.17.91.91,0,0,1,.21-.16,1,1,0,0,1,.23-.1l.34.08a2.33,2.33,0,0,0-3-3l.08.33a1,1,0,0,1-.1.23.91.91,0,0,1-.16.21.6.6,0,0,1-.17.12A5.19,5.19,0,0,0,21.27,34.15Z"/><path class="cls-12" d="M12.47,46.19A4.57,4.57,0,0,1,11,43.89a13.32,13.32,0,0,0-.3,1.52h0a4.56,4.56,0,0,0,2.53,2.53,12.44,12.44,0,0,0,1.52-.3A4.47,4.47,0,0,1,12.47,46.19Z"/><path class="cls-9" d="M26,30.14s-2-.43-2.21,2.17a3.62,3.62,0,0,1,.84.34C26,32,26.51,30.78,26,30.14Z"/><path class="cls-9" d="M10.71,45.41a3.76,3.76,0,0,0,.16,2.37,3.78,3.78,0,0,0,2.37.16,4.56,4.56,0,0,1-2.53-2.53Z"/><path class="cls-15" d="M26.75,30.1a6.94,6.94,0,0,0-.76,0c.52.64,0,1.85-1.37,2.51a3.61,3.61,0,0,1,.8.59A3.7,3.7,0,0,1,26,34c.66-1.4,1.87-1.89,2.51-1.37a6.5,6.5,0,0,0,0-.76,5.26,5.26,0,0,0,0-.68,1,1,0,0,0-1.09-1.09,4.79,4.79,0,0,0-.68,0Z"/><path class="cls-9" d="M28.52,32.67c-.64-.52-1.85,0-2.51,1.37h0a3.47,3.47,0,0,1,.34.84C29,34.66,28.52,32.67,28.52,32.67Z"/><path class="cls-9" d="M31.1,32a3.75,3.75,0,0,0-2.58-.73,5.26,5.26,0,0,1,0,.68,7.69,7.69,0,0,1,2.68.33A.53.53,0,0,0,31.1,32Z"/><path class="cls-13" d="M24.68,36.39a.91.91,0,0,0-.21.16h0a14.23,14.23,0,0,1,1.07,1.38,4.26,4.26,0,0,0,.44-.58c-.31-.24-.63-.49-1-.73Z"/><path class="cls-13" d="M24.47,36.55h0a.6.6,0,0,0-.12.17,5,5,0,0,1,.16.68c0,.19.07.42.1.69s0,.39.06.62h0a5.55,5.55,0,0,0,.85-.76A14.23,14.23,0,0,0,24.47,36.55Z"/><path class="cls-13" d="M25.24,36.37l-.34-.08a1,1,0,0,0-.23.1l.33.23h0l1.19.3a1.73,1.73,0,0,0,.1-.27Z"/><path class="cls-13" d="M25,36.62h0c.34.24.66.48,1,.73a3.08,3.08,0,0,0,.22-.43Z"/><path class="cls-10" d="M26.46,35.64a2.71,2.71,0,0,1-.05.61,15.86,15.86,0,0,1,2.94.09c.87.18,1.28.06,1.22-.64a2.2,2.2,0,0,0,0-.26C30.36,34.51,27.65,35.64,26.46,35.64Z"/><path class="cls-11" d="M31.1,32a.53.53,0,0,1,.14.27,8.24,8.24,0,0,1,5.1.15l.11,0c.26-.32.09-.73-1.66-1A8.85,8.85,0,0,0,31.1,32Z"/><g class="cls-16"><ellipse class="cls-17" cx="17.78" cy="43.23" rx="8.87" ry="6.28" transform="translate(-25.93 26.65) rotate(-46.87)"/><ellipse class="cls-18" cx="24.27" cy="36.27" rx="4.34" ry="3.07" transform="translate(-18.79 29.18) rotate(-46.87)"/></g><g class="cls-19"><ellipse class="cls-20" cx="26.05" cy="34.72" rx="3.07" ry="4.34" transform="translate(-6.04 5.49) rotate(-10.79)"/><ellipse class="cls-21" cx="23.71" cy="32.28" rx="3.07" ry="4.34" transform="translate(-5.62 5.01) rotate(-10.79)"/></g><path class="cls-22" d="M22.76,48a1.08,1.08,0,0,1-.62-.83,2.09,2.09,0,0,1,0-.53c0-.17.08-.38.1-.57,0-.39.05-.78,0-1.16a9.5,9.5,0,0,0-.08-1.16h0c0,.77,0,1.54-.12,2.3,0,.19-.06.38-.08.57a1.83,1.83,0,0,0,0,.58,1.06,1.06,0,0,0,.26.52,1.23,1.23,0,0,0,.49.31Z"/><path class="cls-8" d="M22.66,43.66a13.2,13.2,0,0,0,.22,2.47c.07.4.13.81.22,1.2a1.79,1.79,0,0,1,.05.54c0,.06,0,.1-.1.13a1.17,1.17,0,0,1-.3,0v0a1,1,0,0,0,.31.07.26.26,0,0,0,.26-.17,1.62,1.62,0,0,0,0-.62c0-.41-.09-.82-.15-1.23-.14-.82-.32-1.62-.52-2.43Z"/><path class="cls-23" d="M22.74,48c0,.36,0,.71,0,1.07a8.29,8.29,0,0,1-.1,1,3.63,3.63,0,0,1-.25.94c-.17.29-.18.25-.57.16a.65.65,0,0,1-.31-.14s-.05-.11,0-.25a1.88,1.88,0,0,1,.2-.42,3.47,3.47,0,0,0,.24-.5,5.14,5.14,0,0,0,.47-2.12h0a4.15,4.15,0,0,1-.25,1,8.69,8.69,0,0,1-.41,1,10.26,10.26,0,0,0-.5.95.57.57,0,0,0,.06.54.89.89,0,0,0,.48.26l.27.05a.57.57,0,0,0,.28,0,.7.7,0,0,0,.38-.39,3.23,3.23,0,0,0,.24-1A9.08,9.08,0,0,0,22.78,48Z"/><path class="cls-22" d="M10.62,35.9a1.23,1.23,0,0,0,.31.49,1.06,1.06,0,0,0,.52.26,1.83,1.83,0,0,0,.58,0c.19,0,.38-.07.57-.08.76-.08,1.54-.1,2.3-.12v0a9.51,9.51,0,0,0-1.16-.08c-.39,0-.77,0-1.16,0-.19,0-.4.07-.57.1a2.1,2.1,0,0,1-.53,0,1.08,1.08,0,0,1-.83-.62Z"/><path class="cls-8" d="M15,36c-.8-.2-1.61-.38-2.43-.52-.41-.06-.82-.12-1.23-.15a1.62,1.62,0,0,0-.62,0,.26.26,0,0,0-.17.26,1,1,0,0,0,.07.31h0a1.17,1.17,0,0,1,0-.3c0-.09.07-.09.13-.1a1.79,1.79,0,0,1,.54.05c.39.09.8.15,1.2.22A13.22,13.22,0,0,0,15,36Z"/><path class="cls-23" d="M10.63,35.88a9.09,9.09,0,0,0-2.14-.09,3.24,3.24,0,0,0-1,.24.7.7,0,0,0-.39.38.57.57,0,0,0,0,.28A2.58,2.58,0,0,0,7.1,37a.89.89,0,0,0,.26.48.57.57,0,0,0,.54.06,10.26,10.26,0,0,0,.95-.5,8.7,8.7,0,0,1,1-.41,4.15,4.15,0,0,1,1-.25v0a5.15,5.15,0,0,0-2.12.47,3.48,3.48,0,0,0-.5.24,1.88,1.88,0,0,1-.42.2c-.14,0-.22,0-.25,0a.64.64,0,0,1-.14-.31c-.09-.39-.13-.39.16-.57a3.64,3.64,0,0,1,.94-.25,8.3,8.3,0,0,1,1-.1c.35,0,.71,0,1.07,0Z"/><path class="cls-22" d="M14.7,36.13a.44.44,0,0,0,.19.33,2.32,2.32,0,0,0,.31.23,5.76,5.76,0,0,0,.69.35v0a2.07,2.07,0,0,0-.3-.26l-.31-.21L15,36.37l-.14-.1a.26.26,0,0,1-.11-.13Z"/><path class="cls-8" d="M18.28,37.13a7.7,7.7,0,0,0-1.72-.88,6,6,0,0,0-.94-.24,3,3,0,0,0-.48,0,1.16,1.16,0,0,0-.24,0c-.08,0-.18,0-.2.15h0c0-.06.12,0,.19,0l.22,0,.44.13.88.3.88.31c.3.1.6.21.93.29Z"/><path class="cls-22" d="M9.68,39.59a2.61,2.61,0,0,0,.2.61,1,1,0,0,0,.42.48.42.42,0,0,0,.32,0,1.8,1.8,0,0,0,.28-.17l.53-.36,2.1-1.48h0L13,39l-.55.34c-.36.23-.71.47-1.07.71l-.52.37a1.84,1.84,0,0,1-.25.16.31.31,0,0,1-.22,0,.87.87,0,0,1-.39-.4,2.55,2.55,0,0,1-.26-.57Z"/><path class="cls-8" d="M15.18,37.31c-1,.26-1.94.54-2.9.87-.48.17-1,.34-1.41.55a7.18,7.18,0,0,0-.68.34,2.42,2.42,0,0,0-.32.21c-.09.08-.21.18-.19.33h0c0-.11.13-.17.23-.24a2.4,2.4,0,0,1,.33-.15c.22-.09.46-.18.7-.25l1.42-.47a20.54,20.54,0,0,0,2.8-1.15Z"/><path class="cls-23" d="M5.36,42.06a7.87,7.87,0,0,0,.3.76,2.11,2.11,0,0,0,.21.36.62.62,0,0,0,.35.26.39.39,0,0,0,.23,0l.19-.1L7,43.1l.67-.47c.43-.33.85-.68,1.25-1.06A7.27,7.27,0,0,0,10,40.34l-.05,0c-.49.31-.94.59-1.38.89-.23.14-.43.3-.66.45l-.64.46-.62.48-.3.24-.06,0,0,0h0a.29.29,0,0,1,.09,0c.06,0,0,0-.09,0A1.41,1.41,0,0,1,6,42.67c-.18-.19-.34-.42-.55-.63Z"/><path class="cls-24" d="M9.8,40a.5.5,0,0,1-.3.07A2.55,2.55,0,0,1,9.19,40a1.29,1.29,0,0,0-.65,0,9.23,9.23,0,0,0-1.21.49,11.15,11.15,0,0,0-1.14.62,4,4,0,0,0-.52.39,1.38,1.38,0,0,0-.22.25.36.36,0,0,0-.07.32h0c0-.21.2-.32.37-.43a4.3,4.3,0,0,1,.54-.3l1.15-.54L8,40.5l.29-.14.27-.12a1.27,1.27,0,0,1,.55-.1c.1,0,.21,0,.34,0A.49.49,0,0,0,9.82,40Z"/><path class="cls-22" d="M22.53,43.94a.26.26,0,0,1-.13-.11.89.89,0,0,1-.1-.14c-.06-.1-.13-.2-.19-.31s-.13-.21-.21-.31a2.07,2.07,0,0,0-.26-.3h0a5.76,5.76,0,0,0,.35.69,2.32,2.32,0,0,0,.23.31.44.44,0,0,0,.33.19Z"/><path class="cls-8" d="M21.5,40.4c.08.33.19.63.29.93l.31.88c.11.29.2.58.3.87s.09.29.13.44a1.48,1.48,0,0,1,0,.22c0,.07,0,.14,0,.19v0c.1,0,.13-.12.15-.2a1.16,1.16,0,0,0,0-.24,3,3,0,0,0,0-.48,6,6,0,0,0-.24-.94,7.69,7.69,0,0,0-.89-1.72Z"/><path class="cls-22" d="M19.07,49a2.56,2.56,0,0,1-.58-.26.87.87,0,0,1-.4-.39.31.31,0,0,1,0-.22,1.84,1.84,0,0,1,.16-.24l.37-.52c.23-.36.48-.71.71-1.07l.34-.55.31-.56h0L18.5,47.23l-.36.53A1.8,1.8,0,0,0,18,48a.42.42,0,0,0,0,.32,1,1,0,0,0,.48.42,2.62,2.62,0,0,0,.61.2Z"/><path class="cls-8" d="M21.32,43.47a20.52,20.52,0,0,0-1.15,2.8c-.16.47-.32.94-.47,1.42-.07.24-.16.47-.25.7a2.4,2.4,0,0,1-.15.33c-.06.1-.12.21-.24.23v0c.15,0,.25-.1.33-.19a2.42,2.42,0,0,0,.21-.32,7.16,7.16,0,0,0,.34-.68c.2-.46.38-.94.55-1.41.32-1,.61-1.92.87-2.9Z"/><path class="cls-24" d="M16.62,53.25c-.23-.15-.48-.27-.69-.43a1.88,1.88,0,0,1-.29-.23c-.08-.08-.14-.17-.13-.21a.13.13,0,0,1,0-.06l0-.07,0-.08.23-.32c.15-.22.31-.43.48-.64.32-.43.65-.85,1-1.28.16-.21.33-.42.51-.62s.35-.41.54-.61l0,0a7.25,7.25,0,0,0-1.22,1.08c-.37.4-.72.82-1,1.25q-.24.33-.47.67l-.22.35a.58.58,0,0,0-.12.4.6.6,0,0,0,.25.34,2.08,2.08,0,0,0,.35.21,7.79,7.79,0,0,0,.76.3Z"/><path class="cls-23" d="M18.64,48.83a.5.5,0,0,0-.24.34c0,.16,0,.28,0,.37a1.4,1.4,0,0,1-.18.45l-.13.23-.16.28-.28.56-.25.57c-.07.2-.16.38-.22.58s-.14.39-.21.57a2.19,2.19,0,0,1-.12.27c0,.08-.08.16-.19.19l0,.06a.38.38,0,0,0,.34-.07,1.4,1.4,0,0,0,.25-.22,4.09,4.09,0,0,0,.39-.52,11.18,11.18,0,0,0,.63-1.14,9.16,9.16,0,0,0,.48-1.22,1.31,1.31,0,0,0,0-.66,2.66,2.66,0,0,1-.08-.31.48.48,0,0,1,.07-.29Z"/><path class="cls-25" d="M21.25,39.93a5.34,5.34,0,0,1,.24.93,3.1,3.1,0,0,1,0,.92,3.78,3.78,0,0,1-.65,1.63,6.28,6.28,0,0,1-1.22,1.31,9.16,9.16,0,0,1-1.52,1,14,14,0,0,1-1.7.8c-.58.25-1.18.46-1.78.66a16.15,16.15,0,0,1-1.84.49,7,7,0,0,1-.94.15,3.86,3.86,0,0,1-.47,0,1,1,0,0,1-.45-.09l0,0a1,1,0,0,0,.47.19,3.74,3.74,0,0,0,.49.06,7.17,7.17,0,0,0,1,0,12.16,12.16,0,0,0,1.94-.33,17.08,17.08,0,0,0,1.88-.59,13.49,13.49,0,0,0,1.8-.81,7.53,7.53,0,0,0,2.88-2.64,3.87,3.87,0,0,0,.55-1.88,3.67,3.67,0,0,0-.52-1.89Z"/><path class="cls-26" d="M18.77,37.34a3.7,3.7,0,0,0-1.9-.53,3.89,3.89,0,0,0-1.9.54,7.55,7.55,0,0,0-2.66,2.88,13.52,13.52,0,0,0-.81,1.8,17.08,17.08,0,0,0-.58,1.88,12.16,12.16,0,0,0-.33,1.94,7.13,7.13,0,0,0,0,1,3.76,3.76,0,0,0,.06.49,1,1,0,0,0,.19.48l.07-.07a1,1,0,0,1,0-.45,4,4,0,0,1,.05-.47,8.76,8.76,0,0,1,.2-.93c.15-.61.35-1.21.56-1.8s.44-1.17.7-1.74a14.18,14.18,0,0,1,.8-1.65,9.16,9.16,0,0,1,1-1.48A6.49,6.49,0,0,1,15.37,38a3.78,3.78,0,0,1,1.51-.7,4.06,4.06,0,0,1,1.84.09Z"/><path class="cls-27" d="M15.71,37.11a2.8,2.8,0,0,1,1,.29,6.65,6.65,0,0,1,.93.54,12.14,12.14,0,0,1,3,3,6.61,6.61,0,0,1,.54.93,2.79,2.79,0,0,1,.29,1h0a2.6,2.6,0,0,0-.17-1.1,6.67,6.67,0,0,0-.49-1,10.88,10.88,0,0,0-1.36-1.75,10.86,10.86,0,0,0-1.75-1.36,6.71,6.71,0,0,0-1-.49,2.6,2.6,0,0,0-1.1-.16Z"/><path class="cls-8" d="M14.25,38a2.22,2.22,0,0,1,1.13.3,8.4,8.4,0,0,1,1,.62,14.49,14.49,0,0,1,1.84,1.52,14.48,14.48,0,0,1,1.52,1.84,8.35,8.35,0,0,1,.62,1,2.22,2.22,0,0,1,.3,1.13h0a1.33,1.33,0,0,0,0-.62,4,4,0,0,0-.18-.59A8.31,8.31,0,0,0,20,42.12a9.11,9.11,0,0,0-.7-1c-.25-.32-.51-.63-.8-.93s-.61-.55-.93-.8a9.17,9.17,0,0,0-1-.7,8.41,8.41,0,0,0-1.09-.56,3.94,3.94,0,0,0-.59-.18,1.32,1.32,0,0,0-.62,0Z"/><path class="cls-27" d="M14.25,38a2.74,2.74,0,0,1,1,.54c.31.23.6.48.89.73s.59.5.86.77.58.52.83.78.52.54.78.83.51.58.77.86.5.59.73.89a2.75,2.75,0,0,1,.54,1h.07a2.27,2.27,0,0,0-.3-1.16,8.48,8.48,0,0,0-.61-1,14.55,14.55,0,0,0-1.51-1.87,14.52,14.52,0,0,0-1.87-1.51,8.44,8.44,0,0,0-1-.61,2.27,2.27,0,0,0-1.16-.3Z"/><path class="cls-28" d="M13,39.31a3.29,3.29,0,0,0,.45,1.06c.2.33.41.65.64,1a15.64,15.64,0,0,0,1.48,1.77,15.73,15.73,0,0,0,1.77,1.48c.31.22.63.44,1,.64a3.29,3.29,0,0,0,1.06.45V45.6a5,5,0,0,1-.89-.69c-.28-.25-.56-.51-.83-.75s-.55-.5-.82-.76-.54-.5-.79-.76-.51-.52-.76-.79-.5-.55-.76-.82-.51-.55-.75-.83a5,5,0,0,1-.69-.89Z"/><path class="cls-8" d="M12.13,40.78a3,3,0,0,0,.35,1,8.11,8.11,0,0,0,.56.89,12.51,12.51,0,0,0,3,3,8.11,8.11,0,0,0,.89.56,3,3,0,0,0,1,.35v0A3.31,3.31,0,0,1,17,46a8.38,8.38,0,0,1-.82-.62,21.05,21.05,0,0,1-2.9-2.9,8.25,8.25,0,0,1-.62-.82,3.3,3.3,0,0,1-.47-.91Z"/><path class="cls-28" d="M11.46,42.36A4.29,4.29,0,0,0,12,44.08a6.78,6.78,0,0,0,2.55,2.54,4.32,4.32,0,0,0,1.72.57v0a6.53,6.53,0,0,1-1.54-.81,10.39,10.39,0,0,1-2.46-2.46,6.53,6.53,0,0,1-.81-1.54Z"/><path class="cls-8" d="M11,43.89a3.51,3.51,0,0,0,.57,1.26,7.46,7.46,0,0,0,1.95,1.95,3.51,3.51,0,0,0,1.26.57v0a3.32,3.32,0,0,1-.59-.35,5,5,0,0,1-.53-.4c-.34-.29-.67-.58-1-.9s-.62-.64-.9-1c-.14-.17-.28-.35-.4-.53a3.3,3.3,0,0,1-.35-.59Z"/><path class="cls-27" d="M12.12,40.78a2.6,2.6,0,0,0,.18,1.09,5.92,5.92,0,0,0,.48,1,8.81,8.81,0,0,0,3,3,5.93,5.93,0,0,0,1,.48,2.6,2.6,0,0,0,1.09.18v0a2.91,2.91,0,0,1-1-.36,8,8,0,0,1-.88-.57,14,14,0,0,1-2.95-2.95,8.08,8.08,0,0,1-.57-.88,2.89,2.89,0,0,1-.36-1Z"/><path class="cls-27" d="M11,43.89a2.41,2.41,0,0,0,.31,1.44,4.84,4.84,0,0,0,2,2,2.42,2.42,0,0,0,1.44.31v0A3.48,3.48,0,0,1,13.54,47a8.78,8.78,0,0,1-1.93-1.93A3.47,3.47,0,0,1,11,43.88Z"/><path class="cls-28" d="M10.69,45.42a1.9,1.9,0,0,0,.19,1,2.79,2.79,0,0,0,1.38,1.38,1.92,1.92,0,0,0,1,.19v0a4.83,4.83,0,0,1-2.52-2.52Z"/><path class="cls-29" d="M18.22,37.07a3.85,3.85,0,0,0,.07,1,2.86,2.86,0,0,0,2.31,2.3,3.82,3.82,0,0,0,1,.07l-.29-.58a2.56,2.56,0,0,1-2.48-2.51Z"/><path class="cls-8" d="M20,34a6,6,0,0,0-1.19,2.55,3.1,3.1,0,0,0,.72,2.65,3.1,3.1,0,0,0,2.65.72A6,6,0,0,0,24.7,38.7h0a7.55,7.55,0,0,1-1.23.68,4.87,4.87,0,0,1-1.33.39,3.52,3.52,0,0,1-1.35-.07,2.38,2.38,0,0,1-1.8-1.8,3.5,3.5,0,0,1-.07-1.35,4.84,4.84,0,0,1,.39-1.33A7.54,7.54,0,0,1,20,34Z"/><path class="cls-30" d="M26,30.17a7.47,7.47,0,0,0,1.11.41c.17.06.33.11.46.16a.75.75,0,0,1,.23.12.72.72,0,0,1,.12.23c.06.13.1.29.16.46a7.57,7.57,0,0,0,.41,1.11h.07a5.87,5.87,0,0,0,0-1.16,3.31,3.31,0,0,0-.08-.58.91.91,0,0,0-.81-.8,3.33,3.33,0,0,0-.58-.08,5.89,5.89,0,0,0-1.16,0Z"/><path class="cls-31" d="M28.51,32.68a1.88,1.88,0,0,1-.07.88,1.6,1.6,0,0,1-.49.72,2.84,2.84,0,0,1-1.65.59v0a2,2,0,0,0,1,0,1.92,1.92,0,0,0,.91-.42,1.58,1.58,0,0,0,.52-.89,1.38,1.38,0,0,0-.15-1Z"/><path class="cls-32" d="M28.53,32.66a1,1,0,0,0-.78-.2,1.77,1.77,0,0,0-.76.31A3.21,3.21,0,0,0,26,34h0c.22-.19.41-.38.59-.55a5.46,5.46,0,0,1,.57-.46,2.38,2.38,0,0,1,.61-.32,1.2,1.2,0,0,1,.72,0Z"/><path class="cls-31" d="M26,30.13A1.39,1.39,0,0,0,25,30a1.58,1.58,0,0,0-.89.52,1.92,1.92,0,0,0-.42.91,2,2,0,0,0,0,1h0a2.84,2.84,0,0,1,.59-1.65,1.6,1.6,0,0,1,.72-.49,1.88,1.88,0,0,1,.88-.07Z"/><path class="cls-32" d="M26,30.15a1.2,1.2,0,0,1,0,.72,2.38,2.38,0,0,1-.32.6,5.45,5.45,0,0,1-.46.57c-.17.19-.36.37-.55.59v0a3.21,3.21,0,0,0,1.27-1,1.77,1.77,0,0,0,.31-.76,1,1,0,0,0-.2-.78Z"/><path class="cls-33" d="M28.19,32.65c.3,0,.29.91.06,1S27.89,32.66,28.19,32.65Z"/><path class="cls-33" d="M26,30.5c.2,0,0,.65-.12.66S25.75,30.46,26,30.5Z"/><path class="cls-28" d="M22.29,33.44a1.77,1.77,0,0,1,1.27-.1,2.68,2.68,0,0,1,1.76,1.76,1.77,1.77,0,0,1-.1,1.27l0,0a1.37,1.37,0,0,0,.31-.63,2.15,2.15,0,0,0,0-.72,2.37,2.37,0,0,0-.68-1.27,2.41,2.41,0,0,0-1.27-.68,1.61,1.61,0,0,0-1.35.32Z"/><path class="cls-34" d="M22.3,33.45a2.61,2.61,0,0,1,1.15.32,3.15,3.15,0,0,1,.43.29,2.72,2.72,0,0,1,.39.34l.1.1.08.09.16.2a3.19,3.19,0,0,1,.29.43,2.59,2.59,0,0,1,.32,1.14l.06,0a1.83,1.83,0,0,0,.13-1.31,2.58,2.58,0,0,0-1.82-1.82,1.83,1.83,0,0,0-1.31.12Z"/><path class="cls-28" d="M21.24,34.13a1.43,1.43,0,0,0-.71.65,2.26,2.26,0,0,0-.27,1,2.59,2.59,0,0,0,.15,1,2.66,2.66,0,0,0,.58.92l.08.07.11.09.22.16a2.35,2.35,0,0,0,.48.24,2.59,2.59,0,0,0,1,.15,2.27,2.27,0,0,0,1-.27,1.43,1.43,0,0,0,.66-.71l0,0a1.92,1.92,0,0,1-1.54.51,2.28,2.28,0,0,1-2.16-2.16,1.92,1.92,0,0,1,.51-1.54Z"/><path class="cls-8" d="M30.52,35.45a1.7,1.7,0,0,1-.12.57c-.08.14-.17.16-.33.16a2.65,2.65,0,0,1-.53-.08A5.05,5.05,0,0,0,28.9,36a6.67,6.67,0,0,0-1.26,0,5.52,5.52,0,0,0-1.23.25v0a18.24,18.24,0,0,1,2.46,0,7,7,0,0,0,1.23.13.63.63,0,0,0,.3-.11.47.47,0,0,0,.17-.27,1.48,1.48,0,0,0,0-.62Z"/><path class="cls-22" d="M26.46,35.66a3.81,3.81,0,0,0,1.08,0c.36-.05.7-.14,1.05-.2s.69-.15,1-.21a1.85,1.85,0,0,1,.51,0,.41.41,0,0,1,.38.26h0a.45.45,0,0,0-.38-.34,1.88,1.88,0,0,0-.54,0,8.2,8.2,0,0,0-1.06.17l-1,.24a5.64,5.64,0,0,1-1.06.16Z"/><path class="cls-8" d="M30.54,35.46a8.36,8.36,0,0,0,1-.3,3.17,3.17,0,0,0,.94-.58,4.8,4.8,0,0,0,.35-.38.77.77,0,0,1,.34-.18.73.73,0,0,1,.37,0c.12,0,.16.09.15.1s0,0,0,0v0h0a.85.85,0,0,1-.1.17,2.45,2.45,0,0,1-.32.34,5.36,5.36,0,0,1-.8.57,3.27,3.27,0,0,1-.91.38,2.17,2.17,0,0,1-1,0v0a2.61,2.61,0,0,0,2-.22,4.25,4.25,0,0,0,.88-.57,2.79,2.79,0,0,0,.37-.37A.63.63,0,0,0,34,34a.49.49,0,0,0-.4-.35,1,1,0,0,0-.53,0,1.06,1.06,0,0,0-.45.27c-.12.13-.21.28-.33.4a5.16,5.16,0,0,1-1.78,1Z"/><path class="cls-29" d="M26.55,36.25a2.51,2.51,0,0,0,.16-.61l-.28,0a3,3,0,0,1,0,.6Z"/><path class="cls-29" d="M26.71,35q0-.13,0-.25A3.4,3.4,0,0,0,23.93,32l-.24,0,.09.4h0a3.6,3.6,0,0,1,2.48,2.48v0Z"/><path class="cls-29" d="M22.4,32.28a3,3,0,0,1,.62,0V32a2.49,2.49,0,0,0-.61.16Z"/><path class="cls-27" d="M22,32.37a3.63,3.63,0,0,1,1.75.18,4.07,4.07,0,0,1,1.44.9,4.14,4.14,0,0,1,.91,1.44,3.1,3.1,0,0,1,.19.85,3.49,3.49,0,0,1,0,.91h0a3.09,3.09,0,0,0,0-1.83,3.52,3.52,0,0,0-2.52-2.52,3.1,3.1,0,0,0-1.83,0Z"/><path class="cls-22" d="M23.22,28.12a1.47,1.47,0,0,0-.62,0,.46.46,0,0,0-.26.17.62.62,0,0,0-.11.29,6.92,6.92,0,0,0,.13,1.22,18.24,18.24,0,0,1,0,2.46h0A9.1,9.1,0,0,0,22.55,31a10.28,10.28,0,0,0,0-1.24,8.78,8.78,0,0,1-.17-1.19.39.39,0,0,1,.26-.39,1.55,1.55,0,0,1,.59-.05Z"/><path class="cls-8" d="M23,32.2a5.64,5.64,0,0,1,.16-1.06l.24-1A8.25,8.25,0,0,0,23.6,29a1.89,1.89,0,0,0,0-.54.46.46,0,0,0-.35-.39v0a.4.4,0,0,1,.19.39,2.63,2.63,0,0,1-.06.48c-.07.33-.15.67-.23,1a9.56,9.56,0,0,0-.18,1.06A2.88,2.88,0,0,0,23,32.2Z"/><path class="cls-8" d="M23.23,28.14a5.15,5.15,0,0,1,1-1.78c.12-.12.27-.21.4-.33a1.06,1.06,0,0,0,.27-.45A1,1,0,0,0,25,25a.49.49,0,0,0-.35-.4.63.63,0,0,0-.5.19,2.79,2.79,0,0,0-.37.37,4.25,4.25,0,0,0-.57.88,2.61,2.61,0,0,0-.22,2h0a2.17,2.17,0,0,1,0-1,3.26,3.26,0,0,1,.38-.91,5.36,5.36,0,0,1,.57-.8,2.45,2.45,0,0,1,.34-.32.85.85,0,0,1,.17-.1h.07s.07,0,.1.15a.73.73,0,0,1,0,.37.77.77,0,0,1-.18.34,4.8,4.8,0,0,0-.38.35,3.17,3.17,0,0,0-.58.94,8.35,8.35,0,0,0-.3,1Z"/><path class="cls-8" d="M20.56,34a3.23,3.23,0,0,0-.82,1,4.22,4.22,0,0,0-.43,1.21,3.33,3.33,0,0,0,0,1.31,2.45,2.45,0,0,0,.62,1.24,2.48,2.48,0,0,0,1.22.6,3.33,3.33,0,0,0,1.31,0,4.21,4.21,0,0,0,1.21-.43,3.23,3.23,0,0,0,1-.82l0,0a3.82,3.82,0,0,1-2.17,1,3.51,3.51,0,0,1-1.21,0,2,2,0,0,1-1.61-1.61,3.5,3.5,0,0,1,0-1.21,3.82,3.82,0,0,1,1-2.17Z"/><path class="cls-35" d="M39.88,44a1,1,0,0,1-.39.36,4.11,4.11,0,0,1-.48.25A7.27,7.27,0,0,1,38,45a9.15,9.15,0,0,1-2.15.35,7.42,7.42,0,0,1-2.16-.2,5.05,5.05,0,0,1-1.95-1h0a2.45,2.45,0,0,1-1.2.14A3.62,3.62,0,0,1,29.31,44a6.73,6.73,0,0,1-1.93-1.51l0,0h0a4,4,0,0,1-1.61-.7,2.29,2.29,0,0,1-.9-1.46c0-.29,0-.59-.05-.9s0-.61-.07-.91a8.94,8.94,0,0,0-.35-1.79h0a10.86,10.86,0,0,1,.27,1.79q0,.45,0,.9c0,.3,0,.6,0,.92a2.36,2.36,0,0,0,.94,1.57,3.93,3.93,0,0,0,1.69.73l0,0a6.46,6.46,0,0,0,2,1.49,3.84,3.84,0,0,0,1.21.33,2.51,2.51,0,0,0,1.24-.17h0a5.87,5.87,0,0,0,2,1,6.7,6.7,0,0,0,2.19.26A8.63,8.63,0,0,0,38,45.13a7.34,7.34,0,0,0,1-.41,4,4,0,0,0,.48-.28,1.06,1.06,0,0,0,.38-.4Z"/><path class="cls-36" d="M24.91,36.3c1.43.36,2.86.76,4.27,1.2s2.81.91,4.19,1.44a29,29,0,0,1,4,1.85,9,9,0,0,1,1.79,1.3,3,3,0,0,1,.65.88A1.4,1.4,0,0,1,39.88,44h0a1.43,1.43,0,0,0,0-1.1,3.11,3.11,0,0,0-.64-.93,9.09,9.09,0,0,0-1.78-1.35,27.75,27.75,0,0,0-4-1.89q-2.08-.78-4.21-1.41-1.07-.31-2.14-.59c-.72-.18-1.44-.35-2.16-.5Z"/><path class="cls-37" d="M31.7,44.24a10.56,10.56,0,0,0-.57-1.2q-.34-.58-.72-1.12a20.35,20.35,0,0,0-1.67-2.08A23,23,0,0,0,26.82,38q-.5-.44-1-.84t-1.1-.75q.54.4,1,.82t1,.84a22.92,22.92,0,0,1,1.91,1.85A20.28,20.28,0,0,1,30.34,42c.25.36.49.73.72,1.12A10.72,10.72,0,0,1,31.7,44.24Z"/><path class="cls-37" d="M27.33,42.55a5.26,5.26,0,0,0-.07-.84c-.06-.28-.13-.55-.21-.82a10.52,10.52,0,0,0-.64-1.57,12.47,12.47,0,0,0-.86-1.46q-.24-.35-.5-.68t-.57-.63q.26.33.5.68t.5.68a12.39,12.39,0,0,1,.86,1.45A10.43,10.43,0,0,1,27,40.91a8.33,8.33,0,0,1,.21.81A5.37,5.37,0,0,1,27.33,42.55Z"/><path class="cls-37" d="M26.16,38.95c.16.17.3.35.44.53s.3.35.43.54a10.28,10.28,0,0,1,.76,1.15,8.23,8.23,0,0,1,.58,1.25,6.69,6.69,0,0,1,.2.66,6,6,0,0,1,.17.67,6.12,6.12,0,0,0-.09-.69,6.78,6.78,0,0,0-.2-.67,8.33,8.33,0,0,0-.58-1.26A10.35,10.35,0,0,0,27.1,40q-.21-.28-.44-.54C26.5,39.26,26.34,39.1,26.16,38.95Z"/><path class="cls-37" d="M29.45,40.73c0,.14-.06.28-.08.42l0,.43c0,.28,0,.57,0,.85s0,.57,0,.86,0,.29,0,.43a2.75,2.75,0,0,0,.12.41,2.68,2.68,0,0,1,0-.42c0-.14,0-.28,0-.42s0-.57,0-.85,0-.57,0-.85l0-.42Z"/><path class="cls-37" d="M25.9,38.5c0,.14-.09.28-.13.42s0,.29-.07.43-.07.58-.08.87a7.08,7.08,0,0,0,0,.88c0,.15,0,.29.05.44a3.91,3.91,0,0,0,.14.42,3.82,3.82,0,0,1-.06-.43c0-.14,0-.29-.05-.43a7,7,0,0,1,0-.87q0-.43.08-.86,0-.22.07-.43Z"/><path class="cls-37" d="M29.82,38a.93.93,0,0,1,0,.62,1,1,0,0,1-.4.45,1.71,1.71,0,0,1-1.21.21h0l0,0a.75.75,0,0,1-.57.16,1.69,1.69,0,0,1-.6-.19,3.45,3.45,0,0,1-.54-.34,6.08,6.08,0,0,1-.51-.39,6.13,6.13,0,0,0,.46.45,3.53,3.53,0,0,0,.55.35,1.76,1.76,0,0,0,.63.19.82.82,0,0,0,.64-.18h0a1.63,1.63,0,0,0,.66,0,1.77,1.77,0,0,0,.62-.22,1,1,0,0,0,.44-.49A1,1,0,0,0,29.82,38Z"/><path class="cls-37" d="M29,39.24c.34.25.66.54,1,.8s.65.55,1,.84a8.83,8.83,0,0,1,1.6,2h0a2.75,2.75,0,0,1,.7,1,2,2,0,0,1,.12.61,1.46,1.46,0,0,1-.13.61,1.49,1.49,0,0,0,.19-.61,1.44,1.44,0,0,0-.09-.64,2.83,2.83,0,0,0-.73-1.06h0a8.91,8.91,0,0,0-1.61-2c-.31-.29-.63-.58-1-.84A9.5,9.5,0,0,0,29,39.24Z"/><path class="cls-37" d="M30.82,42.61l.23,0,.22,0a1.78,1.78,0,0,1,.45,0,2.23,2.23,0,0,1,.44.12l.21.09.22.07-.19-.14-.22-.09a2.31,2.31,0,0,0-.46-.12,1.88,1.88,0,0,0-.48,0l-.24,0A.88.88,0,0,0,30.82,42.61Z"/><path class="cls-37" d="M30.63,40.51a2.36,2.36,0,0,1,.53-.15,3.58,3.58,0,0,1,.54-.05,1.94,1.94,0,0,1,1,.3l0,0,0,0a1.1,1.1,0,0,1,.53-.34,1.28,1.28,0,0,1,.64,0,2.76,2.76,0,0,1,1.14.63l0,0,0-.06a.87.87,0,0,1,.24-.39.57.57,0,0,1,.45-.11.59.59,0,0,0-.48.07.71.71,0,0,0-.29.41l.07,0A2.84,2.84,0,0,0,34,40.15a1.36,1.36,0,0,0-.68,0,1.17,1.17,0,0,0-.57.37h.06a2,2,0,0,0-1.07-.31,1.84,1.84,0,0,0-.56.07A2.39,2.39,0,0,0,30.63,40.51Z"/><path class="cls-37" d="M32.15,42.14a2.67,2.67,0,0,0,.9.27,1.24,1.24,0,0,0,.48-.05.83.83,0,0,0,.4-.28h0a1.63,1.63,0,0,0,.88.12.91.91,0,0,0,.41-.18,1,1,0,0,0,.28-.36h-.07a2.63,2.63,0,0,0,.81.5,1.12,1.12,0,0,0,.48.07.73.73,0,0,0,.44-.21H37a3.49,3.49,0,0,0,1,.68,1.09,1.09,0,0,0,.58.11.68.68,0,0,0,.49-.3.66.66,0,0,1-.49.25,1.3,1.3,0,0,1-.54-.13,3.42,3.42,0,0,1-.93-.66l0,0,0,0a.65.65,0,0,1-.39.18,1,1,0,0,1-.44-.07,2.55,2.55,0,0,1-.78-.48l0,0,0,0a.84.84,0,0,1-.63.49,1.55,1.55,0,0,1-.83-.11h0l0,0a.75.75,0,0,1-.36.25,1.27,1.27,0,0,1-.45.05A2.64,2.64,0,0,1,32.15,42.14Z"/><path class="cls-37" d="M29.83,38.53a6,6,0,0,1,.84.35,7.88,7.88,0,0,1,.78.45,5.11,5.11,0,0,1,.7.57,3.85,3.85,0,0,1,.57.69h0a3.58,3.58,0,0,1,.7.63,1.84,1.84,0,0,1,.43.82v0h0a3.22,3.22,0,0,1,1.43,1.1l0-.06a.53.53,0,0,0-.23.3,1,1,0,0,0,0,.37l0,0a3.27,3.27,0,0,0-.68.68,1.56,1.56,0,0,0-.35.88,1.53,1.53,0,0,1,.4-.84,4.51,4.51,0,0,1,.68-.65h0v0a.89.89,0,0,1,0-.33.46.46,0,0,1,.19-.25l0,0,0,0A3.3,3.3,0,0,0,33.91,42l0,0a1.92,1.92,0,0,0-.44-.86,3.65,3.65,0,0,0-.72-.65h0a3.91,3.91,0,0,0-.58-.71,5.21,5.21,0,0,0-.71-.58,4.27,4.27,0,0,0-.8-.44A6.13,6.13,0,0,0,29.83,38.53Z"/><path class="cls-37" d="M35.11,40.83s0,.08,0,.12l0,.1.07.2.07.2,0,.1.08.09v-.12l0-.1-.07-.2-.07-.2,0-.1Z"/><path class="cls-37" d="M36.58,40.73a4.51,4.51,0,0,1,.32.61A1.63,1.63,0,0,1,37,42v0a3.48,3.48,0,0,1-.51.6,6.81,6.81,0,0,1-.6.52h0a.16.16,0,0,1-.1.05l-.15,0a1.51,1.51,0,0,1-.32,0,1.55,1.55,0,0,0,.31.09.53.53,0,0,0,.17,0,.23.23,0,0,0,.16-.11v0a6.92,6.92,0,0,0,.61-.52,3.54,3.54,0,0,0,.53-.62h0a1.7,1.7,0,0,0-.14-.7,1.38,1.38,0,0,0-.17-.31A2.3,2.3,0,0,0,36.58,40.73Z"/><path class="cls-37" d="M36.61,45.38a1.14,1.14,0,0,0-.09-.43,3.1,3.1,0,0,0-.2-.39,3.51,3.51,0,0,0-.55-.69v.05a1.31,1.31,0,0,0,.14-.35.6.6,0,0,0,0-.37.61.61,0,0,1,0,.18c0,.06,0,.11,0,.17a1.23,1.23,0,0,1-.13.33l0,0,0,0a3.44,3.44,0,0,1,.53.67,3,3,0,0,1,.2.38C36.49,45.12,36.57,45.24,36.61,45.38Z"/><path class="cls-37" d="M35.74,43.9a.7.7,0,0,1-.33,0,1.82,1.82,0,0,1-.3-.12h0a2.77,2.77,0,0,1-.66-.08,4.18,4.18,0,0,1-.64-.21,4.9,4.9,0,0,1-.6-.3c-.19-.12-.39-.22-.59-.34a2.69,2.69,0,0,0,.55.41,5,5,0,0,0,.61.31,4.25,4.25,0,0,0,.65.21,2.82,2.82,0,0,0,.69.08h0a.9.9,0,0,0,.33.11A.66.66,0,0,0,35.74,43.9Z"/><path class="cls-37" d="M38.55,42.81a1.41,1.41,0,0,0-.06.31,1.39,1.39,0,0,0,0,.31,1.21,1.21,0,0,0,.28.56v-.06a1.88,1.88,0,0,0-.54.48,1.75,1.75,0,0,0-.19.31,1.37,1.37,0,0,0-.07.36,1.72,1.72,0,0,1,.15-.32,1.52,1.52,0,0,1,.18-.3,1.81,1.81,0,0,1,.52-.46l0,0,0,0a1.12,1.12,0,0,1-.26-.52,2,2,0,0,1,0-.3A1.93,1.93,0,0,1,38.55,42.81Z"/><path class="cls-37" d="M39.74,43.52a.5.5,0,0,1-.14.23.61.61,0,0,1-.23.13,1.12,1.12,0,0,1-.54,0h0a2.9,2.9,0,0,1-.74.11,4.2,4.2,0,0,1-.75,0,4.88,4.88,0,0,1-.73-.17c-.24-.09-.48-.14-.72-.24a3.2,3.2,0,0,0,.69.32,4.9,4.9,0,0,0,.75.17,4.3,4.3,0,0,0,.77,0,3,3,0,0,0,.76-.11h0a1.24,1.24,0,0,0,.58,0A.54.54,0,0,0,39.74,43.52Z"/><path class="cls-37" d="M37.08,42c0,.08.06.16.08.25a2.45,2.45,0,0,1,.09.24,2.61,2.61,0,0,1,.1.5,2.58,2.58,0,0,1,0,.51c0,.08,0,.17,0,.25s0,.17,0,.26c0-.08.07-.16.1-.24s0-.17,0-.26a2.68,2.68,0,0,0-.11-1c0-.08-.06-.17-.09-.25A1.42,1.42,0,0,0,37.08,42Z"/><path class="cls-35" d="M14.62,18.77a1.06,1.06,0,0,0-.4.38,4,4,0,0,0-.28.48,7.34,7.34,0,0,0-.41,1,8.62,8.62,0,0,0-.39,2.18A6.69,6.69,0,0,0,13.39,25a5.86,5.86,0,0,0,1,2v0a2.51,2.51,0,0,0-.17,1.24,3.83,3.83,0,0,0,.33,1.21,6.46,6.46,0,0,0,1.5,2l0,0A3.93,3.93,0,0,0,16.75,33a2.36,2.36,0,0,0,1.57.94c.31,0,.61,0,.92,0l.9,0a10.88,10.88,0,0,1,1.79.27v0A9,9,0,0,0,20.16,34l-.91-.07c-.3,0-.61,0-.9-.05a2.29,2.29,0,0,1-1.46-.9,4,4,0,0,1-.7-1.61v0l0,0a6.73,6.73,0,0,1-1.51-1.93,3.61,3.61,0,0,1-.35-1.17,2.45,2.45,0,0,1,.14-1.2v0h0a5.05,5.05,0,0,1-1-1.95,7.41,7.41,0,0,1-.2-2.16,9.13,9.13,0,0,1,.35-2.15,7.27,7.27,0,0,1,.37-1,4.11,4.11,0,0,1,.25-.48,1,1,0,0,1,.36-.39Z"/><path class="cls-36" d="M22.38,33.75c-.16-.72-.33-1.44-.5-2.16s-.38-1.43-.59-2.14q-.62-2.13-1.41-4.21a27.72,27.72,0,0,0-1.89-4,9.08,9.08,0,0,0-1.35-1.78,3.11,3.11,0,0,0-.93-.64,1.44,1.44,0,0,0-1.1,0v0a1.4,1.4,0,0,1,1.07.06,3,3,0,0,1,.88.65,9,9,0,0,1,1.3,1.79,29,29,0,0,1,1.85,4c.53,1.38,1,2.78,1.44,4.19s.84,2.83,1.2,4.27Z"/><path class="cls-37" d="M14.41,27a10.72,10.72,0,0,1,1.16.64c.38.22.75.46,1.12.72A20.28,20.28,0,0,1,18.76,30a22.92,22.92,0,0,1,1.85,1.91q.44.5.84,1t.82,1q-.36-.56-.75-1.1t-.84-1a23,23,0,0,0-1.86-1.91,20.35,20.35,0,0,0-2.08-1.67q-.55-.38-1.12-.72A10.57,10.57,0,0,0,14.41,27Z"/><path class="cls-37" d="M16.11,31.34a5.37,5.37,0,0,1,.83.15,8.34,8.34,0,0,1,.81.21,10.44,10.44,0,0,1,1.56.63,12.4,12.4,0,0,1,1.45.86q.35.24.68.5t.68.5q-.3-.29-.63-.57t-.68-.5a12.48,12.48,0,0,0-1.46-.86,10.53,10.53,0,0,0-1.57-.64c-.27-.08-.54-.16-.82-.21A5.27,5.27,0,0,0,16.11,31.34Z"/><path class="cls-37" d="M19.71,32.5c-.15-.18-.31-.34-.48-.5l-.54-.44a10.36,10.36,0,0,0-1.16-.76,8.33,8.33,0,0,0-1.26-.58,6.79,6.79,0,0,0-.67-.2,6.13,6.13,0,0,0-.69-.09,6,6,0,0,1,.67.17,6.7,6.7,0,0,1,.66.2,8.24,8.24,0,0,1,1.25.58,10.28,10.28,0,0,1,1.15.76l.54.43C19.36,32.2,19.54,32.34,19.71,32.5Z"/><path class="cls-37" d="M17.93,29.22H17.5l-.42,0-.85,0c-.28,0-.57,0-.85,0l-.42,0a2.69,2.69,0,0,1-.42,0,2.75,2.75,0,0,0,.41.12l.43,0c.29,0,.57,0,.86,0l.85,0,.43,0Z"/><path class="cls-37" d="M20.16,32.76l-.44,0-.43.07q-.43.06-.87.08a7,7,0,0,1-.87,0l-.43-.05-.43-.06.42.14.44.05a7.09,7.09,0,0,0,.88,0q.44,0,.87-.08l.43-.07Z"/><path class="cls-37" d="M20.68,28.85a1,1,0,0,0-.65,0,1,1,0,0,0-.49.44,1.77,1.77,0,0,0-.22.61,1.63,1.63,0,0,0,0,.66v0a.82.82,0,0,0-.18.64,1.76,1.76,0,0,0,.19.63,3.53,3.53,0,0,0,.35.55,6.13,6.13,0,0,0,.46.46,6.08,6.08,0,0,1-.39-.51,3.44,3.44,0,0,1-.34-.54,1.68,1.68,0,0,1-.19-.6.75.75,0,0,1,.16-.57l0,0v0a1.71,1.71,0,0,1,.21-1.21,1,1,0,0,1,.45-.4A.93.93,0,0,1,20.68,28.85Z"/><path class="cls-37" d="M19.42,29.64a9.5,9.5,0,0,0-.73-1c-.27-.33-.55-.65-.84-1a8.91,8.91,0,0,0-2-1.61h0a2.83,2.83,0,0,0-1.06-.73,1.44,1.44,0,0,0-.64-.09,1.49,1.49,0,0,0-.61.19,1.46,1.46,0,0,1,.61-.13,2,2,0,0,1,.61.12,2.75,2.75,0,0,1,1,.7h0a8.83,8.83,0,0,1,2,1.6c.29.31.57.63.84,1S19.17,29.3,19.42,29.64Z"/><path class="cls-37" d="M16,27.85a.87.87,0,0,0,.12-.21,1.57,1.57,0,0,0,0-.24,1.88,1.88,0,0,0,0-.47,2.3,2.3,0,0,0-.12-.46L16,26.26l-.14-.19.07.22.09.21a2.22,2.22,0,0,1,.12.44,1.78,1.78,0,0,1,0,.45,1.46,1.46,0,0,1,0,.22A1.29,1.29,0,0,1,16,27.85Z"/><path class="cls-37" d="M18.15,28a2.38,2.38,0,0,0,.21-.51,1.84,1.84,0,0,0,.07-.56,2,2,0,0,0-.31-1.07V26a1.17,1.17,0,0,0,.37-.57,1.36,1.36,0,0,0,0-.68,2.84,2.84,0,0,0-.65-1.17l0,.07a.71.71,0,0,0,.41-.29.59.59,0,0,0,.07-.48.57.57,0,0,1-.11.45.87.87,0,0,1-.39.24l-.06,0,0,0a2.76,2.76,0,0,1,.63,1.14,1.28,1.28,0,0,1,0,.64,1.1,1.1,0,0,1-.34.53l0,0,0,0a1.94,1.94,0,0,1,.3,1,3.57,3.57,0,0,1-.05.54A2.36,2.36,0,0,1,18.15,28Z"/><path class="cls-37" d="M16.52,26.51a2.63,2.63,0,0,1-.19-.9,1.27,1.27,0,0,1,.05-.45.75.75,0,0,1,.25-.36l0,0v0a1.55,1.55,0,0,1-.11-.83A.84.84,0,0,1,17,23.3l0,0,0,0a2.55,2.55,0,0,1-.48-.78,1,1,0,0,1-.07-.44.65.65,0,0,1,.18-.39l0,0,0,0a3.42,3.42,0,0,1-.66-.93,1.29,1.29,0,0,1-.13-.54.66.66,0,0,1,.25-.49.68.68,0,0,0-.3.49,1.09,1.09,0,0,0,.11.58,3.49,3.49,0,0,0,.68,1v-.06a.73.73,0,0,0-.21.44,1.12,1.12,0,0,0,.07.48,2.63,2.63,0,0,0,.5.81v-.07a1,1,0,0,0-.36.27.91.91,0,0,0-.18.41,1.62,1.62,0,0,0,.12.88v0a.83.83,0,0,0-.28.4,1.23,1.23,0,0,0-.05.48A2.67,2.67,0,0,0,16.52,26.51Z"/><path class="cls-37" d="M20.13,28.83a6.12,6.12,0,0,0-.29-.86,4.26,4.26,0,0,0-.44-.8,5.21,5.21,0,0,0-.58-.71,3.91,3.91,0,0,0-.71-.58h0a3.64,3.64,0,0,0-.65-.72,1.92,1.92,0,0,0-.86-.44l0,0a3.3,3.3,0,0,0-1.13-1.47l0,0,0,0a.46.46,0,0,1-.25.19.89.89,0,0,1-.33,0h0v0a4.51,4.51,0,0,1-.65.68,1.53,1.53,0,0,1-.84.4,1.56,1.56,0,0,0,.88-.35,3.26,3.26,0,0,0,.68-.68l0,0a1,1,0,0,0,.37,0,.53.53,0,0,0,.3-.23l-.06,0a3.22,3.22,0,0,1,1.1,1.43v0h0a1.84,1.84,0,0,1,.82.43,3.58,3.58,0,0,1,.63.7h0a3.85,3.85,0,0,1,.69.57,5.11,5.11,0,0,1,.57.7,7.87,7.87,0,0,1,.45.78A6,6,0,0,1,20.13,28.83Z"/><path class="cls-37" d="M17.83,23.56l-.09-.07-.1,0-.2-.07-.2-.07-.1,0H17l.09.08.1,0,.2.07.2.07.1,0Z"/><path class="cls-37" d="M17.93,22.08a2.3,2.3,0,0,0-.27-.23,1.38,1.38,0,0,0-.31-.17,1.7,1.7,0,0,0-.7-.14h0a3.54,3.54,0,0,0-.62.53,6.92,6.92,0,0,0-.52.61h0a.23.23,0,0,0-.11.16.53.53,0,0,0,0,.17,1.54,1.54,0,0,0,.09.31,1.5,1.5,0,0,1,0-.32.69.69,0,0,1,0-.15.16.16,0,0,1,.05-.1h0a6.81,6.81,0,0,1,.52-.6,3.48,3.48,0,0,1,.6-.51h0a1.64,1.64,0,0,1,.66.13A4.52,4.52,0,0,1,17.93,22.08Z"/><path class="cls-37" d="M13.28,22.05c.14,0,.26.12.4.17a3,3,0,0,1,.38.2,3.44,3.44,0,0,1,.67.53l0,0,0,0a1.23,1.23,0,0,1,.33-.13l.17,0h.18a.6.6,0,0,0-.37,0,1.31,1.31,0,0,0-.35.14h.05a3.51,3.51,0,0,0-.69-.55,3.1,3.1,0,0,0-.39-.2A1.14,1.14,0,0,0,13.28,22.05Z"/><path class="cls-37" d="M14.76,22.92a.66.66,0,0,0,0,.34.9.9,0,0,0,.11.33v0a2.82,2.82,0,0,0,.08.69,4.25,4.25,0,0,0,.21.65,5,5,0,0,0,.31.61,2.69,2.69,0,0,0,.41.55c-.12-.19-.22-.4-.34-.59a4.89,4.89,0,0,1-.3-.6,4.17,4.17,0,0,1-.21-.64,2.76,2.76,0,0,1-.08-.66h0a1.82,1.82,0,0,1-.12-.3A.69.69,0,0,1,14.76,22.92Z"/><path class="cls-37" d="M15.85,20.12l-.3,0a2,2,0,0,1-.3,0,1.12,1.12,0,0,1-.52-.26l0,0,0,0a1.81,1.81,0,0,1-.46.52,1.52,1.52,0,0,1-.3.18,1.72,1.72,0,0,1-.32.15,1.37,1.37,0,0,0,.36-.07,1.75,1.75,0,0,0,.31-.19,1.88,1.88,0,0,0,.48-.54h-.06a1.21,1.21,0,0,0,.56.28,1.39,1.39,0,0,0,.31,0A1.43,1.43,0,0,0,15.85,20.12Z"/><path class="cls-37" d="M15.14,18.93a.54.54,0,0,0-.44.34,1.24,1.24,0,0,0,0,.58v0a3,3,0,0,0-.11.76,4.29,4.29,0,0,0,0,.77,4.89,4.89,0,0,0,.17.75,3.19,3.19,0,0,0,.32.69c-.09-.24-.15-.48-.24-.72a4.87,4.87,0,0,1-.17-.73,4.19,4.19,0,0,1,0-.75,2.9,2.9,0,0,1,.11-.74h0a1.12,1.12,0,0,1,0-.54.61.61,0,0,1,.13-.23A.5.5,0,0,1,15.14,18.93Z"/><path class="cls-37" d="M16.64,21.59a1.42,1.42,0,0,0-.21-.15l-.25-.09a2.69,2.69,0,0,0-1-.11l-.26,0-.24.1.26,0,.25,0a2.58,2.58,0,0,1,.51,0,2.61,2.61,0,0,1,.5.1l.24.09Z"/><g class="cls-38"><path class="cls-33" d="M18.35,49.43a.51.51,0,0,1,0,.43,3.53,3.53,0,0,1-.19.42c-.14.27-.3.54-.45.8a8.28,8.28,0,0,0-.44.81,3,3,0,0,0-.26.89h0a9,9,0,0,1,.4-.83c.14-.27.27-.55.41-.82s.28-.55.41-.83a3.58,3.58,0,0,0,.16-.44.53.53,0,0,0,0-.46Z"/></g><g class="cls-38"><path class="cls-33" d="M9.41,40.61a19,19,0,0,1-1.84,1.21,6.13,6.13,0,0,0-.87.68c-.14.11-.29.22-.42.13A1.19,1.19,0,0,1,6,42.2H6a1,1,0,0,0,.26.51.31.31,0,0,0,.31,0,1,1,0,0,0,.26-.14c.3-.23.56-.47.86-.69s.61-.41.91-.62a10.87,10.87,0,0,0,.86-.69Z"/></g><g class="cls-38"><path class="cls-33" d="M20.46,45.62l-.64,1.47c-.11.24-.23.48-.33.73l-.29.75h0a3.69,3.69,0,0,0,.43-.69,7.65,7.65,0,0,0,.3-.75q.29-.75.53-1.52Z"/></g><g class="cls-38"><path class="cls-33" d="M13.35,38.14q-.83.22-1.65.49a7.72,7.72,0,0,0-.81.29,3,3,0,0,0-.74.45h0c.26-.11.53-.21.8-.31l.79-.32,1.61-.6Z"/></g><g class="cls-38"><path class="cls-33" d="M22.76,44.75l.13,1.47c0,.25,0,.49.07.74s.08.49.14.73h0a4.35,4.35,0,0,0,0-.75c0-.25-.06-.49-.1-.73q-.11-.73-.25-1.46Z"/></g><g class="cls-38"><path class="cls-33" d="M22.67,49.33a6.7,6.7,0,0,1-.21,1.22,2.33,2.33,0,0,1-.24.54.39.39,0,0,1-.47.2v0a.4.4,0,0,0,.32.08.54.54,0,0,0,.29-.2,1.46,1.46,0,0,0,.23-.61,5.48,5.48,0,0,0,.09-1.25Z"/></g><g class="cls-38"><path class="cls-33" d="M13.69,35.83c-.5-.12-1-.22-1.51-.29a4.76,4.76,0,0,0-.77-.08,2.32,2.32,0,0,0-.39,0,.7.7,0,0,0-.19.07.18.18,0,0,0-.08.08.11.11,0,0,0,0,.11h0c0-.07,0-.1.07-.12a.64.64,0,0,1,.18,0h.37l.76,0c.51,0,1,.11,1.52.18Z"/></g><g class="cls-38"><path class="cls-33" d="M9.58,35.86A7.7,7.7,0,0,0,8.3,36a2.3,2.3,0,0,0-.63.18,1,1,0,0,0-.27.2.33.33,0,0,0-.09.33h0c0-.21.23-.3.41-.38a6.21,6.21,0,0,1,.59-.2,10.23,10.23,0,0,1,1.25-.24Z"/></g><g class="cls-38"><path class="cls-33" d="M33.68,34.11a.31.31,0,0,1-.09.16l-.13.14c-.09.09-.19.17-.29.25s-.4.33-.62.47a2.65,2.65,0,0,1-1.46.48v0a2.58,2.58,0,0,0,1.53-.38,3.23,3.23,0,0,0,.66-.46,2.66,2.66,0,0,0,.27-.3.59.59,0,0,0,.16-.37Z"/></g><g class="cls-38"><path class="cls-33" d="M24.55,25a1.36,1.36,0,0,1,0,.36,1.08,1.08,0,0,1-.07.33,2.17,2.17,0,0,1-.44.59h0a1.86,1.86,0,0,0,.55-.54.66.66,0,0,0,.12-.39.55.55,0,0,0-.17-.37Z"/></g><rect class="cls-33" x="28.53" y="11.77" width="14.62" height="14.62"/><path d="M43.09,11.82V26.34H28.58V11.82H43.09m.11-.11H28.47V26.45H43.2V11.72Z"/><polygon class="cls-33" points="28.6 11.67 32.52 7.6 47.1 7.6 43.17 11.67 28.6 11.67"/><path d="M47,7.66l-3.82,4H28.72l3.82-4H47m.25-.11H32.5l-4,4.17H43.2l4-4.17Z"/><polygon class="cls-33" points="43.25 11.74 47.17 7.68 47.17 22.26 43.25 26.31 43.25 11.74"/><path d="M47.12,7.81V22.23L43.3,26.18V11.76l3.82-3.95m.11-.26-4,4.17V26.45l4-4.17V7.55Z"/><rect class="cls-33" x="40.4" y="28.23" width="14.62" height="14.62"/><path d="M55,28.28V42.8H40.45V28.28H55m.11-.11H40.35V42.9H55.07V28.18Z"/><polygon class="cls-33" points="40.47 28.12 44.4 24.06 58.97 24.06 55.05 28.12 40.47 28.12"/><path d="M58.85,24.11l-3.82,4H40.6l3.82-4H58.85M59.1,24H44.38l-4,4.17H55.07l4-4.17Z"/><polygon class="cls-33" points="55.12 28.2 59.05 24.14 59.05 38.71 55.12 42.77 55.12 28.2"/><path d="M59,24.27V38.69l-3.82,3.95V28.22L59,24.27M59.1,24l-4,4.17V42.9l4-4.17V24Z"/></g></g></svg>