<svg id="Layer_1" data-name="Layer 1" xmlns="http://www.w3.org/2000/svg" xmlns:xlink="http://www.w3.org/1999/xlink" viewBox="0 0 62.65 62.65"><defs><style>.cls-1{fill:#73adff;}.cls-2{fill:#808184;}.cls-3{fill:url(#linear-gradient);}.cls-4{fill:#d4cedb;}.cls-5{fill:#000009;}.cls-6{fill:#bcdef7;}.cls-7{fill:url(#linear-gradient-2);}.cls-8,.cls-9{opacity:0.5;}.cls-8{fill:url(#linear-gradient-3);}.cls-9{fill:url(#linear-gradient-4);}.cls-10{fill:#fff;}.cls-11{fill:url(#radial-gradient);}.cls-12{fill:#4a9c1c;}.cls-13{fill:url(#linear-gradient-9);}.cls-14{fill:url(#linear-gradient-10);}</style><linearGradient id="linear-gradient" x1="9.33" y1="53.32" x2="52.39" y2="10.26" gradientUnits="userSpaceOnUse"><stop offset="0" stop-color="#babcbf" stop-opacity="0"/><stop offset="1" stop-color="#b8bcc1"/></linearGradient><linearGradient id="linear-gradient-2" x1="31.33" y1="4.07" x2="31.33" y2="52.18" gradientUnits="userSpaceOnUse"><stop offset="0" stop-color="#89b8e4" stop-opacity="0"/><stop offset="1" stop-color="#a0c3e4"/></linearGradient><linearGradient id="linear-gradient-3" x1="28.65" y1="28.74" x2="12.07" y2="10.57" gradientUnits="userSpaceOnUse"><stop offset="0" stop-color="#e2f3ff" stop-opacity="0.1"/><stop offset="1" stop-color="#e2f3ff"/></linearGradient><linearGradient id="linear-gradient-4" x1="36.51" y1="36.51" x2="59.07" y2="59.07" xlink:href="#linear-gradient-3"/><radialGradient id="radial-gradient" cx="-33.02" cy="253.27" r="14.99" gradientTransform="matrix(0, 1.02, 1.02, 0, -223.08, 68.86)" gradientUnits="userSpaceOnUse"><stop offset="0" stop-color="#29e26f"/><stop offset="1" stop-color="#29c865"/></radialGradient><linearGradient id="linear-gradient-9" x1="-52.91" y1="294.16" x2="-44.41" y2="295.2" gradientTransform="matrix(0, 1, 1, 0, -263.37, 66.13)" gradientUnits="userSpaceOnUse"><stop offset="0" stop-color="#29d372"/><stop offset="0.44" stop-color="#29dc70"/><stop offset="1" stop-color="#29e26f"/></linearGradient><linearGradient id="linear-gradient-10" x1="-35.16" y1="276.52" x2="-34.46" y2="285.34" xlink:href="#linear-gradient-9"/></defs><title>left-icon-cube</title><path class="cls-1" d="M31.33,58.35a27,27,0,1,1,27-27A27.05,27.05,0,0,1,31.33,58.35Z"/><path class="cls-2" d="M31.33,62.65A31.33,31.33,0,1,1,62.65,31.33,31.36,31.36,0,0,1,31.33,62.65Z"/><path class="cls-3" d="M31.33,62.65A31.33,31.33,0,1,1,62.65,31.33,31.36,31.36,0,0,1,31.33,62.65Z"/><path class="cls-4" d="M31.33,59.78A28.46,28.46,0,1,1,59.78,31.33,28.49,28.49,0,0,1,31.33,59.78Z"/><path class="cls-5" d="M31.33,59.3a28,28,0,1,1,28-28A28,28,0,0,1,31.33,59.3Z"/><path class="cls-6" d="M31.33,58.59A27.26,27.26,0,1,1,58.59,31.33,27.29,27.29,0,0,1,31.33,58.59Z"/><circle class="cls-7" cx="31.33" cy="31.33" r="26.78"/><path class="cls-8" d="M30.14,28.55V7.2A24.16,24.16,0,0,0,7.33,28.55Z"/><path class="cls-9" d="M47.17,13.09A24.15,24.15,0,0,1,13.09,47.17,24.15,24.15,0,1,0,47.17,13.09Z"/><polygon class="cls-10" points="27.68 55.02 27.73 41.65 41 41.7 40.95 55.02 27.68 55.02"/><path d="M40.9,41.75V55H27.78V41.75H40.9m.1-.1H27.68V55.07H41V41.65Z"/><polygon class="cls-10" points="27.68 41.6 31.36 37.89 44.64 37.9 40.98 41.6 27.68 41.6"/><path d="M44.4,38,41,41.55h-13L31.37,38h13m.23-.1H31.33l-3.64,3.8H41l3.64-3.8Z"/><polygon class="cls-10" points="41.05 41.65 44.67 37.89 44.59 51.27 41.05 54.94 41.05 41.65"/><path d="M44.54,38.1V51.23L41.1,54.82V41.69l3.44-3.59m.1-.25L41,41.65V55.07l3.64-3.8V37.85Z"/><polygon class="cls-10" points="27.68 41.76 27.73 28.39 41 28.44 40.95 41.76 27.68 41.76"/><path d="M40.9,28.49V41.71H27.78V28.49H40.9m.1-.1H27.68V41.81H41V28.39Z"/><polygon class="cls-10" points="27.68 28.34 31.36 24.63 44.64 24.64 40.98 28.34 27.68 28.34"/><path d="M44.4,24.69,41,28.29h-13l3.45-3.6h13m.23-.1H31.33l-3.64,3.8H41l3.64-3.8Z"/><polygon class="cls-10" points="41.05 28.39 44.67 24.63 44.59 38.01 41.05 41.69 41.05 28.39"/><path d="M44.54,24.84V38L41.1,41.56V28.43l3.44-3.59m.1-.25L41,28.39V41.81L44.64,38V24.59Z"/><polygon class="cls-10" points="14.47 28.3 14.52 14.93 27.79 14.98 27.74 28.3 14.47 28.3"/><path d="M27.69,15V28.25H14.57V15H27.69m.1-.1H14.47V28.35H27.79V14.93Z"/><polygon class="cls-10" points="14.47 14.88 18.15 11.17 31.43 11.19 27.77 14.88 14.47 14.88"/><path d="M31.2,11.24l-3.45,3.6h-13l3.45-3.6h13m.23-.1H18.12l-3.64,3.8H27.79l3.64-3.8Z"/><polygon class="cls-10" points="27.84 14.93 31.47 11.17 31.38 24.55 27.84 28.23 27.84 14.93"/><path d="M31.33,11.39V24.51L27.89,28.1V15l3.44-3.59m.1-.25-3.64,3.8V28.35l3.64-3.8V11.14Z"/><polygon class="cls-10" points="27.68 28.3 27.73 14.93 41 14.98 40.95 28.3 27.68 28.3"/><path d="M40.9,15V28.25H27.78V15H40.9m.1-.1H27.68V28.35H41V14.93Z"/><polygon class="cls-10" points="27.68 14.88 31.36 11.17 44.64 11.19 40.98 14.88 27.68 14.88"/><path d="M44.4,11.24,41,14.83h-13l3.45-3.6h13m.23-.1H31.33l-3.64,3.8H41l3.64-3.8Z"/><polygon class="cls-10" points="41.05 14.93 44.67 11.17 44.59 24.55 41.05 28.23 41.05 14.93"/><path d="M44.54,11.39V24.51L41.1,28.1V15l3.44-3.59m.1-.25L41,14.93V28.35l3.64-3.8V11.14Z"/><path class="cls-1" d="M31.33,58.35a27,27,0,1,1,27-27A27.05,27.05,0,0,1,31.33,58.35Z"/><path class="cls-2" d="M31.33,62.65A31.33,31.33,0,1,1,62.65,31.33,31.36,31.36,0,0,1,31.33,62.65Z"/><path class="cls-3" d="M31.33,62.65A31.33,31.33,0,1,1,62.65,31.33,31.36,31.36,0,0,1,31.33,62.65Z"/><path class="cls-4" d="M31.33,59.78A28.46,28.46,0,1,1,59.78,31.33,28.49,28.49,0,0,1,31.33,59.78Z"/><path class="cls-5" d="M31.33,59.3a28,28,0,1,1,28-28A28,28,0,0,1,31.33,59.3Z"/><path class="cls-6" d="M31.33,58.59A27.26,27.26,0,1,1,58.59,31.33,27.29,27.29,0,0,1,31.33,58.59Z"/><circle class="cls-7" cx="31.33" cy="31.33" r="26.78"/><path class="cls-8" d="M30.14,28.55V7.2A24.16,24.16,0,0,0,7.33,28.55Z"/><path class="cls-9" d="M47.17,13.09A24.15,24.15,0,0,1,13.09,47.17,24.15,24.15,0,1,0,47.17,13.09Z"/><rect class="cls-11" x="21.5" y="21.63" width="27.13" height="27.14"/><path class="cls-12" d="M48.51,21.76V48.65H21.63V21.76H48.51m.25-.25H21.38V48.9H48.76V21.51Z"/><polygon class="cls-13" points="21.38 21.38 14.18 13.88 41.27 13.88 48.47 21.38 21.38 21.38"/><path class="cls-12" d="M41.17,14l7,7.25H21.49l-7-7.25H41.17m.11-.25H13.89l7.49,7.75H48.76l-7.49-7.75Z"/><polygon class="cls-14" points="13.98 41.06 14.01 14.06 21.29 21.59 21.25 48.59 13.98 41.06"/><path class="cls-12" d="M14.14,14.37l7,7.23V48.28l-7-7.23V14.37m-.25-.62V41.14l7.49,7.75V21.51l-7.49-7.75Z"/></svg>