<svg id="Layer_1" data-name="Layer 1" xmlns="http://www.w3.org/2000/svg" xmlns:xlink="http://www.w3.org/1999/xlink" viewBox="0 0 171.61 67.29"><defs><style>.cls-1{fill:#21ff4f;}.cls-2{fill:#008046;}.cls-3{fill:#15a332;}.cls-4{fill:url(#linear-gradient);}.cls-5{fill:url(#linear-gradient-2);}.cls-6{fill:#1ac93e;}</style><linearGradient id="linear-gradient" x1="19.01" y1="-502.92" x2="20.34" y2="-486.04" gradientTransform="translate(-434.73 13.96) rotate(90)" gradientUnits="userSpaceOnUse"><stop offset="0" stop-color="#29d372"/><stop offset="0.44" stop-color="#29dc70"/><stop offset="1" stop-color="#29e26f"/></linearGradient><linearGradient id="linear-gradient-2" x1="19.01" y1="-555.34" x2="20.34" y2="-538.46" xlink:href="#linear-gradient"/></defs><title>block-6</title><rect class="cls-1" x="0.25" y="15.09" width="51.93" height="51.94"/><path class="cls-2" d="M51.93,15.34V66.79H.5V15.34H51.93m.5-.5H0V67.29H52.43V14.84Z"/><polygon class="cls-3" points="0.59 14.59 14.45 0.25 66.19 0.25 52.32 14.59 0.59 14.59"/><path class="cls-2" d="M65.6.5,52.22,14.34h-51L14.56.5h51M66.77,0H14.34L0,14.84H52.43L66.77,0Z"/><polygon class="cls-4" points="52.68 14.94 66.53 0.62 66.53 52.34 52.68 66.67 52.68 14.94"/><path class="cls-2" d="M66.27,1.24v51L52.93,66.05V15L66.27,1.24M66.77,0,52.43,14.84V67.29L66.77,52.44V0Z"/><rect class="cls-1" x="52.67" y="15.09" width="51.93" height="51.94"/><path class="cls-2" d="M104.35,15.34V66.79H52.92V15.34h51.43m.5-.5H52.42V67.29h52.43V14.84Z"/><polygon class="cls-3" points="53.01 14.59 66.87 0.25 118.6 0.25 104.74 14.59 53.01 14.59"/><path class="cls-2" d="M118,.5,104.64,14.34h-51L67,.5h51m1.18-.5H66.76L52.42,14.84h52.43L119.19,0Z"/><polygon class="cls-5" points="105.1 14.94 118.94 0.62 118.94 52.34 105.1 66.67 105.1 14.94"/><path class="cls-2" d="M118.69,1.24v51L105.35,66.05V15L118.69,1.24m.5-1.24L104.85,14.84V67.29l14.34-14.84V0Z"/><rect class="cls-1" x="105.08" y="15.09" width="51.93" height="51.94"/><path class="cls-2" d="M156.76,15.34V66.79H105.33V15.34h51.43m.5-.5H104.83V67.29h52.43V14.84Z"/><polygon class="cls-3" points="105.42 14.59 119.28 0.25 171.02 0.25 157.16 14.59 105.42 14.59"/><path class="cls-2" d="M170.43.5,157.05,14.34H106L119.39.5h51m1.18-.5H119.18L104.83,14.84h52.43L171.61,0Z"/><polygon class="cls-6" points="157.51 14.94 171.36 0.62 171.36 52.34 157.51 66.67 157.51 14.94"/><path class="cls-2" d="M171.11,1.24v51L157.76,66.05V15L171.11,1.24m.5-1.24L157.26,14.84V67.29l14.34-14.84V0Z"/></svg>