<svg id="Layer_1" data-name="Layer 1" xmlns="http://www.w3.org/2000/svg" xmlns:xlink="http://www.w3.org/1999/xlink" viewBox="0 0 171.61 96.96"><defs><style>.cls-1{fill:#21ff4f;}.cls-2{fill:#008046;}.cls-3{fill:#15a332;}.cls-4{fill:url(#linear-gradient);}.cls-5{fill:url(#radial-gradient);}.cls-6{fill:#1ac93e;}.cls-7{fill:url(#radial-gradient-2);}.cls-8{fill:url(#linear-gradient-2);}</style><linearGradient id="linear-gradient" x1="33.85" y1="-488.09" x2="35.17" y2="-471.21" gradientTransform="translate(-419.9 28.79) rotate(90)" gradientUnits="userSpaceOnUse"><stop offset="0" stop-color="#29d372"/><stop offset="0.44" stop-color="#29dc70"/><stop offset="1" stop-color="#29e26f"/></linearGradient><radialGradient id="radial-gradient" cx="10.4" cy="-556.62" r="28.7" gradientTransform="translate(-459.86 30.46) rotate(90) scale(1.02 1.02)" gradientUnits="userSpaceOnUse"><stop offset="0" stop-color="#29e26f"/><stop offset="1" stop-color="#27bd5f"/></radialGradient><radialGradient id="radial-gradient-2" cx="24.96" cy="-542.55" r="28.7" xlink:href="#radial-gradient"/><linearGradient id="linear-gradient-2" x1="33.85" y1="-540.5" x2="35.17" y2="-523.63" xlink:href="#linear-gradient"/></defs><title>block-7</title><rect class="cls-1" x="0.25" y="44.76" width="51.93" height="51.94"/><path class="cls-2" d="M51.93,45V96.46H.5V45H51.93m.5-.5H0V97H52.43V44.51Z"/><polygon class="cls-3" points="0.59 44.26 14.45 29.92 66.19 29.92 52.32 44.26 0.59 44.26"/><path class="cls-2" d="M65.6,30.17,52.22,44h-51L14.56,30.17h51m1.18-.5H14.34L0,44.51H52.43L66.77,29.67Z"/><polygon class="cls-4" points="52.68 44.61 66.53 30.29 66.53 82.01 52.68 96.34 52.68 44.61"/><path class="cls-2" d="M66.27,30.91v51L52.93,95.72v-51L66.27,30.91m.5-1.24L52.43,44.51V97L66.77,82.11V29.67Z"/><rect class="cls-5" x="81.32" y="15.09" width="51.93" height="51.94"/><path class="cls-2" d="M133,15.34V66.79H81.58V15.34H133m.5-.5H81.08V67.29h52.43V14.84Z"/><polygon class="cls-3" points="81.66 14.59 95.53 0.25 147.26 0.25 133.4 14.59 81.66 14.59"/><path class="cls-2" d="M146.67.5,133.29,14.34h-51L95.63.5h51m1.18-.5H95.42L81.08,14.84h52.43L147.85,0Z"/><polygon class="cls-6" points="133.76 14.94 147.6 0.62 147.6 52.34 133.76 66.67 133.76 14.94"/><path class="cls-2" d="M147.35,1.24v51L134,66.05V15L147.35,1.24m.5-1.24L133.51,14.84V67.29l14.34-14.84V0Z"/><rect class="cls-7" x="66.99" y="29.94" width="51.93" height="51.94"/><path class="cls-2" d="M118.67,30.19V81.63H67.24V30.19h51.43m.5-.5H66.74V82.13h52.43V29.69Z"/><polygon class="cls-3" points="67.32 29.44 81.19 15.1 132.92 15.1 119.06 29.44 67.32 29.44"/><path class="cls-2" d="M132.33,15.35,119,29.19h-51L81.29,15.35h51m1.18-.5H81.08L66.74,29.69h52.43l14.34-14.84Z"/><polygon class="cls-6" points="119.42 29.79 133.26 15.46 133.26 67.19 119.42 81.52 119.42 29.79"/><path class="cls-2" d="M133,16.08v51L119.67,80.9v-51L133,16.08m.5-1.24L119.17,29.69V82.13l14.34-14.84V14.85Z"/><rect class="cls-1" x="52.67" y="44.76" width="51.93" height="51.94"/><path class="cls-2" d="M104.35,45V96.46H52.92V45h51.43m.5-.5H52.42V97h52.43V44.51Z"/><polygon class="cls-3" points="53.01 44.26 66.87 29.92 118.6 29.92 104.74 44.26 53.01 44.26"/><path class="cls-2" d="M118,30.17,104.64,44h-51L67,30.17h51m1.18-.5H66.76L52.42,44.51h52.43l14.34-14.84Z"/><polygon class="cls-8" points="105.1 44.61 118.94 30.29 118.94 82.01 105.1 96.34 105.1 44.61"/><path class="cls-2" d="M118.69,30.91v51L105.35,95.72v-51l13.34-13.81m.5-1.24L104.85,44.51V97l14.34-14.84V29.67Z"/><rect class="cls-1" x="105.08" y="44.76" width="51.93" height="51.94"/><path class="cls-2" d="M156.76,45V96.46H105.33V45h51.43m.5-.5H104.83V97h52.43V44.51Z"/><polygon class="cls-3" points="105.42 44.26 119.28 29.92 171.02 29.92 157.16 44.26 105.42 44.26"/><path class="cls-2" d="M170.43,30.17,157.05,44H106l13.38-13.84h51m1.18-.5H119.18L104.83,44.51h52.43l14.34-14.84Z"/><polygon class="cls-6" points="157.51 44.61 171.36 30.29 171.36 82.01 157.51 96.34 157.51 44.61"/><path class="cls-2" d="M171.11,30.91v51L157.76,95.72v-51l13.34-13.81m.5-1.24L157.26,44.51V97l14.34-14.84V29.67Z"/></svg>