<svg id="Layer_1" data-name="Layer 1" xmlns="http://www.w3.org/2000/svg" xmlns:xlink="http://www.w3.org/1999/xlink" viewBox="0 0 109.8 164.26"><defs><style>.cls-1{fill:url(#radial-gradient);}.cls-2{fill:#800b00;}.cls-3{fill:url(#linear-gradient);}.cls-4{fill:#d67591;}.cls-5{fill:url(#radial-gradient-2);}.cls-6{fill:#9e465f;}.cls-7{fill:#ff8bad;}.cls-8{fill:url(#radial-gradient-3);}.cls-9{fill:url(#linear-gradient-2);}</style><radialGradient id="radial-gradient" cx="-2.07" cy="-618.83" r="28.7" gradientTransform="matrix(0, 1.02, 1.02, 0, 671.12, 95.62)" gradientUnits="userSpaceOnUse"><stop offset="0" stop-color="#dbaaa7"/><stop offset="1" stop-color="#d48b98"/></radialGradient><linearGradient id="linear-gradient" x1="-41.91" y1="-599.43" x2="-25.66" y2="-597.44" gradientTransform="matrix(0, 1, 1, 0, 631.78, 93.35)" gradientUnits="userSpaceOnUse"><stop offset="0" stop-color="#db9baa"/><stop offset="0.44" stop-color="#dba4a8"/><stop offset="1" stop-color="#dbaaa7"/></linearGradient><radialGradient id="radial-gradient-2" cx="12.49" cy="-604.76" r="28.7" xlink:href="#radial-gradient"/><radialGradient id="radial-gradient-3" cx="27.05" cy="-590.68" r="28.7" xlink:href="#radial-gradient"/><linearGradient id="linear-gradient-2" x1="2.61" y1="-556.41" x2="18.87" y2="-554.41" xlink:href="#linear-gradient"/></defs><title>block-13</title><rect class="cls-1" x="14.59" y="67.54" width="51.93" height="51.94"/><path class="cls-2" d="M66.27,67.79v51.44H14.84V67.79H66.27m.5-.5H14.34v52.44H66.77V67.29Z"/><polygon class="cls-3" points="14.45 67.04 0.59 52.7 52.32 52.7 66.19 67.04 14.45 67.04"/><path class="cls-2" d="M52.22,52.95,65.6,66.79h-51L1.18,52.95h51m.21-.5H0L14.34,67.29H66.77L52.43,52.45Z"/><polygon class="cls-4" points="0.25 104.79 0.25 53.06 14.09 67.39 14.09 119.12 0.25 104.79"/><path class="cls-2" d="M.5,53.68,13.84,67.49v51L.5,104.69v-51M0,52.45v52.44l14.34,14.84V67.29L0,52.45Z"/><rect class="cls-5" x="28.94" y="82.38" width="51.93" height="51.94"/><path class="cls-2" d="M80.62,82.63v51.44H29.19V82.63H80.62m.5-.5H28.69v52.44H81.12V82.13Z"/><polygon class="cls-6" points="28.79 81.88 14.93 67.54 66.67 67.54 80.53 81.88 28.79 81.88"/><path class="cls-2" d="M66.56,67.79,79.94,81.63h-51L15.52,67.79h51m.21-.5H14.34L28.69,82.13H81.12L66.77,67.29Z"/><polygon class="cls-4" points="14.59 119.63 14.59 67.91 28.43 82.23 28.43 133.96 14.59 119.63"/><path class="cls-2" d="M14.84,68.53,28.19,82.33v51L14.84,119.53v-51m-.5-1.24v52.44l14.34,14.84V82.13L14.34,67.29Z"/><rect class="cls-7" x="14.59" y="15.09" width="51.93" height="51.94"/><path class="cls-2" d="M66.27,15.34V66.79H14.84V15.34H66.27m.5-.5H14.34V67.29H66.77V14.84Z"/><polygon class="cls-6" points="14.45 14.59 0.59 0.25 52.32 0.25 66.19 14.59 14.45 14.59"/><path class="cls-2" d="M52.22.5,65.6,14.34h-51L1.18.5h51m.21-.5H0L14.34,14.84H66.77L52.43,0Z"/><polygon class="cls-4" points="0.25 52.34 0.25 0.62 14.09 14.94 14.09 66.67 0.25 52.34"/><path class="cls-2" d="M.5,1.24,13.84,15v51L.5,52.24v-51M0,0V52.44L14.34,67.29V14.84L0,0Z"/><rect class="cls-8" x="43.28" y="97.22" width="51.93" height="51.94"/><path class="cls-2" d="M95,97.47v51.44H43.53V97.47H95m.5-.5H43v52.44H95.46V97Z"/><polygon class="cls-6" points="43.13 96.72 29.27 82.38 81.01 82.38 94.87 96.72 43.13 96.72"/><path class="cls-2" d="M80.9,82.63,94.28,96.47h-51L29.86,82.63h51m.21-.5H28.68L43,97H95.46L81.11,82.13Z"/><polygon class="cls-4" points="28.93 134.48 28.93 82.75 42.78 97.08 42.78 148.8 28.93 134.48"/><path class="cls-2" d="M29.18,83.37,42.53,97.18v51L29.18,134.37v-51m-.5-1.24v52.44L43,149.42V97L28.68,82.13Z"/><rect class="cls-7" x="57.62" y="112.07" width="51.93" height="51.94"/><path class="cls-2" d="M109.3,112.32v51.44H57.87V112.32H109.3m.5-.5H57.37v52.44H109.8V111.82Z"/><polygon class="cls-9" points="57.47 111.57 43.61 97.22 95.35 97.22 109.21 111.57 57.47 111.57"/><path class="cls-2" d="M95.24,97.47l13.38,13.84h-51L44.2,97.47h51m.21-.5H43l14.34,14.84H109.8L95.45,97Z"/><polygon class="cls-4" points="43.27 149.32 43.27 97.59 57.12 111.92 57.12 163.64 43.27 149.32"/><path class="cls-2" d="M43.52,98.21,56.87,112v51L43.52,149.22v-51M43,97v52.44l14.34,14.84V111.82L43,97Z"/><rect class="cls-7" x="57.62" y="59.62" width="51.93" height="51.94"/><path class="cls-2" d="M109.3,59.87v51.44H57.87V59.87H109.3m.5-.5H57.37v52.44H109.8V59.37Z"/><polygon class="cls-6" points="57.47 59.12 43.61 44.78 95.35 44.78 109.21 59.12 57.47 59.12"/><path class="cls-2" d="M95.24,45l13.38,13.84h-51L44.2,45h51m.21-.5H43L57.37,59.37H109.8L95.45,44.53Z"/><polygon class="cls-4" points="43.27 96.87 43.27 45.15 57.12 59.47 57.12 111.2 43.27 96.87"/><path class="cls-2" d="M43.52,45.76,56.87,59.57v51L43.52,96.77v-51M43,44.53V97l14.34,14.84V59.37L43,44.53Z"/></svg>