<svg id="Layer_1" data-name="Layer 1" xmlns="http://www.w3.org/2000/svg" xmlns:xlink="http://www.w3.org/1999/xlink" viewBox="0 0 81.12 134.58"><defs><style>.cls-1{fill:url(#radial-gradient);}.cls-2{fill:#800b00;}.cls-3{fill:url(#linear-gradient);}.cls-4{fill:#d67591;}.cls-5{fill:#ff8bad;}.cls-6{fill:url(#linear-gradient-2);}.cls-7{fill:url(#radial-gradient-2);}.cls-8{fill:#9e465f;}</style><radialGradient id="radial-gradient" cx="-1.85" cy="-619.6" r="28.7" gradientTransform="matrix(0, 1.02, 1.02, 0, 671.9, 95.4)" gradientUnits="userSpaceOnUse"><stop offset="0" stop-color="#dbaaa7"/><stop offset="1" stop-color="#d48b98"/></radialGradient><linearGradient id="linear-gradient" x1="-41.41" y1="-599.93" x2="-25.15" y2="-597.94" gradientTransform="matrix(0, 1, 1, 0, 632.28, 92.85)" gradientUnits="userSpaceOnUse"><stop offset="0" stop-color="#db9baa"/><stop offset="0.44" stop-color="#dba4a8"/><stop offset="1" stop-color="#dbaaa7"/></linearGradient><linearGradient id="linear-gradient-2" x1="-26.57" y1="-585.59" x2="-10.31" y2="-583.6" xlink:href="#linear-gradient"/><radialGradient id="radial-gradient-2" cx="-53.3" cy="-619.6" r="28.7" xlink:href="#radial-gradient"/></defs><title>block-12</title><rect class="cls-1" x="14.59" y="67.54" width="51.93" height="51.94"/><path class="cls-2" d="M66.27,67.79v51.44H14.84V67.79H66.27m.5-.5H14.34v52.44H66.77V67.29Z"/><polygon class="cls-3" points="14.45 67.04 0.59 52.7 52.32 52.7 66.19 67.04 14.45 67.04"/><path class="cls-2" d="M52.22,52.95,65.6,66.79h-51L1.18,52.95h51m.21-.5H0L14.34,67.29H66.77L52.43,52.45Z"/><polygon class="cls-4" points="0.25 104.79 0.25 53.07 14.09 67.39 14.09 119.12 0.25 104.79"/><path class="cls-2" d="M.5,53.68,13.84,67.49v51L.5,104.69v-51M0,52.45v52.44l14.34,14.84V67.29L0,52.45Z"/><rect class="cls-5" x="28.94" y="82.38" width="51.93" height="51.94"/><path class="cls-2" d="M80.62,82.63v51.44H29.19V82.63H80.62m.5-.5H28.69v52.44H81.12V82.13Z"/><polygon class="cls-6" points="28.79 81.88 14.93 67.54 66.67 67.54 80.53 81.88 28.79 81.88"/><path class="cls-2" d="M66.56,67.79,79.94,81.63h-51L15.52,67.79h51m.21-.5H14.34L28.69,82.13H81.12L66.77,67.29Z"/><polygon class="cls-4" points="14.59 119.63 14.59 67.91 28.43 82.23 28.43 133.96 14.59 119.63"/><path class="cls-2" d="M14.84,68.53,28.19,82.33v51L14.84,119.53v-51m-.5-1.24v52.44l14.34,14.84V82.13L14.34,67.29Z"/><rect class="cls-7" x="14.59" y="15.09" width="51.93" height="51.94"/><path class="cls-2" d="M66.27,15.34V66.79H14.84V15.34H66.27m.5-.5H14.34V67.29H66.77V14.84Z"/><polygon class="cls-8" points="14.45 14.59 0.59 0.25 52.32 0.25 66.19 14.59 14.45 14.59"/><path class="cls-2" d="M52.22.5,65.6,14.34h-51L1.18.5h51m.21-.5H0L14.34,14.84H66.77L52.43,0Z"/><polygon class="cls-4" points="0.25 52.34 0.25 0.62 14.09 14.94 14.09 66.67 0.25 52.34"/><path class="cls-2" d="M.5,1.24,13.84,15v51L.5,52.24v-51M0,0V52.44L14.34,67.29V14.84L0,0Z"/><rect class="cls-5" x="28.94" y="29.94" width="51.93" height="51.94"/><path class="cls-2" d="M80.62,30.19V81.63H29.19V30.19H80.62m.5-.5H28.69V82.13H81.12V29.69Z"/><polygon class="cls-8" points="28.79 29.43 14.93 15.09 66.67 15.09 80.53 29.43 28.79 29.43"/><path class="cls-2" d="M66.56,15.34,79.94,29.19h-51L15.52,15.34h51m.21-.5H14.34L28.69,29.69H81.12L66.77,14.84Z"/><polygon class="cls-4" points="14.59 67.19 14.59 15.46 28.43 29.79 28.43 81.51 14.59 67.19"/><path class="cls-2" d="M14.84,16.08,28.19,29.89v51L14.84,67.08v-51m-.5-1.24V67.29L28.69,82.13V29.69L14.34,14.84Z"/></svg>