<svg id="Layer_1" data-name="Layer 1" xmlns="http://www.w3.org/2000/svg" xmlns:xlink="http://www.w3.org/1999/xlink" viewBox="0 0 200.29 96.97"><defs><style>.cls-1{fill:url(#radial-gradient);}.cls-2{fill:#008046;}.cls-3{fill:#15a332;}.cls-4{fill:url(#linear-gradient);}.cls-5{fill:#21ff4f;}.cls-6{fill:url(#linear-gradient-2);}.cls-7{fill:url(#radial-gradient-2);}.cls-8{fill:#1ac93e;}.cls-9{fill:url(#radial-gradient-3);}.cls-10{fill:url(#linear-gradient-3);}.cls-11{fill:url(#linear-gradient-4);}.cls-12{fill:url(#radial-gradient-4);}</style><radialGradient id="radial-gradient" cx="24.73" cy="-491.12" r="28.7" gradientTransform="translate(-445.51 15.85) rotate(90) scale(1.02 1.02)" gradientUnits="userSpaceOnUse"><stop offset="0" stop-color="#29e26f"/><stop offset="1" stop-color="#27bd5f"/></radialGradient><linearGradient id="linear-gradient" x1="18.51" y1="-502.42" x2="19.84" y2="-485.54" gradientTransform="translate(-405.55 14.46) rotate(90)" gradientUnits="userSpaceOnUse"><stop offset="0" stop-color="#29d372"/><stop offset="0.44" stop-color="#29dc70"/><stop offset="1" stop-color="#29e26f"/></linearGradient><linearGradient id="linear-gradient-2" x1="18.51" y1="-554.81" x2="19.84" y2="-537.93" xlink:href="#linear-gradient"/><radialGradient id="radial-gradient-2" cx="24.73" cy="-594" r="28.7" xlink:href="#radial-gradient"/><radialGradient id="radial-gradient-3" cx="39.3" cy="-477.05" r="28.7" xlink:href="#radial-gradient"/><linearGradient id="linear-gradient-3" x1="48.2" y1="-473.73" x2="49.52" y2="-456.86" xlink:href="#linear-gradient"/><linearGradient id="linear-gradient-4" x1="48.2" y1="-526.13" x2="49.52" y2="-509.25" xlink:href="#linear-gradient"/><radialGradient id="radial-gradient-4" cx="39.3" cy="-579.92" r="28.7" xlink:href="#radial-gradient"/></defs><title>block-10</title><rect class="cls-1" x="28.93" y="15.09" width="51.93" height="51.94"/><path class="cls-2" d="M80.62,15.34V66.79H29.18V15.34H80.62m.5-.5H28.68V67.29H81.12V14.84Z"/><polygon class="cls-3" points="29.27 14.59 43.13 0.25 94.87 0.25 81.01 14.59 29.27 14.59"/><path class="cls-2" d="M94.28.5,80.9,14.34h-51L43.24.5h51M95.46,0H43L28.68,14.84H81.12L95.46,0Z"/><polygon class="cls-4" points="81.36 14.94 95.21 0.62 95.21 52.34 81.36 66.67 81.36 14.94"/><path class="cls-2" d="M95,1.24v51L81.62,66.05V15L95,1.24M95.46,0,81.12,14.84V67.29L95.46,52.44V0Z"/><rect class="cls-5" x="81.33" y="15.09" width="51.93" height="51.94"/><path class="cls-2" d="M133,15.34V66.79H81.58V15.34H133m.5-.5H81.08V67.29h52.43V14.84Z"/><polygon class="cls-3" points="81.67 14.59 95.53 0.25 147.26 0.25 133.4 14.59 81.67 14.59"/><path class="cls-2" d="M146.67.5,133.29,14.34h-51L95.63.5h51m1.18-.5H95.42L81.08,14.84h52.43L147.85,0Z"/><polygon class="cls-6" points="133.76 14.94 147.6 0.62 147.6 52.34 133.76 66.67 133.76 14.94"/><path class="cls-2" d="M147.35,1.24v51L134,66.05V15L147.35,1.24m.5-1.24L133.51,14.84V67.29l14.34-14.84V0Z"/><rect class="cls-7" x="133.77" y="15.09" width="51.93" height="51.94"/><path class="cls-2" d="M185.45,15.34V66.79H134V15.34h51.43m.5-.5H133.52V67.29h52.43V14.84Z"/><polygon class="cls-3" points="134.11 14.59 147.97 0.25 199.71 0.25 185.84 14.59 134.11 14.59"/><path class="cls-2" d="M199.12.5,185.74,14.34h-51L148.08.5h51m1.18-.5H147.86L133.52,14.84h52.43L200.29,0Z"/><polygon class="cls-8" points="186.2 14.94 200.04 0.62 200.04 52.34 186.2 66.67 186.2 14.94"/><path class="cls-2" d="M199.79,1.24v51L186.45,66.05V15L199.79,1.24m.5-1.24L185.95,14.84V67.29l14.34-14.84V0Z"/><rect class="cls-9" x="14.59" y="29.93" width="51.93" height="51.94"/><path class="cls-2" d="M66.27,30.18V81.63H14.84V30.18H66.27m.5-.5H14.34V82.13H66.77V29.68Z"/><polygon class="cls-3" points="14.93 29.43 28.79 15.09 80.53 15.09 66.67 29.43 14.93 29.43"/><path class="cls-2" d="M79.94,15.34,66.56,29.18h-51L28.9,15.34h51m1.18-.5H28.69L14.34,29.68H66.77L81.12,14.84Z"/><polygon class="cls-8" points="67.02 29.79 80.87 15.46 80.87 67.19 67.02 81.51 67.02 29.79"/><path class="cls-2" d="M80.62,16.08v51L67.27,80.89v-51L80.62,16.08m.5-1.24L66.77,29.68V82.13L81.12,67.29V14.84Z"/><rect class="cls-5" x="0.25" y="44.78" width="51.93" height="51.94"/><path class="cls-2" d="M51.93,45V96.47H.5V45H51.93m.5-.5H0V97H52.43V44.53Z"/><polygon class="cls-3" points="0.59 44.28 14.45 29.93 66.19 29.93 52.32 44.28 0.59 44.28"/><path class="cls-2" d="M65.6,30.18,52.22,44h-51L14.56,30.18h51m1.18-.5H14.34L0,44.53H52.43L66.77,29.68Z"/><polygon class="cls-10" points="52.68 44.63 66.52 30.3 66.52 82.03 52.68 96.35 52.68 44.63"/><path class="cls-2" d="M66.27,30.92v51L52.93,95.73v-51L66.27,30.92m.5-1.24L52.43,44.53V97L66.77,82.13V29.68Z"/><rect class="cls-5" x="52.64" y="44.78" width="51.93" height="51.94"/><path class="cls-2" d="M104.32,45V96.47H52.89V45h51.43m.5-.5H52.39V97h52.43V44.53Z"/><polygon class="cls-3" points="52.98 44.28 66.84 29.93 118.58 29.93 104.72 44.28 52.98 44.28"/><path class="cls-2" d="M118,30.18,104.61,44h-51L66.95,30.18h51m1.18-.5H66.74L52.39,44.53h52.43l14.34-14.84Z"/><polygon class="cls-11" points="105.07 44.63 118.92 30.3 118.92 82.03 105.07 96.35 105.07 44.63"/><path class="cls-2" d="M118.67,30.92v51L105.32,95.73v-51l13.34-13.81m.5-1.24L104.82,44.53V97l14.34-14.84V29.68Z"/><rect class="cls-12" x="119.43" y="29.94" width="51.93" height="51.94"/><path class="cls-2" d="M171.11,30.19V81.63H119.68V30.19h51.43m.5-.5H119.18V82.13h52.43V29.69Z"/><polygon class="cls-3" points="119.76 29.43 133.63 15.09 185.36 15.09 171.5 29.43 119.76 29.43"/><path class="cls-2" d="M184.77,15.34,171.39,29.19h-51l13.38-13.84h51m1.18-.5H133.52L119.18,29.69h52.43L186,14.84Z"/><polygon class="cls-8" points="171.86 29.79 185.7 15.46 185.7 67.19 171.86 81.51 171.86 29.79"/><path class="cls-2" d="M185.45,16.08v51L172.11,80.89v-51l13.34-13.81m.5-1.24L171.61,29.69V82.13L186,67.29V14.84Z"/><rect class="cls-5" x="105.08" y="44.78" width="51.93" height="51.94"/><path class="cls-2" d="M156.76,45V96.47H105.33V45h51.43m.5-.5H104.83V97h52.43V44.53Z"/><polygon class="cls-3" points="105.42 44.28 119.29 29.93 171.02 29.93 157.16 44.28 105.42 44.28"/><path class="cls-2" d="M170.43,30.18,157.05,44H106l13.38-13.84h51m1.18-.5H119.18L104.83,44.53h52.43l14.34-14.84Z"/><polygon class="cls-8" points="157.51 44.63 171.36 30.3 171.36 82.03 157.51 96.35 157.51 44.63"/><path class="cls-2" d="M171.11,30.92v51L157.76,95.73v-51l13.34-13.81m.5-1.24L157.26,44.53V97l14.34-14.84V29.68Z"/></svg>