<svg id="Layer_1" data-name="Layer 1" xmlns="http://www.w3.org/2000/svg" xmlns:xlink="http://www.w3.org/1999/xlink" viewBox="0 0 162.2 164.26"><defs><style>.cls-1{fill:#ffea33;}.cls-2{fill:#807500;}.cls-3{fill:url(#linear-gradient);}.cls-4{fill:url(#linear-gradient-2);}.cls-5{fill:url(#radial-gradient);}.cls-6{fill:url(#linear-gradient-3);}.cls-7{fill:#e6d015;}.cls-8{fill:#bfad11;}.cls-9{fill:url(#linear-gradient-4);}.cls-10{fill:url(#linear-gradient-5);}.cls-11{fill:url(#radial-gradient-2);}.cls-12{fill:url(#linear-gradient-6);}.cls-13{fill:url(#radial-gradient-3);}.cls-14{fill:url(#linear-gradient-7);}</style><linearGradient id="linear-gradient" x1="-15.71" y1="-573.23" x2="0.55" y2="-571.24" gradientTransform="matrix(0, 1, 1, 0, 657.98, 67.15)" gradientUnits="userSpaceOnUse"><stop offset="0" stop-color="#ffd138"/><stop offset="0.44" stop-color="#ffda36"/><stop offset="1" stop-color="#ffe035"/></linearGradient><linearGradient id="linear-gradient-2" x1="18.27" y1="-607" x2="19.59" y2="-590.12" xlink:href="#linear-gradient"/><radialGradient id="radial-gradient" cx="24.13" cy="-644.54" r="28.7" gradientTransform="matrix(0, 1.02, 1.02, 0, 697.32, 68.91)" gradientUnits="userSpaceOnUse"><stop offset="0" stop-color="#ffe035"/><stop offset="1" stop-color="#ffc62b"/></radialGradient><linearGradient id="linear-gradient-3" x1="-15.71" y1="-625.63" x2="0.55" y2="-623.64" xlink:href="#linear-gradient"/><linearGradient id="linear-gradient-4" x1="-34.18" y1="-607" x2="-32.85" y2="-590.12" xlink:href="#linear-gradient"/><linearGradient id="linear-gradient-5" x1="33.11" y1="-592.66" x2="34.43" y2="-575.78" xlink:href="#linear-gradient"/><radialGradient id="radial-gradient-2" cx="38.69" cy="-630.47" r="28.7" xlink:href="#radial-gradient"/><linearGradient id="linear-gradient-6" x1="47.95" y1="-578.32" x2="49.28" y2="-561.44" xlink:href="#linear-gradient"/><radialGradient id="radial-gradient-3" cx="53.25" cy="-616.43" r="28.7" xlink:href="#radial-gradient"/><linearGradient id="linear-gradient-7" x1="62.79" y1="-563.97" x2="64.12" y2="-547.1" xlink:href="#linear-gradient"/></defs><title>block-20</title><rect class="cls-1" x="66.99" y="67.54" width="51.93" height="51.94"/><path class="cls-2" d="M118.67,67.79v51.44H67.24V67.79h51.43m.5-.5H66.74v52.44h52.43V67.29Z"/><polygon class="cls-3" points="66.85 67.04 52.98 52.7 104.72 52.7 118.58 67.04 66.85 67.04"/><path class="cls-2" d="M104.61,52.95,118,66.79H67L53.57,52.95h51m.21-.5H52.4L66.74,67.29h52.43L104.83,52.45Z"/><polygon class="cls-4" points="52.65 104.79 52.65 53.07 66.49 67.39 66.49 119.12 52.65 104.79"/><path class="cls-2" d="M52.9,53.68,66.24,67.49v51L52.9,104.69v-51m-.5-1.24v52.44l14.34,14.84V67.29L52.4,52.45Z"/><rect class="cls-5" x="14.59" y="67.54" width="51.93" height="51.94"/><path class="cls-2" d="M66.27,67.79v51.44H14.84V67.79H66.27m.5-.5H14.34v52.44H66.77V67.29Z"/><polygon class="cls-6" points="14.45 67.04 0.59 52.7 52.33 52.7 66.19 67.04 14.45 67.04"/><path class="cls-2" d="M52.22,52.95,65.6,66.79h-51L1.18,52.95h51m.21-.5H0L14.34,67.29H66.77L52.43,52.45Z"/><polygon class="cls-7" points="0.25 104.79 0.25 53.07 14.09 67.39 14.09 119.12 0.25 104.79"/><path class="cls-2" d="M.5,53.68,13.84,67.49v51L.5,104.69v-51M0,52.45v52.44l14.34,14.84V67.29L0,52.45Z"/><rect class="cls-1" x="66.99" y="15.09" width="51.93" height="51.94"/><path class="cls-2" d="M118.67,15.34V66.79H67.24V15.34h51.43m.5-.5H66.74V67.29h52.43V14.84Z"/><polygon class="cls-8" points="66.85 14.59 52.98 0.25 104.72 0.25 118.58 14.59 66.85 14.59"/><path class="cls-2" d="M104.61.5,118,14.34H67L53.57.5h51m.21-.5H52.4L66.74,14.84h52.43L104.83,0Z"/><polygon class="cls-9" points="52.65 52.34 52.65 0.62 66.49 14.94 66.49 66.67 52.65 52.34"/><path class="cls-2" d="M52.9,1.24,66.24,15v51L52.9,52.24v-51M52.4,0V52.44L66.74,67.29V14.84L52.4,0Z"/><rect class="cls-1" x="14.59" y="15.09" width="51.93" height="51.94"/><path class="cls-2" d="M66.27,15.34V66.79H14.84V15.34H66.27m.5-.5H14.34V67.29H66.77V14.84Z"/><polygon class="cls-8" points="14.45 14.59 0.59 0.25 52.33 0.25 66.19 14.59 14.45 14.59"/><path class="cls-2" d="M52.22.5,65.6,14.34h-51L1.18.5h51m.21-.5H0L14.34,14.84H66.77L52.43,0Z"/><polygon class="cls-7" points="0.25 52.34 0.25 0.62 14.09 14.94 14.09 66.67 0.25 52.34"/><path class="cls-2" d="M.5,1.24,13.84,15v51L.5,52.24v-51M0,0V52.44L14.34,67.29V14.84L0,0Z"/><rect class="cls-1" x="81.33" y="82.38" width="51.93" height="51.94"/><path class="cls-2" d="M133,82.63v51.44H81.58V82.63H133m.5-.5H81.08v52.44h52.43V82.13Z"/><polygon class="cls-8" points="81.19 81.88 67.33 67.54 119.06 67.54 132.92 81.88 81.19 81.88"/><path class="cls-2" d="M119,67.79l13.38,13.84h-51L67.92,67.79h51m.21-.5H66.74L81.08,82.13h52.43L119.17,67.29Z"/><polygon class="cls-10" points="66.99 119.63 66.99 67.91 80.83 82.23 80.83 133.96 66.99 119.63"/><path class="cls-2" d="M67.24,68.52,80.58,82.33v51L67.24,119.53v-51m-.5-1.24v52.44l14.34,14.84V82.13L66.74,67.29Z"/><rect class="cls-11" x="28.94" y="82.38" width="51.93" height="51.94"/><path class="cls-2" d="M80.62,82.63v51.44H29.19V82.63H80.62m.5-.5H28.69v52.44H81.12V82.13Z"/><polygon class="cls-8" points="28.79 81.88 14.93 67.54 66.67 67.54 80.53 81.88 28.79 81.88"/><path class="cls-2" d="M66.56,67.79,79.94,81.63h-51L15.52,67.79h51m.21-.5H14.34L28.69,82.13H81.12L66.77,67.29Z"/><polygon class="cls-7" points="14.59 119.63 14.59 67.91 28.44 82.23 28.44 133.96 14.59 119.63"/><path class="cls-2" d="M14.84,68.52,28.19,82.33v51L14.84,119.53v-51m-.5-1.24v52.44l14.34,14.84V82.13L14.34,67.29Z"/><rect class="cls-1" x="95.67" y="97.22" width="51.93" height="51.94"/><path class="cls-2" d="M147.35,97.47v51.44H95.92V97.47h51.43m.5-.5H95.42v52.44h52.43V97Z"/><polygon class="cls-8" points="95.53 96.72 81.67 82.38 133.4 82.38 147.26 96.72 95.53 96.72"/><path class="cls-2" d="M133.3,82.63l13.38,13.84h-51L82.26,82.63h51m.21-.5H81.08L95.42,97h52.43L133.51,82.13Z"/><polygon class="cls-12" points="81.33 134.47 81.33 82.75 95.17 97.07 95.17 148.8 81.33 134.47"/><path class="cls-2" d="M81.58,83.37,94.92,97.17v51L81.58,134.37v-51m-.5-1.24v52.44l14.34,14.84V97L81.08,82.13Z"/><rect class="cls-13" x="43.24" y="97.22" width="51.93" height="51.94"/><path class="cls-2" d="M94.92,97.47v51.44H43.49V97.47H94.92m.5-.5H43v52.44H95.42V97Z"/><polygon class="cls-8" points="43.1 96.72 29.24 82.38 80.97 82.38 94.83 96.72 43.1 96.72"/><path class="cls-2" d="M80.87,82.63,94.24,96.47h-51L29.83,82.63h51m.21-.5H28.65L43,97H95.42L81.08,82.13Z"/><polygon class="cls-7" points="28.9 134.47 28.9 82.75 42.74 97.07 42.74 148.8 28.9 134.47"/><path class="cls-2" d="M29.15,83.37,42.49,97.17v51L29.15,134.37v-51m-.5-1.24v52.44L43,149.42V97L28.65,82.13Z"/><rect class="cls-1" x="110.02" y="112.06" width="51.93" height="51.94"/><path class="cls-2" d="M161.7,112.31v51.44H110.27V112.31H161.7m.5-.5H109.77v52.44H162.2V111.81Z"/><polygon class="cls-8" points="109.87 111.56 96.01 97.22 147.75 97.22 161.61 111.56 109.87 111.56"/><path class="cls-2" d="M147.64,97.47,161,111.31H110L96.6,97.47h51m.21-.5H95.42l14.34,14.84H162.2L147.85,97Z"/><polygon class="cls-14" points="95.67 149.31 95.67 97.59 109.52 111.91 109.52 163.64 95.67 149.31"/><path class="cls-2" d="M95.92,98.21,109.27,112v51L95.92,149.21v-51M95.42,97v52.44l14.34,14.84V111.81L95.42,97Z"/><rect class="cls-1" x="57.58" y="112.06" width="51.93" height="51.94"/><path class="cls-2" d="M109.26,112.31v51.44H57.83V112.31h51.43m.5-.5H57.33v52.44h52.43V111.81Z"/><polygon class="cls-8" points="57.44 111.56 43.58 97.22 95.31 97.22 109.18 111.56 57.44 111.56"/><path class="cls-2" d="M95.21,97.47l13.38,13.84h-51L44.17,97.47h51m.21-.5H43l14.34,14.84h52.43L95.42,97Z"/><polygon class="cls-7" points="43.24 149.31 43.24 97.59 57.08 111.91 57.08 163.64 43.24 149.31"/><path class="cls-2" d="M43.49,98.21,56.83,112v51L43.49,149.21v-51M43,97v52.44l14.34,14.84V111.81L43,97Z"/><rect class="cls-1" x="110.02" y="59.62" width="51.93" height="51.94"/><path class="cls-2" d="M161.7,59.87v51.44H110.27V59.87H161.7m.5-.5H109.77v52.44H162.2V59.37Z"/><polygon class="cls-8" points="109.87 59.12 96.01 44.78 147.75 44.78 161.61 59.12 109.87 59.12"/><path class="cls-2" d="M147.64,45,161,58.87H110L96.6,45h51m.21-.5H95.42l14.34,14.84H162.2L147.85,44.53Z"/><polygon class="cls-7" points="95.67 96.87 95.67 45.15 109.52 59.47 109.52 111.2 95.67 96.87"/><path class="cls-2" d="M95.92,45.76l13.34,13.81v51L95.92,96.77v-51m-.5-1.24V97l14.34,14.84V59.37L95.42,44.53Z"/><rect class="cls-1" x="57.58" y="59.62" width="51.93" height="51.94"/><path class="cls-2" d="M109.26,59.87v51.44H57.83V59.87h51.43m.5-.5H57.33v52.44h52.43V59.37Z"/><polygon class="cls-8" points="57.44 59.12 43.58 44.78 95.31 44.78 109.18 59.12 57.44 59.12"/><path class="cls-2" d="M95.21,45l13.38,13.84h-51L44.17,45h51m.21-.5H43L57.33,59.37h52.43L95.42,44.53Z"/><polygon class="cls-7" points="43.24 96.87 43.24 45.15 57.08 59.47 57.08 111.2 43.24 96.87"/><path class="cls-2" d="M43.49,45.76,56.83,59.57v51L43.49,96.77v-51M43,44.53V97l14.34,14.84V59.37L43,44.53Z"/></svg>