<svg id="Layer_1" data-name="Layer 1" xmlns="http://www.w3.org/2000/svg" xmlns:xlink="http://www.w3.org/1999/xlink" viewBox="0 0 162.25 164.26"><defs><style>.cls-1{fill:url(#radial-gradient);}.cls-2{fill:#800b00;}.cls-3{fill:url(#linear-gradient);}.cls-4{fill:#d67591;}.cls-5{fill:url(#radial-gradient-2);}.cls-6{fill:url(#linear-gradient-2);}.cls-7{fill:url(#linear-gradient-3);}.cls-8{fill:url(#radial-gradient-3);}.cls-9{fill:#9e465f;}.cls-10{fill:url(#linear-gradient-4);}.cls-11{fill:#ff8bad;}.cls-12{fill:url(#linear-gradient-5);}.cls-13{fill:url(#radial-gradient-4);}.cls-14{fill:url(#linear-gradient-6);}.cls-15{fill:url(#linear-gradient-7);}.cls-16{fill:url(#radial-gradient-5);}.cls-17{fill:url(#radial-gradient-6);}</style><radialGradient id="radial-gradient" cx="24.16" cy="-644.57" r="28.7" gradientTransform="matrix(0, 1.02, 1.02, 0, 697.34, 68.89)" gradientUnits="userSpaceOnUse"><stop offset="0" stop-color="#dbaaa7"/><stop offset="1" stop-color="#d48b98"/></radialGradient><linearGradient id="linear-gradient" x1="-15.69" y1="-625.65" x2="0.57" y2="-623.66" gradientTransform="matrix(0, 1, 1, 0, 658.01, 67.12)" gradientUnits="userSpaceOnUse"><stop offset="0" stop-color="#db9baa"/><stop offset="0.44" stop-color="#dba4a8"/><stop offset="1" stop-color="#dbaaa7"/></linearGradient><radialGradient id="radial-gradient-2" cx="24.16" cy="-593.09" r="28.7" xlink:href="#radial-gradient"/><linearGradient id="linear-gradient-2" x1="-15.69" y1="-573.2" x2="0.57" y2="-571.21" xlink:href="#linear-gradient"/><linearGradient id="linear-gradient-3" x1="18.29" y1="-606.97" x2="19.62" y2="-590.09" xlink:href="#linear-gradient"/><radialGradient id="radial-gradient-3" cx="38.72" cy="-579.02" r="28.7" xlink:href="#radial-gradient"/><linearGradient id="linear-gradient-4" x1="33.14" y1="-592.63" x2="34.46" y2="-575.75" xlink:href="#linear-gradient"/><linearGradient id="linear-gradient-5" x1="-34.15" y1="-606.97" x2="-32.83" y2="-590.09" xlink:href="#linear-gradient"/><radialGradient id="radial-gradient-4" cx="53.28" cy="-564.95" r="28.7" xlink:href="#radial-gradient"/><linearGradient id="linear-gradient-6" x1="47.98" y1="-578.29" x2="49.3" y2="-561.41" xlink:href="#linear-gradient"/><linearGradient id="linear-gradient-7" x1="62.82" y1="-563.95" x2="64.15" y2="-547.07" xlink:href="#linear-gradient"/><radialGradient id="radial-gradient-5" cx="38.72" cy="-630.49" r="28.7" xlink:href="#radial-gradient"/><radialGradient id="radial-gradient-6" cx="53.28" cy="-616.42" r="28.7" xlink:href="#radial-gradient"/></defs><title>block-15</title><rect class="cls-1" x="14.59" y="67.54" width="51.93" height="51.94"/><path class="cls-2" d="M66.27,67.79v51.44H14.84V67.79H66.27m.5-.5H14.34v52.44H66.77V67.29Z"/><polygon class="cls-3" points="14.45 67.04 0.59 52.7 52.32 52.7 66.19 67.04 14.45 67.04"/><path class="cls-2" d="M52.22,52.95,65.6,66.79h-51L1.18,52.95h51m.21-.5H0L14.34,67.29H66.77L52.43,52.45Z"/><polygon class="cls-4" points="0.25 104.79 0.25 53.06 14.09 67.39 14.09 119.12 0.25 104.79"/><path class="cls-2" d="M.5,53.68,13.84,67.49v51L.5,104.69v-51M0,52.45v52.44l14.34,14.84V67.29L0,52.45Z"/><rect class="cls-5" x="67.04" y="67.54" width="51.93" height="51.94"/><path class="cls-2" d="M118.72,67.79v51.44H67.29V67.79h51.43m.5-.5H66.79v52.44h52.43V67.29Z"/><polygon class="cls-6" points="66.9 67.04 53.04 52.7 104.78 52.7 118.64 67.04 66.9 67.04"/><path class="cls-2" d="M104.67,52.95,118,66.79H67L53.63,52.95h51m.21-.5H52.45L66.79,67.29h52.43L104.88,52.45Z"/><polygon class="cls-7" points="52.7 104.79 52.7 53.06 66.55 67.39 66.55 119.12 52.7 104.79"/><path class="cls-2" d="M53,53.68,66.29,67.49v51L53,104.69v-51m-.5-1.24v52.44l14.34,14.84V67.29L52.45,52.45Z"/><rect class="cls-8" x="81.39" y="82.38" width="51.93" height="51.94"/><path class="cls-2" d="M133.07,82.63v51.44H81.64V82.63h51.43m.5-.5H81.14v52.44h52.43V82.13Z"/><polygon class="cls-9" points="81.24 81.88 67.38 67.54 119.11 67.54 132.98 81.88 81.24 81.88"/><path class="cls-2" d="M119,67.79l13.38,13.84h-51L68,67.79h51m.21-.5H66.79L81.14,82.13h52.43L119.22,67.29Z"/><polygon class="cls-10" points="67.04 119.63 67.04 67.91 80.89 82.23 80.89 133.96 67.04 119.63"/><path class="cls-2" d="M67.29,68.53,80.64,82.33v51L67.29,119.53v-51m-.5-1.24v52.44l14.34,14.84V82.13L66.79,67.29Z"/><rect class="cls-11" x="67.04" y="15.09" width="51.93" height="51.94"/><path class="cls-2" d="M118.72,15.34V66.79H67.29V15.34h51.43m.5-.5H66.79V67.29h52.43V14.84Z"/><polygon class="cls-9" points="66.9 14.59 53.04 0.25 104.78 0.25 118.64 14.59 66.9 14.59"/><path class="cls-2" d="M104.67.5,118,14.34H67L53.63.5h51m.21-.5H52.45L66.79,14.84h52.43L104.88,0Z"/><polygon class="cls-12" points="52.7 52.34 52.7 0.62 66.55 14.94 66.55 66.67 52.7 52.34"/><path class="cls-2" d="M53,1.24,66.29,15v51L53,52.24v-51M52.45,0V52.44L66.79,67.29V14.84L52.45,0Z"/><rect class="cls-13" x="95.73" y="97.22" width="51.93" height="51.94"/><path class="cls-2" d="M147.41,97.47v51.44H96V97.47h51.43m.5-.5H95.48v52.44h52.43V97Z"/><polygon class="cls-9" points="95.58 96.72 81.72 82.38 133.46 82.38 147.32 96.72 95.58 96.72"/><path class="cls-2" d="M133.35,82.63l13.38,13.84h-51L82.31,82.63h51m.21-.5H81.13L95.48,97h52.43L133.56,82.13Z"/><polygon class="cls-14" points="81.38 134.48 81.38 82.75 95.23 97.08 95.23 148.8 81.38 134.48"/><path class="cls-2" d="M81.63,83.37,95,97.18v51L81.63,134.37v-51m-.5-1.24v52.44l14.34,14.84V97L81.13,82.13Z"/><rect class="cls-11" x="110.07" y="112.07" width="51.93" height="51.94"/><path class="cls-2" d="M161.75,112.32v51.44H110.32V112.32h51.43m.5-.5H109.82v52.44h52.43V111.82Z"/><polygon class="cls-9" points="109.92 111.57 96.06 97.22 147.8 97.22 161.66 111.57 109.92 111.57"/><path class="cls-2" d="M147.69,97.47l13.38,13.84H110L96.65,97.47h51m.21-.5H95.47l14.34,14.84h52.43L147.9,97Z"/><polygon class="cls-15" points="95.72 149.32 95.72 97.59 109.57 111.92 109.57 163.64 95.72 149.32"/><path class="cls-2" d="M96,98.21,109.32,112v51L96,149.22v-51M95.47,97v52.44l14.34,14.84V111.82L95.47,97Z"/><rect class="cls-16" x="28.94" y="82.38" width="51.93" height="51.94"/><path class="cls-2" d="M80.62,82.63v51.44H29.19V82.63H80.62m.5-.5H28.69v52.44H81.12V82.13Z"/><polygon class="cls-9" points="28.79 81.88 14.93 67.54 66.67 67.54 80.53 81.88 28.79 81.88"/><path class="cls-2" d="M66.56,67.79,79.94,81.63h-51L15.52,67.79h51m.21-.5H14.34L28.69,82.13H81.12L66.77,67.29Z"/><polygon class="cls-4" points="14.59 119.63 14.59 67.91 28.43 82.23 28.43 133.96 14.59 119.63"/><path class="cls-2" d="M14.84,68.53,28.19,82.33v51L14.84,119.53v-51m-.5-1.24v52.44l14.34,14.84V82.13L14.34,67.29Z"/><rect class="cls-11" x="14.59" y="15.09" width="51.93" height="51.94"/><path class="cls-2" d="M66.27,15.34V66.79H14.84V15.34H66.27m.5-.5H14.34V67.29H66.77V14.84Z"/><polygon class="cls-9" points="14.45 14.59 0.59 0.25 52.32 0.25 66.19 14.59 14.45 14.59"/><path class="cls-2" d="M52.22.5,65.6,14.34h-51L1.18.5h51m.21-.5H0L14.34,14.84H66.77L52.43,0Z"/><polygon class="cls-4" points="0.25 52.34 0.25 0.62 14.09 14.94 14.09 66.67 0.25 52.34"/><path class="cls-2" d="M.5,1.24,13.84,15v51L.5,52.24v-51M0,0V52.44L14.34,67.29V14.84L0,0Z"/><rect class="cls-17" x="43.28" y="97.22" width="51.93" height="51.94"/><path class="cls-2" d="M95,97.47v51.44H43.53V97.47H95m.5-.5H43v52.44H95.46V97Z"/><polygon class="cls-9" points="43.13 96.72 29.27 82.38 81.01 82.38 94.87 96.72 43.13 96.72"/><path class="cls-2" d="M80.9,82.63,94.28,96.47h-51L29.86,82.63h51m.21-.5H28.68L43,97H95.46L81.11,82.13Z"/><polygon class="cls-4" points="28.93 134.48 28.93 82.75 42.78 97.08 42.78 148.8 28.93 134.48"/><path class="cls-2" d="M29.18,83.37,42.53,97.18v51L29.18,134.37v-51m-.5-1.24v52.44L43,149.42V97L28.68,82.13Z"/><rect class="cls-11" x="57.62" y="112.07" width="51.93" height="51.94"/><path class="cls-2" d="M109.3,112.32v51.44H57.87V112.32H109.3m.5-.5H57.37v52.44H109.8V111.82Z"/><polygon class="cls-9" points="57.47 111.57 43.61 97.22 95.35 97.22 109.21 111.57 57.47 111.57"/><path class="cls-2" d="M95.24,97.47l13.38,13.84h-51L44.2,97.47h51m.21-.5H43l14.34,14.84H109.8L95.45,97Z"/><polygon class="cls-4" points="43.27 149.32 43.27 97.59 57.12 111.92 57.12 163.64 43.27 149.32"/><path class="cls-2" d="M43.52,98.21,56.87,112v51L43.52,149.22v-51M43,97v52.44l14.34,14.84V111.82L43,97Z"/></svg>