<svg id="Layer_1" data-name="Layer 1" xmlns="http://www.w3.org/2000/svg" xmlns:xlink="http://www.w3.org/1999/xlink" viewBox="0 0 133.54 134.58"><defs><style>.cls-1{fill:url(#radial-gradient);}.cls-2{fill:#005e80;}.cls-3{fill:url(#linear-gradient);}.cls-4{fill:url(#linear-gradient-2);}.cls-5{fill:url(#radial-gradient-2);}.cls-6{fill:url(#linear-gradient-3);}.cls-7{fill:#0091d9;}.cls-8{fill:url(#radial-gradient-3);}.cls-9{fill:#0078b5;}.cls-10{fill:url(#linear-gradient-4);}.cls-11{fill:url(#radial-gradient-4);}.cls-12{fill:#16aaf2;}.cls-13{fill:url(#linear-gradient-5);}.cls-14{fill:url(#linear-gradient-6);}.cls-15{fill:url(#linear-gradient-7);}.cls-16{fill:url(#linear-gradient-8);}</style><radialGradient id="radial-gradient" cx="24.35" cy="-491.01" r="28.7" gradientTransform="translate(-459.73 68.68) rotate(90) scale(1.02 1.02)" gradientUnits="userSpaceOnUse"><stop offset="0" stop-color="#29aad8"/><stop offset="1" stop-color="#2990ce"/></radialGradient><linearGradient id="linear-gradient" x1="-15.21" y1="-468.89" x2="1.05" y2="-466.9" gradientTransform="translate(-420.12 66.63) rotate(90)" gradientUnits="userSpaceOnUse"><stop offset="0" stop-color="#299bdb"/><stop offset="0.44" stop-color="#29a4d9"/><stop offset="1" stop-color="#29aad8"/></linearGradient><linearGradient id="linear-gradient-2" x1="18.77" y1="-502.66" x2="20.09" y2="-485.78" xlink:href="#linear-gradient"/><radialGradient id="radial-gradient-2" cx="24.35" cy="-542.45" r="28.7" xlink:href="#radial-gradient"/><linearGradient id="linear-gradient-3" x1="-15.21" y1="-521.31" x2="1.05" y2="-519.32" xlink:href="#linear-gradient"/><radialGradient id="radial-gradient-3" cx="-27.09" cy="-491.01" r="28.7" xlink:href="#radial-gradient"/><linearGradient id="linear-gradient-4" x1="-33.66" y1="-502.66" x2="-32.34" y2="-485.78" xlink:href="#linear-gradient"/><radialGradient id="radial-gradient-4" cx="-27.09" cy="-542.45" r="28.7" xlink:href="#radial-gradient"/><linearGradient id="linear-gradient-5" x1="-0.36" y1="-454.54" x2="15.9" y2="-452.55" xlink:href="#linear-gradient"/><linearGradient id="linear-gradient-6" x1="33.63" y1="-488.31" x2="34.95" y2="-471.43" xlink:href="#linear-gradient"/><linearGradient id="linear-gradient-7" x1="-0.36" y1="-506.96" x2="15.9" y2="-504.97" xlink:href="#linear-gradient"/><linearGradient id="linear-gradient-8" x1="-18.81" y1="-488.31" x2="-17.49" y2="-471.43" xlink:href="#linear-gradient"/></defs><title>block-4</title><rect class="cls-1" x="14.6" y="67.53" width="51.93" height="51.94"/><path class="cls-2" d="M66.28,67.78v51.44H14.85V67.78H66.28m.5-.5H14.35v52.44H66.78V67.28Z"/><polygon class="cls-3" points="14.94 67.03 28.8 52.68 80.53 52.68 66.67 67.03 14.94 67.03"/><path class="cls-2" d="M79.95,52.93,66.57,66.78h-51L28.91,52.93h51m1.18-.5H28.69L14.35,67.28H66.78L81.12,52.43Z"/><polygon class="cls-4" points="67.03 67.38 80.87 53.05 80.87 104.78 67.03 119.1 67.03 67.38"/><path class="cls-2" d="M80.62,53.67v51L67.28,118.48v-51L80.62,53.67m.5-1.24L66.78,67.28v52.44l14.34-14.84V52.43Z"/><rect class="cls-5" x="67.02" y="67.53" width="51.93" height="51.94"/><path class="cls-2" d="M118.7,67.78v51.44H67.27V67.78H118.7m.5-.5H66.77v52.44H119.2V67.28Z"/><polygon class="cls-6" points="67.36 67.03 81.22 52.68 132.95 52.68 119.09 67.03 67.36 67.03"/><path class="cls-2" d="M132.36,52.93,119,66.78h-51L81.32,52.93h51m1.18-.5H81.11L66.77,67.28H119.2l14.34-14.84Z"/><polygon class="cls-7" points="119.45 67.38 133.29 53.05 133.29 104.78 119.45 119.1 119.45 67.38"/><path class="cls-2" d="M133,53.67v51L119.7,118.48v-51L133,53.67m.5-1.24L119.2,67.28v52.44l14.34-14.84V52.43Z"/><rect class="cls-8" x="14.6" y="15.09" width="51.93" height="51.94"/><path class="cls-2" d="M66.28,15.34V66.79H14.85V15.34H66.28m.5-.5H14.35V67.29H66.78V14.84Z"/><polygon class="cls-9" points="14.94 14.59 28.8 0.25 80.53 0.25 66.67 14.59 14.94 14.59"/><path class="cls-2" d="M79.95.5,66.57,14.34h-51L28.91.5h51M81.12,0H28.69L14.35,14.84H66.78L81.12,0Z"/><polygon class="cls-10" points="67.03 14.94 80.87 0.62 80.87 52.34 67.03 66.67 67.03 14.94"/><path class="cls-2" d="M80.62,1.24v51L67.28,66.05V15L80.62,1.24M81.12,0,66.78,14.84V67.29L81.12,52.44V0Z"/><rect class="cls-11" x="67.02" y="15.09" width="51.93" height="51.94"/><path class="cls-2" d="M118.7,15.34V66.79H67.27V15.34H118.7m.5-.5H66.77V67.29H119.2V14.84Z"/><polygon class="cls-9" points="67.36 14.59 81.22 0.25 132.95 0.25 119.09 14.59 67.36 14.59"/><path class="cls-2" d="M132.36.5,119,14.34h-51L81.32.5h51m1.18-.5H81.11L66.77,14.84H119.2L133.54,0Z"/><polygon class="cls-7" points="119.45 14.94 133.29 0.62 133.29 52.34 119.45 66.67 119.45 14.94"/><path class="cls-2" d="M133,1.24v51L119.7,66.05V15L133,1.24m.5-1.24L119.2,14.84V67.29l14.34-14.84V0Z"/><rect class="cls-12" x="0.25" y="82.38" width="51.93" height="51.94"/><path class="cls-2" d="M51.93,82.63v51.44H.5V82.63H51.93m.5-.5H0v52.44H52.43V82.13Z"/><polygon class="cls-13" points="0.59 81.88 14.45 67.54 66.19 67.54 52.32 81.88 0.59 81.88"/><path class="cls-2" d="M65.6,67.79,52.22,81.63h-51L14.56,67.79h51m1.18-.5H14.34L0,82.13H52.43L66.77,67.29Z"/><polygon class="cls-14" points="52.68 82.23 66.52 67.91 66.52 119.63 52.68 133.96 52.68 82.23"/><path class="cls-2" d="M66.27,68.53v51L52.93,133.34v-51L66.27,68.53m.5-1.24L52.43,82.13v52.44l14.34-14.84V67.29Z"/><rect class="cls-12" x="52.67" y="82.38" width="51.93" height="51.94"/><path class="cls-2" d="M104.35,82.63v51.44H52.92V82.63h51.43m.5-.5H52.42v52.44h52.43V82.13Z"/><polygon class="cls-15" points="53.01 81.88 66.87 67.54 118.6 67.54 104.74 81.88 53.01 81.88"/><path class="cls-2" d="M118,67.79,104.64,81.63h-51L67,67.79h51m1.18-.5H66.76L52.42,82.13h52.43l14.34-14.84Z"/><polygon class="cls-7" points="105.1 82.23 118.94 67.91 118.94 119.63 105.1 133.96 105.1 82.23"/><path class="cls-2" d="M118.69,68.53v51l-13.34,13.81v-51l13.34-13.81m.5-1.24L104.85,82.13v52.44l14.34-14.84V67.29Z"/><rect class="cls-12" x="0.25" y="29.95" width="51.93" height="51.94"/><path class="cls-2" d="M51.93,30.2V81.64H.5V30.2H51.93m.5-.5H0V82.14H52.43V29.7Z"/><polygon class="cls-9" points="0.59 29.45 14.45 15.1 66.19 15.1 52.32 29.45 0.59 29.45"/><path class="cls-2" d="M65.6,15.35,52.22,29.2h-51L14.56,15.35h51m1.18-.5H14.34L0,29.7H52.43L66.77,14.85Z"/><polygon class="cls-16" points="52.68 29.8 66.52 15.47 66.52 67.2 52.68 81.52 52.68 29.8"/><path class="cls-2" d="M66.27,16.09v51L52.93,80.9v-51L66.27,16.09m.5-1.24L52.43,29.7V82.14L66.77,67.3V14.85Z"/><rect class="cls-12" x="52.67" y="29.95" width="51.93" height="51.94"/><path class="cls-2" d="M104.35,30.2V81.64H52.92V30.2h51.43m.5-.5H52.42V82.14h52.43V29.7Z"/><polygon class="cls-9" points="53.01 29.45 66.87 15.1 118.6 15.1 104.74 29.45 53.01 29.45"/><path class="cls-2" d="M118,15.35,104.64,29.2h-51L67,15.35h51m1.18-.5H66.76L52.42,29.7h52.43l14.34-14.84Z"/><polygon class="cls-7" points="105.1 29.8 118.94 15.47 118.94 67.2 105.1 81.52 105.1 29.8"/><path class="cls-2" d="M118.69,16.09v51L105.35,80.9v-51l13.34-13.81m.5-1.24L104.85,29.7V82.14L119.19,67.3V14.85Z"/></svg>