<svg xmlns="http://www.w3.org/2000/svg" xmlns:xlink="http://www.w3.org/1999/xlink" viewBox="0 0 23.16 188.9"><defs><style>.cls-1{isolation:isolate;}.cls-2{opacity:0.22;mix-blend-mode:multiply;}.cls-3{fill:#005921;}.cls-4{fill:url(#radial-gradient);}.cls-5{fill:url(#linear-gradient);}.cls-6{fill:url(#linear-gradient-2);}.cls-7{fill:#334c3d;}.cls-8{fill:url(#radial-gradient-2);}.cls-9{fill:url(#linear-gradient-3);}.cls-10{fill:url(#linear-gradient-4);}.cls-11{fill:url(#radial-gradient-3);}.cls-12{fill:url(#linear-gradient-5);}.cls-13{fill:url(#linear-gradient-6);}.cls-14,.cls-15,.cls-16,.cls-17,.cls-18,.cls-19,.cls-20,.cls-21,.cls-22,.cls-23,.cls-24,.cls-25,.cls-26,.cls-27,.cls-28,.cls-29,.cls-30,.cls-31,.cls-32,.cls-33,.cls-34,.cls-35,.cls-36,.cls-37,.cls-38,.cls-39,.cls-40,.cls-41,.cls-42,.cls-43,.cls-44,.cls-45,.cls-46,.cls-47,.cls-48,.cls-49,.cls-50,.cls-51,.cls-52,.cls-53,.cls-54,.cls-55,.cls-56,.cls-57,.cls-58,.cls-59,.cls-60,.cls-61,.cls-62,.cls-63,.cls-64,.cls-65{fill:#171900;}.cls-14{opacity:0;}.cls-15{opacity:0.02;}.cls-16{opacity:0.04;}.cls-17{opacity:0.06;}.cls-18{opacity:0.08;}.cls-19{opacity:0.1;}.cls-20{opacity:0.12;}.cls-21{opacity:0.14;}.cls-22{opacity:0.16;}.cls-23{opacity:0.18;}.cls-24{opacity:0.2;}.cls-25{opacity:0.22;}.cls-26{opacity:0.24;}.cls-27{opacity:0.25;}.cls-28{opacity:0.27;}.cls-29{opacity:0.29;}.cls-30{opacity:0.31;}.cls-31{opacity:0.33;}.cls-32{opacity:0.35;}.cls-33{opacity:0.37;}.cls-34{opacity:0.39;}.cls-35{opacity:0.41;}.cls-36{opacity:0.43;}.cls-37{opacity:0.45;}.cls-38{opacity:0.47;}.cls-39{opacity:0.49;}.cls-40{opacity:0.51;}.cls-41{opacity:0.53;}.cls-42{opacity:0.55;}.cls-43{opacity:0.57;}.cls-44{opacity:0.59;}.cls-45{opacity:0.61;}.cls-46{opacity:0.63;}.cls-47{opacity:0.65;}.cls-48{opacity:0.67;}.cls-49{opacity:0.69;}.cls-50{opacity:0.71;}.cls-51{opacity:0.73;}.cls-52{opacity:0.75;}.cls-53{opacity:0.76;}.cls-54{opacity:0.78;}.cls-55{opacity:0.8;}.cls-56{opacity:0.82;}.cls-57{opacity:0.84;}.cls-58{opacity:0.86;}.cls-59{opacity:0.88;}.cls-60{opacity:0.9;}.cls-61{opacity:0.92;}.cls-62{opacity:0.94;}.cls-63{opacity:0.96;}.cls-64{opacity:0.98;}.cls-66{fill:url(#radial-gradient-4);}.cls-67{fill:url(#linear-gradient-7);}.cls-68{fill:url(#linear-gradient-8);}.cls-69{fill:#0033bf;}.cls-70{fill:url(#radial-gradient-5);}.cls-71{fill:url(#linear-gradient-9);}.cls-72{fill:url(#linear-gradient-10);}.cls-73{fill:url(#radial-gradient-6);}.cls-74{fill:url(#linear-gradient-11);}.cls-75{fill:url(#linear-gradient-12);}.cls-76{fill:#170054;}.cls-77{fill:url(#radial-gradient-7);}.cls-78{fill:url(#linear-gradient-13);}.cls-79{fill:url(#linear-gradient-14);}.cls-80{fill:url(#radial-gradient-8);}.cls-81{fill:url(#linear-gradient-15);}.cls-82{fill:url(#linear-gradient-16);}.cls-83{fill:url(#radial-gradient-9);}.cls-84{fill:url(#linear-gradient-17);}.cls-85{fill:url(#linear-gradient-18);}.cls-86{fill:url(#radial-gradient-10);}.cls-87{fill:url(#linear-gradient-19);}.cls-88{fill:url(#linear-gradient-20);}</style><radialGradient id="radial-gradient" cx="355.5" cy="-127.65" r="12.88" gradientTransform="translate(-122.28 -177.58) rotate(90) scale(1.01 1.03)" gradientUnits="userSpaceOnUse"><stop offset="0" stop-color="#afce22"/><stop offset="1" stop-color="#81bf2e"/></radialGradient><linearGradient id="linear-gradient" x1="341.19" y1="-130.79" x2="346.9" y2="-130.09" gradientTransform="translate(-118.85 -175.55) rotate(90)" gradientUnits="userSpaceOnUse"><stop offset="0" stop-color="#81bf2e"/><stop offset="0.36" stop-color="#98c728"/><stop offset="0.72" stop-color="#a9cc24"/><stop offset="1" stop-color="#afce22"/></linearGradient><linearGradient id="linear-gradient-2" x1="352.8" y1="-142.57" x2="353.27" y2="-136.57" xlink:href="#linear-gradient"/><radialGradient id="radial-gradient-2" cx="337.16" cy="-127.65" r="12.88" gradientTransform="translate(-122.28 -177.58) rotate(90) scale(1.01 1.03)" gradientUnits="userSpaceOnUse"><stop offset="0" stop-color="#ffc13e"/><stop offset="1" stop-color="#ecb24a"/></radialGradient><linearGradient id="linear-gradient-3" x1="322.73" y1="-130.79" x2="328.45" y2="-130.09" gradientTransform="translate(-118.85 -175.55) rotate(90)" gradientUnits="userSpaceOnUse"><stop offset="0" stop-color="#ecb24a"/><stop offset="0.52" stop-color="#f9bc42"/><stop offset="1" stop-color="#ffc13e"/></linearGradient><linearGradient id="linear-gradient-4" x1="334.35" y1="-142.57" x2="334.82" y2="-136.57" xlink:href="#linear-gradient-3"/><radialGradient id="radial-gradient-3" cx="318.81" cy="-127.65" r="12.88" gradientTransform="translate(-122.28 -177.58) rotate(90) scale(1.01 1.03)" gradientUnits="userSpaceOnUse"><stop offset="0" stop-color="#f175b1"/><stop offset="1" stop-color="#c366bd"/></radialGradient><linearGradient id="linear-gradient-5" x1="304.28" y1="-130.79" x2="309.99" y2="-130.09" gradientTransform="translate(-118.85 -175.55) rotate(90)" gradientUnits="userSpaceOnUse"><stop offset="0" stop-color="#c366bd"/><stop offset="0.36" stop-color="#da6eb7"/><stop offset="0.72" stop-color="#eb73b3"/><stop offset="1" stop-color="#f175b1"/></linearGradient><linearGradient id="linear-gradient-6" x1="315.89" y1="-142.57" x2="316.36" y2="-136.57" xlink:href="#linear-gradient-5"/><radialGradient id="radial-gradient-4" cx="300.46" cy="-127.65" r="12.88" gradientTransform="translate(-122.28 -177.58) rotate(90) scale(1.01 1.03)" gradientUnits="userSpaceOnUse"><stop offset="0" stop-color="#fe6300"/><stop offset="1" stop-color="#d05400"/></radialGradient><linearGradient id="linear-gradient-7" x1="285.82" y1="-130.79" x2="291.54" y2="-130.09" gradientTransform="translate(-118.85 -175.55) rotate(90)" gradientUnits="userSpaceOnUse"><stop offset="0" stop-color="#d05400"/><stop offset="0.36" stop-color="#e75c00"/><stop offset="0.72" stop-color="#f86100"/><stop offset="1" stop-color="#fe6300"/></linearGradient><linearGradient id="linear-gradient-8" x1="297.44" y1="-142.57" x2="297.91" y2="-136.57" xlink:href="#linear-gradient-7"/><radialGradient id="radial-gradient-5" cx="282.12" cy="-127.65" r="12.88" gradientTransform="translate(-122.28 -177.58) rotate(90) scale(1.01 1.03)" gradientUnits="userSpaceOnUse"><stop offset="0" stop-color="#00a3bf"/><stop offset="1" stop-color="#0089b5"/></radialGradient><linearGradient id="linear-gradient-9" x1="267.37" y1="-130.79" x2="273.09" y2="-130.09" gradientTransform="translate(-118.85 -175.55) rotate(90)" gradientUnits="userSpaceOnUse"><stop offset="0" stop-color="#0094c2"/><stop offset="0.44" stop-color="#009dc0"/><stop offset="1" stop-color="#00a3bf"/></linearGradient><linearGradient id="linear-gradient-10" x1="278.98" y1="-142.57" x2="279.45" y2="-136.57" xlink:href="#linear-gradient-9"/><radialGradient id="radial-gradient-6" cx="263.77" cy="-127.65" r="12.88" xlink:href="#radial-gradient-2"/><linearGradient id="linear-gradient-11" x1="248.91" y1="-130.79" x2="254.63" y2="-130.09" xlink:href="#linear-gradient-3"/><linearGradient id="linear-gradient-12" x1="260.53" y1="-142.57" x2="261" y2="-136.57" xlink:href="#linear-gradient-3"/><radialGradient id="radial-gradient-7" cx="245.42" cy="-127.65" r="12.88" gradientTransform="translate(-122.28 -177.58) rotate(90) scale(1.01 1.03)" gradientUnits="userSpaceOnUse"><stop offset="0" stop-color="#fe4a55"/><stop offset="1" stop-color="#d03b61"/></radialGradient><linearGradient id="linear-gradient-13" x1="230.46" y1="-130.79" x2="236.18" y2="-130.09" gradientTransform="translate(-118.85 -175.55) rotate(90)" gradientUnits="userSpaceOnUse"><stop offset="0" stop-color="#d03b61"/><stop offset="0.36" stop-color="#e7435b"/><stop offset="0.72" stop-color="#f84857"/><stop offset="1" stop-color="#fe4a55"/></linearGradient><linearGradient id="linear-gradient-14" x1="242.07" y1="-142.57" x2="242.54" y2="-136.57" xlink:href="#linear-gradient-13"/><radialGradient id="radial-gradient-8" cx="227.07" cy="-127.65" r="12.88" xlink:href="#radial-gradient"/><linearGradient id="linear-gradient-15" x1="212.01" y1="-130.79" x2="217.72" y2="-130.09" xlink:href="#linear-gradient"/><linearGradient id="linear-gradient-16" x1="223.62" y1="-142.57" x2="224.09" y2="-136.57" xlink:href="#linear-gradient"/><radialGradient id="radial-gradient-9" cx="208.73" cy="-127.65" r="12.88" xlink:href="#radial-gradient-7"/><linearGradient id="linear-gradient-17" x1="193.55" y1="-130.79" x2="199.27" y2="-130.09" xlink:href="#linear-gradient-13"/><linearGradient id="linear-gradient-18" x1="205.16" y1="-142.57" x2="205.63" y2="-136.57" xlink:href="#linear-gradient-13"/><radialGradient id="radial-gradient-10" cx="190.38" cy="-127.65" r="12.88" xlink:href="#radial-gradient-3"/><linearGradient id="linear-gradient-19" x1="175.1" y1="-130.79" x2="180.81" y2="-130.09" xlink:href="#linear-gradient-5"/><linearGradient id="linear-gradient-20" x1="186.71" y1="-142.57" x2="187.18" y2="-136.57" xlink:href="#linear-gradient-5"/></defs><title>blocks</title><g class="cls-1"><g id="Layer_1" data-name="Layer 1"><g class="cls-2"><polygon class="cls-3" points="0 171.12 6.02 164.79 6.02 166.09 5.31 166.09 0 171.12"/></g><rect class="cls-4" y="171.12" width="18.19" height="17.78"/><polygon class="cls-5" points="4.98 166.09 0 171.12 18.19 171.12 23.16 166.09 4.98 166.09"/><polygon class="cls-6" points="23.16 166.09 18.19 171.12 18.19 188.9 23.16 183.87 23.16 166.09"/><g class="cls-2"><polygon class="cls-7" points="0 152.67 6.02 146.33 6.02 147.64 5.31 147.64 0 152.67"/></g><rect class="cls-8" y="152.67" width="18.19" height="17.78"/><polygon class="cls-9" points="4.98 147.64 0 152.67 18.19 152.67 23.16 147.64 4.98 147.64"/><polygon class="cls-10" points="23.16 147.64 18.19 152.67 18.19 170.44 23.16 165.41 23.16 147.64"/><rect class="cls-11" y="134.21" width="18.19" height="17.78"/><polygon class="cls-12" points="4.98 129.18 0 134.21 18.19 134.21 23.16 129.18 4.98 129.18"/><polygon class="cls-13" points="23.16 129.18 18.19 134.21 18.19 151.99 23.16 146.96 23.16 129.18"/><g class="cls-2"><polygon class="cls-14" points="0 115.76 8.01 103.79 8.01 110.73 5.31 110.73 0 115.76"/><polygon class="cls-15" points="0 115.76 7.97 103.9 7.97 110.73 5.31 110.73 0 115.76"/><polygon class="cls-16" points="0 115.76 7.93 104.01 7.93 110.73 5.31 110.73 0 115.76"/><polygon class="cls-17" points="0 115.76 7.89 104.12 7.89 110.73 5.31 110.73 0 115.76"/><polygon class="cls-18" points="0 115.76 7.86 104.23 7.86 110.73 5.31 110.73 0 115.76"/><polygon class="cls-19" points="0 115.76 7.82 104.34 7.82 110.73 5.31 110.73 0 115.76"/><polygon class="cls-20" points="0 115.76 7.78 104.45 7.78 110.73 5.31 110.73 0 115.76"/><polygon class="cls-21" points="0 115.76 7.74 104.56 7.74 110.73 5.31 110.73 0 115.76"/><polygon class="cls-22" points="0 115.76 7.7 104.67 7.7 110.73 5.31 110.73 0 115.76"/><polygon class="cls-23" points="0 115.76 7.66 104.78 7.66 110.73 5.31 110.73 0 115.76"/><polygon class="cls-24" points="0 115.76 7.62 104.9 7.62 110.73 5.31 110.73 0 115.76"/><polygon class="cls-25" points="0 115.76 7.58 105.01 7.58 110.73 5.31 110.73 0 115.76"/><polygon class="cls-26" points="0 115.76 7.54 105.12 7.54 110.73 5.31 110.73 0 115.76"/><polygon class="cls-27" points="0 115.76 7.5 105.23 7.5 110.73 5.31 110.73 0 115.76"/><polygon class="cls-28" points="0 115.76 7.46 105.34 7.46 110.73 5.31 110.73 0 115.76"/><polygon class="cls-29" points="0 115.76 7.43 105.45 7.43 110.73 5.31 110.73 0 115.76"/><polygon class="cls-30" points="0 115.76 7.39 105.56 7.39 110.73 5.31 110.73 0 115.76"/><polygon class="cls-31" points="0 115.76 7.35 105.67 7.35 110.73 5.31 110.73 0 115.76"/><polygon class="cls-32" points="0 115.76 7.31 105.78 7.31 110.73 5.31 110.73 0 115.76"/><polygon class="cls-33" points="0 115.76 7.27 105.89 7.27 110.73 5.31 110.73 0 115.76"/><polygon class="cls-34" points="0 115.76 7.23 106 7.23 110.73 5.31 110.73 0 115.76"/><polygon class="cls-35" points="0 115.76 7.19 106.11 7.19 110.73 5.31 110.73 0 115.76"/><polygon class="cls-36" points="0 115.76 7.15 106.22 7.15 110.73 5.31 110.73 0 115.76"/><polygon class="cls-37" points="0 115.76 7.11 106.33 7.11 110.73 5.31 110.73 0 115.76"/><polygon class="cls-38" points="0 115.76 7.07 106.44 7.07 110.73 5.31 110.73 0 115.76"/><polygon class="cls-39" points="0 115.76 7.04 106.55 7.04 110.73 5.31 110.73 0 115.76"/><polygon class="cls-40" points="0 115.76 7 106.66 7 110.73 5.31 110.73 0 115.76"/><polygon class="cls-41" points="0 115.76 6.96 106.77 6.96 110.73 5.31 110.73 0 115.76"/><polygon class="cls-42" points="0 115.76 6.92 106.88 6.92 110.73 5.31 110.73 0 115.76"/><polygon class="cls-43" points="0 115.76 6.88 106.99 6.88 110.73 5.31 110.73 0 115.76"/><polygon class="cls-44" points="0 115.76 6.84 107.1 6.84 110.73 5.31 110.73 0 115.76"/><polygon class="cls-45" points="0 115.76 6.8 107.22 6.8 110.73 5.31 110.73 0 115.76"/><polygon class="cls-46" points="0 115.76 6.76 107.33 6.76 110.73 5.31 110.73 0 115.76"/><polygon class="cls-47" points="0 115.76 6.72 107.44 6.72 110.73 5.31 110.73 0 115.76"/><polygon class="cls-48" points="0 115.76 6.68 107.55 6.68 110.73 5.31 110.73 0 115.76"/><polygon class="cls-49" points="0 115.76 6.64 107.66 6.64 110.73 5.31 110.73 0 115.76"/><polygon class="cls-50" points="0 115.76 6.61 107.77 6.61 110.73 5.31 110.73 0 115.76"/><polygon class="cls-51" points="0 115.76 6.57 107.88 6.57 110.73 5.31 110.73 0 115.76"/><polygon class="cls-52" points="0 115.76 6.53 107.99 6.53 110.73 5.31 110.73 0 115.76"/><polygon class="cls-53" points="0 115.76 6.49 108.1 6.49 110.73 5.31 110.73 0 115.76"/><polygon class="cls-54" points="0 115.76 6.45 108.21 6.45 110.73 5.31 110.73 0 115.76"/><polygon class="cls-55" points="0 115.76 6.41 108.32 6.41 110.73 5.31 110.73 0 115.76"/><polygon class="cls-56" points="0 115.76 6.37 108.43 6.37 110.73 5.31 110.73 0 115.76"/><polygon class="cls-57" points="0 115.76 6.33 108.54 6.33 110.73 5.31 110.73 0 115.76"/><polygon class="cls-58" points="0 115.76 6.29 108.65 6.29 110.73 5.31 110.73 0 115.76"/><polygon class="cls-59" points="0 115.76 6.25 108.76 6.25 110.73 5.31 110.73 0 115.76"/><polygon class="cls-60" points="0 115.76 6.21 108.87 6.21 110.73 5.31 110.73 0 115.76"/><polygon class="cls-61" points="0 115.76 6.17 108.98 6.17 110.73 5.31 110.73 0 115.76"/><polygon class="cls-62" points="0 115.76 6.14 109.09 6.14 110.73 5.31 110.73 0 115.76"/><polygon class="cls-63" points="0 115.76 6.1 109.2 6.1 110.73 5.31 110.73 0 115.76"/><polygon class="cls-64" points="0 115.76 6.06 109.31 6.06 110.73 5.31 110.73 0 115.76"/><polygon class="cls-65" points="0 115.76 6.02 109.42 6.02 110.73 5.31 110.73 0 115.76"/></g><rect class="cls-66" y="115.76" width="18.19" height="17.78"/><polygon class="cls-67" points="4.98 110.73 0 115.76 18.19 115.76 23.16 110.73 4.98 110.73"/><polygon class="cls-68" points="23.16 110.73 18.19 115.76 18.19 133.53 23.16 128.5 23.16 110.73"/><g class="cls-2"><polygon class="cls-69" points="0 97.3 6.02 90.97 6.02 92.27 5.31 92.27 0 97.3"/></g><rect class="cls-70" y="97.3" width="18.19" height="17.78"/><polygon class="cls-71" points="4.98 92.27 0 97.3 18.19 97.3 23.16 92.27 4.98 92.27"/><polygon class="cls-72" points="23.16 92.27 18.19 97.3 18.19 115.08 23.16 110.05 23.16 92.27"/><g class="cls-2"><polygon class="cls-7" points="0 78.85 6.02 72.51 6.02 73.82 5.31 73.82 0 78.85"/></g><rect class="cls-73" y="78.85" width="18.19" height="17.78"/><polygon class="cls-74" points="4.98 73.82 0 78.85 18.19 78.85 23.16 73.82 4.98 73.82"/><polygon class="cls-75" points="23.16 73.82 18.19 78.85 18.19 96.63 23.16 91.59 23.16 73.82"/><g class="cls-2"><polygon class="cls-76" points="0 60.4 6.02 54.06 6.02 55.36 5.31 55.36 0 60.4"/></g><rect class="cls-77" y="60.39" width="18.19" height="17.78"/><polygon class="cls-78" points="4.98 55.36 0 60.4 18.19 60.4 23.16 55.36 4.98 55.36"/><polygon class="cls-79" points="23.16 55.36 18.19 60.4 18.19 78.17 23.16 73.14 23.16 55.36"/><g class="cls-2"><polygon class="cls-3" points="0 41.94 6.02 35.6 6.02 36.91 5.31 36.91 0 41.94"/></g><rect class="cls-80" y="41.94" width="18.19" height="17.78"/><polygon class="cls-81" points="4.98 36.91 0 41.94 18.19 41.94 23.16 36.91 4.98 36.91"/><polygon class="cls-82" points="23.16 36.91 18.19 41.94 18.19 59.72 23.16 54.69 23.16 36.91"/><g class="cls-2"><polygon class="cls-76" points="0 23.49 6.02 17.15 6.02 18.45 5.31 18.45 0 23.49"/></g><rect class="cls-83" y="23.49" width="18.19" height="17.78"/><polygon class="cls-84" points="4.98 18.45 0 23.49 18.19 23.49 23.16 18.45 4.98 18.45"/><polygon class="cls-85" points="23.16 18.45 18.19 23.49 18.19 41.26 23.16 36.23 23.16 18.45"/><rect class="cls-86" y="5.03" width="18.19" height="17.78"/><polygon class="cls-87" points="4.98 0 0 5.03 18.19 5.03 23.16 0 4.98 0"/><polygon class="cls-88" points="23.16 0 18.19 5.03 18.19 22.81 23.16 17.78 23.16 0"/></g></g></svg>