<svg id="Layer_1" data-name="Layer 1" xmlns="http://www.w3.org/2000/svg" viewBox="0 0 193.66 147.92"><defs><style>.cls-1{fill:#fff;}.cls-2{fill:#0197fd;}.cls-3{fill:none;stroke:#000;stroke-width:1.01px;}</style></defs><title>2</title><g id="g3193"><g id="path3409"><path class="cls-1" d="M140,147.25c-2.72-.52-7.7-3-13.1-6.61a70,70,0,0,1-14.22-12.1c-4-4.39-6.28-8.61-8.12-15.19-2.7-9.64-3.45-18-2.24-24.81a38.9,38.9,0,0,0,.6-4.8V82.31l4.73-.25c5.21-.28,10.11-.87,31.73-3.79,23.07-3.12,22.41-3.08,25.91-1.83,6.13,2.18,11.06,6,13.22,10.38,1,2.06,1.16,2.74,1.16,6.09s-.13,4-1.12,6a13.37,13.37,0,0,1-3.34,4.11c-3,2.49-3.63,3.93-4.35,9.42-.85,6.42-1.69,7.82-6.68,11.13-2.47,1.63-3.09,2.94-3.36,7-.39,6-1.63,7.69-5.32,7.31-3.09-.31-5.11.88-6.5,3.83-2.62,5.57-4.12,6.49-9,5.54Z"/><path d="M142.79,147.92a15.14,15.14,0,0,1-2.82-.32h0c-2.74-.53-7.81-3.08-13.23-6.66a70.08,70.08,0,0,1-14.28-12.16c-4-4.42-6.35-8.72-8.2-15.33-2.72-9.7-3.47-18.1-2.24-25a38.5,38.5,0,0,0,.6-4.74V82l5.07-.27c5.16-.28,10.2-.88,31.7-3.79L141,77.7c21-2.84,21-2.84,24.22-1.68l.25.09c6.21,2.2,11.22,6.15,13.41,10.55,1,2.1,1.19,2.86,1.19,6.25s-.14,4.13-1.15,6.17a13.73,13.73,0,0,1-3.42,4.22c-2.89,2.43-3.52,3.81-4.23,9.2-.86,6.52-1.75,8-6.83,11.37-2.38,1.57-2.95,2.77-3.21,6.73s-.85,5.84-2.08,6.86a4.65,4.65,0,0,1-3.63.77c-2.93-.29-4.82.82-6.14,3.64C147.26,146.33,145.78,147.92,142.79,147.92ZM103.31,82.64v1.1a39.11,39.11,0,0,1-.61,4.86c-1.21,6.76-.46,15.06,2.23,24.66,1.82,6.5,4.08,10.72,8,15.05a69.44,69.44,0,0,0,14.15,12c5.34,3.53,10.31,6,13,6.56h0c4.71.91,6.08.06,8.63-5.35,1.45-3.08,3.63-4.36,6.85-4a4,4,0,0,0,3.11-.61c1-.87,1.59-2.78,1.83-6.37.27-4.15,1-5.57,3.51-7.26,4.9-3.25,5.69-4.57,6.53-10.88.74-5.56,1.45-7.09,4.47-9.63a13,13,0,0,0,3.25-4c1-1.93,1.08-2.58,1.08-5.86S179.25,89,178.25,87c-2.12-4.25-7-8.06-13-10.21l-.25-.09c-3.08-1.1-3.08-1.1-23.89,1.72l-1.61.22c-21.52,2.91-26.57,3.51-31.76,3.79Z"/></g><g id="path3411"><path class="cls-2" d="M151.67,84.58a1.7,1.7,0,0,0-1,.47,11.25,11.25,0,0,1-2.4,2c-.77.38-1.82,2.2-2.28,2.35s-1.89.47-2.1.86c-.66,1.19-1.16,2.88-2.4,3.56A3.67,3.67,0,0,0,139.17,97c-.35,2.46-.22,4.36-2,6.25-1.38,1.44-2.42,3.13-3.82,4.55-1.23,1.25-4.05,2.25-4.91,3.63-1.1,1.77-1.51,4.77-3,6.18-1.81,1.65-2.57,0-3.74.6-1.87.92-3.61,3.38-5.74,4.33s-4.2-1.22-5.88-.61a9.8,9.8,0,0,0-1.65.8,33.24,33.24,0,0,0,4.36,5.85A68.91,68.91,0,0,0,125,139.34c.55-1.26,1-2.54,2.46-2.92A7.79,7.79,0,0,0,131,135a8.1,8.1,0,0,1,3-1.59c1.09-.47,1.66-2.07,2.36-2.39a12.39,12.39,0,0,0,2.48-.81c.48-.52,1.18-2.2,1.87-2.4s2.79-.37,3.22-1.28,1.12-1,1.5-1.55c.82-1.23.63-2.51,1.24-3.72.78-1.55,1-.85,2.4-1.59a4.71,4.71,0,0,0,2.63-3.16c.46-1.71,1.16-1,2.62-2,1.7-1.23,1.78-2.32,2.06-4.28.17-1.19,1.43-2.09,1.46-3.25,0-1.58-.69-3.13-.59-4.63s-.45-2.8-.75-4.37c-.35-1.82-1-3.68-.45-5.49.33-1.09,1.23-3.34.18-4.32-.7-.66-1.32-1.33-2-2S152.65,84.49,151.67,84.58Z"/></g><g id="path3413"><path d="M142.5,142.23c-11.85-4.41-21.7-19.15-27.88-30.73C108,99.1,103.83,86.95,104.07,86.31l.47-.21-.12.33h0l.32,0c0,1.84,16,46.94,38,55.12Zm-38.08-55.8-.12.31Z"/></g><g id="path3415"><path d="M144.61,136C135,130.22,128,126,110.43,86.94l.64-.28c17.46,38.87,24.35,43,33.9,48.78Z"/></g><g id="path3417"><path d="M155.8,129.21a180.56,180.56,0,0,1-43.91-43.06l.57-.4a179.89,179.89,0,0,0,43.74,42.9Z"/></g><g id="path3419"><path d="M160.16,121c-1.62-6-24.54-25.07-44.89-35.65l.33-.61c18.91,9.83,43.43,29.39,45.24,36.08Z"/></g><g id="path3421"><path d="M166.74,107.7c-9-8.64-24.29-16.56-46.88-24.22l.23-.65c22.69,7.69,38.11,15.67,47.14,24.37Z"/></g><g id="path3423"><path d="M174.35,96.53c-18-10-34.34-14.5-49.93-13.62l0-.69c15.72-.89,32.19,3.6,50.32,13.71Z"/></g><g id="path3425"><path class="cls-2" d="M160.8,75.65c-1,0-2.42.16-4.29.37.3.27.56.49.74.67.75.79-.16,2.81-.22,3.86-.07,1.23,1.43,2.64,1.61,3.6.28,1.45-.47,1.26,1.34,2.62,1.32,1,1.7,1.19,1.24,2.66-.26.82.29,2.19.37,3,.14,1.46-.72,1.1.08,2.44a29.33,29.33,0,0,1,1.69,2.53c.52,1.1,1.24,2,1.73,3.18.27.64-1.35,3-1.47,3.47-.31,1.19,1.08,2.07,0,3.9a19.56,19.56,0,0,1-2.7,2.95,31.66,31.66,0,0,1-2.32,2.24,6.65,6.65,0,0,0-1.65,1.92c-.12.21-2.57.94-2.93,1.21-.11.08-.64,2.6-1.24,3.22-1.55,1.61-2.58,1.26-1.73,3.55.47,1.25-1.82,3-2.58,3.61s.36,2.12.52,2.69c.08.29-5.16,2-5.73,2.28a42.66,42.66,0,0,1-3.5,2.87c-1.39.75-1.87,2.06-3.4,2.91-3,1.68-2.15,2.08-4.27,3.6-.75.53-1.59,1-2.36,1.44,4.27,2.6,8,4.39,10.27,4.82,4.9.94,6.39,0,9-5.54,1.39-3,3.41-4.15,6.5-3.84,3.69.37,4.92-1.32,5.31-7.31.27-4.06.9-5.37,3.37-7,5-3.31,5.83-4.7,6.68-11.12.73-5.49,1.38-6.92,4.35-9.42a13.42,13.42,0,0,0,3.34-4.12c1-2,1.12-2.69,1.12-6s-.13-4-1.16-6.09c-2.16-4.33-7.09-8.2-13.22-10.38A9.59,9.59,0,0,0,160.8,75.65Z"/></g><g id="path3176"><path class="cls-2" d="M134.41,78.94c-16.88,2.27-22,2.86-26.71,3.11L103,82.3v1.44a38.9,38.9,0,0,1-.61,4.79c-1.07,6-.61,13.23,1.37,21.46a5.73,5.73,0,0,1,.72-.3c1.17-.4,2,.1,3.08-.14.64-.15,2.26-1.32,2.73-1.19.64.17,1.65.89,2.17.94.9.1,1-.3,1.61-.34,1-.07,2.92,1.07,3,.09.05-.62-.17-1.91.12-2.19,1.12-1.06.95-2.68,1.72-3.56.61-.7,2.36-1.15,2.71-1.75.58-1,.87-3.23,1.79-3.86a24.59,24.59,0,0,0,2.32-1.19,2.49,2.49,0,0,0,.79-3.16c-.44-1.27-1-2.44.12-3.48.55-.5,1.59-2,2.26-2.26a3.14,3.14,0,0,0,2.4-2,5.72,5.72,0,0,1,1.26-2.87c.58-.61,1.48-1.27,1.59-2.18A11.45,11.45,0,0,1,134.41,78.94Z"/></g></g><g id="path3429"><path class="cls-2" d="M102.85,80.34c.71-6.12,5.19-16.66,10.1-23.78q9.8-14.21,34.81-37.57c8.84-8.26,12.58-11.11,17.71-13.48,9.31-4.31,17.24-6,21.79-4.73a9.13,9.13,0,0,1,5.6,4.76c1.15,3,0,6.92-2.84,10-1.63,1.75-1.69,1.9-1.78,4.71-.11,3.5-.68,4.5-3.37,5.95-2.85,1.53-3,1.81-3.07,5.94s-.57,5.41-3.07,8.1c-2,2.13-2,3.13-.18,8.75,2.18,6.77,2.13,8.48-.37,12.06-1.3,1.86-1.4,2.24-1.4,5,0,3.33-.61,5-2.58,7-1.52,1.59-3.32,2-11,2.61-3.06.24-8.56.87-12.22,1.42s-10.82,1.51-15.91,2.15-11.53,1.52-14.3,2c-4.13.65-14.35,1.59-17.47,1.61-.68,0-.72-.23-.46-2.48Z"/><path d="M103.28,83.16a.89.89,0,0,1-.71-.24c-.31-.34-.27-1-.08-2.62.72-6.21,5.18-16.72,10.16-23.94,6.51-9.44,18.24-22.1,34.86-37.63,8.83-8.25,12.66-11.16,17.8-13.55,9.38-4.34,17.41-6.07,22-4.75a9.41,9.41,0,0,1,5.83,5c1.19,3.12.05,7.19-2.91,10.35-1.57,1.68-1.6,1.76-1.69,4.49-.12,3.62-.75,4.73-3.55,6.24s-2.82,1.62-2.89,5.65c-.08,4.18-.61,5.58-3.16,8.33-1.8,1.94-2,2.67-.11,8.41,2.21,6.85,2.14,8.69-.42,12.36-1.25,1.8-1.34,2.11-1.34,4.79,0,3.4-.65,5.17-2.68,7.29-1.61,1.68-3.39,2.11-11.21,2.71-3.06.23-8.53.87-12.19,1.42S140.21,79,135.12,79.6s-11.54,1.52-14.29,2c-4.11.64-14.42,1.59-17.52,1.61Zm-.19-.7a.42.42,0,0,0,.2,0c3.07,0,13.33-1,17.41-1.6,2.76-.43,9.18-1.31,14.31-2s12.23-1.6,15.91-2.15,9.17-1.19,12.24-1.42c7.51-.58,9.32-1,10.76-2.5,1.91-2,2.49-3.58,2.49-6.81,0-2.82.12-3.26,1.46-5.18,2.42-3.47,2.47-5.12.33-11.76-1.85-5.74-1.82-6.85.26-9.09,2.45-2.64,2.9-3.82,3-7.88.08-4.24.29-4.65,3.26-6.24,2.57-1.38,3.08-2.28,3.19-5.65.09-2.89.18-3.12,1.87-4.94,2.78-3,3.87-6.76,2.77-9.64a8.78,8.78,0,0,0-5.37-4.55c-4.47-1.28-12.32.44-21.55,4.71C160.56,8.16,156.77,11,148,19.23c-16.58,15.5-28.28,28.12-34.76,37.52-4.84,7-9.35,17.61-10,23.63a7.44,7.44,0,0,0-.1,2.08Z"/></g><path class="cls-1" d="M157.41,24.9a1.16,1.16,0,0,0-.27,0,9.93,9.93,0,0,0-2.67,1.25,34,34,0,0,1-4.54,2.06c-1,.29-4.12,1-4.08,2.57,0,.65.25,2.85,1.34,3,2.2.3,4.31-1.64,6-1.45.51.51,1,1.78,1.61,1.45a3.78,3.78,0,0,0,2-1.5c.64-1.12,1.87-3,1.95-4.24C158.82,27.28,158.72,24.94,157.41,24.9Zm-2.84,15.71a.6.6,0,0,0-.32.09A7.13,7.13,0,0,0,152.56,42,9,9,0,0,1,150,44.26c-1.08.52-3.89,1.72-4.5,2.82-.39.7-1.14,1.84,0,2.49,1.35.77,3.36,1,4.2,1.63.39,0,.78,0,1.16.05a4,4,0,0,0,1.84,0c1-.25,1.86-.35,2.09-1.46.19-.94.45-1.87.68-2.83.29-1.19,1.12-3.25.56-4.45C155.85,42.1,155.31,40.63,154.57,40.61ZM143.08,54.28a3.15,3.15,0,0,0-2,.94c-1.16,1.11-1,1.09-.45,2.49.65,1.66,3.54,3.9,2.06,4.92a4.75,4.75,0,0,1,1.2.47,1.23,1.23,0,0,0,.23.18,6.26,6.26,0,0,0,1.65.56c.64.11,1.24.22,1.87.38a7.56,7.56,0,0,0,2,.43,5.72,5.72,0,0,0,3.56-1.55c.82-.7,2.75-2.52,2.4-3.81-.27-1-.54-1.61-1.87-1.88-1-.19-1.76-.88-2.63-1.07a23,23,0,0,1-4.72-1.12A7.19,7.19,0,0,0,143.08,54.28Zm5.12,12c-.75,0-.84.44-1.93,1s-1.29,0-2.63.25a8.35,8.35,0,0,1-2.52.31c-1.7-.18-1.17.06-2,.9a4.48,4.48,0,0,0-1.38,1.7c-.32,1.16-1.37,2.79-.79,4l.59,1.19c-.41.34-.8.73-1.24,1-.61.42-1.21.77-1.83,1.19a15.62,15.62,0,0,0-2.36,1.79l3-.38c4.15-.52,9.58-1.25,13.47-1.8a2.61,2.61,0,0,0-.1-.55,4.65,4.65,0,0,1-.08-2.27c.11-1.17.27-1.19,1.14-2.22s2.08-1.53,3-2.53.89-1.47-.33-2.28a8.11,8.11,0,0,0-2.89-1.16A4.55,4.55,0,0,0,148.2,66.29Z"/><path id="path3219" d="M105.94,80c-.87-2.91,2.09-5.47,3.31-8,4-6.48,8.14-12.93,13.76-18.17,12-12.66,28.05-20.65,44.1-27.23,4.4-1.68,8.81-3.55,13.43-4.49-3.83,1.87-8.11,2.73-12,4.43a198.52,198.52,0,0,0-23.15,10.66c2.38-1.37-2.73,1.59-3.49,2.13a93.85,93.85,0,0,0-24,21.35c-3.71,5.17-7,10.62-10.43,16C106.69,77.66,106.56,79.13,105.94,80Z"/><path id="path3434" d="M105.59,79.68c1.18-2.36,3.62-4,5.33-6.1a97.94,97.94,0,0,1,36.59-23.12,77.71,77.71,0,0,1,26.19-3.74c.92,1-3.76.58-4.91.75a73.76,73.76,0,0,0-31.73,7.69c-1.92.92-3.81,1.92-5.66,3,1.77-1-1.38.78-2.18,1.33a104.41,104.41,0,0,0-20.94,17.46C107.33,77.78,106.5,78.85,105.59,79.68Z"/><path id="path3225" d="M105.93,78.84c2-2,4.72-3.27,7.12-4.79,7.87-4.62,15.88-9.16,24.65-11.91,9.64-3.05,20-3.57,30-2.93a58.45,58.45,0,0,1,8.51,1.22c1,1.24-2.92.51-3.72.4a87.77,87.77,0,0,0-31.39.95,86.84,86.84,0,0,0-21.46,8.77L116,72.64C112.54,74.57,109.14,76.6,105.93,78.84Z"/><path id="path3437" d="M106.91,78.25c-.06-.26.51-.37.65-.44a4.7,4.7,0,0,1,.7-.19c.33-.07.66-.12,1-.16l1.22-.11,1.44-.11,1.63-.12,1.86-.17,2-.22c.7-.08,1.39-.18,2.09-.29s1.41-.23,2.12-.36l2.14-.41,2.15-.43,2.18-.46,2.24-.48,2.3-.5,2.31-.52,2.34-.54,2.35-.55,2.36-.54,2.39-.53,2.4-.53,2.4-.52,2.36-.51,2.31-.49,2.24-.47,2.15-.46,2.07-.45,2-.44,1.86-.43,1.76-.43,1.67-.43c.53-.14,1-.29,1.57-.44l1.49-.46,1.36-.45a1.53,1.53,0,0,1,.68-.08l-.33.25c-.48.24-1,.48-1.46.68s-.94.34-1.41.49-1,.31-1.48.45l-1.58.44-1.67.42-1.76.43-1.85.42-2,.43-2.06.44-2.15.45-2.24.47-2.31.49-2.36.51-2.4.52-2.4.52-2.39.53-2.36.55-2.35.55-2.34.54-2.32.52-2.3.5-2.25.49-2.18.46-2.16.44-2.13.4c-.7.12-1.41.25-2.11.35s-1.38.19-2.07.27-1.33.15-2,.2l-1.82.14c-.53,0-1.06.07-1.59.08l-1.34,0c-.39,0-.77,0-1.16.07l-.86.06a2.23,2.23,0,0,0-.48,0c.91-.55.42-.29.24-.13Z"/><path id="path3230" d="M105.32,81.78c-.08-4.41,1.7-8.71,3.36-12.77a79.6,79.6,0,0,1,14-22.66,161.51,161.51,0,0,1,29.17-26.71C161.93,12.85,174,8,186.36,8.85c2.12,1.07-3.93.31-4.84.51A54.85,54.85,0,0,0,157,16.65a89.07,89.07,0,0,0-7.51,5,163.19,163.19,0,0,0-31.08,30.84,82.76,82.76,0,0,0-11.11,22C106.46,76.8,106.28,79.66,105.32,81.78Z"/><g id="g3285"><g id="path3443"><path class="cls-1" d="M53.62,147.25c2.72-.52,7.7-3,13.1-6.61a70.07,70.07,0,0,0,14.22-12.1c4-4.39,6.28-8.61,8.12-15.19,2.7-9.64,3.45-18,2.24-24.81a38.72,38.72,0,0,1-.6-4.8V82.31L86,82.05c-5.21-.28-10.11-.87-31.73-3.79-23.07-3.12-22.41-3.08-25.91-1.83-6.13,2.18-11.06,6-13.22,10.38-1,2.06-1.16,2.74-1.16,6.09s.13,4,1.12,6A13.37,13.37,0,0,0,18.4,103c3,2.49,3.63,3.93,4.35,9.42.85,6.42,1.69,7.82,6.68,11.13,2.47,1.63,3.09,2.94,3.36,7,.39,6,1.63,7.69,5.32,7.31,3.09-.31,5.11.88,6.5,3.83,2.62,5.57,4.12,6.49,9,5.54Z"/><path d="M50.87,147.92c-3,0-4.47-1.59-6.58-6.06-1.33-2.81-3.22-3.93-6.14-3.64a4.65,4.65,0,0,1-3.63-.77c-1.22-1-1.83-3-2.08-6.86s-.83-5.16-3.21-6.73c-5.08-3.36-6-4.85-6.83-11.37-.71-5.39-1.35-6.77-4.23-9.2a13.74,13.74,0,0,1-3.42-4.22c-1-2-1.15-2.78-1.15-6.17s.14-4.14,1.19-6.25C17,82.26,22,78.31,28.2,76.11l.25-.09c3.24-1.16,3.24-1.16,24.23,1.68l1.61.22c21.5,2.91,26.53,3.51,31.7,3.79L91,82v1.76a39,39,0,0,0,.6,4.74c1.23,6.86.47,15.26-2.24,25-1.85,6.62-4.15,10.92-8.2,15.33a70.1,70.1,0,0,1-14.28,12.16c-5.5,3.63-10.44,6.12-13.23,6.66A15.15,15.15,0,0,1,50.87,147.92ZM39,137.49c2.71,0,4.6,1.31,5.9,4.08,2.55,5.41,3.91,6.26,8.63,5.35h0c2.66-.51,7.63-3,13-6.56a69.44,69.44,0,0,0,14.15-12c4-4.33,6.22-8.55,8-15.05,2.69-9.6,3.44-17.9,2.23-24.66a39,39,0,0,1-.61-4.86v-1.1l-4.4-.24c-5.19-.28-10.24-.88-31.76-3.79l-1.61-.22c-20.82-2.82-20.82-2.82-23.89-1.72l-.25.09c-6,2.15-10.91,6-13,10.21-1,2-1.12,2.63-1.12,5.94s.12,3.93,1.08,5.86a13,13,0,0,0,3.25,4c3,2.55,3.74,4.08,4.47,9.63.83,6.31,1.63,7.64,6.53,10.88,2.55,1.69,3.24,3.12,3.51,7.26.24,3.6.78,5.5,1.83,6.37a4,4,0,0,0,3.11.61A9.34,9.34,0,0,1,39,137.49Z"/></g><g id="path3445"><path class="cls-2" d="M42,84.58a1.7,1.7,0,0,1,1,.47,11.25,11.25,0,0,0,2.4,2c.77.38,1.82,2.2,2.28,2.35s1.89.47,2.1.86c.66,1.19,1.16,2.88,2.4,3.56A3.67,3.67,0,0,1,54.49,97c.35,2.46.22,4.36,2,6.25,1.38,1.44,2.42,3.13,3.82,4.55,1.23,1.25,4.05,2.25,4.91,3.63,1.09,1.77,1.51,4.77,3,6.18,1.81,1.65,2.57,0,3.74.6,1.87.92,3.6,3.38,5.74,4.33s4.2-1.22,5.88-.61a9.71,9.71,0,0,1,1.65.8,33.23,33.23,0,0,1-4.36,5.85,68.92,68.92,0,0,1-12.29,10.8c-.55-1.26-1-2.54-2.46-2.92A7.79,7.79,0,0,1,62.63,135a8.1,8.1,0,0,0-3-1.59c-1.09-.47-1.66-2.07-2.36-2.39a12.4,12.4,0,0,1-2.48-.81c-.48-.52-1.18-2.2-1.87-2.4s-2.79-.37-3.22-1.28-1.12-1-1.5-1.55c-.82-1.23-.63-2.51-1.24-3.72-.78-1.55-1-.85-2.4-1.59a4.71,4.71,0,0,1-2.63-3.16c-.46-1.71-1.16-1-2.62-2-1.7-1.23-1.78-2.32-2.06-4.28-.17-1.19-1.42-2.09-1.46-3.25,0-1.58.69-3.13.59-4.63s.45-2.8.75-4.37c.35-1.82,1-3.68.45-5.49-.33-1.09-1.23-3.34-.18-4.32.7-.66,1.32-1.33,2-2S41,84.49,42,84.58Z"/></g><g id="path3447"><path d="M51.16,142.23l-.25-.65c22-8.18,38-53.28,38-55.12h.3l0,0-.13-.34.47.21c.24.64-3.94,12.79-10.55,25.19C72.86,123.08,63,137.82,51.16,142.23Z"/></g><g id="path3449"><path d="M49,136l-.37-.59c9.55-5.75,16.45-9.91,33.9-48.78l.64.28C65.68,126,58.7,130.22,49,136Z"/></g><g id="path3451"><path d="M37.86,129.21l-.41-.56A179.84,179.84,0,0,0,81.2,85.75l.57.4A180.51,180.51,0,0,1,37.86,129.21Z"/></g><g id="path3453"><path d="M33.49,121l-.68-.18c1.81-6.69,26.33-26.25,45.24-36.08l.33.61C58,95.89,35.11,115,33.49,121Z"/></g><g id="path3455"><path d="M26.92,107.7l-.49-.49c9-8.71,24.45-16.68,47.14-24.37l.23.65C51.21,91.15,35.87,99.07,26.92,107.7Z"/></g><g id="path3457"><path d="M19.31,96.53l-.35-.6c18.13-10.12,34.59-14.6,50.32-13.71l0,.69C53.65,82,37.31,86.48,19.31,96.53Z"/></g><g id="path3459"><path class="cls-2" d="M32.86,75.65c1,0,2.42.16,4.29.37-.3.27-.56.49-.73.67-.75.79.16,2.81.22,3.86.07,1.23-1.43,2.64-1.61,3.6-.28,1.45.47,1.26-1.34,2.62-1.32,1-1.7,1.19-1.24,2.66.25.82-.29,2.19-.37,3-.14,1.46.72,1.1-.08,2.44a29.59,29.59,0,0,0-1.69,2.53c-.52,1.1-1.24,2-1.73,3.18-.27.64,1.35,3,1.47,3.47.31,1.19-1.08,2.07,0,3.9a19.63,19.63,0,0,0,2.7,2.95A31.91,31.91,0,0,0,35,113.16a6.65,6.65,0,0,1,1.65,1.92c.12.21,2.57.94,2.93,1.21.11.08.64,2.6,1.24,3.22,1.55,1.61,2.59,1.26,1.73,3.55-.47,1.25,1.82,3,2.58,3.61s-.36,2.12-.52,2.69c-.08.29,5.16,2,5.73,2.28a43.1,43.1,0,0,0,3.5,2.87c1.39.75,1.87,2.06,3.41,2.91,3,1.68,2.15,2.08,4.27,3.6.75.53,1.6,1,2.36,1.44-4.27,2.6-8,4.39-10.27,4.82-4.9.94-6.39,0-9-5.54-1.39-3-3.41-4.15-6.5-3.84-3.7.37-4.92-1.32-5.31-7.31-.27-4.06-.9-5.37-3.37-7-5-3.31-5.83-4.7-6.68-11.12C22,107,21.36,105.53,18.4,103a13.39,13.39,0,0,1-3.34-4.12c-1-2-1.12-2.69-1.12-6s.13-4,1.16-6.09c2.16-4.33,7.09-8.2,13.22-10.38A9.59,9.59,0,0,1,32.86,75.65Z"/></g><g id="path3461"><path class="cls-2" d="M59.25,78.94c16.88,2.27,22,2.86,26.71,3.11l4.73.25v1.44a38.74,38.74,0,0,0,.61,4.79c1.07,6,.61,13.23-1.37,21.46a5.89,5.89,0,0,0-.72-.3c-1.17-.4-2,.1-3.08-.14-.64-.15-2.26-1.32-2.73-1.19-.64.17-1.65.89-2.17.94-.9.1-1-.3-1.61-.34-1-.07-2.92,1.07-3,.09-.05-.62.17-1.91-.12-2.19-1.12-1.06-.95-2.68-1.72-3.56-.61-.7-2.36-1.15-2.71-1.75-.58-1-.87-3.23-1.79-3.86A24.74,24.74,0,0,1,68,96.49a2.49,2.49,0,0,1-.79-3.16c.44-1.27,1-2.44-.12-3.48-.55-.5-1.59-2-2.26-2.26a3.14,3.14,0,0,1-2.4-2,5.73,5.73,0,0,0-1.26-2.87c-.58-.61-1.48-1.27-1.59-2.18A11.25,11.25,0,0,0,59.25,78.94Z"/></g></g><g id="g3307"><g id="path3464"><path class="cls-2" d="M90.81,80.34c-.71-6.12-5.19-16.66-10.1-23.78Q70.91,42.35,45.9,19C37.06,10.73,33.31,7.87,28.19,5.5,18.88,1.19,10.95-.54,6.39.77A9.13,9.13,0,0,0,.79,5.53c-1.15,3,0,6.92,2.84,10,1.63,1.75,1.69,1.9,1.78,4.71.11,3.5.68,4.5,3.37,5.95,2.85,1.53,3,1.81,3.07,5.94s.57,5.41,3.07,8.1c2,2.13,2,3.13.19,8.75C12.93,55.75,13,57.46,15.48,61c1.3,1.86,1.4,2.24,1.4,5,0,3.33.61,5,2.58,7,1.53,1.59,3.32,2,11,2.61,3.06.24,8.56.87,12.22,1.42s10.82,1.51,15.91,2.15,11.53,1.52,14.3,2c4.13.65,14.35,1.59,17.47,1.61.68,0,.72-.23.46-2.48Z"/><path d="M90.37,83.16h0c-3.1,0-13.41-1-17.52-1.61-2.75-.43-9.16-1.31-14.29-2S46.3,78,42.62,77.44,33.48,76.26,30.43,76c-7.82-.6-9.6-1-11.21-2.71-2-2.11-2.68-3.88-2.68-7.29,0-2.68-.09-3-1.34-4.79-2.56-3.67-2.62-5.52-.42-12.37,1.85-5.74,1.69-6.47-.11-8.41-2.55-2.74-3.08-4.15-3.16-8.33-.08-4-.16-4.18-2.89-5.65s-3.44-2.61-3.55-6.24c-.09-2.72-.12-2.81-1.69-4.49C.41,12.59-.73,8.53.47,5.41A9.41,9.41,0,0,1,6.3.44c4.63-1.33,12.66.41,22,4.75,5.14,2.38,9,5.3,17.8,13.55C62.75,34.26,74.48,46.92,81,56.36c5,7.21,9.44,17.73,10.16,23.94h0c.19,1.67.23,2.28-.08,2.62A.89.89,0,0,1,90.37,83.16ZM9.86.68a12.29,12.29,0,0,0-3.37.42A8.78,8.78,0,0,0,1.12,5.65c-1.1,2.88,0,6.67,2.77,9.64,1.7,1.81,1.78,2,1.87,4.94.11,3.37.61,4.27,3.19,5.65,3,1.59,3.18,2,3.26,6.24.08,4.06.52,5.24,3,7.88,2.08,2.24,2.11,3.34.26,9.09-2.14,6.64-2.1,8.29.33,11.77,1.34,1.92,1.47,2.36,1.47,5.18,0,3.23.58,4.82,2.49,6.81,1.44,1.5,3.25,1.92,10.76,2.5,3.07.24,8.56.87,12.24,1.42s10.81,1.51,15.91,2.15,11.56,1.52,14.31,2c4.09.64,14.34,1.58,17.41,1.6l.21,0a7.81,7.81,0,0,0-.1-2.07c-.7-6-5.2-16.61-10-23.63-6.49-9.4-18.18-22-34.76-37.52C36.89,11,33.1,8.16,28,5.81,20.82,2.46,14.43.68,9.86.68Z"/></g><path class="cls-1" d="M36.25,24.9a1.15,1.15,0,0,1,.27,0,10,10,0,0,1,2.67,1.25,33.93,33.93,0,0,0,4.54,2.06c1,.29,4.12,1,4.08,2.57,0,.65-.25,2.85-1.34,3-2.2.3-4.31-1.64-6-1.45-.51.51-1,1.78-1.61,1.45a3.79,3.79,0,0,1-2-1.5c-.64-1.12-1.87-3-1.95-4.24C34.84,27.28,34.94,24.94,36.25,24.9Zm2.84,15.71a.6.6,0,0,1,.32.09A7.13,7.13,0,0,1,41.1,42a9.06,9.06,0,0,0,2.55,2.22c1.08.52,3.89,1.72,4.5,2.82.39.7,1.14,1.84,0,2.49-1.35.77-3.36,1-4.2,1.63-.39,0-.78,0-1.16.05a4,4,0,0,1-1.84,0c-1-.25-1.86-.35-2.09-1.46-.19-.94-.45-1.87-.68-2.83-.29-1.19-1.12-3.25-.55-4.45C37.81,42.1,38.35,40.63,39.09,40.61ZM50.58,54.28a3.15,3.15,0,0,1,2,.94c1.16,1.11,1,1.09.45,2.49-.65,1.66-3.54,3.9-2.06,4.92a4.75,4.75,0,0,0-1.2.47,1.23,1.23,0,0,1-.23.18,6.24,6.24,0,0,1-1.65.56c-.64.11-1.24.22-1.87.38a7.57,7.57,0,0,1-2,.43,5.72,5.72,0,0,1-3.56-1.55c-.82-.7-2.75-2.52-2.4-3.81.27-1,.54-1.61,1.87-1.88,1-.19,1.76-.88,2.63-1.07a23,23,0,0,0,4.72-1.12A7.18,7.18,0,0,1,50.58,54.28Zm-5.12,12c.75,0,.85.44,1.93,1s1.29,0,2.63.25a8.35,8.35,0,0,0,2.51.31c1.7-.18,1.17.06,2,.9a4.49,4.49,0,0,1,1.38,1.7c.32,1.16,1.37,2.79.79,4l-.59,1.19c.41.34.8.73,1.24,1,.61.42,1.21.77,1.83,1.19a15.62,15.62,0,0,1,2.36,1.79l-3-.38C54.44,78.74,49,78,45.13,77.45a2.6,2.6,0,0,1,.1-.55,4.64,4.64,0,0,0,.08-2.27c-.11-1.17-.27-1.19-1.13-2.22s-2.08-1.53-3-2.53-.88-1.47.34-2.28a8.11,8.11,0,0,1,2.89-1.16A4.54,4.54,0,0,1,45.46,66.29Z"/><g id="path3468"><path d="M87.72,80c.87-2.91-2.09-5.47-3.31-8-4-6.48-8.14-12.93-13.76-18.17-12-12.66-28.05-20.65-44.1-27.23-4.4-1.68-8.81-3.55-13.43-4.49,3.83,1.87,8.11,2.73,12,4.43A198.43,198.43,0,0,1,48.31,37.23c-2.38-1.37,2.73,1.59,3.49,2.13a93.87,93.87,0,0,1,24,21.35c3.71,5.17,7,10.62,10.43,16C87,77.66,87.1,79.13,87.72,80Z"/></g><g id="path3470"><path d="M88.06,79.68c-1.18-2.36-3.62-4-5.33-6.1A97.94,97.94,0,0,0,46.14,50.47,77.7,77.7,0,0,0,20,46.72c-.92,1,3.76.58,4.91.75A73.76,73.76,0,0,1,56.6,55.16c1.92.92,3.8,1.92,5.66,3-1.77-1,1.38.78,2.18,1.33A104.41,104.41,0,0,1,85.38,76.91C86.33,77.78,87.15,78.85,88.06,79.68Z"/></g><g id="path3472"><path d="M87.73,78.84c-2-2-4.72-3.27-7.12-4.79C72.75,69.43,64.73,64.89,56,62.14c-9.64-3.05-20-3.57-30-2.93a58.4,58.4,0,0,0-8.51,1.22c-1,1.24,2.92.51,3.72.4a87.77,87.77,0,0,1,31.39.95A86.87,86.87,0,0,1,74,70.54l3.67,2.09C81.12,74.57,84.52,76.6,87.73,78.84Z"/></g><g id="path3474"><path d="M86.75,78.25c.06-.26-.51-.37-.65-.44a4.78,4.78,0,0,0-.7-.19c-.33-.07-.67-.12-1-.16l-1.22-.11-1.44-.11-1.63-.12-1.86-.17-2-.22c-.7-.08-1.39-.18-2.09-.29s-1.41-.23-2.12-.36l-2.14-.41-2.15-.43-2.18-.46-2.24-.48-2.3-.5-2.31-.52-2.34-.54L54,72.18l-2.36-.54-2.39-.53-2.4-.53-2.4-.52-2.36-.51-2.31-.49-2.24-.47-2.15-.46-2.07-.45-2-.44-1.86-.43-1.76-.43L26.1,66c-.53-.14-1-.29-1.57-.44L23,65.07l-1.36-.45a1.53,1.53,0,0,0-.68-.08l.33.25c.48.24,1,.48,1.46.68s.94.34,1.41.49,1,.31,1.48.45l1.58.44,1.67.42,1.76.43,1.85.42,2,.43,2.06.44,2.15.45,2.24.47,2.31.49,2.36.51,2.4.52,2.4.52,2.39.53,2.36.55,2.35.55,2.34.54,2.32.52,2.3.5,2.25.49,2.18.46,2.16.44,2.13.4c.7.12,1.41.25,2.11.35s1.38.19,2.07.27,1.33.15,2,.2l1.82.14c.53,0,1.06.07,1.59.08l1.34,0c.39,0,.77,0,1.16.07l.86.06a2.23,2.23,0,0,1,.48,0c-.91-.55-.42-.29-.24-.13Z"/></g><g id="path3476"><path d="M88.34,81.78c.08-4.41-1.7-8.71-3.36-12.77a79.63,79.63,0,0,0-14-22.66A161.47,161.47,0,0,0,41.77,19.64C31.73,12.85,19.66,8,7.3,8.85c-2.12,1.07,3.93.31,4.84.51a54.86,54.86,0,0,1,24.51,7.29,89.11,89.11,0,0,1,7.51,5A163.16,163.16,0,0,1,75.24,52.45a82.77,82.77,0,0,1,11.11,22C87.2,76.8,87.37,79.66,88.34,81.78Z"/></g></g><path id="path3478" d="M96.82,67.49c-2.9,0-5.25,4.13-5.25,9.21,0,3.55,1.14,6.62,2.82,8.16-1.68,3.47-2.82,10.4-2.82,18.38,0,11.45,2.35,20.73,5.25,20.73s5.26-9.28,5.26-20.73c0-8-1.15-14.91-2.83-18.38,1.68-1.54,2.83-4.61,2.83-8.16C102.09,71.62,99.73,67.49,96.82,67.49Z"/><path id="path3370" class="cls-3" d="M98.41,69.4C96.7,64,118.65,21.28,122.34,27.52"/><path id="path3372" class="cls-3" d="M96.44,71.45C91.37,52.77,82.65,38.1,71.14,26.5"/></svg>