<svg xmlns="http://www.w3.org/2000/svg" xmlns:xlink="http://www.w3.org/1999/xlink" viewBox="0 0 87.37 75.92"><defs><style>.cls-1{isolation:isolate;}.cls-2{fill:#9e5a10;}.cls-3{fill:url(#linear-gradient);}.cls-4{opacity:0.75;}.cls-5{fill:#cf974d;opacity:0.63;mix-blend-mode:multiply;}.cls-6{fill:#6b301e;}.cls-7{fill:#221f1f;}.cls-8{fill:url(#New_Gradient_Swatch_2);}.cls-9{fill:url(#New_Gradient_Swatch_2-2);}.cls-10{fill:url(#New_Gradient_Swatch_2-3);}.cls-11{mix-blend-mode:soft-light;}.cls-12,.cls-18{fill:#fff;}.cls-13{fill:url(#New_Gradient_Swatch_2-4);}.cls-14{fill:url(#New_Gradient_Swatch_2-5);}.cls-15{fill:url(#New_Gradient_Swatch_2-6);}.cls-16{fill:#415e0d;}.cls-17{fill:#5b8513;}.cls-18{font-size:10px;font-family:Poppins-Regular, Poppins;}.cls-19{fill:url(#New_Gradient_Swatch_2-7);}.cls-20{fill:url(#New_Gradient_Swatch_2-8);}.cls-21{fill:url(#New_Gradient_Swatch_2-9);}.cls-22{fill:url(#New_Gradient_Swatch_2-10);}.cls-23{fill:url(#New_Gradient_Swatch_2-11);}.cls-24{fill:url(#New_Gradient_Swatch_2-12);}</style><linearGradient id="linear-gradient" x1="42.57" x2="42.57" y2="108.45" gradientUnits="userSpaceOnUse"><stop offset="0" stop-color="#ffcd6a"/><stop offset="0.99" stop-color="#ffac00"/></linearGradient><linearGradient id="New_Gradient_Swatch_2" x1="82.12" y1="-0.43" x2="75.77" y2="6.66" gradientUnits="userSpaceOnUse"><stop offset="0" stop-color="#fafae8"/><stop offset="0.97" stop-color="#716558"/></linearGradient><linearGradient id="New_Gradient_Swatch_2-2" x1="81.85" y1="-0.25" x2="77.79" y2="4.28" xlink:href="#New_Gradient_Swatch_2"/><linearGradient id="New_Gradient_Swatch_2-3" x1="78.27" y1="1.5" x2="81.8" y2="1.5" xlink:href="#New_Gradient_Swatch_2"/><linearGradient id="New_Gradient_Swatch_2-4" x1="840.48" y1="-0.43" x2="834.13" y2="6.66" gradientTransform="matrix(-1, 0, 0, 1, 843.5, 0)" xlink:href="#New_Gradient_Swatch_2"/><linearGradient id="New_Gradient_Swatch_2-5" x1="840.21" y1="-0.25" x2="836.15" y2="4.28" gradientTransform="matrix(-1, 0, 0, 1, 843.5, 0)" xlink:href="#New_Gradient_Swatch_2"/><linearGradient id="New_Gradient_Swatch_2-6" x1="836.63" y1="1.5" x2="840.16" y2="1.5" gradientTransform="matrix(-1, 0, 0, 1, 843.5, 0)" xlink:href="#New_Gradient_Swatch_2"/><linearGradient id="New_Gradient_Swatch_2-7" x1="82.12" y1="64.6" x2="75.77" y2="71.69" xlink:href="#New_Gradient_Swatch_2"/><linearGradient id="New_Gradient_Swatch_2-8" x1="81.85" y1="64.77" x2="77.79" y2="69.3" xlink:href="#New_Gradient_Swatch_2"/><linearGradient id="New_Gradient_Swatch_2-9" x1="78.27" y1="66.52" x2="81.8" y2="66.52" xlink:href="#New_Gradient_Swatch_2"/><linearGradient id="New_Gradient_Swatch_2-10" x1="840.48" y1="64.6" x2="834.13" y2="71.69" gradientTransform="matrix(-1, 0, 0, 1, 843.5, 0)" xlink:href="#New_Gradient_Swatch_2"/><linearGradient id="New_Gradient_Swatch_2-11" x1="840.21" y1="64.77" x2="836.15" y2="69.3" gradientTransform="matrix(-1, 0, 0, 1, 843.5, 0)" xlink:href="#New_Gradient_Swatch_2"/><linearGradient id="New_Gradient_Swatch_2-12" x1="836.63" y1="66.52" x2="840.16" y2="66.52" gradientTransform="matrix(-1, 0, 0, 1, 843.5, 0)" xlink:href="#New_Gradient_Swatch_2"/></defs><title>display-box</title><g class="cls-1"><g id="Layer_1" data-name="Layer 1"><path class="cls-2" d="M87.26,46.13a11.56,11.56,0,0,0-.49-4,1.54,1.54,0,0,0-.63-.86c.47-1.38.75-2.8,1.22-4.19-.66-.72-1.11-1.39-1.77-2.11,1.15-1.72,1.44-4.8,1.53-7.78v0s0-.08,0-.1,0,0,0-.05v-.17c0-.36,0-.71,0-1.06.11-6.74,0-13.48.09-20.22a13.76,13.76,0,0,0,0-2.65,4,4,0,0,0-.88-1.17A15.75,15.75,0,0,0,85.3.54a.81.81,0,0,0-.46-.29c-.29,0-.53.38-.76.71a3.69,3.69,0,0,1-2.33,1.78c-1,.05-2.1,0-3.15,0l-6.46-.05c-3.29,0-6.59,0-9.88,0h-.53c-2.14,0-4.27,0-6.38,0-10.22.1-21.78.14-33.14.15H19.79a8.13,8.13,0,0,0-1.88,0H2.28c-.11,3.34.16,7.07,0,10.31,0,1.32.24,3.35.16,4.37a29.39,29.39,0,0,0,.15,6.32c.18,1.43.42,2.9.66,4.72-.52,0-.76,1.42-.88,3-.09,1.13-.11,2.34-.11,3.12,0,1.06,0,2.09,0,3.12,0,.09,0,.27,0,.44v.15s0,.07,0,.1q0,1.68,0,3.32c0,.05,0,.1,0,.14,0,1.32.12,2.8,0,4.1a6.89,6.89,0,0,1-.78,2.69A8.71,8.71,0,0,0,.12,51.09a1.19,1.19,0,0,0,0,.42,1.15,1.15,0,0,0,.07.25,5.63,5.63,0,0,0,.77,1.65c.29.34.73.48.91.91a1.73,1.73,0,0,1,0,1.21,3.61,3.61,0,0,0-.37,1.59,4.36,4.36,0,0,0,.67,1.35,2.54,2.54,0,0,1-.26,2.94,2.55,2.55,0,0,1-.45.3c-.83.55-1.34,2.44-1.1,4.05a2.35,2.35,0,0,0,.14.56,1.48,1.48,0,0,0,.31.44c.93,1,1.81,2.17,2.86,2.57.62.23,1.72.21,2.12,1.31.07.18-1.6.68-1.7.71-.8.17-1.56.73-2.34.49a1.22,1.22,0,0,0-.94,0A1.45,1.45,0,0,0,.13,73a1.08,1.08,0,0,0,0,.41.62.62,0,0,0,.15.21l1.22,1.29a6.92,6.92,0,0,1,.61.65,2.09,2.09,0,0,0,.19.3c.11.07.3,0,.42,0H87.25c0-2.29,0-4.59,0-6.87a2.7,2.7,0,0,0-.18-.8c-.13-.37-.54-.54-.83-.76a1.68,1.68,0,0,1-.49-1.72,5.25,5.25,0,0,1,.54-1.27c.22-.42.35-.45.8-.58l.16,0a1.31,1.31,0,0,0,0-.26c0-.07,0-.14,0-.23,0-1,0-2,0-3,0-.2,0-.4,0-.6,0,0,0,0,0,0C87.19,55.13,87.1,50.62,87.26,46.13Z"/><path class="cls-3" d="M0,51.72c.52.18,1.15.18,1.48.64A4.11,4.11,0,0,1,2.08,54a3.78,3.78,0,0,1-.17,2.76,1.77,1.77,0,0,1-.76.68c-.09,0-1.1.17-1.1.21C0,59.64.14,62,.06,64a6.21,6.21,0,0,0,.06,1.44C.47,67.17,3,66.56,3.5,68c-.3.8-3.23.6-3.41,1.54a3.71,3.71,0,0,0,0,.83c0,.69,0,1.69.06,2.89H85c0-2.29,0-4.59,0-6.87a2.7,2.7,0,0,0-.18-.8c-.11-.32-.44-.42-.66-.64a1.86,1.86,0,0,1-.57-1.16,2.58,2.58,0,0,1,.4-1.29l.42-.81a.82.82,0,0,1,.59-.49c0-6-.21-11.89,0-17.71.07-1.85-.23-4.43-1.11-4.87.47-1.38.75-2.8,1.22-4.19-.66-.72-1.11-1.39-1.77-2.11,1.33-2,1.51-5.84,1.56-9.2.09-5.59,0-17.39.12-23C74.72.1,63.74-.07,53.13,0,36.77.2,17,.2,0,.2-.06,3.54.2,7.27,0,10.51c0,1.32.24,3.35.16,4.37-.35,4.37.24,6.76.81,11C.11,26,0,30.15,0,32-.05,38.82.12,44.89,0,51.72Z"/><g class="cls-4"><path class="cls-5" d="M83.92,38.64c-4.13-2.47-7.62-3.58-11.79-5.32A50,50,0,0,0,54,30C41.65,29.7,29.45,36,17.48,40.86c-3.29,1.33-6.63,1.94-10,3C5.19,44.54,2.46,45.7,0,45.3c0,.09,0,.43,0,.52a10.56,10.56,0,0,0,4.27-.67c2.81-.82,5.6-1.65,8.42-2.35,6-1.5,11.93-4.78,17.9-6.88,6.31-2.22,12.73-4.65,19.14-5.25a50.07,50.07,0,0,1,19.05,2c3.29,1,6.53,2.68,9.79,4a45,45,0,0,1,5.92,2.8A2.73,2.73,0,0,0,83.92,38.64Z"/><path class="cls-5" d="M85,45.26c-1.06-.66-2-1.09-3-1.77A56.32,56.32,0,0,0,73,38.69c-5.82-2.48-11.72-4.06-17.68-3.88C43.07,35.18,31.08,41.43,19,45.55c-3.44,1.18-6.91,2.65-10.41,2.95-2.79.24-5.78-.29-8.57-.41a3.88,3.88,0,0,1,0,.57c2.24.21,4.68.4,6.92.38,3.13,0,6.16-1,9.24-2,6-2,11.88-4.23,17.81-6.43a80.12,80.12,0,0,1,17.51-4.82c6.24-.79,12.28.4,18.41,2.64a60.68,60.68,0,0,1,10.14,4.82c1.59.94,3.17,1.65,4.87,2.82C85,45.81,85,45.55,85,45.26Z"/><path class="cls-5" d="M84.92,50.31c-9.39-7.48-19.74-12.1-29.79-10.85-2.87.36-5.72,1.35-8.58,1.94a62.86,62.86,0,0,0-9,2.2c-3,1.07-5.86,2.61-8.83,3.44S23,49.41,20.17,50.15a49.23,49.23,0,0,1-10.59,1.6,50.29,50.29,0,0,1-5.87-.29l2.43.72c.63,0,1.26.09,1.9.11a50.65,50.65,0,0,0,9.39-1.06c3-.47,5.79-1.77,8.73-2.82,2.67-1,5.34-1.68,8-2.81,5.91-2.52,11.94-3.44,17.94-4.9a29.35,29.35,0,0,1,18.35,1.84c5,2.1,9.71,5.56,14.49,9.07C84.94,51.27,84.94,50.84,84.92,50.31Z"/><path class="cls-5" d="M85,71.39h0a21.58,21.58,0,0,1-5.36,1.87h3.23A19.31,19.31,0,0,0,85,72.35C85,72,85,71.7,85,71.39Z"/><path class="cls-5" d="M8.87,58.95a3.21,3.21,0,0,0,2.88,1.41,33.92,33.92,0,0,1,7.12.37,140.72,140.72,0,0,1,16,3.51A160.07,160.07,0,0,1,51.1,70.36a70.69,70.69,0,0,0,7.6,2.91h3.48a61.73,61.73,0,0,1-11.26-3.8c-4.95-2.11-10-3.83-15-5.46s-10.28-2.24-15.42-3.34a27,27,0,0,0-7.1-.8,7.61,7.61,0,0,1-2.43.24C10.64,60,8.78,59,9.19,57.95a3.2,3.2,0,0,1,1.67-1.67c1.71-1,3.55-.68,5.31-.75a36,36,0,0,0,7.28-1.28c5-1.25,9.85-3.46,14.79-5.45S48.63,45.89,53.81,45a26.63,26.63,0,0,1,17.78,3.12A94.67,94.67,0,0,1,85,57.77c-.06-.26,0-.12,0-.65C75.76,49.55,66.46,42.94,56.24,44a75.64,75.64,0,0,0-8.9,1.75,55.75,55.75,0,0,0-8.67,2.35C35.76,49.31,32.9,50.83,30,52a57.84,57.84,0,0,1-8.57,2.41,56.77,56.77,0,0,1-7.86.89,6.9,6.9,0,0,0-2.68.62,4.11,4.11,0,0,0-1.26,1c-.19.23-1,1.17-.92,1.71A.76.76,0,0,0,8.87,58.95Z"/><path class="cls-5" d="M4.86,61c1.88,1.74,3.82,3.79,6.12,4.45a42.78,42.78,0,0,0,8.6,1.62c3.45.25,6.88-1.08,10.33-.37,3.23.67,6.34,2.58,9.48,4.12a42.87,42.87,0,0,0,7.31,2.45h1.84c-1.77-.52-3.55-1-5.32-1.51-2.94-.92-5.8-2.64-8.7-4a16.32,16.32,0,0,0-7.46-1.85c-3.08.13-6.08.91-9.16.47s-6.19-.65-9-2.29A20.34,20.34,0,0,1,5.15,61a6.17,6.17,0,0,1-2.37-3.84A6.85,6.85,0,0,0,4.86,61Z"/><path class="cls-5" d="M4.22,66.06c3.86,2,7.35,3.32,11.41,3.56,6.67.4,13.24.09,19.72,3.65h1.36l-.81-.44c-5.47-3-10.81-3.45-16.46-3.6-3.46-.09-7-.07-10.4-1.06C7.14,67.63,1.92,64,.08,63c.09.14,3.4,2.49,3.48,2.66S4.19,66,4.22,66.06Z"/><path class="cls-5" d="M7,73.27H9.14c-2.93-1.06-5.83-2.1-8.85-1.43,0,.09,0,.18,0,.27A15.26,15.26,0,0,1,7,73.27Z"/><path class="cls-5" d="M2.35,3.11C5.57,7.19,13.94,2.18,17.56.19a8.11,8.11,0,0,0-1.88,0c-3.9,1.87-9.9,6.65-13.3,2.54C.85.88,0,.08,2.35,3.11Z"/><path class="cls-5" d="M75.66,11.27c-2.29-.6-6.4-3.31-9-5.47-2-1.65-3.56-4.23-5.34-5.75C61,0,59.86,0,59.51,0c3.84,3.15,8.22,9.05,14.38,11.56.64.26,4.87,1.13,3.08,2.74-.79.7-7,.23-8.2.58a36.53,36.53,0,0,0-8.46,3.64c-3,1.74-6.16,2.85-9.23,4.37a32.2,32.2,0,0,1-9.66,3.19c-6.46,1-12.93,1.43-19.4,2.12a38.4,38.4,0,0,0-10.23,2.23C8.26,31.83,3.55,33.94,0,35.11c0,.15,0,.54,0,.68s.27-.19.32-.2C5.47,34,11.51,30.78,16.71,29.67c5-1.06,10.1-1.17,15.14-1.62s10-.57,14.83-2.3a72.41,72.41,0,0,0,7.07-3.27c2.45-1.19,4.91-2.06,7.33-3.47a29.93,29.93,0,0,1,7.45-3.23c2.16-.58,7.54.73,9.37-1.72a.45.45,0,0,0,.05-.28A2.79,2.79,0,0,0,75.66,11.27Z"/><path class="cls-5" d="M78.92,6.22c-2.34-1.78-4.75-4.35-7.1-6.06-.44,0-1.47-.1-1.91-.12,2.15,1.59,5,4,7.09,5.7a22.77,22.77,0,0,1,4.22,3.44c1,1.08,3,3.23,3,5.94,0,3.8-4.07,4.31-5.45,4.51-3.46.51-6.89.61-10.34,1.49-7.93,2-15.81,4.77-23.75,6.74s-15.75,3.77-23.66,5C14,34,6.79,35.07,0,38.71c0,.12,0,.43,0,.55,6.77-3.49,14-4.81,21-5.76A254.06,254.06,0,0,0,47,28c8.65-2.12,17.25-5.6,25.93-7,2.82-.44,5.75,0,8.53-1.35a4.9,4.9,0,0,0,3.16-4.27C85,10.5,80.59,7.49,78.92,6.22Z"/><path class="cls-5" d="M69.89,29c-.39-.11-2.16-.37-2-1.31s2-1,2.33-1.08c2.67-.3,5.29,1.17,7.94,1.09,1.66,0,3.23-1.2,4.81-2a17.27,17.27,0,0,1,1.91-.82c0-.08,0-.2,0-.28s0-.08,0-.1a2.11,2.11,0,0,1,0-.22c-1.26.59-2.34,1.15-3.59,1.86a7.51,7.51,0,0,1-5.65.85c-2.47-.53-6.91-2.52-8.44,1a.31.31,0,0,0,.12.35c3.24,1.9,6.63,1.34,10,2.23,2.69.72,5.21,2.4,7.78,4.08,0-.15,0-.21-.19-.32-2.88-1.88-5.41-3.81-8.44-4.38C74.27,29.44,72.06,29.56,69.89,29Z"/><path class="cls-5" d="M61.05,9.52c-3.14-1.28-6.71-7-9.8-9.46-.25,0-1.09.1-1.35.1,2.5,2.06,6.45,7.25,9,8.91,1.51,1,3.11,1.26,4.63,2.21a3.23,3.23,0,0,1,1.26,1c.41.7.53.25.19,1.17-.18.5-.44.55-.7.75a8.18,8.18,0,0,1-4.08,1.43c-2.56.37-5.13,0-7.69.13-5.78.21-11.38,3.39-17.09,4.89A88.08,88.08,0,0,1,18,23.35a31.29,31.29,0,0,0-9.53,2.06c-1.4.53-2.81,1-4.2,1.57A20.69,20.69,0,0,1,.21,28.24c0,.13-.05.5-.08.63,2-.2,4.26-1.52,6.21-2.22a41.07,41.07,0,0,1,8.91-2.59c6.11-.72,12.19-1.06,18.28-2.39s12-4.72,18.17-5.26c4.68-.41,9.67,1.24,14.08-2.67a.32.32,0,0,0,.07-.26C65.26,10.53,62.37,10.06,61.05,9.52Z"/><path class="cls-5" d="M52.2,7.34a54.16,54.16,0,0,0-6-7.18H44.91A59.27,59.27,0,0,1,52,7.93a6.48,6.48,0,0,1,1.22,1.92c.81,2.91-.51,2.59-1.12,2.51-.94-.12-1.87-.51-2.82-.62-5.35-.66-10.71.61-16,2.22-2.82.86-5.63,1.84-8.45,2.69a30,30,0,0,1-8.35,1c-5.38.1-10.58,2.79-15.95,3.09,0,.13-.18.34-.16.47,4.71.62,9.65-2.49,14.36-2.73,2.35-.12,4.71,0,7.06-.3A46.49,46.49,0,0,0,29.3,16c5.17-1.68,10.36-3.36,15.61-3.62a20.54,20.54,0,0,1,6.42.61c.75.2,2.2.8,2.51-1.13S52.87,8.24,52.2,7.34Z"/><path class="cls-5" d="M37.44,2.43C37,1.91,36.07.59,35.59.16c-.12,0-.21,0-.32,0s-.35,0-.55,0c2.24,1.8,6,6.72,2.83,8.18-4.68,2.16-9.76,1.47-14.54,2-4.6.51-9.12,2.34-13.71,3a37.81,37.81,0,0,0-4.59.94c-1.21.33-2.91,1-4.27.42,0,.08-.23.08-.24.15a5.09,5.09,0,0,0,2.34.3c1.92-.18,3.81-1,5.74-1.18a58.77,58.77,0,0,0,9.36-2.08,47.52,47.52,0,0,1,9.82-1.38A46.23,46.23,0,0,0,36.2,9.38C37,9.16,39.32,9,39.38,6.56,39.43,4.76,38.08,3.2,37.44,2.43Z"/><path class="cls-5" d="M23.41,4.71a5.77,5.77,0,0,0-2.2-4c-.27,0-.74-.46-1-.49H19c.09.05.67.83.76.88.95.55,3.06,1.44,3.39,3.64.56,3.71-4.67,3.45-5.64,3.47-1.8.05-3.61-.23-5.41,0A46.85,46.85,0,0,0,5.91,9c-1.5.35-4.17,1.16-5.83.71l0,.49c1.8.77,4.77-.3,6.41-.6A38.88,38.88,0,0,1,13,8.82c2.47,0,4.94.41,7.41-.17C21.48,8.39,23.82,7.89,23.41,4.71Z"/><path class="cls-5" d="M84.65,67.31c-1.89,3-5.17,2.58-7.46,2.58a68.12,68.12,0,0,1-10.85-.75C59.06,68,52.11,62.93,44.91,60.77c-1.8-.54-3.61-1-5.42-1.46-.75-.2-4.07-.36-2.79-2.77,1.08-2.06,3.6-2.93,5-3.31,3.82-1,7.55-.46,11.38-.37s7.34-.51,11,.29a69.49,69.49,0,0,1,12.25,4.44c2.13.91,5.48,2.74,7.65,3.94.07,0,.76-.23.83-.27l.15,0s0-.46,0-.47-1.5-.34-1.36-.39A61.56,61.56,0,0,0,77,57.1a80.29,80.29,0,0,0-11.77-4.44c-4.38-1.11-8.65-.21-13-.48-3.72-.23-7.48-.75-11.18.59-1.47.53-3.79,1.43-4.89,3.6s.94,2.85,1.71,3.09c4.34,1.4,8.71,2.2,13,4.11C55,65.4,59,67.65,63.21,68.92c4.51,1.37,9.17,1.46,13.73,1.44,2.44,0,6.07.14,8.06-3.16C85.11,67,84.73,67.17,84.65,67.31Z"/><path class="cls-5" d="M84.64,65.64a43.37,43.37,0,0,0-7.87.32,23.1,23.1,0,0,1-8.51-1.28c-2.64-.79-5.27-1.76-7.88-2.82a30.93,30.93,0,0,0-3.69-1.39c-.65-.17-1.3-.28-1.94-.45s-1.68-.16-2.06-.85c-.71-1.28.47-1.22,1.05-1.28a7.53,7.53,0,0,1,1.9.1,28.68,28.68,0,0,1,3.85.7,65.07,65.07,0,0,0,7.88,2.08c5.24.78,12.27,1.73,13.92,2l.15-.09c.46-.31.18-.06-.52-.39-.17-.08-.27,0-.48-.26-1.71-.28-3.71-.72-5.38-1-2.95-.44-5.9-.59-8.85-1.11-2.75-.49-5.44-1.74-8.18-2.21-2.17-.37-4.61-1.22-6.68.54a.4.4,0,0,0,0,.51c2.11,2,4.44,1.89,6.69,2.75,3,1.14,6,2.44,9,3.4a26.41,26.41,0,0,0,8.63,1.7c3-.09,5.56-1.13,9-.91C84.85,65.74,84.76,65.65,84.64,65.64Z"/></g><path class="cls-6" d="M70.73,4.25a11.77,11.77,0,0,1,2.44,0,3.13,3.13,0,0,0,.77,0,2.41,2.41,0,0,0,.8-.06,8.28,8.28,0,0,1,.75-.37,3.47,3.47,0,0,0,.76-.31,2.34,2.34,0,0,1,1.34-.37,1.34,1.34,0,0,1,.57.27c.17.13.26.42.44.5s.49-.06.69.06.13.18.2.24a.59.59,0,0,0,.42.12,1.46,1.46,0,0,1,.6,0c.32.13.41.32.78.33.52,0,1,0,1.56,0a2.71,2.71,0,0,1-.68.13,1.94,1.94,0,0,0-.89,0,2.81,2.81,0,0,1-.79.1.91.91,0,0,0-.69.29,1,1,0,0,1-.59.18c-.26,0-.34.17-.54.31a4.13,4.13,0,0,1-.73.32c-.24.09-.49.32-.75.18S77,6,76.86,5.92a1.78,1.78,0,0,0-.35,0,1.09,1.09,0,0,1-.77-.48,3.17,3.17,0,0,0-1.65-.76,2.66,2.66,0,0,0-.69.07c-.32,0-.49-.16-.78-.23s-.49,0-.71,0a5.5,5.5,0,0,1-.68-.16l-.29,0Z"/><path class="cls-7" d="M72.75,4.37a.81.81,0,0,1,.36.11,1,1,0,0,0,.37,0,2.62,2.62,0,0,1,.41,0c.18,0,.31.15.49.19s.29,0,.41,0a.53.53,0,0,1,.21,0c.06,0,.09.11.14.15s.23,0,.36.06a.7.7,0,0,1,.31.14c.11.08.18.19.32.21a1,1,0,0,1,.46.1c.18.11.27.24.49.26s.5,0,.74,0a1.12,1.12,0,0,0,.78-.34A1.73,1.73,0,0,1,79,5.12c.17-.08.36-.13.53-.21a2.17,2.17,0,0,1,.41-.17,4.39,4.39,0,0,0,.58-.06,1.22,1.22,0,0,0-.41-.13,1.35,1.35,0,0,0-.47,0,.41.41,0,0,1-.37-.13.5.5,0,0,0-.37-.16,1.15,1.15,0,0,1-.48-.18A3.08,3.08,0,0,0,78,3.94c-.18-.06-.32-.21-.5-.26a1,1,0,0,0-.72.17,10.76,10.76,0,0,1-1.21.26,1.73,1.73,0,0,0-.4.12,1.38,1.38,0,0,1-.36.19,2.33,2.33,0,0,1-.69-.05,6.82,6.82,0,0,0-.73,0C73.16,4.42,72.9,4.2,72.75,4.37Z"/><path class="cls-8" d="M80.35,1.65a4.25,4.25,0,0,1-.39.79l-.27.46h0l-2.12,2a.24.24,0,0,1-.21-.1l0-.11,1.85-2,.15-.16.14-.24.58-1S80.34,1.51,80.35,1.65Z"/><path class="cls-9" d="M81.44,2.85l0,0,.07-.11v0l0-.1v0l0-.12L81.76,2l0,.12v0l0,.1v0l-.07.11,0,0-.06.08,0,0-.09.09,0,0-.08.07,0,0-.11.07h0L81,2.8l0,0-.13.05h0l-.13,0h0l-.12,0h0l-.15,0h-.54l-.16,0a1.69,1.69,0,0,1-1.43-1.84V1l-.13.49v0A1.69,1.69,0,0,0,79.6,3.42l.16,0h.54l.14,0h0l.12,0h0l.13,0h0l.13-.05,0,0,.1-.06h0l.11-.07,0,0,.08-.07,0,0L81.36,3l0,0Z"/><path class="cls-10" d="M80.34.06A1.69,1.69,0,0,1,81.77,1.9a1.61,1.61,0,0,1-2,1,1.69,1.69,0,0,1-1.43-1.84A1.61,1.61,0,0,1,80.34.06Z"/><g class="cls-11"><path class="cls-12" d="M80.68.44A4.73,4.73,0,0,0,79,2.34a1.23,1.23,0,0,1-.51-1.19A1.27,1.27,0,0,1,79.85.25a1.89,1.89,0,0,1,.43.05A1.93,1.93,0,0,1,80.68.44Z"/></g><path class="cls-6" d="M14.4,4.25a11.77,11.77,0,0,0-2.44,0,3.13,3.13,0,0,1-.77,0,2.41,2.41,0,0,1-.8-.06,8.28,8.28,0,0,0-.75-.37,3.47,3.47,0,0,1-.76-.31,2.34,2.34,0,0,0-1.34-.37A1.34,1.34,0,0,0,7,3.42c-.17.13-.26.42-.44.5S6,3.86,5.84,4s-.13.18-.2.24a.59.59,0,0,1-.42.12,1.46,1.46,0,0,0-.6,0c-.32.13-.41.32-.78.33-.52,0-1,0-1.56,0A2.71,2.71,0,0,0,3,4.8a1.94,1.94,0,0,1,.89,0,2.81,2.81,0,0,0,.79.1.91.91,0,0,1,.69.29,1,1,0,0,0,.59.18c.26,0,.34.17.54.31A4.13,4.13,0,0,0,7.21,6c.24.09.49.32.75.18s.17-.21.32-.25a1.78,1.78,0,0,1,.35,0,1.09,1.09,0,0,0,.77-.48,3.17,3.17,0,0,1,1.65-.76,2.66,2.66,0,0,1,.69.07c.32,0,.49-.16.78-.23s.49,0,.71,0a5.5,5.5,0,0,0,.68-.16l.29,0Z"/><path class="cls-7" d="M12.39,4.37a.81.81,0,0,0-.36.11,1,1,0,0,1-.37,0,2.62,2.62,0,0,0-.41,0c-.18,0-.31.15-.49.19s-.29,0-.41,0a.53.53,0,0,0-.21,0c-.06,0-.09.11-.14.15S9.78,5,9.65,5a.7.7,0,0,0-.31.14c-.11.08-.18.19-.32.21a1,1,0,0,0-.46.1c-.18.11-.27.24-.49.26s-.5,0-.74,0a1.12,1.12,0,0,1-.78-.34,1.73,1.73,0,0,0-.41-.28C6,5,5.79,5,5.62,4.91a2.17,2.17,0,0,0-.41-.17,4.39,4.39,0,0,1-.58-.06A1.22,1.22,0,0,1,5,4.56a1.35,1.35,0,0,1,.47,0,.41.41,0,0,0,.37-.13.5.5,0,0,1,.37-.16,1.15,1.15,0,0,0,.48-.18,3.08,3.08,0,0,1,.47-.18c.18-.06.32-.21.5-.26a1,1,0,0,1,.72.17,10.76,10.76,0,0,0,1.21.26,1.73,1.73,0,0,1,.4.12,1.38,1.38,0,0,0,.36.19,2.33,2.33,0,0,0,.69-.05,6.82,6.82,0,0,1,.73,0C12,4.42,12.24,4.2,12.39,4.37Z"/><path class="cls-13" d="M4.79,1.65a4.25,4.25,0,0,0,.39.79l.27.46h0l2.12,2a.24.24,0,0,0,.21-.1l0-.11L6,2.68l-.15-.16-.14-.24-.58-1S4.8,1.51,4.79,1.65Z"/><path class="cls-14" d="M3.69,2.85l0,0-.07-.11v0l0-.1v0l0-.12L3.38,2l0,.12v0l0,.1v0l.07.11,0,0,.06.08,0,0,.09.09,0,0,.08.07,0,0L4,2.74H4l.1.05,0,0,.13.05h0l.13,0h0l.12,0h0l.15,0h.54l.16,0A1.69,1.69,0,0,0,6.84,1.09V1L7,1.53v0A1.69,1.69,0,0,1,5.54,3.42l-.16,0H4.84l-.14,0h0l-.12,0h0l-.13,0h0l-.13-.05,0,0-.1-.06h0L4,3.15l0,0-.08-.07,0,0L3.78,3l0,0Z"/><path class="cls-15" d="M4.8.06A1.69,1.69,0,0,0,3.36,1.9a1.61,1.61,0,0,0,2,1A1.69,1.69,0,0,0,6.84,1.09,1.61,1.61,0,0,0,4.8.06Z"/><g class="cls-11"><path class="cls-12" d="M4.46.44A4.73,4.73,0,0,1,6.1,2.34a1.23,1.23,0,0,0,.51-1.19A1.27,1.27,0,0,0,5.28.25,1.89,1.89,0,0,0,4.85.3,1.93,1.93,0,0,0,4.46.44Z"/></g><rect class="cls-16" x="3.09" y="7.19" width="78.1" height="60.56"/><rect class="cls-17" x="4.55" y="8.32" width="75.17" height="58.29"/><text class="cls-18" transform="translate(27.96 24.51) scale(0.99 1)">Cm is<tspan x="1.77" y="10">short</tspan><tspan x="7.67" y="20">for</tspan><tspan x="-15.31" y="30">centimetres</tspan></text><path class="cls-6" d="M70.73,69.27a11.77,11.77,0,0,1,2.44,0,3.13,3.13,0,0,0,.77,0,2.41,2.41,0,0,0,.8-.06,8.28,8.28,0,0,1,.75-.37,3.47,3.47,0,0,0,.76-.31,2.34,2.34,0,0,1,1.34-.37,1.34,1.34,0,0,1,.57.27c.17.13.26.42.44.5s.49-.06.69.06.13.18.2.24a.59.59,0,0,0,.42.12,1.46,1.46,0,0,1,.6,0c.32.13.41.32.78.33.52,0,1,0,1.56,0a2.71,2.71,0,0,1-.68.13,1.94,1.94,0,0,0-.89,0,2.81,2.81,0,0,1-.79.1.91.91,0,0,0-.69.29,1,1,0,0,1-.59.18c-.26,0-.34.17-.54.31a4.13,4.13,0,0,1-.73.32c-.24.09-.49.32-.75.18s-.17-.21-.32-.25a1.78,1.78,0,0,0-.35,0,1.09,1.09,0,0,1-.77-.48,3.17,3.17,0,0,0-1.65-.76,2.66,2.66,0,0,0-.69.07c-.32,0-.49-.16-.78-.23s-.49,0-.71,0a5.5,5.5,0,0,1-.68-.16l-.29,0Z"/><path class="cls-7" d="M72.75,69.4a.81.81,0,0,1,.36.11,1,1,0,0,0,.37,0,2.62,2.62,0,0,1,.41,0c.18,0,.31.15.49.19s.29,0,.41,0a.53.53,0,0,1,.21,0c.06,0,.09.11.14.15s.23,0,.36.06a.7.7,0,0,1,.31.14c.11.08.18.19.32.21a1,1,0,0,1,.46.1c.18.11.27.24.49.26s.5,0,.74,0a1.12,1.12,0,0,0,.78-.34,1.73,1.73,0,0,1,.41-.28c.17-.08.36-.13.53-.21a2.17,2.17,0,0,1,.41-.17,4.39,4.39,0,0,0,.58-.06,1.22,1.22,0,0,0-.41-.13,1.35,1.35,0,0,0-.47,0,.41.41,0,0,1-.37-.13.5.5,0,0,0-.37-.16,1.15,1.15,0,0,1-.48-.18A3.08,3.08,0,0,0,78,69c-.18-.06-.32-.21-.5-.26a1,1,0,0,0-.72.17,10.76,10.76,0,0,1-1.21.26,1.73,1.73,0,0,0-.4.12,1.38,1.38,0,0,1-.36.19,2.33,2.33,0,0,1-.69-.05,6.82,6.82,0,0,0-.73,0C73.16,69.45,72.9,69.23,72.75,69.4Z"/><path class="cls-19" d="M80.35,66.67a4.25,4.25,0,0,1-.39.79l-.27.46h0l-2.12,2a.24.24,0,0,1-.21-.1l0-.11,1.85-2,.15-.16.14-.24.58-1S80.34,66.53,80.35,66.67Z"/><path class="cls-20" d="M81.44,67.88l0,0,.07-.11v0l0-.1v0l0-.12.13-.49,0,.12v0l0,.1v0l-.07.11,0,0-.06.08,0,0-.09.09,0,0-.08.07,0,0-.11.07h0l-.1.05,0,0-.13.05h0l-.13,0h0l-.12,0h0l-.15,0h-.54l-.16,0a1.69,1.69,0,0,1-1.43-1.84v0l-.13.49v0a1.69,1.69,0,0,0,1.43,1.84l.16,0h.54l.14,0h0l.12,0h0l.13,0h0l.13-.05,0,0,.1-.06h0l.11-.07,0,0,.08-.07,0,0,.09-.09,0,0Z"/><path class="cls-21" d="M80.34,65.09a1.69,1.69,0,0,1,1.43,1.84,1.61,1.61,0,0,1-2,1,1.69,1.69,0,0,1-1.43-1.84A1.61,1.61,0,0,1,80.34,65.09Z"/><g class="cls-11"><path class="cls-12" d="M80.68,65.47A4.73,4.73,0,0,0,79,67.36a1.23,1.23,0,0,1-.51-1.19,1.27,1.27,0,0,1,1.32-.89,1.89,1.89,0,0,1,.43.05A1.93,1.93,0,0,1,80.68,65.47Z"/></g><path class="cls-6" d="M14.4,69.27a11.77,11.77,0,0,0-2.44,0,3.13,3.13,0,0,1-.77,0,2.41,2.41,0,0,1-.8-.06,8.28,8.28,0,0,0-.75-.37,3.47,3.47,0,0,1-.76-.31,2.34,2.34,0,0,0-1.34-.37,1.34,1.34,0,0,0-.57.27c-.17.13-.26.42-.44.5S6,68.89,5.84,69s-.13.18-.2.24a.59.59,0,0,1-.42.12,1.46,1.46,0,0,0-.6,0c-.32.13-.41.32-.78.33-.52,0-1,0-1.56,0a2.71,2.71,0,0,0,.68.13,1.94,1.94,0,0,1,.89,0,2.81,2.81,0,0,0,.79.1.91.91,0,0,1,.69.29,1,1,0,0,0,.59.18c.26,0,.34.17.54.31a4.13,4.13,0,0,0,.73.32c.24.09.49.32.75.18s.17-.21.32-.25a1.78,1.78,0,0,1,.35,0,1.09,1.09,0,0,0,.77-.48,3.17,3.17,0,0,1,1.65-.76,2.66,2.66,0,0,1,.69.07c.32,0,.49-.16.78-.23s.49,0,.71,0a5.5,5.5,0,0,0,.68-.16l.29,0Z"/><path class="cls-7" d="M12.39,69.4a.81.81,0,0,0-.36.11,1,1,0,0,1-.37,0,2.62,2.62,0,0,0-.41,0c-.18,0-.31.15-.49.19s-.29,0-.41,0a.53.53,0,0,0-.21,0c-.06,0-.09.11-.14.15s-.23,0-.36.06a.7.7,0,0,0-.31.14c-.11.08-.18.19-.32.21a1,1,0,0,0-.46.1c-.18.11-.27.24-.49.26s-.5,0-.74,0a1.12,1.12,0,0,1-.78-.34,1.73,1.73,0,0,0-.41-.28c-.17-.08-.36-.13-.53-.21a2.17,2.17,0,0,0-.41-.17,4.39,4.39,0,0,1-.58-.06A1.22,1.22,0,0,1,5,69.59a1.35,1.35,0,0,1,.47,0,.41.41,0,0,0,.37-.13.5.5,0,0,1,.37-.16,1.15,1.15,0,0,0,.48-.18A3.08,3.08,0,0,1,7.18,69c.18-.06.32-.21.5-.26a1,1,0,0,1,.72.17,10.76,10.76,0,0,0,1.21.26,1.73,1.73,0,0,1,.4.12,1.38,1.38,0,0,0,.36.19,2.33,2.33,0,0,0,.69-.05,6.82,6.82,0,0,1,.73,0C12,69.45,12.24,69.23,12.39,69.4Z"/><path class="cls-22" d="M4.79,66.67a4.25,4.25,0,0,0,.39.79l.27.46h0l2.12,2a.24.24,0,0,0,.21-.1l0-.11L6,67.7l-.15-.16-.14-.24-.58-1S4.8,66.53,4.79,66.67Z"/><path class="cls-23" d="M3.69,67.88l0,0-.07-.11v0l0-.1v0l0-.12L3.38,67l0,.12v0l0,.1v0l.07.11,0,0,.06.08,0,0,.09.09,0,0,.08.07,0,0,.11.07H4l.1.05,0,0,.13.05h0l.13,0h0l.12,0h0l.15,0h.54l.16,0a1.69,1.69,0,0,0,1.43-1.84v0l.13.49v0a1.69,1.69,0,0,1-1.43,1.84l-.16,0H4.84l-.14,0h0l-.12,0h0l-.13,0h0l-.13-.05,0,0-.1-.06h0L4,68.18l0,0-.08-.07,0,0L3.78,68l0,0Z"/><path class="cls-24" d="M4.8,65.09a1.69,1.69,0,0,0-1.43,1.84,1.61,1.61,0,0,0,2,1,1.69,1.69,0,0,0,1.43-1.84A1.61,1.61,0,0,0,4.8,65.09Z"/><g class="cls-11"><path class="cls-12" d="M4.46,65.47A4.73,4.73,0,0,1,6.1,67.36a1.23,1.23,0,0,0,.51-1.19,1.27,1.27,0,0,0-1.32-.89,1.89,1.89,0,0,0-.43.05A1.93,1.93,0,0,0,4.46,65.47Z"/></g></g></g></svg>