<svg id="Layer_1" data-name="Layer 1" xmlns="http://www.w3.org/2000/svg" xmlns:xlink="http://www.w3.org/1999/xlink" viewBox="0 0 74.66 142.24"><defs><style>.cls-1{fill:url(#linear-gradient);}.cls-2{fill:#004266;}.cls-3{fill:url(#linear-gradient-2);}.cls-4{fill:#ad7500;}.cls-5{fill:url(#radial-gradient);}.cls-6{fill:#d96e4c;}</style><linearGradient id="linear-gradient" x1="2.24" y1="34.04" x2="10.31" y2="34.04" gradientUnits="userSpaceOnUse"><stop offset="0" stop-color="#00e1ff"/><stop offset="1" stop-color="#004369"/></linearGradient><linearGradient id="linear-gradient-2" x1="-277.01" y1="-60.65" x2="-268.94" y2="-60.65" gradientTransform="translate(-242.63 31.51) rotate(180)" gradientUnits="userSpaceOnUse"><stop offset="0.24" stop-color="#ffb800"/><stop offset="1" stop-color="#cf9317"/></linearGradient><radialGradient id="radial-gradient" cx="6.28" cy="68.08" r="6.28" gradientUnits="userSpaceOnUse"><stop offset="0" stop-color="#afce22"/><stop offset="1" stop-color="#6db015"/></radialGradient></defs><title>longer</title><rect class="cls-1" x="2.24" width="8.07" height="68.08" rx="4.03" ry="4.03"/><circle class="cls-2" cx="6.28" cy="64.24" r="1.92"/><circle class="cls-2" cx="6.28" cy="3.84" r="1.92"/><circle class="cls-2" cx="6.28" cy="15.92" r="1.92"/><circle class="cls-2" cx="6.28" cy="28" r="1.92"/><circle class="cls-2" cx="6.28" cy="40.08" r="1.92"/><circle class="cls-2" cx="6.28" cy="52.16" r="1.92"/><rect class="cls-3" x="26.31" y="58.11" width="8.07" height="68.08" rx="4.03" ry="4.03" transform="translate(-56.27 48.45) rotate(-45)"/><circle class="cls-4" cx="8.99" cy="70.8" r="1.92" transform="translate(-47.43 27.09) rotate(-45)"/><circle class="cls-4" cx="51.7" cy="113.51" r="1.92" transform="translate(-65.12 69.8) rotate(-45)"/><circle class="cls-4" cx="43.16" cy="104.96" r="1.92" transform="translate(-61.58 61.26) rotate(-45)"/><circle class="cls-4" cx="34.62" cy="96.42" r="1.92" transform="translate(-58.04 52.72) rotate(-45)"/><circle class="cls-4" cx="26.07" cy="87.88" r="1.92" transform="translate(-54.5 44.18) rotate(-45)"/><circle class="cls-4" cx="17.53" cy="79.34" r="1.92" transform="translate(-50.97 35.64) rotate(-45)"/><circle class="cls-5" cx="6.28" cy="68.08" r="6.28"/><path class="cls-6" d="M30,127.79h1.35v9.34H35v1H30Z"/><path class="cls-6" d="M37,137.11A4.38,4.38,0,0,1,35.86,134,4.23,4.23,0,0,1,37,131a3.68,3.68,0,0,1,2.78-1.16,3.32,3.32,0,0,1,1.82.5,3.23,3.23,0,0,1,1.18,1.29V130h1.37v8.24H42.75v-1.68a3.25,3.25,0,0,1-3,1.81A3.62,3.62,0,0,1,37,137.11Zm5-.8a3.49,3.49,0,0,0,0-4.47A2.6,2.6,0,0,0,40,131a2.65,2.65,0,0,0-1.95.81,3,3,0,0,0-.81,2.21,3.17,3.17,0,0,0,.82,2.26,2.63,2.63,0,0,0,3.88,0Z"/><path class="cls-6" d="M47.69,130v1.4a2.54,2.54,0,0,1,2.48-1.53v1.42h-.36a2.13,2.13,0,0,0-1.58.55,2.66,2.66,0,0,0-.54,1.9v4.5H46.34V130Z"/><path class="cls-6" d="M52.39,137.11A4.38,4.38,0,0,1,51.27,134a4.23,4.23,0,0,1,1.11-3,3.68,3.68,0,0,1,2.78-1.16,3.32,3.32,0,0,1,1.82.5,3.22,3.22,0,0,1,1.18,1.29V130h1.37v8.45a3.69,3.69,0,0,1-3.83,3.84,4.62,4.62,0,0,1-2.75-.78,2.83,2.83,0,0,1-1.24-2H53a2,2,0,0,0,.91,1.17,3.17,3.17,0,0,0,1.77.46,2.4,2.4,0,0,0,1.76-.7,2.63,2.63,0,0,0,.71-2v-1.89A3.25,3.25,0,0,1,57,137.82a3.28,3.28,0,0,1-1.82.5A3.62,3.62,0,0,1,52.39,137.11Zm5-.8a3.49,3.49,0,0,0,0-4.47,2.6,2.6,0,0,0-1.95-.84,2.65,2.65,0,0,0-1.95.81,3,3,0,0,0-.81,2.21,3.18,3.18,0,0,0,.82,2.26,2.63,2.63,0,0,0,3.88,0Z"/><path class="cls-6" d="M65.17,138.32a3.73,3.73,0,0,1-2.85-1.17,4.33,4.33,0,0,1-1.1-3.09A4.27,4.27,0,0,1,62.33,131a4.2,4.2,0,0,1,5.74-.06,3.86,3.86,0,0,1,1.08,2.81,5.26,5.26,0,0,1-.06.81H62.6a2.84,2.84,0,0,0,.76,1.94,2.43,2.43,0,0,0,1.8.71,2.5,2.5,0,0,0,1.4-.37,2.22,2.22,0,0,0,.84-1h1.46a3.78,3.78,0,0,1-1.33,1.79A3.84,3.84,0,0,1,65.17,138.32ZM67,131.65a2.64,2.64,0,0,0-3.59,0,2.81,2.81,0,0,0-.79,1.91h5.12A2.58,2.58,0,0,0,67,131.65Z"/><path class="cls-6" d="M72.18,130v1.4a2.54,2.54,0,0,1,2.48-1.53v1.42H74.3a2.13,2.13,0,0,0-1.58.55,2.66,2.66,0,0,0-.54,1.9v4.5H70.83V130Z"/></svg>