<svg id="Layer_1" data-name="Layer 1" xmlns="http://www.w3.org/2000/svg" xmlns:xlink="http://www.w3.org/1999/xlink" viewBox="0 0 74.17 95.68"><defs><style>.cls-1{fill:url(#linear-gradient);}.cls-2{fill:#004266;}.cls-3{fill:url(#linear-gradient-2);}.cls-4{fill:#ad7500;}.cls-5{fill:url(#radial-gradient);}.cls-6{fill:#d96e4c;}</style><linearGradient id="linear-gradient" x1="2.24" y1="34.04" x2="10.31" y2="34.04" gradientUnits="userSpaceOnUse"><stop offset="0" stop-color="#00e1ff"/><stop offset="1" stop-color="#004369"/></linearGradient><linearGradient id="linear-gradient-2" x1="-36.77" y1="-82.29" x2="-28.7" y2="-82.29" gradientTransform="translate(-51.95 76.74) rotate(90)" gradientUnits="userSpaceOnUse"><stop offset="0.24" stop-color="#ffb800"/><stop offset="1" stop-color="#cf9317"/></linearGradient><radialGradient id="radial-gradient" cx="6.28" cy="68.08" r="6.28" gradientUnits="userSpaceOnUse"><stop offset="0" stop-color="#afce22"/><stop offset="1" stop-color="#6db015"/></radialGradient></defs><title>smaller</title><rect class="cls-1" x="2.24" width="8.07" height="68.08" rx="4.03" ry="4.03"/><circle class="cls-2" cx="6.28" cy="64.24" r="1.92"/><circle class="cls-2" cx="6.28" cy="3.84" r="1.92"/><circle class="cls-2" cx="6.28" cy="15.92" r="1.92"/><circle class="cls-2" cx="6.28" cy="28" r="1.92"/><circle class="cls-2" cx="6.28" cy="40.08" r="1.92"/><circle class="cls-2" cx="6.28" cy="52.16" r="1.92"/><rect class="cls-3" x="-3.69" y="39.98" width="68.08" height="8.07" rx="4.03" ry="4.03" transform="translate(-22.23 34.35) rotate(-45)"/><circle class="cls-4" cx="8.99" cy="65.36" r="1.92" transform="translate(-43.59 25.5) rotate(-45)"/><circle class="cls-4" cx="51.7" cy="22.66" r="1.92" transform="translate(-0.88 43.19) rotate(-45)"/><circle class="cls-4" cx="43.16" cy="31.2" r="1.92" transform="translate(-9.42 39.66) rotate(-45)"/><circle class="cls-4" cx="34.62" cy="39.74" r="1.92" transform="translate(-17.96 36.12) rotate(-45)"/><circle class="cls-4" cx="26.07" cy="48.28" r="1.92" transform="translate(-26.5 32.58) rotate(-45)"/><circle class="cls-4" cx="17.53" cy="56.82" r="1.92" transform="translate(-35.04 29.04) rotate(-45)"/><circle class="cls-5" cx="6.28" cy="68.08" r="6.28"/><path class="cls-6" d="M21.4,87.93a1.43,1.43,0,0,0,.31.95,1.85,1.85,0,0,0,.8.55,8.65,8.65,0,0,0,1.09.32q.6.13,1.2.31a5.18,5.18,0,0,1,1.09.44,2.08,2.08,0,0,1,.8.81A2.63,2.63,0,0,1,27,92.64a2.86,2.86,0,0,1-.92,2.12,3.41,3.41,0,0,1-2.49.9,4.17,4.17,0,0,1-2.55-.73,2.33,2.33,0,0,1-1-2h1.44a1.63,1.63,0,0,0,.56,1.14,2.19,2.19,0,0,0,1.48.44A2.27,2.27,0,0,0,25.11,94a1.55,1.55,0,0,0,.58-1.19,1.58,1.58,0,0,0-.31-1,1.88,1.88,0,0,0-.8-.55,8.08,8.08,0,0,0-1.09-.31c-.4-.08-.8-.19-1.2-.31a5.26,5.26,0,0,1-1.09-.46,2.13,2.13,0,0,1-.8-.83A2.71,2.71,0,0,1,20.07,88,2.67,2.67,0,0,1,21,85.85a3.57,3.57,0,0,1,2.42-.8,3.73,3.73,0,0,1,2.38.7,2.72,2.72,0,0,1,1,1.93h-1.5a1.53,1.53,0,0,0-.57-1,2.06,2.06,0,0,0-1.38-.44,2.19,2.19,0,0,0-1.42.44A1.57,1.57,0,0,0,21.4,87.93Z"/><path class="cls-6" d="M30.36,87.31v1.33A2.83,2.83,0,0,1,33,87.18a3.2,3.2,0,0,1,1.69.46A2.86,2.86,0,0,1,35.86,89a3.36,3.36,0,0,1,1.21-1.31,3.25,3.25,0,0,1,1.75-.47,3.1,3.1,0,0,1,2.29.91A3.51,3.51,0,0,1,42,90.67v4.88H40.67V90.9a2.68,2.68,0,0,0-.6-1.89,2.41,2.41,0,0,0-3.28,0,2.68,2.68,0,0,0-.6,1.89v4.65H34.85V90.9A2.7,2.7,0,0,0,34.26,89a2.12,2.12,0,0,0-1.64-.64A2.14,2.14,0,0,0,31,89a2.68,2.68,0,0,0-.6,1.89v4.65H29V87.31Z"/><path class="cls-6" d="M44.74,94.48a4.38,4.38,0,0,1-1.11-3.09,4.23,4.23,0,0,1,1.11-3,3.68,3.68,0,0,1,2.78-1.16,3.32,3.32,0,0,1,1.82.5A3.22,3.22,0,0,1,50.52,89V87.31h1.37v8.24H50.52V93.87a3.25,3.25,0,0,1-1.18,1.31,3.28,3.28,0,0,1-1.82.5A3.62,3.62,0,0,1,44.74,94.48Zm5-.8a3.49,3.49,0,0,0,0-4.47,2.6,2.6,0,0,0-1.95-.84,2.65,2.65,0,0,0-1.95.81A3,3,0,0,0,45,91.38a3.18,3.18,0,0,0,.82,2.26,2.63,2.63,0,0,0,3.88,0Z"/><path class="cls-6" d="M54.11,95.55V84.45h1.35v11.1Z"/><path class="cls-6" d="M57.69,95.55V84.45H59v11.1Z"/><path class="cls-6" d="M64.68,95.68a3.73,3.73,0,0,1-2.85-1.17,4.33,4.33,0,0,1-1.1-3.09,4.27,4.27,0,0,1,1.11-3.08,4.2,4.2,0,0,1,5.74-.06,3.86,3.86,0,0,1,1.08,2.81,5.26,5.26,0,0,1-.06.81H62.11a2.84,2.84,0,0,0,.76,1.94,2.43,2.43,0,0,0,1.8.71,2.5,2.5,0,0,0,1.4-.37,2.22,2.22,0,0,0,.84-1h1.46A3.78,3.78,0,0,1,67.05,95,3.84,3.84,0,0,1,64.68,95.68ZM66.51,89a2.64,2.64,0,0,0-3.59,0,2.81,2.81,0,0,0-.79,1.91h5.12A2.58,2.58,0,0,0,66.51,89Z"/><path class="cls-6" d="M71.69,87.31v1.4a2.54,2.54,0,0,1,2.48-1.53V88.6h-.36a2.13,2.13,0,0,0-1.58.55,2.66,2.66,0,0,0-.54,1.9v4.5H70.34V87.31Z"/></svg>