<svg id="Layer_1" data-name="Layer 1" xmlns="http://www.w3.org/2000/svg" viewBox="0 0 676.03 210.03"><defs><style>.cls-1{fill:#55890b;}.cls-2{fill:#e5f388;}</style></defs><title>background</title><path class="cls-1" d="M666.23,205.19c-59.07,16.91-70-15.95-134.65-15.95s-64.68,16.67-129.36,16.67-64.68-16.67-129.35-16.67-64.68,16.67-129.36,16.67-65,1-124.07-15.95c-26.35-7.54-18.28-10.9-18.28-29.41s26-18.51,26-37-26-18.51-26-37,26-18.51,26-37S-17.49,12.38,8.86,4.83C20.24,1.58,32.07-.46,43.94.09,55.36.63,66.55,3.45,77.82,5.23a405.59,405.59,0,0,0,84.63,4.43q15.26-.8,30.43-2.75c12.33-1.59,24.6-3.75,37-4.62,14.37-1,28.79-.25,43.12.94,23.56,2,46.83,5.79,70.43,6.87,24.69,1.13,49.4,2.26,74.1,1.64,20.32-.52,40.58-2.22,60.78-4.37C488.43,6.3,498.52,5,508.62,3.9c7.41-.83,15.41.21,23,.21,64.68,0,65-1,124.07,15.95C682,27.6,673.93,31,673.93,49.47s-26,18.51-26,37,26,18.51,26,37-33.14,21.37-25.52,39.23C658.51,186.42,692.58,197.65,666.23,205.19Z" transform="translate(0 0)"/><path class="cls-2" d="M637.29,196.36c-53.86,15.42-63.8-14.54-122.77-14.54s-59,15.2-118,15.2-59-15.2-118-15.2-59,15.2-118,15.2-59.27.87-113.13-14.54c-4.46-1.28-14.39-3.21-16.84-8-1.51-2.91-.08-8.86.32-12a41.24,41.24,0,0,1,3.37-12.35c1.15-2.43,2.6-4.69,3.88-7.05a53.42,53.42,0,0,0,5.61-16c1.34-7.5.93-15.86-3.19-22.48-3.73-6-9.83-8.33-9.83-16.47,0-5.32,2.71-9.54,6.63-12.93,1.74-1.51,4.09-2.41,5.74-3.84,2.13-1.85,2.72-5.38,3.12-8a48.9,48.9,0,0,0-2.9-25.12c-3.13-7.87-23.14-19.52-5.57-24.55,54-15.42,63.9,14.54,122.87,14.54S219.6,13,278.6,13s59,15.2,118,15.2,59-15.2,118-15.2,59.27-.87,113.13,14.54c24,6.88,16.67,9.94,16.67,26.82,0,7.45-4.94,10.21-9.11,15.31-4.74,5.8-6.21,14.49-4.54,21.65a50.82,50.82,0,0,0,5.07,12.1l6.09,11.68a22.66,22.66,0,0,1,1.84,4.19c1.07,3.76.13,7.81-1.44,11.39s-3.76,6.86-5.35,10.42a34.71,34.71,0,0,0-3,11.41,44.93,44.93,0,0,0,2,16.11c1.41,4.79,3.11,11,6,15.08,1.69,2.34,5.14,3.74,4,7.31C645,194.28,640.1,195.55,637.29,196.36Z" transform="translate(0 0)"/></svg>