<svg id="Layer_1" data-name="Layer 1" xmlns="http://www.w3.org/2000/svg" viewBox="0 0 41.35 146.09"><title>lizardNew</title><path d="M12.47,22.09a9.13,9.13,0,0,1-.39-3.42,30.46,30.46,0,0,1,1.67,4.59,2.53,2.53,0,0,1,.67-1.93l.45,4.31a7.21,7.21,0,0,1,0,2.63c-.11.41-.17,1,.28,1.09a.83.83,0,0,0,.37,0l3.59-1.06c1.16-.34,2.24-1,3.46-.93a1.86,1.86,0,0,1,.85.23c.33.21.29.9.2,1.26-3.53,1-6.24,3.81-9.84,4.52a1.93,1.93,0,0,1-1.8-.32,1.74,1.74,0,0,1-.23-1.42l.18-1.35.07-.5a5.24,5.24,0,0,0-.24-3.17,4.08,4.08,0,0,0-1.13-1.27,19.21,19.21,0,0,1-2.29-1.8,5.86,5.86,0,0,1,3,1.21c-.74-2.27-2.9-3.86-4.23-5.89,2,.71,2.73,3.19,4.71,4A26,26,0,0,1,10,17.19a2.59,2.59,0,0,1,.86,1.23Z" fill="#080307"/><path d="M15.88,30.14a3.94,3.94,0,0,0-3,.87,1.33,1.33,0,0,0-.49.69.6.6,0,0,0,.36.7,1.05,1.05,0,0,0,.85-.21,8.69,8.69,0,0,1,1.88-1c.35-.11.71-.16,1.06-.29a1.29,1.29,0,0,0,.81-.64c-.21-.19-.37-.08-.61,0A3.24,3.24,0,0,1,15.88,30.14Z" fill="#fff" opacity="0.25"/><path d="M20,62.34a4.67,4.67,0,0,1,1.06.69h0a1.86,1.86,0,0,1,.42.54,3,3,0,0,1,.24,1.06l.21,2a.94.94,0,0,1-.12.71c-.29.35-.89.2-1.33,0l-.08,0-2.37-1-1.49-.64h0l0,0a3.26,3.26,0,0,1,.73,2.26,22.46,22.46,0,0,1-.29,2.39,21.9,21.9,0,0,0,.39,6,5.73,5.73,0,0,0,.73,2.34,1.63,1.63,0,0,1-.52-.13h0a2.15,2.15,0,0,1-1-1,5.16,5.16,0,0,1-.45-1.85l-.5-4.35,0,0a6.32,6.32,0,0,0-2.13,2.36,18,18,0,0,0-2,3.66A22.92,22.92,0,0,1,8,83.28a1.52,1.52,0,0,0-.45,1,1.45,1.45,0,0,1-.21-.62,2.27,2.27,0,0,1,.21-1.14,13.49,13.49,0,0,1,1-1.58,13,13,0,0,0,1.21-2.76q.64-1.87,1.24-3.76a2.43,2.43,0,0,1-.6.82c-.33.34-.72.66-.93.9L7.8,77.93c-.32.35-.87,1.3-1.45,1.22A.63.63,0,0,1,6,79c-.33-.28-.1-.91.11-1.22a17,17,0,0,1,2-2.45l0,0a.46.46,0,0,1-.05-.12,1,1,0,0,1,.3-.83l1.57-2a.59.59,0,0,0,.16-.33,1.13,1.13,0,0,0-.08-.29c-.12-.43.27-.82.63-1.11l1.76-1.46.68-.57a7.06,7.06,0,0,0-1.19-3.41h0l-.1-.19A5.74,5.74,0,0,1,11,62.11a2.66,2.66,0,0,1,.16-.8,1.52,1.52,0,0,1,.41-.63,1.71,1.71,0,0,1,.52-.29c1.39-.53,3,0,4.37.47A33.2,33.2,0,0,1,20,62.34Z" fill="#2a304a"/><path d="M12.64,64.12c.07.06.17.12.25.07S13,64.1,13,64a.55.55,0,0,1,.51-.29,1.56,1.56,0,0,1,.61.15,21.93,21.93,0,0,1,2.43,1.22,5.32,5.32,0,0,1,.77.49,10.07,10.07,0,0,1,.78.79,5.26,5.26,0,0,0,1.32,1,1.31,1.31,0,0,0,.53.17.51.51,0,0,0,.48-.22c.11-.21,0-.46-.18-.66l-.5-.7c-.16-.22-.37-.47-.66-.45l-.23,0a.89.89,0,0,1-.62-.31A10.86,10.86,0,0,0,16.66,64l.37.57c-.23,0-.42-.15-.58-.31a6.67,6.67,0,0,0-3.17-1.41,1.51,1.51,0,0,0-.51,0C12,63,12.26,63.76,12.64,64.12Z" fill="#fff" opacity="0.25"/><path d="M20,62.34a4.67,4.67,0,0,1,1.06.69h0l-.4,2.07a4.17,4.17,0,0,1-1.25-.84,13.77,13.77,0,0,0-6.06-2.89,2.57,2.57,0,0,0-1.75.09,1.5,1.5,0,0,0-.61.66,2.66,2.66,0,0,1,.16-.8,1.52,1.52,0,0,1,.41-.63,1.71,1.71,0,0,1,.52-.29c1.39-.53,3,0,4.37.47A33.2,33.2,0,0,1,20,62.34Z" fill="#080307"/><path d="M16.53,65.7l0,0a3.26,3.26,0,0,1,.73,2.26,22.46,22.46,0,0,1-.29,2.39,21.9,21.9,0,0,0,.39,6,5.73,5.73,0,0,0,.73,2.34,1.63,1.63,0,0,1-.52-.13h0a6.14,6.14,0,0,1-.81-3L16.59,74l-.16-1.74a8.17,8.17,0,0,1,0-2.63,3.14,3.14,0,0,0,.13-.73,2.24,2.24,0,0,0-.11-.59,8.16,8.16,0,0,0-.64-1.76,3,3,0,0,0-1.36-1.33c-.29-.13-.64-.23-.77-.5a.21.21,0,0,1,0-.24.33.33,0,0,1,.3,0A5.71,5.71,0,0,1,16.53,65.7Z" fill="#080307"/><path d="M6.35,79.15A.63.63,0,0,1,6,79a9.92,9.92,0,0,0,1.74-2,20.81,20.81,0,0,1,3.57-3.7,11.09,11.09,0,0,1-1,1.92c-.33.34-.72.66-.93.9L7.8,77.93C7.49,78.28,6.93,79.23,6.35,79.15Z" fill="#080307"/><path d="M10.18,72.92a7,7,0,0,1-2,2.42l0,0a.46.46,0,0,1-.05-.12,1.11,1.11,0,0,0,.3-.16,3.45,3.45,0,0,0,.7-.91A6.65,6.65,0,0,1,10.18,72.92Z" fill="#080307"/><path d="M15.42,71a1,1,0,0,1,.09.43,6.32,6.32,0,0,0-2.13,2.36,18,18,0,0,0-2,3.66A22.92,22.92,0,0,1,8,83.28a1.52,1.52,0,0,0-.45,1,1.45,1.45,0,0,1-.21-.62c.8-1.28,1.6-2.57,2.37-3.87a13,13,0,0,0,.83-1.57c.23-.55.39-1.12.6-1.67A15.06,15.06,0,0,1,13.06,73,5.36,5.36,0,0,1,15.42,71Z" fill="#080307"/><path d="M11.95,65.17a6.82,6.82,0,0,1,1.76,2.19,7.34,7.34,0,0,1,.36,1.09,3.19,3.19,0,0,1,.15.87,2.58,2.58,0,0,1-.18.82A12.5,12.5,0,0,1,12,73.47c-.06-.58.41-1.11.4-1.69a.32.32,0,0,0-.06-.21.34.34,0,0,0-.3-.09,1.29,1.29,0,0,0-.8.58l-.59.75c.09-.72.81-1.26,1-2a1.47,1.47,0,0,0-.8.31c-.06,0,0-.1,0-.14a4.45,4.45,0,0,1,1-.92,1.69,1.69,0,0,0,.67-.94l.68-.57A7.06,7.06,0,0,0,11.95,65.17Z" fill="#fff" opacity="0.25"/><path d="M13.39,25.1a2.87,2.87,0,0,1,.27,1.62c-.18.78-1,1.32-1.3,2.06A9.1,9.1,0,0,0,12,29.92a2.29,2.29,0,0,1-.13.32l.07-.5a5.24,5.24,0,0,0-.24-3.17,4.08,4.08,0,0,0-1.13-1.27c.28,0,.55.05.77.06s.48,0,.56-.2c0,.1.2.12.27,0a.26.26,0,0,0,0-.3,2.87,2.87,0,0,0-.19-.26.69.69,0,0,1-.09-.63c.3.15.44.47.62.74S13.09,25.25,13.39,25.1Z" fill="#fff" opacity="0.25"/><path d="M23,6.45c.64,1.62,1,2.92,1,2.92l0,.06A39.92,39.92,0,0,1,27,17.54a18.73,18.73,0,0,0,1.5,7.69l.12.27c.28.62.48,1,.48,1s2.18-1.53,1.94.72A6.2,6.2,0,0,0,31,28c.12,3.25,1.74,12,2.66,19.09.49,3.74-.66,8.1-2,11.61-.3.79-.6,1.54-.9,2.22-.7,1.62-1.36,2.91-1.76,3.64-.23.43-.37.67-.37.67s0,.92,0,2.48c-.11,5.87-1.06,20.79-7.61,30.1a43.13,43.13,0,0,1-4.09,5.09c-1.27,1.32-2.85,2.13-4.11,3.47a50.43,50.43,0,0,0-7.27,10A16.39,16.39,0,0,0,4,119.89c-1,3.61-.4,7-.09,10.64a67.88,67.88,0,0,1-.4,12.1,14.43,14.43,0,0,1-.61,3.47,81.42,81.42,0,0,0-1.32-12.83c-.68-4-2-7.92-1.44-12,.78-6,4.45-11.51,8.85-15.91a53.46,53.46,0,0,0,8.67-11.71c4.13-7.21,3.76-16.09,2.78-21.21-.31-1.65-.56-3.2-.76-4.67l0-.34L19.55,67c-.06-.48-.12-.95-.18-1.41s-.12-1-.18-1.51q-.13-1.13-.25-2.23c-.09-.86-.19-1.71-.29-2.55l0-.15A71.37,71.37,0,0,1,18.41,44,63.84,63.84,0,0,0,18.8,36c0-1.13,0-2.05,0-2.69a5.41,5.41,0,0,0,0-1c0-.34-.1-.74-.19-1.17-.15-.77-.38-1.67-.66-2.63a32.47,32.47,0,0,0-3-7.12c-2.36-3.94-2.8-9.84-2.8-9.84a4.9,4.9,0,0,1,.64-5.35,10.5,10.5,0,0,0,1.06-1.83c.47-.93,1-2,1.41-2.86l.27-.52A2.41,2.41,0,0,1,17.93,0a4,4,0,0,1,.63.08C20.39.53,22,3.9,23,6.45Z" fill="#161416"/><path d="M12.5,106.38a.43.43,0,0,0-.27,0,2.32,2.32,0,0,1-.29.09.49.49,0,0,1-.56-.43,5.4,5.4,0,0,0-1.9,2,5,5,0,0,1-1.95,1.92c-.05,0-.12,0-.16,0a.12.12,0,0,1,0-.07,2.28,2.28,0,0,1,.2-1.1,1.68,1.68,0,0,0,.11-.93c-.07-.28-.3-.29-.56-.41-3.53,4-6.3,8.76-7,13.9-.52,4,.76,8,1.44,12a81.42,81.42,0,0,1,1.32,12.83,14.42,14.42,0,0,0,.61-3.47,67.88,67.88,0,0,0,.4-12.1c-.31-3.61-.91-7,.09-10.64a16.39,16.39,0,0,1,1.57-3.54q.86-1.55,1.84-3,1.22-1.87,2.61-3.64.7-.88,1.43-1.74l.75-.85c.11-.12.63-.52.34-.69Z" fill="#2c73e7"/><path d="M17.24.52a.4.4,0,0,1,.38.29c0,.21-.17.39-.26.59a1.06,1.06,0,0,0,.12.92,2.93,2.93,0,0,1,.39.88,2.13,2.13,0,0,1-.39,1.26C16.65,6,16,7.71,16.51,9.34a1.71,1.71,0,0,1,.1.45,2.44,2.44,0,0,1-.07.46A1.65,1.65,0,0,0,17,11.64a.62.62,0,0,1,.17.24c.06.22-.18.39-.29.59-.19.37.1.78.22,1.17A3.08,3.08,0,0,1,16.46,16v-3.1a1.27,1.27,0,0,0,0-.34c-.09-.33-.42-.55-.55-.86-.19-.49.15-1,.16-1.53A2.83,2.83,0,0,0,16,9.6a7,7,0,0,1,.49-4.31A3.68,3.68,0,0,0,17,3.39a8.67,8.67,0,0,0-.36-1.14,1,1,0,0,1,.27-1.09s-.17-.39-.14-.47S17.12.52,17.24.52Z" fill="#e3793d"/><path d="M15.25,1.59c0,.12,0,.24,0,.37,0,1.07-.76,2-.82,3.1a7.32,7.32,0,0,0,.15,1.37,8,8,0,0,1-.09,2.71,3.92,3.92,0,0,0-.16,1.82,2.67,2.67,0,0,1,.13.5,1.46,1.46,0,0,1-.05.43l-.28,1.23a.13.13,0,0,1-.06.1.14.14,0,0,1-.13,0,.9.9,0,0,1-.3-.92,6.35,6.35,0,0,0,.2-1c0-.22-.06-.44-.08-.66a8.86,8.86,0,0,1,.45-2.11,5.78,5.78,0,0,0-.08-1.83c-.07-.45-.13-.89-.21-1.34a4.55,4.55,0,0,1-.1-.82v0C14.31,3.52,14.83,2.42,15.25,1.59Z" fill="#e3793d"/><path d="M15.06,15.28a2,2,0,0,1,.31.42.18.18,0,0,1,0,.12.16.16,0,0,1-.16.09.46.46,0,0,1-.19-.06l-.52-.3a.69.69,0,0,1-.17-.14.58.58,0,0,1-.08-.16,2.31,2.31,0,0,1-.15-.7c0-.49.17-.34.37,0A7.63,7.63,0,0,0,15.06,15.28Z" fill="#e3793d"/><path d="M15.46,17a.69.69,0,0,1,0-.53.56.56,0,0,1,.43-.2,3,3,0,0,1,.43,0,.53.53,0,0,1,.3.08.45.45,0,0,1,.11.44c0,.3.09.71-.41.69A1.72,1.72,0,0,1,15.46,17Z" fill="#e3793d"/><path d="M20.12,9a1.58,1.58,0,0,1,.06.56c0,.14-.08.28-.09.42a1.57,1.57,0,0,0,.07.49,25.43,25.43,0,0,1,.25,3.62,15.57,15.57,0,0,0,.79,3.31q.26.8.53,1.59a.37.37,0,0,1-.45,0,1,1,0,0,1-.24-.39,7.81,7.81,0,0,0-.76-1.37,3.39,3.39,0,0,1-.31-.49,2.67,2.67,0,0,1-.17-.57,9.65,9.65,0,0,1-.23-1.41c-.05-.89.14-1.78.06-2.66a10.28,10.28,0,0,1-.12-1.23c0-.27.06-.53.07-.8.06-1.48-1.22-2.8-1.17-4.28a4.91,4.91,0,0,1,.1-.72c.05-.27.31-1.1.53-.47a14.76,14.76,0,0,1,.35,1.5Z" fill="#e3793d"/><path d="M23,6.45l.41,1.79c0,.2.09.4.12.6a2.85,2.85,0,0,1-.46,2A1.25,1.25,0,0,1,23.58,12c-.05.37-.28.75-.14,1.1s.35.42.31.66-.15.26-.16.41c0,.33.5.56.41.88-.19.07-.35.23-.56.22S23,15,23,14.69a6.77,6.77,0,0,0,.16-.77,5.45,5.45,0,0,0-.2-.79,4.66,4.66,0,0,1,0-.56,8.37,8.37,0,0,0-.18-1c-.23-1.36.36-2.77,0-4.11a3.25,3.25,0,0,0-.89-1.52,14.6,14.6,0,0,1-1.49-1.31A8.92,8.92,0,0,1,19.52,2a4.44,4.44,0,0,0-1.6-2,4,4,0,0,1,.63.08C20.39.53,22,3.9,23,6.45Z" fill="#50311f"/><path d="M24.18,16.85s.11.69.37,1.9c.13.6.29,1.33.51,2.16s.49,1.76.83,2.76c.17.5.37,1,.58,1.54l.17.4c.06.13.11.27.18.4l.39.81c.28.54.54,1.12.79,1.71l.37.9.35.93c.06.16.12.31.17.47l.16.48.16.48.15.49.3,1,.27,1c0,.17.09.34.13.51l.12.51.24,1,.21,1,.1.52c0,.17.06.35.09.52l.17,1,0,.26,0,.26.07.52.13,1,.1,1c0,.35.07.69.09,1l.05,1c0,.34,0,.68,0,1v2l0,1c0,.63,0,1.26-.08,1.86l-.06.89,0,.44,0,.22s0,0,0,.06v.05l0,.11c-.08.57-.19,1.11-.29,1.63-.21,1-.46,2-.71,2.8s-.5,1.54-.74,2.11l-.17.41-.16.36-.14.31-.13.25-.23.46.21-.47.11-.25.12-.31.14-.36.15-.41c.22-.58.44-1.3.66-2.12s.43-1.77.63-2.81c.09-.52.18-1.06.25-1.62v-.42l0-.43,0-.89c0-.6,0-1.22,0-1.85v-1l0-1,0-1c0-.33,0-.67-.06-1l-.06-1c0-.34-.06-.68-.09-1l-.1-1-.14-1L30.69,40l0-.26,0-.26-.17-1c0-.17-.05-.35-.09-.52l-.1-.52-.2-1-.23-1-.12-.51c0-.17-.09-.34-.13-.5l-.26-1-.29-1c0-.16-.09-.33-.15-.49l-.16-.48-.16-.48c-.05-.16-.1-.32-.16-.47l-.34-.92-.35-.9c-.24-.59-.49-1.16-.75-1.71l-.38-.82c-.06-.14-.12-.27-.17-.41l-.16-.4q-.31-.81-.56-1.57c-.33-1-.57-2-.76-2.79s-.33-1.57-.44-2.18-.18-1.09-.22-1.41S24.18,16.85,24.18,16.85Z" fill="#e3793d"/><path d="M20.79,16.7c0,.11,4.22,10.81,5.34,14.39s3.33,17.77,1.66,22.82c-1.26,3.8-1.23,11.9-1.16,15.15,0,.85,0,1.37,0,1.39a59.56,59.56,0,0,1-1.49,13.89,46.72,46.72,0,0,1-4.06,11.31l-.33.61a30.26,30.26,0,0,1-9.08,10.41l-.39-.47c8.09-5.68,11.66-15.08,13.22-22A59.1,59.1,0,0,0,26,70.47c0-.1,0-.69,0-1.59-.07-3.39-.08-11.29,1.2-15.14,1.61-4.86-.6-19.06-1.66-22.49S20.23,17,20.19,16.9Z" fill="#e3793d"/><path d="M16.39,16.92c0,.05,1.63,5.3,3,7.34,1.49,2.22,3.51,10.59,3.79,15.71,0,.83.1,1.62.15,2.38a78.24,78.24,0,0,1-.24,15.22,67.38,67.38,0,0,0-.29,12.16c.06.68.11,1,.11,1.05a44.5,44.5,0,0,1,.28,8.48,39.53,39.53,0,0,1-4.07,15.83q-.32.61-.68,1.22c-3.47,5.91-6.77,8.74-8.94,10.07A6.38,6.38,0,0,0,7,108.5a6.59,6.59,0,0,1-1,1.56,6.87,6.87,0,0,0,.56-1,15.78,15.78,0,0,1,1-1.85,3.34,3.34,0,0,1,.7-.82c.3-.22.68-.37,1-.57,2.09-1.3,5.29-4.06,8.67-9.82a38.06,38.06,0,0,0,4.67-16.79,44.13,44.13,0,0,0-.27-8.38s-.06-.41-.12-1.16a68.27,68.27,0,0,1,.29-12.18,77.76,77.76,0,0,0,.24-15.13c0-.77-.1-1.56-.14-2.39-.3-5.46-2.37-13.45-3.69-15.43s-3-7.27-3.07-7.49Z" fill="#e3793d"/><path d="M18.79,32.39A32.58,32.58,0,0,1,19.66,39,45,45,0,0,0,20,43.67a29.27,29.27,0,0,1-.27,8.81,79.39,79.39,0,0,0,0,15.32c-.43-3.06-.67-5.82-1-8.51a51.35,51.35,0,0,1,.4-6.89,28.52,28.52,0,0,0,.27-8.67A45.15,45.15,0,0,1,19,39a26.48,26.48,0,0,0-.22-3c0-1.13,0-2.05,0-2.69A5.41,5.41,0,0,0,18.79,32.39Z" fill="#e3793d"/><path d="M24.08,9.43A39.92,39.92,0,0,1,27,17.54a18.73,18.73,0,0,0,1.5,7.69h0c-.29,0-.46-.32-.58-.56a11.72,11.72,0,0,1-1.28-3.42c-.21-1.36,0-2.83-.74-4a.66.66,0,0,1-.13-.28c0-.18.13-.33.2-.49a1,1,0,0,0-.12-.87,6,6,0,0,1-.44-.8c-.15-.44-.09-1-.44-1.31a.33.33,0,0,0-.31-.1c-.05,0-.09.05-.14.06s-.26-.14-.29-.29c-.14-.8.2-1.67-.13-2.42h.36A1.52,1.52,0,0,1,24.08,9.43Z" fill="#50311f"/><path d="M33.08,12.89l.08.29c-.13-.94.79-1.78,1.78-2a1.88,1.88,0,0,1,2,.58,4.16,4.16,0,0,0-2.24.54,1.47,1.47,0,0,0-.66.64,1.54,1.54,0,0,0-.06.76,14.84,14.84,0,0,0,.8,3.58,7.5,7.5,0,0,0,.12-1.69,2.89,2.89,0,0,1,.43-1.63A1.49,1.49,0,0,1,37,13.31c0,.05,0,.14-.08.15a1,1,0,0,1-.22,0c-.25,0-.37.23-.42.48a1.47,1.47,0,0,0,0,.27,22.6,22.6,0,0,1-.43,4.13,4.53,4.53,0,0,0-.11.71,1.64,1.64,0,0,0,0,.35c0,.19.11.37.15.56a4.68,4.68,0,0,1,0,1,7.9,7.9,0,0,0,.3,2c.06.28.12.56.16.84a2.65,2.65,0,0,1-.86,2.61,4.59,4.59,0,0,1-1.58.56,14.29,14.29,0,0,0-4.3,1.82,1,1,0,0,1-.39.18.92.92,0,0,1-.71-.34c-.63-.6-1.19-1.45-.87-2.22s1.14-1,1.87-1.3a11.42,11.42,0,0,0,2-1.08,2,2,0,0,0,.68-.65,1.39,1.39,0,0,0,.15-.69c0-.23,0-.47-.06-.7a16.29,16.29,0,0,1,.18-2.33,4,4,0,0,0-.68-2.12,8.17,8.17,0,0,1-.8-2.21,2.78,2.78,0,0,1,1.29,1.46L31.39,13a1.94,1.94,0,0,1-.06-.86.83.83,0,0,1,.1-.24.71.71,0,0,1,.42-.33l.08,0c0-.42,0-.84,0-1.26a1,1,0,0,1,.15-.69.48.48,0,0,1,.27-.16.36.36,0,0,1,.39.11A10.57,10.57,0,0,0,33.08,12.89Z" fill="#080307"/><path d="M34.95,11.15a1.88,1.88,0,0,1,2,.58,4.16,4.16,0,0,0-2.24.54,1.47,1.47,0,0,0-.66.64,1.54,1.54,0,0,0-.06.76,14.84,14.84,0,0,0,.8,3.58,7.5,7.5,0,0,0,.12-1.69,2.89,2.89,0,0,1,.43-1.63A1.49,1.49,0,0,1,37,13.31c0,.05,0,.14-.08.15a1,1,0,0,1-.22,0c-.25,0-.37.23-.42.48a.61.61,0,0,0-.57.27,1.21,1.21,0,0,0,0,.6,2.55,2.55,0,0,1-.14.71,6.88,6.88,0,0,0-.18,2.86.91.91,0,0,0,.3.63l.07,0a1.64,1.64,0,0,0,0,.35c0,.19.11.37.15.56a4.68,4.68,0,0,1,0,1,7.9,7.9,0,0,0,.3,2,.65.65,0,0,0,0,.08c0,.47.16,1-.16,1.38s-.7.33-1,.54l-.07,0c-.22.17-.35.42-.57.58A1,1,0,0,1,33,25.43a.5.5,0,0,1-.11-.28c0-.38.54-.56.68-.91a.48.48,0,0,0,0-.21c0-.35-.4-.66-.74-.89l-.63-.44c0-.23,0-.47-.06-.7a16.29,16.29,0,0,1,.18-2.33,4,4,0,0,0-.68-2.12,8.17,8.17,0,0,1-.8-2.21,2.78,2.78,0,0,1,1.29,1.46L31.39,13a1.94,1.94,0,0,1-.06-.86.83.83,0,0,1,.1-.24,1.15,1.15,0,0,1,.17.45,29.82,29.82,0,0,0,1.29,4.07c0-1.2-.66-2.31-.83-3.5-.06-.38-.06-.77-.15-1.14,0-.07,0-.14-.06-.21l.08,0c0-.42,0-.84,0-1.26a1,1,0,0,1,.15-.69.48.48,0,0,1,.27-.16,1.58,1.58,0,0,1,0,.48,12.55,12.55,0,0,0,.79,5.36,7.77,7.77,0,0,0,.46,1.27,23.54,23.54,0,0,1-.47-2.95,3.14,3.14,0,0,1,0-.69l.08.29C33,12.23,33.95,11.39,34.95,11.15Z" fill="#fff" opacity="0.25"/><path d="M33.8,18.54a1.54,1.54,0,0,0,0,.35.67.67,0,0,0,.47.52.34.34,0,0,0,.25,0,.35.35,0,0,0,.13-.15,1.79,1.79,0,0,0,.17-1.12.68.68,0,0,0-.07-.22c-.09-.17-.29-.26-.43-.41s-.22-.38-.42-.43-.23.07-.22.23A8.88,8.88,0,0,1,33.8,18.54Z" fill="#fff" opacity="0.25"/><path d="M34,20.93a4,4,0,0,1,1.09,2.79,5.4,5.4,0,0,1-.07.69,3.81,3.81,0,0,1-.13.58l-.07,0c-.22.17-.35.42-.57.58A1,1,0,0,1,33,25.43a.5.5,0,0,1-.11-.28c0-.38.54-.56.68-.91a.48.48,0,0,0,0-.21.57.57,0,0,0,.28-.39,1.43,1.43,0,0,0,0-.56,2.33,2.33,0,0,0-.19-.65c-.12-.23-.3-.41-.43-.63a.7.7,0,0,1-.06-.71.72.72,0,0,1,.4-.28.41.41,0,0,1,.22,0A.43.43,0,0,1,34,20.93Z" fill="#fff" opacity="0.25"/><path d="M28.34,38.77a33,33,0,0,0-1.17-4.93,36.33,36.33,0,0,0-4.9-10.06c-1.6-2.17-1.2-5-1.39-7.66A31.68,31.68,0,0,0,19.61,10,1.79,1.79,0,0,0,19,8.94c-.35-.24-1-.15-1.07.25a.85.85,0,0,1,.75,1.08,1.54,1.54,0,0,0-1.16,1.1c.31-.5,1.23-.15,1.4.4a5,5,0,0,1-.09,1.71,7.2,7.2,0,0,1,0,1.32.93.93,0,0,1-1,.76,3.37,3.37,0,0,1,1.48.25l-1.2.74a1.56,1.56,0,0,1,1.57.17,3.17,3.17,0,0,1-1.64.83,2.75,2.75,0,0,1,1.8.43,3.65,3.65,0,0,0-1.44.73,3.21,3.21,0,0,1,1.47.13,4.21,4.21,0,0,0-1.47.8h1.21l-1,1,1.2-.09a3.09,3.09,0,0,0-.7,1.06l.5.09,1.35,4.08a48.2,48.2,0,0,1,1.6,5.56c.3,1.48.46,3,.62,4.49l1.64,15.65A29.54,29.54,0,0,1,25,56.07c-.25,5-1.31,9.86-1.45,14.86,0,1.54,0,3.08-.1,4.62C23.24,82.87,21.9,90.32,18,96.71a28.11,28.11,0,0,1-3.68,4.8,27.56,27.56,0,0,1-4.7,4,10.81,10.81,0,0,0-2.47,1.89,6.06,6.06,0,0,0-.48.71,30.64,30.64,0,0,1-2.08,3.76,15.44,15.44,0,0,0-3.1,7.92,44.66,44.66,0,0,0,.06,8.51,4,4,0,0,0,.56,2.12v-5a28.26,28.26,0,0,1,.93-8.74,29.18,29.18,0,0,1,1.87-4.19c.89-1.74,1.61-3.89,3.1-5.29.24-.23.56-.31.82-.52s.6-.53.94-.75.86-.58,1.28-.88q1.25-.9,2.41-1.91a29.52,29.52,0,0,0,4.15-4.39,25.28,25.28,0,0,0,2.28-3.57c3-5.62,4.24-11.85,5.14-18a31.31,31.31,0,0,0,.4-4.3c0-1.31-.13-2.61-.07-3.91.14-2.9,1.26-5.68,1.65-8.56.36-2.68.92-5.35,1.48-8a35.24,35.24,0,0,0,.7-4.06A35.15,35.15,0,0,0,28.34,38.77Z" fill="#fff" opacity="0.37"/><path d="M18.43,96.31q-.59,1-1.23,2a32.14,32.14,0,0,1-4.59,5.63l-.61.55a27,27,0,0,1-3.7,2.68A5.9,5.9,0,0,0,7,108.7q-.36.44-.74.86a10.51,10.51,0,0,0-.76.79,12.39,12.39,0,0,0,1-2,3.89,3.89,0,0,1,1.12-1.49c.53-.4,1.15-.7,1.72-1a18.62,18.62,0,0,0,3.81-3.25A36.42,36.42,0,0,0,17.87,96a38.06,38.06,0,0,0,4.67-16.79,44.13,44.13,0,0,0-.27-8.38s-.06-.41-.12-1.16a3.88,3.88,0,0,0,.64,0c.06.68.11,1,.11,1.05a44.5,44.5,0,0,1,.28,8.48,39.53,39.53,0,0,1-4.07,15.83Q18.79,95.71,18.43,96.31Z" fill="#2c73e7"/><path d="M26.62,69.06c0,.85,0,1.37,0,1.39a59.56,59.56,0,0,1-1.49,13.89,46.72,46.72,0,0,1-4.06,11.31l-.33.61a30.26,30.26,0,0,1-9.08,10.41l-.39-.47c8.09-5.68,11.66-15.08,13.22-22A59.1,59.1,0,0,0,26,70.47c0-.1,0-.69,0-1.59A2.07,2.07,0,0,1,26.62,69.06Z" fill="#2c73e7"/><path d="M34.6,58.36A4.85,4.85,0,0,1,36.29,60a11.32,11.32,0,0,1,1,1.85,15.07,15.07,0,0,1,.91,2.92,3.32,3.32,0,0,0,.45,1.29,5.87,5.87,0,0,0,1.24,1,3.76,3.76,0,0,1,1.45,2.72.6.6,0,0,0-.32-.28,5.52,5.52,0,0,1-1.28,5l.11-.81-2.27,4.69,1.37-5.72A1.81,1.81,0,0,0,38.79,71a7.81,7.81,0,0,1-1.38,3.19,56.31,56.31,0,0,1-3.74,5.17A2.9,2.9,0,0,1,31.5,80.7a6.35,6.35,0,0,1,1.09-1.88L34.71,76a10.83,10.83,0,0,0,2-3.52,3.57,3.57,0,0,0-1-3.69A9.9,9.9,0,0,1,31,73.34l2.64-3.22a3.7,3.7,0,0,0,1.14-2.4,3.3,3.3,0,0,0-.35-1.13L34.17,66a22.43,22.43,0,0,0-1.49-2.58,2.11,2.11,0,0,1-.51.88A26.55,26.55,0,0,0,30,66.93c-.37.6-1,1.16-1.8.59a2,2,0,0,1-.72-1.81c.08-1.71,1.2-3.22,2.28-4.61l1.38-1.78a3.6,3.6,0,0,1,1.07-1A2.59,2.59,0,0,1,34.6,58.36Z" fill="#080307"/><path d="M35.88,60.69a6.58,6.58,0,0,0,1.42,1.17,15.07,15.07,0,0,1,.91,2.92,3.32,3.32,0,0,0,.45,1.29,5.87,5.87,0,0,0,1.24,1,3.76,3.76,0,0,1,1.45,2.72.6.6,0,0,0-.32-.28,5.52,5.52,0,0,1-1.28,5l.11-.81-2.27,4.69,1.37-5.72A1.81,1.81,0,0,0,38.79,71a7.81,7.81,0,0,1-1.38,3.19,56.31,56.31,0,0,1-3.74,5.17A2.9,2.9,0,0,1,31.5,80.7a6.35,6.35,0,0,1,1.09-1.88L34.71,76a10.83,10.83,0,0,0,2-3.52,3.57,3.57,0,0,0-1-3.69A9.9,9.9,0,0,1,31,73.34l2.64-3.22a3.7,3.7,0,0,0,1.14-2.4,3.3,3.3,0,0,0-.35-1.13L34.17,66a2.65,2.65,0,0,0,.1-1.63,7.08,7.08,0,0,0-.45-1.7,3,3,0,0,0-1.15-1.37c-.21-.13-.17-.38-.42-.32a2.92,2.92,0,0,0-1.67,1.18,16.23,16.23,0,0,0-.71,1.5,1.89,1.89,0,0,1-1.26,1.06,4.41,4.41,0,0,1,1-2.47,13.35,13.35,0,0,1,2.21-2.31,2.74,2.74,0,0,1,2.26-.81C34.92,59.32,35.35,60.09,35.88,60.69Z" fill="#2a304a"/><path d="M35.45,62.05a9.71,9.71,0,0,1,.71,2,4.26,4.26,0,0,0,1,1.84c.19.19.42.37.45.62s-.44.67-.84.6a1.49,1.49,0,0,1-.93-.7,22.06,22.06,0,0,1-1.29-3.32c-.14-.31-1.43-2.15-1.12-2.41C33.92,60.22,35.29,61.77,35.45,62.05Z" fill="#080307"/></svg>