<svg id="Layer_1" data-name="Layer 1" xmlns="http://www.w3.org/2000/svg" xmlns:xlink="http://www.w3.org/1999/xlink" viewBox="0 0 178.55 215.4"><defs><linearGradient id="linear-gradient" y1="116.49" x2="178.55" y2="116.49" gradientUnits="userSpaceOnUse"><stop offset="0.05" stop-color="#fff"/><stop offset="0.09" stop-color="#fafafa"/><stop offset="0.13" stop-color="#ececec"/><stop offset="0.18" stop-color="#d5d5d5"/><stop offset="0.22" stop-color="#b4b4b4"/><stop offset="0.27" stop-color="#8a8a8a"/><stop offset="0.32" stop-color="#575757"/><stop offset="0.46"/><stop offset="0.55"/><stop offset="0.61" stop-color="#232222"/><stop offset="0.69" stop-color="#4e4c4b"/><stop offset="0.93" stop-color="#fff"/></linearGradient><linearGradient id="linear-gradient-2" x1="126.6" y1="190.01" x2="126.6" y2="207.56" gradientUnits="userSpaceOnUse"><stop offset="0.28"/><stop offset="0.39" stop-color="#030303"/><stop offset="0.49" stop-color="#0e0e0e"/><stop offset="0.57" stop-color="#1f1f1f"/><stop offset="0.66" stop-color="#373737"/><stop offset="0.73" stop-color="#575757"/><stop offset="0.81" stop-color="#7d7d7d"/><stop offset="0.89" stop-color="#ababab"/><stop offset="0.96" stop-color="#dfdfdf"/><stop offset="1" stop-color="#fff"/></linearGradient><linearGradient id="Neutral_4" x1="93.22" y1="31.54" x2="148.04" y2="31.54" gradientUnits="userSpaceOnUse"><stop offset="0.03" stop-color="#231f20"/><stop offset="1" stop-color="#fff"/></linearGradient><linearGradient id="linear-gradient-3" x1="-636.67" y1="190.01" x2="-636.67" y2="207.56" gradientTransform="matrix(-1, 0, 0, 1, -584.72, 0)" xlink:href="#linear-gradient-2"/><linearGradient id="linear-gradient-4" x1="-664.91" y1="11.24" x2="-610.4" y2="11.24" gradientTransform="matrix(-1, 0, 0, 1, -584.72, 0)" gradientUnits="userSpaceOnUse"><stop offset="0.07"/><stop offset="0.88" stop-color="#fff"/><stop offset="0.99"/></linearGradient><linearGradient id="Neutral_4-2" x1="101.39" y1="211.09" x2="156.2" y2="211.09" xlink:href="#Neutral_4"/><linearGradient id="linear-gradient-5" x1="92.2" y1="1.88" x2="144.92" y2="1.88" gradientUnits="userSpaceOnUse"><stop offset="0.03"/><stop offset="0.89" stop-color="#fff"/><stop offset="1"/></linearGradient><mask id="mask" x="0" y="25.42" width="178.55" height="182.14" maskUnits="userSpaceOnUse"><path d="M156.43,44c-1-1.5-2.37-18.62-2.37-18.62H24.49S23.15,42.54,22.12,44C18.16,49.8,0,51.53,0,66V201.11c0,3.56,3.54,6.45,7.9,6.45H170.65c4.36,0,7.9-2.89,7.9-6.45V66C178.55,51.53,160.39,49.8,156.43,44Z" fill="url(#linear-gradient)"/></mask><mask id="mask-2" x="74.66" y="190.01" width="103.89" height="17.54" maskUnits="userSpaceOnUse"><g opacity="0.59"><path d="M178.36,191.16c0,3.56-3.89,12.89-8.69,12.89,0,0-45.89-4.21-95-4.21v7.71h95.2c4.8,0,8.69-2.89,8.69-6.45V190A7.47,7.47,0,0,0,178.36,191.16Z" fill="url(#linear-gradient-2)"/></g></mask><mask id="mask-3" x="93.22" y="30.36" width="54.81" height="2.36" maskUnits="userSpaceOnUse"><path d="M148,31.54c0-.65-.75-1.18-1.69-1.18H94.91c-.93,0-1.69.53-1.69,1.18s.76,1.18,1.69,1.18h51.44C147.28,32.73,148,32.2,148,31.54Z" fill="url(#Neutral_4)"/></mask><mask id="mask-4" x="0" y="190.01" width="103.89" height="17.54" maskUnits="userSpaceOnUse"><g opacity="0.59"><path d="M.19,191.16c0,3.56,3.89,12.89,8.69,12.89,0,0,45.89-4.21,95-4.21v7.71H8.69c-4.8,0-8.69-2.89-8.69-6.45V190A7.47,7.47,0,0,1,.19,191.16Z" fill="url(#linear-gradient-3)"/></g></mask><linearGradient id="linear-gradient-6" x1="89.27" y1="207.56" x2="89.27" y2="209.06" gradientUnits="userSpaceOnUse"><stop offset="0" stop-color="#5e5e5e"/><stop offset="1" stop-color="#a5a7aa"/></linearGradient><mask id="mask-5" x="25.68" y="10.59" width="54.51" height="1.29" maskUnits="userSpaceOnUse"><path d="M80.19,11.24a.73.73,0,0,1-.79.64H26.47a.73.73,0,0,1-.79-.64h0a.73.73,0,0,1,.79-.64H79.4a.73.73,0,0,1,.79.64Z" fill="url(#linear-gradient-4)"/></mask><mask id="mask-6" x="101.39" y="210.26" width="54.81" height="1.65" maskUnits="userSpaceOnUse"><path d="M156.2,211.09c0-.46-.76-.83-1.69-.83H103.07c-.93,0-1.69.37-1.69.83s.76.82,1.69.82h51.44C155.44,211.91,156.2,211.54,156.2,211.09Z" fill="url(#Neutral_4-2)"/></mask><mask id="mask-7" x="92.2" y="0.85" width="52.72" height="2.06" maskUnits="userSpaceOnUse"><path d="M92.2,1.88c0,.57.34,1,.76,1h51.19c.42,0,.76-.46.76-1h0c0-.57-.34-1-.76-1H93c-.42,0-.76.46-.76,1Z" fill="url(#linear-gradient-5)"/></mask><linearGradient id="linear-gradient-7" x1="117.57" y1="135.25" x2="169.57" y2="135.25" gradientUnits="userSpaceOnUse"><stop offset="0" stop-color="#cd2727"/><stop offset="1" stop-color="#b82625"/></linearGradient><linearGradient id="linear-gradient-8" x1="83.69" y1="132.58" x2="118.07" y2="132.58" gradientUnits="userSpaceOnUse"><stop offset="0" stop-color="#b82625"/><stop offset="0.06" stop-color="#bd2925"/><stop offset="0.42" stop-color="#d83924"/><stop offset="0.75" stop-color="#e84323"/><stop offset="1" stop-color="#ee4623"/></linearGradient><linearGradient id="linear-gradient-9" x1="121.45" y1="120.79" x2="130.8" y2="95.11" gradientUnits="userSpaceOnUse"><stop offset="0" stop-color="#b82625"/><stop offset="1" stop-color="#7e2518"/></linearGradient><linearGradient id="linear-gradient-10" x1="117.83" y1="96.77" x2="137.24" y2="96.77" gradientUnits="userSpaceOnUse"><stop offset="0.01" stop-color="#b82625"/><stop offset="0.36" stop-color="#ee4623"/><stop offset="0.69" stop-color="#b82625"/><stop offset="1" stop-color="#7e2518"/></linearGradient><linearGradient id="linear-gradient-11" x1="126.34" y1="94.82" x2="128.92" y2="87.72" xlink:href="#linear-gradient-9"/><linearGradient id="linear-gradient-12" x1="92" y1="101.46" x2="112.28" y2="101.46" xlink:href="#linear-gradient-10"/><linearGradient id="linear-gradient-13" x1="100.74" y1="99.46" x2="103.58" y2="91.65" xlink:href="#linear-gradient-9"/><linearGradient id="linear-gradient-14" x1="138.64" y1="104.5" x2="159.34" y2="104.5" xlink:href="#linear-gradient-10"/><linearGradient id="linear-gradient-15" x1="147.79" y1="102.43" x2="150.52" y2="94.94" xlink:href="#linear-gradient-9"/><linearGradient id="linear-gradient-16" x1="110.37" y1="108.96" x2="132" y2="108.96" xlink:href="#linear-gradient-10"/><linearGradient id="linear-gradient-17" x1="119.77" y1="106.83" x2="122.78" y2="98.55" xlink:href="#linear-gradient-9"/><linearGradient id="linear-gradient-18" x1="42.9" y1="134.09" x2="94.89" y2="134.09" gradientUnits="userSpaceOnUse"><stop offset="0" stop-color="#f5841f"/><stop offset="1" stop-color="#e97224"/></linearGradient><linearGradient id="linear-gradient-19" x1="9.02" y1="131.41" x2="43.39" y2="131.41" gradientUnits="userSpaceOnUse"><stop offset="0.01" stop-color="#e97224"/><stop offset="0.01" stop-color="#e97224"/><stop offset="0.3" stop-color="#f39817"/><stop offset="0.57" stop-color="#f9b30e"/><stop offset="0.82" stop-color="#fec308"/><stop offset="1" stop-color="#ffc906"/></linearGradient><linearGradient id="linear-gradient-20" x1="46.77" y1="119.62" x2="56.12" y2="93.94" gradientUnits="userSpaceOnUse"><stop offset="0" stop-color="#e97224"/><stop offset="1" stop-color="#a53b23"/></linearGradient><linearGradient id="linear-gradient-21" x1="43.16" y1="95.6" x2="62.57" y2="95.6" gradientUnits="userSpaceOnUse"><stop offset="0.01" stop-color="#e97224"/><stop offset="0.36" stop-color="#ffc906"/><stop offset="0.7" stop-color="#e97224"/><stop offset="1" stop-color="#a53b23"/></linearGradient><linearGradient id="linear-gradient-22" x1="51.66" y1="93.65" x2="54.25" y2="86.55" xlink:href="#linear-gradient-20"/><linearGradient id="linear-gradient-23" x1="17.32" y1="100.3" x2="37.61" y2="100.3" xlink:href="#linear-gradient-21"/><linearGradient id="linear-gradient-24" x1="26.06" y1="98.29" x2="28.9" y2="90.48" xlink:href="#linear-gradient-20"/><linearGradient id="linear-gradient-25" x1="63.96" y1="103.33" x2="84.67" y2="103.33" xlink:href="#linear-gradient-21"/><linearGradient id="linear-gradient-26" x1="73.12" y1="101.26" x2="75.84" y2="93.78" xlink:href="#linear-gradient-20"/><linearGradient id="linear-gradient-27" x1="35.69" y1="107.79" x2="57.33" y2="107.79" xlink:href="#linear-gradient-21"/><linearGradient id="linear-gradient-28" x1="45.09" y1="105.66" x2="48.11" y2="97.38" xlink:href="#linear-gradient-20"/></defs><title>2</title><g mask="url(#mask)"><path d="M156.43,44c-1-1.5-2.37-18.62-2.37-18.62H24.49S23.15,42.54,22.12,44C18.16,49.8,0,51.53,0,66V201.11c0,3.56,3.54,6.45,7.9,6.45H170.65c4.36,0,7.9-2.89,7.9-6.45V66C178.55,51.53,160.39,49.8,156.43,44Z" fill="#7f7f7f"/></g><path d="M150.11,44c-1-1.5-2.37-18.62-2.37-18.62H30.81S29.47,42.54,28.44,44c-4,5.77-22.12,7.49-22.12,22V201.11c0,3.56,3.54,6.45,7.9,6.45H164.33c4.36,0,7.9-2.89,7.9-6.45V66C172.23,51.53,154.07,49.8,150.11,44Z" fill="#bbbcbe" opacity="0.27"/><path d="M154,26.71h.12c-.08-.8-.12-1.28-.12-1.28H89.27v1.29Z" fill="#595b5c"/><path d="M89.27,37.67h66c-.11-.77-.21-1.56-.31-2.36H89.27Z" fill="#6b6d6f"/><g opacity="0.59"><path d="M178.36,191.16c0,3.56-3.89,12.89-8.69,12.89,0,0-31.27-4.21-80.39-4.21v7.71h80.58c4.8,0,8.69-2.89,8.69-6.45V190A7.47,7.47,0,0,0,178.36,191.16Z" fill="#aaadb0"/></g><g mask="url(#mask-2)"><path d="M178.36,191.16c0,3.56-3.89,12.89-8.69,12.89,0,0-31.27-4.21-80.39-4.21v7.71h80.58c4.8,0,8.69-2.89,8.69-6.45V190A7.47,7.47,0,0,0,178.36,191.16Z" fill="#7d7f81"/></g><path d="M141.88,204.05s-17.85-2.27-52.6-2.27v4.16H142C145.41,205.95,145.28,204.05,141.88,204.05Z" fill="#fff" opacity="0.16"/><path d="M89.27,28.43h65c-.07-.67-.12-1.25-.17-1.72H89.27Z" fill="#797c7e" opacity="0.71"/><path d="M156.85,28.35H89.27v6.92h67.58a3.28,3.28,0,0,0,3.06-3.46A3.28,3.28,0,0,0,156.85,28.35Z" fill="#7d7f81"/><path d="M154.88,28.43H89.27v5.88h65.61a2.94,2.94,0,1,0,0-5.88Z" fill="#aeafb0"/><path d="M150.23,29.4h-61v4.67h61a2.35,2.35,0,1,0,0-4.67Z" fill="#e1e2e3" opacity="0.66"/><g mask="url(#mask-3)"><path d="M148,31.54c0-.65-.75-1.18-1.69-1.18H94.91c-.93,0-1.69.53-1.69,1.18s.76,1.18,1.69,1.18h51.44C147.28,32.73,148,32.2,148,31.54Z" fill="#fff"/></g><path d="M24.5,26.71h-.12c.07-.8.12-1.28.12-1.28H89.27v1.29Z" fill="#595b5c"/><path d="M9.37,207.56c.67,4.59,2.34,7.84,4.29,7.84H164.89c2,0,3.62-3.25,4.29-7.84Z" fill="#a5a7aa"/><path d="M12.34,209.8a4.47,4.47,0,0,0,4.15,3H162.05a4.47,4.47,0,0,0,4.15-3Z" fill="#b4b6b8"/><path d="M89.27,37.67h-66c.11-.77.21-1.56.31-2.36H89.27Z" fill="#6b6d6f"/><g opacity="0.59"><path d="M.19,191.16c0,3.56,3.89,12.89,8.69,12.89,0,0,31.27-4.21,80.39-4.21v7.71H8.69c-4.8,0-8.69-2.89-8.69-6.45V190A7.47,7.47,0,0,1,.19,191.16Z" fill="#aaadb0"/></g><g mask="url(#mask-4)"><path d="M.19,191.16c0,3.56,3.89,12.89,8.69,12.89,0,0,31.27-4.21,80.39-4.21v7.71H8.69c-4.8,0-8.69-2.89-8.69-6.45V190A7.47,7.47,0,0,1,.19,191.16Z" fill="#7d7f81"/></g><path d="M36.67,204.05s17.85-2.27,52.6-2.27v4.16H36.54C33.14,205.95,33.27,204.05,36.67,204.05Z" fill="#fff" opacity="0.16"/><path d="M89.27,28.43h-65c.07-.67.12-1.25.17-1.72H89.27Z" fill="#797c7e" opacity="0.71"/><path d="M9.37,207.56a8.89,8.89,0,0,0,.53,1.51H168.65a8.85,8.85,0,0,0,.53-1.51Z" fill="url(#linear-gradient-6)"/><g mask="url(#mask-5)"><path d="M80.19,11.24a.73.73,0,0,1-.79.64H26.47a.73.73,0,0,1-.79-.64h0a.73.73,0,0,1,.79-.64H79.4a.73.73,0,0,1,.79.64Z" fill="#fff" opacity="0.32"/></g><path d="M21.69,28.35H89.27v6.92H21.69a3.28,3.28,0,0,1-3.06-3.46A3.28,3.28,0,0,1,21.69,28.35Z" fill="#7d7f81"/><path d="M23.67,28.43H89.27v5.88H23.67a2.94,2.94,0,1,1,0-5.88Z" fill="#aeafb0"/><path d="M28.32,29.4h61v4.67h-61a2.35,2.35,0,1,1,0-4.67Z" fill="#e1e2e3" opacity="0.66"/><g mask="url(#mask-6)"><path d="M156.2,211.09c0-.46-.76-.83-1.29-.83H103.47c-1.33,0-2.08.37-2.08.83s.76.82,1.69.82h51.44C155.44,211.91,156.2,211.54,156.2,211.09Z" fill="#d6d6d6"/></g><path d="M158.31,5.74h-69V31.49h69c4.62,0,8.37-4.61,8.37-10.3V16C166.68,10.35,162.93,5.74,158.31,5.74Z" fill="#a16733"/><path d="M154.15,7H89.27V30.2h64.88c4.39,0,8-4.15,8-9.27V16.3C162.1,11.18,158.54,7,154.15,7Z" fill="#a16733"/><g mask="url(#mask-7)"><path d="M92.2,1.88c0,.57.34,1,.76,1h51.19c.42,0,.76-.46.76-1h0c0-.57-.34-1-.76-1H93c-.42,0-.76.46-.76,1Z" fill="#fff" opacity="0.71"/></g><path d="M20.24,5.74h69V31.49h-69c-4.62,0-8.37-4.61-8.37-10.3V16C11.87,10.35,15.61,5.74,20.24,5.74Z" fill="#a16733"/><path d="M24.4,7H89.27V30.2H24.4c-4.39,0-7.95-4.15-7.95-9.27V16.3C16.45,11.18,20,7,24.4,7Z" fill="#a16733"/><path d="M145.7,0H32.85c-4,0-7.24,5.6-7.24,12.51v6.25c0,6.91,3.24,12.51,7.24,12.51H145.7c4,0,7.24-5.6,7.24-12.51V12.51C152.94,5.6,149.7,0,145.7,0Z" fill="#ba773b"/><polygon points="167.41 147.7 84.36 141.32 84.82 142.58 117.57 163.26 166.45 149.3 167.41 147.7" fill="#3c140d"/><polygon points="169.57 109.22 167.41 147.7 117.57 161.29 118.07 119.56 169.57 109.22" fill="url(#linear-gradient-7)"/><polygon points="118.07 119.56 117.57 161.29 84.36 141.32 83.69 103.88 118.07 119.56" fill="url(#linear-gradient-8)"/><polygon points="169.57 109.22 118.07 119.56 83.69 103.88 132.3 95.9 169.57 109.22" fill="url(#linear-gradient-9)"/><path d="M137.24,91.54l-.31,8.69a.85.85,0,0,1-.21.51,2.15,2.15,0,0,1-.6.48,5.56,5.56,0,0,1-1,.44,11.87,11.87,0,0,1-1.37.37,23.21,23.21,0,0,1-3.34.44,34.65,34.65,0,0,1-3.72,0,32.32,32.32,0,0,1-3.61-.36,18.36,18.36,0,0,1-3-.72,8.23,8.23,0,0,1-1-.41,4.09,4.09,0,0,1-.7-.43,1.72,1.72,0,0,1-.41-.44.81.81,0,0,1-.13-.44L118,91a.71.71,0,0,0,.13.41,1.66,1.66,0,0,0,.42.41,4.21,4.21,0,0,0,.71.4,8.79,8.79,0,0,0,1,.38,19.82,19.82,0,0,0,3.05.68,35,35,0,0,0,3.64.34c1.26.05,2.53,0,3.74,0a25.18,25.18,0,0,0,3.36-.4,12.73,12.73,0,0,0,1.38-.34,5.88,5.88,0,0,0,1-.4A2.13,2.13,0,0,0,137,92,.75.75,0,0,0,137.24,91.54Z" fill="url(#linear-gradient-10)"/><path d="M134.77,89.87a6.67,6.67,0,0,1,1.93.85c.41.3.59.61.54.91s-.35.6-.87.87a9.1,9.1,0,0,1-2.3.71,25.18,25.18,0,0,1-3.36.4c-1.21.07-2.48.07-3.74,0a35,35,0,0,1-3.64-.34,19.82,19.82,0,0,1-3.05-.68,5.6,5.6,0,0,1-1.84-.89c-.36-.31-.48-.62-.37-.92a1.83,1.83,0,0,1,1-.84,10.25,10.25,0,0,1,2.34-.66,26.19,26.19,0,0,1,3.27-.36c1.16-.06,2.38-.06,3.58,0s2.39.16,3.49.32A21.14,21.14,0,0,1,134.77,89.87Z" fill="url(#linear-gradient-11)"/><path d="M112.28,95.68q-.09,4.55-.17,9.09a1,1,0,0,1-.25.6,2.58,2.58,0,0,1-.71.58,6.71,6.71,0,0,1-1.18.52,13.83,13.83,0,0,1-1.64.45,25.57,25.57,0,0,1-3.63.48,35.27,35.27,0,0,1-3.94,0,30.82,30.82,0,0,1-3.74-.39,16.29,16.29,0,0,1-3-.79,7,7,0,0,1-.88-.41,3.52,3.52,0,0,1-.62-.43,1.66,1.66,0,0,1-.37-.44.9.9,0,0,1-.12-.44q0-4.56,0-9.12a.78.78,0,0,0,.12.41,1.58,1.58,0,0,0,.37.41,3.66,3.66,0,0,0,.63.4A7.39,7.39,0,0,0,94,97a17.41,17.41,0,0,0,3.06.74,33.56,33.56,0,0,0,3.76.37,38.68,38.68,0,0,0,4,0,28,28,0,0,0,3.66-.44,14.89,14.89,0,0,0,1.65-.41,6.94,6.94,0,0,0,1.18-.48,2.54,2.54,0,0,0,.72-.53A.87.87,0,0,0,112.28,95.68Z" fill="url(#linear-gradient-12)"/><path d="M110,94a5.29,5.29,0,0,1,1.83.93.87.87,0,0,1,.35,1,2.13,2.13,0,0,1-1.14,1,11.38,11.38,0,0,1-2.61.78,28,28,0,0,1-3.66.44,38.68,38.68,0,0,1-4,0,33.56,33.56,0,0,1-3.76-.37A17.41,17.41,0,0,1,94,97a4.39,4.39,0,0,1-1.73-1,.79.79,0,0,1-.16-1,2.71,2.71,0,0,1,1.29-.92,12.75,12.75,0,0,1,2.65-.73,28.94,28.94,0,0,1,3.55-.4c1.24-.07,2.53-.07,3.78,0a34,34,0,0,1,3.61.34A18.71,18.71,0,0,1,110,94Z" fill="url(#linear-gradient-13)"/><path d="M159.34,99.13q-.23,4.59-.47,9.17a1,1,0,0,1-.2.53,2.1,2.1,0,0,1-.56.5,5.06,5.06,0,0,1-.92.45,10.44,10.44,0,0,1-1.29.39,21.26,21.26,0,0,1-3.43.5,34.81,34.81,0,0,1-7.79-.36,20.83,20.83,0,0,1-3.34-.81,10,10,0,0,1-1.21-.5,4.86,4.86,0,0,1-.85-.52,2.07,2.07,0,0,1-.5-.53,1,1,0,0,1-.15-.53h0l.33-9.15a.84.84,0,0,0,.15.49,2,2,0,0,0,.5.5,5,5,0,0,0,.86.49,10.54,10.54,0,0,0,1.22.46,22.52,22.52,0,0,0,3.36.76,38,38,0,0,0,7.85.35,23.12,23.12,0,0,0,3.45-.45,11,11,0,0,0,1.29-.36,5.28,5.28,0,0,0,.93-.42,2.06,2.06,0,0,0,.56-.46A.85.85,0,0,0,159.34,99.13Z" fill="url(#linear-gradient-14)"/><path d="M156.35,97.09a8.47,8.47,0,0,1,2.22,1c.5.34.76.69.77,1s-.23.67-.72,1a7.59,7.59,0,0,1-2.26.8,23.12,23.12,0,0,1-3.45.45,38,38,0,0,1-7.85-.35,22.52,22.52,0,0,1-3.36-.76,7.19,7.19,0,0,1-2.13-1c-.45-.34-.64-.69-.59-1s.35-.66.9-.95a8.77,8.77,0,0,1,2.32-.75,24.1,24.1,0,0,1,3.36-.41,38.08,38.08,0,0,1,7.49.33A23.64,23.64,0,0,1,156.35,97.09Z" fill="url(#linear-gradient-15)"/><path d="M132,103l-.33,9.62a1.14,1.14,0,0,1-.24.64,2.55,2.55,0,0,1-.68.6,6.14,6.14,0,0,1-1.11.55,12.32,12.32,0,0,1-1.55.47,23.69,23.69,0,0,1-3.75.56,34.58,34.58,0,0,1-4.16,0,32.23,32.23,0,0,1-4-.44,18.39,18.39,0,0,1-3.36-.89,8.58,8.58,0,0,1-1.08-.5,4.31,4.31,0,0,1-.76-.52,2,2,0,0,1-.45-.54,1.08,1.08,0,0,1-.14-.54q.09-4.81.18-9.62a.94.94,0,0,0,.14.5,1.93,1.93,0,0,0,.45.5,4.43,4.43,0,0,0,.77.49,9.05,9.05,0,0,0,1.09.47,19.74,19.74,0,0,0,3.39.83,35,35,0,0,0,4.06.41,38,38,0,0,0,4.19,0,25.66,25.66,0,0,0,3.77-.51,13.25,13.25,0,0,0,1.56-.44,6.38,6.38,0,0,0,1.12-.51,2.49,2.49,0,0,0,.68-.56A1,1,0,0,0,132,103Z" fill="url(#linear-gradient-16)"/><path d="M129.28,100.92a6.87,6.87,0,0,1,2.13,1,1.22,1.22,0,0,1,.58,1.13,1.77,1.77,0,0,1-1,1.08,9.66,9.66,0,0,1-2.59.89,25.66,25.66,0,0,1-3.77.51,38,38,0,0,1-4.19,0,35,35,0,0,1-4.06-.41,19.74,19.74,0,0,1-3.39-.83,5.74,5.74,0,0,1-2-1.1,1,1,0,0,1-.37-1.14,2.24,2.24,0,0,1,1.18-1,11,11,0,0,1,2.65-.83,26.57,26.57,0,0,1,3.66-.46,38.08,38.08,0,0,1,4,0,35.65,35.65,0,0,1,3.88.38A21.2,21.2,0,0,1,129.28,100.92Z" fill="url(#linear-gradient-17)"/><polygon points="92.74 146.53 9.68 140.15 10.14 141.41 42.9 162.09 91.78 148.13 92.74 146.53" fill="#5b3411"/><polygon points="94.89 108.05 92.74 146.53 42.9 160.12 43.39 118.39 94.89 108.05" fill="url(#linear-gradient-18)"/><polygon points="43.39 118.39 42.9 160.12 9.68 140.15 9.02 102.71 43.39 118.39" fill="url(#linear-gradient-19)"/><polygon points="94.89 108.05 43.39 118.39 9.02 102.71 57.62 94.74 94.89 108.05" fill="url(#linear-gradient-20)"/><path d="M62.57,90.38l-.31,8.69a.85.85,0,0,1-.21.51,2.16,2.16,0,0,1-.6.48,5.59,5.59,0,0,1-1,.44,11.78,11.78,0,0,1-1.37.37,23.18,23.18,0,0,1-3.34.44,34.55,34.55,0,0,1-3.72,0,32.23,32.23,0,0,1-3.61-.36,18.37,18.37,0,0,1-3-.72,8.31,8.31,0,0,1-1-.41,4.08,4.08,0,0,1-.7-.43,1.71,1.71,0,0,1-.41-.44.81.81,0,0,1-.13-.44l.19-8.7a.71.71,0,0,0,.13.41,1.66,1.66,0,0,0,.42.41,4.16,4.16,0,0,0,.71.4,8.82,8.82,0,0,0,1,.38,19.91,19.91,0,0,0,3,.68,35.06,35.06,0,0,0,3.64.34c1.26.06,2.53.05,3.74,0a25.22,25.22,0,0,0,3.36-.4,12.66,12.66,0,0,0,1.38-.34,5.88,5.88,0,0,0,1-.4,2.14,2.14,0,0,0,.6-.44A.75.75,0,0,0,62.57,90.38Z" fill="url(#linear-gradient-21)"/><path d="M60.09,88.7a6.64,6.64,0,0,1,1.93.85c.41.3.59.61.54.91s-.35.6-.87.86a9.09,9.09,0,0,1-2.3.71,25.22,25.22,0,0,1-3.36.4c-1.21.07-2.48.07-3.74,0a35.06,35.06,0,0,1-3.64-.34,19.91,19.91,0,0,1-3-.68,5.61,5.61,0,0,1-1.84-.89c-.36-.31-.48-.62-.37-.92a1.82,1.82,0,0,1,1-.84,10.28,10.28,0,0,1,2.34-.66A26.16,26.16,0,0,1,50,87.77c1.16-.06,2.38-.06,3.58,0s2.39.16,3.49.32A21.22,21.22,0,0,1,60.09,88.7Z" fill="url(#linear-gradient-22)"/><path d="M37.61,94.52q-.09,4.55-.17,9.09a1,1,0,0,1-.25.6,2.59,2.59,0,0,1-.71.58,6.71,6.71,0,0,1-1.18.52,13.78,13.78,0,0,1-1.64.45,25.56,25.56,0,0,1-3.63.48,35.32,35.32,0,0,1-3.94,0,30.77,30.77,0,0,1-3.74-.39,16.2,16.2,0,0,1-3-.79,7.06,7.06,0,0,1-.88-.41,3.55,3.55,0,0,1-.62-.43,1.65,1.65,0,0,1-.37-.44.89.89,0,0,1-.12-.44q0-4.56,0-9.12a.78.78,0,0,0,.12.41,1.57,1.57,0,0,0,.37.41,3.65,3.65,0,0,0,.63.4,7.39,7.39,0,0,0,.89.38,17.43,17.43,0,0,0,3.06.74,33.55,33.55,0,0,0,3.76.37,38.64,38.64,0,0,0,4,0,27.9,27.9,0,0,0,3.66-.44,14.85,14.85,0,0,0,1.65-.41,7,7,0,0,0,1.18-.48,2.55,2.55,0,0,0,.72-.53A.87.87,0,0,0,37.61,94.52Z" fill="url(#linear-gradient-23)"/><path d="M35.37,92.84a5.29,5.29,0,0,1,1.83.93.87.87,0,0,1,.35,1,2.13,2.13,0,0,1-1.14,1,11.34,11.34,0,0,1-2.61.78,27.9,27.9,0,0,1-3.66.44,38.64,38.64,0,0,1-4,0,33.55,33.55,0,0,1-3.76-.37,17.43,17.43,0,0,1-3.06-.74,4.39,4.39,0,0,1-1.73-1,.79.79,0,0,1-.16-1A2.71,2.71,0,0,1,18.77,93a12.75,12.75,0,0,1,2.65-.73,28.86,28.86,0,0,1,3.55-.4c1.24-.07,2.53-.07,3.78,0a33.89,33.89,0,0,1,3.61.34A18.69,18.69,0,0,1,35.37,92.84Z" fill="url(#linear-gradient-24)"/><path d="M84.67,98q-.23,4.59-.47,9.17a1,1,0,0,1-.2.53,2.1,2.1,0,0,1-.56.5,5.07,5.07,0,0,1-.92.45,10.49,10.49,0,0,1-1.29.39,21.27,21.27,0,0,1-3.43.5,33.85,33.85,0,0,1-3.91,0,33.47,33.47,0,0,1-3.88-.4,20.75,20.75,0,0,1-3.34-.81,10.09,10.09,0,0,1-1.21-.5,4.9,4.9,0,0,1-.85-.52,2.06,2.06,0,0,1-.5-.53,1,1,0,0,1-.15-.53h0l.33-9.15a.83.83,0,0,0,.15.49,2,2,0,0,0,.5.5,5.06,5.06,0,0,0,.86.49A10.65,10.65,0,0,0,67,99a22.45,22.45,0,0,0,3.36.76,38,38,0,0,0,7.85.35,23,23,0,0,0,3.45-.45A11,11,0,0,0,83,99.32a5.3,5.3,0,0,0,.93-.42,2.07,2.07,0,0,0,.56-.46A.85.85,0,0,0,84.67,98Z" fill="url(#linear-gradient-25)"/><path d="M81.67,95.93a8.47,8.47,0,0,1,2.22,1c.5.34.76.69.77,1s-.23.67-.72,1a7.6,7.6,0,0,1-2.26.8,23,23,0,0,1-3.45.45,38,38,0,0,1-7.85-.35A22.45,22.45,0,0,1,67,99a7.21,7.21,0,0,1-2.13-1c-.45-.34-.64-.69-.59-1s.36-.66.9-.95a8.76,8.76,0,0,1,2.32-.75,24.17,24.17,0,0,1,3.36-.41,38,38,0,0,1,7.49.33A23.66,23.66,0,0,1,81.67,95.93Z" fill="url(#linear-gradient-26)"/><path d="M57.33,101.81,57,111.42a1.14,1.14,0,0,1-.24.64,2.54,2.54,0,0,1-.68.6,6.09,6.09,0,0,1-1.11.55,12.32,12.32,0,0,1-1.55.47,23.64,23.64,0,0,1-3.75.56,34.62,34.62,0,0,1-4.16,0,32.16,32.16,0,0,1-4-.44,18.34,18.34,0,0,1-3.36-.89,8.52,8.52,0,0,1-1.08-.5,4.36,4.36,0,0,1-.76-.52,2,2,0,0,1-.45-.54,1.08,1.08,0,0,1-.14-.54q.09-4.81.18-9.62a.94.94,0,0,0,.14.5,1.93,1.93,0,0,0,.45.5,4.4,4.4,0,0,0,.77.49,9,9,0,0,0,1.09.47,19.76,19.76,0,0,0,3.39.83,35,35,0,0,0,4.06.41,38,38,0,0,0,4.19,0,25.72,25.72,0,0,0,3.77-.51,13.21,13.21,0,0,0,1.56-.44,6.32,6.32,0,0,0,1.12-.51,2.48,2.48,0,0,0,.68-.56A1,1,0,0,0,57.33,101.81Z" fill="url(#linear-gradient-27)"/><path d="M54.61,99.75a6.87,6.87,0,0,1,2.13,1,1.22,1.22,0,0,1,.58,1.13,1.77,1.77,0,0,1-1,1.08,9.65,9.65,0,0,1-2.59.89,25.72,25.72,0,0,1-3.77.51,38,38,0,0,1-4.19,0A35,35,0,0,1,41.7,104a19.76,19.76,0,0,1-3.39-.83,5.75,5.75,0,0,1-2-1.1,1,1,0,0,1-.37-1.14,2.24,2.24,0,0,1,1.18-1,11,11,0,0,1,2.65-.83,26.69,26.69,0,0,1,3.66-.46,38,38,0,0,1,4,0,35.51,35.51,0,0,1,3.88.38A21.19,21.19,0,0,1,54.61,99.75Z" fill="url(#linear-gradient-28)"/></svg>