<svg id="Layer_1" data-name="Layer 1" xmlns="http://www.w3.org/2000/svg" xmlns:xlink="http://www.w3.org/1999/xlink" viewBox="0 0 178.55 215.4"><defs><linearGradient id="linear-gradient" y1="116.49" x2="178.55" y2="116.49" gradientUnits="userSpaceOnUse"><stop offset="0.05" stop-color="#fff"/><stop offset="0.09" stop-color="#fafafa"/><stop offset="0.13" stop-color="#ececec"/><stop offset="0.18" stop-color="#d5d5d5"/><stop offset="0.22" stop-color="#b4b4b4"/><stop offset="0.27" stop-color="#8a8a8a"/><stop offset="0.32" stop-color="#575757"/><stop offset="0.46"/><stop offset="0.55"/><stop offset="0.61" stop-color="#232222"/><stop offset="0.69" stop-color="#4e4c4b"/><stop offset="0.93" stop-color="#fff"/></linearGradient><linearGradient id="linear-gradient-2" x1="126.6" y1="190.01" x2="126.6" y2="207.56" gradientUnits="userSpaceOnUse"><stop offset="0.28"/><stop offset="0.39" stop-color="#030303"/><stop offset="0.49" stop-color="#0e0e0e"/><stop offset="0.57" stop-color="#1f1f1f"/><stop offset="0.66" stop-color="#373737"/><stop offset="0.73" stop-color="#575757"/><stop offset="0.81" stop-color="#7d7d7d"/><stop offset="0.89" stop-color="#ababab"/><stop offset="0.96" stop-color="#dfdfdf"/><stop offset="1" stop-color="#fff"/></linearGradient><linearGradient id="Neutral_4" x1="93.22" y1="31.54" x2="148.04" y2="31.54" gradientUnits="userSpaceOnUse"><stop offset="0.03" stop-color="#231f20"/><stop offset="1" stop-color="#fff"/></linearGradient><linearGradient id="linear-gradient-3" x1="-635.57" y1="190.01" x2="-635.57" y2="207.56" gradientTransform="matrix(-1, 0, 0, 1, -583.62, 0)" xlink:href="#linear-gradient-2"/><linearGradient id="linear-gradient-4" x1="-663.81" y1="11.24" x2="-609.3" y2="11.24" gradientTransform="matrix(-1, 0, 0, 1, -583.62, 0)" gradientUnits="userSpaceOnUse"><stop offset="0.07"/><stop offset="0.88" stop-color="#fff"/><stop offset="0.99"/></linearGradient><linearGradient id="Neutral_4-2" x1="101.39" y1="211.09" x2="156.2" y2="211.09" xlink:href="#Neutral_4"/><linearGradient id="linear-gradient-5" x1="92.2" y1="1.88" x2="144.92" y2="1.88" gradientUnits="userSpaceOnUse"><stop offset="0.03"/><stop offset="0.89" stop-color="#fff"/><stop offset="1"/></linearGradient><mask id="mask" x="0" y="25.42" width="178.55" height="182.14" maskUnits="userSpaceOnUse"><path d="M156.43,44c-1-1.5-2.37-18.62-2.37-18.62H24.49S23.15,42.54,22.12,44C18.16,49.8,0,51.53,0,66V201.11c0,3.56,3.54,6.45,7.9,6.45H170.65c4.36,0,7.9-2.89,7.9-6.45V66C178.55,51.53,160.39,49.8,156.43,44Z" fill="url(#linear-gradient)"/></mask><mask id="mask-2" x="74.66" y="190.01" width="103.89" height="17.54" maskUnits="userSpaceOnUse"><g opacity="0.59"><path d="M178.36,191.16c0,3.56-3.89,12.89-8.69,12.89,0,0-45.89-4.21-95-4.21v7.71h95.2c4.8,0,8.69-2.89,8.69-6.45V190A7.47,7.47,0,0,0,178.36,191.16Z" fill="url(#linear-gradient-2)"/></g></mask><mask id="mask-3" x="93.22" y="30.36" width="54.81" height="2.36" maskUnits="userSpaceOnUse"><path d="M148,31.54c0-.65-.75-1.18-1.69-1.18H94.91c-.93,0-1.69.53-1.69,1.18s.76,1.18,1.69,1.18h51.44C147.28,32.73,148,32.2,148,31.54Z" fill="url(#Neutral_4)"/></mask><mask id="mask-4" x="0" y="190.01" width="103.89" height="17.54" maskUnits="userSpaceOnUse"><g opacity="0.59"><path d="M.19,191.16c0,3.56,3.89,12.89,8.69,12.89,0,0,45.89-4.21,95-4.21v7.71H8.69c-4.8,0-8.69-2.89-8.69-6.45V190A7.47,7.47,0,0,1,.19,191.16Z" fill="url(#linear-gradient-3)"/></g></mask><linearGradient id="linear-gradient-6" x1="89.27" y1="207.56" x2="89.27" y2="209.06" gradientUnits="userSpaceOnUse"><stop offset="0" stop-color="#5e5e5e"/><stop offset="1" stop-color="#a5a7aa"/></linearGradient><mask id="mask-5" x="25.68" y="10.59" width="54.51" height="1.29" maskUnits="userSpaceOnUse"><path d="M80.19,11.24a.73.73,0,0,1-.79.64H26.47a.73.73,0,0,1-.79-.64h0a.73.73,0,0,1,.79-.64H79.4a.73.73,0,0,1,.79.64Z" fill="url(#linear-gradient-4)"/></mask><mask id="mask-6" x="101.39" y="210.26" width="54.81" height="1.65" maskUnits="userSpaceOnUse"><path d="M156.2,211.09c0-.46-.76-.83-1.69-.83H103.07c-.93,0-1.69.37-1.69.83s.76.82,1.69.82h51.44C155.44,211.91,156.2,211.54,156.2,211.09Z" fill="url(#Neutral_4-2)"/></mask><mask id="mask-7" x="92.2" y="0.85" width="52.72" height="2.06" maskUnits="userSpaceOnUse"><path d="M92.2,1.88c0,.57.34,1,.76,1h51.19c.42,0,.76-.46.76-1h0c0-.57-.34-1-.76-1H93c-.42,0-.76.46-.76,1Z" fill="url(#linear-gradient-5)"/></mask><linearGradient id="linear-gradient-7" x1="26.35" y1="58.35" x2="28.06" y2="66.73" gradientUnits="userSpaceOnUse"><stop offset="0" stop-color="#85c340"/><stop offset="0.02" stop-color="#8ac540"/><stop offset="0.17" stop-color="#a4ce43"/><stop offset="0.3" stop-color="#b4d344"/><stop offset="0.4" stop-color="#bad545"/><stop offset="1" stop-color="#436e1e"/></linearGradient><linearGradient id="linear-gradient-8" x1="24.72" y1="85.43" x2="32.3" y2="87.32" gradientUnits="userSpaceOnUse"><stop offset="0" stop-color="#436e1e"/><stop offset="0.6" stop-color="#bad545"/><stop offset="0.7" stop-color="#b4d344"/><stop offset="0.83" stop-color="#a4ce43"/><stop offset="0.98" stop-color="#8ac540"/><stop offset="1" stop-color="#85c340"/></linearGradient><linearGradient id="linear-gradient-9" x1="25.69" y1="87.63" x2="23.07" y2="99.35" gradientUnits="userSpaceOnUse"><stop offset="0" stop-color="#bad545"/><stop offset="0.23" stop-color="#d5b238"/><stop offset="0.47" stop-color="#ec932d"/><stop offset="0.61" stop-color="#f58829"/><stop offset="1" stop-color="#975410"/></linearGradient><linearGradient id="linear-gradient-10" x1="73.8" y1="71.06" x2="79.56" y2="71.06" gradientUnits="userSpaceOnUse"><stop offset="0" stop-color="#254a9d"/><stop offset="1" stop-color="#00bff2"/></linearGradient><linearGradient id="linear-gradient-11" x1="81.3" y1="73.73" x2="87.48" y2="73.73" xlink:href="#linear-gradient-10"/><linearGradient id="linear-gradient-12" x1="75.39" y1="72.28" x2="90.17" y2="70.77" xlink:href="#linear-gradient-8"/><linearGradient id="linear-gradient-13" x1="23.19" y1="78.99" x2="24.79" y2="73.35" xlink:href="#linear-gradient-8"/><linearGradient id="linear-gradient-14" x1="23.65" y1="76.89" x2="28.16" y2="60.94" xlink:href="#linear-gradient-8"/><linearGradient id="linear-gradient-15" x1="51.44" y1="92.59" x2="59" y2="65.91" xlink:href="#linear-gradient-8"/><linearGradient id="linear-gradient-16" x1="59.58" y1="94.11" x2="61" y2="81.23" xlink:href="#linear-gradient-10"/><linearGradient id="linear-gradient-17" x1="-9103.87" y1="91.79" x2="-9085.87" y2="91.79" gradientTransform="matrix(-1, 0, 0, 1, -9016.8, 0)" xlink:href="#linear-gradient-10"/><linearGradient id="linear-gradient-18" x1="74.4" y1="110.14" x2="64.63" y2="114.22" xlink:href="#linear-gradient-9"/><linearGradient id="linear-gradient-19" x1="73.58" y1="110" x2="65.51" y2="104.41" xlink:href="#linear-gradient-9"/><linearGradient id="linear-gradient-20" x1="70.48" y1="89.46" x2="79.06" y2="94.7" xlink:href="#linear-gradient-8"/><linearGradient id="linear-gradient-21" x1="86.09" y1="101.32" x2="91.19" y2="109.77" xlink:href="#linear-gradient-8"/><linearGradient id="linear-gradient-22" x1="83.34" y1="93.64" x2="86.36" y2="101.44" xlink:href="#linear-gradient-8"/><linearGradient id="linear-gradient-23" x1="-9049.55" y1="68.52" x2="-9036.21" y2="68.52" gradientTransform="matrix(-1, 0, 0, 1, -9016.8, 0)" xlink:href="#linear-gradient-7"/><radialGradient id="radial-gradient" cx="-9013.39" cy="67.09" r="5.63" gradientTransform="matrix(-1.22, 0, 0, 1, -11000.61, 0.44)" gradientUnits="userSpaceOnUse"><stop offset="0" stop-color="#3165af"/><stop offset="0.64" stop-color="#2b60ac"/><stop offset="1" stop-color="#255ba9"/></radialGradient><radialGradient id="radial-gradient-2" cx="-9013.26" cy="67.39" r="5.25" gradientTransform="matrix(-1.22, 0, 0, 1, -11000.61, 0.44)" gradientUnits="userSpaceOnUse"><stop offset="0" stop-color="#ee4323"/><stop offset="0.13" stop-color="#e84122"/><stop offset="0.3" stop-color="#d83a1e"/><stop offset="0.49" stop-color="#bc2f18"/><stop offset="0.7" stop-color="#96200f"/><stop offset="0.92" stop-color="#660c05"/><stop offset="1" stop-color="#520400"/></radialGradient><linearGradient id="linear-gradient-24" x1="57.57" y1="80.52" x2="55.39" y2="90.47" gradientUnits="userSpaceOnUse"><stop offset="0" stop-color="#fff229"/><stop offset="0.2" stop-color="#eae931"/><stop offset="0.51" stop-color="#d0de3c"/><stop offset="0.79" stop-color="#c0d743"/><stop offset="1" stop-color="#bad545"/></linearGradient><linearGradient id="linear-gradient-25" x1="-9098.68" y1="90.29" x2="-9080.69" y2="90.29" gradientTransform="matrix(-1, 0, 0, 1, -9016.8, 0)" xlink:href="#linear-gradient-10"/><linearGradient id="linear-gradient-26" x1="45.56" y1="109.2" x2="33.17" y2="117.61" xlink:href="#linear-gradient-9"/><linearGradient id="linear-gradient-27" x1="37.98" y1="88.95" x2="53.27" y2="84.61" xlink:href="#linear-gradient-8"/><linearGradient id="linear-gradient-28" x1="44.26" y1="100.46" x2="53.01" y2="104.18" xlink:href="#linear-gradient-8"/><linearGradient id="linear-gradient-29" x1="44.59" y1="90.83" x2="51.77" y2="83.81" xlink:href="#linear-gradient-10"/><linearGradient id="linear-gradient-30" x1="91.6" y1="124.06" x2="93.31" y2="132.45" xlink:href="#linear-gradient-7"/><linearGradient id="linear-gradient-31" x1="89.97" y1="151.15" x2="97.55" y2="153.04" xlink:href="#linear-gradient-8"/><linearGradient id="linear-gradient-32" x1="90.95" y1="153.34" x2="88.33" y2="165.07" xlink:href="#linear-gradient-9"/><linearGradient id="linear-gradient-33" x1="139.05" y1="136.78" x2="144.81" y2="136.78" xlink:href="#linear-gradient-10"/><linearGradient id="linear-gradient-34" x1="146.56" y1="139.45" x2="152.74" y2="139.45" xlink:href="#linear-gradient-10"/><linearGradient id="linear-gradient-35" x1="140.64" y1="138" x2="155.42" y2="136.48" xlink:href="#linear-gradient-8"/><linearGradient id="linear-gradient-36" x1="88.45" y1="144.71" x2="90.04" y2="139.07" xlink:href="#linear-gradient-8"/><linearGradient id="linear-gradient-37" x1="88.9" y1="142.61" x2="93.42" y2="126.65" xlink:href="#linear-gradient-8"/><linearGradient id="linear-gradient-38" x1="116.69" y1="158.31" x2="124.25" y2="131.63" xlink:href="#linear-gradient-8"/><linearGradient id="linear-gradient-39" x1="124.84" y1="159.83" x2="126.25" y2="146.95" xlink:href="#linear-gradient-10"/><linearGradient id="linear-gradient-40" x1="-9169.13" y1="157.51" x2="-9151.12" y2="157.51" gradientTransform="matrix(-1, 0, 0, 1, -9016.8, 0)" xlink:href="#linear-gradient-10"/><linearGradient id="linear-gradient-41" x1="139.66" y1="175.86" x2="129.88" y2="179.94" xlink:href="#linear-gradient-9"/><linearGradient id="linear-gradient-42" x1="138.83" y1="175.72" x2="130.76" y2="170.13" xlink:href="#linear-gradient-9"/><linearGradient id="linear-gradient-43" x1="135.74" y1="155.18" x2="144.31" y2="160.42" xlink:href="#linear-gradient-8"/><linearGradient id="linear-gradient-44" x1="151.34" y1="167.04" x2="156.44" y2="175.48" xlink:href="#linear-gradient-8"/><linearGradient id="linear-gradient-45" x1="148.59" y1="159.36" x2="151.61" y2="167.16" xlink:href="#linear-gradient-8"/><linearGradient id="linear-gradient-46" x1="-9114.8" y1="134.24" x2="-9101.46" y2="134.24" gradientTransform="matrix(-1, 0, 0, 1, -9016.8, 0)" xlink:href="#linear-gradient-7"/><radialGradient id="radial-gradient-3" cx="-9066.73" cy="132.92" r="5.63" xlink:href="#radial-gradient"/><radialGradient id="radial-gradient-4" cx="-9066.6" cy="133.22" r="5.25" xlink:href="#radial-gradient-2"/><linearGradient id="linear-gradient-47" x1="122.83" y1="146.24" x2="120.64" y2="156.18" xlink:href="#linear-gradient-24"/><linearGradient id="linear-gradient-48" x1="-9163.93" y1="156.01" x2="-9145.94" y2="156.01" gradientTransform="matrix(-1, 0, 0, 1, -9016.8, 0)" xlink:href="#linear-gradient-10"/><linearGradient id="linear-gradient-49" x1="110.82" y1="174.92" x2="98.42" y2="183.33" xlink:href="#linear-gradient-9"/><linearGradient id="linear-gradient-50" x1="103.23" y1="154.67" x2="118.53" y2="150.33" xlink:href="#linear-gradient-8"/><linearGradient id="linear-gradient-51" x1="109.52" y1="166.18" x2="118.26" y2="169.89" xlink:href="#linear-gradient-8"/><linearGradient id="linear-gradient-52" x1="109.84" y1="156.55" x2="117.02" y2="149.53" xlink:href="#linear-gradient-10"/></defs><title>1</title><g mask="url(#mask)"><path d="M156.43,44c-1-1.5-2.37-18.62-2.37-18.62H24.49S23.15,42.54,22.12,44C18.16,49.8,0,51.53,0,66V201.11c0,3.56,3.54,6.45,7.9,6.45H170.65c4.36,0,7.9-2.89,7.9-6.45V66C178.55,51.53,160.39,49.8,156.43,44Z" fill="#7f7f7f"/></g><path d="M150.11,44c-1-1.5-2.37-18.62-2.37-18.62H30.81S29.47,42.54,28.44,44c-4,5.77-22.12,7.49-22.12,22V201.11c0,3.56,3.54,6.45,7.9,6.45H164.33c4.36,0,7.9-2.89,7.9-6.45V66C172.23,51.53,154.07,49.8,150.11,44Z" fill="#bbbcbe" opacity="0.27"/><path d="M154,26.71h.12c-.08-.8-.12-1.28-.12-1.28H89.27v1.29Z" fill="#595b5c"/><path d="M89.27,37.67h66c-.11-.77-.21-1.56-.31-2.36H89.27Z" fill="#6b6d6f"/><g opacity="0.59"><path d="M178.36,191.16c0,3.56-3.89,12.89-8.69,12.89,0,0-31.27-4.21-80.39-4.21v7.71h80.58c4.8,0,8.69-2.89,8.69-6.45V190A7.47,7.47,0,0,0,178.36,191.16Z" fill="#aaadb0"/></g><g mask="url(#mask-2)"><path d="M178.36,191.16c0,3.56-3.89,12.89-8.69,12.89,0,0-31.27-4.21-80.39-4.21v7.71h80.58c4.8,0,8.69-2.89,8.69-6.45V190A7.47,7.47,0,0,0,178.36,191.16Z" fill="#7d7f81"/></g><path d="M141.88,204.05s-17.85-2.27-52.6-2.27v4.16H142C145.41,205.95,145.28,204.05,141.88,204.05Z" fill="#fff" opacity="0.16"/><path d="M89.27,28.43h65c-.07-.67-.12-1.25-.17-1.72H89.27Z" fill="#797c7e" opacity="0.71"/><path d="M156.85,28.35H89.27v6.92h67.58a3.28,3.28,0,0,0,3.06-3.46A3.28,3.28,0,0,0,156.85,28.35Z" fill="#7d7f81"/><path d="M154.88,28.43H89.27v5.88h65.61a2.94,2.94,0,1,0,0-5.88Z" fill="#aeafb0"/><path d="M150.23,29.4h-61v4.67h61a2.35,2.35,0,1,0,0-4.67Z" fill="#e1e2e3" opacity="0.66"/><g mask="url(#mask-3)"><path d="M148,31.54c0-.65-.75-1.18-1.69-1.18H94.91c-.93,0-1.69.53-1.69,1.18s.76,1.18,1.69,1.18h51.44C147.28,32.73,148,32.2,148,31.54Z" fill="#fff"/></g><path d="M24.5,26.71h-.12c.07-.8.12-1.28.12-1.28H89.27v1.29Z" fill="#595b5c"/><path d="M9.37,207.56c.67,4.59,2.34,7.84,4.29,7.84H164.89c2,0,3.62-3.25,4.29-7.84Z" fill="#a5a7aa"/><path d="M12.34,209.8a4.47,4.47,0,0,0,4.15,3H162.05a4.47,4.47,0,0,0,4.15-3Z" fill="#b4b6b8"/><path d="M89.27,37.67h-66c.11-.77.21-1.56.31-2.36H89.27Z" fill="#6b6d6f"/><g opacity="0.59"><path d="M.19,191.16c0,3.56,3.89,12.89,8.69,12.89,0,0,31.27-4.21,80.39-4.21v7.71H8.69c-4.8,0-8.69-2.89-8.69-6.45V190A7.47,7.47,0,0,1,.19,191.16Z" fill="#aaadb0"/></g><g mask="url(#mask-4)"><path d="M.19,191.16c0,3.56,3.89,12.89,8.69,12.89,0,0,31.27-4.21,80.39-4.21v7.71H8.69c-4.8,0-8.69-2.89-8.69-6.45V190A7.47,7.47,0,0,1,.19,191.16Z" fill="#7d7f81"/></g><path d="M36.67,204.05s17.85-2.27,52.6-2.27v4.16H36.54C33.14,205.95,33.27,204.05,36.67,204.05Z" fill="#fff" opacity="0.16"/><path d="M89.27,28.43h-65c.07-.67.12-1.25.17-1.72H89.27Z" fill="#797c7e" opacity="0.71"/><path d="M9.37,207.56a8.89,8.89,0,0,0,.53,1.51H168.65a8.85,8.85,0,0,0,.53-1.51Z" fill="url(#linear-gradient-6)"/><g mask="url(#mask-5)"><path d="M80.19,11.24a.73.73,0,0,1-.79.64H26.47a.73.73,0,0,1-.79-.64h0a.73.73,0,0,1,.79-.64H79.4a.73.73,0,0,1,.79.64Z" fill="#fff" opacity="0.32"/></g><path d="M21.69,28.35H89.27v6.92H21.69a3.28,3.28,0,0,1-3.06-3.46A3.28,3.28,0,0,1,21.69,28.35Z" fill="#7d7f81"/><path d="M23.67,28.43H89.27v5.88H23.67a2.94,2.94,0,1,1,0-5.88Z" fill="#aeafb0"/><path d="M28.32,29.4h61v4.67h-61a2.35,2.35,0,1,1,0-4.67Z" fill="#e1e2e3" opacity="0.66"/><g mask="url(#mask-6)"><path d="M156.2,211.09c0-.46-.76-.83-1.29-.83H103.47c-1.33,0-2.08.37-2.08.83s.76.82,1.69.82h51.44C155.44,211.91,156.2,211.54,156.2,211.09Z" fill="#d6d6d6"/></g><path d="M158.31,5.74h-69V31.49h69c4.62,0,8.37-4.61,8.37-10.3V16C166.68,10.35,162.93,5.74,158.31,5.74Z" fill="#a16733"/><path d="M154.15,7H89.27V30.2h64.88c4.39,0,8-4.15,8-9.27V16.3C162.1,11.18,158.54,7,154.15,7Z" fill="#a16733"/><g mask="url(#mask-7)"><path d="M92.2,1.88c0,.57.34,1,.76,1h51.19c.42,0,.76-.46.76-1h0c0-.57-.34-1-.76-1H93c-.42,0-.76.46-.76,1Z" fill="#fff" opacity="0.71"/></g><path d="M20.24,5.74h69V31.49h-69c-4.62,0-8.37-4.61-8.37-10.3V16C11.87,10.35,15.61,5.74,20.24,5.74Z" fill="#a16733"/><path d="M24.4,7H89.27V30.2H24.4c-4.39,0-7.95-4.15-7.95-9.27V16.3C16.45,11.18,20,7,24.4,7Z" fill="#a16733"/><path d="M145.7,0H32.85c-4,0-7.24,5.6-7.24,12.51v6.25c0,6.91,3.24,12.51,7.24,12.51H145.7c4,0,7.24-5.6,7.24-12.51V12.51C152.94,5.6,149.7,0,145.7,0Z" fill="#ba773b"/><path d="M21.26,65.36c1.54,2.73,5.5,3.92,8.85,2.66s4.8-4.49,3.26-7.22-5.5-3.92-8.85-2.66S19.71,62.63,21.26,65.36Z" fill="url(#linear-gradient-7)"/><path d="M27.74,88.49c1.24-.38,2.31.24,3.45.81A3.88,3.88,0,0,1,31.73,88a10.11,10.11,0,0,0,.54-1.47c.25-.67.5-1.33.72-2l0-.14-4.84-2.75-.1.28c-.56,1.58-1.12,3.16-1.71,4.74a7.88,7.88,0,0,1-1,1.92,4.56,4.56,0,0,1-1.29,1l-.45.28C25.26,90.25,26.5,89.1,27.74,88.49Z" fill="url(#linear-gradient-8)"/><path d="M38.26,92a2.38,2.38,0,0,0-2.87-.77,2.43,2.43,0,0,0-.63.35c-1.34-.33-2.92-.47-3.45-1.54a1.22,1.22,0,0,1-.11-.72c-1.14-.57-2.21-1.19-3.45-.81-1.24.61-2.48,1.76-4.12,1.34-1.89,1.08-4.39,1.54-6.31,2.61A14.06,14.06,0,0,0,13.93,95c-.62.65-1.62,1.44-1.87,2.29a3.15,3.15,0,0,0-1.35.19c-1.22.46-1.8,1.56-1.3,2.45a2.59,2.59,0,0,0,3.12.78c1.19-.45,1.77-1.5,1.32-2.38a15.54,15.54,0,0,0,1.87-2.11,13.91,13.91,0,0,1,3.63-3.14c.48-.28,3.27-1.57,3.28-.14,0,.41-.67.91-.91,1.24A15.85,15.85,0,0,0,20.57,96a9.78,9.78,0,0,0-1.22,3.85,3,3,0,0,0-.65.15,1.89,1.89,0,0,0-1.23,2.68,2.74,2.74,0,0,0,3.3,1A1.89,1.89,0,0,0,22,101a2,2,0,0,0-.33-.42c.85-1.16.95-2.87,1.28-4.08a8.78,8.78,0,0,1,1.4-2.75c.5-.74.78-1.34,1.76-1.68.77.87.76,2.39.84,3.43a9.71,9.71,0,0,0,.28,2c-1,.57-1.38,1.48-1,2.22s2,1.18,3.34.67,2-1.63,1.54-2.51a2.22,2.22,0,0,0-2-.91c0-.24,0-.49-.06-.76-.07-1-.64-3.49.43-4.21.55-.37,1.29-.09,1.84.12a23.09,23.09,0,0,0,2.28.72l.41.11a1.35,1.35,0,0,0,.16.55,2.38,2.38,0,0,0,2.87.77C38.22,93.83,38.73,92.82,38.26,92Z" fill="url(#linear-gradient-9)"/><path d="M73.8,70.64s2.85,1.11,5.76,2.49A36.44,36.44,0,0,1,77,69,12.72,12.72,0,0,0,73.8,70.64Z" fill="url(#linear-gradient-10)"/><path d="M87.48,78s-1.62-6.1-6.18-8.56a23.05,23.05,0,0,1,1.49,5.33c.59.34,1.13.67,1.58,1Z" fill="url(#linear-gradient-11)"/><path d="M80,68.87A4.84,4.84,0,0,0,77,69a36.44,36.44,0,0,0,2.51,4.12c1.12.53,2.25,1.1,3.23,1.66a23.05,23.05,0,0,0-1.49-5.33A8.34,8.34,0,0,0,80,68.87Z" fill="url(#linear-gradient-12)"/><path d="M20.63,78.11a16.51,16.51,0,0,1,2.23.91L23,79c4.71-.9,9.42.23,14.12-1.36a13.93,13.93,0,0,0,1.52-.38c-9.87,0-19.87-.72-28.82-4.08C12.26,75.42,20.32,78.16,20.63,78.11Z" fill="url(#linear-gradient-13)"/><path d="M40.2,76.06c.49-5-3.34-9.44-6.72-13.68a65,65,0,0,0-7.46,1,47.57,47.57,0,0,0-9.75,1.47c-5.52,1.4-8.12,5.33-7,7.64a2.56,2.56,0,0,0,.58.72c8.95,3.36,19,4,28.82,4.08C39.48,77,40.2,76.61,40.2,76.06Z" fill="url(#linear-gradient-14)"/><path d="M87.34,80.17A2.88,2.88,0,0,0,87.49,78h0l-3.12-2.23c-3.12-2.23-15.23-7.07-15.23-7.07s-6.89-2.33-11.77-1.93a20,20,0,0,1-13.45-3.11c-2.35-1.44-6.64-1.55-10.44-1.28,3.38,4.24,7.2,8.7,6.72,13.68,0,.9-1.94,1.36-3,1.58C32.45,79.23,27.74,78.1,23,79l-.18,0c1.44.65,3.4,1.59,5.34,2.59L33,84.37a13,13,0,0,1,1.67,1.25A56,56,0,0,0,42,90.55a53.11,53.11,0,0,1-5.32-9.07,16.7,16.7,0,0,1,2.8.12c-.47-.52-.12-.95-.42-1.56,15.17,0,28.78,3.11,43.14,7.06.43-.28.86-.56,1.3-.87A9.19,9.19,0,0,0,87.34,80.17Z" fill="url(#linear-gradient-15)"/><path d="M39.44,81.6c7.53,1,12.29,7,16.77,11.88,0-.29,0-.45,0-.45,1.37,1.49,11.56-.47,12.6-.67,6.82-1.82,10-3.16,13.3-5.26C67.8,83.15,54.49,80,39.32,80,39.62,80.65,39,81.08,39.44,81.6Z" fill="url(#linear-gradient-16)"/><path d="M87.07,85.21c-.72-1.71-1.58-2.82-3.33-1.35-6.19,5-11.3,10.25-14.68,16.54,3-1.75,6.48-2.74,9.61-4.43l-1.17.47S86.13,89.44,87.07,85.21Z" fill="url(#linear-gradient-17)"/><path d="M67.92,108.13a31.81,31.81,0,0,0-4.67.66,3.38,3.38,0,0,0-3-.9c-1.62.21-2.77,1.22-2.57,2.25s1.68,1.7,3.3,1.48a3,3,0,0,0,2.52-1.6c1.6.29,4.15.48,5.34.85,1.91.59,3.38,1.58,2.26,3.26a3.65,3.65,0,0,0-.49,1.11h-.06c-1.54.2-2.6,1.34-2.36,2.54a2.77,2.77,0,0,0,3.21,1.81c1.54-.2,2.6-1.34,2.36-2.54a1.84,1.84,0,0,0-.33-.75c.24-.24.49-.5.73-.78-.65-2.38-2.86-4.46-5.31-5.91C68.77,109.35,68.19,108.76,67.92,108.13Z" fill="url(#linear-gradient-18)"/><path d="M67.85,107.25c1.23-1,2.74-.68,4.19-.6-.53-.27-1.27-.63-2-.93a40.31,40.31,0,0,1-4.44-2.18,1.67,1.67,0,0,0-1.39,1.76,2.1,2.1,0,0,0,2.45,1.3l.11,0a4.56,4.56,0,0,0,1.09,1.32A1,1,0,0,1,67.85,107.25Z" fill="url(#linear-gradient-19)"/><path d="M69.18,100.2c3.37-6.2,8.44-11.41,14.56-16.34,1.74-1.47,2.61-.36,3.33,1.35a2.71,2.71,0,0,0,0-1.23c-.58-2.43-2.88-3.51-5.22-3.33-5.27,6.48-14,12.3-18,19.28a2.59,2.59,0,0,0,.6,2.74c.37.32.73.6,1.09.87l1.23.66A5.26,5.26,0,0,1,69.18,100.2Z" fill="url(#linear-gradient-20)"/><path d="M82.29,107.38c-2.51-.23-9.44-.3-9.44-.3s-.33-.18-.82-.43c-1.45-.08-3-.44-4.19.6a1,1,0,0,0,0,.65l.27.22h-.19c.27.63.85,1.22.91,1.5,2.46,1.45,4.66,3.53,5.31,5.91,1.39-1.59,2.74-3.62,4-3.78,1.75-.23,6.77,1,12.11-4s14.54-10.74,14-13.34a19.42,19.42,0,0,0-6.81,2.37C96.28,97.81,84.67,107.6,82.29,107.38Z" fill="url(#linear-gradient-21)"/><path d="M93.94,90.61C88.69,92.06,81.47,94.87,78.68,96c-3.13,1.69-6.61,2.67-9.61,4.43l.11-.2a5.26,5.26,0,0,0-2.38,4A24.24,24.24,0,0,0,70,105.72c2.29.49,4.63,0,7.58-1,5.26-1.87,19.94-8,19.94-8l-.1.08a19.42,19.42,0,0,1,6.81-2.37,1.23,1.23,0,0,0,0-.12C103.4,91.81,100.58,88.76,93.94,90.61Z" fill="url(#linear-gradient-22)"/><path d="M20,70.8c1.54,2.73,5.51,3.92,8.85,2.66s4.8-4.49,3.26-7.22-5.5-3.92-8.85-2.66S18.48,68.07,20,70.8Z" fill="url(#linear-gradient-23)"/><path d="M20.33,70.88c1.4,2.48,5,3.56,8,2.42s4.37-4.08,3-6.56-5-3.56-8-2.42S18.93,68.4,20.33,70.88Z" fill="url(#radial-gradient)"/><path d="M20.5,70.95c1.31,2.31,4.66,3.32,7.5,2.25s4.07-3.81,2.76-6.12-4.66-3.32-7.5-2.25S19.19,68.64,20.5,70.95Z" fill="url(#radial-gradient-2)"/><path d="M74.55,84.83a51.25,51.25,0,0,1-5.13-1.08c-1.08-.28-2.16-.48-3.19-.83-.52-.18-1-.21-1.58-.33s-1.16-.34-1.76-.46c-1.58-.31-3.11-.56-4.71-.78-1-.13-2-.22-3-.39s-1.85-.52-2.81-.76a15.12,15.12,0,0,0-3.59-.39c-.87,0-1.68.22-2.6.14-.63-.05-1.23-.33-1.86-.41a30.33,30.33,0,0,0-3.54,0,4.92,4.92,0,0,0-2.54.66c-.51.3-.74.57-.51,1.06a1.47,1.47,0,0,0,1,.75c.51.17.7.11.83-.16-.12-.47-.4-1.06,0-1.06a8.72,8.72,0,0,1,3.44-.22l.08,0a2.46,2.46,0,0,1,.77.29c.21.14.22.32.32.53.19.41.31.85.51,1.24s.73,1.27,1.2,1.1.09-1.32,0-1.62c-.1-.6-.32-1,.64-1,1.12,0,1.69,0,2,1s.33,1.9.61,2.83a9.32,9.32,0,0,0,.9,2.19c.24.39.87,1.31,1.59,1.24s0-.94-.09-1.18a17.28,17.28,0,0,1-.79-1.86,5.83,5.83,0,0,1-.19-2,2,2,0,0,1,1-1.93,2.55,2.55,0,0,1,3.33.82c1,1.36.7,3.36.4,4.86-.22,1.1-.49,2.74.19,3.77a1.28,1.28,0,0,0,1.31.55c.53-.09.48-.32.53-.76.14-1.21,0-2.47.11-3.69a10.56,10.56,0,0,1,.78-3.36c.35-.77.92-1.59,2-1.19,2,.71,1.8,2.78,1.67,4.26-.05.61-1.22,5.11-.16,5.19.56,0,1.1-.82,1.28-1.16.37-.68.76-1.36,1.08-2.06.59-1.26.92-2.58,1.55-3.82.26-.52.86-1,1.46-.44a2.28,2.28,0,0,1,.54,1.5c.06.94,0,1.9,0,2.85,0,.39-.06,1.31.4,1.6s.72-.2.94-.51A19,19,0,0,0,70.28,88a12.5,12.5,0,0,1,.53-1.25c.83-1.22,2.78-.67,4.14-.61.48,0,1.23,0,1.35-.53S75,84.9,74.55,84.83Z" fill="url(#linear-gradient-24)"/><path d="M81.88,80.65a6.49,6.49,0,0,0-4,1.74s-12.6,11.53-14,17.54C67.86,93,76.6,87.14,81.88,80.65Z" fill="url(#linear-gradient-25)"/><path d="M41,110.87c-1-.59.37-2,.56-3.42l-.64.36a32.85,32.85,0,0,0-2.27-2.72,1.25,1.25,0,0,0,.09-1.37,2.12,2.12,0,0,0-2.56-.71,1.47,1.47,0,0,0-1,2.05,2,2,0,0,0,2.11.83,32,32,0,0,0,2.76,3.69s-7.42-1.3-9.83-.31a4,4,0,0,0-.49.24,2.9,2.9,0,0,0-2,0c-1.17.44-1.72,1.51-1.22,2.39a2.51,2.51,0,0,0,3,.79A1.89,1.89,0,0,0,31,110.87c2.69-1.46,8.73.81,8.73.81-5.63.92-7.18,4.22-8.18,5.88l0,.07a2.16,2.16,0,0,0-.72.14,1.41,1.41,0,0,0-.9,2,2,2,0,0,0,2.46.75,1.41,1.41,0,0,0,.9-2,1.54,1.54,0,0,0-.38-.43,8.66,8.66,0,0,1,1.59-2.76c1.87-2.6,7.25-2.12,7.25-2.12s-.63,3.49-.06,5.48a3.66,3.66,0,0,0,.49,1,1.49,1.49,0,0,0-.48,1.91,2.45,2.45,0,0,0,3,.76c1.15-.43,1.69-1.47,1.21-2.33a2.38,2.38,0,0,0-2.66-.85l0,0c-1.62-2.87.73-7.24.73-7.24s.5-.38,1.34-1.06C43.66,111.11,42.11,111.42,41,110.87Z" fill="url(#linear-gradient-26)"/><path d="M52.95,92.37l-.56-.48c-4.8-3.72-11-5.92-14.56-10.41-.39,0-.78,0-1.18,0A53.11,53.11,0,0,0,42,90.55c2.73,1.65,5.11,3,5.11,3l-.18.74A9.35,9.35,0,0,1,52.95,92.37Z" fill="url(#linear-gradient-27)"/><path d="M46.89,94.27c-.61,2.48-2.54,10.4-2.76,11.12s-1.66,1.54-2.54,2c-.19,1.4-1.52,2.84-.56,3.42s2.63.24,4.15,0c1.39-1.12,3.71-3,6.26-5.36s3.86-6.83,4.41-9.72a15.24,15.24,0,0,0-2.9-3.43A9.35,9.35,0,0,0,46.89,94.27Z" fill="url(#linear-gradient-28)"/><path d="M37.82,81.47c3.57,4.49,9.76,6.69,14.56,10.41a15.59,15.59,0,0,1,3.46,3.91c.19-1,.3-1.84.36-2.32C51.42,88.24,46.31,81.7,37.82,81.47Z" fill="url(#linear-gradient-29)"/><path d="M24,71.45l1.37-5.8A7.48,7.48,0,0,0,24,71.45Z" fill="#231f20"/><ellipse cx="27.29" cy="67.05" rx="0.62" ry="0.51" fill="#fff"/><path d="M33,63.86h.58c.38,0,.93,0,1.63,0s1.55.1,2.52.21a27.8,27.8,0,0,1,3.24.56A14.41,14.41,0,0,1,44.64,66l.45.25.41.24.41.19c.15.06.29.13.45.18a11.56,11.56,0,0,0,2,.48c1.43.22,3,.28,4.53.36s3.18.15,4.79.31a32.8,32.8,0,0,1,4.76.82,21,21,0,0,1,2.24.7l2.08.78c1.37.51,2.68,1,3.92,1.49l3.5,1.35,1.55.61,1.39.57,2.25.94,1.44.62.51.22-.54-.17-1.51-.5L77,74.64l-1.43-.49-1.59-.53-3.58-1.21c-1.27-.43-2.61-.89-4-1.38l-2.1-.74c-.69-.23-1.41-.45-2.14-.63a31.85,31.85,0,0,0-4.58-.76c-1.56-.17-3.15-.25-4.72-.34a40.76,40.76,0,0,1-4.66-.45,11.49,11.49,0,0,1-2.2-.59c-.18-.06-.34-.15-.51-.22s-.34-.17-.5-.26l-.43-.27-.39-.24a14.45,14.45,0,0,0-3.35-1.36c-1.12-.31-2.17-.54-3.12-.71s-1.78-.29-2.47-.37l-1.61-.18Z" fill="#fff"/><path d="M86.51,131.07c1.54,2.73,5.5,3.92,8.85,2.66s4.8-4.49,3.26-7.22-5.5-3.92-8.85-2.66S85,128.34,86.51,131.07Z" fill="url(#linear-gradient-30)"/><path d="M93,154.21c1.24-.38,2.31.24,3.45.81a3.88,3.88,0,0,1,.54-1.33,10.11,10.11,0,0,0,.54-1.47c.25-.67.5-1.33.72-2l0-.14-4.84-2.75-.1.28c-.56,1.58-1.12,3.16-1.71,4.74a7.88,7.88,0,0,1-1,1.92,4.56,4.56,0,0,1-1.29,1l-.45.28C90.51,156,91.75,154.82,93,154.21Z" fill="url(#linear-gradient-31)"/><path d="M103.51,157.69a2.38,2.38,0,0,0-2.87-.77,2.43,2.43,0,0,0-.63.35c-1.34-.33-2.92-.47-3.45-1.54a1.22,1.22,0,0,1-.11-.72c-1.14-.57-2.21-1.19-3.45-.81-1.24.61-2.48,1.76-4.12,1.34-1.89,1.08-4.39,1.54-6.31,2.61a14.06,14.06,0,0,0-3.38,2.57c-.62.65-1.62,1.44-1.87,2.29a3.15,3.15,0,0,0-1.35.19c-1.22.46-1.8,1.56-1.3,2.45a2.59,2.59,0,0,0,3.12.78c1.19-.45,1.77-1.5,1.32-2.38A15.54,15.54,0,0,0,81,161.94a13.91,13.91,0,0,1,3.63-3.14c.48-.28,3.27-1.57,3.28-.14,0,.41-.67.91-.91,1.24a15.85,15.85,0,0,0-1.15,1.85,9.78,9.78,0,0,0-1.22,3.85,3,3,0,0,0-.65.15,1.89,1.89,0,0,0-1.23,2.68,2.74,2.74,0,0,0,3.3,1,1.89,1.89,0,0,0,1.23-2.68,2,2,0,0,0-.33-.42c.85-1.16.95-2.87,1.28-4.08a8.78,8.78,0,0,1,1.4-2.75c.5-.74.78-1.34,1.76-1.68.77.87.76,2.39.84,3.43a9.71,9.71,0,0,0,.28,2c-1,.57-1.38,1.48-1,2.22s2,1.18,3.34.67,2-1.63,1.54-2.51a2.22,2.22,0,0,0-2-.91c0-.24,0-.49-.06-.76-.07-1-.64-3.49.43-4.21.55-.37,1.29-.09,1.84.12a23.09,23.09,0,0,0,2.28.72l.41.11a1.35,1.35,0,0,0,.16.55,2.38,2.38,0,0,0,2.87.77C103.47,159.55,104,158.53,103.51,157.69Z" fill="url(#linear-gradient-32)"/><path d="M139.05,136.36s2.85,1.11,5.76,2.49a36.44,36.44,0,0,1-2.51-4.12A12.72,12.72,0,0,0,139.05,136.36Z" fill="url(#linear-gradient-33)"/><path d="M152.74,143.73s-1.62-6.1-6.18-8.56A23.05,23.05,0,0,1,148,140.5c.59.34,1.13.67,1.58,1Z" fill="url(#linear-gradient-34)"/><path d="M145.23,134.58a4.84,4.84,0,0,0-2.93.13,36.44,36.44,0,0,0,2.51,4.12c1.12.53,2.25,1.1,3.23,1.66a23.05,23.05,0,0,0-1.49-5.33A8.34,8.34,0,0,0,145.23,134.58Z" fill="url(#linear-gradient-35)"/><path d="M85.88,143.83a16.51,16.51,0,0,1,2.23.91l.18,0c4.71-.9,9.42.23,14.12-1.36a13.93,13.93,0,0,0,1.52-.38c-9.87,0-19.87-.72-28.82-4.08C77.52,141.13,85.58,143.88,85.88,143.83Z" fill="url(#linear-gradient-36)"/><path d="M105.45,141.78c.49-5-3.34-9.44-6.72-13.68a65,65,0,0,0-7.46,1,47.57,47.57,0,0,0-9.75,1.47c-5.52,1.4-8.12,5.33-7,7.64a2.56,2.56,0,0,0,.58.72c8.95,3.36,19,4,28.82,4.08C104.73,142.71,105.45,142.33,105.45,141.78Z" fill="url(#linear-gradient-37)"/><path d="M152.59,145.88a2.88,2.88,0,0,0,.15-2.16h0l-3.12-2.23c-3.12-2.23-15.23-7.07-15.23-7.07s-6.89-2.33-11.77-1.93a20,20,0,0,1-13.45-3.11c-2.35-1.44-6.64-1.55-10.44-1.28,3.38,4.24,7.2,8.7,6.72,13.68,0,.9-1.94,1.36-3,1.58-4.71,1.58-9.42.45-14.12,1.36l-.18,0c1.44.65,3.4,1.59,5.34,2.59l4.84,2.75a13,13,0,0,1,1.67,1.25,56,56,0,0,0,7.25,4.94,53.11,53.11,0,0,1-5.32-9.07,16.7,16.7,0,0,1,2.8.12c-.47-.52-.12-.95-.42-1.56,15.17,0,28.78,3.11,43.14,7.06.43-.28.86-.56,1.3-.87A9.19,9.19,0,0,0,152.59,145.88Z" fill="url(#linear-gradient-38)"/><path d="M104.69,147.31c7.53,1,12.29,7,16.77,11.88,0-.29,0-.45,0-.45,1.37,1.49,11.56-.47,12.6-.67,6.82-1.82,10-3.16,13.3-5.26-14.36-3.95-27.67-7.06-42.84-7.06C104.88,146.37,104.22,146.8,104.69,147.31Z" fill="url(#linear-gradient-39)"/><path d="M152.32,150.92c-.72-1.71-1.58-2.82-3.33-1.35-6.19,5-11.3,10.25-14.68,16.54,3-1.75,6.48-2.74,9.61-4.43l-1.17.47S151.38,155.16,152.32,150.92Z" fill="url(#linear-gradient-40)"/><path d="M133.17,173.85a31.81,31.81,0,0,0-4.67.66,3.38,3.38,0,0,0-3-.9c-1.62.21-2.77,1.22-2.57,2.25s1.68,1.7,3.3,1.48a3,3,0,0,0,2.52-1.6c1.6.29,4.15.48,5.34.85,1.91.59,3.38,1.58,2.26,3.26a3.65,3.65,0,0,0-.49,1.11h-.06c-1.54.2-2.6,1.34-2.36,2.54a2.77,2.77,0,0,0,3.21,1.81c1.54-.2,2.6-1.34,2.36-2.54a1.84,1.84,0,0,0-.33-.75c.24-.24.49-.5.73-.78-.65-2.38-2.86-4.46-5.31-5.91C134,175.07,133.44,174.48,133.17,173.85Z" fill="url(#linear-gradient-41)"/><path d="M133.1,173c1.23-1,2.74-.68,4.19-.6-.53-.27-1.27-.63-2-.93a40.31,40.31,0,0,1-4.44-2.18,1.67,1.67,0,0,0-1.39,1.76,2.1,2.1,0,0,0,2.45,1.3l.11,0a4.56,4.56,0,0,0,1.09,1.32A1,1,0,0,1,133.1,173Z" fill="url(#linear-gradient-42)"/><path d="M134.43,165.92c3.37-6.2,8.44-11.41,14.56-16.34,1.74-1.47,2.61-.36,3.33,1.35a2.71,2.71,0,0,0,0-1.23c-.58-2.43-2.88-3.51-5.22-3.33-5.27,6.48-14,12.3-18,19.28a2.59,2.59,0,0,0,.6,2.74c.37.32.73.6,1.09.87l1.23.66A5.26,5.26,0,0,1,134.43,165.92Z" fill="url(#linear-gradient-43)"/><path d="M147.54,173.1c-2.51-.23-9.44-.3-9.44-.3s-.33-.18-.82-.43c-1.45-.08-3-.44-4.19.6a1,1,0,0,0,0,.65l.27.22h-.19c.27.63.85,1.22.91,1.5,2.46,1.45,4.66,3.53,5.31,5.91,1.39-1.59,2.74-3.62,4-3.78,1.75-.23,6.77,1,12.11-4s14.54-10.74,14-13.34a19.42,19.42,0,0,0-6.81,2.37C161.54,163.53,149.93,173.32,147.54,173.1Z" fill="url(#linear-gradient-44)"/><path d="M159.2,156.32c-5.25,1.46-12.48,4.26-15.27,5.37-3.13,1.69-6.61,2.67-9.61,4.43l.11-.2a5.26,5.26,0,0,0-2.38,4,24.24,24.24,0,0,0,3.21,1.51c2.29.49,4.63,0,7.58-1,5.26-1.87,19.94-8,19.94-8l-.1.08a19.42,19.42,0,0,1,6.81-2.37,1.23,1.23,0,0,0,0-.12C168.65,157.52,165.83,154.48,159.2,156.32Z" fill="url(#linear-gradient-45)"/><path d="M85.27,136.52c1.54,2.73,5.51,3.92,8.85,2.66s4.8-4.49,3.26-7.22-5.5-3.92-8.85-2.66S83.73,133.79,85.27,136.52Z" fill="url(#linear-gradient-46)"/><path d="M85.58,136.6c1.4,2.48,5,3.56,8,2.42s4.37-4.08,3-6.56-5-3.56-8-2.42S84.18,134.12,85.58,136.6Z" fill="url(#radial-gradient-3)"/><path d="M85.75,136.66c1.31,2.31,4.66,3.32,7.5,2.25s4.07-3.81,2.76-6.12-4.66-3.32-7.5-2.25S84.44,134.35,85.75,136.66Z" fill="url(#radial-gradient-4)"/><path d="M139.8,150.54a51.25,51.25,0,0,1-5.13-1.08c-1.08-.28-2.16-.48-3.19-.83-.52-.18-1-.21-1.58-.33s-1.16-.34-1.76-.46c-1.58-.31-3.11-.56-4.71-.78-1-.13-2-.22-3-.39s-1.85-.52-2.81-.76a15.12,15.12,0,0,0-3.59-.39c-.87,0-1.68.22-2.6.14-.63-.05-1.23-.33-1.86-.41a30.33,30.33,0,0,0-3.54,0,4.92,4.92,0,0,0-2.54.66c-.51.3-.74.57-.51,1.06a1.47,1.47,0,0,0,1,.75c.51.17.7.11.83-.16-.12-.47-.4-1.06,0-1.06a8.72,8.72,0,0,1,3.44-.22l.08,0a2.46,2.46,0,0,1,.77.29c.21.14.22.32.32.53.19.41.31.85.51,1.24s.73,1.27,1.2,1.1.09-1.32,0-1.62c-.1-.6-.32-1,.64-1,1.12,0,1.69,0,2,1s.33,1.9.61,2.83a9.32,9.32,0,0,0,.9,2.19c.24.39.87,1.31,1.59,1.24s0-.94-.09-1.18a17.28,17.28,0,0,1-.79-1.86,5.83,5.83,0,0,1-.19-2,2,2,0,0,1,1-1.93,2.55,2.55,0,0,1,3.33.82c1,1.36.7,3.36.4,4.86-.22,1.1-.49,2.74.19,3.77a1.28,1.28,0,0,0,1.31.55c.53-.09.48-.32.53-.76.14-1.21,0-2.47.11-3.69a10.56,10.56,0,0,1,.78-3.36c.35-.77.92-1.59,2-1.19,2,.71,1.8,2.78,1.67,4.26-.05.61-1.22,5.11-.16,5.19.56,0,1.1-.82,1.28-1.16.37-.68.76-1.36,1.08-2.06.59-1.26.92-2.58,1.55-3.82.26-.52.86-1,1.46-.44a2.28,2.28,0,0,1,.54,1.5c.06.94,0,1.9,0,2.85,0,.39-.06,1.31.4,1.6s.72-.2.94-.51a19,19,0,0,0,1.14-1.77,12.5,12.5,0,0,1,.53-1.25c.83-1.22,2.78-.67,4.14-.61.48,0,1.23,0,1.35-.53S140.26,150.62,139.8,150.54Z" fill="url(#linear-gradient-47)"/><path d="M147.13,146.37a6.49,6.49,0,0,0-4,1.74s-12.6,11.53-14,17.54C133.12,158.67,141.86,152.85,147.13,146.37Z" fill="url(#linear-gradient-48)"/><path d="M106.28,176.58c-1-.59.37-2,.56-3.42l-.64.36a32.85,32.85,0,0,0-2.27-2.72,1.25,1.25,0,0,0,.09-1.37,2.12,2.12,0,0,0-2.56-.71,1.47,1.47,0,0,0-1,2.05,2,2,0,0,0,2.11.83,32,32,0,0,0,2.76,3.69s-7.42-1.3-9.83-.31a4,4,0,0,0-.49.24,2.9,2.9,0,0,0-2,0c-1.17.44-1.72,1.51-1.22,2.39a2.51,2.51,0,0,0,3,.79,1.89,1.89,0,0,0,1.39-1.84c2.69-1.46,8.73.81,8.73.81-5.63.92-7.18,4.22-8.18,5.88l0,.07a2.16,2.16,0,0,0-.72.14,1.41,1.41,0,0,0-.9,2,2,2,0,0,0,2.46.75,1.41,1.41,0,0,0,.9-2,1.54,1.54,0,0,0-.38-.43A8.66,8.66,0,0,1,99.69,181c1.87-2.6,7.25-2.12,7.25-2.12s-.63,3.49-.06,5.48a3.66,3.66,0,0,0,.49,1,1.49,1.49,0,0,0-.48,1.91,2.45,2.45,0,0,0,3,.76c1.15-.43,1.69-1.47,1.21-2.33a2.38,2.38,0,0,0-2.66-.85l0,0c-1.62-2.87.73-7.24.73-7.24s.5-.38,1.34-1.06C108.91,176.83,107.36,177.14,106.28,176.58Z" fill="url(#linear-gradient-49)"/><path d="M118.2,158.09l-.56-.48c-4.8-3.72-11-5.92-14.56-10.41-.39,0-.78,0-1.18,0a53.11,53.11,0,0,0,5.32,9.07c2.73,1.65,5.11,3,5.11,3l-.18.74A9.35,9.35,0,0,1,118.2,158.09Z" fill="url(#linear-gradient-50)"/><path d="M112.14,160c-.61,2.48-2.54,10.4-2.76,11.12s-1.66,1.54-2.54,2c-.19,1.4-1.52,2.84-.56,3.42s2.63.24,4.15,0c1.39-1.12,3.71-3,6.26-5.36s3.86-6.83,4.41-9.72a15.24,15.24,0,0,0-2.9-3.43A9.35,9.35,0,0,0,112.14,160Z" fill="url(#linear-gradient-51)"/><path d="M103.07,147.19c3.57,4.49,9.76,6.69,14.56,10.41a15.59,15.59,0,0,1,3.46,3.91c.19-1,.3-1.84.36-2.32C116.68,154,111.56,147.41,103.07,147.19Z" fill="url(#linear-gradient-52)"/><path d="M89.29,137.17l1.37-5.8A7.48,7.48,0,0,0,89.29,137.17Z" fill="#231f20"/><ellipse cx="92.54" cy="132.77" rx="0.62" ry="0.51" fill="#fff"/><path d="M98.29,129.58h.58c.38,0,.93,0,1.63,0s1.55.1,2.52.21a27.8,27.8,0,0,1,3.24.56,14.41,14.41,0,0,1,3.64,1.31l.45.25.41.24.41.19c.15.06.29.13.45.18a11.56,11.56,0,0,0,2,.48c1.43.22,3,.28,4.53.36s3.18.15,4.79.31a32.8,32.8,0,0,1,4.76.82,21,21,0,0,1,2.24.7L132,136c1.37.51,2.68,1,3.92,1.49l3.5,1.35,1.55.61,1.39.57,2.25.94,1.44.62.51.22-.54-.17-1.51-.5-2.33-.79-1.43-.49-1.59-.53-3.58-1.21c-1.27-.43-2.61-.89-4-1.38l-2.1-.74c-.69-.23-1.41-.45-2.14-.63a31.85,31.85,0,0,0-4.58-.76c-1.56-.17-3.15-.25-4.72-.34a40.76,40.76,0,0,1-4.66-.45,11.49,11.49,0,0,1-2.2-.59c-.18-.06-.34-.15-.51-.22s-.34-.17-.5-.26l-.43-.27-.39-.24a14.45,14.45,0,0,0-3.35-1.36c-1.12-.31-2.17-.54-3.12-.71s-1.78-.29-2.47-.37l-1.61-.18Z" fill="#fff"/></svg>