<svg id="Layer_1" data-name="Layer 1" xmlns="http://www.w3.org/2000/svg" xmlns:xlink="http://www.w3.org/1999/xlink" viewBox="0 0 178.55 215.4"><defs><linearGradient id="linear-gradient" y1="116.49" x2="178.55" y2="116.49" gradientUnits="userSpaceOnUse"><stop offset="0.05" stop-color="#fff"/><stop offset="0.09" stop-color="#fafafa"/><stop offset="0.13" stop-color="#ececec"/><stop offset="0.18" stop-color="#d5d5d5"/><stop offset="0.22" stop-color="#b4b4b4"/><stop offset="0.27" stop-color="#8a8a8a"/><stop offset="0.32" stop-color="#575757"/><stop offset="0.46"/><stop offset="0.55"/><stop offset="0.61" stop-color="#232222"/><stop offset="0.69" stop-color="#4e4c4b"/><stop offset="0.93" stop-color="#fff"/></linearGradient><linearGradient id="linear-gradient-2" x1="126.6" y1="190.01" x2="126.6" y2="207.56" gradientUnits="userSpaceOnUse"><stop offset="0.28"/><stop offset="0.39" stop-color="#030303"/><stop offset="0.49" stop-color="#0e0e0e"/><stop offset="0.57" stop-color="#1f1f1f"/><stop offset="0.66" stop-color="#373737"/><stop offset="0.73" stop-color="#575757"/><stop offset="0.81" stop-color="#7d7d7d"/><stop offset="0.89" stop-color="#ababab"/><stop offset="0.96" stop-color="#dfdfdf"/><stop offset="1" stop-color="#fff"/></linearGradient><linearGradient id="Neutral_4" x1="93.22" y1="31.54" x2="148.04" y2="31.54" gradientUnits="userSpaceOnUse"><stop offset="0.03" stop-color="#231f20"/><stop offset="1" stop-color="#fff"/></linearGradient><linearGradient id="linear-gradient-3" x1="-631.61" y1="190.01" x2="-631.61" y2="207.56" gradientTransform="matrix(-1, 0, 0, 1, -579.67, 0)" xlink:href="#linear-gradient-2"/><linearGradient id="linear-gradient-4" x1="-659.86" y1="11.24" x2="-605.34" y2="11.24" gradientTransform="matrix(-1, 0, 0, 1, -579.67, 0)" gradientUnits="userSpaceOnUse"><stop offset="0.07"/><stop offset="0.88" stop-color="#fff"/><stop offset="0.99"/></linearGradient><linearGradient id="Neutral_4-2" x1="101.39" y1="211.09" x2="156.2" y2="211.09" xlink:href="#Neutral_4"/><linearGradient id="linear-gradient-5" x1="92.2" y1="1.88" x2="144.92" y2="1.88" gradientUnits="userSpaceOnUse"><stop offset="0.03"/><stop offset="0.89" stop-color="#fff"/><stop offset="1"/></linearGradient><mask id="mask" x="0" y="25.42" width="178.55" height="182.14" maskUnits="userSpaceOnUse"><path d="M156.43,44c-1-1.5-2.37-18.62-2.37-18.62H24.49S23.15,42.54,22.12,44C18.16,49.8,0,51.53,0,66V201.11c0,3.56,3.54,6.45,7.9,6.45H170.65c4.36,0,7.9-2.89,7.9-6.45V66C178.55,51.53,160.39,49.8,156.43,44Z" fill="url(#linear-gradient)"/></mask><mask id="mask-2" x="74.66" y="190.01" width="103.89" height="17.54" maskUnits="userSpaceOnUse"><g opacity="0.59"><path d="M178.36,191.16c0,3.56-3.89,12.89-8.69,12.89,0,0-45.89-4.21-95-4.21v7.71h95.2c4.8,0,8.69-2.89,8.69-6.45V190A7.47,7.47,0,0,0,178.36,191.16Z" fill="url(#linear-gradient-2)"/></g></mask><mask id="mask-3" x="93.22" y="30.36" width="54.81" height="2.36" maskUnits="userSpaceOnUse"><path d="M148,31.54c0-.65-.75-1.18-1.69-1.18H94.91c-.93,0-1.69.53-1.69,1.18s.76,1.18,1.69,1.18h51.44C147.28,32.73,148,32.2,148,31.54Z" fill="url(#Neutral_4)"/></mask><mask id="mask-4" x="0" y="190.01" width="103.89" height="17.54" maskUnits="userSpaceOnUse"><g opacity="0.59"><path d="M.19,191.16c0,3.56,3.89,12.89,8.69,12.89,0,0,45.89-4.21,95-4.21v7.71H8.69c-4.8,0-8.69-2.89-8.69-6.45V190A7.47,7.47,0,0,1,.19,191.16Z" fill="url(#linear-gradient-3)"/></g></mask><linearGradient id="linear-gradient-6" x1="89.27" y1="207.56" x2="89.27" y2="209.06" gradientUnits="userSpaceOnUse"><stop offset="0" stop-color="#5e5e5e"/><stop offset="1" stop-color="#a5a7aa"/></linearGradient><mask id="mask-5" x="25.68" y="10.59" width="54.51" height="1.29" maskUnits="userSpaceOnUse"><path d="M80.19,11.24a.73.73,0,0,1-.79.64H26.47a.73.73,0,0,1-.79-.64h0a.73.73,0,0,1,.79-.64H79.4a.73.73,0,0,1,.79.64Z" fill="url(#linear-gradient-4)"/></mask><mask id="mask-6" x="101.39" y="210.26" width="54.81" height="1.65" maskUnits="userSpaceOnUse"><path d="M156.2,211.09c0-.46-.76-.83-1.69-.83H103.07c-.93,0-1.69.37-1.69.83s.76.82,1.69.82h51.44C155.44,211.91,156.2,211.54,156.2,211.09Z" fill="url(#Neutral_4-2)"/></mask><mask id="mask-7" x="92.2" y="0.85" width="52.72" height="2.06" maskUnits="userSpaceOnUse"><path d="M92.2,1.88c0,.57.34,1,.76,1h51.19c.42,0,.76-.46.76-1h0c0-.57-.34-1-.76-1H93c-.42,0-.76.46-.76,1Z" fill="url(#linear-gradient-5)"/></mask><linearGradient id="linear-gradient-7" x1="130.42" y1="87.2" x2="130.42" y2="163.99" gradientUnits="userSpaceOnUse"><stop offset="0" stop-color="#f96f69"/><stop offset="1" stop-color="#f9382f"/></linearGradient><linearGradient id="linear-gradient-8" x1="130.42" y1="159.26" x2="130.42" y2="87.35" xlink:href="#linear-gradient-7"/><radialGradient id="radial-gradient" cx="133.44" cy="123.93" r="30.01" gradientTransform="translate(-4.99 -0.74) scale(1.01 1.01)" gradientUnits="userSpaceOnUse"><stop offset="0" stop-color="#eb6963"/><stop offset="1" stop-color="#f96f69"/></radialGradient><linearGradient id="linear-gradient-9" x1="48.12" y1="89.64" x2="48.12" y2="167.46" gradientUnits="userSpaceOnUse"><stop offset="0" stop-color="#13aff0"/><stop offset="1" stop-color="#4d8da7"/></linearGradient><linearGradient id="linear-gradient-10" x1="48.12" y1="160.57" x2="48.12" y2="87.56" xlink:href="#linear-gradient-9"/><radialGradient id="radial-gradient-2" cx="52.34" cy="123.93" r="30.01" gradientTransform="translate(-4.99 -0.74) scale(1.01 1.01)" gradientUnits="userSpaceOnUse"><stop offset="0" stop-color="#5eaccc"/><stop offset="1" stop-color="#13aff0"/></radialGradient></defs><title>3</title><g mask="url(#mask)"><path d="M156.43,44c-1-1.5-2.37-18.62-2.37-18.62H24.49S23.15,42.54,22.12,44C18.16,49.8,0,51.53,0,66V201.11c0,3.56,3.54,6.45,7.9,6.45H170.65c4.36,0,7.9-2.89,7.9-6.45V66C178.55,51.53,160.39,49.8,156.43,44Z" fill="#7f7f7f"/></g><path d="M150.11,44c-1-1.5-2.37-18.62-2.37-18.62H30.81S29.47,42.54,28.44,44c-4,5.77-22.12,7.49-22.12,22V201.11c0,3.56,3.54,6.45,7.9,6.45H164.33c4.36,0,7.9-2.89,7.9-6.45V66C172.23,51.53,154.07,49.8,150.11,44Z" fill="#bbbcbe" opacity="0.27"/><path d="M154,26.71h.12c-.08-.8-.12-1.28-.12-1.28H89.27v1.29Z" fill="#595b5c"/><path d="M89.27,37.67h66c-.11-.77-.21-1.56-.31-2.36H89.27Z" fill="#6b6d6f"/><g opacity="0.59"><path d="M178.36,191.16c0,3.56-3.89,12.89-8.69,12.89,0,0-31.27-4.21-80.39-4.21v7.71h80.58c4.8,0,8.69-2.89,8.69-6.45V190A7.47,7.47,0,0,0,178.36,191.16Z" fill="#aaadb0"/></g><g mask="url(#mask-2)"><path d="M178.36,191.16c0,3.56-3.89,12.89-8.69,12.89,0,0-31.27-4.21-80.39-4.21v7.71h80.58c4.8,0,8.69-2.89,8.69-6.45V190A7.47,7.47,0,0,0,178.36,191.16Z" fill="#7d7f81"/></g><path d="M141.88,204.05s-17.85-2.27-52.6-2.27v4.16H142C145.41,205.95,145.28,204.05,141.88,204.05Z" fill="#fff" opacity="0.16"/><path d="M89.27,28.43h65c-.07-.67-.12-1.25-.17-1.72H89.27Z" fill="#797c7e" opacity="0.71"/><path d="M156.85,28.35H89.27v6.92h67.58a3.28,3.28,0,0,0,3.06-3.46A3.28,3.28,0,0,0,156.85,28.35Z" fill="#7d7f81"/><path d="M154.88,28.43H89.27v5.88h65.61a2.94,2.94,0,1,0,0-5.88Z" fill="#aeafb0"/><path d="M150.23,29.4h-61v4.67h61a2.35,2.35,0,1,0,0-4.67Z" fill="#e1e2e3" opacity="0.66"/><g mask="url(#mask-3)"><path d="M148,31.54c0-.65-.75-1.18-1.69-1.18H94.91c-.93,0-1.69.53-1.69,1.18s.76,1.18,1.69,1.18h51.44C147.28,32.73,148,32.2,148,31.54Z" fill="#fff"/></g><path d="M24.5,26.71h-.12c.07-.8.12-1.28.12-1.28H89.27v1.29Z" fill="#595b5c"/><path d="M9.37,207.56c.67,4.59,2.34,7.84,4.29,7.84H164.89c2,0,3.62-3.25,4.29-7.84Z" fill="#a5a7aa"/><path d="M12.34,209.8a4.47,4.47,0,0,0,4.15,3H162.05a4.47,4.47,0,0,0,4.15-3Z" fill="#b4b6b8"/><path d="M89.27,37.67h-66c.11-.77.21-1.56.31-2.36H89.27Z" fill="#6b6d6f"/><g opacity="0.59"><path d="M.19,191.16c0,3.56,3.89,12.89,8.69,12.89,0,0,31.27-4.21,80.39-4.21v7.71H8.69c-4.8,0-8.69-2.89-8.69-6.45V190A7.47,7.47,0,0,1,.19,191.16Z" fill="#aaadb0"/></g><g mask="url(#mask-4)"><path d="M.19,191.16c0,3.56,3.89,12.89,8.69,12.89,0,0,31.27-4.21,80.39-4.21v7.71H8.69c-4.8,0-8.69-2.89-8.69-6.45V190A7.47,7.47,0,0,1,.19,191.16Z" fill="#7d7f81"/></g><path d="M36.67,204.05s17.85-2.27,52.6-2.27v4.16H36.54C33.14,205.95,33.27,204.05,36.67,204.05Z" fill="#fff" opacity="0.16"/><path d="M89.27,28.43h-65c.07-.67.12-1.25.17-1.72H89.27Z" fill="#797c7e" opacity="0.71"/><path d="M9.37,207.56a8.89,8.89,0,0,0,.53,1.51H168.65a8.85,8.85,0,0,0,.53-1.51Z" fill="url(#linear-gradient-6)"/><g mask="url(#mask-5)"><path d="M80.19,11.24a.73.73,0,0,1-.79.64H26.47a.73.73,0,0,1-.79-.64h0a.73.73,0,0,1,.79-.64H79.4a.73.73,0,0,1,.79.64Z" fill="#fff" opacity="0.32"/></g><path d="M21.69,28.35H89.27v6.92H21.69a3.28,3.28,0,0,1-3.06-3.46A3.28,3.28,0,0,1,21.69,28.35Z" fill="#7d7f81"/><path d="M23.67,28.43H89.27v5.88H23.67a2.94,2.94,0,1,1,0-5.88Z" fill="#aeafb0"/><path d="M28.32,29.4h61v4.67h-61a2.35,2.35,0,1,1,0-4.67Z" fill="#e1e2e3" opacity="0.66"/><g mask="url(#mask-6)"><path d="M156.2,211.09c0-.46-.76-.83-1.29-.83H103.47c-1.33,0-2.08.37-2.08.83s.76.82,1.69.82h51.44C155.44,211.91,156.2,211.54,156.2,211.09Z" fill="#d6d6d6"/></g><path d="M158.31,5.74h-69V31.49h69c4.62,0,8.37-4.61,8.37-10.3V16C166.68,10.35,162.93,5.74,158.31,5.74Z" fill="#a16733"/><path d="M154.15,7H89.27V30.2h64.88c4.39,0,8-4.15,8-9.27V16.3C162.1,11.18,158.54,7,154.15,7Z" fill="#a16733"/><g mask="url(#mask-7)"><path d="M92.2,1.88c0,.57.34,1,.76,1h51.19c.42,0,.76-.46.76-1h0c0-.57-.34-1-.76-1H93c-.42,0-.76.46-.76,1Z" fill="#fff" opacity="0.71"/></g><path d="M20.24,5.74h69V31.49h-69c-4.62,0-8.37-4.61-8.37-10.3V16C11.87,10.35,15.61,5.74,20.24,5.74Z" fill="#a16733"/><path d="M24.4,7H89.27V30.2H24.4c-4.39,0-7.95-4.15-7.95-9.27V16.3C16.45,11.18,20,7,24.4,7Z" fill="#a16733"/><path d="M145.7,0H32.85c-4,0-7.24,5.6-7.24,12.51v6.25c0,6.91,3.24,12.51,7.24,12.51H145.7c4,0,7.24-5.6,7.24-12.51V12.51C152.94,5.6,149.7,0,145.7,0Z" fill="#ba773b"/><ellipse cx="130.42" cy="126.29" rx="41.2" ry="41.55" fill="#753431" opacity="0"/><ellipse cx="130.42" cy="126.18" rx="41.1" ry="41.42" fill="#753431" opacity="0.02"/><ellipse cx="130.42" cy="126.07" rx="40.99" ry="41.29" fill="#753431" opacity="0.04"/><ellipse cx="130.42" cy="125.96" rx="40.89" ry="41.15" fill="#753431" opacity="0.06"/><ellipse cx="130.42" cy="125.86" rx="40.79" ry="41.02" fill="#753431" opacity="0.08"/><ellipse cx="130.42" cy="125.75" rx="40.68" ry="40.88" fill="#753431" opacity="0.1"/><ellipse cx="130.42" cy="125.64" rx="40.58" ry="40.75" fill="#753431" opacity="0.11"/><ellipse cx="130.42" cy="125.54" rx="40.48" ry="40.62" fill="#753431" opacity="0.13"/><ellipse cx="130.42" cy="125.43" rx="40.38" ry="40.48" fill="#753431" opacity="0.15"/><ellipse cx="130.42" cy="125.32" rx="40.27" ry="40.35" fill="#753431" opacity="0.17"/><ellipse cx="130.42" cy="125.21" rx="40.17" ry="40.21" fill="#753431" opacity="0.19"/><ellipse cx="130.42" cy="125.11" rx="40.07" ry="40.08" fill="#753431" opacity="0.21"/><ellipse cx="130.42" cy="125" rx="39.97" ry="39.94" fill="#753431" opacity="0.23"/><ellipse cx="130.42" cy="124.89" rx="39.86" ry="39.81" fill="#753431" opacity="0.25"/><ellipse cx="130.42" cy="124.79" rx="39.76" ry="39.68" fill="#753431" opacity="0.27"/><ellipse cx="130.42" cy="124.68" rx="39.66" ry="39.54" fill="#753431" opacity="0.29"/><ellipse cx="130.42" cy="124.57" rx="39.55" ry="39.41" fill="#753431" opacity="0.3"/><ellipse cx="130.42" cy="124.46" rx="39.45" ry="39.27" fill="#753431" opacity="0.32"/><ellipse cx="130.42" cy="124.36" rx="39.35" ry="39.14" fill="#753431" opacity="0.34"/><ellipse cx="130.42" cy="124.25" rx="39.25" ry="39.01" fill="#753431" opacity="0.36"/><ellipse cx="130.42" cy="124.14" rx="39.14" ry="38.87" fill="#753431" opacity="0.38"/><ellipse cx="130.42" cy="124.04" rx="39.04" ry="38.74" fill="#753431" opacity="0.4"/><ellipse cx="130.42" cy="124.04" rx="39.04" ry="38.74" fill="url(#linear-gradient-7)"/><path d="M130.42,160.88A36.84,36.84,0,1,1,167.56,124,37,37,0,0,1,130.42,160.88Z" fill="url(#linear-gradient-8)"/><path d="M130.42,154.25A30.22,30.22,0,1,1,160.87,124,30.37,30.37,0,0,1,130.42,154.25Z" fill="url(#radial-gradient)"/><ellipse cx="48.12" cy="126.29" rx="41.2" ry="41.55" fill="#1d1d1b" opacity="0"/><ellipse cx="48.12" cy="126.18" rx="41.1" ry="41.42" fill="#1d1d1b" opacity="0.02"/><ellipse cx="48.12" cy="126.07" rx="40.99" ry="41.29" fill="#1d1d1b" opacity="0.04"/><ellipse cx="48.12" cy="125.96" rx="40.89" ry="41.15" fill="#1d1d1b" opacity="0.06"/><ellipse cx="48.12" cy="125.86" rx="40.79" ry="41.02" fill="#1d1d1b" opacity="0.08"/><ellipse cx="48.12" cy="125.75" rx="40.68" ry="40.88" fill="#1d1d1b" opacity="0.1"/><ellipse cx="48.12" cy="125.64" rx="40.58" ry="40.75" fill="#1d1d1b" opacity="0.11"/><ellipse cx="48.12" cy="125.54" rx="40.48" ry="40.62" fill="#1d1d1b" opacity="0.13"/><ellipse cx="48.12" cy="125.43" rx="40.38" ry="40.48" fill="#1d1d1b" opacity="0.15"/><ellipse cx="48.12" cy="125.32" rx="40.27" ry="40.35" fill="#1d1d1b" opacity="0.17"/><ellipse cx="48.12" cy="125.21" rx="40.17" ry="40.21" fill="#1d1d1b" opacity="0.19"/><ellipse cx="48.12" cy="125.11" rx="40.07" ry="40.08" fill="#1d1d1b" opacity="0.21"/><ellipse cx="48.12" cy="125" rx="39.97" ry="39.94" fill="#1d1d1b" opacity="0.23"/><ellipse cx="48.12" cy="124.89" rx="39.86" ry="39.81" fill="#1d1d1b" opacity="0.25"/><ellipse cx="48.12" cy="124.79" rx="39.76" ry="39.68" fill="#1d1d1b" opacity="0.27"/><ellipse cx="48.12" cy="124.68" rx="39.66" ry="39.54" fill="#1d1d1b" opacity="0.29"/><ellipse cx="48.12" cy="124.57" rx="39.56" ry="39.41" fill="#1d1d1b" opacity="0.3"/><ellipse cx="48.12" cy="124.46" rx="39.45" ry="39.27" fill="#1d1d1b" opacity="0.32"/><ellipse cx="48.12" cy="124.36" rx="39.35" ry="39.14" fill="#1d1d1b" opacity="0.34"/><ellipse cx="48.12" cy="124.25" rx="39.25" ry="39.01" fill="#1d1d1b" opacity="0.36"/><ellipse cx="48.12" cy="124.14" rx="39.14" ry="38.87" fill="#1d1d1b" opacity="0.38"/><ellipse cx="48.12" cy="124.04" rx="39.04" ry="38.74" fill="#1d1d1b" opacity="0.4"/><ellipse cx="48.12" cy="124.04" rx="39.04" ry="38.74" fill="url(#linear-gradient-9)"/><path d="M48.12,160.88A36.84,36.84,0,1,1,85.26,124,37,37,0,0,1,48.12,160.88Z" fill="url(#linear-gradient-10)"/><path d="M48.12,154.25A30.22,30.22,0,1,1,78.58,124,30.37,30.37,0,0,1,48.12,154.25Z" fill="url(#radial-gradient-2)"/><text transform="translate(37.73 135.17) scale(1.01 1)" font-size="30.11" fill="#4000b0" font-family="ABeeZee-Regular, ABeeZee Regular">1 </text><text transform="translate(121.87 135.17) scale(1.01 1)" font-size="30.11" fill="#4000b0" font-family="ABeeZee-Regular, ABeeZee Regular">2 </text></svg>