<svg id="Layer_1" data-name="Layer 1" xmlns="http://www.w3.org/2000/svg" xmlns:xlink="http://www.w3.org/1999/xlink" viewBox="0 0 62.65 62.65"><defs><style>.cls-1{fill:#73adff;}.cls-2{fill:#808184;}.cls-3{fill:url(#linear-gradient);}.cls-4{fill:#d4cedb;}.cls-5{fill:#000009;}.cls-6{fill:#bcdef7;}.cls-7{fill:url(#linear-gradient-2);}.cls-8,.cls-9{opacity:0.5;}.cls-8{fill:url(#linear-gradient-3);}.cls-9{fill:url(#linear-gradient-4);}.cls-10{fill:url(#linear-gradient-5);}.cls-11{fill:url(#linear-gradient-6);}.cls-12{fill:url(#linear-gradient-7);}.cls-13{fill:url(#linear-gradient-8);}.cls-14{fill:url(#linear-gradient-9);}.cls-15{fill:url(#linear-gradient-10);}.cls-16{fill:url(#linear-gradient-11);}.cls-17{fill:url(#linear-gradient-12);}.cls-18{fill:url(#linear-gradient-13);}.cls-19{fill:url(#linear-gradient-14);}.cls-20{fill:url(#linear-gradient-15);}.cls-21{fill:url(#linear-gradient-16);}.cls-22{fill:url(#linear-gradient-17);}.cls-23{fill:url(#linear-gradient-18);}.cls-24{fill:url(#linear-gradient-19);}.cls-25{fill:url(#linear-gradient-20);}.cls-26{fill:url(#linear-gradient-21);}.cls-27{fill:url(#radial-gradient);}.cls-28{fill:url(#radial-gradient-2);}.cls-29{fill:url(#linear-gradient-22);}.cls-30{fill:url(#linear-gradient-23);}.cls-31{fill:url(#linear-gradient-24);}.cls-32{fill:url(#linear-gradient-25);}.cls-33{fill:url(#linear-gradient-26);}.cls-34{fill:url(#linear-gradient-27);}.cls-35{fill:#221f1f;}.cls-36{fill:#fff;}</style><linearGradient id="linear-gradient" x1="9.33" y1="53.32" x2="52.39" y2="10.26" gradientUnits="userSpaceOnUse"><stop offset="0" stop-color="#babcbf" stop-opacity="0"/><stop offset="1" stop-color="#b8bcc1"/></linearGradient><linearGradient id="linear-gradient-2" x1="31.33" y1="4.07" x2="31.33" y2="52.18" gradientUnits="userSpaceOnUse"><stop offset="0" stop-color="#89b8e4" stop-opacity="0"/><stop offset="1" stop-color="#a0c3e4"/></linearGradient><linearGradient id="linear-gradient-3" x1="28.65" y1="28.74" x2="12.07" y2="10.57" gradientUnits="userSpaceOnUse"><stop offset="0" stop-color="#e2f3ff" stop-opacity="0.1"/><stop offset="1" stop-color="#e2f3ff"/></linearGradient><linearGradient id="linear-gradient-4" x1="36.51" y1="36.51" x2="59.07" y2="59.07" xlink:href="#linear-gradient-3"/><linearGradient id="linear-gradient-5" x1="-580" y1="11.58" x2="-579.35" y2="14.74" gradientTransform="matrix(-1, 0, 0, 1, -537.32, 0)" gradientUnits="userSpaceOnUse"><stop offset="0" stop-color="#84c241"/><stop offset="0.02" stop-color="#89c441"/><stop offset="0.17" stop-color="#a3cd43"/><stop offset="0.3" stop-color="#b3d345"/><stop offset="0.4" stop-color="#b9d545"/><stop offset="1" stop-color="#456f34"/></linearGradient><linearGradient id="linear-gradient-6" x1="-580.6" y1="21.79" x2="-577.77" y2="22.49" gradientTransform="matrix(-1, 0, 0, 1, -537.32, 0)" gradientUnits="userSpaceOnUse"><stop offset="0" stop-color="#456f34"/><stop offset="0.6" stop-color="#b9d545"/><stop offset="0.7" stop-color="#b3d345"/><stop offset="0.83" stop-color="#a3cd43"/><stop offset="0.98" stop-color="#89c441"/><stop offset="1" stop-color="#84c241"/></linearGradient><linearGradient id="linear-gradient-7" x1="-580.24" y1="22.62" x2="-581.22" y2="27.03" gradientTransform="matrix(-1, 0, 0, 1, -537.32, 0)" gradientUnits="userSpaceOnUse"><stop offset="0" stop-color="#b9d545"/><stop offset="0.24" stop-color="#d5b136"/><stop offset="0.47" stop-color="#ec922a"/><stop offset="0.61" stop-color="#f58725"/><stop offset="1" stop-color="#965624"/></linearGradient><linearGradient id="linear-gradient-8" x1="-562.22" y1="16.37" x2="-560.06" y2="16.37" gradientTransform="matrix(-1, 0, 0, 1, -537.32, 0)" gradientUnits="userSpaceOnUse"><stop offset="0" stop-color="#264b9b"/><stop offset="1" stop-color="#10bef0"/></linearGradient><linearGradient id="linear-gradient-9" x1="-559.41" y1="17.38" x2="-557.09" y2="17.38" xlink:href="#linear-gradient-8"/><linearGradient id="linear-gradient-10" x1="-561.62" y1="16.83" x2="-556.09" y2="16.26" xlink:href="#linear-gradient-6"/><linearGradient id="linear-gradient-11" x1="-581.18" y1="19.36" x2="-580.58" y2="17.24" xlink:href="#linear-gradient-6"/><linearGradient id="linear-gradient-12" x1="-581.01" y1="18.56" x2="-579.31" y2="12.56" xlink:href="#linear-gradient-6"/><linearGradient id="linear-gradient-13" x1="-570.6" y1="24.48" x2="-567.76" y2="14.44" xlink:href="#linear-gradient-6"/><linearGradient id="linear-gradient-14" x1="-567.55" y1="25.06" x2="-567.01" y2="20.2" xlink:href="#linear-gradient-8"/><linearGradient id="linear-gradient-15" x1="-8574.64" y1="24.18" x2="-8567.89" y2="24.18" gradientTransform="translate(8594.57)" xlink:href="#linear-gradient-8"/><linearGradient id="linear-gradient-16" x1="-561.99" y1="31.11" x2="-565.65" y2="32.64" xlink:href="#linear-gradient-7"/><linearGradient id="linear-gradient-17" x1="-562.3" y1="31.04" x2="-565.33" y2="28.94" xlink:href="#linear-gradient-7"/><linearGradient id="linear-gradient-18" x1="-563.45" y1="23.32" x2="-560.25" y2="25.27" xlink:href="#linear-gradient-6"/><linearGradient id="linear-gradient-19" x1="-557.61" y1="27.79" x2="-555.7" y2="30.95" xlink:href="#linear-gradient-6"/><linearGradient id="linear-gradient-20" x1="-558.65" y1="24.89" x2="-557.51" y2="27.81" xlink:href="#linear-gradient-6"/><linearGradient id="linear-gradient-21" x1="-8554.29" y1="15.41" x2="-8549.29" y2="15.41" gradientTransform="translate(8594.57)" xlink:href="#linear-gradient-5"/><radialGradient id="radial-gradient" cx="-8623.58" cy="15.59" r="2.1" gradientTransform="translate(10628.78 -0.71) scale(1.23 1.01)" gradientUnits="userSpaceOnUse"><stop offset="0" stop-color="#3066af"/><stop offset="0.71" stop-color="#2b60ab"/><stop offset="1" stop-color="#285ca8"/></radialGradient><radialGradient id="radial-gradient-2" cx="-8623.53" cy="15.7" r="1.96" gradientTransform="translate(10628.78 -0.71) scale(1.23 1.01)" gradientUnits="userSpaceOnUse"><stop offset="0" stop-color="#ed4523"/><stop offset="0.13" stop-color="#e74322"/><stop offset="0.3" stop-color="#d73e20"/><stop offset="0.49" stop-color="#bb351d"/><stop offset="0.69" stop-color="#952918"/><stop offset="0.91" stop-color="#651912"/><stop offset="1" stop-color="#4e120f"/></radialGradient><linearGradient id="linear-gradient-22" x1="-568.3" y1="19.94" x2="-569.12" y2="23.69" gradientTransform="matrix(-1, 0, 0, 1, -537.32, 0)" gradientUnits="userSpaceOnUse"><stop offset="0" stop-color="#fbed34"/><stop offset="0.17" stop-color="#e9e739"/><stop offset="0.49" stop-color="#cfdd3f"/><stop offset="0.78" stop-color="#bfd744"/><stop offset="1" stop-color="#b9d545"/></linearGradient><linearGradient id="linear-gradient-23" x1="-8572.69" y1="23.62" x2="-8565.95" y2="23.62" gradientTransform="translate(8594.57)" xlink:href="#linear-gradient-8"/><linearGradient id="linear-gradient-24" x1="-572.79" y1="30.75" x2="-577.45" y2="33.91" xlink:href="#linear-gradient-7"/><linearGradient id="linear-gradient-25" x1="-575.63" y1="23.11" x2="-569.91" y2="21.49" xlink:href="#linear-gradient-6"/><linearGradient id="linear-gradient-26" x1="-573.29" y1="27.45" x2="-570.01" y2="28.85" xlink:href="#linear-gradient-6"/><linearGradient id="linear-gradient-27" x1="-573.15" y1="23.81" x2="-570.48" y2="21.19" xlink:href="#linear-gradient-8"/></defs><title>grids-icon</title><path class="cls-1" d="M31.33,58.35a27,27,0,1,1,27-27A27.05,27.05,0,0,1,31.33,58.35Z"/><path class="cls-2" d="M31.33,62.65A31.33,31.33,0,1,1,62.65,31.33,31.36,31.36,0,0,1,31.33,62.65Z"/><path class="cls-3" d="M31.33,62.65A31.33,31.33,0,1,1,62.65,31.33,31.36,31.36,0,0,1,31.33,62.65Z"/><path class="cls-4" d="M31.33,59.78A28.46,28.46,0,1,1,59.78,31.33,28.49,28.49,0,0,1,31.33,59.78Z"/><path class="cls-5" d="M31.33,59.3a28,28,0,1,1,28-28A28,28,0,0,1,31.33,59.3Z"/><path class="cls-6" d="M31.33,58.59A27.26,27.26,0,1,1,58.59,31.33,27.29,27.29,0,0,1,31.33,58.59Z"/><circle class="cls-7" cx="31.33" cy="31.33" r="26.78"/><path class="cls-8" d="M30.14,28.55V7.2A24.16,24.16,0,0,0,7.33,28.55Z"/><path class="cls-9" d="M47.17,13.09A24.15,24.15,0,0,1,13.09,47.17,24.15,24.15,0,1,0,47.17,13.09Z"/><path d="M20.58,48.27a4,4,0,0,1-2.92-1.2,4.23,4.23,0,0,1,3-7.27,4.3,4.3,0,0,1,2.29.61,3.62,3.62,0,0,1,1.48,1.76H23.1a2.56,2.56,0,0,0-2.46-1.4,3,3,0,0,0-2.22.89,3.66,3.66,0,0,0,0,4.75,2.91,2.91,0,0,0,2.17.9,2.93,2.93,0,0,0,2.09-.74,3.1,3.1,0,0,0,.92-2h-3.4v-.86h4.54v.86a4.07,4.07,0,0,1-4.18,3.72Z"/><path d="M27.19,41.61v1.12a2,2,0,0,1,2-1.22v1.14h-.29a1.7,1.7,0,0,0-1.27.44,2.12,2.12,0,0,0-.43,1.52v3.6H26.11V41.61Z"/><path d="M31.55,40.34a.71.71,0,0,1-.52.22.69.69,0,0,1-.52-.22.73.73,0,0,1-.21-.53.72.72,0,0,1,.21-.53.73.73,0,0,1,1,0,.76.76,0,0,1,0,1.06ZM30.48,48.2V41.61h1.08V48.2Z"/><path d="M33.81,47.34a3.5,3.5,0,0,1-.89-2.47,3.39,3.39,0,0,1,.88-2.44A3,3,0,0,1,36,41.5a2.65,2.65,0,0,1,1.46.4,2.58,2.58,0,0,1,.95,1V39.32h1.09V48.2H38.43V46.85A2.61,2.61,0,0,1,36,48.31,2.89,2.89,0,0,1,33.81,47.34Zm4-.64a2.79,2.79,0,0,0,0-3.58,2.09,2.09,0,0,0-1.56-.67,2.12,2.12,0,0,0-1.56.65A2.38,2.38,0,0,0,34,44.86a2.54,2.54,0,0,0,.65,1.81,2.06,2.06,0,0,0,1.56.7A2.08,2.08,0,0,0,37.78,46.7Z"/><path d="M41.07,43.47a1.75,1.75,0,0,1,.68-1.4,2.67,2.67,0,0,1,1.77-.57,2.45,2.45,0,0,1,1.71.56,2.14,2.14,0,0,1,.68,1.53H44.78a1.27,1.27,0,0,0-.37-.89,1.32,1.32,0,0,0-1-.34,1.45,1.45,0,0,0-1,.29.94.94,0,0,0-.35.76.8.8,0,0,0,.4.71,2.83,2.83,0,0,0,1,.37q.56.11,1.13.26a2,2,0,0,1,1,.56A1.63,1.63,0,0,1,46,46.5a1.57,1.57,0,0,1-.68,1.28,2.85,2.85,0,0,1-1.78.52,2.64,2.64,0,0,1-1.75-.55,2.05,2.05,0,0,1-.72-1.52h1.12a1.21,1.21,0,0,0,.39.88,1.43,1.43,0,0,0,1,.33,1.61,1.61,0,0,0,1-.28.85.85,0,0,0,.36-.7.86.86,0,0,0-.29-.68,1.57,1.57,0,0,0-.71-.35L43,45.21q-.51-.13-.93-.28a1.52,1.52,0,0,1-.71-.52A1.5,1.5,0,0,1,41.07,43.47Z"/><path class="cls-10" d="M44.58,14.22a2.75,2.75,0,0,1-3.31,1A1.92,1.92,0,0,1,40,12.5a2.75,2.75,0,0,1,3.31-1A1.92,1.92,0,0,1,44.58,14.22Z"/><path class="cls-11" d="M42.16,22.94a1.71,1.71,0,0,0-1.29.31,1.47,1.47,0,0,0-.2-.5,3.83,3.83,0,0,1-.2-.55c-.09-.25-.19-.5-.27-.76l0-.05,1.81-1,0,.11c.21.59.42,1.19.64,1.79A3,3,0,0,0,43,23a1.71,1.71,0,0,0,.48.38l.17.1C43.08,23.6,42.62,23.17,42.16,22.94Z"/><path class="cls-12" d="M38.21,24.25A.89.89,0,0,1,39.29,24a.91.91,0,0,1,.24.13c.5-.12,1.09-.18,1.29-.58a.46.46,0,0,0,0-.27,1.71,1.71,0,0,1,1.29-.31c.46.23.93.66,1.54.51.71.41,1.64.58,2.36,1a5.27,5.27,0,0,1,1.27,1c.23.25.61.54.7.86a1.17,1.17,0,0,1,.5.07c.46.17.67.59.49.92a1,1,0,0,1-1.17.3c-.45-.17-.66-.57-.5-.9a5.85,5.85,0,0,1-.7-.8,5.22,5.22,0,0,0-1.36-1.18c-.18-.1-1.22-.59-1.23-.05,0,.15.25.34.34.47a6,6,0,0,1,.43.7,3.7,3.7,0,0,1,.46,1.45,1.1,1.1,0,0,1,.24.06.71.71,0,0,1,.46,1,1,1,0,0,1-1.24.37.71.71,0,0,1-.46-1,.75.75,0,0,1,.12-.16A4.52,4.52,0,0,1,43.95,26a3.32,3.32,0,0,0-.52-1c-.19-.28-.29-.51-.66-.63a2.27,2.27,0,0,0-.31,1.29,3.68,3.68,0,0,1-.1.74c.36.22.52.56.36.84a1,1,0,0,1-1.25.25c-.5-.19-.76-.61-.58-.95a.83.83,0,0,1,.74-.34c0-.09,0-.18,0-.28,0-.38.24-1.31-.16-1.59-.21-.14-.48,0-.69,0a8.61,8.61,0,0,1-.85.27l-.15,0a.51.51,0,0,1-.06.21.89.89,0,0,1-1.07.29A.62.62,0,0,1,38.21,24.25Z"/><path class="cls-13" d="M24.9,16.21s-1.07.42-2.16.94a13.75,13.75,0,0,0,.94-1.55A4.76,4.76,0,0,1,24.9,16.21Z"/><path class="cls-14" d="M19.77,19a5.72,5.72,0,0,1,2.32-3.23,8.73,8.73,0,0,0-.56,2c-.22.13-.42.25-.59.37Z"/><path class="cls-15" d="M22.59,15.54a1.8,1.8,0,0,1,1.1.05,13.75,13.75,0,0,1-.94,1.55c-.42.2-.84.41-1.21.63a8.73,8.73,0,0,1,.56-2A3.12,3.12,0,0,1,22.59,15.54Z"/><path class="cls-16" d="M44.82,19a6.16,6.16,0,0,0-.83.34h-.07c-1.76-.34-3.53.09-5.29-.51a5.19,5.19,0,0,1-.57-.14,31,31,0,0,0,10.8-1.54A14.25,14.25,0,0,1,44.82,19Z"/><path class="cls-17" d="M37.49,18.26C37.3,16.38,38.74,14.7,40,13.1a24.19,24.19,0,0,1,2.8.37,17.72,17.72,0,0,1,3.65.56c2.07.53,3,2,2.62,2.88a1,1,0,0,1-.22.27,31,31,0,0,1-10.8,1.54C37.76,18.61,37.49,18.46,37.49,18.26Z"/><path class="cls-18" d="M19.83,19.8a1.09,1.09,0,0,1-.06-.81h0l1.17-.84a47.89,47.89,0,0,1,5.7-2.66,13.69,13.69,0,0,1,4.41-.73,7.44,7.44,0,0,0,5-1.17A7.44,7.44,0,0,1,40,13.1c-1.27,1.6-2.7,3.28-2.52,5.16,0,.34.73.51,1.14.6,1.76.6,3.53.17,5.29.51H44c-.54.25-1.27.6-2,1l-1.81,1a4.89,4.89,0,0,0-.63.47,21,21,0,0,1-2.72,1.86,20,20,0,0,0,2-3.42,6.22,6.22,0,0,0-1,0c.18-.19,0-.36.16-.59a59.18,59.18,0,0,0-16.16,2.66l-.49-.33A3.47,3.47,0,0,1,19.83,19.8Z"/><path class="cls-19" d="M37.77,20.34c-2.82.36-4.61,2.63-6.28,4.48l0-.17c-.51.56-4.33-.18-4.72-.25a15.89,15.89,0,0,1-5-2c5.38-1.49,10.37-2.66,16-2.66C37.7,20,37.95,20.15,37.77,20.34Z"/><path class="cls-20" d="M19.93,21.7c.27-.64.59-1.06,1.25-.51a20.82,20.82,0,0,1,5.5,6.24c-1.12-.66-2.43-1-3.6-1.67l.44.18S20.28,23.3,19.93,21.7Z"/><path class="cls-21" d="M27.1,30.34a11.85,11.85,0,0,1,1.75.25A1.26,1.26,0,0,1,30,30.25c.61.08,1,.46,1,.85s-.63.64-1.24.56a1.11,1.11,0,0,1-.94-.6c-.6.11-1.55.18-2,.32-.71.22-1.27.6-.85,1.23a1.38,1.38,0,0,1,.18.42h0c.58.08,1,.5.88,1a1,1,0,0,1-1.2.68c-.58-.08-1-.5-.88-1a.7.7,0,0,1,.13-.28l-.27-.29a4.17,4.17,0,0,1,2-2.23C26.78,30.8,27,30.58,27.1,30.34Z"/><path class="cls-22" d="M27.13,30c-.46-.39-1-.26-1.57-.23.2-.1.47-.24.76-.35A15.06,15.06,0,0,0,28,28.61a.63.63,0,0,1,.52.66.79.79,0,0,1-.92.49h0a1.72,1.72,0,0,1-.41.5A.39.39,0,0,0,27.13,30Z"/><path class="cls-23" d="M26.63,27.35a20.93,20.93,0,0,0-5.46-6.16c-.65-.55-1-.14-1.25.51a1,1,0,0,1,0-.46,1.74,1.74,0,0,1,2-1.25c2,2.44,5.25,4.64,6.74,7.27a1,1,0,0,1-.22,1l-.41.33-.46.25A2,2,0,0,0,26.63,27.35Z"/><path class="cls-24" d="M21.72,30.06c.94-.09,3.54-.11,3.54-.11l.31-.16c.54,0,1.11-.17,1.57.23a.39.39,0,0,1,0,.25l-.1.08h.07c-.1.24-.32.46-.34.56a4.17,4.17,0,0,0-2,2.23c-.52-.6-1-1.36-1.49-1.43a5.77,5.77,0,0,1-4.54-1.49c-2-1.84-5.45-4-5.25-5a7.25,7.25,0,0,1,2.55.89C16.48,26.45,20.83,30.14,21.72,30.06Z"/><path class="cls-25" d="M17.35,23.74c2,.55,4.67,1.61,5.72,2,1.17.64,2.48,1,3.6,1.67l0-.08a2,2,0,0,1,.89,1.51,9.06,9.06,0,0,1-1.2.57,5.11,5.11,0,0,1-2.84-.38c-2-.71-7.47-3-7.47-3l0,0a7.25,7.25,0,0,0-2.55-.89.47.47,0,0,1,0,0C13.81,24.19,14.87,23,17.35,23.74Z"/><path class="cls-26" d="M45,16.27a2.75,2.75,0,0,1-3.31,1,1.92,1.92,0,0,1-1.22-2.72,2.75,2.75,0,0,1,3.31-1A1.92,1.92,0,0,1,45,16.27Z"/><path class="cls-27" d="M44.93,16.3a2.5,2.5,0,0,1-3,.91,1.74,1.74,0,0,1-1.11-2.47,2.5,2.5,0,0,1,3-.91A1.74,1.74,0,0,1,44.93,16.3Z"/><path class="cls-28" d="M44.87,16.33a2.33,2.33,0,0,1-2.81.85,1.62,1.62,0,0,1-1-2.31A2.33,2.33,0,0,1,43.83,14,1.62,1.62,0,0,1,44.87,16.33Z"/><path class="cls-29" d="M24.62,21.56a19.1,19.1,0,0,0,1.92-.41c.4-.1.81-.18,1.2-.31.2-.07.39-.08.59-.13s.43-.13.66-.17c.59-.12,1.16-.21,1.76-.29.37,0,.75-.08,1.12-.15s.69-.2,1.05-.29a5.63,5.63,0,0,1,1.34-.15c.33,0,.63.08,1,.05s.46-.13.7-.15a11.29,11.29,0,0,1,1.33,0,1.83,1.83,0,0,1,1,.25c.19.11.28.22.19.4a.55.55,0,0,1-.38.28c-.19.06-.26,0-.31-.06s.15-.4,0-.4a3.25,3.25,0,0,0-1.29-.08h0a.92.92,0,0,0-.29.11c-.08.05-.08.12-.12.2s-.12.32-.19.47-.27.48-.45.41,0-.5,0-.61.12-.39-.24-.39-.63,0-.76.37-.12.71-.23,1.07a3.53,3.53,0,0,1-.34.83c-.09.15-.33.49-.6.47s0-.35,0-.44a6.54,6.54,0,0,0,.29-.7,2.21,2.21,0,0,0,.07-.74.74.74,0,0,0-.36-.73,1,1,0,0,0-1.25.31,2.36,2.36,0,0,0-.15,1.83,2,2,0,0,1-.07,1.42.48.48,0,0,1-.49.21c-.2,0-.18-.12-.2-.29-.05-.46,0-.93,0-1.39a4,4,0,0,0-.29-1.27c-.13-.29-.34-.6-.76-.45-.74.27-.67,1-.63,1.61,0,.23.46,1.92.06,2-.21,0-.41-.31-.48-.44s-.28-.51-.41-.78c-.22-.47-.34-1-.58-1.44-.1-.2-.32-.37-.55-.17a.86.86,0,0,0-.2.56c0,.36,0,.72,0,1.07,0,.15,0,.5-.15.6s-.27-.07-.35-.19a7.18,7.18,0,0,1-.43-.67,4.73,4.73,0,0,0-.2-.47c-.31-.46-1-.25-1.55-.23-.18,0-.46,0-.51-.2S24.45,21.59,24.62,21.56Z"/><path class="cls-30" d="M21.87,20a2.43,2.43,0,0,1,1.49.66s4.72,4.34,5.25,6.61C27.12,24.62,23.85,22.43,21.87,20Z"/><path class="cls-31" d="M37.18,31.37c.36-.22-.14-.76-.21-1.29l.24.14a12.36,12.36,0,0,1,.85-1,.47.47,0,0,1,0-.52.79.79,0,0,1,1-.27.55.55,0,0,1,.37.77.76.76,0,0,1-.79.31,12.06,12.06,0,0,1-1,1.39s2.78-.49,3.68-.12l.19.09a1.08,1.08,0,0,1,.74,0c.44.17.64.57.46.9a.94.94,0,0,1-1.13.3.71.71,0,0,1-.52-.69c-1-.55-3.27.31-3.27.31a3.87,3.87,0,0,1,3.07,2.22v0A.81.81,0,0,1,41,34a.53.53,0,0,1,.34.76.76.76,0,0,1-.92.28.53.53,0,0,1-.34-.76.58.58,0,0,1,.14-.16,3.27,3.27,0,0,0-.6-1c-.7-1-2.71-.8-2.71-.8a6,6,0,0,1,0,2.06,1.38,1.38,0,0,1-.18.39.56.56,0,0,1,.18.72.92.92,0,0,1-1.11.29c-.43-.16-.63-.56-.45-.88a.89.89,0,0,1,1-.32h0c.61-1.08-.27-2.73-.27-2.73l-.5-.4A2.78,2.78,0,0,0,37.18,31.37Z"/><path class="cls-32" d="M32.71,24.4l.21-.18c1.8-1.4,4.12-2.23,5.46-3.92h.44a20,20,0,0,1-2,3.42c-1,.62-1.91,1.12-1.91,1.12l.07.28A3.49,3.49,0,0,0,32.71,24.4Z"/><path class="cls-33" d="M35,25.12c.23.94,1,3.92,1,4.19s.62.58,1,.77c.07.53.57,1.07.21,1.29a2.78,2.78,0,0,1-1.55,0c-.52-.42-1.39-1.14-2.35-2a7,7,0,0,1-1.65-3.66,5.73,5.73,0,0,1,1.09-1.29A3.49,3.49,0,0,1,35,25.12Z"/><path class="cls-34" d="M38.38,20.3C37,22,34.72,22.82,32.92,24.22a5.87,5.87,0,0,0-1.3,1.47c-.07-.38-.11-.69-.13-.87C33.28,22.85,35.2,20.38,38.38,20.3Z"/><path class="cls-35" d="M43.54,16.52,43,14.33A2.83,2.83,0,0,1,43.54,16.52Z"/><ellipse class="cls-36" cx="42.32" cy="14.86" rx="0.23" ry="0.19"/><path class="cls-36" d="M40.17,13.66H40l-.61,0c-.26,0-.58,0-.95.08a10.36,10.36,0,0,0-1.21.21,5.38,5.38,0,0,0-1.36.49l-.17.1-.16.09-.15.07-.17.07a4.31,4.31,0,0,1-.75.18,17,17,0,0,1-1.7.13c-.59,0-1.19.06-1.8.12a12.22,12.22,0,0,0-1.78.31,7.84,7.84,0,0,0-.84.26l-.78.29-1.47.56-1.31.51-.58.23-.52.22-.84.35-.54.23-.19.08.2-.07.57-.19.87-.3.54-.18.6-.2,1.34-.46,1.49-.52.79-.28c.26-.09.53-.17.8-.24A11.86,11.86,0,0,1,31,15.56c.59-.06,1.18-.09,1.77-.13a15.18,15.18,0,0,0,1.74-.17,4.28,4.28,0,0,0,.82-.22l.19-.08.19-.1.16-.1.15-.09a5.4,5.4,0,0,1,1.26-.51c.42-.12.81-.21,1.17-.27l.93-.14.6-.07Z"/></svg>