<svg id="Layer_1" data-name="Layer 1" xmlns="http://www.w3.org/2000/svg" xmlns:xlink="http://www.w3.org/1999/xlink" viewBox="0 0 54.07 54.29"><defs><style>.cls-1{fill:#1d1d1b;opacity:0.4;}.cls-2{fill:url(#linear-gradient);}.cls-3{fill:url(#linear-gradient-2);}.cls-4{fill:url(#radial-gradient);}.cls-5{fill:#d96e4c;}</style><linearGradient id="linear-gradient" x1="27.04" y1="0.11" x2="27.04" y2="57.33" gradientUnits="userSpaceOnUse"><stop offset="0" stop-color="#88e856"/><stop offset="1" stop-color="#2b7308"/></linearGradient><linearGradient id="linear-gradient-2" x1="27.04" y1="52.74" x2="27.04" y2="1.58" xlink:href="#linear-gradient"/><radialGradient id="radial-gradient" cx="22.88" cy="25.41" r="20.83" gradientTransform="translate(3.87 1.32) scale(1.01 1.02)" gradientUnits="userSpaceOnUse"><stop offset="0" stop-color="#49c40e"/><stop offset="1" stop-color="#88e856"/></radialGradient></defs><title>cross with circle</title><ellipse class="cls-1" cx="27.04" cy="27.14" rx="27.04" ry="27.14"/><ellipse class="cls-2" cx="27.04" cy="27.14" rx="27.04" ry="27.14"/><path class="cls-3" d="M27,53A25.82,25.82,0,1,1,52.75,27.14,25.79,25.79,0,0,1,27,53Z"/><path class="cls-4" d="M27,48.31A21.17,21.17,0,1,1,48.12,27.14,21.15,21.15,0,0,1,27,48.31Z"/><path class="cls-5" d="M40.73,16.39l-10.8,10.8L40.32,37.58l-2.76,2.76L27.17,29.95,16.28,40.84,13.34,37.9,24.23,27,13.85,16.62l2.76-2.76L27,24.25l10.8-10.8Z"/></svg>