<svg id="Layer_1" data-name="Layer 1" xmlns="http://www.w3.org/2000/svg" viewBox="0 0 184 109.13"><defs><style>.cls-1{fill:#d96e4c;}.cls-2{fill:#525731;}.cls-3{fill:#81875d;}</style></defs><title>rectangles</title><path class="cls-1" d="M9.08,105.07H14.8v1.8H.94v-4.46a5,5,0,0,1,1.14-3.54,3.68,3.68,0,0,1,2.79-1.22,4.23,4.23,0,0,1,2.75.89A4.1,4.1,0,0,1,9,101.23l5.8-3.78v2.26l-5.72,3.6Zm-6.68,0H7.64v-2.65A3.09,3.09,0,0,0,7,100.21,2.54,2.54,0,0,0,5,99.49q-2.62,0-2.62,2.93Z"/><path class="cls-1" d="M15,90.11a5,5,0,0,1-1.56,3.8A5.77,5.77,0,0,1,9.3,95.37a5.69,5.69,0,0,1-4.11-1.48,5.6,5.6,0,0,1-.08-7.65A5.15,5.15,0,0,1,8.86,84.8a6.91,6.91,0,0,1,1.08.08v8.65a3.79,3.79,0,0,0,2.59-1,3.24,3.24,0,0,0,.95-2.4,3.33,3.33,0,0,0-.5-1.87,3,3,0,0,0-1.32-1.12V85.18A5,5,0,0,1,14,86.95,5.12,5.12,0,0,1,15,90.11ZM6.09,87.67a3.52,3.52,0,0,0,0,4.79,3.74,3.74,0,0,0,2.55,1V86.68A3.45,3.45,0,0,0,6.09,87.67Z"/><path class="cls-1" d="M13.42,81.81a5.76,5.76,0,0,1-4.11,1.47A5.75,5.75,0,0,1,5.2,81.81,5,5,0,0,1,3.64,78a5.22,5.22,0,0,1,.92-3.2,4.83,4.83,0,0,1,2.62-1.73V75a2.87,2.87,0,0,0-1.5,1.09A3.23,3.23,0,0,0,5.14,78a3.12,3.12,0,0,0,1.09,2.48,4.58,4.58,0,0,0,3.08.94,4.57,4.57,0,0,0,3.08-.94A3.12,3.12,0,0,0,13.48,78a2.83,2.83,0,0,0-2-3V73.08A5,5,0,0,1,14,74.83,5.08,5.08,0,0,1,15,78,5,5,0,0,1,13.42,81.81Z"/><path class="cls-1" d="M13.32,67.12V65.63H14.8v1.82A2.5,2.5,0,0,1,12,70.29H5.3v1.41H3.82V70.29H1.1V68.47H3.82V65.65H5.3v2.81H12a1.46,1.46,0,0,0,1-.3A1.46,1.46,0,0,0,13.32,67.12Z"/><path class="cls-1" d="M13.37,62.88a5.84,5.84,0,0,1-4.12,1.48,5.65,5.65,0,0,1-4.06-1.47,4.91,4.91,0,0,1-1.55-3.71,4.42,4.42,0,0,1,.66-2.42A4.31,4.31,0,0,1,6,55.18H3.82V53.36h11v1.82H12.56a4.34,4.34,0,0,1,2.42,4A4.83,4.83,0,0,1,13.37,62.88ZM12.3,56.26a4.11,4.11,0,0,0-3-1.08,4.11,4.11,0,0,0-3,1.08,3.47,3.47,0,0,0-1.12,2.59A3.54,3.54,0,0,0,6.3,61.45a4,4,0,0,0,2.94,1.08,4.24,4.24,0,0,0,3-1.09,3.51,3.51,0,0,0,0-5.18Z"/><path class="cls-1" d="M3.82,48.59H5.6a3.77,3.77,0,0,1-2-3.54,4.08,4.08,0,0,1,1.21-3A4.67,4.67,0,0,1,8.3,40.83h6.5v1.78H8.6a3.59,3.59,0,0,0-2.52.79,2.83,2.83,0,0,0-.86,2.19,2.86,2.86,0,0,0,.86,2.2,3.56,3.56,0,0,0,2.52.8h6.2v1.8h-11Z"/><path class="cls-1" d="M13.37,37.18a5.84,5.84,0,0,1-4.12,1.48,5.65,5.65,0,0,1-4.06-1.47,4.91,4.91,0,0,1-1.55-3.71,4.42,4.42,0,0,1,.66-2.42A4.31,4.31,0,0,1,6,29.48H3.82V27.66H15.08a4.92,4.92,0,0,1,5.12,5.11,6.16,6.16,0,0,1-1,3.67,3.78,3.78,0,0,1-2.72,1.65V36.33A2.71,2.71,0,0,0,18,35.12a4.23,4.23,0,0,0,.62-2.36,3.2,3.2,0,0,0-.93-2.35,3.5,3.5,0,0,0-2.61-.94H12.56a4.34,4.34,0,0,1,2.42,4A4.83,4.83,0,0,1,13.37,37.18ZM12.3,30.56a4.11,4.11,0,0,0-3-1.08,4.11,4.11,0,0,0-3,1.08,3.47,3.47,0,0,0-1.12,2.59A3.54,3.54,0,0,0,6.3,35.75a4,4,0,0,0,2.94,1.08,4.24,4.24,0,0,0,3-1.09,3.51,3.51,0,0,0,0-5.18Z"/><path class="cls-1" d="M14.8,24.69H0v-1.8H14.8Z"/><path class="cls-1" d="M15,15.36a5,5,0,0,1-1.56,3.8A5.77,5.77,0,0,1,9.3,20.63a5.7,5.7,0,0,1-4.11-1.48,5.09,5.09,0,0,1-1.55-3.85,5.07,5.07,0,0,1,1.47-3.8,5.15,5.15,0,0,1,3.75-1.44,6.91,6.91,0,0,1,1.08.08v8.65a3.8,3.8,0,0,0,2.59-1,3.24,3.24,0,0,0,.95-2.41,3.34,3.34,0,0,0-.5-1.87,3,3,0,0,0-1.32-1.12V10.43A5,5,0,0,1,14,12.21,5.12,5.12,0,0,1,15,15.36ZM6.09,12.93a3.3,3.3,0,0,0-1,2.41,3.28,3.28,0,0,0,.93,2.39,3.74,3.74,0,0,0,2.55,1V11.94A3.44,3.44,0,0,0,6.09,12.93Z"/><path class="cls-1" d="M6.92,8.22A2.92,2.92,0,0,1,4.59,7.08a4.45,4.45,0,0,1-1-3,4.09,4.09,0,0,1,.93-2.84A3.58,3.58,0,0,1,7.12.16V2a2.11,2.11,0,0,0-1.48.61,2.19,2.19,0,0,0-.56,1.59,2.42,2.42,0,0,0,.49,1.6,1.57,1.57,0,0,0,1.26.58A1.33,1.33,0,0,0,8,5.75a4.72,4.72,0,0,0,.61-1.6q.19-.94.44-1.88A3.4,3.4,0,0,1,10,.66,2.72,2.72,0,0,1,12,0a2.61,2.61,0,0,1,2.14,1.14,4.74,4.74,0,0,1,.87,3A4.4,4.4,0,0,1,14.06,7a3.43,3.43,0,0,1-2.54,1.2V6.36A2,2,0,0,0,13,5.71,2.38,2.38,0,0,0,13.54,4a2.69,2.69,0,0,0-.46-1.66,1.41,1.41,0,0,0-1.17-.6,1.43,1.43,0,0,0-1.13.47,2.62,2.62,0,0,0-.58,1.19Q10,4.16,9.82,5T9.35,6.55a2.52,2.52,0,0,1-.87,1.19A2.48,2.48,0,0,1,6.92,8.22Z"/><rect class="cls-2" x="22.26" y="3.13" width="161.74" height="106"/><rect class="cls-3" x="52.08" y="-22.44" width="102.1" height="157.13" transform="translate(159.26 -47) rotate(90)"/></svg>