<svg id="Layer_1" data-name="Layer 1" xmlns="http://www.w3.org/2000/svg" viewBox="0 0 8.16 78.5"><defs><style>.cls-1{fill:#e6c195;}.cls-1,.cls-2,.cls-4,.cls-5,.cls-6{fill-rule:evenodd;}.cls-2{fill:#ffeed6;}.cls-3{fill:#dfaf7a;}.cls-4{fill:#ce9476;}.cls-5,.cls-7{fill:#231f20;}.cls-6,.cls-8{fill:#929497;}</style></defs><title>black-pencil</title><path class="cls-1" d="M4.17,75.5a2.24,2.24,0,0,1-.56,0l-.07,0L1.74,64.19l4.37,0L4.18,75.5Z"/><path class="cls-2" d="M8,66.26,5,75.34a3.1,3.1,0,0,1-.77.15L6.12,64.3Z"/><path class="cls-3" d="M6,63.91,4,75.69l.23,0A3.29,3.29,0,0,0,5,75.52l.09,0,3.06-9.28ZM4.4,75.29l1.83-10.6L7.74,66.3,4.81,75.2Z"/><polygon class="cls-4" points="3.04 75.3 0 66.35 1.78 64.23 3.54 75.45 3.04 75.3"/><path class="cls-5" d="M5.16,74.65a1.69,1.69,0,0,0-2.32,0,23.24,23.24,0,0,0,1.09,3.66c.09.29.2-.07.33-.43S5.16,74.65,5.16,74.65Z"/><path class="cls-6" d="M5,74.42a1.15,1.15,0,0,0-.55-.29c-.13,1.94-.34,4-.35,4.31s.23-.65.3-1Z"/><rect class="cls-7" x="1.76" y="0.04" width="4.34" height="64.19"/><polygon class="cls-7" points="1.76 0.04 0 2.44 0 66.38 1.76 64.23 1.76 0.04"/><polygon class="cls-8" points="7.99 2.44 6.11 0.09 6.11 64.23 7.99 66.27 7.99 2.44"/><path class="cls-7" d="M6.11,0h0A.09.09,0,0,0,6,.09V64.23a.09.09,0,0,0,0,.06l1.88,2a.09.09,0,0,0,.16-.06V2.44a.09.09,0,0,0,0-.06L6.18,0A.09.09,0,0,0,6.11,0ZM6.2,64.2V.36L7.9,2.47V66Z"/></svg>