<svg id="Layer_1" data-name="Layer 1" xmlns="http://www.w3.org/2000/svg" viewBox="0 0 8.2 78.55"><defs><style>.cls-1{fill:#e6c195;}.cls-1,.cls-2,.cls-4,.cls-5,.cls-6{fill-rule:evenodd;}.cls-2{fill:#ffeed6;}.cls-3{fill:#dfaf7a;}.cls-4{fill:#ce9476;}.cls-5,.cls-7{fill:#009cdd;}.cls-6{fill:#b7daf3;}.cls-8{fill:#0071bb;}.cls-9{fill:#54b5e6;}</style></defs><title>blue-pencil</title><path class="cls-1" d="M4.17,75.63a2.23,2.23,0,0,1-.56,0l-.07,0L1.74,64.32l4.37,0L4.18,75.63Z"/><path class="cls-2" d="M8,66.4,5,75.47a3.1,3.1,0,0,1-.77.15L6.11,64.36Z"/><path class="cls-3" d="M6,64,4,75.82l.23,0A3.29,3.29,0,0,0,5,75.65l.09,0,3.1-9.27ZM4.4,75.42,6.23,64.76l1.55,1.68-3,8.89A3,3,0,0,1,4.4,75.42Z"/><polygon class="cls-4" points="3.04 75.43 0 66.48 1.78 64.36 3.54 75.58 3.04 75.43"/><path class="cls-5" d="M5.18,74.78a1.69,1.69,0,0,0-2.32,0A23.28,23.28,0,0,0,4,78.45c.09.29.2-.07.33-.43S5.18,74.78,5.18,74.78Z"/><path class="cls-6" d="M5,74.6a1.14,1.14,0,0,0-.55-.27c-.13,1.9-.35,4.22-.35,4.22S4.4,77.52,5,74.6Z"/><rect class="cls-7" x="1.77" y="0.17" width="4.34" height="64.19"/><polygon class="cls-8" points="1.77 0.17 0 2.57 0 66.51 1.77 64.36 1.77 0.17"/><polygon class="cls-9" points="7.99 2.57 6.11 0.18 6.11 64.36 7.99 66.4 7.99 2.57"/><path class="cls-7" d="M6.11,0H6a.18.18,0,0,0-.12.17V64.36a.18.18,0,0,0,0,.12l1.88,2a.18.18,0,0,0,.32-.12V2.57a.18.18,0,0,0,0-.11L6.25.07A.18.18,0,0,0,6.11,0Zm.18,64.29V.71L7.81,2.63v63.3Z"/></svg>