<svg id="Layer_1" data-name="Layer 1" xmlns="http://www.w3.org/2000/svg" viewBox="0 0 8.17 78.9"><defs><style>.cls-1{fill:#e6c195;}.cls-1,.cls-2,.cls-4,.cls-5,.cls-7{fill-rule:evenodd;}.cls-2{fill:#ffeed6;}.cls-3{fill:#dfaf7a;}.cls-4{fill:#ce9476;}.cls-5,.cls-6{fill:#ce3f2b;}.cls-7{fill:#f8b7b3;}.cls-8{fill:#991633;}.cls-9{fill:#f48d7d;}</style></defs><title>red-pencil</title><path class="cls-1" d="M4.17,75.6a2.22,2.22,0,0,1-.56,0l-.07,0L1.74,64.29l4.37,0L4.18,75.6Z"/><path class="cls-2" d="M8,66.4l-3,9a3.1,3.1,0,0,1-.77.15L6.1,64.4Z"/><path class="cls-3" d="M6,64,4,75.79h.23A3.24,3.24,0,0,0,5,75.62l.09,0,3.08-9.24ZM4.4,75.39l1.82-10.6,1.54,1.65L4.81,75.3Z"/><polygon class="cls-4" points="3.04 75.4 0 66.45 1.78 64.33 3.54 75.56 3.04 75.4"/><path class="cls-5" d="M5.16,74.75a1.69,1.69,0,0,0-2.31,0,23.29,23.29,0,0,0,1.09,3.66c.09.29.2-.07.33-.43S5.16,74.75,5.16,74.75Z"/><path class="cls-6" d="M4.09,73.92a2.31,2.31,0,0,0-1.49.55l-.16.14,0,.21a21,21,0,0,0,1,3.4c.05.14.09.24.11.3A.45.45,0,0,0,4,78.9H4c.33,0,.44-.32.58-.72s.9-3.22.93-3.34l.05-.19-.13-.15a1.7,1.7,0,0,0-1.2-.58Zm-.83,1a1.57,1.57,0,0,1,.93-.24,1,1,0,0,1,.55.2c-.2.72-.55,2-.73,2.66A19.53,19.53,0,0,1,3.26,74.91Z"/><path class="cls-7" d="M5,74.5a1.37,1.37,0,0,0-.62-.26c-.16,2.19-.38,4-.39,4.31s.26-.65.33-1Z"/><rect class="cls-6" x="1.76" y="0.14" width="4.34" height="64.19"/><polygon class="cls-8" points="1.76 0.14 0 2.54 0 66.48 1.76 64.33 1.76 0.14"/><polygon class="cls-9" points="7.99 2.54 6.11 0.18 6.11 64.33 7.99 66.37 7.99 2.54"/><path class="cls-6" d="M6.11,0H6a.18.18,0,0,0-.12.17V64.33a.18.18,0,0,0,0,.12l1.88,2a.18.18,0,0,0,.32-.12V2.54a.19.19,0,0,0,0-.11L6.25.07A.18.18,0,0,0,6.11,0Zm.18,64.26V.7L7.81,2.6V65.9Z"/></svg>