<svg id="Layer_1" data-name="Layer 1" xmlns="http://www.w3.org/2000/svg" viewBox="0 0 8.17 78.88"><defs><style>.cls-1{fill:#e6c195;}.cls-1,.cls-2,.cls-4,.cls-5,.cls-7{fill-rule:evenodd;}.cls-2{fill:#ffeed6;}.cls-3{fill:#dfaf7a;}.cls-4{fill:#ce9476;}.cls-5,.cls-6{fill:#009342;}.cls-7,.cls-9{fill:#a2d294;}.cls-8{fill:#5eba59;}</style></defs><title>green-pencil</title><path class="cls-1" d="M4.18,75.6a2.25,2.25,0,0,1-.56,0l-.07,0L1.74,64.29l4.37,0L4.18,75.6Z"/><path class="cls-2" d="M7.94,66.37,5,75.44a3.1,3.1,0,0,1-.77.15L6.11,64.41Z"/><path class="cls-3" d="M6,64,4,75.79l.23,0A3.25,3.25,0,0,0,5,75.62l.09,0,0-.09,3-9.17ZM4.4,75.39,6.23,64.8l1.51,1.61L4.81,75.3Z"/><polygon class="cls-4" points="3.04 75.4 0 66.45 1.78 64.33 3.54 75.55 3.04 75.4"/><path class="cls-5" d="M5.16,74.75a1.69,1.69,0,0,0-2.31,0,23.27,23.27,0,0,0,1.09,3.66c.09.29.2-.07.33-.43S5.16,74.75,5.16,74.75Z"/><path class="cls-6" d="M4.09,73.93a2.3,2.3,0,0,0-1.48.55l-.16.13,0,.2a21,21,0,0,0,1,3.4c.05.14.09.25.11.3a.43.43,0,0,0,.41.36c.31,0,.44-.31.58-.71s.9-3.21.93-3.33l0-.18-.12-.14a1.69,1.69,0,0,0-1.19-.58Zm-.85,1a1.58,1.58,0,0,1,1-.25,1,1,0,0,1,.57.21c-.2.74-.57,2.1-.75,2.72A19.67,19.67,0,0,1,3.24,74.9Z"/><path class="cls-7" d="M5,74.51a1.35,1.35,0,0,0-.62-.27c-.14,1.94-.38,4-.39,4.31s.26-.65.33-1Z"/><rect class="cls-8" x="1.77" y="0.14" width="4.34" height="64.19"/><polygon class="cls-6" points="1.77 0.14 0 2.54 0 66.48 1.77 64.33 1.77 0.14"/><polygon class="cls-9" points="7.99 2.54 6.12 0.18 6.11 64.33 7.99 66.37 7.99 2.54"/><path class="cls-8" d="M6.12,0H6.06a.18.18,0,0,0-.12.17V64.33a.18.18,0,0,0,0,.12l1.88,2a.18.18,0,0,0,.32-.12V2.54a.18.18,0,0,0,0-.11L6.26.07A.18.18,0,0,0,6.12,0Zm.17,64.26V.71L7.81,2.6V65.9Z"/></svg>