<svg id="Layer_1" data-name="Layer 1" xmlns="http://www.w3.org/2000/svg" viewBox="0 0 8.17 78.9"><defs><style>.cls-1{fill:#e6c195;}.cls-1,.cls-2,.cls-4,.cls-5,.cls-7{fill-rule:evenodd;}.cls-2{fill:#ffeed6;}.cls-3{fill:#dfaf7a;}.cls-4{fill:#ce9476;}.cls-5,.cls-6{fill:#e41661;}.cls-7,.cls-9{fill:#f5bbbe;}.cls-8{fill:#ec798d;}.cls-10{fill:#ed8291;}</style></defs><title>blush-pencil</title><path class="cls-1" d="M4.17,75.6a2.24,2.24,0,0,1-.56,0l-.07,0L1.74,64.29l4.37,0L4.18,75.6Z"/><path class="cls-2" d="M8,66.4l-3,9a3.1,3.1,0,0,1-.77.15L6.11,64.39Z"/><path class="cls-3" d="M6,64,4,75.79h.23A3.26,3.26,0,0,0,5,75.62l.09,0,3.07-9.24ZM4.4,75.39l1.82-10.6,1.53,1.65L4.81,75.3A2.91,2.91,0,0,1,4.4,75.39Z"/><polygon class="cls-4" points="3.04 75.4 0 66.45 1.78 64.33 3.54 75.56 3.04 75.4"/><path class="cls-5" d="M5.16,74.75a1.69,1.69,0,0,0-2.31,0,23.27,23.27,0,0,0,1.09,3.66c.09.29.2-.07.33-.43S5.16,74.75,5.16,74.75Z"/><path class="cls-6" d="M4.09,73.92a2.32,2.32,0,0,0-1.49.55l-.16.14,0,.21a21,21,0,0,0,1,3.4c.05.14.09.24.11.3A.45.45,0,0,0,4,78.9c.38,0,.45-.31.59-.72s.9-3.22.93-3.33l.05-.19-.13-.15a1.71,1.71,0,0,0-1.2-.58Zm-.83,1a1.56,1.56,0,0,1,.93-.24,1,1,0,0,1,.55.2c-.2.72-.55,2-.73,2.66A19.56,19.56,0,0,1,3.26,74.91Z"/><path class="cls-7" d="M5,74.5a1.37,1.37,0,0,0-.62-.27c-.14,1.94-.38,4-.39,4.31s.26-.65.33-1Z"/><rect class="cls-8" x="1.77" y="0.14" width="4.34" height="64.19"/><polygon class="cls-6" points="1.77 0.14 0 2.54 0 66.48 1.77 64.33 1.77 0.14"/><polygon class="cls-9" points="7.99 2.54 6.12 0.18 6.11 64.33 7.99 66.37 7.99 2.54"/><path class="cls-10" d="M6.12,0H6.06a.18.18,0,0,0-.12.17V64.33a.18.18,0,0,0,0,.12l1.88,2a.18.18,0,0,0,.2,0,.18.18,0,0,0,.12-.17V2.54a.18.18,0,0,0,0-.11L6.27.07A.18.18,0,0,0,6.12,0Zm.17,64.26V.71l1.5,1.9V65.9Z"/></svg>