<svg id="Layer_1" data-name="Layer 1" xmlns="http://www.w3.org/2000/svg" viewBox="0 0 8.15 78.5"><defs><style>.cls-1{fill:#e6c195;}.cls-1,.cls-2,.cls-4,.cls-5,.cls-6{fill-rule:evenodd;}.cls-2{fill:#ffeed6;}.cls-3{fill:#dfaf7a;}.cls-4{fill:#ce9476;}.cls-5,.cls-7{fill:#bb216f;}.cls-6{fill:#f6ccd1;}.cls-8{fill:#8b2e5b;}.cls-9{fill:#e1a4ac;}</style></defs><title>pink-pencil</title><path class="cls-1" d="M4.17,75.57a2.23,2.23,0,0,1-.56,0l-.07,0L1.74,64.26l4.37,0L4.18,75.57Z"/><path class="cls-2" d="M7.94,66.36,5,75.42a3.1,3.1,0,0,1-.77.15L6.1,64.36Z"/><path class="cls-3" d="M6,64,4,75.77l.23,0A3.29,3.29,0,0,0,5,75.59l.09,0,0-.09,3-9.16ZM4.4,75.37,6.22,64.76l1.52,1.65L4.81,75.27Z"/><polygon class="cls-4" points="3.04 75.38 0 66.43 1.78 64.31 3.54 75.53 3.04 75.38"/><path class="cls-5" d="M5.16,74.73a1.69,1.69,0,0,0-2.31,0,23.22,23.22,0,0,0,1.09,3.66c.09.29.2-.07.33-.43S5.16,74.73,5.16,74.73Z"/><path class="cls-6" d="M5,74.54a1.33,1.33,0,0,0-.6-.26C4.26,76.13,4,78.1,4,78.4s.25-.62.32-.95Z"/><rect class="cls-7" x="1.76" y="0.11" width="4.34" height="64.2"/><polygon class="cls-8" points="1.76 0.11 0 2.51 0 66.45 1.76 64.31 1.76 0.11"/><polygon class="cls-9" points="7.99 2.51 6.11 0.15 6.11 64.31 7.99 66.34 7.99 2.51"/><path class="cls-8" d="M6.11,0H6.06A.16.16,0,0,0,6,.15V64.31a.15.15,0,0,0,0,.1l1.88,2a.15.15,0,0,0,.17,0,.16.16,0,0,0,.1-.14V2.51a.15.15,0,0,0,0-.1L6.23.06A.15.15,0,0,0,6.11,0Zm.15,64.25V.6l1.57,2V65.95Z"/></svg>