<svg id="Layer_1" data-name="Layer 1" xmlns="http://www.w3.org/2000/svg" viewBox="0 0 8.16 79.14"><defs><style>.cls-1{fill:#e6c195;}.cls-1,.cls-2,.cls-4,.cls-5,.cls-7{fill-rule:evenodd;}.cls-2{fill:#ffeed6;}.cls-3{fill:#dfaf7a;}.cls-4{fill:#ce9476;}.cls-5,.cls-6{fill:#f3783b;}.cls-7{fill:#fcc895;}.cls-8{fill:#f37721;}.cls-9{fill:#d4732e;}.cls-10{fill:#f9ab64;}</style></defs><title>orange-pencil</title><path class="cls-1" d="M4.17,75.84a2.23,2.23,0,0,1-.56,0l-.07,0L1.74,64.53l4.37,0L4.18,75.84Z"/><path class="cls-2" d="M8,66.65l-3,9a3.1,3.1,0,0,1-.77.15L6.1,64.64Z"/><path class="cls-3" d="M6,64.24,4,76h.23A3.25,3.25,0,0,0,5,75.86l.09,0L8.16,66.6ZM4.4,75.63,6.22,65l1.53,1.66L4.81,75.54A3,3,0,0,1,4.4,75.63Z"/><polygon class="cls-4" points="3.04 75.64 0 66.69 1.78 64.57 3.54 75.79 3.04 75.64"/><path class="cls-5" d="M5.16,75a1.68,1.68,0,0,0-2.31,0,23.2,23.2,0,0,0,1.09,3.66c.09.29.2-.07.33-.43S5.16,75,5.16,75Z"/><path class="cls-6" d="M4.09,74.15a2.32,2.32,0,0,0-1.49.56l-.16.14,0,.21a20.9,20.9,0,0,0,1,3.4c.05.14.09.24.11.3a.45.45,0,0,0,.42.38c.33,0,.45-.31.59-.72s.9-3.22.93-3.33l.05-.19-.13-.15a1.7,1.7,0,0,0-1.2-.59Zm-.83,1a1.57,1.57,0,0,1,.93-.24,1,1,0,0,1,.55.2c-.2.72-.55,2-.73,2.66A19.48,19.48,0,0,1,3.26,75.15Z"/><path class="cls-7" d="M5.05,74.74a1.36,1.36,0,0,0-.62-.27c-.14,1.94-.38,4-.39,4.31s.26-.65.33-1Z"/><rect class="cls-8" x="1.77" y="0.37" width="4.34" height="64.2"/><polygon class="cls-9" points="1.76 0.37 0 2.77 0 66.72 1.76 64.57 1.76 0.37"/><polygon class="cls-10" points="7.99 2.77 6.11 0.44 6.11 64.57 7.99 66.6 7.99 2.77"/><path class="cls-8" d="M6,0V64.63L8.15,67V2.72Zm.31,64.51V.88L7.84,2.83V66.21Z"/></svg>