<svg id="Layer_1" data-name="Layer 1" xmlns="http://www.w3.org/2000/svg" xmlns:xlink="http://www.w3.org/1999/xlink" viewBox="0 0 79.08 55.22"><defs><style>.cls-1{fill:none;}.cls-2{fill:#d47624;}.cls-10,.cls-11,.cls-13,.cls-14,.cls-16,.cls-2,.cls-20,.cls-21,.cls-24,.cls-26,.cls-3,.cls-30,.cls-31,.cls-35,.cls-36,.cls-40,.cls-41,.cls-45,.cls-46,.cls-5,.cls-50,.cls-52,.cls-55,.cls-58,.cls-59,.cls-63,.cls-65,.cls-69,.cls-71,.cls-8{fill-rule:evenodd;}.cls-3,.cls-9{fill:#ffcc02;}.cls-4{fill:#b16827;}.cls-5,.cls-6{fill:#fcb813;}.cls-7{fill:#efa41f;}.cls-8{fill:#f29b2d;}.cls-10{fill:#e6c195;}.cls-11{fill:#ffeed6;}.cls-12{fill:#dfaf7a;}.cls-13,.cls-49{fill:#ce9476;}.cls-14,.cls-15{fill:#f3783b;}.cls-16{fill:#fcc895;}.cls-17{fill:#f37721;}.cls-18{fill:#d4732e;}.cls-19{fill:#f9ab64;}.cls-20,.cls-22{fill:#231f20;}.cls-21,.cls-23{fill:#929497;}.cls-24,.cls-25{fill:#e41661;}.cls-26,.cls-28{fill:#f5bbbe;}.cls-27{fill:#ec798d;}.cls-29{fill:#ed8291;}.cls-30,.cls-32{fill:#29569a;}.cls-31{fill:#abcdec;}.cls-33{fill:#2b2954;}.cls-34{fill:#7885b8;}.cls-35,.cls-37{fill:#009cdd;}.cls-36{fill:#b7daf3;}.cls-38{fill:#0071bb;}.cls-39{fill:#54b5e6;}.cls-40,.cls-42{fill:#bb216f;}.cls-41{fill:#f6ccd1;}.cls-43{fill:#8b2e5b;}.cls-44{fill:#e1a4ac;}.cls-45,.cls-47{fill:#8a4324;}.cls-46{fill:#ddb7a0;}.cls-48{fill:#57182c;}.cls-50,.cls-51{fill:#009342;}.cls-52,.cls-54{fill:#a2d294;}.cls-53{fill:#5eba59;}.cls-55,.cls-57{fill:#ffeeab;}.cls-56{fill:#fd0;}.cls-58,.cls-60{fill:#6c2c8e;}.cls-59{fill:#cbb4ce;}.cls-61{fill:#42166a;}.cls-62{fill:#9282bd;}.cls-63,.cls-64{fill:#00a9b4;}.cls-65{fill:#a8dce1;}.cls-66{fill:#00bac3;}.cls-67{fill:#8dd3d9;}.cls-68{fill:#3ec0c9;}.cls-69,.cls-70{fill:#ce3f2b;}.cls-71{fill:#f8b7b3;}.cls-72{fill:#991633;}.cls-73{fill:#f48d7d;}.cls-74{fill:#f1b11c;}.cls-75{clip-path:url(#clip-path);}</style><clipPath id="clip-path"><path class="cls-1" d="M22.61,50A2.66,2.66,0,0,1,20,47.75L17.28,22.88a2.06,2.06,0,0,1,2.09-2.31l10.75,0a2.66,2.66,0,0,1,2.59,2.3l2.74,24.86A2.06,2.06,0,0,1,33.36,50Z"/></clipPath></defs><title>pencil-box</title><polygon class="cls-2" points="65.53 34.55 58.65 36.08 54.99 3.43 62.01 1.91 65.53 34.55"/><polygon class="cls-3" points="61.39 8.8 65.66 47.98 78.23 45.13 73.93 5.95 61.39 8.8"/><path class="cls-4" d="M60.53,8.8A.86.86,0,0,1,61.2,8L73.74,5.11a.86.86,0,0,1,1,.74L79.08,45a.86.86,0,0,1-.66.93L65.85,48.81a.86.86,0,0,1-1-.74L60.54,8.89A.91.91,0,0,1,60.53,8.8ZM73.18,7,62.33,9.47l4.08,37.46,10.88-2.47Z"/><polygon class="cls-5" points="73.93 5.95 67.49 0.86 55.26 3.54 61.47 8.63 73.93 5.95"/><path class="cls-4" d="M54.4,3.54a.86.86,0,0,1,.67-.84L67.31,0A.86.86,0,0,1,68,.18l6.44,5.09a.86.86,0,0,1-.35,1.51L61.65,9.47a.86.86,0,0,1-.73-.18L54.71,4.21A.86.86,0,0,1,54.4,3.54ZM67.28,1.78,57.17,4l4.52,3.71L72,5.49Z"/><polygon class="cls-1" points="56.94 3.91 61.61 7.89 72.39 5.58 67.31 1.6 56.94 3.91"/><polygon class="cls-6" points="42.16 17.21 44.1 34.46 46.74 36.63 44.5 16.67 42.16 17.21"/><path class="cls-7" d="M41.1,16.47l4.25-1L48,38.9,43.19,35Zm2.56,1.39-.44.1L45,34l.49.4Z"/><path class="cls-4" d="M67.6,7.28a.85.85,0,0,1,.65-.82l5.48-1.33a.85.85,0,0,1,1,.73l4.2,39a.85.85,0,0,1-1.38.75l-6.15-5a.85.85,0,0,1-.31-.56L67.61,7.37A.76.76,0,0,1,67.6,7.28ZM73.19,7l-3.82.93,3.41,31.56L77.06,43Z"/><polygon class="cls-8" points="71.98 39.92 65.09 41.45 61.44 8.8 68.45 7.28 71.98 39.92"/><path class="cls-4" d="M60.5,8.12l8.7-1.89,3.71,34.36-8.57,1.9Zm7.2.19L62.38,9.47,65.84,40.4,71,39.25Z"/><polygon class="cls-9" points="61.09 8.61 11.88 8.42 0.93 14.67 5.05 53.91 54.19 54.41 65.36 48.02 61.09 8.61"/><path class="cls-4" d="M.13,14.67A.8.8,0,0,1,.53,14l11-6.25a.8.8,0,0,1,.4-.11l49.2.2a.8.8,0,0,1,.8.72l4.27,39.41a.81.81,0,0,1-.4.79L54.59,55.11a.81.81,0,0,1-.41.11L5,54.71A.8.8,0,0,1,4.25,54L.13,14.75S.13,14.7.13,14.67Zm12-5.45L1.79,15.11l4,38L54,53.6l10.52-6L60.37,9.42Z"/><polygon class="cls-4" points="54.19 54.41 41.5 36.48 49.77 14.93 61.09 8.61 65.36 48.02 54.19 54.41"/><path class="cls-10" d="M75.23,44.26a1.71,1.71,0,0,0,0-.43l0-.06-8.7-1.39,0,3.37,8.7-1.49Z"/><path class="cls-11" d="M68.13,47.17l7-2.31a2.39,2.39,0,0,0,.12-.59l-8.65,1.48Z"/><path class="cls-12" d="M66.27,45.65l9.11-1.56v.18a2.5,2.5,0,0,1-.13.63l0,.07-7.12,2.36Zm8.8-1.22-8.18,1.4L68.16,47,75,44.74A2.3,2.3,0,0,0,75.07,44.43Z"/><polygon class="cls-13" points="75.07 43.38 68.16 41.04 66.52 42.41 75.19 43.77 75.07 43.38"/><path class="cls-14" d="M74.57,45a1.3,1.3,0,0,1,0-1.78,18,18,0,0,1,2.83.84c.23.07-.05.15-.33.25S74.57,45,74.57,45Z"/><path class="cls-15" d="M73.92,44.19A1.78,1.78,0,0,1,74.35,43l.11-.13.16,0a16.16,16.16,0,0,1,2.63.76l.23.08a.35.35,0,0,1,.29.33c0,.25-.24.35-.55.46s-2.48.69-2.58.72l-.15,0-.12-.1a1.31,1.31,0,0,1-.45-.93S73.92,44.23,73.92,44.19Zm.77-.64a1.21,1.21,0,0,0-.19.72.79.79,0,0,0,.15.42l2.05-.56A15.07,15.07,0,0,0,74.69,43.55Z"/><path class="cls-16" d="M74.37,44.93a1,1,0,0,1-.21-.48c1.5-.11,3.1-.29,3.33-.3s-.5.2-.77.26Z"/><rect class="cls-17" x="16.94" y="42.4" width="49.58" height="3.35"/><polygon class="cls-18" points="16.94 42.39 18.8 41.03 68.18 41.04 66.52 42.4 16.94 42.39"/><polygon class="cls-19" points="18.8 47.19 17 45.74 66.52 45.75 68.09 47.2 18.8 47.19"/><path class="cls-17" d="M16.65,45.62H66.57l1.83,1.69H18.75Zm49.82.24H17.33l1.5,1.21h49Z"/><path class="cls-10" d="M73,25.71a1.72,1.72,0,0,0,0-.43l0-.06-8.7-1.39,0,3.37L73,25.72Z"/><path class="cls-11" d="M65.82,28.62l7-2.31a2.38,2.38,0,0,0,.12-.59L64.3,27.21Z"/><path class="cls-12" d="M64,27.12l9.1-1.57v.18a2.53,2.53,0,0,1-.13.63l0,.07-7.16,2.36Zm8.79-1.23L64.61,27.3l1.25,1.16,6.87-2.26A2.4,2.4,0,0,0,72.79,25.89Z"/><polygon class="cls-13" points="72.8 24.84 65.89 22.49 64.25 23.86 72.92 25.22 72.8 24.84"/><path class="cls-20" d="M72.3,26.47a1.3,1.3,0,0,1,0-1.78,18,18,0,0,1,2.83.84c.23.07-.05.15-.33.25S72.3,26.47,72.3,26.47Z"/><path class="cls-21" d="M72.12,26.31a.88.88,0,0,1-.22-.43c1.5-.1,3.09-.26,3.33-.27s-.5.18-.77.23Z"/><rect class="cls-22" x="14.67" y="23.85" width="49.58" height="3.35"/><polygon class="cls-22" points="14.67 23.85 16.53 22.49 65.91 22.49 64.25 23.85 14.67 23.85"/><polygon class="cls-23" points="16.53 28.65 14.72 27.2 64.25 27.2 65.82 28.65 16.53 28.65"/><path class="cls-22" d="M14.64,27.2v0a.07.07,0,0,1,.07,0H64.25l0,0,1.57,1.45a.07.07,0,0,1,0,.12H16.53l0,0-1.81-1.45A.07.07,0,0,1,14.64,27.2Zm49.58.08H14.92l1.63,1.31H65.64Z"/><path class="cls-10" d="M72.34,19.48a1.73,1.73,0,0,0,0-.43l0-.06L63.6,17.6l0,3.37,8.7-1.49Z"/><path class="cls-11" d="M65.23,22.4l7-2.32a2.39,2.39,0,0,0,.12-.59L63.68,21Z"/><path class="cls-12" d="M63.37,20.88l9.11-1.56v.18a2.51,2.51,0,0,1-.13.63l0,.07-7.13,2.36Zm8.8-1.22L64,21.06l1.28,1.18L72.1,20A2.24,2.24,0,0,0,72.17,19.66Z"/><polygon class="cls-13" points="72.18 18.61 65.27 16.26 63.63 17.63 72.3 18.99 72.18 18.61"/><path class="cls-24" d="M71.68,20.24a1.3,1.3,0,0,1,0-1.78,18,18,0,0,1,2.83.84c.23.07-.05.15-.33.25S71.68,20.24,71.68,20.24Z"/><path class="cls-25" d="M71,19.42a1.78,1.78,0,0,1,.43-1.15l.11-.13.16,0a16.26,16.26,0,0,1,2.62.76l.23.08a.35.35,0,0,1,.29.33c0,.3-.24.35-.55.46s-2.48.69-2.57.72l-.15,0-.12-.1a1.31,1.31,0,0,1-.45-.92S71,19.46,71,19.42Zm.77-.64a1.2,1.2,0,0,0-.19.72.79.79,0,0,0,.15.42l2.05-.56A15.12,15.12,0,0,0,71.81,18.77Z"/><path class="cls-26" d="M71.49,20.14a1.05,1.05,0,0,1-.21-.48c1.5-.11,3.09-.29,3.33-.3s-.5.2-.77.26Z"/><rect class="cls-27" x="14.06" y="17.62" width="49.58" height="3.35"/><polygon class="cls-25" points="14.06 17.62 15.91 16.26 65.29 16.26 63.63 17.62 14.06 17.62"/><polygon class="cls-28" points="15.91 22.41 14.09 20.97 63.63 20.97 65.2 22.42 15.91 22.41"/><path class="cls-29" d="M13.95,21a.14.14,0,0,1,0,0,.14.14,0,0,1,.13-.09H63.63a.14.14,0,0,1,.1,0l1.57,1.45a.14.14,0,0,1,0,.15.14.14,0,0,1-.13.09H15.91a.14.14,0,0,1-.09,0L14,21.08A.14.14,0,0,1,13.95,21Zm49.63.14H14.49L16,22.27H64.85Z"/><path class="cls-10" d="M71.58,13.22a1.73,1.73,0,0,0,0-.43l0-.06-8.7-1.39,0,3.37,8.7-1.49Z"/><path class="cls-11" d="M64.47,16.14l7-2.32a2.39,2.39,0,0,0,.12-.59l-8.65,1.48Z"/><path class="cls-12" d="M62.63,14.62l9.11-1.56v.18a2.56,2.56,0,0,1-.13.63l0,.07L64.44,16.3Zm8.8-1.22-8.19,1.4L64.51,16l6.84-2.27A2.35,2.35,0,0,0,71.42,13.4Z"/><polygon class="cls-13" points="71.43 12.35 64.52 10 62.88 11.37 71.55 12.73 71.43 12.35"/><path class="cls-30" d="M70.93,14a1.3,1.3,0,0,1,0-1.78,18,18,0,0,1,2.83.84c.23.07-.05.15-.33.25S70.93,14,70.93,14Z"/><path class="cls-31" d="M70.77,13.81a.87.87,0,0,1-.17-.41c1.67-.11,3.23-.29,3.23-.29Z"/><rect class="cls-32" x="13.3" y="11.36" width="49.58" height="3.35"/><polygon class="cls-33" points="13.3 11.36 15.15 10 64.54 10 62.88 11.36 13.3 11.36"/><polygon class="cls-34" points="15.15 16.16 13.33 14.71 62.88 14.71 64.45 16.16 15.15 16.16"/><path class="cls-32" d="M13,14.59H62.93l1.83,1.69H15.11Zm49.84.24H13.68L15.19,16h49Z"/><path class="cls-10" d="M74.48,38.05a1.72,1.72,0,0,0,0-.43l0-.06-8.7-1.39,0,3.37,8.7-1.49Z"/><path class="cls-11" d="M67.35,41l7-2.34a2.39,2.39,0,0,0,.12-.59l-8.7,1.49Z"/><path class="cls-12" d="M65.48,39.45l9.16-1.56v.18a2.53,2.53,0,0,1-.13.63l0,.07-7.16,2.39Zm8.85-1.22-8.24,1.41,1.3,1.2,6.86-2.29A2.27,2.27,0,0,0,74.32,38.23Z"/><polygon class="cls-13" points="74.33 37.18 67.42 34.83 65.78 36.2 74.45 37.56 74.33 37.18"/><path class="cls-35" d="M73.83,38.83a1.3,1.3,0,0,1,0-1.78,18,18,0,0,1,2.83.84c.23.07-.05.15-.33.25S73.83,38.83,73.83,38.83Z"/><path class="cls-36" d="M73.69,38.68a.88.88,0,0,1-.21-.42c1.46-.1,3.26-.27,3.26-.27S75.95,38.23,73.69,38.68Z"/><rect class="cls-37" x="16.21" y="36.19" width="49.58" height="3.35"/><polygon class="cls-38" points="16.2 36.19 18.06 34.83 67.44 34.83 65.78 36.19 16.2 36.19"/><polygon class="cls-39" points="18.06 40.98 16.21 39.53 65.78 39.54 67.35 40.99 18.06 40.98"/><path class="cls-37" d="M16.07,39.54a.15.15,0,0,1,0,0,.14.14,0,0,1,.13-.09H65.78a.14.14,0,0,1,.1,0l1.57,1.45a.14.14,0,0,1,0,.15.14.14,0,0,1-.13.09H18.06a.14.14,0,0,1-.09,0l-1.84-1.45A.14.14,0,0,1,16.07,39.54Zm49.65.15H16.62l1.49,1.17H67Z"/><path class="cls-10" d="M73.77,31.91a1.72,1.72,0,0,0,0-.43l0-.06L65,30l0,3.37,8.7-1.49Z"/><path class="cls-11" d="M66.65,34.82l7-2.3a2.39,2.39,0,0,0,.12-.59L65.11,33.4Z"/><path class="cls-12" d="M64.8,33.31l9.12-1.56v.18a2.53,2.53,0,0,1-.13.63l0,.07-.07,0L66.62,35Zm8.81-1.22-8.19,1.4,1.27,1.17,6.85-2.26A2.35,2.35,0,0,0,73.61,32.09Z"/><polygon class="cls-13" points="73.61 31.04 66.7 28.7 65.07 30.07 73.73 31.43 73.61 31.04"/><path class="cls-40" d="M73.11,32.67a1.3,1.3,0,0,1,0-1.78,18,18,0,0,1,2.83.84c.23.07-.05.15-.33.25S73.11,32.67,73.11,32.67Z"/><path class="cls-41" d="M73,32.55a1,1,0,0,1-.2-.47c1.43-.11,3-.28,3.18-.29s-.48.19-.73.25Z"/><rect class="cls-42" x="15.49" y="30.05" width="49.58" height="3.35"/><polygon class="cls-43" points="15.49 30.05 17.34 28.69 66.72 28.7 65.07 30.06 15.49 30.05"/><polygon class="cls-44" points="17.34 34.85 15.52 33.4 65.06 33.4 66.64 34.85 17.34 34.85"/><path class="cls-43" d="M15.4,33.4a.13.13,0,0,1,0,0,.12.12,0,0,1,.11-.08H65.07a.12.12,0,0,1,.08,0l1.57,1.45a.12.12,0,0,1,0,.13.12.12,0,0,1-.11.08H17.34l-.07,0-1.82-1.45A.12.12,0,0,1,15.4,33.4ZM65,33.52H15.86l1.52,1.21H66.33Z"/><path class="cls-10" d="M66.76,50a1.72,1.72,0,0,0,0-.43l0-.06L58,48.15l0,3.37L66.76,50Z"/><path class="cls-11" d="M59.62,52.94l7-2.31a2.38,2.38,0,0,0,.12-.59l-8.65,1.49Z"/><path class="cls-12" d="M57.8,51.44l9.1-1.57V50a2.5,2.5,0,0,1-.13.63l0,.07L59.58,53.1Zm8.79-1.23-8.19,1.41,1.25,1.16,6.87-2.26A2.28,2.28,0,0,0,66.6,50.21Z"/><polygon class="cls-13" points="66.6 49.16 59.69 46.81 58.06 48.19 66.72 49.55 66.6 49.16"/><path class="cls-45" d="M66.1,50.79a1.3,1.3,0,0,1,0-1.78,18,18,0,0,1,2.83.84c.23.07-.05.15-.33.25S66.1,50.79,66.1,50.79Z"/><path class="cls-46" d="M65.92,50.71a1,1,0,0,1-.22-.48c1.5-.11,3.09-.29,3.33-.3s-.5.2-.77.26Z"/><rect class="cls-47" x="8.48" y="48.17" width="49.58" height="3.35"/><polygon class="cls-48" points="8.48 48.17 10.33 46.81 59.71 46.82 58.06 48.18 8.48 48.17"/><polygon class="cls-49" points="10.33 52.97 8.52 51.52 58.06 51.52 59.63 52.97 10.33 52.97"/><path class="cls-47" d="M8.4,51.52a.13.13,0,0,1,0,0,.12.12,0,0,1,.11-.08H58.06a.12.12,0,0,1,.08,0l1.57,1.45a.12.12,0,0,1,0,.13.12.12,0,0,1-.11.08H10.33l-.07,0L8.44,51.61A.12.12,0,0,1,8.4,51.52ZM58,51.64H8.86l1.51,1.21h49Z"/><path class="cls-10" d="M65.92,43.77a1.73,1.73,0,0,0,0-.43l0-.06-8.7-1.39,0,3.37,8.7-1.49Z"/><path class="cls-11" d="M58.79,46.67l7-2.3a2.39,2.39,0,0,0,.12-.59l-8.64,1.49Z"/><path class="cls-12" d="M57,45.17l9.09-1.56v.18a2.5,2.5,0,0,1-.13.63l0,.07-.07,0-7.08,2.33Zm8.78-1.23-8.18,1.41,1.25,1.16,6.86-2.26A2.31,2.31,0,0,0,65.76,43.94Z"/><polygon class="cls-13" points="65.76 42.9 58.85 40.55 57.22 41.92 65.88 43.28 65.76 42.9"/><path class="cls-50" d="M65.26,44.53a1.3,1.3,0,0,1,0-1.78,18,18,0,0,1,2.83.84c.23.07-.05.15-.33.25S65.26,44.53,65.26,44.53Z"/><path class="cls-51" d="M64.63,43.7a1.77,1.77,0,0,1,.43-1.14l.1-.12.16,0a16.22,16.22,0,0,1,2.62.76l.23.08a.33.33,0,0,1,.28.31c0,.24-.24.34-.55.45s-2.48.69-2.57.72l-.14,0-.11-.09a1.3,1.3,0,0,1-.45-.92S64.63,43.74,64.63,43.7Zm.75-.66a1.22,1.22,0,0,0-.19.73.8.8,0,0,0,.16.44l2.1-.58A15.22,15.22,0,0,0,65.38,43Z"/><path class="cls-52" d="M65.08,44.44a1,1,0,0,1-.21-.48c1.5-.11,3.09-.29,3.33-.3s-.5.2-.77.26Z"/><rect class="cls-53" x="7.64" y="41.91" width="49.58" height="3.35"/><polygon class="cls-51" points="7.64 41.9 9.49 40.54 58.87 40.55 57.22 41.91 7.64 41.9"/><polygon class="cls-54" points="9.49 46.7 7.67 45.26 57.22 45.26 58.79 46.71 9.49 46.7"/><path class="cls-53" d="M7.53,45.26a.14.14,0,0,1,0,0,.14.14,0,0,1,.13-.09H57.22a.14.14,0,0,1,.1,0l1.57,1.45a.14.14,0,0,1-.1.24H9.49a.14.14,0,0,1-.09,0L7.58,45.37A.14.14,0,0,1,7.53,45.26Zm49.63.14H8.08l1.46,1.16H58.43Z"/><path class="cls-10" d="M65,37.53a1.73,1.73,0,0,0,0-.43l0-.06-8.7-1.39,0,3.37L65,37.54Z"/><path class="cls-11" d="M57.86,40.44l7-2.3a2.38,2.38,0,0,0,.12-.59L56.32,39Z"/><path class="cls-12" d="M56,38.93l9.12-1.56v.18a2.5,2.5,0,0,1-.13.63l0,.07-.07,0L57.83,40.6Zm8.81-1.22-8.19,1.4,1.27,1.17L64.75,38A2.3,2.3,0,0,0,64.82,37.71Z"/><polygon class="cls-13" points="64.83 36.66 57.91 34.32 56.28 35.69 64.94 37.05 64.83 36.66"/><path class="cls-5" d="M64.32,38.29a1.3,1.3,0,0,1,0-1.78,18,18,0,0,1,2.83.84c.23.07-.05.15-.33.25S64.32,38.29,64.32,38.29Z"/><path class="cls-6" d="M63.69,37.47a1.77,1.77,0,0,1,.43-1.14l.1-.12.16,0A16.17,16.17,0,0,1,67,37l.23.08a.33.33,0,0,1,.28.31h0c0,.25-.24.33-.55.44s-2.48.69-2.57.72l-.14,0-.11-.09a1.3,1.3,0,0,1-.45-.92S63.69,37.51,63.69,37.47Zm.75-.66a1.24,1.24,0,0,0-.19.73.8.8,0,0,0,.16.44l2.1-.58A15.21,15.21,0,0,0,64.44,36.81Z"/><path class="cls-55" d="M64.14,38.21a1,1,0,0,1-.21-.48c1.5-.11,3.09-.29,3.33-.3s-.5.2-.77.26Z"/><rect class="cls-56" x="6.7" y="35.67" width="49.58" height="3.35"/><polygon class="cls-6" points="6.7 35.67 8.55 34.31 57.94 34.32 56.28 35.68 6.7 35.67"/><polygon class="cls-57" points="8.55 40.47 6.73 39.02 56.28 39.02 57.85 40.48 8.55 40.47"/><path class="cls-56" d="M6.59,39a.15.15,0,0,1,0,0,.14.14,0,0,1,.13-.09H56.28a.14.14,0,0,1,.1,0l1.57,1.45a.14.14,0,0,1,0,.15.14.14,0,0,1-.13.09H8.55a.14.14,0,0,1-.09,0L6.64,39.13A.14.14,0,0,1,6.59,39Zm49.63.15H7.13L8.6,40.33H57.49Z"/><path class="cls-10" d="M64.44,31.28a1.73,1.73,0,0,0,0-.43l0-.06-8.7-1.39,0,3.37,8.7-1.49Z"/><path class="cls-11" d="M57.32,34.18l7-2.3a2.39,2.39,0,0,0,.12-.59L55.8,32.77Z"/><path class="cls-12" d="M55.5,32.68l9.09-1.56v.18a2.5,2.5,0,0,1-.13.63l0,.07-.07,0-7.09,2.33Zm8.78-1.23-8.18,1.41L57.35,34l6.86-2.26A2.28,2.28,0,0,0,64.28,31.45Z"/><polygon class="cls-13" points="64.29 30.4 57.38 28.06 55.74 29.43 64.41 30.79 64.29 30.4"/><path class="cls-58" d="M63.79,32a1.3,1.3,0,0,1,0-1.78,18,18,0,0,1,2.83.84c.23.07-.05.15-.33.25S63.79,32,63.79,32Z"/><path class="cls-59" d="M63.67,31.91a.94.94,0,0,1-.2-.44c1.43-.1,3-.27,3.18-.28s-.48.18-.73.24Z"/><rect class="cls-60" x="6.16" y="29.41" width="49.58" height="3.35"/><polygon class="cls-61" points="6.16 29.41 8.02 28.05 57.4 28.06 55.74 29.42 6.16 29.41"/><polygon class="cls-62" points="8.01 34.21 6.2 32.77 55.74 32.77 57.31 34.22 8.01 34.21"/><path class="cls-60" d="M6.08,32.77a.12.12,0,0,1,0,0,.12.12,0,0,1,.11-.08H55.74a.12.12,0,0,1,.08,0l1.57,1.45a.12.12,0,0,1,0,.13.12.12,0,0,1-.11.08H8l-.07,0L6.12,32.86A.12.12,0,0,1,6.08,32.77Zm49.62.12H6.54l1.52,1.2H57Z"/><path class="cls-10" d="M63.7,25a1.72,1.72,0,0,0,0-.43l0-.06L55,23.13l0,3.37L63.7,25Z"/><path class="cls-11" d="M56.56,27.92l7-2.31A2.38,2.38,0,0,0,63.7,25l-8.65,1.49Z"/><path class="cls-12" d="M54.75,26.42l9.1-1.57V25a2.53,2.53,0,0,1-.13.63l0,.07-7.16,2.36Zm8.79-1.23L55.35,26.6l1.24,1.16,6.87-2.26A2.33,2.33,0,0,0,63.54,25.18Z"/><polygon class="cls-13" points="63.55 24.14 56.64 21.79 55 23.16 63.67 24.52 63.55 24.14"/><path class="cls-63" d="M63,25.77A1.3,1.3,0,0,1,63,24a18,18,0,0,1,2.83.84c.23.07-.05.15-.33.25S63,25.77,63,25.77Z"/><path class="cls-64" d="M62.4,24.94a1.79,1.79,0,0,1,.43-1.15l.11-.13.16,0a16.23,16.23,0,0,1,2.63.77l.23.08a.35.35,0,0,1,.29.33c0,.28-.24.35-.55.46s-2.48.69-2.57.72l-.15,0-.12-.1a1.31,1.31,0,0,1-.45-.92S62.4,25,62.4,24.94Zm.77-.64A1.22,1.22,0,0,0,63,25a.79.79,0,0,0,.15.42l2.05-.56A15.12,15.12,0,0,0,63.17,24.3Z"/><path class="cls-65" d="M62.87,25.68a1,1,0,0,1-.22-.48c1.5-.11,3.09-.29,3.33-.3s-.5.2-.77.26Z"/><rect class="cls-66" x="5.42" y="23.15" width="49.58" height="3.35"/><polygon class="cls-64" points="5.42 23.14 7.27 21.78 56.66 21.79 55 23.15 5.42 23.14"/><polygon class="cls-67" points="7.27 27.94 5.46 26.49 55 26.5 56.57 27.95 7.27 27.94"/><path class="cls-68" d="M5.32,26.49a.15.15,0,0,1,0,0,.14.14,0,0,1,.13-.09H55a.14.14,0,0,1,.1,0l1.57,1.45a.14.14,0,0,1,0,.15.14.14,0,0,1-.13.09H7.27a.14.14,0,0,1-.09,0L5.38,26.6A.14.14,0,0,1,5.32,26.49Zm49.62.15H5.86L7.32,27.8H56.21Z"/><path class="cls-10" d="M62.74,18.82a1.71,1.71,0,0,0,0-.43l0-.06L54,16.94l0,3.37,8.7-1.49Z"/><path class="cls-11" d="M55.64,21.74l7-2.32a2.39,2.39,0,0,0,.12-.59L54.09,20.3Z"/><path class="cls-12" d="M53.79,20.21l9.1-1.56v.18a2.5,2.5,0,0,1-.13.63l0,.07L55.6,21.9ZM62.58,19l-8.19,1.4,1.27,1.18,6.84-2.27A2.34,2.34,0,0,0,62.58,19Z"/><polygon class="cls-13" points="62.59 17.94 55.68 15.6 54.04 16.97 62.71 18.33 62.59 17.94"/><path class="cls-69" d="M62.09,19.58a1.3,1.3,0,0,1,0-1.78,18,18,0,0,1,2.83.84c.23.07-.05.15-.33.25S62.09,19.58,62.09,19.58Z"/><path class="cls-70" d="M61.45,18.75a1.78,1.78,0,0,1,.43-1.15l.11-.13.16,0a16.24,16.24,0,0,1,2.62.76l.23.08a.35.35,0,0,1,.29.33h0c0,.26-.24.34-.55.45s-2.49.7-2.58.72l-.15,0-.12-.1a1.31,1.31,0,0,1-.45-.93S61.45,18.79,61.45,18.75Zm.77-.64a1.21,1.21,0,0,0-.19.72.79.79,0,0,0,.15.43l2.05-.56A15.1,15.1,0,0,0,62.21,18.11Z"/><path class="cls-71" d="M61.89,19.49a1.05,1.05,0,0,1-.2-.48c1.69-.12,3.07-.29,3.33-.3s-.5.2-.77.26Z"/><rect class="cls-70" x="4.47" y="16.95" width="49.58" height="3.35"/><polygon class="cls-72" points="4.47 16.95 6.32 15.59 55.7 15.6 54.04 16.96 4.47 16.95"/><polygon class="cls-73" points="6.32 21.75 4.5 20.3 54.04 20.31 55.62 21.76 6.32 21.75"/><path class="cls-70" d="M4.36,20.3a.15.15,0,0,1,0,0,.14.14,0,0,1,.13-.09H54a.14.14,0,0,1,.1,0l1.57,1.45a.14.14,0,0,1-.1.24H6.32a.14.14,0,0,1-.09,0L4.41,20.41A.14.14,0,0,1,4.36,20.3ZM54,20.45H4.9l1.47,1.17H55.26Z"/><polygon class="cls-6" points="49.68 14.74 61.09 8.61 12.1 8.42 0.85 14.73 49.68 14.74"/><path class="cls-4" d="M0,14.73A.8.8,0,0,1,.46,14L11.71,7.72a.81.81,0,0,1,.4-.1l49,.2a.8.8,0,0,1,.38,1.51L50.06,15.45a.81.81,0,0,1-.38.1H.85a.8.8,0,0,1-.8-.8ZM12.31,9.22l-8.38,4.7H49.48l8.43-4.53Z"/><path class="cls-6" d="M12.27,9,3.15,14.13H49.54c.2-.09,5.27-3.19,8.75-4.87C53.47,9.35,12.55,9,12.27,9Z"/><path class="cls-9" d="M5,54,.85,14.73H49.68l.92,8.71s-4.09,1.39-3.68,11.62c.47,11.71,6.18,11.43,6.18,11.43L54,54.37Z"/><path class="cls-4" d="M0,14.73a.85.85,0,0,1,.85-.85H49.68a.85.85,0,0,1,.85.76l.92,8.71a.84.84,0,0,1-.57.9S47.4,25.72,47.77,35c.42,10.58,5.1,10.61,5.3,10.61a.86.86,0,0,1,.88.76l.89,7.87a.85.85,0,0,1-.85.95L5,54.85a.85.85,0,0,1-.84-.76L0,14.82A.85.85,0,0,1,0,14.73Zm48.91.86H1.8l4,37.56L53,53.51l-.71-6.24a5.63,5.63,0,0,1-2.67-1.42c-2.18-2-3.39-5.61-3.59-10.75C45.73,26.67,48.43,23.84,49.7,23Z"/><path class="cls-1" d="M52.62,47c-1.22-.15-5.89-1.16-6.3-11.9-.17-4.55.46-9.24,1.78-10.7A5,5,0,0,1,49.94,23l-.81-7.64H1.53C1.67,16.6,5.47,52.39,5.58,53.4l47.73.36C53.19,52.69,52.67,47.63,52.62,47Z"/><path class="cls-74" d="M14.85,22.66a4.41,4.41,0,0,1,1.14-3,4.49,4.49,0,0,1,3.37-1.48l10.75,0a5.06,5.06,0,0,1,5,4.45l2.74,24.86a4.47,4.47,0,0,1-4.48,5l-10.75,0a5.06,5.06,0,0,1-5-4.44L14.88,23.19A4.76,4.76,0,0,1,14.85,22.66ZM34,47.88,31.31,23a1.26,1.26,0,0,0-1.19-1L19.37,22a.7.7,0,0,0-.54.22.65.65,0,0,0-.15.53l2.74,24.86a1.26,1.26,0,0,0,1.19,1l10.75,0a.7.7,0,0,0,.54-.22.65.65,0,0,0,.15-.53Z"/><path class="cls-4" d="M15.83,22.68a3.51,3.51,0,0,1,.88-2.34,3.56,3.56,0,0,1,2.65-1.17l10.75,0a4.07,4.07,0,0,1,4,3.57l2.74,24.86A3.53,3.53,0,0,1,36,50.31a3.56,3.56,0,0,1-2.65,1.17l-10.75,0a4.07,4.07,0,0,1-4-3.57L15.85,23.08A3.59,3.59,0,0,1,15.83,22.68ZM34,48s0-.06,0-.09L31.28,23a1.23,1.23,0,0,0-1.16-1L19.37,22a.67.67,0,0,0-.52.21.64.64,0,0,0-.15.51l2.74,24.86a1.23,1.23,0,0,0,1.16,1l10.75,0a.67.67,0,0,0,.52-.21A.61.61,0,0,0,34,48Z"/><g class="cls-75"><rect class="cls-17" x="14.84" y="42.4" width="49.58" height="3.35"/><polygon class="cls-18" points="14.84 42.39 16.69 41.03 66.08 41.04 64.42 42.4 14.84 42.39"/><polygon class="cls-19" points="16.69 47.19 14.89 45.74 64.42 45.75 65.99 47.2 16.69 47.19"/><path class="cls-17" d="M14.55,45.62H64.46l1.83,1.69H16.65Zm49.82.24H15.23l1.5,1.21H65.68Z"/><rect class="cls-22" x="12.57" y="23.85" width="49.58" height="3.35"/><polygon class="cls-22" points="12.57 23.85 14.42 22.49 63.8 22.49 62.15 23.85 12.57 23.85"/><polygon class="cls-23" points="14.42 28.65 12.61 27.2 62.15 27.2 63.72 28.65 14.42 28.65"/><path class="cls-22" d="M12.54,27.2v0a.07.07,0,0,1,.07,0H62.15l0,0,1.57,1.45a.07.07,0,0,1,0,.12H14.42l0,0-1.81-1.45A.07.07,0,0,1,12.54,27.2Zm49.58.08H12.81l1.63,1.31H63.53Z"/><rect class="cls-27" x="11.95" y="17.62" width="49.58" height="3.35"/><polygon class="cls-25" points="11.95 17.62 13.8 16.26 63.19 16.26 61.53 17.62 11.95 17.62"/><polygon class="cls-28" points="13.8 22.41 11.98 20.97 61.53 20.97 63.1 22.42 13.8 22.41"/><path class="cls-29" d="M11.84,21a.14.14,0,0,1,0,0,.14.14,0,0,1,.13-.09H61.53a.14.14,0,0,1,.1,0l1.57,1.45a.14.14,0,0,1,0,.15.14.14,0,0,1-.13.09H13.8a.14.14,0,0,1-.09,0L11.9,21.08A.14.14,0,0,1,11.84,21Zm49.63.14H12.39l1.46,1.16H62.74Z"/><rect class="cls-32" x="11.19" y="11.36" width="49.58" height="3.35"/><polygon class="cls-33" points="11.2 11.36 13.05 10 62.43 10 60.77 11.36 11.2 11.36"/><polygon class="cls-34" points="13.05 16.16 11.23 14.71 60.77 14.71 62.34 16.16 13.05 16.16"/><path class="cls-32" d="M10.89,14.59H60.82l1.83,1.69H13Zm49.84.24H11.57L13.09,16H62Z"/><rect class="cls-37" x="14.1" y="36.19" width="49.58" height="3.35"/><polygon class="cls-38" points="14.1 36.19 15.95 34.83 65.33 34.83 63.68 36.19 14.1 36.19"/><polygon class="cls-39" points="15.95 40.98 14.11 39.53 63.68 39.54 65.25 40.99 15.95 40.98"/><path class="cls-37" d="M14,39.54a.14.14,0,0,1,0,0,.14.14,0,0,1,.13-.09H63.68a.14.14,0,0,1,.1,0l1.57,1.45a.14.14,0,0,1,0,.15.14.14,0,0,1-.13.09H16a.14.14,0,0,1-.09,0L14,39.65A.14.14,0,0,1,14,39.54Zm49.65.15H14.52L16,40.84H64.89Z"/><rect class="cls-42" x="13.38" y="30.05" width="49.58" height="3.35"/><polygon class="cls-43" points="13.38 30.05 15.23 28.69 64.62 28.7 62.96 30.05 13.38 30.05"/><polygon class="cls-44" points="15.23 34.85 13.41 33.4 62.96 33.4 64.53 34.85 15.23 34.85"/><path class="cls-43" d="M13.29,33.4a.13.13,0,0,1,0,0,.12.12,0,0,1,.11-.08H63a.12.12,0,0,1,.08,0l1.57,1.45a.12.12,0,0,1,0,.13.12.12,0,0,1-.11.08H15.23l-.07,0-1.82-1.45A.12.12,0,0,1,13.29,33.4Zm49.62.13H13.76l1.52,1.21H64.22Z"/><rect class="cls-47" x="6.37" y="48.17" width="49.58" height="3.35"/><polygon class="cls-48" points="6.37 48.17 8.22 46.81 57.61 46.81 55.95 48.17 6.37 48.17"/><polygon class="cls-49" points="8.22 52.97 6.41 51.52 55.95 51.52 57.52 52.97 8.22 52.97"/><path class="cls-47" d="M6.29,51.52a.13.13,0,0,1,0,0,.12.12,0,0,1,.11-.08H55.95a.12.12,0,0,1,.08,0l1.57,1.45a.12.12,0,0,1,0,.13.12.12,0,0,1-.11.08H8.22l-.07,0L6.34,51.61A.12.12,0,0,1,6.29,51.52Zm49.61.12H6.75l1.51,1.21h49Z"/><rect class="cls-53" x="5.53" y="41.91" width="49.58" height="3.35"/><polygon class="cls-51" points="5.53 41.9 7.39 40.54 56.77 40.55 55.11 41.91 5.53 41.9"/><polygon class="cls-54" points="7.38 46.7 5.57 45.26 55.11 45.26 56.68 46.71 7.38 46.7"/><path class="cls-53" d="M5.43,45.26a.14.14,0,0,1,0,0,.14.14,0,0,1,.13-.09H55.11a.14.14,0,0,1,.1,0l1.57,1.45a.14.14,0,0,1-.1.24H7.38a.14.14,0,0,1-.09,0L5.48,45.37A.14.14,0,0,1,5.43,45.26Zm49.63.14H6l1.46,1.16H56.32Z"/><rect class="cls-56" x="4.59" y="35.67" width="49.58" height="3.35"/><polygon class="cls-6" points="4.59 35.67 6.44 34.31 55.83 34.32 54.17 35.68 4.59 35.67"/><polygon class="cls-57" points="6.44 40.47 4.63 39.02 54.17 39.02 55.74 40.47 6.44 40.47"/><path class="cls-56" d="M4.48,39a.15.15,0,0,1,0,0,.14.14,0,0,1,.13-.09H54.17a.14.14,0,0,1,.1,0l1.57,1.45a.14.14,0,0,1,0,.15.14.14,0,0,1-.13.09H6.44a.14.14,0,0,1-.09,0L4.54,39.13A.14.14,0,0,1,4.48,39Zm49.63.15H5l1.47,1.17H55.38Z"/><rect class="cls-60" x="4.06" y="29.41" width="49.58" height="3.35"/><polygon class="cls-61" points="4.06 29.41 5.91 28.05 55.29 28.06 53.64 29.42 4.06 29.41"/><polygon class="cls-62" points="5.91 34.21 4.09 32.77 53.64 32.77 55.21 34.22 5.91 34.21"/><path class="cls-60" d="M4,32.77a.12.12,0,0,1,0,0,.12.12,0,0,1,.11-.08H53.64a.12.12,0,0,1,.08,0l1.57,1.45a.12.12,0,0,1,0,.13.12.12,0,0,1-.11.08H5.91l-.07,0L4,32.86A.12.12,0,0,1,4,32.77Zm49.62.12H4.43l1.52,1.2h49Z"/><rect class="cls-66" x="3.32" y="23.15" width="49.58" height="3.35"/><polygon class="cls-64" points="3.31 23.14 5.17 21.78 54.55 21.79 52.9 23.15 3.31 23.14"/><polygon class="cls-67" points="5.17 27.94 3.36 26.49 52.9 26.5 54.47 27.95 5.17 27.94"/><path class="cls-68" d="M3.22,26.49a.15.15,0,0,1,0,0,.14.14,0,0,1,.13-.09H52.89a.14.14,0,0,1,.1,0l1.57,1.45a.14.14,0,0,1-.1.24H5.17a.14.14,0,0,1-.09,0L3.27,26.6A.14.14,0,0,1,3.22,26.49Zm49.62.15H3.76L5.22,27.8H54.11Z"/><rect class="cls-70" x="2.36" y="16.95" width="49.58" height="3.35"/><polygon class="cls-72" points="2.36 16.95 4.21 15.59 53.6 15.6 51.94 16.96 2.36 16.95"/><polygon class="cls-73" points="4.21 21.75 2.39 20.3 51.94 20.31 53.51 21.76 4.21 21.75"/><path class="cls-70" d="M2.25,20.3a.15.15,0,0,1,0,0,.14.14,0,0,1,.13-.09H51.94a.14.14,0,0,1,.1,0l1.57,1.45a.14.14,0,0,1,0,.15.14.14,0,0,1-.13.09H4.21a.14.14,0,0,1-.09,0L2.31,20.41A.14.14,0,0,1,2.25,20.3Zm49.63.15H2.8l1.47,1.17H53.15Z"/></g></svg>