<svg id="Layer_1" data-name="Layer 1" xmlns="http://www.w3.org/2000/svg" viewBox="0 0 8.16 78.57"><defs><style>.cls-1{fill:#e6c195;}.cls-1,.cls-2,.cls-4,.cls-5,.cls-6{fill-rule:evenodd;}.cls-2{fill:#ffeed6;}.cls-3{fill:#dfaf7a;}.cls-4,.cls-9{fill:#ce9476;}.cls-5,.cls-7{fill:#8a4324;}.cls-6{fill:#ddb7a0;}.cls-8{fill:#57182c;}</style></defs><title>chocolaty-pencil</title><path class="cls-1" d="M4.17,75.56a2.23,2.23,0,0,1-.56,0l-.07,0L1.74,64.25l4.37,0L4.18,75.56Z"/><path class="cls-2" d="M8,66.32,5,75.41a3.1,3.1,0,0,1-.77.15l1.94-11.2Z"/><path class="cls-3" d="M6,64,4,75.76h.23A3.25,3.25,0,0,0,5,75.58l.09,0,3.06-9.28ZM4.4,75.36l1.84-10.6,1.51,1.61-2.94,8.9A3,3,0,0,1,4.4,75.36Z"/><polygon class="cls-4" points="3.04 75.37 0 66.42 1.78 64.3 3.54 75.52 3.04 75.37"/><path class="cls-5" d="M5.16,74.72a1.69,1.69,0,0,0-2.32,0,23.24,23.24,0,0,0,1.09,3.66c.09.29.2-.07.33-.43S5.16,74.72,5.16,74.72Z"/><path class="cls-6" d="M5.05,74.49a1.34,1.34,0,0,0-.62-.29c-.14,1.94-.38,4-.39,4.31s.26-.65.33-1Z"/><rect class="cls-7" x="1.76" y="0.1" width="4.34" height="64.2"/><polygon class="cls-8" points="1.76 0.1 0 2.5 0 66.44 1.76 64.3 1.76 0.1"/><polygon class="cls-9" points="7.99 2.5 6.11 0.15 6.11 64.3 7.99 66.33 7.99 2.5"/><path class="cls-7" d="M6.11,0H6.06A.16.16,0,0,0,6,.15V64.3a.15.15,0,0,0,0,.1l1.88,2a.15.15,0,0,0,.17,0,.15.15,0,0,0,.1-.14V2.5a.16.16,0,0,0,0-.1L6.23.06A.16.16,0,0,0,6.11,0Zm.15,64.24V.6l1.57,2V65.94Z"/></svg>